<?xml version="1.0" encoding="UTF-8" standalone="no"?>
<svg xmlns:ffdec="https://www.free-decompiler.com/flash" xmlns:xlink="http://www.w3.org/1999/xlink" ffdec:objectType="frame" height="269.5px" width="285.6px" xmlns="http://www.w3.org/2000/svg">
  <g transform="matrix(1.0, 0.0, 0.0, 1.0, 119.0, 242.9)">
    <use ffdec:characterId="493" height="28.4" transform="matrix(6.8696, 0.0, 0.0, 7.0, -108.1962, -218.75)" width="39.0" xlink:href="#shape0"/>
  </g>
  <defs>
    <g id="shape0" transform="matrix(1.0, 0.0, 0.0, 1.0, 15.75, 31.25)">
      <path d="M1.7 -30.65 Q1.6 -30.55 1.45 -30.55 1.2 -30.55 1.1 -30.75 1.05 -30.8 1.05 -30.9 1.05 -31.25 1.45 -31.25 1.8 -31.25 1.8 -30.9 1.8 -30.75 1.7 -30.65 M10.35 -29.05 L11.2 -29.0 Q12.35 -28.7 12.35 -27.9 12.35 -27.6 11.85 -27.6 11.65 -27.6 10.8 -28.05 10.0 -28.55 10.0 -28.65 10.0 -28.95 10.35 -29.05 M13.45 -26.25 Q13.65 -25.85 13.65 -25.7 L13.6 -25.55 13.3 -25.45 Q13.2 -25.55 13.05 -25.9 12.9 -26.25 12.9 -26.3 12.9 -26.55 13.15 -26.75 L13.45 -26.25 M21.35 -19.35 L21.6 -18.95 Q21.6 -18.55 21.4 -18.2 21.15 -17.65 20.6 -17.65 20.35 -17.7 20.4 -18.15 L20.5 -18.8 Q20.5 -18.85 20.3 -19.15 20.05 -19.45 20.05 -19.6 20.05 -20.7 20.8 -20.0 L21.35 -19.35 M20.15 -20.75 Q20.1 -20.85 20.1 -20.95 20.1 -21.35 20.5 -21.35 20.85 -21.4 20.85 -21.05 20.85 -20.6 20.45 -20.6 20.2 -20.6 20.15 -20.75 M19.8 -15.3 Q19.8 -15.5 20.0 -15.6 20.2 -15.7 20.5 -15.65 21.15 -15.55 21.15 -14.9 21.15 -14.4 20.8 -14.4 20.4 -14.4 20.05 -14.85 19.8 -15.15 19.8 -15.3 M4.35 -21.6 Q4.7 -21.45 4.7 -21.2 4.7 -21.05 4.45 -20.9 4.25 -20.75 4.15 -20.75 L3.35 -20.95 3.05 -20.85 2.7 -20.8 Q2.45 -20.8 2.4 -21.0 2.35 -21.1 2.4 -21.2 2.4 -21.45 2.55 -21.65 2.7 -21.85 3.05 -21.85 3.95 -21.85 4.35 -21.6 M0.1 -19.4 Q0.0 -19.3 -0.1 -19.3 -0.35 -19.3 -0.4 -19.45 L-0.45 -19.6 Q-0.45 -19.9 -0.05 -19.95 0.3 -20.0 0.3 -19.65 0.3 -19.5 0.1 -19.4 M1.1 -14.4 Q1.0 -14.35 0.9 -14.35 0.65 -14.35 0.5 -14.5 L0.45 -14.65 0.45 -14.9 Q0.85 -15.05 1.05 -14.9 1.2 -14.75 1.2 -14.6 1.2 -14.45 1.1 -14.4 M6.95 -18.9 Q6.4 -18.9 6.05 -19.25 5.85 -19.5 5.85 -19.75 5.85 -19.95 6.05 -20.05 6.25 -20.15 6.55 -20.05 7.2 -19.85 7.2 -19.15 7.2 -19.0 7.15 -18.95 7.1 -18.9 6.95 -18.9 M10.95 -14.35 Q10.85 -14.25 10.7 -14.25 10.45 -14.25 10.15 -14.6 10.0 -14.75 9.95 -14.9 9.95 -15.35 10.5 -15.15 11.1 -14.95 11.1 -14.6 11.1 -14.45 10.95 -14.35 M11.55 -7.55 Q11.7 -7.75 11.8 -7.75 11.95 -7.8 12.1 -7.55 L12.05 -7.35 11.85 -7.25 Q11.7 -7.3 11.55 -7.35 L11.55 -7.55 M11.1 -8.2 Q10.95 -8.45 10.9 -8.65 10.9 -9.15 11.5 -8.9 12.1 -8.65 12.1 -8.25 12.1 -8.1 12.05 -7.95 11.9 -7.8 11.65 -7.8 11.35 -7.8 11.1 -8.2 M5.6 -12.85 Q5.6 -12.6 5.4 -12.25 5.15 -11.85 4.95 -11.85 4.6 -11.85 4.3 -12.6 4.2 -13.0 4.15 -13.35 4.15 -13.9 4.9 -13.6 5.6 -13.3 5.6 -12.85 M3.0 -13.45 Q2.4 -13.45 2.15 -13.75 2.0 -13.9 2.0 -14.05 2.0 -14.45 2.8 -14.25 3.6 -14.0 3.85 -13.7 L3.85 -13.65 Q3.15 -13.45 3.0 -13.45 M0.5 -7.2 L0.45 -7.25 0.4 -7.35 Q0.4 -7.45 0.4 -7.55 0.4 -7.75 0.45 -7.7 L0.8 -7.7 0.8 -7.25 Q0.75 -7.2 0.65 -7.2 L0.5 -7.2 M6.8 -2.85 Q6.5 -2.85 6.4 -3.15 L6.4 -3.35 Q6.4 -3.8 6.9 -3.75 7.4 -3.7 7.4 -3.15 L7.7 -3.15 7.7 -3.1 Q7.45 -3.1 7.25 -3.0 7.0 -2.85 6.8 -2.85 M10.4 -2.95 Q10.3 -2.95 10.25 -3.15 10.2 -3.25 10.2 -3.3 L11.15 -4.4 Q12.05 -5.25 12.05 -4.15 12.05 -3.8 11.6 -3.4 11.05 -2.95 10.4 -2.95 M9.95 -3.2 Q9.9 -3.1 9.8 -3.05 L9.6 -3.05 9.55 -3.1 9.55 -3.25 Q9.55 -3.4 9.7 -3.45 9.9 -3.55 10.0 -3.3 L9.95 -3.2 M23.25 -12.15 Q23.25 -11.8 22.7 -11.25 22.15 -10.6 21.55 -10.6 21.35 -10.6 21.3 -10.75 21.3 -10.85 21.3 -10.95 21.3 -11.45 21.8 -11.7 22.3 -11.95 22.3 -12.3 L22.2 -12.55 Q22.15 -12.75 22.15 -12.85 22.15 -13.6 22.7 -13.15 23.25 -12.7 23.25 -12.15 M19.9 -12.95 Q20.4 -13.0 20.4 -12.3 20.4 -12.1 20.15 -11.85 19.85 -11.55 19.6 -11.55 19.45 -11.55 19.4 -11.65 19.3 -11.7 19.3 -11.75 L19.35 -12.0 19.4 -12.45 Q19.4 -12.65 19.55 -12.8 19.7 -12.95 19.9 -12.95 M12.35 -7.4 Q12.35 -7.65 12.55 -7.7 12.7 -7.7 13.0 -7.55 13.6 -7.15 13.6 -6.65 13.6 -6.35 13.5 -6.15 13.4 -5.9 13.1 -5.9 12.7 -5.9 12.6 -6.1 12.55 -6.15 12.55 -6.35 L12.55 -6.65 12.75 -7.0 Q12.65 -7.15 12.5 -7.25 12.35 -7.35 12.35 -7.4 M-4.0 -29.1 Q-3.35 -29.4 -2.6 -29.4 L-2.6 -29.2 Q-2.7 -29.0 -3.25 -28.65 -3.85 -28.2 -4.15 -28.2 -4.25 -28.2 -4.4 -28.3 -4.6 -28.35 -4.65 -28.45 -4.5 -28.8 -4.0 -29.1 M-1.7 -29.15 L-1.95 -29.1 Q-2.15 -29.25 -2.2 -29.3 L-2.25 -29.4 -2.2 -29.55 Q-1.9 -29.65 -1.7 -29.35 L-1.7 -29.15 M-6.8 -27.7 Q-6.55 -27.8 -6.4 -27.75 -6.2 -27.7 -6.2 -27.45 -6.2 -27.3 -6.65 -26.95 -7.0 -26.65 -7.1 -26.65 -7.3 -26.65 -7.35 -26.75 L-7.4 -26.9 Q-7.4 -27.45 -6.8 -27.7 M-10.65 -23.85 Q-10.65 -23.8 -10.65 -23.7 L-10.85 -23.3 Q-11.1 -22.9 -11.25 -22.85 L-11.6 -22.9 -11.6 -22.95 -11.65 -23.1 Q-11.65 -23.25 -11.45 -23.5 -11.15 -23.85 -10.7 -23.85 L-10.65 -23.85 M-11.35 -15.85 Q-11.35 -15.75 -11.4 -15.55 L-11.5 -15.2 -11.55 -15.15 -11.75 -15.15 Q-11.9 -15.15 -11.95 -15.35 L-12.0 -15.55 Q-12.0 -15.75 -11.85 -15.95 -11.65 -16.15 -11.4 -16.05 -11.35 -16.05 -11.35 -15.85 M-2.3 -19.7 L-2.05 -19.5 -2.35 -19.5 Q-2.35 -19.45 -2.45 -19.4 L-2.7 -19.35 -2.75 -19.35 Q-2.95 -19.2 -3.4 -19.1 -3.9 -18.95 -4.65 -18.95 -4.95 -18.95 -4.95 -19.2 -4.95 -19.95 -4.15 -20.15 -3.4 -20.35 -2.5 -19.8 L-2.4 -19.8 -2.3 -19.7 M-1.95 -14.35 Q-2.8 -14.35 -3.05 -14.2 L-3.5 -13.85 -3.65 -13.85 Q-3.7 -13.85 -3.7 -14.0 -3.7 -15.15 -2.65 -15.4 -2.25 -15.5 -1.95 -15.3 -1.6 -15.15 -1.6 -14.8 -1.6 -14.65 -1.65 -14.6 -1.7 -14.4 -1.95 -14.35 M-0.8 -14.6 L-0.65 -14.65 -0.3 -14.6 -0.3 -14.55 -0.25 -14.45 -0.4 -14.3 Q-0.5 -14.25 -0.55 -14.25 -0.8 -14.25 -0.75 -14.3 -0.85 -14.35 -0.85 -14.45 L-0.8 -14.6 M-13.4 -18.8 Q-13.4 -18.25 -14.05 -17.1 -14.7 -15.95 -14.7 -15.5 -14.7 -15.25 -14.5 -15.05 -14.25 -14.9 -14.25 -14.7 -14.25 -14.45 -14.35 -14.4 -14.45 -14.3 -14.8 -14.3 -15.35 -14.3 -15.6 -15.2 -15.75 -15.65 -15.75 -16.1 -15.75 -17.95 -14.6 -18.85 -14.15 -19.2 -13.8 -19.2 -13.4 -19.2 -13.4 -18.8 M-13.65 -15.45 Q-13.7 -15.2 -13.95 -15.2 -14.2 -15.2 -14.25 -15.35 L-14.25 -15.6 Q-14.25 -16.3 -13.95 -16.4 -13.65 -16.5 -13.65 -15.8 L-13.65 -15.45 M-11.8 -13.45 L-11.65 -13.45 Q-11.55 -13.5 -11.55 -13.6 -11.8 -13.6 -11.8 -13.55 L-11.8 -13.45 M-13.6 -11.75 Q-13.6 -12.4 -13.2 -13.0 -12.8 -13.5 -12.25 -13.8 -11.7 -14.1 -11.3 -14.05 -10.9 -13.95 -10.9 -13.4 L-11.4 -13.05 Q-11.9 -12.6 -12.1 -12.2 -12.2 -11.85 -12.35 -11.55 -12.65 -11.0 -12.95 -11.0 -13.35 -11.0 -13.55 -11.35 -13.6 -11.55 -13.6 -11.75 M-12.6 -10.05 L-12.6 -10.0 -12.8 -9.95 Q-13.0 -10.0 -13.1 -10.15 -13.2 -10.25 -13.2 -10.4 -13.2 -10.7 -12.9 -10.6 -12.55 -10.55 -12.55 -10.25 L-12.6 -10.05 M-12.75 -8.3 Q-12.45 -8.2 -12.05 -7.65 -11.65 -7.15 -11.65 -7.0 -11.65 -6.85 -11.8 -6.75 -11.95 -6.7 -12.0 -6.7 -12.7 -6.7 -13.0 -7.2 -13.15 -7.45 -13.15 -7.75 -13.15 -8.15 -13.05 -8.25 -12.95 -8.5 -12.55 -8.55 L-12.75 -8.3 M-3.8 -13.5 L-3.75 -13.35 -3.85 -13.2 Q-3.95 -13.1 -4.05 -13.05 L-4.25 -13.25 -4.3 -13.35 Q-4.3 -13.5 -4.25 -13.55 -4.15 -13.65 -3.8 -13.55 L-3.8 -13.5 M-5.1 -11.85 Q-5.15 -11.95 -5.15 -12.05 -5.15 -12.75 -4.65 -12.8 -4.45 -12.8 -4.3 -12.65 -4.15 -12.5 -4.15 -12.3 -4.15 -12.15 -4.25 -11.95 -4.45 -11.65 -4.75 -11.65 -5.0 -11.65 -5.1 -11.85 M-0.25 -8.1 Q0.1 -8.1 0.1 -7.75 0.1 -7.6 -0.05 -7.6 -0.45 -7.5 -0.75 -7.35 -0.95 -7.4 -1.0 -7.5 L-1.0 -7.65 Q-1.0 -7.85 -0.7 -8.0 -0.45 -8.1 -0.25 -8.1 M-7.45 -5.7 L-6.8 -5.5 Q-5.8 -5.45 -5.8 -5.0 -5.8 -4.8 -5.9 -4.7 -6.0 -4.6 -6.25 -4.5 L-6.8 -4.5 Q-7.35 -4.75 -8.65 -4.95 -9.05 -5.0 -9.25 -5.15 -9.45 -5.3 -9.45 -5.65 L-9.45 -5.8 -9.4 -5.9 Q-9.35 -5.8 -9.35 -5.7 L-9.1 -5.85 -8.5 -5.9 Q-8.05 -5.9 -7.45 -5.7" fill="#7b9972" fill-rule="evenodd" stroke="none"/>
      <path d="M2.8 -29.35 L2.55 -29.55 Q2.55 -30.2 3.85 -30.3 5.45 -30.5 8.3 -29.8 8.85 -29.65 9.3 -28.9 9.8 -28.15 10.25 -27.9 12.15 -26.9 12.7 -26.05 13.1 -25.45 13.1 -24.15 13.1 -23.5 13.0 -23.25 12.8 -22.6 12.1 -22.6 11.1 -22.6 10.25 -23.45 9.85 -23.85 9.55 -24.35 9.25 -24.6 8.75 -25.25 8.2 -25.8 7.3 -25.95 5.9 -26.25 5.2 -26.7 4.7 -27.0 4.25 -27.7 3.8 -28.4 3.3 -28.85 3.3 -28.7 3.1 -28.5 L3.0 -28.4 Q3.0 -28.1 2.9 -28.0 2.7 -27.75 2.05 -27.75 1.75 -27.75 1.35 -27.9 L1.0 -28.05 Q0.3 -28.05 -0.55 -26.6 -1.4 -25.05 -1.55 -24.85 -2.35 -23.65 -3.35 -23.35 L-4.65 -23.1 Q-5.75 -22.85 -6.05 -22.7 L-6.55 -22.3 Q-7.05 -22.0 -7.4 -22.0 L-8.05 -22.0 -8.2 -21.8 Q-8.4 -21.55 -8.55 -21.55 -8.8 -21.55 -8.95 -21.8 -9.0 -21.95 -9.0 -22.1 -9.0 -22.5 -8.5 -22.45 L-8.25 -22.4 -8.2 -22.5 Q-8.1 -22.6 -8.1 -22.7 -8.1 -22.85 -8.2 -22.95 -8.3 -23.05 -8.3 -23.2 -8.3 -23.3 -7.9 -23.9 -7.55 -24.5 -7.55 -24.55 L-7.6 -25.2 Q-7.6 -25.6 -7.5 -25.85 -7.25 -26.5 -6.4 -27.15 -5.4 -27.9 -4.2 -28.1 -2.7 -28.4 -1.7 -29.05 -1.1 -29.45 -0.2 -30.25 1.1 -31.25 2.45 -29.25 2.6 -29.35 2.8 -29.35 M20.05 -24.75 Q20.25 -24.55 20.5 -23.8 20.7 -23.15 20.7 -23.05 20.7 -22.7 20.3 -21.85 19.9 -21.0 19.9 -20.7 19.9 -20.55 20.05 -20.1 L20.15 -19.5 Q20.15 -19.15 19.65 -18.6 19.05 -17.95 18.4 -17.95 16.8 -17.95 16.7 -19.0 L16.75 -19.9 Q16.75 -20.45 16.6 -20.7 16.15 -21.35 15.6 -21.6 15.25 -21.75 14.6 -21.75 14.0 -21.8 13.8 -21.95 13.5 -22.2 13.5 -22.9 13.5 -23.15 13.7 -23.2 L14.15 -23.35 Q15.05 -23.45 15.5 -24.0 16.25 -24.8 16.75 -24.8 17.1 -24.75 17.75 -24.4 18.7 -24.35 18.95 -24.55 L19.1 -24.7 Q19.2 -24.8 19.35 -24.8 L20.05 -24.75 M4.85 -19.3 Q6.95 -18.05 6.95 -17.45 6.95 -17.15 6.5 -16.35 6.05 -15.5 5.7 -15.5 5.2 -15.5 5.05 -15.65 4.95 -15.75 4.9 -16.0 4.85 -16.3 4.75 -16.45 4.65 -16.65 4.25 -16.75 3.3 -16.95 2.85 -17.15 2.35 -17.4 2.35 -17.7 L2.6 -18.0 Q2.35 -17.9 1.85 -17.9 L1.6 -17.9 1.6 -17.85 Q1.5 -17.45 1.35 -17.4 -0.3 -17.4 -1.1 -16.65 -1.55 -16.2 -1.75 -16.1 -2.2 -15.9 -2.9 -15.9 -3.45 -15.9 -3.75 -16.3 -3.9 -16.6 -3.9 -16.8 -3.9 -17.4 -3.6 -17.75 -3.2 -18.15 -1.8 -18.75 -1.2 -19.0 -0.8 -19.05 -0.15 -19.15 0.4 -18.9 L1.1 -18.4 Q1.1 -18.6 1.35 -18.7 1.55 -18.8 1.65 -18.8 L2.45 -18.75 Q2.75 -18.65 2.75 -18.4 2.75 -18.25 2.7 -18.15 L3.3 -18.7 Q4.4 -19.6 4.85 -19.3 M7.85 -15.0 Q8.15 -15.2 8.65 -15.1 9.1 -15.0 9.45 -14.7 9.8 -14.4 9.8 -14.05 9.8 -13.7 9.55 -13.6 L8.45 -13.5 Q7.95 -13.5 7.65 -13.85 7.5 -14.05 7.5 -14.25 7.5 -14.8 7.85 -15.0 M10.1 -13.7 Q10.1 -14.0 10.6 -13.95 L11.4 -13.9 Q11.9 -13.9 12.05 -13.6 L12.1 -13.3 Q12.1 -12.35 10.7 -12.25 10.65 -12.4 10.65 -12.7 10.7 -12.95 10.65 -13.1 10.5 -13.35 10.3 -13.45 10.1 -13.5 10.1 -13.7 M-9.7 -21.3 Q-10.35 -20.9 -10.3 -20.15 -10.3 -19.65 -10.45 -19.2 -10.7 -18.3 -11.35 -18.3 -12.3 -18.3 -12.75 -18.75 -13.15 -19.15 -13.15 -19.75 -13.15 -20.35 -12.5 -21.3 -11.9 -22.2 -11.1 -22.85 -10.2 -23.55 -9.65 -23.5 -9.0 -23.4 -9.0 -22.2 -9.0 -21.85 -9.25 -21.6 -9.35 -21.5 -9.7 -21.3 M-5.2 -14.65 Q-5.2 -14.4 -6.6 -13.75 -7.95 -13.1 -8.15 -13.1 -8.55 -13.1 -8.75 -13.4 -8.8 -13.55 -8.8 -13.75 -8.8 -14.25 -7.7 -15.1 -6.55 -16.0 -5.85 -15.9 -5.9 -15.7 -6.05 -15.7 -5.5 -15.65 -5.3 -15.25 -5.2 -15.05 -5.2 -14.65" fill="#5d7356" fill-rule="evenodd" stroke="none"/>
    </g>
  </defs>
</svg>
