<?xml version="1.0" encoding="UTF-8" standalone="no"?>
<svg xmlns:ffdec="https://www.free-decompiler.com/flash" xmlns:xlink="http://www.w3.org/1999/xlink" ffdec:objectType="frame" height="412.3px" width="762.3px" xmlns="http://www.w3.org/2000/svg">
  <g transform="matrix(1.0, 0.0, 0.0, 1.0, 232.4, 347.9)">
    <use ffdec:characterId="18" height="55.55" transform="matrix(7.0, 0.0, 0.0, 7.0, 140.0, -347.9)" width="46.7" xlink:href="#shape0"/>
  </g>
  <defs>
    <g id="shape0" transform="matrix(1.0, 0.0, 0.0, 1.0, -20.0, 49.7)">
      <path d="M30.9 -44.7 Q31.2 -44.85 31.55 -44.85 31.8 -44.8 32.0 -44.7 32.2 -44.6 32.35 -44.35 32.5 -44.0 32.5 -43.5 L32.5 -43.3 32.45 -43.1 32.3 -42.95 32.25 -42.85 Q31.95 -42.4 31.3 -42.35 L30.4 -42.35 Q30.1 -42.55 30.0 -42.9 29.9 -43.2 29.9 -43.65 29.9 -44.05 30.1 -44.2 L30.2 -44.3 30.3 -44.45 30.7 -44.55 30.9 -44.7 M32.8 -39.0 L32.85 -38.95 Q33.95 -38.65 34.65 -38.3 L35.1 -37.65 Q36.05 -36.3 36.05 -36.1 36.05 -34.85 34.45 -33.6 32.8 -32.35 30.95 -32.35 29.1 -32.35 28.35 -33.15 27.65 -33.9 27.65 -35.55 27.65 -36.05 27.9 -36.35 28.15 -36.65 29.35 -37.55 29.55 -37.65 29.85 -38.05 30.1 -38.35 30.4 -38.5 31.05 -38.9 32.8 -39.0 M25.85 -35.6 Q24.75 -34.85 23.45 -34.85 21.25 -34.85 20.4 -36.1 20.0 -36.75 20.0 -37.5 20.0 -38.75 21.05 -39.5 22.05 -40.15 23.45 -40.05 24.85 -40.0 25.8 -39.25 26.85 -38.4 26.85 -37.0 26.85 -36.3 25.85 -35.6 M38.0 -33.5 Q38.45 -33.4 39.15 -32.95 40.15 -32.25 40.5 -32.1 41.45 -31.6 42.65 -31.35 L42.75 -31.3 43.2 -31.3 44.55 -31.25 44.9 -31.25 44.95 -31.2 45.05 -31.2 45.7 -31.05 46.45 -31.05 Q47.4 -30.9 48.0 -30.5 L48.25 -30.35 Q48.5 -30.2 48.6 -29.95 48.75 -29.7 48.75 -29.35 48.75 -29.0 48.6 -28.7 48.45 -28.45 48.15 -28.15 48.5 -27.65 49.1 -27.15 49.45 -26.85 49.45 -26.35 49.45 -25.4 48.7 -24.8 47.7 -24.0 45.45 -23.95 L45.35 -23.9 Q45.45 -23.8 45.65 -23.6 45.9 -23.4 45.9 -23.05 45.9 -22.7 45.65 -22.35 45.35 -21.9 44.8 -21.9 L44.7 -21.9 44.45 -21.85 Q43.65 -21.85 43.0 -22.1 L42.95 -22.1 42.95 -22.15 42.35 -22.5 Q42.15 -22.65 42.05 -22.8 41.0 -22.8 39.85 -23.8 L39.65 -23.95 39.35 -24.15 Q39.2 -24.3 39.1 -24.45 38.75 -24.85 38.75 -25.15 38.75 -26.1 39.25 -26.65 39.9 -27.35 42.1 -28.35 L42.5 -28.95 42.65 -29.15 42.4 -29.5 Q41.8 -30.45 40.05 -30.8 38.5 -31.1 37.6 -31.45 36.75 -31.55 36.45 -31.9 36.35 -32.0 36.3 -32.15 36.0 -32.3 35.9 -32.5 35.85 -32.65 35.85 -32.95 35.85 -33.45 36.3 -33.65 36.75 -33.8 37.45 -33.65 L37.9 -33.5 38.0 -33.5 M40.2 -25.15 L40.15 -25.15 40.2 -25.1 40.2 -25.15 M41.05 -16.5 Q41.3 -17.85 42.05 -18.0 44.05 -18.2 46.0 -17.4 46.65 -17.1 47.05 -16.8 47.5 -16.7 47.85 -16.5 49.3 -15.7 49.3 -13.9 49.3 -12.25 48.45 -10.95 47.15 -9.05 44.35 -8.55 42.05 -9.45 41.0 -10.5 40.05 -11.45 40.05 -12.75 40.05 -14.0 40.95 -15.05 40.95 -16.0 41.05 -16.5 M29.75 -22.5 Q29.75 -21.8 29.3 -20.95 28.8 -20.05 28.25 -20.05 L27.5 -20.1 27.2 -20.15 Q26.9 -20.4 26.65 -20.7 26.35 -21.1 26.35 -21.3 L26.3 -21.75 26.3 -22.35 Q26.3 -23.55 26.85 -24.05 27.3 -24.45 28.05 -24.25 28.7 -24.05 29.25 -23.55 29.75 -23.0 29.75 -22.5 M55.1 -49.55 Q55.6 -49.55 55.75 -49.25 55.95 -49.15 56.05 -48.95 56.15 -48.8 56.15 -48.5 56.15 -47.85 55.5 -47.2 55.15 -46.85 54.9 -46.7 54.7 -46.5 54.4 -46.4 L53.6 -46.4 Q53.3 -46.45 53.1 -46.65 52.9 -46.75 52.75 -46.9 L52.7 -47.0 Q52.45 -47.2 52.35 -47.4 52.25 -47.65 52.25 -48.05 52.25 -48.65 52.65 -49.0 53.05 -49.35 54.15 -49.7 L54.95 -49.65 55.1 -49.55 M64.35 -22.5 Q63.2 -22.5 62.15 -23.0 L61.7 -22.95 Q60.4 -22.95 59.65 -23.6 L59.4 -23.85 Q59.0 -24.1 58.7 -24.55 L58.65 -24.6 Q58.25 -25.0 58.25 -25.3 L58.25 -25.4 Q58.15 -25.6 58.15 -25.75 58.15 -25.95 58.4 -26.2 58.65 -26.4 58.95 -26.5 L59.1 -26.55 59.2 -26.65 60.5 -26.5 61.1 -26.5 Q61.25 -27.15 61.95 -27.5 62.75 -27.9 63.9 -27.8 65.05 -27.7 65.8 -27.15 66.7 -26.5 66.7 -25.5 66.7 -25.2 66.55 -24.9 66.65 -24.7 66.65 -24.5 66.65 -23.8 66.05 -23.2 65.4 -22.5 64.35 -22.5 M58.85 -16.15 Q58.85 -15.6 57.85 -15.1 56.85 -14.65 56.0 -14.65 55.05 -14.65 54.45 -15.5 54.05 -16.1 54.05 -16.5 54.05 -17.15 54.5 -17.65 L54.8 -17.9 54.85 -17.95 54.95 -17.95 Q55.55 -18.2 56.6 -17.9 L57.7 -17.9 Q58.1 -17.55 58.5 -16.85 58.85 -16.3 58.85 -16.15 M55.65 -4.95 Q55.55 -5.3 55.65 -5.7 L55.65 -6.25 Q55.65 -6.55 55.8 -6.75 56.2 -7.35 57.85 -7.5 58.45 -7.25 58.65 -6.75 58.7 -6.6 58.7 -6.1 58.7 -5.05 58.3 -4.65 57.9 -4.25 56.9 -4.25 55.9 -4.25 55.65 -4.95 M44.7 5.85 L44.15 5.6 Q43.8 5.45 43.7 5.35 43.8 5.0 44.05 4.75 44.25 4.55 44.55 4.6 45.15 4.6 44.95 5.6 44.9 5.75 44.7 5.85 M39.05 3.6 Q38.55 4.0 37.7 4.0 35.25 4.0 34.45 2.9 34.1 2.45 34.1 1.55 34.1 1.0 34.65 0.85 35.4 0.6 37.7 0.85 38.35 0.4 38.95 1.2 39.45 1.95 39.45 2.75 39.45 3.25 39.05 3.6" fill="#13e1ec" fill-rule="evenodd" stroke="none"/>
      <path d="M32.25 -43.6 L32.15 -43.45 Q32.05 -43.55 31.95 -43.75 L31.85 -44.05 Q31.8 -44.15 31.5 -44.3 L31.1 -44.45 Q31.5 -44.95 31.95 -44.55 32.3 -44.2 32.3 -43.85 L32.25 -43.6 M31.65 -38.35 L31.65 -38.55 Q31.65 -38.7 31.75 -38.75 L32.75 -38.75 Q33.05 -38.65 33.1 -38.5 33.05 -38.35 33.0 -38.3 L32.35 -38.3 31.7 -38.4 31.65 -38.35 M33.4 -38.2 Q33.85 -38.8 34.85 -37.7 35.25 -37.3 35.55 -36.8 35.85 -36.3 35.85 -36.05 L35.8 -35.75 35.65 -35.55 35.35 -35.85 35.45 -35.9 Q35.5 -35.95 35.5 -36.1 35.5 -36.45 34.55 -37.25 33.8 -37.95 33.4 -38.2 M24.15 -39.1 L23.4 -39.5 Q23.4 -39.65 23.55 -39.7 24.95 -39.55 25.65 -39.0 26.1 -38.6 26.25 -38.15 L26.3 -38.1 26.3 -37.85 26.1 -37.85 25.3 -38.35 Q24.5 -38.9 24.25 -38.95 L24.2 -39.0 Q24.15 -39.05 24.15 -39.1 M39.75 -32.4 Q40.05 -32.15 40.25 -32.1 L40.3 -32.0 40.3 -31.95 40.15 -31.95 Q40.05 -31.95 38.9 -32.55 37.7 -33.15 37.55 -33.15 L37.35 -33.35 37.5 -33.5 Q38.5 -33.45 39.25 -32.85 L39.75 -32.4 M45.7 -22.8 Q45.6 -22.65 45.4 -22.65 45.3 -22.75 45.25 -22.95 L45.2 -23.25 45.0 -23.5 Q44.75 -23.75 44.65 -23.9 45.25 -24.0 45.55 -23.7 45.75 -23.5 45.75 -23.1 45.75 -22.95 45.7 -22.8 M42.45 -17.6 L43.65 -17.65 Q45.2 -17.5 45.7 -17.25 46.0 -17.1 46.3 -16.75 46.0 -16.75 44.8 -17.0 L43.65 -17.3 43.1 -17.25 42.3 -17.15 42.1 -16.85 41.95 -16.85 41.95 -17.05 Q41.95 -17.2 42.05 -17.35 42.15 -17.45 42.45 -17.6 M29.35 -22.55 Q29.4 -22.15 29.45 -22.05 29.4 -21.95 29.25 -21.9 L28.65 -22.9 Q28.25 -23.55 27.5 -23.85 27.5 -24.0 27.65 -24.05 28.9 -23.85 29.2 -23.15 29.3 -22.9 29.35 -22.55 M55.75 -48.95 Q55.85 -48.75 55.85 -48.45 L55.8 -48.0 Q55.75 -47.9 55.65 -47.85 55.6 -47.9 55.4 -48.4 55.2 -48.8 54.95 -48.95 L54.25 -49.05 Q54.0 -49.1 53.95 -49.15 54.15 -49.35 54.3 -49.4 L55.25 -49.45 Q55.6 -49.25 55.75 -48.95 M46.7 -30.5 L46.7 -30.55 Q47.3 -30.85 48.0 -30.35 48.6 -29.9 48.7 -29.45 L48.7 -28.95 48.45 -28.8 Q48.4 -29.0 48.25 -29.25 L47.95 -29.75 Q47.9 -29.85 47.4 -30.15 46.9 -30.4 46.7 -30.5 M66.1 -26.2 L66.1 -26.1 Q66.05 -26.05 65.85 -26.05 65.7 -26.05 64.95 -26.5 64.2 -26.95 63.55 -26.85 L63.25 -26.85 63.05 -27.15 Q63.1 -27.3 63.2 -27.4 64.35 -27.6 65.25 -27.0 65.7 -26.75 66.1 -26.2 M65.55 -25.2 L65.6 -25.25 Q66.0 -25.15 66.15 -24.85 66.25 -24.7 66.25 -24.35 L66.15 -24.2 Q66.1 -24.25 65.9 -24.65 65.7 -24.95 65.5 -25.1 65.5 -25.15 65.55 -25.2 M60.7 -26.05 L60.7 -25.75 60.75 -25.75 Q60.75 -25.7 60.55 -25.7 60.4 -25.7 60.35 -25.75 L60.2 -25.9 Q59.95 -26.1 58.85 -26.05 L58.9 -26.15 Q60.3 -26.45 60.7 -26.05 M58.5 -16.75 L58.7 -16.25 58.65 -16.05 58.55 -15.95 Q58.5 -16.0 58.25 -16.45 58.0 -16.85 57.4 -17.05 L57.25 -17.15 Q57.15 -17.25 57.15 -17.35 57.25 -17.35 57.6 -17.35 L58.25 -17.25 Q58.4 -17.05 58.5 -16.75 M48.1 -27.5 Q48.8 -27.45 49.05 -27.15 49.3 -26.95 49.3 -26.55 49.3 -26.15 49.05 -25.75 48.8 -25.2 48.15 -24.9 L47.75 -24.9 47.75 -25.1 48.0 -25.4 Q48.25 -25.65 48.25 -25.75 48.25 -25.8 48.5 -26.1 L48.7 -26.3 48.7 -26.45 48.45 -26.85 Q48.1 -27.3 48.1 -27.5 M48.65 -15.4 Q48.75 -15.2 48.9 -14.85 49.0 -14.55 49.1 -14.45 49.05 -14.15 48.85 -14.15 L48.05 -15.0 Q47.45 -15.6 46.75 -15.6 L46.55 -15.6 46.45 -15.7 Q46.45 -15.85 46.5 -15.95 46.55 -16.05 46.65 -16.05 48.15 -16.05 48.65 -15.4 M56.05 -17.7 Q56.1 -17.7 56.3 -17.6 56.5 -17.5 56.5 -17.45 L56.4 -17.4 56.15 -17.35 55.6 -17.45 55.0 -17.5 55.25 -17.85 Q55.4 -17.95 55.65 -17.75 L56.05 -17.7 M56.9 -6.7 Q56.9 -6.8 57.05 -6.95 L57.6 -7.05 58.35 -7.1 58.5 -6.95 Q58.55 -6.85 58.55 -6.7 L58.55 -6.35 58.4 -6.3 58.1 -6.25 Q57.95 -6.25 57.95 -6.35 L57.95 -6.5 57.25 -6.6 Q56.95 -6.65 56.9 -6.7 M44.25 5.05 Q44.2 5.1 44.2 4.9 L44.2 4.7 44.25 4.7 Q44.55 4.7 44.75 4.85 44.95 5.0 44.95 5.3 L44.85 5.35 44.7 5.15 44.25 5.05 M39.35 2.35 L39.35 2.5 39.15 2.55 Q39.0 2.55 38.9 2.45 L38.75 2.2 Q38.5 1.85 37.75 1.75 L37.15 1.6 35.55 1.25 35.6 1.15 Q37.6 0.95 38.35 1.3 38.65 1.45 38.9 1.75 L39.35 2.35" fill="#d4fcff" fill-opacity="0.7019608" fill-rule="evenodd" stroke="none"/>
    </g>
  </defs>
</svg>
