<?xml version="1.0" encoding="UTF-8" standalone="no"?>
<svg xmlns:ffdec="https://www.free-decompiler.com/flash" xmlns:xlink="http://www.w3.org/1999/xlink" ffdec:objectType="frame" height="249.9px" width="184.1px" xmlns="http://www.w3.org/2000/svg">
  <g transform="matrix(1.0, 0.0, 0.0, 1.0, 92.05, 124.95)">
    <use ffdec:characterId="123" height="35.7" transform="matrix(7.0, 0.0, 0.0, 7.0, -92.05, -124.95)" width="26.3" xlink:href="#shape0"/>
  </g>
  <defs>
    <g id="shape0" transform="matrix(1.0, 0.0, 0.0, 1.0, 13.15, 17.85)">
      <path d="M10.5 -6.65 Q11.35 -6.15 12.0 -4.35 12.6 -2.55 12.7 0.05 12.75 2.7 12.4 -0.35 L11.3 -3.4 Q11.5 -3.0 11.7 -2.7 L11.75 -2.8 Q11.8 -2.75 11.8 -2.95 11.8 -3.35 11.45 -4.25 11.1 -5.25 10.85 -5.15 L10.85 -5.05 10.8 -4.85 10.8 -4.8 10.65 -5.25 Q11.3 -2.95 11.25 -1.05 L11.2 0.8 10.7 -1.45 10.75 -1.45 10.8 -1.55 10.8 -1.7 Q10.8 -1.95 10.6 -2.85 L10.4 -3.65 10.15 -4.5 10.0 -5.0 9.95 -5.1 10.0 -5.15 9.95 -5.2 10.0 -5.2 9.8 -5.7 9.8 -5.75 9.7 -6.05 10.75 -3.95 10.05 -6.55 10.1 -6.55 Q10.35 -6.4 11.55 -4.7 L10.5 -6.65 M9.25 -4.25 L9.35 -3.7 Q9.55 -2.75 9.55 -2.15 L9.5 -2.0 9.45 -1.9 Q9.3 -2.0 9.2 -2.4 9.15 -2.7 9.15 -2.85 L9.0 -3.35 8.9 -3.8 Q8.85 -3.8 7.4 -7.1 L7.4 -7.2 Q7.85 -7.25 8.25 -6.7 8.45 -6.4 8.6 -6.1 L8.65 -5.95 Q8.45 -6.3 8.25 -6.25 L8.25 -6.15 Q8.25 -6.0 8.6 -5.35 L8.95 -4.7 Q8.95 -4.35 9.05 -4.1 9.2 -4.15 9.2 -4.2 L9.25 -4.25 M9.75 -4.4 Q9.85 -4.0 9.85 -3.6 L9.8 -2.85 Q9.05 -6.2 8.35 -6.8 7.7 -7.4 7.8 -7.4 L7.85 -7.35 Q8.4 -7.35 9.1 -6.05 9.4 -5.5 9.55 -5.05 L9.55 -5.0 9.6 -4.65 Q9.6 -4.5 9.75 -4.4 M4.9 -7.15 L4.85 -7.35 6.2 -5.3 Q6.7 -6.0 6.65 -6.3 L7.1 -5.05 Q6.95 -5.2 6.75 -5.25 6.9 -4.65 7.35 -3.9 L7.4 -4.0 7.45 -4.05 8.1 -2.0 Q8.4 -1.05 8.45 0.55 8.5 2.15 8.2 -0.05 7.95 0.05 7.45 -1.1 L7.35 -1.9 7.35 -2.0 7.3 -2.15 Q7.25 -2.45 7.25 -2.55 7.25 -3.1 7.0 -3.25 6.85 -3.85 6.65 -3.95 L6.65 -3.7 6.75 -3.4 6.75 -3.25 6.8 -3.0 6.9 -2.8 6.9 -2.6 6.95 -2.6 6.95 -2.55 7.0 -2.2 7.0 -2.1 Q7.1 -1.65 7.1 -1.2 L7.1 -0.75 7.15 -0.4 7.05 1.8 Q7.0 2.65 7.05 1.3 7.15 0.0 6.2 -2.75 L5.75 -4.0 5.85 -4.05 5.5 -5.3 Q5.2 -6.2 5.2 -6.35 5.2 -6.6 4.9 -7.15 M12.7 -4.4 L12.8 -3.95 12.95 -2.8 12.95 -2.75 Q12.7 -3.25 12.45 -4.05 12.3 -4.75 12.3 -4.9 12.3 -5.05 12.35 -5.05 L12.4 -5.05 Q12.6 -4.8 12.7 -4.5 L12.65 -4.55 12.45 -4.65 12.4 -4.55 12.45 -4.35 Q12.55 -4.2 12.6 -4.2 L12.7 -4.25 12.7 -4.4 M5.7 5.25 L5.65 7.95 Q5.5 10.85 5.1 12.35 L4.7 14.4 4.1 16.7 3.4 16.7 3.45 16.55 Q3.75 14.35 4.2 11.8 L4.95 7.9 Q5.65 4.1 5.45 1.45 5.6 2.8 5.7 5.25 M-9.7 -14.5 Q-9.7 -13.65 -9.8 -12.1 -9.9 -10.8 -9.85 -9.45 -10.0 -9.65 -10.1 -10.7 -10.15 -11.65 -10.15 -12.2 L-10.05 -13.8 Q-9.95 -15.15 -9.9 -15.55 L-9.85 -15.55 -9.75 -14.95 -9.7 -14.5 M-11.95 -16.05 L-12.05 -15.15 Q-12.15 -14.5 -12.2 -14.4 L-12.2 -14.35 -12.35 -14.4 Q-12.4 -14.4 -12.4 -14.55 -12.4 -14.85 -12.25 -15.45 -12.1 -16.2 -12.1 -16.4 L-12.0 -16.4 -12.0 -16.25 -11.95 -16.05 M-11.85 -15.3 Q-11.75 -16.9 -11.05 -17.85 -11.25 -16.0 -11.45 -12.25 -11.7 -7.8 -11.8 -6.65 L-12.35 -9.4 -13.15 -4.6 -13.15 -8.9 -12.75 -14.45 -12.35 -13.75 Q-12.05 -13.95 -11.95 -14.35 -11.9 -14.6 -11.85 -15.3 M-4.45 -5.5 L-4.3 -4.5 -4.35 -1.4 Q-4.4 -1.4 -4.55 0.05 L-4.6 -2.65 -4.55 -4.3 -4.45 -5.5 M-4.25 -5.7 L-4.1 -6.55 -4.1 -6.6 -3.85 -7.8 -3.75 -8.15 Q-3.6 -7.95 -3.5 -7.95 L-3.2 -7.95 Q-2.95 -7.85 -2.85 -7.55 L-2.85 -4.05 -3.05 4.1 Q-3.1 4.1 -3.15 3.9 L-3.35 2.5 -3.4 2.1 -3.45 4.2 -3.5 4.1 -3.55 4.1 Q-3.55 4.4 -3.6 4.95 L-3.5 6.3 -3.5 6.25 -3.45 6.75 -3.4 6.85 -3.4 7.3 -3.25 8.25 -3.25 8.3 -3.2 8.65 -3.2 8.8 -3.3 8.8 Q-3.3 8.75 -3.4 8.5 -3.5 8.25 -3.5 8.15 L-3.6 7.4 -3.65 7.4 Q-3.8 6.8 -3.8 6.55 L-3.9 4.75 -3.95 4.0 -4.0 3.15 -4.0 1.6 -3.95 1.3 -3.95 0.8 Q-4.0 -0.35 -4.0 -1.45 L-4.05 -0.7 -3.95 -6.75 -4.25 -5.7 M-4.95 0.25 L-5.1 2.25 Q-5.3 5.35 -5.3 7.25 -5.3 10.5 -5.0 13.6 L-4.55 17.7 -5.35 17.85 -5.4 17.7 -5.4 17.55 -5.85 7.3 -5.85 6.8 -5.8 6.5 -5.8 5.05 -5.75 4.7 -5.75 4.55 -5.1 -7.3 Q-5.0 -8.0 -4.9 -8.25 L-4.8 -8.0 -4.8 -7.95 Q-4.85 -7.45 -4.85 -6.3 -4.9 -5.65 -4.95 -4.45 L-5.0 -3.2 -4.95 -2.85 -5.0 -0.55 -4.95 0.25 M-6.0 -1.05 L-6.1 0.35 -6.25 2.25 -6.3 2.6 -6.4 3.1 -6.4 3.25 Q-6.4 3.4 -6.45 3.8 L-6.45 3.95 -6.5 5.1 Q-6.5 5.25 -6.55 5.4 L-6.65 5.4 -6.7 4.85 -6.7 4.65 -6.75 4.65 Q-6.7 4.4 -6.75 4.0 L-6.75 3.4 -6.8 3.05 Q-6.85 2.35 -6.85 1.45 L-6.85 0.45 Q-6.85 -0.65 -6.65 -2.35 -6.5 -3.85 -6.3 -4.3 -6.2 -4.55 -6.1 -4.6 -6.0 -4.5 -5.95 -4.25 -5.9 -4.15 -5.85 -4.05 -5.85 -3.95 -5.8 -3.8 -5.8 -3.5 -5.95 -2.2 L-6.0 -1.25 -6.0 -1.05 M-6.5 -13.6 L-6.4 -12.05 -6.25 -10.2 -6.3 -10.0 -6.3 -9.8 Q-6.25 -9.75 -6.35 -9.7 -6.45 -9.95 -6.55 -10.95 L-6.6 -12.15 Q-6.55 -13.15 -6.55 -13.6 L-6.5 -13.6 M-6.95 -11.65 Q-6.9 -11.05 -6.9 -10.6 -6.9 -9.7 -7.05 -8.55 -7.2 -7.55 -7.45 -6.65 L-7.5 -6.65 -7.5 -7.05 Q-7.4 -7.85 -7.3 -9.3 -7.2 -10.95 -7.1 -11.65 L-6.95 -11.65 M-8.0 -13.35 L-8.1 -10.3 Q-8.1 -10.15 -8.75 -9.85 L-8.85 -10.4 -8.9 -10.85 Q-8.9 -11.55 -8.65 -12.2 -8.45 -12.75 -8.0 -13.35 M-11.05 -11.15 L-10.4 -12.3 -10.05 -7.95 Q-10.15 -8.5 -10.5 -7.75 L-10.55 -5.45 -10.55 -3.75 -10.65 -3.95 -10.7 -3.2 -10.8 -4.45 -10.85 -4.95 -10.85 -6.8 -11.05 -11.15 M-3.95 -1.65 L-3.95 -1.7 -4.0 -1.55 -3.95 -1.65 M-7.0 3.25 Q-6.7 6.85 -6.7 7.2 -6.7 7.4 -6.8 8.65 L-6.85 8.95 -6.9 8.95 Q-6.9 8.35 -7.1 6.0 -7.25 3.85 -7.25 2.9 -7.25 2.15 -7.15 1.85 -7.1 2.15 -7.05 2.65 L-7.0 3.25 M-3.65 9.2 Q-3.45 9.85 -3.3 10.75 -3.05 12.0 -3.05 12.5 -3.05 12.6 -3.1 12.7 L-3.15 12.75 Q-3.3 12.65 -3.4 12.0 -3.55 11.45 -3.55 11.35 L-3.7 9.2 -3.65 9.2 M-3.8 11.05 L-3.65 12.2 Q-3.45 13.5 -3.45 13.85 -3.45 14.3 -3.55 15.1 -3.65 16.1 -3.75 17.85 L-4.0 16.6 -4.2 14.9 Q-4.35 14.0 -4.35 13.55 -4.35 11.75 -4.25 8.1 L-3.85 10.85 -3.8 11.05" fill="#8ed3df" fill-rule="evenodd" stroke="none"/>
      <path d="M10.7 -1.45 L10.6 -1.45 10.6 -1.7 Q10.6 -2.15 10.2 -3.7 L9.75 -5.3 9.75 -5.35 8.05 -7.75 Q8.6 -8.15 9.25 -7.9 L9.95 -7.85 9.5 -7.65 Q10.2 -6.85 10.4 -6.8 L10.5 -6.65 11.55 -4.7 Q10.35 -6.4 10.1 -6.55 L10.05 -6.6 8.7 -7.9 9.7 -6.05 9.8 -5.75 9.9 -5.25 10.0 -5.0 10.15 -4.5 10.4 -3.65 10.6 -2.85 Q10.8 -1.95 10.8 -1.7 L10.8 -1.55 10.75 -1.45 10.7 -1.45 M5.75 -4.0 L5.7 -4.0 Q5.45 -4.4 5.45 -4.55 L4.8 -6.0 Q4.8 -6.15 4.45 -6.95 L4.0 -7.8 Q4.5 -7.9 4.9 -7.15 5.2 -6.6 5.2 -6.35 5.2 -6.2 5.5 -5.3 L5.85 -4.05 5.75 -4.0 M7.45 -1.1 L7.5 -0.9 7.4 0.1 7.4 0.25 7.35 0.3 Q7.2 0.0 7.15 -0.4 L7.1 -0.75 7.1 -1.2 7.15 -1.65 7.05 -2.1 7.0 -2.1 7.0 -2.2 7.0 -2.4 6.95 -2.55 6.95 -2.6 6.9 -2.6 6.9 -2.8 6.8 -3.0 6.75 -3.25 6.75 -3.4 6.65 -3.7 6.65 -3.95 Q6.85 -3.85 7.0 -3.25 7.25 -3.1 7.25 -2.55 7.25 -2.45 7.3 -2.15 L7.35 -2.0 7.35 -1.9 7.45 -1.1 M0.5 -7.4 L-1.9 -7.5 -2.25 -7.4 -2.3 -7.35 -2.4 -4.85 Q-2.35 -0.15 -1.65 6.9 -1.05 12.55 -0.5 15.25 L-0.6 15.3 -0.85 15.55 -1.0 15.55 Q-1.55 11.2 -2.15 4.45 -2.65 -1.3 -2.8 -4.05 -2.8 -5.3 -2.45 -7.85 -2.4 -8.1 -2.3 -8.15 L-2.1 -8.25 -2.05 -8.3 -2.1 -8.3 -2.0 -8.35 Q-1.8 -8.4 -1.5 -8.35 L-0.85 -8.25 -0.5 -8.25 -0.9 -8.1 3.1 -7.35 3.2 -7.3 3.7 -6.15 4.25 -4.75 2.45 -7.25 1.7 -7.25 0.5 -7.4 M12.65 -2.2 L12.7 -2.3 Q13.0 -1.95 13.1 -0.6 13.15 0.1 13.15 0.85 L13.1 1.25 13.1 1.8 13.0 1.85 Q12.9 1.4 12.9 1.3 L12.95 0.85 12.8 -0.8 12.65 -2.2 M-4.8 -8.0 L-4.7 -8.45 -4.8 -8.75 -4.95 -9.0 -5.55 -9.5 -5.45 -9.45 -5.2 -9.4 -4.95 -9.3 Q-4.65 -9.2 -4.4 -9.15 L-4.25 -9.3 -4.2 -9.0 Q-4.15 -8.75 -4.15 -8.7 -4.15 -8.3 -4.4 -5.9 L-4.45 -5.5 -4.55 -4.3 -4.6 -2.65 -4.55 0.05 -4.5 2.55 Q-4.5 2.65 -4.55 2.85 L-4.6 3.2 -4.65 3.2 Q-4.85 1.65 -4.85 1.25 L-4.85 0.9 -4.95 0.25 -5.0 -0.55 -4.95 -2.85 -5.0 -3.2 -4.95 -4.45 Q-4.9 -5.65 -4.85 -6.3 -4.85 -7.45 -4.8 -7.95 L-4.8 -8.0 M-4.3 -4.5 L-4.25 -5.7 -3.95 -6.75 -4.05 -0.7 -4.05 0.25 -4.35 -0.6 -4.35 -1.4 -4.3 -4.5 M-3.45 4.2 Q-3.35 4.45 -3.35 4.95 L-3.3 5.9 -3.2 7.3 -3.2 8.35 -3.25 8.4 -3.25 8.3 -3.25 8.25 -3.4 7.3 -3.4 6.85 -3.45 6.75 -3.45 6.65 -3.5 6.3 -3.6 4.95 Q-3.55 4.4 -3.55 4.1 L-3.5 4.1 -3.45 4.2 M-5.4 17.55 L-5.45 17.6 -5.55 17.15 Q-5.75 15.55 -6.0 12.0 -6.3 8.0 -6.3 5.2 L-6.25 4.95 -6.25 4.85 -6.0 -1.05 -6.0 -1.25 -5.95 -2.2 Q-5.8 -3.5 -5.8 -3.8 -5.85 -3.95 -5.85 -4.05 L-5.8 -4.95 -5.8 -5.05 Q-5.6 -6.35 -5.1 -7.45 L-5.1 -7.3 -5.75 4.55 -5.75 4.7 -5.8 5.05 -5.8 6.5 -5.85 6.8 -5.85 7.3 -5.4 17.55 M-7.55 -12.6 Q-7.5 -12.15 -7.5 -11.6 L-7.65 -9.6 Q-7.65 -9.4 -7.85 -8.0 -8.1 -6.55 -8.2 -6.15 -8.35 -6.45 -8.35 -6.8 -8.35 -7.8 -8.05 -10.25 -7.8 -12.5 -7.65 -13.0 L-7.6 -13.0 -7.55 -12.7 -7.55 -12.6 M-11.25 -11.05 L-11.15 -10.2 Q-11.05 -9.55 -11.05 -9.3 -11.05 -8.9 -11.3 -6.0 L-11.3 -5.9 -11.4 -6.65 -11.45 -7.5 Q-11.4 -9.85 -11.4 -11.05 L-11.25 -11.05 M-3.85 10.85 Q-3.7 11.0 -3.6 11.25 -3.5 11.55 -3.5 11.65 L-3.35 12.85 Q-3.15 14.05 -3.15 14.35 -3.15 14.45 -3.2 14.5 L-3.2 14.6 -3.25 14.6 -3.25 14.45 Q-3.25 14.35 -3.5 12.95 L-3.8 11.05 -3.85 10.85" fill="#5986bd" fill-rule="evenodd" stroke="none"/>
      <path d="M11.3 -3.4 L11.1 -3.9 Q10.85 -4.55 10.8 -4.8 L10.8 -4.85 10.85 -5.05 10.85 -5.15 Q11.1 -5.25 11.45 -4.25 11.8 -3.35 11.8 -2.95 11.8 -2.75 11.75 -2.8 L11.7 -2.7 Q11.5 -3.0 11.3 -3.4 M9.25 -4.25 L9.2 -4.2 Q9.2 -4.15 9.05 -4.1 8.95 -4.35 8.95 -4.7 L8.6 -5.35 Q8.25 -6.0 8.25 -6.15 L8.25 -6.25 Q8.45 -6.3 8.65 -5.95 L8.9 -5.5 Q9.25 -4.75 9.25 -4.4 L9.25 -4.25 M9.75 -4.4 Q9.6 -4.5 9.6 -4.65 L9.55 -5.0 9.55 -5.05 9.6 -5.2 Q9.75 -5.15 9.8 -4.9 9.9 -4.55 9.95 -4.5 L9.85 -4.4 9.75 -4.4 M7.1 -5.05 L7.25 -4.8 Q7.45 -4.45 7.45 -4.2 L7.45 -4.05 7.4 -4.0 7.35 -3.9 Q6.9 -4.65 6.75 -5.25 6.95 -5.2 7.1 -5.05 M12.7 -4.4 L12.7 -4.25 12.6 -4.2 Q12.55 -4.2 12.45 -4.35 L12.4 -4.55 12.45 -4.65 12.65 -4.55 12.7 -4.5 12.7 -4.4" fill="#d2e4ee" fill-rule="evenodd" stroke="none"/>
    </g>
  </defs>
</svg>
