<?xml version="1.0" encoding="UTF-8" standalone="no"?>
<svg xmlns:ffdec="https://www.free-decompiler.com/flash" xmlns:xlink="http://www.w3.org/1999/xlink" ffdec:objectType="frame" height="246.1px" width="940.5px" xmlns="http://www.w3.org/2000/svg">
  <g transform="matrix(1.0, 0.0, 0.0, 1.0, 303.45, -189.35)">
    <use ffdec:characterId="544" height="130.4" transform="matrix(1.0, 0.0, 0.0, 1.0, -303.45, 305.05)" width="940.5" xlink:href="#shape0"/>
    <use ffdec:characterId="148" height="361.1" transform="matrix(0.3541, 0.0, 0.0, 0.3541, 76.9, 190.6)" width="93.65" xlink:href="#sprite0"/>
    <use ffdec:characterId="148" height="361.1" transform="matrix(0.3524, -0.0342, 0.0342, 0.3524, 225.7, 192.55)" width="93.65" xlink:href="#sprite0"/>
    <use ffdec:characterId="150" height="41.2" transform="matrix(0.3541, 0.0, 0.0, 0.2871, 114.35, 313.15)" width="327.85" xlink:href="#sprite1"/>
  </g>
  <defs>
    <g id="shape0" transform="matrix(1.0, 0.0, 0.0, 1.0, 303.45, -305.05)">
      <path d="M345.6 309.6 L345.95 309.6 Q359.25 309.6 397.2 316.9 L442.95 325.35 Q459.7 327.0 480.45 331.5 L491.7 334.15 Q499.65 333.7 515.55 338.6 525.4 341.65 543.3 348.4 L568.15 357.5 Q583.65 361.55 608.15 374.5 L625.15 383.75 Q633.55 388.35 636.55 389.55 L637.05 391.1 Q622.65 397.3 599.7 402.3 590.05 411.55 506.35 422.65 L440.4 430.3 408.45 433.35 306.95 433.65 300.0 434.4 263.9 434.7 257.75 435.45 226.9 435.45 221.4 434.7 176.4 434.4 Q98.6 430.3 10.4 422.75 L-131.6 410.9 -204.4 405.95 Q-232.35 403.25 -253.15 395.95 -262.25 392.8 -280.4 383.9 -303.45 372.65 -303.45 368.55 -303.45 364.2 -254.1 351.4 -209.15 339.7 -189.0 336.75 L-114.6 324.85 -23.6 310.65 4.55 310.4 Q19.7 308.55 34.5 308.5 L52.95 309.6 57.3 309.05 57.3 308.9 66.05 308.9 68.0 309.05 69.35 309.05 70.8 309.3 Q73.5 309.1 82.65 310.5 L93.3 312.2 101.8 313.4 124.85 315.3 149.4 317.1 192.1 317.0 Q193.3 315.6 200.0 315.5 L205.15 315.5 208.95 315.3 217.75 315.25 229.75 314.0 241.2 312.9 249.75 311.5 Q251.6 310.7 255.45 309.9 263.45 308.1 271.75 307.7 L279.15 307.55 287.9 306.85 293.5 306.4 302.45 306.45 340.5 309.05 345.6 309.6" fill="#fafeab" fill-opacity="0.99215686" fill-rule="evenodd" stroke="none"/>
      <path d="M331.6 305.05 L331.75 305.15 331.85 305.35 331.05 305.25 Q331.35 305.0 331.6 305.05 M154.45 321.45 L154.6 321.8 154.3 322.1 153.7 322.25 153.05 322.1 152.25 321.8 153.25 321.4 154.45 321.45 M150.65 321.4 L153.55 322.35 155.7 323.0 154.95 322.65 156.85 322.25 156.95 322.2 157.0 322.65 157.0 322.8 158.05 322.7 158.05 322.65 158.05 322.25 159.65 322.25 159.65 322.4 159.75 322.65 159.7 322.85 161.25 323.25 161.8 323.25 161.95 323.45 162.2 323.2 163.15 323.25 163.5 322.9 164.1 322.8 164.15 322.9 164.2 323.1 164.2 323.3 164.75 323.45 164.8 323.45 164.9 323.8 164.4 324.3 163.55 324.35 162.3 324.1 162.15 323.9 161.8 323.85 161.3 324.05 160.95 323.85 160.65 323.9 160.6 324.35 159.9 324.45 159.15 324.35 157.1 324.45 156.3 324.3 155.9 324.45 156.1 324.9 156.0 325.4 Q155.95 325.4 155.85 325.5 L155.95 325.6 155.55 325.65 Q154.95 325.65 153.95 324.45 L153.6 324.45 Q153.0 324.45 152.45 324.0 151.9 323.55 151.1 323.55 150.95 323.55 150.1 324.1 L150.05 324.15 150.3 324.15 150.5 324.7 150.3 325.15 149.95 325.15 149.4 324.85 149.15 324.55 148.25 324.7 Q146.3 324.7 145.7 323.95 145.4 323.65 145.35 322.85 L144.2 322.65 143.7 322.9 143.65 322.9 Q143.4 323.0 143.15 323.25 142.55 323.75 141.2 323.75 L140.1 323.25 140.05 323.25 139.15 323.45 Q138.05 323.45 137.65 322.65 L137.6 322.5 135.65 322.45 132.85 322.3 132.75 321.8 133.0 321.2 132.3 321.0 131.7 320.9 131.65 320.9 130.85 321.3 129.85 321.7 126.95 321.35 125.25 320.95 123.95 320.4 123.3 320.95 122.65 321.2 119.9 321.2 Q113.8 321.2 112.55 320.4 112.15 319.95 111.85 319.85 L110.25 319.6 Q109.6 319.6 109.3 319.95 109.0 320.25 108.55 320.25 L107.7 320.05 106.9 319.85 101.1 319.5 97.85 319.35 Q93.45 319.35 88.65 318.1 83.8 316.85 83.8 315.6 83.8 315.1 84.15 314.7 84.5 314.35 85.15 314.35 86.65 314.35 90.4 315.4 L95.9 316.45 Q97.4 316.45 98.0 315.75 L98.8 314.6 Q100.1 313.35 106.95 315.5 112.3 316.15 113.9 316.85 L120.3 317.2 Q121.6 317.2 122.9 318.1 L123.3 318.4 124.85 318.15 125.6 318.35 125.95 318.5 126.5 318.35 Q128.4 318.35 129.75 318.95 L130.3 318.95 131.75 319.1 133.2 319.25 Q133.75 319.25 134.15 319.55 L134.65 319.35 Q135.6 319.35 136.6 320.4 137.4 321.3 137.4 321.55 L137.45 321.55 Q137.5 320.5 138.5 320.15 139.75 319.7 141.1 321.35 L142.35 321.05 146.65 321.2 150.65 321.4 M124.1 319.5 L124.4 319.35 124.05 319.35 124.1 319.5 M125.35 321.45 L125.4 321.8 125.2 322.2 124.6 322.3 124.15 322.2 124.0 322.05 123.95 321.7 124.25 321.2 Q124.55 321.05 125.35 321.45 M129.9 322.8 L129.45 322.5 Q129.95 322.15 130.2 322.1 130.55 321.95 130.95 322.1 L131.15 322.45 130.95 322.75 130.45 322.9 129.9 322.8 M161.9 324.35 Q162.25 324.15 163.05 324.35 L163.1 324.35 163.15 324.75 163.05 325.15 162.45 325.25 161.8 325.05 161.4 324.8 Q161.55 324.4 161.9 324.35 M120.25 322.25 L120.05 321.75 120.35 321.75 120.75 322.05 120.25 322.25 M242.95 316.0 Q243.2 315.55 243.8 315.4 245.15 315.05 248.8 315.4 L254.15 315.25 Q255.45 315.0 255.9 314.25 L256.4 312.9 Q257.3 311.4 264.05 312.1 269.1 311.7 270.7 312.1 271.4 312.3 276.65 311.1 277.9 310.8 279.3 311.45 L279.7 311.7 281.1 311.1 281.8 311.15 282.15 311.25 282.55 310.95 Q284.35 310.6 285.75 310.9 L286.3 310.8 287.6 310.65 288.95 310.5 289.85 310.6 290.3 310.3 Q291.2 310.15 292.35 310.95 L293.35 311.85 Q293.2 310.85 294.05 310.25 295.1 309.6 296.7 310.95 297.15 310.5 297.75 310.4 L301.75 309.7 305.45 309.05 308.3 309.4 310.45 309.6 309.75 309.45 Q310.7 308.75 311.35 308.65 L311.4 308.6 311.55 308.95 311.6 309.1 312.5 308.85 312.5 308.75 312.45 308.4 312.45 308.45 313.85 308.1 313.9 308.2 314.1 308.4 314.05 308.65 315.55 308.65 316.05 308.55 316.3 308.8 Q316.55 308.55 316.4 308.45 L317.35 308.3 317.55 307.95 318.05 307.7 318.2 307.75 318.3 308.0 318.3 308.15 318.85 308.2 318.9 308.15 319.1 308.55 Q319.1 308.9 318.7 309.05 L317.95 309.3 316.7 309.35 316.6 309.15 316.2 309.2 315.8 309.45 315.45 309.35 315.25 309.45 315.25 309.9 Q314.95 309.95 314.6 310.15 L313.85 310.2 312.05 310.7 311.25 310.7 310.9 310.95 311.2 311.35 311.2 311.85 311.1 312.0 311.2 312.1 310.9 312.2 Q310.35 312.3 309.15 311.35 L308.8 311.4 307.65 311.25 306.35 311.05 305.55 311.75 305.5 311.85 305.7 311.75 306.05 312.3 305.95 312.75 305.65 312.9 305.05 312.65 304.75 312.45 303.95 312.75 301.45 312.55 Q301.1 312.3 300.9 311.5 L299.85 311.65 299.4 311.9 299.35 311.9 298.95 312.3 Q298.55 313.0 297.25 313.25 L296.2 313.0 296.1 313.0 295.3 313.4 Q294.35 313.6 293.8 312.9 L293.7 312.75 291.9 313.1 289.25 313.55 289.1 313.1 289.15 312.4 288.55 312.35 287.95 312.4 287.85 312.4 287.2 313.0 286.45 313.55 283.65 313.8 282.0 313.8 280.7 313.45 280.3 314.15 279.75 314.5 277.2 315.05 Q271.6 316.3 270.25 315.75 L269.5 315.4 267.95 315.5 Q267.4 315.6 267.2 315.95 L266.55 316.4 265.7 316.4 264.9 316.4 259.6 317.2 256.5 317.75 247.8 318.35 Q243.1 318.15 242.85 316.95 242.7 316.45 242.95 316.0 M177.85 323.3 L178.75 323.1 178.85 323.25 178.9 323.45 178.85 323.6 178.4 323.65 177.95 323.55 177.95 323.45 177.85 323.3 M172.85 323.65 L173.4 323.85 173.45 324.05 173.15 324.35 172.7 324.5 172.25 324.2 172.25 323.7 172.85 323.65 M168.45 322.85 L168.4 323.3 167.55 323.45 167.35 323.45 167.4 323.65 166.75 324.05 165.95 323.55 Q166.25 323.25 166.7 323.25 L166.65 322.85 Q166.65 322.55 167.05 322.4 L168.35 322.45 168.4 322.5 168.45 322.85 M169.05 324.7 L168.35 324.35 168.2 324.2 Q168.95 323.9 169.3 323.95 L169.4 324.35 169.05 324.7 M166.7 323.25 L166.75 323.25 166.7 323.2 166.7 323.25 M165.6 324.35 L165.65 324.4 165.9 324.7 165.55 325.05 Q165.4 325.25 165.05 325.25 L164.6 325.15 164.35 324.8 164.75 324.35 Q165.1 324.2 165.6 324.35 M319.95 308.05 L320.35 307.7 321.25 307.75 321.3 307.85 320.8 308.4 Q320.35 308.4 319.95 308.05 M320.15 309.15 L319.9 309.6 319.5 309.9 319.1 309.9 319.1 309.85 318.75 309.6 Q318.95 309.15 319.1 309.05 L319.8 308.9 319.9 309.0 320.15 309.15 M322.35 308.4 L322.2 308.25 Q322.55 307.95 322.85 307.85 L323.2 307.9 323.3 308.1 323.05 308.5 322.35 308.4 M307.05 309.1 L307.9 308.5 Q308.55 308.1 308.95 308.35 L309.2 308.65 308.95 309.0 308.45 309.3 307.75 309.25 307.05 309.1 M317.65 309.8 Q317.8 310.35 317.6 310.15 L317.1 310.4 316.45 310.4 316.0 310.15 Q316.15 309.8 316.4 309.6 L317.5 309.4 317.5 309.45 317.65 309.8 M287.7 314.35 L287.25 314.65 286.7 314.6 286.25 314.45 286.85 313.85 287.55 313.75 287.75 314.0 287.7 314.35 M280.6 312.4 L280.65 312.55 280.95 312.35 280.6 312.4 M281.75 315.25 L281.3 315.25 281.1 315.05 280.95 314.7 281.2 314.2 282.2 314.25 282.35 314.55 282.25 315.05 281.75 315.25 M277.45 315.6 L277.7 315.55 278.15 315.7 277.7 316.05 277.45 315.6" fill="#ffe375" fill-rule="evenodd" stroke="none"/>
      <path d="M116.85 311.95 L116.5 312.0 Q116.1 312.0 115.75 311.6 L116.85 311.95" fill="#afbd93" fill-rule="evenodd" stroke="none"/>
    </g>
    <g id="sprite0" transform="matrix(1.0, 0.0, 0.0, 1.0, 0.0, 0.0)">
      <use ffdec:characterId="147" height="361.1" transform="matrix(1.0, 0.0, 0.0, 1.0, 0.0, 0.0)" width="93.65" xlink:href="#shape1"/>
    </g>
    <g id="shape1" transform="matrix(1.0, 0.0, 0.0, 1.0, 0.0, 0.0)">
      <path d="M65.75 23.5 L67.7 23.8 68.2 23.85 Q71.8 24.45 78.35 26.3 L77.85 26.55 Q81.35 27.45 83.55 28.55 L84.8 29.2 73.65 18.3 72.0 16.75 69.55 14.4 68.55 13.45 58.65 4.05 58.6 4.0 54.55 7.05 46.45 13.2 38.45 19.4 29.8 26.3 31.05 25.75 31.2 25.7 31.3 25.65 31.45 25.6 31.55 25.6 31.65 25.55 31.75 25.5 35.3 24.65 35.6 24.6 36.95 24.4 36.6 24.25 36.45 24.1 44.85 22.9 46.8 22.7 47.15 22.7 47.35 22.7 50.25 22.65 50.7 22.65 56.55 22.85 56.85 22.85 58.35 22.95 58.6 22.95 65.75 23.5 M90.95 36.35 L90.45 35.55 90.9 36.4 90.95 36.35 M87.0 32.8 Q85.2 31.35 82.8 30.05 79.2 28.1 74.8 26.7 L74.15 26.7 68.4 25.55 66.6 25.25 60.3 24.4 58.05 24.15 57.45 24.15 54.45 24.1 48.35 24.3 46.5 24.4 40.65 24.9 40.0 24.85 Q35.4 25.8 31.7 27.35 26.0 29.7 23.05 33.1 L24.1 35.3 Q24.6 35.55 25.1 35.9 L27.05 37.85 27.15 38.0 27.25 38.35 27.35 38.85 27.5 38.95 Q28.2 38.05 29.45 37.4 33.8 35.2 51.05 34.2 L63.0 34.6 65.9 35.1 68.65 35.75 65.3 35.35 65.15 35.35 61.85 35.2 60.8 35.15 Q38.2 34.35 30.55 37.85 L30.1 38.15 28.6 39.15 28.25 39.45 Q28.9 40.0 29.1 40.9 29.3 41.55 29.15 44.5 29.0 47.4 28.7 48.5 29.9 48.05 31.3 47.7 36.9 46.35 44.05 46.65 L46.35 46.6 Q50.75 46.45 55.75 46.75 L57.1 46.85 60.5 47.05 60.6 47.05 60.8 47.1 61.35 47.15 61.55 47.15 69.0 48.0 69.35 48.0 Q75.75 48.5 80.75 50.25 L81.0 50.35 82.35 50.9 83.5 51.4 83.4 49.75 83.45 47.4 83.55 46.1 83.6 45.45 83.25 45.6 83.1 45.65 83.05 45.65 83.0 45.5 82.9 45.2 Q81.95 42.8 79.6 40.6 L77.3 38.85 81.55 41.25 Q83.6 42.65 83.95 43.65 L84.45 42.9 84.7 42.65 85.9 41.95 Q86.05 41.25 86.65 40.65 87.25 39.9 88.4 39.25 89.0 38.95 89.5 38.75 L90.75 36.7 90.4 36.2 Q89.05 34.4 87.0 32.8 M5.65 346.0 L6.0 342.25 7.45 314.7 7.6 314.35 Q10.85 309.25 11.15 303.55 11.4 298.75 9.25 295.4 L8.45 294.35 8.95 293.5 10.05 274.8 15.2 180.65 15.4 180.2 18.8 120.3 19.15 109.6 20.45 84.7 22.15 83.75 Q23.55 82.6 23.6 81.6 23.65 80.8 22.6 79.9 L22.2 80.05 21.4 79.7 Q21.15 79.5 21.2 78.9 L20.95 78.75 20.7 78.6 20.75 75.95 20.75 75.5 20.65 75.15 Q20.45 74.5 20.65 70.95 L20.95 68.25 21.05 65.5 21.45 54.05 Q21.55 51.75 23.15 51.5 L23.55 51.1 26.3 48.1 Q26.55 47.75 26.7 45.0 L25.8 41.75 25.05 40.7 Q23.5 39.55 22.45 38.05 L21.5 36.45 21.25 36.1 21.25 35.85 21.0 35.0 Q20.25 33.45 20.35 31.55 20.5 28.45 44.1 10.9 49.85 6.65 54.75 3.15 56.5 2.45 58.2 0.3 L58.45 0.0 58.65 0.25 Q59.95 2.35 62.4 3.6 L72.25 12.4 Q93.8 32.35 93.65 35.45 93.55 37.35 92.6 38.8 L92.25 39.6 92.25 39.85 91.9 40.2 90.85 41.65 Q89.6 43.05 87.95 44.05 L87.1 45.0 Q85.95 47.8 85.95 48.15 L85.9 51.25 88.35 54.55 88.75 55.0 Q90.25 55.4 90.15 57.7 L89.35 69.1 89.15 71.85 89.15 74.6 88.75 78.75 88.55 79.1 88.55 79.55 88.3 82.2 88.05 82.3 Q85.15 83.6 85.1 84.85 85.05 85.85 86.35 87.15 L87.85 88.25 86.55 113.15 85.8 123.85 82.8 183.75 83.0 184.25 78.15 278.4 77.25 297.1 77.65 298.0 76.75 299.0 Q74.3 302.1 74.05 306.9 73.75 312.6 76.4 318.0 L76.55 318.35 75.1 345.9 74.75 354.85 74.7 356.05 71.05 356.9 71.15 354.45 71.2 353.95 71.3 352.25 71.35 351.5 72.15 340.0 Q71.7 339.7 71.5 339.7 L71.95 331.25 72.0 330.75 72.5 320.7 Q69.9 313.7 65.8 301.0 L63.1 292.25 62.7 290.95 Q62.15 287.85 60.6 284.2 L66.55 169.7 66.4 169.25 68.5 129.1 69.3 114.35 69.8 99.25 70.65 84.0 70.65 80.7 71.25 80.3 74.8 78.25 75.0 78.25 79.85 78.85 80.0 78.85 Q82.5 80.75 83.1 80.8 84.1 80.85 84.35 80.45 L84.7 79.75 84.55 79.25 85.4 79.05 Q85.65 79.85 85.75 78.25 L85.25 77.25 85.55 68.75 85.85 58.85 85.1 57.3 84.95 57.1 84.65 56.7 84.55 56.55 Q82.9 54.45 80.05 53.2 L76.45 51.95 Q67.45 52.95 63.65 64.1 61.7 69.85 61.05 82.4 L60.55 96.2 Q60.1 99.1 60.0 100.5 L58.65 126.05 Q57.15 147.5 55.0 188.05 L54.95 188.65 54.4 198.75 54.3 200.2 54.3 200.35 54.05 205.1 53.9 208.25 53.9 208.3 52.85 228.5 Q51.35 258.55 50.8 274.05 L48.4 319.3 48.4 321.0 47.85 332.0 47.95 332.5 46.65 358.15 44.65 358.15 46.0 332.9 46.25 332.4 48.45 291.45 Q48.4 283.05 49.0 271.4 L58.05 102.55 Q59.35 98.7 59.4 88.75 59.5 76.35 60.1 71.85 62.25 54.6 75.2 51.65 L70.35 50.65 66.95 50.6 56.2 49.35 49.3 49.4 45.25 49.45 41.85 49.15 39.65 49.3 36.9 49.6 Q38.1 50.0 39.15 50.55 41.25 51.55 42.95 53.0 45.05 54.8 46.5 57.3 49.7 62.7 49.8 71.3 L49.8 71.5 49.55 78.15 49.55 78.7 49.55 78.9 49.5 79.1 48.7 88.2 48.25 94.3 48.2 97.7 47.75 106.65 47.15 117.65 45.35 151.8 44.4 169.4 44.25 169.9 44.05 173.7 42.85 195.75 40.05 246.25 38.05 286.55 37.65 301.95 36.2 329.05 36.05 331.85 36.3 332.4 34.95 357.5 33.05 357.15 34.35 331.8 34.55 331.3 35.45 314.85 35.65 310.65 36.7 290.85 Q37.05 277.5 38.05 258.65 L39.8 226.25 47.75 81.7 Q48.4 69.15 47.15 63.25 L46.05 59.5 Q43.0 51.4 35.65 49.8 L32.85 50.4 31.95 50.65 31.9 50.7 Q28.9 51.65 27.05 53.6 26.15 54.5 25.55 55.65 L24.85 65.55 24.25 74.0 Q23.65 74.6 23.65 74.95 L23.6 75.5 Q24.0 76.4 23.95 77.25 L23.95 77.5 24.3 77.7 Q26.2 77.4 27.6 76.15 L28.4 76.15 28.55 76.1 28.55 76.15 29.8 76.15 34.3 76.1 34.5 76.1 37.85 78.55 38.35 79.0 38.05 82.25 Q37.7 87.35 37.3 97.55 36.7 103.45 36.2 112.6 L35.4 127.35 33.3 167.5 33.05 167.9 26.9 282.4 Q24.95 285.9 24.1 288.9 L19.9 298.55 15.85 307.7 15.55 308.35 13.7 312.35 13.15 313.45 11.2 317.45 10.2 336.45 9.55 336.7 9.25 342.45 9.1 348.15 5.65 346.0 M79.8 86.6 L81.95 87.1 82.45 87.3 82.3 86.05 82.5 85.25 82.2 84.35 82.5 82.8 Q81.8 82.4 81.05 81.7 L79.4 80.15 77.7 80.15 72.95 79.6 Q71.75 87.4 71.35 99.65 L68.85 147.45 69.0 147.95 67.55 175.85 67.3 176.35 64.6 227.9 64.15 230.8 62.1 269.35 61.65 270.15 61.45 279.85 61.7 279.9 Q61.35 285.8 68.4 303.2 L70.95 309.5 Q71.1 307.35 71.65 305.05 72.0 300.0 73.55 298.35 L73.7 297.75 73.9 294.4 71.8 288.65 Q69.4 281.6 68.95 279.2 L68.85 279.15 69.3 258.35 74.2 164.1 75.55 131.5 Q76.2 113.5 77.55 88.2 L78.3 87.3 78.6 87.0 79.05 86.75 79.2 86.7 79.5 86.6 79.7 86.6 79.8 86.6 M84.8 91.5 L84.85 90.5 83.4 90.45 Q81.3 89.6 80.5 89.0 L80.2 89.45 Q78.55 112.0 77.65 140.15 L75.1 188.35 74.95 188.7 71.2 259.1 Q70.65 263.4 70.2 269.25 L69.6 277.05 Q69.8 280.65 73.6 289.0 L74.1 290.15 74.5 282.65 77.25 231.35 77.8 220.5 79.7 184.55 79.9 184.05 81.9 146.0 83.1 129.2 83.65 113.0 84.8 91.5 M22.9 32.8 L23.45 32.0 22.85 32.75 22.9 32.8 M28.8 83.9 L28.85 83.9 Q29.8 83.95 30.75 85.7 L30.75 85.75 28.15 129.0 Q26.85 146.95 26.1 161.55 L21.0 255.8 Q20.3 261.0 19.25 276.55 L19.15 276.55 15.35 285.65 12.6 291.15 12.4 294.5 12.55 295.1 12.6 295.15 12.9 295.65 Q13.45 296.7 13.65 298.45 L13.7 302.0 13.85 303.05 14.0 306.5 16.7 301.25 17.1 300.5 20.6 293.7 Q26.05 282.6 26.3 278.0 L26.55 278.0 27.35 268.35 27.0 267.5 29.05 228.95 28.9 226.0 31.6 174.45 31.45 173.95 32.9 146.05 33.15 145.55 35.65 97.75 Q36.55 85.55 36.25 77.65 33.65 77.6 31.4 77.7 L30.4 77.6 Q28.85 78.8 26.85 79.35 L26.4 79.5 26.55 81.4 26.15 82.25 26.25 82.9 26.25 83.1 26.25 83.25 26.0 84.3 26.5 84.15 28.8 83.9 M25.75 87.05 L25.55 87.15 25.25 87.2 24.85 87.35 24.75 87.35 23.9 87.3 23.25 87.25 23.2 88.3 22.65 98.65 22.05 109.75 22.0 110.55 22.0 110.8 21.95 111.05 21.35 119.85 20.95 125.15 20.9 125.9 20.7 131.55 20.65 132.05 20.45 137.8 20.3 142.75 20.3 143.25 18.3 180.8 18.4 181.15 18.3 183.55 17.6 196.7 16.55 216.05 16.05 225.9 12.9 284.95 12.8 286.9 13.5 285.8 14.2 284.6 14.25 284.55 14.35 284.35 14.5 284.1 15.1 283.0 15.45 282.4 15.45 282.35 Q18.25 277.1 18.7 274.35 L18.9 266.55 19.0 256.35 22.75 185.95 22.6 185.55 23.35 171.9 23.35 171.8 25.15 137.35 Q27.25 109.3 28.0 86.7 L27.7 86.2 Q27.1 86.6 25.75 87.05" fill="#afbd93" fill-rule="evenodd" stroke="none"/>
      <path d="M73.65 18.3 L84.8 29.2 83.55 28.55 Q81.35 27.45 77.85 26.55 L78.35 26.3 Q71.8 24.45 68.2 23.85 L67.7 23.8 65.75 23.5 65.6 23.15 58.65 4.05 68.55 13.45 69.55 14.4 72.0 16.75 Q68.85 17.6 67.85 18.6 L68.6 19.35 70.25 19.65 74.2 18.85 73.65 18.3 M81.95 33.0 L81.55 32.3 81.25 32.0 79.85 31.95 78.95 32.0 78.9 31.95 78.8 33.05 Q78.8 34.1 79.15 34.35 L80.25 34.6 Q81.9 34.1 81.95 33.0 M87.0 32.8 L86.35 33.5 Q84.9 35.3 84.9 37.3 L85.05 38.25 Q83.05 38.7 83.05 40.65 83.05 42.2 84.45 42.9 L83.95 43.65 Q83.6 42.65 81.55 41.25 L77.3 38.85 79.6 40.6 Q81.95 42.8 82.9 45.2 L80.9 43.6 Q77.85 41.7 77.85 45.0 77.85 45.75 79.55 48.45 L80.75 50.25 Q75.75 48.5 69.35 48.0 L69.0 48.0 61.55 47.15 61.35 47.15 60.8 47.1 60.6 47.05 60.5 47.05 60.6 45.65 Q60.85 41.55 61.25 38.6 L60.95 37.95 Q60.7 37.25 60.7 36.15 L60.8 35.15 61.85 35.2 65.15 35.35 65.3 35.35 68.65 35.75 65.9 35.1 63.0 34.6 51.05 34.2 Q33.8 35.2 29.45 37.4 28.2 38.05 27.5 38.95 L27.35 38.85 27.25 38.35 27.3 38.5 Q30.4 35.05 32.1 32.35 29.15 32.35 25.1 35.9 24.6 35.55 24.1 35.3 L23.05 33.1 Q26.0 29.7 31.7 27.35 35.4 25.8 40.0 24.85 L40.65 24.9 46.5 24.4 48.35 24.3 54.45 24.1 57.45 24.15 58.05 24.15 60.3 24.4 66.6 25.25 68.4 25.55 74.15 26.7 74.8 26.7 Q79.2 28.1 82.8 30.05 85.2 31.35 87.0 32.8 M83.55 46.1 L83.25 45.6 83.6 45.45 83.55 46.1 M46.65 358.15 L47.95 332.5 47.85 332.0 48.4 321.0 48.4 319.3 50.8 274.05 Q51.35 258.55 52.85 228.5 L53.9 208.3 53.9 208.25 54.1 207.35 Q57.5 192.8 57.5 191.75 57.5 183.75 59.7 174.45 62.9 160.75 63.7 155.5 63.15 158.35 55.65 185.4 L55.0 187.9 55.0 188.05 Q57.15 147.5 58.65 126.05 L60.0 100.5 Q60.1 99.1 60.55 96.2 L61.05 82.4 Q61.7 69.85 63.65 64.1 67.45 52.95 76.45 51.95 L80.05 53.2 Q82.9 54.45 84.55 56.55 L81.65 58.8 Q79.95 60.4 79.95 60.85 79.95 63.15 82.55 63.15 L84.35 62.65 Q85.0 62.5 85.2 63.95 84.2 65.45 82.3 66.7 80.9 67.6 80.9 68.4 80.9 69.3 82.2 70.75 L83.45 72.3 Q83.45 73.0 81.65 75.5 80.05 77.65 79.85 78.85 L75.0 78.25 74.8 78.25 71.25 80.3 70.65 80.7 70.65 84.0 69.8 99.25 69.3 114.35 68.5 129.1 66.4 169.25 66.55 169.7 60.6 284.2 Q62.15 287.85 62.7 290.95 L63.1 292.25 Q59.65 288.15 59.65 294.8 59.65 295.8 61.05 297.7 62.45 299.6 62.45 301.1 62.45 306.65 65.1 312.55 62.4 311.65 59.8 312.0 L59.45 313.55 60.3 315.45 Q61.25 317.05 62.9 317.05 L65.25 316.4 66.7 315.7 66.85 316.0 69.9 320.9 Q71.25 323.1 71.25 323.8 L68.9 326.15 Q66.55 328.1 66.55 329.65 66.55 334.75 66.85 336.4 67.35 339.1 68.45 340.6 L67.95 341.95 Q66.55 345.65 66.55 347.1 L66.55 347.45 61.9 344.25 Q57.2 341.7 54.85 343.3 55.15 344.25 57.4 346.05 59.55 347.7 61.1 347.95 60.25 348.95 59.3 350.6 60.95 352.9 62.75 353.95 L62.45 354.05 Q59.4 355.35 58.65 357.9 L46.65 358.15 M84.95 57.1 L85.1 57.3 Q83.7 58.95 83.7 59.5 L83.2 59.3 Q83.5 57.7 84.95 57.1 M72.0 330.75 L71.95 331.25 71.9 331.2 72.0 330.75 M82.35 50.9 L83.4 49.75 83.5 51.4 82.35 50.9 M78.3 87.3 L77.55 88.2 Q76.2 113.5 75.55 131.5 L74.2 164.1 69.3 258.35 68.85 279.15 68.95 279.2 Q69.4 281.6 71.8 288.65 L73.9 294.4 73.7 297.75 73.55 298.35 Q72.0 300.0 71.65 305.05 71.1 307.35 70.95 309.5 L68.4 303.2 Q61.35 285.8 61.7 279.9 L61.45 279.85 61.65 270.15 62.1 269.35 64.15 230.8 64.6 227.9 67.3 176.35 67.55 175.85 69.0 147.95 68.85 147.45 71.35 99.65 Q71.75 87.4 72.95 79.6 L77.7 80.15 79.4 80.15 81.05 81.7 Q81.8 82.4 82.5 82.8 L82.2 84.35 82.5 85.25 82.3 86.05 82.45 87.3 81.95 87.1 79.8 86.6 80.1 86.2 79.8 85.25 77.1 84.2 Q76.15 84.05 75.25 85.05 L75.55 86.05 75.8 87.0 Q76.05 87.35 77.65 87.35 L78.3 87.3 M74.5 282.65 L74.1 290.15 73.6 289.0 Q69.8 280.65 69.6 277.05 L70.2 269.25 Q70.65 263.4 71.2 259.1 L74.95 188.7 75.1 188.35 77.65 140.15 Q78.55 112.0 80.2 89.45 L80.5 89.0 Q81.3 89.6 83.4 90.45 L84.85 90.5 84.8 91.5 84.25 91.95 Q80.6 95.35 80.6 97.85 80.6 98.35 81.6 99.3 82.6 100.2 82.6 100.9 L81.95 104.2 Q81.25 106.7 81.25 107.5 81.25 108.95 82.25 111.8 83.25 114.6 83.25 117.15 83.25 119.75 81.6 121.55 79.95 123.35 79.95 126.35 79.95 127.2 80.85 130.2 L81.75 133.6 Q81.75 137.0 80.7 145.35 79.8 152.8 80.1 158.3 80.75 168.95 79.6 173.0 78.15 177.9 78.15 183.65 L76.2 216.3 Q76.2 217.5 77.5 219.9 L77.8 220.5 77.25 231.35 76.25 233.55 Q73.7 238.95 73.7 240.5 73.7 245.6 71.75 269.0 71.75 271.35 73.6 279.15 L74.5 282.65 M42.95 27.3 Q42.85 26.65 41.6 26.1 41.2 26.2 40.35 26.95 39.25 27.95 39.0 29.15 L39.85 29.7 40.3 29.9 Q40.8 29.85 42.95 27.3 M74.95 33.45 Q74.6 34.05 74.6 34.8 L74.75 35.35 75.8 35.6 77.05 35.5 77.35 35.25 77.35 34.45 76.8 33.5 75.8 32.65 Q75.3 32.8 74.95 33.45 M69.8 40.85 L69.45 39.4 Q68.45 39.15 67.35 40.0 66.35 40.75 66.35 41.35 66.35 42.45 66.8 42.75 L68.0 43.15 Q69.3 42.35 69.6 42.35 L69.7 41.25 69.8 40.85 M76.45 43.3 L76.1 42.4 75.15 41.5 74.25 41.85 Q73.85 42.2 73.85 43.25 73.85 44.3 74.2 44.5 L75.15 44.75 Q75.8 44.6 76.45 43.3 M28.8 83.9 L26.5 84.15 26.0 84.3 26.25 83.25 26.25 83.1 26.25 82.9 Q27.7 82.6 28.8 83.9 M13.65 298.45 Q13.45 296.7 12.9 295.65 L12.6 295.15 12.55 295.1 12.4 294.5 12.6 291.15 15.35 285.65 19.15 276.55 19.25 276.55 Q20.3 261.0 21.0 255.8 L26.1 161.55 Q26.85 146.95 28.15 129.0 L30.75 85.75 Q31.4 86.8 31.6 88.3 L31.6 96.3 31.7 100.9 Q31.7 108.0 30.75 121.7 29.8 135.6 29.75 142.35 L30.15 162.65 Q29.95 172.5 27.45 180.15 L26.65 192.85 26.4 196.35 26.4 209.05 25.7 211.85 25.6 218.9 Q25.6 229.4 24.3 242.95 L24.3 252.1 24.1 261.2 Q24.1 270.4 20.9 283.1 19.3 289.35 17.45 293.3 L17.0 294.15 14.15 298.0 13.65 298.45 M66.7 71.5 L67.75 71.25 68.0 71.0 Q68.3 71.4 68.3 69.8 L68.15 68.75 67.65 68.65 Q66.55 68.65 65.05 70.85 L65.5 71.4 66.7 71.5 M78.3 70.4 L77.0 71.65 Q77.65 72.3 78.95 72.7 79.95 72.3 80.45 71.0 L78.95 69.7 78.3 70.4 M73.95 72.7 Q73.95 73.75 74.25 74.0 L75.15 74.25 75.9 73.95 76.2 72.9 75.95 72.15 Q75.65 71.55 75.15 71.4 L74.3 71.5 Q73.95 71.65 73.95 72.7 M77.35 63.4 L76.0 63.5 Q75.25 63.8 75.25 64.85 75.25 66.2 75.5 65.75 L76.7 65.9 77.9 65.7 78.0 65.25 Q78.15 66.15 78.15 64.5 L78.0 63.5 77.35 63.4 M66.95 79.9 L66.05 79.7 64.0 81.25 Q62.65 82.4 62.65 82.7 62.65 83.75 63.0 84.0 L64.1 84.25 65.9 82.7 67.2 81.0 66.95 79.9 M75.15 93.3 L74.1 93.45 Q73.95 94.25 73.95 95.45 73.95 96.6 74.25 97.0 74.45 97.25 75.15 97.5 L75.95 96.95 76.2 95.55 75.95 93.95 Q75.75 93.55 75.15 93.3 M67.35 111.3 L67.85 110.5 Q67.0 109.65 66.05 109.35 L65.85 109.7 65.65 110.0 Q66.4 110.95 67.35 111.3 M64.1 122.75 L62.95 122.9 Q62.25 123.05 62.25 124.05 62.25 125.1 62.45 125.15 L62.55 125.15 63.75 125.35 Q64.8 125.35 65.35 124.95 L65.7 124.55 Q65.65 123.35 64.1 122.75 M62.4 130.15 L62.35 130.1 62.25 131.2 Q62.25 132.0 62.9 132.95 63.85 134.4 65.7 134.4 66.75 134.4 67.1 133.85 L67.35 132.95 Q64.3 130.15 62.4 130.15 M73.35 158.8 L73.2 158.3 Q72.0 157.85 70.95 158.3 69.95 158.7 69.95 159.5 L70.7 161.05 71.9 162.75 Q73.45 162.05 73.45 160.15 L73.35 158.8 M57.5 228.55 L57.2 227.1 Q54.6 227.1 54.6 228.7 54.6 229.75 54.9 230.0 L55.75 230.25 Q56.35 230.2 57.5 228.55 M55.1 265.35 Q55.1 266.35 55.4 266.4 55.9 266.25 56.4 266.4 L57.95 264.8 58.8 263.25 58.65 262.3 58.5 262.5 56.25 263.45 Q55.1 264.0 55.1 265.35 M56.4 279.9 L56.35 279.7 56.3 280.7 Q56.3 281.75 56.65 281.95 L57.7 282.25 Q59.4 281.95 59.8 280.8 59.4 279.45 58.35 279.0 L56.4 279.9 M68.3 295.45 L68.3 295.6 72.2 301.2 Q72.65 299.35 73.45 298.45 69.95 295.95 68.3 295.45 M58.15 324.05 Q57.7 323.15 56.7 322.55 55.55 322.55 55.25 324.25 55.65 324.75 56.4 325.1 57.65 324.7 58.15 324.05 M58.5 333.45 L57.45 333.3 56.7 333.35 56.65 333.25 56.55 334.35 Q56.55 335.35 56.8 335.35 L57.7 335.4 58.8 334.45 58.5 333.45 M60.3 333.8 L60.2 333.8 60.1 335.0 Q60.1 335.95 60.85 337.0 61.85 338.4 63.55 338.5 L65.25 338.0 Q65.3 337.7 65.5 337.65 L65.65 336.7 Q65.65 335.6 64.2 334.45 62.45 333.0 60.3 333.8 M58.85 300.95 L59.65 300.05 58.65 298.7 Q57.5 298.7 56.4 300.65 56.85 301.1 57.7 301.35 58.2 301.35 58.85 300.95 M63.55 325.25 Q62.95 325.45 62.6 326.1 62.25 326.6 62.25 327.05 L63.55 327.85 Q64.8 327.55 65.25 326.7 L65.0 325.75 63.55 325.25" fill="#cee0ba" fill-rule="evenodd" stroke="none"/>
      <path d="M65.75 23.5 L58.6 22.95 58.35 22.95 56.85 22.85 56.55 22.85 50.7 22.65 54.2 20.5 54.0 20.05 Q51.15 20.3 47.15 22.7 L46.8 22.7 44.85 22.9 44.9 22.5 Q45.3 21.05 47.8 20.6 50.55 20.05 51.1 19.2 L50.75 18.2 48.0 17.7 Q47.45 17.7 45.7 18.5 L49.45 14.75 Q54.65 8.95 54.65 7.8 L54.55 7.05 58.6 4.0 58.65 4.05 65.6 23.15 65.75 23.5 M36.6 24.25 L36.95 24.4 35.6 24.6 36.6 24.25 M81.95 33.0 Q81.9 34.1 80.25 34.6 L79.15 34.35 Q78.8 34.1 78.8 33.05 L78.9 31.95 78.95 32.0 79.85 31.95 81.25 32.0 81.55 32.3 81.95 33.0 M84.45 42.9 Q83.05 42.2 83.05 40.65 83.05 38.7 85.05 38.25 L84.9 37.3 Q84.9 35.3 86.35 33.5 L87.0 32.8 Q89.05 34.4 90.4 36.2 L90.75 36.7 89.5 38.75 Q89.0 38.95 88.4 39.25 87.25 39.9 86.65 40.65 86.05 41.25 85.9 41.95 L84.7 42.65 84.45 42.9 M60.8 35.15 L60.7 36.15 Q60.7 37.25 60.95 37.95 L61.25 38.6 Q60.85 41.55 60.6 45.65 L60.5 47.05 57.1 46.85 55.75 46.75 Q50.75 46.45 46.35 46.6 L46.4 46.0 46.3 44.95 46.15 44.75 42.25 44.3 Q41.25 44.3 41.0 44.85 L40.8 45.4 39.0 43.85 Q38.2 43.15 37.05 43.15 L34.95 43.55 33.75 43.8 34.25 43.5 38.1 41.05 37.85 40.7 33.35 41.05 Q32.65 39.0 30.55 37.9 L30.1 38.15 30.55 37.85 Q38.2 34.35 60.8 35.15 M80.75 50.25 L79.55 48.45 Q77.85 45.75 77.85 45.0 77.85 41.7 80.9 43.6 L82.9 45.2 83.0 45.5 83.05 45.65 83.1 45.65 83.25 45.6 83.55 46.1 83.45 47.4 83.4 49.75 82.35 50.9 81.0 50.35 80.75 50.25 M13.15 313.45 L13.7 312.35 14.6 312.65 13.15 313.45 M15.85 307.7 L19.9 298.55 24.1 288.9 Q24.95 285.9 26.9 282.4 L33.05 167.9 33.3 167.5 35.4 127.35 36.2 112.6 Q36.7 103.45 37.3 97.55 37.7 87.35 38.05 82.25 L38.35 79.0 37.85 78.55 34.5 76.1 34.3 76.1 29.8 76.15 29.8 75.8 Q29.8 73.7 27.25 73.4 24.75 73.1 24.7 70.2 27.8 69.8 29.4 67.95 30.6 66.6 30.6 65.35 30.6 64.05 29.15 61.85 L29.05 61.7 29.65 61.4 Q31.65 60.35 33.55 60.15 L32.3 58.65 Q31.6 57.85 31.6 57.35 L31.7 55.9 32.1 55.25 35.5 55.1 Q39.75 55.1 41.5 57.3 43.2 59.45 46.05 59.5 L47.15 63.25 Q48.4 69.15 47.75 81.7 L39.8 226.25 38.05 258.65 Q37.05 277.5 36.7 290.85 L35.65 310.65 Q30.65 305.35 29.5 301.95 L29.0 302.1 Q30.5 307.7 35.45 314.85 L34.55 331.3 34.35 331.8 33.05 357.15 Q26.9 355.95 20.2 353.35 L20.65 351.5 Q20.65 350.55 18.95 349.25 16.6 347.5 15.45 345.7 18.2 342.55 20.35 336.25 22.55 329.9 24.95 327.05 23.75 327.35 20.35 330.85 17.15 334.1 15.75 336.2 L14.7 337.45 14.15 336.2 Q13.5 335.1 13.5 334.25 L15.05 332.45 Q16.55 330.65 16.55 329.8 16.55 328.65 15.5 327.45 L13.4 325.1 14.6 323.45 Q15.45 322.2 15.45 321.45 L15.2 319.9 14.8 319.3 Q17.3 318.9 19.45 317.85 22.1 316.55 22.1 315.0 22.1 314.2 21.45 312.95 20.8 311.7 20.8 310.85 20.8 309.75 22.05 308.0 23.45 306.0 23.65 305.1 20.95 305.6 19.75 308.65 L18.85 310.35 18.85 310.3 Q18.85 308.15 15.85 307.7 M31.9 50.7 L31.95 50.65 32.85 50.4 32.15 51.1 32.35 51.6 31.9 50.7 M36.2 329.05 L37.65 301.95 38.05 286.55 40.05 246.25 42.85 195.75 43.85 199.05 44.45 198.9 Q44.3 195.05 44.7 187.45 L45.1 179.55 Q45.1 177.6 44.05 173.7 L44.25 169.9 44.4 169.4 45.35 151.8 45.8 149.8 Q48.65 137.6 48.65 131.85 48.65 125.2 47.75 121.15 L47.15 117.65 47.75 106.65 48.35 104.25 49.8 98.7 Q49.8 97.65 48.25 94.3 L48.7 88.2 49.5 79.1 49.5 79.45 Q51.4 74.05 51.4 70.7 L50.7 66.6 Q49.95 63.3 49.95 62.5 49.95 61.65 50.6 60.55 51.25 59.4 51.25 58.6 51.25 57.75 49.95 55.75 48.65 53.8 48.65 53.05 L49.1 50.45 49.3 49.4 56.2 49.35 66.95 50.6 70.35 50.65 75.2 51.65 Q62.25 54.6 60.1 71.85 59.5 76.35 59.4 88.75 59.35 98.7 58.05 102.55 L49.0 271.4 Q48.4 283.05 48.45 291.45 L46.25 332.4 46.0 332.9 44.65 358.15 42.9 358.15 36.5 357.75 36.35 357.4 35.85 355.95 37.75 353.25 Q41.25 348.15 41.25 347.0 L41.15 345.6 41.0 345.05 Q39.0 346.7 36.4 351.7 L35.7 353.1 37.3 340.05 Q38.95 328.05 39.5 325.5 L39.15 323.8 36.2 329.05 M46.5 57.3 Q45.05 54.8 42.95 53.0 L44.75 53.85 Q46.85 54.75 46.85 55.9 L46.5 57.3 M39.15 50.55 Q38.1 50.0 36.9 49.6 L39.65 49.3 39.0 50.4 39.15 50.55 M84.55 56.55 L84.65 56.7 84.95 57.1 Q83.5 57.7 83.2 59.3 L83.7 59.5 Q83.7 58.95 85.1 57.3 L85.85 58.85 85.55 68.75 85.25 77.25 85.75 78.25 Q85.65 79.85 85.4 79.05 L84.55 79.25 84.7 79.75 84.35 80.45 Q84.1 80.85 83.1 80.8 82.5 80.75 80.0 78.85 L79.85 78.85 Q80.05 77.65 81.65 75.5 83.45 73.0 83.45 72.3 L82.2 70.75 Q80.9 69.3 80.9 68.4 80.9 67.6 82.3 66.7 84.2 65.45 85.2 63.95 85.0 62.5 84.35 62.65 L82.55 63.15 Q79.95 63.15 79.95 60.85 79.95 60.4 81.65 58.8 L84.55 56.55 M63.1 292.25 L65.8 301.0 Q69.9 313.7 72.5 320.7 L72.0 330.75 71.9 331.2 71.95 331.25 71.5 339.7 Q71.7 339.7 72.15 340.0 L71.35 351.5 71.3 352.25 71.2 353.95 71.15 354.45 71.05 356.9 58.65 357.9 Q59.4 355.35 62.45 354.05 L62.75 353.95 Q60.95 352.9 59.3 350.6 60.25 348.95 61.1 347.95 59.55 347.7 57.4 346.05 55.15 344.25 54.85 343.3 57.2 341.7 61.9 344.25 L66.55 347.45 66.55 347.1 Q66.55 345.65 67.95 341.95 L68.45 340.6 Q67.35 339.1 66.85 336.4 66.55 334.75 66.55 329.65 66.55 328.1 68.9 326.15 L71.25 323.8 Q71.25 323.1 69.9 320.9 L66.85 316.0 66.7 315.7 65.25 316.4 62.9 317.05 Q61.25 317.05 60.3 315.45 L59.45 313.55 59.8 312.0 Q62.4 311.65 65.1 312.55 62.45 306.65 62.45 301.1 62.45 299.6 61.05 297.7 59.65 295.8 59.65 294.8 59.65 288.15 63.1 292.25 M78.3 87.3 L77.65 87.35 Q76.05 87.35 75.8 87.0 L75.55 86.05 75.25 85.05 Q76.15 84.05 77.1 84.2 L79.8 85.25 80.1 86.2 79.8 86.6 79.7 86.6 79.5 86.6 79.2 86.7 79.05 86.75 78.6 87.0 78.3 87.3 M74.5 282.65 L73.6 279.15 Q71.75 271.35 71.75 269.0 73.7 245.6 73.7 240.5 73.7 238.95 76.25 233.55 L77.25 231.35 74.5 282.65 M77.8 220.5 L77.5 219.9 Q76.2 217.5 76.2 216.3 L78.15 183.65 Q78.15 177.9 79.6 173.0 80.75 168.95 80.1 158.3 79.8 152.8 80.7 145.35 81.75 137.0 81.75 133.6 L80.85 130.2 Q79.95 127.2 79.95 126.35 79.95 123.35 81.6 121.55 83.25 119.75 83.25 117.15 83.25 114.6 82.25 111.8 81.25 108.95 81.25 107.5 81.25 106.7 81.95 104.2 L82.6 100.9 Q82.6 100.2 81.6 99.3 80.6 98.35 80.6 97.85 80.6 95.35 84.25 91.95 L84.8 91.5 83.65 113.0 83.1 129.2 81.9 146.0 79.9 184.05 79.7 184.55 77.8 220.5 M56.4 14.7 L56.05 13.95 Q55.65 13.4 55.1 13.15 54.6 13.3 54.2 14.1 53.8 14.9 53.8 15.6 L54.05 16.2 55.1 16.4 56.25 16.2 56.15 15.95 56.4 14.7 M45.85 14.45 L47.45 14.3 46.8 14.65 Q45.75 15.45 44.85 15.45 L45.35 14.95 Q45.5 14.55 45.85 14.45 M46.4 40.15 Q46.4 39.15 46.2 39.1 L45.55 38.9 Q43.2 38.4 43.2 40.05 43.2 41.15 43.65 41.45 L44.85 41.85 Q45.9 41.6 46.2 40.85 46.4 41.75 46.4 40.15 M74.95 33.45 Q75.3 32.8 75.8 32.65 L76.8 33.5 77.35 34.45 77.35 35.25 77.05 35.5 75.8 35.6 74.75 35.35 74.6 34.8 Q74.6 34.05 74.95 33.45 M76.45 43.3 Q75.8 44.6 75.15 44.75 L74.2 44.5 Q73.85 44.3 73.85 43.25 73.85 42.2 74.25 41.85 L75.15 41.5 76.1 42.4 76.45 43.3 M36.45 66.1 L36.25 66.2 34.05 66.0 Q33.05 66.3 33.05 67.2 L33.15 68.25 33.55 68.4 Q33.2 68.8 34.85 68.8 L36.1 68.6 36.25 68.4 Q36.3 68.1 36.5 68.1 L36.65 67.2 Q36.65 66.15 36.45 66.1 M37.2 57.35 L35.9 57.2 Q35.15 57.3 35.15 58.35 35.15 59.35 35.5 59.45 L36.4 59.55 Q37.45 59.2 37.7 58.25 L37.2 57.35 M30.75 85.75 L30.75 85.7 Q29.8 83.95 28.85 83.9 L28.8 83.9 Q27.7 82.6 26.25 82.9 L26.15 82.25 26.55 81.4 26.4 79.5 26.85 79.35 Q28.85 78.8 30.4 77.6 L31.4 77.7 Q33.65 77.6 36.25 77.65 36.55 85.55 35.65 97.75 L33.15 145.55 32.9 146.05 31.45 173.95 31.6 174.45 28.9 226.0 29.05 228.95 27.0 267.5 27.35 268.35 26.55 278.0 26.3 278.0 Q26.05 282.6 20.6 293.7 20.4 292.5 19.4 292.25 L17.9 292.35 17.45 293.3 Q19.3 289.35 20.9 283.1 24.1 270.4 24.1 261.2 L24.3 252.1 24.3 242.95 Q25.6 229.4 25.6 218.9 L25.7 211.85 26.4 209.05 26.4 196.35 26.65 192.85 27.45 180.15 Q29.95 172.5 30.15 162.65 L29.75 142.35 Q29.8 135.6 30.75 121.7 31.7 108.0 31.7 100.9 L31.6 96.3 31.6 88.3 Q31.4 86.8 30.75 85.75 M16.7 301.25 L14.0 306.5 13.85 303.05 15.2 303.3 16.7 301.25 M22.65 98.65 L22.7 98.3 23.0 96.7 Q23.5 92.95 26.25 92.2 26.1 88.8 25.75 87.05 27.1 86.6 27.7 86.2 L28.0 86.7 Q27.25 109.3 25.15 137.35 L23.35 171.8 23.3 171.6 23.35 171.9 22.6 185.55 22.75 185.95 19.0 256.35 18.9 266.55 18.7 274.35 Q18.25 277.1 15.45 282.35 L15.45 279.1 Q15.45 275.55 14.55 273.35 16.0 273.2 17.05 271.85 17.95 270.7 17.95 269.45 17.95 268.55 16.4 266.2 14.8 263.8 14.8 260.65 14.8 259.85 15.55 257.55 L16.25 254.4 Q16.25 246.95 17.1 245.45 17.95 244.0 17.95 236.75 17.95 230.65 16.05 225.9 L16.55 216.05 16.85 215.6 Q19.5 211.55 19.5 210.1 19.5 206.55 17.7 197.3 L17.6 196.7 18.3 183.55 Q19.1 183.15 20.2 182.7 L20.25 182.7 Q19.15 182.2 18.4 181.15 L18.3 180.8 20.3 143.25 Q21.95 137.75 21.95 136.6 21.95 134.2 20.65 132.05 L20.7 131.55 20.9 125.9 20.95 125.15 21.35 119.85 21.95 111.05 22.0 110.8 22.0 110.55 22.05 109.75 22.65 98.65 M23.9 87.3 L23.5 87.3 23.2 88.3 23.25 87.25 23.9 87.3 M39.95 92.45 L39.8 93.75 Q39.8 95.7 42.25 98.5 L42.85 97.9 43.4 97.2 Q42.9 95.3 42.4 94.35 41.55 92.6 39.95 92.45 M77.35 63.4 L78.0 63.5 78.15 64.5 Q78.15 66.15 78.0 65.25 L77.9 65.7 76.7 65.9 75.5 65.75 Q75.25 66.2 75.25 64.85 75.25 63.8 76.0 63.5 L77.35 63.4 M73.95 72.7 Q73.95 71.65 74.3 71.5 L75.15 71.4 Q75.65 71.55 75.95 72.15 L76.2 72.9 75.9 73.95 75.15 74.25 74.25 74.0 Q73.95 73.75 73.95 72.7 M78.3 70.4 L78.95 69.7 80.45 71.0 Q79.95 72.3 78.95 72.7 77.65 72.3 77.0 71.65 L78.3 70.4 M59.2 56.2 Q58.45 56.65 58.0 57.35 58.5 57.85 59.65 58.0 L60.7 57.0 Q61.1 56.3 61.1 55.6 60.15 55.6 59.2 56.2 M43.55 61.5 Q43.3 60.75 42.25 60.2 41.7 60.45 41.3 61.05 40.95 61.6 40.95 62.0 L42.25 62.8 Q43.3 62.35 43.55 61.5 M46.0 50.6 L46.0 51.35 45.1 51.2 44.2 50.6 46.0 50.6 M58.0 96.2 Q56.8 95.6 55.85 97.0 55.0 98.2 55.0 99.3 55.0 100.35 55.35 100.65 L56.4 101.1 Q57.25 100.55 57.95 99.3 58.65 98.1 58.65 97.2 58.65 96.15 58.35 96.1 L58.0 96.2 M75.15 93.3 Q75.75 93.55 75.95 93.95 L76.2 95.55 75.95 96.95 75.15 97.5 Q74.45 97.25 74.25 97.0 73.95 96.6 73.95 95.45 73.95 94.25 74.1 93.45 L75.15 93.3 M42.8 116.5 L41.9 116.2 Q41.05 116.2 40.6 116.85 L41.4 118.25 41.9 119.75 42.55 119.5 42.9 119.05 Q43.2 118.65 43.2 117.65 43.2 116.7 42.8 116.5 M53.55 124.9 L53.95 124.9 Q55.25 123.75 55.9 121.95 54.8 122.7 53.55 124.9 M25.0 124.85 L25.15 122.7 22.8 126.5 21.7 126.25 21.6 126.1 23.95 129.7 24.6 130.65 24.75 128.6 25.2 126.45 25.0 124.85 M32.15 220.35 Q31.1 220.9 31.1 222.0 31.1 223.05 31.45 223.25 L32.55 223.5 Q32.9 223.45 34.0 222.45 L35.5 220.9 34.85 220.05 Q33.25 219.7 32.15 220.35 M14.2 284.6 L13.5 285.8 12.8 286.9 12.9 284.95 14.2 284.6 M46.85 263.8 Q45.4 263.95 44.9 264.25 L43.8 265.45 45.4 265.15 46.85 264.8 46.85 263.8 M45.75 256.1 Q45.15 256.1 44.2 256.85 43.35 257.55 42.95 258.2 L43.15 259.05 44.2 259.35 45.7 258.0 46.4 257.1 Q46.4 256.05 46.1 256.0 L45.75 256.1 M56.4 279.9 L58.35 279.0 Q59.4 279.45 59.8 280.8 59.4 281.95 57.7 282.25 L56.65 281.95 Q56.3 281.75 56.3 280.7 L56.35 279.7 56.4 279.9 M41.9 289.0 Q41.05 289.4 40.6 290.5 40.3 291.25 40.3 291.75 L40.5 293.4 40.95 294.45 42.3 292.5 42.75 290.9 42.5 289.5 41.9 289.0 M58.85 300.95 Q58.2 301.35 57.7 301.35 56.85 301.1 56.4 300.65 57.5 298.7 58.65 298.7 L59.65 300.05 58.85 300.95 M60.3 333.8 Q62.45 333.0 64.2 334.45 65.65 335.6 65.65 336.7 L65.5 337.65 Q65.3 337.7 65.25 338.0 L63.55 338.5 Q61.85 338.4 60.85 337.0 60.1 335.95 60.1 335.0 L60.2 333.8 60.3 333.8 M58.5 333.45 L58.8 334.45 57.7 335.4 56.8 335.35 Q56.55 335.35 56.55 334.35 L56.65 333.25 56.7 333.35 57.45 333.3 58.5 333.45 M58.15 324.05 Q57.65 324.7 56.4 325.1 55.65 324.75 55.25 324.25 55.55 322.55 56.7 322.55 57.7 323.15 58.15 324.05 M63.55 325.25 L65.0 325.75 65.25 326.7 Q64.8 327.55 63.55 327.85 L62.25 327.05 Q62.25 326.6 62.6 326.1 62.95 325.45 63.55 325.25 M22.8 302.65 Q22.8 299.95 20.9 299.95 19.0 299.9 19.0 302.75 L19.05 304.35 Q19.35 305.75 20.85 305.75 L22.2 305.45 22.6 305.1 22.8 302.65 M26.1 300.35 Q25.4 300.55 25.4 300.85 L26.05 301.3 26.85 300.7 27.05 300.45 26.1 300.35 M20.05 344.2 Q19.65 345.0 19.65 345.7 L20.85 346.55 22.4 346.05 22.75 345.05 20.85 343.3 Q20.45 343.4 20.05 344.2 M17.7 326.05 L18.7 325.75 19.15 324.45 Q18.55 323.5 17.7 323.15 L16.75 323.3 Q16.25 323.5 16.25 324.5 16.25 325.55 16.6 325.8 L17.7 326.05 M39.95 316.15 L39.0 315.75 Q36.9 317.2 36.9 318.6 36.9 319.35 38.35 320.85 40.3 317.95 40.3 317.55 40.3 316.45 39.95 316.15 M38.65 313.8 L39.15 313.8 39.55 312.35 39.8 310.85 Q39.4 311.0 39.05 311.85 38.65 312.75 38.65 313.8" fill="#e1ecd1" fill-rule="evenodd" stroke="none"/>
      <path d="M72.0 16.75 L73.65 18.3 74.2 18.85 70.25 19.65 68.6 19.35 67.85 18.6 Q68.85 17.6 72.0 16.75 M25.1 35.9 Q29.15 32.35 32.1 32.35 30.4 35.05 27.3 38.5 L27.25 38.35 27.15 38.0 27.05 37.85 25.1 35.9 M35.65 310.65 L35.45 314.85 Q30.5 307.7 29.0 302.1 L29.5 301.95 Q30.65 305.35 35.65 310.65 M53.9 208.25 L54.05 205.1 54.3 200.35 54.3 200.2 54.4 198.75 54.95 188.65 55.0 188.05 55.0 187.9 55.65 185.4 Q63.15 158.35 63.7 155.5 62.9 160.75 59.7 174.45 57.5 183.75 57.5 191.75 57.5 192.8 54.1 207.35 L53.9 208.25 M42.95 27.3 Q40.8 29.85 40.3 29.9 L39.85 29.7 39.0 29.15 Q39.25 27.95 40.35 26.95 41.2 26.2 41.6 26.1 42.85 26.65 42.95 27.3 M69.8 40.85 L69.7 41.25 69.6 42.35 Q69.3 42.35 68.0 43.15 L66.8 42.75 Q66.35 42.45 66.35 41.35 66.35 40.75 67.35 40.0 68.45 39.15 69.45 39.4 L69.8 40.85 M66.7 71.5 L65.5 71.4 65.05 70.85 Q66.55 68.65 67.65 68.65 L68.15 68.75 68.3 69.8 Q68.3 71.4 68.0 71.0 L67.75 71.25 66.7 71.5 M59.2 56.2 Q60.15 55.6 61.1 55.6 61.1 56.3 60.7 57.0 L59.65 58.0 Q58.5 57.85 58.0 57.35 58.45 56.65 59.2 56.2 M58.0 96.2 L58.35 96.1 Q58.65 96.15 58.65 97.2 58.65 98.1 57.95 99.3 57.25 100.55 56.4 101.1 L55.35 100.65 Q55.0 100.35 55.0 99.3 55.0 98.2 55.85 97.0 56.8 95.6 58.0 96.2 M66.95 79.9 L67.2 81.0 65.9 82.7 64.1 84.25 63.0 84.0 Q62.65 83.75 62.65 82.7 62.65 82.4 64.0 81.25 L66.05 79.7 66.95 79.9 M64.1 122.75 Q65.65 123.35 65.7 124.55 L65.35 124.95 Q64.8 125.35 63.75 125.35 L62.55 125.15 62.45 125.15 Q62.25 125.1 62.25 124.05 62.25 123.05 62.95 122.9 L64.1 122.75 M67.35 111.3 Q66.4 110.95 65.65 110.0 L65.85 109.7 66.05 109.35 Q67.0 109.65 67.85 110.5 L67.35 111.3 M53.55 124.9 Q54.8 122.7 55.9 121.95 55.25 123.75 53.95 124.9 L53.55 124.9 M62.4 130.15 Q64.3 130.15 67.35 132.95 L67.1 133.85 Q66.75 134.4 65.7 134.4 63.85 134.4 62.9 132.95 62.25 132.0 62.25 131.2 L62.35 130.1 62.4 130.15 M73.35 158.8 L73.45 160.15 Q73.45 162.05 71.9 162.75 L70.7 161.05 69.95 159.5 Q69.95 158.7 70.95 158.3 72.0 157.85 73.2 158.3 L73.35 158.8 M57.5 228.55 Q56.35 230.2 55.75 230.25 L54.9 230.0 Q54.6 229.75 54.6 228.7 54.6 227.1 57.2 227.1 L57.5 228.55 M32.15 220.35 Q33.25 219.7 34.85 220.05 L35.5 220.9 34.0 222.45 Q32.9 223.45 32.55 223.5 L31.45 223.25 Q31.1 223.05 31.1 222.0 31.1 220.9 32.15 220.35 M45.75 256.1 L46.1 256.0 Q46.4 256.05 46.4 257.1 L45.7 258.0 44.2 259.35 43.15 259.05 42.95 258.2 Q43.35 257.55 44.2 256.85 45.15 256.1 45.75 256.1 M46.85 263.8 L46.85 264.8 45.4 265.15 43.8 265.45 44.9 264.25 Q45.4 263.95 46.85 263.8 M55.1 265.35 Q55.1 264.0 56.25 263.45 L58.5 262.5 58.65 262.3 58.8 263.25 57.95 264.8 56.4 266.4 Q55.9 266.25 55.4 266.4 55.1 266.35 55.1 265.35 M68.3 295.45 Q69.95 295.95 73.45 298.45 72.65 299.35 72.2 301.2 L68.3 295.6 68.3 295.45 M35.7 353.1 L36.4 351.7 Q39.0 346.7 41.0 345.05 L41.15 345.6 41.25 347.0 Q41.25 348.15 37.75 353.25 L35.85 355.95 35.6 354.75 35.7 353.1" fill="#bbd59f" fill-rule="evenodd" stroke="none"/>
      <path d="M50.7 22.65 L50.25 22.65 47.35 22.7 47.15 22.7 Q51.15 20.3 54.0 20.05 L54.2 20.5 50.7 22.65 M44.85 22.9 L36.45 24.1 36.6 24.25 35.6 24.6 35.3 24.65 31.75 25.5 31.65 25.55 31.55 25.6 31.45 25.6 31.3 25.65 31.2 25.7 31.05 25.75 29.8 26.3 38.45 19.4 46.45 13.2 54.55 7.05 54.65 7.8 Q54.65 8.95 49.45 14.75 L45.7 18.5 Q47.45 17.7 48.0 17.7 L50.75 18.2 51.1 19.2 Q50.55 20.05 47.8 20.6 45.3 21.05 44.9 22.5 L44.85 22.9 M9.1 348.15 L9.25 342.45 9.55 336.7 10.2 336.45 11.2 317.45 13.15 313.45 14.6 312.65 13.7 312.35 15.55 308.35 15.85 307.7 Q18.85 308.15 18.85 310.3 L18.85 310.35 19.75 308.65 Q20.95 305.6 23.65 305.1 23.45 306.0 22.05 308.0 20.8 309.75 20.8 310.85 20.8 311.7 21.45 312.95 22.1 314.2 22.1 315.0 22.1 316.55 19.45 317.85 17.3 318.9 14.8 319.3 L15.2 319.9 15.45 321.45 Q15.45 322.2 14.6 323.45 L13.4 325.1 15.5 327.45 Q16.55 328.65 16.55 329.8 16.55 330.65 15.05 332.45 L13.5 334.25 Q13.5 335.1 14.15 336.2 L14.7 337.45 15.75 336.2 Q17.15 334.1 20.35 330.85 23.75 327.35 24.95 327.05 22.55 329.9 20.35 336.25 18.2 342.55 15.45 345.7 16.6 347.5 18.95 349.25 20.65 350.55 20.65 351.5 L20.2 353.35 17.5 352.25 Q12.7 350.2 9.1 348.15 M29.8 76.15 L28.55 76.15 28.55 76.1 28.4 76.15 27.6 76.15 Q26.2 77.4 24.3 77.7 L23.95 77.5 23.95 77.25 Q24.0 76.4 23.6 75.5 L23.65 74.95 Q23.65 74.6 24.25 74.0 L24.85 65.55 25.55 55.65 Q26.15 54.5 27.05 53.6 28.9 51.65 31.9 50.7 L32.35 51.6 32.15 51.1 32.85 50.4 35.65 49.8 Q43.0 51.4 46.05 59.5 43.2 59.45 41.5 57.3 39.75 55.1 35.5 55.1 L32.1 55.25 31.7 55.9 31.6 57.35 Q31.6 57.85 32.3 58.65 L33.55 60.15 Q31.65 60.35 29.65 61.4 L29.05 61.7 29.15 61.85 Q30.6 64.05 30.6 65.35 30.6 66.6 29.4 67.95 27.8 69.8 24.7 70.2 24.75 73.1 27.25 73.4 29.8 73.7 29.8 75.8 L29.8 76.15 M34.95 357.5 L36.3 332.4 36.05 331.85 36.2 329.05 39.15 323.8 39.5 325.5 Q38.95 328.05 37.3 340.05 L35.7 353.1 35.6 354.75 35.85 355.95 36.35 357.4 36.5 357.75 34.95 357.5 M42.85 195.75 L44.05 173.7 Q45.1 177.6 45.1 179.55 L44.7 187.45 Q44.3 195.05 44.45 198.9 L43.85 199.05 42.85 195.75 M45.35 151.8 L47.15 117.65 47.75 121.15 Q48.65 125.2 48.65 131.85 48.65 137.6 45.8 149.8 L45.35 151.8 M47.75 106.65 L48.2 97.7 48.25 94.3 Q49.8 97.65 49.8 98.7 L48.35 104.25 47.75 106.65 M49.5 79.1 L49.55 78.9 49.55 78.7 49.55 78.15 49.8 71.5 49.8 71.3 Q49.7 62.7 46.5 57.3 L46.85 55.9 Q46.85 54.75 44.75 53.85 L42.95 53.0 Q41.25 51.55 39.15 50.55 L39.0 50.4 39.65 49.3 41.85 49.15 45.25 49.45 49.3 49.4 49.1 50.45 48.65 53.05 Q48.65 53.8 49.95 55.75 51.25 57.75 51.25 58.6 51.25 59.4 50.6 60.55 49.95 61.65 49.95 62.5 49.95 63.3 50.7 66.6 L51.4 70.7 Q51.4 74.05 49.5 79.45 L49.5 79.1 M45.85 14.45 Q45.5 14.55 45.35 14.95 L44.85 15.45 Q45.75 15.45 46.8 14.65 L47.45 14.3 45.85 14.45 M56.4 14.7 L56.15 15.95 56.25 16.2 55.1 16.4 54.05 16.2 53.8 15.6 Q53.8 14.9 54.2 14.1 54.6 13.3 55.1 13.15 55.65 13.4 56.05 13.95 L56.4 14.7 M46.4 40.15 Q46.4 41.75 46.2 40.85 45.9 41.6 44.85 41.85 L43.65 41.45 Q43.2 41.15 43.2 40.05 43.2 38.4 45.55 38.9 L46.2 39.1 Q46.4 39.15 46.4 40.15 M30.1 38.15 L30.55 37.9 Q32.65 39.0 33.35 41.05 L37.85 40.7 38.1 41.05 34.25 43.5 33.75 43.8 34.95 43.55 37.05 43.15 Q38.2 43.15 39.0 43.85 L40.8 45.4 41.0 44.85 Q41.25 44.3 42.25 44.3 L46.15 44.75 46.3 44.95 46.4 46.0 46.35 46.6 44.05 46.65 Q36.9 46.35 31.3 47.7 29.9 48.05 28.7 48.5 29.0 47.4 29.15 44.5 29.3 41.55 29.1 40.9 28.9 40.0 28.25 39.45 L28.6 39.15 30.1 38.15 M37.2 57.35 L37.7 58.25 Q37.45 59.2 36.4 59.55 L35.5 59.45 Q35.15 59.35 35.15 58.35 35.15 57.3 35.9 57.2 L37.2 57.35 M36.45 66.1 Q36.65 66.15 36.65 67.2 L36.5 68.1 Q36.3 68.1 36.25 68.4 L36.1 68.6 34.85 68.8 Q33.2 68.8 33.55 68.4 L33.15 68.25 33.05 67.2 Q33.05 66.3 34.05 66.0 L36.25 66.2 36.45 66.1 M20.6 293.7 L17.1 300.5 16.7 301.25 15.2 303.3 13.85 303.05 13.7 302.0 13.65 298.45 14.15 298.0 17.0 294.15 17.45 293.3 17.9 292.35 19.4 292.25 Q20.4 292.5 20.6 293.7 M25.75 87.05 Q26.1 88.8 26.25 92.2 23.5 92.95 23.0 96.7 L22.7 98.3 22.65 98.65 23.2 88.3 23.5 87.3 23.9 87.3 24.75 87.35 24.85 87.35 25.25 87.2 25.55 87.15 25.75 87.05 M20.65 132.05 Q21.95 134.2 21.95 136.6 21.95 137.75 20.3 143.25 L20.3 142.75 20.45 137.8 20.65 132.05 M18.4 181.15 Q19.15 182.2 20.25 182.7 L20.2 182.7 Q19.1 183.15 18.3 183.55 L18.4 181.15 M17.6 196.7 L17.7 197.3 Q19.5 206.55 19.5 210.1 19.5 211.55 16.85 215.6 L16.55 216.05 17.6 196.7 M16.05 225.9 Q17.95 230.65 17.95 236.75 17.95 244.0 17.1 245.45 16.25 246.95 16.25 254.4 L15.55 257.55 Q14.8 259.85 14.8 260.65 14.8 263.8 16.4 266.2 17.95 268.55 17.95 269.45 17.95 270.7 17.05 271.85 16.0 273.2 14.55 273.35 15.45 275.55 15.45 279.1 L15.45 282.35 15.45 282.4 15.1 283.0 14.5 284.1 14.35 284.35 14.25 284.55 14.2 284.6 12.9 284.95 16.05 225.9 M23.35 171.9 L23.3 171.6 23.35 171.8 23.35 171.9 M39.95 92.45 Q41.55 92.6 42.4 94.35 42.9 95.3 43.4 97.2 L42.85 97.9 42.25 98.5 Q39.8 95.7 39.8 93.75 L39.95 92.45 M46.0 50.6 L44.2 50.6 45.1 51.2 46.0 51.35 46.0 50.6 M43.55 61.5 Q43.3 62.35 42.25 62.8 L40.95 62.0 Q40.95 61.6 41.3 61.05 41.7 60.45 42.25 60.2 43.3 60.75 43.55 61.5 M42.8 116.5 Q43.2 116.7 43.2 117.65 43.2 118.65 42.9 119.05 L42.55 119.5 41.9 119.75 41.4 118.25 40.6 116.85 Q41.05 116.2 41.9 116.2 L42.8 116.5 M25.0 124.85 L25.2 126.45 24.75 128.6 24.6 130.65 23.95 129.7 21.6 126.1 21.7 126.25 22.8 126.5 25.15 122.7 25.0 124.85 M41.9 289.0 L42.5 289.5 42.75 290.9 42.3 292.5 40.95 294.45 40.5 293.4 40.3 291.75 Q40.3 291.25 40.6 290.5 41.05 289.4 41.9 289.0 M26.1 300.35 L27.05 300.45 26.85 300.7 26.05 301.3 25.4 300.85 Q25.4 300.55 26.1 300.35 M22.8 302.65 L22.6 305.1 22.2 305.45 20.85 305.75 Q19.35 305.75 19.05 304.35 L19.0 302.75 Q19.0 299.9 20.9 299.95 22.8 299.95 22.8 302.65 M38.65 313.8 Q38.65 312.75 39.05 311.85 39.4 311.0 39.8 310.85 L39.55 312.35 39.15 313.8 38.65 313.8 M39.95 316.15 Q40.3 316.45 40.3 317.55 40.3 317.95 38.35 320.85 36.9 319.35 36.9 318.6 36.9 317.2 39.0 315.75 L39.95 316.15 M17.7 326.05 L16.6 325.8 Q16.25 325.55 16.25 324.5 16.25 323.5 16.75 323.3 L17.7 323.15 Q18.55 323.5 19.15 324.45 L18.7 325.75 17.7 326.05 M20.05 344.2 Q20.45 343.4 20.85 343.3 L22.75 345.05 22.4 346.05 20.85 346.55 19.65 345.7 Q19.65 345.0 20.05 344.2" fill="#f4f8e7" fill-rule="evenodd" stroke="none"/>
      <path d="M5.65 346.0 L9.1 348.15 Q12.7 350.2 17.5 352.25 L20.2 353.35 Q26.9 355.95 33.05 357.15 L34.95 357.5 36.5 357.75 42.9 358.15 44.65 358.15 46.65 358.15 58.65 357.9 71.05 356.9 74.7 356.05 75.2 355.85 Q76.85 355.15 77.45 353.8 78.1 352.5 79.3 352.0 L79.9 352.25 Q80.1 352.55 80.1 353.6 80.1 357.3 74.5 358.9 L73.15 359.25 70.95 359.7 46.4 361.1 44.6 361.1 40.95 361.1 34.65 360.8 32.95 360.6 Q22.0 359.1 12.3 353.55 L8.95 351.5 5.5 348.95 Q0.55 344.9 0.0 341.15 L0.5 341.15 Q2.25 343.6 5.65 346.0" fill="#f0c942" fill-rule="evenodd" stroke="none"/>
    </g>
    <g id="sprite1" transform="matrix(1.0, 0.0, 0.0, 1.0, 0.0, 0.0)">
      <use ffdec:characterId="149" height="41.2" transform="matrix(1.0, 0.0, 0.0, 1.0, 0.0, 0.0)" width="327.85" xlink:href="#shape2"/>
    </g>
    <g id="shape2" transform="matrix(1.0, 0.0, 0.0, 1.0, 0.0, 0.0)">
      <path d="M306.3 23.95 L304.9 22.75 295.6 19.35 Q281.2 14.1 279.35 13.6 L262.7 7.0 Q256.5 4.5 251.4 3.5 L251.45 3.9 Q251.35 4.3 250.35 4.3 L242.4 3.0 214.3 3.15 213.8 3.15 209.7 3.5 205.95 3.55 204.65 4.4 Q203.4 5.1 202.8 5.2 202.55 4.45 202.55 6.05 202.55 6.3 203.5 7.2 L210.0 12.75 218.85 20.15 Q220.2 21.75 227.6 23.4 L234.9 24.75 259.8 28.15 Q259.8 28.35 260.9 28.65 L261.6 28.9 263.9 28.7 298.05 28.35 309.3 26.5 313.2 26.15 311.3 25.6 Q307.45 24.6 306.3 23.95 M4.7 29.9 L4.5 29.4 Q4.5 27.7 15.5 23.15 21.65 20.65 26.85 19.0 33.3 15.55 43.85 10.55 52.35 6.5 58.4 4.05 L65.25 4.05 66.7 3.65 105.9 3.4 112.05 2.75 135.55 2.75 152.2 2.25 159.45 1.55 204.65 1.15 206.45 0.9 242.45 0.5 246.7 0.2 250.35 0.0 Q259.8 3.4 283.1 10.65 300.35 16.4 308.3 21.1 L309.85 21.55 Q316.5 23.45 320.15 25.6 L320.15 30.1 317.65 31.0 317.2 30.25 317.05 28.8 316.85 28.25 Q313.0 29.55 306.95 29.2 298.5 28.8 297.4 29.35 L290.8 29.45 280.5 29.55 Q263.5 29.8 263.25 30.0 L261.3 29.95 260.9 32.75 260.8 33.1 Q260.3 35.4 260.3 36.2 L260.3 36.55 Q260.25 37.3 259.95 37.3 L258.85 36.85 258.9 36.55 259.2 33.2 259.2 32.8 259.3 29.9 238.1 28.85 208.25 28.85 189.9 29.65 189.1 30.5 172.6 31.05 162.7 31.45 159.3 31.45 159.3 31.5 Q159.25 32.05 158.1 32.15 L157.45 31.85 157.05 33.5 156.95 33.7 Q156.45 34.85 156.45 35.55 L156.0 35.9 155.0 33.5 Q154.7 32.45 154.7 31.5 L154.7 31.45 141.85 31.25 Q124.85 31.0 124.55 30.8 L102.95 30.5 98.2 30.0 93.6 29.5 88.6 29.3 83.6 28.7 88.95 28.8 90.1 28.85 94.2 29.2 94.25 29.2 94.85 29.25 98.35 29.4 102.95 29.85 125.2 30.5 154.95 30.5 155.05 30.4 155.35 26.3 155.65 18.5 156.1 18.5 156.25 9.6 156.3 5.3 153.3 5.8 Q143.9 6.95 122.7 5.8 L107.6 5.85 Q111.1 7.35 115.2 9.95 L114.7 10.4 109.3 15.15 Q105.1 18.8 102.05 19.8 L112.85 10.4 113.4 9.95 113.55 9.65 105.6 6.7 103.25 5.85 71.1 5.95 60.85 6.25 58.9 6.35 Q53.7 8.2 47.8 10.85 L33.8 17.5 29.55 19.5 23.3 23.1 Q17.55 26.15 7.9 29.0 L8.3 29.8 Q11.0 28.1 18.05 28.8 L25.3 29.85 45.25 29.85 55.05 29.4 70.8 29.25 Q71.2 28.95 72.15 28.5 L72.25 28.65 72.9 28.4 Q75.35 27.65 79.35 27.15 L88.3 25.9 88.7 25.75 94.7 22.6 Q100.35 19.8 102.7 19.8 100.75 22.95 93.05 25.75 L91.9 26.15 Q87.15 27.75 83.4 28.4 L79.05 28.8 78.7 28.85 77.25 29.05 75.1 29.45 73.3 29.8 73.3 30.0 72.9 30.0 73.55 32.0 73.6 32.3 Q74.55 35.5 74.55 36.6 L74.5 37.9 74.25 38.35 73.75 38.35 72.45 33.95 71.7 32.05 70.75 30.1 70.2 30.05 69.5 30.05 61.25 30.15 54.1 30.3 44.6 30.65 25.3 30.8 22.45 30.95 15.95 30.35 9.2 30.0 8.35 29.9 9.05 30.95 9.15 31.05 4.7 29.9 M247.25 29.2 L259.9 29.0 237.75 26.05 224.4 23.4 Q219.35 22.05 218.2 20.8 215.55 17.95 210.0 13.45 205.25 9.6 201.55 7.25 L200.0 6.25 Q200.9 5.55 203.9 4.0 L204.8 3.55 202.85 3.55 197.65 3.8 182.65 4.15 165.3 4.3 159.2 4.8 156.95 5.2 157.05 9.5 157.0 17.0 Q157.1 22.2 157.9 26.3 158.3 28.55 158.95 30.5 L175.4 29.45 190.2 28.55 206.65 28.55 209.05 28.05 237.45 28.05 247.25 29.2" fill="#afbd93" fill-rule="evenodd" stroke="none"/>
      <path d="M306.3 23.95 Q307.45 24.6 311.3 25.6 L313.2 26.15 309.3 26.5 298.05 28.35 263.9 28.7 261.6 28.9 260.9 28.65 Q259.8 28.35 259.8 28.15 L234.9 24.75 227.6 23.4 Q220.2 21.75 218.85 20.15 L210.0 12.75 203.5 7.2 Q202.55 6.3 202.55 6.05 202.55 4.45 202.8 5.2 203.4 5.1 204.65 4.4 L205.95 3.55 209.7 3.5 213.8 3.15 214.3 3.15 242.4 3.0 250.35 4.3 Q251.35 4.3 251.45 3.9 L251.4 3.5 Q256.5 4.5 262.7 7.0 L279.35 13.6 Q281.2 14.1 295.6 19.35 L304.9 22.75 306.3 23.95 M83.4 28.4 Q87.15 27.75 91.9 26.15 L93.05 25.75 Q100.75 22.95 102.7 19.8 100.35 19.8 94.7 22.6 L88.7 25.75 88.3 25.9 79.35 27.15 Q75.35 27.65 72.9 28.4 L57.25 28.4 55.05 29.4 45.25 29.85 25.3 29.85 18.05 28.8 Q11.0 28.1 8.3 29.8 L7.9 29.0 Q17.55 26.15 23.3 23.1 L29.55 19.5 33.8 17.5 47.8 10.85 Q53.7 8.2 58.9 6.35 L60.85 6.25 71.1 5.95 103.25 5.85 105.6 6.7 113.55 9.65 113.4 9.95 112.85 10.4 102.05 19.8 Q105.1 18.8 109.3 15.15 L114.7 10.4 115.2 9.95 Q111.1 7.35 107.6 5.85 L122.7 5.8 Q143.9 6.95 153.3 5.8 L156.3 5.3 156.25 9.6 156.1 18.5 155.65 18.5 155.35 26.3 155.05 30.4 154.95 30.5 125.2 30.5 102.95 29.85 98.35 29.4 94.85 29.25 94.2 29.2 90.1 28.85 83.4 28.4 M294.9 22.65 Q292.15 20.45 274.55 14.3 L252.0 6.55 234.0 6.55 232.05 6.05 215.3 6.05 209.85 6.6 209.85 6.95 Q209.85 14.95 236.15 20.65 L249.7 23.3 250.05 23.3 264.3 24.25 288.65 24.25 Q294.55 23.05 294.9 22.65 M247.25 29.2 L237.45 28.05 209.05 28.05 206.65 28.55 190.2 28.55 175.4 29.45 158.95 30.5 Q158.3 28.55 157.9 26.3 157.1 22.2 157.0 17.0 L157.05 9.5 156.95 5.2 159.2 4.8 165.3 4.3 182.65 4.15 197.65 3.8 202.85 3.55 204.8 3.55 203.9 4.0 Q200.9 5.55 200.0 6.25 L201.55 7.25 Q205.25 9.6 210.0 13.45 215.55 17.95 218.2 20.8 219.35 22.05 224.4 23.4 L237.75 26.05 259.9 29.0 247.25 29.2 M213.8 22.85 Q214.4 21.85 215.6 21.75 211.95 19.4 203.9 12.95 199.9 9.7 194.65 7.3 L186.95 7.35 170.35 8.5 161.05 9.15 160.2 9.95 Q159.15 11.2 158.95 13.35 L158.9 17.2 Q158.9 18.0 159.25 19.75 L159.55 22.55 159.55 22.95 Q159.9 22.95 160.55 22.1 L166.1 24.7 Q167.1 25.15 167.55 25.8 L197.25 23.45 213.55 23.4 213.8 22.85 M153.05 13.65 Q153.05 11.35 152.75 10.8 L151.45 9.8 136.65 9.9 134.7 10.4 118.85 10.4 110.55 17.85 100.8 25.8 135.35 26.05 136.65 26.3 142.2 26.3 Q142.55 25.8 143.25 25.6 L146.35 25.3 Q151.2 24.85 152.3 20.45 153.05 17.55 153.05 13.65 M101.8 10.4 L99.9 9.9 70.2 9.75 64.4 9.1 Q54.45 9.1 42.8 15.9 36.75 19.45 30.2 24.45 L31.65 25.9 45.7 25.4 74.75 25.4 76.05 25.65 81.95 25.7 Q82.95 24.3 88.15 21.65 96.5 17.35 100.95 13.3 102.25 12.15 103.45 10.4 L101.8 10.4 M86.5 25.75 L87.05 25.75 87.0 25.55 86.5 25.75" fill="#f4f8e7" fill-rule="evenodd" stroke="none"/>
      <path d="M9.15 31.05 L9.05 30.95 8.35 29.9 9.2 30.0 15.95 30.35 22.45 30.95 25.3 30.8 44.6 30.65 54.1 30.3 61.25 30.15 69.5 30.05 70.2 30.05 70.75 30.1 71.7 32.05 42.6 33.55 29.15 34.75 29.1 34.75 28.5 34.7 26.75 34.5 26.2 34.45 25.95 34.4 Q20.55 33.85 10.5 31.4 L9.15 31.05 M73.55 32.0 L72.9 30.0 73.3 30.0 73.3 29.8 75.1 29.45 77.25 29.05 77.2 29.2 Q78.5 29.5 78.5 29.85 L85.35 30.0 85.55 29.85 78.7 28.85 79.05 28.8 83.4 28.4 90.1 28.85 88.95 28.8 83.6 28.7 88.6 29.3 93.6 29.5 98.2 30.0 102.95 30.5 124.55 30.8 Q124.85 31.0 141.85 31.25 L154.7 31.45 154.7 31.5 Q154.7 32.45 155.0 33.5 L146.3 33.6 145.0 33.95 124.55 34.25 116.9 34.6 Q101.4 34.6 94.35 33.3 87.3 32.0 75.55 32.0 L73.55 32.0 M72.9 28.4 L72.25 28.65 72.15 28.5 Q71.2 28.95 70.8 29.25 L55.05 29.4 57.25 28.4 72.9 28.4 M157.05 33.5 L157.45 31.85 158.1 32.15 Q159.25 32.05 159.3 31.5 L159.3 31.45 162.7 31.45 172.6 31.05 189.1 30.5 189.9 29.65 208.25 28.85 238.1 28.85 259.3 29.9 259.2 32.8 246.9 32.95 245.6 33.3 188.15 33.3 179.4 33.05 170.75 33.3 157.05 33.5 M260.9 32.75 L261.3 29.95 263.25 30.0 Q263.5 29.8 280.5 29.55 L290.8 29.45 297.4 29.35 Q298.5 28.8 306.95 29.2 313.0 29.55 316.85 28.25 L317.05 28.8 317.2 30.25 317.65 31.0 312.5 32.6 310.75 33.0 310.65 33.0 310.1 32.3 268.9 32.3 267.45 32.65 260.9 32.75 M294.9 22.65 Q294.55 23.05 288.65 24.25 L264.3 24.25 250.05 23.3 249.7 23.3 236.15 20.65 Q209.85 14.95 209.85 6.95 L209.85 6.6 215.3 6.05 232.05 6.05 234.0 6.55 252.0 6.55 274.55 14.3 Q292.15 20.45 294.9 22.65 M213.8 22.85 L213.55 23.4 197.25 23.45 167.55 25.8 Q167.1 25.15 166.1 24.7 L160.55 22.1 Q159.9 22.95 159.55 22.95 L159.55 22.55 159.25 19.75 Q158.9 18.0 158.9 17.2 L158.95 13.35 Q159.15 11.2 160.2 9.95 L161.05 9.15 170.35 8.5 186.95 7.35 194.65 7.3 Q199.9 9.7 203.9 12.95 211.95 19.4 215.6 21.75 214.4 21.85 213.8 22.85 M153.05 13.65 Q153.05 17.55 152.3 20.45 151.2 24.85 146.35 25.3 L143.25 25.6 Q142.55 25.8 142.2 26.3 L136.65 26.3 135.35 26.05 100.8 25.8 110.55 17.85 118.85 10.4 134.7 10.4 136.65 9.9 151.45 9.8 152.75 10.8 Q153.05 11.35 153.05 13.65 M101.8 10.4 L103.45 10.4 Q102.25 12.15 100.95 13.3 96.5 17.35 88.15 21.65 82.95 24.3 81.95 25.7 L76.05 25.65 74.75 25.4 45.7 25.4 31.65 25.9 30.2 24.45 Q36.75 19.45 42.8 15.9 54.45 9.1 64.4 9.1 L70.2 9.75 99.9 9.9 101.8 10.4 M86.5 25.75 L87.0 25.55 87.05 25.75 86.5 25.75" fill="#e1ecd1" fill-rule="evenodd" stroke="none"/>
      <path d="M4.7 29.9 L9.15 31.05 10.5 31.4 Q20.55 33.85 25.95 34.4 L26.2 34.45 26.75 34.5 28.5 34.7 29.1 34.75 29.15 34.75 45.9 37.05 78.2 38.7 103.0 39.5 Q124.45 39.6 136.2 36.25 L167.15 36.1 Q168.5 35.7 184.85 35.9 L205.6 36.55 258.9 36.55 258.85 36.85 259.95 37.3 Q260.25 37.3 260.3 36.55 L279.05 36.55 Q302.15 34.7 310.65 33.0 L310.75 33.0 312.5 32.6 317.65 31.0 320.15 30.1 327.85 26.9 Q327.35 34.9 278.7 39.15 L205.8 39.15 204.95 38.85 185.2 38.5 Q184.2 38.2 168.45 38.05 L166.5 38.5 135.4 38.85 78.5 41.2 Q42.05 41.2 21.0 37.2 14.25 35.9 9.4 34.3 L6.4 33.2 Q2.25 31.5 0.0 29.5 L0.2 29.2 1.45 29.0 4.7 29.9" fill="#f0c942" fill-rule="evenodd" stroke="none"/>
      <path d="M71.7 32.05 L72.45 33.95 73.75 38.35 74.25 38.35 74.5 37.9 74.55 36.6 Q74.55 35.5 73.6 32.3 L73.55 32.0 75.55 32.0 Q87.3 32.0 94.35 33.3 101.4 34.6 116.9 34.6 L124.55 34.25 145.0 33.95 146.3 33.6 155.0 33.5 156.0 35.9 156.45 35.55 Q156.45 34.85 156.95 33.7 L157.05 33.5 170.75 33.3 179.4 33.05 188.15 33.3 245.6 33.3 246.9 32.95 259.2 32.8 259.2 33.2 258.9 36.55 205.6 36.55 184.85 35.9 Q168.5 35.7 167.15 36.1 L136.2 36.25 Q124.45 39.6 103.0 39.5 L78.2 38.7 45.9 37.05 29.15 34.75 42.6 33.55 71.7 32.05 M94.85 29.25 L94.25 29.2 94.2 29.2 94.85 29.25 M260.3 36.55 L260.3 36.2 Q260.3 35.4 260.8 33.1 L260.9 32.75 267.45 32.65 268.9 32.3 310.1 32.3 310.65 33.0 Q302.15 34.7 279.05 36.55 L260.3 36.55" fill="#cee0ba" fill-rule="evenodd" stroke="none"/>
    </g>
  </defs>
</svg>
