<?xml version="1.0" encoding="UTF-8" standalone="no"?>
<svg xmlns:ffdec="https://www.free-decompiler.com/flash" xmlns:xlink="http://www.w3.org/1999/xlink" ffdec:objectType="frame" height="194.8px" width="124.8px" xmlns="http://www.w3.org/2000/svg">
  <g transform="matrix(1.0, 0.0, 0.0, 1.0, -26.9, 62.5)">
    <use ffdec:characterId="871" height="194.8" transform="matrix(1.0, 0.0, 0.0, 1.0, 26.9, -62.5)" width="124.8" xlink:href="#shape0"/>
  </g>
  <defs>
    <g id="shape0" transform="matrix(1.0, 0.0, 0.0, 1.0, -26.9, 62.5)">
      <path d="M27.75 -62.5 Q31.65 -57.95 35.85 -55.1 38.55 -53.25 44.45 -50.4 59.3 -43.25 71.8 -33.85 L69.1 -33.7 66.9 -33.8 Q54.9 -35.65 51.55 -36.85 43.05 -39.7 35.25 -47.15 26.85 -55.15 26.9 -61.1 L26.95 -61.3 Q26.85 -62.35 27.2 -62.5 L27.75 -62.5 M37.8 -51.3 Q36.7 -51.8 34.55 -52.85 31.45 -54.35 31.1 -54.1 33.05 -52.45 40.2 -44.95 45.0 -39.95 48.95 -38.55 L52.75 -37.8 Q54.3 -38.1 54.35 -40.0 54.35 -43.1 47.9 -46.7 L43.9 -48.75 43.7 -48.9 39.35 -50.65 38.75 -50.85 38.65 -50.9 37.8 -51.3 M120.35 -16.0 L118.0 -17.8 Q128.25 -18.7 139.55 -16.4 L145.7 -15.55 Q148.45 -15.65 151.15 -17.2 L151.45 -16.95 151.7 -15.65 Q151.65 -10.9 146.0 -8.65 140.45 -6.7 134.3 -8.7 131.6 -9.6 122.15 -14.85 L120.35 -16.0 M132.1 -13.05 Q132.1 -11.35 133.3 -10.25 134.1 -9.5 136.2 -8.8 139.0 -7.9 142.5 -9.5 147.4 -12.0 148.95 -12.2 148.6 -12.6 146.5 -12.95 L143.65 -13.65 137.05 -15.2 Q132.1 -15.75 132.1 -13.05" fill="#45482f" fill-rule="evenodd" stroke="none"/>
      <path d="M37.8 -51.3 L37.25 -51.4 36.95 -50.3 37.25 -49.35 Q38.55 -48.35 40.1 -47.85 41.1 -47.4 42.75 -47.3 L44.85 -47.4 44.1 -48.45 43.9 -48.75 47.9 -46.7 Q54.35 -43.1 54.35 -40.0 54.3 -38.1 52.75 -37.8 L48.95 -38.55 Q45.0 -39.95 40.2 -44.95 33.05 -52.45 31.1 -54.1 31.45 -54.35 34.55 -52.85 36.7 -51.8 37.8 -51.3 M132.1 -13.05 Q132.1 -15.75 137.05 -15.2 L143.65 -13.65 146.5 -12.95 Q148.6 -12.6 148.95 -12.2 147.4 -12.0 142.5 -9.5 139.0 -7.9 136.2 -8.8 134.1 -9.5 133.3 -10.25 132.1 -11.35 132.1 -13.05 M139.55 -14.25 L136.2 -14.5 138.8 -13.15 142.0 -12.25 144.25 -11.8 Q142.75 -13.75 139.55 -14.25" fill="#626734" fill-rule="evenodd" stroke="none"/>
      <path d="M43.9 -48.75 L44.1 -48.45 44.85 -47.4 42.75 -47.3 Q41.1 -47.4 40.1 -47.85 38.55 -48.35 37.25 -49.35 L36.95 -50.3 37.25 -51.4 37.8 -51.3 38.65 -50.9 38.75 -50.85 39.35 -50.65 43.7 -48.9 43.9 -48.75 M139.55 -14.25 Q142.75 -13.75 144.25 -11.8 L142.0 -12.25 138.8 -13.15 136.2 -14.5 139.55 -14.25 M92.5 49.7 L92.45 48.8 Q92.35 47.9 93.05 44.4 L93.6 40.05 Q93.55 39.1 93.8 37.8 L94.05 35.9 94.55 36.0 95.15 45.3 95.4 50.5 Q95.35 51.2 95.45 51.75 L95.45 51.85 95.45 51.9 95.45 52.0 95.45 52.1 94.45 55.0 Q93.6 56.7 94.6 59.4 L94.2 60.1 Q93.45 58.55 92.95 54.75 92.5 51.95 92.5 49.7 M95.05 16.4 Q96.0 19.55 96.1 23.8 96.0 28.6 94.9 31.05 L94.05 31.05 93.85 24.7 Q93.85 17.05 95.05 16.4" fill="#929555" fill-rule="evenodd" stroke="none"/>
      <path d="M92.5 49.7 L92.15 49.75 91.5 49.8 91.65 29.2 91.7 19.4 91.5 15.3 Q92.0 13.45 93.6 13.0 L97.3 14.05 97.3 14.25 Q96.6 15.35 96.6 17.5 96.6 18.4 97.2 19.85 97.75 21.2 97.75 22.1 L97.25 24.8 Q96.6 26.5 96.6 27.4 96.5 28.6 96.8 29.8 L97.4 29.7 Q97.5 27.95 97.75 27.3 L97.9 27.85 98.05 28.2 98.0 36.05 96.65 51.25 95.4 50.5 95.15 45.3 94.55 36.0 94.05 35.9 93.8 37.8 Q93.55 39.1 93.6 40.05 L93.05 44.4 Q92.35 47.9 92.45 48.8 L92.5 49.7 M95.05 16.4 Q93.85 17.05 93.85 24.7 L94.05 31.05 94.9 31.05 Q96.0 28.6 96.1 23.8 96.0 19.55 95.05 16.4" fill="#72774f" fill-rule="evenodd" stroke="none"/>
      <path d="M50.05 -21.4 L49.75 -26.95 Q49.7 -28.9 48.4 -32.75 47.2 -36.1 46.05 -38.0 L45.45 -38.2 Q44.8 -38.45 44.35 -38.85 43.45 -39.7 42.9 -41.45 42.45 -42.85 42.45 -44.1 42.45 -46.9 43.85 -49.75 44.95 -52.5 46.3 -50.3 L47.7 -50.4 Q49.9 -50.2 54.3 -48.0 L64.0 -42.95 Q91.25 -33.45 91.7 -33.55 119.9 -23.35 120.2 -23.0 L122.05 -22.45 124.1 -21.95 134.4 -18.55 134.4 -18.6 135.8 -18.1 135.9 -18.25 138.2 -17.45 Q139.25 -17.5 139.85 -14.55 140.4 -11.7 140.45 -8.4 140.4 -7.15 139.0 -6.9 L138.3 -6.95 137.65 -7.0 137.3 -7.05 137.15 -7.15 Q136.25 -6.2 135.45 -3.95 134.4 -1.3 134.4 0.35 L134.25 3.75 Q133.6 6.1 133.2 9.8 132.95 10.7 132.4 16.05 L131.55 26.0 131.55 24.95 Q131.55 23.65 132.7 11.8 L133.9 -2.0 133.75 -4.5 Q133.6 -6.05 133.75 -6.9 L133.85 -7.5 133.95 -8.05 135.0 -8.0 Q133.45 -8.7 131.8 -9.55 L139.1 -9.2 139.75 -9.8 139.75 -11.7 Q139.7 -12.5 139.1 -13.1 L138.7 -13.5 Q137.75 -14.55 136.85 -16.3 L136.85 -16.35 136.3 -16.7 135.55 -16.4 124.1 -20.25 123.75 -20.15 63.45 -41.5 46.5 -48.25 46.0 -48.05 44.8 -47.4 Q43.35 -46.7 43.35 -45.55 43.3 -42.75 45.2 -41.35 47.0 -40.0 55.45 -36.25 61.85 -33.9 62.0 -33.55 L58.5 -34.7 57.1 -35.2 57.1 -35.25 Q55.35 -35.9 55.15 -36.1 L55.1 -36.2 49.95 -37.45 50.2 -36.95 50.45 -36.25 50.65 -35.65 50.7 -32.1 50.45 -30.2 50.45 -29.25 Q50.35 -27.15 51.55 -15.3 L50.05 -21.4 M110.25 84.25 L105.65 79.35 98.9 72.9 Q96.1 69.9 96.15 68.8 L96.15 68.05 96.05 65.7 95.85 62.9 95.8 62.8 95.55 62.55 95.3 62.45 94.75 62.2 94.2 62.15 93.9 62.15 93.7 62.45 Q93.65 62.4 93.6 62.5 93.45 63.35 93.45 65.15 L93.2 67.55 93.3 68.25 Q93.25 69.4 90.35 71.3 L83.25 75.55 Q79.2 77.95 75.9 80.8 L75.05 80.15 74.95 80.2 Q77.15 78.55 80.2 76.75 L81.35 76.15 81.4 76.05 Q82.05 75.65 82.85 75.3 87.5 72.7 90.0 69.9 91.7 67.65 92.3 65.65 L92.5 64.85 Q92.3 63.2 92.4 61.7 L92.4 61.35 92.3 61.2 92.45 61.05 Q92.4 60.35 92.6 60.25 L93.35 60.15 93.45 60.05 94.75 60.3 95.0 60.3 96.1 60.55 96.25 60.7 Q96.65 60.8 96.9 61.15 L97.1 61.95 97.2 62.15 97.1 62.2 97.1 62.55 96.95 65.65 Q97.25 68.3 99.3 71.6 101.0 74.15 103.8 77.05 L106.1 79.25 108.95 82.0 109.35 82.4 111.2 84.25 110.25 84.25 M77.9 -28.75 L78.1 -28.75 78.25 -28.85 85.9 -25.85 90.1 -23.95 90.4 -23.55 91.05 -23.15 95.35 -22.15 104.4 -19.75 109.65 -17.65 114.8 -15.55 114.6 -15.55 102.45 -19.35 100.05 -19.75 96.4 -20.7 94.15 -21.2 Q93.35 -21.5 91.9 -22.25 90.2 -23.05 89.15 -23.8 L85.6 -25.4 Q81.55 -27.05 77.85 -28.05 L71.55 -30.2 Q65.1 -32.6 65.15 -32.8 L77.9 -28.75 M47.15 -48.85 L47.15 -48.8 48.25 -48.45 47.15 -48.85 M130.25 -9.85 L129.45 -10.0 126.25 -11.3 116.85 -15.25 125.6 -12.55 Q126.3 -13.05 128.05 -11.65 L130.25 -9.85" fill="#0d3c22" fill-rule="evenodd" stroke="none"/>
      <path d="M50.45 -30.2 L50.7 -32.1 50.65 -35.65 50.45 -36.25 50.2 -36.95 49.95 -37.45 55.1 -36.2 55.15 -36.1 53.6 -36.4 Q55.5 -31.65 55.7 -21.0 L55.55 -6.2 Q55.45 1.7 55.7 5.7 L54.35 -3.4 51.95 -15.6 Q50.8 -21.0 50.9 -26.95 51.2 -28.7 50.45 -30.2 M57.1 -35.2 L58.5 -34.7 62.0 -33.55 Q61.85 -33.9 55.45 -36.25 47.0 -40.0 45.2 -41.35 43.3 -42.75 43.35 -45.55 43.35 -46.7 44.8 -47.4 L46.0 -48.05 45.45 -47.2 Q44.55 -46.05 44.6 -45.2 44.55 -44.1 44.65 -43.5 L44.75 -43.15 Q51.7 -39.95 62.35 -35.5 75.35 -30.05 81.9 -27.85 98.85 -22.1 105.0 -21.05 110.85 -20.05 133.2 -12.25 L134.95 -12.0 137.95 -11.5 138.7 -13.5 139.1 -13.1 Q139.7 -12.5 139.75 -11.7 L139.75 -9.8 139.1 -9.2 131.8 -9.55 Q133.45 -8.7 135.0 -8.0 L133.95 -8.05 133.85 -7.5 133.75 -6.9 Q133.6 -6.05 133.75 -4.5 L133.9 -2.0 132.7 11.8 Q131.55 23.65 131.55 24.95 L131.55 26.0 131.5 28.7 131.3 29.7 Q130.2 36.4 129.75 43.9 L129.85 40.15 130.7 -4.25 Q130.7 -6.2 131.0 -7.85 126.4 -9.65 122.8 -11.6 118.0 -14.25 116.1 -14.9 111.2 -16.55 106.15 -16.7 101.0 -16.95 96.0 -18.55 L87.2 -21.8 Q77.9 -25.45 70.95 -28.6 70.1 -29.0 68.7 -29.7 L59.5 -33.55 57.9 -34.7 57.1 -35.2 M77.9 -28.75 L65.15 -32.8 Q65.1 -32.6 71.55 -30.2 L77.85 -28.05 Q81.55 -27.05 85.6 -25.4 L89.15 -23.8 Q90.2 -23.05 91.9 -22.25 93.35 -21.5 94.15 -21.2 L96.4 -20.7 100.05 -19.75 102.45 -19.35 114.6 -15.55 114.8 -15.55 109.65 -17.65 104.4 -19.75 95.35 -22.15 91.05 -23.15 90.4 -23.55 90.1 -23.95 85.9 -25.85 78.25 -28.85 78.1 -28.75 77.9 -28.75 M72.3 78.5 L77.8 72.65 Q81.2 68.7 85.05 67.3 87.8 66.25 89.1 61.15 90.05 56.95 93.9 57.8 97.8 58.6 98.1 61.25 98.2 62.7 97.75 64.8 98.15 67.9 101.35 70.05 102.95 71.15 104.75 71.95 L111.2 79.6 Q114.1 83.1 115.15 84.85 L114.45 84.85 111.7 84.8 111.2 84.25 109.35 82.4 108.95 82.0 107.65 80.55 103.8 77.05 Q101.0 74.15 99.3 71.6 97.25 68.3 96.95 65.65 L97.1 62.55 97.1 62.2 97.2 62.15 97.1 61.95 96.9 61.15 Q96.65 60.8 96.25 60.7 L96.1 60.55 95.0 60.3 94.75 60.3 93.45 60.05 93.35 60.15 92.6 60.25 Q92.4 60.35 92.45 61.05 L92.3 61.2 92.4 61.35 92.4 61.7 Q92.3 63.2 92.5 64.85 L92.3 65.65 Q91.15 67.7 89.0 69.9 L81.4 76.05 81.35 76.15 80.2 76.75 Q77.15 78.55 74.95 80.2 L74.7 80.45 72.15 78.65 Q72.15 78.45 72.3 78.5 M130.25 -9.85 L128.05 -11.65 Q126.3 -13.05 125.6 -12.55 L116.85 -15.25 126.25 -11.3 129.45 -10.0 130.25 -9.85" fill="#1c9558" fill-rule="evenodd" stroke="none"/>
      <path d="M55.15 -36.1 Q55.35 -35.9 57.1 -35.25 L57.1 -35.2 57.9 -34.7 59.5 -33.55 68.7 -29.7 Q70.1 -29.0 70.95 -28.6 77.9 -25.45 87.2 -21.8 L96.0 -18.55 Q101.0 -16.95 106.15 -16.7 111.2 -16.55 116.1 -14.9 118.0 -14.25 122.8 -11.6 126.4 -9.65 131.0 -7.85 130.7 -6.2 130.7 -4.25 L129.85 40.15 Q128.9 42.55 129.05 47.1 L128.95 56.65 127.1 69.65 Q124.95 76.0 121.5 81.6 L115.3 85.3 115.15 84.85 Q114.1 83.1 111.2 79.6 L104.75 71.95 Q102.95 71.15 101.35 70.05 98.15 67.9 97.75 64.8 98.2 62.7 98.1 61.25 97.8 58.6 93.9 57.8 90.05 56.95 89.1 61.15 87.8 66.25 85.05 67.3 81.2 68.7 77.8 72.65 L72.3 78.5 Q60.85 63.45 57.35 41.05 55.45 29.1 56.0 15.95 56.1 13.1 55.75 11.55 L55.8 6.55 55.7 6.15 55.7 5.9 55.7 5.7 Q55.45 1.7 55.55 -6.2 L55.7 -21.0 Q55.5 -31.65 53.6 -36.4 L55.15 -36.1 M46.0 -48.05 L46.5 -48.25 63.45 -41.5 123.75 -20.15 124.1 -20.25 135.55 -16.4 136.3 -16.7 136.85 -16.35 136.85 -16.3 Q137.75 -14.55 138.7 -13.5 L137.95 -11.5 134.95 -12.0 133.2 -12.25 Q110.85 -20.05 105.0 -21.05 98.85 -22.1 81.9 -27.85 75.35 -30.05 62.35 -35.5 51.7 -39.95 44.75 -43.15 L44.65 -43.5 Q44.55 -44.1 44.6 -45.2 44.55 -46.05 45.45 -47.2 L46.0 -48.05 M103.8 77.05 L107.65 80.55 108.95 82.0 106.1 79.25 103.8 77.05 M81.4 76.05 L89.0 69.9 Q91.15 67.7 92.3 65.65 91.7 67.65 90.0 69.9 87.5 72.7 82.85 75.3 82.05 75.65 81.4 76.05" fill="#0e693e" fill-rule="evenodd" stroke="none"/>
      <path d="M51.55 -15.3 Q50.35 -27.15 50.45 -29.25 L50.45 -30.2 Q51.2 -28.7 50.9 -26.95 50.8 -21.0 51.95 -15.6 L54.35 -3.4 55.7 5.7 55.7 5.9 55.7 6.15 55.8 6.55 55.75 11.55 55.5 36.05 55.4 36.55 55.15 65.2 Q55.9 68.0 56.25 75.75 L56.5 84.0 56.05 92.15 55.1 103.7 55.25 103.85 56.45 101.4 Q56.55 100.9 56.8 100.7 60.85 91.95 61.5 91.0 63.9 86.7 67.05 83.4 69.3 80.65 72.15 78.65 L74.7 80.45 Q74.0 80.75 73.65 81.3 L73.2 81.55 Q70.05 84.2 66.8 88.5 61.5 95.4 58.1 104.9 57.75 105.6 56.95 108.45 55.7 112.1 53.65 119.75 L54.05 75.2 54.1 75.1 54.1 74.15 53.15 34.5 53.2 3.3 51.8 -12.55 51.55 -15.3 M115.15 84.85 L115.3 85.3 115.5 85.75 115.5 85.8 Q116.4 88.3 118.55 92.55 L121.8 98.7 Q126.55 107.6 128.05 111.2 127.95 104.4 129.3 57.55 L129.7 44.5 129.7 44.1 129.75 43.9 Q130.2 36.4 131.3 29.7 L131.5 28.7 131.3 50.65 131.3 51.35 131.3 52.15 130.2 86.55 130.2 87.4 130.3 87.55 130.2 126.65 126.85 112.75 Q124.2 103.55 119.95 96.15 117.2 91.35 114.65 88.1 L114.35 87.85 112.3 85.4 111.7 84.8 114.45 84.85 115.15 84.85" fill="#a9b42c" fill-rule="evenodd" stroke="none"/>
      <path d="M134.25 3.75 L133.35 19.35 Q132.15 37.85 132.15 43.5 L131.9 65.8 131.6 88.1 131.55 127.95 131.7 129.45 131.8 131.35 131.7 132.25 131.2 132.3 130.8 132.05 130.75 132.05 130.2 131.75 130.15 130.35 129.85 128.3 Q129.1 122.6 127.1 116.25 125.25 110.5 121.1 100.95 L120.0 98.55 110.75 84.75 110.25 84.25 111.2 84.25 111.7 84.8 112.3 85.4 114.35 87.85 114.65 88.1 Q117.2 91.35 119.95 96.15 124.2 103.55 126.85 112.75 L130.2 126.65 130.3 87.55 130.2 87.4 130.2 86.55 131.3 52.15 131.3 51.35 131.3 50.65 131.5 28.7 131.55 26.0 132.4 16.05 Q132.95 10.7 133.2 9.8 133.6 6.1 134.25 3.75 M75.9 80.8 Q69.15 86.45 65.35 93.5 60.05 102.85 57.7 108.85 54.1 117.5 53.55 125.55 L52.75 125.8 52.7 125.8 52.3 126.1 51.85 126.05 51.55 125.85 Q51.3 125.7 51.35 124.75 51.3 124.0 51.55 122.7 L51.85 120.95 52.25 75.35 Q52.1 64.9 52.1 49.7 L52.1 24.1 Q52.1 17.6 50.9 -4.3 L50.65 -8.2 50.0 -20.6 Q49.9 -21.1 50.05 -21.4 L51.55 -15.3 51.8 -12.55 53.2 3.3 53.15 34.5 54.1 74.15 54.1 75.1 54.05 75.2 53.65 119.75 Q55.7 112.1 56.95 108.45 57.75 105.6 58.1 104.9 61.5 95.4 66.8 88.5 70.05 84.2 73.2 81.55 L73.65 81.3 Q74.0 80.75 74.7 80.45 L74.95 80.2 75.05 80.15 75.9 80.8" fill="#73801c" fill-rule="evenodd" stroke="none"/>
      <path d="M55.75 11.55 Q56.1 13.1 56.0 15.95 55.45 29.1 57.35 41.05 60.85 63.45 72.3 78.5 72.15 78.45 72.15 78.65 69.3 80.65 67.05 83.4 63.9 86.7 61.5 91.0 60.85 91.95 56.8 100.7 56.55 100.9 56.45 101.4 L55.25 103.85 55.1 103.7 56.05 92.15 56.5 84.0 56.25 75.75 Q55.9 68.0 55.15 65.2 L55.4 36.55 55.5 36.05 55.75 11.55 M115.3 85.3 L121.5 81.6 Q124.95 76.0 127.1 69.65 L128.95 56.65 129.05 47.1 Q128.9 42.55 129.85 40.15 L129.75 43.9 129.7 44.1 129.7 44.5 129.3 57.55 Q127.95 104.4 128.05 111.2 126.55 107.6 121.8 98.7 L118.55 92.55 Q116.4 88.3 115.5 85.8 L115.5 85.75 115.3 85.3" fill="#e2df65" fill-rule="evenodd" stroke="none"/>
      <path d="M78.0 -17.55 Q78.95 -17.3 80.6 -14.0 L81.0 -13.25 82.15 -11.45 84.5 -7.85 Q79.85 -6.7 77.45 -0.3 75.65 4.1 75.5 8.95 L75.45 8.9 Q75.4 15.05 78.25 20.6 80.35 24.9 83.95 28.35 84.75 28.7 85.85 29.4 L85.95 29.5 88.25 29.25 Q91.3 28.95 92.0 26.75 L93.05 22.9 93.35 19.45 93.2 18.45 92.35 14.65 92.0 13.3 91.25 11.85 89.85 9.55 Q89.9 9.25 90.2 9.2 L90.4 9.05 98.6 11.4 98.8 11.55 99.1 12.15 Q98.4 12.5 97.7 13.65 L96.95 14.7 96.65 15.8 Q95.9 18.05 95.8 19.2 L95.6 20.1 Q95.6 21.9 95.95 23.7 96.0 24.95 96.85 27.9 97.5 30.35 100.4 32.2 L102.65 33.65 102.8 33.65 104.4 33.4 Q107.75 31.8 109.75 28.85 112.25 24.9 112.4 19.1 L112.35 19.1 Q112.15 14.45 110.75 9.55 108.55 2.1 104.4 -1.75 L106.6 -3.8 Q107.2 -4.45 107.75 -4.7 L108.0 -5.25 Q109.5 -7.5 110.35 -7.15 L110.4 -6.95 Q110.8 -2.6 113.65 7.25 116.1 15.9 116.15 20.9 116.1 28.25 112.65 33.65 107.25 41.85 95.3 39.3 L94.5 39.55 94.35 39.25 Q94.2 39.3 94.2 39.5 L93.45 38.85 Q80.7 35.7 74.85 24.05 71.05 16.45 71.1 8.5 71.15 3.15 74.15 -4.65 77.35 -13.25 77.9 -17.5 L78.0 -17.55 M90.15 47.0 Q90.1 42.75 94.1 43.35 97.9 43.95 97.95 48.6 97.9 53.0 94.5 52.35 91.75 51.7 90.7 49.45 90.1 48.2 90.15 47.0" fill="#e2df65" fill-rule="evenodd" stroke="none"/>
    </g>
  </defs>
</svg>
