<?xml version="1.0" encoding="UTF-8" standalone="no"?>
<svg xmlns:ffdec="https://www.free-decompiler.com/flash" xmlns:xlink="http://www.w3.org/1999/xlink" ffdec:objectType="frame" height="155.05px" width="318.15px" xmlns="http://www.w3.org/2000/svg">
  <g transform="matrix(1.0, 0.0, 0.0, 1.0, 158.9, 144.2)">
    <use ffdec:characterId="1740" height="18.45" transform="matrix(7.0, 0.0, 0.0, 7.0, -92.75, -126.7)" width="34.65" xlink:href="#shape0"/>
  </g>
  <defs>
    <g id="shape0" transform="matrix(1.0, 0.0, 0.0, 1.0, 13.25, 18.1)">
      <path d="M15.05 -14.5 L15.1 -14.55 Q15.7 -14.45 16.3 -13.95 16.75 -13.55 16.95 -13.1 L17.1 -12.65 Q17.2 -12.3 17.3 -12.25 17.7 -12.1 17.8 -11.9 17.9 -11.8 17.9 -11.55 18.25 -11.6 18.5 -11.3 18.8 -10.9 18.9 -10.9 19.35 -10.85 19.55 -10.6 19.7 -10.4 19.7 -10.1 L19.75 -10.05 Q19.9 -10.15 20.1 -10.15 20.5 -10.15 20.6 -9.75 L20.6 -9.35 Q20.6 -8.7 20.15 -7.95 19.05 -7.1 18.5 -6.65 L17.9 -6.3 17.0 -5.9 16.95 -6.05 Q16.95 -6.2 17.3 -6.65 17.65 -7.05 17.65 -7.25 17.65 -7.45 17.5 -7.75 17.35 -8.0 17.35 -8.15 17.35 -8.3 17.55 -8.8 17.7 -9.25 17.7 -9.4 17.7 -9.8 17.1 -10.3 16.5 -10.8 16.5 -11.35 L16.6 -11.95 Q16.6 -12.4 15.85 -13.35 15.05 -14.3 15.05 -14.4 L15.05 -14.5 M-12.5 -0.95 L-12.45 -1.0 -12.75 -1.25 Q-12.9 -1.4 -12.9 -1.55 -12.9 -1.8 -11.95 -2.05 -11.0 -2.35 -11.0 -2.7 -11.0 -2.95 -11.55 -3.65 -12.1 -4.35 -12.1 -4.6 -12.1 -5.35 -11.3 -4.65 -10.95 -4.4 -10.4 -3.8 -9.95 -3.5 -9.2 -2.9 L-6.15 -0.4 -6.1 -0.4 -6.1 -0.35 -6.05 -0.3 -6.1 -0.3 Q-6.2 -0.2 -6.45 -0.25 L-7.3 -0.3 -7.45 -0.25 -7.2 -0.05 Q-7.0 0.1 -6.8 0.05 L-6.75 0.1 -6.75 0.2 Q-6.75 0.4 -6.8 0.3 L-6.75 0.35 -6.85 0.35 -9.6 0.25 Q-10.4 0.25 -11.8 -0.05 -13.25 -0.4 -13.25 -0.55 -13.25 -0.7 -13.05 -0.75 -12.85 -0.9 -12.5 -0.95" fill="#ffffff" fill-opacity="0.7372549" fill-rule="evenodd" stroke="none"/>
      <path d="M13.7 -16.5 Q15.0 -15.75 16.45 -14.8 20.8 -12.0 21.25 -10.5 21.4 -10.25 21.4 -9.9 21.4 -9.2 20.75 -8.45 L20.7 -8.35 Q20.55 -8.1 20.4 -8.1 20.1 -7.85 19.8 -7.6 20.35 -8.25 20.35 -8.9 20.35 -9.45 19.6 -10.0 L17.95 -11.25 Q18.15 -11.5 18.15 -11.65 18.15 -12.2 16.75 -13.2 L15.3 -14.15 15.3 -14.9 Q15.3 -15.05 15.2 -15.2 14.6 -15.6 13.7 -16.5" fill="#ffffff" fill-rule="evenodd" stroke="none"/>
      <path d="M19.8 -7.6 Q19.45 -7.4 19.05 -7.2 19.4 -7.55 19.95 -8.45 L20.1 -8.7 20.1 -8.75 20.0 -9.0 19.95 -9.1 Q19.75 -9.4 19.4 -9.75 L18.65 -10.4 Q18.15 -10.65 17.65 -11.15 L17.5 -11.25 17.4 -11.4 17.2 -11.6 Q16.75 -12.15 16.45 -12.75 L16.4 -12.95 Q15.85 -13.25 15.05 -13.7 12.75 -15.0 12.75 -15.5 12.75 -15.6 12.95 -15.8 13.15 -16.05 13.15 -16.15 13.15 -16.3 12.95 -16.5 L10.7 -18.05 10.7 -18.1 Q11.7 -17.65 12.8 -17.0 L13.05 -16.9 13.1 -16.85 13.55 -16.6 13.7 -16.5 Q14.6 -15.6 15.2 -15.2 15.3 -15.05 15.3 -14.9 L15.3 -14.15 16.75 -13.2 Q18.15 -12.2 18.15 -11.65 18.15 -11.5 17.95 -11.25 L19.6 -10.0 Q20.35 -9.45 20.35 -8.9 20.35 -8.25 19.8 -7.6" fill="#ffff66" fill-rule="evenodd" stroke="none"/>
    </g>
  </defs>
</svg>
