<?xml version="1.0" encoding="UTF-8" standalone="no"?>
<svg xmlns:ffdec="https://www.free-decompiler.com/flash" xmlns:xlink="http://www.w3.org/1999/xlink" ffdec:objectType="frame" height="155.05px" width="318.15px" xmlns="http://www.w3.org/2000/svg">
  <g transform="matrix(1.0, 0.0, 0.0, 1.0, 158.9, 144.2)">
    <use ffdec:characterId="1765" height="20.75" transform="matrix(7.0, 0.0, 0.0, 7.0, -155.4, -141.75)" width="41.15" xlink:href="#shape0"/>
    <use ffdec:characterId="1766" height="2.0" transform="matrix(7.0, 0.0, 0.0, 7.0, -40.25, -3.5)" width="10.7" xlink:href="#shape1"/>
    <use ffdec:characterId="1767" height="20.45" transform="matrix(7.0, 0.0, 0.0, 7.0, -137.2, -141.4)" width="35.8" xlink:href="#shape2"/>
  </g>
  <defs>
    <g id="shape0" transform="matrix(1.0, 0.0, 0.0, 1.0, 22.2, 20.25)">
      <path d="M12.75 -16.1 L12.7 -15.75 Q12.7 -15.55 13.05 -15.25 L13.85 -14.7 Q14.95 -13.85 14.95 -13.15 14.95 -13.0 14.85 -12.75 14.75 -12.45 14.75 -12.25 14.75 -11.95 15.1 -11.7 15.2 -11.65 15.8 -11.3 16.9 -10.8 16.9 -9.95 16.9 -9.3 16.35 -7.95 15.85 -6.6 15.85 -6.35 15.85 -6.3 16.1 -6.15 16.4 -6.0 16.6 -6.0 L17.7 -6.25 18.75 -6.55 Q18.95 -6.55 18.95 -6.3 18.95 -5.9 17.05 -4.65 L16.55 -4.3 Q14.1 -1.75 8.7 -0.45 4.75 0.5 1.2 0.5 L0.5 0.4 Q0.4 0.35 0.4 0.2 0.4 0.15 1.2 -0.2 L1.65 -0.4 1.85 -0.6 Q2.8 -1.4 3.25 -1.85 5.2 -3.85 5.2 -5.7 5.2 -6.75 4.75 -7.5 4.45 -7.95 3.8 -8.55 3.05 -9.15 2.8 -9.5 2.35 -10.1 2.35 -10.95 2.35 -11.8 2.7 -12.5 2.9 -12.9 3.45 -13.5 4.0 -14.1 4.2 -14.45 4.55 -15.0 4.55 -15.7 4.55 -16.5 3.7 -17.15 3.1 -17.6 1.85 -18.15 0.35 -18.85 0.05 -19.05 -0.45 -19.3 -0.65 -19.6 -1.0 -19.7 -1.6 -20.05 L-1.6 -20.15 0.4 -20.2 Q2.65 -20.1 4.95 -19.65 7.8 -19.0 9.5 -18.5 11.2 -18.0 12.55 -17.35 13.6 -16.85 14.85 -16.05 15.45 -15.7 15.85 -15.4 L15.85 -15.35 Q15.9 -15.3 15.75 -15.3 L14.7 -15.7 Q13.6 -16.15 13.1 -16.15 L12.85 -16.15 12.75 -16.1 M-16.2 -7.55 Q-16.55 -7.55 -17.3 -7.85 -18.05 -8.2 -18.4 -8.45 -18.3 -8.75 -17.6 -8.35 -16.55 -7.7 -16.15 -7.6 L-16.1 -7.55 -16.2 -7.55 M-19.5 -3.9 L-20.25 -4.25 -19.3 -4.2 -19.1 -4.15 -18.1 -4.25 -18.05 -4.2 -18.3 -3.95 -18.1 -3.9 -18.1 -3.85 -18.15 -3.85 -18.05 -3.75 Q-18.5 -3.45 -19.1 -3.4 -19.3 -3.4 -19.5 -3.9 M-21.7 -0.85 L-21.6 -0.8 -21.75 -0.7 Q-21.85 -0.65 -21.95 -0.65 -22.15 -0.65 -22.2 -0.7 -22.15 -0.8 -22.0 -0.85 L-21.7 -0.85 M-13.15 -5.85 L-12.55 -5.55 Q-12.2 -5.3 -11.65 -4.9 -10.3 -3.85 -8.95 -2.45 -9.0 -2.4 -9.55 -2.3 -10.1 -2.2 -10.1 -2.1 -10.1 -1.85 -9.7 -1.25 -9.4 -0.8 -9.2 -0.55 -9.2 -0.45 -9.25 -0.4 -9.35 -0.35 -9.6 -0.35 -9.4 -0.05 -8.65 0.2 L-8.6 0.3 Q-8.6 0.35 -8.7 0.35 L-8.9 0.3 -9.0 0.4 -9.2 0.45 -10.1 0.35 -11.25 0.25 -12.85 0.05 -12.9 0.1 -13.2 0.05 -13.75 0.0 -13.75 -0.05 -14.05 -0.05 -14.45 -0.1 Q-14.85 -0.15 -14.9 -0.2 -14.95 -0.15 -14.95 -0.3 L-14.75 -0.5 Q-14.85 -0.55 -15.3 -0.75 -15.65 -0.9 -15.65 -1.05 -15.65 -1.15 -15.1 -1.45 L-14.4 -1.75 -14.55 -2.05 Q-14.65 -2.2 -14.65 -2.3 -14.65 -2.4 -14.3 -2.55 L-13.6 -2.85 Q-12.55 -3.3 -12.55 -3.85 -12.55 -4.55 -13.05 -5.1 -13.5 -5.65 -13.5 -5.75 L-13.5 -6.0 -13.15 -5.85" fill="#ffffff" fill-opacity="0.7372549" fill-rule="evenodd" stroke="none"/>
    </g>
    <g id="shape1" transform="matrix(1.0, 0.0, 0.0, 1.0, 5.75, 0.5)">
      <path d="M-5.55 -0.25 Q-5.55 0.05 -5.45 0.15 -5.3 0.45 -4.75 0.45 -4.6 0.45 -4.45 0.35 L-4.1 0.65 -4.05 0.65 -3.5 0.7 -1.5 0.6 -0.6 0.65 0.2 0.75 1.85 0.85 3.3 0.7 3.4 0.75 Q3.45 0.7 3.45 0.8 3.45 0.95 2.7 1.1 3.8 1.0 4.4 0.4 L4.5 0.3 Q4.7 0.35 4.95 0.4 4.8 0.65 3.7 1.05 2.35 1.5 0.7 1.5 -1.0 1.55 -2.9 1.3 -5.75 0.95 -5.75 0.15 L-5.6 -0.3 -5.55 -0.5 -5.55 -0.25 M-1.75 1.15 L-3.65 0.95 Q-2.85 1.35 -1.45 1.35 L-0.75 1.25 -1.75 1.15" fill="#ffffff" fill-opacity="0.7372549" fill-rule="evenodd" stroke="none"/>
    </g>
    <g id="shape2" transform="matrix(1.0, 0.0, 0.0, 1.0, 19.6, 20.2)">
      <path d="M0.1 -0.45 L0.05 -0.5 Q-0.35 -0.65 -0.7 -0.85 L-0.75 -0.9 Q-0.6 -0.9 -0.05 -0.7 L0.4 -0.55 0.8 -0.45 Q1.45 -0.3 1.7 -0.1 0.4 -0.3 0.1 -0.45 M3.25 0.1 Q3.4 0.05 3.6 0.05 L3.85 0.1 3.7 0.25 3.3 0.25 3.25 0.1 M-17.5 -16.6 L-17.25 -16.7 -17.35 -16.55 Q-17.45 -16.45 -17.6 -16.45 L-17.65 -16.5 -17.5 -16.6 M-11.7 -14.8 Q-11.65 -14.45 -11.55 -14.25 -11.75 -14.25 -11.8 -14.4 L-11.8 -14.8 -11.7 -14.8 M-19.15 -12.9 Q-19.15 -12.8 -18.95 -12.6 L-18.65 -12.3 -18.7 -12.2 Q-18.75 -12.15 -18.85 -12.15 -19.15 -12.15 -19.4 -12.6 -19.55 -12.8 -19.6 -13.0 -19.6 -13.35 -19.2 -13.75 -18.85 -14.1 -18.55 -14.15 L-18.5 -14.05 -18.95 -13.45 Q-19.15 -13.15 -19.15 -12.9 M-12.05 -0.8 L-11.9 -0.75 -11.75 -0.65 -10.65 -0.15 Q-10.8 -0.1 -11.3 -0.3 -11.85 -0.5 -11.95 -0.65 L-11.9 -0.7 -12.05 -0.8 M-11.15 -9.1 Q-11.3 -8.85 -11.3 -8.75 -11.3 -8.25 -11.25 -8.05 -11.15 -7.85 -10.95 -7.7 -10.15 -7.2 -9.55 -6.35 L-9.55 -6.3 Q-9.6 -6.3 -9.65 -6.25 -10.3 -6.85 -11.2 -7.35 -11.4 -7.5 -11.5 -7.6 -11.55 -7.8 -11.55 -8.2 -11.55 -8.55 -11.3 -9.2 -11.2 -9.2 -11.15 -9.1 M-6.4 -4.1 L-6.35 -4.1 Q-6.3 -3.8 -5.7 -3.3 L-5.05 -2.75 -4.55 -2.55 Q-4.0 -2.3 -3.75 -2.1 L-4.05 -2.05 Q-4.3 -2.05 -4.8 -2.35 -5.25 -2.65 -5.35 -2.85 L-5.3 -2.8 Q-6.4 -3.6 -6.4 -4.05 -6.4 -4.2 -6.4 -4.1 M-8.6 -4.15 Q-8.1 -3.6 -7.2 -2.95 L-5.8 -2.05 -4.9 -1.65 -3.05 -0.9 -3.2 -0.9 Q-4.05 -0.9 -5.0 -1.35 -5.45 -1.55 -5.75 -1.8 -6.4 -1.8 -7.5 -2.85 -8.35 -3.65 -8.6 -4.15 M-8.85 -4.75 Q-9.05 -4.85 -9.2 -5.15 L-9.45 -5.7 Q-9.15 -5.6 -8.95 -5.2 -8.8 -4.95 -8.8 -4.85 L-8.85 -4.75" fill="#ffb74c" fill-rule="evenodd" stroke="none"/>
      <path d="M15.05 -15.25 L15.0 -15.25 14.3 -15.4 14.2 -15.4 14.15 -15.45 14.05 -15.45 12.95 -15.7 11.8 -15.8 Q10.7 -15.8 10.3 -15.85 L10.05 -15.85 6.4 -16.1 3.75 -16.15 1.15 -16.65 -1.95 -17.35 Q-2.5 -17.45 -3.25 -17.9 -4.05 -18.35 -4.15 -18.65 -4.4 -19.15 -4.15 -19.55 -4.15 -19.65 -5.35 -19.65 -4.75 -19.85 -4.3 -19.9 L-5.65 -19.8 -5.95 -19.8 Q-5.85 -19.9 -4.45 -20.05 L-2.15 -20.2 -2.05 -20.15 Q-2.0 -20.15 -2.0 -20.05 -2.0 -19.85 -2.5 -19.7 -3.05 -19.55 -3.05 -19.25 -3.05 -18.5 -1.25 -18.1 0.0 -17.85 3.25 -17.5 L8.95 -16.85 Q12.35 -16.35 14.55 -15.6 L14.05 -15.7 15.25 -15.3 15.25 -15.25 15.2 -15.25 15.05 -15.25 M8.0 -10.05 L6.45 -10.05 Q3.25 -10.15 0.2 -11.3 -1.6 -12.0 -2.45 -12.75 -1.4 -12.25 -0.9 -12.0 -0.45 -11.95 0.0 -11.65 0.55 -11.3 0.9 -11.15 2.55 -10.55 7.45 -10.55 L9.45 -10.7 10.2 -10.7 Q9.65 -10.35 8.45 -10.15 L8.0 -10.05 M15.8 -4.3 L16.2 -4.35 15.75 -4.1 15.6 -4.15 15.55 -4.2 15.8 -4.3" fill="#ffff66" fill-rule="evenodd" stroke="none"/>
      <path d="M10.05 -15.85 L7.7 -15.8 Q6.15 -15.75 5.6 -15.8 L3.45 -15.8 Q1.5 -15.95 0.35 -16.35 L-0.5 -16.7 -1.4 -17.05 -3.05 -17.25 -6.15 -17.65 Q-6.65 -17.75 -6.95 -17.95 -7.2 -18.2 -7.2 -18.45 -7.2 -19.0 -5.65 -19.55 L-5.35 -19.65 Q-4.15 -19.65 -4.15 -19.55 -4.4 -19.15 -4.15 -18.65 -4.05 -18.35 -3.25 -17.9 -2.5 -17.45 -1.95 -17.35 L1.15 -16.65 3.75 -16.15 6.4 -16.1 10.05 -15.85 M15.2 -15.25 L15.05 -15.25 15.2 -15.25 M-2.45 -12.75 Q-1.6 -12.0 0.2 -11.3 3.25 -10.15 6.45 -10.05 L8.0 -10.05 4.85 -9.9 Q2.1 -9.9 0.0 -10.75 -1.05 -11.2 -1.65 -11.65 -2.1 -11.9 -2.6 -12.25 L-3.3 -12.85 Q-4.2 -13.5 -5.55 -13.7 L-5.55 -13.75 Q-4.55 -13.75 -3.15 -13.1 L-2.45 -12.75" fill="#ffdc45" fill-rule="evenodd" stroke="none"/>
    </g>
  </defs>
</svg>
