<?xml version="1.0" encoding="UTF-8" standalone="no"?>
<svg xmlns:ffdec="https://www.free-decompiler.com/flash" xmlns:xlink="http://www.w3.org/1999/xlink" ffdec:objectType="frame" height="23.0px" width="26.4px" xmlns="http://www.w3.org/2000/svg">
  <g transform="matrix(1.0, 0.0, 0.0, 1.0, 10.05, 7.45)">
    <use ffdec:characterId="685" height="23.0" transform="matrix(1.0, 0.0, 0.0, 1.0, -10.05, -7.45)" width="26.4" xlink:href="#shape0"/>
  </g>
  <defs>
    <g id="shape0" transform="matrix(1.0, 0.0, 0.0, 1.0, 10.05, 7.45)">
      <path d="M6.5 -6.2 Q8.05 -5.5 9.05 -4.6 L9.05 -4.55 Q10.2 -3.45 10.5 -2.05 L11.05 0.8 11.35 3.7 11.35 4.15 11.25 5.1 11.2 5.5 11.2 5.55 12.05 6.35 12.45 7.1 14.4 8.4 14.45 8.45 16.35 9.8 15.55 11.5 12.7 9.7 12.65 9.65 10.75 8.45 10.55 8.45 10.25 8.4 Q9.6 8.4 9.3 9.05 L9.15 9.85 9.15 10.05 10.05 10.9 10.1 10.95 11.3 12.05 12.5 13.15 13.65 14.15 13.05 14.75 12.2 15.55 11.45 14.9 11.4 14.9 10.5 14.1 8.45 12.2 8.2 12.05 Q7.55 12.1 6.2 10.9 L5.6 10.35 5.2 10.4 4.45 10.65 4.4 10.65 3.0 11.0 0.45 11.35 -1.55 11.2 -2.4 11.1 -5.75 10.35 -5.95 10.25 Q-7.6 9.75 -7.9 9.1 L-8.85 7.5 -9.1 6.7 -9.45 5.15 -9.8 3.25 -10.05 1.0 -10.0 0.4 -10.0 0.3 -9.95 0.15 -9.95 0.05 -9.8 -0.35 -9.8 -0.4 -9.8 -0.6 -9.55 -1.3 Q-9.1 -2.55 -8.25 -3.65 -6.55 -5.75 -3.75 -6.75 L0.1 -7.45 3.3 -7.15 6.45 -6.2 6.5 -6.2 M2.2 -6.2 L1.85 -5.85 2.1 -5.55 2.15 -5.55 2.25 -5.45 2.25 -5.75 2.45 -6.1 2.25 -6.15 2.25 -6.2 2.2 -6.2 M2.65 -5.35 L2.35 -5.4 2.3 -5.4 2.15 -5.45 1.95 -5.45 1.8 -5.45 1.7 -5.45 1.25 -5.5 0.85 -5.5 0.55 -5.55 0.35 -5.5 0.2 -5.5 0.15 -5.5 -1.95 -5.2 -2.25 -5.15 -2.85 -5.0 -3.65 -4.7 -3.7 -4.7 -3.8 -4.65 -3.95 -4.55 -4.05 -4.5 -4.1 -4.45 -4.85 -4.0 -5.25 -3.75 -6.05 -3.0 -6.1 -3.0 -6.35 -2.75 -6.4 -2.7 -7.55 -1.15 -7.35 -0.8 -7.55 -0.85 -7.6 -0.85 -7.65 -0.9 -7.95 0.15 -8.0 0.4 -8.0 0.45 -8.0 0.85 -8.0 0.9 -8.0 1.5 -8.0 1.55 -8.0 1.65 -7.95 1.8 -7.95 1.85 -7.95 1.95 -7.7 2.55 -7.65 2.65 -7.05 3.4 -7.0 3.4 Q-5.35 4.95 -1.5 5.3 L0.25 5.3 2.15 4.9 Q5.45 4.1 7.15 2.5 L7.55 2.0 Q8.55 0.8 8.55 -0.7 L8.5 -1.3 8.5 -1.45 8.1 -2.55 7.15 -3.65 7.05 -3.75 6.8 -3.95 6.75 -3.95 6.7 -4.0 6.7 -4.05 6.4 -4.25 6.55 -4.05 6.55 -3.8 6.5 -3.7 6.4 -3.6 6.2 -3.55 6.35 -4.15 5.6 -4.5 5.25 -4.6 5.2 -4.65 5.15 -4.65 4.85 -4.75 2.65 -5.35 M4.85 -3.95 L5.0 -3.9 4.9 -3.55 4.75 -3.2 Q3.25 -3.9 2.0 -3.75 L1.8 -3.75 0.8 -3.75 0.75 -3.75 -0.3 -3.65 -0.7 -3.65 -0.95 -3.6 -1.1 -3.6 -1.55 -3.55 -1.95 -3.45 -2.05 -3.4 Q-3.4 -3.05 -4.4 -2.4 L-4.8 -3.1 -3.0 -3.85 0.65 -4.45 2.65 -4.35 4.85 -3.95 M6.5 -1.25 L6.55 -1.15 6.5 -1.2 6.5 -1.25 M4.35 8.45 L4.2 7.65 Q4.2 7.0 4.55 6.35 L4.75 5.95 Q2.9 6.7 0.4 7.05 L0.3 7.05 -1.55 7.05 -1.65 7.05 Q-5.4 6.65 -7.45 5.3 L-7.35 5.75 -7.2 6.35 -7.15 6.35 -6.35 7.55 -5.4 8.3 Q-3.8 8.9 -1.1 9.15 L0.95 9.15 2.45 8.9 3.9 8.65 3.9 8.6 4.35 8.45 M4.85 5.85 L4.8 5.9 4.8 5.95 5.0 5.9 4.85 5.85 M5.45 5.7 L7.3 4.65 7.8 4.25 8.55 4.45 8.6 4.45 9.25 4.7 9.3 4.6 9.4 3.75 9.3 2.55 8.4 3.7 7.8 4.25 7.15 4.25 Q6.35 4.35 5.6 5.0 L5.25 5.35 4.85 5.8 5.05 5.7 5.3 5.7 5.4 5.7 5.45 5.7 M8.8 6.7 L7.35 6.2 6.6 6.85 6.4 7.1 6.25 7.45 6.15 7.75 6.15 7.8 6.2 7.9 6.35 8.1 6.5 8.25 6.6 8.35 6.75 8.55 7.05 8.75 7.2 8.9 7.3 9.0 7.3 8.95 7.35 8.95 7.35 8.9 7.85 7.8 8.0 7.55 8.2 7.35 8.85 6.75 8.8 6.7 M-5.8 -1.25 L-5.5 -1.1 -5.4 -0.85 -5.5 -0.55 -5.8 -1.25 M-5.2 2.0 L-5.15 2.2 -5.3 1.9 -5.25 1.9 -5.2 2.0 M-6.25 0.75 L-6.3 0.6 -6.25 0.7 -6.25 0.75" fill="#000000" fill-rule="evenodd" stroke="none"/>
      <path d="M13.1 14.75 L12.9 14.6 9.55 11.6 9.0 11.1 9.8 11.7 10.8 12.65 11.8 13.6 13.1 14.75" fill="#ff0000" fill-rule="evenodd" stroke="none"/>
      <path d="M9.0 11.1 L8.9 11.0 8.85 11.0 8.5 10.75 8.3 10.4 8.4 10.5 8.7 10.7 8.75 10.7 13.15 14.7 13.1 14.75 11.8 13.6 10.8 12.65 9.8 11.7 9.0 11.1" fill="#a20000" fill-rule="evenodd" stroke="none"/>
      <path d="M0.8 -6.4 L0.65 -6.35 0.9 -6.35 3.6 -6.0 4.95 -5.65 6.6 -4.9 7.75 -4.15 8.3 -3.6 9.0 -2.45 9.3 -1.05 9.3 -0.9 9.4 -0.55 9.7 -0.15 9.8 -0.05 9.95 0.2 10.05 1.0 10.05 2.0 10.05 2.25 10.15 3.3 10.15 4.15 10.15 4.4 10.15 4.55 10.05 5.0 9.65 5.65 9.5 5.9 10.15 6.35 10.65 6.95 10.6 7.15 10.5 7.2 9.85 7.15 9.15 7.35 9.05 7.5 8.85 7.9 8.9 7.95 9.0 7.9 9.2 7.85 9.5 7.7 Q10.75 7.45 11.9 8.15 L12.6 8.75 12.7 8.85 12.85 8.85 14.25 9.7 15.9 10.75 Q14.95 12.75 13.35 14.45 L12.25 13.5 11.25 12.6 10.3 11.75 9.35 10.9 8.75 10.4 8.55 10.2 8.25 10.15 8.25 9.9 8.25 9.85 8.15 9.75 8.15 9.6 8.1 9.65 8.1 9.95 Q8.05 10.45 7.8 10.45 L7.1 9.95 6.2 9.3 5.55 8.85 5.5 8.9 5.0 9.05 4.15 9.3 3.0 9.7 2.05 9.95 1.7 9.85 1.65 9.8 1.65 9.75 1.0 9.85 0.35 9.95 0.05 10.05 -0.15 10.15 -2.2 9.95 -3.95 9.6 -4.75 9.3 -5.15 9.15 -5.45 9.05 Q-6.55 8.9 -7.35 7.8 L-7.95 6.7 -8.15 5.75 -8.1 5.4 -8.65 3.65 -8.55 3.35 -8.3 3.1 -8.5 2.65 -8.5 2.6 -8.65 2.15 -8.75 1.7 -8.8 1.1 -8.8 0.8 -8.85 0.55 -8.65 0.15 Q-8.55 -0.9 -7.9 -1.9 L-7.05 -3.0 -6.8 -3.3 -6.45 -3.75 -6.2 -4.05 -5.6 -4.55 -4.85 -4.95 -4.85 -5.0 -2.75 -5.85 0.0 -6.35 0.8 -6.4 M3.75 -4.45 L0.7 -4.8 0.75 -4.7 -0.55 -4.6 -0.4 -4.35 0.6 -4.5 0.6 -4.6 1.55 -4.55 2.5 -4.55 3.7 -4.4 3.75 -4.45 M3.95 -4.4 L4.0 -4.35 4.05 -4.25 4.1 -4.35 3.95 -4.4 M5.85 -2.85 L5.45 -2.95 4.85 -3.1 4.2 -3.35 4.1 -3.35 3.95 -3.45 3.85 -3.45 3.8 -3.5 3.25 -3.5 1.65 -3.65 1.55 -3.7 0.1 -3.7 -0.6 -3.55 -1.0 -3.45 -1.55 -3.4 -1.55 -3.55 -1.6 -3.8 -1.6 -4.1 -1.65 -4.25 -1.5 -4.25 -1.45 -4.35 -0.9 -4.45 -0.8 -4.55 -2.95 -4.15 -4.15 -3.6 -4.85 -3.3 -5.45 -2.75 -6.8 -1.4 -7.1 -0.7 -7.2 -0.35 -7.35 -0.1 -7.4 0.2 -7.5 0.55 -7.5 0.6 -7.1 1.05 -6.75 1.9 -6.65 2.15 -5.1 3.1 -4.65 3.55 -4.5 3.35 -4.15 3.55 -4.25 3.7 -3.8 3.85 -3.2 4.15 -2.55 4.25 -1.85 4.3 -1.3 4.4 0.3 4.4 Q2.25 4.35 3.7 3.75 L4.45 3.5 5.95 2.55 6.0 2.5 6.15 2.4 6.45 2.25 6.75 2.0 6.8 1.9 7.35 0.75 7.4 0.75 7.4 0.45 7.4 0.0 7.5 -0.65 7.3 -1.5 7.25 -1.65 7.1 -2.05 7.1 -2.15 6.95 -2.35 6.8 -2.75 6.35 -3.1 5.9 -3.45 5.55 -3.4 5.7 -3.05 5.75 -2.95 5.85 -2.85 M4.15 -4.35 L4.2 -4.2 4.35 -4.15 4.8 -4.05 5.95 -3.5 6.65 -2.95 6.7 -2.9 6.7 -2.95 6.4 -3.4 6.15 -3.55 Q5.25 -4.05 4.15 -4.35 M6.6 -2.3 L6.4 -2.45 6.3 -2.6 6.6 -2.3 M8.4 2.15 L8.15 2.55 7.6 3.1 7.85 3.05 8.1 2.8 8.4 2.15 M5.1 4.8 L5.45 4.55 5.0 4.65 4.15 5.05 2.8 5.5 1.4 5.8 -0.1 6.05 -1.8 6.05 -2.25 6.0 -1.2 6.15 Q2.7 6.15 5.1 4.8 M6.45 5.85 L6.45 5.8 6.4 5.85 6.45 5.85 M8.75 8.45 L8.75 8.25 8.65 8.2 8.4 8.45 8.3 8.55 8.25 8.9 8.3 9.15 8.45 9.15 8.7 8.6 8.7 8.5 8.75 8.45 M8.3 9.35 L8.3 9.45 8.35 9.45 8.35 9.4 8.3 9.35 M-2.3 -3.2 L-2.4 -3.2 -3.15 -3.05 -2.7 -3.2 -2.2 -3.25 -2.3 -3.2 M-4.8 -2.2 L-5.35 -1.85 -5.1 -2.05 -4.8 -2.2 M-1.9 -3.3 L-1.8 -3.4 -1.8 -3.35 -1.9 -3.3 M-3.45 5.7 L-4.6 5.45 -5.3 5.2 -6.1 4.9 Q-4.45 5.8 -3.15 5.85 L-3.45 5.7 M-6.8 -0.2 L-6.85 0.15 -6.85 0.25 -7.05 0.25 -7.15 0.35 -7.25 0.2 -7.3 0.1 -7.25 -0.1 -7.25 0.0 -7.1 0.05 -6.8 -0.2" fill="#999999" fill-rule="evenodd" stroke="none"/>
      <path d="M-7.2 -0.35 L-7.1 -0.7 -6.7 -1.4 -6.1 -2.05 -5.45 -2.65 -4.3 -3.4 -3.05 -4.0 -2.05 -4.25 -1.85 -4.25 -1.8 -4.3 -1.65 -4.25 -1.6 -4.1 -1.6 -3.8 -1.55 -3.55 -1.55 -3.4 -1.8 -3.35 -1.8 -3.4 -1.9 -3.3 -2.15 -3.25 -2.2 -3.25 -2.7 -3.2 -3.15 -3.05 -3.3 -3.0 Q-3.45 -2.85 -4.25 -2.5 L-4.7 -2.25 -4.8 -2.2 -5.1 -2.05 -5.35 -1.85 -5.6 -1.55 -6.3 -0.8 -6.8 -0.2 -7.1 0.05 -7.25 0.0 -7.25 -0.1 -7.25 -0.15 -7.2 -0.35" fill="#6a6a6a" fill-rule="evenodd" stroke="none"/>
      <path d="M6.45 5.85 L6.4 5.85 6.45 5.8 6.45 5.85" fill="#cecece" fill-rule="evenodd" stroke="none"/>
      <path d="M5.85 -2.85 L5.75 -2.95 5.7 -3.05 5.55 -3.4 5.9 -3.45 6.35 -3.1 6.8 -2.75 6.95 -2.35 7.1 -2.15 7.1 -2.05 7.1 -2.0 6.95 -1.95 6.7 -2.25 6.6 -2.3 6.3 -2.6 6.1 -2.7 5.85 -2.85" fill="#f1f1f1" fill-rule="evenodd" stroke="none"/>
      <path d="M7.3 -1.5 L7.5 -0.65 7.4 0.0 7.1 0.6 7.1 0.65 Q7.1 1.15 6.55 1.8 L5.55 2.75 4.45 3.35 3.7 3.75 Q2.25 4.35 0.3 4.4 L-1.3 4.4 -1.85 4.3 -3.3 3.85 -4.15 3.55 -4.5 3.35 -5.3 2.9 -5.5 2.75 -5.55 2.7 -6.6 1.65 -7.0 0.65 -6.85 0.25 -6.4 -0.6 -6.3 -0.8 -5.6 -1.55 -5.2 -1.8 -5.0 -1.95 -4.4 -2.3 -2.3 -3.2 -2.2 -3.25 -2.15 -3.25 -1.9 -3.3 -1.8 -3.35 -1.55 -3.4 -1.0 -3.45 -0.9 -3.4 -0.45 -3.5 0.85 -3.55 Q3.7 -3.55 5.55 -2.8 6.85 -2.25 7.3 -1.5" fill="#ffffff" fill-rule="evenodd" stroke="none"/>
      <path d="M13.2 14.65 L13.05 14.75 12.75 15.1 11.85 14.4 11.0 13.6 8.9 11.65 8.2 11.4 Q7.75 11.4 6.65 10.4 L5.95 9.7 5.8 9.6 5.65 9.6 5.05 9.75 4.2 10.0 2.85 10.35 0.45 10.65 -1.45 10.5 -2.3 10.45 -5.5 9.7 -5.7 9.6 Q-7.15 9.2 -7.3 8.75 L-8.2 7.25 -8.45 6.45 -8.8 5.05 -9.15 3.15 -9.35 1.0 -9.3 0.45 -9.3 0.3 -9.3 0.25 -9.15 -0.3 -9.15 -0.4 -8.95 -1.05 -7.7 -3.2 Q-6.15 -5.15 -3.5 -6.1 L0.1 -6.75 3.2 -6.45 6.2 -5.6 8.6 -4.05 Q9.6 -3.1 9.8 -1.9 L10.4 0.95 10.7 3.7 10.7 4.15 10.6 5.0 10.35 5.8 10.8 6.1 11.5 6.8 11.85 7.4 11.95 7.6 14.05 9.0 16.1 10.4 15.85 10.9 13.05 9.1 11.0 7.8 10.65 7.75 10.25 7.7 Q9.15 7.7 8.7 8.75 8.45 9.3 8.45 9.85 L8.55 10.45 9.6 11.45 10.85 12.55 12.05 13.65 13.2 14.65 M0.25 -6.2 L0.2 -6.2 -2.45 -5.8 -2.95 -5.65 -3.9 -5.35 -4.05 -5.3 -4.3 -5.15 -4.45 -5.05 -5.2 -4.6 -5.65 -4.3 -6.55 -3.5 -6.8 -3.2 Q-7.8 -2.4 -8.3 -1.15 L-8.65 0.15 -8.7 0.3 -8.7 0.85 -8.7 1.6 -8.7 1.65 -8.65 1.95 -8.6 2.1 -8.25 3.0 -7.5 3.9 Q-5.7 5.6 -1.55 6.0 L0.3 6.0 Q5.35 5.2 7.6 2.95 9.25 1.35 9.25 -0.7 L9.15 -1.45 8.7 -2.85 7.6 -4.2 7.1 -4.55 7.0 -4.6 5.85 -5.15 5.45 -5.25 5.1 -5.4 2.55 -6.05 2.5 -6.05 2.2 -6.1 2.15 -6.1 1.95 -6.15 0.9 -6.2 0.55 -6.2 0.25 -6.2 M4.65 -3.3 L6.45 -2.55 6.95 -2.15 6.85 -2.4 6.75 -2.55 6.65 -2.65 6.45 -2.9 6.25 -3.05 5.05 -3.8 Q3.35 -4.6 1.9 -4.45 L0.7 -4.45 -0.35 -4.35 -0.75 -4.3 -1.05 -4.3 -1.2 -4.25 -1.65 -4.2 -2.2 -4.05 Q-4.3 -3.55 -5.65 -2.3 L-6.75 -0.95 -7.05 0.1 -6.75 -0.5 Q-6.2 -1.3 -5.25 -1.95 -4.2 -2.75 -2.8 -3.2 L0.65 -3.75 2.55 -3.7 4.65 -3.3 M0.7 -4.85 L1.2 -4.8 1.8 -4.75 1.95 -4.8 Q4.35 -4.8 6.05 -3.7 L7.05 -2.8 7.35 -2.15 7.35 -2.1 7.45 -1.8 7.55 -0.4 Q7.55 1.1 6.5 2.25 4.5 4.4 -0.75 4.4 L-1.25 4.4 -2.0 4.4 -2.75 4.3 -3.0 4.3 -3.6 4.05 -4.2 3.85 -6.0 2.8 -7.15 1.6 -7.6 0.5 -7.45 -0.35 -7.2 -0.8 -7.1 -1.05 -5.95 -2.45 Q-4.15 -4.1 -0.95 -4.7 L0.45 -4.8 0.7 -4.85 M7.15 -1.5 L6.95 -1.7 6.05 -2.45 Q4.25 -3.5 1.0 -3.5 L-1.65 -3.2 -4.1 -2.4 -6.0 -1.05 Q-6.8 -0.2 -6.95 0.75 L-6.8 1.15 -6.65 1.35 -5.75 2.4 Q-3.85 4.05 -0.75 4.05 2.5 4.05 4.6 3.1 7.2 1.9 7.2 -0.4 L7.15 -1.5 M-8.0 5.9 L-7.8 6.6 -6.85 8.05 -5.7 8.9 Q-4.0 9.55 -1.15 9.8 L1.05 9.8 2.55 9.55 4.05 9.3 4.9 8.95 5.35 8.8 5.15 8.55 Q4.85 8.15 4.85 7.65 4.85 7.15 5.15 6.65 L5.4 6.3 5.4 6.2 6.05 5.5 Q7.05 4.6 8.3 5.05 L8.4 5.1 9.0 5.3 9.45 5.65 9.5 5.65 9.95 4.8 10.1 3.75 9.95 2.25 9.7 0.65 9.55 0.0 9.25 1.15 Q8.85 2.3 7.9 3.25 5.5 5.6 0.3 6.35 L-1.55 6.35 Q-5.95 5.9 -7.85 4.1 L-8.45 3.3 -8.45 3.5 -8.4 3.85 -8.4 3.95 -8.2 4.95 -8.15 5.25 -8.0 5.9 M7.25 5.55 Q6.8 5.6 6.1 6.4 L5.75 6.8 5.75 6.85 5.65 7.15 5.5 7.75 5.5 7.95 5.6 8.15 5.8 8.55 6.05 8.75 6.35 9.1 6.6 9.3 6.8 9.45 7.9 10.3 7.85 9.9 7.85 9.85 Q7.85 9.5 8.0 9.15 8.15 8.5 8.6 7.95 L8.5 8.0 8.7 7.8 9.5 7.15 10.5 7.1 9.9 6.65 9.2 6.1 Q8.25 5.5 7.25 5.55" fill="#000000" fill-rule="evenodd" stroke="none"/>
      <path d="M4.65 -3.3 L2.55 -3.7 0.65 -3.75 -2.8 -3.2 Q-4.2 -2.75 -5.25 -1.95 -6.2 -1.3 -6.75 -0.5 L-7.05 0.1 -6.75 -0.95 -5.65 -2.3 Q-4.3 -3.55 -2.2 -4.05 L-1.65 -4.2 -1.2 -4.25 -1.05 -4.3 -0.75 -4.3 -0.35 -4.35 0.7 -4.45 1.9 -4.45 Q3.35 -4.6 5.05 -3.8 L6.25 -3.05 6.45 -2.9 6.65 -2.65 6.75 -2.55 6.85 -2.4 6.95 -2.15 6.45 -2.55 4.65 -3.3" fill="#999999" fill-rule="evenodd" stroke="none"/>
      <path d="M15.85 10.9 Q14.85 12.9 13.2 14.65 L12.05 13.65 10.85 12.55 9.6 11.45 8.55 10.45 8.45 9.85 Q8.45 9.3 8.7 8.75 9.15 7.7 10.25 7.7 L10.65 7.75 11.0 7.8 13.05 9.1 15.85 10.9" fill="#cc0000" fill-rule="evenodd" stroke="none"/>
    </g>
  </defs>
</svg>
