<?xml version="1.0" encoding="UTF-8" standalone="no"?>
<svg xmlns:ffdec="https://www.free-decompiler.com/flash" xmlns:xlink="http://www.w3.org/1999/xlink" ffdec:objectType="frame" height="768.35px" width="1967.2px" xmlns="http://www.w3.org/2000/svg">
  <g transform="matrix(1.0, 0.0, 0.0, 1.0, 954.3, 652.5)">
    <use ffdec:characterId="992" height="17.3" transform="matrix(5.118, 0.0, 0.0, 5.118, -43.5679, -417.227)" width="16.45" xlink:href="#shape0"/>
    <use ffdec:characterId="990" height="15.15" transform="matrix(4.8088, 0.0, 0.0, 4.8088, -34.7805, -410.9297)" width="14.3" xlink:href="#shape1"/>
    <use ffdec:characterId="1005" height="26.25" transform="matrix(7.0, 0.0, 0.0, 7.0, -109.9, -492.45)" width="33.25" xlink:href="#shape2"/>
  </g>
  <defs>
    <g id="shape0" transform="matrix(1.0, 0.0, 0.0, 1.0, 8.2, 8.7)">
      <path d="M8.25 -0.05 Q8.25 3.55 5.85 6.05 3.45 8.6 0.05 8.6 -3.4 8.6 -5.8 6.05 -8.2 3.55 -8.2 -0.05 -8.2 -3.65 -5.8 -6.15 -3.4 -8.7 0.05 -8.7 3.45 -8.7 5.85 -6.15 8.25 -3.65 8.25 -0.05" fill="#99ffff" fill-opacity="0.5019608" fill-rule="evenodd" stroke="none"/>
    </g>
    <g id="shape1" transform="matrix(1.0, 0.0, 0.0, 1.0, 6.9, 7.95)">
      <path d="M2.65 -7.05 Q3.25 -6.3 4.05 -5.5 5.3 -4.25 6.05 -2.9 6.05 -4.3 5.05 -5.45 4.45 -6.15 3.75 -6.8 4.3 -6.6 4.8 -6.35 5.15 -6.15 5.3 -5.75 5.85 -4.55 6.7 -3.55 7.3 -2.8 7.4 -2.0 6.0 -1.75 5.15 -0.6 4.7 0.05 5.4 0.4 L5.6 0.5 5.45 0.55 Q4.7 0.9 4.65 1.75 4.65 2.05 4.5 2.3 4.55 2.8 4.4 3.35 4.3 4.0 4.1 4.6 L4.05 4.55 Q4.0 5.1 3.8 5.5 4.3 3.3 3.7 1.15 3.55 2.6 3.15 4.15 2.8 5.55 2.4 6.85 1.65 7.2 0.5 7.2 L0.0 7.2 Q0.7 7.0 1.3 6.7 L0.65 6.6 Q-0.6 6.65 -1.85 6.65 -2.2 6.4 -2.5 6.15 -0.4 6.6 1.5 5.75 -0.1 5.45 -1.85 5.55 -2.55 5.55 -3.15 5.3 L-3.5 4.5 Q-3.1 4.4 -2.65 4.0 L-3.2 4.0 Q-2.9 3.55 -3.0 3.0 -3.15 2.2 -4.0 2.2 -4.15 2.2 -4.3 2.35 -5.2 2.95 -4.9 3.7 -5.25 3.55 -5.6 3.5 L-5.8 3.4 Q-6.8 1.45 -4.2 0.3 -4.0 0.2 -3.85 0.05 -2.1 0.7 -0.35 -0.8 -1.2 -0.6 -2.1 -0.5 L-2.5 -0.5 Q-1.6 -1.1 -1.4 -2.1 -1.05 -3.75 -3.0 -3.6 -3.7 -3.4 -4.25 -2.95 L-4.3 -3.35 Q-4.55 -4.65 -3.15 -5.35 L-2.6 -5.65 -1.85 -5.6 Q-0.45 -5.55 0.75 -6.1 0.15 -6.25 -0.5 -6.4 -1.15 -6.5 -1.75 -6.45 L-2.0 -6.4 Q-1.8 -6.65 -1.55 -7.0 -1.35 -7.3 -1.1 -7.5 L-0.6 -7.95 Q-0.05 -7.65 0.6 -7.6 1.05 -7.55 1.25 -7.15 L2.65 -7.05 M-6.8 5.85 Q-6.55 5.75 -6.75 5.95 -7.0 6.25 -6.8 5.85 M-5.8 -2.4 Q-5.6 -2.75 -5.35 -3.0 -5.25 -2.7 -5.55 -2.25 -5.8 -1.9 -5.95 -1.9 -5.95 -2.15 -5.8 -2.4" fill="#ffffff" fill-opacity="0.5019608" fill-rule="evenodd" stroke="none"/>
      <path d="M2.95 -4.4 Q3.15 -4.2 3.1 -3.8 3.05 -3.55 2.8 -3.5 L2.45 -3.4 Q2.15 -3.6 2.05 -3.85 2.0 -4.05 2.0 -4.3 L2.0 -4.4 2.15 -4.6 2.25 -4.7 2.25 -4.75 Q2.65 -4.7 2.95 -4.4 M0.1 -4.0 Q0.0 -3.7 -0.3 -3.7 -0.7 -3.75 -0.85 -4.15 L-0.85 -4.35 Q-0.75 -4.6 -0.55 -4.7 L-0.4 -4.7 Q-0.1 -4.7 0.05 -4.45 0.2 -4.25 0.1 -4.0 M-2.3 -0.75 Q-2.5 -1.1 -2.2 -1.8 -1.65 -3.05 -0.25 -2.9 L0.25 -2.85 0.55 -2.75 0.6 -2.65 0.8 -2.3 Q0.95 -2.05 0.95 -1.75 1.9 -2.0 2.75 -1.65 3.15 -1.5 3.3 -1.15 3.25 -0.3 2.6 0.25 L2.2 0.6 Q4.35 2.55 1.95 3.05 1.6 3.15 1.55 2.7 1.5 1.55 2.0 0.75 L1.7 1.0 Q1.4 1.2 0.95 1.2 L0.8 1.1 Q0.65 0.9 0.6 0.7 0.55 0.55 0.55 0.35 0.6 0.25 0.75 0.2 1.2 0.05 1.55 0.4 L1.6 0.5 2.0 0.25 Q2.4 -0.05 2.5 -0.6 L2.55 -0.8 2.5 -0.85 Q2.1 -1.15 1.65 -1.1 L1.65 -1.0 Q1.75 -0.8 1.6 -0.6 L1.25 -0.3 Q0.65 -0.5 0.2 -0.15 -0.2 0.15 -0.65 0.05 L-0.85 -0.15 -0.85 -0.3 -1.85 -0.4 Q-1.4 -0.65 -0.95 -1.05 L-2.3 -0.75 M4.0 -0.75 L4.15 -0.65 4.35 -0.5 4.4 -0.4 Q4.45 -0.2 4.4 0.05 4.35 0.4 4.05 0.6 3.25 0.6 3.45 -0.25 3.55 -0.7 4.0 -0.75 M-1.5 -0.1 Q-1.4 -0.05 -1.3 0.05 -1.15 0.4 -1.25 0.7 -1.4 1.15 -1.8 1.45 -2.95 1.4 -2.5 0.35 -2.3 -0.1 -1.85 -0.2 L-1.5 -0.1 M-0.75 1.5 L-0.2 1.5 Q0.05 1.55 0.15 1.8 0.35 2.35 0.0 2.85 -0.5 3.5 -1.35 3.05 -1.65 2.75 -1.55 2.3 -1.45 1.65 -0.75 1.5" fill="#ffffff" fill-rule="evenodd" stroke="none"/>
      <path d="M2.95 -4.4 Q3.15 -4.2 3.1 -3.8 3.05 -3.55 2.8 -3.5 L2.45 -3.4 Q2.15 -3.6 2.05 -3.85 2.0 -4.05 2.0 -4.3 L2.0 -4.4 2.15 -4.6 2.25 -4.7 2.25 -4.75 Q2.65 -4.7 2.95 -4.4 M0.1 -4.0 Q0.0 -3.7 -0.3 -3.7 -0.7 -3.75 -0.85 -4.15 L-0.85 -4.35 Q-0.75 -4.6 -0.55 -4.7 L-0.4 -4.7 Q-0.1 -4.7 0.05 -4.45 0.2 -4.25 0.1 -4.0 M-2.3 -0.75 Q-2.5 -1.1 -2.2 -1.8 -1.65 -3.05 -0.25 -2.9 L0.25 -2.85 0.55 -2.75 0.6 -2.65 0.8 -2.3 Q0.95 -2.05 0.95 -1.75 1.9 -2.0 2.75 -1.65 3.15 -1.5 3.3 -1.15 3.25 -0.3 2.6 0.25 L2.2 0.6 Q4.35 2.55 1.95 3.05 1.6 3.15 1.55 2.7 1.5 1.55 2.0 0.75 L1.7 1.0 Q1.4 1.2 0.95 1.2 L0.8 1.1 Q0.65 0.9 0.6 0.7 0.55 0.55 0.55 0.35 0.6 0.25 0.75 0.2 1.2 0.05 1.55 0.4 L1.6 0.5 2.0 0.25 Q2.4 -0.05 2.5 -0.6 L2.55 -0.8 2.5 -0.85 Q2.1 -1.15 1.65 -1.1 L1.65 -1.0 Q1.75 -0.8 1.6 -0.6 L1.25 -0.3 Q0.65 -0.5 0.2 -0.15 -0.2 0.15 -0.65 0.05 L-0.85 -0.15 -0.85 -0.3 -1.85 -0.4 M4.0 -0.75 L4.15 -0.65 4.35 -0.5 4.4 -0.4 Q4.45 -0.2 4.4 0.05 4.35 0.4 4.05 0.6 3.25 0.6 3.45 -0.25 3.55 -0.7 4.0 -0.75 M-1.5 -0.1 Q-1.4 -0.05 -1.3 0.05 -1.15 0.4 -1.25 0.7 -1.4 1.15 -1.8 1.45 -2.95 1.4 -2.5 0.35 -2.3 -0.1 -1.85 -0.2 L-1.5 -0.1 M-0.75 1.5 L-0.2 1.5 Q0.05 1.55 0.15 1.8 0.35 2.35 0.0 2.85 -0.5 3.5 -1.35 3.05 -1.65 2.75 -1.55 2.3 -1.45 1.65 -0.75 1.5 Z" fill="none" stroke="#ffffff" stroke-linecap="round" stroke-linejoin="round" stroke-opacity="0.3529412" stroke-width="1.25"/>
    </g>
    <g id="shape2" transform="matrix(1.0, 0.0, 0.0, 1.0, 15.7, 70.35)">
      <path d="M10.35 -68.35 Q10.6 -68.45 10.85 -68.55 L11.3 -68.65 Q13.15 -67.65 14.35 -65.7 15.4 -64.0 15.85 -62.1 14.1 -61.9 13.05 -63.9 L12.8 -64.35 Q12.95 -65.6 11.55 -67.0 11.25 -66.9 11.0 -66.75 10.55 -66.45 10.2 -66.1 9.6 -64.85 9.85 -63.55 L9.55 -63.25 Q9.7 -63.05 9.95 -63.0 L10.0 -62.85 Q10.45 -61.65 11.25 -62.2 L11.75 -62.6 Q12.9 -61.4 13.35 -59.9 14.15 -57.1 13.05 -55.05 12.4 -53.55 10.85 -52.7 11.65 -54.25 12.7 -55.6 12.85 -55.95 12.8 -56.25 12.75 -56.5 12.85 -56.75 L12.9 -56.85 11.9 -56.45 Q11.45 -56.25 11.05 -55.95 L11.1 -55.9 Q10.3 -54.75 9.45 -53.65 L9.35 -53.8 9.25 -54.05 7.75 -53.35 Q7.0 -52.9 6.15 -52.45 5.95 -52.35 5.75 -52.3 L5.4 -52.1 Q4.7 -51.7 4.05 -51.8 L2.35 -51.75 3.25 -52.1 Q3.1 -52.25 2.95 -52.4 3.95 -52.8 5.3 -53.2 8.7 -55.25 11.1 -58.5 L11.15 -58.55 Q11.15 -59.7 10.35 -61.0 L10.3 -61.05 Q9.05 -61.8 7.6 -62.15 6.9 -62.15 6.4 -61.7 6.2 -61.55 6.05 -61.35 5.7 -60.9 5.5 -60.2 5.1 -59.1 4.3 -59.45 3.95 -61.05 3.6 -62.75 3.5 -63.35 2.95 -63.8 2.45 -64.2 2.8 -64.75 3.6 -65.25 4.5 -64.8 4.95 -64.6 5.35 -64.25 L5.95 -64.05 Q6.55 -64.35 7.1 -64.7 L7.3 -64.8 8.5 -65.6 Q9.4 -66.8 10.2 -68.1 L10.35 -68.35 M7.1 -62.25 L6.85 -62.25 6.7 -62.1 7.1 -62.25 M-13.2 -57.55 Q-13.1 -57.65 -13.05 -57.8 L-13.1 -57.8 Q-12.2 -58.6 -11.15 -58.95 -11.6 -58.45 -12.1 -57.95 -12.7 -57.4 -12.3 -56.8 -10.55 -56.75 -9.1 -58.35 L-8.45 -59.1 Q-7.1 -58.95 -5.85 -58.6 -5.65 -58.25 -5.7 -57.8 -5.75 -57.55 -5.65 -57.35 L-5.05 -56.4 -4.95 -56.25 -4.65 -56.15 -4.95 -56.2 -4.95 -56.1 Q-5.95 -55.4 -6.6 -56.25 -8.45 -56.0 -9.8 -54.3 -10.3 -53.6 -9.5 -52.75 L-6.95 -50.2 -6.75 -50.15 Q-6.25 -50.05 -5.85 -50.35 -5.55 -50.6 -5.2 -50.45 -5.05 -50.3 -4.95 -50.1 L-4.9 -50.0 -5.15 -49.9 -5.55 -49.75 Q-6.3 -47.85 -5.85 -45.8 L-5.9 -45.9 Q-8.9 -48.8 -12.45 -47.05 L-12.55 -46.85 -13.05 -46.75 -13.1 -46.65 -13.1 -46.85 Q-12.9 -48.45 -12.4 -49.95 -12.8 -50.55 -12.65 -51.1 L-12.25 -50.85 Q-11.75 -49.8 -11.5 -48.6 -10.8 -48.85 -10.5 -49.35 L-10.15 -49.15 -9.8 -49.3 -10.3 -49.9 Q-10.15 -50.65 -10.7 -51.85 -11.8 -54.15 -13.55 -55.2 L-13.65 -55.35 -13.75 -55.6 -14.0 -56.4 -13.6 -56.95 -13.2 -57.55 M-6.95 -56.8 L-7.0 -56.9 -7.05 -56.85 -6.95 -56.8 M-8.05 -49.8 L-8.05 -49.8" fill="#ffffff" fill-rule="evenodd" stroke="none"/>
      <path d="M10.35 -68.35 Q10.6 -68.45 10.85 -68.55 L11.3 -68.65 Q13.15 -67.65 14.35 -65.7 15.4 -64.0 15.85 -62.1 14.1 -61.9 13.05 -63.9 L12.8 -64.35 Q12.95 -65.6 11.55 -67.0 11.25 -66.9 11.0 -66.75 10.55 -66.45 10.2 -66.1 9.6 -64.85 9.85 -63.55 L9.55 -63.25 Q9.7 -63.05 9.95 -63.0 L10.0 -62.85 Q10.45 -61.65 11.25 -62.2 L11.75 -62.6 Q12.9 -61.4 13.35 -59.9 14.15 -57.1 13.05 -55.05 12.4 -53.55 10.85 -52.7 11.65 -54.25 12.7 -55.6 12.85 -55.95 12.8 -56.25 12.75 -56.5 12.85 -56.75 L12.9 -56.85 11.9 -56.45 Q11.45 -56.25 11.05 -55.95 L11.1 -55.9 Q10.3 -54.75 9.45 -53.65 L9.35 -53.8 9.25 -54.05 7.75 -53.35 Q7.0 -52.9 6.15 -52.45 5.95 -52.35 5.75 -52.3 L5.4 -52.1 Q4.7 -51.7 4.05 -51.8 L2.35 -51.75 3.25 -52.1 Q3.1 -52.25 2.95 -52.4 3.95 -52.8 5.3 -53.2 8.7 -55.25 11.1 -58.5 L11.15 -58.55 Q11.15 -59.7 10.35 -61.0 L10.3 -61.05 Q9.05 -61.8 7.6 -62.15 6.9 -62.15 6.4 -61.7 6.2 -61.55 6.05 -61.35 5.7 -60.9 5.5 -60.2 5.1 -59.1 4.3 -59.45 3.95 -61.05 3.6 -62.75 3.5 -63.35 2.95 -63.8 2.45 -64.2 2.8 -64.75 3.6 -65.25 4.5 -64.8 4.95 -64.6 5.35 -64.25 L5.95 -64.05 Q6.55 -64.35 7.1 -64.7 L7.3 -64.8 8.5 -65.6 Q9.4 -66.8 10.2 -68.1 L10.35 -68.35 M-13.2 -57.55 Q-13.1 -57.65 -13.05 -57.8 L-13.1 -57.8 Q-12.2 -58.6 -11.15 -58.95 -11.6 -58.45 -12.1 -57.95 -12.7 -57.4 -12.3 -56.8 -10.55 -56.75 -9.1 -58.35 L-8.45 -59.1 Q-7.1 -58.95 -5.85 -58.6 -5.65 -58.25 -5.7 -57.8 -5.75 -57.55 -5.65 -57.35 L-5.05 -56.4 -4.95 -56.25 -4.65 -56.15 -4.95 -56.2 -4.95 -56.1 Q-5.95 -55.4 -6.6 -56.25 -8.45 -56.0 -9.8 -54.3 -10.3 -53.6 -9.5 -52.75 L-6.95 -50.2 -6.75 -50.15 Q-6.25 -50.05 -5.85 -50.35 -5.55 -50.6 -5.2 -50.45 -5.05 -50.3 -4.95 -50.1 L-4.9 -50.0 -5.15 -49.9 -5.55 -49.75 Q-6.3 -47.85 -5.85 -45.8 L-5.9 -45.9 Q-8.9 -48.8 -12.45 -47.05 L-12.55 -46.85 -13.05 -46.75 -13.1 -46.65 -13.1 -46.85 Q-12.9 -48.45 -12.4 -49.95 -12.8 -50.55 -12.65 -51.1 L-12.25 -50.85 Q-11.75 -49.8 -11.5 -48.6 -10.8 -48.85 -10.5 -49.35 L-10.15 -49.15 -9.8 -49.3 -10.3 -49.9 Q-10.15 -50.65 -10.7 -51.85 -11.8 -54.15 -13.55 -55.2 L-13.65 -55.35 -13.75 -55.6 -14.0 -56.4 -13.6 -56.95 -13.2 -57.55 M-6.95 -56.8 L-7.0 -56.9 -7.05 -56.85 -6.95 -56.8 M-8.05 -49.8 L-8.05 -49.8 Z" fill="none" stroke="#ffffff" stroke-linecap="round" stroke-linejoin="round" stroke-opacity="0.3019608" stroke-width="1.1500000000000001"/>
    </g>
  </defs>
</svg>
