<?xml version="1.0" encoding="UTF-8" standalone="no"?>
<svg xmlns:ffdec="https://www.free-decompiler.com/flash" xmlns:xlink="http://www.w3.org/1999/xlink" ffdec:objectType="frame" height="156.45px" width="195.65px" xmlns="http://www.w3.org/2000/svg">
  <g transform="matrix(1.0, 0.0, 0.0, 1.0, 97.85, 156.45)">
    <use ffdec:characterId="4" height="40.95" transform="matrix(-0.9804, -0.0398, -0.1267, -1.0188, -38.4361, -59.4144)" width="43.4" xlink:href="#sprite0"/>
    <use ffdec:characterId="4" height="40.95" transform="matrix(-0.6809, -0.9241, 0.601, -0.641, -31.1877, -41.7972)" width="43.4" xlink:href="#sprite0"/>
    <use ffdec:characterId="4" height="40.95" transform="matrix(-0.96, -0.4751, 0.5046, -0.7869, 41.0165, -89.9679)" width="43.4" xlink:href="#sprite0"/>
    <use ffdec:characterId="2" height="40.95" transform="matrix(-0.4734, -0.7372, 0.8469, -0.7738, 48.841, -82.1146)" width="43.4" xlink:href="#sprite1"/>
    <use ffdec:characterId="4" height="40.95" transform="matrix(-0.1899, -0.917, 1.0529, -0.1349, 48.3044, -71.226)" width="43.4" xlink:href="#sprite0"/>
    <use ffdec:characterId="4" height="40.95" transform="matrix(-0.9095, -0.6689, 0.509, -0.7164, -33.5081, -32.5473)" width="43.4" xlink:href="#sprite0"/>
    <use ffdec:characterId="2" height="40.95" transform="matrix(0.3562, -0.7976, -1.1082, -0.2823, -52.4484, -36.0332)" width="43.4" xlink:href="#sprite1"/>
    <use ffdec:characterId="6" height="40.95" transform="matrix(-0.1444, -0.8601, -1.0776, 0.3775, -35.4368, -31.7928)" width="43.4" xlink:href="#sprite2"/>
    <use ffdec:characterId="2" height="40.95" transform="matrix(0.393, -0.7816, 1.0956, 0.3346, 35.8571, -68.6909)" width="43.4" xlink:href="#sprite1"/>
    <use ffdec:characterId="2" height="40.95" transform="matrix(-0.4907, -0.7225, 0.824, -0.7929, -30.4459, -22.2031)" width="43.4" xlink:href="#sprite1"/>
    <use ffdec:characterId="2" height="40.95" transform="matrix(-0.8344, 0.2496, -0.5237, -1.0567, 31.653, -90.4938)" width="43.4" xlink:href="#sprite1"/>
    <use ffdec:characterId="4" height="40.95" transform="matrix(-0.96, -0.4751, 0.5046, -0.7869, 16.7165, -103.6179)" width="43.4" xlink:href="#sprite0"/>
    <use ffdec:characterId="2" height="40.95" transform="matrix(-0.2086, -0.8434, 1.0425, -0.4555, 29.0864, 0.0041)" width="43.4" xlink:href="#sprite1"/>
    <use ffdec:characterId="6" height="40.95" transform="matrix(-0.7171, -0.6, 0.7405, -0.7583, 24.6385, -30.3287)" width="43.4" xlink:href="#sprite2"/>
    <use ffdec:characterId="6" height="40.95" transform="matrix(-0.1899, -0.917, 1.0529, -0.1349, 13.1544, -12.926)" width="43.4" xlink:href="#sprite2"/>
    <use ffdec:characterId="4" height="40.95" transform="matrix(-0.8483, -0.3933, 0.5182, -0.9245, 19.7354, -14.2069)" width="43.4" xlink:href="#sprite0"/>
    <use ffdec:characterId="2" height="40.95" transform="matrix(-0.9044, -0.2353, 0.3445, -1.0016, 3.6658, -17.0776)" width="43.4" xlink:href="#sprite1"/>
    <use ffdec:characterId="2" height="40.95" transform="matrix(-0.6368, 0.5936, -0.9067, -0.6907, 38.1991, -86.1451)" width="43.4" xlink:href="#sprite1"/>
  </g>
  <defs>
    <g id="sprite0" transform="matrix(1.0, 0.0, 0.0, 1.0, 21.7, 40.95)">
      <use ffdec:characterId="3" height="5.85" transform="matrix(7.0, 0.0, 0.0, 7.0, -21.7, -40.95)" width="6.2" xlink:href="#shape0"/>
    </g>
    <g id="shape0" transform="matrix(1.0, 0.0, 0.0, 1.0, 3.1, 5.85)">
      <path d="M-1.75 -3.65 L-2.5 -3.75 Q-2.9 -3.85 -2.95 -4.0 L-3.1 -4.0 -2.95 -4.15 -2.9 -4.15 Q-2.65 -4.3 -2.3 -4.4 -1.95 -4.5 -1.65 -4.75 -1.55 -4.8 -1.5 -4.8 L-1.15 -4.7 -0.75 -4.7 -0.85 -4.95 -0.5 -4.75 -0.5 -4.7 -0.45 -4.8 -0.25 -5.05 -0.05 -5.25 0.6 -5.6 Q0.85 -5.75 1.15 -5.85 L1.15 -5.8 Q1.15 -5.45 1.05 -5.0 L0.95 -4.7 1.1 -4.65 Q1.9 -4.6 2.3 -3.95 2.5 -3.65 2.75 -3.35 L2.8 -3.35 Q2.95 -3.35 3.05 -3.25 3.15 -3.2 3.1 -3.1 L1.35 -2.95 1.2 -2.95 Q1.75 -2.25 1.85 -1.35 1.9 -0.95 2.0 -0.6 2.15 -0.55 2.2 -0.35 L2.35 -0.1 2.2 -0.1 2.3 0.0 2.15 -0.1 Q0.85 -0.2 -0.2 -1.25 -0.45 -1.45 -0.5 -1.65 -0.65 -1.85 -0.65 -2.0 -0.75 -1.5 -1.3 -1.2 -1.55 -1.05 -1.75 -0.7 L-1.8 -0.65 -1.9 -0.45 -1.9 -0.55 Q-2.0 -0.9 -2.0 -1.5 L-2.05 -1.75 -2.15 -2.45 Q-2.3 -3.1 -1.8 -3.6 L-1.75 -3.65 M1.8 -3.25 L1.9 -3.25 2.55 -3.35 Q2.2 -3.55 1.9 -4.0 1.6 -4.5 0.9 -4.5 0.8 -4.45 0.75 -4.6 L0.8 -4.65 0.85 -4.65 Q0.8 -4.95 0.85 -5.3 0.9 -5.5 1.0 -5.65 0.65 -5.25 0.1 -5.1 L0.0 -5.05 -0.2 -4.95 -0.25 -4.85 -0.4 -4.6 -0.45 -4.5 -0.5 -4.5 -0.5 -4.45 -0.6 -4.45 -0.6 -4.3 -0.65 -4.4 -0.8 -4.4 -1.15 -4.5 -1.45 -4.45 -1.5 -4.45 -1.6 -4.45 Q-1.8 -4.35 -2.05 -4.25 -2.25 -4.1 -2.45 -4.05 L-2.25 -4.0 Q-1.95 -3.95 -1.75 -3.9 L-1.6 -3.8 -1.45 -3.75 -1.65 -3.7 Q-1.65 -3.4 -1.85 -3.15 L-1.85 -3.1 Q-1.95 -2.8 -1.9 -2.45 L-1.85 -2.0 -1.75 -1.6 -1.75 -1.1 -1.6 -1.3 -1.55 -1.4 -1.25 -1.65 Q-0.85 -1.9 -0.65 -2.25 L-0.65 -2.1 -0.6 -2.25 -0.55 -2.1 -0.5 -2.15 Q-0.2 -1.55 0.35 -1.1 0.55 -0.95 0.8 -0.9 1.4 -0.7 1.75 -0.4 L1.85 -0.35 1.9 -0.35 1.9 -0.4 Q1.7 -0.65 1.65 -0.9 1.5 -1.25 1.5 -1.65 L1.45 -1.85 1.45 -1.95 Q1.45 -2.15 1.35 -2.35 L1.2 -2.55 1.1 -2.65 Q0.95 -2.85 0.95 -3.05 0.85 -3.1 0.8 -3.2 L0.75 -3.3 1.0 -3.25 1.2 -3.2 1.8 -3.25 M-0.65 -2.0 L-0.65 -2.0" fill="#111111" fill-rule="evenodd" stroke="none"/>
      <path d="M-0.65 -2.0 L-0.65 -2.0" fill="#6a4920" fill-rule="evenodd" stroke="none"/>
      <path d="M0.0 -5.05 L0.1 -5.1 Q0.65 -5.25 1.0 -5.65 0.9 -5.5 0.85 -5.3 0.8 -4.95 0.85 -4.65 L0.8 -4.65 0.75 -4.6 Q0.8 -4.45 0.9 -4.5 1.6 -4.5 1.9 -4.0 2.2 -3.55 2.55 -3.35 L1.9 -3.25 1.8 -3.25 Q1.85 -3.3 1.9 -3.35 L1.85 -3.4 Q1.45 -3.45 1.55 -3.6 1.6 -3.75 1.5 -3.85 1.0 -4.25 0.45 -4.05 L0.3 -4.15 0.2 -4.25 0.25 -4.25 Q0.35 -4.35 0.45 -4.3 0.5 -4.3 0.55 -4.35 L0.5 -4.55 Q0.5 -4.6 0.55 -4.65 0.55 -4.7 0.55 -4.75 0.4 -4.85 0.25 -4.95 L0.0 -5.05 M1.5 -1.65 Q1.5 -1.25 1.65 -0.9 1.35 -1.2 0.95 -1.25 L0.85 -1.4 Q0.6 -1.7 0.25 -1.85 0.25 -1.9 0.25 -1.95 0.15 -2.1 0.25 -2.25 0.3 -2.35 0.25 -2.45 0.2 -2.5 0.15 -2.5 L-0.3 -2.45 Q-0.5 -2.55 -0.55 -2.7 -0.6 -2.9 -0.85 -2.95 L-0.9 -2.95 Q-1.05 -2.9 -1.1 -2.75 L-1.05 -2.6 -0.9 -2.45 Q-0.9 -2.35 -0.95 -2.35 L-1.1 -2.2 -1.1 -2.25 Q-1.25 -2.25 -1.25 -2.3 -1.25 -2.6 -1.35 -2.85 -1.4 -3.15 -1.6 -3.35 L-1.45 -3.5 Q-1.4 -3.55 -1.45 -3.6 -1.15 -3.6 -0.95 -3.7 -0.85 -3.9 -0.95 -4.05 -1.15 -4.3 -1.4 -4.45 L-1.45 -4.45 -1.15 -4.5 -0.8 -4.4 -0.65 -4.4 -0.6 -4.3 -0.6 -4.45 -0.5 -4.45 -0.5 -4.5 -0.45 -4.5 -0.4 -4.35 Q-0.3 -3.8 0.05 -3.45 L0.05 -3.4 Q0.05 -3.05 0.3 -2.8 L0.75 -2.05 0.8 -1.95 Q1.2 -1.7 1.5 -1.65" fill="#88994c" fill-rule="evenodd" stroke="none"/>
      <path d="M0.0 -5.05 L0.25 -4.95 Q0.4 -4.85 0.55 -4.75 0.55 -4.7 0.55 -4.65 0.5 -4.6 0.5 -4.55 L0.55 -4.35 Q0.5 -4.3 0.45 -4.3 0.35 -4.35 0.25 -4.25 L0.2 -4.25 0.3 -4.15 0.45 -4.05 Q1.0 -4.25 1.5 -3.85 1.6 -3.75 1.55 -3.6 1.45 -3.45 1.85 -3.4 L1.9 -3.35 Q1.85 -3.3 1.8 -3.25 L1.2 -3.2 1.1 -3.25 1.0 -3.25 0.75 -3.3 0.8 -3.2 Q0.85 -3.1 0.95 -3.05 0.95 -2.85 1.1 -2.65 L1.2 -2.55 1.35 -2.35 Q1.45 -2.15 1.45 -1.95 L1.45 -1.85 1.5 -1.65 Q1.2 -1.7 0.8 -1.95 L0.75 -2.05 0.3 -2.8 Q0.05 -3.05 0.05 -3.4 L0.05 -3.45 Q-0.3 -3.8 -0.4 -4.35 L-0.45 -4.5 -0.4 -4.6 -0.25 -4.85 -0.2 -4.95 0.0 -5.05 M1.65 -0.9 Q1.7 -0.65 1.9 -0.4 L1.85 -0.35 1.75 -0.4 Q1.4 -0.7 0.8 -0.9 0.55 -0.95 0.35 -1.1 -0.2 -1.55 -0.5 -2.15 L-0.55 -2.1 -0.6 -2.25 -0.65 -2.1 -0.65 -2.25 Q-0.85 -1.9 -1.25 -1.65 L-1.55 -1.4 -1.6 -1.3 -1.75 -1.1 -1.75 -1.6 -1.85 -2.0 -1.9 -2.45 Q-1.95 -2.8 -1.85 -3.1 L-1.85 -3.15 Q-1.65 -3.4 -1.65 -3.7 L-1.45 -3.75 -1.6 -3.8 -1.6 -3.85 -1.75 -3.9 Q-1.95 -3.95 -2.25 -4.0 L-2.45 -4.05 Q-2.25 -4.1 -2.05 -4.25 -1.8 -4.35 -1.6 -4.45 L-1.5 -4.45 -1.45 -4.45 -1.4 -4.45 Q-1.15 -4.3 -0.95 -4.05 -0.85 -3.9 -0.95 -3.7 -1.15 -3.6 -1.45 -3.6 -1.4 -3.55 -1.45 -3.5 L-1.6 -3.35 Q-1.4 -3.15 -1.35 -2.85 -1.25 -2.6 -1.25 -2.3 -1.25 -2.25 -1.1 -2.25 L-1.1 -2.2 -0.95 -2.35 Q-0.9 -2.35 -0.9 -2.45 L-1.05 -2.6 -1.1 -2.75 Q-1.05 -2.9 -0.9 -2.95 L-0.85 -2.95 Q-0.6 -2.9 -0.55 -2.7 -0.5 -2.55 -0.3 -2.45 L0.15 -2.5 Q0.2 -2.5 0.25 -2.45 0.3 -2.35 0.25 -2.25 0.15 -2.1 0.25 -1.95 0.25 -1.9 0.25 -1.85 0.6 -1.7 0.85 -1.4 L0.95 -1.25 Q1.35 -1.2 1.65 -0.9" fill="#5b6632" fill-rule="evenodd" stroke="none"/>
    </g>
    <g id="sprite1" transform="matrix(1.0, 0.0, 0.0, 1.0, 21.7, 40.95)">
      <use ffdec:characterId="1" height="5.85" transform="matrix(7.0, 0.0, 0.0, 7.0, -21.7, -40.95)" width="6.2" xlink:href="#shape1"/>
    </g>
    <g id="shape1" transform="matrix(1.0, 0.0, 0.0, 1.0, 3.1, 5.85)">
      <path d="M-1.75 -3.65 L-2.5 -3.75 Q-2.9 -3.85 -2.95 -4.0 L-3.1 -4.0 -2.95 -4.15 -2.9 -4.15 Q-2.65 -4.3 -2.3 -4.4 -1.95 -4.5 -1.65 -4.75 -1.55 -4.8 -1.5 -4.8 L-1.15 -4.7 -0.75 -4.7 -0.85 -4.95 -0.5 -4.75 -0.5 -4.7 -0.45 -4.8 -0.25 -5.05 -0.05 -5.25 0.6 -5.6 Q0.85 -5.75 1.15 -5.85 L1.15 -5.8 Q1.15 -5.45 1.05 -5.0 L0.95 -4.7 1.1 -4.65 Q1.9 -4.6 2.3 -3.95 2.5 -3.65 2.75 -3.35 L2.8 -3.35 Q2.95 -3.35 3.05 -3.25 3.15 -3.2 3.1 -3.1 L1.35 -2.95 1.2 -2.95 Q1.75 -2.25 1.85 -1.35 1.9 -0.95 2.0 -0.6 2.15 -0.55 2.2 -0.35 L2.35 -0.1 2.2 -0.1 2.3 0.0 2.15 -0.1 Q0.85 -0.2 -0.2 -1.25 -0.45 -1.45 -0.5 -1.65 -0.65 -1.85 -0.65 -2.0 -0.75 -1.5 -1.3 -1.2 -1.55 -1.05 -1.75 -0.7 L-1.8 -0.65 -1.9 -0.45 -1.9 -0.55 Q-2.0 -0.9 -2.0 -1.5 L-2.05 -1.75 -2.15 -2.45 Q-2.3 -3.1 -1.8 -3.6 L-1.75 -3.65 M1.8 -3.25 L1.9 -3.25 2.55 -3.35 Q2.2 -3.55 1.9 -4.0 1.6 -4.5 0.9 -4.5 0.8 -4.45 0.75 -4.6 L0.8 -4.65 0.85 -4.65 Q0.8 -4.95 0.85 -5.3 0.9 -5.5 1.0 -5.65 0.65 -5.25 0.1 -5.1 L0.0 -5.05 -0.2 -4.95 -0.25 -4.85 -0.4 -4.6 -0.45 -4.5 -0.5 -4.5 -0.5 -4.45 -0.6 -4.45 -0.6 -4.3 -0.65 -4.4 -0.8 -4.4 -1.15 -4.5 -1.45 -4.45 -1.5 -4.45 -1.6 -4.45 Q-1.8 -4.35 -2.05 -4.25 -2.25 -4.1 -2.45 -4.05 L-2.25 -4.0 Q-1.95 -3.95 -1.75 -3.9 L-1.6 -3.8 -1.45 -3.75 -1.65 -3.7 Q-1.65 -3.4 -1.85 -3.15 L-1.85 -3.1 Q-1.95 -2.8 -1.9 -2.45 L-1.85 -2.0 -1.75 -1.6 -1.75 -1.1 -1.6 -1.3 -1.55 -1.4 -1.25 -1.65 Q-0.85 -1.9 -0.65 -2.25 L-0.65 -2.1 -0.6 -2.25 -0.55 -2.1 -0.5 -2.15 Q-0.2 -1.55 0.35 -1.1 0.55 -0.95 0.8 -0.9 1.4 -0.7 1.75 -0.4 L1.85 -0.35 1.9 -0.35 1.9 -0.4 Q1.7 -0.65 1.65 -0.9 1.5 -1.25 1.5 -1.65 L1.45 -1.85 1.45 -1.95 Q1.45 -2.15 1.35 -2.35 L1.2 -2.55 1.1 -2.65 Q0.95 -2.85 0.95 -3.05 0.85 -3.1 0.8 -3.2 L0.75 -3.3 1.0 -3.25 1.2 -3.2 1.8 -3.25 M-0.65 -2.0 L-0.65 -2.0" fill="#111111" fill-rule="evenodd" stroke="none"/>
      <path d="M-0.65 -2.0 L-0.65 -2.0" fill="#6a4920" fill-rule="evenodd" stroke="none"/>
      <path d="M0.0 -5.05 L0.1 -5.1 Q0.65 -5.25 1.0 -5.65 0.9 -5.5 0.85 -5.3 0.8 -4.95 0.85 -4.65 L0.8 -4.65 0.75 -4.6 Q0.8 -4.45 0.9 -4.5 1.6 -4.5 1.9 -4.0 2.2 -3.55 2.55 -3.35 L1.9 -3.25 1.8 -3.25 Q1.85 -3.3 1.9 -3.35 L1.85 -3.4 Q1.45 -3.45 1.55 -3.6 1.6 -3.75 1.5 -3.85 1.0 -4.25 0.45 -4.05 L0.3 -4.15 0.2 -4.25 0.25 -4.25 Q0.35 -4.35 0.45 -4.3 0.5 -4.3 0.55 -4.35 L0.5 -4.55 Q0.5 -4.6 0.55 -4.65 0.55 -4.7 0.55 -4.75 0.4 -4.85 0.25 -4.95 L0.0 -5.05 M1.5 -1.65 Q1.5 -1.25 1.65 -0.9 1.35 -1.2 0.95 -1.25 L0.85 -1.4 Q0.6 -1.7 0.25 -1.85 0.25 -1.9 0.25 -1.95 0.15 -2.1 0.25 -2.25 0.3 -2.35 0.25 -2.45 0.2 -2.5 0.15 -2.5 L-0.3 -2.45 Q-0.5 -2.55 -0.55 -2.7 -0.6 -2.9 -0.85 -2.95 L-0.9 -2.95 Q-1.05 -2.9 -1.1 -2.75 L-1.05 -2.6 -0.9 -2.45 Q-0.9 -2.35 -0.95 -2.35 L-1.1 -2.2 -1.1 -2.25 Q-1.25 -2.25 -1.25 -2.3 -1.25 -2.6 -1.35 -2.85 -1.4 -3.15 -1.6 -3.35 L-1.45 -3.5 Q-1.4 -3.55 -1.45 -3.6 -1.15 -3.6 -0.95 -3.7 -0.85 -3.9 -0.95 -4.05 -1.15 -4.3 -1.4 -4.45 L-1.45 -4.45 -1.15 -4.5 -0.8 -4.4 -0.65 -4.4 -0.6 -4.3 -0.6 -4.45 -0.5 -4.45 -0.5 -4.5 -0.45 -4.5 -0.4 -4.35 Q-0.3 -3.8 0.05 -3.45 L0.05 -3.4 Q0.05 -3.05 0.3 -2.8 L0.75 -2.05 0.8 -1.95 Q1.2 -1.7 1.5 -1.65" fill="#cc3300" fill-rule="evenodd" stroke="none"/>
      <path d="M0.0 -5.05 L0.25 -4.95 Q0.4 -4.85 0.55 -4.75 0.55 -4.7 0.55 -4.65 0.5 -4.6 0.5 -4.55 L0.55 -4.35 Q0.5 -4.3 0.45 -4.3 0.35 -4.35 0.25 -4.25 L0.2 -4.25 0.3 -4.15 0.45 -4.05 Q1.0 -4.25 1.5 -3.85 1.6 -3.75 1.55 -3.6 1.45 -3.45 1.85 -3.4 L1.9 -3.35 Q1.85 -3.3 1.8 -3.25 L1.2 -3.2 1.1 -3.25 1.0 -3.25 0.75 -3.3 0.8 -3.2 Q0.85 -3.1 0.95 -3.05 0.95 -2.85 1.1 -2.65 L1.2 -2.55 1.35 -2.35 Q1.45 -2.15 1.45 -1.95 L1.45 -1.85 1.5 -1.65 Q1.2 -1.7 0.8 -1.95 L0.75 -2.05 0.3 -2.8 Q0.05 -3.05 0.05 -3.4 L0.05 -3.45 Q-0.3 -3.8 -0.4 -4.35 L-0.45 -4.5 -0.4 -4.6 -0.25 -4.85 -0.2 -4.95 0.0 -5.05 M1.65 -0.9 Q1.7 -0.65 1.9 -0.4 L1.85 -0.35 1.75 -0.4 Q1.4 -0.7 0.8 -0.9 0.55 -0.95 0.35 -1.1 -0.2 -1.55 -0.5 -2.15 L-0.55 -2.1 -0.6 -2.25 -0.65 -2.1 -0.65 -2.25 Q-0.85 -1.9 -1.25 -1.65 L-1.55 -1.4 -1.6 -1.3 -1.75 -1.1 -1.75 -1.6 -1.85 -2.0 -1.9 -2.45 Q-1.95 -2.8 -1.85 -3.1 L-1.85 -3.15 Q-1.65 -3.4 -1.65 -3.7 L-1.45 -3.75 -1.6 -3.8 -1.6 -3.85 -1.75 -3.9 Q-1.95 -3.95 -2.25 -4.0 L-2.45 -4.05 Q-2.25 -4.1 -2.05 -4.25 -1.8 -4.35 -1.6 -4.45 L-1.5 -4.45 -1.45 -4.45 -1.4 -4.45 Q-1.15 -4.3 -0.95 -4.05 -0.85 -3.9 -0.95 -3.7 -1.15 -3.6 -1.45 -3.6 -1.4 -3.55 -1.45 -3.5 L-1.6 -3.35 Q-1.4 -3.15 -1.35 -2.85 -1.25 -2.6 -1.25 -2.3 -1.25 -2.25 -1.1 -2.25 L-1.1 -2.2 -0.95 -2.35 Q-0.9 -2.35 -0.9 -2.45 L-1.05 -2.6 -1.1 -2.75 Q-1.05 -2.9 -0.9 -2.95 L-0.85 -2.95 Q-0.6 -2.9 -0.55 -2.7 -0.5 -2.55 -0.3 -2.45 L0.15 -2.5 Q0.2 -2.5 0.25 -2.45 0.3 -2.35 0.25 -2.25 0.15 -2.1 0.25 -1.95 0.25 -1.9 0.25 -1.85 0.6 -1.7 0.85 -1.4 L0.95 -1.25 Q1.35 -1.2 1.65 -0.9" fill="#992400" fill-rule="evenodd" stroke="none"/>
    </g>
    <g id="sprite2" transform="matrix(1.0, 0.0, 0.0, 1.0, 21.7, 40.95)">
      <use ffdec:characterId="5" height="5.85" transform="matrix(7.0, 0.0, 0.0, 7.0, -21.7, -40.95)" width="6.2" xlink:href="#shape2"/>
    </g>
    <g id="shape2" transform="matrix(1.0, 0.0, 0.0, 1.0, 3.1, 5.85)">
      <path d="M-1.75 -3.65 L-2.5 -3.75 Q-2.9 -3.85 -2.95 -4.0 L-3.1 -4.0 -2.95 -4.15 -2.9 -4.15 Q-2.65 -4.3 -2.3 -4.4 -1.95 -4.5 -1.65 -4.75 -1.55 -4.8 -1.5 -4.8 L-1.15 -4.7 -0.75 -4.7 -0.85 -4.95 -0.5 -4.75 -0.5 -4.7 -0.45 -4.8 -0.25 -5.05 -0.05 -5.25 0.6 -5.6 Q0.85 -5.75 1.15 -5.85 L1.15 -5.8 Q1.15 -5.45 1.05 -5.0 L0.95 -4.7 1.1 -4.65 Q1.9 -4.6 2.3 -3.95 2.5 -3.65 2.75 -3.35 L2.8 -3.35 Q2.95 -3.35 3.05 -3.25 3.15 -3.2 3.1 -3.1 L1.35 -2.95 1.2 -2.95 Q1.75 -2.25 1.85 -1.35 1.9 -0.95 2.0 -0.6 2.15 -0.55 2.2 -0.35 L2.35 -0.1 2.2 -0.1 2.3 0.0 2.15 -0.1 Q0.85 -0.2 -0.2 -1.25 -0.45 -1.45 -0.5 -1.65 -0.65 -1.85 -0.65 -2.0 -0.75 -1.5 -1.3 -1.2 -1.55 -1.05 -1.75 -0.7 L-1.8 -0.65 -1.9 -0.45 -1.9 -0.55 Q-2.0 -0.9 -2.0 -1.5 L-2.05 -1.75 -2.15 -2.45 Q-2.3 -3.1 -1.8 -3.6 L-1.75 -3.65 M1.8 -3.25 L1.9 -3.25 2.55 -3.35 Q2.2 -3.55 1.9 -4.0 1.6 -4.5 0.9 -4.5 0.8 -4.45 0.75 -4.6 L0.8 -4.65 0.85 -4.65 Q0.8 -4.95 0.85 -5.3 0.9 -5.5 1.0 -5.65 0.65 -5.25 0.1 -5.1 L0.0 -5.05 -0.2 -4.95 -0.25 -4.85 -0.4 -4.6 -0.45 -4.5 -0.5 -4.5 -0.5 -4.45 -0.6 -4.45 -0.6 -4.3 -0.65 -4.4 -0.8 -4.4 -1.15 -4.5 -1.45 -4.45 -1.5 -4.45 -1.6 -4.45 Q-1.8 -4.35 -2.05 -4.25 -2.25 -4.1 -2.45 -4.05 L-2.25 -4.0 Q-1.95 -3.95 -1.75 -3.9 L-1.6 -3.8 -1.45 -3.75 -1.65 -3.7 Q-1.65 -3.4 -1.85 -3.15 L-1.85 -3.1 Q-1.95 -2.8 -1.9 -2.45 L-1.85 -2.0 -1.75 -1.6 -1.75 -1.1 -1.6 -1.3 -1.55 -1.4 -1.25 -1.65 Q-0.85 -1.9 -0.65 -2.25 L-0.65 -2.1 -0.6 -2.25 -0.55 -2.1 -0.5 -2.15 Q-0.2 -1.55 0.35 -1.1 0.55 -0.95 0.8 -0.9 1.4 -0.7 1.75 -0.4 L1.85 -0.35 1.9 -0.35 1.9 -0.4 Q1.7 -0.65 1.65 -0.9 1.5 -1.25 1.5 -1.65 L1.45 -1.85 1.45 -1.95 Q1.45 -2.15 1.35 -2.35 L1.2 -2.55 1.1 -2.65 Q0.95 -2.85 0.95 -3.05 0.85 -3.1 0.8 -3.2 L0.75 -3.3 1.0 -3.25 1.2 -3.2 1.8 -3.25 M-0.65 -2.0 L-0.65 -2.0" fill="#111111" fill-rule="evenodd" stroke="none"/>
      <path d="M-0.65 -2.0 L-0.65 -2.0" fill="#6a4920" fill-rule="evenodd" stroke="none"/>
      <path d="M0.0 -5.05 L0.25 -4.95 Q0.4 -4.85 0.55 -4.75 0.55 -4.7 0.55 -4.65 0.5 -4.6 0.5 -4.55 L0.55 -4.35 Q0.5 -4.3 0.45 -4.3 0.35 -4.35 0.25 -4.25 L0.2 -4.25 0.3 -4.15 0.45 -4.05 Q1.0 -4.25 1.5 -3.85 1.6 -3.75 1.55 -3.6 1.45 -3.45 1.85 -3.4 L1.9 -3.35 Q1.85 -3.3 1.8 -3.25 L1.2 -3.2 1.1 -3.25 1.0 -3.25 0.75 -3.3 0.8 -3.2 0.55 -3.25 Q0.7 -2.8 1.1 -2.65 L1.2 -2.55 1.35 -2.35 Q1.2 -2.15 1.45 -1.95 L1.45 -1.85 1.5 -1.65 Q1.2 -1.7 0.8 -1.95 L0.75 -2.05 0.3 -2.8 Q0.05 -3.05 0.05 -3.4 L0.05 -3.45 Q-0.3 -3.8 -0.4 -4.35 L-0.45 -4.5 -0.4 -4.6 -0.25 -4.85 -0.2 -4.95 0.0 -5.05 M1.65 -0.9 Q1.7 -0.65 1.9 -0.4 L1.85 -0.35 1.75 -0.4 Q1.4 -0.7 0.8 -0.9 0.55 -0.95 0.35 -1.1 -0.2 -1.55 -0.5 -2.15 L-0.55 -2.1 -0.6 -2.25 -0.65 -2.1 -0.65 -2.25 Q-0.85 -1.9 -1.25 -1.65 L-1.55 -1.4 -1.6 -1.3 -1.75 -1.1 -1.75 -1.6 -1.85 -2.0 -1.9 -2.45 Q-1.95 -2.8 -1.85 -3.1 L-1.85 -3.15 Q-1.65 -3.4 -1.65 -3.7 L-1.45 -3.75 -1.6 -3.8 -1.6 -3.85 -1.75 -3.9 Q-1.95 -3.95 -2.25 -4.0 L-2.45 -4.05 Q-2.25 -4.1 -2.05 -4.25 -1.8 -4.35 -1.6 -4.45 L-1.5 -4.45 -1.45 -4.45 -1.4 -4.45 Q-1.15 -4.3 -0.95 -4.05 -0.85 -3.9 -0.95 -3.7 -1.15 -3.6 -1.45 -3.6 -1.4 -3.55 -1.45 -3.5 L-1.6 -3.35 Q-1.4 -3.15 -1.35 -2.85 -1.25 -2.6 -1.25 -2.3 -1.25 -2.25 -1.1 -2.25 L-1.1 -2.2 -0.95 -2.35 Q-0.9 -2.35 -0.9 -2.45 L-1.05 -2.6 -1.1 -2.75 Q-1.05 -2.9 -0.9 -2.95 L-0.85 -2.95 Q-0.6 -2.9 -0.55 -2.7 -0.5 -2.55 -0.3 -2.45 L0.15 -2.5 Q0.2 -2.5 0.25 -2.45 0.3 -2.35 0.25 -2.25 0.15 -2.1 0.25 -1.95 0.25 -1.9 0.25 -1.85 0.6 -1.7 0.85 -1.4 L0.95 -1.25 Q1.35 -1.2 1.65 -0.9" fill="#73422a" fill-rule="evenodd" stroke="none"/>
      <path d="M0.0 -5.05 L0.1 -5.1 Q0.65 -5.25 1.0 -5.65 0.9 -5.5 0.85 -5.3 0.8 -4.95 0.85 -4.65 L0.8 -4.65 0.75 -4.6 Q0.8 -4.45 0.9 -4.5 1.6 -4.5 1.9 -4.0 2.2 -3.55 2.55 -3.35 L1.9 -3.25 1.8 -3.25 Q1.85 -3.3 1.9 -3.35 L1.85 -3.4 Q1.45 -3.45 1.55 -3.6 1.6 -3.75 1.5 -3.85 1.0 -4.25 0.45 -4.05 L0.3 -4.15 0.2 -4.25 0.25 -4.25 Q0.35 -4.35 0.45 -4.3 0.5 -4.3 0.55 -4.35 L0.5 -4.55 Q0.5 -4.6 0.55 -4.65 0.55 -4.7 0.55 -4.75 0.4 -4.85 0.25 -4.95 L0.0 -5.05 M0.8 -3.2 Q0.85 -3.1 0.95 -3.05 0.95 -2.85 1.1 -2.65 0.7 -2.8 0.55 -3.25 L0.8 -3.2 M1.35 -2.35 Q1.45 -2.15 1.45 -1.95 1.2 -2.15 1.35 -2.35 M1.5 -1.65 Q1.5 -1.25 1.65 -0.9 1.35 -1.2 0.95 -1.25 L0.85 -1.4 Q0.6 -1.7 0.25 -1.85 0.25 -1.9 0.25 -1.95 0.15 -2.1 0.25 -2.25 0.3 -2.35 0.25 -2.45 0.2 -2.5 0.15 -2.5 L-0.3 -2.45 Q-0.5 -2.55 -0.55 -2.7 -0.6 -2.9 -0.85 -2.95 L-0.9 -2.95 Q-1.05 -2.9 -1.1 -2.75 L-1.05 -2.6 -0.9 -2.45 Q-0.9 -2.35 -0.95 -2.35 L-1.1 -2.2 -1.1 -2.25 Q-1.25 -2.25 -1.25 -2.3 -1.25 -2.6 -1.35 -2.85 -1.4 -3.15 -1.6 -3.35 L-1.45 -3.5 Q-1.4 -3.55 -1.45 -3.6 -1.15 -3.6 -0.95 -3.7 -0.85 -3.9 -0.95 -4.05 -1.15 -4.3 -1.4 -4.45 L-1.45 -4.45 -1.15 -4.5 -0.8 -4.4 -0.65 -4.4 -0.6 -4.3 -0.6 -4.45 -0.5 -4.45 -0.5 -4.5 -0.45 -4.5 -0.4 -4.35 Q-0.3 -3.8 0.05 -3.45 L0.05 -3.4 Q0.05 -3.05 0.3 -2.8 L0.75 -2.05 0.8 -1.95 Q1.2 -1.7 1.5 -1.65" fill="#b36741" fill-rule="evenodd" stroke="none"/>
    </g>
  </defs>
</svg>
