<?xml version="1.0" encoding="UTF-8" standalone="no"?>
<svg xmlns:ffdec="https://www.free-decompiler.com/flash" xmlns:xlink="http://www.w3.org/1999/xlink" ffdec:objectType="frame" height="203.0px" width="197.4px" xmlns="http://www.w3.org/2000/svg">
  <g transform="matrix(1.0, 0.0, 0.0, 1.0, 99.1, 100.1)">
    <use ffdec:characterId="693" height="29.0" transform="matrix(7.0, 0.0, 0.0, 7.0, -99.1, -100.1)" width="28.2" xlink:href="#shape0"/>
    <use ffdec:characterId="530" height="11.4" transform="matrix(7.0, 0.0, 0.0, 7.0, -64.75, -31.5)" width="11.2" xlink:href="#shape1"/>
    <use ffdec:characterId="528" height="7.35" transform="matrix(7.0, 0.0, 0.0, 7.0, -11.7, 7.5)" width="7.1" xlink:href="#shape2"/>
    <use ffdec:characterId="526" height="1.7" transform="matrix(7.0, 0.0, 0.0, 7.0, 15.65, -36.6)" width="1.7" xlink:href="#shape3"/>
  </g>
  <defs>
    <g id="shape0" transform="matrix(1.0, 0.0, 0.0, 1.0, 14.1, 29.0)">
      <path d="M14.1 -15.35 L14.1 -13.25 Q14.05 -12.5 13.95 -11.95 13.8 -11.45 13.35 -10.3 L12.15 -7.25 Q11.75 -6.15 11.2 -5.2 10.6 -4.15 9.75 -3.15 8.6 -2.3 7.5 -1.75 6.2 -1.05 1.95 -0.2 L1.0 0.0 Q-2.2 -0.4 -5.3 -2.05 -8.3 -3.65 -11.45 -6.6 -12.75 -7.85 -13.5 -10.7 -14.1 -12.95 -14.1 -15.1 -14.1 -16.55 -13.55 -18.55 -12.85 -21.1 -11.55 -23.15 -7.9 -29.0 -0.8 -29.0 2.2 -29.0 3.55 -28.9 5.3 -28.75 6.45 -28.25 7.55 -27.8 8.7 -26.8 9.65 -25.95 11.25 -24.0 12.75 -22.25 13.5 -19.8 14.1 -17.75 14.1 -15.35" fill="#99ffff" fill-opacity="0.25882354" fill-rule="evenodd" stroke="none"/>
    </g>
    <g id="shape1" transform="matrix(1.0, 0.0, 0.0, 1.0, 5.6, 5.7)">
      <path d="M3.85 -3.85 L3.8 -3.85 Q3.4 -4.25 3.1 -4.5 2.95 -4.65 2.7 -4.75 L2.35 -4.95 1.9 -5.2 Q1.6 -5.35 1.15 -5.4 0.3 -5.45 -0.25 -5.4 L-0.4 -5.4 -0.5 -5.35 -1.0 -5.25 -0.95 -5.3 -1.2 -5.25 -1.3 -5.25 -1.35 -5.2 Q-1.5 -5.15 -1.7 -5.1 L-1.8 -5.1 -2.1 -5.0 -2.95 -4.55 Q-3.45 -4.25 -3.85 -3.75 L-4.25 -3.25 Q-4.85 -2.55 -5.05 -1.85 -5.25 -1.3 -5.25 -0.5 L-5.2 0.1 -5.2 0.45 -5.15 1.3 Q-5.1 1.55 -4.9 1.95 L-4.85 2.3 Q-4.75 2.65 -4.55 3.05 -4.3 3.5 -4.05 3.7 L-3.55 3.95 -3.4 4.1 -3.0 4.4 -2.95 4.4 -2.8 4.5 Q-2.55 4.7 -2.25 4.85 -1.35 5.25 0.35 5.25 3.3 5.25 4.5 2.9 5.3 1.45 5.3 -0.25 5.3 -0.65 5.15 -1.2 5.15 -1.7 4.75 -2.6 4.35 -3.6 3.85 -3.85 M0.85 -5.6 Q3.2 -5.05 4.4 -3.45 5.5 -1.95 5.6 0.35 L5.3 1.5 Q4.95 2.75 4.8 3.0 L4.15 4.0 Q4.05 4.5 2.95 5.1 L2.85 5.15 2.2 5.4 1.55 5.55 0.75 5.65 0.25 5.7 -1.1 5.7 -1.4 5.6 -1.7 5.55 Q-3.5 4.65 -4.3 3.85 -5.05 3.1 -5.15 2.25 L-5.35 1.7 -5.4 1.65 -5.45 1.5 Q-5.6 0.75 -5.6 0.0 -5.6 -0.9 -5.35 -1.55 -5.15 -2.35 -4.45 -3.3 -4.1 -3.9 -3.55 -4.3 -3.4 -4.65 -2.5 -5.0 -1.7 -5.3 -0.8 -5.45 L-0.6 -5.55 0.25 -5.65 0.3 -5.65 0.4 -5.7 0.65 -5.65 0.75 -5.65 0.85 -5.6" fill="#ffffff" fill-rule="evenodd" stroke="none"/>
    </g>
    <g id="shape2" transform="matrix(1.0, 0.0, 0.0, 1.0, 3.55, 3.6)">
      <path d="M2.05 -2.55 Q1.2 -3.25 0.05 -3.25 L-0.15 -3.25 -0.55 -3.2 -0.85 -3.15 Q-1.5 -3.0 -2.0 -2.65 L-2.45 -2.3 -2.75 -1.85 Q-3.0 -1.5 -3.1 -1.0 -3.25 -0.65 -3.25 -0.45 L-3.2 0.3 Q-3.2 0.7 -3.1 1.0 L-2.7 1.95 Q-2.65 2.1 -2.45 2.3 L-2.15 2.6 -1.9 2.8 -1.8 2.85 Q-1.25 3.2 -0.5 3.25 L0.2 3.35 Q1.85 3.35 2.7 1.9 3.3 0.9 3.3 0.0 L3.3 -0.15 Q3.25 -1.05 2.75 -1.85 L2.05 -2.55 M2.8 -2.15 Q3.5 -1.2 3.55 0.25 L3.35 0.95 Q3.15 1.75 3.05 1.9 L2.6 2.55 Q2.55 2.9 1.8 3.3 1.0 3.7 0.4 3.75 L0.6 3.65 -0.7 3.65 -0.9 3.55 -1.05 3.55 Q-2.2 3.0 -2.75 2.45 -3.2 2.0 -3.25 1.45 L-3.4 1.1 -3.4 1.05 -3.45 0.95 Q-3.55 0.5 -3.55 0.0 -3.55 -0.55 -3.4 -0.95 -3.25 -1.45 -2.85 -2.1 -2.35 -2.8 -1.5 -3.1 -1.2 -3.25 -0.6 -3.35 0.0 -3.5 0.2 -3.6 L0.25 -3.6 Q1.95 -3.25 2.8 -2.15 M-0.65 -3.3 L-0.65 -3.3" fill="#ffffff" fill-rule="evenodd" stroke="none"/>
    </g>
    <g id="shape3" transform="matrix(1.0, 0.0, 0.0, 1.0, 0.8, 0.75)">
      <path d="M0.55 -0.15 L0.5 -0.3 Q0.4 -0.45 0.15 -0.5 -0.1 -0.55 -0.35 -0.4 -0.6 -0.2 -0.6 0.1 L-0.45 0.45 Q-0.3 0.85 -0.1 0.85 0.3 0.85 0.5 0.55 0.6 0.4 0.6 0.25 L0.6 0.1 0.55 -0.15 M0.6 -0.45 Q0.9 -0.15 0.9 0.4 0.9 0.6 0.75 0.7 0.65 0.8 0.35 0.95 L-0.35 0.95 Q-0.7 0.8 -0.8 0.55 L-0.8 0.15 Q-0.8 -0.25 -0.55 -0.5 -0.3 -0.75 0.05 -0.75 0.4 -0.7 0.6 -0.45" fill="#ffffff" fill-rule="evenodd" stroke="none"/>
    </g>
  </defs>
</svg>
