<?xml version="1.0" encoding="UTF-8" standalone="no"?>
<svg xmlns:ffdec="https://www.free-decompiler.com/flash" xmlns:xlink="http://www.w3.org/1999/xlink" ffdec:objectType="frame" height="1673.7px" width="4752.75px" xmlns="http://www.w3.org/2000/svg">
  <g transform="matrix(1.0, 0.0, 0.0, 1.0, 561.85, 1280.0)">
    <use ffdec:characterId="1198" height="0.0" id="am_Background_1" transform="matrix(1.0, 0.0, 0.0, 1.0, 857.95, -506.75)" width="0.0" xlink:href="#sprite0"/>
    <use ffdec:characterId="1199" height="0.0" id="am_Background_2" transform="matrix(1.0, 0.0, 0.0, 1.0, 927.05, -498.95)" width="0.0" xlink:href="#sprite1"/>
    <use ffdec:characterId="1200" height="0.0" id="am_Background_3" transform="matrix(1.0, 0.0, 0.0, 1.0, 1028.75, -519.75)" width="0.0" xlink:href="#sprite2"/>
    <use ffdec:characterId="1201" height="0.0" id="am_Background_5" transform="matrix(1.0, 0.0, 0.0, 1.0, 1110.25, -507.95)" width="0.0" xlink:href="#sprite3"/>
    <use ffdec:characterId="1202" height="0.0" id="am_Background_4" transform="matrix(1.0, 0.0, 0.0, 1.0, 1081.9, -541.4)" width="0.0" xlink:href="#sprite4"/>
    <use ffdec:characterId="1203" height="0.0" id="am_Background_7" transform="matrix(1.0, 0.0, 0.0, 1.0, 1188.8, -448.25)" width="0.0" xlink:href="#sprite5"/>
    <use ffdec:characterId="1204" height="0.0" id="am_Background_6" transform="matrix(1.0, 0.0, 0.0, 1.0, 1206.95, -428.6)" width="0.0" xlink:href="#sprite6"/>
    <use ffdec:characterId="1205" height="0.0" id="am_Background_9" transform="matrix(1.0, 0.0, 0.0, 1.0, 1373.9, -366.3)" width="0.0" xlink:href="#sprite7"/>
    <use ffdec:characterId="1206" height="0.0" id="am_Background_8" transform="matrix(1.0, 0.0, 0.0, 1.0, 1292.9, -377.45)" width="0.0" xlink:href="#sprite8"/>
    <use ffdec:characterId="1051" height="54.65" transform="matrix(1.0, 0.0, 0.0, 1.0, -252.6, -266.35)" width="191.85" xlink:href="#shape0"/>
    <use ffdec:characterId="709" ffdec:characterName="a_RoomDirector_Basic" height="67.0" transform="matrix(1.0, 0.0, 0.0, 1.0, -160.0, -1240.0)" width="377.0" xlink:href="#sprite9"/>
    <use ffdec:characterId="26" ffdec:characterName="a_Handle" height="20.0" transform="matrix(1.0, 0.0, 0.0, 1.0, -300.0, -1280.0)" width="20.0" xlink:href="#sprite10"/>
    <use ffdec:characterId="1209" height="900.3" transform="matrix(1.0, 0.0, 0.0, 1.0, -117.7, -506.6)" width="2822.9" xlink:href="#sprite11"/>
    <use ffdec:characterId="1210" height="0.0" id="am_Foreground_2" transform="matrix(1.0, 0.0, 0.0, 1.0, 924.95, -264.85)" width="0.0" xlink:href="#sprite13"/>
    <use ffdec:characterId="1211" height="0.0" id="am_Foreground_1" transform="matrix(1.0, 0.0, 0.0, 1.0, 1072.35, -233.7)" width="0.0" xlink:href="#sprite14"/>
    <use ffdec:characterId="942" height="1147.7" id="am_Foreground" transform="matrix(0.9975, 0.0648, -0.0653, 0.9975, -486.8605, -1104.6157)" width="4689.5" xlink:href="#sprite15"/>
    <use ffdec:characterId="1108" ffdec:characterName="ac_OasisPuck" height="0.0" transform="matrix(1.0, 0.0, 0.0, 1.0, 1088.4, -461.55)" width="0.0" xlink:href="#sprite18"/>
    <use ffdec:characterId="1108" ffdec:characterName="ac_OasisPuck" height="0.0" id="__id359_" transform="matrix(1.0, 0.0, 0.0, 1.0, 1109.3, -264.85)" width="0.0" xlink:href="#sprite18"/>
    <use ffdec:characterId="227" ffdec:characterName="ac_OasisRaptor" height="0.0" transform="matrix(1.0, 0.0, 0.0, 1.0, 983.8, -448.8)" width="0.0" xlink:href="#sprite19"/>
    <use ffdec:characterId="226" ffdec:characterName="ac_OasisRaptor2" height="0.0" transform="matrix(1.0, 0.0, 0.0, 1.0, 994.2, -298.05)" width="0.0" xlink:href="#sprite20"/>
    <use ffdec:characterId="226" ffdec:characterName="ac_OasisRaptor2" height="0.0" transform="matrix(1.0, 0.0, 0.0, 1.0, 1050.7, -224.9)" width="0.0" xlink:href="#sprite20"/>
    <use ffdec:characterId="220" ffdec:characterName="ac_RaptorHorned2" height="0.0" transform="matrix(1.0, 0.0, 0.0, 1.0, 879.3, -426.4)" width="0.0" xlink:href="#sprite21"/>
    <use ffdec:characterId="223" ffdec:characterName="ac_RaptorHornedGreater" height="0.0" transform="matrix(1.0, 0.0, 0.0, 1.0, 873.75, -286.0)" width="0.0" xlink:href="#sprite22"/>
    <use ffdec:characterId="1213" height="525.0" id="am_CollisionObject" transform="matrix(1.0, 0.0, 0.0, 1.0, -22.5, -462.5)" width="2445.0" xlink:href="#sprite23"/>
  </g>
  <defs>
    <g id="shape0" transform="matrix(1.0, 0.0, 0.0, 1.0, 252.6, 266.35)">
      <path d="M-97.05 -262.2 Q-91.55 -263.5 -86.7 -264.1 -82.5 -265.4 -79.25 -265.9 -65.9 -267.95 -60.75 -260.3 -64.1 -257.95 -68.7 -255.65 -70.5 -253.1 -76.35 -250.55 L-76.35 -250.25 Q-76.35 -245.95 -100.85 -237.4 L-102.75 -235.1 Q-105.6 -232.2 -105.6 -230.75 -105.6 -228.85 -105.25 -227.95 L-104.95 -226.85 Q-88.15 -229.3 -81.75 -224.65 -79.7 -223.2 -79.0 -221.15 -78.65 -220.2 -78.65 -219.2 -78.65 -215.9 -80.8 -214.35 -84.5 -211.7 -95.35 -211.7 -120.8 -211.7 -137.7 -217.0 -142.6 -218.55 -147.0 -220.65 L-150.8 -222.3 -158.25 -221.95 -158.1 -221.2 -170.05 -224.55 -205.6 -233.3 Q-204.45 -234.25 -196.85 -235.65 L-197.05 -235.65 -212.4 -234.95 -214.5 -235.45 Q-236.55 -241.15 -252.6 -247.4 L-212.7 -247.15 -197.05 -247.75 -188.15 -248.1 -154.7 -247.8 -131.2 -251.3 -129.25 -251.85 -118.7 -254.35 Q-109.95 -259.2 -97.05 -262.2" fill="#ffe375" fill-rule="evenodd" stroke="none"/>
    </g>
    <g id="sprite9" transform="matrix(1.0, 0.0, 0.0, 1.0, 0.0, 0.0)">
      <use ffdec:characterId="708" height="67.0" transform="matrix(1.0, 0.0, 0.0, 1.0, 0.0, 0.0)" width="377.0" xlink:href="#shape1"/>
    </g>
    <g id="shape1" transform="matrix(1.0, 0.0, 0.0, 1.0, 0.0, 0.0)">
      <path d="M367.65 0.0 Q377.0 0.0 377.0 7.3 L377.0 59.7 Q377.0 67.0 367.65 67.0 L9.35 67.0 Q0.0 67.0 0.0 59.7 L0.0 7.3 Q0.0 0.0 9.35 0.0 L367.65 0.0" fill="#e43f43" fill-rule="evenodd" stroke="none"/>
      <path d="M373.45 47.5 Q360.15 59.2 350.2 45.15 347.8 41.85 349.4 37.65 351.5 32.05 355.95 29.5 L357.95 29.65 Q358.6 29.75 359.1 30.2 359.85 30.75 360.3 31.6 L360.45 32.25 360.4 33.0 360.15 33.75 359.3 34.85 Q358.2 35.75 356.7 35.5 355.85 36.55 355.3 37.7 354.45 39.5 353.85 41.5 353.3 43.45 354.15 45.3 L354.45 46.0 Q361.85 48.85 370.05 45.95 372.3 45.15 373.45 47.5 M335.45 23.25 L335.9 22.5 Q336.2 21.75 336.65 21.15 337.2 20.4 338.05 19.9 L338.95 19.5 Q341.3 20.05 341.4 22.3 341.45 24.15 340.95 25.95 340.5 27.4 338.95 27.5 L336.75 26.25 Q335.4 25.45 335.45 24.0 L335.45 23.25 M338.95 32.5 Q342.45 34.15 341.5 38.3 340.75 41.6 340.75 45.0 340.75 47.8 337.95 48.5 334.4 47.1 335.4 42.75 336.15 39.45 336.15 36.0 336.1 32.95 338.95 32.5 M328.05 31.9 L328.95 31.5 330.95 31.65 Q331.6 31.75 332.1 32.2 332.85 32.75 333.3 33.6 L333.45 34.25 333.15 35.0 332.6 35.6 330.65 37.05 Q330.1 37.5 329.7 38.25 L331.15 39.1 331.9 39.8 332.45 40.5 Q332.65 42.8 331.75 44.8 L329.3 49.45 Q326.9 53.45 323.5 51.75 L320.95 52.5 318.8 51.15 Q317.65 50.3 317.0 49.0 L315.95 46.75 312.65 47.7 309.45 48.0 Q306.65 45.75 307.45 42.0 308.1 38.8 310.4 36.45 312.8 34.1 315.95 33.65 L315.95 33.5 Q319.05 33.4 318.75 36.2 318.45 38.8 315.7 39.75 312.95 40.65 313.45 42.25 314.45 41.65 315.55 41.35 L318.15 41.3 Q318.7 41.4 319.2 41.75 320.15 42.75 320.6 44.05 321.1 45.45 322.1 45.85 322.95 46.2 324.1 47.05 L324.8 46.3 326.55 44.65 Q327.7 43.6 325.95 43.5 323.0 43.0 323.5 40.05 323.95 37.65 325.0 35.45 326.05 33.2 328.05 31.9 M284.95 22.5 Q283.2 21.45 283.45 19.5 L283.85 18.95 Q284.85 18.15 285.7 18.4 288.35 19.25 290.9 17.85 292.6 16.9 293.95 16.5 298.85 15.85 302.3 19.2 305.7 22.5 303.45 26.65 302.0 29.3 300.7 32.0 L300.45 32.75 300.35 33.0 Q301.1 33.4 301.95 33.6 302.6 33.75 303.15 34.1 L304.2 34.75 Q305.7 37.2 305.05 39.9 303.4 46.8 297.75 51.35 291.2 56.65 287.45 50.0 L287.55 49.3 287.6 49.15 Q284.0 45.35 285.05 38.45 285.95 32.5 285.65 26.55 285.55 24.55 286.15 23.2 L284.95 22.5 M291.05 23.6 Q292.45 26.9 291.4 31.5 290.05 37.4 290.9 43.45 291.25 46.1 290.15 47.75 L293.7 48.0 294.7 47.25 295.65 46.45 297.0 45.05 Q298.25 43.7 299.0 42.05 L299.7 40.5 300.15 39.75 300.3 39.4 295.65 37.6 Q294.3 37.05 293.45 35.75 L293.4 35.05 Q293.3 33.85 294.0 33.05 296.15 30.6 297.75 27.8 299.05 25.5 299.45 23.0 L299.15 22.6 292.9 22.85 Q291.95 23.05 291.05 23.6 M247.2 31.0 Q251.2 34.4 251.55 39.25 252.15 47.5 243.9 49.15 239.55 50.0 235.95 47.5 234.65 45.45 234.4 43.05 233.85 38.55 236.8 35.35 239.7 32.15 242.95 30.5 L245.95 30.7 247.2 31.0 M246.45 40.25 L246.15 38.95 Q245.7 38.15 244.9 37.6 243.55 36.65 242.45 37.0 L240.9 38.5 Q239.9 39.4 239.5 40.7 239.15 41.9 239.7 43.0 241.7 46.25 245.3 42.85 246.35 41.8 246.45 40.25 M260.35 45.3 L260.6 47.5 Q260.9 50.35 259.55 52.65 L258.95 53.25 Q254.55 53.0 254.35 47.8 254.2 44.75 255.0 41.85 257.05 34.2 263.95 31.5 L266.9 31.8 Q268.45 32.15 269.9 32.85 271.85 33.8 271.2 35.75 L270.85 36.45 Q270.45 36.9 270.0 36.85 266.1 36.55 262.7 37.75 261.75 38.75 261.2 40.0 260.05 42.45 260.35 45.3 M277.25 45.85 L282.95 46.7 Q285.3 47.05 285.45 49.25 L284.5 50.35 Q277.7 54.25 273.8 48.55 273.45 48.0 273.75 47.4 274.45 45.65 275.95 45.5 L277.25 45.85 M235.95 18.5 Q242.75 21.3 235.8 24.75 L233.7 25.75 Q232.6 31.25 232.25 36.85 231.9 43.2 227.95 46.5 222.9 39.5 225.65 29.15 L225.8 28.65 Q222.15 29.6 220.45 26.5 221.4 22.4 226.9 21.9 L227.45 21.85 229.5 11.4 Q230.55 5.2 234.95 2.5 238.15 9.0 235.45 18.7 L235.95 18.5 M220.05 34.25 Q219.85 36.25 218.0 37.3 216.35 38.25 214.95 39.5 215.65 40.4 222.0 40.15 224.3 40.05 224.45 42.25 218.9 47.0 210.05 45.15 208.85 44.9 207.7 44.25 206.7 41.3 208.55 39.1 210.7 36.6 213.3 34.6 L215.25 32.8 Q216.4 31.6 217.95 31.65 L217.95 31.5 Q220.3 32.05 220.05 34.25 M205.15 31.1 L206.2 31.8 206.9 32.6 207.2 33.25 Q207.75 35.3 206.3 37.1 204.4 39.45 201.65 40.5 199.75 41.25 199.45 42.75 L203.95 43.6 Q206.3 44.05 206.45 46.25 206.2 47.65 204.9 48.1 200.6 49.6 196.45 48.0 193.8 45.25 194.15 41.25 194.45 37.9 196.5 35.1 198.7 32.15 202.5 31.05 L203.95 30.5 205.15 31.1 M175.95 21.5 Q178.3 22.05 178.5 24.25 178.65 26.2 178.05 27.95 177.55 29.4 175.95 29.5 173.35 29.2 173.4 26.75 173.45 24.9 173.95 23.15 174.4 21.6 175.95 21.65 L175.95 21.5 M168.1 20.75 Q161.2 18.05 155.1 19.2 155.55 21.35 154.9 24.25 153.55 30.05 153.4 36.0 153.3 40.2 149.95 41.5 145.5 37.85 146.95 30.95 147.9 26.5 147.65 22.2 L146.65 22.85 Q145.0 24.0 143.7 22.25 L143.5 21.5 Q143.1 20.1 144.2 19.25 L147.95 16.95 Q148.75 15.25 150.95 14.5 151.7 14.8 152.35 15.25 L154.95 14.5 Q176.25 10.25 172.2 26.7 168.75 40.45 156.0 47.3 145.9 52.7 141.45 45.75 141.45 44.35 142.95 44.4 158.7 44.8 166.6 31.4 169.4 26.6 168.7 21.25 L168.1 20.75 M181.25 34.9 L182.2 35.0 183.15 33.5 184.0 32.05 185.0 30.55 Q185.7 29.5 186.95 29.65 L186.95 29.5 Q188.85 29.4 190.15 30.85 L192.4 33.1 Q193.9 34.35 193.2 36.0 L191.85 36.85 189.5 36.9 187.45 36.25 Q186.2 38.1 185.25 40.05 L182.8 44.55 Q181.2 47.2 178.45 46.0 177.25 45.2 177.35 43.75 L177.45 40.75 177.65 37.05 177.95 35.5 178.5 35.05 179.0 34.8 179.95 34.7 181.25 34.9 M170.05 42.7 Q171.7 39.55 171.8 36.0 171.85 33.7 173.95 33.5 177.45 35.15 176.85 39.35 176.35 42.45 175.35 45.5 174.5 48.05 171.95 48.5 167.85 46.85 170.05 42.7 M123.45 33.45 Q129.25 29.2 134.15 33.05 138.75 36.65 140.55 42.4 142.05 47.25 140.2 50.95 137.0 52.15 135.6 48.9 L134.85 46.55 134.25 42.7 Q133.85 40.3 132.7 41.95 L131.85 43.35 130.9 44.1 130.0 44.3 128.55 43.85 127.7 43.2 127.6 41.7 127.75 40.25 127.9 39.45 128.05 38.75 128.2 37.95 128.45 37.2 Q126.25 37.65 124.8 40.0 L123.4 42.55 Q122.45 44.65 121.9 46.9 121.55 48.35 119.95 48.45 116.75 47.65 117.05 44.2 117.25 42.25 117.8 40.45 118.6 37.9 118.35 35.25 118.05 31.95 120.95 31.45 L122.15 32.05 122.95 32.75 123.45 33.45 M97.4 36.75 Q100.95 32.4 105.95 30.6 L105.95 30.45 Q111.6 34.05 114.3 41.05 116.45 46.55 110.1 48.8 102.2 51.5 96.45 45.95 L96.35 42.3 Q94.4 45.9 90.3 47.9 85.45 50.25 80.45 48.95 78.9 47.45 78.65 45.2 78.45 43.7 78.5 42.2 78.6 37.85 81.6 34.6 83.2 32.85 84.95 32.45 L88.95 33.0 93.0 33.5 Q95.65 34.05 97.2 35.95 L97.4 36.75 M86.95 37.2 L85.25 38.7 Q84.45 39.6 83.95 40.7 83.45 41.8 83.45 42.95 84.8 45.05 88.2 43.1 90.45 41.75 91.95 39.7 L90.75 38.6 Q88.95 37.7 86.95 37.2 M105.95 37.35 Q105.65 36.15 104.7 36.7 L103.15 38.15 Q101.95 39.1 101.7 40.5 101.45 41.95 101.45 43.45 104.0 45.4 107.6 44.35 110.15 43.55 111.45 41.2 110.85 39.95 109.45 39.95 106.5 39.85 105.95 37.35 M63.15 19.7 Q64.95 23.75 63.7 29.25 L63.45 30.4 Q67.6 29.8 71.15 27.6 72.8 26.6 72.45 24.7 72.25 21.2 68.25 20.2 L63.15 19.7 M51.45 4.55 L52.2 4.2 53.0 3.8 Q53.45 3.6 53.95 3.45 L54.95 3.6 Q56.45 4.1 57.8 4.95 58.6 5.45 59.2 6.2 59.8 9.8 57.25 12.5 54.3 15.65 50.35 17.75 46.7 19.75 43.7 17.2 43.3 15.0 43.4 12.7 L43.8 9.05 Q44.4 5.65 46.75 3.25 47.2 2.7 47.95 2.45 L49.2 3.05 50.2 3.75 50.95 4.45 51.45 4.55 M50.95 7.2 Q49.5 8.15 48.95 9.55 48.3 11.15 49.25 12.25 49.45 12.45 50.45 11.95 L51.3 10.55 Q52.1 9.35 52.1 8.2 52.15 7.25 51.2 7.1 L50.95 7.2 M41.95 19.05 Q41.2 21.15 38.95 21.45 35.3 20.45 36.75 17.1 37.75 14.7 37.8 11.95 37.85 9.65 39.95 9.45 43.1 10.45 43.0 13.7 42.9 16.55 41.95 19.05 M56.6 22.3 Q53.55 24.75 50.7 22.2 L50.7 20.75 Q50.9 18.95 52.5 17.5 54.25 15.9 56.5 15.1 L57.95 14.45 Q65.6 15.15 72.55 18.35 80.4 21.95 75.55 29.55 73.2 33.25 68.7 34.2 L73.15 38.75 Q75.75 41.5 77.85 44.65 80.3 48.35 78.8 52.15 L78.2 52.95 Q73.9 53.2 72.4 48.05 70.95 43.1 66.7 39.85 L62.3 35.95 61.1 43.4 Q60.5 48.15 56.95 50.45 52.25 45.35 55.2 37.05 57.65 30.2 57.5 22.95 L57.55 21.65 56.6 22.3 M49.95 42.65 Q51.7 42.85 52.35 44.5 L52.45 45.2 Q52.25 46.6 50.9 46.95 L45.9 48.2 Q41.9 49.25 41.45 45.7 L41.45 44.95 Q41.45 44.6 41.6 44.25 L42.0 43.5 42.5 43.0 43.0 42.8 43.95 42.6 43.95 42.45 47.0 42.75 49.95 42.65 M35.05 9.85 Q33.15 15.25 27.05 15.95 23.85 16.3 21.75 14.2 L21.05 13.4 Q20.15 12.15 20.35 10.45 L20.5 8.2 Q20.5 6.7 20.65 5.25 L21.0 4.45 21.75 3.7 22.55 3.15 23.95 2.6 24.0 2.45 Q26.1 2.7 27.95 3.6 29.7 4.45 32.05 4.2 33.1 4.1 34.2 4.7 36.05 6.95 35.05 9.85 M25.9 8.25 Q25.45 8.95 25.5 9.95 L25.5 10.2 28.85 9.15 Q29.45 8.85 29.35 8.4 29.15 7.5 28.45 6.95 L27.0 7.45 Q26.25 7.7 25.9 8.25 M17.5 11.2 Q14.4 15.9 9.95 11.5 L8.4 10.0 8.85 16.95 Q9.2 20.55 6.0 21.45 2.4 19.3 2.5 14.2 2.6 9.5 1.7 5.2 1.3 3.3 2.2 2.35 2.8 1.65 4.0 1.45 6.9 1.8 9.3 3.85 11.55 5.7 14.0 6.9 16.85 8.35 17.5 11.2 M17.25 37.15 Q20.5 32.4 25.95 30.6 L26.0 30.45 Q28.35 31.0 29.4 32.65 30.65 34.6 30.55 37.0 L30.45 39.95 Q32.0 42.85 36.3 41.6 38.35 41.0 38.45 43.2 37.9 44.9 36.3 45.65 32.0 47.7 28.0 45.2 L25.5 48.0 21.95 50.95 20.0 52.2 19.05 52.25 Q17.5 51.85 16.05 51.1 L15.0 50.45 Q13.95 46.5 14.95 42.3 15.65 39.5 17.25 37.15 M19.5 45.45 Q19.95 47.1 21.8 44.75 23.4 42.7 24.55 40.25 25.55 38.15 25.1 36.35 L25.0 36.45 22.35 39.1 Q20.85 40.5 20.15 42.45 19.55 43.95 19.5 45.45" fill="#000000" fill-rule="evenodd" stroke="none"/>
    </g>
    <g id="sprite10" transform="matrix(1.0, 0.0, 0.0, 1.0, 0.0, 0.0)">
      <use ffdec:characterId="25" height="20.0" transform="matrix(1.0, 0.0, 0.0, 1.0, 0.0, 0.0)" width="20.0" xlink:href="#shape2"/>
    </g>
    <g id="shape2" transform="matrix(1.0, 0.0, 0.0, 1.0, 0.0, 0.0)">
      <path d="M20.0 20.0 L0.0 20.0 0.0 0.0 20.0 0.0 20.0 20.0" fill="#0099ff" fill-rule="evenodd" stroke="none"/>
    </g>
    <g id="sprite11" transform="matrix(1.0, 0.0, 0.0, 1.0, 121.4, -70.85)">
      <use ffdec:characterId="1207" height="887.15" transform="matrix(1.0, 0.0, 0.0, 1.0, -121.4, 84.0)" width="2546.35" xlink:href="#shape3"/>
      <use ffdec:characterId="254" height="228.7" transform="matrix(1.0, 0.0, 0.0, 1.0, 707.75, 70.85)" width="681.65" xlink:href="#sprite12"/>
      <use ffdec:characterId="1208" height="397.1" transform="matrix(1.0, 0.0, 0.0, 1.0, -9.85, 169.65)" width="2711.35" xlink:href="#shape5"/>
    </g>
    <g id="shape3" transform="matrix(1.0, 0.0, 0.0, 1.0, 121.4, -84.0)">
      <path d="M1211.95 244.8 L1213.35 244.85 1217.2 244.6 1237.75 255.6 1240.05 256.95 1261.8 256.55 1305.8 253.85 1426.1 247.8 Q1528.1 267.9 1616.65 279.1 1657.35 284.2 1728.1 291.9 L1887.75 309.05 Q1916.05 312.1 1942.85 319.0 1949.35 320.65 1988.0 332.2 2015.85 340.5 2039.1 344.85 2071.75 351.0 2112.15 353.25 2137.0 354.6 2173.85 361.95 2196.85 366.5 2217.95 371.95 L2223.55 373.3 Q2228.2 375.75 2230.6 376.5 2253.95 383.6 2276.4 387.45 2316.1 394.2 2363.7 393.9 L2409.35 393.9 2412.35 394.3 2424.95 396.15 2412.45 397.7 2402.4 398.45 2398.1 398.15 2396.2 397.8 2362.35 397.5 2328.95 397.15 Q2282.3 394.35 2266.95 389.85 2256.55 388.05 2245.65 385.15 2236.7 382.8 2225.6 379.15 2213.85 375.25 2212.4 374.85 2191.15 369.05 2165.65 364.15 2132.65 357.8 2110.2 356.85 2065.8 354.8 2033.15 349.1 2008.6 344.8 1983.25 336.9 1955.85 327.7 1940.75 323.3 1914.6 315.65 1885.95 311.35 1837.2 304.05 1734.55 295.45 L1665.85 289.6 Q1633.0 286.55 1619.6 284.2 1595.15 279.85 1569.6 276.5 L1525.55 271.05 Q1509.3 268.95 1468.05 260.3 1430.25 252.35 1427.85 252.35 1383.9 252.35 1342.15 254.5 1300.1 256.65 1265.7 260.75 1255.15 260.0 1250.45 261.15 L1246.85 261.05 1248.2 261.95 Q1246.7 262.75 1246.7 264.05 1246.7 265.6 1246.95 266.3 L1236.3 260.9 1222.65 260.65 Q1221.8 260.4 1218.2 261.75 L1211.4 264.1 Q1202.5 266.25 1202.5 257.2 L1212.65 256.95 Q1222.55 256.8 1223.75 257.2 L1228.85 257.15 Q1218.25 251.7 1209.6 246.95 L1211.95 244.8 M-93.95 113.6 L-110.25 113.9 -115.05 113.2 Q-117.95 112.5 -117.95 112.05 L-116.25 112.25 -112.85 112.6 -85.5 108.75 -63.45 105.35 -29.75 105.35 Q26.8 112.6 92.25 119.55 L119.8 124.25 127.05 124.7 155.3 128.3 145.4 128.0 Q194.85 133.3 262.6 136.3 L300.1 137.6 336.2 138.9 431.9 139.1 457.45 137.3 504.85 134.2 620.55 127.05 760.8 117.65 768.7 117.65 Q854.7 109.2 945.15 104.2 L1069.9 97.95 1079.8 97.45 Q1079.0 94.3 1079.0 91.8 1079.0 87.2 1079.7 86.25 1081.45 83.75 1088.9 84.0 L1090.5 85.95 Q1084.85 91.7 1084.85 92.75 1084.85 94.7 1085.45 97.2 L1160.0 93.1 Q1160.15 94.25 1160.7 95.45 L1086.2 99.75 Q1091.1 114.7 1114.2 145.0 1121.8 155.0 1136.15 173.1 1147.3 187.4 1149.85 192.4 1156.45 205.25 1172.15 217.4 1182.75 225.6 1200.5 235.5 L1194.8 238.45 Q1157.2 215.65 1142.85 192.4 1140.0 187.8 1128.5 173.05 1113.35 153.6 1107.05 145.05 1085.6 115.85 1080.55 100.15 L1072.85 100.7 971.55 108.55 827.85 119.9 Q709.2 129.1 684.2 129.75 L620.95 133.6 504.85 139.75 457.45 142.4 430.6 143.95 337.8 143.95 335.55 143.3 326.9 143.15 319.6 142.95 318.3 142.9 318.25 142.9 299.45 142.0 264.2 141.35 Q172.8 137.05 71.7 122.25 L61.35 120.7 60.5 120.6 58.5 120.35 -15.05 111.55 -51.8 111.3 -66.4 112.55 -93.9 113.6 -93.95 113.6 M1249.1 267.4 L1257.8 268.7 1258.65 269.4 1253.1 269.4 1249.1 267.4" fill="#c4b135" fill-rule="evenodd" stroke="none"/>
      <path d="M2362.35 397.5 L2362.75 403.55 2363.15 408.55 2367.2 422.55 2367.2 560.15 2368.55 586.3 2357.2 585.0 Q2306.35 580.95 2290.5 578.45 2283.45 577.3 2275.5 575.4 L2257.9 571.15 Q2248.6 569.05 2196.5 565.1 L2142.55 560.6 Q2093.6 548.2 2019.55 521.45 L1974.6 505.05 Q1955.9 498.35 1952.9 498.35 1930.8 498.35 1893.05 489.35 1882.5 486.85 1854.9 479.05 L1818.8 465.2 Q1796.15 456.6 1781.85 452.3 L1778.25 451.25 1795.55 447.15 1841.15 436.7 1928.55 423.15 1877.7 425.0 Q1877.5 424.3 1877.0 424.15 L1874.9 423.8 1850.15 422.1 1815.6 421.0 1783.4 420.55 1704.75 420.55 1588.7 426.1 Q1563.0 421.45 1528.95 416.9 1489.8 411.7 1421.8 404.4 1360.4 397.85 1347.45 395.85 1204.9 370.55 1161.05 364.15 L1127.45 359.65 1127.75 358.8 Q1131.65 348.35 1147.6 317.35 L1157.2 298.3 1161.7 294.65 1163.95 295.65 Q1171.55 298.8 1184.45 301.45 1214.35 307.55 1249.45 307.1 L1284.4 307.45 Q1356.1 304.75 1379.8 301.45 1419.75 295.85 1419.75 281.9 1419.75 274.85 1404.4 271.6 1382.9 267.0 1330.7 269.4 L1329.25 269.4 1310.05 266.8 1294.05 264.3 1272.95 261.4 1265.7 260.75 Q1300.1 256.65 1342.15 254.5 1383.9 252.35 1427.85 252.35 1430.25 252.35 1468.05 260.3 1509.3 268.95 1525.55 271.05 L1569.6 276.5 Q1595.15 279.85 1619.6 284.2 1633.0 286.55 1665.85 289.6 L1734.55 295.45 Q1837.2 304.05 1885.95 311.35 1914.6 315.65 1940.75 323.3 1955.85 327.7 1983.25 336.9 2008.6 344.8 2033.15 349.1 2065.8 354.8 2110.2 356.85 2132.65 357.8 2165.65 364.15 2191.15 369.05 2212.4 374.85 2213.85 375.25 2225.6 379.15 2236.7 382.8 2245.65 385.15 2256.55 388.05 2266.95 389.85 2282.3 394.35 2328.95 397.15 L2362.35 397.5 M-114.75 321.55 Q-113.35 296.45 -107.2 248.1 -98.6 184.45 -97.35 172.45 L-97.35 131.35 Q-102.7 124.3 -99.0 118.4 -97.25 115.65 -93.95 113.6 L-93.9 113.6 -66.4 112.55 -51.8 111.3 -15.05 111.55 58.5 120.35 60.5 120.6 61.35 120.7 71.7 122.25 Q172.8 137.05 264.2 141.35 L299.45 142.0 318.25 142.9 318.3 142.9 319.6 142.95 326.9 143.15 335.55 143.3 337.8 143.95 430.6 143.95 457.45 142.4 504.85 139.75 620.95 133.6 684.2 129.75 Q709.2 129.1 827.85 119.9 L971.55 108.55 1072.85 100.7 1080.55 100.15 Q1085.6 115.85 1107.05 145.05 1113.35 153.6 1128.5 173.05 1140.0 187.8 1142.85 192.4 1157.2 215.65 1194.8 238.45 L1189.8 241.3 Q1187.7 237.95 1181.05 242.65 1174.75 247.1 1169.5 253.8 L1138.5 273.25 Q1117.55 285.8 1105.95 289.4 1095.95 292.5 1083.5 297.8 L1062.7 306.75 Q1037.35 317.35 1014.45 320.1 L999.95 321.85 Q989.9 319.35 968.3 319.8 L914.2 319.45 897.05 318.1 879.9 317.2 828.0 319.15 Q798.45 321.1 750.55 321.1 657.6 321.1 579.65 309.5 L532.15 302.7 Q509.4 300.25 489.6 302.05 L417.75 302.25 392.6 303.55 333.9 304.0 321.0 302.55 308.1 301.6 Q283.1 301.6 259.4 303.9 L218.7 308.9 Q164.5 316.2 113.4 316.2 L38.0 310.05 6.25 311.35 -25.2 312.65 -44.2 311.15 -51.5 310.05 -51.8 309.15 Q-52.15 308.65 -52.15 310.7 L-52.15 310.8 -60.8 310.55 Q-103.15 309.8 -113.1 319.45 L-114.75 321.55 M1209.6 246.95 Q1218.25 251.7 1228.85 257.15 L1223.75 257.2 Q1222.55 256.8 1212.65 256.95 L1202.5 257.2 Q1202.5 266.25 1211.4 264.1 L1218.2 261.75 Q1221.8 260.4 1222.65 260.65 L1236.3 260.9 1246.95 266.3 1247.1 266.6 1247.5 267.15 1249.1 267.4 1253.1 269.4 1248.15 269.4 Q1233.6 269.5 1228.45 272.8 1225.05 275.0 1225.05 279.65 1225.05 281.5 1226.15 283.35 1227.1 284.95 1229.45 287.45 L1218.9 287.45 Q1215.15 286.05 1193.05 284.4 L1174.0 283.2 Q1179.25 277.4 1179.25 274.3 1179.25 269.9 1165.95 276.85 1165.65 274.95 1165.05 273.8 1197.45 257.65 1209.6 246.95 M1248.2 261.95 L1246.85 261.05 1250.45 261.15 Q1249.05 261.45 1248.2 261.95 M1020.0 166.2 Q1000.3 162.3 974.65 168.6 951.8 174.15 928.65 186.55 909.5 196.8 880.4 205.6 842.65 216.05 818.15 223.25 898.45 216.7 939.6 205.3 962.5 198.95 981.95 189.4 1000.75 180.2 1020.0 166.2 M1689.75 953.45 L1679.0 952.2 1679.4 949.6 1689.75 953.45 M1065.35 239.0 Q1065.35 222.45 1053.65 212.5 1043.35 203.7 1028.0 202.85 L1027.0 202.8 Q1026.2 189.75 1004.1 203.4 999.0 206.6 985.15 216.35 974.0 224.25 969.8 226.2 951.35 234.85 924.5 241.75 L884.0 251.05 849.45 258.8 819.45 265.2 784.05 272.35 747.9 276.5 Q718.6 280.55 714.35 285.8 715.3 286.8 715.3 287.45 723.35 287.45 773.75 288.9 L824.5 290.35 Q912.45 290.35 935.95 286.65 941.85 285.7 948.05 284.05 954.25 282.9 967.2 282.9 1042.4 282.9 1063.6 275.7 1066.8 274.6 1076.2 269.55 1083.0 265.85 1093.1 264.2 1161.2 239.65 1161.2 232.05 1161.2 230.75 1160.6 229.6 1159.45 227.5 1156.65 227.5 1143.65 227.5 1102.1 242.95 L1071.85 254.15 1060.7 257.9 Q1065.35 249.25 1065.35 239.0 M1257.8 268.7 L1262.3 269.4 1258.65 269.4 1257.8 268.7" fill="#ffff99" fill-rule="evenodd" stroke="none"/>
      <path d="M2368.55 586.3 Q2375.05 587.35 2379.35 589.15 2391.8 594.2 2395.25 606.45 L2398.65 617.75 Q2400.1 623.1 2400.1 628.55 L2399.6 636.25 Q2403.8 637.95 2405.3 639.9 2403.25 641.95 2398.9 643.5 L2394.6 680.4 2387.6 735.95 2380.05 801.1 Q2375.65 833.85 2371.8 840.0 2372.7 858.65 2372.85 868.15 2372.85 874.15 2373.75 884.65 L2373.8 884.65 2373.95 886.4 2374.75 894.9 2374.9 896.2 2376.95 916.6 2376.95 917.6 Q2376.75 929.8 2372.4 944.65 2365.65 967.55 2352.85 971.15 L2247.55 971.15 2239.35 969.65 1979.5 969.1 1969.75 967.05 1907.25 966.55 1869.35 963.3 Q1861.1 967.05 1845.5 967.05 L1827.35 966.75 1826.75 966.75 1817.2 966.45 Q1745.15 963.75 1570.2 949.85 L1465.6 941.1 1464.9 941.05 1464.85 941.05 1448.0 939.65 1272.25 939.65 1239.3 937.8 1206.15 935.55 1119.55 935.55 1097.35 933.5 1074.2 931.45 965.0 931.45 956.4 930.45 929.9 929.4 828.95 929.4 Q811.6 926.55 682.05 922.1 L541.7 917.1 463.8 917.1 456.15 916.35 -23.6 915.85 -97.1 909.9 -102.5 858.15 -102.5 516.7 -103.65 510.9 Q-105.3 502.8 -106.4 483.05 -107.45 464.6 -110.15 453.85 -116.25 431.4 -117.9 423.8 -120.25 412.8 -120.25 397.3 -121.6 379.1 -121.35 361.6 -120.95 331.0 -114.75 321.55 L-113.1 319.45 Q-103.15 309.8 -60.8 310.55 L-52.15 310.8 -52.15 310.7 Q-52.15 308.65 -51.8 309.15 L-51.5 310.05 -44.2 311.15 -25.2 312.65 6.25 311.35 38.0 310.05 113.4 316.2 Q164.5 316.2 218.7 308.9 L259.4 303.9 Q283.1 301.6 308.1 301.6 L321.0 302.55 333.9 304.0 392.6 303.55 417.75 302.25 489.6 302.05 Q509.4 300.25 532.15 302.7 L579.65 309.5 Q657.6 321.1 750.55 321.1 798.45 321.1 828.0 319.15 L879.9 317.2 897.05 318.1 914.2 319.45 968.3 319.8 Q989.9 319.35 999.95 321.85 L1014.45 320.1 Q1037.35 317.35 1062.7 306.75 L1083.5 297.8 Q1095.95 292.5 1105.95 289.4 1117.55 285.8 1138.5 273.25 L1169.5 253.8 Q1174.75 247.1 1181.05 242.65 1187.7 237.95 1189.8 241.3 L1194.8 238.45 1200.5 235.5 Q1202.85 234.35 1204.7 233.6 L1206.6 232.9 Q1205.75 235.8 1205.75 238.55 1205.75 240.75 1206.4 241.85 1207.8 244.45 1211.95 244.8 L1209.6 246.95 Q1197.45 257.65 1165.05 273.8 1165.65 274.95 1165.95 276.85 1179.25 269.9 1179.25 274.3 1179.25 277.4 1174.0 283.2 L1193.05 284.4 Q1215.15 286.05 1218.9 287.45 L1229.45 287.45 Q1227.1 284.95 1226.15 283.35 1225.05 281.5 1225.05 279.65 1225.05 275.0 1228.45 272.8 1233.6 269.5 1248.15 269.4 L1253.1 269.4 1258.65 269.4 1262.3 269.4 1257.8 268.7 1249.1 267.4 1247.5 267.15 1247.1 266.6 1246.95 266.3 Q1246.7 265.6 1246.7 264.05 1246.7 262.75 1248.2 261.95 1249.05 261.45 1250.45 261.15 1255.15 260.0 1265.7 260.75 L1272.95 261.4 1294.05 264.3 1310.05 266.8 1329.25 269.4 1330.7 269.4 Q1382.9 267.0 1404.4 271.6 1419.75 274.85 1419.75 281.9 1419.75 295.85 1379.8 301.45 1356.1 304.75 1284.4 307.45 L1249.45 307.1 Q1214.35 307.55 1184.45 301.45 1171.55 298.8 1163.95 295.65 L1161.7 294.65 1157.2 298.3 1147.6 317.35 Q1131.65 348.35 1127.75 358.8 L1127.45 359.65 1161.05 364.15 Q1204.9 370.55 1347.45 395.85 1360.4 397.85 1421.8 404.4 1489.8 411.7 1528.95 416.9 1563.0 421.45 1588.7 426.1 L1704.75 420.55 1783.4 420.55 1815.6 421.0 1850.15 422.1 1874.9 423.8 1877.0 424.15 Q1877.5 424.3 1877.7 425.0 L1928.55 423.15 1841.15 436.7 1795.55 447.15 1778.25 451.25 1781.85 452.3 Q1796.15 456.6 1818.8 465.2 L1854.9 479.05 Q1882.5 486.85 1893.05 489.35 1930.8 498.35 1952.9 498.35 1955.9 498.35 1974.6 505.05 L2019.55 521.45 Q2093.6 548.2 2142.55 560.6 L2196.5 565.1 Q2248.6 569.05 2257.9 571.15 L2275.5 575.4 Q2283.45 577.3 2290.5 578.45 2306.35 580.95 2357.2 585.0 L2368.55 586.3 M2372.45 680.45 L2372.85 687.0 2372.85 689.45 Q2373.6 684.55 2373.6 681.85 2373.6 681.45 2372.45 680.45 M1689.75 953.45 L1679.4 949.6 1679.0 952.2 1689.75 953.45 M1020.0 166.2 Q1000.75 180.2 981.95 189.4 962.5 198.95 939.6 205.3 898.45 216.7 818.15 223.25 842.65 216.05 880.4 205.6 909.5 196.8 928.65 186.55 951.8 174.15 974.65 168.6 1000.3 162.3 1020.0 166.2 M1065.35 239.0 Q1065.35 249.25 1060.7 257.9 L1071.85 254.15 1102.1 242.95 Q1143.65 227.5 1156.65 227.5 1159.45 227.5 1160.6 229.6 1161.2 230.75 1161.2 232.05 1161.2 239.65 1093.1 264.2 1083.0 265.85 1076.2 269.55 1066.8 274.6 1063.6 275.7 1042.4 282.9 967.2 282.9 954.25 282.9 948.05 284.05 941.85 285.7 935.95 286.65 912.45 290.35 824.5 290.35 L773.75 288.9 Q723.35 287.45 715.3 287.45 715.3 286.8 714.35 285.8 718.6 280.55 747.9 276.5 L784.05 272.35 819.45 265.2 849.45 258.8 884.0 251.05 924.5 241.75 Q951.35 234.85 969.8 226.2 974.0 224.25 985.15 216.35 999.0 206.6 1004.1 203.4 1026.2 189.75 1027.0 202.8 L1028.0 202.85 Q1043.35 203.7 1053.65 212.5 1065.35 222.45 1065.35 239.0" fill="#ffe375" fill-rule="evenodd" stroke="none"/>
    </g>
    <g id="sprite12" transform="matrix(1.0, 0.0, 0.0, 1.0, 147.2, 168.25)">
      <use ffdec:characterId="253" height="228.7" transform="matrix(1.0, 0.0, 0.0, 1.0, -147.2, -168.25)" width="681.65" xlink:href="#shape4"/>
    </g>
    <g id="shape4" transform="matrix(1.0, 0.0, 0.0, 1.0, 147.2, 168.25)">
      <path d="M86.9 -139.7 L117.0 -144.25 Q183.4 -154.45 229.7 -162.85 227.95 -155.9 176.7 -126.7 156.8 -115.35 138.2 -105.7 120.1 -96.35 116.35 -95.35 109.25 -93.4 80.35 -88.9 L24.9 -80.15 Q5.05 -76.8 -9.35 -73.75 -24.0 -78.4 -30.55 -80.1 L-48.8 -84.95 -50.05 -85.25 -33.3 -87.95 17.0 -95.1 45.65 -99.25 Q85.75 -108.6 110.55 -117.25 142.6 -128.4 169.15 -144.6 L163.95 -147.25 Q159.85 -149.15 157.6 -149.15 112.9 -142.0 103.65 -141.05 L86.9 -139.7 M342.45 -10.05 L348.4 -6.85 Q352.05 -4.95 357.0 -2.55 L369.75 3.55 Q361.45 5.2 358.05 8.6 355.0 13.1 352.7 15.55 348.6 19.9 339.1 22.75 327.7 26.15 310.7 35.5 L307.15 37.5 310.4 30.85 Q316.7 18.15 317.7 13.35 L324.1 5.8 326.2 4.2 Q333.45 -1.55 342.45 -10.05 M397.55 15.95 L401.75 17.75 402.9 18.25 414.1 22.95 415.65 23.6 400.8 29.65 Q382.1 36.7 372.25 36.7 363.4 36.7 348.25 45.15 L337.0 51.55 332.15 54.0 321.7 51.45 314.75 50.1 318.6 48.0 Q327.5 42.8 335.55 34.75 338.05 32.25 344.5 30.95 352.65 29.35 356.85 27.3 358.8 26.35 359.5 24.45 L360.15 20.75 Q360.95 15.4 366.4 12.8 L374.9 12.1 378.3 11.85 387.6 14.3 397.55 15.95 M114.7 -104.65 Q117.15 -104.65 118.0 -105.45 L120.25 -108.55 114.0 -108.35 Q111.7 -107.4 110.15 -105.3 L111.2 -104.95 114.7 -104.65 M386.1 24.7 L384.9 23.75 Q383.95 23.1 383.95 22.75 381.65 21.9 379.25 22.2 376.5 22.6 376.5 24.5 376.5 26.55 376.85 26.45 L377.15 26.0 377.5 26.35 380.25 26.65 Q382.3 26.65 384.15 25.8 L386.1 24.7" fill="#b7af51" fill-rule="evenodd" stroke="none"/>
      <path d="M229.7 -162.85 Q183.4 -154.45 117.0 -144.25 L86.9 -139.7 21.9 -130.5 21.2 -130.4 -85.5 -117.7 -93.35 -116.9 -116.45 -114.7 -111.45 -117.0 -124.4 -116.15 -124.3 -116.35 Q-107.25 -118.35 25.8 -137.05 151.4 -154.7 154.7 -154.7 158.8 -154.7 183.9 -159.1 209.85 -163.65 214.95 -165.55 224.65 -169.35 229.05 -167.8 230.8 -167.2 232.6 -165.5 L235.95 -162.0 Q238.85 -160.2 253.8 -156.95 267.95 -153.85 272.0 -153.7 284.35 -153.05 298.25 -153.15 307.95 -152.85 316.55 -149.8 321.05 -148.2 321.5 -146.45 321.25 -144.1 321.9 -142.15 322.5 -140.4 331.05 -133.2 339.2 -126.4 339.3 -123.65 339.75 -114.9 342.55 -106.25 L348.15 -89.8 Q353.25 -74.4 353.25 -71.5 350.15 -61.3 347.1 -50.2 340.9 -28.0 340.9 -22.1 340.9 -4.85 418.15 21.85 453.65 34.15 494.65 45.5 L490.7 46.45 484.7 45.95 Q475.5 45.95 451.55 37.55 435.95 32.05 414.1 22.95 L402.9 18.25 401.75 17.75 397.55 15.95 397.6 15.95 395.8 15.2 371.6 4.4 369.75 3.55 357.0 -2.55 Q352.05 -4.95 348.4 -6.85 L342.45 -10.05 Q337.5 -12.85 337.5 -13.65 L338.5 -19.75 337.0 -18.75 Q320.35 -8.5 310.7 -1.75 L308.75 -2.1 Q315.45 -6.65 322.65 -13.3 L334.15 -24.3 340.3 -29.55 Q342.1 -39.55 342.2 -43.05 342.25 -46.2 342.8 -49.95 L343.45 -54.05 344.65 -59.45 344.85 -60.4 347.4 -71.15 Q347.4 -79.6 343.95 -89.5 L342.2 -94.45 339.95 -100.5 337.4 -107.45 336.85 -108.85 336.8 -109.1 336.7 -109.35 336.65 -109.6 336.55 -109.85 330.1 -123.75 325.7 -130.7 322.8 -135.0 322.5 -135.4 320.8 -138.0 Q319.15 -133.3 313.6 -128.2 309.0 -124.0 299.45 -117.95 295.8 -115.6 292.85 -113.1 286.9 -108.15 283.65 -102.8 275.4 -101.45 265.5 -98.3 L263.95 -99.7 Q273.2 -101.35 279.15 -105.3 281.65 -106.95 283.3 -108.75 L284.8 -110.65 Q290.45 -113.65 301.0 -122.7 L319.9 -139.35 Q316.35 -144.7 315.9 -145.6 310.85 -146.7 303.6 -146.8 L303.05 -146.8 290.65 -146.75 289.25 -146.75 Q287.25 -141.3 283.55 -138.9 283.35 -139.1 283.95 -139.85 284.85 -140.95 284.85 -142.8 L283.65 -147.05 Q271.2 -148.05 261.6 -152.4 L245.5 -158.25 232.85 -162.7 231.45 -163.15 231.4 -163.15 229.7 -162.85 M114.7 -104.65 L111.2 -104.95 110.15 -105.3 Q111.7 -107.4 114.0 -108.35 L120.25 -108.55 118.0 -105.45 Q117.15 -104.65 114.7 -104.65 M29.55 -117.65 L26.3 -118.3 Q30.15 -125.8 36.4 -122.65 L34.35 -120.0 Q32.5 -118.05 29.55 -117.65 M44.3 -118.95 Q42.4 -118.3 39.3 -118.3 40.65 -119.95 43.15 -121.05 45.3 -122.0 46.95 -122.0 L48.25 -121.05 Q45.85 -119.45 44.3 -118.95 M223.25 -140.0 L190.75 -120.1 Q166.95 -105.55 152.1 -95.45 162.75 -106.05 186.3 -120.0 L225.55 -141.7 228.45 -143.3 223.25 -140.0 M169.6 -80.35 L168.35 -80.85 168.05 -81.0 167.2 -81.45 166.35 -81.9 165.15 -82.65 165.0 -82.75 164.8 -82.85 163.0 -84.05 162.85 -84.15 160.2 -86.05 Q159.65 -86.45 159.15 -86.8 L159.0 -86.9 151.25 -92.3 150.65 -92.65 149.8 -93.1 151.6 -94.95 153.7 -93.4 160.45 -88.25 Q168.0 -83.0 171.75 -83.0 183.3 -83.0 211.65 -89.15 225.95 -92.25 240.15 -95.7 225.2 -91.2 210.65 -87.4 L210.1 -87.25 209.65 -87.1 204.45 -85.8 Q181.0 -79.95 171.4 -79.95 170.65 -79.95 169.6 -80.35 M275.9 -133.4 L273.95 -133.7 277.5 -136.7 Q279.65 -138.25 281.45 -138.25 280.65 -137.15 279.1 -136.0 L275.9 -133.4 M222.3 -113.1 Q224.3 -115.1 232.35 -116.35 L232.35 -115.35 226.85 -111.8 Q223.25 -112.1 222.3 -113.1 M211.7 -5.35 L212.05 -4.7 Q211.1 -4.05 209.8 -3.45 207.3 -2.25 203.6 -1.45 L200.5 -2.1 Q201.0 -2.8 205.35 -4.1 209.75 -5.35 211.7 -5.35 M226.2 -1.45 L223.1 -1.65 221.0 -2.1 Q223.7 -4.6 225.6 -6.95 226.8 -7.7 231.4 -5.65 230.95 -3.45 229.15 -2.35 227.75 -1.45 226.2 -1.45 M460.55 42.8 Q463.0 42.8 465.7 43.55 L466.05 44.2 464.45 44.65 463.3 44.85 464.75 45.3 Q464.1 45.65 458.4 45.3 L458.7 44.9 458.5 44.85 Q458.1 44.55 457.1 44.2 L457.1 43.05 460.55 42.8 M355.25 56.25 L377.9 50.45 Q401.85 44.1 415.15 39.3 L417.3 39.55 Q419.5 39.9 419.7 40.3 398.2 46.0 374.7 54.0 L367.2 56.6 366.4 56.6 355.25 56.25 M386.1 24.7 L384.15 25.8 Q382.3 26.65 380.25 26.65 L377.5 26.35 377.15 26.0 376.85 26.45 Q376.5 26.55 376.5 24.5 376.5 22.6 379.25 22.2 381.65 21.9 383.95 22.75 383.95 23.1 384.9 23.75 L386.1 24.7 M324.1 5.8 L317.7 13.35 317.85 11.85 Q317.85 9.8 316.8 9.6 L316.75 9.6 316.35 9.65 Q326.9 -0.35 334.25 -7.95 329.9 -1.35 324.1 5.8 M-39.3 -110.5 Q-38.35 -112.4 -35.4 -113.85 -32.55 -115.3 -30.55 -115.05 -32.55 -112.85 -35.3 -111.55 -37.55 -110.5 -39.3 -110.5" fill="#807240" fill-rule="evenodd" stroke="none"/>
      <path d="M86.9 -139.7 L103.65 -141.05 Q112.9 -142.0 157.6 -149.15 159.85 -149.15 163.95 -147.25 L169.15 -144.6 Q142.6 -128.4 110.55 -117.25 85.75 -108.6 45.65 -99.25 L17.0 -95.1 -33.3 -87.95 -50.05 -85.25 -48.8 -84.95 Q-62.0 -88.3 -75.25 -91.2 -49.3 -99.2 -31.4 -105.0 21.9 -122.3 21.9 -129.5 L21.9 -130.5 86.9 -139.7 M283.3 -108.75 Q281.65 -106.95 279.15 -105.3 273.2 -101.35 263.95 -99.7 L265.5 -98.3 Q275.4 -101.45 283.65 -102.8 286.9 -108.15 292.85 -113.1 298.6 -115.95 303.55 -118.9 316.6 -126.75 322.8 -135.0 L325.7 -130.7 330.1 -123.75 329.5 -124.7 Q329.05 -120.4 329.05 -118.6 329.05 -94.05 292.0 -84.65 L293.95 -84.3 309.6 -89.1 Q321.95 -92.85 329.75 -95.6 335.7 -97.75 340.25 -99.7 L339.95 -100.5 342.2 -94.45 341.85 -95.3 342.15 -89.45 Q342.35 -74.3 335.2 -68.25 320.3 -55.55 300.3 -49.65 276.45 -42.65 223.6 -37.7 184.65 -34.0 153.3 -28.5 L136.75 -25.25 Q127.95 -31.35 117.15 -33.5 L114.4 -34.45 Q107.65 -36.5 101.6 -38.5 111.6 -38.9 116.8 -40.05 124.5 -41.75 135.35 -41.75 145.65 -41.75 152.3 -43.55 157.3 -44.85 162.55 -48.0 L172.4 -53.9 Q179.25 -57.45 188.15 -59.8 206.4 -64.7 218.9 -66.8 L235.45 -68.9 Q243.55 -69.8 250.8 -71.7 260.8 -74.35 277.85 -80.75 277.55 -81.4 274.6 -81.7 212.25 -64.3 137.7 -51.05 109.7 -46.05 88.95 -42.9 81.25 -45.75 74.85 -48.5 L63.7 -53.75 Q52.6 -53.75 27.7 -61.6 L59.3 -66.95 84.7 -70.2 111.45 -74.1 114.1 -75.45 116.0 -75.4 Q138.4 -75.4 170.65 -80.0 L169.6 -80.35 Q170.65 -79.95 171.4 -79.95 181.0 -79.95 204.45 -85.8 225.25 -89.95 244.4 -95.35 L245.2 -95.55 244.4 -95.05 251.9 -97.15 248.65 -96.55 Q268.25 -102.35 283.3 -108.75 M414.1 22.95 Q435.95 32.05 451.55 37.55 448.9 41.7 435.05 46.4 422.95 50.5 397.75 56.35 L395.85 56.35 387.5 56.55 381.55 56.7 366.4 56.6 367.2 56.6 374.7 54.0 Q398.2 46.0 419.7 40.3 419.5 39.9 417.3 39.55 L415.15 39.3 Q401.85 44.1 377.9 50.45 L355.25 56.25 Q339.85 55.6 332.5 54.1 L332.15 54.0 337.0 51.55 348.25 45.15 Q363.4 36.7 372.25 36.7 382.1 36.7 400.8 29.65 L415.65 23.6 414.1 22.95 M44.3 -118.95 Q45.85 -119.45 48.25 -121.05 L46.95 -122.0 Q45.3 -122.0 43.15 -121.05 40.65 -119.95 39.3 -118.3 42.4 -118.3 44.3 -118.95 M29.55 -117.65 Q32.5 -118.05 34.35 -120.0 L36.4 -122.65 Q30.15 -125.8 26.3 -118.3 L29.55 -117.65 M255.7 -98.35 L257.6 -98.9 256.75 -98.85 255.7 -98.35 M294.65 19.45 L288.75 21.9 Q286.15 22.9 279.7 23.9 L293.65 19.9 294.65 19.45" fill="#c09947" fill-rule="evenodd" stroke="none"/>
      <path d="M232.85 -162.7 L245.5 -158.25 261.6 -152.4 Q271.2 -148.05 283.65 -147.05 L284.85 -142.8 Q284.85 -140.95 283.95 -139.85 283.35 -139.1 283.55 -138.9 287.25 -141.3 289.25 -146.75 L290.65 -146.75 303.05 -146.8 303.6 -146.8 Q310.85 -146.7 315.9 -145.6 316.35 -144.7 319.9 -139.35 L301.0 -122.7 Q290.45 -113.65 284.8 -110.65 L283.3 -108.75 Q268.25 -102.35 248.65 -96.55 L248.5 -96.5 245.2 -95.55 244.4 -95.35 Q225.25 -89.95 204.45 -85.8 L209.65 -87.1 210.1 -87.25 210.65 -87.4 Q225.2 -91.2 240.15 -95.7 225.95 -92.25 211.65 -89.15 183.3 -83.0 171.75 -83.0 168.0 -83.0 160.45 -88.25 L153.7 -93.4 151.6 -94.95 149.8 -93.1 150.65 -92.65 151.25 -92.3 159.0 -86.9 159.15 -86.8 Q159.65 -86.45 160.2 -86.05 L162.85 -84.15 163.0 -84.05 164.8 -82.85 165.0 -82.75 165.15 -82.65 166.35 -81.9 167.2 -81.45 168.05 -81.0 168.35 -80.85 169.6 -80.35 170.65 -80.0 Q138.4 -75.4 116.0 -75.4 L114.1 -75.45 Q117.3 -77.35 124.05 -81.75 L124.3 -81.95 126.3 -83.3 Q132.25 -87.3 136.45 -89.25 140.45 -91.15 142.8 -91.15 145.1 -91.15 160.35 -99.9 174.85 -108.25 192.75 -119.65 212.15 -132.05 223.25 -140.0 L228.45 -143.3 225.55 -141.7 Q237.9 -150.85 237.9 -153.4 237.9 -155.35 234.95 -160.35 L233.8 -162.35 232.85 -162.7 M292.85 -113.1 Q295.8 -115.6 299.45 -117.95 309.0 -124.0 313.6 -128.2 319.15 -133.3 320.8 -138.0 L322.5 -135.4 322.8 -135.0 Q316.6 -126.75 303.55 -118.9 298.6 -115.95 292.85 -113.1 M344.65 -59.45 L343.45 -54.05 342.8 -49.95 Q339.3 -40.4 328.7 -30.7 307.7 -11.45 266.15 0.3 250.1 4.8 221.85 8.05 L173.4 12.7 171.55 12.9 170.25 11.75 Q161.0 3.3 155.0 -5.35 L148.8 -13.7 170.45 -16.15 192.4 -19.5 Q204.65 -19.6 208.4 -22.05 209.85 -23.0 210.55 -24.55 L211.65 -27.4 Q213.3 -31.05 219.4 -32.7 228.1 -35.1 248.75 -35.1 L273.1 -34.1 283.3 -33.25 Q286.05 -33.4 289.2 -36.0 L300.45 -45.65 Q310.15 -53.7 325.35 -59.85 L327.2 -60.6 Q335.5 -63.8 342.05 -65.3 L344.15 -65.15 Q344.2 -65.05 343.85 -65.0 344.55 -61.95 344.5 -58.85 L344.65 -59.45 M369.75 3.55 L371.6 4.4 395.8 15.2 397.6 15.95 397.55 15.95 387.6 14.3 378.3 11.85 374.9 12.1 366.4 12.8 Q360.95 15.4 360.15 20.75 L359.5 24.45 Q358.8 26.35 356.85 27.3 352.65 29.35 344.5 30.95 338.05 32.25 335.55 34.75 327.5 42.8 318.6 48.0 L314.75 50.1 309.6 49.3 304.55 48.7 303.55 48.55 302.9 47.6 Q302.9 46.3 307.15 37.5 L310.7 35.5 Q327.7 26.15 339.1 22.75 348.6 19.9 352.7 15.55 355.0 13.1 358.05 8.6 361.45 5.2 369.75 3.55 M-116.45 -114.7 L-93.35 -116.9 -85.5 -117.7 21.2 -130.4 21.9 -130.5 21.9 -129.5 Q21.9 -122.3 -31.4 -105.0 -49.3 -99.2 -75.25 -91.2 L-104.6 -97.15 -144.6 -104.3 -144.3 -105.95 Q-139.5 -107.8 -132.45 -109.65 L-127.95 -110.85 -127.55 -110.95 Q-122.1 -112.35 -116.45 -114.7 M275.9 -133.4 L279.1 -136.0 Q280.65 -137.15 281.45 -138.25 279.65 -138.25 277.5 -136.7 L273.95 -133.7 275.9 -133.4 M222.3 -113.1 Q223.25 -112.1 226.85 -111.8 L232.35 -115.35 232.35 -116.35 Q224.3 -115.1 222.3 -113.1 M226.2 -1.45 Q227.75 -1.45 229.15 -2.35 230.95 -3.45 231.4 -5.65 226.8 -7.7 225.6 -6.95 223.7 -4.6 221.0 -2.1 L223.1 -1.65 226.2 -1.45 M211.7 -5.35 Q209.75 -5.35 205.35 -4.1 201.0 -2.8 200.5 -2.1 L203.6 -1.45 Q207.3 -2.25 209.8 -3.45 211.1 -4.05 212.05 -4.7 L211.7 -5.35 M-39.3 -110.5 Q-37.55 -110.5 -35.3 -111.55 -32.55 -112.85 -30.55 -115.05 -32.55 -115.3 -35.4 -113.85 -38.35 -112.4 -39.3 -110.5" fill="#a39f5a" fill-rule="evenodd" stroke="none"/>
      <path d="M-9.35 -73.75 Q5.05 -76.8 24.9 -80.15 L80.35 -88.9 Q109.25 -93.4 116.35 -95.35 120.1 -96.35 138.2 -105.7 156.8 -115.35 176.7 -126.7 227.95 -155.9 229.7 -162.85 L231.4 -163.15 231.45 -163.15 232.85 -162.7 233.8 -162.35 234.95 -160.35 Q237.9 -155.35 237.9 -153.4 237.9 -150.85 225.55 -141.7 L186.3 -120.0 Q162.75 -106.05 152.1 -95.45 166.95 -105.55 190.75 -120.1 L223.25 -140.0 Q212.15 -132.05 192.75 -119.65 174.85 -108.25 160.35 -99.9 145.1 -91.15 142.8 -91.15 140.45 -91.15 136.45 -89.25 132.25 -87.3 126.3 -83.3 L124.3 -81.95 124.05 -81.75 Q117.3 -77.35 114.1 -75.45 L111.45 -74.1 84.7 -70.2 59.3 -66.95 27.7 -61.6 27.45 -61.7 19.7 -64.2 19.3 -64.35 -9.35 -73.75 M330.1 -123.75 L336.55 -109.85 336.65 -109.6 336.7 -109.35 336.8 -109.1 336.85 -108.85 337.4 -107.45 339.95 -100.5 340.25 -99.7 Q335.7 -97.75 329.75 -95.6 321.95 -92.85 309.6 -89.1 L293.95 -84.3 292.0 -84.65 Q329.05 -94.05 329.05 -118.6 329.05 -120.4 329.5 -124.7 L330.1 -123.75 M342.2 -94.45 L343.95 -89.5 Q347.4 -79.6 347.4 -71.15 L344.85 -60.4 344.65 -59.45 344.5 -58.85 Q344.55 -61.95 343.85 -65.0 344.2 -65.05 344.15 -65.15 L342.05 -65.3 Q335.5 -63.8 327.2 -60.6 L325.35 -59.85 Q310.15 -53.7 300.45 -45.65 L289.2 -36.0 Q286.05 -33.4 283.3 -33.25 L273.1 -34.1 248.75 -35.1 Q228.1 -35.1 219.4 -32.7 213.3 -31.05 211.65 -27.4 L210.55 -24.55 Q209.85 -23.0 208.4 -22.05 204.65 -19.6 192.4 -19.5 L170.45 -16.15 148.8 -13.7 Q144.5 -18.95 140.75 -22.15 L136.75 -25.25 153.3 -28.5 Q184.65 -34.0 223.6 -37.7 276.45 -42.65 300.3 -49.65 320.3 -55.55 335.2 -68.25 342.35 -74.3 342.15 -89.45 L341.85 -95.3 342.2 -94.45 M342.8 -49.95 Q342.25 -46.2 342.2 -43.05 342.1 -39.55 340.3 -29.55 L334.15 -24.3 322.65 -13.3 Q315.45 -6.65 308.75 -2.1 L310.7 -1.75 Q320.35 -8.5 337.0 -18.75 L338.5 -19.75 337.5 -13.65 Q337.5 -12.85 342.45 -10.05 333.45 -1.55 326.2 4.2 L324.1 5.8 Q329.9 -1.35 334.25 -7.95 326.9 -0.35 316.35 9.65 L313.3 9.55 312.6 10.0 311.2 10.8 294.65 19.45 293.65 19.9 279.7 23.9 279.6 23.9 279.0 24.0 274.1 24.65 274.0 24.7 257.6 26.4 257.2 26.45 256.25 26.5 255.95 26.55 252.75 26.8 202.95 29.25 Q196.0 29.25 189.8 28.0 L171.55 12.9 173.4 12.7 221.85 8.05 Q250.1 4.8 266.15 0.3 307.7 -11.45 328.7 -30.7 339.3 -40.4 342.8 -49.95 M451.55 37.55 Q475.5 45.95 484.7 45.95 L490.7 46.45 450.9 55.7 397.75 56.35 Q422.95 50.5 435.05 46.4 448.9 41.7 451.55 37.55 M88.95 -42.9 Q109.7 -46.05 137.7 -51.05 212.25 -64.3 274.6 -81.7 277.55 -81.4 277.85 -80.75 260.8 -74.35 250.8 -71.7 243.55 -69.8 235.45 -68.9 L218.9 -66.8 Q206.4 -64.7 188.15 -59.8 179.25 -57.45 172.4 -53.9 L162.55 -48.0 Q157.3 -44.85 152.3 -43.55 145.65 -41.75 135.35 -41.75 124.5 -41.75 116.8 -40.05 111.6 -38.9 101.6 -38.5 L101.55 -38.5 100.75 -38.8 88.95 -42.9 M232.05 -161.85 L232.05 -161.35 Q231.8 -161.35 231.5 -162.25 231.4 -162.5 231.4 -160.7 231.4 -159.05 232.7 -158.35 234.0 -157.6 234.0 -156.0 234.0 -154.0 233.6 -153.7 L232.7 -153.05 234.65 -152.75 235.4 -153.45 236.6 -154.7 Q236.4 -155.35 235.05 -156.55 234.0 -157.55 234.0 -159.4 L234.1 -161.65 232.05 -161.85 M460.55 42.8 L457.1 43.05 457.1 44.2 Q458.1 44.55 458.5 44.85 L458.7 44.9 458.4 45.3 Q464.1 45.65 464.75 45.3 L463.3 44.85 464.45 44.65 466.05 44.2 465.7 43.55 Q463.0 42.8 460.55 42.8" fill="#c5c770" fill-rule="evenodd" stroke="none"/>
      <path d="M-48.8 -84.95 L-30.55 -80.1 Q-24.0 -78.4 -9.35 -73.75 L19.3 -64.35 19.7 -64.2 27.45 -61.7 27.7 -61.6 Q52.6 -53.75 63.7 -53.75 L74.85 -48.5 Q81.25 -45.75 88.95 -42.9 L100.75 -38.8 101.55 -38.5 101.6 -38.5 Q107.65 -36.5 114.4 -34.45 L117.15 -33.5 Q127.95 -31.35 136.75 -25.25 L140.75 -22.15 Q144.5 -18.95 148.8 -13.7 L155.0 -5.35 Q161.0 3.3 170.25 11.75 L171.55 12.9 189.8 28.0 Q196.0 29.25 202.95 29.25 L252.75 26.8 255.95 26.55 256.25 26.5 257.2 26.45 257.6 26.4 274.0 24.7 274.1 24.65 279.0 24.0 279.6 23.9 279.7 23.9 Q286.15 22.9 288.75 21.9 L294.65 19.45 311.2 10.8 312.6 10.0 313.3 9.55 316.35 9.65 316.75 9.6 316.8 9.6 Q317.85 9.8 317.85 11.85 L317.7 13.35 Q316.7 18.15 310.4 30.85 L307.15 37.5 Q302.9 46.3 302.9 47.6 L303.55 48.55 304.55 48.7 309.6 49.3 314.75 50.1 321.7 51.45 332.15 54.0 332.5 54.1 Q339.85 55.6 355.25 56.25 L366.4 56.6 381.55 56.7 387.5 56.55 395.85 56.35 397.75 56.35 450.9 55.7 490.7 46.45 494.65 45.5 Q530.15 37.3 534.45 36.7 528.75 44.35 497.15 51.65 472.95 57.2 449.95 59.6 L384.15 59.6 362.3 60.05 343.5 60.45 Q335.25 60.45 326.7 58.2 315.9 55.35 301.6 54.1 L299.0 51.6 Q297.85 50.45 297.85 50.05 297.85 44.1 304.05 33.0 311.8 19.25 312.95 15.75 310.65 16.5 300.2 21.3 L285.5 27.95 262.5 29.1 228.8 30.55 209.25 32.55 197.9 33.8 Q193.9 33.8 189.15 31.85 L188.8 31.85 185.65 31.4 Q177.7 22.7 167.85 14.05 161.55 8.5 155.95 4.3 153.2 0.5 151.1 -3.05 L146.5 -13.0 Q143.6 -19.1 139.55 -21.45 133.05 -25.3 125.1 -28.45 L123.05 -29.2 120.2 -29.6 120.75 -28.85 119.65 -29.65 113.35 -30.45 112.45 -31.2 Q108.6 -34.25 102.6 -35.4 L91.45 -36.6 Q84.35 -37.15 80.45 -38.4 74.65 -40.2 70.85 -44.35 67.85 -47.8 56.15 -51.6 48.8 -54.05 35.75 -57.2 21.5 -60.75 7.35 -65.25 L-14.85 -72.5 Q-40.05 -80.6 -68.55 -84.65 -94.6 -87.9 -120.1 -94.9 -147.2 -102.35 -147.2 -107.25 L-146.75 -108.95 Q-144.7 -112.7 -133.45 -114.85 L-124.4 -116.15 -111.45 -117.0 -116.45 -114.7 Q-122.1 -112.35 -127.55 -110.95 L-127.95 -110.85 -132.45 -109.65 Q-139.5 -107.8 -144.3 -105.95 L-144.6 -104.3 -104.6 -97.15 -75.25 -91.2 Q-62.0 -88.3 -48.8 -84.95" fill="#f0c942" fill-rule="evenodd" stroke="none"/>
      <path d="M133.65 -21.45 L136.95 -21.1 136.95 -20.15 133.65 -21.45" fill="#f8b71f" fill-rule="evenodd" stroke="none"/>
      <path d="M245.2 -95.55 L248.5 -96.5 248.65 -96.55 251.9 -97.15 244.4 -95.05 245.2 -95.55 M232.05 -161.85 L234.1 -161.65 234.0 -159.4 Q234.0 -157.55 235.05 -156.55 236.4 -155.35 236.6 -154.7 L235.4 -153.45 234.65 -152.75 232.7 -153.05 233.6 -153.7 Q234.0 -154.0 234.0 -156.0 234.0 -157.6 232.7 -158.35 231.4 -159.05 231.4 -160.7 231.4 -162.5 231.5 -162.25 231.8 -161.35 232.05 -161.35 L232.05 -161.85 M255.7 -98.35 L256.75 -98.85 257.6 -98.9 255.7 -98.35" fill="#68633c" fill-rule="evenodd" stroke="none"/>
      <path d="M119.65 -126.45 Q149.65 -138.05 170.45 -147.2 L170.75 -146.55 Q145.65 -130.65 111.6 -114.7 90.5 -104.85 46.55 -86.4 69.2 -90.35 104.75 -103.15 130.3 -112.35 167.85 -128.5 L175.3 -131.5 186.2 -137.75 Q202.2 -146.8 217.45 -154.65 L225.05 -158.45 226.5 -161.2 Q227.3 -162.95 227.65 -168.15 L229.05 -167.8 Q230.8 -167.2 232.6 -165.5 L235.95 -162.0 Q237.65 -160.95 243.6 -159.35 241.95 -152.0 224.75 -140.55 L207.95 -129.7 Q197.9 -123.1 192.4 -118.3 180.95 -108.4 161.65 -97.45 L154.1 -93.3 157.45 -90.45 Q164.8 -83.65 170.1 -83.65 204.1 -83.65 234.45 -91.0 262.0 -97.6 283.55 -109.45 303.55 -120.45 314.8 -133.85 318.95 -138.8 321.55 -143.55 L321.9 -142.15 Q322.5 -140.4 331.05 -133.2 339.2 -126.4 339.3 -123.65 339.75 -114.9 342.55 -106.25 L348.15 -89.8 Q353.25 -74.4 353.25 -71.5 350.15 -61.3 347.1 -50.2 340.9 -28.0 340.9 -22.1 340.9 -7.8 394.05 13.0 384.0 15.45 378.75 17.05 359.85 22.75 325.2 40.85 316.4 45.4 306.65 50.8 L307.55 50.3 337.95 48.1 415.45 42.8 466.55 37.4 494.65 45.5 Q530.15 37.3 534.45 36.7 528.75 44.35 497.15 51.65 472.95 57.2 449.95 59.6 L384.15 59.6 362.3 60.05 343.5 60.45 Q335.25 60.45 326.7 58.2 315.9 55.35 301.6 54.1 L299.0 51.6 Q297.85 50.45 297.85 50.05 297.85 44.1 304.05 33.0 311.8 19.25 312.95 15.75 310.65 16.5 300.2 21.3 L285.5 27.95 262.5 29.1 228.8 30.55 209.25 32.55 197.9 33.8 Q193.9 33.8 189.15 31.85 L188.8 31.85 185.65 31.4 Q177.7 22.7 167.85 14.05 161.55 8.5 155.95 4.3 153.2 0.5 151.1 -3.05 L149.45 -6.7 Q180.6 -19.45 214.95 -31.85 226.7 -36.0 242.85 -42.4 L124.55 -42.1 124.8 -41.75 125.9 -39.8 Q121.15 -34.8 111.75 -31.7 108.05 -34.35 102.6 -35.4 L91.45 -36.6 Q84.35 -37.15 80.45 -38.4 74.65 -40.2 70.85 -44.35 67.85 -47.8 56.15 -51.6 48.8 -54.05 35.75 -57.2 21.5 -60.75 7.35 -65.25 L-14.85 -72.5 Q-30.15 -77.4 -46.65 -80.85 -31.25 -86.15 -23.05 -87.55 10.1 -93.25 44.35 -105.35 58.75 -110.45 65.15 -112.05 75.7 -114.7 86.25 -114.7 89.3 -114.7 119.65 -126.45 M302.0 -99.7 L296.2 -96.4 Q304.15 -99.5 305.75 -101.95 L302.0 -99.7" fill="#9f0000" fill-opacity="0.23137255" fill-rule="evenodd" stroke="none"/>
    </g>
    <g id="shape5" transform="matrix(1.0, 0.0, 0.0, 1.0, 9.85, -169.65)">
      <path d="M2698.25 218.7 Q2701.25 219.3 2701.5 219.7 L2699.95 220.2 2696.8 218.45 2698.25 218.7 M2013.2 367.1 L2014.65 366.65 2016.25 367.7 Q2016.7 368.4 2016.4 370.55 2016.0 373.35 2012.65 374.5 L2012.3 374.6 Q2006.95 376.05 1994.3 374.2 1976.7 371.65 1971.9 367.45 L1971.65 367.2 Q1970.1 365.8 1970.2 364.4 L1970.55 363.0 Q1971.05 359.4 1972.9 357.6 1974.25 356.2 1978.8 354.0 L1980.1 354.45 Q1981.5 355.0 1981.65 355.45 1978.85 356.5 1976.25 357.85 1973.7 359.15 1973.65 359.55 1973.35 361.7 1974.55 363.6 L1976.15 365.35 Q1979.4 368.1 1985.9 369.05 2009.15 372.45 2011.3 370.6 L2011.75 368.55 2011.75 368.45 2011.8 368.35 Q2012.05 367.55 2013.2 367.1 M2298.8 453.55 Q2299.6 452.95 2300.3 452.75 L2304.45 454.0 Q2303.2 455.05 2302.05 457.0 2301.1 458.7 2300.25 459.15 2299.35 459.75 2297.6 459.95 L2286.85 459.3 Q2274.75 457.55 2262.95 452.6 2256.4 449.85 2253.25 447.35 2250.0 444.65 2250.35 442.3 2250.6 440.55 2253.35 438.5 2255.15 437.25 2257.05 436.4 L2258.55 436.9 Q2260.05 437.4 2260.2 437.85 2258.75 438.65 2256.45 440.6 L2254.2 442.9 2257.2 444.8 2263.65 448.25 Q2272.25 452.55 2276.15 453.15 L2296.6 455.45 2298.25 453.95 2298.8 453.55 M2103.6 522.0 Q2105.95 521.7 2105.8 520.6 2105.05 519.35 2105.05 518.75 L2107.25 521.05 Q2108.45 522.4 2108.35 523.0 2107.9 526.3 2102.7 527.0 L2102.55 527.05 2102.5 527.05 Q2095.8 528.05 2079.25 525.65 2059.6 522.75 2053.45 517.95 L2052.4 516.95 Q2050.3 514.6 2050.8 511.15 2051.35 507.5 2051.95 506.6 2053.35 504.65 2058.6 502.45 2062.35 503.35 2062.65 505.35 L2061.05 506.9 2058.65 509.05 Q2056.4 511.1 2055.75 513.2 2058.75 514.35 2061.7 516.3 2064.15 517.85 2065.4 518.05 2097.1 522.65 2103.55 522.0 L2103.6 522.0 M2036.55 413.05 Q2040.05 415.9 2045.2 417.9 2053.3 421.25 2066.3 423.15 L2074.35 424.05 Q2080.15 424.5 2081.1 423.95 L2079.85 421.75 Q2078.8 419.9 2078.95 418.75 L2079.45 418.05 2079.65 417.9 2080.15 417.65 2082.05 417.7 Q2087.85 418.55 2086.95 424.5 2086.55 427.2 2083.4 428.7 L2083.05 428.85 Q2079.05 430.6 2072.45 429.65 2062.3 428.15 2046.9 422.25 2036.25 418.2 2032.8 415.4 2030.85 413.95 2031.0 412.85 2031.7 408.2 2032.55 407.1 2034.0 405.5 2039.3 404.9 L2036.5 407.5 Q2034.35 409.75 2034.15 410.9 L2036.55 413.05 M1962.95 436.35 L1963.05 436.45 1963.6 436.6 1965.95 437.5 Q1974.25 440.7 1975.55 440.85 2003.05 444.9 2006.1 444.05 2006.75 443.9 2006.65 443.0 2006.55 442.25 2008.55 442.1 L2009.05 440.7 2005.55 437.6 Q2003.15 435.45 2002.9 433.75 L2003.0 433.65 Q2006.15 430.25 2010.6 432.8 2014.8 435.25 2014.3 438.65 2014.0 440.75 2013.4 442.3 L2011.95 444.45 2011.75 444.7 2011.15 445.15 Q2005.4 449.15 1988.85 446.75 1975.5 444.8 1964.95 439.85 L1962.55 438.65 Q1956.8 435.8 1956.9 434.85 1957.2 432.8 1957.5 433.35 L1957.65 434.3 Q1957.8 434.35 1962.95 436.35 M2331.25 558.7 Q2333.75 557.35 2334.95 557.45 2333.7 559.55 2333.7 562.2 L2333.55 565.5 Q2333.15 566.3 2331.55 566.65 L2330.35 566.75 2325.3 566.7 2321.75 566.35 2319.6 566.0 Q2306.0 564.0 2301.05 559.45 2299.7 558.2 2299.15 557.0 2298.6 555.8 2298.75 554.65 2299.05 552.7 2299.65 551.7 L2300.65 550.5 Q2301.4 551.15 2302.65 553.35 L2303.45 555.05 Q2306.0 558.3 2311.95 558.95 L2327.15 561.2 Q2328.9 559.95 2330.8 558.9 L2331.25 558.7 M1611.15 382.7 L1610.35 381.55 1610.85 380.05 1618.1 385.0 1620.1 386.9 1620.1 386.85 1620.6 387.5 1621.4 389.45 1621.35 390.1 Q1620.85 393.65 1613.65 396.45 1604.4 399.95 1590.55 397.9 1581.95 396.65 1576.45 393.75 L1574.15 392.4 1569.65 389.35 Q1566.95 387.85 1563.25 387.05 L1563.05 386.05 Q1566.95 386.75 1574.2 389.45 L1576.4 390.2 1582.5 392.15 Q1598.8 394.55 1607.45 393.2 1611.85 392.45 1615.4 390.25 1615.2 389.4 1613.4 386.25 L1611.15 382.7 M1753.0 397.05 L1754.8 397.15 Q1758.9 397.75 1761.25 400.05 1763.6 402.3 1763.2 404.8 1762.8 407.6 1758.3 409.1 L1755.65 409.8 Q1746.25 411.8 1728.2 409.15 1711.35 406.7 1702.25 401.4 L1701.6 401.05 1699.5 399.6 Q1692.2 394.25 1693.05 388.3 L1693.25 386.85 1694.2 387.0 Q1693.4 391.55 1702.1 396.5 L1702.25 396.6 1703.6 397.35 Q1711.2 401.25 1720.2 402.6 1736.5 404.95 1747.2 404.55 1752.05 404.3 1755.55 403.45 L1753.65 400.55 1751.6 397.6 1752.6 397.15 1753.0 397.05 M1887.9 400.65 Q1890.05 399.6 1891.35 399.5 L1893.0 400.6 Q1893.4 401.25 1893.1 403.45 1892.85 404.9 1892.05 406.05 1890.4 408.2 1886.5 409.0 L1885.3 409.2 Q1879.15 410.1 1866.45 408.2 1849.7 405.75 1840.4 399.7 L1837.85 397.85 Q1833.45 394.4 1833.85 391.75 1834.25 389.05 1835.1 387.5 1836.4 385.05 1839.05 384.65 L1837.75 386.1 Q1836.45 387.3 1836.15 389.2 1835.75 392.0 1839.15 394.7 1840.25 395.55 1841.85 396.45 L1842.2 396.6 Q1850.3 401.1 1867.1 403.55 1876.45 404.95 1883.35 402.5 L1887.85 400.65 1887.9 400.65 M1465.6 308.6 L1466.95 307.8 1469.8 308.75 1470.55 309.3 Q1470.9 309.65 1470.65 311.6 1470.2 314.4 1465.8 315.55 L1465.5 315.65 1455.75 316.05 1455.55 316.0 1455.2 315.95 1453.35 315.65 Q1437.9 313.4 1426.6 307.85 L1426.2 307.7 1426.05 307.6 1425.8 307.45 Q1419.8 304.35 1417.7 301.7 1416.4 300.0 1416.65 298.45 1416.95 296.2 1422.4 293.4 1427.45 290.7 1429.35 291.0 L1424.9 294.85 Q1423.0 296.65 1422.05 297.9 L1421.5 298.65 Q1422.6 300.5 1430.25 303.65 1442.0 308.4 1460.6 311.1 L1465.6 308.6 M1411.35 360.55 L1410.75 360.9 Q1406.0 363.65 1403.35 364.45 L1396.4 365.25 1391.2 364.85 1390.2 364.75 1389.65 364.7 1388.95 364.65 1388.2 364.55 1387.75 364.5 1380.1 363.4 1379.85 363.3 1379.6 363.35 1379.3 363.25 1357.15 355.75 1355.2 354.4 Q1351.65 351.7 1349.8 348.45 L1347.9 344.45 1348.8 344.15 Q1353.3 347.1 1356.3 349.6 L1356.3 349.65 1357.45 350.6 1360.2 353.4 1360.2 353.5 1361.5 355.5 Q1361.95 356.2 1362.6 356.35 L1372.85 357.05 1407.7 359.65 Q1409.95 359.85 1410.8 360.2 L1411.35 360.55 M1527.6 354.55 L1529.25 354.2 1531.1 354.8 Q1531.8 355.15 1531.5 357.1 1531.4 357.7 1528.95 358.95 L1526.85 359.85 Q1522.3 361.85 1520.95 361.65 1503.85 359.15 1497.75 352.55 L1497.55 352.35 1497.45 352.25 1497.35 352.15 1497.15 351.9 1495.4 348.9 1495.2 348.2 Q1494.9 346.95 1495.0 346.15 1495.35 343.55 1496.55 342.0 1498.15 340.0 1501.95 338.0 1498.8 341.55 1498.1 346.3 L1498.05 346.9 Q1498.0 349.4 1501.25 351.7 1505.6 354.8 1514.4 356.1 1524.3 357.55 1525.8 356.25 L1526.75 355.05 1527.6 354.55 M1491.8 375.3 Q1490.3 374.3 1488.3 373.3 L1489.85 373.7 Q1493.0 374.5 1493.35 374.95 L1491.8 375.3 M1856.4 442.1 L1859.1 444.45 Q1866.1 449.7 1876.85 451.6 L1892.1 453.85 1896.15 451.2 Q1897.6 450.2 1899.7 449.05 L1901.65 449.7 1901.7 449.7 1902.15 450.15 1902.25 451.65 1902.2 452.0 Q1901.0 460.2 1884.6 457.8 1862.7 454.6 1855.05 445.25 L1854.05 444.0 Q1852.4 441.6 1851.75 439.05 L1851.4 436.05 1852.3 436.2 Q1853.45 439.2 1856.4 442.1 M1241.55 341.85 Q1242.0 341.4 1242.05 340.8 1242.35 338.75 1242.85 338.95 L1243.3 339.5 Q1245.5 339.65 1247.5 341.7 L1250.05 344.75 Q1249.3 345.45 1248.05 346.05 1245.95 347.0 1242.55 347.75 L1240.55 348.1 Q1231.95 349.5 1222.1 348.05 L1221.8 348.0 1221.55 347.95 1208.75 344.6 1207.45 343.95 1207.45 344.0 Q1204.85 342.65 1203.35 341.0 1200.75 338.35 1201.25 335.0 L1201.8 333.25 Q1203.15 331.4 1207.1 330.95 1207.35 331.4 1206.5 332.4 1205.35 333.8 1205.1 335.55 1204.95 336.65 1207.6 338.45 L1209.75 339.8 Q1214.55 342.5 1218.45 343.05 L1236.6 343.75 1237.5 343.6 Q1239.45 343.15 1240.55 342.55 L1241.55 341.85 M679.75 177.3 L682.4 177.5 683.65 177.95 681.8 179.75 Q677.8 182.7 667.95 185.25 655.2 188.5 642.7 188.5 L630.55 187.7 Q627.75 187.15 625.65 186.25 621.15 184.3 619.8 180.7 L620.8 176.65 621.75 176.65 Q622.1 180.0 624.3 181.4 625.2 181.95 626.55 182.35 630.1 183.45 636.85 183.45 657.0 183.45 665.45 180.4 L671.05 178.25 Q674.35 177.3 679.45 177.3 L679.75 177.3 M794.75 220.1 Q795.95 220.85 796.1 221.15 L794.55 221.6 786.35 222.7 776.15 223.45 Q759.05 223.45 747.55 218.2 L747.2 218.05 744.0 216.45 Q738.1 213.1 738.1 209.95 738.1 207.7 738.9 206.2 739.55 204.9 740.4 204.9 741.3 205.85 743.3 210.0 L744.5 211.95 Q745.45 213.2 746.85 214.1 L747.2 214.35 747.9 214.75 Q757.1 219.6 793.5 218.9 793.5 219.25 794.7 220.05 L794.75 220.1 M685.85 213.7 L685.9 213.7 Q687.25 213.65 687.25 213.35 690.8 216.9 690.8 217.4 L690.45 219.1 Q689.65 220.85 687.25 222.8 684.05 225.4 682.05 225.4 678.75 225.4 671.5 224.05 L660.1 221.5 659.45 220.5 668.75 220.7 676.75 220.45 Q684.55 219.45 685.3 213.7 L685.85 213.7 M319.6 186.1 L319.85 186.25 326.35 189.0 Q332.4 191.1 336.1 191.1 353.1 191.1 358.35 188.85 L358.9 188.6 359.4 188.3 360.9 187.1 Q361.9 186.15 362.9 185.9 L364.25 187.05 Q364.85 187.8 364.85 189.8 364.85 191.95 361.0 193.75 L359.8 194.25 359.6 194.35 348.15 196.2 344.05 196.3 Q332.65 196.3 323.25 192.1 320.6 190.9 318.85 189.9 315.45 187.95 315.45 186.55 315.45 183.95 316.45 182.35 317.9 180.0 321.3 180.55 L320.05 182.6 318.35 185.25 319.6 186.1 M406.0 185.0 L406.45 185.55 407.5 186.85 407.6 187.0 Q410.05 188.8 415.85 188.8 L442.6 187.55 442.95 187.4 Q444.15 186.95 444.55 185.8 444.95 184.5 446.1 183.8 447.9 184.5 448.15 184.8 449.0 185.55 449.0 187.7 449.0 190.05 445.75 191.75 444.6 192.35 443.15 192.8 L438.45 193.75 435.2 194.0 433.1 194.0 Q410.75 194.0 406.25 190.45 L406.2 190.45 405.65 189.9 Q404.75 188.8 404.95 187.3 405.5 185.25 405.45 184.45 L406.0 185.0 M505.1 212.9 L517.6 212.4 Q514.45 215.95 507.35 218.15 L504.55 218.9 Q496.5 220.85 485.25 220.85 L483.9 220.85 483.4 220.85 480.8 220.8 480.2 220.75 479.75 220.75 478.95 220.7 460.85 215.55 459.9 214.7 Q457.0 211.9 457.0 206.85 457.0 204.8 457.15 204.2 L457.3 203.95 459.25 203.75 461.05 205.85 Q462.3 207.6 463.95 210.6 467.75 215.3 475.0 215.3 L495.8 213.6 505.1 212.9 M543.5 243.75 L544.3 243.85 561.15 245.8 563.7 246.05 564.1 246.05 565.4 246.15 566.3 246.2 566.45 246.2 566.55 246.2 566.7 246.2 567.1 246.25 567.2 246.25 567.6 246.25 568.35 246.3 568.45 246.3 568.55 246.3 576.95 245.65 577.55 245.4 577.5 245.4 577.55 245.35 578.8 245.65 579.9 246.05 Q580.45 246.55 580.5 248.5 578.35 250.65 576.15 252.05 L575.6 252.05 571.85 252.05 Q553.5 251.8 547.65 249.45 545.8 248.65 543.7 246.9 L543.6 246.8 543.45 246.7 543.25 246.55 542.65 246.1 541.75 245.45 541.45 245.25 539.55 244.25 Q539.55 243.85 539.9 243.65 L540.2 243.4 543.5 243.75 M137.05 192.45 L137.6 193.1 138.2 193.7 138.4 193.9 Q142.9 197.9 151.5 197.9 167.65 197.9 171.25 196.4 L173.2 195.1 Q174.3 194.35 176.5 194.0 L178.25 194.35 Q178.8 194.55 178.8 196.6 178.8 199.75 174.6 201.2 170.55 202.65 162.35 202.65 154.3 202.65 148.2 201.35 143.55 199.8 137.45 197.1 L136.55 196.5 135.65 195.75 134.0 194.05 Q132.95 192.75 132.95 192.25 132.95 187.1 135.55 185.75 134.6 189.4 137.05 192.45 M98.35 179.4 L101.5 177.95 101.95 177.7 Q102.4 177.8 102.4 179.4 102.4 181.6 96.35 184.15 90.55 186.65 86.4 186.65 75.6 186.65 67.95 183.4 61.65 180.7 61.65 178.25 61.65 175.6 62.9 172.85 64.5 169.2 67.1 169.7 67.4 170.5 66.7 171.8 66.05 172.95 65.9 174.05 L65.85 174.55 65.85 174.7 Q65.85 177.9 71.6 179.75 78.1 181.8 91.15 181.8 92.55 181.8 96.35 180.25 L98.35 179.4 M42.6 240.9 Q44.2 239.8 46.4 239.8 47.15 239.8 48.45 241.05 L50.1 242.7 Q48.15 245.8 40.75 248.15 33.45 250.4 25.8 250.4 8.9 250.4 -1.65 244.05 L-3.15 243.1 Q-6.5 240.85 -8.15 238.55 -10.3 235.6 -9.75 232.55 L-8.95 232.55 Q-8.4 234.85 -6.75 236.9 L-2.5 240.7 -2.4 240.75 -2.2 240.9 -1.3 241.45 -1.15 241.55 Q-0.4 242.0 0.4 242.4 L0.7 242.6 0.9 242.7 1.45 242.95 Q9.2 246.75 15.85 246.75 32.9 246.75 39.1 243.3 41.55 241.55 42.55 240.9 L42.6 240.9 M312.1 250.55 L317.8 249.1 Q316.4 250.4 314.8 252.7 313.5 254.65 312.35 255.4 308.9 257.65 295.35 257.65 282.9 257.65 274.75 254.35 L274.85 254.35 274.15 254.1 270.3 252.1 270.0 251.9 267.35 250.0 267.05 249.75 Q263.35 246.5 263.35 243.2 263.35 241.6 263.6 242.1 L263.85 242.95 263.85 242.7 266.3 244.6 266.55 244.8 269.45 247.05 Q272.25 249.25 274.65 250.35 280.85 253.2 295.35 253.2 301.25 253.2 309.55 251.15 L310.8 250.85 312.1 250.55" fill="#f0c942" fill-rule="evenodd" stroke="none"/>
      <path d="M1974.55 363.6 Q1975.6 362.75 1977.2 362.15 1986.45 358.7 2009.85 363.5 L2013.2 367.1 Q2012.05 367.55 2011.8 368.35 L2011.75 368.45 2011.75 368.55 2011.3 370.6 Q2009.15 372.45 1985.9 369.05 1979.4 368.1 1976.15 365.35 L1974.55 363.6 M2257.2 444.8 L2261.05 444.2 Q2267.9 443.7 2277.3 445.3 2286.8 446.85 2293.05 449.6 2297.3 451.55 2298.8 453.55 L2298.25 453.95 2296.6 455.45 2276.15 453.15 Q2272.25 452.55 2263.65 448.25 L2257.2 444.8 M2236.3 474.9 Q2241.35 473.9 2248.8 478.3 2255.2 482.1 2261.45 488.7 2267.35 494.85 2269.8 499.85 2268.1 499.65 2250.0 492.8 L2228.5 484.55 Q2230.3 476.05 2236.3 474.9 M2120.95 412.1 Q2120.95 408.05 2121.3 407.55 L2121.6 407.85 Q2129.45 407.85 2140.0 411.35 2152.0 415.3 2153.75 420.2 L2122.9 418.25 2121.95 417.15 Q2120.95 416.0 2120.95 412.1 M2061.05 506.9 Q2064.95 506.7 2070.85 507.85 2093.85 509.45 2100.9 516.35 2103.35 518.7 2103.6 522.0 L2103.55 522.0 Q2097.1 522.65 2065.4 518.05 2064.15 517.85 2061.7 516.3 2058.75 514.35 2055.75 513.2 2056.4 511.1 2058.65 509.05 L2061.05 506.9 M2080.15 417.65 L2079.65 417.9 2079.45 418.05 2078.95 418.75 Q2078.8 419.9 2079.85 421.75 L2081.1 423.95 Q2080.15 424.5 2074.35 424.05 L2066.3 423.15 Q2053.3 421.25 2045.2 417.9 2040.05 415.9 2036.55 413.05 2038.4 412.25 2041.05 411.65 2049.55 409.45 2059.55 410.2 2070.7 411.0 2077.05 415.15 L2080.15 417.65 M2003.0 433.65 L2002.9 433.75 Q2003.15 435.45 2005.55 437.6 L2009.05 440.7 2008.55 442.1 Q2006.55 442.25 2006.65 443.0 2006.75 443.9 2006.1 444.05 2003.05 444.9 1975.55 440.85 1974.25 440.7 1965.95 437.5 L1963.6 436.6 1963.05 436.45 1962.95 436.35 Q1964.45 432.65 1971.85 430.9 1979.8 429.0 1990.05 430.35 1997.5 431.3 2003.0 433.65 M2331.25 558.7 L2330.8 558.9 Q2328.9 559.95 2327.15 561.2 L2311.95 558.95 Q2306.0 558.3 2303.45 555.05 L2302.65 553.35 Q2303.65 552.8 2304.8 552.35 2309.75 550.7 2316.95 552.05 2323.55 553.3 2328.3 556.3 L2331.25 558.7 M1668.55 322.9 Q1655.65 316.1 1646.25 312.15 1630.05 305.45 1610.05 300.3 1656.6 297.75 1720.95 320.15 1737.95 326.05 1757.65 334.2 1753.95 333.1 1750.1 332.35 1730.6 328.6 1700.7 331.8 1692.0 332.7 1684.25 330.15 1679.35 328.55 1668.55 322.9 M1576.4 390.2 L1576.45 389.95 Q1577.3 384.2 1585.45 381.8 1592.9 379.65 1602.8 380.95 1607.35 381.55 1611.15 382.7 L1613.4 386.25 Q1615.2 389.4 1615.4 390.25 1611.85 392.45 1607.45 393.2 1598.8 394.55 1582.5 392.15 L1576.4 390.2 M1703.6 397.35 Q1706.0 394.2 1712.4 392.2 1721.3 389.4 1732.4 390.2 1744.25 391.15 1751.3 395.8 L1753.0 397.05 1752.6 397.15 1751.6 397.6 1753.65 400.55 1755.55 403.45 Q1752.05 404.3 1747.2 404.55 1736.5 404.95 1720.2 402.6 1711.2 401.25 1703.6 397.35 M1773.4 340.9 Q1783.7 345.35 1818.7 361.4 1804.95 361.2 1794.35 355.2 1790.85 353.2 1785.5 349.25 L1776.4 342.85 1772.65 340.6 1773.4 340.9 M1844.35 344.8 Q1849.0 346.0 1854.75 348.35 1860.2 350.6 1861.25 351.65 L1861.9 353.6 1853.75 350.75 Q1845.9 348.0 1844.35 345.45 L1844.35 344.8 M1839.15 394.7 Q1841.65 390.5 1847.8 389.1 1855.55 387.4 1866.85 390.4 1877.3 393.15 1884.95 398.3 L1887.9 400.65 1887.85 400.65 1883.35 402.5 Q1876.45 404.95 1867.1 403.55 1850.3 401.1 1842.2 396.6 L1841.85 396.45 Q1840.25 395.55 1839.15 394.7 M1422.05 297.9 Q1423.7 297.1 1425.85 296.6 1433.1 294.9 1443.25 296.85 1453.15 298.65 1459.75 302.85 1464.1 305.6 1465.6 308.6 L1460.6 311.1 Q1442.0 308.4 1430.25 303.65 1422.6 300.5 1421.5 298.65 L1422.05 297.9 M1356.3 349.6 Q1357.8 346.35 1364.2 344.8 1372.3 342.9 1384.8 344.35 1397.0 345.8 1406.05 349.65 1413.9 353.05 1416.0 357.1 1415.5 358.1 1411.35 360.55 L1410.8 360.2 Q1409.95 359.85 1407.7 359.65 L1372.85 357.05 1362.6 356.35 Q1361.95 356.2 1361.5 355.5 L1360.2 353.5 1360.2 353.4 1357.45 350.6 1356.3 349.65 1356.3 349.6 M1498.05 346.9 L1498.85 346.55 Q1504.3 344.7 1511.9 346.3 1519.15 347.8 1524.1 351.35 1526.35 352.95 1527.6 354.55 L1526.75 355.05 1525.8 356.25 Q1524.3 357.55 1514.4 356.1 1505.6 354.8 1501.25 351.7 1498.0 349.4 1498.05 346.9 M1901.65 449.7 L1899.7 449.05 Q1897.6 450.2 1896.15 451.2 L1892.1 453.85 1876.85 451.6 Q1866.1 449.7 1859.1 444.45 L1856.4 442.1 Q1858.35 440.85 1861.0 440.15 1868.35 438.2 1879.2 440.35 1889.1 442.35 1896.55 446.3 1899.9 448.05 1901.65 449.7 M1207.6 338.45 Q1210.35 331.15 1225.75 335.3 1232.6 337.15 1239.65 340.85 L1241.55 341.85 1240.55 342.55 Q1239.45 343.15 1237.5 343.6 L1236.6 343.75 1218.45 343.05 Q1214.55 342.5 1209.75 339.8 L1207.6 338.45 M626.55 182.35 Q628.45 177.95 634.6 174.95 642.6 171.05 654.35 170.8 665.9 170.5 674.05 173.9 677.6 175.4 679.75 177.3 L679.45 177.3 Q674.35 177.3 671.05 178.25 L665.45 180.4 Q657.0 183.45 636.85 183.45 630.1 183.45 626.55 182.35 M794.75 220.1 L794.7 220.05 Q793.5 219.25 793.5 218.9 757.1 219.6 747.9 214.75 L747.2 214.35 746.85 214.1 Q745.45 213.2 744.5 211.95 746.45 208.9 751.1 207.2 758.1 204.65 768.9 205.7 779.1 206.7 786.7 210.25 794.8 214.0 794.8 218.4 L794.75 220.1 M690.45 219.1 L690.65 220.85 Q690.65 224.8 688.3 226.25 685.25 228.15 676.2 228.15 659.3 228.15 653.65 224.35 651.0 222.5 651.0 219.05 651.0 214.85 657.2 212.35 662.85 210.05 670.85 210.2 678.95 210.35 684.45 212.95 L685.85 213.7 685.3 213.7 Q684.55 219.45 676.75 220.45 L668.75 220.7 659.45 220.5 660.1 221.5 671.5 224.05 Q678.75 225.4 682.05 225.4 684.05 225.4 687.25 222.8 689.65 220.85 690.45 219.1 M560.6 178.4 Q558.65 178.4 548.9 182.3 L546.8 182.0 545.4 182.15 Q544.35 182.05 544.35 178.1 544.35 173.95 548.75 171.15 553.95 167.85 559.95 173.2 L560.3 174.6 560.6 178.4 M359.4 188.3 L358.9 188.6 358.35 188.85 Q353.1 191.1 336.1 191.1 332.4 191.1 326.35 189.0 L319.85 186.25 319.6 186.1 Q321.1 183.95 325.2 182.6 331.1 180.65 339.5 181.05 348.0 181.45 353.8 184.0 357.9 185.8 359.4 188.3 M406.0 185.0 Q407.4 182.9 411.2 181.6 416.75 179.7 424.5 180.2 432.4 180.7 437.75 183.5 441.1 185.25 442.6 187.55 L415.85 188.8 Q410.05 188.8 407.6 187.0 L407.5 186.85 406.45 185.55 406.0 185.0 M461.05 205.85 L463.1 204.35 Q467.2 202.1 474.15 202.4 488.7 203.05 505.1 212.9 L495.8 213.6 475.0 215.3 Q467.75 215.3 463.95 210.6 462.3 207.6 461.05 205.85 M577.5 245.4 L577.55 245.4 576.95 245.65 568.55 246.3 568.45 246.3 568.35 246.3 567.6 246.25 567.2 246.25 567.1 246.25 566.7 246.2 566.55 246.2 566.45 246.2 566.3 246.2 565.4 246.15 564.1 246.05 563.7 246.05 561.15 245.8 544.3 243.85 543.5 243.75 Q547.0 241.5 551.95 240.25 557.45 238.8 561.6 239.25 566.0 239.75 566.0 242.1 566.0 242.8 571.85 244.15 L572.15 244.2 577.5 245.4 M148.2 201.35 Q154.3 202.65 162.35 202.65 170.55 202.65 174.6 201.2 178.8 199.75 178.8 196.6 178.8 194.55 178.25 194.35 L176.5 194.0 Q174.3 194.35 173.2 195.1 L171.25 196.4 Q167.65 197.9 151.5 197.9 142.9 197.9 138.4 193.9 L138.2 193.7 137.6 193.1 137.05 192.45 Q138.9 190.05 143.3 188.8 149.95 186.85 160.45 187.8 170.05 188.65 177.55 191.3 180.35 192.3 182.1 193.35 L180.45 196.85 Q178.85 199.3 176.2 200.75 L173.7 202.15 157.8 203.3 Q154.2 203.3 148.2 201.35 M260.3 183.6 Q256.2 183.6 254.3 182.8 L251.2 181.0 Q260.25 166.2 279.5 175.8 275.2 180.1 268.95 182.15 264.45 183.6 260.3 183.6 M98.35 179.4 L96.35 180.25 Q92.55 181.8 91.15 181.8 78.1 181.8 71.6 179.75 65.85 177.9 65.85 174.7 L65.85 174.55 65.9 174.05 66.05 173.5 Q67.3 172.65 69.35 171.95 74.35 170.3 81.2 170.35 88.3 170.45 93.0 172.4 98.35 174.7 98.35 178.75 L98.35 179.4 M95.85 257.7 Q95.85 256.3 100.8 253.6 106.4 250.6 113.7 248.65 134.15 243.2 150.8 250.55 147.7 251.9 128.4 256.95 107.05 262.5 98.45 263.55 L96.4 262.35 Q95.85 261.75 95.85 257.7 M42.6 240.9 L42.55 240.9 Q41.55 241.55 39.1 243.3 32.9 246.75 15.85 246.75 9.2 246.75 1.45 242.95 L0.9 242.7 0.7 242.6 0.4 242.4 Q-0.4 242.0 -1.15 241.55 L-1.3 241.45 -2.2 240.9 -2.4 240.75 -2.5 240.7 -6.75 236.9 -7.05 236.5 Q-5.2 234.5 -0.25 232.9 7.3 230.4 17.2 230.15 27.8 229.85 34.65 232.45 42.1 235.3 42.6 240.9 M-8.15 238.55 Q-6.5 240.85 -3.15 243.1 -8.2 241.1 -8.2 239.0 L-8.15 238.55 M35.65 249.65 L34.6 249.65 38.6 248.8 Q37.2 249.65 35.65 249.65 M266.3 244.6 Q266.95 242.5 273.45 240.35 280.7 237.95 289.45 237.35 299.35 236.65 305.45 238.85 312.7 241.45 312.7 247.65 312.7 249.1 312.1 250.55 L310.8 250.85 309.55 251.15 Q301.25 253.2 295.35 253.2 280.85 253.2 274.65 250.35 272.25 249.25 269.45 247.05 L266.55 244.8 266.3 244.6 M274.75 254.35 Q271.85 253.5 270.0 252.45 267.95 251.25 267.05 249.75 L267.35 250.0 270.0 251.9 270.3 252.1 274.15 254.1 274.85 254.35 274.75 254.35 M186.85 268.75 L181.0 270.7 Q175.3 272.35 171.25 272.35 167.05 272.35 165.65 271.45 L163.45 269.1 Q165.5 266.0 167.7 264.85 171.55 262.75 181.65 264.2 181.65 264.9 184.0 266.5 186.55 268.2 186.85 268.75" fill="#ffe375" fill-rule="evenodd" stroke="none"/>
      <path d="M580.5 248.5 Q580.45 246.55 579.9 246.05 L578.8 245.65 582.45 246.45 582.1 246.8 580.5 248.5 M135.65 195.75 L136.55 196.5 137.45 197.1 135.6 196.25 135.65 195.75" fill="#f4d65b" fill-rule="evenodd" stroke="none"/>
    </g>
    <g id="sprite15" transform="matrix(1.0, 0.0, 0.0, 1.0, 302.1, 29.6)">
      <use ffdec:characterId="938" height="19.7" transform="matrix(1.0, 0.0, 0.0, 1.0, 71.4, 10.15)" width="17.25" xlink:href="#shape6"/>
      <use ffdec:characterId="941" ffdec:characterName="a_Animation_EB_SandDriftLarge" height="1147.7" transform="matrix(1.0, 0.0, 0.0, 1.0, -302.1, -29.6)" width="4689.5" xlink:href="#sprite16"/>
    </g>
    <g id="shape6" transform="matrix(1.0, 0.0, 0.0, 1.0, -71.4, -10.15)">
      <path d="M84.0 28.45 L79.2 29.85 71.4 27.9 Q71.4 23.25 73.9 18.35 76.3 13.6 79.55 11.4 83.0 9.0 85.4 11.15 88.2 13.65 88.65 21.7 L87.35 27.55 Q86.4 27.55 84.0 28.45" fill="#ffffff" fill-rule="evenodd" stroke="none"/>
    </g>
    <g id="sprite16" transform="matrix(1.0, 0.0, 0.0, 1.0, 418.2, 81.75)">
      <use ffdec:characterId="940" ffdec:characterName="a_EB_SandDriftLarge1" height="1103.25" transform="matrix(1.0, 0.0, 0.0, 1.0, -95.0, -75.25)" width="1416.0" xlink:href="#sprite17"/>
    </g>
    <g id="sprite17" transform="matrix(1.0, 0.0, 0.0, 1.0, 95.0, 75.25)">
      <use ffdec:characterId="939" height="1103.25" transform="matrix(1.0, 0.0, 0.0, 1.0, -95.0, -75.25)" width="1416.0" xlink:href="#shape7"/>
    </g>
    <g id="shape7" transform="matrix(1.0, 0.0, 0.0, 1.0, 95.0, 75.25)">
      <path d="M924.0 -28.0 Q924.25 -28.0 940.55 -35.9 961.1 -45.5 980.45 -53.0 1043.55 -77.5 1080.0 -75.0 1155.7 -62.3 1196.5 -44.7 1236.8 -27.25 1250.0 -2.0 1263.45 23.35 1283.45 57.8 1299.9 86.1 1305.4 97.55 1313.95 115.5 1317.35 132.95 1321.0 151.45 1321.0 179.5 1321.0 184.6 1308.0 214.85 1295.75 243.35 1277.3 281.9 1232.8 374.95 1213.0 403.0 1199.95 421.4 1165.95 451.2 1154.0 461.75 1133.9 478.5 L1099.65 507.05 Q1057.65 542.4 1034.95 565.65 1003.7 597.7 993.0 622.0 957.65 701.6 875.75 781.4 806.05 849.35 710.5 910.3 628.85 962.4 549.75 996.55 514.8 1011.65 487.45 1019.9 460.55 1028.0 446.0 1028.0 423.4 1028.0 405.15 1024.35 L376.75 1017.3 Q360.2 1013.25 343.5 1012.6 321.0 1011.75 288.0 1016.0 L100.0 1016.0 Q54.6 1012.8 15.3 996.8 -19.0 982.8 -45.7 960.3 -69.15 940.55 -82.6 917.9 -95.0 897.1 -95.0 881.0 -95.0 831.25 -56.7 790.15 -29.25 760.65 27.5 728.0 L72.5 702.95 Q97.95 688.75 111.7 679.35 130.3 666.7 139.45 655.35 150.0 642.3 150.0 629.0 150.0 615.6 135.45 601.55 130.25 596.5 120.55 588.85 L103.5 575.4 Q82.0 557.8 71.55 541.55 57.0 518.95 57.0 491.0 57.0 456.1 81.8 419.4 103.3 387.55 146.45 350.4 178.2 323.0 236.1 281.2 L285.7 245.65 Q315.95 223.95 336.0 209.0 356.05 194.1 376.3 174.1 389.35 161.25 411.15 137.3 434.8 111.3 445.8 100.1 466.1 79.55 485.5 64.25 534.55 25.55 601.1 2.85 681.35 -24.55 800.0 -34.0 L900.0 -33.0 Q905.85 -32.5 912.75 -30.1 918.9 -28.0 924.0 -28.0 M232.0 638.2 Q228.8 641.1 223.6 644.4 212.55 651.45 188.25 662.7 L138.3 685.15 Q104.3 700.4 81.0 712.0 11.0 746.9 -26.25 780.05 -75.0 823.45 -75.0 869.0 -75.0 892.75 -70.1 907.8 -63.6 927.8 -46.35 943.25 -5.95 979.45 112.0 1004.0 L252.0 1004.0 Q258.05 1002.65 279.9 1004.65 L327.4 1010.0 Q401.75 1019.0 426.0 1019.0 526.9 1019.0 669.4 926.9 714.95 897.4 760.95 860.8 L804.0 825.0 Q830.95 801.55 851.4 770.1 863.35 751.65 883.0 712.5 902.35 673.9 915.4 654.15 936.65 621.85 965.0 597.0 987.15 577.55 1035.6 542.65 1098.7 497.2 1115.7 484.15 1159.6 450.3 1182.2 425.0 1210.25 393.6 1212.0 369.0 1214.85 330.8 1229.35 297.35 1238.45 276.35 1259.2 244.5 1280.35 212.05 1287.45 196.15 1300.0 168.1 1300.0 138.0 1300.0 124.0 1293.9 105.35 1287.6 85.95 1276.05 65.7 1249.15 18.5 1206.95 -13.45 1156.55 -51.6 1096.85 -56.85 1026.3 -63.05 950.0 -22.0 798.6 -27.05 691.3 -5.1 601.5 13.3 537.45 52.0 492.15 79.4 447.6 126.35 L413.95 162.85 Q395.05 183.1 381.0 195.0 347.2 223.65 283.7 267.75 249.6 291.25 232.95 302.9 204.2 322.95 184.75 337.7 133.15 376.7 107.9 407.55 77.0 445.35 77.0 480.0 77.0 519.3 102.0 544.5 120.1 562.75 157.0 577.5 L186.4 588.5 Q203.15 594.75 212.0 599.25 222.4 604.55 228.3 610.3 231.75 622.75 232.0 638.2 M762.0 390.0 Q765.5 378.9 787.4 356.45 L804.6 339.0 Q813.95 329.45 818.0 324.0 819.25 323.4 820.25 323.65 L821.0 324.0 Q827.65 343.2 806.5 369.2 793.25 385.5 762.0 411.0 L762.0 390.0 M666.0 661.0 L664.0 661.0 Q650.5 647.5 640.45 636.45 621.0 615.05 621.0 610.0 621.0 604.85 627.3 598.0 637.2 587.25 640.0 583.0 645.75 591.6 654.7 617.5 664.25 645.15 666.0 661.0" fill="#ffffcc" fill-opacity="0.0" fill-rule="evenodd" stroke="none"/>
      <path d="M228.3 610.3 Q222.4 604.55 212.0 599.25 203.15 594.75 186.4 588.5 L157.0 577.5 Q120.1 562.75 102.0 544.5 77.0 519.3 77.0 480.0 77.0 445.35 107.9 407.55 133.15 376.7 184.75 337.7 204.2 322.95 232.95 302.9 249.6 291.25 283.7 267.75 347.2 223.65 381.0 195.0 395.05 183.1 413.95 162.85 L447.6 126.35 Q492.15 79.4 537.45 52.0 601.5 13.3 691.3 -5.1 798.6 -27.05 950.0 -22.0 1026.3 -63.05 1096.85 -56.85 1156.55 -51.6 1206.95 -13.45 1249.15 18.5 1276.05 65.7 1287.6 85.95 1293.9 105.35 1300.0 124.0 1300.0 138.0 1300.0 168.1 1287.45 196.15 1280.35 212.05 1259.2 244.5 1238.45 276.35 1229.35 297.35 1214.85 330.8 1212.0 369.0 1210.25 393.6 1182.2 425.0 1159.6 450.3 1115.7 484.15 1098.7 497.2 1035.6 542.65 987.15 577.55 965.0 597.0 936.65 621.85 915.4 654.15 902.35 673.9 883.0 712.5 863.35 751.65 851.4 770.1 830.95 801.55 804.0 825.0 L760.95 860.8 Q714.95 897.4 669.4 926.9 526.9 1019.0 426.0 1019.0 401.75 1019.0 327.4 1010.0 L279.9 1004.65 Q258.05 1002.65 252.0 1004.0 L112.0 1004.0 Q-5.95 979.45 -46.35 943.25 -63.6 927.8 -70.1 907.8 -75.0 892.75 -75.0 869.0 -75.0 823.45 -26.25 780.05 11.0 746.9 81.0 712.0 104.3 700.4 138.3 685.15 L188.25 662.7 Q212.55 651.45 223.6 644.4 228.8 641.1 232.0 638.2 237.0 633.6 237.0 630.0 237.0 620.05 230.15 612.25 L228.3 610.3 M936.0 -11.0 L808.0 -11.0 Q715.7 3.2 643.65 32.05 594.8 51.6 553.75 78.6 543.45 85.35 533.65 92.55 515.35 106.0 497.25 122.4 478.75 139.1 460.5 158.8 450.15 170.0 432.4 190.4 414.9 210.5 407.0 219.0 372.05 256.7 313.4 295.3 292.75 308.95 262.5 327.0 L213.3 356.25 Q157.55 389.95 133.55 413.05 101.0 444.45 101.0 477.0 101.0 492.65 101.3 496.45 101.95 503.8 104.7 509.65 L106.05 512.2 Q108.85 517.35 114.7 525.25 L122.6 535.75 135.0 552.0 Q143.15 562.5 167.0 572.85 184.15 580.3 215.4 589.9 L220.2 591.35 262.85 604.45 Q285.85 612.2 292.0 618.0 260.75 638.2 228.4 657.15 181.55 684.65 132.3 709.6 L72.95 738.85 Q41.6 754.2 26.2 762.7 4.6 774.6 -8.8 785.15 -23.8 797.05 -32.75 810.45 -42.2 824.5 -46.6 842.7 -51.0 860.95 -51.0 886.0 -51.0 895.5 -40.8 910.85 -28.1 930.0 -5.95 946.0 21.9 966.05 60.15 977.4 106.05 991.0 164.0 991.0 178.8 991.0 226.45 985.0 L272.0 979.0 Q285.65 979.0 294.9 982.15 300.4 984.0 311.45 989.0 337.55 999.0 400.0 999.0 471.3 999.0 549.5 970.55 613.15 947.45 677.75 906.95 726.65 876.3 768.85 840.6 784.35 827.5 795.55 816.55 805.15 807.15 807.0 804.0 816.35 788.05 822.75 769.55 827.15 756.9 830.15 743.05 831.5 737.0 835.45 715.45 838.5 698.95 841.25 689.0 849.45 659.45 868.45 637.2 892.25 609.4 940.0 583.0 962.35 570.65 982.85 558.45 1053.0 516.8 1101.9 477.4 1183.9 411.2 1191.0 362.0 1194.25 340.25 1198.6 322.0 1205.4 293.55 1214.85 273.45 1224.45 252.95 1242.9 232.25 L1247.95 226.5 1255.7 217.2 Q1262.25 208.55 1266.25 199.3 1276.0 176.65 1276.0 135.5 1276.0 122.5 1269.15 99.7 1261.7 75.0 1254.0 68.0 1246.75 61.4 1238.9 50.75 L1225.4 31.8 Q1207.85 7.9 1187.0 -4.0 1160.25 -19.5 1122.5 -30.45 1105.9 -35.25 1070.0 -43.0 1046.35 -45.85 1028.75 -41.15 1017.35 -38.1 1001.7 -29.05 984.5 -19.1 975.3 -15.95 958.15 -10.0 936.0 -11.0 M744.3 373.9 L744.55 372.3 Q748.8 350.25 768.35 334.85 774.0 330.4 781.15 326.3 805.1 312.4 846.0 302.0 L848.0 302.0 Q843.4 312.5 838.6 337.5 836.7 347.4 834.55 355.5 831.4 367.5 827.75 375.5 818.0 397.0 797.8 413.5 792.3 418.0 785.9 422.3 763.85 436.95 731.0 449.0 L732.0 446.0 Q742.4 433.1 743.0 410.65 L743.0 391.6 Q743.05 381.25 744.3 373.9 M1063.0 130.0 Q1064.3 129.35 1067.65 132.0 L1073.0 137.0 Q1071.35 139.45 1067.25 142.75 1062.8 146.3 1060.0 147.0 L1061.0 145.0 Q1063.0 139.0 1063.0 130.0 M762.0 390.0 L762.0 411.0 Q793.25 385.5 806.5 369.2 827.65 343.2 821.0 324.0 L820.25 323.65 Q819.25 323.4 818.0 324.0 813.95 329.45 804.6 339.0 L787.4 356.45 Q765.5 378.9 762.0 390.0 M651.0 547.0 Q648.65 554.6 651.95 569.65 654.25 579.95 660.9 599.75 669.0 623.95 671.1 631.4 676.0 648.5 676.0 658.5 676.0 666.75 667.95 697.65 661.95 720.7 657.9 730.45 656.3 734.2 655.0 736.0 L654.85 728.05 Q652.95 678.15 627.0 645.0 623.25 640.25 618.3 634.8 L616.7 633.1 607.75 623.65 Q599.0 614.1 599.0 608.0 599.0 601.8 618.7 579.9 L624.25 573.75 Q632.9 564.45 642.05 555.4 650.1 547.45 651.0 547.0 M666.0 661.0 Q664.25 645.15 654.7 617.5 645.75 591.6 640.0 583.0 637.2 587.25 627.3 598.0 621.0 604.85 621.0 610.0 621.0 615.05 640.45 636.45 650.5 647.5 664.0 661.0 L666.0 661.0" fill="#ffffcc" fill-opacity="0.0" fill-rule="evenodd" stroke="none"/>
      <path d="M936.0 -11.0 Q958.15 -10.0 975.3 -15.95 984.5 -19.1 1001.7 -29.05 1017.35 -38.1 1028.75 -41.15 1046.35 -45.85 1070.0 -43.0 1105.9 -35.25 1122.5 -30.45 1160.25 -19.5 1187.0 -4.0 1207.85 7.9 1225.4 31.8 L1238.9 50.75 Q1246.75 61.4 1254.0 68.0 1261.7 75.0 1269.15 99.7 1276.0 122.5 1276.0 135.5 1276.0 176.65 1266.25 199.3 1262.25 208.55 1255.7 217.2 L1247.95 226.5 1242.9 232.25 Q1224.45 252.95 1214.85 273.45 1205.4 293.55 1198.6 322.0 1194.25 340.25 1191.0 362.0 1183.9 411.2 1101.9 477.4 1053.0 516.8 982.85 558.45 962.35 570.65 940.0 583.0 892.25 609.4 868.45 637.2 849.45 659.45 841.25 689.0 838.5 698.95 835.45 715.45 831.5 737.0 830.15 743.05 827.15 756.9 822.75 769.55 816.35 788.05 807.0 804.0 805.15 807.15 795.55 816.55 784.35 827.5 768.85 840.6 726.65 876.3 677.75 906.95 613.15 947.45 549.5 970.55 471.3 999.0 400.0 999.0 337.55 999.0 311.45 989.0 300.4 984.0 294.9 982.15 285.65 979.0 272.0 979.0 L226.45 985.0 Q178.8 991.0 164.0 991.0 106.05 991.0 60.15 977.4 21.9 966.05 -5.95 946.0 -28.1 930.0 -40.8 910.85 -51.0 895.5 -51.0 886.0 -51.0 860.95 -46.6 842.7 -42.2 824.5 -32.75 810.45 -23.8 797.05 -8.8 785.15 4.6 774.6 26.2 762.7 41.6 754.2 72.95 738.85 L132.3 709.6 Q181.55 684.65 228.4 657.15 260.75 638.2 292.0 618.0 285.85 612.2 262.85 604.45 L220.2 591.35 215.4 589.9 Q184.15 580.3 167.0 572.85 143.15 562.5 135.0 552.0 L122.6 535.75 114.7 525.25 Q108.85 517.35 106.05 512.2 L104.7 509.65 Q101.95 503.8 101.3 496.45 101.0 492.65 101.0 477.0 101.0 444.45 133.55 413.05 157.55 389.95 213.3 356.25 L262.5 327.0 Q292.75 308.95 313.4 295.3 372.05 256.7 407.0 219.0 414.9 210.5 432.4 190.4 450.15 170.0 460.5 158.8 478.75 139.1 497.25 122.4 515.35 106.0 533.65 92.55 543.45 85.35 553.75 78.6 594.8 51.6 643.65 32.05 715.7 3.2 808.0 -11.0 L936.0 -11.0 M1174.25 268.45 Q1179.15 260.45 1186.0 253.0 1200.25 237.75 1221.15 216.35 L1232.7 203.9 Q1239.25 196.45 1242.9 191.3 1250.8 180.05 1253.9 167.85 1257.0 155.75 1257.0 136.0 1257.0 130.0 1256.4 124.2 1253.85 99.35 1240.3 77.5 1226.85 55.75 1201.85 35.55 1191.4 27.15 1179.0 19.0 1167.15 6.4 1138.4 -5.75 1120.85 -13.15 1103.25 -17.6 1090.7 -20.8 1078.15 -22.5 1043.55 -27.2 1021.8 -18.25 998.85 -8.85 993.9 14.7 L993.0 20.0 Q990.9 19.4 987.85 18.75 L971.75 15.65 952.0 12.0 784.0 12.0 Q741.45 22.55 707.45 32.7 679.3 41.05 657.0 49.1 L642.55 54.5 Q621.5 62.75 594.8 75.15 L542.0 100.0 Q516.5 112.0 498.65 129.9 485.1 143.5 473.15 163.95 L470.35 169.2 Q460.05 188.15 454.55 197.5 443.75 215.8 432.0 226.0 387.4 264.75 324.8 304.2 305.25 316.5 273.65 335.25 L245.35 352.1 Q233.0 359.5 226.95 363.25 177.15 394.0 155.6 416.7 136.85 436.45 130.85 457.7 128.0 467.7 128.0 478.0 128.0 489.4 128.95 496.15 130.35 506.2 134.45 514.4 137.1 519.75 141.25 524.75 152.6 538.65 175.0 550.0 187.65 556.25 212.35 559.4 L234.1 561.8 256.5 564.65 Q276.5 567.8 290.95 573.75 295.3 575.5 299.15 577.55 320.45 588.85 332.0 610.0 320.6 617.7 307.8 625.7 267.55 650.8 213.5 678.75 L207.6 681.75 147.75 711.9 Q113.1 729.3 92.9 740.3 35.25 771.75 8.7 798.25 L4.35 802.8 Q-12.55 821.05 -19.35 840.7 -24.0 854.0 -24.0 868.0 -24.0 882.55 -19.65 895.2 -13.85 912.25 -0.1 925.9 11.2 937.1 27.2 945.35 39.2 951.5 53.85 956.0 76.75 963.05 106.25 966.0 L140.0 968.0 272.0 968.0 281.8 966.0 297.15 963.25 Q316.4 960.0 323.0 960.0 324.55 960.0 326.1 963.6 L326.3 964.0 Q328.4 968.8 330.8 971.5 341.2 983.0 372.0 983.0 376.85 983.0 410.9 974.65 L425.45 971.0 485.4 955.5 Q532.0 943.25 568.05 933.2 L591.8 926.5 Q624.15 917.15 646.0 910.0 696.25 893.8 730.8 858.3 742.25 846.55 756.05 828.35 L757.75 826.1 Q774.5 804.0 777.0 801.0 792.0 782.95 801.95 757.95 804.75 750.9 807.15 743.25 811.15 730.4 814.7 713.95 L820.0 687.0 Q821.75 677.9 820.8 658.7 819.9 639.35 821.7 629.75 824.65 613.75 835.95 601.9 849.55 587.65 877.0 577.0 920.45 560.05 964.4 537.4 L968.3 535.35 Q1017.2 509.85 1056.5 482.5 1099.6 452.55 1125.2 424.4 1143.15 404.65 1151.55 386.85 1156.35 376.6 1158.0 367.0 1159.85 356.15 1160.15 338.35 1160.5 317.0 1161.15 310.0 1162.4 296.35 1166.25 285.25 1169.85 277.25 1174.25 268.45 M1027.75 156.35 L1033.6 149.4 Q1048.8 129.6 1048.15 110.75 1047.8 99.7 1042.0 89.0 1052.25 94.8 1059.7 99.7 1069.0 105.8 1074.05 110.45 1081.7 117.5 1084.85 125.15 1087.0 130.4 1087.0 136.0 1087.0 142.15 1083.65 148.3 1081.2 152.7 1077.05 157.15 1068.35 166.4 1050.75 176.95 L1040.45 182.85 Q1029.45 188.9 1013.6 196.8 L971.0 218.05 Q917.4 245.75 891.25 270.5 881.25 280.0 874.0 289.95 858.65 311.05 855.7 334.3 855.0 339.85 855.0 345.5 855.0 349.4 857.45 361.9 L859.0 369.5 Q863.0 388.5 863.0 393.5 863.0 398.25 854.9 404.6 848.2 409.9 833.65 417.9 L818.45 425.8 Q787.95 441.7 769.0 452.7 L762.5 456.55 Q737.85 471.35 720.55 485.8 711.45 493.35 704.4 500.85 690.4 515.6 683.1 530.95 675.0 547.9 675.0 565.5 675.0 575.65 684.85 604.3 687.55 612.2 691.0 621.55 L702.0 650.65 Q707.0 664.0 707.0 666.0 707.0 675.65 698.75 695.35 690.9 714.1 678.8 734.45 666.25 755.55 654.5 769.3 649.2 775.5 644.7 779.4 638.0 785.15 633.0 786.0 L633.0 783.0 Q635.0 777.8 636.6 771.45 639.1 761.25 640.5 748.15 642.0 734.35 642.0 721.5 642.0 706.75 631.05 686.9 623.15 672.5 607.0 651.55 589.5 629.6 582.95 620.45 L579.15 614.95 Q572.0 603.95 572.0 598.5 572.0 582.3 630.25 532.5 L659.15 508.45 674.1 496.0 Q696.65 477.25 702.0 471.0 L703.0 469.8 Q715.3 454.6 719.3 435.4 721.5 424.85 721.65 406.8 L721.65 400.3 Q721.4 377.45 723.4 367.55 726.85 350.5 739.0 339.0 761.3 317.85 812.6 288.65 L828.9 279.55 864.2 260.65 885.1 249.6 Q920.55 230.9 940.95 219.25 1003.0 183.8 1027.75 156.35 M1063.0 130.0 Q1063.0 139.0 1061.0 145.0 L1060.0 147.0 Q1062.8 146.3 1067.25 142.75 1071.35 139.45 1073.0 137.0 L1067.65 132.0 Q1064.3 129.35 1063.0 130.0 M744.3 373.9 Q743.05 381.25 743.0 391.6 L743.0 410.65 Q742.4 433.1 732.0 446.0 L731.0 449.0 Q763.85 436.95 785.9 422.3 792.3 418.0 797.8 413.5 818.0 397.0 827.75 375.5 831.4 367.5 834.55 355.5 836.7 347.4 838.6 337.5 843.4 312.5 848.0 302.0 L846.0 302.0 Q805.1 312.4 781.15 326.3 774.0 330.4 768.35 334.85 748.8 350.25 744.55 372.3 L744.3 373.9 M651.0 547.0 Q650.1 547.45 642.05 555.4 632.9 564.45 624.25 573.75 L618.7 579.9 Q599.0 601.8 599.0 608.0 599.0 614.1 607.75 623.65 L616.7 633.1 618.3 634.8 Q623.25 640.25 627.0 645.0 652.95 678.15 654.85 728.05 L655.0 736.0 Q656.3 734.2 657.9 730.45 661.95 720.7 667.95 697.65 676.0 666.75 676.0 658.5 676.0 648.5 671.1 631.4 669.0 623.95 660.9 599.75 654.25 579.95 651.95 569.65 648.65 554.6 651.0 547.0" fill="#ffffcc" fill-opacity="0.0" fill-rule="evenodd" stroke="none"/>
      <path d="M1166.25 285.25 Q1162.4 296.35 1161.15 310.0 1160.5 317.0 1160.15 338.35 1159.85 356.15 1158.0 367.0 1156.35 376.6 1151.55 386.85 1143.15 404.65 1125.2 424.4 1099.6 452.55 1056.5 482.5 1017.2 509.85 968.3 535.35 L964.4 537.4 Q920.45 560.05 877.0 577.0 849.55 587.65 835.95 601.9 824.65 613.75 821.7 629.75 819.9 639.35 820.8 658.7 821.75 677.9 820.0 687.0 L814.7 713.95 Q811.15 730.4 807.15 743.25 804.75 750.9 801.95 757.95 792.0 782.95 777.0 801.0 774.5 804.0 757.75 826.1 L756.05 828.35 Q742.25 846.55 730.8 858.3 696.25 893.8 646.0 910.0 624.15 917.15 591.8 926.5 L568.05 933.2 Q532.0 943.25 485.4 955.5 L425.45 971.0 410.9 974.65 Q376.85 983.0 372.0 983.0 341.2 983.0 330.8 971.5 328.4 968.8 326.3 964.0 L326.1 963.6 Q324.55 960.0 323.0 960.0 316.4 960.0 297.15 963.25 L281.8 966.0 272.0 968.0 140.0 968.0 106.25 966.0 Q76.75 963.05 53.85 956.0 39.2 951.5 27.2 945.35 11.2 937.1 -0.1 925.9 -13.85 912.25 -19.65 895.2 -24.0 882.55 -24.0 868.0 -24.0 854.0 -19.35 840.7 -12.55 821.05 4.35 802.8 L8.7 798.25 Q35.25 771.75 92.9 740.3 113.1 729.3 147.75 711.9 L207.6 681.75 213.5 678.75 Q267.55 650.8 307.8 625.7 320.6 617.7 332.0 610.0 320.45 588.85 299.15 577.55 295.3 575.5 290.95 573.75 276.5 567.8 256.5 564.65 L234.1 561.8 212.35 559.4 Q187.65 556.25 175.0 550.0 152.6 538.65 141.25 524.75 137.1 519.75 134.45 514.4 130.35 506.2 128.95 496.15 128.0 489.4 128.0 478.0 128.0 467.7 130.85 457.7 136.85 436.45 155.6 416.7 177.15 394.0 226.95 363.25 233.0 359.5 245.35 352.1 L273.65 335.25 Q305.25 316.5 324.8 304.2 387.4 264.75 432.0 226.0 443.75 215.8 454.55 197.5 460.05 188.15 470.35 169.2 L473.15 163.95 Q485.1 143.5 498.65 129.9 516.5 112.0 542.0 100.0 L594.8 75.15 Q621.5 62.75 642.55 54.5 L657.0 49.1 Q679.3 41.05 707.45 32.7 741.45 22.55 784.0 12.0 L952.0 12.0 971.75 15.65 987.85 18.75 Q990.9 19.4 993.0 20.0 L993.9 14.7 Q998.85 -8.85 1021.8 -18.25 1043.55 -27.2 1078.15 -22.5 1090.7 -20.8 1103.25 -17.6 1120.85 -13.15 1138.4 -5.75 1167.15 6.4 1179.0 19.0 1191.4 27.15 1201.85 35.55 1226.85 55.75 1240.3 77.5 1253.85 99.35 1256.4 124.2 1257.0 130.0 1257.0 136.0 1257.0 155.75 1253.9 167.85 1250.8 180.05 1242.9 191.3 1239.25 196.45 1232.7 203.9 L1221.15 216.35 Q1200.25 237.75 1186.0 253.0 1179.15 260.45 1174.25 268.45 1170.25 274.85 1167.55 281.65 L1166.25 285.25 M1223.4 131.65 L1223.35 128.7 Q1221.8 99.55 1190.8 69.55 1162.6 42.25 1119.15 21.9 1078.25 2.8 1047.4 0.3 1032.2 -0.95 1023.8 2.85 1021.85 3.7 1020.35 4.85 1014.85 8.9 1014.85 16.2 1014.85 30.25 1029.1 41.65 L1033.85 45.2 Q1037.95 48.05 1043.65 51.5 L1060.4 61.75 1066.4 65.85 Q1080.3 75.7 1088.65 86.25 L1091.65 90.3 Q1105.9 111.05 1105.9 141.0 1105.9 145.65 1105.35 150.15 1100.8 157.65 1094.25 166.15 1081.0 183.3 1062.7 200.35 1054.7 207.8 1046.1 214.75 1024.0 232.45 997.6 246.95 984.3 254.25 967.15 262.25 L942.35 273.55 939.6 274.75 Q909.75 288.45 898.1 299.35 882.2 314.25 882.2 336.65 882.2 340.2 882.65 343.5 883.6 350.85 886.7 357.0 L886.95 358.4 Q887.8 363.3 889.5 369.4 892.95 381.95 892.95 391.7 892.95 396.55 892.05 401.4 890.4 405.7 888.0 409.85 884.8 415.4 880.2 420.7 L879.85 421.1 Q869.4 433.25 850.7 445.95 836.9 455.35 813.5 468.3 L774.1 489.95 Q752.05 502.5 738.55 512.65 702.95 539.55 702.95 568.4 702.95 573.3 707.2 580.9 713.2 590.7 716.65 597.35 730.35 623.9 730.35 660.35 730.35 701.75 703.5 740.3 698.1 748.1 691.35 756.05 L684.05 764.25 Q677.15 771.75 669.05 779.35 657.9 789.85 644.55 800.65 633.1 809.9 613.0 824.9 607.55 828.95 603.0 832.35 596.25 837.4 591.6 841.0 L579.7 848.65 Q540.65 872.6 515.5 881.15 489.45 890.0 448.25 902.95 L438.3 906.1 460.65 897.3 Q496.35 879.6 533.5 855.75 542.7 849.8 556.05 839.55 567.75 830.45 582.65 818.0 594.0 808.3 603.45 800.35 615.0 784.85 618.45 770.8 L618.65 770.05 620.35 765.25 621.25 761.8 Q630.0 726.05 619.15 696.85 611.15 675.35 590.25 653.35 585.5 648.4 573.25 636.6 563.15 626.95 558.5 621.5 555.45 617.95 553.2 614.5 545.25 602.2 547.9 591.4 551.95 574.8 571.95 555.85 L573.7 554.2 Q582.15 546.5 595.25 536.4 598.9 533.6 619.4 518.45 650.9 495.05 665.7 479.8 688.1 456.75 693.7 433.95 697.5 418.3 694.0 401.15 L692.9 396.55 Q689.75 384.5 689.45 382.7 688.15 375.35 689.6 369.4 691.8 360.3 697.65 350.55 711.65 327.1 746.4 299.75 L755.25 293.0 Q772.55 280.05 795.7 265.0 815.7 251.95 850.85 230.65 L880.2 212.75 905.85 196.95 Q935.55 178.35 954.6 164.3 1003.15 128.6 1009.4 102.95 1011.55 94.2 1007.15 83.25 1001.55 69.55 987.2 59.35 952.85 34.9 880.2 38.35 L857.8 39.95 857.45 40.15 839.95 42.95 833.8 43.85 831.9 44.3 Q774.0 54.4 715.75 71.05 636.85 93.7 573.7 123.6 L571.85 124.5 Q518.25 150.3 494.0 184.2 486.0 195.4 478.1 212.05 L477.4 213.55 Q465.8 238.4 463.9 241.85 456.15 256.3 433.15 272.65 415.05 285.6 383.05 302.5 364.55 312.35 326.15 331.6 L324.7 332.35 Q292.4 348.95 275.0 360.1 243.55 380.2 225.45 393.2 204.05 408.55 190.9 421.4 183.35 428.75 177.5 436.2 172.45 442.6 168.6 449.1 160.45 463.2 156.15 480.6 152.35 496.2 158.9 508.0 165.1 519.25 180.8 527.0 193.55 533.25 214.8 538.5 L240.3 543.9 255.05 546.8 Q281.55 551.95 295.1 555.6 316.1 561.15 328.9 568.15 360.55 585.65 352.4 619.0 348.8 633.9 330.65 650.7 314.7 665.55 285.9 683.1 262.65 697.35 225.65 716.5 L157.5 750.85 Q130.4 764.5 110.1 775.25 L112.55 773.15 Q93.35 783.55 77.95 792.75 61.65 801.95 48.0 810.5 L39.7 818.7 Q6.85 852.8 0.1 880.25 L0.0 880.75 Q0.6 886.2 2.5 891.85 3.4 894.5 4.6 897.1 9.6 908.25 19.5 918.25 35.4 934.35 59.4 943.9 L67.55 946.85 72.65 947.2 166.8 952.8 220.65 952.8 Q250.45 950.1 279.0 945.85 308.7 941.4 337.0 935.25 353.3 931.7 369.15 927.6 L380.35 924.65 388.95 922.2 380.65 925.3 Q368.0 930.2 360.9 934.2 348.55 941.15 348.55 947.65 348.55 951.0 349.5 950.9 L350.4 950.1 369.0 953.45 384.75 955.15 Q398.55 955.15 438.45 946.7 482.3 937.3 528.9 923.55 584.3 907.1 626.2 889.2 636.85 884.65 646.4 880.1 661.25 875.45 676.2 867.65 L679.15 866.1 Q709.75 849.45 735.7 822.25 L741.05 816.4 Q770.45 783.55 787.2 743.45 804.7 701.3 804.7 659.0 804.7 656.0 804.2 651.6 803.05 642.4 799.7 627.2 794.65 604.65 794.65 594.6 794.65 585.3 809.4 573.9 822.25 564.0 848.25 551.2 860.95 544.95 880.2 536.45 890.7 531.75 903.2 526.4 L966.15 499.4 Q1045.85 464.65 1084.1 438.95 1137.7 402.9 1137.7 369.55 1137.7 361.8 1133.85 349.85 1133.2 337.3 1129.1 325.7 1126.6 318.75 1125.7 314.75 1124.2 307.75 1124.2 298.7 1124.2 282.9 1135.35 263.5 L1135.6 263.0 Q1146.65 250.9 1168.15 228.7 1193.5 201.4 1206.15 181.35 1223.4 154.0 1223.4 131.65 M1027.75 156.35 Q1003.0 183.8 940.95 219.25 920.55 230.9 885.1 249.6 L864.2 260.65 828.9 279.55 812.6 288.65 Q761.3 317.85 739.0 339.0 726.85 350.5 723.4 367.55 721.4 377.45 721.65 400.3 L721.65 406.8 Q721.5 424.85 719.3 435.4 715.3 454.6 703.0 469.8 L702.0 471.0 Q696.65 477.25 674.1 496.0 L659.15 508.45 630.25 532.5 Q572.0 582.3 572.0 598.5 572.0 603.95 579.15 614.95 L582.95 620.45 Q589.5 629.6 607.0 651.55 623.15 672.5 631.05 686.9 642.0 706.75 642.0 721.5 642.0 734.35 640.5 748.15 639.1 761.25 636.6 771.45 635.0 777.8 633.0 783.0 L633.0 786.0 Q638.0 785.15 644.7 779.4 649.2 775.5 654.5 769.3 666.25 755.55 678.8 734.45 690.9 714.1 698.75 695.35 707.0 675.65 707.0 666.0 707.0 664.0 702.0 650.65 L691.0 621.55 Q687.55 612.2 684.85 604.3 675.0 575.65 675.0 565.5 675.0 547.9 683.1 530.95 690.4 515.6 704.4 500.85 711.45 493.35 720.55 485.8 737.85 471.35 762.5 456.55 L769.0 452.7 Q787.95 441.7 818.45 425.8 L833.65 417.9 Q848.2 409.9 854.9 404.6 863.0 398.25 863.0 393.5 863.0 388.5 859.0 369.5 L857.45 361.9 Q855.0 349.4 855.0 345.5 855.0 339.85 855.7 334.3 858.65 311.05 874.0 289.95 881.25 280.0 891.25 270.5 917.4 245.75 971.0 218.05 L1013.6 196.8 Q1029.45 188.9 1040.45 182.85 L1050.75 176.95 Q1068.35 166.4 1077.05 157.15 1081.2 152.7 1083.65 148.3 1087.0 142.15 1087.0 136.0 1087.0 130.4 1084.85 125.15 1081.7 117.5 1074.05 110.45 1069.0 105.8 1059.7 99.7 1052.25 94.8 1042.0 89.0 1047.8 99.7 1048.15 110.75 1048.8 129.6 1033.6 149.4 L1027.75 156.35" fill="#ffffcc" fill-opacity="0.0" fill-rule="evenodd" stroke="none"/>
      <path d="M1223.4 131.65 Q1223.4 154.0 1206.15 181.35 1193.5 201.4 1168.15 228.7 1146.65 250.9 1135.6 263.0 L1135.35 263.5 Q1124.2 282.9 1124.2 298.7 1124.2 307.75 1125.7 314.75 1126.6 318.75 1129.1 325.7 1133.2 337.3 1133.85 349.85 1137.7 361.8 1137.7 369.55 1137.7 402.9 1084.1 438.95 1045.85 464.65 966.15 499.4 L903.2 526.4 Q890.7 531.75 880.2 536.45 860.95 544.95 848.25 551.2 822.25 564.0 809.4 573.9 794.65 585.3 794.65 594.6 794.65 604.65 799.7 627.2 803.05 642.4 804.2 651.6 804.7 656.0 804.7 659.0 804.7 701.3 787.2 743.45 770.45 783.55 741.05 816.4 L735.7 822.25 Q709.75 849.45 679.15 866.1 L676.2 867.65 Q661.25 875.45 646.4 880.1 636.85 884.65 626.2 889.2 584.3 907.1 528.9 923.55 482.3 937.3 438.45 946.7 398.55 955.15 384.75 955.15 L369.0 953.45 350.4 950.1 349.5 950.9 Q348.55 951.0 348.55 947.65 348.55 941.15 360.9 934.2 368.0 930.2 380.65 925.3 L388.95 922.2 380.35 924.65 369.15 927.6 Q353.3 931.7 337.0 935.25 308.7 941.4 279.0 945.85 250.45 950.1 220.65 952.8 L166.8 952.8 72.65 947.2 67.55 946.85 59.4 943.9 Q35.4 934.35 19.5 918.25 9.6 908.25 4.6 897.1 3.4 894.5 2.5 891.85 0.6 886.2 0.0 880.75 L0.1 880.25 Q6.85 852.8 39.7 818.7 L48.0 810.5 Q61.65 801.95 77.95 792.75 93.35 783.55 112.55 773.15 L110.1 775.25 Q130.4 764.5 157.5 750.85 L225.65 716.5 Q262.65 697.35 285.9 683.1 314.7 665.55 330.65 650.7 348.8 633.9 352.4 619.0 360.55 585.65 328.9 568.15 316.1 561.15 295.1 555.6 281.55 551.95 255.05 546.8 L240.3 543.9 214.8 538.5 Q193.55 533.25 180.8 527.0 165.1 519.25 158.9 508.0 152.35 496.2 156.15 480.6 160.45 463.2 168.6 449.1 172.45 442.6 177.5 436.2 183.35 428.75 190.9 421.4 204.05 408.55 225.45 393.2 243.55 380.2 275.0 360.1 292.4 348.95 324.7 332.35 L326.15 331.6 Q364.55 312.35 383.05 302.5 415.05 285.6 433.15 272.65 456.15 256.3 463.9 241.85 465.8 238.4 477.4 213.55 L478.1 212.05 Q486.0 195.4 494.0 184.2 518.25 150.3 571.85 124.5 L573.7 123.6 Q636.85 93.7 715.75 71.05 774.0 54.4 831.9 44.3 L833.8 43.85 839.95 42.95 857.45 40.15 857.8 39.95 880.2 38.35 Q952.85 34.9 987.2 59.35 1001.55 69.55 1007.15 83.25 1011.55 94.2 1009.4 102.95 1003.15 128.6 954.6 164.3 935.55 178.35 905.85 196.95 L880.2 212.75 850.85 230.65 Q815.7 251.95 795.7 265.0 772.55 280.05 755.25 293.0 L746.4 299.75 Q711.65 327.1 697.65 350.55 691.8 360.3 689.6 369.4 688.15 375.35 689.45 382.7 689.75 384.5 692.9 396.55 L694.0 401.15 Q697.5 418.3 693.7 433.95 688.1 456.75 665.7 479.8 650.9 495.05 619.4 518.45 598.9 533.6 595.25 536.4 582.15 546.5 573.7 554.2 L571.95 555.85 Q551.95 574.8 547.9 591.4 545.25 602.2 553.2 614.5 555.45 617.95 558.5 621.5 563.15 626.95 573.25 636.6 585.5 648.4 590.25 653.35 611.15 675.35 619.15 696.85 630.0 726.05 621.25 761.8 L620.35 765.25 618.65 770.05 618.45 770.8 Q615.0 784.85 603.45 800.35 594.0 808.3 582.65 818.0 567.75 830.45 556.05 839.55 542.7 849.8 533.5 855.75 496.35 879.6 460.65 897.3 L438.3 906.1 448.25 902.95 Q489.45 890.0 515.5 881.15 540.65 872.6 579.7 848.65 L591.6 841.0 Q596.25 837.4 603.0 832.35 607.55 828.95 613.0 824.9 633.1 809.9 644.55 800.65 657.9 789.85 669.05 779.35 677.15 771.75 684.05 764.25 L691.35 756.05 Q698.1 748.1 703.5 740.3 730.35 701.75 730.35 660.35 730.35 623.9 716.65 597.35 713.2 590.7 707.2 580.9 702.95 573.3 702.95 568.4 702.95 539.55 738.55 512.65 752.05 502.5 774.1 489.95 L813.5 468.3 Q836.9 455.35 850.7 445.95 869.4 433.25 879.85 421.1 L880.2 420.7 Q884.8 415.4 888.0 409.85 890.4 405.7 892.05 401.4 892.95 396.55 892.95 391.7 892.95 381.95 889.5 369.4 887.8 363.3 886.95 358.4 L886.7 357.0 Q883.6 350.85 882.65 343.5 882.2 340.2 882.2 336.65 882.2 314.25 898.1 299.35 909.75 288.45 939.6 274.75 L942.35 273.55 967.15 262.25 Q984.3 254.25 997.6 246.95 1024.0 232.45 1046.1 214.75 1054.7 207.8 1062.7 200.35 1081.0 183.3 1094.25 166.15 1100.8 157.65 1105.35 150.15 1105.9 145.65 1105.9 141.0 1105.9 111.05 1091.65 90.3 L1088.65 86.25 Q1080.3 75.7 1066.4 65.85 L1060.4 61.75 1043.65 51.5 Q1037.95 48.05 1033.85 45.2 L1029.1 41.65 Q1014.85 30.25 1014.85 16.2 1014.85 8.9 1020.35 4.85 1021.85 3.7 1023.8 2.85 1032.2 -0.95 1047.4 0.3 1078.25 2.8 1119.15 21.9 1162.6 42.25 1190.8 69.55 1221.8 99.55 1223.35 128.7 L1223.4 131.65" fill="#ffffcc" fill-opacity="0.0" fill-rule="evenodd" stroke="none"/>
    </g>
    <g id="sprite23" transform="matrix(1.0, 0.0, 0.0, 1.0, 22.5, 482.5)">
      <use ffdec:characterId="1212" height="525.0" transform="matrix(1.0, 0.0, 0.0, 1.0, -22.5, -482.5)" width="2445.0" xlink:href="#shape8"/>
    </g>
    <g id="shape8" transform="matrix(1.0, 0.0, 0.0, 1.0, 22.5, 482.5)">
      <path d="M2420.0 -120.0 L2000.0 -180.0 1540.0 -240.0 1280.0 -240.0 1060.0 -280.0 800.0 -360.0 560.0 -380.0 240.0 -360.0 -20.0 -360.0" fill="none" stroke="#00ffff" stroke-linecap="round" stroke-linejoin="round" stroke-width="5.0"/>
      <path d="M620.0 -380.0 L920.0 -460.0 1160.0 -480.0" fill="none" stroke="#ff0000" stroke-linecap="round" stroke-linejoin="round" stroke-width="5.0"/>
      <path d="M-20.0 -220.0 L540.0 -200.0 1560.0 -60.0 2080.0 0.0 2420.0 40.0" fill="none" stroke="#666666" stroke-linecap="round" stroke-linejoin="round" stroke-width="5.0"/>
    </g>
  </defs>
</svg>
