<?xml version="1.0" encoding="UTF-8" standalone="no"?>
<svg xmlns:ffdec="https://www.free-decompiler.com/flash" xmlns:xlink="http://www.w3.org/1999/xlink" ffdec:objectType="frame" height="29.55px" width="89.55px" xmlns="http://www.w3.org/2000/svg">
  <g transform="matrix(1.0, 0.0, 0.0, 1.0, 0.0, 0.0)">
    <use ffdec:characterId="263" height="29.55" transform="matrix(1.0, 0.0, 0.0, 1.0, 0.0, 0.0)" width="89.55" xlink:href="#shape0"/>
  </g>
  <defs>
    <g id="shape0" transform="matrix(1.0, 0.0, 0.0, 1.0, 0.0, 0.0)">
      <path d="M79.85 0.2 L80.95 0.3 Q81.4 -0.25 82.45 0.6 L82.85 0.7 Q87.7 1.95 87.7 4.7 L87.55 5.25 Q89.15 7.45 89.15 9.5 89.15 10.05 88.65 10.05 L88.6 10.05 Q88.35 9.9 88.0 8.95 L88.3 11.35 88.35 12.15 88.6 14.8 Q89.55 14.25 89.55 16.25 88.45 22.4 87.55 23.5 L87.05 24.1 86.85 24.25 85.6 25.45 84.7 26.05 84.75 26.3 Q84.75 26.85 83.25 27.9 83.0 28.05 82.7 28.25 80.6 29.55 79.3 29.55 L78.45 28.95 77.95 28.6 78.25 28.35 78.65 28.0 67.7 29.0 64.5 29.0 63.9 28.9 63.55 28.75 59.2 28.3 45.6 28.15 42.6 28.25 35.95 28.25 35.95 28.8 35.55 28.85 33.9 29.0 31.45 29.0 29.65 28.95 29.65 28.85 27.6 28.9 21.1 28.3 19.25 28.4 18.0 28.2 18.0 28.4 Q17.95 28.7 17.45 28.7 L15.95 28.55 16.0 28.75 15.95 29.0 Q15.85 29.2 15.6 29.2 L14.9 29.0 14.55 28.7 14.35 28.4 13.7 28.4 13.6 28.4 12.85 28.9 Q7.1 28.9 3.1 25.0 L1.6 23.4 Q0.0 21.4 0.0 19.8 L0.25 18.4 0.1 17.15 Q0.1 16.45 0.75 16.15 L1.1 16.1 1.55 16.3 1.55 16.2 1.45 12.25 Q1.45 9.8 2.1 7.3 L1.4 7.6 1.35 7.6 1.2 7.6 Q0.2 7.55 0.2 6.6 0.2 4.6 2.35 3.1 L4.0 2.1 4.25 2.0 7.0 1.0 Q9.65 0.2 11.65 0.3 L12.55 0.45 12.75 0.45 12.95 0.35 78.35 0.5 79.85 0.2 M80.25 2.75 L80.15 2.7 80.0 2.6 79.6 2.55 79.5 2.55 78.6 2.25 78.45 2.2 74.3 2.0 35.95 1.9 33.9 1.95 29.65 1.95 29.65 2.0 26.7 2.0 11.35 2.0 Q10.5 1.95 10.25 2.3 L10.25 2.45 9.85 2.4 8.95 2.5 8.55 2.6 8.3 2.7 Q7.2 2.9 6.9 3.4 L6.7 3.5 6.4 3.65 6.1 3.75 6.0 3.85 Q4.5 4.65 4.45 5.6 L4.1 5.85 3.8 6.25 4.05 6.4 Q3.6 6.85 3.6 7.5 L3.6 7.7 3.35 9.0 3.1 10.4 3.05 11.55 3.05 14.15 Q3.05 16.5 3.2 17.65 3.45 19.65 4.0 21.3 L4.3 21.5 6.5 22.5 9.8 23.25 10.05 23.45 10.65 23.55 79.85 23.55 80.95 23.05 83.85 21.35 84.95 19.55 85.45 18.95 86.1 12.7 Q86.1 7.8 83.35 4.6 L82.1 3.5 80.25 2.75 M86.05 21.65 L85.8 20.85 Q85.05 21.15 84.55 22.3 L84.4 22.7 83.4 23.55 Q82.25 24.65 80.95 24.8 L77.55 25.8 76.65 26.1 73.45 26.4 50.45 26.4 50.05 26.25 39.0 26.25 35.95 26.4 35.95 26.45 32.45 26.5 Q30.75 26.65 30.45 27.05 L32.45 27.5 38.7 27.5 39.05 27.3 50.0 27.3 50.3 27.5 73.8 27.5 74.65 27.4 75.95 27.6 Q79.45 27.6 82.65 25.8 84.65 24.65 85.3 23.7 L85.45 23.65 Q86.05 22.3 86.05 21.65 M16.1 25.55 L16.15 25.6 16.25 25.55 16.1 25.55" fill="#30313a" fill-rule="evenodd" stroke="none"/>
      <path d="M88.6 10.05 L88.6 10.35 88.3 11.35 88.0 8.95 Q88.35 9.9 88.6 10.05 M87.05 24.1 Q85.95 26.7 83.25 27.9 84.75 26.85 84.75 26.3 L84.7 26.05 85.6 25.45 86.85 24.25 87.05 24.1 M78.45 28.95 L77.1 29.0 67.7 29.0 78.65 28.0 78.25 28.35 77.95 28.6 78.45 28.95 M64.5 29.0 L33.9 29.0 35.55 28.85 35.95 28.8 35.95 28.25 42.6 28.25 45.6 28.15 59.2 28.3 63.55 28.75 63.9 28.9 64.5 29.0 M31.45 29.0 L15.95 29.0 16.0 28.75 15.95 28.55 17.45 28.7 Q17.95 28.7 18.0 28.4 L18.0 28.2 19.25 28.4 21.1 28.3 27.6 28.9 29.65 28.85 29.65 28.95 31.45 29.0 M14.9 29.0 L11.8 29.0 Q3.4 29.0 1.6 23.4 L3.1 25.0 Q7.1 28.9 12.85 28.9 L13.6 28.4 13.7 28.4 14.35 28.4 14.55 28.7 14.9 29.0 M1.1 16.1 L1.1 9.2 1.2 7.6 1.35 7.6 1.4 7.6 2.1 7.3 Q1.45 9.8 1.45 12.25 L1.55 16.2 1.55 16.3 1.1 16.1 M4.0 2.1 Q6.65 0.0 11.8 0.0 L77.1 0.0 79.85 0.2 78.35 0.5 12.95 0.35 12.75 0.45 12.55 0.45 11.65 0.3 Q9.65 0.2 7.0 1.0 L4.25 2.0 4.0 2.1 M32.6 3.55 L35.95 3.55 35.95 3.6 78.65 3.6 78.75 3.75 Q79.8 3.85 81.3 4.55 L83.0 5.25 Q83.65 5.25 83.45 4.9 83.05 4.05 80.85 3.05 L80.25 2.8 80.25 2.75 82.1 3.5 83.35 4.6 Q86.1 7.8 86.1 12.7 L85.45 18.95 84.95 19.55 83.85 21.35 80.95 23.05 79.85 23.55 10.65 23.55 10.05 23.45 9.8 23.25 6.5 22.5 4.3 21.5 4.0 21.3 Q3.45 19.65 3.2 17.65 3.05 16.5 3.05 14.15 L3.05 11.55 3.1 10.4 3.35 9.0 3.6 7.7 3.65 8.05 3.85 8.25 4.1 8.25 4.65 7.3 5.8 6.5 15.75 4.55 19.3 4.55 19.65 4.45 19.8 3.95 19.55 3.5 24.7 3.5 24.25 3.8 24.2 3.8 24.25 3.85 24.75 4.3 25.1 4.5 29.65 4.5 29.65 4.45 31.05 4.55 Q32.65 4.55 32.65 3.8 L32.6 3.55 M6.4 3.65 L6.0 3.85 6.1 3.75 6.4 3.65 M4.45 6.05 L4.5 5.9 4.5 6.0 4.45 6.05 M86.05 21.65 Q86.05 22.3 85.45 23.65 L85.3 23.7 Q84.65 24.65 82.65 25.8 79.45 27.6 75.95 27.6 L74.65 27.4 73.8 27.5 50.3 27.5 50.0 27.3 39.05 27.3 38.7 27.5 32.45 27.5 30.45 27.05 Q30.75 26.65 32.45 26.5 L35.95 26.45 35.95 26.4 39.0 26.25 50.05 26.25 50.45 26.4 73.45 26.4 76.65 26.1 77.55 25.8 80.95 24.8 Q82.25 24.65 83.4 23.55 L84.4 22.7 84.55 22.3 Q85.05 21.15 85.8 20.85 L86.05 21.65 M16.1 25.55 L16.25 25.55 16.15 25.6 16.1 25.55" fill="#40414d" fill-rule="evenodd" stroke="none"/>
      <path d="M80.25 2.75 L80.25 2.8 80.85 3.05 Q83.05 4.05 83.45 4.9 83.65 5.25 83.0 5.25 L81.3 4.55 Q79.8 3.85 78.75 3.75 L78.65 3.6 35.95 3.6 35.95 3.55 32.6 3.55 Q32.3 2.7 29.65 2.85 L29.65 2.75 27.65 2.75 Q25.6 2.85 24.8 3.5 L24.7 3.5 19.55 3.5 19.0 3.0 13.75 2.75 Q9.2 2.85 8.15 3.8 L6.2 4.4 Q4.7 5.1 4.7 5.75 L4.75 5.9 4.5 6.0 4.5 5.9 4.45 6.05 4.15 6.25 4.05 6.4 3.8 6.25 4.1 5.85 4.45 5.6 Q4.5 4.65 6.0 3.85 L6.4 3.65 6.7 3.5 6.9 3.4 Q7.2 2.9 8.3 2.7 L8.55 2.6 8.95 2.5 9.85 2.4 10.25 2.45 10.25 2.3 Q10.5 1.95 11.35 2.0 L26.7 2.0 29.65 2.0 29.65 1.95 33.9 1.95 35.95 1.9 74.3 2.0 78.45 2.2 78.6 2.25 79.5 2.55 79.6 2.55 80.0 2.6 80.15 2.7 80.25 2.75" fill="#636476" fill-rule="evenodd" stroke="none"/>
      <path d="M4.05 6.4 L4.15 6.25 4.45 6.05 4.5 6.0 4.75 5.9 4.7 5.75 Q4.7 5.1 6.2 4.4 L8.15 3.8 Q9.2 2.85 13.75 2.75 L19.0 3.0 19.55 3.5 19.8 3.95 19.65 4.45 19.3 4.55 15.75 4.55 5.8 6.5 4.65 7.3 4.1 8.25 3.85 8.25 3.65 8.05 3.6 7.7 3.6 7.5 Q3.6 6.85 4.05 6.4 M24.7 3.5 L24.8 3.5 Q25.6 2.85 27.65 2.75 L29.65 2.75 29.65 2.85 Q32.3 2.7 32.6 3.55 L32.65 3.8 Q32.65 4.55 31.05 4.55 L29.65 4.45 29.65 4.5 25.1 4.5 24.75 4.3 24.25 3.85 24.2 3.8 24.25 3.8 24.7 3.5" fill="#9697a7" fill-rule="evenodd" stroke="none"/>
    </g>
  </defs>
</svg>
