<?xml version="1.0" encoding="UTF-8" standalone="no"?>
<svg xmlns:ffdec="https://www.free-decompiler.com/flash" xmlns:xlink="http://www.w3.org/1999/xlink" ffdec:objectType="frame" height="22.85px" width="303.0px" xmlns="http://www.w3.org/2000/svg">
  <g transform="matrix(1.0, 0.0, 0.0, 1.0, 151.5, 10.25)">
    <filter id="filter26">
      <feColorMatrix in="SourceGraphic" result="filterResult0" type="matrix" values="0 0 0 0 0.0,0 0 0 0 0.0,0 0 0 0 0.0,0 0 0 1 0"/>
      <feConvolveMatrix divisor="16.0" in="filterResult0" kernelMatrix="1 1 1 1 1 1 1 1 1 1 1 1 1 1 1 1" order="4 4" result="filterResult1"/>
      <feComposite in="SourceGraphic" in2="filterResult1" operator="over" result="filterResult2"/>
    </filter>
    <use ffdec:characterId="420" filter="url(#filter26)" height="22.85" id="am_HelpText" transform="matrix(1.0, 0.0, 0.0, 1.0, -151.5, -10.25)" width="303.0" xlink:href="#text0"/>
  </g>
  <defs>
    <g id="text0" transform="matrix(1.0, 0.0, 0.0, 1.0, 2.0, 2.0)">
      <g transform="matrix(1.0, 0.0, 0.0, 1.0, -2.0, -2.0)">
        <use fill="#eee2bc" height="22.85" transform="matrix(0.0156, 0.0, 0.0, 0.0156, 0.0, 15.4)" width="303.0" xlink:href="#font_HelveticaRounded_LT_Std_Bd_-0"/>
        <use fill="#eee2bc" height="22.85" transform="matrix(0.0156, 0.0, 0.0, 0.0156, 6.5, 15.4)" width="303.0" xlink:href="#font_HelveticaRounded_LT_Std_Bd_T0"/>
        <use fill="#eee2bc" height="22.85" transform="matrix(0.0156, 0.0, 0.0, 0.0156, 17.2, 15.4)" width="303.0" xlink:href="#font_HelveticaRounded_LT_Std_Bd_h0"/>
        <use fill="#eee2bc" height="22.85" transform="matrix(0.0156, 0.0, 0.0, 0.0156, 27.0, 15.4)" width="303.0" xlink:href="#font_HelveticaRounded_LT_Std_Bd_e0"/>
      </g>
      <g transform="matrix(1.0, 0.0, 0.0, 1.0, -2.0, -2.0)">
        <use fill="#eee2bc" height="22.85" transform="matrix(0.0156, 0.0, 0.0, 0.0156, 41.7, 15.4)" width="303.0" xlink:href="#font_HelveticaRounded_LT_Std_Bd__1"/>
        <use fill="#eee2bc" height="22.85" transform="matrix(0.0156, 0.0, 0.0, 0.0156, 46.75, 15.4)" width="303.0" xlink:href="#font_HelveticaRounded_LT_Std_Bd__2"/>
        <use fill="#eee2bc" height="22.85" transform="matrix(0.0156, 0.0, 0.0, 0.0156, 51.8, 15.4)" width="303.0" xlink:href="#font_HelveticaRounded_LT_Std_Bd__1"/>
      </g>
      <g transform="matrix(1.0, 0.0, 0.0, 1.0, -2.0, -2.0)">
        <use fill="#eee2bc" height="22.85" transform="matrix(0.0156, 0.0, 0.0, 0.0156, 61.75, 15.4)" width="303.0" xlink:href="#font_HelveticaRounded_LT_Std_Bd_o0"/>
        <use fill="#eee2bc" height="22.85" transform="matrix(0.0156, 0.0, 0.0, 0.0156, 71.55, 15.4)" width="303.0" xlink:href="#font_HelveticaRounded_LT_Std_Bd_v0"/>
        <use fill="#eee2bc" height="22.85" transform="matrix(0.0156, 0.0, 0.0, 0.0156, 79.55, 15.4)" width="303.0" xlink:href="#font_HelveticaRounded_LT_Std_Bd_e0"/>
        <use fill="#eee2bc" height="22.85" transform="matrix(0.0156, 0.0, 0.0, 0.0156, 89.35, 15.4)" width="303.0" xlink:href="#font_HelveticaRounded_LT_Std_Bd_r0"/>
      </g>
      <g transform="matrix(1.0, 0.0, 0.0, 1.0, -2.0, -2.0)">
        <use fill="#eee2bc" height="22.85" transform="matrix(0.0156, 0.0, 0.0, 0.0156, 100.75, 15.4)" width="303.0" xlink:href="#font_HelveticaRounded_LT_Std_Bd_t0"/>
        <use fill="#eee2bc" height="22.85" transform="matrix(0.0156, 0.0, 0.0, 0.0156, 106.65, 15.4)" width="303.0" xlink:href="#font_HelveticaRounded_LT_Std_Bd_h0"/>
        <use fill="#eee2bc" height="22.85" transform="matrix(0.0156, 0.0, 0.0, 0.0156, 116.45, 15.4)" width="303.0" xlink:href="#font_HelveticaRounded_LT_Std_Bd_e0"/>
      </g>
      <g transform="matrix(1.0, 0.0, 0.0, 1.0, -2.0, -2.0)">
        <use fill="#eee2bc" height="22.85" transform="matrix(0.0156, 0.0, 0.0, 0.0156, 131.15, 15.4)" width="303.0" xlink:href="#font_HelveticaRounded_LT_Std_Bd_h0"/>
        <use fill="#eee2bc" height="22.85" transform="matrix(0.0156, 0.0, 0.0, 0.0156, 140.95, 15.4)" width="303.0" xlink:href="#font_HelveticaRounded_LT_Std_Bd_e0"/>
        <use fill="#eee2bc" height="22.85" transform="matrix(0.0156, 0.0, 0.0, 0.0156, 150.75, 15.4)" width="303.0" xlink:href="#font_HelveticaRounded_LT_Std_Bd_a0"/>
        <use fill="#eee2bc" height="22.85" transform="matrix(0.0156, 0.0, 0.0, 0.0156, 160.55, 15.4)" width="303.0" xlink:href="#font_HelveticaRounded_LT_Std_Bd_d0"/>
      </g>
      <g transform="matrix(1.0, 0.0, 0.0, 1.0, -2.0, -2.0)">
        <use fill="#eee2bc" height="22.85" transform="matrix(0.0156, 0.0, 0.0, 0.0156, 175.25, 15.4)" width="303.0" xlink:href="#font_HelveticaRounded_LT_Std_Bd_i0"/>
        <use fill="#eee2bc" height="22.85" transform="matrix(0.0156, 0.0, 0.0, 0.0156, 179.7, 15.4)" width="303.0" xlink:href="#font_HelveticaRounded_LT_Std_Bd_s0"/>
      </g>
      <g transform="matrix(1.0, 0.0, 0.0, 1.0, -2.0, -2.0)">
        <use fill="#eee2bc" height="22.85" transform="matrix(0.0156, 0.0, 0.0, 0.0156, 193.2, 15.4)" width="303.0" xlink:href="#font_HelveticaRounded_LT_Std_Bd_a0"/>
      </g>
      <g transform="matrix(1.0, 0.0, 0.0, 1.0, -2.0, -2.0)">
        <use fill="#eee2bc" height="22.85" transform="matrix(0.0156, 0.0, 0.0, 0.0156, 207.9, 15.4)" width="303.0" xlink:href="#font_HelveticaRounded_LT_Std_Bd_q0"/>
        <use fill="#eee2bc" height="22.85" transform="matrix(0.0156, 0.0, 0.0, 0.0156, 217.7, 15.4)" width="303.0" xlink:href="#font_HelveticaRounded_LT_Std_Bd_u0"/>
        <use fill="#eee2bc" height="22.85" transform="matrix(0.0156, 0.0, 0.0, 0.0156, 227.5, 15.4)" width="303.0" xlink:href="#font_HelveticaRounded_LT_Std_Bd_e0"/>
        <use fill="#eee2bc" height="22.85" transform="matrix(0.0156, 0.0, 0.0, 0.0156, 237.3, 15.4)" width="303.0" xlink:href="#font_HelveticaRounded_LT_Std_Bd_s0"/>
        <use fill="#eee2bc" height="22.85" transform="matrix(0.0156, 0.0, 0.0, 0.0156, 245.9, 15.4)" width="303.0" xlink:href="#font_HelveticaRounded_LT_Std_Bd_t0"/>
      </g>
    </g>
    <g id="font_HelveticaRounded_LT_Std_Bd_-0">
      <path d="M124.0 -353.5 L293.0 -353.5 Q328.5 -354.0 351.5 -337.5 375.0 -321.5 376.0 -283.0 375.0 -244.0 351.5 -228.0 328.5 -211.5 293.0 -212.0 L124.0 -212.0 Q88.5 -211.5 65.5 -228.0 42.0 -244.0 41.0 -283.0 42.0 -321.5 65.5 -337.5 88.5 -354.0 124.0 -353.5" fill-rule="evenodd" stroke="none"/>
    </g>
    <g id="font_HelveticaRounded_LT_Std_Bd_T0">
      <path d="M258.0 -70.5 L258.0 -596.0 99.5 -596.0 Q62.5 -596.0 37.5 -614.0 13.0 -632.0 12.5 -667.0 13.0 -701.5 37.5 -719.5 62.5 -737.5 99.5 -737.5 L584.5 -737.5 Q621.5 -737.5 646.5 -719.5 671.0 -701.5 671.5 -667.0 671.0 -632.0 646.5 -614.0 621.5 -596.0 584.5 -596.0 L426.0 -596.0 426.0 -70.5 Q425.5 -32.5 403.0 -9.5 381.0 13.0 342.0 13.5 303.0 13.0 281.0 -9.5 258.5 -32.5 258.0 -70.5" fill-rule="evenodd" stroke="none"/>
    </g>
    <g id="font_HelveticaRounded_LT_Std_Bd_h0">
      <path d="M59.5 -61.5 L59.5 -676.0 Q60.0 -713.0 80.0 -732.0 100.0 -751.0 134.5 -751.0 168.5 -751.0 188.5 -732.0 208.5 -713.0 209.0 -676.0 L209.0 -470.0 211.0 -470.0 Q226.0 -490.0 248.5 -508.0 271.5 -525.5 303.5 -537.0 335.5 -548.5 378.0 -549.0 424.0 -549.5 467.0 -531.5 510.0 -514.0 537.5 -470.5 565.5 -427.5 566.5 -352.5 L566.5 -61.5 Q567.5 -30.5 551.0 -9.0 534.5 12.5 492.0 13.5 449.0 12.5 432.5 -9.0 416.0 -30.5 417.0 -61.5 L417.0 -322.5 Q417.0 -368.5 394.0 -397.0 371.0 -425.5 322.5 -426.0 296.0 -426.0 270.0 -412.0 244.0 -398.5 227.0 -372.0 209.5 -345.5 209.0 -308.0 L209.0 -61.5 Q210.0 -30.5 193.5 -9.0 177.0 12.5 134.5 13.5 91.5 12.5 75.0 -9.0 58.5 -30.5 59.5 -61.5" fill-rule="evenodd" stroke="none"/>
    </g>
    <g id="font_HelveticaRounded_LT_Std_Bd_e0">
      <path d="M186.5 -325.5 L448.5 -325.5 Q441.5 -378.0 407.5 -411.0 373.5 -443.5 322.5 -444.5 266.5 -444.0 232.5 -412.5 198.5 -380.5 186.5 -325.5 M524.5 -239.5 L186.5 -239.5 Q187.0 -179.0 223.0 -141.5 259.0 -104.0 324.5 -103.0 366.0 -103.5 390.5 -114.5 415.0 -125.5 431.0 -140.0 446.5 -154.5 461.0 -165.5 476.0 -176.5 497.5 -177.0 525.0 -176.0 542.0 -158.0 558.5 -140.0 559.0 -118.5 558.5 -84.5 535.0 -60.0 512.0 -35.0 475.5 -18.5 439.5 -2.5 399.5 5.5 359.5 13.5 324.5 13.5 246.5 13.0 191.5 -10.5 136.5 -34.0 102.5 -73.5 68.5 -112.5 52.5 -160.5 37.0 -208.5 37.0 -258.0 37.5 -345.5 71.0 -411.0 104.5 -476.0 167.5 -512.0 230.5 -548.5 319.5 -549.0 406.0 -548.0 466.0 -513.0 526.5 -478.0 558.0 -422.0 589.5 -366.5 590.0 -304.0 590.5 -266.5 576.0 -252.5 561.5 -239.0 524.5 -239.5" fill-rule="evenodd" stroke="none"/>
    </g>
    <g id="font_HelveticaRounded_LT_Std_Bd__1">
      <path d="M94.5 -512.5 L94.5 -679.5 Q95.0 -711.5 113.0 -731.0 131.0 -750.5 162.0 -751.0 193.0 -750.5 211.0 -731.0 229.0 -711.5 229.5 -679.5 L229.5 -512.5 Q229.0 -480.5 211.0 -461.0 193.0 -441.0 162.0 -440.5 131.0 -441.0 113.0 -461.0 95.0 -480.5 94.5 -512.5" fill-rule="evenodd" stroke="none"/>
    </g>
    <g id="font_HelveticaRounded_LT_Std_Bd__2">
      <path d="M78.0 -76.5 Q79.0 -112.0 102.5 -136.0 126.5 -159.5 162.0 -160.5 197.5 -159.5 221.5 -136.0 245.0 -112.0 246.0 -76.5 245.0 -41.0 221.5 -17.0 197.5 6.5 162.0 7.5 126.5 6.5 102.5 -17.0 79.0 -41.0 78.0 -76.5 M243.0 -672.0 L243.0 -553.0 Q243.0 -541.5 241.5 -529.5 240.5 -517.5 239.0 -505.0 L207.0 -265.0 Q204.0 -243.0 193.0 -235.0 182.0 -226.5 162.0 -227.0 142.0 -226.5 131.0 -235.0 120.0 -243.0 117.0 -265.0 L85.0 -505.0 Q83.5 -517.5 82.5 -529.5 81.0 -541.5 81.0 -553.0 L81.0 -672.0 Q81.5 -711.5 102.5 -731.0 123.5 -751.0 162.0 -751.0 200.5 -751.0 221.5 -731.0 242.5 -711.5 243.0 -672.0" fill-rule="evenodd" stroke="none"/>
    </g>
    <g id="font_HelveticaRounded_LT_Std_Bd_o0">
      <path d="M37.0 -268.5 Q37.0 -348.0 68.5 -411.0 100.0 -474.5 161.5 -511.5 223.5 -548.0 313.5 -549.0 403.5 -548.0 465.5 -511.5 527.0 -474.5 558.5 -411.0 590.0 -348.0 590.0 -268.5 590.5 -192.5 563.5 -128.5 536.5 -65.0 476.0 -26.5 415.0 12.5 313.5 13.5 212.0 12.5 151.0 -26.5 90.5 -65.0 63.5 -128.5 36.5 -192.5 37.0 -268.5 M186.5 -268.5 Q186.5 -222.0 199.5 -183.5 213.0 -144.5 241.0 -121.0 269.0 -97.5 313.5 -97.0 358.0 -97.5 386.0 -121.0 414.0 -144.5 427.5 -183.5 440.5 -222.0 440.5 -268.5 440.5 -317.5 427.0 -355.5 413.5 -394.0 385.0 -416.0 357.0 -438.0 313.5 -438.5 270.0 -438.0 242.0 -416.0 213.5 -394.0 200.0 -355.5 186.5 -317.5 186.5 -268.5" fill-rule="evenodd" stroke="none"/>
    </g>
    <g id="font_HelveticaRounded_LT_Std_Bd_v0">
      <path d="M158.0 -40.0 L16.5 -433.0 Q13.5 -443.0 10.5 -453.5 7.5 -464.0 7.5 -471.0 8.5 -511.0 30.5 -530.0 52.0 -549.0 80.0 -549.0 108.0 -548.0 123.5 -536.0 139.5 -524.0 146.0 -509.5 153.0 -495.0 155.0 -486.5 L255.0 -148.5 257.5 -148.5 357.5 -486.5 Q359.5 -495.0 366.5 -509.5 373.0 -524.0 389.0 -536.0 404.5 -548.0 432.5 -549.0 460.5 -549.0 482.0 -530.0 504.0 -511.0 505.0 -471.0 505.0 -464.0 502.0 -453.5 499.0 -443.0 496.0 -433.0 L354.5 -40.0 Q348.0 -20.0 339.5 -8.0 330.5 3.5 311.5 8.5 293.0 13.5 256.0 13.5 219.5 13.5 201.0 8.5 182.0 3.5 173.0 -8.0 164.5 -20.0 158.0 -40.0" fill-rule="evenodd" stroke="none"/>
    </g>
    <g id="font_HelveticaRounded_LT_Std_Bd_r0">
      <path d="M67.5 -61.5 L67.5 -479.5 Q68.0 -513.5 87.0 -531.0 106.0 -549.0 135.0 -549.0 164.0 -549.0 183.0 -531.0 202.0 -513.5 202.5 -479.5 L202.5 -422.0 204.5 -422.0 Q213.0 -454.0 228.5 -482.5 243.5 -511.5 268.0 -530.0 292.5 -548.5 328.5 -549.0 364.5 -548.5 387.0 -528.5 410.0 -508.5 410.5 -476.5 409.5 -435.5 387.5 -418.0 365.5 -401.0 337.0 -401.5 L310.0 -401.5 Q264.5 -403.0 241.0 -365.0 217.0 -327.5 217.0 -235.5 L217.0 -61.5 Q218.0 -30.5 201.5 -9.0 185.0 12.5 142.5 13.5 99.5 12.5 83.0 -9.0 66.5 -30.5 67.5 -61.5" fill-rule="evenodd" stroke="none"/>
    </g>
    <g id="font_HelveticaRounded_LT_Std_Bd_t0">
      <path d="M98.5 -119.5 L98.5 -437.0 73.0 -437.0 Q41.5 -437.0 27.5 -449.5 13.5 -461.5 13.5 -486.5 13.5 -511.0 27.5 -523.0 41.5 -535.5 73.0 -535.5 L98.5 -535.5 98.5 -626.5 Q99.0 -663.5 119.0 -682.5 139.0 -701.0 173.5 -701.5 207.5 -701.0 227.5 -682.5 247.5 -663.5 248.0 -626.5 L248.0 -535.5 293.0 -535.5 Q326.0 -535.5 343.5 -524.5 360.5 -513.0 360.5 -486.5 360.5 -459.5 343.5 -448.0 326.0 -437.0 293.0 -437.0 L248.0 -437.0 248.0 -138.0 Q248.0 -121.0 257.5 -112.0 267.0 -103.0 287.0 -103.0 L308.5 -103.0 Q333.0 -103.0 347.0 -90.0 360.5 -77.0 360.5 -53.0 360.5 -20.5 333.0 -3.5 306.0 13.5 252.0 13.5 171.5 13.5 134.5 -20.0 98.0 -53.5 98.5 -119.5" fill-rule="evenodd" stroke="none"/>
    </g>
    <g id="font_HelveticaRounded_LT_Std_Bd_a0">
      <path d="M406.5 -193.5 L406.5 -252.0 Q393.5 -241.0 374.5 -236.0 356.0 -230.5 342.0 -228.5 L287.5 -220.5 Q240.5 -214.0 216.0 -197.0 191.5 -180.0 191.5 -146.5 192.0 -120.5 213.5 -103.0 235.5 -85.5 274.5 -85.0 315.5 -85.5 345.0 -101.0 374.5 -116.0 390.5 -141.0 406.5 -165.5 406.5 -193.5 M556.0 -395.5 L556.0 -144.5 Q556.5 -113.5 560.0 -96.0 563.5 -78.0 567.5 -66.5 571.0 -55.0 571.5 -44.0 570.5 -18.0 551.0 -2.5 531.5 13.0 504.0 13.5 456.0 12.5 436.5 -13.0 416.5 -38.0 415.5 -73.5 372.0 -26.0 321.0 -6.0 270.0 14.0 211.0 13.5 167.5 13.0 129.5 -5.0 91.0 -23.5 67.0 -58.0 43.0 -92.0 42.0 -139.5 42.5 -200.5 70.5 -236.0 98.5 -271.5 146.0 -288.5 193.0 -305.5 251.0 -311.5 L342.0 -321.5 Q369.5 -323.5 387.5 -334.5 406.0 -345.5 406.5 -377.0 405.5 -409.0 378.0 -424.0 351.0 -438.5 312.5 -438.5 271.5 -438.0 247.0 -425.5 222.5 -413.5 206.5 -397.5 190.5 -381.5 176.0 -369.5 161.0 -357.0 139.5 -356.5 110.5 -357.0 93.5 -373.5 76.0 -390.0 76.0 -414.0 76.0 -444.5 103.5 -475.5 130.5 -506.0 183.5 -527.0 236.5 -548.0 313.5 -549.0 385.5 -549.0 440.0 -533.0 494.5 -517.0 525.0 -483.0 555.5 -449.0 556.0 -395.5" fill-rule="evenodd" stroke="none"/>
    </g>
    <g id="font_HelveticaRounded_LT_Std_Bd_d0">
      <path d="M186.5 -266.0 Q186.5 -221.5 199.5 -185.0 212.5 -148.5 239.0 -126.5 265.5 -104.5 305.5 -103.0 348.5 -103.5 375.0 -126.5 401.5 -149.0 413.5 -186.0 425.5 -223.0 425.0 -266.0 425.5 -305.5 414.5 -344.0 403.5 -382.0 377.0 -407.0 350.5 -432.0 305.5 -432.5 258.0 -431.5 232.0 -405.0 206.0 -378.5 196.0 -340.5 186.0 -302.5 186.5 -266.0 M566.5 -676.0 L566.5 -57.0 Q566.5 -22.5 550.0 -4.5 533.5 13.5 499.0 13.5 466.0 13.5 448.5 -4.5 431.5 -22.5 431.5 -57.0 L431.5 -80.5 429.5 -80.5 Q410.0 -33.0 368.5 -10.0 327.0 13.5 271.5 13.5 208.0 13.5 155.0 -17.5 102.0 -48.0 70.0 -111.5 38.0 -174.5 37.0 -271.5 37.0 -344.5 61.5 -407.0 86.5 -470.0 137.5 -509.0 188.5 -548.0 267.5 -549.0 317.5 -548.5 355.0 -529.0 392.5 -509.5 415.0 -473.5 L417.0 -473.5 417.0 -676.0 Q417.5 -713.0 437.5 -732.0 457.5 -751.0 492.0 -751.0 526.0 -751.0 546.0 -732.0 566.0 -713.0 566.5 -676.0" fill-rule="evenodd" stroke="none"/>
    </g>
    <g id="font_HelveticaRounded_LT_Std_Bd_i0">
      <path d="M64.5 -677.5 Q65.5 -710.5 87.5 -732.0 109.0 -754.0 142.0 -755.0 175.5 -754.0 197.0 -732.0 219.0 -710.5 220.0 -677.5 219.0 -644.0 197.0 -622.5 175.5 -600.5 142.0 -599.5 109.0 -600.5 87.5 -622.5 65.5 -644.0 64.5 -677.5 M67.5 -61.5 L67.5 -474.0 Q66.5 -505.0 83.0 -526.5 99.5 -548.0 142.5 -549.0 185.0 -548.0 201.5 -526.5 218.0 -505.0 217.0 -474.0 L217.0 -61.5 Q218.0 -30.5 201.5 -9.0 185.0 12.5 142.5 13.5 99.5 12.5 83.0 -9.0 66.5 -30.5 67.5 -61.5" fill-rule="evenodd" stroke="none"/>
    </g>
    <g id="font_HelveticaRounded_LT_Std_Bd_s0">
      <path d="M36.0 -382.0 Q36.5 -427.5 56.5 -459.5 76.5 -491.5 109.5 -511.0 142.0 -531.0 181.5 -540.0 221.0 -549.0 260.0 -549.0 318.0 -549.0 370.0 -535.0 421.5 -521.0 454.5 -495.5 487.5 -470.0 488.5 -435.5 488.0 -408.5 471.5 -389.5 455.5 -370.5 426.0 -370.0 404.5 -370.5 390.5 -380.5 376.0 -391.0 362.0 -404.0 348.0 -417.5 327.0 -428.0 306.0 -438.0 271.5 -438.5 232.0 -438.5 209.0 -427.5 186.0 -416.0 185.5 -392.5 186.0 -367.0 208.0 -356.5 230.0 -346.0 265.5 -339.0 L327.5 -324.5 Q371.5 -315.5 413.5 -298.0 456.0 -280.0 484.5 -248.5 513.0 -216.5 514.0 -165.0 513.0 -104.0 479.5 -64.5 445.5 -25.0 393.5 -5.5 341.0 13.5 283.5 13.5 215.5 13.0 159.5 -5.0 103.5 -23.0 70.0 -53.0 37.0 -83.5 36.0 -120.5 36.0 -146.0 50.5 -164.5 65.0 -182.5 96.5 -183.0 120.0 -182.5 136.5 -169.0 153.0 -155.0 169.5 -137.0 186.5 -119.0 211.5 -105.5 237.0 -91.5 277.5 -91.0 318.0 -91.5 341.0 -106.5 364.0 -121.5 364.5 -145.5 364.0 -172.5 341.5 -183.0 319.0 -194.0 278.5 -202.5 L190.5 -224.5 Q146.5 -234.5 112.0 -252.5 77.0 -270.5 57.0 -301.5 36.5 -332.5 36.0 -382.0" fill-rule="evenodd" stroke="none"/>
    </g>
    <g id="font_HelveticaRounded_LT_Std_Bd_q0">
      <path d="M186.5 -269.5 Q186.0 -233.0 196.0 -195.0 206.0 -157.0 232.0 -130.5 258.0 -104.0 305.5 -103.0 350.5 -103.5 377.0 -128.5 403.5 -153.5 414.5 -191.5 425.5 -230.0 425.0 -269.5 425.5 -312.5 413.5 -349.5 401.5 -386.5 375.0 -409.0 348.5 -432.0 305.5 -432.5 265.5 -431.0 239.0 -409.0 212.5 -387.0 199.5 -350.5 186.5 -314.0 186.5 -269.5 M566.5 -478.5 L566.5 137.5 Q566.0 174.0 546.0 193.0 526.0 212.0 492.0 212.0 457.5 212.0 437.5 193.0 417.5 174.0 417.0 137.5 L417.0 -62.0 415.0 -62.0 Q394.0 -26.0 356.5 -6.5 319.0 13.0 267.5 13.5 188.5 12.5 137.5 -26.5 86.5 -65.5 61.5 -128.5 37.0 -191.0 37.0 -264.0 38.0 -361.0 70.0 -424.0 102.0 -487.5 155.0 -518.0 208.0 -549.0 271.5 -549.0 327.0 -549.0 368.5 -525.5 410.0 -502.5 429.5 -455.0 L431.5 -455.0 431.5 -478.5 Q431.5 -513.0 448.5 -531.0 466.0 -549.0 499.0 -549.0 533.5 -549.0 550.0 -531.0 566.5 -513.0 566.5 -478.5" fill-rule="evenodd" stroke="none"/>
    </g>
    <g id="font_HelveticaRounded_LT_Std_Bd_u0">
      <path d="M566.5 -474.0 L566.5 -61.5 Q566.5 -27.0 550.5 -7.0 534.0 13.0 499.0 13.5 464.0 13.0 447.5 -7.0 431.0 -27.0 431.5 -61.5 L431.5 -81.0 429.5 -81.0 Q398.5 -38.5 355.0 -13.0 311.0 12.5 248.0 13.5 202.0 14.0 159.0 -4.0 116.0 -21.5 88.5 -65.0 60.5 -108.0 59.5 -183.0 L59.5 -474.0 Q58.5 -505.0 75.0 -526.5 91.5 -548.0 134.5 -549.0 177.0 -548.0 193.5 -526.5 210.0 -505.0 209.0 -474.0 L209.0 -213.0 Q209.0 -167.0 232.0 -138.5 255.0 -110.0 303.5 -109.5 330.0 -109.5 356.0 -123.5 382.0 -137.0 399.0 -163.5 416.5 -190.0 417.0 -227.5 L417.0 -474.0 Q416.0 -505.0 432.5 -526.5 449.0 -548.0 492.0 -549.0 534.5 -548.0 551.0 -526.5 567.5 -505.0 566.5 -474.0" fill-rule="evenodd" stroke="none"/>
    </g>
  </defs>
</svg>
