<?xml version="1.0" encoding="UTF-8" standalone="no"?>
<svg xmlns:ffdec="https://www.free-decompiler.com/flash" xmlns:xlink="http://www.w3.org/1999/xlink" ffdec:objectType="frame" height="278.75px" width="392.1px" xmlns="http://www.w3.org/2000/svg">
  <g transform="matrix(1.0, 0.0, 0.0, 1.0, 195.85, 253.05)">
    <use ffdec:characterId="2666" height="25.1" transform="matrix(7.0, 0.0, 0.0, 7.0, -111.9, -160.45)" width="16.3" xlink:href="#shape0"/>
    <use ffdec:characterId="2666" height="25.1" transform="matrix(-5.5922, 0.0, 0.0, 5.5923, 93.6098, -128.5649)" width="16.3" xlink:href="#shape0"/>
    <use ffdec:characterId="2668" height="5.5" transform="matrix(7.0, 0.0, 0.0, 7.0, -79.35, -22.75)" width="22.1" xlink:href="#shape1"/>
    <use ffdec:characterId="2669" height="13.9" transform="matrix(7.0, 0.0, 0.0, 7.0, -77.95, -81.2)" width="21.75" xlink:href="#shape2"/>
    <use ffdec:characterId="2670" height="25.25" transform="matrix(7.0, 0.0, 0.0, 7.0, -114.35, -162.55)" width="15.0" xlink:href="#shape3"/>
    <use ffdec:characterId="2670" height="25.25" transform="matrix(-5.5922, 0.0, 0.0, 5.5923, 95.5671, -130.2426)" width="15.0" xlink:href="#shape3"/>
    <use ffdec:characterId="2668" height="5.5" transform="matrix(7.0, 0.0, 0.0, 7.0, -79.35, -22.75)" width="22.1" xlink:href="#shape1"/>
    <use ffdec:characterId="2671" height="5.5" transform="matrix(7.0, 0.0, 0.0, 7.0, -79.35, -22.75)" width="22.1" xlink:href="#shape4"/>
    <use ffdec:characterId="2662" height="17.95" transform="matrix(-7.0, 0.0, 0.0, 7.0, -70.55, -101.6)" width="17.9" xlink:href="#shape5"/>
    <use ffdec:characterId="2662" height="17.95" transform="matrix(-7.0, 0.0, 0.0, 7.0, -70.55, -101.6)" width="17.9" xlink:href="#shape5"/>
    <use ffdec:characterId="2662" height="17.95" transform="matrix(7.0, 0.0, 0.0, 7.0, 70.95, -101.0)" width="17.9" xlink:href="#shape5"/>
    <use ffdec:characterId="2662" height="17.95" transform="matrix(7.0, 0.0, 0.0, 7.0, 70.95, -101.0)" width="17.9" xlink:href="#shape5"/>
  </g>
  <defs>
    <g id="shape0" transform="matrix(1.0, 0.0, 0.0, 1.0, 14.2, 22.65)">
      <path d="M0.35 0.85 Q0.35 0.9 0.35 1.0 0.35 1.25 0.25 1.3 0.15 1.3 -0.1 1.3 L-0.5 1.25 Q-0.7 1.25 -0.85 1.4 -0.95 1.4 -1.05 1.35 -0.95 1.0 -0.8 0.85 -0.65 0.7 -0.45 0.75 L-0.1 0.8 0.3 0.8 0.35 0.85 M-3.25 1.55 Q-3.1 1.5 -2.95 1.6 -2.85 1.7 -2.85 1.95 -2.85 2.15 -3.0 2.2 L-3.3 2.2 Q-3.5 2.2 -3.65 2.15 -3.8 2.05 -3.9 1.95 -3.8 1.8 -3.6 1.65 -3.45 1.55 -3.25 1.55 M-4.9 2.15 Q-5.0 2.2 -5.1 2.2 -5.2 2.2 -5.35 2.1 -5.55 2.0 -5.55 1.85 -5.55 1.7 -5.45 1.6 -5.35 1.55 -5.2 1.6 -5.05 1.65 -4.95 1.75 -4.8 1.85 -4.8 1.95 -4.8 2.05 -4.9 2.15" fill="#98ccc0" fill-opacity="0.7529412" fill-rule="evenodd" stroke="none"/>
      <path d="M-0.3 1.05 Q-0.3 1.15 -0.35 1.25 -0.4 1.35 -0.45 1.35 -0.6 1.35 -0.7 1.2 -0.75 1.1 -0.75 1.0 -0.75 0.9 -0.65 0.8 -0.6 0.8 -0.5 0.8 -0.3 0.8 -0.3 1.05 M-3.4 1.65 Q-3.2 1.65 -3.15 1.95 L-3.2 2.15 -3.25 2.15 Q-3.3 2.2 -3.4 2.2 -3.5 2.2 -3.55 2.05 L-3.55 1.9 Q-3.55 1.8 -3.5 1.75 -3.45 1.65 -3.4 1.65 M-5.5 1.75 Q-5.45 1.75 -5.45 1.7 L-5.4 1.7 Q-5.3 1.7 -5.25 1.75 -5.15 1.75 -5.1 1.8 -5.0 1.9 -5.0 2.05 -5.0 2.2 -5.05 2.3 -5.15 2.4 -5.25 2.4 L-5.35 2.4 -5.45 2.45 -5.65 2.35 -5.65 2.15 Q-5.65 2.0 -5.55 1.9 -5.55 1.85 -5.5 1.85 L-5.5 1.75" fill="#98ccc0" fill-opacity="0.7529412" fill-rule="evenodd" stroke="none"/>
      <path d="M0.4 -16.5 Q0.4 -16.45 0.4 -16.35 0.4 -16.1 0.35 -16.05 0.3 -15.95 0.15 -15.95 L0.05 -16.0 0.0 -16.05 Q-0.05 -16.05 -0.05 -16.15 -0.05 -16.2 0.05 -16.35 0.2 -16.5 0.4 -16.5 M2.0 -5.85 Q2.05 -5.8 2.1 -5.7 2.1 -5.65 2.05 -5.6 1.95 -5.55 1.9 -5.55 L1.8 -5.65 Q1.85 -5.75 1.9 -5.8 1.95 -5.85 2.0 -5.85 M0.3 1.2 Q0.25 1.2 -0.45 1.35 -1.15 1.5 -1.2 1.55 -1.25 1.5 -1.25 1.45 L-1.3 1.25 Q-1.0 1.15 -0.3 1.05 0.55 0.9 0.65 1.05 L0.65 1.1 Q0.65 1.15 0.6 1.15 0.55 1.2 0.3 1.2 M-5.0 -19.25 Q-4.55 -19.15 -4.45 -19.3 L-4.4 -19.4 Q-4.4 -19.5 -4.35 -19.5 -4.4 -19.4 -4.5 -19.2 L-4.6 -19.0 Q-4.6 -18.8 -4.65 -18.75 -4.75 -18.65 -4.85 -18.55 -4.9 -18.6 -4.95 -18.7 L-5.05 -18.85 -5.05 -19.1 -5.0 -19.25 M-9.05 -16.8 Q-8.85 -16.8 -8.65 -16.55 L-8.85 -16.4 Q-9.0 -16.25 -9.1 -16.25 L-9.25 -16.25 -9.3 -16.3 -9.3 -16.4 Q-9.3 -16.45 -9.3 -16.55 -9.3 -16.65 -9.25 -16.75 -9.2 -16.8 -9.05 -16.8 M-9.6 -16.15 Q-9.4 -16.05 -9.2 -16.05 L-9.2 -16.1 Q-9.2 -16.05 -9.2 -15.95 L-9.2 -15.85 -9.3 -15.8 -9.7 -15.75 -9.9 -15.65 -10.15 -15.7 -10.15 -15.95 Q-10.15 -16.15 -10.1 -16.2 -10.05 -16.25 -9.9 -16.2 L-9.6 -16.15 M-7.6 -15.95 Q-7.7 -15.85 -7.85 -15.8 L-7.95 -15.85 Q-7.75 -16.6 -7.65 -16.65 -7.5 -16.7 -7.5 -16.2 -7.5 -16.05 -7.6 -15.95 M-2.05 -20.55 Q-2.0 -20.55 -2.0 -20.45 -2.0 -20.3 -2.05 -20.3 L-2.1 -20.25 -2.05 -20.2 -2.15 -20.2 Q-2.25 -20.2 -2.3 -20.25 L-2.35 -20.3 -2.4 -20.3 -2.4 -20.4 Q-2.4 -20.5 -2.3 -20.55 -2.15 -20.6 -2.05 -20.55 M-2.9 -22.1 Q-3.15 -22.2 -3.2 -22.2 -3.3 -22.2 -3.5 -21.8 L-3.75 -21.3 -3.85 -21.3 Q-3.85 -21.35 -3.85 -21.4 -3.9 -21.45 -3.9 -21.6 -3.9 -21.65 -3.85 -21.7 L-3.8 -21.75 Q-3.65 -21.8 -3.55 -22.05 -3.55 -22.1 -3.5 -22.35 -3.45 -22.5 -3.4 -22.55 -3.15 -22.8 -2.9 -22.5 -2.85 -22.4 -2.75 -22.25 L-2.65 -22.05 Q-2.7 -22.05 -2.9 -22.1 M-0.15 -17.25 Q-0.05 -17.15 -0.05 -16.9 -0.05 -16.65 -0.15 -16.5 -0.2 -16.4 -0.45 -16.4 -0.65 -16.4 -0.75 -16.65 -0.8 -16.8 -0.8 -16.9 -0.8 -17.05 -0.7 -17.15 -0.6 -17.25 -0.4 -17.3 -0.25 -17.3 -0.15 -17.25 M-1.1 -16.6 L-1.1 -16.5 -1.15 -16.5 Q-1.2 -16.5 -1.2 -16.55 -1.2 -16.6 -1.15 -16.6 L-1.1 -16.6 M-10.1 -15.4 L-10.05 -15.45 Q-9.9 -15.4 -9.9 -15.3 -9.9 -15.25 -9.95 -15.2 -10.0 -15.15 -10.05 -15.1 L-10.1 -15.15 Q-10.15 -15.15 -10.15 -15.3 -10.15 -15.4 -10.1 -15.4 M-10.0 -13.95 Q-10.1 -13.7 -10.15 -13.65 -10.2 -13.6 -10.35 -13.5 L-10.45 -13.65 Q-10.5 -13.7 -10.5 -13.75 -10.5 -14.0 -10.35 -14.05 -10.25 -14.1 -10.0 -14.05 L-10.0 -13.95 M-11.4 -13.15 Q-11.4 -13.05 -11.45 -12.95 -11.45 -12.8 -11.45 -12.6 L-11.5 -12.6 -11.75 -12.8 Q-11.9 -12.95 -11.9 -13.15 -11.9 -13.6 -11.4 -13.3 -11.2 -13.2 -10.85 -12.85 L-10.85 -12.8 Q-11.0 -12.85 -11.1 -12.95 -11.15 -13.0 -11.3 -13.2 L-11.35 -13.25 Q-11.4 -13.25 -11.4 -13.15 M-11.35 -11.65 Q-11.4 -11.75 -11.4 -11.8 -11.4 -11.95 -11.35 -12.0 -11.25 -12.1 -11.2 -12.2 -11.15 -12.15 -11.1 -12.1 -11.0 -12.0 -11.0 -11.95 -11.0 -11.85 -11.1 -11.75 -11.15 -11.7 -11.15 -11.6 L-11.15 -11.5 -11.25 -11.5 Q-11.3 -11.55 -11.35 -11.65 M-11.5 -6.9 L-11.45 -6.9 -11.45 -6.7 Q-11.45 -6.6 -11.45 -6.55 L-11.5 -6.5 -11.6 -6.5 Q-11.65 -6.55 -11.75 -6.65 L-11.8 -6.75 Q-11.8 -6.9 -11.75 -6.9 L-11.7 -6.9 -11.7 -6.95 -11.6 -7.0 Q-11.6 -6.95 -11.55 -6.9 L-11.5 -6.9 M-11.45 -5.45 Q-11.45 -5.4 -11.55 -5.4 -11.6 -5.45 -11.6 -5.55 L-11.55 -5.6 Q-11.5 -5.6 -11.4 -5.5 -11.4 -5.45 -11.45 -5.45 M-13.8 -0.3 Q-13.75 -0.3 -13.75 -0.2 L-13.75 -0.05 -13.8 0.0 -14.15 0.0 -14.2 -0.15 Q-14.15 -0.3 -14.0 -0.35 -13.9 -0.35 -13.8 -0.35 L-13.8 -0.3 M-13.15 -1.45 Q-13.15 -1.4 -13.2 -1.35 L-13.25 -1.25 -13.45 -1.2 -13.45 -1.25 Q-13.5 -1.25 -13.5 -1.4 -13.5 -1.45 -13.4 -1.55 -13.3 -1.65 -13.15 -1.55 L-13.15 -1.45 M-1.8 -12.55 Q-1.8 -12.5 -1.9 -12.5 -2.0 -12.5 -2.1 -12.55 L-2.2 -12.7 Q-2.1 -12.9 -1.95 -12.85 -1.85 -12.8 -1.8 -12.6 L-1.8 -12.55 M-4.9 -13.55 Q-4.85 -13.5 -4.85 -13.4 -4.85 -13.3 -4.9 -13.25 L-5.0 -13.25 -5.15 -13.2 -5.3 -13.35 -5.3 -13.4 Q-5.3 -13.55 -5.2 -13.6 -5.15 -13.65 -4.9 -13.6 L-4.9 -13.55 M-2.7 -12.5 Q-2.8 -12.4 -2.85 -12.4 -2.95 -12.4 -3.0 -12.45 -3.05 -12.45 -3.1 -12.5 L-3.1 -12.6 Q-3.05 -12.7 -2.95 -12.9 -2.8 -13.0 -2.6 -12.9 L-2.6 -12.75 Q-2.6 -12.6 -2.7 -12.5 M-9.15 -13.8 L-9.15 -13.75 Q-9.2 -13.7 -9.25 -13.7 L-9.3 -13.65 -9.3 -13.9 -9.25 -13.9 Q-9.15 -13.9 -9.15 -13.85 L-9.15 -13.8 M-7.4 -6.45 L-7.55 -6.45 Q-7.55 -6.5 -7.55 -6.6 -7.55 -6.7 -7.55 -6.75 L-7.45 -6.75 Q-7.35 -6.7 -7.35 -6.6 L-7.4 -6.45 M-4.5 -7.15 L-4.5 -7.0 -4.55 -6.95 Q-4.6 -6.9 -4.7 -6.9 L-4.8 -6.9 -4.8 -6.95 -4.85 -6.95 Q-4.85 -7.0 -4.85 -7.1 L-4.8 -7.25 Q-4.7 -7.35 -4.65 -7.4 L-4.55 -7.25 Q-4.5 -7.2 -4.5 -7.15 M-1.45 2.25 L-1.45 1.95 -1.25 1.95 Q-1.05 1.95 -1.0 2.1 -1.1 2.2 -1.15 2.25 -1.2 2.3 -1.35 2.3 -1.4 2.3 -1.45 2.25 M-2.45 2.3 Q-2.6 2.35 -2.7 2.35 L-3.15 2.25 -3.65 2.2 Q-3.85 2.2 -4.35 2.35 -4.85 2.45 -5.2 2.45 -5.3 2.45 -5.5 2.4 -5.8 2.35 -6.35 2.35 -6.45 2.35 -6.45 2.3 L-6.5 2.25 Q-6.5 1.9 -6.3 1.8 -6.15 1.75 -5.85 1.8 L-5.15 1.95 Q-4.65 2.05 -4.25 2.05 L-2.55 1.95 Q-2.35 1.95 -2.1 2.05 -2.25 2.2 -2.45 2.3" fill="#bdfff0" fill-opacity="0.7529412" fill-rule="evenodd" stroke="none"/>
    </g>
    <g id="shape1" transform="matrix(1.0, 0.0, 0.0, 1.0, 11.35, 4.6)">
      <path d="M10.05 0.25 Q10.05 0.15 10.15 0.05 10.25 -0.1 10.45 -0.2 10.75 0.0 10.75 0.25 L10.75 0.45 10.7 0.6 10.65 0.6 10.45 0.65 Q10.25 0.65 10.1 0.45 L10.05 0.25 M3.0 0.45 L2.6 0.75 Q2.45 0.9 2.3 0.9 1.9 0.9 1.7 0.7 1.6 0.5 1.55 0.5 1.4 0.5 1.0 0.65 L0.4 0.75 -1.5 0.65 Q-2.15 0.5 -2.2 0.25 -1.55 -0.55 -1.25 -1.8 L-1.0 -3.8 -0.95 -4.6 -0.75 -4.6 Q-0.75 -4.2 -0.75 -3.55 L-0.8 -2.45 Q-0.8 -1.4 -0.45 -0.65 0.15 0.35 1.45 0.35 1.6 0.35 1.75 0.05 1.85 -0.25 2.15 -0.25 2.35 -0.25 2.55 0.05 2.85 0.4 3.0 0.45 M-5.85 -0.05 Q-5.55 0.05 -5.5 0.1 L-5.7 0.35 Q-5.85 0.45 -6.0 0.45 -6.25 0.45 -6.3 0.4 L-6.35 0.35 -6.35 -0.15 -5.85 -0.05 M-10.7 -0.35 Q-10.9 -0.25 -11.05 -0.25 -11.35 -0.25 -11.25 -0.3 L-11.3 -0.3 Q-11.35 -0.3 -11.35 -0.5 -11.35 -0.9 -10.95 -0.7 L-10.5 -0.45 -10.7 -0.35 M-2.8 0.45 Q-3.45 0.45 -3.8 0.65 -4.1 0.85 -4.2 0.85 -4.95 0.85 -4.95 0.4 -4.95 -0.15 -4.35 0.0 -4.0 0.1 -3.5 0.4 L-2.75 0.35 -2.25 0.4 -2.8 0.45" fill="#bffff0" fill-opacity="0.7529412" fill-rule="evenodd" stroke="none"/>
    </g>
    <g id="shape2" transform="matrix(1.0, 0.0, 0.0, 1.0, 11.15, 12.95)">
      <path d="M3.75 -1.15 L4.45 -1.1 4.8 -0.65 5.05 -0.2 5.15 -0.35 Q5.25 -0.45 5.4 -0.45 5.9 -0.45 6.1 -0.25 L6.4 0.15 Q6.7 0.4 7.25 0.4 8.0 0.45 8.3 0.6 L8.3 0.65 7.95 0.75 7.5 0.75 7.35 0.6 6.45 0.5 5.6 0.5 4.9 0.55 4.15 0.65 Q4.1 0.65 3.8 0.8 L3.4 0.95 Q1.15 0.95 0.3 0.9 L-2.3 0.7 Q-3.2 0.6 -5.1 0.65 -6.75 0.6 -7.8 0.15 -7.5 -0.2 -6.95 -0.3 L-6.7 -0.3 -6.55 -0.45 Q-6.2 -0.8 -5.95 -0.8 L-5.05 -0.25 -4.5 0.1 -3.8 0.1 Q-2.8 -0.6 -2.1 -3.6 -1.65 -5.55 -1.45 -7.65 -1.45 -7.9 -1.0 -10.15 -0.6 -12.35 -0.55 -12.65 L-0.55 -12.7 -0.5 -12.55 -0.5 -12.95 -0.45 -12.95 Q-0.4 -12.8 -0.4 -12.4 L-0.45 -12.35 Q-0.15 -11.35 -0.2 -9.75 L-0.35 -6.55 Q-0.1 -4.7 0.35 -3.4 1.3 -0.7 2.75 -0.7 3.05 -0.7 3.3 -0.95 3.5 -1.15 3.75 -1.15 M10.1 -0.1 Q10.1 0.1 10.0 0.2 L10.15 0.2 Q10.25 0.1 10.2 0.0 10.15 -0.1 10.1 -0.1 M9.7 0.7 Q9.55 0.7 9.55 0.65 9.5 0.6 9.5 0.45 9.5 0.3 9.65 0.05 9.85 -0.25 10.05 -0.35 10.6 -0.75 10.6 0.2 10.6 0.3 10.4 0.4 L9.7 0.7 M-10.35 -1.35 Q-10.35 -1.2 -10.15 -0.8 -9.95 -0.3 -9.75 -0.25 -10.15 -0.05 -10.35 -0.05 -11.15 -0.05 -11.15 -0.95 -11.15 -1.4 -11.05 -1.5 -10.9 -1.7 -10.25 -1.75 L-10.3 -1.6 -10.35 -1.35" fill="#d9fff6" fill-opacity="0.7529412" fill-rule="evenodd" stroke="none"/>
    </g>
    <g id="shape3" transform="matrix(1.0, 0.0, 0.0, 1.0, 14.55, 22.95)">
      <path d="M0.3 -16.75 L0.4 -16.65 0.45 -16.5 0.4 -16.45 Q0.35 -16.35 0.3 -16.35 0.25 -16.35 0.25 -16.4 0.2 -16.4 0.15 -16.45 L0.15 -16.55 Q0.15 -16.7 0.2 -16.7 L0.3 -16.75 M-3.4 -22.95 Q-3.2 -22.95 -3.1 -22.65 -3.15 -22.6 -3.25 -22.55 L-3.45 -22.45 -3.55 -22.5 Q-3.55 -22.55 -3.55 -22.65 -3.55 -22.75 -3.5 -22.85 -3.45 -22.9 -3.4 -22.95 M-9.05 -17.05 Q-9.0 -17.0 -9.0 -16.9 -9.0 -16.8 -9.0 -16.75 L-9.05 -16.75 -9.15 -16.65 Q-9.3 -16.85 -9.3 -16.9 -9.3 -17.0 -9.25 -17.05 -9.2 -17.1 -9.05 -17.05 M-7.8 -16.8 Q-7.75 -16.75 -7.75 -16.7 L-7.8 -16.55 -7.85 -16.5 -8.0 -16.55 Q-8.0 -16.6 -8.0 -16.7 -8.0 -16.8 -7.95 -16.85 -7.95 -16.9 -7.85 -16.9 L-7.8 -16.8 M-0.4 -17.15 Q-0.45 -17.05 -0.5 -17.05 L-0.75 -17.1 -0.75 -17.25 Q-0.75 -17.35 -0.7 -17.4 -0.65 -17.5 -0.6 -17.5 -0.45 -17.55 -0.3 -17.3 -0.35 -17.2 -0.4 -17.15 M-10.1 -16.35 Q-10.05 -16.3 -10.0 -16.3 L-9.95 -16.2 -10.05 -16.0 -10.1 -16.0 -10.2 -16.05 -10.2 -16.35 -10.1 -16.35 M-11.6 -13.6 L-11.6 -13.5 Q-11.6 -13.45 -11.65 -13.35 -11.75 -13.2 -11.8 -13.15 -11.9 -13.2 -11.95 -13.3 L-11.95 -13.4 Q-11.95 -13.6 -11.95 -13.65 -11.85 -13.75 -11.6 -13.65 L-11.6 -13.6 M-11.75 -6.75 L-11.75 -6.6 -11.95 -6.6 Q-11.95 -6.65 -11.95 -6.75 -11.95 -6.85 -11.9 -6.9 L-11.85 -6.9 Q-11.8 -6.9 -11.75 -6.8 L-11.75 -6.75 M-14.25 -0.35 L-14.25 -0.05 -14.35 0.0 -14.5 0.0 Q-14.55 -0.05 -14.55 -0.15 -14.55 -0.2 -14.45 -0.3 -14.35 -0.35 -14.25 -0.35 M-2.8 -13.25 L-2.8 -13.2 Q-2.75 -13.15 -2.75 -13.05 -2.75 -12.95 -2.75 -12.9 L-2.8 -12.9 -2.85 -12.85 -3.0 -12.85 -3.1 -13.0 Q-3.15 -13.0 -3.15 -13.05 -3.15 -13.2 -3.05 -13.25 L-2.8 -13.25 M-5.2 -13.75 L-5.25 -13.7 Q-5.25 -13.65 -5.3 -13.65 L-5.4 -13.65 -5.4 -13.9 -5.35 -13.9 Q-5.3 -13.9 -5.25 -13.85 L-5.2 -13.75 M-0.45 1.15 L-0.4 1.2 Q-0.5 1.4 -0.7 1.45 L-1.0 1.55 -1.1 1.55 Q-1.15 1.55 -1.15 1.45 -1.15 1.3 -0.95 1.25 L-0.5 1.15 -0.45 1.15 M-4.95 2.25 L-5.05 2.3 -6.3 2.3 Q-6.3 2.25 -6.35 2.25 L-6.4 2.15 Q-6.2 1.95 -5.55 2.05 -5.3 2.05 -5.1 2.1 -4.9 2.15 -4.85 2.2 L-4.95 2.25 M-2.7 2.15 L-2.8 2.2 -3.15 2.2 -3.15 2.0 -2.75 2.0 Q-2.75 2.05 -2.65 2.05 -2.6 2.1 -2.6 2.15 L-2.7 2.15" fill="#bdfff0" fill-opacity="0.7529412" fill-rule="evenodd" stroke="none"/>
    </g>
    <g id="shape4" transform="matrix(1.0, 0.0, 0.0, 1.0, 11.35, 4.6)">
      <path d="M10.05 0.25 Q10.05 0.15 10.15 0.05 10.25 -0.1 10.45 -0.2 10.75 0.0 10.75 0.25 L10.75 0.45 10.7 0.6 10.65 0.6 10.45 0.65 Q10.25 0.65 10.1 0.45 L10.05 0.25 M3.0 0.45 L2.6 0.75 Q2.45 0.9 2.3 0.9 1.9 0.9 1.7 0.7 1.6 0.5 1.55 0.5 1.4 0.5 1.0 0.65 L0.4 0.75 -1.5 0.65 Q-2.15 0.5 -2.2 0.25 -1.55 -0.55 -1.25 -1.8 L-1.0 -3.8 -0.95 -4.6 -0.75 -4.6 Q-0.75 -4.2 -0.75 -3.55 L-0.8 -2.45 Q-0.8 -1.4 -0.45 -0.65 0.15 0.35 1.45 0.35 1.6 0.35 1.75 0.05 1.85 -0.25 2.15 -0.25 2.35 -0.25 2.55 0.05 2.85 0.4 3.0 0.45 M-5.85 -0.05 Q-5.55 0.05 -5.5 0.1 L-5.7 0.35 Q-5.85 0.45 -6.0 0.45 -6.25 0.45 -6.3 0.4 L-6.35 0.35 -6.35 -0.15 -5.85 -0.05 M-10.7 -0.35 Q-10.9 -0.25 -11.05 -0.25 -11.35 -0.25 -11.25 -0.3 L-11.3 -0.3 Q-11.35 -0.3 -11.35 -0.5 -11.35 -0.9 -10.95 -0.7 L-10.5 -0.45 -10.7 -0.35 M-2.8 0.45 Q-3.45 0.45 -3.8 0.65 -4.1 0.85 -4.2 0.85 -4.95 0.85 -4.95 0.4 -4.95 -0.15 -4.35 0.0 -4.0 0.1 -3.5 0.4 L-2.75 0.35 -2.25 0.4 -2.8 0.45" fill="#d9fff6" fill-opacity="0.7529412" fill-rule="evenodd" stroke="none"/>
    </g>
    <g id="shape5" transform="matrix(1.0, 0.0, 0.0, 1.0, 4.85, 16.7)">
      <path d="M10.35 -16.65 Q10.4 -16.65 10.4 -16.5 10.4 -16.4 10.3 -16.3 10.15 -16.15 10.05 -16.15 L9.85 -16.3 Q9.85 -16.35 9.85 -16.4 9.85 -16.55 10.0 -16.65 10.2 -16.75 10.35 -16.7 L10.35 -16.65 M9.05 -16.05 L9.1 -16.0 Q9.0 -15.85 8.9 -15.8 L8.75 -15.9 8.7 -16.0 8.75 -16.1 Q8.75 -16.15 8.9 -16.15 L9.05 -16.05 M7.0 -16.15 Q6.9 -16.0 6.75 -15.85 L6.7 -15.9 6.6 -15.95 6.6 -16.05 Q6.6 -16.15 6.7 -16.25 6.8 -16.3 6.85 -16.3 6.95 -16.2 7.0 -16.15 M7.1 -12.25 L6.85 -12.25 6.8 -12.3 6.8 -12.4 7.0 -12.4 Q7.05 -12.35 7.05 -12.3 L7.1 -12.25 M9.75 -9.45 L9.8 -9.35 Q9.8 -9.3 9.75 -9.2 L9.65 -9.15 9.3 -9.15 9.25 -9.2 Q9.2 -9.25 9.2 -9.35 L9.2 -9.45 9.25 -9.5 9.5 -9.5 9.75 -9.45 M12.3 -9.9 L12.1 -9.8 11.95 -9.85 12.1 -9.9 Q12.25 -10.0 12.35 -10.0 12.35 -9.95 12.3 -9.9 M4.05 -13.65 L4.0 -13.6 Q3.95 -13.55 3.85 -13.55 L3.8 -13.55 3.8 -13.7 Q3.8 -13.85 3.8 -13.8 L4.0 -13.8 4.05 -13.65 M1.1 -12.55 Q1.1 -12.45 1.05 -12.35 0.95 -12.3 0.85 -12.3 0.65 -12.3 0.6 -12.4 0.6 -12.45 0.6 -12.55 0.6 -12.8 0.85 -12.8 1.1 -12.8 1.1 -12.55 M2.0 -11.45 L2.1 -11.45 2.2 -11.25 2.15 -11.2 2.0 -11.2 Q1.95 -11.2 1.95 -11.3 1.95 -11.4 2.0 -11.45 M3.15 -10.9 L3.15 -10.95 Q3.1 -11.0 3.1 -11.05 L3.2 -11.05 Q3.25 -11.05 3.3 -10.95 3.25 -10.9 3.15 -10.9 M0.9 -0.15 L1.0 -0.15 1.15 -0.1 Q1.15 0.05 0.95 0.1 0.9 0.05 0.9 0.0 L0.9 -0.15 M5.65 -0.2 Q5.6 -0.15 5.5 -0.15 5.1 -0.15 5.1 -0.45 5.1 -0.75 5.4 -0.75 5.7 -0.75 5.7 -0.4 5.7 -0.3 5.65 -0.2 M13.05 -7.1 L12.65 -7.1 12.65 -7.15 Q12.6 -7.15 12.6 -7.3 12.6 -7.45 12.8 -7.45 13.0 -7.4 13.05 -7.2 L13.05 -7.1 M10.5 -6.35 L10.6 -6.25 Q10.65 -6.2 10.65 -6.1 10.55 -6.0 10.5 -5.95 L10.35 -6.0 Q10.3 -6.05 10.3 -6.15 10.3 -6.3 10.35 -6.3 L10.5 -6.35 M7.05 -2.15 Q7.15 -2.1 7.2 -2.0 7.15 -1.9 7.1 -1.85 L6.85 -1.85 Q6.85 -1.9 6.85 -2.0 6.85 -2.1 6.9 -2.1 L7.05 -2.15 M10.25 -1.15 Q10.45 -1.05 10.45 -0.8 10.45 -0.65 10.4 -0.6 10.3 -0.45 9.9 -0.45 9.5 -0.45 9.3 -0.55 9.25 -0.6 9.2 -0.7 L9.05 -0.65 8.95 -0.65 Q8.85 -0.65 8.85 -0.7 8.95 -0.8 9.1 -1.2 9.2 -1.6 9.35 -1.65 L9.6 -1.65 9.75 -1.45 Q9.85 -1.3 10.1 -1.3 10.2 -1.2 10.25 -1.15 M12.55 -2.65 L12.55 -2.55 12.5 -2.35 Q12.45 -2.3 12.35 -2.3 12.1 -2.3 12.1 -2.55 12.1 -2.65 12.2 -2.7 12.25 -2.8 12.5 -2.75 12.5 -2.7 12.55 -2.65 M11.35 -0.6 Q11.4 -0.55 11.4 -0.4 11.4 -0.3 11.15 -0.15 10.95 0.0 10.85 0.0 10.6 0.0 10.55 -0.1 10.5 -0.15 10.5 -0.25 10.5 -0.4 10.7 -0.6 10.95 -0.8 11.25 -0.7 L11.35 -0.6 M12.85 0.75 L12.9 0.9 Q12.9 0.95 12.85 1.05 12.75 1.15 12.6 1.25 L12.35 1.25 12.25 1.05 Q12.2 0.95 12.2 0.85 12.2 0.65 12.4 0.7 L12.85 0.75 M-2.2 -12.9 Q-2.2 -13.3 -1.8 -13.05 L-1.55 -12.85 -1.4 -12.75 Q-1.4 -12.6 -1.55 -12.55 L-1.8 -12.5 Q-2.05 -12.5 -2.15 -12.7 -2.2 -12.8 -2.2 -12.9 M-3.7 -9.6 L-3.75 -9.5 Q-3.75 -9.45 -3.9 -9.45 -4.05 -9.45 -4.05 -9.5 L-4.05 -9.55 Q-4.1 -9.6 -4.1 -9.7 -4.1 -9.8 -4.0 -9.85 L-3.9 -9.85 Q-3.7 -9.7 -3.7 -9.6 M-0.9 -12.35 Q-0.85 -12.3 -0.75 -12.2 -0.8 -12.15 -1.0 -12.0 L-1.1 -12.0 -1.1 -12.1 Q-1.1 -12.2 -1.0 -12.25 L-0.9 -12.35 M-1.85 -9.75 L-1.7 -9.75 -1.6 -9.7 -1.65 -9.6 -1.8 -9.6 Q-1.95 -9.65 -1.95 -9.75 L-1.85 -9.75 M-2.65 -5.2 L-2.75 -5.2 Q-2.8 -5.25 -2.8 -5.4 L-2.75 -5.4 Q-2.65 -5.4 -2.6 -5.35 -2.6 -5.25 -2.65 -5.2 M-4.55 -5.3 L-4.55 -5.15 -4.6 -5.1 Q-4.65 -5.05 -4.7 -5.05 -4.8 -5.05 -4.85 -5.1 L-4.85 -5.25 Q-4.85 -5.35 -4.85 -5.4 L-4.7 -5.45 Q-4.6 -5.4 -4.55 -5.3 M-1.75 -1.2 L-1.55 -1.15 Q-1.6 -1.1 -1.7 -1.1 -1.8 -1.1 -1.8 -1.15 L-1.75 -1.2 M-2.4 -1.35 L-2.55 -1.25 Q-2.7 -1.15 -2.8 -1.15 L-2.9 -1.15 Q-2.9 -1.2 -2.9 -1.3 L-2.9 -1.45 Q-2.75 -1.5 -2.4 -1.35" fill="#e5eeff" fill-opacity="0.7529412" fill-rule="evenodd" stroke="none"/>
    </g>
  </defs>
</svg>
