<?xml version="1.0" encoding="UTF-8" standalone="no"?>
<svg xmlns:ffdec="https://www.free-decompiler.com/flash" xmlns:xlink="http://www.w3.org/1999/xlink" ffdec:objectType="frame" height="353.5px" width="1071.7px" xmlns="http://www.w3.org/2000/svg">
  <g transform="matrix(1.0, 0.0, 0.0, 1.0, 523.25, 318.15)">
    <use ffdec:characterId="1414" height="24.45" transform="matrix(7.0, 0.0, 0.0, 7.0, 224.7, -246.75)" width="34.75" xlink:href="#shape0"/>
  </g>
  <defs>
    <g id="shape0" transform="matrix(1.0, 0.0, 0.0, 1.0, -32.1, 35.25)">
      <path d="M33.7 -30.7 L33.75 -30.6 Q33.3 -30.6 33.1 -30.35 33.0 -30.2 32.95 -30.0 32.65 -29.85 32.5 -29.75 32.4 -29.65 32.15 -29.1 L32.1 -29.1 32.1 -29.45 Q32.1 -29.75 32.5 -30.15 32.95 -30.6 33.45 -30.7 L33.7 -30.7 M36.95 -31.15 L36.85 -30.85 36.7 -31.1 Q36.2 -31.6 35.75 -31.3 35.3 -31.0 35.3 -30.65 L35.35 -30.6 35.4 -30.4 35.45 -30.25 35.4 -30.15 35.45 -29.95 Q35.55 -29.55 35.7 -29.25 35.7 -29.2 35.6 -29.15 35.55 -29.3 35.3 -29.65 L35.2 -29.8 35.2 -29.85 Q35.2 -30.15 34.95 -30.35 34.75 -30.5 34.45 -30.55 34.9 -30.65 35.3 -31.0 L36.05 -31.65 36.45 -31.65 Q36.55 -31.5 36.8 -31.35 36.95 -31.25 36.95 -31.15 M35.25 -30.1 L35.3 -30.05 35.3 -30.1 35.25 -30.1 M35.8 -26.6 Q35.85 -26.8 35.85 -26.9 L35.85 -27.05 36.0 -26.8 35.95 -26.6 36.0 -26.6 35.85 -26.45 35.75 -26.15 35.35 -26.05 34.8 -26.1 34.55 -26.25 34.15 -26.25 34.05 -26.1 33.95 -26.1 33.65 -25.8 Q33.6 -25.7 33.6 -25.35 L33.6 -25.25 33.7 -24.75 33.7 -24.65 Q33.4 -25.2 33.4 -25.35 33.4 -25.45 33.45 -25.5 L33.45 -25.55 33.5 -25.6 33.45 -25.65 Q33.45 -25.7 33.45 -25.8 33.45 -26.25 33.8 -26.65 34.2 -27.15 34.5 -26.5 L34.9 -26.4 35.15 -26.3 35.5 -26.45 35.8 -26.55 35.8 -26.6 M35.0 -23.45 Q34.25 -23.65 34.05 -24.05 L33.8 -24.5 Q34.0 -24.25 34.3 -24.2 L34.55 -23.9 Q35.1 -24.15 35.8 -23.85 36.45 -23.6 36.55 -23.25 L36.5 -23.15 35.0 -23.45 M35.65 -20.25 Q35.3 -20.35 35.1 -20.5 34.85 -20.7 34.8 -20.85 34.05 -20.8 33.75 -20.45 33.55 -20.05 33.35 -19.9 L33.25 -19.9 Q33.3 -20.05 33.8 -20.75 34.35 -21.45 34.45 -21.45 34.55 -21.45 34.9 -21.0 35.35 -20.55 36.0 -20.5 L35.65 -20.25 M35.85 -17.25 Q35.7 -17.4 35.4 -17.5 L35.55 -17.65 36.05 -17.7 Q36.3 -17.55 36.3 -17.45 36.3 -17.25 36.1 -17.0 L35.85 -17.25 M35.85 -17.55 L35.85 -17.55 M33.0 -19.0 L33.1 -18.95 33.15 -18.95 Q33.2 -19.05 33.2 -18.9 33.2 -18.8 33.1 -18.8 L33.1 -18.5 Q33.15 -18.4 33.35 -18.25 L33.95 -17.85 33.95 -17.75 33.05 -18.05 32.95 -18.1 Q32.85 -18.2 32.85 -18.3 L32.9 -18.6 32.9 -18.65 32.95 -19.0 33.0 -19.0 M32.95 -18.55 L32.95 -18.55 M50.5 -32.05 L50.3 -32.0 50.65 -32.0 50.5 -32.05 M50.3 -32.25 L50.75 -32.2 Q50.9 -32.1 50.9 -31.8 L50.1 -31.85 49.7 -31.6 Q49.3 -31.4 49.2 -31.4 L48.7 -31.4 48.5 -31.6 48.65 -31.75 48.7 -32.0 48.7 -32.15 48.65 -32.25 48.1 -32.3 47.7 -32.3 47.65 -32.35 47.65 -32.5 47.5 -32.3 47.45 -32.3 47.45 -32.55 Q47.6 -32.65 47.55 -32.8 47.65 -32.9 48.6 -32.95 L48.8 -32.75 Q48.95 -32.65 49.1 -32.6 L49.15 -32.5 49.15 -32.3 49.05 -32.2 48.95 -32.05 Q48.95 -31.95 49.0 -31.95 L49.0 -31.9 Q49.55 -31.75 49.85 -32.0 50.2 -32.25 50.3 -32.25 M56.05 -33.7 L56.4 -33.35 55.65 -33.3 55.25 -33.3 55.0 -33.6 54.85 -33.85 Q54.85 -33.95 54.9 -33.95 L55.0 -33.95 Q54.75 -34.3 54.7 -34.45 L53.75 -34.55 Q53.65 -34.45 53.65 -34.3 53.65 -34.2 53.4 -34.2 53.25 -34.2 53.05 -34.45 52.9 -34.65 52.9 -34.7 52.9 -34.9 53.05 -35.1 L53.4 -35.15 53.55 -35.15 53.8 -35.2 54.0 -35.2 Q54.15 -35.15 54.25 -34.9 54.4 -34.65 54.7 -34.65 L55.1 -34.7 Q55.2 -34.8 55.6 -34.85 L56.1 -34.35 Q56.1 -34.25 56.0 -34.1 L55.9 -33.95 Q55.9 -33.85 56.05 -33.7 M61.05 -33.3 L61.1 -33.1 Q61.1 -33.0 61.0 -32.85 60.95 -32.65 60.95 -32.55 60.9 -32.5 60.95 -32.35 L61.0 -32.1 61.0 -31.75 Q60.85 -31.6 60.35 -31.5 L60.35 -31.25 60.6 -31.0 60.6 -30.95 60.55 -30.95 60.7 -30.9 60.8 -30.8 Q60.9 -30.75 60.95 -30.7 L61.0 -30.5 Q61.0 -30.3 60.85 -30.1 60.85 -30.15 60.85 -30.25 L60.85 -30.2 60.65 -30.2 Q60.65 -30.25 60.6 -30.45 60.55 -30.7 60.35 -30.75 L60.4 -30.85 60.35 -30.85 60.25 -30.95 59.95 -31.2 59.65 -31.35 59.35 -31.45 Q59.2 -31.45 58.95 -31.2 L58.7 -31.0 Q58.65 -31.0 58.35 -31.25 L58.15 -31.35 Q58.05 -31.35 58.05 -31.5 58.05 -31.65 58.45 -31.95 L58.95 -32.35 Q59.0 -32.45 58.9 -32.75 58.9 -33.05 59.35 -33.1 59.5 -33.1 59.6 -33.0 L59.7 -32.95 Q59.95 -33.0 60.0 -33.25 60.05 -33.45 59.9 -33.6 L60.3 -33.55 60.95 -33.45 61.05 -33.3 M62.05 -28.8 Q62.1 -28.9 62.1 -29.0 62.1 -29.15 61.95 -29.25 61.6 -29.4 61.25 -29.55 62.1 -29.7 62.35 -29.5 62.45 -29.35 62.5 -28.95 62.95 -28.9 63.0 -28.55 63.0 -28.15 63.05 -28.0 L62.95 -27.85 62.7 -27.8 62.55 -27.8 62.45 -28.05 Q62.35 -28.2 62.05 -28.25 L62.0 -28.4 Q61.95 -28.5 61.95 -28.6 61.95 -28.7 62.05 -28.8 M63.45 -29.85 Q63.4 -30.05 63.3 -30.1 64.05 -30.6 64.55 -29.85 64.75 -29.6 65.05 -28.7 65.0 -28.65 64.75 -28.65 64.6 -28.6 64.6 -28.5 64.6 -28.35 64.7 -28.15 64.8 -27.95 64.8 -27.75 64.8 -27.45 64.65 -27.15 64.4 -26.75 63.85 -26.75 L63.65 -26.45 63.45 -26.25 63.25 -26.3 Q63.1 -26.4 63.0 -26.4 L62.95 -26.35 Q62.85 -26.35 62.75 -26.45 L62.65 -26.7 Q62.35 -27.0 61.4 -27.0 61.2 -27.05 61.05 -27.25 60.9 -27.45 60.9 -27.55 60.9 -27.7 61.0 -27.85 L61.2 -28.05 61.25 -27.95 61.35 -27.85 61.45 -27.95 Q61.45 -28.0 61.6 -28.0 L61.85 -27.75 Q62.1 -27.45 62.35 -27.3 63.25 -27.45 63.35 -27.6 63.4 -27.65 63.3 -27.85 63.3 -28.05 63.45 -28.15 63.55 -28.15 63.6 -28.1 L63.65 -28.0 Q63.85 -28.1 64.0 -28.3 64.15 -28.55 64.15 -28.7 L64.1 -29.1 64.0 -29.55 63.55 -29.55 Q63.5 -29.6 63.45 -29.85 M66.0 -24.1 L66.0 -23.95 Q66.0 -23.85 65.95 -23.75 L65.85 -23.6 65.95 -23.55 Q66.1 -23.35 66.1 -23.15 L66.05 -22.6 Q65.95 -22.1 65.85 -22.0 65.3 -22.0 65.2 -22.1 L65.0 -21.9 64.9 -21.75 Q64.9 -21.65 65.0 -21.65 65.1 -21.6 65.1 -21.5 65.1 -21.45 64.9 -21.25 64.65 -20.95 64.6 -20.8 64.45 -20.95 64.5 -21.4 64.55 -21.9 64.3 -22.15 L64.1 -22.15 63.95 -21.95 63.75 -21.95 63.4 -22.25 Q63.3 -22.3 63.05 -22.3 63.0 -22.3 62.95 -22.45 L62.75 -22.45 62.55 -22.5 62.4 -22.65 Q62.35 -22.75 62.35 -22.85 62.35 -22.9 62.5 -23.1 62.7 -23.25 62.7 -23.3 L62.45 -23.55 62.45 -23.7 62.85 -23.7 62.95 -23.65 Q63.0 -23.6 63.0 -23.5 L63.0 -23.4 63.25 -23.4 63.7 -22.85 Q64.2 -22.9 64.5 -23.0 64.7 -23.05 64.85 -23.2 L65.2 -23.2 Q65.3 -23.1 65.3 -22.95 L65.5 -22.95 65.6 -23.05 65.6 -23.25 Q65.6 -23.3 65.55 -23.45 L65.5 -23.5 65.35 -23.5 65.15 -23.45 Q65.0 -23.6 65.0 -23.7 65.0 -24.0 65.2 -24.15 65.45 -24.4 65.95 -24.1 L66.0 -24.1 M65.75 -23.55 L65.75 -23.55 M63.0 -17.25 L62.95 -17.6 Q62.95 -17.8 63.5 -18.1 L63.75 -18.05 Q63.85 -17.95 63.85 -17.85 63.85 -17.75 63.8 -17.75 L63.7 -17.7 63.8 -17.65 64.45 -17.6 64.85 -17.65 65.45 -17.75 66.1 -18.4 Q66.3 -18.6 66.3 -18.95 66.3 -19.1 65.95 -19.5 L65.75 -19.8 65.75 -19.85 65.7 -19.85 Q65.65 -19.9 65.65 -20.05 L65.9 -20.05 66.05 -19.95 Q66.3 -19.85 66.45 -19.8 66.85 -19.15 66.85 -18.95 L66.65 -18.45 66.6 -18.15 66.5 -17.9 Q66.4 -17.7 66.05 -17.35 65.95 -17.2 65.85 -17.2 65.75 -17.2 65.6 -17.1 L65.25 -17.1 65.0 -17.35 Q64.15 -17.4 63.9 -17.1 63.8 -16.95 63.8 -16.6 L63.7 -16.1 63.65 -15.7 Q63.65 -15.55 63.7 -15.4 L63.75 -15.25 63.85 -15.25 63.85 -15.2 63.9 -15.1 63.85 -15.15 63.8 -15.15 63.8 -15.1 Q64.3 -15.05 64.85 -15.2 64.85 -15.1 65.05 -14.7 65.2 -14.35 65.2 -14.3 L65.2 -13.95 64.95 -13.55 Q64.8 -13.65 64.75 -13.95 L64.65 -14.45 Q64.55 -15.05 63.75 -14.95 L63.6 -15.1 63.6 -15.05 Q63.45 -14.95 63.4 -14.95 63.15 -14.95 62.9 -15.4 62.7 -15.7 62.7 -15.8 62.7 -15.95 62.75 -16.0 62.8 -16.05 62.95 -15.95 L63.15 -15.95 Q63.2 -16.0 63.2 -16.1 L63.15 -16.45 Q63.05 -16.7 63.05 -16.85 L63.0 -17.25 M64.0 -12.95 Q64.05 -13.15 64.35 -13.15 64.45 -13.15 64.6 -13.25 L64.75 -13.3 64.8 -13.25 Q64.9 -13.2 64.9 -13.1 64.9 -13.0 64.8 -12.95 64.7 -12.9 64.7 -12.8 64.7 -12.7 64.8 -12.75 64.85 -12.75 64.85 -12.7 L64.8 -12.4 Q64.7 -12.2 64.7 -12.1 64.7 -11.85 64.85 -11.5 L65.15 -10.85 65.15 -10.8 65.0 -10.8 Q64.7 -10.95 64.65 -11.25 64.55 -11.65 64.5 -11.75 64.4 -11.9 64.3 -11.9 64.15 -11.95 64.0 -12.05 L64.0 -12.95" fill="#666666" fill-rule="evenodd" stroke="none"/>
    </g>
  </defs>
</svg>
