<?xml version="1.0" encoding="UTF-8" standalone="no"?>
<svg xmlns:ffdec="https://www.free-decompiler.com/flash" xmlns:xlink="http://www.w3.org/1999/xlink" ffdec:objectType="frame" height="353.5px" width="1071.7px" xmlns="http://www.w3.org/2000/svg">
  <g transform="matrix(1.0, 0.0, 0.0, 1.0, 523.25, 318.15)">
    <use ffdec:characterId="1399" height="42.05" transform="matrix(7.0, 0.0, 0.0, 7.0, -299.95, -259.0)" width="100.35" xlink:href="#shape0"/>
  </g>
  <defs>
    <g id="shape0" transform="matrix(1.0, 0.0, 0.0, 1.0, 42.85, 37.0)">
      <path d="M29.7 -36.7 L29.75 -36.7 Q29.9 -36.95 30.05 -37.0 29.9 -36.2 29.55 -36.0 L29.45 -35.85 28.75 -34.5 Q28.1 -33.15 28.1 -32.55 28.1 -31.95 28.3 -31.8 28.7 -31.45 29.05 -30.65 29.45 -29.9 29.35 -29.5 29.2 -29.05 29.2 -28.55 29.2 -28.15 29.45 -27.9 L30.35 -27.0 Q30.5 -26.9 30.65 -26.35 L30.8 -25.5 Q31.05 -24.8 31.2 -24.0 31.4 -23.1 31.4 -22.5 31.4 -22.15 31.2 -21.9 L30.75 -21.55 Q30.1 -21.1 30.0 -20.25 29.95 -19.65 29.1 -19.15 28.3 -18.7 28.3 -18.15 L29.1 -16.75 Q29.85 -15.25 29.85 -14.75 L29.85 -14.3 Q29.85 -14.1 29.75 -13.95 29.5 -13.65 28.15 -13.3 L27.8 -13.75 Q27.6 -13.95 27.2 -13.95 25.95 -13.95 25.15 -12.55 24.55 -11.55 24.55 -10.9 24.55 -10.6 24.95 -10.15 25.3 -9.7 25.7 -9.45 26.35 -9.35 26.45 -9.3 L26.85 -9.35 27.4 -9.85 28.0 -10.35 Q28.45 -10.3 28.75 -10.2 L29.15 -10.1 29.65 -10.1 29.85 -10.55 Q30.0 -10.85 30.2 -10.85 30.9 -10.85 31.55 -10.3 31.85 -10.05 32.0 -9.75 L32.5 -9.1 33.05 -8.35 33.05 -7.75 34.9 -6.7 Q35.4 -7.05 35.7 -7.1 35.65 -7.25 35.75 -7.6 L35.8 -7.65 35.9 -7.9 Q35.95 -8.1 36.05 -8.15 L36.15 -8.15 37.15 -8.75 37.2 -8.7 Q38.05 -9.3 39.35 -10.35 41.4 -12.05 41.4 -12.5 L41.4 -12.6 41.25 -13.25 41.1 -13.55 Q41.0 -13.7 41.0 -13.9 41.0 -14.7 41.35 -15.3 41.65 -15.85 42.3 -16.1 L42.6 -16.1 Q43.2 -16.45 43.55 -16.95 43.85 -17.3 44.25 -18.05 44.35 -18.2 44.4 -18.35 44.2 -18.65 44.2 -19.05 44.2 -19.5 44.65 -20.25 45.25 -21.15 45.95 -21.35 46.5 -21.45 46.95 -22.15 L46.95 -23.1 Q46.9 -23.35 47.0 -23.5 46.9 -23.65 46.9 -23.7 46.9 -24.05 47.5 -24.6 47.6 -25.45 48.6 -26.55 49.4 -27.4 50.2 -27.8 L50.25 -27.9 Q50.85 -28.6 51.45 -29.0 L51.5 -28.85 50.8 -27.85 Q50.65 -27.2 50.35 -26.1 L50.2 -25.55 50.25 -25.45 Q50.35 -25.3 50.35 -25.0 L50.3 -24.4 Q50.2 -23.85 50.2 -23.5 50.2 -23.35 50.0 -23.0 49.8 -22.65 49.8 -22.55 49.8 -22.5 50.0 -22.15 50.2 -21.85 50.2 -21.75 L50.2 -21.1 Q50.2 -20.3 49.95 -20.05 L49.45 -19.5 Q49.25 -19.3 49.0 -19.55 L48.45 -19.15 Q48.15 -18.9 47.95 -18.6 L47.9 -18.2 Q47.85 -17.9 47.8 -17.75 47.65 -17.45 47.5 -16.9 L47.45 -16.75 47.55 -16.1 47.65 -15.65 47.9 -15.25 Q48.5 -14.4 48.6 -14.1 L49.0 -13.05 49.0 -13.0 49.45 -12.95 Q49.9 -12.95 50.05 -13.2 L50.3 -13.7 Q50.75 -14.3 53.2 -13.8 L53.35 -13.65 53.85 -13.65 54.35 -13.6 Q56.05 -13.9 57.5 -13.8 L57.45 -13.7 57.4 -13.7 Q57.35 -13.7 57.35 -13.75 L54.9 -13.4 54.85 -13.4 54.8 -13.3 54.75 -13.25 54.6 -12.95 Q54.35 -12.35 53.6 -12.2 53.55 -11.7 53.25 -11.45 52.85 -11.15 51.45 -10.55 L51.05 -10.55 50.9 -10.8 50.7 -11.05 Q49.85 -10.9 49.4 -10.7 L49.05 -10.5 49.1 -10.35 Q49.35 -9.7 49.35 -9.35 49.35 -8.85 49.2 -8.4 48.95 -7.5 48.3 -7.5 48.05 -7.5 47.8 -7.6 L47.35 -7.75 27.0 -0.8 -10.15 2.4 -28.1 -3.2 Q-28.3 -3.75 -28.6 -3.95 -28.8 -4.1 -29.2 -4.15 -29.55 -4.25 -29.75 -4.45 L-30.35 -5.2 Q-30.6 -5.55 -31.05 -6.65 -31.6 -7.9 -31.6 -8.35 -31.6 -8.65 -31.2 -9.15 -30.75 -9.8 -30.25 -9.95 L-30.2 -10.1 Q-30.15 -10.2 -30.15 -10.45 -30.15 -10.7 -30.25 -10.85 L-30.75 -11.35 Q-31.8 -11.2 -32.1 -11.45 -32.25 -11.6 -32.3 -11.95 L-32.3 -12.0 Q-32.5 -12.35 -32.5 -12.45 L-32.6 -12.5 -33.0 -12.6 Q-33.15 -12.6 -33.15 -12.4 -33.2 -12.25 -33.35 -12.25 L-34.1 -12.4 -34.8 -12.55 Q-35.4 -12.9 -35.45 -13.4 -35.5 -14.1 -35.75 -14.5 -36.05 -15.0 -36.0 -15.5 L-35.85 -16.4 Q-35.85 -16.6 -36.0 -16.7 L-36.15 -16.95 -36.1 -17.05 Q-36.0 -17.15 -36.0 -17.35 -36.0 -17.55 -36.35 -17.85 -36.5 -18.0 -36.75 -18.15 L-37.4 -18.15 -38.25 -18.05 -38.65 -18.1 -39.25 -19.2 Q-39.65 -19.95 -40.0 -20.4 -40.65 -21.4 -41.7 -22.1 -42.1 -22.7 -42.35 -22.85 L-42.75 -23.1 -42.85 -23.25 -42.5 -23.25 Q-41.1 -22.4 -39.85 -22.0 -38.15 -21.45 -36.25 -21.45 -35.95 -21.45 -35.4 -21.0 L-34.85 -20.55 Q-34.7 -20.35 -34.2 -20.05 -33.8 -19.8 -33.4 -19.65 L-33.25 -18.85 Q-33.15 -18.25 -32.55 -17.85 -32.45 -17.75 -31.7 -16.85 -31.15 -16.2 -30.35 -15.95 -29.4 -15.75 -29.1 -15.6 -28.6 -15.4 -28.35 -14.65 L-28.05 -14.75 -27.55 -14.85 Q-27.2 -14.85 -26.25 -14.05 -25.35 -13.3 -25.35 -13.15 -25.35 -12.95 -25.6 -12.4 -25.85 -11.85 -25.85 -11.75 -25.85 -11.65 -25.4 -11.15 -24.9 -10.65 -24.85 -10.45 -23.65 -10.45 -23.4 -10.8 L-23.2 -11.0 Q-23.0 -11.1 -22.6 -11.1 -22.1 -11.1 -21.45 -10.45 -21.15 -10.05 -21.0 -9.8 L-20.5 -10.5 Q-19.8 -10.45 -19.45 -10.75 -19.15 -11.0 -19.15 -11.25 -19.15 -11.45 -19.4 -11.75 L-19.75 -12.25 -20.5 -11.85 -20.85 -11.8 Q-21.45 -12.05 -21.6 -12.7 -21.7 -13.0 -21.7 -13.85 -21.7 -14.35 -22.1 -15.0 -22.55 -15.6 -22.55 -15.9 -22.55 -16.6 -21.8 -17.5 -20.95 -18.5 -20.2 -18.15 -20.1 -18.2 -20.0 -18.25 -19.85 -18.35 -19.85 -18.55 -19.85 -18.7 -20.1 -18.85 L-20.15 -18.9 Q-20.3 -18.8 -20.6 -18.8 L-20.65 -18.9 -20.65 -19.5 -20.6 -19.6 -20.35 -19.6 -20.1 -19.5 Q-19.65 -19.5 -19.45 -19.7 -18.9 -20.05 -18.7 -20.1 -18.5 -20.2 -17.9 -19.95 -17.4 -19.75 -17.25 -19.6 -16.0 -18.65 -15.7 -18.4 -15.25 -18.0 -15.25 -17.35 L-15.3 -16.7 -15.35 -16.0 -15.4 -15.95 -15.45 -16.4 -15.85 -15.7 Q-16.25 -14.95 -16.25 -14.7 -16.25 -14.6 -15.9 -14.3 L-15.35 -13.8 -15.2 -13.5 -15.05 -13.15 Q-14.9 -13.15 -14.85 -13.2 L-14.75 -13.35 -14.2 -13.5 Q-13.6 -13.15 -12.7 -12.25 -11.6 -11.25 -11.6 -10.75 -11.6 -10.7 -11.9 -10.4 L-12.15 -10.0 Q-12.15 -9.75 -11.75 -9.15 -11.35 -8.45 -11.0 -8.35 -9.45 -7.9 -9.3 -7.6 -9.25 -7.5 -9.35 -7.25 -9.45 -6.95 -9.45 -6.75 -9.45 -5.15 -7.5 -3.95 L-6.4 -3.25 Q-5.8 -2.9 -5.15 -2.7 -3.45 -2.15 -0.05 -2.15 L0.05 -2.15 Q0.6 -2.15 0.65 -2.1 L0.25 -1.9 Q1.5 -2.05 1.5 -2.4 1.55 -2.5 1.4 -2.75 1.25 -3.0 1.25 -3.1 1.25 -3.3 1.75 -3.95 2.35 -4.6 3.1 -5.3 5.15 -7.15 6.55 -7.15 8.2 -7.15 8.85 -6.65 9.2 -6.35 9.2 -6.05 9.45 -6.1 9.65 -6.3 9.85 -6.55 10.0 -6.6 L10.35 -6.55 10.45 -6.35 Q10.5 -6.2 10.55 -6.2 12.5 -7.35 14.45 -9.15 16.8 -11.3 16.8 -12.45 16.8 -12.6 16.7 -12.55 16.55 -12.55 16.55 -12.7 L17.6 -14.9 Q18.7 -17.15 18.7 -17.75 18.7 -19.1 19.25 -19.85 19.65 -20.4 20.55 -20.85 21.65 -21.35 21.85 -21.5 22.45 -22.0 22.45 -22.8 22.45 -23.3 22.15 -23.9 21.85 -24.4 21.5 -24.6 L21.35 -25.05 Q21.3 -25.3 21.3 -25.5 21.3 -26.55 23.0 -28.0 L24.45 -29.15 Q25.3 -29.85 25.65 -30.25 L26.05 -30.25 Q26.3 -30.45 26.65 -31.3 26.95 -32.15 26.95 -32.5 26.95 -32.7 26.8 -33.2 26.7 -33.75 26.7 -33.95 26.7 -34.15 27.55 -34.7 L28.55 -35.35 29.0 -36.0 29.2 -36.25 Q29.2 -36.4 29.2 -36.45 29.3 -36.55 29.65 -36.75 L29.7 -36.7" fill="#666666" fill-rule="evenodd" stroke="none"/>
      <path d="M22.4 -26.75 Q23.15 -27.6 23.5 -27.7 L22.65 -26.75 23.3 -25.5 Q23.75 -24.55 24.35 -24.35 L23.75 -23.4 23.7 -23.3 23.9 -22.95 24.05 -22.6 Q24.05 -22.45 23.35 -21.85 L22.85 -21.45 22.85 -21.4 Q22.85 -21.1 22.3 -20.6 L22.1 -20.4 22.2 -20.4 Q22.15 -20.15 21.85 -20.0 21.55 -19.9 21.55 -19.45 21.45 -18.4 21.05 -18.4 L20.8 -18.45 Q20.7 -18.45 20.7 -18.35 20.7 -18.0 20.8 -17.5 20.95 -17.05 21.1 -16.7 L21.9 -16.6 22.25 -16.1 Q22.4 -15.8 22.4 -15.6 22.4 -15.5 22.3 -15.35 L21.9 -14.85 20.5 -14.75 19.65 -13.3 Q18.85 -12.1 18.85 -11.6 18.85 -11.1 19.25 -10.95 19.6 -10.8 19.6 -10.45 19.6 -10.25 19.15 -9.55 18.6 -8.8 17.9 -8.1 16.1 -6.15 14.9 -6.15 14.8 -6.15 14.35 -6.3 L13.45 -6.65 12.85 -6.4 Q12.45 -6.2 12.35 -6.1 L12.1 -6.1 Q11.8 -6.15 11.7 -6.2 12.85 -6.9 15.15 -9.1 17.8 -11.65 17.8 -12.65 17.8 -12.85 17.55 -12.9 17.35 -12.9 17.35 -13.15 17.35 -13.4 18.05 -14.8 18.9 -16.65 19.2 -17.35 L19.25 -17.5 Q19.15 -17.6 19.15 -17.75 19.1 -17.95 19.15 -18.15 19.15 -18.9 19.45 -19.45 19.45 -19.65 19.7 -19.85 20.4 -20.65 22.05 -20.95 22.2 -21.0 22.4 -21.25 L22.5 -21.35 22.75 -22.3 Q22.9 -22.75 22.9 -23.1 L22.25 -24.2 Q21.65 -25.25 21.65 -25.7 21.65 -25.9 22.4 -26.75 M23.1 -22.6 L23.1 -22.55 23.15 -22.55 23.1 -22.6 M2.95 -4.15 Q2.8 -3.8 2.8 -3.55 3.35 -3.05 3.35 -2.85 3.35 -2.65 2.9 -2.25 2.4 -1.85 1.75 -1.5 L1.2 -1.5 1.15 -1.55 0.6 -1.45 0.25 -1.4 -0.2 -1.25 -0.5 -1.3 -0.55 -1.25 -0.55 -1.3 -1.15 -1.3 -0.9 -1.25 Q-0.5 -1.15 -0.45 -1.05 L-1.25 -0.85 -2.1 -0.75 Q-2.65 -0.75 -4.75 -1.45 L-7.65 -2.35 -7.9 -2.65 Q-7.85 -2.75 -7.65 -2.8 L-8.5 -2.95 -8.75 -3.1 Q-8.95 -3.2 -9.0 -3.3 L-8.55 -3.65 -8.5 -3.7 Q-9.35 -4.2 -9.95 -4.7 -11.05 -5.65 -11.15 -6.4 L-10.95 -6.55 Q-11.05 -6.9 -11.2 -7.2 -12.1 -7.65 -12.8 -8.15 -14.15 -9.2 -14.3 -10.15 L-14.0 -10.2 Q-13.95 -10.15 -13.65 -9.7 L-13.3 -9.25 Q-13.35 -9.45 -13.45 -9.6 -13.8 -9.9 -13.9 -10.15 L-14.05 -10.75 -14.15 -11.35 Q-14.3 -11.75 -15.05 -12.65 L-16.05 -13.95 -15.9 -14.0 Q-15.3 -13.4 -15.1 -13.3 -14.55 -13.0 -13.9 -13.3 -12.85 -12.35 -12.45 -12.0 -11.85 -11.35 -11.85 -10.65 -11.85 -10.45 -12.15 -10.3 -12.45 -10.15 -12.45 -10.0 -12.45 -9.4 -11.95 -8.95 -11.3 -8.35 -10.0 -8.05 L-9.6 -7.6 Q-9.3 -7.2 -9.3 -6.95 -9.3 -6.75 -9.45 -6.2 -9.65 -5.7 -9.65 -5.45 -9.65 -5.35 -8.85 -4.7 -7.95 -4.0 -7.7 -3.7 L-7.65 -3.7 -7.65 -3.6 Q-7.35 -3.5 -6.9 -3.2 L-6.45 -2.9 -6.1 -2.8 -5.65 -2.6 -4.8 -2.4 -3.4 -1.95 -1.2 -1.7 -1.2 -1.8 Q-0.2 -1.8 -0.2 -1.9 L1.1 -1.9 1.2 -2.0 1.5 -2.2 1.95 -2.3 1.65 -2.7 Q1.4 -3.0 1.4 -3.1 1.4 -3.35 2.0 -3.9 2.65 -4.55 3.15 -4.6 3.15 -4.5 2.95 -4.15 M5.5 -6.85 Q6.85 -7.6 8.35 -6.9 L9.0 -5.85 Q10.05 -6.2 10.7 -6.2 11.0 -6.2 11.05 -6.15 11.1 -6.1 11.05 -6.1 10.9 -5.65 10.2 -5.25 9.35 -4.7 8.4 -4.7 L7.75 -4.75 7.4 -4.75 7.25 -5.1 Q7.05 -5.35 6.6 -5.65 L5.5 -5.7 Q4.45 -5.7 4.0 -5.4 3.65 -5.05 3.4 -4.9 4.65 -6.4 5.5 -6.85 M45.4 -19.55 Q45.4 -19.35 45.85 -18.6 L46.35 -17.85 Q46.35 -17.65 46.1 -17.4 45.8 -17.1 45.75 -16.55 45.7 -16.5 45.65 -16.45 45.5 -16.4 45.2 -16.4 L44.85 -16.9 44.8 -17.0 Q44.55 -16.65 44.2 -16.3 43.05 -15.05 42.95 -14.3 L42.7 -14.25 42.85 -14.05 Q43.25 -13.25 43.1 -12.5 L43.45 -12.3 Q43.75 -12.1 43.95 -11.95 L44.0 -11.65 Q44.0 -11.55 43.9 -11.4 L42.8 -11.4 42.75 -11.45 42.55 -11.35 Q41.9 -11.2 41.3 -10.75 L40.75 -10.25 Q40.25 -9.85 40.1 -9.85 L40.05 -9.85 39.8 -9.6 Q39.25 -8.9 39.25 -8.4 39.25 -8.1 39.4 -8.0 L39.6 -7.85 Q39.4 -7.55 38.45 -6.85 37.65 -6.25 37.3 -6.1 L37.2 -6.35 Q37.15 -6.6 37.0 -6.75 L36.4 -6.8 36.05 -7.2 Q35.95 -7.4 35.95 -7.7 35.95 -8.4 36.5 -8.45 L37.2 -8.4 37.8 -8.8 Q38.4 -9.2 39.0 -9.25 39.35 -9.9 39.9 -10.5 40.35 -10.95 40.7 -11.1 L41.15 -11.6 Q41.55 -12.15 41.7 -12.6 41.65 -12.65 41.65 -12.75 41.65 -13.2 41.5 -13.4 41.45 -13.45 41.3 -13.9 41.2 -14.35 41.2 -14.5 L41.25 -14.7 41.35 -14.9 41.3 -15.05 41.4 -15.2 Q41.7 -15.65 42.1 -15.8 L42.75 -16.0 Q43.05 -16.15 43.2 -16.35 44.25 -17.15 44.7 -18.8 L45.0 -18.8 44.95 -19.25 Q44.85 -19.7 44.85 -19.85 44.85 -20.35 45.65 -20.95 L45.9 -20.85 Q46.15 -20.8 46.3 -20.7 46.1 -20.55 45.75 -20.45 L45.5 -20.05 Q45.4 -19.85 45.4 -19.55 M48.25 -25.7 L47.95 -24.85 Q47.8 -24.3 47.8 -24.05 47.8 -23.75 48.05 -23.15 L48.6 -22.0 48.5 -21.85 47.95 -21.85 Q47.75 -22.05 47.5 -23.0 47.3 -23.85 47.3 -24.0 47.3 -24.4 47.65 -24.9 L48.25 -25.7 M51.45 -13.4 Q51.2 -13.1 50.7 -12.75 50.1 -12.3 49.7 -12.25 49.65 -12.25 49.55 -12.3 49.4 -12.35 49.35 -12.45 49.55 -12.7 49.95 -12.85 50.25 -13.05 50.35 -13.75 50.95 -13.85 51.4 -13.6 L51.45 -13.4 M-33.15 -18.15 L-32.5 -17.4 Q-32.2 -17.0 -32.0 -16.6 -32.5 -16.7 -33.3 -17.55 -34.05 -18.35 -34.25 -18.85 -34.5 -19.65 -34.85 -20.0 -35.25 -20.45 -36.25 -20.95 L-36.15 -21.1 -36.1 -21.15 Q-36.0 -21.15 -35.0 -20.5 -33.95 -19.8 -33.95 -19.65 -33.85 -19.75 -33.7 -19.75 -33.45 -19.65 -33.3 -18.95 L-33.3 -18.55 Q-33.3 -18.3 -33.15 -18.15 M-29.3 -15.4 L-28.9 -15.3 Q-28.7 -15.0 -28.45 -14.75 -28.25 -14.6 -28.15 -14.25 L-28.2 -14.2 -28.1 -13.9 Q-28.3 -13.6 -28.7 -13.6 -28.75 -13.65 -28.7 -13.85 L-28.65 -14.0 -28.9 -13.95 Q-29.05 -14.1 -29.1 -14.35 L-29.15 -14.75 -29.6 -14.9 -29.8 -15.05 -29.95 -15.15 -30.15 -15.15 -30.2 -15.45 Q-29.85 -15.65 -29.4 -15.4 L-29.3 -15.4 M-34.75 -13.4 Q-34.75 -13.45 -34.75 -13.55 L-34.75 -13.6 Q-34.25 -13.25 -33.8 -13.25 L-33.45 -13.3 -33.05 -13.2 -32.95 -13.05 -33.4 -12.75 Q-33.7 -12.55 -33.75 -12.55 -34.25 -12.55 -34.75 -13.1 L-34.75 -13.4 M-26.0 -11.6 Q-26.0 -11.3 -25.85 -11.3 L-25.6 -11.3 Q-25.6 -11.2 -25.7 -11.05 -25.8 -10.9 -25.95 -10.75 -26.15 -10.9 -26.5 -11.2 -26.8 -11.5 -26.8 -11.6 -26.8 -11.8 -26.6 -12.35 -26.45 -12.9 -26.45 -13.15 -26.45 -13.35 -26.75 -13.7 L-27.3 -14.45 Q-26.9 -14.45 -26.35 -14.0 -25.85 -13.65 -25.8 -13.35 -25.8 -13.1 -25.9 -12.45 L-26.0 -11.6 M-28.6 -13.5 L-28.3 -13.5 -28.25 -13.35 Q-28.4 -13.1 -28.7 -13.05 -28.8 -13.2 -28.8 -13.45 L-28.6 -13.5 M-31.8 -11.6 Q-32.0 -11.85 -32.0 -12.5 L-31.85 -12.5 Q-31.6 -12.5 -31.6 -12.3 -31.65 -12.05 -31.6 -12.05 L-31.25 -12.05 Q-30.95 -12.0 -30.95 -11.7 -30.95 -11.45 -31.0 -11.5 L-31.05 -11.6 -31.8 -11.6 M-30.85 -8.7 L-30.95 -8.3 -31.3 -8.25 -31.35 -8.2 Q-31.4 -8.2 -31.4 -8.5 L-31.35 -8.95 Q-31.25 -9.15 -30.7 -9.1 L-30.85 -8.7 M-17.85 -19.55 L-17.8 -19.6 -17.3 -19.55 -15.75 -18.4 Q-15.6 -18.25 -15.6 -18.1 -15.55 -18.0 -15.55 -17.5 -15.55 -17.15 -16.05 -16.0 -16.55 -14.8 -16.95 -14.5 L-17.15 -14.4 -17.7 -14.35 -17.75 -14.3 Q-17.8 -14.35 -17.8 -14.6 -17.8 -14.9 -17.6 -15.1 -17.4 -15.3 -17.35 -15.45 -17.35 -15.55 -17.45 -15.75 -17.55 -16.0 -17.55 -16.25 -17.55 -16.45 -17.3 -16.85 -17.05 -17.3 -17.05 -17.5 -17.05 -17.6 -17.45 -18.45 L-17.95 -19.45 -17.85 -19.55 M-21.85 -15.55 Q-21.75 -15.4 -21.4 -14.9 -20.75 -14.0 -21.05 -13.3 -20.3 -13.2 -19.75 -12.85 -20.1 -12.5 -20.35 -12.35 L-21.05 -12.4 Q-21.55 -12.95 -21.5 -13.45 -21.45 -13.7 -21.25 -14.2 -21.25 -14.4 -21.8 -14.95 -22.3 -15.5 -22.3 -15.6 L-22.25 -15.9 Q-22.15 -16.2 -21.95 -16.35 -22.05 -15.95 -21.85 -15.55 M-21.55 -9.85 Q-21.4 -9.7 -21.2 -9.7 L-20.95 -9.7 Q-20.65 -9.75 -20.45 -9.95 -20.2 -10.2 -19.7 -10.25 L-19.55 -10.1 Q-19.55 -10.05 -19.65 -9.9 L-19.85 -9.7 -20.35 -9.55 Q-20.6 -9.5 -20.65 -9.4 L-20.75 -9.4 Q-21.45 -9.1 -21.7 -8.4 -21.85 -7.5 -22.05 -7.15 L-22.25 -7.1 -22.3 -7.3 Q-22.35 -7.5 -22.35 -7.75 -22.35 -8.35 -21.85 -9.1 L-21.6 -9.45 -21.8 -9.75 -22.1 -9.7 Q-22.55 -9.85 -22.75 -10.15 L-23.1 -10.55 Q-23.05 -10.8 -22.45 -10.8 -22.15 -10.7 -21.55 -10.4 -21.55 -10.65 -21.55 -10.2 L-21.55 -9.85" fill="#ffffc4" fill-rule="evenodd" stroke="none"/>
      <path d="M-7.25 1.35 L-6.05 1.35 -6.05 1.25 -5.95 1.3 -5.5 1.3 -5.5 1.4 -5.85 1.4 -7.25 1.35 M1.55 0.9 L1.95 0.8 Q-0.15 0.75 -0.95 0.4 L1.0 0.3 1.3 0.4 2.75 0.55 2.65 0.7 1.9 0.8 Q1.75 0.85 1.65 0.9 L1.55 0.9" fill="#cccccc" fill-rule="evenodd" stroke="none"/>
      <path d="M1.0 0.3 Q0.95 0.25 0.95 0.2 L2.25 0.2 3.7 0.15 5.7 -0.05 Q5.7 -0.1 5.9 -0.1 L6.55 -0.15 9.55 -0.6 Q15.7 -1.55 18.75 -2.5 23.7 -4.05 23.95 -6.55 24.15 -6.7 24.35 -6.7 24.6 -6.85 25.15 -7.0 26.0 -7.35 27.8 -7.5 L30.85 -7.7 Q31.45 -7.6 31.5 -7.55 L29.4 -7.25 Q28.85 -7.05 27.65 -6.6 26.4 -6.1 25.75 -5.65 L24.45 -4.45 Q23.7 -3.75 22.95 -3.45 21.55 -2.5 20.35 -2.1 18.15 -1.45 15.25 -0.8 10.65 0.15 7.05 0.35 L6.9 0.4 7.75 0.55 7.8 0.75 Q7.3 1.2 4.15 1.55 L0.35 1.8 -1.3 1.75 -2.1 1.7 -2.95 1.75 -4.35 1.85 -5.95 1.95 -8.65 1.8 Q-11.05 1.6 -11.65 1.4 -14.25 1.0 -15.15 0.7 -15.45 0.6 -16.15 0.25 L-15.95 0.45 -16.45 0.45 Q-17.8 0.45 -18.75 -0.55 -19.55 -1.35 -19.55 -2.0 -19.55 -2.2 -19.4 -2.35 -19.35 -2.55 -19.15 -2.8 -18.9 -3.15 -18.8 -3.65 -18.35 -3.65 -18.2 -3.35 -18.15 -3.2 -18.15 -2.85 -18.15 -2.6 -18.3 -2.3 -18.55 -1.95 -18.9 -1.9 -18.65 -1.15 -17.8 -0.7 L-16.85 -0.25 -16.75 -0.2 -16.7 -0.2 Q-16.3 -0.15 -15.6 0.1 -15.0 0.35 -14.25 0.45 L-12.75 0.75 -11.35 0.95 Q-9.05 1.25 -7.25 1.35 L-5.85 1.4 -5.5 1.4 -1.65 1.15 1.55 0.9 1.65 0.9 Q1.75 0.85 1.9 0.8 L2.65 0.7 2.75 0.55 1.3 0.4 1.0 0.3 M38.75 -5.45 L39.2 -5.65 Q39.9 -6.0 40.4 -6.3 40.9 -6.55 41.1 -6.75 L41.15 -6.85 40.7 -7.3 40.8 -7.65 41.15 -7.65 Q41.45 -7.75 41.95 -7.95 43.0 -8.25 43.85 -8.3 L44.05 -8.1 Q43.85 -8.0 43.3 -7.8 42.75 -7.45 41.85 -6.65 41.65 -6.1 40.05 -5.5 L37.7 -4.8 37.5 -4.8 38.75 -5.45 M-33.6 -5.7 L-33.45 -5.8 -33.25 -5.75 Q-31.8 -5.4 -30.95 -4.95 L-29.7 -4.15 Q-29.1 -3.9 -29.05 -3.6 L-27.65 -3.8 -26.8 -3.9 -27.5 -3.3 Q-27.95 -3.0 -28.65 -3.0 -30.0 -3.0 -30.7 -3.75 -31.0 -4.0 -31.2 -4.5 L-31.45 -4.6 Q-32.85 -5.2 -33.35 -5.2 -33.6 -5.2 -33.75 -5.1 -33.95 -5.1 -34.0 -5.25 L-34.05 -5.45 Q-34.0 -5.55 -33.75 -5.65 -33.65 -5.7 -33.6 -5.7 M-26.8 -4.55 Q-26.0 -5.15 -25.15 -5.45 -23.7 -5.95 -21.85 -6.0 -21.4 -5.95 -21.35 -5.8 L-21.45 -5.75 Q-23.55 -5.5 -24.8 -5.1 L-26.7 -4.4 -26.75 -4.45 -26.8 -4.55 M-19.2 -5.95 Q-17.6 -6.1 -16.8 -5.65 -16.15 -5.3 -16.2 -4.9 L-16.2 -4.75 Q-16.2 -4.3 -16.55 -3.95 -16.95 -3.55 -17.65 -3.55 L-19.15 -3.7 -19.15 -3.75 Q-19.2 -3.8 -19.35 -3.8 -19.25 -3.85 -18.85 -3.95 L-17.55 -4.25 Q-16.95 -4.4 -16.95 -4.7 -16.95 -4.85 -17.1 -5.15 L-17.4 -5.35 Q-18.05 -5.75 -19.35 -5.8 L-19.5 -6.0 -19.45 -6.05 Q-19.25 -6.05 -19.2 -5.95" fill="#ffffc4" fill-rule="evenodd" stroke="none"/>
      <path d="M9.55 -0.6 Q11.85 -1.0 15.45 -1.8 22.7 -3.35 23.55 -6.3 L23.2 -6.35 23.15 -6.55 Q23.5 -6.85 25.45 -7.3 27.15 -7.7 28.15 -7.8 L32.75 -7.8 Q34.55 -7.55 35.05 -7.15 35.3 -6.95 35.55 -6.6 L36.05 -6.55 36.15 -6.55 Q36.3 -6.45 36.5 -6.45 L36.6 -6.3 36.6 -6.0 Q36.6 -5.6 36.55 -5.55 36.35 -5.3 35.45 -4.85 L35.1 -4.8 35.25 -4.7 35.45 -4.6 Q37.45 -5.0 38.75 -5.45 L37.5 -4.8 37.7 -4.8 40.05 -5.5 Q41.65 -6.1 41.85 -6.65 42.75 -7.45 43.3 -7.8 43.85 -8.0 44.05 -8.1 L43.85 -8.3 Q43.0 -8.25 41.95 -7.95 41.45 -7.75 41.15 -7.65 L40.8 -7.65 40.7 -7.3 41.15 -6.85 41.1 -6.75 Q40.9 -6.55 40.4 -6.3 40.65 -6.45 40.8 -6.7 L40.85 -6.95 40.5 -7.05 40.4 -7.15 Q40.4 -7.2 40.4 -7.4 40.4 -7.7 41.05 -7.85 L41.65 -7.95 41.7 -8.0 Q42.75 -8.45 45.55 -8.8 L45.55 -8.9 47.2 -8.75 47.4 -8.5 Q47.5 -8.4 47.5 -8.15 47.5 -7.7 46.65 -6.9 46.25 -6.55 45.35 -5.85 45.55 -5.5 45.7 -5.4 46.0 -5.15 46.8 -4.95 L46.8 -5.0 Q46.85 -5.0 46.85 -4.8 46.85 -4.0 46.55 -3.6 45.95 -2.95 45.3 -2.15 45.1 -1.85 43.4 -1.25 L40.8 -0.4 Q39.05 0.3 34.95 1.25 32.2 1.9 27.05 2.9 26.6 2.95 25.7 3.2 24.9 3.45 24.3 3.45 L24.0 3.45 23.95 3.3 Q24.2 3.05 24.5 2.8 L24.7 2.6 Q24.7 2.3 24.4 2.15 24.05 1.95 23.0 1.7 L20.95 1.65 19.75 1.6 Q15.8 1.6 12.25 2.3 9.35 2.85 7.95 3.6 8.05 3.65 8.15 3.65 8.2 3.7 8.2 3.95 8.2 4.15 8.1 4.25 L7.85 4.35 7.3 4.45 Q7.05 4.4 7.0 4.3 L7.05 4.2 6.65 4.3 Q6.15 4.4 6.55 4.55 6.15 4.75 5.35 4.85 L0.45 5.05 Q0.2 5.05 -0.05 4.9 L-0.45 4.7 -0.85 4.65 -1.05 4.6 -1.4 4.6 -1.4 4.55 -1.65 4.5 -3.45 4.1 -5.2 3.95 Q-6.5 3.9 -6.6 3.8 -8.3 3.85 -10.15 3.85 L-11.25 3.9 -11.7 3.95 -15.55 3.95 -17.3 4.2 -17.6 4.15 -17.6 4.1 Q-18.7 4.05 -18.75 3.95 L-20.05 3.8 -20.2 3.75 -22.35 3.4 -25.45 2.9 Q-28.4 2.6 -30.35 2.1 L-33.2 1.25 Q-33.4 1.1 -33.6 0.95 -33.6 0.85 -33.5 0.7 L-33.3 0.55 -32.15 0.45 -31.85 0.25 -31.7 0.05 Q-33.9 -0.15 -36.8 -1.4 -39.45 -2.55 -40.45 -3.5 L-40.45 -4.45 -40.0 -4.5 -39.3 -4.6 -38.2 -4.55 -37.4 -4.4 -36.45 -4.3 Q-34.3 -4.3 -34.25 -4.7 -34.25 -4.8 -34.3 -5.1 -34.3 -5.35 -33.95 -5.55 -33.8 -5.65 -33.6 -5.7 -33.65 -5.7 -33.75 -5.65 -34.0 -5.55 -34.05 -5.45 L-34.0 -5.25 Q-33.95 -5.1 -33.75 -5.1 -33.6 -5.2 -33.35 -5.2 -32.85 -5.2 -31.45 -4.6 L-31.2 -4.5 Q-31.0 -4.0 -30.7 -3.75 -30.0 -3.0 -28.65 -3.0 -27.95 -3.0 -27.5 -3.3 L-26.8 -3.9 -27.65 -3.8 -29.05 -3.6 Q-29.1 -3.9 -29.7 -4.15 L-30.95 -4.95 Q-31.8 -5.4 -33.25 -5.75 -32.3 -5.75 -30.8 -5.0 -29.6 -4.35 -29.15 -3.9 L-27.15 -4.0 -27.2 -4.1 Q-27.3 -4.25 -27.3 -4.45 -27.3 -4.85 -25.5 -5.55 -23.65 -6.2 -22.55 -6.15 -22.55 -6.45 -19.9 -6.3 -17.25 -6.15 -16.5 -5.7 -16.0 -5.6 -15.85 -5.2 -15.8 -5.05 -15.8 -4.55 L-15.8 -4.2 Q-15.8 -4.05 -15.95 -3.9 -16.25 -3.55 -17.7 -3.2 L-18.05 -2.85 Q-17.75 -2.7 -17.7 -2.55 L-17.85 -2.45 Q-17.9 -2.2 -18.25 -1.95 -18.6 -1.75 -18.6 -1.55 -18.6 -1.35 -17.65 -0.85 -16.65 -0.35 -15.1 0.1 -13.95 0.45 -12.75 0.75 L-14.25 0.45 Q-15.0 0.35 -15.6 0.1 -16.3 -0.15 -16.7 -0.2 L-16.75 -0.2 -16.85 -0.25 -17.8 -0.7 Q-18.65 -1.15 -18.9 -1.9 -18.55 -1.95 -18.3 -2.3 -18.15 -2.6 -18.15 -2.85 -18.15 -3.2 -18.2 -3.35 -18.35 -3.65 -18.8 -3.65 -18.9 -3.15 -19.15 -2.8 -19.35 -2.55 -19.4 -2.35 -19.55 -2.2 -19.55 -2.0 -19.55 -1.35 -18.75 -0.55 -17.8 0.45 -16.45 0.45 L-15.95 0.45 -16.15 0.25 Q-15.45 0.6 -15.15 0.7 -14.25 1.0 -11.65 1.4 -11.05 1.6 -8.65 1.8 L-5.95 1.95 -4.35 1.85 -2.95 1.75 -2.1 1.7 -1.3 1.75 0.35 1.8 4.15 1.55 Q7.3 1.2 7.8 0.75 L7.75 0.55 6.9 0.4 7.05 0.35 Q10.65 0.15 15.25 -0.8 18.15 -1.45 20.35 -2.1 21.55 -2.5 22.95 -3.45 23.7 -3.75 24.45 -4.45 L25.75 -5.65 Q26.4 -6.1 27.65 -6.6 28.85 -7.05 29.4 -7.25 L31.5 -7.55 Q31.45 -7.6 30.85 -7.7 L27.8 -7.5 Q26.0 -7.35 25.15 -7.0 24.6 -6.85 24.35 -6.7 24.15 -6.7 23.95 -6.55 23.7 -4.05 18.75 -2.5 15.7 -1.55 9.55 -0.6 M-19.2 -5.95 Q-19.25 -6.05 -19.45 -6.05 L-19.5 -6.0 -19.35 -5.8 Q-18.05 -5.75 -17.4 -5.35 L-17.1 -5.15 Q-16.95 -4.85 -16.95 -4.7 -16.95 -4.4 -17.55 -4.25 L-18.85 -3.95 Q-19.25 -3.85 -19.35 -3.8 -19.2 -3.8 -19.15 -3.75 L-19.15 -3.7 -17.65 -3.55 Q-16.95 -3.55 -16.55 -3.95 -16.2 -4.3 -16.2 -4.75 L-16.2 -4.9 Q-16.15 -5.3 -16.8 -5.65 -17.6 -6.1 -19.2 -5.95 M-26.8 -4.55 L-26.75 -4.45 -26.7 -4.4 -24.8 -5.1 Q-23.55 -5.5 -21.45 -5.75 L-21.35 -5.8 Q-21.4 -5.95 -21.85 -6.0 -23.7 -5.95 -25.15 -5.45 -26.0 -5.15 -26.8 -4.55" fill="#999999" fill-rule="evenodd" stroke="none"/>
    </g>
  </defs>
</svg>
