<?xml version="1.0" encoding="UTF-8" standalone="no"?>
<svg xmlns:ffdec="https://www.free-decompiler.com/flash" xmlns:xlink="http://www.w3.org/1999/xlink" ffdec:objectType="frame" height="100.45px" width="217.0px" xmlns="http://www.w3.org/2000/svg">
  <g transform="matrix(1.0, 0.0, 0.0, 1.0, 108.5, 100.45)">
    <use ffdec:characterId="373" height="9.45" transform="matrix(7.0, 0.0, 0.0, 7.0, -91.35, -72.8)" width="27.4" xlink:href="#shape0"/>
  </g>
  <defs>
    <g id="shape0" transform="matrix(1.0, 0.0, 0.0, 1.0, 13.05, 10.4)">
      <path d="M6.2 -8.75 L6.2 -8.7 Q6.2 -8.4 5.35 -7.75 4.5 -7.05 4.3 -7.05 L4.1 -7.1 4.0 -7.05 3.7 -7.1 3.7 -7.4 3.85 -7.4 4.35 -7.7 Q4.7 -7.9 4.7 -8.1 L4.6 -8.25 Q4.55 -8.35 4.45 -8.35 3.95 -8.35 3.7 -7.85 3.45 -7.35 3.2 -7.35 3.0 -7.35 2.95 -7.7 2.9 -7.85 2.95 -8.05 2.95 -8.1 2.7 -8.2 L2.45 -8.3 2.45 -8.35 2.5 -8.35 Q2.7 -8.4 3.55 -8.95 4.45 -9.5 5.2 -9.5 5.3 -9.5 5.75 -9.15 L5.75 -9.1 6.2 -8.75 M14.15 -8.55 Q14.35 -8.5 14.35 -8.35 14.35 -8.1 14.15 -7.55 13.9 -6.95 13.7 -6.95 13.35 -6.95 13.3 -7.2 13.25 -7.3 13.3 -7.55 L13.1 -7.6 Q13.05 -7.7 13.05 -7.5 13.05 -7.45 13.2 -7.15 13.35 -6.8 13.35 -6.6 13.35 -6.05 13.0 -5.9 12.65 -5.75 11.15 -5.75 L10.85 -5.8 10.6 -5.9 10.6 -6.1 Q11.3 -6.1 11.75 -6.55 12.1 -6.9 12.1 -7.2 L11.95 -7.4 11.7 -7.55 10.75 -7.5 10.4 -7.45 Q10.5 -7.25 10.85 -7.05 11.1 -6.9 11.1 -6.8 11.1 -6.7 10.9 -6.6 10.65 -6.45 10.35 -6.45 L9.85 -6.5 9.65 -6.65 9.4 -6.9 Q7.9 -7.15 7.4 -7.3 7.05 -7.4 6.5 -7.75 L6.55 -7.75 Q6.8 -7.65 7.25 -7.6 L7.65 -7.55 Q8.25 -7.55 8.8 -7.85 L9.75 -8.5 Q11.05 -9.4 12.35 -9.4 12.85 -9.4 13.5 -8.95 L13.95 -8.6 14.2 -8.4 Q14.25 -8.4 14.25 -8.45 L14.15 -8.55 M4.45 -4.35 Q4.65 -4.35 4.6 -4.3 4.65 -4.2 4.65 -3.9 4.65 -3.65 4.5 -3.35 4.3 -2.95 3.85 -2.95 3.3 -2.95 2.8 -3.55 2.3 -4.1 2.3 -4.5 2.3 -4.9 2.35 -4.95 2.5 -5.05 3.2 -4.6 3.7 -4.3 4.05 -4.3 L4.45 -4.35 M0.2 -5.2 L0.45 -5.25 0.4 -5.2 Q0.3 -4.9 -0.15 -4.7 -0.6 -4.5 -0.6 -4.25 -0.6 -4.15 -0.55 -4.1 -0.5 -4.05 -0.5 -3.95 -0.5 -3.85 -0.55 -3.85 L-0.7 -3.8 -1.15 -3.75 Q-1.3 -3.65 -1.35 -3.5 L-1.5 -3.25 -1.25 -3.0 Q-1.05 -2.75 -0.85 -2.75 -0.9 -2.6 -1.05 -2.4 L-1.3 -2.2 -1.45 -2.05 -1.8 -2.4 -2.25 -2.7 -2.75 -3.05 -3.05 -3.05 -3.05 -2.6 Q-3.05 -2.45 -3.5 -1.7 -4.0 -0.95 -4.05 -0.95 -4.8 -0.95 -4.95 -1.55 L-5.0 -2.05 Q-5.05 -2.3 -5.1 -2.4 L-5.25 -2.4 Q-5.2 -2.1 -5.25 -1.9 -5.25 -1.55 -5.65 -1.55 -5.9 -1.55 -6.0 -1.8 -6.05 -1.95 -6.05 -2.1 L-6.0 -2.35 -5.75 -2.6 -5.25 -3.25 Q-4.7 -3.8 -4.2 -3.95 L-1.7 -4.55 Q-1.05 -4.7 -0.6 -4.85 -0.1 -5.0 0.2 -5.2 M13.5 -4.85 L13.55 -4.85 Q13.8 -4.85 13.85 -4.65 L13.85 -4.35 Q13.85 -4.2 13.7 -3.85 13.5 -3.45 13.3 -3.45 L12.85 -3.5 12.55 -3.6 Q12.5 -3.6 12.35 -3.7 L12.1 -3.75 Q11.8 -3.75 11.55 -3.55 L11.2 -3.2 Q10.7 -2.7 9.9 -2.7 9.7 -2.7 9.55 -2.85 L9.5 -3.0 Q9.5 -3.2 9.95 -3.45 L10.55 -3.85 Q10.45 -4.0 10.2 -4.0 9.9 -4.0 8.7 -3.3 L7.55 -2.55 Q7.2 -2.55 7.15 -3.1 7.1 -3.35 7.15 -3.65 7.15 -4.35 6.65 -4.55 6.4 -4.7 6.35 -4.8 6.2 -4.95 6.2 -5.3 L6.2 -5.55 Q6.25 -5.65 6.45 -5.8 6.55 -5.7 6.6 -5.5 6.45 -5.65 6.4 -5.65 6.55 -5.3 6.95 -5.05 7.25 -4.8 7.7 -4.65 8.15 -4.55 8.8 -4.55 9.5 -4.55 10.4 -4.8 11.3 -5.1 12.1 -5.1 12.6 -5.1 13.15 -4.75 L13.75 -4.45 Q13.9 -4.45 13.8 -4.5 L13.5 -4.85 M-9.7 -9.75 L-9.75 -9.7 -9.55 -9.6 -9.55 -9.55 -9.85 -9.65 -10.05 -9.55 -10.15 -9.55 -10.15 -9.5 Q-10.15 -9.35 -9.9 -9.25 -9.7 -9.1 -9.7 -9.0 -9.7 -8.8 -10.05 -8.4 -10.15 -8.45 -10.35 -8.8 -10.7 -9.15 -11.5 -9.05 L-11.5 -9.3 -11.45 -9.5 Q-11.35 -9.6 -11.35 -9.7 L-11.5 -9.9 -11.6 -10.1 -11.6 -10.15 -11.4 -10.15 -10.85 -10.1 -10.1 -10.0 -9.85 -9.85 -9.75 -9.75 -9.7 -9.75 M-12.65 -7.95 Q-12.75 -7.85 -12.75 -7.8 L-12.7 -7.7 -12.5 -7.8 -12.1 -7.95 Q-11.6 -8.15 -11.35 -8.15 L-9.95 -7.75 Q-8.45 -7.4 -7.65 -7.4 -6.85 -7.4 -6.35 -7.6 L-6.25 -7.65 Q-6.0 -7.8 -5.85 -7.95 L-5.8 -7.9 -6.7 -7.0 Q-7.25 -6.4 -7.7 -6.1 L-7.9 -6.5 Q-8.0 -6.8 -8.45 -6.8 -8.7 -6.8 -8.8 -6.45 -8.9 -6.15 -9.1 -6.15 -9.25 -6.15 -9.55 -6.35 -9.85 -6.55 -10.2 -6.55 L-10.7 -6.3 Q-11.2 -6.05 -11.75 -6.05 L-11.8 -6.05 -11.8 -6.15 -11.65 -6.45 Q-11.5 -6.75 -11.5 -6.8 -11.5 -6.9 -11.6 -7.05 -11.75 -7.25 -11.95 -7.25 -12.4 -7.25 -12.45 -7.0 -12.5 -6.85 -12.4 -6.6 L-12.45 -6.6 -12.6 -6.55 Q-12.8 -6.55 -12.95 -6.9 -13.05 -7.15 -13.05 -7.25 -13.05 -7.45 -12.9 -7.65 -12.8 -7.85 -12.65 -7.95 M-1.4 -6.7 L-1.35 -6.65 -1.25 -6.3 -1.2 -5.95 -1.2 -5.8 -1.95 -5.8 Q-2.1 -5.85 -2.3 -6.1 -2.5 -6.35 -2.7 -6.35 -3.0 -6.35 -3.05 -6.0 -3.05 -5.9 -2.95 -5.8 -2.8 -5.75 -2.8 -5.6 -2.8 -5.3 -2.95 -5.35 L-3.45 -5.5 Q-4.15 -5.5 -4.6 -4.9 -4.95 -4.45 -5.0 -4.1 L-5.15 -4.05 Q-5.25 -4.05 -5.5 -4.3 -5.75 -4.55 -6.2 -4.55 -6.55 -4.55 -6.75 -4.25 L-6.95 -3.85 -7.3 -3.65 Q-7.65 -3.45 -7.7 -3.3 L-7.8 -3.3 Q-7.85 -3.5 -7.85 -3.9 -7.85 -4.2 -8.1 -4.45 -8.2 -4.35 -8.25 -4.2 -8.3 -4.1 -8.5 -4.1 -8.7 -4.1 -8.75 -4.35 -8.8 -4.45 -8.8 -4.55 -8.8 -4.8 -8.45 -5.05 L-8.05 -5.15 Q-5.6 -5.75 -5.35 -5.9 -4.95 -6.25 -4.55 -6.55 -3.85 -7.05 -3.15 -7.05 -2.75 -7.05 -2.25 -6.85 L-1.65 -6.7 -1.4 -6.7 M-10.4 -4.2 Q-10.2 -4.4 -10.05 -4.0 -9.85 -3.7 -9.2 -3.5 -8.65 -3.25 -8.65 -3.1 -8.65 -2.95 -8.8 -2.95 L-9.2 -2.9 Q-9.5 -2.9 -10.05 -3.25 -10.6 -3.6 -10.6 -3.75 -10.6 -4.05 -10.4 -4.2 M-2.6 -3.05 L-2.15 -2.7 -1.8 -2.4 -1.9 -2.5 Q-2.3 -2.85 -2.55 -3.05 L-2.6 -3.05" fill="#b7bccc" fill-opacity="0.5019608" fill-rule="evenodd" stroke="none"/>
      <path d="M-8.45 -5.05 L-8.2 -5.2 -8.15 -5.2 -8.45 -5.05" fill="#b7bccc" fill-rule="evenodd" stroke="none"/>
      <path d="M6.2 -8.75 L5.75 -9.1 5.75 -9.15 Q5.3 -9.5 5.2 -9.5 4.45 -9.5 3.55 -8.95 2.7 -8.4 2.5 -8.35 L2.45 -8.35 2.3 -8.4 2.3 -8.45 2.25 -8.5 Q3.45 -9.4 4.55 -9.7 6.2 -10.25 6.25 -8.8 L6.2 -8.75 M6.55 -7.75 L6.45 -7.85 6.45 -7.95 6.5 -8.0 Q6.8 -7.85 7.2 -7.85 7.9 -7.85 8.8 -8.35 L10.4 -9.3 Q11.3 -9.75 12.1 -9.65 13.1 -9.5 14.15 -8.55 L14.25 -8.45 Q14.25 -8.4 14.2 -8.4 L13.95 -8.6 13.5 -8.95 Q12.85 -9.4 12.35 -9.4 11.05 -9.4 9.75 -8.5 L8.8 -7.85 Q8.25 -7.55 7.65 -7.55 L7.25 -7.6 Q6.8 -7.65 6.55 -7.75 M-6.0 -2.35 L-6.05 -2.3 -6.2 -2.25 Q-6.1 -2.7 -5.7 -3.25 -5.2 -3.85 -4.6 -4.05 L-2.3 -4.6 Q-0.25 -5.05 0.45 -5.35 0.35 -5.3 0.2 -5.2 -0.1 -5.0 -0.6 -4.85 -1.05 -4.7 -1.7 -4.55 L-4.2 -3.95 Q-4.7 -3.8 -5.25 -3.25 L-5.75 -2.6 -6.0 -2.35 M6.6 -5.5 L6.9 -5.2 Q7.45 -4.75 8.45 -4.75 9.3 -4.75 10.4 -5.1 11.55 -5.45 12.1 -5.45 12.7 -5.45 13.25 -5.05 L13.5 -4.85 13.8 -4.5 Q13.9 -4.45 13.75 -4.45 L13.15 -4.75 Q12.6 -5.1 12.1 -5.1 11.3 -5.1 10.4 -4.8 9.5 -4.55 8.8 -4.55 8.15 -4.55 7.7 -4.65 7.25 -4.8 6.95 -5.05 6.55 -5.3 6.4 -5.65 6.45 -5.65 6.6 -5.5 M-11.6 -10.15 L-11.3 -10.4 Q-10.2 -10.35 -9.85 -10.1 L-9.6 -9.8 -9.4 -9.6 -9.45 -9.55 -9.7 -9.75 -9.75 -9.75 -9.85 -9.85 -10.1 -10.0 -10.85 -10.1 -11.4 -10.15 -11.6 -10.15 M-5.85 -7.95 Q-6.0 -7.8 -6.25 -7.65 L-6.35 -7.6 Q-6.85 -7.4 -7.65 -7.4 -8.45 -7.4 -9.95 -7.75 L-11.35 -8.15 Q-11.6 -8.15 -12.1 -7.95 L-12.5 -7.8 -12.7 -7.7 -12.75 -7.8 Q-12.75 -7.85 -12.65 -7.95 -12.5 -8.1 -11.95 -8.2 -11.2 -8.4 -10.9 -8.3 L-9.65 -7.9 Q-8.45 -7.6 -8.05 -7.6 -7.0 -7.6 -6.4 -7.8 L-5.8 -8.05 -5.85 -7.95 M-8.15 -5.2 L-6.4 -5.95 Q-5.15 -6.4 -4.95 -6.65 -3.8 -7.65 -2.8 -7.4 -2.6 -7.35 -2.1 -7.15 -1.7 -6.95 -1.45 -6.95 L-1.3 -6.95 -1.2 -6.9 -1.2 -6.85 -1.35 -6.75 -1.4 -6.7 -1.65 -6.7 -2.25 -6.85 Q-2.75 -7.05 -3.15 -7.05 -3.85 -7.05 -4.55 -6.55 -4.95 -6.25 -5.35 -5.9 -5.6 -5.75 -8.05 -5.15 L-8.45 -5.05 -8.15 -5.2" fill="#ffffff" fill-opacity="0.7529412" fill-rule="evenodd" stroke="none"/>
    </g>
  </defs>
</svg>
