<?xml version="1.0" encoding="UTF-8" standalone="no"?>
<svg xmlns:ffdec="https://www.free-decompiler.com/flash" xmlns:xlink="http://www.w3.org/1999/xlink" ffdec:objectType="frame" height="39.2px" width="99.4px" xmlns="http://www.w3.org/2000/svg">
  <g transform="matrix(1.0, 0.0, 0.0, 1.0, 60.8, 29.1)">
    <use ffdec:characterId="189" height="2.8" transform="matrix(7.0, 0.0, 0.0, 7.0, -59.05, -10.55)" width="6.6" xlink:href="#shape0"/>
    <use ffdec:characterId="191" height="0.15" transform="matrix(7.0, 0.0, 0.0, 7.0, -20.9, 5.2)" width="0.55" xlink:href="#shape1"/>
    <use ffdec:characterId="190" height="2.05" transform="matrix(7.0, 0.0, 0.0, 7.0, -60.8, -4.25)" width="3.6" xlink:href="#shape2"/>
  </g>
  <defs>
    <g id="shape0" transform="matrix(1.0, 0.0, 0.0, 1.0, 11.55, 0.15)">
      <path d="M-6.0 2.1 L-5.85 2.05 -5.7 2.05 -5.4 2.15 -5.2 2.2 -5.0 2.15 -4.95 2.15 -4.95 2.25 -5.05 2.25 -5.2 2.3 -5.3 2.25 -5.65 2.25 -6.0 2.1 M-5.8 2.15 L-5.85 2.1 -5.75 2.15 -5.8 2.15 M-5.0 2.2 L-5.0 2.2" fill="#ebf7fc" fill-opacity="0.0" fill-rule="evenodd" stroke="none"/>
      <path d="M-10.45 -0.15 L-10.4 -0.15 -10.4 -0.1 -10.25 0.0 Q-10.25 0.1 -10.45 0.15 -10.6 0.25 -10.6 0.4 -10.6 0.45 -10.55 0.55 L-10.5 0.65 -10.15 0.7 -9.95 0.75 Q-9.65 0.9 -9.65 1.15 -9.6 1.3 -9.65 1.6 -9.45 1.7 -9.05 1.75 -8.75 1.8 -8.6 1.9 -8.35 2.1 -8.2 2.1 L-7.6 2.15 -6.5 2.15 -6.3 2.1 -6.05 2.05 -5.9 2.1 -5.85 2.1 -5.35 2.4 -5.4 2.45 -5.45 2.45 -5.7 2.5 -6.05 2.45 -6.3 2.4 -7.45 2.45 -7.95 2.5 -8.6 2.45 Q-8.9 2.4 -9.1 2.5 L-9.2 2.5 -9.15 2.45 -9.3 2.5 -10.05 2.65 Q-10.65 2.6 -10.75 2.35 -10.85 2.2 -10.9 2.0 -10.95 1.95 -11.2 1.8 -11.45 1.7 -11.5 1.65 -11.55 1.55 -11.55 1.3 -11.55 1.15 -11.5 1.05 L-11.25 0.65 -11.2 0.4 -11.15 0.4 -11.15 0.35 Q-11.1 0.2 -11.05 0.2 L-10.95 0.05 -10.85 -0.05 Q-10.65 -0.05 -10.45 -0.15" fill="#ebf7fc" fill-opacity="0.0" fill-rule="evenodd" stroke="none"/>
    </g>
    <g id="shape1" transform="matrix(1.0, 0.0, 0.0, 1.0, 6.1, -2.1)">
      <path d="M-6.05 2.15 L-5.7 2.2 Q-5.6 2.2 -5.55 2.25 L-6.05 2.2 Q-6.1 2.3 -6.1 2.15 L-6.1 2.1 -6.05 2.15" fill="#c9e9f6" fill-opacity="0.0" fill-rule="evenodd" stroke="none"/>
    </g>
    <g id="shape2" transform="matrix(1.0, 0.0, 0.0, 1.0, 11.8, -0.75)">
      <path d="M-8.2 2.5 L-9.05 2.75 -9.9 2.8 -10.55 2.8 -10.55 2.75 -10.95 2.7 Q-11.0 2.65 -11.05 2.55 -11.1 2.45 -11.2 2.4 L-11.6 2.35 Q-11.7 2.3 -11.75 2.15 L-11.75 2.05 -11.8 1.9 -11.75 1.85 -11.8 1.75 -11.55 1.5 -11.55 1.35 Q-11.55 1.2 -11.5 1.15 L-11.5 1.0 Q-11.45 0.9 -11.45 0.8 -11.35 0.7 -11.25 0.8 -11.15 0.85 -11.15 0.95 L-11.15 1.3 Q-11.2 1.35 -11.25 1.45 -11.3 1.5 -11.35 1.55 L-11.4 1.65 Q-11.4 1.7 -11.25 1.95 L-10.6 1.95 Q-10.6 2.0 -10.45 2.05 L-10.45 2.15 -10.55 2.3 -10.5 2.35 -9.9 2.45 -8.45 2.45 Q-8.2 2.45 -8.2 2.5 M-11.7 1.75 L-11.7 1.7 -11.6 1.55 -11.55 1.5 -11.7 1.7 -11.7 1.75" fill="#c9e9f6" fill-opacity="0.0" fill-rule="evenodd" stroke="none"/>
    </g>
  </defs>
</svg>
