<?xml version="1.0" encoding="UTF-8" standalone="no"?>
<svg xmlns:ffdec="https://www.free-decompiler.com/flash" xmlns:xlink="http://www.w3.org/1999/xlink" ffdec:objectType="frame" height="245.3px" width="268.4px" xmlns="http://www.w3.org/2000/svg">
  <g transform="matrix(1.0, 0.0, 0.0, 1.0, 137.3, 123.85)">
    <use ffdec:characterId="79" height="2.3" transform="matrix(0.1703, 1.2041, -1.2041, 0.1703, 58.6389, 8.9695)" width="2.3" xlink:href="#shape0"/>
    <use ffdec:characterId="79" height="2.3" transform="matrix(0.1501, 1.0616, -1.0616, 0.1501, 76.2982, 4.7066)" width="2.3" xlink:href="#shape0"/>
    <use ffdec:characterId="79" height="2.3" transform="matrix(0.1609, 1.1384, -1.1384, 0.1609, 63.674, -0.5442)" width="2.3" xlink:href="#shape0"/>
    <use ffdec:characterId="79" height="2.3" transform="matrix(0.1298, 0.9177, -0.9177, 0.1298, 58.6561, -3.7046)" width="2.3" xlink:href="#shape0"/>
    <use ffdec:characterId="79" height="2.3" transform="matrix(0.1414, 1.0001, -1.0001, 0.1414, 50.5375, 1.5873)" width="2.3" xlink:href="#shape0"/>
    <use ffdec:characterId="79" height="2.3" transform="matrix(0.3774, 1.035, -1.035, 0.3774, 58.6562, -11.2243)" width="2.3" xlink:href="#shape0"/>
    <use ffdec:characterId="79" height="2.3" transform="matrix(0.3511, 0.9626, -0.9626, 0.3511, 82.8533, -23.9108)" width="2.3" xlink:href="#shape0"/>
    <use ffdec:characterId="79" height="2.3" transform="matrix(0.37, 1.0147, -1.0147, 0.37, 70.2914, -26.9924)" width="2.3" xlink:href="#shape0"/>
    <use ffdec:characterId="79" height="2.3" transform="matrix(0.2834, 0.7773, -0.7773, 0.2834, 64.218, -30.3698)" width="2.3" xlink:href="#shape0"/>
    <use ffdec:characterId="79" height="2.3" transform="matrix(0.2918, 0.8004, -0.8004, 0.2918, 50.2849, -25.456)" width="2.3" xlink:href="#shape0"/>
    <use ffdec:characterId="79" height="2.3" transform="matrix(-0.561, -1.0531, 1.0531, -0.561, -48.4659, 17.9562)" width="2.3" xlink:href="#shape0"/>
    <use ffdec:characterId="79" height="2.3" transform="matrix(-0.4984, -0.9357, 0.9357, -0.4984, -63.6029, 29.6992)" width="2.3" xlink:href="#shape0"/>
    <use ffdec:characterId="79" height="2.3" transform="matrix(-0.5325, -1.0, 1.0, -0.5325, -49.9875, 30.7624)" width="2.3" xlink:href="#shape0"/>
    <use ffdec:characterId="79" height="2.3" transform="matrix(-0.4249, -0.7979, 0.7979, -0.4249, -43.8789, 32.2562)" width="2.3" xlink:href="#shape0"/>
    <use ffdec:characterId="79" height="2.3" transform="matrix(-0.4599, -0.8636, 0.8636, -0.4599, -37.7642, 24.972)" width="2.3" xlink:href="#shape0"/>
    <use ffdec:characterId="79" height="2.3" transform="matrix(0.162, -1.0434, 1.0434, 0.162, -67.2363, -9.7364)" width="2.3" xlink:href="#shape0"/>
    <use ffdec:characterId="79" height="2.3" transform="matrix(0.1557, -1.0026, 1.0026, 0.1557, -93.532, -12.126)" width="2.3" xlink:href="#shape0"/>
    <use ffdec:characterId="79" height="2.3" transform="matrix(0.163, -1.0499, 1.0499, 0.163, -84.4449, -4.13)" width="2.3" xlink:href="#shape0"/>
    <use ffdec:characterId="79" height="2.3" transform="matrix(0.1224, -0.7883, 0.7883, 0.1224, -81.0474, 2.2158)" width="2.3" xlink:href="#shape0"/>
    <use ffdec:characterId="79" height="2.3" transform="matrix(0.121, -0.7793, 0.7793, 0.121, -62.0354, 3.5071)" width="2.3" xlink:href="#shape0"/>
  </g>
  <defs>
    <g id="shape0" transform="matrix(1.0, 0.0, 0.0, 1.0, 1.15, 1.15)">
      <path d="M0.8 -0.85 Q1.15 -0.5 1.15 0.0 1.15 0.5 0.8 0.8 0.5 1.15 0.0 1.15 -0.5 1.15 -0.85 0.8 -1.15 0.5 -1.15 0.0 -1.15 -0.5 -0.85 -0.85 -0.5 -1.15 0.0 -1.15 0.5 -1.15 0.8 -0.85" fill="#e8f6fb" fill-opacity="0.45490196" fill-rule="evenodd" stroke="none"/>
    </g>
  </defs>
</svg>
