<?xml version="1.0" encoding="UTF-8" standalone="no"?>
<svg xmlns:ffdec="https://www.free-decompiler.com/flash" xmlns:xlink="http://www.w3.org/1999/xlink" ffdec:objectType="frame" height="47.6px" width="43.4px" xmlns="http://www.w3.org/2000/svg">
  <g transform="matrix(1.0, 0.0, 0.0, 1.0, 25.9, 11.9)">
    <use ffdec:characterId="533" height="6.8" transform="matrix(7.0, 0.0, 0.0, 7.0, -25.9, -11.9)" width="6.2" xlink:href="#shape0"/>
  </g>
  <defs>
    <g id="shape0" transform="matrix(1.0, 0.0, 0.0, 1.0, 3.7, 1.7)">
      <path d="M-2.05 -1.25 L-1.85 -1.25 Q-0.9 -1.9 0.25 -1.55 0.5 -1.5 0.75 -1.35 1.5 -0.85 1.8 -0.05 2.05 0.5 2.35 1.05 L2.5 1.1 2.4 1.7 2.4 1.75 2.3 2.35 2.25 2.35 2.25 2.85 2.2 2.85 2.1 3.0 2.05 3.05 1.95 3.25 1.9 3.3 1.85 3.3 1.8 3.4 1.7 3.5 Q1.4 3.2 1.0 3.05 0.3 2.75 -0.25 3.2 L-0.3 3.35 Q0.3 3.95 1.5 3.85 L1.55 4.0 1.65 4.15 1.65 4.25 Q1.65 4.4 1.55 4.5 L1.45 4.6 1.35 4.6 1.15 4.7 1.0 4.7 0.55 4.8 0.5 4.8 Q0.2 4.8 -0.3 4.6 L-0.6 4.5 -1.1 4.1 -2.1 3.2 -2.2 3.1 -2.2 3.05 -2.25 3.05 -2.35 2.85 -2.45 2.1 -2.45 2.0 -2.55 1.95 -2.6 1.95 -2.6 2.15 -2.65 2.3 -2.7 2.6 -2.7 2.65 -2.65 2.95 Q-2.6 3.2 -2.45 3.25 L-2.4 3.35 Q-1.85 3.9 -1.2 4.3 L-1.5 4.45 -2.15 4.5 -2.35 4.45 Q-2.75 4.25 -3.1 3.95 -3.3 3.85 -3.4 3.65 L-3.45 3.6 -3.5 3.25 -3.45 3.2 -3.4 3.05 -3.35 3.0 Q-3.25 2.75 -3.25 2.7 L-3.2 2.55 -3.15 2.45 -3.0 2.05 -2.85 1.55 -2.8 1.4 -2.8 1.35 -2.75 1.15 -2.75 1.05 -2.7 0.95 -2.7 0.9 -2.65 1.0 -2.25 1.45 -2.0 1.45 -2.0 1.6 -1.9 1.8 -1.8 2.1 -1.75 2.15 Q-1.55 2.45 -1.15 2.6 L-1.0 2.6 -1.0 2.55 -1.05 2.45 -1.3 2.1 -1.3 2.05 -1.95 1.2 -2.0 1.2 -2.1 1.15 -2.15 1.1 -2.2 1.1 -2.2 1.05 -2.3 1.0 -2.4 0.9 Q-2.65 0.6 -2.6 0.3 L-2.55 0.25 -2.5 0.1 -2.4 -0.05 -2.15 -0.25 -1.95 -0.15 -1.9 -0.15 -1.8 0.0 -1.75 0.05 -1.75 0.55 -1.7 0.55 -1.65 0.65 -1.6 0.5 -1.6 0.6 Q-1.65 0.6 -1.65 0.65 L-1.6 0.7 -1.55 0.85 -1.45 1.05 -1.35 1.15 -1.35 1.25 -1.3 1.25 -1.3 1.35 -1.25 1.4 -1.25 1.45 -1.2 1.45 -1.05 1.35 -1.05 1.3 -0.95 1.15 Q-0.95 0.95 -0.85 0.9 -0.8 0.9 -0.8 0.85 L-0.85 0.5 -0.9 0.25 -0.85 -0.6 -0.8 -0.6 -0.75 -0.75 -0.8 -0.85 -1.1 -0.9 -1.2 -0.65 -1.2 -0.75 Q-1.25 -0.85 -1.3 -0.75 -1.45 -1.1 -1.45 -0.8 L-1.45 -0.75 Q-1.5 -0.95 -1.55 -1.0 L-1.6 -1.0 Q-1.65 -1.0 -1.65 -0.85 L-1.75 -0.8 -1.8 -0.75 -1.75 -0.85 -1.8 -0.95 -1.9 -0.9 -1.95 -0.95 -1.95 -1.05 Q-2.05 -1.05 -2.15 -0.95 L-2.05 -1.25 M-2.0 0.25 L-2.0 0.25" fill="#c7a36d" fill-rule="evenodd" stroke="none"/>
      <path d="M2.1 3.0 L2.2 3.1 2.15 3.15 2.1 3.3 2.05 3.35 2.05 3.4 1.95 3.6 1.9 3.75 1.85 3.85 Q1.85 3.9 1.85 4.0 L1.85 4.1 1.9 4.2 Q1.9 4.35 1.85 4.55 L1.85 4.65 1.45 4.85 Q0.25 5.4 -0.95 4.55 L-1.05 4.6 -1.2 4.7 -1.3 4.75 Q-2.4 5.1 -3.25 4.15 -3.6 3.8 -3.65 3.35 L-3.65 3.25 -3.7 3.25 -3.7 3.1 -3.65 2.9 Q-3.65 2.8 -3.6 2.75 -3.5 2.55 -3.4 2.4 L-3.3 2.25 -3.25 2.1 -3.2 1.9 -3.2 1.85 -3.1 1.65 -3.05 1.35 -3.05 1.15 -2.95 0.85 -2.9 0.5 -2.9 0.2 -2.85 -0.15 -2.8 -0.3 -2.75 -0.6 Q-2.7 -0.9 -2.55 -1.25 L-2.25 -1.25 -2.4 -1.0 -2.45 -0.9 -2.45 -0.85 -2.55 -0.6 -2.6 -0.5 -2.5 -0.5 -2.35 -0.6 -2.3 -0.6 -1.7 -0.65 -1.65 -0.6 -1.7 -0.6 -1.55 -0.5 -1.45 0.0 -1.6 0.5 -1.65 0.65 -1.7 0.55 -1.75 0.55 -1.75 0.05 -1.8 0.0 -1.9 -0.15 -1.95 -0.15 -2.15 -0.25 -2.4 -0.05 -2.5 0.1 -2.55 0.25 -2.6 0.3 Q-2.65 0.6 -2.4 0.9 L-2.3 1.0 -2.2 1.05 -2.2 1.1 -2.15 1.1 -2.1 1.15 -2.0 1.2 -1.95 1.2 -1.3 2.05 -1.3 2.1 -1.05 2.45 -1.0 2.55 -1.0 2.6 -1.15 2.6 Q-1.55 2.45 -1.75 2.15 L-1.8 2.1 -1.9 1.8 -2.0 1.6 -2.0 1.45 -2.25 1.45 -2.65 1.0 -2.7 0.9 -2.7 0.95 -2.75 1.05 -2.75 1.15 -2.8 1.35 -2.8 1.4 -2.85 1.55 -3.0 2.05 -3.15 2.45 -3.2 2.55 -3.25 2.7 Q-3.25 2.75 -3.35 3.0 L-3.4 3.05 -3.45 3.2 -3.5 3.25 -3.45 3.6 -3.4 3.65 Q-3.3 3.85 -3.1 3.95 -2.75 4.25 -2.35 4.45 L-2.15 4.5 -1.5 4.45 -1.2 4.3 Q-1.85 3.9 -2.4 3.35 L-2.45 3.25 Q-2.6 3.2 -2.65 2.95 L-2.7 2.65 -2.7 2.6 -2.65 2.3 -2.6 2.15 -2.6 1.95 -2.55 1.95 -2.45 2.0 -2.45 2.1 -2.35 2.85 -2.25 3.05 -2.2 3.05 -2.2 3.1 -2.1 3.2 -1.1 4.1 -0.6 4.5 -0.3 4.6 Q0.2 4.8 0.5 4.8 L0.55 4.8 1.0 4.7 1.15 4.7 1.35 4.6 1.45 4.6 1.55 4.5 Q1.65 4.4 1.65 4.25 L1.65 4.15 1.55 4.0 1.5 3.85 Q0.3 3.95 -0.3 3.35 L-0.25 3.2 Q0.3 2.75 1.0 3.05 1.4 3.2 1.7 3.5 L1.8 3.4 1.85 3.3 1.9 3.3 1.95 3.25 2.05 3.05 2.1 3.0 M-2.0 0.25 L-2.0 0.25 M1.6 3.5 L1.1 3.3 Q0.45 3.0 -0.1 3.2 -0.25 3.35 0.3 3.6 0.9 3.85 1.6 3.75 L1.6 3.5" fill="#111111" fill-rule="evenodd" stroke="none"/>
      <path d="M-2.25 -1.25 L-2.05 -1.25 -2.15 -0.95 Q-2.05 -1.05 -1.95 -1.05 L-1.95 -0.95 -1.9 -0.9 -1.8 -0.95 -1.75 -0.85 -1.8 -0.75 -1.75 -0.8 -1.65 -0.85 Q-1.65 -1.0 -1.6 -1.0 L-1.55 -1.0 Q-1.5 -0.95 -1.45 -0.75 L-1.45 -0.8 Q-1.45 -1.1 -1.3 -0.75 -1.25 -0.85 -1.2 -0.75 L-1.2 -0.65 -1.1 -0.9 -0.8 -0.85 -0.75 -0.75 -0.8 -0.6 -0.85 -0.6 -0.9 0.25 -0.85 0.5 -0.8 0.85 Q-0.8 0.9 -0.85 0.9 -0.95 0.95 -0.95 1.15 L-1.05 1.3 -1.05 1.35 -1.2 1.45 -1.25 1.45 -1.25 1.4 -1.3 1.35 -1.3 1.25 -1.35 1.25 -1.35 1.15 -1.45 1.05 -1.55 0.85 -1.6 0.7 -1.65 0.65 Q-1.65 0.6 -1.6 0.6 L-1.6 0.5 -1.45 0.0 -1.55 -0.5 -1.7 -0.6 -1.65 -0.6 -1.7 -0.65 -2.3 -0.6 -2.35 -0.6 -2.5 -0.5 -2.6 -0.5 -2.55 -0.6 -2.45 -0.85 -2.45 -0.9 -2.4 -1.0 -2.25 -1.25" fill="#003366" fill-rule="evenodd" stroke="none"/>
      <path d="M1.6 3.5 L1.6 3.75 Q0.9 3.85 0.3 3.6 -0.25 3.35 -0.1 3.2 0.45 3.0 1.1 3.3 L1.6 3.5" fill="#ffffff" fill-rule="evenodd" stroke="none"/>
    </g>
  </defs>
</svg>
