<?xml version="1.0" encoding="UTF-8" standalone="no"?>
<svg xmlns:ffdec="https://www.free-decompiler.com/flash" xmlns:xlink="http://www.w3.org/1999/xlink" ffdec:objectType="frame" height="30.8px" width="22.05px" xmlns="http://www.w3.org/2000/svg">
  <g transform="matrix(1.0, 0.0, 0.0, 1.0, 0.0, 0.0)">
    <use ffdec:characterId="888" height="4.4" transform="matrix(7.0, 0.0, 0.0, 7.0, 0.0, 0.0)" width="3.15" xlink:href="#shape0"/>
  </g>
  <defs>
    <g id="shape0" transform="matrix(1.0, 0.0, 0.0, 1.0, 0.0, 0.0)">
      <path d="M3.1 2.1 Q3.1 2.4 2.8 2.5 L2.55 2.6 2.6 2.7 2.6 2.8 Q2.9 2.95 3.05 3.25 3.15 3.4 3.15 3.6 3.15 3.95 2.75 4.2 L2.65 4.2 2.4 3.9 Q2.4 4.1 2.15 4.25 1.95 4.4 1.7 4.4 L1.55 4.35 1.5 4.1 1.5 3.7 1.4 3.4 1.4 3.3 1.25 3.15 Q1.2 3.05 1.1 2.55 1.0 2.15 0.9 1.9 0.75 1.75 0.45 1.65 L0.3 1.65 Q0.05 1.7 0.0 1.65 0.0 1.55 0.05 1.35 0.15 1.05 0.3 1.05 0.55 0.7 0.95 0.95 L1.3 1.2 1.3 1.15 Q1.15 0.95 0.75 0.7 L0.35 0.5 Q0.3 0.4 0.35 0.35 0.35 0.25 0.5 0.15 0.6 0.1 0.7 0.05 1.05 -0.05 1.2 0.1 1.35 0.15 1.55 0.35 L1.95 0.8 2.75 1.55 Q2.95 1.55 3.0 1.75 3.1 1.9 3.1 2.1 M1.8 1.4 L1.85 1.5 2.05 1.95 Q2.1 1.95 2.25 2.05 L2.45 2.05 Q2.55 2.0 2.5 1.85 L2.5 1.65 1.9 1.1 Q1.25 0.55 1.2 0.45 L1.15 0.25 1.15 0.2 Q1.1 0.15 1.0 0.1 L0.95 0.1 Q0.8 0.1 0.6 0.2 L0.55 0.4 0.6 0.4 Q0.95 0.5 1.15 0.65 L1.25 0.75 1.3 0.85 1.5 1.05 1.8 1.4 M1.75 1.6 L1.7 1.5 1.65 1.45 Q1.55 1.4 1.45 1.4 L1.4 1.4 1.35 1.45 Q1.3 1.45 1.3 1.5 L1.3 1.55 1.45 1.6 Q1.7 1.75 1.9 1.85 L1.85 1.75 1.75 1.6 M0.45 1.2 Q0.35 1.25 0.3 1.35 L0.45 1.4 0.8 1.55 0.9 1.6 1.05 1.7 1.1 1.6 Q1.1 1.55 1.15 1.5 1.15 1.45 1.15 1.4 L1.0 1.25 Q1.0 1.2 0.95 1.2 0.7 1.05 0.5 1.2 0.5 1.15 0.45 1.2 M1.15 1.75 L1.2 1.85 Q1.3 2.0 1.45 2.05 L1.65 2.15 1.8 2.2 2.2 2.3 2.2 2.15 2.05 2.1 1.95 2.0 1.7 1.85 1.2 1.6 1.2 1.7 1.15 1.75 M1.25 2.0 L1.15 1.95 Q1.25 2.15 1.35 2.4 L1.35 2.45 1.4 2.65 1.5 3.1 1.55 3.15 1.6 3.15 1.7 3.2 1.85 3.1 Q1.9 3.05 1.85 2.8 L1.8 2.8 1.75 2.6 1.55 2.3 1.45 2.2 1.3 2.1 1.25 2.0 M2.65 1.9 Q2.6 2.1 2.5 2.15 L2.3 2.2 2.3 2.3 Q2.35 2.35 2.4 2.4 L2.45 2.4 2.5 2.35 2.6 2.3 2.8 2.15 2.9 1.95 2.85 1.9 Q2.8 1.8 2.75 1.8 2.7 1.8 2.7 1.85 L2.65 1.85 2.65 1.9 M1.7 2.35 L1.85 2.6 1.9 2.7 1.95 2.75 1.95 2.8 2.1 2.95 2.25 2.9 Q2.35 2.8 2.3 2.7 L2.3 2.65 2.1 2.45 1.95 2.35 1.65 2.25 1.7 2.35 M1.65 3.3 L1.7 3.45 1.7 3.65 Q1.75 4.05 1.75 4.15 L1.85 4.15 2.0 4.1 Q2.25 3.95 2.1 3.55 L2.05 3.45 1.95 3.3 1.9 3.2 1.85 3.25 1.8 3.25 1.65 3.3 M2.25 3.05 L2.2 3.1 2.2 3.15 2.45 3.5 2.6 3.8 2.7 3.85 Q2.65 3.9 2.7 3.85 2.8 3.85 2.85 3.75 L2.85 3.55 2.8 3.35 2.7 3.15 Q2.6 3.1 2.5 3.05 L2.45 3.05 2.3 2.95 2.3 3.0 2.25 3.05" fill="#111111" fill-rule="evenodd" stroke="none"/>
      <path d="M2.25 3.05 L2.3 3.0 2.3 2.95 2.45 3.05 2.5 3.05 Q2.6 3.1 2.7 3.15 L2.8 3.35 2.85 3.55 2.85 3.75 Q2.8 3.85 2.7 3.85 2.65 3.9 2.7 3.85 L2.6 3.8 2.45 3.5 2.2 3.15 2.2 3.1 2.25 3.05 M1.65 3.3 L1.8 3.25 1.85 3.25 1.9 3.2 1.95 3.3 2.05 3.45 2.1 3.55 Q2.25 3.95 2.0 4.1 L1.85 4.15 1.75 4.15 Q1.75 4.05 1.7 3.65 L1.7 3.45 1.65 3.3 M1.7 2.35 L1.65 2.25 1.95 2.35 2.1 2.45 2.3 2.65 2.3 2.7 Q2.35 2.8 2.25 2.9 L2.1 2.95 1.95 2.8 1.95 2.75 1.9 2.7 1.85 2.6 1.7 2.35 M2.65 1.9 L2.65 1.85 2.7 1.85 Q2.7 1.8 2.75 1.8 2.8 1.8 2.85 1.9 L2.9 1.95 2.8 2.15 2.6 2.3 2.5 2.35 2.45 2.4 2.4 2.4 Q2.35 2.35 2.3 2.3 L2.3 2.2 2.5 2.15 Q2.6 2.1 2.65 1.9 M1.25 2.0 L1.3 2.1 1.45 2.2 1.55 2.3 1.75 2.6 1.8 2.8 1.85 2.8 Q1.9 3.05 1.85 3.1 L1.7 3.2 1.6 3.15 1.55 3.15 1.5 3.1 1.4 2.65 1.35 2.45 1.35 2.4 Q1.25 2.15 1.15 1.95 L1.25 2.0 M1.15 1.75 L1.2 1.7 1.2 1.6 1.7 1.85 1.95 2.0 2.05 2.1 2.2 2.15 2.2 2.3 1.8 2.2 1.65 2.15 1.45 2.05 Q1.3 2.0 1.2 1.85 L1.15 1.75 M0.45 1.2 Q0.5 1.15 0.5 1.2 0.7 1.05 0.95 1.2 1.0 1.2 1.0 1.25 L1.15 1.4 Q1.15 1.45 1.15 1.5 1.1 1.55 1.1 1.6 L1.05 1.7 0.9 1.6 0.8 1.55 0.45 1.4 0.3 1.35 Q0.35 1.25 0.45 1.2 M1.75 1.6 L1.85 1.75 1.9 1.85 Q1.7 1.75 1.45 1.6 L1.3 1.55 1.3 1.5 Q1.3 1.45 1.35 1.45 L1.4 1.4 1.45 1.4 Q1.55 1.4 1.65 1.45 L1.7 1.5 1.75 1.6 M1.8 1.4 L1.5 1.05 1.3 0.85 1.25 0.75 1.15 0.65 Q0.95 0.5 0.6 0.4 L0.55 0.4 0.6 0.2 Q0.8 0.1 0.95 0.1 L1.0 0.1 Q1.1 0.15 1.15 0.2 L1.15 0.25 1.2 0.45 Q1.25 0.55 1.9 1.1 L2.5 1.65 2.5 1.85 Q2.55 2.0 2.45 2.05 L2.25 2.05 Q2.1 1.95 2.05 1.95 L1.85 1.5 1.8 1.4" fill="#faffd2" fill-rule="evenodd" stroke="none"/>
    </g>
  </defs>
</svg>
