<?xml version="1.0" encoding="UTF-8" standalone="no"?>
<svg xmlns:ffdec="https://www.free-decompiler.com/flash" xmlns:xlink="http://www.w3.org/1999/xlink" ffdec:objectType="frame" height="250.4px" width="505.25px" xmlns="http://www.w3.org/2000/svg">
  <g transform="matrix(1.0, 0.0, 0.0, 1.0, 187.6, 259.75)">
    <use ffdec:characterId="843" height="32.65" transform="matrix(4.9814, 0.0, 0.0, 4.3481, -129.1, -216.85)" width="41.85" xlink:href="#shape0"/>
    <use ffdec:characterId="847" height="17.9" transform="matrix(7.0, 0.0, 0.0, 7.0, -106.4, -165.55)" width="24.15" xlink:href="#shape1"/>
  </g>
  <defs>
    <g id="shape0" transform="matrix(1.0, 0.0, 0.0, 1.0, 0.0, 0.0)">
      <path d="M29.15 9.95 Q32.5 12.6 32.5 16.35 32.5 20.1 29.15 22.7 25.75 25.35 20.95 25.35 16.1 25.35 12.75 22.7 9.35 20.1 9.35 16.35 9.35 12.6 12.75 9.95 16.1 7.3 20.95 7.3 25.75 7.3 29.15 9.95" fill="#7fffff" fill-opacity="0.2509804" fill-rule="evenodd" stroke="none"/>
      <path d="M31.35 8.2 Q35.65 11.6 35.65 16.35 35.65 21.05 31.35 24.45 27.0 27.8 20.95 27.8 14.85 27.8 10.55 24.45 6.25 21.05 6.25 16.35 6.25 11.6 10.55 8.2 14.85 4.85 20.95 4.85 27.0 4.85 31.35 8.2 M29.15 9.95 Q25.75 7.3 20.95 7.3 16.1 7.3 12.75 9.95 9.35 12.6 9.35 16.35 9.35 20.1 12.75 22.7 16.1 25.35 20.95 25.35 25.75 25.35 29.15 22.7 32.5 20.1 32.5 16.35 32.5 12.6 29.15 9.95" fill="#7fffff" fill-opacity="0.1882353" fill-rule="evenodd" stroke="none"/>
      <path d="M33.55 6.5 Q38.75 10.55 38.75 16.35 38.75 22.1 33.55 26.15 28.3 30.25 20.95 30.25 13.55 30.25 8.35 26.15 3.1 22.1 3.1 16.35 3.1 10.55 8.35 6.5 13.55 2.45 20.95 2.45 28.3 2.45 33.55 6.5 M31.35 8.2 Q27.0 4.85 20.95 4.85 14.85 4.85 10.55 8.2 6.25 11.6 6.25 16.35 6.25 21.05 10.55 24.45 14.85 27.8 20.95 27.8 27.0 27.8 31.35 24.45 35.65 21.05 35.65 16.35 35.65 11.6 31.35 8.2" fill="#7fffff" fill-opacity="0.1254902" fill-rule="evenodd" stroke="none"/>
      <path d="M35.75 4.8 Q41.85 9.55 41.85 16.35 41.85 23.1 35.75 27.9 29.6 32.65 20.95 32.65 12.25 32.65 6.15 27.9 0.0 23.1 0.0 16.35 0.0 9.55 6.15 4.8 12.25 0.0 20.95 0.0 29.6 0.0 35.75 4.8 M33.55 6.5 Q28.3 2.45 20.95 2.45 13.55 2.45 8.35 6.5 3.1 10.55 3.1 16.35 3.1 22.1 8.35 26.15 13.55 30.25 20.95 30.25 28.3 30.25 33.55 26.15 38.75 22.1 38.75 16.35 38.75 10.55 33.55 6.5" fill="#7fffff" fill-opacity="0.0627451" fill-rule="evenodd" stroke="none"/>
    </g>
    <g id="shape1" transform="matrix(1.0, 0.0, 0.0, 1.0, 15.2, 23.65)">
      <path d="M1.85 -14.9 Q2.1 -15.45 2.35 -15.4 2.7 -15.4 3.35 -15.75 L3.9 -15.75 3.9 -15.7 Q3.95 -15.65 3.9 -15.55 L3.9 -15.35 4.05 -15.15 4.2 -15.15 4.5 -15.2 4.8 -15.4 4.85 -15.5 5.1 -15.9 5.1 -15.95 5.15 -16.0 5.2 -16.5 Q5.2 -16.7 5.15 -16.8 5.05 -17.0 4.75 -17.0 L4.5 -16.95 4.45 -16.95 4.0 -16.55 3.95 -16.5 3.85 -16.5 3.85 -16.6 Q3.85 -16.7 3.95 -16.85 L4.0 -17.1 4.0 -17.15 4.05 -17.2 4.4 -17.2 4.55 -17.3 4.55 -17.35 4.7 -17.45 4.75 -17.5 4.8 -17.45 Q4.9 -17.4 5.1 -17.35 L5.35 -17.35 5.55 -17.3 5.6 -17.3 5.7 -17.15 5.75 -17.0 5.8 -16.95 Q5.85 -16.95 5.85 -16.8 5.85 -16.7 5.7 -16.3 L5.55 -15.85 Q5.5 -15.6 5.3 -15.45 L5.0 -15.15 4.9 -15.1 Q4.45 -14.75 4.15 -14.85 L3.95 -14.85 3.95 -14.9 3.7 -15.15 3.7 -15.2 3.55 -15.35 Q3.35 -15.3 2.8 -15.0 L2.85 -15.0 2.3 -14.65 Q2.1 -14.5 2.0 -14.25 1.95 -14.1 1.95 -13.95 2.0 -13.75 2.2 -13.5 L2.65 -13.0 2.8 -12.9 2.9 -12.85 3.0 -13.0 3.05 -13.1 3.05 -13.15 2.95 -13.25 2.95 -13.3 3.0 -13.3 3.05 -13.35 3.1 -13.35 Q3.5 -13.1 3.95 -12.75 4.3 -12.45 4.45 -12.2 L4.55 -12.15 Q4.7 -12.0 4.7 -11.9 L4.6 -11.55 4.5 -11.25 4.5 -11.0 4.55 -10.15 4.65 -9.8 4.75 -9.5 Q4.75 -9.4 4.4 -8.8 4.05 -8.1 3.9 -8.15 L3.5 -8.3 Q3.15 -8.3 3.1 -8.35 L3.1 -8.5 Q2.95 -8.65 2.9 -8.9 2.8 -9.2 2.55 -9.35 L2.3 -9.45 2.25 -9.45 Q1.55 -9.45 1.35 -9.15 1.3 -9.1 1.3 -8.8 1.25 -8.45 1.2 -8.4 1.05 -8.1 0.4 -8.0 L0.35 -8.0 0.15 -8.15 0.1 -8.2 0.1 -8.3 0.15 -8.45 Q0.2 -8.55 0.35 -8.45 L0.4 -8.4 0.4 -8.3 0.6 -8.3 Q0.75 -8.3 0.85 -8.4 L0.9 -8.6 0.9 -8.55 1.0 -8.75 0.9 -9.0 Q0.75 -9.2 0.75 -9.3 0.75 -9.45 1.2 -9.8 1.75 -10.2 2.15 -10.05 L2.2 -10.0 2.15 -9.95 Q2.1 -9.85 2.15 -9.8 2.2 -9.75 2.3 -9.7 L2.6 -9.65 Q2.75 -9.65 2.9 -9.55 3.2 -9.4 3.2 -9.2 L3.25 -9.1 3.3 -8.85 3.35 -8.85 3.65 -8.7 Q4.05 -8.9 4.2 -9.35 L4.2 -10.8 Q4.2 -10.9 4.25 -11.25 L4.25 -11.3 4.3 -11.35 4.4 -11.8 4.3 -11.9 4.1 -12.2 3.9 -12.4 3.65 -12.6 3.55 -12.6 3.45 -12.45 Q3.35 -12.3 3.2 -12.3 2.8 -12.3 2.25 -12.95 1.75 -13.5 1.75 -13.75 1.65 -14.0 1.65 -14.2 1.65 -14.45 1.85 -14.9 M4.05 -15.05 L4.05 -15.0 4.1 -15.05 4.05 -15.05 M6.45 -9.5 Q6.45 -9.4 6.55 -9.35 L6.8 -9.4 6.85 -9.45 7.0 -9.45 Q7.0 -9.5 7.05 -9.5 L7.1 -9.45 7.1 -9.35 Q7.15 -9.25 7.0 -8.95 L6.85 -8.7 6.9 -8.65 6.9 -8.55 Q6.9 -8.25 6.35 -8.0 L5.75 -7.7 5.7 -7.65 5.55 -7.7 5.5 -7.75 5.45 -7.75 5.3 -7.8 5.25 -7.8 Q5.0 -7.75 4.9 -7.65 L4.9 -7.6 4.75 -7.6 Q4.7 -7.65 4.7 -7.75 4.65 -8.0 5.1 -8.0 L5.3 -8.0 5.35 -8.05 5.55 -8.0 Q5.85 -8.1 6.2 -8.35 L6.6 -8.6 6.65 -8.8 6.8 -9.15 6.4 -9.15 6.35 -9.2 6.3 -9.35 6.3 -9.4 6.25 -9.4 6.15 -9.35 Q6.1 -9.35 6.05 -9.4 6.05 -9.45 6.05 -9.5 6.05 -9.6 6.2 -9.7 L6.4 -9.75 6.45 -9.7 6.45 -9.5 M-2.5 -12.8 L-2.45 -12.75 -2.45 -12.65 Q-2.55 -12.55 -2.8 -12.35 L-3.05 -12.05 -3.15 -12.05 -3.2 -12.1 -3.2 -12.2 Q-3.15 -12.35 -2.9 -12.55 -2.65 -12.75 -2.55 -12.8 L-2.5 -12.8 M-7.3 -11.4 Q-7.15 -11.25 -7.1 -11.1 L-6.75 -10.55 -6.6 -10.6 -6.6 -10.65 -6.55 -10.75 Q-6.5 -10.75 -6.45 -10.7 L-6.35 -10.6 Q-6.3 -10.55 -6.3 -10.45 L-6.3 -10.35 -6.35 -10.35 -6.45 -10.4 -6.5 -10.35 -6.85 -10.35 -6.85 -10.4 -7.1 -10.7 -7.15 -10.7 -7.25 -10.95 -7.4 -11.2 -7.5 -11.35 Q-7.95 -11.35 -8.3 -11.0 -8.65 -10.65 -8.65 -10.35 L-8.5 -10.2 Q-8.5 -10.1 -8.5 -10.0 L-8.35 -9.8 -8.0 -9.3 Q-7.95 -9.35 -7.85 -9.4 L-7.6 -9.6 -7.5 -9.6 -7.5 -9.55 Q-7.5 -9.45 -7.7 -9.25 -7.9 -9.1 -8.0 -9.1 -8.25 -9.1 -8.55 -9.65 L-8.65 -9.95 -8.65 -10.0 -8.7 -10.05 -8.75 -10.15 Q-8.85 -10.25 -8.8 -10.35 -8.8 -10.7 -8.6 -10.95 -8.35 -11.25 -7.75 -11.45 -7.5 -11.55 -7.3 -11.4 M-7.25 -9.4 L-7.25 -9.45 -7.3 -9.5 Q-7.3 -9.55 -7.2 -9.55 L-7.2 -9.6 Q-6.95 -9.6 -6.75 -9.2 -6.5 -8.8 -6.5 -8.7 L-6.5 -8.2 Q-6.5 -7.95 -6.4 -7.8 L-6.4 -7.7 Q-6.4 -7.55 -6.6 -7.4 L-6.95 -7.05 -7.15 -7.05 -7.2 -7.1 -7.2 -7.15 -7.15 -7.2 -6.75 -7.5 Q-6.55 -7.7 -6.65 -7.8 L-6.65 -8.15 Q-6.75 -8.3 -6.7 -8.45 L-6.7 -8.65 -6.8 -8.85 -6.95 -9.1 Q-7.05 -9.35 -7.25 -9.4 M-7.25 -7.1 L-7.2 -7.1 -7.2 -7.0 -7.55 -6.75 Q-7.6 -6.65 -7.6 -6.55 L-7.5 -6.35 -7.5 -6.3 -7.6 -6.2 -7.7 -6.2 -7.7 -6.25 -7.75 -6.3 -7.75 -6.55 Q-7.75 -6.85 -7.7 -6.9 -7.65 -7.0 -7.3 -7.1 L-7.25 -7.1 M-7.0 -6.25 L-6.95 -6.25 -6.85 -6.1 -6.65 -6.0 -6.65 -5.85 Q-6.7 -5.75 -6.85 -5.75 L-6.9 -5.75 -7.1 -6.1 -7.45 -6.1 -7.45 -6.25 -7.05 -6.3 -7.0 -6.25" fill="#00ffff" fill-opacity="0.5019608" fill-rule="evenodd" stroke="none"/>
      <path d="M1.95 -14.85 Q2.15 -15.35 2.35 -15.35 2.7 -15.35 3.4 -15.7 L3.85 -15.7 3.85 -15.55 3.8 -15.4 Q3.8 -15.35 3.85 -15.35 L3.85 -15.3 4.0 -15.1 4.1 -15.1 4.2 -15.05 4.55 -15.15 Q4.7 -15.2 4.85 -15.35 L4.9 -15.45 Q5.05 -15.65 5.15 -15.9 L5.2 -15.95 5.2 -16.0 5.25 -16.5 Q5.25 -16.7 5.2 -16.85 5.1 -17.05 4.75 -17.05 L4.45 -17.05 4.4 -17.0 3.95 -16.6 3.9 -16.55 3.9 -16.6 Q3.9 -16.7 4.05 -16.8 L4.05 -17.1 4.45 -17.15 4.65 -17.3 4.6 -17.3 4.75 -17.4 Q4.9 -17.35 5.1 -17.3 L5.35 -17.3 5.55 -17.25 5.65 -17.1 5.7 -16.95 5.75 -16.9 5.75 -16.85 5.8 -16.8 Q5.8 -16.7 5.65 -16.35 L5.5 -15.85 Q5.45 -15.65 5.2 -15.5 L4.95 -15.25 4.95 -15.2 4.85 -15.15 Q4.45 -14.85 4.2 -14.95 L4.1 -14.95 4.0 -14.9 3.75 -15.2 Q3.7 -15.3 3.7 -15.35 L3.55 -15.4 Q3.35 -15.4 2.8 -15.05 L2.25 -14.7 Q2.05 -14.55 1.95 -14.25 1.9 -14.1 1.85 -13.95 1.95 -13.75 2.15 -13.45 L2.6 -12.95 2.8 -12.8 2.9 -12.8 3.05 -12.95 3.15 -13.1 Q3.15 -13.2 3.1 -13.2 L3.05 -13.25 Q3.45 -13.05 3.9 -12.7 4.25 -12.4 4.4 -12.15 L4.5 -12.1 Q4.6 -11.95 4.6 -11.9 L4.55 -11.55 4.45 -11.25 4.4 -11.15 4.4 -11.0 4.5 -10.15 4.6 -9.8 4.65 -9.5 Q4.65 -9.4 4.35 -8.8 4.0 -8.2 3.9 -8.2 3.6 -8.35 3.5 -8.35 L3.15 -8.4 3.15 -8.5 Q3.05 -8.65 2.95 -8.95 2.85 -9.25 2.6 -9.4 L2.3 -9.55 2.25 -9.55 Q1.5 -9.55 1.3 -9.2 1.25 -9.15 1.2 -8.8 1.2 -8.5 1.15 -8.4 1.0 -8.15 0.4 -8.05 L0.2 -8.2 0.2 -8.4 0.35 -8.4 0.35 -8.2 0.6 -8.2 Q0.8 -8.25 0.9 -8.35 0.9 -8.4 1.0 -8.55 L1.05 -8.75 Q1.05 -8.85 0.95 -9.05 0.8 -9.2 0.8 -9.3 0.8 -9.45 1.25 -9.75 1.75 -10.1 2.1 -10.0 1.95 -9.75 2.25 -9.6 L2.3 -9.6 2.6 -9.55 Q2.75 -9.55 2.85 -9.45 3.15 -9.35 3.15 -9.2 L3.15 -9.05 3.25 -8.8 3.3 -8.8 3.65 -8.6 Q4.1 -8.85 4.25 -9.3 4.3 -9.45 4.3 -10.15 L4.25 -10.5 4.25 -10.8 Q4.25 -10.9 4.3 -11.25 L4.35 -11.3 4.35 -11.35 4.45 -11.8 4.45 -11.85 4.35 -11.95 4.15 -12.25 3.9 -12.45 Q3.7 -12.6 3.65 -12.65 L3.5 -12.65 3.4 -12.5 Q3.3 -12.4 3.2 -12.4 2.85 -12.4 2.3 -13.0 1.8 -13.55 1.8 -13.8 1.7 -14.0 1.7 -14.2 1.7 -14.45 1.95 -14.85 M4.05 -15.05 L4.05 -15.0 4.1 -15.05 4.05 -15.05 M6.35 -9.5 L6.3 -9.5 6.2 -9.45 6.15 -9.45 Q6.1 -9.4 6.1 -9.5 6.1 -9.6 6.2 -9.65 L6.4 -9.65 6.4 -9.5 Q6.4 -9.35 6.5 -9.3 L6.8 -9.35 6.9 -9.4 7.0 -9.4 Q7.05 -9.45 7.05 -9.35 L6.9 -9.0 6.8 -8.65 6.75 -8.55 6.8 -8.6 6.85 -8.55 Q6.85 -8.3 6.3 -8.05 L5.7 -7.75 5.6 -7.75 5.6 -7.8 5.45 -7.85 5.25 -7.85 Q4.9 -7.8 4.85 -7.65 L4.75 -7.7 4.75 -7.75 Q4.75 -7.9 5.1 -7.95 L5.55 -7.95 Q5.9 -8.0 6.25 -8.25 L6.65 -8.6 6.7 -8.8 Q6.8 -9.05 6.9 -9.2 L6.5 -9.2 6.4 -9.25 6.35 -9.35 6.35 -9.5 M-2.85 -12.4 L-3.1 -12.1 -3.15 -12.1 -3.15 -12.15 Q-3.1 -12.3 -2.85 -12.5 L-2.5 -12.7 Q-2.6 -12.6 -2.85 -12.4 M-7.5 -11.4 Q-8.0 -11.4 -8.35 -11.05 -8.7 -10.7 -8.7 -10.35 L-8.6 -10.2 -8.6 -10.15 -8.55 -10.0 Q-8.55 -9.85 -8.45 -9.75 L-8.05 -9.25 Q-7.9 -9.25 -7.8 -9.35 L-7.55 -9.55 Q-7.6 -9.45 -7.75 -9.3 -7.9 -9.15 -8.0 -9.15 -8.2 -9.15 -8.45 -9.7 L-8.6 -10.0 -8.6 -10.1 -8.65 -10.15 Q-8.75 -10.3 -8.75 -10.35 -8.75 -10.7 -8.55 -10.9 -8.3 -11.2 -7.75 -11.4 -7.5 -11.5 -7.35 -11.35 -7.2 -11.2 -7.15 -11.05 L-6.8 -10.5 Q-6.6 -10.5 -6.55 -10.55 -6.55 -10.7 -6.5 -10.65 L-6.4 -10.55 -6.35 -10.45 -6.5 -10.5 -6.5 -10.45 -6.8 -10.45 -7.05 -10.75 -7.35 -11.25 Q-7.45 -11.4 -7.5 -11.4 M-7.2 -9.5 Q-6.95 -9.55 -6.8 -9.15 -6.6 -8.75 -6.6 -8.7 L-6.55 -8.2 Q-6.55 -7.95 -6.5 -7.8 L-6.5 -7.7 Q-6.5 -7.6 -6.65 -7.45 L-7.0 -7.1 -7.1 -7.15 -6.7 -7.45 Q-6.45 -7.7 -6.6 -7.85 L-6.55 -7.85 -6.6 -7.95 -6.6 -8.15 Q-6.65 -8.3 -6.65 -8.45 L-6.65 -8.65 Q-6.65 -8.7 -6.75 -8.85 L-6.9 -9.1 Q-6.95 -9.4 -7.2 -9.5 M-6.9 -6.05 L-6.7 -5.95 -6.7 -5.9 Q-6.75 -5.8 -6.85 -5.8 L-7.1 -6.15 -7.4 -6.15 -7.05 -6.2 -6.9 -6.05 M-7.55 -6.8 Q-7.65 -6.7 -7.65 -6.55 L-7.6 -6.4 -7.55 -6.35 -7.65 -6.3 -7.65 -6.35 -7.7 -6.55 Q-7.7 -6.8 -7.65 -6.85 -7.6 -6.95 -7.25 -7.05 -7.4 -6.9 -7.55 -6.8" fill="#ffffff" fill-rule="evenodd" stroke="none"/>
      <path d="M7.0 -22.85 L7.1 -22.8 Q7.5 -22.4 8.35 -21.95 8.95 -21.6 8.95 -21.2 8.95 -21.15 8.4 -20.4 L7.75 -19.6 7.45 -19.3 7.45 -19.15 7.35 -19.1 Q7.0 -19.0 6.7 -18.8 L6.1 -18.4 6.05 -18.4 Q5.85 -18.25 5.55 -18.15 L4.95 -17.85 Q4.95 -17.8 4.9 -17.8 L4.75 -17.75 4.5 -17.6 4.4 -17.6 4.2 -17.5 3.85 -17.25 3.9 -17.15 3.95 -16.9 3.95 -16.8 4.0 -16.7 4.0 -16.65 3.95 -16.55 3.8 -16.45 3.6 -16.45 Q3.4 -16.55 3.4 -16.65 3.4 -16.7 3.4 -16.75 L3.5 -16.85 Q3.5 -16.95 3.55 -17.0 L3.35 -17.2 3.35 -17.35 3.4 -17.4 4.05 -17.85 4.15 -17.9 4.05 -18.1 Q4.0 -18.35 3.85 -18.45 L3.25 -18.75 3.25 -18.8 Q2.85 -19.05 2.85 -19.3 2.85 -19.5 2.95 -19.6 L3.15 -19.65 3.2 -19.65 3.3 -19.6 3.3 -19.55 Q3.4 -19.45 3.45 -19.35 L3.95 -19.4 Q4.55 -19.4 5.05 -19.2 5.6 -19.05 5.75 -18.8 L5.85 -18.8 6.1 -18.85 6.15 -18.9 6.2 -18.9 6.3 -18.95 7.0 -19.5 Q7.7 -20.1 7.7 -20.5 L7.5 -20.75 Q7.45 -20.8 7.4 -20.8 L7.2 -20.95 6.75 -21.0 6.75 -20.95 Q6.65 -20.85 6.35 -20.85 L6.1 -21.0 5.9 -21.1 4.5 -21.05 3.3 -20.6 3.35 -20.55 Q3.35 -20.4 3.2 -20.3 L3.1 -20.3 2.9 -20.4 2.85 -20.45 2.85 -20.5 2.8 -20.6 2.8 -20.65 Q2.8 -20.8 2.9 -20.9 2.95 -20.95 3.0 -20.95 L3.8 -21.25 Q4.4 -21.5 4.75 -21.5 L5.5 -21.5 6.2 -21.4 6.3 -21.3 6.4 -21.3 6.4 -21.4 6.35 -21.55 6.05 -22.0 5.2 -22.2 4.45 -22.4 4.15 -22.5 3.8 -22.5 3.45 -22.55 3.05 -22.6 Q2.15 -22.65 1.7 -22.9 1.25 -23.15 1.1 -23.15 0.55 -22.85 -0.3 -22.15 -0.4 -22.0 -0.4 -21.9 L-0.3 -21.65 Q-0.1 -21.4 -0.1 -21.3 L-0.1 -21.1 -0.2 -21.0 -0.2 -20.95 -0.3 -20.9 -0.35 -20.85 -0.45 -20.85 -0.55 -20.95 -0.9 -21.25 Q-1.1 -21.5 -1.25 -21.55 L-1.3 -21.6 -1.3 -21.65 -1.35 -21.75 -1.35 -21.8 -1.3 -21.85 -0.5 -22.5 Q-0.15 -23.0 0.75 -23.6 L0.85 -23.65 1.25 -23.65 1.3 -23.6 Q1.45 -23.5 2.4 -23.25 L3.65 -23.0 4.25 -22.85 6.7 -22.85 6.75 -22.9 7.0 -22.85 M3.2 -19.35 L3.25 -19.4 3.2 -19.4 3.2 -19.35 M1.6 -19.55 Q1.75 -19.35 1.85 -19.25 1.95 -19.15 2.15 -19.1 L2.15 -19.05 2.3 -19.0 2.35 -18.95 2.4 -18.85 2.35 -18.8 2.1 -18.45 Q1.6 -17.8 1.45 -17.45 L1.35 -17.35 1.2 -17.3 0.75 -17.2 0.5 -17.1 Q0.05 -16.95 -0.7 -16.95 L-1.05 -17.05 -1.1 -17.05 -1.8 -17.2 -2.1 -17.3 -2.3 -17.35 Q-2.8 -17.4 -3.0 -17.5 -3.15 -17.6 -3.15 -17.8 L-3.15 -18.15 Q-3.15 -18.25 -3.05 -18.5 -2.9 -18.7 -2.8 -18.8 L-2.75 -18.8 Q-2.55 -18.9 -1.8 -19.05 L-1.75 -19.05 -1.95 -19.3 Q-2.35 -19.6 -3.2 -19.6 -3.25 -19.6 -3.25 -19.65 L-3.45 -19.8 -3.7 -19.75 -3.75 -19.75 -3.95 -19.7 -4.05 -19.7 -4.1 -19.75 Q-4.4 -20.0 -4.7 -20.6 L-4.8 -20.75 Q-5.45 -21.25 -5.65 -21.65 L-5.95 -21.55 -6.05 -21.5 Q-6.25 -21.3 -6.25 -21.1 L-6.15 -21.05 Q-5.85 -20.95 -5.6 -20.55 L-5.55 -20.45 Q-5.55 -20.35 -5.7 -20.2 L-5.8 -20.15 -5.85 -20.15 -5.95 -20.2 -6.0 -20.3 Q-6.05 -20.45 -6.25 -20.6 -6.65 -20.85 -6.6 -21.1 -6.6 -21.3 -6.55 -21.5 L-6.55 -21.55 -6.5 -21.65 -6.35 -21.75 -6.35 -21.8 Q-6.25 -21.9 -5.75 -22.3 L-5.65 -22.35 -5.5 -22.35 -5.2 -22.45 -4.4 -22.5 -4.3 -22.45 Q-4.1 -22.3 -3.6 -21.45 -3.25 -20.85 -2.75 -20.7 L-2.65 -20.6 -1.9 -20.25 Q-1.15 -19.9 -1.2 -19.4 -1.2 -19.0 -1.3 -18.85 -1.25 -18.6 -1.2 -18.4 L-1.2 -18.3 Q-1.2 -18.25 -1.25 -18.2 L-1.35 -18.15 Q-1.45 -18.15 -1.6 -18.25 L-1.75 -18.3 Q-1.95 -18.3 -2.2 -18.1 L-2.4 -17.9 -2.35 -17.85 -2.3 -17.75 -1.4 -17.55 -0.95 -17.5 -0.4 -17.5 -0.05 -17.6 0.55 -18.15 Q1.35 -18.9 1.4 -19.05 L1.35 -19.15 1.3 -19.3 1.25 -19.35 1.25 -19.4 1.3 -19.45 1.35 -19.55 1.4 -19.55 1.45 -19.6 1.55 -19.6 1.6 -19.55 M-4.9 -22.1 L-4.15 -21.5 -4.0 -21.4 Q-4.35 -21.95 -4.5 -22.1 L-4.9 -22.1 M-11.15 -20.75 L-11.1 -20.75 -11.0 -20.7 -10.95 -20.6 -10.95 -20.5 -10.7 -20.1 -10.65 -20.05 -10.7 -19.95 -10.75 -19.9 -10.9 -19.85 Q-10.95 -19.7 -11.0 -19.55 -11.05 -19.25 -11.0 -19.0 L-11.0 -18.95 -10.5 -18.45 -10.45 -18.45 -10.1 -18.2 -10.15 -18.25 Q-9.45 -17.9 -8.05 -17.65 L-6.1 -17.65 Q-5.8 -17.7 -5.55 -17.8 -5.25 -17.95 -5.25 -18.05 L-5.3 -18.25 -5.35 -18.25 -5.45 -18.3 -5.5 -18.45 -5.65 -18.6 -5.65 -18.8 -5.55 -18.9 -5.3 -18.9 Q-5.15 -18.85 -5.15 -18.75 -5.0 -18.65 -4.95 -18.5 L-4.75 -18.5 -4.65 -18.45 Q-4.55 -18.4 -4.55 -18.2 -4.55 -18.15 -4.75 -17.7 L-4.9 -17.35 Q-4.9 -17.3 -4.95 -17.25 -5.0 -17.25 -5.05 -17.25 L-5.85 -17.25 -7.5 -17.3 -7.45 -17.25 -7.55 -17.25 -7.8 -17.2 Q-8.7 -17.2 -9.7 -17.6 -10.4 -17.85 -10.65 -18.05 L-10.85 -18.2 Q-11.2 -18.4 -11.3 -18.7 L-11.75 -19.15 Q-12.15 -19.6 -12.3 -20.5 L-12.35 -20.75 Q-13.2 -20.8 -13.8 -20.6 -14.2 -20.4 -14.6 -20.05 L-14.45 -19.95 -14.45 -19.9 Q-14.3 -20.0 -14.15 -20.0 L-14.05 -20.0 -13.95 -19.95 -13.95 -19.85 -14.05 -19.75 Q-14.15 -19.7 -14.2 -19.55 L-14.25 -19.5 Q-14.2 -19.45 -14.25 -19.35 L-14.3 -19.3 Q-14.35 -19.25 -14.4 -19.25 L-14.55 -19.25 -14.65 -19.35 -14.7 -19.5 -14.75 -19.6 -14.9 -19.8 -15.0 -19.75 Q-15.1 -19.7 -15.15 -19.85 L-15.15 -19.9 -15.2 -19.95 Q-15.3 -20.2 -14.85 -20.65 L-14.8 -20.65 -14.2 -21.2 -13.65 -21.75 Q-13.35 -21.95 -12.4 -21.95 L-12.35 -21.95 -12.3 -21.9 Q-12.15 -21.65 -12.0 -21.05 L-11.7 -21.0 -11.3 -20.85 -11.2 -20.8 -11.15 -20.75 M-5.3 -18.5 L-5.25 -18.5 -5.3 -18.55 -5.3 -18.5 M-14.3 -18.6 L-14.3 -18.5 Q-14.3 -18.45 -14.5 -18.2 L-14.7 -17.9 Q-14.45 -17.85 -14.3 -17.75 L-14.1 -17.55 -14.0 -17.55 -13.45 -17.95 Q-13.55 -18.05 -13.55 -18.1 L-13.55 -18.15 -13.45 -18.25 -13.35 -18.3 -13.1 -18.35 -12.85 -18.35 Q-12.8 -18.35 -12.8 -18.3 L-12.75 -18.25 -12.75 -18.15 Q-12.8 -18.0 -13.15 -17.7 L-13.8 -17.2 Q-13.85 -17.15 -13.9 -17.15 L-14.25 -17.15 Q-14.3 -17.2 -14.35 -17.2 L-14.5 -17.4 -14.6 -17.5 -15.0 -17.55 Q-15.05 -17.55 -15.1 -17.6 L-15.15 -17.65 -15.15 -17.75 -14.95 -18.3 Q-14.9 -18.6 -14.6 -18.7 L-14.55 -18.7 -14.55 -18.75 Q-14.45 -18.8 -14.35 -18.7 L-14.3 -18.6" fill="#00ffff" fill-opacity="0.5019608" fill-rule="evenodd" stroke="none"/>
      <path d="M7.0 -22.7 Q7.45 -22.3 8.25 -21.8 8.8 -21.5 8.8 -21.2 8.8 -21.15 8.3 -20.5 L7.65 -19.7 7.35 -19.45 Q7.3 -19.3 7.3 -19.25 6.95 -19.15 6.6 -18.9 6.2 -18.6 6.05 -18.5 L6.0 -18.5 Q5.8 -18.4 5.5 -18.25 L4.85 -17.95 4.7 -17.9 4.45 -17.75 4.4 -17.75 4.1 -17.6 Q3.85 -17.45 3.65 -17.25 L3.75 -17.1 3.8 -16.9 3.8 -16.8 3.85 -16.65 Q3.85 -16.6 3.75 -16.6 L3.65 -16.6 3.55 -16.65 3.7 -16.8 3.65 -16.9 3.7 -17.0 3.45 -17.3 4.15 -17.7 4.35 -17.8 Q4.25 -17.95 4.2 -18.15 4.1 -18.45 3.95 -18.55 L3.3 -18.9 Q3.0 -19.1 3.0 -19.3 3.0 -19.45 3.05 -19.45 L3.15 -19.5 3.15 -19.45 Q3.35 -19.4 3.35 -19.2 L3.95 -19.25 Q4.5 -19.25 5.0 -19.05 5.55 -18.9 5.7 -18.6 L5.85 -18.65 Q6.0 -18.65 6.2 -18.75 L6.4 -18.85 7.1 -19.4 Q7.85 -20.05 7.85 -20.5 7.85 -20.65 7.6 -20.85 L7.5 -20.95 7.5 -20.9 7.25 -21.1 6.65 -21.15 6.65 -21.05 Q6.55 -21.0 6.35 -21.0 L6.15 -21.1 Q5.95 -21.25 5.9 -21.25 L4.45 -21.2 Q4.0 -21.0 3.2 -20.7 L3.15 -20.6 Q3.15 -20.55 3.2 -20.55 L3.15 -20.45 2.95 -20.5 2.95 -20.65 Q2.95 -20.75 3.0 -20.8 3.2 -20.85 3.85 -21.15 4.45 -21.35 4.75 -21.35 L5.45 -21.35 6.15 -21.25 6.15 -21.2 Q6.15 -21.15 6.25 -21.15 L6.4 -21.15 6.55 -21.2 6.55 -21.45 6.45 -21.65 6.15 -22.1 Q5.85 -22.2 5.2 -22.35 L4.5 -22.55 4.15 -22.6 3.85 -22.65 3.45 -22.65 3.05 -22.7 Q2.2 -22.8 1.75 -23.05 1.3 -23.3 1.1 -23.3 L1.1 -23.35 Q0.5 -23.0 -0.4 -22.25 -0.55 -22.05 -0.55 -21.9 L-0.25 -21.3 -0.25 -21.15 -0.3 -21.1 -0.35 -21.0 -0.4 -21.0 Q-0.55 -21.1 -0.8 -21.35 -1.05 -21.6 -1.2 -21.65 L-1.2 -21.75 -0.4 -22.4 Q-0.1 -22.85 0.85 -23.5 L1.25 -23.5 Q1.4 -23.4 2.4 -23.1 L3.6 -22.85 4.25 -22.7 5.85 -22.7 6.75 -22.75 7.0 -22.7 M1.2 -23.4 L1.0 -23.45 1.1 -23.4 1.2 -23.4 M3.1 -19.35 L3.15 -19.3 3.1 -19.4 3.1 -19.35 M1.4 -19.4 L1.5 -19.4 1.5 -19.45 Q1.65 -19.25 1.75 -19.15 1.9 -19.0 2.1 -18.95 2.15 -18.9 2.25 -18.9 L1.95 -18.55 Q1.45 -17.85 1.3 -17.5 L1.15 -17.45 Q0.45 -17.3 0.3 -17.2 L0.15 -17.25 -0.15 -17.15 -0.35 -17.15 -0.4 -17.2 -0.45 -17.2 -0.65 -17.25 -0.6 -17.25 -1.5 -17.3 Q-1.6 -17.3 -1.8 -17.45 -1.95 -17.55 -2.35 -17.55 L-2.45 -17.5 -2.55 -17.6 -2.8 -17.6 -2.8 -17.8 -2.95 -17.85 -2.95 -18.25 Q-2.9 -18.3 -2.8 -18.45 -2.7 -18.6 -2.7 -18.65 -2.55 -18.75 -1.8 -18.9 -1.65 -18.9 -1.55 -19.0 -1.65 -19.25 -1.85 -19.4 -2.3 -19.75 -3.2 -19.75 L-3.4 -19.95 -3.75 -19.9 -4.0 -19.85 Q-4.3 -20.1 -4.6 -20.7 L-4.65 -20.85 Q-5.4 -21.4 -5.55 -21.8 -5.7 -21.8 -6.0 -21.7 L-6.15 -21.6 Q-6.4 -21.35 -6.4 -21.1 -6.4 -21.0 -6.2 -20.95 -5.95 -20.8 -5.7 -20.45 -5.7 -20.4 -5.8 -20.3 L-5.85 -20.3 Q-5.9 -20.55 -6.2 -20.75 -6.5 -20.95 -6.5 -21.1 -6.5 -21.35 -6.35 -21.55 L-6.4 -21.55 -6.25 -21.65 -6.25 -21.7 -5.65 -22.2 -5.45 -22.2 Q-5.4 -22.25 -5.2 -22.3 L-4.4 -22.35 Q-4.2 -22.2 -3.75 -21.4 -3.35 -20.7 -2.8 -20.55 L-3.05 -20.6 -1.95 -20.1 Q-1.35 -19.8 -1.35 -19.4 -1.35 -19.05 -1.4 -18.95 L-1.45 -18.9 Q-1.4 -18.55 -1.35 -18.35 L-1.35 -18.3 -1.55 -18.35 Q-1.65 -18.45 -1.75 -18.45 -2.0 -18.45 -2.3 -18.2 -2.55 -18.0 -2.55 -17.9 L-2.45 -17.75 -2.4 -17.65 -1.45 -17.4 -0.95 -17.35 -0.55 -17.35 -0.45 -17.3 0.0 -17.5 0.65 -18.05 Q1.55 -18.85 1.55 -19.05 1.55 -19.15 1.5 -19.25 L1.4 -19.35 1.4 -19.4 M-5.2 -22.2 L-4.25 -21.4 -3.4 -20.75 -3.3 -20.7 Q-3.55 -20.9 -3.75 -21.25 -4.25 -22.1 -4.5 -22.25 L-5.1 -22.2 -5.2 -22.2 M-11.1 -20.6 L-11.1 -20.45 -10.8 -20.05 -11.0 -19.95 Q-11.1 -19.8 -11.15 -19.55 -11.2 -19.25 -11.1 -19.0 L-11.15 -19.0 -11.1 -18.85 -10.6 -18.35 -10.5 -18.3 -10.2 -18.1 Q-9.5 -17.75 -8.05 -17.5 L-6.05 -17.5 Q-5.75 -17.55 -5.5 -17.65 -5.1 -17.85 -5.1 -18.05 -5.1 -18.25 -5.2 -18.35 L-5.35 -18.4 -5.4 -18.5 -5.5 -18.65 -5.5 -18.75 -5.35 -18.8 -5.3 -18.75 -5.3 -18.7 Q-5.1 -18.6 -5.05 -18.45 L-5.05 -18.4 -4.8 -18.35 -4.75 -18.3 Q-4.7 -18.3 -4.7 -18.2 -4.7 -18.15 -4.9 -17.75 L-5.05 -17.35 -5.85 -17.35 -7.5 -17.4 -7.6 -17.4 -7.8 -17.35 Q-8.7 -17.35 -9.65 -17.7 -10.35 -18.0 -10.55 -18.15 L-10.75 -18.3 Q-11.05 -18.5 -11.2 -18.8 L-11.65 -19.25 Q-12.05 -19.7 -12.15 -20.5 L-12.25 -20.9 Q-13.2 -21.0 -13.85 -20.7 -14.35 -20.5 -14.85 -20.05 L-14.55 -19.85 -14.45 -19.75 Q-14.35 -19.85 -14.1 -19.9 -14.25 -19.8 -14.35 -19.65 L-14.35 -19.55 -14.4 -19.4 -14.45 -19.45 -14.5 -19.4 -14.55 -19.4 -14.55 -19.55 -14.6 -19.7 Q-14.75 -19.85 -14.9 -19.95 L-14.95 -19.9 -15.0 -19.9 -15.0 -20.0 -15.05 -20.0 Q-15.1 -20.15 -14.75 -20.55 L-14.1 -21.1 -13.6 -21.6 Q-13.3 -21.8 -12.4 -21.8 -12.25 -21.55 -12.15 -20.95 L-12.1 -20.9 -11.75 -20.85 -11.35 -20.75 -11.15 -20.5 -11.15 -20.6 -11.1 -20.6 M-3.55 -20.05 L-4.4 -20.65 Q-4.2 -20.3 -4.1 -20.0 L-3.9 -20.05 -3.55 -20.05 M-5.3 -18.45 L-5.25 -18.45 -5.35 -18.5 -5.3 -18.45 M-13.4 -18.1 L-13.35 -18.15 -13.1 -18.2 -12.85 -18.2 Q-12.9 -18.1 -13.25 -17.8 L-13.9 -17.3 -14.25 -17.3 -14.4 -17.5 -14.6 -17.65 -15.0 -17.7 -14.85 -18.25 Q-14.75 -18.5 -14.45 -18.6 L-14.45 -18.5 Q-14.45 -18.45 -14.6 -18.25 L-14.95 -17.75 Q-14.55 -17.75 -14.4 -17.6 L-14.15 -17.4 -13.9 -17.4 Q-13.75 -17.6 -13.2 -18.0 L-13.4 -18.1" fill="#ffffff" fill-rule="evenodd" stroke="none"/>
    </g>
  </defs>
</svg>
