<?xml version="1.0" encoding="UTF-8" standalone="no"?>
<svg xmlns:ffdec="https://www.free-decompiler.com/flash" xmlns:xlink="http://www.w3.org/1999/xlink" ffdec:objectType="frame" height="501.9px" width="744.8px" xmlns="http://www.w3.org/2000/svg">
  <g transform="matrix(1.0, 0.0, 0.0, 1.0, 368.55, 452.9)">
    <use ffdec:characterId="4309" height="61.8" transform="matrix(7.0, 0.0, 0.0, 7.0, -312.9, -402.5)" width="98.45" xlink:href="#shape0"/>
  </g>
  <defs>
    <g id="shape0" transform="matrix(1.0, 0.0, 0.0, 1.0, 44.7, 57.5)">
      <path d="M5.2 -57.5 L5.25 -57.45 5.25 -57.25 5.0 -56.55 4.7 -56.05 4.35 -56.05 4.35 -56.15 4.3 -56.45 Q4.3 -56.85 4.6 -57.05 5.1 -57.4 5.2 -57.5 M7.4 -56.65 L5.55 -55.05 5.4 -55.5 Q5.3 -55.75 5.3 -55.95 5.3 -56.3 5.95 -56.85 L6.65 -57.5 Q6.95 -57.25 7.2 -56.95 L7.4 -56.65 M28.05 -47.15 L27.9 -47.15 Q27.8 -47.25 27.8 -47.55 L27.95 -47.55 28.2 -47.45 Q28.2 -47.25 28.05 -47.15 M25.3 -42.55 Q25.4 -42.2 25.4 -42.0 L25.4 -41.65 25.35 -41.55 25.25 -41.55 25.15 -41.45 24.8 -41.5 Q24.3 -41.75 24.3 -42.15 24.3 -42.25 24.65 -42.6 24.95 -43.0 25.2 -43.05 L25.3 -42.55 M27.05 -45.45 L27.2 -45.1 Q27.35 -44.8 27.55 -44.55 L27.85 -44.15 Q28.0 -43.9 28.0 -43.8 28.0 -43.45 27.7 -42.95 27.3 -42.4 26.7 -42.05 26.6 -42.1 26.2 -42.55 L25.85 -43.05 Q25.85 -43.2 26.1 -43.55 26.3 -43.85 26.25 -44.35 26.2 -44.85 26.5 -45.15 26.75 -45.35 27.05 -45.45 M26.5 -41.15 L26.4 -40.9 Q26.35 -40.75 26.3 -40.7 26.15 -40.75 26.0 -40.85 L25.8 -41.05 25.9 -41.35 Q25.95 -41.35 26.45 -41.3 L26.5 -41.15 M25.9 -36.7 L25.8 -36.55 25.45 -36.55 25.45 -36.65 25.4 -36.8 25.45 -37.0 25.65 -37.0 25.9 -36.7 M28.35 -38.05 L28.25 -37.95 28.25 -37.85 28.2 -37.7 28.3 -37.75 28.35 -37.6 Q28.2 -37.2 28.1 -37.0 27.95 -36.75 27.8 -36.55 L27.8 -36.35 Q27.75 -36.35 27.7 -36.3 L27.5 -36.2 27.3 -36.3 Q27.15 -36.35 27.15 -36.55 27.15 -36.95 27.45 -37.7 27.85 -38.55 28.2 -38.75 L28.35 -38.7 Q28.45 -38.6 28.45 -38.4 28.45 -38.2 28.35 -38.05 M26.15 -32.85 L25.8 -32.9 25.65 -32.95 Q25.55 -32.95 25.55 -33.15 25.55 -33.4 26.05 -33.7 26.5 -33.55 26.6 -33.45 26.55 -33.35 26.55 -33.05 L26.15 -32.85 M28.65 -29.7 Q28.55 -29.55 28.45 -29.5 28.25 -29.5 28.15 -29.6 28.05 -29.65 28.05 -29.7 L28.15 -30.0 28.35 -30.0 Q28.6 -29.8 28.65 -29.7 M28.8 -29.0 L29.3 -29.05 Q29.65 -29.05 29.75 -28.65 L29.8 -28.55 30.1 -28.25 29.95 -28.05 29.95 -28.0 29.8 -27.85 29.55 -27.7 29.05 -27.75 28.95 -27.9 28.85 -27.9 28.65 -27.95 28.65 -28.0 28.5 -28.05 28.45 -28.15 28.45 -28.9 Q28.55 -28.95 28.8 -29.0 M39.8 -28.45 L40.35 -28.45 40.45 -28.5 Q40.5 -28.45 40.5 -28.25 40.5 -28.05 40.3 -27.95 40.15 -27.85 39.95 -27.85 L39.65 -27.9 39.55 -27.95 39.5 -27.9 Q39.45 -27.9 39.45 -28.1 L39.45 -28.15 39.05 -28.05 39.05 -28.0 Q39.0 -28.05 39.0 -28.25 39.0 -28.5 39.1 -28.55 L39.35 -28.55 39.55 -28.35 Q39.65 -28.4 39.8 -28.45 M22.1 -50.65 L21.95 -50.55 Q21.85 -50.45 21.65 -50.45 21.55 -50.45 21.35 -50.7 21.15 -50.9 21.15 -50.95 21.15 -51.15 21.3 -51.4 L21.45 -51.7 Q21.7 -51.55 21.85 -51.2 22.0 -50.8 22.1 -50.65 M16.35 -54.1 L16.5 -53.75 Q16.55 -53.45 16.55 -53.25 16.55 -53.05 16.5 -52.7 L16.35 -52.2 16.2 -52.2 Q16.0 -52.2 16.05 -52.4 L16.15 -52.8 16.0 -53.0 Q15.85 -53.15 15.85 -53.35 15.85 -53.65 15.95 -53.85 16.1 -54.1 16.35 -54.1 M13.15 -55.85 Q13.15 -56.15 13.3 -56.4 13.5 -56.65 13.8 -56.7 L14.2 -56.0 Q14.45 -55.65 14.45 -55.5 14.45 -55.3 14.3 -54.9 14.1 -54.4 14.1 -54.2 L13.95 -54.2 Q13.7 -54.9 13.4 -55.3 13.15 -55.65 13.15 -55.85 M13.75 -53.2 L13.8 -52.9 Q13.55 -52.8 13.45 -52.75 13.1 -52.95 13.05 -53.05 L13.0 -53.25 Q13.25 -53.35 13.35 -53.4 L13.75 -53.2 M21.3 -48.2 Q21.45 -48.15 21.55 -48.05 L21.7 -47.8 21.3 -47.45 20.9 -47.45 Q20.85 -47.45 20.85 -47.7 20.85 -47.75 21.05 -47.95 21.3 -48.1 21.3 -48.2 M9.1 -55.0 L9.3 -54.65 Q9.3 -54.45 9.1 -54.3 L8.3 -53.75 7.65 -53.65 7.5 -53.85 8.05 -54.8 Q8.35 -55.35 8.8 -55.4 L9.1 -55.0 M6.35 -52.6 Q6.8 -53.3 6.9 -53.3 6.9 -53.2 7.2 -52.65 7.5 -52.1 7.5 -51.95 7.5 -51.7 7.0 -51.25 6.55 -50.85 6.3 -50.75 L6.05 -50.8 5.95 -51.15 Q5.85 -51.4 5.85 -51.6 5.85 -51.9 6.35 -52.6 M8.5 -50.3 Q8.6 -50.2 8.7 -49.95 L8.6 -49.75 8.45 -49.65 8.15 -49.65 Q8.05 -49.65 8.05 -49.9 8.05 -50.05 8.15 -50.1 8.25 -50.2 8.5 -50.3 M3.35 -54.4 Q3.45 -54.8 3.6 -55.05 4.0 -54.8 4.15 -54.4 4.25 -54.15 4.25 -53.85 L4.2 -53.3 Q4.1 -52.95 4.15 -52.8 4.1 -52.7 4.0 -52.6 3.85 -52.7 3.6 -53.05 3.3 -53.5 3.3 -53.75 3.3 -54.05 3.35 -54.4 M1.85 -51.7 L2.2 -51.7 2.7 -51.2 Q2.95 -50.9 2.95 -50.7 2.95 -50.5 2.9 -50.3 L2.7 -49.9 Q2.45 -50.0 2.05 -50.45 1.6 -50.9 1.6 -51.05 1.6 -51.3 1.7 -51.5 1.75 -51.65 1.85 -51.7 M5.55 -46.55 Q5.55 -46.05 4.85 -45.6 L4.5 -45.65 4.3 -45.75 Q4.2 -45.85 4.2 -46.05 4.2 -46.3 4.65 -46.55 5.0 -46.75 5.35 -46.85 L5.5 -46.8 Q5.55 -46.8 5.55 -46.55 M10.6 -41.45 Q11.0 -41.8 11.2 -41.8 11.3 -41.7 11.35 -41.45 11.4 -41.1 11.45 -40.95 11.3 -40.95 10.95 -40.65 10.5 -40.4 10.35 -40.3 L10.2 -40.45 Q10.15 -40.55 10.15 -40.8 10.15 -41.1 10.6 -41.45 M10.05 -39.0 L10.05 -38.7 9.9 -38.6 9.7 -38.5 9.55 -38.5 Q9.5 -38.5 9.5 -38.75 9.5 -38.85 9.65 -39.05 9.75 -39.25 9.95 -39.3 L10.05 -39.25 Q10.05 -39.2 10.05 -39.0 M11.3 -39.2 Q11.25 -38.9 11.0 -38.7 L10.75 -38.7 Q10.7 -38.75 10.7 -39.0 10.7 -39.2 10.75 -39.25 L10.85 -39.3 Q11.2 -39.3 11.3 -39.2 M20.45 -41.95 Q20.6 -41.9 20.7 -41.75 20.8 -41.65 20.8 -41.45 20.55 -41.35 20.45 -41.3 L20.25 -41.35 Q20.2 -41.35 20.2 -41.55 20.2 -41.8 20.25 -41.85 L20.45 -41.95 M11.8 -28.6 Q12.45 -28.3 12.7 -27.65 12.65 -27.5 12.5 -27.3 12.05 -27.65 11.95 -27.8 11.25 -27.7 11.05 -28.0 11.0 -28.05 10.95 -28.2 10.9 -28.35 10.8 -28.4 11.1 -28.9 11.8 -28.6 M15.1 -25.55 Q14.8 -25.85 14.8 -26.05 14.8 -26.2 14.65 -26.25 14.5 -26.3 14.5 -26.45 14.5 -26.95 14.85 -26.95 15.2 -27.0 15.6 -26.45 15.9 -26.0 15.9 -25.7 15.9 -25.35 16.1 -24.95 L15.85 -24.8 15.55 -24.6 15.35 -24.65 Q15.35 -24.7 15.4 -24.75 15.45 -24.8 15.45 -25.0 15.45 -25.25 15.1 -25.55 M15.05 -24.85 Q15.0 -24.65 14.7 -24.55 L14.45 -24.5 Q14.4 -24.5 14.4 -24.75 14.4 -24.9 14.55 -25.05 14.6 -25.1 14.8 -25.2 L15.05 -24.85 M12.2 -27.35 L12.2 -27.25 Q12.15 -27.15 12.0 -27.05 L11.8 -27.1 Q11.55 -27.15 11.5 -27.2 11.5 -27.3 11.6 -27.4 L11.7 -27.5 Q12.05 -27.45 12.2 -27.35 M14.1 -23.55 L14.15 -23.3 Q14.15 -23.15 13.7 -22.7 13.25 -22.3 13.2 -22.3 L12.85 -22.35 12.75 -22.45 Q12.7 -22.45 12.7 -22.7 12.7 -22.8 13.0 -23.2 L13.45 -23.8 Q13.55 -23.8 13.7 -23.7 13.9 -23.6 14.05 -23.55 L14.1 -23.55 M12.3 -23.15 L12.3 -23.0 Q12.3 -22.9 12.15 -22.8 L11.9 -22.85 11.85 -22.85 Q11.8 -22.85 11.8 -23.05 11.8 -23.3 11.95 -23.35 L12.2 -23.45 Q12.3 -23.35 12.3 -23.15 M13.85 -21.4 Q13.85 -20.85 14.05 -20.3 14.3 -19.75 14.3 -19.45 L14.25 -19.15 13.45 -19.0 Q13.4 -19.05 13.4 -19.1 L13.45 -19.35 Q13.45 -19.55 13.05 -19.95 L12.7 -20.45 Q12.7 -20.6 13.05 -21.0 13.4 -21.35 13.55 -21.45 L13.85 -21.4 M17.25 -23.15 Q17.3 -23.1 17.3 -23.0 17.3 -22.65 16.95 -22.05 16.6 -21.5 16.5 -21.5 L16.4 -21.95 Q16.3 -22.25 16.3 -22.45 16.3 -22.55 16.4 -22.75 16.55 -23.05 16.85 -23.4 L17.25 -23.15 M15.0 -23.95 Q15.2 -23.9 15.3 -23.8 L15.35 -23.6 Q15.3 -23.45 15.05 -23.25 L14.9 -23.25 14.8 -23.3 14.8 -23.55 Q14.8 -23.8 14.85 -23.85 L15.0 -23.95 M15.8 -21.7 L15.75 -21.45 Q15.7 -21.35 15.55 -21.3 L15.4 -21.4 Q15.35 -21.45 15.35 -21.75 15.35 -21.95 15.45 -21.95 L15.65 -21.9 15.8 -21.7 M13.7 -19.55 L13.7 -19.45 13.8 -19.4 13.85 -19.45 13.75 -19.55 13.7 -19.55 M13.15 -20.65 L13.2 -20.55 13.2 -20.65 13.15 -20.65 M12.9 -18.95 Q12.9 -19.15 12.95 -19.2 L13.15 -19.25 13.35 -19.05 13.4 -18.9 13.3 -18.7 13.15 -18.6 12.95 -18.65 Q12.9 -18.7 12.9 -18.95 M17.15 -16.7 L17.45 -16.7 Q17.4 -16.45 17.5 -15.95 L17.55 -15.25 Q17.55 -15.0 17.5 -14.85 L17.4 -14.55 16.6 -14.55 Q16.5 -15.35 16.5 -16.2 16.5 -16.25 16.75 -16.45 L17.15 -16.7 M15.8 -14.55 L16.2 -14.5 16.3 -14.3 16.2 -13.95 Q16.0 -13.85 15.85 -13.8 L15.6 -13.9 Q15.55 -14.0 15.55 -14.2 L15.55 -14.55 15.8 -14.55 M11.15 -4.3 Q11.0 -4.05 10.85 -4.05 L10.65 -4.1 Q10.6 -4.15 10.6 -4.35 10.6 -4.6 10.7 -4.65 L10.85 -4.7 Q11.05 -4.6 11.15 -4.3 M21.65 -9.0 Q21.75 -8.85 21.75 -8.7 21.6 -8.45 21.45 -8.4 L21.15 -8.5 Q21.1 -8.55 21.1 -8.8 21.1 -9.0 21.2 -9.1 L21.45 -9.2 Q21.55 -9.1 21.65 -9.0 M16.8 -12.95 Q16.65 -12.7 16.3 -12.7 L16.2 -12.8 Q16.15 -12.9 16.15 -13.15 16.15 -13.4 16.65 -13.7 16.7 -13.6 16.8 -13.55 16.9 -13.4 16.9 -13.2 16.9 -13.05 16.8 -12.95 M15.7 -11.55 L15.6 -11.5 15.45 -11.4 Q15.2 -11.5 15.2 -11.8 15.35 -11.9 15.7 -11.8 L15.7 -11.55 M13.65 -13.45 L13.8 -13.35 13.85 -13.15 13.75 -13.0 13.65 -12.8 13.3 -12.8 13.25 -12.85 Q13.2 -12.85 13.2 -13.1 13.2 -13.45 13.25 -13.45 L13.65 -13.45 M13.85 -11.95 L13.95 -11.95 Q14.2 -11.85 14.2 -11.55 14.2 -11.4 14.1 -11.2 14.0 -11.0 13.85 -10.85 L13.65 -10.15 13.3 -10.15 13.25 -10.2 13.25 -10.4 Q13.25 -10.85 13.35 -11.25 13.5 -12.0 13.9 -12.2 13.9 -12.1 13.85 -11.95 M14.4 -9.55 L14.4 -9.6 Q14.4 -9.8 14.5 -9.9 L14.7 -10.05 14.85 -10.0 14.95 -9.95 15.3 -10.2 15.55 -10.15 Q15.6 -10.1 15.6 -9.85 15.6 -9.55 15.1 -9.2 L14.0 -8.55 13.75 -8.5 Q13.7 -8.5 13.7 -8.75 13.7 -8.9 14.15 -9.35 L14.4 -9.55 M12.55 -5.25 L12.45 -5.1 12.3 -4.95 Q12.15 -5.0 12.1 -5.15 12.05 -5.25 12.05 -5.35 12.1 -5.45 12.2 -5.5 L12.45 -5.45 12.55 -5.25 M41.25 -26.85 L41.05 -26.8 40.75 -26.7 40.7 -26.7 40.7 -26.95 Q40.7 -27.15 40.85 -27.2 L41.2 -27.2 Q41.25 -27.05 41.25 -26.85 M35.95 -16.0 Q35.95 -15.75 35.65 -15.45 35.3 -15.15 34.85 -15.15 L34.55 -15.2 34.5 -15.2 34.4 -15.3 34.4 -15.55 Q34.4 -15.7 34.65 -16.25 34.9 -16.7 35.0 -16.8 35.4 -16.8 35.7 -16.5 35.95 -16.25 35.95 -16.0 M35.65 -14.5 Q35.75 -14.6 35.95 -14.6 36.05 -14.5 36.05 -14.4 36.0 -14.3 35.85 -14.2 35.6 -14.25 35.5 -14.35 35.5 -14.45 35.65 -14.5 M37.35 -14.25 Q37.4 -14.2 37.4 -14.0 L37.4 -13.95 Q37.35 -13.7 36.85 -13.35 36.25 -12.9 35.55 -12.8 L35.3 -12.8 Q35.25 -12.8 35.25 -13.0 35.25 -13.25 35.4 -13.45 35.75 -13.75 35.9 -14.05 L36.7 -14.25 37.3 -14.3 37.35 -14.25 M37.05 -14.15 L37.05 -14.15 M32.25 -26.3 L32.15 -26.2 Q32.05 -26.15 31.85 -26.15 31.55 -26.15 31.45 -26.45 L31.4 -26.65 Q31.4 -27.15 31.8 -27.0 32.15 -26.9 32.3 -26.6 L32.25 -26.3 M30.5 -24.0 L30.55 -24.05 Q30.6 -24.0 30.6 -23.8 30.6 -23.7 30.05 -23.0 29.5 -22.25 29.3 -22.1 L28.95 -22.15 Q28.95 -22.3 28.8 -22.65 28.7 -22.95 28.7 -23.15 28.7 -23.5 29.15 -23.7 29.4 -23.85 30.15 -24.05 L30.5 -24.0 M28.8 -25.2 L28.95 -24.95 Q28.9 -24.65 28.45 -24.6 L28.35 -24.65 Q28.3 -24.65 28.3 -24.85 28.3 -25.1 28.45 -25.15 L28.8 -25.2 M27.0 -21.9 L27.2 -21.75 Q27.1 -21.45 26.85 -21.3 26.6 -21.4 26.5 -21.5 26.7 -21.8 26.95 -21.95 L27.0 -21.9 M33.9 -12.8 L33.95 -12.7 33.85 -12.55 Q33.75 -12.45 33.6 -12.45 L33.5 -12.45 Q33.45 -12.55 33.45 -12.8 33.7 -12.9 33.9 -12.8 M32.65 -12.75 L33.45 -12.0 33.05 -11.55 32.45 -11.55 Q32.4 -11.65 31.85 -11.7 L31.5 -11.75 31.45 -11.7 Q31.45 -11.75 31.45 -11.95 31.45 -12.15 31.85 -12.45 32.3 -12.8 32.65 -12.75 M30.35 -11.65 L30.55 -11.65 31.05 -11.6 31.1 -11.4 31.05 -11.25 30.85 -11.1 30.35 -11.2 Q30.3 -11.2 30.3 -11.4 30.3 -11.75 30.35 -11.65 M25.95 -7.15 L26.25 -7.05 Q26.35 -6.9 26.35 -6.75 L26.2 -6.55 25.9 -6.55 Q25.8 -6.6 25.8 -6.75 L25.8 -7.15 25.95 -7.15 M24.4 -8.35 L24.8 -8.25 Q24.9 -8.15 25.0 -7.9 L25.2 -7.4 25.2 -6.6 Q25.2 -6.55 25.0 -6.55 24.5 -6.55 23.95 -7.05 23.55 -7.5 23.55 -7.7 23.55 -7.85 23.75 -8.15 L24.0 -8.45 24.4 -8.35 M28.45 -4.35 Q28.9 -4.6 29.0 -4.7 L29.3 -4.7 29.3 -4.05 Q29.15 -3.55 29.05 -3.25 28.85 -2.8 28.3 -2.7 28.15 -3.5 28.15 -3.9 28.15 -4.15 28.45 -4.35 M24.95 -5.45 L24.9 -5.3 24.7 -5.2 Q24.35 -5.25 24.35 -5.45 L24.4 -5.75 24.65 -5.75 Q24.9 -5.55 24.95 -5.45 M25.8 -5.35 Q25.75 -5.1 25.5 -4.95 L25.3 -4.95 25.25 -5.05 25.2 -5.3 Q25.2 -5.5 25.3 -5.6 L25.45 -5.65 25.75 -5.5 25.8 -5.35 M25.6 -2.75 L25.65 -2.55 25.65 -2.45 Q25.6 -2.3 25.45 -2.25 L25.25 -2.3 Q25.2 -2.3 25.2 -2.55 L25.2 -2.75 25.6 -2.75 M33.7 -6.15 L33.5 -6.2 Q33.45 -6.2 33.45 -6.45 33.45 -6.65 33.5 -6.75 L33.7 -6.8 33.95 -6.65 34.05 -6.45 Q34.0 -6.25 33.7 -6.15 M34.55 -4.55 Q34.5 -4.45 34.3 -4.4 33.95 -4.45 33.95 -4.65 34.05 -4.75 34.3 -4.75 34.5 -4.7 34.55 -4.55 M37.65 -12.35 Q37.6 -12.15 37.3 -12.1 L37.15 -12.05 Q37.0 -12.05 37.0 -12.3 37.0 -12.5 37.05 -12.55 L37.65 -12.75 Q37.8 -12.8 37.95 -12.7 37.75 -12.6 37.65 -12.35 M35.85 -8.0 L35.95 -7.75 35.95 -7.5 Q35.95 -7.45 35.7 -7.45 35.5 -7.45 35.35 -7.6 35.3 -7.65 35.2 -7.8 35.2 -7.9 35.3 -8.1 35.45 -8.3 35.55 -8.4 L35.85 -8.0 M53.55 -16.8 L53.45 -16.85 Q53.3 -16.9 53.25 -16.95 L53.25 -17.15 53.4 -17.15 53.75 -17.05 Q53.7 -16.85 53.55 -16.8 M52.6 -16.35 L52.7 -16.15 52.6 -16.0 52.5 -15.8 52.25 -15.8 Q52.2 -15.8 52.2 -16.05 52.2 -16.4 52.25 -16.35 L52.6 -16.35 M-7.65 -48.55 Q-7.7 -48.35 -7.65 -48.0 L-7.55 -47.4 Q-7.65 -47.3 -8.0 -47.1 L-8.4 -47.15 -8.6 -47.3 Q-8.7 -47.45 -8.7 -47.7 -8.7 -47.8 -8.55 -48.0 L-8.3 -48.3 Q-8.25 -48.45 -8.15 -48.5 L-7.65 -48.55 M-8.55 -46.0 L-8.65 -45.9 -8.95 -45.95 Q-9.15 -46.0 -9.2 -46.05 -9.2 -46.15 -9.1 -46.3 L-8.8 -46.45 -8.65 -46.2 Q-8.55 -46.1 -8.55 -46.0 M-11.1 -49.3 Q-10.65 -50.15 -9.95 -49.75 -9.3 -49.4 -9.05 -48.65 L-9.3 -48.55 Q-9.5 -48.5 -9.7 -48.5 -9.8 -48.5 -10.3 -48.75 -10.95 -49.0 -11.1 -49.3 M-6.95 -42.95 L-6.55 -43.25 -6.4 -43.35 -5.65 -43.3 Q-5.25 -43.15 -5.2 -43.0 -5.25 -42.85 -5.45 -42.8 L-6.5 -42.8 Q-6.85 -42.85 -6.95 -42.95 M-7.55 -42.5 Q-7.35 -42.45 -7.25 -42.35 L-7.2 -42.2 -7.25 -42.05 -7.3 -42.0 Q-7.35 -41.95 -7.45 -41.95 L-7.7 -41.95 Q-7.8 -41.95 -7.8 -42.2 -7.8 -42.4 -7.7 -42.45 L-7.55 -42.5 M-16.8 -49.9 L-16.7 -49.7 -16.7 -49.05 -16.9 -49.0 -17.15 -48.9 -17.35 -49.2 Q-17.45 -49.35 -17.45 -49.6 L-17.4 -49.8 Q-17.4 -49.85 -17.35 -49.95 L-17.15 -49.95 -16.8 -49.9 M-15.05 -50.3 L-15.05 -50.5 -14.9 -50.85 -14.7 -51.05 Q-14.45 -50.95 -14.4 -50.75 L-14.55 -50.5 Q-14.7 -50.3 -14.85 -50.25 L-15.05 -50.3 M-15.0 -49.7 L-14.6 -49.75 Q-14.3 -49.85 -14.15 -49.85 -13.85 -49.85 -13.8 -49.8 -13.65 -49.6 -13.2 -49.4 -13.4 -49.15 -14.5 -48.6 -15.8 -47.95 -16.05 -47.8 L-16.1 -48.0 -16.15 -48.85 Q-16.1 -49.3 -15.6 -49.6 L-15.3 -49.8 -15.0 -49.7 M-21.15 -50.15 L-21.35 -49.95 -21.55 -49.8 -21.7 -49.8 Q-21.85 -49.85 -21.95 -49.95 L-21.75 -50.2 -21.55 -50.35 Q-21.25 -50.25 -21.15 -50.15 M-17.45 -47.95 L-17.3 -47.8 Q-17.15 -47.7 -17.15 -47.5 -17.15 -47.45 -17.5 -47.0 -17.95 -46.35 -18.3 -45.75 -18.35 -45.8 -18.5 -46.15 -18.6 -46.5 -18.6 -46.65 -18.6 -47.25 -18.35 -47.8 -18.05 -48.5 -17.55 -48.45 -17.4 -48.35 -17.45 -47.95 M-21.55 -47.95 L-21.85 -47.9 Q-21.95 -47.9 -21.95 -48.1 -21.95 -48.35 -21.8 -48.4 L-21.5 -48.45 Q-21.4 -48.3 -21.35 -48.2 L-21.35 -48.1 -21.4 -48.05 -21.55 -47.95 M-22.6 -48.15 Q-22.55 -48.15 -22.55 -47.95 -22.55 -47.65 -22.85 -47.5 -23.05 -47.4 -23.8 -47.15 L-23.85 -47.1 -23.9 -47.35 Q-23.9 -47.45 -23.75 -47.75 -23.6 -48.05 -23.45 -48.1 L-22.65 -48.15 -22.6 -48.15 M-17.5 -45.05 L-17.35 -45.35 -17.15 -45.5 Q-16.95 -45.45 -16.8 -45.35 -16.8 -45.25 -16.8 -45.05 L-16.95 -45.0 -17.3 -44.9 -17.35 -44.95 -17.5 -45.05 M-19.6 -43.05 L-19.35 -43.2 Q-19.1 -43.0 -19.05 -42.85 L-19.1 -42.75 -19.15 -42.7 Q-19.2 -42.65 -19.3 -42.65 L-19.5 -42.65 Q-19.7 -42.7 -19.8 -42.8 L-19.6 -43.05 M-12.25 -48.45 Q-12.1 -48.55 -11.95 -48.55 L-11.8 -48.45 -11.8 -48.25 -11.9 -48.2 -12.15 -48.05 -12.3 -48.1 -12.5 -48.2 Q-12.45 -48.35 -12.25 -48.45 M-13.35 -47.3 L-12.95 -47.4 -12.9 -47.45 Q-12.85 -47.45 -12.85 -47.25 -12.85 -47.1 -13.8 -46.6 -14.75 -46.1 -15.05 -46.1 L-14.7 -46.6 -14.05 -47.2 -13.35 -47.3 M-11.95 -38.5 L-11.75 -38.8 -11.55 -38.95 Q-11.25 -38.8 -11.25 -38.55 L-11.2 -38.55 Q-11.25 -38.5 -11.25 -38.45 -11.35 -38.4 -11.45 -38.35 L-11.65 -38.4 Q-11.85 -38.45 -11.95 -38.5 M-4.5 -41.85 L-4.4 -41.7 Q-4.4 -41.6 -4.4 -41.55 -4.45 -41.5 -4.55 -41.45 L-4.9 -41.5 -5.2 -41.55 -5.1 -41.75 Q-4.9 -41.95 -4.55 -42.05 -4.55 -41.95 -4.5 -41.85 M-7.25 -40.1 Q-7.05 -40.35 -6.55 -40.2 L-6.45 -40.0 -6.35 -39.7 -6.45 -39.4 Q-6.5 -39.3 -6.7 -39.3 -6.9 -39.3 -7.0 -39.35 -7.1 -39.4 -7.25 -39.45 L-7.3 -39.5 Q-7.35 -39.55 -7.35 -39.75 -7.35 -39.95 -7.25 -40.1 M-8.8 -41.95 Q-8.7 -41.85 -8.7 -41.75 -8.75 -41.65 -8.8 -41.6 -8.9 -41.55 -9.15 -41.55 L-9.4 -41.55 -9.45 -41.7 Q-9.4 -41.8 -9.2 -41.9 -9.05 -41.95 -8.8 -41.95 M-23.3 -50.05 Q-22.8 -50.0 -22.75 -49.8 L-23.3 -49.35 Q-23.7 -49.05 -23.8 -48.8 L-24.2 -48.8 Q-24.25 -48.85 -24.35 -48.9 -24.45 -48.95 -24.45 -49.15 -24.45 -49.4 -23.95 -49.7 L-23.3 -50.05 M-28.95 -44.5 L-28.8 -44.05 -28.85 -43.95 -29.0 -43.85 Q-29.6 -44.2 -29.6 -44.45 -29.6 -44.85 -29.3 -45.05 -29.05 -44.8 -28.95 -44.5 M-27.3 -48.0 Q-27.3 -48.25 -27.2 -48.4 L-27.0 -48.5 Q-26.65 -48.45 -26.55 -48.3 L-26.55 -48.0 Q-26.65 -48.0 -27.0 -47.8 L-27.25 -47.8 Q-27.3 -47.8 -27.3 -48.0 M-26.4 -46.05 L-26.55 -45.55 Q-26.6 -45.35 -26.55 -45.05 -26.45 -44.7 -26.45 -44.55 -26.45 -44.45 -26.5 -44.3 L-26.85 -43.6 Q-27.0 -43.8 -27.2 -44.35 -27.45 -44.95 -27.45 -45.25 -27.45 -45.5 -26.95 -46.15 -26.5 -46.75 -26.35 -46.8 L-26.3 -46.85 -26.3 -46.6 Q-26.3 -46.4 -26.4 -46.05 M-28.4 -43.45 Q-28.45 -43.35 -28.55 -43.25 L-28.6 -43.25 Q-28.7 -43.3 -28.75 -43.35 L-28.75 -43.55 -28.6 -43.55 -28.4 -43.45 M-27.3 -39.5 L-26.95 -39.45 Q-26.95 -39.4 -26.95 -39.05 -26.95 -38.65 -27.3 -38.4 L-27.6 -38.8 Q-27.75 -38.95 -27.75 -39.0 -27.75 -39.15 -27.5 -39.2 -27.3 -39.3 -27.3 -39.5 M-26.4 -36.05 Q-26.35 -35.05 -26.3 -34.5 L-26.3 -34.25 -26.35 -34.2 Q-26.35 -34.15 -26.4 -34.15 -27.1 -34.6 -27.4 -35.0 -27.7 -35.4 -27.7 -35.8 -27.7 -36.4 -27.5 -36.8 -27.2 -37.55 -26.5 -37.55 -26.45 -37.15 -26.4 -36.05 M-24.75 -38.15 Q-24.75 -38.05 -25.1 -37.75 L-25.55 -37.35 Q-25.85 -37.6 -25.85 -38.0 -25.85 -38.3 -25.55 -38.4 -25.15 -38.45 -24.95 -38.55 L-24.8 -38.45 Q-24.75 -38.4 -24.75 -38.15 M-24.1 -36.2 L-24.3 -35.75 -24.55 -35.7 Q-24.6 -35.7 -24.6 -35.95 -24.6 -36.15 -24.2 -36.4 L-24.1 -36.2 M-29.45 -41.3 L-29.15 -41.25 -29.2 -41.2 -29.2 -41.0 Q-29.2 -40.8 -29.05 -40.45 -28.95 -40.1 -28.95 -39.9 -28.95 -39.7 -29.0 -39.75 L-29.05 -39.8 Q-29.2 -39.95 -29.55 -40.25 -29.7 -40.35 -29.7 -40.6 -29.7 -41.05 -29.45 -41.3 M-25.4 -32.95 Q-25.35 -32.55 -25.25 -32.4 -25.4 -32.25 -25.7 -32.1 L-25.95 -32.2 Q-26.05 -32.25 -26.05 -32.5 -26.05 -32.7 -25.9 -33.0 -25.75 -33.4 -25.5 -33.45 -25.45 -33.3 -25.4 -32.95 M-27.8 -33.75 Q-27.6 -33.6 -27.5 -33.2 L-27.3 -33.1 Q-27.1 -33.0 -27.05 -32.95 -27.35 -32.8 -27.65 -32.8 -28.3 -32.8 -28.5 -33.2 -28.6 -33.4 -28.6 -33.85 -28.3 -33.9 -27.8 -33.75 M-27.0 -30.75 L-27.0 -30.8 -26.5 -30.75 Q-26.4 -30.65 -26.3 -30.45 L-26.4 -30.1 -26.5 -30.05 -26.8 -30.0 Q-27.35 -30.0 -27.45 -30.25 -27.5 -30.4 -27.45 -30.7 L-27.0 -30.75 M-25.8 -15.45 L-26.05 -15.45 -26.05 -15.95 -25.9 -15.95 -25.65 -15.9 Q-25.65 -15.55 -25.8 -15.45 M-36.45 -22.65 Q-36.4 -22.5 -36.4 -22.45 L-36.45 -22.2 -36.55 -22.1 Q-36.75 -22.15 -36.8 -22.2 -36.9 -22.3 -36.9 -22.55 L-36.9 -22.8 -36.85 -22.85 -36.65 -22.85 Q-36.55 -22.8 -36.45 -22.65 M-35.9 -19.6 L-35.8 -19.45 -35.85 -19.35 Q-35.95 -19.3 -36.1 -19.3 L-36.15 -19.25 Q-36.2 -19.2 -36.2 -19.45 -36.2 -19.65 -36.15 -19.65 L-36.0 -19.65 -35.9 -19.6 M-36.2 -18.15 L-36.35 -18.1 Q-36.5 -18.0 -36.7 -18.0 L-36.9 -18.2 Q-36.85 -18.35 -36.7 -18.45 -36.5 -18.55 -36.35 -18.55 -36.2 -18.45 -36.2 -18.15 M-35.45 -10.85 Q-35.45 -10.75 -35.55 -10.6 -35.7 -10.35 -35.95 -10.1 -36.4 -10.65 -36.4 -10.8 -36.4 -11.3 -35.95 -11.4 -35.45 -11.55 -35.45 -10.85 M-37.8 -9.0 Q-37.65 -9.2 -37.3 -9.3 L-37.15 -9.35 Q-37.0 -9.35 -37.0 -9.15 L-37.0 -8.85 -37.05 -8.75 -37.65 -8.7 -37.7 -8.85 -37.8 -9.0 M-43.95 -9.25 L-43.8 -8.55 Q-43.7 -8.1 -43.7 -7.9 -43.7 -7.7 -43.75 -7.7 L-43.75 -7.75 Q-43.9 -7.65 -44.15 -7.6 L-44.5 -7.5 -44.7 -8.7 -44.55 -8.95 -44.3 -9.3 -43.95 -9.25 M-41.65 -10.25 L-41.75 -10.05 -41.8 -9.8 -41.95 -9.8 Q-42.0 -9.95 -42.0 -10.35 -41.9 -10.4 -41.8 -10.35 -41.65 -10.35 -41.65 -10.25 M-42.75 -8.05 Q-42.55 -8.55 -42.45 -8.55 -42.1 -8.4 -41.65 -7.5 -41.3 -6.75 -41.3 -6.5 L-41.3 -5.95 -41.8 -5.95 Q-42.3 -5.95 -42.95 -7.25 -42.95 -7.5 -42.75 -8.05 M-40.55 -8.05 Q-40.55 -7.85 -40.6 -7.8 L-40.7 -7.7 -40.85 -7.65 Q-41.0 -7.65 -41.0 -7.85 -41.0 -8.1 -40.9 -8.2 -40.8 -8.25 -40.65 -8.25 L-40.55 -8.05 M-37.45 -6.55 Q-37.2 -6.35 -37.2 -5.7 L-37.25 -5.6 Q-37.35 -5.55 -37.55 -5.55 -37.8 -5.55 -37.85 -5.65 L-37.95 -5.8 -37.95 -6.45 -37.45 -6.45 -37.45 -6.55 M-36.7 -4.6 Q-36.35 -5.15 -36.05 -5.25 L-35.85 -4.65 Q-35.7 -4.3 -35.6 -4.2 L-34.95 -3.55 Q-34.7 -3.3 -34.7 -3.15 -34.7 -2.9 -34.75 -2.85 L-34.85 -2.7 Q-35.0 -2.75 -35.1 -2.85 L-35.3 -3.1 Q-35.65 -3.4 -36.4 -3.15 -36.9 -3.2 -37.0 -3.5 L-37.05 -3.95 Q-37.05 -4.1 -36.7 -4.6 M-24.8 -12.2 Q-24.8 -11.95 -24.95 -11.85 L-25.2 -11.85 -25.25 -11.9 Q-25.3 -11.9 -25.3 -12.1 -25.3 -12.5 -25.3 -12.25 L-24.95 -12.3 -24.8 -12.2 M-31.35 -12.3 L-31.8 -12.05 Q-32.15 -11.85 -32.3 -11.8 L-32.65 -11.9 -32.7 -12.0 -32.65 -12.2 -32.0 -12.45 -31.5 -12.55 -31.35 -12.3 M-33.7 -11.65 L-34.05 -11.65 Q-34.2 -11.9 -34.55 -12.3 -34.9 -12.75 -35.05 -13.05 -35.0 -13.05 -34.3 -12.6 L-33.35 -11.95 -33.7 -11.65 M-34.25 -8.6 Q-34.25 -9.3 -33.7 -9.2 -33.15 -9.15 -33.05 -8.7 L-32.95 -7.85 -32.85 -7.5 -32.7 -7.35 -32.7 -7.2 Q-32.6 -7.15 -32.5 -7.1 L-32.85 -6.6 Q-33.35 -6.85 -33.8 -7.5 -34.25 -8.15 -34.25 -8.6 M-34.3 -4.55 L-33.8 -4.55 -33.45 -4.25 Q-33.2 -4.0 -33.15 -3.7 -33.2 -3.65 -33.3 -3.6 L-33.7 -3.55 Q-33.9 -3.55 -34.0 -3.65 -34.15 -3.75 -34.35 -3.8 L-34.45 -4.0 Q-34.5 -4.15 -34.5 -4.35 -34.5 -4.6 -34.45 -4.6 -34.35 -4.55 -34.3 -4.55 M-31.95 -2.25 Q-31.95 -2.05 -32.15 -1.95 L-32.4 -2.0 Q-32.5 -2.05 -32.5 -2.25 -32.5 -2.5 -32.35 -2.5 L-32.05 -2.45 Q-31.95 -2.35 -31.95 -2.25 M-10.4 -22.35 Q-10.35 -22.2 -10.35 -21.95 L-10.65 -21.7 Q-10.95 -21.45 -10.95 -21.05 -10.95 -20.3 -11.3 -20.3 L-11.55 -20.35 -11.55 -20.9 Q-11.55 -21.35 -11.25 -21.95 -10.95 -22.55 -10.55 -22.65 L-10.4 -22.35 M-6.0 -18.3 Q-5.9 -18.4 -5.7 -18.45 -5.65 -18.35 -5.6 -18.1 L-5.55 -17.75 Q-5.6 -17.65 -5.7 -17.55 -6.15 -17.9 -6.15 -18.0 -6.15 -18.15 -6.0 -18.3 M-7.8 -19.85 Q-8.1 -19.55 -8.5 -19.45 -8.9 -20.05 -8.9 -20.15 -8.9 -20.7 -8.35 -20.65 -7.8 -20.65 -7.55 -20.25 L-7.8 -19.85 M-9.45 -18.95 Q-9.5 -18.75 -9.75 -18.35 L-10.0 -17.8 Q-10.15 -17.35 -10.15 -17.3 -10.3 -17.3 -10.55 -17.2 L-11.25 -17.2 -12.05 -17.25 Q-12.2 -17.8 -11.15 -18.5 -10.2 -19.15 -9.55 -19.2 L-9.45 -18.95 M-11.2 -16.0 L-11.15 -16.05 Q-11.1 -16.0 -11.1 -15.8 -11.1 -15.7 -11.3 -15.45 -11.55 -15.2 -11.7 -15.15 L-11.95 -15.15 Q-12.0 -15.2 -12.0 -15.45 -12.0 -15.55 -11.85 -15.75 L-11.55 -16.05 -11.2 -16.0 M-4.7 -16.55 Q-4.35 -16.55 -4.3 -16.45 L-4.65 -15.85 Q-4.7 -15.6 -4.7 -15.4 -4.7 -15.25 -4.45 -14.85 -4.15 -14.4 -4.15 -14.25 -4.15 -14.05 -4.35 -13.85 L-4.65 -13.55 -4.65 -13.4 Q-4.6 -13.25 -4.6 -13.05 -4.6 -12.85 -4.65 -12.85 L-4.7 -12.9 Q-4.95 -13.0 -5.45 -13.8 -5.95 -14.55 -5.95 -14.65 -5.95 -14.85 -5.75 -15.25 L-5.4 -15.9 Q-5.3 -16.1 -5.15 -16.3 -4.9 -16.55 -4.7 -16.55 M-11.9 -21.3 Q-12.35 -20.8 -12.85 -19.85 -13.35 -18.85 -13.55 -18.65 -13.95 -18.8 -14.7 -19.6 -14.7 -19.8 -13.55 -21.45 L-12.95 -21.55 -12.3 -21.55 Q-12.1 -21.5 -11.9 -21.3 M-11.9 -19.05 L-11.95 -19.0 -12.15 -18.9 Q-12.3 -19.0 -12.3 -19.1 L-12.25 -19.4 -12.05 -19.4 Q-11.9 -19.2 -11.9 -19.05 M-12.45 -16.0 Q-12.45 -15.8 -12.65 -15.15 -12.9 -14.5 -12.9 -14.2 L-13.95 -14.2 Q-14.0 -14.65 -14.0 -15.0 -14.0 -15.6 -13.95 -15.65 -13.75 -15.9 -12.85 -16.15 -12.5 -16.1 -12.45 -16.0 M-11.8 -17.55 L-11.8 -17.55 M-16.05 -11.25 Q-16.05 -11.2 -16.05 -11.0 -16.05 -10.8 -16.1 -10.55 L-16.2 -10.15 -16.2 -10.1 -16.45 -10.05 Q-16.6 -10.05 -16.9 -10.2 -17.15 -10.3 -17.35 -10.3 L-17.45 -10.45 Q-17.55 -10.55 -17.55 -10.75 -17.55 -10.95 -17.0 -11.1 -16.5 -11.25 -16.1 -11.2 L-16.05 -11.25 M-15.3 -10.2 L-15.65 -10.25 -15.7 -10.2 Q-15.75 -10.2 -15.75 -10.4 -15.75 -10.65 -15.65 -10.65 L-15.55 -10.6 Q-15.2 -10.55 -15.1 -10.45 -15.15 -10.3 -15.3 -10.2 M-15.35 -8.4 L-15.15 -8.45 -15.2 -8.45 -15.35 -8.4 M-15.75 -8.2 Q-15.75 -8.55 -15.7 -8.55 -15.65 -8.55 -15.65 -8.5 L-15.35 -8.75 -13.95 -8.7 -14.05 -8.6 -13.6 -8.15 Q-13.25 -7.85 -13.05 -7.8 L-12.95 -7.6 Q-13.0 -7.55 -13.1 -7.4 L-13.3 -7.3 -13.7 -7.2 -14.05 -7.15 Q-14.45 -7.15 -15.1 -7.55 -15.75 -7.95 -15.75 -8.2 M-12.95 -8.7 Q-12.85 -8.95 -12.4 -8.95 -12.35 -8.85 -12.35 -8.75 L-12.3 -8.5 -12.55 -8.3 Q-12.75 -8.45 -12.95 -8.7 M-20.3 -0.6 L-20.1 -0.85 Q-19.9 -1.1 -19.85 -1.05 L-19.5 -1.0 -19.45 -1.05 Q-19.4 -1.0 -19.4 -0.8 -19.4 -0.55 -19.5 -0.5 -19.55 -0.45 -19.7 -0.35 L-20.25 -0.45 -20.3 -0.35 -20.3 -0.6 M-14.75 -0.7 Q-14.8 -0.65 -15.0 -0.65 -15.35 -0.65 -15.45 -0.95 -15.55 -1.15 -15.5 -1.45 -15.1 -1.45 -14.95 -1.2 L-14.8 -0.85 -14.75 -0.7 M-12.4 -0.75 Q-12.35 -0.7 -12.35 -0.5 -12.35 -0.1 -12.4 -0.2 L-12.45 -0.15 -12.55 -0.1 -12.95 -0.15 -13.0 -0.1 Q-13.05 -0.15 -13.05 -0.35 -13.05 -0.45 -12.9 -0.6 -12.75 -0.75 -12.5 -0.85 L-12.4 -0.75 M-0.8 -13.05 Q-0.75 -12.9 -0.75 -12.7 -0.75 -12.45 -0.8 -12.5 L-0.85 -12.55 -1.25 -12.8 Q-1.3 -12.85 -1.3 -12.95 -1.3 -13.15 -1.2 -13.25 L-0.95 -13.3 -0.8 -13.05 M-5.25 -9.35 L-4.65 -9.35 -4.6 -9.4 Q-4.55 -9.35 -4.55 -9.15 -4.55 -8.9 -4.65 -8.8 L-4.85 -8.6 -5.65 -8.65 -5.65 -8.7 -5.7 -8.95 -5.65 -9.25 -5.65 -9.35 -5.25 -9.35 M-6.3 -13.6 L-6.3 -13.4 -6.35 -13.35 Q-6.35 -13.3 -6.45 -13.3 L-6.65 -13.3 Q-6.7 -13.35 -6.7 -13.6 -6.7 -13.8 -6.65 -13.85 L-6.55 -13.85 Q-6.3 -13.8 -6.3 -13.6 M-9.55 -8.2 Q-9.4 -8.4 -8.45 -8.85 -7.4 -9.35 -7.0 -9.55 L-6.5 -9.55 -6.45 -9.6 -6.45 -9.35 Q-6.45 -8.85 -7.7 -7.5 -9.05 -6.05 -9.1 -5.95 -9.65 -5.9 -9.85 -6.2 -9.95 -6.35 -9.95 -6.7 -9.95 -7.0 -9.9 -7.4 -9.75 -7.95 -9.55 -8.2 M-5.95 -5.9 L-5.95 -6.1 Q-5.95 -6.5 -5.7 -6.45 -5.45 -6.45 -5.2 -6.15 -5.2 -6.0 -5.3 -5.95 L-5.9 -5.9 -5.95 -5.9 M-7.65 -5.85 Q-7.7 -5.7 -7.95 -5.55 L-8.25 -5.55 -8.3 -5.5 Q-8.35 -5.55 -8.35 -5.75 -8.35 -5.9 -8.25 -6.0 -8.15 -6.1 -7.8 -6.2 -7.65 -6.05 -7.65 -5.85 M-11.5 2.8 Q-11.5 2.85 -11.55 2.85 L-12.05 2.8 -12.3 2.55 Q-12.5 2.3 -12.6 2.2 L-13.05 2.2 -13.1 2.05 -12.8 1.1 Q-12.6 0.5 -12.3 0.45 -11.9 0.65 -11.7 1.45 L-11.45 2.75 -11.5 2.8 M-14.7 3.25 L-14.35 3.3 Q-14.2 3.45 -14.4 3.6 L-14.05 3.7 Q-13.8 3.7 -13.7 3.8 -13.8 3.95 -14.1 4.15 L-14.45 4.3 -15.95 4.15 -16.2 3.95 -16.2 3.5 -15.45 3.4 Q-14.95 3.35 -14.7 3.25 M-17.15 1.55 L-17.2 1.7 Q-17.25 1.75 -17.45 1.75 -17.7 1.75 -17.9 1.55 -18.05 1.35 -18.05 1.2 -18.05 1.0 -18.0 0.85 L-17.8 0.7 Q-17.6 0.7 -17.35 0.9 -17.15 1.1 -17.05 1.3 L-17.15 1.55 M-19.65 2.25 L-20.35 2.25 -20.9 1.7 Q-21.05 1.55 -21.05 1.35 -21.05 0.1 -20.35 0.95 L-19.55 2.15 -19.65 2.25 M-19.35 2.7 Q-19.35 2.45 -19.25 2.5 L-19.15 2.5 Q-18.8 2.55 -18.6 2.65 L-18.6 2.85 -18.8 2.9 -19.0 3.0 -19.25 2.95 Q-19.35 2.9 -19.35 2.7" fill="#caf9ff" fill-rule="evenodd" stroke="none"/>
    </g>
  </defs>
</svg>
