<?xml version="1.0" encoding="UTF-8" standalone="no"?>
<svg xmlns:ffdec="https://www.free-decompiler.com/flash" xmlns:xlink="http://www.w3.org/1999/xlink" ffdec:objectType="frame" height="83.3px" width="94.5px" xmlns="http://www.w3.org/2000/svg">
  <g transform="matrix(1.0, 0.0, 0.0, 1.0, 32.55, 83.3)">
    <use ffdec:characterId="521" height="11.9" transform="matrix(7.0, 0.0, 0.0, 7.0, -32.55, -83.3)" width="13.5" xlink:href="#shape0"/>
  </g>
  <defs>
    <g id="shape0" transform="matrix(1.0, 0.0, 0.0, 1.0, 4.65, 11.9)">
      <path d="M0.85 -3.1 Q0.8 -2.8 0.55 -2.7 L0.45 -2.6 0.4 -3.15 0.85 -3.1 M-2.45 -7.6 Q-2.45 -7.35 -2.25 -7.4 -2.15 -7.4 -2.05 -7.45 -1.85 -7.55 -1.95 -7.75 -1.95 -7.8 -2.05 -7.9 L-2.15 -7.95 -2.25 -7.95 Q-2.5 -7.85 -2.45 -7.6 M-2.65 -7.35 Q-2.6 -7.5 -2.65 -7.65 -2.55 -7.95 -2.2 -8.1 -1.9 -8.25 -1.6 -8.05 L-1.4 -7.5 -1.8 -7.05 -2.15 -6.95 -2.35 -6.95 -2.4 -7.0 Q-2.55 -7.1 -2.6 -7.25 L-2.65 -7.35 M-1.45 -7.15 L-1.45 -7.1 -1.5 -7.1 -1.45 -7.15" fill="#fffdff" fill-rule="evenodd" stroke="none"/>
      <path d="M0.4 -3.15 L0.35 -3.25 0.9 -3.35 0.85 -3.1 0.4 -3.15 M-2.65 -7.65 Q-2.6 -7.5 -2.65 -7.35 L-2.65 -7.65 M-1.8 -7.05 L-1.4 -7.5 -1.45 -7.15 -1.5 -7.1 -1.8 -7.05" fill="#cccccc" fill-rule="evenodd" stroke="none"/>
      <path d="M-1.0 -7.05 L-0.95 -7.0 -1.0 -7.0 -1.0 -7.05" fill="#86aab3" fill-rule="evenodd" stroke="none"/>
      <path d="M-2.2 -7.8 Q-2.15 -7.8 -2.1 -7.75 -2.05 -7.7 -2.05 -7.65 -2.05 -7.55 -2.1 -7.5 -2.15 -7.45 -2.2 -7.45 -2.25 -7.45 -2.3 -7.5 -2.35 -7.55 -2.35 -7.65 -2.35 -7.7 -2.3 -7.75 L-2.2 -7.8" fill="#3300cc" fill-rule="evenodd" stroke="none"/>
      <path d="M0.5 -7.3 L0.4 -7.25 Q-0.25 -6.9 -0.9 -6.95 L-0.95 -7.0 -1.0 -7.05 -1.0 -7.1 Q-0.8 -7.7 -1.2 -8.2 -1.45 -8.45 -1.75 -8.5 -2.05 -8.55 -2.3 -8.5 L-2.35 -8.45 Q-2.8 -8.3 -2.95 -7.9 L-3.0 -7.95 Q-3.25 -8.0 -3.35 -8.2 -3.2 -8.45 -2.95 -8.55 -2.4 -8.7 -1.85 -8.7 L-1.45 -8.6 Q-1.05 -8.5 -0.7 -8.3 -0.3 -8.05 -0.05 -7.65 L0.45 -8.05 0.5 -7.75 Q0.3 -7.5 0.3 -7.3 L0.5 -7.3 M-2.95 -6.15 L-2.9 -6.15 -2.95 -6.05 Q-3.05 -6.1 -3.1 -6.15 L-3.15 -6.25 Q-3.2 -6.6 -2.95 -6.8 L-2.85 -6.8 -2.65 -6.65 -2.7 -6.6 Q-2.85 -6.4 -2.95 -6.15 M-3.8 -4.8 L-3.2 -4.5 -2.95 -4.7 Q-2.35 -5.05 -1.65 -5.1 L-1.55 -5.15 -1.25 -4.95 Q-1.45 -4.85 -1.7 -4.75 -2.05 -4.55 -2.4 -4.45 L-2.55 -4.35 Q-2.75 -4.25 -2.95 -4.2 -3.25 -4.05 -3.55 -4.0 L-3.7 -4.3 -3.8 -4.3 -3.8 -4.8 M-1.55 -5.65 L-1.75 -5.65 -2.05 -5.55 Q-2.25 -5.5 -2.35 -5.65 L-2.15 -5.95 Q-1.95 -6.2 -1.65 -6.25 L-1.15 -6.2 Q-0.9 -6.1 -0.75 -5.9 -0.55 -5.55 -0.85 -5.3 -0.95 -5.65 -1.3 -5.8 L-1.55 -5.65 M-1.25 -4.55 L-1.95 -3.15 -2.2 -3.15 -2.6 -3.25 -3.65 -3.35 -3.8 -3.75 -3.65 -3.7 -3.3 -3.65 -3.0 -3.6 Q-2.8 -3.75 -2.6 -3.85 -2.2 -4.0 -1.8 -4.2 L-1.25 -4.55 M0.1 -2.55 L-1.1 -2.4 Q-1.7 -2.4 -2.3 -2.45 -2.9 -2.5 -3.5 -2.6 L-3.55 -2.7 -3.1 -2.6 -1.7 -2.55 Q-0.75 -2.65 0.05 -3.1 L0.1 -2.55 M-2.55 -2.0 L-2.1 -1.8 -1.8 -1.75 -1.05 -1.55 0.0 -1.5 0.05 -1.75 Q0.1 -1.9 0.3 -1.9 L0.95 -1.8 Q1.05 -1.8 1.15 -1.7 L1.4 -1.65 Q1.5 -1.7 1.6 -1.75 L1.85 -2.0 Q2.15 -2.35 2.35 -2.75 L2.55 -3.25 2.75 -3.8 Q2.8 -3.95 2.9 -4.05 3.0 -4.15 3.15 -4.15 3.2 -4.15 3.2 -4.1 L3.0 -4.0 Q2.85 -3.9 2.8 -3.8 2.7 -3.5 2.7 -3.2 L2.65 -2.95 2.6 -2.6 Q2.55 -2.35 2.4 -2.15 L1.9 -1.3 1.8 -1.35 1.75 -1.45 1.55 -1.45 Q1.3 -1.4 1.1 -1.25 0.8 -1.0 0.45 -0.85 0.3 -0.85 0.25 -0.75 L-1.05 -0.75 -1.3 -0.9 -1.4 -0.85 -2.55 -2.0 M3.5 -3.8 L3.55 -3.85 3.95 -3.85 3.85 -3.75 3.95 -3.7 3.95 -3.65 3.7 -3.45 3.45 -3.45 3.5 -3.8 M4.85 -4.8 L4.55 -4.55 4.55 -4.65 4.4 -4.4 Q4.3 -4.25 4.15 -4.2 L3.95 -4.3 Q4.2 -4.5 4.2 -4.85 4.2 -5.0 4.1 -5.2 L4.0 -5.5 4.0 -5.75 Q4.1 -6.05 4.4 -6.2 4.3 -5.65 4.45 -5.05 L4.6 -5.2 4.6 -5.1 4.65 -5.25 4.75 -5.6 Q4.8 -5.95 4.6 -6.25 L4.9 -6.45 4.95 -6.4 4.85 -4.8 M3.8 -5.65 L3.65 -5.55 3.4 -5.55 3.4 -5.85 Q3.5 -6.3 3.95 -6.55 L4.9 -7.05 Q5.1 -7.05 5.25 -6.95 5.4 -6.9 5.4 -6.75 L5.2 -6.35 5.1 -6.65 5.2 -7.0 Q4.85 -6.85 4.5 -6.65 3.9 -6.35 3.8 -5.65 M3.3 -6.0 L3.15 -5.9 2.95 -5.95 Q3.05 -6.35 2.95 -6.7 L2.85 -7.05 2.9 -7.1 3.1 -7.15 3.15 -7.2 Q3.45 -7.1 3.75 -6.9 L3.65 -6.8 Q3.3 -6.5 3.3 -6.0 M2.35 -7.8 L2.55 -7.95 2.6 -7.85 2.65 -7.45 2.35 -7.8 M0.8 -4.7 Q0.6 -4.95 0.75 -5.2 1.05 -5.8 1.65 -5.85 L1.85 -5.95 Q1.95 -6.0 1.95 -6.1 L2.0 -6.55 1.95 -7.3 2.1 -7.15 Q2.2 -7.0 2.3 -6.85 2.4 -6.55 2.5 -6.2 2.6 -5.6 2.15 -5.25 L2.15 -5.1 Q2.05 -4.95 1.9 -4.85 1.65 -4.7 1.5 -4.45 L1.3 -4.45 1.1 -4.85 Q1.45 -5.0 1.8 -5.1 2.0 -5.15 2.15 -5.35 2.25 -5.5 2.25 -5.65 L2.15 -5.75 Q1.85 -5.4 1.4 -5.35 0.95 -5.4 0.85 -4.95 L0.8 -4.7" fill="#4d313a" fill-rule="evenodd" stroke="none"/>
      <path d="M0.5 -7.3 Q0.7 -7.4 0.8 -7.65 1.0 -8.15 0.75 -8.6 0.6 -8.8 0.4 -8.95 L0.35 -9.0 0.1 -9.1 Q-0.65 -9.35 -1.5 -9.4 L-1.05 -9.45 -0.15 -9.3 Q0.65 -9.15 1.4 -8.85 1.25 -9.25 0.9 -9.45 L1.2 -9.45 1.85 -9.35 1.7 -9.2 1.85 -9.1 2.75 -8.9 Q2.95 -8.85 3.1 -8.7 L2.75 -8.55 2.85 -8.5 3.0 -8.4 Q3.15 -8.3 3.3 -8.25 3.6 -8.15 3.85 -7.9 L3.55 -7.8 3.25 -7.8 3.25 -7.7 3.4 -7.6 3.4 -7.55 3.95 -7.4 Q3.75 -7.25 3.8 -6.95 L3.75 -6.9 Q3.45 -7.1 3.15 -7.2 L3.1 -7.15 2.9 -7.1 Q3.15 -7.3 3.1 -7.6 3.1 -8.0 2.8 -8.25 2.5 -8.5 2.1 -8.45 L2.0 -8.4 2.05 -8.15 Q2.15 -8.05 2.3 -8.05 2.5 -8.05 2.6 -7.85 L2.55 -7.95 2.35 -7.8 2.05 -8.0 Q2.15 -7.75 2.3 -7.45 L2.4 -7.1 Q2.6 -6.4 2.85 -5.7 L2.95 -5.95 3.15 -5.9 3.3 -6.0 3.35 -5.8 3.4 -5.85 3.4 -5.55 3.65 -5.55 3.8 -5.65 3.8 -4.75 Q3.8 -4.5 3.75 -4.3 3.7 -4.15 3.75 -4.05 L4.1 -4.05 4.2 -4.15 4.15 -4.2 Q4.3 -4.25 4.4 -4.4 L4.55 -4.65 4.55 -4.55 4.85 -4.8 Q4.75 -4.35 4.5 -3.95 L4.45 -3.95 Q4.25 -3.7 3.95 -3.7 L3.85 -3.75 3.95 -3.85 3.55 -3.85 3.5 -3.8 3.45 -3.9 3.2 -4.1 Q3.2 -4.15 3.15 -4.15 3.0 -4.15 2.9 -4.05 2.8 -3.95 2.75 -3.8 L2.55 -3.25 2.35 -2.75 Q2.15 -2.35 1.85 -2.0 L1.6 -1.75 Q1.5 -1.7 1.4 -1.65 L1.15 -1.7 Q1.05 -1.8 0.95 -1.8 L0.3 -1.9 Q0.1 -1.9 0.05 -1.75 L0.0 -1.5 -1.05 -1.55 -1.8 -1.75 -2.1 -1.8 -2.55 -2.0 -3.3 -2.3 -3.5 -2.6 Q-2.9 -2.5 -2.3 -2.45 -1.7 -2.4 -1.1 -2.4 L0.1 -2.55 0.0 -2.1 0.2 -2.1 0.5 -2.2 Q0.9 -2.3 1.15 -2.7 1.3 -2.95 1.2 -3.3 L1.55 -3.15 Q1.4 -3.45 1.1 -3.65 0.8 -3.9 0.45 -3.75 0.05 -3.65 -0.3 -3.4 -0.55 -3.2 -0.85 -3.15 L-1.95 -3.15 -1.25 -4.55 Q-1.05 -4.65 -0.9 -4.9 -0.8 -5.1 -0.85 -5.3 -0.55 -5.55 -0.75 -5.9 -0.9 -6.1 -1.15 -6.2 L-1.65 -6.25 Q-1.95 -6.2 -2.15 -5.95 L-2.35 -5.65 Q-2.25 -5.5 -2.05 -5.55 L-1.75 -5.65 -1.55 -5.65 Q-1.7 -5.45 -1.6 -5.25 L-1.6 -5.2 -1.55 -5.15 -1.65 -5.1 Q-2.35 -5.05 -2.95 -4.7 L-3.2 -4.5 -3.8 -4.8 -3.8 -6.2 -3.7 -6.35 Q-3.45 -6.7 -2.95 -6.8 -3.2 -6.6 -3.15 -6.25 L-3.1 -6.15 Q-3.05 -6.1 -2.95 -6.05 L-2.9 -6.15 -2.95 -6.15 -2.8 -6.1 -2.45 -6.15 -2.05 -6.3 -1.05 -6.65 Q-0.9 -6.25 -0.6 -6.05 -0.4 -6.2 -0.5 -6.45 -0.6 -6.8 -0.9 -6.95 -0.25 -6.9 0.4 -7.25 L0.5 -7.3 M-3.35 -8.2 L-3.35 -8.25 -3.4 -8.35 -3.4 -8.45 -3.35 -8.5 Q-3.1 -8.65 -2.85 -8.75 -2.45 -8.9 -2.05 -9.0 L-1.35 -9.05 Q-0.75 -9.1 -0.2 -8.8 0.0 -8.65 0.15 -8.5 0.35 -8.3 0.45 -8.05 L-0.05 -7.65 Q-0.3 -8.05 -0.7 -8.3 -1.05 -8.5 -1.45 -8.6 L-1.85 -8.7 Q-2.4 -8.7 -2.95 -8.55 -3.2 -8.45 -3.35 -8.2 M1.3 -4.45 L1.5 -4.45 Q1.65 -4.7 1.9 -4.85 2.05 -4.95 2.15 -5.1 L2.15 -5.25 Q2.6 -5.6 2.5 -6.2 2.4 -6.55 2.3 -6.85 2.2 -7.0 2.1 -7.15 L1.95 -7.3 2.0 -6.55 1.95 -6.1 Q1.95 -6.0 1.85 -5.95 L1.65 -5.85 Q1.05 -5.8 0.75 -5.2 0.6 -4.95 0.8 -4.7 0.85 -4.6 0.9 -4.55 L1.1 -4.35 Q1.2 -4.3 1.3 -4.25 L1.3 -4.45 M4.9 -7.05 L5.45 -7.45 5.5 -7.3 Q5.55 -7.0 5.4 -6.75 5.4 -6.9 5.25 -6.95 5.1 -7.05 4.9 -7.05 M4.6 -5.2 L4.65 -5.25 4.6 -5.1 4.6 -5.2 M-3.8 -3.75 L-3.65 -3.35 -4.15 -3.25 Q-4.2 -3.5 -4.2 -3.75 L-4.15 -4.05 -3.8 -3.75" fill="#8c5b6c" fill-rule="evenodd" stroke="none"/>
      <path d="M6.15 -11.1 L6.5 -11.25 6.7 -11.35 6.65 -11.3 Q7.35 -11.25 8.1 -11.1 L8.4 -11.0 Q8.05 -10.85 7.7 -10.65 L7.55 -10.55 7.5 -10.5 7.7 -10.45 Q7.95 -10.4 8.15 -10.25 L8.35 -10.1 7.85 -10.15 7.75 -10.2 Q7.55 -10.15 7.5 -10.0 7.45 -9.9 7.45 -9.75 7.5 -9.55 7.45 -9.4 L7.2 -8.7 6.9 -9.3 6.7 -9.3 6.65 -9.35 Q6.5 -9.3 6.45 -9.2 L6.4 -8.95 6.3 -8.75 6.2 -8.65 6.25 -9.1 Q6.65 -9.6 6.4 -10.1 6.3 -10.35 6.15 -10.5 L5.95 -10.75 5.6 -10.55 5.8 -10.85 Q5.8 -10.95 5.9 -11.0 L6.15 -11.1 M2.05 -9.25 L2.25 -9.4 Q2.05 -9.65 1.7 -9.65 L1.3 -9.7 1.25 -9.75 1.5 -9.75 1.6 -9.8 2.1 -9.9 2.85 -10.1 3.05 -10.2 3.0 -10.1 3.25 -10.15 Q3.1 -10.1 3.0 -10.0 2.8 -9.9 2.7 -9.75 L2.6 -9.65 2.5 -9.4 2.6 -9.35 4.75 -9.45 4.75 -9.4 4.35 -9.35 4.3 -9.3 Q4.15 -9.25 4.0 -9.25 3.85 -9.2 3.75 -9.05 L3.7 -9.05 3.7 -9.0 3.55 -8.7 3.6 -8.7 Q3.75 -8.6 3.9 -8.6 L4.3 -8.65 5.05 -8.9 4.95 -8.75 Q4.8 -8.5 4.55 -8.3 L4.35 -8.05 4.3 -7.9 4.4 -7.7 4.6 -7.75 4.65 -7.65 4.55 -7.55 4.5 -7.5 4.5 -7.45 3.95 -7.1 4.2 -7.45 3.75 -7.65 3.9 -7.75 Q4.05 -7.8 4.0 -7.95 L4.0 -8.0 3.35 -8.45 3.2 -8.5 3.3 -8.6 3.35 -8.75 3.25 -8.8 3.2 -8.85 Q2.7 -9.25 2.1 -9.25 L2.05 -9.25 M0.55 -9.9 L1.2 -10.2 0.9 -9.8 0.5 -9.9 0.55 -9.9" fill="#993300" fill-rule="evenodd" stroke="none"/>
      <path d="M5.8 -9.35 L5.75 -9.5 Q5.75 -9.55 5.85 -9.7 6.05 -9.95 6.05 -10.3 6.2 -10.0 6.05 -9.65 L5.95 -9.5 5.8 -9.35 M4.75 -9.4 L4.75 -9.45 4.55 -9.55 4.4 -9.65 4.5 -9.95 5.05 -10.05 4.85 -9.4 4.75 -9.4 M5.25 -10.05 L5.75 -10.2 5.5 -9.7 5.3 -9.8 5.25 -10.05 M4.75 -9.0 L3.6 -8.7 4.8 -9.2 4.75 -9.0 M5.3 -9.3 L5.4 -9.3 5.45 -9.25 5.1 -9.1 5.25 -9.45 5.35 -9.35 5.3 -9.3 M4.15 -9.65 L3.5 -9.65 4.25 -9.85 4.15 -9.65" fill="#326632" fill-rule="evenodd" stroke="none"/>
      <path d="M7.05 -11.9 L7.15 -11.9 7.3 -11.8 7.25 -11.7 7.0 -11.5 7.7 -11.55 8.4 -11.35 8.65 -11.2 8.85 -10.85 7.95 -10.65 8.25 -10.5 8.5 -10.35 Q8.7 -10.2 8.65 -9.95 L8.6 -10.0 8.65 -9.85 8.5 -9.8 Q8.2 -9.85 7.85 -9.95 L7.85 -9.6 Q7.85 -9.35 7.8 -9.1 7.75 -8.9 7.6 -8.75 7.45 -8.55 7.2 -8.55 L7.1 -8.55 Q6.75 -8.8 6.7 -9.2 L6.65 -8.95 Q6.6 -8.75 6.5 -8.55 6.4 -8.4 6.25 -8.35 L5.95 -8.3 5.95 -8.8 Q5.6 -8.5 5.2 -8.3 L5.25 -8.35 Q5.25 -8.0 5.05 -7.7 5.25 -7.95 5.6 -8.0 6.0 -7.6 5.95 -7.05 5.9 -6.75 5.75 -6.45 5.6 -6.25 5.35 -6.2 L5.3 -5.95 5.25 -5.4 Q5.25 -4.9 5.05 -4.4 L4.85 -3.9 Q4.75 -3.6 4.6 -3.3 L4.4 -3.0 Q4.05 -2.65 3.6 -2.85 L3.55 -2.95 Q3.25 -3.2 3.15 -3.6 L3.05 -3.4 Q3.25 -2.7 2.95 -2.0 L2.85 -1.7 2.65 -1.45 Q2.5 -1.2 2.25 -1.1 L2.0 -0.95 Q1.8 -0.85 1.65 -0.7 1.5 -0.55 1.3 -0.45 0.8 -0.1 0.2 0.0 -0.4 0.05 -0.95 -0.2 -1.35 -0.45 -1.75 -0.7 L-2.55 -1.3 Q-3.25 -1.8 -3.7 -2.45 L-3.9 -2.5 -3.95 -2.5 Q-4.0 -2.65 -3.9 -2.8 L-4.1 -2.8 -4.3 -2.9 Q-4.45 -2.95 -4.5 -3.1 L-4.6 -3.4 Q-4.75 -4.0 -4.3 -4.45 L-4.3 -4.65 -4.5 -4.8 -4.6 -5.05 Q-4.7 -5.2 -4.6 -5.35 -4.45 -5.7 -4.15 -5.85 L-4.2 -6.2 Q-4.25 -6.65 -3.95 -7.05 -3.75 -7.3 -3.45 -7.35 L-3.35 -7.3 -3.4 -7.5 Q-3.7 -7.5 -3.75 -7.85 L-3.8 -8.1 Q-3.8 -8.2 -3.75 -8.3 L-3.55 -8.65 -3.05 -9.15 Q-2.7 -9.35 -2.25 -9.45 -2.3 -9.6 -2.15 -9.75 L-1.9 -9.85 -1.15 -10.05 -0.45 -9.95 -0.2 -10.0 0.25 -10.1 0.5 -10.2 Q0.7 -10.3 0.9 -10.45 1.15 -10.65 1.45 -10.65 1.6 -10.25 1.35 -9.9 2.05 -10.3 2.85 -10.3 3.45 -10.35 3.95 -10.15 L3.85 -10.15 3.7 -10.05 Q4.5 -10.4 5.45 -10.55 5.4 -11.05 5.8 -11.4 6.0 -11.6 6.25 -11.65 6.45 -11.65 6.6 -11.75 L7.05 -11.9 M6.15 -11.1 L5.9 -11.0 Q5.8 -10.95 5.8 -10.85 L5.6 -10.55 5.95 -10.75 6.15 -10.5 Q6.3 -10.35 6.4 -10.1 6.65 -9.6 6.25 -9.1 L6.2 -8.65 6.3 -8.75 6.4 -8.95 6.45 -9.2 Q6.5 -9.3 6.65 -9.35 L6.7 -9.3 6.9 -9.3 7.2 -8.7 7.45 -9.4 Q7.5 -9.55 7.45 -9.75 7.45 -9.9 7.5 -10.0 7.55 -10.15 7.75 -10.2 L7.85 -10.15 8.35 -10.1 8.15 -10.25 Q7.95 -10.4 7.7 -10.45 L7.5 -10.5 7.55 -10.55 7.7 -10.65 Q8.05 -10.85 8.4 -11.0 L8.1 -11.1 Q7.35 -11.25 6.65 -11.3 L6.7 -11.35 6.5 -11.25 6.15 -11.1 M5.8 -9.35 L5.95 -9.5 6.05 -9.65 Q6.2 -10.0 6.05 -10.3 6.05 -9.95 5.85 -9.7 5.75 -9.55 5.75 -9.5 L5.8 -9.35 M4.75 -9.45 L2.6 -9.35 2.5 -9.4 2.6 -9.65 2.7 -9.75 Q2.8 -9.9 3.0 -10.0 3.1 -10.1 3.25 -10.15 L3.0 -10.1 3.05 -10.2 2.85 -10.1 2.1 -9.9 1.6 -9.8 1.5 -9.75 1.25 -9.75 1.3 -9.7 1.7 -9.65 Q2.05 -9.65 2.25 -9.4 L2.05 -9.25 2.1 -9.25 Q2.7 -9.25 3.2 -8.85 L3.25 -8.8 3.35 -8.75 3.3 -8.6 3.2 -8.5 3.35 -8.45 4.0 -8.0 4.0 -7.95 Q4.05 -7.8 3.9 -7.75 L3.75 -7.65 4.2 -7.45 3.95 -7.1 4.5 -7.45 4.5 -7.5 4.55 -7.55 4.65 -7.65 4.6 -7.75 4.4 -7.7 4.3 -7.9 4.35 -8.05 4.55 -8.3 Q4.8 -8.5 4.95 -8.75 L5.05 -8.9 4.3 -8.65 3.9 -8.6 Q3.75 -8.6 3.6 -8.7 L3.55 -8.7 3.7 -9.0 3.75 -9.05 Q3.85 -9.2 4.0 -9.25 4.15 -9.25 4.3 -9.3 L4.35 -9.35 4.75 -9.4 4.85 -9.4 5.05 -10.05 4.5 -9.95 4.4 -9.65 4.55 -9.55 4.75 -9.45 M3.75 -6.9 L3.8 -6.95 Q3.75 -7.25 3.95 -7.4 L3.4 -7.55 3.4 -7.6 3.25 -7.7 3.25 -7.8 3.55 -7.8 3.85 -7.9 Q3.6 -8.15 3.3 -8.25 3.15 -8.3 3.0 -8.4 L2.85 -8.5 2.75 -8.55 3.1 -8.7 Q2.95 -8.85 2.75 -8.9 L1.85 -9.1 1.7 -9.2 1.85 -9.35 1.2 -9.45 0.9 -9.45 Q1.25 -9.25 1.4 -8.85 0.65 -9.15 -0.15 -9.3 L-1.05 -9.45 -1.5 -9.4 Q-0.65 -9.35 0.1 -9.1 L0.35 -9.0 0.4 -8.95 Q0.6 -8.8 0.75 -8.6 1.0 -8.15 0.8 -7.65 0.7 -7.4 0.5 -7.3 L0.3 -7.3 Q0.3 -7.5 0.5 -7.75 L0.45 -8.05 Q0.35 -8.3 0.15 -8.5 0.0 -8.65 -0.2 -8.8 -0.75 -9.1 -1.35 -9.05 L-2.05 -9.0 Q-2.45 -8.9 -2.85 -8.75 -3.1 -8.65 -3.35 -8.5 L-3.4 -8.45 -3.4 -8.35 -3.35 -8.25 -3.35 -8.2 Q-3.25 -8.0 -3.0 -7.95 L-2.95 -7.9 Q-2.8 -8.3 -2.35 -8.45 L-2.3 -8.5 Q-2.05 -8.55 -1.75 -8.5 -1.45 -8.45 -1.2 -8.2 -0.8 -7.7 -1.0 -7.1 L-1.0 -7.05 -1.0 -7.0 -0.95 -7.0 -0.9 -6.95 Q-0.6 -6.8 -0.5 -6.45 -0.4 -6.2 -0.6 -6.05 -0.9 -6.25 -1.05 -6.65 L-2.05 -6.3 -2.45 -6.15 -2.8 -6.1 -2.95 -6.15 Q-2.85 -6.4 -2.7 -6.6 L-2.65 -6.65 -2.85 -6.8 -2.95 -6.8 Q-3.45 -6.7 -3.7 -6.35 L-3.8 -6.2 -3.8 -4.8 -3.8 -4.3 -3.7 -4.3 -3.55 -4.0 Q-3.25 -4.05 -2.95 -4.2 -2.75 -4.25 -2.55 -4.35 L-2.4 -4.45 Q-2.05 -4.55 -1.7 -4.75 -1.45 -4.85 -1.25 -4.95 L-1.55 -5.15 -1.6 -5.2 -1.6 -5.25 Q-1.7 -5.45 -1.55 -5.65 L-1.3 -5.8 Q-0.95 -5.65 -0.85 -5.3 -0.8 -5.1 -0.9 -4.9 -1.05 -4.65 -1.25 -4.55 L-1.8 -4.2 Q-2.2 -4.0 -2.6 -3.85 -2.8 -3.75 -3.0 -3.6 L-3.3 -3.65 -3.65 -3.7 -3.8 -3.75 -4.15 -4.05 -4.2 -3.75 Q-4.2 -3.5 -4.15 -3.25 L-3.65 -3.35 -2.6 -3.25 -2.2 -3.15 -1.95 -3.15 -0.85 -3.15 Q-0.55 -3.2 -0.3 -3.4 0.05 -3.65 0.45 -3.75 0.8 -3.9 1.1 -3.65 1.4 -3.45 1.55 -3.15 L1.2 -3.3 Q1.3 -2.95 1.15 -2.7 0.9 -2.3 0.5 -2.2 L0.2 -2.1 0.0 -2.1 0.1 -2.55 0.05 -3.1 Q-0.75 -2.65 -1.7 -2.55 L-3.1 -2.6 -3.55 -2.7 -3.5 -2.6 -3.3 -2.3 -2.55 -2.0 -1.4 -0.85 -1.3 -0.9 -1.05 -0.75 0.25 -0.75 Q0.3 -0.85 0.45 -0.85 0.8 -1.0 1.1 -1.25 1.3 -1.4 1.55 -1.45 L1.75 -1.45 1.8 -1.35 1.9 -1.3 2.4 -2.15 Q2.55 -2.35 2.6 -2.6 L2.65 -2.95 2.7 -3.2 Q2.7 -3.5 2.8 -3.8 2.85 -3.9 3.0 -4.0 L3.2 -4.1 3.45 -3.9 3.5 -3.8 3.45 -3.45 3.7 -3.45 3.95 -3.65 3.95 -3.7 Q4.25 -3.7 4.45 -3.95 L4.5 -3.95 Q4.75 -4.35 4.85 -4.8 L4.95 -6.4 4.9 -6.45 4.6 -6.25 Q4.8 -5.95 4.75 -5.6 L4.65 -5.25 4.6 -5.2 4.45 -5.05 Q4.3 -5.65 4.4 -6.2 4.1 -6.05 4.0 -5.75 L4.0 -5.5 4.1 -5.2 Q4.2 -5.0 4.2 -4.85 4.2 -4.5 3.95 -4.3 L4.15 -4.2 4.2 -4.15 4.1 -4.05 3.75 -4.05 Q3.7 -4.15 3.75 -4.3 3.8 -4.5 3.8 -4.75 L3.8 -5.65 Q3.9 -6.35 4.5 -6.65 4.85 -6.85 5.2 -7.0 L5.1 -6.65 5.2 -6.35 5.4 -6.75 Q5.55 -7.0 5.5 -7.3 L5.45 -7.45 4.9 -7.05 3.95 -6.55 Q3.5 -6.3 3.4 -5.85 L3.35 -5.8 3.3 -6.0 Q3.3 -6.5 3.65 -6.8 L3.75 -6.9 M2.95 -5.95 L2.85 -5.7 Q2.6 -6.4 2.4 -7.1 L2.3 -7.45 Q2.15 -7.75 2.05 -8.0 L2.35 -7.8 2.65 -7.45 2.6 -7.85 Q2.5 -8.05 2.3 -8.05 2.15 -8.05 2.05 -8.15 L2.0 -8.4 2.1 -8.45 Q2.5 -8.5 2.8 -8.25 3.1 -8.0 3.1 -7.6 3.15 -7.3 2.9 -7.1 L2.85 -7.05 2.95 -6.7 Q3.05 -6.35 2.95 -5.95 M0.5 -9.9 L0.9 -9.8 1.2 -10.2 0.55 -9.9 0.5 -9.9 M0.8 -4.7 L0.85 -4.95 Q0.95 -5.4 1.4 -5.35 1.85 -5.4 2.15 -5.75 L2.25 -5.65 Q2.25 -5.5 2.15 -5.35 2.0 -5.15 1.8 -5.1 1.45 -5.0 1.1 -4.85 L1.3 -4.45 1.3 -4.25 Q1.2 -4.3 1.1 -4.35 L0.9 -4.55 Q0.85 -4.6 0.8 -4.7 M5.3 -9.3 L5.35 -9.35 5.25 -9.45 5.1 -9.1 5.45 -9.25 5.4 -9.3 5.3 -9.3 M4.75 -9.0 L4.8 -9.2 3.6 -8.7 4.75 -9.0 M5.25 -10.05 L5.3 -9.8 5.5 -9.7 5.75 -10.2 5.25 -10.05 M4.15 -9.65 L4.25 -9.85 3.5 -9.65 4.15 -9.65 M4.95 -8.75 L4.95 -8.75 M0.85 -3.1 L0.9 -3.35 0.35 -3.25 0.4 -3.15 0.45 -2.6 0.55 -2.7 Q0.8 -2.8 0.85 -3.1 M-2.2 -7.8 L-2.3 -7.75 Q-2.35 -7.7 -2.35 -7.65 -2.35 -7.55 -2.3 -7.5 -2.25 -7.45 -2.2 -7.45 -2.15 -7.45 -2.1 -7.5 -2.05 -7.55 -2.05 -7.65 -2.05 -7.7 -2.1 -7.75 -2.15 -7.8 -2.2 -7.8 M-2.45 -7.6 Q-2.5 -7.85 -2.25 -7.95 L-2.15 -7.95 -2.05 -7.9 Q-1.95 -7.8 -1.95 -7.75 -1.85 -7.55 -2.05 -7.45 -2.15 -7.4 -2.25 -7.4 -2.45 -7.35 -2.45 -7.6 M-2.65 -7.65 L-2.65 -7.35 -2.6 -7.25 Q-2.55 -7.1 -2.4 -7.0 L-2.35 -6.95 -2.15 -6.95 -1.8 -7.05 -1.5 -7.1 -1.45 -7.1 -1.45 -7.15 -1.4 -7.5 -1.6 -8.05 Q-1.9 -8.25 -2.2 -8.1 -2.55 -7.95 -2.65 -7.65" fill="#111111" fill-rule="evenodd" stroke="none"/>
    </g>
  </defs>
</svg>
