<?xml version="1.0" encoding="UTF-8" standalone="no"?>
<svg xmlns:ffdec="https://www.free-decompiler.com/flash" xmlns:xlink="http://www.w3.org/1999/xlink" ffdec:objectType="frame" height="115.15px" width="62.65px" xmlns="http://www.w3.org/2000/svg">
  <g transform="matrix(1.0, 0.0, 0.0, 1.0, 33.6, 115.5)">
    <use ffdec:characterId="695" height="16.45" transform="matrix(7.0, 0.0, 0.0, 7.0, -33.6, -115.5)" width="8.95" xlink:href="#shape0"/>
  </g>
  <defs>
    <g id="shape0" transform="matrix(1.0, 0.0, 0.0, 1.0, 4.8, 16.5)">
      <path d="M2.75 -3.65 L2.8 -3.6 2.75 -3.6 2.75 -3.65 M1.0 -2.45 L0.95 -2.4 0.95 -2.45 1.0 -2.45 M-0.9 -1.3 L-0.9 -1.3" fill="#8c5b6c" fill-rule="evenodd" stroke="none"/>
      <path d="M0.05 -15.05 L0.6 -14.8 1.55 -14.3 1.6 -14.3 1.05 -14.85 Q0.7 -15.2 0.45 -15.3 L0.15 -15.5 Q-0.1 -15.65 -0.4 -15.7 -0.7 -15.75 -1.15 -15.7 -1.35 -15.7 -1.35 -15.85 -1.35 -15.95 -1.45 -15.9 L-1.4 -15.85 -1.35 -15.75 -1.35 -15.65 Q-0.85 -15.55 0.05 -15.05 M1.3 -15.15 L1.95 -14.5 Q2.1 -14.35 2.45 -14.25 2.8 -14.1 2.9 -13.95 3.05 -13.85 3.1 -13.65 L3.2 -13.3 3.5 -12.6 Q3.7 -12.15 3.8 -11.9 L3.7 -11.8 3.7 -11.75 Q3.7 -11.7 3.55 -11.65 L3.8 -10.65 Q4.15 -9.4 4.15 -9.15 4.15 -9.0 3.45 -8.7 L3.45 -8.65 Q3.45 -8.6 3.2 -8.2 2.95 -7.75 2.85 -7.55 L2.8 -7.05 2.85 -7.1 2.85 -7.05 2.9 -7.05 Q3.05 -7.15 3.05 -6.9 3.05 -6.55 2.8 -6.0 L2.95 -5.85 Q3.15 -5.9 3.45 -5.65 3.9 -5.3 3.9 -4.95 3.9 -4.65 3.8 -4.3 L3.7 -4.05 3.75 -4.0 3.75 -3.85 3.85 -3.45 Q4.0 -3.1 4.0 -2.9 4.0 -2.65 3.7 -2.4 L3.15 -2.0 3.2 -1.85 Q3.2 -1.7 3.1 -1.55 3.0 -1.3 2.55 -0.8 2.0 -0.2 1.6 -0.1 L1.5 -0.1 1.3 -0.05 1.15 -0.1 1.1 -0.15 0.6 -0.55 0.45 -0.7 0.2 -0.6 Q-0.05 -0.5 -0.15 -0.5 -0.55 -0.5 -0.95 -0.75 -1.1 -0.85 -1.2 -0.95 -1.45 -0.95 -1.7 -1.1 -2.0 -1.2 -2.2 -1.35 -2.45 -1.55 -2.65 -1.75 -2.9 -1.95 -3.05 -2.3 L-3.15 -2.3 Q-3.3 -2.3 -3.25 -2.35 L-3.5 -2.6 Q-3.65 -2.85 -3.65 -2.95 -3.65 -3.3 -3.4 -3.35 L-3.4 -3.45 Q-3.65 -3.65 -3.85 -3.95 -4.3 -4.65 -4.3 -5.2 -4.3 -5.6 -4.25 -5.95 -4.1 -6.6 -3.75 -6.6 L-3.65 -6.6 -3.75 -7.35 -3.7 -7.55 Q-3.95 -7.65 -4.25 -7.95 -4.8 -8.5 -4.8 -8.6 L-4.3 -10.05 Q-4.2 -10.3 -4.1 -10.85 -4.0 -11.2 -3.75 -11.4 -4.0 -11.7 -4.0 -11.75 L-3.95 -12.05 -3.9 -12.05 Q-3.8 -12.45 -3.5 -13.05 L-3.65 -13.1 Q-3.75 -13.2 -3.75 -13.3 L-3.7 -14.25 Q-3.7 -14.6 -3.45 -15.15 -3.25 -15.55 -2.8 -16.05 -2.6 -16.15 -2.45 -16.4 L-1.7 -16.4 Q-1.6 -16.3 -1.5 -16.05 L-1.3 -16.25 -0.55 -16.2 0.1 -16.05 Q0.35 -15.95 0.5 -15.85 0.9 -15.55 1.3 -15.15 M3.2 -12.25 L3.15 -12.3 Q2.9 -12.75 2.8 -12.95 2.7 -13.35 2.5 -13.55 2.25 -13.75 1.9 -13.85 1.35 -14.0 0.3 -14.75 -0.7 -15.4 -1.4 -15.6 L-1.5 -15.45 -2.0 -14.65 -2.6 -13.85 Q-3.05 -13.2 -3.05 -13.1 L-3.05 -12.95 -3.0 -12.95 -3.3 -12.55 -3.35 -12.45 -3.45 -12.15 -3.55 -12.0 -3.6 -11.9 -3.05 -11.2 Q-2.3 -10.3 -2.05 -10.3 -0.6 -10.9 0.85 -11.4 2.7 -12.0 3.35 -12.0 L3.2 -12.25 M3.4 -11.0 L3.35 -11.05 3.35 -11.15 3.15 -11.5 2.75 -11.4 Q1.45 -11.1 0.7 -10.85 L-0.8 -10.25 Q-2.0 -9.8 -2.1 -9.8 -2.6 -9.8 -2.85 -10.05 -3.0 -10.25 -3.3 -10.7 L-3.3 -10.75 -3.65 -11.2 -3.75 -10.8 Q-3.9 -10.4 -3.9 -10.15 -4.3 -8.9 -4.3 -8.75 -4.3 -8.7 -3.7 -8.15 L-3.6 -8.05 Q-3.55 -8.55 -3.25 -8.8 -2.9 -9.1 -2.45 -9.1 -1.95 -9.05 -1.6 -8.7 -1.3 -8.45 -1.25 -8.05 L-1.25 -7.9 -1.25 -7.7 -0.9 -7.8 -0.85 -7.75 -0.6 -7.85 0.05 -7.95 1.35 -8.4 2.65 -8.75 Q3.75 -9.1 3.75 -9.4 L3.75 -9.45 3.7 -9.7 3.7 -9.85 3.65 -10.05 Q3.5 -10.35 3.5 -10.45 3.5 -10.65 3.4 -11.0 M1.75 -8.05 Q-0.3 -7.45 -1.35 -7.25 L-1.65 -7.05 Q-1.8 -7.2 -1.75 -7.45 -1.7 -7.8 -1.75 -7.9 -2.1 -8.75 -2.55 -8.75 -3.2 -8.75 -3.3 -8.25 L-3.3 -7.75 -3.15 -7.65 Q-3.15 -7.4 -3.35 -7.4 L-3.4 -7.4 Q-3.2 -7.05 -3.2 -6.15 L-3.1 -6.1 -2.7 -6.0 -1.55 -5.95 Q-1.15 -5.95 -0.4 -6.15 L0.9 -6.45 Q1.5 -6.55 2.1 -6.8 L2.4 -6.9 Q2.45 -7.7 2.95 -8.45 L1.75 -8.05 M3.0 -4.65 L2.95 -4.75 Q2.85 -5.0 2.65 -5.2 L2.55 -5.05 2.5 -4.9 2.5 -4.8 2.55 -4.55 2.75 -4.35 3.0 -4.2 3.05 -4.4 3.05 -4.45 3.0 -4.65 M2.8 -3.6 L2.8 -3.7 2.9 -3.75 2.9 -3.8 Q2.8 -3.85 2.75 -3.9 L2.75 -3.65 2.75 -3.6 2.8 -3.6 M3.2 -3.75 L3.0 -3.5 3.0 -3.4 Q3.0 -3.1 2.65 -2.5 L2.55 -2.35 2.95 -2.25 3.15 -2.5 3.45 -2.75 Q3.55 -2.9 3.55 -2.95 L3.5 -3.45 3.45 -3.8 3.2 -3.75 M-2.6 -3.55 Q-2.4 -3.45 -2.15 -3.4 L-2.0 -3.4 Q-0.8 -3.4 -0.05 -3.9 L0.65 -4.4 Q1.15 -4.8 1.6 -5.1 1.8 -5.2 2.05 -5.55 L2.15 -5.65 2.45 -6.15 2.5 -6.2 2.65 -6.5 2.65 -6.55 2.35 -6.4 2.2 -6.35 1.3 -6.0 Q-0.35 -5.5 -1.1 -5.5 L-2.2 -5.6 Q-2.75 -5.6 -3.25 -5.8 L-3.25 -5.75 Q-3.45 -5.95 -3.55 -5.9 L-3.6 -5.95 -3.65 -5.95 -3.7 -6.0 -3.8 -5.85 -3.9 -5.3 Q-3.9 -4.95 -3.6 -4.45 L-3.5 -4.35 -3.45 -4.25 Q-3.2 -3.9 -2.95 -3.7 L-2.6 -3.55 M2.25 -5.0 L2.0 -4.65 1.95 -4.6 Q0.45 -2.95 -2.0 -2.95 -2.45 -2.95 -2.8 -3.1 -2.8 -3.05 -2.8 -2.95 L-2.8 -2.7 Q-2.7 -2.45 -2.45 -2.25 L-2.3 -2.15 -2.35 -2.25 -2.3 -2.55 -2.25 -2.6 -2.15 -2.75 -2.0 -2.85 -1.9 -2.9 Q-1.6 -2.85 -1.45 -2.65 -1.35 -2.5 -1.35 -2.35 L-1.35 -1.95 Q-1.4 -1.85 -1.45 -1.75 -1.3 -1.7 -1.2 -1.7 L-0.85 -1.7 -0.95 -1.8 Q-1.05 -1.9 -1.1 -1.95 L-1.1 -2.0 Q-1.1 -2.15 -0.75 -1.95 L-0.75 -2.2 -0.8 -2.35 Q-0.8 -2.6 -0.6 -2.8 -0.35 -3.0 -0.1 -3.0 L0.2 -3.0 0.35 -2.85 Q0.55 -2.75 0.6 -2.45 L0.6 -2.1 0.65 -2.0 0.65 -1.95 Q0.65 -1.8 0.5 -1.55 L0.5 -1.55 0.65 -1.65 0.85 -1.65 0.9 -1.55 Q0.9 -1.45 0.7 -1.3 L0.55 -1.15 0.8 -0.95 Q1.2 -0.55 1.25 -0.55 L1.5 -0.6 1.55 -0.65 2.25 -1.1 Q2.5 -1.3 2.6 -1.6 L2.7 -1.75 2.6 -1.85 Q2.45 -1.95 2.4 -2.1 2.2 -1.9 2.05 -1.8 L1.95 -1.85 1.95 -1.95 1.9 -2.0 Q1.85 -2.1 1.85 -2.15 L1.9 -2.3 2.1 -2.7 Q2.35 -3.25 2.35 -3.65 L2.4 -4.15 2.4 -4.25 Q2.2 -4.45 2.2 -4.75 L2.25 -5.0 M0.3 -2.0 L0.3 -2.15 Q0.3 -2.5 -0.05 -2.6 -0.2 -2.7 -0.3 -2.6 L-0.35 -2.55 -0.4 -2.4 Q-0.4 -2.3 -0.3 -2.15 -0.25 -1.95 0.0 -1.65 0.15 -1.65 0.25 -1.85 L0.3 -2.0 M-1.75 -15.7 L-1.75 -15.75 Q-1.75 -16.3 -2.3 -15.85 -2.8 -15.5 -2.9 -15.1 L-2.9 -15.05 Q-3.25 -14.45 -3.4 -13.65 L-3.35 -13.5 Q-3.45 -13.45 -3.3 -13.45 L-2.95 -14.1 Q-2.2 -15.25 -1.75 -15.7 M-3.35 -3.1 Q-3.5 -3.1 -3.5 -2.95 -3.5 -2.85 -3.2 -2.5 L-3.15 -2.5 -3.25 -2.7 -3.35 -3.1 M-1.7 -2.05 L-1.65 -2.15 -1.65 -2.2 Q-1.65 -2.55 -1.85 -2.55 -2.0 -2.55 -2.05 -2.5 L-2.1 -2.4 -2.1 -2.3 -2.05 -2.15 Q-1.95 -2.15 -1.8 -2.05 L-1.7 -2.0 -1.7 -2.05 M-0.9 -1.3 Q-0.5 -1.0 -0.35 -1.0 L0.1 -1.05 -0.05 -1.2 Q-0.2 -1.25 -0.4 -1.4 L-0.6 -1.35 -0.9 -1.3 -0.9 -1.3" fill="#111111" fill-rule="evenodd" stroke="none"/>
      <path d="M0.05 -15.05 L0.2 -15.0 0.6 -14.8 0.05 -15.05 M-1.35 -15.85 L-1.4 -15.85 -1.45 -15.9 Q-1.35 -15.95 -1.35 -15.85 M-1.25 -7.9 L-1.25 -8.05 -1.25 -7.9 M2.5 -4.8 L2.5 -4.9 2.55 -5.05 2.65 -5.2 Q2.85 -5.0 2.95 -4.75 L3.0 -4.65 2.85 -4.7 Q2.65 -4.8 2.5 -4.8 M-3.6 -4.45 L-3.5 -4.35 Q-3.1 -3.8 -2.6 -3.55 L-2.95 -3.7 Q-3.2 -3.9 -3.45 -4.25 L-3.5 -4.35 -3.6 -4.45 M-0.35 -2.55 L-0.3 -2.6 Q-0.2 -2.7 -0.05 -2.6 0.3 -2.5 0.3 -2.15 L0.3 -2.0 0.2 -1.95 Q0.05 -1.95 -0.05 -2.15 L-0.2 -2.35 -0.2 -2.45 Q-0.25 -2.5 -0.35 -2.55 M-2.05 -2.5 Q-2.0 -2.55 -1.85 -2.55 -1.65 -2.55 -1.65 -2.2 L-1.65 -2.15 -1.7 -2.05 -1.65 -2.1 -1.95 -2.3 -2.05 -2.5" fill="#4c5566" fill-rule="evenodd" stroke="none"/>
      <path d="M1.75 -8.05 L2.95 -8.45 Q2.45 -7.7 2.4 -6.9 L2.1 -6.8 Q1.5 -6.55 0.9 -6.45 L-0.4 -6.15 Q-1.15 -5.95 -1.55 -5.95 L-2.7 -6.0 -3.1 -6.1 -3.2 -6.15 Q-3.2 -7.05 -3.4 -7.4 L-3.35 -7.4 Q-3.15 -7.4 -3.15 -7.65 L-3.3 -7.75 -3.3 -8.25 Q-3.2 -8.75 -2.55 -8.75 -2.1 -8.75 -1.75 -7.9 -1.7 -7.8 -1.75 -7.45 -1.8 -7.2 -1.65 -7.05 L-1.35 -7.25 Q-0.3 -7.45 1.75 -8.05" fill="#400404" fill-rule="evenodd" stroke="none"/>
      <path d="M0.6 -14.8 L0.2 -15.0 0.05 -15.05 Q-0.85 -15.55 -1.35 -15.65 L-1.35 -15.75 -1.4 -15.85 -1.35 -15.85 Q-1.35 -15.7 -1.15 -15.7 -0.7 -15.75 -0.4 -15.7 -0.1 -15.65 0.15 -15.5 L0.45 -15.3 Q0.7 -15.2 1.05 -14.85 L1.6 -14.3 1.55 -14.3 0.6 -14.8 M3.2 -12.25 L3.15 -12.3 3.1 -12.3 2.7 -12.2 0.55 -11.95 Q-0.3 -11.8 -1.35 -11.45 L-2.2 -11.2 Q-2.4 -11.2 -2.85 -11.9 -3.15 -12.3 -3.3 -12.5 L-3.35 -12.45 -3.3 -12.55 -3.0 -12.95 -3.05 -12.95 -3.05 -13.1 Q-3.05 -13.2 -2.6 -13.85 L-2.0 -14.65 -1.5 -15.45 -1.4 -15.6 Q-0.7 -15.4 0.3 -14.75 1.35 -14.0 1.9 -13.85 2.25 -13.75 2.5 -13.55 2.7 -13.35 2.8 -12.95 2.9 -12.75 3.15 -12.3 L3.2 -12.25 M3.4 -11.0 Q3.5 -10.65 3.5 -10.45 3.5 -10.35 3.65 -10.05 L3.7 -9.85 3.7 -9.7 3.7 -9.75 3.0 -9.45 Q1.95 -9.0 1.8 -8.95 L-0.5 -8.15 -0.65 -8.4 Q-0.8 -8.65 -1.0 -8.9 -1.3 -9.2 -1.7 -9.35 L-0.35 -10.05 Q1.65 -11.0 2.9 -11.0 L3.4 -11.0 M2.35 -10.25 Q2.6 -10.35 2.6 -10.5 2.6 -10.8 1.9 -10.65 1.2 -10.5 1.2 -10.25 1.2 -10.15 1.25 -10.15 L1.35 -10.1 2.35 -10.25 M2.2 -6.35 L1.3 -5.35 Q0.9 -4.9 0.15 -4.5 -0.65 -4.1 -1.4 -4.1 -3.0 -4.1 -3.4 -5.15 L-3.65 -5.9 -3.65 -5.95 -3.6 -5.95 -3.55 -5.9 Q-3.45 -5.95 -3.25 -5.75 L-3.25 -5.8 Q-2.75 -5.6 -2.2 -5.6 L-1.1 -5.5 Q-0.35 -5.5 1.3 -6.0 L2.2 -6.35 M-0.2 -14.35 Q-0.7 -14.75 -0.85 -14.75 -0.7 -14.45 -0.2 -14.15 0.25 -13.85 0.55 -13.8 L-0.2 -14.35 M-3.35 -10.25 L-3.0 -9.8 Q-2.8 -9.65 -2.6 -9.55 L-2.8 -9.55 Q-3.2 -9.55 -3.45 -9.25 -3.7 -8.9 -3.75 -8.85 L-3.8 -8.9 -3.45 -10.2 -3.4 -10.35 -3.4 -10.3 -3.35 -10.25 M-2.15 -5.3 L-2.2 -5.2 -2.2 -5.15 Q-2.2 -5.05 -2.0 -4.95 -1.75 -4.8 -1.35 -4.8 -0.9 -4.8 -0.55 -4.95 -0.3 -5.05 -0.25 -5.15 L-0.85 -5.2 -2.0 -5.3 -2.15 -5.3" fill="#97a8cc" fill-rule="evenodd" stroke="none"/>
      <path d="M-3.35 -12.45 L-3.3 -12.5 Q-3.15 -12.3 -2.85 -11.9 -2.4 -11.2 -2.2 -11.2 L-1.35 -11.45 Q-0.3 -11.8 0.55 -11.95 L2.7 -12.2 3.1 -12.3 3.15 -12.3 3.2 -12.25 3.35 -12.0 Q2.7 -12.0 0.85 -11.4 -0.6 -10.9 -2.05 -10.3 -2.3 -10.3 -3.05 -11.2 L-3.6 -11.9 -3.55 -12.0 -3.45 -12.15 -3.35 -12.45 M-1.25 -8.05 Q-1.3 -8.45 -1.6 -8.7 -1.95 -9.05 -2.45 -9.1 -2.9 -9.1 -3.25 -8.8 -3.55 -8.55 -3.6 -8.05 L-3.7 -8.15 Q-4.3 -8.7 -4.3 -8.75 -4.3 -8.9 -3.9 -10.15 -3.9 -10.4 -3.75 -10.8 L-3.65 -11.2 -3.3 -10.75 -3.3 -10.7 Q-3.0 -10.25 -2.85 -10.05 -2.6 -9.8 -2.1 -9.8 -2.0 -9.8 -0.8 -10.25 L0.7 -10.85 Q1.45 -11.1 2.75 -11.4 L3.15 -11.5 3.35 -11.15 3.35 -11.05 3.4 -11.0 2.9 -11.0 Q1.65 -11.0 -0.35 -10.05 L-1.7 -9.35 Q-1.3 -9.2 -1.0 -8.9 -0.8 -8.65 -0.65 -8.4 L-0.5 -8.15 1.8 -8.95 Q1.95 -9.0 3.0 -9.45 L3.7 -9.75 3.7 -9.7 3.75 -9.45 3.75 -9.4 Q3.75 -9.1 2.65 -8.75 L1.35 -8.4 0.05 -7.95 -0.6 -7.85 -0.85 -7.75 -0.9 -7.8 -1.25 -7.7 -1.25 -7.9 -1.25 -8.05 M2.2 -6.35 L2.35 -6.4 2.65 -6.55 2.65 -6.5 2.5 -6.2 2.45 -6.15 2.15 -5.65 2.05 -5.55 Q1.8 -5.2 1.6 -5.1 1.15 -4.8 0.65 -4.4 L-0.05 -3.9 Q-0.8 -3.4 -2.0 -3.4 L-2.15 -3.4 Q-2.4 -3.45 -2.6 -3.55 -3.1 -3.8 -3.5 -4.35 L-3.6 -4.45 Q-3.9 -4.95 -3.9 -5.3 L-3.8 -5.85 -3.7 -6.0 -3.65 -5.95 -3.65 -5.9 -3.4 -5.15 Q-3.0 -4.1 -1.4 -4.1 -0.65 -4.1 0.15 -4.5 0.9 -4.9 1.3 -5.35 L2.2 -6.35 M-3.35 -10.25 L-3.4 -10.3 -3.4 -10.35 -3.45 -10.2 -3.8 -8.9 -3.75 -8.85 Q-3.7 -8.9 -3.45 -9.25 -3.2 -9.55 -2.8 -9.55 L-2.6 -9.55 Q-2.8 -9.65 -3.0 -9.8 L-3.35 -10.25" fill="#717e99" fill-rule="evenodd" stroke="none"/>
      <path d="M2.5 -4.8 Q2.65 -4.8 2.85 -4.7 L3.0 -4.65 3.05 -4.45 3.05 -4.4 3.0 -4.2 2.75 -4.35 2.55 -4.55 2.5 -4.8 M-0.35 -2.55 Q-0.25 -2.5 -0.2 -2.45 L-0.2 -2.35 -0.05 -2.15 Q0.05 -1.95 0.2 -1.95 L0.3 -2.0 0.25 -1.85 Q0.15 -1.65 0.0 -1.65 -0.25 -1.95 -0.3 -2.15 -0.4 -2.3 -0.4 -2.4 L-0.35 -2.55 M-2.9 -15.05 L-2.85 -15.05 Q-2.75 -15.0 -2.65 -15.0 -2.6 -15.0 -1.85 -15.65 L-1.75 -15.7 Q-2.2 -15.25 -2.95 -14.1 L-3.3 -13.45 Q-3.45 -13.45 -3.35 -13.5 L-3.4 -13.65 Q-3.25 -14.45 -2.9 -15.05 M-3.35 -3.1 L-3.25 -2.7 -3.15 -2.5 -3.2 -2.5 Q-3.5 -2.85 -3.5 -2.95 -3.5 -3.1 -3.35 -3.1 M-2.05 -2.5 L-1.95 -2.3 -1.65 -2.1 -1.7 -2.05 -1.7 -2.0 -1.8 -2.05 Q-1.95 -2.15 -2.05 -2.15 L-2.1 -2.3 -2.1 -2.4 -2.05 -2.5" fill="#393f4d" fill-rule="evenodd" stroke="none"/>
      <path d="M-2.9 -15.05 L-2.9 -15.1 Q-2.8 -15.5 -2.3 -15.85 -1.75 -16.3 -1.75 -15.75 L-1.75 -15.7 -1.85 -15.65 Q-2.6 -15.0 -2.65 -15.0 -2.75 -15.0 -2.85 -15.05 L-2.9 -15.05" fill="#a0b2d9" fill-rule="evenodd" stroke="none"/>
      <path d="M2.75 -3.65 L2.75 -3.9 Q2.8 -3.85 2.9 -3.8 L2.9 -3.75 2.8 -3.7 2.8 -3.6 2.75 -3.65 M3.2 -3.75 L3.45 -3.8 3.5 -3.45 3.55 -2.95 Q3.55 -2.9 3.45 -2.75 L3.15 -2.5 2.95 -2.25 2.55 -2.35 2.65 -2.5 Q3.0 -3.1 3.0 -3.4 L3.0 -3.5 3.2 -3.75 M2.25 -5.0 L2.2 -4.75 Q2.2 -4.45 2.4 -4.25 L2.4 -4.15 2.35 -3.65 Q2.35 -3.25 2.1 -2.7 L1.9 -2.3 1.85 -2.15 Q1.85 -2.1 1.9 -2.0 L1.95 -1.95 1.95 -1.85 2.05 -1.8 Q2.2 -1.9 2.4 -2.1 2.45 -1.95 2.6 -1.85 L2.7 -1.75 2.6 -1.6 Q2.5 -1.3 2.25 -1.1 L1.55 -0.65 1.5 -0.6 1.25 -0.55 Q1.2 -0.55 0.8 -0.95 L0.55 -1.15 0.7 -1.3 Q0.9 -1.45 0.9 -1.55 L0.85 -1.65 0.65 -1.65 0.5 -1.55 0.5 -1.55 Q0.65 -1.8 0.65 -1.95 L0.65 -2.0 0.6 -2.1 0.6 -2.45 Q0.55 -2.75 0.35 -2.85 L0.2 -3.0 -0.1 -3.0 Q-0.35 -3.0 -0.6 -2.8 -0.8 -2.6 -0.8 -2.35 L-0.75 -2.2 -0.75 -1.95 Q-1.1 -2.15 -1.1 -2.0 L-1.1 -1.95 Q-1.05 -1.9 -0.95 -1.8 L-0.85 -1.7 -1.2 -1.7 Q-1.3 -1.7 -1.45 -1.75 -1.4 -1.85 -1.35 -1.95 L-1.35 -2.35 Q-1.35 -2.5 -1.45 -2.65 -1.6 -2.85 -1.9 -2.9 L-2.0 -2.85 -2.15 -2.75 -2.25 -2.6 -2.3 -2.55 -2.35 -2.25 -2.3 -2.15 -2.45 -2.25 Q-2.7 -2.45 -2.8 -2.7 L-2.8 -2.95 Q-2.8 -3.05 -2.8 -3.1 -2.45 -2.95 -2.0 -2.95 0.45 -2.95 1.95 -4.6 L2.0 -4.65 2.25 -5.0 M1.0 -2.45 L0.95 -2.45 0.95 -2.4 1.0 -2.45 M-0.9 -1.3 L-0.6 -1.35 -0.4 -1.4 Q-0.2 -1.25 -0.05 -1.2 L0.1 -1.05 -0.35 -1.0 Q-0.5 -1.0 -0.9 -1.3" fill="#262626" fill-rule="evenodd" stroke="none"/>
      <path d="M2.35 -10.25 L1.35 -10.1 1.25 -10.15 Q1.2 -10.15 1.2 -10.25 1.2 -10.5 1.9 -10.65 2.6 -10.8 2.6 -10.5 2.6 -10.35 2.35 -10.25 M-0.2 -14.35 L0.55 -13.8 Q0.25 -13.85 -0.2 -14.15 -0.7 -14.45 -0.85 -14.75 -0.7 -14.75 -0.2 -14.35 M-2.15 -5.3 L-2.0 -5.3 -0.85 -5.2 -0.25 -5.15 Q-0.3 -5.05 -0.55 -4.95 -0.9 -4.8 -1.35 -4.8 -1.75 -4.8 -2.0 -4.95 -2.2 -5.05 -2.2 -5.15 L-2.2 -5.2 -2.15 -5.3" fill="#bdd0ff" fill-rule="evenodd" stroke="none"/>
    </g>
  </defs>
</svg>
