<?xml version="1.0" encoding="UTF-8" standalone="no"?>
<svg xmlns:ffdec="https://www.free-decompiler.com/flash" xmlns:xlink="http://www.w3.org/1999/xlink" ffdec:objectType="frame" height="104.35px" width="424.8px" xmlns="http://www.w3.org/2000/svg">
  <g transform="matrix(1.0, 0.0, 0.0, 1.0, 7.05, 11.45)">
    <use ffdec:characterId="540" ffdec:characterName="a_EB_Flag3" height="99.75" transform="matrix(1.0, 0.0, 0.0, 1.0, -3.2, -6.85)" width="418.95" xlink:href="#sprite0"/>
  </g>
  <defs>
    <g id="sprite0" transform="matrix(1.0, 0.0, 0.0, 1.0, 0.0, 0.0)">
      <use ffdec:characterId="539" height="14.25" transform="matrix(7.0, 0.0, 0.0, 7.0, 0.0, 0.0)" width="59.85" xlink:href="#shape0"/>
    </g>
    <g id="shape0" transform="matrix(1.0, 0.0, 0.0, 1.0, 0.0, 0.0)">
      <path d="M25.1 5.35 Q26.05 5.65 26.85 6.05 27.5 6.35 28.0 6.7 28.4 7.0 29.25 7.75 29.95 8.4 30.5 8.75 31.9 9.6 34.05 10.4 36.3 11.3 38.3 11.65 38.3 11.5 38.2 11.25 38.1 10.95 38.1 10.85 38.15 10.5 39.45 10.35 L38.5 9.15 Q37.9 8.35 37.9 7.85 L37.9 7.45 Q38.0 7.2 38.5 7.2 39.5 7.2 40.55 7.8 L41.5 8.45 Q41.75 8.45 42.0 8.3 42.25 8.15 42.7 8.15 42.5 8.0 42.35 7.55 42.15 7.1 42.15 6.9 42.15 6.5 42.2 6.35 42.4 6.0 43.05 5.95 L42.9 5.9 Q44.05 5.9 44.85 7.15 L45.2 7.8 Q45.45 8.55 45.45 9.15 L45.45 9.2 Q46.3 8.35 46.9 8.35 48.35 8.35 49.65 9.65 50.3 10.3 50.7 10.95 L51.0 10.9 51.6 10.75 53.65 10.7 Q53.25 10.55 52.1 10.4 51.9 10.35 51.85 10.25 51.8 10.15 51.8 9.75 L51.8 9.5 Q51.9 9.4 52.1 9.3 51.55 9.15 50.7 8.8 49.65 8.4 49.65 8.15 49.65 7.85 49.7 7.75 49.85 7.55 50.25 7.35 L50.3 7.3 Q49.35 7.15 48.8 6.75 48.3 6.35 48.3 5.95 48.3 5.25 48.85 5.4 48.6 5.05 48.6 4.55 48.6 3.8 50.1 3.25 51.65 2.65 54.2 2.65 55.45 2.65 56.15 2.9 56.7 3.1 57.05 3.5 L57.1 3.5 Q57.1 3.1 57.2 2.9 57.35 2.55 58.0 2.35 L58.55 2.35 Q58.85 2.55 59.15 2.6 L58.95 2.25 58.95 2.2 Q58.7 1.85 58.4 1.55 57.1 0.25 55.1 0.25 53.7 0.25 51.5 1.2 48.7 2.45 47.0 3.15 43.9 4.5 41.05 5.15 37.2 6.05 32.95 6.05 L29.9 6.0 27.9 5.8 26.15 5.55 25.95 5.55 24.95 5.3 Q24.3 5.15 23.6 4.85 20.65 3.7 19.15 3.7 17.65 3.7 13.0 4.25 L7.35 4.9 3.6 4.9 3.0 5.0 2.3 5.05 1.75 5.0 1.1 4.85 0.95 4.8 0.85 4.75 0.75 4.65 0.15 4.2 Q0.45 4.2 0.9 4.35 1.4 4.5 1.9 4.5 L2.7 4.45 3.45 4.35 8.3 4.4 Q11.4 4.4 14.15 3.75 L16.1 3.35 Q17.25 3.15 18.4 3.15 20.2 3.15 21.85 3.65 22.75 3.9 23.75 4.35 24.6 4.75 25.75 4.95 L30.0 5.5 32.05 5.55 33.75 5.6 Q36.0 5.6 39.4 4.85 41.15 4.45 44.1 3.55 45.65 3.1 47.3 2.45 48.8 1.85 49.6 1.4 51.0 0.65 52.7 0.3 54.45 -0.1 55.95 0.05 57.5 0.15 58.45 0.8 59.3 1.35 59.5 2.25 L59.85 3.0 Q59.85 3.2 59.8 3.15 L59.75 3.2 59.55 3.2 Q59.3 3.2 58.95 2.95 58.6 2.7 58.3 2.7 57.6 2.7 57.45 3.0 57.4 3.05 57.4 3.35 57.4 3.5 57.55 3.7 57.7 3.9 57.75 4.2 L57.7 4.4 57.65 4.45 57.5 4.45 Q57.3 4.45 57.15 4.25 L56.85 3.75 Q56.2 3.0 54.05 3.0 52.55 3.0 50.85 3.5 49.05 4.0 49.05 4.6 49.05 4.8 49.5 5.25 49.9 5.7 49.9 5.75 L49.9 5.95 49.7 5.9 49.7 5.95 49.55 5.95 49.2 5.9 48.8 5.8 48.7 5.8 48.7 5.9 Q48.7 6.25 49.4 6.6 50.3 7.1 51.6 7.05 L51.65 7.05 Q51.7 7.1 51.7 7.2 51.7 7.4 51.55 7.45 L51.1 7.45 Q50.75 7.45 50.35 7.65 50.05 7.8 49.95 7.9 L49.95 8.0 Q50.4 8.3 51.6 8.7 L53.8 9.4 Q53.45 9.85 53.0 9.75 L52.2 9.75 52.2 9.8 Q52.5 9.85 53.25 10.2 54.1 10.6 54.4 10.9 54.35 11.0 54.25 11.1 L54.0 11.15 51.65 11.2 51.0 11.4 50.6 11.5 Q50.5 11.5 50.15 11.05 L49.35 10.1 Q48.2 8.65 47.25 8.65 46.25 8.65 45.75 9.4 45.55 9.65 45.4 10.0 L45.25 10.35 Q45.2 10.05 45.1 9.25 45.0 8.5 44.85 8.05 44.7 7.45 44.3 6.95 43.95 6.7 43.45 6.4 L42.9 6.4 Q42.8 6.45 42.65 6.6 42.55 6.8 42.55 6.85 42.55 7.0 42.95 7.75 L43.4 8.5 Q43.4 8.8 43.15 8.75 L42.75 8.7 Q42.15 8.7 41.95 8.85 41.75 8.95 41.5 8.95 41.45 8.95 40.5 8.45 39.45 7.85 38.7 7.6 L38.35 7.6 38.3 7.65 38.3 7.8 Q38.3 8.1 39.2 9.2 40.1 10.3 40.1 10.65 L40.1 10.85 40.05 10.9 39.9 10.9 Q39.8 10.9 39.7 10.85 39.55 10.75 39.45 10.75 L38.8 10.75 Q38.7 11.0 38.7 11.2 L38.9 12.1 Q38.9 12.3 38.65 12.3 37.5 12.3 33.95 10.75 31.3 9.65 30.6 9.25 L30.5 9.35 30.05 9.7 Q29.35 10.2 29.35 10.75 29.35 10.85 29.45 11.05 29.55 11.25 29.55 11.35 L29.5 11.5 29.45 11.45 28.8 11.0 Q28.2 10.55 27.7 10.55 26.75 10.55 25.8 11.55 25.05 12.35 25.05 12.7 25.05 13.1 25.25 13.5 25.5 13.9 25.5 14.0 L25.45 14.2 25.3 14.25 Q24.9 14.25 24.1 13.45 23.55 12.9 22.85 12.0 L22.05 10.8 Q21.6 10.2 21.0 9.7 L19.95 8.8 Q19.4 8.35 18.75 8.05 17.05 7.25 13.0 6.5 L9.1 6.5 Q4.95 7.05 3.3 7.4 2.0 7.7 1.15 8.05 L1.1 8.05 Q0.6 8.25 0.2 8.5 0.0 8.3 0.0 8.25 0.0 7.9 0.95 7.6 L1.15 7.5 Q1.85 7.3 2.95 7.05 5.5 6.5 9.15 6.1 L9.15 6.05 13.05 6.05 Q16.35 6.55 18.4 7.4 20.1 8.1 21.25 9.15 21.85 9.75 22.95 11.2 24.0 12.65 24.9 13.45 L24.7 12.65 Q24.7 12.05 25.65 11.2 26.7 10.2 27.85 10.2 28.5 10.2 28.85 10.6 L29.25 11.1 Q29.15 10.8 29.15 10.55 29.15 10.2 29.45 9.65 29.8 9.05 30.25 9.0 L29.15 7.95 Q28.5 7.25 27.9 6.85 26.35 5.75 23.45 5.05 L23.5 5.0 25.1 5.35" fill="#732828" fill-rule="evenodd" stroke="none"/>
      <path d="M24.95 5.3 L25.95 5.55 26.15 5.55 27.9 5.8 29.9 6.0 32.95 6.05 Q37.2 6.05 41.05 5.15 43.9 4.5 47.0 3.15 48.7 2.45 51.5 1.2 53.7 0.25 55.1 0.25 57.1 0.25 58.4 1.55 58.7 1.85 58.95 2.2 L58.95 2.25 59.15 2.6 Q58.85 2.55 58.55 2.35 L58.0 2.35 Q57.35 2.55 57.2 2.9 57.1 3.1 57.1 3.5 L57.05 3.5 Q56.7 3.1 56.15 2.9 55.45 2.65 54.2 2.65 51.65 2.65 50.1 3.25 48.6 3.8 48.6 4.55 48.6 5.05 48.85 5.4 48.3 5.25 48.3 5.95 48.3 6.35 48.8 6.75 49.35 7.15 50.3 7.3 L50.25 7.35 Q49.85 7.55 49.7 7.75 49.65 7.85 49.65 8.15 49.65 8.4 50.7 8.8 51.55 9.15 52.1 9.3 51.9 9.4 51.8 9.5 L51.8 9.75 Q51.8 10.15 51.85 10.25 51.9 10.35 52.1 10.4 53.25 10.55 53.65 10.7 L51.6 10.75 51.0 10.9 50.7 10.95 Q50.3 10.3 49.65 9.65 48.35 8.35 46.9 8.35 46.3 8.35 45.45 9.2 L45.45 9.15 Q45.45 8.55 45.2 7.8 L44.85 7.15 Q44.05 5.9 42.9 5.9 L43.05 5.95 Q42.4 6.0 42.2 6.35 42.15 6.5 42.15 6.9 42.15 7.1 42.35 7.55 42.5 8.0 42.7 8.15 42.25 8.15 42.0 8.3 41.75 8.45 41.5 8.45 L40.55 7.8 Q39.5 7.2 38.5 7.2 38.0 7.2 37.9 7.45 L37.9 7.85 Q37.9 8.35 38.5 9.15 L39.45 10.35 Q38.15 10.5 38.1 10.85 38.1 10.95 38.2 11.25 38.3 11.5 38.3 11.65 36.3 11.3 34.05 10.4 31.9 9.6 30.5 8.75 29.95 8.4 29.25 7.75 28.4 7.0 28.0 6.7 27.5 6.35 26.85 6.05 26.05 5.65 25.1 5.35 L24.95 5.3" fill="#bd4848" fill-rule="evenodd" stroke="none"/>
      <path d="M25.1 5.35 L23.5 5.0 23.45 5.05 Q26.35 5.75 27.9 6.85 28.5 7.25 29.15 7.95 L30.25 9.0 Q29.8 9.05 29.45 9.65 29.15 10.2 29.15 10.55 29.15 10.8 29.25 11.1 L28.85 10.6 Q28.5 10.2 27.85 10.2 26.7 10.2 25.65 11.2 24.7 12.05 24.7 12.65 L24.9 13.45 Q24.0 12.65 22.95 11.2 21.85 9.75 21.25 9.15 20.1 8.1 18.4 7.4 16.35 6.55 13.05 6.05 L9.15 6.05 9.15 6.1 Q5.5 6.5 2.95 7.05 1.85 7.3 1.15 7.5 L0.95 7.6 0.8 7.65 0.55 7.2 Q0.55 7.0 0.7 6.6 L0.8 6.15 Q0.8 5.95 0.6 5.45 L0.35 4.95 Q0.35 4.7 0.55 4.7 0.7 4.65 0.85 4.75 L0.95 4.8 1.1 4.85 1.75 5.0 2.3 5.05 3.0 5.0 3.6 4.9 7.35 4.9 13.0 4.25 Q17.65 3.7 19.15 3.7 20.65 3.7 23.6 4.85 24.3 5.15 24.95 5.3 L25.1 5.35 M1.1 8.05 L1.15 8.05 1.3 8.0 1.25 8.05 1.1 8.1 1.1 8.05" fill="#983636" fill-rule="evenodd" stroke="none"/>
    </g>
  </defs>
</svg>
