<?xml version="1.0" encoding="UTF-8" standalone="no"?>
<svg xmlns:ffdec="https://www.free-decompiler.com/flash" xmlns:xlink="http://www.w3.org/1999/xlink" ffdec:objectType="frame" height="158.2px" width="200.9px" xmlns="http://www.w3.org/2000/svg">
  <g transform="matrix(1.0, 0.0, 0.0, 1.0, 96.95, 146.3)">
    <use ffdec:characterId="270" height="21.25" transform="matrix(7.0, 0.0, 0.0, 7.0, -82.25, -137.9)" width="25.15" xlink:href="#shape0"/>
  </g>
  <defs>
    <g id="shape0" transform="matrix(1.0, 0.0, 0.0, 1.0, 11.75, 19.7)">
      <path d="M4.3 -12.75 L4.35 -12.75 4.35 -12.8 4.3 -12.75 M7.3 -16.7 L7.35 -16.8 7.35 -16.55 7.3 -16.7 M9.05 -19.5 Q9.4 -19.85 9.55 -19.6 9.65 -19.25 9.7 -19.25 10.2 -19.25 10.35 -18.95 10.5 -18.75 10.5 -18.3 10.5 -18.0 10.15 -17.75 9.8 -17.4 9.25 -17.45 9.05 -17.4 8.95 -17.2 L8.9 -16.9 Q8.8 -16.8 8.65 -16.7 L8.75 -16.7 Q8.85 -16.7 8.95 -16.6 9.05 -16.55 9.05 -16.25 L9.2 -16.25 9.5 -16.2 9.55 -16.25 9.75 -16.3 10.0 -16.25 10.15 -16.15 Q10.2 -16.05 10.2 -15.95 L10.2 -15.8 Q10.3 -15.65 10.3 -15.5 L10.25 -15.25 10.15 -15.1 9.85 -14.95 Q9.65 -14.85 9.5 -14.85 9.45 -14.85 9.35 -14.9 L9.25 -15.0 8.8 -15.0 8.75 -14.95 8.7 -14.95 8.7 -14.9 Q8.65 -14.85 8.55 -14.8 L8.4 -14.8 Q8.25 -14.85 8.2 -14.9 8.05 -15.05 8.1 -15.15 L8.1 -15.2 Q8.1 -15.3 8.25 -15.5 L8.25 -15.8 Q8.2 -15.9 7.95 -16.0 L7.85 -16.1 Q7.8 -16.2 7.8 -16.25 L7.8 -16.3 7.85 -16.4 7.85 -16.45 7.6 -16.4 Q7.45 -16.4 7.4 -16.45 L7.35 -16.55 Q7.35 -16.65 7.8 -17.1 8.2 -17.55 8.2 -17.6 L8.1 -17.85 Q8.0 -18.0 8.0 -18.1 8.0 -18.2 8.25 -18.5 8.5 -18.75 8.65 -18.8 8.65 -18.95 8.8 -19.15 L9.05 -19.5 M12.05 -15.75 L12.8 -15.75 13.15 -15.55 Q13.45 -15.4 13.4 -15.15 L13.4 -14.85 13.3 -14.75 13.35 -14.75 Q13.45 -14.5 13.4 -14.35 13.4 -13.9 13.15 -13.6 12.85 -13.25 12.05 -13.1 L12.05 -13.05 Q11.95 -13.0 11.85 -13.0 11.75 -13.0 11.65 -13.1 L11.6 -13.15 11.5 -13.0 11.45 -12.95 Q11.35 -12.75 11.25 -12.7 11.05 -12.5 10.6 -12.45 L10.5 -12.45 Q10.45 -12.45 10.4 -12.5 L10.35 -12.55 10.2 -12.65 10.2 -12.75 10.15 -12.95 Q10.15 -13.15 10.3 -13.25 L10.1 -13.3 10.05 -13.35 10.05 -13.25 9.95 -13.1 Q9.85 -13.05 9.8 -13.05 L9.2 -13.0 Q9.25 -12.9 9.25 -12.8 9.25 -12.7 9.2 -12.6 L9.05 -12.35 9.0 -12.3 9.15 -12.15 Q9.2 -12.05 9.2 -11.95 9.1 -11.5 9.6 -11.15 L10.2 -10.7 Q10.55 -10.4 10.6 -10.05 L10.6 -9.9 10.5 -9.75 Q10.45 -9.7 10.35 -9.7 L10.3 -9.7 10.3 -9.6 Q10.3 -9.2 10.1 -9.25 L9.95 -9.2 9.55 -9.2 9.45 -9.25 9.35 -9.25 Q9.25 -9.25 9.15 -9.35 L8.9 -9.35 8.9 -9.25 Q8.9 -9.05 8.85 -9.0 L8.85 -8.95 Q9.0 -8.9 9.05 -8.85 9.3 -8.7 9.3 -8.4 L9.3 -8.2 9.15 -8.05 9.2 -8.05 9.25 -8.0 10.15 -7.5 Q10.6 -7.25 10.6 -7.0 10.6 -6.85 10.3 -6.7 10.35 -6.6 10.7 -6.1 10.9 -5.75 10.9 -5.5 10.9 -5.25 10.5 -4.95 10.15 -4.75 9.8 -4.6 L9.25 -4.6 Q8.7 -4.6 8.45 -4.85 L8.15 -5.2 Q7.6 -5.7 7.6 -5.95 7.6 -6.05 7.7 -6.05 L7.8 -6.1 8.05 -6.1 8.05 -6.2 Q8.1 -6.45 7.6 -6.8 7.0 -7.15 6.9 -7.35 L6.65 -7.7 6.65 -7.15 Q6.6 -7.1 6.5 -7.05 L6.45 -7.15 6.25 -7.1 Q6.2 -7.1 6.05 -7.3 L6.05 -7.25 5.95 -7.1 6.0 -7.1 6.2 -7.05 6.3 -7.0 6.4 -6.9 Q6.5 -6.65 6.5 -6.1 6.5 -6.05 6.6 -6.0 L6.9 -5.7 Q7.0 -5.6 7.0 -5.5 L7.0 -5.2 Q7.0 -5.1 6.9 -5.0 L6.8 -4.9 Q6.9 -4.75 6.9 -4.6 6.9 -4.3 6.7 -4.2 L6.65 -4.2 6.5 -4.15 6.4 -4.15 Q6.3 -4.15 6.25 -4.2 5.45 -4.8 5.25 -5.9 L5.25 -6.05 5.35 -6.2 Q5.4 -6.25 5.5 -6.25 5.5 -6.45 5.3 -6.65 4.95 -7.05 4.95 -7.55 4.95 -7.75 5.0 -7.85 5.05 -8.15 5.3 -8.25 L4.95 -8.8 4.9 -8.8 4.9 -8.75 4.85 -8.65 Q4.85 -8.3 4.85 -8.1 L4.75 -7.95 Q4.7 -7.9 4.6 -7.85 L4.45 -7.9 4.35 -7.9 Q4.3 -7.95 4.25 -8.0 4.2 -8.05 4.15 -8.15 L4.0 -8.75 3.9 -9.35 Q3.9 -9.5 3.9 -9.55 4.0 -9.8 4.15 -9.75 L4.25 -9.8 Q4.2 -9.8 4.25 -9.9 4.4 -10.2 4.4 -10.35 L4.35 -10.5 Q4.25 -10.65 4.05 -10.95 L4.1 -10.95 Q3.85 -11.3 3.9 -11.45 3.9 -11.55 3.95 -11.9 L4.0 -12.2 3.95 -12.1 Q3.85 -12.05 3.75 -12.05 L3.7 -12.05 Q3.6 -12.05 3.55 -12.1 3.45 -12.15 3.45 -12.25 3.4 -12.35 3.4 -12.5 L3.4 -12.8 Q3.4 -13.3 3.5 -13.95 3.75 -15.0 4.1 -15.05 L4.25 -15.05 Q4.1 -15.2 4.1 -15.35 L4.1 -15.45 4.4 -16.2 Q4.55 -16.55 4.55 -16.75 L4.55 -16.9 4.6 -17.05 4.7 -17.15 4.85 -17.2 Q5.05 -17.15 5.15 -17.35 5.25 -17.5 5.25 -17.75 L5.2 -18.0 Q5.2 -18.25 5.25 -18.4 5.3 -18.55 5.9 -19.0 5.95 -19.1 6.05 -19.1 L6.35 -19.1 Q6.45 -19.1 6.55 -19.05 L6.8 -18.8 Q6.9 -18.7 6.9 -18.45 6.9 -18.25 6.8 -17.9 L6.75 -17.9 6.65 -17.6 Q6.6 -17.5 6.55 -17.45 6.45 -17.4 6.4 -17.4 L6.2 -17.45 6.15 -17.5 6.0 -17.3 Q5.95 -17.2 6.0 -17.0 L6.0 -16.9 6.45 -17.35 Q6.9 -17.4 7.15 -17.15 7.3 -17.0 7.3 -16.8 L7.25 -16.8 7.25 -16.75 Q7.25 -16.55 7.2 -16.35 7.05 -16.0 6.8 -16.0 6.65 -15.85 6.5 -15.85 6.35 -15.85 6.3 -15.95 L6.3 -16.0 6.2 -16.0 6.3 -16.05 Q5.9 -15.9 5.75 -15.95 L5.7 -16.0 5.65 -15.95 Q5.5 -15.75 5.25 -15.6 L5.0 -15.6 5.0 -15.5 4.95 -15.5 Q4.8 -15.15 4.6 -15.05 L4.45 -15.0 4.4 -15.0 4.45 -14.9 4.6 -14.4 4.7 -13.9 Q4.7 -13.7 4.6 -13.6 L4.75 -13.6 4.75 -13.65 4.8 -13.65 4.9 -13.85 5.1 -13.95 5.5 -13.95 5.6 -13.85 6.25 -12.95 Q6.35 -12.8 6.35 -12.15 6.4 -12.0 6.1 -11.55 5.8 -11.15 5.7 -11.15 L5.55 -11.1 Q5.45 -11.15 5.4 -11.15 L5.4 -11.1 5.3 -10.9 Q5.7 -10.8 5.65 -10.5 L5.65 -10.45 Q5.65 -10.35 5.7 -10.3 L5.7 -10.05 5.6 -9.9 5.5 -9.85 5.2 -9.75 4.95 -9.65 4.9 -9.6 Q5.1 -9.55 5.2 -9.45 L5.35 -9.3 5.4 -9.3 5.5 -9.15 Q5.7 -9.05 5.85 -9.1 5.95 -9.1 6.1 -9.0 L6.15 -8.9 Q6.3 -9.15 6.65 -8.9 L7.5 -8.4 7.5 -8.45 Q7.4 -8.7 7.45 -8.85 L7.5 -8.85 7.65 -8.9 Q7.75 -8.9 7.95 -8.8 7.95 -8.95 8.1 -9.05 L7.95 -9.15 7.85 -9.3 Q7.8 -9.4 7.85 -9.45 7.85 -9.55 7.9 -9.6 L7.9 -9.75 7.95 -9.9 Q7.95 -10.0 8.05 -10.05 8.1 -10.1 8.2 -10.1 L8.5 -10.1 8.65 -10.05 8.75 -10.05 8.8 -10.15 8.9 -10.4 8.9 -10.6 8.4 -10.95 Q8.05 -11.15 8.05 -11.35 L8.05 -11.4 8.1 -11.55 7.95 -11.65 Q7.75 -11.85 7.75 -12.1 7.75 -12.25 7.75 -12.3 7.85 -12.45 7.95 -12.45 L8.1 -12.5 Q8.3 -12.55 8.4 -12.7 8.6 -13.0 8.8 -13.05 L8.65 -13.05 Q8.55 -13.1 8.5 -13.15 8.4 -13.2 8.4 -13.3 L8.4 -13.4 8.15 -13.45 Q8.1 -13.45 8.0 -13.5 7.95 -13.55 7.9 -13.65 7.9 -13.75 7.9 -13.8 L8.0 -13.95 8.15 -14.0 Q8.45 -14.05 8.7 -14.15 8.9 -14.25 9.0 -14.3 L9.1 -14.35 9.25 -14.4 9.3 -14.5 9.4 -14.6 9.55 -14.65 10.0 -14.7 10.15 -14.65 10.25 -14.6 10.3 -14.55 10.4 -14.4 10.45 -14.4 10.7 -14.45 10.8 -14.5 10.85 -14.55 10.8 -14.55 Q10.65 -14.6 10.55 -14.7 L10.5 -14.85 10.5 -15.2 Q10.55 -15.45 10.85 -15.65 L10.95 -15.65 11.1 -15.7 11.35 -15.75 Q11.45 -15.8 11.7 -15.6 L11.8 -15.55 11.8 -15.6 Q11.85 -15.65 11.9 -15.7 L12.05 -15.75" fill="#cdffb4" fill-opacity="0.5019608" fill-rule="evenodd" stroke="none"/>
      <path d="M5.25 -7.55 L5.25 -7.75 Q5.3 -7.95 5.45 -7.95 5.55 -7.7 5.7 -7.55 5.8 -7.5 5.8 -7.4 L5.7 -7.25 Q5.65 -7.2 5.85 -6.8 L6.1 -6.75 Q6.25 -6.55 6.25 -6.1 6.25 -5.9 6.4 -5.75 L6.7 -5.5 6.7 -5.2 Q6.5 -5.15 6.5 -5.1 L6.5 -5.0 Q6.5 -4.9 6.55 -4.8 L6.6 -4.6 Q6.6 -4.5 6.55 -4.45 L6.45 -4.45 Q5.75 -5.0 5.55 -5.95 5.75 -6.0 5.8 -6.1 L5.8 -6.2 Q5.8 -6.55 5.55 -6.85 5.25 -7.15 5.25 -7.55 M3.9 -12.85 L3.85 -12.85 3.85 -12.8 3.9 -12.85 M8.6 -8.65 L8.4 -8.8 Q8.55 -8.75 8.8 -8.6 9.05 -8.45 9.05 -8.4 L9.05 -8.25 9.0 -8.2 8.8 -8.15 8.1 -8.7 Q8.15 -8.75 8.3 -8.75 8.45 -8.65 8.6 -8.65 M5.85 -8.6 L6.0 -8.6 5.9 -8.8 6.25 -8.55 6.4 -8.3 Q6.55 -8.1 6.55 -8.0 L6.55 -7.85 6.45 -7.85 6.35 -7.9 6.4 -7.6 Q6.4 -7.4 6.35 -7.3 6.25 -7.4 6.05 -7.7 L5.75 -8.15 5.35 -8.65 5.05 -9.05 Q5.05 -9.25 5.05 -9.2 5.2 -9.1 5.4 -8.8 L5.35 -9.0 Q5.65 -8.9 5.85 -8.6 M6.65 -8.7 L7.15 -8.25 Q7.5 -7.9 7.95 -7.85 L7.95 -7.95 8.05 -8.05 7.85 -8.3 7.7 -8.45 Q7.7 -8.55 7.8 -8.55 8.0 -8.4 8.3 -8.25 L8.85 -7.95 9.1 -7.75 Q9.3 -7.5 9.35 -7.45 L9.8 -7.3 Q10.15 -7.15 10.3 -7.0 10.25 -7.0 10.2 -6.95 L10.1 -6.95 Q10.0 -7.0 10.0 -6.95 L10.0 -6.65 10.35 -6.15 Q10.55 -5.75 10.55 -5.65 10.55 -5.45 10.5 -5.35 10.35 -5.15 9.85 -5.1 L9.85 -4.95 9.45 -4.9 9.25 -4.9 Q9.0 -4.9 8.5 -5.3 8.05 -5.65 8.05 -5.75 8.05 -5.95 8.25 -5.85 8.45 -5.85 8.45 -5.95 L8.45 -6.05 Q8.45 -6.1 8.15 -6.7 L8.05 -6.9 7.95 -7.05 7.75 -7.15 Q7.55 -7.2 7.5 -7.2 7.25 -7.4 7.0 -7.85 L6.6 -8.6 6.65 -8.7 M9.0 -12.8 L8.8 -12.5 8.55 -12.2 Q8.65 -12.1 8.9 -12.0 8.8 -11.4 9.45 -10.9 L10.0 -10.5 Q10.25 -10.25 10.35 -10.0 L9.95 -9.95 Q10.0 -9.85 10.0 -9.6 L10.0 -9.5 9.85 -9.5 9.65 -9.45 9.35 -9.55 8.45 -9.65 Q8.65 -9.4 8.65 -9.25 8.65 -9.1 8.55 -9.15 L8.5 -9.15 8.1 -9.4 8.2 -9.5 8.3 -9.55 8.15 -9.7 8.2 -9.85 8.35 -9.85 8.4 -9.8 8.65 -9.8 8.85 -9.75 9.05 -10.05 Q9.2 -10.25 9.2 -10.4 9.2 -10.7 9.1 -10.8 9.05 -10.9 8.55 -11.2 8.35 -11.3 8.35 -11.4 L8.4 -11.6 8.15 -11.85 Q8.05 -11.95 8.05 -12.1 8.05 -12.25 8.05 -12.2 8.4 -12.25 8.65 -12.55 8.8 -12.8 9.0 -12.8 M6.65 -17.1 L6.85 -17.1 Q7.05 -16.95 7.05 -16.7 7.05 -16.55 6.9 -16.35 6.8 -16.2 6.65 -16.1 L6.6 -16.2 6.55 -16.25 6.25 -16.3 Q6.1 -16.15 5.9 -16.1 L5.85 -16.15 Q5.85 -16.2 6.0 -16.4 L6.15 -16.7 6.45 -16.7 Q6.55 -16.8 6.55 -16.85 6.5 -16.9 6.45 -16.95 6.45 -17.0 6.5 -17.05 6.6 -17.05 6.65 -17.1 M8.1 -16.25 L8.3 -16.4 8.75 -16.4 8.8 -16.25 Q8.8 -16.15 8.75 -16.15 L8.7 -16.1 8.85 -16.0 9.15 -15.95 9.65 -15.95 9.7 -16.0 9.9 -15.95 Q9.9 -15.9 9.95 -15.75 L10.0 -15.5 10.0 -15.3 9.7 -15.2 9.5 -15.15 9.4 -15.25 Q9.25 -15.35 8.75 -15.25 L8.55 -15.2 8.5 -15.1 Q8.4 -15.1 8.4 -15.15 L8.35 -15.15 8.45 -15.3 Q8.55 -15.4 8.55 -15.5 L8.55 -15.9 Q8.45 -16.1 8.1 -16.25 M9.45 -19.35 L9.55 -19.1 Q9.65 -18.9 9.75 -18.85 L10.0 -18.9 Q10.15 -18.85 10.2 -18.7 L10.2 -18.45 Q10.2 -18.1 10.1 -18.05 10.05 -17.95 9.8 -17.8 L9.5 -17.7 Q9.45 -17.7 9.4 -17.75 9.35 -17.8 9.25 -17.8 L9.0 -17.7 8.7 -17.6 8.65 -17.5 Q8.7 -17.35 8.6 -17.1 L8.5 -16.8 8.05 -16.8 7.85 -16.6 7.65 -16.6 7.6 -16.65 8.15 -17.1 Q8.45 -17.35 8.45 -17.6 L8.4 -17.85 Q8.3 -18.05 8.3 -18.15 8.3 -18.25 8.5 -18.5 L8.55 -18.4 8.6 -18.25 Q8.85 -18.3 8.95 -18.45 L9.15 -18.8 9.05 -18.8 Q9.0 -18.85 9.0 -18.95 9.0 -19.05 9.15 -19.2 9.35 -19.3 9.45 -19.35 M4.2 -14.8 L4.35 -14.35 4.4 -13.9 Q4.4 -13.8 4.35 -13.8 4.25 -13.8 4.25 -13.7 4.25 -13.65 4.35 -13.45 4.45 -13.25 4.55 -13.25 L4.7 -13.3 4.9 -13.3 Q4.9 -13.35 5.0 -13.5 L5.15 -13.65 5.35 -13.7 6.0 -12.8 Q6.05 -12.7 6.05 -12.15 6.05 -12.05 5.85 -11.75 L5.6 -11.4 5.35 -11.65 Q5.25 -11.5 5.1 -11.25 L5.0 -10.9 5.0 -10.75 5.05 -10.65 Q5.35 -10.6 5.4 -10.5 5.35 -10.3 5.4 -10.2 L5.4 -10.1 5.1 -10.0 4.8 -9.95 4.7 -9.8 Q4.65 -9.7 4.65 -9.6 4.65 -9.5 4.7 -9.35 L4.8 -9.15 4.7 -9.0 Q4.6 -8.9 4.6 -8.7 L4.55 -8.15 4.45 -8.2 4.3 -8.85 4.15 -9.35 Q4.15 -9.5 4.2 -9.45 4.35 -9.45 4.5 -9.8 4.65 -10.15 4.65 -10.35 4.65 -10.55 4.6 -10.7 4.5 -10.75 4.35 -11.05 4.15 -11.35 4.15 -11.45 L4.25 -11.85 4.3 -12.3 4.25 -12.6 4.1 -12.9 4.05 -12.85 4.0 -12.75 3.95 -12.8 3.9 -12.7 3.75 -12.35 3.7 -12.35 3.7 -12.6 3.65 -12.7 3.65 -12.8 Q3.7 -13.3 3.8 -13.9 3.95 -14.7 4.2 -14.8 M5.55 -17.75 L5.5 -18.05 Q5.5 -18.2 5.55 -18.3 5.55 -18.4 6.05 -18.8 L6.35 -18.8 6.6 -18.6 6.6 -18.45 Q6.6 -18.3 6.5 -18.0 L6.35 -17.7 6.3 -17.8 Q6.25 -17.85 6.15 -17.85 6.1 -17.85 6.0 -17.7 L5.8 -17.5 Q5.65 -17.3 5.7 -16.95 5.8 -16.65 5.65 -16.4 5.5 -16.05 5.1 -15.85 5.1 -15.95 5.1 -16.05 4.85 -15.9 4.7 -15.65 4.6 -15.35 4.45 -15.3 4.4 -15.3 4.4 -15.35 L4.65 -16.1 Q4.85 -16.55 4.85 -16.75 L4.85 -16.9 Q5.25 -16.9 5.4 -17.25 5.5 -17.45 5.55 -17.75 M12.05 -15.45 L12.65 -15.5 13.0 -15.3 Q13.15 -15.25 13.15 -15.15 L13.1 -15.0 Q13.1 -14.9 12.9 -14.85 L13.05 -14.6 13.15 -14.35 Q13.15 -14.0 12.95 -13.8 12.65 -13.45 11.85 -13.35 L11.85 -13.3 Q11.8 -13.35 11.65 -13.4 11.35 -13.55 11.3 -13.2 L11.2 -13.1 11.05 -12.9 Q10.9 -12.75 10.6 -12.75 L10.55 -12.75 10.5 -12.8 10.45 -12.8 10.45 -12.95 Q10.45 -13.05 10.55 -13.1 10.6 -13.15 10.6 -13.25 10.6 -13.55 10.05 -13.6 L9.85 -13.55 9.75 -13.5 9.75 -13.3 9.15 -13.3 8.7 -13.35 8.75 -13.5 Q8.75 -13.65 8.6 -13.65 L8.2 -13.7 Q8.5 -13.75 8.8 -13.9 L9.15 -14.1 9.45 -14.1 9.55 -14.35 10.0 -14.4 10.1 -14.35 Q10.15 -14.3 10.15 -14.2 10.15 -14.1 10.05 -14.05 L10.45 -14.1 10.85 -14.2 11.05 -14.35 Q11.15 -14.55 11.1 -14.85 L10.85 -14.85 Q10.8 -14.85 10.75 -14.9 L10.8 -15.15 Q10.8 -15.3 11.0 -15.4 L11.2 -15.45 11.35 -15.5 11.5 -15.4 Q11.65 -15.3 11.85 -15.3 12.0 -15.35 12.05 -15.45" fill="#ffffff" fill-rule="evenodd" stroke="none"/>
      <path d="M6.0 -8.55 L6.05 -8.45 Q6.0 -8.35 5.95 -8.35 L5.5 -8.2 5.4 -8.15 Q5.15 -8.05 4.75 -7.85 L4.45 -7.7 Q4.95 -7.55 5.15 -7.3 5.25 -7.15 5.25 -6.75 L5.2 -6.45 5.05 -6.15 5.05 -6.1 Q5.05 -6.05 4.7 -5.95 L4.45 -5.85 4.4 -5.85 4.4 -5.8 4.25 -5.65 Q4.15 -5.55 4.0 -5.25 3.8 -4.85 3.8 -4.7 3.8 -4.6 3.95 -4.3 L4.15 -3.95 Q4.15 -3.85 3.95 -3.7 L3.85 -3.6 3.9 -3.45 Q3.9 -3.25 3.75 -3.1 L4.0 -3.15 4.2 -3.15 4.35 -3.1 4.45 -3.0 Q4.45 -2.95 4.4 -2.9 4.15 -2.65 2.55 -2.45 L2.45 -2.45 2.25 -2.4 0.6 -2.15 0.35 -2.0 Q-0.05 -1.85 -0.35 -1.75 L-0.65 -1.75 Q-0.75 -1.65 -1.05 -1.5 -1.15 -1.45 -1.2 -1.4 -1.15 -1.35 -1.25 -1.3 -1.3 -1.25 -1.4 -1.25 L-1.5 -1.2 -1.65 -1.2 -1.8 -1.1 -2.2 -1.1 -2.35 -1.15 Q-2.5 -1.2 -2.5 -1.6 -2.5 -1.7 -2.55 -1.7 L-2.75 -1.65 Q-3.0 -1.55 -3.1 -1.55 L-3.25 -1.55 Q-3.35 -1.45 -3.65 -1.3 L-4.15 -1.05 -4.3 -1.0 -4.6 -1.0 -4.75 -1.05 -4.8 -0.95 Q-4.95 -0.75 -4.95 -0.65 -4.95 -0.55 -4.8 -0.3 -4.75 -0.25 -4.8 -0.2 -4.85 -0.15 -4.95 -0.15 L-5.0 -0.1 -5.25 -0.1 -5.45 -0.15 Q-6.35 -0.65 -6.4 -0.7 -6.7 -0.9 -6.7 -1.25 -6.75 -1.4 -5.8 -1.85 L-5.7 -1.9 -5.1 -1.9 -5.0 -2.05 -4.9 -2.15 Q-4.6 -2.3 -4.3 -2.25 -4.0 -2.25 -3.85 -2.0 L-3.8 -1.9 -3.65 -1.95 -3.5 -1.95 -3.5 -2.0 Q-3.5 -2.25 -3.9 -2.3 L-4.15 -2.35 Q-4.25 -2.4 -4.25 -2.45 -4.25 -2.5 -4.15 -2.55 -3.75 -2.85 -3.2 -2.9 L-3.2 -3.0 -3.4 -3.2 -3.7 -3.45 -4.2 -3.4 -4.35 -3.3 Q-4.4 -3.25 -4.55 -3.2 L-4.6 -3.2 Q-4.85 -3.05 -5.75 -2.6 -6.55 -2.25 -6.65 -2.05 L-6.75 -1.95 -6.9 -1.9 -7.2 -1.9 Q-7.3 -1.9 -7.35 -1.95 -7.45 -2.0 -7.4 -2.05 -7.35 -2.3 -6.9 -2.7 -6.3 -3.2 -5.85 -3.2 L-5.7 -3.3 Q-5.3 -3.45 -4.95 -3.5 L-4.8 -3.6 -4.75 -3.7 -4.95 -3.7 Q-6.1 -3.65 -6.6 -3.35 -6.8 -3.25 -7.0 -3.05 L-7.15 -2.9 -7.1 -2.85 -7.1 -2.75 -7.15 -2.7 -7.6 -2.45 Q-7.95 -2.25 -8.3 -2.2 L-8.65 -2.2 -8.8 -2.25 Q-8.85 -2.25 -8.9 -2.3 -9.1 -2.25 -9.45 -2.05 L-9.95 -1.7 -10.05 -1.65 -10.2 -1.6 -10.3 -1.6 -10.5 -1.65 Q-10.65 -1.7 -10.65 -1.75 L-10.65 -2.05 -10.6 -2.05 Q-10.9 -1.75 -10.95 -1.35 L-11.05 -1.3 -11.2 -1.25 -11.3 -1.2 -11.5 -1.2 -11.65 -1.3 Q-11.7 -1.3 -11.7 -1.35 L-11.75 -1.65 Q-11.75 -1.85 -11.35 -2.25 -10.9 -2.75 -10.45 -2.7 L-10.25 -2.65 -10.15 -2.6 Q-9.6 -3.1 -8.5 -3.65 -7.85 -4.05 -7.25 -4.35 L-7.25 -4.4 -7.2 -4.5 Q-6.2 -5.05 -5.75 -5.1 L-5.3 -5.05 -5.15 -5.05 Q-3.9 -5.45 -3.25 -5.7 -2.85 -5.85 -2.55 -6.0 L-2.8 -5.95 -3.0 -5.9 Q-3.15 -5.9 -3.25 -5.95 -3.35 -6.0 -3.35 -6.05 -3.35 -6.15 -3.25 -6.2 -2.1 -6.75 0.7 -7.5 3.1 -8.1 5.6 -8.6 L5.8 -8.6 6.0 -8.55 M-10.25 -1.0 Q-10.0 -1.5 -9.45 -1.5 L-9.25 -1.5 -9.1 -1.45 Q-9.05 -1.4 -9.05 -1.35 -9.0 -1.3 -9.05 -1.15 L-9.1 -1.05 -9.1 -0.85 Q-9.05 -0.8 -8.95 -0.7 L-8.85 -0.65 Q-8.85 -0.6 -8.85 -0.55 L-8.9 -0.55 -8.95 -0.5 -8.85 -0.4 -8.85 -0.35 -9.0 -0.2 -9.4 -0.2 Q-9.8 -0.35 -10.05 -0.55 -10.3 -0.75 -10.3 -0.95 L-10.25 -1.0 M-7.5 -1.35 L-7.3 -1.3 Q-7.2 -1.25 -7.2 -1.2 L-7.2 -0.95 -7.25 -0.8 -7.2 -0.7 Q-7.05 -0.55 -6.95 -0.4 -6.95 -0.3 -7.05 -0.25 L-7.1 -0.25 -7.3 -0.2 -7.55 -0.2 Q-8.3 -0.4 -8.25 -0.7 L-8.25 -0.8 Q-8.25 -0.85 -8.2 -0.9 L-8.05 -0.95 -8.05 -1.0 Q-7.95 -1.25 -7.75 -1.3 L-7.5 -1.35 M-3.45 -0.4 Q-3.45 -0.45 -3.35 -0.55 -3.25 -0.7 -3.1 -0.75 L-2.85 -0.8 -2.65 -0.75 Q-2.55 -0.7 -2.55 -0.65 L-2.55 -0.3 -2.45 -0.2 -2.3 0.0 -2.3 0.05 -2.35 0.15 -2.4 0.15 -2.35 0.2 Q-2.3 0.2 -2.3 0.25 -2.3 0.3 -2.35 0.35 L-2.35 0.4 Q-2.45 0.45 -2.55 0.45 L-2.85 0.45 Q-3.1 0.35 -3.35 0.2 -3.65 0.0 -3.65 -0.1 -3.65 -0.15 -3.5 -0.25 -3.45 -0.3 -3.45 -0.4" fill="#cdffb4" fill-opacity="0.5019608" fill-rule="evenodd" stroke="none"/>
      <path d="M6.95 -0.15 L7.05 -0.2 7.95 -0.45 8.8 -0.6 8.85 -0.65 8.95 -0.7 9.1 -0.75 10.25 -0.65 Q10.45 -0.6 10.65 -0.5 L10.75 -0.45 10.75 -0.4 10.75 -0.4 Q11.15 -0.55 11.2 -0.3 L11.2 -0.1 11.15 -0.05 Q11.0 0.05 10.9 0.05 L10.3 0.2 9.5 0.2 9.35 0.15 Q9.25 0.1 9.35 0.05 L8.9 0.05 8.65 0.0 8.3 -0.05 7.9 0.0 Q7.6 0.1 7.3 0.1 L7.05 0.05 7.0 0.05 6.9 -0.05 Q6.9 -0.1 6.95 -0.15 M5.75 -0.15 L5.75 -0.15 M3.85 -0.4 L4.9 -0.4 Q5.05 -0.4 5.1 -0.3 L5.4 -0.35 5.65 -0.3 Q5.75 -0.25 5.75 -0.2 5.85 -0.25 6.2 -0.25 L6.35 -0.25 6.45 -0.2 6.6 -0.2 Q6.8 -0.2 6.85 -0.05 L6.85 0.05 6.75 0.15 6.6 0.2 Q6.3 0.2 5.75 0.4 5.1 0.65 4.5 0.65 L4.1 0.65 4.05 0.6 4.0 0.6 Q3.35 0.65 2.05 0.95 L0.35 1.35 Q0.3 1.4 0.2 1.4 L0.1 1.45 0.05 1.45 -0.25 1.55 -0.45 1.55 Q-0.85 1.55 -0.9 1.45 L-0.9 1.35 Q-0.85 1.3 -0.8 1.25 L-0.5 1.15 -0.45 1.15 Q-0.35 0.85 1.0 0.55 1.9 0.4 2.2 0.25 L2.2 0.2 Q2.15 0.15 2.25 0.1 2.55 -0.1 2.85 -0.2 3.2 -0.3 3.85 -0.4 M10.55 -0.35 L10.5 -0.35 10.5 -0.3 10.55 -0.35" fill="#cdffb4" fill-opacity="0.5019608" fill-rule="evenodd" stroke="none"/>
      <path d="M8.3 -0.2 Q7.9 -0.2 7.7 -0.1 7.5 -0.05 7.3 -0.05 L7.25 -0.05 8.1 -0.3 9.2 -0.5 9.15 -0.55 10.1 -0.55 Q10.25 -0.5 10.4 -0.4 L10.3 -0.35 10.25 -0.3 10.35 -0.25 10.85 -0.25 10.85 -0.15 10.75 -0.15 10.3 0.05 9.65 0.05 9.35 -0.1 8.95 -0.1 8.95 -0.15 8.3 -0.2 M3.95 -0.25 L4.8 -0.25 4.8 -0.2 4.85 -0.1 5.05 -0.15 5.4 -0.15 5.45 -0.1 Q5.5 -0.05 5.65 0.0 L5.9 0.0 Q5.9 -0.05 5.95 -0.05 L6.0 -0.05 6.2 -0.1 6.45 -0.05 6.5 0.0 6.5 0.05 Q6.15 0.05 5.55 0.3 5.0 0.5 4.45 0.5 L4.25 0.5 4.0 0.45 Q3.3 0.5 1.9 0.85 L0.1 1.2 0.05 1.25 0.0 1.25 -0.15 1.3 -0.4 1.4 -0.55 1.35 -0.3 1.25 -0.15 1.2 Q-0.15 0.95 1.15 0.7 2.6 0.4 2.7 0.2 L2.55 0.2 Q2.8 0.0 3.05 -0.05 L3.95 -0.25" fill="#ffffff" fill-rule="evenodd" stroke="none"/>
      <path d="M5.7 -8.45 L5.2 -8.3 5.25 -8.25 Q4.9 -8.15 4.5 -7.95 4.05 -7.75 4.0 -7.65 4.65 -7.55 4.8 -7.25 4.9 -7.1 4.9 -6.75 L4.85 -6.5 4.7 -6.15 4.5 -6.1 4.2 -5.95 4.1 -5.85 3.95 -5.75 Q3.85 -5.65 3.65 -5.25 3.45 -4.9 3.45 -4.7 3.45 -4.6 3.65 -4.25 L3.8 -3.95 Q3.8 -3.85 3.65 -3.8 L3.5 -3.65 3.55 -3.55 3.55 -3.45 Q3.55 -3.2 3.2 -2.95 L2.95 -2.8 4.1 -3.0 Q3.9 -2.8 2.45 -2.6 L2.4 -2.6 2.15 -2.55 0.4 -2.25 Q0.3 -2.2 0.15 -2.15 -0.25 -1.95 -0.5 -1.9 L-0.25 -2.15 -0.3 -2.2 -0.75 -2.05 Q-0.95 -2.0 -1.05 -1.9 L-1.0 -1.9 -0.85 -1.95 -0.85 -1.9 -1.0 -1.8 -0.95 -1.85 Q-1.0 -1.8 -1.3 -1.6 -1.55 -1.45 -1.5 -1.4 L-1.6 -1.35 -1.6 -1.4 -1.65 -1.45 Q-1.85 -1.35 -2.05 -1.25 -2.15 -1.3 -2.15 -1.6 -2.2 -1.85 -2.55 -1.85 L-2.95 -1.8 -3.15 -1.7 -3.25 -1.7 -3.3 -1.75 Q-3.15 -1.85 -3.15 -2.0 -3.15 -2.45 -3.9 -2.45 -3.55 -2.7 -3.1 -2.75 -2.85 -2.8 -2.85 -3.0 L-3.1 -3.25 Q-3.35 -3.5 -3.6 -3.6 L-4.35 -3.55 -4.45 -3.5 -4.6 -3.35 -4.7 -3.35 -4.55 -3.55 Q-4.4 -3.65 -4.4 -3.7 -4.4 -3.75 -4.85 -3.9 -6.25 -3.8 -6.9 -3.45 L-7.3 -3.1 -7.65 -2.85 -7.45 -2.85 -7.4 -2.8 -7.85 -2.55 Q-8.1 -2.4 -8.4 -2.35 L-8.6 -2.35 -8.65 -2.45 -8.8 -2.45 Q-9.2 -2.45 -9.7 -2.15 L-10.2 -1.75 -10.3 -1.75 -10.3 -2.05 Q-9.9 -2.7 -8.25 -3.55 L-6.75 -4.35 Q-6.75 -4.4 -6.8 -4.4 L-6.9 -4.4 Q-6.05 -4.9 -5.7 -4.95 L-5.1 -4.85 -4.95 -4.9 -5.0 -4.9 Q-3.7 -5.3 -3.05 -5.55 -1.9 -6.0 -1.8 -6.35 L-1.8 -6.4 Q-2.0 -6.4 -2.45 -6.2 L-2.4 -6.25 -3.0 -6.05 -3.05 -6.05 Q-1.9 -6.6 0.9 -7.35 3.25 -7.95 5.7 -8.45 M-10.45 -2.55 Q-11.2 -2.1 -11.3 -1.4 L-11.4 -1.35 -11.4 -1.65 Q-11.4 -1.8 -11.05 -2.15 -10.7 -2.55 -10.45 -2.55 M-9.4 -1.2 L-9.45 -1.05 -9.45 -0.85 Q-9.4 -0.7 -9.2 -0.6 L-9.35 -0.6 -9.45 -0.65 Q-9.45 -0.6 -9.35 -0.5 L-9.2 -0.35 Q-9.55 -0.45 -9.75 -0.6 -9.95 -0.8 -9.95 -0.95 -9.75 -1.3 -9.4 -1.35 L-9.4 -1.2 M-5.85 -3.0 L-5.45 -3.2 Q-5.1 -3.35 -4.8 -3.35 -4.95 -3.2 -6.0 -2.75 -6.9 -2.3 -7.0 -2.05 L-7.1 -2.05 Q-7.0 -2.25 -6.6 -2.6 -6.15 -3.0 -5.85 -3.0 M-7.5 -1.2 Q-7.5 -1.15 -7.55 -1.0 L-7.6 -0.8 Q-7.6 -0.7 -7.5 -0.6 -7.35 -0.5 -7.3 -0.35 L-7.35 -0.35 Q-7.95 -0.5 -7.95 -0.7 L-7.95 -0.8 -7.8 -0.8 -7.7 -0.95 Q-7.65 -1.15 -7.5 -1.2 M-6.35 -1.25 Q-6.35 -1.35 -5.55 -1.75 L-5.35 -1.75 Q-5.3 -1.75 -5.3 -1.7 -4.95 -1.65 -4.8 -1.8 L-4.65 -2.0 Q-4.35 -2.2 -4.15 -1.95 -3.95 -1.7 -3.85 -1.7 L-3.65 -1.75 -3.55 -1.8 -3.55 -1.75 -3.5 -1.7 Q-3.5 -1.55 -3.85 -1.4 L-4.45 -1.15 -4.55 -1.15 Q-4.6 -1.2 -4.5 -1.3 L-4.65 -1.3 Q-4.75 -1.3 -4.75 -1.35 -4.95 -1.3 -5.1 -1.0 -5.3 -0.8 -5.3 -0.65 -5.3 -0.5 -5.1 -0.25 L-5.2 -0.25 Q-6.05 -0.75 -6.15 -0.8 -6.35 -0.95 -6.35 -1.25 M-3.05 -0.5 Q-3.0 -0.6 -2.9 -0.65 L-2.85 -0.3 -2.8 -0.15 -2.6 0.05 -2.7 0.05 -2.75 0.0 -2.85 0.05 -2.85 0.1 -2.8 0.2 -2.65 0.3 Q-2.85 0.25 -3.05 0.1 -3.3 0.0 -3.3 -0.1 L-3.2 -0.15 Q-3.1 -0.25 -3.1 -0.4 L-3.05 -0.5" fill="#ffffff" fill-rule="evenodd" stroke="none"/>
    </g>
  </defs>
</svg>
