<?xml version="1.0" encoding="UTF-8" standalone="no"?>
<svg xmlns:ffdec="https://www.free-decompiler.com/flash" xmlns:xlink="http://www.w3.org/1999/xlink" ffdec:objectType="frame" height="92.75px" width="92.7px" xmlns="http://www.w3.org/2000/svg">
  <g transform="matrix(1.0, 0.0, 0.0, 1.0, 47.3, 47.4)">
    <use ffdec:characterId="2978" height="92.75" transform="matrix(1.0, 0.0, 0.0, 1.0, -47.3, -47.4)" width="92.7" xlink:href="#morphshape0"/>
    <clipPath id="clipPath0" transform="matrix(1.5243, 0.0, 0.0, 1.5243, -1.1, -0.95)">
      <path d="M0.0 -14.4 Q5.95 -14.4 10.2 -10.15 14.4 -5.95 14.4 0.0 14.4 5.95 10.2 10.2 5.95 14.4 0.0 14.4 -5.95 14.4 -10.15 10.2 -14.4 5.95 -14.4 0.0 -14.4 -5.95 -10.15 -10.15 -5.95 -14.4 0.0 -14.4" fill="#ff0000" fill-rule="evenodd" stroke="none"/>
    </clipPath>
  </g>
  <defs>
    <g id="morphshape0" transform="matrix(1.0, 0.0, 0.0, 1.0, 47.3, 47.4)">
      <path d="M-32.05 -1.1 Q-32.05 -14.3 -23.35 -22.95 -14.1 -32.2 -0.95 -32.2 11.65 -32.2 21.0 -22.95 30.2 -14.3 30.2 -1.1 30.2 11.5 21.0 20.75 11.65 30.05 -0.95 30.05 -14.1 30.05 -23.35 20.75 -32.05 11.5 -32.05 -1.1 -32.05 -14.3 -23.35 -22.95 -14.1 -32.2 -0.95 -32.2 11.65 -32.2 21.0 -22.95 30.2 -14.3 30.2 -1.1 30.2 11.5 21.0 20.75 11.65 30.05 -0.95 30.05 -14.1 30.05 -23.35 20.75 -32.05 11.5 -32.05 -1.1 Z" fill="none" stroke="#ffe0b0" stroke-linecap="round" stroke-linejoin="round" stroke-opacity="0.52156866" stroke-width="3.6500000000000004"/>
    </g>
  </defs>
</svg>
