<?xml version="1.0" encoding="UTF-8" standalone="no"?>
<svg xmlns:ffdec="https://www.free-decompiler.com/flash" xmlns:xlink="http://www.w3.org/1999/xlink" ffdec:objectType="frame" height="140.0px" width="234.15px" xmlns="http://www.w3.org/2000/svg">
  <g transform="matrix(1.0, 0.0, 0.0, 1.0, 109.2, 119.35)">
    <use ffdec:characterId="4" height="19.6" transform="matrix(7.0, 0.0, 0.0, 7.0, -108.15, -118.3)" width="33.1" xlink:href="#shape0"/>
  </g>
  <defs>
    <g id="shape0" transform="matrix(1.0, 0.0, 0.0, 1.0, 15.45, 16.9)">
      <path d="M14.35 -16.4 Q13.05 -16.05 12.2 -15.75 11.5 -15.45 10.75 -15.05 L10.55 -15.05 Q10.5 -15.05 10.45 -15.1 L10.4 -15.15 10.45 -15.25 Q10.5 -15.45 11.2 -15.8 11.75 -16.05 12.05 -16.15 12.6 -16.25 13.05 -16.55 13.75 -16.75 15.8 -16.9 L15.85 -16.9 Q17.15 -16.8 17.5 -16.3 17.65 -16.1 17.65 -15.35 17.65 -15.15 17.45 -14.9 17.15 -14.55 16.8 -14.5 L16.7 -14.5 16.6 -14.55 Q16.6 -14.65 16.6 -14.7 16.65 -14.8 16.95 -15.2 17.15 -15.55 17.2 -15.7 17.15 -15.95 16.95 -16.15 16.6 -16.45 15.8 -16.45 L15.0 -16.45 14.4 -16.4 14.35 -16.4 M0.3 -16.3 Q1.45 -15.95 1.75 -15.65 2.4 -14.9 2.4 -14.25 2.4 -14.05 2.35 -13.85 L2.3 -13.8 2.2 -13.75 2.15 -13.75 Q2.1 -13.75 2.05 -13.8 2.0 -13.85 2.0 -13.9 1.95 -14.65 1.6 -15.15 1.2 -15.65 0.55 -15.85 L0.7 -15.8 0.75 -15.75 0.75 -15.65 Q0.75 -15.45 0.55 -15.45 L0.5 -15.45 -0.4 -16.05 -0.75 -16.05 Q-2.15 -16.05 -3.25 -15.5 -3.75 -15.25 -4.15 -14.95 -4.2 -14.9 -4.25 -14.95 L-4.35 -14.95 -4.35 -15.05 Q-4.35 -15.65 -3.25 -16.1 -2.7 -16.35 -2.05 -16.45 L-3.3 -16.4 -3.35 -16.4 Q-5.1 -16.1 -5.75 -15.35 L-5.9 -15.15 Q-5.15 -15.2 -4.15 -14.8 -2.9 -14.25 -2.85 -13.75 -2.85 -13.7 -2.85 -13.65 L-2.95 -13.6 -3.05 -13.6 Q-3.1 -13.65 -4.05 -14.25 -4.75 -14.75 -5.35 -14.75 L-6.05 -14.7 Q-6.15 -14.4 -6.1 -14.05 L-6.15 -13.95 Q-6.2 -13.95 -6.25 -13.9 L-6.4 -13.9 -6.45 -13.95 -6.5 -14.05 -6.55 -14.65 Q-7.9 -14.5 -8.8 -13.8 -9.6 -13.2 -9.6 -12.75 -9.6 -12.3 -9.25 -11.8 -8.85 -11.2 -8.85 -11.1 -8.85 -11.0 -8.9 -10.95 -8.9 -10.9 -9.0 -10.9 L-9.1 -10.9 -9.55 -11.35 Q-9.85 -11.7 -9.9 -11.85 -10.05 -12.35 -10.05 -12.75 -10.1 -13.5 -9.2 -14.2 -8.2 -14.9 -6.45 -15.1 -6.25 -15.5 -5.7 -16.0 -4.7 -16.85 -3.35 -16.8 L-3.45 -16.75 -2.55 -16.85 -1.65 -16.8 -1.7 -16.8 Q-0.65 -16.6 -0.2 -16.4 L0.3 -16.3 M1.0 -15.4 L1.05 -15.4 1.1 -15.35 Q1.2 -15.25 1.2 -15.15 L1.15 -15.05 1.0 -14.9 0.95 -14.9 0.8 -14.95 0.75 -14.95 0.7 -15.0 Q0.65 -15.1 0.65 -15.25 L0.65 -15.35 Q0.7 -15.4 0.75 -15.4 L1.0 -15.4 M8.9 -14.55 L9.0 -14.6 Q9.35 -14.6 9.4 -14.5 L9.4 -14.3 Q9.3 -14.2 9.15 -14.2 8.95 -14.2 8.9 -14.3 8.85 -14.35 8.85 -14.4 L8.85 -14.5 8.9 -14.55 M9.05 -12.55 Q9.65 -12.75 10.25 -12.45 10.8 -12.15 10.8 -11.65 10.8 -11.2 10.1 -10.5 9.45 -9.9 8.9 -9.7 L8.85 -9.7 8.65 -9.65 8.4 -9.65 Q8.35 -9.65 8.35 -9.7 L8.3 -9.75 8.3 -9.85 8.4 -9.9 Q8.8 -10.1 9.55 -10.65 10.35 -11.3 10.4 -11.65 10.35 -11.8 10.2 -11.9 L10.25 -11.9 9.8 -12.15 9.2 -12.15 Q9.15 -12.1 9.1 -12.1 7.7 -11.85 7.0 -11.55 6.6 -11.4 5.95 -10.9 5.3 -10.4 4.9 -10.15 L4.9 -10.1 Q3.75 -9.55 3.7 -9.5 L3.65 -9.45 3.45 -9.4 3.4 -9.35 3.3 -9.35 3.15 -9.4 3.1 -9.45 3.05 -9.55 3.15 -9.65 Q3.95 -10.05 4.6 -10.5 L5.5 -11.2 Q6.6 -12.0 9.05 -12.55 M8.75 -11.3 L8.8 -11.2 Q8.8 -11.0 8.7 -10.9 8.65 -10.9 8.6 -10.9 L8.45 -10.9 8.45 -10.85 8.35 -10.85 Q8.2 -10.85 8.2 -11.15 8.2 -11.4 8.35 -11.4 L8.65 -11.4 8.75 -11.3 M8.15 -9.75 L8.25 -9.7 8.3 -9.6 8.3 -9.5 8.25 -9.45 Q8.15 -9.4 8.0 -9.4 7.8 -9.4 7.75 -9.45 L7.7 -9.5 7.7 -9.65 7.75 -9.75 8.15 -9.75 M7.45 -10.05 Q7.45 -9.95 7.4 -9.85 7.4 -9.8 7.3 -9.8 L7.2 -9.75 7.15 -9.75 7.1 -9.85 Q7.0 -9.9 7.0 -10.1 L7.05 -10.2 7.15 -10.25 Q7.35 -10.25 7.45 -10.15 L7.45 -10.05 M7.45 -9.5 Q7.55 -9.45 7.55 -9.2 L7.5 -9.1 7.45 -9.1 7.4 -9.05 7.3 -9.0 Q7.0 -9.05 7.0 -9.35 L7.05 -9.45 7.15 -9.5 7.45 -9.5 M6.3 -9.1 L6.35 -9.2 6.4 -9.25 Q6.65 -9.3 6.75 -9.15 L6.75 -9.1 6.7 -8.9 6.7 -8.85 6.65 -8.85 6.55 -8.8 6.45 -8.8 6.35 -8.85 Q6.3 -8.95 6.3 -9.1 M6.5 -7.8 Q6.5 -7.85 6.75 -7.95 L6.85 -7.9 Q7.0 -7.85 7.05 -7.8 L7.1 -7.7 Q7.15 -7.55 7.0 -7.5 L6.8 -7.5 Q6.55 -7.5 6.5 -7.6 L6.5 -7.7 Q6.45 -7.75 6.5 -7.8 M7.15 -7.9 Q7.15 -7.95 7.15 -8.0 7.2 -8.05 7.25 -8.05 7.95 -8.2 9.7 -8.75 11.15 -9.25 13.05 -9.5 L13.1 -9.55 13.7 -9.55 Q14.7 -9.7 15.55 -9.3 16.45 -8.9 16.4 -8.5 L16.4 -7.9 Q16.45 -7.75 16.15 -7.5 L16.05 -7.45 Q15.95 -7.4 15.8 -7.4 15.75 -7.4 15.7 -7.4 L15.65 -7.5 Q15.65 -7.55 15.65 -7.6 L15.8 -7.9 Q15.95 -8.1 15.95 -8.2 15.95 -8.3 15.85 -8.4 L15.85 -8.5 15.65 -8.7 Q15.2 -9.05 14.25 -9.1 L13.65 -9.05 13.25 -9.05 Q13.2 -9.0 13.15 -9.0 L12.75 -9.0 12.35 -8.95 12.3 -8.95 Q10.85 -8.7 9.85 -8.35 8.75 -8.0 7.6 -7.75 L7.25 -7.8 7.2 -7.8 7.15 -7.9 M6.65 -7.1 L6.9 -7.15 Q7.0 -7.15 7.0 -7.1 L7.05 -6.95 Q7.0 -6.8 6.8 -6.65 L6.75 -6.6 6.65 -6.6 6.55 -6.65 6.4 -6.8 6.4 -6.95 Q6.45 -7.05 6.65 -7.1 M5.0 -12.85 L5.05 -12.9 5.35 -12.9 5.4 -12.85 5.5 -12.7 5.5 -12.55 Q5.45 -12.4 5.15 -12.4 L5.05 -12.5 Q4.95 -12.6 4.95 -12.75 L5.0 -12.85 M3.55 -13.2 Q3.55 -13.25 3.6 -13.3 L3.7 -13.3 Q4.0 -13.3 4.1 -13.2 L4.1 -13.05 Q4.0 -12.9 3.85 -12.9 3.65 -12.9 3.6 -13.05 3.55 -13.1 3.55 -13.15 L3.55 -13.2 M3.8 -12.1 Q3.8 -12.0 3.7 -11.9 3.65 -11.85 3.6 -11.85 3.4 -11.85 3.25 -12.0 3.2 -12.05 3.2 -12.1 3.2 -12.25 3.35 -12.3 L3.6 -12.35 3.8 -12.15 3.8 -12.1 M1.95 -12.95 L1.95 -13.05 2.0 -13.1 2.1 -13.15 Q2.45 -13.15 2.5 -13.05 L2.5 -12.85 Q2.45 -12.75 2.25 -12.75 2.05 -12.75 2.0 -12.85 1.95 -12.9 1.95 -12.95 M0.2 -13.2 L0.15 -13.05 Q0.15 -12.95 0.05 -12.9 L-0.15 -12.9 -0.2 -12.95 -0.25 -12.95 Q-0.35 -13.05 -0.35 -13.25 L-0.3 -13.35 Q-0.25 -13.35 -0.2 -13.35 L0.05 -13.4 0.15 -13.35 0.2 -13.3 0.2 -13.2 M2.35 -12.2 Q2.45 -12.15 2.4 -12.0 2.35 -11.9 2.2 -11.85 2.0 -11.75 1.9 -11.9 1.85 -11.95 1.85 -12.0 1.9 -12.05 1.95 -12.1 2.1 -12.2 2.2 -12.25 L2.35 -12.2 M5.45 -6.3 Q5.3 -6.25 5.3 -6.55 5.3 -6.85 5.5 -6.8 L5.6 -6.8 5.75 -6.75 5.8 -6.75 Q5.85 -6.75 5.9 -6.75 L5.95 -6.7 5.95 -6.6 Q5.95 -6.35 5.65 -6.3 L5.45 -6.3 M5.55 -5.95 L5.65 -5.95 Q5.75 -5.95 5.75 -5.7 L5.75 -5.55 5.7 -5.45 5.5 -5.45 5.5 -5.5 Q5.25 -5.55 5.25 -5.8 L5.25 -5.9 5.35 -5.95 5.55 -5.95 M3.5 -3.7 L3.45 -3.8 Q3.4 -3.85 3.4 -4.05 L3.4 -4.15 3.5 -4.2 3.8 -4.2 3.9 -4.1 3.95 -4.0 3.9 -3.9 Q3.8 -3.75 3.6 -3.7 L3.5 -3.7 M5.4 -4.45 Q5.4 -4.55 5.45 -4.55 5.55 -4.7 5.65 -4.6 L5.7 -4.55 5.85 -4.5 5.9 -4.45 5.95 -4.25 5.95 -4.2 5.9 -4.1 Q5.9 -4.05 5.85 -4.05 L5.55 -4.05 Q5.4 -4.1 5.4 -4.35 L5.4 -4.45 M2.15 -3.55 L2.3 -3.4 2.3 -3.3 2.25 -3.25 Q2.1 -3.05 1.9 -3.05 L1.8 -3.1 1.75 -3.1 Q1.7 -3.2 1.7 -3.4 1.7 -3.45 1.75 -3.5 L1.85 -3.55 1.9 -3.55 2.05 -3.6 2.15 -3.55 M3.4 -3.35 Q3.55 -3.2 3.55 -3.1 L3.5 -3.0 3.45 -2.95 3.35 -2.9 3.3 -2.9 3.15 -2.85 Q2.95 -2.8 2.95 -3.1 2.95 -3.35 3.1 -3.4 L3.35 -3.4 3.4 -3.35 M10.25 -6.15 Q9.35 -6.15 9.1 -6.25 L9.05 -6.3 9.0 -6.4 9.0 -6.45 Q9.1 -6.65 9.8 -6.7 11.55 -6.65 12.3 -6.2 12.8 -5.85 12.8 -5.25 12.85 -4.7 12.3 -4.1 11.45 -3.15 9.65 -3.15 L8.95 -3.15 8.35 -3.2 Q7.75 -3.3 7.15 -3.45 6.65 -3.6 6.4 -3.7 L6.35 -3.7 Q6.2 -3.65 6.15 -3.75 6.1 -3.8 6.1 -3.9 6.1 -4.15 6.15 -4.15 L6.35 -4.15 6.4 -4.1 7.2 -3.85 Q8.05 -3.6 8.5 -3.6 10.8 -3.6 11.75 -4.35 12.25 -4.75 12.25 -5.2 12.25 -5.4 12.1 -5.6 11.9 -5.85 11.55 -5.95 11.1 -6.1 10.25 -6.15 M15.35 -7.2 L15.45 -7.3 15.55 -7.3 15.65 -7.25 15.65 -7.15 15.6 -7.05 15.55 -7.0 Q15.5 -6.95 15.45 -6.95 L15.4 -6.95 Q15.35 -6.95 15.35 -7.0 L15.3 -7.05 15.3 -7.15 15.35 -7.2 M-0.6 -14.45 L-0.6 -14.4 -0.55 -14.35 -0.55 -14.15 -0.6 -14.1 Q-0.65 -14.05 -0.85 -14.05 L-0.9 -14.05 -0.95 -14.1 Q-1.05 -14.2 -1.05 -14.35 L-1.0 -14.45 -0.95 -14.5 Q-0.75 -14.55 -0.6 -14.45 M-14.7 -7.2 Q-14.85 -7.1 -14.95 -6.85 -15.05 -6.65 -15.05 -6.45 -15.0 -6.15 -14.65 -5.95 -14.05 -5.55 -13.0 -5.55 -11.85 -5.55 -10.95 -6.0 L-10.15 -6.6 -9.15 -7.15 Q-8.65 -7.5 -8.05 -7.75 L-7.95 -7.75 Q-7.65 -7.7 -7.65 -7.6 L-7.6 -7.5 -7.7 -7.4 Q-8.4 -7.15 -8.9 -6.85 L-9.95 -6.15 Q-10.85 -5.55 -11.65 -5.3 -12.3 -5.05 -12.95 -5.05 L-13.5 -5.1 -13.95 -5.2 Q-14.8 -5.3 -15.15 -5.75 -15.45 -6.05 -15.45 -6.45 -15.45 -7.1 -15.0 -7.55 -14.6 -7.9 -13.65 -8.25 L-13.55 -8.25 -13.5 -8.2 Q-13.45 -8.15 -13.5 -8.1 -13.5 -8.05 -13.55 -8.0 L-14.7 -7.2 M-2.85 -13.45 L-2.85 -13.6 -2.75 -13.65 -2.65 -13.65 Q-2.55 -13.65 -2.35 -13.45 L-2.05 -13.1 -2.0 -13.05 -2.0 -13.0 -2.15 -12.85 Q-2.15 -12.8 -2.2 -12.8 L-2.3 -12.8 -2.55 -13.15 -2.6 -13.15 -2.8 -13.4 -2.85 -13.45 M-2.85 -12.5 L-2.75 -12.4 -2.7 -12.3 -2.75 -12.2 Q-2.8 -12.1 -2.95 -12.05 L-3.05 -12.0 -3.15 -12.0 Q-3.3 -12.05 -3.3 -12.15 L-3.35 -12.2 -3.35 -12.3 Q-3.3 -12.4 -3.15 -12.45 L-2.9 -12.5 -2.85 -12.5 M-1.6 -12.4 L-1.55 -12.35 Q-1.45 -12.25 -1.45 -12.15 -1.5 -12.0 -1.6 -11.95 L-1.7 -11.9 -1.85 -11.95 -1.9 -11.95 -1.95 -12.0 Q-2.0 -12.1 -2.0 -12.25 L-2.0 -12.35 -1.9 -12.4 -1.65 -12.45 -1.6 -12.4 M-0.85 -10.95 Q-1.15 -11.0 -1.15 -11.3 L-1.1 -11.4 -1.0 -11.45 Q-0.85 -11.5 -0.7 -11.35 -0.65 -11.35 -0.65 -11.3 L-0.6 -11.2 -0.6 -11.1 -0.75 -10.95 -0.85 -10.95 M-3.95 -12.75 Q-3.95 -13.0 -3.75 -13.05 L-3.45 -13.05 -3.35 -12.95 -3.35 -12.8 -3.45 -12.65 Q-3.6 -12.55 -3.7 -12.5 -3.75 -12.5 -3.8 -12.5 L-3.9 -12.5 Q-3.95 -12.55 -3.95 -12.75 M-3.1 -11.15 L-3.2 -11.05 -3.3 -11.05 Q-3.6 -11.1 -3.6 -11.4 L-3.6 -11.45 -3.5 -11.5 Q-3.3 -11.55 -3.15 -11.45 L-3.1 -11.4 -3.1 -11.15 M-4.2 -10.35 Q-4.2 -10.15 -4.4 -10.1 L-4.45 -10.05 -4.5 -10.05 Q-4.65 -10.05 -4.7 -10.15 L-4.75 -10.3 Q-4.75 -10.6 -4.55 -10.55 L-4.55 -10.6 -4.45 -10.55 Q-4.3 -10.55 -4.25 -10.45 L-4.2 -10.35 M-4.95 -7.15 Q-4.7 -7.15 -4.6 -6.95 L-4.6 -6.75 -4.9 -6.6 -4.95 -6.6 -5.0 -6.65 -5.15 -6.75 -5.2 -6.8 -5.2 -6.9 Q-5.2 -7.0 -5.1 -7.05 L-5.05 -7.1 Q-5.05 -7.15 -4.95 -7.15 M-3.6 -7.3 L-3.5 -7.2 -3.5 -7.0 -3.55 -6.95 Q-3.55 -6.9 -3.6 -6.9 L-3.65 -6.85 -3.95 -6.85 -4.05 -7.05 -4.05 -7.25 -4.0 -7.35 -3.65 -7.35 -3.6 -7.3 M-7.3 -8.15 L-7.1 -8.1 Q-7.05 -8.1 -7.05 -8.05 L-6.95 -7.95 -6.95 -7.8 Q-7.0 -7.75 -7.15 -7.7 L-7.25 -7.65 Q-7.3 -7.65 -7.3 -7.6 -7.4 -7.55 -7.5 -7.7 L-7.5 -7.9 Q-7.5 -8.15 -7.35 -8.15 L-7.3 -8.15 M-6.0 -8.4 L-6.0 -8.35 Q-6.0 -8.15 -6.15 -8.05 L-6.25 -8.05 -6.3 -8.1 -6.3 -8.05 Q-6.45 -8.1 -6.5 -8.2 L-6.55 -8.3 -6.5 -8.4 -6.35 -8.5 -6.05 -8.45 -6.0 -8.4 M-10.15 -3.75 Q-9.95 -3.65 -9.9 -3.5 L-9.95 -3.45 Q-9.95 -3.4 -10.0 -3.35 -10.55 -3.05 -10.75 -2.7 L-10.75 -2.65 Q-10.85 -2.45 -10.85 -2.0 -10.85 -1.85 -10.5 -1.6 -10.1 -1.25 -9.5 -1.25 -7.7 -1.25 -6.25 -1.75 L-4.85 -2.35 -4.75 -2.4 -4.65 -2.3 Q-4.6 -2.3 -4.65 -2.25 L-4.65 -2.15 Q-5.0 -1.75 -5.95 -1.45 -6.75 -1.15 -8.2 -0.9 L-8.25 -0.85 Q-8.3 -0.8 -8.35 -0.8 L-9.6 -0.9 -9.6 -0.85 Q-10.8 -1.0 -11.15 -1.6 -11.35 -1.9 -11.35 -2.5 -11.4 -3.25 -10.25 -3.75 L-10.15 -3.75 M-1.2 -6.05 Q-1.15 -6.1 -1.1 -6.1 -0.8 -6.15 -0.7 -6.0 L-0.65 -5.95 -0.7 -5.9 Q-0.7 -5.7 -1.0 -5.65 L-1.1 -5.65 -1.15 -5.7 Q-1.2 -5.8 -1.2 -6.0 L-1.2 -6.05 M-1.95 -5.55 L-1.8 -5.55 Q-1.75 -5.55 -1.7 -5.55 -1.65 -5.55 -1.6 -5.45 L-1.6 -5.15 Q-1.6 -5.05 -1.65 -5.05 L-1.8 -5.05 -1.9 -5.1 -2.1 -5.25 -2.15 -5.3 -2.15 -5.4 Q-2.1 -5.5 -1.95 -5.55 M-1.7 -3.65 Q-1.55 -3.8 -1.3 -3.8 L-1.2 -3.7 -1.15 -3.6 -1.15 -3.55 -1.2 -3.45 -1.35 -3.35 -1.4 -3.3 -1.45 -3.3 -1.55 -3.35 Q-1.75 -3.4 -1.7 -3.5 L-1.7 -3.65 M-4.1 -6.55 L-4.05 -6.6 -3.95 -6.65 -3.75 -6.6 -3.7 -6.55 Q-3.6 -6.45 -3.6 -6.35 L-3.6 -6.25 -3.65 -6.2 -3.75 -6.2 -3.8 -6.15 -3.9 -6.15 Q-4.15 -6.3 -4.15 -6.5 L-4.1 -6.55 M-3.85 -2.55 L-3.9 -2.45 -3.9 -2.4 Q-3.95 -2.35 -4.0 -2.35 L-4.3 -2.3 -4.4 -2.3 -4.5 -2.5 -4.5 -2.55 -4.45 -2.65 -4.35 -2.75 -4.25 -2.75 Q-3.95 -2.75 -3.9 -2.65 L-3.85 -2.55 M-2.9 -2.3 L-2.8 -2.25 -2.75 -2.2 Q-2.75 -2.15 -2.8 -2.1 -2.9 -1.9 -4.7 -0.7 -6.15 0.25 -6.2 0.7 -6.2 1.8 -4.85 2.05 -3.1 2.15 -2.75 2.35 -2.7 2.35 -2.7 2.4 -2.65 2.4 -2.65 2.45 L-2.7 2.55 -2.75 2.6 -3.25 2.7 -3.8 2.7 Q-5.45 2.7 -6.2 1.95 -6.6 1.5 -6.6 1.05 -6.6 0.25 -5.25 -0.8 -4.6 -1.3 -3.0 -2.3 L-2.9 -2.3 M-1.6 -3.1 L-1.65 -3.05 -1.8 -2.85 Q-1.8 -2.8 -1.85 -2.8 L-1.9 -2.8 -2.0 -2.85 Q-2.15 -2.85 -2.15 -2.95 L-2.2 -3.05 -2.15 -3.15 Q-2.1 -3.2 -1.95 -3.25 L-2.0 -3.25 Q-1.85 -3.3 -1.7 -3.25 L-1.6 -3.2 -1.6 -3.1" fill="#437edb" fill-opacity="0.6" fill-rule="evenodd" stroke="none"/>
      <path d="M12.15 -15.85 Q11.45 -15.6 10.7 -15.15 L10.55 -15.2 Q10.65 -15.35 11.25 -15.65 11.8 -15.9 12.1 -16.0 12.65 -16.15 13.1 -16.4 13.75 -16.6 15.8 -16.75 17.05 -16.65 17.4 -16.2 17.5 -16.0 17.5 -15.35 17.5 -15.2 17.3 -15.0 17.1 -14.7 16.75 -14.6 L17.05 -15.15 Q17.3 -15.55 17.3 -15.7 17.3 -16.0 17.05 -16.25 16.65 -16.6 15.8 -16.6 L15.0 -16.55 14.3 -16.5 Q13.0 -16.15 12.15 -15.85 M1.65 -15.55 Q2.25 -14.85 2.25 -14.25 L2.2 -13.9 2.15 -13.9 Q2.1 -14.7 1.7 -15.25 1.1 -16.0 -0.05 -16.15 0.2 -15.9 0.6 -15.65 0.6 -15.6 0.55 -15.6 0.5 -15.65 -0.3 -16.15 L-0.35 -16.2 -0.75 -16.2 Q-2.2 -16.2 -3.3 -15.65 -3.85 -15.35 -4.2 -15.05 -4.2 -15.55 -3.2 -15.95 -2.15 -16.4 -0.9 -16.4 -1.3 -16.5 -1.85 -16.6 L-3.4 -16.5 Q-5.2 -16.25 -5.85 -15.45 -6.05 -15.25 -6.1 -15.0 -5.35 -15.1 -4.2 -14.65 -3.05 -14.2 -3.0 -13.75 -3.05 -13.75 -3.95 -14.4 -4.7 -14.9 -5.35 -14.9 L-6.15 -14.85 Q-6.3 -14.5 -6.25 -14.05 L-6.35 -14.05 -6.4 -14.65 -6.35 -14.85 Q-7.9 -14.65 -8.85 -13.95 -9.75 -13.3 -9.75 -12.75 -9.75 -12.25 -9.35 -11.7 L-9.0 -11.1 Q-9.0 -11.0 -9.05 -11.05 L-9.45 -11.45 Q-9.7 -11.75 -9.75 -11.9 -9.95 -12.35 -9.95 -12.75 -9.95 -13.45 -9.1 -14.05 -8.1 -14.8 -6.35 -14.95 -6.2 -15.4 -5.6 -15.9 -4.65 -16.7 -3.4 -16.7 L-2.55 -16.7 -1.7 -16.65 Q-0.65 -16.45 -0.25 -16.3 L0.25 -16.15 Q1.35 -15.85 1.65 -15.55 M1.05 -15.15 L0.95 -15.05 0.8 -15.05 Q0.8 -15.15 0.8 -15.25 L1.0 -15.25 1.05 -15.15 M9.25 -14.4 Q9.25 -14.35 9.15 -14.35 9.05 -14.35 9.0 -14.4 L9.0 -14.45 Q9.25 -14.45 9.25 -14.4 M10.3 -12.0 L9.8 -12.3 9.1 -12.25 Q7.65 -12.0 6.95 -11.7 6.55 -11.55 5.85 -11.0 5.25 -10.5 4.8 -10.25 3.65 -9.65 3.6 -9.6 3.4 -9.55 3.35 -9.5 L3.2 -9.55 Q4.05 -9.95 4.65 -10.4 L5.6 -11.1 Q6.65 -11.9 9.1 -12.4 9.65 -12.6 10.15 -12.3 10.65 -12.05 10.65 -11.65 10.65 -11.25 10.0 -10.6 9.4 -10.05 8.85 -9.85 L8.55 -9.75 8.45 -9.8 Q8.9 -9.95 9.65 -10.55 10.5 -11.25 10.5 -11.65 10.5 -11.85 10.3 -12.0 M8.6 -11.25 L8.65 -11.2 Q8.65 -11.1 8.6 -11.0 L8.4 -11.0 Q8.35 -11.0 8.35 -11.15 L8.35 -11.25 8.6 -11.25 M7.3 -9.95 L7.2 -9.9 Q7.15 -9.95 7.15 -10.1 7.25 -10.1 7.35 -10.05 L7.3 -9.95 M7.35 -9.15 Q7.15 -9.2 7.15 -9.35 L7.35 -9.4 Q7.4 -9.35 7.4 -9.2 L7.35 -9.15 M7.85 -9.6 L7.95 -9.65 8.1 -9.6 8.15 -9.55 Q8.1 -9.5 8.0 -9.5 7.9 -9.5 7.85 -9.55 L7.85 -9.6 M6.6 -8.95 L6.5 -8.95 Q6.45 -9.0 6.45 -9.1 6.55 -9.15 6.6 -9.1 L6.6 -8.95 M6.8 -7.8 L6.95 -7.7 Q7.0 -7.65 6.8 -7.65 L6.65 -7.65 6.6 -7.7 6.8 -7.8 M7.3 -7.95 Q8.0 -8.05 9.75 -8.65 11.2 -9.1 13.15 -9.35 L13.15 -9.4 13.7 -9.4 Q14.65 -9.55 15.5 -9.15 16.25 -8.85 16.25 -8.5 L16.25 -7.9 Q16.25 -7.8 16.05 -7.6 15.95 -7.55 15.8 -7.55 L15.95 -7.8 Q16.1 -8.05 16.1 -8.2 16.1 -8.35 16.0 -8.45 L15.95 -8.6 15.75 -8.8 Q15.25 -9.2 14.25 -9.25 L13.65 -9.2 13.15 -9.15 12.75 -9.15 12.3 -9.1 Q10.85 -8.8 9.8 -8.5 8.75 -8.15 7.6 -7.9 L7.3 -7.95 M5.3 -12.75 L5.4 -12.65 Q5.35 -12.55 5.15 -12.55 5.1 -12.65 5.1 -12.75 L5.2 -12.8 5.3 -12.75 M3.7 -13.15 Q3.9 -13.15 3.95 -13.1 3.95 -13.05 3.85 -13.05 3.75 -13.05 3.7 -13.1 L3.7 -13.15 M3.65 -12.1 L3.6 -12.0 Q3.45 -12.0 3.35 -12.1 3.35 -12.15 3.4 -12.2 L3.55 -12.2 3.65 -12.1 M2.1 -12.95 L2.1 -13.0 Q2.35 -13.0 2.35 -12.95 2.35 -12.9 2.25 -12.9 2.15 -12.9 2.1 -12.95 M0.05 -13.1 L0.0 -13.05 -0.15 -13.05 -0.2 -13.25 0.05 -13.25 0.05 -13.1 M2.15 -12.0 L2.0 -12.0 2.2 -12.1 Q2.3 -12.15 2.3 -12.05 L2.15 -12.0 M5.45 -6.55 Q5.45 -6.7 5.5 -6.7 L5.55 -6.65 5.75 -6.65 5.85 -6.6 Q5.8 -6.45 5.65 -6.4 L5.5 -6.4 Q5.45 -6.45 5.45 -6.55 M5.6 -5.8 L5.6 -5.55 5.55 -5.6 Q5.4 -5.65 5.4 -5.8 L5.5 -5.85 5.6 -5.8 M3.8 -4.0 Q3.7 -3.9 3.55 -3.85 3.5 -3.9 3.5 -4.05 L3.75 -4.05 3.8 -4.0 M5.6 -4.2 Q5.55 -4.2 5.55 -4.35 L5.55 -4.4 5.65 -4.45 5.8 -4.4 5.85 -4.25 5.8 -4.2 5.6 -4.2 M2.15 -3.35 Q2.05 -3.2 1.9 -3.2 1.85 -3.25 1.85 -3.4 L1.95 -3.4 2.05 -3.45 2.15 -3.35 M3.1 -3.1 Q3.1 -3.25 3.15 -3.25 L3.3 -3.25 Q3.4 -3.15 3.4 -3.1 L3.25 -3.0 3.15 -3.0 Q3.1 -3.0 3.1 -3.1 M9.8 -6.6 Q11.5 -6.55 12.2 -6.1 12.7 -5.8 12.7 -5.25 12.7 -4.75 12.2 -4.2 11.4 -3.25 9.65 -3.25 L8.95 -3.3 8.4 -3.35 Q7.8 -3.4 7.15 -3.6 6.6 -3.75 6.4 -3.9 L6.3 -3.85 Q6.2 -3.8 6.2 -3.9 6.2 -4.1 6.25 -3.95 L7.15 -3.7 Q8.05 -3.45 8.5 -3.45 10.85 -3.45 11.85 -4.2 12.4 -4.7 12.4 -5.2 12.4 -5.45 12.2 -5.7 12.0 -5.95 11.55 -6.1 11.1 -6.25 10.25 -6.3 9.4 -6.3 9.15 -6.4 9.2 -6.55 9.8 -6.6 M6.55 -6.85 Q6.55 -6.95 6.7 -7.0 L6.9 -7.0 Q6.85 -6.9 6.7 -6.75 L6.55 -6.8 6.55 -6.85 M15.45 -7.1 L15.4 -7.1 15.5 -7.15 15.45 -7.1 M-0.7 -14.35 L-0.7 -14.2 Q-0.75 -14.2 -0.85 -14.2 -0.9 -14.25 -0.9 -14.35 L-0.7 -14.35 M-13.6 -8.15 L-14.8 -7.3 Q-15.0 -7.15 -15.1 -6.9 -15.15 -6.65 -15.15 -6.45 -15.15 -6.1 -14.75 -5.8 -14.1 -5.4 -13.0 -5.4 -11.8 -5.4 -10.9 -5.9 L-10.05 -6.45 -9.1 -7.05 Q-8.55 -7.4 -8.0 -7.6 -7.8 -7.55 -7.75 -7.55 -8.5 -7.3 -9.0 -6.95 L-10.0 -6.3 Q-10.95 -5.7 -11.7 -5.4 -12.35 -5.2 -12.95 -5.2 L-13.5 -5.25 -13.95 -5.35 Q-14.7 -5.45 -15.05 -5.85 -15.3 -6.1 -15.3 -6.45 -15.3 -7.05 -14.9 -7.45 -14.55 -7.75 -13.6 -8.15 M-2.15 -13.05 L-2.25 -12.95 -2.45 -13.2 -2.7 -13.5 -2.7 -13.55 -2.45 -13.35 -2.15 -13.05 M-1.9 -12.25 L-1.65 -12.3 -1.6 -12.15 Q-1.65 -12.1 -1.7 -12.05 L-1.85 -12.1 -1.9 -12.25 M-2.85 -12.3 L-3.05 -12.15 -3.1 -12.15 -3.2 -12.25 -3.1 -12.3 -2.9 -12.35 -2.85 -12.3 M-0.8 -11.1 Q-1.0 -11.1 -1.0 -11.3 -0.85 -11.35 -0.75 -11.25 L-0.75 -11.15 -0.8 -11.1 M-3.45 -12.85 L-3.55 -12.75 Q-3.65 -12.65 -3.8 -12.65 L-3.8 -12.75 Q-3.8 -12.9 -3.7 -12.9 L-3.5 -12.95 -3.45 -12.85 M-3.2 -11.25 L-3.3 -11.2 Q-3.45 -11.2 -3.45 -11.4 L-3.25 -11.35 -3.2 -11.25 M-4.45 -10.2 L-4.5 -10.2 Q-4.6 -10.2 -4.6 -10.3 -4.6 -10.45 -4.55 -10.45 L-4.5 -10.45 Q-4.4 -10.45 -4.35 -10.35 -4.35 -10.25 -4.45 -10.2 M-3.9 -7.25 L-3.7 -7.2 -3.65 -7.15 -3.65 -7.05 -3.7 -7.0 -3.9 -7.0 -3.95 -7.1 -3.9 -7.25 M-7.35 -7.75 L-7.4 -7.9 Q-7.4 -8.0 -7.3 -8.0 L-7.15 -7.95 -7.15 -7.9 -7.05 -7.9 Q-7.1 -7.85 -7.2 -7.8 L-7.35 -7.8 -7.35 -7.75 M-6.3 -8.35 Q-6.2 -8.4 -6.1 -8.35 -6.1 -8.25 -6.2 -8.2 L-6.3 -8.2 Q-6.35 -8.25 -6.4 -8.3 L-6.3 -8.35 M-10.85 -2.75 Q-11.0 -2.5 -11.0 -2.0 -11.0 -1.8 -10.6 -1.5 -10.15 -1.1 -9.5 -1.1 -7.65 -1.1 -6.2 -1.6 L-4.75 -2.25 Q-5.1 -1.9 -6.0 -1.6 -6.8 -1.3 -8.25 -1.0 L-8.35 -0.95 -9.6 -1.0 Q-10.7 -1.15 -11.05 -1.7 -11.2 -1.95 -11.2 -2.5 -11.2 -3.2 -10.2 -3.6 -10.1 -3.55 -10.05 -3.5 -10.65 -3.15 -10.85 -2.75 M-1.1 -6.0 Q-0.9 -6.0 -0.8 -5.95 -0.85 -5.8 -1.05 -5.8 -1.1 -5.85 -1.1 -6.0 M-1.9 -5.4 Q-1.8 -5.4 -1.75 -5.35 -1.7 -5.5 -1.7 -5.3 -1.7 -5.15 -1.75 -5.15 L-1.8 -5.2 Q-1.9 -5.25 -2.05 -5.35 -2.0 -5.4 -1.9 -5.4 M-1.3 -3.55 L-1.45 -3.45 -1.5 -3.45 -1.6 -3.55 Q-1.5 -3.65 -1.3 -3.65 L-1.3 -3.55 M-3.95 -6.5 L-3.8 -6.45 Q-3.75 -6.4 -3.75 -6.35 L-3.8 -6.3 Q-4.0 -6.4 -4.0 -6.5 L-3.95 -6.5 M-4.95 -7.0 Q-4.8 -7.0 -4.75 -6.9 L-4.75 -6.8 -4.95 -6.75 -5.05 -6.9 -4.95 -7.0 M-4.0 -2.55 L-4.05 -2.5 -4.3 -2.45 -4.35 -2.55 -4.25 -2.65 Q-4.05 -2.6 -4.0 -2.55 M-4.75 -0.85 Q-6.35 0.2 -6.35 0.7 -6.35 1.95 -4.85 2.2 -3.15 2.3 -2.8 2.45 L-3.3 2.55 -3.8 2.6 Q-5.4 2.6 -6.1 1.85 -6.45 1.45 -6.45 1.05 -6.45 0.3 -5.2 -0.7 -4.5 -1.2 -2.9 -2.15 -3.05 -2.0 -4.75 -0.85 M-1.9 -2.95 L-1.95 -2.95 Q-2.05 -3.0 -2.05 -3.05 L-1.95 -3.1 Q-1.85 -3.15 -1.75 -3.1 L-1.9 -2.95" fill="#ffffff" fill-rule="evenodd" stroke="none"/>
    </g>
  </defs>
</svg>
