<?xml version="1.0" encoding="UTF-8" standalone="no"?>
<svg xmlns:ffdec="https://www.free-decompiler.com/flash" xmlns:xlink="http://www.w3.org/1999/xlink" ffdec:objectType="frame" height="113.75px" width="92.05px" xmlns="http://www.w3.org/2000/svg">
  <g transform="matrix(1.0, 0.0, 0.0, 1.0, 16.1, 74.2)">
    <use ffdec:characterId="348" height="16.25" transform="matrix(7.0, 0.0, 0.0, 7.0, -16.1, -74.2)" width="13.15" xlink:href="#shape0"/>
  </g>
  <defs>
    <g id="shape0" transform="matrix(1.0, 0.0, 0.0, 1.0, 2.3, 10.6)">
      <path d="M9.35 -8.4 L9.45 -8.4 9.6 -8.45 Q9.65 -8.5 9.75 -8.45 L10.2 -8.35 10.2 -7.3 Q10.55 -6.7 10.75 -6.1 10.85 -5.7 10.85 -5.35 L10.85 -5.2 Q10.85 -4.1 10.75 -3.4 L10.75 -3.25 Q10.0 -2.75 9.45 -2.05 8.85 -1.2 8.85 -0.45 L8.75 3.7 8.75 3.95 8.7 4.0 8.75 4.2 8.7 4.95 Q8.6 5.65 8.3 5.65 7.95 5.65 7.85 5.3 L7.85 4.75 Q7.8 4.65 7.8 4.4 L7.8 4.15 7.9 3.55 7.9 3.4 7.85 3.6 7.9 3.3 7.9 3.2 8.0 1.15 8.0 1.1 8.05 0.25 8.0 0.0 Q8.0 -0.3 8.1 -1.0 L9.25 -2.95 9.6 -3.4 9.7 -3.7 9.75 -3.7 9.75 -3.8 Q9.75 -4.1 9.75 -4.35 L9.75 -4.5 9.65 -4.9 9.55 -5.25 9.45 -5.8 9.35 -6.9 Q9.2 -7.85 9.15 -8.0 L9.1 -8.15 Q9.1 -8.3 9.2 -8.3 L9.2 -8.4 Q9.25 -8.35 9.35 -8.4 M-1.5 -1.45 L-1.5 -1.45" fill="#111111" fill-rule="evenodd" stroke="none"/>
      <path d="M7.8 4.15 Q7.8 4.0 7.6 4.0 L7.35 4.0 Q6.75 4.15 6.35 4.15 L4.6 4.05 Q4.5 4.05 4.4 4.1 L4.3 4.05 4.1 4.05 Q3.3 3.9 2.55 3.65 1.85 3.4 1.25 3.05 0.7 2.7 0.25 2.3 -0.9 1.25 -1.45 -0.1 -1.85 -1.2 -2.1 -2.35 L-2.15 -2.6 -2.1 -2.7 Q-1.8 -5.35 -1.1 -7.9 -0.8 -8.9 0.1 -9.45 0.5 -9.75 0.95 -9.95 1.5 -10.2 2.05 -10.35 3.2 -10.6 4.4 -10.5 L4.7 -10.5 5.7 -10.6 Q7.4 -10.6 8.65 -9.6 L8.7 -9.5 8.85 -9.3 8.95 -9.15 Q9.25 -8.85 9.35 -8.4 9.25 -8.35 9.2 -8.4 L9.2 -8.3 Q9.1 -8.3 9.1 -8.15 L9.15 -8.0 Q9.2 -7.85 9.35 -6.9 L9.45 -5.8 9.55 -5.25 9.65 -4.9 9.75 -4.5 9.75 -4.35 Q9.75 -4.1 9.75 -3.8 L9.75 -3.7 9.7 -3.7 9.6 -3.4 9.25 -2.95 8.1 -1.0 Q8.0 -0.3 8.0 0.0 L8.05 0.25 8.0 1.1 8.0 1.15 7.9 3.2 7.9 3.3 7.85 3.6 7.9 3.4 7.9 3.55 7.8 4.15 M-1.5 -1.45 L-1.5 -1.45" fill="#c7a36d" fill-rule="evenodd" stroke="none"/>
      <path d="M0.55 -4.95 Q0.55 -5.2 0.9 -5.4 1.2 -5.6 1.65 -5.65 2.8 -5.85 2.85 -5.1 2.9 -4.9 2.85 -4.8 2.75 -4.6 2.5 -4.6 L1.1 -4.5 Q0.7 -4.45 0.6 -4.7 0.55 -4.8 0.55 -4.95 M1.25 -5.25 Q1.1 -5.2 1.1 -5.0 1.1 -4.95 1.1 -4.9 1.15 -4.8 1.35 -4.8 L2.0 -4.8 Q2.2 -4.95 2.2 -5.0 L2.0 -5.2 1.25 -5.25 M3.0 -0.85 Q3.0 -0.6 2.55 -0.5 L2.0 -0.45 1.85 -0.45 1.6 -0.5 Q1.5 -0.5 1.5 -0.55 L2.1 -0.8 2.5 -0.95 3.0 -1.0 3.0 -0.85 M0.0 -2.55 L-0.4 -2.6 -0.3 -2.65 -0.2 -2.65 -0.1 -2.7 0.05 -2.7 0.7 -2.85 1.55 -2.85 Q2.45 -2.75 3.05 -2.55 3.65 -2.3 4.0 -1.9 L4.15 -1.7 4.15 -1.65 4.2 -1.65 4.1 -1.5 Q4.0 -1.35 3.8 -1.35 L3.5 -1.45 3.0 -1.65 2.9 -1.5 Q2.65 -1.25 2.25 -1.25 1.65 -1.25 1.45 -1.75 1.35 -1.95 1.35 -2.2 0.55 -2.45 0.0 -2.55 M8.95 -5.15 Q8.8 -5.15 8.7 -4.95 L8.8 -4.85 Q8.85 -4.75 8.95 -4.75 9.1 -4.75 9.15 -4.8 9.2 -4.85 9.25 -4.95 9.1 -5.15 8.95 -5.15 M9.6 -4.5 Q9.55 -4.35 9.3 -4.35 9.0 -4.35 8.65 -4.65 8.3 -4.9 8.3 -5.0 8.3 -5.45 9.0 -5.4 9.65 -5.35 9.65 -4.85 L9.6 -4.5 M9.1 -3.1 Q9.65 -3.15 9.65 -2.55 9.65 -2.4 9.55 -2.25 9.45 -2.15 9.3 -2.15 9.2 -2.15 9.1 -2.2 L9.05 -2.25 9.05 -2.05 Q9.05 -1.95 9.0 -1.85 8.9 -1.7 8.7 -1.7 L8.55 -1.7 8.3 -1.75 Q8.3 -1.5 8.2 -1.3 8.0 -1.05 7.6 -1.05 L7.5 -1.05 7.4 -0.8 7.55 -0.6 Q7.7 -0.35 7.8 -0.05 L7.8 0.0 Q7.8 0.05 7.7 0.05 7.55 0.05 7.3 -0.2 L7.25 -0.2 Q7.15 0.15 7.1 0.4 8.75 1.5 8.75 3.25 L8.75 3.8 Q8.7 4.15 8.5 4.2 8.35 3.9 8.0 2.3 7.7 1.15 7.1 0.5 L7.1 0.75 Q7.1 1.4 7.4 2.25 7.7 3.1 7.7 3.25 L7.65 3.55 7.6 3.6 Q7.6 3.9 7.3 3.95 L7.0 3.9 7.0 3.8 Q7.05 3.55 7.1 3.15 L6.95 2.75 6.9 2.6 Q6.55 1.7 6.55 1.55 6.55 1.0 6.9 -0.2 7.2 -1.35 7.2 -1.85 L7.35 -2.0 7.4 -2.05 7.6 -2.2 Q8.05 -2.55 8.4 -2.8 8.85 -3.05 9.1 -3.1 M4.15 3.2 Q3.9 3.15 3.85 3.0 3.8 3.0 3.8 2.85 3.85 2.65 3.95 2.45 4.15 2.1 4.5 1.9 L4.65 1.75 4.45 2.25 4.35 2.45 4.35 2.6 Q4.4 2.7 4.65 2.8 L4.75 2.85 4.8 2.9 4.85 2.9 Q5.25 2.95 5.4 3.15 L5.45 3.2 5.45 3.25 5.35 3.4 Q5.3 3.55 5.15 3.55 L5.05 3.55 4.95 3.5 4.6 3.3 4.4 3.2 4.15 3.2 M3.25 0.0 L3.3 0.0 3.3 0.1 Q3.3 0.4 2.7 0.8 L2.6 0.9 1.35 1.55 1.25 1.6 Q0.85 1.7 0.65 1.85 L0.3 2.55 0.35 2.65 Q0.1 3.4 -0.35 3.95 L-0.8 4.3 -0.65 3.9 -0.65 3.85 Q-0.65 3.7 -0.3 2.95 -0.1 2.45 -0.05 2.0 L-0.25 1.95 -0.4 1.95 -0.6 1.9 -0.8 1.85 -0.85 1.85 -1.1 1.75 Q-0.9 1.75 -0.6 1.55 L-0.35 1.4 -0.1 1.25 Q-0.05 1.2 0.05 1.2 L0.1 1.25 0.65 1.25 Q1.15 1.25 1.5 1.05 L1.85 1.0 2.35 0.7 2.95 0.3 3.25 0.0 M-0.45 -2.6 L-0.25 -2.5 -0.4 -2.5 -0.45 -2.55 -0.45 -2.6" fill="#111111" fill-rule="evenodd" stroke="none"/>
      <path d="M1.55 -2.85 L1.15 -3.0 Q0.3 -3.3 -0.45 -3.5 L0.25 -3.6 0.7 -3.65 Q2.95 -3.65 3.9 -2.85 4.45 -2.4 4.55 -1.75 L4.65 -1.6 Q4.75 -1.35 4.85 -0.8 L4.9 0.05 4.8 0.65 4.85 0.85 4.75 0.85 Q4.7 0.7 3.8 -0.95 L3.75 -1.05 3.7 -1.05 3.4 -0.95 3.05 -0.85 3.0 -0.85 3.0 -1.0 2.5 -0.95 2.1 -0.8 1.5 -0.55 Q1.5 -0.5 1.6 -0.5 L1.85 -0.45 2.0 -0.45 Q1.4 -0.2 0.95 -0.25 L0.6 -0.35 Q0.65 -0.5 1.25 -0.9 L1.8 -1.25 Q1.4 -1.5 1.0 -1.85 L0.2 -2.45 0.0 -2.55 Q0.55 -2.45 1.35 -2.2 1.35 -1.95 1.45 -1.75 1.65 -1.25 2.25 -1.25 2.65 -1.25 2.9 -1.5 L3.0 -1.65 3.5 -1.45 3.8 -1.35 Q4.0 -1.35 4.1 -1.5 L4.2 -1.65 4.15 -1.65 4.15 -1.7 4.0 -1.9 Q3.65 -2.3 3.05 -2.55 2.45 -2.75 1.55 -2.85 M-0.3 -2.65 L-0.55 -2.6 -0.8 -2.6 -0.1 -2.7 -0.2 -2.65 -0.3 -2.65 M7.35 -2.0 Q7.5 -2.4 7.85 -2.85 8.5 -3.6 9.35 -3.5 L9.4 -3.4 9.1 -3.1 Q8.85 -3.05 8.4 -2.8 8.05 -2.55 7.6 -2.2 L7.4 -2.05 7.35 -2.0 M8.55 -1.7 L8.3 -1.2 Q7.95 -0.65 7.55 -0.55 L7.55 -0.6 7.4 -0.8 7.5 -1.05 7.6 -1.05 Q8.0 -1.05 8.2 -1.3 8.3 -1.5 8.3 -1.75 L8.55 -1.7 M7.0 3.8 Q6.7 4.1 6.1 4.1 5.35 4.1 4.65 3.6 4.3 3.35 4.15 3.2 L4.4 3.2 4.6 3.3 4.95 3.5 5.05 3.55 5.15 3.55 Q5.3 3.55 5.35 3.4 L5.45 3.25 5.45 3.2 5.4 3.15 Q5.25 2.95 4.85 2.9 L4.8 2.9 4.75 2.85 4.65 2.8 Q4.4 2.7 4.35 2.6 L4.35 2.45 Q4.55 2.45 4.85 2.55 5.1 2.65 5.6 2.9 6.05 3.1 6.3 3.1 6.5 3.1 6.65 2.9 6.8 2.75 6.95 2.75 L7.1 3.15 Q7.05 3.55 7.0 3.8 M4.75 0.5 L4.7 0.35 4.6 0.0 4.7 0.3 4.75 0.5 M3.25 0.0 L3.3 0.0 3.3 0.15 Q3.3 0.55 2.9 0.85 2.75 1.25 2.25 1.65 L1.55 2.2 Q1.1 2.55 0.95 2.75 L-0.05 3.9 Q-0.65 4.4 -1.35 4.55 -1.05 3.7 -0.95 3.25 L-0.4 2.2 -0.25 1.95 -0.05 2.0 Q-0.1 2.45 -0.3 2.95 -0.65 3.7 -0.65 3.85 L-0.65 3.9 -0.8 4.3 -0.35 3.95 Q0.1 3.4 0.35 2.65 L0.3 2.55 0.65 1.85 Q0.85 1.7 1.25 1.6 L1.35 1.55 2.6 0.9 2.7 0.8 Q3.3 0.4 3.3 0.1 L3.3 0.0 3.25 0.0 2.95 0.3 2.35 0.7 1.85 1.0 1.5 1.05 Q1.15 1.25 0.65 1.25 L0.1 1.25 3.25 0.0 M-0.6 1.9 L-1.35 1.9 -1.7 1.85 -0.35 1.4 -0.6 1.55 Q-0.9 1.75 -1.1 1.75 L-0.85 1.85 -0.8 1.85 -0.6 1.9" fill="#a9854f" fill-rule="evenodd" stroke="none"/>
      <path d="M1.25 -5.25 L2.0 -5.2 2.2 -5.0 Q2.2 -4.95 2.0 -4.8 L1.35 -4.8 Q1.15 -4.8 1.1 -4.9 1.1 -4.95 1.1 -5.0 1.1 -5.2 1.25 -5.25 M8.95 -5.15 Q9.1 -5.15 9.25 -4.95 9.2 -4.85 9.15 -4.8 9.1 -4.75 8.95 -4.75 8.85 -4.75 8.8 -4.85 L8.7 -4.95 Q8.8 -5.15 8.95 -5.15" fill="#003366" fill-rule="evenodd" stroke="none"/>
      <path d="M5.7 -4.1 Q5.7 -4.35 5.85 -4.5 6.0 -4.65 6.2 -4.65 6.7 -4.65 6.7 -3.95 6.7 -3.45 6.2 -3.45 5.9 -3.45 5.75 -3.75 5.7 -3.9 5.7 -4.1 M4.35 -5.5 Q4.55 -5.4 4.75 -5.25 4.95 -5.0 4.95 -4.8 4.95 -4.6 4.9 -4.55 4.8 -4.35 4.45 -4.35 3.95 -4.35 3.8 -4.55 3.7 -4.65 3.7 -4.9 3.7 -5.65 4.35 -5.5 M0.25 -4.2 Q0.15 -4.05 -0.2 -4.05 -0.55 -4.05 -0.7 -4.3 -0.75 -4.45 -0.75 -4.55 -0.75 -5.05 -0.2 -5.05 0.35 -5.05 0.35 -4.45 0.35 -4.25 0.25 -4.2 M5.65 -2.3 Q5.65 -2.85 6.2 -2.85 6.75 -2.8 6.75 -2.3 6.75 -2.1 6.65 -1.95 6.5 -1.75 6.2 -1.75 5.8 -1.75 5.7 -2.05 L5.65 -2.3 M5.7 -0.55 Q5.7 -1.15 6.15 -1.15 6.65 -1.1 6.65 -0.55 6.65 -0.35 6.6 -0.25 6.5 -0.05 6.2 -0.05 5.8 -0.05 5.7 -0.3 5.65 -0.45 5.7 -0.55 M7.05 -4.8 Q7.05 -5.45 7.55 -5.45 8.05 -5.4 8.05 -4.8 8.05 -4.6 7.95 -4.5 7.85 -4.35 7.6 -4.35 7.2 -4.35 7.1 -4.55 L7.05 -4.8 M6.4 1.2 Q6.25 1.35 6.05 1.35 5.75 1.35 5.6 1.15 L5.55 0.95 Q5.55 0.45 6.0 0.4 6.5 0.4 6.5 0.9 6.5 1.1 6.4 1.2 M6.6 2.65 Q6.5 2.8 6.3 2.8 5.95 2.8 5.8 2.55 L5.75 2.3 Q5.75 1.8 6.25 1.8 6.7 1.85 6.7 2.35 6.7 2.55 6.6 2.65 M-1.55 -4.25 Q-1.05 -4.3 -1.05 -3.75 -1.05 -3.55 -1.2 -3.45 -1.35 -3.3 -1.65 -3.3 -1.95 -3.3 -2.05 -3.45 L-2.05 -3.7 Q-2.05 -4.2 -1.55 -4.25 M-2.25 -2.2 Q-2.25 -2.8 -1.7 -2.7 -1.2 -2.6 -1.2 -2.1 -1.2 -1.9 -1.25 -1.75 -1.4 -1.55 -1.7 -1.55 -2.15 -1.55 -2.25 -1.9 -2.3 -2.05 -2.25 -2.2 M-0.9 -0.95 Q-0.95 -1.05 -0.95 -1.15 -0.95 -1.65 -0.3 -1.65 0.3 -1.65 0.3 -1.1 0.3 -0.7 -0.3 -0.7 -0.75 -0.7 -0.9 -0.95" fill="#506060" fill-rule="evenodd" stroke="none"/>
    </g>
  </defs>
</svg>
