<?xml version="1.0" encoding="UTF-8" standalone="no"?>
<svg xmlns:ffdec="https://www.free-decompiler.com/flash" xmlns:xlink="http://www.w3.org/1999/xlink" ffdec:objectType="frame" height="124.6px" width="120.4px" xmlns="http://www.w3.org/2000/svg">
  <g transform="matrix(1.0, 0.0, 0.0, 1.0, 59.15, 105.35)">
    <use ffdec:characterId="4023" height="12.85" transform="matrix(7.0, 0.0, 0.0, 7.0, -58.45, -90.3)" width="13.85" xlink:href="#shape0"/>
  </g>
  <defs>
    <g id="shape0" transform="matrix(1.0, 0.0, 0.0, 1.0, 8.35, 12.9)">
      <path d="M5.3 -12.6 L5.4 -12.6 5.45 -12.5 5.5 -12.35 5.5 -12.25 5.45 -12.15 5.4 -12.1 5.25 -12.1 Q5.2 -12.1 5.15 -12.15 L5.1 -12.15 Q5.05 -12.25 5.05 -12.35 5.0 -12.45 5.15 -12.55 5.25 -12.6 5.3 -12.6 M4.45 -12.8 Q4.5 -12.65 4.5 -12.45 L4.55 -12.45 4.6 -12.4 4.6 -12.15 4.5 -12.1 4.15 -12.05 4.1 -12.1 3.9 -12.1 Q3.85 -12.1 3.8 -12.15 L3.75 -12.2 Q3.75 -12.15 3.7 -12.05 L3.7 -11.95 Q3.7 -11.85 3.6 -11.7 3.5 -11.6 3.45 -11.6 L3.4 -11.55 3.2 -11.6 3.05 -11.65 Q3.0 -11.65 2.95 -11.7 L2.9 -11.7 2.95 -11.6 2.9 -11.35 Q2.9 -11.2 2.75 -11.1 L2.85 -10.95 Q3.05 -10.75 3.05 -10.65 3.05 -10.45 2.8 -10.15 2.5 -9.85 2.35 -9.85 2.2 -9.85 2.15 -9.95 L2.05 -9.9 1.9 -9.9 1.85 -9.8 1.8 -9.75 1.65 -9.75 Q1.6 -9.55 1.35 -9.4 L1.2 -9.25 1.15 -9.15 1.2 -9.15 1.25 -9.1 1.3 -9.1 1.3 -8.55 Q1.25 -8.4 1.1 -8.3 L1.05 -8.3 1.1 -8.15 1.1 -8.1 1.05 -7.95 1.35 -7.95 1.45 -7.9 1.55 -7.95 Q1.6 -8.25 1.75 -8.35 L2.15 -8.35 2.35 -8.3 2.4 -8.3 2.45 -8.25 2.5 -8.25 2.55 -8.4 Q2.65 -8.6 2.95 -8.7 2.85 -8.8 2.9 -8.9 2.85 -9.1 3.35 -9.5 3.4 -9.55 3.8 -9.65 L3.8 -9.7 Q4.45 -9.65 4.6 -9.55 L4.65 -9.5 4.7 -9.4 4.75 -9.4 Q4.85 -9.35 4.95 -9.15 5.0 -9.0 5.0 -8.9 L5.0 -8.6 Q5.0 -8.3 4.8 -8.05 L4.5 -7.55 4.4 -7.5 4.35 -7.45 Q4.1 -7.5 4.05 -7.55 L3.9 -7.5 3.95 -7.35 3.9 -7.2 3.85 -7.15 Q3.9 -7.0 3.5 -6.75 3.2 -6.55 3.05 -6.55 L2.6 -6.6 2.6 -6.65 2.5 -6.65 2.35 -6.5 Q2.15 -6.35 1.95 -6.35 L1.65 -6.4 1.6 -6.4 1.5 -6.45 1.4 -6.55 1.4 -6.6 1.1 -6.6 1.05 -6.5 Q0.9 -6.3 0.75 -6.3 L0.2 -6.35 0.15 -6.4 0.0 -6.45 Q-0.1 -6.45 -0.2 -6.55 L-0.35 -6.55 -0.5 -6.25 Q-0.7 -5.95 -1.05 -6.05 L-1.1 -6.0 -1.05 -5.75 -1.1 -5.7 -1.1 -5.65 Q-1.15 -5.5 -1.4 -5.35 L-1.75 -5.35 -1.95 -5.15 -2.1 -4.85 Q-2.45 -4.4 -2.85 -4.3 L-3.05 -4.25 -3.1 -4.25 -3.15 -4.15 Q-3.15 -4.1 -3.25 -4.0 L-3.85 -3.55 Q-4.2 -3.3 -4.5 -3.3 L-4.7 -3.3 -4.8 -3.35 -4.85 -3.4 -4.85 -3.55 -4.9 -3.55 -5.05 -3.6 -5.15 -3.65 -5.15 -3.7 -5.2 -4.05 Q-5.2 -4.3 -5.0 -4.65 -4.8 -5.05 -4.6 -5.15 L-4.55 -5.15 -4.5 -5.2 -4.35 -5.2 -4.35 -5.3 -4.3 -5.4 Q-4.4 -5.55 -4.35 -5.6 -4.4 -5.7 -4.0 -6.1 -3.7 -6.4 -3.6 -6.45 L-3.5 -6.45 -3.05 -6.4 Q-3.0 -6.4 -2.95 -6.45 L-2.7 -6.7 -2.75 -6.7 Q-2.8 -6.7 -2.85 -6.75 L-3.1 -6.95 -3.2 -7.05 -3.2 -7.1 -3.65 -6.95 Q-4.4 -6.95 -4.4 -7.35 -4.4 -7.5 -4.2 -7.55 L-4.05 -7.55 -3.85 -7.5 Q-3.85 -7.55 -3.85 -7.7 -3.8 -7.85 -3.4 -7.9 -3.15 -8.35 -2.75 -8.15 -2.4 -7.95 -2.4 -7.65 -2.4 -7.6 -2.55 -7.45 L-2.55 -7.35 -2.5 -7.35 Q-2.5 -7.45 -2.35 -7.6 L-2.15 -7.6 Q-2.0 -7.75 -1.6 -7.75 -1.2 -7.8 -1.2 -7.95 -1.2 -8.05 -1.1 -8.25 -0.95 -8.45 -0.8 -8.5 L-0.7 -8.5 -0.65 -8.45 -0.5 -8.5 -0.3 -8.55 -0.2 -8.55 0.0 -8.6 0.15 -8.7 Q0.2 -8.75 0.2 -8.85 0.1 -9.25 0.35 -9.35 L0.5 -9.4 0.5 -9.65 0.55 -9.75 0.6 -9.8 Q0.65 -9.95 0.95 -10.0 L1.0 -10.05 1.05 -10.05 1.4 -10.1 1.7 -10.1 1.7 -10.15 Q1.65 -10.2 1.65 -10.35 1.65 -10.55 1.7 -10.55 L1.7 -10.6 Q1.75 -10.7 2.0 -10.8 L2.2 -10.8 2.25 -10.95 2.3 -11.15 Q2.2 -11.25 2.2 -11.35 2.2 -11.5 2.55 -11.8 L2.65 -11.85 2.75 -11.85 2.8 -11.8 2.85 -11.8 2.9 -11.75 2.9 -11.85 Q2.9 -12.05 3.15 -12.2 L3.2 -12.3 3.25 -12.35 Q3.4 -12.5 3.6 -12.4 3.7 -12.4 3.7 -12.35 3.7 -12.45 3.75 -12.5 L3.75 -12.55 Q3.7 -12.65 3.85 -12.75 4.0 -12.9 4.05 -12.9 L4.35 -12.85 4.45 -12.8 M0.75 -7.8 L0.75 -7.8 M-5.7 -10.2 Q-5.75 -10.0 -5.9 -10.0 L-6.1 -10.0 -6.15 -10.05 -6.2 -10.05 -6.35 -10.2 -6.35 -10.15 Q-6.4 -10.0 -6.6 -10.05 L-6.65 -10.05 -6.75 -10.1 -6.85 -10.2 Q-6.9 -10.4 -6.7 -10.5 -6.5 -10.6 -6.35 -10.4 L-6.3 -10.5 -6.2 -10.55 -6.1 -10.7 -6.0 -10.75 -5.95 -10.75 -5.85 -10.7 Q-5.65 -10.55 -5.7 -10.35 L-5.7 -10.2 M-4.4 -8.5 L-4.25 -8.45 -4.2 -8.45 -4.15 -8.4 Q-4.0 -8.15 -4.0 -8.1 -4.0 -7.95 -4.15 -7.85 L-4.3 -7.75 -4.35 -7.7 -4.85 -7.7 Q-5.0 -7.7 -5.05 -7.8 L-5.05 -7.85 -5.15 -7.95 -5.15 -8.0 Q-5.15 -8.15 -5.05 -8.2 -5.15 -8.25 -5.2 -8.4 L-5.2 -8.45 -5.25 -8.45 -5.3 -8.5 -5.3 -8.65 -5.25 -8.75 Q-5.15 -8.85 -4.9 -8.7 L-4.85 -8.7 Q-4.7 -8.6 -4.7 -8.4 L-4.7 -8.3 -4.6 -8.3 Q-4.6 -8.45 -4.45 -8.5 L-4.4 -8.5 M-5.7 -8.7 L-5.7 -8.6 -5.75 -8.6 -5.8 -8.55 -5.85 -8.55 -5.9 -8.5 -6.0 -8.55 -6.05 -8.55 -6.15 -8.65 -6.15 -8.75 Q-6.1 -8.9 -6.05 -8.95 L-6.3 -8.95 -6.35 -9.0 -6.45 -9.05 -6.5 -9.1 Q-6.55 -9.15 -6.55 -9.3 -6.6 -9.6 -6.25 -9.6 L-6.15 -9.6 -6.05 -9.65 -5.9 -9.65 -5.85 -9.6 -5.8 -9.5 Q-5.8 -9.45 -5.8 -9.4 -5.9 -9.05 -6.0 -8.95 L-5.9 -9.0 -5.7 -8.8 -5.7 -8.7 M-6.2 -2.7 Q-6.2 -2.55 -6.25 -2.4 L-6.5 -2.05 -6.6 -1.8 -6.7 -1.5 -6.5 -0.6 -6.5 -0.55 -6.4 -0.55 -6.35 -0.45 -6.35 -0.25 -6.4 -0.15 Q-6.4 -0.1 -6.45 -0.1 L-6.6 -0.05 -6.7 -0.1 Q-6.8 -0.1 -6.85 -0.2 L-6.85 -0.4 -6.9 -0.4 Q-7.05 -0.5 -7.15 -0.55 L-7.3 -0.65 -7.4 -0.7 -7.65 -0.85 Q-7.8 -0.9 -7.85 -1.05 L-8.0 -1.15 -8.2 -1.35 Q-8.35 -1.45 -8.35 -1.5 L-8.35 -1.7 -8.3 -2.0 -8.2 -2.15 -8.25 -2.3 -8.3 -2.4 Q-8.3 -2.7 -8.0 -3.05 -7.65 -3.6 -7.05 -3.45 -6.65 -3.55 -6.4 -3.25 -6.2 -3.0 -6.2 -2.7" fill="#31a800" fill-opacity="0.6" fill-rule="evenodd" stroke="none"/>
      <path d="M5.35 -12.45 L5.35 -12.25 5.3 -12.2 5.2 -12.25 Q5.2 -12.3 5.2 -12.35 L5.25 -12.4 5.35 -12.45 M3.95 -12.45 L3.9 -12.5 3.9 -12.55 3.95 -12.65 4.05 -12.75 4.3 -12.7 Q4.35 -12.6 4.35 -12.4 L4.45 -12.35 4.45 -12.25 4.15 -12.2 3.9 -12.25 3.85 -12.3 3.85 -12.4 Q3.9 -12.45 3.95 -12.45 M3.6 -12.25 L3.6 -12.2 3.55 -12.1 3.5 -12.05 Q3.5 -12.0 3.55 -12.0 L3.55 -11.95 3.5 -11.8 Q3.45 -11.75 3.4 -11.7 L3.25 -11.75 3.05 -11.8 3.05 -11.85 Q3.05 -12.0 3.2 -12.1 L3.3 -12.25 Q3.45 -12.35 3.6 -12.25 M2.8 -11.6 L2.75 -11.35 Q2.75 -11.25 2.7 -11.2 L2.6 -11.1 Q2.6 -11.0 2.75 -10.85 2.9 -10.7 2.9 -10.65 2.9 -10.5 2.65 -10.25 2.45 -10.0 2.35 -10.0 L2.3 -10.0 2.3 -10.05 Q2.25 -10.05 2.2 -10.1 L2.05 -10.1 2.0 -10.05 Q1.95 -10.1 2.0 -10.15 L1.8 -10.2 1.8 -10.5 Q1.85 -10.6 2.05 -10.7 L2.2 -10.65 2.25 -10.6 2.4 -10.9 2.45 -11.15 2.4 -11.25 Q2.35 -11.3 2.35 -11.35 2.35 -11.45 2.65 -11.7 L2.75 -11.7 2.8 -11.6 M1.75 -9.95 L1.75 -9.9 Q1.5 -9.95 1.5 -9.8 1.45 -9.65 1.3 -9.55 L1.1 -9.3 0.95 -9.1 Q0.95 -9.05 1.05 -9.0 L1.2 -9.0 1.2 -8.9 1.15 -8.55 Q1.15 -8.5 1.0 -8.45 0.9 -8.35 0.9 -8.3 L0.95 -8.1 Q0.95 -8.0 0.9 -7.95 L0.7 -7.8 0.6 -7.75 0.6 -7.7 0.7 -7.65 0.8 -7.65 1.05 -7.8 1.35 -7.8 1.35 -7.7 Q1.65 -7.75 1.7 -7.95 1.75 -8.15 1.8 -8.2 L2.35 -8.2 2.35 -8.1 2.55 -8.15 2.7 -8.35 Q2.75 -8.5 3.0 -8.55 L3.1 -8.65 3.1 -8.75 3.05 -8.85 3.0 -8.9 Q3.0 -9.05 3.45 -9.4 3.5 -9.45 3.8 -9.55 4.4 -9.55 4.5 -9.45 L4.55 -9.3 4.7 -9.25 Q4.75 -9.25 4.8 -9.1 4.85 -9.0 4.85 -8.95 L4.85 -8.6 Q4.85 -8.35 4.7 -8.1 L4.35 -7.6 4.05 -7.7 Q3.85 -7.7 3.75 -7.5 L3.75 -7.45 3.8 -7.35 3.75 -7.25 3.75 -7.15 Q3.75 -7.05 3.45 -6.85 3.15 -6.7 3.05 -6.7 L2.65 -6.75 2.6 -6.8 2.45 -6.8 2.25 -6.65 Q2.1 -6.5 1.95 -6.5 L1.7 -6.5 1.55 -6.6 Q1.5 -6.65 1.55 -6.75 L1.05 -6.75 1.0 -6.7 0.9 -6.55 Q0.85 -6.45 0.75 -6.45 L0.25 -6.5 Q0.2 -6.5 0.25 -6.55 L0.05 -6.55 Q-0.05 -6.6 -0.1 -6.7 L-0.1 -6.75 -0.2 -6.7 -0.45 -6.7 -0.65 -6.3 Q-0.75 -6.1 -1.05 -6.2 L-1.15 -6.2 Q-1.25 -6.1 -1.25 -6.0 L-1.2 -5.75 -1.25 -5.75 -1.25 -5.7 Q-1.25 -5.6 -1.45 -5.45 L-1.6 -5.5 -1.8 -5.5 Q-2.05 -5.3 -2.1 -5.2 -2.1 -5.05 -2.2 -4.95 -2.55 -4.5 -2.9 -4.45 L-3.15 -4.4 Q-3.25 -4.35 -3.3 -4.2 L-3.55 -3.95 -3.9 -3.7 Q-4.25 -3.45 -4.5 -3.45 L-4.7 -3.45 -4.75 -3.6 -4.8 -3.7 -5.0 -3.75 -5.05 -4.05 Q-5.05 -4.25 -4.9 -4.6 -4.7 -4.95 -4.5 -5.05 L-4.45 -5.05 -4.3 -5.1 Q-4.25 -5.1 -4.2 -5.25 -4.15 -5.4 -4.05 -5.4 L-4.15 -5.5 -4.2 -5.6 -3.9 -6.0 -3.55 -6.3 -3.05 -6.25 Q-2.9 -6.25 -2.85 -6.4 L-2.7 -6.5 Q-2.55 -6.6 -2.55 -6.65 L-2.55 -6.8 -2.75 -6.85 Q-2.9 -6.95 -3.05 -7.05 L-3.0 -7.15 -2.9 -7.2 -2.9 -7.25 -2.85 -7.3 -2.65 -7.3 -2.65 -7.25 -2.55 -7.2 -2.4 -7.25 Q-2.4 -7.35 -2.25 -7.45 L-2.1 -7.45 Q-2.0 -7.6 -1.55 -7.6 -1.05 -7.65 -1.05 -7.95 -1.05 -8.05 -0.95 -8.15 -0.85 -8.3 -0.75 -8.35 -0.7 -8.3 -0.65 -8.3 -0.55 -8.3 -0.45 -8.4 L-0.15 -8.4 0.05 -8.5 0.2 -8.55 Q0.4 -8.65 0.35 -8.9 0.3 -9.15 0.45 -9.2 L0.6 -9.25 0.65 -9.4 0.65 -9.55 0.7 -9.7 Q0.75 -9.8 1.0 -9.85 L1.05 -9.95 1.5 -10.0 1.75 -9.95 M-4.8 -8.2 L-4.6 -8.15 -4.55 -8.15 -4.55 -8.2 -4.45 -8.2 -4.45 -8.35 -4.25 -8.35 Q-4.15 -8.15 -4.15 -8.1 -4.15 -8.05 -4.2 -8.0 L-4.4 -7.8 -4.8 -7.8 -4.9 -7.9 -5.0 -7.95 -5.0 -8.05 -4.95 -8.05 Q-4.85 -8.05 -4.85 -8.1 L-4.8 -8.2 M-4.9 -8.3 L-4.95 -8.3 Q-5.05 -8.3 -5.05 -8.4 -5.1 -8.55 -5.15 -8.55 L-5.2 -8.6 Q-5.1 -8.65 -4.95 -8.6 -4.85 -8.5 -4.85 -8.4 -4.85 -8.35 -4.9 -8.3 M-2.95 -8.0 Q-2.8 -8.0 -2.7 -7.85 L-2.55 -7.65 Q-2.55 -7.6 -2.7 -7.6 L-2.8 -7.4 Q-2.9 -7.3 -3.05 -7.25 L-3.45 -7.25 Q-3.65 -7.1 -3.7 -7.1 L-4.1 -7.15 -4.15 -7.2 -4.2 -7.35 -4.2 -7.4 Q-4.2 -7.45 -4.15 -7.45 -3.9 -7.35 -3.85 -7.3 L-3.7 -7.3 -3.65 -7.35 -3.75 -7.4 -3.75 -7.6 -3.6 -7.75 -3.4 -7.7 -3.3 -7.7 Q-3.25 -7.75 -3.25 -7.85 -3.25 -7.95 -3.2 -7.95 L-2.95 -8.0 M-0.95 -7.8 L-0.95 -7.8 M-5.85 -10.25 Q-5.85 -10.15 -5.95 -10.15 L-6.05 -10.15 -6.05 -10.2 -6.2 -10.2 -6.25 -10.3 -6.2 -10.4 -6.1 -10.4 -5.95 -10.6 Q-5.8 -10.5 -5.8 -10.35 L-5.85 -10.25 M-6.5 -10.2 Q-6.5 -10.15 -6.6 -10.2 L-6.7 -10.2 Q-6.75 -10.3 -6.6 -10.35 -6.5 -10.4 -6.45 -10.3 L-6.5 -10.2 M-6.05 -9.5 L-5.95 -9.5 -5.95 -9.45 Q-6.05 -9.15 -6.1 -9.05 L-6.25 -9.05 -6.3 -9.2 -6.4 -9.2 -6.45 -9.3 Q-6.45 -9.45 -6.25 -9.45 L-6.2 -9.4 -6.2 -9.35 -6.15 -9.35 -6.15 -9.4 -6.1 -9.5 -6.05 -9.5 M-5.85 -8.7 L-5.9 -8.65 -6.0 -8.7 Q-6.0 -8.8 -5.95 -8.85 L-5.85 -8.75 -5.85 -8.7 M-6.7 -3.2 Q-6.45 -3.05 -6.45 -2.8 -6.45 -2.45 -6.65 -2.2 L-6.75 -2.05 -6.8 -2.0 -6.85 -1.9 -6.8 -1.65 -6.85 -1.65 -6.9 -1.45 -6.9 -1.4 -6.85 -1.2 -6.8 -1.15 -6.75 -1.0 -6.8 -0.95 -6.75 -0.8 -6.7 -0.8 -6.65 -0.65 Q-6.7 -0.55 -6.75 -0.55 -6.95 -0.55 -7.0 -0.7 L-7.25 -0.75 -7.45 -0.95 Q-7.7 -1.0 -7.75 -1.15 L-7.85 -1.35 Q-8.15 -1.4 -8.2 -1.5 L-8.2 -1.7 Q-8.2 -1.85 -8.15 -1.95 -8.05 -2.0 -8.05 -2.15 L-8.1 -2.2 -8.15 -2.3 Q-8.15 -2.5 -8.05 -2.65 L-7.9 -2.85 Q-7.75 -3.25 -7.2 -3.3 -6.9 -3.35 -6.7 -3.2 M-6.7 -0.25 L-6.7 -0.4 -6.5 -0.45 -6.5 -0.25 -6.65 -0.2 -6.7 -0.25" fill="#262626" fill-rule="evenodd" stroke="none"/>
      <path d="M2.2 -10.2 L2.15 -10.25 2.05 -10.3 2.15 -10.35 Q2.25 -10.4 2.3 -10.35 2.3 -10.25 2.2 -10.2 M0.75 -8.9 L0.85 -8.65 0.8 -8.6 0.6 -8.55 0.6 -8.7 0.65 -8.85 Q0.7 -8.9 0.75 -8.9 M0.35 -8.15 L0.35 -8.05 0.3 -8.0 0.25 -8.0 0.15 -8.05 0.25 -8.15 0.35 -8.15 M0.05 -7.75 Q-0.2 -7.6 -0.35 -7.55 L-0.5 -7.6 Q-0.6 -7.6 -0.65 -7.65 L-0.5 -7.85 0.0 -7.8 0.05 -7.75 M1.3 -7.45 L1.45 -7.4 1.45 -7.3 Q1.6 -7.25 1.6 -7.1 L1.5 -7.05 1.35 -7.05 Q1.3 -7.05 1.3 -7.15 L1.2 -7.1 Q0.95 -7.05 0.9 -7.0 L0.75 -7.0 Q0.65 -7.0 0.6 -7.05 L0.7 -7.2 Q0.8 -7.3 1.1 -7.25 L1.3 -7.45 M1.8 -7.35 Q1.8 -7.55 2.2 -7.55 L2.2 -7.2 Q2.2 -7.1 2.0 -7.1 L1.85 -7.1 Q1.8 -7.2 1.8 -7.35 M2.45 -7.55 L2.7 -7.5 2.75 -7.4 Q2.75 -7.3 2.65 -7.25 L2.5 -7.3 Q2.45 -7.3 2.45 -7.45 L2.45 -7.55 M3.75 -8.35 L3.8 -8.2 Q3.8 -8.15 3.7 -8.1 3.6 -8.0 3.5 -7.8 L3.5 -7.6 Q3.45 -7.5 3.35 -7.5 L2.95 -7.45 2.9 -7.5 2.9 -7.7 2.95 -7.75 3.2 -7.75 3.15 -7.8 Q3.1 -7.8 3.1 -7.9 3.1 -7.95 3.2 -8.05 3.35 -8.15 3.35 -8.45 L3.75 -8.4 3.75 -8.35 M3.8 -8.55 Q3.8 -8.9 3.95 -9.15 4.45 -9.45 4.45 -9.0 4.45 -8.85 4.4 -8.7 4.3 -8.55 4.3 -8.35 4.25 -8.35 4.2 -8.3 L3.95 -8.35 3.85 -8.4 Q3.8 -8.45 3.8 -8.55 M0.25 -6.95 L0.2 -6.95 Q0.15 -7.0 0.15 -7.1 0.25 -7.15 0.3 -7.05 L0.25 -6.95 M-2.95 -7.45 L-3.05 -7.35 Q-3.15 -7.4 -3.15 -7.55 L-3.0 -7.55 -2.95 -7.45 M-7.05 -3.15 L-6.9 -3.15 Q-6.7 -3.05 -6.65 -2.8 -6.6 -2.7 -6.6 -2.6 L-6.65 -2.5 Q-6.65 -2.4 -6.75 -2.3 L-6.9 -2.25 -7.0 -2.2 Q-7.05 -2.1 -7.15 -2.1 L-7.15 -1.95 -7.2 -1.85 Q-7.2 -1.8 -7.2 -1.75 -7.2 -1.6 -7.3 -1.5 L-7.1 -1.3 -7.1 -1.15 Q-7.1 -1.1 -7.05 -1.05 L-7.0 -1.05 -7.05 -1.0 Q-7.1 -0.95 -7.15 -0.95 -7.2 -0.95 -7.2 -1.0 L-7.3 -1.1 -7.45 -1.05 Q-7.6 -1.3 -7.6 -1.35 L-7.55 -1.45 -7.5 -1.45 -7.7 -1.5 Q-7.85 -1.55 -7.85 -1.6 L-7.9 -1.75 Q-7.9 -1.95 -7.8 -2.05 L-7.85 -2.05 Q-7.95 -2.15 -7.95 -2.35 L-7.85 -2.65 -7.8 -2.65 -7.8 -2.55 Q-7.7 -2.45 -7.7 -2.35 L-7.6 -2.35 Q-7.65 -2.45 -7.65 -2.65 L-7.65 -2.9 Q-7.6 -3.0 -7.3 -3.15 -7.2 -3.15 -7.2 -3.1 L-7.1 -3.1 -7.05 -3.15 M-0.65 -6.85 L-0.7 -6.85 Q-0.75 -6.85 -0.75 -6.95 L-0.7 -7.05 -0.5 -7.1 -0.5 -6.95 -0.65 -6.85 M-1.75 -7.0 Q-1.75 -7.05 -1.6 -7.0 L-1.7 -6.9 Q-1.75 -6.95 -1.75 -7.0 M-1.9 -6.3 Q-1.8 -6.35 -1.8 -6.2 -1.8 -6.15 -1.9 -6.05 L-2.05 -5.95 -2.3 -5.95 -2.6 -5.5 Q-2.9 -5.1 -3.3 -5.05 L-3.35 -5.05 Q-3.3 -4.95 -3.4 -4.8 L-4.2 -4.0 -4.45 -3.9 -4.6 -3.95 Q-4.7 -4.0 -4.7 -4.2 -4.7 -4.5 -4.4 -4.65 -3.9 -4.85 -3.45 -5.1 L-3.6 -5.1 -3.6 -5.25 -3.5 -5.4 -3.2 -5.6 -3.05 -5.75 Q-3.0 -5.85 -2.7 -5.85 -2.6 -6.0 -2.4 -6.05 L-2.35 -6.1 Q-2.3 -6.15 -2.15 -6.3 L-1.9 -6.3" fill="#c1ff3f" fill-rule="evenodd" stroke="none"/>
    </g>
  </defs>
</svg>
