<?xml version="1.0" encoding="UTF-8" standalone="no"?>
<svg xmlns:ffdec="https://www.free-decompiler.com/flash" xmlns:xlink="http://www.w3.org/1999/xlink" ffdec:objectType="frame" height="90.3px" width="1146.95px" xmlns="http://www.w3.org/2000/svg">
  <g transform="matrix(1.0, 0.0, 0.0, 1.0, 145.8, -22.35)">
    <filter id="filter139">
      <feColorMatrix in="SourceGraphic" result="filterResult9" type="matrix" values="1.0 0.0 0.0 0.0 0.0 0.0 1.0 0.0 0.0 0.0 0.0 0.0 1.0 0.0 0.0 0.0 0.0 0.0 1.0 0.0"/>
      <feConvolveMatrix divisor="324.0" in="filterResult9" kernelMatrix="1 1 1 1 1 1 1 1 1 1 1 1 1 1 1 1 1 1 1 1 1 1 1 1 1 1 1 1 1 1 1 1 1 1 1 1 1 1 1 1 1 1 1 1 1 1 1 1 1 1 1 1 1 1 1 1 1 1 1 1 1 1 1 1 1 1 1 1 1 1 1 1 1 1 1 1 1 1 1 1 1 1 1 1 1 1 1 1 1 1 1 1 1 1 1 1 1 1 1 1 1 1 1 1 1 1 1 1 1 1 1 1 1 1 1 1 1 1 1 1 1 1 1 1 1 1 1 1 1 1 1 1 1 1 1 1 1 1 1 1 1 1 1 1 1 1 1 1 1 1 1 1 1 1 1 1 1 1 1 1 1 1 1 1 1 1 1 1 1 1 1 1 1 1 1 1 1 1 1 1 1 1 1 1 1 1 1 1 1 1 1 1 1 1 1 1 1 1 1 1 1 1 1 1 1 1 1 1 1 1 1 1 1 1 1 1 1 1 1 1 1 1 1 1 1 1 1 1 1 1 1 1 1 1 1 1 1 1 1 1 1 1 1 1 1 1 1 1 1 1 1 1 1 1 1 1 1 1 1 1 1 1 1 1 1 1 1 1 1 1 1 1 1 1 1 1 1 1 1 1 1 1 1 1 1 1 1 1 1 1 1 1 1 1 1 1 1 1 1 1 1 1 1 1 1 1 1 1 1 1 1 1 1 1 1 1 1 1 1 1 1 1 1 1" order="54 6" result="filterResult10"/>
    </filter>
    <use ffdec:characterId="833" filter="url(#filter139)" height="86.3" id="am_DescriptionWrapper" transform="matrix(1.0, 0.0, 0.0, 1.0, 112.0, 23.45)" width="567.0" xlink:href="#sprite0"/>
  </g>
  <defs>
    <g id="sprite0" transform="matrix(1.0, 0.0, 0.0, 1.0, 285.0, 59.0)">
      <filter id="filter26">
        <feColorMatrix in="SourceGraphic" result="filterResult0" type="matrix" values="0 0 0 0 0.20392157,0 0 0 0 0.16862746,0 0 0 0 0.05490196,0 0 0 1 0"/>
        <feConvolveMatrix divisor="16.0" in="filterResult0" kernelMatrix="1 1 1 1 1 1 1 1 1 1 1 1 1 1 1 1" order="4 4" result="filterResult1"/>
        <feComposite in="SourceGraphic" in2="filterResult1" operator="over" result="filterResult2"/>
      </filter>
      <use ffdec:characterId="830" filter="url(#filter26)" height="27.55" id="am_Name" transform="matrix(1.0, 0.0, 0.0, 1.0, -285.0, -59.0)" width="567.0" xlink:href="#text0"/>
      <filter id="filter110">
        <feColorMatrix in="SourceGraphic" result="filterResult3" type="matrix" values="0 0 0 0 0.20392157,0 0 0 0 0.16862746,0 0 0 0 0.05490196,0 0 0 1 0"/>
        <feConvolveMatrix divisor="16.0" in="filterResult3" kernelMatrix="1 1 1 1 1 1 1 1 1 1 1 1 1 1 1 1" order="4 4" result="filterResult4"/>
        <feComposite in="SourceGraphic" in2="filterResult4" operator="over" result="filterResult5"/>
      </filter>
      <use ffdec:characterId="831" filter="url(#filter110)" height="39.3" id="am_Desc" transform="matrix(1.0, 0.0, 0.0, 1.0, -280.0, -12.0)" width="559.0" xlink:href="#text1"/>
      <filter id="filter138">
        <feColorMatrix in="SourceGraphic" result="filterResult6" type="matrix" values="0 0 0 0 0.0,0 0 0 0 0.2,0 0 0 0 0.050980393,0 0 0 1 0"/>
        <feConvolveMatrix divisor="16.0" in="filterResult6" kernelMatrix="1 1 1 1 1 1 1 1 1 1 1 1 1 1 1 1" order="4 4" result="filterResult7"/>
        <feComposite in="SourceGraphic" in2="filterResult7" operator="over" result="filterResult8"/>
      </filter>
      <use ffdec:characterId="832" filter="url(#filter138)" height="22.9" id="am_Bonus" transform="matrix(1.0, 0.0, 0.0, 1.0, -285.0, -36.0)" width="567.0" xlink:href="#text2"/>
    </g>
    <g id="text0" transform="matrix(1.0, 0.0, 0.0, 1.0, 2.0, 2.0)">
      <g transform="matrix(1.0, 0.0, 0.0, 1.0, -2.0, -2.0)">
        <use fill="#eee2bc" fill-opacity="0.54901963" height="27.55" transform="matrix(0.0195, 0.0, 0.0, 0.0195, 134.9, 19.25)" width="567.0" xlink:href="#font_HelveticaRounded_LT_Std_Bd_G0"/>
        <use fill="#eee2bc" fill-opacity="0.54901963" height="27.55" transform="matrix(0.0195, 0.0, 0.0, 0.0195, 151.2, 19.25)" width="567.0" xlink:href="#font_HelveticaRounded_LT_Std_Bd_r0"/>
        <use fill="#eee2bc" fill-opacity="0.54901963" height="27.55" transform="matrix(0.0195, 0.0, 0.0, 0.0195, 159.35, 19.25)" width="567.0" xlink:href="#font_HelveticaRounded_LT_Std_Bd_e0"/>
        <use fill="#eee2bc" fill-opacity="0.54901963" height="27.55" transform="matrix(0.0195, 0.0, 0.0, 0.0195, 171.6, 19.25)" width="567.0" xlink:href="#font_HelveticaRounded_LT_Std_Bd_a0"/>
        <use fill="#eee2bc" fill-opacity="0.54901963" height="27.55" transform="matrix(0.0195, 0.0, 0.0, 0.0195, 183.85, 19.25)" width="567.0" xlink:href="#font_HelveticaRounded_LT_Std_Bd_t0"/>
        <use fill="#eee2bc" fill-opacity="0.54901963" height="27.55" transform="matrix(0.0195, 0.0, 0.0, 0.0195, 191.25, 19.25)" width="567.0" xlink:href="#font_HelveticaRounded_LT_Std_Bd_e0"/>
        <use fill="#eee2bc" fill-opacity="0.54901963" height="27.55" transform="matrix(0.0195, 0.0, 0.0, 0.0195, 203.5, 19.25)" width="567.0" xlink:href="#font_HelveticaRounded_LT_Std_Bd_r0"/>
      </g>
      <g transform="matrix(1.0, 0.0, 0.0, 1.0, -2.0, -2.0)">
        <use fill="#eee2bc" fill-opacity="0.54901963" height="27.55" transform="matrix(0.0195, 0.0, 0.0, 0.0195, 217.75, 19.25)" width="567.0" xlink:href="#font_HelveticaRounded_LT_Std_Bd_P0"/>
        <use fill="#eee2bc" fill-opacity="0.54901963" height="27.55" transform="matrix(0.0195, 0.0, 0.0, 0.0195, 231.85, 19.25)" width="567.0" xlink:href="#font_HelveticaRounded_LT_Std_Bd_o0"/>
        <use fill="#eee2bc" fill-opacity="0.54901963" height="27.55" transform="matrix(0.0195, 0.0, 0.0, 0.0195, 244.1, 19.25)" width="567.0" xlink:href="#font_HelveticaRounded_LT_Std_Bd_t0"/>
        <use fill="#eee2bc" fill-opacity="0.54901963" height="27.55" transform="matrix(0.0195, 0.0, 0.0, 0.0195, 251.5, 19.25)" width="567.0" xlink:href="#font_HelveticaRounded_LT_Std_Bd_i0"/>
        <use fill="#eee2bc" fill-opacity="0.54901963" height="27.55" transform="matrix(0.0195, 0.0, 0.0, 0.0195, 257.05, 19.25)" width="567.0" xlink:href="#font_HelveticaRounded_LT_Std_Bd_o0"/>
        <use fill="#eee2bc" fill-opacity="0.54901963" height="27.55" transform="matrix(0.0195, 0.0, 0.0, 0.0195, 269.3, 19.25)" width="567.0" xlink:href="#font_HelveticaRounded_LT_Std_Bd_n0"/>
      </g>
      <g transform="matrix(1.0, 0.0, 0.0, 1.0, -2.0, -2.0)">
        <use fill="#eee2bc" fill-opacity="0.54901963" height="27.55" transform="matrix(0.0195, 0.0, 0.0, 0.0195, 287.65, 19.25)" width="567.0" xlink:href="#font_HelveticaRounded_LT_Std_Bd_o0"/>
        <use fill="#eee2bc" fill-opacity="0.54901963" height="27.55" transform="matrix(0.0195, 0.0, 0.0, 0.0195, 299.9, 19.25)" width="567.0" xlink:href="#font_HelveticaRounded_LT_Std_Bd_f0"/>
      </g>
      <g transform="matrix(1.0, 0.0, 0.0, 1.0, -2.0, -2.0)">
        <use fill="#eee2bc" fill-opacity="0.54901963" height="27.55" transform="matrix(0.0195, 0.0, 0.0, 0.0195, 313.4, 19.25)" width="567.0" xlink:href="#font_HelveticaRounded_LT_Std_Bd_P0"/>
        <use fill="#eee2bc" fill-opacity="0.54901963" height="27.55" transform="matrix(0.0195, 0.0, 0.0, 0.0195, 327.5, 19.25)" width="567.0" xlink:href="#font_HelveticaRounded_LT_Std_Bd_r0"/>
        <use fill="#eee2bc" fill-opacity="0.54901963" height="27.55" transform="matrix(0.0195, 0.0, 0.0, 0.0195, 335.65, 19.25)" width="567.0" xlink:href="#font_HelveticaRounded_LT_Std_Bd_o0"/>
        <use fill="#eee2bc" fill-opacity="0.54901963" height="27.55" transform="matrix(0.0195, 0.0, 0.0, 0.0195, 347.9, 19.25)" width="567.0" xlink:href="#font_HelveticaRounded_LT_Std_Bd_g0"/>
        <use fill="#eee2bc" fill-opacity="0.54901963" height="27.55" transform="matrix(0.0195, 0.0, 0.0, 0.0195, 360.15, 19.25)" width="567.0" xlink:href="#font_HelveticaRounded_LT_Std_Bd_r0"/>
        <use fill="#eee2bc" fill-opacity="0.54901963" height="27.55" transform="matrix(0.0195, 0.0, 0.0, 0.0195, 368.3, 19.25)" width="567.0" xlink:href="#font_HelveticaRounded_LT_Std_Bd_e0"/>
        <use fill="#eee2bc" fill-opacity="0.54901963" height="27.55" transform="matrix(0.0195, 0.0, 0.0, 0.0195, 380.55, 19.25)" width="567.0" xlink:href="#font_HelveticaRounded_LT_Std_Bd_s0"/>
        <use fill="#eee2bc" fill-opacity="0.54901963" height="27.55" transform="matrix(0.0195, 0.0, 0.0, 0.0195, 391.3, 19.25)" width="567.0" xlink:href="#font_HelveticaRounded_LT_Std_Bd_s0"/>
        <use fill="#eee2bc" fill-opacity="0.54901963" height="27.55" transform="matrix(0.0195, 0.0, 0.0, 0.0195, 402.05, 19.25)" width="567.0" xlink:href="#font_HelveticaRounded_LT_Std_Bd_i0"/>
        <use fill="#eee2bc" fill-opacity="0.54901963" height="27.55" transform="matrix(0.0195, 0.0, 0.0, 0.0195, 407.6, 19.25)" width="567.0" xlink:href="#font_HelveticaRounded_LT_Std_Bd_o0"/>
        <use fill="#eee2bc" fill-opacity="0.54901963" height="27.55" transform="matrix(0.0195, 0.0, 0.0, 0.0195, 419.85, 19.25)" width="567.0" xlink:href="#font_HelveticaRounded_LT_Std_Bd_n0"/>
      </g>
    </g>
    <g id="font_HelveticaRounded_LT_Std_Bd_G0">
      <path d="M762.0 -320.5 L762.0 -43.0 Q761.5 -19.0 746.0 -3.0 730.5 13.0 704.5 13.5 669.5 13.5 654.5 -9.5 640.0 -33.0 633.0 -82.0 597.5 -36.0 544.5 -9.5 491.5 17.0 413.5 17.5 316.5 17.0 247.5 -14.0 179.0 -44.5 136.0 -98.0 93.5 -151.5 73.5 -221.0 54.0 -290.5 54.0 -368.5 55.0 -493.5 103.0 -579.5 151.0 -665.5 237.0 -710.0 323.0 -754.5 438.5 -755.0 508.5 -754.5 561.5 -736.5 615.0 -718.5 651.0 -691.0 687.5 -663.5 705.5 -633.5 724.0 -603.0 724.0 -578.0 723.5 -549.0 711.5 -532.5 699.5 -516.5 681.5 -510.0 664.0 -503.5 645.5 -504.0 615.5 -505.0 599.5 -522.0 584.0 -539.5 567.5 -562.0 551.5 -584.5 520.5 -602.0 489.5 -619.0 429.0 -620.0 370.5 -620.5 324.0 -593.5 277.5 -566.5 250.0 -508.5 222.5 -450.5 222.0 -357.0 222.0 -284.0 245.5 -229.0 269.5 -174.0 316.0 -143.0 362.5 -112.0 431.0 -111.5 476.5 -112.0 514.5 -130.5 552.5 -149.0 577.0 -183.0 602.0 -216.5 606.5 -262.0 L497.0 -262.0 Q478.5 -262.0 461.0 -267.5 444.0 -273.0 432.5 -287.0 421.5 -301.0 421.0 -326.5 421.0 -357.5 438.0 -374.0 455.0 -391.0 486.5 -391.0 L693.5 -391.0 Q730.0 -391.0 746.0 -373.0 762.5 -355.0 762.0 -320.5" fill-rule="evenodd" stroke="none"/>
    </g>
    <g id="font_HelveticaRounded_LT_Std_Bd_r0">
      <path d="M67.5 -61.5 L67.5 -479.5 Q68.0 -513.5 87.0 -531.0 106.0 -549.0 135.0 -549.0 164.0 -549.0 183.0 -531.0 202.0 -513.5 202.5 -479.5 L202.5 -422.0 204.5 -422.0 Q213.0 -454.0 228.5 -482.5 243.5 -511.5 268.0 -530.0 292.5 -548.5 328.5 -549.0 364.5 -548.5 387.0 -528.5 410.0 -508.5 410.5 -476.5 409.5 -435.5 387.5 -418.0 365.5 -401.0 337.0 -401.5 L310.0 -401.5 Q264.5 -403.0 241.0 -365.0 217.0 -327.5 217.0 -235.5 L217.0 -61.5 Q218.0 -30.5 201.5 -9.0 185.0 12.5 142.5 13.5 99.5 12.5 83.0 -9.0 66.5 -30.5 67.5 -61.5" fill-rule="evenodd" stroke="none"/>
    </g>
    <g id="font_HelveticaRounded_LT_Std_Bd_e0">
      <path d="M186.5 -325.5 L448.5 -325.5 Q441.5 -378.0 407.5 -411.0 373.5 -443.5 322.5 -444.5 266.5 -444.0 232.5 -412.5 198.5 -380.5 186.5 -325.5 M524.5 -239.5 L186.5 -239.5 Q187.0 -179.0 223.0 -141.5 259.0 -104.0 324.5 -103.0 366.0 -103.5 390.5 -114.5 415.0 -125.5 431.0 -140.0 446.5 -154.5 461.0 -165.5 476.0 -176.5 497.5 -177.0 525.0 -176.0 542.0 -158.0 558.5 -140.0 559.0 -118.5 558.5 -84.5 535.0 -60.0 512.0 -35.0 475.5 -18.5 439.5 -2.5 399.5 5.5 359.5 13.5 324.5 13.5 246.5 13.0 191.5 -10.5 136.5 -34.0 102.5 -73.5 68.5 -112.5 52.5 -160.5 37.0 -208.5 37.0 -258.0 37.5 -345.5 71.0 -411.0 104.5 -476.0 167.5 -512.0 230.5 -548.5 319.5 -549.0 406.0 -548.0 466.0 -513.0 526.5 -478.0 558.0 -422.0 589.5 -366.5 590.0 -304.0 590.5 -266.5 576.0 -252.5 561.5 -239.0 524.5 -239.5" fill-rule="evenodd" stroke="none"/>
    </g>
    <g id="font_HelveticaRounded_LT_Std_Bd_a0">
      <path d="M406.5 -193.5 L406.5 -252.0 Q393.5 -241.0 374.5 -236.0 356.0 -230.5 342.0 -228.5 L287.5 -220.5 Q240.5 -214.0 216.0 -197.0 191.5 -180.0 191.5 -146.5 192.0 -120.5 213.5 -103.0 235.5 -85.5 274.5 -85.0 315.5 -85.5 345.0 -101.0 374.5 -116.0 390.5 -141.0 406.5 -165.5 406.5 -193.5 M556.0 -395.5 L556.0 -144.5 Q556.5 -113.5 560.0 -96.0 563.5 -78.0 567.5 -66.5 571.0 -55.0 571.5 -44.0 570.5 -18.0 551.0 -2.5 531.5 13.0 504.0 13.5 456.0 12.5 436.5 -13.0 416.5 -38.0 415.5 -73.5 372.0 -26.0 321.0 -6.0 270.0 14.0 211.0 13.5 167.5 13.0 129.5 -5.0 91.0 -23.5 67.0 -58.0 43.0 -92.0 42.0 -139.5 42.5 -200.5 70.5 -236.0 98.5 -271.5 146.0 -288.5 193.0 -305.5 251.0 -311.5 L342.0 -321.5 Q369.5 -323.5 387.5 -334.5 406.0 -345.5 406.5 -377.0 405.5 -409.0 378.0 -424.0 351.0 -438.5 312.5 -438.5 271.5 -438.0 247.0 -425.5 222.5 -413.5 206.5 -397.5 190.5 -381.5 176.0 -369.5 161.0 -357.0 139.5 -356.5 110.5 -357.0 93.5 -373.5 76.0 -390.0 76.0 -414.0 76.0 -444.5 103.5 -475.5 130.5 -506.0 183.5 -527.0 236.5 -548.0 313.5 -549.0 385.5 -549.0 440.0 -533.0 494.5 -517.0 525.0 -483.0 555.5 -449.0 556.0 -395.5" fill-rule="evenodd" stroke="none"/>
    </g>
    <g id="font_HelveticaRounded_LT_Std_Bd_t0">
      <path d="M98.5 -119.5 L98.5 -437.0 73.0 -437.0 Q41.5 -437.0 27.5 -449.5 13.5 -461.5 13.5 -486.5 13.5 -511.0 27.5 -523.0 41.5 -535.5 73.0 -535.5 L98.5 -535.5 98.5 -626.5 Q99.0 -663.5 119.0 -682.5 139.0 -701.0 173.5 -701.5 207.5 -701.0 227.5 -682.5 247.5 -663.5 248.0 -626.5 L248.0 -535.5 293.0 -535.5 Q326.0 -535.5 343.5 -524.5 360.5 -513.0 360.5 -486.5 360.5 -459.5 343.5 -448.0 326.0 -437.0 293.0 -437.0 L248.0 -437.0 248.0 -138.0 Q248.0 -121.0 257.5 -112.0 267.0 -103.0 287.0 -103.0 L308.5 -103.0 Q333.0 -103.0 347.0 -90.0 360.5 -77.0 360.5 -53.0 360.5 -20.5 333.0 -3.5 306.0 13.5 252.0 13.5 171.5 13.5 134.5 -20.0 98.0 -53.5 98.5 -119.5" fill-rule="evenodd" stroke="none"/>
    </g>
    <g id="font_HelveticaRounded_LT_Std_Bd_P0">
      <path d="M246.0 -608.5 L246.0 -399.5 402.5 -399.5 Q454.0 -400.0 486.5 -428.0 519.0 -456.0 520.0 -504.0 519.5 -559.0 483.5 -584.0 448.0 -609.0 385.0 -608.5 L246.0 -608.5 M78.0 -70.5 L78.0 -639.0 Q78.5 -694.5 105.0 -716.5 131.0 -738.5 176.5 -737.5 L433.0 -737.5 Q504.5 -737.5 562.0 -713.5 619.5 -689.0 653.5 -637.5 687.0 -585.5 688.0 -504.0 688.0 -436.5 658.0 -384.0 628.0 -331.5 570.5 -301.0 513.5 -271.0 432.0 -270.5 L246.0 -270.5 246.0 -70.5 Q245.5 -32.5 223.0 -9.5 201.0 13.0 162.0 13.5 123.0 13.0 101.0 -9.5 78.5 -32.5 78.0 -70.5" fill-rule="evenodd" stroke="none"/>
    </g>
    <g id="font_HelveticaRounded_LT_Std_Bd_o0">
      <path d="M37.0 -268.5 Q37.0 -348.0 68.5 -411.0 100.0 -474.5 161.5 -511.5 223.5 -548.0 313.5 -549.0 403.5 -548.0 465.5 -511.5 527.0 -474.5 558.5 -411.0 590.0 -348.0 590.0 -268.5 590.5 -192.5 563.5 -128.5 536.5 -65.0 476.0 -26.5 415.0 12.5 313.5 13.5 212.0 12.5 151.0 -26.5 90.5 -65.0 63.5 -128.5 36.5 -192.5 37.0 -268.5 M186.5 -268.5 Q186.5 -222.0 199.5 -183.5 213.0 -144.5 241.0 -121.0 269.0 -97.5 313.5 -97.0 358.0 -97.5 386.0 -121.0 414.0 -144.5 427.5 -183.5 440.5 -222.0 440.5 -268.5 440.5 -317.5 427.0 -355.5 413.5 -394.0 385.0 -416.0 357.0 -438.0 313.5 -438.5 270.0 -438.0 242.0 -416.0 213.5 -394.0 200.0 -355.5 186.5 -317.5 186.5 -268.5" fill-rule="evenodd" stroke="none"/>
    </g>
    <g id="font_HelveticaRounded_LT_Std_Bd_i0">
      <path d="M64.5 -677.5 Q65.5 -710.5 87.5 -732.0 109.0 -754.0 142.0 -755.0 175.5 -754.0 197.0 -732.0 219.0 -710.5 220.0 -677.5 219.0 -644.0 197.0 -622.5 175.5 -600.5 142.0 -599.5 109.0 -600.5 87.5 -622.5 65.5 -644.0 64.5 -677.5 M67.5 -61.5 L67.5 -474.0 Q66.5 -505.0 83.0 -526.5 99.5 -548.0 142.5 -549.0 185.0 -548.0 201.5 -526.5 218.0 -505.0 217.0 -474.0 L217.0 -61.5 Q218.0 -30.5 201.5 -9.0 185.0 12.5 142.5 13.5 99.5 12.5 83.0 -9.0 66.5 -30.5 67.5 -61.5" fill-rule="evenodd" stroke="none"/>
    </g>
    <g id="font_HelveticaRounded_LT_Std_Bd_n0">
      <path d="M59.5 -61.5 L59.5 -474.0 Q59.5 -508.5 75.5 -528.5 92.0 -548.5 127.0 -549.0 162.0 -548.5 178.5 -528.5 195.0 -508.5 194.5 -474.0 L194.5 -454.5 196.5 -454.5 Q227.5 -497.0 271.0 -522.5 315.0 -548.0 378.0 -549.0 424.0 -549.5 467.0 -531.5 510.0 -514.0 537.5 -470.5 565.5 -427.5 566.5 -352.5 L566.5 -61.5 Q567.5 -30.5 551.0 -9.0 534.5 12.5 492.0 13.5 449.0 12.5 432.5 -9.0 416.0 -30.5 417.0 -61.5 L417.0 -322.5 Q417.0 -368.5 394.0 -397.0 371.0 -425.5 322.5 -426.0 296.0 -426.0 270.0 -412.0 244.0 -398.5 227.0 -372.0 209.5 -345.5 209.0 -308.0 L209.0 -61.5 Q210.0 -30.5 193.5 -9.0 177.0 12.5 134.5 13.5 91.5 12.5 75.0 -9.0 58.5 -30.5 59.5 -61.5" fill-rule="evenodd" stroke="none"/>
    </g>
    <g id="font_HelveticaRounded_LT_Std_Bd_f0">
      <path d="M106.5 -61.5 L106.5 -437.0 72.5 -437.0 Q41.5 -437.0 27.5 -449.5 13.0 -461.5 13.5 -486.5 13.0 -511.0 27.5 -523.0 41.5 -535.5 72.5 -535.5 L106.5 -535.5 106.5 -610.5 Q107.0 -657.5 130.0 -690.0 152.5 -722.0 190.0 -738.5 227.0 -755.0 271.5 -755.0 313.0 -755.0 341.0 -738.0 368.5 -720.5 369.5 -683.5 369.0 -662.0 355.5 -647.5 342.0 -632.5 321.5 -632.0 313.0 -632.5 305.0 -633.5 297.0 -635.0 288.5 -635.0 272.5 -635.0 264.5 -625.5 256.0 -616.0 256.0 -600.0 L256.0 -535.5 302.0 -535.5 Q335.0 -535.5 352.5 -524.5 369.5 -513.0 369.5 -486.5 369.5 -459.5 352.5 -448.0 335.0 -437.0 302.0 -437.0 L256.0 -437.0 256.0 -61.5 Q255.5 -24.5 235.5 -5.5 215.5 13.5 181.5 13.5 147.0 13.5 127.0 -5.5 107.0 -24.5 106.5 -61.5" fill-rule="evenodd" stroke="none"/>
    </g>
    <g id="font_HelveticaRounded_LT_Std_Bd_g0">
      <path d="M566.5 -478.5 L566.5 -44.0 Q566.0 46.0 532.0 104.5 498.0 163.0 438.5 191.5 378.5 219.5 300.0 219.5 242.5 219.0 191.0 203.5 140.0 188.0 108.0 160.0 76.0 132.5 75.0 95.5 75.5 67.5 93.5 50.0 111.0 32.5 136.5 32.0 159.5 32.5 175.5 44.0 192.0 55.5 207.5 70.5 223.0 85.5 243.5 97.0 264.0 108.5 295.0 109.0 363.0 110.0 393.0 71.0 423.5 32.5 423.0 -55.5 L423.0 -86.0 421.0 -86.0 Q400.0 -56.0 361.0 -35.5 322.0 -15.5 276.5 -14.5 197.5 -15.0 144.5 -46.5 91.0 -78.0 64.0 -134.0 37.0 -190.0 37.0 -264.5 38.0 -361.0 70.0 -424.5 102.0 -487.5 154.5 -518.0 207.5 -549.0 271.5 -549.0 326.5 -548.5 367.0 -525.0 408.0 -502.0 429.0 -460.0 L431.5 -460.0 431.5 -478.5 Q431.5 -513.0 448.5 -531.0 465.5 -549.0 499.0 -549.0 533.5 -549.0 550.0 -531.0 566.5 -513.0 566.5 -478.5 M186.5 -269.5 Q186.5 -234.5 198.5 -201.5 210.5 -168.5 236.5 -147.0 263.0 -125.5 305.5 -125.0 356.5 -124.5 389.0 -160.5 422.0 -196.5 423.0 -275.5 422.5 -357.0 394.0 -395.0 365.0 -433.0 312.5 -432.5 264.5 -432.0 237.0 -411.0 209.5 -389.5 197.5 -353.0 186.0 -316.0 186.5 -269.5" fill-rule="evenodd" stroke="none"/>
    </g>
    <g id="font_HelveticaRounded_LT_Std_Bd_s0">
      <path d="M36.0 -382.0 Q36.5 -427.5 56.5 -459.5 76.5 -491.5 109.5 -511.0 142.0 -531.0 181.5 -540.0 221.0 -549.0 260.0 -549.0 318.0 -549.0 370.0 -535.0 421.5 -521.0 454.5 -495.5 487.5 -470.0 488.5 -435.5 488.0 -408.5 471.5 -389.5 455.5 -370.5 426.0 -370.0 404.5 -370.5 390.5 -380.5 376.0 -391.0 362.0 -404.0 348.0 -417.5 327.0 -428.0 306.0 -438.0 271.5 -438.5 232.0 -438.5 209.0 -427.5 186.0 -416.0 185.5 -392.5 186.0 -367.0 208.0 -356.5 230.0 -346.0 265.5 -339.0 L327.5 -324.5 Q371.5 -315.5 413.5 -298.0 456.0 -280.0 484.5 -248.5 513.0 -216.5 514.0 -165.0 513.0 -104.0 479.5 -64.5 445.5 -25.0 393.5 -5.5 341.0 13.5 283.5 13.5 215.5 13.0 159.5 -5.0 103.5 -23.0 70.0 -53.0 37.0 -83.5 36.0 -120.5 36.0 -146.0 50.5 -164.5 65.0 -182.5 96.5 -183.0 120.0 -182.5 136.5 -169.0 153.0 -155.0 169.5 -137.0 186.5 -119.0 211.5 -105.5 237.0 -91.5 277.5 -91.0 318.0 -91.5 341.0 -106.5 364.0 -121.5 364.5 -145.5 364.0 -172.5 341.5 -183.0 319.0 -194.0 278.5 -202.5 L190.5 -224.5 Q146.5 -234.5 112.0 -252.5 77.0 -270.5 57.0 -301.5 36.5 -332.5 36.0 -382.0" fill-rule="evenodd" stroke="none"/>
    </g>
    <g id="text1" transform="matrix(1.0, 0.0, 0.0, 1.0, 2.0, 2.0)">
      <g transform="matrix(1.0, 0.0, 0.0, 1.0, -2.0, -2.0)">
        <use fill="#eee2bc" fill-opacity="0.54901963" height="39.3" transform="matrix(0.0146, 0.0, 0.0, 0.0146, 0.0, 14.45)" width="559.0" xlink:href="#font_HelveticaRounded_LT_Std_Bd_C0"/>
        <use fill="#eee2bc" fill-opacity="0.54901963" height="39.3" transform="matrix(0.0146, 0.0, 0.0, 0.0146, 10.85, 14.45)" width="559.0" xlink:href="#font_HelveticaRounded_LT_Std_Bd_o0"/>
        <use fill="#eee2bc" fill-opacity="0.54901963" height="39.3" transform="matrix(0.0146, 0.0, 0.0, 0.0146, 20.05, 14.45)" width="559.0" xlink:href="#font_HelveticaRounded_LT_Std_Bd_n0"/>
        <use fill="#eee2bc" fill-opacity="0.54901963" height="39.3" transform="matrix(0.0146, 0.0, 0.0, 0.0146, 29.2, 14.45)" width="559.0" xlink:href="#font_HelveticaRounded_LT_Std_Bd_s0"/>
        <use fill="#eee2bc" fill-opacity="0.54901963" height="39.3" transform="matrix(0.0146, 0.0, 0.0, 0.0146, 37.25, 14.45)" width="559.0" xlink:href="#font_HelveticaRounded_LT_Std_Bd_u0"/>
        <use fill="#eee2bc" fill-opacity="0.54901963" height="39.3" transform="matrix(0.0146, 0.0, 0.0, 0.0146, 46.4, 14.45)" width="559.0" xlink:href="#font_HelveticaRounded_LT_Std_Bd_m0"/>
        <use fill="#eee2bc" fill-opacity="0.54901963" height="39.3" transform="matrix(0.0146, 0.0, 0.0, 0.0146, 60.3, 14.45)" width="559.0" xlink:href="#font_HelveticaRounded_LT_Std_Bd_i0"/>
        <use fill="#eee2bc" fill-opacity="0.54901963" height="39.3" transform="matrix(0.0146, 0.0, 0.0, 0.0146, 64.45, 14.45)" width="559.0" xlink:href="#font_HelveticaRounded_LT_Std_Bd_n0"/>
        <use fill="#eee2bc" fill-opacity="0.54901963" height="39.3" transform="matrix(0.0146, 0.0, 0.0, 0.0146, 73.6, 14.45)" width="559.0" xlink:href="#font_HelveticaRounded_LT_Std_Bd_g0"/>
      </g>
      <g transform="matrix(1.0, 0.0, 0.0, 1.0, -2.0, -2.0)">
        <use fill="#eee2bc" fill-opacity="0.54901963" height="39.3" transform="matrix(0.0146, 0.0, 0.0, 0.0146, 87.35, 14.45)" width="559.0" xlink:href="#font_HelveticaRounded_LT_Std_Bd_t0"/>
        <use fill="#eee2bc" fill-opacity="0.54901963" height="39.3" transform="matrix(0.0146, 0.0, 0.0, 0.0146, 92.9, 14.45)" width="559.0" xlink:href="#font_HelveticaRounded_LT_Std_Bd_h0"/>
        <use fill="#eee2bc" fill-opacity="0.54901963" height="39.3" transform="matrix(0.0146, 0.0, 0.0, 0.0146, 102.05, 14.45)" width="559.0" xlink:href="#font_HelveticaRounded_LT_Std_Bd_i0"/>
        <use fill="#eee2bc" fill-opacity="0.54901963" height="39.3" transform="matrix(0.0146, 0.0, 0.0, 0.0146, 106.2, 14.45)" width="559.0" xlink:href="#font_HelveticaRounded_LT_Std_Bd_s0"/>
      </g>
      <g transform="matrix(1.0, 0.0, 0.0, 1.0, -2.0, -2.0)">
        <use fill="#eee2bc" fill-opacity="0.54901963" height="39.3" transform="matrix(0.0146, 0.0, 0.0, 0.0146, 118.85, 14.45)" width="559.0" xlink:href="#font_HelveticaRounded_LT_Std_Bd_p0"/>
        <use fill="#eee2bc" fill-opacity="0.54901963" height="39.3" transform="matrix(0.0146, 0.0, 0.0, 0.0146, 128.0, 14.45)" width="559.0" xlink:href="#font_HelveticaRounded_LT_Std_Bd_o0"/>
        <use fill="#eee2bc" fill-opacity="0.54901963" height="39.3" transform="matrix(0.0146, 0.0, 0.0, 0.0146, 137.2, 14.45)" width="559.0" xlink:href="#font_HelveticaRounded_LT_Std_Bd_t0"/>
        <use fill="#eee2bc" fill-opacity="0.54901963" height="39.3" transform="matrix(0.0146, 0.0, 0.0, 0.0146, 142.75, 14.45)" width="559.0" xlink:href="#font_HelveticaRounded_LT_Std_Bd_i0"/>
        <use fill="#eee2bc" fill-opacity="0.54901963" height="39.3" transform="matrix(0.0146, 0.0, 0.0, 0.0146, 146.9, 14.45)" width="559.0" xlink:href="#font_HelveticaRounded_LT_Std_Bd_o0"/>
        <use fill="#eee2bc" fill-opacity="0.54901963" height="39.3" transform="matrix(0.0146, 0.0, 0.0, 0.0146, 156.1, 14.45)" width="559.0" xlink:href="#font_HelveticaRounded_LT_Std_Bd_n0"/>
      </g>
      <g transform="matrix(1.0, 0.0, 0.0, 1.0, -2.0, -2.0)">
        <use fill="#eee2bc" fill-opacity="0.54901963" height="39.3" transform="matrix(0.0146, 0.0, 0.0, 0.0146, 169.85, 14.45)" width="559.0" xlink:href="#font_HelveticaRounded_LT_Std_Bd_g0"/>
        <use fill="#eee2bc" fill-opacity="0.54901963" height="39.3" transform="matrix(0.0146, 0.0, 0.0, 0.0146, 179.0, 14.45)" width="559.0" xlink:href="#font_HelveticaRounded_LT_Std_Bd_r0"/>
        <use fill="#eee2bc" fill-opacity="0.54901963" height="39.3" transform="matrix(0.0146, 0.0, 0.0, 0.0146, 185.1, 14.45)" width="559.0" xlink:href="#font_HelveticaRounded_LT_Std_Bd_a0"/>
        <use fill="#eee2bc" fill-opacity="0.54901963" height="39.3" transform="matrix(0.0146, 0.0, 0.0, 0.0146, 194.25, 14.45)" width="559.0" xlink:href="#font_HelveticaRounded_LT_Std_Bd_n0"/>
        <use fill="#eee2bc" fill-opacity="0.54901963" height="39.3" transform="matrix(0.0146, 0.0, 0.0, 0.0146, 203.4, 14.45)" width="559.0" xlink:href="#font_HelveticaRounded_LT_Std_Bd_t0"/>
        <use fill="#eee2bc" fill-opacity="0.54901963" height="39.3" transform="matrix(0.0146, 0.0, 0.0, 0.0146, 208.95, 14.45)" width="559.0" xlink:href="#font_HelveticaRounded_LT_Std_Bd_s0"/>
      </g>
      <g transform="matrix(1.0, 0.0, 0.0, 1.0, -2.0, -2.0)">
        <use fill="#eee2bc" fill-opacity="0.54901963" height="39.3" transform="matrix(0.0146, 0.0, 0.0, 0.0146, 221.6, 14.45)" width="559.0" xlink:href="#font_HelveticaRounded_LT_Std_Bd_t0"/>
        <use fill="#eee2bc" fill-opacity="0.54901963" height="39.3" transform="matrix(0.0146, 0.0, 0.0, 0.0146, 227.15, 14.45)" width="559.0" xlink:href="#font_HelveticaRounded_LT_Std_Bd_h0"/>
        <use fill="#eee2bc" fill-opacity="0.54901963" height="39.3" transform="matrix(0.0146, 0.0, 0.0, 0.0146, 236.3, 14.45)" width="559.0" xlink:href="#font_HelveticaRounded_LT_Std_Bd_e0"/>
      </g>
      <g transform="matrix(1.0, 0.0, 0.0, 1.0, -2.0, -2.0)">
        <use fill="#eee2bc" fill-opacity="0.54901963" height="39.3" transform="matrix(0.0146, 0.0, 0.0, 0.0146, 250.1, 14.45)" width="559.0" xlink:href="#font_HelveticaRounded_LT_Std_Bd_u0"/>
        <use fill="#eee2bc" fill-opacity="0.54901963" height="39.3" transform="matrix(0.0146, 0.0, 0.0, 0.0146, 259.25, 14.45)" width="559.0" xlink:href="#font_HelveticaRounded_LT_Std_Bd_s0"/>
        <use fill="#eee2bc" fill-opacity="0.54901963" height="39.3" transform="matrix(0.0146, 0.0, 0.0, 0.0146, 267.3, 14.45)" width="559.0" xlink:href="#font_HelveticaRounded_LT_Std_Bd_e0"/>
        <use fill="#eee2bc" fill-opacity="0.54901963" height="39.3" transform="matrix(0.0146, 0.0, 0.0, 0.0146, 276.5, 14.45)" width="559.0" xlink:href="#font_HelveticaRounded_LT_Std_Bd_r0"/>
      </g>
      <g transform="matrix(1.0, 0.0, 0.0, 1.0, -2.0, -2.0)">
        <use fill="#eee2bc" fill-opacity="0.54901963" height="39.3" transform="matrix(0.0146, 0.0, 0.0, 0.0146, 287.2, 14.45)" width="559.0" xlink:href="#font_HelveticaRounded_LT_Std_Bd_a0"/>
      </g>
      <g transform="matrix(1.0, 0.0, 0.0, 1.0, -2.0, -2.0)">
        <use fill="#eee2bc" fill-opacity="0.54901963" height="39.3" transform="matrix(0.0146, 0.0, 0.0, 0.0146, 300.95, 14.45)" width="559.0" xlink:href="#font_HelveticaRounded_LT_Std_Bd_20"/>
        <use fill="#eee2bc" fill-opacity="0.54901963" height="39.3" transform="matrix(0.0146, 0.0, 0.0, 0.0146, 309.85, 14.45)" width="559.0" xlink:href="#font_HelveticaRounded_LT_Std_Bd_00"/>
        <use fill="#eee2bc" fill-opacity="0.54901963" height="39.3" transform="matrix(0.0146, 0.0, 0.0, 0.0146, 319.05, 14.45)" width="559.0" xlink:href="#font_HelveticaRounded_LT_Std_Bd_00"/>
        <use fill="#eee2bc" fill-opacity="0.54901963" height="39.3" transform="matrix(0.0146, 0.0, 0.0, 0.0146, 328.25, 14.45)" width="559.0" xlink:href="#font_HelveticaRounded_LT_Std_Bd__1"/>
      </g>
      <g transform="matrix(1.0, 0.0, 0.0, 1.0, -2.0, -2.0)">
        <use fill="#eee2bc" fill-opacity="0.54901963" height="39.3" transform="matrix(0.0146, 0.0, 0.0, 0.0146, 347.85, 14.45)" width="559.0" xlink:href="#font_HelveticaRounded_LT_Std_Bd_b0"/>
        <use fill="#eee2bc" fill-opacity="0.54901963" height="39.3" transform="matrix(0.0146, 0.0, 0.0, 0.0146, 357.0, 14.45)" width="559.0" xlink:href="#font_HelveticaRounded_LT_Std_Bd_o0"/>
        <use fill="#eee2bc" fill-opacity="0.54901963" height="39.3" transform="matrix(0.0146, 0.0, 0.0, 0.0146, 366.2, 14.45)" width="559.0" xlink:href="#font_HelveticaRounded_LT_Std_Bd_n0"/>
        <use fill="#eee2bc" fill-opacity="0.54901963" height="39.3" transform="matrix(0.0146, 0.0, 0.0, 0.0146, 375.35, 14.45)" width="559.0" xlink:href="#font_HelveticaRounded_LT_Std_Bd_u0"/>
        <use fill="#eee2bc" fill-opacity="0.54901963" height="39.3" transform="matrix(0.0146, 0.0, 0.0, 0.0146, 384.5, 14.45)" width="559.0" xlink:href="#font_HelveticaRounded_LT_Std_Bd_s0"/>
      </g>
      <g transform="matrix(1.0, 0.0, 0.0, 1.0, -2.0, -2.0)">
        <use fill="#eee2bc" fill-opacity="0.54901963" height="39.3" transform="matrix(0.0146, 0.0, 0.0, 0.0146, 397.15, 14.45)" width="559.0" xlink:href="#font_HelveticaRounded_LT_Std_Bd_t0"/>
        <use fill="#eee2bc" fill-opacity="0.54901963" height="39.3" transform="matrix(0.0146, 0.0, 0.0, 0.0146, 402.7, 14.45)" width="559.0" xlink:href="#font_HelveticaRounded_LT_Std_Bd_o0"/>
      </g>
      <g transform="matrix(1.0, 0.0, 0.0, 1.0, -2.0, -2.0)">
        <use fill="#eee2bc" fill-opacity="0.54901963" height="39.3" transform="matrix(0.0146, 0.0, 0.0, 0.0146, 416.5, 14.45)" width="559.0" xlink:href="#font_HelveticaRounded_LT_Std_Bd_a0"/>
        <use fill="#eee2bc" fill-opacity="0.54901963" height="39.3" transform="matrix(0.0146, 0.0, 0.0, 0.0146, 425.65, 14.45)" width="559.0" xlink:href="#font_HelveticaRounded_LT_Std_Bd_l0"/>
        <use fill="#eee2bc" fill-opacity="0.54901963" height="39.3" transform="matrix(0.0146, 0.0, 0.0, 0.0146, 429.8, 14.45)" width="559.0" xlink:href="#font_HelveticaRounded_LT_Std_Bd_l0"/>
      </g>
      <g transform="matrix(1.0, 0.0, 0.0, 1.0, -2.0, -2.0)">
        <use fill="#eee2bc" fill-opacity="0.54901963" height="39.3" transform="matrix(0.0146, 0.0, 0.0, 0.0146, 438.55, 14.45)" width="559.0" xlink:href="#font_HelveticaRounded_LT_Std_Bd_X0"/>
        <use fill="#eee2bc" fill-opacity="0.54901963" height="39.3" transform="matrix(0.0146, 0.0, 0.0, 0.0146, 447.45, 14.45)" width="559.0" xlink:href="#font_HelveticaRounded_LT_Std_Bd_P0"/>
      </g>
      <g transform="matrix(1.0, 0.0, 0.0, 1.0, -2.0, -2.0)">
        <use fill="#eee2bc" fill-opacity="0.54901963" height="39.3" transform="matrix(0.0146, 0.0, 0.0, 0.0146, 462.6, 14.45)" width="559.0" xlink:href="#font_HelveticaRounded_LT_Std_Bd_g0"/>
        <use fill="#eee2bc" fill-opacity="0.54901963" height="39.3" transform="matrix(0.0146, 0.0, 0.0, 0.0146, 471.75, 14.45)" width="559.0" xlink:href="#font_HelveticaRounded_LT_Std_Bd_a0"/>
        <use fill="#eee2bc" fill-opacity="0.54901963" height="39.3" transform="matrix(0.0146, 0.0, 0.0, 0.0146, 480.9, 14.45)" width="559.0" xlink:href="#font_HelveticaRounded_LT_Std_Bd_i0"/>
        <use fill="#eee2bc" fill-opacity="0.54901963" height="39.3" transform="matrix(0.0146, 0.0, 0.0, 0.0146, 485.05, 14.45)" width="559.0" xlink:href="#font_HelveticaRounded_LT_Std_Bd_n0"/>
        <use fill="#eee2bc" fill-opacity="0.54901963" height="39.3" transform="matrix(0.0146, 0.0, 0.0, 0.0146, 494.2, 14.45)" width="559.0" xlink:href="#font_HelveticaRounded_LT_Std_Bd_e0"/>
        <use fill="#eee2bc" fill-opacity="0.54901963" height="39.3" transform="matrix(0.0146, 0.0, 0.0, 0.0146, 503.4, 14.45)" width="559.0" xlink:href="#font_HelveticaRounded_LT_Std_Bd_d0"/>
      </g>
      <g transform="matrix(1.0, 0.0, 0.0, 1.0, -2.0, -2.0)">
        <use fill="#eee2bc" fill-opacity="0.54901963" height="39.3" transform="matrix(0.0146, 0.0, 0.0, 0.0146, 517.15, 14.45)" width="559.0" xlink:href="#font_HelveticaRounded_LT_Std_Bd_f0"/>
        <use fill="#eee2bc" fill-opacity="0.54901963" height="39.3" transform="matrix(0.0146, 0.0, 0.0, 0.0146, 522.7, 14.45)" width="559.0" xlink:href="#font_HelveticaRounded_LT_Std_Bd_o0"/>
        <use fill="#eee2bc" fill-opacity="0.54901963" height="39.3" transform="matrix(0.0146, 0.0, 0.0, 0.0146, 531.9, 14.45)" width="559.0" xlink:href="#font_HelveticaRounded_LT_Std_Bd_r0"/>
      </g>
      <g transform="matrix(1.0, 0.0, 0.0, 1.0, -2.0, -2.0)">
        <use fill="#eee2bc" fill-opacity="0.54901963" height="39.3" transform="matrix(0.0146, 0.0, 0.0, 0.0146, 0.0, 32.1)" width="559.0" xlink:href="#font_HelveticaRounded_LT_Std_Bd_t0"/>
        <use fill="#eee2bc" fill-opacity="0.54901963" height="39.3" transform="matrix(0.0146, 0.0, 0.0, 0.0146, 5.55, 32.1)" width="559.0" xlink:href="#font_HelveticaRounded_LT_Std_Bd_h0"/>
        <use fill="#eee2bc" fill-opacity="0.54901963" height="39.3" transform="matrix(0.0146, 0.0, 0.0, 0.0146, 14.7, 32.1)" width="559.0" xlink:href="#font_HelveticaRounded_LT_Std_Bd_e0"/>
      </g>
      <g transform="matrix(1.0, 0.0, 0.0, 1.0, -2.0, -2.0)">
        <use fill="#eee2bc" fill-opacity="0.54901963" height="39.3" transform="matrix(0.0146, 0.0, 0.0, 0.0146, 28.5, 32.1)" width="559.0" xlink:href="#font_HelveticaRounded_LT_Std_Bd_n0"/>
        <use fill="#eee2bc" fill-opacity="0.54901963" height="39.3" transform="matrix(0.0146, 0.0, 0.0, 0.0146, 37.65, 32.1)" width="559.0" xlink:href="#font_HelveticaRounded_LT_Std_Bd_e0"/>
        <use fill="#eee2bc" fill-opacity="0.54901963" height="39.3" transform="matrix(0.0146, 0.0, 0.0, 0.0146, 46.85, 32.1)" width="559.0" xlink:href="#font_HelveticaRounded_LT_Std_Bd_x0"/>
        <use fill="#eee2bc" fill-opacity="0.54901963" height="39.3" transform="matrix(0.0146, 0.0, 0.0, 0.0146, 54.05, 32.1)" width="559.0" xlink:href="#font_HelveticaRounded_LT_Std_Bd_t0"/>
      </g>
      <g transform="matrix(1.0, 0.0, 0.0, 1.0, -2.0, -2.0)">
        <use fill="#eee2bc" fill-opacity="0.54901963" height="39.3" transform="matrix(0.0146, 0.0, 0.0, 0.0146, 64.2, 32.1)" width="559.0" xlink:href="#font_HelveticaRounded_LT_Std_Bd_20"/>
        <use fill="#eee2bc" fill-opacity="0.54901963" height="39.3" transform="matrix(0.0146, 0.0, 0.0, 0.0146, 73.1, 32.1)" width="559.0" xlink:href="#font_HelveticaRounded_LT_Std_Bd_40"/>
      </g>
      <g transform="matrix(1.0, 0.0, 0.0, 1.0, -2.0, -2.0)">
        <use fill="#eee2bc" fill-opacity="0.54901963" height="39.3" transform="matrix(0.0146, 0.0, 0.0, 0.0146, 86.85, 32.1)" width="559.0" xlink:href="#font_HelveticaRounded_LT_Std_Bd_h0"/>
        <use fill="#eee2bc" fill-opacity="0.54901963" height="39.3" transform="matrix(0.0146, 0.0, 0.0, 0.0146, 96.0, 32.1)" width="559.0" xlink:href="#font_HelveticaRounded_LT_Std_Bd_o0"/>
        <use fill="#eee2bc" fill-opacity="0.54901963" height="39.3" transform="matrix(0.0146, 0.0, 0.0, 0.0146, 105.2, 32.1)" width="559.0" xlink:href="#font_HelveticaRounded_LT_Std_Bd_u0"/>
        <use fill="#eee2bc" fill-opacity="0.54901963" height="39.3" transform="matrix(0.0146, 0.0, 0.0, 0.0146, 114.35, 32.1)" width="559.0" xlink:href="#font_HelveticaRounded_LT_Std_Bd_r0"/>
        <use fill="#eee2bc" fill-opacity="0.54901963" height="39.3" transform="matrix(0.0146, 0.0, 0.0, 0.0146, 120.45, 32.1)" width="559.0" xlink:href="#font_HelveticaRounded_LT_Std_Bd_s0"/>
      </g>
      <g transform="matrix(1.0, 0.0, 0.0, 1.0, -2.0, -2.0)">
        <use fill="#eee2bc" fill-opacity="0.54901963" height="39.3" transform="matrix(0.0146, 0.0, 0.0, 0.0146, 133.1, 32.1)" width="559.0" xlink:href="#font_HelveticaRounded_LT_Std_Bd_o0"/>
        <use fill="#eee2bc" fill-opacity="0.54901963" height="39.3" transform="matrix(0.0146, 0.0, 0.0, 0.0146, 142.3, 32.1)" width="559.0" xlink:href="#font_HelveticaRounded_LT_Std_Bd_f0"/>
      </g>
      <g transform="matrix(1.0, 0.0, 0.0, 1.0, -2.0, -2.0)">
        <use fill="#eee2bc" fill-opacity="0.54901963" height="39.3" transform="matrix(0.0146, 0.0, 0.0, 0.0146, 152.45, 32.1)" width="559.0" xlink:href="#font_HelveticaRounded_LT_Std_Bd_g0"/>
        <use fill="#eee2bc" fill-opacity="0.54901963" height="39.3" transform="matrix(0.0146, 0.0, 0.0, 0.0146, 161.6, 32.1)" width="559.0" xlink:href="#font_HelveticaRounded_LT_Std_Bd_a0"/>
        <use fill="#eee2bc" fill-opacity="0.54901963" height="39.3" transform="matrix(0.0146, 0.0, 0.0, 0.0146, 170.75, 32.1)" width="559.0" xlink:href="#font_HelveticaRounded_LT_Std_Bd_m0"/>
        <use fill="#eee2bc" fill-opacity="0.54901963" height="39.3" transform="matrix(0.0146, 0.0, 0.0, 0.0146, 184.65, 32.1)" width="559.0" xlink:href="#font_HelveticaRounded_LT_Std_Bd_e0"/>
        <use fill="#eee2bc" fill-opacity="0.54901963" height="39.3" transform="matrix(0.0146, 0.0, 0.0, 0.0146, 193.85, 32.1)" width="559.0" xlink:href="#font_HelveticaRounded_LT_Std_Bd_p0"/>
        <use fill="#eee2bc" fill-opacity="0.54901963" height="39.3" transform="matrix(0.0146, 0.0, 0.0, 0.0146, 203.0, 32.1)" width="559.0" xlink:href="#font_HelveticaRounded_LT_Std_Bd_l0"/>
        <use fill="#eee2bc" fill-opacity="0.54901963" height="39.3" transform="matrix(0.0146, 0.0, 0.0, 0.0146, 207.15, 32.1)" width="559.0" xlink:href="#font_HelveticaRounded_LT_Std_Bd_a0"/>
        <use fill="#eee2bc" fill-opacity="0.54901963" height="39.3" transform="matrix(0.0146, 0.0, 0.0, 0.0146, 216.3, 32.1)" width="559.0" xlink:href="#font_HelveticaRounded_LT_Std_Bd_y0"/>
        <use fill="#eee2bc" fill-opacity="0.54901963" height="39.3" transform="matrix(0.0146, 0.0, 0.0, 0.0146, 223.8, 32.1)" width="559.0" xlink:href="#font_HelveticaRounded_LT_Std_Bd_.0"/>
      </g>
    </g>
    <g id="font_HelveticaRounded_LT_Std_Bd_C0">
      <path d="M54.0 -369.0 Q54.0 -447.5 77.0 -517.0 100.0 -586.5 145.0 -640.0 190.5 -693.5 258.0 -724.0 325.5 -754.5 414.5 -755.0 486.5 -754.5 542.5 -735.0 598.0 -715.5 635.5 -685.5 673.5 -655.5 693.0 -623.0 712.5 -590.0 712.5 -562.5 712.5 -527.0 693.5 -507.0 674.5 -487.0 636.5 -486.5 601.5 -487.5 582.5 -507.5 563.5 -527.5 546.5 -553.5 530.0 -579.5 500.5 -599.0 471.0 -619.0 414.5 -620.0 361.0 -620.0 317.5 -590.5 274.5 -561.0 248.5 -505.0 222.5 -449.0 222.0 -369.0 221.5 -300.5 241.0 -244.0 260.5 -187.0 304.5 -153.0 348.5 -118.5 420.5 -117.5 469.5 -118.5 498.0 -139.5 526.0 -160.5 545.0 -188.0 563.5 -216.0 582.0 -237.0 601.0 -258.0 630.5 -259.0 651.5 -259.0 670.0 -251.5 688.5 -244.0 700.5 -229.5 712.0 -215.0 712.5 -194.5 711.5 -140.0 673.0 -92.0 634.5 -44.0 568.5 -14.0 503.0 16.5 420.5 17.5 305.0 17.5 223.0 -26.0 141.5 -69.5 98.0 -155.5 54.5 -241.5 54.0 -369.0" fill-rule="evenodd" stroke="none"/>
    </g>
    <g id="font_HelveticaRounded_LT_Std_Bd_u0">
      <path d="M566.5 -474.0 L566.5 -61.5 Q566.5 -27.0 550.5 -7.0 534.0 13.0 499.0 13.5 464.0 13.0 447.5 -7.0 431.0 -27.0 431.5 -61.5 L431.5 -81.0 429.5 -81.0 Q398.5 -38.5 355.0 -13.0 311.0 12.5 248.0 13.5 202.0 14.0 159.0 -4.0 116.0 -21.5 88.5 -65.0 60.5 -108.0 59.5 -183.0 L59.5 -474.0 Q58.5 -505.0 75.0 -526.5 91.5 -548.0 134.5 -549.0 177.0 -548.0 193.5 -526.5 210.0 -505.0 209.0 -474.0 L209.0 -213.0 Q209.0 -167.0 232.0 -138.5 255.0 -110.0 303.5 -109.5 330.0 -109.5 356.0 -123.5 382.0 -137.0 399.0 -163.5 416.5 -190.0 417.0 -227.5 L417.0 -474.0 Q416.0 -505.0 432.5 -526.5 449.0 -548.0 492.0 -549.0 534.5 -548.0 551.0 -526.5 567.5 -505.0 566.5 -474.0" fill-rule="evenodd" stroke="none"/>
    </g>
    <g id="font_HelveticaRounded_LT_Std_Bd_m0">
      <path d="M59.5 -61.5 L59.5 -474.0 Q60.0 -508.5 78.5 -528.5 97.0 -548.5 130.0 -549.0 163.5 -548.5 182.0 -528.5 200.5 -508.5 201.0 -474.0 L201.0 -454.5 203.0 -454.5 Q232.5 -499.5 279.0 -524.0 326.0 -548.5 383.0 -549.0 409.0 -549.0 437.0 -540.0 464.5 -531.5 488.5 -510.5 512.0 -490.0 526.5 -454.5 557.5 -499.0 600.0 -523.5 642.5 -548.5 702.5 -549.0 755.0 -549.5 797.0 -532.0 839.0 -514.0 863.5 -474.5 888.5 -434.5 889.0 -367.5 L889.0 -61.5 Q890.0 -30.5 873.5 -9.0 857.0 12.5 814.5 13.5 771.5 12.5 755.0 -9.0 738.5 -30.5 739.5 -61.5 L739.5 -330.0 Q740.0 -370.5 720.5 -398.0 701.0 -425.0 657.5 -426.0 628.5 -426.0 604.0 -411.5 579.5 -397.0 564.5 -371.5 549.5 -345.5 549.0 -310.5 L549.0 -61.5 Q550.0 -30.5 533.5 -9.0 517.0 12.5 474.5 13.5 431.5 12.5 415.0 -9.0 398.5 -30.5 399.5 -61.5 L399.5 -330.0 Q400.0 -370.5 380.5 -398.0 361.0 -425.0 317.5 -426.0 288.5 -426.0 264.0 -411.5 239.5 -397.0 224.5 -371.5 209.5 -345.5 209.0 -310.5 L209.0 -61.5 Q210.0 -30.5 193.5 -9.0 177.0 12.5 134.5 13.5 91.5 12.5 75.0 -9.0 58.5 -30.5 59.5 -61.5" fill-rule="evenodd" stroke="none"/>
    </g>
    <g id="font_HelveticaRounded_LT_Std_Bd_h0">
      <path d="M59.5 -61.5 L59.5 -676.0 Q60.0 -713.0 80.0 -732.0 100.0 -751.0 134.5 -751.0 168.5 -751.0 188.5 -732.0 208.5 -713.0 209.0 -676.0 L209.0 -470.0 211.0 -470.0 Q226.0 -490.0 248.5 -508.0 271.5 -525.5 303.5 -537.0 335.5 -548.5 378.0 -549.0 424.0 -549.5 467.0 -531.5 510.0 -514.0 537.5 -470.5 565.5 -427.5 566.5 -352.5 L566.5 -61.5 Q567.5 -30.5 551.0 -9.0 534.5 12.5 492.0 13.5 449.0 12.5 432.5 -9.0 416.0 -30.5 417.0 -61.5 L417.0 -322.5 Q417.0 -368.5 394.0 -397.0 371.0 -425.5 322.5 -426.0 296.0 -426.0 270.0 -412.0 244.0 -398.5 227.0 -372.0 209.5 -345.5 209.0 -308.0 L209.0 -61.5 Q210.0 -30.5 193.5 -9.0 177.0 12.5 134.5 13.5 91.5 12.5 75.0 -9.0 58.5 -30.5 59.5 -61.5" fill-rule="evenodd" stroke="none"/>
    </g>
    <g id="font_HelveticaRounded_LT_Std_Bd_p0">
      <path d="M439.5 -269.5 Q439.5 -314.0 426.5 -350.5 413.5 -387.0 387.0 -409.0 360.5 -431.0 320.5 -432.5 277.5 -432.0 251.0 -409.0 224.5 -386.5 212.5 -349.5 200.5 -312.5 201.0 -269.5 200.5 -230.0 211.5 -191.5 222.5 -153.5 249.0 -128.5 275.5 -103.5 320.5 -103.0 368.0 -104.0 394.0 -130.5 420.0 -157.0 430.0 -195.0 440.0 -233.0 439.5 -269.5 M59.5 137.5 L59.5 -478.5 Q59.5 -513.0 76.0 -531.0 92.5 -549.0 127.0 -549.0 160.0 -549.0 177.5 -531.0 194.5 -513.0 194.5 -478.5 L194.5 -455.0 196.5 -455.0 Q216.0 -502.5 257.5 -525.5 299.0 -549.0 354.5 -549.0 418.0 -549.0 471.0 -518.0 524.0 -487.5 556.0 -424.0 588.0 -361.0 589.0 -264.0 589.0 -191.0 564.5 -128.5 539.5 -65.5 488.5 -26.5 437.5 12.5 358.5 13.5 307.0 13.0 269.5 -6.5 232.0 -26.0 211.0 -62.0 L209.0 -62.0 209.0 137.5 Q208.5 174.0 188.5 193.0 168.5 212.0 134.5 212.0 100.0 212.0 80.0 193.0 60.0 174.0 59.5 137.5" fill-rule="evenodd" stroke="none"/>
    </g>
    <g id="font_HelveticaRounded_LT_Std_Bd_20">
      <path d="M201.0 -129.0 L508.0 -129.0 Q538.0 -129.5 556.5 -114.0 575.0 -98.5 575.5 -64.5 575.0 -30.5 555.5 -15.0 535.5 0.5 500.0 0.0 L116.0 0.0 Q86.5 -0.5 68.0 -11.5 49.5 -23.0 40.5 -40.0 32.0 -57.5 32.0 -76.0 32.0 -130.5 80.5 -190.0 128.5 -249.5 224.5 -310.5 277.5 -343.5 314.5 -366.5 351.5 -389.5 373.5 -409.0 396.0 -428.0 406.0 -450.0 416.0 -471.5 416.0 -502.0 415.5 -535.5 400.5 -558.5 385.5 -581.5 361.5 -593.5 337.0 -605.5 308.5 -605.5 259.5 -606.5 226.5 -582.0 193.5 -557.5 176.5 -497.0 169.5 -468.5 155.5 -454.0 142.0 -439.5 112.0 -439.5 79.5 -439.0 59.0 -454.5 38.0 -470.5 37.0 -508.0 38.0 -571.5 74.5 -621.0 111.0 -670.5 173.0 -699.0 234.5 -728.0 310.5 -728.5 392.5 -727.5 451.0 -697.0 509.0 -667.0 540.0 -621.0 571.0 -575.0 571.5 -526.5 571.5 -459.5 551.5 -414.5 531.0 -370.0 493.0 -337.5 455.0 -305.5 400.5 -275.5 313.5 -227.0 262.5 -192.5 211.5 -157.5 201.0 -129.0" fill-rule="evenodd" stroke="none"/>
    </g>
    <g id="font_HelveticaRounded_LT_Std_Bd_00">
      <path d="M40.0 -366.5 Q40.5 -487.5 74.0 -568.0 107.5 -648.5 169.0 -688.5 230.0 -728.5 313.5 -728.5 397.0 -728.5 458.0 -688.5 519.5 -648.5 553.0 -568.0 586.5 -487.5 587.0 -366.5 587.5 -298.0 574.5 -231.0 562.0 -163.5 531.5 -108.5 500.5 -53.5 447.5 -20.5 394.0 12.5 313.5 13.5 233.0 12.5 179.5 -20.5 126.5 -53.5 95.5 -108.5 65.0 -163.5 52.5 -231.0 39.5 -298.0 40.0 -366.5 M189.5 -357.5 Q189.5 -266.5 204.0 -211.5 218.5 -157.0 246.5 -133.0 274.0 -109.0 313.5 -109.5 353.0 -109.0 380.5 -133.0 408.5 -157.0 423.0 -211.5 437.5 -266.5 437.5 -357.5 438.0 -474.0 409.5 -539.0 380.5 -604.5 313.5 -605.5 246.5 -604.5 217.5 -539.0 189.0 -474.0 189.5 -357.5" fill-rule="evenodd" stroke="none"/>
    </g>
    <g id="font_HelveticaRounded_LT_Std_Bd__1">
      <path d="M294.0 -29.5 L662.5 -726.5 Q667.5 -737.0 677.5 -745.5 687.0 -754.5 702.5 -755.0 719.5 -754.5 731.0 -744.0 742.0 -733.5 742.5 -720.0 742.5 -712.5 739.5 -704.0 736.5 -695.5 731.0 -685.5 L362.5 11.5 Q357.5 22.0 347.5 30.5 338.0 39.5 322.5 40.0 305.5 39.5 294.5 29.0 283.0 19.0 282.5 5.0 283.0 -2.5 285.5 -11.0 288.5 -19.5 294.0 -29.5 M709.5 -182.5 Q709.0 -132.0 722.5 -99.5 736.0 -67.5 771.0 -66.5 806.0 -67.5 819.5 -99.5 833.0 -132.0 832.5 -182.5 832.5 -213.5 827.0 -239.5 821.5 -266.0 808.0 -281.5 794.5 -297.5 771.0 -298.0 747.5 -297.5 734.0 -281.5 720.5 -266.0 715.0 -239.5 709.5 -213.5 709.5 -182.5 M599.0 -182.5 Q599.0 -238.0 616.0 -282.0 633.5 -326.0 671.5 -352.0 709.5 -377.5 771.0 -378.0 832.5 -377.5 870.5 -352.0 908.5 -326.0 926.0 -282.0 943.0 -238.0 943.0 -182.5 943.0 -126.5 926.0 -82.5 908.5 -38.5 870.5 -12.5 832.5 13.0 771.0 13.5 709.5 13.0 671.5 -12.5 633.5 -38.5 616.0 -82.5 599.0 -126.5 599.0 -182.5 M191.5 -533.0 Q191.0 -482.5 204.5 -450.0 218.0 -418.0 253.0 -417.0 288.0 -418.0 301.5 -450.0 315.0 -482.5 314.5 -533.0 314.5 -564.0 309.0 -590.0 303.5 -616.5 290.0 -632.0 276.5 -648.0 253.0 -648.5 229.5 -648.0 216.0 -632.0 202.5 -616.5 197.0 -590.0 191.5 -564.0 191.5 -533.0 M81.0 -533.0 Q81.0 -588.5 98.0 -632.5 115.5 -676.5 153.5 -702.5 191.5 -728.0 253.0 -728.5 314.5 -728.0 352.5 -702.5 390.5 -676.5 408.0 -632.5 425.0 -588.5 425.0 -533.0 425.0 -477.0 408.0 -433.0 390.5 -389.0 352.5 -363.0 314.5 -337.5 253.0 -337.0 191.5 -337.5 153.5 -363.0 115.5 -389.0 98.0 -433.0 81.0 -477.0 81.0 -533.0" fill-rule="evenodd" stroke="none"/>
    </g>
    <g id="font_HelveticaRounded_LT_Std_Bd_b0">
      <path d="M439.5 -266.0 Q440.0 -302.5 430.0 -340.5 420.0 -378.5 394.0 -405.0 368.0 -431.5 320.5 -432.5 275.5 -432.0 249.0 -407.0 222.5 -382.0 211.5 -344.0 200.5 -305.5 201.0 -266.0 200.5 -223.0 212.5 -186.0 224.5 -149.0 251.0 -126.5 277.5 -103.5 320.5 -103.0 360.5 -104.5 387.0 -126.5 413.5 -148.5 426.5 -185.0 439.5 -221.5 439.5 -266.0 M59.5 -57.0 L59.5 -676.0 Q60.0 -713.0 80.0 -732.0 100.0 -751.0 134.5 -751.0 168.5 -751.0 188.5 -732.0 208.5 -713.0 209.0 -676.0 L209.0 -473.5 211.0 -473.5 Q233.5 -509.5 271.0 -529.0 308.5 -548.5 358.5 -549.0 437.5 -548.0 488.5 -509.0 539.5 -470.0 564.5 -407.0 589.0 -344.5 589.0 -271.5 588.0 -174.5 556.0 -111.5 524.0 -48.0 471.0 -17.5 418.0 13.5 354.5 13.5 299.0 13.5 257.5 -10.0 216.0 -33.0 196.5 -80.5 L194.5 -80.5 194.5 -57.0 Q194.5 -22.5 177.5 -4.5 160.0 13.5 127.0 13.5 92.5 13.5 76.0 -4.5 59.5 -22.5 59.5 -57.0" fill-rule="evenodd" stroke="none"/>
    </g>
    <g id="font_HelveticaRounded_LT_Std_Bd_l0">
      <path d="M67.5 -61.5 L67.5 -676.0 Q68.0 -713.0 88.0 -732.0 108.0 -751.0 142.5 -751.0 176.5 -751.0 196.5 -732.0 216.5 -713.0 217.0 -676.0 L217.0 -61.5 Q216.5 -24.5 196.5 -5.5 176.5 13.5 142.5 13.5 108.0 13.5 88.0 -5.5 68.0 -24.5 67.5 -61.5" fill-rule="evenodd" stroke="none"/>
    </g>
    <g id="font_HelveticaRounded_LT_Std_Bd_X0">
      <path d="M34.0 -123.0 L210.0 -380.0 49.5 -621.0 Q41.5 -632.5 37.0 -645.0 32.0 -657.5 32.0 -672.0 32.5 -706.0 56.0 -728.0 79.0 -750.0 116.0 -751.0 145.5 -750.0 162.0 -737.0 178.0 -724.0 185.5 -710.0 L307.5 -500.0 437.5 -710.0 Q449.5 -730.5 464.5 -741.0 479.0 -751.0 506.0 -751.0 538.0 -751.0 561.5 -733.0 585.5 -715.0 587.0 -675.0 586.5 -664.0 582.0 -651.5 578.0 -639.0 571.5 -630.0 L400.5 -380.0 567.5 -129.0 Q580.5 -109.5 587.5 -96.5 595.0 -83.5 595.0 -69.5 594.0 -28.5 569.5 -7.5 545.5 13.5 509.0 13.5 488.5 14.0 470.5 6.5 453.0 -1.5 438.5 -25.5 L303.5 -252.0 158.0 -19.5 Q147.0 -2.0 129.5 6.0 112.0 13.5 92.5 13.5 55.0 13.0 33.5 -7.0 12.0 -27.0 11.5 -58.5 11.0 -71.0 15.5 -86.5 20.0 -101.5 34.0 -123.0" fill-rule="evenodd" stroke="none"/>
    </g>
    <g id="font_HelveticaRounded_LT_Std_Bd_d0">
      <path d="M186.5 -266.0 Q186.5 -221.5 199.5 -185.0 212.5 -148.5 239.0 -126.5 265.5 -104.5 305.5 -103.0 348.5 -103.5 375.0 -126.5 401.5 -149.0 413.5 -186.0 425.5 -223.0 425.0 -266.0 425.5 -305.5 414.5 -344.0 403.5 -382.0 377.0 -407.0 350.5 -432.0 305.5 -432.5 258.0 -431.5 232.0 -405.0 206.0 -378.5 196.0 -340.5 186.0 -302.5 186.5 -266.0 M566.5 -676.0 L566.5 -57.0 Q566.5 -22.5 550.0 -4.5 533.5 13.5 499.0 13.5 466.0 13.5 448.5 -4.5 431.5 -22.5 431.5 -57.0 L431.5 -80.5 429.5 -80.5 Q410.0 -33.0 368.5 -10.0 327.0 13.5 271.5 13.5 208.0 13.5 155.0 -17.5 102.0 -48.0 70.0 -111.5 38.0 -174.5 37.0 -271.5 37.0 -344.5 61.5 -407.0 86.5 -470.0 137.5 -509.0 188.5 -548.0 267.5 -549.0 317.5 -548.5 355.0 -529.0 392.5 -509.5 415.0 -473.5 L417.0 -473.5 417.0 -676.0 Q417.5 -713.0 437.5 -732.0 457.5 -751.0 492.0 -751.0 526.0 -751.0 546.0 -732.0 566.0 -713.0 566.5 -676.0" fill-rule="evenodd" stroke="none"/>
    </g>
    <g id="font_HelveticaRounded_LT_Std_Bd_x0">
      <path d="M246.0 -173.0 L147.5 -16.0 Q140.0 -4.5 125.0 4.5 110.0 13.0 89.5 13.5 61.0 13.0 39.5 -6.0 18.0 -25.0 16.5 -56.0 16.5 -66.0 22.0 -78.0 27.0 -90.0 37.0 -104.5 L152.0 -273.5 44.0 -435.0 Q38.0 -443.5 33.5 -453.5 29.0 -463.5 29.0 -474.0 29.0 -490.5 37.5 -507.5 46.0 -525.0 64.0 -536.5 81.5 -548.5 109.0 -549.0 126.5 -549.5 141.5 -541.0 156.0 -532.5 169.0 -511.0 L253.0 -373.0 334.0 -505.0 Q351.0 -532.5 368.0 -541.0 385.0 -550.0 402.5 -549.0 430.0 -548.0 449.5 -529.5 469.5 -510.5 470.5 -484.5 470.0 -468.5 466.0 -456.5 462.0 -444.0 455.0 -434.0 L346.5 -273.5 462.0 -101.5 Q468.5 -93.0 472.5 -82.5 476.5 -72.0 476.5 -56.0 476.0 -28.5 456.5 -8.0 437.0 12.5 400.5 13.5 378.0 13.5 362.0 0.5 346.0 -12.5 332.0 -35.5 L246.0 -173.0" fill-rule="evenodd" stroke="none"/>
    </g>
    <g id="font_HelveticaRounded_LT_Std_Bd_40">
      <path d="M348.0 -58.5 L348.0 -164.0 91.0 -164.0 Q64.5 -164.5 47.0 -175.0 30.0 -185.5 21.5 -201.5 13.0 -218.0 13.0 -234.5 13.0 -254.0 18.0 -268.0 22.5 -282.0 32.5 -295.0 L348.0 -700.0 Q359.5 -715.0 376.5 -722.0 393.0 -728.5 414.5 -728.5 455.5 -728.0 474.0 -708.0 492.0 -688.0 491.5 -654.5 L491.5 -280.5 542.5 -280.5 Q569.0 -280.0 584.5 -264.0 599.5 -248.0 600.0 -222.5 599.5 -196.5 584.5 -180.5 569.0 -164.5 542.5 -164.0 L491.5 -164.0 491.5 -58.5 Q492.0 -25.5 475.5 -6.5 459.0 13.0 420.0 13.5 380.5 13.0 364.0 -6.5 347.5 -25.5 348.0 -58.5 M348.0 -280.5 L348.0 -546.0 346.0 -546.0 148.5 -280.5 348.0 -280.5" fill-rule="evenodd" stroke="none"/>
    </g>
    <g id="font_HelveticaRounded_LT_Std_Bd_y0">
      <path d="M162.0 -492.5 L258.5 -143.5 260.5 -143.5 351.5 -482.5 Q359.0 -511.5 376.0 -530.0 393.0 -548.5 423.0 -549.0 452.5 -548.0 469.5 -535.5 486.5 -523.0 493.5 -507.0 500.0 -491.5 500.0 -481.5 500.0 -472.0 497.0 -460.5 494.0 -449.0 488.5 -434.0 L315.5 56.5 Q298.0 107.5 276.5 142.0 254.5 177.0 223.0 194.5 191.5 212.0 144.5 212.0 95.0 211.0 72.5 191.0 50.0 171.0 50.5 143.5 51.0 113.5 70.0 98.5 88.5 83.0 119.0 83.0 L134.5 83.0 Q144.0 83.5 154.0 81.0 164.0 78.5 172.5 68.5 181.0 58.5 186.5 36.0 L31.0 -407.5 Q22.0 -434.0 17.0 -449.5 12.5 -465.0 12.5 -477.5 13.5 -508.5 34.0 -528.5 54.5 -548.5 85.0 -549.0 115.5 -548.5 135.0 -533.5 155.0 -518.5 162.0 -492.5" fill-rule="evenodd" stroke="none"/>
    </g>
    <g id="font_HelveticaRounded_LT_Std_Bd_.0">
      <path d="M72.5 -76.5 Q73.5 -112.0 97.0 -136.0 121.0 -159.5 156.5 -160.5 192.0 -159.5 216.0 -136.0 239.5 -112.0 240.5 -76.5 239.5 -41.0 216.0 -17.0 192.0 6.5 156.5 7.5 121.0 6.5 97.0 -17.0 73.5 -41.0 72.5 -76.5" fill-rule="evenodd" stroke="none"/>
    </g>
    <g id="text2" transform="matrix(1.0, 0.0, 0.0, 1.0, 2.0, 2.0)">
      <g transform="matrix(1.0, 0.0, 0.0, 1.0, -2.0, -2.0)">
        <use fill="#00cc33" fill-opacity="0.54901963" height="22.9" transform="matrix(0.0137, 0.0, 0.0, 0.0137, 161.15, 13.5)" width="567.0" xlink:href="#font_HelveticaRounded_LT_Std_Bd_I0"/>
        <use fill="#00cc33" fill-opacity="0.54901963" height="22.9" transform="matrix(0.0137, 0.0, 0.0, 0.0137, 165.6, 13.5)" width="567.0" xlink:href="#font_HelveticaRounded_LT_Std_Bd_n0"/>
        <use fill="#00cc33" fill-opacity="0.54901963" height="22.9" transform="matrix(0.0137, 0.0, 0.0, 0.0137, 174.15, 13.5)" width="567.0" xlink:href="#font_HelveticaRounded_LT_Std_Bd_c0"/>
        <use fill="#00cc33" fill-opacity="0.54901963" height="22.9" transform="matrix(0.0137, 0.0, 0.0, 0.0137, 181.65, 13.5)" width="567.0" xlink:href="#font_HelveticaRounded_LT_Std_Bd_r0"/>
        <use fill="#00cc33" fill-opacity="0.54901963" height="22.9" transform="matrix(0.0137, 0.0, 0.0, 0.0137, 187.35, 13.5)" width="567.0" xlink:href="#font_HelveticaRounded_LT_Std_Bd_e0"/>
        <use fill="#00cc33" fill-opacity="0.54901963" height="22.9" transform="matrix(0.0137, 0.0, 0.0, 0.0137, 195.9, 13.5)" width="567.0" xlink:href="#font_HelveticaRounded_LT_Std_Bd_a0"/>
        <use fill="#00cc33" fill-opacity="0.54901963" height="22.9" transform="matrix(0.0137, 0.0, 0.0, 0.0137, 204.45, 13.5)" width="567.0" xlink:href="#font_HelveticaRounded_LT_Std_Bd_s0"/>
        <use fill="#00cc33" fill-opacity="0.54901963" height="22.9" transform="matrix(0.0137, 0.0, 0.0, 0.0137, 211.95, 13.5)" width="567.0" xlink:href="#font_HelveticaRounded_LT_Std_Bd_e0"/>
        <use fill="#00cc33" fill-opacity="0.54901963" height="22.9" transform="matrix(0.0137, 0.0, 0.0, 0.0137, 220.5, 13.5)" width="567.0" xlink:href="#font_HelveticaRounded_LT_Std_Bd_s0"/>
      </g>
      <g transform="matrix(1.0, 0.0, 0.0, 1.0, -2.0, -2.0)">
        <use fill="#00cc33" fill-opacity="0.54901963" height="22.9" transform="matrix(0.0137, 0.0, 0.0, 0.0137, 232.3, 13.5)" width="567.0" xlink:href="#font_HelveticaRounded_LT_Std_Bd_m0"/>
        <use fill="#00cc33" fill-opacity="0.54901963" height="22.9" transform="matrix(0.0137, 0.0, 0.0, 0.0137, 245.25, 13.5)" width="567.0" xlink:href="#font_HelveticaRounded_LT_Std_Bd_o0"/>
        <use fill="#00cc33" fill-opacity="0.54901963" height="22.9" transform="matrix(0.0137, 0.0, 0.0, 0.0137, 253.8, 13.5)" width="567.0" xlink:href="#font_HelveticaRounded_LT_Std_Bd_v0"/>
        <use fill="#00cc33" fill-opacity="0.54901963" height="22.9" transform="matrix(0.0137, 0.0, 0.0, 0.0137, 260.8, 13.5)" width="567.0" xlink:href="#font_HelveticaRounded_LT_Std_Bd_e0"/>
        <use fill="#00cc33" fill-opacity="0.54901963" height="22.9" transform="matrix(0.0137, 0.0, 0.0, 0.0137, 269.35, 13.5)" width="567.0" xlink:href="#font_HelveticaRounded_LT_Std_Bd_m0"/>
        <use fill="#00cc33" fill-opacity="0.54901963" height="22.9" transform="matrix(0.0137, 0.0, 0.0, 0.0137, 282.3, 13.5)" width="567.0" xlink:href="#font_HelveticaRounded_LT_Std_Bd_e0"/>
        <use fill="#00cc33" fill-opacity="0.54901963" height="22.9" transform="matrix(0.0137, 0.0, 0.0, 0.0137, 290.85, 13.5)" width="567.0" xlink:href="#font_HelveticaRounded_LT_Std_Bd_n0"/>
        <use fill="#00cc33" fill-opacity="0.54901963" height="22.9" transform="matrix(0.0137, 0.0, 0.0, 0.0137, 299.4, 13.5)" width="567.0" xlink:href="#font_HelveticaRounded_LT_Std_Bd_t0"/>
      </g>
      <g transform="matrix(1.0, 0.0, 0.0, 1.0, -2.0, -2.0)">
        <use fill="#00cc33" fill-opacity="0.54901963" height="22.9" transform="matrix(0.0137, 0.0, 0.0, 0.0137, 308.9, 13.5)" width="567.0" xlink:href="#font_HelveticaRounded_LT_Std_Bd_s0"/>
        <use fill="#00cc33" fill-opacity="0.54901963" height="22.9" transform="matrix(0.0137, 0.0, 0.0, 0.0137, 316.4, 13.5)" width="567.0" xlink:href="#font_HelveticaRounded_LT_Std_Bd_p0"/>
        <use fill="#00cc33" fill-opacity="0.54901963" height="22.9" transform="matrix(0.0137, 0.0, 0.0, 0.0137, 324.95, 13.5)" width="567.0" xlink:href="#font_HelveticaRounded_LT_Std_Bd_e0"/>
        <use fill="#00cc33" fill-opacity="0.54901963" height="22.9" transform="matrix(0.0137, 0.0, 0.0, 0.0137, 333.5, 13.5)" width="567.0" xlink:href="#font_HelveticaRounded_LT_Std_Bd_e0"/>
        <use fill="#00cc33" fill-opacity="0.54901963" height="22.9" transform="matrix(0.0137, 0.0, 0.0, 0.0137, 342.05, 13.5)" width="567.0" xlink:href="#font_HelveticaRounded_LT_Std_Bd_d0"/>
      </g>
      <g transform="matrix(1.0, 0.0, 0.0, 1.0, -2.0, -2.0)">
        <use fill="#00cc33" fill-opacity="0.54901963" height="22.9" transform="matrix(0.0137, 0.0, 0.0, 0.0137, 354.9, 13.5)" width="567.0" xlink:href="#font_HelveticaRounded_LT_Std_Bd_b0"/>
        <use fill="#00cc33" fill-opacity="0.54901963" height="22.9" transform="matrix(0.0137, 0.0, 0.0, 0.0137, 363.45, 13.5)" width="567.0" xlink:href="#font_HelveticaRounded_LT_Std_Bd_y0"/>
      </g>
      <g transform="matrix(1.0, 0.0, 0.0, 1.0, -2.0, -2.0)">
        <use fill="#00cc33" fill-opacity="0.54901963" height="22.9" transform="matrix(0.0137, 0.0, 0.0, 0.0137, 374.75, 13.5)" width="567.0" xlink:href="#font_HelveticaRounded_LT_Std_Bd_40"/>
        <use fill="#00cc33" fill-opacity="0.54901963" height="22.9" transform="matrix(0.0137, 0.0, 0.0, 0.0137, 383.3, 13.5)" width="567.0" xlink:href="#font_HelveticaRounded_LT_Std_Bd_00"/>
        <use fill="#00cc33" fill-opacity="0.54901963" height="22.9" transform="matrix(0.0137, 0.0, 0.0, 0.0137, 391.85, 13.5)" width="567.0" xlink:href="#font_HelveticaRounded_LT_Std_Bd__1"/>
      </g>
    </g>
    <g id="font_HelveticaRounded_LT_Std_Bd_I0">
      <path d="M78.0 -70.5 L78.0 -667.0 Q78.5 -705.0 101.0 -728.0 123.0 -750.5 162.0 -751.0 201.0 -750.5 223.0 -728.0 245.5 -705.0 246.0 -667.0 L246.0 -70.5 Q245.5 -32.5 223.0 -9.5 201.0 13.0 162.0 13.5 123.0 13.0 101.0 -9.5 78.5 -32.5 78.0 -70.5" fill-rule="evenodd" stroke="none"/>
    </g>
    <g id="font_HelveticaRounded_LT_Std_Bd_c0">
      <path d="M30.5 -257.0 Q30.5 -344.0 62.5 -409.5 94.5 -475.0 157.0 -511.5 219.5 -548.5 311.0 -549.0 374.0 -548.5 423.0 -528.0 472.0 -508.0 500.5 -476.0 528.5 -444.5 529.0 -409.0 528.5 -376.5 508.5 -360.5 488.5 -344.0 459.5 -344.0 434.0 -345.0 421.0 -358.0 408.0 -371.0 397.0 -388.5 386.0 -405.5 366.0 -418.5 346.5 -432.0 307.0 -432.5 277.0 -433.0 248.0 -417.0 219.0 -401.0 200.0 -362.5 180.5 -324.0 180.0 -257.0 180.0 -186.0 212.0 -145.0 244.5 -104.0 306.0 -103.0 344.0 -103.5 364.0 -118.0 384.0 -132.5 396.0 -151.0 408.0 -170.0 423.0 -184.5 438.0 -198.5 466.5 -199.5 495.5 -198.5 512.0 -182.0 529.0 -165.0 529.0 -142.0 529.0 -108.0 504.5 -72.5 479.5 -37.0 429.0 -12.5 378.5 12.5 302.0 13.5 210.0 13.0 149.5 -21.5 89.5 -56.5 60.0 -117.0 30.5 -178.0 30.5 -257.0" fill-rule="evenodd" stroke="none"/>
    </g>
    <g id="font_HelveticaRounded_LT_Std_Bd_v0">
      <path d="M158.0 -40.0 L16.5 -433.0 Q13.5 -443.0 10.5 -453.5 7.5 -464.0 7.5 -471.0 8.5 -511.0 30.5 -530.0 52.0 -549.0 80.0 -549.0 108.0 -548.0 123.5 -536.0 139.5 -524.0 146.0 -509.5 153.0 -495.0 155.0 -486.5 L255.0 -148.5 257.5 -148.5 357.5 -486.5 Q359.5 -495.0 366.5 -509.5 373.0 -524.0 389.0 -536.0 404.5 -548.0 432.5 -549.0 460.5 -549.0 482.0 -530.0 504.0 -511.0 505.0 -471.0 505.0 -464.0 502.0 -453.5 499.0 -443.0 496.0 -433.0 L354.5 -40.0 Q348.0 -20.0 339.5 -8.0 330.5 3.5 311.5 8.5 293.0 13.5 256.0 13.5 219.5 13.5 201.0 8.5 182.0 3.5 173.0 -8.0 164.5 -20.0 158.0 -40.0" fill-rule="evenodd" stroke="none"/>
    </g>
  </defs>
</svg>
