<?xml version="1.0" encoding="UTF-8" standalone="no"?>
<svg xmlns:ffdec="https://www.free-decompiler.com/flash" xmlns:xlink="http://www.w3.org/1999/xlink" ffdec:objectType="frame" height="358.05px" width="538.3px" xmlns="http://www.w3.org/2000/svg">
  <g transform="matrix(1.0, 0.0, 0.0, 1.0, 240.8, 146.3)">
    <use ffdec:characterId="2569" height="46.75" transform="matrix(7.0, 0.0, 0.0, 7.0, -113.4, -140.35)" width="28.9" xlink:href="#shape0"/>
    <use ffdec:characterId="2570" height="32.45" transform="matrix(7.0, 0.0, 0.0, 7.0, -188.65, -142.1)" width="54.7" xlink:href="#shape1"/>
  </g>
  <defs>
    <g id="shape0" transform="matrix(1.0, 0.0, 0.0, 1.0, 16.2, 20.05)">
      <path d="M6.9 -0.85 Q6.65 -0.6 6.4 -0.45 L6.25 -0.4 6.9 -0.85" fill="#cccccc" fill-rule="evenodd" stroke="none"/>
      <path d="M-7.15 -18.1 Q-6.25 -18.5 -5.3 -18.75 L-4.5 -19.0 Q-3.15 -19.35 -2.1 -19.35 L-1.35 -19.3 -1.15 -19.3 Q1.3 -19.3 3.65 -18.55 L3.7 -18.55 3.55 -18.55 3.55 -18.4 3.6 -18.4 Q3.75 -18.35 4.1 -18.15 4.4 -18.0 4.65 -18.0 L4.6 -17.9 4.8 -17.7 5.4 -17.15 Q6.25 -16.35 6.85 -15.55 8.9 -12.7 8.9 -7.9 8.9 -6.05 8.3 -4.55 L8.15 -4.2 Q7.0 -1.6 3.95 -0.05 2.35 0.75 0.4 1.2 -0.9 1.45 -1.65 1.45 L-3.1 1.4 -4.1 1.25 -4.45 1.15 Q-5.25 0.9 -7.15 0.05 -7.55 -0.1 -8.0 -0.45 L-8.6 -1.0 Q-9.45 -1.8 -9.9 -2.65 L-10.0 -2.75 -11.1 -5.3 Q-12.15 -8.05 -12.15 -9.5 -12.15 -10.55 -11.8 -11.55 -11.5 -12.5 -10.6 -14.35 L-10.15 -14.95 Q-8.6 -16.75 -7.2 -17.85 L-7.6 -17.8 -7.25 -18.05 -7.15 -18.1 M2.05 -15.15 Q0.9 -14.8 0.65 -14.8 0.45 -14.8 -1.0 -15.35 -2.25 -15.85 -3.1 -15.9 L-3.9 -16.1 Q-4.2 -16.1 -4.6 -15.9 -5.0 -15.8 -5.15 -15.55 -6.0 -15.0 -6.75 -14.15 -8.75 -11.85 -8.75 -9.15 -8.75 -8.15 -7.35 -7.15 -6.05 -6.2 -5.3 -6.2 L-3.6 -6.3 Q-1.95 -6.6 -1.95 -7.7 -1.95 -8.4 -2.25 -8.8 L-2.15 -9.15 Q-2.35 -9.4 -2.55 -9.55 L-2.85 -9.7 Q-2.5 -10.2 -2.15 -10.35 L-1.5 -10.35 -0.7 -10.25 0.05 -10.15 Q0.15 -8.35 1.05 -7.55 1.3 -7.35 1.8 -7.1 2.25 -6.85 2.4 -6.7 L1.85 -5.9 Q1.45 -5.4 1.2 -5.4 0.95 -5.4 0.25 -5.7 -0.4 -5.95 -0.65 -5.95 L-1.2 -5.95 Q-1.55 -5.95 -1.75 -5.75 -2.3 -5.35 -2.6 -3.65 -2.8 -3.05 -3.3 -2.95 L-3.6 -2.9 Q-4.4 -3.5 -4.6 -3.5 -4.9 -3.5 -4.85 -3.45 L-4.8 -3.35 Q-4.4 -2.65 -3.6 -2.1 -3.5 -2.05 -2.7 -1.7 -2.7 -1.4 -2.6 -1.35 L-2.55 -1.3 -2.05 -1.25 -0.95 -1.15 Q-0.45 -1.25 -0.45 -2.1 -0.45 -2.3 -0.55 -2.75 -0.65 -3.25 -0.65 -3.75 L-0.2 -3.75 Q0.55 -2.85 0.85 -2.65 1.2 -2.4 1.85 -2.4 L1.9 -2.4 Q1.9 -2.25 1.95 -2.15 L2.05 -2.1 2.3 -2.05 2.65 -2.05 Q3.5 -2.05 5.15 -3.95 6.8 -5.85 7.0 -7.05 7.05 -7.4 6.45 -8.8 5.75 -10.4 5.55 -11.6 5.1 -14.65 4.75 -15.2 4.55 -15.5 4.3 -15.5 L3.7 -15.45 Q3.2 -15.45 2.05 -15.15 M2.3 -17.7 Q1.8 -18.4 0.8 -18.65 0.2 -18.8 -0.9 -18.8 -1.45 -18.8 -2.0 -18.7 -3.0 -18.45 -3.0 -17.7 -3.0 -16.8 -1.35 -16.35 -0.35 -16.1 0.7 -16.1 0.85 -16.1 1.5 -16.55 2.15 -16.95 2.3 -17.15 L2.3 -17.7" fill="#f9e5ff" fill-rule="evenodd" stroke="none"/>
      <path d="M-7.15 -18.1 L-7.25 -18.05 -7.6 -17.8 -7.2 -17.85 Q-8.6 -16.75 -10.15 -14.95 L-10.6 -14.35 Q-11.5 -12.5 -11.8 -11.55 -12.15 -10.55 -12.15 -9.5 -12.15 -8.05 -11.1 -5.3 L-10.0 -2.75 -9.9 -2.65 Q-9.45 -1.8 -8.6 -1.0 L-8.0 -0.45 Q-7.55 -0.1 -7.15 0.05 -5.25 0.9 -4.45 1.15 L-4.1 1.25 -3.1 1.4 -1.65 1.45 Q-0.9 1.45 0.4 1.2 2.35 0.75 3.95 -0.05 7.0 -1.6 8.15 -4.2 L8.3 -4.55 Q8.9 -6.05 8.9 -7.9 8.9 -12.7 6.85 -15.55 6.25 -16.35 5.4 -17.15 L4.8 -17.7 4.6 -17.9 4.65 -18.0 Q4.4 -18.0 4.1 -18.15 3.75 -18.35 3.6 -18.4 L3.55 -18.4 3.55 -18.55 3.7 -18.55 4.25 -18.4 Q4.8 -18.25 4.95 -18.05 5.35 -17.9 5.75 -17.65 L5.9 -17.65 6.6 -17.25 Q7.8 -15.75 8.25 -15.25 8.7 -14.8 9.1 -13.95 9.75 -12.05 10.15 -8.75 10.15 -4.6 8.8 -2.7 8.25 -1.95 7.25 -1.15 L6.9 -0.85 6.25 -0.4 5.3 0.35 Q3.55 1.7 1.4 2.65 L1.25 2.7 -0.3 2.75 -2.95 2.75 -3.85 2.55 -5.65 1.95 Q-6.85 1.55 -7.4 1.3 -10.45 -0.05 -11.9 -2.5 -13.4 -5.0 -13.4 -8.95 -13.4 -11.1 -12.85 -12.95 L-12.85 -13.05 -12.5 -13.7 -11.75 -15.0 -11.55 -15.4 Q-11.25 -16.05 -10.9 -16.4 -10.2 -17.1 -9.2 -17.5 L-8.7 -17.65 -8.25 -18.1 Q-7.35 -18.85 -6.75 -18.65 L-6.6 -18.75 -6.75 -18.6 -6.7 -18.35 -7.15 -18.1 M2.3 -17.7 L2.3 -17.15 Q2.15 -16.95 1.5 -16.55 0.85 -16.1 0.7 -16.1 -0.35 -16.1 -1.35 -16.35 -3.0 -16.8 -3.0 -17.7 -3.0 -18.45 -2.0 -18.7 -1.45 -18.8 -0.9 -18.8 0.2 -18.8 0.8 -18.65 1.8 -18.4 2.3 -17.7 M2.05 -15.15 Q3.2 -15.45 3.7 -15.45 L4.3 -15.5 Q4.55 -15.5 4.75 -15.2 5.1 -14.65 5.55 -11.6 5.75 -10.4 6.45 -8.8 7.05 -7.4 7.0 -7.05 6.8 -5.85 5.15 -3.95 3.5 -2.05 2.65 -2.05 L2.3 -2.05 2.05 -2.1 1.95 -2.15 Q1.9 -2.25 1.9 -2.4 L1.85 -2.4 Q1.2 -2.4 0.85 -2.65 0.55 -2.85 -0.2 -3.75 L-0.65 -3.75 Q-0.65 -3.25 -0.55 -2.75 -0.45 -2.3 -0.45 -2.1 -0.45 -1.25 -0.95 -1.15 L-2.05 -1.25 -2.55 -1.3 -2.6 -1.35 Q-2.7 -1.4 -2.7 -1.7 -3.5 -2.05 -3.6 -2.1 -4.4 -2.65 -4.8 -3.35 L-4.85 -3.45 Q-4.9 -3.5 -4.6 -3.5 -4.4 -3.5 -3.6 -2.9 L-3.3 -2.95 Q-2.8 -3.05 -2.6 -3.65 -2.3 -5.35 -1.75 -5.75 -1.55 -5.95 -1.2 -5.95 L-0.65 -5.95 Q-0.4 -5.95 0.25 -5.7 0.95 -5.4 1.2 -5.4 1.45 -5.4 1.85 -5.9 L2.4 -6.7 Q2.25 -6.85 1.8 -7.1 1.3 -7.35 1.05 -7.55 0.15 -8.35 0.05 -10.15 L-0.7 -10.25 -1.5 -10.35 -2.15 -10.35 Q-2.5 -10.2 -2.85 -9.7 L-2.55 -9.55 Q-2.35 -9.4 -2.15 -9.15 L-2.25 -8.8 Q-1.95 -8.4 -1.95 -7.7 -1.95 -6.6 -3.6 -6.3 L-5.3 -6.2 Q-6.05 -6.2 -7.35 -7.15 -8.75 -8.15 -8.75 -9.15 -8.75 -11.85 -6.75 -14.15 -6.0 -15.0 -5.15 -15.55 -5.0 -15.8 -4.6 -15.9 -4.2 -16.1 -3.9 -16.1 L-3.1 -15.9 Q-2.25 -15.85 -1.0 -15.35 0.45 -14.8 0.65 -14.8 0.9 -14.8 2.05 -15.15" fill="#a06bb3" fill-rule="evenodd" stroke="none"/>
      <path d="M10.1 -14.4 Q10.65 -13.35 11.35 -11.65 L12.45 -9.1 Q13.1 -7.55 12.15 -5.15 11.85 -4.35 11.3 -3.35 L10.5 -1.95 Q9.7 -1.3 9.25 -0.3 9.0 0.4 8.85 1.55 L8.55 3.45 Q8.3 4.5 7.8 5.1 7.25 5.75 5.8 6.75 4.5 7.65 4.2 8.2 3.6 9.35 3.25 10.6 3.05 11.3 2.85 12.35 2.6 13.05 2.25 13.35 1.8 13.7 0.85 13.7 L-0.3 13.6 Q-0.6 13.5 -1.35 12.85 -2.5 11.85 -2.65 10.25 -2.75 9.3 -2.85 8.75 -2.95 7.8 -3.25 6.95 -3.85 5.3 -5.15 4.65 -5.6 4.4 -6.3 4.2 L-7.55 3.85 -9.8 3.05 Q-11.2 2.5 -11.85 1.75 L-13.0 0.5 Q-13.6 -0.3 -13.6 -1.2 -13.5 -7.0 -13.9 -7.8 -14.15 -8.25 -14.2 -8.5 -14.35 -9.25 -14.35 -11.45 -14.35 -13.55 -11.05 -16.15 -8.95 -17.8 -7.25 -18.55 -6.15 -19.05 -3.8 -19.55 -1.45 -20.05 -0.1 -20.05 1.65 -20.05 3.4 -19.65 5.15 -19.25 6.85 -18.45 8.5 -17.65 10.1 -14.4 M-16.2 11.8 L-16.05 11.8 -13.6 12.4 Q-12.1 12.7 -11.2 13.1 -12.1 13.6 -13.6 13.45 -15.45 13.2 -16.2 11.8 M1.55 25.95 L1.6 25.9 3.55 25.9 4.65 26.2 Q5.05 26.3 5.25 26.45 L5.0 26.5 Q4.35 26.65 3.3 26.7 2.1 26.5 1.55 25.95" fill="#ce8ae6" fill-opacity="0.5019608" fill-rule="evenodd" stroke="none"/>
    </g>
    <g id="shape1" transform="matrix(1.0, 0.0, 0.0, 1.0, 26.95, 20.3)">
      <path d="M-5.85 -17.05 L-5.9 -16.95 -5.7 -16.85 -5.85 -17.05 M-5.85 -18.7 L-6.2 -19.0 -6.25 -19.75 Q-5.85 -20.2 -5.6 -20.3 L-5.0 -20.3 Q-4.5 -20.3 -3.25 -19.85 -2.05 -19.45 -1.85 -19.25 L-1.95 -19.1 -1.85 -19.05 Q-2.2 -18.6 -3.55 -17.5 L-4.45 -16.7 Q-4.8 -16.35 -5.05 -15.95 -6.55 -16.25 -6.65 -16.8 -6.7 -17.35 -5.5 -18.35 -5.65 -18.55 -5.85 -18.7" fill="#a06bb3" fill-rule="evenodd" stroke="none"/>
      <path d="M10.8 -14.75 L11.15 -14.75 Q11.45 -14.75 11.85 -15.0 12.25 -15.25 12.4 -15.25 11.95 -13.6 13.95 -12.7 15.3 -12.1 16.55 -12.1 L18.65 -12.1 Q20.55 -11.85 20.55 -10.75 20.55 -10.7 20.05 -10.25 19.6 -9.85 19.6 -9.5 19.6 -8.05 21.55 -6.35 L22.9 -5.15 Q23.5 -4.55 23.5 -4.05 23.5 -3.5 23.15 -2.9 22.8 -2.3 22.35 -2.3 L21.55 -2.4 20.9 -2.35 20.85 -1.45 Q21.05 -1.25 21.1 -0.6 21.2 0.15 20.55 0.15 19.45 0.15 18.8 -0.45 18.4 -0.8 17.95 -1.75 17.45 -2.75 17.1 -3.1 16.5 -3.7 15.4 -3.7 14.9 -3.7 14.6 -3.35 14.4 -3.1 14.25 -2.5 14.05 -1.9 13.9 -1.7 13.6 -1.35 13.1 -1.35 12.75 -1.35 12.7 -1.4 12.6 -1.5 12.55 -1.5 L12.5 -1.55 Q12.4 -1.7 12.4 -2.05 12.4 -2.35 12.5 -2.55 L12.55 -2.55 12.95 -3.15 13.0 -3.15 Q13.75 -4.4 12.75 -5.1 11.95 -5.65 10.7 -5.65 10.3 -5.65 9.9 -5.5 9.5 -5.3 9.05 -4.8 L8.1 -4.9 7.15 -4.95 6.3 -4.9 Q5.6 -4.8 5.15 -4.45 4.7 -4.2 4.35 -4.2 L-1.75 -5.0 Q-2.45 -5.0 -2.95 -4.8 -3.2 -4.7 -3.75 -4.4 -4.8 -3.8 -6.25 -3.8 L-8.3 -3.9 Q-10.2 -3.85 -10.7 -3.4 -11.25 -2.9 -11.45 -2.05 L-11.7 -0.6 Q-11.9 0.2 -12.35 0.55 -12.95 1.05 -14.2 1.05 -15.0 1.05 -15.5 0.8 -16.55 0.25 -16.55 -1.45 -16.55 -1.55 -16.35 -1.7 -16.05 -1.85 -15.85 -1.95 -15.2 -2.35 -15.2 -2.9 -15.2 -3.5 -16.15 -3.8 -16.85 -4.05 -17.4 -4.05 -18.3 -4.05 -19.6 -2.9 L-20.45 -2.1 Q-20.9 -1.75 -21.2 -1.75 -21.25 -1.75 -21.55 -1.95 -21.9 -2.25 -22.15 -2.6 -23.0 -3.75 -22.65 -5.35 -22.25 -5.65 -21.95 -5.75 -21.6 -5.9 -21.2 -5.9 -20.9 -5.9 -20.35 -5.65 -19.85 -5.45 -19.55 -5.45 -19.1 -5.4 -18.65 -5.6 -17.85 -5.9 -17.85 -6.85 -17.85 -8.1 -18.75 -8.45 -19.0 -8.55 -19.55 -8.7 -20.0 -8.9 -20.25 -9.2 -19.0 -10.95 -17.2 -12.2 L-16.15 -12.9 Q-13.3 -12.3 -13.3 -11.6 -13.3 -11.15 -13.65 -11.05 L-14.1 -11.0 -14.45 -11.05 Q-15.05 -10.75 -15.9 -10.3 -17.95 -9.15 -18.25 -9.0 -15.25 -7.3 -10.85 -6.75 -8.25 -6.4 -3.2 -6.4 L7.15 -6.75 Q12.85 -7.1 15.05 -7.8 15.7 -8.05 16.15 -8.3 L16.3 -8.45 Q16.0 -9.45 15.0 -10.15 13.75 -10.9 13.15 -11.3 12.7 -11.6 11.45 -12.2 10.3 -12.75 9.75 -13.15 L9.8 -13.35 Q9.75 -13.5 9.75 -13.7 9.75 -14.15 10.0 -14.2 L10.45 -14.2 Q10.75 -14.2 10.8 -14.4 10.85 -14.55 10.8 -14.75 M21.45 -12.75 Q20.7 -13.0 19.35 -13.3 L18.4 -13.4 19.35 -13.45 Q19.6 -13.45 20.25 -13.25 20.9 -13.05 21.45 -12.75" fill="#ffffff" fill-rule="evenodd" stroke="none"/>
      <path d="M-16.15 -12.9 L-17.2 -12.2 Q-19.0 -10.95 -20.25 -9.2 -20.0 -8.9 -19.55 -8.7 -19.0 -8.55 -18.75 -8.45 -17.85 -8.1 -17.85 -6.85 -17.85 -5.9 -18.65 -5.6 -19.1 -5.4 -19.55 -5.45 -19.85 -5.45 -20.35 -5.65 -20.9 -5.9 -21.2 -5.9 -21.6 -5.9 -21.95 -5.75 -22.25 -5.65 -22.65 -5.35 -23.0 -3.75 -22.15 -2.6 -21.9 -2.25 -21.55 -1.95 -21.25 -1.75 -21.2 -1.75 -20.9 -1.75 -20.45 -2.1 L-19.6 -2.9 Q-18.3 -4.05 -17.4 -4.05 -16.85 -4.05 -16.15 -3.8 -15.2 -3.5 -15.2 -2.9 -15.2 -2.35 -15.85 -1.95 -16.05 -1.85 -16.35 -1.7 -16.55 -1.55 -16.55 -1.45 -16.55 0.25 -15.5 0.8 -15.0 1.05 -14.2 1.05 -12.95 1.05 -12.35 0.55 -11.9 0.2 -11.7 -0.6 L-11.45 -2.05 Q-11.25 -2.9 -10.7 -3.4 -10.2 -3.85 -8.3 -3.9 L-6.25 -3.8 Q-4.8 -3.8 -3.75 -4.4 -3.2 -4.7 -2.95 -4.8 -2.45 -5.0 -1.75 -5.0 L4.35 -4.2 Q4.7 -4.2 5.15 -4.45 5.6 -4.8 6.3 -4.9 L7.15 -4.95 8.1 -4.9 9.05 -4.8 Q9.5 -5.3 9.9 -5.5 10.3 -5.65 10.7 -5.65 11.95 -5.65 12.75 -5.1 13.75 -4.4 13.0 -3.15 L12.95 -3.15 12.55 -2.55 12.5 -2.55 Q12.4 -2.35 12.4 -2.05 12.4 -1.7 12.5 -1.55 L12.55 -1.5 Q12.6 -1.5 12.7 -1.4 12.75 -1.35 13.1 -1.35 13.6 -1.35 13.9 -1.7 14.05 -1.9 14.25 -2.5 14.4 -3.1 14.6 -3.35 14.9 -3.7 15.4 -3.7 16.5 -3.7 17.1 -3.1 17.45 -2.75 17.95 -1.75 18.4 -0.8 18.8 -0.45 19.45 0.15 20.55 0.15 21.2 0.15 21.1 -0.6 21.05 -1.25 20.85 -1.45 L20.9 -2.35 21.55 -2.4 22.35 -2.3 Q22.8 -2.3 23.15 -2.9 23.5 -3.5 23.5 -4.05 23.5 -4.55 22.9 -5.15 L21.55 -6.35 Q19.6 -8.05 19.6 -9.5 19.6 -9.85 20.05 -10.25 20.55 -10.7 20.55 -10.75 20.55 -11.85 18.65 -12.1 L16.55 -12.1 Q15.3 -12.1 13.95 -12.7 11.95 -13.6 12.4 -15.25 12.25 -15.25 11.85 -15.0 11.45 -14.75 11.15 -14.75 L10.8 -14.75 Q10.75 -15.05 10.6 -15.55 10.85 -16.15 11.25 -16.3 L11.8 -16.3 Q12.9 -16.3 13.3 -15.95 13.5 -15.75 13.6 -15.15 13.65 -14.5 13.9 -14.2 14.3 -13.65 15.45 -13.4 L17.65 -13.35 18.4 -13.4 19.35 -13.3 Q20.7 -13.0 21.45 -12.75 L21.65 -12.65 21.7 -12.6 Q23.6 -11.5 23.1 -10.05 23.0 -9.55 22.0 -8.95 L22.0 -8.9 22.05 -8.8 22.05 -8.75 Q22.45 -7.9 23.15 -7.4 L23.4 -7.2 23.45 -7.15 23.9 -6.95 24.0 -6.9 25.15 -6.4 Q26.2 -5.95 26.75 -5.25 27.5 -4.2 27.75 -2.25 27.8 3.25 25.9 5.05 25.2 5.7 24.25 5.85 L22.85 5.95 Q21.4 5.95 20.3 5.2 19.5 4.65 18.7 3.55 L17.5 1.9 Q16.85 1.2 16.1 1.2 14.9 1.2 14.45 2.05 14.25 2.4 14.15 2.95 L13.95 4.0 Q13.7 5.3 13.0 5.9 12.05 6.8 9.95 6.8 9.05 6.8 8.2 6.35 7.35 5.95 6.5 5.15 L6.5 4.15 Q7.05 2.5 8.3 1.3 L9.2 0.35 Q9.7 -0.2 9.95 -0.85 L9.95 -1.65 Q6.9 -2.8 6.45 -2.8 5.85 -2.8 5.2 -2.25 4.5 -1.75 3.5 -1.75 L1.3 -1.95 Q0.15 -1.95 -0.85 -2.4 -1.85 -2.85 -2.25 -2.85 L-3.3 -2.75 Q-3.55 -1.2 -4.6 -0.8 -4.95 -0.65 -5.45 -0.65 L-6.1 -0.65 Q-6.35 -0.65 -7.2 -0.85 -8.05 -1.1 -8.3 -1.1 -8.55 -1.1 -8.9 -0.85 L-9.55 -0.4 -9.1 1.0 Q-8.8 1.95 -8.65 3.4 -8.9 4.25 -9.85 4.65 -10.4 4.85 -10.6 4.95 -11.0 5.25 -11.3 5.7 L-11.05 6.45 -10.5 6.45 -10.1 6.4 Q-9.65 6.4 -9.2 7.05 -8.75 7.65 -8.75 8.05 -8.75 10.0 -10.15 11.25 -10.65 11.7 -11.25 11.95 -11.7 12.15 -11.9 12.15 L-12.45 12.1 -12.5 11.85 Q-12.55 11.5 -12.55 11.05 -12.5 10.85 -11.9 10.25 -11.4 9.75 -11.5 9.2 -11.6 9.1 -12.1 9.0 -12.7 8.9 -13.05 8.75 -14.3 8.2 -14.3 6.75 -14.3 6.45 -14.15 6.2 -13.95 5.95 -13.95 5.85 L-14.95 5.95 -15.9 6.05 Q-16.5 6.05 -17.1 5.7 -17.9 5.25 -18.15 4.35 L-18.15 3.4 -17.8 2.2 Q-17.5 1.2 -17.3 0.75 L-17.3 0.7 -17.35 -0.25 -17.65 -0.25 Q-17.95 -0.25 -18.1 -0.15 L-18.45 0.1 Q-18.3 1.8 -20.3 1.8 -21.05 1.8 -22.0 1.5 -23.25 1.15 -24.25 0.45 -26.95 -1.45 -26.95 -5.05 -26.95 -6.3 -25.75 -7.15 -24.75 -7.9 -23.85 -7.9 L-22.35 -7.95 Q-21.8 -8.05 -21.35 -8.3 -21.1 -8.5 -20.9 -8.7 -21.15 -9.1 -21.45 -9.4 L-21.6 -9.8 Q-21.7 -10.25 -21.75 -10.95 L-21.8 -11.15 -21.8 -11.25 Q-21.75 -12.05 -19.65 -12.6 -18.1 -13.05 -16.9 -13.05 L-16.15 -12.9" fill="#d08ae6" fill-rule="evenodd" stroke="none"/>
    </g>
  </defs>
</svg>
