<?xml version="1.0" encoding="UTF-8" standalone="no"?>
<svg xmlns:ffdec="https://www.free-decompiler.com/flash" xmlns:xlink="http://www.w3.org/1999/xlink" ffdec:objectType="frame" height="108.8px" width="220.5px" xmlns="http://www.w3.org/2000/svg">
  <g transform="matrix(1.0, 0.0, 0.0, 1.0, 119.35, 79.4)">
    <use ffdec:characterId="2823" height="6.65" transform="matrix(7.0, 0.0, 0.0, 7.0, -86.45, -28.35)" width="22.0" xlink:href="#shape0"/>
    <use ffdec:characterId="2817" height="1.5" transform="matrix(-9.3557, 0.0, 0.0, 3.8776, 54.8674, 9.9551)" width="11.05" xlink:href="#shape1"/>
    <use ffdec:characterId="2824" height="8.9" transform="matrix(-9.3557, 0.0, 0.0, 3.8776, 22.1225, -20.4844)" width="6.05" xlink:href="#shape2"/>
    <use ffdec:characterId="2822" height="8.9" transform="matrix(-9.3557, 0.0, 0.0, 3.8776, 22.1225, -20.4844)" width="6.05" xlink:href="#shape3"/>
  </g>
  <defs>
    <g id="shape0" transform="matrix(1.0, 0.0, 0.0, 1.0, 12.35, 4.05)">
      <path d="M6.8 -0.15 Q7.05 -0.1 7.0 0.05 6.95 0.25 7.1 0.4 L7.05 0.5 7.0 0.45 7.0 0.5 6.15 0.65 Q5.55 0.75 5.2 0.95 L4.95 0.9 4.4 0.9 4.3 1.0 3.95 0.95 4.0 0.9 2.65 0.95 2.0 0.95 1.6 1.1 1.4 1.15 Q1.2 1.25 1.05 1.25 L1.0 1.25 0.6 1.1 0.45 1.1 0.15 1.05 Q-0.2 1.05 -0.3 1.1 -0.45 1.2 -1.15 1.25 L-1.8 1.25 -1.9 1.3 -2.2 1.25 -2.2 1.2 -2.3 1.2 -2.4 1.25 -2.55 1.2 Q-2.55 1.25 -2.55 1.15 L-3.05 0.95 -3.6 1.0 Q-4.25 1.0 -4.25 0.9 -4.7 0.85 -4.85 0.95 -5.05 1.05 -5.15 1.05 L-5.3 1.05 -5.35 1.1 -5.6 1.05 -5.6 1.0 -5.8 0.9 -6.2 0.85 -6.55 0.8 -6.65 0.7 -6.95 0.65 Q-7.15 0.6 -7.2 0.5 L-6.95 0.05 Q-6.8 -0.05 -6.6 0.0 L-6.25 0.1 -6.1 0.05 Q-6.1 -0.15 -6.05 -0.2 L-5.65 -0.15 -5.5 -0.15 Q-5.45 -0.05 -5.45 0.05 L-5.45 0.1 -5.6 0.05 Q-5.75 0.05 -5.95 0.15 L-6.75 0.25 -6.85 0.4 Q-6.85 0.5 -7.0 0.55 L-6.7 0.65 -6.7 0.6 -6.65 0.45 -6.6 0.45 -6.6 0.5 -6.65 0.6 -6.6 0.65 -6.3 0.75 -6.05 0.8 -5.9 0.8 -5.7 0.7 -5.55 0.6 Q-5.35 0.6 -5.3 0.7 L-5.2 0.95 -5.25 1.0 Q-5.1 1.0 -5.0 0.95 -4.85 0.85 -4.7 0.85 L-4.35 0.9 -4.05 0.95 -3.55 0.9 -3.25 0.9 -3.0 0.95 -2.65 1.05 -2.55 1.05 -2.5 1.0 -2.4 0.85 -2.1 0.85 -2.1 0.95 -2.05 1.05 -2.0 1.05 -2.0 0.8 Q-2.0 0.6 -1.85 0.55 L-1.45 0.65 -1.4 0.65 -1.4 0.75 -1.5 0.85 -1.6 0.9 -1.55 1.05 -1.5 1.1 -1.05 1.15 -0.65 1.05 -0.55 1.1 -0.5 1.1 -0.4 1.05 Q-0.3 0.95 -0.2 0.95 L-0.1 0.95 -0.1 0.85 Q-0.05 0.8 0.2 0.9 L0.3 0.9 0.3 0.8 0.25 0.7 Q0.15 0.55 0.15 0.45 0.15 0.3 0.35 0.35 L0.75 0.45 0.75 0.5 Q0.75 0.6 0.75 0.65 0.75 0.75 0.85 0.9 0.95 1.1 1.05 1.1 1.3 1.1 1.4 1.0 1.55 0.9 1.7 0.9 L2.05 0.95 2.65 0.85 4.1 0.85 4.35 0.6 4.45 0.4 4.75 0.45 4.9 0.7 Q5.05 0.85 5.3 0.8 L5.5 0.65 6.2 0.55 6.85 0.45 6.9 0.4 6.75 0.35 6.7 0.3 6.45 0.25 Q6.25 0.25 6.05 0.35 L5.95 0.3 5.75 0.3 5.8 0.25 5.85 0.25 5.95 0.3 Q6.0 0.2 6.15 0.15 L5.95 0.1 6.25 0.15 6.4 0.05 6.55 -0.1 Q6.65 -0.15 6.8 -0.15 M5.15 0.85 L4.85 0.85 5.0 0.9 5.15 0.85 M-5.6 0.0 L-5.5 0.0 -5.55 -0.05 -5.6 0.0 M-2.25 1.05 L-2.25 1.1 -2.3 1.15 -2.2 1.15 -2.2 1.0 -2.25 1.05 M-1.65 1.15 L-1.65 1.15" fill="#ffffff" fill-opacity="0.5019608" fill-rule="evenodd" stroke="none"/>
      <path d="M2.7 -4.0 Q3.0 -4.1 3.35 -3.65 3.65 -3.3 3.65 -3.15 3.65 -3.0 3.35 -2.65 3.05 -2.3 2.95 -2.3 L2.7 -2.3 Q2.55 -2.3 2.45 -2.5 2.35 -2.65 2.35 -2.8 L2.4 -3.1 2.5 -3.45 2.5 -3.75 Q2.55 -3.95 2.7 -4.0 M0.0 -2.1 L0.0 -2.25 Q0.0 -2.7 0.45 -2.4 0.9 -2.15 1.0 -1.85 1.2 -1.6 1.4 -1.4 1.8 -1.0 2.2 -1.0 2.65 -1.0 3.0 -1.25 L3.3 -1.55 3.55 -1.55 Q3.7 -1.3 4.1 -1.1 4.8 -0.75 5.8 -0.75 6.3 -0.75 6.65 -0.95 6.95 -1.15 6.95 -1.25 L7.0 -1.55 Q7.1 -1.75 7.6 -1.75 8.4 -1.75 8.55 -1.3 L8.6 -1.0 Q8.65 -0.85 8.7 -0.8 L9.3 -0.45 Q9.65 -0.2 9.65 0.0 9.65 0.2 9.25 0.55 8.8 0.85 8.45 0.9 8.0 0.95 7.8 1.1 7.75 1.15 7.7 1.35 7.6 1.7 6.65 1.75 L4.55 1.75 3.5 1.9 2.1 1.95 0.15 1.85 -0.2 1.4 -0.85 1.35 Q-1.5 1.35 -1.75 1.45 L-2.4 1.8 Q-3.4 2.2 -4.55 1.85 L-6.75 1.85 -7.1 2.15 Q-7.3 2.3 -7.3 2.45 -7.55 2.6 -7.8 2.6 L-8.6 2.55 -9.65 2.55 -11.9 2.1 -11.9 2.05 Q-12.35 1.95 -12.35 1.6 -12.35 1.25 -12.0 0.9 -11.4 0.4 -11.25 0.15 L-10.95 -0.65 Q-10.8 -1.2 -10.35 -1.2 -9.8 -1.2 -9.6 -1.0 -9.4 -0.85 -9.15 -0.85 -8.6 -0.85 -8.15 -1.15 -7.75 -1.5 -7.55 -1.65 L-7.2 -1.6 Q-7.05 -1.45 -7.0 -0.95 -6.95 -0.45 -6.75 -0.25 L-6.55 -0.25 -6.25 -0.6 Q-6.0 -0.85 -5.8 -0.95 L-5.5 -0.95 Q-5.25 -0.6 -5.05 -0.4 -4.65 0.0 -4.15 0.0 -3.7 0.0 -3.05 -0.7 -2.7 -1.1 -2.3 -1.6 L-1.75 -1.35 -1.45 -1.15 -0.95 -1.1 Q-0.3 -1.1 -0.05 -1.65 L0.1 -2.05 0.0 -2.1 M-6.2 -3.0 L-5.7 -3.4 -5.4 -3.4 Q-5.3 -3.35 -5.25 -3.05 -5.2 -2.8 -5.0 -2.65 L-4.5 -2.35 Q-4.3 -2.2 -4.3 -2.0 -4.3 -1.8 -4.4 -1.75 -4.6 -1.6 -5.0 -1.6 -5.4 -1.6 -5.7 -1.8 L-6.05 -2.1 Q-6.3 -2.25 -6.3 -2.65 -6.3 -2.85 -6.2 -3.0 M-1.0 -2.65 Q-1.95 -2.65 -2.25 -2.75 -2.4 -2.85 -2.4 -3.0 -2.4 -3.5 -1.35 -3.65 -0.35 -3.75 -0.35 -3.2 -0.35 -3.0 -0.45 -2.85 -0.65 -2.65 -1.0 -2.65" fill="#ffffff" fill-opacity="0.5019608" fill-rule="evenodd" stroke="none"/>
    </g>
    <g id="shape1" transform="matrix(1.0, 0.0, 0.0, 1.0, 5.25, 0.45)">
      <path d="M5.8 -0.1 Q5.8 0.2 5.15 0.45 L4.2 0.7 3.75 0.8 0.3 1.05 -3.65 0.7 -4.6 0.45 Q-5.25 0.2 -5.25 -0.1 L-5.2 -0.15 -3.65 -0.35 0.3 -0.45 3.9 -0.4 4.2 -0.35 5.75 -0.15 5.8 -0.1" fill="#ffffff" fill-opacity="0.5019608" fill-rule="evenodd" stroke="none"/>
      <path d="M5.8 -0.1 Q5.8 0.2 5.15 0.45 L4.2 0.7 3.75 0.8 0.3 1.05 -3.65 0.7 -4.6 0.45 Q-5.25 0.2 -5.25 -0.1 L-5.2 -0.15 -3.65 -0.35 0.3 -0.45 3.9 -0.4 4.2 -0.35 5.75 -0.15 5.8 -0.1" fill="#ffffff" fill-opacity="0.5019608" fill-rule="evenodd" stroke="none"/>
    </g>
    <g id="shape2" transform="matrix(1.0, 0.0, 0.0, 1.0, 1.75, 8.3)">
      <path d="M0.85 -7.65 L0.9 -7.7 1.05 -7.95 Q1.2 -8.1 1.45 -8.2 L1.7 -8.25 2.05 -8.25 Q2.7 -7.95 2.85 -7.3 3.05 -6.65 3.3 -6.4 L3.85 -6.35 4.0 -6.25 Q4.15 -6.1 4.2 -5.9 L4.2 -5.0 4.05 -4.55 4.0 -4.5 3.95 -4.5 3.9 -4.4 3.85 -4.4 3.85 -4.6 3.9 -4.85 3.8 -5.15 3.65 -5.2 3.2 -5.0 Q3.05 -4.7 2.9 -4.3 2.7 -3.45 2.4 -3.45 L2.35 -3.45 Q2.15 -2.8 2.15 -2.1 2.15 -1.85 2.25 -1.4 L2.25 -1.3 Q2.35 -0.65 2.5 -0.6 2.65 -0.7 2.75 -0.85 L2.8 -0.85 2.85 -1.05 2.95 -1.3 3.0 -1.45 Q3.1 -1.85 3.1 -2.15 L3.1 -2.25 3.15 -2.4 3.2 -2.4 3.25 -1.75 3.3 -1.45 3.3 -1.4 3.25 -1.45 3.35 -1.3 3.4 -1.15 Q3.5 -0.9 3.7 -0.75 3.9 -0.5 4.25 -0.4 L4.3 -0.35 4.3 -0.3 4.25 -0.25 4.2 -0.25 3.9 -0.4 Q3.85 -0.4 3.8 -0.45 L3.85 -0.4 3.8 -0.3 3.6 -0.3 3.3 -0.35 2.75 -0.2 2.7 -0.15 2.45 0.3 Q2.35 0.3 2.35 0.05 L2.35 -0.15 2.3 -0.25 2.25 -0.25 1.55 -0.3 1.2 -0.45 0.35 -0.3 Q0.25 -0.3 0.2 -0.45 0.15 -0.35 0.1 -0.35 L-0.1 -0.25 -0.25 -0.2 -0.25 -0.15 Q-0.35 0.3 -0.45 0.3 -0.6 0.3 -0.65 -0.15 L-0.7 -0.3 -0.8 -0.3 -0.95 -0.25 -1.0 -0.25 Q-1.1 -0.3 -1.2 -0.5 L-1.25 -0.3 -1.25 0.45 Q-1.3 0.75 -1.3 0.45 L-1.3 -0.15 -1.25 -0.25 -1.4 -0.25 -1.5 -0.35 -1.6 -0.2 -1.7 -0.25 -1.5 -0.75 -1.4 -1.3 -1.3 -1.5 -1.3 -1.55 -1.25 -1.6 -1.2 -2.05 -1.15 -2.05 -1.2 -1.95 -1.2 -1.75 -1.15 -1.5 -1.15 -1.6 -1.1 -1.55 -1.1 -1.15 Q-1.05 -0.45 -0.8 -0.45 L-0.75 -0.5 Q-0.75 -1.1 -0.45 -1.2 -0.1 -1.25 -0.1 -0.75 L-0.1 -0.7 0.0 -0.55 Q0.2 -0.55 0.3 -1.3 L0.3 -1.4 0.4 -2.05 0.35 -2.25 Q0.3 -2.25 0.25 -2.3 L0.2 -2.35 0.15 -2.3 0.0 -2.2 -0.05 -2.1 Q-0.25 -1.85 -0.3 -1.85 -0.55 -1.85 -0.65 -1.95 L-0.7 -2.2 -0.7 -2.6 -0.75 -2.8 -0.85 -3.05 -0.85 -3.1 Q-1.05 -2.7 -1.05 -2.3 L-1.1 -2.3 -1.1 -2.4 -1.15 -2.2 -1.2 -2.05 Q-1.3 -2.7 -1.4 -3.1 L-1.4 -3.05 -1.75 -4.1 Q-1.75 -4.6 -1.55 -4.75 L-1.05 -4.9 Q-0.2 -5.05 0.15 -6.15 L0.6 -7.2 Q0.7 -7.45 0.85 -7.65 M1.35 -8.05 L1.35 -8.05 M2.35 -6.8 Q2.2 -6.8 2.2 -6.55 L2.2 -6.45 Q2.25 -6.4 2.4 -6.4 2.55 -6.4 2.6 -6.5 2.7 -6.75 2.75 -6.8 L2.35 -6.8 M4.05 -4.65 L4.05 -4.65 M0.7 -7.25 L0.7 -7.25 M0.5 -2.1 L0.5 -2.1 M0.05 -2.75 L0.1 -2.95 Q0.1 -3.25 -0.15 -3.2 -0.4 -3.2 -0.4 -3.0 L-0.35 -2.8 Q-0.25 -2.6 -0.1 -2.6 0.0 -2.6 0.05 -2.75 M3.2 -2.2 L3.2 -2.2 M3.2 -1.3 L3.2 -1.3 M3.1 -1.8 L3.1 -1.8 M-0.35 -3.4 Q-0.35 -3.55 -0.5 -3.55 -0.6 -3.55 -0.6 -3.4 L-0.6 -3.3 -0.5 -3.25 -0.4 -3.3 -0.35 -3.4 M-1.25 -0.95 L-1.25 -0.95" fill="#ffffff" fill-opacity="0.5019608" fill-rule="evenodd" stroke="none"/>
    </g>
    <g id="shape3" transform="matrix(1.0, 0.0, 0.0, 1.0, 1.75, 8.3)">
      <path d="M0.9 -7.7 L1.05 -7.95 Q1.2 -8.1 1.45 -8.2 L1.7 -8.25 2.05 -8.25 Q2.7 -7.95 2.85 -7.3 3.05 -6.65 3.3 -6.4 L3.85 -6.35 4.0 -6.25 Q4.15 -6.1 4.2 -5.9 L4.2 -5.0 4.05 -4.55 4.0 -4.5 3.95 -4.5 3.9 -4.4 3.85 -4.4 3.85 -4.6 3.9 -4.85 3.8 -5.15 3.65 -5.2 3.2 -5.0 Q3.05 -4.7 2.9 -4.3 2.7 -3.45 2.4 -3.45 L2.35 -3.45 Q2.15 -2.8 2.15 -2.1 2.15 -1.85 2.25 -1.4 L2.25 -1.3 Q2.35 -0.65 2.5 -0.6 2.65 -0.7 2.75 -0.85 L2.8 -0.85 2.85 -1.05 2.95 -1.3 3.0 -1.45 Q3.1 -1.85 3.1 -2.15 L3.1 -2.25 3.15 -2.4 3.2 -2.4 3.25 -1.75 3.3 -1.45 3.3 -1.4 3.25 -1.45 3.35 -1.3 3.4 -1.15 Q3.5 -0.9 3.7 -0.75 3.9 -0.5 4.25 -0.4 L4.3 -0.35 4.3 -0.3 4.25 -0.25 4.2 -0.25 3.9 -0.4 Q3.85 -0.4 3.8 -0.45 L3.85 -0.4 3.8 -0.3 3.6 -0.3 3.3 -0.35 2.75 -0.2 2.7 -0.15 2.45 0.3 Q2.35 0.3 2.35 0.05 L2.35 -0.15 2.3 -0.25 2.25 -0.25 1.55 -0.3 1.2 -0.45 0.35 -0.3 Q0.25 -0.3 0.2 -0.45 0.15 -0.35 0.1 -0.35 L-0.1 -0.25 -0.25 -0.2 -0.25 -0.15 Q-0.35 0.3 -0.45 0.3 -0.6 0.3 -0.65 -0.15 L-0.7 -0.3 -0.8 -0.3 -0.95 -0.25 -1.0 -0.25 Q-1.1 -0.3 -1.2 -0.5 L-1.25 -0.3 -1.25 0.45 Q-1.3 0.75 -1.3 0.45 L-1.3 -0.15 -1.25 -0.25 -1.4 -0.25 -1.5 -0.35 -1.6 -0.2 -1.7 -0.25 -1.5 -0.75 -1.4 -1.3 -1.3 -1.5 -1.3 -1.55 -1.25 -1.6 -1.2 -2.05 -1.15 -2.05 -1.2 -1.95 -1.2 -1.75 -1.15 -1.5 -1.15 -1.6 -1.1 -1.55 -1.1 -1.15 Q-1.05 -0.45 -0.8 -0.45 L-0.75 -0.5 Q-0.75 -1.1 -0.45 -1.2 -0.1 -1.25 -0.1 -0.75 L-0.1 -0.7 0.0 -0.55 Q0.2 -0.55 0.3 -1.3 L0.3 -1.4 0.4 -2.05 0.35 -2.25 Q0.3 -2.25 0.25 -2.3 L0.2 -2.35 0.15 -2.3 0.0 -2.2 -0.05 -2.1 Q-0.25 -1.85 -0.3 -1.85 -0.55 -1.85 -0.65 -1.95 L-0.7 -2.2 -0.7 -2.6 -0.75 -2.8 -0.85 -3.05 -0.85 -3.1 Q-1.05 -2.7 -1.05 -2.3 L-1.1 -2.3 -1.1 -2.4 -1.15 -2.2 -1.2 -2.05 Q-1.3 -2.7 -1.4 -3.1 L-1.4 -3.05 -1.75 -4.1 Q-1.75 -4.6 -1.55 -4.75 L-1.05 -4.9 Q-0.2 -5.05 0.15 -6.15 L0.6 -7.2 Q0.7 -7.45 0.85 -7.65 L0.9 -7.7 M1.35 -8.05 L1.35 -8.05 M2.35 -6.8 Q2.2 -6.8 2.2 -6.55 L2.2 -6.45 Q2.25 -6.4 2.4 -6.4 2.55 -6.4 2.6 -6.5 2.7 -6.75 2.75 -6.8 L2.35 -6.8 M4.05 -4.65 L4.05 -4.65 M0.7 -7.25 L0.7 -7.25 M0.5 -2.1 L0.5 -2.1 M0.05 -2.75 L0.1 -2.95 Q0.1 -3.25 -0.15 -3.2 -0.4 -3.2 -0.4 -3.0 L-0.35 -2.8 Q-0.25 -2.6 -0.1 -2.6 0.0 -2.6 0.05 -2.75 M3.2 -2.2 L3.2 -2.2 M3.2 -1.3 L3.2 -1.3 M3.1 -1.8 L3.1 -1.8 M-0.35 -3.4 Q-0.35 -3.55 -0.5 -3.55 -0.6 -3.55 -0.6 -3.4 L-0.6 -3.3 -0.5 -3.25 -0.4 -3.3 -0.35 -3.4 M-1.25 -0.95 L-1.25 -0.95" fill="#ffffff" fill-opacity="0.5019608" fill-rule="evenodd" stroke="none"/>
    </g>
  </defs>
</svg>
