<?xml version="1.0" encoding="UTF-8" standalone="no"?>
<svg xmlns:ffdec="https://www.free-decompiler.com/flash" xmlns:xlink="http://www.w3.org/1999/xlink" ffdec:objectType="frame" height="170.8px" width="155.4px" xmlns="http://www.w3.org/2000/svg">
  <g transform="matrix(1.0, 0.0, 0.0, 1.0, 87.5, 81.2)">
    <use ffdec:characterId="351" height="24.4" transform="matrix(7.0, 0.0, 0.0, 7.0, -87.5, -81.2)" width="22.2" xlink:href="#shape0"/>
  </g>
  <defs>
    <g id="shape0" transform="matrix(1.0, 0.0, 0.0, 1.0, 12.5, 11.6)">
      <path d="M0.5 -11.55 L0.85 -11.5 1.7 -11.4 Q2.65 -11.4 4.3 -8.9 L4.75 -8.5 Q4.8 -8.3 4.85 -8.15 4.95 -7.85 5.3 -7.6 5.75 -7.25 5.95 -7.0 6.35 -6.5 6.7 -5.55 6.8 -5.3 6.9 -4.45 L7.1 -2.8 7.15 -2.55 7.2 -2.15 7.1 -1.95 7.1 -1.7 Q7.1 -1.3 7.0 -0.75 7.15 -0.05 7.45 0.6 7.7 1.2 8.0 1.6 L8.15 2.2 8.1 2.65 8.0 2.7 Q8.1 3.05 8.25 3.6 8.35 4.35 8.4 5.4 8.45 5.6 8.75 6.15 9.0 6.75 9.05 6.9 L9.0 6.95 9.35 7.3 Q9.65 7.8 9.7 8.0 9.7 8.65 9.55 9.2 9.05 10.9 6.8 11.9 L6.5 12.0 Q4.55 12.8 2.5 12.8 1.5 12.8 0.65 12.65 L-2.6 9.05 -3.4 7.3 -3.6 6.85 -3.85 6.25 -4.05 5.8 -4.45 4.8 -4.8 3.9 -5.1 3.15 -6.85 -8.05 Q-6.1 -9.25 -5.1 -9.9 L-4.8 -10.1 -4.5 -10.25 -3.65 -10.6 -3.2 -10.75 -3.1 -10.8 -2.45 -11.1 -1.9 -11.1 -1.7 -11.15 -1.6 -11.2 -0.85 -11.4 -0.65 -11.5 Q-0.3 -11.6 -0.05 -11.6 L0.4 -11.55 0.5 -11.55 M-0.45 -7.2 L1.15 -7.25 1.4 -7.3 Q2.15 -7.25 3.45 -7.6 L3.9 -7.75 Q4.1 -7.75 4.25 -7.85 L4.05 -8.05 3.75 -8.45 3.05 -9.1 Q2.25 -9.75 1.5 -10.15 L0.9 -10.45 0.2 -10.5 -0.1 -10.5 -0.6 -10.55 -0.8 -10.55 -0.95 -10.5 -1.95 -10.4 Q-2.1 -10.4 -2.6 -10.15 L-4.0 -9.35 -0.45 -7.2 M0.95 -1.7 L2.7 -2.0 4.25 -2.35 4.9 -2.55 5.65 -2.85 5.95 -2.95 6.05 -3.6 6.05 -3.7 6.15 -4.6 6.0 -4.95 5.75 -5.7 Q5.35 -6.45 4.9 -7.15 4.35 -7.3 3.65 -7.3 L3.35 -7.35 1.6 -7.15 1.45 -7.15 0.6 -7.05 -0.3 -6.95 0.95 -1.7 M1.7 -1.35 L2.0 1.1 3.95 0.25 4.3 0.0 4.65 -0.3 4.85 -0.45 5.9 -1.4 6.15 -1.6 6.4 -1.75 6.4 -2.0 Q6.2 -2.15 5.95 -2.15 L4.9 -1.9 4.15 -1.75 4.1 -1.7 3.95 -1.7 3.8 -1.65 3.75 -1.65 1.9 -1.35 1.7 -1.35 M3.65 4.75 L4.9 4.05 5.25 3.85 5.65 3.6 Q7.15 2.45 7.15 1.9 7.1 1.4 6.7 0.65 L6.6 0.45 6.35 0.45 Q6.25 0.4 6.25 0.3 5.8 0.45 5.3 0.55 L4.85 0.65 4.7 0.65 Q4.35 0.7 3.4 0.95 L2.85 1.1 4.15 10.0 4.25 10.4 2.3 12.15 3.85 12.0 3.95 12.0 Q4.05 12.0 4.8 11.65 L5.55 11.25 5.7 11.25 Q6.45 11.2 7.5 10.0 8.5 8.85 8.5 8.45 8.5 8.25 8.3 8.0 L8.25 7.9 7.5 8.55 Q6.2 9.55 5.9 9.55 L5.85 9.55 Q6.8 9.0 8.0 7.7 L8.1 7.15 8.15 7.05 Q8.05 5.5 7.5 4.25 L7.1 3.4 Q6.95 3.1 6.9 2.95 L6.6 2.95 Q6.4 2.95 6.0 3.4 L5.6 3.75 5.3 4.1 5.05 4.3 3.7 4.85 3.65 4.75" fill="#111111" fill-rule="evenodd" stroke="none"/>
      <path d="M-0.1 -10.5 L-0.3 -10.1 Q-0.3 -9.85 -0.15 -9.7 L-0.25 -9.0 -0.45 -7.2 -4.0 -9.35 -2.6 -10.15 Q-2.1 -10.4 -1.95 -10.4 L-0.95 -10.5 -0.8 -10.55 -0.6 -10.55 -0.1 -10.5 M2.0 1.1 L1.7 -1.35 2.0 1.1 M2.85 1.1 L3.65 4.75 3.7 4.85 4.15 10.0 2.85 1.1 M3.85 12.0 L2.3 12.15 4.25 10.4 4.15 10.75 Q3.9 11.3 3.85 12.0" fill="#ff9999" fill-rule="evenodd" stroke="none"/>
      <path d="M-0.1 -10.5 L0.2 -10.5 0.9 -10.45 1.5 -10.15 Q2.25 -9.75 3.05 -9.1 L3.75 -8.45 4.05 -8.05 4.25 -7.85 Q4.1 -7.75 3.9 -7.75 L3.45 -7.6 Q2.15 -7.25 1.4 -7.3 L1.15 -7.25 -0.45 -7.2 -0.25 -9.0 -0.15 -9.7 Q-0.3 -9.85 -0.3 -10.1 L-0.1 -10.5 M-0.3 -6.95 L0.95 -1.7 -0.3 -6.95 M1.7 -1.35 L1.9 -1.35 3.75 -1.65 3.8 -1.65 3.95 -1.7 4.1 -1.7 4.15 -1.75 4.9 -1.9 5.95 -2.15 Q6.2 -2.15 6.4 -2.0 L6.4 -1.75 6.15 -1.6 5.9 -1.4 4.85 -0.45 4.65 -0.3 4.3 0.0 3.95 0.25 2.0 1.1 1.7 -1.35 M2.85 1.1 L3.4 0.95 Q4.35 0.7 4.7 0.65 L4.85 0.65 5.3 0.55 Q5.8 0.45 6.25 0.3 6.25 0.4 6.35 0.45 L6.6 0.45 6.7 0.65 Q7.1 1.4 7.15 1.9 7.15 2.45 5.65 3.6 L5.25 3.85 4.9 4.05 3.65 4.75 2.85 1.1 M3.7 4.85 L5.05 4.3 5.3 4.1 5.6 3.75 6.0 3.4 Q6.4 2.95 6.6 2.95 L6.9 2.95 Q6.95 3.1 7.1 3.4 L7.5 4.25 Q8.05 5.5 8.15 7.05 L8.1 7.15 8.0 7.7 Q6.8 9.0 5.85 9.55 L5.9 9.55 Q6.2 9.55 7.5 8.55 L8.25 7.9 8.3 8.0 Q8.5 8.25 8.5 8.45 8.5 8.85 7.5 10.0 6.45 11.2 5.7 11.25 L5.55 11.25 4.8 11.65 Q4.05 12.0 3.95 12.0 L3.85 12.0 Q3.9 11.3 4.15 10.75 L4.25 10.4 4.15 10.0 3.7 4.85" fill="#b00000" fill-rule="evenodd" stroke="none"/>
      <path d="M-0.3 -6.95 L0.6 -7.05 1.45 -7.15 1.6 -7.15 3.35 -7.35 3.65 -7.3 Q4.35 -7.3 4.9 -7.15 5.35 -6.45 5.75 -5.7 L6.0 -4.95 6.15 -4.6 6.05 -3.7 6.05 -3.6 5.95 -2.95 5.65 -2.85 4.9 -2.55 4.25 -2.35 2.7 -2.0 0.95 -1.7 -0.3 -6.95" fill="#600000" fill-rule="evenodd" stroke="none"/>
      <path d="M-1.45 10.95 L-1.15 11.15 Q-0.75 11.4 -0.5 11.6 1.6 11.85 4.7 9.75 5.35 9.3 5.0 7.7 4.9 7.35 4.9 7.0 4.55 6.0 4.25 4.45 3.85 2.0 3.6 1.0 3.55 0.7 3.45 0.45 L3.45 0.4 3.0 -0.8 2.25 -2.65 1.95 -3.35 1.2 -5.15 Q0.75 -6.3 0.5 -7.0 L0.55 -7.0 Q0.35 -7.3 0.05 -8.0 -0.15 -8.15 -0.45 -8.3 -0.9 -8.55 -1.5 -8.75 L-2.1 -8.95 -3.05 -9.1 -4.45 -9.1 -4.95 -9.05 -5.05 -9.05 Q-5.5 -9.05 -6.15 -8.7 -6.4 -8.5 -6.6 -8.35 -7.35 -7.75 -7.75 -6.75 -7.45 -6.85 -7.2 -6.9 L-5.9 -6.95 -4.0 -7.05 -2.9 -7.0 Q-2.0 -6.95 -1.8 -6.6 -1.55 -6.3 -0.65 -4.05 L0.0 -2.45 0.2 -1.85 0.5 -1.05 1.25 0.85 1.65 2.05 1.9 3.1 1.05 1.0 0.7 0.2 0.3 -0.85 0.15 -1.3 0.0 -1.65 Q-1.35 -4.85 -1.6 -5.2 -2.0 -5.8 -3.9 -6.3 L-4.3 -6.35 Q-3.25 -5.95 -3.05 -5.65 -2.75 -5.25 -2.65 -4.7 -2.55 -4.35 -2.55 -3.9 -2.45 -2.5 -3.15 -1.5 L-3.2 -1.55 Q-3.1 -2.5 -3.05 -3.25 -2.95 -4.5 -3.2 -4.95 L-3.25 -5.05 Q-3.9 -5.95 -4.95 -6.4 L-5.45 -6.35 Q-6.05 -6.2 -7.05 -5.8 L-8.15 -5.3 -8.8 -5.0 -9.25 -4.7 Q-10.05 -4.15 -10.5 -3.65 L-10.8 -3.25 -11.0 -3.0 -11.0 -2.95 Q-9.6 -1.65 -8.35 -1.05 L-8.4 -1.05 -8.1 -0.9 -8.05 -0.9 Q-6.95 -0.4 -5.85 -0.3 -5.25 -0.25 -4.6 -0.3 L-3.7 -0.45 Q-4.6 0.7 -4.2 2.0 L-4.15 2.2 Q-4.05 2.6 -4.05 2.9 L-3.95 3.15 -3.7 3.75 -3.15 4.95 -3.0 5.4 -2.9 5.5 Q-1.9 7.95 -1.7 8.75 -1.55 8.8 -1.45 8.9 -1.2 8.95 -0.95 9.05 0.6 9.55 1.95 8.6 L2.1 8.5 Q2.95 7.85 3.05 7.0 L3.05 6.7 Q3.05 6.65 3.05 6.6 L3.05 6.55 Q3.2 7.05 3.35 7.4 3.55 7.85 3.7 8.15 L3.15 8.6 Q2.2 9.25 0.95 9.4 L0.9 9.4 Q0.3 9.5 -0.35 9.4 L-1.8 9.25 -2.05 9.3 -2.3 9.15 Q-2.2 9.45 -2.15 10.25 L-2.0 10.45 -1.65 10.8 -1.45 10.95 M3.5 -1.25 L3.5 -1.2 4.0 0.2 Q4.5 1.5 4.8 2.6 5.1 5.0 5.85 7.6 L6.2 9.35 Q5.7 10.2 4.2 11.25 1.95 12.8 -0.1 12.8 L-1.05 12.75 Q-2.1 12.55 -2.55 11.9 -2.9 11.45 -2.85 10.95 -2.8 10.65 -2.8 10.4 L-2.8 10.35 -2.85 10.35 Q-3.0 10.1 -3.1 8.65 -3.2 7.15 -4.0 5.75 -4.5 4.7 -4.75 3.85 L-4.85 3.55 -5.0 3.3 -5.1 3.15 Q-5.4 2.6 -6.0 0.6 -6.1 0.45 -6.35 0.45 -6.6 0.5 -6.7 0.35 -6.9 0.0 -9.6 -1.1 -12.2 -2.2 -12.35 -2.35 -12.55 -2.7 -12.45 -2.8 -11.25 -4.4 -9.75 -5.6 L-9.55 -5.75 -9.55 -5.8 Q-9.4 -5.9 -9.0 -6.7 -8.55 -7.5 -7.0 -8.65 L-5.95 -9.4 -5.9 -9.45 -4.95 -9.7 -4.65 -9.8 -4.45 -9.75 -4.3 -9.75 Q-3.25 -9.95 -2.4 -9.9 -1.8 -9.9 -1.35 -9.75 L-1.0 -9.7 Q0.3 -9.5 0.4 -9.4 2.0 -5.35 3.5 -1.25 M2.3 4.45 L2.45 4.45 Q2.65 5.1 2.95 6.25 2.35 5.0 2.3 4.45" fill="#111111" fill-rule="evenodd" stroke="none"/>
      <path d="M-1.65 10.8 L-2.0 10.45 -2.15 10.25 Q-2.2 9.45 -2.3 9.15 L-2.05 9.3 -1.8 9.25 -0.35 9.4 Q0.3 9.5 0.9 9.4 L0.85 9.45 Q0.0 9.85 -0.4 10.1 -1.15 10.55 -1.65 10.8 M-1.45 8.9 Q-1.55 8.8 -1.7 8.75 -1.9 7.95 -2.9 5.5 L-3.0 5.4 -3.05 5.15 -2.9 4.7 Q-2.65 4.05 -2.25 3.75 L-2.15 3.75 Q-2.15 3.85 -2.15 4.05 -2.2 4.8 -1.65 6.95 -1.35 8.1 -1.45 8.9 M-10.8 -3.25 L-10.5 -3.65 Q-10.05 -4.15 -9.25 -4.7 L-8.8 -5.0 -6.55 -4.6 -6.6 -4.5 -6.5 -4.5 -6.5 -4.35 Q-6.8 -4.35 -8.15 -3.9 -9.5 -3.4 -10.15 -3.3 L-10.8 -3.25 M-8.15 -5.3 L-7.05 -5.8 Q-6.05 -6.2 -5.45 -6.35 -5.05 -6.2 -4.9 -5.95 -4.7 -5.7 -4.65 -5.3 -5.05 -5.45 -6.7 -5.3 -7.6 -5.2 -8.15 -5.3 M-7.2 -6.9 Q-7.45 -6.85 -7.75 -6.75 -7.35 -7.75 -6.6 -8.35 -6.4 -8.5 -6.15 -8.7 -5.5 -9.05 -5.05 -9.05 L-4.95 -9.05 -4.45 -9.1 -3.05 -9.1 -2.1 -8.95 -1.5 -8.75 Q-0.9 -8.55 -0.45 -8.3 L-0.5 -8.05 -0.9 -8.0 Q-1.45 -7.95 -2.35 -8.05 L-3.65 -8.0 -4.5 -7.8 Q-5.2 -7.65 -7.2 -6.9 M-3.35 3.45 Q-3.35 2.9 -3.2 2.5 L-3.05 2.25 -2.9 2.15 Q-2.7 2.0 -2.4 2.0 -2.1 2.5 -2.75 3.6 L-3.1 3.65 -3.35 3.45 M-1.95 -0.6 Q-2.2 -1.05 -1.85 -1.25 -1.6 -1.45 -1.2 -1.35 -1.45 -0.95 -1.95 -0.55 L-1.95 -0.6" fill="#d0f0f0" fill-rule="evenodd" stroke="none"/>
      <path d="M-1.45 10.95 L-1.65 10.8 Q-1.15 10.55 -0.4 10.1 0.0 9.85 0.85 9.45 L0.9 9.4 0.95 9.4 Q2.2 9.25 3.15 8.6 L3.7 8.15 Q3.55 7.85 3.35 7.4 3.35 6.25 2.45 3.95 2.05 3.0 1.65 2.05 L1.25 0.85 0.5 -1.05 0.2 -1.85 0.0 -2.45 -0.65 -4.05 Q-1.55 -6.3 -1.8 -6.6 -2.0 -6.95 -2.9 -7.0 L-4.0 -7.05 -5.9 -6.95 -7.2 -6.9 Q-5.2 -7.65 -4.5 -7.8 L-3.65 -8.0 -2.35 -8.05 Q-1.45 -7.95 -0.9 -8.0 L-0.5 -8.05 -0.45 -8.3 Q-0.15 -8.15 0.05 -8.0 L0.0 -7.85 Q-0.15 -7.45 -0.05 -6.85 0.05 -6.05 0.5 -4.85 L1.0 -3.35 0.9 -3.6 Q1.0 -2.75 1.3 -1.75 L1.45 -1.3 2.0 0.15 2.8 2.3 Q3.05 3.5 3.65 6.95 4.0 8.7 4.15 9.55 1.6 11.05 -1.45 10.95 M2.1 8.5 L1.95 8.6 Q0.6 9.55 -0.95 9.05 -1.2 8.95 -1.45 8.9 -1.35 8.1 -1.65 6.95 -2.2 4.8 -2.15 4.05 -2.15 3.85 -2.15 3.75 L-2.25 3.75 Q-2.65 4.05 -2.9 4.7 L-3.05 5.15 -3.0 5.4 -3.15 4.95 -3.7 3.75 Q-3.5 3.3 -3.35 2.55 L-3.1 1.25 -2.85 -0.25 Q-2.3 -4.25 -2.45 -4.55 L-2.65 -4.7 Q-2.75 -5.25 -3.05 -5.65 -3.25 -5.95 -4.3 -6.35 L-3.9 -6.3 Q-2.0 -5.8 -1.6 -5.2 -1.35 -4.85 0.0 -1.65 L0.15 -1.3 0.3 -0.85 0.7 0.2 Q0.5 -0.1 0.5 0.0 L0.45 0.05 0.75 1.3 Q1.15 3.0 1.5 5.4 L1.55 5.9 1.45 5.95 Q1.2 6.2 0.55 7.35 L1.55 7.4 1.8 7.45 1.95 8.35 2.1 8.5 M-4.6 -0.3 Q-5.25 -0.25 -5.85 -0.3 -6.95 -0.4 -8.05 -0.9 L-8.1 -0.9 -8.4 -1.05 -8.35 -1.05 -7.2 -1.1 -6.9 -1.35 Q-6.05 -2.05 -5.6 -2.1 L-5.9 -1.2 Q-5.9 -1.15 -5.95 -1.1 -6.1 -1.1 -6.2 -1.1 -5.25 -1.05 -4.9 -0.85 -4.25 -1.75 -3.7 -2.15 L-4.3 -0.8 -4.6 -0.3 M-11.0 -3.0 L-10.8 -3.25 -10.15 -3.3 Q-9.5 -3.4 -8.15 -3.9 -6.8 -4.35 -6.5 -4.35 L-6.5 -4.5 -6.6 -4.5 -6.55 -4.6 -8.8 -5.0 -8.15 -5.3 Q-7.6 -5.2 -6.7 -5.3 -5.05 -5.45 -4.65 -5.3 -4.7 -5.7 -4.9 -5.95 -5.05 -6.2 -5.45 -6.35 L-4.95 -6.4 Q-3.9 -5.95 -3.25 -5.05 L-3.2 -4.95 -3.25 -4.95 -4.25 -3.75 Q-4.7 -3.4 -9.5 -3.15 L-11.0 -3.0 M0.05 1.4 L-0.05 1.2 Q-0.3 0.85 -0.25 1.0 -0.7 1.1 -0.85 1.75 L-0.6 1.9 Q-0.45 1.9 -0.2 1.75 L0.0 1.5 0.05 1.4 M-7.85 -2.05 L-7.45 -1.95 -7.8 -1.6 Q-8.0 -1.45 -8.1 -1.55 L-8.25 -1.65 Q-8.3 -1.85 -8.2 -2.05 L-7.85 -2.05 M-1.95 -0.6 L-1.95 -0.55 Q-1.45 -0.95 -1.2 -1.35 -1.6 -1.45 -1.85 -1.25 -2.2 -1.05 -1.95 -0.6 M-3.35 3.45 L-3.1 3.65 -2.75 3.6 Q-2.1 2.5 -2.4 2.0 -2.7 2.0 -2.9 2.15 L-3.05 2.25 -3.2 2.5 Q-3.35 2.9 -3.35 3.45 M-1.3 4.9 Q-1.5 5.2 -1.3 5.7 -0.65 5.05 -0.6 4.75 -1.15 4.55 -1.3 4.9" fill="#80c0f0" fill-rule="evenodd" stroke="none"/>
      <path d="M0.05 -8.0 Q0.35 -7.3 0.55 -7.0 L0.5 -7.0 Q0.75 -6.3 1.2 -5.15 L1.95 -3.35 2.25 -2.65 3.0 -0.8 3.45 0.4 3.45 0.45 Q3.55 0.7 3.6 1.0 3.85 2.0 4.25 4.45 4.55 6.0 4.9 7.0 4.9 7.35 5.0 7.7 5.35 9.3 4.7 9.75 1.6 11.85 -0.5 11.6 -0.75 11.4 -1.15 11.15 L-1.45 10.95 Q1.6 11.05 4.15 9.55 4.0 8.7 3.65 6.95 3.05 3.5 2.8 2.3 L2.0 0.15 1.45 -1.3 1.3 -1.75 Q1.0 -2.75 0.9 -3.6 L1.0 -3.35 0.5 -4.85 Q0.05 -6.05 -0.05 -6.85 -0.15 -7.45 0.0 -7.85 L0.05 -8.0 M3.35 7.4 Q3.2 7.05 3.05 6.55 L3.05 6.6 Q3.05 6.65 3.05 6.7 L3.05 7.0 Q2.95 7.85 2.1 8.5 L1.95 8.35 1.8 7.45 1.55 7.4 0.55 7.35 Q1.2 6.2 1.45 5.95 L1.55 5.9 1.5 5.4 Q1.15 3.0 0.75 1.3 L0.45 0.05 0.5 0.0 Q0.5 -0.1 0.7 0.2 L1.05 1.0 1.9 3.1 1.65 2.05 Q2.05 3.0 2.45 3.95 3.35 6.25 3.35 7.4 M-3.7 3.75 L-3.95 3.15 -4.05 2.9 Q-4.05 2.6 -4.15 2.2 L-4.2 2.0 Q-4.6 0.7 -3.7 -0.45 L-4.6 -0.3 -4.3 -0.8 -3.7 -2.15 Q-4.25 -1.75 -4.9 -0.85 -5.25 -1.05 -6.2 -1.1 -6.1 -1.1 -5.95 -1.1 -5.9 -1.15 -5.9 -1.2 L-5.6 -2.1 Q-6.05 -2.05 -6.9 -1.35 L-7.2 -1.1 -8.35 -1.05 Q-9.6 -1.65 -11.0 -2.95 L-11.0 -3.0 -9.5 -3.15 Q-4.7 -3.4 -4.25 -3.75 L-3.25 -4.95 -3.2 -4.95 Q-2.95 -4.5 -3.05 -3.25 -3.1 -2.5 -3.2 -1.55 L-3.15 -1.5 Q-2.45 -2.5 -2.55 -3.9 -2.55 -4.35 -2.65 -4.7 L-2.45 -4.55 Q-2.3 -4.25 -2.85 -0.25 L-3.1 1.25 -3.35 2.55 Q-3.5 3.3 -3.7 3.75 M0.05 1.4 L0.0 1.5 -0.2 1.75 Q-0.45 1.9 -0.6 1.9 L-0.85 1.75 Q-0.7 1.1 -0.25 1.0 -0.3 0.85 -0.05 1.2 L0.05 1.4 M2.3 4.45 Q2.35 5.0 2.95 6.25 2.65 5.1 2.45 4.45 L2.3 4.45 M-7.85 -2.05 L-8.2 -2.05 Q-8.3 -1.85 -8.25 -1.65 L-8.1 -1.55 Q-8.0 -1.45 -7.8 -1.6 L-7.45 -1.95 -7.85 -2.05 M-1.3 4.9 Q-1.15 4.55 -0.6 4.75 -0.65 5.05 -1.3 5.7 -1.5 5.2 -1.3 4.9" fill="#0070e0" fill-rule="evenodd" stroke="none"/>
    </g>
  </defs>
</svg>
