<?xml version="1.0" encoding="UTF-8" standalone="no"?>
<svg xmlns:ffdec="https://www.free-decompiler.com/flash" xmlns:xlink="http://www.w3.org/1999/xlink" ffdec:objectType="frame" height="565.05px" width="682.65px" xmlns="http://www.w3.org/2000/svg">
  <g transform="matrix(1.0, 0.0, 0.0, 1.0, 386.85, 713.55)">
    <use ffdec:characterId="717" height="253.6" transform="matrix(1.0, 0.0, 0.0, 1.0, -300.15, -409.35)" width="584.3" xlink:href="#shape0"/>
    <use ffdec:characterId="718" height="147.05" transform="matrix(1.0, 0.0, 0.1653, 1.2097, -312.9453, -537.8499)" width="347.05" xlink:href="#shape1"/>
    <use ffdec:characterId="719" height="242.15" transform="matrix(1.0, 0.0, 0.1653, 1.2097, -339.7094, -681.7439)" width="365.05" xlink:href="#shape2"/>
  </g>
  <defs>
    <g id="shape0" transform="matrix(1.0, 0.0, 0.0, 1.0, 300.15, 409.35)">
      <path d="M18.6 -405.85 Q18.9 -406.15 19.3 -406.1 L21.0 -406.0 21.3 -405.95 Q22.1 -405.75 22.95 -404.25 L23.0 -404.15 23.45 -403.15 26.95 -403.15 27.0 -403.15 29.85 -402.75 29.8 -402.75 30.35 -402.4 31.55 -399.9 31.5 -399.95 31.5 -399.2 31.55 -399.2 31.45 -399.0 31.6 -398.95 31.55 -398.95 32.1 -398.45 32.1 -398.4 33.35 -395.0 Q35.5 -388.75 35.5 -387.85 L35.5 -387.8 Q35.5 -386.15 35.3 -385.7 L35.3 -385.75 35.3 -385.7 Q34.85 -384.55 32.75 -383.1 L32.8 -383.1 32.45 -382.95 Q28.65 -382.05 26.95 -379.45 L26.9 -379.4 Q25.15 -375.65 23.2 -373.4 L22.85 -373.15 22.9 -373.15 22.45 -373.05 Q19.45 -373.1 17.7 -372.15 L17.55 -372.05 14.55 -369.55 14.55 -369.5 Q14.35 -369.35 14.1 -369.3 L13.65 -369.3 14.55 -370.7 14.3 -371.65 14.0 -371.9 12.6 -371.6 14.0 -372.95 16.65 -375.25 16.65 -375.3 17.0 -375.5 17.05 -375.55 17.45 -375.6 Q21.9 -375.2 23.65 -378.35 L23.75 -378.45 25.2 -381.5 25.25 -381.65 Q26.4 -383.85 28.05 -384.95 L28.25 -385.05 29.75 -385.35 31.35 -385.35 Q31.95 -385.45 32.5 -386.6 L32.95 -388.0 32.3 -389.05 Q31.3 -390.65 31.35 -391.45 31.35 -392.9 30.85 -394.3 30.5 -395.15 30.2 -397.75 L30.25 -398.5 30.3 -398.6 29.7 -399.05 29.75 -399.05 28.7 -400.15 26.85 -400.45 26.8 -400.45 22.25 -400.4 Q21.85 -400.4 21.55 -400.65 L21.2 -401.3 20.8 -402.85 20.45 -403.45 Q19.2 -403.45 19.0 -402.9 L19.45 -401.15 19.45 -401.1 19.45 -401.05 Q19.55 -399.1 15.65 -397.0 12.7 -395.4 11.35 -395.4 10.95 -395.4 10.65 -395.65 10.35 -395.9 10.3 -396.3 L10.3 -396.35 10.55 -397.05 Q11.35 -398.05 12.95 -399.05 L12.95 -399.0 Q14.3 -399.95 15.2 -400.25 16.6 -400.7 16.8 -401.05 L16.4 -402.35 Q16.3 -402.55 16.35 -402.8 L16.5 -403.25 17.1 -404.15 17.15 -404.2 17.2 -404.25 18.55 -405.85 18.6 -405.85 M284.15 -178.65 Q284.2 -177.35 283.2 -176.0 L283.15 -175.9 281.7 -174.65 Q281.8 -174.3 282.05 -174.05 L282.05 -174.0 282.3 -173.4 282.1 -172.75 Q281.6 -172.05 280.75 -171.95 L280.7 -171.95 280.25 -172.0 279.85 -172.3 279.85 -172.25 278.85 -173.75 Q278.45 -174.6 278.5 -174.95 278.5 -177.2 279.1 -177.4 L280.7 -178.55 280.75 -178.55 280.6 -178.6 280.45 -178.7 Q279.1 -180.0 279.2 -181.05 L279.15 -182.6 278.25 -182.75 275.2 -180.25 Q272.65 -178.45 270.05 -178.75 269.7 -178.8 269.45 -179.05 L269.15 -179.65 269.15 -179.8 Q268.9 -180.35 268.9 -181.25 L269.15 -181.85 269.15 -181.9 Q269.35 -182.2 269.7 -182.25 L271.2 -182.1 274.55 -182.6 Q275.5 -183.25 275.4 -184.0 275.05 -184.9 276.2 -185.35 L277.25 -185.55 280.3 -185.45 280.9 -185.2 280.85 -185.2 Q281.6 -184.6 281.85 -183.15 L281.85 -183.05 282.05 -181.4 Q282.15 -180.95 282.9 -180.3 L282.9 -180.25 283.8 -179.4 283.85 -179.4 284.05 -179.05 284.15 -178.65 M259.55 -165.25 L259.55 -165.2 259.85 -165.6 Q260.45 -166.05 261.9 -165.9 L263.65 -165.65 Q263.8 -166.8 264.05 -167.25 L264.1 -167.3 Q265.15 -169.55 268.65 -168.85 L268.7 -168.8 Q269.0 -168.75 269.2 -168.5 L269.25 -168.45 269.45 -167.9 269.5 -166.25 269.3 -165.6 268.75 -165.2 268.7 -165.2 266.95 -165.0 Q266.75 -163.65 265.1 -162.8 263.7 -162.05 262.25 -162.6 L262.25 -162.15 263.5 -162.15 264.2 -161.85 265.55 -160.35 266.35 -159.7 266.55 -160.1 266.7 -160.25 Q267.25 -161.1 268.3 -161.1 269.9 -161.1 271.15 -160.15 L271.25 -160.05 Q272.5 -159.05 272.4 -158.1 L272.4 -157.3 272.2 -156.7 272.15 -156.6 Q271.9 -155.95 270.9 -155.75 L270.15 -155.9 Q269.8 -156.15 269.75 -156.5 L269.55 -157.15 268.95 -156.75 Q267.9 -156.0 266.85 -156.0 265.1 -155.95 263.6 -157.9 L262.85 -159.15 260.9 -159.35 260.55 -159.45 260.5 -159.5 260.2 -159.75 259.6 -160.55 259.4 -161.15 259.4 -164.75 259.55 -165.25 M-29.75 -409.35 Q-26.9 -408.85 -23.55 -407.05 -19.75 -405.15 -19.55 -403.75 L-19.45 -402.1 -19.2 -400.7 -19.25 -400.8 -19.2 -400.75 -19.2 -400.7 -18.45 -399.35 -18.4 -399.2 Q-17.95 -398.15 -17.95 -397.15 -17.95 -395.6 -18.6 -394.65 L-18.35 -392.8 -18.35 -392.7 -18.5 -389.6 Q-18.5 -389.2 -18.8 -388.9 -19.05 -388.65 -19.4 -388.6 L-19.8 -388.35 -20.05 -388.2 -20.1 -388.2 Q-21.15 -387.7 -22.15 -388.95 L-22.75 -388.95 Q-24.05 -387.9 -24.65 -385.95 L-24.65 -385.8 -25.3 -382.5 Q-26.0 -383.35 -27.2 -383.8 -29.45 -384.7 -29.85 -381.8 L-30.35 -381.8 Q-30.7 -381.8 -31.0 -382.05 L-31.45 -382.45 -31.8 -383.05 -31.8 -383.1 -31.6 -383.8 Q-30.8 -384.9 -30.95 -386.15 L-31.3 -387.65 -31.35 -387.95 Q-31.35 -390.7 -29.55 -391.95 L-29.5 -392.0 Q-27.55 -393.45 -26.5 -395.4 L-26.45 -395.4 -26.1 -395.8 -25.6 -395.95 -21.6 -395.95 -21.6 -396.1 -21.5 -396.7 -21.15 -397.25 -20.6 -397.45 -21.75 -399.75 -21.8 -399.8 -21.85 -399.85 -21.85 -399.9 -22.1 -402.65 -25.2 -404.65 -28.5 -406.65 -29.6 -406.55 -32.1 -403.15 -32.2 -403.05 Q-33.45 -401.25 -34.85 -400.05 L-34.95 -399.45 -35.1 -399.05 -35.4 -398.75 -35.7 -398.55 -35.9 -398.45 -37.05 -398.1 -37.4 -397.85 -37.7 -397.7 -37.75 -397.7 Q-38.7 -397.55 -39.15 -398.25 -39.5 -398.6 -39.5 -399.45 L-39.5 -399.5 -39.45 -399.7 -39.5 -400.3 -39.3 -400.85 -39.3 -400.8 -38.85 -401.2 -38.85 -401.25 -38.25 -401.45 -38.15 -401.45 -37.55 -401.5 -36.95 -401.85 -30.7 -408.95 -30.7 -409.0 -30.3 -409.3 -29.75 -409.35 M-21.55 -393.35 L-21.65 -393.35 -24.9 -393.15 -27.1 -390.75 -27.2 -390.65 -28.7 -388.8 -28.1 -387.55 -28.05 -387.4 -27.05 -386.1 -26.6 -387.1 Q-24.85 -390.45 -23.65 -391.45 L-22.9 -391.7 -21.2 -391.4 Q-20.95 -391.7 -21.05 -392.1 L-21.4 -392.9 -21.4 -392.95 -21.45 -393.05 -21.45 -393.0 -21.55 -393.35 M-46.85 -325.1 L-46.8 -325.2 -45.65 -327.1 -45.1 -327.4 -36.4 -328.75 -34.75 -330.0 Q-33.5 -331.0 -33.35 -331.7 L-33.05 -332.35 Q-32.8 -332.6 -32.4 -332.65 L-30.8 -332.85 -30.8 -334.45 -30.6 -335.0 -30.6 -334.95 -30.2 -335.35 -30.35 -334.45 Q-30.35 -332.2 -28.1 -332.2 -27.15 -332.2 -26.5 -332.55 -26.55 -332.05 -27.35 -331.15 L-27.0 -331.1 -26.95 -331.1 -26.4 -330.75 -26.05 -330.2 -25.35 -330.1 -25.3 -330.05 -24.9 -329.85 -24.85 -329.85 -24.6 -329.45 Q-24.0 -328.0 -23.55 -325.8 -23.2 -323.85 -23.2 -322.6 -23.2 -321.6 -23.55 -320.75 L-23.6 -320.6 -24.3 -319.45 -24.7 -319.1 -25.25 -319.0 Q-26.55 -319.15 -27.15 -319.9 L-27.2 -319.95 Q-27.7 -320.45 -27.95 -321.45 L-29.8 -321.6 -30.4 -321.9 -30.4 -321.85 -30.7 -322.5 Q-30.8 -323.25 -31.45 -324.25 L-32.3 -324.7 Q-44.65 -323.65 -45.75 -319.4 L-45.75 -319.45 Q-45.9 -318.25 -48.2 -315.4 -50.2 -313.0 -50.5 -311.9 L-50.45 -311.9 -50.8 -311.35 -50.8 -311.4 -51.4 -311.15 -52.6 -311.1 -53.0 -311.05 -53.4 -311.15 Q-54.1 -311.3 -54.1 -313.0 -54.2 -315.9 -50.8 -317.35 -48.85 -318.25 -48.75 -319.75 -49.35 -319.9 -49.6 -320.1 -50.25 -320.5 -50.05 -321.0 L-49.75 -321.6 -47.25 -323.5 -46.85 -325.1 M-32.15 -328.55 L-32.25 -328.45 -33.8 -327.1 -30.1 -326.65 -29.6 -326.35 Q-28.65 -325.25 -28.25 -324.35 L-26.5 -324.15 -26.45 -324.15 -26.2 -324.05 Q-26.35 -325.65 -26.85 -327.3 L-27.85 -327.6 Q-28.15 -327.7 -28.35 -327.95 L-28.55 -328.45 -29.3 -328.55 Q-29.7 -328.6 -29.95 -328.95 L-30.6 -329.8 -30.65 -329.9 -30.7 -329.9 -32.15 -328.55 M-123.7 -350.3 L-123.65 -350.3 -122.95 -350.15 -122.5 -349.5 -122.55 -349.55 Q-122.4 -349.1 -122.4 -347.7 L-123.2 -344.4 -123.95 -341.25 Q-123.9 -339.95 -122.5 -337.35 -121.35 -335.05 -120.9 -334.9 -119.15 -334.9 -118.45 -333.6 L-118.45 -333.65 -117.85 -332.85 Q-114.35 -332.35 -113.15 -331.7 L-110.4 -330.5 -110.0 -330.3 -109.75 -330.0 Q-108.5 -327.35 -108.5 -324.95 -108.5 -323.6 -109.4 -322.95 L-109.7 -322.75 -109.75 -322.7 -109.75 -322.65 -110.3 -322.35 -110.85 -322.2 -110.8 -322.2 -111.4 -322.2 -111.35 -322.2 Q-111.65 -322.25 -111.85 -322.45 L-111.9 -322.5 -112.1 -323.05 Q-112.2 -324.1 -111.65 -326.3 -111.55 -327.5 -112.5 -328.15 L-112.7 -328.2 Q-114.65 -329.3 -118.3 -330.65 L-122.35 -331.95 Q-122.65 -331.95 -122.85 -332.1 L-123.2 -332.45 -123.25 -332.5 -124.85 -336.15 -125.6 -338.1 -126.8 -336.65 -126.9 -336.55 Q-128.25 -334.85 -131.6 -334.0 L-131.4 -332.75 Q-131.4 -331.55 -131.9 -330.8 L-131.95 -330.75 -132.0 -330.7 -132.05 -330.65 -132.4 -330.15 -132.4 -330.2 Q-132.55 -329.9 -132.85 -329.75 L-133.45 -329.65 -134.35 -329.8 Q-134.7 -329.85 -134.95 -330.15 L-135.2 -330.75 -135.2 -330.8 -134.85 -332.35 -134.8 -332.4 -134.65 -333.4 -135.45 -334.4 Q-136.9 -336.05 -136.75 -336.7 -136.75 -337.9 -136.4 -338.1 -136.05 -338.55 -135.6 -338.45 L-135.55 -338.45 Q-135.2 -338.55 -134.8 -338.1 L-134.65 -337.9 -133.9 -337.35 -133.8 -337.25 -133.25 -336.75 -130.25 -336.75 -129.7 -337.5 -129.6 -337.65 -129.25 -338.5 -129.25 -338.55 -129.1 -339.1 -128.65 -339.45 -128.65 -339.5 -127.9 -339.8 Q-127.25 -341.4 -126.15 -345.15 -124.95 -349.05 -124.3 -349.9 L-124.3 -349.85 -123.7 -350.3 M-81.8 -233.75 L-80.85 -233.55 Q-80.6 -233.55 -80.4 -233.75 L-80.3 -233.9 Q-79.35 -234.95 -78.4 -234.85 L-78.35 -234.85 -77.95 -234.75 -77.6 -234.45 -77.35 -234.1 -77.15 -233.45 -77.4 -232.85 -78.55 -231.1 -78.9 -230.6 -78.9 -230.65 -79.45 -230.45 -81.15 -230.45 -81.15 -229.9 -81.05 -229.6 -81.0 -229.55 -79.75 -228.3 -79.55 -227.8 -79.65 -227.25 -80.0 -226.75 -80.05 -226.75 -80.15 -226.65 -80.15 -226.6 -81.5 -226.2 -81.9 -226.25 -82.25 -226.45 Q-84.65 -228.5 -84.5 -229.75 L-84.15 -231.7 -83.95 -232.9 -83.95 -232.95 -83.85 -233.4 Q-83.65 -233.95 -83.0 -234.0 L-81.95 -233.85 -81.8 -233.75 M-296.45 -297.05 L-296.1 -296.4 -296.0 -295.55 -296.05 -295.15 -296.05 -295.2 -297.55 -288.45 -297.8 -287.95 -297.8 -287.9 -298.3 -287.65 -298.3 -287.7 -298.85 -287.55 -298.8 -287.55 -299.55 -287.6 -300.0 -288.1 -300.05 -288.15 -300.05 -288.85 Q-299.8 -289.5 -299.3 -292.85 -298.85 -296.05 -297.8 -297.0 L-297.15 -297.3 -296.45 -297.05 M-291.8 -287.35 L-291.65 -286.6 -291.65 -286.2 Q-292.75 -280.65 -292.75 -277.95 L-292.95 -277.35 -292.95 -277.3 Q-293.15 -277.05 -293.5 -277.0 L-294.05 -276.85 -294.0 -276.85 -294.6 -276.85 -295.05 -277.1 -295.1 -277.15 -295.3 -277.7 Q-295.5 -279.8 -295.05 -283.0 -294.55 -286.65 -293.6 -287.75 L-293.55 -287.75 Q-293.35 -288.1 -292.95 -288.15 L-292.9 -288.15 -292.2 -287.95 -291.8 -287.35 M-208.15 -261.05 L-208.15 -261.0 -208.15 -260.4 -208.45 -259.95 Q-208.7 -259.75 -209.0 -259.7 L-209.6 -259.6 Q-208.65 -258.45 -208.65 -257.35 L-208.7 -256.95 -208.85 -256.55 -209.35 -256.0 -210.1 -255.95 Q-212.3 -256.65 -212.75 -257.75 L-212.75 -257.8 Q-212.95 -258.1 -212.95 -260.35 -212.95 -261.55 -212.5 -262.6 -211.95 -264.0 -211.15 -264.15 L-210.55 -264.15 -210.1 -263.85 Q-208.45 -261.95 -208.15 -261.05" fill="#66ff66" fill-opacity="0.5294118" fill-rule="evenodd" stroke="none"/>
      <path d="M19.25 -405.1 L20.95 -405.0 Q21.5 -404.8 22.1 -403.65 L22.65 -402.15 26.95 -402.15 29.55 -401.8 30.6 -399.55 Q30.05 -400.55 29.15 -401.05 L26.9 -401.45 22.2 -401.4 21.7 -403.25 Q21.2 -404.45 20.55 -404.45 17.95 -404.45 17.95 -402.85 L18.45 -401.15 Q18.45 -399.65 15.2 -397.9 12.5 -396.45 11.3 -396.4 12.05 -397.3 13.5 -398.2 14.7 -399.05 15.5 -399.3 17.8 -400.05 17.8 -401.0 L17.35 -402.7 17.95 -403.6 19.25 -405.1 M31.15 -398.05 L32.4 -394.65 Q34.5 -388.6 34.5 -387.85 L34.35 -386.1 Q34.0 -385.15 32.2 -383.9 27.95 -382.9 26.1 -380.0 24.35 -376.25 22.45 -374.05 19.05 -374.1 17.05 -372.95 16.05 -372.4 13.85 -370.25 L13.05 -370.45 14.65 -372.2 17.35 -374.6 Q22.55 -374.15 24.55 -377.9 L26.15 -381.2 Q27.15 -383.15 28.6 -384.1 L29.85 -384.35 31.35 -384.35 Q32.55 -384.35 33.4 -386.2 L33.95 -388.05 33.15 -389.6 Q32.35 -390.85 32.35 -391.45 32.35 -393.05 31.8 -394.65 L31.2 -397.9 31.15 -398.05 M270.9 -180.95 L270.9 -180.7 271.3 -181.1 274.85 -181.6 Q276.7 -182.7 276.4 -184.2 L280.2 -184.45 Q280.7 -184.0 280.85 -183.0 L281.05 -181.25 Q281.15 -180.5 282.2 -179.55 L283.15 -178.65 Q283.15 -177.6 282.35 -176.55 281.5 -175.5 280.6 -175.35 280.6 -174.1 281.3 -173.35 281.05 -173.0 280.6 -172.95 280.1 -173.5 279.75 -174.2 L279.5 -174.9 Q279.5 -176.45 279.7 -176.65 L282.35 -178.5 281.15 -179.45 Q280.2 -180.35 280.2 -181.05 L280.05 -183.45 277.95 -183.8 Q275.85 -181.95 274.6 -181.05 272.4 -179.5 270.15 -179.75 L270.4 -180.05 270.15 -180.05 Q269.9 -180.45 269.9 -181.25 270.7 -181.4 270.9 -180.95 M260.4 -161.15 L260.4 -164.75 261.85 -164.9 264.55 -164.5 Q264.65 -166.25 264.95 -166.8 265.8 -168.4 268.45 -167.85 L268.5 -166.2 265.95 -166.15 265.95 -165.45 Q265.95 -164.35 264.65 -163.7 263.25 -163.0 261.85 -163.95 L261.35 -163.9 261.25 -162.85 261.3 -161.7 261.45 -161.15 263.5 -161.15 264.8 -159.7 Q265.6 -158.8 266.75 -158.4 L267.45 -159.6 Q267.75 -160.1 268.3 -160.1 269.6 -160.1 270.6 -159.3 271.4 -158.65 271.4 -158.1 L271.4 -157.3 271.25 -157.3 Q271.25 -156.85 270.7 -156.75 270.4 -158.0 269.9 -158.5 L268.35 -157.55 Q267.6 -157.0 266.85 -157.0 265.55 -157.0 264.4 -158.5 L263.5 -160.1 261.0 -160.35 260.4 -161.15 M-37.35 -400.45 L-36.25 -401.05 -29.95 -408.35 Q-27.2 -407.85 -24.0 -406.15 -20.8 -404.55 -20.55 -403.55 L-20.45 -402.05 -20.1 -400.3 -19.35 -398.9 Q-18.95 -398.0 -18.95 -397.15 -18.95 -395.65 -19.7 -394.95 L-19.65 -394.7 Q-19.35 -393.6 -19.35 -392.8 L-19.5 -389.6 -20.4 -389.15 Q-21.0 -388.95 -21.65 -390.0 L-23.1 -389.95 Q-24.95 -388.65 -25.65 -386.0 L-26.45 -382.25 -27.0 -382.1 -27.15 -382.25 -27.15 -383.1 -27.15 -383.2 Q-27.55 -383.2 -28.05 -382.8 L-30.35 -382.8 -30.8 -383.2 Q-29.75 -384.65 -29.95 -386.25 L-30.35 -387.95 Q-30.35 -390.2 -28.9 -391.2 -26.75 -392.8 -25.6 -394.95 L-21.45 -394.95 -20.6 -395.6 -20.55 -396.45 -20.1 -396.45 -20.05 -396.2 Q-19.5 -396.8 -19.5 -397.1 -19.5 -397.7 -20.95 -400.3 L-21.1 -403.15 -24.65 -405.5 -28.35 -407.65 -30.1 -407.55 -32.9 -403.75 Q-34.25 -401.8 -35.8 -400.6 L-35.95 -399.6 -36.25 -399.4 -37.45 -399.0 -37.95 -398.7 Q-38.5 -398.6 -38.5 -399.5 L-38.45 -399.65 -38.5 -400.3 -37.95 -400.5 -37.35 -400.45 M-21.1 -390.25 Q-19.65 -391.05 -20.1 -392.4 L-20.5 -393.35 -20.65 -394.45 -21.65 -394.35 -25.4 -394.1 -27.85 -391.45 Q-29.7 -389.55 -29.7 -388.85 -29.7 -388.2 -28.95 -387.0 -28.25 -385.85 -27.15 -384.75 L-27.0 -384.2 -27.1 -383.3 -25.7 -386.65 Q-24.1 -389.75 -23.0 -390.7 -21.2 -390.55 -21.1 -390.25 M-45.9 -324.75 L-44.95 -326.4 -36.05 -327.8 -34.15 -329.2 Q-32.4 -330.6 -32.35 -331.65 L-29.8 -332.05 -29.8 -334.45 -28.7 -334.45 -28.95 -332.4 -27.6 -333.3 -27.55 -332.65 -28.2 -331.75 -28.9 -331.0 -28.85 -330.4 -27.15 -330.1 -26.85 -329.35 -25.55 -329.1 Q-25.0 -327.7 -24.55 -325.6 -24.2 -323.75 -24.2 -322.6 -24.2 -321.75 -24.5 -321.05 L-25.15 -320.0 Q-26.05 -320.1 -26.45 -320.6 -26.95 -321.15 -27.15 -322.4 L-29.7 -322.6 Q-29.8 -323.6 -30.8 -325.05 L-32.1 -325.7 Q-45.7 -324.65 -46.75 -319.65 -46.95 -318.6 -49.0 -316.05 -51.15 -313.4 -51.45 -312.15 L-52.85 -312.1 -52.95 -312.05 -53.1 -313.0 Q-53.1 -315.3 -50.4 -316.45 -47.75 -317.65 -47.75 -319.8 -47.75 -320.65 -48.35 -320.7 L-49.05 -320.9 -46.3 -322.9 Q-46.3 -323.8 -45.9 -324.75 M-45.8 -323.2 L-44.6 -323.95 Q-40.45 -326.4 -38.5 -326.4 L-34.35 -326.15 -30.35 -325.7 Q-29.2 -324.35 -29.0 -323.45 L-26.6 -323.15 -26.4 -322.4 -26.05 -321.6 -25.6 -321.45 -25.35 -321.7 Q-25.15 -321.95 -25.15 -322.75 -25.15 -325.3 -26.05 -328.1 L-27.55 -328.55 -27.6 -329.35 -29.15 -329.55 -29.8 -330.4 -29.8 -330.6 -30.15 -330.85 Q-30.25 -331.1 -30.9 -331.1 L-32.95 -329.2 Q-35.05 -327.25 -35.85 -326.95 -41.65 -326.55 -44.65 -325.6 L-45.8 -323.2 M-123.4 -347.7 L-124.15 -344.65 -124.95 -341.25 Q-124.95 -339.8 -123.4 -336.9 -121.85 -333.9 -121.0 -333.9 -119.8 -333.9 -119.3 -333.1 L-118.35 -331.9 Q-114.8 -331.4 -113.6 -330.8 L-110.65 -329.55 Q-109.5 -327.15 -109.5 -324.95 -109.5 -324.15 -110.0 -323.75 L-110.55 -323.3 -111.1 -323.15 -110.65 -326.2 Q-110.45 -328.1 -112.2 -329.1 -114.2 -330.2 -117.95 -331.6 -121.6 -332.95 -122.35 -332.95 L-123.95 -336.55 Q-124.95 -338.8 -125.15 -340.2 L-127.7 -337.2 Q-129.25 -335.3 -133.65 -334.7 L-132.85 -334.1 Q-132.4 -333.6 -132.4 -332.75 -132.4 -331.9 -132.75 -331.35 L-133.3 -330.65 -134.2 -330.8 -133.9 -332.0 -133.65 -333.6 -134.7 -335.05 -135.75 -336.65 Q-135.75 -338.0 -135.4 -337.15 L-134.5 -336.55 -133.65 -335.75 -130.0 -335.75 Q-129.4 -335.95 -128.8 -337.05 -128.25 -338.0 -128.25 -338.55 L-127.15 -339.0 Q-126.5 -340.5 -125.2 -344.85 -124.1 -348.5 -123.5 -349.3 L-123.4 -347.7 M-82.15 -229.9 Q-82.15 -229.2 -81.7 -228.85 L-80.55 -227.7 -80.75 -227.45 Q-81.05 -227.25 -81.6 -227.2 -83.5 -228.85 -83.5 -229.75 L-83.2 -231.4 -82.95 -232.95 -82.3 -232.9 Q-81.55 -232.55 -80.85 -232.55 -80.1 -232.55 -79.55 -233.2 -78.95 -233.85 -78.4 -233.85 L-78.15 -233.5 Q-79.2 -232.3 -79.5 -231.45 L-81.95 -231.45 Q-82.15 -231.25 -82.15 -229.9 M-292.65 -286.4 Q-293.75 -280.7 -293.75 -277.95 L-294.3 -277.8 Q-294.5 -279.8 -294.05 -282.85 -293.6 -286.15 -292.8 -287.15 L-292.65 -286.4 M-299.1 -288.5 Q-298.85 -289.2 -298.3 -292.7 -297.9 -295.45 -297.1 -296.3 L-297.0 -295.45 -298.55 -288.65 -299.1 -288.5 M-210.95 -261.15 L-211.1 -261.15 Q-211.5 -260.25 -210.7 -259.35 -209.7 -258.25 -209.65 -257.3 L-209.8 -256.9 Q-211.5 -257.45 -211.85 -258.2 L-211.95 -260.35 Q-211.95 -261.35 -211.6 -262.2 L-210.85 -263.2 Q-209.4 -261.5 -209.1 -260.7 L-210.75 -260.35 Q-211.5 -260.25 -210.95 -261.15" fill="#ffffff" fill-rule="evenodd" stroke="none"/>
    </g>
    <g id="shape1" transform="matrix(1.0, 0.0, 0.0, 1.0, 160.5, 95.85)">
      <path d="M23.6 -55.85 L24.0 -55.75 24.3 -55.35 24.3 -54.9 24.0 -54.55 6.6 -45.85 Q-4.65 -40.4 -8.6 -37.7 L-9.05 -37.6 -9.45 -37.85 -9.55 -38.0 -9.8 -38.4 -9.6 -38.85 Q-7.4 -41.05 -2.9 -43.4 -0.1 -45.1 6.55 -48.15 L14.8 -52.25 Q21.5 -55.7 23.6 -55.85 M1.0 -36.45 L1.4 -36.5 Q2.15 -36.4 2.9 -35.05 L3.9 -33.25 4.0 -32.9 3.95 -32.5 3.75 -32.35 3.5 -32.1 3.1 -32.05 Q1.7 -32.45 1.1 -34.0 0.75 -34.75 0.55 -35.85 0.45 -36.15 0.6 -36.3 L1.0 -36.45 M186.2 -92.5 Q184.85 -88.2 182.55 -84.45 180.0 -80.7 175.65 -76.2 L175.3 -76.0 175.05 -75.9 174.8 -75.9 174.4 -76.0 Q174.2 -76.1 174.25 -76.55 L174.4 -76.95 174.5 -77.1 Q179.05 -83.0 180.8 -86.25 L180.85 -86.35 Q182.7 -89.4 182.85 -90.25 L183.3 -93.7 Q183.65 -95.0 184.1 -95.3 184.25 -95.65 184.5 -95.6 185.45 -96.05 185.9 -95.6 186.5 -95.3 186.55 -94.35 L186.2 -92.5 M-159.05 -31.15 L-159.35 -31.35 -160.0 -31.75 -160.3 -32.15 -160.5 -32.55 -160.4 -32.9 -160.2 -33.05 -159.9 -33.15 Q-154.9 -32.95 -151.2 -34.75 L-148.85 -36.1 Q-147.6 -36.7 -146.5 -36.55 L-146.1 -36.35 -145.8 -35.95 Q-145.75 -35.75 -145.85 -35.5 -146.55 -34.6 -149.0 -33.05 -152.6 -30.95 -155.75 -30.95 L-159.05 -31.15 M-37.55 49.1 Q-37.75 49.9 -39.15 50.7 L-41.1 51.2 -41.55 51.1 -41.75 50.8 -41.55 50.55 Q-41.2 49.9 -39.85 49.3 -38.85 48.65 -38.25 48.65 -38.2 48.5 -37.9 48.65 L-37.6 48.8 -37.55 49.1 M-68.1 35.65 Q-68.0 35.7 -68.05 35.9 L-68.15 36.1 -68.3 36.2 -68.65 36.3 -69.95 36.3 Q-77.9 35.85 -82.2 34.6 L-82.5 34.4 -82.65 34.1 Q-82.75 33.75 -82.4 33.65 L-82.1 33.6 -69.85 35.1 -69.2 35.15 Q-68.15 35.25 -68.1 35.65" fill="#66ff66" fill-opacity="0.34901962" fill-rule="evenodd" stroke="none"/>
      <path d="M23.65 -55.2 L6.35 -46.45 Q-4.9 -40.9 -8.95 -38.3 L-9.1 -38.4 Q-7.0 -40.6 -2.65 -42.85 0.3 -44.5 6.8 -47.55 L15.15 -51.75 Q21.65 -54.95 23.65 -55.2 M3.25 -32.6 Q2.2 -32.95 1.7 -34.25 1.4 -34.95 1.2 -36.0 L2.35 -34.8 3.45 -32.9 3.25 -32.6 M184.55 -94.9 Q185.7 -95.3 185.8 -94.2 L185.45 -92.5 Q184.15 -88.35 181.9 -84.7 179.5 -81.0 175.2 -76.6 L175.0 -76.6 174.95 -76.7 175.0 -76.75 Q179.75 -82.8 181.45 -86.05 183.5 -89.4 183.6 -90.4 L184.05 -93.7 Q184.25 -94.65 184.55 -94.9 M-149.55 -33.55 Q-152.9 -31.55 -155.95 -31.45 L-159.05 -31.75 -159.65 -32.15 -159.8 -32.55 Q-154.55 -32.4 -150.8 -34.25 -149.1 -35.25 -148.35 -35.45 -147.4 -36.15 -146.5 -36.0 -147.15 -35.15 -149.55 -33.55 M-69.95 35.9 Q-77.75 35.4 -82.15 34.1 L-82.05 34.05 -82.0 34.05 -69.75 35.55 -69.25 35.65 -68.6 35.7 -68.7 35.9 -69.95 35.9 M-39.55 49.7 Q-38.6 49.1 -38.1 49.0 -38.25 49.65 -39.45 50.25 -40.55 50.8 -41.2 50.8 -40.8 50.25 -39.55 49.7" fill="#ffffff" fill-rule="evenodd" stroke="none"/>
    </g>
    <g id="shape2" transform="matrix(1.0, 0.0, 0.0, 1.0, 167.6, 214.8)">
      <path d="M102.75 -182.0 L103.9 -181.3 Q105.25 -180.9 105.45 -180.5 105.0 -180.1 103.7 -179.9 L102.45 -179.75 101.25 -180.4 Q100.2 -180.95 100.1 -181.25 100.45 -181.85 102.75 -182.0 M153.1 -164.8 L159.55 -160.95 157.85 -160.45 154.05 -162.1 Q151.15 -163.1 150.8 -164.1 151.5 -164.65 153.1 -164.8 M136.85 -202.85 L134.0 -203.95 Q134.15 -204.7 135.75 -205.05 136.5 -205.1 138.9 -203.8 141.3 -202.4 141.5 -201.5 L140.45 -201.2 Q139.6 -201.85 136.85 -202.85 M55.4 -212.2 L51.8 -211.85 47.9 -211.25 51.05 -211.4 55.4 -212.2 M19.15 -207.25 L20.6 -207.9 Q21.2 -208.35 22.2 -208.35 L24.45 -208.15 37.65 -210.5 Q37.95 -210.95 43.7 -211.4 L51.15 -212.2 Q51.55 -212.8 57.9 -213.8 L58.05 -213.55 58.65 -213.8 58.95 -213.35 Q62.5 -212.95 63.55 -212.35 64.2 -212.1 64.2 -211.4 L51.7 -210.95 44.5 -210.2 Q34.65 -208.2 30.35 -205.7 26.25 -203.5 25.05 -199.75 25.85 -198.0 28.85 -196.75 30.95 -195.95 33.1 -195.7 L33.2 -195.55 Q37.05 -195.4 41.95 -195.5 62.9 -198.9 72.5 -201.85 80.0 -204.25 83.2 -207.45 81.8 -209.05 79.25 -210.5 76.2 -212.25 73.3 -212.55 L71.95 -212.5 71.4 -212.0 69.95 -211.85 68.1 -212.0 67.6 -212.2 Q67.65 -212.65 70.0 -213.05 70.75 -213.45 73.45 -213.85 L69.75 -213.9 77.2 -214.4 79.6 -214.8 84.1 -214.55 84.95 -214.55 85.0 -214.45 86.5 -214.45 Q93.4 -214.2 93.4 -213.45 90.3 -212.9 88.05 -212.05 88.4 -211.85 88.4 -211.4 L86.3 -210.85 Q85.45 -210.1 85.3 -208.35 91.95 -202.95 96.25 -200.75 103.55 -197.0 116.2 -194.05 L118.85 -193.5 121.4 -193.35 Q121.55 -193.0 132.45 -191.55 L132.95 -190.35 130.65 -190.2 124.9 -191.0 117.85 -191.55 114.45 -191.0 111.5 -190.75 Q109.95 -190.05 109.85 -188.75 L109.2 -189.0 109.2 -188.75 108.7 -188.75 Q107.35 -191.8 105.9 -192.6 103.1 -193.9 92.75 -195.5 L83.7 -196.25 Q83.35 -196.7 80.85 -196.9 L72.25 -196.15 61.35 -193.9 61.5 -193.45 59.35 -193.2 58.55 -192.7 56.0 -189.8 Q53.85 -187.65 53.75 -185.95 53.65 -184.65 56.25 -183.1 L58.0 -182.25 63.55 -182.4 63.75 -181.75 58.7 -181.65 57.65 -181.4 57.05 -181.65 48.65 -181.4 45.4 -180.8 42.55 -180.65 42.45 -179.9 Q31.05 -178.2 15.5 -174.15 -6.7 -168.45 -17.05 -162.15 -14.7 -161.4 -12.45 -160.45 L0.9 -155.75 Q9.5 -152.8 12.65 -150.85 L12.8 -150.6 13.35 -150.65 13.65 -150.55 Q13.55 -150.4 12.75 -150.1 L11.85 -150.0 Q11.5 -149.7 11.5 -148.8 11.45 -146.35 15.35 -142.15 18.6 -138.7 21.95 -136.6 26.6 -133.7 29.8 -132.5 35.7 -130.3 45.65 -129.05 52.0 -128.15 52.3 -130.1 L52.3 -130.15 52.5 -130.5 52.55 -131.2 Q52.7 -133.1 49.4 -135.4 50.5 -135.3 51.35 -134.55 L53.35 -133.1 53.4 -132.95 57.55 -130.9 57.95 -130.95 59.05 -130.1 59.45 -129.95 59.1 -129.9 58.9 -129.6 58.8 -129.8 58.05 -130.1 56.25 -130.05 Q55.95 -129.75 55.8 -128.7 L55.5 -127.4 Q55.2 -124.7 58.4 -120.9 L64.55 -114.65 64.3 -114.5 Q62.15 -115.45 57.65 -119.6 55.8 -121.4 50.4 -122.65 45.45 -123.95 41.75 -123.85 39.75 -123.95 37.95 -121.95 L37.0 -121.05 Q36.55 -120.75 36.35 -120.05 35.55 -118.8 35.55 -117.0 35.4 -115.1 38.9 -112.35 L39.3 -112.05 39.25 -111.5 39.2 -111.8 Q35.65 -113.3 31.15 -115.6 23.2 -119.75 23.0 -119.85 L23.05 -119.85 25.1 -119.5 Q26.35 -119.55 26.25 -122.7 26.25 -124.15 24.55 -126.8 22.6 -129.75 21.05 -130.5 L20.1 -130.9 Q18.8 -132.9 15.95 -134.55 10.1 -138.05 1.15 -137.65 -0.1 -137.25 -0.8 -136.05 -1.8 -134.75 -1.7 -132.8 -1.7 -132.15 0.1 -130.1 L1.2 -128.95 -7.4 -132.0 -8.85 -132.5 -14.65 -134.8 -15.9 -135.35 Q-19.75 -136.9 -22.25 -137.4 L-27.85 -139.35 Q-30.05 -140.25 -36.65 -141.8 -40.6 -143.05 -42.95 -143.5 L-43.55 -143.15 Q-47.8 -140.1 -50.75 -138.6 L-55.2 -138.3 -57.8 -138.45 -58.15 -138.6 Q-62.8 -139.25 -66.1 -145.6 -67.4 -147.95 -68.15 -150.0 L-68.0 -151.15 Q-81.65 -156.1 -93.15 -161.65 -115.2 -172.5 -118.5 -181.75 -119.95 -184.45 -120.35 -186.85 -121.35 -191.6 -117.25 -196.35 -113.05 -201.6 -107.55 -200.7 L-104.9 -200.9 -104.85 -200.75 Q-97.7 -199.75 -92.9 -195.15 -90.8 -193.8 -89.3 -192.15 -86.75 -189.5 -79.0 -184.8 -67.65 -178.25 -55.8 -175.1 L-55.55 -175.3 Q-42.95 -185.8 -34.75 -188.75 -24.75 -192.55 -7.65 -199.65 3.45 -203.75 18.95 -207.0 L19.15 -207.25 M85.85 -106.25 L77.3 -106.55 Q75.35 -106.6 74.4 -104.8 73.5 -102.85 73.1 -102.55 72.8 -102.7 72.9 -102.9 L73.65 -104.75 Q73.95 -108.15 67.05 -112.7 L67.15 -112.9 Q69.25 -112.25 71.5 -110.25 72.3 -109.8 73.7 -109.3 L73.9 -109.25 Q79.3 -107.0 85.15 -107.5 L86.85 -107.5 87.5 -107.95 Q87.45 -108.7 86.75 -109.05 L86.3 -109.1 86.2 -109.2 91.85 -107.65 95.0 -106.0 96.4 -105.4 Q99.6 -103.65 101.3 -102.4 L101.55 -102.45 Q103.3 -100.2 103.2 -99.05 L103.2 -98.85 100.65 -101.75 Q97.2 -104.9 90.25 -105.95 L85.85 -106.25 M-14.55 -32.9 L-16.9 -33.95 -15.6 -34.3 -14.35 -33.65 -13.85 -33.0 -14.55 -32.9 M-39.1 -52.75 L-39.1 -53.0 -37.15 -53.0 -35.85 -51.8 -37.35 -51.4 -37.35 -50.25 Q-37.05 -46.7 -30.2 -41.9 -23.6 -37.85 -23.55 -37.45 -23.55 -36.75 -24.0 -36.85 L-24.45 -37.05 Q-27.35 -38.8 -29.4 -39.55 -33.15 -41.05 -38.15 -41.7 L-38.95 -41.4 -39.6 -41.15 Q-40.45 -40.4 -40.95 -39.05 L-42.0 -36.8 -43.4 -36.8 -43.3 -37.15 Q-41.95 -38.3 -41.55 -39.4 -41.3 -40.2 -41.35 -41.65 -41.7 -45.3 -50.2 -51.1 L-56.4 -55.25 -56.15 -55.15 Q-53.2 -53.75 -51.5 -53.45 L-51.05 -53.25 Q-48.1 -51.05 -45.65 -50.3 L-39.15 -50.3 -39.05 -50.85 Q-38.9 -51.15 -38.9 -51.8 L-39.1 -52.75 M-114.3 -3.0 L-117.05 -4.4 Q-116.55 -4.55 -115.4 -4.0 L-114.4 -3.3 -114.3 -3.0 M-136.05 -2.15 L-135.65 -2.15 -134.3 -0.05 -134.3 0.35 -134.45 0.4 Q-135.85 -0.4 -136.2 -1.05 L-136.1 -1.65 -136.05 -2.15 M-135.55 -22.6 L-134.7 -22.0 -138.0 -22.2 -138.05 -22.05 -138.6 -22.0 Q-140.6 -20.8 -140.2 -19.65 L-140.2 -19.5 -140.25 -19.6 Q-140.55 -20.65 -140.25 -21.55 -139.9 -22.75 -139.05 -22.9 L-135.55 -22.6 M-146.85 -18.45 L-145.9 -17.7 -143.3 -17.3 Q-141.95 -17.3 -141.45 -17.9 L-140.85 -18.9 -140.55 -18.85 -141.05 -17.45 Q-141.15 -17.2 -140.85 -16.4 -140.65 -15.25 -139.65 -14.1 L-137.25 -11.75 -136.0 -11.6 -134.5 -13.3 -133.7 -16.1 Q-133.0 -18.0 -131.3 -18.45 L-131.05 -18.6 -130.9 -18.8 -130.95 -19.0 Q-131.25 -19.85 -132.35 -20.7 L-134.2 -21.9 Q-133.0 -22.15 -131.2 -21.2 L-130.55 -20.85 -130.5 -20.8 -128.75 -19.7 -128.75 -19.5 -128.8 -19.55 -129.95 -19.5 -131.8 -16.35 Q-132.3 -15.4 -131.8 -13.6 -131.4 -12.15 -129.9 -10.5 L-126.45 -7.5 -128.55 -7.85 -131.0 -8.05 Q-134.0 -7.6 -134.7 -5.9 L-134.65 -5.85 Q-134.55 -5.4 -134.8 -4.3 -135.0 -3.3 -135.15 -3.0 L-135.3 -3.15 -135.35 -3.1 -135.6 -3.15 -135.45 -3.3 -136.7 -5.65 Q-137.45 -7.35 -138.5 -8.25 L-141.85 -10.85 Q-145.35 -13.05 -147.4 -13.0 -148.65 -13.1 -148.05 -11.8 L-148.3 -11.8 -148.45 -11.85 -148.5 -12.05 Q-148.9 -12.2 -148.9 -12.3 L-149.1 -12.9 Q-149.7 -14.8 -149.55 -15.45 -149.65 -17.1 -148.35 -18.4 L-146.85 -18.45 M-118.8 -95.35 Q-119.8 -94.85 -120.15 -93.9 -116.9 -87.2 -112.1 -82.1 -105.9 -75.6 -98.3 -73.25 L-93.6 -73.25 -94.0 -75.75 Q-96.5 -80.9 -102.5 -86.6 -110.9 -94.5 -118.8 -95.35 M-122.3 -118.5 L-122.4 -118.5 -120.7 -114.8 Q-119.4 -112.15 -116.9 -110.85 L-117.0 -111.15 -118.9 -114.85 Q-120.6 -117.6 -122.3 -118.5 M-146.8 -115.55 Q-150.75 -120.05 -154.1 -121.75 -152.5 -118.45 -148.9 -114.3 -145.25 -110.0 -141.7 -107.45 L-141.8 -107.75 Q-143.25 -111.35 -146.8 -115.55 M-167.4 -150.1 Q-167.95 -152.2 -167.15 -156.3 -166.3 -160.9 -164.5 -161.55 L-161.6 -161.9 -158.65 -160.8 Q-156.55 -159.9 -154.25 -159.75 -152.0 -162.7 -147.25 -162.25 L-147.0 -162.5 -146.05 -163.65 Q-147.1 -163.9 -146.5 -164.1 L-145.3 -164.8 -144.25 -166.65 -144.15 -166.4 -144.0 -166.45 -143.95 -166.5 Q-143.0 -169.45 -142.7 -169.7 L-141.2 -169.9 Q-137.55 -168.45 -136.6 -164.85 L-135.95 -159.75 -135.2 -155.65 -134.2 -154.0 Q-131.65 -149.6 -131.05 -146.7 L-130.75 -144.85 -130.7 -144.75 Q-130.45 -143.0 -130.75 -141.65 L-131.25 -140.5 Q-129.1 -135.45 -125.2 -129.8 -116.75 -117.75 -111.65 -111.3 -104.2 -102.0 -96.55 -94.9 L-95.9 -94.45 -92.15 -91.4 -94.8 -92.15 Q-96.55 -93.0 -97.5 -93.05 L-96.85 -89.6 Q-93.3 -81.85 -80.0 -71.65 L-61.65 -58.7 -61.1 -58.2 -60.45 -57.6 -61.55 -58.35 -67.8 -61.9 -72.65 -65.15 Q-82.5 -71.3 -89.2 -71.2 -91.5 -71.25 -93.1 -70.3 -94.85 -69.35 -94.5 -67.85 -94.5 -67.15 -93.65 -66.15 -92.75 -65.1 -92.6 -64.4 -92.55 -63.65 -92.65 -63.7 L-92.85 -64.0 -98.0 -67.85 -103.0 -71.8 -107.75 -75.3 Q-126.6 -88.25 -141.6 -103.4 -161.75 -123.75 -166.05 -139.95 -167.2 -144.2 -167.35 -149.95 L-167.4 -150.1 M174.25 -79.45 L171.45 -82.35 Q170.1 -83.75 164.95 -83.4 L165.0 -82.7 Q165.65 -81.55 167.4 -80.4 168.4 -79.85 171.3 -78.45 L174.4 -78.45 174.25 -79.45 M2.05 -179.75 Q3.45 -180.25 7.95 -182.4 L6.75 -183.35 -5.2 -183.1 -10.4 -182.2 Q-13.7 -181.7 -14.95 -178.3 L-11.1 -177.7 -7.85 -177.6 Q-0.8 -178.9 2.05 -179.75 M142.3 -105.05 Q152.7 -109.2 160.15 -108.95 L160.1 -108.7 Q171.45 -107.0 179.35 -102.45 185.5 -98.85 187.5 -94.9 190.3 -89.1 193.7 -87.65 196.5 -86.6 197.25 -84.15 197.75 -82.35 197.05 -80.2 L196.75 -79.45 196.4 -79.45 194.65 -83.95 Q192.9 -86.75 188.55 -87.55 186.5 -86.5 185.25 -84.95 183.6 -83.3 183.3 -81.6 182.5 -79.4 185.15 -75.2 188.0 -70.5 192.7 -71.35 L193.2 -71.45 Q192.2 -69.85 192.3 -67.5 L192.15 -64.15 Q191.7 -63.0 190.7 -62.15 189.4 -61.15 186.95 -60.45 L186.75 -60.75 188.75 -62.0 Q189.35 -62.45 189.65 -63.3 190.3 -65.6 185.35 -69.4 180.15 -73.4 176.95 -72.7 L177.25 -71.8 176.95 -71.2 Q172.75 -75.05 164.35 -78.15 153.8 -82.05 145.05 -81.0 L143.0 -80.75 Q140.45 -78.7 136.95 -78.15 L135.1 -77.8 132.6 -77.7 Q128.25 -77.7 126.6 -82.6 125.35 -86.4 126.0 -89.4 126.7 -93.35 129.7 -96.05 L130.3 -96.5 131.8 -98.4 Q132.3 -101.2 142.3 -105.05 M159.95 -102.75 L160.6 -101.65 162.3 -101.2 Q162.65 -101.2 163.2 -101.55 L163.45 -102.65 162.35 -103.8 160.85 -103.8 159.95 -102.75 M-34.85 -43.9 Q-35.1 -46.25 -38.2 -48.0 -41.4 -50.0 -41.05 -46.25 -41.0 -45.25 -38.8 -43.8 -36.9 -42.55 -36.05 -42.5 L-35.1 -42.8 Q-34.85 -43.1 -34.85 -43.9" fill="#66ff66" fill-opacity="0.12941177" fill-rule="evenodd" stroke="none"/>
      <path d="M163.8 -205.1 Q162.55 -199.15 154.35 -191.15 L140.1 -179.35 139.5 -179.0 138.85 -179.0 138.4 -179.25 Q137.95 -179.4 137.9 -179.75 137.65 -180.25 137.8 -180.65 137.8 -181.2 138.15 -181.6 138.8 -182.5 141.2 -184.65 L142.15 -185.55 Q140.2 -188.35 138.35 -188.35 130.95 -188.45 123.45 -182.2 117.95 -177.75 117.5 -175.8 L117.9 -175.3 117.95 -175.25 119.1 -173.7 119.2 -172.65 118.65 -171.75 117.7 -171.25 Q113.85 -171.25 108.8 -170.05 103.8 -168.95 101.1 -167.5 100.95 -167.6 100.9 -167.4 L100.0 -167.25 Q98.6 -166.85 98.95 -169.3 L99.0 -169.9 Q99.05 -170.4 99.3 -170.5 99.7 -171.45 100.35 -171.25 100.5 -171.5 100.75 -171.35 104.9 -173.6 107.3 -175.3 109.5 -177.1 110.1 -178.75 L110.3 -179.25 109.8 -179.3 109.2 -179.35 Q106.65 -179.75 107.05 -180.75 106.9 -181.25 107.2 -181.7 107.3 -182.3 107.7 -182.45 L108.5 -182.8 Q115.05 -183.2 122.55 -190.0 129.05 -196.15 129.9 -200.25 L129.9 -201.35 127.4 -201.35 Q126.85 -201.4 126.65 -201.8 126.3 -202.25 126.35 -202.75 L126.4 -203.2 Q126.35 -203.95 126.75 -204.4 L127.25 -205.1 127.9 -205.65 137.7 -211.35 Q141.25 -213.7 146.0 -213.2 149.85 -212.95 151.7 -211.0 L155.6 -211.25 156.1 -211.35 158.4 -211.0 161.25 -210.65 163.0 -210.1 163.35 -209.9 Q164.45 -209.25 164.3 -207.15 L164.2 -206.9 163.8 -205.1 M22.05 -199.3 Q22.0 -199.5 22.15 -199.3 23.15 -199.35 24.25 -198.55 L24.8 -197.75 24.85 -196.7 Q24.45 -195.15 22.75 -194.45 L22.3 -194.4 Q20.25 -194.55 19.3 -196.7 19.0 -197.2 19.05 -197.75 19.05 -198.45 19.45 -198.65 19.75 -199.3 20.25 -199.15 L22.05 -199.3 M154.75 -199.6 Q151.6 -197.1 150.75 -195.65 153.2 -196.0 155.1 -198.4 L156.65 -200.9 Q155.85 -200.65 154.75 -199.6 M150.75 -195.65 L150.35 -195.55 150.4 -195.55 150.55 -195.25 150.5 -195.0 150.3 -194.55 150.55 -194.05 150.55 -195.25 150.75 -195.65 M131.55 -174.75 L132.05 -174.25 132.2 -173.5 131.9 -172.55 Q131.05 -171.45 128.0 -169.2 L128.0 -169.1 Q124.2 -166.8 124.0 -166.5 L123.25 -166.3 122.6 -166.45 Q122.3 -166.8 122.3 -167.05 121.95 -168.1 122.05 -168.65 L121.75 -169.2 Q121.45 -169.65 121.55 -170.2 121.6 -170.8 122.0 -171.1 L122.85 -171.65 126.65 -173.2 Q129.85 -174.8 130.35 -174.85 130.75 -175.1 131.15 -174.85 L131.55 -174.75 M160.3 -170.2 L159.85 -170.25 Q159.35 -170.5 159.3 -170.95 159.15 -171.5 159.35 -171.9 159.35 -172.4 159.6 -172.6 161.7 -177.35 163.35 -177.3 L164.2 -177.25 164.6 -176.65 Q165.0 -175.25 165.7 -173.85 L165.6 -173.85 Q166.75 -171.8 169.7 -171.8 L177.0 -172.25 Q179.05 -172.95 180.05 -172.7 L182.95 -172.6 184.5 -172.55 184.7 -172.55 Q185.85 -172.4 186.4 -169.9 L186.4 -169.2 185.95 -168.45 184.8 -167.5 183.9 -167.55 182.95 -168.3 Q183.2 -167.4 184.3 -165.05 L186.9 -158.8 187.15 -157.15 187.25 -157.05 187.3 -156.55 187.55 -153.8 187.6 -153.35 Q187.2 -151.85 187.3 -150.45 L187.3 -150.4 Q187.25 -148.3 188.3 -148.1 L188.35 -148.1 188.85 -147.85 Q189.1 -147.75 189.15 -147.3 189.3 -146.6 189.05 -145.3 L189.0 -145.2 188.4 -143.35 187.9 -142.55 187.0 -142.15 186.75 -142.1 185.9 -142.15 Q185.6 -142.4 185.65 -142.7 185.45 -143.2 185.7 -143.65 185.75 -144.35 184.9 -146.05 L184.4 -146.1 Q180.7 -146.05 176.45 -141.2 171.8 -134.9 170.25 -133.4 L169.75 -133.05 169.25 -132.9 169.1 -132.9 168.45 -133.2 Q168.05 -133.55 168.15 -133.85 L168.35 -134.7 169.8 -137.0 170.05 -137.3 171.1 -138.5 173.9 -142.5 176.55 -147.55 177.75 -151.15 177.8 -154.3 Q177.6 -156.4 177.05 -157.1 174.55 -158.3 172.9 -157.95 L172.7 -157.9 Q170.15 -157.65 167.45 -152.6 L167.45 -152.7 166.85 -151.6 166.8 -151.45 166.6 -151.1 166.65 -151.1 Q165.2 -149.1 164.0 -145.65 L163.4 -144.9 162.7 -144.5 162.4 -144.45 161.65 -144.5 161.25 -145.0 161.2 -145.8 161.45 -146.95 160.8 -147.65 Q160.35 -148.0 160.4 -148.4 160.25 -148.95 160.55 -149.4 160.85 -149.95 161.4 -150.1 163.15 -151.2 164.5 -153.55 165.55 -155.65 166.25 -158.0 L166.75 -161.35 166.25 -164.8 166.25 -164.85 Q166.05 -166.3 164.7 -168.05 L164.7 -168.15 163.3 -169.8 162.2 -170.6 162.2 -170.5 161.2 -170.45 160.3 -170.2 M155.85 -149.45 L155.8 -150.1 156.05 -151.6 Q156.0 -152.1 156.35 -152.35 L156.95 -152.8 157.6 -153.05 157.95 -153.05 Q158.4 -153.1 158.65 -152.6 159.0 -152.25 158.95 -151.2 L158.9 -151.0 158.85 -150.6 158.4 -149.8 157.0 -148.9 156.25 -148.95 155.85 -149.45 M94.45 -168.55 Q94.85 -169.35 95.4 -169.05 96.15 -169.55 96.55 -168.05 L96.55 -167.0 Q96.75 -166.55 91.85 -162.95 94.0 -161.3 98.3 -156.85 L99.95 -155.05 Q100.1 -155.2 100.3 -154.85 103.95 -151.5 109.25 -143.35 L109.2 -143.3 Q114.8 -134.35 117.85 -130.05 L118.0 -129.75 Q119.6 -124.8 124.05 -116.95 L130.9 -105.05 138.4 -91.3 Q142.65 -83.75 144.4 -82.05 149.5 -77.15 154.0 -73.65 L153.95 -73.65 Q154.95 -72.95 159.95 -70.25 L166.4 -66.35 166.55 -66.25 168.2 -65.15 Q171.25 -62.4 169.95 -57.25 168.7 -53.1 164.8 -48.55 159.2 -42.4 152.5 -42.4 148.6 -42.45 146.7 -44.0 138.65 -46.35 133.95 -49.05 L134.0 -48.95 Q127.9 -52.35 124.95 -57.25 L121.75 -61.05 121.7 -61.05 117.6 -65.45 Q112.8 -71.4 110.85 -74.7 104.1 -86.5 100.35 -93.8 98.65 -97.15 94.2 -103.5 89.5 -110.25 87.85 -113.7 87.55 -114.15 87.75 -114.6 87.85 -115.05 88.3 -115.3 88.55 -115.65 89.1 -115.65 L89.25 -115.65 89.15 -115.75 88.9 -115.9 88.8 -115.9 88.0 -116.85 87.8 -117.25 Q87.6 -117.7 87.7 -118.1 87.6 -118.3 87.8 -118.35 87.85 -118.95 88.25 -119.2 L88.55 -119.45 Q88.8 -119.85 89.3 -119.85 89.65 -119.9 90.05 -119.55 L91.1 -118.45 91.15 -118.4 91.35 -118.5 Q93.8 -120.6 94.5 -121.6 L94.55 -121.65 94.95 -124.05 Q95.45 -128.15 93.5 -133.9 L92.6 -136.15 Q91.25 -138.45 89.6 -142.0 86.2 -146.95 79.7 -148.8 75.45 -149.4 73.85 -148.2 L73.8 -148.15 Q72.6 -147.15 72.95 -144.35 L72.85 -143.5 72.4 -142.9 71.65 -142.6 Q71.15 -142.7 70.95 -142.9 L70.7 -143.0 Q69.25 -143.35 68.8 -144.4 L68.6 -144.75 Q67.85 -145.25 66.95 -146.1 L66.9 -146.1 Q65.7 -147.05 64.5 -148.15 64.1 -148.35 64.05 -148.7 63.95 -149.2 64.15 -149.5 L64.45 -150.15 65.0 -150.75 Q63.8 -153.25 59.7 -157.35 55.75 -161.45 52.45 -163.85 L52.05 -164.4 51.95 -165.1 52.0 -165.8 Q52.0 -166.35 52.3 -166.7 L53.0 -167.25 Q53.4 -167.45 53.85 -167.25 L56.35 -165.9 58.7 -164.15 58.9 -164.05 58.95 -164.15 59.55 -165.8 Q60.05 -173.1 57.1 -178.85 55.45 -181.8 53.9 -183.75 L53.65 -184.2 Q53.45 -184.6 53.65 -184.85 L53.65 -185.85 Q53.65 -186.55 54.15 -186.9 54.5 -187.45 55.05 -187.45 55.8 -187.95 59.15 -184.4 L63.9 -179.8 64.35 -179.0 64.4 -178.65 64.35 -177.5 63.6 -176.7 62.7 -176.65 62.1 -176.75 Q61.2 -166.25 66.7 -159.35 71.45 -153.5 78.25 -153.35 87.05 -153.35 88.6 -157.05 L88.6 -157.1 Q89.0 -158.35 88.8 -159.9 L88.65 -160.6 81.0 -155.45 80.3 -155.25 Q79.8 -155.35 79.65 -155.5 L79.35 -155.7 79.05 -156.45 Q78.85 -156.95 79.1 -157.2 79.15 -157.7 79.55 -157.95 L83.25 -161.4 85.75 -164.4 85.0 -165.65 Q84.65 -166.15 84.7 -166.5 84.65 -167.15 85.05 -167.5 L85.9 -168.05 Q88.1 -168.6 88.7 -167.05 L88.75 -166.8 89.0 -166.3 Q90.75 -166.6 92.2 -167.35 L94.45 -168.55 M110.45 -129.9 L110.15 -128.65 Q109.6 -126.1 110.9 -123.45 L110.9 -123.4 Q112.15 -120.75 114.85 -118.35 L115.15 -118.1 115.25 -118.3 115.35 -118.35 115.4 -118.9 Q115.65 -121.0 114.15 -124.4 L111.2 -129.55 110.45 -129.9 M92.15 -145.9 Q92.0 -145.45 92.25 -144.9 92.3 -144.25 93.0 -144.2 L93.15 -144.7 Q92.9 -145.8 92.3 -145.9 L92.25 -145.9 92.15 -145.95 92.15 -145.9 M101.15 -100.8 Q101.6 -99.0 102.55 -98.8 L102.7 -98.85 102.8 -98.9 103.0 -99.45 Q103.1 -101.4 101.4 -103.2 L100.65 -103.85 100.7 -103.2 Q100.7 -102.15 101.15 -100.8 M159.5 -133.5 L159.4 -132.7 159.25 -132.5 Q157.9 -129.4 157.8 -128.5 157.65 -127.95 158.0 -127.15 158.2 -126.15 159.1 -125.9 161.25 -126.3 162.95 -127.95 L165.65 -131.25 Q165.65 -131.5 165.8 -131.5 166.25 -132.1 166.6 -132.0 167.5 -132.45 167.95 -131.5 168.1 -131.35 167.85 -130.15 167.5 -129.1 164.5 -124.35 L161.5 -119.9 160.55 -119.5 159.85 -119.9 Q159.5 -120.35 159.65 -120.8 159.95 -122.05 159.65 -122.65 L159.4 -122.55 Q156.9 -122.6 154.5 -120.85 L150.1 -116.9 149.25 -116.45 Q148.7 -116.55 148.55 -116.75 148.1 -117.15 148.2 -117.5 L148.6 -118.45 Q150.75 -121.1 153.2 -126.2 156.3 -132.8 157.35 -134.0 L157.65 -134.4 Q158.65 -135.35 159.3 -134.55 L159.55 -133.85 159.5 -133.5 M146.7 -115.85 L147.5 -115.95 148.05 -115.6 148.15 -114.8 Q148.0 -114.05 145.15 -111.0 L144.3 -110.5 143.6 -110.8 143.4 -110.95 143.15 -111.35 Q143.0 -111.8 143.2 -112.0 143.15 -113.0 144.95 -114.5 L145.0 -114.55 Q146.15 -115.7 146.7 -115.85 M43.4 -150.3 Q43.65 -150.7 44.1 -150.7 L55.85 -152.75 56.7 -152.35 56.95 -151.4 Q56.75 -149.2 55.6 -149.45 48.05 -147.5 45.75 -146.1 L44.8 -146.05 44.2 -146.6 43.2 -148.6 Q42.95 -149.1 43.05 -149.45 43.05 -149.95 43.4 -150.3 M29.25 -155.85 Q29.4 -156.3 29.75 -156.35 L30.45 -156.5 Q32.55 -156.3 35.65 -157.3 L40.1 -157.4 40.45 -156.8 40.45 -156.05 40.05 -155.35 38.35 -153.35 37.75 -152.8 37.2 -152.6 35.65 -152.9 35.75 -152.9 34.9 -153.1 Q28.65 -153.45 29.05 -155.05 28.95 -155.55 29.25 -155.85 M35.9 -156.3 L35.8 -156.25 35.95 -155.7 35.9 -156.3 M-122.05 -106.45 Q-119.15 -105.8 -116.1 -104.55 -112.25 -103.1 -110.0 -101.35 L-109.5 -100.6 Q-109.3 -100.35 -109.4 -99.9 L-109.75 -99.35 Q-110.1 -99.15 -110.35 -99.1 L-110.5 -98.35 -109.85 -96.95 -109.7 -96.55 Q-109.0 -94.7 -106.75 -92.4 -105.3 -90.85 -103.7 -89.9 L-103.6 -89.9 Q-99.6 -87.45 -96.1 -87.3 -93.35 -87.4 -92.15 -88.0 L-91.7 -88.45 -91.6 -88.85 -91.0 -89.3 -90.7 -89.3 Q-90.35 -89.5 -89.9 -89.3 L-88.9 -88.45 Q-87.6 -87.9 -85.75 -86.75 -82.6 -84.95 -80.85 -83.65 L-80.4 -83.1 -80.35 -82.95 -80.25 -82.4 -80.55 -81.55 -80.6 -81.55 Q-80.8 -81.4 -81.1 -81.35 L-81.4 -81.3 -81.75 -81.25 -82.3 -81.1 Q-85.3 -81.55 -85.95 -80.55 L-85.85 -79.2 Q-85.2 -75.5 -79.9 -71.5 L-76.55 -69.25 -76.3 -69.2 -73.4 -68.5 Q-71.7 -68.6 -70.05 -69.4 L-69.75 -69.85 -70.0 -71.0 -70.0 -71.5 -69.95 -71.55 Q-70.5 -72.45 -70.55 -73.5 L-70.55 -73.6 -71.4 -74.7 Q-71.7 -75.1 -71.65 -75.45 L-71.65 -75.55 -74.25 -77.9 Q-74.6 -78.25 -74.55 -78.65 -74.7 -79.15 -74.3 -79.35 L-74.15 -79.55 Q-74.0 -79.9 -73.55 -79.9 L-72.75 -79.7 Q-68.55 -76.75 -61.75 -70.5 L-51.25 -61.0 Q-42.2 -53.4 -35.85 -42.85 -25.3 -25.1 -19.15 -10.05 L-19.15 -9.85 Q-18.5 -8.25 -18.4 -6.15 -18.3 -3.55 -19.25 -1.4 -20.5 0.95 -22.75 1.85 -24.55 2.95 -27.2 3.05 L-29.2 2.95 -29.45 2.95 Q-33.25 2.95 -35.65 1.25 L-36.25 0.95 -38.05 -0.7 -38.05 -0.75 -38.7 -1.55 -39.1 -1.95 -39.15 -2.0 -40.9 -4.65 -40.9 -4.7 -44.55 -10.25 -52.85 -21.6 -52.85 -21.55 Q-60.9 -32.7 -72.85 -46.15 L-73.15 -46.8 Q-73.25 -47.25 -72.9 -47.4 -72.75 -47.75 -72.25 -47.7 L-72.0 -47.7 -71.6 -47.6 -71.25 -47.3 -69.25 -45.45 -66.15 -43.2 Q-64.9 -42.15 -62.6 -41.55 L-62.25 -41.6 -62.1 -41.95 Q-62.1 -42.4 -61.9 -42.45 -62.5 -45.95 -67.8 -49.95 L-71.35 -52.45 -73.35 -53.2 -75.1 -53.7 -76.0 -53.65 -76.15 -53.4 -76.0 -52.6 -75.6 -51.95 -75.1 -51.4 -75.15 -50.7 -75.25 -50.45 -75.7 -50.1 -76.3 -50.05 Q-77.35 -50.2 -78.0 -51.1 L-80.65 -53.45 -83.65 -56.6 -83.75 -56.7 -87.45 -59.7 -91.55 -63.15 Q-94.4 -65.75 -100.3 -69.3 L-108.05 -74.05 -108.5 -74.15 Q-109.35 -74.45 -109.45 -74.85 L-109.65 -75.1 -109.7 -75.2 -109.8 -75.8 -109.65 -76.2 -109.55 -76.35 -108.95 -76.6 -108.9 -76.6 -108.75 -76.6 -108.75 -76.55 -108.15 -76.4 -108.45 -76.6 -108.6 -76.65 -109.3 -76.6 -109.7 -76.25 Q-112.0 -78.45 -117.1 -81.15 L-117.55 -81.7 Q-117.85 -82.0 -117.8 -82.3 L-117.7 -82.9 -117.5 -83.15 Q-117.4 -83.55 -116.95 -83.55 L-116.15 -83.45 -111.4 -81.05 -108.9 -80.2 -108.8 -80.1 -107.3 -80.0 -106.7 -80.05 -106.8 -80.0 -105.9 -80.2 -105.65 -80.25 Q-104.05 -80.75 -103.5 -82.45 L-103.45 -83.55 Q-103.7 -84.6 -104.35 -85.5 L-105.05 -86.55 -106.1 -87.65 -107.15 -88.85 -108.75 -90.8 -110.1 -92.15 -110.2 -92.2 -112.5 -94.65 -113.55 -95.6 Q-115.2 -96.85 -116.7 -96.85 -118.4 -96.9 -120.0 -96.0 L-120.95 -95.4 -121.55 -94.9 -121.55 -94.85 -121.75 -94.7 Q-121.95 -94.6 -122.1 -94.55 -123.0 -94.35 -123.6 -95.05 -123.95 -95.3 -124.0 -95.95 L-124.0 -96.0 Q-124.2 -96.35 -124.0 -96.5 L-123.75 -96.95 -122.2 -98.7 -122.2 -98.8 Q-120.9 -100.5 -121.1 -101.75 L-121.4 -102.95 -123.2 -103.95 -123.4 -104.0 -124.0 -104.3 -124.3 -104.35 Q-124.7 -104.55 -124.9 -104.85 L-125.25 -105.5 -125.3 -105.9 Q-125.45 -106.5 -125.2 -106.75 -125.0 -107.1 -124.45 -107.1 L-122.45 -106.55 -122.4 -106.55 -122.05 -106.45 M-108.85 -76.05 L-108.75 -76.55 -108.8 -76.6 -108.85 -76.4 -108.85 -76.05 M-109.1 -75.7 L-109.0 -74.9 -108.85 -75.35 -109.1 -75.7 M-125.3 -94.15 L-124.55 -93.7 -124.35 -93.35 -123.95 -92.55 -124.1 -91.95 -125.6 -89.9 -125.65 -89.9 Q-125.85 -89.65 -125.7 -89.05 L-125.55 -88.7 -123.85 -87.1 -123.55 -86.55 -123.55 -85.9 -123.65 -85.6 -124.0 -85.15 -124.6 -85.0 -127.0 -85.6 -126.95 -85.6 -129.05 -86.4 Q-131.35 -86.25 -131.85 -85.75 L-131.8 -85.7 -132.25 -84.8 -132.7 -84.3 -133.45 -84.25 -135.65 -85.35 Q-137.7 -86.15 -139.6 -86.15 -142.05 -86.15 -144.55 -85.1 -146.8 -84.35 -147.75 -83.25 L-148.05 -83.05 -148.55 -83.05 -148.9 -83.1 -148.85 -83.05 Q-150.05 -83.2 -150.3 -83.75 -150.75 -84.2 -150.65 -84.6 L-150.5 -85.3 -149.45 -86.65 -148.95 -87.85 Q-149.45 -88.65 -149.05 -89.4 L-148.55 -89.8 -148.05 -89.85 Q-147.75 -89.85 -147.4 -89.5 -147.0 -89.25 -146.05 -88.9 L-144.45 -88.65 Q-137.15 -88.7 -131.15 -91.15 L-126.1 -94.15 Q-125.75 -94.35 -125.3 -94.15 M-145.65 -24.8 Q-143.05 -22.95 -139.95 -18.4 L-135.75 -12.1 Q-134.05 -9.7 -129.8 -5.85 L-127.75 -4.05 -125.15 -2.5 Q-121.75 0.05 -120.55 4.45 L-120.55 4.55 -120.5 4.6 -120.5 4.65 -120.45 4.75 -120.4 4.9 Q-120.1 6.55 -120.25 7.9 L-120.2 8.0 -118.3 12.6 -115.35 17.6 -113.0 21.25 -112.85 21.85 -112.55 22.45 Q-112.3 23.75 -113.45 25.4 -115.05 27.25 -117.85 27.35 -124.1 27.25 -125.65 24.55 -126.45 23.4 -126.35 22.35 L-126.6 22.4 -127.1 22.35 Q-128.85 21.7 -130.35 19.65 -132.1 18.4 -132.75 16.6 L-134.15 13.4 -134.95 12.1 -137.5 9.25 -138.1 8.6 -138.8 8.1 -138.8 8.15 Q-143.05 5.05 -143.85 4.0 L-143.8 4.0 -146.85 0.3 Q-148.9 -2.1 -149.75 -3.65 L-149.85 -4.3 -149.7 -4.6 -149.3 -5.0 -148.65 -5.0 -148.0 -4.6 -147.3 -3.8 -147.65 -4.45 -147.65 -4.5 Q-148.8 -6.7 -149.7 -7.6 L-149.75 -7.6 -152.9 -10.9 Q-154.15 -12.1 -154.6 -11.75 L-155.05 -11.55 -155.65 -11.6 Q-157.3 -12.3 -158.1 -13.75 L-158.1 -13.8 Q-158.55 -14.3 -158.9 -15.95 -159.4 -17.2 -159.4 -19.05 L-159.25 -19.6 -159.0 -19.7 Q-159.25 -22.15 -158.35 -22.6 L-157.8 -22.75 -157.15 -22.75 -156.45 -22.5 -156.05 -21.95 Q-155.8 -21.65 -155.9 -21.0 L-155.75 -20.4 Q-155.15 -18.45 -152.6 -16.75 L-146.3 -13.0 -144.3 -13.05 -144.0 -13.7 Q-144.5 -15.3 -144.1 -15.8 -144.0 -16.35 -142.85 -16.9 L-143.45 -18.05 -144.4 -19.85 -145.9 -21.5 Q-147.0 -22.7 -147.15 -23.45 L-147.3 -24.1 Q-147.45 -24.5 -147.2 -24.75 -147.05 -25.1 -146.55 -25.0 L-146.45 -25.0 -145.65 -24.8 M-147.15 -3.65 L-147.1 -3.65 -147.3 -3.8 -147.15 -3.65" fill="#ffffff" fill-opacity="0.5019608" fill-rule="evenodd" stroke="none"/>
      <path d="M162.85 -206.9 L162.45 -205.1 Q161.25 -199.6 153.65 -192.25 L139.5 -180.5 139.1 -180.65 142.0 -183.5 Q143.55 -185.1 143.8 -185.95 141.2 -189.9 138.65 -189.9 130.8 -189.9 122.85 -183.35 116.55 -178.15 116.25 -175.8 116.1 -175.2 116.95 -174.15 L117.95 -172.7 108.8 -171.45 Q103.6 -170.35 100.75 -168.9 L100.25 -168.65 Q100.05 -168.8 100.2 -169.3 100.2 -169.95 100.3 -169.8 L100.55 -169.7 Q105.3 -172.2 107.9 -174.15 111.15 -176.7 111.55 -179.3 L111.2 -179.8 Q110.8 -180.3 110.85 -180.7 L109.6 -180.8 Q108.3 -181.1 108.3 -181.25 115.3 -181.55 123.25 -188.8 130.45 -195.55 131.25 -200.25 131.5 -202.2 130.75 -203.0 L127.7 -203.0 127.7 -203.45 128.2 -204.25 138.05 -209.85 Q141.35 -211.95 145.6 -211.55 149.35 -211.3 151.0 -209.45 L155.8 -209.65 158.0 -209.45 160.6 -209.0 162.4 -208.4 Q162.9 -208.05 162.85 -206.9 M154.2 -200.8 Q149.45 -197.0 149.15 -195.0 148.95 -194.5 149.25 -194.45 L149.2 -194.05 149.85 -193.95 Q153.25 -194.1 156.05 -197.45 157.8 -199.75 158.15 -201.3 158.8 -204.65 154.2 -200.8 M130.9 -173.25 L127.5 -170.4 123.55 -167.8 Q123.25 -168.75 123.45 -168.9 L123.7 -169.2 123.45 -169.4 122.9 -170.2 126.85 -171.8 130.45 -173.5 130.9 -173.25 M160.75 -171.75 L160.55 -171.65 160.65 -171.9 160.7 -171.95 Q162.2 -175.7 163.3 -175.8 163.7 -174.25 164.45 -172.85 165.9 -170.4 169.35 -170.35 L176.95 -170.75 179.7 -171.25 182.8 -171.05 183.85 -171.1 183.85 -171.05 Q184.7 -171.05 185.2 -169.2 L184.8 -168.95 Q183.6 -169.6 182.9 -170.35 L182.1 -169.7 Q181.65 -169.1 181.55 -168.65 181.35 -167.85 183.1 -164.1 185.2 -159.55 185.6 -158.0 L185.95 -156.45 186.0 -156.05 186.4 -153.3 Q185.9 -151.6 186.0 -149.95 185.95 -146.75 187.9 -146.7 L187.95 -146.7 187.8 -145.3 187.2 -143.4 186.9 -143.35 Q187.3 -144.6 185.9 -147.2 185.5 -147.55 184.75 -147.55 180.5 -147.55 175.7 -142.0 171.1 -135.8 169.6 -134.3 L169.4 -134.3 170.75 -136.45 171.95 -137.75 174.9 -142.1 177.6 -147.1 Q178.3 -148.65 179.0 -151.15 179.3 -152.6 179.1 -154.8 178.8 -157.55 178.05 -158.3 175.1 -159.8 173.05 -159.3 169.65 -159.2 166.45 -153.1 L165.85 -151.95 165.7 -151.75 Q164.1 -149.6 162.8 -145.85 L162.45 -145.8 162.75 -147.3 Q162.65 -148.25 161.65 -148.9 163.9 -150.15 165.6 -153.1 166.75 -155.4 167.5 -158.0 168.05 -160.6 168.0 -161.75 L167.55 -165.35 Q167.3 -167.15 165.75 -169.2 L164.2 -171.05 163.1 -171.9 Q162.05 -172.55 160.8 -171.65 L160.75 -171.75 M157.0 -150.15 L157.3 -151.65 157.6 -151.65 157.7 -151.0 157.6 -150.6 157.0 -150.15 M95.25 -167.0 L89.5 -162.75 80.5 -156.6 80.25 -156.85 83.95 -160.25 Q86.85 -163.2 87.0 -164.4 87.1 -165.2 86.0 -166.65 87.2 -166.95 87.65 -166.25 L88.05 -164.65 Q90.7 -164.95 92.65 -165.95 L95.2 -167.35 Q95.4 -167.95 95.25 -167.0 M89.55 -162.1 L89.6 -162.25 89.5 -162.65 Q90.3 -162.5 90.85 -161.9 92.9 -160.45 97.45 -155.7 L99.35 -153.55 99.4 -153.75 Q102.95 -150.4 108.25 -142.45 113.85 -133.35 116.85 -129.1 118.5 -124.1 123.0 -116.1 L129.9 -104.3 137.4 -90.55 Q141.7 -82.8 143.5 -81.1 148.7 -76.25 153.15 -72.7 154.1 -72.0 159.25 -69.25 L165.6 -65.45 167.3 -64.25 Q170.1 -61.8 168.9 -57.25 167.75 -53.3 164.05 -49.05 158.95 -43.4 152.7 -43.3 149.15 -43.4 147.35 -44.8 139.35 -47.25 134.6 -49.85 128.8 -53.15 125.9 -57.85 125.1 -59.25 122.6 -61.9 L118.45 -66.25 Q113.8 -72.05 111.85 -75.3 105.1 -87.1 101.4 -94.45 99.65 -97.75 95.2 -104.3 90.55 -110.95 88.95 -114.35 L90.95 -111.95 91.0 -112.05 91.5 -113.6 Q91.45 -114.45 90.45 -116.05 L90.05 -116.8 89.6 -117.0 89.05 -117.5 88.9 -117.9 89.25 -117.9 88.9 -118.3 89.2 -118.5 90.45 -117.2 91.6 -117.3 Q94.8 -119.7 95.5 -121.1 95.8 -121.65 96.15 -124.05 96.7 -128.4 94.65 -134.5 L93.75 -136.8 Q92.35 -139.15 90.7 -142.7 87.15 -148.2 80.15 -150.15 75.1 -150.9 73.2 -149.25 71.3 -147.85 71.8 -143.95 L71.4 -144.45 71.1 -144.3 Q70.2 -144.5 69.9 -145.1 69.7 -145.4 69.75 -145.8 68.85 -146.3 67.7 -147.2 L65.35 -149.25 66.35 -150.55 Q65.65 -153.3 60.65 -158.45 56.55 -162.6 53.25 -165.1 L53.25 -165.2 53.4 -165.15 53.25 -165.35 53.25 -165.8 55.7 -164.65 58.35 -162.65 59.6 -162.75 Q60.7 -164.6 60.8 -165.8 61.35 -173.6 58.2 -179.75 56.6 -182.85 54.95 -184.85 L54.95 -185.85 55.05 -185.9 Q55.6 -185.95 58.3 -183.1 L63.1 -178.55 63.2 -178.1 61.3 -178.2 Q60.95 -178.05 60.95 -177.9 L60.8 -176.8 Q59.9 -165.6 65.7 -158.3 70.8 -152.0 78.1 -151.85 88.15 -151.9 89.8 -156.6 90.3 -158.25 90.05 -160.25 L89.65 -161.95 89.55 -162.1 M112.1 -130.55 Q110.2 -131.95 109.4 -130.55 L109.0 -128.75 Q108.4 -125.8 109.85 -122.7 111.25 -119.65 114.35 -117.0 L115.9 -117.2 116.15 -117.6 116.6 -118.9 Q117.0 -121.25 115.25 -125.05 113.95 -127.95 112.1 -130.55 M99.5 -103.0 Q99.55 -101.7 100.05 -100.3 100.75 -97.6 102.35 -97.6 102.9 -97.65 103.45 -98.05 L104.1 -99.45 Q104.45 -101.8 102.3 -104.05 100.0 -106.5 99.5 -103.0 M93.85 -143.1 L93.95 -143.3 94.4 -144.75 Q94.05 -147.3 92.6 -147.3 91.05 -147.5 90.9 -145.9 90.75 -145.05 91.05 -144.3 91.45 -142.9 92.85 -142.7 L93.85 -143.1 M156.75 -126.45 Q157.3 -124.8 158.8 -124.5 161.55 -124.95 163.7 -127.15 L166.55 -130.65 Q166.95 -131.05 166.7 -130.15 166.35 -129.2 163.6 -124.85 L160.9 -120.8 Q161.2 -122.55 160.65 -123.5 160.45 -123.9 159.7 -123.85 156.85 -123.95 154.05 -121.85 152.6 -120.95 149.45 -117.75 151.7 -120.5 154.35 -125.75 157.35 -132.2 158.3 -133.5 L158.2 -132.7 Q156.7 -129.4 156.6 -128.5 156.35 -127.7 156.75 -126.45 M144.35 -112.0 Q144.4 -112.65 145.65 -113.65 L147.0 -114.8 Q146.85 -114.25 144.5 -111.85 L144.35 -112.0 M55.55 -150.85 Q47.8 -148.7 45.3 -147.4 L44.25 -149.3 55.75 -151.4 55.55 -150.85 M22.05 -197.75 Q22.75 -197.7 23.65 -197.15 23.35 -196.4 22.4 -196.0 21.05 -196.15 20.35 -197.55 L22.05 -197.75 M35.3 -154.55 L30.3 -155.05 Q32.55 -154.75 35.95 -155.9 38.65 -156.95 39.3 -156.3 37.55 -154.65 37.3 -154.0 L36.05 -154.25 35.3 -154.55 M36.35 -155.25 L35.8 -154.9 36.1 -154.9 36.35 -155.25 M-123.5 -105.2 L-123.6 -105.3 Q-123.9 -105.6 -124.1 -105.5 L-124.15 -105.9 -122.6 -105.35 -122.25 -105.25 Q-119.35 -104.6 -116.3 -103.4 -112.7 -102.05 -110.5 -100.4 L-110.55 -100.3 -110.85 -100.4 -110.95 -100.3 -111.3 -100.4 Q-111.55 -100.05 -111.65 -98.5 -111.55 -97.65 -110.8 -96.4 L-110.8 -96.35 Q-110.0 -94.25 -107.45 -91.65 -105.85 -89.9 -104.05 -88.85 -99.75 -86.2 -95.9 -86.2 -92.65 -86.2 -91.3 -87.1 L-90.55 -87.85 -90.6 -88.15 -90.45 -88.1 -90.05 -88.2 -89.75 -87.75 -89.7 -87.7 Q-88.3 -87.1 -86.15 -85.75 -83.1 -84.0 -81.4 -82.75 L-81.45 -82.55 -81.35 -82.5 -81.75 -82.45 -82.15 -82.35 -82.3 -82.35 -82.3 -82.3 Q-86.3 -82.75 -87.0 -81.1 -87.25 -80.7 -86.95 -79.2 -86.25 -75.05 -80.45 -70.65 L-76.75 -68.3 -76.5 -68.2 -73.25 -67.4 Q-71.25 -67.4 -69.35 -68.5 L-68.65 -69.4 Q-68.65 -70.3 -68.95 -71.2 L-68.9 -71.45 -68.75 -71.3 Q-69.4 -72.4 -69.5 -73.55 L-69.45 -73.65 -70.45 -75.2 -68.7 -73.65 Q-68.95 -74.55 -70.55 -75.9 L-73.5 -78.55 -73.3 -78.8 Q-69.1 -75.95 -62.45 -69.75 L-51.85 -60.15 Q-43.0 -52.7 -36.8 -42.45 -26.15 -24.65 -20.1 -9.75 L-20.2 -9.75 Q-19.5 -8.2 -19.3 -6.15 -19.25 -3.75 -20.1 -1.7 -21.25 0.4 -23.2 1.05 -24.85 2.15 -27.25 2.25 L-29.15 2.1 -29.55 2.1 Q-32.95 2.05 -35.1 0.55 L-35.75 0.3 -37.2 -1.05 -38.0 -2.05 -38.35 -2.4 -40.05 -5.0 -43.65 -10.55 -52.05 -22.0 Q-60.05 -33.2 -72.1 -46.7 L-71.9 -46.7 -69.8 -44.6 Q-68.75 -44.1 -66.8 -42.5 -65.25 -41.2 -62.5 -40.55 L-61.55 -40.55 -61.05 -41.6 -60.85 -42.45 Q-61.4 -46.2 -67.2 -50.7 L-70.95 -53.35 -73.05 -54.05 -75.15 -54.8 -76.65 -54.6 Q-77.3 -54.0 -77.2 -53.4 L-77.05 -52.3 -76.1 -51.25 -76.25 -50.95 Q-76.9 -51.15 -77.15 -51.7 L-79.9 -54.05 -83.05 -57.35 -86.85 -60.45 -90.9 -63.85 Q-93.75 -66.55 -99.8 -70.15 -102.9 -72.1 -107.95 -75.05 -108.6 -75.15 -108.3 -75.2 L-108.65 -75.45 -108.6 -75.45 -108.65 -75.55 -108.55 -75.45 -107.85 -75.75 Q-110.0 -78.5 -116.6 -82.15 L-116.45 -82.45 Q-114.85 -81.55 -111.55 -80.0 L-108.95 -79.15 -108.6 -79.05 -107.05 -78.9 -106.45 -79.0 -105.55 -79.15 -105.25 -79.15 Q-103.1 -79.85 -102.35 -82.05 L-102.3 -83.55 Q-102.65 -84.8 -103.45 -85.95 L-104.25 -87.2 -105.4 -88.4 -106.3 -89.5 -108.05 -91.55 -109.45 -93.0 -111.8 -95.4 -112.9 -96.45 Q-114.95 -98.0 -116.9 -98.0 -118.8 -98.0 -120.65 -97.05 L-121.85 -96.35 -122.4 -95.75 -122.65 -95.6 -122.95 -95.95 -122.95 -96.0 -121.2 -97.9 Q-119.55 -100.1 -119.9 -101.75 -120.3 -103.25 -120.65 -103.7 -121.4 -104.5 -123.1 -105.1 L-123.5 -105.2 M-128.95 -87.5 Q-132.15 -87.35 -132.75 -86.6 L-133.35 -85.3 -135.35 -86.35 Q-137.6 -87.3 -139.8 -87.25 -142.5 -87.3 -145.2 -86.2 -147.6 -85.35 -148.6 -84.15 L-149.0 -84.2 -149.55 -84.45 -148.4 -85.8 Q-147.55 -87.2 -147.85 -88.15 -148.05 -88.35 -147.9 -88.65 -147.3 -88.2 -146.15 -87.8 L-144.15 -87.5 Q-136.65 -87.5 -130.4 -90.15 L-125.4 -93.05 -125.15 -92.65 -126.55 -90.65 Q-127.1 -90.05 -126.85 -89.05 -126.75 -88.35 -126.25 -87.95 L-124.7 -86.45 -124.75 -86.15 -126.9 -86.7 Q-128.8 -87.3 -128.95 -87.5 M-145.2 -22.0 Q-146.05 -22.9 -146.15 -23.45 L-146.3 -24.1 -146.15 -24.1 Q-143.7 -22.35 -140.85 -18.15 L-136.5 -11.75 Q-134.8 -9.25 -130.4 -5.4 L-128.2 -3.4 -125.7 -1.9 Q-122.6 0.4 -121.5 4.45 L-121.45 4.6 -121.45 4.65 -121.4 4.75 -121.4 4.85 Q-121.1 6.4 -121.15 7.75 L-121.2 7.9 -121.1 8.15 -119.15 12.7 Q-118.55 14.2 -116.15 17.85 L-113.9 21.25 -113.75 21.95 -113.5 22.45 Q-113.25 23.5 -114.25 24.8 -115.6 26.5 -118.05 26.6 -123.45 26.55 -124.85 24.3 -125.65 23.1 -125.3 22.0 -125.4 21.55 -126.4 20.85 L-126.6 20.7 -126.75 21.15 -126.9 21.65 Q-128.4 21.05 -129.65 19.25 L-129.75 19.2 Q-131.25 18.05 -131.9 16.5 L-133.25 13.35 -134.15 11.8 -136.85 8.85 -137.45 8.15 -138.3 7.55 Q-142.25 4.75 -143.0 3.7 L-146.1 -0.05 -148.85 -3.8 -148.75 -4.2 -145.95 -1.3 -145.6 -1.5 -145.0 -1.7 -146.8 -4.65 Q-147.95 -7.0 -149.05 -8.05 L-152.15 -11.4 Q-154.35 -13.45 -155.45 -12.35 -156.7 -12.9 -157.2 -14.0 L-157.9 -15.95 Q-158.3 -17.15 -158.35 -18.85 L-157.95 -18.85 -157.8 -18.4 Q-158.3 -21.4 -157.55 -21.85 L-156.9 -21.8 -156.9 -21.35 -156.75 -20.4 Q-156.05 -18.1 -152.95 -16.0 L-146.4 -12.15 -143.65 -12.25 Q-142.8 -12.95 -143.0 -13.7 -143.35 -14.85 -143.1 -15.25 -143.0 -15.8 -141.55 -16.4 L-142.5 -18.2 -143.55 -20.2 -145.2 -22.0 M-50.75 -56.05 Q-50.9 -56.75 -51.65 -57.55 -52.65 -58.7 -53.5 -58.4 -53.65 -58.05 -53.15 -56.95 -52.7 -55.95 -51.95 -55.35 L-50.9 -55.05 Q-50.75 -55.4 -50.75 -56.05 M-37.15 -28.85 L-36.95 -29.25 -39.45 -33.3 Q-40.9 -35.75 -42.05 -35.6 -41.15 -31.45 -37.7 -28.85 L-37.15 -28.85" fill="#66ff66" fill-opacity="0.34901962" fill-rule="evenodd" stroke="none"/>
      <path d="M131.9 -63.7 L127.9 -65.75 126.8 -66.3 126.6 -66.55 125.5 -67.25 125.2 -67.3 Q124.55 -67.5 124.6 -67.65 123.8 -67.6 123.6 -67.2 L124.9 -65.6 124.85 -65.3 Q121.55 -66.5 118.1 -70.75 114.25 -75.45 114.8 -78.5 114.95 -79.3 115.2 -79.3 L115.85 -79.35 113.9 -82.35 Q112.4 -84.65 112.7 -85.65 L113.05 -85.75 120.05 -79.25 123.85 -76.65 131.55 -71.45 Q129.7 -71.8 127.55 -72.75 L128.85 -71.05 130.6 -69.6 131.9 -68.7 133.15 -67.9 Q137.45 -66.15 142.65 -65.0 L143.9 -64.65 Q144.2 -64.95 143.85 -65.8 L143.65 -65.95 Q143.55 -66.15 144.2 -66.15 165.5 -55.5 165.0 -53.35 164.6 -52.25 163.05 -51.4 L160.8 -50.6 161.25 -50.3 161.1 -49.8 160.35 -49.6 159.8 -49.65 159.95 -48.9 Q159.7 -48.6 158.45 -48.0 L156.9 -47.75 154.75 -48.15 153.7 -48.1 149.55 -48.8 147.15 -49.5 147.0 -50.9 Q142.35 -51.85 139.6 -54.6 137.0 -57.9 135.5 -59.2 L137.0 -59.95 135.9 -61.15 133.0 -62.95 131.9 -63.7 M107.6 -88.45 Q106.15 -88.85 105.4 -90.25 L104.1 -93.05 104.3 -93.25 108.3 -89.4 107.6 -88.45 M-23.85 -3.9 Q-21.95 -5.05 -21.8 -3.1 -21.8 -2.4 -22.9 -1.55 -23.95 -0.85 -24.6 -0.75 -25.65 -0.85 -25.4 -1.0 L-25.6 -1.1 -25.7 -1.7 Q-25.85 -2.85 -23.85 -3.9 M-19.9 -1.95 L-19.8 -1.4 Q-19.8 -1.15 -20.75 -0.2 L-22.1 0.9 -22.6 0.7 -22.7 0.8 -22.85 0.25 Q-20.75 -1.95 -20.1 -2.15 L-19.9 -1.95 M-25.15 1.0 Q-25.5 0.9 -26.2 1.4 L-27.15 1.2 Q-26.6 0.3 -26.25 0.25 L-25.2 0.5 -25.15 1.0 M-25.0 1.7 L-25.95 1.9 -25.3 1.3 Q-24.8 1.05 -24.5 1.3 L-25.0 1.7 M-28.9 1.5 L-28.85 1.55 -29.55 1.6 -31.4 1.55 -32.25 0.5 Q-32.15 0.25 -31.55 0.1 L-29.85 0.25 Q-29.0 0.8 -28.9 1.5 M-122.1 6.2 L-122.35 6.75 -123.45 6.8 -123.6 6.75 -123.8 6.15 Q-124.0 5.55 -123.6 5.2 -123.2 4.75 -122.5 4.75 L-122.2 4.85 -122.1 5.35 Q-121.95 5.85 -122.1 6.2 M-127.95 8.35 L-129.45 8.75 -129.65 9.05 -130.5 8.75 -130.55 8.75 -131.6 8.5 -131.45 8.35 -131.5 7.85 -130.9 7.85 -130.55 7.6 -129.1 7.3 Q-128.2 7.3 -127.8 7.6 -127.75 8.1 -127.95 8.35 M-124.85 7.9 L-123.95 8.0 -123.65 9.45 -124.0 9.65 -124.65 9.35 -124.8 9.3 -124.7 9.8 -124.95 10.2 -125.5 9.8 -126.0 9.35 -125.5 8.8 -125.05 8.85 -125.15 8.65 -125.15 8.0 -124.85 7.9 M-125.3 11.9 L-123.9 10.95 Q-122.6 10.1 -121.95 10.1 -121.9 9.75 -121.6 10.6 -121.5 10.95 -122.55 12.05 L-123.25 12.2 -124.0 12.25 -125.05 12.1 -125.3 11.9" fill="#ffffff" fill-rule="evenodd" stroke="none"/>
    </g>
  </defs>
</svg>
