<?xml version="1.0" encoding="UTF-8" standalone="no"?>
<svg xmlns:ffdec="https://www.free-decompiler.com/flash" xmlns:xlink="http://www.w3.org/1999/xlink" ffdec:objectType="frame" height="380.85px" width="164.2px" xmlns="http://www.w3.org/2000/svg">
  <g transform="matrix(1.0, 0.0, 0.0, 1.0, 80.5, 20.45)">
    <use ffdec:characterId="3378" height="21.75" transform="matrix(-0.0378, -6.9998, 6.9998, -0.0378, -68.5558, 336.6167)" width="50.55" xlink:href="#shape0"/>
    <use ffdec:characterId="3382" height="21.55" transform="matrix(-0.0324, -6.9998, 6.9997, -0.0324, -77.5473, 143.9595)" width="19.35" xlink:href="#shape1"/>
  </g>
  <defs>
    <g id="shape0" transform="matrix(1.0, 0.0, 0.0, 1.0, 44.75, 9.95)">
      <path d="M5.05 -0.35 L4.95 -0.3 Q4.4 0.2 3.9 0.75 L3.6 1.05 2.3 2.0 1.55 2.5 Q-0.55 3.85 -2.9 4.7 L-3.35 4.7 -3.15 4.2 Q-3.05 4.0 -3.0 3.85 L-3.0 3.8 -2.9 3.5 Q-2.85 3.3 -2.95 3.15 L-3.0 3.15 -3.05 3.05 Q-3.3 3.15 -3.45 3.35 L-3.5 3.4 -3.7 3.55 Q-4.45 3.9 -5.2 4.35 L-6.55 5.15 Q-9.95 7.2 -13.6 8.05 -14.6 8.25 -15.6 8.4 -15.15 8.1 -14.65 7.7 L-10.35 3.95 -9.75 3.4 Q-9.45 3.05 -9.25 2.75 L-9.0 2.25 Q-8.8 2.15 -8.7 1.95 -8.75 1.9 -8.8 1.9 L-8.85 1.85 -8.8 1.8 -8.9 1.85 -9.35 1.8 Q-15.5 2.65 -21.4 1.05 -20.2 0.6 -18.95 0.25 -17.65 -0.15 -16.3 -0.35 -13.1 -0.75 -10.1 -1.4 L-8.5 -1.8 -8.25 -1.85 -8.35 -1.95 -8.45 -1.95 -8.25 -2.0 -9.05 -2.8 -9.45 -3.15 Q-9.75 -3.35 -10.05 -3.55 L-9.9 -3.55 Q-8.55 -3.55 -7.25 -3.6 L-6.4 -3.65 -5.0 -3.75 Q-5.1 -4.0 -5.4 -4.05 -6.0 -4.65 -6.85 -5.15 L-8.35 -6.05 -8.85 -6.3 Q-9.4 -6.65 -9.95 -7.0 -6.25 -6.15 -2.6 -4.2 0.05 -2.75 2.8 -2.1 L3.25 -2.05 4.9 -1.05 5.2 -0.95 5.3 -1.1 5.35 -1.15 5.35 -1.05 5.25 -0.75 5.2 -0.7 5.3 -0.65 5.15 -0.65 5.05 -0.35 M5.1 -0.85 L5.2 -0.95 5.05 -0.95 4.85 -1.0 4.8 -1.0 4.05 -1.25 Q4.45 -1.1 4.8 -0.9 L5.05 -0.8 5.1 -0.85 M-37.45 0.8 L-37.3 0.8 Q-36.6 0.8 -36.6 1.15 -36.6 1.25 -36.6 1.4 L-36.65 1.45 Q-36.8 1.7 -37.2 1.9 L-37.25 1.95 -37.65 1.9 Q-37.65 1.85 -37.7 1.65 L-37.75 1.45 -37.65 0.95 -37.65 0.85 -37.6 0.8 -37.45 0.8 M-40.0 2.45 L-40.25 2.45 Q-40.4 2.7 -40.65 2.8 -40.9 2.9 -41.35 2.95 L-41.65 2.95 -41.95 2.9 -42.0 2.8 -42.05 2.8 -42.25 2.75 Q-42.5 2.65 -42.7 2.45 -42.5 2.15 -42.0 2.1 L-41.2 2.05 -41.25 2.2 -41.0 2.0 Q-40.65 1.8 -40.35 1.7 L-40.25 1.65 Q-39.6 1.65 -39.6 2.05 -39.6 2.35 -40.0 2.45" fill="#ffffff" fill-rule="evenodd" stroke="none"/>
      <path d="M5.35 -1.05 L5.6 -0.8 5.4 -0.7 5.25 -0.75 5.35 -1.05 M4.8 -1.0 L4.85 -1.0 5.05 -0.95 5.2 -0.95 5.1 -0.85 5.05 -0.9 5.05 -0.8 4.8 -0.9 4.85 -1.0 4.8 -1.0 M-36.6 1.4 Q-36.4 1.45 -36.35 1.65 L-36.65 1.45 -36.6 1.4" fill="#5cfff6" fill-opacity="0.09803922" fill-rule="evenodd" stroke="none"/>
      <path d="M-10.4 -4.35 L-9.45 -4.55 Q-8.1 -4.6 -6.85 -4.4 -10.9 -6.75 -15.55 -7.8 -18.0 -8.4 -19.25 -9.3 L-19.15 -9.3 Q-11.1 -10.0 -4.2 -6.2 -1.85 -4.9 0.5 -3.6 L2.6 -2.4 3.15 -2.05 3.25 -2.05 2.8 -2.1 Q0.05 -2.75 -2.6 -4.2 -6.25 -6.15 -9.95 -7.0 -9.4 -6.65 -8.85 -6.3 L-8.35 -6.05 -6.85 -5.15 Q-6.0 -4.65 -5.4 -4.05 -5.1 -4.0 -5.0 -3.75 L-6.4 -3.65 -7.25 -3.6 Q-8.55 -3.55 -9.9 -3.55 L-10.05 -3.55 Q-9.75 -3.35 -9.45 -3.15 L-9.05 -2.8 -8.25 -2.0 -8.45 -1.95 -8.35 -1.95 -8.25 -1.85 -8.5 -1.8 -10.1 -1.4 Q-13.1 -0.75 -16.3 -0.35 -17.65 -0.15 -18.95 0.25 -20.2 0.6 -21.4 1.05 -15.5 2.65 -9.35 1.8 L-8.9 1.85 -8.8 1.8 -8.85 1.85 -8.8 1.9 Q-8.75 1.9 -8.7 1.95 -8.8 2.15 -9.0 2.25 L-9.25 2.75 Q-9.45 3.05 -9.75 3.4 L-10.35 3.95 -14.65 7.7 Q-15.15 8.1 -15.6 8.4 -14.6 8.25 -13.6 8.05 -9.95 7.2 -6.55 5.15 L-5.2 4.35 Q-4.45 3.9 -3.7 3.55 L-3.5 3.4 -3.45 3.35 Q-3.3 3.15 -3.05 3.05 L-3.0 3.15 -2.95 3.15 Q-2.85 3.3 -2.9 3.5 L-3.0 3.8 -3.0 3.85 Q-3.05 4.0 -3.15 4.2 L-3.35 4.7 -2.9 4.7 Q-0.55 3.85 1.55 2.5 L2.3 2.0 3.6 1.05 3.9 0.75 Q4.4 0.2 4.95 -0.3 L5.05 -0.35 4.95 -0.15 4.5 0.35 4.75 0.2 4.6 0.35 4.6 0.4 4.55 0.45 4.45 0.6 3.65 1.5 2.8 2.55 2.6 2.7 2.6 2.75 2.55 2.75 2.3 2.95 2.25 3.0 1.35 3.6 Q-0.6 4.85 -2.65 5.45 -3.3 5.65 -3.9 5.75 L-4.4 5.85 -4.3 5.2 Q-4.25 4.7 -4.05 4.3 L-5.55 5.15 -9.9 7.75 Q-12.25 9.1 -14.95 9.85 -19.3 11.0 -23.1 11.15 L-21.55 10.05 -21.1 9.75 Q-16.75 6.75 -12.05 4.0 L-11.65 3.8 -10.75 3.25 -10.65 3.2 -10.25 2.95 -11.05 3.05 -12.0 3.1 Q-13.9 3.25 -15.8 3.2 -18.85 3.15 -21.85 2.6 -23.75 2.3 -24.65 1.55 L-24.85 1.55 -24.7 1.5 -24.8 1.4 -25.15 1.4 -24.9 1.3 -25.1 1.05 -25.0 1.0 -24.45 1.1 Q-21.8 0.05 -18.75 -0.6 L-14.45 -1.45 -10.8 -2.0 -10.7 -2.05 -10.45 -2.05 -10.05 -1.95 -9.95 -2.0 Q-10.55 -2.4 -10.9 -2.95 -11.2 -3.4 -11.45 -3.85 L-11.3 -4.05 Q-11.2 -4.15 -11.0 -4.2 L-10.8 -4.25 -10.5 -4.35 -10.4 -4.35 M-37.45 0.8 Q-37.3 0.7 -37.15 0.7 -36.5 0.6 -36.05 1.0 -35.6 1.3 -35.4 1.75 L-35.5 1.8 -35.8 1.9 -36.15 1.95 -36.25 1.85 -36.3 1.65 -36.35 1.65 Q-36.4 1.45 -36.6 1.4 -36.6 1.25 -36.6 1.15 -36.6 0.8 -37.3 0.8 L-37.45 0.8 M-37.9 2.65 Q-39.15 3.85 -40.1 2.6 L-40.0 2.45 Q-39.6 2.35 -39.6 2.05 -39.6 1.65 -40.25 1.65 L-40.35 1.7 Q-40.65 1.8 -41.0 2.0 L-41.25 2.2 -41.2 2.05 -42.0 2.1 Q-42.5 2.15 -42.7 2.45 -42.5 2.65 -42.25 2.75 L-42.05 2.8 -42.0 2.8 -41.95 2.9 -41.65 2.95 -41.35 2.95 -41.55 3.15 -43.15 2.8 Q-43.75 2.7 -44.15 2.45 L-41.3 1.7 -39.7 1.6 Q-39.45 1.65 -39.45 1.9 L-39.45 2.0 -39.5 2.2 Q-39.55 2.55 -39.3 2.6 L-39.1 2.65 Q-38.8 2.65 -38.55 2.5 -38.15 2.25 -37.95 1.8 -37.9 1.75 -37.8 1.7 L-37.85 1.55 -37.85 1.45 -37.9 1.35 -37.9 1.25 -37.85 1.15 -37.65 0.95 -37.75 1.45 -37.7 1.65 Q-37.65 1.85 -37.65 1.9 L-37.25 1.95 -37.2 1.9 -37.85 2.6 -37.9 2.65" fill="#ffffff" fill-opacity="0.2" fill-rule="evenodd" stroke="none"/>
      <path d="M3.25 -2.05 L3.15 -2.05 2.6 -2.4 0.5 -3.6 Q-1.85 -4.9 -4.2 -6.2 -11.1 -10.0 -19.15 -9.3 L-19.25 -9.3 Q-18.0 -8.4 -15.55 -7.8 -10.9 -6.75 -6.85 -4.4 -8.1 -4.6 -9.45 -4.55 L-10.4 -4.35 -10.75 -4.35 -10.85 -4.3 -10.8 -4.25 -11.0 -4.2 Q-11.2 -4.15 -11.3 -4.05 L-11.45 -3.85 Q-11.2 -3.4 -10.9 -2.95 -10.55 -2.4 -9.95 -2.0 L-10.05 -1.95 -10.45 -2.05 -10.7 -2.05 -10.8 -2.0 -14.45 -1.45 -18.75 -0.6 Q-21.8 0.05 -24.45 1.1 L-25.0 1.0 -25.1 1.05 -24.9 1.3 -25.15 1.4 -24.8 1.4 -24.7 1.5 -24.85 1.55 -24.65 1.55 Q-23.75 2.3 -21.85 2.6 -18.85 3.15 -15.8 3.2 -13.9 3.25 -12.0 3.1 L-11.05 3.05 -10.25 2.95 -10.65 3.2 -10.75 3.25 -11.65 3.8 -12.05 4.0 Q-16.75 6.75 -21.1 9.75 L-21.55 10.0 -21.6 10.05 -21.55 10.05 -23.1 11.15 Q-19.3 11.0 -14.95 9.85 -12.25 9.1 -9.9 7.75 L-5.55 5.15 -4.05 4.3 Q-4.25 4.7 -4.3 5.2 L-4.4 5.85 -3.9 5.75 -4.1 5.95 Q-3.4 5.8 -2.65 5.45 -0.6 4.85 1.35 3.6 L2.25 3.0 2.3 2.95 2.55 2.75 2.6 2.75 2.6 2.7 2.8 2.55 3.65 1.5 4.45 0.6 4.55 0.45 4.6 0.4 4.6 0.35 4.75 0.2 4.5 0.35 4.95 -0.15 Q4.7 1.0 3.75 2.25 2.65 3.75 0.6 5.15 -1.15 6.4 -3.05 7.2 -4.9 7.95 -6.0 7.95 -6.9 7.95 -6.9 7.25 -6.9 7.05 -6.8 6.8 L-7.85 7.3 -10.8 8.4 Q-12.65 9.1 -13.7 9.6 -14.85 10.0 -19.0 10.85 -23.7 11.8 -25.2 11.8 -25.6 11.8 -25.8 11.7 -26.1 11.55 -26.1 11.15 -26.1 11.1 -21.05 8.05 -16.0 5.0 -15.95 5.0 -15.85 5.0 -14.2 4.2 -16.45 4.3 -19.15 4.3 L-20.7 4.15 -23.7 3.75 Q-27.85 3.05 -27.85 2.05 -27.85 1.3 -25.15 0.25 L-24.5 0.0 -23.8 -0.3 Q-20.75 -1.6 -18.35 -2.1 -15.9 -2.6 -14.05 -2.8 L-11.8 -2.95 Q-13.45 -4.45 -13.45 -4.5 -13.45 -5.25 -12.45 -5.5 -11.7 -5.7 -11.45 -5.6 -12.3 -5.95 -14.0 -6.45 L-16.95 -7.35 Q-20.4 -8.45 -20.4 -9.1 -20.4 -9.75 -18.35 -9.9 L-16.3 -9.95 Q-10.6 -9.95 -5.1 -7.75 0.7 -5.5 5.3 -1.1 L5.2 -0.95 4.9 -1.05 3.25 -2.05 M-35.8 1.9 L-35.5 1.8 -35.4 1.75 Q-35.6 1.3 -36.05 1.0 -36.5 0.6 -37.15 0.7 -37.3 0.7 -37.45 0.8 L-37.6 0.8 -37.65 0.85 -37.65 0.95 -37.85 1.15 -37.9 1.25 -37.9 1.35 -37.85 1.45 -37.85 1.55 -37.8 1.7 Q-37.9 1.75 -37.95 1.8 -38.15 2.25 -38.55 2.5 -38.8 2.65 -39.1 2.65 L-39.3 2.6 Q-39.55 2.55 -39.5 2.2 L-39.45 2.0 -39.45 1.9 Q-39.45 1.65 -39.7 1.6 L-41.3 1.7 -44.15 2.45 Q-43.75 2.7 -43.15 2.8 L-41.55 3.15 -41.35 2.95 Q-40.9 2.9 -40.65 2.8 -40.4 2.7 -40.25 2.45 L-40.0 2.45 -40.1 2.6 Q-39.15 3.85 -37.9 2.65 L-38.15 3.0 Q-38.3 3.3 -38.45 3.4 -38.6 3.5 -38.95 3.5 -39.3 3.5 -39.5 3.4 -39.7 3.35 -40.05 3.05 -40.1 3.6 -40.55 3.75 L-41.0 3.75 Q-44.75 3.1 -44.75 2.2 -44.75 1.85 -43.8 1.45 -43.0 1.15 -42.8 1.15 -42.55 1.15 -42.05 1.35 L-41.5 1.55 Q-41.4 1.0 -40.9 0.8 L-40.2 0.75 -39.5 0.8 Q-39.0 1.0 -38.85 1.6 -38.45 1.2 -37.6 0.2 -37.4 -0.05 -36.95 -0.05 -35.85 -0.05 -35.25 0.95 -35.05 1.35 -35.05 1.65 -35.1 2.0 -35.45 2.0 -35.55 2.0 -35.8 1.9" fill="#ffffff" fill-opacity="0.101960786" fill-rule="evenodd" stroke="none"/>
      <path d="M5.8 -0.75 Q5.95 -0.35 5.35 0.15 L4.8 0.5 4.75 0.6 Q4.35 1.3 2.5 2.5 1.0 3.45 -0.8 4.35 -2.5 5.25 -2.85 5.25 -3.85 5.25 -3.85 4.2 L-3.85 4.15 Q-4.5 4.6 -5.35 5.0 -6.6 5.7 -7.4 5.95 L-11.8 7.75 Q-15.0 9.0 -15.3 9.0 -15.65 9.0 -15.9 8.8 -16.15 8.6 -16.15 8.2 -16.15 7.7 -12.25 4.75 L-9.35 2.55 -15.7 2.25 Q-22.4 1.85 -22.4 1.3 -22.4 -0.65 -12.25 -1.7 L-8.0 -2.05 Q-10.05 -2.55 -10.05 -3.4 -10.05 -3.9 -9.05 -4.1 L-8.0 -4.2 -6.85 -4.15 Q-9.85 -5.65 -9.85 -6.75 -9.85 -7.25 -9.4 -7.35 L-8.9 -7.35 Q-7.2 -7.35 2.9 -2.0 4.0 -1.8 4.7 -1.55 5.65 -1.2 5.8 -0.75 M4.3 -0.7 L2.15 -0.95 -0.45 -1.2 Q-5.2 -1.2 -12.05 -0.35 L-18.35 0.45 Q-18.55 0.45 -19.05 0.6 L-19.75 0.8 -19.8 0.9 -14.65 1.25 -8.95 1.6 -4.85 1.35 -0.65 1.05 -0.25 0.9 Q0.9 0.4 2.25 0.05 L3.15 -0.2 4.3 -0.7 M0.4 1.8 L0.0 1.9 Q-1.75 2.8 -2.9 4.25 L-2.85 4.35 0.3 2.7 Q1.65 2.0 2.6 1.35 L0.4 1.8 M-6.1 -2.85 L-3.8 -2.6 -3.85 -2.6 -5.65 -2.9 Q-6.8 -3.05 -7.45 -3.3 L-8.45 -3.3 -8.45 -3.25 Q-7.55 -3.0 -6.1 -2.85 M-2.55 -3.6 L-3.35 -4.05 Q-3.85 -4.35 -4.15 -4.35 L-3.3 -3.9 Q-2.75 -3.55 -2.55 -3.6 M-1.35 -3.2 L-1.75 -3.35 Q-2.0 -3.45 -2.1 -3.45 L-2.2 -3.45 Q-2.0 -3.3 -1.7 -3.2 L-1.35 -3.2 M-9.65 5.5 Q-8.7 5.5 -6.9 4.3 -5.8 3.6 -4.7 2.7 -6.55 2.65 -8.3 3.45 -10.3 4.35 -12.05 6.25 L-12.05 6.3 -10.85 5.9 Q-9.8 5.5 -9.65 5.5 M-36.95 1.2 L-37.2 1.2 Q-37.25 1.2 -37.4 1.25 L-37.55 1.35 -37.6 1.35 Q-37.6 1.45 -37.45 1.55 -37.35 1.7 -37.3 1.7 L-36.95 1.55 -36.95 1.2 M-36.25 0.7 Q-35.95 1.0 -35.95 1.45 -35.9 1.85 -36.25 2.15 -36.6 2.45 -37.3 2.45 -37.75 2.45 -38.1 2.2 -38.55 1.95 -38.55 1.5 -38.55 0.8 -37.75 0.55 L-37.05 0.4 Q-36.55 0.4 -36.25 0.7 M-39.35 1.7 Q-39.05 2.0 -39.25 2.4 -39.4 2.8 -39.95 3.1 -40.5 3.4 -41.3 3.4 -41.75 3.4 -42.2 3.2 -42.9 2.85 -42.9 2.15 L-42.85 1.85 -42.8 1.8 -42.45 1.7 -41.95 1.75 Q-41.8 1.75 -41.2 1.55 -40.65 1.35 -40.45 1.35 -39.7 1.35 -39.35 1.7 M-41.8 2.35 Q-41.7 2.5 -41.5 2.6 -41.3 2.75 -41.05 2.75 -40.3 2.6 -40.15 2.15 L-41.0 2.3 -41.8 2.35" fill="#e7ff00" fill-opacity="0.4" fill-rule="evenodd" stroke="none"/>
    </g>
    <g id="shape1" transform="matrix(1.0, 0.0, 0.0, 1.0, 21.6, 11.25)">
      <path d="M-12.5 -7.35 Q-16.55 -9.0 -20.9 -9.75 -21.15 -9.75 -21.1 -10.0 L-21.1 -10.1 Q-21.15 -10.5 -20.75 -10.6 -19.75 -10.95 -18.7 -11.0 -17.95 -11.05 -17.45 -11.25 -13.1 -11.4 -9.0 -10.25 -7.9 -9.95 -6.9 -9.55 -4.55 -8.8 -2.65 -7.4 L-2.7 -7.4 Q-2.45 -7.2 -2.4 -6.95 L-2.25 -6.85 -2.3 -6.5 -2.35 -6.5 -2.45 -6.7 -2.6 -6.8 -2.7 -6.95 Q-5.0 -7.55 -5.6 -4.65 -6.65 0.2 -4.75 4.6 -4.5 4.8 -4.45 5.2 -4.05 5.75 -3.25 5.45 L-3.25 5.4 Q-2.85 5.45 -2.35 5.3 -2.55 5.6 -2.7 5.8 L-2.55 5.85 Q-2.65 6.25 -2.85 6.6 L-3.05 6.7 Q-4.5 7.45 -5.95 8.05 -6.4 8.35 -6.9 8.55 -9.45 9.65 -12.0 10.0 -14.65 10.65 -17.85 9.95 -15.8 8.7 -13.45 7.6 -16.85 7.85 -20.45 6.45 -16.1 5.2 -11.6 3.25 L-10.45 2.7 Q-15.75 2.45 -21.05 2.7 -19.35 0.85 -17.0 -0.5 -14.55 -2.0 -11.75 -2.6 -16.75 -3.8 -21.6 -4.45 -21.3 -5.45 -20.2 -5.75 -19.45 -5.95 -18.7 -6.15 -16.3 -6.95 -13.85 -7.3 L-12.5 -7.35 M-4.05 5.2 L-4.3 5.25 -4.55 4.8 -4.05 5.2 M-4.65 -7.6 L-4.75 -7.45 -5.25 -6.55 -4.65 -7.6 M-15.75 0.6 L-16.2 0.8 -15.95 0.8 -15.75 0.6" fill="#ffffff" fill-opacity="0.69803923" fill-rule="evenodd" stroke="none"/>
    </g>
  </defs>
</svg>
