<?xml version="1.0" encoding="UTF-8" standalone="no"?>
<svg xmlns:ffdec="https://www.free-decompiler.com/flash" xmlns:xlink="http://www.w3.org/1999/xlink" ffdec:objectType="frame" height="281.4px" width="521.5px" xmlns="http://www.w3.org/2000/svg">
  <g transform="matrix(1.0, 0.0, 0.0, 1.0, 257.95, 260.75)">
    <use ffdec:characterId="2453" height="32.9" transform="matrix(7.0, 0.0, 0.0, 7.0, -168.0, -252.0)" width="61.65" xlink:href="#shape0"/>
    <use ffdec:characterId="2454" height="32.05" transform="matrix(7.0, 0.0, 0.0, 7.0, -191.1, -244.3)" width="59.75" xlink:href="#shape1"/>
  </g>
  <defs>
    <g id="shape0" transform="matrix(1.0, 0.0, 0.0, 1.0, 24.0, 36.0)">
      <path d="M8.8 -36.0 Q9.65 -36.15 10.3 -35.2 L10.35 -35.2 10.35 -34.85 10.25 -34.7 Q10.2 -34.65 10.1 -34.65 8.95 -34.45 8.5 -34.25 8.3 -34.15 8.3 -34.0 L8.25 -33.85 8.15 -33.75 Q8.1 -33.7 8.0 -33.7 L7.9 -33.7 Q7.6 -33.5 7.35 -33.5 7.1 -33.5 6.9 -33.55 L6.85 -33.55 Q6.55 -33.7 6.45 -33.85 L6.4 -33.95 6.4 -34.1 Q6.5 -34.45 6.95 -34.55 L7.05 -34.6 7.25 -34.6 7.1 -34.75 Q7.0 -34.9 7.05 -35.1 L7.1 -35.1 Q7.15 -35.3 7.5 -35.35 8.4 -35.95 8.8 -36.0 M5.3 -34.4 Q5.3 -33.95 5.05 -33.95 L4.9 -33.95 Q4.6 -33.85 4.0 -33.45 3.35 -32.95 3.1 -32.75 L2.85 -32.1 Q2.65 -31.6 2.6 -31.5 2.7 -31.4 3.25 -31.2 3.0 -31.65 3.0 -32.05 3.0 -32.15 3.05 -32.2 L3.2 -32.3 Q3.3 -32.4 4.0 -32.05 L4.2 -32.0 4.3 -31.9 Q5.65 -32.0 6.25 -32.2 6.6 -32.3 6.7 -32.5 6.7 -32.55 6.75 -32.6 6.8 -32.65 6.9 -32.65 L8.35 -32.9 9.35 -33.0 10.15 -32.95 10.2 -32.95 Q10.25 -32.95 10.3 -32.95 L10.4 -32.85 Q10.55 -32.55 11.1 -31.95 L12.0 -31.0 12.05 -30.85 12.05 -30.7 11.95 -30.55 11.8 -30.45 Q12.05 -30.25 12.45 -30.05 12.9 -29.8 13.3 -29.75 L13.5 -29.9 14.1 -30.4 Q14.65 -30.75 14.75 -30.9 L14.6 -31.1 14.6 -31.15 14.1 -31.6 Q14.05 -31.7 14.05 -31.75 L14.0 -31.75 Q14.0 -31.85 14.0 -31.9 L14.05 -32.0 Q14.1 -32.1 14.15 -32.15 14.3 -32.25 14.45 -32.35 L14.55 -32.35 14.9 -32.45 15.55 -32.5 15.7 -32.45 Q17.35 -32.45 19.25 -31.2 L19.3 -31.2 Q20.1 -30.65 20.65 -30.1 21.25 -29.45 21.25 -29.1 21.25 -28.9 21.05 -28.55 20.95 -28.45 20.95 -28.35 20.95 -27.9 21.0 -27.45 L21.0 -27.4 Q21.05 -27.05 21.0 -26.85 20.95 -26.65 20.55 -26.15 L20.55 -26.15 19.35 -24.8 19.2 -24.7 19.05 -24.7 Q19.0 -24.75 18.9 -24.8 L18.85 -24.85 Q18.75 -24.95 18.75 -25.05 L18.75 -25.65 18.7 -26.6 Q18.6 -27.1 18.3 -27.4 17.6 -28.2 17.3 -28.4 16.5 -28.95 15.3 -29.05 L15.05 -28.85 15.05 -28.8 Q15.15 -28.6 15.05 -28.45 L14.95 -28.35 14.85 -28.3 14.35 -28.3 14.05 -28.1 14.1 -28.1 Q14.1 -28.0 14.1 -27.9 14.05 -27.8 14.0 -27.75 L13.75 -27.55 13.5 -27.25 Q13.15 -26.8 12.3 -26.65 L12.05 -26.65 Q11.75 -26.7 11.7 -26.85 11.65 -26.9 11.6 -27.0 11.6 -27.05 11.65 -27.15 11.7 -27.2 11.75 -27.25 L12.5 -27.85 12.55 -27.85 Q13.1 -28.2 13.6 -28.3 13.4 -28.5 13.45 -28.7 L13.45 -28.75 13.4 -28.7 Q13.25 -28.4 12.55 -28.4 L11.9 -28.45 11.8 -28.45 Q11.4 -28.6 11.25 -29.0 11.2 -29.2 11.2 -29.55 L11.1 -29.8 11.0 -30.0 10.8 -30.05 Q10.7 -30.05 10.65 -30.15 L10.5 -30.4 10.45 -30.45 10.4 -30.55 10.1 -30.75 Q9.6 -31.05 9.5 -31.1 L9.15 -31.25 8.45 -31.45 8.4 -31.45 7.9 -31.5 Q6.7 -31.5 6.1 -31.3 L5.95 -31.25 6.0 -31.1 6.0 -31.0 5.95 -30.9 5.8 -30.7 5.75 -30.7 5.55 -30.55 5.5 -30.5 4.95 -30.35 4.8 -30.2 4.8 -30.1 Q4.8 -30.0 4.7 -29.9 4.6 -29.85 4.5 -29.8 4.35 -29.8 4.15 -29.65 3.8 -29.35 3.25 -29.3 L3.2 -29.3 2.5 -29.25 1.55 -29.2 1.6 -29.2 0.8 -29.4 0.75 -29.4 -0.2 -29.35 -0.45 -29.35 -0.7 -29.5 Q-0.8 -29.4 -0.9 -29.35 L-0.95 -29.35 Q-1.7 -29.05 -1.95 -29.2 -2.2 -29.05 -2.45 -28.95 L-2.55 -28.75 Q-2.8 -28.35 -2.8 -28.1 L-2.8 -28.05 -2.75 -28.0 Q-2.6 -27.8 -2.6 -27.6 -2.6 -27.1 -3.1 -26.9 L-3.2 -26.85 -3.7 -26.9 -4.25 -26.95 -5.45 -27.0 -5.55 -27.0 -5.65 -27.1 -5.85 -27.35 -5.8 -27.3 -5.8 -27.2 Q-5.8 -26.85 -6.15 -26.35 -6.5 -25.9 -6.8 -25.65 L-7.35 -25.3 -7.4 -25.3 Q-7.85 -25.05 -8.45 -25.05 L-9.1 -25.05 -9.25 -25.1 -9.3 -25.15 -9.35 -25.15 -9.35 -25.2 Q-9.55 -25.3 -9.6 -25.4 L-9.65 -25.55 -9.6 -25.55 Q-9.6 -25.65 -9.55 -25.7 L-9.4 -25.8 Q-8.45 -26.0 -8.05 -26.3 L-8.0 -26.3 Q-7.85 -26.4 -7.75 -26.55 -7.95 -26.6 -7.95 -26.75 L-7.95 -27.05 Q-7.95 -27.4 -7.85 -27.55 -7.8 -27.7 -7.45 -27.7 -7.25 -27.7 -7.05 -27.9 L-7.15 -27.95 -7.25 -28.1 -7.3 -28.25 Q-7.3 -28.45 -7.0 -28.65 L-6.95 -28.65 -6.7 -28.75 -6.3 -28.75 -6.1 -28.65 Q-5.95 -28.5 -6.1 -28.25 L-6.1 -28.2 -5.9 -27.6 -5.95 -27.8 -5.85 -28.65 -5.7 -29.8 Q-5.7 -29.9 -5.6 -29.95 -5.5 -30.05 -5.4 -30.05 L-5.25 -30.05 Q-5.15 -30.05 -5.05 -30.0 -5.0 -29.9 -4.95 -29.85 L-4.95 -29.65 -5.0 -29.6 -4.9 -29.55 -4.9 -29.6 -4.85 -29.55 Q-4.75 -29.5 -4.75 -29.4 L-4.7 -29.3 Q-4.7 -29.2 -4.75 -29.1 L-4.9 -28.7 -4.85 -28.7 -4.65 -28.65 -4.5 -28.65 Q-4.3 -28.8 -4.35 -29.2 -4.35 -29.3 -4.3 -29.35 -4.25 -29.45 -4.15 -29.5 L-3.95 -29.55 -3.55 -29.6 Q-3.35 -29.6 -3.25 -29.5 -2.3 -30.0 -1.3 -30.8 L-1.3 -30.85 -0.9 -31.2 Q-0.55 -31.65 -0.4 -31.9 -0.35 -32.1 -0.15 -32.7 0.0 -33.3 0.3 -33.55 L0.4 -33.6 1.85 -33.95 2.8 -34.1 Q3.0 -34.35 3.45 -34.6 4.1 -35.0 4.7 -35.05 L4.85 -35.05 Q5.0 -35.0 5.15 -34.85 5.3 -34.65 5.3 -34.4 M14.35 -23.2 Q14.6 -23.2 14.7 -23.05 14.9 -23.05 15.1 -23.2 15.5 -23.6 15.75 -23.65 L15.9 -23.65 Q16.2 -23.65 16.2 -23.2 16.2 -22.9 16.0 -22.75 L15.95 -22.75 15.9 -22.7 15.8 -22.65 Q15.55 -22.5 15.15 -22.25 L14.45 -21.8 14.4 -21.8 Q13.5 -21.25 12.6 -21.15 L12.5 -21.15 12.2 -21.2 12.15 -21.25 11.85 -21.35 Q11.8 -21.45 11.8 -21.55 11.8 -21.6 11.85 -21.7 L11.95 -21.8 12.7 -22.05 13.5 -22.35 13.65 -22.6 Q13.8 -23.0 14.15 -23.15 L14.35 -23.2 M22.5 -21.05 Q22.45 -21.4 23.2 -21.8 L23.7 -22.05 23.8 -22.15 24.0 -22.25 24.35 -22.2 Q24.45 -22.2 24.5 -22.15 L24.6 -22.0 24.65 -21.95 24.65 -21.9 24.75 -21.8 Q24.8 -21.7 24.8 -21.65 24.85 -21.55 24.8 -21.45 L24.75 -21.4 Q24.7 -21.35 24.65 -21.3 L24.45 -21.3 Q24.35 -21.3 24.3 -21.35 L24.15 -21.5 Q23.95 -21.45 23.7 -21.1 L23.4 -20.7 Q23.5 -20.6 23.5 -20.5 L23.6 -20.4 23.6 -20.35 Q23.9 -20.15 24.05 -19.95 L24.15 -19.95 Q24.25 -20.0 24.55 -20.1 L25.15 -20.2 Q25.5 -20.2 26.3 -19.95 26.4 -19.9 26.45 -19.8 26.5 -19.7 26.5 -19.6 L26.45 -19.5 Q26.45 -19.45 26.35 -19.35 26.3 -19.3 26.2 -19.3 L26.0 -19.35 25.95 -19.35 25.3 -19.4 24.85 -19.35 24.8 -19.3 24.05 -19.05 23.8 -19.1 Q23.7 -19.1 23.65 -19.15 L23.45 -19.3 Q23.15 -19.45 23.0 -19.65 22.95 -19.75 22.95 -19.85 L22.95 -19.95 23.0 -20.05 22.95 -20.05 Q22.65 -20.35 22.65 -20.65 22.5 -20.8 22.5 -21.05 M8.2 -23.75 Q8.4 -23.45 8.4 -23.2 8.4 -22.85 8.3 -22.7 8.2 -22.55 7.9 -22.4 L7.85 -22.4 6.2 -21.95 6.25 -21.95 5.45 -21.9 4.7 -21.9 4.7 -21.85 Q4.7 -21.75 4.65 -21.65 4.55 -21.55 4.45 -21.55 L3.85 -21.5 3.8 -21.35 Q3.65 -21.05 3.45 -21.0 L3.45 -20.95 3.3 -20.95 2.7 -20.9 1.75 -20.85 1.5 -20.9 Q1.25 -21.0 1.2 -21.15 1.15 -21.25 1.15 -21.3 1.2 -21.4 1.25 -21.5 1.5 -21.75 1.8 -21.65 L1.8 -21.7 Q2.05 -21.65 2.65 -21.9 L2.7 -21.9 Q2.9 -21.95 3.0 -22.1 L3.15 -22.3 3.25 -22.4 3.4 -22.45 4.2 -22.4 4.55 -22.25 4.6 -22.4 Q4.7 -22.45 4.8 -22.45 5.4 -22.55 5.9 -23.0 6.35 -23.35 6.35 -23.65 6.35 -24.0 6.15 -24.15 L6.15 -24.2 Q5.75 -24.5 4.65 -24.7 L4.65 -24.7 4.6 -24.7 Q4.45 -24.75 4.3 -24.9 4.2 -25.0 4.15 -25.15 L4.15 -25.3 3.75 -25.25 Q3.35 -25.25 3.2 -25.45 3.15 -25.55 3.2 -25.65 3.2 -26.3 3.8 -26.15 4.0 -26.1 4.2 -26.0 4.4 -25.85 4.4 -25.7 L4.35 -25.5 4.5 -25.5 4.5 -25.55 Q4.45 -25.85 4.6 -26.0 L4.7 -26.1 4.8 -26.1 5.05 -26.15 5.15 -26.15 Q8.35 -25.05 8.25 -24.55 8.25 -24.2 8.1 -24.15 8.05 -24.15 8.0 -24.1 L8.2 -23.75 M3.35 -25.25 L3.3 -25.3 3.35 -25.3 3.4 -25.25 3.35 -25.25 M1.95 -14.85 L2.35 -14.45 2.7 -14.0 2.7 -13.7 Q2.6 -13.6 2.5 -13.55 L2.3 -13.5 Q2.1 -13.55 1.95 -13.65 L1.75 -13.85 1.75 -13.8 Q1.45 -14.0 0.85 -14.0 0.45 -14.0 -0.2 -13.8 L-0.4 -13.8 Q-0.5 -13.8 -0.55 -13.9 L-0.6 -14.0 -0.6 -14.35 Q-0.6 -14.55 -0.5 -14.8 -0.4 -15.0 -0.25 -15.1 L-0.05 -15.15 1.0 -15.0 1.85 -14.9 1.95 -14.85 M5.8 -10.9 Q6.35 -10.65 6.4 -10.4 6.4 -10.3 6.4 -10.2 6.35 -10.1 6.25 -10.05 L6.05 -10.05 Q5.45 -10.2 4.75 -10.5 3.75 -11.0 3.8 -11.45 3.75 -11.75 4.1 -11.95 4.4 -12.15 4.8 -12.15 L4.95 -12.1 5.15 -11.9 Q5.2 -11.8 5.15 -11.7 L5.05 -11.55 5.0 -11.5 5.0 -11.35 5.25 -11.2 5.25 -11.15 Q5.35 -11.1 5.8 -10.9 M8.5 -7.5 L8.65 -7.55 10.65 -7.55 10.8 -7.5 11.9 -6.7 Q12.7 -6.05 12.7 -5.6 12.7 -5.45 12.45 -5.1 L12.45 -5.1 Q12.3 -4.9 12.3 -4.8 12.25 -4.6 11.95 -4.25 L11.95 -4.2 11.6 -3.9 Q11.55 -3.85 11.45 -3.85 11.35 -3.85 11.3 -3.9 11.2 -3.95 11.2 -4.05 11.1 -4.2 11.15 -4.45 L11.2 -4.7 11.2 -4.8 11.15 -4.8 11.05 -4.85 Q11.0 -4.85 10.95 -4.9 L10.05 -5.8 9.85 -5.9 9.5 -6.05 9.15 -6.15 8.7 -6.2 Q8.15 -6.2 7.0 -5.85 L5.85 -5.5 5.55 -5.5 Q5.45 -5.55 5.4 -5.6 5.3 -5.7 5.3 -5.8 5.3 -5.9 5.35 -5.95 L5.45 -6.1 Q5.5 -6.2 5.6 -6.25 6.25 -6.45 6.8 -6.7 7.3 -6.9 8.2 -6.9 L8.4 -6.9 8.35 -7.25 Q8.35 -7.3 8.4 -7.4 L8.5 -7.5 M0.05 -8.4 Q0.05 -8.5 0.15 -8.6 0.2 -8.65 0.3 -8.7 L0.25 -8.7 Q0.35 -8.7 0.45 -8.7 L2.05 -8.1 Q2.55 -7.95 3.1 -7.95 L3.4 -7.95 3.45 -8.25 Q3.45 -8.35 3.55 -8.45 3.6 -8.5 3.75 -8.5 3.9 -8.55 4.35 -8.75 L4.4 -8.8 Q4.8 -8.95 5.35 -8.95 L5.55 -8.9 Q5.6 -8.85 5.65 -8.75 5.7 -8.65 5.65 -8.55 5.6 -8.45 5.5 -8.4 L5.3 -8.3 5.3 -8.25 5.2 -8.25 Q5.0 -8.15 4.85 -8.05 4.55 -7.9 4.45 -7.65 L4.45 -7.55 4.35 -7.5 4.3 -7.45 4.35 -7.2 Q4.4 -7.0 3.85 -6.65 3.8 -6.6 3.7 -6.6 L2.6 -6.7 2.5 -6.7 2.15 -6.75 Q2.1 -6.75 2.0 -6.8 L1.2 -7.45 0.2 -8.1 Q0.15 -8.15 0.1 -8.2 0.05 -8.25 0.05 -8.35 L0.05 -8.4 M2.8 -4.45 Q2.75 -4.35 2.65 -4.35 2.35 -4.2 2.15 -3.9 1.8 -3.5 1.25 -3.3 L1.1 -3.3 Q0.8 -3.3 0.65 -3.35 L0.6 -3.35 0.6 -3.4 0.5 -3.35 0.4 -3.35 0.25 -3.25 Q-0.05 -3.1 -0.15 -3.1 -0.55 -2.95 -1.2 -3.6 L-1.35 -3.65 Q-1.8 -3.75 -1.8 -3.9 -1.85 -4.0 -1.8 -4.05 -1.8 -4.2 -1.7 -4.25 L-1.6 -4.3 -1.45 -4.35 0.5 -4.25 Q1.25 -4.25 1.75 -4.6 L2.3 -4.95 Q2.35 -5.0 2.45 -5.05 L2.65 -5.0 Q2.7 -4.95 2.75 -4.85 L2.8 -4.7 Q2.85 -4.55 2.8 -4.45 M21.5 -11.65 Q21.4 -11.8 21.65 -11.95 L21.7 -12.0 21.9 -12.0 Q23.05 -11.8 23.2 -11.4 23.25 -11.3 23.25 -11.2 L23.2 -11.1 23.4 -11.0 23.5 -10.9 23.55 -10.75 23.5 -10.6 23.35 -10.45 Q23.3 -10.4 23.2 -10.4 L23.1 -10.4 Q22.75 -10.5 22.2 -10.9 21.75 -11.25 21.55 -11.5 21.5 -11.55 21.5 -11.65 M35.65 -18.35 Q36.05 -18.15 36.8 -18.1 L36.95 -18.05 37.05 -17.95 37.4 -17.3 Q37.65 -16.7 37.65 -16.45 37.65 -16.25 37.5 -15.9 L37.45 -15.85 Q37.3 -15.6 37.1 -15.4 37.0 -15.3 36.9 -15.3 L36.85 -15.3 Q36.7 -15.3 36.65 -15.35 L36.65 -15.4 Q36.55 -15.45 36.55 -15.55 L36.55 -15.6 Q36.55 -15.75 36.65 -16.05 L36.75 -16.3 Q36.75 -16.7 36.7 -16.85 L36.55 -17.0 Q35.8 -17.4 34.9 -18.05 34.85 -18.1 34.8 -18.2 34.75 -18.3 34.8 -18.35 34.85 -18.45 34.9 -18.5 34.95 -18.55 35.05 -18.55 35.1 -18.6 35.65 -18.35 M32.6 -19.95 Q32.7 -20.05 32.8 -20.05 L33.05 -20.05 Q33.35 -20.05 33.8 -19.85 34.35 -19.65 34.4 -19.4 L34.45 -19.3 Q34.45 -19.1 34.25 -19.0 L33.9 -18.95 Q33.85 -18.95 33.4 -19.1 L33.35 -19.1 Q33.05 -19.25 32.85 -19.25 32.8 -19.25 32.75 -19.3 L32.65 -19.4 Q32.5 -19.65 32.5 -19.75 32.55 -19.85 32.6 -19.95 M-23.95 -19.55 L-24.0 -19.6 -24.0 -19.75 Q-23.9 -20.05 -23.75 -20.05 L-23.75 -20.1 -23.6 -20.1 Q-23.3 -20.1 -22.5 -20.5 -22.4 -20.6 -22.3 -20.6 L-22.2 -20.55 -22.15 -20.6 Q-22.15 -20.7 -22.05 -20.75 L-21.8 -20.9 -21.8 -21.0 Q-21.75 -21.1 -21.7 -21.15 -21.55 -21.25 -21.4 -21.2 L-21.35 -21.15 -21.05 -21.15 Q-20.95 -21.15 -20.9 -21.05 -20.7 -20.9 -20.65 -20.7 L-20.65 -20.55 Q-20.65 -20.45 -20.7 -20.4 L-20.85 -20.35 -21.2 -20.15 -21.35 -20.15 Q-21.4 -20.15 -21.45 -20.2 L-21.55 -20.2 -21.65 -20.25 -22.05 -20.25 -22.05 -20.2 Q-22.1 -20.1 -22.15 -20.05 L-22.2 -20.05 Q-22.45 -19.8 -22.5 -19.6 L-22.55 -19.5 -22.65 -19.4 -23.0 -19.25 -23.1 -19.25 -23.4 -19.3 Q-23.95 -19.35 -23.95 -19.55 M-6.65 -14.45 L-6.7 -14.45 Q-6.75 -14.45 -6.75 -14.55 -6.75 -15.05 -6.3 -15.25 -5.85 -15.5 -5.25 -15.4 -4.75 -15.35 -4.35 -15.05 L-4.25 -14.95 Q-3.8 -14.55 -3.8 -13.95 -3.8 -13.65 -3.95 -13.2 -4.2 -12.6 -4.45 -12.6 -4.65 -12.6 -4.7 -12.9 L-4.75 -13.15 -4.8 -13.1 -4.8 -13.2 -4.9 -13.3 -4.95 -13.4 -4.9 -13.55 Q-4.85 -13.65 -4.85 -13.7 L-4.85 -13.9 -5.0 -14.05 -5.05 -14.05 -5.05 -14.1 -5.15 -14.15 Q-5.65 -14.6 -6.15 -14.6 -6.3 -14.6 -6.65 -14.45 M-16.2 -25.25 L-16.1 -25.1 Q-15.95 -24.9 -15.95 -24.85 L-15.95 -24.7 Q-16.0 -24.6 -16.05 -24.55 L-16.25 -24.3 -16.3 -24.25 Q-16.35 -24.1 -16.5 -24.0 L-16.6 -23.9 -16.7 -23.9 -17.75 -23.95 -17.8 -23.95 -18.5 -24.0 Q-18.6 -24.0 -18.7 -24.05 L-18.7 -24.1 -18.85 -24.25 -19.2 -24.35 Q-19.3 -24.35 -19.35 -24.4 L-19.65 -24.7 Q-19.95 -24.9 -20.05 -25.05 -20.1 -25.1 -20.1 -25.2 L-20.05 -25.35 -19.9 -25.5 -19.8 -25.55 -19.65 -25.6 -19.2 -25.55 Q-19.1 -25.55 -19.0 -25.5 -18.85 -25.3 -18.7 -24.95 L-18.5 -24.9 Q-18.4 -24.9 -18.35 -24.85 L-18.3 -24.8 -17.55 -25.05 -16.5 -25.35 -16.3 -25.35 -16.2 -25.25 M-14.95 -24.3 Q-14.8 -24.3 -14.75 -24.25 -14.45 -24.0 -14.1 -23.7 -13.7 -23.25 -13.5 -22.9 -13.45 -22.75 -13.35 -22.45 L-13.3 -22.1 -13.1 -21.75 Q-12.95 -21.5 -12.95 -21.3 -12.95 -20.8 -13.45 -20.6 L-13.5 -20.6 Q-13.65 -20.55 -13.65 -20.45 L-13.45 -20.15 Q-13.05 -19.65 -13.05 -19.4 L-13.05 -19.35 Q-13.05 -18.9 -13.55 -18.55 -13.75 -18.4 -13.75 -18.25 -13.7 -18.05 -14.35 -17.45 L-14.95 -16.9 -15.05 -16.8 -15.75 -16.8 Q-15.85 -16.8 -15.9 -16.8 L-16.0 -16.95 -16.05 -17.1 Q-16.05 -17.2 -16.35 -17.5 L-16.75 -17.85 -16.95 -17.9 Q-17.05 -17.95 -17.1 -18.0 L-17.15 -18.1 -17.7 -17.85 Q-18.25 -17.65 -18.55 -17.45 L-18.7 -17.4 -19.75 -17.4 Q-19.85 -17.4 -19.95 -17.5 L-20.35 -17.9 -20.35 -18.05 -20.3 -18.2 Q-20.1 -18.4 -19.65 -18.5 -19.25 -18.6 -19.15 -18.7 L-19.1 -18.7 Q-19.0 -18.75 -18.9 -18.9 -18.8 -19.05 -18.8 -19.15 -18.8 -19.25 -19.0 -19.6 L-19.3 -20.1 -19.5 -20.15 -19.55 -20.15 -19.7 -20.2 -19.9 -20.2 -19.9 -20.25 Q-20.25 -20.35 -20.25 -20.5 L-20.25 -20.7 -20.15 -20.85 Q-19.6 -21.15 -19.05 -21.0 L-19.0 -20.95 Q-18.5 -20.75 -18.15 -20.65 -18.05 -20.65 -18.0 -20.55 -17.95 -20.5 -17.95 -20.4 L-17.95 -19.9 -17.9 -19.4 -17.75 -19.35 -17.7 -19.35 Q-17.3 -19.15 -17.25 -19.1 -17.15 -19.0 -17.05 -18.75 L-16.95 -18.45 -16.85 -18.5 -16.6 -18.55 -16.5 -18.55 -15.65 -18.65 Q-15.55 -18.65 -15.45 -18.55 -15.4 -18.5 -15.35 -18.4 L-15.25 -17.9 -14.7 -18.6 Q-14.35 -19.1 -14.3 -19.4 L-14.45 -19.4 -14.55 -19.45 -14.55 -19.5 -14.65 -19.6 -14.8 -19.85 Q-15.05 -20.1 -15.0 -20.35 -15.0 -20.75 -14.85 -20.95 L-14.8 -20.95 -14.5 -21.2 -14.45 -21.2 Q-14.2 -21.4 -14.2 -21.75 -14.2 -22.1 -14.5 -22.55 -14.85 -23.15 -14.85 -23.45 L-14.95 -23.55 Q-15.25 -23.9 -15.2 -24.0 -15.15 -24.1 -15.1 -24.2 -15.05 -24.25 -14.95 -24.3 M-2.6 -10.7 L-2.45 -10.25 Q-2.4 -10.25 -2.4 -10.2 L-2.35 -10.2 -2.25 -10.05 -2.3 -10.05 -2.2 -9.95 Q-2.1 -9.9 -2.05 -9.85 -2.05 -9.75 -2.05 -9.65 -2.05 -9.55 -2.1 -9.5 -2.2 -9.4 -2.35 -9.35 -2.4 -9.3 -2.55 -9.3 L-2.65 -9.25 -2.85 -9.25 -2.85 -9.2 Q-3.0 -9.25 -3.25 -9.5 L-3.6 -9.85 Q-4.1 -10.3 -4.75 -10.3 L-5.3 -10.25 -5.65 -10.25 -5.75 -10.2 Q-6.15 -10.2 -6.5 -10.05 L-7.0 -9.85 Q-7.15 -9.75 -7.2 -9.65 -7.25 -9.3 -7.3 -9.1 L-7.5 -8.9 -7.85 -8.9 Q-7.95 -8.95 -7.95 -9.1 -8.0 -9.25 -8.25 -9.7 L-8.3 -9.75 Q-8.55 -10.2 -8.55 -10.4 -8.55 -10.85 -8.0 -11.2 L-8.0 -11.25 Q-7.5 -11.6 -6.8 -11.6 L-6.0 -11.55 -4.85 -11.5 Q-4.6 -11.5 -4.0 -11.2 -3.6 -11.0 -3.15 -11.0 L-3.1 -11.0 -2.8 -10.95 -2.65 -10.85 Q-2.6 -10.8 -2.6 -10.7 M-2.35 -9.35 L-2.35 -9.35" fill="#cdffb4" fill-opacity="0.5019608" fill-rule="evenodd" stroke="none"/>
      <path d="M10.1 -35.05 L10.05 -34.9 Q8.85 -34.75 8.35 -34.5 7.95 -34.3 8.0 -34.0 L7.8 -34.0 7.75 -33.95 Q7.55 -33.75 7.35 -33.75 7.15 -33.75 6.95 -33.85 6.75 -33.9 6.65 -34.05 6.75 -34.2 7.0 -34.25 L7.05 -34.25 7.1 -34.3 Q7.5 -34.35 7.65 -34.5 L7.55 -34.85 Q7.4 -34.85 7.35 -34.9 7.3 -34.95 7.35 -34.95 7.4 -35.05 7.6 -35.1 8.45 -35.65 8.85 -35.7 9.55 -35.8 10.1 -35.05 M4.75 -34.8 Q4.85 -34.75 4.9 -34.7 5.0 -34.55 5.0 -34.4 5.0 -34.25 4.95 -34.25 4.65 -34.2 3.85 -33.65 3.1 -33.15 2.9 -32.95 L2.55 -32.25 Q2.3 -31.6 2.3 -31.45 2.3 -31.2 3.2 -30.9 L3.5 -30.8 3.85 -30.85 3.75 -30.9 3.75 -31.05 Q3.25 -31.6 3.25 -32.05 3.35 -32.05 4.0 -31.7 L4.0 -31.75 4.2 -31.65 Q5.7 -31.7 6.35 -31.9 6.8 -32.1 6.95 -32.4 L8.4 -32.6 9.35 -32.7 10.15 -32.7 Q10.35 -32.4 10.9 -31.75 L11.75 -30.8 11.35 -30.45 Q11.65 -30.15 12.35 -29.8 13.0 -29.45 13.55 -29.4 13.55 -29.55 13.55 -29.6 L14.3 -30.15 Q15.0 -30.65 15.0 -30.9 15.0 -31.05 14.8 -31.3 L14.3 -31.85 14.35 -31.95 14.6 -32.1 15.0 -32.15 15.55 -32.2 15.55 -32.15 Q17.2 -32.25 19.15 -30.95 19.9 -30.45 20.45 -29.9 20.95 -29.35 20.95 -29.1 20.95 -28.95 20.8 -28.75 20.65 -28.5 20.65 -28.35 20.65 -27.85 20.7 -27.4 20.8 -27.1 20.75 -26.95 20.65 -26.75 20.3 -26.35 L19.1 -25.0 19.05 -25.05 19.05 -25.7 19.0 -26.65 Q18.9 -27.25 18.5 -27.6 17.75 -28.45 17.45 -28.65 16.55 -29.25 15.2 -29.35 L14.75 -28.9 Q14.75 -28.75 14.8 -28.7 L14.8 -28.6 14.55 -28.55 14.3 -28.6 13.9 -28.35 Q13.75 -28.55 13.75 -28.7 L13.8 -28.85 13.75 -28.95 13.5 -29.05 Q13.25 -29.05 13.15 -28.85 13.05 -28.7 12.55 -28.7 L11.9 -28.7 Q11.6 -28.85 11.5 -29.1 11.45 -29.25 11.45 -29.55 11.45 -29.8 11.4 -29.95 L11.15 -30.25 10.85 -30.3 10.7 -30.6 10.75 -30.65 10.25 -31.0 9.6 -31.4 9.25 -31.5 8.9 -31.65 8.45 -31.7 7.9 -31.8 Q6.65 -31.8 6.0 -31.55 L5.35 -31.3 5.2 -31.25 5.35 -31.25 Q5.65 -31.2 5.7 -31.05 L5.6 -30.9 5.45 -30.8 4.75 -30.6 4.7 -30.6 4.75 -30.55 4.55 -30.35 Q4.5 -30.2 4.5 -30.1 4.25 -30.1 3.95 -29.85 3.7 -29.6 3.25 -29.6 L2.5 -29.55 1.55 -29.5 0.85 -29.65 -0.3 -29.6 Q-0.6 -29.75 -0.75 -29.85 -0.85 -29.7 -1.05 -29.6 -1.65 -29.35 -1.8 -29.45 L-1.85 -29.5 -1.85 -29.55 Q-2.2 -29.35 -2.6 -29.15 L-2.8 -28.9 Q-3.1 -28.35 -3.1 -28.1 -3.1 -28.0 -3.0 -27.85 -2.9 -27.7 -2.9 -27.6 -2.9 -27.3 -3.2 -27.15 L-3.7 -27.15 -4.25 -27.25 -5.45 -27.3 -5.6 -27.5 Q-5.65 -27.6 -5.65 -27.8 L-5.55 -28.65 -5.4 -29.75 -5.25 -29.75 -5.3 -29.6 -5.25 -29.65 -5.15 -29.45 -5.15 -29.25 -5.05 -29.35 -5.0 -29.2 Q-5.15 -28.95 -5.25 -28.55 L-4.95 -28.45 -4.7 -28.35 -4.45 -28.35 Q-4.0 -28.55 -4.05 -29.2 L-3.9 -29.25 -3.55 -29.3 Q-3.4 -29.3 -3.4 -29.2 -3.4 -29.15 -3.5 -29.1 -2.3 -29.6 -1.1 -30.65 L-0.7 -31.0 Q-0.3 -31.5 -0.15 -31.8 -0.05 -32.0 0.1 -32.6 0.25 -33.1 0.5 -33.35 L1.9 -33.65 2.9 -33.85 Q3.15 -34.1 3.6 -34.35 4.2 -34.7 4.75 -34.8 M12.1 -26.95 Q11.95 -26.95 11.9 -27.0 L12.7 -27.6 Q13.3 -28.0 13.8 -28.0 L13.5 -27.7 13.25 -27.4 Q12.95 -27.05 12.25 -26.9 L12.1 -26.95 M12.25 -21.5 L12.1 -21.55 12.75 -21.8 13.7 -22.1 13.9 -22.5 Q14.05 -22.8 14.3 -22.9 14.45 -22.9 14.5 -22.85 14.5 -22.75 14.65 -22.75 15.05 -22.75 15.3 -23.0 15.6 -23.3 15.8 -23.35 L15.85 -23.4 Q15.9 -23.35 15.9 -23.2 15.9 -23.05 15.85 -23.0 L15.7 -22.9 Q15.4 -22.75 15.0 -22.5 L14.3 -22.05 Q13.4 -21.55 12.55 -21.45 L12.25 -21.5 M22.8 -21.05 Q22.8 -21.25 23.35 -21.55 23.7 -21.75 23.85 -21.8 L24.0 -21.95 24.35 -21.9 24.4 -21.75 24.55 -21.6 24.5 -21.55 24.4 -21.7 Q24.3 -21.8 24.15 -21.8 23.85 -21.8 23.45 -21.25 23.15 -20.85 23.1 -20.65 23.15 -20.6 23.2 -20.5 L23.15 -20.55 Q23.15 -20.35 23.45 -20.15 23.75 -19.9 23.85 -19.65 L24.25 -19.65 Q24.3 -19.75 24.65 -19.85 L25.15 -19.9 Q25.45 -19.9 26.2 -19.7 L26.2 -19.6 26.15 -19.6 Q26.1 -19.6 26.1 -19.65 L25.3 -19.7 24.75 -19.6 24.1 -19.35 23.85 -19.35 23.6 -19.55 Q23.35 -19.7 23.2 -19.85 L23.2 -19.9 23.25 -20.0 23.5 -19.85 Q23.45 -20.0 23.15 -20.25 22.9 -20.5 22.9 -20.7 L22.9 -20.75 Q22.8 -20.85 22.8 -21.05 M7.65 -24.3 L7.55 -24.25 Q7.65 -24.05 7.95 -23.6 8.1 -23.4 8.1 -23.2 8.1 -22.95 8.05 -22.85 8.0 -22.75 7.8 -22.7 L6.1 -22.25 5.45 -22.15 Q4.85 -22.15 4.8 -22.2 5.5 -22.25 6.1 -22.8 6.65 -23.25 6.65 -23.65 6.65 -24.1 6.35 -24.4 5.9 -24.75 4.7 -24.95 4.6 -25.0 4.5 -25.1 4.45 -25.15 4.4 -25.2 L4.65 -25.25 4.8 -25.3 4.75 -25.55 Q4.75 -25.75 4.8 -25.85 L5.05 -25.85 Q8.0 -24.85 8.0 -24.6 L7.95 -24.4 Q7.95 -24.45 7.9 -24.4 L7.65 -24.3 M4.05 -25.7 L4.15 -25.6 3.9 -25.4 3.55 -25.5 3.45 -25.55 3.45 -25.7 Q3.45 -25.85 3.55 -25.85 L3.85 -25.85 4.05 -25.7 M2.75 -21.6 Q3.05 -21.7 3.2 -21.9 L3.4 -22.15 4.15 -22.1 Q4.4 -22.05 4.45 -22.0 L4.45 -21.85 3.65 -21.8 3.55 -21.5 Q3.4 -21.3 3.3 -21.2 L2.7 -21.15 1.75 -21.15 1.55 -21.2 Q1.45 -21.2 1.45 -21.25 1.6 -21.4 1.75 -21.4 2.05 -21.35 2.75 -21.6 M1.75 -14.65 L2.45 -13.85 2.35 -13.8 Q2.25 -13.8 2.1 -13.9 L1.9 -14.05 Q1.55 -14.25 0.85 -14.25 0.4 -14.25 -0.3 -14.05 L-0.35 -14.15 -0.35 -14.35 Q-0.35 -14.5 -0.25 -14.65 L-0.1 -14.85 0.95 -14.75 1.75 -14.65 M10.65 -7.25 L11.7 -6.5 Q12.4 -5.95 12.4 -5.6 12.4 -5.5 12.2 -5.25 12.0 -5.0 12.0 -4.85 11.95 -4.7 11.75 -4.45 L11.45 -4.15 Q11.4 -4.25 11.45 -4.4 L11.45 -4.95 Q11.4 -5.0 11.4 -5.05 L11.15 -5.1 10.75 -5.55 10.2 -6.05 9.95 -6.15 9.6 -6.3 9.2 -6.4 8.7 -6.45 Q8.15 -6.45 6.9 -6.15 L5.75 -5.8 5.6 -5.8 5.7 -5.95 Q6.35 -6.15 6.9 -6.45 7.35 -6.65 8.2 -6.65 8.6 -6.65 8.65 -6.8 8.7 -6.95 8.65 -7.3 L10.65 -7.25 M5.7 -10.65 Q6.05 -10.45 6.1 -10.3 5.5 -10.45 4.85 -10.75 4.1 -11.15 4.1 -11.45 4.1 -11.6 4.3 -11.75 4.5 -11.9 4.75 -11.85 L4.9 -11.8 4.6 -11.65 Q4.7 -11.5 4.7 -11.35 4.7 -11.25 5.1 -10.95 5.2 -10.85 5.7 -10.65 M0.35 -8.4 L1.95 -7.85 Q2.5 -7.65 3.1 -7.65 L3.6 -7.7 Q3.75 -7.95 3.75 -8.25 3.9 -8.25 4.5 -8.5 4.9 -8.65 5.35 -8.7 L5.2 -8.6 5.1 -8.5 Q4.9 -8.45 4.7 -8.3 4.25 -8.05 4.2 -7.75 4.0 -7.6 4.0 -7.5 L4.1 -7.2 Q4.1 -7.1 3.7 -6.85 2.55 -6.9 2.55 -6.95 L2.2 -7.0 1.4 -7.7 0.35 -8.35 0.35 -8.4 M0.4 -3.6 L0.35 -3.6 0.15 -3.5 Q-0.1 -3.4 -0.2 -3.4 -0.5 -3.3 -1.1 -3.85 L-1.3 -3.9 Q-1.5 -3.95 -1.55 -4.0 L-1.45 -4.05 0.5 -3.95 Q1.35 -3.95 1.9 -4.35 2.2 -4.5 2.5 -4.75 L2.55 -4.6 Q2.2 -4.45 1.9 -4.1 1.65 -3.75 1.15 -3.55 L0.75 -3.65 0.6 -3.7 0.45 -3.65 0.4 -3.6 M22.95 -11.3 Q22.9 -11.1 22.95 -11.05 22.95 -10.9 23.25 -10.75 L23.15 -10.7 Q22.85 -10.8 22.4 -11.15 22.0 -11.45 21.8 -11.7 L21.85 -11.75 Q22.8 -11.55 22.95 -11.3 M35.5 -18.1 Q35.95 -17.85 36.8 -17.8 L37.1 -17.15 Q37.35 -16.65 37.35 -16.45 37.35 -16.3 37.2 -16.0 37.1 -15.75 36.9 -15.6 L36.85 -15.6 Q36.85 -15.7 36.95 -15.95 37.05 -16.2 37.05 -16.3 37.05 -16.75 36.95 -16.95 36.9 -17.1 36.7 -17.25 35.95 -17.65 35.05 -18.3 35.1 -18.3 35.5 -18.1 M36.55 -17.6 L36.5 -17.65 36.35 -17.65 36.55 -17.6 M36.7 -17.65 L36.7 -17.55 36.75 -17.55 36.7 -17.65 M34.15 -19.3 Q34.15 -19.25 33.9 -19.25 33.85 -19.25 33.5 -19.35 L32.9 -19.55 Q32.8 -19.7 32.8 -19.75 L33.05 -19.75 Q33.3 -19.75 33.7 -19.6 34.05 -19.45 34.15 -19.3 M-6.35 -28.45 Q-6.3 -28.45 -6.35 -28.4 -6.4 -28.35 -6.4 -28.2 L-6.1 -27.2 Q-6.1 -26.95 -6.4 -26.5 -6.7 -26.1 -7.0 -25.9 L-7.55 -25.55 Q-7.9 -25.3 -8.45 -25.3 L-9.1 -25.35 -9.2 -25.45 -9.35 -25.55 Q-8.3 -25.75 -7.85 -26.05 -7.45 -26.3 -7.35 -26.8 L-7.45 -26.85 -7.55 -26.8 -7.65 -26.85 Q-7.7 -26.85 -7.7 -27.05 -7.7 -27.3 -7.6 -27.4 L-7.45 -27.4 Q-7.05 -27.4 -6.75 -27.85 L-6.8 -28.0 Q-6.85 -28.15 -7.0 -28.25 -7.0 -28.3 -6.85 -28.4 L-6.6 -28.5 -6.35 -28.45 M-23.7 -19.65 L-23.6 -19.8 Q-23.25 -19.8 -22.35 -20.3 L-22.3 -20.3 -22.4 -20.25 Q-22.75 -19.95 -22.8 -19.65 -23.0 -19.6 -23.1 -19.55 L-23.4 -19.55 Q-23.7 -19.6 -23.7 -19.65 M-6.45 -14.8 Q-5.9 -15.15 -5.65 -15.15 -5.3 -15.2 -4.65 -14.9 L-4.5 -14.8 Q-4.35 -14.7 -4.2 -14.4 -4.05 -14.1 -4.05 -13.95 -4.05 -13.85 -4.15 -13.55 L-4.2 -13.4 -4.25 -13.35 Q-4.4 -12.9 -4.45 -12.85 -4.5 -12.95 -4.5 -13.15 L-4.5 -13.35 -4.55 -13.35 -4.55 -13.7 Q-4.55 -13.9 -4.6 -14.05 L-4.85 -14.25 Q-5.05 -14.45 -5.15 -14.6 -5.6 -14.85 -6.4 -14.75 L-6.45 -14.8 M-16.35 -24.9 L-16.25 -24.75 -16.5 -24.45 Q-16.6 -24.3 -16.7 -24.15 L-17.75 -24.25 -18.5 -24.3 -18.65 -24.45 -18.65 -24.5 -18.7 -24.5 -19.15 -24.6 -19.5 -24.9 -19.8 -25.2 -19.7 -25.3 -19.2 -25.3 Q-19.1 -25.15 -18.95 -24.8 -18.9 -24.65 -18.55 -24.65 L-18.5 -24.55 -18.3 -24.55 -17.45 -24.8 -16.45 -25.1 -16.35 -24.9 M-14.9 -23.95 L-14.9 -24.0 Q-14.6 -23.8 -14.3 -23.5 -13.95 -23.1 -13.75 -22.8 L-13.55 -22.0 Q-13.5 -21.85 -13.35 -21.6 -13.25 -21.45 -13.25 -21.3 -13.25 -21.0 -13.6 -20.85 -13.95 -20.7 -13.95 -20.45 -13.95 -20.35 -13.65 -19.95 -13.35 -19.6 -13.35 -19.4 -13.35 -19.05 -13.7 -18.8 -14.05 -18.55 -14.05 -18.25 -14.05 -18.15 -14.55 -17.65 L-15.15 -17.1 -15.25 -17.1 -15.3 -17.05 -15.75 -17.05 Q-15.75 -17.3 -16.15 -17.7 L-16.65 -18.15 -16.85 -18.15 -16.75 -18.25 -16.55 -18.25 -16.45 -18.3 -15.65 -18.35 -15.55 -17.8 Q-15.5 -17.65 -15.25 -17.5 L-14.5 -18.4 Q-14.0 -19.0 -14.0 -19.4 -14.0 -19.55 -14.05 -19.6 L-14.1 -19.65 -14.4 -19.7 Q-14.4 -19.8 -14.6 -20.0 -14.75 -20.2 -14.75 -20.35 -14.75 -20.6 -14.6 -20.75 L-14.35 -20.95 Q-13.9 -21.2 -13.9 -21.75 -13.9 -22.15 -14.25 -22.7 -14.6 -23.25 -14.6 -23.5 -14.6 -23.55 -14.75 -23.75 L-14.9 -23.95 M-18.2 -19.85 Q-18.2 -19.5 -18.15 -19.3 -18.1 -19.2 -17.8 -19.05 -17.5 -18.95 -17.45 -18.9 -17.35 -18.8 -17.3 -18.65 L-17.2 -18.35 -17.85 -18.1 Q-18.4 -17.9 -18.7 -17.7 L-19.75 -17.7 -20.1 -18.0 Q-19.95 -18.15 -19.55 -18.25 -19.15 -18.35 -18.95 -18.45 -18.85 -18.55 -18.7 -18.75 -18.5 -18.95 -18.5 -19.15 -18.5 -19.3 -18.75 -19.75 -19.05 -20.2 -19.1 -20.35 L-19.45 -20.4 -19.7 -20.45 -19.8 -20.5 -19.95 -20.6 Q-19.55 -20.85 -19.1 -20.7 -18.55 -20.45 -18.2 -20.4 L-18.2 -19.85 M-21.1 -20.85 Q-20.95 -20.75 -20.9 -20.6 L-21.3 -20.45 -21.55 -20.5 -21.9 -20.5 -21.55 -20.75 Q-21.55 -20.95 -21.5 -20.9 L-21.45 -20.9 -21.1 -20.85 M-3.15 -10.75 L-2.85 -10.7 -2.75 -10.0 -2.75 -9.95 -2.55 -9.95 -2.55 -9.85 -2.3 -9.7 Q-2.35 -9.65 -2.5 -9.65 L-2.55 -9.65 -2.55 -9.6 Q-2.6 -9.55 -2.8 -9.6 L-2.8 -9.55 -2.75 -9.5 Q-2.9 -9.55 -3.05 -9.7 L-3.4 -10.1 Q-3.95 -10.6 -4.75 -10.6 L-5.35 -10.55 -5.75 -10.5 Q-6.2 -10.45 -6.6 -10.3 -7.1 -10.1 -7.15 -10.1 -7.4 -9.95 -7.5 -9.7 -7.5 -9.4 -7.6 -9.2 L-7.7 -9.15 Q-7.75 -9.35 -8.0 -9.85 -8.25 -10.25 -8.25 -10.4 -8.25 -10.7 -7.85 -11.0 -7.4 -11.3 -6.8 -11.3 L-6.05 -11.25 -4.85 -11.2 Q-4.65 -11.2 -4.15 -10.95 -3.65 -10.7 -3.15 -10.75" fill="#ffffff" fill-rule="evenodd" stroke="none"/>
    </g>
    <g id="shape1" transform="matrix(1.0, 0.0, 0.0, 1.0, 27.3, 34.9)">
      <path d="M22.6 -27.55 L22.5 -27.4 22.5 -27.35 22.4 -27.3 22.3 -27.3 22.25 -27.35 22.25 -27.4 22.35 -27.7 Q22.55 -28.15 23.3 -28.3 24.0 -28.5 24.7 -28.05 25.25 -27.7 25.25 -27.4 L25.2 -26.85 Q25.2 -26.65 25.0 -26.5 24.8 -26.35 24.75 -26.25 24.5 -26.05 24.35 -25.75 L24.4 -25.6 24.4 -25.55 24.35 -25.15 24.3 -25.1 Q24.3 -25.05 24.25 -25.05 L24.3 -24.9 24.25 -24.85 24.15 -24.85 24.15 -24.9 24.1 -25.1 24.05 -25.15 Q24.0 -25.2 24.0 -25.3 24.0 -25.55 23.65 -26.4 L23.65 -26.45 23.7 -26.5 23.65 -26.65 23.6 -26.65 Q23.25 -27.45 22.65 -27.55 L22.6 -27.55 M22.15 -27.05 L22.15 -27.15 22.2 -27.2 22.25 -27.2 22.3 -27.15 22.3 -27.0 22.25 -26.95 22.2 -26.95 22.15 -27.0 22.15 -27.05 M26.25 -25.6 L26.85 -25.15 Q27.35 -24.8 27.35 -24.55 27.35 -24.35 27.25 -24.4 L27.1 -24.4 Q27.0 -24.5 26.45 -24.5 L25.9 -24.55 Q25.9 -24.5 25.85 -24.55 L25.7 -24.55 Q25.6 -24.6 25.5 -24.65 L25.25 -24.9 25.25 -25.2 25.2 -25.35 25.25 -25.35 Q25.15 -25.55 25.15 -25.7 25.15 -25.85 25.25 -26.2 25.5 -26.55 25.7 -26.55 L25.75 -26.55 25.75 -26.5 25.95 -26.05 Q26.15 -25.75 26.25 -25.6 M-21.8 -32.6 Q-21.55 -32.7 -21.3 -32.7 L-21.2 -32.7 -20.95 -32.6 -20.7 -32.55 -20.7 -32.5 -20.65 -32.45 Q-20.55 -32.4 -20.55 -32.3 -20.55 -32.2 -20.65 -32.05 L-20.7 -31.95 -20.7 -31.85 -20.8 -31.85 Q-20.9 -31.85 -20.95 -31.95 L-21.55 -32.0 -21.8 -32.0 Q-22.35 -31.85 -22.65 -31.55 L-23.25 -31.0 -23.3 -31.0 -23.4 -31.1 Q-23.35 -31.3 -23.1 -31.65 L-22.65 -32.2 -22.55 -32.25 Q-22.3 -32.5 -21.8 -32.6 M-18.05 -28.55 Q-18.0 -28.75 -17.75 -29.05 L-17.3 -29.5 -17.05 -29.7 -17.05 -29.75 Q-16.85 -29.85 -16.5 -29.95 L-16.45 -29.95 -16.2 -29.75 -16.15 -29.65 -16.15 -29.6 Q-16.1 -29.55 -16.3 -29.35 L-16.45 -29.2 -16.45 -29.15 -16.5 -29.05 Q-16.3 -29.0 -16.3 -28.85 L-16.25 -28.65 -16.25 -28.25 -16.3 -28.2 -16.4 -28.2 Q-16.45 -28.2 -16.45 -28.25 L-16.6 -28.25 Q-16.8 -27.95 -16.85 -27.7 -16.8 -27.15 -16.55 -26.7 L-16.55 -26.6 -16.6 -26.55 -16.75 -26.55 -16.75 -26.6 -17.2 -27.4 -17.5 -27.8 Q-17.75 -28.1 -17.95 -28.1 L-17.95 -28.0 -18.0 -27.95 Q-18.0 -27.9 -18.05 -27.9 L-18.1 -27.9 -18.15 -27.95 -18.2 -28.05 Q-18.2 -28.2 -18.05 -28.55 M-25.0 -34.8 L-25.0 -34.55 -24.9 -34.45 Q-24.8 -34.3 -24.8 -34.2 L-24.8 -34.05 -24.95 -33.9 -25.0 -33.9 Q-25.1 -34.0 -25.15 -34.0 -25.6 -34.0 -26.0 -33.4 -26.4 -32.85 -26.4 -32.25 L-26.3 -31.7 Q-26.3 -31.6 -26.35 -31.6 -26.35 -31.55 -26.4 -31.55 L-26.45 -31.55 Q-26.55 -31.65 -26.75 -31.85 L-26.95 -32.2 -27.25 -32.55 -27.25 -32.85 Q-27.25 -33.25 -27.05 -33.6 L-26.45 -34.35 -26.4 -34.35 Q-26.3 -34.6 -26.0 -34.75 -25.65 -34.95 -25.35 -34.9 L-25.05 -34.8 -25.0 -34.8 M-26.15 -29.6 L-26.1 -29.6 Q-26.1 -29.55 -26.05 -29.55 L-25.95 -29.65 Q-25.95 -29.7 -26.0 -29.8 L-26.0 -29.85 -26.05 -29.95 -26.1 -29.95 -26.1 -30.05 -26.05 -30.05 -26.05 -30.1 Q-25.85 -30.1 -25.7 -29.9 L-25.55 -29.6 Q-25.35 -29.35 -25.35 -29.0 -25.35 -28.35 -25.8 -28.35 -25.85 -28.35 -25.95 -28.45 L-26.15 -28.45 -26.65 -28.55 -26.85 -28.55 -27.0 -28.45 -27.05 -28.45 -27.05 -28.4 -27.1 -28.3 -27.15 -28.25 -27.2 -28.25 -27.3 -28.35 -27.25 -28.45 -27.25 -28.65 -27.2 -28.9 -27.1 -29.1 -27.0 -29.25 Q-26.9 -29.35 -26.8 -29.35 -26.6 -29.45 -26.4 -29.45 L-26.35 -29.6 -26.3 -29.65 -26.15 -29.65 -26.15 -29.6 M-24.0 -30.4 Q-23.7 -30.6 -23.65 -30.6 -23.55 -30.6 -23.55 -30.5 L-23.55 -30.45 -23.6 -30.45 -23.6 -30.35 -24.05 -30.05 Q-24.4 -29.85 -24.75 -29.85 -24.9 -29.85 -25.2 -29.95 -25.4 -30.1 -25.55 -30.2 L-25.7 -30.4 Q-25.8 -30.55 -25.8 -30.7 L-25.85 -30.75 -25.75 -30.85 -25.7 -30.85 Q-25.65 -30.85 -25.6 -30.75 L-25.55 -30.75 -25.45 -30.65 -25.45 -30.6 -25.2 -30.45 -24.95 -30.35 -24.85 -30.35 -24.45 -30.3 -24.0 -30.4" fill="#cdffb4" fill-opacity="0.5019608" fill-rule="evenodd" stroke="none"/>
      <path d="M22.65 -27.8 Q22.8 -28.05 23.4 -28.15 L23.4 -28.2 Q24.4 -28.15 24.75 -27.75 25.0 -27.45 25.0 -27.05 25.0 -26.75 24.6 -26.35 24.15 -25.9 24.15 -25.65 L24.1 -25.7 24.05 -26.1 24.05 -25.85 Q23.45 -27.8 22.85 -27.8 L22.65 -27.8 M25.5 -25.95 Q25.5 -25.9 25.55 -25.9 L25.6 -26.1 25.7 -26.3 Q25.8 -25.9 26.1 -25.5 26.4 -25.15 27.0 -24.75 L27.05 -24.65 26.65 -24.65 Q25.95 -24.65 25.6 -25.15 25.4 -25.5 25.4 -25.75 L25.4 -25.9 25.45 -26.0 25.5 -25.95 M-22.6 -32.05 L-22.15 -32.3 Q-22.0 -32.45 -21.8 -32.5 L-21.75 -32.5 -21.4 -32.55 Q-21.1 -32.55 -20.9 -32.45 L-20.75 -32.25 -20.8 -32.0 -20.95 -32.05 -21.4 -32.15 -21.6 -32.1 Q-22.3 -32.05 -22.7 -31.7 -23.05 -31.35 -23.2 -31.2 L-22.9 -31.65 -22.65 -32.05 -22.6 -32.05 M-16.4 -29.7 L-16.35 -29.65 Q-16.35 -29.55 -16.5 -29.35 -16.7 -29.15 -16.75 -29.0 L-16.85 -28.8 -16.75 -28.9 -16.5 -28.9 Q-16.45 -28.9 -16.45 -28.75 L-16.35 -28.55 -16.35 -28.35 Q-16.4 -28.35 -16.45 -28.4 -16.7 -28.45 -16.85 -28.1 L-16.85 -28.05 -16.9 -28.0 Q-16.95 -27.85 -17.0 -27.8 -17.0 -27.5 -16.95 -27.2 L-17.3 -27.8 Q-17.6 -28.15 -18.0 -28.3 -17.8 -29.15 -16.6 -29.8 L-16.5 -29.8 -16.4 -29.7 M-25.3 -34.75 L-25.1 -34.7 Q-25.1 -34.45 -25.0 -34.4 -24.9 -34.35 -24.9 -34.2 L-24.95 -34.05 -25.15 -34.1 Q-25.55 -34.1 -26.0 -33.65 -26.3 -33.3 -26.35 -33.05 -26.6 -32.25 -26.5 -31.85 -26.6 -32.05 -26.95 -32.4 -27.1 -32.6 -27.1 -32.85 -27.1 -33.35 -26.5 -34.0 L-26.05 -34.55 -25.6 -34.8 -25.3 -34.75 M-26.6 -29.25 L-26.55 -29.3 -26.3 -29.3 -26.25 -29.45 -26.2 -29.4 -26.0 -29.4 Q-25.9 -29.4 -25.85 -29.5 -25.8 -29.6 -25.8 -29.65 L-25.8 -29.75 -25.7 -29.65 -25.55 -29.4 Q-25.45 -29.1 -25.45 -29.0 -25.45 -28.85 -25.5 -28.7 -25.6 -28.5 -25.75 -28.5 L-25.9 -28.55 Q-26.0 -28.7 -26.65 -28.7 L-26.95 -28.65 -27.1 -28.6 -27.15 -28.55 -27.1 -28.65 -27.05 -28.85 -27.05 -28.9 Q-27.05 -29.0 -26.95 -29.1 L-26.8 -29.25 -26.7 -29.3 -26.6 -29.25 M-24.3 -30.2 L-24.1 -30.2 Q-24.45 -30.0 -24.65 -30.0 -24.9 -30.0 -25.2 -30.15 L-25.35 -30.25 -25.45 -30.4 Q-25.35 -30.3 -25.25 -30.3 L-25.15 -30.3 -24.6 -30.2 -24.3 -30.2" fill="#ffffff" fill-rule="evenodd" stroke="none"/>
      <path d="M3.75 -18.6 Q3.8 -18.55 3.85 -18.5 L3.95 -18.55 Q4.15 -18.55 4.35 -18.4 L4.4 -18.35 4.4 -18.3 Q4.4 -18.2 4.35 -18.1 L4.3 -18.05 4.25 -18.05 4.0 -18.1 4.0 -18.15 3.85 -18.25 3.95 -18.05 4.0 -18.0 4.05 -17.85 4.1 -17.85 4.2 -17.75 4.2 -17.55 Q4.2 -17.5 4.05 -17.1 4.0 -16.95 4.05 -16.85 L4.1 -16.8 4.1 -16.7 Q4.0 -16.55 3.9 -16.6 L3.8 -16.6 Q3.65 -16.55 3.35 -16.15 L2.95 -15.55 Q2.2 -14.9 2.2 -14.55 2.2 -14.45 2.25 -14.15 L2.4 -14.1 2.45 -14.1 2.45 -14.05 2.5 -14.05 Q2.6 -13.8 2.6 -13.5 2.65 -13.2 2.45 -12.85 L2.4 -12.75 2.3 -12.75 Q2.2 -12.75 2.1 -12.85 L2.05 -12.8 2.05 -12.45 2.2 -12.3 2.15 -12.2 2.1 -12.15 1.8 -12.1 Q1.75 -12.1 1.7 -12.15 1.7 -12.2 1.7 -12.25 L1.65 -12.35 Q1.6 -12.45 1.6 -12.6 1.55 -12.8 1.95 -13.15 2.2 -13.4 2.25 -13.5 L2.2 -13.7 2.05 -13.75 1.95 -13.85 Q1.8 -14.3 1.8 -14.55 1.8 -15.05 2.2 -15.35 2.7 -15.8 3.0 -16.25 L3.65 -17.0 3.7 -17.35 3.7 -17.45 Q3.75 -17.6 3.65 -17.8 L3.55 -18.0 3.5 -18.0 3.45 -17.95 3.4 -17.95 Q3.3 -17.95 3.3 -18.05 L3.25 -18.25 Q3.25 -18.45 3.45 -18.55 L3.75 -18.6 M3.25 -17.85 L3.35 -17.85 3.45 -17.75 3.45 -17.7 3.4 -17.5 3.35 -17.5 3.3 -17.35 3.25 -17.3 3.15 -17.25 3.1 -17.25 Q3.05 -17.25 3.05 -17.3 L2.95 -17.4 Q2.95 -17.55 3.05 -17.7 3.15 -17.8 3.25 -17.85 M3.8 -18.3 L3.8 -18.3 M1.0 -3.35 L1.05 -3.3 1.1 -3.2 1.05 -3.15 0.9 -2.95 Q0.75 -2.85 0.7 -2.85 L0.5 -2.9 0.2 -2.95 0.15 -2.95 Q-0.05 -3.1 -0.3 -3.35 -0.5 -3.6 -0.65 -3.85 L-0.9 -3.95 -1.0 -4.0 Q-1.15 -4.0 -1.25 -3.8 -1.4 -3.6 -1.35 -3.45 L-1.35 -3.35 -1.4 -3.3 Q-1.4 -3.25 -1.45 -3.25 L-2.45 -3.25 Q-2.55 -3.25 -2.55 -3.3 -2.7 -3.45 -2.7 -3.6 L-2.7 -3.7 -2.65 -3.75 -2.55 -3.8 Q-2.45 -3.8 -2.35 -3.7 L-2.3 -3.65 -1.65 -3.6 -1.65 -3.95 Q-1.55 -4.2 -1.15 -4.4 L-1.05 -4.4 -0.8 -4.35 -0.75 -4.3 Q-0.6 -4.25 -0.5 -4.25 L-0.45 -4.2 -0.3 -3.95 -0.25 -3.9 -0.2 -3.75 0.1 -3.55 0.3 -3.4 0.7 -3.4 1.0 -3.35" fill="#cdffb4" fill-opacity="0.5019608" fill-rule="evenodd" stroke="none"/>
      <path d="M3.45 -18.1 L3.4 -18.1 3.4 -18.25 Q3.4 -18.35 3.5 -18.4 L3.75 -18.45 3.65 -18.3 3.85 -17.95 Q3.9 -17.9 3.9 -17.65 L3.9 -17.55 Q3.95 -17.65 4.0 -17.7 4.05 -17.75 4.05 -17.55 L3.95 -17.15 Q3.85 -16.9 3.95 -16.75 L3.8 -16.75 Q3.55 -16.75 3.25 -16.25 L2.85 -15.65 Q2.05 -14.95 2.05 -14.55 2.05 -14.45 2.15 -14.0 L2.35 -13.95 Q2.5 -13.75 2.5 -13.5 2.5 -13.25 2.3 -12.9 2.25 -12.9 2.25 -13.05 1.95 -12.95 1.9 -12.85 1.9 -12.8 1.9 -12.5 1.9 -12.45 1.95 -12.35 L2.05 -12.25 1.8 -12.25 1.8 -12.4 Q1.75 -12.5 1.75 -12.6 1.75 -12.75 2.05 -13.05 2.35 -13.35 2.35 -13.5 L2.3 -13.85 2.1 -13.9 Q1.95 -14.3 1.95 -14.55 1.95 -15.0 2.25 -15.25 2.8 -15.7 3.1 -16.2 L3.8 -16.95 3.85 -17.35 3.85 -17.4 3.8 -17.4 Q3.9 -17.6 3.75 -17.9 L3.6 -18.25 Q3.5 -18.15 3.45 -18.1 M4.25 -18.2 L4.05 -18.25 3.95 -18.35 3.95 -18.4 Q4.1 -18.4 4.25 -18.3 L4.25 -18.2 M3.15 -17.4 L3.1 -17.4 3.2 -17.6 3.3 -17.75 3.25 -17.55 3.15 -17.4 M0.3 -3.25 L0.95 -3.25 0.8 -3.05 0.7 -3.0 0.55 -3.05 0.25 -3.1 Q0.05 -3.2 -0.15 -3.45 -0.45 -3.7 -0.55 -4.0 -0.7 -4.0 -0.8 -4.1 -0.9 -4.15 -1.0 -4.15 -1.25 -4.15 -1.4 -3.85 -1.55 -3.6 -1.45 -3.4 L-2.0 -3.35 -2.45 -3.4 Q-2.55 -3.5 -2.55 -3.6 L-2.55 -3.65 Q-2.5 -3.65 -2.45 -3.6 L-2.35 -3.5 -1.55 -3.5 -1.5 -3.9 Q-1.4 -4.1 -1.05 -4.25 L-0.85 -4.2 Q-0.65 -4.15 -0.55 -4.1 L-0.4 -3.85 -0.3 -3.65 0.0 -3.4 0.3 -3.25" fill="#ffffff" fill-rule="evenodd" stroke="none"/>
      <path d="M22.75 -26.55 L22.75 -26.5 23.2 -26.45 23.3 -26.35 23.45 -26.1 23.5 -26.05 23.6 -26.0 23.75 -25.9 23.75 -25.65 Q23.75 -25.55 23.7 -25.55 23.65 -25.5 23.6 -25.5 L23.4 -25.5 Q23.35 -25.55 23.3 -25.6 23.3 -25.65 23.35 -25.7 L23.35 -25.75 23.25 -25.75 23.15 -25.8 23.15 -25.85 Q23.0 -26.0 23.0 -26.1 L23.0 -26.15 22.6 -26.2 22.55 -26.2 22.45 -26.3 22.45 -26.35 22.4 -26.3 22.1 -26.3 22.0 -26.35 Q21.95 -26.4 21.95 -26.45 L21.95 -26.5 Q21.95 -26.6 22.0 -26.6 22.05 -26.65 22.15 -26.65 L22.2 -26.65 Q22.5 -26.65 22.5 -26.55 L22.75 -26.55 M20.85 -26.65 L21.05 -26.7 21.5 -26.8 21.65 -26.8 21.7 -26.75 Q21.9 -26.7 21.85 -26.6 L21.85 -26.5 21.75 -26.45 21.65 -26.45 21.3 -26.4 21.35 -26.4 20.95 -26.25 20.9 -26.25 Q20.6 -26.3 20.5 -26.35 20.45 -26.3 20.45 -26.2 L20.45 -26.1 20.35 -26.1 Q20.65 -25.85 20.65 -25.55 20.65 -25.45 20.6 -25.4 L21.05 -25.4 21.3 -25.15 Q21.45 -25.05 21.7 -25.0 L21.8 -25.05 21.85 -25.0 21.85 -25.05 Q21.9 -25.1 22.0 -25.1 L22.65 -25.1 22.75 -25.0 22.75 -24.9 Q22.75 -24.8 22.7 -24.75 L22.6 -24.75 22.15 -24.7 22.1 -24.7 22.0 -24.65 21.15 -24.65 20.05 -24.7 Q19.55 -24.65 19.15 -24.95 19.0 -25.1 18.95 -25.25 18.85 -25.4 18.2 -25.5 17.9 -25.7 17.9 -25.8 17.9 -25.9 17.95 -25.95 L17.85 -25.95 Q17.75 -26.0 17.7 -26.0 17.65 -26.05 17.65 -26.15 L17.65 -26.2 17.55 -26.2 17.3 -26.15 16.8 -26.15 Q16.7 -26.15 16.6 -26.35 16.55 -26.4 16.5 -26.45 L16.3 -26.45 Q16.05 -26.45 16.05 -26.75 L16.05 -26.85 Q15.9 -26.95 15.9 -27.1 15.9 -27.45 16.35 -27.55 16.4 -27.55 16.45 -27.55 L16.6 -27.4 16.55 -27.3 16.4 -27.15 16.4 -27.1 Q16.4 -27.05 16.45 -26.95 L16.55 -26.85 16.75 -26.8 16.85 -26.75 17.05 -26.55 17.1 -26.55 Q17.25 -26.65 17.35 -26.65 L17.85 -26.6 17.95 -26.6 18.0 -26.55 Q18.1 -26.5 18.1 -26.3 L18.4 -26.25 18.45 -26.15 18.5 -26.1 Q19.05 -25.95 19.45 -25.4 L20.1 -25.4 20.15 -25.5 20.05 -25.6 19.85 -25.85 Q19.85 -25.95 20.05 -26.1 L20.05 -26.15 Q20.05 -26.2 20.05 -26.25 L20.1 -26.4 Q20.15 -26.65 20.45 -26.7 L20.65 -26.7 20.75 -26.65 20.85 -26.65 M32.45 -25.6 Q32.45 -25.35 32.0 -25.2 L31.95 -25.2 31.35 -25.1 31.35 -25.0 Q31.35 -24.85 31.2 -24.75 31.05 -24.65 30.45 -24.65 L30.4 -24.65 29.6 -24.75 29.4 -24.75 29.3 -24.8 Q29.25 -24.85 29.25 -24.9 L29.25 -24.95 29.35 -25.05 Q29.35 -25.1 29.4 -25.15 L29.9 -25.15 Q29.95 -25.1 30.05 -25.05 L30.7 -25.05 30.65 -25.15 Q30.65 -25.2 30.75 -25.25 L30.95 -25.35 31.0 -25.35 Q31.15 -25.5 31.7 -25.55 31.7 -25.6 31.75 -25.6 L31.8 -25.65 32.05 -25.8 32.1 -25.8 Q32.2 -25.9 32.3 -25.85 32.35 -25.85 32.4 -25.75 L32.45 -25.6 M30.35 -25.7 L30.4 -25.55 30.3 -25.45 Q30.25 -25.4 30.2 -25.4 L29.85 -25.4 29.75 -25.45 29.7 -25.4 Q29.35 -25.25 29.1 -25.25 L29.05 -25.25 28.5 -25.35 28.45 -25.35 Q28.45 -25.3 28.4 -25.3 L28.2 -25.3 28.2 -25.25 Q28.05 -25.15 27.65 -25.1 L27.1 -24.95 27.2 -24.9 27.25 -24.85 27.25 -24.75 Q27.5 -24.75 27.6 -24.65 L27.85 -24.6 27.9 -24.6 27.9 -24.7 Q27.85 -24.75 27.9 -24.8 L28.0 -24.9 28.2 -24.95 28.25 -24.95 Q28.9 -24.95 28.9 -24.85 28.95 -24.8 28.95 -24.75 L28.85 -24.65 28.75 -24.6 28.4 -24.55 28.4 -24.5 Q28.45 -24.25 28.05 -24.25 L28.0 -24.25 27.1 -24.45 Q27.0 -24.45 26.95 -24.5 L26.85 -24.6 26.3 -24.65 Q26.0 -24.65 25.65 -24.4 25.35 -24.25 25.25 -24.15 L25.2 -24.05 25.05 -24.05 24.85 -24.15 Q24.85 -24.2 24.85 -24.25 25.0 -24.65 25.4 -24.8 L25.45 -24.85 Q25.3 -24.85 25.05 -24.95 L24.65 -24.95 24.55 -25.0 24.55 -25.05 24.5 -25.05 24.3 -25.0 24.3 -24.95 24.25 -24.85 24.15 -24.85 23.8 -24.8 23.7 -24.8 23.55 -24.85 23.45 -24.9 23.45 -25.0 23.5 -25.1 23.6 -25.15 23.95 -25.15 Q23.95 -25.2 24.0 -25.25 L24.1 -25.3 24.25 -25.35 24.8 -25.35 24.85 -25.3 25.2 -25.3 25.2 -25.25 25.8 -25.3 26.1 -25.3 26.2 -25.35 26.25 -25.35 26.7 -25.3 Q27.1 -25.55 28.1 -25.65 L28.55 -25.7 29.0 -25.6 29.45 -25.7 29.65 -25.7 29.75 -25.65 29.75 -25.6 29.95 -25.75 30.25 -25.75 30.35 -25.7 M31.5 -25.7 L31.5 -25.65 31.45 -25.55 31.35 -25.5 31.15 -25.45 30.65 -25.45 30.55 -25.5 30.5 -25.55 30.45 -25.55 Q30.45 -25.65 30.45 -25.7 30.45 -25.75 30.55 -25.75 L30.75 -25.85 Q30.75 -25.9 30.8 -25.9 L30.9 -25.9 31.05 -25.85 31.3 -25.85 Q31.35 -25.85 31.45 -25.8 L31.5 -25.7 M29.05 -23.75 Q28.75 -23.45 28.45 -23.65 L28.5 -23.65 Q28.45 -23.65 28.4 -23.65 28.35 -23.6 28.25 -23.6 L28.05 -23.6 28.05 -23.5 27.95 -23.45 27.8 -23.35 27.7 -23.35 Q27.5 -23.1 27.25 -22.9 L26.95 -22.8 26.85 -22.8 26.8 -22.75 26.6 -22.7 26.55 -22.65 26.0 -22.65 25.9 -22.7 Q25.75 -22.7 25.6 -22.8 25.55 -22.85 25.5 -22.9 L25.5 -22.95 25.4 -23.0 25.35 -23.05 25.35 -23.1 25.1 -23.1 Q24.95 -23.05 24.85 -23.15 24.7 -23.2 24.7 -23.35 24.7 -23.4 24.8 -23.45 24.85 -23.5 24.9 -23.5 L25.1 -23.5 25.15 -23.45 25.2 -23.45 25.4 -23.4 25.5 -23.35 25.55 -23.25 25.7 -23.25 Q25.75 -23.35 25.75 -23.15 L25.75 -23.1 25.8 -23.1 26.15 -23.0 26.3 -22.95 26.65 -23.05 26.75 -23.05 26.85 -23.15 27.1 -23.3 27.1 -23.35 27.4 -23.55 27.5 -23.6 Q27.5 -23.65 27.65 -23.7 L27.8 -23.7 Q27.9 -23.75 27.95 -23.7 L28.0 -23.7 28.0 -23.8 28.1 -23.9 28.2 -23.95 28.75 -24.0 Q28.85 -24.15 29.0 -24.2 L29.1 -24.2 29.2 -24.15 Q29.25 -24.1 29.25 -24.05 L29.25 -23.95 29.1 -23.75 29.05 -23.75 M24.8 -24.05 L24.9 -24.1 25.0 -24.05 25.05 -23.95 25.05 -23.85 Q24.95 -23.7 24.65 -23.65 L24.45 -23.65 24.35 -23.7 Q24.3 -23.75 24.3 -23.8 24.25 -23.85 24.3 -23.9 24.3 -24.0 24.35 -24.0 L24.45 -24.05 24.6 -24.0 24.8 -24.05" fill="#cdffb4" fill-opacity="0.5019608" fill-rule="evenodd" stroke="none"/>
      <path d="M21.25 -26.55 L20.9 -26.4 Q20.65 -26.45 20.6 -26.5 L20.5 -26.5 Q20.25 -26.5 20.25 -26.2 L20.2 -26.2 20.25 -26.4 Q20.3 -26.5 20.5 -26.55 L20.6 -26.55 20.7 -26.5 20.9 -26.5 21.1 -26.55 21.55 -26.65 21.55 -26.6 21.65 -26.6 21.25 -26.55 M20.95 -25.2 L21.2 -24.95 21.3 -24.95 21.6 -24.85 21.8 -24.9 Q22.0 -24.9 22.0 -24.95 L22.55 -24.95 22.55 -24.9 22.05 -24.85 22.0 -24.8 21.6 -24.8 21.1 -24.95 21.05 -24.95 20.8 -25.0 19.85 -24.95 19.85 -24.9 Q19.9 -24.9 19.8 -24.9 19.65 -24.9 19.5 -25.05 L19.4 -25.1 Q19.25 -25.15 19.1 -25.35 L18.9 -25.5 Q18.65 -25.65 18.35 -25.65 L18.3 -25.7 18.25 -25.7 18.2 -25.75 Q18.15 -25.75 18.15 -25.85 18.15 -25.95 18.25 -25.95 L18.25 -25.9 18.4 -25.75 Q18.75 -25.75 19.0 -25.55 L19.1 -25.45 19.15 -25.35 Q19.25 -25.25 19.45 -25.2 L20.95 -25.2 M20.35 -25.45 L20.35 -25.55 Q20.35 -25.6 20.2 -25.7 20.15 -25.75 20.15 -25.9 20.15 -25.95 20.2 -25.95 L20.2 -25.9 20.25 -25.7 Q20.45 -25.65 20.45 -25.55 20.45 -25.45 20.35 -25.45 M23.15 -26.3 L23.3 -25.95 23.45 -25.95 23.6 -25.8 23.6 -25.65 23.5 -25.65 23.55 -25.75 Q23.55 -25.85 23.3 -25.9 23.2 -26.05 23.15 -26.15 L23.1 -26.25 22.65 -26.35 22.6 -26.4 22.65 -26.4 23.15 -26.3 M22.2 -26.5 Q22.35 -26.5 22.35 -26.45 L22.15 -26.45 22.15 -26.5 22.2 -26.5 M18.3 -26.05 L17.85 -26.15 17.85 -26.4 17.8 -26.4 17.5 -26.35 17.3 -26.3 16.85 -26.3 Q16.8 -26.35 16.75 -26.45 16.65 -26.55 16.65 -26.6 L16.35 -26.6 Q16.25 -26.6 16.25 -26.75 L16.25 -26.9 16.2 -26.95 Q16.1 -27.0 16.1 -27.1 16.1 -27.3 16.4 -27.4 L16.3 -27.25 Q16.2 -27.2 16.2 -27.1 16.2 -27.05 16.3 -26.9 L16.35 -26.7 16.7 -26.65 16.95 -26.4 Q17.1 -26.4 17.2 -26.45 L17.35 -26.5 17.85 -26.45 Q17.95 -26.4 17.95 -26.2 L18.3 -26.1 18.3 -26.05 M32.25 -25.6 Q32.25 -25.45 31.95 -25.35 L31.2 -25.2 31.05 -25.15 31.15 -25.0 Q31.15 -24.95 31.1 -24.9 30.95 -24.8 30.45 -24.8 L29.55 -24.9 29.4 -24.9 29.5 -25.0 29.8 -25.0 Q29.95 -24.95 29.95 -24.9 31.0 -24.95 31.0 -25.0 L30.85 -25.15 Q31.0 -25.15 31.05 -25.25 L31.8 -25.4 Q31.9 -25.45 31.9 -25.55 L32.2 -25.7 Q32.25 -25.75 32.25 -25.6 M29.1 -25.4 L28.5 -25.5 28.35 -25.5 28.35 -25.45 28.15 -25.45 Q28.15 -25.4 28.1 -25.4 27.95 -25.3 27.6 -25.25 26.85 -25.05 26.7 -25.05 L26.25 -25.05 26.1 -25.1 26.0 -25.0 25.75 -24.95 25.25 -25.0 25.15 -25.1 25.25 -25.05 25.4 -25.0 25.95 -25.05 26.05 -25.1 Q26.05 -25.15 26.1 -25.15 L26.8 -25.15 Q27.15 -25.4 28.15 -25.5 L28.5 -25.55 29.0 -25.45 29.5 -25.55 29.6 -25.55 Q29.3 -25.4 29.1 -25.4 M29.95 -25.55 L30.05 -25.6 30.2 -25.6 30.15 -25.55 29.95 -25.55 M31.3 -25.7 L31.3 -25.65 31.1 -25.6 30.65 -25.6 30.65 -25.65 Q30.7 -25.7 30.8 -25.75 L31.0 -25.7 31.3 -25.7 M28.75 -24.75 L28.3 -24.75 Q28.2 -24.65 28.2 -24.5 28.2 -24.4 28.05 -24.4 L27.1 -24.6 Q27.0 -24.65 27.0 -24.75 L26.3 -24.8 Q25.95 -24.8 25.55 -24.55 25.15 -24.3 25.1 -24.2 L25.05 -24.2 Q25.15 -24.55 25.5 -24.7 26.0 -24.9 27.05 -24.8 L27.1 -24.65 Q27.4 -24.6 27.45 -24.55 L27.85 -24.45 28.05 -24.5 Q28.1 -24.55 28.1 -24.6 L28.05 -24.75 28.25 -24.8 28.75 -24.75 M23.6 -25.0 L24.05 -25.05 24.1 -25.15 24.3 -25.2 24.65 -25.2 24.75 -25.15 25.1 -25.15 25.1 -25.1 24.7 -25.1 24.65 -25.2 24.45 -25.2 Q24.1 -25.05 24.1 -25.0 L23.75 -24.95 23.6 -25.0 M25.15 -23.3 Q25.2 -23.25 25.35 -23.25 L25.1 -23.25 Q24.9 -23.2 24.9 -23.35 L25.1 -23.35 25.15 -23.3 M25.4 -23.15 L25.4 -23.2 25.45 -23.2 25.45 -23.15 25.4 -23.15 M24.6 -23.8 L24.45 -23.8 24.45 -23.85 24.6 -23.85 Q24.7 -23.85 24.85 -23.95 24.8 -23.8 24.6 -23.8 M25.95 -22.85 Q25.85 -22.9 25.7 -22.95 25.9 -22.85 26.15 -22.85 L26.2 -22.8 26.65 -22.9 26.55 -22.8 26.05 -22.8 25.95 -22.85 M27.65 -23.5 Q27.6 -23.55 27.85 -23.6 L27.7 -23.5 27.65 -23.5 M28.6 -23.75 L28.15 -23.75 28.25 -23.8 28.85 -23.85 Q28.95 -24.0 29.05 -24.05 L28.9 -23.85 Q28.75 -23.65 28.6 -23.75 M27.25 -23.2 L27.5 -23.4 Q27.35 -23.2 27.15 -23.05 L26.85 -22.95 26.9 -22.95 26.95 -23.0 27.25 -23.2" fill="#ffffff" fill-rule="evenodd" stroke="none"/>
    </g>
  </defs>
</svg>
