<?xml version="1.0" encoding="UTF-8" standalone="no"?>
<svg xmlns:ffdec="https://www.free-decompiler.com/flash" xmlns:xlink="http://www.w3.org/1999/xlink" ffdec:objectType="frame" height="281.4px" width="521.5px" xmlns="http://www.w3.org/2000/svg">
  <g transform="matrix(1.0, 0.0, 0.0, 1.0, 257.95, 260.75)">
    <use ffdec:characterId="2443" height="27.6" transform="matrix(7.0, 0.0, 0.0, 7.0, -244.65, -185.15)" width="68.6" xlink:href="#shape0"/>
  </g>
  <defs>
    <g id="shape0" transform="matrix(1.0, 0.0, 0.0, 1.0, 34.95, 26.45)">
      <path d="M15.4 -21.0 Q15.75 -20.9 16.45 -20.85 17.3 -20.85 18.75 -20.4 19.95 -20.05 20.2 -19.8 L20.8 -19.55 Q21.45 -19.3 21.8 -19.05 L22.6 -18.35 Q23.1 -17.95 23.35 -17.7 23.65 -17.4 23.9 -17.0 24.25 -16.5 24.35 -16.2 24.75 -15.2 24.75 -14.7 24.75 -14.45 24.7 -14.25 L24.7 -14.15 Q24.65 -14.0 24.55 -13.85 24.45 -13.7 24.25 -13.6 L23.95 -13.3 23.7 -13.0 Q23.7 -12.95 23.95 -12.5 L24.35 -11.8 24.4 -12.2 24.4 -12.25 24.5 -12.3 Q24.65 -12.3 24.9 -11.85 25.15 -11.45 25.2 -11.3 L25.4 -10.35 Q25.65 -9.05 25.65 -8.45 L25.6 -7.75 Q25.6 -7.45 25.35 -6.95 25.2 -6.6 24.65 -6.2 24.25 -5.95 23.9 -5.8 L23.35 -5.5 23.0 -5.3 22.95 -5.25 Q22.6 -4.85 22.35 -4.65 L22.05 -4.5 21.75 -4.3 Q21.45 -4.1 20.75 -3.85 L20.5 -3.9 20.4 -3.9 Q20.35 -3.9 20.35 -4.0 21.1 -4.85 21.1 -4.9 L20.95 -5.15 20.15 -5.0 18.65 -4.25 18.2 -3.95 17.8 -3.65 Q17.65 -3.6 17.35 -3.25 L17.2 -3.1 17.25 -3.0 Q17.45 -2.75 17.45 -2.65 17.45 -2.15 16.95 -1.85 16.4 -1.5 15.05 -1.3 L14.75 -1.3 Q14.5 -1.45 14.4 -1.65 14.3 -1.85 14.4 -2.05 L13.2 -2.25 13.05 -2.25 12.45 -2.3 11.95 -2.35 Q11.9 -2.35 11.85 -2.4 L11.75 -2.45 11.25 -2.35 10.45 -2.2 Q9.9 -1.95 9.3 -1.8 7.8 -1.1 7.8 -0.8 7.8 -0.75 7.9 -0.55 L7.95 -0.4 7.75 -0.2 7.15 -0.1 7.15 -0.05 Q7.1 0.1 7.0 0.2 6.85 0.3 6.5 0.35 L3.35 0.35 2.7 0.4 1.9 0.35 1.15 0.3 -0.3 0.25 -3.15 -0.05 -5.15 -0.05 -6.2 0.05 Q-6.2 0.2 -6.35 0.25 -6.55 0.35 -7.05 0.35 -7.8 0.35 -8.8 0.0 -9.35 -0.15 -9.75 -0.3 -10.1 -0.4 -10.7 -0.65 L-11.65 -1.05 -13.4 -1.7 Q-14.4 -2.0 -16.2 -2.25 -17.25 -2.2 -17.7 -1.9 L-17.85 -1.8 -17.9 -1.65 -17.9 -1.6 Q-18.05 -1.45 -18.05 -1.25 -18.05 -1.15 -18.05 -1.05 L-18.0 -1.0 Q-18.75 -1.0 -19.45 -1.45 L-19.75 -1.65 Q-19.95 -1.7 -20.1 -1.9 L-20.15 -1.95 Q-20.25 -2.0 -20.3 -2.15 L-20.3 -2.4 Q-20.3 -2.45 -20.2 -2.5 L-20.15 -2.65 -20.1 -2.7 -21.1 -3.4 -21.85 -3.9 -23.2 -4.65 -23.9 -4.95 -24.5 -5.15 -25.4 -5.35 -25.7 -5.4 -25.9 -5.45 Q-26.0 -5.25 -26.5 -5.25 -27.45 -5.25 -28.75 -6.25 L-29.25 -6.6 Q-29.95 -6.9 -30.55 -7.85 -31.25 -8.95 -31.25 -9.55 L-31.25 -10.75 -31.2 -10.75 -31.0 -10.5 Q-30.7 -10.35 -30.25 -10.15 -29.6 -9.8 -29.3 -9.7 L-29.1 -9.7 Q-29.75 -10.55 -30.9 -11.25 -31.25 -11.5 -31.4 -11.7 -31.6 -12.0 -31.6 -12.5 -31.6 -12.9 -31.45 -13.1 -31.3 -13.25 -31.3 -13.8 L-31.5 -14.8 Q-31.75 -15.85 -31.75 -16.3 -31.75 -16.8 -31.6 -17.4 -31.45 -18.05 -31.2 -18.4 -30.8 -19.05 -30.4 -19.3 -30.15 -19.5 -29.5 -19.7 L-29.05 -19.85 -28.95 -19.85 -28.45 -20.0 -26.15 -20.0 -25.7 -19.9 Q-25.65 -19.9 -25.45 -20.2 L-25.15 -20.6 -24.65 -20.9 -24.4 -21.0 Q-23.8 -21.2 -23.25 -21.2 -22.5 -21.2 -21.4 -20.75 L-20.75 -20.25 Q-19.5 -19.5 -18.85 -18.9 L-18.2 -18.25 Q-17.75 -17.8 -17.75 -17.55 L-17.7 -17.55 -17.7 -17.45 Q-17.7 -17.35 -17.95 -17.25 L-18.3 -17.15 -18.25 -17.05 Q-18.2 -16.9 -18.15 -16.85 L-18.05 -16.8 Q-17.95 -16.7 -17.8 -16.7 L-16.55 -16.6 -16.25 -16.65 -16.05 -16.65 -15.6 -16.8 -15.3 -16.95 -15.3 -17.0 -15.0 -17.3 -15.0 -17.4 -14.9 -17.9 Q-14.9 -18.5 -15.45 -18.9 -16.05 -19.3 -16.05 -19.8 L-16.0 -20.0 -16.05 -20.0 Q-16.05 -20.35 -15.65 -20.9 L-15.35 -21.3 Q-14.85 -21.9 -14.15 -22.3 L-13.85 -22.5 -13.35 -22.55 -12.5 -22.5 Q-12.1 -22.5 -11.5 -22.8 -11.05 -22.95 -10.8 -23.15 -10.5 -23.35 -10.25 -24.05 -10.05 -24.55 -9.75 -25.0 -9.35 -25.55 -8.8 -25.9 L-8.35 -26.25 Q-8.0 -26.4 -6.95 -26.45 L-5.8 -26.15 -3.6 -25.8 -1.9 -25.6 -0.95 -25.4 -0.25 -25.15 -0.4 -25.3 Q-0.75 -25.75 -1.0 -25.95 -0.9 -26.1 0.15 -25.8 1.15 -25.5 1.4 -25.3 2.6 -24.7 3.05 -24.6 3.55 -24.45 4.75 -24.4 5.85 -24.65 7.85 -23.9 9.75 -23.2 10.5 -22.55 11.4 -21.85 12.15 -20.85 12.25 -20.75 12.85 -20.1 13.4 -19.55 13.55 -19.25 L13.55 -19.2 Q13.8 -19.0 13.95 -18.65 L14.25 -17.7 14.65 -17.6 14.7 -17.6 Q14.65 -17.85 14.65 -18.1 L14.65 -18.5 14.6 -19.05 Q14.6 -19.5 14.8 -20.05 14.9 -20.5 15.1 -20.65 L15.1 -20.7 15.25 -20.9 Q15.35 -21.0 15.4 -21.0" fill="#cdffb4" fill-opacity="0.5019608" fill-rule="evenodd" stroke="none"/>
      <path d="M15.3 -19.95 L15.65 -20.65 Q16.4 -20.7 17.75 -20.35 19.3 -19.95 20.65 -19.25 24.35 -17.35 24.35 -14.4 L24.35 -14.0 Q24.3 -13.85 24.15 -13.8 L24.0 -13.8 Q23.8 -13.65 23.6 -13.35 23.35 -13.05 23.35 -12.95 23.35 -12.85 23.75 -12.1 L24.1 -11.55 Q24.3 -11.4 24.55 -11.35 L24.6 -11.35 24.55 -11.45 24.6 -11.75 Q24.7 -11.7 24.75 -11.55 L24.8 -11.55 24.85 -11.45 24.9 -11.05 24.95 -10.75 Q25.15 -10.35 25.2 -10.05 L25.2 -9.8 Q25.4 -9.0 25.4 -8.45 L25.35 -7.85 Q25.3 -7.45 25.2 -7.2 25.05 -6.85 24.5 -6.45 24.0 -6.1 23.65 -6.05 L23.45 -6.0 Q22.95 -5.7 22.15 -5.0 21.35 -4.35 20.9 -4.2 L21.25 -4.55 21.45 -4.85 21.35 -4.75 21.3 -4.85 21.25 -5.2 Q21.2 -5.4 21.05 -5.5 19.45 -5.1 18.45 -4.5 17.6 -3.95 16.85 -3.05 16.9 -2.85 17.05 -2.75 17.1 -2.7 17.15 -2.7 17.15 -2.5 17.1 -2.4 L16.9 -2.2 16.0 -1.85 Q15.45 -1.65 14.95 -1.65 14.8 -1.65 14.75 -1.75 L14.7 -1.9 14.8 -2.0 14.85 -2.1 14.55 -2.35 13.3 -2.45 Q12.65 -2.45 12.25 -2.6 L12.55 -2.7 11.5 -2.75 11.45 -2.65 Q10.7 -2.65 10.35 -2.5 9.6 -2.15 8.9 -1.95 8.7 -1.9 8.15 -1.55 7.45 -1.1 7.45 -0.9 7.45 -0.75 7.55 -0.6 7.6 -0.45 7.6 -0.4 7.0 -0.35 6.85 -0.3 L6.7 -0.15 Q6.5 0.0 4.25 0.0 L4.0 0.0 3.9 0.05 3.85 0.0 3.55 0.0 3.05 -0.05 -0.15 -0.15 -5.95 -0.4 Q-6.0 -0.35 -6.4 -0.25 -6.4 -0.1 -6.5 -0.05 L-7.5 0.0 Q-8.25 0.0 -9.3 -0.4 L-11.25 -1.25 Q-14.1 -2.45 -16.35 -2.45 L-17.2 -2.4 Q-17.9 -2.3 -18.1 -2.0 L-18.2 -1.8 Q-18.2 -1.65 -18.35 -1.5 -18.35 -1.4 -18.4 -1.35 L-18.55 -1.3 -19.0 -1.55 -19.25 -1.65 -19.25 -1.7 -19.3 -1.7 Q-19.8 -2.0 -19.95 -2.2 -19.95 -2.3 -19.75 -2.45 L-19.55 -2.65 Q-20.95 -3.85 -22.1 -4.4 -23.55 -5.1 -26.2 -5.85 -26.2 -5.7 -26.2 -5.65 -26.25 -5.55 -26.45 -5.55 -27.05 -5.55 -29.4 -7.05 -29.7 -7.35 -30.3 -8.15 -31.0 -9.1 -31.0 -9.45 L-30.9 -9.8 Q-30.85 -10.0 -30.7 -10.1 L-29.85 -9.65 Q-29.35 -9.35 -28.85 -9.3 L-28.7 -9.45 Q-28.9 -10.05 -29.35 -10.5 -29.65 -10.8 -30.25 -11.2 -30.75 -11.55 -30.95 -11.75 -31.25 -12.1 -31.25 -12.55 L-31.1 -13.05 Q-30.95 -13.4 -30.95 -13.55 -30.95 -13.65 -31.1 -14.25 -31.25 -14.9 -31.25 -15.1 L-31.3 -16.0 -31.35 -16.7 Q-31.35 -17.6 -30.85 -18.35 -29.9 -19.65 -27.7 -19.65 L-26.85 -19.6 -25.65 -19.5 Q-25.3 -20.0 -25.0 -20.2 -24.5 -20.65 -23.9 -20.6 -23.05 -21.2 -20.65 -19.65 -19.8 -19.1 -19.1 -18.5 L-18.55 -18.05 Q-18.25 -17.8 -18.15 -17.65 L-18.2 -17.5 Q-18.4 -17.45 -18.45 -17.45 -18.65 -17.4 -18.65 -17.55 L-18.65 -17.45 -18.9 -17.45 -18.9 -17.4 -18.85 -17.35 -18.6 -16.95 -18.5 -16.75 Q-18.4 -16.6 -18.25 -16.55 -17.8 -16.3 -16.5 -16.3 -15.4 -16.3 -14.9 -16.9 -14.65 -17.25 -14.6 -17.7 -14.7 -18.35 -14.9 -18.75 -15.0 -19.0 -15.4 -19.25 -15.7 -19.45 -15.7 -19.85 -15.7 -20.05 -15.45 -20.5 -15.2 -20.95 -14.8 -21.35 -13.7 -22.45 -12.4 -22.2 L-11.3 -22.5 Q-10.65 -22.7 -10.3 -23.1 -10.1 -23.35 -9.95 -23.7 L-9.75 -24.2 Q-9.3 -25.05 -8.8 -25.5 -7.95 -26.25 -7.0 -25.95 L-5.95 -25.8 -5.55 -25.75 -4.0 -25.5 -3.3 -25.5 Q-1.75 -25.3 -1.0 -24.95 L-0.5 -24.75 0.3 -24.7 Q0.45 -24.7 0.45 -24.75 L0.15 -25.05 Q0.0 -25.15 0.0 -25.25 0.0 -25.4 0.05 -25.45 L0.05 -25.4 Q1.2 -25.2 2.25 -24.55 2.6 -24.3 2.85 -24.2 3.5 -24.0 4.55 -24.05 5.0 -24.35 6.7 -23.85 8.2 -23.6 9.75 -22.6 11.05 -21.8 11.55 -21.05 12.25 -20.2 12.55 -19.95 13.3 -19.3 13.85 -17.95 L14.05 -17.25 14.65 -17.3 14.95 -17.05 15.1 -16.95 15.55 -16.7 15.75 -16.95 15.85 -17.0 15.35 -17.55 Q15.3 -17.45 15.15 -17.45 L15.05 -17.55 15.05 -18.75 Q15.05 -19.05 15.2 -18.4 15.2 -18.8 15.1 -18.95 15.0 -19.15 15.0 -19.25 L15.3 -19.95 M7.65 -8.2 L7.65 -8.2" fill="#ffffff" fill-rule="evenodd" stroke="none"/>
      <path d="M12.0 -20.0 L12.0 -19.95 Q13.65 -17.95 13.65 -15.55 13.65 -14.85 13.45 -14.1 13.35 -13.8 13.25 -13.6 13.25 -13.25 13.2 -12.85 L13.15 -12.65 Q13.25 -12.45 13.25 -12.2 13.25 -11.7 13.05 -11.35 L12.45 -10.4 11.5 -9.85 Q10.7 -9.4 10.4 -9.4 L9.85 -9.4 9.7 -9.25 Q9.55 -9.35 9.45 -9.5 9.4 -9.6 9.4 -9.65 9.4 -9.9 9.75 -10.55 10.1 -11.25 10.6 -11.85 11.2 -12.6 11.65 -12.8 L11.8 -13.35 Q12.0 -14.25 12.0 -14.75 12.0 -16.2 9.4 -18.45 7.05 -20.55 4.85 -21.4 L4.8 -21.35 Q5.3 -21.15 5.85 -20.85 4.1 -21.75 3.2 -22.05 1.6 -22.65 0.6 -22.25 L0.5 -22.1 0.4 -22.1 0.25 -21.95 0.15 -21.8 Q0.15 -21.75 0.2 -21.7 L0.1 -21.7 Q-0.3 -21.6 -0.3 -21.5 L-0.65 -21.55 -0.65 -21.6 Q-1.0 -21.75 -1.25 -22.0 -1.65 -22.4 -1.65 -22.95 L-1.6 -23.15 Q-1.55 -23.3 -1.3 -23.35 -0.8 -23.4 -0.35 -23.35 -0.15 -23.45 0.15 -23.55 0.9 -23.7 2.05 -23.5 L2.7 -23.4 Q3.15 -23.75 4.05 -23.85 5.35 -23.95 6.95 -23.4 8.0 -23.25 8.9 -22.85 L9.75 -22.3 10.7 -21.55 10.85 -21.45 Q11.1 -21.15 11.35 -20.75 L11.45 -20.7 Q11.75 -20.35 12.0 -20.0 M17.25 -16.45 Q17.25 -16.65 17.25 -16.7 17.3 -16.95 17.55 -17.05 18.9 -17.1 20.0 -16.25 20.4 -15.95 20.8 -15.5 L21.35 -14.8 22.1 -13.3 Q22.15 -13.15 22.15 -12.15 22.15 -11.85 22.3 -11.75 22.4 -11.65 22.65 -11.65 23.3 -11.6 23.5 -11.1 23.8 -10.55 23.8 -10.35 L23.8 -9.7 Q23.8 -9.0 23.75 -8.75 23.65 -8.25 23.25 -7.8 22.7 -7.15 22.45 -6.95 21.7 -6.3 20.8 -6.3 20.65 -6.3 20.35 -6.45 L19.7 -6.8 Q18.7 -7.25 18.0 -7.2 18.4 -6.9 18.55 -6.55 L18.7 -6.5 Q19.05 -6.3 19.05 -5.95 19.05 -5.85 18.85 -5.65 18.65 -5.4 18.35 -5.2 17.5 -4.6 16.6 -4.55 L16.3 -4.5 14.2 -4.45 Q13.55 -4.4 13.2 -4.2 12.85 -4.05 12.65 -4.05 11.6 -4.05 10.65 -4.5 9.6 -5.0 9.6 -5.6 9.6 -5.85 10.0 -6.15 10.4 -6.5 11.0 -6.8 12.5 -7.55 13.85 -7.35 14.05 -7.4 14.8 -7.8 15.5 -8.2 15.7 -8.2 16.4 -8.2 16.75 -7.9 L16.9 -7.8 Q17.25 -7.7 17.5 -7.55 17.25 -7.75 17.05 -8.05 16.6 -8.7 16.6 -9.2 16.6 -9.3 16.7 -9.5 16.8 -9.7 16.8 -9.8 L16.95 -9.8 Q17.05 -9.8 17.15 -9.75 L17.4 -9.75 Q17.85 -10.1 18.15 -11.3 L18.0 -11.3 Q17.7 -11.3 17.4 -11.8 17.15 -12.3 17.2 -12.55 L17.3 -12.55 Q17.35 -12.4 17.4 -12.35 L17.45 -12.4 Q17.9 -14.25 18.25 -13.95 L18.15 -14.3 Q17.95 -14.7 17.5 -15.35 L17.5 -16.25 17.35 -16.2 17.25 -16.15 17.25 -16.45 M0.5 -21.75 L0.55 -21.85 0.75 -21.95 1.25 -22.1 Q3.6 -22.1 6.15 -20.5 7.65 -19.55 8.85 -18.35 9.75 -17.45 10.25 -16.25 10.7 -15.15 10.7 -14.05 10.7 -13.5 10.45 -12.55 L10.2 -11.7 Q10.0 -11.35 9.85 -11.1 L9.75 -11.0 9.8 -11.0 9.7 -10.95 9.55 -10.75 9.6 -10.85 9.3 -10.55 Q9.25 -10.5 8.85 -10.35 8.8 -10.35 8.65 -10.1 L8.4 -9.75 8.0 -9.25 Q7.55 -8.7 6.7 -8.4 5.65 -8.1 5.1 -7.85 4.9 -7.9 4.55 -8.1 4.15 -8.35 4.1 -8.45 4.05 -8.6 3.95 -8.9 L3.95 -8.65 Q3.95 -7.95 3.65 -7.45 3.2 -6.75 2.2 -6.55 1.8 -6.4 1.35 -6.4 L0.25 -6.45 Q-0.75 -6.5 -1.1 -6.45 -1.85 -6.9 -2.95 -7.55 -3.75 -8.05 -3.65 -8.75 -3.55 -9.95 -4.85 -11.25 -4.9 -11.2 -4.85 -11.1 L-4.8 -10.95 Q-4.85 -10.85 -4.9 -10.8 -5.6 -11.05 -6.1 -11.7 L-6.45 -12.25 -6.6 -12.4 -6.6 -12.45 Q-7.0 -13.2 -7.0 -13.6 -7.0 -14.7 -6.5 -14.7 -6.3 -14.7 -6.1 -14.9 -5.95 -15.1 -5.95 -15.15 -5.95 -15.45 -6.3 -16.0 -6.7 -16.6 -7.25 -17.2 -8.7 -18.7 -10.1 -18.7 -10.35 -18.7 -10.65 -18.55 -10.85 -18.45 -10.9 -18.4 -11.3 -18.5 -11.55 -18.75 -11.7 -19.0 -11.7 -19.25 -11.7 -19.6 -11.25 -19.95 -10.75 -20.3 -9.8 -20.3 L-8.75 -20.2 Q-8.6 -20.1 -8.4 -20.0 -8.55 -20.35 -9.15 -21.1 -9.35 -21.35 -9.45 -21.6 L-9.35 -21.55 Q-9.3 -21.6 -9.35 -21.75 L-9.4 -22.1 Q-9.4 -22.55 -9.1 -22.9 -8.55 -23.5 -7.35 -23.5 -5.6 -23.5 -4.15 -23.0 -2.85 -22.5 -1.7 -21.5 L-1.35 -21.2 Q-1.2 -21.35 -0.65 -21.25 L-0.65 -21.3 -0.3 -21.25 -0.05 -21.3 0.3 -21.4 Q0.45 -21.55 0.5 -21.75 M-26.5 -7.1 Q-27.0 -7.1 -27.6 -7.65 -28.05 -8.15 -28.05 -8.35 -28.05 -8.8 -27.7 -8.85 -27.35 -8.9 -26.85 -8.65 -26.4 -8.45 -26.05 -8.15 -25.65 -7.8 -25.65 -7.55 -25.65 -7.35 -25.85 -7.25 -26.1 -7.1 -26.5 -7.1 M-23.8 -17.75 L-23.3 -17.85 Q-22.8 -17.85 -22.6 -17.5 L-22.6 -17.45 -22.55 -17.45 -22.35 -17.3 Q-22.4 -17.2 -22.85 -16.85 -23.15 -16.6 -23.15 -16.4 L-23.15 -16.2 -23.25 -16.15 -23.15 -16.05 -23.05 -16.1 Q-22.9 -16.15 -22.7 -16.3 -22.4 -16.55 -21.9 -16.55 L-21.6 -16.5 Q-20.45 -16.2 -19.85 -15.25 -19.6 -14.9 -19.45 -14.4 -19.4 -14.55 -19.25 -14.7 -19.0 -14.9 -18.75 -14.95 L-18.75 -15.0 Q-17.9 -15.05 -17.35 -14.9 -16.8 -14.75 -16.8 -14.4 -16.8 -14.25 -16.85 -14.2 L-16.85 -14.15 Q-17.35 -14.05 -17.7 -13.8 -17.95 -13.7 -18.3 -13.65 -18.55 -13.55 -19.05 -13.55 L-19.25 -13.65 -19.2 -13.35 -19.25 -12.9 -19.2 -12.85 Q-19.25 -12.05 -19.7 -11.85 -20.05 -11.7 -21.5 -11.85 L-22.05 -11.85 Q-22.35 -11.65 -22.45 -11.35 -22.6 -10.95 -22.65 -10.9 L-22.75 -10.75 Q-23.25 -10.45 -23.5 -9.9 L-23.6 -9.6 -23.65 -9.5 Q-23.7 -9.35 -23.75 -9.05 L-23.85 -8.6 -23.75 -8.55 -23.75 -8.5 -23.7 -8.35 Q-23.8 -8.3 -23.95 -8.3 -25.7 -8.3 -27.15 -9.45 -27.8 -10.0 -28.15 -10.6 -28.55 -11.2 -28.55 -11.75 -28.55 -12.35 -28.4 -12.75 -28.15 -13.4 -27.65 -13.45 L-27.6 -13.5 -27.6 -13.65 Q-27.6 -13.8 -27.75 -14.05 -27.9 -14.25 -27.9 -14.35 -27.9 -15.25 -26.85 -16.05 -26.6 -16.45 -25.9 -16.95 -24.7 -17.75 -23.8 -17.75 M0.3 -1.85 L0.25 -1.8 0.1 -1.75 -0.75 -1.7 Q-2.65 -1.7 -6.2 -2.3 -9.6 -2.9 -11.0 -2.85 -11.35 -2.95 -11.6 -3.45 L-12.0 -4.1 -11.85 -4.15 Q-11.65 -4.2 -11.6 -4.25 L-10.35 -4.25 Q-11.45 -4.3 -11.85 -4.45 -12.05 -4.55 -12.1 -4.65 L-12.1 -4.85 Q-12.1 -5.25 -11.8 -5.45 -11.25 -5.8 -9.9 -5.7 -9.0 -5.6 -8.6 -5.45 -8.2 -5.25 -8.2 -4.9 -8.2 -4.55 -8.55 -4.4 L-7.0 -4.0 Q-5.15 -3.5 -4.4 -3.5 -3.2 -3.5 -3.1 -3.6 L-3.1 -3.8 Q-3.1 -4.0 -2.95 -4.15 -2.7 -3.95 -2.35 -3.65 L-1.8 -3.1 Q-1.0 -2.45 0.6 -2.05 L1.1 -1.6 Q0.8 -1.65 0.3 -1.85 M2.9 -4.4 Q3.0 -4.4 3.25 -4.25 3.5 -4.05 4.15 -4.05 5.4 -4.05 6.15 -4.35 6.65 -4.6 6.85 -5.0 L6.45 -5.0 Q6.4 -5.05 6.4 -5.2 6.4 -5.4 6.8 -5.75 L8.3 -5.6 Q8.8 -5.55 8.8 -5.25 8.8 -5.15 8.7 -5.1 8.55 -5.1 8.55 -5.0 8.55 -4.6 8.8 -4.35 L9.55 -3.5 9.25 -3.35 Q9.2 -3.05 8.85 -2.85 8.5 -2.6 7.7 -2.35 L6.1 -1.75 5.25 -1.45 Q4.55 -1.45 3.4 -1.75 L2.55 -2.0 Q1.95 -2.15 1.05 -2.55 -0.4 -3.15 -0.4 -3.35 L-0.35 -3.55 0.2 -3.55 0.85 -3.45 Q1.45 -3.4 2.05 -3.45 L2.45 -4.0 Q2.75 -4.4 2.9 -4.4 M-24.25 -6.95 L-24.1 -7.1 Q-23.1 -7.1 -22.5 -6.7 -22.35 -6.55 -22.15 -6.35 L-21.95 -6.15 Q-21.8 -6.05 -21.15 -5.95 L-20.4 -5.8 -19.7 -5.6 -19.05 -5.45 Q-18.8 -5.0 -17.6 -4.65 -16.55 -4.35 -15.65 -4.35 L-15.2 -4.4 Q-14.9 -4.5 -14.75 -4.55 L-14.6 -4.3 -14.45 -3.95 -14.85 -3.65 Q-17.45 -3.75 -18.5 -4.15 -18.75 -4.25 -19.4 -4.6 -20.05 -4.9 -20.65 -5.15 -21.45 -5.45 -23.05 -5.85 -24.25 -6.2 -24.25 -6.7 L-24.25 -6.95 M-9.15 -15.7 Q-8.1 -14.75 -7.8 -14.3 -7.55 -13.85 -7.0 -12.75 L-6.95 -12.65 -7.0 -12.65 Q-6.85 -12.3 -6.6 -11.95 L-6.15 -11.2 -5.9 -10.75 Q-5.65 -10.25 -5.65 -9.8 -5.65 -9.7 -5.75 -9.45 -5.9 -9.15 -6.0 -9.05 L-6.6 -9.15 Q-7.2 -9.65 -7.95 -10.65 -8.8 -11.7 -9.3 -12.15 -10.0 -12.8 -12.05 -13.3 -13.45 -13.65 -14.65 -13.75 -14.9 -14.05 -14.9 -14.4 -14.9 -14.5 -14.55 -14.7 L-14.1 -14.85 -12.35 -14.75 -12.15 -14.65 Q-12.1 -14.6 -11.95 -14.55 L-11.8 -14.55 -11.65 -14.35 -11.6 -14.35 Q-11.5 -14.65 -11.85 -14.9 -12.15 -15.2 -12.6 -15.3 -12.75 -15.7 -12.75 -16.1 -12.75 -16.3 -12.55 -16.5 L-12.2 -16.85 -11.75 -16.95 -11.3 -17.0 Q-10.55 -17.0 -9.15 -15.7 M-19.25 -11.25 L-19.15 -11.15 -19.0 -11.35 Q-18.95 -12.55 -17.8 -13.05 -16.7 -13.55 -14.7 -13.45 -12.25 -13.1 -10.45 -11.95 -9.65 -11.45 -9.2 -10.9 -8.8 -10.35 -8.8 -9.95 -8.8 -9.55 -8.95 -9.25 L-8.95 -9.2 -8.9 -9.0 Q-8.9 -8.45 -8.8 -8.1 -8.5 -7.15 -7.6 -6.1 -6.6 -5.0 -5.5 -4.45 L-5.45 -4.4 -5.3 -4.15 Q-6.05 -4.3 -6.5 -4.6 -6.7 -4.75 -7.45 -5.5 -8.05 -6.1 -8.85 -6.4 -10.0 -6.85 -12.05 -7.05 L-12.05 -7.1 -13.55 -7.0 -14.95 -6.85 Q-16.35 -6.65 -16.7 -5.5 -17.35 -5.6 -18.2 -5.9 L-18.15 -5.9 Q-18.4 -6.25 -19.05 -6.4 -19.7 -6.65 -20.1 -6.4 L-20.4 -6.45 Q-21.35 -6.95 -22.05 -7.5 -23.25 -8.4 -23.25 -8.9 -23.25 -9.05 -23.0 -9.65 L-22.8 -10.1 -22.75 -10.2 -21.75 -10.7 Q-20.55 -11.25 -20.35 -11.25 L-19.25 -11.25" fill="#cdffb4" fill-rule="evenodd" stroke="none"/>
      <path d="M-7.4 -8.1 L-7.4 -8.1 M-19.95 -13.45 L-20.0 -13.5 Q-21.0 -13.95 -21.4 -14.1 L-21.7 -13.9 -21.85 -13.75 Q-21.6 -13.45 -21.5 -12.9 -21.35 -12.3 -21.25 -12.05 L-21.55 -12.05 -21.85 -12.15 Q-21.95 -11.15 -21.0 -9.85 -20.4 -9.05 -19.2 -7.8 -19.05 -7.75 -18.9 -7.6 L-18.5 -7.4 -18.45 -7.35 -18.4 -7.35 Q-17.95 -7.05 -17.9 -6.9 L-16.85 -6.75 -15.75 -6.7 Q-15.2 -6.6 -14.9 -6.4 -14.85 -6.5 -14.8 -6.6 -15.45 -7.55 -17.2 -9.1 -19.25 -10.95 -20.0 -11.8 -19.95 -11.85 -19.8 -11.9 L-19.7 -11.95 Q-19.45 -11.85 -19.1 -11.6 -18.85 -11.45 -18.65 -11.4 -18.75 -11.8 -18.65 -12.05 L-18.55 -12.35 Q-18.55 -12.4 -18.9 -12.75 L-19.0 -12.75 -19.9 -13.45 -19.95 -13.45 M-18.2 -14.45 Q-18.4 -14.45 -18.45 -14.3 -18.45 -14.15 -18.65 -14.15 L-18.3 -13.75 -17.25 -12.85 -17.05 -12.8 Q-16.95 -12.8 -16.8 -12.7 L-16.75 -12.7 -16.75 -12.75 -16.65 -12.7 -16.5 -12.7 -16.1 -12.65 -15.4 -12.75 -15.25 -12.85 -16.15 -13.55 -16.4 -13.7 Q-17.75 -14.45 -18.2 -14.45 M14.45 -0.6 L14.45 -0.65 14.25 -0.65 13.65 -0.6 Q14.1 -0.85 16.05 -1.4 L18.3 -2.0 Q18.3 -2.3 18.3 -1.9 L18.3 -1.65 15.7 -0.35 Q14.25 0.35 12.6 0.75 L12.5 0.7 Q12.55 0.6 12.9 0.55 L13.7 0.05 13.75 0.0 14.2 -0.1 14.35 -0.35 14.45 -0.35 14.45 -0.4 14.75 -0.55 14.45 -0.6 M11.55 -5.15 L10.65 -5.2 Q10.25 -5.2 9.4 -4.6 8.6 -4.05 8.2 -4.05 L8.3 -4.15 7.4 -3.6 Q7.2 -3.15 6.6 -2.55 L5.8 -1.75 Q6.15 -1.75 6.25 -1.65 L6.85 -1.75 7.3 -1.85 Q8.45 -2.3 9.25 -2.85 11.0 -3.9 11.55 -5.15 M15.6 -14.35 L15.7 -14.3 Q15.8 -14.3 15.8 -14.05 15.8 -13.85 15.65 -13.65 15.5 -13.45 15.5 -13.25 15.5 -12.95 15.8 -12.3 16.15 -11.6 16.4 -11.5 L16.75 -11.45 17.2 -11.6 17.9 -11.75 17.95 -11.8 Q17.9 -11.85 17.9 -11.9 17.9 -12.05 18.1 -12.1 L18.15 -12.1 Q18.35 -12.1 18.4 -12.0 18.7 -11.65 19.9 -12.35 21.6 -13.4 22.15 -13.55 L22.2 -12.9 Q22.25 -12.4 22.35 -12.05 22.05 -12.05 20.95 -10.65 19.55 -8.85 19.15 -8.5 20.3 -8.75 21.0 -9.1 21.75 -9.5 22.4 -10.2 22.7 -10.0 22.7 -9.85 22.5 -9.55 22.2 -8.45 21.95 -7.5 21.7 -7.3 21.15 -6.95 20.3 -5.8 19.75 -5.0 19.1 -4.65 18.85 -4.4 18.5 -4.2 L17.8 -3.65 Q17.2 -3.25 16.9 -3.2 16.45 -2.85 16.1 -2.65 L15.4 -2.2 15.1 -2.05 Q14.55 -1.75 14.4 -1.75 L14.35 -1.75 Q14.0 -1.6 13.7 -1.6 L13.5 -1.55 13.45 -1.5 13.4 -1.5 Q12.85 -1.35 12.1 -1.0 11.15 -0.55 10.9 -0.55 L12.4 -1.25 12.1 -1.25 Q12.05 -1.3 12.05 -1.4 L12.0 -1.5 Q10.35 -0.8 4.65 1.15 L4.65 1.05 Q4.95 0.9 4.95 0.8 4.95 0.7 5.25 0.5 L4.5 0.5 4.25 0.55 4.15 0.55 3.9 0.6 3.8 0.65 3.75 0.7 3.25 0.7 2.9 0.75 Q2.7 0.75 2.7 0.6 2.7 0.45 2.5 0.45 L2.4 0.45 2.25 0.6 1.5 0.7 1.4 0.75 0.0 0.75 -0.15 0.6 -0.25 0.45 Q-0.5 0.35 -0.75 0.25 L-1.95 -0.4 -2.65 -0.8 -2.6 -0.7 Q-2.6 -0.5 -2.65 -0.5 L-2.7 -0.55 -3.45 -1.05 -4.15 -1.6 -4.6 -0.9 -4.95 -0.85 -5.25 -0.8 Q-5.4 -0.75 -5.45 -0.9 L-5.45 -0.7 -5.7 -0.7 -6.45 -0.8 -6.8 -0.85 Q-6.9 -1.05 -7.1 -1.25 L-8.05 -1.75 -9.6 -2.7 -9.7 -2.55 -9.65 -2.5 -9.75 -2.5 -9.75 -2.45 Q-9.6 -2.3 -9.6 -2.0 -9.6 -1.8 -9.65 -1.8 L-9.75 -1.85 Q-9.85 -2.0 -10.15 -2.2 L-10.15 -2.15 -10.5 -2.35 Q-11.95 -3.0 -12.4 -3.05 L-12.25 -3.0 Q-11.3 -2.35 -10.3 -1.5 -9.35 -0.75 -9.0 -0.25 -9.6 -0.1 -10.0 0.25 -10.25 0.45 -10.6 0.4 -10.7 0.35 -11.55 0.1 L-11.95 0.15 Q-12.95 -0.05 -14.15 -0.5 L-15.2 -0.85 -15.0 -0.75 Q-14.15 -0.2 -13.95 0.0 L-13.95 0.05 -13.6 0.25 -14.0 0.1 -14.2 0.2 -14.7 -0.1 -14.95 -0.15 Q-15.65 -0.3 -17.15 -0.8 L-17.55 -0.85 -17.75 -0.95 -21.15 -2.2 Q-23.1 -2.95 -23.5 -3.55 -23.45 -3.7 -22.85 -3.75 L-21.2 -3.8 -21.3 -3.9 Q-22.55 -4.7 -23.55 -5.2 -24.8 -5.75 -26.55 -6.3 -27.55 -7.35 -30.9 -8.6 -31.0 -8.65 -31.0 -8.85 L-30.9 -8.95 -27.75 -8.1 Q-25.0 -7.35 -23.75 -7.05 L-23.45 -7.2 -23.55 -7.2 Q-23.85 -7.55 -24.8 -8.1 L-26.1 -8.75 -27.2 -9.55 Q-28.3 -10.35 -28.7 -10.55 -30.2 -11.3 -32.65 -12.5 -34.45 -13.45 -34.95 -14.15 -33.3 -13.8 -30.4 -12.75 -28.7 -12.15 -27.35 -11.55 L-26.75 -11.4 -24.6 -10.8 -24.6 -10.85 -24.5 -10.95 -24.4 -10.95 -24.5 -11.05 Q-24.35 -11.05 -23.45 -10.4 L-23.0 -10.1 Q-23.15 -10.3 -23.15 -10.5 -23.15 -11.25 -25.75 -13.4 L-27.55 -14.9 Q-28.4 -15.7 -28.4 -16.15 -28.4 -16.65 -28.3 -16.75 L-29.3 -18.45 -30.2 -19.8 Q-30.6 -20.3 -30.6 -20.95 -30.6 -21.15 -30.55 -21.35 -30.5 -21.5 -30.5 -21.6 L-30.0 -21.6 -28.5 -20.9 -26.9 -20.1 Q-26.5 -19.7 -25.85 -19.3 -25.05 -18.85 -24.1 -18.65 L-24.5 -19.2 -24.2 -18.95 -24.35 -19.25 Q-24.0 -19.05 -23.6 -18.6 L-22.8 -18.55 -21.45 -19.05 -21.4 -19.15 Q-21.3 -19.2 -21.3 -19.45 -21.3 -19.85 -21.7 -20.35 -22.1 -21.0 -22.25 -21.45 -22.35 -22.0 -22.65 -22.75 -22.95 -23.4 -22.95 -23.55 -22.95 -23.65 -22.8 -23.8 L-22.55 -24.05 -21.35 -23.25 Q-20.9 -23.0 -20.35 -22.6 -19.55 -22.1 -19.0 -21.65 -18.0 -21.15 -17.05 -20.3 L-15.9 -19.15 -15.45 -18.85 -15.25 -18.85 -15.15 -18.9 Q-15.15 -18.95 -15.15 -19.05 -15.15 -19.1 -15.2 -19.15 -15.25 -19.2 -15.25 -19.3 L-15.25 -19.35 -15.2 -19.4 -15.05 -19.4 Q-13.35 -19.45 -12.85 -19.25 -12.65 -19.15 -12.65 -19.05 L-12.45 -18.8 -12.4 -18.75 Q-12.2 -18.7 -12.05 -18.6 L-11.6 -18.45 Q-11.55 -18.2 -11.3 -17.9 L-11.0 -17.6 Q-10.95 -17.65 -10.65 -17.75 L-9.75 -17.85 Q-8.6 -17.25 -7.6 -16.15 -6.9 -15.35 -6.4 -14.35 L-6.8 -14.65 -7.3 -15.0 -7.85 -15.0 -8.0 -14.9 -8.15 -14.9 -8.2 -14.85 -8.25 -14.85 Q-8.4 -14.55 -8.6 -14.05 -8.8 -13.35 -8.8 -13.0 -8.8 -12.05 -8.25 -10.65 L-7.75 -9.4 Q-7.25 -8.65 -6.9 -7.95 -6.5 -7.35 -6.5 -7.25 -6.5 -7.15 -6.55 -7.15 -6.65 -7.2 -6.95 -7.5 L-7.05 -7.5 -7.05 -7.55 -7.25 -7.65 -7.4 -7.75 -7.4 -7.7 Q-7.4 -7.6 -7.3 -7.3 L-5.2 -4.4 Q-4.85 -4.2 -4.45 -3.8 L-3.25 -2.7 Q-1.65 -1.3 0.35 -1.1 0.9 -1.55 1.95 -2.1 2.75 -2.6 3.15 -3.0 3.4 -2.95 3.45 -2.85 L4.85 -3.1 Q5.9 -3.5 7.0 -4.4 L7.15 -4.5 7.2 -4.55 8.4 -5.7 Q8.9 -6.35 8.9 -6.9 8.9 -7.15 8.75 -7.2 L8.7 -7.2 8.45 -6.95 8.3 -7.0 Q8.55 -7.8 10.3 -9.25 L10.4 -9.25 10.45 -9.35 10.95 -9.4 Q11.05 -9.3 11.05 -8.7 11.05 -8.6 11.3 -8.3 11.55 -8.0 11.55 -7.9 11.55 -7.6 11.15 -7.15 11.85 -7.8 12.7 -8.7 14.55 -10.9 14.55 -11.95 14.45 -12.85 14.05 -12.85 L13.95 -12.85 13.9 -12.8 13.9 -12.85 13.7 -12.8 13.55 -12.8 Q13.6 -12.9 13.9 -13.1 L13.95 -13.1 Q14.15 -13.35 14.55 -13.75 L15.1 -14.25 15.6 -14.35" fill="#cdffb4" fill-opacity="0.5019608" fill-rule="evenodd" stroke="none"/>
      <path d="M9.0 -7.4 L8.9 -7.4 9.55 -8.15 Q10.35 -9.05 10.85 -8.95 L10.75 -8.75 Q10.7 -8.45 10.6 -8.25 10.6 -8.1 11.05 -8.15 L11.15 -8.15 Q11.2 -8.15 11.2 -7.9 11.2 -7.8 10.95 -7.45 L10.95 -7.15 Q10.9 -6.85 10.7 -6.45 L11.55 -7.05 11.85 -6.95 12.5 -6.85 Q13.15 -6.85 14.5 -7.5 15.85 -8.1 16.3 -8.1 16.85 -8.1 17.7 -8.7 18.15 -9.05 18.65 -9.5 18.65 -9.4 18.4 -8.95 18.2 -8.5 18.25 -8.25 L18.3 -8.2 18.4 -8.05 18.6 -8.05 18.65 -8.0 Q18.75 -7.8 18.95 -7.8 19.55 -7.8 20.95 -8.75 21.8 -9.35 22.35 -9.8 L22.15 -9.45 Q22.05 -9.25 22.05 -9.0 22.05 -8.75 21.95 -8.65 L21.7 -8.4 21.8 -8.3 Q21.9 -8.2 21.9 -7.95 L20.7 -6.75 19.85 -5.8 19.85 -5.85 Q19.7 -5.8 19.05 -5.15 L18.3 -4.4 18.25 -4.4 Q17.8 -4.1 17.4 -3.8 L16.5 -3.3 Q16.35 -3.25 16.05 -3.1 L15.4 -2.7 14.45 -2.2 14.05 -2.0 13.55 -1.9 13.15 -1.8 13.35 -2.0 Q13.35 -2.1 13.25 -2.15 L13.2 -2.2 Q12.6 -1.75 9.6 -0.85 L5.95 0.3 6.1 0.15 6.05 0.15 5.6 0.2 Q5.55 -0.1 4.95 0.0 4.7 0.05 4.4 0.15 L3.05 0.15 3.0 0.25 2.9 0.1 Q2.75 0.0 2.6 0.0 L2.55 0.0 2.45 0.05 Q1.75 0.25 1.1 0.35 L0.65 0.4 0.0 0.2 -1.4 -0.55 Q-2.45 -1.1 -2.75 -1.1 L-2.85 -1.0 Q-3.1 -1.25 -3.7 -1.65 -4.75 -2.4 -5.05 -2.5 L-5.1 -2.35 Q-5.1 -2.2 -4.75 -1.85 L-4.8 -1.6 Q-4.85 -1.45 -5.0 -1.35 L-6.1 -1.5 Q-6.25 -1.55 -6.45 -1.4 L-7.15 -1.65 Q-7.55 -2.0 -8.2 -2.4 -9.55 -3.25 -10.35 -3.4 L-10.4 -3.45 Q-10.45 -3.45 -10.45 -3.2 -10.45 -3.0 -10.35 -2.8 L-10.3 -2.7 -10.5 -2.85 Q-12.55 -3.85 -13.1 -3.45 L-11.65 -2.2 Q-10.4 -1.15 -10.0 -0.7 L-10.2 -0.4 Q-10.25 -0.3 -10.4 -0.2 -11.7 -0.5 -11.95 -0.6 -12.1 -0.6 -12.25 -0.45 L-12.35 -0.35 -13.7 -0.75 Q-15.7 -1.35 -16.15 -1.4 L-16.1 -1.3 -16.45 -1.35 Q-15.9 -0.65 -15.45 -0.6 L-15.15 -0.4 -17.25 -1.1 Q-21.45 -2.5 -22.95 -3.4 L-23.05 -3.55 -22.55 -3.45 -21.95 -3.35 -21.25 -3.45 Q-20.8 -3.55 -20.6 -3.65 -21.5 -4.6 -23.0 -5.35 -24.15 -5.9 -26.4 -6.6 -26.7 -6.9 -27.2 -7.2 -27.85 -7.6 -28.65 -7.9 L-28.8 -7.95 Q-27.85 -7.8 -25.5 -7.25 L-23.3 -6.7 -22.9 -6.75 -22.85 -6.8 -22.85 -7.05 Q-22.85 -7.5 -25.2 -8.7 -25.9 -9.05 -26.6 -9.6 -27.3 -10.2 -27.6 -10.35 -33.2 -13.25 -33.55 -13.45 -32.55 -13.1 -30.15 -12.3 L-28.1 -11.55 Q-27.7 -11.25 -26.8 -10.95 L-25.05 -10.4 -24.4 -10.45 Q-24.35 -10.5 -24.35 -10.55 L-23.7 -10.15 Q-23.4 -9.85 -23.0 -9.6 L-22.95 -9.6 Q-22.8 -9.6 -22.65 -9.45 L-22.35 -9.15 -21.65 -8.6 Q-21.35 -8.35 -21.3 -8.25 L-20.2 -7.55 Q-18.85 -6.8 -17.4 -6.35 L-17.25 -6.25 -16.95 -6.25 -16.15 -6.05 -16.0 -6.05 -14.95 -5.8 -14.55 -5.85 -14.45 -6.05 Q-14.35 -6.2 -14.35 -6.4 -14.35 -7.0 -16.1 -8.65 L-18.35 -10.8 Q-18.2 -10.7 -17.95 -10.7 -17.9 -10.95 -17.9 -11.45 -17.9 -12.35 -18.9 -13.35 -19.5 -13.95 -21.3 -15.55 L-21.8 -16.1 -21.65 -16.1 -21.15 -15.65 Q-19.8 -14.4 -17.0 -12.2 L-16.85 -12.3 -16.6 -12.25 -16.55 -12.2 -16.35 -12.2 Q-16.25 -12.25 -16.2 -12.3 L-16.15 -12.3 Q-15.05 -12.3 -14.85 -12.55 -14.8 -12.7 -14.8 -13.7 L-14.9 -13.85 -13.2 -12.3 Q-12.3 -11.5 -11.65 -11.1 L-11.6 -11.05 Q-11.2 -10.7 -10.9 -10.55 -10.25 -10.8 -9.55 -10.1 -9.15 -9.4 -8.45 -8.5 L-7.85 -7.3 -7.8 -7.3 -7.75 -7.25 -7.25 -6.3 -7.2 -6.3 -7.4 -6.85 Q-7.35 -6.9 -7.35 -6.95 L-7.3 -6.85 Q-6.6 -5.85 -5.55 -4.45 L-5.6 -4.45 Q-5.45 -4.2 -5.1 -3.85 L-4.35 -2.9 -4.2 -2.95 -3.15 -2.0 Q-2.8 -1.6 -1.55 -1.1 -0.4 -0.7 -0.1 -0.7 L0.65 -0.7 Q1.1 -1.15 2.1 -1.8 2.85 -2.3 3.25 -2.65 L3.25 -2.6 Q3.3 -2.55 3.5 -2.55 5.95 -2.55 7.75 -4.45 8.35 -5.15 8.8 -5.9 9.15 -6.55 9.15 -6.85 L9.1 -7.15 9.1 -7.3 9.0 -7.4 M5.3 -1.45 L5.45 -1.5 Q5.85 -1.5 6.2 -1.3 L6.75 -1.45 Q7.15 -1.55 7.2 -1.6 L7.25 -1.65 7.25 -1.7 Q8.15 -2.05 9.15 -2.65 11.8 -4.1 11.8 -5.1 11.8 -5.35 11.7 -5.4 L11.55 -5.45 Q10.2 -5.25 9.45 -4.9 9.2 -4.75 8.9 -4.6 L8.85 -4.65 Q8.4 -4.6 7.55 -4.0 6.7 -3.35 6.7 -3.05 6.7 -2.9 6.25 -2.5 5.7 -2.05 5.55 -1.75 5.35 -1.7 5.3 -1.65 L5.3 -1.45 M22.05 -12.85 Q22.05 -12.35 20.35 -10.35 L18.65 -8.45 18.65 -8.55 Q18.65 -8.75 18.95 -9.45 L19.25 -10.25 Q19.25 -10.5 19.2 -10.45 L19.15 -10.4 Q18.85 -10.2 18.3 -9.65 L17.55 -8.85 Q15.7 -8.45 14.5 -7.85 13.65 -7.4 12.85 -7.4 L12.25 -7.35 11.8 -7.3 Q12.55 -7.95 13.25 -8.85 14.8 -10.75 14.8 -12.0 14.8 -12.3 14.6 -12.7 14.5 -13.05 14.4 -13.1 L14.25 -13.1 14.6 -13.45 Q15.25 -14.05 15.5 -14.1 15.5 -14.0 15.4 -13.75 15.35 -13.5 15.35 -13.3 15.35 -12.8 15.7 -12.25 15.8 -12.0 16.3 -11.25 17.2 -11.3 18.05 -11.6 L18.15 -11.65 Q18.25 -11.65 18.3 -11.7 L18.6 -11.55 18.7 -11.4 Q19.0 -11.45 19.1 -11.6 L19.4 -12.0 Q20.1 -11.95 20.75 -12.5 L21.85 -13.35 Q22.0 -13.35 22.05 -13.25 22.05 -13.15 22.05 -12.85 M15.0 -0.8 L14.6 -0.85 Q15.35 -1.05 16.4 -1.3 17.4 -1.55 17.75 -1.7 L17.7 -1.65 16.15 -0.75 Q15.05 -0.15 14.5 -0.1 14.6 -0.3 15.05 -0.35 L15.2 -0.6 15.0 -0.8 M-30.15 -20.35 Q-30.15 -20.6 -30.05 -20.8 -30.0 -21.05 -30.0 -21.1 L-30.0 -21.15 Q-29.4 -20.9 -26.8 -19.55 -24.35 -18.3 -24.3 -18.3 L-23.85 -18.3 Q-23.4 -17.6 -22.75 -16.8 -22.55 -16.65 -22.4 -16.45 L-22.15 -16.1 -20.9 -14.7 -20.05 -13.9 Q-20.45 -14.2 -21.5 -14.55 -22.05 -14.5 -22.1 -14.4 L-21.95 -13.7 Q-21.85 -13.2 -21.85 -13.05 -21.85 -12.85 -21.7 -12.65 -21.55 -12.45 -21.55 -12.35 L-22.0 -12.3 -22.05 -12.05 Q-22.2 -11.1 -21.25 -9.75 -20.75 -9.1 -20.1 -8.45 -19.95 -8.1 -19.35 -7.6 -19.85 -7.8 -20.8 -8.4 -20.9 -8.6 -21.35 -9.0 L-21.45 -9.1 -21.7 -9.5 Q-22.15 -9.7 -22.45 -10.2 L-23.05 -11.25 Q-23.75 -12.05 -25.05 -13.1 L-27.45 -15.15 Q-27.65 -15.4 -27.7 -15.75 L-27.7 -16.8 Q-27.7 -17.15 -28.95 -18.7 -30.15 -20.2 -30.15 -20.35 M-10.45 -17.65 Q-9.3 -17.45 -8.4 -16.65 -8.0 -16.3 -7.2 -15.25 L-7.1 -15.15 -7.25 -15.2 -8.0 -15.2 -8.0 -15.15 Q-8.0 -15.2 -8.05 -15.2 L-8.1 -15.1 Q-8.25 -15.0 -8.4 -14.95 -8.65 -14.65 -8.85 -14.1 -9.15 -13.35 -9.15 -13.0 L-9.0 -12.1 Q-8.85 -11.35 -8.85 -11.15 -8.15 -9.05 -7.65 -8.3 -7.75 -8.4 -7.9 -8.4 L-7.9 -8.35 -8.05 -8.35 Q-8.25 -8.85 -8.55 -9.4 -8.95 -10.05 -9.35 -10.5 -9.85 -11.45 -10.25 -11.9 -10.3 -11.65 -10.3 -11.1 L-10.45 -10.95 -10.9 -10.95 -11.4 -11.35 -11.95 -11.75 -12.15 -11.65 -14.15 -13.7 Q-15.9 -15.5 -16.2 -15.75 L-16.25 -15.8 Q-16.3 -15.8 -16.3 -15.55 -16.3 -15.45 -15.7 -14.4 L-15.1 -13.35 -15.1 -13.1 Q-15.3 -13.35 -16.05 -13.85 L-16.75 -14.3 Q-17.85 -15.05 -18.5 -14.75 L-18.9 -14.7 Q-18.95 -14.6 -18.95 -14.45 L-19.6 -15.0 Q-21.0 -16.15 -21.2 -16.35 L-21.25 -16.35 -23.0 -17.9 -23.35 -18.3 Q-22.55 -18.35 -22.05 -18.5 L-21.25 -18.75 -21.15 -18.95 Q-21.1 -19.1 -21.1 -19.35 -21.1 -19.85 -21.4 -20.35 -21.85 -21.1 -22.0 -21.45 -22.05 -21.55 -22.1 -22.45 -22.15 -23.05 -22.65 -23.45 L-22.45 -23.5 Q-21.35 -23.15 -19.35 -21.65 L-19.05 -21.35 Q-18.5 -20.85 -18.0 -20.6 L-17.55 -20.25 Q-17.25 -19.85 -16.7 -19.4 -16.45 -19.2 -16.05 -18.95 -15.95 -18.75 -15.8 -18.65 -15.55 -18.45 -15.25 -18.45 -15.15 -18.45 -15.0 -18.65 -14.85 -18.75 -14.8 -18.85 L-14.25 -19.0 -13.95 -18.95 -13.6 -18.95 -12.9 -18.8 Q-12.65 -18.45 -12.55 -18.4 L-12.05 -18.35 Q-11.65 -17.85 -11.2 -17.4 -10.95 -17.4 -10.7 -17.5 -10.5 -17.6 -10.45 -17.65" fill="#ffffff" fill-rule="evenodd" stroke="none"/>
      <path d="M6.35 -10.75 Q6.75 -10.6 6.85 -10.5 L6.9 -10.45 6.9 -10.4 7.05 -10.3 7.05 -10.15 Q7.05 -10.05 6.95 -10.0 L6.55 -9.9 6.35 -9.9 6.35 -9.85 6.3 -9.85 6.2 -9.85 6.2 -9.75 6.15 -9.75 6.15 -9.7 6.1 -9.65 Q6.1 -9.55 6.05 -9.55 L6.0 -9.6 5.85 -9.5 Q5.5 -9.35 5.45 -9.35 L5.1 -9.35 5.15 -9.25 5.15 -9.2 6.05 -9.15 6.1 -9.15 6.15 -9.05 Q6.15 -9.0 6.1 -8.95 5.95 -8.85 5.45 -8.85 L4.8 -8.85 Q4.7 -8.85 4.65 -8.9 L4.7 -8.95 4.65 -8.95 4.65 -9.0 4.35 -9.05 Q4.25 -9.05 4.2 -9.15 L4.2 -9.2 Q4.2 -9.35 4.4 -9.4 L4.35 -9.4 Q4.25 -9.5 4.2 -9.6 L4.15 -9.6 4.2 -9.55 4.15 -9.55 4.15 -9.6 Q3.95 -9.6 3.9 -9.65 3.9 -9.7 3.9 -9.75 L3.9 -9.85 Q3.95 -9.95 4.05 -9.95 L4.45 -9.9 4.5 -9.8 Q4.5 -9.75 4.6 -9.7 L5.05 -9.6 5.3 -9.65 Q5.55 -9.7 5.65 -9.75 5.75 -9.8 5.85 -9.95 L6.0 -10.0 6.0 -10.1 6.05 -10.1 6.15 -10.15 6.35 -10.2 Q6.5 -10.2 6.6 -10.25 L6.6 -10.3 Q6.35 -10.3 6.15 -10.45 5.9 -10.6 5.85 -10.6 5.75 -10.6 5.7 -10.55 L5.65 -10.5 5.55 -10.45 Q5.5 -10.45 5.45 -10.5 L4.85 -10.45 4.7 -10.3 4.15 -10.2 4.05 -10.0 3.3 -10.1 3.25 -10.1 3.45 -10.05 3.5 -10.0 Q3.7 -9.95 3.7 -9.85 L3.7 -9.8 Q3.7 -9.7 3.65 -9.7 L3.65 -9.65 Q3.6 -9.65 3.55 -9.65 L3.55 -9.6 3.5 -9.6 Q3.35 -9.65 3.25 -9.7 L3.05 -9.8 Q3.0 -9.8 2.95 -9.85 L2.95 -9.95 3.0 -10.0 3.0 -10.05 2.9 -10.05 2.65 -9.9 Q2.6 -9.9 2.55 -10.0 L2.5 -10.05 2.55 -10.2 Q2.65 -10.3 2.7 -10.3 L3.45 -10.4 3.65 -10.35 3.75 -10.4 3.8 -10.4 3.85 -10.45 3.85 -10.5 3.95 -10.5 4.1 -10.55 4.35 -10.6 Q4.4 -10.6 4.5 -10.65 L4.5 -10.65 4.6 -10.7 Q4.75 -10.85 5.1 -10.8 5.5 -10.8 5.7 -10.9 5.8 -11.0 6.0 -10.9 6.3 -10.8 6.35 -10.75 M6.15 -10.9 L6.15 -10.9 M7.85 -11.45 L8.1 -11.4 8.15 -11.4 8.15 -11.35 8.1 -11.35 8.15 -11.3 8.15 -11.1 Q8.15 -10.85 7.8 -10.65 7.7 -10.55 7.55 -10.55 7.4 -10.55 7.4 -10.7 7.4 -10.75 7.65 -10.95 L7.8 -11.05 7.8 -11.15 7.85 -11.1 7.9 -11.2 7.6 -11.2 Q7.45 -11.25 7.4 -11.3 L7.45 -11.35 7.45 -11.4 7.5 -11.4 7.85 -11.45 M7.35 -10.6 L7.4 -10.55 7.35 -10.55 7.35 -10.6 M6.9 -10.45 L6.9 -10.45 M7.1 -10.35 L7.15 -10.35 7.1 -10.4 7.1 -10.35 M6.65 -10.3 L6.65 -10.3 M6.7 -9.75 L6.75 -9.75 6.75 -9.65 6.8 -9.6 6.75 -9.45 6.7 -9.4 6.55 -9.1 Q6.5 -9.05 6.45 -9.05 6.3 -9.0 6.25 -9.1 L6.25 -9.15 Q6.2 -9.2 6.25 -9.25 L6.25 -9.35 Q6.2 -9.35 6.2 -9.4 6.15 -9.4 6.15 -9.5 6.15 -9.6 6.3 -9.65 6.5 -9.75 6.6 -9.75 L6.7 -9.75 M6.9 -9.9 Q6.85 -9.9 6.8 -9.9 L6.9 -9.9 M5.9 -10.55 L5.9 -10.6 5.95 -10.55 5.9 -10.55 M5.95 -10.05 L5.95 -10.05 M5.85 -9.2 Q5.75 -9.2 5.8 -9.25 L5.85 -9.25 5.85 -9.2 M4.5 -12.5 L4.55 -12.55 4.9 -12.55 4.9 -12.65 Q4.9 -12.7 4.95 -12.75 5.0 -12.8 5.05 -12.8 L5.4 -12.7 Q5.65 -12.6 5.7 -12.5 L5.75 -12.4 Q5.7 -12.25 5.6 -12.2 L5.5 -12.15 Q5.35 -12.2 5.25 -12.35 L5.2 -12.35 5.15 -12.25 5.1 -12.2 5.0 -12.2 4.7 -12.15 4.5 -11.95 4.45 -11.95 4.15 -11.9 4.1 -11.85 4.05 -11.85 4.0 -11.8 4.05 -11.7 4.0 -11.6 3.85 -11.45 Q3.7 -11.35 3.5 -11.35 3.35 -11.35 3.25 -11.45 L3.2 -11.5 Q3.15 -11.4 3.1 -11.4 L3.05 -11.4 2.8 -11.3 Q2.65 -11.3 2.55 -11.2 L2.5 -11.15 2.2 -11.15 2.1 -11.25 2.05 -11.25 2.05 -11.3 2.0 -11.35 1.8 -11.35 1.8 -11.3 1.5 -11.3 1.45 -11.35 1.4 -11.35 1.4 -11.45 Q1.35 -11.55 1.5 -11.65 L1.8 -11.7 2.15 -11.7 2.2 -11.65 2.25 -11.65 2.25 -11.6 2.3 -11.55 2.45 -11.55 2.55 -11.6 2.55 -11.65 2.6 -11.7 2.7 -11.75 2.85 -11.75 Q2.9 -11.8 3.0 -11.85 L3.05 -11.9 3.1 -11.9 3.4 -11.85 3.5 -11.8 3.55 -11.8 3.55 -11.85 3.5 -11.9 3.35 -12.0 3.1 -11.95 2.8 -11.9 2.75 -11.85 2.7 -11.85 2.7 -11.8 2.65 -11.75 2.0 -11.75 Q1.95 -11.75 1.9 -11.8 1.85 -11.85 1.85 -11.9 L1.85 -11.95 Q1.85 -12.0 1.9 -12.05 1.9 -12.1 2.0 -12.1 L2.45 -12.1 2.55 -12.2 Q2.55 -12.25 2.65 -12.25 2.95 -12.3 3.05 -12.35 3.05 -12.4 3.15 -12.4 L3.7 -12.4 3.8 -12.35 3.9 -12.2 4.1 -12.25 4.35 -12.3 4.4 -12.35 4.4 -12.4 4.5 -12.5 M3.0 -13.3 L3.05 -13.15 3.4 -13.15 Q3.55 -13.15 3.7 -13.1 L3.75 -13.05 3.8 -12.95 3.9 -12.8 3.9 -12.7 3.85 -12.6 3.85 -12.55 3.75 -12.55 Q3.65 -12.55 3.65 -12.6 3.5 -12.7 3.45 -12.8 L2.95 -12.75 2.85 -12.8 2.8 -12.85 Q2.7 -12.95 2.7 -13.05 L2.6 -13.05 2.5 -13.0 2.45 -12.95 2.25 -13.0 2.2 -13.0 2.15 -13.05 2.15 -13.2 2.4 -13.45 2.45 -13.45 2.85 -13.4 Q2.95 -13.45 2.95 -13.35 L3.0 -13.3 M5.75 -11.0 L5.75 -11.0 M1.7 -13.1 L1.65 -12.95 1.6 -12.85 Q1.5 -12.75 1.4 -12.75 L1.25 -12.8 1.2 -12.8 1.1 -12.75 Q1.2 -12.4 1.0 -12.3 0.8 -12.2 0.35 -12.2 0.0 -12.2 0.0 -12.35 0.0 -12.4 0.1 -12.45 L0.2 -12.45 0.25 -12.5 0.6 -12.55 0.65 -12.55 0.65 -12.6 0.8 -12.75 Q0.8 -12.85 0.9 -12.95 1.05 -13.15 1.2 -13.15 1.3 -13.15 1.4 -13.1 L1.45 -13.05 1.45 -13.1 1.4 -13.1 1.4 -13.15 1.45 -13.15 Q1.5 -13.25 1.6 -13.25 1.7 -13.25 1.7 -13.1 M1.6 -12.75 L1.6 -12.75 M0.2 -12.5 L0.2 -12.5 M1.2 -12.0 Q1.3 -12.1 1.5 -12.1 L1.65 -12.1 1.75 -12.0 1.75 -11.9 1.65 -11.75 Q1.6 -11.7 1.5 -11.7 L1.35 -11.65 Q1.3 -11.55 1.05 -11.55 L1.05 -11.5 1.0 -11.5 1.0 -11.45 0.95 -11.45 Q0.9 -11.4 0.85 -11.4 L0.25 -11.4 0.25 -11.45 0.2 -11.45 0.1 -11.55 0.05 -11.65 -0.15 -11.7 Q-0.25 -11.7 -0.25 -11.75 L-0.3 -11.85 -0.35 -11.9 Q-0.5 -11.9 -0.6 -11.85 L-0.6 -11.8 -0.85 -11.7 Q-1.0 -11.65 -1.15 -11.8 L-1.15 -11.85 -1.2 -11.9 Q-1.2 -11.95 -1.15 -12.0 L-1.05 -12.1 -0.95 -12.1 Q-0.9 -12.1 -0.8 -12.15 L-0.55 -12.3 -0.25 -12.3 -0.15 -12.25 -0.05 -12.15 0.0 -12.05 0.2 -12.0 0.3 -11.95 0.45 -11.75 0.7 -11.75 0.8 -11.85 0.8 -11.9 0.9 -11.95 1.2 -12.0 M0.95 -12.2 L0.95 -12.2 M1.0 -12.25 L1.0 -12.25 M4.85 -10.4 L4.75 -10.4 4.85 -10.45 4.85 -10.4 M4.6 -9.75 L4.6 -9.7 4.55 -9.75 4.6 -9.75 M4.65 -9.0 L4.65 -9.0 M4.8 -9.2 L4.85 -9.1 4.9 -9.1 4.9 -9.2 4.8 -9.2 M5.4 -9.7 L5.4 -9.7 M5.5 -9.25 L5.5 -9.25 M4.0 -10.0 Q3.95 -9.95 3.9 -9.95 L3.95 -10.0 4.0 -10.0 M3.75 -10.05 L3.75 -10.05 M3.85 -9.9 L3.8 -9.85 3.85 -9.85 3.85 -9.9 M3.95 -9.55 L3.95 -9.55 M4.85 -8.8 L4.85 -8.8 M-11.0 -15.15 Q-10.95 -15.15 -10.95 -15.1 L-10.95 -15.0 -10.7 -14.9 -10.6 -14.9 -10.5 -14.95 -10.45 -15.0 -10.0 -15.0 -9.9 -14.95 -9.85 -14.85 -9.85 -14.8 -9.8 -14.8 -9.8 -14.7 Q-9.8 -14.6 -9.85 -14.5 L-9.9 -14.5 Q-9.9 -14.45 -9.95 -14.45 -10.0 -14.45 -10.05 -14.5 L-10.15 -14.6 -10.35 -14.55 -10.6 -14.5 -10.75 -14.5 -11.25 -14.75 -11.3 -14.85 -11.65 -14.85 -11.95 -14.65 Q-12.2 -14.5 -12.45 -14.45 L-12.5 -14.45 -12.7 -14.5 -12.75 -14.5 -12.8 -14.55 -12.8 -14.7 -12.7 -14.75 Q-12.55 -14.8 -12.2 -15.0 L-11.8 -15.25 -11.7 -15.25 -11.1 -15.2 Q-11.05 -15.2 -11.0 -15.15 M-11.25 -14.25 Q-11.05 -13.95 -10.7 -13.95 L-10.7 -13.95 -10.4 -13.85 -10.2 -13.75 -10.15 -13.75 -10.15 -13.7 -9.95 -13.65 -9.8 -13.65 Q-9.7 -13.65 -9.7 -13.6 L-9.7 -13.5 Q-9.7 -13.3 -9.85 -13.3 -9.95 -13.3 -10.2 -13.4 L-10.4 -13.5 -10.45 -13.5 -10.45 -13.55 -10.8 -13.55 Q-11.1 -13.55 -11.25 -13.75 L-11.45 -14.05 Q-11.55 -14.25 -11.8 -14.2 -12.05 -14.15 -12.05 -14.35 -12.05 -14.5 -11.55 -14.5 -11.4 -14.5 -11.25 -14.25 M-9.55 -14.2 Q-9.55 -14.25 -9.45 -14.2 L-9.05 -14.2 -9.05 -14.15 -9.0 -14.1 Q-8.95 -14.05 -9.0 -13.95 L-9.0 -13.85 Q-9.0 -13.8 -8.8 -13.75 L-8.1 -13.65 Q-8.05 -13.65 -8.0 -13.6 L-7.9 -13.45 -7.85 -13.35 -7.8 -13.3 Q-7.8 -13.25 -7.85 -13.2 L-7.85 -13.15 -7.9 -13.15 Q-8.0 -13.1 -8.15 -13.15 L-8.15 -13.2 -8.25 -13.25 -8.5 -13.25 Q-8.7 -13.25 -9.0 -13.4 -9.35 -13.6 -9.35 -13.85 L-9.55 -13.9 Q-9.6 -13.9 -9.6 -13.95 L-9.65 -14.05 Q-9.65 -14.1 -9.6 -14.15 L-9.55 -14.2 M-13.4 -14.5 L-13.4 -14.55 Q-13.1 -14.6 -12.95 -14.35 L-12.95 -14.25 -13.25 -14.3 -13.35 -14.25 -13.4 -14.2 -13.35 -14.0 -13.35 -13.95 -13.25 -13.65 -13.25 -13.45 Q-13.25 -13.4 -13.3 -13.35 -13.45 -13.25 -13.65 -13.25 L-13.8 -13.3 -13.8 -13.4 -13.75 -13.5 Q-13.7 -13.55 -13.6 -13.55 L-13.6 -13.55 -13.55 -13.55 -13.55 -13.6 -13.5 -13.6 -13.6 -13.9 Q-13.6 -13.95 -13.7 -14.05 -13.75 -14.1 -13.75 -14.2 -13.75 -14.25 -13.7 -14.35 L-13.7 -14.35 Q-13.65 -14.4 -13.45 -14.5 L-13.4 -14.5 M-11.75 -14.55 L-11.75 -14.55 M-11.6 -14.1 L-11.6 -14.1 M-11.65 -14.15 L-11.65 -14.15 M-13.3 -13.85 L-13.3 -13.85 M-13.5 -13.6 L-13.55 -13.55 -13.5 -13.55 -13.5 -13.6 M-13.25 -13.3 L-13.25 -13.3 M-14.3 -13.3 Q-14.0 -13.3 -14.0 -13.1 -14.0 -13.05 -14.05 -13.0 L-14.15 -13.0 -14.15 -12.95 -14.2 -12.95 -14.25 -13.0 Q-14.15 -12.85 -14.15 -12.75 L-14.2 -12.6 -14.25 -12.55 Q-14.3 -12.5 -14.35 -12.5 L-14.45 -12.45 -14.55 -12.45 -14.55 -12.6 Q-14.55 -12.65 -14.5 -12.7 L-14.45 -12.75 -14.45 -12.8 -14.5 -12.8 -14.5 -12.85 -14.6 -12.95 -14.6 -13.3 Q-14.55 -13.35 -14.35 -13.35 L-14.35 -13.3 -14.3 -13.3 M-14.05 -13.3 L-14.05 -13.3 M-14.0 -13.25 L-14.0 -13.2 -14.05 -13.25 -14.0 -13.25 M-14.1 -12.8 L-14.1 -12.8 M-13.65 -12.0 L-13.45 -12.0 Q-13.4 -11.95 -13.35 -11.9 -13.35 -11.8 -13.4 -11.7 L-13.4 -11.6 -13.35 -11.6 -13.25 -11.5 -13.25 -11.3 -13.35 -11.25 -13.7 -11.25 -13.7 -11.3 -13.75 -11.35 -13.75 -11.7 -13.85 -11.75 Q-13.95 -11.8 -13.9 -11.85 L-13.85 -11.95 Q-13.85 -12.0 -13.75 -12.0 L-13.65 -12.0 M-11.75 -10.45 L-11.75 -10.55 Q-12.0 -10.35 -12.1 -10.35 L-12.25 -10.35 Q-12.4 -10.4 -12.4 -10.5 -11.85 -11.0 -11.65 -10.95 L-11.55 -10.85 -11.5 -10.85 -11.45 -10.75 -11.4 -10.7 -11.4 -10.4 Q-11.45 -10.35 -11.5 -10.35 L-11.55 -10.3 -11.75 -10.4 -11.75 -10.45 M-1.55 -12.25 L-1.4 -12.2 -1.3 -12.1 -1.3 -12.0 Q-1.3 -11.95 -1.35 -11.95 L-1.35 -11.9 -1.6 -11.9 Q-1.65 -11.9 -1.65 -11.95 L-1.7 -12.0 -1.75 -12.0 -1.75 -12.2 -1.7 -12.25 -1.55 -12.25 M-4.25 -12.4 L-4.25 -12.45 -4.2 -12.5 -4.15 -12.5 Q-4.0 -12.5 -3.95 -12.4 L-3.85 -12.4 -3.85 -12.45 -3.8 -12.55 Q-3.75 -12.6 -3.7 -12.6 -3.6 -12.55 -3.45 -12.5 L-3.25 -12.4 -3.2 -12.4 -3.2 -12.35 -3.15 -12.35 Q-3.05 -12.3 -3.05 -12.2 -3.0 -12.15 -3.0 -12.1 L-3.2 -12.0 Q-3.25 -12.0 -3.5 -12.1 L-3.6 -12.15 -3.65 -12.1 Q-3.7 -12.05 -3.75 -12.05 L-3.95 -12.05 -4.0 -12.1 -4.1 -12.1 -4.25 -12.25 -4.25 -12.3 -4.3 -12.35 -4.3 -12.4 -4.25 -12.4 M-5.7 -12.45 Q-5.65 -12.45 -5.6 -12.4 L-5.6 -12.25 -5.65 -12.15 -5.8 -12.15 -6.2 -12.2 -6.6 -12.3 -6.7 -12.35 -6.75 -12.45 Q-6.75 -12.55 -6.65 -12.6 L-6.65 -12.65 Q-6.6 -12.7 -6.5 -12.65 L-6.55 -12.65 Q-6.2 -12.65 -6.0 -12.55 -5.85 -12.5 -5.75 -12.45 L-5.7 -12.45 M-9.75 -13.7 L-9.75 -13.7 M-9.65 -13.65 L-9.65 -13.65 M-10.25 -13.8 L-10.25 -13.8 M-10.4 -13.45 L-10.4 -13.45 M-10.2 -13.35 L-10.25 -13.35 -10.25 -13.45 -10.2 -13.35 M-11.5 -14.05 L-11.5 -14.05 M-10.6 -10.75 L-10.45 -10.75 -10.35 -10.65 -10.0 -10.65 -9.55 -10.6 -9.45 -10.55 -9.4 -10.5 -9.3 -10.35 -9.25 -10.35 Q-9.05 -10.3 -8.85 -10.2 L-8.65 -10.0 Q-8.5 -9.85 -8.45 -9.7 -8.4 -9.65 -8.45 -9.6 L-8.55 -9.5 -8.6 -9.5 Q-8.7 -9.55 -8.95 -9.75 -9.1 -9.9 -9.45 -9.95 L-9.5 -9.95 -9.55 -10.0 -9.55 -10.05 -9.6 -10.1 -9.65 -10.25 -10.5 -10.3 Q-10.6 -10.25 -10.6 -10.3 L-10.6 -10.35 Q-10.75 -10.5 -10.7 -10.6 L-10.7 -10.65 -10.6 -10.75 M-9.45 -9.35 L-9.35 -9.25 -9.3 -9.3 -9.15 -9.35 Q-9.05 -9.35 -8.85 -9.25 -8.7 -9.15 -8.65 -9.05 L-8.65 -8.95 Q-8.7 -8.85 -8.75 -8.85 L-8.85 -8.85 -9.05 -8.95 -9.1 -8.9 -9.1 -8.85 -9.15 -8.85 -9.25 -8.8 -9.4 -8.85 -9.3 -8.7 -9.25 -8.7 -9.15 -8.8 -9.05 -8.8 -9.0 -8.75 -8.9 -8.75 -8.85 -8.65 Q-8.85 -8.6 -8.9 -8.55 -8.9 -8.5 -9.05 -8.35 L-9.1 -8.3 -9.5 -8.3 -9.55 -8.35 Q-9.6 -8.4 -9.6 -8.5 L-9.8 -8.5 -10.05 -8.55 -10.25 -8.6 -10.3 -8.6 -10.35 -8.65 Q-10.4 -8.7 -10.45 -8.85 L-10.45 -8.9 -10.65 -9.0 -10.7 -9.05 Q-10.7 -9.15 -10.65 -9.2 -11.05 -9.35 -11.05 -9.5 L-11.05 -9.55 -11.1 -9.65 -11.1 -9.7 -11.3 -9.9 Q-11.35 -9.95 -11.4 -10.0 L-11.4 -10.05 -11.3 -10.15 -11.2 -10.2 -11.1 -10.2 -10.9 -10.05 -10.65 -9.9 -10.6 -9.85 -10.6 -9.65 -10.45 -9.55 -10.25 -9.5 -10.1 -9.55 -10.0 -9.6 -9.9 -9.6 Q-9.7 -9.6 -9.45 -9.35 M-10.0 -9.1 L-10.15 -9.1 -10.1 -9.0 -10.1 -8.95 -9.85 -8.9 -9.55 -8.9 -9.75 -9.2 Q-9.85 -9.25 -9.95 -9.15 L-10.0 -9.1 M-6.75 -8.9 L-6.55 -8.85 -6.5 -8.85 -6.45 -8.8 -6.45 -8.75 -6.35 -8.55 -6.35 -8.45 Q-6.35 -8.4 -6.4 -8.4 -6.5 -8.3 -6.6 -8.35 L-6.65 -8.35 -6.8 -8.4 -6.8 -8.3 Q-6.85 -8.25 -6.9 -8.2 L-6.9 -8.15 -7.0 -8.15 -7.3 -8.2 -7.4 -8.25 -7.45 -8.35 -7.6 -8.45 -7.65 -8.45 -7.65 -8.5 Q-8.1 -8.55 -8.05 -8.75 -8.05 -8.85 -8.0 -8.85 L-7.9 -8.9 Q-7.7 -8.9 -7.45 -8.9 L-7.45 -8.85 -7.35 -8.85 -7.35 -8.8 -7.3 -8.75 -7.25 -8.75 -7.2 -8.7 -7.1 -8.8 -7.05 -8.8 -6.85 -8.85 -6.75 -8.9" fill="#cdffb4" fill-opacity="0.5019608" fill-rule="evenodd" stroke="none"/>
      <path d="M7.9 -11.0 Q8.0 -11.05 8.0 -11.15 L8.0 -11.2 7.55 -11.25 7.55 -11.3 8.05 -11.25 8.1 -11.25 8.1 -11.15 Q8.1 -11.0 7.9 -10.8 7.7 -10.65 7.5 -10.6 L7.5 -10.65 Q7.5 -10.8 7.65 -10.8 7.8 -10.8 7.85 -10.85 L7.9 -11.0 M6.9 -10.25 L6.9 -10.05 6.8 -10.0 6.25 -9.95 6.15 -9.85 Q6.15 -9.9 6.15 -10.0 6.3 -10.1 6.85 -10.1 6.8 -10.15 6.75 -10.15 6.75 -10.2 6.75 -10.3 6.75 -10.45 6.75 -10.35 L7.0 -10.3 6.9 -10.25 M6.75 -10.45 L6.65 -10.4 Q6.35 -10.4 6.15 -10.55 L5.95 -10.7 5.65 -10.65 Q5.55 -10.6 5.55 -10.55 L4.7 -10.55 4.7 -10.4 3.95 -10.25 3.95 -10.15 Q3.95 -10.1 3.9 -10.1 L3.9 -10.15 3.0 -10.15 Q2.9 -10.15 2.8 -10.05 L2.75 -9.95 2.75 -10.05 Q2.7 -10.15 2.75 -10.15 L3.9 -10.25 Q3.9 -10.35 3.95 -10.35 L4.2 -10.45 4.5 -10.5 4.6 -10.55 4.65 -10.65 5.5 -10.65 5.65 -10.8 5.75 -10.85 6.05 -10.8 Q6.3 -10.6 6.7 -10.5 L6.75 -10.45 M6.05 -9.75 L6.0 -9.7 5.8 -9.7 5.55 -9.4 4.7 -9.4 4.65 -9.45 4.4 -9.5 4.2 -9.7 4.05 -9.65 3.95 -9.75 4.0 -9.85 4.35 -9.85 4.5 -9.6 4.8 -9.55 5.45 -9.55 5.75 -9.75 6.0 -9.9 6.05 -9.8 6.05 -9.75 M6.45 -9.4 L6.5 -9.45 6.4 -9.45 Q6.25 -9.45 6.4 -9.55 L6.65 -9.6 6.6 -9.45 6.45 -9.3 6.4 -9.2 6.4 -9.15 Q6.35 -9.15 6.35 -9.25 6.35 -9.35 6.45 -9.4 M6.05 -9.05 Q5.85 -8.9 5.7 -8.9 L4.8 -8.95 4.8 -9.1 4.4 -9.2 4.45 -9.25 4.95 -9.25 5.05 -9.1 5.8 -9.1 6.05 -9.05 M5.6 -12.4 L5.55 -12.3 Q5.4 -12.35 5.35 -12.45 L5.2 -12.55 5.0 -12.35 4.65 -12.3 4.45 -12.1 4.15 -12.05 3.95 -11.95 Q3.9 -12.0 3.7 -12.05 3.65 -12.1 3.6 -12.0 L3.35 -12.15 3.05 -12.1 2.7 -12.05 2.65 -11.95 2.55 -11.9 2.0 -11.9 2.0 -11.95 2.5 -12.0 2.65 -12.1 Q3.05 -12.2 3.15 -12.25 L3.7 -12.25 3.8 -12.1 Q3.8 -12.05 3.9 -12.05 L4.15 -12.1 4.45 -12.15 4.5 -12.3 4.6 -12.4 5.05 -12.45 5.05 -12.65 5.35 -12.55 Q5.5 -12.45 5.6 -12.4 M3.6 -12.95 L3.65 -12.9 3.75 -12.7 Q3.6 -12.8 3.6 -12.95 L2.9 -12.9 2.8 -13.15 2.8 -13.2 Q2.5 -13.2 2.5 -13.15 L2.45 -13.1 2.3 -13.15 2.45 -13.3 2.85 -13.25 Q2.9 -13.05 2.95 -13.0 L3.4 -13.0 3.6 -12.95 M3.9 -11.7 L3.8 -11.6 Q3.65 -11.5 3.5 -11.5 3.4 -11.5 3.35 -11.55 L3.25 -11.65 3.1 -11.65 Q3.1 -11.55 3.05 -11.55 L2.75 -11.45 Q2.6 -11.4 2.45 -11.3 L2.25 -11.35 2.15 -11.4 2.05 -11.5 1.7 -11.45 1.55 -11.45 1.6 -11.55 2.1 -11.55 2.15 -11.45 2.25 -11.4 2.45 -11.4 2.65 -11.45 2.7 -11.6 3.05 -11.6 3.0 -11.65 Q3.0 -11.7 3.05 -11.75 L3.35 -11.7 3.5 -11.6 3.55 -11.65 3.65 -11.7 Q3.65 -11.8 3.8 -11.75 L3.9 -11.7 M1.55 -13.1 L1.65 -13.05 1.55 -12.85 Q1.45 -12.9 1.4 -12.95 1.4 -13.0 1.3 -13.0 1.1 -13.0 1.1 -12.95 1.1 -12.8 1.0 -12.75 L0.9 -12.55 0.95 -12.5 Q0.95 -12.4 0.9 -12.35 L0.85 -12.3 0.25 -12.35 0.25 -12.4 0.55 -12.4 0.9 -12.5 0.8 -12.55 Q0.85 -12.8 1.15 -13.1 L1.4 -13.0 1.45 -12.95 Q1.55 -13.0 1.55 -13.1 M0.95 -11.7 L0.9 -11.6 0.9 -11.55 0.3 -11.55 0.25 -11.65 Q0.15 -11.75 0.15 -11.8 L-0.15 -11.85 -0.15 -12.0 -0.25 -12.0 -0.35 -12.05 Q-0.55 -12.05 -0.7 -11.95 L-0.9 -11.85 -1.05 -11.95 -0.95 -11.95 Q-0.85 -11.95 -0.7 -12.0 L-0.5 -12.15 -0.25 -12.15 -0.15 -12.05 -0.05 -11.9 0.15 -11.85 0.35 -11.6 0.85 -11.65 0.9 -11.8 Q1.15 -11.8 1.25 -11.9 L1.5 -11.95 1.6 -11.95 1.55 -11.85 Q1.3 -11.85 1.25 -11.75 1.2 -11.7 0.95 -11.7 M3.5 -9.8 L3.3 -9.8 3.1 -9.9 3.4 -9.9 Q3.55 -9.85 3.55 -9.8 L3.5 -9.8 M-11.5 -14.25 L-11.55 -14.3 -11.8 -14.25 -11.9 -14.3 -11.8 -14.4 -11.5 -14.4 -11.1 -13.9 Q-11.0 -13.85 -10.65 -13.85 L-10.35 -13.8 -10.25 -13.6 -10.1 -13.5 -10.05 -13.45 -9.95 -13.45 -9.85 -13.5 -9.8 -13.55 -9.75 -13.55 -9.8 -13.35 -10.1 -13.4 -10.15 -13.5 -10.3 -13.5 -10.35 -13.6 -10.4 -13.75 -10.8 -13.65 Q-10.95 -13.65 -11.15 -13.9 -11.3 -14.05 -11.35 -14.15 -11.45 -14.2 -11.5 -14.25 M-11.1 -14.85 L-11.15 -15.0 -11.7 -15.0 -12.05 -14.8 Q-12.25 -14.65 -12.5 -14.6 L-12.65 -14.65 Q-12.5 -14.7 -12.1 -14.9 L-11.7 -15.1 -11.1 -15.05 -11.1 -14.95 -11.0 -14.85 -10.75 -14.75 -10.6 -14.7 -10.45 -14.8 -10.35 -14.85 -10.0 -14.85 -10.0 -14.75 -9.95 -14.7 Q-9.95 -14.65 -9.95 -14.6 L-10.05 -14.7 -10.05 -14.8 -10.4 -14.7 -10.65 -14.65 -10.8 -14.7 -11.05 -14.75 -11.1 -14.85 M-13.5 -14.3 L-13.55 -14.25 -13.55 -14.15 -13.5 -14.0 -13.55 -14.0 -13.65 -14.1 Q-13.65 -14.25 -13.6 -14.3 L-13.45 -14.35 Q-13.3 -14.4 -13.25 -14.45 -13.05 -14.4 -13.05 -14.35 L-13.3 -14.35 -13.5 -14.3 M-13.45 -13.85 L-13.35 -13.55 -13.35 -13.45 -13.5 -13.35 -13.75 -13.35 Q-13.75 -13.4 -13.5 -13.45 L-13.4 -13.5 Q-13.4 -13.65 -13.45 -13.7 L-13.45 -13.85 M-14.2 -13.15 L-14.3 -13.15 -14.45 -13.1 -14.3 -12.95 -14.25 -12.85 Q-14.25 -12.75 -14.3 -12.7 -14.35 -12.65 -14.4 -12.55 L-14.4 -12.65 Q-14.35 -12.75 -14.35 -12.85 L-14.4 -12.95 -14.5 -13.1 -14.45 -13.2 -14.4 -13.25 -14.1 -13.15 -14.1 -13.1 -14.15 -13.1 -14.2 -13.15 M-13.7 -11.85 L-13.5 -11.85 Q-13.5 -11.8 -13.55 -11.75 L-13.55 -11.55 Q-13.55 -11.45 -13.5 -11.45 L-13.4 -11.45 -13.4 -11.4 -13.65 -11.4 -13.6 -11.55 -13.6 -11.75 Q-13.6 -11.85 -13.7 -11.85 M-11.6 -10.7 L-11.65 -10.7 -11.65 -10.75 -11.85 -10.55 Q-11.95 -10.45 -12.1 -10.45 -12.25 -10.45 -12.25 -10.5 L-12.0 -10.55 -11.85 -10.7 -11.75 -10.85 -11.6 -10.7 -11.55 -10.65 -11.55 -10.5 -11.6 -10.5 -11.6 -10.7 M-1.6 -12.1 L-1.45 -12.05 -1.6 -12.05 -1.6 -12.1 M-5.75 -12.3 L-6.15 -12.35 -6.6 -12.45 -6.55 -12.5 -6.1 -12.4 -5.75 -12.3 M-3.6 -12.35 Q-3.65 -12.35 -3.7 -12.3 L-3.75 -12.2 -3.95 -12.2 -4.0 -12.25 -4.1 -12.3 -4.15 -12.35 Q-4.05 -12.35 -4.05 -12.3 -4.0 -12.25 -3.9 -12.25 -3.75 -12.25 -3.7 -12.3 L-3.7 -12.45 -3.5 -12.35 -3.3 -12.3 -3.25 -12.2 -3.15 -12.15 -3.2 -12.15 Q-3.25 -12.15 -3.4 -12.25 L-3.6 -12.35 M-8.5 -13.4 Q-8.65 -13.4 -8.9 -13.55 -9.25 -13.7 -9.2 -14.0 L-9.5 -14.05 -9.15 -14.05 -9.15 -13.85 Q-9.15 -13.7 -8.8 -13.6 L-8.1 -13.5 -8.05 -13.4 -7.95 -13.25 Q-8.0 -13.25 -8.05 -13.3 L-8.15 -13.4 -8.5 -13.4 M-8.9 -10.05 L-8.75 -9.9 Q-8.6 -9.75 -8.6 -9.65 -8.65 -9.7 -8.85 -9.85 -9.05 -10.0 -9.4 -10.1 L-9.45 -10.2 -9.6 -10.4 -10.5 -10.45 -10.55 -10.6 -10.5 -10.6 -10.45 -10.5 -10.05 -10.5 -9.55 -10.45 Q-9.5 -10.3 -9.35 -10.2 L-8.9 -10.05 M-9.55 -9.25 L-9.3 -9.05 -9.2 -9.05 -9.2 -8.95 -9.4 -9.0 -9.65 -9.35 Q-9.8 -9.5 -10.05 -9.25 -10.35 -9.25 -10.6 -9.35 -10.9 -9.45 -10.9 -9.55 L-10.95 -9.65 -11.0 -9.8 -11.1 -9.9 -11.25 -10.0 -11.2 -10.05 -11.0 -9.95 -10.75 -9.8 -10.75 -9.75 -10.85 -9.7 Q-10.7 -9.5 -10.5 -9.4 L-10.3 -9.35 Q-10.15 -9.35 -10.0 -9.4 L-9.95 -9.45 Q-9.8 -9.45 -9.55 -9.25 M-9.2 -9.2 Q-9.05 -9.2 -8.95 -9.1 L-8.8 -9.0 Q-8.85 -9.0 -8.95 -9.05 L-9.1 -9.15 -9.2 -9.1 -9.2 -9.2 M-10.55 -9.1 L-10.5 -9.15 -10.3 -9.1 -10.2 -8.8 -9.85 -8.8 -9.55 -8.75 Q-9.4 -8.6 -9.4 -8.55 -9.25 -8.55 -9.2 -8.6 L-9.1 -8.65 -9.0 -8.6 -9.15 -8.45 -9.45 -8.45 Q-9.45 -8.55 -9.6 -8.7 L-9.65 -8.7 -9.8 -8.65 -10.0 -8.7 -10.25 -8.75 -10.35 -9.05 -10.55 -9.1 M-7.25 -8.5 L-7.2 -8.45 Q-7.15 -8.45 -7.15 -8.5 L-7.15 -8.55 -7.05 -8.65 -6.75 -8.7 -6.55 -8.7 -6.5 -8.5 -6.6 -8.5 -6.75 -8.55 -7.05 -8.55 -7.0 -8.45 -6.95 -8.4 -6.95 -8.35 -7.0 -8.3 -7.25 -8.35 Q-7.35 -8.4 -7.35 -8.5 -7.45 -8.5 -7.5 -8.55 L-7.55 -8.65 Q-7.9 -8.7 -7.9 -8.75 L-7.45 -8.7 -7.45 -8.6 -7.3 -8.6 -7.25 -8.5" fill="#ffffff" fill-rule="evenodd" stroke="none"/>
      <path d="M3.2 -7.1 L4.2 -6.8 4.25 -6.75 Q4.5 -6.5 4.9 -5.95 5.3 -5.3 5.3 -5.1 5.3 -4.85 4.2 -4.25 L4.1 -4.2 3.75 -4.25 3.65 -4.3 Q3.6 -4.3 3.6 -4.35 L3.6 -4.45 4.0 -4.85 Q4.0 -4.95 4.05 -5.05 L4.05 -5.1 3.8 -5.05 3.25 -4.95 3.0 -4.9 3.0 -4.5 Q3.0 -4.45 2.95 -4.4 2.9 -4.35 2.85 -4.35 L2.75 -4.35 2.6 -4.25 Q2.4 -4.2 2.3 -4.35 2.25 -4.4 2.25 -4.5 L2.3 -4.6 2.5 -4.7 Q2.55 -4.75 2.55 -4.85 2.55 -5.2 2.65 -5.25 L2.8 -5.3 3.25 -5.35 Q3.5 -5.4 3.85 -5.5 L4.2 -5.5 4.35 -5.45 4.35 -5.6 Q4.35 -6.05 4.0 -6.35 3.45 -6.85 2.15 -6.75 L2.1 -6.75 1.85 -6.8 1.75 -6.85 1.7 -6.9 1.7 -7.0 Q1.75 -7.05 1.8 -7.1 2.35 -7.35 3.2 -7.1 M5.65 -5.15 L5.55 -5.2 Q5.5 -5.2 5.5 -5.25 L5.5 -5.4 Q5.65 -5.7 6.05 -5.85 6.2 -6.0 6.2 -6.05 6.2 -6.3 6.4 -6.25 6.5 -6.35 6.6 -6.2 6.85 -6.15 6.85 -6.05 L6.9 -5.95 6.85 -5.85 Q6.45 -5.55 6.2 -5.6 L6.2 -5.5 Q6.0 -5.25 5.85 -5.2 L5.7 -5.15 5.65 -5.15 M1.05 -7.0 L1.15 -6.9 1.15 -6.8 1.05 -6.7 0.5 -6.45 0.3 -6.35 0.5 -6.2 0.55 -6.2 0.65 -6.1 0.7 -6.0 0.7 -5.95 0.65 -5.85 Q0.5 -5.75 0.5 -5.65 L0.45 -5.65 Q0.4 -5.55 0.5 -5.45 L0.5 -5.35 0.35 -5.2 0.25 -5.2 Q-0.25 -5.15 -0.4 -5.05 L-0.5 -5.05 -2.35 -5.15 -2.3 -5.1 -3.5 -5.25 -3.5 -5.2 -3.45 -5.1 Q-3.45 -5.05 -3.5 -5.0 L-3.3 -5.0 Q-3.0 -4.95 -2.95 -4.9 L-2.9 -4.8 Q-2.9 -4.75 -2.9 -4.7 L-3.0 -4.65 -3.05 -4.6 -3.65 -4.6 Q-3.75 -4.6 -3.8 -4.65 -3.85 -4.7 -3.85 -4.8 L-3.8 -5.0 -4.0 -5.1 Q-4.05 -5.1 -4.1 -5.15 L-4.15 -5.25 -4.1 -5.3 Q-4.0 -5.45 -3.8 -5.55 L-3.8 -5.6 Q-3.85 -5.65 -3.8 -5.65 L-3.9 -5.65 -3.95 -5.75 -4.0 -5.8 -4.05 -5.9 Q-4.75 -6.3 -4.95 -7.05 L-5.05 -7.05 -6.0 -6.95 -6.35 -6.9 Q-6.35 -6.85 -6.4 -6.85 L-6.65 -6.85 Q-6.7 -6.9 -6.75 -6.9 L-6.75 -7.1 -6.65 -7.2 -6.55 -7.25 Q-5.3 -7.75 -4.7 -7.35 -4.6 -7.25 -4.15 -6.7 -3.8 -6.35 -3.5 -6.1 L-3.45 -6.05 -3.4 -6.05 Q-3.25 -5.9 -3.05 -5.85 L-3.0 -5.8 -2.8 -5.8 -1.8 -5.7 -1.75 -5.7 -1.5 -5.75 -1.4 -5.75 Q-0.9 -5.65 -0.35 -5.85 -0.1 -5.9 0.05 -6.0 L0.0 -6.0 -0.05 -6.05 -0.15 -6.05 -0.2 -6.1 -0.25 -6.35 -0.2 -6.45 -0.15 -6.5 -0.15 -6.55 Q0.0 -6.7 0.25 -6.8 L0.3 -6.85 Q0.4 -6.9 0.55 -6.95 0.75 -7.05 0.95 -7.05 L1.05 -7.0 M9.45 -4.6 Q9.4 -4.6 9.3 -4.65 L9.25 -4.75 Q9.25 -4.8 9.3 -4.85 9.45 -5.1 9.9 -5.25 L10.0 -5.3 10.25 -5.25 Q10.35 -5.25 10.4 -5.2 L10.45 -5.2 10.45 -5.15 Q10.75 -5.05 10.95 -4.75 L11.3 -4.6 11.85 -4.6 11.9 -4.5 12.65 -3.4 12.7 -3.35 12.7 -3.1 12.65 -3.0 12.6 -2.95 12.4 -2.95 Q12.05 -2.75 12.05 -2.05 L12.05 -1.8 12.25 -1.45 12.25 -1.4 12.3 -1.3 12.35 -1.25 12.4 -1.05 Q12.4 -1.0 12.45 -0.95 L12.55 -0.95 12.65 -0.9 12.95 -0.65 13.0 -0.65 Q13.2 -0.45 13.25 -0.25 13.25 -0.2 13.35 -0.15 L13.75 0.05 13.8 0.1 13.85 0.1 Q13.9 0.15 13.9 0.2 13.9 0.3 13.85 0.35 13.75 0.4 13.6 0.4 L13.55 0.4 13.05 0.35 12.9 0.35 12.8 0.3 12.75 0.25 12.7 0.15 12.7 0.1 12.65 0.0 12.65 -0.05 12.6 -0.2 12.3 -0.5 Q11.95 -0.45 11.9 -0.5 11.85 -0.45 11.75 -0.45 L11.5 -0.4 11.5 -0.2 11.4 -0.15 11.3 -0.15 11.15 -0.2 10.5 -0.4 10.4 -0.4 Q10.3 -0.4 10.25 -0.45 L10.05 -0.65 Q9.85 -0.85 9.65 -1.2 L9.35 -1.55 9.35 -1.6 Q9.3 -1.65 9.3 -1.9 9.3 -2.55 9.65 -3.05 9.7 -3.2 9.85 -3.3 L9.85 -3.35 10.1 -3.75 10.1 -3.8 Q10.3 -4.1 10.55 -4.2 10.45 -4.4 10.15 -4.9 L9.95 -4.9 9.8 -4.8 9.55 -4.65 Q9.5 -4.6 9.45 -4.6 M10.75 -3.8 Q10.6 -3.7 10.5 -3.55 L10.3 -3.3 Q10.25 -3.2 10.25 -3.05 L10.25 -3.1 10.1 -2.2 Q10.1 -1.65 10.15 -1.5 10.2 -1.2 10.6 -0.85 L10.75 -0.8 Q10.85 -0.95 11.0 -1.05 L11.15 -1.05 11.9 -1.0 11.9 -1.1 11.8 -1.4 Q11.6 -1.75 11.6 -2.05 11.6 -2.45 11.75 -2.75 11.9 -3.2 12.2 -3.3 L12.05 -3.55 11.9 -3.9 11.55 -4.25 11.25 -4.3 11.15 -4.3 11.35 -3.85 11.35 -3.75 11.3 -3.65 11.25 -3.6 11.1 -3.6 Q11.0 -3.6 10.95 -3.65 L10.8 -3.8 10.75 -3.8 M19.45 -7.85 L19.25 -8.2 Q19.2 -8.25 19.25 -8.35 19.25 -8.4 19.35 -8.4 23.5 -10.5 23.6 -10.5 23.8 -10.55 24.45 -9.8 25.0 -9.15 25.1 -8.8 25.2 -8.4 25.6 -7.95 26.1 -7.4 26.05 -7.25 26.05 -6.95 25.75 -6.45 25.5 -6.05 25.5 -5.7 25.5 -5.6 25.6 -5.3 L25.8 -5.2 25.85 -5.2 Q25.9 -5.05 26.0 -4.6 26.1 -4.2 26.15 -4.1 L26.15 -4.05 26.25 -4.1 Q26.45 -4.1 26.85 -4.4 L27.0 -4.55 Q27.45 -4.85 27.6 -4.9 28.8 -5.25 29.15 -5.5 29.55 -5.75 30.15 -6.25 L30.8 -6.9 31.35 -7.8 Q31.65 -8.35 31.75 -8.65 L31.8 -8.75 31.7 -8.8 31.5 -8.95 31.5 -9.0 31.45 -9.05 30.55 -8.95 29.75 -8.75 29.8 -8.7 29.9 -8.65 29.95 -8.55 29.95 -8.45 29.9 -8.4 29.85 -8.4 29.85 -8.3 Q29.85 -8.15 29.75 -7.95 L29.7 -7.95 29.6 -7.85 29.4 -7.75 29.15 -7.8 28.75 -7.75 28.7 -7.7 28.35 -7.7 Q28.25 -7.75 28.2 -7.75 L28.15 -7.85 Q28.15 -7.9 28.2 -7.95 28.3 -8.15 29.2 -8.15 L29.4 -8.2 Q29.45 -8.25 29.4 -8.4 29.35 -8.45 29.4 -8.5 L29.4 -8.55 Q29.25 -8.7 29.3 -8.8 29.3 -8.95 29.35 -9.05 29.4 -9.1 29.45 -9.1 L29.55 -9.15 29.6 -9.15 31.55 -9.45 31.7 -9.45 31.9 -9.25 Q31.95 -9.4 32.05 -9.55 L32.45 -10.05 32.5 -10.2 Q32.6 -10.4 32.6 -10.5 32.6 -11.55 31.85 -12.25 31.15 -12.9 29.1 -13.9 28.8 -13.55 28.7 -13.35 L28.6 -13.0 Q28.55 -12.6 28.4 -12.3 L28.35 -12.25 Q28.0 -11.5 27.4 -10.9 L27.3 -10.85 27.15 -10.8 Q27.1 -10.8 27.05 -10.8 27.0 -10.85 26.95 -10.9 L26.95 -11.0 27.0 -11.05 Q27.55 -11.45 27.95 -12.55 L28.1 -12.85 28.05 -12.85 28.15 -13.25 28.15 -13.3 Q28.2 -13.5 28.3 -13.65 28.35 -14.0 28.35 -14.25 L28.25 -14.65 Q28.15 -15.05 28.15 -15.15 L28.15 -15.2 28.2 -15.3 Q28.25 -15.35 28.3 -15.35 28.35 -15.4 28.45 -15.35 L28.5 -15.35 Q28.7 -15.25 29.15 -14.75 29.5 -14.35 29.75 -14.2 L30.65 -13.85 Q31.45 -13.5 31.7 -13.35 32.1 -13.1 32.85 -12.2 33.65 -11.2 33.65 -10.85 33.65 -10.8 33.25 -10.25 L33.0 -9.95 32.95 -9.9 32.85 -9.7 32.7 -8.9 Q32.45 -7.7 31.5 -6.9 L31.45 -6.9 31.45 -6.85 Q31.35 -6.65 30.85 -6.1 L30.15 -5.4 Q29.8 -5.0 29.35 -4.6 L28.85 -4.25 28.8 -4.2 28.7 -4.25 Q28.6 -4.25 28.35 -4.25 27.25 -4.05 26.65 -3.8 L26.3 -3.65 26.3 -3.6 Q25.55 -3.1 25.2 -2.95 L25.25 -2.95 Q24.8 -2.7 23.25 -2.4 L23.2 -2.4 22.95 -2.45 Q22.85 -2.45 22.8 -2.5 22.75 -2.55 22.75 -2.6 22.75 -2.7 22.8 -2.85 L22.75 -2.85 Q22.65 -2.85 22.65 -2.9 22.6 -2.95 22.6 -3.0 L22.6 -3.5 Q22.65 -3.55 22.7 -3.55 L22.75 -3.55 Q22.8 -3.6 22.9 -3.55 L23.0 -3.5 Q23.1 -3.35 23.05 -3.25 L23.05 -3.2 23.15 -3.15 23.25 -3.15 23.3 -3.1 23.3 -2.85 Q24.4 -3.05 25.1 -3.4 L25.75 -3.7 25.7 -3.9 25.6 -4.1 25.45 -4.25 Q25.05 -4.7 24.8 -4.8 L24.7 -4.85 Q24.65 -4.9 24.7 -5.0 L25.0 -5.85 25.0 -5.9 25.05 -6.6 Q25.05 -7.05 24.95 -7.25 24.75 -7.6 24.65 -8.35 24.6 -8.65 24.25 -9.2 L23.9 -9.7 23.65 -10.0 23.45 -9.9 22.45 -9.1 Q21.6 -8.4 21.35 -8.3 20.7 -8.05 20.05 -7.5 19.8 -7.25 19.55 -7.0 L19.4 -6.7 Q19.15 -6.3 18.6 -5.9 L18.2 -5.6 18.65 -5.6 18.8 -5.55 19.05 -5.55 19.4 -5.45 19.5 -5.35 19.5 -5.15 19.35 -5.1 Q18.4 -4.95 17.7 -4.55 16.85 -4.15 16.35 -4.05 L15.8 -4.05 Q15.7 -4.05 15.65 -4.1 L15.4 -4.4 Q15.35 -4.5 15.15 -4.55 15.1 -4.55 15.05 -4.6 14.95 -4.75 14.95 -4.95 L15.0 -5.05 15.05 -5.1 15.35 -5.1 15.95 -4.5 Q17.0 -4.65 17.5 -4.9 L18.05 -5.15 17.1 -5.2 Q17.0 -5.2 17.0 -5.25 L16.95 -5.35 Q16.95 -5.4 17.0 -5.45 L17.0 -5.5 17.1 -5.5 Q17.45 -5.9 18.4 -6.7 18.85 -7.15 19.25 -7.45 L19.45 -7.85 M20.95 -4.05 L21.05 -4.05 Q22.0 -4.05 22.1 -3.95 L22.15 -3.9 22.15 -3.75 22.1 -3.7 Q22.1 -3.65 22.05 -3.6 L21.9 -3.6 20.95 -3.7 Q20.9 -3.7 20.85 -3.75 20.8 -3.8 20.8 -3.85 20.75 -4.0 20.95 -4.05 M20.6 -3.95 L20.55 -3.85 Q20.5 -3.75 19.95 -3.6 L19.65 -3.6 Q19.55 -3.65 19.5 -3.65 L19.45 -3.75 19.5 -3.85 19.55 -3.9 Q19.75 -4.0 20.1 -4.1 L20.2 -4.15 Q20.5 -4.1 20.55 -4.05 L20.6 -3.95 M25.4 -12.55 L25.45 -12.5 25.55 -12.45 Q25.6 -12.35 25.6 -12.2 25.65 -12.1 25.45 -11.75 L25.5 -11.75 Q25.75 -11.65 25.9 -11.55 L26.0 -11.45 Q26.0 -11.35 25.9 -11.3 L25.8 -11.25 25.7 -11.25 25.2 -11.35 25.15 -11.35 25.05 -11.4 25.0 -11.45 Q24.85 -11.5 24.85 -11.7 24.85 -11.8 25.1 -12.15 L25.05 -12.15 24.7 -12.25 24.55 -12.25 Q24.25 -12.35 24.3 -12.5 24.3 -12.55 24.35 -12.6 24.4 -12.65 24.45 -12.65 L25.35 -12.55 25.4 -12.55 M23.65 -12.8 Q23.3 -12.8 23.3 -12.95 23.3 -13.0 23.3 -13.05 23.4 -13.25 23.6 -13.25 L23.65 -13.25 Q24.0 -13.15 24.05 -13.05 L24.1 -13.0 24.05 -12.9 24.05 -12.85 23.95 -12.8 23.65 -12.8 M28.05 -9.25 Q28.15 -9.2 28.15 -8.95 28.2 -8.8 27.65 -8.5 L27.65 -8.45 27.9 -8.2 27.8 -8.05 Q27.75 -8.0 27.4 -8.05 27.3 -8.05 27.25 -8.05 27.2 -8.1 27.2 -8.2 L27.2 -8.45 Q27.2 -8.5 27.25 -8.55 L27.35 -8.6 27.3 -8.65 27.35 -8.7 27.55 -8.95 27.6 -9.15 Q27.6 -9.2 27.65 -9.25 L27.8 -9.3 27.85 -9.3 27.95 -9.25 28.05 -9.25 M25.4 -5.85 L25.4 -5.95 25.35 -5.95 25.4 -5.85 M-30.9 -15.4 L-30.9 -15.25 Q-30.9 -15.1 -30.95 -14.95 L-30.95 -14.6 Q-30.95 -13.5 -30.0 -11.55 -29.3 -10.05 -28.45 -8.85 L-27.5 -7.95 Q-25.85 -6.45 -25.75 -6.45 L-25.7 -6.45 -25.4 -6.5 -25.1 -6.85 -25.0 -6.9 -24.55 -7.05 Q-24.75 -7.25 -24.8 -7.5 L-24.85 -7.75 -24.9 -7.8 -24.95 -7.8 Q-25.0 -7.75 -25.1 -7.75 L-25.25 -7.75 Q-25.3 -7.75 -25.35 -7.8 -25.45 -7.8 -25.45 -7.9 -25.45 -8.05 -25.55 -8.25 L-25.6 -8.25 -25.75 -8.65 Q-25.85 -9.05 -25.85 -9.45 -25.85 -10.25 -25.15 -10.9 -24.15 -11.9 -23.4 -12.25 L-23.0 -12.25 -22.95 -12.2 -22.9 -12.2 -22.0 -12.7 Q-21.65 -12.95 -21.3 -13.1 L-21.2 -13.1 -21.2 -13.15 -20.95 -13.15 -20.9 -13.05 Q-20.85 -13.05 -20.85 -12.9 -20.85 -12.8 -20.95 -12.55 L-21.0 -12.4 -20.95 -12.35 -20.9 -12.35 -20.8 -12.3 Q-20.65 -12.05 -20.55 -11.2 -20.5 -11.0 -20.5 -10.9 L-20.5 -10.65 Q-20.4 -10.25 -19.95 -10.0 -19.85 -10.0 -19.85 -9.9 -19.85 -9.85 -19.85 -9.8 L-19.95 -9.75 -20.1 -9.75 Q-21.1 -10.0 -21.05 -11.05 L-21.15 -11.15 Q-21.35 -11.4 -21.65 -11.6 -21.7 -11.65 -21.7 -11.7 L-21.7 -11.8 -21.65 -11.85 Q-22.4 -11.75 -23.0 -11.0 L-23.9 -9.95 -24.2 -9.05 -24.35 -8.05 -24.3 -7.65 -24.2 -7.35 -23.8 -7.35 Q-23.75 -7.4 -23.7 -7.35 L-23.65 -7.4 -23.55 -7.45 -23.4 -7.45 -23.2 -7.35 Q-23.1 -7.35 -23.05 -7.3 L-22.75 -6.95 Q-22.65 -6.85 -22.6 -6.7 L-22.6 -6.55 -22.5 -6.25 -22.5 -6.3 Q-22.5 -6.15 -22.35 -6.05 L-22.25 -6.05 Q-22.05 -6.2 -21.6 -6.2 L-21.5 -6.15 -19.65 -6.25 -19.6 -6.25 -19.1 -6.4 Q-19.05 -6.45 -19.0 -6.4 -18.9 -6.4 -18.9 -6.35 L-18.85 -6.25 -18.9 -6.15 -19.05 -6.0 -19.25 -6.0 -19.35 -5.9 Q-19.4 -5.9 -19.45 -5.85 L-20.65 -5.85 Q-20.7 -5.8 -20.8 -5.8 L-21.65 -5.85 -22.2 -5.7 -22.5 -5.7 Q-23.05 -5.95 -23.05 -6.5 -23.0 -6.65 -23.1 -6.75 L-23.15 -6.8 -23.35 -7.05 -23.55 -7.1 -23.75 -7.05 -23.75 -7.0 Q-24.75 -6.45 -25.1 -6.15 L-25.1 -6.1 -25.2 -6.05 -25.75 -5.75 -25.9 -5.75 -26.1 -5.8 -26.15 -5.8 -26.2 -5.85 -26.35 -6.05 Q-26.5 -6.15 -26.65 -6.15 L-26.75 -6.25 -28.05 -7.85 -28.4 -8.2 -28.45 -8.2 -28.6 -8.3 -28.6 -8.1 -28.45 -7.8 Q-28.35 -7.5 -28.35 -7.3 -28.35 -7.2 -28.45 -6.95 -28.5 -6.85 -28.5 -6.75 -28.5 -6.1 -27.85 -6.1 L-27.7 -6.05 -27.65 -5.95 Q-27.65 -5.9 -27.7 -5.85 -27.7 -5.8 -27.75 -5.8 L-27.85 -5.75 -27.95 -5.75 -28.25 -5.8 -28.35 -5.8 Q-28.85 -6.15 -28.95 -6.35 -29.0 -6.45 -29.0 -6.8 L-28.85 -7.15 Q-28.8 -7.3 -28.8 -7.35 L-28.95 -7.75 -28.95 -7.7 Q-29.05 -7.95 -29.05 -8.05 L-29.55 -8.25 Q-30.4 -8.5 -30.85 -9.15 -31.7 -9.8 -32.0 -10.8 -32.3 -11.6 -32.3 -12.8 L-32.25 -13.9 Q-32.2 -14.5 -31.7 -15.1 L-31.65 -15.15 -31.4 -15.6 -31.3 -15.65 -31.25 -15.7 -31.1 -15.7 -31.0 -15.65 Q-30.9 -15.65 -30.9 -15.4 M-23.2 -11.8 L-23.25 -11.9 -23.1 -11.9 -23.25 -12.05 -23.25 -11.9 -23.25 -11.9 Q-25.45 -10.7 -25.45 -9.45 -25.45 -9.05 -25.3 -8.7 L-25.15 -8.4 -25.1 -8.35 -25.05 -8.15 -24.85 -8.15 Q-24.8 -8.55 -24.65 -9.4 L-24.6 -9.45 -24.4 -10.05 -24.25 -10.2 Q-23.8 -11.1 -23.2 -11.6 L-23.05 -11.75 Q-23.15 -11.75 -23.2 -11.8 M-28.8 -8.45 L-28.75 -8.45 Q-29.65 -9.2 -30.45 -10.4 -30.95 -11.1 -31.25 -12.1 -31.2 -11.0 -30.95 -10.4 -30.55 -9.35 -29.3 -8.6 L-29.25 -8.6 -28.85 -8.45 -28.8 -8.45 M-11.35 -21.65 Q-11.1 -21.2 -11.1 -20.85 -11.1 -20.2 -11.7 -19.75 L-11.8 -19.7 -12.3 -19.65 -12.4 -19.65 -12.55 -19.7 Q-12.55 -19.75 -12.55 -19.8 L-12.5 -19.9 Q-12.2 -20.1 -11.9 -20.1 L-11.75 -20.4 Q-11.6 -20.65 -11.6 -20.85 -11.6 -21.05 -11.75 -21.4 L-12.15 -21.4 -12.2 -21.45 Q-12.45 -21.75 -12.45 -22.0 L-12.45 -22.05 Q-14.1 -21.6 -15.4 -20.75 L-15.5 -20.7 -15.9 -20.6 -16.4 -20.55 -17.25 -20.55 Q-17.3 -20.55 -17.35 -20.6 L-17.4 -20.6 -17.8 -21.05 -17.95 -21.1 -18.0 -21.1 -18.2 -21.2 Q-18.25 -21.2 -18.3 -21.25 -18.35 -21.35 -18.3 -21.4 -18.2 -21.55 -18.1 -21.6 L-18.1 -21.65 -18.15 -21.7 Q-18.65 -21.8 -18.9 -21.95 L-19.4 -21.95 Q-19.55 -21.7 -19.6 -21.4 -19.8 -20.5 -19.9 -20.2 L-19.95 -20.2 -20.7 -19.2 -20.7 -19.15 -21.1 -18.65 Q-21.1 -18.25 -21.05 -18.05 -21.05 -17.9 -20.9 -17.75 -20.75 -17.55 -20.75 -17.5 -20.75 -17.25 -21.0 -17.0 L-21.05 -17.0 -21.0 -16.95 -20.65 -16.9 -20.55 -16.9 -19.95 -16.85 Q-19.4 -16.95 -18.65 -17.15 -17.95 -17.3 -16.6 -17.2 L-16.6 -17.15 -16.2 -17.05 -16.15 -16.95 -16.15 -16.85 Q-16.2 -16.8 -16.25 -16.8 -16.6 -16.65 -16.65 -16.6 L-16.6 -16.45 Q-16.05 -16.25 -16.0 -15.9 L-16.0 -15.85 Q-16.05 -15.4 -16.05 -15.3 -16.0 -15.2 -16.05 -15.2 L-16.15 -15.1 -16.25 -15.05 -16.4 -15.1 -16.5 -15.15 Q-16.6 -15.4 -16.6 -15.85 -16.7 -16.1 -17.1 -16.1 L-17.15 -16.15 -17.25 -16.2 -17.3 -16.4 -18.3 -16.35 -18.8 -16.35 -19.4 -16.4 -19.7 -16.4 -20.45 -16.5 -21.15 -16.5 -21.3 -16.55 -21.3 -16.6 -21.6 -16.6 -21.65 -16.65 -22.0 -17.15 Q-22.25 -17.45 -22.45 -17.55 L-22.55 -17.6 -22.55 -17.7 -22.5 -17.8 -21.9 -18.45 -22.0 -18.45 -22.1 -18.5 -22.15 -18.6 Q-22.2 -18.65 -22.25 -19.0 -22.25 -19.25 -22.35 -19.35 -22.45 -19.5 -22.75 -19.75 -23.05 -20.0 -23.05 -20.2 -23.05 -20.6 -22.5 -21.25 -22.45 -21.35 -22.4 -21.35 -22.25 -21.45 -22.15 -21.35 -22.1 -21.35 -22.1 -21.25 L-22.1 -21.1 Q-22.05 -21.05 -22.35 -20.6 L-22.55 -20.2 Q-22.55 -20.1 -22.35 -19.95 -22.0 -19.65 -21.9 -19.5 L-21.9 -19.45 Q-21.85 -19.1 -21.75 -18.85 L-21.6 -18.85 Q-20.95 -19.75 -20.65 -20.7 -20.55 -21.0 -20.55 -21.45 -20.55 -21.95 -20.5 -22.15 L-20.5 -22.2 -20.6 -22.1 -20.95 -22.1 Q-21.05 -22.1 -21.1 -22.15 -21.15 -22.2 -21.15 -22.25 L-21.15 -22.3 Q-21.25 -22.3 -21.3 -22.35 -21.35 -22.25 -21.45 -22.15 L-21.6 -21.85 -21.65 -21.8 -21.85 -21.7 Q-21.9 -21.7 -21.95 -21.7 L-22.05 -21.8 -22.1 -21.9 -22.0 -22.0 -21.9 -22.25 Q-21.75 -22.55 -21.55 -22.65 L-21.45 -22.7 Q-21.35 -22.65 -21.3 -22.6 L-21.3 -22.65 -21.15 -22.7 -20.8 -22.7 -20.7 -22.65 -20.65 -22.6 Q-20.5 -22.7 -20.35 -22.85 -20.1 -23.2 -20.1 -23.45 L-20.1 -23.6 -19.9 -23.7 -19.85 -23.7 -19.75 -23.65 -19.7 -23.6 Q-19.3 -22.95 -19.1 -22.75 -18.75 -22.45 -17.75 -22.1 L-17.55 -22.0 Q-17.4 -21.9 -17.55 -21.8 L-17.55 -21.75 -17.35 -21.6 Q-17.15 -21.45 -16.85 -21.45 -16.35 -21.45 -16.1 -21.55 L-15.8 -21.85 -15.75 -21.85 Q-15.4 -22.05 -14.6 -22.15 L-13.8 -22.25 Q-12.75 -22.55 -12.45 -22.75 -12.3 -22.9 -12.4 -23.1 L-12.4 -23.2 -12.35 -23.3 Q-12.3 -23.35 -12.15 -23.35 L-12.1 -23.35 -9.8 -22.9 Q-8.65 -22.6 -8.7 -22.2 -8.7 -22.05 -8.85 -21.9 L-8.85 -21.85 -8.9 -21.8 Q-8.9 -21.7 -8.75 -21.6 L-7.8 -21.2 Q-7.75 -21.2 -7.7 -21.15 -7.7 -21.1 -7.7 -21.05 L-7.8 -20.95 Q-7.95 -20.9 -8.4 -20.9 L-8.5 -20.9 -8.6 -21.0 -9.25 -21.15 -9.35 -21.25 Q-9.4 -21.35 -9.45 -21.85 -9.45 -22.1 -9.5 -22.25 L-10.65 -22.55 -11.05 -22.5 Q-11.1 -22.45 -11.2 -22.45 -11.55 -22.45 -11.8 -22.3 -12.0 -22.1 -12.0 -22.0 L-11.95 -21.85 -11.85 -21.8 -11.5 -21.75 -11.45 -21.7 -11.35 -21.65 M-6.25 -21.1 Q-5.8 -21.05 -5.45 -20.85 L-5.45 -20.8 -5.15 -20.6 -5.0 -20.55 -5.0 -20.4 -5.3 -20.05 -5.55 -19.9 -5.5 -19.9 -5.5 -19.85 -5.25 -19.75 -5.15 -19.7 Q-5.15 -19.6 -5.15 -19.55 L-5.35 -19.45 -5.5 -19.45 -5.9 -19.55 Q-6.0 -19.55 -6.05 -19.6 -6.1 -19.65 -6.1 -19.85 -6.15 -20.05 -5.8 -20.25 L-5.65 -20.4 -5.7 -20.4 Q-5.75 -20.4 -5.8 -20.45 -6.0 -20.65 -6.45 -20.8 L-6.5 -20.8 -6.85 -20.75 -7.0 -20.7 Q-7.05 -20.75 -7.1 -20.8 L-7.15 -20.8 -7.15 -20.9 Q-7.2 -21.1 -6.8 -21.2 L-6.3 -21.2 -6.25 -21.1 M-18.1 -21.65 L-18.05 -21.65 -18.05 -21.7 -18.1 -21.65 M-12.85 -19.55 L-12.9 -19.45 Q-13.0 -19.25 -13.25 -19.15 L-13.35 -19.15 -13.5 -19.3 Q-13.5 -19.65 -13.05 -19.65 L-12.95 -19.65 Q-12.9 -19.6 -12.85 -19.55 M-16.3 -12.4 Q-16.1 -12.5 -15.9 -12.5 L-15.1 -12.45 Q-14.6 -12.35 -14.6 -12.3 -14.55 -12.3 -14.55 -12.2 -14.5 -12.15 -14.55 -12.1 L-14.6 -12.05 -14.7 -12.05 -14.8 -12.0 -15.45 -12.05 -16.0 -11.95 -16.15 -11.95 Q-16.45 -12.0 -16.7 -12.1 L-16.7 -11.9 -16.8 -11.85 -17.2 -11.7 -17.3 -11.7 -17.65 -11.8 -17.75 -11.85 -17.8 -11.9 -17.8 -12.05 -17.75 -12.1 -17.65 -12.15 -17.25 -12.15 -17.25 -12.4 Q-17.25 -12.6 -17.1 -12.55 L-16.9 -12.55 -16.3 -12.4 M-16.05 -8.55 L-16.05 -8.65 Q-16.0 -8.7 -15.95 -8.7 L-14.9 -8.8 -13.8 -8.8 Q-13.75 -8.8 -13.75 -8.75 L-13.7 -8.65 Q-13.75 -8.6 -13.8 -8.55 -14.0 -8.45 -14.2 -8.3 L-14.35 -8.3 -15.1 -8.35 -15.45 -8.35 -15.5 -8.3 -15.5 -8.25 -15.65 -8.15 -15.7 -8.0 -15.75 -8.0 -15.8 -7.9 Q-15.75 -7.85 -15.75 -7.65 -15.75 -7.4 -15.95 -7.2 L-16.05 -7.15 -16.2 -7.15 -16.35 -7.1 -16.55 -7.05 Q-17.0 -7.15 -17.0 -7.35 L-16.95 -7.45 Q-16.9 -7.5 -16.85 -7.5 L-16.75 -7.55 -16.55 -7.5 -16.3 -7.55 -16.25 -7.65 -16.3 -7.65 -16.45 -7.8 Q-16.45 -8.05 -16.2 -8.3 -16.05 -8.45 -16.05 -8.55 M-11.9 -10.55 Q-11.95 -10.6 -11.4 -11.0 -11.5 -11.1 -11.5 -11.2 -11.5 -11.3 -11.45 -11.35 -11.4 -11.4 -11.3 -11.4 L-11.25 -11.4 -11.15 -11.35 -11.0 -11.25 Q-10.85 -11.15 -10.85 -11.0 -10.8 -10.6 -11.35 -10.6 -11.45 -10.35 -11.5 -10.25 -11.55 -10.2 -11.6 -10.2 L-11.75 -10.2 -11.85 -10.25 Q-11.9 -10.4 -11.9 -10.55 M-12.1 -8.1 L-12.15 -8.05 -12.4 -8.05 Q-12.45 -8.05 -12.5 -8.1 L-12.65 -8.3 Q-12.7 -8.35 -12.65 -8.4 L-12.6 -8.5 Q-12.55 -8.55 -12.5 -8.55 L-12.4 -8.55 -12.25 -8.5 Q-12.05 -8.3 -12.05 -8.2 L-12.1 -8.1 M-20.9 -8.55 Q-20.65 -8.85 -20.15 -8.95 L-20.1 -9.15 -20.0 -9.25 -19.9 -9.3 -19.75 -9.3 Q-19.6 -9.2 -19.65 -9.1 L-19.65 -9.0 Q-19.65 -8.8 -19.7 -8.7 L-19.8 -8.6 Q-19.8 -8.4 -19.95 -8.35 L-20.1 -8.3 Q-20.15 -8.1 -19.95 -7.9 -19.65 -7.5 -18.9 -7.35 -18.5 -7.25 -18.45 -7.2 L-18.4 -7.1 Q-18.4 -7.05 -18.4 -7.0 L-18.5 -6.95 -18.55 -6.9 -18.65 -6.9 Q-20.15 -7.0 -20.4 -7.35 L-20.4 -7.4 Q-20.75 -7.85 -21.05 -7.95 -21.1 -8.0 -21.1 -8.05 -21.15 -8.1 -21.1 -8.15 L-20.9 -8.55 M-10.15 -7.75 Q-9.9 -8.0 -9.55 -8.0 L-9.45 -7.95 -9.35 -7.85 -9.35 -7.8 -9.45 -7.7 -9.75 -7.5 -9.85 -7.45 -9.95 -7.45 -10.05 -7.5 Q-10.1 -7.5 -10.15 -7.55 L-10.15 -7.75 M-8.7 -8.0 L-8.55 -8.05 -8.4 -8.05 -8.35 -8.0 Q-8.3 -7.95 -8.1 -7.9 -8.0 -8.0 -7.9 -7.9 L-7.85 -7.8 Q-7.8 -7.8 -7.8 -7.65 -7.8 -7.55 -7.95 -7.3 L-7.95 -7.25 -8.1 -7.05 -7.55 -7.05 Q-7.5 -7.05 -7.45 -7.0 L-7.4 -6.9 Q-7.4 -6.85 -7.4 -6.8 L-7.55 -6.65 -8.4 -6.65 Q-8.55 -6.75 -8.55 -7.05 L-8.35 -7.55 -8.5 -7.55 -8.6 -7.6 Q-8.75 -7.7 -8.75 -7.9 -8.75 -7.95 -8.7 -8.0 M-7.95 -3.6 Q-7.3 -4.1 -6.35 -4.25 L-6.15 -4.25 -6.1 -4.3 -5.95 -4.25 -5.2 -4.35 -5.05 -4.3 Q-5.0 -4.25 -5.0 -4.2 -5.0 -4.15 -5.05 -4.1 L-5.2 -3.95 -5.3 -3.95 Q-5.95 -3.9 -6.1 -3.75 L-6.3 -3.65 Q-5.95 -3.45 -5.75 -3.05 L-5.7 -3.05 Q-5.55 -2.65 -5.55 -2.25 -5.55 -1.8 -5.8 -1.3 -6.0 -0.65 -6.5 -0.25 L-6.45 -0.2 -6.45 -0.1 Q-6.4 0.05 -6.75 0.2 -7.05 0.35 -7.15 0.3 L-7.6 0.3 -7.6 0.25 -7.65 0.25 -7.7 0.3 -7.85 0.4 -8.2 0.5 -8.3 0.5 -8.7 0.45 Q-8.75 0.45 -8.8 0.4 L-8.85 0.3 -8.8 0.2 Q-8.8 0.15 -8.7 0.15 L-8.25 0.0 -8.45 -0.05 Q-8.6 0.0 -8.65 -0.15 L-8.7 -0.25 Q-8.7 -0.35 -8.65 -0.4 -8.6 -0.5 -8.5 -0.45 L-8.4 -0.45 -8.1 -0.55 -7.85 -0.55 -6.95 -0.6 Q-6.7 -0.6 -6.5 -1.0 L-6.45 -1.1 -6.35 -1.25 -6.35 -1.3 Q-6.35 -1.55 -6.6 -1.8 -7.0 -2.2 -7.5 -2.2 L-7.6 -2.2 -8.0 -2.3 -8.1 -2.4 -8.2 -2.55 -8.55 -2.55 -8.65 -2.65 -8.65 -2.7 Q-8.6 -3.1 -8.0 -3.6 L-7.95 -3.6 M-7.2 -3.2 Q-7.3 -3.25 -7.3 -3.3 -7.3 -3.45 -7.1 -3.65 L-7.55 -3.4 Q-7.8 -3.3 -8.0 -3.05 L-8.1 -2.9 -8.0 -2.85 -7.95 -2.8 -7.7 -2.6 -7.45 -2.55 -7.4 -2.5 -6.85 -2.4 -6.7 -2.4 Q-6.4 -2.3 -6.15 -1.9 L-6.1 -2.2 Q-6.15 -2.45 -6.35 -2.75 -6.6 -3.2 -7.05 -3.15 L-7.2 -3.2 M-7.4 -0.05 L-7.0 -0.1 -6.9 -0.15 -7.0 -0.2 -7.05 -0.2 -7.8 -0.25 -7.85 -0.25 -7.8 -0.2 -7.8 -0.1 -7.55 -0.1 Q-7.45 -0.1 -7.4 -0.05" fill="#cdffb4" fill-opacity="0.5019608" fill-rule="evenodd" stroke="none"/>
      <path d="M5.65 -5.3 Q5.8 -5.6 6.15 -5.75 6.4 -5.9 6.4 -6.05 6.4 -6.25 6.45 -6.05 6.65 -6.05 6.7 -6.0 6.4 -5.75 6.2 -5.75 6.15 -5.75 6.05 -5.6 5.85 -5.4 5.7 -5.3 L5.65 -5.3 M4.1 -6.65 Q4.35 -6.45 4.7 -5.9 5.1 -5.3 5.1 -5.1 5.1 -4.9 4.1 -4.35 L3.75 -4.4 4.2 -4.8 4.25 -5.05 Q4.25 -5.25 4.15 -5.25 L3.75 -5.2 3.1 -5.1 Q3.1 -5.05 2.85 -5.05 L2.85 -4.5 Q2.7 -4.5 2.6 -4.45 L2.55 -4.4 Q2.45 -4.4 2.45 -4.5 L2.6 -4.55 Q2.75 -4.65 2.75 -4.85 2.75 -5.1 2.8 -5.15 L3.25 -5.2 Q3.6 -5.2 3.9 -5.35 L4.2 -5.35 Q4.35 -5.25 4.35 -5.05 L4.3 -4.9 4.4 -5.0 Q4.55 -5.15 4.55 -5.6 4.55 -6.1 4.15 -6.45 3.55 -7.0 2.15 -6.9 L1.9 -6.95 Q2.4 -7.15 3.15 -6.95 3.55 -6.85 4.1 -6.65 M0.95 -6.85 Q0.65 -6.7 0.4 -6.65 0.1 -6.45 0.05 -6.3 0.4 -6.1 0.4 -6.0 L0.45 -6.05 0.5 -5.95 0.3 -5.7 Q0.2 -5.55 0.3 -5.4 L0.25 -5.35 Q-0.35 -5.3 -0.5 -5.2 L-2.3 -5.25 Q-2.9 -5.3 -3.6 -5.45 L-3.75 -5.25 -3.65 -5.15 -3.95 -5.25 Q-3.8 -5.4 -3.65 -5.45 L-3.65 -5.65 -3.6 -5.6 -3.55 -5.6 -3.55 -5.7 -3.75 -5.8 -3.8 -5.9 -3.85 -5.9 -3.9 -6.0 Q-4.6 -6.4 -4.75 -7.15 L-4.85 -7.15 -5.05 -7.2 -6.1 -7.1 -6.45 -7.0 -6.6 -7.0 -6.5 -7.15 Q-5.35 -7.6 -4.8 -7.25 L-4.3 -6.6 Q-3.95 -6.2 -3.6 -5.95 L-3.55 -5.9 Q-3.35 -5.8 -3.1 -5.7 L-3.25 -5.75 -3.25 -5.7 -2.8 -5.65 -1.75 -5.55 -1.45 -5.6 Q-0.85 -5.45 -0.25 -5.7 0.15 -5.85 0.3 -6.0 L0.2 -6.05 0.05 -6.15 -0.05 -6.2 Q-0.05 -6.25 -0.05 -6.35 L0.0 -6.45 0.35 -6.7 0.4 -6.65 Q0.45 -6.75 0.65 -6.8 L0.95 -6.9 0.95 -6.85 M9.45 -4.8 Q9.55 -5.0 9.95 -5.15 L10.25 -5.1 10.35 -5.05 Q10.65 -4.9 10.8 -4.65 10.9 -4.55 11.25 -4.45 L11.1 -4.45 10.8 -4.55 10.85 -4.55 11.2 -3.8 11.15 -3.75 10.9 -3.95 10.7 -3.95 Q10.5 -3.85 10.35 -3.6 L10.15 -3.35 10.05 -3.1 9.9 -2.2 Q9.9 -1.65 9.95 -1.5 10.05 -1.1 10.5 -0.7 L10.9 -0.65 Q10.9 -0.8 11.1 -0.9 L12.1 -0.85 12.1 -1.1 11.95 -1.45 Q11.8 -1.75 11.8 -2.05 11.8 -2.4 11.9 -2.7 12.05 -3.2 12.45 -3.2 12.4 -3.3 12.25 -3.6 L12.05 -4.0 11.7 -4.4 11.25 -4.45 11.75 -4.45 12.5 -3.35 12.5 -3.1 12.4 -3.1 Q11.85 -2.9 11.85 -2.05 11.85 -1.8 11.85 -1.75 L12.05 -1.35 12.15 -1.2 12.2 -1.05 Q12.15 -0.95 12.35 -0.8 L12.55 -0.8 Q12.6 -0.7 12.85 -0.55 13.0 -0.4 13.05 -0.2 13.05 -0.1 13.2 0.0 L13.65 0.2 13.7 0.2 13.55 0.25 13.05 0.2 12.95 0.2 12.9 0.15 12.9 0.05 12.85 0.0 12.85 -0.1 12.75 -0.25 12.4 -0.65 11.75 -0.6 Q11.6 -0.6 11.35 -0.5 11.3 -0.45 11.35 -0.35 L11.35 -0.3 10.6 -0.55 10.4 -0.55 10.2 -0.8 Q10.0 -0.95 9.8 -1.3 L9.55 -1.65 9.5 -1.9 Q9.5 -2.5 9.8 -3.0 L10.0 -3.25 9.95 -3.2 10.25 -3.7 Q10.5 -4.0 10.7 -4.1 L10.75 -4.1 Q10.75 -4.35 10.25 -5.05 L9.95 -5.05 Q9.8 -5.0 9.7 -4.9 L9.45 -4.8 M19.9 -7.6 L19.4 -7.05 19.25 -6.8 Q19.0 -6.4 18.5 -6.0 L17.75 -5.45 18.65 -5.45 18.8 -5.4 19.0 -5.4 19.35 -5.3 19.35 -5.25 Q18.35 -5.1 17.55 -4.7 16.8 -4.3 16.3 -4.2 L15.8 -4.2 15.55 -4.45 Q15.45 -4.65 15.2 -4.7 15.1 -4.8 15.1 -4.95 L15.15 -5.0 15.9 -4.35 Q17.05 -4.5 17.6 -4.8 18.3 -5.15 18.75 -5.3 L18.6 -5.35 17.5 -5.3 17.1 -5.35 17.15 -5.4 17.2 -5.4 Q17.55 -5.8 18.5 -6.6 19.0 -7.05 19.4 -7.35 19.65 -7.75 19.65 -7.85 19.65 -7.9 19.4 -8.3 23.55 -10.35 23.6 -10.35 23.75 -10.35 24.3 -9.75 24.85 -9.1 24.9 -8.75 25.0 -8.35 25.45 -7.85 25.9 -7.4 25.9 -7.25 25.9 -7.0 25.6 -6.55 25.35 -6.05 25.35 -5.7 25.35 -5.6 25.45 -5.15 L25.65 -5.1 25.85 -4.6 Q25.9 -4.2 26.0 -4.05 L25.95 -4.05 Q25.95 -3.95 26.25 -3.95 26.55 -3.95 26.95 -4.3 L27.1 -4.45 Q27.5 -4.7 27.65 -4.75 28.85 -5.15 29.25 -5.35 29.7 -5.65 30.25 -6.2 L31.0 -6.85 31.5 -7.75 Q31.8 -8.3 31.95 -8.6 L32.0 -9.0 Q31.9 -9.0 31.8 -8.95 31.7 -8.95 31.65 -9.05 L31.55 -9.2 30.5 -9.1 29.65 -8.9 Q29.55 -9.0 29.55 -8.8 29.55 -8.7 29.65 -8.6 L29.75 -8.55 29.7 -8.5 Q29.5 -8.7 29.5 -8.8 29.5 -8.9 29.5 -8.95 L29.65 -9.0 31.6 -9.3 Q31.75 -9.2 31.75 -9.05 L32.05 -9.15 Q32.05 -9.3 32.2 -9.45 L32.65 -10.0 32.7 -10.15 32.8 -10.5 Q32.8 -11.6 31.95 -12.35 31.25 -13.0 29.05 -14.1 28.6 -13.65 28.5 -13.45 L28.45 -13.0 Q28.35 -12.65 28.2 -12.35 27.85 -11.6 27.25 -11.0 L27.1 -10.95 Q27.7 -11.35 28.15 -12.5 L28.25 -12.8 28.35 -13.25 Q28.4 -13.45 28.45 -13.65 28.55 -13.95 28.55 -14.25 L28.45 -14.7 Q28.35 -15.05 28.35 -15.15 L28.35 -15.2 28.4 -15.2 Q28.6 -15.1 28.95 -14.7 29.35 -14.25 29.65 -14.1 L30.55 -13.7 Q31.35 -13.4 31.55 -13.25 31.95 -13.0 32.65 -12.1 33.45 -11.2 33.45 -10.85 L33.1 -10.35 32.8 -10.0 Q32.75 -9.85 32.65 -9.75 L32.5 -8.9 Q32.25 -7.8 31.35 -7.0 L31.3 -6.95 Q31.3 -6.85 30.7 -6.2 L30.0 -5.45 29.2 -4.75 Q28.95 -4.5 28.75 -4.4 28.6 -4.4 28.3 -4.4 27.15 -4.2 26.55 -3.95 L25.95 -3.65 25.85 -3.95 25.75 -4.15 25.6 -4.35 Q25.15 -4.85 24.85 -4.95 L25.2 -5.8 25.15 -5.7 25.2 -5.95 25.2 -6.6 Q25.2 -7.1 25.1 -7.35 24.95 -7.65 24.85 -8.35 24.8 -8.7 24.4 -9.3 L24.05 -9.8 23.7 -10.2 Q23.5 -10.1 23.35 -10.0 23.05 -9.8 22.3 -9.2 21.5 -8.55 21.25 -8.45 20.6 -8.2 19.9 -7.6 M22.0 -3.75 L20.95 -3.85 Q20.95 -3.9 21.05 -3.9 L22.0 -3.8 22.0 -3.75 M19.65 -3.75 L20.2 -4.0 20.4 -3.95 Q20.35 -3.85 19.9 -3.75 L19.65 -3.75 M22.75 -3.4 L22.8 -3.45 Q22.9 -3.35 22.9 -3.25 L22.85 -3.1 23.1 -3.05 Q23.15 -2.85 23.05 -2.7 24.4 -2.85 25.2 -3.25 L26.15 -3.75 Q25.45 -3.25 25.15 -3.1 24.7 -2.85 23.2 -2.6 L22.95 -2.6 Q22.95 -2.7 23.05 -2.95 L22.75 -3.0 22.75 -3.4 M29.65 -8.3 Q29.65 -8.2 29.55 -8.05 L29.45 -7.9 29.2 -8.0 Q28.7 -8.0 28.6 -7.85 L28.35 -7.85 Q28.45 -8.0 29.2 -8.0 29.75 -8.05 29.55 -8.45 L29.65 -8.45 29.65 -8.3 M24.6 -12.4 Q24.45 -12.45 24.45 -12.5 L25.3 -12.4 25.4 -12.35 25.45 -12.2 Q25.45 -12.1 25.2 -11.7 25.2 -11.65 25.45 -11.6 25.65 -11.55 25.8 -11.45 L25.75 -11.4 25.2 -11.5 25.1 -11.55 Q25.05 -11.6 25.05 -11.7 25.05 -11.8 25.3 -12.1 25.3 -12.25 25.15 -12.3 L24.7 -12.4 24.6 -12.4 M23.5 -13.0 Q23.5 -13.1 23.6 -13.1 L23.9 -13.0 23.85 -12.95 23.7 -12.95 Q23.5 -12.95 23.5 -13.0 M27.95 -9.1 L27.95 -8.95 Q27.95 -8.9 27.5 -8.65 L27.7 -8.85 Q27.8 -8.9 27.8 -9.15 L27.85 -9.15 27.95 -9.1 M27.4 -8.45 L27.45 -8.45 27.5 -8.35 27.7 -8.2 Q27.65 -8.15 27.4 -8.2 L27.4 -8.45 M-31.1 -15.25 Q-31.1 -15.15 -31.1 -14.95 L-31.15 -14.6 Q-31.15 -13.5 -30.2 -11.5 -29.45 -10.0 -28.6 -8.75 L-27.65 -7.85 Q-25.9 -6.25 -25.75 -6.25 L-25.6 -6.25 Q-25.6 -6.3 -25.65 -6.3 L-25.3 -6.35 -24.9 -6.75 -24.5 -6.9 Q-24.35 -6.95 -24.3 -7.05 -24.55 -7.25 -24.6 -7.5 L-24.65 -7.8 -24.85 -7.95 Q-25.1 -7.95 -25.1 -7.9 L-25.25 -7.9 Q-25.25 -8.05 -25.4 -8.3 L-25.55 -8.7 Q-25.65 -9.05 -25.65 -9.45 -25.65 -10.2 -25.05 -10.8 -24.05 -11.75 -23.3 -12.1 L-23.1 -12.1 -23.05 -12.05 -23.05 -11.9 Q-22.25 -12.4 -21.9 -12.55 -21.5 -12.85 -21.15 -13.0 L-21.1 -13.0 Q-21.05 -13.1 -21.05 -12.9 -21.05 -12.8 -21.15 -12.6 -21.25 -12.4 -21.25 -12.3 L-21.0 -12.25 Q-20.8 -12.0 -20.75 -11.15 -20.65 -11.0 -20.65 -10.9 L-20.65 -10.75 -20.75 -10.75 Q-20.6 -10.2 -20.05 -9.9 -20.9 -10.15 -20.9 -11.1 L-21.0 -11.25 Q-21.2 -11.5 -21.5 -11.75 L-21.45 -11.9 -21.6 -12.0 Q-22.45 -11.95 -23.15 -11.1 L-24.05 -10.0 -24.15 -9.85 Q-24.3 -9.3 -24.4 -9.05 L-24.55 -8.05 -24.5 -7.65 Q-24.45 -7.35 -24.35 -7.15 L-24.05 -7.2 -23.9 -7.15 -23.75 -7.25 -23.55 -7.3 -23.4 -7.3 -23.35 -7.25 -23.2 -7.2 -22.9 -6.85 Q-22.8 -6.75 -22.8 -6.7 L-22.8 -6.55 -22.7 -6.25 Q-22.65 -6.05 -22.4 -5.9 L-22.2 -5.9 Q-22.05 -6.05 -21.6 -6.05 L-21.6 -6.0 -19.55 -6.1 -19.05 -6.25 -19.15 -6.15 -19.35 -6.15 -19.5 -6.05 -20.75 -6.0 -20.8 -5.95 -21.65 -6.0 -22.25 -5.85 -22.4 -5.85 Q-22.85 -6.05 -22.85 -6.5 -22.8 -6.7 -23.0 -6.9 L-23.25 -7.15 Q-23.4 -7.2 -23.5 -7.25 L-23.9 -7.15 Q-24.9 -6.6 -25.25 -6.25 L-25.35 -6.2 -25.3 -6.15 -25.85 -5.9 -26.05 -5.95 -26.2 -6.1 Q-26.4 -6.3 -26.6 -6.3 -27.05 -6.9 -27.85 -7.95 L-28.3 -8.3 Q-29.35 -9.1 -30.3 -10.45 -30.9 -11.35 -31.2 -12.65 L-31.4 -13.6 -31.4 -13.45 -31.45 -12.5 Q-31.45 -11.1 -31.15 -10.4 -30.7 -9.25 -29.4 -8.5 L-29.35 -8.5 Q-29.1 -8.35 -28.85 -8.3 L-28.8 -8.3 -28.75 -8.1 -28.65 -7.75 Q-28.5 -7.5 -28.5 -7.3 -28.5 -7.2 -28.6 -7.05 -28.7 -6.85 -28.7 -6.75 -28.7 -5.95 -27.85 -5.95 L-27.95 -5.9 -28.2 -5.95 Q-28.7 -6.25 -28.75 -6.4 L-28.8 -6.8 -28.7 -7.1 Q-28.6 -7.25 -28.6 -7.35 -28.6 -7.45 -28.75 -7.8 -28.9 -8.0 -28.85 -8.1 L-28.85 -8.15 -29.45 -8.4 Q-30.25 -8.65 -30.75 -9.25 -31.5 -9.85 -31.85 -10.85 -32.1 -11.65 -32.1 -12.8 -32.1 -13.7 -32.05 -13.9 -32.0 -14.45 -31.55 -15.0 L-31.55 -14.95 -31.25 -15.55 -31.1 -15.55 Q-31.05 -15.5 -31.05 -15.4 L-31.1 -15.25 M-31.7 -14.7 L-31.7 -14.7 M-24.05 -10.15 Q-23.65 -11.0 -23.05 -11.5 L-22.3 -12.25 Q-22.65 -12.05 -22.95 -11.9 L-23.05 -11.9 -23.05 -12.05 -23.3 -12.05 Q-25.65 -10.8 -25.65 -9.45 -25.65 -9.05 -25.5 -8.7 L-25.3 -8.3 Q-25.2 -8.05 -25.2 -7.95 L-25.0 -8.0 -24.85 -8.0 -24.75 -7.95 -24.65 -7.8 -24.65 -8.05 Q-24.65 -8.45 -24.45 -9.4 L-24.2 -10.0 -24.05 -10.15 M-8.9 -22.2 Q-8.9 -22.1 -9.0 -22.0 -9.1 -21.9 -9.1 -21.8 -9.1 -21.6 -8.85 -21.5 L-7.9 -21.1 -8.4 -21.05 Q-8.45 -21.1 -9.2 -21.3 -9.2 -21.4 -9.25 -21.85 -9.25 -22.25 -9.4 -22.35 L-10.65 -22.7 -11.2 -22.6 Q-11.65 -22.6 -11.95 -22.45 L-12.0 -22.4 Q-12.15 -22.1 -12.15 -22.0 -12.15 -21.85 -12.1 -21.8 L-12.0 -21.65 -11.55 -21.6 Q-11.3 -21.2 -11.3 -20.85 -11.3 -20.25 -11.8 -19.85 L-12.35 -19.8 Q-12.15 -19.95 -11.9 -19.95 -11.8 -19.95 -11.6 -20.35 -11.4 -20.6 -11.4 -20.85 -11.4 -21.1 -11.6 -21.5 L-12.05 -21.55 Q-12.25 -21.8 -12.25 -22.0 -12.25 -22.15 -12.2 -22.35 L-12.3 -22.25 Q-14.15 -21.75 -15.5 -20.85 L-16.0 -20.75 -16.4 -20.7 -17.25 -20.7 Q-17.55 -21.0 -17.65 -21.2 L-17.95 -21.25 -18.1 -21.35 -17.95 -21.6 Q-17.95 -21.7 -17.95 -21.8 -18.5 -21.95 -18.75 -22.1 L-18.8 -22.1 Q-19.15 -22.15 -19.55 -22.1 L-19.5 -22.2 Q-19.7 -21.9 -19.8 -21.4 -20.0 -20.55 -20.1 -20.3 L-20.9 -19.25 -21.3 -18.65 Q-21.3 -18.25 -21.25 -18.05 -21.2 -17.85 -21.05 -17.7 L-20.95 -17.5 Q-20.95 -17.25 -21.2 -17.05 L-21.25 -17.05 -21.15 -16.85 -20.65 -16.75 -19.95 -16.7 Q-19.4 -16.8 -18.6 -17.0 -17.95 -17.15 -16.65 -17.05 L-16.3 -16.9 Q-16.85 -16.75 -16.85 -16.6 -16.85 -16.45 -16.75 -16.4 L-16.7 -16.35 Q-16.25 -16.2 -16.2 -15.85 -16.25 -15.4 -16.2 -15.25 L-16.3 -15.2 Q-16.45 -15.45 -16.45 -15.9 -16.5 -16.2 -17.1 -16.25 L-17.1 -16.55 -18.4 -16.5 -18.8 -16.5 -19.3 -16.55 -19.7 -16.6 -20.35 -16.65 -21.15 -16.65 -21.2 -16.75 -21.5 -16.75 -21.85 -17.25 Q-22.1 -17.55 -22.35 -17.7 -21.95 -18.15 -21.6 -18.6 L-22.0 -18.65 -22.05 -19.05 Q-22.1 -19.3 -22.2 -19.45 -22.3 -19.6 -22.6 -19.85 -22.85 -20.05 -22.85 -20.2 -22.85 -20.6 -22.3 -21.2 -22.25 -21.3 -22.25 -21.1 L-22.5 -20.7 Q-22.75 -20.35 -22.75 -20.2 -22.75 -20.05 -22.5 -19.85 -22.15 -19.6 -22.1 -19.45 -22.0 -18.95 -21.9 -18.75 L-21.5 -18.7 Q-20.8 -19.6 -20.5 -20.65 -20.4 -20.95 -20.4 -21.45 -20.4 -21.9 -20.35 -22.1 L-20.0 -22.8 -20.1 -22.7 Q-20.35 -22.45 -20.7 -22.25 L-20.95 -22.25 -20.9 -22.45 -21.15 -22.45 -21.15 -22.5 -20.8 -22.5 Q-20.75 -22.45 -20.85 -22.35 -20.5 -22.35 -20.2 -22.75 -19.95 -23.15 -19.9 -23.45 L-19.9 -23.55 -19.85 -23.55 Q-19.45 -22.9 -19.25 -22.65 -18.9 -22.3 -17.85 -21.95 L-17.7 -21.9 Q-17.65 -21.9 -17.7 -21.9 L-17.7 -21.75 Q-17.7 -21.6 -17.5 -21.45 -17.25 -21.3 -16.85 -21.3 -16.25 -21.3 -16.0 -21.45 L-15.65 -21.75 Q-15.3 -21.9 -14.6 -22.0 L-13.75 -22.1 Q-12.65 -22.4 -12.3 -22.65 -12.05 -22.9 -12.25 -23.2 L-12.15 -23.2 -9.85 -22.75 Q-8.9 -22.5 -8.9 -22.2 M-6.4 -20.95 L-6.5 -21.0 Q-6.7 -21.0 -6.95 -20.85 L-6.95 -20.9 Q-6.95 -21.0 -6.75 -21.05 L-6.45 -21.05 -6.4 -20.95 M-5.95 -19.85 Q-5.95 -19.95 -5.7 -20.1 -5.45 -20.25 -5.45 -20.5 L-5.65 -20.55 Q-5.85 -20.8 -6.35 -20.95 -5.95 -20.95 -5.55 -20.7 -5.25 -20.45 -5.15 -20.45 -5.3 -20.3 -5.45 -20.2 L-5.85 -19.85 -5.8 -19.8 -5.35 -19.65 -5.45 -19.6 -5.85 -19.7 -5.9 -19.75 -5.95 -19.85 M-21.75 -22.2 Q-21.6 -22.45 -21.45 -22.5 -21.45 -22.45 -21.6 -22.25 L-21.8 -21.9 -21.9 -21.85 -21.75 -22.2 M-21.6 -18.1 L-21.45 -17.85 Q-21.3 -17.65 -21.3 -17.4 L-21.3 -17.15 -21.15 -17.3 -21.05 -17.5 -21.2 -17.75 Q-21.35 -17.95 -21.35 -18.05 L-21.35 -18.6 Q-21.6 -18.2 -21.6 -18.1 M-13.05 -19.5 Q-13.1 -19.35 -13.3 -19.3 -13.3 -19.5 -13.05 -19.5 M-15.9 -12.35 L-15.15 -12.3 -14.7 -12.2 -14.8 -12.15 -15.45 -12.2 Q-15.95 -12.2 -16.1 -12.1 -16.45 -12.15 -16.7 -12.3 L-17.0 -12.3 Q-16.9 -12.1 -16.9 -11.95 L-17.25 -11.85 -17.65 -11.95 -17.65 -12.0 -17.2 -12.0 -17.0 -12.1 -17.05 -12.1 Q-17.1 -12.15 -17.1 -12.25 -17.1 -12.45 -17.05 -12.4 -16.7 -12.4 -16.35 -12.25 L-16.2 -12.25 -15.9 -12.35 M-15.9 -7.65 Q-15.9 -7.45 -16.05 -7.35 L-16.25 -7.3 -16.5 -7.2 Q-16.8 -7.25 -16.8 -7.35 L-16.55 -7.35 -16.15 -7.45 -16.05 -7.65 Q-16.05 -7.75 -16.1 -7.8 L-16.25 -7.8 Q-16.25 -8.0 -16.05 -8.2 -15.9 -8.4 -15.9 -8.55 L-14.9 -8.65 -13.9 -8.7 Q-14.05 -8.55 -14.3 -8.45 L-15.45 -8.5 -15.65 -8.4 -15.8 -8.25 -15.9 -8.05 Q-16.0 -7.95 -16.1 -7.9 L-15.95 -7.8 Q-15.9 -7.8 -15.9 -7.65 M-12.25 -8.2 L-12.35 -8.2 -12.5 -8.4 -12.4 -8.4 Q-12.25 -8.25 -12.25 -8.2 M-11.75 -10.55 L-11.15 -11.0 Q-11.3 -11.1 -11.3 -11.2 L-11.25 -11.2 -11.1 -11.15 Q-11.05 -11.1 -11.05 -11.0 -11.05 -10.75 -11.5 -10.75 -11.6 -10.45 -11.65 -10.35 -11.75 -10.45 -11.75 -10.55 M-20.75 -8.5 Q-20.5 -8.75 -20.0 -8.85 L-19.9 -9.15 -19.85 -9.15 -19.8 -9.1 -19.8 -9.0 Q-19.8 -8.9 -19.85 -8.8 L-20.0 -8.7 -20.0 -8.65 Q-20.0 -8.5 -20.05 -8.5 L-20.2 -8.45 -20.25 -8.45 -20.25 -8.5 Q-20.4 -8.15 -20.15 -7.8 -19.8 -7.35 -18.95 -7.15 L-18.6 -7.1 -18.65 -7.05 Q-20.0 -7.15 -20.25 -7.45 -20.65 -8.0 -20.95 -8.1 L-20.75 -8.5 M-10.0 -7.65 Q-9.8 -7.8 -9.55 -7.8 L-9.85 -7.6 -10.0 -7.65 M-8.55 -7.9 L-8.5 -7.9 Q-8.4 -7.8 -8.05 -7.75 -8.0 -7.85 -8.0 -7.65 -8.0 -7.6 -8.15 -7.35 L-8.3 -7.05 -8.25 -6.9 -7.55 -6.9 -7.65 -6.8 -8.3 -6.8 Q-8.4 -6.85 -8.4 -7.05 L-8.1 -7.65 -8.5 -7.7 Q-8.55 -7.8 -8.55 -7.9 M-6.2 -4.1 L-6.1 -4.15 -6.0 -4.1 -5.2 -4.2 -5.3 -4.1 Q-6.05 -4.05 -6.25 -3.9 L-6.6 -3.65 Q-6.15 -3.45 -5.9 -3.0 -5.75 -2.65 -5.75 -2.25 -5.75 -1.85 -6.0 -1.35 -6.2 -0.65 -6.75 -0.25 L-6.75 -0.2 -6.65 -0.15 Q-6.65 -0.2 -6.65 -0.1 -6.65 -0.05 -6.85 0.05 -7.05 0.15 -7.15 0.15 L-7.45 0.15 -7.55 0.1 -7.8 0.1 -7.85 0.15 -7.85 0.2 -7.95 0.25 -8.25 0.35 -8.65 0.3 -7.9 0.05 -8.0 -0.05 -8.05 -0.05 Q-8.2 -0.15 -8.5 -0.25 L-8.5 -0.3 -8.05 -0.4 -7.85 -0.4 -6.95 -0.45 Q-6.6 -0.45 -6.25 -1.0 L-6.25 -1.05 -6.3 -1.05 Q-6.2 -1.1 -6.2 -1.2 L-6.15 -1.3 Q-6.15 -1.6 -6.5 -1.95 -6.9 -2.35 -7.55 -2.35 L-7.95 -2.45 -8.1 -2.7 -8.5 -2.7 Q-8.4 -3.05 -7.85 -3.5 -7.2 -3.95 -6.35 -4.1 L-6.2 -4.1 M-7.1 -3.85 L-7.65 -3.55 -8.15 -3.15 Q-8.35 -2.9 -8.4 -2.75 L-8.1 -2.75 -7.8 -2.45 -7.5 -2.4 -7.5 -2.35 -6.95 -2.3 -6.75 -2.25 Q-6.55 -2.15 -6.3 -1.8 -6.1 -1.5 -6.1 -1.3 -6.05 -1.45 -6.0 -1.55 L-5.95 -2.2 Q-5.95 -2.45 -6.15 -2.85 -6.5 -3.35 -7.1 -3.3 -7.1 -3.5 -6.7 -3.8 L-6.35 -4.0 Q-6.6 -3.95 -7.1 -3.85 M-7.9 -0.4 L-7.9 -0.35 Q-8.0 -0.3 -8.0 -0.2 -7.95 -0.05 -7.85 0.1 L-7.75 0.05 -7.55 0.05 -7.45 0.1 Q-7.15 0.1 -6.8 -0.05 L-6.7 -0.1 -6.75 -0.15 Q-6.8 -0.15 -6.8 -0.2 L-6.75 -0.25 -7.0 -0.35 -7.9 -0.4 M-3.6 -5.1 L-3.55 -5.0 Q-3.5 -5.0 -3.55 -4.85 L-3.1 -4.8 -3.15 -4.75 -3.65 -4.8 Q-3.65 -5.0 -3.6 -5.1" fill="#ffffff" fill-rule="evenodd" stroke="none"/>
    </g>
  </defs>
</svg>
