<?xml version="1.0" encoding="UTF-8" standalone="no"?>
<svg xmlns:ffdec="https://www.free-decompiler.com/flash" xmlns:xlink="http://www.w3.org/1999/xlink" ffdec:objectType="frame" height="42.35px" width="53.2px" xmlns="http://www.w3.org/2000/svg">
  <g transform="matrix(1.0, 0.0, 0.0, 1.0, 0.0, 0.7)">
    <use ffdec:characterId="1133" height="6.05" transform="matrix(7.0, 0.0, 0.0, 7.0, 0.0, -0.7)" width="7.6" xlink:href="#shape0"/>
  </g>
  <defs>
    <g id="shape0" transform="matrix(1.0, 0.0, 0.0, 1.0, 0.0, 0.1)">
      <path d="M4.05 0.85 L4.05 0.8 4.0 0.95 3.9 1.15 3.9 1.1 3.8 0.95 Q3.9 0.9 4.05 0.85 M4.45 1.7 L4.45 1.65 4.65 2.0 4.8 2.1 4.75 2.1 4.75 2.15 4.7 2.15 4.7 2.2 4.65 2.3 4.3 2.65 4.3 2.55 Q4.3 2.4 4.35 2.2 L4.4 2.1 4.15 2.1 3.95 2.15 3.85 2.15 3.2 2.1 3.2 1.8 3.5 1.85 4.05 1.8 Q4.15 1.95 4.25 2.0 L4.3 2.05 4.45 2.05 Q4.5 1.95 4.45 1.7 M5.9 2.9 L5.85 2.85 5.75 3.35 5.75 3.5 5.7 3.55 5.7 3.65 5.65 3.75 5.6 3.95 5.5 4.05 5.4 4.3 5.2 3.7 Q5.15 3.35 5.2 3.0 L5.2 2.75 5.25 2.55 Q5.5 2.7 5.75 2.75 L5.85 2.75 Q5.85 2.65 5.8 2.5 L5.6 2.2 5.4 2.0 5.2 1.7 5.6 2.1 Q6.0 2.5 6.25 2.55 L6.35 2.7 6.65 3.1 Q6.9 3.45 6.9 3.7 6.9 3.9 6.95 4.2 L7.0 4.35 7.1 4.45 7.15 4.95 7.2 5.05 Q7.2 5.35 7.2 5.6 L7.05 5.4 6.85 5.0 6.85 4.9 6.8 4.75 6.7 4.35 Q6.65 3.95 6.7 3.2 6.55 3.9 6.6 4.4 L6.65 4.6 6.75 4.85 6.75 4.95 6.7 4.95 6.6 4.55 6.55 4.45 6.5 4.3 6.5 4.1 6.55 3.9 Q6.55 3.45 6.5 3.3 L6.5 3.2 Q6.4 3.7 6.4 4.0 L6.35 4.25 6.35 4.4 6.25 4.85 6.15 5.1 6.0 4.8 5.95 4.5 Q5.8 4.05 5.8 3.65 L5.8 3.55 Q5.85 3.4 5.85 3.05 L5.9 2.95 5.9 2.9 M5.9 2.15 L6.05 2.35 5.5 1.9 5.5 1.85 5.05 1.45 5.0 1.45 Q5.05 1.65 5.4 2.05 L5.4 2.1 5.65 2.5 5.75 2.7 5.25 2.4 5.1 2.3 4.7 1.9 4.5 1.55 Q4.35 1.2 4.3 1.25 4.25 1.35 4.4 1.55 L4.4 1.7 Q4.4 1.85 4.4 1.95 L4.35 1.95 4.1 1.6 4.1 1.55 4.05 1.45 4.05 1.4 Q4.0 1.2 4.1 0.95 L4.15 0.85 Q4.25 0.75 4.3 0.75 L4.35 0.8 4.65 0.95 Q5.25 1.3 5.5 1.6 L5.7 1.9 5.9 2.15 M5.95 2.05 L5.9 1.95 5.5 1.5 Q5.2 1.1 4.7 0.8 L4.25 0.6 4.35 0.5 Q4.4 0.5 4.45 0.45 L4.65 0.45 4.9 0.55 5.05 0.65 5.1 0.7 5.55 1.25 6.2 2.0 6.55 2.4 Q6.75 2.65 6.9 2.95 L7.05 3.35 7.05 3.45 7.15 4.05 7.15 4.3 7.2 4.45 7.1 4.25 7.05 4.0 7.05 3.75 7.0 3.55 6.9 3.3 6.75 3.1 6.4 2.6 5.95 2.05 M2.95 0.45 Q3.25 0.55 3.35 0.65 L3.7 1.0 3.75 1.1 Q3.85 1.25 3.9 1.45 L3.95 1.6 3.95 1.65 4.0 1.7 3.3 1.75 3.1 1.75 3.0 1.7 2.75 1.7 2.8 1.85 2.85 1.85 Q2.95 2.1 2.95 2.25 L2.75 2.1 2.55 1.9 2.45 1.75 2.4 1.7 2.4 1.85 2.45 1.9 2.55 2.1 2.55 2.15 2.65 2.45 Q2.75 2.75 2.75 3.0 L2.15 2.3 2.0 2.1 2.05 2.1 2.4 1.75 2.45 1.6 2.65 1.25 2.65 1.3 Q2.65 1.55 2.7 1.65 L2.85 1.65 Q3.0 1.6 3.05 1.4 3.15 1.1 3.15 1.05 3.2 0.9 3.0 0.55 L2.95 0.45 M3.05 1.0 Q3.0 1.2 2.8 1.55 L2.75 1.55 Q2.7 1.45 2.7 1.3 L2.7 1.15 Q2.8 0.95 2.75 0.85 2.7 0.8 2.6 1.15 L2.45 1.5 1.95 2.0 Q1.75 2.15 1.5 2.3 L1.55 2.1 1.8 1.7 1.8 1.65 Q2.05 1.25 2.1 1.05 L2.05 1.05 1.15 1.95 1.25 1.75 1.4 1.5 1.6 1.25 Q1.8 0.9 2.35 0.55 L2.65 0.4 Q2.75 0.35 2.85 0.45 L2.9 0.55 Q3.05 0.8 3.05 1.0 M5.2 2.5 L5.1 2.7 4.6 3.4 Q4.55 3.1 4.6 2.75 4.6 2.7 4.75 2.3 L4.8 2.25 4.75 2.15 4.8 2.1 5.0 2.35 5.2 2.5 M2.7 0.2 L2.7 0.25 2.3 0.45 Q1.85 0.7 1.55 1.1 L1.25 1.55 1.2 1.65 Q0.95 1.95 0.8 2.2 L0.55 2.7 Q0.4 2.95 0.35 3.15 0.35 3.3 0.35 3.6 L0.35 3.9 0.3 4.0 0.3 4.1 0.25 4.05 0.3 3.95 0.3 3.05 0.35 2.7 0.35 2.55 Q0.4 2.4 0.5 2.25 L0.65 2.0 0.95 1.6 1.5 0.85 1.9 0.25 1.95 0.25 Q2.1 0.15 2.25 0.1 L2.35 0.05 Q2.45 0.05 2.6 0.15 L2.7 0.2 M1.7 1.55 L1.9 1.3 1.75 1.6 1.6 1.8 1.45 2.1 Q1.35 2.25 1.4 2.35 L1.5 2.35 Q1.75 2.3 1.95 2.15 L2.1 2.6 Q2.2 3.1 2.15 3.6 L2.05 3.9 1.85 3.55 1.65 3.15 1.6 3.1 1.6 3.05 1.55 3.0 1.4 2.45 1.4 2.5 1.35 2.5 1.4 2.55 1.4 2.65 Q1.5 3.0 1.55 3.2 L1.6 3.3 Q1.65 3.8 1.5 4.4 L1.45 4.6 1.45 4.75 1.4 4.75 1.3 4.45 1.3 4.4 1.25 4.4 1.15 4.1 1.15 4.0 1.1 3.85 1.0 3.6 0.95 3.35 0.85 2.8 0.8 2.8 0.85 3.0 0.8 2.95 Q0.75 3.1 0.9 3.7 L0.95 3.9 0.95 3.95 Q0.9 4.25 0.8 4.55 L0.8 4.55 0.8 4.4 0.85 4.05 Q0.85 3.5 0.6 2.8 0.75 3.55 0.75 3.95 0.75 4.3 0.65 4.6 0.6 4.9 0.45 5.2 0.4 4.95 0.35 4.65 0.35 4.4 0.4 4.05 L0.45 4.0 0.45 3.95 0.5 3.8 Q0.5 3.5 0.5 3.3 0.45 3.05 0.65 2.7 L0.9 2.3 1.0 2.15 Q1.2 2.1 1.55 1.75 L1.7 1.55" fill="#ffffff" fill-rule="evenodd" stroke="none"/>
      <path d="M2.2 -0.05 Q2.35 -0.15 2.55 -0.05 L2.8 0.15 3.3 0.4 Q3.65 0.6 3.7 0.7 L3.75 0.75 3.8 0.75 4.05 0.6 4.2 0.4 Q4.35 0.3 4.6 0.3 4.9 0.3 5.3 0.7 L6.05 1.5 Q7.1 2.65 7.1 2.85 L7.2 3.25 7.35 3.75 7.35 4.05 7.6 4.95 Q7.6 5.1 7.5 5.1 L7.45 5.05 7.45 5.3 Q7.4 5.95 7.25 5.95 7.0 5.95 6.8 5.45 L6.8 5.4 Q6.65 5.3 6.5 4.95 6.4 5.45 6.25 5.45 5.95 5.45 5.75 4.8 L5.65 4.3 Q5.55 4.6 5.4 4.6 L5.3 4.6 Q5.2 4.55 5.1 4.2 L5.0 3.75 5.05 3.15 5.05 3.1 4.95 3.25 Q4.7 3.6 4.5 3.65 L4.45 3.5 4.35 3.35 Q4.35 3.05 4.45 2.65 L4.5 2.6 Q4.25 2.85 4.1 2.85 4.05 2.8 4.05 2.6 L4.05 2.45 4.1 2.25 3.6 2.4 3.35 2.35 3.2 2.3 3.1 2.25 3.15 2.3 3.05 2.4 2.95 2.4 2.8 2.3 2.9 2.55 Q2.95 2.8 2.95 3.05 3.0 3.25 2.85 3.25 2.75 3.25 2.45 2.95 L2.3 2.8 2.35 3.05 2.25 4.05 2.15 4.2 Q2.0 4.2 1.8 3.95 L1.8 4.2 Q1.75 4.75 1.55 5.1 1.3 5.1 1.1 4.65 L1.05 4.4 0.95 4.75 Q0.65 5.5 0.45 5.5 0.25 5.5 0.2 5.15 L0.2 4.65 0.15 4.45 0.05 4.2 0.0 3.8 0.05 3.75 0.0 3.65 0.0 3.05 Q0.0 2.95 0.05 2.8 0.1 2.5 0.15 2.3 0.2 2.1 0.55 1.7 L1.0 1.1 1.5 0.5 Q1.65 0.35 1.75 0.25 1.8 0.15 1.95 0.1 L2.2 -0.05 M5.95 2.05 L6.4 2.6 6.75 3.1 6.9 3.3 7.0 3.55 7.05 3.75 7.05 4.0 7.1 4.25 7.2 4.45 7.15 4.3 7.15 4.05 7.05 3.45 7.05 3.35 6.9 2.95 Q6.75 2.65 6.55 2.4 L6.2 2.0 5.55 1.25 5.1 0.7 5.05 0.65 4.9 0.55 4.65 0.45 4.45 0.45 Q4.4 0.5 4.35 0.5 L4.25 0.6 4.7 0.8 Q5.2 1.1 5.5 1.5 L5.9 1.95 5.95 2.05 M5.9 2.15 L5.7 1.9 5.5 1.6 Q5.25 1.3 4.65 0.95 L4.35 0.8 4.3 0.75 Q4.25 0.75 4.15 0.85 L4.1 0.95 Q4.0 1.2 4.05 1.4 L4.05 1.45 4.1 1.55 4.1 1.6 4.35 1.95 4.4 1.95 Q4.4 1.85 4.4 1.7 L4.4 1.55 Q4.25 1.35 4.3 1.25 4.35 1.2 4.5 1.55 L4.7 1.9 5.1 2.3 5.25 2.4 5.75 2.7 5.65 2.5 5.4 2.1 5.4 2.05 Q5.05 1.65 5.0 1.45 L5.05 1.45 5.5 1.85 5.5 1.9 6.05 2.35 5.9 2.15 M5.9 2.9 L5.9 2.95 5.85 3.05 Q5.85 3.4 5.8 3.55 L5.8 3.65 Q5.8 4.05 5.95 4.5 L6.0 4.8 6.15 5.1 6.25 4.85 6.35 4.4 6.35 4.25 6.4 4.0 Q6.4 3.7 6.5 3.2 L6.5 3.3 Q6.55 3.45 6.55 3.9 L6.5 4.1 6.5 4.3 6.55 4.45 6.6 4.55 6.7 4.95 6.75 4.95 6.75 4.85 6.65 4.6 6.6 4.4 Q6.55 3.9 6.7 3.2 6.65 3.95 6.7 4.35 L6.8 4.75 6.85 4.9 6.85 5.0 7.05 5.4 7.2 5.6 Q7.2 5.35 7.2 5.05 L7.15 4.95 7.1 4.45 7.0 4.35 6.95 4.2 Q6.9 3.9 6.9 3.7 6.9 3.45 6.65 3.1 L6.35 2.7 6.25 2.55 Q6.0 2.5 5.6 2.1 L5.2 1.7 5.4 2.0 5.6 2.2 5.8 2.5 Q5.85 2.65 5.85 2.75 L5.75 2.75 Q5.5 2.7 5.25 2.55 L5.2 2.75 5.2 3.0 Q5.15 3.35 5.2 3.7 L5.4 4.3 5.5 4.05 5.6 3.95 5.65 3.75 5.7 3.65 5.7 3.55 5.75 3.5 5.75 3.35 5.85 2.85 5.9 2.9 M4.45 1.7 Q4.5 1.95 4.45 2.05 L4.3 2.05 4.25 2.0 Q4.15 1.95 4.05 1.8 L3.5 1.85 3.2 1.8 3.2 2.1 3.85 2.15 3.95 2.15 4.15 2.1 4.4 2.1 4.35 2.2 Q4.3 2.4 4.3 2.55 L4.3 2.65 4.65 2.3 4.7 2.2 4.7 2.15 4.75 2.15 4.75 2.1 4.8 2.1 4.65 2.0 4.45 1.65 4.45 1.7 M4.05 0.85 Q3.9 0.9 3.8 0.95 L3.9 1.1 3.9 1.15 4.0 0.95 4.05 0.8 4.05 0.85 M3.65 0.8 L3.65 0.8 M3.05 1.0 Q3.05 0.8 2.9 0.55 L2.85 0.45 Q2.75 0.35 2.65 0.4 L2.35 0.55 Q1.8 0.9 1.6 1.25 L1.4 1.5 1.25 1.75 1.15 1.95 2.05 1.05 2.1 1.05 Q2.05 1.25 1.8 1.65 L1.8 1.7 1.55 2.1 1.5 2.3 Q1.75 2.15 1.95 2.0 L2.45 1.5 2.6 1.15 Q2.7 0.8 2.75 0.85 2.8 0.95 2.7 1.15 L2.7 1.3 Q2.7 1.45 2.75 1.55 L2.8 1.55 Q3.0 1.2 3.05 1.0 M2.95 0.45 L3.0 0.55 Q3.2 0.9 3.15 1.05 3.15 1.1 3.05 1.4 3.0 1.6 2.85 1.65 L2.7 1.65 Q2.65 1.55 2.65 1.3 L2.65 1.25 2.45 1.6 2.4 1.75 2.05 2.1 2.0 2.1 2.15 2.3 2.75 3.0 Q2.75 2.75 2.65 2.45 L2.55 2.15 2.55 2.1 2.45 1.9 2.4 1.85 2.4 1.7 2.45 1.75 2.55 1.9 2.75 2.1 2.95 2.25 Q2.95 2.1 2.85 1.85 L2.8 1.85 2.75 1.7 3.0 1.7 3.1 1.75 3.3 1.75 4.0 1.7 3.95 1.65 3.95 1.6 3.9 1.45 Q3.85 1.25 3.75 1.1 L3.7 1.0 3.35 0.65 Q3.25 0.55 2.95 0.45 M3.05 1.85 L3.0 1.85 3.05 2.0 3.05 1.85 M5.2 2.5 L5.0 2.35 4.8 2.1 4.75 2.15 4.8 2.25 4.75 2.3 Q4.6 2.7 4.6 2.75 4.55 3.1 4.6 3.4 L5.1 2.7 5.2 2.5 M1.7 1.55 L1.55 1.75 Q1.2 2.1 1.0 2.15 L0.9 2.3 0.65 2.7 Q0.45 3.05 0.5 3.3 0.5 3.5 0.5 3.8 L0.45 3.95 0.45 4.0 0.4 4.05 Q0.35 4.4 0.35 4.65 0.4 4.95 0.45 5.2 0.6 4.9 0.65 4.6 0.75 4.3 0.75 3.95 0.75 3.55 0.6 2.8 0.85 3.5 0.85 4.05 L0.8 4.4 0.8 4.55 0.8 4.55 Q0.9 4.25 0.95 3.95 L0.95 3.9 0.9 3.7 Q0.75 3.1 0.8 2.95 L0.85 3.0 0.8 2.8 0.85 2.8 0.95 3.35 1.0 3.6 1.1 3.85 1.15 4.0 1.15 4.1 1.25 4.4 1.3 4.4 1.3 4.45 1.4 4.75 1.45 4.75 1.45 4.6 1.5 4.4 Q1.65 3.8 1.6 3.3 L1.55 3.2 Q1.5 3.0 1.4 2.65 L1.4 2.55 1.35 2.5 1.4 2.5 1.4 2.45 1.55 3.0 1.6 3.05 1.6 3.1 1.65 3.15 1.85 3.55 2.05 3.9 2.15 3.6 Q2.2 3.1 2.1 2.6 L1.95 2.15 Q1.75 2.3 1.5 2.35 L1.4 2.35 Q1.35 2.25 1.45 2.1 L1.6 1.8 1.75 1.6 1.9 1.3 1.7 1.55 M2.7 0.2 L2.6 0.15 Q2.45 0.05 2.35 0.05 L2.25 0.1 Q2.1 0.15 1.95 0.25 L1.9 0.25 1.5 0.85 0.95 1.6 0.65 2.0 0.5 2.25 Q0.4 2.4 0.35 2.55 L0.35 2.7 0.3 3.05 0.3 3.95 0.25 4.05 0.3 4.1 0.3 4.0 0.35 3.9 0.35 3.6 Q0.35 3.3 0.35 3.15 0.4 2.95 0.55 2.7 L0.8 2.2 Q0.95 1.95 1.2 1.65 L1.25 1.55 1.55 1.1 Q1.85 0.7 2.3 0.45 L2.7 0.25 2.7 0.2" fill="#111111" fill-rule="evenodd" stroke="none"/>
    </g>
  </defs>
</svg>
