<?xml version="1.0" encoding="UTF-8" standalone="no"?>
<svg xmlns:ffdec="https://www.free-decompiler.com/flash" xmlns:xlink="http://www.w3.org/1999/xlink" ffdec:objectType="frame" height="132.65px" width="131.25px" xmlns="http://www.w3.org/2000/svg">
  <g transform="matrix(1.0, 0.0, 0.0, 1.0, 62.3, 85.05)">
    <use ffdec:characterId="901" height="18.35" transform="matrix(7.0, 0.0, 0.0, 7.0, -62.3, -81.9)" width="18.6" xlink:href="#shape0"/>
  </g>
  <defs>
    <g id="shape0" transform="matrix(1.0, 0.0, 0.0, 1.0, 8.9, 11.7)">
      <path d="M3.0 -7.15 L3.45 -6.9 3.85 -6.6 4.0 -6.65 3.95 -6.65 4.55 -6.85 4.7 -6.85 Q4.8 -6.85 4.8 -6.8 L4.85 -6.7 Q4.85 -6.65 4.95 -6.6 L5.25 -6.4 5.55 -6.15 Q5.65 -6.05 5.75 -6.0 L5.85 -5.95 5.9 -5.75 5.95 -5.6 5.95 -5.55 5.9 -5.5 5.9 -5.45 5.8 -5.4 5.65 -5.35 Q5.55 -5.25 5.5 -5.3 L5.25 -5.3 5.15 -5.4 Q4.85 -5.4 4.6 -5.15 L4.3 -4.8 Q3.9 -4.35 3.85 -4.25 L3.9 -4.25 3.9 -4.2 4.0 -4.05 Q4.0 -4.0 3.6 -3.6 L3.55 -3.55 Q3.7 -3.2 4.0 -2.9 4.45 -2.5 5.05 -2.6 L5.15 -2.7 5.2 -2.7 5.3 -2.75 6.25 -2.65 6.35 -2.65 Q6.85 -2.75 7.2 -2.95 L7.75 -3.2 Q8.1 -3.35 8.1 -3.9 8.05 -3.95 8.05 -4.05 8.0 -4.15 8.3 -4.4 L8.55 -4.65 Q8.8 -4.8 9.2 -4.7 L9.65 -4.5 9.7 -4.45 9.7 -4.25 9.6 -4.2 8.95 -4.2 Q8.65 -4.2 8.55 -4.05 8.45 -4.0 8.5 -3.9 8.55 -3.75 8.45 -3.5 8.4 -3.45 8.35 -3.25 8.4 -3.15 8.1 -2.95 L8.05 -2.95 7.95 -2.9 7.7 -2.75 7.65 -2.75 7.5 -2.65 7.3 -2.5 7.25 -2.45 7.15 -2.4 7.0 -2.25 6.85 -2.25 6.35 -2.4 6.25 -2.4 5.75 -2.35 Q5.65 -2.35 5.55 -2.3 L5.65 -2.2 Q5.85 -2.05 5.95 -2.05 6.0 -2.1 6.15 -1.95 L6.3 -1.75 6.35 -1.55 Q6.5 -1.35 6.5 -1.15 L6.6 -0.9 Q6.65 -0.7 6.8 -0.4 L7.1 0.15 7.35 0.7 Q7.35 0.55 7.65 0.55 7.7 0.55 7.75 0.6 L7.8 0.6 7.85 0.7 7.8 0.8 7.75 0.85 7.7 0.85 7.6 0.95 7.55 0.95 Q7.5 1.0 7.45 0.95 L7.55 1.3 Q7.7 2.0 7.7 2.35 L7.7 2.45 Q7.7 2.55 7.65 2.65 L7.5 2.95 7.5 3.0 7.4 3.05 6.95 3.1 6.8 3.1 Q6.6 3.2 6.55 3.25 L6.0 3.65 Q5.8 3.8 5.75 3.9 L5.75 4.0 5.7 4.05 5.65 4.05 5.2 4.1 4.55 4.2 3.7 4.2 3.2 4.25 2.95 4.25 2.9 4.2 1.65 4.2 1.55 4.3 1.6 4.4 1.5 4.65 1.5 4.8 Q1.45 4.95 1.25 5.05 1.05 5.15 0.8 5.15 L0.15 5.1 0.2 5.15 0.05 5.1 0.0 5.1 -0.25 4.8 -0.3 4.7 -1.15 5.25 Q-1.65 5.6 -1.9 5.9 -2.1 6.15 -2.15 6.5 L-2.2 6.6 -3.05 6.6 -3.15 6.65 -3.25 6.6 -3.3 6.6 -3.35 6.5 -3.4 6.2 -3.4 6.15 Q-3.45 6.05 -3.5 5.95 L-3.5 5.9 -3.75 5.6 -3.75 5.55 Q-3.85 5.55 -3.9 5.5 L-3.95 5.5 -4.0 5.45 Q-4.1 5.45 -4.1 5.3 L-4.1 5.2 -4.05 5.2 -4.05 5.15 -3.95 4.95 Q-3.8 4.65 -3.8 4.55 L-4.1 4.4 -4.05 4.4 -4.2 4.35 -4.9 4.4 -5.15 4.5 -5.35 4.5 -5.7 4.15 -5.95 3.8 Q-6.05 3.65 -6.05 3.45 -6.15 3.3 -6.35 3.2 -6.5 3.25 -6.5 3.0 -6.5 2.8 -5.95 2.3 -5.4 1.8 -5.2 1.8 L-5.0 1.75 -4.85 1.65 -4.8 1.5 -4.75 1.4 Q-4.8 0.95 -4.95 0.65 -5.15 0.35 -5.45 0.15 L-5.85 -0.15 -5.85 -0.1 Q-6.1 -0.3 -6.3 -0.4 L-6.85 -0.6 Q-7.4 -0.8 -7.4 -1.0 L-7.3 -1.2 -7.25 -1.35 -7.35 -1.7 Q-7.5 -2.15 -7.5 -2.4 -7.5 -2.8 -7.25 -3.2 L-6.65 -3.9 Q-6.6 -3.95 -6.55 -4.0 L-6.35 -3.9 -6.3 -3.85 -5.8 -3.65 Q-5.5 -3.5 -5.15 -3.4 L-4.65 -3.4 -3.75 -3.7 -3.7 -3.75 -3.75 -3.85 -3.75 -3.95 -3.7 -4.0 -3.45 -4.05 Q-3.35 -4.05 -3.35 -4.0 L-3.25 -4.1 -2.7 -4.15 Q-2.5 -4.25 -2.35 -4.5 L-2.35 -4.45 -2.3 -4.55 Q-2.25 -5.0 -2.3 -5.25 L-2.3 -5.35 -2.25 -5.4 -2.15 -5.45 -2.05 -5.45 Q-1.6 -5.45 -1.05 -5.95 L-0.75 -6.25 -0.8 -6.3 -0.95 -6.4 -1.25 -6.4 -1.35 -6.45 -1.4 -6.45 Q-1.55 -6.55 -1.6 -6.7 L-1.65 -6.9 Q-1.7 -7.15 -1.7 -7.25 -1.7 -7.45 -1.6 -7.9 -1.55 -9.0 -0.7 -9.35 L-0.65 -9.45 Q-0.65 -9.8 -1.05 -10.45 L-1.15 -10.55 -1.15 -10.6 -1.2 -10.65 Q-1.25 -10.75 -1.5 -10.95 -1.7 -11.2 -1.85 -11.2 -2.05 -11.2 -2.2 -11.1 -2.25 -11.0 -2.3 -10.95 L-2.35 -10.9 -2.5 -10.9 -2.65 -10.75 -2.7 -10.5 -2.75 -10.45 -2.85 -10.4 Q-2.9 -10.4 -2.95 -10.45 L-3.0 -10.55 -3.0 -10.8 Q-3.0 -11.0 -2.65 -11.15 L-2.5 -11.3 -2.5 -11.4 -2.45 -11.45 -2.35 -11.6 -2.25 -11.65 Q-1.8 -11.8 -1.45 -11.5 -1.3 -11.4 -1.05 -11.05 L-0.95 -10.9 -0.85 -10.8 Q-0.4 -10.55 -0.2 -10.2 L-0.1 -9.85 0.0 -9.6 0.0 -9.5 Q0.0 -9.45 -0.05 -9.4 L-0.1 -9.4 Q-0.1 -9.35 -0.15 -9.35 L-0.2 -9.35 -0.3 -9.2 -0.3 -9.15 -0.35 -9.1 Q-0.45 -9.0 -0.55 -9.05 L-0.85 -8.85 Q-1.0 -8.65 -1.15 -8.25 L-1.25 -7.95 -1.25 -7.5 -1.15 -7.5 -1.05 -7.4 -0.9 -6.9 Q-0.8 -6.7 -0.45 -6.55 0.15 -7.0 1.1 -7.65 L1.45 -7.9 Q1.75 -8.1 1.9 -8.05 L1.95 -8.0 2.6 -7.45 3.0 -7.15 M4.75 -6.35 L4.6 -6.5 4.15 -6.4 4.25 -6.3 4.25 -6.2 4.2 -6.15 Q3.8 -5.9 3.6 -5.2 3.5 -4.9 3.5 -4.6 L3.5 -4.5 3.45 -4.3 3.45 -3.9 3.55 -3.95 3.65 -4.05 3.55 -4.15 Q3.55 -4.2 3.55 -4.25 3.55 -4.45 4.1 -5.1 4.7 -5.75 4.95 -5.7 L5.35 -5.65 5.45 -5.65 5.55 -5.7 5.5 -5.75 5.0 -6.2 4.75 -6.35 M3.0 -5.05 L2.75 -5.6 Q2.6 -5.95 2.4 -6.1 2.15 -6.4 1.75 -6.5 L0.5 -6.4 Q0.4 -6.25 0.15 -6.2 L-0.05 -6.1 Q-0.15 -6.05 -0.15 -5.95 L-0.2 -5.9 Q-0.2 -5.85 -0.25 -5.85 -1.0 -5.65 -1.5 -5.0 -1.75 -4.75 -2.05 -4.15 L-2.05 -4.1 Q-2.05 -4.05 -2.1 -3.95 L-1.95 -3.8 -1.85 -3.65 Q-1.7 -3.55 -1.65 -3.4 L-1.65 -3.2 -1.55 -2.85 -1.25 -2.45 Q-1.2 -2.4 -0.85 -2.35 L-0.3 -2.2 -0.25 -2.2 Q-0.15 -2.15 -0.05 -1.95 L0.1 -1.8 Q0.15 -1.8 0.3 -1.6 0.4 -1.4 0.35 -1.35 0.4 -1.2 0.25 -1.05 L0.2 -0.95 0.15 -0.9 0.1 -0.9 -0.15 -0.65 -0.65 -0.2 -0.65 -0.25 -0.7 -0.2 Q-0.5 -0.25 -0.3 -0.3 L-0.2 -0.2 Q-0.15 -0.1 -0.2 -0.05 L0.0 0.05 0.2 0.2 0.3 0.25 0.3 0.5 Q1.15 -0.1 1.2 -0.05 2.95 -0.05 3.55 0.1 L4.0 0.2 4.15 0.2 4.4 -0.05 4.85 -0.95 5.0 -1.2 5.05 -1.4 Q5.0 -1.55 4.85 -1.7 L4.55 -1.95 Q4.35 -2.1 4.05 -2.3 L3.25 -3.1 3.25 -3.15 Q2.85 -3.6 2.9 -3.65 2.9 -3.7 2.95 -3.95 L3.05 -4.15 3.05 -4.2 3.1 -4.7 3.1 -4.75 3.0 -5.05 M5.35 -1.05 Q5.35 -0.95 5.4 -0.75 L5.45 -0.5 5.5 -0.5 Q5.5 -0.4 5.35 -0.1 L5.05 0.5 Q5.05 0.6 4.75 0.65 L4.55 0.75 4.35 0.75 Q4.25 0.75 4.25 0.7 4.15 0.65 4.2 0.6 L4.05 0.55 3.95 0.6 3.8 0.6 Q3.75 0.5 3.65 0.5 L3.3 0.45 3.05 0.4 Q2.1 0.4 1.4 0.65 0.7 0.95 0.35 1.4 L0.35 1.45 0.25 1.5 Q-0.15 1.5 -0.35 1.6 L-0.5 1.75 -0.55 1.75 -0.7 2.05 -0.75 2.1 -0.75 2.2 Q-0.85 2.3 -0.95 2.5 L-1.1 2.85 Q-1.15 2.95 -1.5 3.15 L-1.95 3.4 -2.05 3.4 -2.35 3.35 -2.4 3.35 -2.45 3.4 -2.6 3.35 -2.65 3.35 -2.65 3.3 Q-2.9 3.3 -3.1 3.45 -2.4 4.1 -0.95 4.2 0.0 4.0 1.35 3.75 L1.6 3.75 2.0 3.4 2.45 3.05 Q2.75 2.8 3.1 2.75 L3.4 2.8 Q3.45 2.8 3.5 2.8 3.6 2.9 3.65 3.15 3.65 3.25 3.7 3.3 L3.9 3.5 4.15 3.7 Q4.8 3.5 5.35 3.15 6.3 2.55 7.25 2.4 7.25 2.25 7.15 1.95 L7.15 2.0 6.95 1.45 Q6.6 0.65 6.3 0.7 L6.25 0.7 6.15 0.65 6.15 0.55 6.2 -0.95 6.15 -1.0 6.1 -1.15 6.0 -1.3 5.85 -1.55 5.65 -1.7 Q5.5 -1.6 5.4 -1.4 L5.45 -1.45 5.35 -1.3 5.35 -1.05 M7.85 -0.25 Q7.85 -0.35 8.0 -0.4 L8.1 -0.4 Q8.25 -0.4 8.35 -0.3 L8.45 -0.3 8.65 -0.1 Q8.75 -0.05 8.75 0.1 8.7 0.55 8.6 0.6 L8.55 0.65 8.45 0.65 8.3 0.7 8.15 0.65 Q8.1 0.75 8.0 0.7 L7.95 0.7 7.9 0.6 Q7.85 0.55 7.9 0.5 L8.05 0.3 8.1 0.25 8.2 0.25 8.3 0.35 8.35 0.3 8.4 0.2 8.3 0.15 8.25 0.1 Q8.2 0.05 8.2 0.0 L8.2 -0.05 7.95 -0.1 7.9 -0.15 7.85 -0.25 M6.45 3.45 Q6.45 3.4 6.45 3.35 L6.5 3.35 Q6.55 3.3 6.6 3.3 L6.7 3.35 6.75 3.4 Q6.8 3.5 6.75 3.65 L6.7 3.7 6.65 3.7 6.65 3.95 6.6 4.1 6.5 4.25 6.55 4.3 6.75 4.3 Q6.8 4.3 6.8 4.4 L6.8 4.55 6.75 4.65 6.8 4.75 Q6.8 4.85 6.75 4.9 6.65 5.0 6.5 5.0 L6.4 5.0 6.4 5.1 Q6.4 5.25 6.3 5.4 L6.1 5.55 6.0 5.6 5.85 5.6 5.8 5.65 5.75 5.65 4.95 5.7 4.85 5.65 4.8 5.55 4.8 5.4 Q4.8 5.35 4.85 5.3 L5.85 5.3 6.05 5.1 Q6.05 4.9 6.1 4.85 6.15 4.85 6.2 4.85 L6.2 4.8 6.25 4.85 Q6.25 4.75 6.3 4.7 L6.35 4.7 Q6.25 4.6 6.15 4.45 6.05 4.3 6.05 4.15 L6.2 3.9 Q6.3 3.7 6.45 3.65 L6.45 3.45 M3.95 0.4 L4.0 0.3 3.95 0.3 3.95 0.4 M4.2 0.6 L4.2 0.6 M3.3 3.25 L3.3 3.05 3.2 3.05 Q3.0 3.05 2.55 3.4 L2.15 3.75 2.85 3.75 2.95 3.8 3.7 3.8 Q3.5 3.7 3.4 3.55 3.35 3.45 3.3 3.25 M1.2 4.3 Q0.5 4.4 0.0 4.6 L0.05 4.7 Q0.15 4.8 0.25 4.8 L1.0 4.8 1.05 4.75 1.1 4.75 Q1.1 4.7 1.15 4.7 1.15 4.6 1.2 4.5 L1.2 4.45 1.25 4.45 Q1.2 4.4 1.2 4.3 M4.55 5.1 L4.65 5.1 Q4.75 5.15 4.8 5.25 L4.8 5.4 4.7 5.5 4.6 5.5 4.45 5.4 Q4.3 5.45 4.05 5.55 3.85 5.4 3.85 5.35 L3.85 5.3 3.75 5.3 3.6 5.05 3.55 4.95 3.65 4.85 Q3.7 4.8 3.75 4.8 3.8 4.8 3.85 4.85 L4.05 5.05 4.1 5.05 4.1 5.0 4.25 5.0 Q4.45 5.0 4.55 5.1 M-6.05 -1.85 Q-6.0 -1.7 -5.85 -1.35 L-5.85 -1.3 -5.9 -1.2 -5.95 -1.15 -6.0 -1.15 -6.0 -1.1 Q-6.0 -0.85 -5.75 -0.6 -5.5 -0.35 -5.15 -0.1 -4.85 0.1 -4.65 0.45 -4.55 0.55 -4.45 0.7 L-4.15 1.35 -4.2 1.35 Q-4.1 1.5 -4.05 1.7 L-4.0 1.65 -3.7 1.2 -3.25 0.75 Q-2.9 0.45 -2.25 0.4 -1.75 0.25 -1.4 0.0 L-1.0 -0.4 -0.95 -0.4 -0.95 -0.45 -0.4 -0.85 -0.1 -1.2 -0.05 -1.25 Q-0.1 -1.4 -0.45 -1.6 L-1.05 -1.85 -1.25 -1.9 -1.4 -1.95 Q-1.45 -1.9 -1.5 -1.9 L-1.6 -1.95 Q-1.7 -2.05 -1.7 -2.25 L-1.75 -2.45 -1.85 -2.65 -2.0 -2.9 -2.3 -3.45 -2.55 -3.7 -2.6 -3.8 Q-3.2 -3.75 -3.5 -3.4 L-3.55 -3.4 -4.45 -3.1 -4.6 -3.0 -4.7 -3.0 -4.75 -2.95 -4.85 -2.95 -4.95 -3.0 -5.0 -3.0 -5.35 -3.05 Q-6.1 -3.0 -6.1 -2.25 L-6.05 -1.85 M-0.45 -6.55 L-0.45 -6.55 M-4.0 -6.2 L-3.9 -6.2 -3.75 -6.05 Q-3.6 -5.95 -3.75 -5.85 -3.75 -5.8 -3.9 -5.8 -3.95 -5.75 -4.05 -5.9 L-4.05 -5.8 Q-4.05 -5.75 -4.15 -5.7 L-4.6 -5.7 -4.6 -5.75 -4.65 -5.85 -4.9 -5.6 -4.85 -5.5 -4.8 -5.45 Q-4.8 -5.4 -4.8 -5.35 -4.85 -5.3 -4.9 -5.3 L-4.9 -5.25 -4.85 -5.2 -4.8 -5.1 Q-4.8 -5.05 -4.8 -5.0 -4.85 -4.95 -4.9 -4.95 L-5.1 -4.95 -5.15 -5.0 Q-5.2 -5.0 -5.2 -5.15 -5.2 -5.25 -5.15 -5.3 L-5.1 -5.35 -5.25 -5.5 -5.3 -5.6 -5.25 -5.7 -5.05 -5.95 Q-4.95 -6.15 -4.75 -6.2 L-4.5 -6.2 Q-4.45 -6.2 -4.4 -6.15 L-4.4 -6.1 -4.35 -6.05 -4.25 -6.05 -4.2 -6.0 -4.15 -6.0 -4.15 -6.1 -4.1 -6.2 -4.0 -6.2 M-4.9 -3.2 L-4.9 -3.3 -5.05 -3.2 -4.95 -3.05 -4.9 -3.2 M-0.1 0.4 L-0.45 0.1 Q-0.65 0.1 -0.9 0.25 L-1.1 0.35 Q-1.45 0.85 -1.65 0.85 L-1.8 0.75 -2.05 0.75 -2.4 0.8 Q-2.7 0.85 -2.9 0.95 L-3.1 1.3 Q-3.3 1.8 -3.4 1.75 L-3.7 2.1 -3.85 2.2 -3.85 2.25 -3.45 3.05 -3.3 3.25 Q-3.0 2.95 -2.85 2.95 L-2.65 3.0 -2.55 3.05 -2.5 3.0 -2.45 3.0 Q-2.15 2.95 -1.95 2.85 L-1.45 2.5 -1.2 2.25 Q-1.15 2.1 -1.05 2.05 L-0.8 1.55 -0.75 1.5 -0.8 1.45 -0.9 1.4 -0.9 1.25 -0.8 1.2 0.05 0.65 0.0 0.55 Q-0.05 0.45 -0.1 0.4 M-5.2 2.15 L-5.25 2.15 Q-5.45 2.2 -6.05 2.95 -5.9 3.1 -5.8 3.3 L-5.7 3.55 -5.65 3.6 -5.25 4.15 -5.0 4.1 -5.05 4.1 -4.8 4.0 -4.75 4.0 -3.85 4.05 -3.8 4.15 -3.75 4.2 -3.75 3.85 -3.8 3.8 -3.85 3.7 -3.9 3.65 -3.9 3.6 -4.0 3.45 -4.05 3.35 -4.1 3.2 -4.45 2.8 -4.6 2.65 Q-4.8 2.5 -4.75 2.25 L-4.75 2.05 Q-4.85 2.2 -5.0 2.15 L-5.2 2.15 M-7.8 0.85 Q-7.75 0.85 -7.75 0.9 L-7.8 1.0 -7.85 1.05 -8.0 1.05 -8.15 1.1 -8.25 1.1 -8.3 1.2 -8.2 1.35 Q-8.2 1.55 -8.35 1.65 -8.5 1.75 -8.5 1.8 L-8.5 1.95 Q-8.4 1.95 -8.25 2.05 L-8.1 2.25 -8.05 2.2 -7.95 2.15 -7.75 2.15 -7.7 2.05 -7.65 2.0 -7.6 2.0 Q-7.45 2.05 -7.4 2.1 -7.35 2.1 -7.35 2.2 -7.35 2.25 -7.4 2.3 L-7.45 2.35 -7.65 2.35 Q-7.7 2.55 -8.2 2.6 L-8.4 2.5 -8.45 2.35 Q-8.65 2.4 -8.8 2.2 -8.9 2.05 -8.9 1.85 -8.9 1.75 -8.8 1.6 -8.7 1.45 -8.7 1.25 L-8.65 1.2 -8.7 1.2 -8.65 1.15 Q-8.6 1.0 -8.55 0.9 L-8.45 0.85 -8.3 0.85 -8.25 0.9 -8.2 0.85 -8.2 0.8 -8.15 0.75 -8.15 0.7 Q-8.1 0.7 -8.05 0.7 L-7.95 0.7 Q-7.9 0.7 -7.85 0.7 -7.8 0.75 -7.8 0.8 L-7.8 0.85 M-8.0 2.4 L-8.2 2.4 -8.1 2.45 -8.0 2.4 M-8.25 2.4 L-8.25 2.4" fill="#437edb" fill-opacity="0.6" fill-rule="evenodd" stroke="none"/>
      <path d="M1.85 -7.9 L2.5 -7.35 Q2.6 -7.3 2.95 -7.05 L3.4 -6.75 3.75 -6.5 3.85 -6.45 4.05 -6.55 4.55 -6.7 4.7 -6.7 Q4.7 -6.6 4.9 -6.5 L5.2 -6.3 5.45 -6.05 Q5.55 -5.9 5.7 -5.85 L5.75 -5.75 5.8 -5.6 5.8 -5.55 5.55 -5.5 5.5 -5.45 5.3 -5.45 5.25 -5.5 Q5.25 -5.55 5.2 -5.55 4.8 -5.55 4.5 -5.25 L4.2 -4.9 Q3.75 -4.4 3.75 -4.25 L3.85 -4.05 3.5 -3.7 3.4 -3.55 3.4 -3.5 Q3.55 -3.1 3.9 -2.8 4.45 -2.35 5.15 -2.45 L5.15 -2.5 5.25 -2.55 5.3 -2.6 6.25 -2.55 5.75 -2.5 Q5.6 -2.5 5.45 -2.4 L5.35 -2.3 Q5.4 -2.2 5.55 -2.1 5.8 -1.9 5.95 -1.9 L6.05 -1.85 6.2 -1.65 6.2 -1.5 Q6.35 -1.3 6.35 -1.15 L6.35 -1.1 6.45 -0.85 Q6.5 -0.65 6.7 -0.3 L7.0 0.2 Q7.2 0.6 7.4 1.35 7.55 2.0 7.55 2.35 L7.55 2.45 7.5 2.6 Q7.5 2.7 7.4 2.75 L7.4 2.9 6.95 2.95 6.75 3.0 6.45 3.1 5.9 3.5 Q5.6 3.75 5.65 3.9 L5.2 3.95 4.55 4.05 3.65 4.05 3.2 4.1 3.0 4.1 2.9 4.05 1.9 4.05 1.55 4.1 1.4 4.3 1.45 4.4 1.35 4.6 1.35 4.8 Q1.3 4.85 1.2 4.95 L0.8 5.0 0.25 5.0 0.1 4.95 -0.15 4.75 -0.15 4.65 Q-0.2 4.55 -0.25 4.55 L-0.35 4.55 -1.25 5.15 Q-1.75 5.5 -2.0 5.8 -2.25 6.1 -2.3 6.5 L-2.75 6.45 -2.95 6.45 -3.15 6.5 -3.2 6.5 -3.25 6.15 Q-3.3 5.95 -3.4 5.85 L-3.65 5.5 -3.7 5.4 -3.75 5.4 -3.8 5.35 -3.95 5.35 -3.95 5.25 -3.8 5.0 Q-3.65 4.7 -3.65 4.5 L-3.65 4.4 -3.85 4.35 -4.0 4.3 -4.2 4.2 -4.95 4.25 -5.2 4.35 -5.35 4.35 -5.85 3.75 Q-5.9 3.6 -5.95 3.4 -6.0 3.2 -6.3 3.1 L-6.35 3.05 -6.35 3.0 Q-6.35 2.85 -5.85 2.4 -5.35 1.95 -5.2 1.95 L-5.15 1.95 Q-5.1 1.9 -5.0 1.9 -4.8 1.85 -4.75 1.75 L-4.6 1.45 Q-4.65 0.9 -4.8 0.55 -5.05 0.25 -5.4 0.05 L-5.8 -0.25 Q-6.05 -0.45 -6.25 -0.55 L-6.85 -0.75 Q-7.25 -0.85 -7.25 -1.0 L-7.15 -1.15 Q-7.1 -1.3 -7.1 -1.35 L-7.25 -1.75 Q-7.4 -2.15 -7.4 -2.4 -7.4 -2.75 -7.15 -3.1 L-6.55 -3.85 -6.4 -3.75 -6.35 -3.75 -5.85 -3.5 Q-5.55 -3.35 -5.2 -3.25 L-4.6 -3.25 -3.7 -3.6 -3.6 -3.65 Q-3.5 -3.7 -3.5 -3.75 -3.5 -3.8 -3.55 -3.85 L-3.65 -3.9 -3.4 -3.9 -3.2 -3.95 -2.65 -4.0 Q-2.4 -4.1 -2.25 -4.4 L-2.15 -4.5 -2.15 -4.55 Q-2.1 -5.0 -2.15 -5.3 L-2.05 -5.3 Q-1.6 -5.3 -0.95 -5.85 -0.7 -6.05 -0.5 -6.3 L-0.6 -6.3 -0.7 -6.4 Q-0.85 -6.45 -0.95 -6.55 L-1.25 -6.55 -1.35 -6.6 -1.45 -6.75 -1.5 -6.9 -1.55 -7.25 Q-1.55 -7.45 -1.45 -7.85 -1.4 -8.9 -0.6 -9.25 -0.5 -9.35 -0.5 -9.45 -0.5 -9.85 -0.95 -10.55 L-1.05 -10.7 -1.1 -10.7 Q-1.15 -10.85 -1.4 -11.05 -1.65 -11.35 -1.85 -11.35 -2.1 -11.35 -2.3 -11.25 L-2.3 -11.2 -2.35 -11.15 -2.4 -11.05 -2.5 -11.0 -2.65 -11.0 Q-2.75 -10.95 -2.8 -10.8 L-2.85 -10.55 -2.85 -10.75 Q-2.85 -10.9 -2.6 -11.05 L-2.45 -11.15 Q-2.4 -11.2 -2.35 -11.25 L-2.35 -11.3 -2.2 -11.5 Q-1.85 -11.6 -1.55 -11.4 -1.4 -11.3 -1.2 -10.95 L-1.05 -10.8 Q-1.0 -10.7 -0.95 -10.7 -0.5 -10.45 -0.35 -10.15 L-0.2 -9.85 -0.15 -9.6 -0.15 -9.5 Q-0.2 -9.5 -0.2 -9.55 -0.35 -9.45 -0.45 -9.25 L-0.45 -9.2 Q-0.5 -9.15 -0.5 -9.2 L-0.55 -9.2 -0.95 -8.9 Q-1.15 -8.7 -1.3 -8.3 L-1.4 -7.95 -1.4 -7.75 -1.35 -7.4 -1.2 -7.35 -1.05 -6.85 Q-0.9 -6.55 -0.45 -6.4 L-0.4 -6.4 1.2 -7.55 1.5 -7.8 Q1.75 -7.95 1.85 -7.9 M4.7 -6.7 Q4.3 -6.6 4.05 -6.5 L3.85 -6.4 4.1 -6.25 Q3.7 -6.0 3.5 -5.25 3.4 -4.9 3.35 -4.6 L3.35 -4.5 3.3 -4.3 3.3 -4.15 Q3.3 -3.85 3.4 -3.55 3.5 -3.75 3.6 -3.85 3.8 -4.0 3.8 -4.05 L3.7 -4.25 Q3.7 -4.4 4.2 -5.0 4.75 -5.6 4.95 -5.6 L5.3 -5.55 5.35 -5.5 Q5.45 -5.45 5.55 -5.55 5.6 -5.6 5.75 -5.6 L5.7 -5.8 5.6 -5.85 5.1 -6.3 4.85 -6.5 Q4.65 -6.6 4.7 -6.7 M3.25 -4.5 L3.3 -4.6 Q3.25 -4.8 3.15 -5.1 L2.9 -5.65 Q2.7 -6.05 2.5 -6.2 2.2 -6.55 1.75 -6.65 L0.45 -6.5 Q0.35 -6.4 0.15 -6.35 0.0 -6.3 -0.1 -6.25 -0.3 -6.1 -0.3 -5.95 -1.05 -5.8 -1.6 -5.1 -1.85 -4.85 -2.2 -4.2 L-2.2 -4.1 Q-2.2 -4.0 -2.35 -3.95 L-2.25 -3.9 Q-2.1 -3.85 -2.05 -3.75 L-1.95 -3.55 Q-1.8 -3.5 -1.8 -3.35 L-1.8 -3.15 Q-1.75 -2.9 -1.65 -2.75 L-1.4 -2.35 Q-1.3 -2.3 -0.85 -2.2 L-0.35 -2.1 Q-0.25 -2.0 -0.15 -1.9 L0.0 -1.7 0.15 -1.55 0.25 -1.35 Q0.25 -1.25 0.15 -1.1 L0.05 -1.0 0.05 -1.05 -0.2 -0.8 -0.75 -0.35 -0.85 -0.25 -1.15 0.2 -0.9 0.05 Q-0.55 -0.1 -0.3 -0.15 L-0.3 -0.1 -0.35 -0.05 Q-0.35 0.0 -0.1 0.2 L0.2 0.35 Q0.15 0.4 0.15 0.5 L0.2 0.6 0.25 0.65 0.3 0.65 1.2 0.1 Q2.95 0.1 3.55 0.25 L3.95 0.3 4.15 0.35 Q4.35 0.3 4.5 0.0 4.65 -0.2 4.75 -0.4 L5.0 -0.85 5.15 -1.2 5.2 -1.4 Q5.15 -1.6 4.95 -1.8 L4.65 -2.1 Q4.4 -2.2 4.15 -2.4 L3.35 -3.2 3.05 -3.65 3.1 -3.95 3.2 -4.15 3.25 -4.7 3.25 -4.5 M0.05 -1.25 Q0.05 -1.45 -0.4 -1.7 L-1.0 -2.0 -1.05 -2.0 -1.2 -2.05 -1.45 -2.05 -1.45 -2.1 -1.5 -2.05 Q-1.55 -2.1 -1.55 -2.25 -1.55 -2.45 -1.6 -2.5 L-1.7 -2.75 -1.85 -3.0 -2.2 -3.55 -2.45 -3.8 -2.55 -3.95 Q-3.25 -3.9 -3.6 -3.5 -3.95 -3.4 -4.5 -3.2 L-4.75 -3.15 -4.7 -3.15 -4.75 -3.1 -4.8 -3.1 -4.95 -3.15 -5.35 -3.2 Q-6.2 -3.15 -6.2 -2.25 L-6.2 -1.8 -6.0 -1.3 -6.15 -1.3 -6.15 -1.1 Q-6.15 -0.85 -5.85 -0.5 -5.6 -0.2 -5.25 0.0 -4.95 0.2 -4.75 0.55 L-4.6 0.75 -4.3 1.45 Q-4.2 1.6 -4.15 1.9 L-4.05 2.1 -3.85 1.7 -3.6 1.3 -3.15 0.85 Q-2.85 0.6 -2.2 0.55 -1.7 0.35 -1.3 0.1 L-0.9 -0.3 -0.85 -0.3 -0.3 -0.75 0.05 -1.1 0.05 -1.25 M5.2 -1.25 L5.2 -1.05 Q5.2 -0.9 5.25 -0.7 L5.35 -0.5 Q5.35 -0.4 5.2 -0.15 L5.05 0.15 4.95 0.45 Q4.9 0.45 4.7 0.55 4.45 0.6 4.45 0.65 L4.35 0.6 4.35 0.55 4.3 0.5 4.3 0.45 4.05 0.4 3.9 0.45 Q3.8 0.4 3.7 0.35 L3.3 0.3 3.05 0.25 Q2.1 0.25 1.35 0.55 0.6 0.8 0.25 1.35 -0.2 1.4 -0.4 1.5 L-0.55 1.55 -0.6 1.65 -0.65 1.65 Q-0.7 1.8 -0.8 2.0 L-0.9 2.1 Q-1.0 2.2 -1.1 2.45 L-1.2 2.8 Q-1.25 2.9 -1.55 3.05 L-2.05 3.25 -2.35 3.2 -2.45 3.25 -2.55 3.2 -2.65 3.2 Q-3.05 3.2 -3.3 3.45 -2.6 4.2 -1.0 4.35 0.0 4.1 1.35 3.9 L1.7 3.9 1.7 3.85 2.1 3.5 2.55 3.15 Q2.85 2.95 3.1 2.85 L3.4 2.9 Q3.45 3.0 3.5 3.15 3.55 3.35 3.55 3.4 L3.85 3.6 4.1 3.8 4.15 3.8 Q4.85 3.65 5.4 3.25 6.4 2.65 7.35 2.55 L7.4 2.5 7.4 2.45 Q7.4 2.25 7.3 1.9 L7.05 1.4 Q6.7 0.5 6.3 0.55 L6.3 -1.05 6.2 -1.2 6.15 -1.35 Q6.05 -1.55 5.95 -1.65 L5.7 -1.85 Q5.45 -1.75 5.3 -1.5 L5.25 -1.3 5.2 -1.25 M8.95 -4.35 Q8.6 -4.3 8.45 -4.15 8.3 -4.05 8.35 -3.9 8.4 -3.75 8.3 -3.6 8.25 -3.5 8.25 -3.3 8.2 -3.2 7.95 -3.05 L8.0 -3.05 7.85 -3.0 7.6 -2.85 7.45 -2.75 7.45 -2.8 7.15 -2.55 7.15 -2.6 6.95 -2.4 6.95 -2.45 6.9 -2.4 6.4 -2.55 Q6.9 -2.65 7.25 -2.8 7.5 -2.9 7.8 -3.1 8.25 -3.25 8.25 -3.9 L8.2 -4.0 8.2 -4.05 Q8.2 -4.1 8.4 -4.3 L8.65 -4.5 9.15 -4.55 9.55 -4.35 8.95 -4.35 M8.25 -0.2 L8.2 -0.2 8.0 -0.25 8.05 -0.25 Q8.2 -0.25 8.25 -0.2 M8.45 -0.15 L8.45 0.0 8.55 0.0 8.6 0.1 Q8.6 0.45 8.5 0.5 L8.35 0.5 8.3 0.55 Q8.2 0.55 8.2 0.5 L8.1 0.5 Q8.05 0.5 8.05 0.55 L8.0 0.55 8.15 0.4 Q8.2 0.4 8.2 0.5 8.45 0.5 8.5 0.35 L8.55 0.05 8.4 0.05 8.35 0.0 8.4 -0.15 8.45 -0.15 M7.65 0.7 L7.7 0.7 7.65 0.75 7.5 0.8 Q7.5 0.85 7.5 0.75 7.5 0.7 7.65 0.7 M6.55 3.45 L6.6 3.45 Q6.65 3.5 6.6 3.6 L6.55 3.6 6.55 3.45 M6.3 4.4 L6.35 4.45 6.6 4.45 6.65 4.5 6.65 4.6 6.6 4.65 Q6.55 4.6 6.55 4.55 L6.45 4.55 Q6.4 4.55 6.25 4.4 L6.3 4.4 M6.35 4.15 L6.25 4.25 6.2 4.25 6.2 4.15 6.25 4.15 6.4 4.05 6.35 3.9 Q6.35 3.85 6.55 3.75 L6.45 3.85 Q6.45 3.9 6.45 4.05 6.45 4.1 6.35 4.15 M6.35 4.85 Q6.3 4.85 6.4 4.8 L6.5 4.75 6.55 4.8 Q6.65 4.7 6.6 4.8 L6.55 4.8 6.5 4.85 6.35 4.85 M6.25 5.1 Q6.25 5.2 6.2 5.25 L5.95 5.5 5.75 5.5 4.95 5.55 4.95 5.45 5.95 5.45 Q6.0 5.3 6.2 5.2 6.2 5.0 6.2 4.95 6.25 5.0 6.25 5.1 M3.95 0.4 L3.95 0.4 M3.2 2.9 Q2.95 2.9 2.5 3.25 L2.05 3.65 1.8 3.85 1.75 3.9 2.85 3.9 2.95 3.95 3.6 3.95 4.05 3.85 Q3.95 3.75 3.8 3.65 L3.55 3.45 Q3.5 3.35 3.45 3.2 L3.4 2.95 3.2 2.9 M0.15 0.5 Q0.1 0.4 0.0 0.3 L-0.4 -0.1 Q-0.65 -0.05 -0.95 0.1 L-1.2 0.25 Q-1.5 0.7 -1.65 0.7 L-1.75 0.6 -2.1 0.6 -2.4 0.65 Q-2.8 0.75 -3.05 0.85 L-3.2 1.25 -3.4 1.65 -3.8 2.0 -3.95 2.15 -4.0 2.25 -4.0 2.3 -3.55 3.1 -3.3 3.45 -3.3 3.4 Q-3.0 3.1 -2.85 3.1 L-2.55 3.2 -2.5 3.15 -2.45 3.15 Q-2.1 3.1 -1.9 2.95 L-1.4 2.6 -1.1 2.3 Q-1.05 2.2 -0.95 2.15 L-0.85 2.0 -0.7 1.65 -0.65 1.6 -0.6 1.45 -0.6 1.35 -0.75 1.3 0.2 0.7 Q0.15 0.6 0.15 0.5 M1.3 4.3 Q1.3 4.25 1.5 4.1 0.45 4.25 -0.25 4.55 L-0.05 4.75 Q0.1 4.95 0.25 4.95 L1.0 4.95 1.15 4.85 1.25 4.8 1.3 4.75 Q1.3 4.65 1.35 4.55 L1.4 4.4 1.3 4.3 M4.55 5.25 L4.65 5.3 4.65 5.35 4.55 5.3 4.55 5.25 M4.4 5.2 L4.5 5.2 4.4 5.25 4.3 5.2 4.2 5.2 Q4.25 5.25 4.25 5.35 L4.2 5.4 4.0 5.4 4.0 5.35 Q4.05 5.3 4.05 5.35 L4.2 5.3 Q4.15 5.25 4.15 5.2 L4.15 5.15 4.35 5.15 4.4 5.2 M3.75 4.95 L3.9 5.1 3.85 5.15 3.85 5.2 3.7 5.0 3.75 4.95 M-3.85 -5.95 L-3.9 -5.95 -4.0 -6.0 -4.0 -6.1 -3.85 -5.95 M-4.25 -5.85 L-4.5 -5.85 -4.55 -6.0 -4.55 -6.05 -4.7 -6.05 -5.1 -5.6 -5.0 -5.5 -4.95 -5.4 Q-5.0 -5.45 -5.05 -5.5 L-5.15 -5.6 -4.95 -5.85 -4.7 -6.1 -4.5 -6.05 -4.45 -5.9 -4.25 -5.9 -4.25 -5.85 M-4.95 -5.1 L-5.05 -5.1 -5.05 -5.15 Q-5.05 -5.25 -5.05 -5.2 L-4.95 -5.1 M-3.05 -3.9 L-3.15 -3.85 -3.1 -3.85 -3.05 -3.9 M-4.9 -3.2 L-4.9 -3.2 M-4.7 1.7 Q-4.85 2.0 -5.0 2.0 L-5.2 2.0 Q-5.5 2.0 -6.3 3.0 -6.0 3.1 -5.95 3.35 L-5.8 3.65 -5.3 4.3 -5.0 4.2 -4.75 4.15 -3.9 4.2 Q-3.9 4.25 -3.75 4.35 L-3.65 4.35 -3.6 4.05 Q-3.6 3.85 -3.6 3.8 L-3.7 3.7 -3.75 3.55 -3.85 3.4 -3.9 3.3 -4.0 3.15 -4.3 2.75 -4.5 2.55 Q-4.65 2.45 -4.6 2.25 L-4.6 1.55 -4.7 1.7 M-8.05 0.8 L-7.95 0.8 -7.9 0.9 -7.9 0.95 -8.0 0.9 -8.05 0.85 -8.05 0.8 M-8.1 1.0 L-8.2 0.95 -8.05 0.95 -8.1 1.0 M-8.35 1.0 L-8.45 1.1 -8.45 1.0 -8.35 1.0 M-8.55 1.2 Q-8.5 1.25 -8.5 1.3 L-8.4 1.35 -8.35 1.35 -8.35 1.4 Q-8.35 1.45 -8.45 1.55 L-8.6 1.65 -8.65 1.6 -8.6 1.55 Q-8.6 1.5 -8.45 1.5 L-8.4 1.4 -8.55 1.35 -8.55 1.2 M-7.5 2.2 L-7.65 2.2 -7.6 2.15 -7.5 2.2 M-7.9 2.35 L-7.85 2.3 -7.85 2.35 -8.05 2.5 -8.3 2.45 Q-8.4 2.35 -8.35 2.25 L-8.45 2.2 -8.7 2.15 -8.7 2.1 -8.45 2.15 -8.3 2.2 Q-8.25 2.3 -8.3 2.35 -8.15 2.4 -8.15 2.45 L-8.0 2.45 -7.95 2.3 -7.9 2.35 M-8.7 1.95 L-8.75 1.95 -8.75 1.9 Q-8.75 1.8 -8.7 1.75 -8.75 1.85 -8.7 1.95" fill="#ffffff" fill-rule="evenodd" stroke="none"/>
    </g>
  </defs>
</svg>
