<?xml version="1.0" encoding="UTF-8" standalone="no"?>
<svg xmlns:ffdec="https://www.free-decompiler.com/flash" xmlns:xlink="http://www.w3.org/1999/xlink" ffdec:objectType="frame" height="85.3px" width="44.0px" xmlns="http://www.w3.org/2000/svg">
  <g transform="matrix(1.0, 0.0, 0.0, 1.0, 1.1, 3.05)">
    <use ffdec:characterId="1051" ffdec:characterName="a_EB_Foam1Bone" height="70.7" transform="matrix(1.1021, 0.186, 0.0, 1.1021, -1.0871, -3.0704)" width="39.9" xlink:href="#sprite0"/>
  </g>
  <defs>
    <g id="sprite0" transform="matrix(1.0, 0.0, 0.0, 1.0, 19.95, 35.35)">
      <use ffdec:characterId="1050" height="10.1" transform="matrix(7.0, 0.0, 0.0, 7.0, -19.95, -35.35)" width="5.7" xlink:href="#shape0"/>
    </g>
    <g id="shape0" transform="matrix(1.0, 0.0, 0.0, 1.0, 2.85, 5.05)">
      <path d="M-2.75 -4.8 Q-2.85 -4.8 -2.85 -4.95 L-2.8 -5.05 -1.0 -4.85 -1.05 -4.0 0.4 -1.9 0.45 -2.35 Q0.7 -1.75 1.2 -1.3 L1.25 -1.1 Q1.35 -0.75 1.6 -0.6 1.9 -0.4 2.15 -0.1 2.85 0.55 2.85 1.5 2.85 2.05 2.7 2.2 2.6 2.3 2.25 2.4 L1.05 2.4 1.1 2.7 1.2 3.1 Q1.2 3.55 0.85 3.95 0.5 4.35 -0.15 4.35 L-0.7 4.3 Q0.2 3.75 0.55 2.8 0.75 2.3 0.75 1.85 L2.55 1.85 2.55 1.2 0.9 -0.55 0.75 -0.7 0.3 -1.3 0.0 -1.75 Q-0.25 -2.15 -0.55 -2.6 -1.15 -3.4 -1.45 -3.45 L-1.4 -4.7 -2.75 -4.8" fill="#5986bd" fill-rule="evenodd" stroke="none"/>
      <path d="M-0.15 4.35 Q-0.4 4.35 -0.6 4.55 -0.75 4.75 -0.75 5.05 L-1.35 0.5 -0.7 1.15 Q-0.9 1.35 -0.9 1.7 L-0.9 2.0 -0.65 2.7 Q-0.45 3.15 -0.55 3.8 -0.6 4.1 -0.7 4.3 L-0.15 4.35 M-2.35 -3.2 L-2.75 -4.8 -1.4 -4.7 -2.35 -3.2" fill="#81b4cf" fill-rule="evenodd" stroke="none"/>
      <path d="M-1.35 0.5 L-1.45 -0.2 -1.3 -1.15 -1.65 -1.25 -1.75 -1.45 -0.4 -1.85 -1.45 -3.45 Q-1.15 -3.4 -0.55 -2.6 -0.25 -2.15 0.0 -1.75 0.0 -1.6 0.1 -1.45 0.2 -1.3 0.3 -1.3 L0.75 -0.7 0.75 -0.6 Q0.75 -0.5 0.75 -0.45 0.8 -0.35 0.85 -0.35 L0.9 -0.55 2.55 1.2 2.55 1.85 0.75 1.85 Q0.75 2.3 0.55 2.8 0.2 3.75 -0.7 4.3 -0.6 4.1 -0.55 3.8 -0.45 3.15 -0.65 2.7 L-0.05 3.0 0.05 3.45 0.25 2.6 Q0.45 1.65 0.35 1.3 L2.15 1.3 Q1.55 0.5 0.95 -0.05 0.2 -0.7 -0.3 -1.15 L-0.75 -1.15 -0.65 -1.05 Q-0.95 -0.6 -0.8 -0.1 -0.6 0.55 0.25 1.1 -0.25 1.1 -0.55 1.35 -0.9 1.65 -0.9 2.0 L-0.9 1.7 Q-0.9 1.35 -0.7 1.15 L-1.35 0.5" fill="#8ed3df" fill-rule="evenodd" stroke="none"/>
      <path d="M-1.75 -1.45 L-2.35 -3.2 -1.4 -4.7 -1.45 -3.45 -0.4 -1.85 -1.75 -1.45 M0.25 1.1 Q-0.6 0.55 -0.8 -0.1 -0.95 -0.6 -0.65 -1.05 L-0.75 -1.15 -0.3 -1.15 Q0.2 -0.7 0.95 -0.05 1.55 0.5 2.15 1.3 L0.35 1.3 Q0.45 1.65 0.25 2.6 L0.05 3.45 -0.05 3.0 -0.65 2.7 -0.9 2.0 Q-0.9 1.65 -0.55 1.35 -0.25 1.1 0.25 1.1 L0.25 1.1" fill="#d2e4ee" fill-rule="evenodd" stroke="none"/>
    </g>
  </defs>
</svg>
