<?xml version="1.0" encoding="UTF-8" standalone="no"?>
<svg xmlns:ffdec="https://www.free-decompiler.com/flash" xmlns:xlink="http://www.w3.org/1999/xlink" ffdec:objectType="frame" height="1125.0px" width="2345.0px" xmlns="http://www.w3.org/2000/svg">
  <g transform="matrix(1.0, 0.0, 0.0, 1.0, -17.5, 942.5)">
    <use ffdec:characterId="1528" height="1125.0" transform="matrix(1.0, 0.0, 0.0, 1.0, 17.5, -942.5)" width="2345.0" xlink:href="#shape0"/>
  </g>
  <defs>
    <g id="shape0" transform="matrix(1.0, 0.0, 0.0, 1.0, -17.5, 942.5)">
      <path d="M2280.0 -940.0 L2280.0 -120.0 2280.0 20.0 M20.0 -280.0 L140.0 -380.0 140.0 -680.0 M20.0 0.0 L440.0 -40.0 600.0 -80.0 780.0 -120.0 2280.0 -120.0" fill="none" stroke="#00ffff" stroke-linecap="round" stroke-linejoin="round" stroke-width="5.0"/>
      <path d="M20.0 0.0 L20.0 180.0 M20.0 -280.0 L20.0 0.0 M2360.0 160.0 L2360.0 -940.0 M20.0 -940.0 L20.0 -280.0" fill="none" stroke="#ffff00" stroke-linecap="round" stroke-linejoin="round" stroke-width="5.0"/>
      <path d="M2360.0 20.0 L20.0 20.0" fill="none" stroke="#666666" stroke-linecap="round" stroke-linejoin="round" stroke-width="5.0"/>
    </g>
  </defs>
</svg>
