<?xml version="1.0" encoding="UTF-8" standalone="no"?>
<svg xmlns:ffdec="https://www.free-decompiler.com/flash" xmlns:xlink="http://www.w3.org/1999/xlink" ffdec:objectType="frame" height="122.15px" width="150.85px" xmlns="http://www.w3.org/2000/svg">
  <g transform="matrix(1.0, 0.0, 0.0, 1.0, 15.75, 63.0)">
    <use ffdec:characterId="893" height="17.45" transform="matrix(7.0, 0.0, 0.0, 7.0, -15.75, -63.0)" width="21.55" xlink:href="#shape0"/>
  </g>
  <defs>
    <g id="shape0" transform="matrix(1.0, 0.0, 0.0, 1.0, 2.25, 9.0)">
      <path d="M7.35 -5.85 Q6.7 -7.5 5.85 -7.55 5.0 -7.6 2.1 -5.55 L1.9 -5.4 Q0.3 -4.3 -0.3 -3.75 -0.7 -3.35 -0.7 -3.25 -0.7 -3.15 -0.4 -2.45 L-0.2 -2.05 -0.1 -1.65 Q0.2 -1.9 0.45 -2.0 L0.6 -2.05 0.65 -2.0 0.9 -2.2 Q2.2 -3.1 3.5 -3.55 4.95 -4.05 5.85 -3.65 6.25 -3.45 6.5 -3.1 L6.55 -3.95 Q6.9 -4.2 7.2 -4.3 L7.15 -4.6 7.55 -4.4 7.75 -4.4 7.6 -5.05 7.5 -5.45 7.35 -5.85 M1.8 4.35 L2.05 4.5 Q2.15 3.35 2.2 2.75 2.2 2.5 1.35 1.2 L0.45 -0.1 Q0.5 -0.75 1.5 -1.75 L1.55 -1.8 1.5 -1.8 0.9 -1.4 0.55 -1.2 0.1 0.05 Q-0.65 1.95 -0.95 3.0 -0.4 3.15 0.75 3.75 L1.8 4.35 M7.3 -1.85 L7.05 -2.25 6.95 -2.3 Q6.6 -2.45 6.45 -2.45 L5.65 -2.4 5.25 -2.4 4.6 -2.35 3.55 -2.35 2.85 -2.1 Q2.55 -1.95 2.3 -1.7 1.95 -1.4 1.6 -1.05 L1.15 -0.5 1.1 -0.45 1.15 -0.45 Q1.45 -0.35 1.8 -0.05 2.25 0.3 2.55 0.95 2.75 1.4 2.9 2.05 L2.9 2.15 Q3.0 2.65 3.05 3.35 L3.05 4.7 3.0 5.1 2.95 5.3 3.3 5.5 Q3.75 5.75 4.25 6.15 4.5 6.3 5.15 6.45 L5.6 6.6 5.7 6.15 Q5.85 5.4 6.1 5.25 6.2 5.15 6.9 4.95 7.45 4.8 7.7 4.7 7.85 4.5 7.95 4.3 L8.2 3.0 8.25 2.75 8.25 2.7 Q8.25 2.3 8.3 2.1 L8.3 2.05 8.35 2.0 8.35 1.95 9.15 1.35 9.3 1.3 9.75 1.25 10.25 1.25 10.45 1.2 10.45 1.15 9.9 0.8 9.75 0.65 9.2 0.2 Q8.1 -0.75 7.3 -1.85 M7.5 4.05 L7.5 4.1 7.45 4.15 Q7.2 4.65 6.9 4.65 6.6 4.8 6.3 4.85 6.5 4.75 6.65 4.6 L6.65 4.55 6.85 4.45 Q7.05 4.2 7.35 3.6 L7.35 3.5 Q7.45 3.1 7.5 2.9 L7.55 2.8 Q7.6 2.6 7.7 2.55 L7.7 2.6 7.8 2.55 7.75 2.65 7.8 2.8 7.75 3.15 Q7.7 3.4 7.7 3.5 7.7 3.7 7.5 4.05 M8.55 -6.35 Q8.9 -5.5 9.1 -4.55 9.35 -3.6 9.35 -3.25 L9.3 -2.35 9.5 -2.15 Q10.3 -1.35 11.0 -0.95 13.05 -0.15 13.4 0.25 13.55 0.4 13.55 0.7 L13.5 1.25 Q13.5 1.35 13.75 1.7 15.1 2.1 16.75 2.3 L18.5 2.35 18.85 2.7 Q19.0 2.7 19.15 2.75 L19.3 2.85 Q18.25 5.2 17.35 6.05 L16.4 6.9 16.1 7.05 Q13.35 8.55 11.4 8.45 9.8 8.4 7.45 7.8 L6.05 7.45 6.0 7.45 Q6.0 7.5 5.9 7.5 L5.55 7.45 5.5 7.45 Q4.75 7.35 3.75 6.8 L3.2 6.5 2.95 6.4 2.25 6.1 2.25 6.15 2.2 6.1 Q0.45 5.35 -0.65 4.6 -2.15 3.6 -2.15 2.9 -2.1 2.2 -1.35 0.45 L-0.9 -0.55 Q-0.95 -1.35 -1.55 -2.25 L-2.05 -2.9 Q-2.25 -3.2 -2.25 -3.35 -2.25 -3.9 1.05 -6.35 4.2 -8.65 4.95 -8.9 5.8 -9.15 6.5 -8.85 L8.15 -6.8 8.55 -6.35 M8.45 -2.2 L8.3 -2.35 7.6 -2.9 7.6 -2.95 7.55 -2.95 Q7.5 -2.8 7.45 -2.65 L7.85 -2.25 8.15 -1.85 9.05 -0.85 Q9.5 -0.35 10.45 0.1 10.95 0.35 11.05 0.75 11.1 0.9 11.1 1.05 L11.1 1.1 Q11.7 1.0 12.25 1.1 L12.95 1.25 12.95 1.2 12.9 1.1 12.55 0.75 Q12.45 0.7 12.35 0.7 12.1 0.6 11.75 0.6 L11.7 0.6 Q11.5 0.6 11.3 0.5 L11.2 0.45 Q10.6 0.2 9.8 -0.75 L9.75 -0.8 Q9.35 -1.15 8.8 -1.8 L8.75 -1.85 8.75 -1.9 8.45 -2.2 M8.65 4.6 L8.6 4.75 8.55 5.0 8.45 5.4 8.35 5.4 Q7.4 5.45 6.9 5.75 6.8 5.9 6.65 6.1 L6.45 6.7 Q7.1 6.85 7.55 6.9 11.9 7.05 14.65 5.45 L16.4 4.35 16.7 4.2 17.05 3.9 16.4 3.9 15.0 3.95 14.65 3.95 13.45 4.0 Q11.0 3.9 9.25 2.6 L9.2 2.65 9.05 2.65 9.0 2.8 9.0 2.95 8.95 3.2 8.75 4.0 8.7 4.2 8.65 4.6 M8.85 2.7 L8.85 2.8 8.9 2.7 8.85 2.7" fill="#111111" fill-rule="evenodd" stroke="none"/>
      <path d="M9.3 1.3 L9.15 1.35 8.35 1.95 8.35 2.0 8.3 2.05 8.3 2.1 Q8.25 2.3 8.25 2.7 L8.25 2.75 8.2 3.0 7.95 4.3 Q7.85 4.5 7.7 4.7 7.45 4.8 6.9 4.95 6.2 5.15 6.1 5.25 5.85 5.4 5.7 6.15 L5.6 6.6 5.15 6.45 Q4.5 6.3 4.25 6.15 3.75 5.75 3.3 5.5 L2.95 5.3 3.0 5.1 3.05 4.7 3.05 3.35 Q3.0 2.65 2.9 2.15 L2.9 2.05 Q2.75 1.4 2.55 0.95 2.25 0.3 1.8 -0.05 1.45 -0.35 1.15 -0.45 L1.1 -0.45 1.15 -0.5 1.6 -1.05 Q1.95 -1.4 2.3 -1.7 2.55 -1.95 2.85 -2.1 L3.55 -2.35 4.6 -2.35 5.25 -2.4 5.65 -2.4 6.45 -2.45 Q6.6 -2.45 6.95 -2.3 L7.05 -2.25 7.3 -1.85 Q7.2 -1.75 7.05 -1.75 5.3 -2.1 4.85 -2.1 L4.05 -2.05 3.9 -1.75 Q3.8 -1.45 3.8 -1.35 3.8 0.45 5.2 2.2 L6.15 3.3 Q6.6 3.75 6.6 3.85 6.6 4.05 6.4 4.25 6.3 4.4 6.1 4.45 L5.7 4.95 Q5.15 5.6 5.15 6.1 L5.2 6.2 Q5.25 5.65 5.5 5.3 5.75 4.95 6.25 4.75 L6.65 4.55 6.65 4.6 Q6.5 4.75 6.3 4.85 6.6 4.8 6.9 4.65 7.2 4.65 7.45 4.15 L7.5 4.1 7.5 4.05 Q7.7 3.85 7.8 3.6 L8.4 1.85 Q8.6 1.2 8.75 1.0 8.9 0.75 9.15 0.7 L9.75 0.65 9.9 0.8 10.45 1.15 10.45 1.2 10.25 1.25 9.75 1.25 9.55 1.2 Q9.45 1.2 9.3 1.3 M1.95 -0.7 Q1.95 -0.6 2.5 -0.2 L3.05 0.15 2.8 -0.85 Q2.65 -1.5 2.65 -1.8 L2.2 -1.25 Q1.95 -0.95 1.95 -0.7 M8.75 -1.9 L8.75 -1.85 8.8 -1.8 Q9.35 -1.15 9.75 -0.8 L9.8 -0.75 Q10.6 0.2 11.2 0.45 L11.3 0.5 Q11.5 0.6 11.7 0.6 L11.75 0.6 Q12.1 0.6 12.35 0.7 12.45 0.7 12.55 0.75 L12.9 1.1 12.95 1.2 12.95 1.25 12.25 1.1 Q11.7 1.0 11.1 1.1 L11.1 1.05 Q11.1 0.9 11.05 0.75 10.95 0.35 10.45 0.1 9.5 -0.35 9.05 -0.85 L8.15 -1.85 7.85 -2.25 7.45 -2.65 Q7.5 -2.8 7.55 -2.95 L7.6 -2.95 7.6 -2.9 8.3 -2.35 8.45 -2.2 8.65 -1.95 8.75 -1.9" fill="#600000" fill-rule="evenodd" stroke="none"/>
      <path d="M9.3 1.3 Q9.45 1.2 9.55 1.2 L9.75 1.25 9.3 1.3 M9.75 0.65 L9.15 0.7 Q8.9 0.75 8.75 1.0 8.6 1.2 8.4 1.85 L7.8 3.6 Q7.7 3.85 7.5 4.05 7.7 3.7 7.7 3.5 7.7 3.4 7.75 3.15 L7.8 2.8 7.75 2.65 7.8 2.55 7.7 2.6 7.7 2.55 Q7.6 2.6 7.55 2.8 L7.5 2.9 Q7.45 3.1 7.35 3.5 L7.35 3.6 Q7.05 4.2 6.85 4.45 L6.65 4.55 6.25 4.75 Q5.75 4.95 5.5 5.3 5.25 5.65 5.2 6.2 L5.15 6.1 Q5.15 5.6 5.7 4.95 L6.1 4.45 Q6.3 4.4 6.4 4.25 6.6 4.05 6.6 3.85 6.6 3.75 6.15 3.3 L5.2 2.2 Q3.8 0.45 3.8 -1.35 3.8 -1.45 3.9 -1.75 L4.05 -2.05 4.85 -2.1 Q5.3 -2.1 7.05 -1.75 7.2 -1.75 7.3 -1.85 8.1 -0.75 9.2 0.2 L9.75 0.65 M1.95 -0.7 Q1.95 -0.95 2.2 -1.25 L2.65 -1.8 Q2.65 -1.5 2.8 -0.85 L3.05 0.15 2.5 -0.2 Q1.95 -0.6 1.95 -0.7 M8.75 -1.9 L8.65 -1.95 8.45 -2.2 8.75 -1.9 M6.8 -1.65 Q7.1 -1.15 7.8 -0.45 L8.35 0.1 Q7.85 0.35 7.85 1.25 L7.8 1.6 7.75 2.0 7.75 2.1 7.8 2.15 Q8.15 1.1 8.65 0.65 8.85 0.4 9.05 0.3 9.05 0.15 8.85 0.1 L8.7 0.05 7.8 -0.9 Q7.05 -1.6 6.8 -1.65" fill="#b00000" fill-rule="evenodd" stroke="none"/>
      <path d="M6.8 -1.65 Q7.05 -1.6 7.8 -0.9 L8.7 0.05 8.85 0.1 Q9.05 0.15 9.05 0.3 8.85 0.4 8.65 0.65 8.15 1.1 7.8 2.15 L7.75 2.1 7.75 2.0 7.8 1.6 7.85 1.25 Q7.85 0.35 8.35 0.1 L7.8 -0.45 Q7.1 -1.15 6.8 -1.65" fill="#ff9999" fill-rule="evenodd" stroke="none"/>
      <path d="M-0.3 -3.75 Q0.3 -4.3 1.9 -5.4 L2.1 -5.55 Q5.0 -7.6 5.85 -7.55 6.7 -7.5 7.35 -5.85 6.35 -6.25 5.0 -6.25 4.05 -6.25 0.9 -4.45 L-0.3 -3.75" fill="#d0f0f0" fill-rule="evenodd" stroke="none"/>
      <path d="M7.5 -5.45 L7.6 -5.05 7.75 -4.4 7.55 -4.4 7.15 -4.6 7.2 -4.3 Q6.9 -4.2 6.55 -3.95 L6.5 -3.1 Q6.25 -3.45 5.85 -3.65 4.95 -4.05 3.5 -3.55 2.2 -3.1 0.9 -2.2 L0.65 -2.0 0.6 -2.05 0.45 -2.0 Q0.2 -1.9 -0.1 -1.65 L-0.2 -2.05 0.5 -2.6 Q2.2 -3.9 3.8 -4.7 5.85 -5.8 7.0 -5.65 L7.45 -5.55 7.5 -5.45 M0.9 -1.4 Q0.45 -0.75 0.45 0.0 0.45 0.6 0.85 1.25 1.4 2.05 1.55 2.6 1.6 2.85 1.7 4.0 L1.8 4.35 0.75 3.75 Q-0.4 3.15 -0.95 3.0 -0.65 1.95 0.1 0.05 L0.55 -1.2 0.9 -1.4 M8.65 4.6 L10.0 4.7 Q10.8 4.7 12.05 4.4 L12.45 4.4 Q14.3 4.4 16.5 3.9 L16.4 3.9 17.05 3.9 16.7 4.2 16.4 4.35 14.65 5.45 Q11.9 7.05 7.55 6.9 7.1 6.85 6.45 6.7 L6.65 6.1 Q6.8 5.9 6.9 5.75 7.4 5.45 8.35 5.4 L8.45 5.4 8.55 5.0 8.6 4.75 8.65 4.6 M8.95 3.2 Q9.4 3.45 9.85 3.7 9.2 3.85 8.75 4.0 L8.95 3.2" fill="#0070e0" fill-rule="evenodd" stroke="none"/>
      <path d="M-0.3 -3.75 L0.9 -4.45 Q4.05 -6.25 5.0 -6.25 6.35 -6.25 7.35 -5.85 L7.5 -5.45 7.45 -5.55 7.0 -5.65 Q5.85 -5.8 3.8 -4.7 2.2 -3.9 0.5 -2.6 L-0.2 -2.05 -0.4 -2.45 Q-0.7 -3.15 -0.7 -3.25 -0.7 -3.35 -0.3 -3.75 M0.9 -1.4 L1.5 -1.8 1.55 -1.8 1.5 -1.75 Q0.5 -0.75 0.45 -0.1 L1.35 1.2 Q2.2 2.5 2.2 2.75 2.15 3.35 2.05 4.5 L1.8 4.35 1.7 4.0 Q1.6 2.85 1.55 2.6 1.4 2.05 0.85 1.25 0.45 0.6 0.45 0.0 0.45 -0.75 0.9 -1.4 M16.4 3.9 L16.5 3.9 Q14.3 4.4 12.45 4.4 L12.05 4.4 Q10.8 4.7 10.0 4.7 L8.65 4.6 8.7 4.2 8.75 4.0 Q9.2 3.85 9.85 3.7 9.4 3.45 8.95 3.2 L9.0 2.95 9.0 2.8 9.05 2.65 9.2 2.65 9.25 2.6 Q11.0 3.9 13.45 4.0 L14.65 3.95 15.0 3.95 16.4 3.9 M8.85 2.7 L8.9 2.7 8.85 2.8 8.85 2.7" fill="#80c0f0" fill-rule="evenodd" stroke="none"/>
    </g>
  </defs>
</svg>
