<?xml version="1.0" encoding="UTF-8" standalone="no"?>
<svg xmlns:ffdec="https://www.free-decompiler.com/flash" xmlns:xlink="http://www.w3.org/1999/xlink" ffdec:objectType="frame" height="80.85px" width="65.45px" xmlns="http://www.w3.org/2000/svg">
  <g transform="matrix(1.0, 0.0, 0.0, 1.0, 38.5, 82.6)">
    <use ffdec:characterId="508" height="10.3" transform="matrix(7.0, 0.0, 0.0, 7.0, -37.8, -82.25)" width="9.1" xlink:href="#shape0"/>
  </g>
  <defs>
    <g id="shape0" transform="matrix(1.0, 0.0, 0.0, 1.0, 5.4, 11.75)">
      <path d="M0.95 -11.5 L1.05 -11.6 Q1.15 -11.65 1.3 -11.7 L1.4 -11.7 Q2.5 -11.85 2.9 -10.9 3.15 -10.25 3.1 -9.55 3.25 -9.6 3.4 -9.5 3.7 -9.25 3.7 -8.8 3.7 -8.7 3.65 -8.55 3.55 -9.0 3.1 -9.1 2.9 -9.0 2.8 -8.85 L2.65 -8.85 Q2.75 -9.2 2.7 -9.65 2.6 -11.3 0.95 -11.45 L0.95 -11.5 M1.05 -10.3 L0.8 -10.3 Q0.25 -10.2 -0.3 -10.0 -0.65 -9.85 -0.95 -9.55 L-1.0 -9.5 -0.75 -10.2 Q-0.55 -10.55 -0.2 -10.7 L0.45 -10.65 Q0.75 -10.6 1.05 -10.4 L1.05 -10.3 M1.3 -11.05 Q1.0 -11.1 0.8 -11.2 L1.3 -11.05 M0.2 -5.6 Q0.1 -5.75 0.25 -5.75 L0.45 -5.75 Q0.55 -5.7 0.55 -5.6 L0.2 -5.6 M0.25 -1.5 Q-0.4 -1.35 -0.55 -2.0 -0.6 -2.2 -0.55 -2.4 L-0.5 -2.4 Q0.4 -1.85 1.15 -2.1 1.0 -1.7 0.25 -1.5 M2.05 -3.4 Q2.4 -3.35 2.75 -3.6 3.25 -3.9 3.5 -4.3 3.8 -4.0 3.65 -3.45 3.55 -3.0 3.25 -2.65 L3.25 -2.6 3.15 -2.6 Q2.9 -1.75 2.2 -1.7 2.35 -2.0 2.55 -2.3 2.9 -2.45 3.1 -3.1 3.05 -3.25 2.95 -3.25 L2.65 -3.35 Q2.2 -3.2 1.9 -2.85 L1.75 -2.85 2.05 -3.4 M-4.1 -6.9 Q-4.25 -6.8 -4.3 -6.6 -4.0 -6.55 -3.7 -6.7 -3.55 -6.8 -3.35 -6.9 -3.15 -6.85 -3.0 -6.7 -2.7 -6.45 -2.8 -6.1 L-2.95 -6.1 Q-3.1 -6.6 -4.1 -6.35 -4.4 -6.35 -4.5 -6.1 -4.6 -5.8 -4.55 -5.6 L-4.85 -5.55 Q-5.1 -5.75 -5.0 -6.05 -4.9 -6.5 -4.55 -6.75 -4.35 -6.9 -4.1 -6.9 M-0.5 -5.5 L-0.7 -5.5 Q-1.3 -5.5 -1.7 -5.25 L-1.9 -5.3 Q-2.0 -5.3 -2.0 -5.4 L-1.95 -5.5 Q-1.9 -5.7 -1.7 -5.7 L-1.35 -5.8 -0.8 -5.75 -0.4 -5.6 -0.5 -5.5 M-4.75 -4.7 L-4.4 -4.5 Q-4.1 -4.15 -3.8 -4.15 -3.1 -3.9 -2.75 -4.25 -2.75 -3.7 -3.95 -3.75 L-4.15 -3.75 -4.85 -4.25 Q-5.2 -4.05 -5.0 -3.7 -5.35 -3.9 -5.4 -4.5 -5.45 -4.9 -5.2 -5.0 -5.0 -4.9 -4.9 -4.7 L-4.75 -4.7 M-3.05 -4.75 Q-3.0 -4.8 -2.95 -4.8 L-2.85 -4.65 -3.1 -4.6 -3.05 -4.75" fill="#ffffff" fill-rule="evenodd" stroke="none"/>
    </g>
  </defs>
</svg>
