<?xml version="1.0" encoding="UTF-8" standalone="no"?>
<svg xmlns:ffdec="https://www.free-decompiler.com/flash" xmlns:xlink="http://www.w3.org/1999/xlink" ffdec:objectType="frame" height="90.3px" width="80.5px" xmlns="http://www.w3.org/2000/svg">
  <g transform="matrix(1.0, 0.0, 0.0, 1.0, 3.85, 56.7)">
    <use ffdec:characterId="3277" height="7.75" transform="matrix(7.0, 0.0, 0.0, 7.0, 7.7, -56.7)" width="6.8" xlink:href="#shape0"/>
  </g>
  <defs>
    <g id="shape0" transform="matrix(1.0, 0.0, 0.0, 1.0, -1.1, 8.1)">
      <path d="M1.3 -7.3 L1.9 -7.2 Q2.1 -7.15 2.15 -7.05 L2.2 -6.95 2.15 -6.9 2.05 -6.85 1.8 -6.75 1.5 -6.65 1.4 -6.5 1.3 -6.4 1.25 -6.4 Q1.2 -6.4 1.15 -6.45 1.1 -6.5 1.1 -6.55 L1.2 -7.15 Q1.2 -7.2 1.2 -7.25 1.25 -7.3 1.3 -7.3 M2.65 -8.0 L2.8 -8.1 2.85 -8.1 Q3.3 -8.1 3.4 -8.0 L3.45 -7.95 3.45 -7.75 3.35 -7.7 2.7 -7.6 2.6 -7.65 2.55 -7.7 2.55 -7.8 2.65 -8.0 M3.55 -7.7 L3.5 -7.8 Q3.5 -7.95 3.6 -8.0 3.65 -8.05 3.7 -8.05 3.8 -8.05 3.95 -7.9 L3.95 -7.75 Q3.95 -7.65 3.9 -7.6 L3.8 -7.55 3.7 -7.55 3.55 -7.65 3.55 -7.7 M4.65 -6.25 L4.95 -6.05 5.0 -6.0 5.05 -5.9 5.0 -5.8 4.9 -5.75 4.65 -5.8 4.4 -5.8 4.35 -5.85 4.25 -5.9 4.25 -6.0 4.2 -6.05 4.25 -6.1 Q4.3 -6.25 4.4 -6.3 4.5 -6.35 4.65 -6.25 M3.7 -6.35 L3.65 -6.3 3.5 -6.35 Q3.35 -6.35 3.35 -6.6 3.35 -6.8 3.5 -6.85 L3.85 -6.85 3.9 -6.8 3.95 -6.7 3.9 -6.65 3.75 -6.4 3.7 -6.35 M4.15 -4.95 Q4.35 -5.15 4.5 -5.15 L4.6 -5.1 4.65 -5.05 4.65 -4.95 4.35 -4.45 4.3 -4.4 4.1 -4.4 Q4.05 -4.4 4.0 -4.45 L3.95 -4.5 3.95 -4.7 4.15 -4.95 M5.65 -5.15 Q5.8 -5.15 5.85 -5.1 L6.05 -5.0 6.15 -4.9 Q6.2 -4.9 6.25 -4.85 L6.25 -4.75 6.2 -4.65 6.15 -4.65 5.55 -4.45 Q5.3 -4.35 5.25 -4.1 L5.15 -4.0 5.0 -4.0 4.9 -4.05 4.9 -4.85 4.95 -4.9 5.05 -4.95 5.15 -5.05 Q5.4 -5.15 5.65 -5.15 M7.45 -5.75 L7.65 -5.75 7.75 -5.7 7.85 -5.5 7.9 -5.3 Q7.9 -5.0 7.85 -4.95 7.8 -4.8 7.5 -4.7 L7.5 -4.6 Q7.5 -4.45 7.4 -4.35 7.3 -4.3 7.25 -4.3 L7.2 -4.3 Q7.05 -4.3 7.0 -4.4 7.0 -4.45 7.0 -4.5 7.0 -4.8 7.25 -4.8 7.25 -4.9 7.3 -4.95 L7.3 -5.05 7.1 -5.15 6.9 -5.1 6.75 -5.05 6.75 -5.0 Q6.7 -4.95 6.6 -4.95 6.5 -4.9 6.45 -5.05 6.45 -5.1 6.45 -5.25 6.3 -5.35 6.3 -5.5 6.25 -5.6 6.45 -5.8 L6.65 -5.95 6.7 -5.95 Q6.8 -5.95 6.8 -5.9 L6.9 -5.75 7.0 -5.75 Q7.05 -5.8 7.25 -5.8 L7.45 -5.75 M7.1 -4.3 L7.1 -4.3 M7.3 -2.05 Q7.25 -2.05 7.2 -2.1 7.1 -2.2 7.1 -2.35 6.95 -2.4 6.8 -2.55 L6.65 -2.5 6.55 -2.5 6.5 -2.6 6.4 -2.65 Q6.4 -2.7 6.35 -2.75 6.35 -2.8 6.4 -2.85 6.4 -2.9 6.5 -2.95 L6.55 -2.95 6.6 -3.0 7.0 -3.0 7.05 -2.95 7.1 -2.95 7.3 -2.65 7.35 -2.6 7.35 -2.55 7.3 -2.55 7.4 -2.45 Q7.5 -2.35 7.45 -2.2 L7.4 -2.15 7.4 -2.1 Q7.35 -2.05 7.3 -2.05 M7.0 -1.2 L7.0 -1.15 Q7.15 -1.35 7.6 -1.3 L7.7 -1.25 7.7 -1.2 7.8 -1.15 7.8 -0.95 Q7.75 -0.85 7.65 -0.9 L7.6 -0.85 Q7.4 -0.8 7.25 -0.7 L7.25 -0.65 Q7.25 -0.45 7.05 -0.35 L6.75 -0.35 Q6.7 -0.4 6.7 -0.5 6.7 -0.65 6.85 -0.75 L6.95 -0.75 6.95 -0.9 Q6.95 -1.1 7.0 -1.2" fill="#ff9a2b" fill-opacity="0.7019608" fill-rule="evenodd" stroke="none"/>
      <path d="M2.75 -7.9 L2.85 -8.0 3.3 -7.9 3.3 -7.85 2.7 -7.75 2.75 -7.9 M3.8 -7.7 L3.65 -7.8 3.7 -7.9 Q3.75 -7.9 3.85 -7.8 3.8 -7.75 3.8 -7.7 M4.65 -5.95 L4.4 -5.95 4.35 -6.05 Q4.45 -6.25 4.55 -6.15 4.8 -5.95 4.9 -5.9 L4.65 -5.95 M3.65 -6.45 L3.55 -6.5 Q3.5 -6.5 3.5 -6.6 3.5 -6.8 3.8 -6.7 L3.65 -6.45 M4.1 -4.55 L4.1 -4.65 4.25 -4.85 Q4.4 -5.0 4.5 -5.0 L4.2 -4.55 4.1 -4.55 M5.65 -5.0 Q5.7 -5.0 5.75 -4.95 L5.95 -4.85 Q6.0 -4.8 6.1 -4.75 L5.5 -4.55 Q5.15 -4.45 5.1 -4.15 L5.05 -4.1 5.05 -4.45 Q5.1 -4.7 5.05 -4.8 L5.25 -4.9 Q5.4 -5.05 5.65 -5.0 M1.75 -6.9 L1.4 -6.75 1.3 -6.55 1.25 -6.55 1.3 -6.85 1.3 -7.15 1.85 -7.05 2.05 -7.0 1.75 -6.9 M7.65 -5.6 L7.75 -5.45 7.75 -5.0 Q7.65 -4.9 7.4 -4.8 7.4 -4.85 7.4 -4.9 L7.45 -5.05 Q7.45 -5.15 7.15 -5.3 L6.85 -5.2 6.65 -5.1 Q6.6 -5.05 6.6 -5.25 6.6 -5.35 6.5 -5.4 6.45 -5.45 6.45 -5.5 6.45 -5.6 6.55 -5.7 L6.7 -5.8 6.8 -5.7 Q6.8 -5.65 7.0 -5.6 L7.05 -5.6 7.25 -5.65 7.4 -5.65 7.65 -5.6 M7.15 -4.45 L7.15 -4.55 Q7.15 -4.65 7.2 -4.7 L7.35 -4.65 7.3 -4.45 7.15 -4.45 M7.3 -2.2 Q7.2 -2.25 7.2 -2.35 L7.3 -2.4 Q7.35 -2.35 7.3 -2.25 L7.3 -2.2 M6.65 -2.85 L6.95 -2.85 7.2 -2.55 7.15 -2.5 Q7.05 -2.5 6.9 -2.65 L6.6 -2.65 6.5 -2.75 6.6 -2.8 6.65 -2.85 M7.1 -0.8 L7.1 -0.9 Q7.1 -1.05 7.1 -1.1 7.2 -1.2 7.55 -1.15 L7.6 -1.1 7.7 -1.05 7.65 -1.05 7.5 -1.1 7.4 -1.1 7.4 -1.05 7.55 -1.0 Q7.3 -0.9 7.1 -0.75 L7.1 -0.8 M7.05 -0.5 Q6.95 -0.55 6.95 -0.65 7.0 -0.7 7.1 -0.55 L7.05 -0.5" fill="#ffd327" fill-rule="evenodd" stroke="none"/>
    </g>
  </defs>
</svg>
