<?xml version="1.0" encoding="UTF-8" standalone="no"?>
<svg xmlns:ffdec="https://www.free-decompiler.com/flash" xmlns:xlink="http://www.w3.org/1999/xlink" ffdec:objectType="frame" height="102.9px" width="26.25px" xmlns="http://www.w3.org/2000/svg">
  <g transform="matrix(1.0, 0.0, 0.0, 1.0, 12.95, 51.45)">
    <use ffdec:characterId="95" height="14.7" transform="matrix(7.0, 0.0, 0.0, 7.0, -12.95, -51.45)" width="3.75" xlink:href="#shape0"/>
  </g>
  <defs>
    <g id="shape0" transform="matrix(1.0, 0.0, 0.0, 1.0, 1.85, 7.35)">
      <path d="M1.65 -2.95 L1.75 -2.2 1.9 -1.3 1.85 -1.0 Q1.8 -0.75 1.8 -0.6 1.75 -0.8 1.6 -1.6 1.45 -2.4 1.45 -2.8 L1.5 -3.1 Q1.65 -3.15 1.65 -3.1 L1.65 -2.95 M0.1 -4.7 Q1.25 -2.6 1.25 -1.15 L1.2 -0.65 Q1.3 -0.25 1.35 0.25 1.45 0.9 1.45 2.0 1.45 2.15 1.25 2.8 L1.1 3.55 Q0.95 1.55 0.85 -1.05 L0.7 1.05 0.2 -2.35 0.1 -4.7 M-0.2 -3.45 Q-0.5 -4.2 -0.8 -5.3 L-1.4 -7.35 Q-1.2 -7.3 -0.85 -6.25 -0.6 -5.65 -0.3 -4.6 0.0 -3.6 -0.05 -3.45 L-0.15 -3.3 -0.2 -3.45 M-1.65 -5.8 Q-1.4 -5.85 -1.15 -5.6 -0.9 -5.3 -0.65 -2.5 L-1.2 -3.3 -0.8 -1.85 Q-0.4 -0.75 -0.35 0.55 -0.3 1.85 -0.3 2.45 -0.35 3.05 -0.3 3.5 -0.25 3.9 -0.8 7.35 -0.4 4.45 -1.8 -4.3 L-1.85 -4.95 -1.75 -5.7 Q-1.75 -5.8 -1.65 -5.8 M-1.45 -0.7 L-1.3 0.15 Q-1.1 0.95 -1.05 1.25 -1.0 1.85 -1.0 3.1 -1.0 3.55 -1.15 4.65 -1.25 4.55 -1.3 4.2 L-1.3 3.6 Q-1.3 2.65 -1.4 1.35 -1.5 0.6 -1.65 -0.95 L-1.6 -0.95 -1.5 -0.85 Q-1.45 -0.8 -1.45 -0.7" fill="#8ed3df" fill-rule="evenodd" stroke="none"/>
      <path d="M0.2 -2.35 L-0.2 -3.45 -0.15 -3.3 -0.05 -3.45 Q0.0 -3.6 -0.3 -4.6 -0.6 -5.65 -0.85 -6.25 L0.1 -4.7 0.2 -2.35" fill="#5986bd" fill-rule="evenodd" stroke="none"/>
    </g>
  </defs>
</svg>
