<?xml version="1.0" encoding="UTF-8" standalone="no"?>
<svg xmlns:ffdec="https://www.free-decompiler.com/flash" xmlns:xlink="http://www.w3.org/1999/xlink" ffdec:objectType="frame" height="985.0px" width="2145.0px" xmlns="http://www.w3.org/2000/svg">
  <g transform="matrix(1.0, 0.0, 0.0, 1.0, 322.5, 1102.5)">
    <use ffdec:characterId="1628" height="985.0" transform="matrix(1.0, 0.0, 0.0, 1.0, -322.5, -1102.5)" width="2145.0" xlink:href="#shape0"/>
    <use ffdec:characterId="1630" height="665.1" id="am_Trigger_Mimic" transform="matrix(1.0, 0.0, 0.0, 1.0, 497.5, -822.5)" width="5.0" xlink:href="#sprite0"/>
  </g>
  <defs>
    <g id="shape0" transform="matrix(1.0, 0.0, 0.0, 1.0, 322.5, 1102.5)">
      <path d="M960.0 -800.0 L1200.0 -760.0 1200.0 -260.0 680.0 -280.0 260.0 -260.0 260.0 -780.0 680.0 -820.0 820.0 -780.0 860.0 -960.0 940.0 -940.0 960.0 -800.0 M1820.0 -1100.0 L-320.0 -1100.0" fill="none" stroke="#00ffff" stroke-linecap="round" stroke-linejoin="round" stroke-width="5.0"/>
      <path d="M1360.0 -180.0 L140.0 -180.0" fill="none" stroke="#666666" stroke-linecap="round" stroke-linejoin="round" stroke-width="5.0"/>
      <path d="M1320.0 -840.0 L1320.0 -120.0 M180.0 -860.0 L180.0 -140.0" fill="none" stroke="#ffff00" stroke-linecap="round" stroke-linejoin="round" stroke-width="5.0"/>
    </g>
    <g id="sprite0" transform="matrix(1.0, 0.0, 0.0, 1.0, 2.5, 302.5)">
      <use ffdec:characterId="1629" height="665.1" transform="matrix(1.0, 0.0, 0.0, 1.0, -2.5, -302.5)" width="5.0" xlink:href="#shape1"/>
    </g>
    <g id="shape1" transform="matrix(1.0, 0.0, 0.0, 1.0, 2.5, 302.5)">
      <path d="M0.0 -300.0 L0.0 360.1" fill="none" stroke="#ffffff" stroke-linecap="round" stroke-linejoin="round" stroke-width="5.0"/>
    </g>
  </defs>
</svg>
