<?xml version="1.0" encoding="UTF-8" standalone="no"?>
<svg xmlns:ffdec="https://www.free-decompiler.com/flash" xmlns:xlink="http://www.w3.org/1999/xlink" ffdec:objectType="frame" height="430.35px" width="639.25px" xmlns="http://www.w3.org/2000/svg">
  <g transform="matrix(1.0, 0.0, 0.0, 1.0, 371.05, 333.35)">
    <use ffdec:characterId="939" height="217.35" transform="matrix(1.0, 0.0, 0.0, 1.0, -81.85, -227.4)" width="171.15" xlink:href="#sprite0"/>
    <use ffdec:characterId="932" height="185.5" transform="matrix(1.0, 0.0, 0.0, 1.0, -250.55, -174.05)" width="319.9" xlink:href="#sprite1"/>
    <use ffdec:characterId="934" height="137.2" transform="matrix(0.9984, -0.0531, 0.0531, 0.9984, -273.0836, -98.0177)" width="297.15" xlink:href="#sprite2"/>
    <use ffdec:characterId="936" height="86.45" transform="matrix(0.997, -0.0742, 0.0742, 0.997, -313.1019, -22.8795)" width="233.8" xlink:href="#sprite3"/>
  </g>
  <defs>
    <g id="sprite0" transform="matrix(1.0, 0.0, 0.0, 1.0, 74.2, 209.3)">
      <use ffdec:characterId="938" height="31.05" transform="matrix(7.0, 0.0, 0.0, 7.0, -74.2, -209.3)" width="24.45" xlink:href="#shape0"/>
    </g>
    <g id="shape0" transform="matrix(1.0, 0.0, 0.0, 1.0, 10.6, 29.9)">
      <path d="M10.15 -6.7 Q8.3 -4.25 5.4 -2.5 -1.0 1.45 -10.6 1.1 -0.3 -0.95 1.4 -7.35 2.8 -12.85 -2.1 -22.35 -3.55 -25.2 -3.65 -27.6 -3.7 -28.7 -3.4 -29.3 -3.1 -29.95 -2.45 -29.9 6.15 -27.7 10.2 -22.35 12.0 -19.9 12.65 -17.15 13.2 -14.45 12.6 -11.75 11.95 -9.05 10.15 -6.7" fill="url(#gradient0)" fill-rule="evenodd" stroke="none"/>
      <path d="M10.4 -8.35 Q12.45 -11.85 12.15 -15.5 11.85 -19.1 9.25 -22.4 6.6 -25.8 1.95 -28.45 7.1 -26.9 10.25 -23.65 13.3 -20.5 13.8 -16.55 14.25 -12.5 11.85 -8.7 9.2 -4.55 3.75 -1.6 8.25 -4.7 10.4 -8.35" fill="url(#gradient1)" fill-rule="evenodd" stroke="none"/>
    </g>
    <linearGradient gradientTransform="matrix(-0.0025, -0.017, 0.018, -0.0026, 0.25, -12.65)" gradientUnits="userSpaceOnUse" id="gradient0" spreadMethod="pad" x1="-819.2" x2="819.2">
      <stop offset="0.0" stop-color="#f5bfff" stop-opacity="0.0"/>
      <stop offset="0.6549019607843137" stop-color="#f7ccff" stop-opacity="0.0"/>
      <stop offset="1.0" stop-color="#ffffff" stop-opacity="0.0"/>
    </linearGradient>
    <linearGradient gradientTransform="matrix(0.0056, -0.0023, 0.0063, 0.0151, 9.7, -16.0)" gradientUnits="userSpaceOnUse" id="gradient1" spreadMethod="pad" x1="-819.2" x2="819.2">
      <stop offset="0.0" stop-color="#bff2ff" stop-opacity="0.0"/>
      <stop offset="1.0" stop-color="#ffffff" stop-opacity="0.0"/>
    </linearGradient>
    <g id="sprite1" transform="matrix(1.0, 0.0, 0.0, 1.0, 164.15, 178.5)">
      <use ffdec:characterId="931" height="26.5" transform="matrix(7.0, 0.0, 0.0, 7.0, -164.15, -178.5)" width="45.7" xlink:href="#shape1"/>
    </g>
    <g id="shape1" transform="matrix(1.0, 0.0, 0.0, 1.0, 23.45, 25.5)">
      <path d="M22.25 -7.4 Q9.25 -0.3 -2.7 0.0 -7.85 0.1 -12.15 -1.1 -16.15 -2.25 -18.75 -4.4 -21.3 -6.5 -22.0 -9.2 -22.75 -12.0 -21.35 -14.8 -19.85 -17.85 -16.15 -20.5 -12.1 -23.35 -5.85 -25.5 -9.45 -21.05 -10.0 -17.45 -10.5 -14.0 -8.15 -11.7 -5.85 -9.45 -1.1 -8.65 3.75 -7.8 10.45 -8.5 20.45 -9.6 22.25 -7.4" fill="url(#gradient2)" fill-rule="evenodd" stroke="none"/>
      <path d="M-20.4 -17.25 Q-18.2 -19.6 -14.65 -21.5 -20.55 -16.95 -21.35 -12.3 -21.7 -10.1 -20.85 -8.15 -20.0 -6.25 -18.05 -4.7 -14.0 -1.5 -6.45 -0.85 1.75 -0.15 11.9 -2.75 0.9 1.55 -8.2 0.95 -12.2 0.65 -15.4 -0.6 -18.4 -1.75 -20.4 -3.65 -22.35 -5.5 -23.05 -7.8 -23.8 -10.1 -23.15 -12.5 -22.45 -15.0 -20.4 -17.25" fill="url(#gradient3)" fill-rule="evenodd" stroke="none"/>
    </g>
    <linearGradient gradientTransform="matrix(0.0272, 0.0, 0.0, 0.0156, -7.95, -12.5)" gradientUnits="userSpaceOnUse" id="gradient2" spreadMethod="pad" x1="-819.2" x2="819.2">
      <stop offset="0.0" stop-color="#f5bfff" stop-opacity="0.0"/>
      <stop offset="0.6549019607843137" stop-color="#f7ccff" stop-opacity="0.7529412"/>
      <stop offset="1.0" stop-color="#ffffff" stop-opacity="0.96862745"/>
    </linearGradient>
    <linearGradient gradientTransform="matrix(-0.0064, 0.0064, -0.0097, -0.0097, -13.95, -7.05)" gradientUnits="userSpaceOnUse" id="gradient3" spreadMethod="pad" x1="-819.2" x2="819.2">
      <stop offset="0.0" stop-color="#bff2ff" stop-opacity="0.0"/>
      <stop offset="1.0" stop-color="#ffffff" stop-opacity="0.96862745"/>
    </linearGradient>
    <g id="sprite2" transform="matrix(1.0, 0.0, 0.0, 1.0, 149.1, 134.05)">
      <use ffdec:characterId="933" height="19.6" transform="matrix(7.0, 0.0, 0.0, 7.0, -149.1, -134.05)" width="42.45" xlink:href="#shape2"/>
    </g>
    <g id="shape2" transform="matrix(1.0, 0.0, 0.0, 1.0, 21.3, 19.15)">
      <path d="M3.0 -0.65 Q-5.15 0.8 -11.05 -0.95 -16.95 -2.75 -19.45 -7.35 -22.1 -12.1 -20.65 -19.15 -12.3 0.75 21.15 -7.0 11.55 -2.15 3.0 -0.65" fill="url(#gradient4)" fill-rule="evenodd" stroke="none"/>
      <path d="M-19.8 -6.75 Q-21.7 -10.35 -21.15 -15.15 -19.4 3.1 6.15 -1.3 0.25 0.5 -5.05 0.45 -10.25 0.4 -14.05 -1.45 -17.95 -3.35 -19.8 -6.75" fill="url(#gradient5)" fill-rule="evenodd" stroke="none"/>
    </g>
    <linearGradient gradientTransform="matrix(-0.004, 0.0069, -0.0101, -0.0058, -4.7, -4.1)" gradientUnits="userSpaceOnUse" id="gradient4" spreadMethod="pad" x1="-819.2" x2="819.2">
      <stop offset="0.0" stop-color="#f5bfff" stop-opacity="0.0"/>
      <stop offset="0.6549019607843137" stop-color="#f7ccff" stop-opacity="0.7490196"/>
      <stop offset="1.0" stop-color="#ffffff" stop-opacity="0.9607843"/>
    </linearGradient>
    <linearGradient gradientTransform="matrix(-0.0022, 0.0037, -0.0083, -0.0048, -11.1, -2.95)" gradientUnits="userSpaceOnUse" id="gradient5" spreadMethod="pad" x1="-819.2" x2="819.2">
      <stop offset="0.0" stop-color="#bff2ff" stop-opacity="0.0"/>
      <stop offset="1.0" stop-color="#ffffff" stop-opacity="0.9607843"/>
    </linearGradient>
    <g id="sprite3" transform="matrix(1.0, 0.0, 0.0, 1.0, 116.9, 83.65)">
      <use ffdec:characterId="935" height="12.35" transform="matrix(7.0, 0.0, 0.0, 7.0, -116.9, -83.65)" width="33.4" xlink:href="#shape3"/>
    </g>
    <g id="shape3" transform="matrix(1.0, 0.0, 0.0, 1.0, 16.7, 11.95)">
      <path d="M-16.7 -11.95 Q-4.25 1.7 16.7 -3.3 4.6 1.4 -3.55 -0.6 -12.0 -2.65 -16.7 -11.95" fill="url(#gradient6)" fill-rule="evenodd" stroke="none"/>
      <path d="M-10.75 -3.35 Q-13.35 -5.4 -14.5 -8.25 -6.5 2.3 10.6 -1.25 6.65 0.15 2.6 0.35 -1.3 0.55 -4.8 -0.4 -8.25 -1.35 -10.75 -3.35" fill="url(#gradient7)" fill-rule="evenodd" stroke="none"/>
    </g>
    <linearGradient gradientTransform="matrix(0.0056, 0.0117, -0.0066, 0.0032, -3.5, -5.7)" gradientUnits="userSpaceOnUse" id="gradient6" spreadMethod="pad" x1="-819.2" x2="819.2">
      <stop offset="0.0" stop-color="#f5bfff" stop-opacity="0.0"/>
      <stop offset="0.6549019607843137" stop-color="#f7ccff" stop-opacity="0.7490196"/>
      <stop offset="1.0" stop-color="#ffffff" stop-opacity="0.9607843"/>
    </linearGradient>
    <linearGradient gradientTransform="matrix(-0.0011, 0.0025, -0.0048, -0.0021, -4.8, -2.5)" gradientUnits="userSpaceOnUse" id="gradient7" spreadMethod="pad" x1="-819.2" x2="819.2">
      <stop offset="0.0" stop-color="#bff2ff" stop-opacity="0.0"/>
      <stop offset="1.0" stop-color="#ffffff" stop-opacity="0.9607843"/>
    </linearGradient>
  </defs>
</svg>
