<?xml version="1.0" encoding="UTF-8" standalone="no"?>
<svg xmlns:ffdec="https://www.free-decompiler.com/flash" xmlns:xlink="http://www.w3.org/1999/xlink" ffdec:objectType="frame" height="469.6px" width="535.7px" xmlns="http://www.w3.org/2000/svg">
  <g transform="matrix(1.0, 0.0, 0.0, 1.0, 283.9, 371.7)">
    <use ffdec:characterId="2491" height="368.35" transform="matrix(1.0, 0.0, 0.0, 1.0, -207.05, -274.7)" width="341.7" xlink:href="#shape0"/>
    <use ffdec:characterId="2487" height="81.0" transform="matrix(-0.184, 0.3634, 0.3446, 0.2075, -1.4415, -144.2342)" width="63.2" xlink:href="#sprite0"/>
    <use ffdec:characterId="2487" height="81.0" transform="matrix(-0.3663, 0.0405, 0.0482, 0.3937, -11.9283, -139.5242)" width="63.2" xlink:href="#sprite0"/>
    <use ffdec:characterId="2487" height="81.0" transform="matrix(-0.1727, 0.3706, 0.351, 0.1956, -43.5065, -107.7839)" width="63.2" xlink:href="#sprite0"/>
    <use ffdec:characterId="2487" height="81.0" transform="matrix(-0.3703, 0.1237, 0.126, 0.4004, -39.2016, -134.0248)" width="63.2" xlink:href="#sprite0"/>
    <use ffdec:characterId="2487" height="81.0" transform="matrix(-0.0798, 0.407, 0.3824, 0.0971, -92.9137, -121.8443)" width="63.2" xlink:href="#sprite0"/>
    <use ffdec:characterId="2487" height="81.0" transform="matrix(-0.2943, -0.2849, -0.2577, 0.3073, -52.2105, -79.1441)" width="63.2" xlink:href="#sprite0"/>
    <use ffdec:characterId="2487" height="81.0" transform="matrix(-0.3485, -0.1994, -0.1763, 0.3678, -90.3458, -94.346)" width="63.2" xlink:href="#sprite0"/>
    <use ffdec:characterId="2487" height="81.0" transform="matrix(-0.3754, -0.127, -0.108, 0.3987, -113.9646, -90.5331)" width="63.2" xlink:href="#sprite0"/>
    <use ffdec:characterId="2487" height="81.0" transform="matrix(0.1964, 0.1709, -0.1541, 0.2056, -36.6154, -120.2279)" width="63.2" xlink:href="#sprite0"/>
    <use ffdec:characterId="2487" height="81.0" transform="matrix(0.2266, -0.064, 0.0662, 0.2447, -29.2922, -119.9365)" width="63.2" xlink:href="#sprite0"/>
    <use ffdec:characterId="2487" height="81.0" transform="matrix(0.1915, 0.1779, -0.1607, 0.2001, -2.9418, -108.7276)" width="63.2" xlink:href="#sprite0"/>
    <use ffdec:characterId="2487" height="81.0" transform="matrix(0.249, -0.0157, 0.0217, 0.2673, -11.7502, -123.2809)" width="63.2" xlink:href="#sprite0"/>
    <use ffdec:characterId="2487" height="81.0" transform="matrix(0.1452, 0.2218, -0.203, 0.1493, 22.9834, -128.9565)" width="63.2" xlink:href="#sprite0"/>
    <use ffdec:characterId="2487" height="81.0" transform="matrix(0.1057, -0.2394, 0.2266, 0.1201, 9.1342, -93.8974)" width="63.2" xlink:href="#sprite0"/>
    <use ffdec:characterId="2487" height="81.0" transform="matrix(0.1584, -0.2018, 0.1929, 0.1754, 27.9828, -112.0291)" width="63.2" xlink:href="#sprite0"/>
    <use ffdec:characterId="2487" height="81.0" transform="matrix(0.1917, -0.1654, 0.1599, 0.2101, 42.9677, -115.4838)" width="63.2" xlink:href="#sprite0"/>
    <use ffdec:characterId="2487" height="81.0" transform="matrix(-0.3531, 0.403, 0.377, 0.3835, 45.3392, -150.0651)" width="63.2" xlink:href="#sprite0"/>
    <use ffdec:characterId="2487" height="81.0" transform="matrix(-0.4844, -0.073, -0.064, 0.5211, 30.3506, -147.6963)" width="63.2" xlink:href="#sprite0"/>
    <use ffdec:characterId="2487" height="81.0" transform="matrix(-0.341, 0.4161, 0.3891, 0.3705, -20.4818, -117.6537)" width="63.2" xlink:href="#sprite0"/>
    <use ffdec:characterId="2487" height="81.0" transform="matrix(-0.5163, 0.0322, 0.034, 0.5562, -6.5619, -149.8961)" width="63.2" xlink:href="#sprite0"/>
    <use ffdec:characterId="2487" height="81.0" transform="matrix(-0.2331, 0.4945, 0.4611, 0.2549, -79.5572, -152.6503)" width="63.2" xlink:href="#sprite0"/>
    <use ffdec:characterId="2487" height="81.0" transform="matrix(-0.2876, -0.4656, -0.4302, 0.3061, -40.8404, -83.9318)" width="63.2" xlink:href="#sprite0"/>
    <use ffdec:characterId="2487" height="81.0" transform="matrix(-0.3847, -0.3745, -0.3448, 0.4114, -85.0302, -116.4765)" width="63.2" xlink:href="#sprite0"/>
    <use ffdec:characterId="2487" height="81.0" transform="matrix(-0.4425, -0.2909, -0.2667, 0.4742, -116.667, -119.6145)" width="63.2" xlink:href="#sprite0"/>
  </g>
  <defs>
    <g id="shape0" transform="matrix(1.0, 0.0, 0.0, 1.0, 207.05, 274.7)">
      <path d="M27.1 -225.7 L27.2 -225.7 Q31.95 -224.15 33.6 -222.75 L35.05 -222.95 Q37.65 -225.2 40.4 -228.65 44.65 -234.0 45.55 -234.8 L46.05 -235.1 46.35 -235.25 47.05 -235.1 47.65 -234.8 47.9 -234.05 47.65 -233.4 47.05 -232.15 47.0 -232.05 Q43.4 -225.1 43.1 -220.4 42.9 -218.95 43.0 -217.55 L42.9 -217.15 42.65 -215.35 42.25 -214.7 41.65 -214.35 40.55 -214.15 40.0 -214.3 39.65 -214.4 39.25 -214.75 36.35 -210.25 36.35 -210.2 Q34.2 -206.8 34.0 -204.5 33.65 -200.4 37.35 -195.45 L37.4 -195.4 Q40.3 -191.6 44.7 -188.7 L54.95 -188.4 57.9 -190.8 57.95 -190.85 60.65 -193.15 64.05 -197.45 64.15 -197.45 68.45 -202.35 68.45 -202.3 71.4 -207.2 71.5 -207.25 Q72.8 -209.7 74.45 -211.15 74.3 -211.65 74.45 -212.5 74.75 -214.15 75.6 -214.5 L77.25 -214.8 77.35 -214.8 Q78.8 -214.8 79.65 -213.95 80.85 -213.15 80.75 -211.75 L80.5 -211.15 79.95 -210.75 78.1 -210.15 78.05 -210.15 77.55 -210.15 76.95 -202.85 Q76.25 -197.55 75.4 -194.65 L75.0 -193.95 74.25 -193.7 73.7 -193.7 73.2 -193.85 72.75 -194.2 72.5 -194.65 Q71.2 -193.0 71.0 -192.4 L71.0 -192.25 70.9 -192.25 70.4 -189.1 70.35 -187.1 Q100.05 -183.4 100.65 -173.15 104.7 -175.6 106.6 -178.75 L106.65 -178.85 110.5 -186.3 110.95 -186.8 111.6 -186.95 112.15 -186.95 112.8 -186.85 113.25 -186.25 Q113.75 -185.4 113.3 -182.7 112.95 -180.8 108.8 -171.6 L108.7 -171.5 106.75 -167.5 106.7 -166.55 106.7 -166.5 106.6 -166.4 106.7 -166.4 Q106.15 -164.05 101.85 -153.5 104.05 -153.05 104.1 -151.6 L104.05 -150.95 103.6 -150.45 103.55 -150.45 Q102.75 -149.85 101.95 -149.45 L101.9 -149.35 101.85 -149.35 100.85 -148.95 100.4 -148.9 99.85 -148.9 95.05 -138.2 Q93.15 -134.55 89.4 -125.1 86.1 -117.0 83.3 -112.15 L82.9 -111.8 82.3 -111.6 81.75 -111.6 Q81.3 -111.6 80.9 -111.95 80.5 -112.25 80.5 -112.75 L80.45 -113.6 80.3 -113.55 Q78.3 -111.15 76.7 -108.1 L74.6 -103.35 73.65 -99.7 74.25 -99.35 Q75.7 -97.55 75.2 -94.0 L75.15 -93.75 Q73.8 -90.4 73.35 -88.5 L73.45 -88.5 72.95 -87.8 71.9 -86.55 71.9 -86.5 Q70.95 -85.2 70.65 -84.3 L72.9 -84.05 Q77.4 -84.4 82.05 -88.05 L82.8 -88.3 83.0 -88.3 83.75 -88.05 84.25 -87.45 84.25 -86.75 83.7 -86.1 80.65 -83.5 80.6 -83.5 80.1 -82.95 80.05 -82.85 78.0 -81.05 74.45 -78.25 Q74.15 -77.95 73.7 -77.95 L72.25 -77.95 72.0 -77.9 71.2 -78.25 Q56.45 -75.45 12.25 -69.6 L-11.0 -66.4 -19.45 -65.25 -26.9 -64.25 -26.95 -64.25 -31.05 -63.7 -31.15 -63.7 -36.65 -63.05 -55.85 -60.4 -64.75 -59.0 -65.2 -59.0 -65.8 -59.1 -67.0 -58.8 Q-71.3 -58.55 -72.25 -58.75 L-75.45 -58.7 Q-78.35 -58.65 -79.1 -58.75 L-79.2 -58.75 Q-88.6 -58.65 -89.75 -58.8 L-95.0 -58.75 -96.7 -58.95 -96.8 -58.95 -101.25 -59.25 -101.4 -59.35 -102.5 -59.65 -103.25 -59.65 -103.8 -59.7 -103.95 -59.7 -104.3 -60.05 -106.55 -62.5 -106.7 -62.55 -109.35 -65.55 -109.4 -65.7 -109.45 -65.7 -110.45 -66.9 -110.55 -67.0 -111.65 -68.2 -111.8 -68.25 Q-112.95 -69.05 -112.95 -70.6 L-113.05 -71.2 -116.1 -73.8 -116.8 -74.5 Q-118.55 -75.7 -119.65 -76.85 -120.05 -77.15 -120.05 -77.6 L-120.05 -77.85 -119.8 -78.5 -119.9 -78.5 -119.3 -78.95 -118.6 -79.0 -117.65 -78.85 -117.5 -78.85 -116.65 -78.95 -116.05 -78.85 -115.6 -78.55 -115.6 -78.4 -115.05 -77.8 -113.0 -76.95 -112.95 -76.8 -110.5 -75.45 Q-111.95 -77.7 -115.2 -80.6 L-115.3 -80.65 -121.15 -85.55 Q-123.2 -86.75 -127.15 -89.3 L-134.0 -93.5 -134.25 -93.35 -134.25 -93.2 -134.8 -92.95 -135.5 -93.15 Q-137.7 -94.15 -141.75 -97.5 -145.65 -100.85 -147.5 -101.8 -150.55 -103.45 -154.05 -106.5 L-159.5 -111.05 -159.6 -111.2 Q-166.3 -116.35 -180.25 -130.05 L-180.55 -130.65 Q-183.7 -133.05 -188.05 -136.95 L-188.4 -137.75 Q-188.55 -138.25 -188.2 -138.55 -187.95 -138.95 -187.45 -139.05 L-186.6 -138.9 -177.4 -132.95 -167.95 -127.15 -167.6 -127.65 -166.95 -127.95 -162.55 -127.8 -158.85 -127.6 -158.6 -127.5 -158.6 -127.6 -158.7 -128.7 Q-158.65 -130.05 -157.65 -130.15 L-154.15 -130.3 Q-153.9 -130.3 -153.65 -130.0 L-153.65 -130.1 -153.25 -129.6 -152.6 -128.3 -152.4 -127.65 -152.65 -127.1 Q-153.35 -125.95 -154.7 -125.65 L-155.3 -125.6 -155.3 -125.5 -155.25 -124.7 -155.45 -124.35 -155.45 -124.2 -155.65 -124.0 -155.05 -123.8 -153.0 -123.55 -151.1 -123.55 Q-135.2 -124.6 -131.1 -135.35 L-130.95 -135.45 Q-128.95 -141.25 -130.15 -147.95 L-130.15 -148.05 Q-130.9 -152.9 -131.9 -157.5 L-135.05 -161.8 -135.15 -161.95 -138.8 -166.75 Q-141.25 -169.3 -144.9 -173.8 L-145.0 -173.95 Q-151.5 -181.75 -151.75 -184.4 L-153.05 -186.95 Q-154.6 -189.45 -154.7 -190.35 -158.2 -210.9 -156.7 -220.95 L-157.35 -225.55 -157.25 -226.25 -156.8 -226.7 -156.2 -226.95 -155.35 -226.95 -154.6 -226.65 -154.2 -225.95 -154.05 -225.35 -153.45 -225.1 -153.0 -224.6 -152.65 -223.65 -152.6 -223.1 -152.95 -219.9 Q-149.8 -207.95 -142.85 -200.25 L-142.85 -200.2 -139.15 -196.15 -139.15 -196.65 -139.2 -197.2 -139.1 -197.9 -138.95 -197.9 Q-138.9 -198.3 -138.45 -198.35 L-137.75 -198.4 Q-137.4 -198.35 -137.15 -198.0 -131.65 -191.7 -123.3 -186.75 L-123.1 -186.75 Q-120.55 -185.25 -117.95 -184.1 L-117.75 -184.05 Q-117.45 -183.8 -116.95 -183.65 L-116.95 -183.6 -115.05 -182.9 -115.0 -182.9 Q-100.6 -177.2 -82.75 -178.2 -73.95 -178.75 -70.3 -181.25 L-69.85 -181.4 -69.8 -181.4 Q-61.25 -182.7 -55.45 -188.5 L-55.45 -188.65 -51.2 -194.0 -51.2 -194.1 -49.5 -195.85 -49.65 -195.95 -49.65 -196.25 -49.3 -197.05 -48.3 -197.35 -48.0 -197.35 -47.3 -197.8 -46.6 -198.05 -46.55 -198.05 Q-46.25 -198.05 -45.9 -197.75 -45.6 -197.5 -45.55 -197.1 L-45.65 -196.3 -45.8 -196.05 -44.65 -194.85 -42.7 -193.25 Q-31.9 -199.65 -25.9 -210.1 L-25.8 -210.2 Q-22.75 -215.7 -18.65 -229.15 L-18.65 -229.2 Q-12.05 -246.95 -8.65 -268.95 L-8.9 -269.9 -8.9 -270.2 -8.55 -273.55 -8.3 -274.25 -7.55 -274.6 -6.7 -274.7 -5.85 -274.45 -5.35 -273.7 Q-3.45 -263.0 3.2 -247.65 L5.5 -242.5 5.5 -242.6 Q5.7 -244.55 7.65 -244.5 L10.5 -244.3 10.55 -244.3 11.3 -243.9 11.55 -243.05 Q11.45 -241.65 10.35 -240.85 10.1 -240.65 9.65 -240.65 L7.7 -240.6 Q7.35 -240.15 6.95 -240.3 L6.7 -240.3 Q9.2 -235.6 11.65 -232.65 L12.8 -232.9 12.95 -232.9 15.0 -232.95 15.6 -232.8 16.05 -232.25 16.45 -231.35 16.55 -230.6 16.2 -230.05 15.55 -229.45 15.3 -229.25 Q18.0 -227.4 20.6 -227.4 22.0 -227.55 27.1 -225.7 M134.2 -187.4 L134.6 -186.6 134.6 -185.75 134.15 -185.15 Q132.75 -184.25 132.0 -184.15 L131.8 -184.15 130.4 -184.1 130.1 -184.1 Q129.4 -184.2 129.05 -184.85 128.65 -185.4 128.9 -186.4 129.05 -187.35 129.35 -187.65 129.8 -188.5 130.45 -188.3 L131.05 -188.25 131.75 -188.3 133.45 -188.1 133.9 -187.8 134.2 -187.4 M127.3 -110.25 Q128.55 -109.6 128.55 -109.0 L128.7 -108.4 128.4 -107.85 127.85 -107.15 127.35 -106.85 124.55 -106.55 123.9 -106.75 123.7 -106.85 Q122.35 -107.6 122.9 -108.7 L123.0 -108.95 123.45 -109.7 123.85 -110.15 124.45 -110.35 125.15 -110.45 127.05 -110.35 127.3 -110.25 M64.6 -90.35 Q65.65 -96.1 64.85 -100.2 62.75 -98.45 60.3 -95.75 L60.2 -95.6 55.55 -90.0 55.45 -89.95 55.35 -89.95 54.2 -87.35 54.1 -87.35 Q53.25 -85.3 52.45 -84.35 50.95 -82.1 50.4 -81.05 L50.4 -81.1 50.35 -81.0 Q49.1 -79.25 46.5 -79.5 L46.35 -77.9 62.95 -80.35 64.6 -90.35 M6.15 -82.55 Q5.55 -84.7 4.0 -84.9 L3.55 -85.0 Q3.05 -85.3 2.75 -85.65 L1.65 -86.05 1.45 -85.85 0.85 -85.3 0.65 -85.25 Q-0.55 -81.3 -0.65 -78.2 L-0.2 -76.2 Q0.05 -75.4 0.55 -75.0 L0.8 -74.55 1.35 -74.2 1.45 -74.1 3.15 -72.55 5.0 -72.35 5.25 -72.55 5.35 -72.55 5.7 -72.6 6.1 -72.6 Q7.3 -74.6 7.45 -75.7 7.5 -77.3 7.0 -78.9 L6.5 -80.35 6.5 -80.45 Q6.1 -81.85 6.15 -82.55 M102.9 -74.85 L103.25 -75.45 103.75 -75.8 103.8 -75.8 Q106.1 -76.45 107.45 -75.55 L107.35 -75.55 107.9 -75.05 Q108.1 -74.6 107.9 -74.2 107.7 -73.1 106.45 -72.65 L106.05 -72.6 104.25 -72.6 Q103.8 -72.65 103.55 -72.85 L103.5 -73.0 Q102.8 -73.6 102.9 -74.8 L102.9 -74.85 M94.15 -88.3 Q94.2 -90.0 96.15 -90.25 L98.0 -90.55 98.35 -90.55 Q99.65 -90.15 100.45 -89.35 L100.7 -88.6 100.7 -88.55 100.45 -87.8 99.5 -86.9 99.5 -86.85 Q98.3 -86.1 95.6 -86.05 95.1 -86.05 94.65 -86.45 L94.45 -86.85 Q93.95 -87.45 94.15 -88.3 M-86.65 -220.05 L-87.55 -219.25 Q-87.75 -218.85 -88.25 -218.8 L-90.4 -218.75 -91.15 -218.95 Q-92.1 -219.5 -92.25 -220.95 L-92.0 -221.75 -91.4 -222.25 -91.3 -222.25 -90.1 -222.5 -89.85 -222.5 -87.1 -221.95 Q-86.65 -221.85 -86.45 -221.45 L-86.35 -220.75 -86.35 -220.65 -86.65 -220.05 M-163.9 -152.9 L-163.9 -152.95 -163.9 -153.6 -163.35 -154.2 -162.75 -154.35 -160.15 -154.0 -159.55 -153.75 -159.25 -153.3 Q-158.9 -151.6 -160.45 -150.75 L-160.95 -150.7 -162.1 -150.7 -162.7 -150.95 Q-163.65 -151.45 -163.9 -152.9 M-205.5 -130.7 L-205.1 -130.55 -204.05 -130.55 -203.55 -130.5 Q-202.05 -129.8 -201.35 -129.2 L-201.45 -129.2 Q-201.05 -128.9 -201.0 -128.4 -201.0 -127.9 -201.4 -127.55 L-201.55 -127.3 -201.6 -127.3 -201.75 -127.2 Q-202.2 -126.85 -202.8 -126.6 L-203.4 -126.55 -204.95 -126.55 -205.25 -126.65 Q-206.45 -126.9 -206.9 -128.35 -207.2 -129.65 -206.9 -130.05 -206.45 -130.8 -205.5 -130.7 M-136.5 -77.55 Q-133.9 -77.55 -130.95 -76.0 L-130.9 -76.0 Q-128.1 -74.6 -127.5 -73.6 L-127.35 -72.75 -127.4 -72.75 Q-127.45 -72.2 -127.9 -71.95 L-128.8 -71.75 -133.55 -73.1 -133.7 -73.1 Q-138.05 -74.45 -137.9 -75.5 L-137.9 -75.65 -138.05 -76.3 -137.85 -77.1 Q-137.4 -77.7 -136.7 -77.55 L-136.5 -77.55 M-157.5 -91.45 L-156.7 -91.4 -155.6 -90.9 -155.6 -90.8 -155.45 -90.7 Q-154.8 -90.5 -154.5 -89.1 L-154.5 -89.05 -154.35 -88.1 Q-154.35 -87.6 -154.75 -87.3 L-155.2 -86.9 -155.65 -86.65 -157.55 -86.6 -159.05 -86.6 -159.9 -86.85 -160.3 -87.0 Q-160.8 -87.2 -161.0 -88.5 L-161.0 -88.55 Q-161.3 -89.5 -160.3 -90.2 -159.45 -90.85 -157.5 -91.45 M-29.65 -67.75 L-29.7 -67.85 -30.45 -68.25 Q-31.65 -68.3 -32.9 -69.45 L-33.05 -69.45 Q-34.15 -70.4 -35.25 -72.1 L-35.25 -72.15 -37.2 -74.3 Q-39.7 -76.9 -42.95 -78.7 -47.15 -81.0 -54.35 -82.75 -63.05 -81.25 -65.0 -78.6 -65.55 -77.8 -65.4 -74.65 -65.15 -73.15 -62.7 -69.5 -59.95 -65.5 -59.9 -64.75 L-59.9 -64.95 Q-59.8 -64.25 -60.2 -63.75 L-60.45 -63.55 -59.8 -63.15 -52.9 -64.15 -39.45 -66.2 -29.45 -67.45 -29.65 -67.75 M-61.1 -63.75 L-60.75 -63.75 -60.95 -63.85 -61.15 -64.0 -61.4 -63.25 -61.35 -63.25 -61.2 -63.55 -61.1 -63.75 M-60.7 -63.65 L-60.85 -63.45 -60.45 -63.55 -60.75 -63.75 -60.7 -63.65" fill="#ffff00" fill-opacity="0.5019608" fill-rule="evenodd" stroke="none"/>
      <path d="M26.6 -224.75 Q31.85 -223.05 33.05 -221.65 L35.5 -221.9 Q38.4 -224.35 41.3 -228.0 L46.3 -234.1 46.6 -234.25 45.85 -232.75 Q42.1 -225.5 41.8 -220.55 L41.7 -217.5 41.4 -215.7 40.25 -215.55 Q39.8 -215.95 39.9 -217.2 L39.5 -217.5 35.2 -210.95 Q32.85 -207.25 32.65 -204.75 32.35 -200.2 36.35 -194.9 39.5 -190.65 44.25 -187.7 L55.35 -187.35 58.65 -190.1 61.55 -192.5 Q62.7 -194.35 64.9 -196.85 L69.3 -201.75 Q70.15 -202.8 72.5 -206.8 74.2 -209.9 76.3 -211.2 76.45 -208.75 75.7 -203.15 75.05 -198.0 74.2 -195.05 L73.65 -195.05 Q73.3 -195.45 73.45 -197.05 L73.4 -197.3 73.0 -197.55 Q70.15 -193.8 69.75 -192.85 69.45 -192.2 69.15 -189.45 68.95 -187.75 69.15 -186.1 99.3 -182.65 99.45 -172.6 L99.4 -171.1 Q105.1 -174.2 107.6 -178.35 L111.55 -185.95 112.1 -185.95 Q112.4 -185.25 112.05 -183.05 111.65 -181.15 107.6 -172.25 L105.55 -168.1 105.4 -166.75 Q104.95 -164.15 99.85 -152.0 L99.85 -151.9 101.55 -152.5 Q102.75 -152.25 102.85 -151.55 L101.35 -150.65 100.3 -150.25 99.05 -150.2 93.95 -138.9 Q92.0 -135.25 88.2 -125.8 85.05 -117.7 82.15 -113.0 L81.65 -113.0 Q81.5 -113.95 81.7 -115.45 L79.55 -114.65 79.35 -114.5 Q77.2 -112.05 75.55 -108.8 L73.35 -103.8 72.15 -98.7 73.25 -98.75 Q74.4 -97.25 73.95 -94.3 72.65 -90.9 72.15 -88.9 L70.9 -87.35 Q69.35 -85.35 69.2 -84.0 69.15 -83.7 69.8 -83.45 70.95 -82.85 72.95 -83.0 77.7 -83.2 82.8 -87.3 L83.05 -87.3 79.7 -84.45 79.0 -83.8 Q78.3 -82.95 77.2 -82.2 L73.65 -79.3 72.2 -79.3 Q71.7 -79.3 71.7 -79.7 57.45 -76.9 11.95 -70.95 L-11.2 -67.75 -19.7 -66.65 -27.15 -65.6 -31.3 -65.05 -36.9 -64.35 -56.15 -61.7 -65.05 -60.4 -65.95 -60.35 -67.1 -60.15 Q-71.45 -59.95 -72.05 -60.1 L-75.5 -60.05 Q-79.0 -60.0 -79.2 -60.1 -88.75 -60.0 -89.65 -60.2 -96.8 -60.0 -96.8 -60.25 L-101.15 -60.6 -102.4 -61.0 -103.55 -61.0 -105.75 -63.5 -108.55 -66.5 -109.6 -67.8 Q-110.45 -68.95 -111.2 -69.4 -111.85 -69.9 -111.85 -70.8 -111.9 -71.8 -112.1 -72.1 L-115.4 -74.9 -116.15 -75.6 -119.0 -77.75 -119.0 -78.0 -117.35 -77.6 -117.4 -77.8 -116.65 -77.9 -115.7 -76.95 -113.6 -76.0 Q-110.15 -74.05 -108.85 -73.45 L-108.4 -73.45 Q-108.65 -76.55 -114.5 -81.6 L-120.6 -86.75 -126.65 -90.4 -134.5 -95.2 Q-134.6 -94.7 -135.0 -94.35 -137.15 -95.35 -141.0 -98.55 -145.1 -102.0 -147.05 -102.95 -149.9 -104.55 -153.35 -107.5 L-158.9 -112.25 Q-165.65 -117.4 -179.45 -131.05 L-178.85 -131.05 Q-182.3 -133.5 -187.35 -138.05 L-178.05 -132.1 Q-171.5 -127.85 -168.05 -125.95 -167.2 -126.2 -166.95 -126.95 L-162.75 -126.8 -158.95 -126.55 -156.5 -125.3 -156.65 -124.85 Q-157.3 -124.45 -160.35 -125.25 L-157.65 -123.75 Q-156.1 -123.0 -155.4 -122.75 L-153.15 -122.5 -151.1 -122.5 Q-134.3 -123.55 -129.95 -135.25 -127.75 -141.35 -129.05 -148.3 -129.85 -153.4 -130.9 -158.2 L-134.3 -162.8 -137.9 -167.6 Q-140.5 -170.15 -144.2 -174.8 -150.35 -182.2 -150.65 -184.65 -150.85 -185.4 -152.15 -187.65 -153.5 -189.9 -153.6 -190.65 -157.1 -211.25 -155.65 -221.15 L-156.25 -225.95 -155.45 -225.95 -155.1 -223.85 -155.0 -224.3 -154.2 -224.3 -153.85 -223.45 -154.2 -219.95 Q-151.0 -207.55 -143.8 -199.55 L-138.3 -193.55 -138.15 -194.45 -137.95 -196.95 -138.1 -197.35 Q-132.5 -190.85 -123.8 -185.9 -121.2 -184.3 -118.5 -183.15 L-117.65 -182.65 Q-116.6 -182.35 -115.5 -181.85 -100.9 -176.15 -82.75 -177.2 -73.5 -177.7 -69.7 -180.35 -60.7 -181.75 -54.7 -187.95 L-50.3 -193.45 -48.45 -195.55 -48.45 -196.2 -48.45 -196.35 -47.7 -196.35 -47.6 -196.25 -46.8 -197.0 -47.25 -195.85 -45.6 -194.2 Q-44.15 -192.55 -42.6 -192.2 -31.1 -198.65 -24.9 -209.7 -21.75 -215.35 -17.55 -228.9 -11.0 -246.85 -7.5 -269.1 L-7.45 -269.1 -7.7 -270.2 -7.5 -273.55 -6.55 -273.65 Q-4.65 -262.8 2.0 -247.3 6.75 -236.4 11.45 -231.15 11.85 -231.7 12.9 -231.9 L14.9 -231.95 15.3 -231.05 14.65 -230.4 13.65 -229.85 12.65 -229.9 Q16.6 -226.15 20.6 -226.3 21.85 -226.45 26.6 -224.75 M7.1 -241.85 L6.9 -241.65 Q6.6 -241.6 6.65 -242.6 6.7 -243.5 7.5 -243.5 L10.3 -243.3 Q10.25 -242.45 9.6 -241.9 L7.1 -241.85 M76.0 -211.55 Q75.45 -211.65 75.6 -212.5 75.65 -213.35 76.05 -213.6 L77.2 -213.75 78.85 -213.2 Q79.55 -212.7 79.5 -212.0 L77.9 -211.55 76.0 -211.55 M131.7 -185.5 L130.25 -185.45 Q129.85 -185.5 130.0 -186.3 130.25 -187.55 130.55 -187.15 L131.7 -187.2 133.0 -187.1 133.4 -186.25 Q132.35 -185.55 131.7 -185.5 M124.2 -108.05 L123.9 -108.45 124.4 -109.25 125.25 -109.45 126.7 -109.3 127.35 -108.75 126.9 -108.1 124.5 -107.85 124.2 -108.05 M65.75 -90.3 Q67.1 -97.6 65.45 -102.25 62.7 -100.45 59.4 -96.6 L54.55 -90.85 Q53.95 -90.35 53.0 -88.0 52.1 -85.95 51.35 -85.25 L49.35 -81.85 Q48.15 -80.45 45.45 -81.05 L44.85 -76.55 63.95 -79.4 65.75 -90.3 M3.3 -86.75 Q2.05 -87.6 1.15 -87.35 0.6 -87.15 0.3 -86.55 L-0.2 -86.85 Q-1.8 -81.95 -1.95 -78.35 L-1.4 -75.9 Q-1.0 -74.7 -0.2 -74.2 L0.65 -73.3 2.45 -71.55 5.5 -71.2 5.7 -71.55 6.3 -71.35 6.7 -71.55 Q8.55 -74.45 8.55 -75.8 8.65 -77.5 8.1 -79.45 L7.65 -80.9 Q7.25 -82.15 7.25 -82.75 6.55 -85.9 4.1 -86.2 L3.3 -86.75 M106.7 -74.65 Q106.55 -74.1 105.95 -73.9 L104.25 -73.95 Q104.0 -74.25 104.05 -74.8 L106.7 -74.65 M98.75 -88.05 Q97.85 -87.5 95.45 -87.45 L95.35 -87.7 Q95.1 -87.85 95.3 -88.45 95.35 -89.15 96.3 -89.25 L98.0 -89.5 Q98.95 -89.3 99.45 -88.6 L98.75 -88.05 M-91.2 -221.25 L-90.0 -221.45 -87.6 -220.95 -88.35 -220.15 -90.5 -220.05 Q-91.05 -220.45 -91.2 -221.25 M-162.8 -153.35 L-160.45 -153.1 Q-160.35 -152.4 -161.05 -152.05 L-162.1 -152.05 Q-162.65 -152.4 -162.8 -153.35 M-205.5 -129.55 L-204.1 -129.55 -202.25 -128.5 -202.5 -128.3 Q-202.8 -128.05 -203.3 -127.9 L-205.05 -127.9 Q-205.65 -128.1 -205.75 -128.85 -206.15 -130.05 -205.5 -129.55 M-157.45 -129.05 L-154.35 -129.2 -153.65 -127.85 Q-154.1 -127.15 -155.1 -126.9 L-157.5 -128.0 Q-157.7 -129.05 -157.45 -129.05 M-136.85 -75.7 L-136.85 -76.5 Q-134.35 -76.55 -131.55 -75.1 -129.15 -73.95 -128.65 -73.15 L-133.35 -74.35 Q-136.85 -75.45 -136.85 -75.7 M-157.25 -90.45 L-156.25 -89.95 Q-155.95 -89.7 -155.8 -89.0 L-155.65 -88.2 -155.75 -88.2 -155.95 -88.05 -157.65 -88.0 -159.05 -88.05 -159.65 -88.15 -159.9 -88.75 Q-160.1 -89.65 -157.25 -90.45 M-34.3 -72.85 L-36.4 -75.3 Q-39.05 -78.1 -42.5 -79.9 -46.9 -82.25 -54.35 -84.0 -64.0 -82.5 -66.05 -79.45 -66.85 -78.4 -66.65 -74.7 -66.55 -72.95 -63.8 -69.05 L-61.15 -65.0 Q-61.15 -64.6 -61.95 -64.55 -62.8 -64.55 -62.65 -64.2 -62.65 -63.5 -61.35 -62.8 L-60.2 -62.1 -52.85 -63.15 -39.35 -65.2 -28.05 -66.6 -28.25 -67.55 Q-28.45 -68.55 -29.0 -68.85 -29.65 -69.45 -30.45 -69.55 -31.3 -69.7 -32.3 -70.45 -33.2 -71.3 -34.3 -72.85" fill="#ffffff" fill-rule="evenodd" stroke="none"/>
      <path d="M8.1 -121.35 L8.75 -121.4 10.2 -121.2 13.15 -120.8 13.2 -120.8 Q18.05 -119.9 21.05 -117.65 28.1 -113.9 30.85 -107.0 32.0 -104.25 32.5 -100.55 L38.85 -100.35 Q39.5 -100.3 39.9 -99.85 L40.95 -98.7 41.95 -97.8 42.4 -97.25 42.55 -96.6 42.55 -95.35 42.35 -94.55 41.9 -94.1 44.45 -94.1 45.05 -94.75 Q45.5 -95.35 45.55 -95.85 L45.8 -96.65 Q46.05 -97.05 46.45 -97.2 L47.5 -97.65 48.5 -98.15 49.0 -98.5 49.6 -98.6 Q63.1 -98.2 65.0 -97.2 L65.05 -97.2 66.35 -96.2 66.8 -95.7 67.05 -94.75 66.7 -93.9 66.8 -93.8 67.35 -93.05 67.95 -92.65 67.95 -92.7 68.8 -92.05 79.9 -91.6 Q80.45 -91.55 80.9 -91.15 L83.25 -88.65 83.4 -88.4 84.05 -87.25 84.0 -87.25 84.65 -85.35 85.15 -84.0 Q85.6 -82.55 85.6 -79.65 85.7 -78.6 83.5 -73.2 L81.6 -68.7 81.6 -68.5 80.5 -63.15 Q79.65 -59.55 79.45 -57.7 L79.45 -57.55 Q79.2 -56.5 78.25 -55.9 L77.4 -55.7 Q76.9 -55.7 76.55 -56.0 76.15 -56.3 76.05 -56.7 75.65 -57.8 75.6 -59.65 L75.6 -59.7 75.6 -62.05 75.25 -63.8 75.15 -64.55 75.35 -67.6 Q75.3 -70.35 72.6 -73.45 69.15 -77.5 64.0 -77.4 L49.8 -77.4 49.1 -77.15 36.4 -76.0 Q34.2 -74.45 28.0 -74.0 L20.4 -73.25 20.35 -73.25 Q17.9 -72.55 14.3 -70.2 14.0 -70.0 13.65 -69.95 10.0 -69.5 8.85 -70.85 L8.35 -71.4 5.85 -71.35 1.5 -70.3 1.3 -70.25 -1.25 -69.95 -2.15 -68.6 -2.15 -68.55 -2.45 -67.1 -2.5 -66.9 Q-2.95 -64.85 -5.0 -64.05 L-5.65 -63.95 Q-9.2 -64.25 -10.5 -65.5 L-10.6 -65.55 -11.95 -66.65 -26.45 -65.7 Q-29.95 -64.8 -32.45 -63.4 L-32.5 -63.4 Q-35.85 -61.65 -38.1 -61.0 -42.0 -59.95 -48.95 -59.95 -54.05 -59.95 -59.25 -58.5 L-59.3 -58.5 -59.45 -58.45 -59.5 -58.4 -63.5 -57.1 Q-64.5 -56.6 -65.35 -56.2 L-65.7 -55.7 Q-66.65 -54.3 -66.7 -53.15 -66.7 -52.6 -67.05 -52.15 -67.4 -47.45 -66.65 -42.35 L-66.65 -42.15 -66.65 -39.45 Q-66.65 -39.1 -66.8 -38.8 L-67.2 -38.3 -67.5 -38.05 Q-67.85 -37.75 -68.35 -37.7 L-69.25 -37.95 -69.85 -38.65 -71.5 -44.2 -71.75 -43.6 -72.6 -42.85 Q-73.05 -42.55 -73.6 -42.6 -74.15 -42.65 -74.5 -43.05 -75.0 -43.35 -75.15 -43.9 L-75.0 -45.0 -74.2 -45.7 -73.35 -46.0 -72.4 -45.95 -71.9 -45.6 -72.05 -46.1 Q-73.3 -50.45 -75.1 -53.1 L-75.15 -53.2 -75.25 -53.15 -75.85 -53.15 Q-86.85 -55.05 -94.95 -50.9 -97.5 -49.6 -99.2 -47.95 -99.65 -47.6 -100.2 -47.55 -100.8 -47.55 -101.2 -47.95 L-104.9 -50.75 -104.85 -50.75 Q-109.9 -54.15 -113.0 -53.75 -115.0 -53.4 -115.6 -51.05 -115.75 -50.5 -116.25 -50.15 L-117.3 -49.95 Q-117.9 -50.05 -118.25 -50.5 -119.25 -51.75 -120.3 -52.4 L-120.9 -53.2 -121.25 -54.25 Q-123.8 -56.25 -124.7 -57.8 -125.35 -58.8 -125.7 -60.05 L-125.95 -60.2 Q-126.35 -60.6 -126.4 -61.15 -126.5 -61.7 -126.2 -62.15 L-126.1 -62.3 -126.15 -63.8 Q-126.95 -66.25 -126.95 -70.1 -127.1 -71.45 -125.3 -73.25 -124.6 -75.1 -123.5 -76.15 L-122.85 -76.55 -106.35 -81.0 -106.25 -81.0 -106.2 -81.05 Q-105.1 -81.5 -104.7 -81.95 L-104.7 -82.0 Q-104.45 -82.55 -104.45 -83.85 L-104.95 -83.85 Q-105.45 -83.85 -105.8 -84.1 L-106.35 -84.85 Q-106.55 -85.3 -106.4 -85.75 L-105.85 -86.5 Q-104.15 -87.9 -102.15 -91.1 L-102.0 -91.3 Q-99.0 -94.65 -91.65 -95.6 L-91.4 -95.6 -81.15 -95.35 -80.35 -95.1 Q-76.85 -92.75 -75.85 -90.95 -68.6 -91.5 -65.8 -92.25 -60.4 -93.7 -58.95 -97.3 L-59.05 -99.85 -59.05 -99.9 Q-59.1 -102.8 -57.45 -104.2 -56.05 -105.5 -53.55 -106.85 L-51.45 -107.9 -51.45 -110.1 -51.0 -111.15 Q-50.55 -111.6 -49.95 -111.6 L-48.35 -111.3 -48.0 -111.2 Q-47.4 -111.85 -47.0 -112.9 L-47.0 -112.85 Q-45.85 -116.3 -45.25 -117.05 -41.9 -122.5 -26.6 -123.95 L-26.85 -123.65 -21.9 -124.25 -8.15 -124.2 -7.5 -124.05 Q-6.9 -123.9 -5.0 -120.95 L-4.45 -120.15 -3.55 -119.1 -2.1 -119.1 -3.35 -119.65 -2.65 -119.85 Q2.95 -121.3 7.95 -121.3 L8.1 -121.35 M19.8 -51.95 Q20.2 -52.85 21.65 -53.15 L23.55 -53.1 24.35 -52.5 24.85 -51.75 25.1 -51.2 25.05 -50.6 24.8 -49.55 24.55 -48.95 24.05 -48.55 23.15 -48.1 22.25 -47.95 Q21.8 -48.0 21.5 -48.3 L20.25 -49.6 19.75 -50.55 19.6 -51.25 19.8 -51.95 M27.15 -42.4 L28.15 -42.65 29.0 -42.2 Q31.5 -39.75 31.2 -39.1 31.2 -37.8 30.35 -36.8 29.55 -35.85 28.35 -35.5 L27.55 -35.5 26.05 -35.9 Q24.6 -35.75 24.6 -38.7 24.45 -40.75 27.15 -42.4 M29.3 -26.35 L30.55 -26.6 31.25 -26.4 35.1 -23.45 35.55 -22.55 35.35 -21.6 34.3 -20.0 34.3 -19.95 Q33.25 -18.6 32.1 -18.2 L31.25 -18.1 30.5 -18.55 28.7 -20.45 28.7 -20.4 Q27.45 -21.9 27.55 -23.1 27.55 -25.95 29.25 -26.35 L29.3 -26.35 M9.1 -16.0 Q11.3 -15.25 12.25 -12.3 L12.3 -11.5 11.8 -9.25 11.25 -8.4 Q10.85 -8.1 10.4 -8.1 L10.45 -8.05 10.35 -7.95 Q9.6 -7.6 9.0 -7.4 L8.05 -7.45 Q6.3 -8.1 5.9 -8.7 5.05 -9.6 5.05 -11.95 5.05 -14.55 6.3 -15.3 6.7 -15.65 8.2 -16.05 L9.1 -16.0 M24.7 -13.05 L25.25 -12.25 Q26.65 -7.35 29.05 -3.65 29.4 -3.15 29.3 -2.55 29.0 -1.0 28.3 -0.25 L28.2 -0.15 Q27.6 0.5 26.05 1.1 L24.95 1.05 Q21.45 -0.45 21.65 -5.0 21.8 -9.05 21.45 -9.9 21.2 -10.4 21.35 -10.9 21.85 -13.6 23.8 -13.35 L24.7 -13.05 M57.75 -3.0 L58.25 -2.15 Q58.4 -1.65 58.15 -1.15 L57.45 0.85 57.45 0.8 56.3 3.5 55.8 4.0 55.05 4.15 52.5 4.15 51.4 4.05 Q50.9 4.0 50.55 3.2 L50.4 2.4 50.3 0.4 Q50.1 -2.35 53.7 -3.0 L53.65 -3.0 56.75 -3.35 Q57.3 -3.35 57.75 -3.0 M65.7 -14.05 L66.25 -13.3 67.65 -7.35 Q68.3 -4.05 69.15 -2.25 L69.3 -1.65 69.2 -1.05 Q68.9 -0.15 67.9 0.65 L65.95 1.6 64.85 1.5 Q63.4 0.95 62.4 -2.95 L62.4 -3.0 Q61.8 -5.55 61.8 -6.7 61.8 -8.3 62.15 -10.2 L62.55 -13.0 Q62.6 -13.55 63.05 -13.95 63.5 -14.35 64.05 -14.35 L64.8 -14.35 65.7 -14.05 M82.6 1.85 Q82.7 1.3 83.15 1.0 83.55 0.65 84.05 0.65 L84.8 0.65 Q85.4 0.65 85.85 1.05 86.25 1.45 86.3 2.05 86.75 7.95 91.55 18.8 L91.65 19.5 Q91.55 20.8 91.15 21.4 90.6 22.65 87.9 22.65 85.4 22.65 85.05 21.95 L84.7 21.35 84.65 20.6 83.35 12.05 Q82.3 6.2 82.3 4.9 L82.5 2.3 82.6 1.85 M83.25 30.55 L85.3 30.7 Q85.85 30.75 86.2 31.2 86.8 31.9 87.25 33.15 L87.3 33.2 87.65 35.15 87.6 35.65 Q86.85 37.85 85.2 38.55 L84.6 38.65 84.0 38.55 Q82.35 37.9 81.75 37.2 L81.75 37.15 Q80.55 35.95 80.55 33.65 L80.6 32.55 80.6 32.15 80.65 31.8 Q80.8 31.3 81.1 31.15 81.7 30.55 82.3 30.7 L82.55 30.65 83.15 30.6 83.25 30.55 M92.65 59.25 Q92.05 60.45 89.75 60.65 89.1 61.3 88.2 60.8 L87.9 60.65 Q86.9 60.5 86.9 57.65 86.9 54.4 88.85 54.5 L88.9 54.45 90.95 54.7 91.9 55.35 Q92.9 56.9 92.9 58.4 L92.65 59.25 M90.85 64.1 Q91.3 63.65 91.9 63.65 L92.65 63.65 Q93.2 63.65 93.65 64.05 94.1 64.4 94.15 65.0 94.4 66.95 96.6 71.7 L96.6 71.65 99.85 78.95 99.9 79.65 99.05 82.0 Q98.35 83.0 96.95 83.55 L96.25 83.65 Q95.85 83.6 95.55 83.4 93.4 82.2 91.65 74.0 L91.65 73.9 90.4 66.3 90.4 65.15 Q90.4 64.55 90.85 64.1 M43.55 36.6 L43.3 37.5 43.1 38.15 43.05 38.2 42.75 39.3 42.35 40.0 41.6 40.4 40.35 40.65 39.5 40.55 Q39.05 40.35 38.8 40.0 38.05 39.05 38.05 35.65 38.05 35.05 38.5 34.6 38.95 34.15 39.55 34.15 L40.95 34.25 Q42.25 34.5 43.25 35.7 L43.55 36.6 M42.8 40.65 L43.8 40.65 Q44.4 40.65 44.85 41.1 45.95 42.15 47.8 45.1 L47.8 45.15 Q49.7 48.3 49.55 48.8 L49.45 50.65 Q49.15 51.85 48.5 51.8 47.95 52.25 47.5 52.1 L47.2 52.15 46.25 51.9 Q43.8 50.35 42.2 47.75 40.7 45.45 40.8 44.3 L40.85 43.95 41.35 41.8 Q41.45 41.3 41.9 41.0 42.3 40.65 42.8 40.65 M56.55 44.2 L56.3 43.55 56.4 42.85 Q56.95 40.8 61.45 39.7 L62.35 39.75 63.05 40.35 Q64.65 42.75 64.55 44.15 L64.5 44.65 Q64.1 46.0 61.95 47.6 L61.15 47.9 60.3 47.7 Q57.65 46.1 56.55 44.2 M75.9 45.15 L76.25 45.7 76.75 47.2 76.75 48.15 Q76.25 49.55 75.2 50.45 L75.15 50.5 Q74.5 51.0 73.1 51.55 L72.3 51.65 Q70.8 51.35 70.4 51.0 L70.2 50.9 Q69.3 50.4 69.3 47.8 69.3 44.95 71.4 44.35 L71.45 44.35 Q72.85 43.75 75.4 44.75 L75.9 45.15 M0.1 38.45 Q-0.35 38.9 -0.95 38.9 L-2.2 38.9 -2.9 38.75 -3.45 38.25 Q-4.2 37.25 -4.2 34.65 -4.2 34.05 -3.75 33.6 -3.3 33.15 -2.7 33.15 L-1.9 33.1 -1.6 33.1 Q-0.55 33.25 0.55 33.85 L1.1 34.4 1.3 35.15 Q1.3 37.35 0.1 38.45 M39.9 59.2 L39.95 59.3 Q40.8 61.25 42.55 67.9 44.25 74.35 45.7 77.85 L45.8 78.5 Q45.7 79.8 45.3 80.4 44.75 81.65 42.05 81.65 39.55 81.65 39.2 80.95 L38.85 80.35 38.75 79.7 Q38.5 78.7 38.5 77.4 L38.5 77.35 38.55 74.4 37.6 67.6 Q36.55 61.6 36.55 60.3 L36.65 58.9 Q37.15 57.05 38.4 57.7 39.1 57.45 39.7 58.7 L39.9 59.2 M5.9 60.7 L6.75 60.9 6.95 60.95 Q8.25 61.45 8.85 62.1 9.3 62.55 9.3 63.15 9.3 66.1 7.6 67.7 7.15 68.15 6.55 68.15 4.5 68.15 4.0 67.75 L4.05 67.75 Q2.8 67.45 2.8 64.55 2.8 62.05 4.05 61.3 L4.0 61.35 Q4.55 60.9 5.1 60.75 L5.9 60.7 M63.3 57.85 Q64.6 59.85 65.05 62.15 65.15 62.75 64.8 63.25 64.1 64.65 61.05 64.65 60.5 64.65 60.1 64.3 L59.35 63.55 59.2 63.2 Q59.05 63.0 59.05 60.9 L59.15 58.75 59.35 58.3 Q59.45 57.8 59.9 57.5 60.3 57.15 60.8 57.15 L62.05 57.15 62.75 57.35 63.3 57.85 M62.65 66.6 Q62.8 66.15 63.2 65.9 63.6 65.65 64.05 65.65 L64.8 65.65 Q65.3 65.65 65.7 65.95 L66.25 66.75 Q66.55 67.8 70.7 74.6 74.4 80.75 73.8 85.35 73.75 85.9 73.3 86.3 L72.5 86.65 72.65 86.7 70.95 87.6 69.95 87.55 69.25 86.9 Q67.3 83.4 65.4 77.55 63.75 72.55 62.6 67.5 62.5 67.05 62.65 66.6 M-113.9 -51.2 Q-113.55 -51.7 -112.95 -51.8 -111.8 -52.1 -109.95 -51.4 L-107.9 -50.35 -107.3 -49.65 Q-107.1 -49.2 -107.25 -48.7 -107.35 -48.25 -107.75 -47.95 -108.1 -47.65 -108.6 -47.6 L-112.35 -47.35 Q-112.9 -47.3 -113.35 -47.65 L-113.9 -48.6 -114.15 -50.1 Q-114.3 -50.7 -113.9 -51.2 M-114.45 -28.0 L-113.8 -30.1 -113.8 -30.15 Q-112.8 -32.4 -110.8 -33.2 L-109.9 -33.3 -109.15 -32.9 Q-108.45 -32.25 -107.9 -30.95 L-107.9 -31.0 Q-107.4 -29.8 -107.45 -29.2 L-107.45 -29.0 -107.7 -27.15 Q-107.8 -26.65 -108.15 -26.3 -109.3 -25.05 -111.55 -24.85 -112.3 -24.25 -113.0 -24.7 L-113.05 -24.75 Q-114.45 -24.85 -114.45 -27.85 L-114.45 -28.0 M-98.7 -18.1 L-97.75 -18.15 -97.45 -18.15 Q-96.3 -18.0 -95.35 -17.3 L-94.85 -16.75 -94.1 -15.25 -93.95 -14.5 Q-94.0 -14.1 -94.2 -13.75 L-94.7 -13.0 -95.15 -12.55 -95.75 -12.35 -98.0 -12.1 -98.8 -12.25 -99.45 -12.75 Q-100.2 -13.7 -100.2 -16.6 L-99.75 -17.65 -98.7 -18.1 M-92.55 -9.2 Q-92.0 -8.95 -91.75 -8.35 L-90.45 -4.6 -90.45 -4.55 Q-89.6 -2.0 -89.45 -0.5 -89.4 0.05 -89.7 0.5 -90.4 1.75 -93.0 2.15 L-93.85 2.0 -94.5 1.4 -95.6 -0.8 -95.65 -0.85 Q-96.2 -2.3 -96.2 -4.2 -96.2 -8.7 -93.65 -9.25 L-92.55 -9.2 M-61.2 -56.55 Q-61.2 -57.15 -60.85 -57.55 L-59.9 -58.05 -59.8 -58.05 -58.9 -58.0 -57.7 -57.15 Q-57.4 -56.7 -57.45 -56.15 -57.55 -55.6 -57.95 -55.2 -58.4 -54.85 -58.95 -54.85 L-59.7 -54.85 Q-60.3 -54.85 -60.75 -55.3 -61.2 -55.75 -61.2 -56.35 L-61.2 -56.55 M-64.7 -36.15 Q-63.7 -34.7 -63.7 -32.35 -63.7 -31.75 -64.15 -31.3 -65.0 -30.4 -66.3 -30.15 -66.95 -29.45 -67.9 -29.95 L-68.2 -30.1 Q-69.2 -30.25 -69.2 -33.1 -69.2 -35.3 -68.7 -35.85 L-68.45 -36.15 -68.25 -36.4 -67.2 -36.85 -65.95 -36.85 -65.25 -36.65 -64.7 -36.15 M-69.6 -28.3 Q-66.85 -29.05 -65.45 -26.6 -64.45 -24.95 -64.45 -21.1 L-64.55 -18.5 -64.6 -18.45 Q-64.7 -17.95 -65.7 -16.5 L-66.25 -16.0 -66.95 -15.85 -68.95 -15.85 Q-69.55 -15.85 -70.0 -16.3 -70.45 -16.75 -70.45 -17.35 -70.45 -22.15 -71.1 -23.85 L-71.15 -24.75 -70.65 -27.15 -70.3 -27.85 -69.6 -28.3 M-44.4 -19.8 Q-44.45 -22.3 -42.0 -24.0 -40.05 -25.45 -39.0 -24.35 -37.9 -23.9 -37.9 -21.6 L-37.95 -18.95 -37.95 -18.9 Q-38.55 -15.75 -40.95 -15.95 -43.95 -15.95 -44.35 -18.15 L-44.4 -18.55 -44.4 -19.8 M-51.2 -5.05 Q-48.5 -4.6 -47.75 -2.35 -47.6 -1.85 -47.75 -1.35 L-48.2 -0.05 -48.25 0.0 Q-48.85 1.65 -50.0 1.85 L-50.45 1.9 -52.8 1.5 Q-53.95 1.1 -53.95 -1.7 -53.95 -4.55 -52.6 -4.85 L-52.5 -4.9 -51.45 -5.1 -51.2 -5.05 M-41.95 -5.35 L-41.2 -5.35 Q-40.65 -5.35 -40.25 -5.0 L-39.7 -4.15 Q-39.6 -6.0 -38.95 -6.9 -38.5 -7.75 -37.1 -8.45 L-36.25 -8.6 -34.0 -8.35 Q-33.45 -8.3 -33.05 -7.85 -32.7 -7.4 -32.7 -6.85 L-32.25 -4.55 -32.2 -4.0 -32.45 -2.15 -32.7 -1.5 Q-33.4 -0.45 -34.75 0.25 L-35.65 0.4 -38.25 -0.2 -38.3 -0.25 -39.05 -0.9 Q-38.7 1.45 -38.7 2.9 L-38.75 5.05 Q-38.7 5.45 -39.0 6.4 -39.2 6.95 -39.75 7.25 L-40.75 7.75 -41.35 7.9 -42.0 7.8 Q-43.6 7.15 -44.2 6.35 -45.2 5.25 -45.2 2.9 -45.25 1.35 -44.2 -1.35 L-43.45 -3.85 -43.0 -4.9 Q-42.55 -5.35 -41.95 -5.35 M-34.2 -38.95 Q-33.6 -38.95 -33.15 -38.5 -32.35 -37.7 -32.15 -36.65 L-32.25 -35.8 -32.55 -35.1 -33.1 -34.45 Q-33.45 -34.2 -33.9 -34.2 L-35.7 -34.15 -36.2 -34.2 Q-37.4 -34.15 -37.4 -36.45 -37.4 -38.4 -35.9 -38.8 L-34.2 -38.95 M-17.7 -12.55 L-15.65 -12.3 Q-15.2 -12.2 -14.9 -11.9 -13.35 -10.35 -13.45 -8.95 L-13.5 -8.55 -14.0 -6.7 -14.3 -6.15 -14.75 -5.75 -15.75 -5.25 -16.4 -5.1 -17.0 -5.2 Q-18.45 -5.8 -18.6 -5.95 L-18.9 -6.2 Q-19.7 -6.85 -19.7 -9.35 -19.7 -12.6 -17.75 -12.5 L-17.7 -12.55 M-37.15 44.1 Q-36.15 45.05 -35.5 46.95 -35.35 47.4 -35.5 47.9 L-36.0 49.4 -36.1 49.6 Q-36.55 50.6 -37.95 51.1 L-38.65 51.15 Q-40.35 50.9 -41.45 49.7 L-41.45 49.65 Q-42.55 48.45 -42.45 47.55 L-42.4 47.25 -41.9 44.85 -41.4 44.0 Q-41.0 43.65 -40.45 43.65 L-38.2 43.65 Q-37.6 43.65 -37.15 44.1 M-6.9 34.1 Q-5.45 35.55 -5.45 37.4 L-5.5 37.9 Q-5.9 39.25 -8.05 40.85 -8.45 41.15 -8.95 41.15 L-11.2 41.15 -11.9 41.0 -13.1 40.05 Q-13.45 39.85 -13.45 37.4 -13.45 35.0 -12.6 34.3 L-12.55 34.25 Q-12.45 33.95 -10.9 33.5 L-10.3 33.4 -7.8 33.65 Q-7.25 33.7 -6.9 34.1 M-56.2 18.65 Q-55.65 18.65 -55.2 19.0 -54.8 19.35 -54.7 19.9 L-54.55 20.95 Q-53.95 21.65 -54.3 22.45 L-54.35 22.65 Q-54.5 23.9 -57.45 23.9 L-59.3 23.75 -59.2 25.4 Q-59.0 25.75 -60.45 27.85 L-60.5 27.85 -62.5 30.1 -63.05 30.35 -63.65 30.4 -66.1 29.8 -66.15 29.75 Q-67.45 29.2 -67.45 26.4 -67.45 24.1 -66.1 22.85 L-64.15 21.6 -63.25 21.4 -61.0 21.65 -60.9 21.7 -60.95 21.55 -60.8 20.85 Q-60.2 19.3 -58.75 18.9 L-58.7 18.85 -56.2 18.65 M-80.4 16.25 L-81.0 16.6 -81.7 16.65 -82.55 16.5 -82.7 17.6 -82.75 17.9 Q-83.15 19.15 -84.75 20.0 L-85.65 20.15 -86.5 20.0 -87.9 20.05 -88.2 19.9 Q-89.2 19.75 -89.2 16.9 -89.2 14.15 -87.6 13.5 L-87.55 13.45 -85.2 12.95 -84.65 12.95 -84.7 11.9 Q-84.7 11.3 -84.25 10.85 -83.8 10.4 -83.2 10.4 L-82.2 10.4 Q-81.75 10.4 -81.4 10.65 L-79.4 11.9 -78.8 12.65 Q-78.6 13.1 -78.75 13.6 -79.25 15.1 -80.4 16.25 M-76.7 40.2 L-76.1 40.4 -75.7 40.85 Q-74.7 42.3 -74.7 44.65 -74.7 45.25 -75.15 45.7 L-75.9 46.45 Q-76.35 46.9 -76.95 46.9 L-78.35 46.9 Q-79.0 47.55 -79.9 47.05 L-80.2 46.9 Q-81.2 46.75 -81.2 43.9 -81.2 41.6 -80.15 40.85 L-80.1 40.8 Q-79.15 39.8 -76.7 40.2 M-50.65 46.75 L-50.4 44.95 Q-50.35 44.4 -49.9 44.05 -49.5 43.65 -48.95 43.65 L-48.2 43.65 Q-47.65 43.65 -47.2 44.0 -46.8 44.35 -46.7 44.9 L-45.6 49.75 -44.2 55.35 Q-44.1 55.95 -44.45 56.5 L-45.35 57.65 Q-46.0 58.35 -47.1 58.6 L-47.95 58.55 Q-48.4 58.4 -48.65 58.05 -49.55 56.85 -50.2 54.65 L-50.2 54.7 Q-50.95 52.4 -50.95 50.65 L-50.7 46.8 -50.65 46.75 M-41.25 59.9 L-39.8 60.1 -39.3 59.95 -38.4 60.2 Q-37.45 60.3 -37.45 63.15 L-37.5 65.15 -37.7 65.95 -38.05 66.5 Q-38.55 67.4 -39.75 68.0 L-40.45 68.15 -43.0 67.8 Q-44.45 67.45 -44.45 64.55 -44.45 62.4 -43.9 61.55 -43.6 60.8 -42.1 60.05 L-41.25 59.9 M-52.95 60.15 L-52.25 60.35 -51.7 60.85 Q-50.7 62.3 -50.7 64.65 -50.7 65.25 -51.15 65.7 L-51.9 66.45 Q-52.35 66.9 -52.95 66.9 L-54.35 66.9 Q-55.0 67.55 -55.9 67.05 L-56.2 66.9 Q-57.2 66.75 -57.2 63.9 -57.2 61.1 -55.45 60.5 L-52.95 60.15 M-68.7 53.15 Q-68.7 56.1 -70.4 57.7 -70.85 58.15 -71.45 58.15 -73.5 58.15 -74.0 57.75 L-73.95 57.75 Q-75.2 57.45 -75.2 54.55 -75.2 52.05 -73.95 51.3 L-74.0 51.35 Q-73.45 50.9 -72.9 50.75 L-72.1 50.7 -71.25 50.9 -71.05 50.95 Q-69.75 51.45 -69.15 52.1 -68.7 52.55 -68.7 53.15 M-77.45 57.4 Q-77.05 57.1 -76.55 57.1 -74.7 56.65 -74.7 60.15 -74.7 62.5 -75.65 63.4 L-75.85 63.55 -77.5 64.85 -78.2 65.15 -78.95 65.1 Q-80.8 64.45 -81.2 64.0 L-81.25 63.95 Q-82.45 63.0 -82.45 60.55 -82.45 57.4 -80.45 57.45 L-79.25 57.4 -77.45 57.4 M-64.65 68.85 L-63.65 70.25 -63.6 70.3 Q-62.7 71.6 -62.5 72.2 -62.4 72.5 -62.45 72.85 L-62.7 73.5 -64.05 75.05 -64.05 75.0 Q-65.2 76.2 -66.05 76.35 L-66.6 76.4 -69.1 76.15 Q-69.65 76.1 -70.0 75.7 L-70.45 74.8 Q-70.65 72.55 -70.1 71.4 -69.35 69.25 -66.45 68.25 -65.95 68.05 -65.45 68.25 -64.95 68.4 -64.65 68.85 M-48.9 80.15 Q-46.8 83.75 -46.2 90.55 -46.15 91.05 -46.45 91.5 L-47.35 92.65 Q-48.0 93.35 -49.1 93.6 L-49.95 93.55 Q-50.4 93.4 -50.65 93.05 -52.95 89.95 -52.95 83.4 L-52.7 81.05 -52.35 80.25 Q-52.05 79.8 -51.55 79.7 L-50.55 79.45 -49.6 79.55 -48.9 80.15 M-7.8 50.15 Q-7.45 50.6 -7.45 51.15 L-7.05 52.05 Q-6.4 53.65 -6.45 54.15 L-6.5 54.65 -6.6 54.9 Q-6.5 55.55 -7.0 56.2 L-7.15 56.35 Q-7.65 57.15 -10.1 57.15 -12.6 57.15 -13.55 55.7 L-14.35 53.9 Q-14.55 53.35 -14.3 52.85 -13.45 50.7 -12.6 50.25 -11.5 49.3 -8.75 49.65 L-7.8 50.15 M-5.85 59.85 L-5.75 59.8 -3.7 59.95 Q-3.2 60.0 -2.8 60.4 L-2.4 60.85 -2.35 60.95 -1.5 62.45 -1.45 62.9 Q-1.35 65.0 -3.75 66.25 L-4.85 66.35 Q-8.45 65.3 -8.2 62.9 L-8.15 62.65 -7.9 61.15 Q-7.85 60.6 -7.4 60.25 -7.0 59.9 -6.45 59.9 L-5.85 59.85 M-13.2 73.05 Q-9.2 76.35 -9.2 86.65 L-9.45 87.5 -10.35 88.65 Q-11.0 89.35 -12.1 89.6 L-13.0 89.55 Q-14.9 88.8 -15.95 86.95 L-15.95 86.9 Q-16.75 85.45 -16.7 84.3 L-16.4 79.3 Q-16.15 76.1 -16.4 74.4 L-16.3 73.55 -15.75 72.9 Q-15.4 72.65 -14.95 72.65 L-14.2 72.65 Q-13.65 72.65 -13.2 73.05 M-28.55 72.55 Q-26.45 77.4 -26.45 81.4 L-26.45 81.65 -26.25 81.65 -24.0 81.9 Q-23.45 81.95 -23.05 82.4 -22.7 82.85 -22.7 83.4 L-22.5 85.2 -22.45 85.65 -22.45 90.15 -22.65 90.95 -23.25 91.5 -24.75 92.25 -25.7 92.4 Q-28.5 91.9 -29.2 89.7 L-29.45 87.3 Q-29.45 85.2 -28.9 83.85 L-28.85 83.8 -28.75 83.6 -30.0 83.9 -30.6 83.85 -31.2 83.55 Q-32.75 82.15 -33.15 80.85 L-33.2 80.75 -33.45 77.55 -33.2 75.25 -33.15 75.15 Q-32.65 73.15 -30.8 71.9 L-29.95 71.65 -29.15 71.9 Q-28.75 72.15 -28.55 72.55 M-104.35 29.95 Q-102.0 26.2 -100.05 24.95 L-99.0 24.65 Q-98.45 24.7 -98.05 25.15 -97.7 25.6 -97.7 26.15 L-97.8 31.45 -97.8 31.55 Q-98.55 35.6 -101.75 37.25 L-102.4 37.4 -104.6 37.35 Q-106.45 37.4 -106.45 34.15 -106.6 33.45 -104.35 29.95 M-116.4 30.9 L-117.0 30.8 -118.25 30.3 -118.85 29.9 -119.15 29.25 -119.4 28.15 -119.4 27.6 -119.15 25.7 Q-119.1 25.15 -118.7 24.8 -118.25 24.4 -117.7 24.4 -114.35 24.4 -113.4 25.6 L-113.0 26.2 -112.75 26.95 Q-112.6 27.4 -112.75 27.9 -113.15 29.45 -115.75 30.75 L-116.4 30.9 M-112.6 40.15 L-112.5 40.1 -111.45 39.9 -111.2 39.95 Q-107.75 40.55 -107.95 43.15 L-107.95 43.4 -108.2 44.7 Q-108.05 46.2 -109.95 46.85 L-110.45 46.9 -111.7 46.85 -111.25 48.7 -111.25 49.45 -112.65 54.65 Q-113.45 57.45 -113.45 58.8 -113.45 61.7 -114.45 61.75 L-115.1 61.9 -115.95 62.15 -117.45 62.15 -118.05 62.5 -118.35 62.55 Q-119.8 63.05 -120.3 61.1 L-120.45 59.55 Q-120.55 57.05 -117.45 51.4 -114.7 46.1 -113.95 45.9 L-113.55 45.7 Q-113.95 44.9 -113.95 43.3 -113.95 40.45 -112.6 40.15 M-90.1 35.7 L-89.25 35.9 -89.05 35.95 Q-87.75 36.45 -87.15 37.1 -86.7 37.55 -86.7 38.15 -86.7 41.1 -88.4 42.7 -88.85 43.15 -89.45 43.15 L-92.0 42.75 -91.95 42.75 Q-93.2 42.45 -93.2 39.55 -93.2 37.05 -91.95 36.3 L-92.0 36.35 Q-91.45 35.9 -90.9 35.75 L-90.1 35.7 M-93.7 56.85 Q-92.7 61.55 -92.7 63.9 -92.7 65.9 -93.45 67.3 L-93.55 67.4 -94.6 69.1 -95.1 69.65 -95.75 69.9 -97.35 70.1 -98.05 70.5 -98.35 70.55 Q-99.8 71.05 -100.3 69.1 L-100.45 67.55 Q-100.5 66.55 -98.95 62.1 L-98.95 62.05 Q-97.55 58.05 -97.45 57.05 -97.4 56.45 -96.95 56.05 L-95.95 55.65 -95.2 55.65 Q-94.65 55.65 -94.25 56.0 -93.85 56.3 -93.7 56.85 M-91.4 70.5 L-90.55 70.25 -90.7 67.55 Q-90.7 65.25 -90.15 64.2 -89.55 62.9 -88.0 62.3 L-87.25 62.15 -86.55 62.45 Q-84.5 64.0 -83.9 64.85 -83.2 65.8 -83.2 67.15 -83.2 69.05 -83.45 69.85 L-83.4 69.75 -84.05 71.5 -84.7 72.2 Q-83.8 73.7 -83.45 76.2 L-83.5 76.9 -83.65 77.3 -83.05 77.3 Q-82.0 77.35 -81.15 78.6 -80.85 79.1 -80.95 79.65 L-81.2 81.15 -81.6 81.95 Q-81.95 82.3 -82.4 82.4 L-83.65 82.65 -84.5 82.55 -85.2 82.0 Q-85.9 81.0 -85.95 79.1 L-86.75 79.15 Q-89.9 78.65 -92.35 72.45 L-92.4 71.65 -92.05 70.95 -91.4 70.5 M-102.55 56.8 L-101.85 57.45 Q-101.65 57.9 -101.7 58.4 L-102.55 65.1 -103.45 71.95 -103.7 72.5 Q-104.4 73.75 -107.0 74.15 L-107.9 74.0 -109.1 73.05 Q-109.45 72.85 -109.45 70.4 -109.5 68.85 -107.55 63.75 -105.55 58.4 -104.3 57.15 -103.95 56.75 -103.45 56.7 L-102.55 56.8" fill="#ffff51" fill-opacity="0.49411765" fill-rule="evenodd" stroke="none"/>
      <path d="M20.2 -116.4 Q26.85 -112.9 29.45 -106.45 30.8 -103.2 31.2 -98.7 L31.3 -98.8 31.55 -99.1 38.8 -98.85 39.85 -97.7 41.05 -96.6 41.05 -95.35 39.85 -95.3 Q39.05 -95.5 39.05 -95.85 L38.05 -95.6 Q38.05 -95.05 38.7 -94.1 39.3 -93.15 40.05 -92.6 L45.05 -92.6 46.25 -93.85 Q47.05 -94.9 47.05 -95.85 L48.1 -96.3 49.55 -97.1 64.35 -95.85 65.3 -95.05 Q65.4 -94.95 65.55 -94.9 L64.55 -93.6 Q64.85 -93.15 65.8 -92.65 L65.9 -92.6 66.1 -91.95 67.1 -91.45 68.3 -90.6 79.8 -90.1 82.15 -87.65 82.65 -86.65 83.2 -84.8 83.7 -83.6 Q84.1 -82.25 84.1 -79.65 84.1 -78.7 82.1 -73.75 L80.1 -68.7 79.05 -63.5 77.95 -57.9 77.45 -57.2 Q77.15 -58.1 77.1 -59.7 L77.1 -62.05 Q77.1 -63.2 76.65 -64.35 L76.85 -67.6 Q76.85 -70.8 73.75 -74.45 69.85 -79.0 63.95 -78.9 L48.95 -78.9 48.95 -78.65 35.65 -77.45 35.7 -77.4 Q33.8 -75.95 27.85 -75.5 L19.95 -74.7 Q17.3 -73.95 13.45 -71.45 10.75 -71.1 9.85 -71.95 8.85 -72.9 8.35 -72.9 L5.75 -72.85 1.1 -71.75 -1.85 -71.4 Q-2.95 -70.55 -3.55 -69.2 L-3.95 -67.25 Q-4.25 -65.95 -5.55 -65.45 -8.45 -65.7 -9.55 -66.65 -10.9 -67.95 -11.65 -68.2 L-26.6 -67.2 Q-30.45 -66.25 -33.2 -64.75 -36.35 -63.05 -38.5 -62.45 -42.25 -61.45 -48.95 -61.45 -54.25 -61.45 -59.65 -59.95 L-59.9 -59.85 -64.05 -58.5 -66.15 -57.45 -66.3 -57.35 -66.95 -56.55 Q-68.2 -54.7 -68.2 -53.15 L-68.5 -53.15 Q-68.95 -47.85 -68.15 -42.15 L-68.15 -39.45 -68.45 -39.2 -70.6 -46.55 Q-72.05 -51.45 -74.15 -54.4 L-75.35 -54.7 -75.6 -54.6 Q-87.1 -56.65 -95.65 -52.25 -98.4 -50.85 -100.25 -49.05 -102.05 -50.65 -104.05 -52.0 -109.7 -55.8 -113.25 -55.25 -116.2 -54.8 -117.05 -51.4 -118.25 -52.9 -119.5 -53.7 L-120.0 -55.2 Q-122.55 -57.1 -123.45 -58.6 -124.15 -59.75 -124.45 -61.3 L-124.95 -61.35 -124.55 -61.9 -124.55 -62.0 -124.65 -64.1 Q-125.45 -66.4 -125.45 -70.1 -125.45 -71.05 -124.05 -72.45 -123.4 -74.15 -122.45 -75.1 L-105.85 -79.6 Q-104.0 -80.3 -103.45 -81.2 -102.95 -81.95 -102.95 -83.85 -102.95 -85.35 -103.2 -85.35 L-104.95 -85.35 Q-103.05 -86.85 -100.9 -90.3 -98.15 -93.25 -91.45 -94.1 L-81.2 -93.85 Q-76.95 -91.0 -76.95 -89.35 -68.5 -89.95 -65.4 -90.8 -58.9 -92.55 -57.45 -97.1 L-57.55 -99.95 Q-57.6 -102.05 -56.45 -103.1 -55.15 -104.3 -52.85 -105.55 L-49.95 -106.9 -49.95 -110.1 -48.85 -109.9 Q-48.1 -109.7 -47.95 -109.35 -46.35 -110.25 -45.6 -112.4 L-44.05 -116.2 Q-40.85 -121.1 -26.45 -122.45 -26.45 -122.95 -8.2 -122.7 -7.8 -122.5 -6.25 -120.15 -4.8 -117.9 -3.95 -117.6 L-1.55 -117.6 -4.45 -117.95 -4.95 -118.7 -4.05 -118.65 Q-3.1 -118.5 -2.95 -118.2 3.15 -119.9 8.45 -119.8 L8.55 -119.95 9.95 -119.7 12.9 -119.35 Q17.45 -118.5 20.2 -116.4 M23.6 -50.95 L23.35 -49.9 22.45 -49.45 21.45 -50.5 21.1 -51.2 21.95 -51.7 23.1 -51.7 23.6 -50.95 M29.2 -37.75 Q28.7 -37.15 27.95 -36.95 L26.35 -37.4 Q26.1 -37.45 26.1 -38.7 26.1 -40.0 27.95 -41.15 L29.7 -39.1 Q29.7 -38.35 29.2 -37.75 M30.55 -25.1 L34.05 -22.35 33.1 -20.9 Q32.35 -19.9 31.55 -19.6 L29.85 -21.4 Q29.05 -22.35 29.05 -23.1 29.05 -24.65 29.8 -24.95 L30.55 -25.1 M7.1 -9.65 Q6.55 -10.25 6.55 -11.95 6.55 -13.6 7.2 -14.1 L8.55 -14.6 Q10.1 -14.0 10.8 -11.85 L10.3 -9.6 9.6 -9.3 Q9.05 -9.0 8.55 -8.85 L7.1 -9.65 M23.8 -11.85 Q25.25 -6.7 27.8 -2.85 27.6 -1.75 27.15 -1.2 26.7 -0.75 25.55 -0.35 23.0 -1.5 23.15 -4.95 23.3 -9.6 22.8 -10.6 23.05 -11.85 23.8 -11.85 M66.15 -7.05 Q66.85 -3.5 67.8 -1.6 L66.95 -0.55 Q66.3 -0.05 65.55 0.15 64.6 -0.35 63.85 -3.35 63.3 -5.65 63.3 -6.7 63.3 -8.2 63.6 -9.95 L64.05 -12.85 64.8 -12.85 66.15 -7.05 M56.8 -1.85 L56.0 0.4 55.05 2.65 52.05 2.65 Q51.8 2.9 51.8 0.4 51.8 -1.15 53.95 -1.55 L56.8 -1.85 M84.05 2.15 L84.8 2.15 Q85.25 8.25 90.15 19.4 L89.85 20.55 Q89.5 21.15 87.9 21.15 L86.1 20.9 86.15 20.65 84.8 11.75 Q83.8 6.15 83.8 4.9 83.8 3.35 83.95 2.6 L84.05 2.15 M82.1 32.25 Q82.4 32.4 82.55 32.15 L83.35 32.05 85.05 32.15 85.85 33.65 86.15 35.15 Q85.65 36.65 84.55 37.15 83.3 36.65 82.85 36.15 82.05 35.3 82.05 33.65 L82.1 32.25 M90.65 56.15 Q91.4 57.3 91.4 58.4 90.9 59.15 88.9 59.15 L88.65 59.35 Q88.4 59.2 88.4 57.65 88.4 56.05 89.05 55.95 L90.65 56.15 M91.9 66.3 L91.9 65.15 92.65 65.15 Q92.9 67.25 95.25 72.3 L98.4 79.4 Q98.2 80.55 97.8 81.15 97.35 81.8 96.4 82.15 94.7 81.0 93.1 73.65 L91.9 66.3 M41.3 38.9 L40.05 39.15 Q39.55 38.4 39.55 35.65 L40.5 35.7 Q41.4 35.85 42.05 36.65 41.75 37.1 41.6 37.8 L41.3 38.9 M42.3 44.3 L42.8 42.15 43.8 42.15 Q44.8 43.15 46.5 45.9 L48.05 48.8 Q48.05 51.3 47.8 49.9 L47.05 50.65 Q44.9 49.25 43.45 46.95 42.3 45.15 42.3 44.3 M61.05 46.4 Q58.8 45.05 57.8 43.4 58.35 42.0 61.8 41.15 63.05 43.05 63.05 44.15 62.7 45.15 61.05 46.4 M75.3 47.65 Q74.95 48.65 74.2 49.3 L72.55 50.15 71.2 49.75 Q70.8 49.4 70.8 47.8 70.8 46.15 71.9 45.75 72.95 45.4 74.8 46.15 L75.3 47.65 M38.3 59.3 L38.55 60.15 38.55 59.9 Q39.4 61.8 41.1 68.25 42.85 74.85 44.3 78.4 L44.0 79.55 Q43.65 80.15 42.05 80.15 L40.25 79.9 40.3 79.65 Q40.0 78.7 40.0 77.4 L40.05 74.4 Q40.05 73.15 39.05 67.35 38.05 61.55 38.05 60.3 38.05 58.75 38.3 59.3 M6.4 62.35 Q7.35 62.7 7.8 63.15 7.8 65.4 6.55 66.65 L4.75 66.45 Q4.3 66.2 4.3 64.55 4.3 63.0 4.95 62.5 5.25 62.25 5.55 62.15 L6.4 62.35 M64.8 67.15 Q65.1 68.25 69.4 75.35 72.8 81.0 72.3 85.15 L71.7 85.55 70.55 86.15 Q68.7 82.75 66.8 77.05 65.2 72.15 64.05 67.15 L64.8 67.15 M63.55 62.4 Q63.05 63.15 61.05 63.15 L60.6 62.7 60.55 60.9 60.6 59.1 60.8 58.65 62.05 58.65 Q63.2 60.4 63.55 62.4 M-112.7 -50.35 L-110.5 -50.0 -108.7 -49.1 -112.45 -48.85 -112.7 -50.35 M-112.55 -26.15 Q-112.95 -26.3 -112.95 -27.85 L-112.45 -29.5 Q-111.7 -31.2 -110.2 -31.85 -109.7 -31.35 -109.3 -30.4 -108.95 -29.6 -108.95 -29.2 L-109.2 -27.35 Q-110.2 -26.35 -112.2 -26.35 -112.4 -26.1 -112.55 -26.15 M-95.95 -13.85 L-98.2 -13.6 Q-98.7 -14.35 -98.7 -16.6 L-97.65 -16.65 Q-96.85 -16.55 -96.2 -16.1 L-95.45 -14.6 -95.95 -13.85 M-94.7 -4.2 Q-94.7 -7.35 -93.2 -7.85 L-91.9 -4.1 Q-91.1 -1.75 -90.95 -0.35 -91.45 0.4 -93.2 0.65 L-94.25 -1.4 Q-94.7 -2.6 -94.7 -4.2 M-58.95 -56.35 L-59.7 -56.35 -59.7 -56.55 -59.45 -56.6 -58.95 -56.35 M-72.95 -44.55 L-73.45 -44.1 -73.7 -44.3 -72.95 -44.55 M-67.2 -31.6 L-67.45 -31.4 Q-67.7 -31.55 -67.7 -33.1 L-67.45 -35.05 -67.2 -35.35 -65.95 -35.35 Q-65.2 -34.2 -65.2 -32.35 -65.95 -31.6 -67.2 -31.6 M-69.7 -24.45 L-69.2 -26.85 Q-65.95 -27.75 -65.95 -21.1 L-66.05 -18.85 -66.95 -17.35 -68.95 -17.35 Q-68.95 -22.6 -69.7 -24.45 M-41.15 -22.8 Q-39.4 -24.05 -39.4 -21.6 L-39.45 -19.15 Q-39.75 -17.45 -40.95 -17.45 -42.6 -17.45 -42.9 -18.55 L-42.9 -19.8 Q-42.9 -21.55 -41.15 -22.8 M-51.95 -3.5 L-51.45 -3.6 Q-49.7 -3.3 -49.2 -1.85 L-49.65 -0.55 Q-49.95 0.25 -50.45 0.4 L-52.0 0.2 Q-52.45 -0.05 -52.45 -1.7 -52.45 -3.25 -51.95 -3.5 M-41.2 -3.85 Q-40.2 0.65 -40.2 2.9 L-40.25 5.05 -40.45 5.9 -41.45 6.4 Q-42.6 5.95 -43.05 5.4 -43.7 4.6 -43.7 2.9 -43.7 1.55 -42.8 -0.85 -41.95 -3.2 -41.95 -3.85 L-41.2 -3.85 M-33.95 -35.7 L-35.75 -35.65 -35.9 -36.45 Q-35.9 -37.25 -35.3 -37.4 L-34.2 -37.45 Q-33.75 -37.0 -33.65 -36.4 L-33.95 -35.7 M-34.2 -6.85 L-33.7 -4.2 -33.95 -2.35 Q-34.45 -1.6 -35.45 -1.1 L-37.5 -1.5 Q-38.2 -1.95 -38.2 -3.6 -38.2 -5.3 -37.7 -6.1 L-36.45 -7.1 -34.2 -6.85 M-15.95 -10.85 Q-14.95 -9.85 -14.95 -8.95 L-15.45 -7.1 -16.45 -6.6 -17.8 -7.2 Q-18.2 -7.65 -18.2 -9.35 -18.2 -10.95 -17.55 -11.05 L-15.95 -10.85 M-38.2 45.15 Q-37.45 45.9 -36.95 47.4 L-37.45 48.9 -38.45 49.65 Q-39.6 49.5 -40.35 48.65 -40.95 48.0 -40.95 47.55 L-40.45 45.15 -38.2 45.15 M-1.8 34.6 Q-1.0 34.7 -0.2 35.15 -0.2 36.65 -0.95 37.4 L-2.2 37.4 Q-2.7 36.65 -2.7 34.65 L-1.8 34.6 M-10.45 34.9 L-7.95 35.15 Q-6.95 36.15 -6.95 37.4 -7.3 38.4 -8.95 39.65 L-11.2 39.65 -11.85 39.2 -11.95 37.4 Q-11.95 35.8 -11.5 35.3 L-10.45 34.9 M-57.45 22.4 L-59.2 22.2 -59.45 21.4 Q-59.1 20.55 -58.3 20.3 L-56.2 20.15 -55.95 21.65 -55.75 22.05 Q-55.9 22.4 -57.45 22.4 M-61.2 23.15 L-60.95 23.6 Q-60.7 23.95 -60.7 25.4 L-61.7 26.95 -63.45 28.9 -65.35 28.5 Q-65.95 28.1 -65.95 26.4 -65.95 24.8 -65.05 23.9 L-63.45 22.9 -61.2 23.15 M-79.7 43.9 Q-79.7 42.45 -79.15 41.95 -78.5 41.4 -76.95 41.65 -76.2 42.8 -76.2 44.65 L-76.95 45.4 -79.2 45.4 -79.45 45.6 Q-79.7 45.45 -79.7 43.9 M-48.2 45.15 L-47.05 50.1 -45.7 55.65 -46.4 56.6 Q-46.8 57.0 -47.45 57.15 -48.2 56.1 -48.8 54.2 -49.45 52.2 -49.45 50.65 L-49.2 46.95 -48.95 45.15 -48.2 45.15 M-52.95 61.65 Q-52.2 62.8 -52.2 64.65 L-52.95 65.4 -55.2 65.4 -55.45 65.6 -55.7 63.9 Q-55.7 62.25 -54.8 61.85 L-52.95 61.65 M-42.95 64.55 Q-42.95 62.85 -42.55 62.25 L-41.45 61.4 -39.45 61.65 -39.2 61.45 Q-38.95 61.6 -38.95 63.15 -38.95 65.65 -39.2 65.4 -39.45 66.15 -40.45 66.65 L-42.35 66.45 Q-42.95 66.2 -42.95 64.55 M-72.45 52.15 L-71.6 52.35 Q-70.65 52.7 -70.2 53.15 -70.2 55.4 -71.45 56.65 L-73.25 56.45 Q-73.7 56.2 -73.7 54.55 -73.7 53.0 -73.05 52.5 L-72.45 52.15 M-80.2 58.9 L-79.45 58.9 -76.95 58.9 -76.55 58.6 Q-76.2 58.6 -76.2 60.15 -76.2 61.75 -76.75 62.35 L-78.45 63.65 Q-79.9 63.15 -80.25 62.85 -80.95 62.2 -80.95 60.55 -80.95 59.0 -80.2 58.9 M-65.1 73.95 Q-65.9 74.75 -66.45 74.9 L-68.95 74.65 Q-69.1 72.85 -68.7 71.95 -68.1 70.4 -65.95 69.65 L-64.85 71.15 -63.95 72.65 -65.1 73.95 M-51.2 81.15 L-50.2 80.9 Q-48.25 84.3 -47.7 90.65 L-48.4 91.6 -49.45 92.15 Q-51.45 89.35 -51.45 83.4 L-51.3 81.6 -51.2 81.15 M-3.55 61.85 L-2.95 62.9 Q-2.95 64.15 -4.45 64.9 -6.7 64.25 -6.7 62.9 L-6.45 61.4 -5.65 61.3 -3.95 61.4 -3.55 61.85 M-8.45 52.65 Q-7.95 53.8 -7.95 54.15 L-8.2 54.9 Q-8.05 55.1 -8.2 55.3 L-10.1 55.65 Q-11.7 55.65 -12.35 54.8 L-12.95 53.4 Q-12.3 51.85 -11.75 51.45 -10.95 50.9 -8.95 51.15 L-8.45 52.65 M-14.2 74.15 Q-10.7 77.25 -10.7 86.65 L-11.4 87.6 -12.45 88.15 Q-13.85 87.6 -14.65 86.2 -15.2 85.15 -15.2 84.3 L-14.9 79.4 Q-14.65 75.95 -14.95 74.15 L-14.2 74.15 M-28.5 81.8 L-30.2 82.4 Q-31.4 81.35 -31.75 80.35 L-31.95 77.55 -31.75 75.6 Q-31.35 74.1 -29.95 73.15 -27.95 77.65 -27.95 81.4 L-28.5 81.8 M-23.95 85.65 L-23.95 90.15 -25.45 90.9 Q-27.3 90.6 -27.8 89.2 L-27.95 87.3 Q-27.95 85.55 -27.5 84.4 -27.05 83.35 -26.45 83.15 L-24.2 83.4 -23.95 85.65 M-82.2 11.9 L-80.2 13.15 Q-80.55 14.3 -81.45 15.15 L-82.95 14.9 -83.2 11.9 -82.2 11.9 M-83.95 15.55 L-84.2 17.4 Q-84.45 18.15 -85.45 18.65 L-87.2 18.4 -87.45 18.6 -87.7 16.9 Q-87.7 15.25 -86.9 14.8 L-84.95 14.4 -84.45 14.85 Q-83.95 15.3 -83.95 15.55 M-104.95 34.15 L-103.1 30.75 Q-100.95 27.35 -99.2 26.15 L-99.3 31.25 Q-99.9 34.55 -102.45 35.9 L-104.35 35.85 Q-104.95 35.75 -104.95 34.15 M-116.45 29.4 L-117.7 28.9 -117.95 27.8 -117.7 25.9 Q-115.2 25.9 -114.45 26.65 L-114.2 27.4 Q-114.55 28.45 -116.45 29.4 M-112.7 49.05 L-114.1 54.25 Q-114.95 57.3 -114.95 58.8 -114.95 60.3 -115.15 60.4 -115.55 60.3 -115.95 60.65 L-118.2 60.65 -118.55 61.05 Q-118.95 61.1 -118.95 59.55 -118.95 57.3 -116.15 52.1 -113.7 47.45 -113.2 47.15 L-112.7 49.05 M-111.45 41.4 Q-109.45 41.75 -109.45 43.15 L-109.7 44.65 Q-109.7 45.15 -110.45 45.4 L-112.0 45.2 Q-112.45 44.95 -112.45 43.3 -112.45 41.75 -111.95 41.5 L-111.45 41.4 M-91.05 37.5 L-90.45 37.15 -89.6 37.35 Q-88.65 37.7 -88.2 38.15 -88.2 40.4 -89.45 41.65 L-91.25 41.45 Q-91.7 41.2 -91.7 39.55 -91.7 38.0 -91.05 37.5 M-95.2 57.15 Q-94.2 61.65 -94.2 63.9 -94.2 65.45 -94.8 66.55 L-95.95 68.4 -98.2 68.65 -98.55 69.05 Q-98.95 69.1 -98.95 67.55 -98.95 66.65 -97.55 62.55 -96.05 58.25 -95.95 57.15 L-95.2 57.15 M-84.7 67.15 L-84.9 69.4 -85.45 70.9 -88.05 71.65 Q-85.5 72.2 -84.95 76.4 -85.2 77.15 -86.45 77.65 -88.9 77.1 -90.95 71.9 L-88.25 71.6 -89.05 70.0 -89.2 67.55 Q-89.2 65.7 -88.8 64.85 -88.4 64.05 -87.45 63.65 -85.65 65.0 -85.15 65.7 -84.7 66.3 -84.7 67.15 M-104.95 71.65 Q-105.45 72.4 -107.2 72.65 L-107.85 72.2 -107.95 70.4 Q-107.95 69.0 -106.15 64.25 -104.3 59.35 -103.2 58.15 L-104.05 64.9 -104.95 71.65 M-83.95 81.15 Q-84.45 80.4 -84.45 78.9 L-83.25 78.8 Q-82.8 78.85 -82.45 79.4 L-82.7 80.9 -83.95 81.15" fill="#ffffff" fill-rule="evenodd" stroke="none"/>
    </g>
    <g id="sprite0" transform="matrix(1.0, 0.0, 0.0, 1.0, 31.6, 40.5)">
      <use ffdec:characterId="2484" height="70.6" transform="matrix(1.0, 0.0, 0.0, 1.0, -30.8, -35.3)" width="61.6" xlink:href="#shape1"/>
    </g>
    <g id="shape1" transform="matrix(1.0, 0.0, 0.0, 1.0, 30.8, 35.3)">
      <path d="M16.1 -16.15 Q22.8 -9.45 22.8 0.0 22.8 9.4 16.1 16.1 9.4 22.8 0.0 22.8 -9.45 22.8 -16.15 16.1 -22.8 9.45 -22.8 0.0 -22.8 -9.45 -16.15 -16.1 L-16.1 -16.15 Q-9.45 -22.8 0.0 -22.8 9.45 -22.8 16.1 -16.15" fill="#ffff51" fill-opacity="0.654902" fill-rule="evenodd" stroke="none"/>
      <path d="M18.95 -18.95 Q26.8 -11.1 26.8 0.0 26.8 11.1 18.95 18.95 11.1 26.8 0.0 26.8 -11.1 26.8 -18.95 18.95 -26.8 11.1 -26.8 0.0 -26.8 -11.1 -18.95 -18.95 -11.1 -26.8 0.0 -26.8 11.1 -26.8 18.95 -18.95 M16.1 -16.15 Q9.45 -22.8 0.0 -22.8 -9.45 -22.8 -16.1 -16.15 L-16.15 -16.1 Q-22.8 -9.45 -22.8 0.0 -22.8 9.45 -16.15 16.1 -9.45 22.8 0.0 22.8 9.4 22.8 16.1 16.1 22.8 9.4 22.8 0.0 22.8 -9.45 16.1 -16.15" fill="#ffff43" fill-opacity="0.43137255" fill-rule="evenodd" stroke="none"/>
      <path d="M18.95 -18.95 Q11.1 -26.8 0.0 -26.8 -11.1 -26.8 -18.95 -18.95 -26.8 -11.1 -26.8 0.0 -26.8 11.1 -18.95 18.95 -11.1 26.8 0.0 26.8 11.1 26.8 18.95 18.95 26.8 11.1 26.8 0.0 26.8 -11.1 18.95 -18.95 M21.75 -21.8 Q30.8 -12.75 30.8 0.0 30.8 12.75 21.75 21.75 12.75 30.8 0.0 30.8 -12.75 30.8 -21.8 21.75 -30.8 12.75 -30.8 0.0 -30.8 -12.75 -21.8 -21.8 -12.75 -30.8 0.0 -30.8 12.75 -30.8 21.75 -21.8" fill="#ffff00" fill-opacity="0.21568628" fill-rule="evenodd" stroke="none"/>
      <path d="M0.15 -19.4 Q0.3 -16.45 0.7 -14.3 1.4 -10.35 3.5 -6.2 5.15 -2.85 9.75 -1.05 12.15 -0.15 15.1 0.5 L15.1 0.8 Q7.45 0.6 3.2 10.3 L2.5 11.95 1.25 17.2 Q0.7 19.8 0.5 22.0 L0.55 22.75 0.5 23.0 0.4 23.7 0.35 23.55 0.35 24.3 0.1 27.05 0.0 27.05 -0.1 32.8 -0.4 33.3 -0.7 32.8 -0.75 30.3 -0.7 29.9 -0.75 28.3 -0.8 27.05 -0.85 27.05 -1.0 25.65 -1.1 24.4 -1.15 23.55 -1.2 23.65 -1.3 22.55 -1.3 22.0 Q-1.5 19.8 -2.05 17.2 L-3.3 11.95 -4.0 10.3 Q-8.25 0.6 -15.9 0.8 L-15.9 0.5 Q-12.95 -0.15 -10.55 -1.05 -5.95 -2.85 -4.3 -6.2 -2.2 -10.35 -1.5 -14.3 -0.95 -17.15 -0.9 -21.3 L-0.85 -22.0 -0.8 -22.3 -0.75 -22.65 Q-0.6 -23.65 -0.6 -26.8 L-0.6 -27.0 -0.55 -27.25 -0.5 -28.95 -0.55 -30.8 -0.6 -32.4 -0.5 -33.3 -0.3 -33.3 -0.2 -32.35 -0.25 -31.95 -0.3 -29.95 -0.1 -22.9 0.15 -19.4" fill="#ffffff" fill-opacity="0.8784314" fill-rule="evenodd" stroke="none"/>
      <path d="M1.7 -33.6 L1.9 -31.45 2.1 -30.5 2.1 -22.35 Q2.1 -17.75 2.7 -14.65 3.35 -10.95 5.3 -7.1 L5.3 -7.05 Q6.7 -4.4 10.5 -2.9 L10.45 -2.9 Q12.75 -2.05 15.55 -1.45 16.2 -1.3 16.65 -0.75 L17.1 0.5 17.1 0.8 16.85 1.8 16.1 2.55 15.05 2.8 Q8.65 2.8 5.05 11.1 L4.45 12.45 3.9 14.7 4.15 14.5 4.2 14.5 Q3.45 16.55 3.25 18.05 L3.25 17.8 3.2 17.6 Q2.7 20.0 2.5 22.05 L2.5 22.1 2.6 22.95 2.6 23.2 2.35 24.45 2.4 26.55 2.3 27.35 2.0 28.1 1.9 32.85 1.8 33.45 1.05 34.75 Q0.45 35.3 -0.4 35.3 -1.25 35.3 -1.8 34.75 L-2.6 33.45 -2.7 32.85 -2.75 28.0 -3.05 27.45 -3.2 26.5 -3.1 24.45 -3.4 23.2 -3.35 22.9 -3.3 22.2 Q-3.5 20.1 -4.0 17.65 L-5.2 12.55 -5.8 11.1 -5.85 11.05 Q-9.5 2.8 -15.85 2.8 L-16.85 2.55 -17.6 1.8 -17.9 0.8 -17.9 0.5 Q-17.9 -0.2 -17.45 -0.75 L-16.3 -1.45 Q-13.55 -2.05 -11.25 -2.9 -7.5 -4.4 -6.1 -7.05 L-6.05 -7.1 Q-4.15 -10.95 -3.45 -14.65 -2.9 -17.75 -2.9 -22.35 L-2.9 -30.5 -2.65 -31.45 -2.45 -33.6 Q-2.35 -34.35 -1.8 -34.8 -1.25 -35.3 -0.5 -35.3 L-0.3 -35.3 Q0.45 -35.3 1.0 -34.8 1.55 -34.35 1.7 -33.6 M0.15 -19.4 L-0.1 -22.9 -0.3 -29.95 -0.25 -31.95 -0.2 -32.35 -0.3 -33.3 -0.5 -33.3 -0.6 -32.4 -0.55 -30.8 -0.5 -28.95 -0.55 -27.25 -0.6 -27.0 -0.6 -26.8 Q-0.6 -23.65 -0.75 -22.65 L-0.8 -22.3 -0.85 -22.0 -0.9 -21.3 Q-0.95 -17.15 -1.5 -14.3 -2.2 -10.35 -4.3 -6.2 -5.95 -2.85 -10.55 -1.05 -12.95 -0.15 -15.9 0.5 L-15.9 0.8 Q-8.25 0.6 -4.0 10.3 L-3.3 11.95 -2.05 17.2 Q-1.5 19.8 -1.3 22.0 L-1.3 22.55 -1.2 23.65 -1.15 23.55 -1.1 24.4 -1.0 25.65 -0.85 27.05 -0.8 27.05 -0.75 28.3 -0.7 29.9 -0.75 30.3 -0.7 32.8 -0.4 33.3 -0.1 32.8 0.0 27.05 0.1 27.05 0.35 24.3 0.35 23.55 0.4 23.7 0.5 23.0 0.55 22.75 0.5 22.0 Q0.7 19.8 1.25 17.2 L2.5 11.95 3.2 10.3 Q7.45 0.6 15.1 0.8 L15.1 0.5 Q12.15 -0.15 9.75 -1.05 5.15 -2.85 3.5 -6.2 1.4 -10.35 0.7 -14.3 0.3 -16.45 0.15 -19.4" fill="#ffff51" fill-opacity="0.43137255" fill-rule="evenodd" stroke="none"/>
    </g>
  </defs>
</svg>
