<?xml version="1.0" encoding="UTF-8" standalone="no"?>
<svg xmlns:ffdec="https://www.free-decompiler.com/flash" xmlns:xlink="http://www.w3.org/1999/xlink" ffdec:objectType="frame" height="705.9px" width="240.1px" xmlns="http://www.w3.org/2000/svg">
  <g transform="matrix(1.0, 0.0, 0.0, 1.0, -103.55, 3.25)">
    <use ffdec:characterId="195" ffdec:characterName="a_EB_WaterfallVertical01Frame7" height="705.6" transform="matrix(1.0, 0.0, 0.0, 1.0, 103.55, -3.25)" width="240.1" xlink:href="#sprite0"/>
  </g>
  <defs>
    <g id="sprite0" transform="matrix(1.0, 0.0, 0.0, 1.0, 120.05, 352.8)">
      <use ffdec:characterId="194" height="100.8" transform="matrix(7.0, 0.0, 0.0, 7.0, -120.05, -352.8)" width="34.3" xlink:href="#shape0"/>
    </g>
    <g id="shape0" transform="matrix(1.0, 0.0, 0.0, 1.0, 17.15, 50.4)">
      <path d="M14.1 -48.85 Q13.95 -49.35 13.95 -49.8 L14.0 -49.8 Q14.1 -49.8 14.4 -49.9 L14.35 -48.8 14.35 -48.75 14.4 -48.55 14.5 -48.7 14.55 -48.75 14.8 -48.75 Q15.15 -48.6 15.2 -48.15 15.5 -47.7 15.55 -47.05 15.65 -46.5 15.65 -42.35 15.65 -39.8 15.15 -32.4 L15.2 -30.4 15.25 16.45 15.25 30.15 15.2 33.5 15.2 40.25 Q15.35 42.4 15.4 43.0 15.45 43.3 15.55 43.7 15.8 44.8 16.4 46.25 L16.45 46.45 17.15 46.6 Q17.05 47.1 16.8 47.55 15.1 50.4 5.5 50.4 1.4 50.4 -2.1 50.05 -7.8 49.45 -11.95 47.8 -14.45 46.85 -15.9 45.65 -17.15 44.6 -17.15 43.85 -16.75 43.2 -16.4 42.4 -15.65 40.9 -15.65 40.2 -15.65 39.5 -15.7 39.05 L-15.65 38.6 -15.55 38.05 Q-15.4 37.15 -15.35 36.45 -15.35 33.9 -15.35 29.65 L-15.3 27.2 -15.3 8.55 -15.25 -31.1 -15.2 -32.6 -15.1 -35.7 -15.0 -38.25 -15.0 -38.4 Q-15.15 -41.95 -15.2 -45.55 -15.2 -48.0 -15.1 -48.8 L-15.05 -49.05 -15.0 -49.65 -14.95 -50.4 -14.4 -50.4 -14.35 -49.95 -13.8 -49.9 -13.75 -48.95 -13.7 -47.15 -13.7 -46.35 -13.3 -44.45 Q-12.5 -39.85 -12.5 -37.0 -12.5 -35.5 -12.95 -33.2 -13.2 -32.1 -13.65 -30.15 L-13.55 -29.5 Q-13.3 -27.8 -13.3 -27.05 L-13.45 -25.25 -13.55 -23.45 Q-13.55 -22.6 -13.65 -18.65 L-13.75 -13.3 -13.5 -12.3 Q-13.0 -10.65 -12.8 -9.75 -12.5 -8.3 -12.5 -7.15 -12.5 -5.55 -13.25 -2.25 -13.85 0.55 -13.95 2.25 L-13.9 2.9 -14.2 9.9 -14.05 11.8 Q-13.8 12.75 -13.35 13.8 -12.8 15.3 -12.8 16.95 -12.8 17.95 -13.6 19.8 L-13.9 20.4 -13.95 22.4 -14.0 23.85 -13.9 26.0 Q-13.7 29.1 -13.7 31.0 L-13.7 32.85 -13.3 34.95 Q-12.5 39.55 -12.5 42.4 -12.5 43.8 -12.9 45.95 -11.85 46.4 -10.25 46.7 L-6.0 47.35 -2.1 47.85 -0.5 48.1 2.15 48.1 2.4 48.15 5.9 48.15 7.2 47.95 10.25 47.95 Q11.9 47.75 12.65 47.55 13.1 47.0 13.4 46.35 L12.9 46.55 Q13.05 45.7 13.35 44.85 L13.85 43.6 13.75 42.4 Q13.7 41.15 13.7 40.55 L13.95 36.6 14.05 34.6 Q13.95 34.15 13.95 33.8 13.95 32.05 13.25 28.8 12.55 25.5 12.55 23.9 12.55 22.75 12.85 21.3 13.05 20.4 13.5 18.75 L13.75 17.85 13.7 16.85 Q13.45 14.5 13.45 13.3 13.45 12.6 13.75 7.15 L13.8 5.95 13.7 4.2 13.65 3.45 Q13.2 1.5 12.95 0.4 12.5 -1.95 12.5 -3.45 12.5 -6.3 13.35 -10.9 L13.85 -13.55 13.75 -15.5 13.65 -17.4 13.95 -22.1 13.65 -28.2 Q13.65 -30.35 13.8 -31.4 L13.7 -32.65 13.65 -32.85 Q12.8 -34.7 12.8 -35.65 L12.8 -36.05 Q12.8 -37.7 13.35 -39.2 L13.9 -40.65 13.95 -41.4 Q13.85 -44.0 13.85 -45.35 13.85 -47.4 14.15 -48.65 L14.1 -48.85 M15.05 -40.55 L15.05 -40.55" fill="#87b6b5" fill-rule="evenodd" stroke="none"/>
      <path d="M14.1 -48.85 L14.15 -48.65 Q13.85 -47.4 13.85 -45.35 13.85 -44.0 13.95 -41.4 L13.9 -40.65 13.35 -39.2 Q12.8 -37.7 12.8 -36.05 L12.8 -35.65 Q12.8 -34.7 13.65 -32.85 L13.7 -32.65 13.8 -31.4 Q13.65 -30.35 13.65 -28.2 L13.95 -22.1 13.65 -17.4 13.75 -15.5 13.85 -13.55 13.35 -10.9 Q12.5 -6.3 12.5 -3.45 12.5 -1.95 12.95 0.4 13.2 1.5 13.65 3.45 L13.7 4.2 13.8 5.95 13.75 7.15 Q13.45 12.6 13.45 13.3 13.45 14.5 13.7 16.85 L13.75 17.85 13.5 18.75 Q13.05 20.4 12.85 21.3 12.55 22.75 12.55 23.9 12.55 25.5 13.25 28.8 13.95 32.05 13.95 33.8 13.95 34.15 14.05 34.6 L13.95 36.6 13.7 40.55 Q13.7 41.15 13.75 42.4 L13.85 43.6 13.35 44.85 Q13.05 45.7 12.9 46.55 L13.4 46.35 Q13.1 47.0 12.65 47.55 11.9 47.75 10.25 47.95 L7.2 47.95 5.9 48.15 2.4 48.15 2.15 48.1 -0.5 48.1 -2.1 47.85 -6.0 47.35 -10.25 46.7 Q-11.85 46.4 -12.9 45.95 -12.5 43.8 -12.5 42.4 -12.5 39.55 -13.3 34.95 L-13.7 32.85 -13.7 31.0 Q-13.7 29.1 -13.9 26.0 L-14.0 23.85 -13.95 22.4 -13.9 20.4 -13.6 19.8 Q-12.8 17.95 -12.8 16.95 -12.8 15.3 -13.35 13.8 -13.8 12.75 -14.05 11.8 L-14.2 9.9 -13.9 2.9 -13.95 2.25 Q-13.85 0.55 -13.25 -2.25 -12.5 -5.55 -12.5 -7.15 -12.5 -8.3 -12.8 -9.75 -13.0 -10.65 -13.5 -12.3 L-13.75 -13.3 -13.65 -18.65 Q-13.55 -22.6 -13.55 -23.45 L-13.45 -25.25 -13.3 -27.05 Q-13.3 -27.8 -13.55 -29.5 L-13.65 -30.15 Q-13.2 -32.1 -12.95 -33.2 -12.5 -35.5 -12.5 -37.0 -12.5 -39.85 -13.3 -44.45 L-13.7 -46.35 -13.7 -47.15 -13.75 -48.95 -13.8 -49.9 -13.05 -49.8 Q-11.55 -49.55 -10.35 -49.55 L-9.85 -49.65 -8.6 -49.8 3.55 -49.85 Q7.0 -49.35 10.9 -49.15 13.2 -49.05 14.1 -48.85 M14.55 -48.75 L14.5 -48.7 14.4 -48.55 14.35 -48.75 14.35 -48.8 14.45 -48.75 14.55 -48.75 M15.05 -40.55 L15.05 -40.55" fill="#669999" fill-rule="evenodd" stroke="none"/>
    </g>
  </defs>
</svg>
