<?xml version="1.0" encoding="UTF-8" standalone="no"?>
<svg xmlns:ffdec="https://www.free-decompiler.com/flash" xmlns:xlink="http://www.w3.org/1999/xlink" ffdec:objectType="frame" height="694.55px" width="718.1px" xmlns="http://www.w3.org/2000/svg">
  <g transform="matrix(1.0, 0.0, 0.0, 1.0, 357.0, 623.7)">
    <use ffdec:characterId="1802" height="13.4" transform="matrix(-11.4585, 0.0, 0.0, 7.0, 73.8301, -48.5)" width="17.35" xlink:href="#shape0"/>
    <use ffdec:characterId="1802" height="13.4" transform="matrix(7.0, 0.0, 0.0, 5.5105, 65.9, -48.3608)" width="17.35" xlink:href="#shape0"/>
    <use ffdec:characterId="1803" height="19.65" transform="matrix(7.0, 0.0, 0.0, 7.0, -162.05, -148.75)" width="48.7" xlink:href="#shape1"/>
    <use ffdec:characterId="1716" height="286.3" transform="matrix(0.9962, -0.0838, 0.0838, 0.9962, -153.1001, -507.6175)" width="110.6" xlink:href="#sprite0"/>
    <use ffdec:characterId="1793" height="284.2" transform="matrix(0.9253, 0.2011, -0.2011, 0.9253, 270.916, -586.1119)" width="87.85" xlink:href="#sprite1"/>
    <use ffdec:characterId="1793" height="284.2" transform="matrix(-0.9253, 0.2011, 0.2011, 0.9253, -242.016, -433.3619)" width="87.85" xlink:href="#sprite1"/>
  </g>
  <defs>
    <g id="shape0" transform="matrix(1.0, 0.0, 0.0, 1.0, -7.35, 8.15)">
      <path d="M8.4 -1.75 Q8.7 -1.75 8.9 -1.95 9.05 -2.1 9.15 -2.15 9.3 -2.15 9.45 -2.0 L9.5 -1.9 9.75 -1.9 9.8 -1.85 Q10.0 -1.65 9.95 -1.55 9.95 -1.4 9.9 -1.35 L9.85 -1.3 Q9.8 -1.2 9.75 -1.2 L9.7 -1.25 9.7 -1.2 9.65 -1.15 9.6 -1.15 Q9.45 -1.1 9.4 -1.25 9.35 -1.3 9.35 -1.4 9.35 -1.45 9.4 -1.5 L9.35 -1.5 9.2 -1.65 Q9.1 -1.55 8.95 -1.45 8.7 -1.25 8.55 -1.3 8.45 -1.3 8.1 -1.4 L7.85 -1.5 7.8 -1.4 8.3 -1.3 8.7 -1.1 8.75 -1.05 8.75 -1.0 Q8.75 -0.95 8.75 -0.9 L8.65 -0.8 8.55 -0.75 8.25 -0.85 7.75 -0.9 7.6 -0.95 Q7.55 -0.95 7.5 -1.0 L7.5 -0.95 7.4 -1.05 Q7.35 -1.1 7.35 -1.15 L7.35 -1.3 7.4 -1.4 7.55 -1.9 7.6 -1.95 7.7 -2.0 7.8 -2.0 8.1 -1.85 8.4 -1.75 M9.2 -1.7 L9.15 -1.75 9.15 -1.7 9.2 -1.7 M17.1 -8.15 Q17.3 -8.15 17.35 -8.05 L17.4 -7.9 17.35 -7.8 Q17.3 -7.75 17.25 -7.7 L17.15 -7.7 17.1 -7.6 Q17.0 -7.45 16.95 -7.45 L16.8 -7.45 16.7 -7.55 Q16.7 -7.6 16.7 -7.7 16.75 -7.85 16.8 -8.0 16.85 -8.05 17.0 -8.15 17.05 -8.2 17.1 -8.15 M18.0 -8.05 L18.1 -8.0 18.25 -7.9 18.3 -7.9 18.45 -7.85 18.55 -7.8 18.55 -7.55 18.45 -7.45 18.15 -7.45 Q18.1 -7.45 18.05 -7.5 L17.85 -7.7 Q17.85 -7.75 17.85 -7.8 17.8 -7.9 17.95 -8.0 L18.0 -8.05 M11.6 -4.4 L11.55 -4.35 11.5 -4.2 11.5 -4.15 Q11.45 -4.05 11.45 -3.9 11.45 -3.95 11.45 -4.1 L11.3 -4.1 Q11.2 -4.15 11.2 -4.2 11.15 -4.3 11.2 -4.35 L11.25 -4.45 11.4 -4.45 11.45 -4.4 11.55 -4.35 Q11.55 -4.4 11.6 -4.4 M11.5 -4.35 L11.5 -4.35 M11.8 -3.85 L11.8 -3.85 11.65 -3.75 Q11.7 -3.85 11.75 -3.85 L11.8 -3.85 M11.6 -3.85 Q11.5 -3.8 11.45 -3.9 L11.5 -3.95 Q11.55 -4.0 11.6 -4.0 L11.7 -3.95 11.75 -3.95 11.75 -3.9 Q11.7 -3.85 11.6 -3.85 M11.65 -3.65 L11.75 -3.35 11.65 -3.4 11.6 -3.4 11.6 -3.35 Q11.55 -3.3 11.5 -3.25 L11.4 -3.25 11.35 -3.35 Q11.35 -3.4 11.35 -3.5 L11.45 -3.6 11.5 -3.6 Q11.45 -3.7 11.45 -3.8 L11.45 -3.9 Q11.45 -3.8 11.5 -3.7 L11.55 -3.65 11.55 -3.6 11.6 -3.6 11.6 -3.65 11.65 -3.65 M18.1 -5.75 L18.15 -5.75 18.25 -5.7 Q18.5 -5.45 18.45 -5.35 18.45 -5.25 18.4 -5.2 L18.4 -5.15 Q18.35 -5.1 18.25 -5.1 18.2 -5.1 18.15 -5.15 17.95 -5.35 17.95 -5.55 17.95 -5.6 18.0 -5.65 18.05 -5.75 18.1 -5.75 M16.4 -5.6 L16.3 -5.55 16.3 -5.7 16.35 -5.7 Q16.4 -5.8 16.45 -5.8 L16.55 -5.8 16.6 -5.75 16.4 -5.6 M16.65 -5.35 L16.7 -5.65 16.7 -5.6 16.75 -5.5 16.75 -5.4 16.65 -5.3 16.5 -5.3 16.65 -5.35 M16.4 -5.3 Q16.35 -5.3 16.3 -5.35 16.3 -5.4 16.3 -5.5 L16.45 -5.3 16.4 -5.3 M19.75 -7.65 Q20.0 -7.6 20.05 -7.4 L20.1 -7.2 Q20.1 -7.15 20.1 -7.05 L20.0 -6.95 19.9 -6.9 19.8 -6.95 19.6 -7.25 Q19.55 -7.3 19.55 -7.4 19.5 -7.5 19.65 -7.6 L19.75 -7.65 M21.5 -5.0 Q21.55 -4.8 20.9 -4.15 20.4 -3.65 20.4 -3.55 20.4 -3.45 20.5 -3.4 20.75 -3.2 20.75 -2.9 20.75 -2.6 20.65 -2.45 20.6 -2.25 20.35 -2.1 20.3 -2.05 20.25 -2.05 20.2 -2.05 20.15 -2.1 20.1 -2.15 20.1 -2.25 20.1 -2.3 20.15 -2.35 L20.35 -2.8 20.35 -2.9 Q20.1 -3.1 20.05 -3.2 20.0 -3.25 20.0 -3.6 19.95 -3.9 20.65 -4.5 21.1 -4.95 21.1 -5.05 L21.0 -5.25 20.9 -5.4 20.8 -5.3 Q20.5 -4.95 20.45 -5.0 L20.35 -5.0 Q20.3 -5.05 20.25 -5.1 20.2 -5.15 20.2 -5.25 20.2 -5.3 20.25 -5.35 L20.5 -5.65 Q20.75 -6.05 21.0 -5.9 L21.05 -5.85 Q21.55 -5.25 21.5 -5.0 M21.8 -4.65 L21.85 -4.75 21.95 -4.85 22.05 -4.8 22.1 -4.8 Q22.3 -5.0 22.85 -5.35 23.15 -5.4 23.6 -5.05 L23.65 -5.05 23.9 -4.8 23.85 -4.9 23.9 -4.85 23.95 -4.75 24.1 -4.6 24.15 -4.6 24.3 -4.5 24.35 -4.45 24.35 -4.3 Q24.65 -4.0 24.65 -3.85 L24.55 -3.6 24.7 -3.65 Q24.65 -3.55 24.6 -3.4 L24.55 -3.4 24.5 -3.45 24.2 -2.6 Q24.0 -1.9 23.85 -1.45 L23.85 -1.4 23.9 -1.35 23.85 -1.25 Q23.75 -0.9 23.75 -0.6 L23.65 -0.55 23.4 -0.5 Q23.25 -0.85 23.2 -1.25 L23.15 -1.15 23.15 -1.2 23.2 -1.25 23.15 -1.55 Q23.1 -2.0 23.1 -2.6 23.1 -2.75 23.3 -3.1 L23.2 -3.1 Q23.25 -3.3 23.4 -3.45 L23.6 -3.65 23.55 -3.8 Q23.35 -4.0 23.15 -4.35 L22.95 -4.65 22.45 -4.55 22.4 -4.3 22.3 -4.05 22.35 -4.1 Q22.35 -3.95 22.3 -3.85 L22.3 -3.8 Q22.25 -3.75 22.15 -3.75 L22.1 -3.75 22.05 -3.8 Q21.95 -3.9 22.05 -4.1 L22.05 -4.05 Q22.05 -4.15 22.05 -4.25 L22.0 -4.2 22.0 -4.15 21.95 -4.25 21.8 -4.1 21.75 -4.2 21.75 -4.15 21.8 -4.0 21.85 -3.95 21.85 -3.9 21.9 -3.85 21.95 -3.85 Q22.0 -3.75 22.05 -3.6 L22.15 -3.55 22.05 -3.55 22.1 -3.45 Q22.1 -3.1 22.05 -3.0 21.95 -2.9 21.75 -2.75 L21.7 -2.65 21.65 -2.6 21.65 -2.55 Q21.65 -2.4 21.75 -2.35 21.85 -2.35 21.85 -2.2 21.85 -1.95 21.6 -1.7 L21.2 -1.4 21.1 -1.4 21.1 -1.45 21.05 -1.3 20.65 -0.7 20.6 -0.65 20.4 -0.65 Q20.35 -0.65 20.35 -0.7 20.3 -0.75 20.3 -0.8 20.25 -0.85 20.3 -0.95 L20.35 -1.0 20.75 -1.6 20.8 -1.7 20.9 -1.35 20.95 -1.4 20.95 -1.7 20.85 -1.8 20.95 -1.8 21.0 -2.15 Q21.05 -2.55 21.2 -2.8 L21.35 -2.8 Q21.55 -2.85 21.65 -2.95 L21.55 -3.05 21.65 -3.15 Q21.6 -3.15 21.55 -3.2 L21.55 -3.3 21.6 -3.45 21.8 -3.35 21.85 -3.35 21.9 -3.5 Q21.9 -3.6 21.8 -3.75 L21.75 -3.7 21.6 -3.7 21.45 -3.75 21.45 -3.8 Q21.4 -3.85 21.4 -3.9 21.4 -3.95 21.45 -4.0 21.5 -4.1 21.55 -4.1 L21.6 -4.1 21.6 -4.35 21.55 -4.4 21.6 -4.4 21.6 -4.5 21.7 -4.65 21.8 -4.65 M22.8 -4.9 L22.8 -4.9 M22.05 -4.4 L22.0 -4.35 22.1 -4.3 22.1 -4.35 22.05 -4.4 M21.5 -3.05 L21.35 -2.9 21.4 -3.0 21.5 -3.05 M21.25 -2.5 Q21.2 -2.4 21.15 -2.15 L21.15 -1.8 21.25 -1.95 21.25 -1.8 21.35 -1.95 21.3 -2.0 Q21.35 -2.1 21.4 -2.1 L21.5 -2.1 21.55 -2.25 21.55 -2.35 Q21.5 -2.4 21.5 -2.5 L21.55 -2.6 21.5 -2.6 21.5 -2.55 21.35 -2.55 Q21.3 -2.45 21.3 -2.35 L21.3 -2.55 21.25 -2.5 M21.55 -2.65 L21.5 -2.6 21.55 -2.6 21.55 -2.65 M21.0 -1.5 L21.0 -1.45 21.05 -1.45 21.0 -1.5 M23.85 -4.9 L23.85 -4.9 M24.7 -3.8 L24.7 -3.7 24.65 -3.85 24.7 -3.8 M23.15 -3.0 L23.1 -2.85 23.1 -2.95 23.15 -3.0 M15.0 1.65 L15.0 1.75 Q14.9 2.15 14.9 2.7 L14.9 3.1 14.5 3.9 14.35 3.9 Q14.3 3.9 14.25 3.85 14.2 3.8 14.2 3.75 14.2 3.7 14.2 3.6 L14.35 3.35 14.3 3.35 14.4 3.1 14.45 2.8 14.5 2.7 14.4 2.75 Q14.35 2.65 14.3 2.25 14.25 1.95 14.2 1.8 13.8 0.85 13.45 0.85 L13.25 0.95 13.3 1.0 13.15 1.15 13.1 1.15 13.0 1.1 12.85 1.2 Q12.45 1.6 12.25 1.65 L12.45 2.25 12.6 2.35 12.8 2.75 12.85 2.7 13.0 2.65 13.0 2.8 13.05 2.85 13.05 2.95 13.0 3.0 12.95 3.1 Q13.0 3.25 13.0 3.4 13.0 3.55 12.95 3.65 L12.95 3.65 12.75 3.85 12.8 3.95 12.7 4.0 12.6 3.95 12.55 3.95 Q12.3 4.1 11.95 4.15 11.8 4.15 11.25 4.55 L10.8 4.9 10.8 5.0 10.7 4.95 10.65 5.0 10.6 4.9 10.5 4.85 10.45 4.9 10.5 4.8 10.3 4.6 Q10.3 4.4 10.4 4.2 L10.5 3.95 10.65 3.9 10.8 3.95 Q10.95 4.0 10.95 4.05 10.9 4.1 10.8 4.15 L10.8 4.25 10.75 4.2 10.65 4.2 10.65 4.5 Q10.7 4.5 10.95 4.35 L10.9 4.35 10.9 4.15 11.05 4.05 Q11.15 4.1 11.2 4.15 L11.25 4.15 11.25 4.1 Q11.2 4.05 11.2 4.0 11.2 3.9 11.25 3.85 L11.25 3.75 Q11.55 3.35 11.55 3.05 11.55 2.95 11.45 2.65 L11.3 2.3 Q11.2 2.15 11.1 1.9 L11.05 1.7 10.9 1.7 10.8 1.65 Q10.75 1.55 10.75 1.5 10.75 1.45 10.8 1.35 L11.0 1.15 11.2 1.15 Q11.25 1.15 11.3 1.2 L11.35 1.3 11.45 1.7 11.45 1.75 Q11.55 1.95 11.65 2.1 11.7 2.2 11.8 2.55 11.95 2.9 11.9 3.05 11.95 3.4 11.7 3.8 L11.65 3.85 11.7 3.85 Q11.85 3.75 12.35 3.65 L12.55 3.6 12.55 3.5 12.7 3.5 12.65 3.55 12.75 3.4 12.85 3.3 12.55 2.95 12.55 2.9 Q12.25 2.65 12.0 2.6 11.9 2.6 11.85 2.5 11.85 2.4 11.8 2.1 L11.8 1.75 Q11.8 1.5 11.85 1.3 11.9 1.1 12.0 0.95 12.1 0.8 12.35 0.85 L12.45 0.9 12.75 0.75 12.5 0.7 12.55 0.6 12.65 0.5 13.0 0.35 13.4 0.15 13.55 0.15 13.6 0.2 13.65 0.2 Q13.75 0.15 14.0 0.35 L13.95 0.35 Q14.15 0.5 14.4 0.8 14.6 1.05 14.75 1.25 L14.85 1.4 14.85 1.45 14.95 1.55 15.0 1.65 M14.75 2.35 L14.8 2.4 14.75 2.3 Q14.7 2.0 14.45 1.65 14.7 2.1 14.65 2.55 L14.8 2.45 14.75 2.35 M13.15 0.75 L13.15 0.75 M12.95 0.85 L12.85 0.85 12.8 0.9 12.8 0.95 12.95 0.9 13.0 0.8 12.95 0.85 M13.3 1.05 L13.3 1.05 M13.45 0.95 L13.55 1.05 13.5 1.05 13.45 0.95 M12.4 2.35 L12.4 2.35 M12.6 2.4 L12.65 2.3 Q12.7 2.3 12.75 2.25 L12.8 2.25 12.85 2.3 12.6 2.4 M13.0 2.6 L13.0 2.6 M9.45 0.75 Q9.55 0.85 9.55 0.95 9.6 1.0 9.55 1.05 L9.5 1.15 Q9.5 1.2 9.45 1.2 9.65 1.45 9.65 1.65 9.7 1.85 9.45 1.95 L9.3 2.05 9.25 2.05 Q8.9 2.1 8.75 1.65 8.65 1.45 8.65 1.2 8.65 1.0 8.7 0.85 L8.75 0.65 Q8.75 0.75 8.65 0.7 L8.45 0.65 8.35 0.6 8.3 0.5 Q8.25 0.45 8.3 0.4 8.3 0.3 8.35 0.3 L8.8 0.3 Q9.15 0.45 9.1 0.65 L9.1 0.75 Q9.15 0.75 9.2 0.75 L9.35 0.75 Q9.4 0.75 9.45 0.75 M9.35 1.1 L9.3 1.15 9.35 1.15 9.25 1.2 9.45 1.2 9.35 1.05 Q9.35 1.0 9.35 1.1 L9.35 1.1 M10.4 4.95 L10.4 4.95 M10.3 4.75 L10.3 4.75 M10.8 5.2 L10.8 5.2 M12.85 3.9 L12.85 3.9 M9.1 1.5 Q9.1 1.6 9.15 1.6 L9.2 1.6 9.1 1.45 9.05 1.35 9.1 1.5 M9.05 0.9 L9.05 0.9" fill="#00ffff" fill-opacity="0.5019608" fill-rule="evenodd" stroke="none"/>
      <path d="M7.55 -1.2 L7.75 -1.2 8.25 -1.1 8.55 -1.0 8.55 -0.95 8.3 -1.05 7.75 -1.1 7.6 -1.15 7.55 -1.15 7.55 -1.3 7.7 -1.8 8.05 -1.65 Q8.3 -1.55 8.4 -1.55 8.75 -1.55 9.0 -1.8 9.2 -2.0 9.3 -1.9 L9.45 -1.75 9.7 -1.7 9.8 -1.55 9.75 -1.45 9.75 -1.4 Q9.6 -1.4 9.6 -1.35 L9.55 -1.35 Q9.55 -1.3 9.55 -1.4 L9.6 -1.45 9.75 -1.5 9.75 -1.65 9.7 -1.65 9.4 -1.7 9.35 -1.75 9.3 -1.85 Q9.25 -1.85 9.2 -1.9 L9.15 -1.9 Q9.1 -1.8 8.85 -1.65 8.65 -1.5 8.55 -1.5 8.45 -1.5 8.15 -1.6 7.8 -1.7 7.8 -1.75 L7.65 -1.5 Q7.55 -1.3 7.55 -1.2 M17.2 -7.9 L17.05 -7.85 16.85 -7.65 Q16.9 -7.75 16.95 -7.85 L17.05 -7.95 17.2 -7.9 M18.15 -7.75 Q18.2 -7.7 18.4 -7.65 L18.2 -7.65 18.0 -7.8 18.05 -7.85 18.15 -7.75 M11.65 -4.5 L11.7 -4.4 11.65 -4.05 11.6 -4.05 11.6 -4.1 11.65 -4.2 11.7 -4.35 11.6 -4.55 11.45 -4.55 11.35 -4.3 11.45 -4.6 11.6 -4.55 11.65 -4.5 M11.65 -3.8 L11.65 -3.7 Q11.7 -3.65 11.8 -3.65 L11.8 -3.45 11.75 -3.4 Q11.65 -3.4 11.65 -3.35 L11.5 -3.4 11.65 -3.4 11.65 -3.45 11.7 -3.45 11.8 -3.55 11.7 -3.6 11.65 -3.65 11.6 -3.8 11.65 -3.8 M11.3 -4.2 L11.3 -3.9 Q11.3 -3.75 11.35 -3.6 11.4 -3.5 11.45 -3.45 11.35 -3.55 11.3 -3.6 11.25 -3.65 11.25 -3.9 11.25 -4.05 11.35 -4.25 L11.3 -4.2 M18.3 -5.35 L18.25 -5.3 Q18.1 -5.45 18.1 -5.55 L18.15 -5.55 Q18.3 -5.4 18.3 -5.35 M16.5 -5.45 L16.45 -5.5 16.4 -5.5 16.5 -5.6 Q16.6 -5.6 16.65 -5.55 L16.6 -5.5 16.55 -5.5 16.5 -5.45 M19.9 -7.35 L19.95 -7.15 19.9 -7.1 19.7 -7.4 19.75 -7.45 Q19.85 -7.4 19.9 -7.35 M21.1 -5.4 L20.9 -5.65 Q20.85 -5.65 20.65 -5.45 L20.45 -5.2 20.4 -5.2 20.6 -5.55 Q20.8 -5.75 20.95 -5.75 21.35 -5.2 21.35 -5.0 21.35 -4.85 20.8 -4.3 20.2 -3.75 20.2 -3.55 20.2 -3.35 20.4 -3.2 20.55 -3.1 20.55 -2.9 20.55 -2.7 20.5 -2.55 20.45 -2.4 20.25 -2.25 L20.5 -2.7 20.5 -3.05 Q20.25 -3.2 20.2 -3.3 20.15 -3.35 20.15 -3.6 20.15 -3.8 20.75 -4.35 21.3 -4.9 21.3 -5.05 21.3 -5.15 21.1 -5.4 M21.7 -4.25 L22.0 -4.55 21.95 -4.65 22.4 -4.95 22.8 -5.2 Q23.05 -5.2 23.25 -5.05 L23.65 -4.8 23.6 -4.85 23.75 -4.75 24.1 -4.35 24.35 -4.0 Q24.45 -3.85 24.55 -3.75 L24.55 -3.7 24.65 -3.55 24.5 -3.7 Q24.45 -3.45 24.0 -2.95 L24.0 -2.85 Q24.0 -2.25 23.9 -1.85 23.8 -1.6 23.55 -1.15 L23.6 -1.2 23.7 -1.35 23.6 -1.05 23.55 -0.75 23.55 -0.5 23.5 -0.2 23.35 -0.25 23.3 -0.6 Q23.25 -0.85 23.25 -0.9 L23.3 -1.05 23.35 -1.15 23.35 -1.55 Q23.3 -1.75 23.3 -1.85 23.3 -1.95 23.3 -2.05 L23.25 -2.25 23.2 -2.6 Q23.2 -2.75 23.3 -2.9 L23.3 -3.05 Q23.3 -3.15 23.4 -3.4 23.5 -3.65 23.45 -3.85 L23.5 -3.85 23.5 -3.65 Q23.5 -3.6 23.4 -3.3 L23.35 -3.05 23.35 -3.0 Q23.45 -3.2 23.65 -3.45 L23.75 -3.6 23.75 -3.7 Q23.7 -4.0 23.7 -4.2 L23.65 -4.25 23.45 -4.3 23.2 -4.35 Q23.2 -4.45 23.15 -4.65 L23.05 -4.85 22.95 -4.9 Q22.5 -4.75 22.3 -4.4 L22.2 -4.25 22.25 -4.15 22.25 -4.0 22.2 -4.0 22.2 -4.15 Q22.15 -4.0 22.15 -3.75 L22.1 -3.75 22.15 -4.1 22.15 -4.2 22.1 -4.35 22.05 -4.45 22.0 -4.45 Q21.7 -4.15 21.6 -3.95 L21.7 -3.9 21.45 -3.95 Q21.5 -4.05 21.7 -4.35 L21.95 -4.65 21.75 -4.35 21.7 -4.25 M21.6 -3.9 Q21.8 -3.7 21.8 -3.55 L21.8 -3.75 Q21.85 -3.65 21.85 -3.55 21.85 -3.4 21.8 -3.25 21.65 -3.1 21.6 -2.9 21.75 -2.95 21.85 -3.1 L22.05 -3.4 21.95 -3.15 Q21.9 -2.95 21.85 -2.95 21.75 -2.85 21.6 -2.8 L21.5 -2.5 21.45 -2.15 21.4 -2.15 21.45 -2.45 21.5 -2.8 21.45 -2.8 21.25 -2.7 Q21.15 -2.55 21.1 -2.3 21.05 -2.05 21.1 -1.85 L21.0 -1.85 21.0 -2.2 Q21.05 -2.3 21.05 -2.45 21.1 -2.6 21.2 -2.75 L21.55 -2.85 Q21.55 -3.0 21.7 -3.2 L21.8 -3.4 21.75 -3.35 21.7 -3.35 21.7 -3.4 21.75 -3.55 21.6 -3.9 M20.45 -0.85 L20.95 -1.55 20.9 -1.6 21.25 -1.6 21.45 -1.9 Q21.45 -1.95 21.45 -1.8 21.45 -1.75 21.4 -1.65 L21.25 -1.5 21.1 -1.55 20.95 -1.55 Q20.9 -1.35 20.7 -1.1 L20.55 -0.85 20.45 -0.85 M23.6 -4.7 L23.45 -4.75 23.7 -4.65 23.6 -4.7 M23.7 -4.3 Q23.85 -4.15 23.85 -3.9 L23.9 -3.75 24.05 -4.0 Q24.05 -4.1 23.85 -4.4 L23.7 -4.6 Q23.45 -4.7 23.3 -4.8 L23.15 -4.9 23.1 -4.9 Q23.3 -4.55 23.3 -4.4 23.5 -4.5 23.7 -4.3 M24.2 -4.3 L24.2 -4.3 M23.35 -1.85 L23.35 -1.85 M23.4 -1.85 L23.4 -1.3 Q23.45 -1.5 23.55 -1.7 23.75 -1.95 23.75 -2.05 23.75 -2.1 23.65 -2.3 L23.6 -2.5 Q23.45 -2.3 23.35 -2.05 L23.4 -1.85 M13.8 0.75 L13.7 0.65 13.65 0.55 13.55 0.55 13.45 0.65 Q13.4 0.65 13.3 0.75 13.25 0.8 13.2 0.8 L13.55 0.8 14.25 1.65 Q14.55 2.1 14.6 2.45 L14.65 2.5 14.65 2.55 Q14.65 2.3 14.55 2.05 L14.3 1.5 13.95 0.9 13.9 0.9 13.9 0.85 13.8 0.75 M14.75 1.55 L14.85 1.7 Q14.75 2.15 14.75 2.7 L14.75 3.0 14.4 3.7 14.35 3.7 14.5 3.4 14.55 3.15 14.65 2.85 14.65 2.6 14.55 2.4 14.55 2.35 Q14.5 2.05 14.2 1.65 L13.55 0.85 13.2 0.85 13.05 1.0 Q12.9 1.05 12.8 1.15 L12.55 1.15 12.35 1.2 12.3 1.3 12.25 1.3 12.2 1.8 Q12.2 2.05 12.3 2.15 L12.75 2.5 12.75 2.45 12.8 2.45 12.8 2.65 12.9 2.8 12.95 3.1 12.95 3.4 Q12.95 3.55 12.8 3.7 L12.7 3.8 12.7 3.75 12.5 3.9 Q12.05 4.25 11.8 4.3 11.65 4.3 11.4 4.45 L11.35 4.5 Q11.15 4.6 11.05 4.65 10.85 4.7 10.75 4.9 L10.6 5.15 10.6 5.2 10.55 5.2 10.55 5.0 10.6 5.0 10.5 4.75 10.45 4.6 10.3 4.35 10.55 4.05 10.65 4.2 Q10.75 4.3 10.85 4.3 10.9 4.3 10.95 4.25 L11.0 4.25 11.05 4.3 10.9 4.35 Q11.05 4.3 11.2 4.2 L11.05 4.35 10.9 4.35 10.65 4.3 10.55 4.1 10.45 4.25 Q10.35 4.35 10.35 4.4 L10.45 4.55 10.4 4.4 Q10.4 4.35 10.45 4.3 L10.65 4.3 10.8 4.35 10.65 4.35 10.6 4.3 10.45 4.35 10.45 4.4 Q10.45 4.5 10.5 4.6 10.6 4.8 10.6 4.9 L10.6 4.95 10.65 4.95 10.6 5.0 10.65 5.0 Q10.7 4.8 11.1 4.55 11.25 4.45 11.5 4.35 L11.65 4.2 12.05 3.9 Q12.3 3.85 12.5 3.75 L12.65 3.7 12.75 3.65 12.75 3.6 Q12.75 3.2 12.7 3.0 12.75 3.25 12.75 3.65 L12.8 3.65 Q12.95 3.5 12.95 3.4 L12.85 2.8 12.85 2.9 12.75 2.6 12.65 2.5 12.35 2.4 Q12.5 2.55 12.6 2.75 L12.5 2.6 Q12.35 2.4 12.2 2.4 L12.2 2.35 11.95 2.3 11.95 1.7 12.0 1.4 Q12.05 1.2 12.2 1.1 12.3 1.05 12.4 0.95 L12.7 0.75 12.7 0.7 13.1 0.5 Q13.35 0.4 13.45 0.35 L13.6 0.4 13.65 0.4 Q13.7 0.4 13.85 0.5 14.05 0.65 14.3 0.95 14.5 1.2 14.6 1.35 L14.75 1.55 M13.45 0.5 L13.55 0.4 13.5 0.4 Q12.95 0.6 12.9 0.65 L12.85 0.65 12.8 0.7 Q12.75 0.7 12.65 0.75 12.65 0.85 12.45 1.0 L12.3 1.1 12.35 1.1 Q12.8 1.0 13.1 0.8 L13.35 0.65 13.45 0.5 M12.6 1.1 L12.6 1.1 M12.25 1.25 L12.25 1.25 M11.75 3.05 Q11.75 3.35 11.55 3.7 L11.35 3.95 11.4 3.9 Q11.7 3.4 11.7 3.05 11.7 2.9 11.6 2.6 L11.45 2.2 Q11.35 2.05 11.25 1.8 L11.15 1.4 11.05 1.4 10.95 1.55 10.95 1.5 11.05 1.35 11.2 1.35 11.3 1.8 Q11.4 2.05 11.5 2.2 L11.65 2.6 Q11.75 2.9 11.75 3.05 M9.2 0.95 L9.35 0.95 9.25 1.0 9.2 1.0 9.2 1.05 Q9.2 1.2 9.35 1.35 9.5 1.55 9.5 1.65 9.5 1.7 9.35 1.75 L9.2 1.85 Q9.0 1.9 8.9 1.6 8.85 1.4 8.85 1.2 8.85 1.05 8.9 0.9 L8.9 0.65 Q8.9 0.6 8.7 0.5 8.55 0.45 8.45 0.45 8.5 0.35 8.75 0.5 8.95 0.6 8.95 0.65 L8.9 0.9 Q8.85 1.1 8.85 1.2 8.85 1.35 8.9 1.55 9.0 1.8 9.15 1.8 9.25 1.8 9.35 1.75 L9.45 1.65 9.25 1.3 Q9.15 1.25 9.15 1.05 9.15 1.0 9.2 1.0 L9.2 0.95" fill="#ffffff" fill-rule="evenodd" stroke="none"/>
    </g>
    <g id="shape1" transform="matrix(1.0, 0.0, 0.0, 1.0, 23.15, 21.25)">
      <path d="M13.2 -21.25 Q13.8 -21.3 14.3 -20.65 14.6 -20.2 14.8 -20.2 14.9 -20.2 15.0 -20.25 15.25 -20.35 15.55 -20.65 15.6 -20.7 15.65 -20.7 L15.75 -20.7 Q16.25 -20.65 16.25 -20.5 16.3 -20.4 16.3 -20.35 L16.2 -20.2 15.6 -19.65 Q15.5 -19.55 15.45 -19.55 L14.7 -19.55 14.35 -19.6 Q14.25 -19.6 14.2 -19.7 14.1 -19.75 13.85 -20.25 13.65 -20.55 13.45 -20.55 L13.05 -20.05 12.5 -19.4 12.4 -19.3 12.25 -19.35 Q12.2 -19.35 12.15 -19.45 12.15 -19.5 12.15 -19.55 12.2 -20.0 12.5 -20.55 12.85 -21.2 13.15 -21.25 L13.2 -21.25 M12.55 -15.5 L12.5 -15.4 12.5 -15.45 12.55 -15.5 Q12.6 -15.55 12.65 -15.55 L12.75 -15.55 13.3 -15.55 Q14.45 -15.55 14.65 -14.7 L14.65 -14.65 Q14.65 -14.25 14.7 -13.95 L14.75 -13.95 Q14.85 -13.95 14.9 -13.9 L15.5 -13.35 15.55 -13.35 Q16.05 -12.9 16.0 -12.65 16.0 -12.3 15.95 -12.3 L15.85 -12.2 15.5 -12.2 Q15.4 -12.2 15.35 -12.2 15.3 -12.25 15.3 -12.35 15.25 -12.4 15.3 -12.5 15.3 -12.55 15.45 -12.6 L15.45 -12.65 Q15.4 -12.95 15.0 -13.1 14.6 -13.3 14.3 -13.3 L13.6 -13.3 Q13.55 -13.35 13.5 -13.35 13.45 -13.4 13.45 -13.45 13.25 -13.95 13.15 -14.45 13.1 -14.65 13.0 -14.75 L13.0 -14.8 12.75 -14.95 Q12.5 -14.9 12.25 -14.75 L12.15 -14.7 11.5 -14.75 Q11.4 -14.75 11.15 -14.85 10.8 -15.05 10.75 -15.25 L10.7 -15.35 10.7 -15.8 Q10.7 -16.05 10.8 -16.6 10.9 -17.15 11.0 -17.5 L11.1 -17.65 11.2 -17.7 11.3 -17.7 11.45 -17.65 11.55 -17.5 11.55 -17.2 Q11.45 -16.85 11.4 -16.45 11.3 -16.05 11.3 -15.8 L11.3 -15.75 11.65 -15.35 12.0 -15.35 12.1 -15.4 12.55 -15.5 M13.8 -14.2 Q13.8 -14.05 13.9 -13.9 L14.0 -13.9 14.1 -13.95 14.15 -14.3 Q13.9 -14.55 13.7 -14.7 L13.8 -14.2 M22.5 -20.65 L22.95 -20.75 23.05 -20.7 23.15 -20.6 23.25 -20.3 Q23.35 -20.05 23.35 -19.8 L23.35 -19.7 Q23.0 -18.7 22.9 -18.55 L22.8 -18.5 22.7 -18.5 21.6 -18.6 Q21.55 -18.6 21.5 -18.65 21.45 -18.7 21.45 -18.8 21.4 -18.85 21.45 -18.95 L21.55 -19.0 Q21.5 -19.0 21.5 -19.1 L21.55 -19.2 Q21.75 -19.45 22.5 -19.3 L22.5 -20.0 22.4 -20.0 22.2 -20.05 Q22.1 -20.05 22.05 -20.1 22.0 -20.15 22.0 -20.25 22.0 -20.3 22.05 -20.35 22.15 -20.55 22.45 -20.65 L22.5 -20.65 M19.1 -17.95 L19.2 -17.9 19.25 -17.85 19.25 -17.8 19.3 -17.7 19.3 -17.5 Q19.3 -17.2 19.05 -16.9 18.8 -16.55 18.25 -16.45 L18.2 -16.45 Q18.15 -16.35 18.15 -16.25 18.15 -16.15 18.3 -16.1 18.75 -15.85 18.85 -15.65 L18.85 -15.5 18.8 -15.4 18.5 -15.25 18.45 -15.25 Q17.8 -15.2 17.6 -15.6 L17.6 -15.7 17.55 -16.0 Q17.55 -16.2 17.6 -16.45 17.75 -16.9 18.05 -17.05 L18.2 -17.1 18.25 -17.1 18.85 -17.9 Q18.9 -17.95 18.95 -17.95 L19.1 -17.95 M21.9 -9.65 L21.85 -9.65 21.45 -9.7 Q21.35 -9.7 21.3 -9.75 21.05 -10.0 21.05 -10.2 21.05 -10.3 21.1 -10.35 L21.25 -10.4 21.6 -10.4 22.1 -10.3 22.25 -10.15 22.3 -10.05 22.3 -9.9 22.2 -9.8 Q22.1 -9.7 21.9 -9.65 M21.6 -7.6 L21.65 -7.5 21.65 -7.4 Q21.6 -7.2 21.65 -7.1 L21.7 -7.0 21.7 -6.85 21.6 -6.8 Q21.5 -6.7 21.45 -6.7 L21.3 -6.7 Q21.1 -6.7 21.05 -6.9 21.0 -7.0 21.0 -7.2 21.0 -7.65 21.2 -7.65 21.25 -7.7 21.5 -7.65 L21.6 -7.6 M22.7 -8.1 Q22.7 -8.25 22.8 -8.35 L22.9 -8.4 23.05 -8.4 Q23.45 -8.35 23.65 -8.1 23.75 -7.95 23.85 -7.75 L23.85 -7.55 23.8 -7.45 Q23.8 -7.4 23.75 -7.35 23.65 -7.3 23.6 -7.3 23.5 -7.35 23.45 -7.4 23.0 -7.8 22.8 -7.9 22.75 -7.95 22.75 -8.0 L22.7 -8.1 M15.6 -11.1 Q15.7 -11.1 15.75 -11.05 L15.8 -10.9 15.9 -10.4 Q16.0 -10.0 16.0 -9.75 16.0 -9.5 15.85 -9.35 15.6 -9.1 15.1 -9.1 L14.7 -9.05 14.7 -8.7 14.65 -8.6 Q14.6 -8.5 14.55 -8.5 L14.4 -8.45 14.3 -8.5 Q14.2 -8.5 14.2 -8.55 14.15 -8.6 14.15 -8.7 L14.1 -9.0 14.05 -9.05 Q14.05 -9.5 14.65 -9.7 L15.3 -9.7 15.35 -10.15 15.3 -10.9 15.3 -11.0 15.5 -11.1 15.6 -11.1 M24.8 -13.15 L24.8 -12.95 Q24.8 -12.9 24.75 -12.8 24.7 -12.75 24.6 -12.75 24.45 -12.75 24.35 -12.8 L24.0 -12.75 23.85 -12.65 Q23.6 -12.5 23.5 -12.75 23.45 -12.8 23.45 -13.0 23.45 -13.45 23.8 -13.45 L24.05 -13.4 24.05 -13.45 24.3 -13.4 Q24.65 -13.35 24.75 -13.25 L24.8 -13.15 M25.1 -12.5 L25.25 -12.55 Q25.3 -12.5 25.35 -12.45 25.55 -12.2 25.55 -11.55 L25.55 -11.45 Q25.5 -11.4 25.4 -11.35 L25.15 -11.35 25.05 -11.4 Q25.0 -11.45 25.0 -11.55 25.0 -11.85 24.85 -12.2 24.85 -12.3 24.9 -12.4 L25.0 -12.5 25.1 -12.5 M23.45 -11.8 Q23.5 -11.9 23.6 -11.9 L23.7 -11.95 23.8 -11.95 23.9 -11.9 Q24.15 -11.65 24.15 -11.0 L24.1 -10.85 Q24.05 -10.8 24.0 -10.8 L23.85 -10.75 23.7 -10.75 Q23.65 -10.8 23.6 -10.85 23.55 -10.9 23.55 -10.95 23.55 -11.25 23.45 -11.65 23.4 -11.75 23.45 -11.8 M-21.05 -7.45 L-20.9 -7.45 Q-20.65 -7.35 -20.6 -7.2 -20.55 -7.1 -20.6 -7.05 -20.6 -6.95 -20.7 -6.9 L-20.9 -6.75 -20.95 -6.65 -21.3 -6.25 Q-21.35 -6.2 -21.45 -6.2 L-21.55 -6.2 Q-21.75 -6.15 -21.75 -6.6 L-21.75 -6.75 Q-21.7 -7.05 -21.4 -7.25 L-21.35 -7.3 -21.15 -7.4 Q-21.1 -7.45 -21.05 -7.45 M-19.55 -4.25 Q-19.55 -4.35 -19.5 -4.4 -19.05 -4.8 -18.75 -4.95 L-18.65 -4.95 -18.55 -4.9 -18.45 -4.8 Q-18.4 -4.7 -18.5 -4.45 L-18.6 -4.15 -18.75 -4.0 -18.8 -4.0 -19.0 -3.95 -19.05 -3.95 -19.4 -4.05 -19.55 -4.1 Q-19.6 -4.2 -19.55 -4.25 M-22.5 -5.5 Q-22.25 -5.35 -22.15 -5.0 -22.15 -4.95 -22.15 -4.85 L-22.2 -4.75 Q-22.2 -4.7 -22.25 -4.65 -22.3 -4.6 -22.4 -4.6 L-22.5 -4.65 -22.85 -4.95 Q-23.1 -5.2 -23.15 -5.4 L-23.15 -5.55 -23.05 -5.65 -22.95 -5.7 -22.8 -5.7 -22.7 -5.65 -22.5 -5.5 M-21.2 -2.35 L-21.15 -2.2 Q-21.1 -2.2 -21.05 -2.15 -21.0 -2.1 -21.0 -2.0 L-21.0 -1.85 Q-21.05 -1.75 -21.15 -1.65 -21.2 -1.6 -21.25 -1.6 -21.35 -1.6 -21.4 -1.65 -21.7 -1.9 -21.7 -2.3 L-21.65 -2.45 Q-21.6 -2.55 -21.5 -2.55 L-21.4 -2.55 -21.25 -2.5 -21.2 -2.35 M-16.05 -3.4 L-16.0 -3.3 -16.0 -3.05 Q-16.0 -2.7 -16.1 -2.65 -16.1 -2.6 -16.3 -2.5 L-16.4 -2.45 -16.5 -2.45 Q-16.6 -2.45 -16.65 -2.5 L-16.7 -2.65 Q-16.75 -2.7 -16.7 -2.75 -16.55 -3.0 -16.55 -3.3 -16.55 -3.4 -16.5 -3.45 -16.45 -3.55 -16.35 -3.55 L-16.25 -3.55 -16.15 -3.5 -16.05 -3.4 M-8.25 -7.2 Q-8.2 -7.15 -8.2 -7.1 L-8.15 -6.95 -8.15 -7.05 Q-8.1 -7.2 -7.95 -7.35 L-7.85 -7.4 Q-7.6 -7.45 -7.35 -7.5 L-7.35 -7.55 Q-7.45 -7.6 -7.45 -7.7 -7.45 -7.8 -7.3 -7.9 L-7.25 -8.0 -7.1 -8.0 -6.75 -7.95 Q-6.7 -7.95 -6.65 -7.9 -6.55 -7.85 -6.55 -7.75 L-6.55 -7.65 -6.5 -7.6 -6.45 -7.5 -6.45 -7.45 Q-6.4 -7.2 -6.65 -6.95 L-6.75 -6.9 -7.3 -6.9 -7.85 -6.75 -7.9 -6.75 -7.85 -6.7 -7.85 -6.55 -7.9 -6.45 Q-7.95 -6.4 -8.0 -6.35 L-8.1 -6.3 -8.65 -6.3 Q-8.75 -6.3 -8.8 -6.4 -8.85 -6.45 -8.85 -6.55 L-8.85 -6.7 -8.75 -6.95 Q-8.6 -7.3 -8.4 -7.25 -8.3 -7.25 -8.25 -7.2 M-6.9 -7.35 L-7.0 -7.45 -7.15 -7.45 -7.15 -7.3 Q-7.15 -7.25 -7.1 -7.25 L-6.95 -7.35 -6.9 -7.35 M-7.0 -7.45 L-7.0 -7.45 Q-7.1 -7.55 -7.15 -7.5 L-7.0 -7.45" fill="#00ffff" fill-opacity="0.5019608" fill-rule="evenodd" stroke="none"/>
      <path d="M14.7 -19.8 L14.35 -19.8 Q14.3 -19.9 14.05 -20.35 13.8 -20.8 13.45 -20.8 13.35 -20.8 12.85 -20.2 L12.35 -19.55 Q12.4 -19.95 12.7 -20.45 12.95 -20.95 13.2 -21.05 13.7 -21.05 14.1 -20.5 14.5 -19.95 14.8 -19.95 14.9 -19.95 15.1 -20.05 15.4 -20.2 15.7 -20.5 16.05 -20.45 16.05 -20.4 15.95 -20.3 15.45 -19.8 L14.7 -19.8 M12.85 -15.3 L13.3 -15.35 Q14.25 -15.35 14.45 -14.65 14.45 -14.05 14.5 -13.75 L14.75 -13.75 15.4 -13.2 Q15.8 -12.85 15.8 -12.65 L15.8 -12.45 15.75 -12.4 15.5 -12.4 15.6 -12.45 Q15.65 -12.45 15.65 -12.65 15.65 -13.05 15.1 -13.3 14.65 -13.5 14.3 -13.5 L13.85 -13.5 13.65 -13.55 Q13.45 -14.0 13.35 -14.5 13.3 -14.8 13.15 -14.95 L12.8 -15.2 Q12.45 -15.15 12.15 -14.95 L11.5 -14.95 Q11.4 -14.95 11.25 -15.05 11.0 -15.2 10.95 -15.35 L10.95 -15.8 Q10.95 -16.05 11.0 -16.55 11.1 -17.1 11.2 -17.45 L11.3 -17.45 11.35 -17.25 Q11.25 -16.9 11.15 -16.5 11.05 -16.05 11.05 -15.8 11.05 -15.65 11.1 -15.6 11.15 -15.5 11.55 -15.1 L11.85 -15.15 Q12.1 -15.15 12.15 -15.2 L12.6 -15.3 12.7 -15.3 12.7 -15.35 12.85 -15.3 M13.15 -15.2 Q13.4 -15.0 13.5 -14.65 L13.55 -14.15 Q13.65 -13.85 13.8 -13.7 L14.0 -13.7 14.3 -13.8 14.3 -13.9 14.35 -14.35 Q13.75 -15.1 13.15 -15.2 M22.95 -20.55 L23.05 -20.2 Q23.15 -20.0 23.15 -19.8 22.8 -18.85 22.7 -18.7 L21.65 -18.8 Q21.7 -18.85 21.7 -19.05 L22.55 -19.05 22.65 -19.15 22.7 -19.3 22.7 -20.25 22.5 -20.25 22.45 -20.2 22.2 -20.25 Q22.3 -20.4 22.55 -20.45 L22.95 -20.55 M19.05 -17.7 L19.05 -17.5 Q19.05 -17.25 18.9 -17.05 18.65 -16.75 18.2 -16.7 L19.05 -17.75 19.05 -17.7 M18.05 -16.6 Q17.95 -16.45 17.95 -16.25 17.95 -16.05 18.2 -15.9 18.55 -15.7 18.65 -15.55 L18.45 -15.45 Q17.95 -15.4 17.8 -15.7 L17.75 -16.0 Q17.75 -16.2 17.8 -16.4 17.95 -16.75 18.2 -16.9 18.2 -16.8 18.05 -16.6 M22.05 -9.95 Q22.0 -9.9 21.85 -9.85 L21.45 -9.9 Q21.3 -10.05 21.3 -10.2 L21.55 -10.2 22.05 -10.05 22.05 -9.95 M21.25 -7.45 L21.45 -7.45 Q21.35 -7.15 21.5 -6.95 21.3 -6.85 21.25 -7.0 21.2 -7.05 21.2 -7.2 21.2 -7.45 21.25 -7.45 M22.95 -8.15 L23.0 -8.2 Q23.3 -8.15 23.45 -7.95 L23.65 -7.65 23.6 -7.55 Q23.1 -8.0 22.95 -8.1 L22.95 -8.15 M15.6 -10.9 L15.7 -10.35 Q15.8 -9.95 15.8 -9.75 15.8 -9.6 15.7 -9.5 15.5 -9.3 15.05 -9.3 L14.5 -9.2 14.5 -8.7 14.35 -8.7 14.3 -9.05 Q14.3 -9.35 14.7 -9.5 L15.5 -9.5 Q15.55 -9.75 15.55 -10.15 L15.5 -10.9 15.6 -10.9 M24.6 -12.95 Q24.5 -12.95 24.45 -13.05 L23.85 -12.95 23.75 -12.85 Q23.65 -12.8 23.65 -13.0 23.65 -13.2 23.8 -13.25 L24.0 -13.2 24.25 -13.2 Q24.5 -13.15 24.6 -13.05 L24.6 -12.95 M23.95 -11.0 L23.8 -10.95 Q23.8 -11.3 23.65 -11.7 L23.75 -11.75 Q23.95 -11.55 23.95 -11.0 M25.35 -11.55 L25.2 -11.55 Q25.2 -11.85 25.05 -12.3 L25.2 -12.3 Q25.35 -12.1 25.35 -11.55 M-20.8 -7.1 Q-20.95 -7.0 -21.15 -6.8 -21.35 -6.45 -21.45 -6.4 L-21.5 -6.4 Q-21.55 -6.4 -21.55 -6.6 -21.55 -6.9 -21.3 -7.1 L-21.0 -7.25 Q-20.8 -7.2 -20.8 -7.1 M-19.35 -4.25 Q-18.95 -4.6 -18.7 -4.75 -18.65 -4.7 -18.7 -4.5 L-18.8 -4.2 -19.0 -4.2 -19.35 -4.25 M-22.8 -5.45 L-22.6 -5.3 Q-22.45 -5.2 -22.35 -4.95 L-22.4 -4.8 -22.7 -5.1 Q-22.9 -5.3 -22.95 -5.45 L-22.8 -5.45 M-21.4 -2.3 L-21.35 -2.1 Q-21.3 -2.0 -21.2 -2.0 L-21.2 -1.95 Q-21.25 -1.85 -21.3 -1.8 -21.5 -2.0 -21.5 -2.3 L-21.4 -2.3 M-16.2 -3.3 L-16.2 -3.05 Q-16.2 -2.8 -16.25 -2.75 L-16.4 -2.7 -16.5 -2.7 Q-16.35 -2.95 -16.35 -3.3 L-16.2 -3.3 M-7.35 -7.3 L-7.05 -7.25 -6.95 -7.25 Q-6.95 -7.2 -6.95 -7.45 L-6.95 -7.65 -7.2 -7.7 -7.2 -7.75 -7.15 -7.8 -6.8 -7.75 -6.75 -7.6 -6.65 -7.45 Q-6.65 -7.3 -6.8 -7.1 -7.05 -7.15 -7.35 -7.1 L-7.95 -6.95 -7.8 -7.2 -7.35 -7.3 M-8.2 -6.7 Q-8.1 -6.7 -8.05 -6.65 L-8.1 -6.55 -8.65 -6.55 Q-8.65 -6.7 -8.55 -6.85 -8.45 -7.05 -8.4 -7.05 -8.35 -6.85 -8.5 -6.7 L-8.2 -6.7" fill="#ffffff" fill-rule="evenodd" stroke="none"/>
    </g>
    <g id="sprite0" transform="matrix(1.0, 0.0, 0.0, 1.0, 54.25, 168.35)">
      <use ffdec:characterId="1692" height="33.65" transform="matrix(7.0, 0.0, 0.0, 7.0, -39.9, -117.6)" width="11.4" xlink:href="#shape2"/>
      <use ffdec:characterId="1693" height="2.3" transform="matrix(7.0, 0.0, 0.0, 7.0, 35.7, 22.05)" width="1.05" xlink:href="#shape3"/>
    </g>
    <g id="shape2" transform="matrix(1.0, 0.0, 0.0, 1.0, 5.7, 16.8)">
      <path d="M-3.25 9.35 L-3.7 9.0 -4.25 8.5 -4.45 8.25 -4.5 8.2 -4.5 8.15 -4.6 8.05 -5.0 7.5 -5.0 7.45 -5.4 6.95 -5.4 6.9 -5.55 6.7 -5.6 6.7 -5.65 6.6 -5.6 6.5 Q-5.7 6.3 -5.7 6.15 L-5.65 5.75 -5.65 5.45 Q-5.65 5.35 -5.6 5.3 L-5.5 5.2 -5.4 5.2 Q-5.35 5.2 -5.3 5.15 -5.25 5.15 -5.15 5.2 -5.05 5.2 -5.0 5.25 L-4.95 5.35 -4.75 5.55 Q-4.4 5.75 -4.15 5.95 -3.45 6.05 -3.1 6.4 L-3.0 6.3 -2.85 6.2 -2.95 6.0 Q-3.1 5.65 -3.1 5.55 L-3.1 5.45 -3.05 5.35 Q-3.0 5.25 -2.9 5.25 -2.85 5.2 -2.75 5.25 -2.65 5.3 -2.5 5.4 L-2.35 5.5 -2.15 5.65 -1.9 5.8 -1.8 5.85 -1.65 5.85 -1.65 5.7 Q-1.1 0.85 -1.15 -4.15 -1.2 -8.8 -1.35 -12.45 L-1.35 -12.6 -1.4 -13.15 -1.35 -13.65 -1.3 -14.2 Q-1.2 -14.7 -0.7 -15.7 L-0.7 -15.75 -0.65 -15.8 -0.35 -16.45 -0.3 -16.5 -0.3 -16.55 -0.2 -16.65 -0.2 -16.7 -0.15 -16.7 -0.1 -16.75 Q-0.05 -16.8 0.0 -16.8 L0.15 -16.8 0.15 -16.75 0.2 -16.7 0.3 -16.5 0.35 -16.5 0.35 -16.45 0.7 -15.8 0.7 -15.75 0.75 -15.7 Q1.2 -14.7 1.3 -14.2 L1.35 -13.65 1.4 -13.15 1.35 -12.6 1.35 -12.45 Q1.25 -8.8 1.2 -4.15 1.1 0.85 1.65 5.7 L1.65 5.8 1.7 5.85 1.8 5.85 1.9 5.8 1.95 5.8 Q2.05 5.7 2.15 5.65 L2.35 5.5 2.4 5.45 2.5 5.4 Q2.65 5.25 2.8 5.25 2.85 5.2 2.9 5.25 3.0 5.25 3.05 5.35 L3.1 5.45 3.1 5.55 Q3.1 5.65 2.95 6.0 L2.85 6.2 3.0 6.3 3.05 6.35 3.25 6.3 3.5 6.15 3.55 6.15 3.55 6.1 Q3.8 5.95 4.2 5.95 L4.8 5.5 5.05 5.25 Q5.1 5.2 5.2 5.2 5.25 5.15 5.3 5.15 L5.4 5.2 5.5 5.2 5.6 5.25 5.6 5.3 Q5.7 5.35 5.7 5.45 L5.7 5.55 5.65 5.75 5.7 6.0 Q5.7 6.4 5.65 6.5 L5.65 6.6 5.6 6.7 5.45 6.9 5.4 6.95 5.0 7.45 5.0 7.5 Q4.85 7.8 4.55 8.15 L4.5 8.2 4.5 8.25 4.3 8.4 3.55 9.2 Q3.1 9.65 2.35 10.05 L2.25 10.05 2.15 10.15 2.1 10.15 1.2 10.55 1.2 11.2 Q1.2 11.55 1.45 12.8 L1.7 13.95 1.9 14.1 1.95 14.1 2.05 14.2 2.05 14.3 2.1 14.45 2.05 14.55 2.0 14.6 Q1.9 14.7 1.7 14.8 L1.75 14.9 2.0 15.35 2.05 15.35 2.05 15.45 2.15 15.6 2.15 15.8 Q2.15 15.9 2.0 15.95 1.85 16.15 1.7 16.1 L1.45 16.1 1.4 16.15 1.4 16.2 1.35 16.2 1.35 16.25 1.3 16.3 Q1.1 16.5 1.0 16.5 L0.75 16.5 0.6 16.55 0.5 16.6 0.45 16.55 0.4 16.55 0.4 16.6 0.3 16.75 0.2 16.8 0.15 16.85 0.1 16.8 0.05 16.8 Q-0.2 16.75 -0.3 16.55 L-0.45 16.4 -0.55 16.4 -0.65 16.5 Q-0.7 16.55 -0.8 16.5 L-1.15 16.5 -1.25 16.4 -1.4 16.1 -1.7 16.1 Q-1.9 16.15 -2.1 15.75 L-2.1 15.6 Q-2.1 15.55 -2.05 15.5 -2.05 15.4 -1.75 14.9 L-1.65 14.8 Q-1.9 14.7 -2.0 14.55 L-2.05 14.5 -2.05 14.45 -2.1 14.4 -2.0 14.2 -1.9 14.1 Q-1.7 14.0 -1.5 13.9 -1.25 13.1 -1.25 12.1 L-1.3 10.5 Q-1.65 10.4 -2.1 10.15 L-2.15 10.15 Q-2.2 10.1 -2.25 10.05 L-2.65 9.8 -3.15 9.45 -3.25 9.4 -3.25 9.35 M-0.05 -16.55 L-0.1 -16.5 -0.05 -16.45 -0.1 -16.4 -0.15 -16.4 -0.15 -16.35 -0.45 -15.7 -0.55 -15.6 Q-1.0 -14.65 -1.1 -14.15 L-1.15 -13.6 -1.2 -13.15 -1.15 -12.65 -1.1 -12.5 Q-1.0 -8.85 -0.95 -4.15 -0.9 0.85 -1.45 5.75 L-1.45 5.95 -1.45 6.0 Q-1.7 6.05 -1.85 6.1 L-2.3 5.8 -2.5 5.65 -2.6 5.6 Q-2.75 5.5 -2.8 5.5 L-2.85 5.5 -2.85 5.45 -2.9 5.55 -2.75 5.9 -2.6 6.2 Q-2.6 6.3 -2.9 6.5 L-3.15 6.65 Q-3.2 6.6 -3.4 6.5 -3.65 6.3 -3.7 6.3 L-3.5 6.55 -3.5 6.6 -3.55 6.55 -4.0 6.3 -3.9 6.35 -4.15 6.2 -4.2 6.2 -4.9 5.7 -5.0 5.6 -5.15 5.5 -5.15 5.4 -5.2 5.45 -5.3 5.4 -5.3 5.45 -5.4 5.4 -5.45 5.45 -5.45 5.55 Q-5.45 5.7 -5.35 5.85 L-5.2 6.1 -5.15 6.25 -5.15 6.3 -5.1 6.3 Q-4.8 6.45 -4.5 6.7 L-4.3 6.95 -4.55 6.8 -5.0 6.65 -5.05 6.65 -5.1 6.55 -5.35 6.5 -5.3 6.6 -5.4 6.55 -5.25 6.8 -4.8 7.35 -4.35 8.0 -4.3 8.05 -4.3 8.1 Q-4.15 8.3 -3.55 8.8 L-3.3 9.0 -3.1 9.25 -3.05 9.25 -2.8 9.2 -2.85 9.15 -2.45 9.0 -2.55 9.1 -2.65 9.25 -2.65 9.3 -2.7 9.3 -2.75 9.4 -2.55 9.55 -2.3 9.7 -2.3 9.65 Q-2.2 9.6 -2.1 9.4 L-2.05 9.3 -2.05 9.4 -2.1 9.6 -2.1 9.9 -2.05 9.85 Q-1.95 9.8 -1.85 9.8 L-1.6 10.0 Q-1.35 10.25 -1.2 10.25 L-1.05 10.25 -1.0 12.1 Q-1.05 13.2 -1.35 14.0 -1.55 14.2 -1.85 14.3 L-1.85 14.35 -1.9 14.4 -1.85 14.4 Q-1.7 14.55 -1.35 14.7 L-1.55 15.0 -1.85 15.5 -1.8 15.6 -1.9 15.65 Q-1.8 15.9 -1.7 15.9 -1.4 15.85 -1.3 15.9 -1.25 15.95 -1.05 16.3 L-0.75 16.3 -0.75 16.25 -0.65 16.15 -0.35 16.15 -0.15 16.45 Q-0.05 16.55 0.15 16.6 L0.25 16.45 Q0.3 16.4 0.4 16.35 L0.5 16.35 Q0.6 16.3 0.7 16.3 L1.0 16.25 1.15 16.15 1.2 16.05 1.35 15.9 Q1.45 15.85 1.7 15.9 1.8 15.9 1.9 15.75 L1.95 15.7 1.85 15.5 1.85 15.45 1.35 14.7 Q1.75 14.55 1.9 14.4 L1.9 14.4 1.85 14.35 1.85 14.3 Q1.65 14.2 1.5 14.1 L1.2 12.85 Q0.95 11.55 0.95 11.2 L1.0 10.5 1.05 10.25 1.2 10.25 Q1.35 10.25 1.6 10.0 L1.85 9.8 Q1.95 9.8 2.05 9.85 L2.1 9.9 2.1 9.6 2.05 9.4 2.05 9.3 2.1 9.4 2.3 9.65 2.3 9.7 2.55 9.55 2.75 9.4 2.7 9.3 2.65 9.3 2.7 9.25 2.45 9.0 2.85 9.15 2.8 9.2 3.1 9.25 3.3 9.0 3.55 8.8 3.6 8.8 Q4.15 8.3 4.3 8.1 L4.35 8.05 4.35 8.0 Q4.35 7.95 4.85 7.35 L5.25 6.8 5.45 6.55 Q5.4 6.6 5.35 6.6 L5.35 6.5 5.1 6.55 5.05 6.65 5.0 6.65 4.55 6.8 4.3 6.95 4.5 6.7 Q4.8 6.45 5.1 6.3 L5.15 6.3 5.2 6.25 5.15 6.25 5.2 6.1 Q5.3 5.95 5.4 5.85 5.45 5.7 5.45 5.55 L5.45 5.4 5.3 5.45 5.3 5.4 5.25 5.45 5.2 5.4 5.2 5.5 5.0 5.6 4.9 5.7 4.2 6.2 4.15 6.2 3.95 6.35 4.0 6.3 3.55 6.55 3.7 6.3 Q3.65 6.3 3.4 6.5 L3.15 6.65 2.9 6.5 Q2.6 6.3 2.6 6.2 L2.75 5.9 2.9 5.55 2.9 5.45 2.85 5.5 2.8 5.5 Q2.75 5.5 2.6 5.6 L2.5 5.65 Q2.35 5.75 2.3 5.8 L2.05 6.0 1.85 6.1 Q1.7 6.05 1.45 6.0 L1.45 5.95 1.45 5.75 Q0.9 0.85 0.95 -4.15 1.0 -8.85 1.15 -12.5 L1.15 -12.65 1.2 -13.15 1.15 -13.6 1.1 -14.15 Q1.0 -14.65 0.55 -15.6 L0.55 -15.65 0.5 -15.7 0.15 -16.35 0.15 -16.4 0.1 -16.45 0.1 -16.5 0.0 -16.6 -0.05 -16.55 M0.3 -16.5 L0.3 -16.55 0.25 -16.55 0.3 -16.5 0.3 -16.5 M2.5 6.4 L2.5 6.4 M1.55 6.65 L1.95 6.8 Q2.45 7.05 2.65 7.1 2.2 7.35 1.7 7.5 L1.85 7.3 1.7 7.4 1.65 7.2 1.6 7.1 1.55 6.65 M5.1 5.65 L5.1 5.65 M4.2 8.0 L4.2 8.0 M0.1 8.5 L0.1 8.5 M0.65 8.9 L0.65 8.9 M2.35 9.4 L2.35 9.55 2.25 9.45 2.3 9.45 2.35 9.4 M0.65 11.25 L0.7 11.25 0.65 11.35 0.65 11.25 M-1.4 14.3 L-1.45 14.35 -1.4 14.3 M1.0 14.5 L1.0 14.5 M-5.05 5.65 L-5.05 5.65 M-1.95 6.25 L-2.0 6.2 -1.95 6.2 -1.95 6.25 M-1.5 6.65 L-1.6 7.1 -1.65 7.2 -1.7 7.4 -1.8 7.3 -1.7 7.5 Q-2.2 7.35 -2.65 7.1 -2.45 7.05 -1.9 6.8 L-1.5 6.65 M-1.25 5.95 L-1.25 5.95 M-2.35 9.45 L-2.35 9.45 M-2.3 9.5 L-2.3 9.5 M-0.9 8.9 L-0.9 8.9 M-4.15 8.05 L-4.15 8.05 M-0.95 14.45 L-0.95 14.45" fill="#ebebeb" fill-opacity="0.003921569" fill-rule="evenodd" stroke="none"/>
      <path d="M-0.05 -16.55 L0.0 -16.6 0.1 -16.5 0.1 -16.45 0.15 -16.4 0.15 -16.35 0.5 -15.7 0.55 -15.65 0.55 -15.6 Q1.0 -14.65 1.1 -14.15 L1.15 -13.6 1.2 -13.15 1.15 -12.65 1.15 -12.5 Q1.0 -8.85 0.95 -4.15 0.9 0.85 1.45 5.75 L1.45 5.95 1.45 6.0 Q1.7 6.05 1.85 6.1 L2.05 6.0 2.3 5.8 Q2.35 5.75 2.5 5.65 L2.6 5.6 Q2.75 5.5 2.8 5.5 L2.85 5.5 2.9 5.45 2.9 5.55 2.75 5.9 2.6 6.2 Q2.6 6.3 2.9 6.5 L3.15 6.65 3.4 6.5 Q3.65 6.3 3.7 6.3 L3.55 6.55 4.0 6.3 3.95 6.35 4.15 6.2 4.2 6.2 4.9 5.7 5.0 5.6 5.2 5.5 5.2 5.4 5.25 5.45 5.3 5.4 5.3 5.45 5.45 5.4 5.45 5.55 Q5.45 5.7 5.4 5.85 5.3 5.95 5.2 6.1 L5.15 6.25 5.2 6.25 5.15 6.3 5.1 6.3 Q4.8 6.45 4.5 6.7 L4.3 6.95 4.55 6.8 5.0 6.65 5.05 6.65 5.1 6.55 5.35 6.5 5.35 6.6 Q5.4 6.6 5.45 6.55 L5.25 6.8 4.85 7.35 Q4.35 7.95 4.35 8.0 L4.35 8.05 4.3 8.1 Q4.15 8.3 3.6 8.8 L3.55 8.8 3.3 9.0 3.1 9.25 2.8 9.2 2.85 9.15 2.45 9.0 2.7 9.25 2.65 9.3 2.7 9.3 2.75 9.4 2.55 9.55 2.3 9.7 2.3 9.65 2.1 9.4 2.05 9.3 2.05 9.4 2.1 9.6 2.1 9.9 2.05 9.85 Q1.95 9.8 1.85 9.8 L1.6 10.0 Q1.35 10.25 1.2 10.25 L1.05 10.25 1.0 10.5 0.95 11.2 Q0.95 11.55 1.2 12.85 L1.5 14.1 Q1.65 14.2 1.85 14.3 L1.85 14.35 1.9 14.4 1.9 14.4 Q1.75 14.55 1.35 14.7 L1.85 15.45 1.85 15.5 1.95 15.7 1.9 15.75 Q1.8 15.9 1.7 15.9 1.45 15.85 1.35 15.9 L1.2 16.05 1.15 16.15 1.0 16.25 0.7 16.3 Q0.6 16.3 0.5 16.35 L0.4 16.35 Q0.3 16.4 0.25 16.45 L0.15 16.6 Q-0.05 16.55 -0.15 16.45 L-0.35 16.15 -0.65 16.15 -0.75 16.25 -0.75 16.3 -1.05 16.3 Q-1.25 15.95 -1.3 15.9 -1.4 15.85 -1.7 15.9 -1.8 15.9 -1.9 15.65 L-1.8 15.6 -1.85 15.5 -1.55 15.0 -1.35 14.7 Q-1.7 14.55 -1.85 14.4 L-1.9 14.4 -1.85 14.35 -1.85 14.3 Q-1.55 14.2 -1.35 14.0 -1.05 13.2 -1.0 12.1 L-1.05 10.25 -1.2 10.25 Q-1.35 10.25 -1.6 10.0 L-1.85 9.8 Q-1.95 9.8 -2.05 9.85 L-2.1 9.9 -2.1 9.6 -2.05 9.4 -2.05 9.3 -2.1 9.4 Q-2.2 9.6 -2.3 9.65 L-2.3 9.7 -2.55 9.55 -2.75 9.4 -2.7 9.3 -2.65 9.3 -2.65 9.25 -2.55 9.1 -2.45 9.0 -2.85 9.15 -2.8 9.2 -3.05 9.25 -3.1 9.25 -3.3 9.0 -3.55 8.8 Q-4.15 8.3 -4.3 8.1 L-4.3 8.05 -4.35 8.0 -4.8 7.35 -5.25 6.8 -5.4 6.55 -5.3 6.6 -5.35 6.5 -5.1 6.55 -5.05 6.65 -5.0 6.65 -4.55 6.8 -4.3 6.95 -4.5 6.7 Q-4.8 6.45 -5.1 6.3 L-5.15 6.3 -5.15 6.25 -5.2 6.1 -5.35 5.85 Q-5.45 5.7 -5.45 5.55 L-5.45 5.45 -5.4 5.4 -5.3 5.45 -5.3 5.4 -5.2 5.45 -5.15 5.4 -5.15 5.5 -5.0 5.6 -4.9 5.7 -4.2 6.2 -4.15 6.2 -3.9 6.35 -4.0 6.3 -3.55 6.55 -3.5 6.6 -3.5 6.55 -3.7 6.3 Q-3.65 6.3 -3.4 6.5 -3.2 6.6 -3.15 6.65 L-2.9 6.5 Q-2.6 6.3 -2.6 6.2 L-2.75 5.9 -2.9 5.55 -2.85 5.45 -2.85 5.5 -2.8 5.5 Q-2.75 5.5 -2.6 5.6 L-2.5 5.65 -2.3 5.8 -1.85 6.1 Q-1.7 6.05 -1.45 6.0 L-1.45 5.95 -1.45 5.75 Q-0.9 0.85 -0.95 -4.15 -1.0 -8.85 -1.1 -12.5 L-1.15 -12.65 -1.2 -13.15 -1.15 -13.6 -1.1 -14.15 Q-1.0 -14.65 -0.55 -15.6 L-0.45 -15.7 -0.15 -16.35 -0.15 -16.4 -0.1 -16.4 -0.05 -16.45 -0.1 -16.5 -0.05 -16.55 M0.0 -12.45 L0.0 4.45 0.1 4.45 0.1 4.55 0.15 4.7 0.6 5.7 0.65 5.75 0.7 5.85 0.9 5.9 0.95 5.95 1.15 5.95 1.15 5.6 Q0.6 0.8 0.7 -4.15 0.75 -8.4 0.8 -11.8 0.85 -12.05 0.9 -12.5 L0.9 -13.7 Q0.85 -14.15 0.7 -14.7 L0.7 -14.75 0.6 -14.95 0.4 -15.55 0.4 -15.6 0.35 -15.7 Q0.3 -15.8 0.25 -15.85 L0.2 -16.0 0.1 -16.2 0.0 -16.35 0.0 -16.15 -0.05 -16.1 -0.05 -16.2 -0.1 -16.15 -0.15 -16.0 -0.25 -15.85 -0.3 -15.7 -0.35 -15.6 -0.4 -15.55 -0.6 -14.95 -0.65 -14.75 -0.7 -14.7 Q-0.85 -14.15 -0.9 -13.7 L-0.9 -12.5 Q-0.85 -12.05 -0.8 -11.8 -0.7 -8.4 -0.65 -4.15 -0.6 0.8 -1.1 5.6 L-1.1 5.75 -1.15 5.8 -1.1 5.85 -1.15 5.95 -1.05 5.95 -1.0 5.9 -0.95 5.9 -0.65 5.8 -0.65 5.75 -0.6 5.7 -0.15 4.7 -0.1 4.6 0.0 4.55 0.0 -12.45 M-0.05 5.0 L-0.1 5.05 -0.25 5.35 -0.25 5.4 -0.25 5.45 Q-0.35 5.7 -0.5 5.9 -1.0 5.95 -1.85 6.25 L-1.95 6.3 -2.0 6.25 -1.95 6.25 -2.0 6.25 -2.1 6.15 -2.25 6.05 -2.3 6.0 -2.45 5.9 -2.5 5.85 Q-2.6 5.7 -2.7 5.7 L-2.7 5.75 -2.45 6.3 -2.45 6.4 -2.5 6.45 -2.4 6.45 -2.45 6.5 -2.7 6.6 -3.0 6.8 -3.3 6.8 -3.05 6.95 -3.05 7.0 -2.95 7.1 -2.9 7.05 -2.8 7.0 -2.7 7.0 Q-2.5 6.85 -2.1 6.7 -1.85 6.6 -1.55 6.5 L-1.5 6.5 -1.5 6.45 -1.35 6.45 -1.2 6.4 -1.2 6.45 -0.95 6.4 -0.9 6.4 -0.75 6.35 -0.65 6.35 0.0 6.3 0.05 6.3 0.65 6.35 0.75 6.35 0.9 6.4 1.0 6.4 1.2 6.45 1.2 6.4 1.35 6.45 1.5 6.45 1.5 6.5 1.6 6.5 2.15 6.7 Q2.5 6.85 2.7 7.0 L2.8 7.0 2.9 7.05 2.95 7.1 3.1 6.95 3.3 6.8 3.05 6.8 Q2.7 6.6 2.5 6.5 L2.45 6.45 2.35 6.45 2.35 6.4 2.3 6.4 2.55 5.8 2.6 5.8 2.65 5.65 Q2.55 5.65 2.3 5.9 L1.95 6.25 2.0 6.25 1.95 6.3 1.8 6.25 1.6 6.2 1.1 6.05 0.95 6.0 0.7 5.95 0.7 6.0 Q0.5 5.95 0.4 5.8 0.4 5.65 0.3 5.5 L0.3 5.4 0.05 4.9 0.0 4.8 -0.05 4.9 -0.05 5.0 M0.45 6.45 L0.8 6.6 0.75 6.55 0.75 6.45 0.45 6.45 M0.3 7.25 L0.3 7.2 0.25 7.1 0.2 7.05 0.15 6.95 -0.1 6.95 Q-0.2 7.0 -0.3 7.2 L-0.35 7.5 -0.4 7.65 -0.3 7.5 -0.25 7.45 -0.3 7.6 -0.45 7.85 -0.45 7.9 -0.5 7.95 -0.5 8.1 Q-0.25 8.25 0.0 8.3 0.2 8.25 0.4 8.2 L0.4 8.15 0.45 8.05 0.5 7.9 0.45 7.9 0.45 7.75 0.4 7.7 0.3 7.5 0.3 7.4 0.35 7.4 0.3 7.25 M0.25 6.95 L0.3 7.05 0.5 7.3 0.5 7.45 0.55 7.7 1.05 7.65 0.95 7.05 0.9 7.05 0.9 6.95 0.65 6.8 0.4 6.7 0.25 6.65 0.05 6.6 -0.15 6.6 -0.35 6.7 -0.9 6.95 -0.9 7.05 -1.0 7.65 -0.55 7.7 -0.5 7.45 -0.45 7.3 Q-0.45 7.2 -0.3 7.05 L-0.25 6.95 -0.2 6.9 -0.15 6.9 0.0 6.85 0.2 6.9 0.25 6.95 M1.25 6.6 L1.25 6.55 0.9 6.5 0.9 6.55 0.95 6.6 1.25 6.6 M1.2 6.9 L1.2 6.9 M1.1 7.05 L1.2 7.6 1.4 7.6 1.3 7.2 1.3 7.05 1.1 7.05 M1.55 6.65 L1.6 7.1 1.65 7.2 1.7 7.4 1.85 7.3 1.7 7.5 Q2.2 7.35 2.65 7.1 2.45 7.05 1.95 6.8 L1.55 6.65 M2.5 6.4 L2.5 6.4 M5.1 5.65 L5.15 5.65 5.1 5.7 Q4.8 5.95 4.2 6.3 L4.0 6.45 Q3.85 6.55 3.6 6.65 L3.6 6.7 3.5 6.75 3.7 6.8 Q3.65 6.9 3.4 7.0 3.1 7.2 3.0 7.25 L2.95 7.25 2.95 7.2 2.7 7.2 1.75 7.6 1.65 7.65 1.6 7.7 1.45 7.75 1.25 7.75 1.1 7.85 1.45 7.95 1.8 7.95 1.75 8.0 1.85 8.05 1.8 8.1 1.7 8.05 1.55 8.2 1.75 8.25 Q2.05 8.0 2.35 7.85 L2.4 7.85 2.5 7.8 Q2.75 7.65 3.0 7.6 L3.05 7.55 3.35 7.5 Q3.35 7.55 3.3 7.6 L3.3 7.65 3.2 7.75 Q3.1 7.85 3.05 8.0 L2.8 8.1 Q2.75 8.15 2.85 8.35 L2.7 8.35 2.85 8.4 3.4 8.65 3.4 8.7 3.75 8.4 4.1 8.05 3.85 8.05 3.55 8.1 3.4 8.05 3.35 8.05 3.35 8.1 3.05 8.1 3.2 7.95 3.55 7.8 3.45 7.95 3.4 8.0 Q3.55 7.9 4.0 7.75 L4.3 7.65 4.55 7.35 4.5 7.4 3.8 7.55 3.6 7.55 Q4.1 7.35 4.45 7.3 L4.5 7.25 4.6 7.3 4.65 7.25 Q4.9 6.9 5.15 6.75 L5.15 6.7 5.1 6.75 4.8 6.9 4.25 7.1 3.8 7.25 Q3.9 7.15 4.2 7.05 L4.25 7.0 4.75 6.8 4.55 6.9 4.3 6.95 4.25 7.0 4.2 7.0 3.95 7.15 3.7 7.25 3.5 7.3 3.65 7.15 4.3 6.6 Q4.6 6.35 5.0 6.1 L5.05 6.1 5.1 6.05 5.15 5.8 5.15 5.6 5.1 5.65 5.1 5.65 M4.2 8.0 L4.2 8.0 M2.5 8.85 L2.5 8.9 2.85 9.05 2.9 9.1 3.35 8.7 2.5 8.35 2.5 8.85 M1.3 8.0 L1.25 7.95 0.8 7.95 0.7 7.95 0.6 7.95 0.6 8.05 0.55 8.1 0.55 8.15 0.5 8.3 0.55 8.3 0.5 8.35 0.5 8.5 0.5 8.6 0.55 8.8 0.7 8.8 0.85 8.75 0.8 8.7 0.95 8.7 1.0 8.65 1.25 8.3 1.25 8.25 1.15 8.15 1.2 8.1 1.45 8.1 1.3 8.0 M0.0 7.3 L0.0 7.25 0.05 7.3 Q0.1 7.35 0.2 7.55 L0.4 7.9 0.35 8.0 0.3 8.15 0.2 8.15 0.15 8.2 -0.15 8.2 -0.15 8.15 -0.25 8.15 Q-0.3 8.1 -0.3 8.0 L-0.4 7.95 -0.35 7.9 -0.2 7.55 0.0 7.3 M0.4 8.2 L0.15 8.35 0.1 8.4 0.0 8.35 -0.1 8.4 -0.15 8.35 -0.45 8.15 -0.5 8.15 Q-0.45 8.3 -0.35 8.35 L-0.05 8.5 -0.1 8.5 0.0 8.6 Q0.05 8.55 0.1 8.5 L0.35 8.35 0.5 8.2 0.4 8.25 0.4 8.2 M0.1 8.5 L0.1 8.5 M0.15 8.6 L0.1 8.65 0.15 8.7 0.25 8.6 0.45 8.5 0.45 8.45 0.4 8.4 0.25 8.5 0.15 8.5 0.15 8.6 M0.25 8.75 L0.3 8.85 0.35 8.8 0.45 8.8 0.45 8.55 0.25 8.75 M1.05 8.85 L0.95 8.95 Q1.0 8.95 1.05 9.0 L1.0 9.05 0.7 9.05 0.55 9.1 0.7 9.45 0.7 9.6 0.75 9.6 0.75 9.65 0.8 9.6 0.8 9.55 1.0 9.45 1.2 9.25 1.15 9.25 1.15 9.15 Q1.15 9.0 1.2 8.75 L1.25 8.55 1.1 8.7 1.1 8.75 1.0 8.8 1.05 8.85 M0.65 8.9 L0.65 8.9 M-0.7 10.2 L-0.7 10.35 -0.65 10.45 -0.55 11.15 Q-0.4 11.65 -0.25 11.95 L0.2 12.0 0.4 11.8 Q0.5 11.4 0.65 10.3 L0.65 10.05 0.7 10.05 0.7 9.9 0.45 9.4 0.25 9.1 0.15 8.9 0.1 8.9 0.0 8.8 -0.05 8.85 -0.1 8.85 Q-0.15 8.9 -0.4 9.25 L-0.6 9.6 Q-0.75 9.8 -0.75 9.85 L-0.75 10.0 Q-0.75 10.15 -0.7 10.2 M2.3 9.0 L2.1 8.8 2.15 8.9 Q2.35 9.2 2.4 9.4 L2.35 9.4 2.65 9.3 2.4 9.1 2.3 9.0 M2.35 9.4 L2.3 9.45 2.25 9.45 2.35 9.55 2.35 9.4 M1.9 9.1 L1.7 8.95 1.7 9.0 1.75 9.1 Q1.75 9.3 1.65 9.55 1.55 9.85 1.4 9.95 L1.65 9.8 Q1.8 9.55 2.0 9.65 L1.95 9.4 1.9 9.35 1.85 9.15 1.9 9.1 M0.75 11.2 Q0.7 11.3 0.65 11.45 L0.75 11.5 0.75 11.2 M0.65 11.25 L0.65 11.35 0.7 11.25 0.65 11.25 M0.65 11.7 L0.6 11.7 0.6 11.8 0.55 11.9 0.5 11.95 0.45 12.05 0.8 12.05 0.95 12.1 0.9 11.85 Q0.8 11.8 0.8 11.65 L0.75 11.6 0.65 11.55 0.65 11.7 M-1.0 13.4 L-1.1 13.8 Q-1.0 13.65 -0.9 13.5 L-0.85 13.35 -0.75 13.1 -0.75 13.25 -0.45 13.05 Q0.05 12.85 0.1 12.8 L0.55 12.8 Q0.55 12.9 0.7 12.8 L1.05 12.8 0.95 12.2 0.95 12.15 Q0.7 12.15 0.7 12.1 L0.35 12.15 0.1 12.25 -0.1 12.25 -0.3 12.3 -0.4 12.25 -0.55 12.35 Q-0.75 12.45 -0.8 12.65 L-0.85 12.65 -0.9 12.75 -0.9 13.05 -0.95 13.2 -0.95 13.3 -1.0 13.35 -1.0 13.4 M0.75 12.9 L0.9 13.25 Q1.05 13.65 1.25 13.9 L1.2 13.75 Q1.1 13.45 1.1 13.35 L1.05 12.9 0.75 12.9 M-1.4 14.3 L-0.9 14.2 -0.85 14.2 -0.85 14.25 -0.6 14.3 -0.3 14.25 -0.3 14.3 -0.05 14.45 0.25 14.45 Q0.6 14.45 1.05 14.25 L1.1 14.25 1.45 14.3 1.4 14.3 1.15 14.0 1.15 13.95 0.95 13.75 0.9 13.65 0.8 13.4 Q0.7 13.15 0.65 12.9 -0.2 13.0 -0.45 13.15 -0.6 13.2 -0.75 13.4 L-0.8 13.45 -0.9 13.6 -1.05 13.85 -1.4 14.1 -1.65 14.35 -1.65 14.4 -1.5 14.4 -1.5 14.35 -1.45 14.35 -1.4 14.3 M1.65 14.35 L1.45 14.3 1.45 14.4 1.65 14.4 1.65 14.35 M1.6 15.55 L1.4 15.25 1.25 14.9 1.2 14.8 1.2 14.7 Q1.15 15.0 0.9 15.4 L0.95 15.4 1.6 15.5 1.6 15.55 M1.0 14.5 L1.0 14.5 M1.0 14.75 L1.05 14.7 0.95 14.75 Q0.9 14.85 0.85 15.0 L0.8 15.0 0.7 15.15 0.6 15.2 Q0.45 15.35 0.25 15.4 L0.05 15.35 0.05 15.4 0.0 15.4 0.0 15.35 -0.05 15.35 -0.25 15.4 Q-0.45 15.35 -0.6 15.2 L-0.8 15.0 -0.95 14.75 -1.0 14.7 Q-0.9 15.2 -0.6 15.55 L-0.35 15.75 -0.05 15.8 0.25 15.75 0.4 15.75 0.6 15.55 0.75 15.35 0.45 15.6 -0.1 15.6 Q-0.3 15.55 -0.3 15.5 0.55 15.5 0.8 15.15 L0.9 14.85 Q0.95 14.8 1.0 14.75 M0.15 14.8 L0.0 14.8 Q-0.05 14.8 -0.3 14.65 -0.5 14.5 -0.85 14.5 L-0.85 14.6 Q-0.85 14.8 -0.75 14.95 L-0.55 15.15 -0.4 15.2 0.0 15.05 Q0.15 14.95 0.2 14.95 L0.15 14.8 M-5.05 5.65 L-5.05 5.65 -5.15 5.6 -5.15 5.65 -5.05 5.65 M-3.95 6.45 L-4.2 6.3 Q-4.75 5.95 -5.05 5.7 L-5.15 5.65 -5.2 5.65 Q-5.25 5.6 -5.3 5.65 L-5.35 5.7 -5.3 5.7 -5.0 6.2 -4.95 6.15 -5.0 6.1 -4.95 6.1 Q-4.6 6.35 -4.3 6.6 -4.1 6.8 -3.65 7.15 L-3.5 7.3 -3.95 7.15 -4.2 7.0 -4.25 7.0 -4.3 6.95 -4.5 6.9 -4.5 6.9 Q-4.35 6.95 -4.2 7.0 L-4.2 7.05 Q-3.85 7.15 -3.8 7.25 L-4.25 7.1 -4.55 6.95 Q-4.8 6.8 -4.9 6.8 L-4.9 6.85 -5.0 6.8 -5.1 6.75 -5.1 6.7 -5.15 6.75 -5.05 6.8 Q-5.0 6.9 -4.9 7.1 -4.8 7.25 -4.55 7.3 L-4.5 7.25 -4.45 7.3 Q-4.1 7.35 -3.6 7.55 L-3.75 7.55 -3.85 7.55 -3.95 7.5 -4.1 7.5 -4.45 7.4 -4.5 7.4 -4.5 7.35 -4.3 7.65 -4.0 7.75 Q-3.5 7.9 -3.4 8.0 L-3.4 7.95 -3.55 7.8 -3.15 7.95 -3.05 8.05 -3.35 8.05 -3.4 8.05 -3.7 8.05 -4.1 8.05 -3.7 8.4 -3.4 8.7 -3.35 8.65 -2.8 8.4 -2.7 8.35 -2.85 8.35 Q-2.75 8.15 -2.8 8.1 L-3.05 8.0 Q-3.1 7.85 -3.2 7.75 L-3.3 7.65 -3.25 7.6 -3.3 7.6 Q-3.35 7.55 -3.35 7.5 L-3.05 7.55 -3.0 7.55 -2.95 7.6 Q-2.7 7.65 -2.5 7.8 L-2.4 7.85 -2.3 7.85 Q-2.0 8.0 -1.75 8.25 L-1.55 8.2 -1.7 8.05 -1.8 8.1 -1.85 8.05 -1.75 8.0 -1.8 7.95 -1.45 7.95 -1.05 7.85 -1.25 7.75 -1.45 7.75 -1.6 7.7 -1.6 7.65 -1.75 7.6 -2.7 7.2 -2.9 7.2 -2.95 7.25 -3.0 7.25 Q-3.1 7.2 -3.4 7.0 -3.65 6.9 -3.65 6.8 L-3.5 6.75 -3.45 6.75 -3.55 6.7 -3.55 6.65 -3.6 6.65 -3.8 6.55 -3.95 6.45 M-1.95 6.25 L-1.95 6.2 -2.0 6.2 -1.95 6.25 M-1.5 6.65 L-1.9 6.8 Q-2.45 7.05 -2.65 7.1 -2.2 7.35 -1.7 7.5 L-1.8 7.3 -1.7 7.4 -1.65 7.2 -1.6 7.1 -1.5 6.65 M-1.25 5.95 L-1.25 5.95 M-1.1 7.05 L-1.25 7.05 -1.3 7.1 -1.3 7.2 -1.35 7.6 -1.2 7.6 -1.1 7.05 M-0.75 6.55 L-0.55 6.45 -0.7 6.45 -0.75 6.55 M-0.95 6.6 L-0.9 6.6 -0.9 6.55 -0.85 6.5 -1.2 6.55 -1.2 6.65 -0.95 6.6 M-0.8 6.7 L-0.8 6.7 M-0.7 7.95 L-1.4 8.0 -1.45 8.05 -1.4 8.1 -1.2 8.1 -1.15 8.15 -1.2 8.2 -1.25 8.25 -1.2 8.3 Q-1.1 8.5 -1.0 8.65 L-0.9 8.7 -0.8 8.7 -0.8 8.75 -0.65 8.8 -0.5 8.8 -0.5 8.5 -0.5 8.35 -0.55 8.3 -0.5 8.3 -0.55 8.15 -0.6 8.1 -0.6 8.05 -0.65 8.05 -0.65 8.0 -0.65 7.95 -0.7 7.95 M-0.85 9.05 L-0.95 9.05 -1.0 9.0 Q-1.0 8.95 -0.9 8.95 L-1.0 8.85 -1.0 8.8 -1.25 8.55 -1.2 8.75 -1.15 9.15 -1.15 9.25 -1.0 9.45 -0.8 9.55 -0.8 9.6 -0.75 9.65 -0.75 9.6 -0.7 9.6 -0.7 9.55 -0.65 9.5 -0.7 9.45 -0.5 9.1 -0.65 9.05 -0.75 9.05 -0.85 9.05 M-0.45 8.45 L-0.45 8.5 Q-0.35 8.55 -0.25 8.6 -0.15 8.65 -0.1 8.7 L-0.1 8.65 -0.15 8.6 -0.15 8.5 -0.25 8.5 -0.35 8.4 -0.45 8.45 M-0.45 8.55 L-0.45 8.6 -0.4 8.8 -0.35 8.8 -0.3 8.85 -0.2 8.75 -0.3 8.7 -0.45 8.55 M-3.3 8.75 L-2.9 9.1 -2.85 9.05 -2.5 8.9 -2.5 8.85 -2.5 8.35 -3.35 8.7 -3.3 8.75 M-2.3 9.0 L-2.35 9.1 -2.6 9.3 -2.35 9.4 Q-2.3 9.2 -2.15 8.9 L-2.1 8.8 -2.3 9.0 M-1.7 9.1 L-1.7 9.0 -1.65 9.05 -1.7 8.95 -1.85 9.1 -1.85 9.15 -1.9 9.35 -1.9 9.4 -2.0 9.65 Q-1.8 9.55 -1.6 9.8 L-1.4 9.95 Q-1.55 9.85 -1.65 9.55 -1.7 9.3 -1.7 9.1 M-0.9 8.9 L-0.9 8.9 M-2.3 9.5 L-2.3 9.5 M-2.35 9.45 L-2.35 9.45 M-4.15 8.05 L-4.15 8.05 M-0.75 11.8 L-0.8 11.9 Q-0.9 12.15 -0.9 12.3 L-0.85 12.35 -0.85 12.4 -0.85 12.6 Q-0.7 12.35 -0.3 12.2 L-0.45 11.9 -0.55 11.75 -0.6 11.7 -0.6 11.65 -0.65 11.6 -0.65 11.65 -0.75 11.7 -0.75 11.8 M-0.95 14.45 L-0.95 14.45 M-1.2 14.85 Q-1.3 14.9 -1.5 15.15 -1.7 15.4 -1.7 15.5 -1.7 15.55 -1.65 15.55 L-1.55 15.5 -0.9 15.4 Q-1.15 15.0 -1.15 14.7 L-1.15 14.8 -1.2 14.85" fill="#00bfff" fill-opacity="0.0" fill-rule="evenodd" stroke="none"/>
      <path d="M-0.95 5.9 L-1.0 5.9 -1.05 5.95 -1.15 5.95 -1.1 5.85 -1.15 5.8 -1.1 5.75 -1.1 5.6 Q-0.6 0.8 -0.65 -4.15 -0.7 -8.4 -0.8 -11.8 -0.85 -12.05 -0.9 -12.5 L-0.9 -13.7 Q-0.85 -14.15 -0.7 -14.7 L-0.65 -14.75 -0.6 -14.95 -0.4 -15.55 -0.35 -15.6 -0.3 -15.7 -0.25 -15.85 -0.15 -16.0 -0.1 -16.15 -0.05 -16.2 -0.05 -16.1 0.0 -16.15 0.0 -16.35 0.1 -16.2 0.2 -16.0 0.25 -15.85 Q0.3 -15.8 0.35 -15.7 L0.4 -15.6 0.4 -15.55 0.6 -14.95 0.7 -14.75 0.7 -14.7 Q0.85 -14.15 0.9 -13.7 L0.9 -12.5 Q0.85 -12.05 0.8 -11.8 0.75 -8.4 0.7 -4.15 0.6 0.8 1.15 5.6 L1.15 5.95 0.95 5.95 0.9 5.9 0.7 5.85 0.65 5.75 0.6 5.7 0.15 4.7 0.1 4.55 0.1 4.45 0.0 4.45 0.0 -12.45 0.0 -13.6 -0.1 -14.85 -0.15 -14.85 -0.2 -13.6 -0.2 0.0 -0.3 0.9 -0.45 2.55 -0.55 3.4 Q-0.6 3.9 -0.7 4.2 L-0.8 5.0 Q-0.95 5.7 -0.95 5.85 L-0.95 5.9 M-3.05 7.0 L-3.05 6.95 -2.8 6.8 Q-2.6 6.65 -2.5 6.65 L-1.9 6.4 Q-1.4 6.2 -0.7 6.05 L-0.4 6.0 -0.35 6.0 Q-0.1 6.0 -0.1 5.85 -0.1 5.6 -0.05 5.5 L0.0 5.25 0.05 4.95 0.05 4.9 -0.05 5.0 -0.05 4.9 0.0 4.8 0.05 4.9 0.3 5.4 0.3 5.5 0.2 5.35 0.2 5.6 Q0.25 5.8 0.35 5.9 L0.4 5.85 0.4 5.8 Q0.5 5.95 0.7 6.0 L0.7 5.95 0.95 6.0 1.1 6.05 1.6 6.2 1.8 6.25 1.95 6.3 2.0 6.25 2.25 6.05 2.3 6.0 2.35 6.0 2.55 5.8 2.3 6.4 2.35 6.4 2.35 6.45 2.45 6.45 2.5 6.5 Q2.7 6.6 3.05 6.8 L3.3 6.8 3.1 6.95 2.95 7.1 2.9 7.05 2.8 7.0 2.7 7.0 Q2.5 6.85 2.15 6.7 L1.6 6.5 1.5 6.5 1.5 6.45 1.35 6.45 1.2 6.4 1.2 6.45 1.0 6.4 0.9 6.4 0.75 6.35 0.65 6.35 0.05 6.3 0.0 6.3 -0.65 6.35 -0.75 6.35 -0.9 6.4 -0.95 6.4 -1.2 6.45 -1.2 6.4 -1.35 6.45 -1.5 6.45 -1.5 6.5 -1.55 6.5 Q-1.85 6.6 -2.1 6.7 -2.5 6.85 -2.7 7.0 L-2.8 7.0 -2.9 7.05 -2.95 7.1 -3.05 7.0 M-0.25 5.4 L-0.25 5.45 -0.25 5.4 M-1.95 6.3 L-2.3 6.45 -2.3 6.4 -2.25 6.4 -2.3 6.3 Q-2.3 6.2 -2.45 6.0 L-2.5 5.85 -2.45 5.9 -2.3 6.0 -2.25 6.05 -2.1 6.15 -2.0 6.25 -1.95 6.25 -2.0 6.25 -1.95 6.3 M-2.35 6.45 L-2.7 6.6 -2.45 6.5 -2.4 6.45 -2.35 6.45 M-3.0 6.8 L-3.05 6.9 -3.05 6.95 -3.3 6.8 -3.0 6.8 M0.45 6.45 L0.75 6.45 0.75 6.55 0.8 6.6 0.45 6.45 M0.05 6.85 L0.05 6.8 0.0 6.8 0.05 6.85 M0.3 7.25 L0.35 7.4 0.3 7.4 0.3 7.5 0.4 7.7 0.45 7.75 0.45 7.9 0.5 7.9 0.45 8.05 0.4 8.15 0.4 8.2 Q0.2 8.25 0.0 8.3 -0.25 8.25 -0.5 8.1 L-0.5 7.95 -0.45 7.9 -0.5 8.0 Q-0.5 8.1 -0.4 8.15 L-0.4 7.95 -0.3 8.0 Q-0.3 8.1 -0.25 8.15 L-0.15 8.15 -0.15 8.2 0.15 8.2 0.2 8.15 0.3 8.15 0.35 8.0 0.4 7.9 0.2 7.55 Q0.1 7.35 0.05 7.3 L0.0 7.25 0.0 7.3 0.15 7.15 0.25 7.25 0.3 7.25 M-0.25 7.45 L-0.3 7.5 -0.4 7.65 -0.35 7.5 Q-0.35 7.55 -0.3 7.5 L-0.2 7.25 Q-0.15 7.15 0.0 7.15 -0.1 7.25 -0.25 7.45 M0.25 6.95 L0.2 6.9 0.0 6.85 -0.15 6.9 -0.2 6.9 -0.25 6.95 -0.3 7.05 Q-0.45 7.2 -0.45 7.3 L-0.5 7.45 -0.55 7.7 -1.0 7.65 -0.9 7.05 -0.9 6.95 -0.35 6.7 -0.15 6.6 0.05 6.6 0.25 6.65 0.4 6.7 0.65 6.8 0.9 6.95 0.9 7.05 0.95 7.05 1.05 7.65 0.55 7.7 0.5 7.45 0.5 7.3 0.3 7.05 0.25 6.95 M1.25 6.6 L0.95 6.6 0.9 6.55 0.9 6.5 1.25 6.55 1.25 6.6 M1.1 7.05 L1.3 7.05 1.3 7.2 1.4 7.6 1.2 7.6 1.1 7.05 M1.2 6.9 L1.2 6.9 M5.1 5.65 L5.15 5.6 5.15 5.8 5.1 6.05 5.05 6.1 5.0 6.1 Q4.6 6.35 4.3 6.6 L3.65 7.15 3.5 7.3 3.7 7.25 3.95 7.15 4.2 7.0 4.25 7.0 4.3 6.95 4.55 6.9 4.75 6.8 4.25 7.0 4.2 7.05 Q3.9 7.15 3.8 7.25 L4.25 7.1 4.8 6.9 5.1 6.75 5.15 6.7 5.15 6.75 Q4.9 6.9 4.65 7.25 L4.6 7.3 4.5 7.25 4.45 7.3 Q4.1 7.35 3.6 7.55 L3.8 7.55 4.5 7.4 4.55 7.35 4.3 7.65 4.0 7.75 Q3.55 7.9 3.4 8.0 L3.45 7.95 3.55 7.8 3.2 7.95 3.05 8.1 3.35 8.1 3.35 8.05 3.4 8.05 3.55 8.1 3.85 8.05 4.1 8.05 3.75 8.4 3.4 8.7 3.4 8.65 2.85 8.4 2.7 8.35 2.85 8.35 Q2.75 8.15 2.8 8.1 L3.05 8.0 Q3.1 7.85 3.2 7.75 L3.3 7.65 3.3 7.6 Q3.35 7.55 3.35 7.5 L3.05 7.55 3.0 7.6 Q2.75 7.65 2.5 7.8 L2.4 7.85 2.35 7.85 Q2.05 8.0 1.75 8.25 L1.55 8.2 1.7 8.05 1.8 8.1 1.85 8.05 1.75 8.0 1.8 7.95 1.45 7.95 1.1 7.85 1.25 7.75 1.45 7.75 1.6 7.7 1.65 7.65 1.75 7.6 2.7 7.2 2.95 7.2 2.95 7.25 3.0 7.25 Q3.1 7.2 3.4 7.0 3.65 6.9 3.7 6.8 L3.5 6.75 3.6 6.7 3.6 6.65 Q3.85 6.55 4.0 6.45 L4.2 6.3 Q4.8 5.95 5.1 5.7 L5.15 5.65 5.1 5.65 M2.5 8.85 L2.5 8.35 3.35 8.7 2.9 9.1 2.85 9.05 2.5 8.9 2.5 8.85 2.5 8.85 M0.8 7.95 L1.25 7.95 1.3 8.0 1.45 8.1 1.2 8.1 1.15 8.15 1.25 8.25 1.25 8.3 1.0 8.65 0.95 8.7 0.8 8.7 0.85 8.75 0.7 8.8 0.55 8.8 0.5 8.6 0.5 8.5 0.5 8.35 0.55 8.3 0.5 8.3 0.55 8.15 0.55 8.1 0.6 8.05 0.6 7.95 0.7 7.95 0.6 8.05 0.65 8.1 Q1.05 8.05 1.05 8.15 L1.1 8.05 1.15 8.05 1.3 8.0 1.0 7.95 0.8 7.95 M0.4 8.2 L0.4 8.25 0.5 8.2 0.35 8.35 0.1 8.5 Q0.05 8.55 0.0 8.6 L-0.1 8.5 -0.05 8.5 -0.35 8.35 Q-0.45 8.3 -0.5 8.15 L-0.45 8.15 -0.15 8.35 -0.1 8.4 0.0 8.35 0.1 8.4 0.15 8.35 0.4 8.2 M1.05 8.85 L1.0 8.8 1.1 8.75 1.1 8.7 1.25 8.55 1.2 8.75 Q1.15 9.0 1.15 9.15 L1.15 9.25 1.2 9.25 1.0 9.45 0.8 9.55 0.8 9.6 0.75 9.65 0.75 9.6 0.7 9.6 0.7 9.45 0.55 9.1 0.7 9.05 1.0 9.05 1.05 9.0 Q1.0 8.95 0.95 8.95 L1.05 8.85 M0.25 8.75 L0.45 8.55 0.45 8.8 0.35 8.8 0.3 8.85 0.25 8.75 M0.15 8.6 L0.15 8.5 0.25 8.5 0.4 8.4 0.45 8.45 0.45 8.5 0.25 8.6 0.15 8.7 0.1 8.65 0.15 8.6 M0.95 9.2 L1.0 9.1 0.85 9.05 0.7 9.1 0.65 9.15 Q0.7 9.25 0.8 9.25 L0.95 9.2 M-0.05 8.85 L0.0 8.8 0.1 8.9 0.15 8.9 0.25 9.1 0.45 9.4 0.7 9.9 0.7 10.05 0.65 10.05 0.65 10.3 Q0.5 11.4 0.4 11.8 L0.2 12.0 -0.25 11.95 Q-0.4 11.65 -0.55 11.15 L-0.65 10.45 -0.7 10.35 -0.7 10.2 -0.65 10.2 Q-0.65 10.15 -0.65 10.0 L-0.65 9.9 -0.3 9.4 0.1 8.9 Q0.0 8.85 -0.05 8.85 M2.3 9.0 L2.4 9.1 2.65 9.3 2.35 9.4 2.4 9.4 Q2.35 9.2 2.15 8.9 L2.1 8.8 2.3 9.0 M0.75 11.2 L0.75 11.5 0.65 11.45 Q0.7 11.3 0.75 11.2 M1.9 9.1 L1.85 9.15 1.9 9.35 1.95 9.4 2.0 9.65 Q1.8 9.55 1.65 9.8 L1.4 9.95 Q1.55 9.85 1.65 9.55 1.75 9.3 1.75 9.1 L1.7 9.0 1.7 8.95 1.9 9.1 M0.65 11.7 L0.65 11.55 0.75 11.6 0.8 11.65 Q0.8 11.8 0.9 11.85 L0.95 12.1 0.8 12.05 0.45 12.05 0.5 11.95 0.55 11.9 0.6 11.8 0.65 11.95 0.85 11.95 0.85 11.9 0.8 11.85 0.75 11.75 Q0.8 11.7 0.75 11.7 L0.65 11.7 M-0.3 12.3 L-0.1 12.25 0.1 12.25 0.35 12.15 0.7 12.1 Q0.7 12.15 0.95 12.15 L0.95 12.2 1.05 12.8 0.7 12.8 Q0.55 12.9 0.55 12.8 L0.1 12.8 Q0.05 12.85 -0.45 13.05 L-0.75 13.25 -0.75 13.1 -0.85 13.35 -0.9 13.5 Q-1.0 13.65 -1.1 13.8 L-1.0 13.4 -0.85 12.95 -0.85 13.15 -0.55 12.9 Q-0.35 12.7 -0.25 12.65 L-0.25 12.7 -0.2 12.7 -0.05 12.65 0.3 12.55 0.85 12.55 Q0.85 12.5 0.7 12.45 L0.4 12.55 0.35 12.5 0.85 12.25 0.8 12.2 0.7 12.2 0.1 12.3 Q-0.25 12.4 -0.4 12.5 L-0.75 12.8 -0.75 12.75 -0.6 12.6 Q-0.55 12.55 -0.55 12.5 L-0.45 12.4 Q-0.35 12.35 -0.3 12.3 M-0.8 12.65 Q-0.75 12.45 -0.55 12.35 -0.7 12.5 -0.7 12.55 -0.75 12.6 -0.8 12.65 M0.75 12.9 L1.05 12.9 1.1 13.35 Q1.1 13.45 1.2 13.75 L1.25 13.9 Q1.05 13.65 0.9 13.25 L0.75 12.9 M0.65 13.75 L0.45 13.4 Q0.3 13.55 0.3 14.2 L0.3 14.35 Q0.7 14.3 0.9 14.1 0.75 13.95 0.65 13.75 M-0.8 13.45 L-0.75 13.4 Q-0.6 13.2 -0.45 13.15 -0.2 13.0 0.65 12.9 0.7 13.15 0.8 13.4 L0.9 13.65 0.95 13.75 1.15 13.95 1.15 14.0 1.4 14.3 1.45 14.3 1.1 14.25 1.05 14.25 Q0.6 14.45 0.25 14.45 L-0.05 14.45 -0.3 14.3 -0.3 14.25 -0.6 14.3 -0.85 14.25 -0.85 14.2 -0.9 14.2 -1.4 14.3 Q-1.25 14.2 -1.0 13.95 -0.7 13.6 -0.7 13.45 L-0.7 13.4 -0.75 13.4 -0.8 13.45 M-1.5 14.35 L-1.5 14.4 -1.65 14.4 -1.65 14.35 -1.5 14.35 M1.6 15.55 L1.6 15.5 0.95 15.4 0.9 15.4 Q1.15 15.0 1.2 14.7 L1.2 14.8 1.25 14.9 1.4 15.25 1.6 15.55 M1.65 14.35 L1.65 14.4 1.45 14.4 1.45 14.3 1.65 14.35 M1.0 14.75 Q0.95 14.8 0.9 14.85 L0.8 15.15 Q0.55 15.5 -0.3 15.5 -0.3 15.55 -0.1 15.6 L0.45 15.6 0.75 15.35 0.6 15.55 0.4 15.75 0.25 15.75 -0.05 15.8 -0.35 15.75 -0.6 15.55 Q-0.9 15.2 -1.0 14.7 L-0.95 14.75 -0.8 15.0 -0.6 15.2 Q-0.45 15.35 -0.25 15.4 L-0.05 15.35 0.0 15.35 0.0 15.4 0.05 15.4 0.05 15.35 0.25 15.4 Q0.45 15.35 0.6 15.2 L0.7 15.15 0.8 15.0 0.85 15.0 Q0.9 14.85 0.95 14.75 L1.05 14.7 1.0 14.75 M0.15 14.8 L0.2 14.95 Q0.15 14.95 0.0 15.05 L-0.4 15.2 -0.55 15.15 -0.75 14.95 Q-0.85 14.8 -0.85 14.6 L-0.85 14.5 Q-0.5 14.5 -0.3 14.65 -0.05 14.8 0.0 14.8 L0.15 14.8 M-5.05 5.65 L-5.15 5.65 -5.05 5.7 Q-4.75 5.95 -4.2 6.3 L-3.95 6.45 -4.0 6.45 -4.45 6.2 -5.05 5.8 Q-5.1 5.7 -5.15 5.65 L-5.15 5.6 -5.05 5.65 M-3.8 6.55 L-3.6 6.65 -3.55 6.65 -3.55 6.7 -3.45 6.75 -3.5 6.75 -3.65 6.8 Q-3.65 6.9 -3.4 7.0 -3.1 7.2 -3.0 7.25 L-2.95 7.25 -2.9 7.2 -2.7 7.2 -1.75 7.6 -1.6 7.65 -1.6 7.7 -1.45 7.75 -1.25 7.75 -1.05 7.85 -1.45 7.95 -1.8 7.95 -1.75 8.0 -1.85 8.05 -1.8 8.1 -1.7 8.05 -1.55 8.2 -1.75 8.25 Q-2.0 8.0 -2.3 7.85 L-2.4 7.85 -2.5 7.8 Q-2.7 7.65 -2.95 7.6 L-3.0 7.55 -3.05 7.55 -3.35 7.5 Q-3.35 7.55 -3.3 7.6 L-3.25 7.6 -3.3 7.65 -3.2 7.75 Q-3.1 7.85 -3.05 8.0 L-2.8 8.1 Q-2.75 8.15 -2.85 8.35 L-2.7 8.35 -2.8 8.4 -3.35 8.65 -3.4 8.7 -3.7 8.4 -4.1 8.05 -3.7 8.05 -3.75 8.05 Q-3.9 8.05 -3.9 8.1 L-3.8 8.2 -3.4 8.2 -3.05 8.15 -3.0 8.1 -3.05 8.05 -3.15 7.95 -3.55 7.8 -3.4 7.95 -3.4 8.0 Q-3.5 7.9 -4.0 7.75 L-4.3 7.65 -4.5 7.35 -4.5 7.4 -4.45 7.4 -4.1 7.5 -4.4 7.4 -4.4 7.5 -3.3 7.75 -3.3 7.65 -3.75 7.55 -3.6 7.55 Q-4.1 7.35 -4.45 7.3 L-4.5 7.25 -4.55 7.3 Q-4.6 7.15 -4.75 6.95 -4.7 6.95 -4.6 7.0 L-4.15 7.25 -3.4 7.55 -3.35 7.45 -3.45 7.4 -3.8 7.25 Q-3.85 7.15 -4.2 7.05 L-4.2 7.0 Q-4.35 6.95 -4.5 6.9 L-4.5 6.9 -4.3 6.95 -4.25 7.0 -4.2 7.0 -3.95 7.15 -3.5 7.3 -3.65 7.15 Q-4.1 6.8 -4.3 6.6 -4.6 6.35 -4.95 6.1 L-5.0 6.1 -5.0 5.95 -4.5 6.35 Q-4.35 6.4 -4.05 6.6 -3.7 6.75 -3.65 6.75 L-3.6 6.75 -3.6 6.7 -3.8 6.55 M-3.4 8.05 L-3.35 8.05 -3.4 8.05 M-5.05 6.8 L-5.15 6.75 -5.1 6.7 -5.1 6.75 -5.0 6.8 -5.05 6.8 M-0.95 6.6 L-1.2 6.65 -1.2 6.55 -0.85 6.5 -0.9 6.55 -0.9 6.6 -0.95 6.6 M-0.75 6.55 L-0.7 6.45 -0.55 6.45 -0.75 6.55 M-1.1 7.05 L-1.2 7.6 -1.35 7.6 -1.3 7.2 -1.3 7.1 -1.25 7.05 -1.1 7.05 M-0.8 6.7 L-0.8 6.7 M0.0 7.3 L-0.2 7.55 -0.35 7.9 Q-0.35 7.75 -0.25 7.6 -0.15 7.4 0.0 7.3 M-0.7 7.95 L-0.65 7.95 -0.65 8.0 -0.7 7.95 M-0.6 8.1 L-0.55 8.15 -0.5 8.3 -0.55 8.3 -0.5 8.35 -0.5 8.5 -0.5 8.8 -0.65 8.8 -0.8 8.75 -0.8 8.7 -0.9 8.7 -1.0 8.65 Q-1.1 8.5 -1.2 8.3 L-1.25 8.25 -1.2 8.2 -1.2 8.25 Q-1.1 8.25 -1.05 8.3 L-1.05 8.35 Q-0.9 8.35 -0.75 8.3 -0.65 8.2 -0.55 8.25 L-0.6 8.1 M-1.15 8.15 L-1.2 8.1 -1.4 8.1 -1.05 8.05 -1.0 8.1 -1.05 8.15 -1.15 8.15 M-0.75 9.05 L-0.65 9.05 -0.5 9.1 -0.7 9.45 -0.65 9.5 -0.7 9.55 -0.7 9.6 -0.75 9.6 -0.75 9.65 -0.8 9.6 -0.8 9.55 -1.0 9.45 -1.15 9.25 -1.15 9.15 -1.2 8.75 -1.25 8.55 -1.0 8.8 -1.0 8.85 -0.9 8.95 Q-1.0 8.95 -1.0 9.0 L-0.95 9.05 -0.85 9.05 -0.95 9.05 Q-1.05 9.1 -1.05 9.2 L-1.0 9.25 -0.65 9.25 -0.65 9.1 -0.7 9.05 -0.75 9.05 M-0.45 8.55 L-0.3 8.7 -0.2 8.75 -0.3 8.85 -0.35 8.8 -0.4 8.8 -0.45 8.6 -0.45 8.55 M-0.45 8.45 L-0.35 8.4 -0.25 8.5 -0.15 8.5 -0.15 8.6 -0.1 8.65 -0.1 8.7 Q-0.15 8.65 -0.25 8.6 -0.35 8.55 -0.45 8.5 L-0.45 8.45 M-3.3 8.75 L-2.6 8.45 -2.9 8.55 -3.3 8.75 -3.35 8.7 -2.5 8.35 -2.5 8.85 -2.5 8.9 -2.85 9.05 -2.9 9.1 -3.3 8.75 M-2.5 8.85 L-2.5 8.85 M-1.7 9.1 Q-1.7 9.3 -1.65 9.55 -1.55 9.85 -1.4 9.95 L-1.6 9.8 Q-1.8 9.55 -2.0 9.65 L-1.9 9.4 -1.9 9.35 -1.85 9.15 -1.85 9.1 -1.7 8.95 -1.65 9.05 -1.7 9.0 -1.7 9.1 M-2.3 9.0 L-2.1 8.8 -2.15 8.9 Q-2.3 9.2 -2.35 9.4 L-2.6 9.3 -2.35 9.1 -2.3 9.0 M-0.75 11.8 L-0.75 11.7 -0.65 11.65 -0.65 11.6 -0.6 11.65 -0.65 11.65 -0.75 11.8 M-0.55 11.75 L-0.45 11.9 -0.3 12.2 Q-0.7 12.35 -0.85 12.6 L-0.85 12.4 -0.8 12.35 -0.7 12.4 Q-0.7 12.3 -0.6 12.15 L-0.45 11.9 -0.55 11.85 -0.65 11.95 -0.6 11.8 -0.55 11.75 M-0.1 13.25 L-0.15 13.25 -0.15 13.5 -0.1 13.7 -0.05 14.0 0.0 13.95 0.0 13.85 Q0.0 13.5 -0.1 13.25 M-0.85 13.8 Q-0.95 14.05 -0.95 14.1 L-0.95 14.15 -0.5 14.15 -0.5 14.05 Q-0.5 14.0 -0.5 13.95 L-0.55 13.85 -0.65 13.55 -0.85 13.8 M-1.2 14.85 L-1.15 14.8 -1.15 14.7 Q-1.15 15.0 -0.9 15.4 L-1.55 15.5 Q-1.4 15.35 -1.15 14.9 L-1.15 14.85 -1.2 14.85" fill="#00ffff" fill-opacity="0.007843138" fill-rule="evenodd" stroke="none"/>
      <path d="M0.0 -12.45 L0.0 4.55 -0.1 4.6 -0.15 4.7 -0.6 5.7 -0.65 5.75 -0.65 5.8 -0.95 5.9 -0.95 5.85 Q-0.95 5.7 -0.8 5.0 L-0.7 4.2 Q-0.6 3.9 -0.55 3.4 L-0.45 2.55 -0.3 0.9 -0.2 0.0 -0.2 -13.6 -0.15 -14.85 -0.1 -14.85 0.0 -13.6 0.0 -12.45 M0.05 4.9 L0.05 4.95 0.0 5.25 -0.05 5.5 Q-0.1 5.6 -0.1 5.85 -0.1 6.0 -0.35 6.0 L-0.4 6.0 -0.7 6.05 Q-1.4 6.2 -1.9 6.4 L-2.5 6.65 Q-2.6 6.65 -2.8 6.8 L-3.05 6.95 -3.05 7.0 -3.05 6.95 -3.05 6.9 -3.0 6.8 -2.7 6.6 -2.35 6.45 -2.3 6.45 -1.95 6.3 -1.85 6.25 Q-1.0 5.95 -0.5 5.9 -0.35 5.7 -0.25 5.45 L-0.25 5.4 -0.25 5.35 -0.1 5.05 -0.05 5.0 0.05 4.9 M2.55 5.8 L2.35 6.0 2.3 6.0 2.25 6.05 2.0 6.25 1.95 6.25 2.3 5.9 Q2.55 5.65 2.65 5.65 L2.6 5.8 2.55 5.8 M0.4 5.8 L0.4 5.85 0.35 5.9 Q0.25 5.8 0.2 5.6 L0.2 5.35 0.3 5.5 Q0.4 5.65 0.4 5.8 M-0.35 7.5 L-0.3 7.2 Q-0.2 7.0 -0.1 6.95 L0.15 6.95 0.2 7.05 0.25 7.1 0.3 7.2 0.3 7.25 0.25 7.25 0.15 7.15 0.0 7.3 Q-0.15 7.4 -0.25 7.6 -0.35 7.75 -0.35 7.9 L-0.4 7.95 -0.4 8.15 Q-0.5 8.1 -0.5 8.0 L-0.45 7.9 -0.45 7.85 -0.3 7.6 -0.25 7.45 Q-0.1 7.25 0.0 7.15 -0.15 7.15 -0.2 7.25 L-0.3 7.5 Q-0.35 7.55 -0.35 7.5 M0.7 7.95 L0.8 7.95 1.0 7.95 1.3 8.0 1.15 8.05 1.1 8.05 1.05 8.15 Q1.05 8.05 0.65 8.1 L0.6 8.05 0.7 7.95 M0.95 9.2 L0.8 9.25 Q0.7 9.25 0.65 9.15 L0.7 9.1 0.85 9.05 1.0 9.1 0.95 9.2 M-0.05 8.85 Q0.0 8.85 0.1 8.9 L-0.3 9.4 -0.65 9.9 -0.65 10.0 Q-0.65 10.15 -0.65 10.2 L-0.7 10.2 Q-0.75 10.15 -0.75 10.0 L-0.75 9.85 Q-0.75 9.8 -0.6 9.6 L-0.4 9.25 Q-0.15 8.9 -0.1 8.85 L-0.05 8.85 M0.6 11.8 L0.6 11.7 0.65 11.7 0.75 11.7 Q0.8 11.7 0.75 11.75 L0.8 11.85 0.85 11.9 0.85 11.95 0.65 11.95 0.6 11.8 M-0.3 12.3 Q-0.35 12.35 -0.45 12.4 L-0.55 12.5 Q-0.55 12.55 -0.6 12.6 L-0.75 12.75 -0.75 12.8 -0.4 12.5 Q-0.25 12.4 0.1 12.3 L0.7 12.2 0.8 12.2 0.85 12.25 0.35 12.5 0.4 12.55 0.7 12.45 Q0.85 12.5 0.85 12.55 L0.3 12.55 -0.05 12.65 -0.2 12.7 -0.25 12.7 -0.25 12.65 Q-0.35 12.7 -0.55 12.9 L-0.85 13.15 -0.85 12.95 -1.0 13.4 -1.0 13.35 -0.95 13.3 -0.95 13.2 -0.9 13.05 -0.9 12.75 -0.85 12.65 -0.8 12.65 Q-0.75 12.6 -0.7 12.55 -0.7 12.5 -0.55 12.35 L-0.4 12.25 -0.3 12.3 M0.65 13.75 Q0.75 13.95 0.9 14.1 0.7 14.3 0.3 14.35 L0.3 14.2 Q0.3 13.55 0.45 13.4 L0.65 13.75 M-0.8 13.45 L-0.75 13.4 -0.7 13.4 -0.7 13.45 Q-0.7 13.6 -1.0 13.95 -1.25 14.2 -1.4 14.3 L-1.45 14.35 -1.5 14.35 -1.65 14.35 -1.4 14.1 -1.05 13.85 -0.9 13.6 -0.8 13.45 M-3.95 6.45 L-3.8 6.55 -3.6 6.7 -3.6 6.75 -3.65 6.75 Q-3.7 6.75 -4.05 6.6 -4.35 6.4 -4.5 6.35 L-5.0 5.95 -5.0 6.1 -4.95 6.15 -5.0 6.2 -5.3 5.7 -5.35 5.7 -5.3 5.65 Q-5.25 5.6 -5.2 5.65 L-5.15 5.65 Q-5.1 5.7 -5.05 5.8 L-4.45 6.2 -4.0 6.45 -3.95 6.45 M-3.7 8.05 L-3.4 8.05 -3.35 8.05 -3.05 8.05 -3.0 8.1 -3.05 8.15 -3.4 8.2 -3.8 8.2 -3.9 8.1 Q-3.9 8.05 -3.75 8.05 L-3.7 8.05 M-4.1 7.5 L-3.95 7.5 -3.85 7.55 -3.75 7.55 -3.3 7.65 -3.3 7.75 -4.4 7.5 -4.4 7.4 -4.1 7.5 M-4.55 7.3 Q-4.8 7.25 -4.9 7.1 -5.0 6.9 -5.05 6.8 L-5.0 6.8 -4.9 6.85 -4.9 6.8 Q-4.8 6.8 -4.55 6.95 L-4.25 7.1 -3.8 7.25 -3.45 7.4 -3.35 7.45 -3.4 7.55 -4.15 7.25 -4.6 7.0 Q-4.7 6.95 -4.75 6.95 -4.6 7.15 -4.55 7.3 M-2.4 6.45 L-2.5 6.45 -2.45 6.4 -2.45 6.3 -2.7 5.75 -2.7 5.7 Q-2.6 5.7 -2.5 5.85 L-2.45 6.0 Q-2.3 6.2 -2.3 6.3 L-2.3 6.4 -2.4 6.45 M-1.4 8.1 L-1.45 8.05 -1.4 8.0 -0.7 7.95 -0.65 8.0 -0.65 8.05 -0.6 8.05 -0.6 8.1 -0.55 8.25 Q-0.65 8.2 -0.75 8.3 -0.9 8.35 -1.05 8.35 L-1.05 8.3 Q-1.1 8.25 -1.2 8.25 L-1.2 8.2 -1.15 8.15 -1.05 8.15 -1.0 8.1 -1.05 8.05 -1.4 8.1 M-0.85 9.05 L-0.75 9.05 -0.7 9.05 -0.65 9.1 -0.65 9.25 -1.0 9.25 -1.05 9.2 Q-1.05 9.1 -0.95 9.05 L-0.85 9.05 M-3.3 8.75 L-2.9 8.55 -2.6 8.45 -3.3 8.75 M-0.85 12.4 L-0.85 12.35 -0.9 12.3 Q-0.9 12.15 -0.8 11.9 L-0.75 11.8 -0.65 11.65 -0.6 11.65 -0.6 11.7 -0.55 11.75 -0.6 11.8 -0.65 11.95 -0.55 11.85 -0.45 11.9 -0.6 12.15 Q-0.7 12.3 -0.7 12.4 L-0.8 12.35 -0.85 12.4 M-0.85 13.8 L-0.65 13.55 -0.55 13.85 -0.5 13.95 Q-0.5 14.0 -0.5 14.05 L-0.5 14.15 -0.95 14.15 -0.95 14.1 Q-0.95 14.05 -0.85 13.8 M-1.55 15.5 L-1.65 15.55 Q-1.7 15.55 -1.7 15.5 -1.7 15.4 -1.5 15.15 -1.3 14.9 -1.2 14.85 L-1.15 14.85 -1.15 14.9 Q-1.4 15.35 -1.55 15.5" fill="#87ffff" fill-opacity="0.007843138" fill-rule="evenodd" stroke="none"/>
      <path d="M-2.3 6.45 L-2.35 6.45 -2.4 6.45 -2.3 6.4 -2.3 6.3 -2.25 6.4 -2.3 6.4 -2.3 6.45 M2.3 6.0 L2.25 6.05 2.3 6.0 M0.05 6.85 L0.0 6.8 0.05 6.8 0.05 6.85 M2.5 8.85 L2.5 8.85 M-2.5 8.85 L-2.5 8.85" fill="#00bfff" fill-opacity="0.007843138" fill-rule="evenodd" stroke="none"/>
      <path d="M-3.25 9.4 L-3.25 9.35 -3.25 9.4" fill="#6bcbeb" fill-opacity="0.003921569" fill-rule="evenodd" stroke="none"/>
      <path d="M-0.1 13.25 Q0.0 13.5 0.0 13.85 L0.0 13.95 -0.05 14.0 -0.1 13.7 -0.15 13.5 -0.15 13.25 -0.1 13.25" fill="#00ffff" fill-opacity="0.007843138" fill-rule="evenodd" stroke="none"/>
    </g>
    <g id="shape3" transform="matrix(1.0, 0.0, 0.0, 1.0, -5.1, -3.15)">
      <path d="M6.0 3.7 L6.0 3.7 M6.15 4.25 L6.15 4.25 M6.15 4.8 L6.15 4.75 6.1 4.75 6.05 4.7 6.15 4.7 6.15 4.8 M5.9 4.55 L5.95 4.55 5.85 4.75 5.85 4.5 5.9 4.55 M5.85 4.8 L5.85 4.8 M5.85 5.0 L5.95 5.05 5.85 5.05 5.85 5.0 M6.15 4.9 L6.15 4.9 M5.75 3.65 L5.8 3.65 5.75 3.7 5.7 3.7 5.7 3.75 5.65 3.75 5.65 3.7 5.6 3.65 5.65 3.65 Q5.65 3.6 5.7 3.6 5.75 3.6 5.75 3.65 M5.55 4.25 L5.55 4.25 M5.55 4.5 L5.6 4.55 5.5 4.65 5.45 4.75 5.45 4.6 5.5 4.55 5.5 4.45 5.55 4.5 M5.3 4.9 L5.3 4.9 M5.4 5.1 L5.4 5.1 M5.2 5.15 L5.2 5.2 5.1 5.2 5.1 5.15 5.2 5.15 M5.4 5.2 L5.45 5.2 5.55 5.25 5.45 5.35 5.4 5.35 5.5 5.4 5.5 5.45 5.45 5.45 5.4 5.4 5.4 5.35 5.35 5.35 5.3 5.3 5.4 5.2 M5.7 4.95 L5.75 4.9 5.65 5.1 5.6 5.15 5.5 5.1 5.6 5.05 5.7 4.95 M5.6 5.35 L5.6 5.35 M5.4 5.45 L5.35 5.45 5.4 5.4 5.4 5.45" fill="#00ffff" fill-opacity="0.003921569" fill-rule="evenodd" stroke="none"/>
      <path d="M6.0 3.8 L6.05 3.8 6.05 3.9 6.1 4.1 6.05 4.25 6.1 4.8 6.15 4.75 6.1 4.85 6.1 4.95 6.0 5.0 5.9 5.0 5.8 5.1 5.55 5.3 5.55 5.35 5.45 5.35 5.45 5.4 5.35 5.35 5.35 5.4 5.25 5.4 5.2 5.25 5.15 5.15 5.1 5.15 5.1 4.85 5.5 4.35 5.6 4.25 5.7 3.7 5.75 3.7 5.7 3.65 Q5.45 3.25 5.45 3.2 L5.5 3.15 Q5.55 3.15 5.85 3.55 L6.0 3.8 M5.8 4.7 L5.55 5.05 5.55 5.15 5.75 5.0 Q5.8 4.95 5.9 4.9 L5.9 4.5 5.8 4.7 M5.45 4.6 Q5.3 4.8 5.25 4.9 L5.3 5.05 5.35 5.25 5.35 5.35 5.45 5.25 5.45 5.2 5.5 5.1 5.55 4.55 5.55 4.5 5.45 4.6" fill="#ffffff" fill-opacity="0.007843138" fill-rule="evenodd" stroke="none"/>
    </g>
    <g id="sprite1" transform="matrix(1.0, 0.0, 0.0, 1.0, 46.9, 167.65)">
      <use ffdec:characterId="1724" height="33.2" transform="matrix(7.0, 0.0, 0.0, 7.0, -18.55, -115.85)" width="5.3" xlink:href="#shape4"/>
      <use ffdec:characterId="1725" height="2.4" transform="matrix(7.0, 0.0, 0.0, 7.0, -25.55, 22.05)" width="0.7" xlink:href="#shape5"/>
    </g>
    <g id="shape4" transform="matrix(1.0, 0.0, 0.0, 1.0, 2.65, 16.55)">
      <path d="M0.0 -16.3 L0.0 -3.25 -0.05 -3.15 -0.05 -3.0 0.0 3.85 -0.05 3.9 -0.05 5.85 -0.1 5.9 -0.15 6.05 -0.2 6.0 -0.2 6.05 -0.3 5.65 -0.3 4.05 -0.25 4.0 -0.3 3.75 -0.25 3.45 Q-0.2 2.25 -0.2 0.5 L-0.25 -11.8 -0.25 -14.0 -0.3 -14.35 -0.3 -14.65 Q-0.3 -15.15 -0.15 -15.75 L-0.05 -16.2 0.0 -16.3 M-1.9 5.8 L-2.0 5.4 -2.0 5.35 Q-1.85 5.5 -1.75 5.85 L-1.7 5.9 -1.55 6.35 -1.6 6.45 -1.7 6.35 -1.8 6.2 Q-1.85 6.0 -1.85 5.95 L-1.9 5.8 M-1.1 6.4 L-1.1 6.35 -1.0 6.2 -0.9 6.1 -0.8 6.0 Q-0.8 6.1 -0.9 6.2 -1.0 6.35 -1.1 6.45 L-1.1 6.4 M-0.45 5.45 L-0.4 5.4 Q-0.35 5.55 -0.35 5.6 L-0.4 5.75 -0.4 6.05 -0.45 6.45 -0.55 6.5 Q-0.6 6.45 -0.6 6.35 L-0.55 5.9 -0.45 5.45 M0.0 6.4 L0.0 6.5 Q0.0 6.6 -0.2 7.3 -0.4 8.05 -0.5 8.2 L-0.5 8.05 -0.45 7.95 -0.3 7.3 -0.2 6.8 Q-0.1 6.5 0.0 6.4 M0.0 7.75 L0.05 7.75 0.05 7.8 0.0 7.95 -0.05 8.05 -0.1 8.1 -0.15 8.2 -0.2 8.3 -0.25 8.3 -0.25 8.25 -0.25 8.15 Q-0.25 8.1 -0.3 8.1 L-0.2 7.9 0.0 7.75 M0.05 6.5 L0.05 6.4 Q0.15 6.55 0.3 7.1 L0.65 8.35 0.65 8.4 0.65 8.55 0.6 8.6 Q0.55 8.5 0.4 8.1 0.3 7.7 0.3 7.55 L0.25 7.25 0.15 7.0 Q0.1 6.65 0.05 6.5 M0.05 9.3 L0.05 9.25 Q0.05 9.15 0.2 9.05 0.25 9.0 0.3 9.0 0.35 9.0 0.45 9.05 L0.3 9.15 0.1 9.3 0.05 9.3 M-0.45 8.85 L-0.45 8.8 -0.35 8.6 -0.35 8.55 -0.15 8.25 Q-0.1 8.15 0.0 8.2 L-0.1 8.35 -0.05 8.55 -0.1 8.7 -0.15 8.6 -0.15 8.55 -0.2 8.5 -0.35 8.85 -0.45 8.85 Q-0.45 8.9 -0.45 8.85 M-1.45 7.35 L-1.45 7.3 -1.05 7.3 -0.95 7.3 -0.8 7.45 -0.8 7.5 -0.85 7.55 -0.95 7.45 -1.0 7.5 -0.95 7.5 -0.95 7.55 -1.0 7.65 -1.05 7.7 -1.2 7.6 -1.4 7.45 -1.45 7.4 -1.45 7.35 M-1.55 9.1 L-1.5 9.05 -1.15 9.15 -1.05 9.15 -1.05 8.9 -1.1 8.65 Q-1.1 8.6 -1.0 8.6 L-0.85 8.65 -0.8 8.7 -1.0 8.8 Q-0.9 9.1 -0.9 9.2 -0.9 9.3 -0.95 9.25 L-0.95 9.3 -1.0 9.3 -1.45 9.2 -1.55 9.3 -1.65 9.3 -1.75 9.25 Q-1.85 9.25 -1.85 9.3 L-1.85 9.35 -1.9 9.35 -1.9 9.3 Q-1.9 9.1 -1.75 9.1 -1.6 9.1 -1.5 9.15 L-1.55 9.1 Q-1.6 9.1 -1.55 9.1 M-2.15 8.6 L-2.1 8.55 -2.05 8.6 -2.05 8.65 Q-2.05 8.75 -2.15 9.15 L-2.25 9.35 -2.25 10.05 -2.3 10.35 Q-2.4 10.15 -2.4 10.0 L-2.45 9.65 -2.4 9.35 -2.35 9.05 Q-2.25 8.75 -2.15 8.65 L-2.15 8.6 M-0.35 9.15 L-0.35 9.05 Q-0.3 9.05 -0.2 9.1 L-0.15 9.15 Q-0.1 9.2 0.0 9.35 L-0.05 9.35 -0.15 9.25 -0.15 9.2 -0.2 9.25 Q-0.3 9.25 -0.35 9.15 M-0.1 9.5 L-0.15 9.55 Q-0.15 9.65 -0.2 9.7 L-0.15 9.8 Q-0.15 9.85 -0.15 9.9 -0.25 9.95 -0.3 9.9 L-0.25 9.25 Q-0.05 9.3 -0.05 9.35 L-0.1 9.5 M-0.2 10.8 L-0.15 10.85 Q-0.15 10.95 -0.35 11.0 -0.45 11.05 -0.45 10.95 L-0.35 10.9 -0.3 10.8 -0.2 10.8 M-0.65 11.3 Q-0.65 11.2 -0.15 11.05 L0.45 10.9 0.55 10.95 0.35 11.0 0.2 11.05 0.15 11.1 -0.05 11.15 -0.1 11.35 -0.15 11.4 -0.15 11.6 Q-0.2 11.65 -0.35 11.7 L-0.35 11.55 -0.45 11.55 -0.4 11.5 -0.4 11.45 Q-0.4 11.4 -0.45 11.35 L-0.45 11.3 -0.55 11.35 -0.6 11.35 -0.65 11.3 M0.6 12.8 L0.5 12.9 0.15 13.1 0.1 13.1 0.45 12.85 Q0.65 12.7 0.7 12.65 L0.65 12.75 0.6 12.8 M-0.15 11.95 L-0.15 11.9 0.0 11.9 0.05 11.95 -0.15 12.05 -0.25 12.0 -0.15 11.95 M-0.05 12.1 L0.05 12.2 0.0 12.25 0.0 12.3 -0.1 12.5 Q-0.1 12.6 -0.15 12.65 -0.1 12.7 -0.1 12.75 L-0.15 12.75 -0.2 12.9 -0.25 12.95 -0.25 12.8 Q-0.25 12.6 -0.15 12.55 L-0.25 12.4 -0.3 12.25 Q-0.3 12.15 -0.25 12.1 L-0.05 12.1 M-0.7 14.5 Q-0.75 14.5 -0.75 14.4 -0.6 13.65 -0.45 13.4 L-0.4 13.6 -0.45 14.0 -0.55 14.25 -0.7 14.5 M-0.05 15.25 L-0.15 15.3 Q-0.15 15.25 -0.15 15.3 L-0.2 15.3 -0.2 15.35 -0.2 15.4 -0.25 15.4 -0.35 15.25 -0.45 15.15 -0.45 15.05 Q-0.2 15.05 -0.05 15.2 L-0.05 15.25 M-0.15 13.25 Q-0.1 13.3 0.0 13.35 L-0.2 13.6 -0.3 13.5 -0.3 13.45 -0.35 13.3 -0.35 13.25 -0.3 13.2 -0.15 13.25 M-0.95 13.85 L-0.8 13.55 -0.75 13.3 -0.65 13.15 -0.75 13.65 Q-0.8 14.0 -0.9 14.2 L-1.05 14.2 -1.05 14.15 -0.95 13.85 M-0.1 15.6 Q-0.05 15.65 -0.05 15.7 -0.05 15.75 -0.1 15.75 -0.25 15.65 -0.25 15.5 -0.15 15.5 -0.1 15.55 L-0.1 15.6 M-1.15 15.55 L-1.15 15.45 -1.1 15.4 -1.05 15.3 -1.0 15.3 -1.0 15.35 -1.0 15.5 Q-1.05 15.65 -1.1 15.65 L-1.15 15.65 -1.15 15.55 M0.85 6.05 L0.9 6.15 0.95 6.3 0.85 6.55 0.8 6.55 Q0.8 6.5 0.8 6.35 0.8 6.15 0.85 6.05 M1.9 5.6 L1.75 5.95 Q1.65 6.2 1.5 6.35 1.5 6.4 1.5 6.3 L1.6 6.05 Q1.75 5.7 1.85 5.55 L1.9 5.5 1.95 5.5 1.9 5.6 M0.3 6.3 Q0.35 5.95 0.4 5.8 L0.45 5.75 0.45 6.05 Q0.45 6.25 0.35 6.35 L0.3 6.3 M1.25 7.35 L1.25 7.45 Q1.25 7.5 1.05 7.6 L0.95 7.5 Q0.95 7.4 1.05 7.35 L1.25 7.35 M1.15 8.6 L1.15 8.7 Q1.15 8.75 1.05 8.8 0.9 8.85 0.85 8.95 L0.8 9.3 0.75 9.3 0.75 9.2 Q0.75 8.9 0.8 8.75 0.9 8.5 1.15 8.6 M1.45 9.1 L1.6 9.15 1.65 9.2 Q1.45 9.4 1.35 9.4 L1.25 9.35 Q1.2 9.35 1.2 9.25 L1.25 9.15 Q1.35 9.1 1.45 9.1 M0.55 14.05 L0.6 14.3 Q0.6 14.4 0.4 14.4 0.2 14.4 0.25 14.2 0.25 14.05 0.35 14.0 0.4 13.95 0.4 13.85 0.4 13.8 0.45 13.8 L0.45 13.75 0.55 14.05" fill="#87ffff" fill-opacity="0.07450981" fill-rule="evenodd" stroke="none"/>
      <path d="M0.05 -16.55 L0.1 -16.55 0.25 -16.1 0.25 -16.05 0.35 -15.7 0.4 -15.55 0.45 -15.25 Q0.5 -14.85 0.5 -14.1 L0.45 -13.75 0.4 -12.8 0.4 -4.05 0.45 0.55 0.45 2.1 0.5 3.95 0.5 4.8 0.55 4.8 0.55 4.9 0.65 5.35 0.75 5.75 Q0.8 5.75 0.9 5.8 L1.0 5.85 1.05 5.85 1.3 6.1 1.35 6.25 1.45 6.2 Q1.45 6.15 1.6 5.85 L1.8 5.5 2.0 5.1 Q2.1 4.95 2.15 4.9 L2.3 4.7 2.35 4.7 2.35 4.75 2.25 5.2 2.05 5.65 1.95 6.2 Q1.9 6.4 1.8 6.5 L1.75 6.55 1.65 6.55 1.3 6.7 Q1.1 6.8 1.0 6.9 L1.05 7.1 1.05 7.15 1.25 7.15 1.65 7.25 1.7 7.3 1.7 7.5 1.65 7.45 Q1.55 7.7 1.55 7.8 L1.55 7.85 1.6 7.9 1.6 7.95 1.65 8.15 1.65 8.2 1.7 8.2 1.65 8.25 Q1.6 8.3 1.65 8.35 1.65 8.4 1.65 8.5 L1.65 8.7 1.6 8.65 1.65 8.75 1.55 8.8 1.65 8.8 Q1.7 8.8 1.7 8.75 L1.75 8.7 2.0 8.7 2.05 8.3 Q2.25 8.25 2.3 8.45 L2.45 8.75 2.65 9.4 2.6 9.45 2.65 9.5 2.6 10.05 2.5 10.85 Q2.5 11.4 2.35 12.05 L2.35 12.1 Q2.4 12.15 2.3 12.2 L2.25 12.25 Q2.05 12.25 2.05 12.15 2.0 11.9 2.1 11.2 L2.15 10.9 2.15 9.85 2.1 9.7 2.1 9.75 Q2.1 9.85 1.6 9.9 1.45 10.0 1.4 10.2 L1.35 10.5 1.3 10.5 1.25 10.55 1.15 10.75 1.05 11.0 Q1.0 11.3 0.95 11.5 L1.0 11.75 1.0 12.0 0.95 12.5 Q0.95 12.55 1.0 12.6 L1.05 12.7 0.95 12.95 Q0.95 13.05 1.1 13.65 L1.25 14.15 1.35 14.4 1.25 14.3 1.1 14.4 1.25 14.85 1.4 15.5 1.4 15.7 1.2 15.9 1.15 15.9 1.15 15.95 1.05 15.9 Q0.95 15.75 0.9 15.4 L0.85 15.05 0.8 15.25 0.8 15.3 0.9 16.05 0.9 16.25 Q0.85 16.3 0.75 16.3 L0.5 16.25 0.4 16.2 Q0.15 16.5 0.15 16.65 L-0.1 16.65 Q-0.1 16.5 -0.4 16.2 L-0.45 16.15 -0.5 16.15 Q-0.55 16.25 -0.7 16.25 -0.9 16.25 -0.9 16.1 L-0.8 15.6 -0.8 15.35 -0.75 15.25 -0.8 15.05 -0.85 15.4 Q-0.9 15.65 -0.95 15.85 -1.0 15.95 -1.05 15.95 L-1.1 15.95 Q-1.25 15.9 -1.3 15.8 -1.4 15.65 -1.4 15.55 -1.4 15.2 -1.1 14.45 L-1.15 14.35 -1.2 14.35 -1.3 14.4 -1.25 14.3 -1.3 14.35 -1.4 14.35 -1.4 14.25 -1.1 13.55 -1.0 13.35 -0.95 13.15 -0.85 12.9 Q-0.95 12.85 -0.95 12.7 L-0.9 12.2 -1.0 12.2 -1.0 12.15 -0.95 11.7 -0.95 11.45 Q-0.95 11.35 -0.9 11.3 L-1.0 11.05 -1.15 10.55 Q-1.3 10.55 -1.35 10.45 -1.35 10.3 -1.4 10.25 L-1.45 10.05 Q-1.45 9.9 -1.5 9.85 L-1.75 9.8 -1.9 9.8 -2.0 9.75 -2.05 9.7 -2.1 9.7 -2.1 10.9 -2.05 11.2 Q-1.95 11.9 -2.0 12.15 -2.05 12.25 -2.2 12.25 L-2.25 12.2 -2.3 12.2 Q-2.35 12.15 -2.35 12.1 L-2.3 12.05 Q-2.45 11.4 -2.5 10.85 L-2.5 10.45 -2.55 10.5 -2.65 9.5 -2.6 9.35 -2.55 9.15 -2.45 9.0 -2.35 8.65 Q-2.3 8.5 -2.15 8.35 -2.0 8.15 -2.0 8.5 L-2.0 8.7 -1.7 8.7 -1.65 8.75 -1.65 8.8 -1.5 8.8 -1.6 8.75 -1.6 8.5 Q-1.6 8.4 -1.6 8.35 -1.6 8.3 -1.6 8.25 L-1.65 8.2 -1.65 8.15 -1.6 8.1 -1.55 7.95 -1.55 7.8 Q-1.5 7.7 -1.6 7.45 L-1.65 7.5 -1.65 7.35 Q-1.5 7.2 -1.3 7.15 -1.15 7.1 -1.05 7.15 L-1.0 7.1 -0.95 6.9 -1.1 6.75 Q-1.4 6.6 -1.7 6.55 L-1.75 6.5 -1.75 6.4 -2.0 5.7 Q-2.2 5.0 -2.2 4.85 L-2.2 4.85 Q-2.1 4.9 -1.9 5.15 L-1.7 5.55 -1.45 5.9 Q-1.35 6.1 -1.35 6.25 L-1.15 5.95 -1.05 5.85 -0.95 5.85 -0.8 5.75 -0.75 5.75 -0.7 5.8 -0.65 5.55 -0.6 5.1 -0.6 5.05 -0.5 4.75 -0.45 4.85 -0.45 3.95 -0.35 2.1 -0.35 -12.8 -0.4 -13.75 -0.45 -14.1 Q-0.45 -14.85 -0.4 -15.25 L-0.3 -15.55 -0.3 -15.7 -0.2 -16.05 -0.2 -16.1 -0.05 -16.55 0.05 -16.55 M0.1 -16.2 L0.05 -16.3 0.05 -4.45 0.1 -4.45 0.1 5.6 0.15 5.8 0.2 6.05 0.25 6.0 0.25 6.05 0.4 5.25 Q0.35 4.75 0.35 4.15 L0.35 3.75 0.3 3.45 Q0.3 2.25 0.3 0.5 L0.3 -13.55 0.35 -13.8 0.3 -14.0 0.35 -14.35 0.35 -14.65 Q0.35 -15.15 0.2 -15.75 L0.1 -16.2 M0.0 -16.3 L-0.05 -16.2 -0.15 -15.75 Q-0.3 -15.15 -0.3 -14.65 L-0.3 -14.35 -0.25 -14.0 -0.25 -11.8 -0.2 0.5 Q-0.2 2.25 -0.25 3.45 L-0.3 3.75 -0.25 4.0 -0.3 4.05 -0.3 5.65 -0.2 6.05 -0.2 6.0 -0.15 6.05 -0.1 5.9 -0.05 5.85 -0.05 3.9 0.0 3.85 -0.05 -3.0 -0.05 -3.15 0.0 -3.25 0.0 -16.3 M-2.0 5.35 L-2.0 5.4 -1.9 5.8 -1.85 5.9 -1.85 5.95 Q-1.85 6.0 -1.8 6.2 L-1.7 6.35 -1.65 6.45 Q-1.4 6.35 -0.9 6.65 -0.4 7.0 -0.35 7.2 L-0.3 7.0 -0.4 6.9 -0.45 6.9 -0.4 6.85 -0.35 6.55 -0.5 6.7 -0.5 6.8 Q-0.55 6.75 -0.6 6.75 L-0.75 6.6 -0.7 6.6 Q-0.75 6.55 -0.8 6.55 L-0.8 5.9 -0.9 6.1 -1.0 6.2 -1.1 6.35 -1.1 6.4 -1.15 6.35 -1.25 6.35 -1.35 6.3 -1.35 6.35 -1.4 6.3 -1.45 6.3 Q-1.55 6.15 -1.65 6.0 L-1.7 5.9 -1.75 5.85 Q-1.85 5.5 -2.0 5.35 M-0.4 5.75 L-0.35 5.6 Q-0.35 5.55 -0.4 5.4 L-0.45 5.45 -0.45 5.4 -0.5 5.6 -0.6 6.25 -0.6 6.3 -0.7 6.45 -0.6 6.45 -0.45 6.55 -0.35 6.5 -0.35 6.45 -0.3 6.7 -0.25 6.4 -0.25 6.45 -0.3 6.1 -0.4 5.75 M-0.85 6.95 Q-0.85 7.1 -0.9 7.2 -0.7 7.35 -0.55 7.35 L-0.5 7.35 -0.5 7.3 -0.6 7.2 Q-0.8 7.0 -0.85 6.95 M0.0 6.5 L0.0 6.4 -0.05 6.25 -0.05 6.3 -0.1 6.3 -0.3 7.25 -0.4 7.5 -0.45 7.75 -0.45 7.95 -0.5 8.05 -0.5 8.2 -0.55 8.35 -0.6 8.4 -0.65 8.6 -0.6 8.7 -0.5 8.7 -0.4 8.65 -0.4 8.6 -0.35 8.5 Q-0.35 8.45 -0.35 8.35 L-0.3 8.35 -0.3 8.5 -0.35 8.55 -0.35 8.6 -0.45 8.8 -0.45 8.85 -0.45 8.9 -0.5 9.0 -0.55 9.25 -0.6 9.4 -0.55 9.45 Q-0.55 9.6 -0.6 9.65 L-0.65 9.75 -0.7 9.8 -0.7 10.2 -0.75 10.45 -0.7 10.45 -0.7 10.55 -0.65 10.55 Q-0.6 10.55 -0.5 10.5 L-0.4 10.4 -0.35 10.3 -0.35 10.25 Q-0.4 9.85 -0.45 9.75 L-0.35 9.85 -0.3 9.95 -0.3 10.05 -0.2 10.1 -0.1 9.8 Q0.0 9.5 0.0 9.3 0.0 9.2 -0.15 9.1 L-0.35 8.9 -0.05 8.95 -0.05 8.8 0.0 8.65 0.0 8.2 0.0 7.95 0.05 7.8 0.05 7.75 0.0 7.75 -0.05 7.7 -0.05 7.75 -0.15 7.8 -0.25 7.95 -0.1 7.35 -0.05 7.05 0.0 6.95 0.0 6.5 M0.05 6.5 L0.05 7.0 0.1 7.0 0.1 7.05 0.05 7.05 0.15 7.35 0.3 7.95 0.2 7.8 0.1 7.75 0.1 7.7 0.05 7.7 Q0.05 7.75 0.05 7.8 L0.05 8.9 0.1 8.9 0.15 8.95 0.35 8.9 0.4 8.9 0.3 9.0 Q0.25 9.0 0.2 9.05 0.05 9.15 0.05 9.25 L0.05 9.3 Q0.05 9.5 0.15 9.8 L0.25 10.1 0.35 10.05 0.35 10.0 0.45 9.85 0.45 9.95 0.4 10.2 0.3 10.35 0.4 10.35 0.45 10.45 0.6 10.55 0.75 10.55 0.8 10.5 0.75 10.4 0.75 10.35 0.8 10.25 0.75 9.95 0.75 9.8 Q0.7 9.75 0.65 9.75 L0.65 9.65 Q0.6 9.6 0.6 9.45 L0.6 9.25 0.55 9.0 0.5 8.9 0.5 8.8 0.35 8.5 0.35 8.35 0.4 8.5 0.45 8.6 0.45 8.65 0.5 8.7 0.65 8.7 0.65 8.55 0.65 8.4 0.65 8.35 0.3 7.1 0.15 6.5 0.15 6.35 0.1 6.3 0.05 6.35 0.05 6.4 0.05 6.5 M-1.45 7.35 L-1.5 7.4 -1.45 7.4 -1.25 7.6 Q-0.95 7.95 -0.95 8.05 L-1.05 8.2 -1.1 8.2 Q-1.2 8.25 -1.45 8.35 L-1.55 8.2 -1.6 8.2 -1.45 8.35 -1.1 8.3 -1.0 8.2 -0.85 8.2 -0.6 8.2 -0.6 8.05 -0.65 8.05 -0.7 8.0 -0.7 7.85 Q-0.75 7.7 -0.85 7.65 -0.75 7.65 -0.65 7.8 L-0.5 7.8 -0.5 7.7 -0.55 7.7 -0.8 7.45 -0.95 7.3 -1.0 7.25 -1.05 7.3 -1.45 7.3 -1.45 7.35 M-0.55 7.95 L-0.6 7.85 -0.65 7.9 Q-0.6 8.0 -0.6 8.05 L-0.55 8.15 -0.5 7.9 -0.55 7.95 M-0.25 8.25 L-0.25 8.3 -0.25 8.25 M-0.15 8.2 L-0.1 8.1 -0.05 8.1 -0.15 8.2 M-1.55 9.1 L-1.6 9.0 -1.75 9.0 -1.8 9.05 -1.8 9.1 -1.85 9.1 -1.95 9.2 -1.95 9.4 -2.0 9.25 -2.0 9.4 Q-2.0 9.55 -1.95 9.65 L-1.9 9.65 -1.85 9.7 -1.4 9.7 -1.35 9.75 -1.35 9.7 -1.2 9.7 -1.05 9.65 -0.9 9.65 -0.75 9.6 -0.65 9.5 -0.7 9.0 -0.7 8.95 -0.75 8.85 -0.75 8.75 -0.8 8.7 -0.8 8.6 -0.85 8.55 -1.05 8.55 -1.15 8.6 -1.2 8.65 -1.35 8.9 Q-1.3 8.9 -1.3 8.85 L-1.25 8.85 -1.25 8.75 Q-1.2 8.75 -1.15 8.85 L-1.15 8.9 -1.1 9.1 -1.05 9.15 -1.15 9.15 -1.5 9.05 -1.55 9.1 M-1.2 8.45 L-1.3 8.4 -1.35 8.65 -1.45 8.8 -1.35 8.8 -1.2 8.55 -1.15 8.4 -1.2 8.45 M-1.45 8.55 Q-1.4 8.45 -1.35 8.4 L-1.45 8.4 -1.45 8.5 -1.5 8.55 -1.5 8.7 -1.45 8.7 -1.45 8.55 M-0.6 8.4 L-0.6 8.35 -0.65 8.4 -0.6 8.4 M-0.7 8.7 L-0.7 8.7 M-1.55 7.5 L-1.5 7.5 -1.55 7.45 -1.55 7.5 M-1.65 7.4 L-1.65 7.45 -1.6 7.45 -1.65 7.4 M-2.15 9.15 Q-2.05 8.75 -2.05 8.65 L-2.05 8.6 -2.1 8.55 -2.15 8.6 -2.1 8.55 -2.15 8.65 Q-2.25 8.75 -2.35 9.05 L-2.4 9.35 -2.45 9.4 -2.45 9.8 -2.4 10.7 -2.25 11.5 -2.2 12.05 -2.15 12.05 -2.2 11.3 -2.2 10.05 -2.15 9.15 M-2.6 9.4 L-2.6 9.45 -2.55 9.4 -2.6 9.4 M-2.05 9.5 L-2.05 9.5 M-1.9 9.0 L-1.9 9.0 M-0.95 9.85 L-1.1 9.85 Q-1.15 9.85 -1.25 9.9 L-1.2 10.05 -1.2 10.15 -1.15 10.3 -1.05 10.4 -0.8 10.3 -0.8 10.05 Q-0.9 10.0 -0.9 9.85 L-0.95 9.85 M-1.3 9.8 L-1.25 9.8 -1.25 9.75 -1.3 9.8 M-0.8 10.55 L-0.8 10.5 -0.95 10.6 -0.85 10.8 Q-0.75 11.1 -0.75 11.2 L-0.75 11.25 Q-0.65 11.15 -0.35 11.05 L-0.05 10.9 Q0.2 10.8 0.6 10.8 L0.75 10.85 0.85 10.85 0.9 10.9 0.95 10.8 1.0 10.6 0.9 10.5 0.8 10.5 0.8 10.6 0.85 10.65 0.8 10.7 0.75 10.6 0.7 10.65 0.7 10.75 0.65 10.75 0.45 10.7 0.25 10.6 0.2 10.55 0.2 10.45 Q0.15 10.45 0.1 10.4 L0.1 10.35 0.05 10.25 0.0 10.35 -0.1 10.35 -0.05 10.4 -0.05 10.5 -0.2 10.55 -0.3 10.65 Q-0.35 10.75 -0.55 10.75 L-0.55 10.65 -0.7 10.65 -0.7 10.6 -0.75 10.7 -0.8 10.65 -0.8 10.55 M-0.8 10.4 L-0.8 10.4 M-0.85 11.35 L-0.8 11.55 -0.75 12.0 -0.75 12.15 -0.6 12.05 -0.4 11.95 Q-0.25 11.85 -0.15 11.8 L0.05 11.75 0.15 11.75 0.3 11.7 0.5 11.7 Q0.7 11.75 0.75 11.8 L0.8 11.85 0.8 11.6 Q0.8 11.45 0.85 11.3 L0.85 11.25 Q0.85 11.15 0.9 10.95 L0.8 10.9 0.5 10.85 Q0.15 10.85 -0.3 11.05 L-0.8 11.3 Q-0.75 11.35 -0.85 11.35 M0.65 12.75 L0.85 12.65 0.8 12.55 0.8 12.5 Q0.55 12.8 0.35 12.85 0.4 12.75 0.55 12.7 L0.7 12.55 0.65 12.5 Q0.65 12.45 0.75 12.4 L0.75 12.3 0.8 11.9 0.75 11.85 0.55 12.0 Q0.4 12.1 0.3 12.1 L0.0 12.1 -0.25 12.05 -0.4 12.0 -0.75 12.2 -0.75 12.55 -0.8 12.75 -0.7 12.9 -0.4 13.05 -0.3 13.15 Q-0.2 13.2 -0.1 13.2 L0.0 13.2 0.4 13.0 0.6 12.8 0.65 12.75 M-0.25 12.05 L0.15 12.1 Q0.35 12.1 0.5 11.95 L0.7 11.8 0.45 11.75 Q0.05 11.75 -0.35 12.0 L-0.25 12.05 M-0.7 12.7 Q-0.7 12.8 -0.5 12.9 L-0.65 12.8 -0.7 12.7 M-0.3 13.2 L-0.35 13.15 Q-0.4 13.1 -0.5 13.05 L-0.75 12.95 -0.75 13.2 Q-0.8 13.4 -0.9 13.7 L-0.95 13.75 -1.05 14.1 -1.1 14.2 Q-1.05 14.25 -1.0 14.25 L-0.95 14.25 -0.95 14.3 -0.9 14.3 -0.75 13.95 -0.65 13.65 -0.6 13.4 -0.55 13.45 -0.7 14.0 Q-0.75 14.35 -0.8 14.45 L-0.75 14.5 -0.8 14.55 -0.75 14.55 -0.7 14.5 -0.05 14.55 0.0 14.55 0.0 15.4 -0.05 15.4 -0.05 15.25 -0.05 15.2 -0.05 15.1 -0.1 15.1 Q-0.25 15.05 -0.4 14.85 L-0.65 14.6 -0.75 14.6 -0.7 14.7 -0.5 15.15 -0.15 15.75 0.0 15.9 0.05 15.9 0.2 15.75 0.45 15.2 Q0.3 15.4 0.1 15.5 L0.05 15.55 -0.05 15.6 -0.1 15.6 -0.1 15.55 -0.05 15.5 -0.15 15.5 -0.2 15.35 -0.15 15.3 -0.15 15.35 Q-0.1 15.4 0.0 15.45 L0.05 15.4 0.0 15.4 0.0 14.6 0.05 14.55 0.1 14.55 Q0.25 14.4 0.8 14.55 L0.85 14.55 0.75 14.5 0.85 14.45 Q0.8 14.35 0.7 14.0 L0.6 13.45 0.6 13.4 0.65 13.4 0.7 13.65 0.8 13.95 0.95 14.3 1.05 14.3 1.1 14.25 1.15 14.25 Q1.05 14.05 0.85 13.4 L0.75 13.1 0.75 12.8 0.7 12.8 Q0.6 12.85 0.35 13.05 0.05 13.25 0.0 13.25 L-0.15 13.25 -0.3 13.2 M-0.95 14.55 L-0.95 14.55 M-1.15 15.55 L-1.2 15.65 -1.05 15.8 Q-0.9 15.35 -0.85 14.9 L-0.85 14.85 -0.8 14.75 -0.85 14.55 -0.85 14.65 -0.9 15.0 Q-0.95 15.25 -1.0 15.35 L-1.0 15.3 -1.05 15.3 -1.05 14.95 -1.1 15.3 -1.1 15.4 -1.15 15.45 -1.15 15.55 M-0.75 15.75 L-0.75 16.0 -0.65 16.0 -0.55 15.95 -0.7 15.8 -0.75 15.6 -0.75 15.75 M-0.15 15.3 Q-0.15 15.25 -0.15 15.3 M0.5 5.0 L0.5 5.0 M1.5 6.3 L1.3 6.35 1.2 6.35 1.15 6.4 1.1 6.4 1.1 6.35 0.85 5.95 0.85 6.05 Q0.8 6.15 0.8 6.35 0.8 6.5 0.8 6.55 L0.75 6.6 0.8 6.6 0.6 6.75 Q0.55 6.75 0.5 6.8 L0.5 6.65 0.4 6.55 0.45 6.85 0.45 6.9 0.4 6.95 Q0.35 6.95 0.35 7.0 L0.35 7.2 Q0.5 7.05 0.85 6.8 L0.85 6.75 Q1.3 6.45 1.7 6.45 L1.7 6.35 Q1.7 6.05 1.9 5.6 L1.95 5.5 1.9 5.5 1.95 5.45 1.95 5.4 1.85 5.55 Q1.75 5.7 1.6 6.05 L1.5 6.25 1.5 6.3 M0.3 6.3 L0.3 6.45 0.25 6.3 0.3 6.4 0.35 6.8 0.35 6.45 0.4 6.45 0.4 6.5 0.5 6.6 Q0.55 6.55 0.6 6.5 L0.7 6.45 0.65 6.3 0.65 6.1 0.6 5.85 0.55 5.75 0.5 5.35 0.45 5.45 0.45 5.55 0.4 5.8 Q0.35 5.95 0.3 6.3 M0.9 6.95 Q0.75 7.1 0.65 7.25 L0.6 7.35 Q0.75 7.35 0.95 7.2 0.9 7.1 0.9 6.95 M1.55 7.5 L1.55 7.5 M1.65 7.4 L1.6 7.45 1.65 7.45 1.65 7.4 M1.6 8.2 L1.5 8.35 1.15 8.2 1.1 8.2 1.0 8.05 Q0.95 7.95 1.3 7.6 L1.5 7.4 Q1.3 7.4 1.15 7.3 L1.05 7.25 0.6 7.7 0.55 7.7 0.5 7.75 0.5 7.8 0.7 7.8 Q0.75 7.65 0.85 7.65 L0.9 7.65 Q0.75 7.7 0.7 7.85 L0.75 7.85 0.75 7.9 0.7 8.0 0.7 8.05 0.65 8.05 0.65 8.2 0.9 8.2 1.05 8.2 1.15 8.3 1.5 8.35 1.6 8.25 1.6 8.2 M1.5 8.4 L1.4 8.4 Q1.45 8.45 1.5 8.55 L1.5 8.65 1.55 8.55 1.5 8.5 1.5 8.4 M2.2 8.65 L2.2 8.7 Q2.25 9.15 2.25 10.05 L2.25 11.3 2.2 12.05 2.3 11.5 2.4 10.7 2.5 9.8 2.5 9.45 2.4 9.25 2.4 9.3 2.35 9.1 2.25 8.75 2.2 8.65 M0.4 7.3 L0.4 7.3 M0.55 7.9 L0.6 8.15 0.6 8.05 Q0.6 8.0 0.65 7.9 L0.65 7.85 0.6 7.95 0.55 7.9 M0.1 8.1 L0.1 8.1 M0.85 8.6 L0.8 8.7 0.8 8.75 0.75 8.8 0.75 9.0 Q0.75 9.25 0.7 9.5 L0.75 9.6 0.85 9.6 0.95 9.65 1.05 9.65 1.2 9.7 1.3 9.7 1.4 9.75 1.5 9.75 1.55 9.7 1.7 9.7 1.9 9.65 2.0 9.65 Q2.05 9.55 2.05 9.4 L2.05 9.25 2.0 9.4 2.0 9.2 1.85 9.1 1.8 9.05 1.8 9.0 1.65 9.0 1.6 9.1 1.6 9.05 Q1.35 9.1 1.25 9.15 L1.1 9.15 Q1.1 9.1 1.15 9.0 L1.2 8.85 1.2 8.8 1.25 8.75 1.25 8.85 1.3 8.85 Q1.35 8.9 1.4 8.9 L1.25 8.65 1.2 8.6 1.05 8.55 0.9 8.55 0.85 8.6 M0.75 8.7 L0.75 8.7 M1.2 8.4 L1.25 8.55 1.4 8.8 1.45 8.8 Q1.4 8.75 1.4 8.65 L1.35 8.4 1.3 8.4 1.2 8.45 1.2 8.4 M1.3 9.9 Q1.2 9.85 1.1 9.85 L0.95 9.85 Q0.95 10.0 0.85 10.05 L0.8 10.1 0.8 10.2 0.85 10.25 0.85 10.3 1.1 10.4 1.2 10.4 Q1.2 10.3 1.25 10.05 L1.3 9.9 M1.3 9.8 L1.3 9.8 M1.9 9.0 L1.9 9.05 1.95 9.05 1.9 9.0 M2.1 9.05 L2.1 9.05 M2.1 9.55 L2.1 9.55 M0.9 14.55 L0.85 14.75 0.9 14.85 0.9 14.9 Q0.95 15.35 1.1 15.8 L1.15 15.75 1.15 15.7 1.2 15.65 1.2 15.5 1.15 15.4 1.15 15.3 1.05 14.95 1.1 15.2 1.05 15.35 Q1.0 15.3 0.95 15.0 L0.9 14.65 0.9 14.55 M1.0 14.4 L1.0 14.4 M1.0 14.55 L1.0 14.55 M0.8 14.6 L0.7 14.6 0.45 14.85 Q0.25 15.05 0.1 15.1 L0.1 15.35 0.35 15.05 Q0.6 14.75 0.75 14.65 L0.8 14.6 M0.75 16.05 L0.7 15.8 0.5 16.05 0.7 16.15 0.75 16.15 0.75 16.05" fill="#00bfff" fill-opacity="0.011764706" fill-rule="evenodd" stroke="none"/>
      <path d="M0.1 -16.2 L0.2 -15.75 Q0.35 -15.15 0.35 -14.65 L0.35 -14.35 0.3 -14.0 0.35 -13.8 0.3 -13.55 0.3 0.5 Q0.3 2.25 0.3 3.45 L0.35 3.75 0.35 4.15 Q0.35 4.75 0.4 5.25 L0.25 6.05 0.25 6.0 0.2 6.05 0.15 5.8 0.1 5.6 0.1 -4.45 0.05 -4.45 0.05 -16.3 0.1 -16.2 M-1.9 5.8 L-1.85 5.95 -1.85 5.9 -1.9 5.8 M-1.7 6.35 L-1.6 6.45 -1.55 6.35 -1.7 5.9 -1.65 6.0 Q-1.55 6.15 -1.45 6.3 L-1.4 6.3 -1.35 6.35 -1.35 6.3 -1.25 6.35 -1.15 6.35 -1.1 6.4 -1.1 6.45 Q-1.0 6.35 -0.9 6.2 -0.8 6.1 -0.8 6.0 L-0.9 6.1 -0.8 5.9 -0.8 6.55 Q-0.75 6.55 -0.7 6.6 L-0.75 6.6 -0.6 6.75 Q-0.55 6.75 -0.5 6.8 L-0.5 6.7 -0.35 6.55 -0.4 6.85 -0.45 6.9 -0.4 6.9 -0.3 7.0 -0.35 7.2 Q-0.4 7.0 -0.9 6.65 -1.4 6.35 -1.65 6.45 L-1.7 6.35 M-0.4 5.75 L-0.3 6.1 -0.25 6.45 -0.25 6.4 -0.3 6.7 -0.35 6.45 -0.35 6.5 -0.45 6.55 -0.6 6.45 -0.7 6.45 -0.6 6.3 -0.6 6.25 -0.5 5.6 -0.45 5.4 -0.45 5.45 -0.55 5.9 -0.6 6.35 Q-0.6 6.45 -0.55 6.5 L-0.45 6.45 -0.4 6.05 -0.4 5.75 M-0.85 6.95 Q-0.8 7.0 -0.6 7.2 L-0.5 7.3 -0.5 7.35 -0.55 7.35 Q-0.7 7.35 -0.9 7.2 -0.85 7.1 -0.85 6.95 M0.0 6.5 L0.0 6.95 -0.05 7.05 -0.1 7.35 -0.25 7.95 -0.15 7.8 -0.05 7.75 -0.05 7.7 0.0 7.75 -0.2 7.9 -0.3 8.1 Q-0.25 8.1 -0.25 8.15 L-0.25 8.25 -0.25 8.3 -0.2 8.3 -0.15 8.2 -0.05 8.1 -0.1 8.1 -0.05 8.05 0.0 7.95 0.0 8.2 0.0 8.65 -0.05 8.8 -0.05 8.95 -0.35 8.9 -0.15 9.1 Q0.0 9.2 0.0 9.3 0.0 9.5 -0.1 9.8 L-0.2 10.1 -0.3 10.05 -0.3 9.95 -0.35 9.85 -0.45 9.75 Q-0.4 9.85 -0.35 10.25 L-0.35 10.3 -0.4 10.4 -0.5 10.5 Q-0.6 10.55 -0.65 10.55 L-0.7 10.55 -0.7 10.45 -0.75 10.45 -0.7 10.2 -0.7 9.8 -0.65 9.75 -0.6 9.65 Q-0.55 9.6 -0.55 9.45 L-0.6 9.4 -0.55 9.25 -0.5 9.0 -0.45 8.9 -0.45 8.85 Q-0.45 8.9 -0.45 8.85 L-0.35 8.85 -0.2 8.5 -0.15 8.55 -0.15 8.6 -0.1 8.7 -0.05 8.55 -0.1 8.35 0.0 8.2 Q-0.1 8.15 -0.15 8.25 L-0.35 8.55 -0.3 8.5 -0.3 8.35 -0.35 8.35 Q-0.35 8.45 -0.35 8.5 L-0.4 8.6 -0.4 8.65 -0.5 8.7 -0.6 8.7 -0.65 8.6 -0.6 8.4 -0.55 8.35 -0.5 8.2 -0.5 8.05 -0.5 8.2 Q-0.4 8.05 -0.2 7.3 0.0 6.6 0.0 6.5 M0.05 7.8 Q0.05 7.75 0.05 7.7 L0.1 7.7 0.1 7.75 0.2 7.8 0.3 7.95 0.15 7.35 0.05 7.05 0.1 7.05 0.1 7.0 0.05 7.0 0.05 6.5 Q0.1 6.65 0.15 7.0 L0.25 7.25 0.3 7.55 Q0.3 7.7 0.4 8.1 0.55 8.5 0.6 8.6 L0.65 8.55 0.65 8.7 0.5 8.7 0.45 8.65 0.45 8.6 0.4 8.5 0.35 8.35 0.35 8.5 0.5 8.8 0.5 8.9 0.55 9.0 0.6 9.25 0.6 9.45 Q0.6 9.6 0.65 9.65 L0.65 9.75 Q0.7 9.75 0.75 9.8 L0.75 9.95 0.8 10.25 0.75 10.35 0.75 10.4 0.8 10.5 0.75 10.55 0.6 10.55 0.45 10.45 0.4 10.35 0.3 10.35 0.4 10.2 0.45 9.95 0.45 9.85 0.35 10.0 0.35 10.05 0.25 10.1 0.15 9.8 Q0.05 9.5 0.05 9.3 L0.1 9.3 0.3 9.15 0.45 9.05 Q0.35 9.0 0.3 9.0 L0.4 8.9 0.35 8.9 0.15 8.95 0.1 8.9 0.05 8.9 0.05 7.8 M0.05 6.4 L0.05 6.35 0.1 6.3 0.15 6.35 0.15 6.5 0.3 7.1 Q0.15 6.55 0.05 6.4 M-0.45 7.95 L-0.45 7.75 -0.4 7.5 -0.3 7.25 -0.1 6.3 -0.05 6.3 -0.05 6.25 0.0 6.4 Q-0.1 6.5 -0.2 6.8 L-0.3 7.3 -0.45 7.95 M-0.8 7.45 L-0.55 7.7 -0.5 7.7 -0.5 7.8 -0.65 7.8 Q-0.75 7.65 -0.85 7.65 -0.75 7.7 -0.7 7.85 L-0.7 8.0 -0.65 8.05 -0.6 8.05 -0.6 8.2 -0.85 8.2 -1.0 8.2 -1.1 8.3 -1.45 8.35 -1.6 8.2 -1.55 8.2 -1.45 8.35 Q-1.2 8.25 -1.1 8.2 L-1.05 8.2 -0.95 8.05 Q-0.95 7.95 -1.25 7.6 L-1.45 7.4 -1.5 7.4 -1.45 7.35 -1.45 7.4 -1.4 7.45 -1.2 7.6 -1.05 7.7 -1.0 7.65 -0.95 7.55 -0.95 7.5 -1.0 7.5 -0.95 7.45 -0.85 7.55 -0.8 7.5 -0.8 7.45 M-1.05 7.3 L-1.0 7.25 -0.95 7.3 -1.05 7.3 M-0.55 7.95 L-0.5 7.9 -0.55 8.15 -0.6 8.05 Q-0.6 8.0 -0.65 7.9 L-0.6 7.85 -0.55 7.95 M-1.05 9.15 L-1.1 9.1 -1.15 8.9 -1.15 8.85 Q-1.2 8.75 -1.25 8.75 L-1.25 8.85 -1.3 8.85 Q-1.3 8.9 -1.35 8.9 L-1.2 8.65 -1.15 8.6 -1.05 8.55 -0.85 8.55 -0.8 8.6 -0.8 8.7 -0.75 8.75 -0.75 8.85 -0.7 8.95 -0.7 9.0 -0.65 9.5 -0.75 9.6 -0.9 9.65 -1.05 9.65 -1.2 9.7 -1.35 9.7 -1.35 9.75 -1.4 9.7 -1.85 9.7 -1.9 9.65 -1.95 9.65 Q-2.0 9.55 -2.0 9.4 L-2.0 9.25 -1.95 9.4 -1.95 9.2 -1.85 9.1 -1.8 9.1 -1.8 9.05 -1.75 9.0 -1.6 9.0 -1.55 9.1 Q-1.6 9.1 -1.55 9.1 L-1.5 9.15 Q-1.6 9.1 -1.75 9.1 -1.9 9.1 -1.9 9.3 L-1.9 9.35 -1.85 9.35 -1.85 9.3 Q-1.85 9.25 -1.75 9.25 L-1.65 9.3 -1.55 9.3 -1.45 9.2 -1.0 9.3 -0.95 9.3 -0.95 9.25 Q-0.9 9.3 -0.9 9.2 -0.9 9.1 -1.0 8.8 L-0.8 8.7 -0.85 8.65 -1.0 8.6 Q-1.1 8.6 -1.1 8.65 L-1.05 8.9 -1.05 9.15 M-1.2 8.45 L-1.15 8.4 -1.2 8.55 -1.35 8.8 -1.45 8.8 -1.35 8.65 -1.3 8.4 -1.2 8.45 M-1.45 8.55 L-1.45 8.7 -1.5 8.7 -1.5 8.55 -1.45 8.5 -1.45 8.4 -1.35 8.4 Q-1.4 8.45 -1.45 8.55 M-2.15 8.6 L-2.15 8.65 -2.1 8.55 -2.15 8.6 M-2.4 9.35 L-2.45 9.65 -2.4 10.0 Q-2.4 10.15 -2.3 10.35 L-2.25 10.05 -2.25 9.35 -2.15 9.15 -2.2 10.05 -2.2 11.3 -2.15 12.05 -2.2 12.05 -2.25 11.5 -2.4 10.7 -2.45 9.8 -2.45 9.4 -2.4 9.35 M-0.1 9.5 L-0.05 9.35 Q-0.05 9.3 -0.25 9.25 L-0.3 9.9 Q-0.25 9.95 -0.15 9.9 -0.15 9.85 -0.15 9.8 L-0.2 9.7 Q-0.15 9.65 -0.15 9.55 L-0.1 9.5 M-0.35 9.15 Q-0.3 9.25 -0.2 9.25 L-0.15 9.2 -0.15 9.25 -0.05 9.35 0.0 9.35 Q-0.1 9.2 -0.15 9.15 L-0.2 9.1 Q-0.3 9.05 -0.35 9.05 L-0.35 9.15 M-0.95 9.85 L-0.9 9.85 Q-0.9 10.0 -0.8 10.05 L-0.8 10.3 -1.05 10.4 -1.15 10.3 -1.2 10.15 -1.2 10.05 -1.25 9.9 Q-1.15 9.85 -1.1 9.85 L-0.95 9.85 M-0.8 10.55 L-0.8 10.65 -0.75 10.7 -0.7 10.6 -0.7 10.65 -0.55 10.65 -0.55 10.75 Q-0.35 10.75 -0.3 10.65 L-0.2 10.55 -0.05 10.5 -0.05 10.4 -0.1 10.35 0.0 10.35 0.05 10.25 0.1 10.35 0.1 10.4 Q0.15 10.45 0.2 10.45 L0.2 10.55 0.25 10.6 0.45 10.7 0.65 10.75 0.7 10.75 0.7 10.65 0.75 10.6 0.8 10.7 0.85 10.65 0.8 10.6 0.8 10.5 0.9 10.5 1.0 10.6 0.95 10.8 0.9 10.9 0.85 10.85 0.75 10.85 0.6 10.8 Q0.2 10.8 -0.05 10.9 L-0.35 11.05 Q-0.65 11.15 -0.75 11.25 L-0.75 11.2 Q-0.75 11.1 -0.85 10.8 L-0.95 10.6 -0.8 10.5 -0.8 10.55 M-0.65 11.3 L-0.6 11.35 -0.55 11.35 -0.45 11.3 -0.45 11.35 Q-0.4 11.4 -0.4 11.45 L-0.4 11.5 -0.45 11.55 -0.35 11.55 -0.35 11.7 Q-0.2 11.65 -0.15 11.6 L-0.15 11.4 -0.1 11.35 -0.05 11.15 0.15 11.1 0.2 11.05 0.35 11.0 0.55 10.95 0.45 10.9 -0.15 11.05 Q-0.65 11.2 -0.65 11.3 M-0.2 10.8 L-0.3 10.8 -0.35 10.9 -0.45 10.95 Q-0.45 11.05 -0.35 11.0 -0.15 10.95 -0.15 10.85 L-0.2 10.8 M0.6 12.8 L0.4 13.0 0.0 13.2 -0.1 13.2 Q-0.2 13.2 -0.3 13.15 L-0.4 13.05 -0.7 12.9 -0.8 12.75 -0.75 12.55 -0.75 12.2 -0.4 12.0 -0.25 12.05 0.0 12.1 0.3 12.1 Q0.4 12.1 0.55 12.0 L0.75 11.85 0.8 11.9 0.75 12.3 0.75 12.4 Q0.65 12.45 0.65 12.5 L0.7 12.55 0.55 12.7 Q0.4 12.75 0.35 12.85 0.55 12.8 0.8 12.5 L0.8 12.55 0.85 12.65 0.65 12.75 0.7 12.65 Q0.65 12.7 0.45 12.85 L0.1 13.1 0.15 13.1 0.5 12.9 0.6 12.8 M-0.85 11.35 Q-0.75 11.35 -0.8 11.3 L-0.3 11.05 Q0.15 10.85 0.5 10.85 L0.8 10.9 0.9 10.95 Q0.85 11.15 0.85 11.25 L0.85 11.3 Q0.8 11.45 0.8 11.6 L0.8 11.85 0.75 11.8 Q0.7 11.75 0.5 11.7 L0.3 11.7 0.15 11.75 0.05 11.75 -0.15 11.8 Q-0.25 11.85 -0.4 11.95 L-0.6 12.05 -0.75 12.15 -0.75 12.0 -0.8 11.55 -0.85 11.35 M-0.25 12.05 L-0.35 12.0 Q0.05 11.75 0.45 11.75 L0.7 11.8 0.5 11.95 Q0.35 12.1 0.15 12.1 L-0.25 12.05 M-0.05 12.1 L-0.25 12.1 Q-0.3 12.15 -0.3 12.25 L-0.25 12.4 -0.15 12.55 Q-0.25 12.6 -0.25 12.8 L-0.25 12.95 -0.2 12.9 -0.15 12.75 -0.1 12.75 Q-0.1 12.7 -0.15 12.65 -0.1 12.6 -0.1 12.5 L0.0 12.3 0.0 12.25 0.05 12.2 -0.05 12.1 M-0.15 11.95 L-0.25 12.0 -0.15 12.05 0.05 11.95 0.0 11.9 -0.15 11.9 -0.15 11.95 M-0.7 14.5 L-0.75 14.55 -0.8 14.55 -0.75 14.5 -0.8 14.45 Q-0.75 14.35 -0.7 14.0 L-0.55 13.45 -0.6 13.4 -0.65 13.65 -0.75 13.95 -0.9 14.3 -0.95 14.3 -0.95 14.25 -1.0 14.25 Q-1.05 14.25 -1.1 14.2 L-1.05 14.1 -0.95 13.75 -0.9 13.7 Q-0.8 13.4 -0.75 13.2 L-0.75 12.95 -0.5 13.05 Q-0.4 13.1 -0.35 13.15 L-0.3 13.2 -0.35 13.25 -0.35 13.3 -0.3 13.45 -0.3 13.5 -0.2 13.6 0.0 13.35 Q-0.1 13.3 -0.15 13.25 L0.0 13.25 Q0.05 13.25 0.35 13.05 0.6 12.85 0.7 12.8 L0.75 12.8 0.75 13.1 0.85 13.4 Q1.05 14.05 1.15 14.25 L1.1 14.25 1.05 14.3 0.95 14.3 0.8 13.95 0.7 13.65 0.65 13.4 0.6 13.4 0.6 13.45 0.7 14.0 Q0.8 14.35 0.85 14.45 L0.75 14.5 0.85 14.55 0.8 14.55 Q0.25 14.4 0.1 14.55 L0.05 14.55 0.0 14.6 0.0 15.4 0.05 15.4 0.0 15.45 Q-0.1 15.4 -0.15 15.35 L-0.15 15.3 -0.05 15.25 -0.05 15.4 0.0 15.4 0.0 14.55 -0.05 14.55 -0.7 14.5 -0.55 14.25 -0.45 14.0 -0.4 13.6 -0.45 13.4 Q-0.6 13.65 -0.75 14.4 -0.75 14.5 -0.7 14.5 M-0.7 12.7 L-0.65 12.8 -0.5 12.9 Q-0.7 12.8 -0.7 12.7 M-0.95 13.85 L-1.05 14.15 -1.05 14.2 -0.9 14.2 Q-0.8 14.0 -0.75 13.65 L-0.65 13.15 -0.75 13.3 -0.8 13.55 -0.95 13.85 M-0.1 15.6 L-0.05 15.6 0.05 15.55 0.1 15.5 Q0.3 15.4 0.45 15.2 L0.2 15.75 0.05 15.9 0.0 15.9 -0.15 15.75 -0.5 15.15 -0.7 14.7 -0.75 14.6 -0.65 14.6 -0.4 14.85 Q-0.25 15.05 -0.1 15.1 L-0.05 15.1 -0.05 15.2 Q-0.2 15.05 -0.45 15.05 L-0.45 15.15 -0.35 15.25 -0.25 15.4 -0.2 15.4 -0.2 15.35 -0.15 15.5 -0.05 15.5 -0.1 15.55 Q-0.15 15.5 -0.25 15.5 -0.25 15.65 -0.1 15.75 -0.05 15.75 -0.05 15.7 -0.05 15.65 -0.1 15.6 M-1.0 15.35 Q-0.95 15.25 -0.9 15.0 L-0.85 14.65 -0.85 14.55 -0.8 14.75 -0.85 14.85 -0.85 14.9 Q-0.9 15.35 -1.05 15.8 L-1.2 15.65 -1.15 15.55 -1.15 15.65 -1.1 15.65 Q-1.05 15.65 -1.0 15.5 L-1.0 15.35 M-1.1 15.4 L-1.1 15.3 -1.05 14.95 -1.05 15.3 -1.1 15.4 M-0.75 15.75 L-0.75 15.6 -0.7 15.8 -0.55 15.95 -0.65 16.0 -0.75 16.0 -0.75 15.75 M-0.15 15.3 L-0.2 15.35 -0.2 15.3 -0.15 15.3 M0.85 6.05 L0.85 5.95 1.1 6.35 1.1 6.4 1.15 6.4 1.2 6.35 1.3 6.35 1.5 6.3 Q1.5 6.4 1.5 6.35 1.65 6.2 1.75 5.95 L1.9 5.6 Q1.7 6.05 1.7 6.35 L1.7 6.45 Q1.3 6.45 0.85 6.75 L0.85 6.8 Q0.5 7.05 0.35 7.2 L0.35 7.0 Q0.35 6.95 0.4 6.95 L0.45 6.9 0.45 6.85 0.4 6.55 0.5 6.65 0.5 6.8 Q0.55 6.75 0.6 6.75 L0.8 6.6 0.75 6.6 0.8 6.55 0.85 6.55 0.95 6.3 0.9 6.15 0.85 6.05 M1.5 6.3 L1.5 6.25 1.6 6.05 1.5 6.3 M1.85 5.55 L1.95 5.4 1.95 5.45 1.9 5.5 1.85 5.55 M0.4 5.8 L0.45 5.55 0.45 5.45 0.5 5.35 0.55 5.75 0.6 5.85 0.65 6.1 0.65 6.3 0.7 6.45 0.6 6.5 Q0.55 6.55 0.5 6.6 L0.4 6.5 0.4 6.45 0.35 6.45 0.35 6.8 0.3 6.4 0.25 6.3 0.3 6.45 0.3 6.3 0.35 6.35 Q0.45 6.25 0.45 6.05 L0.45 5.75 0.4 5.8 M0.9 6.95 Q0.9 7.1 0.95 7.2 0.75 7.35 0.6 7.35 L0.65 7.25 Q0.75 7.1 0.9 6.95 M1.6 8.2 L1.6 8.25 1.5 8.35 1.15 8.3 1.05 8.2 0.9 8.2 0.65 8.2 0.65 8.05 0.7 8.05 0.7 8.0 0.75 7.9 0.75 7.85 0.7 7.85 Q0.75 7.7 0.9 7.65 L0.85 7.65 Q0.75 7.65 0.7 7.8 L0.5 7.8 0.5 7.75 0.55 7.7 0.6 7.7 1.05 7.25 1.15 7.3 Q1.3 7.4 1.5 7.4 L1.3 7.6 Q0.95 7.95 1.0 8.05 L1.1 8.2 1.15 8.2 1.5 8.35 1.6 8.2 M2.2 8.65 L2.25 8.75 2.35 9.1 2.4 9.3 2.4 9.25 2.5 9.45 2.5 9.8 2.4 10.7 2.3 11.5 2.2 12.05 2.25 11.3 2.25 10.05 Q2.25 9.15 2.2 8.7 L2.2 8.65 M1.5 8.4 L1.5 8.5 1.55 8.55 1.5 8.65 1.5 8.55 Q1.45 8.45 1.4 8.4 L1.5 8.4 M1.25 7.35 L1.05 7.35 Q0.95 7.4 0.95 7.5 L1.05 7.6 Q1.25 7.5 1.25 7.45 L1.25 7.35 M0.55 7.9 L0.6 7.95 0.65 7.85 0.65 7.9 Q0.6 8.0 0.6 8.05 L0.6 8.15 0.55 7.9 M0.85 8.6 L0.9 8.55 1.05 8.55 1.2 8.6 1.25 8.65 1.4 8.9 Q1.35 8.9 1.3 8.85 L1.25 8.85 1.25 8.75 1.2 8.8 1.2 8.85 1.15 9.0 Q1.1 9.1 1.1 9.15 L1.25 9.15 Q1.35 9.1 1.6 9.05 L1.6 9.1 1.65 9.0 1.8 9.0 1.8 9.05 1.85 9.1 2.0 9.2 2.0 9.4 2.05 9.25 2.05 9.4 Q2.05 9.55 2.0 9.65 L1.9 9.65 1.7 9.7 1.55 9.7 1.5 9.75 1.4 9.75 1.3 9.7 1.2 9.7 1.05 9.65 0.95 9.65 0.85 9.6 0.75 9.6 0.7 9.5 Q0.75 9.25 0.75 9.0 L0.75 8.8 0.8 8.75 0.8 8.7 0.85 8.6 M0.1 8.1 L0.1 8.1 M1.15 8.6 Q0.9 8.5 0.8 8.75 0.75 8.9 0.75 9.2 L0.75 9.3 0.8 9.3 0.85 8.95 Q0.9 8.85 1.05 8.8 1.15 8.75 1.15 8.7 L1.15 8.6 M1.2 8.4 L1.2 8.45 1.3 8.4 1.35 8.4 1.4 8.65 Q1.4 8.75 1.45 8.8 L1.4 8.8 1.25 8.55 1.2 8.4 M1.45 9.1 Q1.35 9.1 1.25 9.15 L1.2 9.25 Q1.2 9.35 1.25 9.35 L1.35 9.4 Q1.45 9.4 1.65 9.2 L1.6 9.15 1.45 9.1 M1.3 9.9 L1.25 10.05 Q1.2 10.3 1.2 10.4 L1.1 10.4 0.85 10.3 0.85 10.25 0.8 10.2 0.8 10.1 0.85 10.05 Q0.95 10.0 0.95 9.85 L1.1 9.85 Q1.2 9.85 1.3 9.9 M0.55 14.05 L0.45 13.75 0.45 13.8 Q0.4 13.8 0.4 13.85 0.4 13.95 0.35 14.0 0.25 14.05 0.25 14.2 0.2 14.4 0.4 14.4 0.6 14.4 0.6 14.3 L0.55 14.05 M0.9 14.55 L0.9 14.65 0.95 15.0 Q1.0 15.3 1.05 15.35 L1.1 15.2 1.05 14.95 1.15 15.3 1.15 15.4 1.2 15.5 1.2 15.65 1.15 15.7 1.15 15.75 1.1 15.8 Q0.95 15.35 0.9 14.9 L0.9 14.85 0.85 14.75 0.9 14.55 M0.75 16.05 L0.75 16.15 0.7 16.15 0.5 16.05 0.7 15.8 0.75 16.05 M0.8 14.6 L0.75 14.65 Q0.6 14.75 0.35 15.05 L0.1 15.35 0.1 15.1 Q0.25 15.05 0.45 14.85 L0.7 14.6 0.8 14.6" fill="#00ffff" fill-opacity="0.07450981" fill-rule="evenodd" stroke="none"/>
    </g>
    <g id="shape5" transform="matrix(1.0, 0.0, 0.0, 1.0, 3.65, -3.15)">
      <path d="M-3.0 5.35 L-3.05 5.35 -3.0 5.3 -3.0 5.35 M-3.05 5.35 L-3.0 5.4 -3.0 5.45 -3.05 5.5 -3.1 5.5 -3.1 5.55 -3.15 5.55 -3.15 5.5 -3.2 5.45 -3.2 5.35 -3.05 5.35 M-3.3 5.2 L-3.25 5.15 -3.1 5.15 -3.1 5.1 -3.15 5.15 -3.15 5.1 -3.2 5.1 -3.15 5.05 -3.15 5.0 -3.1 5.05 -3.1 5.1 -3.05 5.05 -3.05 5.15 -3.05 5.2 -3.0 5.2 -3.0 5.25 -2.95 5.3 -3.0 5.3 -3.05 5.25 -3.1 5.25 -3.1 5.2 -3.2 5.2 -3.25 5.25 Q-3.2 5.25 -3.2 5.3 L-3.2 5.35 -3.25 5.4 -3.3 5.4 -3.35 5.35 -3.35 5.25 -3.3 5.25 -3.3 5.2 M-3.3 4.9 L-3.2 4.9 -3.2 4.95 -3.3 4.95 -3.3 5.05 -3.4 5.15 -3.5 5.15 -3.5 5.1 -3.55 5.05 -3.55 5.0 -3.5 4.95 -3.4 4.9 -3.35 4.9 -3.3 4.95 -3.3 4.9 M-3.3 4.8 L-3.3 4.8 M-3.25 4.45 L-3.15 4.4 -3.1 4.45 -3.1 4.5 -3.05 4.5 -3.05 4.85 -3.0 4.9 -3.05 4.95 -3.05 5.0 -3.15 5.0 -3.15 4.95 -3.2 4.95 Q-3.2 4.85 -3.25 4.7 L-3.3 4.7 -3.3 4.65 -3.35 4.55 -3.35 4.45 -3.25 4.45 M-3.65 4.8 L-3.65 4.65 -3.6 4.6 -3.55 4.6 -3.5 4.65 -3.45 4.65 -3.45 4.7 -3.4 4.7 -3.4 4.75 -3.45 4.8 -3.55 4.85 -3.55 4.95 -3.6 4.95 -3.65 4.9 -3.65 4.8 M-3.2 4.15 L-3.15 4.15 -3.1 4.2 -3.1 4.3 -3.15 4.35 -3.2 4.35 -3.25 4.3 -3.25 4.2 -3.2 4.15 M-3.55 4.2 L-3.5 4.25 -3.55 4.3 -3.55 4.35 -3.6 4.35 -3.65 4.3 -3.65 4.2 -3.55 4.2 M-3.2 3.75 L-3.25 3.8 -3.3 3.8 -3.4 3.7 -3.4 3.8 -3.5 3.85 -3.5 3.95 -3.55 4.0 -3.6 4.0 -3.65 3.95 -3.65 3.9 -3.6 3.85 -3.6 3.7 -3.55 3.7 -3.55 3.65 -3.45 3.65 -3.4 3.6 Q-3.35 3.55 -3.3 3.55 -3.25 3.55 -3.2 3.6 L-3.15 3.6 -3.15 3.7 -3.2 3.75" fill="#00ffff" fill-opacity="0.039215688" fill-rule="evenodd" stroke="none"/>
      <path d="M-3.35 4.7 L-3.45 4.5 -3.4 4.85 -3.4 4.9 -3.3 5.0 -3.2 5.15 -3.2 5.05 -3.35 4.7 M-3.2 4.5 L-3.2 4.55 -3.15 5.1 -3.1 5.3 -3.15 5.2 -3.15 5.25 -3.1 5.35 -3.1 5.05 -3.05 4.9 -3.15 4.6 -3.2 4.5 M-3.2 3.15 L-3.15 3.2 Q-3.15 3.25 -3.3 3.65 L-3.3 3.7 -3.25 4.25 -2.95 4.85 -2.95 5.15 -3.0 5.15 -3.0 5.25 -3.05 5.4 -3.1 5.4 -3.1 5.35 -3.15 5.4 -3.15 5.35 -3.2 5.35 -3.2 5.3 -3.35 5.1 -3.45 5.0 -3.5 5.0 -3.55 4.95 -3.55 4.8 -3.5 4.25 -3.55 4.1 -3.5 3.9 -3.5 3.8 -3.45 3.8 -3.4 3.55 Q-3.25 3.15 -3.2 3.15" fill="#ffffff" fill-opacity="0.07450981" fill-rule="evenodd" stroke="none"/>
    </g>
  </defs>
</svg>
