<?xml version="1.0" encoding="UTF-8" standalone="no"?>
<svg xmlns:ffdec="https://www.free-decompiler.com/flash" xmlns:xlink="http://www.w3.org/1999/xlink" ffdec:objectType="frame" height="106.4px" width="246.75px" xmlns="http://www.w3.org/2000/svg">
  <g transform="matrix(1.0, 0.0, 0.0, 1.0, 0.0, 0.0)">
    <use ffdec:characterId="3601" height="75.4" transform="matrix(1.7371, 0.0, 0.0, 1.3722, -0.0023, 2.6087)" width="142.05" xlink:href="#sprite0"/>
    <use ffdec:characterId="3618" height="66.3" transform="matrix(1.0, 0.0, 0.0, 1.0, 37.4, 32.05)" width="186.3" xlink:href="#shape1"/>
  </g>
  <defs>
    <g id="sprite0" transform="matrix(1.0, 0.0, 0.0, 1.0, -12.75, -47.85)">
      <use ffdec:characterId="3600" height="75.4" transform="matrix(1.0, 0.0, 0.0, 1.0, 12.75, 47.85)" width="142.05" xlink:href="#shape0"/>
    </g>
    <g id="shape0" transform="matrix(1.0, 0.0, 0.0, 1.0, -12.75, -47.85)">
      <path d="M32.0 120.45 L12.75 47.85 154.8 47.85 142.1 118.6 50.25 123.25 32.0 120.45" fill="url(#gradient0)" fill-rule="evenodd" stroke="none"/>
    </g>
    <radialGradient cx="0" cy="0" gradientTransform="matrix(0.0763, 5.0E-4, 0.0, 0.0763, 86.5, 140.55)" gradientUnits="userSpaceOnUse" id="gradient0" r="819.2" spreadMethod="pad">
      <stop offset="0.3333333333333333" stop-color="#ffffff" stop-opacity="0.7411765"/>
      <stop offset="1.0" stop-color="#ffff00" stop-opacity="0.0"/>
    </radialGradient>
    <g id="shape1" transform="matrix(1.0, 0.0, 0.0, 1.0, -37.4, -32.05)">
      <path d="M180.4 46.0 L180.1 45.85 179.85 45.65 Q179.5 45.5 179.5 44.35 L179.75 43.85 Q180.55 42.8 181.15 42.6 181.85 42.35 182.3 42.85 L182.75 43.75 182.75 44.8 182.65 45.2 182.3 45.55 180.9 46.1 180.4 46.0 M195.5 32.8 L195.4 33.4 Q194.8 34.7 193.95 34.8 L193.3 34.7 193.0 34.3 Q192.7 33.65 192.7 32.95 L192.9 32.45 193.3 32.2 195.05 32.3 195.5 32.8 M194.2 35.95 L194.45 36.35 194.45 36.9 Q193.95 38.0 193.25 38.25 L192.9 38.25 192.45 38.25 192.0 38.2 191.65 37.75 191.4 36.45 191.6 36.0 192.0 35.65 193.6 35.5 193.95 35.65 194.2 35.95 M191.4 42.45 L191.75 42.6 192.0 42.85 192.3 43.4 192.2 43.9 Q191.5 45.15 190.35 45.2 L189.85 45.15 189.5 44.7 189.25 43.4 Q189.25 43.15 189.4 42.95 189.6 42.7 189.85 42.6 L191.4 42.45 M187.4 48.35 L187.6 47.65 187.85 47.15 188.35 46.95 189.4 46.95 189.85 47.15 190.2 47.4 190.45 47.8 190.55 48.25 Q190.65 48.85 189.75 49.55 L189.7 49.65 188.35 50.0 187.85 49.8 187.6 49.4 187.4 48.8 187.4 48.35 M187.85 55.2 L188.1 55.45 188.35 56.0 188.3 56.5 Q187.6 57.75 186.8 57.8 L186.55 57.8 185.95 57.75 185.4 57.45 185.15 56.85 Q185.15 55.9 185.4 55.4 185.5 55.05 185.75 54.95 L186.4 54.75 187.4 54.95 187.85 55.2 M188.7 53.05 Q188.35 53.8 187.25 53.8 186.2 53.8 185.85 53.05 L185.75 52.6 185.75 52.35 Q185.75 52.0 186.05 51.75 186.3 51.45 186.65 51.45 188.2 51.45 188.55 52.0 L188.8 52.5 188.7 53.05 M183.35 59.45 Q183.4 59.2 183.7 59.1 184.75 58.6 185.5 59.4 L185.75 60.0 185.5 61.2 185.25 61.45 184.9 61.65 184.4 61.7 183.75 61.65 183.4 61.2 Q183.15 60.6 183.15 59.9 L183.35 59.45 M182.75 65.2 L182.2 65.0 181.95 64.6 181.75 64.0 181.75 63.55 181.95 62.85 Q181.95 62.5 182.2 62.35 L182.75 62.15 183.75 62.15 Q184.05 62.15 184.2 62.35 184.4 62.4 184.55 62.6 L184.8 63.0 184.9 63.45 Q185.0 64.05 184.1 64.75 L184.05 64.85 182.75 65.2 M183.6 69.55 L183.35 70.75 183.1 71.0 182.75 71.2 182.2 71.3 181.6 71.2 181.25 70.75 181.0 69.45 Q181.0 69.2 181.15 69.0 181.25 68.75 181.5 68.65 182.55 68.15 183.35 68.95 L183.6 69.55 M179.7 73.2 L180.75 73.2 Q181.1 73.2 181.35 73.45 L181.6 73.7 181.85 74.25 181.75 74.85 180.65 75.95 179.95 76.15 Q178.8 76.4 178.8 74.6 L178.8 74.05 Q178.8 73.7 179.1 73.45 179.35 73.2 179.7 73.2 M171.95 95.15 L172.5 96.05 172.55 96.7 171.6 97.95 170.15 98.35 169.55 98.1 169.55 98.2 169.0 97.75 Q168.85 97.5 168.85 96.45 168.85 95.0 170.05 94.8 L171.2 94.75 Q171.45 94.75 171.6 94.9 L171.95 95.15 M195.3 79.8 Q195.3 80.75 194.9 81.25 L194.8 81.35 194.65 81.6 194.35 81.85 194.0 82.05 193.5 82.15 193.0 82.05 192.7 81.85 192.45 81.7 Q192.1 81.5 192.1 80.4 192.1 80.05 192.35 79.8 L193.55 78.55 Q193.8 78.15 194.1 78.15 194.8 77.8 195.25 78.75 L195.3 79.8 M223.7 60.15 L223.65 60.7 Q222.85 61.7 221.65 61.7 L221.05 61.55 Q220.75 61.3 220.75 60.95 L220.7 59.8 Q220.7 58.35 221.3 58.15 L222.4 58.0 Q222.75 58.0 223.05 58.25 223.7 58.85 223.7 60.15 M149.3 49.4 L149.65 49.55 149.9 50.0 150.15 51.15 150.15 51.45 150.0 52.7 149.7 53.1 Q149.4 53.65 147.75 53.65 145.2 53.65 145.2 51.2 145.2 49.75 146.5 49.3 L149.3 49.4 M109.5 55.55 L109.75 55.9 109.85 56.1 110.1 56.6 110.2 57.05 Q110.05 58.15 109.35 58.7 L108.8 58.85 107.95 58.85 Q107.6 58.85 107.35 58.6 L107.1 58.0 106.9 57.1 106.9 56.95 107.15 55.9 Q107.15 55.55 107.45 55.4 L107.95 55.2 108.8 55.2 109.25 55.3 109.5 55.55 M95.2 77.1 L95.0 78.15 94.75 78.65 94.15 78.85 Q94.05 78.85 93.55 79.1 L93.1 79.1 92.65 78.85 Q91.45 77.6 91.55 76.9 91.55 75.8 92.05 75.35 L92.3 75.2 Q92.5 75.0 93.1 74.9 L93.6 75.0 Q94.2 75.2 95.1 76.5 L95.2 77.1 M39.35 65.65 Q39.7 65.65 39.95 65.9 L40.45 66.6 Q40.65 66.75 40.65 67.8 40.65 69.1 39.95 69.7 L39.35 69.95 38.7 69.95 38.3 69.9 37.95 69.55 Q37.4 68.5 37.4 67.1 37.4 65.35 38.7 65.55 L38.9 65.55 39.35 65.65 M58.8 74.15 L59.65 74.4 59.85 74.6 Q60.25 74.85 60.25 76.05 L60.2 77.45 60.1 77.8 59.85 78.05 59.5 78.3 59.5 78.4 58.25 78.65 57.9 78.55 Q57.65 78.5 57.55 78.3 56.95 77.55 56.95 76.25 56.95 74.5 58.25 74.15 58.55 73.95 58.8 74.15" fill="#ffff51" fill-opacity="0.49411765" fill-rule="evenodd" stroke="none"/>
      <path d="M180.4 44.35 Q181.7 42.8 181.85 43.85 L181.85 44.8 180.75 45.2 180.45 45.05 180.4 44.35 M193.6 36.55 L192.9 37.4 192.45 37.4 192.3 36.45 193.3 36.25 193.6 36.55 M194.65 33.05 Q194.3 33.85 193.75 33.95 L193.6 32.95 194.65 33.05 M190.1 43.4 L191.15 43.2 191.4 43.5 Q191.0 44.25 190.3 44.35 L190.1 43.4 M189.7 48.25 L189.25 48.85 188.35 49.15 188.2 48.5 188.35 47.8 189.4 47.8 189.7 48.25 M186.65 52.6 L186.65 52.35 187.95 52.6 Q187.75 52.95 187.25 52.95 186.8 52.95 186.65 52.6 M186.05 56.85 Q186.05 56.1 186.2 55.65 L187.25 55.8 187.5 56.1 186.65 56.95 186.05 56.85 M184.75 60.75 L184.2 60.85 184.05 59.9 184.9 60.0 184.75 60.75 M182.75 64.35 L182.55 63.7 182.75 63.0 183.75 63.0 184.05 63.45 183.6 64.05 182.75 64.35 M182.55 70.3 L182.05 70.4 181.85 69.45 182.75 69.55 182.55 70.3 M180.75 74.05 L181.0 74.3 180.1 75.2 179.95 75.25 Q179.7 75.25 179.7 74.6 L179.7 74.05 180.75 74.05 M170.15 97.5 Q170.05 97.4 169.8 97.35 L169.7 96.45 Q169.7 95.75 170.2 95.7 L171.2 95.6 171.7 96.45 171.1 97.15 170.15 97.5 M194.45 79.8 L194.2 80.75 193.85 81.2 193.3 81.25 193.05 81.1 193.0 80.4 194.2 79.1 Q194.45 78.65 194.45 79.8 M221.65 60.85 L221.55 59.8 Q221.55 59.05 221.75 58.95 L222.4 58.85 Q222.85 59.3 222.85 60.15 222.4 60.85 221.65 60.85 M107.75 56.95 L107.95 56.1 108.8 56.1 109.1 56.4 109.35 56.95 Q109.25 57.65 108.8 58.0 L107.95 58.0 107.75 56.95 M94.15 77.95 L93.25 78.2 Q92.4 77.35 92.4 76.9 92.4 76.25 92.65 75.95 L93.25 75.8 94.3 76.9 94.15 77.95 M149.3 51.3 L149.1 52.5 147.75 52.8 Q146.1 52.8 146.1 51.2 146.1 49.5 149.05 50.15 L149.3 51.3 M38.7 66.4 L39.35 66.5 39.7 66.95 39.75 67.8 Q39.75 68.65 39.35 69.1 L38.7 69.1 Q38.3 68.25 38.3 67.1 38.3 66.4 38.7 66.4 M59.4 76.05 L59.3 77.35 58.95 77.6 58.25 77.8 Q57.85 77.2 57.85 76.25 57.85 75.2 58.55 74.9 L59.2 75.2 Q59.4 75.35 59.4 76.05" fill="#ffffff" fill-rule="evenodd" stroke="none"/>
    </g>
  </defs>
</svg>
