<?xml version="1.0" encoding="UTF-8" standalone="no"?>
<svg xmlns:ffdec="https://www.free-decompiler.com/flash" xmlns:xlink="http://www.w3.org/1999/xlink" ffdec:objectType="frame" height="106.4px" width="246.75px" xmlns="http://www.w3.org/2000/svg">
  <g transform="matrix(1.0, 0.0, 0.0, 1.0, 0.0, 0.0)">
    <use ffdec:characterId="3601" height="75.4" transform="matrix(1.7371, 0.0, 0.0, 1.3676, -0.0023, 2.9911)" width="142.05" xlink:href="#sprite0"/>
    <use ffdec:characterId="3605" height="72.25" transform="matrix(1.0, 0.0, 0.0, 1.0, 22.05, 24.2)" width="191.95" xlink:href="#shape1"/>
  </g>
  <defs>
    <g id="sprite0" transform="matrix(1.0, 0.0, 0.0, 1.0, -12.75, -47.85)">
      <use ffdec:characterId="3600" height="75.4" transform="matrix(1.0, 0.0, 0.0, 1.0, 12.75, 47.85)" width="142.05" xlink:href="#shape0"/>
    </g>
    <g id="shape0" transform="matrix(1.0, 0.0, 0.0, 1.0, -12.75, -47.85)">
      <path d="M32.0 120.45 L12.75 47.85 154.8 47.85 142.1 118.6 50.25 123.25 32.0 120.45" fill="url(#gradient0)" fill-rule="evenodd" stroke="none"/>
    </g>
    <radialGradient cx="0" cy="0" gradientTransform="matrix(0.0763, 5.0E-4, 0.0, 0.0763, 86.5, 140.55)" gradientUnits="userSpaceOnUse" id="gradient0" r="819.2" spreadMethod="pad">
      <stop offset="0.3333333333333333" stop-color="#ffffff" stop-opacity="0.7411765"/>
      <stop offset="1.0" stop-color="#ffff00" stop-opacity="0.0"/>
    </radialGradient>
    <g id="shape1" transform="matrix(1.0, 0.0, 0.0, 1.0, -22.05, -24.2)">
      <path d="M201.9 61.2 L202.35 60.95 Q203.05 60.6 203.5 61.55 L203.55 62.6 Q203.55 64.0 202.95 64.05 L202.9 64.05 202.7 64.25 201.3 64.75 200.8 64.65 200.55 64.5 200.25 64.35 Q199.95 64.15 199.95 63.0 199.75 62.0 201.9 61.2 M177.6 78.65 L177.7 79.0 177.7 80.85 177.6 81.25 177.35 81.5 176.15 82.3 175.8 82.3 174.8 82.15 174.55 81.95 Q174.2 81.85 174.2 80.55 174.2 79.7 174.8 78.85 L174.9 78.85 Q175.45 78.05 176.15 77.9 L176.55 77.8 Q176.75 77.8 176.9 77.95 L177.35 78.3 177.6 78.65 M211.3 93.95 L211.2 93.5 211.4 92.55 211.75 92.1 Q211.9 91.85 212.25 91.85 L212.85 91.85 Q213.2 91.85 213.45 92.1 214.0 92.45 214.0 94.05 L213.75 94.65 Q213.3 95.15 212.25 95.15 L211.75 95.0 211.5 94.55 211.3 93.95 M157.2 24.3 Q157.9 23.95 158.3 24.9 L158.4 25.95 157.9 29.15 157.9 29.05 Q157.2 32.2 156.5 32.95 L156.05 33.25 155.55 33.25 Q154.05 32.65 154.05 31.05 154.05 29.6 154.5 28.1 155.1 25.15 156.75 24.55 157.0 24.3 157.2 24.3 M111.0 91.25 Q113.15 91.25 113.7 93.25 L113.7 93.6 113.6 94.2 113.25 94.75 113.15 94.9 112.9 95.4 112.3 95.6 111.75 95.4 Q109.75 93.95 109.95 93.0 L110.2 91.95 110.45 91.45 111.0 91.25 M145.3 85.6 L145.4 85.6 Q147.4 85.6 147.4 87.8 147.4 88.9 147.05 89.1 L146.95 89.15 146.75 89.45 145.65 89.95 145.2 89.95 144.75 89.7 143.45 88.4 143.2 87.8 Q143.2 86.65 143.75 86.2 144.25 85.5 145.3 85.6 M32.05 45.65 Q33.15 45.65 33.6 46.35 L33.75 46.6 33.95 47.15 33.95 47.4 33.5 48.25 33.45 48.45 32.2 48.7 31.85 48.6 31.5 48.35 Q31.15 48.0 31.15 46.5 31.15 46.15 31.45 45.9 31.7 45.65 32.05 45.65 M24.75 74.15 L25.6 75.0 25.85 75.55 25.8 76.05 24.65 77.2 24.05 77.25 Q22.3 76.75 22.4 75.55 L22.4 75.45 22.5 74.65 22.85 74.15 Q23.0 73.9 23.35 73.9 L24.15 73.9 24.75 74.15 M31.95 78.65 L32.4 78.85 32.75 79.1 33.0 79.55 33.1 79.95 33.0 80.4 32.1 81.6 31.6 81.7 31.15 81.6 30.3 81.1 30.05 80.75 29.85 80.3 29.85 79.55 Q29.85 79.2 30.15 78.9 30.4 78.65 30.75 78.65 L31.95 78.65 M23.7 82.75 L24.2 82.9 24.5 83.25 Q25.2 84.55 25.1 84.9 L25.0 85.35 24.65 85.7 24.2 85.95 23.85 86.05 23.45 85.95 Q21.85 85.15 22.05 84.5 L22.05 84.3 22.2 83.45 Q22.3 83.15 22.55 83.0 22.75 82.75 23.1 82.75 L23.7 82.75 M28.9 85.85 Q29.1 85.6 29.45 85.6 L30.2 85.6 30.8 85.85 31.7 86.75 31.95 87.25 31.85 87.8 30.75 88.9 30.15 89.0 Q28.4 88.45 28.5 87.25 L28.55 86.4 Q28.65 86.05 28.9 85.85 M68.7 68.85 L77.65 94.9 77.65 95.4 77.35 95.75 76.95 96.2 76.4 96.45 75.8 96.3 75.55 95.85 70.95 84.3 Q66.5 72.5 66.5 70.05 66.5 69.35 66.8 68.85 66.85 68.5 67.15 68.4 67.3 68.25 67.55 68.25 L67.8 68.25 68.35 68.4 68.7 68.85" fill="#ffff51" fill-opacity="0.49411765" fill-rule="evenodd" stroke="none"/>
      <path d="M200.8 63.0 Q200.8 62.5 202.45 61.9 202.7 61.45 202.7 62.6 L202.55 63.3 202.25 63.45 201.15 63.9 200.9 63.7 200.8 63.0 M175.5 79.35 Q175.95 78.85 176.4 78.65 L176.8 79.0 176.8 80.85 175.8 81.45 175.15 81.35 175.1 80.55 Q175.1 79.95 175.5 79.35 M212.25 94.3 L212.1 93.7 212.25 92.75 212.85 92.75 Q213.15 93.0 213.15 94.05 L212.25 94.3 M155.8 32.35 Q154.95 32.0 154.95 31.05 154.95 29.65 155.3 28.3 155.9 25.75 157.3 25.25 157.55 24.8 157.55 25.95 L157.0 28.9 Q156.4 31.65 155.8 32.35 M112.3 94.75 Q110.8 93.6 110.8 93.0 L111.0 92.1 Q112.45 92.1 112.8 93.4 L112.7 94.05 112.3 94.75 M145.3 86.45 Q146.5 86.45 146.5 87.8 L146.4 88.45 146.25 88.65 145.4 89.1 144.1 87.8 Q144.1 86.4 145.3 86.45 M32.2 47.8 Q32.05 47.55 32.05 46.5 32.65 46.5 32.9 46.85 L33.1 47.4 32.9 47.65 32.2 47.8 M32.2 79.95 L31.6 80.85 30.75 80.3 30.75 79.55 31.95 79.55 32.2 79.95 M24.2 76.4 Q23.25 76.15 23.25 75.55 L23.35 74.75 24.15 74.75 25.0 75.6 24.2 76.4 M23.1 83.6 L23.7 83.6 24.2 84.9 23.8 85.15 22.9 84.5 23.1 83.6 M30.2 86.45 L31.1 87.35 30.3 88.15 Q29.35 87.85 29.35 87.25 L29.45 86.45 30.2 86.45 M76.75 95.15 L76.35 95.6 71.75 83.95 Q67.4 72.4 67.4 70.05 67.4 69.55 67.55 69.1 L67.8 69.1 Q70.1 74.9 76.75 95.15" fill="#ffffff" fill-rule="evenodd" stroke="none"/>
    </g>
  </defs>
</svg>
