<?xml version="1.0" encoding="UTF-8" standalone="no"?>
<svg xmlns:ffdec="https://www.free-decompiler.com/flash" xmlns:xlink="http://www.w3.org/1999/xlink" ffdec:objectType="frame" height="15.4px" width="37.8px" xmlns="http://www.w3.org/2000/svg">
  <g transform="matrix(1.0, 0.0, 0.0, 1.0, 18.9, 15.4)">
    <use ffdec:characterId="333" height="2.2" transform="matrix(7.0, 0.0, 0.0, 7.0, -18.9, -15.4)" width="5.4" xlink:href="#shape0"/>
  </g>
  <defs>
    <g id="shape0" transform="matrix(1.0, 0.0, 0.0, 1.0, 2.7, 2.2)">
      <path d="M0.9 -1.8 L0.3 -1.9 Q-0.45 -2.0 -0.9 -1.8 L-0.95 -1.8 -1.05 -1.75 Q-1.2 -1.7 -1.35 -1.55 L-1.35 -1.5 Q-1.15 -1.35 -0.5 -1.25 L1.05 -1.1 1.6 -1.1 1.7 -1.2 1.55 -1.4 1.45 -1.45 1.35 -1.55 1.25 -1.6 1.25 -1.65 0.9 -1.8 M1.95 -0.9 L1.85 -0.9 Q1.8 -0.9 1.75 -0.9 L1.05 -0.9 -0.4 -1.0 Q-1.55 -1.1 -1.55 -1.5 L-1.75 -1.5 -1.95 -1.4 -2.05 -1.4 -2.25 -1.25 -2.3 -1.25 Q-2.4 -1.1 -2.4 -0.9 L-2.4 -0.7 Q-2.4 -0.65 -2.25 -0.6 -1.85 -0.45 -0.1 -0.45 L1.9 -0.25 2.4 -0.25 2.45 -0.35 2.3 -0.6 2.25 -0.65 2.2 -0.7 2.15 -0.7 2.15 -0.75 2.05 -0.8 2.0 -0.85 1.95 -0.9 M2.55 -0.1 Q2.35 0.0 2.15 0.0 L1.3 -0.1 -0.3 -0.2 Q-1.95 -0.2 -2.45 -0.5 -2.7 -0.65 -2.7 -0.95 -2.7 -1.45 -1.85 -1.65 L-1.45 -1.75 -1.15 -1.95 Q-0.7 -2.2 0.0 -2.2 0.8 -2.2 1.4 -1.75 1.9 -1.45 1.95 -1.25 2.7 -0.85 2.7 -0.4 2.7 -0.2 2.55 -0.1" fill="#111111" fill-rule="evenodd" stroke="none"/>
      <path d="M0.7 -0.7 L0.85 -0.7 1.7 -0.8 1.9 -0.85 1.95 -0.9 2.0 -0.85 Q1.85 -0.65 1.3 -0.45 L-0.15 -0.55 Q-0.75 -0.55 -1.25 -0.7 L-1.15 -0.7 -1.1 -0.7 -0.9 -0.65 -0.85 -0.65 -0.4 -0.6 0.1 -0.7 Q0.25 -0.7 0.4 -0.6 0.45 -0.6 0.75 -0.7 L0.7 -0.7 M-1.75 -1.5 L-1.55 -1.35 Q-1.4 -1.15 -1.25 -1.1 L-0.5 -0.9 -0.6 -0.95 -1.6 -0.85 Q-1.9 -1.0 -1.9 -1.2 -1.9 -1.4 -1.85 -1.45 L-1.95 -1.4 -1.75 -1.5 M-2.05 -1.4 L-2.05 -1.35 -2.05 -1.4 M-2.1 -1.05 L-2.0 -0.9 -2.25 -1.15 -2.3 -1.25 -2.25 -1.25 -2.2 -1.15 -2.1 -1.05 M-2.4 -0.7 L-2.3 -0.65 -2.25 -0.6 Q-2.4 -0.65 -2.4 -0.7 M2.3 -0.6 L2.3 -0.55 Q2.25 -0.35 2.0 -0.4 L1.9 -0.4 1.9 -0.45 2.05 -0.55 2.0 -0.5 2.0 -0.45 Q2.1 -0.45 2.2 -0.55 L2.25 -0.65 2.3 -0.6 M2.15 -0.7 L2.05 -0.8 2.15 -0.75 2.15 -0.7 M1.9 -0.65 L2.0 -0.7 Q1.95 -0.6 1.8 -0.5 L1.7 -0.45 Q1.9 -0.55 1.95 -0.65 L1.9 -0.65" fill="#333333" fill-rule="evenodd" stroke="none"/>
      <path d="M-0.8 -1.7 L-0.6 -1.75 0.1 -1.8 0.9 -1.8 1.25 -1.65 0.2 -1.7 0.15 -1.7 -0.3 -1.65 -0.35 -1.65 -0.65 -1.6 -0.7 -1.6 -0.75 -1.6 Q-0.55 -1.5 -0.35 -1.5 L1.1 -1.3 1.55 -1.4 1.7 -1.2 1.6 -1.1 1.05 -1.1 -0.5 -1.25 Q-1.15 -1.35 -1.35 -1.5 L-1.35 -1.55 Q-1.2 -1.7 -1.05 -1.75 L-0.9 -1.65 -0.8 -1.7" fill="#59542f" fill-rule="evenodd" stroke="none"/>
      <path d="M-0.9 -1.8 Q-0.85 -1.8 -0.75 -1.75 L-0.8 -1.7 -0.9 -1.65 -1.05 -1.75 -0.95 -1.8 -0.9 -1.8 M-0.7 -1.6 L-0.65 -1.6 -0.35 -1.65 -0.3 -1.65 0.15 -1.7 1.25 -1.6 1.35 -1.55 1.45 -1.45 1.0 -1.55 0.4 -1.6 -0.7 -1.6" fill="#d5d3b1" fill-rule="evenodd" stroke="none"/>
      <path d="M0.7 -0.7 L0.45 -0.75 -0.65 -0.7 -1.15 -0.7 -1.25 -0.7 Q-0.75 -0.55 -0.15 -0.55 L1.3 -0.45 Q1.85 -0.65 2.0 -0.85 L2.05 -0.8 2.15 -0.7 2.05 -0.55 1.9 -0.45 1.9 -0.4 2.0 -0.4 Q2.25 -0.35 2.3 -0.55 L2.3 -0.6 2.45 -0.35 2.4 -0.25 1.9 -0.25 -0.1 -0.45 Q-1.85 -0.45 -2.25 -0.6 L-2.3 -0.65 -2.4 -0.7 -2.4 -0.9 Q-2.4 -1.1 -2.3 -1.25 L-2.25 -1.15 -2.0 -0.9 -2.1 -1.05 -2.15 -1.2 -2.05 -1.35 -2.05 -1.4 -1.95 -1.4 -1.85 -1.45 Q-1.9 -1.4 -1.9 -1.2 -1.9 -1.0 -1.6 -0.85 L-0.6 -0.95 -0.5 -0.9 -1.25 -1.1 Q-1.4 -1.15 -1.55 -1.35 L-1.75 -1.5 -1.55 -1.5 Q-1.55 -1.1 -0.4 -1.0 L1.05 -0.9 1.75 -0.9 Q1.8 -0.9 1.85 -0.9 L1.95 -0.9 1.9 -0.85 1.7 -0.8 0.85 -0.7 0.7 -0.7 M1.7 -0.45 L1.8 -0.5 Q1.95 -0.6 2.0 -0.7 L1.9 -0.65 1.5 -0.45 1.45 -0.4 1.6 -0.45 1.7 -0.45" fill="#262626" fill-rule="evenodd" stroke="none"/>
      <path d="M-1.15 -0.7 L-0.65 -0.7 0.45 -0.75 0.7 -0.7 0.75 -0.7 Q0.45 -0.6 0.4 -0.6 0.25 -0.7 0.1 -0.7 L-0.4 -0.6 -0.85 -0.65 -0.9 -0.65 -1.1 -0.7 -1.15 -0.7 M-2.05 -1.35 L-2.15 -1.2 -2.1 -1.05 -2.2 -1.15 -2.25 -1.25 -2.05 -1.4 -2.05 -1.35 M2.05 -0.55 L2.15 -0.7 2.2 -0.7 2.25 -0.65 2.2 -0.55 Q2.1 -0.45 2.0 -0.45 L2.0 -0.5 2.05 -0.55 M1.9 -0.65 L1.95 -0.65 Q1.9 -0.55 1.7 -0.45 L1.6 -0.45 1.45 -0.4 1.5 -0.45 1.9 -0.65" fill="#595959" fill-rule="evenodd" stroke="none"/>
      <path d="M0.9 -1.8 L0.1 -1.8 -0.6 -1.75 -0.8 -1.7 -0.75 -1.75 Q-0.85 -1.8 -0.9 -1.8 -0.45 -2.0 0.3 -1.9 L0.9 -1.8 M1.55 -1.4 L1.1 -1.3 -0.35 -1.5 Q-0.55 -1.5 -0.75 -1.6 L-0.7 -1.6 0.4 -1.6 1.0 -1.55 1.45 -1.45 1.55 -1.4 M0.15 -1.7 L0.2 -1.7 1.25 -1.65 1.25 -1.6 0.15 -1.7" fill="#8f8a64" fill-rule="evenodd" stroke="none"/>
    </g>
  </defs>
</svg>
