<?xml version="1.0" encoding="UTF-8" standalone="no"?>
<svg xmlns:ffdec="https://www.free-decompiler.com/flash" xmlns:xlink="http://www.w3.org/1999/xlink" ffdec:objectType="frame" height="60.0px" width="80.05px" xmlns="http://www.w3.org/2000/svg">
  <g transform="matrix(1.0, 0.0, 0.0, 1.0, 0.0, -0.1)">
    <use ffdec:characterId="2698" height="60.0" transform="matrix(1.0, 0.0, 0.0, 1.0, 0.0, 0.1)" width="80.05" xlink:href="#shape0"/>
  </g>
  <defs>
    <g id="shape0" transform="matrix(1.0, 0.0, 0.0, 1.0, 0.0, -0.1)">
      <path d="M6.8 2.9 L6.35 2.35 Q6.0 1.75 6.0 1.15 L6.1 0.6 6.4 0.5 7.35 1.35 8.55 1.6 9.15 1.45 10.55 2.0 11.5 2.5 12.9 2.75 16.25 3.1 21.4 3.75 28.35 4.8 36.9 4.85 39.35 5.35 46.45 5.75 Q51.25 5.75 68.4 2.3 68.7 2.3 68.85 2.6 68.95 2.85 69.25 2.85 L69.95 2.5 Q70.55 2.15 70.75 2.15 L71.15 2.25 71.15 2.5 71.15 2.55 72.5 1.1 Q74.4 -0.8 74.4 0.85 L74.05 1.3 73.4 2.75 73.35 2.4 72.65 2.6 72.75 2.95 72.25 3.65 70.35 6.05 Q70.2 4.45 68.5 5.9 66.6 7.5 66.6 8.85 L66.65 9.55 66.85 9.65 65.25 11.6 65.25 12.25 64.75 12.95 Q64.0 13.45 63.5 14.05 L63.3 13.8 63.25 13.4 62.55 13.6 Q61.0 14.15 60.65 15.15 L60.8 15.5 Q60.95 15.75 61.45 15.75 L62.05 15.75 60.4 17.8 60.1 18.2 Q60.05 15.35 58.4 17.2 56.8 18.95 56.65 20.75 58.25 19.6 58.25 21.4 L57.8 23.05 Q57.0 24.8 55.5 24.8 L54.9 24.65 54.75 24.5 54.75 23.3 53.75 23.55 53.85 21.65 53.65 19.25 53.25 19.25 Q52.5 21.0 51.95 24.05 L51.8 24.1 Q48.0 25.25 48.0 25.5 48.0 26.15 48.55 26.4 L51.65 25.55 Q51.3 27.7 51.25 29.35 L51.5 29.05 Q52.5 28.05 53.35 28.35 L53.4 29.0 53.1 30.3 Q52.6 31.25 51.45 31.25 L50.9 31.15 50.75 31.05 Q50.65 31.25 50.65 30.6 L50.75 30.2 49.2 32.35 49.4 31.15 Q49.4 27.95 47.1 30.0 44.75 32.05 44.75 34.15 L44.8 34.95 45.5 35.8 46.4 35.8 47.5 34.8 45.7 37.8 44.8 37.55 Q43.5 37.5 43.5 38.4 43.5 39.0 43.8 39.25 L44.5 40.15 42.4 43.7 Q41.3 44.6 40.35 46.05 L39.45 47.5 38.2 44.8 38.25 44.15 Q38.25 42.7 37.85 42.25 37.5 41.9 35.55 40.85 L34.05 38.85 34.5 38.85 34.65 38.75 34.65 38.3 34.6 37.75 Q33.05 37.8 32.5 37.35 32.15 37.1 32.15 36.55 L32.25 36.05 32.6 35.9 33.4 35.9 33.35 35.85 32.7 35.35 Q31.75 34.65 31.25 34.75 L29.05 31.55 29.1 31.3 29.1 30.85 27.6 30.85 27.1 30.5 27.0 29.85 27.1 29.25 Q27.2 29.1 27.6 28.85 L27.95 28.85 27.55 28.55 27.35 26.65 27.15 25.7 28.55 26.35 29.25 26.25 26.6 23.55 26.15 21.9 Q25.7 21.9 25.55 22.4 L25.5 22.5 Q23.6 20.85 22.1 20.65 L21.95 20.7 21.7 20.4 21.2 19.65 22.35 20.35 23.05 20.35 Q23.55 19.85 23.55 19.05 L22.7 17.85 21.0 16.55 20.25 16.55 19.85 16.75 19.75 17.25 19.9 17.9 18.6 16.1 18.9 17.65 18.85 18.35 18.5 18.35 Q18.25 18.05 17.9 16.5 L17.6 14.75 17.25 14.3 16.2 12.9 16.6 12.55 16.65 12.0 Q16.65 11.15 14.5 9.4 13.3 8.45 12.8 8.7 L12.4 8.25 9.85 5.15 Q8.2 3.35 6.8 2.9 M64.25 8.1 Q63.15 8.4 63.15 9.55 L63.4 10.2 Q63.65 10.5 63.95 10.5 64.7 10.5 65.1 9.6 L65.3 8.9 Q65.3 7.8 64.25 8.1 M53.5 11.25 Q52.4 11.25 51.15 12.5 51.35 13.0 51.9 13.0 52.55 13.0 53.55 11.8 L53.5 11.25 M47.0 10.75 L47.75 11.0 48.0 10.65 Q47.8 10.35 47.25 10.35 L47.0 10.75 M43.3 19.35 L43.25 19.55 Q43.25 20.0 43.4 20.1 L43.8 20.25 45.3 20.25 Q49.1 18.35 49.1 17.05 49.1 15.65 47.6 16.1 47.0 15.7 45.5 16.6 43.1 18.05 43.1 18.8 L43.3 19.35 M56.25 17.15 Q57.0 17.05 57.5 16.45 57.9 15.95 57.9 15.3 L57.85 14.75 Q57.2 14.75 56.4 15.35 55.65 15.95 55.65 16.4 L55.75 17.05 56.25 17.15 M53.95 25.0 L54.75 24.8 53.95 25.85 53.3 26.05 53.25 26.1 53.4 25.35 53.45 25.15 53.95 25.0 M40.4 26.9 L40.1 27.05 40.45 27.85 41.55 28.1 Q42.5 28.1 42.5 27.25 42.5 26.7 41.85 26.55 L40.8 26.7 40.4 26.55 40.4 26.9 M45.85 37.9 L45.9 37.75 Q46.45 37.45 46.85 37.9 L46.25 38.25 45.85 37.9 M47.0 33.7 L46.9 33.35 Q46.8 32.8 47.45 32.05 48.2 31.2 49.05 31.25 L49.1 31.75 Q49.0 33.8 47.5 33.8 L47.0 33.7 M41.25 40.1 Q41.05 40.4 41.05 41.35 L41.35 43.15 42.8 41.85 42.9 40.65 42.85 39.55 Q41.6 39.45 41.25 40.1 M30.15 12.8 L30.15 12.9 Q30.15 14.0 31.05 14.0 31.95 14.0 33.0 13.05 L33.9 11.8 Q33.9 10.55 32.05 11.0 31.25 11.15 30.8 11.55 30.05 11.85 29.9 12.4 L30.15 12.8 M22.1 11.0 L22.3 10.9 Q22.0 10.2 21.05 10.5 21.4 11.0 22.1 11.0 M21.7 15.3 L23.3 16.3 23.85 16.25 24.0 16.2 24.0 15.8 Q24.0 14.9 22.35 13.75 20.65 12.6 20.65 14.05 20.65 14.35 21.7 15.3 M25.3 24.45 L25.95 26.8 25.75 26.5 23.65 23.2 24.6 23.9 25.3 24.45 M28.15 24.5 Q28.25 24.95 28.8 25.25 L29.15 25.1 29.25 24.55 Q29.25 23.5 28.8 22.95 28.15 22.15 26.8 23.35 27.2 24.3 28.0 23.8 L28.2 24.3 28.15 24.5 M36.1 20.4 L36.0 20.9 36.1 21.45 36.4 21.55 37.05 20.75 Q37.0 20.35 36.4 20.35 L36.4 20.25 36.1 20.4 M13.0 6.0 L12.9 6.5 Q12.9 6.85 13.75 7.55 L15.0 8.3 15.45 8.15 15.5 7.7 Q15.5 7.15 14.25 6.55 L13.8 6.2 13.25 5.85 Q13.05 5.95 13.0 6.0 M31.95 33.55 Q32.65 34.6 33.3 34.6 L33.75 34.55 33.9 34.0 Q33.9 32.9 31.55 31.4 L31.35 31.6 31.3 32.15 Q31.3 32.65 31.95 33.55 M39.0 35.5 L40.05 35.6 40.2 34.75 Q40.1 34.05 39.05 34.5 L38.85 35.0 39.0 35.5 M38.9 45.75 L39.4 45.85 39.85 45.75 40.3 45.55 41.05 44.3 Q40.0 44.0 38.85 45.5 L38.9 45.75" fill="#879c7c" fill-rule="evenodd" stroke="none"/>
      <path d="M39.45 47.5 L40.35 46.05 Q41.3 44.6 42.4 43.7 L44.5 40.15 43.8 39.25 Q43.5 39.0 43.5 38.4 43.5 37.5 44.8 37.55 L45.7 37.8 47.5 34.8 46.4 35.8 45.5 35.8 44.8 34.95 44.75 34.15 Q44.75 32.05 47.1 30.0 49.4 27.95 49.4 31.15 L49.2 32.35 50.75 30.2 50.65 30.6 Q50.65 31.25 50.75 31.05 L50.9 31.15 51.45 31.25 Q52.6 31.25 53.1 30.3 L53.4 29.0 53.35 28.35 Q52.5 28.05 51.5 29.05 L51.25 29.35 Q51.3 27.7 51.65 25.55 L48.55 26.4 Q48.0 26.15 48.0 25.5 48.0 25.25 51.8 24.1 L51.95 24.05 Q52.5 21.0 53.25 19.25 L53.65 19.25 53.85 21.65 53.75 23.55 54.75 23.3 54.75 24.5 54.9 24.65 55.5 24.8 Q57.0 24.8 57.8 23.05 L58.25 21.4 Q58.25 19.6 56.65 20.75 56.8 18.95 58.4 17.2 60.05 15.35 60.1 18.2 L60.4 17.8 62.05 15.75 61.45 15.75 Q60.95 15.75 60.8 15.5 L60.65 15.15 Q61.0 14.15 62.55 13.6 L63.25 13.4 63.3 13.8 63.5 14.05 Q64.0 13.45 64.75 12.95 L65.25 12.25 65.25 11.6 66.85 9.65 66.65 9.55 66.6 8.85 Q66.6 7.5 68.5 5.9 70.2 4.45 70.35 6.05 L72.25 3.65 72.75 2.95 72.65 2.6 73.35 2.4 73.4 2.75 73.4 2.8 Q73.4 4.3 71.05 7.1 L67.65 11.55 67.75 11.5 Q67.9 12.25 66.3 14.75 L63.3 18.75 62.95 19.2 61.65 21.0 60.7 22.4 58.5 25.8 Q57.45 27.15 52.7 34.25 48.75 40.05 48.4 40.05 L48.25 40.1 43.7 48.0 Q41.0 52.4 40.3 52.4 L39.95 52.35 40.0 52.25 39.9 51.95 40.0 52.0 40.45 51.6 40.5 51.0 40.0 49.8 39.85 48.8 40.0 49.0 40.25 48.85 Q40.15 48.1 39.45 47.5 M47.6 16.1 Q49.1 15.65 49.1 17.05 49.1 18.35 45.3 20.25 L43.8 20.25 43.4 20.1 Q43.25 20.0 43.25 19.55 L43.3 19.35 43.35 19.4 44.2 19.55 Q45.85 19.55 47.9 17.0 47.9 16.3 47.6 16.1 M47.0 10.75 L47.25 10.35 Q47.8 10.35 48.0 10.65 L47.75 11.0 47.0 10.75 M53.5 11.25 L53.55 11.8 Q52.55 13.0 51.9 13.0 51.35 13.0 51.15 12.5 52.4 11.25 53.5 11.25 M64.25 8.1 Q65.3 7.8 65.3 8.9 L65.1 9.6 Q64.7 10.5 63.95 10.5 63.65 10.5 63.4 10.2 L63.15 9.55 Q63.15 8.4 64.25 8.1 M40.8 26.7 L41.85 26.55 Q42.5 26.7 42.5 27.25 42.5 28.1 41.55 28.1 L40.45 27.85 40.1 27.05 40.4 26.9 40.35 27.1 40.8 27.15 41.25 27.0 40.8 26.7 M53.95 25.0 L53.45 25.15 53.4 25.35 53.25 26.1 53.3 26.05 53.95 25.85 54.75 24.8 53.95 25.0 M56.25 17.15 L55.75 17.05 55.65 16.4 Q55.65 15.95 56.4 15.35 57.2 14.75 57.85 14.75 L57.9 15.3 Q57.9 15.95 57.5 16.45 57.0 17.05 56.25 17.15 M47.0 33.7 L47.5 33.8 Q49.0 33.8 49.1 31.75 L49.05 31.25 Q48.2 31.2 47.45 32.05 46.8 32.8 46.9 33.35 L47.0 33.7 M45.85 37.9 L46.25 38.25 46.85 37.9 Q46.45 37.45 45.9 37.75 L45.85 37.9 M30.8 11.55 Q31.25 11.15 32.05 11.0 33.9 10.55 33.9 11.8 L33.0 13.05 Q31.95 14.0 31.05 14.0 30.15 14.0 30.15 12.9 L30.15 12.8 Q30.3 13.05 30.6 13.05 32.65 12.05 32.85 11.25 L31.1 11.4 30.8 11.55 M41.25 40.1 Q41.6 39.45 42.85 39.55 L42.9 40.65 42.8 41.85 41.35 43.15 41.05 41.35 Q41.05 40.4 41.25 40.1 M36.1 20.4 L36.4 20.25 36.4 20.35 Q37.0 20.35 37.05 20.75 L36.4 21.55 36.1 21.45 36.0 20.9 36.1 20.4 M38.9 45.75 L38.85 45.5 Q40.0 44.0 41.05 44.3 L40.3 45.55 39.85 45.75 39.4 45.85 38.9 45.75 M39.0 35.5 L38.85 35.0 39.05 34.5 Q40.1 34.05 40.2 34.75 L40.05 35.6 39.0 35.5" fill="#bfcab9" fill-rule="evenodd" stroke="none"/>
      <path d="M6.8 2.9 Q8.2 3.35 9.85 5.15 L12.4 8.25 12.8 8.7 Q13.3 8.45 14.5 9.4 16.65 11.15 16.65 12.0 L16.6 12.55 16.2 12.9 17.25 14.3 17.6 14.75 17.9 16.5 Q18.25 18.05 18.5 18.35 L18.85 18.35 18.9 17.65 18.6 16.1 19.9 17.9 19.75 17.25 19.85 16.75 20.25 16.55 21.0 16.55 22.7 17.85 23.55 19.05 Q23.55 19.85 23.05 20.35 L22.35 20.35 21.2 19.65 21.7 20.4 21.95 20.7 22.1 20.65 Q23.6 20.85 25.5 22.5 L25.55 22.4 Q25.7 21.9 26.15 21.9 L26.6 23.55 29.25 26.25 28.55 26.35 27.15 25.7 27.35 26.65 27.55 28.55 27.95 28.85 27.6 28.85 Q27.2 29.1 27.1 29.25 L27.0 29.85 27.1 30.5 27.6 30.85 29.1 30.85 29.1 31.3 29.05 31.55 31.25 34.75 Q31.75 34.65 32.7 35.35 L33.35 35.85 33.4 35.9 32.6 35.9 32.25 36.05 32.15 36.55 Q32.15 37.1 32.5 37.35 33.05 37.8 34.6 37.75 L34.65 38.3 34.65 38.75 34.5 38.85 34.05 38.85 35.55 40.85 Q37.5 41.9 37.85 42.25 38.25 42.7 38.25 44.15 L38.2 44.8 39.45 47.5 Q40.15 48.1 40.25 48.85 L40.0 49.0 39.85 48.8 40.0 49.8 40.5 51.0 40.45 51.6 40.0 52.0 39.9 51.95 39.55 51.75 39.25 52.0 39.0 51.8 38.9 51.3 38.45 50.95 Q37.55 50.15 37.05 48.75 36.85 48.1 36.05 46.8 L34.8 44.8 31.7 40.4 29.4 37.1 28.15 35.2 26.5 33.0 Q25.95 32.25 25.35 30.9 L24.25 28.75 18.25 20.15 Q15.75 16.3 10.35 9.3 6.15 3.85 6.15 3.3 L6.25 2.85 6.35 2.8 6.8 2.9 M47.6 16.1 Q47.9 16.3 47.9 17.0 45.85 19.55 44.2 19.55 L43.35 19.4 43.3 19.35 43.1 18.8 Q43.1 18.05 45.5 16.6 47.0 15.7 47.6 16.1 M40.8 26.7 L41.25 27.0 40.8 27.15 40.35 27.1 40.4 26.9 40.4 26.55 40.8 26.7 M30.8 11.55 L31.1 11.4 32.85 11.25 Q32.65 12.05 30.6 13.05 30.3 13.05 30.15 12.8 L29.9 12.4 Q30.05 11.85 30.8 11.55 M28.15 24.5 L28.2 24.3 28.0 23.8 Q27.2 24.3 26.8 23.35 28.15 22.15 28.8 22.95 29.25 23.5 29.25 24.55 L29.15 25.1 28.8 25.25 Q28.25 24.95 28.15 24.5 M25.3 24.45 L24.6 23.9 23.65 23.2 25.75 26.5 25.95 26.8 25.3 24.45 M21.7 15.3 Q20.65 14.35 20.65 14.05 20.65 12.6 22.35 13.75 24.0 14.9 24.0 15.8 L24.0 16.2 23.85 16.25 23.3 16.3 21.7 15.3 M22.1 11.0 Q21.4 11.0 21.05 10.5 22.0 10.2 22.3 10.9 L22.1 11.0 M31.95 33.55 Q31.3 32.65 31.3 32.15 L31.35 31.6 31.55 31.4 Q33.9 32.9 33.9 34.0 L33.75 34.55 33.3 34.6 Q32.65 34.6 31.95 33.55 M13.0 6.0 Q13.05 5.95 13.25 5.85 L13.8 6.2 14.25 6.55 Q15.5 7.15 15.5 7.7 L15.45 8.15 15.0 8.3 13.75 7.55 Q12.9 6.85 12.9 6.5 L13.0 6.0" fill="#6a7c5f" fill-rule="evenodd" stroke="none"/>
      <path d="M79.85 2.05 L80.0 3.75 80.05 3.9 42.2 59.15 Q41.45 60.1 40.4 60.1 39.35 60.1 38.65 59.15 L0.75 3.8 Q0.0 2.65 0.0 1.15 L0.0 1.05 Q3.45 2.25 6.35 2.35 L6.85 3.0 7.85 3.8 40.4 51.3 73.25 3.35 79.85 2.05" fill="#50564a" fill-rule="evenodd" stroke="none"/>
    </g>
  </defs>
</svg>
