<?xml version="1.0" encoding="UTF-8" standalone="no"?>
<svg xmlns:ffdec="https://www.free-decompiler.com/flash" xmlns:xlink="http://www.w3.org/1999/xlink" ffdec:objectType="frame" height="115.05px" width="120.3px" xmlns="http://www.w3.org/2000/svg">
  <g transform="matrix(1.0, 0.0, 0.0, 1.0, 47.6, 110.65)">
    <use ffdec:characterId="176" height="8.75" transform="matrix(0.8169, 0.0, 0.0, 0.8169, 42.2555, -26.9536)" width="8.75" xlink:href="#sprite0"/>
    <use ffdec:characterId="176" height="8.75" transform="matrix(0.8579, 0.0, 0.0, 0.8579, -35.1247, -16.3318)" width="8.75" xlink:href="#sprite0"/>
    <use ffdec:characterId="176" height="8.75" transform="matrix(0.8415, 0.0, 0.0, 0.8415, -23.2526, -18.7105)" width="8.75" xlink:href="#sprite0"/>
    <use ffdec:characterId="176" height="8.75" transform="matrix(0.8417, 0.0, 0.0, 0.8417, -3.9035, -37.2614)" width="8.75" xlink:href="#sprite0"/>
    <use ffdec:characterId="176" height="8.75" transform="matrix(0.8485, 0.0, 0.0, 0.8485, 14.2665, -25.6411)" width="8.75" xlink:href="#sprite0"/>
    <use ffdec:characterId="176" height="8.75" transform="matrix(0.8593, 0.0, 0.0, 0.8593, 14.969, -29.4381)" width="8.75" xlink:href="#sprite0"/>
    <use ffdec:characterId="176" height="8.75" transform="matrix(0.9083, 0.0, 0.0, 0.9083, -12.6966, -29.2011)" width="8.75" xlink:href="#sprite0"/>
    <use ffdec:characterId="176" height="8.75" transform="matrix(0.7841, 0.0, 0.0, 0.7841, 24.8999, -27.9608)" width="8.75" xlink:href="#sprite0"/>
  </g>
  <defs>
    <g id="sprite0" transform="matrix(1.0, 0.0, 0.0, 1.0, 4.4, 4.35)">
      <use ffdec:characterId="175" height="8.75" transform="matrix(1.0, 0.0, 0.0, 1.0, -4.4, -4.35)" width="8.75" xlink:href="#shape0"/>
    </g>
    <g id="shape0" transform="matrix(1.0, 0.0, 0.0, 1.0, 4.4, 4.35)">
      <path d="M-0.05 -4.35 Q1.8 -4.35 3.05 -3.1 4.35 -1.8 4.35 0.0 4.35 1.85 3.05 3.1 1.8 4.4 -0.05 4.4 -1.85 4.4 -3.15 3.1 -4.4 1.85 -4.4 0.0 -4.4 -1.8 -3.15 -3.1 -1.85 -4.35 -0.05 -4.35" fill="#ffffff" fill-opacity="0.6862745" fill-rule="evenodd" stroke="none"/>
    </g>
  </defs>
</svg>
