<?xml version="1.0" encoding="UTF-8" standalone="no"?>
<svg xmlns:ffdec="https://www.free-decompiler.com/flash" xmlns:xlink="http://www.w3.org/1999/xlink" ffdec:objectType="frame" height="115.05px" width="120.3px" xmlns="http://www.w3.org/2000/svg">
  <g transform="matrix(1.0, 0.0, 0.0, 1.0, 47.6, 110.65)">
    <use ffdec:characterId="176" height="8.75" transform="matrix(0.5397, 0.0, 0.0, 0.5397, 27.2754, -75.5476)" width="8.75" xlink:href="#sprite0"/>
    <use ffdec:characterId="176" height="8.75" transform="matrix(0.6743, 0.0, 0.0, 0.6743, -42.3671, -32.4333)" width="8.75" xlink:href="#sprite0"/>
    <use ffdec:characterId="176" height="8.75" transform="matrix(0.6197, 0.0, 0.0, 0.6197, -36.2765, -74.4955)" width="8.75" xlink:href="#sprite0"/>
    <use ffdec:characterId="176" height="8.75" transform="matrix(0.5858, 0.0, 0.0, 0.5858, -28.5775, -63.9482)" width="8.75" xlink:href="#sprite0"/>
    <use ffdec:characterId="176" height="8.75" transform="matrix(0.5924, 0.0, 0.0, 0.5924, -11.9566, -83.477)" width="8.75" xlink:href="#sprite0"/>
    <use ffdec:characterId="176" height="8.75" transform="matrix(0.606, 0.0, 0.0, 0.606, 11.1336, -70.7361)" width="8.75" xlink:href="#sprite0"/>
    <use ffdec:characterId="176" height="8.75" transform="matrix(0.6292, 0.0, 0.0, 0.6292, 18.4816, -78.7369)" width="8.75" xlink:href="#sprite0"/>
    <use ffdec:characterId="176" height="8.75" transform="matrix(0.6552, 0.0, 0.0, 0.6552, -13.4828, -73.15)" width="8.75" xlink:href="#sprite0"/>
    <use ffdec:characterId="176" height="8.75" transform="matrix(0.7048, 0.0, 0.0, 0.7048, 27.3491, -52.2657)" width="8.75" xlink:href="#sprite0"/>
    <use ffdec:characterId="176" height="8.75" transform="matrix(0.4471, 0.0, 0.0, 0.4471, 39.6828, -51.5449)" width="8.75" xlink:href="#sprite0"/>
  </g>
  <defs>
    <g id="sprite0" transform="matrix(1.0, 0.0, 0.0, 1.0, 4.4, 4.35)">
      <use ffdec:characterId="175" height="8.75" transform="matrix(1.0, 0.0, 0.0, 1.0, -4.4, -4.35)" width="8.75" xlink:href="#shape0"/>
    </g>
    <g id="shape0" transform="matrix(1.0, 0.0, 0.0, 1.0, 4.4, 4.35)">
      <path d="M-0.05 -4.35 Q1.8 -4.35 3.05 -3.1 4.35 -1.8 4.35 0.0 4.35 1.85 3.05 3.1 1.8 4.4 -0.05 4.4 -1.85 4.4 -3.15 3.1 -4.4 1.85 -4.4 0.0 -4.4 -1.8 -3.15 -3.1 -1.85 -4.35 -0.05 -4.35" fill="#ffffff" fill-opacity="0.21176471" fill-rule="evenodd" stroke="none"/>
    </g>
  </defs>
</svg>
