<?xml version="1.0" encoding="UTF-8" standalone="no"?>
<svg xmlns:ffdec="https://www.free-decompiler.com/flash" xmlns:xlink="http://www.w3.org/1999/xlink" ffdec:objectType="frame" height="10.0px" width="71.15px" xmlns="http://www.w3.org/2000/svg">
  <g transform="matrix(1.0, 0.0, 0.0, 1.0, 2.0, 2.0)">
    <use ffdec:characterId="187" height="10.0" transform="matrix(1.0, 0.0, 0.0, 1.0, -2.0, -2.0)" width="71.15" xlink:href="#shape0"/>
  </g>
  <defs>
    <g id="shape0" transform="matrix(1.0, 0.0, 0.0, 1.0, 2.0, 2.0)">
      <path d="M69.15 -2.0 L69.15 8.0 0.0 8.0 Q-0.85 8.0 -1.4 7.45 -2.0 6.85 -2.0 6.0 L-2.0 0.0 Q-2.0 -0.85 -1.4 -1.4 -0.85 -2.0 0.0 -2.0 L69.15 -2.0" fill="#273630" fill-rule="evenodd" stroke="none"/>
      <path d="M69.15 2.35 L69.15 6.0 0.0 6.0 0.0 2.35 69.15 2.35" fill="#374d44" fill-rule="evenodd" stroke="none"/>
      <path d="M0.0 2.35 L0.0 0.0 69.15 0.0 69.15 2.35 0.0 2.35" fill="#4d6c60" fill-rule="evenodd" stroke="none"/>
    </g>
  </defs>
</svg>
