<?xml version="1.0" encoding="UTF-8" standalone="no"?>
<svg xmlns:ffdec="https://www.free-decompiler.com/flash" xmlns:xlink="http://www.w3.org/1999/xlink" ffdec:objectType="frame" height="100.6px" width="293.7px" xmlns="http://www.w3.org/2000/svg">
  <g transform="matrix(1.0, 0.0, 0.0, 1.0, 134.05, -112.55)">
    <use ffdec:characterId="1526" height="100.6" transform="matrix(1.0, 0.0, 0.0, 1.0, -134.05, 112.55)" width="293.7" xlink:href="#shape0"/>
  </g>
  <defs>
    <g id="shape0" transform="matrix(1.0, 0.0, 0.0, 1.0, 134.05, -112.55)">
      <path d="M21.9 114.75 Q26.45 115.15 31.25 116.85 34.15 117.8 37.15 119.35 L40.85 121.25 42.0 121.95 Q45.35 124.4 48.3 127.45 L49.15 128.7 50.35 131.15 Q52.7 134.5 54.9 138.3 L55.9 140.85 57.45 145.7 58.55 151.1 58.55 155.7 57.95 159.45 Q56.8 166.8 56.35 168.15 L55.45 170.2 Q53.85 173.15 50.3 177.4 L50.2 177.5 47.2 180.7 43.65 185.15 42.05 187.0 Q36.25 193.5 32.9 193.0 L32.4 192.85 32.2 192.6 31.5 191.8 31.3 191.6 Q29.6 189.65 28.85 188.4 L28.85 187.85 28.15 187.0 27.75 185.6 27.8 185.5 28.05 184.35 Q28.05 183.2 25.1 181.25 L21.05 178.8 20.75 178.2 Q20.05 176.7 18.5 175.0 16.8 173.1 15.6 172.95 L14.2 172.95 13.95 172.9 13.95 172.85 Q12.1 166.4 9.45 162.5 7.8 160.0 7.8 156.35 7.8 155.6 8.35 152.25 L8.9 148.1 8.35 140.95 7.8 133.8 Q7.8 133.25 9.0 131.3 L10.5 128.6 10.75 126.35 Q10.9 124.7 11.25 123.8 12.45 120.8 13.2 119.5 L12.95 118.95 Q12.95 116.55 15.75 116.05 17.55 115.7 18.55 117.0 L18.65 116.85 20.2 115.85 20.35 115.8 20.3 115.75 21.9 114.75" fill="#787968" fill-rule="evenodd" stroke="none"/>
      <path d="M21.9 114.75 L20.3 115.75 20.35 115.8 20.2 115.85 18.65 116.85 18.55 117.0 Q17.55 115.7 15.75 116.05 12.95 116.55 12.95 118.95 L13.2 119.5 Q12.45 120.8 11.25 123.8 10.9 124.7 10.75 126.35 L10.5 128.6 9.0 131.3 Q7.8 133.25 7.8 133.8 L8.35 140.95 8.9 148.1 8.35 152.25 Q7.8 155.6 7.8 156.35 7.8 160.0 9.45 162.5 12.1 166.4 13.95 172.85 L13.95 172.9 14.2 172.95 15.6 172.95 Q16.8 173.1 18.5 175.0 20.05 176.7 20.75 178.2 L21.05 178.8 25.1 181.25 Q28.05 183.2 28.05 184.35 L27.8 185.5 27.75 185.6 28.15 187.0 28.85 187.85 28.85 188.4 Q29.6 189.65 31.3 191.6 L31.5 191.8 32.2 192.6 32.4 192.85 32.9 193.45 34.0 194.65 Q33.85 195.45 33.45 195.65 L32.5 195.7 Q30.5 195.65 28.9 193.45 27.7 191.8 26.75 188.95 L26.05 188.75 26.1 188.0 Q26.1 186.25 25.5 184.9 L24.2 184.3 24.2 184.35 23.95 185.4 23.1 185.55 Q21.4 184.7 19.55 182.75 L18.95 182.1 16.2 181.1 10.45 179.35 Q8.75 178.75 8.4 177.5 8.1 176.55 8.1 172.55 L8.1 172.4 Q8.1 171.05 8.4 169.25 L8.8 167.5 8.1 165.15 Q7.9 164.3 6.5 163.6 5.15 162.9 5.0 162.3 4.7 161.3 4.75 159.4 L4.85 156.65 5.45 152.3 6.0 147.95 5.45 141.05 4.85 134.1 Q4.85 132.95 5.4 131.75 L6.9 128.45 7.65 125.3 8.15 122.4 Q8.45 119.25 10.6 116.4 13.25 112.85 17.3 112.55 L18.5 113.55 19.75 113.55 20.8 113.65 Q21.65 113.85 22.05 114.45 L21.9 114.75 M12.2 174.6 L12.3 174.4 11.6 173.25 11.6 173.6 11.55 175.2 Q11.85 175.75 13.4 176.25 L13.15 175.85 Q12.2 175.2 12.2 174.6" fill="#4e4e42" fill-rule="evenodd" stroke="none"/>
      <path d="M26.05 188.75 Q25.6 192.65 20.15 192.65 15.75 192.65 13.9 189.3 12.65 185.55 12.05 184.8 5.35 184.5 3.1 182.5 1.95 181.45 1.95 179.4 1.95 178.0 2.65 176.95 1.05 176.2 -0.3 175.15 -2.45 173.55 -2.45 172.2 -2.45 171.85 -0.6 170.4 L5.55 172.0 5.75 172.1 7.05 172.75 8.1 172.55 Q8.1 176.55 8.4 177.5 8.75 178.75 10.45 179.35 L16.2 181.1 18.95 182.1 19.55 182.75 Q21.4 184.7 23.1 185.55 L23.95 185.4 24.2 184.35 24.2 184.3 25.5 184.9 Q26.1 186.25 26.1 188.0 L26.05 188.75 M12.2 174.6 Q12.2 175.2 13.15 175.85 L13.4 176.25 Q11.85 175.75 11.55 175.2 L11.6 173.6 11.6 173.25 12.3 174.4 12.2 174.6" fill="#958e46" fill-rule="evenodd" stroke="none"/>
      <path d="M61.35 118.85 Q64.6 120.05 66.45 121.15 L63.9 120.75 Q61.65 119.5 56.9 118.3 L56.4 118.15 61.35 118.85 M49.85 118.1 L50.85 119.6 50.75 119.55 Q50.1 118.85 48.25 118.1 L49.85 118.1 M39.8 136.55 L40.55 136.25 41.65 136.15 43.1 136.1 43.25 136.15 43.35 136.15 45.7 136.8 46.1 136.95 47.0 137.3 47.05 137.3 49.35 138.3 50.45 139.0 50.6 139.2 49.5 139.35 47.8 138.8 47.0 138.55 46.8 138.5 46.75 138.5 46.25 138.3 43.85 137.65 43.25 137.55 41.0 137.8 39.1 138.3 38.95 138.4 38.95 138.3 Q38.75 137.3 39.45 136.8 L39.45 136.75 39.5 136.75 Q39.6 136.6 39.8 136.55 M36.75 126.65 L34.0 126.15 36.5 126.0 37.05 125.95 39.85 125.9 40.3 125.95 44.8 126.95 45.1 127.85 42.6 127.45 40.7 127.2 39.0 127.05 36.75 126.65 M52.3 145.15 L52.25 145.3 51.45 145.25 51.3 145.25 50.9 145.1 49.65 144.8 49.55 144.75 48.75 144.6 46.85 144.1 45.15 143.7 41.4 143.55 41.35 143.25 Q42.05 142.7 43.85 142.7 L45.05 142.85 46.75 142.95 49.0 143.25 49.85 143.65 50.25 143.8 51.6 144.75 52.05 145.05 52.3 145.15 M51.6 158.55 L49.6 158.4 46.65 158.05 44.45 157.7 42.75 157.45 42.55 156.75 44.5 156.75 46.65 156.85 47.95 156.9 49.65 157.1 49.85 157.15 51.65 157.45 52.55 157.65 52.65 158.5 52.2 158.5 51.6 158.55 M38.55 173.75 L38.6 173.8 38.55 173.8 38.3 173.6 38.55 173.75 M34.8 186.35 L35.95 186.45 Q36.45 186.5 38.1 187.6 39.75 188.7 40.35 188.8 40.75 188.9 44.2 187.25 L45.05 186.8 Q46.65 186.05 47.4 185.75 L47.9 185.5 48.6 185.95 52.05 188.05 Q54.2 189.25 56.0 189.55 L62.95 189.25 66.3 188.65 68.9 188.75 74.45 191.0 80.8 193.35 81.9 193.45 83.0 193.45 84.8 191.5 Q87.5 188.05 87.65 184.3 L84.1 183.6 Q80.55 183.05 79.75 181.9 L91.1 182.6 102.35 182.95 102.85 183.05 Q100.45 185.55 92.5 184.9 L89.45 184.55 Q90.05 186.3 89.7 188.4 L88.95 191.4 Q91.9 189.9 93.25 190.1 99.1 192.4 100.9 192.65 L108.05 192.15 114.35 191.5 Q114.75 191.6 116.5 192.85 L117.35 193.45 118.4 194.15 122.5 193.55 123.05 193.45 126.5 192.85 126.8 193.2 125.4 194.6 125.05 195.15 125.0 195.15 125.0 195.2 124.1 195.25 120.45 195.95 120.15 195.95 119.7 196.05 118.05 195.85 Q117.25 195.75 115.75 194.9 114.25 194.05 113.45 193.95 L107.35 193.45 104.1 193.2 92.55 192.1 88.95 193.45 87.9 193.85 85.65 194.6 Q82.6 195.5 80.45 195.15 L74.45 193.55 74.15 193.45 73.85 193.35 68.45 192.0 66.3 191.7 66.2 192.1 65.65 193.45 Q65.05 194.3 63.85 195.0 L62.35 195.6 62.3 195.6 62.2 195.6 60.35 195.1 60.8 193.45 Q61.55 191.1 62.85 191.3 63.85 191.45 63.8 192.0 L63.85 192.95 64.6 191.45 65.45 191.55 47.15 188.9 Q46.55 188.8 44.65 189.6 L43.85 189.95 Q41.2 191.2 39.85 191.0 38.8 190.85 36.8 189.15 L34.55 186.85 34.7 186.6 34.8 186.35 M135.25 193.4 L135.0 193.45 134.6 193.45 Q133.9 193.35 132.05 190.55 L132.35 190.35 132.6 190.15 133.65 189.15 135.35 191.5 137.45 190.7 137.2 191.05 135.9 192.65 135.85 192.75 135.5 193.1 135.25 193.4 M145.35 176.7 L143.35 177.3 142.95 177.4 139.05 177.75 138.15 177.85 138.1 177.85 138.2 177.7 138.35 177.4 138.4 177.2 139.0 175.4 140.05 176.5 141.45 177.0 Q142.3 177.15 143.35 176.15 L144.25 175.35 146.55 172.4 145.35 176.7 M146.8 171.2 L143.55 170.2 143.35 170.15 142.15 169.75 142.1 169.75 142.45 168.85 142.5 168.85 143.4 169.2 144.25 169.4 146.6 169.15 147.25 168.85 147.2 169.0 146.8 171.2 M147.9 157.35 L143.45 157.2 142.0 157.05 140.85 158.75 140.9 158.3 140.9 158.15 141.0 157.0 141.0 156.75 141.05 156.65 141.05 156.45 143.45 156.4 147.7 156.05 147.9 157.35 M147.35 153.65 Q145.3 152.5 143.45 152.1 L142.25 151.85 141.2 152.2 141.2 151.25 141.25 151.1 141.0 150.35 141.8 150.5 143.3 150.75 145.15 151.1 147.05 151.8 147.35 153.65 M142.4 142.5 L141.75 142.35 141.7 142.35 Q140.7 142.3 139.45 142.8 L137.65 143.25 Q137.05 143.25 135.45 142.25 133.9 141.25 133.35 141.25 132.55 141.15 131.25 142.7 L131.05 142.3 130.3 141.1 130.65 140.85 Q132.1 139.85 132.8 139.9 L135.65 140.4 137.0 140.7 139.65 141.05 141.45 141.25 141.6 141.25 142.4 142.5 M137.6 136.25 L135.25 135.05 Q133.15 134.0 132.3 133.85 L127.0 133.5 125.8 133.95 124.7 134.3 123.6 133.4 123.6 133.3 123.4 133.2 123.35 133.1 123.2 133.05 123.05 132.9 Q123.15 132.1 126.45 132.2 130.7 132.85 134.9 134.05 L135.5 134.25 136.55 135.2 137.6 136.25 M108.3 125.95 L108.95 128.25 106.85 127.7 106.7 127.45 105.4 126.15 107.6 126.05 108.3 125.95 M84.25 121.75 L84.55 121.95 85.8 123.1 86.6 124.0 84.3 123.75 83.5 122.9 82.4 121.95 81.5 121.45 81.35 121.4 84.25 121.7 84.25 121.75 M40.55 121.65 L39.45 121.65 38.4 121.45 36.35 120.85 34.7 120.4 32.7 120.0 30.2 120.1 28.2 120.45 28.1 120.2 Q28.2 120.05 28.65 120.0 L31.4 119.4 35.4 119.4 Q36.1 119.45 37.45 120.0 L39.45 120.8 40.55 121.25 40.55 121.65 M51.95 122.55 L52.15 122.6 52.7 122.7 53.8 122.8 53.9 122.8 54.4 122.9 54.8 123.15 55.4 123.35 55.35 123.4 55.2 123.5 55.15 123.5 55.15 123.55 55.0 123.6 54.95 123.65 54.85 123.65 53.15 124.1 52.75 124.15 52.3 124.2 47.9 124.25 49.0 122.5 Q49.3 122.35 51.1 122.5 L51.95 122.55 M55.9 128.25 L58.7 128.7 Q59.45 128.85 60.05 129.15 59.45 130.05 56.7 129.8 L55.55 129.65 53.95 129.55 53.8 129.5 51.3 129.95 50.8 130.1 50.6 130.3 Q50.45 129.25 50.85 128.7 51.05 128.2 51.75 128.05 L51.75 128.0 53.3 128.0 55.5 128.2 55.9 128.25 M63.15 140.95 L63.2 140.85 Q63.25 140.3 63.6 140.2 L63.95 139.95 64.5 140.2 Q64.85 140.2 65.05 138.3 L64.85 135.85 65.5 138.3 65.4 140.35 65.2 140.85 64.85 141.65 65.75 145.25 69.35 145.4 75.35 145.65 75.9 145.7 77.85 145.85 78.2 145.85 79.15 145.9 79.2 145.9 81.2 146.05 82.55 146.2 88.4 147.25 89.55 147.5 90.75 147.7 91.75 147.85 91.75 147.75 Q91.3 145.45 90.55 143.85 L90.65 143.85 Q91.75 144.1 92.3 144.55 L92.45 145.0 93.05 145.4 93.8 148.4 93.85 148.4 95.25 148.4 96.15 148.4 98.4 148.6 98.8 148.6 112.6 150.5 113.15 150.55 117.2 151.05 115.55 145.4 Q114.4 142.7 114.0 140.85 L113.9 140.4 113.7 139.75 113.55 139.15 113.7 139.1 114.6 138.3 115.0 137.85 115.3 138.3 115.6 139.55 115.5 140.85 115.35 141.4 115.3 141.85 115.2 142.0 115.1 143.15 115.05 143.25 Q115.25 143.85 115.85 144.45 L116.55 145.25 118.55 149.65 122.8 150.25 129.65 151.1 133.0 151.6 133.0 152.25 Q128.65 152.75 125.3 152.3 L124.8 152.2 119.6 151.4 119.05 151.35 119.0 152.95 118.85 155.1 118.7 155.0 Q118.2 154.85 117.75 155.55 L117.5 155.4 117.25 155.35 117.25 153.85 117.25 152.85 117.3 152.6 117.25 151.95 112.6 151.7 113.15 152.1 114.0 152.5 104.65 152.55 102.45 152.5 101.7 152.5 101.15 152.55 98.65 152.6 97.1 152.6 95.7 152.7 93.9 152.9 93.7 152.9 93.85 154.45 Q93.15 154.8 92.95 155.55 92.8 156.4 93.2 157.95 L92.4 158.15 92.1 156.85 91.4 154.6 91.4 154.55 91.35 154.4 90.95 153.25 90.9 153.1 91.15 152.65 91.4 152.4 91.7 152.2 92.15 151.1 92.0 148.9 90.9 148.75 89.95 148.5 88.5 148.3 82.65 147.25 81.45 147.15 76.25 146.75 75.6 146.7 69.25 146.6 66.25 146.5 66.85 147.85 67.15 148.3 69.5 148.25 Q72.75 148.0 75.9 148.15 L76.75 148.2 79.45 148.4 82.05 148.8 86.15 149.5 86.35 149.55 90.85 150.8 91.35 150.95 91.5 151.05 91.7 151.1 91.8 151.2 91.9 151.3 91.8 151.35 91.4 151.45 91.0 151.65 89.85 151.8 87.1 151.1 86.95 151.1 86.9 151.1 85.2 150.7 83.9 150.45 83.25 150.25 83.3 150.3 79.7 149.5 77.15 149.45 76.15 149.5 73.35 149.7 68.1 150.25 68.0 150.25 68.3 151.1 68.3 151.15 68.25 151.1 67.0 150.95 66.5 149.95 66.2 149.95 66.3 150.15 62.8 149.65 62.3 149.65 61.2 149.45 Q58.45 149.15 57.35 149.45 56.3 148.95 56.3 147.8 L60.9 148.15 62.7 148.25 65.75 148.35 65.0 147.0 64.7 146.5 64.2 146.5 60.45 146.4 60.3 146.35 56.3 145.75 56.15 145.7 60.0 145.25 64.0 145.25 Q63.5 144.2 63.3 143.05 63.0 141.65 63.15 140.95 M86.45 141.45 L82.05 141.4 80.85 141.25 79.9 141.15 77.4 140.85 77.15 140.8 74.35 140.55 68.25 140.85 67.5 141.15 67.75 140.85 Q68.4 140.3 70.65 139.85 L74.15 139.55 75.7 139.55 85.9 140.6 86.25 140.6 86.55 140.8 86.6 140.85 87.2 141.35 86.45 141.45 M63.4 131.75 L64.2 133.9 64.0 133.9 Q63.2 134.0 62.85 135.0 L61.05 131.15 60.25 128.7 59.55 127.45 58.4 126.1 58.35 125.95 56.0 123.35 55.5 122.75 55.4 122.7 54.9 121.95 54.85 121.95 54.5 121.5 55.4 121.95 55.6 122.05 56.55 122.7 Q58.0 123.7 58.95 125.45 L58.9 125.45 59.2 126.0 59.5 126.95 60.75 127.45 61.15 127.75 61.7 128.3 62.1 128.7 Q63.0 129.9 63.2 131.15 L63.25 131.35 63.4 131.75 M64.9 124.75 L69.75 125.2 81.0 126.3 Q81.5 126.4 81.9 127.05 L81.6 127.1 80.2 127.1 70.1 126.05 63.5 125.3 63.3 124.8 63.75 124.6 64.9 124.75 M38.55 182.2 L40.6 182.9 44.85 183.05 45.65 182.9 Q47.5 182.5 49.35 181.5 L49.8 181.4 Q50.05 181.55 49.9 182.55 49.65 184.3 46.6 184.8 L45.35 185.0 43.45 185.05 39.55 184.0 Q37.05 183.05 37.0 181.7 37.5 181.6 38.55 182.2 M72.6 161.65 L76.45 161.85 82.35 161.65 87.7 161.45 91.85 161.65 92.95 162.05 92.8 160.35 93.0 159.9 93.5 160.75 93.95 161.6 94.4 161.65 94.7 161.45 94.85 162.8 94.9 162.8 95.05 162.85 97.2 163.65 101.6 165.1 102.45 165.3 116.25 166.5 115.95 163.75 115.7 162.55 115.2 161.9 114.9 161.05 115.15 161.2 115.4 161.15 115.85 162.05 Q116.65 163.4 117.9 163.75 L118.4 165.5 118.35 166.65 Q124.35 166.9 129.75 166.75 L130.7 167.25 Q126.4 168.7 118.35 168.35 L118.25 170.2 Q117.9 174.05 117.2 175.9 L117.0 176.35 116.3 177.35 116.25 177.4 114.45 178.25 Q113.35 178.65 112.75 179.55 113.05 178.8 114.9 177.4 L115.2 177.15 Q116.8 175.75 116.8 172.95 L116.65 170.2 116.45 168.3 102.55 166.8 100.25 166.25 98.9 165.8 97.4 165.2 95.4 164.45 95.0 164.3 95.15 165.4 94.95 170.2 94.6 172.2 98.85 173.65 105.7 175.9 109.9 175.6 113.75 175.3 Q114.2 175.5 114.4 176.35 L110.5 176.8 105.85 176.95 98.95 175.05 94.25 173.6 Q93.65 175.65 92.65 176.5 92.0 177.2 90.7 177.35 L90.15 177.4 89.05 177.7 89.35 177.4 Q90.0 176.65 91.55 175.65 92.3 174.8 92.7 173.3 L86.65 173.95 Q79.85 174.5 76.45 174.1 L76.4 174.1 71.95 173.4 Q68.85 172.65 68.1 171.1 L68.0 170.8 69.05 170.7 72.75 171.65 76.4 172.6 76.45 172.6 85.85 172.25 92.8 171.6 93.05 171.65 93.15 170.7 93.15 170.65 93.2 170.2 93.25 168.9 93.1 163.55 89.65 162.4 87.7 162.35 78.6 162.25 76.45 162.2 72.35 162.1 69.5 162.05 68.4 162.0 Q68.25 167.85 67.85 170.2 L67.5 171.25 Q67.3 171.95 66.7 172.65 L66.2 173.2 64.9 174.7 63.85 176.0 Q63.5 175.3 64.05 174.25 64.3 173.5 65.0 172.6 L66.45 170.2 66.7 169.5 66.85 168.55 66.65 166.8 66.7 166.75 66.55 166.25 66.2 164.5 65.7 161.85 65.5 161.85 65.3 161.85 65.15 161.8 62.75 161.45 61.3 161.2 57.85 160.5 57.65 160.5 57.7 159.85 57.75 159.85 61.85 159.65 62.7 159.65 64.3 159.65 64.7 159.7 64.8 159.7 64.85 159.7 65.5 159.8 65.6 159.45 66.15 156.45 66.65 156.4 66.85 156.95 67.45 157.3 67.5 157.4 67.5 157.3 67.55 157.3 Q68.2 157.3 68.45 156.85 L68.45 158.8 68.45 159.45 68.4 160.55 68.75 160.65 68.9 160.65 72.6 161.65 M68.45 154.2 L68.45 155.1 68.35 154.55 68.45 154.2 M62.85 170.5 L64.15 170.6 Q64.65 170.7 64.8 171.2 64.2 171.75 63.65 171.8 L62.9 171.75 61.85 171.7 59.5 171.3 Q58.75 171.0 58.2 170.2 L57.6 169.25 Q56.55 168.8 58.25 169.0 59.0 169.15 60.3 169.9 L61.05 170.2 62.85 170.5 M41.2 171.05 Q42.45 170.55 45.45 171.7 L46.65 171.95 Q48.1 171.95 49.05 170.45 49.8 170.7 49.95 170.8 50.4 171.1 50.4 171.95 50.45 173.4 48.55 173.7 L46.65 173.8 46.5 173.75 Q45.15 173.6 43.3 172.55 41.9 171.7 41.2 171.05 M96.3 197.35 L97.55 195.85 99.3 193.65 99.85 194.2 Q100.15 194.65 100.0 195.65 L99.65 196.9 96.3 197.35 M127.0 140.8 L126.95 140.8 126.2 140.75 Q125.65 140.7 124.0 139.85 122.15 139.05 119.55 139.4 L119.5 139.15 119.4 139.05 119.5 139.0 124.45 138.6 124.8 138.6 125.5 138.7 127.0 140.8 M99.9 126.15 L95.15 123.85 Q100.25 124.7 105.7 127.4 L105.2 127.3 104.55 127.15 99.9 126.15 M82.95 127.45 Q81.5 126.5 81.25 125.65 83.15 126.4 84.8 127.45 L84.9 127.5 86.0 128.4 83.75 128.05 83.35 127.8 82.95 127.45 M85.85 132.5 L86.55 132.55 87.75 132.65 89.6 137.65 89.15 138.3 88.95 138.5 88.6 138.9 88.2 139.35 88.45 139.85 Q87.8 139.95 87.7 140.35 L87.7 140.45 86.85 139.95 Q86.15 139.45 86.1 138.9 L86.5 138.3 87.4 137.25 87.45 137.1 85.85 132.5 M109.0 130.3 L109.75 131.15 111.1 132.55 111.0 132.5 108.4 132.35 107.45 131.15 106.85 130.1 109.0 130.3 M117.0 161.25 L117.05 161.55 116.95 161.3 117.0 161.25 M96.0 151.1 L99.65 150.9 Q103.25 150.7 105.3 150.9 103.5 150.25 99.45 149.85 L95.25 149.55 93.9 149.75 94.0 151.1 93.95 151.3 96.0 151.1 M105.75 184.05 Q105.85 186.1 105.6 187.7 105.25 189.75 103.2 190.5 L100.75 190.85 Q100.9 189.8 102.9 188.55 104.6 187.4 104.3 183.85 L105.75 184.05 M135.75 156.8 L135.75 156.65 138.7 156.6 138.55 158.75 138.55 159.0 138.6 159.3 138.35 159.3 135.3 158.55 135.75 156.8 M138.25 149.9 L138.75 151.1 138.95 152.6 139.0 152.85 138.45 152.8 135.9 151.75 135.75 151.1 134.9 149.25 135.3 149.4 138.25 149.9 M126.05 154.5 L127.3 154.7 132.15 155.75 132.3 156.2 127.35 155.2 126.15 154.9 124.25 154.4 123.2 154.0 123.35 154.0 124.45 154.25 126.05 154.5 M133.95 165.7 L136.65 165.85 138.2 165.65 Q138.3 165.7 140.2 167.3 L140.15 168.55 139.65 169.05 134.7 167.7 133.6 167.2 133.75 166.75 133.9 165.7 133.95 165.7 M136.15 177.4 L135.65 177.85 134.15 179.3 130.7 179.7 130.75 179.5 130.95 179.0 131.25 178.25 131.95 178.3 Q134.05 178.45 135.9 177.4 L136.35 177.15 136.15 177.4 M128.45 184.2 L128.45 183.2 128.3 182.1 128.45 182.1 129.45 181.75 131.65 185.8 133.0 188.05 132.4 188.8 131.55 189.65 129.85 186.9 128.45 184.2" fill="#706e4e" fill-rule="evenodd" stroke="none"/>
      <path d="M56.4 118.15 L56.9 118.3 Q61.65 119.5 63.9 120.75 L66.45 121.15 Q64.6 120.05 61.35 118.85 L81.5 121.45 82.4 121.95 83.5 122.9 84.3 123.75 86.6 124.0 85.8 123.1 84.55 121.95 84.25 121.75 85.9 121.95 89.1 122.3 Q92.7 122.55 97.35 124.0 L98.4 124.4 104.65 126.15 105.4 126.15 106.7 127.45 106.85 127.7 108.95 128.25 108.3 125.95 110.5 125.9 Q112.5 126.1 117.2 127.25 L117.9 127.45 122.05 128.7 122.45 128.8 Q123.45 130.6 125.15 130.75 L125.75 130.75 127.5 130.4 129.7 130.0 Q130.5 130.05 131.8 131.15 L133.65 132.65 134.65 133.5 135.5 134.25 134.9 134.05 Q130.7 132.85 126.45 132.2 123.15 132.1 123.05 132.9 L123.2 133.05 123.35 133.1 123.4 133.2 123.6 133.3 123.6 133.4 124.7 134.3 125.8 133.95 127.0 133.5 132.3 133.85 Q133.15 134.0 135.25 135.05 L137.6 136.25 139.55 138.3 140.5 139.6 141.4 141.0 141.6 141.25 141.45 141.25 139.65 141.05 137.0 140.7 135.65 140.4 132.8 139.9 Q132.1 139.85 130.65 140.85 L130.3 141.1 131.05 142.3 131.25 142.7 Q132.55 141.15 133.35 141.25 133.9 141.25 135.45 142.25 137.05 143.25 137.65 143.25 L139.45 142.8 Q140.7 142.3 141.7 142.35 L141.75 142.35 142.4 142.5 Q145.05 146.75 146.9 151.1 L147.05 151.8 145.15 151.1 143.3 150.75 141.8 150.5 141.0 150.35 141.25 151.1 141.2 151.25 141.2 152.2 142.25 151.85 143.45 152.1 Q145.3 152.5 147.35 153.65 L147.7 156.05 143.45 156.4 141.05 156.45 141.05 156.65 141.0 156.75 141.0 157.0 140.9 158.15 140.9 158.3 140.85 158.75 142.0 157.05 143.45 157.2 147.9 157.35 148.05 159.45 148.1 160.8 Q147.9 165.0 147.25 168.85 L146.6 169.15 144.25 169.4 143.4 169.2 142.5 168.85 142.45 168.85 142.1 169.75 142.15 169.75 143.35 170.15 143.55 170.2 146.8 171.2 146.55 172.4 144.25 175.35 143.35 176.15 Q142.3 177.15 141.45 177.0 L140.05 176.5 139.0 175.4 138.4 177.2 138.35 177.4 138.2 177.7 138.1 177.85 138.15 177.85 139.05 177.75 142.95 177.4 143.35 177.3 145.35 176.7 145.15 177.4 143.3 180.7 142.5 182.3 141.55 184.05 Q139.4 188.2 137.2 191.05 L137.45 190.7 135.35 191.5 133.65 189.15 132.6 190.15 132.35 190.35 132.05 190.55 Q133.9 193.35 134.6 193.45 L135.0 193.45 135.25 193.4 135.2 193.45 Q133.15 195.75 132.1 195.6 L130.05 194.3 128.8 193.45 128.45 193.25 127.85 193.05 126.8 193.2 126.5 192.85 123.05 193.45 122.5 193.55 118.4 194.15 117.35 193.45 116.5 192.85 Q114.75 191.6 114.35 191.5 L108.05 192.15 100.9 192.65 Q99.1 192.4 93.25 190.1 91.9 189.9 88.95 191.4 L89.7 188.4 Q90.05 186.3 89.45 184.55 L92.5 184.9 Q100.45 185.55 102.85 183.05 L102.35 182.95 91.1 182.6 79.75 181.9 Q80.55 183.05 84.1 183.6 L87.65 184.3 Q87.5 188.05 84.8 191.5 L83.0 193.45 81.9 193.45 80.8 193.35 74.45 191.0 68.9 188.75 66.3 188.65 62.95 189.25 56.0 189.55 Q54.2 189.25 52.05 188.05 L48.6 185.95 47.9 185.5 47.4 185.75 Q46.65 186.05 45.05 186.8 L44.2 187.25 Q40.75 188.9 40.35 188.8 39.75 188.7 38.1 187.6 36.45 186.5 35.95 186.45 L34.8 186.35 35.6 183.95 36.35 180.7 37.1 177.4 37.05 177.3 36.7 175.75 37.25 175.45 Q38.0 174.9 38.55 173.8 L38.6 173.8 38.55 173.75 Q39.3 172.35 39.7 170.2 L40.0 165.7 Q39.95 163.25 40.15 161.55 L40.35 161.4 40.55 165.45 41.7 165.7 42.35 165.65 Q42.9 163.5 43.95 162.25 L44.35 159.45 44.45 157.7 46.65 158.05 49.6 158.4 51.6 158.55 51.7 164.35 Q51.7 165.5 52.65 166.0 L52.9 166.0 52.3 162.95 Q52.35 162.25 52.95 160.2 L53.1 159.45 Q53.5 156.7 53.45 151.95 L53.0 151.1 52.9 151.05 Q52.3 150.55 52.2 150.0 52.05 149.4 52.2 145.85 L52.25 145.3 52.3 145.15 52.2 141.75 52.05 140.85 51.35 138.3 49.9 135.6 47.6 131.15 47.55 130.7 47.15 130.05 46.4 128.7 45.4 127.45 44.8 126.95 Q42.1 124.6 39.5 123.85 L37.75 123.55 Q37.2 123.5 36.95 123.75 36.65 123.8 35.85 124.4 L36.5 126.0 34.0 126.15 36.75 126.65 36.95 127.1 37.2 127.45 37.9 128.7 38.75 131.15 39.1 131.75 41.65 136.15 40.55 136.25 39.8 136.55 37.95 136.4 Q37.9 137.4 38.6 138.3 L38.75 138.6 41.25 151.1 41.25 152.6 41.2 152.6 41.2 151.1 40.6 148.95 40.35 146.75 38.85 140.85 38.35 139.8 37.75 138.3 Q36.75 136.45 35.6 133.3 L34.75 131.15 34.1 128.7 33.45 127.45 Q32.15 125.9 30.55 125.05 L29.85 124.8 Q30.15 124.25 29.85 123.75 L29.1 121.95 27.4 119.85 26.15 118.5 Q25.15 117.45 24.15 116.85 L23.75 116.6 22.2 115.8 Q23.2 114.7 24.85 114.75 25.35 114.8 27.75 115.75 L31.1 116.7 33.4 116.4 35.2 116.5 35.25 116.5 37.1 116.2 40.25 116.85 41.5 117.1 46.4 118.1 48.25 118.1 Q50.1 118.85 50.75 119.55 L50.85 119.6 49.85 118.1 50.5 118.1 54.55 118.0 56.4 118.15 M40.55 121.65 L40.55 121.25 39.45 120.8 37.45 120.0 Q36.1 119.45 35.4 119.4 L31.4 119.4 28.65 120.0 Q28.2 120.05 28.1 120.2 L28.2 120.45 30.2 120.1 32.7 120.0 34.7 120.4 36.35 120.85 38.4 121.45 39.45 121.65 40.55 121.65 M51.95 122.55 L51.1 122.5 Q49.3 122.35 49.0 122.5 L47.9 124.25 52.3 124.2 52.75 124.15 55.4 127.45 55.9 128.25 55.5 128.2 53.3 128.0 52.9 127.45 Q51.4 125.95 49.85 125.85 L48.75 125.9 48.4 126.0 48.35 126.3 48.65 126.85 49.1 127.45 49.75 128.7 50.55 131.15 54.2 138.3 54.9 140.85 55.15 142.25 56.1 151.1 56.0 151.95 55.5 159.45 Q55.4 162.25 55.75 162.3 L56.4 162.4 Q57.0 160.65 57.7 159.55 L57.75 159.85 57.7 159.85 57.65 160.5 57.85 160.5 57.85 160.6 Q57.5 161.45 57.45 162.5 57.3 164.55 59.0 165.85 59.75 165.1 60.95 162.05 L61.3 161.2 62.75 161.45 62.85 170.5 61.05 170.2 60.3 169.9 Q59.0 169.15 58.25 169.0 56.55 168.8 57.6 169.25 L58.2 170.2 Q58.75 171.0 59.5 171.3 L61.85 171.7 62.9 171.75 62.9 172.7 63.5 173.8 64.05 174.25 Q63.5 175.3 63.85 176.0 L64.9 174.7 64.95 174.7 66.3 174.75 66.4 174.7 66.55 174.05 66.7 172.65 Q67.3 171.95 67.5 171.25 L67.85 170.2 Q68.25 167.85 68.4 162.0 L69.5 162.05 Q70.05 162.6 71.0 162.7 71.8 162.8 72.35 162.1 L76.45 162.2 78.6 162.25 87.7 162.35 88.2 166.7 Q88.65 169.0 89.55 170.2 90.25 171.2 91.3 171.3 92.4 171.45 93.15 170.7 L93.05 171.65 92.8 171.6 85.85 172.25 76.45 172.6 76.4 172.6 72.75 171.65 69.05 170.7 68.0 170.8 68.1 171.1 Q68.85 172.65 71.95 173.4 L76.4 174.1 76.45 174.1 Q79.85 174.5 86.65 173.95 L92.7 173.3 Q92.3 174.8 91.55 175.65 90.0 176.65 89.35 177.4 L89.05 177.7 90.15 177.4 90.7 177.35 Q92.0 177.2 92.65 176.5 93.65 175.65 94.25 173.6 L98.95 175.05 105.85 176.95 110.5 176.8 114.4 176.35 Q114.2 175.5 113.75 175.3 L109.9 175.6 105.7 175.9 98.85 173.65 94.6 172.2 94.95 170.2 95.15 165.4 95.0 164.3 95.4 164.45 97.4 165.2 Q97.85 166.1 99.3 166.25 L100.25 166.25 102.55 166.8 116.45 168.3 116.65 170.2 116.8 172.95 Q116.8 175.75 115.2 177.15 L114.9 177.4 Q113.05 178.8 112.75 179.55 113.35 178.65 114.45 178.25 L116.25 177.4 116.3 177.35 117.0 176.35 117.2 175.9 Q117.9 174.05 118.25 170.2 L118.35 168.35 Q126.4 168.7 130.7 167.25 L129.75 166.75 Q124.35 166.9 118.35 166.65 L118.4 165.5 117.9 163.75 118.1 163.8 118.1 163.35 117.05 161.55 117.0 161.25 117.2 161.1 118.65 161.2 120.35 160.15 120.4 159.45 Q120.7 156.45 121.15 154.35 122.55 155.0 123.4 154.9 L124.25 154.4 126.15 154.9 126.95 159.45 127.2 162.0 Q127.6 165.75 129.45 166.0 L130.8 165.95 131.25 165.8 131.4 165.45 131.05 161.85 Q130.75 160.15 131.2 159.45 L131.45 159.1 132.45 158.3 132.5 157.4 132.7 158.05 132.75 158.1 132.9 157.75 133.0 157.65 133.0 152.25 133.0 151.6 133.0 151.1 132.9 150.9 Q130.0 145.25 127.3 141.25 L127.15 141.0 127.05 140.85 127.05 140.8 127.0 140.8 125.5 138.7 124.8 138.6 124.45 138.6 124.05 138.3 Q123.0 137.65 122.3 137.6 120.35 137.4 119.8 138.3 L119.75 138.45 119.5 139.0 119.4 139.05 119.5 139.15 118.95 140.85 118.8 141.2 119.4 144.95 118.1 144.9 Q117.15 145.0 117.05 146.05 116.35 143.7 115.3 141.85 L115.35 141.4 115.5 140.85 115.6 139.55 115.3 138.3 115.0 137.85 114.6 138.3 113.7 139.1 113.55 139.15 113.7 139.75 113.25 139.3 112.7 139.65 112.65 139.65 112.4 139.6 Q108.95 139.25 106.55 138.3 L106.05 138.1 105.9 138.05 106.1 138.3 107.6 140.85 109.35 143.7 Q112.3 148.05 113.15 150.55 L112.6 150.5 112.4 150.3 Q110.5 147.8 107.85 142.05 L107.2 140.85 Q105.8 138.5 104.15 138.35 L103.8 138.3 103.05 138.3 102.9 138.35 102.55 138.45 Q102.35 138.9 102.5 139.95 L102.85 140.85 103.35 142.2 104.25 145.1 103.65 143.95 102.4 140.85 101.3 139.0 100.55 138.3 Q99.85 137.9 99.0 137.85 98.2 137.7 97.75 138.05 97.5 138.15 97.35 138.3 L96.55 139.25 95.9 138.3 89.6 132.95 88.7 132.8 87.75 132.65 86.55 132.55 85.85 132.5 84.5 132.35 83.5 132.2 83.2 132.2 84.95 134.3 87.4 137.25 86.5 138.3 86.1 138.9 Q86.15 139.45 86.85 139.95 L87.7 140.45 87.75 140.85 87.85 141.1 Q88.6 142.8 89.5 143.55 L89.9 143.7 90.75 147.7 89.55 147.5 Q88.0 143.7 86.45 141.45 L87.2 141.35 86.6 140.85 86.55 140.8 86.25 140.6 85.9 140.6 Q84.75 139.0 83.6 138.3 82.65 137.8 81.85 137.7 81.2 137.65 78.8 134.95 L78.3 134.3 Q77.05 135.6 76.3 135.55 L75.4 135.25 Q74.35 134.7 73.75 133.15 L72.75 133.65 72.2 133.75 72.0 133.8 72.4 135.15 72.05 134.7 71.45 133.75 71.1 133.75 69.9 133.65 69.25 133.45 68.8 132.8 68.0 131.15 Q67.8 129.6 68.35 128.7 L68.65 128.15 68.05 127.45 Q67.05 126.7 65.95 126.65 64.2 126.5 64.15 127.45 L64.2 128.35 64.35 128.7 64.45 131.15 65.15 134.05 63.4 131.75 63.25 131.35 63.2 131.15 Q63.0 129.9 62.1 128.7 L61.7 128.3 61.15 127.75 60.9 127.45 60.7 127.2 58.95 125.45 Q58.0 123.7 56.55 122.7 L55.6 122.05 55.4 121.95 54.5 121.5 54.85 121.95 54.9 121.95 55.4 122.7 Q54.35 122.05 53.55 122.0 L52.3 121.95 52.0 122.05 Q51.9 122.2 51.95 122.55 M56.7 129.8 L57.4 131.15 61.95 137.7 62.1 138.3 62.45 139.4 62.8 139.55 62.85 139.7 63.15 140.95 Q63.0 141.65 63.3 143.05 63.5 144.2 64.0 145.25 L60.0 145.25 58.7 140.85 57.95 138.3 55.3 132.55 54.6 131.15 53.95 129.55 55.55 129.65 56.7 129.8 M75.9 145.7 L75.15 143.3 75.3 143.7 76.85 145.35 77.85 145.85 75.9 145.7 M79.2 145.9 L79.55 145.75 80.55 144.95 80.85 145.4 81.1 145.8 81.2 146.05 79.2 145.9 M46.1 136.95 L42.65 131.15 41.85 128.7 41.25 127.5 42.1 128.7 43.2 131.15 44.85 133.7 47.05 137.3 47.0 137.3 46.1 136.95 M47.8 138.8 L48.65 140.85 49.7 143.55 49.85 143.65 49.0 143.25 49.1 143.25 48.05 140.85 47.2 139.0 47.0 138.55 47.8 138.8 M49.65 144.8 L50.9 145.1 50.2 145.0 50.4 145.5 51.6 151.1 51.65 157.45 49.85 157.15 50.1 156.9 Q51.05 155.6 51.35 151.1 L50.75 147.7 49.65 144.8 M60.3 146.35 L60.45 146.4 64.2 146.5 64.45 147.85 62.7 147.75 62.7 148.25 60.9 148.15 60.3 146.35 M61.2 149.45 L62.3 149.65 62.8 149.65 62.8 151.1 62.0 153.45 61.85 151.8 61.8 151.1 61.2 149.45 M77.15 149.45 L79.7 149.5 83.3 150.3 Q83.8 150.75 84.5 150.85 L85.2 150.7 86.9 151.1 86.95 151.1 87.55 159.45 87.7 161.45 82.35 161.65 76.45 161.85 72.6 161.65 73.15 160.2 73.35 159.45 Q73.95 156.9 74.35 156.45 L76.45 157.0 76.5 157.0 Q78.05 156.95 78.05 155.0 L77.75 151.1 77.15 149.45 M91.0 151.65 L91.4 151.45 91.4 152.4 91.15 152.65 91.0 151.65 M91.35 150.95 L90.85 150.8 89.95 148.5 90.9 148.75 91.35 150.95 M82.05 148.8 L79.45 148.4 76.75 148.2 76.25 146.75 81.45 147.15 82.05 148.8 M95.7 152.7 L97.1 152.6 97.2 163.65 95.05 162.85 95.25 160.8 95.55 160.5 Q96.0 159.95 95.95 159.45 L95.85 159.2 Q95.65 158.7 95.7 157.9 L95.7 156.8 95.7 152.7 M101.7 152.5 L102.45 152.5 104.65 152.55 105.2 153.5 Q106.95 155.95 108.75 156.55 L109.65 155.65 Q110.1 154.85 110.2 153.65 L110.25 154.0 Q110.55 154.5 110.4 157.45 L110.35 159.45 110.2 163.5 Q110.55 164.55 111.25 165.0 L112.9 165.5 Q114.5 165.7 115.25 164.95 L115.95 163.75 116.25 166.5 102.45 165.3 101.6 165.1 101.95 164.5 101.95 155.35 Q101.65 153.7 101.7 152.5 M124.8 152.2 L125.3 152.3 125.55 152.75 126.05 154.5 124.45 154.25 Q124.8 153.55 124.8 152.2 M96.15 148.4 L95.25 148.4 94.65 145.35 94.9 145.2 96.15 148.4 M77.25 131.9 Q76.15 132.4 76.6 133.6 L76.7 133.45 Q76.9 132.8 77.45 132.15 L77.25 131.9 M64.9 124.75 L63.75 124.6 63.3 124.8 63.5 125.3 70.1 126.05 80.2 127.1 81.6 127.1 81.9 127.05 Q81.5 126.4 81.0 126.3 L69.75 125.2 64.9 124.75 M38.55 182.2 Q37.5 181.6 37.0 181.7 37.05 183.05 39.55 184.0 L43.45 185.05 45.35 185.0 46.6 184.8 Q49.65 184.3 49.9 182.55 50.05 181.55 49.8 181.4 L49.35 181.5 Q47.5 182.5 45.65 182.9 L44.85 183.05 40.6 182.9 38.55 182.2 M34.55 186.85 L36.8 189.15 Q38.8 190.85 39.85 191.0 41.2 191.2 43.85 189.95 L44.65 189.6 Q46.55 188.8 47.15 188.9 L65.45 191.55 64.6 191.45 63.85 192.95 63.8 192.0 Q63.85 191.45 62.85 191.3 61.55 191.1 60.8 193.45 L60.35 195.1 58.3 194.35 55.8 193.45 54.4 193.05 50.25 193.45 50.0 193.5 46.1 194.0 44.25 192.85 44.15 192.8 42.55 192.55 Q41.1 191.35 40.2 191.2 39.55 191.1 37.45 192.15 35.35 193.25 34.9 193.2 33.4 192.95 32.0 190.4 L32.05 190.35 33.25 189.25 34.55 186.85 M62.35 195.6 L63.85 195.0 Q65.05 194.3 65.65 193.45 L66.2 192.1 66.3 191.7 68.45 192.0 73.85 193.35 74.15 193.45 74.45 193.55 80.45 195.15 Q82.6 195.5 85.65 194.6 L87.9 193.85 88.95 193.45 92.55 192.1 104.1 193.2 107.35 193.45 113.45 193.95 Q114.25 194.05 115.75 194.9 117.25 195.75 118.05 195.85 L119.7 196.05 113.85 196.55 Q113.05 196.45 111.05 195.45 L108.25 194.35 Q107.4 194.25 102.4 196.05 L99.65 196.9 100.0 195.65 Q100.15 194.65 99.85 194.2 L99.3 193.65 97.55 195.85 96.3 197.35 93.75 197.2 85.3 196.6 73.45 196.05 62.35 195.6 M62.7 159.65 L61.85 159.65 61.95 159.45 62.65 158.0 62.7 159.65 M66.65 166.8 L66.85 168.55 66.7 169.5 66.65 166.8 M68.45 158.8 L68.6 159.45 68.9 160.65 68.75 160.65 68.4 160.55 68.45 159.45 68.45 158.8 M44.5 156.75 L44.6 151.1 43.95 148.3 45.0 151.1 45.4 153.55 Q45.8 155.3 46.7 156.2 L47.95 156.9 46.65 156.85 44.5 156.75 M41.2 171.05 Q41.9 171.7 43.3 172.55 45.15 173.6 46.5 173.75 L46.65 173.8 48.55 173.7 Q50.45 173.4 50.4 171.95 50.4 171.1 49.95 170.8 49.8 170.7 49.05 170.45 48.1 171.95 46.65 171.95 L45.45 171.7 Q42.45 170.55 41.2 171.05 M61.15 178.65 L61.0 180.25 60.95 180.7 61.1 180.25 61.95 178.75 61.15 178.65 M63.0 186.2 L61.7 185.8 Q62.35 186.25 63.35 186.4 L65.8 186.25 66.75 185.85 66.15 185.5 64.6 185.85 63.0 186.2 M124.55 143.35 L126.3 146.25 Q127.1 147.65 127.55 149.55 L127.3 149.05 125.8 146.05 124.55 143.35 M99.9 126.15 L104.55 127.15 105.2 127.3 105.7 127.4 Q100.25 124.7 95.15 123.85 L99.9 126.15 M82.95 127.45 L83.35 127.8 83.75 128.05 86.0 128.4 84.9 127.5 84.8 127.45 Q83.15 126.4 81.25 125.65 81.5 126.5 82.95 127.45 M88.6 138.9 L89.05 139.85 88.45 139.85 88.2 139.35 88.6 138.9 M94.45 144.4 L94.35 143.8 94.65 144.6 94.45 144.4 M109.05 134.35 L113.0 134.75 110.75 134.3 109.05 134.35 M109.0 130.3 L106.85 130.1 107.45 131.15 108.4 132.35 111.0 132.5 111.1 132.55 109.75 131.15 109.0 130.3 M96.0 151.1 L93.95 151.3 94.0 151.1 93.9 149.75 95.25 149.55 99.45 149.85 Q103.5 150.25 105.3 150.9 103.25 150.7 99.65 150.9 L96.0 151.1 M113.85 184.75 L113.5 184.75 113.45 185.6 113.65 185.1 113.85 184.75 M105.75 184.05 L104.3 183.85 Q104.6 187.4 102.9 188.55 100.9 189.8 100.75 190.85 L103.2 190.5 Q105.25 189.75 105.6 187.7 105.85 186.1 105.75 184.05 M138.25 149.9 L135.3 149.4 134.9 149.25 135.75 151.1 135.9 151.75 138.45 152.8 139.0 152.85 138.95 152.6 138.75 151.1 138.25 149.9 M135.75 156.8 L135.3 158.55 138.35 159.3 138.6 159.3 138.55 159.0 138.55 158.75 138.7 156.6 135.75 156.65 135.75 156.8 M136.15 177.4 L136.35 177.15 135.9 177.4 Q134.05 178.45 131.95 178.3 L131.25 178.25 130.95 179.0 130.75 179.5 130.7 179.7 134.15 179.3 135.65 177.85 136.15 177.4 M133.95 165.7 L133.9 165.7 133.75 166.75 133.6 167.2 134.7 167.7 139.65 169.05 140.15 168.55 140.2 167.3 Q138.3 165.7 138.2 165.65 L136.65 165.85 133.95 165.7 M128.45 184.2 L129.85 186.9 131.55 189.65 132.4 188.8 133.0 188.05 131.65 185.8 129.45 181.75 128.45 182.1 128.3 182.1 128.45 183.2 128.45 184.2" fill="#979781" fill-rule="evenodd" stroke="none"/>
      <path d="M28.3 191.8 Q29.25 189.8 30.8 188.25 L31.0 187.15 31.8 186.55 33.05 183.55 33.85 180.7 34.65 177.4 34.4 174.35 Q36.1 172.4 36.95 170.2 38.4 166.25 37.0 161.35 L37.65 159.45 Q39.0 155.35 39.35 151.1 38.65 146.1 36.3 140.85 L35.05 138.3 34.65 137.8 Q34.0 134.4 32.35 131.15 L31.55 128.7 30.85 127.45 29.6 126.1 28.15 125.25 28.0 124.85 26.7 121.95 25.55 120.7 25.55 120.65 24.5 119.6 22.85 118.15 Q22.0 117.45 21.0 116.85 19.25 115.55 17.05 114.35 L17.15 114.2 17.0 113.45 16.0 113.2 15.65 113.05 15.95 113.05 17.15 113.25 17.1 113.3 17.75 113.9 Q19.6 112.35 23.2 112.6 25.7 112.8 29.65 113.75 L30.55 113.9 Q30.75 113.65 31.35 113.5 L33.2 113.5 35.6 113.7 41.8 114.75 46.95 115.65 57.0 116.85 61.25 117.25 64.4 117.05 68.35 116.85 77.05 118.65 80.85 119.45 94.55 121.45 97.5 121.95 107.6 123.45 116.9 124.6 122.3 125.75 122.4 125.8 123.05 126.1 Q123.9 126.5 124.4 127.1 L126.0 127.4 126.15 127.45 126.7 127.5 129.65 127.75 133.45 128.6 133.7 128.7 Q135.5 129.55 137.0 131.15 L137.15 131.3 138.75 132.75 143.9 138.3 Q145.6 140.85 147.1 143.75 148.85 147.35 150.3 151.1 L151.0 157.2 151.15 157.2 151.25 158.1 151.25 159.45 151.2 161.2 151.25 164.5 151.15 165.4 151.0 165.4 150.5 170.2 Q150.0 174.0 149.15 177.4 L148.0 179.95 147.65 180.7 Q145.4 186.25 142.85 190.7 L141.15 193.45 140.7 194.15 140.2 194.85 139.7 195.5 139.4 195.9 138.05 197.35 136.95 198.1 135.4 198.75 135.3 198.8 132.65 198.95 132.25 198.9 129.65 198.4 128.45 198.3 127.0 198.55 Q126.4 199.9 125.15 200.45 L125.05 200.5 119.9 201.0 111.3 200.5 Q104.95 200.2 99.1 200.65 92.95 201.0 86.7 200.45 L84.7 200.75 83.35 201.0 75.65 202.0 Q74.75 201.85 72.7 200.9 L71.85 200.45 71.05 200.05 68.7 199.05 55.65 198.15 51.15 198.45 45.55 198.65 43.3 198.3 41.6 197.7 41.55 197.7 Q40.95 197.3 40.7 196.65 L39.95 196.85 34.1 197.15 Q31.05 196.7 28.75 193.45 L28.4 192.95 28.2 193.45 28.0 193.9 28.15 194.1 27.35 194.15 27.6 193.45 28.3 191.8 M61.35 118.85 L56.4 118.15 54.55 118.0 50.5 118.1 49.85 118.1 48.25 118.1 46.4 118.1 41.5 117.1 40.25 116.85 37.1 116.2 35.25 116.5 35.2 116.5 33.4 116.4 31.1 116.7 27.75 115.75 Q25.35 114.8 24.85 114.75 23.2 114.7 22.2 115.8 L23.75 116.6 24.15 116.85 Q25.15 117.45 26.15 118.5 L27.4 119.85 29.1 121.95 29.85 123.75 Q30.15 124.25 29.85 124.8 L30.55 125.05 Q32.15 125.9 33.45 127.45 L34.1 128.7 34.75 131.15 35.6 133.3 Q36.75 136.45 37.75 138.3 L38.35 139.8 38.85 140.85 40.35 146.75 40.6 148.95 41.2 151.1 41.2 152.6 41.25 153.2 40.85 157.6 40.75 157.75 40.65 158.4 40.4 159.45 Q40.2 160.35 40.15 161.55 39.95 163.25 40.0 165.7 L39.7 170.2 Q39.3 172.35 38.55 173.75 L38.3 173.6 38.55 173.8 Q38.0 174.9 37.25 175.45 L36.7 175.75 37.05 177.3 37.1 177.4 36.35 180.7 35.6 183.95 34.8 186.35 34.7 186.6 34.55 186.85 33.25 189.25 32.05 190.35 32.0 190.4 Q33.4 192.95 34.9 193.2 35.35 193.25 37.45 192.15 39.55 191.1 40.2 191.2 41.1 191.35 42.55 192.55 L44.15 192.8 44.25 192.85 46.1 194.0 50.0 193.5 50.25 193.45 54.4 193.05 55.8 193.45 58.3 194.35 60.35 195.1 62.2 195.6 62.3 195.6 62.35 195.6 73.45 196.05 85.3 196.6 93.75 197.2 96.3 197.35 99.65 196.9 102.4 196.05 Q107.4 194.25 108.25 194.35 L111.05 195.45 Q113.05 196.45 113.85 196.55 L119.7 196.05 120.15 195.95 120.45 195.95 124.1 195.25 125.0 195.2 125.0 195.15 125.05 195.15 125.4 194.6 126.8 193.2 127.85 193.05 128.45 193.25 128.8 193.45 130.05 194.3 132.1 195.6 Q133.15 195.75 135.2 193.45 L135.25 193.4 135.5 193.1 135.85 192.75 135.9 192.65 137.2 191.05 Q139.4 188.2 141.55 184.05 L142.5 182.3 143.3 180.7 145.15 177.4 145.35 176.7 146.55 172.4 146.8 171.2 147.2 169.0 147.25 168.85 Q147.9 165.0 148.1 160.8 L148.05 159.45 147.9 157.35 147.7 156.05 147.35 153.65 147.05 151.8 146.9 151.1 Q145.05 146.75 142.4 142.5 L141.6 141.25 141.4 141.0 140.5 139.6 139.55 138.3 137.6 136.25 136.55 135.2 135.5 134.25 134.65 133.5 133.65 132.65 131.8 131.15 Q130.5 130.05 129.7 130.0 L127.5 130.4 125.75 130.75 125.15 130.75 Q123.45 130.6 122.45 128.8 L122.05 128.7 117.9 127.45 117.2 127.25 Q112.5 126.1 110.5 125.9 L108.3 125.95 107.6 126.05 105.4 126.15 104.65 126.15 98.4 124.4 97.35 124.0 Q92.7 122.55 89.1 122.3 L85.9 121.95 84.25 121.75 84.25 121.7 81.35 121.4 81.5 121.45 61.35 118.85 M63.0 186.2 L64.6 185.85 66.15 185.5 66.75 185.85 65.8 186.25 63.35 186.4 Q62.35 186.25 61.7 185.8 L63.0 186.2" fill="#4e4e42" fill-rule="evenodd" stroke="none"/>
      <path d="M41.2 152.6 L41.25 152.6 41.25 151.1 38.75 138.6 38.6 138.3 Q37.9 137.4 37.95 136.4 L39.8 136.55 Q39.6 136.6 39.5 136.75 L39.45 136.75 39.45 136.8 Q38.75 137.3 38.95 138.3 L38.95 138.4 39.1 138.3 41.0 137.8 43.25 137.55 43.85 137.65 46.25 138.3 46.75 138.5 46.8 138.5 47.0 138.55 47.2 139.0 48.05 140.85 49.1 143.25 49.0 143.25 46.75 142.95 45.05 142.85 43.85 142.7 Q42.05 142.7 41.35 143.25 L41.4 143.55 45.15 143.7 46.85 144.1 48.75 144.6 49.55 144.75 49.65 144.8 50.75 147.7 51.35 151.1 Q51.05 155.6 50.1 156.9 L49.85 157.15 49.65 157.1 47.95 156.9 46.7 156.2 Q45.8 155.3 45.4 153.55 L45.0 151.1 43.95 148.3 44.6 151.1 44.5 156.75 42.55 156.75 42.75 157.45 44.45 157.7 44.35 159.45 43.95 162.25 Q42.9 163.5 42.35 165.65 L41.7 165.7 40.55 165.45 40.35 161.4 40.15 161.55 Q40.2 160.35 40.4 159.45 L40.65 158.4 40.75 157.75 40.85 157.6 41.25 153.2 41.2 152.6 M41.65 136.15 L39.1 131.75 38.75 131.15 37.9 128.7 37.2 127.45 36.95 127.1 36.75 126.65 39.0 127.05 40.7 127.2 42.6 127.45 45.1 127.85 44.8 126.95 40.3 125.95 39.85 125.9 37.05 125.95 36.5 126.0 35.85 124.4 Q36.65 123.8 36.95 123.75 37.2 123.5 37.75 123.55 L39.5 123.85 Q42.1 124.6 44.8 126.95 L45.4 127.45 46.4 128.7 47.15 130.05 47.55 130.7 47.6 131.15 49.9 135.6 51.35 138.3 52.05 140.85 52.2 141.75 52.3 145.15 52.05 145.05 51.6 144.75 50.25 143.8 49.85 143.65 49.7 143.55 48.65 140.85 47.8 138.8 49.5 139.35 50.6 139.2 50.45 139.0 49.35 138.3 47.05 137.3 44.85 133.7 43.2 131.15 42.1 128.7 41.25 127.5 41.85 128.7 42.65 131.15 46.1 136.95 45.7 136.8 43.35 136.15 43.25 136.15 43.1 136.1 41.65 136.15 M52.25 145.3 L52.2 145.85 Q52.05 149.4 52.2 150.0 52.3 150.55 52.9 151.05 L53.0 151.1 53.45 151.95 Q53.5 156.7 53.1 159.45 L52.95 160.2 Q52.35 162.25 52.3 162.95 L52.9 166.0 52.65 166.0 Q51.7 165.5 51.7 164.35 L51.6 158.55 52.2 158.5 52.65 158.5 52.55 157.65 51.65 157.45 51.6 151.1 50.4 145.5 50.2 145.0 50.9 145.1 51.3 145.25 51.45 145.25 52.25 145.3 M52.75 124.15 L53.15 124.1 54.85 123.65 54.95 123.65 55.0 123.6 55.15 123.55 55.15 123.5 55.2 123.5 55.35 123.4 55.4 123.35 54.8 123.15 54.4 122.9 53.9 122.8 53.8 122.8 52.7 122.7 52.15 122.6 51.95 122.55 Q51.9 122.2 52.0 122.05 L52.3 121.95 53.55 122.0 Q54.35 122.05 55.4 122.7 L55.5 122.75 56.0 123.35 58.35 125.95 58.4 126.1 59.55 127.45 60.25 128.7 61.05 131.15 62.85 135.0 Q63.2 134.0 64.0 133.9 L64.2 133.9 63.4 131.75 65.15 134.05 64.45 131.15 64.35 128.7 64.2 128.35 64.15 127.45 Q64.2 126.5 65.95 126.65 67.05 126.7 68.05 127.45 L68.65 128.15 68.35 128.7 Q67.8 129.6 68.0 131.15 L68.8 132.8 69.25 133.45 69.9 133.65 71.1 133.75 71.45 133.75 72.05 134.7 72.4 135.15 72.0 133.8 72.2 133.75 72.75 133.65 73.75 133.15 Q74.35 134.7 75.4 135.25 L76.3 135.55 Q77.05 135.6 78.3 134.3 L78.8 134.95 Q81.2 137.65 81.85 137.7 82.65 137.8 83.6 138.3 84.75 139.0 85.9 140.6 L75.7 139.55 74.15 139.55 70.65 139.85 Q68.4 140.3 67.75 140.85 L67.5 141.15 68.25 140.85 74.35 140.55 77.15 140.8 77.4 140.85 79.9 141.15 80.85 141.25 82.05 141.4 86.45 141.45 Q88.0 143.7 89.55 147.5 L88.4 147.25 82.55 146.2 81.2 146.05 81.1 145.8 80.85 145.4 80.55 144.95 79.55 145.75 79.2 145.9 79.15 145.9 78.2 145.85 77.85 145.85 76.85 145.35 75.3 143.7 75.15 143.3 75.9 145.7 75.35 145.65 69.35 145.4 65.75 145.25 64.85 141.65 65.2 140.85 65.4 140.35 65.5 138.3 64.85 135.85 65.05 138.3 Q64.85 140.2 64.5 140.2 L63.95 139.95 63.6 140.2 Q63.25 140.3 63.2 140.85 L63.15 140.95 62.85 139.7 62.8 139.55 62.45 139.4 62.1 138.3 61.95 137.7 57.4 131.15 56.7 129.8 Q59.45 130.05 60.05 129.15 59.45 128.85 58.7 128.7 L55.9 128.25 55.4 127.45 52.75 124.15 M58.95 125.45 L60.7 127.2 60.9 127.45 61.15 127.75 60.75 127.45 59.5 126.95 59.2 126.0 58.9 125.45 58.95 125.45 M53.3 128.0 L51.75 128.0 51.75 128.05 Q51.05 128.2 50.85 128.7 50.45 129.25 50.6 130.3 L50.8 130.1 51.3 129.95 53.8 129.5 53.95 129.55 54.6 131.15 55.3 132.55 57.95 138.3 58.7 140.85 60.0 145.25 56.15 145.7 56.3 145.75 60.3 146.35 60.9 148.15 56.3 147.8 Q56.3 148.95 57.35 149.45 58.45 149.15 61.2 149.45 L61.8 151.1 61.85 151.8 62.0 153.45 62.8 151.1 62.8 149.65 66.3 150.15 66.2 149.95 66.5 149.95 67.0 150.95 68.25 151.1 68.3 151.15 68.3 151.1 68.0 150.25 68.1 150.25 73.35 149.7 76.15 149.5 77.15 149.45 77.75 151.1 78.05 155.0 Q78.05 156.95 76.5 157.0 L76.45 157.0 74.35 156.45 Q73.95 156.9 73.35 159.45 L73.15 160.2 72.6 161.65 68.9 160.65 68.6 159.45 68.45 158.8 68.45 156.85 Q68.2 157.3 67.55 157.3 L67.5 157.3 67.5 157.4 67.45 157.3 66.85 156.95 66.65 156.4 66.15 156.45 65.6 159.45 65.5 159.8 64.85 159.7 64.8 159.7 64.7 159.7 64.3 159.65 62.7 159.65 62.65 158.0 61.95 159.45 61.85 159.65 57.75 159.85 57.7 159.55 Q57.0 160.65 56.4 162.4 L55.75 162.3 Q55.4 162.25 55.5 159.45 L56.0 151.95 56.1 151.1 55.15 142.25 54.9 140.85 54.2 138.3 50.55 131.15 49.75 128.7 49.1 127.45 48.65 126.85 48.35 126.3 48.4 126.0 48.75 125.9 49.85 125.85 Q51.4 125.95 52.9 127.45 L53.3 128.0 M64.2 146.5 L64.7 146.5 65.0 147.0 65.75 148.35 62.7 148.25 62.7 147.75 64.45 147.85 64.2 146.5 M83.3 150.3 L83.25 150.25 83.9 150.45 85.2 150.7 84.5 150.85 Q83.8 150.75 83.3 150.3 M86.95 151.1 L87.1 151.1 89.85 151.8 91.0 151.65 91.15 152.65 90.9 153.1 90.95 153.25 91.35 154.4 91.4 154.55 91.4 154.6 92.1 156.85 92.4 158.15 93.2 157.95 Q92.8 156.4 92.95 155.55 93.15 154.8 93.85 154.45 L93.7 152.9 93.9 152.9 95.7 152.7 95.7 156.8 95.7 157.9 Q95.65 158.7 95.85 159.2 L95.95 159.45 Q96.0 159.95 95.55 160.5 L95.25 160.8 95.05 162.85 94.9 162.8 94.85 162.8 94.7 161.45 94.4 161.65 93.95 161.6 93.5 160.75 93.0 159.9 92.8 160.35 92.95 162.05 91.85 161.65 87.7 161.45 87.55 159.45 86.95 151.1 M91.4 151.45 L91.8 151.35 91.9 151.3 91.8 151.2 91.7 151.1 91.5 151.05 91.35 150.95 90.9 148.75 92.0 148.9 92.15 151.1 91.7 152.2 91.4 152.4 91.4 151.45 M90.85 150.8 L86.35 149.55 86.15 149.5 82.05 148.8 81.45 147.15 82.65 147.25 88.5 148.3 89.95 148.5 90.85 150.8 M76.75 148.2 L75.9 148.15 Q72.75 148.0 69.5 148.25 L67.15 148.3 66.85 147.85 66.25 146.5 69.25 146.6 75.6 146.7 76.25 146.75 76.75 148.2 M97.1 152.6 L98.65 152.6 101.15 152.55 101.7 152.5 Q101.65 153.7 101.95 155.35 L101.95 164.5 101.6 165.1 97.2 163.65 97.1 152.6 M104.65 152.55 L114.0 152.5 113.15 152.1 112.6 151.7 117.25 151.95 117.3 152.6 117.25 152.85 117.25 153.85 117.25 155.35 117.5 155.4 117.75 155.55 Q118.2 154.85 118.7 155.0 L118.85 155.1 119.0 152.95 119.05 151.35 119.6 151.4 124.8 152.2 Q124.8 153.55 124.45 154.25 L123.35 154.0 123.2 154.0 124.25 154.4 123.4 154.9 Q122.55 155.0 121.15 154.35 120.7 156.45 120.4 159.45 L120.35 160.15 118.65 161.2 117.2 161.1 117.0 161.25 116.95 161.3 117.05 161.55 118.1 163.35 118.1 163.8 117.9 163.75 Q116.65 163.4 115.85 162.05 L115.4 161.15 115.15 161.2 114.9 161.05 115.2 161.9 115.7 162.55 115.95 163.75 115.25 164.95 Q114.5 165.7 112.9 165.5 L111.25 165.0 Q110.55 164.55 110.2 163.5 L110.35 159.45 110.4 157.45 Q110.55 154.5 110.25 154.0 L110.2 153.65 Q110.1 154.85 109.65 155.65 L108.75 156.55 Q106.95 155.95 105.2 153.5 L104.65 152.55 M125.3 152.3 Q128.65 152.75 133.0 152.25 L133.0 157.65 132.9 157.75 132.75 158.1 132.7 158.05 132.5 157.4 132.45 158.3 131.45 159.1 131.2 159.45 Q130.75 160.15 131.05 161.85 L131.4 165.45 131.25 165.8 130.8 165.95 129.45 166.0 Q127.6 165.75 127.2 162.0 L126.95 159.45 126.15 154.9 127.35 155.2 132.3 156.2 132.15 155.75 127.3 154.7 126.05 154.5 125.55 152.75 125.3 152.3 M133.0 151.6 L129.65 151.1 122.8 150.25 118.55 149.65 116.55 145.25 115.85 144.45 Q115.25 143.85 115.05 143.25 L115.1 143.15 115.2 142.0 115.3 141.85 Q116.35 143.7 117.05 146.05 117.15 145.0 118.1 144.9 L119.4 144.95 118.8 141.2 118.95 140.85 119.5 139.15 119.55 139.4 Q122.15 139.05 124.0 139.85 125.65 140.7 126.2 140.75 L126.95 140.8 127.0 140.8 127.05 140.8 127.05 140.85 127.15 141.0 127.3 141.25 Q130.0 145.25 132.9 150.9 L133.0 151.1 133.0 151.6 M113.7 139.75 L113.9 140.4 114.0 140.85 Q114.4 142.7 115.55 145.4 L117.2 151.05 113.15 150.55 Q112.3 148.05 109.35 143.7 L107.6 140.85 106.1 138.3 105.9 138.05 106.05 138.1 106.55 138.3 Q108.95 139.25 112.4 139.6 L112.65 139.65 112.7 139.65 113.25 139.3 113.7 139.75 M112.6 150.5 L98.8 148.6 98.4 148.6 96.15 148.4 94.9 145.2 94.65 145.35 95.25 148.4 93.85 148.4 93.8 148.4 93.05 145.4 92.45 145.0 92.3 144.55 Q91.75 144.1 90.65 143.85 L90.55 143.85 Q91.3 145.45 91.75 147.75 L91.75 147.85 90.75 147.7 89.9 143.7 89.5 143.55 Q88.6 142.8 87.85 141.1 L87.75 140.85 87.7 140.45 87.7 140.35 Q87.8 139.95 88.45 139.85 L89.05 139.85 88.6 138.9 88.95 138.5 89.15 138.3 89.6 137.65 87.75 132.65 88.7 132.8 89.6 132.95 95.9 138.3 96.55 139.25 97.35 138.3 Q97.5 138.15 97.75 138.05 98.2 137.7 99.0 137.85 99.85 137.9 100.55 138.3 L101.3 139.0 102.4 140.85 103.65 143.95 104.25 145.1 103.35 142.2 102.85 140.85 102.5 139.95 Q102.35 138.9 102.55 138.45 L102.9 138.35 103.05 138.3 103.8 138.3 104.15 138.35 Q105.8 138.5 107.2 140.85 L107.85 142.05 Q110.5 147.8 112.4 150.3 L112.6 150.5 M68.45 154.2 L68.35 154.55 68.45 155.1 68.45 154.2 M57.85 160.5 L61.3 161.2 60.95 162.05 Q59.75 165.1 59.0 165.85 57.3 164.55 57.45 162.5 57.5 161.45 57.85 160.6 L57.85 160.5 M62.75 161.45 L65.15 161.8 65.3 161.85 65.5 161.85 65.7 161.85 66.2 164.5 66.55 166.25 66.7 166.75 66.65 166.8 66.7 169.5 66.45 170.2 65.0 172.6 Q64.3 173.5 64.05 174.25 L63.5 173.8 62.9 172.7 62.9 171.75 63.65 171.8 Q64.2 171.75 64.8 171.2 64.65 170.7 64.15 170.6 L62.85 170.5 62.75 161.45 M64.9 174.7 L66.2 173.2 66.7 172.65 66.55 174.05 66.4 174.7 66.3 174.75 64.95 174.7 64.9 174.7 M69.5 162.05 L72.35 162.1 Q71.8 162.8 71.0 162.7 70.05 162.6 69.5 162.05 M87.7 162.35 L89.65 162.4 93.1 163.55 93.25 168.9 93.2 170.2 93.15 170.65 93.15 170.7 Q92.4 171.45 91.3 171.3 90.25 171.2 89.55 170.2 88.65 169.0 88.2 166.7 L87.7 162.35 M97.4 165.2 L98.9 165.8 100.25 166.25 99.3 166.25 Q97.85 166.1 97.4 165.2 M124.45 138.6 L119.5 139.0 119.75 138.45 119.8 138.3 Q120.35 137.4 122.3 137.6 123.0 137.65 124.05 138.3 L124.45 138.6 M124.55 143.35 L125.8 146.05 127.3 149.05 127.55 149.55 Q127.1 147.65 126.3 146.25 L124.55 143.35 M87.4 137.25 L84.95 134.3 83.2 132.2 83.5 132.2 84.5 132.35 85.85 132.5 87.45 137.1 87.4 137.25 M94.45 144.4 L94.65 144.6 94.35 143.8 94.45 144.4 M-22.7 177.9 L-22.15 178.05 -21.25 177.75 Q-19.65 177.35 -19.65 178.6 L-19.9 179.3 -19.5 179.25 -18.6 179.3 -18.6 180.0 Q-18.9 180.55 -19.45 180.75 L-20.35 180.9 -20.25 181.1 Q-20.1 181.35 -20.1 181.85 -20.1 182.15 -20.35 182.3 L-21.05 182.85 -23.8 182.65 -24.9 183.45 -24.95 183.2 -24.3 182.55 -24.7 182.45 -25.3 182.3 -27.35 183.3 Q-30.55 184.8 -31.5 184.8 -32.9 184.8 -32.9 183.6 L-32.35 183.0 -30.9 182.2 -30.95 182.05 -31.2 182.1 Q-32.85 182.1 -32.85 181.0 L-32.6 180.5 -31.8 179.9 -31.55 179.9 Q-30.95 179.5 -29.65 179.4 L-27.6 179.2 -26.4 178.95 -26.15 178.9 Q-24.05 177.75 -22.7 177.9" fill="#a9aa92" fill-rule="evenodd" stroke="none"/>
      <path d="M77.25 131.9 L77.45 132.15 Q76.9 132.8 76.7 133.45 L76.6 133.6 Q76.15 132.4 77.25 131.9 M61.15 178.65 L61.95 178.75 61.1 180.25 60.95 180.7 61.0 180.25 61.15 178.65 M109.05 134.35 L110.75 134.3 113.0 134.75 109.05 134.35 M113.85 184.75 L113.65 185.1 113.45 185.6 113.5 184.75 113.85 184.75" fill="#8c7644" fill-rule="evenodd" stroke="none"/>
      <path d="M28.3 191.8 L27.6 193.45 27.35 194.15 28.15 194.1 28.0 193.9 28.2 193.45 28.4 192.95 28.75 193.45 Q31.05 196.7 34.1 197.15 L39.95 196.85 40.7 196.65 Q40.95 197.3 41.55 197.7 L41.6 197.7 43.3 198.3 45.55 198.65 51.15 198.45 55.65 198.15 68.7 199.05 71.05 200.05 71.85 200.45 72.7 200.9 Q74.75 201.85 75.65 202.0 L83.35 201.0 84.7 200.75 86.7 200.45 Q92.95 201.0 99.1 200.65 104.95 200.2 111.3 200.5 L119.9 201.0 125.05 200.5 125.15 200.45 Q126.4 199.9 127.0 198.55 L128.45 198.3 129.65 198.4 132.25 198.9 132.65 198.95 135.3 198.8 135.4 198.75 136.95 198.1 138.05 197.35 139.4 195.9 139.7 195.5 140.2 194.85 140.7 194.15 141.15 193.45 142.85 190.7 Q149.55 191.3 153.75 192.75 L155.55 193.45 Q158.45 194.8 159.35 196.5 L159.65 197.95 Q159.65 198.35 159.05 198.5 157.4 198.95 155.65 199.7 L156.2 200.25 156.45 201.05 Q156.45 203.05 141.8 205.5 129.05 207.65 124.5 207.65 L114.1 207.1 105.7 206.5 102.25 207.1 91.75 207.2 Q87.25 208.35 81.15 208.5 L75.85 208.4 70.55 207.45 Q66.1 206.75 59.95 207.65 L46.2 207.65 Q28.65 204.95 22.75 204.95 16.55 204.95 8.5 206.6 L-1.05 208.75 -14.15 208.85 -15.0 209.55 -18.2 209.75 Q-21.75 209.75 -23.35 208.8 -24.1 208.35 -31.4 209.85 L-40.95 210.0 -44.55 210.55 -49.5 211.3 -58.9 211.4 Q-61.1 212.5 -63.2 212.7 L-78.05 213.15 Q-93.05 213.15 -98.0 210.9 -100.3 209.9 -100.3 207.9 -100.3 207.6 -99.9 207.25 L-99.05 206.6 -94.35 206.0 -91.8 205.5 -89.25 205.5 Q-88.3 205.65 -88.05 206.2 -87.95 206.45 -88.0 206.75 L-69.6 208.6 -61.5 208.45 -61.9 207.35 Q-61.9 206.85 -61.4 206.55 L-61.95 206.45 -63.4 205.3 Q-58.4 204.1 -48.8 203.15 L-40.45 202.45 -39.45 202.35 -16.8 200.0 -1.95 197.5 7.6 196.5 Q7.85 193.8 20.8 190.9 L21.25 190.8 29.95 189.2 Q28.85 190.55 28.1 192.1 L28.3 191.8 M-11.35 203.4 L-10.45 203.25 Q-5.35 202.6 -3.15 200.95 L-23.65 203.9 -26.95 204.3 -35.15 205.3 -32.2 205.65 -16.6 205.85 -15.25 206.15 -11.8 206.15 -13.8 205.85 Q-14.7 205.65 -14.7 204.65 -14.7 203.9 -11.35 203.4" fill="#958e46" fill-rule="evenodd" stroke="none"/>
      <path d="M-12.8 189.65 L-13.05 189.3 -6.55 187.6 -5.7 188.5 Q-5.4 187.35 -4.05 187.25 L-2.25 187.5 -3.3 186.6 -2.95 186.45 0.75 185.1 2.2 186.45 2.55 186.05 Q3.4 185.55 5.6 185.4 L3.85 183.6 Q5.05 182.85 5.0 182.2 L4.55 180.8 3.9 180.25 Q2.8 180.35 2.6 181.4 L2.25 182.05 Q0.8 180.6 -0.6 179.45 L-0.75 179.85 Q-1.4 180.65 -3.55 180.75 L-1.2 183.2 -3.8 184.9 -4.7 185.5 -7.1 183.55 -7.95 183.6 -11.05 183.0 -7.5 186.6 -7.4 186.65 Q-9.25 187.35 -11.8 187.65 -12.55 187.7 -13.15 187.1 -13.7 186.35 -14.5 186.45 L-15.2 187.05 -17.35 185.05 -18.9 185.8 -16.6 188.05 -16.95 188.35 -18.55 189.3 Q-18.15 189.75 -18.15 190.5 L-18.2 191.2 -18.2 191.35 -18.15 191.95 -18.35 192.8 Q-18.7 193.4 -19.95 193.8 L-25.55 193.8 -26.85 194.1 -28.1 193.8 -29.15 193.8 -29.6 193.7 -31.8 194.2 Q-31.85 194.15 -32.05 194.0 L-30.4 193.65 -30.1 193.55 -29.85 193.6 Q-30.95 193.15 -30.95 192.0 L-30.85 191.35 -30.8 191.15 Q-30.45 190.6 -29.15 190.2 L-27.05 190.2 -26.2 189.75 -26.35 189.5 -26.5 189.35 -33.2 189.2 -33.95 188.45 -34.0 188.05 -26.45 186.05 -22.55 184.75 -22.65 184.15 -22.45 183.35 -22.1 182.85 -22.05 182.75 -22.3 182.65 -24.65 181.7 Q-25.5 181.35 -25.7 180.65 L-25.8 180.15 Q-25.8 179.15 -25.35 178.65 L-25.05 178.4 -23.55 178.2 Q-22.5 178.35 -20.9 179.1 -16.95 181.0 -16.2 182.4 L-14.4 181.5 Q-18.0 179.7 -18.0 178.65 -18.0 177.95 -17.6 177.55 -17.25 177.1 -16.5 176.95 L-16.3 176.95 Q-14.65 176.75 -12.3 178.2 L-10.55 179.1 -9.35 177.75 -10.85 176.9 Q-11.6 176.35 -11.6 175.5 L-11.5 174.8 Q-11.15 173.55 -9.5 173.4 L-7.05 173.55 Q-3.3 174.25 -2.65 175.75 L-2.0 175.9 Q2.55 176.95 4.55 180.55 L5.8 183.15 6.2 184.15 7.05 184.9 8.95 185.3 9.05 185.3 Q11.0 185.1 11.45 186.25 12.2 186.6 12.75 187.05 14.85 188.7 14.95 191.6 L13.6 191.8 12.6 192.85 12.35 193.15 Q9.75 196.4 5.5 197.8 L5.5 197.65 Q5.3 196.25 4.15 194.45 L2.7 194.9 Q1.25 194.9 0.95 193.95 L-0.3 193.8 -0.3 193.95 -0.1 194.6 Q1.9 194.45 3.15 196.3 L4.3 198.2 2.05 198.6 -4.35 198.8 -6.3 200.95 -7.05 201.55 -11.8 203.4 -16.6 204.8 -17.2 204.8 -18.6 204.65 -17.45 204.2 -15.95 203.6 Q-11.7 201.65 -9.15 199.4 L-9.1 200.45 -8.6 200.4 Q-8.25 199.6 -8.25 199.1 L-8.3 198.55 -6.7 196.5 -7.05 195.2 -8.7 195.1 -8.55 196.05 -8.55 196.95 -8.55 197.7 Q-8.75 198.5 -9.2 198.9 L-10.35 199.25 Q-11.45 199.25 -12.15 196.7 -12.75 194.65 -12.75 192.95 L-12.7 192.25 Q-12.6 191.25 -12.15 190.55 L-12.05 190.5 Q-11.4 190.1 -10.35 190.5 -9.3 190.9 -9.2 191.45 L-8.95 193.2 -7.15 192.35 Q-6.2 191.95 -5.8 191.4 L-5.85 190.3 -5.8 189.2 -5.9 189.1 -6.15 188.85 -8.55 188.75 -12.8 189.65 M-17.6 190.85 L-15.0 189.55 -14.55 190.1 -17.6 190.85 M7.4 190.95 L7.35 191.1 10.15 194.15 11.15 193.45 11.15 191.9 9.0 189.25 7.5 189.2 7.4 190.95 M-55.35 209.5 L-57.35 210.2 -67.35 209.55 -68.3 209.1 -70.8 207.55 Q-73.15 208.5 -77.0 209.0 -83.7 209.9 -88.35 206.4 -88.45 206.25 -88.75 206.25 L-89.95 205.4 -91.35 205.6 -91.35 205.3 Q-91.85 202.65 -90.35 200.7 -88.95 198.7 -85.35 197.1 -84.85 196.55 -84.6 195.1 L-84.05 192.25 -83.3 190.35 Q-82.05 187.65 -79.0 186.1 -77.0 185.05 -73.85 182.6 L-70.35 181.6 -76.5 188.35 -77.65 189.65 -79.65 192.1 -79.7 192.0 -80.6 192.55 -80.95 192.85 -80.9 193.5 Q-87.3 201.45 -87.0 203.4 L-86.75 204.7 -86.65 204.9 -85.9 205.65 -85.1 204.85 -85.15 204.45 Q-85.15 201.2 -84.55 199.6 -83.55 197.0 -80.65 195.2 L-80.55 195.65 -80.05 196.0 -74.95 195.7 -74.9 196.2 -73.2 195.95 -74.4 192.3 Q-76.55 193.9 -77.2 193.85 L-78.25 193.2 Q-77.1 191.95 -75.65 189.35 L-75.3 188.7 Q-72.6 184.05 -69.65 183.6 -69.15 183.55 -68.2 182.85 L-67.95 181.8 Q-67.0 180.8 -66.0 180.9 L-64.6 179.45 -64.55 179.75 -63.8 180.45 -64.3 181.75 Q-63.55 182.45 -63.35 183.35 L-61.95 183.35 -61.35 182.25 -61.05 181.85 -60.25 182.1 -60.3 182.65 Q-60.0 184.85 -55.65 185.6 L-53.8 185.85 -53.15 185.55 -51.6 185.25 Q-50.25 185.3 -50.25 187.05 -50.25 187.45 -51.75 189.75 L-51.95 190.05 Q-52.0 192.95 -51.65 196.05 L-51.9 196.25 -56.1 196.5 -55.95 197.15 -55.95 197.2 Q-55.95 198.0 -56.75 198.65 -57.25 199.05 -57.95 199.3 L-56.85 199.2 -55.35 199.7 -53.3 200.25 -51.45 200.75 -51.5 200.2 -51.3 199.2 Q-51.1 198.75 -50.7 198.55 -49.95 198.05 -49.0 198.55 L-48.4 198.95 Q-46.85 200.2 -46.55 203.35 L-33.25 201.9 -33.6 200.25 Q-33.65 199.0 -34.3 197.95 -35.0 196.95 -35.0 196.15 L-34.8 195.2 Q-34.55 194.6 -33.9 194.4 -32.65 193.9 -30.9 195.9 L-30.25 196.45 -29.75 196.85 -28.95 197.55 -28.45 198.65 -28.2 199.75 -28.8 201.4 -29.1 201.95 Q-29.9 203.45 -30.55 203.75 L-30.9 203.85 Q-31.7 203.85 -32.25 203.35 L-34.7 204.35 -37.8 205.35 -49.4 208.0 -50.2 207.7 -53.3 208.7 -54.0 208.9 -55.25 209.4 -55.35 209.5 M-67.4 178.8 L-67.8 177.95 -67.6 177.8 -67.75 177.6 Q-68.25 177.0 -68.25 176.1 -68.25 174.05 -62.1 169.35 -55.95 164.65 -55.95 168.8 -55.95 169.35 -56.3 169.9 L-56.1 169.95 -56.65 170.35 -57.5 170.95 -57.85 171.25 Q-57.2 171.5 -56.95 172.35 L-55.3 172.25 -54.5 172.5 -50.05 167.55 -50.5 167.05 Q-52.1 167.6 -53.55 168.35 -53.0 166.95 -53.0 165.85 L-52.85 165.75 -52.2 166.2 Q-51.4 166.2 -50.1 165.0 L-49.4 164.25 Q-49.45 164.15 -49.55 164.15 L-47.1 162.75 Q-44.2 160.75 -44.45 159.25 -45.25 157.25 -46.55 155.5 -49.1 151.9 -51.5 152.25 L-52.55 152.45 Q-51.05 150.25 -48.35 149.85 L-40.95 148.85 Q-37.4 148.45 -35.05 151.35 L-33.45 154.6 -33.45 154.65 -34.35 156.45 -34.15 157.45 -34.25 157.75 Q-35.3 158.0 -35.85 158.4 L-37.1 160.5 Q-38.25 162.8 -42.0 163.9 L-44.9 164.45 -48.2 164.7 -48.05 165.5 -45.7 165.6 -46.15 166.75 -45.85 167.05 -45.5 167.05 -45.7 165.6 -41.95 166.0 Q-38.75 166.45 -35.95 167.4 L-41.35 167.7 -41.85 167.95 -44.0 169.65 -44.7 168.0 -44.45 170.0 -44.5 170.05 -46.6 172.15 Q-47.2 172.95 -47.2 173.4 L-47.2 172.9 -47.4 170.5 -47.4 169.9 -47.5 170.3 -49.25 175.05 Q-53.85 175.85 -54.55 177.4 -54.8 177.95 -54.55 178.7 L-54.15 179.75 -59.3 180.9 -60.1 181.45 -60.6 181.45 -60.95 181.5 -58.8 178.25 -60.3 178.4 Q-62.05 178.4 -62.65 177.7 L-63.7 180.05 -64.45 179.3 -63.5 178.2 -62.8 177.5 -63.05 176.65 -62.95 176.2 -63.25 176.0 -63.95 176.6 Q-65.8 178.2 -66.45 178.2 L-66.75 178.2 -67.4 178.8 M-33.8 163.65 L-33.0 163.65 -32.5 163.1 -32.35 163.15 Q-32.0 164.2 -31.1 165.45 -29.95 166.85 -29.15 166.75 L-26.65 165.3 Q-24.7 166.15 -21.9 167.5 L-21.35 167.8 -19.7 168.6 -15.6 170.5 -21.2 168.65 -23.15 168.1 -26.85 167.35 -27.25 167.55 -24.6 168.85 -21.0 170.5 -17.4 172.0 -18.8 172.7 Q-20.0 172.85 -20.55 173.7 L-20.7 174.0 -26.75 169.9 -34.9 164.2 -33.8 163.65 M-56.1 130.35 L-56.55 130.55 -57.15 130.8 -56.5 130.35 -55.5 129.95 -56.1 130.35 M-33.2 168.5 L-30.45 169.9 -28.8 170.9 -28.15 171.4 -31.8 172.4 Q-32.35 169.5 -33.2 168.5 M-22.6 175.0 L-22.1 175.3 -24.85 175.85 -22.6 175.0 M-68.25 195.75 Q-68.25 194.6 -66.55 193.45 L-65.95 193.15 -66.0 192.75 -65.9 191.9 -66.05 191.8 -69.2 192.3 -71.55 195.85 -68.25 195.75 M-47.1 174.75 L-47.15 173.45 -46.85 174.7 -47.1 174.75 M-49.8 185.95 L-41.15 185.4 -40.1 185.25 -39.05 185.1 -40.0 185.35 -41.15 185.65 -48.05 187.35 Q-50.4 188.15 -50.15 190.0 -49.95 191.45 -47.45 192.05 L-49.0 193.75 -49.6 194.5 Q-50.05 194.2 -50.1 193.55 -50.65 189.7 -49.8 185.95 M-45.55 192.3 L-41.5 192.35 -45.2 193.0 Q-45.25 192.6 -45.55 192.3 M-36.2 189.75 L-36.55 189.75 Q-37.6 189.75 -38.25 189.15 L-39.45 189.05 -38.45 188.95 Q-39.05 188.3 -39.05 187.45 L-38.65 186.5 -38.25 185.6 Q-39.65 183.9 -39.65 182.9 -39.65 181.95 -38.9 180.9 L-38.4 180.25 Q-37.15 178.7 -36.0 180.0 L-35.75 180.3 Q-35.35 180.9 -34.65 182.85 L-34.5 183.15 -34.2 183.15 Q-32.75 183.2 -31.95 183.6 L-31.35 183.5 -31.85 183.65 Q-30.8 184.15 -30.8 185.25 -30.8 187.1 -32.95 187.1 L-33.9 187.1 -34.1 187.2 -34.65 187.55 -35.1 188.8 Q-35.5 189.6 -36.2 189.75 M-39.05 180.6 L-41.3 181.1 -42.05 181.25 -42.5 181.25 -42.15 181.1 -41.35 180.7 -40.55 180.35 -39.35 180.0 -39.05 180.6 M-45.75 195.2 L-48.2 195.7 -47.45 195.15 -45.75 195.2 M-34.95 194.85 L-34.85 195.1 -34.95 194.9 -35.25 195.0 -36.45 195.25 -35.3 194.95 -34.95 194.85 M-30.0 178.6 L-30.15 178.7 -35.2 179.75 Q-34.15 179.5 -32.65 178.7 L-31.3 177.95 Q-30.75 178.15 -30.2 178.5 L-30.0 178.6 M-12.15 174.45 L-12.85 174.45 -18.15 175.7 -17.2 176.3 -18.2 175.75 -18.15 175.7 -17.1 175.05 -14.7 173.2 Q-13.35 173.85 -12.15 174.45 M-48.25 206.75 L-48.1 206.9 -48.05 206.75 -48.25 206.75 M-76.15 207.35 L-76.3 207.35 -76.25 207.6 -76.0 208.6 -75.85 208.45 -75.1 208.35 -74.7 207.1 -76.15 207.35" fill="#979781" fill-rule="evenodd" stroke="none"/>
      <path d="M-18.2 191.2 L-18.15 190.5 Q-18.15 189.75 -18.55 189.3 L-16.95 188.35 -16.6 188.05 -18.9 185.8 -17.35 185.05 -15.2 187.05 -14.5 186.45 Q-13.7 186.35 -13.15 187.1 -12.55 187.7 -11.8 187.65 -9.25 187.35 -7.4 186.65 L-7.5 186.6 -11.05 183.0 -7.95 183.6 -7.1 183.55 -4.7 185.5 -3.8 184.9 -1.2 183.2 -3.55 180.75 Q-1.4 180.65 -0.75 179.85 L-0.6 179.45 Q0.8 180.6 2.25 182.05 L2.6 181.4 Q2.8 180.35 3.9 180.25 L4.55 180.8 5.0 182.2 Q5.05 182.85 3.85 183.6 L5.6 185.4 Q3.4 185.55 2.55 186.05 L2.2 186.45 0.75 185.1 -2.95 186.45 -3.3 186.6 -2.25 187.5 -4.05 187.25 Q-5.4 187.35 -5.7 188.5 L-6.55 187.6 -13.05 189.3 -12.8 189.65 -12.05 190.5 -12.15 190.55 Q-12.6 191.25 -12.7 192.25 L-13.55 191.2 -14.55 190.1 -15.0 189.55 -17.6 190.85 -17.65 190.9 -18.0 191.05 -18.2 191.2 M-9.2 198.9 Q-8.75 198.5 -8.55 197.7 L-8.55 196.95 -8.45 197.5 -8.3 198.35 -8.3 198.55 -8.25 199.1 Q-8.25 199.6 -8.6 200.4 L-9.1 200.45 -9.15 199.4 -9.2 198.9 M4.3 198.2 L3.15 196.3 Q1.9 194.45 -0.1 194.6 L-0.3 193.95 -0.3 193.8 0.95 193.95 Q1.25 194.9 2.7 194.9 L4.15 194.45 Q5.3 196.25 5.5 197.65 L5.5 197.8 5.7 198.6 5.5 198.8 4.95 199.2 4.8 199.3 4.3 198.2 M-9.5 173.4 Q-11.15 173.55 -11.5 174.8 L-12.15 174.45 Q-13.35 173.85 -14.7 173.2 L-17.1 175.05 -18.15 175.7 -18.2 175.75 -17.2 176.3 -16.3 176.95 -16.5 176.95 Q-17.25 177.1 -17.6 177.55 L-19.45 176.55 -19.5 176.6 -20.15 176.9 Q-22.0 177.85 -23.55 178.2 L-25.05 178.4 -25.75 178.35 -25.35 178.65 Q-25.8 179.15 -25.8 180.15 L-25.7 180.65 -28.1 179.55 -29.8 178.7 -30.0 178.6 -30.2 178.5 Q-30.75 178.15 -31.3 177.95 L-32.65 178.7 Q-34.15 179.5 -35.2 179.75 L-36.0 180.0 Q-37.15 178.7 -38.4 180.25 L-38.9 180.9 -39.05 180.6 -39.35 180.0 -39.65 179.4 -41.0 179.4 -41.4 179.5 -42.6 180.2 -43.65 180.8 Q-45.6 182.05 -48.75 182.45 L-48.95 182.95 -49.7 185.5 -49.8 185.95 Q-50.65 189.7 -50.1 193.55 -50.05 194.2 -49.6 194.5 L-49.0 193.75 -47.45 192.05 -47.0 191.6 -46.85 191.4 -45.85 191.95 -45.55 192.3 Q-45.25 192.6 -45.2 193.0 L-41.5 192.35 -40.9 192.25 -36.95 191.55 -36.0 191.2 -36.2 189.75 Q-35.5 189.6 -35.1 188.8 L-34.65 187.55 -34.1 187.2 -34.0 188.05 -33.95 188.45 -33.2 189.2 Q-32.6 190.0 -32.25 190.95 L-32.2 191.1 -30.85 191.35 -30.95 192.0 Q-30.95 193.15 -29.85 193.6 L-30.1 193.55 -31.85 193.2 Q-33.35 192.15 -33.75 192.25 L-34.65 192.95 -34.65 193.0 -32.55 193.65 -32.05 194.0 Q-31.85 194.15 -31.8 194.2 L-31.85 194.25 -31.25 194.85 -30.75 195.55 -30.25 196.45 -30.9 195.9 Q-32.65 193.9 -33.9 194.4 -34.55 194.6 -34.8 195.2 L-34.85 195.1 -34.95 194.85 -35.45 193.55 -35.85 193.8 Q-36.95 194.55 -37.8 194.7 L-40.75 195.15 -44.75 195.3 -45.75 195.2 -47.45 195.15 -48.2 195.7 -48.35 195.75 -48.6 195.95 -48.4 198.95 -49.0 198.55 Q-49.95 198.05 -50.7 198.55 -51.1 198.75 -51.3 199.2 L-51.4 198.5 -51.35 198.4 -51.4 198.25 -51.5 197.75 Q-53.6 198.8 -56.0 199.1 L-56.85 199.2 -57.95 199.3 Q-57.25 199.05 -56.75 198.65 -55.95 198.0 -55.95 197.2 L-55.95 197.15 -52.85 196.7 -51.9 196.25 -51.65 196.05 Q-52.0 192.95 -51.95 190.05 L-51.75 189.75 Q-50.25 187.45 -50.25 187.05 -50.25 185.3 -51.6 185.25 L-51.25 182.75 -57.5 182.6 -60.25 182.1 -61.05 181.85 -61.35 182.25 -61.95 183.35 -63.35 183.35 Q-63.55 182.45 -64.3 181.75 L-63.8 180.45 -64.55 179.75 -64.6 179.45 -66.0 180.9 Q-67.0 180.8 -67.95 181.8 L-68.2 182.85 Q-69.15 183.55 -69.65 183.6 -72.6 184.05 -75.3 188.7 L-75.65 189.35 Q-77.1 191.95 -78.25 193.2 L-77.2 193.85 Q-76.55 193.9 -74.4 192.3 L-73.2 195.95 -74.9 196.2 -74.95 195.7 -80.05 196.0 -80.55 195.65 -80.65 195.2 Q-83.55 197.0 -84.55 199.6 -85.15 201.2 -85.15 204.45 L-85.1 204.85 -85.9 205.65 -86.65 204.9 -86.75 204.7 -87.0 203.4 Q-87.3 201.45 -80.9 193.5 L-80.95 192.85 -80.6 192.55 -79.7 192.0 -79.65 192.1 -77.65 189.65 -76.5 188.35 -70.35 181.6 -67.4 178.8 -66.75 178.2 -66.45 178.2 Q-65.8 178.2 -63.95 176.6 L-63.25 176.0 -62.95 176.2 -63.05 176.65 -62.8 177.5 -63.5 178.2 -64.45 179.3 -63.7 180.05 -62.65 177.7 Q-62.05 178.4 -60.3 178.4 L-58.8 178.25 -60.95 181.5 -60.6 181.45 -60.1 181.45 -55.65 180.6 -50.6 179.7 -49.25 175.05 -47.5 170.3 -47.4 169.9 -47.4 170.5 -47.2 172.9 -47.2 173.4 -47.15 173.45 -47.1 174.75 Q-47.1 176.8 -47.75 179.2 -44.8 178.75 -43.6 178.15 L-42.9 177.6 -42.7 176.8 Q-42.6 176.5 -42.1 176.4 L-41.5 176.45 -41.5 176.4 Q-43.75 172.5 -44.45 170.0 L-44.7 168.0 -44.0 169.65 -43.4 170.6 -42.15 172.6 -41.65 173.3 -39.1 176.9 -36.6 177.3 -33.55 176.7 -33.75 176.45 Q-35.35 174.05 -36.65 172.55 -38.15 170.55 -39.85 169.55 -36.4 171.2 -32.65 173.6 L-30.55 174.95 -29.75 174.35 Q-29.25 174.25 -28.55 175.35 -27.85 176.25 -25.0 175.9 L-24.85 175.85 -22.1 175.3 -22.6 175.0 -24.95 173.5 -28.15 171.4 -28.8 170.9 -30.45 169.9 -33.2 168.5 -35.85 167.45 -35.95 167.4 Q-38.75 166.45 -41.95 166.0 L-45.7 165.6 -45.5 167.05 -45.85 167.05 -46.15 166.75 -45.7 165.6 -48.05 165.5 -48.2 164.7 -44.9 164.45 -42.0 163.9 Q-38.25 162.8 -37.1 160.5 L-35.85 158.4 Q-35.3 158.0 -34.25 157.75 L-32.5 157.55 -32.3 157.7 Q-32.1 157.85 -32.0 158.8 -31.8 160.25 -32.4 161.8 -32.95 162.95 -33.8 163.65 L-34.9 164.2 -26.75 169.9 -20.7 174.0 -20.55 173.7 Q-20.0 172.85 -18.8 172.7 L-17.4 172.0 -21.0 170.5 -24.6 168.85 -27.25 167.55 -26.85 167.35 -23.15 168.1 -21.2 168.65 -15.6 170.5 -15.15 170.75 -13.75 170.05 -13.45 169.9 Q-13.2 169.85 -13.05 170.85 L-13.15 171.55 Q-11.25 172.4 -9.5 173.4 M-22.3 182.65 L-22.05 182.75 -22.1 182.85 -22.3 182.65 M7.4 190.95 L7.5 189.2 9.0 189.25 11.15 191.9 11.15 193.45 10.15 194.15 7.35 191.1 7.4 190.95 M-30.55 203.75 Q-29.9 203.45 -29.1 201.95 L-28.8 201.4 -27.6 201.2 -29.0 201.9 -28.4 206.3 -29.3 207.0 -29.8 207.25 -30.4 204.8 -30.5 204.15 -30.55 203.75 M-56.1 169.95 L-53.55 168.35 Q-52.1 167.6 -50.5 167.05 L-50.05 167.55 -54.5 172.5 -55.3 172.25 -56.95 172.35 Q-57.2 171.5 -57.85 171.25 L-57.5 170.95 -56.65 170.35 -56.1 169.95 M-68.25 195.75 L-71.55 195.85 -69.2 192.3 -66.05 191.8 -65.9 191.9 -66.0 192.75 -65.95 193.15 -66.55 193.45 Q-68.25 194.6 -68.25 195.75 M-48.25 206.75 L-48.05 206.75 -48.1 206.9 -48.25 206.75 M-76.15 207.35 L-74.7 207.1 -75.1 208.35 -75.85 208.45 -76.0 208.6 -76.25 207.6 -76.3 207.35 -76.15 207.35" fill="#706e4e" fill-rule="evenodd" stroke="none"/>
      <path d="M-18.6 204.65 L-17.2 204.8 -16.6 204.8 -11.8 203.4 -7.05 201.55 -6.3 200.95 -4.35 198.8 2.05 198.6 4.3 198.2 4.8 199.3 4.95 199.2 5.5 198.8 5.7 198.6 5.5 197.8 Q9.75 196.4 12.35 193.15 L12.6 192.85 13.6 191.8 14.95 191.6 Q14.85 188.7 12.75 187.05 12.2 186.6 11.45 186.25 11.0 185.1 9.05 185.3 L8.95 185.3 7.05 184.9 6.2 184.15 5.8 183.15 4.55 180.55 Q2.55 176.95 -2.0 175.9 L-2.65 175.75 Q-3.3 174.25 -7.05 173.55 L-9.5 173.4 Q-11.25 172.4 -13.15 171.55 L-13.05 170.85 Q-13.2 169.85 -13.45 169.9 L-13.75 170.05 -15.15 170.75 -15.6 170.5 -19.7 168.6 -21.35 167.8 -21.9 167.5 Q-24.7 166.15 -26.65 165.3 L-29.15 166.75 Q-29.95 166.85 -31.1 165.45 -32.0 164.2 -32.35 163.15 L-32.5 163.1 -33.0 163.65 -33.8 163.65 Q-32.95 162.95 -32.4 161.8 -31.8 160.25 -32.0 158.8 -32.1 157.85 -32.3 157.7 L-32.5 157.55 -34.25 157.75 -34.15 157.45 -34.35 156.45 -33.45 154.65 -33.45 154.6 -35.05 151.35 Q-37.4 148.45 -40.95 148.85 L-48.35 149.85 Q-51.05 150.25 -52.55 152.45 L-51.5 152.25 Q-49.1 151.9 -46.55 155.5 -45.25 157.25 -44.45 159.25 -44.2 160.75 -47.1 162.75 L-49.55 164.15 Q-49.45 164.15 -49.4 164.25 L-50.1 165.0 Q-51.4 166.2 -52.2 166.2 L-52.85 165.75 -53.0 165.85 Q-53.0 166.95 -53.55 168.35 L-56.1 169.95 -56.3 169.9 Q-55.95 169.35 -55.95 168.8 -55.95 164.65 -62.1 169.35 -68.25 174.05 -68.25 176.1 -68.25 177.0 -67.75 177.6 L-67.6 177.8 -67.8 177.95 -67.4 178.8 -70.35 181.6 -73.85 182.6 Q-77.0 185.05 -79.0 186.1 -82.05 187.65 -83.3 190.35 L-84.05 192.25 -84.6 195.1 Q-84.85 196.55 -85.35 197.1 -88.95 198.7 -90.35 200.7 -91.85 202.65 -91.35 205.3 L-91.35 205.6 -89.95 205.4 -88.75 206.25 Q-88.45 206.25 -88.35 206.4 -83.7 209.9 -77.0 209.0 -73.15 208.5 -70.8 207.55 L-68.3 209.1 -67.35 209.55 -57.35 210.2 -55.35 209.5 -54.85 209.3 -54.4 209.15 -53.3 208.7 -50.2 207.7 -49.4 208.0 -47.55 208.5 Q-45.0 209.3 -44.35 209.15 L-40.9 208.6 -41.05 207.3 -37.0 207.6 -33.15 206.25 -33.0 207.55 -29.8 207.25 -29.45 207.15 -29.25 207.15 Q-28.5 206.95 -26.5 205.65 L-24.15 204.25 -19.8 204.6 -19.1 204.6 -18.6 204.65 M-30.1 157.55 L-30.6 159.9 -28.65 160.6 Q-25.25 160.6 -22.15 161.5 -19.65 162.3 -17.3 163.65 L-15.95 164.55 Q-13.45 166.25 -12.45 168.1 -4.9 171.9 -4.1 172.25 -0.5 173.7 5.45 177.95 L9.45 180.8 Q15.0 185.0 16.95 186.8 17.65 186.9 17.9 187.45 L18.25 188.9 Q18.65 192.0 17.15 193.75 L17.3 193.35 17.1 193.8 17.05 193.85 16.45 194.35 Q14.9 195.5 11.25 196.9 L11.75 196.8 11.3 197.25 Q7.85 200.95 1.45 201.8 0.1 202.0 -1.4 201.25 -2.05 202.2 -3.3 203.05 L-4.95 204.05 Q-8.75 206.0 -15.05 206.85 L-16.1 207.0 -18.35 206.8 -20.2 206.5 Q-21.1 206.6 -21.1 206.85 L-21.05 207.25 Q-21.8 207.9 -28.4 208.85 L-29.9 209.05 Q-35.25 209.7 -36.25 210.2 -37.2 210.85 -43.0 211.65 -45.55 212.0 -49.35 211.55 L-64.25 212.25 Q-65.75 212.45 -71.1 210.45 -82.15 211.95 -86.05 210.35 L-87.65 209.3 -89.25 208.6 Q-94.65 209.2 -95.1 205.7 -95.25 204.85 -94.75 203.8 L-95.1 202.9 Q-95.25 202.0 -88.8 193.75 L-86.3 190.75 Q-81.15 184.55 -78.0 182.0 L-71.0 175.8 Q-70.2 173.25 -67.3 170.25 -64.1 166.9 -59.8 165.2 -61.95 164.8 -63.85 163.8 L-58.55 164.7 Q-48.65 164.7 -48.65 161.7 L-48.75 159.2 -48.75 159.15 -48.75 159.1 Q-48.95 157.35 -49.4 156.3 -51.05 152.7 -56.2 152.7 L-56.8 152.5 -56.55 152.0 -55.25 149.85 Q-51.9 145.45 -45.1 145.85 L-42.75 145.25 -37.3 145.5 -37.15 145.05 -34.55 146.15 -34.9 146.7 Q-34.65 146.8 -34.25 147.05 -32.5 148.55 -31.4 150.25 L-30.85 153.15 Q-30.3 155.55 -30.1 157.55" fill="#4e4e42" fill-rule="evenodd" stroke="none"/>
      <path d="M-30.1 157.55 Q-30.3 155.55 -30.85 153.15 L-31.4 150.25 -30.9 151.1 -30.75 150.85 Q-27.8 146.15 -27.65 142.6 L-27.75 141.0 Q-28.15 137.9 -29.45 134.9 L-30.95 132.0 -32.4 129.85 Q-36.9 123.6 -43.65 122.55 -46.45 122.1 -49.55 122.5 L-50.0 122.55 -50.45 122.6 -50.6 122.65 -50.8 122.65 -50.9 122.65 -51.1 122.7 -51.25 122.75 -63.65 127.9 Q-67.4 130.75 -69.3 135.1 -71.75 140.8 -70.85 147.5 -70.5 150.15 -69.0 152.95 L-68.25 154.2 -67.1 155.8 -67.0 155.95 Q-62.6 161.65 -56.3 161.55 L-56.5 161.1 -54.1 160.85 -52.5 160.45 -52.4 160.4 -52.3 160.35 -52.05 160.7 -51.2 160.35 Q-49.05 159.6 -48.75 159.2 L-48.65 161.7 Q-48.65 164.7 -58.55 164.7 L-63.85 163.8 Q-67.25 162.0 -69.95 158.25 L-71.8 155.4 Q-73.95 151.65 -74.4 148.35 -75.95 136.95 -69.05 128.25 -62.85 120.4 -52.75 118.3 L-43.85 117.9 Q-39.0 118.6 -34.85 121.45 -28.8 125.55 -26.05 133.2 L-25.8 133.8 Q-24.75 137.05 -24.25 140.8 -24.05 142.55 -24.35 144.9 L-24.35 145.1 -25.35 149.65 Q-27.05 155.5 -30.05 157.3 L-30.1 157.55 M-34.55 146.15 L-37.15 145.05 -36.45 143.4 Q-35.55 141.1 -35.75 139.55 L-36.05 138.15 Q-36.25 137.4 -36.6 136.75 -38.0 134.0 -41.4 132.15 L-43.35 131.25 Q-49.05 129.05 -57.15 130.95 L-56.1 130.35 -55.5 129.95 -56.5 130.35 -57.15 130.8 Q-60.0 132.95 -61.8 136.15 -64.55 141.05 -64.0 145.15 -63.75 147.0 -63.15 148.4 -62.15 150.85 -59.95 151.85 L-57.05 153.1 -56.8 152.5 -56.2 152.7 Q-51.05 152.7 -49.4 156.3 -48.95 157.35 -48.75 159.1 L-49.65 157.0 Q-50.65 155.35 -53.1 155.7 L-53.4 155.75 -53.2 155.85 -53.2 156.1 -54.7 155.75 -54.95 155.7 Q-56.65 155.55 -58.35 156.65 L-60.1 156.3 -62.1 155.4 Q-64.7 153.75 -66.0 150.15 -66.7 148.2 -67.05 145.65 -67.75 140.6 -63.6 135.2 L-61.35 132.7 -60.7 132.05 -58.85 130.3 -58.7 130.2 -58.6 130.15 -58.3 129.9 -56.85 128.8 -56.6 128.65 -56.25 128.4 -55.8 128.05 -55.55 127.85 -53.95 126.9 Q-48.3 123.5 -43.8 123.25 L-43.65 123.25 Q-39.0 122.95 -38.55 126.5 -38.4 127.4 -36.2 128.85 -37.6 129.0 -40.8 127.6 -42.45 126.8 -43.5 126.5 L-44.95 126.25 -48.85 127.7 -43.45 127.9 -43.1 128.0 -42.9 128.1 -42.6 128.15 -42.2 128.3 -42.1 128.3 -40.9 128.9 -40.75 128.95 -40.35 129.15 -39.9 129.4 Q-36.35 131.55 -34.55 134.5 -33.85 135.6 -33.45 136.85 L-32.95 139.05 -32.9 139.05 -32.9 139.25 Q-32.7 141.0 -33.55 143.7 -34.0 145.1 -34.55 146.15 M-48.85 127.7 Q-52.05 128.15 -55.5 129.95 L-48.85 127.7" fill="#8c945a" fill-rule="evenodd" stroke="none"/>
      <path d="M-31.4 150.25 Q-32.5 148.55 -34.25 147.05 -34.65 146.8 -34.9 146.7 L-34.55 146.15 Q-34.0 145.1 -33.55 143.7 -32.7 141.0 -32.9 139.25 L-32.9 139.05 -32.95 139.05 -33.45 136.85 Q-33.85 135.6 -34.55 134.5 -36.35 131.55 -39.9 129.4 L-40.35 129.15 -40.75 128.95 -40.9 128.9 -42.1 128.3 -42.2 128.3 -42.6 128.15 -42.9 128.1 -43.1 128.0 -43.45 127.9 -48.85 127.7 -44.95 126.25 -43.5 126.5 Q-42.45 126.8 -40.8 127.6 -37.6 129.0 -36.2 128.85 -38.4 127.4 -38.55 126.5 -39.0 122.95 -43.65 123.25 L-43.8 123.25 Q-48.3 123.5 -53.95 126.9 L-55.55 127.85 -55.8 128.05 -56.25 128.4 -56.6 128.65 -56.85 128.8 -58.3 129.9 -58.6 130.15 -58.7 130.2 -58.85 130.3 -60.7 132.05 -61.35 132.7 -63.6 135.2 Q-67.75 140.6 -67.05 145.65 -66.7 148.2 -66.0 150.15 -64.7 153.75 -62.1 155.4 L-60.1 156.3 -58.35 156.65 Q-56.65 155.55 -54.95 155.7 L-54.7 155.75 -53.2 156.1 -53.2 155.85 -53.4 155.75 -53.1 155.7 Q-50.65 155.35 -49.65 157.0 L-48.75 159.1 -48.75 159.15 -48.75 159.2 Q-49.05 159.6 -51.2 160.35 L-52.05 160.7 -52.3 160.35 -52.4 160.4 -52.5 160.45 -54.1 160.85 -56.5 161.1 -56.3 161.55 Q-62.6 161.65 -67.0 155.95 L-67.1 155.8 -68.25 154.2 -69.0 152.95 Q-70.5 150.15 -70.85 147.5 -71.75 140.8 -69.3 135.1 -67.4 130.75 -63.65 127.9 L-51.25 122.75 -51.1 122.7 -50.9 122.65 -50.8 122.65 -50.6 122.65 -50.45 122.6 -50.0 122.55 -49.55 122.5 Q-46.45 122.1 -43.65 122.55 -36.9 123.6 -32.4 129.85 L-30.95 132.0 -29.45 134.9 Q-28.15 137.9 -27.75 141.0 L-27.65 142.6 Q-27.8 146.15 -30.75 150.85 L-30.9 151.1 -31.4 150.25" fill="#f2ffc7" fill-rule="evenodd" stroke="none"/>
      <path d="M-12.8 189.65 L-8.55 188.75 -6.15 188.85 -5.9 189.1 -5.8 189.2 -5.85 190.3 -5.8 191.4 Q-6.2 191.95 -7.15 192.35 L-8.95 193.2 -9.2 191.45 Q-9.3 190.9 -10.35 190.5 -11.4 190.1 -12.05 190.5 L-12.8 189.65 M-12.7 192.25 L-12.75 192.95 Q-12.75 194.65 -12.15 196.7 -11.45 199.25 -10.35 199.25 L-9.2 198.9 -9.15 199.4 Q-11.7 201.65 -15.95 203.6 L-17.45 204.2 -18.6 204.65 -19.1 204.6 -19.8 204.6 -24.15 204.25 -26.5 205.65 Q-28.5 206.95 -29.25 207.15 L-29.45 207.15 -29.8 207.25 -29.3 207.0 -28.4 206.3 -29.0 201.9 -27.6 201.2 -28.8 201.4 -28.2 199.75 -28.45 198.65 -28.95 197.55 -29.75 196.85 -30.25 196.45 -30.75 195.55 -31.25 194.85 -31.85 194.25 -31.8 194.2 -29.6 193.7 -29.15 193.8 -28.1 193.8 -26.85 194.1 -25.55 193.8 -19.95 193.8 Q-18.7 193.4 -18.35 192.8 L-18.15 191.95 -18.2 191.35 -18.2 191.2 -18.0 191.05 -17.65 190.9 -17.6 190.85 -14.55 190.1 -13.55 191.2 -12.7 192.25 M-8.55 196.95 L-8.55 196.05 -8.7 195.1 -7.05 195.2 -6.7 196.5 -8.3 198.55 -8.3 198.35 -8.45 197.5 -8.55 196.95 M-11.5 174.8 L-11.6 175.5 Q-11.6 176.35 -10.85 176.9 L-9.35 177.75 -10.55 179.1 -12.3 178.2 Q-14.65 176.75 -16.3 176.95 L-17.2 176.3 -18.15 175.7 -12.85 174.45 -12.15 174.45 -11.5 174.8 M-17.6 177.55 Q-18.0 177.95 -18.0 178.65 -18.0 179.7 -14.4 181.5 L-16.2 182.4 Q-16.95 181.0 -20.9 179.1 -22.5 178.35 -23.55 178.2 -22.0 177.85 -20.15 176.9 L-19.5 176.6 -19.45 176.55 -17.6 177.55 M-25.05 178.4 L-25.35 178.65 -25.75 178.35 -25.05 178.4 M-25.7 180.65 Q-25.5 181.35 -24.65 181.7 L-22.3 182.65 -22.1 182.85 -22.45 183.35 -22.65 184.15 -22.55 184.75 -26.45 186.05 -34.0 188.05 -34.1 187.2 -33.9 187.1 -32.95 187.1 Q-30.8 187.1 -30.8 185.25 -30.8 184.15 -31.85 183.65 L-31.35 183.5 -31.95 183.6 Q-32.75 183.2 -34.2 183.15 L-34.5 183.15 -34.65 182.85 Q-35.35 180.9 -35.75 180.3 L-36.0 180.0 -35.2 179.75 -30.15 178.7 -30.0 178.6 -29.8 178.7 -28.1 179.55 -25.7 180.65 M-33.2 189.2 L-26.5 189.35 -26.35 189.5 -26.2 189.75 -27.05 190.2 -29.15 190.2 Q-30.45 190.6 -30.8 191.15 L-30.85 191.35 -32.2 191.1 -32.25 190.95 Q-32.6 190.0 -33.2 189.2 M-30.1 193.55 L-30.4 193.65 -32.05 194.0 -32.55 193.65 -34.65 193.0 -34.65 192.95 -33.75 192.25 Q-33.35 192.15 -31.85 193.2 L-30.1 193.55 M-55.35 209.5 L-55.25 209.4 -54.0 208.9 -53.3 208.7 -54.4 209.15 -54.85 209.3 -55.35 209.5 M-49.4 208.0 L-37.8 205.35 -34.7 204.35 -32.25 203.35 Q-31.7 203.85 -30.9 203.85 L-30.55 203.75 -30.5 204.15 -30.4 204.8 -29.8 207.25 -33.0 207.55 -33.15 206.25 -37.0 207.6 -41.05 207.3 -40.9 208.6 -44.35 209.15 Q-45.0 209.3 -47.55 208.5 L-49.4 208.0 M-34.8 195.2 L-35.0 196.15 Q-35.0 196.95 -34.3 197.95 -33.65 199.0 -33.6 200.25 L-33.25 201.9 -46.55 203.35 Q-46.85 200.2 -48.4 198.95 L-48.6 195.95 -48.35 195.75 -48.2 195.7 -45.75 195.2 -44.75 195.3 -40.75 195.15 -37.8 194.7 Q-36.95 194.55 -35.85 193.8 L-35.45 193.55 -34.95 194.85 -35.3 194.95 -36.45 195.25 -35.25 195.0 -34.95 194.9 -34.85 195.1 -34.8 195.2 M-51.3 199.2 L-51.5 200.2 -51.45 200.75 -53.3 200.25 -55.35 199.7 -56.85 199.2 -56.0 199.1 Q-53.6 198.8 -51.5 197.75 L-51.4 198.25 -51.35 198.4 -51.4 198.5 -51.3 199.2 M-55.95 197.15 L-56.1 196.5 -51.9 196.25 -52.85 196.7 -55.95 197.15 M-51.6 185.25 L-53.15 185.55 -53.8 185.85 -55.65 185.6 Q-60.0 184.85 -60.3 182.65 L-60.25 182.1 -57.5 182.6 -51.25 182.75 -51.6 185.25 M-47.2 173.4 Q-47.2 172.95 -46.6 172.15 L-44.5 170.05 -44.45 170.0 Q-43.75 172.5 -41.5 176.4 L-41.5 176.45 -42.1 176.4 Q-42.6 176.5 -42.7 176.8 L-42.9 177.6 -43.6 178.15 Q-44.8 178.75 -47.75 179.2 -47.1 176.8 -47.1 174.75 L-46.85 174.7 -47.15 173.45 -47.2 173.4 M-44.0 169.65 L-41.85 167.95 -41.35 167.7 -35.95 167.4 -35.85 167.45 -33.2 168.5 Q-32.35 169.5 -31.8 172.4 L-28.15 171.4 -24.95 173.5 -22.6 175.0 -24.85 175.85 -25.0 175.9 Q-27.85 176.25 -28.55 175.35 -29.25 174.25 -29.75 174.35 L-30.55 174.95 -32.65 173.6 Q-36.4 171.2 -39.85 169.55 -38.15 170.55 -36.65 172.55 -35.35 174.05 -33.75 176.45 L-33.55 176.7 -36.6 177.3 -39.1 176.9 -41.65 173.3 -42.15 172.6 -43.4 170.6 -44.0 169.65 M-60.1 181.45 L-59.3 180.9 -54.15 179.75 -54.55 178.7 Q-54.8 177.95 -54.55 177.4 -53.85 175.85 -49.25 175.05 L-50.6 179.7 -55.65 180.6 -60.1 181.45 M-49.8 185.95 L-49.7 185.5 -48.95 182.95 -48.75 182.45 Q-45.6 182.05 -43.65 180.8 L-42.6 180.2 -41.4 179.5 -41.0 179.4 -39.65 179.4 -39.35 180.0 -40.55 180.35 -41.35 180.7 -42.15 181.1 -42.5 181.25 -42.05 181.25 -41.3 181.1 -39.05 180.6 -38.9 180.9 Q-39.65 181.95 -39.65 182.9 -39.65 183.9 -38.25 185.6 L-38.65 186.5 -39.05 187.45 Q-39.05 188.3 -38.45 188.95 L-39.45 189.05 -38.25 189.15 Q-37.6 189.75 -36.55 189.75 L-36.2 189.75 -36.0 191.2 -36.95 191.55 -40.9 192.25 -41.5 192.35 -45.55 192.3 -45.85 191.95 -46.85 191.4 -47.0 191.6 -47.45 192.05 Q-49.95 191.45 -50.15 190.0 -50.4 188.15 -48.05 187.35 L-41.15 185.65 -40.0 185.35 -39.05 185.1 -40.1 185.25 -41.15 185.4 -49.8 185.95" fill="#a9aa92" fill-rule="evenodd" stroke="none"/>
      <path d="M19.7 178.9 Q19.7 179.5 18.95 180.05 18.2 180.6 17.2 180.6 L13.55 179.95 13.55 179.75 13.05 179.4 Q11.9 178.55 11.9 177.75 11.9 177.35 13.1 176.1 L13.55 175.7 13.55 176.65 Q14.7 175.8 15.8 175.35 19.7 173.85 19.7 178.9 M141.85 211.45 L140.7 211.3 140.6 211.2 Q140.45 211.1 140.45 210.6 140.45 210.2 141.95 209.75 L144.05 209.45 144.15 209.55 144.25 210.1 Q144.25 210.7 143.7 210.85 142.35 211.2 141.85 211.45 M122.95 210.3 L123.05 210.95 Q123.05 212.1 120.65 212.1 L116.45 211.7 111.0 210.7 110.85 210.45 Q114.5 207.6 117.15 208.3 118.55 208.7 120.1 209.65 L121.2 209.85 122.85 210.1 122.95 210.3 M65.8 207.55 L65.5 208.35 Q65.1 208.95 64.45 208.95 L54.95 205.7 Q45.3 202.4 44.1 202.35 45.35 201.65 46.5 201.65 L51.1 202.25 55.1 202.8 Q57.1 202.8 61.45 204.75 65.8 206.7 65.8 207.55 M28.35 205.5 L28.5 205.85 28.6 206.6 Q28.6 208.1 25.7 208.45 L19.95 208.75 Q19.35 209.2 19.35 208.3 19.35 207.2 23.45 206.1 27.45 205.0 28.35 205.5 M1.5 212.55 Q1.1 212.1 1.05 211.85 8.75 207.4 8.75 210.15 8.75 210.95 7.35 211.85 5.8 212.85 3.85 212.85 L1.5 212.55 M-109.2 195.4 Q-105.15 194.85 -105.15 196.7 -105.15 197.45 -106.75 198.0 L-110.65 198.5 -112.3 198.05 -113.8 197.65 Q-113.2 195.95 -109.2 195.4 M-112.75 207.65 L-116.55 207.8 -118.7 208.5 -121.1 209.3 -121.3 209.1 Q-119.65 207.3 -118.5 206.65 -116.55 205.65 -111.8 205.95 L-111.65 206.7 Q-112.3 207.55 -112.75 207.65" fill="#4e4e42" fill-rule="evenodd" stroke="none"/>
      <path d="M19.15 184.7 Q19.15 185.45 18.05 185.95 L16.45 186.35 Q15.55 186.35 15.4 185.7 L15.4 185.0 Q15.4 183.95 16.05 183.8 L18.9 184.0 19.05 184.15 19.15 184.7 M29.9 180.7 L30.45 183.05 Q30.45 184.9 28.6 185.65 31.3 186.0 31.3 188.1 31.3 190.65 26.4 190.65 L23.5 189.75 Q21.0 188.9 20.9 188.7 21.5 186.55 24.2 185.9 L22.9 185.05 Q21.9 184.15 21.9 183.65 21.9 182.9 24.5 180.7 L24.55 180.65 Q27.2 178.8 28.1 178.8 29.15 178.8 29.9 180.7 M131.75 209.2 L127.85 209.35 Q126.1 209.35 126.1 208.25 126.1 206.35 126.95 204.85 128.1 202.75 130.35 202.75 131.9 202.75 133.85 207.4 133.85 208.85 131.75 209.2 M131.0 206.9 Q130.2 205.2 129.35 205.45 128.7 205.65 127.65 207.1 L127.55 207.2 131.0 206.9 M-133.35 195.45 Q-133.35 192.0 -129.05 193.45 -124.75 194.9 -124.75 196.35 -124.75 197.55 -126.6 198.5 -128.2 199.3 -129.85 199.3 -131.4 199.3 -132.75 198.6 -134.05 198.0 -134.05 197.4 L-133.7 196.45 Q-133.35 195.9 -133.35 195.45 M-127.15 196.2 Q-129.05 194.7 -130.0 194.75 -131.15 194.75 -131.85 196.7 L-129.4 196.9 -127.85 196.75 -127.15 196.2" fill="#5a4d2c" fill-rule="evenodd" stroke="none"/>
      <path d="M131.0 206.9 L127.55 207.2 127.65 207.1 Q128.7 205.65 129.35 205.45 130.2 205.2 131.0 206.9 M-127.15 196.2 L-127.85 196.75 -129.4 196.9 -131.85 196.7 Q-131.15 194.75 -130.0 194.75 -129.05 194.7 -127.15 196.2" fill="#c5b769" fill-rule="evenodd" stroke="none"/>
    </g>
  </defs>
</svg>
