<?xml version="1.0" encoding="UTF-8" standalone="no"?>
<svg xmlns:ffdec="https://www.free-decompiler.com/flash" xmlns:xlink="http://www.w3.org/1999/xlink" ffdec:objectType="frame" height="357.35px" width="477.05px" xmlns="http://www.w3.org/2000/svg">
  <g transform="matrix(1.0, 0.0, 0.0, 1.0, 164.25, 236.25)">
    <use ffdec:characterId="1537" height="23.7" transform="matrix(7.0, 0.0, 0.0, 7.0, -7.1, -158.9)" width="24.55" xlink:href="#shape0"/>
    <use ffdec:characterId="1538" height="24.35" transform="matrix(7.0, 0.0, 0.0, 7.0, -8.85, -161.35)" width="24.9" xlink:href="#shape1"/>
  </g>
  <defs>
    <g id="shape0" transform="matrix(1.0, 0.0, 0.0, 1.0, 7.8, 35.3)">
      <path d="M3.2 -34.25 Q2.8 -34.25 2.7 -34.5 2.6 -34.65 2.65 -34.8 2.65 -35.0 2.7 -35.05 L2.85 -35.2 Q3.35 -35.35 3.65 -35.3 4.0 -35.25 4.0 -35.0 4.0 -34.75 3.65 -34.5 3.35 -34.25 3.2 -34.25 M4.55 -32.95 Q5.2 -32.9 6.0 -32.0 L6.2 -31.4 Q6.3 -30.95 6.35 -30.8 6.65 -30.2 6.75 -30.15 L8.0 -30.1 8.1 -30.15 Q8.55 -30.4 9.1 -30.5 9.25 -31.1 10.05 -31.8 10.65 -32.3 10.8 -32.05 L11.2 -32.05 Q11.8 -32.05 12.35 -31.7 12.55 -31.55 13.1 -31.05 13.55 -30.65 13.8 -30.45 14.25 -30.1 14.7 -30.0 15.3 -29.85 15.6 -29.7 15.95 -29.45 16.1 -29.0 L16.35 -28.35 16.5 -27.85 16.6 -27.4 16.7 -27.2 Q16.75 -27.1 16.75 -26.95 16.75 -26.9 16.5 -26.8 L16.55 -26.55 16.4 -26.35 Q16.4 -26.3 16.05 -26.25 15.85 -26.25 15.6 -26.45 L15.5 -26.55 15.3 -26.5 Q15.2 -26.25 15.2 -25.7 L15.1 -24.9 Q14.85 -25.1 14.4 -25.4 L13.6 -25.85 13.8 -24.95 13.9 -24.8 13.9 -24.55 Q13.9 -24.35 13.85 -24.3 13.8 -24.2 13.65 -24.2 13.3 -24.15 12.95 -24.45 L12.55 -24.65 Q12.55 -23.7 12.45 -23.2 L12.4 -23.15 Q12.3 -23.1 12.15 -23.1 L11.8 -23.35 Q11.45 -23.65 11.3 -23.65 11.5 -23.15 11.5 -22.85 L11.45 -22.4 11.3 -22.3 10.85 -22.6 Q10.7 -22.45 10.4 -22.5 10.3 -22.35 10.3 -22.15 L10.4 -21.45 Q10.45 -20.8 10.45 -20.45 L11.3 -20.5 Q11.6 -20.4 11.55 -20.2 L11.4 -19.9 Q11.55 -20.0 11.95 -19.9 L12.0 -19.75 Q11.9 -19.45 11.75 -19.25 11.65 -19.1 11.35 -18.85 L11.3 -18.75 11.55 -18.85 11.9 -18.9 Q12.15 -18.9 12.1 -18.85 12.2 -18.75 12.15 -18.5 L12.2 -18.55 Q12.3 -18.6 12.45 -18.6 12.65 -18.6 12.65 -18.5 L12.65 -18.3 12.9 -18.25 Q13.05 -18.2 13.05 -18.1 13.05 -17.8 12.95 -17.35 L12.95 -17.3 13.3 -17.7 Q13.55 -18.0 13.75 -18.0 14.0 -18.0 13.95 -17.95 L14.0 -17.85 14.0 -17.65 Q14.0 -17.45 13.85 -17.0 13.7 -16.55 13.7 -16.4 13.7 -16.35 13.9 -16.1 14.1 -15.9 14.1 -15.8 14.1 -15.3 13.45 -14.9 13.3 -14.6 12.85 -14.2 12.1 -13.55 11.45 -13.55 10.7 -13.55 10.1 -14.3 9.85 -14.65 9.65 -15.05 9.35 -14.8 9.35 -14.6 L9.4 -14.05 Q9.45 -13.7 9.35 -13.5 9.1 -13.2 8.35 -13.15 7.6 -13.45 7.05 -14.35 6.55 -15.1 6.55 -15.6 6.55 -16.05 6.75 -16.3 6.95 -16.65 7.3 -16.65 L7.65 -16.55 Q7.85 -16.5 7.95 -16.4 L8.0 -16.35 8.35 -16.4 8.45 -16.5 Q8.5 -16.55 8.5 -16.7 8.5 -16.8 8.0 -17.4 7.5 -18.05 7.3 -18.05 5.45 -17.25 5.2 -16.85 5.05 -16.6 4.8 -16.3 4.75 -16.1 4.55 -15.85 4.2 -15.3 3.75 -15.3 3.35 -15.3 3.2 -15.9 3.0 -16.45 2.7 -16.45 2.55 -16.45 2.15 -16.2 1.85 -15.95 1.45 -16.1 1.1 -16.35 1.1 -16.55 1.1 -16.95 1.55 -17.15 2.1 -17.35 2.2 -17.5 2.3 -17.7 2.35 -18.0 2.4 -18.3 2.4 -18.5 2.4 -18.7 2.35 -19.0 2.3 -19.3 2.2 -19.5 2.35 -19.65 2.5 -19.6 2.3 -20.05 1.75 -20.05 1.25 -20.05 0.8 -19.45 0.6 -19.15 0.15 -18.15 -0.3 -17.2 -0.6 -16.8 -1.1 -16.2 -1.75 -16.2 -2.8 -16.2 -3.25 -17.1 -3.35 -17.4 -3.45 -18.25 -3.55 -19.0 -3.85 -19.45 -4.05 -19.8 -4.05 -20.3 -4.05 -21.0 -3.9 -21.25 -3.5 -21.95 -2.65 -21.85 L-1.9 -21.8 Q-1.45 -21.8 -1.1 -22.0 -0.45 -22.4 -0.45 -23.0 L-0.45 -23.3 Q-0.6 -23.4 -0.75 -23.6 L-1.05 -24.05 -1.35 -24.05 Q-1.3 -23.5 -1.9 -23.1 -2.35 -22.8 -2.7 -22.8 -3.55 -22.8 -3.8 -23.7 -3.95 -24.15 -3.9 -24.65 -3.9 -25.35 -3.7 -25.55 -3.4 -25.85 -3.2 -26.6 -3.05 -27.45 -2.0 -27.3 -1.55 -27.2 -1.25 -27.0 L-1.1 -26.9 -1.1 -26.85 Q-0.8 -26.7 -0.8 -26.2 -0.8 -25.9 -0.95 -25.55 L-0.6 -25.7 Q0.0 -25.85 0.5 -26.05 L0.5 -26.25 Q0.5 -26.8 0.55 -26.95 0.65 -27.3 1.15 -27.55 3.25 -27.2 4.05 -27.85 4.45 -28.2 4.4 -28.65 4.4 -28.85 4.2 -29.45 L4.15 -29.55 Q4.0 -29.75 3.75 -29.95 L2.75 -30.05 Q2.3 -30.05 1.95 -30.0 1.75 -30.15 1.5 -30.5 1.25 -30.85 1.25 -31.05 1.25 -31.4 1.5 -31.7 1.85 -32.15 2.4 -31.9 L3.15 -31.9 Q3.85 -32.95 4.55 -32.95 M4.25 -32.2 L3.85 -31.55 2.7 -31.15 Q4.6 -30.9 5.15 -30.05 L5.5 -31.55 Q5.25 -32.05 4.7 -32.2 L4.25 -32.2 M1.6 -34.15 Q1.35 -34.15 1.2 -34.35 1.15 -34.45 1.1 -34.55 1.1 -34.95 1.7 -35.15 2.25 -35.3 2.25 -34.85 2.25 -34.55 2.1 -34.35 1.9 -34.15 1.6 -34.15 M5.35 -28.65 L4.25 -26.8 2.0 -26.25 0.2 -24.1 0.85 -23.05 -0.35 -19.95 -1.25 -19.4 Q-0.8 -18.95 -0.65 -18.55 L-0.6 -18.4 -0.3 -19.0 0.15 -20.05 1.8 -20.8 2.55 -20.95 Q3.05 -20.8 3.05 -20.3 L3.15 -19.95 Q3.3 -19.7 3.35 -19.4 L3.4 -19.1 3.15 -18.5 3.05 -18.3 3.05 -17.95 3.0 -17.4 3.45 -16.85 Q3.9 -16.5 3.85 -16.3 L4.15 -16.55 4.6 -17.1 Q5.4 -17.95 6.3 -18.4 L8.35 -18.15 9.25 -16.7 9.95 -15.85 Q10.3 -15.7 10.75 -14.95 L11.65 -14.55 11.8 -14.4 Q12.15 -14.5 12.55 -14.9 L13.35 -15.5 13.45 -15.45 Q13.65 -15.6 13.75 -15.75 L13.65 -15.95 13.35 -16.0 13.15 -16.25 Q13.15 -16.35 13.35 -16.75 L13.55 -17.35 13.05 -16.9 12.55 -16.75 Q12.45 -17.1 12.55 -17.4 L12.2 -17.1 11.6 -17.1 11.0 -17.75 11.15 -18.0 11.35 -18.25 11.4 -18.3 10.9 -18.25 10.45 -18.5 Q10.45 -18.55 10.85 -18.95 L11.35 -19.4 Q11.3 -19.4 11.05 -19.3 L10.4 -19.45 Q10.4 -19.6 10.5 -19.65 L10.65 -19.8 Q10.05 -19.9 9.95 -20.35 L9.8 -23.35 10.05 -23.35 Q10.3 -23.35 10.6 -23.25 L11.0 -23.0 Q11.05 -23.2 10.9 -23.55 10.7 -23.9 10.7 -24.15 L12.1 -23.7 12.1 -25.15 13.1 -25.05 13.45 -25.0 13.3 -25.55 13.3 -26.2 14.2 -25.85 15.0 -25.4 Q15.0 -25.5 14.9 -25.8 L14.8 -26.3 15.4 -26.85 15.95 -27.25 16.3 -27.3 15.9 -28.7 Q15.5 -29.4 14.8 -29.45 L11.7 -31.0 11.1 -30.8 10.45 -30.2 9.4 -29.75 Q9.35 -29.8 9.35 -29.95 L7.25 -29.5 6.5 -29.1 Q6.4 -28.75 6.1 -28.75 5.65 -28.75 5.4 -29.2 L5.35 -28.65 M16.3 -26.6 L16.3 -26.6 M12.25 -17.7 Q12.4 -17.8 12.5 -17.95 12.35 -17.95 12.35 -17.8 L12.25 -17.75 12.25 -17.7 M1.3 -16.1 Q1.25 -15.7 1.4 -15.55 1.9 -15.05 2.45 -14.6 2.65 -14.75 2.9 -15.05 3.05 -15.15 3.3 -15.15 3.65 -15.15 3.9 -14.45 L4.05 -13.75 Q4.05 -13.15 3.6 -12.65 L3.35 -12.45 Q3.2 -12.3 3.1 -12.05 2.9 -11.7 2.7 -11.6 2.15 -11.65 1.8 -11.95 1.5 -12.25 1.55 -12.5 L0.75 -12.05 Q0.1 -11.7 -0.1 -11.7 -1.05 -11.7 -1.5 -12.5 -1.7 -12.95 -1.7 -13.35 -1.7 -13.85 -1.45 -14.2 L-0.85 -15.0 Q-0.7 -15.3 -0.5 -15.85 -0.25 -16.35 0.3 -16.55 1.15 -16.4 1.3 -16.1 M0.2 -15.05 L-0.95 -13.9 -1.2 -13.3 Q-1.2 -13.05 -0.95 -12.8 -0.75 -12.55 -0.4 -12.45 0.15 -12.55 0.5 -12.85 L1.2 -13.3 Q0.45 -13.65 0.3 -14.5 L0.2 -15.05 M-0.4 -33.7 Q-0.1 -33.5 -0.1 -33.25 -0.1 -33.0 -0.4 -32.7 -0.75 -32.4 -1.1 -32.4 -1.6 -32.4 -1.9 -32.65 -2.1 -32.9 -2.1 -33.1 -2.1 -33.95 -1.1 -33.9 -0.7 -33.9 -0.4 -33.7 M-2.6 -32.4 L-2.3 -32.4 Q-2.0 -32.15 -1.9 -32.05 -1.9 -31.95 -1.9 -31.65 -1.9 -31.25 -1.9 -31.2 -2.0 -31.0 -2.3 -30.65 -2.55 -30.85 -2.75 -31.3 -2.95 -31.65 -2.95 -31.8 -2.95 -32.05 -2.9 -32.1 -2.85 -32.25 -2.6 -32.4 M-2.5 -26.65 L-2.75 -25.6 Q-2.9 -25.4 -3.15 -25.0 L-3.25 -24.65 Q-3.25 -23.65 -2.7 -23.65 L-2.2 -23.8 -2.15 -24.5 Q-2.5 -24.55 -2.55 -24.8 L-2.6 -25.25 Q-2.6 -25.8 -2.3 -26.25 -2.15 -26.5 -2.0 -26.65 L-2.5 -26.65 M-4.65 -27.45 L-4.65 -27.2 -4.7 -27.15 Q-4.7 -27.1 -4.85 -27.1 -4.95 -27.1 -5.2 -27.4 -5.15 -27.35 -5.15 -27.2 -5.15 -27.0 -5.4 -26.6 -5.6 -26.2 -5.85 -26.2 L-6.05 -26.2 -6.2 -26.25 -6.3 -26.95 Q-6.3 -27.4 -5.75 -27.55 -5.45 -27.6 -5.3 -27.5 L-5.4 -27.65 Q-5.4 -27.9 -5.35 -27.85 -5.05 -28.05 -4.8 -27.85 -4.65 -27.7 -4.65 -27.45 M-6.75 -24.85 Q-6.75 -24.5 -6.8 -24.4 -6.9 -24.15 -7.1 -24.15 -7.65 -24.15 -7.75 -24.5 -7.8 -24.7 -7.75 -24.9 -7.75 -25.65 -7.25 -25.6 -6.75 -25.55 -6.75 -24.85 M-6.45 -23.3 Q-6.45 -22.95 -6.5 -22.8 -6.6 -22.5 -6.9 -22.5 -7.25 -22.5 -7.35 -22.8 L-7.3 -23.15 Q-7.3 -23.7 -6.9 -23.7 -6.45 -23.75 -6.45 -23.3 M-2.15 -21.1 L-2.85 -21.1 -2.8 -21.0 Q-2.5 -20.85 -2.4 -20.85 L-2.15 -21.1" fill="#ffdc45" fill-opacity="0.49803922" fill-rule="evenodd" stroke="none"/>
      <path d="M3.2 -34.85 L3.25 -35.0 2.9 -34.9 2.7 -34.85 2.6 -34.85 2.55 -34.95 Q2.65 -35.05 2.9 -35.15 3.15 -35.25 3.45 -35.25 L3.55 -35.05 3.6 -34.85 Q3.6 -34.8 3.4 -34.8 3.2 -34.8 3.2 -34.85 M4.15 -32.45 Q4.75 -32.7 5.25 -32.35 5.5 -32.2 5.85 -31.7 6.0 -31.0 6.25 -30.6 6.65 -29.95 7.0 -29.8 L7.7 -29.75 Q9.2 -29.75 10.35 -30.6 L11.1 -31.15 Q11.5 -31.4 11.75 -31.4 L11.95 -31.35 12.35 -31.3 13.9 -30.05 13.95 -30.05 14.0 -30.1 14.15 -29.9 Q14.4 -29.8 15.1 -29.6 15.75 -29.4 16.0 -29.0 16.1 -28.8 16.25 -28.4 L16.3 -28.35 Q16.55 -28.35 16.65 -28.15 16.75 -27.95 16.75 -27.65 16.75 -27.05 16.25 -27.0 L15.75 -27.05 15.65 -27.0 15.35 -26.75 15.1 -26.55 15.15 -26.55 15.05 -26.5 Q14.9 -26.3 14.9 -26.15 L14.85 -26.15 Q15.05 -25.8 15.05 -25.5 L14.95 -25.4 Q14.9 -25.4 14.15 -25.75 L13.35 -26.05 Q13.55 -25.85 13.6 -25.45 13.65 -24.9 13.7 -24.75 L13.65 -24.7 13.15 -24.85 12.2 -25.1 12.15 -25.1 Q12.25 -24.5 12.2 -23.65 12.2 -23.6 12.15 -23.55 L11.9 -23.75 Q11.7 -23.85 11.15 -23.9 L10.9 -23.9 10.75 -23.85 10.9 -23.75 10.85 -23.65 10.85 -23.5 10.95 -23.4 10.95 -23.65 11.0 -23.5 Q11.1 -23.25 11.1 -23.1 L11.1 -22.85 11.05 -22.8 10.9 -22.85 10.9 -22.95 10.85 -23.0 10.85 -22.9 10.8 -22.95 10.65 -23.05 9.9 -22.9 9.9 -22.7 Q9.9 -22.45 10.0 -21.5 10.1 -20.75 10.2 -20.4 L10.8 -20.3 10.95 -20.25 11.05 -20.25 Q11.1 -20.35 11.1 -20.25 L11.25 -20.15 11.1 -19.95 11.1 -20.15 Q11.1 -20.05 11.0 -20.0 L11.05 -19.95 11.05 -19.9 10.85 -19.7 10.65 -19.6 11.05 -19.6 11.45 -19.55 11.65 -19.45 Q11.5 -19.25 11.2 -19.1 L11.2 -19.2 11.1 -19.15 11.1 -19.05 11.15 -19.05 10.55 -18.75 10.45 -18.75 11.2 -18.7 11.65 -18.7 11.7 -18.75 11.7 -18.6 Q11.7 -18.45 11.55 -18.2 L11.3 -17.9 11.25 -17.9 Q11.4 -17.9 11.85 -18.05 12.25 -18.2 12.35 -18.25 L12.4 -18.3 Q12.45 -18.3 12.45 -18.1 12.45 -17.95 12.2 -17.65 L12.05 -17.45 12.3 -17.6 Q12.65 -17.9 12.75 -17.9 12.85 -17.5 12.7 -17.1 L13.1 -17.35 Q13.35 -17.6 13.45 -17.65 L13.65 -17.65 13.65 -17.2 13.35 -16.55 13.3 -16.4 13.7 -16.35 Q13.75 -16.0 13.75 -15.8 13.7 -15.45 13.45 -15.35 13.4 -15.05 13.15 -14.75 12.75 -14.35 12.0 -14.25 L12.05 -14.45 11.7 -14.3 Q11.6 -14.3 11.3 -14.4 L11.3 -14.45 Q11.25 -14.45 11.2 -14.45 11.25 -14.4 11.3 -14.4 L11.2 -14.4 Q10.75 -14.4 10.55 -14.55 10.4 -14.65 9.95 -15.2 L9.55 -15.25 9.2 -15.25 Q8.85 -15.0 8.7 -14.5 8.6 -14.1 8.25 -14.1 L7.9 -14.15 7.6 -14.35 7.3 -15.25 Q7.2 -15.55 7.2 -15.95 L7.5 -16.2 7.8 -16.0 8.55 -16.15 8.75 -16.75 Q8.75 -17.3 8.4 -17.6 L7.65 -18.2 7.65 -18.05 Q7.25 -18.3 7.1 -18.3 5.0 -17.6 4.55 -17.1 4.3 -16.85 4.1 -16.4 L4.05 -16.3 3.95 -16.0 Q3.85 -15.85 3.7 -15.75 3.6 -15.85 3.55 -16.25 3.55 -16.45 3.4 -16.5 3.3 -17.0 2.9 -17.0 2.85 -17.0 2.6 -16.85 2.4 -16.7 2.0 -16.7 L1.8 -16.7 1.6 -16.65 1.55 -16.7 Q1.5 -16.75 1.5 -16.9 1.5 -17.0 1.6 -17.1 L1.7 -17.2 Q2.35 -17.25 2.65 -17.55 2.85 -17.8 2.95 -18.2 L3.0 -18.2 3.0 -18.1 3.05 -18.35 Q3.1 -18.65 3.1 -19.4 3.1 -19.65 2.95 -20.55 L2.65 -20.6 2.6 -20.55 2.5 -20.55 Q2.4 -20.55 2.4 -20.6 L2.1 -20.55 2.25 -20.7 Q2.05 -20.7 1.8 -20.55 L1.65 -20.6 1.45 -20.6 Q1.1 -20.6 0.75 -20.1 L0.5 -19.55 0.05 -19.0 -0.15 -18.75 -0.1 -18.75 0.0 -18.85 Q-0.1 -18.7 -0.3 -18.0 -0.4 -17.5 -0.9 -17.3 -1.4 -17.4 -1.6 -17.65 -1.65 -17.8 -1.7 -18.1 -2.6 -18.0 -3.0 -18.9 -3.2 -19.35 -3.2 -20.1 -3.2 -20.15 -3.3 -20.3 -3.35 -20.4 -3.35 -20.5 -3.35 -20.75 -2.9 -21.2 -2.55 -21.65 -2.3 -21.75 L-2.05 -21.7 -1.85 -21.7 Q-0.8 -21.7 -0.6 -21.85 -0.4 -22.0 -0.05 -22.55 L0.15 -22.8 Q0.1 -22.8 0.1 -22.95 0.1 -23.0 0.25 -23.2 L0.4 -23.35 0.4 -23.65 Q0.25 -23.8 -0.1 -24.05 -0.45 -24.3 -0.45 -24.5 L-0.5 -24.55 -0.55 -24.75 -0.55 -24.95 Q-0.55 -25.3 -0.4 -25.35 L0.15 -25.45 Q0.25 -25.45 0.4 -25.5 L0.5 -25.55 0.5 -25.6 0.2 -25.5 Q0.05 -25.5 0.05 -25.55 0.3 -25.6 1.0 -26.15 1.5 -26.45 2.1 -26.45 2.05 -26.5 2.0 -26.55 L2.15 -26.55 2.4 -26.5 Q3.7 -26.5 4.4 -27.6 L4.6 -27.9 Q4.45 -27.9 4.45 -27.95 L4.5 -28.0 4.7 -28.05 4.8 -28.3 Q5.0 -28.95 4.8 -29.55 L4.65 -29.75 Q4.2 -30.15 3.0 -30.5 2.95 -30.5 2.95 -30.45 L2.95 -30.4 2.65 -30.4 2.65 -30.45 2.6 -30.45 2.6 -30.6 Q2.6 -30.75 2.7 -30.8 L2.65 -30.95 Q2.55 -31.2 2.55 -31.35 L2.55 -31.55 Q3.65 -31.5 3.8 -31.85 L3.85 -32.15 Q3.95 -32.35 4.15 -32.45 M2.2 -34.75 L2.1 -34.6 Q1.9 -34.6 1.55 -34.5 1.3 -34.45 1.25 -34.55 L1.25 -34.7 1.5 -35.0 Q1.9 -35.1 2.05 -35.1 L2.25 -35.05 2.25 -34.9 Q2.25 -34.85 2.2 -34.75 M1.0 -33.1 L0.95 -32.9 Q0.85 -32.7 0.65 -32.7 0.5 -32.7 0.45 -32.75 L0.45 -32.9 Q0.45 -33.05 0.55 -33.2 0.7 -33.35 1.0 -33.25 L1.0 -33.1 M5.6 -29.5 L5.6 -29.2 Q5.65 -29.05 5.8 -28.9 L5.95 -28.95 6.05 -29.0 Q6.2 -29.15 6.25 -29.3 L6.3 -29.4 6.35 -29.65 6.3 -29.7 Q6.25 -30.2 5.95 -30.15 5.6 -30.1 5.6 -29.5 M12.65 -17.6 L12.6 -17.55 12.65 -17.55 12.65 -17.6 M6.95 -26.0 Q7.15 -26.45 6.95 -26.9 L5.5 -26.3 4.85 -25.75 5.25 -25.4 Q5.5 -25.1 5.85 -25.05 6.7 -25.45 6.95 -26.0 M0.5 -16.5 L0.6 -16.45 Q0.7 -16.45 0.75 -16.3 L0.75 -16.25 Q0.75 -16.2 0.65 -16.0 0.45 -15.8 0.4 -15.6 0.35 -15.5 0.35 -15.35 L0.35 -15.05 Q0.35 -14.95 0.45 -14.7 L0.5 -14.4 Q0.5 -14.3 0.55 -14.15 0.65 -14.0 0.6 -13.9 L1.15 -13.9 Q1.3 -13.85 1.4 -13.7 1.55 -13.55 1.55 -13.5 L1.55 -12.85 1.4 -12.8 Q1.35 -12.7 1.25 -12.7 L1.05 -12.75 Q0.85 -12.75 0.35 -12.4 -0.1 -12.1 -0.3 -12.1 -0.35 -12.1 -0.5 -12.15 L-0.8 -12.25 -0.95 -12.45 -1.05 -12.7 Q-1.25 -12.8 -1.4 -13.1 -1.5 -13.3 -1.5 -13.4 -1.5 -13.55 -1.25 -13.85 -1.05 -14.15 -0.8 -14.3 -0.6 -14.45 -0.55 -14.7 L-0.5 -15.15 Q-0.3 -15.85 -0.15 -16.05 0.05 -16.35 0.45 -16.4 L0.5 -16.5 M0.9 -14.5 L0.85 -14.7 0.85 -14.9 Q1.1 -15.0 1.35 -14.75 1.65 -14.55 1.65 -14.4 1.65 -14.25 1.55 -14.15 1.45 -14.05 1.35 -14.05 L1.2 -14.1 Q1.15 -14.15 1.05 -14.25 0.9 -14.4 0.9 -14.5 M3.5 -14.7 L3.5 -14.6 3.4 -14.4 3.25 -13.85 3.25 -13.45 3.55 -13.4 3.6 -13.4 3.6 -13.25 Q3.6 -12.9 3.35 -12.6 3.0 -12.0 2.15 -12.0 1.95 -12.0 1.9 -12.25 1.85 -12.35 1.9 -12.5 1.9 -12.65 1.95 -12.75 L1.85 -12.95 1.8 -13.0 1.75 -13.0 Q1.7 -13.0 1.7 -13.1 1.7 -13.3 1.95 -13.35 L2.0 -13.45 Q2.7 -13.5 3.0 -13.95 L3.15 -14.4 Q3.3 -14.55 3.5 -14.7 M6.5 -15.75 L6.4 -15.35 6.25 -15.35 6.25 -15.6 Q6.25 -15.8 6.45 -15.95 L6.5 -15.9 6.5 -15.75 M7.1 -14.0 L7.15 -13.8 Q7.1 -13.7 7.0 -13.65 L6.85 -13.7 6.85 -14.0 7.1 -14.0 M-0.35 -33.9 Q-0.1 -33.65 -0.1 -33.55 -0.1 -33.3 -0.45 -33.2 -0.65 -33.05 -0.8 -33.05 L-1.25 -33.15 -1.5 -33.2 -1.85 -33.25 -2.05 -33.3 -2.05 -33.4 Q-2.05 -33.5 -2.0 -33.6 L-1.9 -33.75 -1.3 -33.8 -0.65 -33.9 -0.35 -33.9 M-1.55 -32.8 L-1.35 -32.75 Q-1.35 -32.7 -1.35 -32.5 -1.35 -32.35 -1.35 -32.25 L-1.5 -32.2 Q-1.8 -32.2 -1.85 -32.5 -1.85 -32.65 -1.7 -32.75 L-1.55 -32.8 M-2.3 -32.5 L-2.3 -32.25 -2.35 -31.9 Q-2.35 -31.8 -2.25 -31.7 -2.2 -31.6 -2.15 -31.6 -2.05 -31.6 -1.95 -31.5 L-1.95 -31.35 Q-1.95 -31.2 -2.1 -31.05 L-2.25 -30.95 Q-2.5 -30.95 -2.65 -31.5 L-2.8 -32.0 -2.8 -32.1 Q-2.8 -32.35 -2.75 -32.4 -2.7 -32.55 -2.3 -32.55 L-2.3 -32.5 M-1.2 -26.85 L-1.15 -26.8 -1.15 -26.75 -1.1 -26.7 -1.15 -26.7 -1.15 -26.6 -1.2 -26.55 Q-1.65 -26.7 -1.95 -26.45 L-2.0 -26.3 -2.15 -26.0 Q-2.2 -25.8 -2.4 -25.55 -2.6 -25.35 -2.6 -25.15 L-2.45 -24.8 -2.25 -24.8 Q-2.15 -24.95 -1.9 -24.95 -1.85 -25.15 -1.7 -25.35 L-1.5 -25.6 -1.25 -25.55 -1.15 -25.5 -1.15 -25.4 -0.95 -25.05 Q-0.85 -24.85 -0.8 -24.7 L-0.8 -24.45 -0.75 -24.3 -0.8 -24.25 -1.0 -24.3 -1.05 -24.3 -1.3 -24.45 -1.35 -24.4 -1.25 -24.4 Q-1.1 -24.35 -1.1 -24.3 L-1.4 -24.3 -1.55 -24.05 Q-1.7 -23.8 -1.85 -23.65 -2.05 -23.35 -2.7 -23.35 L-2.9 -23.4 -3.15 -23.5 -3.5 -24.15 Q-3.75 -24.7 -3.75 -24.75 L-3.75 -25.0 Q-3.75 -25.15 -3.65 -25.3 L-3.4 -25.65 -3.25 -25.65 -2.95 -26.0 Q-2.9 -26.1 -2.9 -26.3 L-2.9 -26.65 -2.85 -26.65 Q-2.85 -26.85 -2.8 -26.95 -2.6 -27.2 -2.05 -27.2 -1.8 -27.2 -1.55 -27.05 L-1.5 -27.05 -1.45 -27.0 -1.25 -26.95 -1.25 -26.9 -1.15 -26.9 -1.2 -26.85 M-1.35 -26.7 L-1.65 -26.65 -1.4 -26.65 -1.35 -26.7 M-4.95 -27.6 L-5.0 -27.6 -5.15 -27.55 Q-5.3 -27.55 -5.35 -27.65 L-5.4 -27.85 -5.4 -27.95 -5.35 -28.0 Q-5.1 -28.1 -4.9 -27.8 L-4.95 -27.6 M-5.75 -27.05 Q-5.85 -26.85 -6.05 -26.85 -6.2 -26.85 -6.35 -26.95 -6.25 -27.65 -6.0 -27.65 -5.85 -27.6 -5.8 -27.55 -5.7 -27.45 -5.7 -27.3 -5.7 -27.2 -5.75 -27.05 M-4.6 -26.0 Q-4.7 -25.85 -4.75 -25.85 L-4.95 -26.05 -4.9 -26.2 Q-4.8 -26.3 -4.65 -26.25 L-4.6 -26.0 M-5.0 -24.45 Q-4.95 -24.35 -4.95 -24.25 -5.05 -24.15 -5.15 -24.1 -5.3 -24.25 -5.35 -24.4 L-5.2 -24.45 -5.0 -24.45 M-1.65 -24.15 L-1.65 -24.2 -1.75 -23.95 Q-1.7 -24.05 -1.65 -24.15 M-7.25 -25.35 L-7.25 -25.1 -7.3 -24.85 -7.3 -24.55 -7.35 -24.5 Q-7.35 -24.45 -7.45 -24.45 -7.65 -24.45 -7.75 -25.05 -7.75 -25.35 -7.55 -25.55 -7.3 -25.5 -7.25 -25.35 M-6.8 -23.3 L-6.7 -22.95 -6.7 -22.85 Q-6.75 -22.8 -6.85 -22.8 -7.05 -22.8 -7.2 -23.05 -7.3 -23.2 -7.3 -23.4 L-7.25 -23.5 -7.1 -23.5 Q-6.9 -23.5 -6.8 -23.3 M-1.4 -19.55 Q-1.15 -19.55 -1.1 -19.65 -1.05 -19.75 -1.05 -19.95 -1.05 -20.25 -1.5 -20.7 -1.95 -21.1 -1.95 -20.25 L-1.95 -20.15 -1.9 -20.0 -1.9 -19.95 Q-1.8 -19.7 -1.6 -19.6 L-1.5 -19.55 -1.4 -19.55 M-0.65 -20.45 Q-0.55 -20.45 -0.5 -20.5 -0.4 -20.55 -0.4 -20.65 L-0.4 -20.8 -0.45 -20.85 -0.8 -20.85 Q-0.9 -20.8 -0.9 -20.65 L-0.9 -20.45 Q-0.85 -20.45 -0.65 -20.45 M-4.8 -19.1 Q-4.8 -19.5 -4.5 -19.55 -4.2 -19.6 -4.2 -19.25 -4.2 -19.05 -4.3 -18.95 -4.4 -18.85 -4.55 -18.85 -4.7 -18.85 -4.75 -18.95 L-4.8 -19.1 M-4.0 -16.15 Q-3.9 -16.1 -3.85 -15.95 L-3.9 -15.85 Q-3.95 -15.8 -4.0 -15.8 -4.15 -15.85 -4.2 -15.95 L-4.15 -16.1 -4.0 -16.15 M-4.9 -17.5 Q-4.85 -17.7 -4.75 -17.7 -4.6 -17.6 -4.6 -17.5 L-4.6 -17.45 -4.85 -17.45 -4.9 -17.5 M-6.15 -12.45 L-6.15 -12.35 -6.35 -12.3 -6.4 -12.3 -6.5 -12.4 -6.45 -12.55 -6.35 -12.7 -6.15 -12.45" fill="#ffff66" fill-opacity="0.49803922" fill-rule="evenodd" stroke="none"/>
      <path d="M3.5 -35.05 L3.4 -35.0 3.2 -34.95 3.0 -34.95 2.85 -35.0 2.8 -35.1 3.0 -35.2 Q3.1 -35.2 3.1 -35.25 L3.5 -35.15 3.5 -35.05 M2.2 -34.9 Q2.2 -34.8 2.1 -34.65 2.0 -34.55 1.85 -34.5 L1.55 -34.7 Q1.5 -34.75 1.5 -34.8 1.5 -34.9 1.65 -35.05 1.8 -35.25 2.15 -35.1 L2.2 -35.1 2.2 -34.9 M3.9 -31.55 Q4.2 -31.85 4.55 -32.05 5.4 -32.55 5.4 -31.55 5.4 -31.45 4.8 -30.95 4.25 -30.45 4.2 -30.45 3.75 -30.45 3.65 -30.75 3.6 -30.9 3.65 -31.1 3.65 -31.25 3.9 -31.55 M8.3 -28.85 Q8.75 -28.6 9.3 -28.6 9.75 -28.6 10.4 -28.75 L11.25 -28.95 11.45 -29.05 11.8 -29.25 Q11.9 -29.35 11.85 -29.45 L11.85 -29.75 Q11.85 -30.05 12.05 -30.15 12.15 -30.3 12.4 -30.3 12.6 -30.3 12.7 -30.2 L12.85 -30.2 Q13.3 -30.2 13.55 -29.9 13.8 -29.55 14.45 -29.5 L14.5 -29.4 Q15.25 -29.3 15.7 -28.95 16.15 -28.6 16.15 -28.15 L16.15 -27.95 16.2 -27.85 Q16.35 -27.6 16.35 -27.3 L16.25 -27.2 Q16.15 -27.2 15.95 -27.3 L15.6 -27.35 14.95 -27.35 Q14.9 -27.3 14.6 -27.25 14.7 -26.95 14.7 -26.45 14.7 -26.05 14.65 -25.85 L14.3 -26.1 13.9 -26.4 13.2 -26.35 13.3 -26.15 Q13.35 -26.05 13.35 -25.9 L13.3 -25.45 13.2 -24.95 12.55 -25.5 11.8 -25.5 11.9 -24.85 12.0 -24.15 11.95 -24.1 11.65 -24.1 11.5 -24.25 11.25 -24.3 10.6 -24.3 Q10.6 -23.55 10.7 -23.2 L10.75 -23.15 10.55 -23.1 Q10.4 -23.1 10.2 -23.25 10.0 -23.4 10.05 -23.4 L9.7 -23.45 9.55 -23.45 9.6 -23.35 Q8.95 -23.3 8.85 -22.7 L8.8 -22.25 8.8 -21.8 Q8.8 -21.4 8.35 -21.4 7.8 -21.4 7.6 -21.6 7.45 -21.8 7.5 -22.15 L7.5 -22.9 Q7.5 -23.3 7.25 -23.6 L7.25 -23.55 7.2 -23.5 7.15 -23.5 Q7.05 -23.25 6.4 -23.15 L6.15 -23.2 5.85 -23.25 5.6 -23.5 Q5.35 -23.7 5.05 -24.0 L4.45 -23.95 Q4.25 -23.85 4.2 -23.5 L4.1 -22.85 Q4.05 -22.35 3.85 -22.15 3.85 -21.8 3.75 -21.7 3.6 -21.55 3.15 -21.55 2.1 -21.55 1.6 -22.3 1.3 -22.8 1.3 -23.35 1.3 -23.55 1.55 -24.0 1.8 -24.45 1.8 -24.5 1.8 -24.65 1.7 -24.8 1.6 -24.95 1.6 -25.05 1.6 -25.2 1.7 -25.6 1.85 -26.1 2.05 -26.2 L2.75 -26.15 3.1 -26.1 Q3.75 -26.1 4.4 -26.55 5.1 -27.0 5.15 -27.5 5.3 -28.35 5.35 -28.5 5.55 -28.95 6.05 -28.95 L6.9 -28.9 Q7.0 -29.15 7.55 -29.15 7.85 -29.15 8.3 -28.85 M9.35 -29.65 Q9.35 -30.15 10.2 -30.3 11.0 -30.4 11.0 -29.85 11.0 -29.6 10.7 -29.3 10.4 -28.95 10.05 -28.95 9.6 -28.95 9.45 -29.3 9.35 -29.5 9.35 -29.65 M13.1 -16.7 Q13.1 -16.6 13.3 -16.3 13.45 -16.0 13.45 -15.8 L13.45 -15.35 Q13.35 -15.1 13.1 -14.85 13.05 -14.75 12.9 -14.7 L12.85 -14.7 Q12.5 -14.45 11.5 -14.45 10.75 -14.45 10.3 -15.0 9.95 -15.4 9.95 -15.8 L10.1 -16.15 Q10.2 -16.45 10.2 -16.55 10.2 -16.75 9.8 -17.4 9.4 -18.0 9.1 -18.15 8.5 -18.6 8.2 -18.85 7.8 -19.25 7.8 -19.6 7.8 -20.35 7.9 -20.65 8.1 -21.35 8.8 -21.15 8.95 -21.05 9.2 -20.4 9.25 -20.25 9.3 -20.2 L9.5 -20.15 10.45 -20.1 10.55 -20.1 Q10.6 -20.1 10.6 -19.95 10.6 -19.9 10.5 -19.75 L10.3 -19.55 Q11.1 -19.6 11.25 -19.3 11.25 -19.25 10.9 -19.0 10.5 -18.75 10.45 -18.6 L10.9 -18.5 11.3 -18.45 11.4 -18.3 11.15 -17.95 11.1 -17.9 11.45 -17.9 11.8 -17.95 Q12.0 -17.8 11.95 -17.65 11.95 -17.5 11.8 -17.3 L12.05 -17.35 12.4 -17.3 Q12.5 -16.9 12.35 -16.65 L12.75 -16.95 13.05 -17.2 13.15 -17.2 13.15 -17.0 Q13.1 -16.8 13.1 -16.7 M7.15 -26.3 L7.1 -26.65 Q6.3 -26.75 5.8 -26.35 5.35 -25.85 5.0 -25.65 L5.3 -25.35 Q5.4 -25.25 5.65 -25.15 6.45 -25.15 6.85 -25.6 7.15 -25.9 7.15 -26.3 M6.1 -22.15 L6.1 -21.85 Q6.0 -21.65 5.65 -21.55 L5.15 -21.55 Q4.95 -21.6 4.8 -21.8 4.7 -21.95 4.7 -22.1 4.7 -22.3 4.75 -22.35 L4.8 -22.4 Q5.4 -22.7 5.75 -22.7 L6.05 -22.4 Q6.1 -22.3 6.1 -22.15 M4.7 -19.85 Q4.7 -20.5 5.45 -20.5 5.75 -20.55 5.95 -20.35 6.2 -20.2 6.2 -19.9 6.2 -19.75 6.15 -19.6 6.05 -19.4 5.85 -19.4 L5.05 -19.5 Q4.7 -19.65 4.7 -19.85 M3.8 -19.85 Q4.05 -19.55 4.05 -19.15 L4.0 -18.95 Q3.95 -18.8 3.8 -18.7 L3.15 -19.55 Q3.15 -19.7 3.3 -19.8 L3.4 -19.85 3.8 -19.85 M4.6 -18.9 Q5.45 -18.85 5.75 -18.7 6.1 -18.55 6.1 -18.15 6.1 -17.6 5.35 -17.6 4.85 -17.6 4.6 -17.9 4.4 -18.1 4.4 -18.2 4.4 -18.45 4.5 -19.1 L4.6 -19.1 4.6 -18.9 M2.85 -17.65 Q3.25 -17.7 3.6 -17.35 3.95 -17.05 3.95 -16.85 3.95 -16.7 3.8 -16.6 3.7 -16.5 3.55 -16.5 3.25 -16.5 3.0 -16.85 2.8 -17.15 2.8 -17.4 2.8 -17.65 2.85 -17.65 M2.8 -12.2 L2.4 -12.0 2.1 -12.15 2.05 -12.2 2.05 -12.35 Q2.05 -12.7 2.5 -12.8 3.0 -12.9 3.0 -12.45 3.0 -12.3 2.8 -12.2 M0.0 -12.4 Q-0.8 -12.5 -1.0 -12.75 -1.05 -12.85 -1.05 -13.15 -1.05 -13.95 -0.45 -13.95 0.1 -13.9 0.75 -13.05 0.2 -12.4 0.0 -12.4 M-0.75 -33.95 Q-0.45 -33.7 -0.45 -33.65 -0.45 -33.45 -0.7 -33.3 -1.0 -33.15 -1.2 -33.15 -1.45 -33.15 -1.45 -33.2 L-1.5 -33.25 Q-1.5 -33.3 -1.5 -33.45 -1.5 -33.55 -1.35 -33.7 -1.25 -33.85 -1.05 -33.95 L-0.75 -33.95 M-2.3 -31.65 Q-2.35 -31.6 -2.4 -31.55 -2.65 -31.65 -2.65 -31.75 L-2.65 -32.05 Q-2.45 -32.05 -2.3 -31.75 L-2.3 -31.65 M-2.25 -26.75 Q-2.1 -26.85 -1.9 -26.85 L-1.9 -26.75 -2.15 -26.45 Q-2.3 -26.3 -2.4 -26.3 L-2.45 -26.5 Q-2.4 -26.65 -2.25 -26.75 M-2.35 -25.15 Q-2.3 -25.0 -2.3 -24.85 -2.3 -24.75 -2.4 -24.65 -2.5 -24.55 -2.5 -24.4 -2.5 -24.3 -2.4 -24.25 -2.3 -24.2 -2.3 -24.1 -2.3 -23.95 -2.4 -23.8 -2.45 -23.7 -2.6 -23.7 -3.1 -23.7 -3.3 -24.15 -3.35 -24.4 -3.35 -24.65 -3.35 -24.95 -3.2 -25.1 -3.05 -25.25 -2.5 -25.35 L-2.35 -25.15 M-1.95 -21.45 Q-1.8 -21.4 -1.8 -21.05 -1.8 -20.9 -1.95 -20.65 -2.05 -20.45 -2.05 -20.35 -2.05 -20.1 -1.85 -19.75 -1.65 -19.4 -1.65 -19.1 -1.65 -19.0 -1.75 -18.9 -1.85 -18.75 -2.05 -18.75 -2.5 -18.75 -2.75 -19.6 -2.85 -20.05 -2.85 -20.5 -2.85 -21.1 -2.3 -21.4 -2.1 -21.55 -1.95 -21.45 M-0.9 -17.95 Q-1.2 -17.95 -1.5 -18.55 -1.5 -18.85 -1.0 -18.95 -0.5 -19.0 -0.5 -18.55 -0.5 -17.95 -0.9 -17.95" fill="#ffffff" fill-opacity="0.49803922" fill-rule="evenodd" stroke="none"/>
    </g>
    <g id="shape1" transform="matrix(1.0, 0.0, 0.0, 1.0, 8.05, 35.65)">
      <path d="M3.55 -35.45 L3.55 -35.3 Q3.55 -35.15 3.4 -35.0 3.2 -34.8 2.9 -34.8 L2.75 -34.8 2.55 -34.85 2.55 -34.9 Q2.5 -34.9 2.5 -35.05 2.5 -35.3 2.85 -35.5 L3.5 -35.5 3.55 -35.45 M3.4 -32.4 Q2.8 -31.75 2.05 -31.75 1.45 -31.05 1.45 -30.85 L2.05 -30.2 Q2.3 -30.35 2.35 -30.75 L2.5 -31.4 Q2.7 -32.25 4.35 -32.25 L4.45 -32.25 4.5 -32.3 Q4.7 -32.65 5.05 -32.8 4.7 -33.1 4.25 -33.1 4.05 -33.1 3.85 -32.9 L3.4 -32.4 M3.75 -33.35 Q4.15 -33.55 4.35 -33.55 5.25 -33.55 5.8 -32.8 6.15 -32.35 6.25 -31.85 L6.15 -31.65 6.0 -31.7 Q6.0 -31.4 5.95 -31.3 5.9 -31.2 5.7 -31.05 L6.2 -30.4 Q6.4 -30.15 6.95 -30.15 L7.2 -30.2 7.5 -30.8 7.8 -31.35 Q7.95 -31.7 8.2 -31.9 8.55 -32.1 9.25 -32.25 10.1 -32.45 10.65 -32.15 L11.35 -31.6 Q11.8 -31.25 12.45 -31.1 L13.65 -31.0 Q14.4 -30.95 14.8 -30.85 15.4 -30.65 15.75 -30.1 16.2 -29.45 16.4 -29.0 16.65 -28.45 16.65 -27.9 L16.6 -27.6 Q16.85 -27.35 16.85 -27.0 16.85 -26.75 16.35 -26.6 15.75 -26.4 15.1 -26.55 15.3 -26.0 15.3 -25.25 L15.25 -25.0 15.1 -24.95 Q14.8 -25.05 14.6 -25.25 L14.15 -25.6 14.0 -25.65 Q14.15 -24.8 14.15 -24.6 14.15 -24.25 13.9 -24.25 L13.2 -24.5 12.5 -24.7 Q12.5 -24.55 12.55 -24.25 L12.6 -23.8 12.6 -23.45 Q12.5 -23.25 12.25 -23.15 11.75 -23.25 11.5 -23.4 11.6 -23.1 11.55 -22.85 11.55 -22.4 11.15 -22.4 11.0 -22.4 10.8 -22.55 10.6 -22.7 10.35 -22.7 L10.35 -22.25 Q10.35 -21.85 10.45 -21.65 10.55 -21.1 10.6 -20.9 10.75 -20.55 11.3 -20.55 L11.6 -20.25 Q11.6 -20.1 11.5 -20.0 L11.35 -19.9 11.8 -19.8 11.85 -19.65 Q11.65 -19.25 11.25 -18.85 L11.25 -18.8 11.35 -18.8 11.8 -18.85 12.05 -18.65 Q12.1 -18.6 12.45 -18.5 12.5 -18.3 12.35 -18.05 12.6 -18.2 12.85 -18.3 13.15 -18.15 13.1 -17.9 12.95 -17.65 12.95 -17.45 L13.45 -18.1 13.6 -18.1 Q13.9 -17.9 13.95 -17.75 L13.95 -17.35 Q13.95 -17.2 13.85 -16.85 13.75 -16.5 13.75 -16.4 L14.05 -16.0 14.05 -15.75 Q14.05 -15.35 13.55 -14.8 13.05 -14.2 12.55 -14.2 L12.45 -14.2 Q12.25 -14.05 11.9 -13.85 11.2 -13.45 10.65 -13.45 9.95 -13.45 9.55 -14.25 L9.3 -14.75 Q9.1 -15.0 8.85 -15.0 8.6 -15.0 8.5 -14.7 8.45 -14.6 8.3 -14.05 8.1 -13.05 7.4 -13.05 6.4 -13.05 6.05 -14.0 5.85 -14.45 5.85 -14.9 5.85 -15.6 6.0 -15.75 6.1 -15.95 7.0 -16.65 7.5 -16.65 7.7 -16.45 7.95 -16.25 8.1 -16.25 L8.3 -16.3 8.35 -16.4 8.4 -16.45 8.4 -16.6 Q8.4 -16.85 8.2 -17.1 7.85 -17.5 7.25 -17.5 L7.05 -17.45 6.8 -17.4 Q5.2 -16.0 4.3 -15.6 L3.4 -15.6 Q2.55 -16.5 2.45 -16.65 2.35 -16.8 2.35 -17.4 2.35 -17.8 2.6 -18.55 L2.85 -19.3 Q2.85 -19.45 2.7 -19.65 L2.45 -19.95 Q2.4 -20.05 2.15 -20.05 1.9 -20.05 1.25 -19.65 0.6 -19.2 0.45 -19.2 -0.45 -19.2 -0.8 -19.85 -0.95 -20.2 -0.95 -20.55 -0.95 -21.1 -0.35 -21.65 0.25 -22.2 0.25 -22.4 0.25 -22.65 -0.2 -23.2 -0.65 -23.8 -0.65 -24.4 L-0.6 -25.1 Q-0.5 -25.45 0.05 -25.85 0.4 -26.1 2.15 -26.25 L2.25 -26.25 2.25 -26.35 Q2.25 -26.9 2.6 -27.25 2.8 -27.45 3.35 -27.75 3.85 -28.05 4.1 -28.3 4.4 -28.7 4.4 -29.25 L4.25 -30.0 Q4.1 -30.55 4.1 -30.75 L4.05 -30.6 Q3.95 -30.4 3.4 -30.2 3.25 -29.95 2.75 -29.7 2.3 -29.45 2.15 -29.45 1.4 -29.45 1.0 -30.1 0.7 -30.55 0.7 -30.85 0.7 -31.7 1.6 -32.45 1.7 -32.55 2.15 -32.55 2.6 -32.6 2.7 -32.65 L3.75 -33.35 M1.95 -35.15 L2.0 -34.95 Q1.95 -34.75 1.8 -34.6 1.6 -34.4 1.45 -34.4 1.2 -34.4 1.1 -34.65 1.05 -34.75 1.05 -34.9 1.05 -35.1 1.25 -35.15 L1.55 -35.2 1.95 -35.15 M0.85 -33.25 Q0.85 -33.1 0.65 -32.95 0.45 -32.85 0.4 -32.85 0.15 -32.85 0.1 -33.05 0.05 -33.15 0.05 -33.25 0.05 -33.55 0.45 -33.55 0.85 -33.55 0.85 -33.25 M4.85 -30.65 L5.05 -29.75 Q5.25 -29.35 5.25 -29.25 L4.95 -27.55 Q4.95 -27.25 4.8 -27.0 L2.65 -25.6 1.25 -25.45 0.55 -24.25 0.8 -23.5 Q1.05 -23.1 1.05 -22.65 L1.0 -21.95 Q0.85 -21.5 0.15 -21.15 L1.3 -20.6 Q1.7 -20.8 2.15 -20.8 3.0 -20.8 3.35 -20.05 L3.35 -18.4 3.6 -18.4 4.9 -17.95 Q5.15 -18.1 5.5 -18.1 L7.3 -18.3 9.05 -17.25 9.0 -15.95 Q9.2 -15.9 9.55 -15.6 L10.3 -14.65 Q10.55 -14.25 10.65 -14.25 L12.15 -14.95 12.9 -14.9 Q13.6 -15.5 13.6 -15.7 13.6 -15.85 13.35 -15.95 L13.05 -16.2 Q13.05 -16.3 13.3 -16.75 L13.5 -17.4 Q13.3 -17.3 13.05 -16.9 L12.4 -16.65 12.35 -16.8 12.45 -17.05 12.55 -17.25 12.55 -17.35 12.25 -17.1 11.7 -17.6 11.1 -17.6 10.95 -17.65 Q10.9 -17.7 10.9 -17.85 L10.35 -18.7 Q10.35 -19.05 10.8 -19.1 L11.25 -19.35 Q10.85 -19.3 10.3 -19.15 L10.1 -19.45 10.35 -19.85 Q10.0 -20.5 9.9 -20.85 L9.9 -22.25 9.95 -22.35 9.9 -22.65 Q9.9 -23.0 10.0 -23.15 10.1 -23.3 10.25 -23.3 L10.65 -23.2 11.05 -23.05 11.1 -23.15 Q11.1 -23.3 10.9 -23.6 10.75 -23.9 10.8 -24.2 L10.8 -24.25 11.0 -24.3 Q11.05 -24.3 11.5 -24.0 L12.15 -23.8 Q12.15 -24.2 11.95 -25.25 L12.0 -25.3 Q12.05 -25.35 12.2 -25.35 12.35 -25.35 12.95 -25.15 13.55 -24.9 13.6 -24.9 L13.4 -26.1 14.9 -25.75 Q14.7 -26.3 14.7 -26.6 14.7 -26.8 15.0 -27.0 16.05 -27.0 16.35 -27.0 16.55 -27.3 16.55 -27.4 L15.9 -28.65 Q15.4 -29.5 15.0 -29.95 L11.0 -30.35 Q10.7 -30.35 10.45 -30.5 10.25 -30.65 9.75 -30.65 L6.7 -29.2 6.1 -29.25 Q5.85 -29.35 5.85 -29.55 L5.2 -30.35 4.85 -30.65 M0.4 -18.65 Q0.45 -18.55 0.45 -18.25 0.45 -17.8 0.05 -17.15 -0.55 -16.3 -1.45 -16.3 -1.9 -16.3 -2.8 -16.8 -3.75 -17.35 -4.0 -17.85 L-4.45 -18.7 Q-4.55 -19.0 -4.55 -19.35 L-4.45 -20.1 Q-4.35 -20.8 -4.35 -21.1 -4.35 -21.5 -3.85 -22.1 -3.3 -22.65 -2.8 -22.7 -2.3 -22.4 -2.0 -21.9 -1.65 -21.45 -1.65 -21.05 -1.65 -20.9 -1.75 -20.5 L-1.85 -19.95 Q-1.85 -19.8 -1.8 -19.7 L-1.7 -19.5 -0.7 -19.35 Q0.0 -19.3 0.15 -19.05 L0.4 -18.65 M0.8 -15.3 Q1.35 -15.3 1.35 -14.5 1.35 -14.3 1.2 -14.05 1.05 -13.75 0.75 -13.75 0.4 -13.75 0.3 -14.1 0.25 -14.3 0.3 -14.45 0.3 -15.25 0.8 -15.3 M0.25 -14.9 Q0.25 -14.35 0.3 -14.1 0.35 -13.85 0.35 -13.55 0.35 -13.25 0.1 -12.7 -0.2 -12.0 -0.6 -12.0 -1.25 -12.0 -1.55 -12.65 -1.7 -12.95 -1.7 -13.25 L-1.45 -13.9 Q-1.1 -14.2 -0.95 -14.6 L-0.25 -15.9 Q0.25 -16.0 0.3 -15.6 L0.25 -14.9 M6.7 -14.45 L6.75 -15.4 Q6.6 -15.2 6.6 -14.85 6.6 -14.55 6.7 -14.45 M3.5 -11.9 Q3.3 -11.5 2.6 -11.5 2.3 -11.5 2.15 -11.85 2.05 -12.05 2.05 -12.25 2.05 -12.55 2.3 -12.8 2.6 -13.1 3.3 -13.1 3.65 -12.85 3.65 -12.6 3.65 -12.15 3.5 -11.9 M1.85 -13.6 Q1.85 -13.9 2.4 -14.1 2.95 -14.35 2.95 -13.85 2.95 -13.65 2.8 -13.45 2.6 -13.25 2.3 -13.25 2.0 -13.25 1.9 -13.45 1.85 -13.5 1.85 -13.6 M-0.75 -34.3 Q-0.55 -34.15 -0.45 -33.95 L-0.4 -33.85 Q-0.4 -33.6 -0.5 -33.45 -0.6 -33.3 -0.85 -33.15 L-1.25 -33.15 Q-1.4 -33.2 -1.55 -33.4 -1.7 -33.6 -1.7 -33.7 -1.7 -33.9 -1.55 -34.05 -1.4 -34.25 -1.15 -34.3 L-0.75 -34.3 M-2.6 -31.85 Q-2.5 -31.85 -2.5 -31.65 -2.5 -31.6 -2.7 -31.45 -2.85 -31.35 -3.0 -31.3 L-3.0 -31.25 Q-3.05 -31.3 -3.05 -31.45 -3.05 -31.75 -2.7 -31.85 L-2.6 -31.85 M-2.85 -32.05 L-2.95 -31.95 Q-3.15 -32.1 -3.25 -32.2 -3.35 -32.35 -3.35 -32.5 -3.35 -32.75 -3.05 -32.7 -2.75 -32.65 -2.75 -32.25 -2.75 -32.1 -2.85 -32.05 M-1.55 -27.45 Q-1.25 -27.15 -1.25 -27.1 -1.25 -26.85 -1.7 -26.35 -2.25 -25.75 -2.75 -25.75 -3.25 -25.75 -3.35 -26.15 -3.4 -26.4 -3.35 -26.6 -3.35 -27.1 -3.25 -27.35 -2.95 -27.95 -1.95 -27.85 -1.8 -27.75 -1.55 -27.45 M-5.1 -28.15 Q-4.9 -28.05 -4.8 -27.85 L-5.0 -27.65 Q-5.15 -27.55 -5.3 -27.55 L-5.4 -27.6 -5.4 -28.15 -5.1 -28.15 M-4.65 -25.5 Q-4.4 -25.9 -3.3 -25.8 -2.6 -25.25 -2.4 -24.8 -2.25 -24.45 -2.25 -23.9 -2.25 -23.65 -2.55 -23.25 -2.9 -22.75 -3.2 -22.65 -3.85 -22.65 -4.15 -23.0 -4.3 -23.15 -4.5 -23.7 -4.65 -23.95 -4.7 -24.3 -4.75 -24.6 -4.75 -24.8 -4.75 -25.35 -4.65 -25.5 M-3.5 -21.3 Q-3.6 -21.05 -3.6 -20.65 L-3.8 -19.35 Q-3.8 -18.7 -3.4 -18.25 -2.85 -17.7 -1.4 -17.05 L-1.1 -17.2 Q-2.3 -18.0 -2.75 -19.3 L-3.0 -21.4 -3.5 -21.3 M-2.0 -22.0 L-2.0 -22.2 Q-2.0 -22.55 -1.6 -22.65 -1.2 -22.7 -1.2 -22.3 -1.2 -22.2 -1.3 -22.05 -1.45 -21.85 -1.65 -21.85 L-1.85 -21.9 -2.0 -21.95 -2.0 -22.0 M-6.15 -27.0 Q-6.35 -26.85 -6.4 -26.85 -6.65 -26.85 -6.7 -27.05 L-6.75 -27.3 Q-6.75 -27.65 -6.3 -27.75 -5.9 -27.85 -5.9 -27.35 -5.9 -27.2 -6.15 -27.0 M-7.35 -25.05 Q-7.5 -24.8 -7.7 -24.8 -8.0 -24.8 -8.05 -25.0 -8.05 -25.1 -8.05 -25.25 -8.05 -25.75 -7.65 -25.75 -7.25 -25.75 -7.25 -25.45 -7.25 -25.25 -7.35 -25.05 M-6.7 -23.0 L-6.7 -22.8 -6.75 -22.7 -6.8 -22.65 Q-6.85 -22.6 -7.0 -22.6 L-7.2 -22.65 -7.3 -22.7 -7.3 -23.15 Q-7.2 -23.45 -7.05 -23.6 -6.7 -23.45 -6.7 -23.0" fill="#ffdc45" fill-rule="evenodd" stroke="none"/>
      <path d="M3.1 -35.5 L3.05 -35.3 2.85 -35.25 2.8 -35.3 2.8 -35.4 2.9 -35.5 2.95 -35.65 Q3.1 -35.6 3.1 -35.5 M4.0 -33.15 L4.05 -33.2 3.9 -33.2 4.0 -33.15 M4.15 -33.25 Q4.65 -33.45 5.25 -33.0 5.55 -32.8 5.8 -32.45 6.05 -32.15 6.05 -31.95 6.05 -31.75 6.0 -31.7 L5.5 -31.4 5.4 -31.4 Q5.35 -31.45 5.35 -31.55 5.35 -31.65 5.45 -31.75 5.5 -31.85 5.5 -31.95 5.5 -32.1 5.2 -32.4 L4.85 -32.4 4.75 -31.95 Q4.65 -31.65 4.4 -31.45 L3.5 -31.45 Q3.45 -31.35 3.4 -31.25 L3.1 -31.25 2.75 -30.9 3.1 -30.55 3.2 -30.4 3.3 -30.3 3.3 -30.0 Q3.35 -30.0 3.3 -30.0 L3.3 -29.95 3.2 -29.95 3.2 -30.0 Q3.0 -30.0 2.8 -30.1 L2.2 -30.2 Q1.65 -30.05 1.5 -30.3 1.4 -30.4 1.3 -30.75 1.25 -30.9 1.2 -31.15 1.15 -31.35 1.15 -31.5 1.15 -31.85 1.35 -32.0 1.65 -32.2 2.75 -32.35 L3.05 -32.75 3.05 -32.85 Q3.15 -33.2 3.35 -33.25 L3.4 -33.25 3.55 -33.4 Q3.7 -33.35 3.95 -33.25 L4.15 -33.25 M1.5 -34.85 L1.25 -35.05 1.5 -35.3 1.7 -35.05 1.5 -34.85 M0.6 -33.5 L0.65 -33.45 0.65 -33.3 0.55 -33.2 0.35 -32.95 Q0.1 -33.05 0.1 -33.25 0.1 -33.35 0.2 -33.45 0.35 -33.55 0.6 -33.5 M5.0 -30.85 Q5.35 -30.85 5.7 -30.4 L5.95 -29.95 6.25 -29.65 6.85 -29.6 Q7.35 -29.6 7.85 -30.0 L8.7 -30.75 Q9.8 -31.7 11.1 -31.05 L12.35 -30.65 13.2 -30.45 14.15 -30.35 15.0 -30.25 Q15.3 -30.15 15.65 -29.6 16.0 -29.0 16.35 -28.8 16.25 -28.75 16.1 -28.8 L16.25 -28.4 16.3 -28.35 Q16.55 -28.35 16.65 -28.15 16.75 -27.95 16.75 -27.65 16.75 -27.05 16.25 -27.0 L15.75 -27.05 Q15.2 -26.8 14.95 -26.65 L15.15 -26.55 15.0 -26.45 14.75 -26.35 14.85 -26.2 Q15.05 -25.8 15.05 -25.5 L14.95 -25.4 Q14.9 -25.4 14.15 -25.75 L13.35 -26.05 Q13.55 -25.85 13.6 -25.45 13.65 -24.9 13.7 -24.75 L13.65 -24.7 13.15 -24.85 12.2 -25.1 12.15 -25.1 Q12.25 -24.5 12.2 -23.65 12.2 -23.6 12.15 -23.55 L11.9 -23.75 Q11.7 -23.85 11.15 -23.9 L10.9 -23.9 10.75 -23.85 10.85 -23.6 10.95 -23.5 10.95 -23.65 11.0 -23.5 Q11.1 -23.25 11.1 -23.1 L11.1 -22.85 11.05 -22.8 10.9 -22.85 10.9 -22.9 10.85 -22.85 10.75 -23.0 Q10.7 -23.0 10.65 -23.05 L9.9 -22.9 9.9 -22.7 Q9.9 -22.45 10.0 -21.5 10.1 -20.75 10.2 -20.4 L10.8 -20.3 11.0 -20.25 11.15 -20.2 11.25 -20.15 11.1 -19.95 11.1 -20.1 11.05 -20.0 11.05 -19.9 10.85 -19.7 10.65 -19.6 11.1 -19.55 11.45 -19.65 11.5 -19.55 11.45 -19.55 11.65 -19.45 Q11.5 -19.25 11.2 -19.1 L11.2 -19.15 11.1 -19.1 11.1 -19.05 11.15 -19.05 10.55 -18.75 11.2 -18.7 11.65 -18.7 11.7 -18.75 11.7 -18.6 Q11.7 -18.45 11.55 -18.2 L11.3 -17.9 11.25 -17.9 Q11.4 -17.9 11.85 -18.05 12.25 -18.2 12.35 -18.25 L12.4 -18.3 Q12.45 -18.3 12.45 -18.1 12.45 -17.95 12.2 -17.65 L12.05 -17.45 12.3 -17.6 Q12.65 -17.9 12.75 -17.9 12.85 -17.5 12.7 -17.1 L13.1 -17.35 Q13.35 -17.6 13.45 -17.65 L13.65 -17.65 13.65 -17.2 13.35 -16.55 13.3 -16.4 13.7 -16.35 Q13.75 -16.0 13.75 -15.8 13.7 -15.45 13.45 -15.35 13.4 -15.05 13.15 -14.75 12.8 -14.4 12.15 -14.3 L12.15 -14.35 11.75 -14.2 Q11.15 -13.9 10.85 -13.9 10.1 -13.9 9.85 -14.6 L9.6 -15.2 Q9.55 -15.4 9.4 -15.5 9.35 -15.45 9.25 -15.45 L9.05 -15.65 8.95 -15.7 8.6 -15.7 Q8.45 -15.65 8.35 -15.55 L8.05 -15.25 7.7 -15.0 Q7.6 -14.85 7.6 -14.75 7.6 -14.6 7.75 -14.4 L7.9 -14.1 Q7.9 -13.85 7.75 -13.5 L7.65 -13.45 7.5 -13.4 Q7.15 -13.4 6.8 -14.0 6.55 -14.45 6.55 -14.6 6.55 -14.65 6.6 -14.85 L6.65 -15.1 6.5 -15.5 Q6.5 -15.95 6.95 -16.3 L7.4 -16.3 Q7.75 -16.0 7.5 -15.8 L7.6 -15.65 Q7.65 -15.6 7.75 -15.6 8.1 -15.6 8.35 -15.8 L8.3 -15.8 8.55 -16.35 Q8.75 -16.9 8.75 -16.95 8.75 -17.15 8.25 -17.55 7.75 -18.0 7.4 -18.0 6.85 -18.0 5.9 -17.55 5.3 -17.3 5.05 -17.2 L5.05 -17.05 5.0 -17.0 4.9 -16.95 4.7 -16.95 Q4.4 -16.95 4.0 -17.1 L3.9 -17.15 3.8 -17.1 3.8 -17.2 Q3.55 -17.3 3.4 -17.5 3.25 -17.65 3.25 -17.9 L3.25 -18.75 Q3.2 -19.2 3.1 -19.55 L2.95 -19.95 2.9 -20.0 2.75 -20.2 Q2.65 -20.25 2.2 -20.35 L2.0 -20.4 1.75 -20.45 Q1.65 -20.45 1.25 -20.25 0.85 -20.1 0.35 -20.1 0.15 -20.1 0.05 -20.6 L-0.05 -21.15 Q-0.05 -21.5 0.4 -21.9 0.85 -22.25 0.85 -22.65 0.85 -22.85 0.55 -23.25 L0.15 -23.7 0.15 -23.85 0.4 -23.75 0.4 -23.85 0.45 -24.3 Q0.45 -25.1 0.85 -25.5 1.0 -25.65 1.25 -25.75 L1.4 -25.95 1.85 -25.95 1.75 -25.9 1.85 -25.9 2.9 -26.0 Q4.2 -26.45 4.6 -27.3 4.65 -27.5 4.75 -27.85 L4.55 -27.65 4.6 -27.85 Q4.8 -28.65 4.8 -29.05 L4.8 -29.15 Q4.9 -29.4 4.9 -29.5 4.9 -29.7 4.8 -30.05 4.7 -30.35 4.7 -30.5 4.7 -30.85 5.0 -30.85 M5.2 -30.3 L5.2 -30.25 5.25 -30.25 5.2 -30.3 M12.65 -17.6 L12.6 -17.55 12.65 -17.55 12.65 -17.6 M6.95 -26.0 Q7.15 -26.45 6.95 -26.9 L5.5 -26.3 4.85 -25.75 5.25 -25.4 Q5.5 -25.1 5.85 -25.05 6.7 -25.45 6.95 -26.0 M4.7 -27.45 L4.7 -27.45 4.45 -26.85 Q4.6 -27.1 4.7 -27.45 M0.7 -14.35 Q0.7 -14.65 0.95 -14.5 1.25 -14.4 1.3 -14.15 L1.2 -14.0 Q1.1 -13.95 1.0 -13.95 0.85 -13.95 0.75 -14.15 L0.7 -14.35 M3.35 -12.55 L3.55 -12.5 3.6 -12.45 Q3.65 -12.4 3.65 -12.3 3.65 -12.05 3.35 -11.75 3.0 -11.4 2.7 -11.4 2.45 -11.4 2.25 -11.55 2.05 -11.7 2.05 -11.85 2.05 -12.05 2.15 -12.15 2.3 -12.3 2.65 -12.15 L2.95 -12.2 Q3.1 -12.4 3.35 -12.55 M0.2 -12.4 Q0.1 -12.25 -0.05 -12.25 -0.35 -12.25 -0.55 -12.5 L-0.65 -12.75 Q-0.65 -13.15 -0.15 -13.1 0.35 -13.05 0.35 -12.7 0.35 -12.5 0.2 -12.4 M-0.65 -34.25 L-0.65 -34.15 Q-0.65 -34.0 -0.75 -33.9 L-0.95 -33.9 Q-1.2 -33.9 -1.4 -34.1 -1.3 -34.25 -1.05 -34.3 L-0.65 -34.3 -0.65 -34.25 M-2.15 -33.7 L-2.2 -33.6 Q-2.2 -33.55 -2.3 -33.55 L-2.45 -33.55 Q-2.5 -33.6 -2.5 -33.7 -2.5 -33.8 -2.4 -33.9 -2.35 -33.95 -2.3 -33.95 -2.2 -33.95 -2.15 -33.7 M-1.7 -33.05 Q-1.5 -33.1 -1.5 -32.85 L-1.5 -32.7 -1.6 -32.65 Q-1.65 -32.6 -1.7 -32.6 L-1.9 -32.75 Q-1.95 -32.75 -1.95 -32.85 -1.95 -33.0 -1.7 -33.05 M-2.8 -32.5 L-3.0 -32.4 -3.15 -32.6 -3.05 -32.65 Q-3.0 -32.7 -3.0 -32.8 L-2.85 -32.7 Q-2.8 -32.6 -2.8 -32.5 M-3.05 -31.85 L-2.95 -31.65 Q-2.9 -31.55 -2.9 -31.45 L-2.9 -31.35 -2.95 -31.3 Q-3.05 -31.35 -3.1 -31.4 -3.15 -31.45 -3.15 -31.55 L-3.1 -31.75 -3.1 -31.85 -3.05 -31.85 M-2.45 -26.85 Q-2.7 -26.5 -3.25 -26.3 -3.35 -26.45 -3.35 -26.55 L-3.35 -27.3 Q-3.25 -27.5 -2.9 -27.7 L-2.55 -27.65 Q-2.45 -27.65 -2.25 -27.75 -2.1 -27.85 -1.8 -27.7 L-1.7 -27.6 Q-1.65 -27.55 -1.65 -27.45 -1.65 -27.15 -1.8 -27.15 L-2.2 -27.2 -2.45 -26.85 M-5.05 -27.95 L-5.15 -27.9 -5.3 -27.9 Q-5.35 -27.9 -5.35 -28.0 -5.35 -28.15 -5.25 -28.2 L-5.15 -28.25 Q-5.0 -28.2 -4.95 -28.1 L-5.05 -27.95 M-3.5 -25.7 L-3.5 -25.65 -3.7 -25.65 -3.6 -25.45 -3.45 -25.3 Q-3.35 -25.1 -3.35 -25.0 -3.35 -24.95 -3.45 -24.85 -3.6 -24.75 -3.6 -24.7 L-3.35 -24.1 Q-3.0 -24.0 -2.9 -23.75 L-2.8 -23.35 Q-2.9 -23.25 -3.2 -23.2 L-3.55 -23.15 Q-3.95 -23.15 -4.3 -23.5 -4.6 -23.85 -4.6 -24.0 -4.6 -24.1 -4.45 -24.35 L-4.2 -24.8 -4.25 -25.2 -4.3 -25.5 Q-4.3 -25.7 -4.0 -25.75 L-3.55 -25.75 -3.5 -25.7 M-4.2 -21.45 Q-4.2 -21.55 -4.15 -21.6 L-4.05 -21.7 -3.65 -21.95 -3.35 -22.15 Q-2.6 -22.3 -2.6 -21.95 -2.6 -21.85 -2.75 -21.75 -2.9 -21.6 -2.9 -21.55 -2.9 -21.45 -2.8 -21.3 -2.65 -21.2 -2.65 -21.0 L-2.6 -20.5 -2.4 -20.05 Q-2.2 -19.55 -2.2 -19.1 -2.2 -18.6 -1.6 -18.45 L-0.45 -18.3 Q-0.15 -18.1 -0.15 -18.0 -0.15 -17.8 -0.3 -17.6 -0.5 -17.35 -0.8 -17.25 L-1.25 -17.0 Q-1.65 -16.8 -1.75 -16.8 -2.0 -16.8 -2.35 -17.1 -2.65 -17.3 -2.75 -17.5 -2.85 -17.7 -3.1 -17.9 L-3.65 -18.3 Q-3.75 -18.35 -3.8 -18.45 -3.85 -18.55 -4.0 -18.7 -4.25 -18.9 -4.25 -19.1 L-4.3 -19.45 -4.35 -19.55 -4.4 -19.95 Q-4.4 -20.05 -4.2 -20.6 -4.0 -21.1 -4.0 -21.2 -4.0 -21.3 -4.1 -21.3 -4.2 -21.35 -4.2 -21.45 M-6.35 -27.35 Q-6.45 -27.25 -6.55 -27.2 L-6.7 -27.3 Q-6.5 -27.85 -6.15 -27.5 L-6.35 -27.35 M-7.65 -25.1 L-7.85 -25.0 -7.95 -25.05 Q-8.0 -25.1 -8.0 -25.25 -8.0 -25.5 -7.85 -25.5 -7.65 -25.5 -7.65 -25.25 L-7.65 -25.1 M-7.15 -23.0 L-7.2 -22.95 -7.3 -22.95 Q-7.45 -23.0 -7.5 -23.05 L-7.5 -23.25 Q-7.5 -23.55 -7.3 -23.5 -7.1 -23.5 -7.1 -23.25 L-7.15 -23.0 M-4.7 -19.2 Q-4.7 -19.1 -4.75 -19.05 L-4.85 -19.0 -5.05 -19.25 Q-5.05 -19.4 -5.0 -19.45 L-4.75 -19.45 -4.7 -19.35 -4.7 -19.2 M-0.25 -16.1 Q-0.15 -15.95 -0.15 -15.75 L-0.4 -15.25 Q-0.65 -14.75 -0.65 -14.45 -0.65 -14.2 -1.05 -13.7 -1.45 -13.2 -1.45 -13.15 -1.45 -13.1 -1.3 -12.95 -1.15 -12.85 -1.15 -12.7 L-1.15 -12.6 -1.2 -12.5 Q-1.25 -12.45 -1.35 -12.45 -1.45 -12.45 -1.55 -12.55 L-1.8 -12.75 Q-1.95 -12.8 -2.05 -12.9 -2.15 -13.0 -2.15 -13.1 L-2.2 -13.4 -2.2 -13.7 Q-2.2 -14.0 -1.85 -14.2 -1.65 -14.3 -1.1 -14.45 -1.0 -14.65 -0.95 -15.2 -0.95 -15.55 -0.55 -15.8 L-0.5 -16.0 Q-0.45 -16.05 -0.25 -16.1 M-1.2 -14.2 L-1.05 -14.4 -1.3 -14.2 -1.2 -14.2" fill="#ffff66" fill-rule="evenodd" stroke="none"/>
      <path d="M4.0 -33.1 L4.5 -33.05 Q4.75 -32.95 4.75 -32.7 4.75 -32.55 4.35 -32.15 3.95 -31.7 3.7 -31.7 3.45 -31.7 3.35 -32.05 3.25 -32.25 3.25 -32.4 3.25 -32.95 4.0 -33.1 M1.6 -31.7 Q1.75 -31.95 2.3 -31.8 2.4 -31.2 2.4 -30.95 L2.4 -30.75 2.35 -30.65 2.25 -30.6 Q2.2 -30.5 2.05 -30.5 1.7 -30.5 1.6 -30.85 1.55 -31.05 1.55 -31.25 1.55 -31.6 1.6 -31.7 M4.8 -29.1 Q4.9 -29.5 5.5 -29.5 6.1 -29.5 6.5 -29.15 L7.05 -28.55 7.75 -28.5 8.3 -28.55 8.1 -28.3 Q8.5 -28.35 8.85 -28.45 9.2 -28.6 9.55 -28.75 L10.1 -28.75 Q10.45 -29.1 10.8 -29.6 11.0 -29.9 11.6 -29.9 12.15 -29.9 12.35 -29.7 12.55 -29.45 12.95 -29.45 L13.75 -29.5 14.3 -29.6 Q15.5 -29.6 16.1 -28.75 16.4 -28.3 16.5 -27.75 L16.45 -27.8 16.55 -27.6 16.55 -27.1 14.75 -27.1 Q14.85 -26.85 14.85 -26.55 L14.8 -26.0 14.8 -25.95 Q14.75 -25.95 14.7 -25.9 L13.45 -26.4 13.25 -26.35 13.45 -25.9 13.45 -25.1 13.4 -25.1 13.35 -25.05 Q12.85 -25.0 12.8 -25.15 12.7 -25.3 12.55 -25.3 L11.9 -25.3 Q12.05 -24.75 12.05 -24.4 L12.05 -24.1 12.0 -24.05 Q11.85 -24.1 11.6 -24.15 L11.25 -24.25 10.6 -24.2 10.9 -23.75 10.9 -23.2 10.95 -23.15 Q10.9 -23.1 10.75 -23.1 L10.35 -23.2 9.4 -23.3 Q9.1 -22.95 8.75 -22.05 8.35 -21.0 8.35 -20.55 8.35 -20.3 8.35 -20.25 8.45 -20.05 8.7 -19.9 L9.0 -19.85 9.1 -20.0 9.25 -20.15 9.65 -20.15 9.75 -20.1 10.55 -20.1 10.6 -20.15 10.6 -20.0 10.25 -19.65 10.5 -19.55 10.85 -19.5 10.9 -19.5 10.95 -19.35 Q10.95 -19.25 10.8 -19.1 L10.55 -18.9 10.25 -18.85 10.55 -18.8 11.25 -18.7 11.35 -18.65 Q11.4 -18.6 11.4 -18.45 11.4 -18.3 11.15 -18.05 10.95 -17.85 10.7 -17.7 11.15 -17.6 11.2 -17.55 11.4 -17.6 11.55 -17.65 L11.7 -17.75 12.0 -17.7 12.05 -17.55 12.05 -17.4 12.25 -17.45 12.5 -17.5 Q12.55 -17.6 12.55 -17.35 12.55 -17.2 12.5 -17.05 L12.35 -16.7 12.75 -17.05 Q13.05 -17.3 13.2 -17.3 L13.2 -16.95 13.15 -16.55 13.45 -15.65 Q13.45 -15.25 13.45 -15.15 L12.75 -14.6 12.6 -14.65 12.45 -14.65 11.9 -14.85 11.45 -14.95 11.35 -14.75 11.25 -14.45 Q11.2 -14.4 11.1 -14.35 L11.0 -14.3 10.5 -14.3 Q9.3 -15.05 9.3 -16.05 9.3 -16.3 9.35 -16.4 9.45 -16.6 9.9 -16.5 L9.9 -16.55 Q9.85 -16.6 9.9 -16.7 9.9 -16.9 9.75 -17.05 L9.8 -17.15 9.85 -17.15 10.0 -17.05 10.0 -17.15 Q10.0 -18.0 8.95 -18.45 7.85 -18.75 7.75 -18.8 7.35 -19.0 7.1 -19.6 6.85 -20.1 6.85 -20.45 6.85 -20.85 7.4 -21.65 7.9 -22.45 7.9 -22.9 7.9 -23.05 7.75 -23.15 L7.5 -23.25 Q7.0 -22.05 6.8 -21.95 L6.15 -21.95 Q5.5 -22.25 5.2 -22.85 5.0 -23.35 5.15 -23.8 L5.2 -23.8 5.0 -23.85 Q4.4 -23.8 4.3 -23.15 L4.2 -22.75 Q4.1 -22.55 3.8 -22.55 3.4 -22.55 3.05 -23.4 2.85 -23.8 2.75 -24.2 2.75 -24.9 3.95 -25.75 L4.75 -26.35 Q5.1 -26.7 5.1 -26.95 L4.9 -27.2 Q4.7 -27.45 4.7 -27.7 L4.7 -28.3 Q4.7 -28.95 4.8 -29.1 M10.6 -30.6 Q10.65 -30.55 10.65 -30.4 10.65 -30.05 10.3 -29.8 10.0 -29.55 9.6 -29.55 L9.4 -29.55 9.25 -29.6 9.25 -29.9 Q9.25 -30.15 9.45 -30.3 9.6 -30.45 10.05 -30.65 L10.4 -30.65 10.6 -30.6 M6.95 -25.8 Q7.15 -26.35 7.05 -26.75 6.3 -26.65 5.9 -26.4 L5.0 -25.75 Q5.15 -25.55 5.3 -25.45 L5.65 -25.15 6.05 -25.15 Q6.65 -25.15 6.95 -25.8 M2.55 -23.15 L2.5 -22.5 Q2.5 -22.15 2.75 -21.95 3.05 -21.65 3.85 -21.55 L4.0 -21.35 Q4.1 -21.2 4.1 -21.1 4.1 -20.9 3.9 -20.65 L3.55 -20.35 2.75 -20.35 2.45 -20.6 2.2 -20.55 2.0 -20.5 Q1.25 -20.5 0.95 -21.0 0.8 -21.25 0.8 -21.5 0.8 -21.8 0.95 -22.55 1.05 -23.3 1.05 -23.55 L0.95 -24.6 Q0.95 -25.3 1.6 -25.3 2.1 -25.3 2.6 -23.95 L2.55 -23.15 M5.2 -21.7 L5.1 -21.6 Q5.05 -21.5 4.9 -21.5 4.7 -21.5 4.6 -21.7 4.6 -21.8 4.55 -21.9 4.55 -22.35 4.85 -22.15 5.05 -22.0 5.2 -21.7 M5.05 -20.1 Q5.7 -19.9 5.7 -19.5 5.7 -19.4 5.65 -19.3 5.55 -19.15 5.35 -19.0 L5.05 -19.0 Q4.7 -19.25 4.4 -19.9 4.4 -20.35 5.05 -20.1 M5.3 -17.75 Q5.3 -17.5 5.2 -17.4 5.15 -17.35 4.85 -17.2 4.3 -17.25 3.9 -17.6 3.55 -17.95 3.55 -18.2 3.55 -19.4 4.45 -18.7 4.7 -18.5 5.05 -18.1 L5.3 -17.75 M3.1 -11.45 Q3.05 -11.3 2.8 -11.3 2.65 -11.3 2.4 -11.45 2.25 -11.6 2.2 -11.65 2.35 -11.9 2.65 -11.9 2.9 -11.9 3.15 -11.65 L3.1 -11.45 M-2.65 -27.05 Q-2.8 -26.85 -2.9 -26.8 L-3.05 -26.8 Q-3.1 -26.85 -3.1 -27.0 -3.1 -27.15 -2.9 -27.3 -2.75 -27.4 -2.55 -27.4 L-2.5 -27.45 Q-2.45 -27.4 -2.45 -27.25 L-2.65 -27.05 M-3.25 -23.85 Q-3.25 -23.6 -3.3 -23.5 -3.4 -23.3 -3.65 -23.3 -4.0 -23.3 -4.1 -23.6 -4.15 -23.7 -4.15 -23.85 -4.15 -24.85 -3.7 -24.75 -3.25 -24.65 -3.25 -23.85 M-2.1 -17.95 L-1.9 -17.95 Q-1.65 -17.95 -1.4 -17.75 -1.25 -17.6 -1.25 -17.45 L-1.25 -17.25 -1.35 -17.2 Q-1.45 -17.1 -1.6 -17.1 -1.95 -17.1 -2.05 -17.45 -2.1 -17.65 -2.1 -17.85 L-2.1 -17.95 M-2.9 -19.2 Q-2.95 -18.9 -3.2 -18.9 -3.75 -18.9 -3.95 -19.4 -4.05 -19.65 -4.05 -19.95 -4.05 -20.35 -3.9 -20.65 -3.7 -21.15 -3.15 -20.95 L-2.9 -20.2 Q-2.85 -19.95 -2.85 -19.6 -2.85 -19.3 -2.9 -19.2 M-1.4 -13.3 Q-1.6 -13.05 -1.85 -13.0 L-2.2 -13.1 -2.2 -13.45 Q-2.2 -13.9 -1.75 -13.95 -1.3 -14.0 -1.3 -13.55 -1.3 -13.45 -1.4 -13.3" fill="#ffffff" fill-rule="evenodd" stroke="none"/>
    </g>
  </defs>
</svg>
