<?xml version="1.0" encoding="UTF-8" standalone="no"?>
<svg xmlns:ffdec="https://www.free-decompiler.com/flash" xmlns:xlink="http://www.w3.org/1999/xlink" ffdec:objectType="frame" height="568.3px" width="112.4px" xmlns="http://www.w3.org/2000/svg">
  <g transform="matrix(1.0, 0.0, 0.0, 1.0, -192.8, 363.5)">
    <use ffdec:characterId="295" height="568.3" transform="matrix(1.0, 0.0, 0.0, 1.0, 192.8, -363.5)" width="112.4" xlink:href="#shape0"/>
  </g>
  <defs>
    <g id="shape0" transform="matrix(1.0, 0.0, 0.0, 1.0, -192.8, 363.5)">
      <path d="M294.2 200.45 L295.9 198.7 Q300.55 194.35 302.3 193.7 L302.25 181.7 302.25 181.4 302.45 181.4 302.45 -314.25 302.3 -314.25 302.3 -314.4 302.3 -315.85 302.3 -334.6 302.3 -348.6 302.3 -349.8 302.3 -350.1 302.25 -350.15 Q301.3 -350.75 300.35 -352.05 299.6 -353.05 299.45 -353.8 L296.05 -357.2 294.4 -359.1 293.45 -360.4 293.25 -360.35 291.35 -360.35 289.55 -360.65 287.95 -360.55 287.2 -360.5 285.3 -360.5 285.3 -360.0 207.6 -360.0 206.1 -360.0 205.85 -360.0 204.4 -360.05 201.6 -356.9 Q199.35 -354.6 197.4 -353.05 L196.05 -351.25 195.6 -350.65 195.45 -350.55 195.45 -350.45 195.5 -349.25 195.35 -349.25 195.35 -346.95 195.25 -346.0 195.25 -345.9 195.25 -334.6 195.25 -327.1 195.25 -322.7 195.3 -321.6 195.3 -320.55 195.3 -315.85 195.3 -314.65 195.3 -314.25 195.25 -314.25 195.25 20.3 195.25 66.8 195.2 188.95 195.25 189.0 195.5 189.7 195.45 190.95 195.45 191.05 195.5 191.1 Q195.95 191.35 195.95 192.15 L195.95 192.85 195.95 192.9 197.45 194.45 Q202.8 199.85 203.15 201.2 L206.1 201.5 207.6 201.7 207.6 202.05 210.85 202.1 212.05 202.1 213.1 202.1 214.05 202.1 214.05 202.2 269.3 202.2 279.2 202.2 284.55 202.2 285.3 202.2 285.3 201.45 287.2 201.4 287.95 201.4 289.5 201.35 291.95 201.35 293.25 201.7 294.2 200.45 M293.5 -363.45 Q294.65 -363.45 294.8 -362.7 303.15 -355.6 303.65 -353.1 L304.25 -352.65 304.6 -351.85 304.7 -351.8 305.05 -349.25 305.05 -348.15 305.05 -346.95 305.05 -346.8 305.05 -343.1 305.1 -343.1 305.1 -341.8 305.1 -340.55 305.1 -327.1 305.1 -325.75 305.15 -325.75 305.2 -313.05 305.2 -312.7 305.2 -301.95 305.2 -272.9 305.2 -271.75 305.2 -257.35 305.2 -250.15 305.2 193.8 Q305.05 194.85 304.65 195.1 L304.4 195.2 Q303.95 196.1 299.75 199.8 L295.1 203.85 294.45 203.85 294.2 204.0 293.8 204.15 292.85 204.1 291.05 204.3 287.95 204.4 287.2 204.4 287.2 204.7 282.65 204.7 282.25 204.7 214.95 204.7 214.05 204.7 214.05 204.75 210.85 204.75 210.05 204.8 208.35 204.7 208.35 204.65 207.6 204.65 206.85 204.6 206.1 204.65 204.5 204.55 203.55 204.25 203.05 204.3 Q202.5 204.3 202.05 203.8 L201.55 203.1 Q200.3 202.25 196.15 197.3 192.95 193.5 193.1 192.1 193.0 191.8 193.05 191.4 192.85 190.75 192.8 189.5 L192.8 180.05 192.85 180.05 192.85 -349.5 192.8 -349.5 192.85 -349.85 192.85 -351.0 192.95 -351.3 Q192.4 -351.7 194.0 -353.3 194.6 -354.25 195.8 -355.4 L197.5 -356.85 197.7 -357.1 Q202.4 -362.65 203.7 -362.7 L203.75 -362.7 204.55 -362.65 204.6 -362.7 206.1 -362.75 207.6 -362.85 207.6 -363.3 209.6 -363.3 210.85 -363.3 212.05 -363.3 212.05 -363.35 213.1 -363.35 214.3 -363.35 214.5 -363.35 214.95 -363.35 215.0 -363.35 220.35 -363.35 279.75 -363.35 282.25 -363.4 287.95 -363.45 293.5 -363.45" fill="#92a387" fill-rule="evenodd" stroke="none"/>
      <path d="M294.4 -359.1 L294.2 -358.95 294.2 -358.85 Q294.2 -358.15 292.7 -356.45 L292.0 -355.65 292.1 -355.5 291.4 -354.95 290.8 -354.8 289.55 -354.75 287.95 -354.75 287.2 -354.75 287.2 -354.5 283.85 -354.5 283.15 -354.5 282.95 -354.5 264.95 -354.5 263.6 -354.5 214.05 -354.5 214.05 -354.45 210.85 -354.45 209.55 -354.45 206.65 -354.5 206.35 -354.05 206.1 -353.85 204.95 -352.9 203.8 -351.5 201.85 -349.1 201.65 -346.9 201.65 -343.1 201.7 -343.1 201.7 -334.6 201.75 -334.6 201.75 -327.1 201.8 -327.1 201.8 -325.75 201.85 -325.75 201.85 -324.6 201.85 -324.2 201.85 -315.85 201.85 -314.25 201.85 -313.35 201.85 -308.25 201.9 -192.55 201.9 -131.6 201.9 -131.1 201.9 -130.75 201.9 180.05 201.95 180.05 201.85 190.45 203.3 191.85 Q205.2 193.75 206.1 195.2 L206.35 195.6 206.9 195.6 207.6 195.6 208.35 195.6 208.95 195.5 209.2 195.5 209.75 195.6 210.65 195.55 210.85 195.55 214.05 195.55 214.05 195.6 282.95 195.6 283.15 195.6 283.35 195.6 283.6 195.5 287.95 195.5 288.3 195.5 290.5 195.2 291.2 195.2 291.95 195.45 Q291.95 196.85 292.75 198.3 L293.6 199.5 293.75 200.0 294.2 200.45 293.25 201.7 291.95 201.35 289.5 201.35 287.95 201.4 287.2 201.4 285.3 201.45 285.3 202.2 284.55 202.2 279.2 202.2 269.3 202.2 214.05 202.2 214.05 202.1 213.1 202.1 212.05 202.1 210.85 202.1 207.6 202.05 207.6 201.7 206.1 201.5 203.15 201.2 Q202.8 199.85 197.45 194.45 L195.95 192.85 195.95 192.15 Q195.95 191.35 195.5 191.1 L195.45 190.95 195.5 189.7 195.25 189.0 195.2 188.95 195.25 66.8 195.25 20.3 195.25 -314.25 195.3 -314.25 195.3 -314.65 195.3 -315.85 195.3 -320.55 195.3 -321.6 195.25 -322.7 195.25 -327.1 195.25 -334.6 195.35 -334.6 195.35 -346.95 195.35 -349.25 195.5 -349.25 195.45 -350.45 195.6 -350.65 196.05 -351.25 197.4 -353.05 Q199.35 -354.6 201.6 -356.9 L204.4 -360.05 205.85 -360.0 206.1 -360.0 207.6 -360.0 285.3 -360.0 285.3 -360.5 287.2 -360.5 287.95 -360.55 289.55 -360.65 291.35 -360.35 293.25 -360.35 293.45 -360.4 294.4 -359.1" fill="#6a7c5f" fill-rule="evenodd" stroke="none"/>
      <path d="M291.4 -354.95 L292.1 -355.5 292.0 -355.65 292.7 -356.45 Q294.2 -358.15 294.2 -358.85 L294.2 -358.95 294.4 -359.1 296.05 -357.2 299.45 -353.8 Q299.6 -353.05 300.35 -352.05 301.3 -350.75 302.25 -350.15 L302.3 -349.8 302.3 -348.6 302.2 -345.9 302.2 -344.85 302.2 -343.1 302.25 -343.1 302.25 -334.6 302.3 -334.6 302.3 -315.85 302.3 -314.4 302.3 -314.25 302.45 -314.25 302.45 181.4 302.25 181.4 302.25 181.7 302.3 193.7 Q300.55 194.35 295.9 198.7 L294.2 200.45 293.75 200.0 293.6 199.5 292.75 198.3 Q291.95 196.85 291.95 195.45 L291.95 194.85 292.1 194.8 292.4 194.75 293.8 193.15 296.45 190.8 296.25 190.1 296.3 189.9 296.3 186.75 296.15 186.45 296.2 180.05 296.5 180.05 296.5 -325.75 296.55 -325.75 296.55 -327.1 296.6 -327.1 296.6 -334.6 296.85 -334.6 296.85 -343.1 296.95 -343.1 296.95 -344.85 296.95 -347.85 296.6 -348.1 296.6 -348.35 291.85 -354.05 291.4 -354.95" fill="#a4b39c" fill-rule="evenodd" stroke="none"/>
    </g>
  </defs>
</svg>
