<?xml version="1.0" encoding="UTF-8" standalone="no"?>
<svg xmlns:ffdec="https://www.free-decompiler.com/flash" xmlns:xlink="http://www.w3.org/1999/xlink" ffdec:objectType="frame" height="744.25px" width="739.95px" xmlns="http://www.w3.org/2000/svg">
  <g transform="matrix(1.0, 0.0, 0.0, 1.0, 488.3, 435.95)">
    <clipPath id="clipPath0" transform="matrix(7.0, 0.0, 0.0, 7.0, -107.1, 12.75)">
      <path d="M51.25 0.65 L-22.4 0.65 -22.4 -64.1 51.25 -64.1 51.25 0.65" fill="#608c38" fill-rule="evenodd" stroke="none"/>
    </clipPath>
    <g clip-path="url(#clipPath0)">
      <use ffdec:characterId="2107" height="54.2" transform="matrix(7.0, 0.0, 1.7477, 3.1404, -419.0331, 85.724)" width="26.3" xlink:href="#shape1"/>
    </g>
    <use ffdec:characterId="2108" height="14.45" transform="matrix(7.0, 0.0, 0.0, 7.0, -323.75, -34.85)" width="74.15" xlink:href="#shape2"/>
  </g>
  <defs>
    <g id="shape1" transform="matrix(1.0, 0.0, 0.0, 1.0, 9.9, 50.4)">
      <path d="M12.25 -35.5 Q12.75 -38.25 13.85 -40.85 15.15 -44.15 15.3 -47.6 14.9 -45.9 14.25 -43.9 L14.1 -43.5 Q14.35 -44.4 14.5 -45.3 L13.85 -43.75 12.85 -41.0 Q12.35 -39.6 12.15 -38.1 L12.25 -38.15 12.0 -37.45 Q11.05 -34.95 11.05 -32.15 L10.95 -32.5 Q10.5 -31.1 10.25 -29.3 9.8 -26.0 8.7 -23.0 8.05 -21.15 7.3 -19.35 L4.2 -14.65 Q4.85 -18.1 6.35 -21.3 L6.5 -21.6 6.45 -21.55 7.3 -23.1 Q9.35 -26.9 10.1 -30.95 10.85 -35.1 11.85 -38.95 L11.35 -38.45 15.3 -47.9 Q15.7 -47.3 15.4 -46.25 L14.75 -42.45 14.75 -42.55 Q14.2 -41.4 13.9 -40.05 13.45 -37.9 12.45 -35.95 L12.25 -35.5 M11.2 -31.05 L11.45 -31.75 Q12.05 -32.2 12.3 -32.9 L12.65 -33.75 Q11.95 -30.95 11.1 -28.15 11.35 -29.6 11.2 -31.05 M7.35 -2.15 L7.1 -1.8 7.9 -1.85 Q5.6 -0.95 3.25 -0.2 L3.45 0.8 7.05 -0.2 7.15 0.0 6.9 1.05 7.0 1.3 8.0 0.8 8.5 0.45 8.75 1.05 8.4 1.65 Q8.1 1.8 7.75 2.0 L6.75 1.9 6.0 1.9 6.0 1.85 5.8 1.85 Q5.65 1.7 5.65 1.55 L5.6 1.25 Q5.55 1.1 5.7 1.0 L5.75 0.95 Q4.95 1.15 4.35 1.65 3.85 2.0 3.15 1.85 2.8 1.5 2.65 1.05 2.5 0.7 2.45 0.3 2.4 -0.15 2.0 -0.55 1.5 -0.3 1.15 0.15 0.85 0.6 0.2 0.65 -0.1 0.65 -0.2 0.45 L-0.15 0.4 Q-0.3 0.4 -0.45 0.3 -0.6 0.05 -0.85 -0.2 L-1.15 -0.5 -1.25 -0.25 Q-1.4 0.0 -1.65 0.2 -1.7 -0.3 -1.65 -0.85 L-1.6 -1.1 -1.7 -1.3 Q-1.85 -1.1 -2.0 -0.95 L-2.4 -0.5 Q-2.55 -0.4 -2.7 -0.3 -3.7 -0.65 -4.65 -1.3 L-6.05 -2.35 -6.3 -2.5 -6.55 -2.75 -6.55 -2.7 Q-6.45 -2.6 -6.45 -2.45 -6.45 -2.35 -6.5 -2.3 L-6.5 -2.25 -6.45 -2.2 Q-6.25 -2.0 -6.1 -1.75 -6.6 -1.85 -6.95 -2.3 L-7.0 -2.35 Q-7.25 -2.5 -7.3 -2.85 L-7.8 -3.7 Q-7.8 -3.9 -7.45 -4.0 -6.95 -3.7 -6.45 -3.35 L-6.05 -3.0 -3.0 -1.0 Q-2.65 -1.2 -2.45 -1.45 L-1.7 -2.15 -1.85 -2.7 Q-1.9 -3.0 -2.05 -3.25 -2.2 -3.35 -2.35 -3.3 -2.45 -3.3 -2.5 -3.2 L-2.5 -3.1 Q-2.65 -3.1 -2.85 -3.5 -3.05 -3.85 -3.3 -4.25 -3.55 -4.7 -4.05 -4.8 -4.4 -4.75 -4.45 -4.45 -4.55 -4.0 -4.7 -3.6 -4.85 -3.25 -5.0 -2.95 L-5.1 -2.95 Q-5.3 -3.0 -5.55 -3.1 -5.75 -3.2 -5.85 -3.05 L-5.85 -2.95 -6.15 -3.15 -6.45 -4.4 -6.65 -5.35 -6.55 -5.45 -5.25 -4.2 -4.65 -7.25 -4.0 -6.75 -3.9 -6.4 -3.7 -5.9 -2.9 -4.75 -2.25 -5.3 -1.3 -5.15 Q-0.8 -6.3 -0.25 -7.3 1.6 -10.55 2.85 -14.1 4.0 -17.3 4.1 -20.65 L4.55 -21.55 6.0 -24.65 Q6.9 -26.1 7.75 -27.55 9.05 -29.8 9.4 -32.45 L9.15 -32.05 9.55 -33.2 5.7 -26.25 Q5.15 -25.25 4.75 -24.2 3.9 -22.8 3.55 -21.2 L3.55 -21.25 Q2.6 -19.15 1.3 -17.2 2.6 -20.2 3.8 -23.25 5.0 -26.5 6.55 -29.75 7.3 -31.35 8.55 -32.3 9.05 -33.1 9.45 -33.95 L9.8 -34.85 Q9.4 -30.85 7.95 -27.1 L7.9 -27.1 Q7.2 -26.05 6.6 -24.8 5.05 -21.5 4.05 -18.1 3.0 -14.65 2.45 -11.3 L1.95 -10.6 Q0.95 -9.05 0.05 -7.45 -0.75 -5.9 -0.85 -4.3 -0.15 -4.7 0.2 -5.85 0.6 -6.9 1.1 -7.9 L0.9 -7.4 1.3 -8.1 0.9 -7.05 Q0.05 -4.9 -1.2 -2.95 L-1.1 -2.5 0.0 -2.75 1.05 -3.5 Q1.65 -5.2 2.45 -6.75 L2.5 -6.85 Q2.0 -5.35 1.85 -3.9 L2.75 -3.75 Q3.25 -3.4 3.1 -2.8 3.0 -2.25 2.9 -1.7 L2.95 -1.5 3.6 -1.65 3.9 -1.7 4.55 -1.7 Q4.75 -4.6 5.3 -7.4 5.55 -8.75 5.85 -10.05 5.6 -8.7 5.4 -7.3 5.15 -5.45 5.5 -3.45 5.9 -4.25 6.2 -5.2 6.25 -3.55 6.8 -2.25 L7.35 -2.15 M7.65 -0.6 L7.1 -0.25 7.65 -0.6 M-8.15 -1.2 L-7.1 -0.65 -6.85 -0.45 Q-6.6 -0.2 -6.55 0.05 -7.15 0.25 -7.65 -0.4 -7.9 -0.75 -8.15 -1.2 M-3.65 -7.85 L-2.9 -9.85 -3.65 -7.85 M-2.25 -11.25 L0.35 -16.35 1.2 -17.05 0.6 -16.1 Q-1.05 -13.8 -2.25 -11.25 M10.05 -29.0 L9.65 -27.55 Q9.5 -27.05 9.45 -26.5 L10.15 -28.9 10.05 -29.0 M7.6 -22.15 Q7.15 -21.25 6.65 -20.4 L5.65 -18.65 Q6.2 -18.85 6.6 -19.45 L7.75 -21.15 Q8.3 -22.0 8.4 -22.9 7.85 -22.7 7.6 -22.15 M3.85 -20.2 Q3.6 -19.1 3.3 -17.95 2.3 -14.4 0.3 -11.3 L0.1 -10.9 Q0.45 -12.0 0.65 -13.05 0.95 -13.35 1.1 -13.75 L1.45 -14.8 Q1.65 -15.3 1.8 -15.8 L1.45 -15.6 3.25 -18.95 3.85 -20.2 M6.65 -12.5 L6.45 -12.15 6.7 -13.0 6.65 -12.5 M8.1 -9.75 Q7.9 -8.75 7.75 -7.8 7.8 -8.75 7.85 -9.75 7.9 -12.85 8.85 -15.65 8.6 -12.7 8.1 -9.75 M-0.9 -1.1 L-0.85 -1.0 Q-0.6 -0.65 -0.2 -0.4 L-0.15 -0.35 Q0.45 -0.6 1.0 -1.15 L2.3 -2.45 2.3 -2.6 2.2 -2.7 Q2.1 -2.8 1.95 -2.9 L1.8 -2.9 1.5 -2.95 1.4 -2.85 1.1 -2.6 Q0.95 -2.45 0.75 -2.4 L0.45 -2.55 0.25 -2.55 -0.6 -1.85 Q-0.85 -1.6 -1.15 -1.55 L-1.0 -1.3 -0.9 -1.1" fill="#415c24" fill-rule="evenodd" stroke="none"/>
      <path d="M12.25 -35.5 L12.45 -35.95 Q13.45 -37.9 13.9 -40.05 14.2 -41.4 14.75 -42.55 L14.75 -42.45 14.5 -39.9 14.15 -38.35 13.6 -35.45 12.65 -29.85 11.1 -22.0 9.35 -13.05 Q9.6 -10.5 9.0 -8.05 L7.35 -2.15 6.8 -2.25 Q6.25 -3.55 6.2 -5.2 L6.2 -6.15 6.65 -12.5 6.7 -13.0 6.45 -12.15 Q6.15 -11.1 5.85 -10.05 5.55 -8.75 5.3 -7.4 4.75 -4.6 4.55 -1.7 L3.9 -1.7 3.85 -1.8 3.85 -1.9 Q3.7 -2.0 3.7 -1.75 L3.7 -1.7 3.6 -1.65 2.95 -1.5 2.9 -1.7 Q3.0 -2.25 3.1 -2.8 3.25 -3.4 2.75 -3.75 L1.85 -3.9 Q2.0 -5.35 2.5 -6.85 L2.45 -6.75 Q1.65 -5.2 1.05 -3.5 L0.0 -2.75 -1.1 -2.5 -1.2 -2.95 Q0.05 -4.9 0.9 -7.05 L1.3 -8.1 0.9 -7.4 1.1 -7.9 Q1.7 -9.65 2.5 -11.35 3.3 -13.0 4.2 -14.65 L7.3 -19.35 Q8.05 -21.15 8.7 -23.0 9.8 -26.0 10.25 -29.3 10.5 -31.1 10.95 -32.5 L11.05 -32.15 11.2 -31.25 11.2 -31.05 Q11.35 -29.6 11.1 -28.15 11.95 -30.95 12.65 -33.75 L12.3 -32.9 Q12.05 -32.2 11.45 -31.75 L11.35 -31.7 Q11.4 -33.65 12.25 -35.5 M7.9 -1.85 L9.1 -1.75 8.9 -1.6 7.65 -0.6 7.1 -0.25 7.15 0.0 7.05 -0.2 3.45 0.8 3.25 -0.2 Q5.6 -0.95 7.9 -1.85 M6.9 1.05 L7.0 1.3 6.9 1.05 M8.0 0.8 L8.5 0.45 8.0 0.8 M8.4 1.65 L8.1 2.45 9.15 2.9 Q9.1 3.5 8.3 3.5 L7.15 3.55 7.0 3.55 4.15 3.75 Q2.3 3.9 0.6 3.45 L1.75 3.45 1.25 3.35 Q1.2 3.2 1.35 3.15 L2.15 3.05 3.65 3.05 1.6 2.75 -0.05 2.4 -0.45 2.35 -1.1 2.25 -1.25 2.25 -2.1 2.15 -3.15 2.1 -2.5 2.25 -2.05 2.35 Q-1.8 2.45 -1.6 2.6 L-1.5 2.65 -2.2 2.75 Q-3.4 3.1 -4.95 2.6 L-5.7 2.55 -5.95 2.6 Q-7.2 2.8 -8.05 2.15 L-7.95 2.15 -7.85 2.1 -7.6 2.15 Q-7.75 2.05 -7.8 1.9 -7.85 1.65 -7.6 1.65 L-6.5 1.6 -8.1 1.25 Q-8.6 1.15 -8.95 0.85 L-8.55 0.4 -7.85 0.4 -8.5 -0.85 -8.15 -1.2 Q-7.9 -0.75 -7.65 -0.4 -7.15 0.25 -6.55 0.05 -6.6 -0.2 -6.85 -0.45 L-7.1 -0.65 -6.25 -0.3 -7.8 -3.7 -7.3 -2.85 Q-7.25 -2.5 -7.0 -2.35 L-6.95 -2.3 Q-6.6 -1.85 -6.1 -1.75 -6.25 -2.0 -6.45 -2.2 L-6.5 -2.25 -6.5 -2.3 Q-6.45 -2.35 -6.45 -2.45 -6.45 -2.6 -6.55 -2.7 L-6.55 -2.75 -6.3 -2.5 -6.05 -2.35 -4.65 -1.3 Q-3.7 -0.65 -2.7 -0.3 -2.55 -0.4 -2.4 -0.5 L-2.0 -0.95 Q-1.85 -1.1 -1.7 -1.3 L-1.6 -1.1 -1.65 -0.85 Q-1.7 -0.3 -1.65 0.2 -1.4 0.0 -1.25 -0.25 L-1.15 -0.5 -0.85 -0.2 Q-0.6 0.05 -0.45 0.3 -0.3 0.4 -0.15 0.4 L-0.2 0.45 Q-0.1 0.65 0.2 0.65 0.85 0.6 1.15 0.15 1.5 -0.3 2.0 -0.55 2.4 -0.15 2.45 0.3 2.5 0.7 2.65 1.05 2.8 1.5 3.15 1.85 3.85 2.0 4.35 1.65 4.95 1.15 5.75 0.95 L5.7 1.0 Q5.55 1.1 5.6 1.25 L5.65 1.55 Q5.65 1.7 5.8 1.85 L6.0 1.85 6.0 1.9 6.75 1.9 7.75 2.0 Q8.1 1.8 8.4 1.65 M-6.45 -3.35 L-6.15 -3.15 -5.85 -2.95 -5.85 -3.05 Q-5.75 -3.2 -5.55 -3.1 -5.3 -3.0 -5.1 -2.95 L-5.0 -2.95 Q-4.85 -3.25 -4.7 -3.6 -4.55 -4.0 -4.45 -4.45 -4.4 -4.75 -4.05 -4.8 -3.55 -4.7 -3.3 -4.25 -3.05 -3.85 -2.85 -3.5 -2.65 -3.1 -2.5 -3.1 L-2.5 -3.2 Q-2.45 -3.3 -2.35 -3.3 -2.2 -3.35 -2.05 -3.25 -1.9 -3.0 -1.85 -2.7 L-1.7 -2.15 -2.45 -1.45 Q-2.65 -1.2 -3.0 -1.0 L-6.05 -3.0 -6.45 -3.35 M-3.7 -5.9 L-3.75 -6.4 Q-3.1 -7.95 -2.2 -9.55 -0.9 -11.75 0.2 -14.05 L0.2 -14.15 0.3 -14.25 1.35 -15.5 1.45 -15.6 1.8 -15.8 Q1.65 -15.3 1.45 -14.8 L1.1 -13.75 Q0.95 -13.35 0.65 -13.05 0.45 -12.0 0.1 -10.9 L0.3 -11.3 Q2.3 -14.4 3.3 -17.95 3.6 -19.1 3.85 -20.2 L4.1 -21.3 4.1 -20.65 Q4.0 -17.3 2.85 -14.1 1.6 -10.55 -0.25 -7.3 -0.8 -6.3 -1.3 -5.15 L-2.25 -5.3 -2.35 -5.25 -2.15 -5.9 -2.3 -5.65 -2.9 -4.75 -3.7 -5.9 M7.15 -16.5 L7.25 -16.65 7.35 -16.15 Q7.5 -16.65 7.65 -17.15 L7.15 -16.5 M8.1 -9.75 Q8.6 -12.7 8.85 -15.65 7.9 -12.85 7.85 -9.75 7.8 -8.75 7.75 -7.8 7.9 -8.75 8.1 -9.75 M4.55 -9.35 L4.55 -9.2 Q3.95 -7.65 3.6 -6.0 4.2 -7.65 4.55 -9.35 M-1.0 -1.3 L-1.15 -1.55 Q-0.85 -1.6 -0.6 -1.85 L0.25 -2.55 0.45 -2.55 0.75 -2.4 Q0.95 -2.45 1.1 -2.6 L1.4 -2.85 1.5 -2.95 1.8 -2.9 1.95 -2.9 Q2.1 -2.8 2.2 -2.7 L2.3 -2.6 2.3 -2.45 1.0 -1.15 Q0.45 -0.6 -0.15 -0.35 L-0.2 -0.4 Q-0.6 -0.65 -0.85 -1.0 L-0.9 -1.1 -1.0 -1.3" fill="#32471c" fill-rule="evenodd" stroke="none"/>
      <path d="M11.05 -32.15 Q11.05 -34.95 12.0 -37.45 L12.25 -38.15 12.15 -38.1 Q12.35 -39.6 12.85 -41.0 L13.85 -43.75 14.5 -45.3 Q14.35 -44.4 14.1 -43.5 L14.25 -43.9 Q14.9 -45.9 15.3 -47.6 15.15 -44.15 13.85 -40.85 12.75 -38.25 12.25 -35.5 11.4 -33.65 11.35 -31.7 L11.45 -31.75 11.2 -31.05 11.2 -31.25 11.05 -32.15 M11.35 -38.45 L11.85 -38.95 Q10.85 -35.1 10.1 -30.95 9.35 -26.9 7.3 -23.1 L6.45 -21.55 6.5 -21.6 6.35 -21.3 Q4.85 -18.1 4.2 -14.65 3.3 -13.0 2.5 -11.35 1.7 -9.65 1.1 -7.9 0.6 -6.9 0.2 -5.85 -0.15 -4.7 -0.85 -4.3 -0.75 -5.9 0.05 -7.45 0.95 -9.05 1.95 -10.6 L2.45 -11.3 Q3.0 -14.65 4.05 -18.1 5.05 -21.5 6.6 -24.8 7.2 -26.05 7.9 -27.1 L7.95 -27.1 Q9.4 -30.85 9.8 -34.85 L11.35 -38.45 M14.5 -39.9 L14.15 -38.35 14.5 -39.9 M12.65 -29.85 L11.1 -22.0 12.65 -29.85 M-4.0 -6.75 L-3.9 -6.4 -4.0 -6.75 M-3.75 -6.4 Q-3.8 -7.1 -3.65 -7.85 L-2.9 -9.85 Q-2.7 -10.15 -2.4 -10.35 -2.35 -10.8 -2.25 -11.25 -1.05 -13.8 0.6 -16.1 L1.2 -17.05 1.3 -17.2 Q2.6 -19.15 3.55 -21.25 L3.55 -21.2 Q3.9 -22.8 4.75 -24.2 5.15 -25.25 5.7 -26.25 L9.55 -33.2 9.15 -32.05 9.4 -32.45 Q9.05 -29.8 7.75 -27.55 6.9 -26.1 6.0 -24.65 L4.55 -21.55 4.1 -20.65 4.1 -21.3 3.85 -20.2 3.25 -18.95 1.45 -15.6 1.35 -15.5 0.3 -14.25 0.2 -14.15 0.2 -14.05 Q-0.9 -11.75 -2.2 -9.55 -3.1 -7.95 -3.75 -6.4 M-2.25 -5.3 L-2.9 -4.75 -2.3 -5.65 -2.15 -5.9 -2.35 -5.25 -2.25 -5.3 M7.6 -22.15 Q7.85 -22.7 8.4 -22.9 8.3 -22.0 7.75 -21.15 L6.6 -19.45 Q6.2 -18.85 5.65 -18.65 L6.65 -20.4 Q7.15 -21.25 7.6 -22.15 M5.65 -22.25 Q5.45 -21.85 5.25 -21.5 5.45 -21.8 5.7 -22.15 L5.65 -22.25 M7.15 -16.5 L7.65 -17.15 Q7.5 -16.65 7.35 -16.15 L7.25 -16.65 7.15 -16.5 M6.65 -12.5 L6.2 -6.15 6.2 -5.2 Q5.9 -4.25 5.5 -3.45 5.15 -5.45 5.4 -7.3 5.6 -8.7 5.85 -10.05 6.15 -11.1 6.45 -12.15 L6.65 -12.5 M4.55 -9.35 Q4.2 -7.65 3.6 -6.0 3.95 -7.65 4.55 -9.2 L4.55 -9.35 M3.9 -1.7 L3.6 -1.65 3.7 -1.7 3.7 -1.75 Q3.7 -2.0 3.85 -1.9 L3.85 -1.8 3.9 -1.7" fill="#4c702c" fill-rule="evenodd" stroke="none"/>
      <path d="M16.4 -50.4 Q15.7 -47.7 15.4 -44.9 15.05 -42.1 14.55 -39.4 L14.45 -38.95 Q14.35 -37.45 14.05 -35.95 L14.0 -35.6 Q13.75 -33.95 13.35 -32.25 13.3 -31.9 13.15 -31.55 L13.05 -30.85 12.7 -28.7 12.7 -28.65 Q12.6 -25.75 11.5 -23.1 11.3 -20.9 10.85 -18.7 10.45 -16.1 10.15 -13.5 10.05 -12.5 9.75 -11.7 9.9 -10.05 9.45 -8.4 9.05 -6.75 8.65 -5.1 L8.35 -4.15 8.3 -3.95 Q8.15 -2.95 7.55 -2.2 L7.45 -2.05 10.5 -2.3 Q9.5 -1.45 8.2 -0.65 7.55 -0.2 7.25 0.45 L7.25 0.5 Q7.15 0.75 7.2 1.0 7.6 0.85 8.0 0.55 8.4 0.25 8.7 -0.1 8.8 -0.2 9.0 -0.15 9.45 0.25 9.15 0.75 8.9 1.2 8.7 1.65 8.55 1.95 8.55 2.2 8.8 2.3 9.05 2.45 L9.55 2.8 9.7 2.95 Q9.65 3.1 9.45 3.1 L9.1 3.05 8.9 3.05 8.8 2.95 8.75 2.85 8.55 2.75 8.2 2.7 Q7.95 2.7 7.9 2.5 8.0 2.2 8.1 1.9 L8.4 1.15 8.55 0.8 Q8.1 1.1 7.65 1.3 7.25 1.55 6.9 1.85 6.8 1.95 6.65 1.9 6.25 1.45 6.5 0.85 6.65 0.4 6.85 0.05 L6.3 0.15 Q5.25 0.35 4.45 0.8 4.0 1.05 3.6 1.15 3.55 1.3 3.4 1.4 3.1 0.95 2.9 0.25 2.8 -0.35 2.55 -1.0 L2.3 -1.75 Q1.75 -1.35 1.25 -0.85 0.75 -0.35 0.15 0.1 L0.25 0.2 Q-0.4 0.2 -0.9 -0.5 L-1.6 -1.5 Q-1.7 -1.65 -1.7 -1.85 -1.95 -1.65 -2.05 -1.35 L-2.25 -0.8 -2.0 -0.45 -2.45 -0.55 -2.55 -0.55 Q-3.45 -0.8 -4.4 -1.45 L-6.75 -3.15 Q-7.65 -3.8 -7.9 -4.45 L-6.45 -3.35 Q-6.55 -3.55 -6.55 -3.8 -6.7 -4.45 -7.0 -5.15 -7.25 -5.65 -7.25 -5.95 L-7.2 -5.9 Q-6.7 -6.0 -6.2 -5.55 -5.85 -5.2 -5.6 -4.85 L-5.55 -4.7 Q-5.2 -5.15 -5.15 -5.85 -5.1 -6.55 -5.15 -7.25 -5.2 -7.8 -5.05 -8.1 -4.7 -7.85 -4.35 -7.5 -4.15 -8.2 -3.75 -8.9 -2.55 -11.2 -1.4 -13.6 -0.3 -15.8 0.95 -17.95 L1.35 -18.6 Q1.75 -19.6 2.1 -20.65 3.2 -24.3 5.35 -27.55 7.8 -31.25 9.5 -35.2 10.15 -36.65 10.9 -37.95 11.55 -39.95 12.45 -41.95 13.65 -44.7 14.65 -47.45 15.25 -49.05 16.2 -50.3 L15.9 -49.55 Q16.15 -50.0 16.4 -50.4 M15.4 -48.0 L14.25 -44.7 Q13.55 -42.55 12.6 -40.45 L12.3 -39.45 Q11.5 -37.15 11.25 -34.75 L10.95 -32.05 Q10.95 -34.2 11.35 -36.65 11.5 -37.65 11.7 -38.65 11.3 -37.85 10.8 -37.05 9.6 -34.2 8.2 -31.45 6.25 -27.6 4.1 -23.85 3.4 -22.75 2.8 -21.55 L2.7 -21.1 Q3.15 -22.1 3.85 -22.9 3.25 -21.05 2.4 -19.2 L0.7 -15.55 Q0.2 -14.5 -0.55 -13.65 -0.35 -14.4 -0.15 -15.15 -1.9 -12.2 -3.05 -8.95 -3.45 -7.9 -3.9 -6.9 L-3.85 -6.8 -3.4 -6.0 Q-2.95 -7.4 -2.2 -8.8 -1.1 -10.7 -0.25 -12.75 0.25 -13.95 0.9 -14.95 0.3 -12.85 -0.6 -10.8 -1.45 -8.8 -2.5 -6.8 L-3.15 -5.65 -3.25 -5.7 -3.1 -5.3 Q-3.0 -5.15 -2.95 -4.95 L-2.85 -5.0 -2.6 -5.15 -2.75 -5.3 Q-1.95 -7.4 -0.85 -9.4 0.55 -12.05 1.7 -14.85 2.35 -16.45 3.4 -17.6 2.35 -14.85 0.9 -12.15 -0.5 -9.5 -1.7 -6.7 -2.0 -6.0 -2.4 -5.3 -2.1 -5.5 -1.8 -5.75 -1.75 -5.8 -1.65 -5.8 -1.0 -5.55 -1.1 -4.7 -1.15 -4.1 -1.0 -3.4 L-0.8 -2.6 1.0 -3.65 Q1.85 -4.1 2.75 -4.2 2.9 -5.15 3.15 -6.05 3.7 -7.8 4.2 -9.6 4.45 -10.65 4.85 -11.55 4.7 -9.75 4.2 -7.9 3.75 -6.15 3.4 -4.35 L3.35 -4.25 3.5 -4.25 Q3.6 -4.05 3.45 -3.9 3.25 -3.65 3.15 -3.3 L3.1 -3.15 3.1 -2.9 Q3.1 -2.45 3.15 -2.0 L3.2 -1.5 6.7 -1.95 Q6.75 -3.85 6.7 -5.85 6.65 -8.35 6.9 -10.85 7.05 -12.25 7.5 -13.5 7.2 -11.0 7.0 -8.5 6.75 -6.05 7.25 -3.45 L7.3 -3.15 Q7.5 -3.75 7.75 -4.35 7.95 -5.1 8.2 -5.85 8.5 -6.8 8.75 -7.85 8.95 -8.9 9.0 -10.0 9.05 -10.8 9.25 -11.4 9.25 -11.75 9.25 -12.05 L8.45 -9.8 Q8.5 -12.3 9.35 -14.75 10.15 -17.0 10.45 -19.5 10.55 -20.35 10.8 -21.1 L10.8 -21.45 Q10.5 -20.55 10.2 -19.7 L10.25 -20.2 9.9 -19.25 Q9.9 -21.95 10.7 -24.6 11.5 -27.0 11.9 -29.55 12.05 -30.6 12.45 -31.55 12.55 -33.25 13.05 -34.75 L13.0 -33.9 13.05 -34.05 Q13.6 -35.7 13.8 -37.35 13.6 -37.05 13.35 -36.75 14.05 -39.45 14.4 -42.25 14.8 -45.0 15.35 -47.75 L15.4 -48.0 M10.65 -29.8 Q10.4 -28.55 10.05 -27.3 9.95 -26.9 9.8 -26.55 L9.5 -25.4 Q9.25 -24.65 8.9 -23.95 8.9 -25.15 9.4 -26.7 L9.95 -28.45 9.95 -28.55 Q10.2 -29.8 10.45 -31.1 10.55 -31.85 10.9 -32.4 10.9 -31.1 10.65 -29.8 M11.35 -24.95 L11.35 -24.85 11.45 -25.1 Q11.45 -25.15 11.4 -25.15 11.35 -25.05 11.35 -24.95 M11.05 -26.85 Q9.85 -23.55 8.1 -20.35 6.3 -17.2 4.4 -14.1 3.35 -12.45 1.85 -11.1 3.85 -14.4 6.0 -17.6 7.95 -20.5 9.5 -23.7 L11.05 -26.85 M9.8 -31.45 Q8.35 -29.05 7.2 -26.45 6.1 -23.9 5.3 -21.2 4.85 -19.75 4.3 -18.25 4.65 -20.8 5.6 -23.35 6.65 -26.0 7.85 -28.65 8.55 -30.25 9.8 -31.45 M7.2 -16.9 Q7.95 -17.9 8.5 -18.85 7.8 -16.8 6.3 -15.05 4.85 -13.35 3.8 -11.4 3.2 -10.25 2.3 -9.4 3.1 -11.4 4.45 -13.2 L7.2 -16.9 M4.35 -4.8 Q4.2 -3.65 4.3 -2.4 4.3 -2.05 4.2 -1.75 L4.15 -1.75 Q4.15 -1.8 4.15 -1.9 L4.15 -2.15 Q3.9 -2.4 3.75 -2.7 L3.75 -2.8 Q3.75 -3.25 3.8 -3.65 4.0 -4.8 4.1 -6.05 4.15 -6.8 4.55 -7.3 4.5 -6.05 4.35 -4.8 M1.0 -6.2 Q0.5 -5.0 0.1 -3.85 0.0 -3.45 -0.2 -3.15 L-0.4 -3.3 Q0.0 -4.1 0.2 -5.0 0.5 -6.25 1.15 -7.4 1.5 -8.0 1.75 -8.6 1.5 -7.4 1.0 -6.2 M2.7 -3.75 Q1.85 -3.5 0.95 -2.9 0.05 -2.35 -0.95 -2.2 -1.35 -2.6 -1.4 -3.15 L-1.5 -4.3 -1.65 -5.15 Q-1.85 -5.05 -2.1 -4.9 -2.5 -4.75 -2.7 -4.5 -2.85 -4.35 -3.1 -4.4 L-3.1 -4.4 -3.2 -4.4 -3.25 -4.5 Q-3.55 -4.8 -3.7 -5.25 -3.9 -5.75 -4.15 -6.25 L-4.35 -6.55 -4.6 -6.75 -4.55 -6.9 -4.65 -7.05 Q-4.75 -6.5 -4.8 -5.9 L-4.95 -4.65 Q-4.95 -4.25 -5.25 -3.95 -5.75 -4.15 -6.05 -4.65 -6.3 -5.1 -6.7 -5.45 -6.45 -5.15 -6.35 -4.75 L-5.95 -3.4 Q-5.85 -3.15 -5.85 -2.9 L-5.65 -2.75 Q-4.45 -1.95 -3.15 -1.35 -2.9 -1.25 -2.65 -1.1 -2.65 -1.35 -2.55 -1.55 -2.25 -2.05 -1.95 -2.5 -1.85 -2.75 -1.5 -2.75 -1.0 -2.25 -0.85 -1.55 -0.7 -0.95 -0.25 -0.4 L0.0 -0.1 Q0.25 -0.65 0.8 -1.1 1.5 -1.75 2.1 -2.45 2.2 -2.6 2.35 -2.6 2.6 -2.25 2.75 -1.85 L2.8 -2.1 2.9 -3.0 2.85 -3.0 2.75 -3.15 Q2.7 -3.3 2.65 -3.4 2.7 -3.55 2.75 -3.7 L2.7 -3.7 2.7 -3.75 M5.65 -0.25 L7.15 -0.75 7.25 -0.65 7.25 -0.7 7.35 -0.65 7.4 -0.7 Q8.15 -1.25 9.0 -1.7 5.95 -1.4 3.1 -1.0 L3.65 0.55 3.65 0.7 Q3.9 0.45 4.3 0.3 L5.65 -0.25 M-8.3 -3.7 Q-8.6 -4.35 -8.15 -4.7 -7.55 -3.85 -7.25 -2.85 -6.95 -1.9 -6.45 -1.0 L-5.9 -0.05 Q-6.65 0.2 -7.3 -0.45 -7.7 -0.85 -8.2 -1.15 L-7.9 -0.45 Q-7.75 -0.05 -7.5 0.35 -7.3 0.65 -7.25 0.9 -7.6 1.05 -8.05 0.85 -8.65 0.5 -8.7 0.75 L-8.6 0.85 Q-8.35 1.0 -8.2 1.15 L-8.15 1.2 Q-8.6 1.3 -9.15 0.95 -9.65 0.6 -9.9 0.2 -9.75 -0.15 -9.0 0.1 -8.5 0.3 -8.0 0.35 L-8.4 -0.65 -8.9 -1.75 Q-9.1 -2.15 -8.75 -2.35 -8.25 -2.2 -7.95 -1.65 -7.75 -1.15 -7.15 -0.8 L-6.9 -0.6 -7.6 -2.1 -8.3 -3.7" fill="#273715" fill-rule="evenodd" stroke="none"/>
    </g>
    <g id="shape2" transform="matrix(1.0, 0.0, 0.0, 1.0, 30.95, 6.8)">
      <path d="M27.15 -5.8 L27.15 -5.8 M22.25 -1.35 Q22.7 -1.15 23.0 -0.7 24.2 0.9 25.85 -0.25 L26.6 -1.15 Q26.8 -0.55 27.2 -0.15 L27.8 0.3 27.7 0.55 27.55 0.85 20.35 0.15 20.75 -0.35 Q21.4 -1.15 22.25 -1.35 M18.7 -1.45 L18.55 -1.4 18.75 -1.5 18.7 -1.45 M18.0 -1.4 L17.95 -1.35 17.95 -1.4 18.0 -1.4 M18.7 -6.0 L19.2 -6.6 18.95 -5.85 18.7 -5.85 18.7 -6.0 M21.35 -3.9 L21.45 -4.0 21.45 -3.9 21.35 -3.9 M15.3 -1.15 Q15.55 -1.4 15.85 -1.65 15.95 -1.4 16.1 -1.2 L15.3 -1.15 M12.7 -0.9 L12.9 -1.3 13.05 -1.45 13.25 -1.4 Q13.15 -1.15 13.1 -0.9 L12.65 -0.85 12.7 -0.9 M12.25 -3.05 L12.15 -3.05 Q12.5 -3.2 12.6 -3.65 12.7 -3.55 12.8 -3.5 12.7 -3.45 12.65 -3.4 L12.25 -3.05 M16.4 -4.8 L16.6 -5.2 16.6 -4.7 16.4 -4.8 M6.2 -1.8 Q6.25 -1.55 6.25 -1.3 L5.95 -1.05 Q6.1 -1.35 6.2 -1.8 M9.7 -3.55 Q9.7 -3.4 9.75 -3.2 L9.8 -2.95 9.4 -2.95 9.7 -3.55 M0.6 -1.85 L0.6 -1.85 M2.05 -0.15 Q2.35 -0.6 2.75 -0.8 2.9 0.75 4.05 1.7 L4.1 1.8 Q2.55 1.95 0.85 1.75 L1.05 1.4 Q1.5 0.6 2.05 -0.15 M25.45 -5.8 L25.5 -5.85 25.65 -5.95 Q25.4 -5.45 25.15 -5.05 L25.15 -5.1 25.4 -5.7 25.45 -5.8 M-14.05 1.15 L-13.4 2.45 Q-16.05 2.6 -18.4 0.95 -17.05 1.2 -15.65 1.0 L-14.05 1.15 M-10.6 0.4 L-10.8 1.85 -12.15 1.65 -12.15 0.95 -11.5 0.55 -11.1 0.25 -10.85 0.05 -10.6 0.4 M-3.6 -0.9 Q-3.4 -1.5 -3.1 -2.05 L-3.0 -1.35 Q-2.9 -0.5 -2.55 0.25 -2.25 0.9 -1.7 1.35 L-1.7 1.4 Q-3.2 1.1 -4.75 0.7 L-4.85 0.65 -4.7 0.6 Q-3.9 0.1 -3.6 -0.9 M-7.35 -0.65 Q-7.5 -0.5 -7.55 -0.3 L-8.5 -0.2 Q-8.5 -0.45 -8.55 -0.6 L-8.3 -0.6 Q-7.85 -0.6 -7.35 -0.65 M-6.25 -3.9 L-6.2 -3.55 Q-6.25 -3.5 -6.3 -3.5 L-6.25 -3.9 M-7.3 -6.1 L-7.4 -5.8 -7.7 -4.85 -7.7 -5.3 Q-7.5 -5.7 -7.3 -6.1 M-11.65 -2.05 L-11.6 -1.85 Q-11.5 -0.85 -11.0 -0.1 -11.15 0.0 -11.25 0.15 -11.65 0.6 -12.25 0.55 L-12.25 0.5 -12.2 0.3 Q-11.9 -0.35 -11.75 -1.0 -11.65 -1.5 -11.65 -2.05 M33.0 -0.45 Q33.2 -0.55 33.45 -0.65 L33.65 -0.55 32.95 -0.35 32.9 -0.4 33.0 -0.45 M29.2 -1.15 L29.2 -1.0 29.05 -1.0 29.2 -1.2 29.2 -1.15 M30.45 -3.85 L30.75 -3.6 30.45 -3.6 30.45 -3.85 M25.9 -6.8 L25.75 -6.3 25.65 -6.25 25.9 -6.8" fill="#415b24" fill-rule="evenodd" stroke="none"/>
      <path d="M-6.95 2.7 L-7.55 2.7 -7.3 2.75 -7.25 2.75 Q-7.1 2.75 -7.05 2.8 -7.05 2.9 -7.15 2.95 L-7.25 2.95 -7.65 3.0 -7.7 2.95 -9.05 2.9 -9.1 2.9 -9.1 2.85 -9.15 2.8 Q-9.4 2.9 -9.65 2.95 -9.95 3.0 -10.25 3.15 -10.65 3.25 -11.05 3.25 L-11.3 3.25 Q-11.7 3.3 -12.1 3.25 L-13.05 3.15 -13.05 3.1 -12.9 3.0 -12.8 3.0 -12.65 2.95 -12.4 2.9 -11.35 2.7 Q-11.2 2.65 -11.15 2.6 L-13.65 2.45 -14.55 2.45 -16.0 2.55 -16.4 2.6 -17.65 2.75 Q-19.35 3.1 -20.75 2.6 L-20.8 2.55 -20.75 2.45 -21.0 2.4 -21.15 2.35 -21.3 2.4 Q-21.45 2.4 -21.55 2.3 L-21.75 2.3 -21.8 2.35 -21.9 2.35 -21.95 2.3 -22.2 2.3 -22.3 2.4 Q-22.35 2.4 -22.4 2.45 L-22.55 2.4 Q-22.6 2.35 -22.7 2.35 -22.85 2.3 -22.85 2.2 L-22.85 2.15 -22.65 2.1 Q-22.55 2.05 -22.45 1.95 L-22.4 1.9 -22.35 1.9 -22.3 1.95 Q-22.2 1.95 -22.15 2.0 L-22.1 2.05 -22.1 2.1 Q-22.0 2.05 -21.9 2.0 -21.7 2.0 -21.6 1.85 -21.55 1.8 -21.5 1.8 -21.4 1.8 -21.4 1.9 -21.35 1.95 -21.4 2.05 L-21.4 2.1 Q-21.4 2.15 -21.3 2.15 L-21.2 2.15 -20.85 2.2 -20.8 2.2 Q-20.6 2.15 -20.45 2.0 -20.4 1.95 -20.3 1.9 L-19.9 1.45 -19.7 1.05 Q-19.4 0.5 -19.25 -0.15 -19.15 -0.5 -19.15 -0.9 L-18.95 -1.1 -18.85 -1.3 -18.75 -1.15 Q-18.65 -1.05 -18.7 -0.85 L-18.7 -0.75 Q-18.6 -0.4 -18.35 -0.05 L-18.3 0.0 -18.25 0.0 Q-18.15 0.1 -18.1 0.25 -17.9 0.6 -17.8 0.95 -17.75 1.1 -17.65 1.2 -17.0 0.7 -16.9 -0.3 L-16.6 -2.4 Q-16.5 -3.1 -16.45 -3.85 -16.45 -4.1 -16.25 -4.25 L-16.1 -4.25 -16.05 -4.2 Q-15.9 -3.05 -15.4 -1.9 L-14.5 0.4 Q-14.3 1.0 -13.75 1.3 -13.6 1.35 -13.4 1.4 -13.1 1.2 -13.0 0.85 L-12.8 0.15 Q-12.75 -0.1 -12.65 -0.25 -12.35 -0.15 -12.4 0.15 L-12.35 0.7 -12.35 0.95 -12.2 1.4 -11.8 1.45 Q-11.55 1.5 -11.55 1.7 -11.05 0.65 -10.7 -0.45 L-9.95 -2.6 Q-9.8 -3.2 -9.5 -3.65 L-8.95 -1.65 Q-8.6 -0.6 -8.3 0.4 -8.25 0.5 -8.25 0.6 L-8.3 0.35 Q-8.15 0.45 -8.1 0.65 -8.1 0.85 -8.0 1.05 L-7.85 1.25 Q-7.25 0.7 -6.95 0.0 -6.65 -0.6 -6.55 -1.25 -6.45 -1.55 -6.25 -1.7 -6.15 -1.5 -6.15 -1.3 L-6.05 -0.9 -6.05 -0.8 Q-5.8 -0.3 -5.65 0.3 -5.45 0.45 -5.4 0.65 -5.3 0.85 -5.15 1.05 -5.05 1.2 -5.1 1.35 -5.3 1.2 -5.4 0.85 -5.45 0.65 -5.6 0.45 -5.35 1.55 -4.3 1.6 -4.1 1.6 -3.95 1.5 -3.85 1.4 -3.8 1.5 L-3.8 1.6 -3.75 1.65 -3.7 1.65 Q-3.6 1.6 -3.55 1.5 -3.45 1.3 -3.2 1.3 L-3.1 1.5 Q-3.1 1.55 -3.1 1.6 L-3.1 1.65 -2.1 -0.3 -1.95 -0.65 -0.85 -2.85 Q-0.6 -3.35 -0.25 -3.75 L-0.05 -4.1 -0.05 -4.0 Q-0.15 -3.35 -0.45 -2.5 -0.75 -1.65 -0.8 -0.8 -0.85 -0.3 -0.8 0.2 -0.7 0.2 -0.7 0.15 -0.65 0.1 -0.6 0.05 L-0.45 0.05 Q-0.35 0.15 -0.45 0.25 -0.55 0.4 -0.5 0.55 -0.45 0.65 -0.5 0.75 L-0.4 0.8 -0.4 1.05 Q-0.25 1.15 -0.2 1.25 L-0.15 1.35 -0.15 1.3 -0.1 1.05 -0.1 0.95 Q-0.05 0.95 -0.05 1.05 L-0.05 1.25 Q-0.05 1.35 0.0 1.35 0.6 0.9 1.1 0.35 1.5 -0.1 1.55 -0.65 1.6 -0.8 1.7 -0.8 1.75 -0.35 1.7 0.1 1.6 0.55 1.65 0.95 1.7 1.2 1.8 1.45 L1.95 1.5 1.85 1.15 Q1.9 1.15 2.0 1.35 2.05 1.5 2.1 1.65 L2.25 1.85 2.6 1.85 Q2.85 1.65 3.0 1.35 L3.3 0.8 3.45 0.75 3.65 0.2 4.05 -1.1 Q4.3 -1.9 4.45 -2.7 L4.55 -3.0 Q4.65 -3.45 4.9 -3.75 4.85 -3.05 4.7 -2.25 L4.65 -1.95 Q4.6 -1.15 4.55 -0.4 4.55 0.05 4.8 0.4 L4.85 0.4 5.05 0.3 5.1 0.3 5.1 0.15 5.15 0.1 Q5.25 0.0 5.4 0.05 5.5 0.1 5.5 0.2 L5.55 0.2 5.7 0.15 5.75 0.2 Q5.85 0.6 5.9 1.1 5.95 1.6 6.45 1.85 L6.45 1.8 6.5 1.65 Q6.55 1.55 6.55 1.65 L6.5 1.75 6.55 1.8 6.6 1.75 7.65 0.6 Q8.1 0.05 8.35 -0.55 8.5 -0.8 8.65 -0.8 L8.45 0.15 Q8.3 0.6 8.25 1.05 8.25 1.4 8.4 1.7 8.55 1.65 8.75 1.7 8.95 1.75 9.1 1.8 9.8 0.9 10.3 -0.15 10.75 -1.25 11.35 -2.2 11.6 -2.6 12.05 -2.85 11.8 -2.05 11.4 -1.25 11.0 -0.5 10.8 0.35 10.7 0.8 10.7 1.3 10.7 1.35 10.8 1.35 10.9 1.3 10.95 1.4 L11.0 1.45 Q11.4 1.2 11.7 0.85 12.1 0.45 12.5 0.25 L12.55 0.25 12.6 0.35 13.2 -0.6 13.75 -1.55 Q13.9 -1.8 14.1 -1.95 13.95 -1.4 13.45 -0.65 13.0 0.0 12.75 0.7 12.65 1.0 12.7 1.35 L13.0 1.4 Q13.05 1.35 13.1 1.3 13.15 1.2 13.25 1.15 L13.25 1.2 Q13.4 1.35 13.95 0.95 14.9 0.25 15.5 -0.7 15.8 -1.15 16.3 -1.25 16.0 -0.65 15.8 -0.1 15.55 0.55 15.4 1.15 15.3 1.35 15.15 1.5 15.8 1.65 16.25 1.2 16.5 0.9 16.85 0.85 L16.85 1.0 17.5 1.0 Q17.9 0.55 18.25 0.1 L18.8 -0.7 Q19.15 -1.55 19.7 -2.3 19.95 -2.7 19.95 -3.2 20.0 -3.4 20.15 -3.45 20.3 -2.6 20.25 -1.75 L20.2 0.0 Q20.15 0.4 20.45 0.7 L20.6 0.85 Q20.6 0.9 20.6 0.95 L20.55 1.1 Q20.55 1.15 20.6 1.15 21.25 0.95 21.65 0.3 L21.9 -0.05 Q22.15 -0.4 22.4 -0.7 22.55 -0.8 22.7 -0.85 L22.55 0.05 Q22.45 0.55 22.8 0.85 L22.85 0.55 Q22.95 0.7 22.95 0.9 L23.0 1.1 23.1 1.25 23.1 1.3 Q23.2 1.5 23.35 1.6 24.55 1.05 25.0 -0.05 25.35 -0.95 26.05 -1.7 L26.5 -2.25 26.65 -2.25 26.85 -2.15 Q26.8 -1.6 26.65 -1.05 26.45 -0.5 26.35 0.1 26.3 0.6 26.7 0.9 L26.7 1.0 26.65 1.1 26.65 1.25 Q27.75 1.65 28.4 0.55 29.0 -0.45 29.5 -1.4 29.8 -2.0 30.3 -2.35 30.15 -1.8 29.9 -1.15 L29.35 0.05 Q29.2 0.4 29.15 0.7 L29.2 0.7 29.4 0.75 29.45 0.75 29.5 0.85 29.5 1.0 29.75 1.1 29.75 1.15 29.8 1.15 30.1 0.85 Q30.15 0.8 30.2 0.8 30.35 0.8 30.35 0.9 L30.35 1.1 Q30.3 1.15 30.35 1.25 30.5 1.25 30.6 1.15 30.8 1.0 31.05 1.1 L31.05 1.4 31.45 1.45 Q31.55 1.45 31.6 1.55 31.9 1.5 32.15 1.3 32.55 1.05 33.05 0.85 L33.1 0.8 Q33.35 0.8 33.2 0.95 33.1 1.05 33.0 1.15 L32.85 1.35 32.9 1.45 32.95 1.5 32.95 1.55 Q32.85 1.7 32.75 1.75 L32.65 1.8 32.7 1.8 Q33.1 2.0 33.6 2.05 L33.55 2.15 33.5 2.45 32.4 2.5 31.7 2.5 32.25 2.55 32.4 2.55 31.05 2.65 30.35 2.65 Q30.2 2.65 30.2 2.55 29.95 2.5 29.75 2.65 L29.7 2.7 29.3 2.75 Q29.3 2.5 29.2 2.35 L29.1 2.75 27.7 2.8 27.05 2.85 26.6 2.95 Q25.35 3.3 24.05 3.45 L24.0 3.3 24.05 3.0 24.55 2.85 Q25.05 2.65 25.6 2.55 L25.55 2.55 Q24.4 2.35 23.25 2.65 L23.0 2.7 23.0 2.65 23.1 2.65 22.5 2.75 Q21.6 2.9 20.7 3.15 20.2 3.25 19.85 3.1 19.9 3.0 19.95 3.0 20.15 2.95 20.35 2.85 20.5 2.75 20.7 2.7 L20.85 2.7 17.85 2.6 18.05 2.7 Q17.35 2.65 16.7 2.65 L16.55 2.7 16.6 2.65 14.3 2.9 Q12.6 3.15 10.9 2.9 10.8 2.9 10.8 2.8 10.85 2.75 10.95 2.75 L11.1 2.7 Q9.15 2.7 7.2 2.8 L7.25 2.7 Q7.45 1.95 7.55 1.25 L7.4 1.4 7.4 1.35 Q7.15 1.55 7.0 1.85 L6.45 2.8 5.8 2.85 Q4.7 2.9 3.65 3.15 3.7 2.8 3.85 2.45 4.3 1.65 4.1 0.9 3.95 1.05 3.8 1.25 L2.95 2.7 Q2.85 2.75 2.8 2.9 L2.55 3.2 2.15 3.1 1.65 3.15 0.75 3.05 0.05 2.95 Q-0.05 2.9 -0.1 2.8 L-0.6 2.8 -0.6 2.55 Q-0.65 1.8 -0.55 1.05 -0.75 1.15 -0.8 1.35 -0.85 1.85 -0.95 2.3 -1.1 2.4 -1.15 2.55 L-1.3 2.8 -2.5 2.9 -2.9 2.85 -4.1 2.75 -4.55 2.75 -4.85 2.7 -4.9 2.7 -4.95 2.65 -4.95 2.6 -6.15 2.65 -6.35 2.65 -6.35 2.4 Q-6.2 1.65 -6.2 1.05 -6.4 1.3 -6.5 1.65 L-6.85 2.7 -6.95 2.7 M33.95 2.05 L34.1 2.05 Q34.6 2.0 35.1 1.85 35.1 1.75 35.2 1.7 35.35 1.65 35.4 1.55 35.45 1.45 35.55 1.4 L35.6 1.4 Q35.7 1.6 35.85 1.7 36.1 1.85 36.35 1.7 36.5 1.6 36.65 1.55 36.75 1.55 36.9 1.65 37.1 1.7 37.25 1.8 37.3 1.8 37.3 1.85 36.5 2.1 35.45 2.15 L35.25 2.1 34.0 2.35 33.95 2.05 M23.6 3.45 Q23.25 3.45 23.0 3.3 23.35 3.15 23.8 3.05 L23.6 3.45 M43.15 3.55 Q43.05 3.65 43.0 3.5 42.95 3.45 43.05 3.45 43.25 3.45 43.15 3.55 M39.95 1.75 Q40.0 1.8 39.95 1.9 39.95 2.0 39.85 2.0 39.75 1.95 39.65 1.9 39.6 1.8 39.65 1.75 L39.8 1.65 Q39.9 1.65 39.95 1.75 M37.75 2.7 Q37.7 2.85 37.55 2.85 37.35 2.85 37.2 2.75 37.1 2.65 37.1 2.55 L37.15 2.5 37.25 2.45 37.5 2.5 37.65 2.6 37.75 2.7 M40.1 3.4 L40.1 3.35 40.2 3.25 40.35 3.3 40.45 3.35 40.55 3.45 40.5 3.5 Q40.4 3.6 40.25 3.55 40.15 3.55 40.05 3.45 L40.05 3.4 40.1 3.4 M38.35 4.05 L38.3 4.1 38.25 4.1 Q38.1 4.1 38.0 4.0 37.9 3.95 37.95 3.85 38.0 3.8 38.05 3.8 L38.25 3.85 38.35 3.9 Q38.4 3.9 38.4 3.95 L38.4 4.0 38.35 4.05 M20.9 2.95 L20.75 2.9 20.75 2.95 20.9 2.95 M18.75 3.85 L18.75 3.9 Q18.75 4.0 18.7 4.0 17.95 4.25 17.4 4.0 17.25 3.95 17.3 3.85 L17.3 3.75 17.8 3.65 18.05 3.65 18.75 3.85 M17.6 4.7 L16.85 4.7 16.85 4.65 16.95 4.6 17.0 4.55 17.1 4.55 Q17.15 4.5 17.2 4.5 L17.4 4.5 17.65 4.55 Q17.85 4.55 17.85 4.65 17.75 4.7 17.6 4.7 M14.05 4.05 L12.9 4.0 12.85 4.0 Q12.85 3.9 13.0 3.85 L13.45 3.8 13.65 3.8 13.85 3.85 13.9 3.85 13.9 3.9 14.05 4.05 M13.7 4.6 L13.9 4.6 Q14.0 4.6 14.0 4.65 L14.0 4.7 13.95 4.75 13.85 4.8 13.8 4.8 Q13.65 4.8 13.6 4.65 L13.6 4.6 13.7 4.6 M11.85 3.65 L11.8 3.7 11.8 3.8 11.75 3.8 11.75 3.85 10.55 3.9 Q9.4 3.9 8.45 3.7 8.45 3.6 8.6 3.5 L8.9 3.45 10.2 3.25 10.85 3.35 11.15 3.35 Q11.5 3.35 11.75 3.55 L11.85 3.6 11.85 3.65 M-0.85 2.8 L-0.95 2.8 -0.9 2.65 -0.85 2.8 M-0.8 2.35 L-0.8 2.45 -0.85 2.55 -0.8 2.3 -0.8 2.35 M-14.85 3.5 L-14.75 3.5 -14.6 3.65 -14.4 3.95 Q-14.5 4.0 -14.6 4.0 -15.35 3.95 -16.05 4.05 -16.2 4.05 -16.35 3.95 L-16.3 3.95 -16.0 3.7 -15.45 3.5 -14.85 3.5 M-20.2 2.55 L-20.35 2.55 -20.1 2.6 -20.2 2.55 M-19.65 2.6 L-19.65 2.6 M-18.2 1.8 Q-18.2 1.7 -18.25 1.75 -18.3 1.8 -18.25 1.8 L-18.2 1.8 M-21.7 0.55 Q-21.7 0.65 -21.8 0.7 L-22.0 0.75 -23.15 0.65 Q-23.3 0.65 -23.35 0.6 -22.75 0.45 -22.2 0.5 L-22.1 0.4 Q-22.05 0.35 -22.0 0.35 L-21.9 0.35 -21.7 0.45 -21.7 0.55 M-21.65 2.2 L-21.65 2.2 M-24.05 1.9 L-24.0 1.9 -23.9 2.0 -23.85 2.0 Q-23.85 2.1 -23.95 2.15 -24.15 2.3 -24.4 2.3 L-24.55 2.25 -24.55 2.2 -24.6 2.2 -24.6 2.1 -24.55 2.0 Q-24.5 1.95 -24.4 1.9 L-24.05 1.9 M-28.5 2.0 Q-28.3 2.0 -28.3 2.15 -28.3 2.25 -28.4 2.25 L-28.65 2.25 -28.7 2.2 -28.7 2.15 -28.6 2.05 -28.55 2.05 -28.5 2.0" fill="#52732e" fill-rule="evenodd" stroke="none"/>
      <path d="M33.6 2.05 Q33.65 1.85 33.8 1.7 33.9 1.85 33.95 2.05 L34.0 2.35 34.0 2.6 Q34.0 3.1 34.25 3.55 34.45 3.8 34.4 4.1 L34.7 4.25 Q34.85 4.35 35.0 4.4 L35.15 4.1 35.25 3.8 Q35.25 3.7 35.35 3.65 L35.4 3.65 Q35.5 3.65 35.55 3.7 L35.6 3.75 35.6 4.25 35.7 4.5 35.75 4.5 35.9 4.55 35.95 4.55 36.0 4.6 36.0 4.65 36.2 4.6 Q36.2 4.55 36.2 4.5 L36.3 4.35 Q36.4 4.3 36.5 4.3 36.6 4.3 36.6 4.4 36.6 4.5 36.75 4.5 L36.85 4.55 36.85 4.65 Q36.85 4.7 36.9 4.75 L36.95 4.85 Q36.9 5.05 36.7 5.15 L36.3 5.15 Q35.3 5.35 34.1 5.15 L32.65 5.0 Q29.3 4.8 25.9 5.2 23.85 5.5 21.85 5.2 21.65 5.15 21.55 5.05 21.25 5.1 21.1 4.9 L21.1 4.75 21.15 4.7 Q21.5 4.65 21.65 4.4 L21.8 4.0 Q21.85 3.9 21.95 3.85 22.2 3.9 22.05 4.15 L22.0 4.25 22.0 4.35 Q22.0 4.45 22.05 4.5 L22.6 4.5 23.05 4.35 Q23.25 4.2 23.45 3.85 L23.6 3.45 23.8 3.05 23.8 2.95 Q23.9 2.75 24.1 2.65 L24.05 2.85 24.05 3.0 24.0 3.3 24.05 3.45 24.05 3.75 Q24.05 3.95 24.15 4.1 L24.25 4.25 Q24.35 4.35 24.55 4.45 L24.95 4.65 25.6 4.65 25.9 4.55 26.15 4.6 Q26.45 4.6 26.65 4.5 L26.7 4.3 26.65 4.1 Q26.6 3.95 26.75 3.95 L26.8 3.95 Q26.8 4.05 26.95 4.1 27.1 4.15 27.15 4.25 L27.25 4.5 27.6 4.55 27.65 4.55 Q27.8 4.4 28.05 4.35 L28.4 4.2 Q28.55 3.75 28.9 3.4 29.0 3.25 29.05 3.05 29.05 2.9 29.1 2.75 L29.2 2.35 Q29.3 2.5 29.3 2.75 L29.25 3.0 Q29.2 3.35 29.2 3.75 29.25 3.95 29.35 4.1 L29.8 4.15 29.9 4.2 30.4 3.85 30.75 3.5 Q30.85 3.4 31.0 3.35 31.05 3.45 31.05 3.6 31.0 3.75 31.1 3.85 L31.3 4.0 31.3 4.1 Q31.45 4.15 31.55 4.25 L31.6 4.25 31.95 4.2 Q32.15 4.2 32.3 4.1 L32.3 3.9 Q32.25 3.8 32.35 3.75 32.45 3.8 32.4 3.85 32.4 3.95 32.5 4.0 32.55 4.0 32.55 4.1 L32.75 4.1 33.2 3.15 Q33.4 2.8 33.5 2.45 L33.55 2.15 33.6 2.05 M7.2 2.8 Q7.0 3.5 6.9 4.2 L6.85 4.6 Q7.1 4.85 7.7 4.8 8.3 4.75 8.65 4.3 8.7 4.2 8.75 4.2 9.05 4.25 8.85 4.45 8.7 4.6 8.85 4.75 8.95 4.85 9.0 4.95 L9.0 5.0 9.15 5.0 9.6 5.1 9.65 5.1 Q9.7 4.95 9.8 4.9 L10.2 4.7 10.25 4.65 Q10.45 4.45 10.6 4.2 L10.65 4.15 Q10.85 4.35 10.65 4.6 10.45 4.8 10.5 5.05 10.5 5.15 10.55 5.25 10.65 5.3 10.75 5.4 L10.75 5.45 10.8 5.45 10.75 5.4 10.75 5.35 10.9 5.3 10.95 5.3 11.05 5.25 11.15 5.15 Q11.25 5.15 11.25 5.2 L11.3 5.3 11.25 5.45 11.0 5.55 11.1 5.6 Q10.4 5.75 9.6 5.6 9.15 5.5 8.75 5.75 8.5 5.9 8.3 5.9 L8.0 6.0 Q7.8 6.0 7.65 5.95 L8.05 5.85 8.0 5.85 8.1 5.75 8.25 5.7 8.3 5.7 8.35 5.65 Q8.45 5.6 8.6 5.55 8.55 5.5 8.6 5.45 L8.65 5.4 8.65 5.25 Q8.7 5.2 8.75 5.2 L9.25 5.3 9.2 5.3 9.1 5.25 7.8 5.1 7.35 5.05 6.8 5.0 6.15 5.15 4.65 5.35 Q4.4 5.35 4.2 5.25 L3.75 5.1 0.7 5.15 0.45 5.2 -0.2 5.35 Q-1.8 5.5 -3.2 5.2 L-3.85 5.15 -4.2 5.25 Q-4.55 5.35 -4.65 5.15 -4.7 5.05 -5.0 5.15 L-4.8 5.2 -5.2 5.15 -5.3 5.2 -5.7 5.15 -6.45 5.25 -7.5 5.45 Q-7.75 5.5 -7.9 5.7 L-7.75 5.75 -7.4 5.85 Q-7.3 5.9 -7.2 5.95 L-7.15 6.0 -6.4 6.05 Q-7.75 6.3 -9.4 6.1 L-11.45 5.85 -11.5 5.85 -11.5 5.75 -11.7 5.7 Q-11.75 5.7 -11.7 5.6 -11.7 5.55 -11.65 5.55 L-11.3 5.5 -11.25 5.5 Q-11.2 5.5 -11.15 5.55 L-10.95 5.55 Q-11.0 5.5 -11.0 5.35 -11.0 5.25 -11.05 5.15 L-11.05 4.95 Q-10.9 4.95 -10.75 5.15 L-10.6 5.5 -10.45 5.6 Q-10.4 5.25 -10.2 4.85 -10.05 4.5 -10.05 4.05 -10.0 3.85 -9.8 3.75 -9.6 3.95 -9.65 4.3 L-9.6 4.95 Q-9.55 5.15 -9.6 5.4 L-9.5 5.45 Q-9.4 5.45 -9.4 5.55 L-9.3 5.55 Q-9.15 5.55 -9.1 5.65 -7.8 5.05 -7.35 3.75 L-6.95 2.7 -6.85 2.7 -6.5 1.65 Q-6.4 1.3 -6.2 1.05 -6.2 1.65 -6.35 2.4 L-6.35 2.65 -6.5 3.65 Q-6.5 3.6 -6.4 3.6 -6.35 3.8 -6.4 4.05 -6.45 4.25 -6.35 4.45 -6.35 4.6 -6.35 4.75 L-6.0 4.75 Q-5.9 4.75 -5.85 4.8 L-5.8 4.9 -5.8 5.0 -5.7 5.05 -5.45 5.05 -5.15 5.1 -5.1 5.1 Q-4.85 5.0 -4.65 4.75 L-4.2 4.3 Q-4.05 4.35 -4.25 4.6 L-4.45 4.9 -4.45 5.0 Q-4.25 5.15 -3.85 5.0 L-3.6 4.9 Q-3.65 4.85 -3.6 4.8 L-3.5 4.7 -3.4 4.65 Q-3.3 4.7 -3.3 4.8 L-3.25 4.9 Q-2.45 4.45 -1.95 3.75 -1.6 3.3 -1.3 2.8 L-1.15 2.55 Q-1.1 2.4 -0.95 2.3 -0.85 1.85 -0.8 1.35 -0.75 1.15 -0.55 1.05 -0.65 1.8 -0.6 2.55 L-0.6 2.8 Q-0.55 3.45 -0.35 4.1 L-0.2 4.55 0.95 4.6 1.2 4.65 2.1 3.75 2.55 3.2 2.8 2.9 Q2.85 2.75 2.95 2.7 L3.8 1.25 Q3.95 1.05 4.1 0.9 4.3 1.65 3.85 2.45 3.7 2.8 3.65 3.15 3.55 3.55 3.7 4.0 3.75 4.2 3.75 4.45 L3.95 4.3 4.45 3.95 4.5 3.95 Q4.55 4.05 4.45 4.1 4.35 4.2 4.4 4.3 L4.35 4.35 4.4 4.4 4.4 4.45 4.45 4.45 4.55 4.5 4.6 4.45 Q4.7 4.5 4.8 4.6 L4.9 4.75 4.9 4.9 5.15 4.9 Q5.7 4.25 6.1 3.5 L6.45 2.8 7.0 1.85 Q7.15 1.55 7.4 1.35 L7.4 1.4 7.55 1.25 Q7.45 1.95 7.25 2.7 L7.2 2.8 M37.0 6.0 Q37.3 5.85 37.7 5.8 L37.8 5.75 38.15 5.75 Q38.35 5.75 38.5 5.85 38.65 5.95 38.65 6.1 38.45 6.3 38.1 6.35 37.45 6.35 36.85 6.2 L36.8 6.15 36.9 6.1 Q36.95 6.05 37.0 6.0 M33.75 2.05 L33.8 2.05 33.75 1.95 33.75 2.05 M29.5 6.2 L29.45 6.2 Q29.15 6.35 28.8 6.2 L28.75 6.2 28.75 6.15 28.8 6.1 Q28.85 6.1 28.9 6.1 L29.05 6.05 29.35 6.05 Q29.45 6.1 29.5 6.15 L29.5 6.2 M25.7 6.15 L25.7 6.05 25.75 5.95 25.85 5.9 26.1 5.9 26.35 5.95 26.6 6.05 26.6 6.1 26.45 6.15 25.7 6.15 M19.85 4.75 L19.95 4.8 20.05 4.9 20.15 4.95 Q20.1 4.95 20.05 5.0 19.95 5.1 19.85 5.05 L19.7 5.05 19.7 4.8 19.75 4.75 19.85 4.75 M18.3 5.65 Q18.35 5.6 18.4 5.55 18.5 5.5 18.6 5.45 18.75 5.5 18.7 5.6 18.65 5.7 18.55 5.75 18.4 5.8 18.3 5.7 L18.3 5.65 M21.85 4.9 L21.85 4.9 M6.8 4.8 L6.8 4.8 M7.1 6.15 Q6.95 6.3 6.7 6.35 L6.05 6.45 6.1 6.55 6.15 6.6 6.15 6.65 Q5.75 7.1 4.95 6.95 L4.35 6.85 4.2 6.8 Q4.5 6.55 5.05 6.5 L5.8 6.35 5.95 6.35 Q6.15 6.3 6.35 6.15 6.45 6.05 6.65 6.05 L6.8 6.05 7.0 6.1 7.1 6.15 M1.0 6.35 Q-0.1 6.55 -1.4 6.4 L-2.9 6.2 Q-3.15 6.2 -3.3 6.1 L-3.25 6.05 -2.25 6.0 -1.8 6.0 -1.4 6.05 Q-1.2 6.05 -1.2 6.2 -1.2 6.5 -0.55 6.45 -0.05 6.4 0.2 6.2 L0.25 6.15 0.3 6.15 Q0.55 6.0 0.8 6.15 0.9 6.2 1.0 6.25 L1.0 6.35 M-0.8 2.35 L-0.8 2.3 -0.85 2.55 -0.8 2.45 -0.8 2.35 M-0.85 2.8 L-0.9 2.65 -0.95 2.8 -0.85 2.8 M-10.8 5.5 L-10.8 5.6 -10.7 5.7 Q-10.5 5.7 -10.65 5.55 L-10.8 5.5 M-11.0 6.9 L-10.95 6.85 Q-10.8 6.9 -10.8 7.0 -10.85 7.05 -10.95 7.1 -11.1 7.1 -11.1 7.0 L-11.1 6.95 -11.05 6.9 -11.0 6.9 M-6.7 4.3 L-6.65 4.4 -6.65 4.45 -6.6 4.5 -6.6 4.15 -6.7 4.3 M-7.25 6.6 Q-7.15 6.6 -7.15 6.7 -7.2 6.8 -7.3 6.7 -7.35 6.65 -7.25 6.6 M-6.15 6.85 Q-6.15 6.75 -6.05 6.75 -5.8 6.75 -5.95 6.9 -6.1 7.0 -6.15 6.85 M-9.05 7.5 Q-9.05 7.55 -9.15 7.6 L-9.8 7.6 -9.9 7.5 -9.9 7.45 -9.85 7.4 -9.85 7.35 -9.8 7.35 -9.8 7.3 -9.45 7.3 -9.15 7.35 Q-9.05 7.4 -9.05 7.5 M-17.3 5.85 Q-17.45 5.85 -17.55 5.75 L-17.6 5.75 Q-17.9 5.7 -18.15 5.9 -18.3 6.0 -18.5 5.95 L-18.5 5.6 -18.45 5.6 -18.3 5.5 -17.8 5.4 -17.7 5.35 -17.35 5.4 Q-17.2 5.4 -17.05 5.5 L-17.0 5.6 -17.0 5.65 -17.05 5.75 Q-17.1 5.9 -17.3 5.85 M-13.2 6.3 L-13.15 6.2 Q-13.1 6.2 -13.05 6.15 L-13.0 6.15 Q-12.9 6.2 -12.9 6.3 -12.95 6.4 -13.1 6.4 -13.2 6.4 -13.2 6.3 M-12.45 7.05 Q-12.45 6.95 -12.4 6.95 L-12.3 6.95 -12.25 6.9 -12.15 6.85 -12.05 6.85 -11.9 6.9 Q-11.8 6.9 -11.75 7.0 -11.8 7.15 -12.0 7.1 L-12.4 7.05 -12.45 7.05 M-19.75 3.45 L-19.7 3.45 Q-19.5 3.6 -19.7 3.8 -19.85 4.0 -19.9 4.2 -19.95 4.35 -19.85 4.5 L-19.75 4.55 -19.4 4.35 Q-19.3 4.3 -19.25 4.2 -19.2 4.1 -19.1 4.1 -19.0 4.1 -19.05 4.15 L-19.1 4.3 Q-19.1 4.35 -19.15 4.4 -19.2 4.55 -19.0 4.5 L-18.75 4.5 Q-19.05 4.8 -19.6 4.8 L-19.65 4.8 Q-19.75 4.85 -19.75 4.8 L-19.75 4.75 -19.9 4.75 -19.95 4.85 Q-20.7 4.7 -21.45 5.0 L-21.65 5.0 -21.85 4.8 -22.0 4.8 Q-22.1 4.8 -22.15 4.75 L-22.15 4.7 -23.3 4.9 Q-23.45 4.95 -23.55 4.9 -24.0 5.1 -24.5 4.95 L-24.65 5.0 -25.15 5.0 -25.2 5.05 -25.3 5.0 -25.45 5.0 Q-25.2 5.05 -24.95 5.15 L-26.55 5.05 -27.65 4.95 -27.8 4.95 Q-28.25 5.05 -28.5 4.8 L-28.15 4.8 Q-28.05 4.65 -27.9 4.55 -27.65 4.45 -27.45 4.5 -27.45 4.75 -27.05 4.75 L-26.85 4.75 -26.5 4.2 -26.25 3.65 Q-26.2 3.5 -26.0 3.5 -25.9 3.7 -26.05 3.95 -26.2 4.2 -26.25 4.45 L-26.3 4.8 -26.25 4.85 -26.25 4.9 -26.15 4.9 -26.1 4.85 Q-26.1 4.8 -26.05 4.8 L-26.0 4.75 -25.45 4.75 -25.4 4.7 Q-25.25 4.6 -25.1 4.5 L-25.1 4.45 Q-24.95 4.5 -25.0 4.65 L-25.15 4.8 -24.9 4.85 -24.8 4.85 Q-24.8 4.75 -24.7 4.7 L-24.45 4.55 Q-24.35 4.5 -24.3 4.5 -24.15 4.5 -24.2 4.6 -24.25 4.65 -24.25 4.75 -24.25 4.85 -24.3 4.85 L-24.35 4.9 -24.4 4.9 -24.5 4.95 -23.65 4.85 -23.7 4.75 Q-23.05 4.4 -22.6 3.8 -22.25 3.3 -22.0 2.8 L-21.85 2.6 -21.75 2.35 -21.7 2.35 -21.7 2.55 Q-21.55 2.75 -21.7 3.0 L-21.95 3.5 -21.95 3.55 Q-21.9 3.55 -21.9 3.65 L-21.85 3.8 Q-21.8 3.95 -21.8 3.85 L-21.75 3.75 Q-21.65 3.7 -21.65 3.8 L-21.65 3.85 Q-21.6 4.0 -21.6 4.15 -21.6 4.25 -21.65 4.35 -21.7 4.45 -21.65 4.6 L-20.55 4.45 -20.5 4.4 Q-20.45 4.35 -20.4 4.35 L-20.25 4.3 -20.15 4.05 Q-20.1 3.9 -20.1 3.75 L-20.05 3.5 -19.95 3.5 -19.85 3.45 Q-19.8 3.45 -19.75 3.45 M-27.85 3.75 L-27.85 3.8 -29.6 3.85 -29.7 3.85 Q-29.85 3.85 -29.9 3.75 L-29.85 3.75 -29.4 3.65 -29.35 3.65 -27.9 3.7 Q-27.85 3.7 -27.85 3.75 M-24.45 4.85 L-24.45 4.85 M-30.3 5.15 L-30.3 5.2 -30.35 5.25 -30.85 5.25 -30.95 5.15 -30.95 5.05 -30.9 4.95 -30.9 4.9 -30.85 4.9 -30.75 4.85 -30.6 4.85 -30.5 4.9 -30.45 4.95 Q-30.4 4.95 -30.35 5.0 L-30.3 5.0 -30.3 5.15" fill="#608c38" fill-rule="evenodd" stroke="none"/>
    </g>
  </defs>
</svg>
