<?xml version="1.0" encoding="UTF-8" standalone="no"?>
<svg xmlns:ffdec="https://www.free-decompiler.com/flash" xmlns:xlink="http://www.w3.org/1999/xlink" ffdec:objectType="frame" height="744.25px" width="739.95px" xmlns="http://www.w3.org/2000/svg">
  <g transform="matrix(1.0, 0.0, 0.0, 1.0, 488.3, 435.95)">
    <clipPath id="clipPath0" transform="matrix(7.0, 0.0, 0.0, 7.0, -107.1, 12.75)">
      <path d="M51.25 0.65 L-22.4 0.65 -22.4 -64.1 51.25 -64.1 51.25 0.65" fill="#608c38" fill-rule="evenodd" stroke="none"/>
    </clipPath>
    <g clip-path="url(#clipPath0)">
      <use ffdec:characterId="2111" height="52.9" transform="matrix(6.6389, 0.0, 4.0125, 4.678, -488.1913, 19.8102)" width="43.45" xlink:href="#shape1"/>
    </g>
    <use ffdec:characterId="2119" height="9.25" transform="matrix(7.0, 0.0, 0.0, 7.0, -321.65, 1.2)" width="70.5" xlink:href="#shape2"/>
  </g>
  <defs>
    <g id="shape1" transform="matrix(1.0, 0.0, 0.0, 1.0, 15.05, 46.0)">
      <path d="M27.6 -44.25 L26.5 -41.9 Q26.05 -40.85 25.4 -40.05 25.85 -40.65 26.15 -41.3 26.75 -42.5 26.85 -43.45 26.45 -43.1 26.2 -42.45 L26.05 -42.05 25.85 -41.85 25.4 -41.35 Q25.2 -41.05 25.1 -40.75 L25.35 -40.9 25.15 -40.65 Q24.85 -40.2 24.55 -39.75 L24.85 -40.7 25.1 -41.05 Q25.4 -41.4 25.55 -41.65 L25.85 -41.95 25.65 -41.8 Q25.75 -42.0 25.65 -42.1 24.7 -41.2 23.95 -40.1 23.2 -39.05 22.55 -37.85 21.75 -36.55 21.1 -35.2 21.95 -35.35 22.4 -36.35 L23.35 -38.25 23.05 -37.4 Q21.95 -35.15 20.35 -33.3 15.85 -28.0 12.0 -21.95 L11.85 -21.7 Q13.15 -24.85 14.9 -27.6 L18.7 -33.5 18.1 -32.4 Q17.05 -30.3 15.75 -28.55 16.9 -29.1 17.55 -30.3 18.6 -32.35 19.85 -34.3 21.15 -36.25 22.1 -38.35 L21.9 -38.2 21.9 -38.4 17.6 -34.2 Q15.4 -32.1 13.95 -29.3 12.15 -25.95 10.6 -22.45 9.05 -18.95 7.9 -15.35 L7.95 -15.45 5.65 -11.6 Q6.9 -13.85 7.8 -16.35 8.9 -19.4 10.45 -22.15 11.35 -23.7 11.0 -25.35 L10.4 -24.1 10.6 -25.05 9.6 -23.55 9.5 -23.2 Q9.5 -23.35 9.45 -23.5 8.2 -22.0 7.1 -20.3 L7.1 -20.25 Q6.5 -19.45 5.8 -18.7 2.2 -14.8 -0.9 -10.45 -3.65 -6.65 -6.2 -2.55 -6.95 -1.3 -6.7 -0.25 L-2.55 -6.5 Q0.1 -10.7 2.85 -14.75 L3.4 -15.4 Q4.6 -16.35 5.55 -17.6 2.9 -13.05 -0.2 -9.05 -3.75 -4.5 -6.25 0.8 -3.85 -2.4 -1.7 -5.85 L-1.45 -6.2 Q-0.5 -7.0 0.35 -7.9 2.25 -9.95 3.8 -12.4 5.05 -14.4 5.85 -16.5 7.35 -18.8 8.8 -21.2 L8.7 -21.05 Q8.6 -20.65 8.4 -20.3 8.15 -19.9 8.15 -19.55 7.8 -18.85 7.45 -18.4 7.3 -17.4 6.9 -16.55 L6.7 -16.05 Q5.3 -13.15 3.85 -10.3 2.75 -8.1 0.85 -6.85 -3.3 -4.1 -5.4 0.65 -4.7 -0.05 -4.15 -0.95 -3.55 -2.0 -2.55 -2.65 -0.4 -4.05 1.45 -5.9 L2.1 -6.65 1.6 -5.55 Q2.65 -5.95 3.5 -6.85 4.65 -8.1 5.75 -9.45 L6.85 -10.85 6.85 -10.75 7.5 -11.35 7.5 -11.25 Q6.65 -9.45 5.55 -7.95 L5.55 -8.0 Q4.55 -7.5 3.7 -6.75 2.3 -5.4 0.7 -4.4 -1.65 -2.9 -3.1 -0.65 -2.65 -0.85 -2.35 -1.25 -0.95 -3.15 1.1 -4.25 1.75 -4.6 2.5 -4.85 L1.65 -4.25 Q-2.15 -1.7 -4.35 2.0 -4.1 2.35 -3.9 2.2 -1.6 0.75 0.75 -0.7 1.05 -0.9 1.35 -1.1 -0.65 0.9 -1.95 3.35 L-2.5 3.25 -2.85 3.1 Q-3.0 3.0 -3.2 3.0 -3.4 3.05 -3.55 3.2 -3.75 3.4 -3.9 3.7 L-3.75 4.1 -3.2 4.6 -3.0 4.65 -2.2 4.45 Q-2.2 4.2 -2.2 4.0 L-2.15 3.85 -2.15 3.8 -1.8 4.0 -1.9 4.1 Q-2.0 4.2 -1.95 4.3 -1.9 4.45 -1.9 4.6 -1.85 4.7 -1.95 4.8 -2.5 5.15 -3.25 5.05 -3.95 4.95 -4.6 4.35 -4.75 4.3 -4.8 4.1 -4.85 3.95 -4.8 3.8 -4.75 3.6 -4.6 3.6 -4.7 3.15 -4.65 2.85 -4.6 2.65 -4.55 2.55 -4.35 2.0 -4.35 1.35 -4.4 0.9 -4.25 0.55 -5.15 1.4 -5.8 2.65 L-5.85 2.7 Q-6.6 4.1 -8.2 2.65 -8.6 2.3 -8.6 1.85 -8.55 1.75 -8.5 1.75 L-8.35 1.55 -8.3 1.5 Q-8.2 1.45 -8.4 1.3 L-8.6 1.1 -8.85 0.8 Q-8.95 0.4 -8.9 0.0 -8.9 -0.4 -8.8 -0.8 -8.7 -1.1 -8.7 -1.35 -8.65 -1.5 -8.6 -1.7 -8.55 -2.05 -8.35 -2.3 L-8.2 -2.1 -8.3 0.35 -8.5 0.7 -8.5 0.75 Q-8.45 1.0 -8.2 1.1 L-7.25 1.75 -7.8 2.45 -7.5 2.8 -6.6 2.95 Q-6.3 2.15 -5.8 1.45 L-5.6 1.15 -5.45 0.9 -5.9 1.35 -6.2 1.0 -6.9 0.3 Q-7.15 0.05 -7.4 -0.15 L-7.45 -0.25 Q-7.25 -0.6 -7.2 -1.05 -7.1 -1.85 -7.75 -2.65 L-7.8 -2.65 Q-8.4 -3.4 -9.3 -3.15 -9.5 -3.1 -9.6 -2.9 L-9.9 -2.5 -9.4 -4.3 -8.7 -4.95 Q-8.0 -4.55 -7.7 -3.75 L-7.65 -3.65 -7.25 -4.05 Q-5.3 -5.85 -3.75 -8.15 -0.4 -12.9 3.55 -16.95 7.55 -21.05 10.9 -25.8 L10.35 -25.35 14.3 -30.8 Q18.1 -35.15 22.5 -38.95 25.35 -41.45 27.35 -44.8 L27.45 -44.75 27.6 -44.25 M19.5 -34.95 Q17.75 -33.5 16.4 -31.5 L11.6 -22.9 9.25 -17.6 8.85 -16.9 Q10.7 -21.15 12.4 -25.35 12.95 -26.7 13.6 -27.9 16.1 -32.7 20.15 -36.0 L19.5 -34.95 M-9.9 -2.1 L-9.45 -1.95 -9.35 -1.9 -9.3 -1.85 -9.3 -1.75 Q-9.6 -1.9 -9.7 -1.7 L-10.0 -2.1 -9.9 -2.1 M-10.35 -2.5 L-10.6 -1.45 Q-10.55 -0.75 -10.7 -0.2 -10.8 0.05 -10.75 0.3 -10.85 0.0 -10.85 -0.35 -10.8 -1.1 -10.7 -1.8 L-10.35 -2.5 M-11.8 -1.35 L-11.35 -0.2 Q-11.15 0.3 -10.85 0.7 L-10.55 0.7 Q-10.4 0.9 -10.1 1.05 L-9.1 -1.15 Q-8.85 -1.1 -8.7 -1.3 L-9.25 0.1 Q-9.6 1.25 -10.8 1.1 -11.2 0.75 -11.4 0.3 L-11.75 -0.45 Q-11.9 -0.8 -12.15 -1.1 -12.2 -1.0 -12.2 -0.9 L-12.2 -0.55 Q-12.2 -0.3 -12.4 -0.4 -12.55 -0.75 -12.55 -1.05 L-12.75 -2.05 -12.25 -2.1 -11.8 -1.35 M4.3 4.95 L3.75 4.65 3.7 4.45 2.6 4.5 Q2.25 4.5 2.0 4.1 1.45 5.0 0.45 5.35 L-0.65 5.45 Q-1.45 5.25 -1.55 4.05 -1.25 4.15 -1.0 3.95 L-0.9 3.9 -0.85 3.95 -0.85 4.2 -0.8 4.4 -0.75 4.5 -0.65 4.65 -0.7 4.7 -0.7 4.8 -0.45 5.25 -0.65 5.45 -0.35 5.3 -0.05 5.35 Q0.5 5.15 0.95 4.65 L1.15 3.95 Q1.15 3.85 1.05 3.75 L0.9 3.65 Q0.75 3.55 0.7 3.45 0.65 3.4 0.6 3.35 L0.7 3.35 Q0.9 3.3 0.9 3.1 L0.9 3.05 Q0.9 2.95 0.95 2.8 0.95 2.7 0.9 2.55 0.8 2.4 0.65 2.35 L0.45 2.35 0.25 2.3 0.3 2.3 Q0.6 2.1 0.95 2.0 L1.0 2.15 Q1.2 2.45 1.5 2.45 L1.85 2.45 4.0 -0.75 Q3.15 0.95 2.4 2.7 L2.75 2.55 Q2.7 2.65 2.8 2.85 2.85 2.95 2.75 3.05 L2.7 3.05 2.35 3.0 2.15 3.0 Q2.1 3.3 2.35 3.55 L2.5 3.7 3.15 3.95 3.45 3.9 3.55 3.9 4.05 3.6 4.2 3.55 4.55 4.45 4.45 4.6 4.3 4.95 M3.95 3.15 L4.7 2.2 4.7 1.75 4.55 1.6 4.5 1.6 4.4 1.55 4.2 1.55 4.1 1.6 Q4.75 0.95 5.2 0.0 L8.75 -8.0 11.55 -12.9 12.6 -14.2 Q10.0 -9.45 7.7 -4.55 L4.95 1.15 4.7 1.2 Q5.15 2.3 4.3 2.85 L3.95 3.15 M15.1 -18.8 L15.05 -19.15 16.2 -20.75 15.1 -18.8 M23.05 -35.05 L23.35 -35.6 23.05 -35.05 M10.5 -18.1 L13.55 -23.4 Q14.55 -25.05 15.95 -26.2 L20.7 -31.5 19.8 -29.25 Q19.0 -27.35 17.8 -25.85 13.75 -20.65 9.6 -15.55 L9.6 -15.45 9.65 -15.35 7.95 -13.65 10.1 -17.4 Q11.05 -18.15 11.85 -19.15 13.95 -21.6 16.1 -24.0 18.35 -26.5 19.65 -29.1 18.5 -28.0 17.65 -26.5 16.2 -23.95 14.1 -21.8 L10.5 -18.1 M5.95 -20.9 L5.7 -20.65 Q2.1 -16.4 -1.35 -12.2 -4.2 -8.7 -6.85 -4.95 L-5.0 -8.3 1.3 -16.0 5.95 -20.9 M5.35 -11.0 L5.3 -10.95 5.3 -11.0 5.35 -11.0 M3.8 -10.8 Q3.45 -10.75 3.25 -10.45 2.9 -9.9 2.5 -9.45 2.1 -9.0 1.8 -8.5 2.2 -8.65 2.5 -8.85 2.95 -9.25 3.3 -9.65 3.7 -10.15 3.8 -10.8 M3.35 2.25 L3.25 2.25 3.35 2.2 3.35 2.25 M-7.45 1.75 L-7.5 1.75 Q-7.65 1.85 -7.85 1.95 L-7.65 1.95 -7.45 1.75" fill="#52732e" fill-rule="evenodd" stroke="none"/>
      <path d="M27.6 -44.25 L26.15 -39.6 23.35 -35.6 23.05 -35.05 19.5 -27.2 16.2 -20.75 15.05 -19.15 15.1 -18.8 13.25 -15.4 12.6 -14.2 11.55 -12.9 8.75 -8.0 5.2 0.0 Q4.75 0.95 4.1 1.6 L4.2 1.55 4.4 1.55 4.5 1.6 4.55 1.6 4.7 1.75 4.7 2.2 3.95 3.15 3.45 3.9 3.15 3.95 2.5 3.7 2.35 3.55 Q2.1 3.3 2.15 3.0 L2.35 3.0 2.7 3.05 2.75 3.05 Q2.85 2.95 2.8 2.85 2.7 2.65 2.75 2.55 L2.4 2.7 Q3.15 0.95 4.0 -0.75 L1.85 2.45 1.5 2.45 Q1.2 2.45 1.0 2.15 L0.95 2.0 Q0.6 2.1 0.3 2.3 L0.25 2.3 0.45 2.35 0.65 2.35 Q0.8 2.4 0.9 2.55 0.95 2.7 0.95 2.8 0.9 2.95 0.9 3.05 L0.9 3.1 Q0.9 3.3 0.7 3.35 L0.6 3.35 Q0.65 3.4 0.7 3.45 0.75 3.55 0.9 3.65 L1.05 3.75 Q1.15 3.85 1.15 3.95 L0.95 4.65 Q0.5 5.15 -0.05 5.35 L-0.35 5.3 -0.45 5.25 -0.7 4.8 -0.7 4.7 -0.65 4.65 -0.75 4.5 -0.8 4.4 -0.85 4.2 -0.85 3.95 -0.9 3.9 -1.0 3.95 Q-1.25 4.15 -1.55 4.05 -1.45 5.25 -0.65 5.45 L0.45 5.35 Q1.45 5.0 2.0 4.1 2.25 4.5 2.6 4.5 L3.7 4.45 3.75 4.65 4.3 4.95 4.85 6.1 Q4.85 6.2 4.75 6.3 4.65 6.35 4.6 6.5 L4.55 6.6 Q-0.1 7.2 -5.0 6.55 -2.0 6.35 1.1 6.35 L-6.95 5.7 -7.1 5.7 -7.05 5.8 -7.05 5.85 -7.1 5.9 -7.15 5.9 -7.75 5.85 -11.15 5.45 -11.85 5.5 Q-12.5 5.65 -12.95 5.2 L-12.9 5.15 -12.9 5.1 -12.85 5.05 -12.75 5.0 -12.4 5.0 -12.35 4.95 -12.65 4.95 -12.75 4.9 -12.9 4.85 -13.0 4.8 -13.15 4.75 -13.55 4.65 -14.25 2.65 Q-14.3 2.45 -14.5 2.25 L-14.5 2.1 Q-14.5 1.95 -14.5 1.8 L-14.05 1.75 Q-14.0 1.65 -13.85 1.75 L-13.75 1.8 -13.65 1.95 -13.55 2.2 -12.6 2.85 -12.3 1.5 -12.75 -2.05 -12.55 -1.05 Q-12.55 -0.75 -12.4 -0.4 -12.2 -0.3 -12.2 -0.55 L-12.2 -0.9 Q-12.2 -1.0 -12.15 -1.1 -11.9 -0.8 -11.75 -0.45 L-11.4 0.3 Q-11.2 0.75 -10.8 1.1 -9.6 1.25 -9.25 0.1 L-8.7 -1.3 Q-8.85 -1.1 -9.1 -1.15 L-10.1 1.05 Q-10.4 0.9 -10.55 0.7 L-10.85 0.7 Q-11.15 0.3 -11.35 -0.2 L-11.8 -1.35 -11.4 -0.75 Q-11.15 -0.45 -11.1 -0.1 L-11.05 0.1 -10.8 0.3 -10.7 0.4 -10.75 0.3 Q-10.8 0.05 -10.7 -0.2 -10.55 -0.75 -10.6 -1.45 L-10.35 -2.5 -10.0 -2.1 -9.7 -1.7 Q-9.6 -1.9 -9.3 -1.75 L-9.3 -1.85 -9.35 -1.9 -9.45 -1.95 -9.9 -2.1 -9.9 -2.5 -9.6 -2.9 Q-9.5 -3.1 -9.3 -3.15 -8.4 -3.4 -7.8 -2.65 L-7.75 -2.65 Q-7.1 -1.85 -7.2 -1.05 -7.25 -0.6 -7.45 -0.25 L-7.4 -0.15 Q-7.15 0.05 -6.9 0.3 L-6.2 1.0 -5.9 1.35 -5.45 0.9 -5.6 1.15 -5.8 1.45 Q-6.3 2.15 -6.6 2.95 L-7.5 2.8 -7.8 2.45 -7.25 1.75 -8.2 1.1 Q-8.45 1.0 -8.5 0.75 L-8.5 0.7 -8.3 0.35 -8.2 -2.1 -8.35 -2.3 Q-8.55 -2.05 -8.6 -1.7 -8.65 -1.5 -8.7 -1.35 -8.7 -1.1 -8.8 -0.8 -8.9 -0.4 -8.9 0.0 -8.95 0.4 -8.85 0.8 L-8.6 1.1 -8.4 1.3 Q-8.2 1.45 -8.3 1.5 L-8.35 1.55 -8.5 1.75 Q-8.55 1.75 -8.6 1.85 -8.6 2.3 -8.2 2.65 -6.6 4.1 -5.85 2.7 L-5.8 2.65 Q-5.15 1.4 -4.25 0.55 -4.4 0.9 -4.35 1.35 -4.35 2.0 -4.55 2.55 -4.6 2.65 -4.65 2.85 -4.7 3.15 -4.6 3.6 -4.75 3.6 -4.8 3.8 -4.85 3.95 -4.8 4.1 -4.75 4.3 -4.6 4.35 -3.95 4.95 -3.25 5.05 -2.5 5.15 -1.95 4.8 -1.85 4.7 -1.9 4.6 -1.9 4.45 -1.95 4.3 -2.0 4.2 -1.9 4.1 L-1.8 4.0 -2.15 3.8 -2.15 3.85 -2.2 4.0 Q-2.2 4.2 -2.2 4.45 L-3.0 4.65 -3.2 4.6 -3.75 4.1 -3.9 3.7 Q-3.75 3.4 -3.55 3.2 -3.4 3.05 -3.2 3.0 -3.0 3.0 -2.85 3.1 L-2.5 3.25 -1.95 3.35 Q-0.65 0.9 1.35 -1.1 1.05 -0.9 0.75 -0.7 -1.6 0.75 -3.9 2.2 -4.1 2.35 -4.35 2.0 -2.15 -1.7 1.65 -4.25 L2.5 -4.85 2.6 -4.95 4.35 -6.5 Q4.95 -7.2 5.55 -7.95 6.65 -9.45 7.5 -11.25 L7.5 -11.35 6.85 -10.75 6.85 -10.85 5.75 -9.45 Q4.65 -8.1 3.5 -6.85 2.65 -5.95 1.6 -5.55 L2.1 -6.65 1.45 -5.9 Q-0.4 -4.05 -2.55 -2.65 -3.55 -2.0 -4.15 -0.95 -4.7 -0.05 -5.4 0.65 -3.3 -4.1 0.85 -6.85 2.75 -8.1 3.85 -10.3 5.3 -13.15 6.7 -16.05 L6.9 -16.55 Q7.3 -17.4 7.45 -18.4 7.8 -18.85 8.15 -19.55 8.15 -19.9 8.4 -20.3 8.6 -20.65 8.7 -21.05 L8.8 -21.2 8.8 -21.25 9.5 -23.2 9.6 -23.55 10.6 -25.05 10.4 -24.1 11.0 -25.35 Q11.35 -23.7 10.45 -22.15 8.9 -19.4 7.8 -16.35 6.9 -13.85 5.65 -11.6 L7.95 -15.45 8.8 -16.8 8.85 -16.9 9.25 -17.6 11.6 -22.9 16.4 -31.5 Q17.75 -33.5 19.5 -34.95 L19.75 -35.15 18.7 -33.5 14.9 -27.6 Q13.15 -24.85 11.85 -21.7 L12.0 -21.95 Q15.85 -28.0 20.35 -33.3 21.95 -35.15 23.05 -37.4 L23.35 -38.25 23.55 -38.7 Q23.7 -39.15 23.9 -39.6 L23.95 -39.7 24.0 -39.7 23.95 -39.65 24.0 -39.65 24.55 -40.45 24.85 -40.75 24.85 -40.7 24.55 -39.75 Q24.85 -40.2 25.15 -40.65 L25.35 -40.9 25.1 -40.75 Q25.2 -41.05 25.4 -41.35 L25.85 -41.85 26.05 -42.05 26.2 -42.45 Q26.45 -43.1 26.85 -43.45 26.75 -42.5 26.15 -41.3 25.85 -40.65 25.4 -40.05 26.05 -40.85 26.5 -41.9 L27.6 -44.25 M10.1 -17.4 L7.95 -13.65 9.65 -15.35 9.6 -15.45 9.6 -15.55 Q13.75 -20.65 17.8 -25.85 19.0 -27.35 19.8 -29.25 L20.7 -31.5 15.95 -26.2 Q14.55 -25.05 13.55 -23.4 L10.5 -18.1 10.45 -18.1 10.05 -17.4 10.1 -17.4 M7.1 -20.3 L7.45 -20.75 6.9 -19.7 6.3 -18.65 5.55 -17.6 Q4.6 -16.35 3.4 -15.4 L2.85 -14.75 Q0.1 -10.7 -2.55 -6.5 L-6.7 -0.25 Q-6.95 -1.3 -6.2 -2.55 -3.65 -6.65 -0.9 -10.45 2.2 -14.8 5.8 -18.7 6.5 -19.45 7.1 -20.25 L7.1 -20.3 M5.35 -11.0 L5.3 -11.0 5.3 -10.95 5.35 -11.0 M4.05 3.6 L3.55 3.9 4.05 3.6 M4.55 4.45 L4.45 4.6 4.55 4.45 M3.35 2.25 L3.35 2.2 3.25 2.25 3.35 2.25 M-7.45 1.75 L-7.65 1.95 -7.85 1.95 Q-7.65 1.85 -7.5 1.75 L-7.45 1.75 M-6.7 6.15 Q-5.85 6.25 -5.05 6.7 -5.25 6.8 -5.55 6.8 L-8.75 6.6 -11.3 6.3 -11.4 6.2 -11.4 6.15 Q-11.55 6.05 -11.65 6.0 L-11.7 5.95 -11.7 5.9 -11.4 5.85 -11.25 5.85 -10.55 5.8 -8.8 5.9 -6.7 6.15" fill="#3f5923" fill-rule="evenodd" stroke="none"/>
      <path d="M24.85 -40.7 L24.85 -40.75 24.55 -40.45 24.0 -39.65 23.95 -39.65 24.0 -39.7 23.95 -39.7 23.9 -39.6 Q23.7 -39.15 23.55 -38.7 L23.35 -38.25 22.4 -36.35 Q21.95 -35.35 21.1 -35.2 21.75 -36.55 22.55 -37.85 23.2 -39.05 23.95 -40.1 24.7 -41.2 25.65 -42.1 25.75 -42.0 25.65 -41.8 L25.85 -41.95 25.55 -41.65 Q25.4 -41.4 25.1 -41.05 L24.85 -40.7 M18.7 -33.5 L19.75 -35.15 19.5 -34.95 20.15 -36.0 Q16.1 -32.7 13.6 -27.9 12.95 -26.7 12.4 -25.35 10.7 -21.15 8.85 -16.9 L8.8 -16.8 7.95 -15.45 7.9 -15.35 Q9.05 -18.95 10.6 -22.45 12.15 -25.95 13.95 -29.3 15.4 -32.1 17.6 -34.2 L21.9 -38.4 21.9 -38.2 22.1 -38.35 Q21.15 -36.25 19.85 -34.3 18.6 -32.35 17.55 -30.3 16.9 -29.1 15.75 -28.55 17.05 -30.3 18.1 -32.4 L18.7 -33.5 M9.5 -23.2 L8.8 -21.25 8.8 -21.2 Q7.35 -18.8 5.85 -16.5 5.05 -14.4 3.8 -12.4 2.25 -9.95 0.35 -7.9 -0.5 -7.0 -1.45 -6.2 L-1.7 -5.85 Q-3.85 -2.4 -6.25 0.8 -3.75 -4.5 -0.2 -9.05 2.9 -13.05 5.55 -17.6 L6.3 -18.65 6.9 -19.7 7.45 -20.75 7.1 -20.3 Q8.2 -22.0 9.45 -23.5 9.5 -23.35 9.5 -23.2 M5.55 -7.95 Q4.95 -7.2 4.35 -6.5 L2.6 -4.95 2.5 -4.85 Q1.75 -4.6 1.1 -4.25 -0.95 -3.15 -2.35 -1.25 -2.65 -0.85 -3.1 -0.65 -1.65 -2.9 0.7 -4.4 2.3 -5.4 3.7 -6.75 4.55 -7.5 5.55 -8.0 L5.55 -7.95 M10.35 -25.35 L10.9 -25.8 Q7.55 -21.05 3.55 -16.95 -0.4 -12.9 -3.75 -8.15 -5.3 -5.85 -7.25 -4.05 L-6.85 -4.95 Q-4.2 -8.7 -1.35 -12.2 2.1 -16.4 5.7 -20.65 L5.95 -20.9 6.05 -21.05 Q8.25 -23.15 10.35 -25.35 M-7.65 -3.65 L-7.7 -3.75 -7.65 -3.65 M10.5 -18.1 L14.1 -21.8 Q16.2 -23.95 17.65 -26.5 18.5 -28.0 19.65 -29.1 18.35 -26.5 16.1 -24.0 13.95 -21.6 11.85 -19.15 11.05 -18.15 10.1 -17.4 L10.05 -17.4 10.45 -18.1 10.5 -18.1 M3.8 -10.8 Q3.7 -10.15 3.3 -9.65 2.95 -9.25 2.5 -8.85 2.2 -8.65 1.8 -8.5 2.1 -9.0 2.5 -9.45 2.9 -9.9 3.25 -10.45 3.45 -10.75 3.8 -10.8" fill="#608c38" fill-rule="evenodd" stroke="none"/>
      <path d="M27.95 -45.5 L28.4 -46.0 27.95 -45.35 27.9 -45.0 28.05 -45.45 Q28.45 -44.6 27.85 -43.5 L27.45 -42.75 Q27.25 -41.75 26.9 -40.75 26.2 -38.45 24.75 -36.75 24.0 -35.9 23.2 -35.2 22.1 -31.95 20.95 -28.55 19.75 -25.15 17.8 -22.4 L19.55 -24.2 Q18.2 -22.3 16.5 -20.45 L16.4 -20.35 Q14.55 -16.2 12.25 -12.25 10.4 -9.15 8.85 -5.7 L8.55 -4.95 Q7.2 -1.45 5.0 0.95 L5.0 1.0 5.2 1.4 Q5.25 1.6 5.25 1.75 L5.2 2.3 5.25 2.35 5.15 2.4 Q4.8 2.7 4.45 2.9 L4.4 2.95 4.9 3.0 Q5.05 3.0 5.25 3.1 5.35 3.1 5.45 3.2 L5.45 3.3 Q5.35 3.55 5.2 3.75 L4.95 4.05 4.65 4.45 4.65 4.6 Q4.75 4.8 4.7 4.95 4.65 5.15 4.65 5.4 L5.4 5.95 Q5.75 6.2 5.75 6.55 L5.75 6.7 Q5.6 6.95 5.4 6.75 4.4 6.85 3.3 6.75 1.5 6.55 -0.15 6.1 0.65 5.9 1.6 5.9 L3.05 5.9 3.65 6.0 Q3.45 5.7 3.5 5.4 3.45 5.15 3.55 4.95 3.7 4.35 4.2 4.0 L4.25 3.85 Q4.05 3.9 3.85 3.85 L3.65 4.05 3.3 4.35 2.85 4.25 Q2.4 4.15 1.95 3.75 1.85 3.7 1.8 3.55 1.45 3.85 1.25 4.2 L0.75 5.0 Q0.55 5.3 0.3 5.45 0.3 5.75 -0.1 5.6 L-0.75 5.45 Q-0.95 5.25 -1.1 4.95 -1.2 4.7 -1.15 4.45 -1.1 4.15 -1.15 3.8 L-1.1 3.7 -1.9 3.5 Q-2.15 3.45 -2.35 3.7 L-2.25 3.95 Q-2.2 4.05 -2.2 4.2 L-2.15 4.5 -2.15 4.7 Q-2.45 4.9 -2.95 4.9 -3.5 4.85 -4.05 4.45 -4.45 3.5 -4.05 2.85 -3.6 2.05 -3.8 1.0 -3.85 0.5 -4.05 -0.1 -4.9 0.35 -5.45 1.35 -6.0 2.2 -6.55 2.95 -6.75 3.25 -7.1 3.25 -7.4 3.25 -7.65 2.95 L-8.05 2.55 Q-8.15 2.45 -8.2 2.25 -8.2 2.1 -8.15 2.0 -8.1 1.9 -8.0 1.9 L-7.75 1.85 -7.6 1.8 Q-7.45 1.65 -8.1 1.35 -8.3 1.25 -8.4 1.05 -8.4 0.95 -8.45 0.9 -8.55 0.35 -8.55 -0.15 L-8.5 -1.2 Q-8.5 -1.7 -8.25 -2.05 -9.0 -1.6 -9.25 -0.65 -9.55 0.3 -10.0 1.05 -10.05 1.15 -10.25 1.15 L-9.55 -0.65 Q-9.15 -1.7 -8.45 -2.4 L-8.15 -2.65 Q-7.7 -2.2 -7.95 -1.35 -8.15 -0.75 -8.2 -0.05 -8.25 0.35 -8.0 0.85 -7.9 1.0 -7.8 1.05 -7.4 1.15 -7.15 1.55 L-7.05 1.65 Q-6.85 2.1 -7.25 2.15 -7.85 2.2 -7.5 2.6 L-7.45 2.7 Q-6.35 2.55 -5.6 1.2 -4.95 0.15 -3.95 -0.55 L-3.8 -0.55 Q-3.35 0.25 -3.15 1.15 -2.9 2.35 -3.55 3.1 -3.85 3.45 -3.75 4.1 -3.45 4.4 -3.1 4.45 -2.6 4.5 -2.6 4.15 -2.55 4.05 -2.55 3.85 -2.55 3.75 -2.6 3.65 L-2.65 3.4 Q-2.65 3.35 -2.6 3.25 L-1.65 3.15 Q-1.2 3.15 -0.85 3.4 -0.8 3.6 -0.85 3.8 -0.95 3.95 -0.85 4.2 -0.75 4.35 -0.75 4.6 L-0.7 4.7 Q-0.6 5.0 -0.3 5.0 -0.05 5.0 0.2 5.3 0.2 4.9 0.35 4.6 0.75 4.1 1.2 3.65 L1.65 3.1 Q1.85 3.15 2.0 3.3 2.45 3.75 3.05 3.85 L3.3 3.9 3.4 3.8 3.45 3.7 Q3.35 3.65 3.25 3.5 L3.3 3.45 3.55 3.35 3.75 3.3 3.8 3.2 3.8 3.0 Q3.75 2.65 3.9 2.4 3.9 2.35 3.95 2.35 L4.3 2.25 Q4.55 2.2 4.65 1.95 4.65 1.75 4.6 1.5 L4.6 1.4 4.4 1.6 4.5 1.25 4.45 1.25 Q3.2 0.95 2.8 1.95 2.55 2.5 2.1 2.75 2.15 2.65 2.2 2.55 L2.75 1.7 Q2.95 1.25 3.1 0.85 3.15 0.7 3.4 0.65 L4.35 0.75 4.7 0.85 Q5.5 -1.05 6.5 -3.2 7.6 -5.45 8.45 -7.9 8.75 -8.85 9.3 -9.6 9.95 -11.35 11.0 -12.8 L12.4 -14.75 Q12.1 -13.25 10.95 -11.5 10.4 -10.65 9.9 -9.65 11.55 -11.45 12.7 -13.9 14.05 -16.75 15.55 -19.4 L14.65 -18.3 Q13.75 -17.0 12.95 -15.7 L13.35 -16.65 Q12.5 -15.5 11.5 -14.65 12.45 -16.7 13.9 -18.4 L14.5 -19.05 Q15.95 -21.8 17.8 -24.25 18.25 -24.9 18.65 -25.6 19.45 -28.35 20.75 -30.95 L21.7 -32.95 22.35 -34.5 Q22.55 -34.9 22.7 -35.35 L22.85 -35.65 23.0 -36.1 Q23.7 -37.85 24.65 -39.2 L23.8 -36.9 23.6 -36.4 Q24.3 -37.95 25.25 -39.4 26.4 -41.25 27.05 -43.6 27.15 -44.15 27.4 -44.65 L26.6 -43.6 Q26.55 -43.1 25.7 -42.25 22.7 -39.25 20.95 -35.35 19.2 -31.4 17.0 -27.8 16.4 -26.8 15.55 -26.4 17.55 -29.3 19.15 -32.65 20.7 -36.0 22.65 -39.1 L22.1 -38.6 Q21.15 -37.6 20.1 -36.65 17.05 -33.85 14.5 -30.5 L13.95 -29.6 Q13.2 -28.35 12.55 -27.0 9.15 -19.75 5.85 -12.55 4.05 -8.6 1.45 -5.3 3.05 -8.55 4.95 -11.8 6.85 -15.05 8.35 -18.55 9.65 -21.7 10.65 -24.85 9.35 -23.05 7.8 -21.45 7.25 -20.7 6.6 -20.0 7.3 -21.45 8.45 -22.8 9.4 -24.0 10.25 -25.3 L1.7 -16.1 Q-3.5 -10.45 -7.3 -3.6 -7.4 -3.45 -7.5 -3.35 L-7.35 -3.0 -7.2 -2.6 Q-6.65 -3.95 -5.8 -5.05 L-3.2 -8.55 Q-2.35 -9.7 -1.15 -10.25 -2.45 -8.6 -3.7 -6.85 -4.95 -5.1 -6.1 -3.3 -6.5 -2.6 -7.05 -2.1 L-6.9 -1.5 Q-6.8 -1.05 -6.5 -0.55 L-6.45 -0.55 Q-4.7 -4.05 -2.1 -7.45 0.35 -10.7 2.5 -14.25 2.6 -14.8 3.1 -15.2 4.45 -17.35 6.45 -18.75 5.35 -17.55 4.3 -16.3 4.2 -16.1 4.0 -15.9 3.1 -14.75 2.3 -13.5 1.8 -12.65 1.4 -11.75 0.4 -9.75 -0.8 -7.85 -1.4 -6.9 -2.15 -6.1 -2.95 -4.85 -3.8 -3.65 -5.0 -1.85 -6.25 -0.45 -5.9 -0.3 -5.55 -0.05 L-5.5 0.05 Q-5.4 0.25 -5.4 0.45 -5.35 0.75 -5.55 0.8 L-5.9 0.8 Q-5.95 0.6 -6.05 0.4 -6.2 0.05 -6.55 -0.05 L-6.85 0.25 -6.65 -0.1 Q-6.8 -0.15 -6.9 -0.25 -7.2 -1.0 -7.3 -1.85 L-7.6 -1.6 -7.4 -2.25 Q-7.5 -2.75 -7.75 -3.25 -8.0 -3.2 -8.3 -3.35 L-8.05 -3.8 Q-8.3 -4.25 -8.1 -4.3 L-7.9 -4.05 Q-4.5 -9.55 -0.5 -14.55 4.35 -20.75 9.9 -26.4 11.35 -27.85 12.65 -29.35 13.2 -30.05 13.8 -30.75 L14.6 -31.6 15.75 -33.05 15.6 -32.7 15.65 -32.75 Q18.85 -36.7 22.65 -40.1 L24.4 -41.7 Q25.4 -42.9 26.55 -43.9 L27.7 -45.2 27.95 -45.5 M22.05 -34.4 Q21.4 -32.0 19.55 -29.45 16.75 -25.5 13.65 -21.85 11.9 -19.8 10.55 -17.15 8.15 -12.45 4.6 -8.9 8.15 -13.65 11.05 -19.0 14.05 -24.55 18.3 -28.95 20.0 -30.75 21.3 -33.05 L22.05 -34.4 M17.7 -33.5 L13.65 -26.4 Q11.65 -22.85 9.95 -19.05 8.95 -16.8 7.9 -14.7 9.6 -18.2 11.2 -22.05 12.85 -26.1 14.9 -29.75 16.05 -31.75 17.7 -33.5 M4.05 -15.55 Q4.0 -15.5 4.0 -15.55 3.9 -15.8 4.05 -15.85 4.2 -15.65 4.05 -15.55 M9.4 -12.95 Q9.2 -11.15 8.2 -9.6 L7.95 -9.2 7.35 -8.1 7.55 -8.6 6.35 -6.75 Q5.8 -5.85 5.1 -5.1 5.65 -6.85 6.6 -8.4 L8.3 -11.25 Q8.85 -12.2 9.4 -12.95 M3.6 -1.85 Q3.85 -1.3 3.2 -0.65 2.7 -0.15 2.35 0.55 2.1 0.95 1.75 1.2 1.95 0.55 2.25 0.0 2.6 -0.65 3.05 -1.15 3.4 -1.5 3.6 -1.85 M2.0 -1.9 Q-0.15 -0.3 -2.15 1.35 -0.3 -2.5 3.55 -4.1 4.65 -4.55 5.5 -5.3 3.95 -3.35 2.0 -1.9 M4.75 6.25 L4.75 6.2 4.7 6.25 4.9 6.35 4.75 6.25 M1.3 2.5 Q1.15 2.35 1.1 2.15 0.65 1.4 -0.15 1.8 L-0.25 1.85 Q-0.4 2.0 -0.35 2.2 -0.35 2.3 -0.4 2.3 -0.55 2.55 -0.65 2.85 -0.85 3.25 -1.3 3.1 L-1.45 2.9 Q-1.45 2.85 -1.55 2.85 -2.4 3.0 -3.15 2.45 -3.05 2.1 -2.55 2.3 -2.1 2.45 -1.7 2.5 -1.45 2.5 -1.2 2.65 -1.0 2.55 -0.9 2.35 L-0.8 2.2 Q-0.65 2.05 -0.65 1.75 -0.6 1.3 -0.4 1.15 -0.35 1.15 -0.4 1.15 -0.15 1.1 0.05 1.25 0.4 1.4 0.75 1.5 0.95 1.55 1.15 1.7 1.35 1.85 1.5 2.05 L1.5 2.25 2.05 2.7 Q2.15 2.85 1.9 2.85 L1.7 2.75 Q1.45 2.65 1.3 2.5 M-8.6 -4.1 Q-9.3 -4.65 -9.6 -3.1 -9.45 -2.85 -9.5 -2.6 -9.5 -2.35 -9.45 -2.1 -9.35 -1.85 -9.45 -1.65 -9.6 -1.55 -9.8 -1.55 L-9.9 -0.7 Q-10.0 0.0 -10.45 0.35 L-10.4 -0.25 -10.55 -0.25 Q-11.0 -0.85 -11.05 -1.5 -11.05 -2.05 -10.95 -2.5 -10.85 -3.0 -10.4 -2.85 -10.25 -2.65 -10.1 -2.6 -9.95 -3.55 -9.6 -4.3 -9.25 -5.05 -8.7 -5.35 -8.4 -5.1 -8.3 -4.75 -8.2 -4.4 -8.25 -4.1 -8.25 -3.8 -8.6 -4.1 M-9.25 -3.7 L-8.9 -3.6 Q-9.1 -3.55 -9.25 -3.65 -9.3 -3.7 -9.25 -3.7 M-10.4 -2.05 L-10.4 -1.25 -10.35 -0.65 -10.2 -1.75 -10.4 -2.05 M-11.2 -0.4 Q-10.85 0.0 -11.0 0.4 -10.8 0.5 -10.6 0.6 -10.3 0.7 -10.3 0.95 -10.4 1.1 -10.65 1.05 -10.95 0.9 -11.15 0.6 L-11.2 0.5 Q-11.15 -0.05 -11.55 -0.4 -12.0 -0.85 -12.2 -1.35 L-12.45 -1.85 Q-12.5 -0.85 -12.4 0.15 -12.35 0.9 -12.3 1.65 L-12.2 3.0 -12.15 3.15 Q-12.75 3.25 -13.45 2.6 -13.85 2.25 -14.25 2.0 L-14.05 2.65 -13.85 3.35 -13.8 3.45 -13.75 3.45 Q-13.5 3.65 -13.65 3.75 -13.75 3.9 -13.75 4.05 -13.75 4.15 -13.55 4.35 L-13.45 4.5 -13.4 4.75 Q-13.4 4.8 -13.45 4.85 -13.5 4.9 -13.6 4.95 L-13.75 4.95 Q-14.0 4.9 -14.3 4.65 L-14.5 4.45 Q-14.75 4.25 -14.95 3.9 -15.0 3.85 -15.05 3.7 -15.05 3.4 -14.8 3.45 L-14.0 3.45 -14.2 2.85 Q-14.35 2.4 -14.55 1.95 -14.65 1.6 -14.7 1.35 -14.3 1.3 -13.85 1.75 L-12.85 2.65 Q-12.3 1.85 -12.6 0.3 -12.85 -0.85 -12.9 -1.9 -12.95 -2.75 -12.6 -3.1 -12.25 -2.45 -12.0 -1.7 -11.75 -1.0 -11.2 -0.4" fill="#31451b" fill-rule="evenodd" stroke="none"/>
    </g>
    <g id="shape2" transform="matrix(1.0, 0.0, 0.0, 1.0, 30.65, 1.65)">
      <path d="M19.7 -0.55 L19.35 0.4 19.2 0.9 19.3 1.0 19.4 1.2 Q19.5 1.2 19.55 1.15 19.6 1.1 19.6 1.05 19.6 0.95 19.65 0.95 20.0 0.95 20.1 1.25 20.2 1.55 20.45 1.7 L20.65 1.75 20.65 1.8 20.7 1.8 20.7 1.75 21.0 1.25 Q21.05 1.1 21.2 1.15 21.3 1.3 21.2 1.45 21.1 1.6 21.1 1.8 21.15 1.9 21.1 2.05 21.4 2.0 21.5 1.75 21.65 1.55 21.65 1.35 L21.65 1.15 21.7 1.1 21.8 1.05 Q21.75 0.95 21.8 0.8 L21.95 0.55 Q22.0 0.45 22.05 0.4 22.25 0.55 22.15 0.8 22.1 1.05 22.2 1.25 L22.3 1.5 22.3 1.55 Q22.5 1.55 22.65 1.6 L22.7 1.65 22.7 1.7 22.75 1.8 22.75 1.85 22.9 1.95 23.15 2.05 Q21.8 2.35 20.4 2.3 L20.6 2.0 Q18.9 2.1 17.2 1.9 L17.2 1.85 17.25 1.75 17.25 1.7 17.65 1.6 17.65 1.5 Q18.6 1.1 18.9 0.2 19.1 -0.5 19.45 -1.15 19.6 -1.35 19.85 -1.5 19.85 -1.0 19.7 -0.55 M26.05 -0.7 Q26.25 -0.35 26.15 0.3 26.0 0.85 26.0 1.4 26.0 1.75 26.1 2.0 L26.2 2.0 Q26.3 1.95 26.45 1.95 L26.5 2.0 Q27.5 1.9 28.1 1.15 L28.85 0.25 Q29.0 0.5 28.7 0.9 L28.7 1.0 Q28.75 1.2 28.55 1.4 28.4 1.6 28.35 1.8 L28.3 2.15 28.4 2.2 28.45 2.25 Q28.6 2.2 28.75 2.1 L28.9 1.95 Q29.05 1.65 29.4 1.55 L29.5 1.5 29.55 1.65 29.6 1.65 Q29.75 1.75 29.75 1.9 L29.85 2.0 29.85 2.05 Q29.85 2.1 29.8 2.15 29.8 2.2 29.8 2.25 L29.8 2.35 30.1 2.35 Q30.3 2.1 30.75 1.95 L30.85 1.9 31.05 1.75 31.1 1.75 31.2 1.6 Q31.25 1.55 31.35 1.55 31.4 1.65 31.3 1.8 L31.3 1.95 31.25 2.05 31.25 2.1 31.45 2.05 Q31.4 2.0 31.5 1.95 31.55 1.9 31.6 1.9 L32.05 1.9 32.15 1.85 32.25 1.9 32.35 1.9 32.35 1.95 32.4 2.0 33.1 2.0 34.05 1.95 34.15 1.95 Q34.35 1.8 34.6 1.9 L35.35 1.85 35.4 1.8 35.55 1.6 35.7 1.5 35.75 1.5 Q35.8 1.55 35.85 1.55 L35.95 1.6 35.95 1.7 35.9 1.8 35.95 1.8 Q36.45 1.75 36.85 1.9 L35.55 2.05 35.2 2.1 35.25 2.1 35.25 2.15 33.8 2.25 33.75 2.25 32.55 2.35 31.0 2.5 Q30.8 2.55 30.65 2.45 L30.6 2.4 Q30.45 2.4 30.25 2.5 L29.8 2.5 29.75 2.55 29.65 2.6 29.55 2.6 Q29.45 2.55 29.4 2.55 L29.35 2.5 Q28.25 2.8 27.2 2.6 L27.15 2.6 27.15 2.7 27.45 2.7 27.45 2.75 25.9 3.05 25.15 3.25 Q24.75 3.4 24.55 3.15 24.9 2.9 25.45 2.8 L26.05 2.75 Q26.4 2.75 26.7 2.65 L26.4 2.6 Q26.3 2.55 26.2 2.5 26.2 2.4 26.3 2.4 L26.35 2.4 26.2 2.35 26.15 2.3 Q26.0 2.3 25.95 2.4 L25.95 2.45 23.8 2.25 Q23.65 2.25 23.55 2.15 L23.55 2.1 Q23.55 2.05 23.6 2.0 L23.65 1.9 23.65 1.85 24.6 1.05 25.4 0.35 Q25.6 0.45 25.5 0.6 L25.4 0.9 Q25.35 1.0 25.4 1.1 25.6 0.8 25.7 0.4 L25.85 -0.35 Q25.9 -0.6 26.05 -0.7 M39.65 1.9 Q39.6 1.8 39.7 1.75 39.9 1.75 39.85 1.9 39.75 2.0 39.65 1.9 M37.35 2.65 Q37.25 2.75 37.1 2.75 36.95 2.75 37.0 2.6 37.0 2.55 37.05 2.55 L37.3 2.5 Q37.5 2.55 37.35 2.65 M29.75 2.05 L29.7 2.1 29.75 2.1 29.75 2.05 M20.95 2.6 L21.75 2.55 22.35 2.5 22.7 2.5 22.6 2.6 22.6 2.7 Q21.8 2.8 21.0 2.95 L20.7 3.0 Q20.5 3.05 20.4 2.9 20.55 2.65 20.95 2.6 M3.1 2.95 L2.4 2.95 0.55 2.85 -0.2 2.75 -1.35 2.65 Q-1.65 2.75 -2.1 2.7 L-3.65 2.55 -4.1 2.5 -4.55 2.5 Q-4.7 2.6 -4.95 2.6 -5.85 2.75 -6.75 2.65 L-6.75 2.6 -6.65 2.55 -6.6 2.55 Q-7.5 2.6 -8.55 2.35 -8.8 2.55 -9.3 2.35 L-9.6 2.25 -9.7 2.25 -9.7 2.2 -9.95 2.2 -10.05 2.15 -10.1 2.1 -10.35 2.1 -10.6 2.05 -10.75 2.1 -11.15 2.1 -10.8 2.05 Q-10.85 2.0 -10.75 1.95 -10.85 1.9 -11.0 2.0 -11.3 2.15 -11.6 2.05 -11.55 1.95 -11.35 1.9 L-11.05 1.85 -11.0 1.75 -10.9 1.6 -10.85 1.45 -10.75 1.5 -10.65 1.6 Q-10.6 1.65 -10.65 1.75 -10.35 1.25 -10.3 0.65 -10.25 0.05 -10.05 -0.5 -9.95 -0.85 -9.65 -1.0 L-9.65 -1.1 Q-9.65 -1.15 -9.7 -1.2 -9.75 -1.3 -9.7 -1.35 L-9.65 -1.35 Q-9.35 -0.85 -9.45 -0.1 -9.55 0.6 -9.3 1.25 -9.2 1.6 -8.95 1.85 L-8.9 1.9 Q-8.85 1.9 -8.8 1.95 -8.75 1.95 -8.75 2.0 L-8.55 2.0 Q-8.5 2.0 -8.45 1.95 L-8.3 1.8 -8.2 1.8 -8.2 1.9 -8.25 2.0 -8.25 2.1 Q-7.15 2.35 -6.9 1.2 L-6.6 -0.2 Q-6.55 -0.45 -6.4 -0.6 -6.3 -0.15 -6.35 0.45 -6.4 1.05 -6.3 1.6 -6.25 1.9 -5.95 2.15 -5.75 2.1 -5.7 1.95 -5.6 1.8 -5.7 1.6 -5.75 1.55 -5.7 1.5 L-5.6 1.45 Q-5.45 1.45 -5.5 1.5 L-5.5 1.6 Q-5.45 1.8 -5.25 1.85 -5.0 1.9 -4.85 2.05 L-4.85 2.0 Q-4.75 2.05 -4.65 2.1 -4.55 2.15 -4.4 2.15 L-4.3 2.15 -3.75 1.6 Q-3.65 1.5 -3.55 1.5 -3.4 1.55 -3.35 1.65 L-3.35 1.7 Q-3.25 1.75 -3.25 1.85 L-3.1 2.0 Q-3.05 2.0 -2.95 2.05 L-2.9 2.05 -1.95 0.5 Q-1.5 -0.3 -1.2 -1.15 -1.1 -1.45 -0.9 -1.65 -0.9 -1.05 -1.1 -0.45 -1.25 0.15 -1.25 0.75 L-1.25 1.45 -0.95 1.7 Q-0.85 1.8 -0.85 1.9 L-0.85 2.0 Q-0.05 2.0 0.35 1.25 0.7 0.65 1.25 0.45 1.2 0.8 1.05 1.25 0.9 1.65 1.0 2.05 1.1 2.3 1.4 2.35 L1.7 2.35 1.85 2.3 2.05 2.3 2.1 2.35 2.2 2.4 2.3 2.4 2.55 2.35 2.75 2.3 2.8 2.35 Q3.0 2.3 3.15 2.05 3.25 1.85 3.45 1.7 3.45 1.35 3.6 1.05 3.8 0.7 3.9 0.35 3.95 0.15 4.05 0.1 L4.15 0.95 4.2 1.85 Q4.2 2.05 4.3 2.3 4.45 2.2 4.55 1.95 4.65 1.75 4.85 1.75 L4.9 1.6 Q4.9 1.5 5.0 1.35 L5.25 1.35 5.25 1.45 5.2 1.5 Q5.2 1.6 5.15 1.65 L5.2 1.8 5.25 1.9 Q5.3 1.95 5.4 2.0 5.5 2.05 5.6 2.1 6.45 2.45 7.3 1.6 L8.25 0.5 8.3 0.5 Q8.25 0.75 8.05 1.1 7.85 1.4 7.8 1.7 7.75 1.9 7.8 2.1 L8.0 2.2 8.0 2.15 8.05 2.15 8.1 2.1 Q8.1 2.0 8.2 2.0 8.25 2.25 8.6 2.1 8.85 1.95 9.05 1.9 L9.1 1.95 9.1 2.05 9.15 2.15 Q9.85 2.1 10.05 1.3 10.15 0.8 10.35 0.3 10.35 0.2 10.5 0.2 10.45 0.55 10.3 0.95 10.2 1.3 10.2 1.7 10.25 1.95 10.2 2.2 10.95 2.3 11.25 1.7 11.45 1.15 11.95 1.15 L11.9 1.4 Q11.85 1.55 11.85 1.7 L11.85 1.9 12.15 2.2 Q12.2 2.15 12.25 2.25 12.3 2.35 12.45 2.35 L12.45 2.3 12.5 2.3 Q12.45 2.2 12.55 2.15 L12.7 2.15 Q13.1 1.9 13.5 1.65 14.0 1.4 14.1 0.9 L14.1 0.85 14.25 0.8 14.4 0.85 Q14.65 0.75 14.75 0.55 14.85 0.35 15.0 0.2 15.05 0.15 15.15 0.2 15.2 0.4 15.0 0.6 14.85 0.8 14.75 1.05 14.7 1.15 14.7 1.3 L14.6 1.4 14.5 1.45 14.55 1.55 14.6 1.6 14.55 1.75 14.55 2.1 Q15.2 2.25 15.7 1.8 15.95 1.6 16.25 1.5 16.35 1.55 16.35 1.65 L16.35 1.8 Q16.35 1.9 16.4 1.95 16.55 1.9 16.6 1.75 L16.65 1.55 Q16.65 1.45 16.75 1.4 17.0 1.45 17.0 1.65 17.0 1.8 17.05 1.9 17.05 2.0 17.1 2.1 L17.45 2.15 Q17.7 2.2 17.9 2.3 15.8 2.4 13.75 2.4 13.3 2.65 12.8 2.6 L12.7 2.6 12.6 2.55 12.55 2.55 12.35 2.45 12.2 2.5 Q10.95 2.9 9.35 2.75 7.9 2.85 6.35 2.8 5.3 2.75 4.3 2.8 L3.3 2.9 3.4 2.55 3.35 2.55 3.3 2.6 3.25 2.6 3.2 2.65 3.1 2.95 M19.15 1.95 L19.25 1.95 19.15 1.9 19.15 1.95 M18.3 3.85 L18.3 3.95 18.4 4.05 18.1 4.1 17.6 4.1 17.55 4.05 17.55 4.0 17.65 3.9 Q17.8 3.9 17.85 3.8 L17.95 3.75 18.0 3.75 18.1 3.8 18.2 3.8 18.25 3.85 18.3 3.85 M17.4 4.55 Q17.55 4.55 17.5 4.65 17.5 4.8 17.35 4.75 17.25 4.75 17.25 4.65 L17.35 4.6 17.4 4.55 M13.75 2.35 L13.75 2.35 M13.35 2.4 L13.5 2.4 13.6 2.35 13.5 2.3 13.4 2.35 13.25 2.35 13.35 2.4 M10.0 3.5 L10.05 3.5 Q10.3 3.6 10.65 3.6 L10.85 3.6 11.45 3.65 Q11.55 3.65 11.55 3.7 11.5 3.85 11.35 3.85 L9.6 3.75 9.5 3.75 9.4 3.7 9.5 3.7 9.5 3.65 9.55 3.6 9.85 3.55 9.95 3.5 10.0 3.5 M5.7 2.6 L5.15 2.65 5.5 2.6 5.7 2.6 M5.05 1.95 L4.9 1.95 4.85 2.05 4.8 2.2 Q4.75 2.3 5.0 2.25 L5.2 2.15 5.05 1.95 M-15.7 -1.3 Q-15.8 -0.55 -15.55 0.2 -15.3 0.8 -14.8 1.3 -14.5 1.6 -14.1 1.85 -14.0 1.8 -13.9 1.9 L-13.8 1.95 Q-13.7 2.05 -13.85 2.0 L-13.8 2.05 -13.8 2.1 -13.85 2.15 Q-14.3 2.35 -14.9 2.2 L-15.1 2.15 -15.0 2.05 Q-16.2 2.1 -17.4 2.1 -17.4 1.7 -17.05 1.4 -16.8 1.15 -16.8 0.75 -16.8 0.6 -16.65 0.55 -16.45 0.6 -16.45 0.85 L-16.4 1.25 -16.35 1.4 Q-16.0 0.95 -15.95 0.3 -15.9 -0.2 -15.9 -0.65 -15.95 -1.1 -15.7 -1.3 M-11.25 3.1 Q-11.65 3.2 -11.8 3.0 -10.9 2.7 -9.85 2.7 L-9.6 2.7 -9.6 2.75 Q-10.0 3.2 -10.95 3.1 L-11.25 3.1 M-12.75 1.65 Q-12.7 1.8 -12.6 1.9 -12.5 1.9 -12.4 1.95 -12.3 2.0 -12.2 2.1 -12.55 2.3 -13.0 2.2 L-13.65 2.05 Q-13.65 2.0 -13.6 1.95 -13.55 1.95 -13.55 1.85 L-13.5 1.7 -13.4 1.75 -13.25 1.75 -13.2 1.8 Q-13.05 1.6 -12.95 1.4 L-12.85 1.0 Q-12.8 0.8 -12.7 0.75 -12.6 0.85 -12.7 1.15 -12.8 1.4 -12.75 1.65 M-14.9 3.9 Q-14.95 4.05 -15.15 4.05 L-15.4 4.05 Q-15.55 4.05 -15.55 3.9 L-15.55 3.75 -15.5 3.7 -15.2 3.7 Q-15.1 3.7 -15.05 3.75 -14.95 3.8 -14.9 3.9 M-18.6 1.6 Q-18.6 1.8 -18.45 2.0 -18.3 2.0 -18.15 2.05 -18.0 2.1 -18.0 2.2 -18.0 2.3 -17.9 2.3 L-17.75 2.35 -17.7 2.4 Q-18.8 2.8 -20.15 2.45 -20.25 2.45 -20.25 2.35 -19.75 2.15 -19.5 1.7 L-19.1 1.0 Q-19.05 0.95 -19.1 0.85 L-19.05 0.8 -18.95 0.75 -18.9 0.55 -18.8 0.3 Q-18.8 0.2 -18.65 0.2 -18.65 0.55 -18.65 0.9 L-18.6 1.6 M-22.2 0.65 L-22.0 0.45 -21.9 0.45 Q-21.8 0.5 -21.9 0.55 L-22.05 0.7 Q-22.15 0.8 -22.2 0.65 M-22.35 2.0 L-22.25 2.0 Q-22.15 2.0 -22.1 2.1 -22.0 2.2 -22.0 2.1 L-21.9 2.0 -21.55 2.05 -21.5 2.05 -21.45 2.15 -21.65 2.25 -21.95 2.35 Q-22.25 2.45 -22.55 2.2 L-22.55 2.05 -22.4 2.0 -22.35 2.0 M-24.25 2.1 Q-24.05 2.1 -24.1 2.2 L-24.3 2.2 Q-24.35 2.1 -24.25 2.1" fill="#52732e" fill-rule="evenodd" stroke="none"/>
      <path d="M36.5 4.75 L36.6 4.8 36.65 4.85 36.7 4.95 36.7 5.0 Q36.25 5.45 35.55 5.35 L34.7 5.25 Q34.25 5.25 33.95 5.1 L34.35 4.95 34.05 4.85 33.95 4.8 33.9 4.85 33.6 4.95 33.55 4.95 33.5 5.0 33.45 5.1 33.3 5.15 Q33.05 5.15 32.9 5.05 32.85 5.05 32.75 5.0 L32.6 5.0 Q32.15 4.85 31.7 4.85 L30.65 5.0 Q29.35 5.2 28.0 5.0 L27.9 5.0 27.95 4.95 28.05 4.9 27.95 4.9 27.9 4.85 27.75 4.9 27.7 4.95 27.4 4.95 27.25 5.0 27.2 5.0 27.1 5.05 26.95 5.0 26.85 4.95 26.85 4.9 26.8 4.9 26.8 4.85 26.6 4.85 26.4 4.9 26.1 4.9 26.4 4.8 26.5 4.75 26.85 4.7 Q26.85 4.65 26.75 4.6 L26.7 4.55 Q26.7 4.5 26.75 4.45 26.8 4.35 26.85 4.35 L27.1 4.4 27.3 4.45 Q27.4 4.45 27.45 4.55 27.55 4.5 27.65 4.6 27.75 4.7 27.7 4.8 28.05 4.8 28.3 4.65 L28.4 4.55 Q28.55 4.45 28.6 4.25 28.65 4.2 28.7 4.15 28.85 3.9 28.85 3.6 28.85 3.45 29.0 3.45 L28.95 4.15 28.95 4.2 Q29.0 4.3 28.95 4.35 L28.95 4.4 Q29.05 4.6 29.3 4.7 L29.85 4.8 Q29.85 4.85 29.8 4.9 L29.9 4.9 Q29.9 4.85 29.95 4.75 L30.1 4.55 30.15 4.45 30.15 4.4 Q30.2 4.3 30.3 4.2 30.4 4.15 30.5 4.2 L30.55 4.1 Q30.55 4.0 30.65 4.0 30.8 4.05 30.8 4.2 30.75 4.35 30.8 4.45 L30.85 4.65 32.1 4.7 32.4 4.65 32.65 4.5 32.65 4.45 Q32.65 4.35 32.7 4.35 L32.85 4.3 33.0 4.4 33.1 4.5 33.2 4.4 33.35 4.15 Q33.6 3.85 33.75 3.5 33.8 3.35 33.9 3.35 34.05 3.5 33.9 3.8 33.85 3.9 33.85 4.05 33.95 4.1 33.95 4.2 L33.95 4.35 Q34.0 4.5 33.95 4.6 34.4 5.0 34.8 4.65 L35.15 4.35 Q35.2 4.3 35.25 4.3 35.35 4.35 35.3 4.5 L35.15 4.7 35.1 4.8 35.15 4.9 Q35.25 4.95 35.45 5.0 L35.85 5.1 36.15 5.0 36.4 4.8 Q36.45 4.75 36.5 4.75 M37.4 6.2 L37.4 6.15 37.45 6.05 Q37.55 5.95 37.75 5.95 L38.0 5.95 38.25 6.0 Q38.4 6.05 38.35 6.2 38.35 6.35 38.15 6.35 37.75 6.4 37.5 6.3 L37.4 6.2 M32.05 4.85 L32.3 4.8 32.0 4.8 32.05 4.85 M24.95 4.95 L24.3 4.95 24.2 5.0 Q24.3 5.05 24.25 5.2 L24.15 5.25 Q24.05 5.25 24.0 5.2 L23.9 5.15 Q23.4 5.1 22.85 5.15 22.45 5.15 22.2 4.95 L22.15 4.9 22.1 4.95 22.05 4.95 22.05 5.0 22.0 5.05 21.7 5.0 21.45 4.9 Q21.45 4.75 21.6 4.6 L21.7 4.45 Q21.75 4.3 21.9 4.35 L21.9 4.3 22.0 4.4 Q22.05 4.45 22.05 4.5 L22.0 4.6 Q22.0 4.7 22.05 4.75 L22.3 4.85 Q22.4 4.8 22.5 4.75 L22.5 4.7 Q22.55 4.65 22.6 4.6 L22.65 4.6 22.75 4.7 22.8 4.8 22.8 4.85 22.85 4.9 23.2 4.35 23.5 3.8 Q23.6 3.65 23.75 3.6 23.95 3.7 23.85 3.9 L23.7 4.25 23.7 4.35 Q23.85 4.45 23.95 4.65 L24.0 4.8 24.35 4.85 24.45 4.9 24.65 4.85 Q25.0 4.8 24.95 4.95 M25.05 4.9 Q25.1 4.85 25.15 4.85 L25.5 4.75 Q25.6 4.75 25.65 4.8 25.7 4.85 25.75 4.85 25.85 4.85 25.9 4.95 25.75 5.05 25.55 5.0 L25.2 5.0 Q25.05 5.0 25.05 4.9 M23.2 5.05 L23.3 5.0 23.35 4.95 23.15 5.0 23.2 5.05 M25.95 6.05 Q25.95 5.95 26.05 5.95 26.05 5.9 26.1 5.9 L26.2 5.95 26.25 5.95 26.3 6.0 26.3 6.05 26.25 6.1 Q26.15 6.15 26.2 6.2 L26.2 6.25 Q26.1 6.25 26.05 6.2 L25.95 6.05 M27.5 4.9 L27.5 4.9 M28.75 4.8 Q28.75 4.7 28.65 4.75 28.55 4.85 28.7 4.85 28.8 4.9 28.75 4.8 M3.3 2.9 L2.95 3.55 2.9 3.7 Q3.05 3.85 2.9 4.1 2.8 4.3 2.75 4.55 L2.8 4.8 Q2.8 4.85 2.9 4.85 3.0 4.85 3.05 4.95 L3.25 4.8 Q3.55 4.7 3.75 4.5 3.75 4.45 3.8 4.45 L3.9 4.5 3.95 4.6 Q4.0 4.65 3.95 4.7 L4.25 5.0 4.25 5.15 Q3.8 5.25 3.3 5.15 L3.0 5.1 2.85 5.2 Q2.55 5.2 2.4 5.0 L2.2 5.05 2.1 5.05 Q2.0 5.1 1.9 5.2 L1.65 5.15 1.5 5.15 1.55 5.1 1.45 5.0 1.65 4.65 1.85 4.25 Q1.9 4.1 2.05 4.05 2.15 4.1 2.15 4.2 L2.1 4.4 2.0 4.55 Q2.05 4.55 2.1 4.5 2.1 4.4 2.2 4.35 2.25 4.35 2.3 4.35 L2.5 4.1 2.7 3.8 Q2.8 3.5 2.95 3.25 L3.1 2.95 3.2 2.65 3.25 2.6 3.3 2.6 3.35 2.55 3.4 2.55 3.3 2.9 M19.9 5.0 L19.9 4.95 19.95 4.95 Q20.05 5.0 19.9 5.0 M6.65 3.05 Q6.75 3.35 6.55 3.7 6.4 4.05 6.3 4.35 6.2 4.55 6.2 4.75 6.4 4.85 6.6 4.7 6.7 4.65 6.8 4.7 6.9 4.75 6.9 4.85 L6.9 4.95 6.85 5.05 5.45 5.15 Q5.15 5.2 4.9 5.3 4.8 5.25 4.75 5.1 4.7 5.0 4.75 4.9 L4.8 4.85 Q4.85 4.8 4.95 4.85 L5.1 4.95 5.15 4.9 5.35 4.9 Q5.65 4.45 6.0 4.1 6.3 3.75 6.4 3.25 6.45 3.1 6.65 3.05 M8.65 4.15 Q8.9 4.15 8.8 4.3 L8.65 4.55 8.55 4.75 8.6 4.8 8.7 4.85 8.85 5.0 8.75 5.05 8.75 5.25 8.8 5.25 9.0 5.2 8.95 5.25 8.85 5.3 Q8.7 5.35 8.65 5.2 L8.65 5.05 8.35 5.0 8.25 4.95 8.25 4.9 8.2 4.9 8.2 4.85 Q8.05 4.9 8.0 4.85 7.95 4.8 8.05 4.75 L8.15 4.75 Q8.1 4.65 8.2 4.55 L8.4 4.3 Q8.5 4.15 8.65 4.15 M6.55 6.15 L6.8 6.1 6.85 6.1 Q7.0 6.2 6.85 6.25 L6.55 6.3 6.35 6.3 Q6.4 6.2 6.55 6.15 M5.9 6.65 L5.6 6.85 Q5.4 6.95 5.2 6.85 5.1 6.8 5.1 6.7 5.1 6.6 5.25 6.6 L5.45 6.6 5.65 6.55 5.8 6.55 5.9 6.65 M10.55 4.9 L10.45 5.05 10.5 5.15 10.6 5.25 10.6 5.3 Q10.5 5.5 10.25 5.5 L9.8 5.4 9.75 5.4 9.75 5.3 9.35 5.25 Q9.3 5.15 9.4 5.15 9.55 5.15 9.6 5.05 L9.6 5.0 10.2 5.0 Q10.2 4.9 10.3 4.8 L10.5 4.55 Q10.6 4.45 10.7 4.45 10.85 4.5 10.7 4.7 L10.55 4.9 M1.0 5.15 Q0.35 5.35 -0.4 5.25 L-0.45 5.3 Q-0.75 5.25 -1.0 5.35 -1.15 5.4 -1.2 5.35 -1.4 5.25 -1.45 5.15 -1.75 5.35 -2.2 5.25 -2.4 5.2 -2.45 5.05 L-2.5 5.1 Q-2.65 5.15 -2.75 5.05 L-2.8 5.0 Q-2.8 4.9 -2.7 4.95 L-2.5 5.0 -2.25 4.8 -1.65 4.05 Q-1.25 3.6 -1.05 3.15 -0.95 3.0 -0.8 2.95 L-0.8 3.15 -0.65 3.05 Q-0.75 3.4 -0.95 3.8 L-1.1 4.1 -1.3 4.55 Q-1.35 4.8 -1.2 5.0 -1.05 5.0 -1.1 4.85 L-1.1 4.65 Q-1.15 4.5 -1.0 4.4 -0.8 4.5 -0.6 4.7 -0.45 4.8 -0.4 5.0 L-0.3 5.0 -0.2 4.9 Q-0.15 4.85 -0.15 4.8 -0.15 4.7 0.0 4.7 0.15 4.7 0.2 4.75 L0.25 4.9 Q0.3 5.0 0.35 5.0 L0.55 5.0 1.0 5.15 M0.55 6.4 Q0.45 6.55 0.4 6.35 0.35 6.25 0.5 6.25 0.7 6.3 0.55 6.4 M-4.5 4.8 L-4.45 4.85 -4.45 4.95 Q-4.45 5.05 -4.55 5.1 -4.75 5.2 -4.85 5.05 L-4.85 5.0 Q-4.85 4.95 -4.8 4.9 -4.75 4.85 -4.65 4.8 L-4.5 4.8 M-1.45 4.2 L-1.45 4.2 M-0.1 5.05 L0.0 5.05 Q0.05 5.0 -0.05 5.0 -0.15 5.05 -0.1 5.05 M-1.55 6.2 L-1.45 6.3 -1.45 6.35 Q-1.45 6.4 -1.55 6.4 L-1.8 6.45 Q-2.3 6.5 -2.25 6.15 L-2.2 6.1 -2.05 6.1 -1.7 6.15 -1.55 6.2 M-9.8 5.1 Q-9.9 5.3 -9.85 5.45 L-9.7 5.45 -9.4 5.65 Q-9.25 5.65 -9.15 5.75 L-8.9 5.85 Q-8.95 5.95 -9.15 5.9 L-9.35 5.85 Q-9.5 5.9 -9.7 5.85 L-9.95 5.95 Q-10.45 6.0 -10.65 5.75 L-11.2 5.8 Q-11.35 5.85 -11.35 5.7 -11.2 5.5 -10.9 5.6 L-10.9 5.55 Q-10.9 5.45 -10.8 5.5 L-10.5 5.65 -10.45 5.7 Q-10.15 5.65 -10.15 5.35 L-10.05 4.95 Q-10.0 4.85 -9.9 4.8 -9.7 4.85 -9.8 5.1 M-6.9 3.55 Q-6.85 3.35 -6.7 3.2 -6.6 3.4 -6.7 3.55 -6.8 3.7 -6.85 3.9 L-6.9 4.1 Q-6.75 4.25 -6.65 4.45 -6.6 4.65 -6.55 4.8 -6.55 5.0 -6.45 4.9 -6.45 4.75 -6.3 4.75 -6.05 4.75 -5.95 4.9 L-5.9 4.9 -5.9 5.0 Q-5.9 5.05 -5.95 5.1 L-6.05 5.15 -7.25 5.2 -7.45 5.25 -7.85 5.25 Q-7.95 5.25 -8.0 5.15 -8.0 5.0 -7.85 4.95 L-7.75 4.9 Q-7.7 4.85 -7.65 4.85 L-7.55 4.85 -7.4 4.8 Q-7.2 4.5 -7.1 4.2 -7.0 3.9 -6.9 3.55 M-7.9 6.1 Q-8.05 6.1 -8.2 6.0 L-8.3 6.0 -8.35 6.05 -8.45 6.0 Q-8.55 6.0 -8.55 5.9 -8.55 5.85 -8.5 5.8 -8.5 5.7 -8.45 5.7 L-8.25 5.5 Q-8.25 5.45 -8.15 5.45 L-8.3 5.6 -8.25 5.6 Q-8.1 5.6 -8.0 5.7 L-7.8 5.85 Q-7.65 5.9 -7.7 6.0 L-7.75 6.1 -7.9 6.1 M-9.65 7.6 Q-9.75 7.55 -9.8 7.5 L-9.75 7.4 -9.75 7.35 Q-9.7 7.3 -9.6 7.3 -9.45 7.35 -9.5 7.45 -9.5 7.6 -9.65 7.6 M-17.25 5.7 Q-17.3 5.8 -17.45 5.85 -17.75 5.85 -17.95 5.7 L-17.95 5.65 -17.9 5.6 -17.8 5.55 -17.75 5.5 -17.65 5.45 Q-17.55 5.45 -17.5 5.5 L-17.35 5.6 Q-17.25 5.65 -17.25 5.7 M-20.4 4.7 L-20.55 4.8 -20.6 4.85 -21.6 4.7 Q-21.9 4.7 -22.15 4.5 L-22.15 4.55 -22.05 4.6 -21.95 4.7 Q-22.3 4.85 -22.8 4.9 L-23.3 4.85 Q-23.45 4.85 -23.45 4.7 L-23.35 4.6 -23.25 4.6 -23.2 4.65 -23.15 4.65 Q-22.85 4.45 -22.65 4.15 -22.5 3.9 -22.25 3.75 L-22.1 3.65 Q-21.9 3.75 -22.05 4.0 -22.15 4.1 -22.15 4.25 L-22.1 4.3 -22.0 4.3 -21.95 4.35 Q-21.9 4.55 -21.3 4.7 -20.9 4.75 -20.6 4.5 -20.35 4.3 -20.05 4.3 -20.0 4.3 -20.05 4.35 -20.15 4.45 -20.0 4.5 -19.9 4.5 -19.85 4.6 L-19.8 4.65 -19.75 4.65 -19.55 4.55 -19.5 4.5 Q-19.35 4.5 -19.35 4.6 -19.35 4.65 -19.4 4.65 L-19.6 4.7 -19.65 4.75 -20.0 4.75 Q-20.1 4.7 -20.2 4.65 L-20.25 4.6 -20.3 4.65 -20.4 4.7 M-12.25 7.1 Q-12.25 7.0 -12.15 7.0 -12.0 7.0 -12.1 7.1 -12.2 7.25 -12.25 7.1 M-27.0 4.85 L-26.65 4.65 -26.6 4.6 -26.5 4.55 -26.45 4.65 -26.45 4.7 -26.4 4.75 Q-26.25 4.8 -26.1 4.9 L-26.0 5.0 Q-26.3 5.1 -26.6 4.9 L-26.65 4.9 -26.95 4.85 -27.0 4.85 M-28.45 3.85 Q-28.65 3.95 -28.75 3.8 -28.85 3.75 -28.75 3.7 L-28.7 3.65 -28.55 3.65 -28.5 3.7 -28.4 3.75 Q-28.4 3.8 -28.45 3.85 M-27.7 4.65 Q-27.6 4.6 -27.55 4.7 L-27.45 4.85 Q-27.4 4.9 -27.5 4.95 -27.55 5.05 -27.7 5.0 L-27.9 5.0 Q-28.0 5.0 -28.05 4.95 L-28.05 4.85 Q-28.0 4.75 -27.9 4.7 L-27.7 4.65 M-25.4 4.75 L-25.3 4.75 -25.25 4.8 -25.25 4.85 -24.95 4.85 -24.85 4.95 Q-24.95 5.05 -25.15 5.05 L-25.6 5.0 -25.5 4.8 Q-25.5 4.75 -25.4 4.75 M-30.45 5.2 Q-30.6 5.3 -30.6 5.15 -30.65 5.05 -30.55 5.05 -30.3 5.05 -30.45 5.2" fill="#608c38" fill-rule="evenodd" stroke="none"/>
    </g>
  </defs>
</svg>
