<?xml version="1.0" encoding="UTF-8" standalone="no"?>
<svg xmlns:ffdec="https://www.free-decompiler.com/flash" xmlns:xlink="http://www.w3.org/1999/xlink" ffdec:objectType="frame" height="259.7px" width="282.45px" xmlns="http://www.w3.org/2000/svg">
  <g transform="matrix(1.0, 0.0, 0.0, 1.0, 24.15, 4.55)">
    <use ffdec:characterId="59" height="37.1" transform="matrix(7.0, 0.0, 0.0, 7.0, -24.15, -4.55)" width="40.35" xlink:href="#shape0"/>
  </g>
  <defs>
    <g id="shape0" transform="matrix(1.0, 0.0, 0.0, 1.0, 3.45, 0.65)">
      <path d="M33.05 -0.1 Q34.7 0.75 35.95 2.7 38.1 6.1 35.55 8.8 L35.6 8.9 Q35.65 8.95 35.6 9.05 L35.45 9.4 33.6 9.6 28.8 11.1 28.25 11.3 24.2 12.8 Q15.1 16.7 8.35 24.5 3.55 30.0 -0.4 35.75 L-0.2 36.35 -0.55 35.95 -0.9 36.45 -1.0 36.35 -1.0 35.85 -0.9 35.6 -0.85 35.5 -1.0 35.3 -0.95 35.5 -1.1 35.1 Q-2.7 32.6 -3.2 28.9 -4.5 20.1 0.5 12.95 7.7 5.15 17.95 1.75 22.7 0.15 27.6 -0.05 30.65 -1.25 32.95 -0.15 L33.4 -0.15 33.05 -0.1 M35.45 6.85 Q35.45 5.0 34.7 3.15 L34.6 2.9 Q33.4 0.2 30.6 0.35 18.65 2.8 7.65 9.0 4.0 11.1 1.75 14.0 L1.4 14.55 Q-0.2 16.8 -0.95 19.5 L-1.0 19.75 -1.0 19.9 Q-1.45 21.5 -1.55 23.3 L-1.65 25.05 Q-1.75 28.4 -1.45 31.75 L-0.95 33.7 Q-0.85 33.45 -0.7 33.3 -0.35 33.0 -0.25 32.65 L-0.05 32.55 0.55 31.75 1.15 31.0 1.5 30.45 1.55 30.3 2.1 29.55 2.1 29.5 2.5 29.1 Q5.1 25.8 8.05 22.9 9.05 21.8 10.05 20.95 L10.35 20.55 11.2 19.8 13.05 18.05 13.6 17.95 13.6 18.0 Q16.3 15.85 19.25 13.95 25.7 9.8 32.95 8.55 L33.6 8.45 35.2 8.25 35.35 8.4 35.4 8.0 35.4 7.95 35.45 7.0 35.45 6.85 M13.55 18.85 L14.7 17.85 13.6 18.7 13.55 18.85 M1.3 31.95 L0.8 32.65 0.75 32.7 1.3 31.95" fill="#111111" fill-rule="evenodd" stroke="none"/>
      <path d="M35.45 6.85 L35.25 6.95 Q34.2 6.7 33.05 6.9 29.95 7.35 26.95 8.2 25.95 8.4 24.95 8.75 23.35 9.3 21.6 9.65 L20.6 10.45 20.0 10.7 Q7.1 16.35 0.05 28.35 -1.2 23.85 -0.1 19.35 0.5 16.9 1.4 14.55 L1.75 14.0 Q1.6 15.85 1.25 17.8 0.85 19.7 0.85 21.65 L2.15 20.4 Q2.05 19.6 2.25 18.8 2.6 17.4 3.15 16.1 3.65 17.4 3.45 19.15 4.1 18.6 4.75 18.05 5.3 15.85 6.3 13.6 6.95 12.15 7.35 10.8 8.55 12.6 6.8 16.1 L6.6 16.55 Q8.35 15.2 10.3 13.95 L10.25 13.8 Q10.1 13.0 10.45 12.25 L10.9 11.85 Q11.3 11.45 11.75 11.55 L11.85 11.65 12.0 11.95 12.1 12.25 12.15 12.45 12.1 12.85 Q12.95 12.35 13.85 11.9 14.35 10.4 15.3 9.05 L16.65 7.0 17.3 6.25 Q17.5 6.05 17.75 6.05 16.75 7.9 15.75 9.8 15.35 10.65 14.85 11.35 17.5 10.0 20.45 8.85 21.4 8.5 22.4 8.15 22.2 7.3 21.9 6.5 21.8 6.15 22.0 5.75 23.3 5.25 23.35 7.05 23.35 7.55 23.2 7.85 24.75 7.3 26.3 6.85 26.3 6.45 26.5 5.95 26.95 4.9 27.25 3.9 28.45 4.2 27.85 6.15 L27.8 6.4 Q30.5 5.65 33.3 5.05 34.15 4.9 34.2 3.85 34.25 3.3 34.7 3.15 35.45 5.0 35.45 6.85 M35.4 8.0 L35.35 8.4 35.2 8.25 33.6 8.45 34.2 8.25 Q34.5 8.15 34.85 8.1 L35.4 8.0" fill="#39484d" fill-rule="evenodd" stroke="none"/>
      <path d="M35.25 6.95 L35.45 6.85 35.45 7.0 35.25 6.95 M34.7 3.15 Q34.25 3.3 34.2 3.85 34.15 4.9 33.3 5.05 30.5 5.65 27.8 6.4 L27.85 6.15 Q28.45 4.2 27.25 3.9 26.95 4.9 26.5 5.95 26.3 6.45 26.3 6.85 24.75 7.3 23.2 7.85 23.35 7.55 23.35 7.05 23.3 5.25 22.0 5.75 21.8 6.15 21.9 6.5 22.2 7.3 22.4 8.15 21.4 8.5 20.45 8.85 17.5 10.0 14.85 11.35 15.35 10.65 15.75 9.8 16.75 7.9 17.75 6.05 17.5 6.05 17.3 6.25 L16.65 7.0 15.3 9.05 Q14.35 10.4 13.85 11.9 12.95 12.35 12.1 12.85 L12.15 12.45 12.1 12.25 12.0 11.95 11.85 11.65 11.75 11.55 Q11.3 11.45 10.9 11.85 L10.45 12.25 Q10.1 13.0 10.25 13.8 L10.3 13.95 Q8.35 15.2 6.6 16.55 L6.8 16.1 Q8.55 12.6 7.35 10.8 6.95 12.15 6.3 13.6 5.3 15.85 4.75 18.05 4.1 18.6 3.45 19.15 3.65 17.4 3.15 16.1 2.6 17.4 2.25 18.8 2.05 19.6 2.15 20.4 L0.85 21.65 Q0.85 19.7 1.25 17.8 1.6 15.85 1.75 14.0 4.0 11.1 7.65 9.0 18.65 2.8 30.6 0.35 33.4 0.2 34.6 2.9 L34.7 3.15 M20.6 10.45 L21.6 9.65 Q23.35 9.3 24.95 8.75 25.95 8.4 26.95 8.2 23.7 9.1 20.6 10.45" fill="#5f7980" fill-rule="evenodd" stroke="none"/>
      <path d="M1.4 14.55 Q0.5 16.9 -0.1 19.35 -1.2 23.85 0.05 28.35 7.1 16.35 20.0 10.7 L20.6 10.45 Q23.7 9.1 26.95 8.2 29.95 7.35 33.05 6.9 34.2 6.7 35.25 6.95 L35.45 7.0 35.4 7.95 35.4 8.0 34.85 8.1 Q34.5 8.15 34.2 8.25 L33.6 8.45 32.95 8.55 Q25.7 9.8 19.25 13.95 16.3 15.85 13.6 18.0 L13.6 17.95 13.05 18.05 11.2 19.8 10.35 20.55 10.05 20.95 Q9.05 21.8 8.05 22.9 5.1 25.8 2.5 29.1 L2.1 29.5 2.1 29.55 1.55 30.3 1.5 30.45 1.15 31.0 0.55 31.75 -0.05 32.55 -0.25 32.65 Q-0.35 33.0 -0.7 33.3 -0.85 33.45 -0.95 33.7 L-1.45 31.75 Q-1.75 28.4 -1.65 25.05 L-1.55 23.3 Q-1.45 21.5 -1.0 19.9 L-1.0 19.75 -0.95 19.5 Q-0.2 16.8 1.4 14.55" fill="#d9ecf2" fill-rule="evenodd" stroke="none"/>
    </g>
  </defs>
</svg>
