<?xml version="1.0" encoding="UTF-8" standalone="no"?>
<svg xmlns:ffdec="https://www.free-decompiler.com/flash" xmlns:xlink="http://www.w3.org/1999/xlink" ffdec:objectType="frame" height="57.4px" width="89.6px" xmlns="http://www.w3.org/2000/svg">
  <g transform="matrix(1.0, 0.0, 0.0, 1.0, 50.4, 40.25)">
    <use ffdec:characterId="4873" height="2.9" transform="matrix(7.0, 0.0, 0.0, 7.0, -31.5, -4.2)" width="9.6" xlink:href="#shape0"/>
    <use ffdec:characterId="4827" height="3.15" transform="matrix(7.0, 0.0, 0.0, 7.0, -25.2, -14.35)" width="7.65" xlink:href="#shape1"/>
    <use ffdec:characterId="4714" height="6.3" transform="matrix(-1.6631, 0.0, 0.0, 1.6631, 24.1872, 0.3225)" width="25.9" xlink:href="#sprite0"/>
    <use ffdec:characterId="4828" height="2.25" transform="matrix(7.0, 0.0, 0.0, 7.0, -22.75, -8.05)" width="6.95" xlink:href="#shape3"/>
  </g>
  <defs>
    <g id="shape0" transform="matrix(1.0, 0.0, 0.0, 1.0, 4.5, 0.6)">
      <path d="M1.4 -0.6 L1.7 -0.55 Q3.95 -0.5 4.7 -0.1 5.1 0.15 5.1 0.7 5.1 1.05 5.05 1.15 4.95 1.35 4.45 1.65 4.15 1.8 2.9 2.05 1.45 2.3 0.5 2.3 L0.3 2.25 -1.7 2.2 Q-2.45 2.4 -3.5 1.9 -4.5 1.45 -4.5 1.15 -4.5 0.6 -4.4 0.45 -4.3 0.3 -3.95 -0.05 L-3.5 -0.2 -3.45 -0.1 -3.15 -0.1 -1.85 -0.25 -1.8 -0.25 Q-1.5 -0.4 -1.0 -0.45 L0.35 -0.55 1.4 -0.6" fill="#ffcc66" fill-opacity="0.3372549" fill-rule="evenodd" stroke="none"/>
    </g>
    <g id="shape1" transform="matrix(1.0, 0.0, 0.0, 1.0, 3.6, 2.05)">
      <path d="M0.45 -1.85 Q0.55 -1.7 0.7 -1.55 L0.75 -1.5 0.9 -1.25 0.85 -1.2 0.6 -1.3 Q0.25 -1.3 0.1 -0.95 0.05 -0.75 0.05 -0.6 0.05 -0.4 0.45 -0.15 0.9 0.15 1.4 0.15 L1.65 0.1 1.7 0.05 1.7 -0.2 1.6 -0.25 1.55 -0.3 1.9 -0.35 2.3 -0.4 Q2.75 -0.4 2.95 -0.15 L3.15 0.2 3.6 0.2 3.85 0.4 4.0 0.4 4.05 0.5 4.0 0.6 3.9 0.65 1.55 1.0 0.9 1.0 0.3 1.05 0.15 1.05 -0.15 1.1 -0.65 1.1 -1.1 1.05 -2.4 0.8 -3.25 0.7 -3.3 0.6 Q-3.35 0.45 -3.5 0.1 L-3.6 -0.25 Q-3.6 -0.55 -3.3 -0.9 -3.0 -1.3 -2.65 -1.35 L-2.3 -1.35 -2.1 -1.2 Q-1.9 -1.15 -1.85 -0.95 L-1.8 -0.65 -1.8 -0.6 -1.9 -0.65 -1.95 -0.6 Q-1.95 -0.55 -2.0 -0.5 -1.85 -0.4 -1.55 -0.35 L-1.25 -0.3 -1.3 -0.5 Q-1.35 -0.75 -1.35 -0.85 -1.35 -1.1 -1.25 -1.2 L-0.9 -1.6 Q-0.65 -1.95 -0.5 -2.0 -0.3 -2.05 0.4 -2.0 L0.45 -1.85" fill="#ffd327" fill-rule="evenodd" stroke="none"/>
    </g>
    <g id="sprite0" transform="matrix(1.0, 0.0, 0.0, 1.0, 12.95, 6.3)">
      <use ffdec:characterId="4713" height="0.9" transform="matrix(7.0, 0.0, 0.0, 7.0, -12.95, -6.3)" width="3.7" xlink:href="#shape2"/>
    </g>
    <g id="shape2" transform="matrix(1.0, 0.0, 0.0, 1.0, 1.85, 0.9)">
      <path d="M0.25 -0.3 L-0.15 -0.35 -0.45 -0.35 Q-0.6 -0.35 -0.7 -0.4 L-1.15 -0.45 -1.25 -0.55 Q-1.25 -0.7 -0.75 -0.65 -0.55 -0.8 -0.05 -0.75 L0.55 -0.6 0.9 -0.7 Q1.05 -0.7 1.1 -0.6 1.2 -0.55 1.3 -0.5 L1.3 -0.45 Q1.1 -0.3 0.55 -0.35 L0.45 -0.35 0.25 -0.3" fill="#ffffff" fill-rule="evenodd" stroke="none"/>
      <path d="M0.15 -0.15 L1.35 -0.25 Q1.55 -0.3 1.55 -0.45 1.55 -0.7 0.75 -0.75 L-0.1 -0.8 -1.0 -0.8 Q-1.05 -0.75 -1.3 -0.7 L-1.4 -0.65 Q-1.55 -0.65 -1.55 -0.55 -1.55 -0.45 -1.45 -0.4 -1.3 -0.35 -1.05 -0.35 -0.55 -0.15 0.15 -0.15 M1.85 -0.4 Q1.85 -0.2 1.6 -0.1 L0.25 0.0 -0.5 -0.1 -0.65 -0.15 -1.5 -0.25 Q-1.85 -0.3 -1.85 -0.5 -1.85 -0.6 -1.7 -0.65 -1.7 -0.7 -1.55 -0.75 L-1.35 -0.75 -1.0 -0.85 -0.8 -0.85 -0.6 -0.9 Q0.95 -0.9 1.5 -0.75 1.85 -0.65 1.85 -0.4" fill="#ffd327" fill-rule="evenodd" stroke="none"/>
      <path d="M0.15 -0.15 Q-0.55 -0.15 -1.05 -0.35 -1.3 -0.35 -1.45 -0.4 -1.55 -0.45 -1.55 -0.55 -1.55 -0.65 -1.4 -0.65 L-1.3 -0.7 Q-1.05 -0.75 -1.0 -0.8 L-0.1 -0.8 0.75 -0.75 Q1.55 -0.7 1.55 -0.45 1.55 -0.3 1.35 -0.25 L0.15 -0.15 M0.25 -0.3 L0.45 -0.35 0.55 -0.35 Q1.1 -0.3 1.3 -0.45 L1.3 -0.5 Q1.2 -0.55 1.1 -0.6 1.05 -0.7 0.9 -0.7 L0.55 -0.6 -0.05 -0.75 Q-0.55 -0.8 -0.75 -0.65 -1.25 -0.7 -1.25 -0.55 L-1.15 -0.45 -0.7 -0.4 Q-0.6 -0.35 -0.45 -0.35 L-0.15 -0.35 0.25 -0.3" fill="#ffff66" fill-rule="evenodd" stroke="none"/>
    </g>
    <g id="shape3" transform="matrix(1.0, 0.0, 0.0, 1.0, 3.25, 1.15)">
      <path d="M-2.45 -0.55 L-2.45 -0.45 -2.55 -0.3 -2.55 -0.15 Q-2.55 0.05 -2.5 0.15 L-2.2 0.4 -2.25 0.45 -2.1 0.55 Q-1.85 0.7 -1.7 0.7 -1.15 0.7 -0.75 0.5 L-0.65 0.45 -0.5 0.3 Q-0.45 0.25 -0.45 0.1 L-0.6 -0.15 Q-0.75 -0.15 -0.8 -0.3 L-0.8 -0.4 Q-0.85 -0.45 -0.95 -0.45 -1.0 -0.5 -1.0 -0.65 -1.0 -0.85 -0.85 -0.95 -0.7 -1.1 -0.35 -1.15 -0.3 -1.15 -0.3 -1.1 L-0.3 -1.05 -0.45 -0.8 Q-0.6 -0.55 -0.6 -0.45 L-0.55 -0.35 -0.5 -0.3 -0.5 -0.25 Q-0.35 -0.05 -0.3 -0.05 -0.05 0.1 0.0 0.35 L0.0 0.45 Q0.0 0.55 0.25 0.6 L0.8 0.7 1.5 0.6 Q1.85 0.55 1.95 0.4 L2.15 0.2 Q2.15 0.15 2.15 0.1 2.15 0.0 2.15 0.05 L2.55 0.1 Q2.75 0.1 2.8 0.2 2.9 0.25 2.9 0.35 3.0 0.45 3.45 0.45 L3.5 0.55 3.6 0.55 3.7 0.6 3.65 0.7 3.3 0.7 3.2 0.75 3.15 0.75 2.2 0.95 1.55 1.05 1.5 1.05 0.8 1.1 -0.8 1.1 -1.2 1.05 -2.4 0.85 -2.75 0.8 Q-2.85 0.75 -2.9 0.7 -3.0 0.7 -3.05 0.55 L-3.1 0.3 Q-3.15 0.2 -3.25 0.1 L-3.25 -0.1 Q-3.25 -0.4 -2.85 -0.7 -2.45 -1.0 -2.45 -0.6 L-2.45 -0.55" fill="#ffffff" fill-rule="evenodd" stroke="none"/>
    </g>
  </defs>
</svg>
