<?xml version="1.0" encoding="UTF-8" standalone="no"?>
<svg xmlns:ffdec="https://www.free-decompiler.com/flash" xmlns:xlink="http://www.w3.org/1999/xlink" ffdec:objectType="frame" height="397.25px" width="823.55px" xmlns="http://www.w3.org/2000/svg">
  <g transform="matrix(1.0, 0.0, 0.0, 1.0, 361.55, 294.0)">
    <use ffdec:characterId="1665" height="13.6" transform="matrix(7.0, 0.0, 0.0, 7.0, -85.4, -22.75)" width="36.9" xlink:href="#shape0"/>
  </g>
  <defs>
    <g id="shape0" transform="matrix(1.0, 0.0, 0.0, 1.0, 12.2, 3.25)">
      <path d="M-6.85 1.55 L-6.85 1.45 -6.6 1.4 -6.6 1.1 Q-6.7 1.0 -7.85 0.2 -6.8 -0.15 -5.75 -0.7 L-3.8 -1.65 -3.55 -1.4 -3.5 -1.45 Q-3.45 -1.25 -3.45 -1.6 L-3.45 -1.7 Q-3.15 -1.45 -2.8 -1.45 L-2.25 -1.5 -1.8 -1.25 -1.75 -1.25 -1.4 -1.15 -1.35 -1.15 -0.8 -1.3 -0.5 -1.1 Q-0.3 -1.25 -0.05 -1.3 L0.2 -1.6 0.7 -2.15 1.0 -1.85 Q1.4 -1.75 1.6 -1.45 L1.9 -1.0 Q2.25 -0.45 3.3 -0.45 L3.65 -0.45 3.65 -0.4 3.7 -0.4 Q4.05 -0.05 4.3 -0.05 L4.45 -0.05 4.45 0.05 Q4.45 0.2 4.5 0.25 L4.85 0.55 Q5.35 0.4 5.55 0.65 5.85 1.05 6.05 1.1 L6.35 1.05 6.35 0.1 Q6.15 -0.3 5.7 -0.5 L5.8 -0.55 6.05 -0.8 Q6.4 -0.75 6.6 -0.45 6.7 -0.25 6.95 1.05 7.15 2.15 7.65 2.7 8.25 3.3 9.4 3.45 9.3 3.65 9.3 3.95 L9.35 4.35 Q9.45 4.75 9.85 4.75 10.1 4.75 10.3 4.45 10.45 4.25 10.55 4.0 L10.7 4.1 Q10.7 4.45 11.0 4.8 L11.1 4.75 Q11.05 4.65 11.15 4.4 L11.15 4.35 11.2 4.45 Q12.0 5.4 13.5 5.4 L14.55 4.95 14.5 5.2 14.5 5.3 Q14.25 5.4 14.0 5.6 13.3 6.15 13.3 6.65 13.3 6.85 13.35 6.95 L13.4 7.0 12.7 6.95 Q12.3 6.95 12.05 7.15 12.0 6.7 11.5 6.25 11.0 5.75 10.25 5.6 9.5 5.4 9.05 5.65 8.45 6.0 8.45 6.8 L8.45 7.1 Q8.25 6.9 8.0 6.85 7.75 6.75 7.4 6.75 L7.2 6.55 Q7.4 6.35 7.6 6.1 7.8 5.6 7.8 5.0 7.8 4.5 6.8 4.2 L6.75 4.2 6.85 4.1 Q6.95 3.95 7.1 3.95 7.3 3.95 7.65 4.1 7.9 4.2 7.95 4.15 7.9 3.75 7.8 3.5 7.6 3.05 6.8 3.05 6.6 3.05 6.4 3.15 L6.25 3.25 6.25 3.15 Q6.25 2.25 5.95 1.75 5.65 1.25 5.15 1.2 4.65 1.15 4.15 1.55 3.6 1.95 3.2 2.8 L2.6 2.55 Q2.0 2.35 1.35 2.35 0.55 2.35 -0.5 2.85 -1.45 3.3 -1.55 3.65 L-1.5 3.3 -1.45 3.3 Q-1.15 3.3 -1.05 3.05 -1.0 2.85 -1.0 2.5 -1.0 1.9 -1.25 1.65 -1.75 1.35 -2.3 0.95 L-1.8 0.75 -2.7 0.1 Q-3.45 -0.45 -3.9 -0.65 -5.4 -1.4 -5.4 0.1 -5.4 0.45 -5.8 0.95 -6.25 1.45 -6.25 1.7 L-6.25 1.8 Q-6.5 1.5 -6.85 1.55 M15.45 4.55 Q15.8 4.4 15.85 4.4 16.1 4.4 16.25 4.7 L16.45 5.35 Q16.55 5.65 16.7 5.85 L16.05 5.55 16.1 5.2 Q15.8 4.65 15.45 4.55 M-1.55 3.7 Q-1.55 4.05 -0.6 5.0 0.45 6.05 1.35 6.05 1.65 6.05 1.8 5.95 L2.15 6.0 Q1.85 6.15 1.65 6.3 1.3 6.25 1.3 6.75 L1.05 6.95 Q0.8 7.15 0.65 7.15 0.35 7.15 0.2 7.0 L0.05 6.6 Q-0.2 6.05 -0.85 6.05 -1.65 6.05 -2.15 5.65 -2.65 5.2 -3.15 5.2 -3.6 5.2 -3.95 5.5 L-4.5 6.1 Q-5.3 6.95 -6.55 6.95 -7.6 6.5 -7.7 6.35 L-7.5 6.2 Q-7.35 6.15 -7.25 6.1 L-7.15 6.25 Q-7.1 6.4 -6.85 6.4 -6.65 6.4 -6.55 6.2 -6.45 6.0 -6.45 5.75 -6.45 5.45 -7.1 4.95 -7.8 4.45 -8.65 4.1 -9.1 3.95 -9.45 3.9 L-8.3 3.8 Q-8.25 3.8 -7.7 4.1 -7.15 4.35 -6.85 4.35 -6.4 4.35 -6.15 3.8 L-6.05 3.55 -5.45 3.6 Q-4.65 3.6 -4.35 3.4 -4.2 3.3 -4.05 3.0 -3.9 2.7 -3.65 2.55 -3.3 2.35 -2.4 2.35 L-2.05 2.4 -1.95 2.4 -1.95 2.6 Q-2.15 2.55 -2.4 2.55 -2.8 2.6 -3.05 2.8 -3.3 3.05 -3.3 3.45 -3.3 3.8 -2.95 4.05 -2.55 4.4 -1.85 4.4 -1.65 4.4 -1.6 4.35 L-1.65 4.3 -1.55 3.8 -1.55 3.7 M-1.55 -0.3 Q-1.55 -1.2 -2.25 -1.2 -2.9 -1.25 -3.45 -0.45 -2.75 -0.05 -1.8 0.3 L-1.65 0.1 Q-1.55 -0.05 -1.55 -0.3 M-0.5 -1.1 L-0.65 -1.0 -0.55 -0.95 -0.5 -0.95 -0.45 -1.0 -0.35 -1.05 -0.5 -1.1 M1.0 -1.45 Q0.45 -1.65 0.05 -1.15 L0.05 -1.0 0.8 -0.45 1.35 -0.45 Q1.6 -0.45 1.65 -0.5 L1.7 -0.7 Q1.5 -1.25 1.0 -1.45 M21.7 6.55 L21.75 6.55 Q21.95 6.55 22.05 6.7 22.4 7.55 23.85 8.65 23.7 8.95 23.7 9.05 23.7 9.15 23.35 9.15 23.3 9.15 22.7 8.85 L22.8 8.55 Q22.75 8.35 22.55 8.15 L22.55 8.1 22.1 7.75 Q21.85 7.6 21.75 7.6 L21.75 7.65 21.5 7.55 21.35 7.5 Q21.3 7.15 21.45 6.95 L21.7 6.7 21.7 6.55 M1.3 -0.35 Q1.1 -0.35 1.0 -0.2 0.9 -0.05 0.85 0.15 0.2 -0.65 -0.4 -0.35 -0.95 -0.05 -0.95 0.55 -0.95 0.7 -0.75 0.95 -0.45 1.35 0.15 1.35 1.05 1.35 1.5 1.0 1.8 0.75 1.8 0.45 2.2 0.45 2.5 0.8 2.8 1.15 3.2 1.15 L3.45 1.1 Q3.45 1.0 3.5 1.0 3.4 0.7 3.25 0.45 2.9 -0.05 2.35 -0.05 2.2 -0.05 1.8 -0.2 1.45 -0.35 1.3 -0.35 M18.15 6.15 L18.3 6.35 18.2 6.4 17.95 6.25 18.1 6.2 18.15 6.15 M17.45 7.05 L16.85 7.1 16.5 7.05 16.4 7.05 16.35 6.95 Q16.3 6.9 16.3 6.7 L16.35 6.5 16.4 6.4 Q16.65 6.35 17.1 6.4 17.55 6.45 17.85 6.6 L17.95 6.8 Q17.8 6.95 17.45 7.05 M20.45 7.0 L19.45 7.05 Q18.8 7.2 18.35 7.6 L18.35 7.5 Q18.7 6.95 19.3 6.7 19.45 6.8 19.7 6.8 19.95 6.8 20.3 6.55 L20.9 6.55 Q20.75 6.6 20.65 6.75 20.5 6.85 20.45 7.0 M15.0 6.75 Q15.25 6.75 15.45 6.85 L15.35 6.85 14.45 6.95 Q14.8 6.75 15.0 6.75 M20.75 8.3 L21.1 8.4 Q20.7 8.5 20.1 8.9 L19.85 9.05 20.2 8.7 20.7 8.3 20.75 8.3 M6.3 1.45 Q6.3 1.65 6.35 1.65 L6.4 1.7 6.65 1.7 Q6.75 1.6 6.75 1.4 L6.6 1.25 6.5 1.2 6.35 1.2 Q6.3 1.2 6.3 1.45 M5.9 3.95 L6.1 4.05 4.5 3.95 4.55 3.95 Q5.1 3.8 5.45 3.65 L5.9 3.95 M10.75 5.05 L10.75 5.25 Q10.75 5.5 10.9 5.7 11.15 5.95 11.5 5.9 11.35 5.55 11.1 5.3 10.95 5.1 10.9 4.95 L10.8 4.95 10.75 5.05 M9.45 6.95 L9.45 6.8 9.4 6.65 Q9.55 6.6 9.75 6.65 10.0 6.7 10.2 6.85 L10.1 7.0 Q10.05 7.05 9.85 7.05 L9.5 7.0 9.45 6.95 M4.15 3.15 Q4.15 2.85 4.35 2.6 4.55 2.3 4.85 2.2 5.55 2.0 5.65 3.15 L5.45 3.15 Q5.2 3.05 5.05 3.05 4.85 3.05 4.65 3.2 L4.45 3.45 4.2 3.4 Q4.15 3.35 4.15 3.15 M1.2 1.9 L0.8 1.8 Q-0.3 2.2 -0.85 1.65 -1.2 1.3 -1.55 0.65 L-1.65 0.65 Q-1.7 0.4 -1.7 0.75 -0.6 2.3 0.5 2.3 L1.0 2.2 Q1.2 2.1 1.35 2.0 L1.2 1.9 M2.2 3.4 Q1.95 3.6 1.6 3.75 1.15 3.9 0.6 3.9 L0.55 3.95 Q0.5 3.95 0.5 3.75 0.5 3.4 0.9 3.35 L2.2 3.4 M1.9 4.45 L1.9 4.45 M10.45 8.45 Q11.05 8.45 11.45 8.3 11.3 8.55 10.95 8.55 L10.1 8.45 10.45 8.45 M1.1 7.55 L1.15 7.55 1.4 7.35 1.4 7.4 1.1 7.55 M-3.75 1.0 L-3.75 1.2 -3.85 1.4 Q-3.95 1.5 -4.15 1.5 -4.5 1.5 -4.7 1.1 -4.8 0.9 -4.8 0.7 -4.8 0.45 -4.6 0.3 -4.45 0.2 -4.25 0.25 -3.75 0.35 -3.75 1.0 M-3.2 6.7 L-3.25 6.75 -3.25 7.1 Q-3.25 7.3 -3.1 7.45 -2.95 7.65 -2.7 7.7 -2.45 7.65 -2.35 7.45 L-2.3 7.2 Q-2.3 6.95 -2.55 6.75 -2.85 6.5 -3.2 6.7 M-3.05 4.15 L-3.1 4.05 Q-3.55 3.9 -3.75 4.15 -3.85 4.25 -3.85 4.45 L-3.8 4.55 -3.45 4.85 -3.2 4.75 -3.05 4.7 Q-3.0 4.65 -3.0 4.45 -3.0 4.25 -3.05 4.15 M-1.7 7.0 Q-1.3 7.35 -1.3 7.55 -1.3 7.7 -1.45 7.85 -1.6 8.1 -1.85 8.25 L-2.85 8.25 Q-3.8 7.85 -3.95 7.7 -3.75 6.2 -2.5 6.55 -2.05 6.7 -1.7 7.0" fill="#4d3926" fill-rule="evenodd" stroke="none"/>
      <path d="M-6.85 1.45 Q-8.15 1.45 -8.55 1.05 -8.7 0.9 -8.7 0.55 -8.7 0.0 -8.35 -0.4 L-7.7 -0.3 -6.4 -1.15 -5.6 -1.2 Q-5.2 -1.2 -5.0 -1.35 -4.95 -1.4 -4.85 -1.7 L-4.7 -1.85 -4.45 -1.95 Q-2.1 -1.85 -0.3 -2.55 -0.3 -2.7 -0.25 -2.75 0.3 -2.95 0.65 -3.25 L0.75 -2.75 Q0.9 -2.85 1.15 -2.95 1.7 -3.05 2.15 -2.3 2.6 -1.55 3.3 -1.1 L3.45 -1.05 3.5 -1.1 3.75 -1.1 Q3.85 -1.3 4.05 -1.5 4.4 -1.85 4.9 -2.05 5.4 -2.25 5.75 -2.05 6.1 -1.85 6.15 -1.2 6.5 -1.3 6.85 -1.15 7.45 -0.85 7.45 -0.25 7.45 -0.05 7.3 0.15 7.15 0.35 7.15 0.55 7.15 1.4 8.0 2.1 9.0 2.9 10.55 2.9 10.7 2.9 10.9 3.2 L11.45 3.8 Q12.3 4.75 13.45 4.75 L15.5 4.15 Q16.2 4.15 16.55 4.35 16.8 4.5 17.0 4.85 17.2 5.15 17.4 5.3 17.55 5.4 17.75 5.45 17.8 5.3 17.95 5.2 18.2 5.05 18.45 5.1 19.0 5.1 19.1 5.6 19.6 5.25 19.85 5.15 21.05 4.7 21.7 5.2 21.9 5.35 22.1 5.75 L22.35 6.1 Q22.8 6.5 22.8 7.35 22.8 7.8 23.45 7.8 L24.15 7.75 Q24.55 7.75 24.7 8.2 24.75 8.4 24.7 8.7 24.7 9.25 24.35 9.55 24.0 9.85 23.2 9.85 22.9 9.85 22.25 9.45 21.65 9.05 21.1 9.05 L20.25 9.7 Q19.3 10.35 18.35 10.35 17.75 10.35 17.1 9.85 16.55 9.45 16.55 9.25 16.55 8.8 16.85 8.35 16.4 8.3 16.2 8.05 L16.15 7.95 16.0 7.8 Q15.65 7.55 15.45 7.5 L15.45 7.45 15.3 7.45 15.0 7.4 Q14.35 7.65 13.65 7.65 12.9 7.7 12.6 8.0 L12.05 8.65 Q11.6 9.05 11.15 9.05 L9.55 8.8 Q8.35 8.8 8.2 8.2 L8.05 7.65 Q8.0 7.35 7.75 7.1 L7.7 7.2 7.4 7.05 6.7 7.05 Q6.35 6.95 6.3 6.85 L6.15 6.85 5.7 6.8 5.5 6.8 5.45 6.65 Q5.45 6.55 5.45 6.35 5.45 6.05 5.7 5.9 5.7 5.45 6.15 5.7 6.6 5.5 6.9 5.2 L6.95 5.15 Q6.25 4.7 6.0 4.65 5.85 4.6 4.35 4.6 3.05 4.6 2.6 4.75 L2.65 4.95 Q2.95 5.05 3.05 5.15 3.25 5.25 3.25 5.5 3.25 5.85 2.8 6.45 2.45 6.9 2.3 7.0 L2.3 7.1 Q2.3 8.15 1.75 8.3 L0.05 8.3 Q-0.35 8.3 -0.45 8.55 -0.5 8.7 -0.55 9.1 -0.7 9.95 -2.05 9.95 -2.6 9.95 -3.7 9.5 -4.75 9.05 -6.05 9.05 -7.4 9.05 -7.65 9.25 L-7.75 9.4 Q-7.85 9.5 -8.05 9.5 L-8.15 9.3 -8.15 9.25 Q-8.65 9.2 -9.2 8.8 -9.75 8.45 -9.75 8.25 -9.75 7.9 -9.45 7.65 L-9.35 7.55 -10.15 7.55 Q-10.55 7.45 -10.55 7.05 -10.55 6.85 -10.5 6.75 L-10.6 6.8 Q-10.85 6.9 -11.15 6.9 -11.6 6.9 -11.95 6.45 -12.1 6.2 -12.2 5.95 -12.2 5.75 -11.9 5.4 -11.6 4.95 -11.1 4.55 -10.9 4.4 -10.7 4.3 -10.5 4.0 -10.15 3.9 L-9.8 3.85 Q-8.95 3.55 -7.9 3.55 L-7.55 3.4 Q-7.1 3.3 -6.6 3.3 L-6.45 3.25 -6.45 3.0 -6.35 2.35 -6.45 2.25 Q-6.75 1.85 -6.9 1.55 L-6.85 1.55 Q-6.5 1.5 -6.25 1.8 L-6.25 1.7 Q-6.25 1.45 -5.8 0.95 -5.4 0.45 -5.4 0.1 -5.4 -1.4 -3.9 -0.65 -3.45 -0.45 -2.7 0.1 L-1.8 0.75 -2.3 0.95 Q-1.75 1.35 -1.25 1.65 -1.0 1.9 -1.0 2.5 -1.0 2.85 -1.05 3.05 -1.15 3.3 -1.45 3.3 L-1.5 3.3 Q-1.5 2.9 -1.8 2.7 L-1.95 2.6 -1.95 2.4 -2.05 2.4 -2.4 2.35 Q-3.3 2.35 -3.65 2.55 -3.9 2.7 -4.05 3.0 -4.2 3.3 -4.35 3.4 -4.65 3.6 -5.45 3.6 L-6.05 3.55 -6.15 3.8 Q-6.4 4.35 -6.85 4.35 -7.15 4.35 -7.7 4.1 -8.25 3.8 -8.3 3.8 L-9.45 3.9 Q-9.1 3.95 -8.65 4.1 -7.8 4.45 -7.1 4.95 -6.45 5.45 -6.45 5.75 -6.45 6.0 -6.55 6.2 -6.65 6.4 -6.85 6.4 -7.1 6.4 -7.15 6.25 L-7.25 6.1 Q-7.35 6.15 -7.5 6.2 L-7.7 6.35 Q-7.6 6.5 -6.55 6.95 -5.3 6.95 -4.5 6.1 L-3.95 5.5 Q-3.6 5.2 -3.15 5.2 -2.65 5.2 -2.15 5.65 -1.65 6.05 -0.85 6.05 -0.2 6.05 0.05 6.6 L0.2 7.0 Q0.35 7.15 0.65 7.15 0.8 7.15 1.05 6.95 L1.3 6.75 Q1.3 6.25 1.65 6.3 1.85 6.15 2.15 6.0 L1.8 5.95 Q1.65 6.05 1.35 6.05 0.45 6.05 -0.6 5.0 -1.55 4.05 -1.55 3.7 L-1.55 3.65 Q-1.45 3.3 -0.5 2.85 0.55 2.35 1.35 2.35 2.0 2.35 2.6 2.55 L3.2 2.8 Q3.6 1.95 4.15 1.55 4.65 1.15 5.15 1.2 5.65 1.25 5.95 1.75 6.25 2.25 6.25 3.15 L6.25 3.25 6.4 3.15 Q6.6 3.05 6.8 3.05 7.6 3.05 7.8 3.5 7.9 3.75 7.95 4.15 7.9 4.2 7.65 4.1 7.3 3.95 7.1 3.95 6.95 3.95 6.85 4.1 L6.75 4.2 6.8 4.2 Q7.8 4.5 7.8 5.0 7.8 5.6 7.6 6.1 7.4 6.35 7.2 6.55 L7.4 6.75 Q7.75 6.75 8.0 6.85 8.25 6.9 8.45 7.1 L8.45 6.8 Q8.45 6.0 9.05 5.65 9.5 5.4 10.25 5.6 11.0 5.75 11.5 6.25 12.0 6.7 12.05 7.15 12.3 6.95 12.7 6.95 L13.4 7.0 13.35 6.95 Q13.3 6.85 13.3 6.65 13.3 6.15 14.0 5.6 14.25 5.4 14.5 5.3 14.55 5.45 14.6 5.5 L14.85 5.55 15.0 5.4 Q15.1 5.25 15.3 5.25 L15.4 5.25 15.55 5.3 15.65 5.4 15.85 5.75 15.95 5.65 Q16.0 5.55 16.05 5.55 L16.7 5.85 Q16.55 5.65 16.45 5.35 L16.25 4.7 Q16.1 4.4 15.85 4.4 15.8 4.4 15.45 4.55 L15.1 4.5 Q14.6 4.5 14.55 4.95 L13.5 5.4 Q12.0 5.4 11.2 4.45 L11.15 4.35 11.2 3.95 Q11.2 3.75 10.9 3.5 10.6 3.25 10.25 3.15 9.6 2.95 9.4 3.45 8.25 3.3 7.65 2.7 7.15 2.15 6.95 1.05 6.7 -0.25 6.6 -0.45 6.4 -0.75 6.05 -0.8 L5.8 -0.55 5.7 -0.5 5.25 -0.6 Q4.5 -0.7 4.45 -0.05 L4.3 -0.05 Q4.05 -0.05 3.7 -0.4 L3.65 -0.4 3.65 -0.45 3.3 -0.45 Q2.25 -0.45 1.9 -1.0 L1.6 -1.45 Q1.4 -1.75 1.0 -1.85 L0.7 -2.15 0.2 -1.6 -0.05 -1.3 Q-0.3 -1.25 -0.5 -1.1 L-0.8 -1.3 -1.35 -1.15 -1.4 -1.15 -1.75 -1.25 -1.8 -1.25 -2.25 -1.5 -2.8 -1.45 Q-3.15 -1.45 -3.45 -1.7 L-3.45 -1.6 Q-3.45 -1.25 -3.5 -1.45 L-3.55 -1.4 -3.8 -1.65 -5.75 -0.7 Q-6.8 -0.15 -7.85 0.2 -6.7 1.0 -6.6 1.1 L-6.6 1.4 -6.85 1.45 M-5.3 -1.9 L-5.15 -2.0 -4.75 -2.0 -4.8 -1.95 Q-5.0 -1.85 -5.15 -1.85 L-5.3 -1.9 M-0.1 -2.25 Q0.05 -2.4 0.05 -2.55 L-0.05 -2.3 -0.1 -2.25 M-0.5 -1.1 L-0.35 -1.05 -0.45 -1.0 -0.5 -0.95 -0.55 -0.95 -0.65 -1.0 -0.5 -1.1 M-0.65 -1.75 L-0.65 -1.8 -0.7 -1.75 -0.65 -1.75 M1.3 -0.35 Q1.45 -0.35 1.8 -0.2 2.2 -0.05 2.35 -0.05 2.9 -0.05 3.25 0.45 3.4 0.7 3.5 1.0 3.45 1.0 3.45 1.1 L3.2 1.15 Q2.8 1.15 2.5 0.8 2.2 0.45 1.8 0.45 1.8 0.75 1.5 1.0 1.05 1.35 0.15 1.35 -0.45 1.35 -0.75 0.95 -0.95 0.7 -0.95 0.55 -0.95 -0.05 -0.4 -0.35 0.2 -0.65 0.85 0.15 0.9 -0.05 1.0 -0.2 1.1 -0.35 1.3 -0.35 M22.55 8.15 Q22.75 8.35 22.8 8.55 L22.7 8.85 Q23.3 9.15 23.35 9.15 23.7 9.15 23.7 9.05 23.7 8.95 23.85 8.65 22.4 7.55 22.05 6.7 21.95 6.55 21.75 6.55 L21.7 6.55 Q21.7 6.45 21.65 6.4 L21.45 6.3 Q21.1 6.4 20.9 6.55 L20.3 6.55 Q19.95 6.8 19.7 6.8 19.45 6.8 19.3 6.7 18.7 6.95 18.35 7.5 L18.35 7.6 Q18.8 7.2 19.45 7.05 L20.45 7.0 Q20.4 7.1 20.4 7.2 20.4 7.55 20.45 7.55 L21.35 7.6 21.35 7.5 21.5 7.55 21.75 7.65 21.7 7.7 Q21.8 8.0 21.85 8.15 22.05 8.45 22.3 8.45 22.5 8.45 22.55 8.4 L22.5 8.3 22.55 8.15 M18.15 6.15 L18.1 6.2 17.95 6.25 18.2 6.4 18.3 6.35 18.15 6.15 M17.45 7.05 Q17.8 6.95 17.95 6.8 L17.85 6.6 Q17.55 6.45 17.1 6.4 16.65 6.35 16.4 6.4 L16.35 6.5 16.3 6.7 Q16.3 6.9 16.35 6.95 L16.4 7.05 16.5 7.05 16.85 7.1 17.45 7.05 M15.0 6.75 Q14.8 6.75 14.45 6.95 L15.35 6.85 15.45 6.85 Q15.25 6.75 15.0 6.75 M20.75 8.3 L20.7 8.3 20.2 8.7 19.85 9.05 20.1 8.9 Q20.7 8.5 21.1 8.4 L20.75 8.3 M5.9 3.95 L5.45 3.65 Q5.1 3.8 4.55 3.95 L4.5 3.95 6.1 4.05 5.9 3.95 M4.15 3.15 Q4.15 3.35 4.2 3.4 L4.45 3.45 4.65 3.2 Q4.85 3.05 5.05 3.05 5.2 3.05 5.45 3.15 L5.65 3.15 Q5.55 2.0 4.85 2.2 4.55 2.3 4.35 2.6 4.15 2.85 4.15 3.15 M9.45 6.95 L9.5 7.0 9.85 7.05 Q10.05 7.05 10.1 7.0 L10.2 6.85 Q10.0 6.7 9.75 6.65 9.55 6.6 9.4 6.65 L9.45 6.8 9.45 6.95 M2.2 3.4 L0.9 3.35 Q0.5 3.4 0.5 3.75 0.5 3.95 0.55 3.95 L0.6 3.9 Q1.15 3.9 1.6 3.75 1.95 3.6 2.2 3.4 M1.9 4.45 L1.9 4.45 M2.6 5.6 L2.65 5.55 2.55 5.55 2.5 5.6 2.6 5.6 M1.1 7.55 L1.4 7.4 1.4 7.35 1.15 7.55 1.1 7.55 M10.45 8.45 L10.1 8.45 10.95 8.55 Q11.3 8.55 11.45 8.3 11.05 8.45 10.45 8.45 M-3.75 1.0 Q-3.75 0.35 -4.25 0.25 -4.45 0.2 -4.6 0.3 -4.8 0.45 -4.8 0.7 -4.8 0.9 -4.7 1.1 -4.5 1.5 -4.15 1.5 -3.95 1.5 -3.85 1.4 L-3.75 1.2 -3.75 1.0 M-1.7 7.0 Q-2.05 6.7 -2.5 6.55 -3.75 6.2 -3.95 7.7 -3.8 7.85 -2.85 8.25 L-1.85 8.25 Q-1.6 8.1 -1.45 7.85 -1.3 7.7 -1.3 7.55 -1.3 7.35 -1.7 7.0" fill="#403020" fill-rule="evenodd" stroke="none"/>
      <path d="M4.45 -0.05 Q4.5 -0.7 5.25 -0.6 L5.7 -0.5 Q6.15 -0.3 6.35 0.1 L6.35 1.05 6.05 1.1 Q5.85 1.05 5.55 0.65 5.35 0.4 4.85 0.55 L4.5 0.25 Q4.45 0.2 4.45 0.05 L4.45 -0.05 M9.4 3.45 Q9.6 2.95 10.25 3.15 10.6 3.25 10.9 3.5 11.2 3.75 11.2 3.95 L11.15 4.35 11.15 4.4 Q11.05 4.65 11.1 4.75 L11.0 4.8 Q10.7 4.45 10.7 4.1 L10.55 4.0 Q10.45 4.25 10.3 4.45 10.1 4.75 9.85 4.75 9.45 4.75 9.35 4.35 L9.3 3.95 Q9.3 3.65 9.4 3.45 M14.55 4.95 Q14.6 4.5 15.1 4.5 L15.45 4.55 Q15.8 4.65 16.1 5.2 L16.05 5.55 Q16.0 5.55 15.95 5.65 L15.85 5.75 15.65 5.4 15.55 5.3 15.4 5.25 15.3 5.25 Q15.1 5.25 15.0 5.4 L14.85 5.55 14.6 5.5 Q14.55 5.45 14.5 5.3 L14.5 5.2 14.55 4.95 M-1.55 3.65 L-1.55 3.7 -1.55 3.8 -1.65 4.3 -1.6 4.35 Q-1.65 4.4 -1.85 4.4 -2.55 4.4 -2.95 4.05 -3.3 3.8 -3.3 3.45 -3.3 3.05 -3.05 2.8 -2.8 2.6 -2.4 2.55 -2.15 2.55 -1.95 2.6 L-1.8 2.7 Q-1.5 2.9 -1.5 3.3 L-1.55 3.65 M-1.55 -0.3 Q-1.55 -0.05 -1.65 0.1 L-1.8 0.3 Q-2.75 -0.05 -3.45 -0.45 -2.9 -1.25 -2.25 -1.2 -1.55 -1.2 -1.55 -0.3 M1.0 -1.45 Q1.5 -1.25 1.7 -0.7 L1.65 -0.5 Q1.6 -0.45 1.35 -0.45 L0.8 -0.45 0.05 -1.0 0.05 -1.15 Q0.45 -1.65 1.0 -1.45 M21.7 6.55 L21.7 6.7 21.45 6.95 Q21.3 7.15 21.35 7.5 L21.35 7.6 20.45 7.55 Q20.4 7.55 20.4 7.2 20.4 7.1 20.45 7.0 20.5 6.85 20.65 6.75 20.75 6.6 20.9 6.55 21.1 6.4 21.45 6.3 L21.65 6.4 Q21.7 6.45 21.7 6.55 M21.75 7.65 L21.75 7.6 Q21.85 7.6 22.1 7.75 L22.55 8.1 22.55 8.15 22.5 8.3 22.55 8.4 Q22.5 8.45 22.3 8.45 22.05 8.45 21.85 8.15 21.8 8.0 21.7 7.7 L21.75 7.65 M6.3 1.45 Q6.3 1.2 6.35 1.2 L6.5 1.2 6.6 1.25 6.75 1.4 Q6.75 1.6 6.65 1.7 L6.4 1.7 6.35 1.65 Q6.3 1.65 6.3 1.45 M10.75 5.05 L10.8 4.95 10.9 4.95 Q10.95 5.1 11.1 5.3 11.35 5.55 11.5 5.9 11.15 5.95 10.9 5.7 10.75 5.5 10.75 5.25 L10.75 5.05 M1.2 1.9 L1.35 2.0 Q1.2 2.1 1.0 2.2 L0.5 2.3 Q-0.6 2.3 -1.7 0.75 -1.7 0.4 -1.65 0.65 L-1.55 0.65 Q-1.2 1.3 -0.85 1.65 -0.3 2.2 0.8 1.8 L1.2 1.9 M-3.05 4.15 Q-3.0 4.25 -3.0 4.45 -3.0 4.65 -3.05 4.7 L-3.2 4.75 -3.45 4.85 -3.8 4.55 -3.85 4.45 Q-3.85 4.25 -3.75 4.15 -3.55 3.9 -3.1 4.05 L-3.05 4.15 M-3.2 6.7 Q-2.85 6.5 -2.55 6.75 -2.3 6.95 -2.3 7.2 L-2.35 7.45 Q-2.45 7.65 -2.7 7.7 -2.95 7.65 -3.1 7.45 -3.25 7.3 -3.25 7.1 L-3.25 6.75 -3.2 6.7" fill="#665232" fill-rule="evenodd" stroke="none"/>
    </g>
  </defs>
</svg>
