<?xml version="1.0" encoding="UTF-8" standalone="no"?>
<svg xmlns:ffdec="https://www.free-decompiler.com/flash" xmlns:xlink="http://www.w3.org/1999/xlink" ffdec:objectType="frame" height="261.6px" width="563.7px" xmlns="http://www.w3.org/2000/svg">
  <g transform="matrix(1.0, 0.0, 0.0, 1.0, 355.85, 253.2)">
    <use ffdec:characterId="178" height="261.6" transform="matrix(1.0, 0.0, 0.0, 1.0, -355.85, -253.2)" width="563.7" xlink:href="#shape0"/>
  </g>
  <defs>
    <g id="shape0" transform="matrix(1.0, 0.0, 0.0, 1.0, 355.85, 253.2)">
      <path d="M121.25 -132.85 Q115.75 -130.5 113.5 -129.75 109.2 -128.4 104.15 -127.65 L106.65 -127.4 112.45 -128.75 Q123.2 -130.85 128.0 -130.0 125.85 -128.65 118.45 -126.25 L125.65 -125.4 133.0 -127.55 135.0 -126.5 Q141.1 -128.1 150.75 -128.1 L151.25 -126.35 150.2 -125.2 Q155.25 -126.6 162.0 -126.6 L162.45 -126.0 152.3 -125.4 Q140.5 -124.2 140.5 -122.45 140.5 -120.8 141.4 -120.8 141.8 -120.8 142.25 -121.1 146.3 -121.9 150.6 -123.0 L163.55 -125.05 164.0 -124.45 162.55 -123.2 Q165.85 -123.45 169.85 -123.1 172.25 -122.45 173.25 -121.4 170.85 -119.0 167.95 -117.6 L168.8 -117.35 Q170.3 -118.4 172.15 -119.1 176.6 -120.9 181.45 -120.25 186.75 -121.85 190.6 -121.1 190.6 -120.85 191.5 -120.15 L192.6 -118.95 192.05 -118.45 Q198.4 -118.95 205.0 -117.35 L205.4 -117.45 Q205.75 -117.25 205.75 -115.6 205.75 -113.7 196.0 -112.65 199.55 -112.3 201.85 -110.35 198.55 -107.75 191.25 -106.65 L189.3 -106.35 190.5 -104.25 188.35 -104.65 188.35 -104.15 179.85 -103.15 175.35 -102.15 Q175.65 -101.2 178.2 -101.05 175.75 -99.85 175.75 -98.1 175.75 -96.45 176.0 -96.5 L176.25 -96.95 185.6 -97.3 189.5 -98.0 188.35 -96.4 Q192.35 -97.2 195.0 -96.4 191.05 -92.9 184.95 -91.0 L183.9 -90.7 183.75 -90.5 Q189.2 -91.65 191.85 -90.05 190.4 -88.65 185.75 -86.7 L186.0 -86.7 186.2 -86.55 187.5 -86.2 Q186.6 -84.3 177.8 -79.85 L174.95 -78.4 Q178.9 -78.6 181.35 -76.6 L181.6 -75.7 Q180.9 -74.55 175.2 -72.7 L178.6 -72.5 Q173.35 -70.55 165.85 -68.65 L163.6 -65.85 170.6 -66.4 Q167.7 -63.25 159.65 -61.05 L159.35 -60.65 Q158.05 -59.0 155.4 -57.5 L156.35 -57.25 154.85 -56.35 155.5 -56.2 Q152.0 -53.7 143.45 -50.4 135.2 -47.2 132.85 -47.2 131.3 -47.2 131.0 -47.6 L131.0 -48.0 132.2 -49.6 128.55 -48.45 Q125.75 -47.4 124.1 -46.4 118.85 -43.25 102.8 -40.45 L103.1 -39.4 Q102.35 -38.15 96.7 -36.4 88.9 -34.05 86.15 -32.85 L86.25 -32.8 Q86.5 -32.65 86.5 -31.1 86.5 -28.35 82.9 -27.85 L69.5 -25.7 Q67.9 -25.3 62.65 -23.1 L57.75 -21.0 Q56.2 -21.0 55.85 -21.35 L55.25 -22.35 Q56.55 -25.7 62.45 -28.3 56.95 -27.0 54.15 -26.65 L54.25 -26.5 Q50.0 -24.1 44.95 -21.75 L37.85 -18.3 Q37.4 -18.4 36.85 -18.7 35.8 -19.15 35.5 -19.65 L38.3 -22.0 28.85 -17.4 Q18.75 -12.55 16.6 -12.55 L15.85 -13.35 Q17.95 -16.1 26.65 -19.85 35.15 -23.55 38.85 -23.55 L40.2 -23.25 42.95 -24.85 43.65 -25.25 Q34.05 -22.65 24.05 -20.4 22.55 -18.75 15.85 -15.9 9.15 -13.1 8.1 -13.1 L6.35 -13.15 -15.0 -7.8 -15.25 -7.45 Q-15.5 -7.4 -15.5 -9.05 L-15.5 -9.2 -33.0 -7.0 -33.35 -7.65 Q-33.75 -8.35 -33.75 -9.95 L-33.75 -10.25 -42.15 -9.15 -45.45 -7.65 -49.75 -5.6 Q-46.65 -6.8 -44.75 -6.35 L-44.2 -5.4 -43.5 -4.2 -47.4 -2.05 Q-50.25 -0.45 -53.1 -0.45 L-55.45 -0.85 Q-55.75 -1.0 -56.5 -1.8 -55.85 -2.6 -54.4 -3.45 L-54.95 -3.8 -56.25 -4.75 -55.6 -5.8 -58.45 -4.5 Q-62.9 -2.6 -67.5 -1.0 L-70.85 -2.05 -71.1 -1.65 Q-71.35 -1.6 -71.35 -3.25 -71.35 -5.0 -69.7 -6.45 L-70.05 -6.45 -79.75 -2.6 Q-81.3 -2.6 -81.65 -3.0 L-82.35 -3.95 -81.3 -5.65 -87.4 -5.35 Q-86.7 -4.45 -86.5 -3.4 L-89.0 -2.6 -95.65 -4.9 -103.5 -4.65 Q-100.2 -2.75 -98.25 -0.7 L-98.0 0.1 -98.2 0.45 -100.25 0.8 Q-101.55 0.8 -110.4 -1.9 L-117.95 -4.25 -122.6 -4.2 Q-116.0 -2.1 -112.3 1.25 L-107.9 1.05 Q-101.95 1.15 -98.75 3.2 L-98.75 2.95 Q-98.75 1.05 -95.75 -0.6 -92.5 -2.45 -90.5 0.1 L-94.0 2.25 -98.0 4.55 -98.35 4.75 Q-98.7 4.6 -98.75 3.2 L-102.25 3.2 Q-106.75 3.05 -112.5 3.2 L-114.35 2.8 Q-116.2 2.35 -116.35 1.85 L-116.6 1.85 Q-118.75 1.85 -127.55 -0.7 -135.95 -3.25 -141.75 -2.85 L-142.25 -4.5 Q-141.05 -5.2 -139.65 -5.55 -146.0 -7.05 -155.05 -10.0 L-160.6 -11.05 -162.0 -11.75 -161.55 -12.25 -167.25 -14.25 -169.4 -14.6 Q-172.35 -15.15 -173.5 -16.05 L-171.55 -15.9 -173.2 -16.55 -184.75 -21.0 -176.85 -21.65 Q-176.7 -21.75 -176.85 -22.3 -177.0 -22.75 -176.25 -23.05 L-176.75 -24.65 -180.1 -25.45 Q-190.7 -25.4 -194.9 -25.05 L-195.1 -25.15 -195.5 -25.0 -197.25 -24.8 -198.15 -24.5 -199.35 -24.7 -207.75 -25.45 Q-210.2 -28.1 -210.75 -29.2 L-208.55 -30.7 -211.0 -31.75 -212.4 -32.35 -216.9 -33.1 Q-223.0 -34.2 -225.35 -35.1 L-225.35 -36.45 -220.0 -35.95 -222.6 -37.25 -232.65 -38.8 -248.5 -40.25 -248.75 -40.35 Q-249.0 -40.5 -249.0 -42.1 -249.0 -46.4 -235.85 -44.05 L-235.25 -43.95 -245.6 -49.4 -247.65 -50.5 Q-260.95 -54.4 -271.0 -55.9 L-268.3 -56.25 -269.35 -56.45 Q-277.85 -58.2 -278.6 -59.05 -276.85 -61.2 -273.95 -62.0 -276.95 -62.8 -278.85 -62.8 -279.8 -62.8 -282.15 -64.1 L-287.9 -64.95 Q-295.55 -66.35 -298.6 -68.55 -297.2 -69.65 -295.0 -70.05 L-296.1 -70.4 -311.6 -75.15 -312.1 -75.95 Q-308.7 -77.75 -296.9 -74.3 L-299.05 -75.9 -303.85 -77.1 -335.25 -84.3 Q-323.8 -87.8 -313.1 -85.65 L-315.4 -86.95 -318.65 -87.8 Q-322.85 -89.0 -323.35 -89.5 -323.15 -90.95 -322.1 -91.7 L-325.2 -94.3 -326.75 -95.7 -323.25 -95.45 -323.2 -95.45 Q-319.8 -94.05 -314.65 -92.5 L-303.5 -89.55 Q-305.75 -91.0 -316.3 -95.0 -327.05 -99.05 -329.1 -99.05 L-329.1 -98.8 Q-328.25 -97.95 -326.65 -97.05 L-330.4 -97.3 -330.35 -97.1 -336.5 -97.75 -336.85 -97.3 Q-337.25 -97.25 -337.25 -98.9 -337.25 -100.6 -336.5 -100.75 L-335.75 -100.8 -331.45 -100.7 -332.05 -101.5 -326.65 -100.85 -323.1 -100.55 -320.8 -100.9 -320.35 -101.35 Q-322.15 -102.4 -328.85 -103.05 L-336.0 -103.75 Q-342.05 -104.95 -345.5 -106.35 L-345.0 -106.7 -339.7 -106.55 -329.6 -106.35 -324.85 -107.05 Q-321.9 -107.8 -320.85 -108.75 L-321.1 -109.55 Q-324.65 -111.65 -336.9 -111.85 L-341.3 -111.8 Q-340.95 -115.7 -331.15 -113.95 L-330.25 -114.25 Q-338.85 -115.95 -340.25 -116.8 -338.9 -118.45 -334.75 -118.65 L-334.35 -118.55 Q-332.15 -117.9 -330.6 -117.9 L-316.7 -116.7 -312.1 -116.0 Q-309.5 -116.0 -308.85 -118.15 -318.6 -123.9 -323.0 -124.4 L-326.75 -124.2 -326.75 -125.55 Q-324.75 -125.95 -315.35 -123.15 L-313.55 -123.9 -316.75 -125.0 Q-314.4 -127.2 -309.85 -127.15 L-305.7 -125.9 Q-299.05 -124.15 -291.75 -124.15 -290.2 -124.15 -289.3 -124.75 L-288.75 -125.4 Q-289.0 -125.8 -290.45 -126.35 L-291.75 -127.05 -304.35 -128.0 -305.7 -128.5 -307.8 -129.05 Q-316.1 -131.5 -318.75 -132.65 -313.1 -132.95 -308.15 -132.6 -301.35 -132.15 -298.5 -130.45 L-299.35 -130.5 Q-299.35 -129.95 -296.5 -129.6 L-293.25 -129.7 -298.0 -130.45 -297.75 -130.8 -298.35 -130.8 -298.6 -131.3 Q-298.8 -131.55 -298.8 -132.5 L-301.25 -133.35 Q-308.35 -136.05 -310.6 -137.6 L-310.6 -137.9 Q-307.85 -137.9 -302.5 -136.35 -300.0 -135.65 -298.05 -134.75 -296.55 -136.1 -292.1 -136.9 -285.85 -137.95 -277.7 -137.25 L-282.0 -138.75 Q-279.0 -141.15 -270.3 -139.4 -262.9 -137.95 -259.5 -135.85 L-260.55 -134.9 Q-261.4 -134.2 -262.7 -134.1 L-261.3 -133.55 Q-256.0 -131.3 -253.9 -128.15 L-244.5 -125.95 -243.45 -125.65 Q-232.8 -126.25 -229.65 -125.4 -227.55 -124.1 -224.75 -123.6 -225.6 -123.2 -225.75 -123.15 L-228.25 -122.85 -235.35 -123.6 Q-230.45 -122.45 -228.75 -122.45 -161.6 -127.85 -153.5 -129.45 L-57.25 -129.45 -29.1 -128.35 3.5 -128.35 7.1 -129.2 32.5 -129.45 34.4 -129.85 Q35.75 -130.1 35.75 -130.25 L66.5 -130.25 91.2 -128.7 95.75 -129.25 Q95.75 -129.0 96.65 -128.5 L97.15 -128.25 97.95 -128.15 97.75 -129.25 Q100.85 -131.8 109.75 -133.75 119.05 -135.8 121.0 -133.6 L121.25 -132.85 M83.75 -105.55 Q83.7 -103.95 81.1 -102.65 81.75 -102.2 82.95 -101.75 L84.0 -101.4 Q90.35 -104.55 92.45 -104.15 L93.2 -103.8 93.85 -104.4 Q84.55 -106.1 83.75 -105.55 M118.25 -116.55 L120.75 -116.0 127.5 -117.55 Q131.2 -118.4 131.5 -118.7 131.25 -119.5 127.85 -119.75 124.65 -119.35 121.85 -118.2 L118.25 -116.55 M98.0 -109.9 Q98.0 -108.35 98.65 -108.55 L99.25 -109.05 103.0 -110.05 Q105.85 -110.9 107.75 -112.4 103.95 -114.0 100.75 -112.65 98.0 -111.5 98.0 -109.9 M110.5 -104.65 Q108.2 -104.45 105.75 -102.15 105.9 -101.7 108.75 -101.5 L111.6 -101.4 114.85 -104.15 110.5 -104.65 M152.0 -133.6 Q152.0 -134.05 152.75 -134.8 L153.5 -135.6 162.75 -135.6 163.6 -135.25 Q164.55 -134.8 165.0 -134.35 164.6 -133.15 162.75 -132.5 L157.65 -132.75 Q152.45 -133.15 152.0 -133.6 M127.0 -131.25 L125.55 -131.75 Q125.1 -132.1 125.1 -133.75 125.1 -136.9 130.4 -138.05 136.25 -139.35 145.35 -137.25 143.2 -135.85 135.7 -133.65 130.65 -132.1 127.0 -131.25 M159.1 -117.6 Q158.85 -118.45 156.6 -118.95 153.2 -119.3 151.7 -118.05 150.5 -116.45 149.75 -116.0 151.55 -115.2 159.1 -117.6 M149.5 -106.4 L149.0 -106.3 Q144.25 -105.2 141.15 -103.55 137.0 -101.35 137.0 -98.65 137.0 -97.1 137.65 -97.3 L138.25 -97.8 Q140.15 -99.0 146.3 -101.5 150.0 -103.0 150.0 -104.65 150.0 -106.2 149.5 -106.4 M60.95 -79.8 L61.55 -79.5 61.85 -79.4 Q58.75 -78.5 56.3 -77.35 L54.5 -80.25 55.35 -80.45 55.0 -80.1 Q55.4 -79.45 55.9 -79.25 L58.25 -79.05 60.95 -79.8 M68.5 -107.05 Q74.3 -106.6 78.25 -110.55 L72.3 -110.0 Q68.2 -109.2 66.75 -108.3 66.9 -107.85 67.7 -107.4 L68.5 -107.05 M43.75 -107.25 Q44.05 -106.8 45.05 -106.45 L46.0 -106.25 Q47.2 -106.9 50.8 -107.85 54.05 -108.7 55.5 -109.75 53.4 -111.85 48.9 -110.2 45.4 -108.9 43.75 -107.25 M49.6 -106.0 Q49.45 -106.5 49.4 -105.45 48.3 -104.85 47.35 -104.15 48.05 -103.75 49.4 -103.6 49.4 -102.7 49.6 -102.75 L49.85 -103.1 50.05 -102.85 52.1 -102.6 Q53.8 -102.6 54.7 -103.05 L55.75 -104.1 55.7 -104.25 57.85 -104.75 Q65.15 -106.5 67.0 -107.8 61.85 -109.3 56.15 -108.05 52.95 -107.35 50.35 -106.0 L49.6 -106.0 M4.45 -99.2 L6.95 -99.5 7.05 -98.95 4.45 -99.2 M7.05 -106.6 Q6.35 -107.3 6.35 -107.75 -1.65 -107.8 -7.5 -105.15 L-10.35 -103.6 Q-12.55 -103.65 -19.4 -102.0 L-25.0 -100.4 Q-33.55 -103.1 -39.45 -102.95 -46.0 -102.75 -46.0 -99.25 -46.0 -97.75 -45.6 -97.5 L-45.25 -97.25 -37.15 -97.2 -29.6 -97.0 Q-27.6 -97.0 -25.15 -97.8 -23.95 -98.15 -23.25 -98.55 L-16.1 -101.0 -11.35 -102.85 Q-12.5 -101.85 -12.5 -100.85 L-12.35 -99.55 -13.1 -99.35 Q-16.45 -99.05 -20.6 -98.0 -28.1 -96.1 -29.5 -93.75 L-40.4 -95.45 Q-52.3 -97.45 -65.0 -97.45 -75.5 -97.45 -80.25 -95.15 L-91.45 -97.35 Q-103.25 -99.1 -115.55 -99.2 L-114.6 -100.25 -115.35 -101.85 Q-122.75 -102.8 -132.0 -106.1 -140.25 -109.0 -142.25 -109.0 L-142.25 -106.75 -133.7 -101.85 -133.4 -101.7 -138.0 -101.6 Q-136.95 -100.1 -133.9 -98.45 L-139.25 -97.8 Q-143.25 -101.1 -147.65 -103.5 -160.3 -110.45 -166.35 -104.6 L-166.1 -103.35 -162.75 -102.25 Q-168.15 -102.8 -170.95 -101.35 L-178.2 -103.8 Q-194.3 -108.45 -203.35 -105.0 -198.6 -102.2 -193.75 -99.95 L-201.1 -99.9 -204.55 -101.35 Q-213.15 -104.25 -230.75 -101.35 L-211.8 -98.4 -214.6 -97.4 -215.85 -96.75 Q-207.5 -95.95 -205.0 -94.0 -204.95 -93.0 -205.05 -92.5 -205.2 -91.65 -206.75 -91.65 L-219.5 -92.7 Q-232.3 -93.8 -233.6 -94.5 -232.25 -95.75 -229.6 -96.4 -239.4 -97.65 -246.1 -95.6 -242.7 -96.55 -228.5 -91.6 L-224.4 -90.2 Q-229.8 -89.85 -232.5 -85.75 L-232.25 -84.55 -230.25 -83.45 -231.05 -83.4 -233.6 -81.35 -230.05 -79.65 Q-227.75 -78.5 -225.75 -78.5 -223.05 -78.5 -221.85 -79.65 L-216.3 -77.4 Q-215.35 -75.5 -214.0 -73.55 -222.65 -75.4 -224.4 -72.3 L-223.1 -72.2 -201.7 -72.35 -196.25 -71.95 Q-197.85 -71.4 -197.1 -70.8 -196.3 -70.25 -196.6 -70.1 L-223.1 -68.8 -224.25 -69.05 -206.0 -64.1 -205.15 -63.3 -204.8 -62.95 -205.8 -62.55 Q-211.4 -65.35 -219.85 -66.55 -232.5 -68.4 -232.5 -62.9 -232.5 -61.3 -232.1 -60.8 L-231.75 -60.4 -216.15 -58.9 -207.95 -57.8 Q-201.35 -59.45 -194.25 -57.55 -186.8 -55.45 -184.75 -52.05 L-185.15 -50.65 Q-185.65 -49.9 -187.25 -49.9 -187.85 -49.9 -198.75 -53.15 L-203.65 -54.55 Q-206.2 -53.95 -208.5 -52.85 L-207.7 -51.7 -207.25 -50.7 Q-204.05 -50.5 -188.4 -46.1 L-190.1 -44.65 Q-189.75 -44.2 -187.75 -43.55 -185.3 -45.1 -183.35 -45.4 -180.3 -45.3 -178.0 -45.45 L-178.0 -45.7 Q-175.75 -45.45 -175.5 -44.9 L-182.55 -43.35 -185.05 -42.9 -180.2 -41.95 -170.35 -40.5 -170.0 -40.5 -169.9 -40.45 Q-165.2 -38.2 -160.35 -36.1 -164.0 -35.3 -164.0 -33.25 -164.0 -31.65 -163.6 -31.15 L-163.25 -30.65 -156.25 -30.2 -149.35 -29.85 -144.85 -30.2 Q-135.45 -26.9 -125.55 -24.35 -116.1 -21.95 -107.5 -20.45 -106.35 -19.35 -103.35 -19.35 L-102.1 -19.65 -101.4 -19.55 -103.6 -17.4 -103.9 -16.95 Q-103.9 -16.6 -102.35 -16.6 -94.2 -17.15 -89.65 -18.4 L-83.85 -18.3 -83.25 -18.3 -80.7 -16.65 Q-75.45 -13.35 -74.6 -13.35 -73.0 -13.35 -72.4 -14.1 L-71.85 -15.5 Q-72.55 -17.0 -73.9 -18.4 L-64.35 -18.85 Q-65.75 -17.75 -65.75 -16.7 -65.75 -15.0 -65.5 -15.05 L-65.25 -15.5 Q-59.0 -16.95 -54.65 -18.3 L-49.85 -19.9 Q-17.7 -23.2 9.95 -32.7 L10.6 -32.1 11.25 -31.75 Q18.1 -31.7 25.9 -34.35 30.0 -35.8 35.9 -38.2 L36.15 -37.85 36.5 -38.1 38.85 -37.25 Q42.8 -38.0 48.0 -40.85 52.85 -43.55 53.5 -44.9 53.25 -45.7 52.1 -46.7 L46.25 -45.8 48.15 -46.35 Q61.4 -49.95 64.75 -53.25 62.6 -55.55 58.75 -56.1 L45.0 -54.85 44.5 -55.4 Q47.1 -56.3 49.1 -57.9 51.05 -59.45 52.25 -59.85 L66.6 -59.3 Q77.05 -60.2 77.5 -62.45 L79.75 -62.25 Q81.2 -62.25 87.7 -64.05 94.05 -65.8 96.75 -66.95 L96.5 -67.75 Q92.8 -69.95 84.75 -67.4 79.4 -65.7 77.25 -64.2 76.5 -66.3 73.7 -67.3 L75.1 -67.25 76.4 -67.35 76.75 -67.2 81.0 -68.45 Q84.45 -69.55 87.0 -71.65 L86.25 -73.3 85.7 -73.4 84.35 -74.1 74.25 -73.8 71.6 -73.3 70.55 -73.35 68.3 -72.75 68.15 -72.7 67.05 -72.9 68.5 -73.25 69.2 -73.4 64.75 -73.55 64.4 -73.1 Q64.0 -73.05 64.0 -74.75 64.0 -76.4 64.25 -76.65 L64.5 -76.6 73.4 -77.2 Q76.2 -77.2 79.0 -76.35 L77.95 -75.5 Q83.4 -77.05 85.0 -78.25 L84.1 -79.85 Q82.35 -81.6 78.45 -81.9 L79.9 -82.4 84.1 -82.6 Q97.9 -82.95 104.6 -88.45 92.75 -93.15 76.5 -89.6 70.6 -88.35 66.55 -86.35 L61.15 -85.95 56.85 -85.3 51.2 -83.25 Q45.15 -81.1 44.0 -81.1 L41.5 -81.3 40.35 -82.15 Q45.0 -86.15 47.85 -87.25 51.2 -88.55 54.85 -87.3 L58.2 -88.8 70.15 -90.45 Q83.45 -92.6 87.0 -94.8 86.7 -95.25 85.2 -95.95 L82.85 -96.95 Q64.75 -96.15 58.3 -93.15 L55.1 -92.8 64.1 -95.1 Q75.35 -98.2 76.5 -99.75 73.3 -101.1 63.45 -99.2 52.85 -97.05 49.6 -93.15 49.45 -92.9 49.6 -92.7 49.95 -92.2 51.45 -92.2 47.35 -91.4 44.4 -90.25 L42.6 -89.45 40.35 -90.6 39.2 -91.15 Q47.5 -93.4 48.85 -95.6 L48.35 -97.2 Q45.2 -97.45 41.9 -97.2 46.25 -99.15 47.25 -100.55 43.1 -103.75 30.15 -99.95 24.65 -98.35 21.5 -96.75 L11.3 -98.5 Q14.25 -99.8 21.05 -101.9 32.15 -105.35 33.25 -106.25 L33.0 -107.0 32.8 -107.1 33.75 -107.3 Q39.7 -108.85 42.25 -110.75 39.2 -111.65 32.2 -109.75 28.0 -108.65 26.35 -107.6 22.8 -107.3 17.85 -106.05 12.05 -104.55 9.3 -103.1 3.65 -101.6 0.8 -99.45 L-5.4 -99.7 Q5.9 -103.75 8.1 -105.5 L7.05 -106.6 M40.85 -49.9 L37.0 -50.1 Q33.15 -50.5 33.0 -51.0 L43.25 -52.05 43.0 -51.25 40.85 -49.9 M30.8 -90.9 L26.85 -90.05 26.45 -89.7 Q26.0 -89.6 26.0 -91.3 26.0 -93.75 30.2 -94.85 L41.1 -95.3 Q43.75 -95.3 37.85 -91.95 L30.8 -90.9 M34.8 -42.65 L38.7 -43.8 Q37.45 -43.2 36.75 -42.3 L42.25 -41.3 42.5 -40.5 Q39.3 -38.65 29.8 -37.75 L20.75 -37.25 20.35 -37.75 19.6 -38.9 Q22.15 -39.65 23.7 -41.0 L25.95 -42.75 Q27.9 -43.65 34.8 -42.65 M24.75 -8.3 Q24.0 -8.3 24.0 -9.95 24.0 -13.2 31.3 -15.75 38.45 -18.3 42.25 -16.85 40.65 -15.5 33.5 -12.15 27.4 -9.3 25.5 -8.6 25.15 -8.3 24.75 -8.3 M21.9 -1.65 Q15.4 1.05 14.25 1.05 L13.55 0.65 12.25 -0.45 Q14.0 -3.2 20.45 -6.15 27.75 -9.55 30.1 -6.35 29.05 -4.65 21.9 -1.65 M76.05 -48.95 L76.3 -48.85 Q72.65 -48.85 69.3 -47.65 64.0 -45.8 64.0 -43.0 64.0 -41.35 64.75 -41.35 65.15 -41.35 65.5 -41.7 L73.8 -44.25 Q80.2 -46.4 81.35 -48.3 L78.65 -48.7 84.0 -51.85 90.2 -56.15 91.0 -55.9 97.75 -57.0 Q98.4 -57.8 98.7 -58.75 99.1 -59.85 98.75 -60.4 92.4 -60.75 90.85 -59.45 L89.9 -58.35 Q89.35 -57.75 88.25 -57.55 L88.3 -57.45 Q85.35 -57.5 81.15 -55.8 75.5 -53.6 75.5 -51.25 75.5 -49.45 76.05 -48.95 M80.8 -36.2 L80.3 -36.1 80.45 -36.0 80.8 -36.2 M55.0 -10.75 L54.75 -10.45 Q54.5 -10.45 54.5 -12.1 54.5 -13.85 61.5 -16.0 68.7 -18.2 71.1 -16.3 70.4 -15.2 63.95 -12.6 58.0 -10.25 57.25 -10.25 L55.2 -10.5 55.0 -10.75 M79.25 -11.05 Q79.25 -13.7 86.6 -15.75 93.8 -17.75 96.75 -16.3 95.35 -15.4 91.4 -13.9 L80.85 -9.7 Q80.45 -9.4 80.05 -9.4 79.25 -9.4 79.25 -11.05 M142.45 -75.55 Q146.1 -76.4 146.85 -77.05 L140.4 -76.5 131.5 -74.8 Q131.5 -74.35 133.3 -73.8 L135.1 -73.4 142.45 -75.55 M160.95 -80.3 L161.75 -81.1 172.5 -83.5 Q172.25 -84.3 168.85 -84.55 L163.9 -83.15 Q160.1 -82.05 160.1 -81.6 160.1 -79.95 160.95 -80.3 M133.1 -77.3 Q130.15 -78.5 125.65 -77.95 121.55 -77.5 121.0 -76.55 L121.25 -75.8 122.45 -74.9 124.85 -74.55 129.0 -75.6 Q132.3 -76.65 133.1 -77.3 M122.85 -95.8 L122.1 -97.3 Q120.4 -98.0 114.2 -95.75 107.75 -93.45 107.75 -91.55 107.75 -90.0 108.0 -90.0 L108.25 -90.3 108.2 -90.05 110.0 -89.8 114.9 -91.2 Q120.3 -93.15 122.85 -95.8 M155.25 -71.15 Q146.7 -69.3 144.75 -65.85 L157.0 -67.65 Q169.25 -69.8 172.5 -71.4 164.1 -72.95 155.25 -71.15 M122.3 -54.85 Q126.25 -56.45 129.25 -58.9 129.0 -59.65 127.25 -60.4 121.5 -60.2 117.7 -58.45 114.1 -56.8 114.1 -54.65 114.1 -53.1 114.5 -53.15 L114.85 -53.55 Q118.0 -53.2 122.3 -54.85 M127.35 -51.25 L139.5 -52.05 Q150.65 -53.4 154.0 -57.0 148.7 -58.25 139.2 -56.45 129.65 -54.75 127.1 -52.05 L127.35 -51.25 M114.35 -63.8 L113.85 -65.3 Q109.2 -65.65 108.45 -65.3 L106.0 -62.4 106.6 -61.5 Q106.95 -61.15 108.5 -61.15 112.4 -61.15 113.3 -62.2 L114.35 -63.8 M106.65 -75.15 Q108.4 -75.85 111.35 -78.3 L100.65 -79.5 Q91.75 -79.65 88.25 -75.8 88.6 -75.25 91.45 -74.65 L96.1 -74.05 Q103.9 -74.05 106.65 -75.15 M120.0 -87.8 Q118.65 -88.3 114.65 -87.1 110.4 -85.9 108.75 -84.3 L109.6 -83.4 111.6 -83.15 Q116.15 -83.15 118.25 -84.25 L120.5 -86.3 120.0 -87.8 M110.75 -26.8 Q110.55 -26.15 108.9 -25.55 L105.35 -24.9 Q101.85 -24.9 101.0 -26.25 L101.0 -27.6 105.15 -27.8 Q108.6 -27.65 110.75 -26.8 M116.1 -41.7 Q111.25 -38.2 108.9 -36.95 105.1 -34.95 99.75 -35.1 101.9 -37.45 106.65 -39.95 113.0 -43.35 116.1 -41.7 M110.75 -46.95 L102.3 -44.9 Q100.05 -44.25 98.5 -43.3 L98.75 -42.5 104.3 -43.1 Q109.05 -44.1 110.75 -46.95 M145.35 -35.4 L139.7 -33.1 134.0 -30.95 Q133.55 -30.6 133.15 -30.6 132.25 -30.6 132.25 -32.25 132.25 -33.65 137.55 -35.1 142.5 -36.4 144.75 -36.2 L145.35 -35.4 M156.85 -46.7 Q154.25 -41.2 147.75 -40.85 L139.25 -40.5 137.05 -41.1 Q135.5 -41.65 135.35 -42.2 140.3 -44.6 141.85 -45.05 147.2 -46.8 155.75 -47.2 L155.9 -47.05 Q156.15 -46.85 156.85 -46.7 M166.9 -139.65 Q165.0 -137.75 162.75 -137.75 158.1 -137.75 157.1 -138.75 160.65 -141.6 163.0 -141.95 165.0 -142.25 167.6 -140.75 167.8 -140.55 166.9 -139.65 M175.5 -116.65 Q179.95 -117.6 181.35 -119.25 L172.65 -118.0 Q168.75 -117.15 168.35 -116.55 L170.85 -116.0 175.5 -116.65 M180.25 -114.4 L174.15 -114.0 Q173.75 -113.25 172.0 -112.15 172.3 -111.6 173.2 -111.15 173.65 -110.9 174.0 -110.8 L178.8 -111.9 Q182.95 -112.7 183.25 -113.15 182.75 -113.9 180.25 -114.4 M184.5 -110.7 L186.75 -111.45 184.05 -110.95 184.5 -110.7 M186.55 -103.1 L186.55 -103.15 Q187.95 -104.4 190.6 -103.95 L190.85 -103.15 186.55 -103.1 M195.8 -101.8 Q194.05 -102.75 191.9 -103.05 195.75 -103.7 197.25 -102.95 196.7 -102.35 195.8 -101.8 M206.5 -78.75 L203.0 -76.2 200.6 -74.9 198.45 -75.1 197.25 -75.7 197.0 -75.4 Q196.75 -75.4 196.75 -77.05 196.75 -78.7 200.2 -79.7 203.4 -80.6 205.0 -80.1 L205.2 -79.75 Q205.55 -79.25 206.5 -78.75 M189.85 -93.45 Q189.6 -94.25 186.25 -94.8 L178.65 -94.75 Q174.5 -94.05 170.35 -90.05 172.25 -90.05 189.85 -93.45 M171.5 -60.2 Q174.05 -62.25 177.1 -63.3 182.85 -65.1 187.75 -62.0 186.6 -60.85 181.4 -59.6 176.9 -58.5 175.5 -58.5 L173.15 -58.55 Q172.7 -58.6 171.75 -59.05 L171.5 -60.2 M-218.6 -123.95 L-221.1 -123.6 Q-223.1 -123.6 -231.6 -126.3 -239.9 -128.95 -243.1 -130.5 L-242.25 -131.1 -246.75 -130.5 -254.85 -130.75 -255.7 -131.3 Q-256.6 -131.8 -256.75 -132.25 -255.3 -132.9 -251.6 -133.35 L-239.0 -134.35 Q-236.25 -133.6 -236.0 -132.85 -236.15 -132.65 -236.9 -132.4 -233.65 -132.45 -229.15 -131.35 -219.3 -128.95 -217.75 -124.85 -217.95 -124.2 -218.6 -123.95 M-175.85 -110.75 Q-175.5 -110.6 -175.35 -109.65 -175.0 -107.75 -167.25 -107.75 L-165.3 -108.0 -165.25 -108.25 Q-165.6 -109.0 -167.6 -109.5 -169.2 -110.2 -172.55 -110.65 L-177.15 -110.9 -175.85 -110.75 M-200.85 -109.35 L-197.1 -109.0 -194.5 -109.1 -193.25 -109.25 -193.5 -110.0 Q-195.45 -111.35 -198.8 -111.3 -201.75 -111.2 -203.5 -110.25 -202.75 -109.7 -200.85 -109.35 M-186.85 -113.35 Q-187.1 -113.85 -189.35 -114.1 L-189.6 -113.8 -189.85 -113.35 -187.4 -113.25 -186.85 -113.35 M-235.25 -103.95 L-234.85 -104.75 Q-240.15 -108.05 -243.75 -107.85 L-254.0 -106.9 -254.0 -105.55 Q-252.55 -104.55 -245.85 -103.8 L-237.5 -103.2 Q-235.95 -103.2 -235.25 -103.95 M-226.75 -113.35 Q-237.05 -114.35 -240.0 -110.65 -238.5 -109.85 -217.0 -105.8 -215.4 -105.8 -215.1 -106.55 -214.9 -107.0 -214.85 -107.95 -216.45 -112.3 -226.75 -113.35 M-293.25 -143.85 Q-287.15 -149.95 -275.9 -149.15 -266.15 -148.45 -260.5 -144.1 L-276.4 -143.25 -290.75 -142.75 -292.65 -143.0 -293.25 -143.85 M-320.0 -108.55 Q-318.5 -107.55 -316.35 -106.85 -314.05 -106.05 -312.25 -106.05 L-311.9 -106.05 -310.9 -105.15 -310.0 -104.65 -306.1 -103.7 -302.1 -103.15 -297.95 -103.6 Q-295.7 -104.1 -295.35 -104.65 L-295.6 -105.4 Q-296.35 -106.3 -299.0 -106.8 -306.65 -108.05 -308.85 -107.6 L-310.8 -106.9 -311.0 -107.55 Q-316.6 -109.0 -320.0 -108.55 M-309.25 -114.4 L-310.05 -113.85 -311.0 -112.9 -306.6 -112.05 -303.0 -111.8 Q-302.15 -112.2 -301.75 -113.4 -302.5 -114.15 -309.25 -114.4 M-289.75 -111.95 Q-289.9 -111.85 -290.1 -111.8 L-289.8 -111.75 -289.75 -111.95 M-286.4 -103.35 Q-288.2 -103.05 -288.6 -102.4 -287.75 -101.05 -284.5 -101.05 -282.85 -101.05 -282.25 -101.45 L-281.5 -102.4 -282.0 -103.2 -286.4 -103.35 M-262.25 -127.75 L-260.1 -128.05 -259.5 -128.75 -263.15 -131.8 -265.85 -133.65 Q-268.45 -134.65 -273.6 -131.0 -273.2 -129.8 -272.0 -128.75 L-265.0 -128.05 -262.25 -127.75 M-247.1 -86.7 Q-247.5 -88.0 -249.75 -89.0 L-260.15 -88.7 Q-261.75 -88.6 -261.75 -87.0 L-261.6 -84.8 -261.5 -84.55 -250.3 -85.55 Q-248.2 -85.9 -247.1 -86.7 M-252.5 -100.55 Q-256.1 -101.9 -260.25 -102.1 -264.85 -102.3 -266.6 -100.8 -265.0 -99.1 -261.25 -97.8 -257.95 -96.65 -255.85 -96.65 -253.35 -96.65 -252.0 -98.8 L-252.5 -100.55 M-247.1 -114.35 Q-245.3 -114.95 -245.1 -115.6 -249.15 -121.0 -256.45 -121.75 L-261.45 -121.3 Q-263.5 -120.4 -263.5 -118.7 -263.5 -115.85 -261.0 -114.85 -258.3 -113.7 -250.75 -113.7 -248.95 -113.7 -247.1 -114.35 M-270.75 -73.8 Q-270.75 -67.6 -264.65 -68.85 -259.85 -69.85 -253.6 -74.55 L-270.75 -73.8 M-270.7 -52.45 Q-275.45 -52.05 -286.5 -52.05 L-284.55 -51.45 Q-283.15 -50.9 -283.0 -50.45 -283.85 -49.55 -301.6 -48.55 L-301.9 -48.15 Q-302.25 -48.1 -302.25 -49.75 -302.25 -51.8 -297.7 -52.05 L-287.35 -52.05 -288.95 -53.05 -290.35 -54.3 Q-289.25 -54.65 -285.35 -54.3 L-268.1 -52.85 -270.7 -52.45 M-300.5 -80.3 L-296.85 -79.8 Q-295.0 -79.8 -292.85 -80.45 -290.7 -81.1 -290.5 -81.65 -293.85 -83.25 -302.55 -83.7 L-312.5 -83.4 Q-312.35 -82.9 -311.2 -82.25 L-309.0 -81.15 -300.5 -80.3 M-292.75 -92.4 Q-291.25 -92.4 -291.3 -92.85 L-291.5 -93.9 -297.55 -94.7 -299.25 -94.65 -299.25 -93.4 Q-298.6 -92.4 -292.75 -92.4 M-267.85 -62.0 Q-266.2 -60.6 -265.05 -60.2 L-258.6 -58.75 Q-257.65 -58.95 -257.3 -59.4 L-257.1 -59.85 Q-265.45 -63.55 -267.85 -62.0 M-317.1 -70.45 L-318.0 -71.4 -317.05 -72.4 -316.25 -73.0 Q-304.7 -73.4 -302.55 -72.05 L-301.55 -70.95 Q-301.0 -70.45 -299.35 -70.35 -300.85 -69.5 -303.1 -69.5 L-317.0 -70.05 -317.1 -70.45 M-299.35 -72.2 L-299.35 -71.4 -289.8 -71.1 -281.0 -71.4 -299.35 -72.2 M-260.35 -45.55 Q-261.8 -44.9 -263.5 -44.9 L-267.45 -45.45 Q-269.6 -46.0 -270.25 -46.7 L-270.25 -49.1 -259.75 -49.65 Q-259.75 -49.0 -258.6 -46.7 -259.2 -46.05 -260.35 -45.55 M-181.35 -83.5 L-182.3 -82.25 Q-183.1 -81.6 -184.75 -81.6 -191.5 -81.6 -196.5 -83.25 L-197.0 -84.05 Q-191.25 -86.65 -189.35 -86.95 -186.35 -87.3 -181.85 -85.1 L-181.35 -83.5 M-221.2 -82.25 Q-223.05 -82.65 -223.6 -83.25 L-223.6 -84.85 -219.2 -85.25 Q-215.75 -85.2 -213.1 -84.3 -213.1 -83.6 -214.35 -82.8 -215.8 -81.9 -217.5 -81.9 L-221.2 -82.25 M-219.0 -48.8 Q-219.0 -46.4 -218.5 -47.95 -218.3 -48.6 -219.0 -48.8 M-223.7 -52.15 L-232.6 -53.05 -232.85 -50.15 -232.1 -49.4 -223.55 -50.25 Q-219.0 -50.5 -219.0 -48.9 L-216.65 -49.0 Q-215.35 -49.15 -215.0 -49.65 -216.8 -51.05 -223.7 -52.15 M-224.75 -69.05 L-224.6 -68.75 -224.35 -69.05 -224.75 -69.05 M-240.0 -78.25 Q-240.0 -77.25 -239.6 -76.3 L-239.25 -75.15 -229.6 -74.65 Q-227.95 -74.65 -227.45 -75.15 L-227.0 -76.35 Q-229.7 -77.4 -234.45 -78.0 L-240.0 -78.25 M-205.45 -35.8 Q-212.35 -38.15 -216.0 -36.45 -214.5 -34.5 -206.5 -31.8 -199.55 -29.5 -198.5 -29.5 -196.95 -29.5 -196.8 -30.2 -196.75 -30.55 -197.0 -30.95 -199.1 -33.65 -205.45 -35.8 M-225.35 -27.6 L-224.55 -27.0 -223.6 -26.25 Q-225.1 -25.45 -227.75 -25.45 L-231.25 -25.8 Q-232.85 -26.2 -233.1 -26.8 -231.8 -27.6 -225.35 -27.6 M-211.35 -17.7 Q-215.3 -18.85 -215.75 -19.35 -212.3 -24.1 -203.4 -22.15 L-192.85 -18.55 -199.15 -17.2 -204.75 -16.6 Q-207.15 -16.6 -211.35 -17.7 M-174.75 -37.55 Q-175.0 -38.4 -178.0 -39.7 L-188.15 -40.25 Q-189.3 -39.9 -189.85 -38.1 -184.65 -35.4 -181.1 -35.4 L-176.3 -35.55 Q-173.45 -36.0 -174.75 -37.55 M-191.85 -17.1 L-183.05 -16.55 -171.1 -14.7 Q-169.1 -13.9 -168.6 -13.1 L-177.75 -14.55 -191.85 -16.3 -191.85 -17.1 M-175.85 -8.75 L-176.75 -9.7 Q-174.2 -12.4 -168.0 -12.1 -162.0 -11.85 -158.35 -9.15 L-157.6 -6.75 -157.85 -6.25 Q-158.45 -5.85 -160.0 -5.85 L-165.6 -6.8 -175.75 -8.35 -175.85 -8.75 M-127.5 -30.8 L-120.25 -29.5 -128.85 -29.9 Q-133.7 -30.05 -136.1 -30.95 -133.85 -31.6 -127.5 -30.8 M-156.7 -33.7 Q-159.6 -34.2 -160.1 -34.85 L-160.1 -36.45 -151.3 -37.1 Q-148.55 -37.15 -143.75 -35.1 L-147.1 -34.15 -152.0 -33.35 -156.7 -33.7 M-152.95 -27.4 L-158.6 -27.35 -160.2 -26.3 Q-161.1 -25.5 -161.1 -24.9 L-160.35 -24.1 -152.6 -22.85 -144.25 -22.05 Q-142.55 -22.05 -140.15 -22.85 -138.05 -23.6 -137.6 -24.1 -137.85 -24.9 -139.85 -25.7 -141.25 -26.25 -147.35 -27.6 L-152.95 -27.4 M-135.7 -1.8 Q-131.35 -0.95 -129.75 0.5 L-129.5 1.3 Q-131.85 3.2 -135.1 3.2 -138.8 3.2 -142.35 1.0 -145.35 -0.9 -145.5 -2.05 L-140.5 -2.35 -135.7 -1.8 M-127.6 -21.25 Q-127.2 -19.6 -124.55 -17.3 -121.25 -14.45 -117.75 -14.45 -115.15 -14.45 -113.75 -16.3 L-114.35 -17.9 -122.15 -20.2 -127.6 -21.25 M-116.35 -25.7 Q-114.0 -26.8 -98.25 -27.35 L-94.1 -24.35 Q-94.5 -23.75 -98.25 -23.55 -98.35 -25.15 -105.8 -24.95 -115.2 -24.7 -116.1 -24.9 L-116.35 -25.7 M-72.35 -22.35 Q-68.2 -24.45 -58.4 -23.95 -48.4 -23.45 -44.5 -20.7 -46.6 -20.35 -69.5 -20.7 -72.15 -21.7 -72.35 -22.35 M-44.95 -14.4 L-44.0 -14.15 -38.0 -16.75 Q-33.6 -18.8 -32.5 -20.2 -35.25 -20.4 -39.9 -18.6 -44.25 -16.95 -46.25 -15.25 -45.95 -14.75 -44.95 -14.4 M-4.75 -34.6 L7.85 -36.45 -2.0 -33.35 -3.3 -33.6 Q-4.6 -34.0 -4.75 -34.6 M-31.1 -28.4 Q-28.2 -30.1 -13.0 -32.25 -17.0 -30.55 -29.1 -27.85 L-31.05 -28.15 -31.1 -28.4 M-40.35 -22.05 L-42.35 -21.8 Q-41.7 -22.8 -38.85 -23.85 -35.5 -23.55 -35.25 -23.05 L-36.05 -22.75 -40.35 -22.05 M-15.35 -20.35 L-15.0 -20.7 Q-8.8 -20.3 -2.45 -23.6 0.85 -25.4 4.25 -27.85 -5.55 -27.5 -10.25 -26.3 -15.75 -24.85 -15.75 -21.95 -15.75 -20.3 -15.35 -20.35 M-12.05 -1.65 L-13.0 -2.6 Q-12.6 -2.75 -6.75 -6.0 -4.1 -7.45 1.25 -7.0 0.5 -5.65 -4.45 -3.8 L-11.25 -1.25 -12.05 -1.65 M-18.1 -3.7 L-21.25 -1.5 Q-19.2 -1.85 -17.1 -1.55 -18.05 -0.45 -21.75 2.0 -25.65 4.55 -27.6 5.2 L-28.3 4.75 -29.35 3.75 Q-28.45 2.4 -27.3 1.35 -29.6 2.25 -32.25 2.95 L-34.05 2.65 -34.1 2.55 -34.25 2.75 Q-34.5 2.8 -34.5 1.15 -34.5 -0.9 -27.75 -2.85 -21.05 -4.8 -18.1 -3.7 M-59.85 8.3 Q-61.05 8.1 -61.35 7.6 -58.4 5.2 -56.9 4.65 -55.1 4.0 -50.85 4.0 -53.0 6.9 -55.45 7.75 L-58.75 8.4 -59.85 8.3 M-79.75 6.25 L-88.75 5.45 -89.0 5.8 Q-89.25 5.8 -89.25 4.1 -89.25 -1.2 -74.85 3.75 L-74.35 4.55 Q-77.0 6.25 -79.75 6.25" fill="#82a541" fill-rule="evenodd" stroke="none"/>
      <path d="M83.75 -105.55 Q84.55 -106.1 93.85 -104.4 L93.2 -103.8 92.45 -104.15 Q90.35 -104.55 84.0 -101.4 L82.95 -101.75 Q81.75 -102.2 81.1 -102.65 83.7 -103.95 83.75 -105.55 M110.5 -104.65 L114.85 -104.15 111.6 -101.4 108.75 -101.5 Q105.9 -101.7 105.75 -102.15 108.2 -104.45 110.5 -104.65 M7.05 -106.6 L8.1 -105.5 Q5.9 -103.75 -5.4 -99.7 L0.8 -99.45 Q3.65 -101.6 9.3 -103.1 12.05 -104.55 17.85 -106.05 22.8 -107.3 26.35 -107.6 28.0 -108.65 32.2 -109.75 39.2 -111.65 42.25 -110.75 39.7 -108.85 33.75 -107.3 L32.8 -107.1 33.0 -107.0 33.25 -106.25 Q32.15 -105.35 21.05 -101.9 14.25 -99.8 11.3 -98.5 L21.5 -96.75 Q24.65 -98.35 30.15 -99.95 43.1 -103.75 47.25 -100.55 46.25 -99.15 41.9 -97.2 45.2 -97.45 48.35 -97.2 L48.85 -95.6 Q47.5 -93.4 39.2 -91.15 L40.35 -90.6 42.6 -89.45 44.4 -90.25 Q47.35 -91.4 51.45 -92.2 49.95 -92.2 49.6 -92.7 49.45 -92.9 49.6 -93.15 52.85 -97.05 63.45 -99.2 73.3 -101.1 76.5 -99.75 75.35 -98.2 64.1 -95.1 L55.1 -92.8 58.3 -93.15 Q64.75 -96.15 82.85 -96.95 L85.2 -95.95 Q86.7 -95.25 87.0 -94.8 83.45 -92.6 70.15 -90.45 L58.2 -88.8 54.85 -87.3 Q51.2 -88.55 47.85 -87.25 45.0 -86.15 40.35 -82.15 L41.5 -81.3 44.0 -81.1 Q45.15 -81.1 51.2 -83.25 L56.85 -85.3 61.15 -85.95 66.55 -86.35 Q70.6 -88.35 76.5 -89.6 92.75 -93.15 104.6 -88.45 97.9 -82.95 84.1 -82.6 L79.9 -82.4 78.45 -81.9 Q82.35 -81.6 84.1 -79.85 L85.0 -78.25 Q83.4 -77.05 77.95 -75.5 L79.0 -76.35 Q76.2 -77.2 73.4 -77.2 L64.5 -76.6 64.25 -76.65 Q64.0 -76.4 64.0 -74.75 64.0 -73.05 64.4 -73.1 L64.75 -73.55 69.2 -73.4 68.5 -73.25 67.05 -72.9 68.15 -72.7 68.3 -72.75 70.55 -73.35 71.6 -73.3 74.25 -73.8 84.35 -74.1 85.7 -73.4 86.25 -73.3 87.0 -71.65 Q84.45 -69.55 81.0 -68.45 L76.75 -67.2 76.4 -67.35 75.1 -67.25 73.7 -67.3 Q76.5 -66.3 77.25 -64.2 79.4 -65.7 84.75 -67.4 92.8 -69.95 96.5 -67.75 L96.75 -66.95 Q94.05 -65.8 87.7 -64.05 81.2 -62.25 79.75 -62.25 L77.5 -62.45 Q77.05 -60.2 66.6 -59.3 L52.25 -59.85 Q51.05 -59.45 49.1 -57.9 47.1 -56.3 44.5 -55.4 L45.0 -54.85 58.75 -56.1 Q62.6 -55.55 64.75 -53.25 61.4 -49.95 48.15 -46.35 L46.25 -45.8 52.1 -46.7 Q53.25 -45.7 53.5 -44.9 52.85 -43.55 48.0 -40.85 42.8 -38.0 38.85 -37.25 L36.5 -38.1 36.15 -37.85 35.9 -38.2 Q30.0 -35.8 25.9 -34.35 18.1 -31.7 11.25 -31.75 L10.6 -32.1 9.95 -32.7 Q-17.7 -23.2 -49.85 -19.9 L-54.65 -18.3 Q-59.0 -16.95 -65.25 -15.5 L-65.5 -15.05 Q-65.75 -15.0 -65.75 -16.7 -65.75 -17.75 -64.35 -18.85 L-73.9 -18.4 Q-72.55 -17.0 -71.85 -15.5 L-72.4 -14.1 Q-73.0 -13.35 -74.6 -13.35 -75.45 -13.35 -80.7 -16.65 L-83.25 -18.3 -83.85 -18.3 -89.65 -18.4 Q-94.2 -17.15 -102.35 -16.6 -103.9 -16.6 -103.9 -16.95 L-103.6 -17.4 -101.4 -19.55 -102.1 -19.65 -103.35 -19.35 Q-106.35 -19.35 -107.5 -20.45 -116.1 -21.95 -125.55 -24.35 -135.45 -26.9 -144.85 -30.2 L-149.35 -29.85 -156.25 -30.2 -163.25 -30.65 -163.6 -31.15 Q-164.0 -31.65 -164.0 -33.25 -164.0 -35.3 -160.35 -36.1 -165.2 -38.2 -169.9 -40.45 L-170.0 -40.5 -170.35 -40.5 -180.2 -41.95 -185.05 -42.9 -182.55 -43.35 -175.5 -44.9 Q-175.75 -45.45 -178.0 -45.7 L-178.0 -45.45 Q-180.3 -45.3 -183.35 -45.4 -185.3 -45.1 -187.75 -43.55 -189.75 -44.2 -190.1 -44.65 L-188.4 -46.1 Q-204.05 -50.5 -207.25 -50.7 L-207.7 -51.7 -208.5 -52.85 Q-206.2 -53.95 -203.65 -54.55 L-198.75 -53.15 Q-187.85 -49.9 -187.25 -49.9 -185.65 -49.9 -185.15 -50.65 L-184.75 -52.05 Q-186.8 -55.45 -194.25 -57.55 -201.35 -59.45 -207.95 -57.8 L-216.15 -58.9 -231.75 -60.4 -232.1 -60.8 Q-232.5 -61.3 -232.5 -62.9 -232.5 -68.4 -219.85 -66.55 -211.4 -65.35 -205.8 -62.55 L-204.8 -62.95 -205.15 -63.3 -206.0 -64.1 -224.25 -69.05 -223.1 -68.8 -196.6 -70.1 Q-196.3 -70.25 -197.1 -70.8 -197.85 -71.4 -196.25 -71.95 L-201.7 -72.35 -223.1 -72.2 -224.4 -72.3 Q-222.65 -75.4 -214.0 -73.55 -215.35 -75.5 -216.3 -77.4 L-221.85 -79.65 Q-223.05 -78.5 -225.75 -78.5 -227.75 -78.5 -230.05 -79.65 L-233.6 -81.35 -231.05 -83.4 -230.25 -83.45 -232.25 -84.55 -232.5 -85.75 Q-229.8 -89.85 -224.4 -90.2 L-228.5 -91.6 Q-242.7 -96.55 -246.1 -95.6 -239.4 -97.65 -229.6 -96.4 -232.25 -95.75 -233.6 -94.5 -232.3 -93.8 -219.5 -92.7 L-206.75 -91.65 Q-205.2 -91.65 -205.05 -92.5 -204.95 -93.0 -205.0 -94.0 -207.5 -95.95 -215.85 -96.75 L-214.6 -97.4 -211.8 -98.4 -230.75 -101.35 Q-213.15 -104.25 -204.55 -101.35 L-201.1 -99.9 -193.75 -99.95 Q-198.6 -102.2 -203.35 -105.0 -194.3 -108.45 -178.2 -103.8 L-170.95 -101.35 Q-168.15 -102.8 -162.75 -102.25 L-166.1 -103.35 -166.35 -104.6 Q-160.3 -110.45 -147.65 -103.5 -143.25 -101.1 -139.25 -97.8 L-133.9 -98.45 Q-136.95 -100.1 -138.0 -101.6 L-133.4 -101.7 -133.7 -101.85 -142.25 -106.75 -142.25 -109.0 Q-140.25 -109.0 -132.0 -106.1 -122.75 -102.8 -115.35 -101.85 L-114.6 -100.25 -115.55 -99.2 Q-103.25 -99.1 -91.45 -97.35 L-80.25 -95.15 Q-75.5 -97.45 -65.0 -97.45 -52.3 -97.45 -40.4 -95.45 L-29.5 -93.75 Q-28.1 -96.1 -20.6 -98.0 -16.45 -99.05 -13.1 -99.35 L-12.35 -99.55 -12.5 -100.85 Q-12.5 -101.85 -11.35 -102.85 L-16.1 -101.0 -23.25 -98.55 Q-23.95 -98.15 -25.15 -97.8 -27.6 -97.0 -29.6 -97.0 L-37.15 -97.2 -45.25 -97.25 -45.6 -97.5 Q-46.0 -97.75 -46.0 -99.25 -46.0 -102.75 -39.45 -102.95 -33.55 -103.1 -25.0 -100.4 L-19.4 -102.0 Q-12.55 -103.65 -10.35 -103.6 L-7.5 -105.15 Q-1.65 -107.8 6.35 -107.75 6.35 -107.3 7.05 -106.6 M4.45 -99.2 L7.05 -98.95 6.95 -99.5 4.45 -99.2 M49.6 -106.0 L50.35 -106.0 Q52.95 -107.35 56.15 -108.05 61.85 -109.3 67.0 -107.8 65.15 -106.5 57.85 -104.75 L55.7 -104.25 55.75 -104.1 54.7 -103.05 Q53.8 -102.6 52.1 -102.6 L50.05 -102.85 49.85 -103.1 49.6 -102.75 Q49.4 -102.7 49.4 -103.6 48.05 -103.75 47.35 -104.15 48.3 -104.85 49.4 -105.45 49.45 -106.5 49.6 -106.0 M43.75 -107.25 Q45.4 -108.9 48.9 -110.2 53.4 -111.85 55.5 -109.75 54.05 -108.7 50.8 -107.85 47.2 -106.9 46.0 -106.25 L45.05 -106.45 Q44.05 -106.8 43.75 -107.25 M68.5 -107.05 L67.7 -107.4 Q66.9 -107.85 66.75 -108.3 68.2 -109.2 72.3 -110.0 L78.25 -110.55 Q74.3 -106.6 68.5 -107.05 M60.95 -79.8 L58.25 -79.05 55.9 -79.25 Q55.4 -79.45 55.0 -80.1 L55.35 -80.45 54.5 -80.25 56.3 -77.35 Q58.75 -78.5 61.85 -79.4 L61.55 -79.5 60.95 -79.8 M30.8 -90.9 L37.85 -91.95 Q43.75 -95.3 41.1 -95.3 L30.2 -94.85 Q26.0 -93.75 26.0 -91.3 26.0 -89.6 26.45 -89.7 L26.85 -90.05 30.8 -90.9 M40.85 -49.9 L43.0 -51.25 43.25 -52.05 33.0 -51.0 Q33.15 -50.5 37.0 -50.1 L40.85 -49.9 M6.1 -51.65 Q2.25 -51.35 0.25 -50.15 L0.5 -49.4 5.45 -50.0 9.75 -50.65 Q9.5 -51.15 6.1 -51.65 M34.8 -42.65 Q27.9 -43.65 25.95 -42.75 L23.7 -41.0 Q22.15 -39.65 19.6 -38.9 L20.35 -37.75 20.75 -37.25 29.8 -37.75 Q39.3 -38.65 42.5 -40.5 L42.25 -41.3 36.75 -42.3 Q37.45 -43.2 38.7 -43.8 L34.8 -42.65 M76.05 -48.95 Q75.5 -49.45 75.5 -51.25 75.5 -53.6 81.15 -55.8 85.35 -57.5 88.3 -57.45 L88.25 -57.55 Q89.35 -57.75 89.9 -58.35 L90.85 -59.45 Q92.4 -60.75 98.75 -60.4 99.1 -59.85 98.7 -58.75 98.4 -57.8 97.75 -57.0 L91.0 -55.9 90.2 -56.15 84.0 -51.85 78.65 -48.7 81.35 -48.3 Q80.2 -46.4 73.8 -44.25 L65.5 -41.7 Q65.15 -41.35 64.75 -41.35 64.0 -41.35 64.0 -43.0 64.0 -45.8 69.3 -47.65 72.65 -48.85 76.3 -48.85 L76.05 -48.95 M122.85 -95.8 Q120.3 -93.15 114.9 -91.2 L110.0 -89.8 108.2 -90.05 108.25 -90.3 108.0 -90.0 Q107.75 -90.0 107.75 -91.55 107.75 -93.45 114.2 -95.75 120.4 -98.0 122.1 -97.3 L122.85 -95.8 M133.1 -77.3 Q132.3 -76.65 129.0 -75.6 L124.85 -74.55 122.45 -74.9 121.25 -75.8 121.0 -76.55 Q121.55 -77.5 125.65 -77.95 130.15 -78.5 133.1 -77.3 M120.0 -87.8 L120.5 -86.3 118.25 -84.25 Q116.15 -83.15 111.6 -83.15 L109.6 -83.4 108.75 -84.3 Q110.4 -85.9 114.65 -87.1 118.65 -88.3 120.0 -87.8 M106.65 -75.15 Q103.9 -74.05 96.1 -74.05 L91.45 -74.65 Q88.6 -75.25 88.25 -75.8 91.75 -79.65 100.65 -79.5 L111.35 -78.3 Q108.4 -75.85 106.65 -75.15 M114.35 -63.8 L113.3 -62.2 Q112.4 -61.15 108.5 -61.15 106.95 -61.15 106.6 -61.5 L106.0 -62.4 108.45 -65.3 Q109.2 -65.65 113.85 -65.3 L114.35 -63.8 M-226.75 -113.35 Q-216.45 -112.3 -214.85 -107.95 -214.9 -107.0 -215.1 -106.55 -215.4 -105.8 -217.0 -105.8 -238.5 -109.85 -240.0 -110.65 -237.05 -114.35 -226.75 -113.35 M-235.25 -103.95 Q-235.95 -103.2 -237.5 -103.2 L-245.85 -103.8 Q-252.55 -104.55 -254.0 -105.55 L-254.0 -106.9 -243.75 -107.85 Q-240.15 -108.05 -234.85 -104.75 L-235.25 -103.95 M-186.85 -113.35 L-187.4 -113.25 -189.85 -113.35 -189.6 -113.8 -189.35 -114.1 Q-187.1 -113.85 -186.85 -113.35 M-200.85 -109.35 Q-202.75 -109.7 -203.5 -110.25 -201.75 -111.2 -198.8 -111.3 -195.45 -111.35 -193.5 -110.0 L-193.25 -109.25 -194.5 -109.1 -197.1 -109.0 -200.85 -109.35 M-175.85 -110.75 L-177.15 -110.9 -172.55 -110.65 Q-169.2 -110.2 -167.6 -109.5 -165.6 -109.0 -165.25 -108.25 L-165.3 -108.0 -167.25 -107.75 Q-175.0 -107.75 -175.35 -109.65 -175.5 -110.6 -175.85 -110.75 M-286.4 -103.35 L-282.0 -103.2 -281.5 -102.4 -282.25 -101.45 Q-282.85 -101.05 -284.5 -101.05 -287.75 -101.05 -288.6 -102.4 -288.2 -103.05 -286.4 -103.35 M-247.1 -114.35 Q-248.95 -113.7 -250.75 -113.7 -258.3 -113.7 -261.0 -114.85 -263.5 -115.85 -263.5 -118.7 -263.5 -120.4 -261.45 -121.3 L-256.45 -121.75 Q-249.15 -121.0 -245.1 -115.6 -245.3 -114.95 -247.1 -114.35 M-252.5 -100.55 L-252.0 -98.8 Q-253.35 -96.65 -255.85 -96.65 -257.95 -96.65 -261.25 -97.8 -265.0 -99.1 -266.6 -100.8 -264.85 -102.3 -260.25 -102.1 -256.1 -101.9 -252.5 -100.55 M-247.1 -86.7 Q-248.2 -85.9 -250.3 -85.55 L-261.5 -84.55 -261.6 -84.8 -261.75 -87.0 Q-261.75 -88.6 -260.15 -88.7 L-249.75 -89.0 Q-247.5 -88.0 -247.1 -86.7 M-221.2 -82.25 L-217.5 -81.9 Q-215.8 -81.9 -214.35 -82.8 -213.1 -83.6 -213.1 -84.3 -215.75 -85.2 -219.2 -85.25 L-223.6 -84.85 -223.6 -83.25 Q-223.05 -82.65 -221.2 -82.25 M-181.35 -83.5 L-181.85 -85.1 Q-186.35 -87.3 -189.35 -86.95 -191.25 -86.65 -197.0 -84.05 L-196.5 -83.25 Q-191.5 -81.6 -184.75 -81.6 -183.1 -81.6 -182.3 -82.25 L-181.35 -83.5 M-240.0 -78.25 L-234.45 -78.0 Q-229.7 -77.4 -227.0 -76.35 L-227.45 -75.15 Q-227.95 -74.65 -229.6 -74.65 L-239.25 -75.15 -239.6 -76.3 Q-240.0 -77.25 -240.0 -78.25 M-224.75 -69.05 L-224.35 -69.05 -224.6 -68.75 -224.75 -69.05 M-223.7 -52.15 Q-216.8 -51.05 -215.0 -49.65 -215.35 -49.15 -216.65 -49.0 L-219.0 -48.9 Q-219.0 -50.5 -223.55 -50.25 L-232.1 -49.4 -232.85 -50.15 -232.6 -53.05 -223.7 -52.15 M-219.0 -48.8 Q-218.3 -48.6 -218.5 -47.95 -219.0 -46.4 -219.0 -48.8 M-174.75 -37.55 Q-173.45 -36.0 -176.3 -35.55 L-181.1 -35.4 Q-184.65 -35.4 -189.85 -38.1 -189.3 -39.9 -188.15 -40.25 L-178.0 -39.7 Q-175.0 -38.4 -174.75 -37.55 M-132.35 -61.55 L-132.75 -61.4 Q-130.6 -60.4 -127.95 -59.7 -125.2 -58.95 -124.1 -59.15 -124.8 -60.25 -128.5 -61.2 L-132.0 -61.9 Q-132.0 -61.75 -132.35 -61.55 M-148.65 -51.05 Q-149.95 -50.85 -151.5 -49.9 L-151.0 -49.15 Q-150.0 -48.7 -149.6 -48.6 L-147.5 -48.4 Q-145.9 -48.4 -143.85 -48.95 L-141.75 -49.65 Q-142.0 -50.15 -143.75 -50.9 L-148.65 -51.05 M-155.1 -56.45 L-154.85 -56.75 -148.9 -55.3 -143.0 -54.25 Q-149.25 -59.65 -155.1 -59.65 -155.35 -60.5 -155.35 -58.0 -155.35 -56.45 -155.1 -56.45 M-150.75 -70.4 L-151.5 -71.15 Q-152.75 -73.8 -157.1 -73.7 -161.2 -73.6 -163.75 -71.4 -157.6 -69.65 -154.6 -69.65 L-152.0 -69.85 Q-151.4 -70.0 -150.75 -70.4 M-87.15 -55.5 L-88.45 -54.0 Q-90.1 -55.2 -93.05 -56.35 L-87.15 -55.5 M-84.45 -68.6 L-84.5 -69.65 Q-88.5 -72.4 -93.95 -73.2 -99.65 -74.05 -102.35 -71.9 -98.15 -70.45 -95.45 -69.65 -90.5 -68.15 -86.1 -68.15 -84.55 -68.15 -84.45 -68.6 M-118.5 -55.0 Q-118.65 -55.5 -119.75 -56.1 L-121.75 -57.15 -129.9 -56.75 Q-131.75 -56.65 -131.75 -54.9 -131.75 -53.35 -131.5 -53.4 L-131.25 -53.75 -129.0 -53.0 -121.75 -53.0 Q-118.75 -54.2 -118.5 -55.0 M-120.25 -64.0 L-120.5 -64.5 Q-127.9 -66.75 -131.95 -67.15 -136.4 -67.55 -138.5 -66.0 L-131.0 -64.4 -124.75 -63.15 Q-121.95 -63.15 -120.25 -64.0 M-104.75 -65.25 L-104.85 -64.5 Q-104.85 -62.95 -104.45 -62.75 L-104.1 -62.9 -98.75 -61.8 Q-101.7 -61.65 -103.1 -59.65 -102.6 -58.85 -101.0 -58.2 L-102.8 -58.0 Q-106.2 -59.0 -108.55 -58.85 -112.0 -58.65 -112.0 -56.4 -112.0 -55.15 -111.7 -54.8 -110.65 -53.5 -106.5 -53.5 -104.55 -53.5 -101.95 -54.2 L-100.85 -54.5 -99.35 -53.55 Q-102.1 -53.05 -102.1 -50.75 -102.1 -49.2 -101.85 -49.25 L-101.6 -49.65 -99.1 -48.05 Q-104.0 -49.25 -106.25 -48.15 -105.45 -45.6 -102.55 -43.7 L-115.0 -43.15 -115.3 -42.85 -115.85 -43.25 Q-125.15 -43.25 -128.75 -42.0 -125.4 -39.9 -121.85 -39.9 L-116.95 -40.5 -114.85 -41.0 -109.85 -40.25 -102.35 -39.65 -94.15 -40.2 -93.65 -40.55 -93.15 -39.9 Q-88.7 -34.0 -79.85 -34.0 L-76.9 -34.6 Q-76.05 -33.7 -72.3 -32.75 L-68.5 -32.0 Q-66.8 -32.0 -65.95 -33.05 L-64.25 -34.75 -65.95 -35.75 -58.45 -36.05 -58.5 -35.75 Q-58.5 -34.25 -58.1 -33.75 L-57.75 -33.25 -47.65 -34.6 Q-46.9 -35.8 -44.0 -37.65 L-44.3 -38.1 -44.1 -38.1 -38.35 -37.65 -32.95 -38.25 Q-29.45 -38.85 -29.1 -39.4 L-29.35 -40.15 -35.5 -42.55 Q-33.0 -42.85 -31.75 -43.55 -30.1 -44.45 -30.1 -46.65 L-30.45 -47.2 -23.0 -46.9 -18.1 -47.5 -15.4 -48.2 -11.25 -47.9 Q-9.75 -47.9 -9.6 -48.5 L-9.35 -49.65 -9.6 -50.4 Q-11.7 -51.8 -16.15 -51.05 L-18.5 -50.5 -25.25 -51.35 Q-31.4 -51.55 -35.0 -49.45 L-43.1 -49.0 -47.75 -49.6 -53.1 -49.3 -58.45 -49.75 Q-53.2 -51.4 -50.0 -51.6 -45.95 -51.8 -44.0 -53.0 L-44.65 -54.3 -41.95 -54.55 Q-33.25 -55.35 -28.35 -59.4 -31.55 -60.3 -40.85 -58.5 L-45.8 -57.4 Q-51.7 -59.25 -58.55 -57.3 L-61.75 -56.15 -61.6 -57.15 Q-61.6 -61.55 -65.35 -63.15 L-68.7 -63.85 Q-62.75 -66.05 -60.85 -67.65 -63.85 -70.65 -69.75 -68.9 -75.5 -67.2 -75.5 -64.15 L-75.4 -62.9 Q-78.95 -61.9 -81.75 -59.85 L-83.0 -58.8 Q-84.8 -57.9 -86.5 -56.2 L-86.5 -57.4 Q-88.5 -58.95 -90.65 -60.0 L-89.0 -59.9 Q-87.4 -59.9 -86.5 -60.6 L-85.5 -61.9 -85.75 -62.65 Q-93.85 -66.75 -99.45 -67.15 L-102.4 -67.05 Q-104.3 -70.3 -107.15 -70.6 L-112.6 -69.65 Q-112.85 -71.0 -112.85 -68.5 -112.85 -67.0 -112.4 -66.5 L-112.0 -66.0 -106.7 -65.55 -104.75 -65.25 M-108.75 -61.9 L-109.25 -63.5 Q-115.55 -65.1 -119.25 -64.75 -119.5 -65.65 -119.5 -63.15 -119.5 -61.6 -119.25 -61.6 L-119.0 -61.9 -113.1 -60.15 Q-109.7 -60.5 -108.75 -61.9 M-156.7 -33.7 L-152.0 -33.35 -147.1 -34.15 -143.75 -35.1 Q-148.55 -37.15 -151.3 -37.1 L-160.1 -36.45 -160.1 -34.85 Q-159.6 -34.2 -156.7 -33.7 M-127.5 -30.8 Q-133.85 -31.6 -136.1 -30.95 -133.7 -30.05 -128.85 -29.9 L-120.25 -29.5 -127.5 -30.8 M-152.95 -27.4 L-147.35 -27.6 Q-141.25 -26.25 -139.85 -25.7 -137.85 -24.9 -137.6 -24.1 -138.05 -23.6 -140.15 -22.85 -142.55 -22.05 -144.25 -22.05 L-152.6 -22.85 -160.35 -24.1 -161.1 -24.9 Q-161.1 -25.5 -160.2 -26.3 L-158.6 -27.35 -152.95 -27.4 M-127.6 -21.25 L-122.15 -20.2 -114.35 -17.9 -113.75 -16.3 Q-115.15 -14.45 -117.75 -14.45 -121.25 -14.45 -124.55 -17.3 -127.2 -19.6 -127.6 -21.25 M-109.3 -47.2 L-108.75 -47.9 Q-110.45 -51.6 -114.2 -51.95 -117.8 -52.3 -121.0 -49.4 -119.3 -48.45 -116.35 -47.7 L-111.5 -46.9 -109.3 -47.2 M-95.3 -31.5 Q-92.5 -31.85 -91.2 -32.35 L-91.1 -31.95 -90.85 -30.9 -82.9 -30.35 -78.75 -30.15 Q-77.9 -30.45 -77.5 -31.75 -78.25 -32.5 -78.25 -33.0 L-91.35 -33.5 -91.3 -33.1 Q-94.15 -36.35 -100.55 -35.75 -103.3 -35.45 -105.25 -34.5 -107.25 -33.55 -107.25 -32.4 -107.25 -30.85 -107.0 -30.85 L-106.75 -31.15 -104.35 -30.4 -95.3 -31.5 M-116.35 -25.7 L-116.1 -24.9 Q-115.2 -24.7 -105.8 -24.95 -98.35 -25.15 -98.25 -23.55 -94.5 -23.75 -94.1 -24.35 L-98.25 -27.35 Q-114.0 -26.8 -116.35 -25.7 M-47.85 -39.75 L-50.1 -40.9 -60.3 -40.9 -59.65 -41.2 Q-55.6 -41.4 -53.2 -42.5 -52.1 -43.0 -51.5 -43.55 L-49.6 -43.5 -46.75 -43.55 -46.2 -43.4 -43.1 -42.55 Q-45.4 -41.65 -47.85 -39.75 M-34.35 -52.2 L-34.0 -51.9 Q-29.8 -51.9 -23.2 -53.25 -17.45 -54.45 -16.6 -55.0 L-17.65 -56.55 -18.1 -57.9 Q-24.25 -58.85 -29.5 -57.65 -34.75 -56.4 -34.75 -54.0 -34.75 -52.5 -34.35 -52.2 M-28.85 -70.2 Q-25.6 -70.8 -25.25 -71.65 -34.15 -73.55 -37.15 -72.95 -38.85 -72.6 -39.8 -70.45 -43.3 -72.65 -51.2 -69.55 -59.35 -66.4 -59.35 -63.65 -59.35 -62.05 -58.75 -61.65 L-57.45 -61.2 -59.1 -60.15 -57.95 -59.25 -57.25 -58.9 Q-52.45 -58.6 -48.25 -58.75 -40.05 -59.0 -36.25 -61.9 L-36.5 -62.65 Q-44.65 -64.35 -49.45 -64.2 L-49.2 -64.3 Q-41.2 -67.75 -39.35 -70.1 L-34.0 -69.65 -28.85 -70.2 M-25.5 -66.0 L-25.1 -64.5 -24.75 -63.15 -19.35 -63.15 Q-16.9 -63.6 -15.0 -65.0 L-15.25 -65.75 Q-16.75 -67.25 -20.2 -67.1 -22.85 -66.95 -25.5 -66.0 M-72.35 -22.35 Q-72.15 -21.7 -69.5 -20.7 -46.6 -20.35 -44.5 -20.7 -48.4 -23.45 -58.4 -23.95 -68.2 -24.45 -72.35 -22.35 M-44.95 -14.4 Q-45.95 -14.75 -46.25 -15.25 -44.25 -16.95 -39.9 -18.6 -35.25 -20.4 -32.5 -20.2 -33.6 -18.8 -38.0 -16.75 L-44.0 -14.15 -44.95 -14.4 M-40.35 -22.05 L-36.05 -22.75 -35.25 -23.05 Q-35.5 -23.55 -38.85 -23.85 -41.7 -22.8 -42.35 -21.8 L-40.35 -22.05 M-31.1 -28.4 L-31.05 -28.15 -29.1 -27.85 Q-17.0 -30.55 -13.0 -32.25 -28.2 -30.1 -31.1 -28.4 M-4.75 -34.6 Q-4.6 -34.0 -3.3 -33.6 L-2.0 -33.35 7.85 -36.45 -4.75 -34.6 M-15.35 -20.35 Q-15.75 -20.3 -15.75 -21.95 -15.75 -24.85 -10.25 -26.3 -5.55 -27.5 4.25 -27.85 0.85 -25.4 -2.45 -23.6 -8.8 -20.3 -15.0 -20.7 L-15.35 -20.35" fill="#69933c" fill-rule="evenodd" stroke="none"/>
      <path d="M6.1 -51.65 Q9.5 -51.15 9.75 -50.65 L5.45 -50.0 0.5 -49.4 0.25 -50.15 Q2.25 -51.35 6.1 -51.65 M-108.75 -61.9 Q-109.7 -60.5 -113.1 -60.15 L-119.0 -61.9 -119.25 -61.6 Q-119.5 -61.6 -119.5 -63.15 -119.5 -65.65 -119.25 -64.75 -115.55 -65.1 -109.25 -63.5 L-108.75 -61.9 M-104.75 -65.25 L-106.7 -65.55 -112.0 -66.0 -112.4 -66.5 Q-112.85 -67.0 -112.85 -68.5 -112.85 -71.0 -112.6 -69.65 L-107.15 -70.6 Q-104.3 -70.3 -102.4 -67.05 L-99.45 -67.15 Q-93.85 -66.75 -85.75 -62.65 L-85.5 -61.9 -86.5 -60.6 Q-87.4 -59.9 -89.0 -59.9 L-90.65 -60.0 Q-88.5 -58.95 -86.5 -57.4 L-86.5 -56.2 Q-84.8 -57.9 -83.0 -58.8 L-81.75 -59.85 Q-78.95 -61.9 -75.4 -62.9 L-75.5 -64.15 Q-75.5 -67.2 -69.75 -68.9 -63.85 -70.65 -60.85 -67.65 -62.75 -66.05 -68.7 -63.85 L-65.35 -63.15 Q-61.6 -61.55 -61.6 -57.15 L-61.75 -56.15 -58.55 -57.3 Q-51.7 -59.25 -45.8 -57.4 L-40.85 -58.5 Q-31.55 -60.3 -28.35 -59.4 -33.25 -55.35 -41.95 -54.55 L-44.65 -54.3 -44.0 -53.0 Q-45.95 -51.8 -50.0 -51.6 -53.2 -51.4 -58.45 -49.75 L-53.1 -49.3 -47.75 -49.6 -43.1 -49.0 -35.0 -49.45 Q-31.4 -51.55 -25.25 -51.35 L-18.5 -50.5 -16.15 -51.05 Q-11.7 -51.8 -9.6 -50.4 L-9.35 -49.65 -9.6 -48.5 Q-9.75 -47.9 -11.25 -47.9 L-15.4 -48.2 -18.1 -47.5 -23.0 -46.9 -30.45 -47.2 -30.1 -46.65 Q-30.1 -44.45 -31.75 -43.55 -33.0 -42.85 -35.5 -42.55 L-29.35 -40.15 -29.1 -39.4 Q-29.45 -38.85 -32.95 -38.25 L-38.35 -37.65 -44.1 -38.1 -44.3 -38.1 -44.0 -37.65 Q-46.9 -35.8 -47.65 -34.6 L-57.75 -33.25 -58.1 -33.75 Q-58.5 -34.25 -58.5 -35.75 L-58.45 -36.05 -65.95 -35.75 -64.25 -34.75 -65.95 -33.05 Q-66.8 -32.0 -68.5 -32.0 L-72.3 -32.75 Q-76.05 -33.7 -76.9 -34.6 L-79.85 -34.0 Q-88.7 -34.0 -93.15 -39.9 L-93.65 -40.55 -94.15 -40.2 -102.35 -39.65 -109.85 -40.25 -114.85 -41.0 -116.95 -40.5 -121.85 -39.9 Q-125.4 -39.9 -128.75 -42.0 -125.15 -43.25 -115.85 -43.25 L-115.3 -42.85 -115.0 -43.15 -102.55 -43.7 Q-105.45 -45.6 -106.25 -48.15 -104.0 -49.25 -99.1 -48.05 L-101.6 -49.65 -101.85 -49.25 Q-102.1 -49.2 -102.1 -50.75 -102.1 -53.05 -99.35 -53.55 L-100.85 -54.5 -101.95 -54.2 Q-104.55 -53.5 -106.5 -53.5 -110.65 -53.5 -111.7 -54.8 -112.0 -55.15 -112.0 -56.4 -112.0 -58.65 -108.55 -58.85 -106.2 -59.0 -102.8 -58.0 L-101.0 -58.2 Q-102.6 -58.85 -103.1 -59.65 -101.7 -61.65 -98.75 -61.8 L-104.1 -62.9 -104.45 -62.75 Q-104.85 -62.95 -104.85 -64.5 L-104.75 -65.25 M-120.25 -64.0 Q-121.95 -63.15 -124.75 -63.15 L-131.0 -64.4 -138.5 -66.0 Q-136.4 -67.55 -131.95 -67.15 -127.9 -66.75 -120.5 -64.5 L-120.25 -64.0 M-118.5 -55.0 Q-118.75 -54.2 -121.75 -53.0 L-129.0 -53.0 -131.25 -53.75 -131.5 -53.4 Q-131.75 -53.35 -131.75 -54.9 -131.75 -56.65 -129.9 -56.75 L-121.75 -57.15 -119.75 -56.1 Q-118.65 -55.5 -118.5 -55.0 M-84.45 -68.6 Q-84.55 -68.15 -86.1 -68.15 -90.5 -68.15 -95.45 -69.65 -98.15 -70.45 -102.35 -71.9 -99.65 -74.05 -93.95 -73.2 -88.5 -72.4 -84.5 -69.65 L-84.45 -68.6 M-87.15 -55.5 L-93.05 -56.35 Q-90.1 -55.2 -88.45 -54.0 L-87.15 -55.5 M-150.75 -70.4 Q-151.4 -70.0 -152.0 -69.85 L-154.6 -69.65 Q-157.6 -69.65 -163.75 -71.4 -161.2 -73.6 -157.1 -73.7 -152.75 -73.8 -151.5 -71.15 L-150.75 -70.4 M-155.1 -56.45 Q-155.35 -56.45 -155.35 -58.0 -155.35 -60.5 -155.1 -59.65 -149.25 -59.65 -143.0 -54.25 L-148.9 -55.3 -154.85 -56.75 -155.1 -56.45 M-148.65 -51.05 L-143.75 -50.9 Q-142.0 -50.15 -141.75 -49.65 L-143.85 -48.95 Q-145.9 -48.4 -147.5 -48.4 L-149.6 -48.6 Q-150.0 -48.7 -151.0 -49.15 L-151.5 -49.9 Q-149.95 -50.85 -148.65 -51.05 M-132.35 -61.55 Q-132.0 -61.75 -132.0 -61.9 L-128.5 -61.2 Q-124.8 -60.25 -124.1 -59.15 -125.2 -58.95 -127.95 -59.7 -130.6 -60.4 -132.75 -61.4 L-132.35 -61.55 M-95.3 -31.5 L-104.35 -30.4 -106.75 -31.15 -107.0 -30.85 Q-107.25 -30.85 -107.25 -32.4 -107.25 -33.55 -105.25 -34.5 -103.3 -35.45 -100.55 -35.75 -94.15 -36.35 -91.3 -33.1 L-91.35 -33.5 -78.25 -33.0 Q-78.25 -32.5 -77.5 -31.75 -77.9 -30.45 -78.75 -30.15 L-82.9 -30.35 -90.85 -30.9 -91.1 -31.95 -91.2 -32.35 Q-92.5 -31.85 -95.3 -31.5 M-109.3 -47.2 L-111.5 -46.9 -116.35 -47.7 Q-119.3 -48.45 -121.0 -49.4 -117.8 -52.3 -114.2 -51.95 -110.45 -51.6 -108.75 -47.9 L-109.3 -47.2 M-25.5 -66.0 Q-22.85 -66.95 -20.2 -67.1 -16.75 -67.25 -15.25 -65.75 L-15.0 -65.0 Q-16.9 -63.6 -19.35 -63.15 L-24.75 -63.15 -25.1 -64.5 -25.5 -66.0 M-28.85 -70.2 L-34.0 -69.65 -39.35 -70.1 Q-41.2 -67.75 -49.2 -64.3 L-49.45 -64.2 Q-44.65 -64.35 -36.5 -62.65 L-36.25 -61.9 Q-40.05 -59.0 -48.25 -58.75 -52.45 -58.6 -57.25 -58.9 L-57.95 -59.25 -59.1 -60.15 -57.45 -61.2 -58.75 -61.65 Q-59.35 -62.05 -59.35 -63.65 -59.35 -66.4 -51.2 -69.55 -43.3 -72.65 -39.8 -70.45 -38.85 -72.6 -37.15 -72.95 -34.15 -73.55 -25.25 -71.65 -25.6 -70.8 -28.85 -70.2 M-34.35 -52.2 Q-34.75 -52.5 -34.75 -54.0 -34.75 -56.4 -29.5 -57.65 -24.25 -58.85 -18.1 -57.9 L-17.65 -56.55 -16.6 -55.0 Q-17.45 -54.45 -23.2 -53.25 -29.8 -51.9 -34.0 -51.9 L-34.35 -52.2 M-47.85 -39.75 Q-45.4 -41.65 -43.1 -42.55 L-46.2 -43.4 -46.75 -43.55 -49.6 -43.5 -51.5 -43.55 Q-52.1 -43.0 -53.2 -42.5 -55.6 -41.4 -59.65 -41.2 L-60.3 -40.9 -50.1 -40.9 -47.85 -39.75" fill="#538c37" fill-rule="evenodd" stroke="none"/>
      <path d="M12.35 -243.3 L6.7 -243.4 3.85 -244.0 -1.95 -244.05 -7.45 -243.5 -21.85 -244.15 -34.9 -243.45 -46.5 -242.7 Q-47.3 -242.7 -48.5 -243.6 L-49.0 -244.0 -53.25 -244.4 -61.0 -244.4 -68.85 -243.95 Q-70.4 -244.25 -70.75 -245.7 L-72.0 -245.75 -60.85 -246.35 -22.5 -244.6 4.75 -244.35 12.35 -243.3 M-77.35 -245.4 Q-77.75 -244.25 -79.15 -243.95 L-87.0 -244.4 -94.7 -244.4 -95.6 -244.3 -99.0 -244.0 -99.5 -243.6 Q-100.7 -242.7 -101.5 -242.7 L-113.1 -243.45 -122.95 -244.0 -121.5 -244.35 -87.0 -244.6 -77.35 -245.4 M-130.3 -243.55 Q-135.65 -243.0 -140.55 -243.5 L-140.8 -243.5 -130.3 -243.55 M-154.4 -243.45 L-154.7 -243.4 -177.45 -243.05 -187.8 -241.6 -196.5 -241.1 -198.6 -241.15 Q-245.8 -235.85 -275.2 -230.2 L-270.15 -231.25 Q-247.55 -235.85 -220.05 -239.65 -200.3 -242.4 -189.0 -243.35 L-154.4 -243.45 M-324.85 -215.1 L-325.9 -214.5 -324.3 -213.75 -323.2 -212.7 Q-324.2 -211.5 -330.4 -209.8 L-331.65 -210.0 Q-332.25 -210.2 -332.7 -210.6 L-332.35 -210.35 Q-329.5 -212.75 -324.85 -215.1 M179.5 -210.65 Q175.95 -211.8 175.2 -212.7 L176.3 -213.75 176.55 -213.9 181.15 -210.15 181.75 -209.95 179.5 -210.65 M202.25 -197.45 L202.35 -197.3 203.85 -198.75 205.0 -200.0 207.85 -197.05 Q206.6 -189.15 191.65 -174.9 L188.3 -171.75 179.55 -168.75 Q184.3 -171.95 188.2 -175.1 L188.25 -175.15 188.7 -175.55 Q202.8 -187.15 202.8 -196.3 L202.8 -196.35 202.25 -197.45 M-352.7 -200.3 L-353.05 -199.95 Q-352.85 -197.35 -351.6 -194.95 L-350.4 -193.1 Q-348.4 -185.15 -336.7 -175.55 L-334.0 -173.4 Q-329.5 -169.95 -324.05 -166.5 L-334.9 -170.5 -339.65 -174.9 Q-354.6 -189.15 -355.85 -197.05 L-352.7 -200.3" fill="#373c40" fill-rule="evenodd" stroke="none"/>
      <path d="M12.35 -243.3 L12.45 -243.3 13.55 -243.3 14.6 -243.25 29.45 -243.05 39.8 -241.6 48.5 -241.1 50.6 -241.15 79.0 -237.7 Q111.6 -233.5 133.25 -229.0 164.6 -222.55 177.9 -214.5 L176.55 -213.9 176.3 -213.75 175.2 -212.7 Q175.95 -211.8 179.5 -210.65 178.1 -206.65 169.7 -201.6 160.4 -196.05 148.1 -192.85 120.1 -185.7 79.0 -180.4 L42.2 -176.3 Q-21.25 -170.1 -78.85 -170.1 L-95.6 -170.7 -111.75 -172.1 Q-126.9 -173.7 -131.0 -174.75 L-168.85 -175.25 Q-207.0 -179.85 -263.85 -189.85 -332.35 -201.95 -332.35 -206.75 -332.35 -208.05 -331.65 -210.0 L-330.4 -209.8 Q-324.2 -211.5 -323.2 -212.7 L-324.3 -213.75 -325.9 -214.5 -324.85 -215.1 Q-311.4 -222.8 -281.25 -229.0 L-275.2 -230.2 Q-245.8 -235.85 -198.6 -241.15 L-196.5 -241.1 -187.8 -241.6 -177.45 -243.05 -154.7 -243.4 -154.4 -243.45 -151.85 -244.0 -146.05 -244.05 -145.75 -244.0 -141.55 -243.6 -140.9 -243.5 -140.8 -243.5 -140.55 -243.5 Q-135.65 -243.0 -130.3 -243.55 L-126.15 -244.15 -122.95 -244.0 -113.1 -243.45 -101.5 -242.7 Q-100.7 -242.7 -99.5 -243.6 L-99.0 -244.0 -95.6 -244.3 -94.7 -244.4 -87.0 -244.4 -79.15 -243.95 Q-77.75 -244.25 -77.35 -245.4 L-77.25 -245.65 -73.8 -245.8 -73.55 -245.8 -72.1 -245.75 -72.05 -245.75 -72.0 -245.75 -70.75 -245.7 Q-70.4 -244.25 -68.85 -243.95 L-61.0 -244.4 -53.25 -244.4 -49.0 -244.0 -48.5 -243.6 Q-47.3 -242.7 -46.5 -242.7 L-34.9 -243.45 -21.85 -244.15 -7.45 -243.5 -1.95 -244.05 3.85 -244.0 6.7 -243.4 12.35 -243.3 M193.1 -208.1 L199.5 -202.65 199.5 -202.6 199.55 -202.55 200.85 -199.0 Q200.85 -191.9 186.25 -184.9 181.25 -181.7 172.6 -178.3 153.55 -170.8 121.05 -163.9 100.8 -159.6 79.0 -156.3 L68.15 -154.75 53.4 -152.85 Q16.15 -148.4 -15.25 -147.85 L-44.0 -147.85 -44.55 -147.9 -44.0 -147.95 -47.95 -147.85 -48.1 -147.85 -66.9 -147.5 -67.95 -147.35 -71.25 -147.1 -74.75 -147.35 -76.75 -147.35 -78.6 -147.1 -82.35 -146.85 -88.25 -147.35 -113.6 -147.6 -115.65 -147.95 -127.85 -148.1 Q-245.15 -157.05 -297.05 -169.6 -346.55 -181.55 -349.1 -199.75 L-349.45 -199.05 -348.55 -200.85 -347.85 -202.15 -347.5 -202.6 -347.5 -202.65 -340.55 -208.55 -340.85 -206.5 Q-340.85 -193.5 -292.25 -181.6 -246.45 -170.4 -169.85 -163.0 L-132.25 -162.5 Q-123.45 -160.55 -114.1 -159.5 L-95.6 -158.15 Q-87.7 -157.85 -78.75 -157.85 16.45 -157.85 79.0 -165.45 115.95 -169.95 141.55 -177.1 184.3 -189.1 193.1 -208.1 M-350.75 -196.4 L-350.65 -196.65 -350.7 -196.5 -350.75 -196.4 M-81.8 -229.2 Q-89.65 -228.5 -95.15 -226.95 L-104.6 -226.7 Q-107.6 -226.0 -107.6 -223.1 -107.6 -220.95 -106.4 -220.05 -103.1 -217.6 -91.9 -217.6 -66.9 -217.6 -57.0 -219.8 -48.8 -221.65 -48.8 -225.7 -48.8 -226.85 -49.0 -226.95 L-49.2 -227.2 -61.75 -226.5 -61.7 -227.0 Q-61.7 -229.0 -68.0 -229.55 -73.6 -230.0 -81.8 -229.2" fill="#677076" fill-rule="evenodd" stroke="none"/>
      <path d="M176.55 -213.9 L177.9 -214.5 Q164.6 -222.55 133.25 -229.0 111.6 -233.5 79.0 -237.7 L50.6 -241.15 48.5 -241.1 39.8 -241.6 29.45 -243.05 14.6 -243.25 13.55 -243.3 12.45 -243.3 12.35 -243.3 4.75 -244.35 -22.5 -244.6 -60.85 -246.35 -72.0 -245.75 -72.05 -245.75 -72.1 -245.75 -73.55 -245.8 -73.8 -245.8 -77.25 -245.65 -77.35 -245.4 -87.0 -244.6 -121.5 -244.35 -122.95 -244.0 -126.15 -244.15 -130.3 -243.55 -140.8 -243.5 -140.9 -243.5 -141.55 -243.6 -145.75 -244.0 -146.05 -244.05 -151.85 -244.0 -154.4 -243.45 -189.0 -243.35 Q-200.3 -242.4 -220.05 -239.65 -247.55 -235.85 -270.15 -231.25 L-275.2 -230.2 -281.25 -229.0 Q-311.4 -222.8 -324.85 -215.1 -329.5 -212.75 -332.35 -210.35 L-332.7 -210.6 -332.8 -210.7 -332.85 -210.75 -333.7 -212.0 -334.0 -212.8 -334.05 -213.0 -334.2 -213.8 -337.55 -211.05 -340.55 -208.55 -347.5 -202.65 -347.5 -202.6 -347.85 -202.15 -348.55 -200.85 -349.45 -199.05 -350.65 -196.65 -350.75 -196.4 -350.8 -196.3 -350.8 -196.15 -350.8 -196.05 -350.8 -195.95 -350.55 -193.95 -350.45 -193.3 -350.4 -193.1 -351.6 -194.95 Q-352.85 -197.35 -353.05 -199.95 L-352.7 -200.3 -352.4 -200.6 Q-349.15 -205.35 -343.75 -210.35 L-342.35 -211.6 -341.05 -213.0 -336.2 -216.7 -330.35 -221.25 -329.9 -221.3 Q-319.5 -227.35 -284.75 -234.8 -236.9 -245.0 -183.4 -249.5 L-176.75 -249.6 -171.9 -250.3 -170.15 -250.3 -158.2 -250.7 -157.9 -250.7 -146.85 -251.9 -143.7 -251.8 -126.9 -253.2 -118.9 -253.2 -115.15 -253.0 -98.0 -252.95 -95.6 -252.95 Q-76.3 -252.85 -75.5 -252.6 L-72.5 -252.6 Q-71.65 -252.85 -50.0 -252.95 L-32.85 -253.0 -29.1 -253.2 -21.1 -253.2 Q-12.1 -251.8 -4.3 -251.8 L-1.15 -251.9 9.9 -250.7 10.2 -250.7 22.15 -250.3 23.9 -250.3 28.75 -249.6 35.4 -249.5 Q57.7 -247.65 79.0 -244.75 108.85 -240.75 136.75 -234.8 171.5 -227.35 181.9 -221.3 L182.35 -221.25 Q185.2 -219.0 188.2 -216.7 L193.05 -213.0 194.35 -211.6 195.75 -210.35 Q201.15 -205.35 204.4 -200.6 L205.0 -200.0 203.85 -198.75 202.35 -197.3 202.25 -197.45 201.55 -198.95 200.8 -200.4 200.55 -200.85 199.85 -202.15 199.55 -202.55 199.5 -202.6 199.5 -202.65 193.1 -208.1 189.55 -211.05 186.2 -213.8 186.05 -213.0 Q185.45 -210.7 183.85 -210.05 L182.4 -209.8 181.75 -209.95 181.15 -210.15 176.55 -213.9" fill="#555c62" fill-rule="evenodd" stroke="none"/>
      <path d="M-331.65 -210.0 Q-332.35 -208.05 -332.35 -206.75 -332.35 -201.95 -263.85 -189.85 -207.0 -179.85 -168.85 -175.25 L-131.0 -174.75 Q-126.9 -173.7 -111.75 -172.1 L-95.6 -170.7 -78.85 -170.1 Q-21.25 -170.1 42.2 -176.3 L79.0 -180.4 Q120.1 -185.7 148.1 -192.85 160.4 -196.05 169.7 -201.6 178.1 -206.65 179.5 -210.65 L181.75 -209.95 182.4 -209.8 183.85 -210.05 Q185.45 -210.7 186.05 -213.0 L186.2 -213.8 189.55 -211.05 193.1 -208.1 Q184.3 -189.1 141.55 -177.1 115.95 -169.95 79.0 -165.45 16.45 -157.85 -78.75 -157.85 -87.7 -157.85 -95.6 -158.15 L-114.1 -159.5 Q-123.45 -160.55 -132.25 -162.5 L-169.85 -163.0 Q-246.45 -170.4 -292.25 -181.6 -340.85 -193.5 -340.85 -206.5 L-340.55 -208.55 -337.55 -211.05 -334.2 -213.8 -334.05 -213.0 -334.0 -212.8 -333.7 -212.0 -332.85 -210.75 -332.8 -210.7 -332.7 -210.6 Q-332.25 -210.2 -331.65 -210.0 M199.55 -202.55 L199.85 -202.15 200.55 -200.85 200.8 -200.4 201.55 -198.95 202.25 -197.45 202.8 -196.35 Q199.75 -187.35 182.0 -178.4 162.45 -168.55 129.0 -160.55 96.95 -152.9 61.3 -149.1 37.95 -146.55 17.7 -146.2 L9.15 -145.65 -8.2 -143.2 -54.8 -143.2 -57.3 -142.6 -95.0 -142.6 -101.1 -142.8 -106.4 -143.2 -128.5 -143.5 Q-184.7 -146.85 -206.7 -150.3 L-212.45 -151.25 Q-237.0 -154.2 -259.75 -158.05 -343.15 -172.25 -350.45 -193.5 L-350.55 -193.95 -350.8 -195.95 -350.8 -196.05 -350.8 -196.15 -350.8 -196.3 -350.75 -196.4 -350.7 -196.5 -350.65 -196.65 -349.45 -199.05 -349.1 -199.75 Q-346.55 -181.55 -297.05 -169.6 -245.15 -157.05 -127.85 -148.1 L-115.65 -147.95 -113.6 -147.6 -88.25 -147.35 -82.35 -146.85 -78.6 -147.1 -76.75 -147.35 -74.75 -147.35 -71.25 -147.1 -67.95 -147.35 -66.9 -147.5 -48.1 -147.85 -47.95 -147.85 -44.0 -147.95 -44.55 -147.9 -44.0 -147.85 -15.25 -147.85 Q16.15 -148.4 53.4 -152.85 L68.15 -154.75 79.0 -156.3 Q100.8 -159.6 121.05 -163.9 153.55 -170.8 172.6 -178.3 181.25 -181.7 186.25 -184.9 200.85 -191.9 200.85 -199.0 L199.55 -202.55" fill="#79848a" fill-rule="evenodd" stroke="none"/>
      <path d="M176.35 -166.7 L175.95 -166.45 154.45 -154.65 152.9 -153.9 152.5 -153.75 Q129.75 -143.0 103.2 -134.9 L100.65 -134.1 88.3 -131.0 85.05 -129.85 76.2 -127.0 70.55 -125.35 Q10.6 -115.7 -35.0 -109.5 L-54.4 -109.2 -56.25 -109.0 -63.9 -109.0 -63.25 -109.05 -125.85 -109.0 -147.65 -111.15 -148.4 -111.25 -148.9 -111.35 -150.45 -111.55 -151.1 -111.65 Q-165.0 -113.8 -175.2 -116.15 L-176.55 -116.45 -176.6 -116.5 -176.8 -116.6 -177.15 -116.6 -179.1 -117.1 -180.55 -117.3 Q-203.85 -120.85 -224.2 -127.0 L-233.05 -129.85 -236.3 -131.0 -248.65 -134.1 -251.2 -134.9 Q-277.75 -143.0 -300.5 -153.75 L-301.75 -154.35 -305.25 -156.05 Q-309.55 -158.2 -313.45 -160.35 L-316.3 -161.9 -323.0 -165.85 -323.9 -166.45 -305.05 -158.55 Q-263.95 -141.55 -238.0 -136.35 -208.95 -130.45 -190.95 -127.5 L-184.3 -126.45 Q-149.35 -121.15 -99.0 -117.35 L-66.75 -117.35 Q-16.85 -121.05 9.6 -123.85 L18.35 -124.8 Q41.6 -127.5 58.75 -130.9 77.3 -134.5 99.75 -141.15 L151.5 -157.35 Q161.9 -160.65 176.35 -166.7 M-31.95 -103.7 L-34.55 -102.25 -34.6 -102.25 -40.05 -98.55 Q-48.75 -93.75 -57.05 -80.35 -60.1 -75.45 -62.2 -71.05 L-62.65 -70.2 Q-66.5 -66.0 -70.95 -62.65 -76.5 -63.0 -80.7 -65.95 L-81.9 -68.05 Q-83.4 -70.4 -84.85 -72.1 -86.75 -76.4 -88.8 -79.9 -96.2 -92.6 -108.6 -100.3 -112.3 -102.6 -116.45 -104.45 L-116.1 -104.4 -101.4 -101.15 Q-86.0 -97.5 -72.6 -97.5 L-35.0 -103.1 -31.95 -103.7" fill="#4a6462" fill-rule="evenodd" stroke="none"/>
      <path d="M70.55 -125.35 L76.2 -127.0 85.05 -129.85 88.3 -131.0 100.65 -134.1 103.2 -134.9 Q129.75 -143.0 152.5 -153.75 L152.9 -153.9 154.45 -154.65 175.95 -166.45 176.35 -166.7 176.4 -166.7 179.55 -168.75 188.3 -171.75 Q180.2 -164.35 173.0 -159.4 162.7 -154.15 151.9 -149.3 137.25 -143.6 119.55 -137.8 94.15 -128.6 64.55 -121.05 36.2 -113.85 10.25 -109.55 L8.25 -108.85 1.1 -107.9 -2.9 -107.3 -2.15 -107.65 -19.75 -105.5 Q-28.3 -103.05 -35.0 -98.65 L-40.05 -94.7 -40.1 -94.65 -42.75 -92.9 Q-48.0 -88.95 -51.65 -82.7 -53.2 -81.75 -54.6 -80.1 -56.5 -77.8 -59.9 -71.3 -63.15 -65.0 -65.4 -62.5 -68.35 -59.15 -72.1 -58.6 L-76.45 -59.4 Q-78.9 -60.8 -82.35 -64.3 L-83.5 -65.55 -85.55 -69.4 Q-89.0 -75.4 -93.55 -80.9 L-94.1 -81.8 Q-98.05 -88.3 -103.75 -93.3 -111.1 -99.8 -118.85 -101.95 -123.25 -104.05 -128.25 -105.5 L-145.85 -107.65 -145.1 -107.3 -149.1 -107.9 -156.25 -108.85 -158.25 -109.55 Q-184.2 -113.85 -212.55 -121.05 -242.15 -128.6 -267.55 -137.8 -285.25 -143.6 -299.9 -149.3 -310.7 -154.15 -321.0 -159.4 -327.6 -163.95 -334.9 -170.5 L-324.05 -166.5 -324.0 -166.5 -323.9 -166.45 -323.0 -165.85 -316.3 -161.9 -313.45 -160.35 Q-309.55 -158.2 -305.25 -156.05 L-301.75 -154.35 -300.5 -153.75 Q-277.75 -143.0 -251.2 -134.9 L-248.65 -134.1 -236.3 -131.0 -233.05 -129.85 -224.2 -127.0 Q-203.85 -120.85 -180.55 -117.3 L-179.1 -117.1 -177.15 -116.6 -176.6 -116.5 -176.55 -116.45 -175.2 -116.15 Q-165.0 -113.8 -151.1 -111.65 L-150.45 -111.55 -148.9 -111.35 -148.4 -111.25 Q-131.1 -108.7 -109.3 -106.65 L-87.6 -104.8 -60.4 -104.8 -38.7 -106.65 Q-16.6 -108.75 0.9 -111.35 18.95 -114.05 31.1 -117.1 L32.55 -117.3 Q52.65 -120.35 70.55 -125.35 M-31.95 -103.7 L-30.4 -104.5 -48.1 -103.55 -51.75 -102.8 -51.8 -102.8 -57.5 -103.35 -62.65 -103.35 -68.15 -104.0 -68.65 -104.05 -73.1 -104.15 -79.95 -104.0 -85.35 -103.35 -90.5 -103.35 -96.2 -102.8 -96.25 -102.8 -99.8 -103.5 -116.1 -104.4 -116.45 -104.45 Q-112.3 -102.6 -108.6 -100.3 -96.2 -92.6 -88.8 -79.9 -86.75 -76.4 -84.85 -72.1 -83.4 -70.4 -81.9 -68.05 L-80.7 -65.95 Q-76.5 -63.0 -70.95 -62.65 -66.5 -66.0 -62.65 -70.2 L-62.2 -71.05 Q-60.1 -75.45 -57.05 -80.35 -48.75 -93.75 -40.05 -98.55 L-34.6 -102.25 -34.55 -102.25 -31.95 -103.7" fill="#3f5453" fill-rule="evenodd" stroke="none"/>
      <path d="M-350.4 -193.1 L-350.45 -193.3 -350.55 -193.95 -350.45 -193.5 Q-343.15 -172.25 -259.75 -158.05 -237.0 -154.2 -212.45 -151.25 L-206.7 -150.3 Q-184.7 -146.85 -128.5 -143.5 L-106.4 -143.2 -101.1 -142.8 -95.0 -142.6 -57.3 -142.6 -54.8 -143.2 -8.2 -143.2 9.15 -145.65 17.7 -146.2 Q37.95 -146.55 61.3 -149.1 96.95 -152.9 129.0 -160.55 162.45 -168.55 182.0 -178.4 199.75 -187.35 202.8 -196.35 L202.8 -196.3 Q202.8 -187.15 188.7 -175.55 L188.25 -175.15 188.2 -175.1 Q171.45 -167.6 148.35 -161.25 134.8 -157.55 119.8 -154.4 113.9 -152.45 110.5 -151.75 80.0 -145.2 30.6 -141.1 -21.1 -136.85 -75.75 -136.85 L-125.15 -139.2 Q-168.25 -142.15 -204.95 -146.85 -225.1 -149.45 -241.5 -152.25 -264.15 -155.4 -280.85 -158.65 -315.3 -165.3 -334.0 -173.4 L-336.7 -175.55 Q-348.4 -185.15 -350.4 -193.1" fill="#5a6267" fill-rule="evenodd" stroke="none"/>
      <path d="M176.35 -166.7 Q161.9 -160.65 151.5 -157.35 L99.75 -141.15 Q77.3 -134.5 58.75 -130.9 41.6 -127.5 18.35 -124.8 L9.6 -123.85 Q-16.85 -121.05 -66.75 -117.35 L-99.0 -117.35 Q-149.35 -121.15 -184.3 -126.45 L-190.95 -127.5 Q-208.95 -130.45 -238.0 -136.35 -263.95 -141.55 -305.05 -158.55 L-323.9 -166.45 -324.0 -166.5 -324.05 -166.5 Q-329.5 -169.95 -334.0 -173.4 -315.3 -165.3 -280.85 -158.65 -264.15 -155.4 -241.5 -152.25 -225.1 -149.45 -204.95 -146.85 -168.25 -142.15 -125.15 -139.2 L-75.75 -136.85 Q-21.1 -136.85 30.6 -141.1 80.0 -145.2 110.5 -151.75 113.9 -152.45 119.8 -154.4 134.8 -157.55 148.35 -161.25 171.45 -167.6 188.2 -175.1 184.3 -171.95 179.55 -168.75 L176.4 -166.7 176.35 -166.7" fill="#484e53" fill-rule="evenodd" stroke="none"/>
      <path d="M-177.15 -116.6 L-176.8 -116.6 -176.6 -116.5 -177.15 -116.6 M-148.4 -111.25 L-147.65 -111.15 -125.85 -109.0 -63.25 -109.05 -63.9 -109.0 -56.25 -109.0 -54.4 -109.2 -35.0 -109.5 Q10.6 -115.7 70.55 -125.35 52.65 -120.35 32.55 -117.3 L31.1 -117.1 Q18.95 -114.05 0.9 -111.35 -16.6 -108.75 -38.7 -106.65 L-60.4 -104.8 -87.6 -104.8 -109.3 -106.65 Q-131.1 -108.7 -148.4 -111.25 M-116.1 -104.4 L-99.8 -103.5 -96.25 -102.8 -96.2 -102.8 -90.5 -103.35 -85.35 -103.35 -79.95 -104.0 -73.1 -104.15 -68.65 -104.05 -68.15 -104.0 -62.65 -103.35 -57.5 -103.35 -51.8 -102.8 -51.75 -102.8 -48.1 -103.55 -30.4 -104.5 -31.95 -103.7 -35.0 -103.1 -72.6 -97.5 Q-86.0 -97.5 -101.4 -101.15 L-116.1 -104.4" fill="#577372" fill-rule="evenodd" stroke="none"/>
      <path d="M-81.8 -229.2 Q-73.6 -230.0 -68.0 -229.55 -61.7 -229.0 -61.7 -227.0 L-61.75 -226.5 -49.2 -227.2 -49.0 -226.95 Q-48.8 -226.85 -48.8 -225.7 -48.8 -221.65 -57.0 -219.8 -66.9 -217.6 -91.9 -217.6 -103.1 -217.6 -106.4 -220.05 -107.6 -220.95 -107.6 -223.1 -107.6 -226.0 -104.6 -226.7 L-95.15 -226.95 Q-89.65 -228.5 -81.8 -229.2" fill="#403d56" fill-rule="evenodd" stroke="none"/>
    </g>
  </defs>
</svg>
