<?xml version="1.0" encoding="UTF-8" standalone="no"?>
<svg xmlns:ffdec="https://www.free-decompiler.com/flash" xmlns:xlink="http://www.w3.org/1999/xlink" ffdec:objectType="frame" height="554.75px" width="840.0px" xmlns="http://www.w3.org/2000/svg">
  <g transform="matrix(1.0, 0.0, 0.0, 1.0, 407.75, 122.5)">
    <use ffdec:characterId="6" height="77.7" transform="matrix(7.0, 0.0, 0.0, 7.0, -402.15, -122.5)" width="119.1" xlink:href="#shape0"/>
  </g>
  <defs>
    <g id="shape0" transform="matrix(1.0, 0.0, 0.0, 1.0, 57.45, 17.5)">
      <path d="M-11.45 17.25 L-11.6 17.0 -11.55 16.85 -11.45 17.25" fill="#ffffff" fill-rule="evenodd" stroke="none"/>
      <path d="M41.15 0.0 Q41.6 0.0 41.95 0.2 42.25 0.35 42.25 0.55 L40.25 0.45 40.35 0.35 41.15 0.0" fill="#cccccc" fill-rule="evenodd" stroke="none"/>
      <path d="M28.85 -2.2 Q29.75 -2.4 29.1 -1.95 28.5 -2.1 28.85 -2.2" fill="#ffff33" fill-rule="evenodd" stroke="none"/>
      <path d="M9.95 0.75 L11.05 1.15 12.3 0.85 Q11.75 1.5 11.6 2.35 11.55 2.75 11.75 3.1 12.25 3.45 12.8 3.5 L14.2 3.7 Q16.1 3.35 16.1 1.65 L16.05 1.6 Q15.85 1.3 15.7 0.5 15.7 0.25 15.75 -0.05 15.8 -0.3 15.95 -0.5 L16.55 -0.45 Q16.75 -0.5 17.05 -0.6 L18.05 -0.2 17.65 -0.25 Q18.15 0.2 18.8 0.6 L18.75 0.95 18.85 1.0 Q19.15 1.9 19.8 2.65 20.15 3.0 20.6 3.25 L22.15 1.9 Q26.2 4.65 31.1 4.55 L31.65 4.5 31.45 6.15 Q30.8 6.4 30.2 6.1 29.2 5.7 28.85 5.4 28.9 6.5 27.75 6.55 26.5 6.6 26.2 5.35 L24.85 5.3 Q24.6 5.75 24.4 6.25 24.0 7.3 23.95 8.4 L21.95 9.0 20.8 8.45 20.6 8.85 Q20.35 9.25 19.9 9.5 19.6 9.6 19.35 9.7 L19.15 7.85 19.95 7.5 Q19.65 6.4 18.75 5.75 18.15 5.35 17.4 5.45 L16.9 6.25 13.75 6.55 13.15 5.95 Q8.65 1.75 4.25 6.2 L4.4 5.25 6.15 3.85 6.65 4.0 8.05 2.85 8.85 2.75 8.45 2.5 9.45 1.45 9.4 1.2 9.95 0.75 M42.3 0.65 L42.45 0.95 Q42.05 1.35 41.5 1.55 40.5 1.95 39.5 1.6 L39.4 2.1 39.5 2.35 39.2 2.55 Q37.75 3.5 36.1 2.8 36.6 1.95 37.35 1.45 38.75 1.4 39.7 0.85 L39.7 0.85 39.8 0.8 42.3 0.65 M-1.05 13.25 Q-0.45 19.7 -1.95 26.0 L-2.55 25.8 Q-3.55 25.4 -4.2 24.5 -3.45 19.35 -1.55 14.45 L-1.05 13.25 M-5.1 24.85 L-5.25 25.05 -5.4 24.5 -6.3 25.3 -5.05 20.2 -4.95 20.2 -5.1 24.85 M-6.7 28.5 L-5.95 28.65 -5.25 30.95 -5.35 31.3 Q-4.8 31.75 -4.6 32.4 -4.15 33.65 -5.45 33.95 L-5.7 42.7 -6.6 42.7 -6.9 42.35 Q-6.75 44.5 -8.0 46.2 L-8.35 46.7 Q-10.05 41.2 -7.65 35.95 L-8.25 35.55 -7.6 35.6 -8.15 33.85 -8.8 33.65 -9.0 33.05 -9.8 32.9 Q-10.15 33.35 -10.15 33.95 -10.2 34.7 -10.8 35.05 -11.2 34.95 -11.2 34.5 -11.15 33.35 -11.25 32.2 L-11.95 32.1 Q-12.3 29.35 -10.35 27.25 L-10.45 26.95 Q-12.4 25.4 -12.45 22.85 -11.05 21.15 -10.55 19.0 -12.0 16.55 -11.25 13.8 L-10.2 13.4 Q-10.9 16.1 -9.9 18.7 L-9.65 19.35 -9.95 20.8 -9.5 19.65 -9.25 21.6 Q-8.9 17.2 -5.9 13.95 -10.25 22.55 -8.2 32.05 L-8.1 31.4 -7.65 33.45 -7.7 32.65 -7.55 32.45 -7.3 33.15 -7.3 32.9 -7.15 33.15 -6.7 28.5 M-8.0 9.25 Q-8.7 6.25 -8.25 3.25 -8.45 3.0 -8.8 2.85 -9.8 2.45 -10.85 2.2 -12.0 1.95 -12.45 0.8 L-14.85 1.2 -14.75 1.5 Q-15.2 2.45 -15.85 3.25 -17.25 5.05 -19.1 4.1 L-19.45 1.25 -21.25 0.45 -20.8 1.55 -23.8 0.65 Q-23.85 1.05 -23.9 1.4 -24.55 4.05 -27.15 4.7 -28.8 3.7 -28.8 1.75 L-30.45 1.45 Q-30.6 1.55 -30.75 1.6 -32.1 2.1 -33.35 1.3 L-33.35 1.75 -34.65 1.0 -34.4 0.15 Q-33.95 0.0 -33.35 0.0 L-33.35 -0.2 -33.3 -0.2 -33.25 -0.2 Q-31.2 -1.2 -28.65 -1.5 -28.25 -0.85 -27.55 -0.2 L-27.4 -0.05 -27.4 -0.2 Q-27.3 -0.85 -27.3 -1.65 L-25.95 -1.7 Q-26.6 -1.05 -26.55 -0.25 L-26.4 -0.1 Q-26.15 0.1 -25.85 0.2 L-25.35 0.25 Q-25.2 0.2 -24.95 0.2 -23.95 0.15 -23.55 -0.7 -22.7 -0.7 -21.35 -1.0 L-20.4 -1.1 Q-21.15 0.5 -18.35 0.6 -18.05 0.6 -17.75 0.35 -16.9 -0.35 -16.75 -1.4 -16.7 -1.7 -16.75 -1.95 -16.25 -1.95 -15.7 -1.8 -14.85 -1.55 -14.6 -0.9 L-14.8 -0.7 -14.55 -0.65 Q-14.5 -0.45 -14.55 -0.2 L-12.2 -0.2 -11.05 0.1 -7.0 1.15 -6.9 1.55 -7.15 1.55 Q-6.5 5.5 -8.0 9.25 M-33.35 1.8 Q-32.8 2.1 -32.6 2.65 -32.5 2.9 -32.55 3.15 -32.65 3.65 -32.9 4.0 L-34.5 4.25 -34.8 4.0 Q-35.85 3.1 -35.9 1.7 L-35.2 2.0 -35.05 2.0 -33.7 3.05 -33.5 2.85 -33.45 2.7 Q-33.2 2.3 -33.35 1.8 M-7.45 -1.05 Q-7.6 -1.4 -7.6 -1.85 -7.65 -2.9 -7.25 -3.8 -6.1 -4.5 -4.95 -3.75 L-4.45 -3.45 -4.45 -3.4 Q-3.9 -3.8 -3.15 -4.05 -2.9 -4.45 -2.8 -5.0 -2.65 -6.05 -1.8 -6.7 L-0.7 -6.6 Q-0.6 -6.55 -0.45 -6.45 -0.3 -6.25 -0.2 -6.0 -0.9 -2.05 -4.05 -0.2 L-5.05 -0.2 -5.55 -0.3 -5.75 -0.35 Q-6.6 -0.55 -7.45 -1.05 M5.95 -2.4 Q5.7 -2.5 5.45 -2.65 4.65 -4.2 6.1 -5.1 6.9 -5.6 8.2 -5.1 9.25 -7.45 11.65 -7.2 12.95 -7.1 12.8 -5.75 12.8 -5.65 12.75 -5.55 12.45 -5.4 12.25 -5.45 11.65 -5.65 11.1 -5.55 10.5 -4.3 9.2 -4.0 7.7 -3.6 6.9 -2.65 6.7 -2.35 6.45 -2.35 L5.95 -2.4 M22.45 -10.2 Q23.65 -10.35 23.9 -9.15 24.1 -8.25 23.15 -8.3 23.05 -8.75 22.75 -9.2 22.45 -9.7 22.45 -10.2 M15.25 -3.65 L14.2 -2.7 Q14.1 -2.6 13.95 -2.6 13.5 -2.9 12.95 -3.0 12.2 -3.1 12.2 -3.8 12.85 -5.8 15.3 -4.55 L15.45 -4.4 Q15.55 -3.9 15.25 -3.65 M19.5 -1.55 Q19.35 -1.85 19.3 -2.1 19.25 -2.45 19.4 -2.7 20.5 -3.1 21.1 -1.9 21.6 -1.0 20.7 -0.85 L20.45 -0.85 Q20.25 -0.9 20.05 -1.0 19.9 -1.05 19.7 -1.15 L19.5 -1.55 M26.95 -3.95 Q26.55 -3.05 25.85 -2.7 25.4 -2.7 25.0 -2.85 24.55 -3.05 24.4 -3.5 24.45 -4.35 25.15 -5.0 26.0 -5.8 26.95 -5.05 27.2 -4.5 26.95 -3.95 M14.0 5.35 L14.2 5.6 14.7 5.65 14.0 5.35 M7.0 9.3 L8.35 9.3 Q8.7 10.25 9.35 10.6 10.85 11.4 11.4 9.75 12.65 9.9 12.45 11.4 12.2 13.3 10.35 13.8 L10.35 13.85 Q8.15 14.1 8.05 12.1 8.0 10.25 6.75 10.8 L6.45 10.65 Q6.15 10.4 6.4 10.1 L7.0 9.3 M-25.2 -5.35 Q-25.45 -5.2 -25.6 -5.1 -26.9 -6.45 -25.15 -6.1 -24.35 -5.95 -25.2 -5.35 M-26.55 -2.95 Q-25.8 -4.25 -24.95 -3.15 -24.25 -2.2 -25.35 -1.9 -25.75 -1.95 -26.15 -2.1 -26.7 -2.35 -26.55 -2.95 M-14.5 -4.15 Q-14.3 -4.05 -14.2 -3.9 -14.1 -3.5 -14.3 -3.15 -14.55 -2.6 -15.0 -2.5 -15.3 -2.6 -15.6 -2.7 -15.95 -2.9 -16.0 -3.35 L-16.05 -3.55 Q-15.9 -4.85 -14.5 -4.15 M-16.85 -5.75 Q-18.05 -5.7 -18.75 -6.6 -17.7 -9.6 -14.65 -7.75 -12.55 -6.45 -14.2 -5.25 -15.55 -5.75 -16.85 -5.75 M-11.3 1.0 L-11.3 1.05 Q-11.15 1.15 -11.3 1.0 M-17.65 10.5 L-15.8 10.05 Q-15.15 9.9 -14.75 10.35 -14.3 11.45 -14.7 12.5 -15.15 13.65 -16.3 13.9 -17.75 13.7 -17.9 12.25 -18.0 11.4 -17.65 10.5 M-2.15 24.75 L-2.2 24.5 -2.45 24.75 -2.15 24.75 M-15.25 49.45 L-16.95 48.5 -17.8 47.9 Q-16.35 48.4 -15.25 49.25 L-15.25 49.45 M-7.3 35.75 L-7.15 35.45 -7.45 35.05 -7.3 35.75" fill="#579800" fill-rule="evenodd" stroke="none"/>
      <path d="M-0.2 -6.0 Q0.0 -7.0 0.0 -8.1 0.1 -11.05 -2.75 -12.7 -6.15 -14.65 -9.7 -16.1 L-9.15 -16.35 -9.7 -16.35 Q-6.35 -18.1 -3.65 -17.15 0.2 -16.55 2.8 -12.0 5.5 -7.15 2.35 -2.1 L2.0 -1.55 Q2.7 -0.3 4.8 0.1 L7.1 0.25 Q7.85 -0.15 8.55 -0.85 10.8 -2.95 13.2 -1.6 11.65 -0.75 9.95 0.45 L10.45 0.5 Q10.2 0.6 9.95 0.75 L9.4 1.2 9.45 1.45 8.45 2.5 8.05 2.85 6.65 4.0 6.15 3.85 4.4 5.25 3.6 6.0 Q0.55 9.2 -1.05 13.25 L-1.55 14.45 Q-3.45 19.35 -4.2 24.5 L-4.55 29.55 -4.8 28.6 -4.85 29.0 -5.0 28.2 -5.05 28.45 -5.1 24.85 -4.95 20.2 -4.85 19.6 -5.05 20.2 -6.3 25.3 -6.7 28.5 -7.15 33.15 -7.3 32.9 -7.3 33.15 -7.55 32.45 -7.7 32.65 -7.65 33.45 -8.1 31.4 -8.2 32.05 Q-10.25 22.55 -5.9 13.95 -8.9 17.2 -9.25 21.6 L-9.5 19.65 -9.95 20.8 -9.65 19.35 -9.9 18.7 Q-10.9 16.1 -10.2 13.4 L-9.1 10.5 -9.1 10.7 -8.75 9.9 -9.1 11.3 -8.0 9.25 Q-6.5 5.5 -7.15 1.55 L-6.9 1.55 -7.0 1.15 -11.05 0.1 -12.2 -0.2 -14.55 -0.65 -14.8 -0.7 -14.6 -0.9 Q-11.65 -3.6 -7.5 -1.1 L-7.45 -1.05 Q-6.6 -0.55 -5.75 -0.35 L-5.55 -0.3 -5.05 -0.2 -4.05 -0.2 Q-0.9 -2.05 -0.2 -6.0 M15.95 -0.5 L15.25 -0.5 Q14.5 -0.55 14.35 -1.1 14.6 -1.6 15.2 -1.8 16.55 -2.2 17.6 -1.5 L17.6 -1.3 Q17.55 -0.85 17.1 -0.65 L17.05 -0.6 Q16.75 -0.5 16.55 -0.45 L15.95 -0.5 M18.05 -0.2 L20.3 -0.1 20.05 -0.15 20.6 -0.1 Q21.75 -0.15 22.95 -0.35 L23.55 -0.9 24.05 -1.4 Q27.3 -1.45 30.3 -0.45 32.2 0.2 34.05 -0.45 L34.1 -0.65 34.0 -0.85 Q34.0 -0.95 34.0 -1.05 34.05 -1.45 34.2 -1.8 L34.35 -2.0 Q36.3 -2.9 38.4 -1.95 39.9 -1.25 40.6 0.05 L41.15 0.0 40.35 0.35 40.25 0.45 42.25 0.55 42.75 0.6 42.3 0.65 39.8 0.8 39.7 0.85 39.7 0.85 Q38.75 1.4 37.35 1.45 36.6 1.95 36.1 2.8 35.7 3.05 35.25 2.9 34.85 2.8 34.6 2.35 L34.5 2.15 33.35 2.35 31.65 4.5 31.1 4.55 Q26.2 4.65 22.15 1.9 L21.45 1.4 Q20.3 1.5 19.3 0.95 L18.8 0.6 Q18.15 0.2 17.65 -0.25 L18.05 -0.2 M-33.35 1.75 L-33.35 1.8 Q-33.2 2.3 -33.45 2.7 L-33.5 2.85 -33.7 3.05 -35.05 2.0 -35.2 2.0 -35.9 1.7 -36.7 1.0 -36.65 0.9 Q-37.6 -0.1 -35.8 -1.35 -34.55 -2.25 -33.35 -1.55 -33.3 -1.25 -33.25 -0.95 -33.2 -0.6 -33.3 -0.2 L-33.35 -0.2 -33.35 0.0 Q-33.95 0.0 -34.4 0.15 L-34.65 1.0 -33.35 1.75 M-28.65 -1.5 Q-30.1 -3.85 -28.65 -6.9 -27.25 -9.75 -24.85 -9.1 -27.8 -7.1 -27.45 -3.65 -27.35 -2.55 -27.3 -1.65 -27.3 -0.85 -27.4 -0.2 L-27.4 -0.05 -27.55 -0.2 Q-28.25 -0.85 -28.65 -1.5 M1.05 -0.35 L0.75 -0.1 1.4 -0.05 1.05 -0.35 M21.4 -13.25 Q25.25 -14.15 27.55 -13.05 30.75 -12.0 31.0 -7.35 L31.0 -6.7 Q31.25 -3.8 28.95 -2.35 L28.8 -2.8 Q28.15 -4.9 28.15 -8.3 28.15 -8.65 28.1 -9.0 27.7 -9.6 27.2 -10.15 25.2 -12.25 22.25 -12.55 21.45 -12.6 21.25 -13.25 L21.4 -13.25 M55.3 -3.5 Q58.8 -3.7 60.0 -1.45 62.05 -1.0 61.5 1.85 61.3 3.05 60.35 3.6 59.65 5.9 56.9 6.45 59.9 4.35 58.8 0.3 58.3 -1.5 56.35 -2.3 55.45 -2.65 55.3 -3.5 M54.95 -1.6 Q55.9 -2.45 56.75 -1.2 57.4 -0.3 56.4 0.05 55.8 -0.15 55.3 -0.6 54.85 -1.0 54.95 -1.6 M39.85 13.9 L39.8 14.7 Q39.8 15.4 39.05 15.4 L39.05 15.45 Q37.9 15.0 38.6 13.9 39.15 13.05 39.85 13.9 M23.15 1.0 L23.15 1.0 M43.75 21.25 Q45.95 21.7 45.9 24.65 45.85 28.0 42.65 29.2 L41.65 29.15 Q40.85 29.15 40.85 28.6 43.3 28.05 43.7 25.6 44.05 23.35 43.75 21.25 M17.0 35.8 Q18.1 35.0 19.3 35.85 19.9 36.25 20.15 36.9 20.2 37.45 19.65 37.55 L18.35 37.75 Q17.6 37.6 17.15 36.95 16.75 36.4 17.0 35.8 M40.05 40.05 Q39.0 45.7 33.35 47.2 32.4 47.25 31.5 47.0 30.55 46.75 30.2 45.95 29.25 45.45 28.7 44.4 33.8 46.15 36.95 42.0 38.2 40.35 38.6 38.6 38.35 37.65 37.5 36.7 38.25 36.5 38.8 36.55 38.75 35.35 38.35 34.15 40.9 34.75 40.4 38.45 40.3 39.1 40.1 39.8 L40.05 40.05 M33.55 42.95 Q33.1 43.15 32.85 43.3 31.3 42.95 32.85 42.15 33.9 41.6 34.85 41.65 35.2 42.2 34.45 42.55 34.05 42.75 33.55 42.95 M-45.6 24.35 Q-46.0 23.4 -45.25 22.75 -44.2 22.95 -43.4 24.05 -42.45 25.3 -43.95 25.75 -45.15 25.4 -45.6 24.35 M-39.85 26.75 Q-40.45 31.6 -39.65 36.45 -38.25 45.0 -29.8 48.55 L-29.75 48.95 -29.75 49.15 Q-29.75 49.25 -29.8 49.3 -29.95 49.6 -29.95 49.9 -29.95 50.0 -30.0 50.05 -40.85 48.95 -43.35 38.2 -44.9 31.45 -40.55 26.85 -40.35 26.65 -39.85 26.75 M-43.55 49.55 Q-43.7 47.9 -42.5 47.35 -42.55 48.85 -41.75 50.3 -40.85 52.0 -42.15 52.55 -43.4 51.35 -43.55 49.55 M-29.4 56.05 Q-29.9 56.8 -30.65 57.45 -32.5 59.1 -34.65 60.1 L-34.9 60.2 Q-37.65 60.45 -39.65 58.55 -40.65 57.6 -41.05 56.45 -40.4 57.2 -38.8 57.35 L-32.85 57.65 Q-31.6 57.5 -30.55 56.7 -30.1 56.35 -29.75 55.95 L-29.4 56.05 M-24.5 40.1 Q-23.85 39.05 -22.95 38.65 -23.05 39.45 -23.1 40.3 -23.2 47.3 -16.9 50.75 -17.7 50.95 -18.35 51.2 -25.5 50.9 -25.75 44.5 -25.8 42.2 -24.5 40.1 M-11.2 56.05 L-11.1 56.05 Q-10.85 56.15 -10.6 56.2 -5.9 54.7 -2.85 51.15 -1.75 49.85 -1.2 48.5 0.0 50.15 -1.25 52.2 -2.75 54.75 -4.9 56.65 -5.9 57.5 -7.0 57.8 -8.6 58.35 -9.9 57.65 -10.95 57.1 -11.25 56.05 L-11.2 56.05 M-20.05 55.95 Q-17.55 57.4 -15.75 57.85 L-16.05 58.0 Q-18.65 58.45 -20.85 57.15 -22.3 56.3 -23.9 56.1 -22.1 54.85 -20.05 55.95 M-55.5 2.45 Q-56.05 3.15 -56.9 3.45 -58.45 1.4 -55.85 -0.1 -53.95 -1.15 -52.95 0.4 -54.3 1.05 -55.5 2.45 M-55.35 6.9 Q-55.6 7.3 -55.95 7.65 -55.75 8.15 -55.65 8.8 -55.55 9.5 -56.1 9.55 -57.25 8.75 -56.9 7.25 -56.65 6.05 -55.4 5.9 -54.95 6.35 -55.35 6.9 M-50.65 19.2 Q-50.75 19.65 -51.1 20.0 -51.15 20.1 -51.15 20.15 -51.0 20.85 -50.6 21.4 -50.15 22.15 -50.95 22.35 -52.7 21.5 -52.15 19.5 -51.75 17.9 -50.7 18.6 -50.6 18.9 -50.65 19.2 M-54.75 27.95 Q-55.05 28.2 -55.25 28.55 -55.0 28.45 -54.7 28.6 L-54.4 29.6 -54.4 29.7 -54.05 29.7 Q-52.95 29.7 -54.05 30.25 L-54.45 30.1 Q-54.55 30.25 -54.85 30.25 -55.4 30.2 -55.6 29.85 -55.55 30.3 -55.4 30.8 -52.85 32.45 -49.85 31.65 -49.35 31.55 -49.2 32.15 -50.6 33.9 -53.55 33.25 L-53.55 33.3 Q-57.4 32.6 -56.95 28.85 -56.6 26.15 -54.25 25.6 -53.6 26.85 -54.75 27.95" fill="#76c211" fill-rule="evenodd" stroke="none"/>
    </g>
  </defs>
</svg>
