<?xml version="1.0" encoding="UTF-8" standalone="no"?>
<svg xmlns:ffdec="https://www.free-decompiler.com/flash" xmlns:xlink="http://www.w3.org/1999/xlink" ffdec:objectType="frame" height="4.5px" width="207.5px" xmlns="http://www.w3.org/2000/svg">
  <g transform="matrix(1.0, 0.0, 0.0, 1.0, 0.0, 1.2)">
    <use ffdec:characterId="454" height="4.5" transform="matrix(1.0, 0.0, 0.0, 1.0, 0.0, -1.2)" width="207.5" xlink:href="#shape0"/>
  </g>
  <defs>
    <g id="shape0" transform="matrix(1.0, 0.0, 0.0, 1.0, 0.0, 1.2)">
      <path d="M55.0 3.3 L0.0 3.3 0.0 -1.2 55.0 -1.2 55.0 3.3 55.0 -1.2 207.5 -1.2 207.5 3.3 55.0 3.3" fill="#332c02" fill-rule="evenodd" stroke="none"/>
      <path d="M55.0 0.0 L207.5 0.0 207.5 2.0 55.0 2.0 55.0 0.0 55.0 2.0 0.0 2.0 0.0 0.0 55.0 0.0" fill="#f8dd45" fill-rule="evenodd" stroke="none"/>
      <path d="M55.0 1.15 L207.5 1.15 207.5 2.0 55.0 2.0 55.0 1.15 55.0 2.0 0.0 2.0 0.0 1.15 55.0 1.15" fill="#a68e06" fill-rule="evenodd" stroke="none"/>
    </g>
  </defs>
</svg>
