<?xml version="1.0" encoding="UTF-8" standalone="no"?>
<svg xmlns:ffdec="https://www.free-decompiler.com/flash" xmlns:xlink="http://www.w3.org/1999/xlink" ffdec:objectType="frame" height="8.7px" width="8.75px" xmlns="http://www.w3.org/2000/svg">
  <g transform="matrix(1.0, 0.0, 0.0, 1.0, 4.4, 4.3)">
    <use ffdec:characterId="442" height="8.7" transform="matrix(1.0, 0.0, 0.0, 1.0, -4.4, -4.3)" width="8.75" xlink:href="#shape0"/>
  </g>
  <defs>
    <g id="shape0" transform="matrix(1.0, 0.0, 0.0, 1.0, 4.4, 4.3)">
      <path d="M-4.35 0.2 L-4.25 0.2 -3.85 0.65 -2.9 2.2 -2.1 3.6 -1.85 4.25 -3.45 2.65 -4.1 1.95 -4.15 2.0 -4.25 2.0 -4.3 1.9 -4.35 1.6 -4.35 1.55 -4.4 0.95 -4.35 0.2 M0.4 4.3 L0.35 4.3 Q-0.25 3.25 -1.0 2.45 L-1.95 1.05 -4.05 -1.9 -4.1 -1.9 -4.1 -1.95 -4.15 -2.0 -4.25 -2.15 -4.2 -2.2 -0.9 0.95 2.15 4.25 2.15 4.3 0.4 4.3" fill="#7a8185" fill-rule="evenodd" stroke="none"/>
      <path d="M-4.35 0.2 L-4.35 -1.9 -4.2 -2.05 -4.15 -2.0 -4.1 -1.95 -4.1 -1.9 -4.05 -1.9 -1.95 1.05 -1.0 2.45 Q-0.25 3.25 0.35 4.3 L0.4 4.3 0.3 4.4 0.25 4.4 0.1 4.3 -1.7 4.3 -1.75 4.25 -1.85 4.25 -2.1 3.6 -2.9 2.2 -3.85 0.65 -4.25 0.2 -4.35 0.2" fill="#d7d8d9" fill-rule="evenodd" stroke="none"/>
      <path d="M-3.9 -4.25 L-3.85 -4.3 -3.65 -4.15 -3.6 -4.15 -1.4 -2.0 -0.15 -0.7 0.0 -0.6 Q1.25 0.3 2.9 2.4 L4.2 3.95 4.2 4.0 4.25 4.0 4.25 4.05 4.3 4.1 4.25 4.1 4.35 4.25 4.2 4.3 2.05 4.3 1.1 3.35 -0.45 1.7 -4.0 -1.85 -4.05 -1.9 -4.1 -1.95 -4.15 -2.0 -4.2 -2.05 -4.35 -2.15 -4.35 -2.7 -4.3 -2.65 -4.25 -2.8 -4.25 -3.5 -4.15 -3.8 -4.25 -4.05 -4.3 -4.2 -4.3 -4.3 -3.9 -4.3 -3.9 -4.25 M-4.1 1.8 L-3.9 1.95 -2.05 3.9 -1.75 4.25 -1.7 4.3 -4.25 4.3 -4.3 4.15 Q-4.15 3.6 -4.35 3.2 L-4.35 1.75 -4.25 1.75 -4.2 1.75 -4.1 1.8" fill="#313435" fill-rule="evenodd" stroke="none"/>
    </g>
  </defs>
</svg>
