<?xml version="1.0" encoding="UTF-8" standalone="no"?>
<svg xmlns:ffdec="https://www.free-decompiler.com/flash" xmlns:xlink="http://www.w3.org/1999/xlink" ffdec:objectType="frame" height="498.75px" width="429.1px" xmlns="http://www.w3.org/2000/svg">
  <g transform="matrix(1.0, 0.0, 0.0, 1.0, 214.55, 284.9)">
    <use ffdec:characterId="3116" height="12.7" transform="matrix(7.0, 0.0, 0.0, 7.0, -39.2, -45.85)" width="14.8" xlink:href="#shape0"/>
  </g>
  <defs>
    <g id="shape0" transform="matrix(1.0, 0.0, 0.0, 1.0, 5.6, 6.55)">
      <path d="M2.25 -5.7 Q2.25 -5.3 2.15 -5.2 L1.95 -5.0 1.95 -4.95 Q1.95 -4.85 1.85 -4.7 1.8 -4.5 1.8 -4.45 L1.8 -4.0 Q1.75 -3.8 1.5 -3.6 1.15 -3.35 0.6 -3.35 0.2 -3.65 -0.05 -4.05 -1.25 -3.95 -1.3 -3.75 L-1.35 -3.6 -1.95 -3.55 -2.45 -3.55 -2.55 -3.65 -2.6 -3.75 -2.7 -3.75 -2.65 -3.8 -2.65 -3.85 Q-2.65 -3.9 -2.6 -4.0 -2.6 -4.1 -2.65 -4.15 L-2.75 -4.2 Q-2.75 -4.35 -2.8 -4.4 -2.9 -4.6 -2.9 -4.8 -2.9 -5.05 -2.55 -5.35 L-2.45 -5.5 -2.35 -5.55 -2.3 -5.55 -1.45 -6.0 -1.2 -6.0 Q-1.15 -5.95 -1.15 -5.85 L-0.7 -5.85 -0.75 -5.95 Q0.45 -6.8 1.45 -6.5 1.8 -6.4 2.05 -6.15 2.25 -5.9 2.25 -5.7 M0.9 -5.4 Q0.5 -5.2 -0.1 -4.8 -0.4 -4.6 -0.85 -4.6 L-1.45 -4.6 -1.5 -4.7 -1.55 -4.85 -2.5 -4.95 -2.55 -5.0 -2.6 -5.0 -2.7 -4.8 Q-2.7 -4.7 -2.5 -4.4 L-2.35 -4.05 Q-2.35 -3.95 -2.4 -3.85 L-2.45 -3.8 -2.35 -3.75 Q-1.9 -3.8 -1.45 -4.0 -0.9 -4.25 -0.65 -4.3 L0.05 -4.3 Q0.3 -4.3 0.3 -4.15 0.3 -3.95 0.35 -3.9 0.4 -3.85 0.55 -3.8 0.7 -3.8 0.75 -3.65 1.1 -3.7 1.3 -3.85 1.3 -3.9 1.45 -4.05 L1.55 -4.15 1.55 -4.35 1.6 -4.75 1.65 -4.85 Q1.4 -4.85 1.15 -4.95 1.1 -5.0 1.1 -5.1 1.1 -5.25 1.15 -5.3 L0.9 -5.4 M2.75 -4.8 Q3.15 -5.2 3.7 -5.3 5.75 -5.7 6.85 -4.8 7.25 -4.5 7.5 -4.1 7.65 -3.75 7.65 -3.55 L7.65 -3.05 Q7.6 -2.8 7.45 -2.6 L8.1 -1.95 Q8.45 -1.55 8.55 -1.15 L8.8 -0.35 Q8.95 0.2 8.95 0.45 8.95 0.8 8.65 1.75 8.35 2.65 8.2 2.85 L8.0 3.1 8.2 3.1 8.4 3.25 8.6 3.2 Q8.65 3.15 8.7 3.15 8.85 3.1 8.9 3.25 L9.15 3.7 9.2 4.05 Q9.2 4.45 9.05 4.7 8.9 4.9 8.35 5.35 L7.85 5.65 7.65 5.7 7.4 5.65 Q7.35 5.7 7.3 5.8 L7.2 5.95 Q7.0 6.15 6.4 6.15 L5.65 6.05 Q5.4 6.0 5.1 5.8 5.25 5.6 5.6 5.45 5.85 5.3 5.9 5.2 L5.85 5.05 Q5.85 5.0 6.05 4.7 5.85 4.85 5.75 4.85 5.6 4.85 5.5 4.75 L5.4 4.65 Q5.1 4.65 5.0 4.75 4.9 4.8 4.85 4.95 4.7 5.35 4.25 5.5 L4.05 5.5 3.85 5.2 Q3.8 5.05 3.55 5.05 L3.0 5.15 1.75 5.25 1.35 5.25 1.1 5.35 0.7 5.35 Q0.45 5.15 0.0 5.15 L-0.75 5.2 Q-1.2 5.25 -1.45 5.15 -1.8 5.0 -2.0 4.55 -2.6 4.5 -2.8 4.25 L-2.9 4.05 Q-2.95 3.9 -3.05 3.85 -3.25 3.75 -3.25 3.5 -3.25 3.3 -3.1 3.1 -3.25 3.05 -3.35 2.95 -3.5 2.85 -3.9 2.95 -4.15 2.85 -4.6 2.6 -5.0 2.4 -5.15 2.15 -5.4 1.8 -5.4 1.65 -5.35 1.45 -5.35 1.2 -5.35 0.55 -5.1 -0.2 -4.85 -0.95 -4.4 -1.55 -3.95 -2.2 -3.5 -2.5 -2.95 -2.8 -2.5 -2.65 -2.25 -2.65 -2.2 -2.75 L-2.25 -2.95 Q-2.25 -3.05 -2.15 -3.15 -2.0 -3.2 -1.55 -3.2 L-0.85 -3.2 -0.05 -3.15 Q0.1 -2.95 0.1 -2.8 0.05 -2.7 0.05 -2.6 0.05 -2.4 0.45 -2.15 L1.2 -1.75 1.4 -1.75 1.6 -1.85 1.9 -1.9 2.25 -1.85 2.35 -1.85 Q2.4 -1.95 2.45 -2.05 1.9 -2.35 1.75 -2.55 1.7 -2.6 1.7 -2.95 1.7 -3.3 2.05 -3.65 2.4 -4.05 2.4 -4.2 2.45 -4.45 2.75 -4.8 M4.25 -2.3 Q5.0 -2.6 5.55 -2.6 L6.4 -2.55 6.6 -2.4 Q6.6 -2.3 6.85 -2.3 7.1 -2.3 7.25 -2.7 7.35 -3.0 7.35 -3.25 7.35 -3.4 7.2 -3.8 7.05 -4.2 6.95 -4.3 L6.55 -4.3 Q6.45 -4.25 6.3 -4.1 L6.4 -4.1 Q6.45 -4.05 6.45 -3.95 6.45 -3.6 5.95 -3.3 5.1 -2.85 3.25 -2.95 3.05 -2.85 2.65 -2.5 L2.95 -2.15 Q3.15 -1.95 3.25 -1.95 3.4 -2.0 4.25 -2.3 M4.15 -0.45 Q4.05 -0.25 4.1 0.0 L4.15 0.2 Q4.15 1.4 1.45 1.85 L1.3 1.75 Q1.2 1.65 1.2 1.55 L0.65 1.55 0.15 1.6 Q-0.5 1.6 -1.25 1.4 -1.95 1.2 -2.15 1.1 -2.25 1.0 -2.4 0.8 -2.5 0.6 -2.55 0.5 -2.6 0.2 -2.75 -0.25 -2.8 -0.45 -2.95 -0.55 -3.15 -0.75 -3.65 -0.75 -4.15 -0.75 -4.7 0.0 -4.95 0.35 -5.1 0.75 L-5.1 0.8 Q-5.1 1.55 -4.9 1.95 -4.5 2.7 -3.35 2.55 L-3.05 2.7 Q-2.95 2.8 -2.85 2.95 -2.75 3.0 -2.8 3.15 L-2.85 3.4 Q-2.85 3.5 -2.75 3.65 L-2.6 3.9 -2.6 3.95 Q-2.6 4.05 -2.6 4.1 -2.5 4.2 -1.9 4.25 -1.8 4.25 -1.7 4.5 -1.6 4.7 -1.3 4.75 L-0.65 4.85 0.3 4.9 0.6 5.0 0.9 5.05 0.85 5.05 0.85 4.9 1.5 4.9 1.55 4.85 1.6 4.85 2.1 4.8 3.3 4.7 Q3.65 4.7 3.9 4.9 4.2 5.15 4.25 5.15 4.35 5.15 4.6 4.8 L4.85 4.45 5.05 4.3 5.65 4.3 Q5.7 4.3 5.85 4.35 L6.0 4.3 6.25 4.35 Q6.5 4.35 6.75 4.2 6.65 4.3 6.65 4.4 L6.6 4.45 Q6.45 4.6 6.45 4.7 6.45 4.8 6.35 4.95 L6.2 5.3 5.6 5.75 6.0 5.8 6.35 5.8 Q6.7 5.8 6.9 5.65 L6.8 5.65 Q6.7 5.6 6.7 5.55 L7.8 5.0 Q8.3 4.65 8.3 4.2 L8.25 4.0 8.2 3.9 8.0 3.85 7.8 3.85 7.75 3.7 7.9 3.5 8.0 3.35 Q7.95 3.4 7.8 3.45 L7.75 3.4 Q7.55 3.4 7.3 3.6 L7.25 3.65 Q7.5 3.3 7.5 3.1 7.8 2.8 8.2 1.85 8.65 0.85 8.65 0.45 L8.6 0.2 8.45 0.4 Q8.15 0.7 7.75 0.6 7.45 0.5 7.4 0.15 L7.4 -0.1 7.35 -0.35 Q7.3 -0.55 6.95 -0.75 6.45 -1.1 5.7 -1.1 4.35 -1.1 4.15 -0.45 M-4.45 3.3 L-4.2 3.25 -4.0 3.2 Q-3.8 3.2 -3.55 3.45 -3.4 3.7 -3.35 3.75 -3.35 3.85 -3.4 4.05 L-3.4 4.3 Q-3.4 4.45 -3.3 4.5 L-3.0 4.6 -2.55 4.6 Q-2.35 4.6 -2.05 4.85 -1.9 4.95 -1.75 5.2 -1.55 5.4 -1.1 5.3 L-1.05 5.45 Q-1.25 5.7 -1.4 5.8 -1.75 6.05 -2.3 6.1 L-3.55 6.1 Q-3.7 6.0 -3.8 5.8 -3.9 5.6 -3.9 5.5 L-3.95 5.45 -4.15 5.45 -4.2 5.65 Q-4.3 5.75 -4.4 5.75 -4.95 5.75 -5.3 5.05 -5.6 4.55 -5.6 4.15 -5.6 4.0 -5.5 3.85 L-5.3 3.55 Q-5.05 3.25 -5.25 3.0 L-4.9 3.0 -4.45 3.3 M-3.65 3.8 Q-3.75 3.6 -4.35 3.6 -4.65 3.6 -4.8 3.55 L-5.0 3.4 Q-5.1 3.7 -5.3 3.85 -5.45 4.0 -5.45 4.15 -5.45 4.5 -5.15 4.9 -4.8 5.45 -4.45 5.45 L-4.3 5.3 Q-4.2 5.2 -4.1 5.15 L-3.85 5.15 Q-3.65 5.3 -3.6 5.45 -3.6 5.5 -3.6 5.65 L-3.3 5.7 -2.9 5.75 -2.25 5.7 -1.7 5.6 Q-1.75 5.55 -2.0 5.35 L-2.3 5.05 Q-3.25 4.9 -3.55 4.7 -3.75 4.5 -3.7 4.2 -3.6 3.85 -3.65 3.8" fill="#7b9972" fill-rule="evenodd" stroke="none"/>
      <path d="M0.9 -5.4 L1.15 -5.3 Q1.1 -5.25 1.1 -5.1 1.1 -5.0 1.15 -4.95 1.4 -4.85 1.65 -4.85 L1.6 -4.75 1.55 -4.35 1.55 -4.15 1.45 -4.05 Q1.3 -3.9 1.3 -3.85 1.1 -3.7 0.75 -3.65 0.7 -3.8 0.55 -3.8 0.4 -3.85 0.35 -3.9 0.3 -3.95 0.3 -4.15 0.3 -4.3 0.05 -4.3 L-0.65 -4.3 Q-0.9 -4.25 -1.45 -4.0 -1.9 -3.8 -2.35 -3.75 L-2.45 -3.8 -2.4 -3.85 Q-2.35 -3.95 -2.35 -4.05 L-2.5 -4.4 Q-2.7 -4.7 -2.7 -4.8 L-2.6 -5.0 -2.55 -5.0 -2.5 -4.95 -1.55 -4.85 -1.5 -4.7 -1.45 -4.6 -0.85 -4.6 Q-0.4 -4.6 -0.1 -4.8 0.5 -5.2 0.9 -5.4 M4.25 -2.3 Q3.4 -2.0 3.25 -1.95 3.15 -1.95 2.95 -2.15 L2.65 -2.5 Q3.05 -2.85 3.25 -2.95 5.1 -2.85 5.95 -3.3 6.45 -3.6 6.45 -3.95 6.45 -4.05 6.4 -4.1 L6.3 -4.1 Q6.45 -4.25 6.55 -4.3 L6.95 -4.3 Q7.05 -4.2 7.2 -3.8 7.35 -3.4 7.35 -3.25 7.35 -3.0 7.25 -2.7 7.1 -2.3 6.85 -2.3 6.6 -2.3 6.6 -2.4 L6.4 -2.55 5.55 -2.6 Q5.0 -2.6 4.25 -2.3 M4.15 -0.45 Q4.35 -1.1 5.7 -1.1 6.45 -1.1 6.95 -0.75 7.3 -0.55 7.35 -0.35 L7.4 -0.1 7.4 0.15 Q7.45 0.5 7.75 0.6 8.15 0.7 8.45 0.4 L8.6 0.2 8.65 0.45 Q8.65 0.85 8.2 1.85 7.8 2.8 7.5 3.1 7.5 3.3 7.25 3.65 L7.3 3.6 Q7.55 3.4 7.75 3.4 L7.8 3.45 Q7.95 3.4 8.0 3.35 L7.9 3.5 7.75 3.7 7.8 3.85 8.0 3.85 8.2 3.9 8.25 4.0 8.3 4.2 Q8.3 4.65 7.8 5.0 L6.7 5.55 Q6.7 5.6 6.8 5.65 L6.9 5.65 Q6.7 5.8 6.35 5.8 L6.0 5.8 5.6 5.75 6.2 5.3 6.35 4.95 Q6.45 4.8 6.45 4.7 6.45 4.6 6.6 4.45 L6.65 4.4 Q6.65 4.3 6.75 4.2 6.5 4.35 6.25 4.35 L6.0 4.3 5.85 4.35 Q5.7 4.3 5.65 4.3 L5.05 4.3 4.85 4.45 4.6 4.8 Q4.35 5.15 4.25 5.15 4.2 5.15 3.9 4.9 3.65 4.7 3.3 4.7 L2.1 4.8 1.6 4.85 1.55 4.85 1.5 4.9 0.85 4.9 0.85 5.05 0.9 5.05 0.6 5.0 0.3 4.9 -0.65 4.85 -1.3 4.75 Q-1.6 4.7 -1.7 4.5 -1.8 4.25 -1.9 4.25 -2.5 4.2 -2.6 4.1 -2.6 4.05 -2.6 3.95 L-2.6 3.9 -2.75 3.65 Q-2.85 3.5 -2.85 3.4 L-2.8 3.15 Q-2.75 3.0 -2.85 2.95 -2.95 2.8 -3.05 2.7 L-3.35 2.55 Q-4.5 2.7 -4.9 1.95 -5.1 1.55 -5.1 0.8 L-5.1 0.75 Q-4.95 0.35 -4.7 0.0 -4.15 -0.75 -3.65 -0.75 -3.15 -0.75 -2.95 -0.55 -2.8 -0.45 -2.75 -0.25 -2.6 0.2 -2.55 0.5 -2.5 0.6 -2.4 0.8 -2.25 1.0 -2.15 1.1 -1.95 1.2 -1.25 1.4 -0.5 1.6 0.15 1.6 L0.65 1.55 1.2 1.55 Q1.2 1.65 1.3 1.75 L1.45 1.85 Q4.15 1.4 4.15 0.2 L4.1 0.0 Q4.05 -0.25 4.15 -0.45 M-3.65 3.8 Q-3.6 3.85 -3.7 4.2 -3.75 4.5 -3.55 4.7 -3.25 4.9 -2.3 5.05 L-2.0 5.35 Q-1.75 5.55 -1.7 5.6 L-2.25 5.7 -2.9 5.75 -3.3 5.7 -3.6 5.65 Q-3.6 5.5 -3.6 5.45 -3.65 5.3 -3.85 5.15 L-4.1 5.15 Q-4.2 5.2 -4.3 5.3 L-4.45 5.45 Q-4.8 5.45 -5.15 4.9 -5.45 4.5 -5.45 4.15 -5.45 4.0 -5.3 3.85 -5.1 3.7 -5.0 3.4 L-4.8 3.55 Q-4.65 3.6 -4.35 3.6 -3.75 3.6 -3.65 3.8" fill="#5d7356" fill-rule="evenodd" stroke="none"/>
    </g>
  </defs>
</svg>
