<?xml version="1.0" encoding="UTF-8" standalone="no"?>
<svg xmlns:ffdec="https://www.free-decompiler.com/flash" xmlns:xlink="http://www.w3.org/1999/xlink" ffdec:objectType="frame" height="116.65px" width="114.4px" xmlns="http://www.w3.org/2000/svg">
  <g transform="matrix(1.0, 0.0, 0.0, 1.0, 55.9, 100.9)">
    <use ffdec:characterId="273" height="108.05" transform="matrix(1.0, 0.0, 0.0, 1.0, -26.1, -98.05)" width="83.4" xlink:href="#shape0"/>
  </g>
  <defs>
    <g id="shape0" transform="matrix(1.0, 0.0, 0.0, 1.0, 26.1, 98.05)">
      <path d="M18.8 -22.35 Q19.45 -22.75 21.0 -22.0 L20.0 -20.85 Q18.8 -21.6 18.8 -22.35 M34.75 -15.3 L35.25 -13.35 35.1 -12.25 34.75 -11.6 34.5 -11.45 33.5 -11.35 Q31.9 -11.35 31.7 -11.9 L31.5 -13.1 28.05 -13.35 27.9 -13.25 Q27.75 -13.3 27.75 -14.1 L27.8 -14.85 29.75 -15.1 31.15 -16.25 Q32.35 -17.05 34.05 -17.1 L34.75 -15.3 M25.25 -19.6 L24.5 -19.25 23.05 -19.35 22.9 -19.15 Q22.75 -19.1 22.75 -19.9 22.75 -20.7 23.45 -20.95 L24.75 -21.1 Q25.25 -20.5 25.25 -19.6 M29.5 -17.5 L29.2 -16.65 Q29.0 -16.1 28.0 -16.1 L26.7 -16.2 26.3 -16.35 26.15 -16.6 Q26.0 -16.75 26.0 -17.5 26.0 -18.25 26.5 -18.4 L27.0 -18.5 28.5 -18.5 29.5 -17.5 M40.05 -10.25 L42.85 -10.5 44.9 -10.35 Q46.4 -10.2 48.0 -10.35 L49.15 -9.35 Q49.4 -10.3 49.9 -10.85 L51.0 -12.35 Q51.0 -13.9 48.9 -14.7 46.8 -15.5 46.8 -16.8 46.8 -17.25 47.45 -18.2 48.0 -19.1 48.5 -19.5 L50.0 -19.5 Q50.65 -19.2 50.75 -18.65 50.8 -18.35 53.75 -18.1 54.0 -17.9 54.45 -17.8 54.75 -17.6 54.75 -16.8 54.75 -16.0 54.45 -15.8 L53.8 -15.5 54.0 -14.75 Q55.75 -15.8 56.7 -14.35 57.3 -13.45 57.3 -12.5 L57.05 -11.2 56.8 -10.25 Q56.75 -9.75 56.1 -9.65 55.25 -9.55 54.55 -8.75 L53.75 -6.6 Q53.05 -5.35 50.5 -5.35 L49.3 -5.45 49.0 -5.6 48.85 -6.6 Q47.05 -5.3 42.0 -5.1 40.0 -7.1 40.0 -8.35 L40.05 -10.25 M38.5 -8.85 L37.0 -8.75 Q35.55 -9.95 35.55 -10.5 35.55 -12.1 37.65 -12.8 39.75 -13.45 39.75 -10.6 39.75 -9.8 39.45 -9.5 L38.5 -8.85 M-22.0 -96.25 Q-22.0 -95.65 -22.3 -94.65 L-22.6 -92.85 -23.5 -92.5 -25.0 -92.5 Q-25.8 -92.5 -25.9 -93.1 L-25.85 -94.25 -25.95 -94.75 -26.1 -95.9 Q-26.1 -98.2 -24.05 -98.05 -22.0 -97.9 -22.0 -96.25 M-17.2 -5.7 L-15.85 -3.6 -12.8 -1.5 Q-11.45 -0.5 -11.75 1.0 L-9.5 1.05 Q-8.8 1.25 -8.15 2.25 L-7.6 3.25 Q-7.6 5.15 -9.75 5.3 -11.05 5.3 -11.3 4.25 L-11.35 3.0 Q-12.8 2.7 -13.95 1.85 -14.95 1.1 -15.35 0.3 -23.6 -2.75 -23.6 -5.5 -23.6 -7.1 -23.15 -7.75 -22.25 -9.05 -19.5 -8.6 -18.45 -7.75 -17.2 -5.7 M-5.35 5.3 L-5.1 7.25 -6.0 7.75 Q-7.6 6.85 -7.6 6.35 L-7.5 5.55 -5.35 5.3 M-2.75 10.0 L-3.35 10.0 -3.6 8.55 -2.35 8.8 Q-2.35 9.55 -2.75 10.0" fill="#c1ff3f" fill-rule="evenodd" stroke="none"/>
    </g>
  </defs>
</svg>
