<?xml version="1.0" encoding="UTF-8" standalone="no"?>
<svg xmlns:ffdec="https://www.free-decompiler.com/flash" xmlns:xlink="http://www.w3.org/1999/xlink" ffdec:objectType="frame" height="253.75px" width="517.3px" xmlns="http://www.w3.org/2000/svg">
  <g transform="matrix(1.0, 0.0, 0.0, 1.0, 255.85, 249.9)">
    <use ffdec:characterId="1259" height="32.35" transform="matrix(7.0, 0.0, 0.0, 7.0, -194.6, -246.75)" width="65.1" xlink:href="#shape0"/>
  </g>
  <defs>
    <g id="shape0" transform="matrix(1.0, 0.0, 0.0, 1.0, 27.8, 35.25)">
      <path d="M3.4 -34.65 Q3.5 -34.7 3.95 -34.75 4.05 -34.45 4.35 -34.3 4.85 -34.05 6.25 -34.05 L6.75 -34.15 Q7.0 -34.2 7.05 -34.2 L7.4 -34.35 Q7.55 -34.45 7.6 -34.45 7.3 -34.7 7.65 -34.9 8.05 -35.05 9.25 -35.2 9.65 -35.35 10.45 -35.15 11.15 -34.95 11.35 -34.75 L11.3 -34.7 10.7 -34.65 10.4 -34.6 Q10.4 -34.2 10.4 -34.15 L10.65 -34.1 Q10.7 -34.05 10.7 -33.8 L10.25 -33.4 Q9.9 -33.05 9.9 -32.9 9.9 -32.7 10.25 -32.2 L10.4 -32.1 11.35 -31.35 Q12.6 -30.35 14.0 -30.35 L14.4 -30.55 Q14.8 -30.7 14.85 -30.75 14.8 -30.9 14.8 -31.0 14.8 -31.15 14.9 -31.3 15.45 -31.45 15.85 -31.45 16.2 -31.45 16.75 -31.2 17.4 -30.95 17.9 -30.6 18.95 -29.85 19.2 -29.0 L19.3 -28.85 Q19.5 -28.65 19.85 -27.8 L20.2 -26.95 Q20.2 -26.8 20.1 -26.65 20.0 -26.55 20.0 -26.4 20.0 -26.25 20.1 -26.05 20.2 -25.85 20.2 -25.7 20.2 -25.4 19.95 -25.0 L19.35 -24.95 18.85 -24.95 18.55 -24.75 Q18.3 -24.6 18.15 -24.6 L17.75 -23.85 Q17.5 -23.35 17.1 -23.05 16.1 -22.15 13.7 -21.85 13.65 -21.85 13.6 -21.9 L13.55 -21.95 13.6 -22.05 Q14.25 -22.3 14.6 -22.85 14.9 -23.3 14.9 -23.75 14.9 -23.95 14.75 -24.3 14.5 -24.7 14.15 -25.1 13.1 -26.15 11.4 -26.15 L10.6 -26.0 9.85 -25.9 Q9.75 -25.9 9.5 -25.95 L9.0 -26.05 Q8.7 -26.0 8.65 -25.9 8.6 -25.85 8.35 -25.8 8.3 -25.8 8.25 -25.85 L8.2 -25.9 8.4 -26.2 Q10.1 -26.35 10.8 -26.9 11.25 -27.3 11.25 -27.9 L11.2 -28.45 11.05 -29.3 Q10.9 -29.75 10.75 -30.0 10.35 -30.6 9.3 -31.0 8.2 -31.45 6.9 -31.35 L5.8 -31.2 Q5.1 -31.15 4.65 -30.85 L4.05 -30.45 Q3.6 -30.15 3.6 -30.1 L3.6 -29.75 2.5 -29.7 1.35 -29.8 Q1.25 -29.85 1.25 -29.95 L1.35 -30.05 1.45 -30.2 1.2 -30.3 0.6 -30.3 -0.5 -30.25 -0.55 -30.15 -0.15 -30.2 -1.75 -29.6 -2.25 -29.45 -2.6 -28.9 -2.55 -28.9 -2.3 -28.85 -2.25 -28.85 Q-2.2 -28.8 -2.2 -28.65 -2.2 -28.55 -3.3 -28.0 -4.3 -27.45 -4.45 -27.4 -4.85 -27.5 -4.75 -27.8 L-4.75 -27.9 -4.8 -27.95 Q-4.95 -28.1 -4.95 -28.2 -4.95 -28.85 -4.8 -29.2 -4.8 -30.4 -4.15 -31.3 -3.45 -32.15 -2.4 -32.2 L-2.35 -32.2 Q-2.3 -32.2 -2.3 -32.05 -2.3 -31.9 -2.4 -31.75 -2.55 -31.6 -2.55 -31.5 L-2.45 -31.35 -2.3 -31.25 Q-1.75 -31.35 -1.6 -31.5 -1.55 -31.55 -1.5 -31.7 L-1.45 -31.95 -1.05 -32.5 -0.7 -33.0 Q-0.35 -33.45 0.95 -34.1 2.5 -34.85 3.4 -34.65 M23.2 -29.75 Q23.2 -29.55 23.15 -29.4 23.1 -29.25 22.95 -29.2 23.0 -29.45 22.85 -29.95 L23.2 -29.85 23.2 -29.75 M3.2 -33.2 L2.8 -33.2 2.6 -33.45 Q2.5 -33.5 2.5 -33.6 2.5 -33.8 2.55 -33.8 2.6 -33.95 2.9 -34.05 3.05 -34.2 3.05 -34.35 L2.35 -34.45 Q2.15 -34.45 2.15 -34.3 1.1 -34.2 0.05 -32.95 -0.3 -32.45 -0.55 -31.95 -0.8 -31.5 -0.8 -31.3 -0.8 -31.05 -0.25 -30.9 0.4 -30.65 1.5 -30.8 L2.0 -30.75 2.5 -30.65 2.9 -30.75 3.35 -31.3 3.95 -31.8 Q4.2 -32.05 4.8 -32.3 5.35 -32.6 5.5 -32.7 5.5 -32.75 5.4 -32.85 L5.25 -33.0 Q4.25 -33.1 4.1 -33.25 L3.2 -33.2 M4.9 -31.85 L5.9 -32.15 7.2 -32.25 8.4 -32.3 7.95 -32.8 Q8.85 -33.05 8.85 -33.45 8.85 -33.6 8.8 -33.65 L8.75 -33.65 6.75 -33.6 6.65 -33.55 6.5 -33.45 Q6.6 -33.3 6.75 -33.25 L6.15 -32.75 Q5.8 -32.5 5.1 -32.3 L4.9 -31.85 M12.75 -29.9 L12.75 -29.85 12.7 -29.65 Q12.9 -29.3 13.2 -29.05 13.45 -28.8 13.9 -28.55 L14.2 -28.55 Q14.3 -28.65 14.3 -28.8 14.7 -28.85 15.2 -28.95 L15.7 -29.05 Q16.85 -29.05 17.7 -28.35 L18.2 -27.9 18.45 -27.65 18.5 -27.85 18.5 -28.1 Q18.5 -28.55 18.3 -28.8 18.0 -29.15 17.9 -29.5 17.8 -29.7 17.15 -30.25 16.5 -30.75 16.3 -30.8 L15.8 -30.8 Q15.5 -30.7 15.5 -30.4 L15.5 -30.15 Q15.55 -30.0 15.5 -29.95 15.3 -29.95 14.2 -29.95 L12.95 -29.9 12.75 -29.9 M26.15 -13.0 Q26.7 -12.7 26.95 -12.5 27.25 -12.2 27.25 -11.75 27.25 -11.35 27.25 -11.3 27.15 -11.15 26.8 -11.0 L26.8 -11.35 Q26.8 -11.6 26.75 -11.75 26.65 -12.05 26.3 -12.25 26.0 -12.35 26.0 -12.4 26.0 -12.65 26.15 -13.0 M31.95 -19.7 L32.1 -19.7 Q32.55 -19.7 33.1 -19.45 L33.3 -19.35 33.5 -19.2 Q34.3 -18.7 34.3 -18.4 34.3 -18.25 34.2 -18.25 L34.1 -18.3 33.75 -18.7 Q33.6 -18.8 33.3 -18.9 L32.3 -19.25 31.95 -19.35 31.4 -19.45 30.75 -19.5 31.6 -19.65 31.95 -19.7 M26.8 -19.0 L26.7 -19.05 Q26.5 -19.25 26.05 -19.3 L25.55 -19.3 25.2 -19.25 Q24.9 -19.15 24.7 -19.1 L24.5 -18.8 24.1 -18.8 Q23.3 -19.15 22.95 -19.55 23.1 -19.6 23.6 -19.6 L24.15 -19.6 24.15 -19.9 Q24.85 -20.0 25.9 -19.7 26.85 -19.4 26.85 -19.15 26.85 -18.95 26.8 -19.0 M34.1 -21.8 Q34.3 -21.55 34.35 -21.25 L34.35 -20.75 34.2 -20.7 Q34.2 -21.3 33.75 -21.8 L32.9 -22.6 32.95 -22.7 33.15 -22.7 Q33.35 -22.7 33.55 -22.45 L34.1 -21.8 M34.85 -17.85 Q35.0 -17.85 35.2 -17.7 35.4 -17.6 35.45 -17.6 L35.35 -17.65 Q35.3 -17.7 35.55 -17.85 L36.55 -17.15 Q37.3 -16.55 37.3 -16.2 37.3 -16.1 37.2 -16.0 37.05 -15.9 37.05 -15.8 37.05 -15.5 36.8 -15.2 36.6 -15.0 36.1 -14.6 L35.85 -14.6 35.8 -14.65 35.8 -14.7 Q36.05 -15.0 36.15 -15.25 36.2 -15.4 36.2 -15.7 36.2 -16.3 35.8 -16.65 35.6 -16.85 34.65 -17.4 34.6 -17.4 34.55 -17.45 L34.55 -17.8 34.6 -17.75 Q34.65 -17.75 34.65 -17.8 L34.85 -17.85 M22.3 -11.75 Q22.7 -11.65 22.95 -11.45 23.25 -11.25 23.25 -11.05 23.25 -10.85 23.25 -10.75 23.3 -10.45 23.5 -10.35 23.7 -10.2 24.2 -10.2 24.75 -10.15 24.9 -10.05 L24.85 -10.0 24.8 -10.0 24.55 -9.95 24.1 -9.9 Q23.75 -9.9 23.3 -10.2 L22.45 -10.85 Q21.35 -11.65 20.45 -11.4 L20.6 -11.55 Q21.3 -12.05 22.3 -11.75 M1.85 -3.9 L1.95 -3.9 Q1.65 -3.5 -0.2 -2.9 -0.5 -2.9 -0.85 -3.05 L-1.4 -3.3 Q-2.15 -3.6 -3.05 -3.2 L-3.05 -3.35 Q-2.95 -3.4 -2.85 -3.55 L-2.65 -3.7 Q-2.35 -3.85 -1.1 -3.85 L-0.45 -3.75 0.8 -3.6 1.25 -3.75 Q1.55 -3.85 1.85 -3.9 M4.85 -4.85 Q4.5 -4.75 4.2 -4.65 4.4 -5.35 5.35 -5.65 5.8 -5.8 6.85 -6.0 7.6 -6.15 7.85 -6.35 7.7 -6.6 7.75 -6.9 8.0 -7.05 8.6 -6.95 9.15 -6.9 9.8 -6.6 11.35 -5.9 12.0 -4.9 11.65 -4.75 11.55 -4.55 11.5 -4.4 11.5 -4.15 11.55 -3.95 11.45 -3.85 11.3 -3.65 10.8 -3.55 L10.75 -3.6 10.7 -3.6 10.7 -3.75 Q10.7 -4.25 10.25 -4.55 9.8 -4.9 8.45 -5.2 L6.8 -5.2 Q5.35 -5.0 4.85 -4.85 M2.45 -7.4 Q2.7 -7.55 2.8 -7.8 3.0 -8.15 3.1 -8.25 4.1 -8.5 4.45 -8.5 L4.9 -8.4 5.55 -8.25 5.6 -8.2 Q5.55 -8.15 5.3 -8.1 L5.05 -8.1 4.65 -8.05 4.35 -8.0 3.8 -7.45 Q3.35 -7.0 3.35 -6.85 L3.4 -6.8 3.45 -6.8 Q3.45 -6.75 3.25 -6.5 L1.8 -6.4 1.75 -6.35 1.35 -6.3 1.1 -6.25 Q1.05 -6.25 0.5 -6.95 -0.1 -7.7 -0.45 -7.7 L-0.6 -7.7 -0.65 -7.65 Q-0.6 -7.85 -0.85 -8.15 L-1.25 -8.5 Q-1.15 -8.55 -0.9 -8.4 L-0.3 -8.05 Q0.8 -7.4 2.45 -7.4 M3.2 -10.85 L3.4 -10.65 3.7 -10.4 3.4 -10.7 3.2 -10.85 M3.15 -11.5 Q3.35 -11.4 3.5 -11.4 3.6 -11.55 3.75 -11.5 L3.8 -11.5 Q3.85 -11.45 3.85 -11.3 3.85 -11.25 3.75 -11.2 L3.65 -11.15 3.65 -11.1 4.15 -10.7 4.25 -10.65 Q4.3 -10.6 4.85 -10.35 5.35 -10.2 5.45 -10.05 5.45 -10.0 5.3 -9.95 L4.45 -9.95 Q4.15 -10.1 3.4 -10.45 2.85 -10.7 2.85 -11.05 2.85 -11.2 2.9 -11.35 L3.0 -11.55 3.15 -11.5 M3.0 -12.6 L2.95 -12.45 Q2.85 -12.5 2.2 -12.8 1.55 -13.1 1.35 -13.1 L0.7 -13.0 0.1 -12.9 -0.9 -12.95 -1.9 -13.1 Q-1.85 -13.15 -1.65 -13.2 L-0.25 -13.1 -0.2 -13.05 -0.2 -13.2 -0.5 -13.7 Q-0.5 -14.3 0.3 -14.15 L1.45 -13.75 Q2.2 -13.5 2.5 -13.25 2.65 -13.1 3.0 -12.6 M2.55 -15.1 Q3.0 -14.95 3.75 -14.85 L3.8 -14.75 3.3 -14.7 Q2.85 -14.85 2.55 -15.05 L2.25 -15.2 Q2.35 -15.15 2.55 -15.1 M6.4 -22.8 L6.4 -22.5 6.35 -22.35 4.2 -22.15 2.95 -21.95 Q2.9 -21.95 2.65 -21.9 L2.4 -21.85 2.45 -21.5 Q2.45 -21.35 2.35 -21.2 L1.35 -21.05 0.8 -20.95 Q-0.65 -20.95 -1.35 -21.2 -1.85 -21.35 -2.1 -21.65 -2.05 -21.75 -1.85 -21.75 -1.55 -21.55 -1.25 -21.55 0.35 -21.55 1.1 -21.7 1.65 -21.85 1.85 -22.1 L2.1 -22.55 Q2.35 -22.8 3.1 -22.9 3.45 -23.2 3.55 -23.4 L3.6 -23.7 Q3.6 -24.35 2.65 -24.85 L2.0 -25.2 Q1.7 -25.4 1.7 -25.55 1.7 -25.7 1.75 -25.75 L1.85 -25.75 2.55 -25.7 4.65 -25.5 4.45 -25.2 4.35 -25.1 Q5.55 -24.4 5.95 -23.95 6.4 -23.45 6.4 -22.8 M22.5 -19.9 L22.35 -20.3 Q22.25 -20.55 22.25 -20.7 22.25 -20.9 22.85 -21.3 L23.55 -21.75 Q23.85 -21.9 23.9 -21.9 L24.1 -21.8 24.45 -21.5 24.8 -21.25 24.65 -21.2 24.6 -21.15 Q23.65 -21.25 23.2 -21.0 22.7 -20.7 22.6 -19.85 L22.5 -19.9 M12.45 -21.9 Q12.45 -21.85 11.85 -21.8 L11.6 -21.8 11.5 -21.65 11.1 -21.55 11.15 -21.55 11.15 -21.5 11.2 -21.5 11.1 -21.35 10.35 -21.25 9.7 -21.2 Q9.5 -21.2 9.25 -21.35 L8.9 -21.45 Q8.95 -21.5 9.2 -21.55 9.0 -21.65 8.95 -21.7 9.0 -21.75 8.75 -21.8 L8.3 -21.9 8.3 -21.85 8.25 -21.9 8.05 -21.9 8.0 -22.0 7.7 -22.1 7.0 -22.35 Q7.3 -22.7 8.25 -22.75 9.15 -22.8 9.4 -22.65 9.9 -22.15 10.25 -22.0 L10.8 -22.05 11.45 -22.2 Q11.9 -22.2 12.45 -21.9 M21.2 -30.9 Q21.55 -30.95 22.6 -30.2 L22.35 -30.15 21.7 -30.55 Q21.25 -30.8 21.2 -30.9 M-4.0 -29.35 L-3.45 -29.85 -3.0 -29.9 -2.35 -30.3 Q-2.2 -30.35 -2.2 -30.6 L-2.25 -30.8 -2.25 -30.85 Q-2.4 -30.8 -2.6 -30.6 -2.75 -30.45 -3.0 -30.45 L-3.65 -30.55 Q-4.05 -30.1 -4.05 -29.75 L-4.0 -29.35 M-26.65 -22.6 L-26.6 -22.55 Q-25.9 -22.65 -25.4 -22.9 -25.1 -23.15 -24.7 -23.55 L-24.1 -24.2 Q-23.7 -24.6 -23.15 -24.8 L-23.1 -24.85 Q-23.05 -24.85 -23.05 -24.65 -23.05 -24.4 -23.4 -24.3 -23.8 -24.15 -23.95 -23.75 -23.95 -23.45 -24.0 -23.3 -24.05 -22.9 -24.35 -22.8 -25.15 -22.55 -25.8 -21.95 -26.4 -21.4 -26.4 -21.05 L-26.45 -21.45 -26.45 -21.9 -26.6 -22.25 Q-26.75 -22.55 -26.75 -22.65 -26.7 -22.65 -26.65 -22.6 M-24.15 -19.2 L-24.95 -19.3 -26.1 -19.15 -26.7 -19.0 -26.8 -19.0 -26.95 -19.1 Q-26.85 -19.25 -26.05 -19.7 -25.2 -20.15 -24.95 -20.15 -24.8 -20.15 -24.6 -20.05 -24.35 -19.95 -24.2 -19.95 -23.1 -19.95 -22.5 -20.3 -22.3 -20.4 -22.2 -20.55 L-22.05 -20.75 -21.45 -20.85 Q-20.5 -20.85 -20.1 -20.65 L-19.8 -20.45 Q-19.6 -20.35 -19.35 -20.3 L-19.25 -20.3 Q-19.2 -20.25 -19.2 -20.1 -19.2 -20.0 -19.3 -19.9 -19.4 -19.8 -19.4 -19.65 -19.4 -19.4 -18.65 -18.8 -17.9 -18.2 -17.6 -18.2 L-16.85 -18.25 -15.95 -18.3 Q-15.6 -18.5 -15.4 -19.05 -15.15 -19.6 -14.9 -19.75 L-14.9 -20.3 -15.15 -20.3 Q-15.3 -20.25 -15.35 -20.2 -15.85 -20.25 -16.15 -20.5 -16.4 -20.7 -16.4 -20.9 L-16.15 -21.75 Q-15.9 -22.5 -15.9 -22.65 -15.9 -23.1 -16.1 -23.6 -16.4 -24.35 -17.0 -24.35 -17.15 -24.35 -17.45 -24.15 -17.7 -23.95 -18.05 -23.95 -18.65 -23.95 -18.95 -24.1 -19.15 -24.2 -19.4 -24.45 -19.6 -24.65 -19.85 -24.75 -20.2 -24.9 -20.85 -24.9 -21.45 -24.9 -21.8 -24.75 -22.15 -24.6 -22.25 -24.6 -22.8 -24.6 -22.85 -24.7 -22.75 -24.8 -22.0 -25.15 -21.2 -25.5 -21.15 -25.55 -20.7 -25.85 -20.45 -25.6 L-20.25 -25.35 Q-20.1 -25.2 -19.9 -25.2 L-19.15 -25.25 -18.85 -25.35 -18.75 -25.55 Q-18.5 -25.45 -17.6 -25.15 -16.75 -24.9 -16.45 -24.75 -15.95 -24.55 -15.6 -24.2 L-15.15 -23.6 Q-14.85 -23.2 -14.4 -22.3 -13.95 -21.45 -13.95 -21.3 -13.95 -21.25 -14.2 -20.9 -14.5 -20.6 -14.5 -20.4 -14.5 -20.15 -14.35 -19.75 -14.2 -19.4 -14.2 -19.3 -14.2 -19.25 -14.35 -18.85 L-14.6 -18.45 -15.0 -17.85 Q-14.95 -17.8 -14.95 -17.6 -14.95 -17.45 -15.2 -17.2 L-15.65 -16.75 -16.15 -16.8 -16.5 -17.5 -17.2 -17.6 -17.7 -17.65 Q-18.95 -17.65 -19.6 -17.4 -19.95 -17.25 -20.45 -16.95 L-20.8 -16.95 Q-20.95 -16.95 -21.0 -17.05 -21.05 -17.2 -21.25 -17.3 L-21.5 -17.5 Q-21.6 -17.6 -21.6 -17.65 -21.6 -17.75 -21.45 -17.9 -21.25 -18.15 -21.05 -18.1 L-20.9 -18.35 Q-20.75 -18.5 -20.75 -18.65 -20.75 -18.85 -21.05 -19.25 -21.4 -19.8 -21.85 -19.8 L-22.3 -19.7 Q-22.65 -19.6 -23.05 -19.55 -23.1 -19.45 -23.3 -19.25 L-23.45 -19.0 -24.0 -19.0 -24.15 -19.2 M-25.4 -13.6 L-25.4 -13.55 -25.35 -13.55 -25.45 -13.4 Q-26.3 -13.2 -26.9 -12.55 -27.35 -12.1 -27.5 -11.6 L-27.7 -11.65 -27.8 -11.7 -27.8 -12.25 -27.75 -12.45 -27.75 -12.5 -27.7 -12.6 -27.55 -12.7 Q-27.3 -13.0 -26.8 -13.15 -25.8 -13.4 -25.4 -13.6 M-24.55 -13.4 Q-24.5 -13.45 -24.3 -13.5 L-23.65 -13.6 Q-23.55 -13.6 -23.35 -13.4 -23.15 -13.2 -23.1 -13.05 -23.1 -13.0 -23.25 -12.95 L-23.4 -12.85 Q-23.5 -12.9 -24.0 -13.1 L-24.55 -13.4 M-6.0 -26.7 L-6.55 -25.9 Q-6.85 -25.45 -7.3 -25.1 L-8.35 -25.1 -9.15 -25.0 -9.35 -25.15 -9.45 -25.3 -9.9 -25.35 -10.2 -25.4 -10.45 -25.35 -10.7 -25.05 Q-10.8 -24.85 -10.9 -24.8 L-11.5 -24.85 -12.2 -25.25 Q-12.65 -25.45 -13.15 -25.8 L-13.1 -25.85 -12.9 -25.85 -12.15 -25.75 -11.35 -25.6 Q-9.95 -25.6 -9.25 -25.85 -8.8 -26.0 -8.6 -26.35 -8.3 -26.8 -8.2 -26.9 -7.9 -27.1 -7.05 -27.1 -6.75 -27.1 -6.45 -27.0 -6.2 -26.85 -6.0 -26.7 M-3.25 -10.15 Q-3.45 -9.85 -3.05 -9.5 -2.55 -9.1 -2.5 -8.9 L-2.75 -9.05 Q-2.95 -9.2 -3.25 -9.3 -4.15 -9.65 -5.75 -9.65 -6.75 -9.65 -7.05 -9.4 L-7.3 -9.2 Q-7.4 -9.05 -7.55 -9.0 -7.65 -8.95 -7.75 -8.8 L-7.95 -8.55 Q-8.2 -8.25 -8.85 -8.15 L-9.1 -8.1 Q-9.35 -8.0 -9.45 -8.0 L-9.65 -8.0 -9.7 -8.05 Q-9.7 -8.15 -9.6 -8.2 L-9.5 -8.3 Q-9.3 -8.35 -9.15 -8.4 -8.95 -8.55 -8.95 -8.7 -8.95 -8.75 -9.1 -9.0 -9.25 -9.25 -9.25 -9.35 -9.25 -10.1 -8.25 -10.45 -6.75 -10.95 -3.4 -10.3 L-3.25 -10.15 M-18.15 -12.45 L-18.2 -12.45 Q-18.35 -12.5 -18.65 -12.7 -18.95 -12.8 -19.15 -12.8 L-19.6 -12.8 -19.9 -12.75 -19.95 -12.7 Q-20.05 -12.45 -20.9 -12.45 -21.05 -12.45 -21.5 -12.55 L-21.95 -12.7 -21.3 -12.8 -20.55 -12.8 -20.5 -13.05 -20.2 -13.1 -20.15 -13.25 -20.2 -13.25 -20.3 -13.4 -20.1 -13.5 -19.9 -13.45 -19.25 -13.35 -19.2 -13.35 Q-18.85 -13.25 -18.5 -12.95 -18.25 -12.75 -17.95 -12.4 L-17.55 -11.95 -18.15 -12.45 M-16.05 -9.3 Q-16.05 -9.15 -16.05 -9.1 -16.1 -9.1 -16.1 -9.15 -16.65 -9.4 -17.4 -9.75 -17.9 -9.95 -18.1 -10.05 -18.3 -10.2 -18.35 -10.4 -18.4 -10.55 -18.4 -11.0 -18.4 -11.2 -18.2 -11.2 L-17.85 -11.2 -17.6 -11.1 -17.4 -11.1 -17.15 -11.05 -17.1 -10.95 Q-17.1 -10.9 -17.25 -10.85 L-17.45 -10.85 -17.45 -10.7 Q-17.5 -10.6 -17.45 -10.55 -17.3 -10.35 -16.65 -9.85 -16.05 -9.4 -16.05 -9.3 M-7.25 -14.65 L-7.25 -14.8 Q-7.2 -14.85 -7.1 -14.95 L-6.6 -14.95 -6.25 -15.0 Q-6.1 -14.95 -5.55 -14.5 -5.05 -14.1 -4.95 -13.95 -4.95 -13.9 -5.35 -13.75 -5.65 -13.6 -5.65 -13.25 -5.65 -13.15 -5.5 -12.8 -5.4 -12.5 -5.4 -12.4 -5.4 -12.2 -5.4 -12.25 L-5.45 -12.3 Q-5.65 -12.4 -5.75 -12.75 L-5.95 -13.3 Q-6.25 -14.05 -7.3 -14.05 -7.55 -14.05 -7.7 -13.9 -7.9 -13.75 -8.0 -13.55 L-8.05 -13.3 Q-8.05 -13.15 -8.0 -13.05 L-7.95 -13.0 -8.1 -12.95 Q-8.25 -13.0 -8.3 -13.2 L-8.15 -13.8 Q-8.05 -14.25 -7.95 -14.4 -7.35 -14.5 -7.25 -14.65 M-8.85 -20.0 Q-9.25 -20.2 -9.45 -20.2 L-11.0 -20.45 Q-11.1 -20.25 -11.2 -20.25 L-11.4 -20.15 -11.8 -20.45 Q-12.0 -20.65 -12.0 -20.8 -12.0 -20.95 -11.95 -20.95 L-11.85 -21.0 Q-11.35 -21.15 -10.0 -20.75 -8.65 -20.35 -8.65 -20.1 -8.65 -19.95 -8.75 -19.95 -8.8 -19.95 -8.85 -20.0" fill="#ffdc45" fill-rule="evenodd" stroke="none"/>
      <path d="M12.75 -29.9 L12.95 -29.9 14.2 -29.95 Q15.3 -29.95 15.5 -29.95 15.55 -30.0 15.5 -30.15 L15.5 -30.4 Q15.5 -30.7 15.8 -30.8 L16.3 -30.8 Q16.5 -30.75 17.15 -30.25 17.8 -29.7 17.9 -29.5 18.0 -29.15 18.3 -28.8 18.5 -28.55 18.5 -28.1 L18.5 -27.85 18.45 -27.65 18.2 -27.9 17.7 -28.35 Q16.85 -29.05 15.7 -29.05 L15.2 -28.95 Q14.7 -28.85 14.3 -28.8 14.3 -28.65 14.2 -28.55 L13.9 -28.55 Q13.45 -28.8 13.2 -29.05 12.9 -29.3 12.7 -29.65 L12.75 -29.85 12.75 -29.9 M4.9 -31.85 L5.1 -32.3 Q5.8 -32.5 6.15 -32.75 L6.75 -33.25 Q6.6 -33.3 6.5 -33.45 L6.65 -33.55 6.75 -33.6 8.75 -33.65 8.8 -33.65 Q8.85 -33.6 8.85 -33.45 8.85 -33.05 7.95 -32.8 L8.4 -32.3 7.2 -32.25 5.9 -32.15 4.9 -31.85 M3.2 -33.2 L4.1 -33.25 Q4.25 -33.1 5.25 -33.0 L5.4 -32.85 Q5.5 -32.75 5.5 -32.7 5.35 -32.6 4.8 -32.3 4.2 -32.05 3.95 -31.8 L3.35 -31.3 2.9 -30.75 2.5 -30.65 2.0 -30.75 1.5 -30.8 Q0.4 -30.65 -0.25 -30.9 -0.8 -31.05 -0.8 -31.3 -0.8 -31.5 -0.55 -31.95 -0.3 -32.45 0.05 -32.95 1.1 -34.2 2.15 -34.3 2.15 -34.45 2.35 -34.45 L3.05 -34.35 Q3.05 -34.2 2.9 -34.05 2.6 -33.95 2.55 -33.8 2.5 -33.8 2.5 -33.6 2.5 -33.5 2.6 -33.45 L2.8 -33.2 3.2 -33.2 M-4.0 -29.35 L-4.05 -29.75 Q-4.05 -30.1 -3.65 -30.55 L-3.0 -30.45 Q-2.75 -30.45 -2.6 -30.6 -2.4 -30.8 -2.25 -30.85 L-2.25 -30.8 -2.2 -30.6 Q-2.2 -30.35 -2.35 -30.3 L-3.0 -29.9 -3.45 -29.85 -4.0 -29.35" fill="#ffff66" fill-rule="evenodd" stroke="none"/>
    </g>
  </defs>
</svg>
