<?xml version="1.0" encoding="UTF-8" standalone="no"?>
<svg xmlns:ffdec="https://www.free-decompiler.com/flash" xmlns:xlink="http://www.w3.org/1999/xlink" ffdec:objectType="frame" height="410.15px" width="286.75px" xmlns="http://www.w3.org/2000/svg">
  <g transform="matrix(1.0, 0.0, 0.0, 1.0, 0.0, -16.1)">
    <use ffdec:characterId="1585" height="410.15" transform="matrix(1.0, 0.0, 0.0, 1.0, 0.0, 16.1)" width="286.75" xlink:href="#shape0"/>
  </g>
  <defs>
    <g id="shape0" transform="matrix(1.0, 0.0, 0.0, 1.0, 0.0, -16.1)">
      <path d="M128.0 38.8 Q131.6 36.55 139.55 30.0 147.2 23.7 153.8 20.85 163.6 16.6 177.4 16.1 L177.95 17.85 Q173.3 20.0 166.1 24.15 L163.2 26.9 Q158.55 31.25 158.55 35.25 158.55 36.3 157.9 37.55 L156.15 38.3 Q147.75 42.25 147.75 42.7 147.75 44.5 148.1 44.5 L149.8 44.3 150.5 44.1 148.85 45.1 Q165.95 46.9 178.9 49.85 190.75 48.95 201.9 44.75 L205.55 43.25 Q208.25 43.05 210.15 41.1 L216.1 38.1 221.75 35.2 227.3 32.25 Q234.35 28.5 240.45 26.1 L240.15 25.95 243.75 24.65 243.95 24.85 Q248.4 23.3 252.25 22.65 L253.15 22.5 Q249.55 22.7 246.55 23.45 L252.75 20.3 262.75 19.5 Q275.9 19.65 282.05 25.05 L286.5 24.9 286.75 25.9 Q282.2 27.65 267.05 30.55 L269.4 30.9 Q267.65 31.75 262.0 34.85 259.5 34.75 258.65 36.9 L258.5 36.75 258.15 36.9 245.8 43.7 249.45 43.4 254.55 42.85 255.15 45.6 Q253.0 51.15 245.9 54.15 L244.9 54.55 242.95 55.2 234.05 57.75 233.65 57.85 230.3 58.7 227.85 59.35 226.55 59.65 228.1 60.65 Q229.85 61.85 230.6 62.9 231.3 63.9 231.3 65.15 231.3 67.2 230.95 67.9 L230.35 68.65 Q228.0 69.0 226.5 69.6 L219.05 69.6 215.3 68.3 Q219.5 74.25 220.65 83.95 L221.4 92.35 Q221.9 97.35 222.8 100.65 L231.85 134.7 Q233.15 139.8 240.9 153.25 L243.9 158.55 247.0 165.75 247.35 166.5 Q242.25 163.15 239.0 161.6 L239.0 161.85 Q239.0 172.15 231.9 181.05 L230.15 183.1 Q230.5 183.85 230.5 184.85 L230.2 191.3 230.2 191.45 229.15 201.1 228.7 204.9 227.95 229.3 Q228.5 249.15 230.4 283.4 232.65 324.25 232.95 336.05 233.55 334.6 234.25 333.75 L238.65 341.9 Q241.1 346.75 241.45 349.15 L242.35 350.35 241.85 353.7 Q245.5 360.1 250.75 368.05 255.25 375.75 255.25 383.0 L255.1 389.45 Q254.8 391.75 253.75 393.6 L254.0 395.25 Q254.0 398.1 248.8 403.15 243.3 408.5 234.8 413.45 212.85 426.25 190.0 426.25 L185.8 426.0 183.5 425.75 155.0 425.25 Q125.65 422.6 105.9 410.35 97.25 404.95 92.45 398.8 87.75 392.7 87.75 387.0 87.75 381.4 89.65 376.6 91.85 371.15 96.75 366.0 100.05 362.5 103.7 355.1 L105.85 351.05 105.95 349.05 106.0 347.85 108.25 343.55 107.95 340.95 Q108.25 334.15 108.0 330.75 107.3 322.75 107.2 307.05 L107.25 291.0 105.05 234.85 103.45 237.1 Q102.95 237.4 102.5 237.8 L102.3 239.05 Q101.35 240.6 100.5 242.45 L100.75 242.9 Q99.8 243.7 99.1 245.3 L98.65 246.45 97.65 248.85 97.4 249.55 98.3 244.9 96.25 249.25 95.8 249.25 Q94.4 253.85 93.55 257.5 91.5 265.95 90.7 274.2 L90.4 277.6 89.7 278.05 Q89.05 278.6 88.4 278.75 86.85 276.7 85.75 274.2 83.65 269.55 83.0 263.35 82.65 260.15 82.65 246.55 L82.8 242.85 82.65 242.95 79.55 229.5 Q78.6 224.65 78.6 217.95 78.6 210.95 79.85 203.3 80.35 195.35 84.2 181.75 87.6 169.8 88.9 163.35 L88.4 163.6 88.3 163.6 88.6 161.2 84.05 165.25 77.05 171.35 75.0 171.55 Q74.45 171.55 74.45 169.8 74.45 166.3 80.3 156.9 86.1 147.45 86.1 143.75 86.1 140.25 83.45 137.2 L82.85 136.6 82.55 136.7 Q80.05 135.05 76.7 133.85 L74.15 133.85 74.6 133.55 Q60.45 133.0 45.6 124.65 L34.85 118.15 Q30.15 115.35 27.25 114.65 L15.95 114.75 Q11.4 118.1 8.7 123.25 5.7 129.05 7.3 133.55 L7.3 134.0 Q7.2 134.4 5.45 134.4 2.75 134.4 1.1 124.85 0.3 120.1 0.0 115.0 0.0 104.85 4.75 97.15 11.55 86.2 27.3 81.25 L53.1 78.85 Q75.35 77.15 81.8 73.6 L83.5 72.55 84.65 70.25 83.7 65.15 82.8 60.35 97.8 53.65 Q105.4 50.1 108.7 46.75 L108.85 46.6 Q113.5 46.6 118.65 44.15 L124.4 40.7 127.25 39.25 128.0 38.8 M254.0 34.1 L241.6 36.8 236.35 37.8 Q232.65 39.1 229.85 40.55 217.9 47.8 210.9 51.3 205.2 54.15 198.9 56.25 205.1 58.95 209.4 62.25 L209.45 62.25 Q211.1 62.25 213.85 63.2 L219.35 65.0 226.95 65.0 Q224.95 62.55 219.35 61.4 L212.0 59.95 211.75 60.4 Q211.45 60.45 211.45 58.65 211.45 56.85 211.6 56.65 L211.75 56.8 230.45 53.4 Q243.25 50.75 245.5 49.3 L234.35 51.1 226.4 52.2 222.3 51.8 Q220.35 51.45 219.95 50.9 222.05 47.1 235.45 42.05 250.65 36.3 253.15 34.35 L254.0 34.1 M192.45 54.4 L194.05 53.9 Q204.4 48.8 230.7 36.2 L231.05 36.05 Q254.0 27.5 275.9 25.5 L267.1 23.45 261.2 22.7 Q247.15 25.3 226.65 36.0 L218.5 39.35 Q213.65 41.35 209.7 43.1 L209.45 43.45 209.2 43.35 Q196.0 49.05 192.25 51.4 L187.0 53.05 Q181.95 54.45 181.35 55.4 174.5 53.65 166.3 52.4 168.05 53.05 169.6 54.2 L169.5 54.25 165.7 54.7 163.45 54.85 154.3 55.8 Q143.25 57.65 139.05 63.05 141.85 61.65 145.2 60.8 161.25 56.7 169.1 59.0 173.05 60.15 175.2 63.1 176.9 65.35 177.5 68.75 175.1 71.75 171.55 71.0 169.75 70.6 168.2 69.6 166.75 69.6 164.7 71.8 L160.35 76.7 Q153.6 83.8 145.2 83.8 L133.85 83.7 132.35 83.65 133.8 83.9 Q143.75 85.55 156.15 85.65 L164.0 85.55 Q178.35 94.3 186.15 102.2 194.9 111.05 194.9 118.3 194.9 119.8 190.85 121.4 L188.15 122.3 185.6 122.8 185.0 122.8 177.1 122.55 174.4 122.5 Q180.0 123.55 186.25 128.55 190.5 131.9 195.05 137.05 200.9 143.75 205.15 151.1 209.15 158.0 209.15 160.75 209.15 162.55 208.15 162.15 L207.15 161.45 Q206.2 159.8 199.1 156.3 193.2 153.45 188.55 152.1 L186.2 151.5 185.85 151.4 187.75 153.85 191.8 159.15 Q194.7 163.2 196.65 166.75 194.15 165.0 190.45 160.0 L186.25 154.45 183.25 150.5 Q185.6 150.1 189.5 151.15 L195.5 153.2 Q203.85 157.0 205.7 157.4 201.95 146.65 195.15 139.15 190.15 133.6 183.75 130.15 L183.0 129.75 Q177.3 126.8 170.55 125.5 L168.8 125.15 167.45 124.95 167.25 124.35 167.1 123.3 160.2 124.65 148.65 126.65 130.5 129.45 130.65 129.4 129.85 129.5 92.1 133.2 91.8 133.2 90.5 133.25 91.2 134.6 91.3 134.8 89.05 135.05 89.0 135.05 Q90.7 138.4 90.7 143.05 90.7 145.65 85.0 155.0 80.1 163.05 77.9 165.6 L77.9 166.5 Q83.2 165.3 85.65 160.65 L85.95 160.15 86.05 159.9 86.15 159.8 90.35 154.0 90.65 153.75 91.85 152.8 Q93.15 155.75 93.15 162.15 93.15 164.9 91.25 170.25 L87.4 187.1 Q83.7 203.35 82.55 212.25 L82.6 216.7 Q82.65 229.1 83.2 234.75 L83.2 238.5 Q84.05 231.9 86.25 224.45 L93.45 200.25 94.3 200.25 94.85 202.4 95.15 205.45 Q95.15 208.15 93.9 212.25 L91.2 220.55 Q87.25 233.2 87.25 246.7 L87.25 248.25 Q87.35 258.7 88.4 263.35 L88.7 263.35 Q88.95 257.95 93.5 248.0 L100.0 233.5 100.6 231.9 102.65 231.6 102.95 231.3 103.05 231.45 Q104.4 229.75 106.0 228.5 108.45 238.3 115.75 258.25 L121.35 252.1 123.65 249.6 124.2 249.0 123.05 247.4 120.2 243.1 117.95 239.25 Q115.65 235.0 114.15 231.25 L114.1 231.25 113.45 232.0 Q112.95 232.7 111.25 232.7 108.25 232.7 105.65 219.15 L103.6 205.25 103.9 196.2 104.75 196.2 Q106.05 211.15 110.4 226.1 L110.65 226.1 110.95 222.65 111.55 222.4 Q111.25 220.4 111.25 218.6 111.25 216.8 111.4 216.9 L111.55 217.35 111.75 217.35 112.95 217.35 113.2 218.1 Q118.35 233.45 120.25 237.75 122.6 243.0 125.6 247.5 L138.3 233.6 141.2 230.5 142.9 228.65 143.75 227.75 Q144.95 226.45 146.0 224.65 146.05 220.4 147.85 214.35 149.35 209.1 152.15 202.45 L154.6 196.95 Q156.9 191.9 159.35 187.6 161.05 184.5 162.8 181.85 L163.5 180.75 165.25 180.75 163.85 183.25 Q161.9 186.8 160.2 190.75 158.0 195.75 156.15 201.35 L156.0 201.8 Q152.7 211.8 151.05 221.95 L151.0 222.0 Q156.95 219.15 161.05 215.55 163.85 213.1 165.8 210.3 L166.65 208.9 Q171.05 201.5 169.5 192.5 L170.25 192.5 172.85 207.7 172.95 208.25 Q174.7 218.5 176.25 225.5 L176.8 225.9 177.5 226.5 Q179.95 222.3 187.95 215.1 L188.0 214.0 189.15 214.0 195.15 208.85 209.1 197.15 Q199.85 184.05 198.1 175.8 L198.1 169.65 198.95 169.65 Q197.1 175.45 200.55 182.5 203.0 187.45 209.55 195.3 L210.25 196.15 214.5 192.25 Q217.1 189.4 220.35 184.85 L222.1 182.3 222.15 182.05 224.25 170.9 Q225.15 166.4 225.4 160.2 L225.5 155.1 225.5 150.85 Q217.7 142.05 209.55 131.8 L209.55 131.5 225.5 147.15 225.35 140.6 Q224.15 134.2 222.05 119.3 L222.25 119.25 Q219.8 109.95 217.65 104.5 216.0 100.45 215.7 89.05 215.4 78.6 212.2 72.95 207.15 64.0 191.3 58.35 L189.55 58.75 187.0 57.7 187.85 57.2 187.05 56.95 187.85 56.65 192.6 54.75 192.45 54.4 M190.85 53.5 L191.15 54.05 188.65 54.25 190.85 53.5 M229.25 20.7 L229.35 20.65 229.35 20.75 229.25 20.7 M162.6 21.4 L164.85 19.55 Q152.95 21.1 143.55 27.8 L129.25 39.15 125.65 41.7 Q126.0 42.25 127.05 42.6 L128.05 42.85 Q129.65 41.85 131.9 40.6 137.05 37.6 145.45 33.0 152.45 28.9 158.35 24.6 L164.85 21.0 166.75 20.15 Q164.75 20.55 162.6 21.4 M163.8 68.45 L164.1 68.1 164.3 67.85 Q156.6 63.35 145.7 66.9 135.05 70.4 131.8 77.8 L131.8 78.05 139.75 79.05 141.0 79.2 Q152.2 78.65 156.35 76.0 158.05 74.95 160.05 72.65 L163.8 68.45 M165.9 92.1 Q163.75 90.3 162.55 89.0 L135.55 87.95 133.95 87.9 133.6 87.85 114.1 84.8 Q112.25 84.1 111.1 83.25 L109.3 81.95 Q101.05 75.75 100.9 70.45 L100.9 69.0 Q96.95 70.6 94.1 75.4 L93.65 76.1 95.85 78.05 Q98.65 80.85 100.15 83.9 L100.6 84.95 Q103.7 90.1 106.4 91.15 108.3 91.85 112.0 90.75 117.1 89.2 120.1 89.0 124.8 88.7 130.3 90.25 L131.5 90.6 133.25 91.15 133.35 91.2 133.4 91.2 134.45 91.6 139.3 94.0 140.4 94.6 Q145.35 97.35 148.9 99.9 L148.9 100.35 148.9 100.8 147.4 100.35 147.1 100.25 146.4 100.1 Q140.7 98.8 123.45 96.4 110.65 94.65 104.45 93.15 99.95 92.05 98.9 91.15 98.2 90.55 96.6 87.55 L96.55 87.45 95.95 86.35 95.4 85.4 93.5 82.35 92.9 81.6 Q91.3 79.75 89.6 78.9 L87.25 79.2 85.15 78.85 82.35 79.8 81.8 80.3 Q81.3 80.55 81.1 80.15 67.8 83.55 35.5 83.55 15.7 83.55 7.9 99.2 7.2 100.55 6.65 102.0 5.45 105.0 4.75 108.35 L4.65 108.85 4.45 109.95 4.0 114.85 Q4.0 116.7 4.35 118.05 L5.0 120.2 Q9.5 111.2 14.5 109.4 L34.9 109.4 59.25 112.15 Q82.15 114.75 95.15 114.75 L109.65 113.6 120.6 111.1 Q136.3 107.4 162.7 107.4 172.65 107.4 178.3 110.6 180.35 111.75 183.0 114.75 L183.0 115.6 Q179.6 115.6 176.15 114.05 172.7 112.45 162.85 112.45 127.4 112.45 119.4 116.2 114.55 118.4 113.15 118.75 108.1 119.9 95.75 119.9 77.9 119.9 62.45 117.2 48.2 114.65 41.8 114.5 L46.8 118.0 47.7 118.7 Q53.55 123.0 58.1 124.95 66.2 128.4 76.9 128.4 93.4 128.4 131.3 124.1 L160.85 120.45 160.85 120.25 160.85 119.9 162.8 120.05 163.8 120.1 177.75 118.35 183.85 117.6 Q184.05 117.2 184.3 117.15 184.55 117.1 184.65 117.75 L184.7 118.9 187.75 117.65 188.35 117.4 189.1 116.8 189.1 116.75 189.9 115.65 190.05 114.95 190.05 114.75 Q190.05 111.05 184.6 106.3 L180.45 103.1 Q170.75 96.3 165.9 92.1 M232.7 74.0 L232.7 74.05 232.5 74.0 232.7 74.0 M229.25 143.45 L228.95 142.7 227.15 137.65 227.0 137.2 224.5 128.2 226.45 140.25 226.65 148.3 228.9 150.5 236.8 158.4 237.0 158.0 237.15 158.1 Q232.5 151.5 229.25 143.4 L229.25 143.45 M234.25 162.6 L235.6 160.35 234.5 160.25 234.5 160.5 228.5 154.15 226.65 152.1 226.65 155.25 226.65 161.65 226.4 170.8 225.15 177.6 227.15 174.3 231.75 166.8 234.25 162.6 M238.95 160.55 L238.95 160.6 239.1 160.75 238.95 160.55 M225.2 203.95 L225.55 198.85 225.6 198.1 225.65 197.55 226.0 193.35 Q226.3 189.45 226.7 186.8 L223.6 189.85 212.75 200.5 Q209.75 203.5 202.0 207.55 197.35 210.0 193.8 212.2 L189.55 214.95 189.6 216.2 189.65 216.8 189.65 217.25 189.7 217.8 189.8 219.8 190.15 228.4 190.65 240.35 191.25 257.85 190.4 276.6 190.25 279.05 Q189.5 291.25 189.5 292.75 L189.0 293.25 Q188.05 288.1 188.75 283.0 L188.75 234.25 188.4 232.7 188.05 229.85 187.75 224.2 187.75 223.35 187.75 221.1 187.8 217.95 187.9 216.15 187.75 216.25 Q186.2 217.4 183.3 222.65 L181.55 225.9 Q177.7 233.25 176.0 233.25 173.55 233.25 171.75 227.05 L171.45 225.9 170.55 222.05 Q170.0 219.35 170.0 217.75 L170.2 217.4 Q170.3 217.0 168.9 217.0 L168.75 217.0 Q162.35 217.0 154.3 226.3 150.2 231.0 146.5 236.25 L146.3 230.5 145.75 231.5 Q143.5 235.4 138.85 240.05 L130.4 247.85 Q127.7 250.3 125.7 252.55 119.75 259.0 119.25 263.75 L118.95 265.55 Q118.65 266.25 117.0 266.25 115.55 266.25 114.0 263.9 L113.05 262.1 112.35 260.6 112.1 260.05 Q111.1 257.6 110.05 254.15 L109.95 253.85 Q110.1 262.35 109.75 275.25 L110.4 294.3 110.45 295.15 110.45 295.7 110.6 303.9 110.65 307.9 Q110.7 317.3 110.25 323.25 L110.2 324.85 110.5 327.55 Q110.95 329.85 111.85 331.7 L112.5 332.85 112.45 333.6 114.5 340.25 115.5 340.25 116.85 335.5 116.95 335.05 118.45 328.8 118.0 338.85 117.95 340.95 117.75 342.25 Q117.45 342.25 117.45 342.65 L117.0 342.95 116.0 343.0 Q114.8 343.0 113.6 341.6 114.95 344.55 116.8 347.45 L117.15 347.95 Q119.65 351.8 123.05 355.55 L124.0 356.55 125.05 357.6 129.7 359.75 Q135.85 364.9 143.0 367.7 148.85 370.0 155.4 370.7 L153.75 371.55 Q152.4 372.25 151.0 372.25 145.2 372.25 138.95 369.65 L137.25 369.75 137.2 369.75 136.85 369.7 136.45 369.5 Q134.15 368.4 126.4 362.8 L125.95 362.45 125.9 362.45 125.1 361.85 125.0 361.8 112.0 351.0 111.95 350.95 111.85 350.8 111.5 350.4 111.75 351.75 Q111.75 354.2 110.8 356.6 L110.6 357.1 110.15 357.95 Q110.55 361.3 111.75 363.25 113.5 366.0 117.7 371.35 L118.1 371.85 119.75 373.95 122.3 375.6 Q130.1 380.35 140.9 383.15 L141.25 383.25 148.9 384.85 Q162.15 387.15 185.3 387.25 204.0 385.4 213.1 381.0 L213.95 380.55 214.3 380.35 215.05 379.95 218.05 377.85 Q220.15 376.15 222.3 373.85 L223.7 372.4 Q226.7 369.45 229.0 368.25 L230.35 368.7 Q230.75 369.0 230.75 370.6 230.75 371.7 227.8 374.6 L222.2 379.25 221.25 379.9 219.55 381.0 218.3 381.8 Q205.55 389.3 191.65 389.5 L165.0 391.0 Q140.5 391.0 125.85 381.65 L121.35 378.4 Q120.15 377.9 118.75 376.95 115.65 375.2 113.1 373.5 L111.55 372.35 108.45 369.8 107.75 369.15 107.25 367.35 Q108.9 369.75 112.4 372.25 L115.0 373.95 113.1 372.15 112.45 371.55 Q106.85 366.0 105.75 363.45 L102.0 367.2 Q97.35 371.75 95.3 375.2 92.25 380.35 92.25 386.5 92.25 397.25 107.55 406.6 122.8 415.9 147.4 419.35 L155.25 420.25 162.5 420.4 184.0 420.75 186.0 421.0 189.85 421.25 195.5 421.1 Q204.65 420.6 212.8 418.45 226.35 417.7 239.5 405.25 L242.45 402.35 243.95 400.7 246.75 397.25 248.1 395.35 Q251.25 390.8 251.25 389.1 251.25 378.8 250.25 376.45 249.8 375.45 249.2 375.75 L248.65 374.3 248.25 373.45 Q246.9 370.55 244.9 367.4 239.9 360.7 239.15 358.85 L239.0 359.2 Q236.6 365.0 234.0 368.5 L233.25 369.2 Q232.6 369.5 232.55 368.4 L232.5 368.1 232.5 368.0 232.95 367.3 235.0 363.75 Q237.5 359.4 237.5 358.0 237.5 353.8 234.65 348.5 232.6 344.8 232.0 343.0 L229.35 347.75 227.7 350.15 225.0 353.0 219.6 358.8 219.2 359.15 219.15 359.2 219.05 359.25 Q202.4 373.5 182.0 373.5 L172.9 372.95 161.5 371.5 Q180.2 373.7 199.35 364.95 203.25 363.15 207.2 360.9 211.4 358.5 214.9 355.95 219.2 352.75 222.45 349.35 225.95 345.65 227.35 342.65 228.25 340.7 228.25 339.0 L228.0 328.15 227.3 325.1 227.75 326.1 227.9 326.45 Q227.35 315.0 226.0 298.3 L226.0 317.0 226.0 317.1 225.55 313.75 Q224.0 301.25 224.0 294.6 L224.5 278.6 224.2 273.3 Q223.7 265.6 223.6 259.7 L223.5 254.25 223.55 248.7 Q223.7 233.4 224.65 213.25 L225.2 203.95 M205.85 211.65 L205.9 211.85 Q206.45 214.35 206.5 216.65 L206.5 217.1 204.0 297.35 Q204.0 313.95 204.3 316.95 204.7 321.7 208.5 342.0 L207.5 342.25 Q203.15 330.0 202.15 314.15 201.75 308.25 201.75 286.0 L202.35 255.9 203.2 219.15 203.25 218.45 203.35 214.55 203.5 208.0 204.0 207.5 Q205.15 208.35 205.85 211.65 M217.5 210.4 L217.5 204.75 218.25 204.75 218.5 205.5 218.5 206.25 218.5 244.5 Q218.95 257.05 218.55 282.1 L218.0 306.35 Q218.0 307.6 219.15 320.8 L219.45 324.45 220.25 335.25 Q220.25 336.7 218.3 339.95 L217.8 340.75 214.0 346.5 212.5 346.25 214.35 343.25 Q215.55 340.65 216.55 336.6 218.0 330.7 218.0 326.75 L216.9 311.75 Q215.75 298.0 215.75 296.75 L216.35 276.05 217.5 244.25 217.5 210.4 M132.4 41.0 Q127.45 43.6 123.15 44.85 L129.65 44.85 Q130.75 43.15 132.75 41.25 L134.05 40.05 Q133.2 40.55 132.4 41.0 M106.0 71.5 Q106.75 72.85 108.5 74.4 L108.6 74.5 108.8 74.65 110.8 76.15 110.8 74.35 Q116.15 76.6 119.85 76.8 L117.15 76.05 112.55 74.2 114.4 74.0 117.7 74.35 Q119.85 74.35 126.6 69.5 L138.25 61.15 140.3 59.7 Q149.0 54.05 155.75 52.35 158.3 51.7 160.55 51.6 L146.05 50.05 116.15 50.05 Q103.25 51.05 98.7 56.95 L96.2 60.6 95.45 60.7 90.6 61.25 90.45 61.4 90.05 61.95 90.0 63.6 Q90.0 65.15 90.45 65.6 L91.5 66.25 Q92.7 66.05 94.45 64.8 L94.5 64.2 94.4 65.55 94.35 66.15 95.75 65.0 Q97.3 64.0 99.6 63.55 L105.65 63.0 Q105.95 63.9 105.8 65.8 L105.5 69.6 Q105.5 70.5 106.0 71.5 M131.4 44.85 L139.7 44.85 Q140.9 44.2 142.55 43.4 147.3 41.0 148.9 39.4 L148.35 38.9 149.1 38.4 Q155.1 34.75 155.1 34.25 155.1 32.45 154.8 32.5 L154.5 32.95 Q153.55 32.95 147.8 37.15 L146.85 37.85 146.6 37.55 150.6 33.3 134.55 43.0 131.4 44.85 M90.45 61.4 L90.65 61.15 90.7 60.8 90.35 61.5 90.45 61.4 M108.55 159.15 Q108.2 159.25 108.2 157.55 108.2 156.7 109.7 153.25 111.35 149.5 112.4 148.75 L114.1 149.1 Q114.7 149.3 114.7 151.05 114.7 152.65 108.95 158.55 L108.9 158.65 108.6 159.1 108.55 159.15 M89.1 160.75 L89.0 162.65 89.35 160.55 89.1 160.75 M120.55 193.25 Q120.95 192.9 121.9 192.9 L124.3 197.9 123.75 200.5 122.6 201.1 120.7 198.95 Q119.85 197.65 119.85 195.75 119.85 193.85 120.55 193.25 M145.35 203.25 L145.5 203.6 Q146.65 206.6 147.05 208.7 L146.7 209.1 146.45 209.4 Q142.6 202.7 142.6 199.8 L142.6 198.5 143.45 198.5 145.35 203.25 M129.5 228.9 Q130.95 231.8 131.2 233.15 L131.15 233.65 130.65 234.7 Q129.15 233.75 126.65 230.25 124.3 227.0 124.3 226.25 124.3 224.45 124.6 224.5 L124.9 224.95 126.6 224.65 Q127.9 225.65 129.5 228.9 M150.85 283.75 L150.85 283.6 150.8 284.45 149.9 293.85 Q148.5 304.15 148.5 327.75 L148.0 328.25 Q147.65 325.4 147.45 320.4 L147.25 313.85 148.0 304.7 Q148.75 296.15 148.75 291.75 L148.75 247.5 Q149.5 244.15 149.5 240.75 L150.25 240.75 150.3 241.1 150.3 241.3 150.35 241.55 150.35 241.8 150.4 242.05 150.4 242.35 150.45 242.6 150.45 242.9 150.5 243.5 150.55 243.7 150.8 247.45 150.85 248.35 151.05 254.05 151.25 269.6 Q151.25 277.2 150.85 283.75 M165.5 229.2 L165.5 226.75 166.25 226.75 166.35 228.8 167.05 240.35 167.25 243.2 167.25 313.0 Q167.4 316.2 166.9 326.15 166.4 336.0 166.65 341.2 167.45 358.75 177.0 358.75 L178.95 358.65 Q185.9 357.7 188.55 349.9 186.75 358.25 183.0 361.0 L178.3 360.85 175.5 360.75 Q168.0 357.7 165.6 341.9 164.5 334.7 164.5 320.35 L164.6 315.5 164.6 315.45 164.75 312.5 164.75 310.6 164.75 244.75 164.75 243.9 164.75 242.75 165.2 234.85 165.25 234.1 165.3 233.45 165.5 229.2 M99.25 238.45 L99.2 238.35 98.5 240.45 99.25 238.45 M120.9 263.7 L120.35 264.6 120.5 259.75 121.25 259.75 121.3 260.0 121.4 260.45 121.45 261.05 121.55 261.85 121.6 262.05 121.65 262.6 120.9 263.7 M102.6 258.2 L101.95 255.75 102.25 253.5 102.6 258.2 M117.5 292.1 L117.75 288.3 Q118.5 277.2 118.5 271.75 L119.25 271.75 119.8 283.75 120.0 289.0 120.0 289.85 119.0 315.3 117.95 310.95 Q117.0 306.35 117.0 299.75 L117.15 297.65 117.15 297.4 117.5 292.1 M126.85 268.1 L126.9 266.25 Q127.25 255.65 129.25 249.75 L129.45 250.9 129.75 253.1 130.45 262.0 130.65 267.5 130.65 272.55 130.25 284.95 Q128.5 317.45 128.5 321.0 128.5 329.65 129.8 337.7 131.2 346.35 133.75 351.15 135.3 354.0 137.25 355.5 L143.7 356.0 144.0 356.0 Q146.3 353.3 146.45 348.6 L146.45 347.9 146.4 347.65 146.5 340.75 147.25 340.75 147.4 342.75 147.75 350.5 147.5 354.3 Q146.75 357.1 144.0 358.0 L136.25 358.0 Q128.15 350.75 126.2 339.65 125.5 335.7 125.5 320.85 126.5 296.5 126.5 284.5 L126.65 277.65 126.65 277.25 126.65 276.9 126.65 276.6 126.65 276.2 126.7 273.35 126.85 268.1 M189.4 321.3 L189.95 331.25 188.85 319.2 Q187.5 307.1 187.5 303.0 L188.25 302.75 189.4 321.3" fill="#797a45" fill-rule="evenodd" stroke="none"/>
      <path d="M103.45 237.1 L102.3 239.05 102.5 237.8 Q102.95 237.4 103.45 237.1 M254.0 34.1 L253.15 34.35 Q250.65 36.3 235.45 42.05 222.05 47.1 219.95 50.9 220.35 51.45 222.3 51.8 L226.4 52.2 234.35 51.1 245.5 49.3 Q243.25 50.75 230.45 53.4 L211.75 56.8 211.6 56.65 Q211.45 56.85 211.45 58.65 211.45 60.45 211.75 60.4 L212.0 59.95 219.35 61.4 Q224.95 62.55 226.95 65.0 L219.35 65.0 213.85 63.2 Q211.1 62.25 209.45 62.25 L209.4 62.25 Q205.1 58.95 198.9 56.25 205.2 54.15 210.9 51.3 217.9 47.8 229.85 40.55 232.65 39.1 236.35 37.8 L241.6 36.8 254.0 34.1 M151.05 221.95 Q152.7 211.8 156.0 201.8 L157.95 209.3 159.35 216.3 159.2 216.35 157.8 214.6 156.9 213.35 154.55 210.2 154.8 215.15 154.95 218.95 Q153.05 220.2 151.05 221.95 M154.6 196.95 L152.15 202.45 Q149.35 209.1 147.85 214.35 L146.7 209.1 147.05 208.7 Q146.65 206.6 145.5 203.6 L145.35 203.25 Q143.15 193.85 141.45 188.6 L139.7 188.85 139.55 194.6 139.15 199.95 Q139.15 205.35 142.9 228.65 L141.2 230.5 140.6 229.1 Q136.9 220.8 135.7 217.35 L134.25 217.35 133.75 218.6 Q133.5 219.65 133.5 221.5 133.5 224.35 137.95 232.9 L138.3 233.6 125.6 247.5 Q122.6 243.0 120.25 237.75 118.35 233.45 113.2 218.1 L113.4 217.15 113.85 213.6 Q113.85 212.05 112.55 206.55 111.25 201.2 110.65 199.95 L108.95 199.95 108.65 201.95 Q108.8 203.3 110.6 211.25 L111.75 217.35 111.55 217.35 111.4 216.9 Q111.25 216.8 111.25 218.6 111.25 220.4 111.55 222.4 L110.95 222.65 110.65 226.1 110.4 226.1 Q106.05 211.15 104.75 196.2 L103.9 196.2 103.6 205.25 105.65 219.15 Q108.25 232.7 111.25 232.7 112.95 232.7 113.45 232.0 L114.1 231.25 114.15 231.25 Q115.65 235.0 117.95 239.25 L120.2 243.1 121.35 252.1 115.75 258.25 Q108.45 238.3 106.0 228.5 104.4 229.75 103.05 231.45 L102.95 231.3 102.65 231.6 100.6 231.9 100.0 233.5 Q99.55 232.25 98.75 231.7 96.45 233.0 95.15 234.55 L93.4 237.15 95.35 225.05 97.0 215.05 96.95 213.1 96.85 213.3 96.0 213.3 Q94.95 219.2 88.9 241.75 L87.25 248.25 87.25 246.7 Q87.25 233.2 91.2 220.55 L93.9 212.25 Q95.15 208.15 95.15 205.45 L94.85 202.4 94.3 200.25 93.45 200.25 86.25 224.45 Q84.05 231.9 83.2 238.5 L83.2 234.75 Q82.65 229.1 82.6 216.7 L82.55 212.25 Q83.7 203.35 87.4 187.1 L91.25 170.25 Q93.15 164.9 93.15 162.15 93.15 155.75 91.85 152.8 L90.65 153.75 91.1 151.1 Q92.3 143.65 93.4 141.3 95.55 136.9 101.05 135.7 L130.15 129.5 130.4 129.55 Q139.45 131.5 151.05 131.5 154.7 131.5 155.1 130.5 155.9 128.6 157.95 127.5 158.35 127.7 158.7 128.85 159.1 130.05 159.9 130.75 162.65 133.15 172.9 132.8 L179.35 138.9 Q183.05 142.7 184.25 145.45 183.1 145.35 173.05 141.75 163.25 138.25 161.25 138.25 159.55 138.25 158.7 139.0 L157.95 139.7 157.8 140.35 Q157.65 141.35 157.65 143.15 157.65 147.45 161.0 167.6 L156.1 161.9 Q151.6 157.25 147.6 157.25 145.85 157.25 144.85 158.1 L144.0 158.95 143.9 159.4 Q143.75 160.2 143.75 162.0 143.75 163.7 150.05 182.8 L154.6 196.95 M123.05 247.4 L124.2 249.0 123.65 249.6 123.05 247.4 M187.75 153.85 L185.85 151.4 186.2 151.5 188.55 152.1 189.1 152.25 188.9 152.55 187.75 153.85 M186.25 128.55 Q180.0 123.55 174.4 122.5 L177.1 122.55 185.0 122.8 185.6 122.8 188.15 122.3 189.15 122.05 189.15 122.6 Q189.15 124.55 187.25 127.3 L186.25 128.55 M156.15 85.65 Q143.75 85.55 133.8 83.9 L133.85 83.7 145.2 83.8 Q153.6 83.8 160.35 76.7 L164.7 71.8 Q166.75 69.6 168.2 69.6 169.75 70.6 171.55 71.0 175.1 71.75 177.5 68.75 176.9 65.35 175.2 63.1 180.1 63.5 182.4 65.35 187.2 69.25 191.45 70.7 179.15 71.7 172.85 74.55 169.15 76.2 165.4 80.05 161.9 83.65 158.35 84.95 L156.15 85.65 M139.75 79.05 L131.8 78.05 131.8 77.8 Q135.05 70.4 145.7 66.9 156.6 63.35 164.3 67.85 L164.1 68.1 163.8 68.45 139.75 79.05 M133.95 87.9 Q132.8 89.0 131.05 89.9 L130.3 90.25 Q124.8 88.7 120.1 89.0 117.1 89.2 112.0 90.75 108.3 91.85 106.4 91.15 103.7 90.1 100.6 84.95 L100.15 83.9 108.55 81.4 109.3 81.95 111.1 83.25 Q112.25 84.1 114.1 84.8 L133.6 87.85 133.95 87.9 M189.1 116.75 L189.1 116.8 188.35 117.4 187.75 117.65 187.7 117.55 184.65 117.75 Q184.55 117.1 184.3 117.15 184.05 117.2 183.85 117.6 L177.75 118.35 170.55 119.15 162.8 120.05 160.85 119.9 160.85 120.25 145.8 121.95 Q108.8 125.75 75.15 125.75 64.15 125.75 47.7 118.7 L46.8 118.0 41.8 114.5 Q48.2 114.65 62.45 117.2 77.9 119.9 95.75 119.9 108.1 119.9 113.15 118.75 114.55 118.4 119.4 116.2 127.4 112.45 162.85 112.45 172.7 112.45 176.15 114.05 179.6 115.6 183.0 115.6 L183.0 114.75 Q180.35 111.75 178.3 110.6 172.65 107.4 162.7 107.4 136.3 107.4 120.6 111.1 L109.65 113.6 95.15 114.75 Q82.15 114.75 59.25 112.15 L34.9 109.4 14.5 109.4 Q9.5 111.2 5.0 120.2 L4.35 118.05 Q4.0 116.7 4.0 114.85 L4.45 109.95 4.65 108.85 Q9.4 105.25 18.55 103.05 25.4 101.45 31.6 101.4 37.5 101.4 37.5 102.75 37.5 104.1 57.95 107.4 77.3 110.5 81.2 110.5 85.75 110.5 107.5 106.8 135.55 103.05 171.6 103.05 L171.75 103.05 172.25 103.1 172.15 103.05 Q174.75 103.15 177.2 104.2 L177.1 104.2 178.05 104.6 183.65 108.85 183.85 109.1 184.85 110.25 Q186.75 112.55 188.3 115.25 L188.7 115.95 189.1 116.75 M95.4 85.4 L95.95 86.35 96.55 87.45 96.6 87.55 Q98.2 90.55 98.9 91.15 99.95 92.05 104.45 93.15 L102.75 93.15 Q96.05 93.15 89.95 93.45 74.15 94.2 62.35 97.0 L61.55 96.95 59.65 96.85 62.05 96.15 86.95 88.15 95.4 85.4 M168.35 151.75 L168.75 153.95 167.9 151.65 168.35 151.75 M194.9 186.55 Q195.5 186.8 195.5 188.6 195.5 190.4 192.35 192.6 189.25 194.75 186.85 194.75 L184.65 194.7 184.55 194.6 Q185.65 191.95 188.05 189.25 190.95 186.1 193.2 186.3 L194.9 186.55 M226.0 193.35 Q222.95 195.65 219.15 198.95 212.15 205.0 206.65 210.8 L205.85 211.65 Q205.15 208.35 204.0 207.5 L203.5 208.0 203.35 214.55 Q201.05 217.25 201.0 218.2 L201.0 218.25 201.5 218.9 202.45 219.7 202.75 219.5 202.0 220.05 190.15 228.4 189.8 219.8 189.7 217.8 189.65 217.25 189.65 216.8 189.6 216.2 189.55 214.95 193.8 212.2 Q197.35 210.0 202.0 207.55 209.75 203.5 212.75 200.5 L223.6 189.85 226.7 186.8 Q226.3 189.45 226.0 193.35 M211.7 215.05 L217.5 210.4 217.5 244.25 216.35 276.05 215.75 296.75 Q215.75 298.0 216.9 311.75 L218.0 326.75 Q218.0 330.7 216.55 336.6 215.55 340.65 214.35 343.25 L212.0 345.25 209.65 344.95 Q209.0 344.65 209.0 343.0 209.0 335.5 210.7 316.45 212.25 298.6 212.0 287.5 L210.5 232.0 Q210.5 226.45 211.7 215.05 M222.05 206.65 L222.5 206.25 225.2 203.95 224.65 213.25 Q223.7 233.4 223.55 248.7 L222.65 235.5 Q221.5 219.5 221.5 218.25 L221.9 208.5 222.05 206.65 M223.6 259.7 Q223.7 265.6 224.2 273.3 L224.5 278.6 224.0 294.6 Q224.0 301.25 225.55 313.75 L226.0 317.1 226.0 317.0 226.0 298.3 Q227.35 315.0 227.9 326.45 L227.75 326.1 227.3 325.1 228.0 328.15 228.25 339.0 Q228.25 340.7 227.35 342.65 225.95 345.65 222.45 349.35 219.2 352.75 214.9 355.95 214.75 355.2 214.75 354.25 214.75 351.45 217.7 348.3 L218.3 339.95 Q220.25 336.7 220.25 335.25 L219.45 324.45 220.65 307.85 Q223.0 273.9 223.6 259.7 M219.15 359.2 L219.2 359.15 219.25 359.2 220.2 359.35 219.15 359.2 M225.0 353.0 L227.7 350.15 229.35 347.75 232.0 343.0 Q232.6 344.8 234.65 348.5 237.5 353.8 237.5 358.0 237.5 359.4 235.0 363.75 L232.95 367.3 233.1 365.65 Q233.4 360.15 231.0 357.5 228.55 354.8 225.05 353.0 L225.0 353.0 M232.55 368.4 Q232.6 369.5 233.25 369.2 L234.0 368.5 Q236.6 365.0 239.0 359.2 L239.15 358.85 Q239.9 360.7 244.9 367.4 246.9 370.55 248.25 373.45 L245.85 372.7 Q243.7 372.2 241.75 373.0 242.0 373.75 242.95 374.45 244.15 375.35 246.0 375.5 L248.8 374.75 248.65 374.3 249.2 375.75 Q249.8 375.45 250.25 376.45 251.25 378.8 251.25 389.1 251.25 390.8 248.1 395.35 L246.75 397.25 246.75 392.25 Q246.75 385.3 245.4 382.15 242.1 374.55 231.75 378.5 L231.75 374.0 232.65 369.05 232.55 368.4 M243.95 400.7 L242.45 402.35 243.15 400.75 243.95 400.7 M195.5 421.1 L189.85 421.25 186.0 421.0 184.0 420.75 162.5 420.4 160.8 419.35 142.5 407.75 Q147.05 407.75 157.35 410.85 168.95 414.3 174.5 418.25 176.9 419.85 186.15 420.6 L195.5 421.1 M147.4 419.35 Q122.8 415.9 107.55 406.6 92.25 397.25 92.25 386.5 92.25 380.35 95.3 375.2 97.35 371.75 102.0 367.2 L105.75 363.45 Q106.85 366.0 112.45 371.55 L113.1 372.15 112.4 372.25 Q108.9 369.75 107.25 367.35 L107.75 369.15 108.45 369.8 111.55 372.35 Q104.6 373.5 101.5 378.25 99.45 381.45 99.5 385.0 99.5 389.0 103.2 394.5 107.95 401.55 116.8 407.25 120.75 409.8 125.3 412.0 135.05 416.6 147.4 419.35 M218.3 381.8 L219.55 381.0 221.25 379.9 Q221.3 381.2 221.65 382.2 L218.3 381.8 M223.7 372.4 L222.3 373.85 Q220.15 376.15 218.05 377.85 L215.05 379.95 214.3 380.35 213.95 380.55 213.1 381.0 Q204.0 385.4 185.3 387.25 162.15 387.15 148.9 384.85 L141.25 383.25 140.9 383.15 Q130.1 380.35 122.3 375.6 L118.9 372.2 118.35 372.15 118.1 371.85 117.7 371.35 Q113.5 366.0 111.75 363.25 110.55 361.3 110.15 357.95 L110.6 357.1 110.8 356.6 113.3 356.45 112.0 351.55 111.85 350.95 111.85 350.8 111.95 350.95 112.0 351.0 125.0 361.8 125.1 361.85 125.9 362.45 125.95 362.45 Q127.1 364.6 127.25 367.45 129.7 368.95 132.0 371.4 134.9 374.5 137.25 375.75 145.15 379.95 162.0 380.8 165.65 381.0 191.0 381.0 206.75 381.0 220.2 372.75 L222.3 371.4 222.65 370.85 225.25 366.4 225.25 366.5 Q225.25 367.75 223.7 372.4 M124.0 356.55 L123.05 355.55 123.4 354.3 124.0 356.55 M117.15 347.95 L116.8 347.45 Q114.95 344.55 113.6 341.6 114.8 343.0 116.0 343.0 L117.0 342.95 117.15 347.95 M116.85 335.5 L115.5 340.25 114.5 340.25 112.45 333.6 112.5 332.85 111.85 331.7 Q110.95 329.85 110.5 327.55 L110.2 324.85 110.25 323.25 Q110.7 317.3 110.65 307.9 L110.6 303.9 110.45 295.7 110.45 295.15 110.4 294.3 109.75 275.25 Q110.1 262.35 109.95 253.85 L110.05 254.15 Q111.1 257.6 112.1 260.05 111.75 261.95 111.75 264.25 L112.3 270.65 Q113.2 276.75 115.0 276.75 L116.55 276.5 116.25 276.25 Q117.55 271.8 120.9 263.7 L121.65 262.6 121.6 262.05 125.7 252.55 Q127.7 250.3 130.4 247.85 L138.85 240.05 Q143.5 235.4 145.75 231.5 L146.3 230.5 146.5 236.25 Q150.2 231.0 154.3 226.3 162.35 217.0 168.75 217.0 L168.9 217.0 169.25 218.6 Q169.4 220.55 168.75 222.75 L169.15 223.7 170.55 222.05 171.45 225.9 171.75 227.05 Q173.55 233.25 176.0 233.25 177.7 233.25 181.55 225.9 L183.3 222.65 Q186.2 217.4 187.75 216.25 L187.9 216.15 187.8 217.95 187.75 221.1 Q181.5 227.3 181.5 232.35 181.5 234.1 182.0 234.75 L184.0 236.25 188.4 232.7 188.75 234.25 188.75 283.0 Q188.05 288.1 189.0 293.25 L189.5 292.75 Q189.5 291.25 190.25 279.05 L190.25 324.75 191.4 329.45 Q192.0 332.15 192.0 333.75 192.0 342.5 190.75 348.75 188.15 361.75 181.0 361.75 L178.95 361.5 178.75 361.25 178.5 361.6 Q178.3 361.65 178.3 360.85 L183.0 361.0 Q186.75 358.25 188.55 349.9 185.9 357.7 178.95 358.65 L181.5 354.4 Q184.75 349.3 184.75 346.85 184.75 343.15 183.45 336.0 181.95 328.0 181.75 324.75 L181.75 281.35 Q178.7 290.05 176.0 292.75 L174.65 292.5 Q174.25 292.3 174.25 290.75 177.45 274.65 181.55 266.0 181.0 257.75 180.65 244.3 L180.4 234.85 167.25 243.2 167.05 240.35 Q168.75 237.4 168.75 235.85 168.75 234.4 167.8 232.2 L166.5 228.75 166.35 228.8 166.25 226.75 165.5 226.75 165.5 229.2 Q160.75 231.65 154.65 241.0 152.2 244.8 150.8 247.45 L150.55 243.7 150.5 243.5 150.45 242.9 150.45 242.6 150.4 242.35 150.4 242.05 150.35 241.8 150.35 241.55 150.3 241.3 150.3 241.1 150.25 240.75 149.5 240.75 Q149.5 244.15 148.75 247.5 L148.75 291.75 Q148.75 296.15 148.0 304.7 L147.25 313.85 147.45 320.4 Q147.65 325.4 148.0 328.25 L148.5 327.75 Q148.5 304.15 149.9 293.85 L150.8 284.45 150.85 283.6 150.85 283.75 150.25 305.8 Q149.3 329.95 147.4 342.75 L147.25 340.75 146.5 340.75 146.4 347.65 146.45 347.9 146.45 348.25 Q145.2 354.0 143.7 356.0 L137.25 355.5 Q135.3 354.0 133.75 351.15 133.75 349.85 133.9 349.05 L134.0 348.5 135.05 348.4 Q135.2 338.65 137.15 321.9 139.3 303.65 139.25 291.75 139.25 286.5 140.05 277.15 L140.8 267.15 142.0 265.75 142.5 266.25 Q142.5 274.85 143.9 278.2 145.25 281.55 145.25 285.75 L143.9 298.75 Q142.5 310.25 142.5 313.5 L142.55 315.65 143.0 316.25 143.45 315.45 143.5 315.0 Q143.7 310.75 145.3 300.35 146.75 291.0 146.75 285.35 L146.1 273.25 Q145.4 261.3 145.25 255.75 143.4 254.95 137.05 260.8 136.6 259.35 135.8 258.85 134.15 257.85 131.4 260.9 L130.45 262.0 129.75 253.1 129.45 250.9 129.25 249.75 Q127.25 255.65 126.9 266.25 L126.85 268.1 126.85 267.45 Q123.35 273.7 119.8 283.75 L119.25 271.75 118.5 271.75 Q118.5 277.2 117.75 288.3 L117.5 292.1 117.55 291.1 Q116.4 296.8 116.3 305.65 116.2 311.8 116.5 318.25 L116.8 334.75 116.85 335.5 M131.4 44.85 L134.55 43.0 150.6 33.3 146.6 37.55 146.85 37.85 147.8 37.15 Q153.55 32.95 154.5 32.95 L154.8 32.5 Q155.1 32.45 155.1 34.25 155.1 34.75 149.1 38.4 L148.35 38.9 148.9 39.4 Q147.3 41.0 142.55 43.4 140.9 44.2 139.7 44.85 L131.4 44.85 M138.25 61.15 L126.6 69.5 Q119.85 74.35 117.7 74.35 L114.4 74.0 112.55 74.2 117.15 76.05 119.85 76.8 Q116.15 76.6 110.8 74.35 L110.8 76.15 108.8 74.65 108.6 74.5 108.5 74.4 Q106.75 72.85 106.0 71.5 117.35 66.45 138.25 61.15 M36.2 95.3 Q36.2 93.0 38.8 92.2 L46.7 90.85 Q46.7 91.6 49.45 93.15 44.95 95.65 43.25 96.35 L38.5 97.75 36.8 97.3 Q36.2 97.05 36.2 95.3 M79.45 101.05 Q79.1 101.6 75.6 102.1 L70.4 102.75 Q69.4 103.35 68.4 103.55 66.4 104.0 66.4 102.2 66.4 101.75 71.1 100.6 76.25 99.35 78.9 100.15 L79.45 101.05 M108.9 158.65 L108.95 158.55 Q114.7 152.65 114.7 151.05 114.7 149.3 114.1 149.1 L112.4 148.75 Q111.35 149.5 109.7 153.25 108.2 156.7 108.2 157.55 108.2 159.25 108.55 159.15 L108.2 159.75 Q107.65 160.85 107.65 163.55 107.65 164.4 108.2 165.95 108.95 168.0 110.1 169.3 111.25 169.05 111.8 168.45 112.05 167.4 113.6 163.5 114.7 160.6 114.7 158.95 114.7 157.15 114.15 156.55 L112.95 155.65 Q110.2 157.05 108.9 158.65 M113.25 182.95 Q113.25 180.95 112.9 180.3 L111.25 178.65 Q110.15 179.1 109.75 179.95 109.35 180.85 109.35 182.95 109.35 185.05 110.0 187.5 110.65 189.85 111.55 191.15 113.25 186.05 113.25 182.95 M120.55 193.25 Q119.85 193.85 119.85 195.75 119.85 197.65 120.7 198.95 L122.6 201.1 123.75 200.5 124.3 197.9 121.9 192.9 Q120.95 192.9 120.55 193.25 M128.65 166.45 Q127.75 166.45 127.5 166.75 L127.5 175.8 Q128.75 179.6 130.0 187.5 131.55 194.35 135.4 197.9 L136.55 195.5 133.05 180.85 Q130.8 171.4 128.65 166.45 M129.5 228.9 Q127.9 225.65 126.6 224.65 L124.9 224.95 124.6 224.5 Q124.3 224.45 124.3 226.25 124.3 227.0 126.65 230.25 129.15 233.75 130.65 234.7 L131.15 233.65 131.2 233.15 Q130.95 231.8 129.5 228.9 M145.75 245.25 L145.25 243.75 Q141.8 242.85 139.55 245.0 137.75 246.65 137.75 248.5 137.75 250.2 138.4 251.0 138.85 251.55 140.0 252.0 143.4 248.6 145.75 245.25 M164.75 244.75 L163.55 245.5 164.75 243.9 164.75 244.75 M99.5 377.25 L100.5 377.25 Q102.05 376.0 103.0 374.35 104.1 372.35 103.5 371.0 102.0 371.75 100.65 374.15 99.5 376.25 99.5 377.25 M100.25 390.45 Q99.85 387.65 98.0 386.25 96.75 387.3 96.1 389.25 95.5 391.0 95.5 393.0 95.5 394.6 95.75 395.25 96.5 397.25 99.0 397.25 100.55 397.25 101.0 396.4 L101.5 395.0 Q100.7 393.85 100.25 390.45 M189.4 321.3 L188.25 302.75 187.5 303.0 Q187.5 307.1 188.85 319.2 L189.95 331.25 189.4 321.3 M175.25 315.75 Q176.25 312.75 177.25 312.75 L177.5 313.85 176.25 317.25 175.5 317.25 175.25 315.75 M201.0 332.25 L202.35 332.5 Q202.75 332.7 202.75 334.25 202.75 335.65 202.45 335.75 202.1 335.9 202.0 336.5 L201.5 336.9 199.5 337.25 197.55 337.0 197.5 336.75 196.95 336.45 Q196.75 336.35 196.75 334.85 196.75 333.4 198.25 332.8 L201.0 332.25 M206.0 358.0 L203.75 357.25 203.5 357.6 Q203.25 357.65 203.25 356.1 203.25 354.95 204.75 354.0 206.45 352.95 209.25 352.75 L209.75 354.25 Q208.5 356.0 206.0 358.0" fill="#b89f72" fill-rule="evenodd" stroke="none"/>
      <path d="M227.85 59.35 L227.5 59.45 228.1 60.35 228.1 60.65 226.55 59.65 227.85 59.35 M230.2 191.3 L230.7 190.8 230.6 191.1 230.2 191.45 230.2 191.3 M118.65 44.15 Q120.05 41.75 122.0 40.35 124.9 38.2 128.0 38.8 L127.25 39.25 124.4 40.7 118.65 44.15 M192.25 51.4 Q196.0 49.05 209.2 43.35 L209.45 43.45 209.7 43.1 Q213.65 41.35 218.5 39.35 L226.65 36.0 Q247.15 25.3 261.2 22.7 L267.1 23.45 275.9 25.5 Q254.0 27.5 231.05 36.05 L230.7 36.2 Q204.4 48.8 194.05 53.9 L192.45 54.4 192.3 54.15 191.15 54.05 190.85 53.5 197.05 51.3 Q196.85 50.95 195.6 50.65 L194.35 50.45 Q193.9 50.8 192.25 51.4 M225.4 160.2 Q225.15 166.4 224.25 170.9 L222.15 182.05 217.35 174.65 216.45 174.65 Q218.45 181.25 220.35 184.85 217.1 189.4 214.5 192.25 L210.25 196.15 209.55 195.3 Q203.0 187.45 200.55 182.5 197.1 175.45 198.95 169.65 L198.1 169.65 198.1 175.8 Q199.85 184.05 209.1 197.15 L195.15 208.85 189.15 214.0 188.0 214.0 187.95 215.1 Q179.95 222.3 177.5 226.5 L176.8 225.9 176.25 225.5 Q174.7 218.5 172.95 208.25 L172.85 207.7 Q174.25 209.55 180.65 209.55 183.05 209.55 183.95 207.6 184.55 206.3 184.55 203.8 184.55 195.95 181.25 184.75 177.55 172.3 176.95 164.15 176.4 155.95 176.2 150.3 181.75 154.5 185.25 154.5 L186.25 154.45 190.45 160.0 Q194.15 165.0 196.65 166.75 194.7 163.2 191.8 159.15 L187.75 153.85 188.9 152.55 189.1 152.25 188.55 152.1 Q193.2 153.45 199.1 156.3 206.2 159.8 207.15 161.45 L208.15 162.15 Q209.15 162.55 209.15 160.75 209.15 158.0 205.15 151.1 200.9 143.75 195.05 137.05 190.5 131.9 186.25 128.55 L187.25 127.3 Q189.15 124.55 189.15 122.6 L189.15 122.05 188.15 122.3 190.85 121.4 Q194.9 119.8 194.9 118.3 194.9 111.05 186.15 102.2 178.35 94.3 164.0 85.55 L156.15 85.65 158.35 84.95 Q161.9 83.65 165.4 80.05 169.15 76.2 172.85 74.55 179.15 71.7 191.45 70.7 187.2 69.25 182.4 65.35 180.1 63.5 175.2 63.1 173.05 60.15 169.1 59.0 161.25 56.7 145.2 60.8 141.85 61.65 139.05 63.05 143.25 57.65 154.3 55.8 L163.45 54.85 165.7 54.7 Q168.95 55.95 176.2 59.9 190.5 67.7 198.8 76.0 204.85 82.1 208.75 89.05 212.45 95.65 213.0 100.75 215.55 120.15 220.4 130.75 L220.65 131.25 215.9 124.6 203.35 102.8 Q195.8 89.95 187.45 82.35 187.45 82.65 186.85 82.9 190.05 89.1 198.2 108.65 206.5 128.55 211.85 138.9 218.55 151.9 225.4 160.2 M183.75 130.15 Q190.15 133.6 195.15 139.15 201.95 146.65 205.7 157.4 203.85 157.0 195.5 153.2 L189.5 151.15 189.75 149.05 187.9 146.15 Q186.0 143.65 186.0 142.7 186.0 140.9 186.8 139.45 L187.75 137.65 Q188.1 136.0 181.8 130.35 L183.75 130.15 M133.8 83.9 L132.35 83.65 133.85 83.7 133.8 83.9 M162.6 21.4 Q164.75 20.55 166.75 20.15 L164.85 21.0 158.35 24.6 Q152.45 28.9 145.45 33.0 137.05 37.6 131.9 40.6 129.65 41.85 128.05 42.85 L127.05 42.6 Q126.0 42.25 125.65 41.7 L129.25 39.15 143.55 27.8 Q152.95 21.1 164.85 19.55 L162.6 21.4 M139.75 79.05 L163.8 68.45 160.05 72.65 Q158.05 74.95 156.35 76.0 152.2 78.65 141.0 79.2 L139.75 79.05 M131.05 89.9 L131.25 90.2 131.5 90.6 130.3 90.25 131.05 89.9 M134.45 91.6 L134.9 91.8 Q138.65 92.05 142.3 93.4 142.3 94.0 139.4 94.0 L139.3 94.0 134.45 91.6 M148.9 99.9 L152.35 99.4 Q154.1 99.05 154.6 98.55 L155.1 97.75 Q154.55 94.6 150.05 93.95 143.65 93.0 142.0 92.0 L163.25 92.15 165.9 92.1 Q170.75 96.3 180.45 103.1 L184.6 106.3 177.2 104.2 Q174.75 103.15 172.15 103.05 161.35 100.85 148.9 100.35 L148.9 99.9 M189.9 115.65 L189.1 116.75 188.7 115.95 189.6 116.15 189.9 115.65 M92.9 81.6 L93.5 82.35 95.4 85.4 86.95 88.15 62.05 96.15 Q59.75 96.15 54.25 97.5 48.35 99.0 46.0 100.15 L49.85 101.05 Q55.85 98.15 62.15 97.0 L61.55 96.95 62.35 97.0 Q74.15 94.2 89.95 93.45 L72.0 96.0 Q95.8 98.65 104.8 100.2 106.9 100.45 130.5 100.45 L139.6 100.35 118.7 103.6 Q96.25 107.05 81.75 107.05 71.7 107.05 50.05 102.45 L22.55 96.15 20.95 96.3 Q26.7 93.9 35.05 92.0 L43.0 90.0 43.05 90.0 58.5 90.85 Q69.8 90.85 87.65 83.8 L92.9 81.6 M146.4 100.1 L147.1 100.25 144.55 100.2 146.4 100.1 M194.9 186.55 L193.2 186.3 Q190.95 186.1 188.05 189.25 185.65 191.95 184.55 194.6 L184.65 194.7 186.85 194.75 Q189.25 194.75 192.35 192.6 195.5 190.4 195.5 188.6 195.5 186.8 194.9 186.55 M231.75 166.8 L227.15 174.3 225.15 177.6 226.4 170.8 226.65 161.65 Q229.15 164.55 231.75 166.8 M240.95 172.8 L240.85 172.85 240.9 172.75 240.95 172.8 M206.5 216.65 L212.05 212.15 211.7 215.05 Q210.5 226.45 210.5 232.0 L212.0 287.5 Q212.25 298.6 210.7 316.45 209.0 335.5 209.0 343.0 209.0 344.65 209.65 344.95 L212.0 345.25 214.35 343.25 212.5 346.25 214.0 346.5 217.8 340.75 218.3 339.95 217.7 348.3 Q214.75 351.45 214.75 354.25 214.75 355.2 214.9 355.95 211.4 358.5 207.2 360.9 203.25 363.15 199.35 364.95 182.1 369.75 172.35 369.75 L154.35 368.5 143.0 367.7 Q135.85 364.9 129.7 359.75 L125.05 357.6 124.0 356.55 123.4 354.3 Q122.2 349.6 122.05 347.45 L122.05 347.3 122.05 347.25 122.05 347.15 122.0 346.75 122.0 326.85 122.2 312.4 Q122.3 299.85 121.9 291.3 L121.7 287.3 Q124.0 282.1 125.0 280.25 L126.65 277.65 126.5 284.5 Q126.5 296.5 125.5 320.85 125.5 335.7 126.2 339.65 128.15 350.75 136.25 358.0 L144.0 358.0 Q146.75 357.1 147.5 354.3 L147.75 350.5 147.4 342.75 Q149.3 329.95 150.25 305.8 L150.85 283.75 Q151.25 277.2 151.25 269.6 L151.05 254.05 Q155.1 250.95 159.5 248.0 L163.55 245.5 164.75 244.75 164.75 310.6 162.75 308.05 Q160.25 304.95 160.25 304.25 160.25 299.75 161.5 290.8 162.75 281.8 162.75 276.85 L162.3 265.8 Q161.75 256.2 161.25 254.75 159.75 258.65 159.75 266.25 160.05 269.5 156.85 272.3 153.5 275.2 153.5 277.85 153.5 281.55 155.65 288.05 157.75 294.5 157.75 304.85 L156.15 307.05 Q154.5 309.4 154.5 310.1 154.5 311.15 156.9 315.7 159.25 320.2 159.25 322.5 159.25 325.15 157.5 330.4 155.75 335.7 155.75 337.5 155.75 339.85 159.15 342.8 162.5 345.75 162.5 347.75 162.5 349.0 161.4 351.5 160.25 354.0 160.25 355.25 160.25 358.75 163.0 358.75 164.55 358.75 164.95 358.15 L165.25 357.5 165.75 354.85 Q163.5 350.7 163.5 348.1 L162.0 329.75 Q162.0 327.6 163.65 319.95 L164.6 315.5 164.5 320.35 Q164.5 334.7 165.6 341.9 168.0 357.7 175.5 360.75 L178.3 360.85 Q178.3 361.65 178.5 361.6 L178.75 361.25 178.95 361.5 181.0 361.75 Q188.15 361.75 190.75 348.75 192.0 342.5 192.0 333.75 192.0 332.15 191.4 329.45 L190.25 324.75 190.25 279.05 190.4 276.6 191.25 257.85 190.65 240.35 190.15 228.4 202.0 220.05 202.75 219.5 203.2 219.15 202.35 255.9 201.75 286.0 Q201.75 308.25 202.15 314.15 203.15 330.0 207.5 342.25 L208.5 342.0 Q204.7 321.7 204.3 316.95 204.0 313.95 204.0 297.35 L206.5 217.1 206.5 216.65 M218.5 206.25 L222.8 201.65 222.4 202.1 222.05 206.65 221.9 208.5 221.5 218.25 Q221.5 219.5 222.65 235.5 L223.55 248.7 223.5 254.25 223.6 259.7 Q223.0 273.9 220.65 307.85 L219.45 324.45 219.15 320.8 Q218.0 307.6 218.0 306.35 L218.55 282.1 Q218.95 257.05 218.5 244.5 L218.5 206.25 M242.45 402.35 L239.5 405.25 Q226.35 417.7 212.8 418.45 204.65 420.6 195.5 421.1 L186.15 420.6 Q176.9 419.85 174.5 418.25 168.95 414.3 157.35 410.85 147.05 407.75 142.5 407.75 L160.8 419.35 162.5 420.4 155.25 420.25 147.4 419.35 Q135.05 416.6 125.3 412.0 123.65 409.35 120.75 406.85 118.7 405.05 112.9 400.95 108.0 397.5 106.0 395.3 103.0 392.05 103.0 388.6 103.0 384.0 109.5 377.1 L113.1 373.5 Q115.65 375.2 118.75 376.95 120.15 377.9 121.35 378.4 L125.85 381.65 Q140.5 391.0 165.0 391.0 L191.65 389.5 Q205.55 389.3 218.3 381.8 L221.65 382.2 231.9 383.55 Q245.25 386.25 245.25 390.85 245.25 395.7 243.15 400.75 L242.45 402.35 M113.1 372.15 L115.0 373.95 112.4 372.25 113.1 372.15 M122.3 375.6 L119.75 373.95 118.1 371.85 118.35 372.15 118.9 372.2 122.3 375.6 M110.8 356.6 Q111.75 354.2 111.75 351.75 L111.5 350.4 111.85 350.8 111.85 350.95 112.0 351.55 113.3 356.45 110.8 356.6 M125.95 362.45 L126.4 362.8 Q134.15 368.4 136.45 369.5 L138.5 372.0 Q142.05 375.2 147.0 374.75 169.5 372.55 175.75 376.15 176.65 376.65 178.85 378.9 180.2 380.25 182.5 380.25 184.95 380.25 207.55 370.3 220.6 364.5 226.2 361.65 L226.25 363.0 Q226.25 364.25 225.25 366.4 L222.65 370.85 222.3 371.4 220.2 372.75 Q206.75 381.0 191.0 381.0 165.65 381.0 162.0 380.8 145.15 379.95 137.25 375.75 134.9 374.5 132.0 371.4 129.7 368.95 127.25 367.45 127.1 364.6 125.95 362.45 M132.75 41.25 Q130.75 43.15 129.65 44.85 L123.15 44.85 Q127.45 43.6 132.4 41.0 L132.75 41.25 M106.0 71.5 Q105.5 70.5 105.5 69.6 L105.8 65.8 Q105.95 63.9 105.65 63.0 L99.6 63.55 99.65 63.5 107.65 60.4 Q124.5 54.35 131.8 53.9 L155.75 52.35 Q149.0 54.05 140.3 59.7 L138.25 61.15 Q117.35 66.45 106.0 71.5 M95.75 65.0 L94.35 66.15 94.4 65.55 95.75 65.0 M100.15 83.9 Q98.65 80.85 95.85 78.05 L93.65 76.1 94.1 75.4 Q96.95 70.6 100.9 69.0 L100.9 70.45 Q101.05 75.75 109.3 81.95 L108.55 81.4 100.15 83.9 M36.2 95.3 Q36.2 97.05 36.8 97.3 L38.5 97.75 43.25 96.35 Q44.95 95.65 49.45 93.15 46.7 91.6 46.7 90.85 L38.8 92.2 Q36.2 93.0 36.2 95.3 M79.45 101.05 L78.9 100.15 Q76.25 99.35 71.1 100.6 66.4 101.75 66.4 102.2 66.4 104.0 68.4 103.55 69.4 103.35 70.4 102.75 L75.6 102.1 Q79.1 101.6 79.45 101.05 M156.25 218.05 L154.95 218.95 154.8 215.15 154.55 210.2 156.9 213.35 156.25 218.05 M167.25 243.2 L180.4 234.85 180.65 244.3 Q181.0 257.75 181.55 266.0 177.45 274.65 174.25 290.75 174.25 292.3 174.65 292.5 L176.0 292.75 Q178.7 290.05 181.75 281.35 L181.75 324.75 Q181.95 328.0 183.45 336.0 184.75 343.15 184.75 346.85 184.75 349.3 181.5 354.4 L178.95 358.65 177.0 358.75 Q167.45 358.75 166.65 341.2 166.4 336.0 166.9 326.15 167.4 316.2 167.25 313.0 L167.25 243.2 M140.8 267.15 L140.05 277.15 Q139.25 286.5 139.25 291.75 139.3 303.65 137.15 321.9 135.2 338.65 135.05 348.4 L134.0 348.5 133.9 349.05 Q133.75 349.85 133.75 351.15 131.2 346.35 129.8 337.7 128.5 329.65 128.5 321.0 128.5 317.45 130.25 284.95 L130.65 272.55 Q134.0 268.7 138.75 264.35 L141.0 262.35 141.0 262.5 141.0 262.85 140.95 264.75 140.85 266.4 140.8 267.15 M143.7 356.0 Q145.2 354.0 146.45 348.25 L146.45 347.9 146.45 348.6 Q146.3 353.3 144.0 356.0 L143.7 356.0 M117.5 377.75 L117.15 378.05 Q116.75 378.45 116.75 380.0 116.75 382.05 121.75 389.05 127.6 397.25 132.5 397.25 133.75 397.25 137.25 396.0 140.75 394.75 142.0 394.75 L153.5 400.15 165.0 405.5 181.45 403.9 198.75 402.25 Q200.0 402.25 201.4 403.25 202.75 404.25 204.0 404.25 207.55 404.25 209.9 402.3 213.8 399.05 218.0 397.25 220.0 396.4 225.4 394.9 L233.75 392.25 233.25 390.75 Q232.5 390.25 230.0 390.25 227.4 390.25 213.1 393.65 198.85 397.0 195.0 397.0 184.35 397.0 165.2 393.65 L148.0 390.25 Q142.1 390.25 131.85 386.2 121.0 381.9 118.25 377.75 L117.5 377.75 M175.25 315.75 L175.5 317.25 176.25 317.25 177.5 313.85 177.25 312.75 Q176.25 312.75 175.25 315.75 M201.0 332.25 L198.25 332.8 Q196.75 333.4 196.75 334.85 196.75 336.35 196.95 336.45 L197.5 336.75 197.55 337.0 199.5 337.25 201.5 336.9 202.0 336.5 Q202.1 335.9 202.45 335.75 202.75 335.65 202.75 334.25 202.75 332.7 202.35 332.5 L201.0 332.25 M164.25 364.25 Q166.0 364.0 166.5 363.25 166.15 361.0 163.5 358.75 162.15 358.75 161.5 359.75 161.6 361.4 164.25 364.25 M206.0 358.0 Q208.5 356.0 209.75 354.25 L209.25 352.75 Q206.45 352.95 204.75 354.0 203.25 354.95 203.25 356.1 203.25 357.65 203.5 357.6 L203.75 357.25 206.0 358.0 M215.1 402.65 Q207.15 405.9 205.5 409.25 L206.9 409.55 209.0 410.0 Q210.25 409.65 217.4 406.15 225.0 402.45 226.5 401.25 223.25 399.35 215.1 402.65" fill="#beb783" fill-rule="evenodd" stroke="none"/>
      <path d="M141.2 230.5 L138.3 233.6 137.95 232.9 Q133.5 224.35 133.5 221.5 133.5 219.65 133.75 218.6 L134.25 217.35 135.7 217.35 Q136.9 220.8 140.6 229.1 L141.2 230.5 M113.2 218.1 L112.95 217.35 111.75 217.35 110.6 211.25 Q108.8 203.3 108.65 201.95 L108.95 199.95 110.65 199.95 Q111.25 201.2 112.55 206.55 113.85 212.05 113.85 213.6 L113.4 217.15 113.2 218.1 M247.95 74.6 Q249.95 77.55 251.25 81.25 L247.5 83.0 246.75 81.55 246.25 78.15 246.2 77.6 Q246.2 75.85 246.65 75.15 L247.1 74.6 247.95 74.6 M187.75 117.65 L184.7 118.9 184.65 117.75 187.7 117.55 187.75 117.65 M177.75 118.35 L163.8 120.1 162.8 120.05 170.55 119.15 177.75 118.35 M160.85 120.25 L160.85 120.45 131.3 124.1 Q93.4 128.4 76.9 128.4 66.2 128.4 58.1 124.95 53.55 123.0 47.7 118.7 64.15 125.75 75.15 125.75 108.8 125.75 145.8 121.95 L160.85 120.25 M108.9 158.65 Q110.2 157.05 112.95 155.65 L114.15 156.55 Q114.7 157.15 114.7 158.95 114.7 160.6 113.6 163.5 112.05 167.4 111.8 168.45 111.25 169.05 110.1 169.3 108.95 168.0 108.2 165.95 107.65 164.4 107.65 163.55 107.65 160.85 108.2 159.75 L108.55 159.15 108.6 159.1 108.9 158.65 M113.25 182.95 Q113.25 186.05 111.55 191.15 110.65 189.85 110.0 187.5 109.35 185.05 109.35 182.95 109.35 180.85 109.75 179.95 110.15 179.1 111.25 178.65 L112.9 180.3 Q113.25 180.95 113.25 182.95 M128.65 166.45 Q130.8 171.4 133.05 180.85 L136.55 195.5 135.4 197.9 Q131.55 194.35 130.0 187.5 128.75 179.6 127.5 175.8 L127.5 166.75 Q127.75 166.45 128.65 166.45" fill="#afba70" fill-rule="evenodd" stroke="none"/>
      <path d="M192.25 51.4 Q193.9 50.8 194.35 50.45 L195.6 50.65 Q196.85 50.95 197.05 51.3 L190.85 53.5 188.65 54.25 191.15 54.05 192.3 54.15 192.45 54.4 192.6 54.75 187.85 56.65 187.05 56.95 187.85 57.2 187.0 57.7 189.55 58.75 191.3 58.35 Q207.15 64.0 212.2 72.95 215.4 78.6 215.7 89.05 216.0 100.45 217.65 104.5 219.8 109.95 222.25 119.25 L222.05 119.3 Q224.15 134.2 225.35 140.6 L225.5 147.15 209.55 131.5 209.55 131.8 Q217.7 142.05 225.5 150.85 L225.5 155.1 225.4 160.2 Q218.55 151.9 211.85 138.9 206.5 128.55 198.2 108.65 190.05 89.1 186.85 82.9 187.45 82.65 187.45 82.35 195.8 89.95 203.35 102.8 L215.9 124.6 220.65 131.25 220.4 130.75 Q215.55 120.15 213.0 100.75 212.45 95.65 208.75 89.05 204.85 82.1 198.8 76.0 190.5 67.7 176.2 59.9 168.95 55.95 165.7 54.7 L169.5 54.25 169.6 54.2 Q168.05 53.05 166.3 52.4 174.5 53.65 181.35 55.4 181.95 54.45 187.0 53.05 L192.25 51.4 M222.15 182.05 L222.1 182.3 220.35 184.85 Q218.45 181.25 216.45 174.65 L217.35 174.65 222.15 182.05 M133.95 87.9 L135.55 87.95 162.55 89.0 Q163.75 90.3 165.9 92.1 L163.25 92.15 142.0 92.0 Q143.65 93.0 150.05 93.95 154.55 94.6 155.1 97.75 L154.6 98.55 Q154.1 99.05 152.35 99.4 L148.9 99.9 Q145.35 97.35 140.4 94.6 L139.3 94.0 139.4 94.0 Q142.3 94.0 142.3 93.4 138.65 92.05 134.9 91.8 L134.45 91.6 133.4 91.2 133.35 91.2 133.25 91.15 131.5 90.6 131.25 90.2 131.05 89.9 Q132.8 89.0 133.95 87.9 M4.75 108.35 Q5.45 105.0 6.65 102.0 7.2 100.55 7.9 99.2 15.7 83.55 35.5 83.55 67.8 83.55 81.1 80.15 81.3 80.55 81.8 80.3 L82.35 79.8 85.15 78.85 87.25 79.2 89.6 78.9 Q91.3 79.75 92.9 81.6 L87.65 83.8 Q69.8 90.85 58.5 90.85 L43.05 90.0 43.0 90.0 35.05 92.0 Q26.7 93.9 20.95 96.3 16.45 98.15 13.55 100.3 11.6 101.7 8.25 105.0 L4.75 108.35 M104.45 93.15 Q110.65 94.65 123.45 96.4 140.7 98.8 146.4 100.1 L144.55 100.2 144.45 100.2 140.7 100.35 139.6 100.35 130.5 100.45 Q106.9 100.45 104.8 100.2 95.8 98.65 72.0 96.0 L89.95 93.45 Q96.05 93.15 102.75 93.15 L104.45 93.15 M229.25 143.45 L229.25 143.4 Q232.5 151.5 237.15 158.1 L237.0 158.0 236.8 158.4 228.9 150.5 226.65 148.3 226.45 140.25 224.5 128.2 227.0 137.2 227.15 137.65 228.95 142.7 229.25 143.45 M234.25 162.6 L231.75 166.8 Q229.15 164.55 226.65 161.65 L226.65 155.25 226.65 152.1 228.5 154.15 234.5 160.5 234.25 162.6 M238.95 160.55 L239.1 160.75 238.95 160.6 238.95 160.55 M240.95 172.8 L240.9 172.75 241.0 171.25 241.65 171.9 240.95 172.8 M199.35 364.95 Q180.2 373.7 161.5 371.5 L172.9 372.95 182.0 373.5 Q202.4 373.5 219.05 359.25 L219.15 359.2 220.2 359.35 225.5 359.5 225.95 360.8 226.2 361.65 Q220.6 364.5 207.55 370.3 184.95 380.25 182.5 380.25 180.2 380.25 178.85 378.9 176.65 376.65 175.75 376.15 169.5 372.55 147.0 374.75 142.05 375.2 138.5 372.0 L136.45 369.5 136.85 369.7 137.2 369.75 137.25 369.75 138.95 369.65 Q145.2 372.25 151.0 372.25 152.4 372.25 153.75 371.55 L155.4 370.7 Q148.85 370.0 143.0 367.7 L154.35 368.5 172.35 369.75 Q182.1 369.75 199.35 364.95 M99.6 63.55 Q97.3 64.0 95.75 65.0 L94.4 65.55 94.5 64.2 94.45 64.8 Q92.7 66.05 91.5 66.25 L90.45 65.6 Q90.0 65.15 90.0 63.6 L90.05 61.95 90.45 61.4 90.6 61.25 95.45 60.7 96.2 60.6 98.7 56.95 Q103.25 51.05 116.15 50.05 L146.05 50.05 160.55 51.6 Q158.3 51.7 155.75 52.35 L131.8 53.9 Q124.5 54.35 107.65 60.4 L99.65 63.5 99.6 63.55 M164.6 315.5 L163.65 319.95 Q162.0 327.6 162.0 329.75 L163.5 348.1 Q163.5 350.7 165.75 354.85 L165.25 357.5 164.95 358.15 Q164.55 358.75 163.0 358.75 160.25 358.75 160.25 355.25 160.25 354.0 161.4 351.5 162.5 349.0 162.5 347.75 162.5 345.75 159.15 342.8 155.75 339.85 155.75 337.5 155.75 335.7 157.5 330.4 159.25 325.15 159.25 322.5 159.25 320.2 156.9 315.7 154.5 311.15 154.5 310.1 154.5 309.4 156.15 307.05 L157.75 304.85 Q157.75 294.5 155.65 288.05 153.5 281.55 153.5 277.85 153.5 275.2 156.85 272.3 160.05 269.5 159.75 266.25 159.75 258.65 161.25 254.75 161.75 256.2 162.3 265.8 L162.75 276.85 Q162.75 281.8 161.5 290.8 160.25 299.75 160.25 304.25 160.25 304.95 162.75 308.05 L164.75 310.6 164.75 312.5 164.6 315.45 164.6 315.5 M117.5 377.75 L118.25 377.75 Q121.0 381.9 131.85 386.2 142.1 390.25 148.0 390.25 L165.2 393.65 Q184.35 397.0 195.0 397.0 198.85 397.0 213.1 393.65 227.4 390.25 230.0 390.25 232.5 390.25 233.25 390.75 L233.75 392.25 225.4 394.9 Q220.0 396.4 218.0 397.25 213.8 399.05 209.9 402.3 207.55 404.25 204.0 404.25 202.75 404.25 201.4 403.25 200.0 402.25 198.75 402.25 L181.45 403.9 165.0 405.5 153.5 400.15 142.0 394.75 Q140.75 394.75 137.25 396.0 133.75 397.25 132.5 397.25 127.6 397.25 121.75 389.05 116.75 382.05 116.75 380.0 116.75 378.45 117.15 378.05 L117.5 377.75 M164.25 364.25 Q161.6 361.4 161.5 359.75 162.15 358.75 163.5 358.75 166.15 361.0 166.5 363.25 166.0 364.0 164.25 364.25 M215.1 402.65 Q223.25 399.35 226.5 401.25 225.0 402.45 217.4 406.15 210.25 409.65 209.0 410.0 L206.9 409.55 205.5 409.25 Q207.15 405.9 215.1 402.65" fill="#cec48a" fill-rule="evenodd" stroke="none"/>
      <path d="M172.85 207.7 L170.25 192.5 169.5 192.5 Q171.05 201.5 166.65 208.9 L165.8 210.3 162.05 197.25 160.2 190.75 Q161.9 186.8 163.85 183.25 L165.95 186.05 Q171.6 193.6 173.7 194.85 176.95 201.3 180.65 207.1 L181.25 206.4 178.95 199.45 178.95 199.35 178.75 198.95 176.95 193.5 176.65 194.0 176.95 193.45 Q174.05 183.2 171.2 167.9 L168.75 153.95 168.35 151.75 166.75 143.15 Q167.7 143.55 175.2 149.5 L176.2 150.3 Q176.4 155.95 176.95 164.15 177.55 172.3 181.25 184.75 184.55 195.95 184.55 203.8 184.55 206.3 183.95 207.6 183.05 209.55 180.65 209.55 174.25 209.55 172.85 207.7 M162.8 181.85 Q161.05 184.5 159.35 187.6 156.8 178.0 156.8 174.35 157.9 175.3 162.8 181.85 M184.6 106.3 Q190.05 111.05 190.05 114.75 L190.05 114.95 189.9 115.65 189.6 116.15 188.7 115.95 188.3 115.25 Q186.75 112.55 184.85 110.25 L183.85 109.1 183.65 108.85 178.05 104.6 177.1 104.2 177.2 104.2 184.6 106.3 M4.65 108.85 L4.75 108.35 8.25 105.0 Q11.6 101.7 13.55 100.3 16.45 98.15 20.95 96.3 L22.55 96.15 50.05 102.45 Q71.7 107.05 81.75 107.05 96.25 107.05 118.7 103.6 L139.6 100.35 140.7 100.35 144.45 100.2 144.55 100.2 147.1 100.25 147.4 100.35 148.9 100.8 148.9 100.35 Q161.35 100.85 172.15 103.05 L172.25 103.1 171.75 103.05 171.6 103.05 Q135.55 103.05 107.5 106.8 85.75 110.5 81.2 110.5 77.3 110.5 57.95 107.4 37.5 104.1 37.5 102.75 37.5 101.4 31.6 101.4 25.4 101.45 18.55 103.05 9.4 105.25 4.65 108.85 M168.9 217.0 Q170.3 217.0 170.2 217.4 L170.0 217.75 Q170.0 219.35 170.55 222.05 L169.15 223.7 168.75 222.75 Q169.4 220.55 169.25 218.6 L168.9 217.0 M159.2 216.35 Q157.8 217.05 156.25 218.05 L156.9 213.35 157.8 214.6 159.2 216.35" fill="#b6bf82" fill-rule="evenodd" stroke="none"/>
      <path d="M165.8 210.3 Q163.85 213.1 161.05 215.55 L159.35 216.3 157.95 209.3 156.0 201.8 156.15 201.35 Q158.0 195.75 160.2 190.75 L162.05 197.25 165.8 210.3 M163.85 183.25 L165.25 180.75 163.5 180.75 162.8 181.85 Q157.9 175.3 156.8 174.35 156.8 178.0 159.35 187.6 156.9 191.9 154.6 196.95 L150.05 182.8 Q143.75 163.7 143.75 162.0 143.75 160.2 143.9 159.4 L144.0 158.95 144.85 158.1 Q145.85 157.25 147.6 157.25 151.6 157.25 156.1 161.9 L161.0 167.6 Q157.65 147.45 157.65 143.15 157.65 141.35 157.8 140.35 L157.95 139.7 158.7 139.0 Q159.55 138.25 161.25 138.25 163.25 138.25 173.05 141.75 183.1 145.35 184.25 145.45 183.05 142.7 179.35 138.9 L172.9 132.8 Q162.65 133.15 159.9 130.75 159.1 130.05 158.7 128.85 158.35 127.7 157.95 127.5 155.9 128.6 155.1 130.5 154.7 131.5 151.05 131.5 139.45 131.5 130.4 129.55 L130.15 129.5 130.5 129.45 148.65 126.65 160.2 124.65 167.1 123.3 167.25 124.35 167.45 124.95 168.8 125.15 170.55 125.5 Q177.3 126.8 183.0 129.75 L183.75 130.15 181.8 130.35 Q188.1 136.0 187.75 137.65 L186.8 139.45 Q186.0 140.9 186.0 142.7 186.0 143.65 187.9 146.15 L189.75 149.05 189.5 151.15 Q185.6 150.1 183.25 150.5 L186.25 154.45 185.25 154.5 Q181.75 154.5 176.2 150.3 L175.2 149.5 Q167.7 143.55 166.75 143.15 L168.35 151.75 167.9 151.65 168.75 153.95 171.2 167.9 Q174.05 183.2 176.95 193.45 L176.65 194.0 176.95 193.5 178.75 198.95 178.95 199.35 178.95 199.45 181.25 206.4 180.65 207.1 Q176.95 201.3 173.7 194.85 171.6 193.6 165.95 186.05 L163.85 183.25 M147.85 214.35 Q146.05 220.4 146.0 224.65 144.95 226.45 143.75 227.75 L142.9 228.65 Q139.15 205.35 139.15 199.95 L139.55 194.6 139.7 188.85 141.45 188.6 Q143.15 193.85 145.35 203.25 L143.45 198.5 142.6 198.5 142.6 199.8 Q142.6 202.7 146.45 209.4 L146.7 209.1 147.85 214.35 M226.0 193.35 L225.65 197.55 225.6 198.1 225.55 198.85 225.2 203.95 222.5 206.25 222.05 206.65 222.4 202.1 222.8 201.65 218.5 206.25 218.5 205.5 218.25 204.75 217.5 204.75 217.5 210.4 211.7 215.05 212.05 212.15 206.5 216.65 Q206.45 214.35 205.9 211.85 L205.85 211.65 206.65 210.8 Q212.15 205.0 219.15 198.95 222.95 195.65 226.0 193.35 M219.2 359.15 L219.6 358.8 225.0 353.0 225.05 353.0 Q228.55 354.8 231.0 357.5 233.4 360.15 233.1 365.65 L232.95 367.3 232.5 368.0 232.5 368.1 232.55 368.4 232.65 369.05 231.75 374.0 231.75 378.5 Q242.1 374.55 245.4 382.15 246.75 385.3 246.75 392.25 L246.75 397.25 243.95 400.7 243.15 400.75 Q245.25 395.7 245.25 390.85 245.25 386.25 231.9 383.55 L221.65 382.2 Q221.3 381.2 221.25 379.9 L222.2 379.25 227.8 374.6 Q230.75 371.7 230.75 370.6 230.75 369.0 230.35 368.7 L229.0 368.25 Q226.7 369.45 223.7 372.4 225.25 367.75 225.25 366.5 L225.25 366.4 Q226.25 364.25 226.25 363.0 L226.2 361.65 225.95 360.8 225.5 359.5 220.2 359.35 219.25 359.2 219.2 359.15 M111.55 372.35 L113.1 373.5 109.5 377.1 Q103.0 384.0 103.0 388.6 103.0 392.05 106.0 395.3 108.0 397.5 112.9 400.95 118.7 405.05 120.75 406.85 123.65 409.35 125.3 412.0 120.75 409.8 116.8 407.25 107.95 401.55 103.2 394.5 99.5 389.0 99.5 385.0 99.45 381.45 101.5 378.25 104.6 373.5 111.55 372.35 M123.05 355.55 Q119.65 351.8 117.15 347.95 L117.0 342.95 117.45 342.65 Q117.45 342.25 117.75 342.25 L117.95 340.95 118.0 338.85 118.45 328.8 116.95 335.05 116.85 335.5 116.8 334.75 116.5 318.25 Q116.2 311.8 116.3 305.65 116.4 296.8 117.55 291.1 L117.5 292.1 117.15 297.4 117.15 297.65 117.0 299.75 Q117.0 306.35 117.95 310.95 L119.0 315.3 120.0 289.85 120.0 289.0 119.8 283.75 Q123.35 273.7 126.85 267.45 L126.85 268.1 126.7 273.35 126.65 276.2 126.65 276.6 126.65 276.9 126.65 277.25 126.65 277.65 125.0 280.25 Q124.0 282.1 121.7 287.3 L121.9 291.3 Q122.3 299.85 122.2 312.4 L122.0 326.85 122.0 346.75 122.05 347.15 122.05 347.25 122.05 347.3 122.05 347.45 Q122.2 349.6 123.4 354.3 L123.05 355.55 M187.75 221.1 L187.75 223.35 187.75 224.2 188.05 229.85 188.4 232.7 184.0 236.25 182.0 234.75 Q181.5 234.1 181.5 232.35 181.5 227.3 187.75 221.1 M150.8 247.45 Q152.2 244.8 154.65 241.0 160.75 231.65 165.5 229.2 L165.3 233.45 165.25 234.1 165.2 234.85 164.75 242.75 164.75 243.9 163.55 245.5 159.5 248.0 Q155.1 250.95 151.05 254.05 L150.85 248.35 150.8 247.45 M166.35 228.8 L166.5 228.75 167.8 232.2 Q168.75 234.4 168.75 235.85 168.75 237.4 167.05 240.35 L166.35 228.8 M130.45 262.0 L131.4 260.9 Q134.15 257.85 135.8 258.85 136.6 259.35 137.05 260.8 143.4 254.95 145.25 255.75 145.4 261.3 146.1 273.25 L146.75 285.35 Q146.75 291.0 145.3 300.35 143.7 310.75 143.5 315.0 L143.45 315.45 143.0 316.25 142.55 315.65 142.5 313.5 Q142.5 310.25 143.9 298.75 L145.25 285.75 Q145.25 281.55 143.9 278.2 142.5 274.85 142.5 266.25 L142.0 265.75 140.8 267.15 140.85 266.4 140.95 264.75 141.0 262.85 141.0 262.5 141.0 262.35 138.75 264.35 Q134.0 268.7 130.65 272.55 L130.65 267.5 130.45 262.0 M203.35 214.55 L203.25 218.45 203.2 219.15 202.75 219.5 202.45 219.7 201.5 218.9 201.0 218.25 201.0 218.2 Q201.05 217.25 203.35 214.55" fill="#bb936f" fill-rule="evenodd" stroke="none"/>
      <path d="M62.05 96.15 L59.65 96.85 61.55 96.95 62.15 97.0 Q55.85 98.15 49.85 101.05 L46.0 100.15 Q48.35 99.0 54.25 97.5 59.75 96.15 62.05 96.15" fill="#ccc184" fill-rule="evenodd" stroke="none"/>
      <path d="M120.2 243.1 L123.05 247.4 123.65 249.6 121.35 252.1 120.2 243.1 M100.0 233.5 L93.5 248.0 Q88.95 257.95 88.7 263.35 L88.4 263.35 Q87.35 258.7 87.25 248.25 L88.9 241.75 Q94.95 219.2 96.0 213.3 L96.85 213.3 96.95 213.1 97.0 215.05 95.35 225.05 93.4 237.15 95.15 234.55 Q96.45 233.0 98.75 231.7 99.55 232.25 100.0 233.5 M90.65 153.75 L90.35 154.0 86.15 159.8 86.05 159.9 85.95 160.15 85.65 160.65 Q83.2 165.3 77.9 166.5 L77.9 165.6 Q80.1 163.05 85.0 155.0 90.7 145.65 90.7 143.05 90.7 138.4 89.0 135.05 L89.05 135.05 91.3 134.8 91.2 134.6 90.5 133.25 91.8 133.2 92.1 133.2 129.85 129.5 130.65 129.4 130.5 129.45 130.15 129.5 101.05 135.7 Q95.55 136.9 93.4 141.3 92.3 143.65 91.1 151.1 L90.65 153.75 M248.25 373.45 L248.65 374.3 248.8 374.75 246.0 375.5 Q244.15 375.35 242.95 374.45 242.0 373.75 241.75 373.0 243.7 372.2 245.85 372.7 L248.25 373.45 M112.1 260.05 L112.35 260.6 113.05 262.1 114.0 263.9 Q115.55 266.25 117.0 266.25 118.65 266.25 118.95 265.55 L119.25 263.75 Q119.75 259.0 125.7 252.55 L121.6 262.05 121.55 261.85 121.45 261.05 121.4 260.45 121.3 260.0 121.25 259.75 120.5 259.75 120.35 264.6 120.9 263.7 Q117.55 271.8 116.25 276.25 L116.55 276.5 115.0 276.75 Q113.2 276.75 112.3 270.65 L111.75 264.25 Q111.75 261.95 112.1 260.05 M145.75 245.25 Q143.4 248.6 140.0 252.0 138.85 251.55 138.4 251.0 137.75 250.2 137.75 248.5 137.75 246.65 139.55 245.0 141.8 242.85 145.25 243.75 L145.75 245.25 M100.25 390.45 Q100.7 393.85 101.5 395.0 L101.0 396.4 Q100.55 397.25 99.0 397.25 96.5 397.25 95.75 395.25 95.5 394.6 95.5 393.0 95.5 391.0 96.1 389.25 96.75 387.3 98.0 386.25 99.85 387.65 100.25 390.45 M99.5 377.25 Q99.5 376.25 100.65 374.15 102.0 371.75 103.5 371.0 104.1 372.35 103.0 374.35 102.05 376.0 100.5 377.25 L99.5 377.25" fill="#b6b861" fill-rule="evenodd" stroke="none"/>
    </g>
  </defs>
</svg>
