<?xml version="1.0" encoding="UTF-8" standalone="no"?>
<svg xmlns:ffdec="https://www.free-decompiler.com/flash" xmlns:xlink="http://www.w3.org/1999/xlink" ffdec:objectType="frame" height="422.8px" width="494.9px" xmlns="http://www.w3.org/2000/svg">
  <g transform="matrix(1.0, 0.0, 0.0, 1.0, 249.55, 353.5)">
    <use ffdec:characterId="219" height="14.85" transform="matrix(7.0, 0.0, 0.0, 7.0, -57.75, -169.75)" width="17.6" xlink:href="#shape0"/>
  </g>
  <defs>
    <g id="shape0" transform="matrix(1.0, 0.0, 0.0, 1.0, 8.25, 24.25)">
      <path d="M9.25 -18.4 Q10.0 -13.15 6.2 -9.95 5.45 -9.3 4.5 -9.7 2.45 -10.55 0.45 -10.5 L-1.55 -10.0 -3.15 -9.65 -3.5 -9.65 Q-4.65 -9.3 -5.95 -9.45 -7.0 -9.55 -7.9 -10.1 -8.45 -11.45 -8.1 -12.9 -7.25 -16.15 -6.5 -19.5 -6.25 -20.6 -5.45 -21.4 -3.15 -23.75 0.2 -24.2 5.45 -24.35 8.35 -20.5 9.05 -19.6 9.25 -18.4" fill="#ccfffe" fill-opacity="0.7529412" fill-rule="evenodd" stroke="none"/>
      <path d="M6.8 -21.25 Q8.0 -20.5 8.4 -19.15 L8.5 -18.85 Q8.6 -18.55 8.6 -18.15 8.75 -14.3 6.2 -11.9 5.6 -11.35 4.75 -11.55 0.65 -12.7 -3.2 -11.0 -6.9 -9.35 -7.7 -12.9 -8.4 -16.05 -7.15 -18.9 -6.85 -19.65 -6.3 -20.25 -3.7 -23.05 -0.05 -24.0 3.85 -23.75 6.45 -21.45 L6.8 -21.25" fill="#ffffff" fill-opacity="0.5019608" fill-rule="evenodd" stroke="none"/>
    </g>
  </defs>
</svg>
