<?xml version="1.0" encoding="UTF-8" standalone="no"?>
<svg xmlns:ffdec="https://www.free-decompiler.com/flash" xmlns:xlink="http://www.w3.org/1999/xlink" ffdec:objectType="frame" height="422.8px" width="494.9px" xmlns="http://www.w3.org/2000/svg">
  <g transform="matrix(1.0, 0.0, 0.0, 1.0, 249.55, 353.5)">
    <use ffdec:characterId="198" height="54.0" transform="matrix(7.0, 0.0, 0.0, 7.0, -214.55, -315.35)" width="60.25" xlink:href="#shape0"/>
    <use ffdec:characterId="199" height="10.75" transform="matrix(-3.957, 5.1886, 4.5291, 3.454, -17.4385, -146.1812)" width="10.2" xlink:href="#shape1"/>
    <use ffdec:characterId="195" height="5.45" transform="matrix(7.0, -3.8216, 3.8216, 7.0, -40.4278, -106.4317)" width="5.4" xlink:href="#shape2"/>
  </g>
  <defs>
    <g id="shape0" transform="matrix(1.0, 0.0, 0.0, 1.0, 30.65, 45.05)">
      <path d="M7.95 -36.4 Q7.95 -36.15 8.5 -35.95 9.05 -35.75 9.05 -35.5 L9.05 -35.3 9.0 -35.2 8.95 -35.15 8.9 -35.05 Q8.75 -35.15 8.6 -35.5 8.4 -35.8 7.65 -35.8 L7.65 -36.7 Q8.15 -37.95 8.85 -38.35 9.55 -38.7 9.55 -37.7 9.55 -37.55 9.4 -37.45 9.25 -37.35 9.0 -37.35 8.95 -37.35 8.75 -37.45 L8.5 -37.6 Q8.4 -37.55 8.2 -37.05 7.95 -36.5 7.95 -36.4 M4.95 -41.15 Q5.3 -41.15 5.55 -40.25 L5.75 -39.3 5.7 -38.9 5.65 -38.4 Q5.65 -38.25 5.45 -38.05 5.25 -37.85 4.85 -37.75 L4.6 -37.85 4.5 -37.9 Q4.45 -37.95 4.45 -38.1 4.45 -38.15 4.85 -38.6 5.2 -39.0 5.2 -39.2 5.2 -39.4 4.85 -40.1 4.5 -40.9 4.2 -41.25 3.75 -41.4 3.5 -41.4 2.75 -41.4 2.3 -40.9 1.85 -40.45 1.0 -40.45 0.25 -40.45 0.2 -40.9 L0.15 -41.25 Q0.15 -41.4 -0.05 -41.4 -0.15 -41.4 -1.2 -40.6 -2.25 -39.8 -2.55 -39.8 -3.0 -39.8 -3.2 -40.05 -3.3 -40.2 -3.4 -40.5 L-3.35 -40.85 -2.35 -40.8 -1.45 -40.7 Q-1.35 -40.8 -1.2 -41.35 -1.05 -41.85 -0.8 -41.95 0.25 -42.3 0.6 -41.8 0.7 -41.65 0.75 -41.4 L0.8 -41.1 Q0.6 -41.1 0.85 -41.1 1.25 -41.1 1.85 -41.45 2.45 -41.85 2.6 -41.85 L3.05 -41.7 Q3.5 -41.6 4.35 -41.55 4.6 -41.15 4.65 -41.15 L4.95 -41.15 M2.1 -38.45 Q1.75 -38.7 0.65 -38.65 0.7 -38.55 0.7 -38.3 0.7 -37.75 0.2 -37.45 L-1.2 -36.4 -1.1 -36.15 -1.15 -36.1 -1.0 -36.1 Q-0.75 -36.1 -0.3 -36.35 0.15 -36.6 0.4 -36.6 0.7 -36.6 1.0 -36.25 L1.3 -35.9 Q1.5 -35.9 1.85 -36.05 2.2 -36.25 2.65 -36.25 3.2 -36.25 3.4 -35.95 3.5 -35.8 3.5 -35.65 L3.5 -35.3 3.35 -35.25 Q3.3 -35.35 3.3 -35.65 3.2 -35.9 2.6 -35.9 2.2 -35.9 1.85 -35.55 1.45 -35.2 1.25 -35.2 1.1 -35.2 0.75 -35.45 0.4 -35.7 0.3 -35.7 -0.05 -35.7 -0.25 -35.45 -0.4 -35.25 -0.6 -35.25 -1.35 -35.25 -1.7 -35.75 -1.9 -36.05 -1.9 -36.35 -1.9 -36.7 -1.45 -37.45 -0.9 -38.3 -0.25 -38.05 -0.75 -39.15 0.65 -39.05 1.7 -39.0 3.95 -38.35 L4.1 -38.3 Q4.15 -38.25 4.15 -38.1 L4.15 -37.95 3.0 -37.95 Q2.65 -38.05 2.45 -38.2 L2.1 -38.45 M3.3 -35.15 Q3.5 -35.15 3.6 -34.9 3.65 -34.6 3.75 -34.55 3.75 -34.45 3.6 -34.4 3.45 -34.3 3.35 -34.3 L3.25 -34.35 Q3.2 -34.4 3.2 -34.55 3.2 -34.7 3.25 -34.85 L3.3 -35.15 M11.5 -32.35 Q11.5 -32.55 11.7 -32.7 11.9 -32.8 12.1 -32.8 12.75 -32.8 12.9 -32.65 12.95 -32.4 13.0 -32.25 L13.7 -32.3 13.75 -32.3 13.75 -32.5 12.85 -33.55 Q11.9 -34.55 11.9 -35.2 L11.8 -35.85 Q11.65 -36.35 11.65 -36.5 11.65 -37.1 12.05 -37.65 12.65 -38.6 13.8 -38.25 14.1 -38.2 14.35 -37.8 14.55 -37.45 14.55 -37.3 14.55 -37.05 14.5 -37.0 14.35 -36.8 13.8 -36.8 L13.95 -36.3 13.9 -36.25 14.05 -36.25 14.45 -36.4 Q14.95 -36.6 15.2 -36.6 15.6 -36.6 15.8 -36.05 15.95 -35.7 15.95 -35.45 15.95 -34.95 15.7 -34.7 L14.6 -33.85 14.5 -33.9 14.85 -34.75 15.2 -35.5 15.15 -35.65 Q15.15 -35.75 15.0 -35.75 14.45 -35.75 14.2 -35.45 13.95 -35.2 13.8 -35.2 13.55 -35.2 13.25 -36.1 13.15 -36.6 13.05 -37.1 13.05 -37.25 13.1 -37.35 L13.3 -37.55 13.5 -37.6 12.75 -37.55 Q12.7 -37.5 12.5 -37.05 12.25 -36.55 12.25 -36.5 12.25 -36.4 12.5 -35.75 12.75 -35.1 12.7 -34.9 13.45 -34.65 14.3 -32.45 14.3 -32.05 14.05 -31.9 13.75 -31.7 12.7 -31.7 12.4 -31.7 12.25 -31.8 12.05 -31.9 11.9 -31.9 11.6 -31.9 11.5 -32.15 11.45 -32.25 11.5 -32.35 M8.35 -32.65 Q8.35 -32.45 8.25 -32.35 L8.05 -32.2 Q7.7 -32.2 7.55 -32.4 7.5 -32.5 7.5 -32.65 7.5 -32.85 7.65 -32.9 7.8 -32.95 8.25 -32.9 L8.3 -32.85 8.35 -32.65 M11.4 -29.8 Q11.4 -29.95 11.45 -30.0 L11.6 -30.05 11.8 -29.9 Q11.85 -29.8 11.85 -29.6 L11.8 -29.55 11.6 -29.5 11.45 -29.55 Q11.4 -29.6 11.4 -29.8 M11.2 -30.65 L10.9 -31.1 Q10.9 -31.65 11.4 -31.55 11.95 -31.45 11.95 -30.95 L11.9 -30.6 11.8 -30.2 11.75 -30.15 Q11.65 -30.05 11.5 -30.05 L11.2 -30.65 M19.55 -30.2 Q20.05 -30.6 20.9 -30.4 21.65 -30.25 22.25 -29.7 22.9 -29.1 22.9 -28.55 22.9 -28.35 22.65 -27.9 22.4 -27.45 22.4 -27.35 22.4 -27.2 22.5 -27.05 22.6 -26.9 22.6 -26.8 22.6 -26.6 22.25 -26.15 21.85 -25.65 21.85 -25.4 21.85 -25.35 22.15 -24.7 22.4 -24.0 22.4 -23.85 L22.4 -23.8 22.6 -23.8 23.0 -23.85 23.55 -23.9 23.6 -24.45 23.6 -24.95 23.3 -25.4 Q23.0 -25.85 23.0 -26.0 23.0 -26.25 23.05 -26.35 23.15 -26.5 23.35 -26.5 23.6 -26.5 24.0 -25.75 24.35 -25.1 24.35 -24.95 24.35 -23.95 24.15 -23.7 23.75 -23.0 22.25 -23.0 21.85 -23.0 21.4 -24.2 21.2 -24.8 21.05 -25.45 21.05 -25.9 21.2 -26.2 L21.6 -26.55 Q22.1 -27.0 22.1 -27.95 22.1 -28.05 22.25 -28.25 22.4 -28.4 22.4 -28.5 22.4 -28.9 21.9 -29.4 21.3 -29.95 20.45 -29.95 20.1 -29.95 19.85 -29.45 19.65 -29.1 19.65 -28.95 19.65 -28.85 19.9 -28.3 20.15 -27.7 20.15 -27.6 20.15 -27.15 19.9 -26.4 19.6 -25.65 19.6 -25.35 19.6 -25.25 19.95 -24.7 20.3 -24.2 20.3 -23.85 20.3 -23.45 20.0 -23.05 19.65 -22.55 19.05 -22.55 18.1 -22.55 17.5 -23.35 17.05 -23.95 17.05 -24.4 17.05 -24.95 17.55 -25.6 18.0 -26.25 18.0 -26.5 18.0 -26.8 17.6 -27.1 17.1 -27.5 16.25 -27.5 16.15 -27.25 16.0 -27.05 15.65 -26.6 15.3 -26.5 L15.3 -26.55 15.25 -26.8 Q15.25 -27.25 15.55 -27.6 15.9 -28.0 16.3 -28.0 17.35 -28.0 18.1 -27.5 18.7 -27.05 18.7 -26.65 18.7 -26.45 18.15 -25.45 17.55 -24.45 17.55 -24.4 17.55 -24.15 17.85 -23.75 18.2 -23.3 18.5 -23.3 19.15 -23.3 19.45 -23.75 19.6 -24.0 19.6 -24.25 L19.4 -25.05 Q19.15 -25.8 19.15 -26.0 19.15 -26.05 19.35 -26.5 L19.6 -27.0 Q19.6 -27.15 19.25 -27.75 18.9 -28.3 18.9 -28.45 18.9 -29.7 19.55 -30.2 M21.05 -18.35 Q21.2 -18.75 22.3 -18.75 22.6 -18.75 22.75 -18.5 L22.9 -18.25 Q23.3 -18.25 23.6 -18.6 23.95 -18.9 24.2 -18.9 25.15 -18.9 25.45 -17.6 25.6 -17.0 25.6 -16.3 25.6 -15.95 25.8 -15.65 26.15 -15.25 26.8 -15.25 27.15 -15.25 27.4 -15.55 27.6 -15.75 27.6 -15.95 26.85 -18.1 26.85 -18.15 26.85 -18.25 26.95 -18.55 27.1 -18.85 27.1 -19.0 27.1 -19.2 26.95 -19.7 26.8 -20.2 26.8 -20.35 26.8 -20.5 26.75 -20.6 L26.7 -20.7 Q26.15 -20.5 26.0 -19.9 25.75 -19.15 25.6 -19.0 L25.55 -19.3 Q25.5 -19.5 25.5 -19.65 25.5 -20.0 25.75 -20.55 26.05 -21.1 26.4 -21.4 26.85 -21.75 27.1 -21.5 27.4 -21.25 27.45 -20.15 L27.9 -18.25 28.2 -16.75 Q28.2 -16.05 28.0 -15.6 27.65 -14.75 26.7 -14.75 25.35 -14.75 24.7 -16.3 24.4 -17.1 24.15 -18.2 24.1 -18.2 23.55 -17.65 23.05 -17.15 22.85 -17.15 22.55 -17.15 22.3 -17.45 L22.1 -17.8 Q22.0 -17.4 21.85 -17.1 21.5 -16.65 20.7 -16.65 19.6 -16.65 19.1 -17.1 18.75 -17.4 18.75 -17.9 18.75 -18.3 19.0 -18.65 18.95 -18.75 18.8 -18.75 L18.4 -18.55 Q18.15 -18.4 18.1 -18.4 L17.9 -18.45 Q17.8 -18.5 17.8 -18.7 17.8 -19.0 18.2 -19.25 18.6 -19.5 19.1 -19.5 19.8 -19.5 19.8 -18.8 19.85 -18.45 19.65 -17.95 20.2 -18.05 20.35 -17.8 20.55 -17.55 20.75 -17.55 L21.15 -17.65 21.1 -17.95 Q21.05 -18.2 21.05 -18.35 M19.85 -8.1 L20.1 -8.1 Q20.5 -8.1 20.7 -8.45 20.85 -8.8 21.45 -8.8 21.75 -8.8 22.15 -8.6 L22.55 -8.4 Q22.9 -8.4 23.45 -8.95 23.85 -9.35 24.25 -9.1 L24.75 -8.35 Q24.9 -8.05 24.9 -7.65 24.9 -7.5 24.75 -7.25 24.55 -7.0 24.55 -6.9 L24.6 -6.7 24.6 -6.5 Q25.15 -6.5 26.0 -7.2 26.0 -7.35 25.85 -7.6 25.75 -7.85 25.75 -8.0 25.75 -8.3 25.9 -8.55 26.1 -8.95 26.7 -9.1 L27.1 -9.0 27.1 -8.95 27.15 -8.75 Q27.15 -7.9 26.45 -6.85 25.6 -5.6 24.35 -5.6 24.0 -5.6 23.8 -6.25 L23.7 -6.95 Q23.7 -7.05 23.9 -7.4 24.1 -7.7 24.1 -7.8 24.1 -7.95 24.0 -8.1 23.9 -8.3 23.9 -8.4 23.5 -8.3 23.15 -7.85 22.85 -7.5 22.3 -7.5 22.05 -7.5 21.9 -7.75 21.75 -8.0 21.4 -8.0 21.3 -8.0 21.05 -7.8 20.8 -7.65 20.35 -7.65 20.1 -7.65 19.95 -7.75 L19.7 -8.0 19.85 -8.1 M18.1 3.65 Q18.1 3.85 17.9 4.1 17.65 4.45 17.2 4.45 16.7 4.45 16.7 4.0 L16.75 3.55 Q16.75 3.4 16.55 3.15 16.3 2.9 16.3 2.8 16.3 2.65 16.5 2.45 16.7 2.2 16.75 2.05 16.5 1.95 16.35 1.9 16.2 1.8 15.85 1.65 L15.85 1.7 Q15.8 1.7 15.8 1.55 L15.85 1.35 Q16.65 1.35 17.45 2.5 17.85 3.05 18.1 3.65 M17.0 3.05 Q17.0 2.85 17.1 2.7 L16.95 2.7 16.7 2.8 Q16.9 3.05 17.0 3.05 M-12.2 -37.8 L-11.5 -37.75 Q-11.95 -38.25 -11.95 -38.5 L-11.85 -39.35 Q-11.85 -39.85 -11.15 -40.15 -10.45 -40.45 -10.05 -39.75 -10.2 -39.55 -10.5 -39.55 -10.7 -39.55 -10.9 -38.75 -11.1 -38.05 -11.3 -37.8 L-11.2 -37.6 Q-11.2 -37.5 -11.4 -37.3 -11.65 -37.05 -11.85 -37.05 -12.2 -37.05 -12.35 -37.2 -12.5 -37.35 -12.5 -37.45 -12.5 -37.8 -12.2 -37.8 M-13.25 -36.95 Q-12.8 -36.85 -12.25 -36.4 -12.3 -36.2 -12.65 -35.85 -13.0 -35.55 -13.05 -35.55 -13.2 -35.55 -13.6 -36.05 -14.0 -36.45 -14.0 -36.55 -14.0 -37.2 -13.25 -36.95 M-17.75 -34.85 Q-17.35 -34.6 -17.35 -34.15 -17.35 -33.85 -17.75 -33.4 L-18.55 -32.5 Q-18.4 -32.35 -18.3 -32.15 -18.15 -32.0 -18.15 -31.9 -18.15 -31.7 -18.35 -31.5 L-18.6 -31.1 -18.35 -30.95 -18.05 -30.9 Q-17.35 -30.9 -17.1 -29.55 L-17.0 -28.15 Q-17.0 -27.95 -17.35 -27.7 -17.75 -27.45 -18.1 -27.45 -17.9 -27.1 -17.2 -26.35 L-16.2 -25.3 -15.4 -25.3 -14.85 -26.15 Q-14.55 -26.7 -14.55 -26.85 -14.55 -26.95 -14.65 -27.45 -14.8 -27.95 -14.8 -28.1 L-14.75 -28.5 -14.65 -28.85 -14.5 -28.95 Q-14.2 -28.6 -14.15 -27.9 L-14.2 -26.8 Q-14.2 -26.3 -14.45 -25.9 -14.7 -25.5 -15.35 -24.95 L-16.4 -25.0 Q-17.05 -25.65 -17.65 -26.0 -17.95 -26.15 -18.35 -26.3 -18.6 -26.45 -18.65 -26.65 -18.7 -26.9 -18.7 -27.6 L-18.7 -28.05 Q-18.65 -28.3 -18.25 -28.3 -18.1 -28.3 -18.0 -28.15 -17.9 -28.05 -17.75 -28.05 -17.5 -28.05 -17.4 -28.65 -17.35 -28.95 -17.35 -29.3 -17.35 -29.55 -18.25 -30.15 -19.1 -30.7 -19.1 -31.15 -19.1 -31.25 -18.9 -31.6 L-18.75 -31.95 Q-18.75 -32.1 -18.9 -32.25 -19.1 -32.4 -19.1 -32.5 -19.1 -32.6 -18.4 -34.1 -18.4 -34.25 -18.6 -34.55 -18.8 -34.85 -18.9 -34.85 -19.75 -34.85 -20.45 -33.15 L-20.85 -31.95 -20.95 -31.4 Q-20.95 -31.05 -21.1 -30.85 L-21.7 -30.0 -21.15 -29.95 Q-21.0 -29.85 -21.0 -29.55 -21.0 -29.3 -21.3 -29.1 -21.6 -28.9 -22.05 -28.9 L-22.6 -28.95 -23.2 -29.0 Q-23.25 -29.4 -23.25 -29.85 -23.25 -30.25 -21.6 -31.9 -21.55 -31.8 -21.5 -31.7 -21.5 -31.6 -21.55 -31.55 -21.55 -31.45 -21.5 -31.45 -21.45 -32.0 -21.1 -32.9 -20.8 -33.6 -20.45 -34.25 -19.85 -35.25 -18.6 -35.15 -18.05 -35.15 -17.75 -34.85 M-21.55 -31.15 L-21.6 -30.75 -21.55 -30.7 Q-21.5 -30.8 -21.5 -30.95 -21.5 -31.1 -21.55 -31.15 M-22.15 -29.7 Q-22.1 -29.8 -22.1 -30.0 L-22.3 -29.9 -22.4 -29.75 -22.15 -29.7 M-14.3 -34.75 Q-14.3 -35.55 -13.7 -35.55 -13.4 -35.55 -13.25 -35.3 -13.2 -35.15 -13.2 -35.0 -13.2 -34.85 -13.3 -34.85 L-13.55 -34.85 Q-13.25 -34.45 -13.25 -34.3 -12.35 -34.35 -12.25 -33.7 L-12.15 -33.1 Q-12.1 -32.75 -11.9 -32.55 L-11.95 -32.5 Q-11.9 -32.45 -11.75 -32.45 -11.65 -32.45 -11.4 -32.8 L-10.85 -33.6 Q-10.05 -34.75 -9.45 -34.75 -8.95 -34.75 -8.8 -35.0 -8.7 -35.2 -8.75 -35.6 -8.8 -36.05 -8.7 -36.25 -8.6 -36.55 -8.1 -36.65 -6.95 -36.85 -6.5 -36.15 -6.25 -35.7 -6.25 -34.85 -6.25 -34.5 -6.05 -34.25 L-5.7 -33.85 Q-5.2 -33.35 -5.2 -32.5 -5.2 -32.1 -5.4 -31.75 -5.6 -31.35 -6.05 -31.35 -6.3 -31.35 -7.35 -31.8 -8.4 -32.3 -8.95 -32.3 -9.15 -32.3 -9.3 -32.15 -9.45 -32.05 -9.45 -31.95 -9.45 -31.65 -9.3 -31.55 -9.0 -31.4 -8.7 -31.15 -8.75 -31.0 -8.8 -30.95 -8.85 -30.85 -9.2 -30.85 -9.5 -30.85 -9.75 -31.45 -9.9 -31.9 -9.9 -32.15 -9.9 -32.45 -9.6 -32.7 -9.3 -32.95 -8.95 -32.95 -8.25 -32.95 -7.35 -32.7 -6.55 -32.45 -6.15 -32.15 L-5.85 -32.15 -5.85 -32.2 -5.8 -32.45 Q-5.8 -32.6 -6.5 -33.5 -7.15 -34.4 -7.15 -34.7 -7.15 -34.85 -7.0 -35.1 -6.9 -35.35 -6.9 -35.45 -6.9 -35.6 -7.15 -35.85 -7.35 -36.1 -7.45 -36.1 L-8.1 -36.0 Q-8.05 -36.0 -8.05 -35.7 -8.05 -35.1 -8.3 -34.8 -8.45 -34.6 -8.85 -34.5 L-9.55 -34.35 Q-9.95 -34.2 -10.15 -33.8 -10.3 -33.65 -10.35 -33.2 L-10.45 -32.55 Q-10.7 -31.8 -11.6 -31.8 -12.45 -31.8 -12.7 -32.55 -12.75 -32.75 -12.75 -33.55 -13.55 -33.4 -14.0 -33.9 -14.3 -34.3 -14.3 -34.75 M-13.6 -28.5 L-13.95 -28.45 -14.1 -28.5 Q-14.15 -28.55 -14.15 -28.7 -14.15 -29.1 -13.85 -29.1 -13.65 -29.15 -13.3 -28.9 -12.45 -28.3 -12.45 -27.6 -12.45 -27.5 -12.6 -27.0 -12.75 -26.4 -12.9 -26.3 L-12.8 -26.15 Q-12.7 -26.05 -12.55 -26.05 -12.5 -26.05 -12.2 -26.2 -11.95 -26.4 -11.8 -26.4 L-11.5 -26.35 -11.4 -26.35 Q-11.35 -26.15 -11.35 -25.8 -11.35 -25.25 -11.65 -25.0 -11.75 -24.9 -12.25 -24.65 -12.65 -24.45 -12.85 -24.2 -13.1 -23.75 -13.1 -22.95 -13.1 -22.75 -13.25 -22.65 -13.4 -22.6 -13.55 -22.6 -14.0 -22.6 -14.2 -22.9 -14.3 -23.05 -14.3 -23.2 L-13.25 -24.15 Q-12.1 -25.2 -11.8 -25.45 L-11.85 -25.7 Q-12.1 -25.65 -12.3 -25.45 -12.45 -25.3 -12.65 -25.3 -12.9 -25.3 -12.9 -25.4 -13.15 -26.4 -13.25 -27.0 -13.35 -27.7 -13.35 -28.55 L-13.6 -28.5 M-2.35 -40.55 Q-2.2 -40.65 -2.2 -40.7 L-2.4 -40.6 -2.55 -40.5 Q-2.5 -40.5 -2.35 -40.55 M-8.1 -30.6 L-8.0 -30.6 Q-7.8 -30.55 -7.75 -30.45 L-7.8 -30.4 -8.05 -30.45 -8.05 -30.5 -8.1 -30.6 M-5.95 -29.3 L-6.0 -29.45 -5.95 -29.7 -5.8 -29.7 Q-5.7 -29.55 -5.7 -29.35 L-5.75 -29.3 Q-5.8 -29.25 -5.95 -29.25 L-5.95 -29.3 M-24.45 -26.65 Q-24.45 -26.6 -24.45 -26.45 -24.45 -26.3 -24.6 -26.0 -24.75 -25.75 -24.75 -25.65 -24.75 -25.6 -24.45 -25.1 -24.2 -24.6 -24.2 -24.4 -24.2 -24.0 -24.4 -23.35 -24.65 -22.65 -24.7 -22.3 L-24.75 -22.25 Q-24.8 -22.2 -25.0 -22.2 -25.2 -22.2 -25.3 -22.8 L-24.9 -24.3 Q-24.9 -24.65 -25.15 -24.85 -25.45 -25.1 -25.45 -25.6 -25.45 -26.15 -25.4 -26.25 -25.25 -26.55 -24.85 -26.65 -24.7 -27.45 -23.65 -26.9 -22.35 -25.95 -22.2 -25.95 -21.65 -25.95 -21.4 -25.15 -21.2 -24.25 -21.1 -24.1 -21.35 -23.9 -21.65 -23.5 -21.95 -23.15 -21.95 -23.0 -21.95 -22.85 -21.7 -22.2 -21.5 -21.55 -21.5 -21.5 -21.5 -21.2 -21.55 -20.7 L-21.65 -20.05 -21.6 -19.8 -21.6 -19.55 -21.55 -19.45 Q-21.55 -19.4 -21.35 -19.4 -20.05 -19.4 -19.85 -21.05 -19.75 -21.85 -19.9 -22.85 -19.9 -23.4 -19.9 -23.5 -19.75 -23.95 -19.25 -23.95 L-17.8 -23.55 -17.6 -23.65 Q-17.4 -23.8 -17.35 -23.8 -17.15 -23.8 -16.9 -23.65 -16.65 -23.45 -16.6 -23.25 -16.9 -23.1 -16.95 -23.1 L-16.95 -23.15 -17.4 -22.95 Q-17.8 -22.75 -17.9 -22.75 -18.2 -22.75 -18.25 -22.85 L-18.35 -23.1 Q-18.35 -23.45 -19.1 -23.45 -19.35 -23.45 -19.35 -23.35 -19.25 -22.0 -19.25 -21.7 -19.25 -20.8 -19.55 -20.05 -20.1 -18.85 -21.35 -18.85 -21.9 -18.85 -22.05 -19.45 -22.15 -19.7 -22.15 -20.05 -22.15 -20.2 -22.05 -20.6 -21.9 -21.0 -21.9 -21.1 -21.9 -21.45 -22.5 -22.95 -22.5 -23.3 -22.05 -24.0 L-21.6 -24.7 -21.65 -25.15 -22.1 -25.1 -22.5 -25.05 Q-22.9 -25.05 -22.95 -25.4 -23.0 -25.6 -22.95 -25.85 -22.95 -25.9 -23.5 -26.35 L-24.05 -26.85 Q-24.35 -26.85 -24.45 -26.65 M-25.65 -22.05 Q-25.6 -22.1 -25.45 -22.1 -25.45 -21.9 -25.25 -21.5 -25.15 -21.2 -25.15 -20.95 -25.15 -20.7 -25.8 -19.65 -26.5 -18.5 -26.85 -18.5 -27.1 -18.5 -27.2 -18.9 -27.25 -19.1 -27.25 -19.35 L-27.0 -19.75 Q-26.75 -20.3 -26.75 -21.15 -26.55 -21.0 -26.45 -20.5 L-26.4 -19.95 Q-26.4 -19.7 -26.65 -19.55 -26.85 -19.4 -26.85 -19.25 L-26.85 -18.95 Q-26.8 -18.95 -26.8 -18.85 -26.4 -19.0 -26.05 -20.25 -25.7 -21.3 -25.7 -21.8 -25.7 -21.95 -25.65 -22.05 M-27.9 -16.8 Q-27.75 -16.8 -27.45 -16.3 -27.15 -15.85 -27.1 -15.7 L-27.2 -15.6 -27.4 -15.75 Q-27.55 -15.9 -27.8 -15.9 L-27.9 -15.85 Q-27.7 -15.7 -27.45 -15.6 -27.25 -15.5 -27.2 -15.5 -26.7 -15.5 -26.55 -15.65 -26.5 -15.75 -26.5 -15.95 -26.5 -16.45 -25.6 -16.55 -25.6 -17.75 -24.9 -17.55 -24.55 -17.5 -23.5 -16.7 L-23.5 -16.2 -23.55 -16.15 -23.65 -16.1 -24.45 -17.05 -24.9 -17.1 Q-24.9 -16.25 -26.15 -15.5 -26.75 -15.15 -27.4 -14.95 -28.2 -14.95 -28.45 -15.25 -28.6 -15.4 -28.6 -15.65 -28.6 -15.95 -28.45 -16.3 -28.25 -16.8 -27.9 -16.8 M-23.8 -10.65 Q-23.8 -10.5 -23.7 -10.3 -23.6 -10.05 -23.6 -9.95 -23.6 -9.45 -25.0 -8.45 -26.35 -7.45 -26.9 -7.45 -27.2 -7.45 -27.25 -7.6 L-27.25 -7.8 Q-27.25 -8.4 -27.1 -8.9 -26.9 -9.7 -26.35 -9.65 L-26.6 -9.35 Q-26.75 -9.1 -26.75 -9.0 -26.75 -8.85 -26.7 -8.65 L-26.65 -8.4 Q-24.9 -9.45 -24.7 -9.65 -24.6 -9.75 -24.6 -9.95 L-24.6 -10.65 Q-24.6 -11.15 -24.1 -11.55 -23.6 -11.9 -22.9 -11.95 -22.2 -12.0 -21.75 -11.75 -21.2 -11.4 -21.2 -10.7 -21.2 -10.55 -21.3 -10.4 -21.4 -10.25 -21.6 -10.25 -21.85 -10.25 -22.0 -10.45 -22.05 -10.55 -22.1 -10.9 -22.2 -11.6 -22.7 -11.6 -23.15 -11.6 -23.55 -11.15 -23.8 -10.8 -23.8 -10.65 M-25.4 -11.6 Q-26.3 -10.5 -27.25 -10.5 -27.65 -10.5 -28.0 -11.15 -28.3 -11.65 -28.3 -11.8 -28.3 -12.35 -27.55 -12.95 -27.25 -13.2 -27.05 -13.15 -26.85 -13.15 -26.85 -12.8 -26.85 -12.65 -27.15 -12.35 L-27.55 -12.05 -27.45 -11.75 Q-27.35 -11.55 -27.25 -11.55 -26.65 -11.55 -26.4 -11.7 -26.25 -11.8 -26.05 -12.1 -25.6 -12.75 -24.3 -13.05 -24.55 -12.75 -25.4 -11.6 M-16.6 -23.1 Q-16.45 -22.8 -16.4 -22.2 L-16.55 -22.05 Q-16.7 -22.2 -16.75 -22.45 -16.85 -22.7 -16.85 -22.9 -16.85 -23.1 -16.75 -23.1 L-16.6 -23.1 M-17.75 -18.5 Q-17.75 -18.8 -17.4 -19.15 -17.05 -19.55 -16.75 -19.55 -16.35 -19.55 -16.2 -19.25 -16.1 -19.1 -16.1 -18.95 -16.1 -18.85 -16.65 -18.45 -17.2 -18.05 -17.3 -18.05 -17.6 -18.05 -17.7 -18.25 -17.75 -18.4 -17.75 -18.5 M-22.35 -14.75 L-22.45 -14.6 Q-22.55 -14.55 -22.7 -14.5 L-22.85 -14.6 Q-22.95 -14.65 -22.95 -14.8 -22.95 -15.0 -22.85 -15.05 L-22.7 -15.15 Q-22.4 -14.85 -22.35 -14.75 M-21.6 -12.95 Q-22.0 -12.95 -22.0 -13.4 -22.0 -13.9 -21.5 -14.0 -21.0 -14.1 -21.0 -13.65 -21.0 -13.5 -21.15 -13.25 -21.35 -12.95 -21.6 -12.95 M-20.45 -8.55 Q-20.45 -8.95 -20.0 -9.25 -19.5 -9.5 -19.5 -8.95 -19.5 -8.65 -19.6 -8.4 -19.75 -8.0 -20.05 -8.0 -20.4 -8.0 -20.45 -8.3 L-20.45 -8.55 M-16.85 3.95 Q-16.65 3.65 -16.55 3.55 L-16.45 3.65 Q-16.4 3.65 -16.4 3.8 -16.4 3.95 -16.6 4.25 -16.85 4.6 -17.1 4.5 L-16.85 3.95 M-16.65 6.45 Q-16.65 6.75 -17.1 6.9 L-17.6 6.95 Q-17.75 6.95 -17.85 7.05 -17.9 7.15 -18.05 7.15 -18.35 7.15 -18.55 6.6 -18.65 6.25 -18.65 5.85 L-18.6 5.75 Q-18.6 5.7 -18.4 5.7 -18.35 5.7 -18.25 5.8 L-18.25 5.7 Q-18.25 5.4 -18.0 5.2 -17.7 4.95 -17.5 5.1 L-17.8 5.5 -18.15 5.8 -18.2 5.85 -18.1 6.1 Q-17.95 6.4 -17.95 6.55 -17.75 6.45 -17.6 6.1 L-17.3 5.55 Q-17.2 5.6 -16.95 5.95 -16.65 6.3 -16.65 6.45 M-19.75 0.5 Q-19.3 0.25 -19.1 0.3 L-18.95 0.45 Q-19.05 0.6 -19.2 0.9 -19.35 1.15 -19.6 1.15 L-20.1 1.1 -20.15 1.05 -20.15 0.85 Q-20.15 0.75 -19.75 0.5 M-20.6 1.2 L-20.5 1.3 Q-20.55 1.4 -20.8 1.55 L-20.9 1.55 Q-21.0 1.55 -21.0 1.4 -21.0 1.2 -20.9 1.2 L-20.7 1.15 -20.6 1.2 M-21.9 1.2 Q-21.9 1.35 -22.1 1.5 L-22.3 1.7 Q-22.3 2.05 -22.05 2.3 -21.8 2.6 -21.35 2.6 -21.2 2.6 -21.15 2.5 -21.1 2.4 -21.0 2.4 L-20.8 2.45 -20.7 2.6 Q-20.85 3.2 -20.85 3.45 L-20.9 3.5 -21.15 3.5 Q-22.35 3.5 -22.85 2.7 -23.15 2.15 -23.15 1.3 -23.15 0.7 -22.55 0.7 -22.3 0.7 -22.1 0.85 -21.9 1.0 -21.9 1.2" fill="#ccfffe" fill-opacity="0.7529412" fill-rule="evenodd" stroke="none"/>
      <path d="M23.9 -32.45 Q24.0 -32.25 24.5 -31.45 24.95 -30.7 24.95 -30.4 L24.9 -30.0 Q24.8 -29.8 24.45 -29.7 24.5 -28.7 25.35 -28.05 L26.05 -27.55 Q26.45 -27.3 26.6 -27.0 26.85 -26.5 27.15 -25.7 27.4 -24.85 27.65 -24.45 27.65 -24.4 27.5 -24.4 L26.8 -24.45 Q26.15 -24.45 26.1 -25.3 26.1 -25.75 26.2 -26.15 26.2 -26.6 24.55 -27.4 24.5 -27.4 24.15 -28.45 L23.75 -29.55 Q23.75 -29.8 24.15 -30.0 24.55 -30.2 24.55 -30.35 24.55 -30.65 24.0 -31.2 23.35 -31.8 23.3 -31.95 L23.0 -32.75 Q22.85 -33.1 22.15 -33.45 20.1 -34.35 19.55 -34.7 19.05 -35.05 18.75 -35.55 18.05 -36.1 17.5 -37.05 L17.0 -37.95 Q16.7 -38.45 16.45 -38.65 L14.2 -39.6 Q13.0 -40.1 11.4 -40.55 11.05 -40.75 10.65 -41.3 10.2 -41.95 10.0 -42.1 9.8 -41.7 9.35 -41.7 8.95 -41.7 8.55 -42.0 8.3 -42.2 8.2 -42.4 8.15 -42.4 8.1 -42.45 8.05 -42.5 7.9 -42.65 7.6 -42.9 6.5 -42.65 6.2 -42.6 5.6 -42.95 L5.05 -43.3 4.35 -43.0 Q3.7 -42.75 2.75 -42.75 1.7 -42.75 1.35 -43.55 1.2 -43.85 1.2 -44.5 L1.25 -44.5 Q1.25 -44.55 1.1 -44.55 0.75 -44.55 0.4 -44.15 0.05 -43.7 -0.5 -43.7 L-1.0 -43.75 -1.05 -43.85 -1.05 -43.9 -1.95 -43.65 Q-2.95 -43.45 -3.4 -43.7 L-4.45 -43.7 Q-4.75 -43.45 -5.05 -43.25 -5.65 -42.9 -6.4 -42.9 -6.9 -42.9 -6.95 -43.2 -7.0 -43.35 -6.95 -43.6 L-6.95 -43.65 Q-7.75 -43.15 -9.6 -42.3 -10.7 -41.8 -13.1 -40.75 L-15.45 -39.2 Q-17.55 -37.85 -17.85 -37.85 L-18.35 -37.35 Q-18.75 -36.9 -18.85 -36.85 L-18.95 -36.9 -19.15 -36.95 Q-19.25 -36.6 -20.0 -36.1 -21.2 -35.4 -21.35 -35.0 -21.65 -34.4 -22.25 -33.65 L-23.3 -32.4 Q-24.05 -31.5 -25.4 -29.4 -26.7 -27.3 -26.7 -27.05 -27.15 -26.4 -27.6 -25.4 -28.55 -23.35 -28.75 -21.45 L-28.8 -21.4 -28.9 -21.35 -29.05 -21.85 -29.1 -21.95 -29.2 -20.45 -29.25 -19.3 Q-29.25 -19.2 -29.4 -18.5 L-29.6 -17.75 Q-29.6 -17.7 -29.3 -17.35 -28.95 -17.05 -28.95 -16.7 -28.95 -16.05 -29.45 -15.85 -29.7 -15.75 -29.8 -15.65 -29.95 -15.5 -29.95 -15.1 -29.95 -14.85 -29.7 -14.2 -29.45 -13.55 -29.45 -13.2 -29.45 -12.95 -29.75 -12.35 L-30.25 -11.4 Q-29.65 -11.0 -29.5 -10.6 -29.4 -10.35 -29.4 -9.85 -29.4 -9.45 -29.6 -8.9 -29.4 -8.65 -29.25 -8.3 -29.05 -7.95 -29.05 -7.65 L-29.1 -7.4 -29.2 -7.25 Q-29.3 -7.3 -29.65 -7.8 -29.95 -8.3 -29.95 -8.5 L-29.95 -8.65 -29.8 -8.8 Q-30.1 -9.0 -30.1 -9.45 -30.0 -9.95 -30.05 -10.1 L-30.4 -10.65 Q-30.65 -11.15 -30.65 -11.35 -30.65 -11.7 -30.3 -12.3 -29.9 -12.85 -29.9 -13.05 -29.9 -13.35 -30.1 -14.0 -30.3 -14.65 -30.3 -15.1 -30.3 -15.6 -30.2 -15.8 -29.9 -16.2 -29.5 -16.85 L-30.05 -17.4 Q-30.15 -17.5 -30.15 -17.75 -30.15 -17.9 -29.75 -19.7 L-29.2 -22.1 -29.15 -22.1 -29.2 -22.35 -29.0 -23.6 Q-28.8 -24.85 -28.8 -25.75 -28.8 -25.9 -28.55 -26.1 L-28.0 -26.6 Q-27.1 -27.4 -26.7 -28.55 -26.45 -29.35 -26.05 -30.15 -25.65 -31.0 -25.1 -31.7 -24.7 -32.3 -23.65 -33.1 -22.65 -33.9 -22.1 -34.75 -21.65 -35.4 -20.65 -36.3 -19.6 -37.2 -19.15 -37.25 L-19.1 -37.1 Q-18.95 -37.35 -18.85 -37.65 L-18.75 -38.1 Q-18.65 -38.45 -17.6 -38.45 -16.7 -39.2 -15.6 -39.95 -13.35 -41.45 -12.1 -41.5 -11.45 -41.55 -9.15 -43.0 -6.85 -44.45 -6.65 -44.45 -6.4 -44.45 -6.3 -44.2 -6.25 -44.05 -6.3 -43.8 L-6.25 -43.8 Q-5.8 -43.9 -5.6 -44.15 -5.45 -44.25 -5.25 -44.5 -4.9 -44.9 -3.45 -44.65 -2.95 -44.65 -0.95 -44.15 -0.75 -44.3 -0.15 -44.6 0.75 -45.05 0.95 -45.05 1.25 -45.1 1.45 -44.9 1.55 -44.8 1.8 -44.4 2.3 -43.55 3.1 -43.55 3.6 -43.55 3.95 -43.85 4.35 -44.15 4.85 -44.15 5.8 -44.15 5.85 -43.75 5.9 -43.55 5.95 -43.45 6.0 -43.25 6.3 -43.1 L7.4 -42.9 Q7.85 -42.8 8.1 -42.7 L8.15 -42.75 Q8.2 -42.8 8.4 -42.8 8.45 -42.8 9.35 -42.35 9.75 -43.1 10.45 -42.7 10.9 -42.45 11.5 -41.65 12.0 -41.15 12.7 -40.95 L13.7 -40.75 Q14.05 -40.65 14.7 -40.3 15.35 -39.95 15.6 -39.9 17.55 -39.15 18.1 -37.8 18.35 -37.1 18.5 -36.7 18.65 -36.35 18.85 -36.1 19.3 -36.05 19.85 -35.55 21.0 -34.45 21.1 -34.4 22.8 -34.25 23.4 -33.6 23.7 -33.2 23.9 -32.45 M27.65 -22.05 Q27.2 -22.5 27.2 -22.65 27.2 -23.3 27.4 -23.75 27.6 -23.65 27.75 -23.3 27.95 -22.9 27.8 -22.65 28.8 -22.15 28.75 -21.85 28.5 -21.45 28.5 -21.0 28.5 -20.9 29.05 -18.7 29.6 -16.5 29.6 -16.35 29.6 -15.95 29.25 -14.95 28.85 -13.85 28.8 -13.45 L28.75 -13.4 28.7 -13.3 Q28.55 -13.5 28.45 -14.2 28.4 -14.6 28.4 -14.9 28.4 -15.1 28.6 -15.6 28.8 -16.05 28.8 -16.25 28.6 -17.2 28.45 -18.35 28.05 -20.55 28.05 -21.5 28.05 -21.6 27.65 -22.05 M28.85 -12.75 L28.85 -12.5 28.75 -11.9 28.6 -11.35 Q28.35 -11.8 28.35 -12.2 28.35 -12.4 28.45 -12.65 28.55 -12.9 28.7 -12.95 L28.85 -12.75 M28.7 -9.95 L28.6 -9.6 Q28.55 -9.35 28.55 -9.2 28.55 -9.1 28.3 -8.05 L28.2 -7.8 Q28.3 -7.9 28.35 -7.9 28.35 -7.75 28.4 -7.45 L28.45 -7.0 Q28.45 -6.65 28.3 -6.35 28.1 -6.0 28.1 -5.75 28.1 -5.5 27.95 -5.2 27.8 -4.8 27.6 -4.8 27.2 -4.8 27.2 -5.25 27.2 -5.6 27.55 -5.9 27.95 -6.2 28.0 -6.7 L28.0 -6.9 27.9 -6.65 27.85 -6.75 Q27.8 -6.85 27.8 -7.05 27.8 -7.15 27.9 -7.5 28.0 -7.85 28.0 -8.0 L27.9 -8.75 Q27.8 -9.45 27.8 -9.55 27.8 -10.2 28.25 -10.4 28.7 -10.55 28.7 -9.95 M25.4 -0.15 Q25.45 -0.1 25.45 0.05 25.45 0.15 25.25 0.45 25.05 0.8 24.95 0.85 L24.75 0.85 Q24.7 0.8 24.7 0.65 24.7 0.35 24.9 0.15 25.0 0.05 25.35 -0.1 L25.4 -0.15 M23.6 3.05 L23.55 3.3 Q23.5 3.3 23.2 3.45 L23.0 3.25 Q22.9 3.15 22.9 3.05 L22.9 2.9 22.95 2.8 23.55 2.8 23.6 3.05 M22.0 4.85 L22.0 4.7 Q22.0 4.5 22.15 4.45 L22.35 4.45 22.3 4.65 Q22.2 4.75 22.05 4.8 L22.0 4.85 M19.3 7.6 L19.55 7.45 Q19.8 7.3 19.95 7.3 19.8 7.6 19.25 8.05 18.6 8.65 18.25 8.55 L18.2 8.45 Q18.45 7.6 19.3 7.6 M-29.15 -6.3 Q-29.1 -6.35 -29.0 -6.35 L-28.8 -6.2 -28.75 -6.1 -28.8 -5.95 -28.85 -5.95 -29.05 -5.9 Q-29.05 -6.05 -29.15 -6.3 M-26.3 -0.15 L-26.3 -0.1 Q-26.15 0.0 -26.05 0.1 L-26.1 0.15 -26.0 0.35 -26.1 0.4 Q-26.2 0.5 -26.35 0.5 -26.7 0.5 -26.75 0.3 -26.8 0.25 -26.8 0.0 L-26.75 -0.3 Q-26.5 -0.3 -26.3 -0.15 M-19.8 7.7 L-19.9 7.8 Q-19.95 7.9 -20.1 7.9 -20.4 7.9 -20.5 7.75 L-20.55 7.55 Q-20.55 7.25 -20.3 7.15 L-20.05 7.35 Q-19.85 7.6 -19.8 7.7 M-18.8 8.95 Q-19.0 8.9 -19.25 8.6 L-19.55 8.3 Q-19.25 8.25 -19.0 8.5 -18.85 8.7 -18.8 8.95 M-23.35 4.4 Q-23.5 4.55 -23.65 4.65 L-23.95 4.35 Q-23.95 4.25 -23.8 4.15 -23.6 4.0 -23.4 4.0 L-23.35 4.0 Q-23.3 4.0 -23.3 4.2 L-23.35 4.4" fill="#ccfffe" fill-opacity="0.7529412" fill-rule="evenodd" stroke="none"/>
    </g>
    <g id="shape1" transform="matrix(1.0, 0.0, 0.0, 1.0, 4.05, 9.95)">
      <path d="M0.6 -5.95 L0.45 -5.9 Q-0.55 -5.3 -0.55 -4.2 -0.55 -3.45 0.05 -3.4 2.25 -3.25 4.25 -4.25 4.1 -4.5 3.85 -4.35 3.2 -4.0 2.5 -3.8 2.05 -3.65 2.1 -3.95 2.25 -4.35 2.15 -4.7 2.1 -5.3 1.65 -5.7 1.25 -6.1 0.6 -5.95 M4.45 -1.35 Q0.7 2.65 -2.75 -0.85 -3.75 -1.85 -3.95 -3.3 -4.75 -9.05 0.95 -9.95 7.6 -9.15 5.75 -3.55 5.35 -2.35 4.45 -1.35" fill="#ccfffe" fill-opacity="0.7529412" fill-rule="evenodd" stroke="none"/>
    </g>
    <g id="shape2" transform="matrix(1.0, 0.0, 0.0, 1.0, 2.7, 5.45)">
      <path d="M-2.7 -2.75 Q-2.5 -4.85 -0.45 -5.45 4.5 -5.0 1.7 -1.35 -0.3 1.25 -2.25 -1.15 -2.8 -1.8 -2.7 -2.75" fill="#ccfffe" fill-opacity="0.7529412" fill-rule="evenodd" stroke="none"/>
    </g>
  </defs>
</svg>
