<?xml version="1.0" encoding="UTF-8" standalone="no"?>
<svg xmlns:ffdec="https://www.free-decompiler.com/flash" xmlns:xlink="http://www.w3.org/1999/xlink" ffdec:objectType="frame" height="422.8px" width="494.9px" xmlns="http://www.w3.org/2000/svg">
  <g transform="matrix(1.0, 0.0, 0.0, 1.0, 249.55, 353.5)">
    <use ffdec:characterId="217" height="16.6" transform="matrix(7.0, 0.0, 0.0, 7.0, -65.8, -175.7)" width="19.9" xlink:href="#shape0"/>
    <use ffdec:characterId="214" height="25.05" transform="matrix(5.3654, 4.7191, -4.7191, 5.3654, 56.221, -231.2792)" width="25.35" xlink:href="#shape1"/>
  </g>
  <defs>
    <g id="shape0" transform="matrix(1.0, 0.0, 0.0, 1.0, 9.4, 25.1)">
      <path d="M10.35 -18.6 Q11.2 -12.7 6.95 -9.1 6.1 -8.4 5.0 -8.85 2.7 -9.8 0.4 -9.75 L-1.85 -9.2 -3.6 -8.8 -4.05 -8.8 Q-5.35 -8.4 -6.8 -8.55 -8.0 -8.65 -9.0 -9.3 -9.65 -10.8 -9.2 -12.45 -8.25 -16.1 -7.45 -19.85 -7.15 -21.0 -6.25 -21.95 -3.6 -24.55 0.15 -25.1 6.1 -25.25 9.4 -20.95 10.15 -19.9 10.35 -18.6" fill="#ccfffe" fill-opacity="0.7529412" fill-rule="evenodd" stroke="none"/>
      <path d="M7.45 -21.6 Q8.7 -20.8 9.2 -19.35 L9.3 -19.05 Q9.4 -18.7 9.4 -18.25 9.6 -14.05 6.75 -11.45 6.1 -10.85 5.15 -11.1 0.7 -12.3 -3.55 -10.5 -7.6 -8.7 -8.5 -12.55 -9.25 -15.95 -7.9 -19.1 -7.55 -19.9 -6.95 -20.55 -4.1 -23.6 -0.1 -24.6 4.2 -24.35 7.05 -21.85 L7.45 -21.6" fill="#ffffff" fill-opacity="0.5019608" fill-rule="evenodd" stroke="none"/>
    </g>
    <g id="shape1" transform="matrix(1.0, 0.0, 0.0, 1.0, 5.25, 23.0)">
      <path d="M-1.65 -18.8 Q-2.65 -17.25 -3.25 -15.3 -4.6 -11.85 -4.95 -8.15 -5.05 -7.0 -5.05 -5.9 -5.3 -7.3 -5.25 -8.75 -5.1 -14.55 -1.65 -18.8 M11.2 1.3 Q11.4 1.25 11.35 1.35 10.25 1.75 9.1 2.05 L11.2 1.3 M18.4 -4.7 Q20.3 -8.85 19.4 -13.4 18.8 -16.45 17.25 -19.05 19.15 -16.5 19.9 -12.7 20.75 -8.35 18.4 -4.7 M10.05 -6.4 L10.1 -6.6 10.25 -6.85 Q10.3 -6.8 10.25 -6.6 L10.15 -6.25 Q10.15 -6.1 9.95 -6.05 L10.0 -6.15 10.05 -6.4 M4.9 -4.05 Q4.9 -4.3 5.0 -4.55 5.05 -4.55 5.0 -4.3 L4.9 -4.05 M12.05 -23.0 L13.3 -22.45 Q14.15 -21.45 14.9 -20.35 13.65 -22.0 12.05 -23.0" fill="#ccfffe" fill-opacity="0.7529412" fill-rule="evenodd" stroke="none"/>
    </g>
  </defs>
</svg>
