<?xml version="1.0" encoding="UTF-8" standalone="no"?>
<svg xmlns:ffdec="https://www.free-decompiler.com/flash" xmlns:xlink="http://www.w3.org/1999/xlink" ffdec:objectType="frame" height="354.65px" width="528.1px" xmlns="http://www.w3.org/2000/svg">
  <g transform="matrix(1.0, 0.0, 0.0, 1.0, 307.1, 470.5)">
    <use ffdec:characterId="1089" height="268.9" transform="matrix(1.0, 0.0, 0.0, 1.0, -81.75, -441.75)" width="104.6" xlink:href="#shape0"/>
    <use ffdec:characterId="1090" height="196.25" transform="matrix(1.0, 0.0, 0.0, 1.0, -42.25, -438.05)" width="189.3" xlink:href="#shape1"/>
  </g>
  <defs>
    <g id="shape0" transform="matrix(1.0, 0.0, 0.0, 1.0, 81.75, 441.75)">
      <path d="M7.25 -441.75 L7.75 -441.0 Q6.4 -438.95 5.75 -438.75 L2.35 -438.35 1.85 -439.0 Q4.0 -441.9 7.25 -441.75 M19.05 -420.4 L19.75 -421.0 22.85 -418.75 Q22.6 -418.1 20.75 -417.85 L18.5 -419.25 Q18.5 -419.75 19.05 -420.4 M-51.5 -405.6 L-52.1 -404.85 -53.95 -406.3 -55.35 -407.85 Q-55.0 -408.5 -53.1 -408.5 -51.65 -406.6 -51.5 -405.6 M-60.35 -371.45 L-62.35 -370.5 -64.25 -370.7 Q-66.2 -371.05 -66.5 -371.5 L-63.6 -373.4 Q-60.95 -374.55 -58.5 -372.75 -58.85 -372.25 -60.35 -371.45 M-74.6 -307.5 L-76.4 -306.15 -80.0 -304.35 -80.8 -304.7 -81.75 -305.6 Q-77.3 -308.5 -74.85 -308.5 L-74.6 -307.5 M-29.15 -295.1 L-30.25 -293.6 -31.05 -293.3 Q-31.85 -293.3 -31.85 -294.85 -31.85 -296.3 -31.55 -296.65 L-31.25 -297.35 Q-28.75 -297.35 -28.25 -296.6 L-29.15 -295.1 M-26.25 -174.85 L-26.5 -173.35 -27.25 -172.85 -28.1 -172.9 -28.25 -174.5 -28.2 -176.1 -28.0 -176.35 -26.75 -176.35 Q-26.25 -175.6 -26.25 -174.85" fill="#ffffff" fill-rule="evenodd" stroke="none"/>
    </g>
    <g id="shape1" transform="matrix(1.0, 0.0, 0.0, 1.0, 42.25, 438.05)">
      <path d="M34.55 -436.95 L32.65 -437.25 27.6 -437.55 23.15 -437.85 34.55 -437.25 34.35 -437.75 35.25 -437.75 35.75 -437.1 41.95 -435.8 Q47.65 -434.3 52.3 -432.0 L52.85 -431.95 Q53.1 -431.9 52.65 -430.75 58.05 -427.45 58.7 -426.5 58.9 -426.15 58.7 -425.9 L58.4 -425.35 Q58.4 -424.95 59.05 -424.2 62.3 -422.2 65.3 -419.1 70.25 -413.45 72.55 -411.25 L71.7 -411.15 70.75 -411.35 70.35 -411.1 Q74.15 -405.45 78.2 -400.55 83.25 -394.4 85.35 -393.75 85.35 -393.05 84.85 -392.75 79.35 -396.3 74.2 -401.45 L65.7 -410.75 Q56.0 -421.6 45.75 -427.2 L38.75 -429.55 Q29.35 -432.55 15.35 -434.05 L15.45 -434.3 6.55 -434.3 Q-0.7 -433.9 -4.3 -432.45 -7.0 -430.9 -8.75 -430.5 L-9.5 -430.65 Q-9.05 -431.65 -6.25 -433.15 L-2.4 -434.9 Q-1.25 -435.3 2.1 -436.95 6.05 -438.35 12.4 -438.0 L14.25 -437.75 14.0 -437.1 18.75 -436.5 24.85 -436.0 28.45 -436.25 34.25 -436.6 34.55 -436.95 M35.6 -436.35 L27.75 -435.4 26.15 -435.5 24.35 -435.75 21.3 -435.9 18.25 -436.25 13.85 -436.5 Q13.4 -436.95 13.4 -437.25 L12.65 -437.4 Q11.9 -437.6 11.9 -437.75 L6.8 -437.35 Q2.6 -436.5 -0.4 -435.15 -3.2 -433.65 -4.8 -433.0 L-5.5 -432.75 Q-4.65 -432.75 2.4 -434.9 L12.65 -434.9 17.25 -434.55 19.25 -434.05 19.1 -434.0 Q32.05 -432.6 38.55 -430.65 40.9 -429.95 45.25 -427.85 54.4 -424.0 63.3 -414.8 73.35 -403.2 78.9 -398.25 L79.1 -398.25 Q72.95 -407.15 67.4 -413.8 L68.5 -413.6 69.25 -413.05 69.6 -413.25 63.35 -419.65 Q59.25 -423.5 54.85 -426.35 L57.25 -425.25 57.15 -425.4 Q56.45 -426.65 55.0 -427.9 L52.55 -429.9 Q50.05 -432.15 46.7 -433.65 42.4 -435.55 35.8 -436.75 L35.6 -436.35 M139.5 -268.65 L142.55 -268.8 141.35 -269.0 Q140.15 -269.25 140.0 -269.4 L133.65 -269.4 127.25 -269.25 132.4 -268.85 139.5 -268.65 M132.75 -268.05 Q120.7 -265.85 116.05 -263.2 113.65 -261.9 109.75 -257.3 L109.0 -257.5 Q110.7 -262.05 115.15 -265.1 119.65 -268.15 127.3 -270.0 L140.1 -269.85 Q142.25 -268.8 144.05 -268.4 L147.05 -267.55 147.0 -267.25 139.0 -268.4 132.75 -268.05 M129.4 -268.3 Q122.15 -267.7 117.4 -265.35 115.0 -264.1 112.05 -261.5 113.8 -262.15 116.8 -264.45 120.55 -266.55 127.5 -267.3 L127.8 -268.05 129.4 -268.3 M107.9 -255.25 Q107.0 -253.85 105.85 -250.95 104.75 -248.25 104.0 -247.25 L103.65 -247.25 104.35 -250.65 Q104.8 -253.05 105.85 -254.4 L107.2 -254.9 107.9 -255.25 M103.65 -242.0 L103.15 -241.8 102.8 -241.95 Q102.65 -242.0 102.65 -242.75 102.65 -244.25 103.55 -244.5 L103.65 -244.15 103.65 -242.0 M-11.55 -429.4 L-13.4 -427.5 -15.05 -426.1 -16.05 -426.8 Q-16.65 -427.3 -16.75 -428.1 L-13.7 -428.75 -11.55 -429.4 M-40.75 -346.25 Q-40.05 -345.35 -39.35 -343.3 -35.55 -334.8 -31.5 -326.65 -30.25 -325.95 -30.25 -323.65 -30.25 -322.95 -30.7 -322.4 L-31.15 -321.6 -30.95 -320.5 -30.75 -319.05 -31.15 -317.15 -31.65 -315.35 Q-31.75 -314.75 -31.45 -313.8 L-31.15 -312.1 Q-31.15 -311.35 -31.6 -309.8 L-32.4 -307.3 -32.45 -307.3 -32.75 -302.05 -32.75 -302.0 Q-32.8 -299.55 -36.95 -290.5 L-41.4 -281.1 -42.15 -281.25 -42.2 -281.15 -42.25 -282.0 -41.5 -284.85 Q-40.8 -287.0 -40.8 -288.9 L-38.85 -295.9 Q-36.9 -302.2 -36.9 -305.9 -36.9 -308.6 -37.6 -312.2 L-38.85 -318.15 Q-39.85 -323.0 -39.95 -324.9 L-40.0 -329.85 -39.25 -332.4 Q-38.5 -334.65 -38.5 -335.25 -38.5 -337.25 -39.55 -340.5 L-41.4 -346.25 -40.75 -346.25 M-38.25 -339.75 Q-37.5 -336.65 -37.5 -335.1 -37.5 -333.65 -38.05 -331.9 -38.6 -330.15 -38.6 -328.0 L-38.85 -324.3 -39.1 -321.35 -38.7 -319.4 -38.1 -317.3 -37.15 -313.65 Q-36.75 -312.25 -36.4 -309.7 L-36.15 -306.35 Q-36.15 -302.15 -37.25 -298.0 L-39.75 -288.4 Q-34.9 -297.8 -33.85 -303.05 L-34.15 -304.35 -34.5 -307.15 -33.8 -307.25 Q-33.35 -307.4 -33.2 -308.0 L-33.2 -308.05 -33.25 -309.25 -33.1 -311.15 -33.1 -315.5 Q-32.55 -317.8 -32.15 -321.25 L-32.15 -321.3 -32.1 -321.7 -31.9 -323.55 -31.55 -323.55 -31.5 -323.4 -31.1 -324.5 -31.8 -325.75 -31.95 -326.0 Q-33.95 -329.6 -36.1 -334.65 L-38.25 -339.75" fill="#d5f5f9" fill-opacity="0.5019608" fill-rule="evenodd" stroke="none"/>
      <path d="M139.5 -268.65 L132.4 -268.85 127.25 -269.25 133.65 -269.4 140.0 -269.4 Q140.15 -269.25 141.35 -269.0 L142.55 -268.8 139.5 -268.65 M35.6 -436.35 L35.8 -436.75 Q42.4 -435.55 46.7 -433.65 50.05 -432.15 52.55 -429.9 L55.0 -427.9 Q56.45 -426.65 57.15 -425.4 L57.25 -425.25 54.85 -426.35 Q59.25 -423.5 63.35 -419.65 L69.6 -413.25 69.25 -413.05 68.5 -413.6 67.4 -413.8 Q72.95 -407.15 79.1 -398.25 L78.9 -398.25 Q73.35 -403.2 63.3 -414.8 54.4 -424.0 45.25 -427.85 40.9 -429.95 38.55 -430.65 32.05 -432.6 19.1 -434.0 L19.25 -434.05 17.25 -434.55 12.65 -434.9 2.4 -434.9 Q-4.65 -432.75 -5.5 -432.75 L-4.8 -433.0 Q-3.2 -433.65 -0.4 -435.15 2.6 -436.5 6.8 -437.35 L11.9 -437.75 Q11.9 -437.6 12.65 -437.4 L13.4 -437.25 Q13.4 -436.95 13.85 -436.5 L18.25 -436.25 21.3 -435.9 24.35 -435.75 26.15 -435.5 27.75 -435.4 35.6 -436.35 M129.4 -268.3 L127.8 -268.05 127.5 -267.3 Q120.55 -266.55 116.8 -264.45 113.8 -262.15 112.05 -261.5 115.0 -264.1 117.4 -265.35 122.15 -267.7 129.4 -268.3 M-38.25 -339.75 L-36.1 -334.65 Q-33.95 -329.6 -31.95 -326.0 L-31.8 -325.75 -31.1 -324.5 -31.5 -323.4 -31.55 -323.55 -31.9 -323.55 -32.1 -321.7 -32.15 -321.3 -32.15 -321.25 Q-32.55 -317.8 -33.1 -315.5 L-33.1 -311.15 -33.25 -309.25 -33.2 -308.05 -33.2 -308.0 Q-33.35 -307.4 -33.8 -307.25 L-34.5 -307.15 -34.15 -304.35 -33.85 -303.05 Q-34.9 -297.8 -39.75 -288.4 L-37.25 -298.0 Q-36.15 -302.15 -36.15 -306.35 L-36.4 -309.7 Q-36.75 -312.25 -37.15 -313.65 L-38.1 -317.3 -38.7 -319.4 -39.1 -321.35 -38.85 -324.3 -38.6 -328.0 Q-38.6 -330.15 -38.05 -331.9 -37.5 -333.65 -37.5 -335.1 -37.5 -336.65 -38.25 -339.75" fill="#ffffff" fill-opacity="0.7019608" fill-rule="evenodd" stroke="none"/>
    </g>
  </defs>
</svg>
