<?xml version="1.0" encoding="UTF-8" standalone="no"?>
<svg xmlns:ffdec="https://www.free-decompiler.com/flash" xmlns:xlink="http://www.w3.org/1999/xlink" ffdec:objectType="frame" height="130.9px" width="116.55px" xmlns="http://www.w3.org/2000/svg">
  <g transform="matrix(1.0, 0.0, 0.0, 1.0, 0.0, -0.35)">
    <use ffdec:characterId="100" height="18.7" transform="matrix(7.0, 0.0, 0.0, 7.0, 0.0, 0.35)" width="16.65" xlink:href="#shape0"/>
  </g>
  <defs>
    <g id="shape0" transform="matrix(1.0, 0.0, 0.0, 1.0, 0.0, -0.05)">
      <path d="M14.65 3.25 L14.5 3.05 Q13.5 1.85 11.95 1.6 L11.65 1.2 11.6 1.15 10.9 0.8 10.95 0.8 Q11.7 1.0 12.35 1.3 14.15 2.15 15.35 3.75 16.5 5.35 16.65 7.35 16.75 9.35 16.3 11.35 L16.2 11.45 16.25 10.7 Q16.3 10.25 16.15 9.85 L16.25 9.4 Q16.6 7.9 16.25 6.45 L16.0 6.05 15.95 5.65 Q15.85 5.0 15.55 4.4 L14.65 3.25 M8.75 16.65 Q8.7 16.65 8.65 16.55 8.55 16.45 8.55 16.3 L8.6 16.05 8.5 15.95 8.5 15.75 7.55 15.65 7.35 15.8 7.25 15.75 7.15 15.65 7.35 15.4 7.45 15.35 7.45 15.15 Q7.4 14.95 7.25 14.85 L7.1 14.75 Q7.2 14.6 7.4 14.65 L7.7 15.0 7.75 15.2 Q7.9 15.3 8.15 15.3 8.3 15.35 8.4 15.2 L8.65 14.7 8.65 14.65 8.75 14.65 Q8.7 15.65 8.85 16.65 L8.75 16.65 M5.6 17.85 L5.6 17.95 5.85 18.35 5.95 18.25 6.6 18.05 6.65 18.0 6.9 17.95 6.9 17.4 6.95 17.15 7.15 17.4 7.15 17.5 Q7.65 17.8 8.2 17.7 L8.6 17.6 8.6 17.4 8.85 17.2 9.1 17.3 9.1 17.45 Q8.45 18.3 7.4 18.1 L7.3 18.05 7.2 18.25 Q6.7 18.55 6.1 18.65 L5.95 18.65 5.9 18.75 Q5.5 18.7 5.25 18.5 L5.0 18.3 4.65 18.25 4.6 18.3 4.5 18.25 Q2.3 19.1 0.6 17.45 -0.1 17.1 0.2 16.3 0.35 15.8 0.1 15.3 L0.4 14.9 0.55 14.85 Q0.5 14.4 0.75 14.05 L0.9 13.85 1.0 13.95 0.8 14.5 0.85 14.7 1.6 15.1 1.65 15.05 1.55 14.8 1.6 14.65 1.65 14.4 1.7 14.4 1.8 14.25 1.9 14.95 2.1 15.35 2.3 15.5 Q3.05 15.5 3.65 15.95 L3.9 16.15 4.35 16.05 4.45 16.05 4.45 15.9 4.4 15.9 Q4.3 15.4 4.3 14.85 L4.35 14.6 4.4 14.55 4.6 15.1 Q4.65 15.6 4.95 15.95 L5.05 16.05 5.2 16.1 5.25 16.1 5.25 16.15 5.35 16.15 Q5.65 15.75 6.1 15.8 L6.4 15.9 5.35 16.5 5.2 16.5 5.05 16.4 4.7 16.3 4.65 16.35 3.2 16.45 3.05 16.6 3.05 17.1 2.9 17.25 2.75 17.2 2.9 16.3 3.15 16.2 2.95 16.15 2.15 15.85 2.15 15.8 1.95 15.75 1.75 16.05 1.6 16.35 1.5 16.35 1.4 16.25 1.55 15.65 1.7 15.6 1.6 15.45 0.45 15.1 Q0.4 15.4 0.4 15.7 0.45 16.0 0.5 16.3 L0.45 16.4 0.45 16.5 0.4 16.55 0.4 16.6 Q0.45 16.8 0.55 16.95 0.75 17.15 1.0 17.2 L1.1 17.3 Q1.35 17.65 1.8 17.75 L2.0 17.5 2.0 17.3 2.15 17.35 2.15 17.65 2.3 17.8 Q2.95 17.9 3.6 18.15 L4.2 17.75 4.2 17.5 4.25 17.4 4.25 17.3 4.3 17.25 4.35 17.25 4.55 17.65 4.65 17.8 Q4.9 17.8 5.1 17.9 L5.2 18.0 5.4 17.9 5.45 17.7 5.4 17.55 5.6 17.6 5.6 17.85 M9.5 17.25 L9.4 17.15 9.8 16.55 Q11.25 16.45 12.35 15.5 L13.05 15.5 Q13.7 14.65 14.6 14.1 L14.75 14.25 14.7 14.35 Q14.05 14.8 13.6 15.4 L13.3 15.85 12.55 15.85 11.9 16.5 10.0 16.85 9.9 16.95 9.8 17.1 9.7 17.2 9.55 17.25 9.5 17.25 M15.2 13.75 L15.05 13.65 Q15.35 12.85 15.9 12.15 L16.0 12.25 Q15.8 12.85 15.5 13.35 L15.3 13.7 15.2 13.75 M10.2 0.55 L10.85 0.8 10.15 0.55 10.2 0.55 M8.25 0.1 L8.3 0.2 Q7.6 0.65 6.9 0.3 6.15 0.4 5.55 0.8 L5.45 0.85 4.4 0.95 4.5 0.9 Q6.05 0.0 7.8 0.05 L8.25 0.1 M2.95 3.15 L2.85 3.25 Q2.55 3.7 2.85 4.1 L2.9 4.2 3.0 4.25 3.1 4.45 2.95 4.5 2.9 4.45 2.7 4.7 2.65 4.7 2.6 4.85 Q2.2 5.4 1.55 5.7 L1.5 5.6 Q2.45 4.95 2.3 3.8 L1.7 4.25 1.55 4.2 1.6 4.15 1.65 4.05 2.8 2.75 2.85 2.55 Q2.85 1.85 3.35 1.35 L3.35 1.25 3.45 1.15 3.55 1.2 3.25 2.0 3.35 2.15 Q3.6 2.55 3.55 3.0 L3.5 3.15 3.25 2.9 2.95 3.15 M1.1 4.8 L1.15 4.9 Q0.9 5.3 1.25 5.7 L1.25 5.9 Q0.6 6.6 0.3 7.5 0.65 8.0 0.5 8.6 L0.45 8.75 0.35 8.8 0.3 8.8 0.3 8.5 0.25 8.45 0.25 7.95 0.05 7.65 1.1 4.8 M0.3 9.15 Q0.5 9.4 0.5 9.75 L0.5 9.95 0.65 9.95 0.75 10.05 Q0.85 10.15 0.85 10.25 L0.85 10.4 0.4 10.7 Q0.35 10.8 0.3 10.9 0.2 11.15 0.4 11.3 L0.65 11.35 0.75 11.55 0.65 11.65 0.65 11.7 0.75 11.85 0.95 12.05 1.0 12.05 Q1.45 12.3 1.9 12.0 L2.05 11.9 2.25 12.1 Q1.4 12.7 0.65 12.1 L0.45 11.75 Q0.15 11.65 0.1 11.35 L0.0 11.1 Q0.45 10.15 0.3 9.15 M0.75 12.45 Q0.95 12.65 0.9 12.9 L0.85 13.0 0.85 13.2 1.4 13.5 1.6 13.45 1.9 13.85 1.8 13.9 1.6 13.7 1.4 13.75 1.35 13.8 1.3 13.75 0.95 13.7 0.6 13.35 Q0.6 13.0 0.65 12.7 0.7 12.55 0.75 12.45 M6.75 15.9 L6.8 15.95 6.55 15.9 6.75 15.9" fill="#000000" fill-rule="evenodd" stroke="none"/>
      <path d="M13.9 2.9 L13.9 2.95 Q13.9 3.15 13.8 3.35 L13.7 3.45 Q12.95 3.35 12.4 2.9 11.35 3.6 10.5 4.6 L10.4 4.55 Q9.45 5.0 8.55 5.6 L9.85 5.75 Q11.0 4.5 12.5 3.75 L12.85 3.85 13.15 4.25 13.25 4.2 13.4 4.25 13.4 4.35 Q12.7 5.1 12.1 5.9 L12.7 6.1 Q11.95 6.95 10.95 7.55 9.7 7.45 8.5 7.65 L9.45 6.75 9.6 6.85 10.3 6.85 10.95 6.35 Q9.45 6.2 8.15 7.1 L8.1 7.2 Q7.55 7.55 7.05 7.2 L6.9 7.1 6.65 7.15 Q6.2 8.15 5.15 8.35 4.55 8.45 4.05 8.25 L3.85 8.15 3.8 8.2 3.55 8.3 3.95 8.5 3.9 8.65 Q2.6 9.05 1.6 8.1 L1.6 7.95 1.75 7.8 Q2.4 7.45 3.05 7.8 L3.25 8.0 3.35 7.95 Q3.0 7.35 2.35 7.1 L1.55 6.95 Q1.15 7.45 0.9 8.05 L0.8 8.05 0.5 7.4 0.95 6.35 1.9 5.9 2.0 6.0 Q2.35 7.0 3.7 6.85 L3.6 6.7 2.7 6.4 2.7 6.2 Q3.0 5.85 3.45 5.7 L3.4 5.4 2.9 5.35 Q2.8 5.85 2.35 6.0 L2.25 5.9 2.6 5.45 Q2.55 5.15 2.6 4.85 L2.65 4.7 2.7 4.7 3.95 4.7 4.8 5.35 5.6 5.25 Q5.3 5.1 4.95 5.1 L4.35 4.6 4.35 4.5 4.85 4.4 4.95 4.3 5.7 4.15 6.0 3.8 5.65 3.7 Q4.35 4.55 2.9 4.0 L2.85 3.25 2.95 3.15 3.2 3.15 3.3 3.45 5.2 2.75 5.2 2.5 4.4 2.2 Q4.2 2.3 3.95 2.3 L3.8 2.3 Q3.55 2.05 3.55 1.75 L3.5 1.65 3.55 1.55 3.55 1.4 3.9 1.3 3.95 1.25 4.05 1.2 4.15 1.2 4.25 1.1 5.45 0.85 5.55 0.8 5.6 0.85 5.6 1.0 5.5 1.1 4.55 1.35 Q4.45 1.5 4.45 1.7 L4.45 1.8 4.65 1.9 5.65 1.5 Q6.0 1.35 6.0 0.95 L5.9 0.85 5.95 0.8 6.55 0.65 6.65 0.75 Q6.7 1.05 6.6 1.35 L6.6 1.45 6.4 1.8 7.1 1.95 7.65 1.35 7.7 0.75 Q8.2 0.4 8.8 0.35 8.95 0.3 9.05 0.45 8.85 1.35 8.35 2.1 L8.65 2.15 9.4 1.65 Q9.45 1.4 9.55 1.3 L9.65 1.2 9.8 1.25 9.85 1.3 9.8 1.65 9.7 1.7 9.7 2.05 10.4 2.35 10.4 2.5 9.1 2.7 8.8 3.15 8.85 3.45 6.0 4.5 5.9 4.65 5.95 4.75 6.65 4.8 Q7.4 4.2 8.3 4.35 L9.0 3.9 9.1 3.75 9.6 3.25 9.75 3.35 10.05 3.75 10.55 3.8 10.75 3.55 10.3 3.45 10.2 3.3 Q11.45 2.35 13.0 2.1 L13.6 2.6 13.9 2.9 M14.45 3.35 Q15.25 3.9 15.45 4.85 L15.5 5.1 Q15.1 4.9 14.9 4.55 L14.75 4.4 13.65 4.15 13.55 4.0 14.2 3.7 14.25 3.55 14.35 3.45 14.35 3.4 14.45 3.35 M14.85 6.9 L15.45 6.45 15.45 6.35 15.7 6.15 Q15.95 6.15 16.1 6.35 L16.15 6.45 Q15.8 7.3 14.9 7.05 L14.85 6.9 M10.7 1.05 Q11.15 0.85 11.45 1.25 L11.55 1.4 Q11.25 2.25 10.25 1.85 L10.7 1.6 10.7 1.05 M0.95 12.05 L0.85 11.9 Q0.8 11.5 1.2 11.3 L1.3 11.25 2.35 11.3 2.4 11.55 Q1.65 11.65 1.1 12.05 L1.0 12.05 0.95 12.05 M3.65 15.65 Q3.4 15.5 3.2 15.3 L3.05 15.1 2.2 14.9 Q2.15 14.65 2.25 14.45 L2.3 14.25 2.3 14.2 2.55 14.05 2.75 14.3 2.7 14.5 2.8 14.65 3.95 15.15 4.0 15.65 3.95 15.7 3.9 15.75 3.65 15.65 M6.6 6.05 Q5.8 6.4 5.05 6.9 L5.35 7.0 7.2 6.4 6.6 6.05 M10.6 5.85 L10.75 5.85 10.65 5.8 10.6 5.85 M2.05 4.15 L2.2 4.2 2.15 4.65 1.9 4.85 Q1.65 5.05 1.55 5.35 L1.4 5.25 1.3 4.85 1.5 4.65 2.05 4.15 M4.35 9.95 Q2.8 10.55 1.35 9.3 L1.3 9.35 0.9 9.45 0.8 9.8 0.65 9.75 0.7 8.85 Q1.15 8.8 1.55 8.55 L1.7 8.6 1.75 8.7 1.55 9.05 3.8 9.35 4.4 9.8 4.35 9.95 M1.0 10.5 L1.05 10.8 0.95 11.15 0.8 11.2 0.45 11.05 0.4 10.9 0.85 10.45 1.0 10.5 M1.05 12.95 L1.1 12.8 1.5 12.7 1.45 12.6 Q1.95 12.1 2.6 12.25 L2.9 12.35 2.95 12.75 Q3.15 12.8 3.3 12.9 L3.55 13.1 3.55 13.15 Q3.25 13.3 2.9 13.3 L2.7 13.3 Q2.05 13.55 1.45 13.25 1.25 13.15 1.05 12.95 M1.1 13.95 L1.5 14.3 1.5 14.45 1.25 14.6 1.2 14.6 1.0 14.45 1.0 14.0 1.1 13.95 M5.0 10.8 L5.1 10.75 6.2 11.0 5.75 10.5 5.85 10.35 Q7.45 10.75 9.05 10.35 L9.5 10.2 9.5 10.3 9.3 10.5 8.8 10.5 Q8.45 11.0 7.95 11.35 L7.65 11.6 5.5 11.35 Q5.35 11.55 5.1 11.55 4.7 11.65 4.35 11.45 L4.15 11.35 4.15 11.2 4.25 11.1 4.8 11.1 4.95 10.95 5.0 10.8 M5.3 17.35 L5.25 17.4 5.0 17.45 4.8 17.25 4.9 16.85 4.4 16.8 4.35 16.65 5.1 16.65 5.55 16.7 5.6 16.95 5.4 17.05 5.4 17.2 5.35 17.3 5.3 17.35 M6.8 16.2 L6.9 16.25 6.85 16.5 6.65 16.6 6.55 17.05 6.45 17.15 5.95 17.1 5.9 17.0 5.95 16.45 Q6.2 16.25 6.55 16.2 L6.8 16.2 M4.2 16.75 L3.95 16.85 3.95 17.3 3.4 17.5 3.3 17.45 3.3 16.85 3.6 16.6 4.2 16.65 4.2 16.75 M0.5 15.35 Q1.05 15.35 1.4 15.65 1.25 16.05 1.3 16.5 L1.25 16.6 1.1 16.6 0.45 15.45 0.45 15.4 0.5 15.35 M2.7 16.35 L2.55 17.1 2.4 17.1 1.9 16.4 1.9 16.3 1.85 16.2 1.85 16.1 1.95 16.1 2.65 16.2 2.7 16.35" fill="#a3a3a3" fill-rule="evenodd" stroke="none"/>
      <path d="M11.65 1.2 L11.95 1.6 Q13.5 1.85 14.5 3.05 L14.65 3.25 14.45 3.35 13.95 3.35 13.9 2.95 13.9 2.9 13.9 2.8 Q13.5 2.1 12.65 1.95 L12.6 1.9 10.8 2.8 10.55 2.6 10.8 2.25 Q11.1 2.2 11.3 2.05 11.45 1.9 11.6 1.65 L11.65 1.2 M15.55 4.4 Q15.85 5.0 15.95 5.65 L16.0 6.05 15.95 6.1 15.75 6.1 Q15.7 6.15 15.6 6.2 L15.45 6.1 15.45 5.95 Q15.9 5.3 15.5 4.6 L15.55 4.4 M16.25 6.45 Q16.6 7.9 16.25 9.4 L16.15 9.85 Q16.3 10.25 16.25 10.7 L16.2 11.45 16.3 11.35 Q16.35 11.7 16.1 12.05 L16.0 12.25 15.9 12.15 Q15.35 12.85 15.05 13.65 L15.2 13.75 Q15.1 14.05 14.85 14.25 L14.7 14.35 14.75 14.25 14.6 14.1 Q13.7 14.65 13.05 15.5 L12.35 15.5 Q11.25 16.45 9.8 16.55 L9.4 17.15 9.5 17.25 9.45 17.3 9.1 17.3 8.85 17.2 8.6 17.4 8.6 17.6 8.2 17.7 Q7.65 17.8 7.15 17.5 L7.15 17.4 6.95 17.15 6.9 17.4 6.9 17.95 6.65 18.0 6.6 18.05 5.95 18.25 5.85 18.35 5.6 17.95 5.6 17.85 6.7 17.65 6.7 17.1 Q6.7 17.0 6.8 16.9 L6.9 16.9 7.35 17.35 8.3 17.35 8.5 16.3 8.55 16.3 Q8.55 16.45 8.65 16.55 8.7 16.65 8.75 16.65 L8.75 16.75 8.95 17.0 9.25 16.7 Q9.25 16.35 9.4 16.0 L9.5 15.8 9.15 15.5 9.15 15.3 9.6 14.95 9.65 14.65 9.65 14.45 8.2 14.25 8.2 13.8 Q8.05 13.6 7.75 13.6 7.4 13.6 7.1 13.75 L6.9 13.85 6.45 13.7 6.4 13.75 6.4 14.2 5.8 14.3 Q5.55 14.3 5.3 14.45 L3.1 13.9 3.05 13.75 3.15 13.65 3.75 13.5 3.8 13.4 4.35 13.55 Q4.5 13.55 4.55 13.7 L5.0 13.75 5.3 13.8 6.55 13.1 6.9 13.4 7.2 12.95 Q7.95 12.8 8.65 13.15 9.05 13.3 9.45 13.2 10.2 12.35 11.25 12.05 L11.4 11.85 11.45 11.8 11.6 11.85 Q11.6 12.0 11.55 12.2 11.5 12.4 11.3 12.5 L11.1 12.6 11.05 12.9 Q10.95 13.05 10.8 13.1 L10.2 13.35 9.95 14.0 10.15 14.1 10.25 15.0 11.15 14.45 11.4 14.5 11.05 15.35 11.2 15.75 11.55 15.95 11.95 15.3 Q11.45 14.7 11.45 13.95 L10.95 13.95 10.85 14.3 10.8 14.35 10.65 14.3 10.45 13.9 10.85 13.4 11.5 13.25 12.15 12.5 Q12.85 12.45 13.4 12.0 L13.75 11.65 13.65 11.65 13.6 11.7 13.35 11.7 13.1 11.8 12.95 11.75 12.9 11.65 13.1 11.25 Q14.25 10.7 15.6 10.7 15.95 10.25 16.0 9.7 L16.0 9.0 15.4 8.85 14.55 9.25 14.35 9.55 13.25 9.6 13.0 9.75 12.8 9.7 12.7 9.65 Q12.8 9.0 13.35 8.75 13.65 8.65 13.9 8.4 L14.0 7.9 16.05 7.0 16.25 6.45 M12.15 9.85 L11.6 10.65 11.6 10.75 12.0 10.45 12.15 10.5 12.25 10.7 12.15 10.8 12.15 10.95 Q11.15 11.65 9.95 11.65 L9.35 11.55 Q9.05 11.95 8.6 12.15 7.95 12.35 7.35 12.05 L7.3 11.85 8.3 11.85 Q8.7 11.3 9.3 10.95 9.65 10.75 10.05 10.7 L10.2 10.25 10.3 10.2 Q10.8 10.35 11.25 10.2 11.75 10.05 12.05 9.65 L12.15 9.75 12.15 9.85 M12.5 13.3 L11.95 13.9 12.15 14.2 12.8 14.35 13.05 14.2 13.05 14.1 13.1 13.95 13.05 13.7 13.0 13.55 12.5 13.3 M13.8 12.8 L13.7 12.85 14.05 12.75 14.4 11.7 13.7 12.45 13.8 12.8 M0.75 10.05 L1.3 9.7 Q2.15 10.15 2.85 10.85 3.45 10.5 4.1 10.65 L4.45 10.75 Q4.25 10.8 4.1 10.9 L3.95 10.85 3.55 11.0 3.4 11.6 3.3 11.6 Q2.55 11.1 1.65 11.0 L1.35 10.95 1.35 10.6 1.4 10.5 1.3 10.4 0.85 10.4 0.85 10.25 Q0.85 10.15 0.75 10.05 M0.8 14.5 L1.45 14.8 1.6 14.65 1.55 14.8 1.65 15.05 1.6 15.1 0.85 14.7 0.8 14.5 M1.9 14.95 Q2.4 15.25 2.95 15.45 L3.65 15.65 3.9 15.75 3.95 15.7 4.4 15.9 4.45 15.9 4.35 16.05 3.9 16.15 3.65 15.95 Q3.05 15.5 2.3 15.5 L2.1 15.35 1.9 14.95 M4.6 15.1 L4.7 15.15 4.7 15.25 5.5 15.85 Q6.25 15.75 6.8 15.25 L7.25 14.85 Q7.4 14.95 7.45 15.15 L7.45 15.35 7.35 15.4 7.15 15.65 7.25 15.75 Q7.05 15.9 6.85 15.95 L6.75 15.9 6.55 15.9 6.4 15.9 6.1 15.8 Q5.65 15.75 5.35 16.15 L5.25 16.15 5.25 16.1 5.2 16.1 5.05 16.05 4.95 15.95 Q4.65 15.6 4.6 15.1 M7.4 14.65 Q7.65 14.65 7.85 14.9 L7.95 15.0 8.2 15.0 8.55 14.6 8.65 14.7 8.4 15.2 Q8.3 15.35 8.15 15.3 7.9 15.3 7.75 15.2 L7.7 15.0 7.4 14.65 M3.35 2.15 L3.65 2.45 4.65 2.45 4.75 2.5 4.75 2.55 4.6 2.7 4.4 2.75 Q4.2 2.95 3.9 3.05 L3.7 3.1 3.65 3.2 3.5 3.15 3.55 3.0 Q3.6 2.55 3.35 2.15 M4.2 8.65 L4.9 8.85 4.95 9.0 4.9 9.15 4.8 9.2 4.75 9.4 4.65 9.45 4.5 9.4 Q4.45 9.25 4.3 9.25 3.85 9.25 3.6 8.95 L3.7 8.85 4.15 8.9 4.1 8.7 4.2 8.65 M5.4 11.8 Q5.85 11.7 6.1 12.05 4.95 13.0 3.75 12.1 L3.7 11.95 3.85 11.85 4.9 12.1 Q5.2 12.15 5.35 11.9 L5.4 11.8 M6.35 10.0 Q7.45 9.7 8.55 9.95 8.45 10.15 8.15 10.2 L7.85 10.25 7.6 10.2 7.3 10.35 6.9 10.3 6.85 10.25 6.35 10.25 6.25 10.1 6.35 10.0 M10.25 15.2 L10.25 15.25 10.35 15.25 10.25 15.2 M0.4 16.6 L0.5 16.55 1.6 17.2 1.8 16.9 1.95 16.95 2.0 17.05 2.1 17.1 2.15 17.35 2.0 17.3 2.0 17.5 1.8 17.75 Q1.35 17.65 1.1 17.3 L1.0 17.2 Q0.75 17.15 0.55 16.95 0.45 16.8 0.4 16.6 M2.15 17.65 L3.3 17.8 4.05 17.4 4.1 17.05 4.2 17.05 4.3 17.1 4.35 17.25 4.3 17.25 4.25 17.3 4.25 17.4 4.2 17.5 4.2 17.75 3.6 18.15 Q2.95 17.9 2.3 17.8 L2.15 17.65 M4.55 17.65 L5.15 17.7 5.3 17.35 5.35 17.3 5.4 17.2 5.55 17.25 5.6 17.6 5.4 17.55 5.45 17.7 5.4 17.9 5.2 18.0 5.1 17.9 Q4.9 17.8 4.65 17.8 L4.55 17.65" fill="#686262" fill-rule="evenodd" stroke="none"/>
      <path d="M14.65 3.25 L15.55 4.4 15.5 4.6 Q15.9 5.3 15.45 5.95 L15.45 6.1 15.6 6.2 Q15.7 6.15 15.75 6.1 L15.95 6.1 16.0 6.05 16.25 6.45 16.05 7.0 14.0 7.9 13.9 8.4 Q13.65 8.65 13.35 8.75 12.8 9.0 12.7 9.65 L12.8 9.7 13.0 9.75 13.25 9.6 14.35 9.55 14.55 9.25 15.4 8.85 16.0 9.0 16.0 9.7 Q15.95 10.25 15.6 10.7 14.25 10.7 13.1 11.25 L12.9 11.65 12.95 11.75 13.1 11.8 13.35 11.7 13.6 11.7 13.65 11.65 13.75 11.65 13.4 12.0 Q12.85 12.45 12.15 12.5 L11.5 13.25 10.85 13.4 10.45 13.9 10.65 14.3 10.8 14.35 10.85 14.3 10.95 13.95 11.45 13.95 Q11.45 14.7 11.95 15.3 L11.55 15.95 11.2 15.75 11.05 15.35 11.4 14.5 11.15 14.45 10.25 15.0 10.15 14.1 9.95 14.0 10.2 13.35 10.8 13.1 Q10.95 13.05 11.05 12.9 L11.1 12.6 11.3 12.5 Q11.5 12.4 11.55 12.2 11.6 12.0 11.6 11.85 L11.45 11.8 11.4 11.85 11.25 12.05 Q10.2 12.35 9.45 13.2 9.05 13.3 8.65 13.15 7.95 12.8 7.2 12.95 L6.9 13.4 6.55 13.1 5.3 13.8 5.0 13.75 4.55 13.7 Q4.5 13.55 4.35 13.55 L3.8 13.4 3.75 13.5 3.15 13.65 3.05 13.75 3.1 13.9 5.3 14.45 Q5.55 14.3 5.8 14.3 L6.4 14.2 6.4 13.75 6.45 13.7 6.9 13.85 7.1 13.75 Q7.4 13.6 7.75 13.6 8.05 13.6 8.2 13.8 L8.2 14.25 9.65 14.45 9.65 14.65 9.6 14.95 9.15 15.3 9.15 15.5 9.5 15.8 9.4 16.0 Q9.25 16.35 9.25 16.7 L8.95 17.0 8.75 16.75 8.75 16.65 8.85 16.65 Q8.7 15.65 8.75 14.65 L8.65 14.65 8.65 14.7 8.55 14.6 8.2 15.0 7.95 15.0 7.85 14.9 Q7.65 14.65 7.4 14.65 7.2 14.6 7.1 14.75 L7.25 14.85 6.8 15.25 Q6.25 15.75 5.5 15.85 L4.7 15.25 4.7 15.15 4.6 15.1 4.4 14.55 4.35 14.6 4.3 14.85 Q4.3 15.4 4.4 15.9 L3.95 15.7 4.0 15.65 3.95 15.15 2.8 14.65 2.7 14.5 2.75 14.3 2.55 14.05 2.3 14.2 2.3 14.25 2.25 14.45 Q2.15 14.65 2.2 14.9 L3.05 15.1 3.2 15.3 Q3.4 15.5 3.65 15.65 L2.95 15.45 Q2.4 15.25 1.9 14.95 L1.8 14.25 1.7 14.4 1.65 14.4 1.6 14.65 1.45 14.8 0.8 14.5 1.0 13.95 0.9 13.85 0.95 13.7 1.3 13.75 1.35 13.8 1.4 13.75 1.6 13.7 1.8 13.9 1.9 13.85 1.6 13.45 1.4 13.5 0.85 13.2 0.85 13.0 0.9 12.9 Q0.95 12.65 0.75 12.45 L0.65 12.1 Q1.4 12.7 2.25 12.1 L2.05 11.9 1.9 12.0 Q1.45 12.3 1.0 12.05 L1.1 12.05 Q1.65 11.65 2.4 11.55 L2.35 11.3 1.3 11.25 1.2 11.3 Q0.8 11.5 0.85 11.9 L0.95 12.05 0.75 11.85 0.65 11.7 0.65 11.65 0.75 11.55 0.65 11.35 0.4 11.3 Q0.2 11.15 0.3 10.9 0.35 10.8 0.4 10.7 L0.85 10.4 1.3 10.4 1.4 10.5 1.35 10.6 1.35 10.95 1.65 11.0 Q2.55 11.1 3.3 11.6 L3.4 11.6 3.55 11.0 3.95 10.85 4.1 10.9 Q4.25 10.8 4.45 10.75 L4.1 10.65 Q3.45 10.5 2.85 10.85 2.15 10.15 1.3 9.7 L0.75 10.05 0.65 9.95 0.5 9.95 0.5 9.75 Q0.5 9.4 0.3 9.15 L0.3 8.8 0.35 8.8 0.45 8.75 0.5 8.6 Q0.65 8.0 0.3 7.5 0.6 6.6 1.25 5.9 L1.25 5.7 Q0.9 5.3 1.15 4.9 L1.1 4.8 1.55 4.2 1.7 4.25 2.3 3.8 Q2.45 4.95 1.5 5.6 L1.55 5.7 Q2.2 5.4 2.6 4.85 2.55 5.15 2.6 5.45 L2.25 5.9 2.35 6.0 Q2.8 5.85 2.9 5.35 L3.4 5.4 3.45 5.7 Q3.0 5.85 2.7 6.2 L2.7 6.4 3.6 6.7 3.7 6.85 Q2.35 7.0 2.0 6.0 L1.9 5.9 0.95 6.35 0.5 7.4 0.8 8.05 0.9 8.05 Q1.15 7.45 1.55 6.95 L2.35 7.1 Q3.0 7.35 3.35 7.95 L3.25 8.0 3.05 7.8 Q2.4 7.45 1.75 7.8 L1.6 7.95 1.6 8.1 Q2.6 9.05 3.9 8.65 L3.95 8.5 3.55 8.3 3.8 8.2 3.85 8.15 4.05 8.25 Q4.55 8.45 5.15 8.35 6.2 8.15 6.65 7.15 L6.9 7.1 7.05 7.2 Q7.55 7.55 8.1 7.2 L8.15 7.1 Q9.45 6.2 10.95 6.35 L10.3 6.85 9.6 6.85 9.45 6.75 8.5 7.65 Q9.7 7.45 10.95 7.55 11.95 6.95 12.7 6.1 L12.1 5.9 Q12.7 5.1 13.4 4.35 L13.4 4.25 13.25 4.2 13.15 4.25 12.85 3.85 12.5 3.75 Q11.0 4.5 9.85 5.75 L8.55 5.6 Q9.45 5.0 10.4 4.55 L10.5 4.6 Q11.35 3.6 12.4 2.9 12.95 3.35 13.7 3.45 L13.8 3.35 Q13.9 3.15 13.9 2.95 L13.95 3.35 14.45 3.35 14.65 3.25 M10.95 0.8 L10.9 0.8 11.6 1.15 11.65 1.2 11.6 1.65 Q11.45 1.9 11.3 2.05 11.1 2.2 10.8 2.25 L10.55 2.6 10.8 2.8 12.6 1.9 12.65 1.95 Q13.5 2.1 13.9 2.8 L13.9 2.9 13.6 2.6 13.0 2.1 Q11.45 2.35 10.2 3.3 L10.3 3.45 10.75 3.55 10.55 3.8 10.05 3.75 9.75 3.35 9.6 3.25 9.1 3.75 9.0 3.9 8.3 4.35 Q7.4 4.2 6.65 4.8 L5.95 4.75 5.9 4.65 6.0 4.5 8.85 3.45 8.8 3.15 9.1 2.7 10.4 2.5 10.4 2.35 9.7 2.05 9.7 1.7 9.8 1.65 9.85 1.3 9.8 1.25 9.65 1.2 9.55 1.3 Q9.45 1.4 9.4 1.65 L8.65 2.15 8.35 2.1 Q8.85 1.35 9.05 0.45 8.95 0.3 8.8 0.35 8.2 0.4 7.7 0.75 L7.65 1.35 7.1 1.95 6.4 1.8 6.6 1.45 6.6 1.35 Q6.7 1.05 6.65 0.75 L6.55 0.65 5.95 0.8 5.9 0.85 6.0 0.95 Q6.0 1.35 5.65 1.5 L4.65 1.9 4.45 1.8 4.45 1.7 Q4.45 1.5 4.55 1.35 L5.5 1.1 5.6 1.0 5.6 0.85 5.55 0.8 Q6.15 0.4 6.9 0.3 7.6 0.65 8.3 0.2 L8.25 0.1 Q9.4 0.15 10.45 0.55 L10.95 0.8 M14.45 3.35 L14.35 3.4 14.35 3.45 14.25 3.55 14.2 3.7 13.55 4.0 13.65 4.15 14.75 4.4 14.9 4.55 Q15.1 4.9 15.5 5.1 L15.45 4.85 Q15.25 3.9 14.45 3.35 M14.85 6.9 L14.9 7.05 Q15.8 7.3 16.15 6.45 L16.1 6.35 Q15.95 6.15 15.7 6.15 L15.45 6.35 15.45 6.45 14.85 6.9 M8.55 16.3 L8.5 16.3 8.3 17.35 7.35 17.35 6.9 16.9 6.8 16.9 Q6.7 17.0 6.7 17.1 L6.7 17.65 5.6 17.85 5.6 17.6 5.55 17.25 5.4 17.2 5.4 17.05 5.6 16.95 5.55 16.7 5.1 16.65 4.35 16.65 4.4 16.8 4.9 16.85 4.8 17.25 5.0 17.45 5.25 17.4 5.3 17.35 5.15 17.7 4.55 17.65 4.35 17.25 4.3 17.1 4.2 17.05 4.1 17.05 4.05 17.4 3.3 17.8 2.15 17.65 2.15 17.35 2.1 17.1 2.0 17.05 1.95 16.95 1.8 16.9 1.6 17.2 0.5 16.55 0.4 16.6 0.4 16.55 0.45 16.5 0.45 16.4 0.5 16.3 Q0.45 16.0 0.4 15.7 0.4 15.4 0.45 15.1 L1.6 15.45 1.7 15.6 1.55 15.65 1.4 16.25 1.5 16.35 1.6 16.35 1.75 16.05 1.95 15.75 2.15 15.8 2.15 15.85 2.95 16.15 3.15 16.2 2.9 16.3 2.75 17.2 2.9 17.25 3.05 17.1 3.05 16.6 3.2 16.45 4.65 16.35 4.7 16.3 5.05 16.4 5.2 16.5 5.35 16.5 6.4 15.9 6.55 15.9 6.8 15.95 6.75 15.9 6.85 15.95 Q7.05 15.9 7.25 15.75 L7.35 15.8 7.55 15.65 8.5 15.75 8.5 15.95 8.6 16.05 8.55 16.3 M9.1 17.3 L9.45 17.3 9.1 17.45 9.1 17.3 M13.8 12.8 L13.7 12.45 14.4 11.7 14.05 12.75 13.7 12.85 13.8 12.8 M12.5 13.3 L13.0 13.55 13.05 13.7 13.1 13.95 13.05 14.1 13.05 14.2 12.8 14.35 12.15 14.2 11.95 13.9 12.5 13.3 M12.15 9.85 L12.15 9.75 12.05 9.65 Q11.75 10.05 11.25 10.2 10.8 10.35 10.3 10.2 L10.2 10.25 10.05 10.7 Q9.65 10.75 9.3 10.95 8.7 11.3 8.3 11.85 L7.3 11.85 7.35 12.05 Q7.95 12.35 8.6 12.15 9.05 11.95 9.35 11.55 L9.95 11.65 Q11.15 11.65 12.15 10.95 L12.15 10.8 12.25 10.7 12.15 10.5 12.0 10.45 11.6 10.75 11.6 10.65 12.15 9.85 M10.2 0.55 L10.15 0.55 10.85 0.8 10.2 0.55 M10.7 1.05 L10.7 1.6 10.25 1.85 Q11.25 2.25 11.55 1.4 L11.45 1.25 Q11.15 0.85 10.7 1.05 M5.45 0.85 L4.25 1.1 4.15 1.2 4.05 1.2 3.95 1.25 3.9 1.3 3.55 1.4 3.55 1.55 3.5 1.65 3.55 1.75 Q3.55 2.05 3.8 2.3 L3.95 2.3 Q4.2 2.3 4.4 2.2 L5.2 2.5 5.2 2.75 3.3 3.45 3.2 3.15 2.95 3.15 3.25 2.9 3.5 3.15 3.65 3.2 3.7 3.1 3.9 3.05 Q4.2 2.95 4.4 2.75 L4.6 2.7 4.75 2.55 4.75 2.5 4.65 2.45 3.65 2.45 3.35 2.15 3.25 2.0 3.55 1.2 3.45 1.15 3.65 1.05 Q4.05 0.8 4.5 0.9 L4.4 0.95 5.45 0.85 M2.85 3.25 L2.9 4.0 Q4.35 4.55 5.65 3.7 L6.0 3.8 5.7 4.15 4.95 4.3 4.85 4.4 4.35 4.5 4.35 4.6 4.95 5.1 Q5.3 5.1 5.6 5.25 L4.8 5.35 3.95 4.7 2.7 4.7 2.9 4.45 2.95 4.5 3.1 4.45 3.0 4.25 2.9 4.2 2.85 4.1 Q2.55 3.7 2.85 3.25 M10.6 5.85 L10.65 5.8 10.75 5.85 10.6 5.85 M6.6 6.05 L7.2 6.4 5.35 7.0 5.05 6.9 Q5.8 6.4 6.6 6.05 M1.6 4.15 L1.6 4.1 1.65 4.05 1.6 4.15 M2.05 4.15 L1.5 4.65 1.3 4.85 1.4 5.25 1.55 5.35 Q1.65 5.05 1.9 4.85 L2.15 4.65 2.2 4.2 2.05 4.15 M4.2 8.65 L4.1 8.7 4.15 8.9 3.7 8.85 3.6 8.95 Q3.85 9.25 4.3 9.25 4.45 9.25 4.5 9.4 L4.65 9.45 4.75 9.4 4.8 9.2 4.9 9.15 4.95 9.0 4.9 8.85 4.2 8.65 M4.35 9.95 L4.4 9.8 3.8 9.35 1.55 9.05 1.75 8.7 1.7 8.6 1.55 8.55 Q1.15 8.8 0.7 8.85 L0.65 9.75 0.8 9.8 0.9 9.45 1.3 9.35 1.35 9.3 Q2.8 10.55 4.35 9.95 M1.0 10.5 L0.85 10.45 0.4 10.9 0.45 11.05 0.8 11.2 0.95 11.15 1.05 10.8 1.0 10.5 M1.1 13.95 L1.0 14.0 1.0 14.45 1.2 14.6 1.25 14.6 1.5 14.45 1.5 14.3 1.1 13.95 M1.05 12.95 Q1.25 13.15 1.45 13.25 2.05 13.55 2.7 13.3 L2.9 13.3 Q3.25 13.3 3.55 13.15 L3.55 13.1 3.3 12.9 Q3.15 12.8 2.95 12.75 L2.9 12.35 2.6 12.25 Q1.95 12.1 1.45 12.6 L1.5 12.7 1.1 12.8 1.05 12.95 M5.0 10.8 L4.95 10.95 4.8 11.1 4.25 11.1 4.15 11.2 4.15 11.35 4.35 11.45 Q4.7 11.65 5.1 11.55 5.35 11.55 5.5 11.35 L7.65 11.6 7.95 11.35 Q8.45 11.0 8.8 10.5 L9.3 10.5 9.5 10.3 9.5 10.2 9.05 10.35 Q7.45 10.75 5.85 10.35 L5.75 10.5 6.2 11.0 5.1 10.75 5.0 10.8 M10.25 15.2 L10.35 15.25 10.25 15.25 10.25 15.2 M6.35 10.0 L6.25 10.1 6.35 10.25 6.85 10.25 6.9 10.3 7.3 10.35 7.6 10.2 7.85 10.25 8.15 10.2 Q8.45 10.15 8.55 9.95 7.45 9.7 6.35 10.0 M5.4 11.8 L5.35 11.9 Q5.2 12.15 4.9 12.1 L3.85 11.85 3.7 11.95 3.75 12.1 Q4.95 13.0 6.1 12.05 5.85 11.7 5.4 11.8 M6.8 16.2 L6.55 16.2 Q6.2 16.25 5.95 16.45 L5.9 17.0 5.95 17.1 6.45 17.15 6.55 17.05 6.65 16.6 6.85 16.5 6.9 16.25 6.8 16.2 M4.2 16.75 L4.2 16.65 3.6 16.6 3.3 16.85 3.3 17.45 3.4 17.5 3.95 17.3 3.95 16.85 4.2 16.75 M4.35 16.05 L4.45 15.9 4.45 16.05 4.35 16.05 M0.5 15.35 L0.45 15.4 0.45 15.45 1.1 16.6 1.25 16.6 1.3 16.5 Q1.25 16.05 1.4 15.65 1.05 15.35 0.5 15.35 M2.7 16.35 L2.65 16.2 1.95 16.1 1.85 16.1 1.85 16.2 1.9 16.3 1.9 16.4 2.4 17.1 2.55 17.1 2.7 16.35" fill="#8d8d8d" fill-rule="evenodd" stroke="none"/>
    </g>
  </defs>
</svg>
