<?xml version="1.0" encoding="UTF-8" standalone="no"?>
<svg xmlns:ffdec="https://www.free-decompiler.com/flash" xmlns:xlink="http://www.w3.org/1999/xlink" ffdec:objectType="frame" height="297.15px" width="682.65px" xmlns="http://www.w3.org/2000/svg">
  <g transform="matrix(1.0, 0.0, 0.0, 1.0, 386.85, 445.65)">
    <use ffdec:characterId="850" height="214.45" transform="matrix(1.0, 0.0, 0.0, 1.0, -239.7, -420.0)" width="267.55" xlink:href="#shape0"/>
  </g>
  <defs>
    <g id="shape0" transform="matrix(1.0, 0.0, 0.0, 1.0, 239.7, 420.0)">
      <path d="M23.6 -230.65 Q23.95 -228.85 24.7 -226.8 L24.75 -226.65 Q25.5 -224.35 26.3 -223.4 L26.55 -222.75 Q26.55 -221.75 25.8 -221.35 L25.9 -221.45 25.8 -221.35 24.1 -221.1 Q23.05 -221.0 22.0 -219.3 L21.95 -219.25 20.1 -215.75 20.1 -214.55 21.15 -214.4 21.2 -214.4 Q21.5 -214.35 21.7 -214.1 L22.0 -213.55 Q22.3 -211.8 22.7 -210.9 23.4 -209.8 25.95 -209.85 L26.65 -209.6 26.6 -209.6 Q27.85 -208.5 27.85 -206.85 L27.65 -206.25 Q27.45 -206.0 27.15 -205.9 L24.65 -205.55 24.6 -205.55 Q22.35 -205.45 20.65 -208.75 19.75 -210.5 19.55 -211.7 L18.35 -211.85 17.9 -212.0 17.9 -212.05 17.55 -212.4 17.6 -212.35 Q17.25 -212.85 17.25 -214.85 L17.25 -214.9 Q17.15 -216.55 20.5 -220.9 L23.3 -224.35 22.5 -226.4 22.45 -226.55 22.0 -227.55 20.5 -226.2 Q20.25 -225.9 19.85 -225.9 19.45 -225.9 19.15 -226.15 L18.3 -226.85 18.3 -226.8 18.0 -227.35 17.95 -227.4 18.05 -228.05 18.4 -228.45 19.75 -229.8 19.8 -229.85 Q21.7 -231.55 22.65 -231.45 L23.25 -231.2 23.6 -230.65 M-184.25 -416.85 L-183.3 -417.65 Q-183.05 -418.8 -181.6 -419.55 L-181.5 -419.55 Q-179.4 -420.7 -177.65 -418.75 -177.35 -418.45 -177.4 -418.05 L-177.4 -418.0 Q-177.45 -417.6 -177.75 -417.35 L-177.7 -417.35 Q-178.3 -416.8 -180.4 -415.4 L-180.75 -415.25 -181.15 -415.25 -181.5 -415.35 -182.05 -414.95 -182.7 -414.8 -183.1 -414.85 -183.3 -414.9 -183.35 -414.9 Q-184.45 -415.3 -184.45 -416.1 L-184.4 -416.45 -184.25 -416.85 M-39.15 -381.85 L-39.1 -381.8 -39.15 -381.85 Q-40.55 -382.45 -42.3 -381.4 -44.65 -379.95 -44.65 -378.15 -44.65 -377.0 -44.25 -376.35 L-44.7 -376.4 Q-45.15 -376.4 -45.4 -376.7 L-45.65 -377.25 Q-45.9 -377.65 -45.0 -378.6 -44.85 -378.8 -44.85 -379.2 L-44.95 -379.55 -45.0 -379.6 -45.05 -379.65 -45.95 -380.9 -46.65 -381.15 Q-48.85 -381.9 -49.85 -382.45 L-50.7 -382.4 -51.35 -382.2 Q-51.5 -381.15 -52.1 -381.15 L-52.65 -381.1 -52.95 -381.15 -53.1 -381.0 Q-54.6 -378.65 -55.6 -377.9 -57.45 -376.5 -59.85 -375.6 -62.25 -374.75 -67.2 -373.6 L-67.25 -373.6 -67.35 -373.6 -67.4 -373.6 -72.95 -373.1 -73.45 -373.05 Q-80.0 -373.8 -81.6 -375.45 L-84.35 -375.45 -86.55 -373.2 -86.65 -373.1 -88.1 -371.45 -87.35 -370.4 -87.3 -370.35 Q-85.85 -368.7 -86.0 -367.9 L-86.0 -367.65 -85.9 -366.7 Q-85.8 -365.75 -87.35 -363.8 L-87.7 -363.35 -88.45 -361.95 -88.85 -361.35 -88.9 -361.35 -88.95 -361.3 Q-89.6 -360.9 -90.1 -361.3 L-90.25 -361.3 Q-90.6 -361.3 -90.85 -361.55 L-90.9 -361.55 -91.2 -362.15 -91.3 -362.7 -91.3 -362.75 -91.2 -363.25 -91.25 -363.25 -89.75 -365.7 Q-89.2 -366.55 -89.2 -367.95 L-89.2 -368.1 -89.2 -368.15 -89.1 -368.8 -89.25 -369.0 Q-90.7 -370.5 -90.65 -371.45 -90.8 -372.2 -88.75 -374.75 L-86.05 -377.85 -85.35 -378.15 -80.7 -378.15 -80.1 -377.95 -79.75 -377.45 Q-79.55 -376.85 -78.8 -376.4 -77.65 -375.75 -76.0 -375.75 -59.1 -375.75 -56.3 -381.85 -55.7 -383.2 -54.4 -383.9 L-52.45 -385.2 -51.75 -385.35 -45.0 -383.6 -44.85 -383.6 -39.75 -382.15 -39.85 -382.15 Q-39.45 -382.15 -39.15 -381.85 M-41.4 -341.95 L-41.1 -341.4 -41.2 -340.75 -41.7 -340.35 -44.75 -338.8 -44.75 -338.4 Q-40.4 -339.0 -36.8 -341.05 L-36.15 -341.2 -35.6 -340.9 -35.55 -340.9 -35.3 -340.35 -35.4 -339.7 -35.4 -339.75 Q-36.0 -338.35 -39.05 -337.45 -42.05 -336.55 -43.3 -335.75 L-43.9 -335.6 -46.35 -335.7 Q-46.75 -335.7 -47.0 -336.0 L-47.3 -336.7 -47.3 -337.25 -52.05 -333.7 -53.3 -332.5 -53.35 -332.45 -53.7 -332.0 -55.0 -329.6 -55.05 -329.5 -55.95 -327.3 -55.55 -326.95 -55.45 -326.75 -55.15 -326.3 Q-54.1 -325.25 -54.25 -324.65 L-54.25 -324.6 Q-54.25 -323.6 -56.1 -321.35 L-57.95 -319.0 Q-58.05 -318.75 -58.3 -318.6 L-58.85 -318.45 -61.8 -318.45 Q-62.15 -318.45 -62.45 -318.7 L-62.8 -319.3 -62.9 -319.95 -62.8 -320.55 -62.8 -320.6 -62.5 -321.15 -62.45 -321.15 -62.1 -321.5 -62.05 -321.5 -61.65 -321.65 -60.05 -322.15 -59.5 -322.85 -57.8 -324.9 -58.3 -325.05 -58.25 -325.05 -58.85 -325.45 -58.9 -325.45 -59.05 -326.15 -58.95 -326.5 -59.05 -326.75 -59.05 -326.8 -59.35 -329.3 -59.35 -329.35 Q-59.5 -331.9 -53.1 -336.95 L-53.05 -337.0 -49.85 -340.05 -49.4 -340.25 -49.35 -340.25 -48.8 -340.35 -48.25 -340.55 -47.95 -340.7 -47.9 -340.75 -47.55 -340.8 -47.5 -340.8 Q-44.25 -342.5 -42.0 -342.25 L-41.4 -342.0 -41.4 -341.95 M-72.1 -251.0 Q-72.3 -253.0 -70.5 -254.25 L-69.95 -254.45 -69.9 -254.45 -69.35 -254.25 -69.0 -253.8 -69.0 -253.75 -69.0 -253.15 -69.0 -253.2 -69.05 -252.95 Q-67.75 -252.5 -67.75 -251.7 L-67.85 -251.15 -69.55 -247.9 -69.7 -247.75 Q-71.5 -245.3 -74.2 -246.5 L-74.2 -246.45 -74.7 -246.95 -74.75 -247.65 -74.75 -247.6 -74.4 -248.15 -74.4 -248.2 -73.6 -249.2 -73.55 -249.2 -73.45 -249.35 Q-72.7 -250.0 -71.85 -250.1 L-72.0 -250.75 -72.05 -250.85 -72.05 -250.9 -72.1 -251.0 M-237.35 -298.6 L-235.8 -298.05 -233.85 -297.85 -233.2 -297.6 -232.85 -297.0 -232.75 -296.35 Q-232.7 -296.05 -232.8 -295.8 -233.1 -294.95 -234.6 -294.65 L-236.1 -294.55 -236.6 -293.65 -237.3 -292.35 -237.3 -292.4 -237.55 -291.9 -237.6 -291.9 -238.15 -291.7 -238.6 -291.75 -239.05 -291.85 -239.55 -292.25 -239.5 -292.25 Q-239.7 -292.5 -239.7 -293.75 -239.75 -295.35 -238.65 -298.05 L-238.6 -298.05 -238.1 -298.55 -238.05 -298.55 -237.35 -298.6" fill="#66ff66" fill-opacity="0.5294118" fill-rule="evenodd" stroke="none"/>
      <path d="M22.6 -230.45 Q22.95 -228.6 23.75 -226.45 24.65 -223.8 25.55 -222.75 L25.3 -222.25 24.05 -222.1 Q22.5 -222.1 21.05 -219.7 L19.1 -216.05 19.1 -213.65 21.0 -213.4 Q21.35 -211.4 21.8 -210.45 22.65 -208.8 25.95 -208.85 26.85 -208.05 26.85 -206.85 L24.6 -206.55 Q22.9 -206.55 21.55 -209.2 20.45 -211.35 20.45 -212.6 L18.45 -212.85 Q18.25 -213.25 18.25 -214.9 18.25 -216.35 21.3 -220.3 L24.3 -224.05 Q24.3 -224.95 23.4 -226.85 22.6 -228.7 22.2 -228.9 L19.8 -226.9 18.95 -227.6 20.45 -229.1 Q21.95 -230.45 22.6 -230.45 M-182.35 -417.0 Q-182.4 -418.05 -181.15 -418.65 -179.65 -419.5 -178.4 -418.1 L-180.95 -416.25 -181.85 -416.45 -182.6 -415.8 -183.0 -415.85 -183.45 -416.25 -182.35 -417.0 M-52.25 -382.9 L-52.3 -382.6 -52.45 -382.1 -53.2 -382.3 -53.95 -381.6 Q-55.3 -379.4 -56.2 -378.7 -57.95 -377.4 -60.2 -376.55 -62.55 -375.7 -67.4 -374.6 L-73.35 -374.05 Q-80.05 -374.8 -81.1 -376.45 L-84.8 -376.45 -87.3 -373.9 -89.15 -371.5 Q-89.15 -370.85 -88.05 -369.7 -87.0 -368.5 -87.0 -367.95 L-87.0 -367.65 -86.9 -366.7 Q-86.9 -366.0 -88.15 -364.4 L-88.5 -363.95 Q-89.1 -362.65 -89.4 -362.45 L-89.5 -362.15 Q-89.65 -362.05 -89.65 -362.7 -89.95 -362.45 -90.2 -362.3 L-90.3 -362.9 -88.9 -365.15 Q-88.2 -366.2 -88.2 -368.0 L-88.05 -369.1 -88.55 -369.7 Q-89.65 -370.85 -89.65 -371.5 -89.65 -372.0 -87.95 -374.15 L-85.35 -377.15 -80.7 -377.15 Q-80.4 -376.2 -79.3 -375.55 -77.95 -374.75 -76.0 -374.75 -58.25 -374.75 -55.4 -381.45 -54.95 -382.5 -53.85 -383.05 L-51.9 -384.35 -45.15 -382.65 -39.85 -381.15 -41.35 -381.05 -44.8 -381.6 -44.1 -380.6 -43.45 -380.75 -42.8 -381.05 Q-42.1 -380.9 -42.0 -380.5 L-42.6 -379.65 -43.2 -378.95 Q-43.45 -378.4 -43.25 -377.85 L-43.0 -377.4 Q-44.4 -377.4 -43.35 -377.3 L-44.65 -377.4 -44.25 -377.95 Q-43.85 -378.4 -43.85 -379.2 -43.85 -379.8 -44.25 -380.25 L-45.3 -381.75 -46.35 -382.1 Q-48.75 -382.9 -49.6 -383.45 L-50.9 -383.4 Q-51.65 -383.25 -52.25 -382.9 M-45.75 -337.25 Q-40.55 -337.8 -36.3 -340.2 -36.85 -339.15 -39.35 -338.4 -42.55 -337.45 -43.85 -336.6 L-46.3 -336.7 -46.3 -339.05 Q-49.8 -337.0 -52.7 -334.45 L-54.05 -333.15 -54.6 -332.45 -55.9 -330.1 Q-56.95 -328.1 -56.95 -327.15 L-56.75 -326.6 -56.3 -326.25 -56.0 -325.75 Q-55.25 -325.05 -55.25 -324.7 -55.25 -323.95 -56.85 -322.0 L-58.85 -319.45 -61.8 -319.45 -61.9 -320.1 -61.6 -320.65 Q-60.6 -320.7 -59.35 -321.4 L-58.75 -322.2 -56.5 -325.0 -56.75 -325.45 -58.05 -326.0 -57.8 -326.95 -58.05 -326.95 -58.35 -329.35 Q-58.35 -331.55 -52.4 -336.25 -50.9 -338.05 -49.25 -339.25 L-48.55 -339.4 -47.6 -339.8 -47.25 -339.75 Q-44.2 -341.45 -42.1 -341.25 L-45.8 -339.3 -45.75 -337.7 -45.75 -337.25 M-57.4 -326.7 L-57.45 -326.85 -57.5 -326.7 -57.4 -326.7 M-70.25 -252.2 Q-68.85 -251.95 -68.75 -251.55 -69.7 -249.5 -70.4 -248.45 -71.75 -246.5 -73.8 -247.4 L-72.8 -248.6 Q-71.8 -249.45 -70.65 -248.9 L-71.1 -251.1 Q-71.25 -252.55 -69.95 -253.45 L-70.25 -252.2 M-236.05 -297.1 L-233.85 -296.85 -233.75 -296.2 Q-233.95 -295.8 -234.8 -295.65 L-236.8 -295.75 Q-236.8 -295.25 -237.45 -294.15 L-238.25 -292.7 -238.65 -292.75 -238.7 -293.75 Q-238.7 -295.2 -237.7 -297.65 L-236.05 -297.1" fill="#ffffff" fill-rule="evenodd" stroke="none"/>
    </g>
  </defs>
</svg>
