<?xml version="1.0" encoding="UTF-8" standalone="no"?>
<svg xmlns:ffdec="https://www.free-decompiler.com/flash" xmlns:xlink="http://www.w3.org/1999/xlink" ffdec:objectType="frame" height="175.65px" width="527.25px" xmlns="http://www.w3.org/2000/svg">
  <g transform="matrix(1.0, 0.0, 0.0, 1.0, 336.85, 340.25)">
    <use ffdec:characterId="207" height="86.05" transform="matrix(1.0, 0.0, 0.0, 1.0, -336.85, -250.65)" width="527.25" xlink:href="#shape0"/>
    <clipPath id="clipPath0" transform="matrix(1.0, 0.0, 0.0, 1.0, 0.0, 0.0)">
      <path d="M173.7 -213.3 L173.8 -213.2 174.0 -212.95 174.05 -212.75 174.15 -212.55 174.45 -212.35 174.5 -212.15 174.55 -211.95 174.55 -211.75 175.0 -208.75 175.0 -207.9 175.05 -207.85 175.0 -207.45 175.0 -206.9 175.05 -206.9 175.0 -206.7 174.95 -206.65 174.8 -206.35 174.65 -205.95 174.1 -205.3 173.9 -205.05 173.65 -204.7 173.0 -204.05 172.9 -203.85 172.8 -203.65 171.5 -202.5 171.05 -202.05 170.9 -201.85 170.8 -201.65 170.55 -201.5 170.1 -201.25 168.4 -199.8 167.85 -199.3 167.75 -199.25 167.35 -199.1 167.3 -198.95 160.5 -195.5 160.45 -195.5 160.1 -195.3 158.7 -194.4 Q146.9 -190.2 134.6 -187.9 L134.3 -187.65 133.95 -187.5 Q108.2 -182.1 83.0 -177.55 72.15 -175.6 61.9 -175.85 82.9 -178.6 103.65 -182.15 L103.95 -182.35 104.45 -182.55 116.8 -184.95 116.95 -185.15 117.3 -185.35 Q136.7 -188.55 155.2 -194.6 157.15 -194.85 159.55 -196.1 L159.8 -196.2 159.9 -196.3 Q160.5 -196.6 161.1 -197.0 L163.1 -198.4 164.05 -198.9 164.45 -199.3 164.75 -199.55 166.75 -200.5 166.8 -200.5 169.65 -202.8 170.4 -203.55 Q171.95 -204.65 173.2 -206.1 L173.55 -206.5 173.75 -207.25 173.75 -207.3 173.85 -207.55 Q174.15 -208.35 174.15 -210.05 L173.9 -212.5 173.7 -213.3 M177.05 -198.6 L175.05 -197.65 174.85 -197.3 174.6 -196.9 169.15 -194.25 167.1 -193.65 Q162.85 -192.5 161.0 -191.45 L161.1 -191.7 Q164.1 -192.85 167.35 -194.55 L173.2 -196.95 172.95 -197.1 173.65 -197.3 173.95 -197.55 174.05 -197.75 174.3 -197.9 174.35 -197.9 Q175.85 -198.65 177.05 -199.95 L177.85 -200.75 Q178.1 -202.1 179.7 -202.15 L180.1 -202.35 180.75 -203.2 181.1 -203.65 181.2 -203.7 Q181.4 -203.1 181.1 -202.65 L180.1 -201.3 179.2 -200.9 179.2 -201.0 178.45 -200.4 178.0 -199.65 177.1 -198.8 177.05 -198.6 M183.4 -206.45 L182.8 -206.25 183.05 -206.95 183.5 -207.35 183.85 -207.45 183.4 -206.45 M22.05 -247.75 L22.75 -247.65 23.15 -247.45 23.15 -247.25 23.05 -247.15 22.8 -247.05 22.6 -247.05 Q21.55 -247.05 22.05 -247.65 L22.05 -247.75 M40.4 -244.9 L40.5 -244.95 41.0 -245.05 Q41.35 -245.1 41.55 -245.3 L42.15 -245.2 43.95 -244.8 44.2 -244.55 44.4 -244.45 55.25 -243.5 58.15 -243.45 58.6 -243.2 64.45 -242.1 64.3 -242.05 63.75 -242.0 63.4 -242.05 63.3 -242.15 61.25 -242.3 61.1 -242.35 59.25 -242.55 57.65 -242.55 Q56.15 -242.55 54.95 -243.05 L46.8 -243.85 46.1 -243.8 43.6 -243.85 43.5 -244.05 43.5 -244.1 39.65 -244.4 Q37.3 -244.6 37.8 -245.25 L40.4 -244.9 M32.1 -243.4 L43.4 -242.15 63.85 -240.75 63.95 -240.6 76.6 -239.05 94.9 -236.95 95.7 -236.5 Q101.9 -236.65 111.15 -233.6 L120.75 -230.3 Q125.85 -228.7 128.75 -228.7 130.7 -228.7 138.55 -225.05 145.4 -221.9 147.5 -220.55 147.5 -220.1 146.95 -220.0 L138.6 -223.05 128.25 -226.15 Q127.35 -226.45 124.7 -227.65 L120.45 -229.65 114.5 -231.35 110.3 -232.3 Q107.1 -232.3 99.95 -233.65 L92.6 -235.25 91.95 -235.45 Q91.3 -235.65 91.3 -235.95 L91.8 -236.05 89.0 -236.2 85.15 -236.6 81.4 -236.8 80.45 -237.05 Q79.5 -237.3 79.5 -237.6 L79.85 -237.6 76.55 -238.05 64.75 -239.75 63.85 -239.65 61.75 -239.8 52.8 -240.2 51.95 -241.0 45.25 -240.8 41.25 -240.6 Q38.55 -240.6 36.9 -241.45 34.8 -242.55 31.9 -243.0 L32.1 -243.4 M27.55 -243.0 L27.25 -242.85 17.65 -243.3 16.95 -243.45 Q16.25 -243.7 16.25 -243.95 L25.85 -243.95 Q25.95 -243.85 26.75 -243.5 L27.55 -243.0 M25.3 -245.85 L25.2 -245.75 22.1 -245.75 21.95 -245.7 21.3 -245.8 21.2 -245.85 20.65 -246.0 19.7 -246.25 19.85 -246.3 20.65 -246.35 23.25 -246.1 25.3 -245.85 M13.95 -243.55 L8.35 -244.25 8.3 -244.25 4.3 -244.45 3.2 -244.7 -24.9 -245.7 -42.6 -246.3 -42.65 -246.45 -43.6 -246.95 -43.65 -247.1 -43.4 -247.15 -39.1 -246.8 -32.0 -247.2 -31.6 -247.35 -6.0 -246.5 Q4.6 -246.35 14.2 -243.6 L13.95 -243.55 M19.1 -223.2 L20.65 -222.2 21.65 -221.2 25.25 -218.95 25.6 -218.25 26.2 -218.0 26.3 -216.95 Q26.3 -215.9 25.5 -214.7 L25.2 -214.25 23.25 -212.25 23.15 -212.15 Q22.4 -210.55 19.65 -208.95 L9.65 -205.55 -6.4 -203.8 -14.95 -202.75 -52.5 -201.3 Q-105.75 -201.6 -106.3 -202.1 L-109.9 -202.65 -110.3 -202.5 -127.45 -202.5 Q-138.0 -203.25 -142.35 -204.6 L-147.5 -206.3 -147.7 -206.55 Q-164.75 -210.15 -167.3 -211.55 -168.75 -212.3 -169.1 -213.55 L-169.95 -214.85 -170.45 -216.0 -170.45 -216.05 -170.5 -216.1 -170.7 -218.35 Q-170.7 -220.15 -166.5 -222.55 -163.2 -224.5 -160.7 -224.45 L-157.95 -225.9 -157.75 -225.95 -157.25 -226.0 -152.7 -227.35 -146.55 -227.5 -139.6 -228.85 Q-126.7 -231.35 -118.9 -231.35 L-96.35 -230.65 -95.75 -230.8 -85.7 -231.9 -85.7 -232.4 -69.3 -231.5 -64.8 -230.8 -64.8 -230.85 Q-50.65 -232.25 -26.75 -231.65 -18.6 -231.1 -18.1 -230.6 -6.65 -227.6 3.9 -225.8 L16.45 -223.8 19.1 -223.2 M1.0 -238.8 L-19.35 -239.55 -22.45 -239.6 -26.45 -239.75 -29.45 -239.35 -53.25 -239.55 -55.1 -239.95 -56.9 -240.35 -59.15 -240.5 -61.6 -240.9 -76.0 -239.6 -86.25 -238.75 -97.85 -239.1 -112.45 -239.9 -112.55 -239.95 -125.85 -239.35 -131.3 -238.8 -133.9 -238.35 -145.7 -237.1 -153.7 -236.25 -159.05 -235.8 -175.65 -234.65 -179.85 -234.05 -182.5 -233.35 Q-183.75 -232.85 -184.25 -232.85 L-194.7 -232.55 -195.8 -232.6 -206.85 -230.75 -216.0 -228.15 Q-221.4 -226.35 -224.95 -225.5 L-233.8 -223.05 Q-236.15 -222.15 -238.15 -221.1 -245.4 -217.35 -245.4 -212.85 -245.4 -211.25 -243.85 -209.55 -242.3 -207.9 -240.2 -207.1 L-240.6 -206.95 -237.95 -205.75 Q-230.9 -202.65 -225.5 -201.5 -222.6 -200.85 -221.8 -200.35 L-220.95 -199.9 -203.25 -199.1 Q-202.8 -199.1 -199.7 -198.0 L-196.45 -196.8 Q-185.3 -193.55 -180.4 -192.55 L-174.45 -192.0 -172.9 -191.9 -164.45 -192.75 -163.4 -192.35 -156.6 -191.65 -155.9 -191.5 -149.35 -191.1 -147.6 -190.95 Q-144.8 -189.6 -141.9 -189.6 L-136.4 -189.75 -136.3 -189.75 -124.45 -188.5 -124.3 -188.65 -113.2 -188.35 -109.5 -188.0 -109.0 -187.6 -93.05 -187.1 -90.3 -186.65 -69.6 -186.75 -57.65 -187.5 -48.7 -187.6 -39.2 -188.7 -29.55 -189.2 Q-27.85 -188.9 -14.7 -189.15 L-0.85 -189.45 13.0 -190.45 19.8 -191.6 31.35 -192.15 33.0 -192.2 33.0 -192.35 Q33.0 -193.15 33.2 -193.1 L33.65 -192.95 Q54.1 -194.6 65.4 -197.5 L72.8 -199.7 79.75 -201.35 Q84.85 -202.15 92.2 -206.55 99.55 -210.9 99.55 -213.1 99.55 -218.95 86.8 -223.1 71.25 -227.2 65.55 -230.0 L67.45 -230.45 67.3 -230.55 Q55.5 -231.1 41.6 -233.6 28.35 -236.05 20.65 -236.25 14.0 -236.65 11.9 -237.85 10.3 -238.8 1.0 -238.8 M17.15 -238.2 Q26.2 -237.35 43.05 -234.6 59.15 -231.9 70.65 -231.0 L70.9 -230.75 Q78.7 -230.8 88.65 -225.25 94.25 -222.15 97.85 -218.55 101.6 -214.85 101.6 -212.2 101.6 -203.9 84.45 -199.1 73.65 -196.05 40.45 -191.45 39.8 -189.95 27.2 -189.1 L0.45 -187.65 -22.4 -186.95 -43.35 -185.05 -49.05 -185.35 -54.0 -185.9 Q-59.65 -186.05 -63.05 -185.8 L-69.6 -185.1 -90.85 -185.35 -98.55 -186.05 -109.9 -186.65 -119.95 -186.95 -122.85 -186.6 -127.25 -186.2 -127.75 -186.2 -136.85 -187.7 Q-141.85 -188.3 -146.05 -187.6 L-147.95 -188.3 -153.45 -189.05 -160.35 -189.85 -169.95 -190.4 -172.75 -190.55 -175.75 -190.9 -178.35 -191.05 -181.15 -191.45 -189.35 -193.2 Q-194.45 -194.45 -195.5 -195.0 L-197.7 -195.75 -200.2 -196.55 Q-201.9 -197.35 -208.65 -197.6 -215.1 -197.85 -216.0 -198.55 -227.5 -200.55 -237.35 -204.35 -248.05 -208.5 -248.05 -211.75 -248.05 -213.4 -247.45 -214.9 -247.1 -219.05 -241.0 -222.55 -234.3 -226.35 -223.95 -227.1 L-218.85 -228.75 Q-212.25 -230.9 -205.7 -232.15 L-196.1 -233.5 Q-193.85 -234.7 -186.9 -235.65 L-174.05 -236.6 Q-166.9 -236.65 -157.5 -238.35 -148.85 -239.85 -144.85 -239.65 L-144.4 -239.2 -144.2 -239.05 -142.3 -239.3 -135.5 -239.9 -135.15 -239.7 -125.3 -240.75 -125.3 -241.0 -112.15 -240.8 -107.8 -241.55 -102.0 -242.0 Q-97.3 -242.9 -88.0 -241.85 L-78.7 -240.6 Q-74.1 -240.6 -72.05 -241.35 L-69.6 -242.1 -60.5 -241.7 -55.1 -241.15 Q-52.7 -240.85 -52.45 -240.6 L-29.95 -240.75 -29.45 -241.0 -25.75 -241.0 -25.15 -241.05 -18.05 -240.9 3.5 -239.8 17.15 -238.2 M15.6 -211.2 Q17.85 -211.65 19.95 -213.15 22.55 -215.0 22.55 -216.15 22.55 -216.85 21.6 -218.1 20.45 -219.55 19.25 -219.55 L19.0 -219.5 Q13.8 -221.95 2.95 -224.3 L-20.3 -229.0 -24.4 -229.35 -28.85 -230.05 Q-58.9 -230.45 -59.95 -229.8 L-62.35 -230.0 -62.65 -230.05 -72.1 -230.05 -85.7 -229.25 -91.35 -229.5 -96.25 -229.95 -119.7 -228.65 Q-130.9 -227.6 -134.85 -226.2 L-137.15 -225.85 -149.3 -224.25 Q-157.95 -223.6 -161.65 -222.25 L-163.7 -221.2 -164.15 -221.15 Q-165.0 -220.55 -166.1 -218.55 L-167.15 -215.9 Q-166.0 -214.6 -162.6 -212.85 L-158.05 -210.55 -141.6 -206.7 -113.2 -205.65 -109.2 -204.45 Q-107.25 -203.85 -104.7 -203.8 L-53.55 -204.05 -41.2 -204.55 -15.75 -204.85 Q6.05 -208.25 11.55 -209.75 13.95 -210.4 15.6 -211.2 M80.8 -241.9 L80.9 -242.05 82.55 -242.1 Q84.45 -242.4 85.6 -241.4 90.0 -241.4 94.25 -240.4 L99.4 -239.85 99.4 -239.8 99.75 -239.6 100.0 -239.45 100.2 -239.3 103.2 -239.05 105.35 -238.75 106.45 -238.55 106.6 -238.4 106.75 -238.15 106.7 -238.05 104.2 -238.4 99.65 -239.05 99.5 -239.2 99.45 -239.2 99.1 -239.4 99.0 -239.5 97.2 -239.45 97.1 -239.4 Q96.7 -239.15 96.55 -239.5 L96.5 -239.6 95.3 -239.7 95.0 -239.95 94.9 -240.05 Q92.75 -240.95 90.45 -240.8 L85.35 -241.05 85.3 -241.15 81.05 -241.65 80.65 -241.75 80.8 -241.9 M80.8 -240.6 L80.75 -240.65 81.2 -240.75 81.7 -240.8 81.7 -240.85 88.25 -240.2 91.45 -239.65 91.75 -239.5 92.1 -239.45 95.6 -239.1 102.05 -237.95 102.15 -237.85 Q103.4 -237.4 104.8 -237.3 L104.95 -237.15 104.95 -237.1 105.5 -236.8 118.8 -234.6 125.5 -233.6 125.6 -233.4 125.65 -233.25 126.2 -233.1 126.3 -233.0 118.55 -234.05 110.75 -235.35 109.4 -235.75 Q106.8 -235.95 104.55 -236.85 L104.55 -236.9 103.55 -237.0 101.95 -237.2 101.7 -237.4 101.55 -237.55 99.8 -237.55 Q98.15 -237.3 97.1 -238.1 95.05 -238.9 92.7 -239.05 L92.6 -239.05 92.55 -239.05 91.4 -239.0 91.4 -239.05 90.15 -239.1 89.85 -239.2 82.05 -240.2 82.4 -240.05 78.5 -240.3 73.05 -241.2 68.05 -242.05 74.05 -241.5 78.95 -240.9 80.8 -240.6 M63.6 -244.0 L58.0 -244.4 56.1 -244.65 55.85 -244.8 55.9 -244.9 56.0 -244.95 58.1 -245.05 61.65 -244.5 63.6 -244.0 M47.3 -245.25 L41.35 -246.3 45.55 -246.15 Q47.05 -246.2 48.1 -245.4 L47.3 -245.25 M112.4 -237.4 L112.4 -237.35 115.8 -237.2 115.9 -237.1 117.9 -236.5 118.15 -236.45 120.65 -236.05 120.95 -235.95 121.1 -235.8 121.05 -235.6 120.95 -235.45 120.45 -235.35 120.35 -235.5 Q119.35 -236.15 117.8 -236.0 L117.6 -236.1 117.4 -236.25 115.65 -236.85 115.6 -236.9 112.15 -237.05 112.1 -237.15 109.7 -237.65 109.75 -237.7 109.85 -237.8 111.75 -237.6 112.4 -237.4 M143.0 -228.35 L139.65 -229.0 139.3 -229.2 Q137.9 -229.25 136.75 -229.9 L136.35 -230.2 Q134.35 -231.1 132.25 -231.45 L130.05 -232.05 130.2 -232.1 130.75 -232.15 130.75 -232.2 Q140.7 -229.85 150.45 -226.55 155.1 -224.95 159.25 -222.7 L159.4 -222.5 159.6 -222.35 160.25 -222.15 160.35 -222.1 159.55 -222.2 159.05 -222.4 Q158.4 -222.3 158.25 -222.65 L157.95 -222.9 157.5 -223.1 157.05 -223.4 156.35 -223.65 156.25 -223.7 155.8 -223.8 Q153.1 -225.25 150.0 -225.9 L145.0 -227.1 144.8 -227.3 144.75 -227.45 144.2 -227.65 143.45 -228.05 143.15 -228.25 143.0 -228.35 M143.65 -231.45 L141.95 -231.4 140.5 -231.6 Q139.1 -231.75 139.3 -232.4 L143.65 -231.45 M155.7 -227.7 L155.25 -227.95 154.3 -228.05 154.1 -228.25 152.0 -228.65 151.85 -228.8 155.5 -228.35 Q155.95 -228.0 156.5 -227.8 157.05 -227.5 157.7 -227.35 L159.4 -226.65 160.05 -226.5 160.55 -226.1 160.7 -225.9 160.55 -225.75 159.3 -226.3 159.2 -226.35 157.45 -226.75 Q156.75 -227.45 155.8 -227.65 L155.7 -227.7 M137.15 -233.0 L137.55 -232.95 139.1 -232.65 139.2 -232.55 139.05 -232.45 138.45 -232.25 138.25 -232.1 138.05 -232.25 137.4 -232.5 Q136.75 -232.7 137.15 -233.0 M154.75 -212.05 Q155.3 -211.1 155.3 -210.35 155.3 -206.05 149.05 -201.45 144.3 -198.05 142.0 -197.6 L141.45 -197.35 Q139.1 -195.7 134.0 -194.45 L128.45 -193.3 126.1 -192.65 120.05 -191.2 119.4 -190.6 Q103.0 -187.5 97.95 -185.65 94.7 -184.45 84.95 -183.25 L64.75 -180.7 57.8 -180.15 53.45 -179.6 48.7 -179.15 45.3 -178.75 43.35 -178.45 38.6 -178.85 36.35 -179.0 35.65 -179.2 34.95 -179.6 39.45 -179.4 49.4 -180.3 65.3 -181.8 82.1 -184.6 97.95 -187.6 109.05 -190.1 111.5 -190.6 111.65 -190.85 121.0 -193.05 Q124.15 -194.5 129.35 -196.35 L137.85 -198.95 Q140.05 -200.3 143.3 -201.7 L150.35 -204.8 150.8 -205.3 Q155.05 -209.6 153.45 -213.15 L153.75 -213.3 154.75 -212.05 M153.9 -189.9 L154.5 -189.9 157.05 -190.4 156.7 -190.15 151.7 -188.6 148.5 -187.85 Q146.7 -187.2 145.75 -186.6 L129.0 -182.6 129.45 -182.85 Q133.65 -183.85 135.55 -184.95 144.75 -187.2 153.9 -189.9 M124.25 -181.35 L103.5 -177.7 98.55 -177.55 98.55 -177.6 115.3 -180.5 117.8 -180.5 119.55 -180.9 124.7 -181.5 124.25 -181.35 M90.0 -177.05 L91.1 -176.7 91.05 -176.5 Q87.05 -174.6 82.3 -175.25 L82.35 -175.45 Q86.2 -175.8 89.95 -176.95 L90.0 -177.05 M52.5 -175.45 Q55.25 -174.6 56.25 -175.95 L56.8 -175.7 56.8 -175.45 Q54.85 -174.45 52.5 -174.45 L51.2 -174.6 51.15 -174.75 51.4 -174.9 52.2 -175.2 52.5 -175.45 M29.45 -177.65 L19.85 -176.95 18.5 -176.7 18.2 -176.5 8.85 -176.8 8.85 -176.9 9.1 -177.0 18.2 -177.65 19.55 -177.95 19.85 -178.1 29.6 -177.85 29.75 -177.7 29.45 -177.65 M26.25 -173.95 L26.9 -173.65 27.05 -173.45 26.8 -173.35 23.85 -172.9 23.3 -172.5 23.0 -172.3 Q20.05 -171.6 17.95 -172.65 L18.25 -172.7 Q19.35 -172.95 20.35 -173.45 L22.6 -173.8 23.05 -173.95 26.25 -173.95 M-329.35 -211.6 L-329.35 -211.75 -328.8 -212.15 -328.75 -212.35 -328.65 -212.6 -327.75 -213.2 -327.6 -213.4 -327.7 -213.8 -327.7 -214.0 -326.7 -215.2 -325.9 -215.7 Q-325.9 -215.15 -326.5 -214.7 L-327.2 -214.1 -327.2 -213.7 -327.2 -213.5 -327.2 -213.3 -327.5 -212.9 -327.65 -212.7 -328.25 -212.45 -328.5 -212.05 -328.6 -211.85 -328.85 -211.65 -329.05 -211.45 Q-329.15 -210.9 -329.45 -210.45 L-329.85 -209.65 -329.85 -209.05 -329.85 -208.65 -329.85 -208.4 Q-330.3 -208.3 -330.2 -208.95 L-330.15 -209.75 -329.95 -210.2 -329.85 -210.55 -329.65 -211.0 -329.6 -211.15 -329.35 -211.6 M-328.6 -204.75 L-328.55 -204.35 -328.5 -204.15 -327.6 -202.95 -327.2 -202.55 Q-326.85 -201.7 -325.95 -201.25 L-325.4 -201.0 -324.95 -200.4 -324.75 -200.2 -324.25 -200.0 -324.1 -199.8 -323.95 -199.6 Q-323.2 -199.3 -322.7 -198.6 L-324.25 -199.25 -325.3 -200.4 -325.6 -200.7 -326.3 -200.85 -326.65 -201.05 -327.3 -201.9 -327.45 -202.05 -328.3 -203.35 -328.8 -203.85 -328.75 -204.45 -328.65 -204.75 -328.6 -204.75 M-116.5 -249.0 L-116.25 -249.1 -111.7 -249.0 -108.5 -249.3 -107.95 -249.3 -103.35 -249.0 -101.9 -248.75 -102.05 -248.75 -103.25 -248.75 -107.95 -248.75 -108.5 -248.65 -124.85 -248.05 -128.85 -248.0 -128.8 -247.85 -135.5 -247.5 -139.55 -247.6 -135.4 -247.85 -131.75 -248.35 -131.75 -248.4 -129.25 -248.15 -116.7 -248.9 -116.5 -249.0 M-118.5 -249.7 L-118.4 -249.75 -115.7 -249.85 -115.35 -250.0 -115.15 -250.1 -114.75 -250.2 -114.65 -250.25 -114.65 -250.3 -113.5 -250.25 -109.1 -249.95 -108.95 -249.85 Q-109.05 -249.75 -109.2 -249.75 L-113.4 -249.7 -115.2 -249.5 -115.45 -249.45 -115.7 -249.45 -118.5 -249.65 -118.5 -249.7 M-99.35 -248.0 L-98.95 -247.75 -98.85 -247.6 -98.05 -247.45 -97.4 -247.25 Q-74.3 -247.9 -51.4 -248.0 L-48.2 -247.6 Q-46.75 -247.55 -45.8 -246.8 L-47.15 -246.65 -50.6 -246.55 -50.9 -246.75 -51.4 -246.95 Q-92.95 -246.85 -135.0 -244.85 L-144.9 -245.5 -111.3 -246.85 -113.3 -247.1 -101.25 -248.15 -99.35 -248.0 M-96.55 -249.15 L-77.95 -249.85 Q-72.3 -249.8 -66.7 -249.9 L-65.1 -249.75 Q-64.35 -249.7 -63.75 -249.35 -57.1 -249.7 -50.55 -249.15 -62.0 -248.85 -74.05 -249.05 L-93.35 -249.15 -96.55 -249.15 M-139.3 -248.7 L-137.05 -248.85 -137.0 -248.75 -136.75 -248.85 -136.6 -248.95 -134.45 -249.2 -133.9 -249.25 -133.9 -249.3 -132.65 -249.3 -130.05 -249.05 -130.15 -248.95 Q-130.35 -248.9 -130.5 -248.8 L-130.55 -248.7 Q-133.95 -248.95 -137.25 -248.6 L-139.05 -248.55 -139.35 -248.5 -139.3 -248.7 M-148.65 -245.2 L-165.55 -243.85 -178.4 -242.65 -178.65 -242.4 -178.9 -242.25 -207.3 -239.5 -231.45 -237.0 -231.7 -237.3 -225.45 -238.8 Q-219.7 -239.95 -213.6 -239.9 L-209.45 -240.1 -209.25 -240.35 Q-209.1 -240.45 -208.9 -240.5 L-208.0 -240.85 -207.3 -241.2 -206.0 -241.55 -205.15 -241.85 -178.35 -243.1 -153.75 -245.6 -148.8 -245.35 -148.65 -245.2 M-82.35 -217.3 L-82.95 -217.7 Q-83.25 -218.0 -83.25 -218.9 -83.25 -220.1 -79.6 -220.85 -76.0 -221.65 -74.85 -220.85 L-72.5 -220.25 -70.85 -220.15 -70.7 -220.3 -63.45 -219.7 -63.0 -219.55 -62.9 -218.65 Q-62.9 -217.2 -65.25 -216.2 -67.25 -215.35 -69.35 -215.35 -73.4 -215.35 -75.55 -216.1 L-76.75 -216.15 -77.05 -216.75 -77.55 -216.95 -81.65 -217.25 -81.75 -217.5 -82.35 -217.3 M-30.5 -248.95 L-30.3 -249.0 -30.25 -249.05 -9.5 -248.35 7.9 -247.15 -6.95 -247.85 -32.35 -248.65 -30.5 -248.95 M-35.05 -248.85 L-35.0 -248.75 -39.6 -248.65 -35.9 -248.95 -35.05 -248.85 M-25.0 -250.25 L-24.9 -250.3 -24.9 -250.35 -12.25 -249.45 -5.35 -249.3 -4.85 -249.15 -21.25 -249.8 Q-24.35 -250.15 -27.65 -249.65 L-27.65 -249.75 -26.85 -250.0 -26.7 -250.0 -25.0 -250.25 M-67.25 -218.35 Q-72.8 -220.1 -77.55 -218.25 L-77.05 -217.8 -77.0 -217.8 -76.35 -217.25 -75.45 -216.95 -73.0 -217.0 Q-70.15 -217.25 -69.05 -217.8 L-66.55 -218.1 -67.25 -218.35 M-293.8 -228.35 L-291.15 -228.8 -290.85 -228.85 -290.7 -228.9 -290.8 -228.45 -291.3 -228.35 -290.75 -228.25 -290.6 -228.1 -290.85 -228.05 -292.05 -228.2 -293.8 -228.2 -293.8 -228.35 M-300.95 -225.05 L-300.75 -224.85 -306.4 -222.7 Q-307.9 -222.1 -308.8 -221.1 L-311.3 -220.1 Q-312.25 -219.75 -312.55 -219.0 L-313.85 -218.25 -314.3 -217.65 Q-314.0 -216.55 -315.15 -215.9 L-316.85 -214.55 -317.1 -214.45 -317.75 -214.15 -318.45 -213.4 -319.4 -212.55 -319.55 -212.15 -319.65 -211.35 -319.7 -210.95 -320.2 -210.15 -320.2 -209.75 -320.2 -208.95 -320.3 -208.15 -320.1 -207.7 -319.8 -206.9 Q-318.45 -205.7 -317.65 -204.1 -316.9 -202.45 -315.5 -201.3 L-315.1 -200.9 Q-314.2 -200.9 -313.8 -200.5 -313.35 -200.1 -312.7 -199.95 L-310.3 -198.2 Q-308.9 -197.3 -307.35 -196.75 -303.45 -194.1 -298.95 -193.15 -296.7 -192.7 -294.85 -191.65 -301.0 -192.5 -306.55 -195.6 L-309.85 -197.0 -310.15 -197.4 -310.55 -197.7 -310.7 -197.8 -311.5 -198.1 -311.8 -198.45 -312.15 -198.75 -312.3 -198.9 -313.1 -199.4 -315.75 -200.1 -316.55 -200.9 -317.35 -201.7 -317.5 -202.1 -317.65 -202.5 -319.4 -204.4 -320.85 -206.1 -320.95 -206.5 -321.4 -207.3 -321.5 -208.55 -321.5 -209.35 -321.5 -210.15 -321.5 -210.95 -321.45 -211.3 -321.05 -212.2 -321.0 -212.55 Q-320.0 -214.1 -318.05 -215.0 -316.4 -215.75 -315.35 -217.1 L-315.65 -217.55 -315.65 -218.15 -315.5 -218.3 -314.85 -218.65 -314.15 -219.25 -311.7 -220.35 -309.5 -221.7 -309.35 -221.9 -305.1 -224.05 -302.1 -225.25 -300.95 -225.05 M-285.2 -224.25 L-290.6 -221.35 Q-295.85 -218.4 -296.55 -217.7 L-297.8 -215.6 -298.95 -213.7 Q-300.55 -212.45 -300.85 -211.45 L-300.95 -209.85 Q-300.95 -205.8 -296.25 -203.2 L-282.15 -196.8 Q-277.55 -194.65 -264.65 -191.55 -252.0 -188.5 -248.15 -188.5 -245.5 -188.5 -241.6 -187.35 -236.25 -185.8 -230.2 -184.9 L-214.35 -182.95 -201.85 -181.25 -191.0 -180.25 -190.45 -180.1 -190.35 -180.15 -190.25 -180.2 -190.2 -180.15 -188.0 -180.0 -186.45 -179.85 -185.5 -179.7 -185.4 -179.75 Q-184.15 -180.25 -177.0 -179.55 -171.45 -178.55 -167.2 -178.65 L-159.6 -179.0 -157.95 -178.7 Q-157.35 -178.45 -157.2 -178.2 L-154.45 -177.85 -151.55 -177.4 -146.55 -176.7 -143.55 -176.2 -138.45 -176.7 -133.35 -177.2 -121.45 -176.5 -114.75 -175.75 -114.6 -175.9 -108.8 -175.3 -108.65 -175.45 -101.55 -174.55 -88.1 -173.9 -74.7 -174.7 -69.4 -175.75 -64.0 -175.5 -60.35 -175.1 -51.95 -176.3 Q-48.25 -177.05 -40.4 -175.45 -17.75 -175.55 -17.1 -176.05 L-13.1 -176.25 -7.45 -176.6 -0.55 -176.6 Q0.6 -176.3 0.75 -176.05 L-3.5 -175.85 -8.55 -175.75 -12.8 -175.4 -17.65 -174.65 -29.1 -174.2 Q-34.1 -174.0 -41.35 -174.2 L-45.75 -173.9 -48.85 -173.95 Q-50.1 -174.15 -50.15 -174.55 -50.1 -174.15 -49.25 -173.95 L-58.9 -174.05 -63.15 -174.55 -65.85 -175.1 -72.45 -174.3 Q-77.9 -173.5 -78.2 -173.1 L-81.4 -173.1 -95.25 -173.65 -96.75 -173.8 -98.55 -174.2 -105.05 -174.5 -107.15 -174.8 -107.2 -174.8 -108.65 -174.65 -113.05 -174.85 -119.8 -174.55 -127.25 -174.45 -143.55 -175.1 Q-150.8 -175.1 -152.65 -176.6 L-161.25 -176.05 -166.55 -176.35 -171.05 -176.85 -173.3 -177.05 -175.75 -177.4 -182.3 -178.35 -185.3 -178.7 -186.55 -178.9 -186.45 -179.0 -187.95 -179.05 -189.05 -179.0 -202.6 -180.15 Q-206.9 -181.35 -222.8 -182.85 L-242.65 -185.1 Q-243.6 -185.3 -245.95 -186.45 -248.65 -187.6 -252.55 -187.85 -255.8 -188.1 -259.3 -189.45 L-264.85 -191.4 Q-274.05 -193.45 -279.1 -194.85 -285.65 -196.7 -289.75 -198.65 -291.3 -199.4 -294.85 -200.0 -297.05 -200.4 -299.8 -203.0 -300.35 -203.55 -301.3 -205.5 -302.25 -207.4 -302.25 -208.0 -302.25 -210.9 -301.55 -212.45 L-298.75 -217.45 Q-297.8 -219.35 -293.4 -221.85 -288.6 -224.55 -285.35 -224.5 L-285.2 -224.25 M-311.25 -224.6 L-310.7 -224.5 -310.6 -224.4 -312.85 -223.45 -314.0 -223.1 -314.3 -222.9 -314.5 -222.75 -315.3 -222.45 -316.15 -222.0 -316.35 -221.8 -316.5 -221.6 -317.65 -221.0 -318.25 -220.6 -318.3 -220.4 -318.45 -220.2 Q-318.95 -219.85 -319.55 -219.6 L-320.25 -219.35 -320.65 -219.45 -320.65 -219.75 -319.6 -220.4 -319.05 -220.6 -318.8 -220.85 -318.65 -221.2 -313.4 -223.85 -311.25 -224.6 M-244.65 -238.55 Q-255.85 -235.9 -267.9 -233.65 L-274.2 -232.6 -277.2 -231.85 Q-272.7 -235.2 -265.15 -235.35 -261.05 -235.45 -257.2 -236.45 L-250.0 -237.95 Q-247.95 -238.3 -246.4 -238.8 L-245.35 -238.7 -244.65 -238.55 M-260.1 -230.55 Q-272.4 -229.9 -277.85 -226.15 L-277.75 -226.0 -280.25 -225.45 -280.7 -225.25 -282.0 -225.5 -282.05 -225.65 -280.6 -226.1 Q-280.0 -226.35 -279.55 -226.65 L-279.35 -226.85 Q-277.45 -227.05 -275.85 -228.0 L-275.2 -228.35 Q-273.3 -229.2 -271.7 -230.5 L-271.6 -230.6 -271.55 -230.6 -264.85 -231.65 -263.5 -231.65 Q-259.45 -231.65 -257.05 -233.4 L-244.65 -236.05 -235.15 -237.2 -234.0 -236.9 -233.8 -236.65 -233.9 -236.6 -236.7 -236.6 -236.7 -236.25 Q-242.6 -235.65 -245.7 -234.7 L-247.85 -233.75 Q-251.0 -233.4 -254.05 -232.5 L-260.1 -230.55 M-205.45 -244.15 L-210.0 -243.9 -210.9 -243.6 -211.5 -243.75 -211.5 -243.8 -211.35 -243.85 -210.75 -244.0 -210.55 -244.25 -210.45 -244.4 -209.25 -244.7 -209.2 -244.75 -208.65 -244.6 -208.5 -244.35 -205.45 -244.25 -205.45 -244.15 M-210.75 -242.4 Q-209.95 -243.4 -208.35 -243.45 L-189.5 -244.4 Q-189.75 -244.0 -190.05 -243.95 L-197.6 -243.5 Q-204.3 -243.95 -209.95 -241.9 L-210.7 -242.15 -210.75 -242.4 M-216.4 -241.25 L-215.05 -240.95 -226.55 -240.35 Q-226.95 -240.35 -227.2 -240.55 L-227.1 -240.8 -226.8 -241.0 -220.7 -241.45 -216.4 -241.25 M-229.8 -240.8 Q-228.4 -241.1 -229.1 -240.4 -230.35 -239.2 -229.95 -240.5 L-229.8 -240.8 M-169.95 -246.9 L-174.45 -246.6 -174.9 -246.5 -175.8 -246.7 -176.45 -247.05 -172.5 -247.45 -170.9 -247.3 Q-170.25 -247.3 -169.95 -246.9 M-171.95 -245.3 L-173.3 -245.45 -173.0 -245.6 -172.25 -245.9 -171.95 -246.15 -167.1 -246.2 -167.1 -246.25 -165.5 -246.15 -162.55 -245.75 -171.95 -245.3 M-196.85 -245.2 L-196.7 -245.1 Q-195.0 -245.4 -193.35 -245.1 L-193.3 -245.0 -197.3 -244.8 -197.35 -244.8 -197.95 -244.7 -198.9 -244.9 -197.9 -245.15 -197.7 -245.2 -197.15 -245.25 -197.15 -245.3 -196.85 -245.2 M-173.0 -173.6 L-171.7 -173.4 Q-161.95 -172.95 -152.1 -172.9 L-151.45 -172.7 -151.15 -172.5 -151.05 -172.5 Q-149.0 -172.8 -147.15 -172.1 L-147.35 -171.85 -148.9 -171.5 -151.0 -171.6 Q-151.5 -171.7 -152.0 -171.95 -157.45 -171.85 -162.75 -172.0 -167.95 -171.4 -173.05 -172.2 L-174.55 -172.6 -183.05 -173.45 -188.8 -174.0 -189.9 -174.4 -192.5 -175.15 -192.5 -175.3 -192.3 -175.45 -189.45 -175.3 -189.3 -175.15 -188.45 -174.7 -188.25 -174.5 -183.2 -174.5 -182.55 -174.3 -182.25 -174.1 -173.0 -173.5 -173.0 -173.6 M-197.4 -175.05 Q-201.15 -174.95 -204.85 -175.8 -205.7 -176.0 -206.35 -176.45 L-206.2 -176.5 -201.1 -175.7 -197.4 -175.05 M-183.05 -171.4 L-183.3 -171.15 -183.5 -171.05 -185.7 -170.95 -189.0 -171.3 -189.2 -171.5 -189.4 -171.65 -190.2 -171.85 -190.6 -172.05 -190.55 -172.1 -190.2 -172.15 -189.15 -171.95 -188.4 -171.7 -186.45 -171.9 -185.2 -171.6 -183.85 -171.5 -183.1 -171.55 -183.05 -171.4 M-172.05 -169.85 Q-175.5 -170.0 -178.05 -171.0 L-177.9 -170.95 -171.6 -170.7 Q-166.95 -170.85 -162.8 -169.75 L-172.05 -169.85 M-240.75 -177.25 Q-243.05 -176.6 -245.6 -177.2 L-245.7 -177.3 -246.05 -177.45 -247.15 -177.95 -247.3 -178.15 -247.25 -178.2 -246.95 -178.25 -246.7 -178.2 -245.6 -178.0 -245.45 -177.8 -245.25 -177.65 -241.4 -177.45 -240.75 -177.25 M-219.4 -177.25 Q-231.65 -178.15 -243.1 -180.1 L-249.35 -180.65 -249.7 -181.1 -250.15 -181.75 -251.85 -182.8 -251.75 -182.95 -250.4 -182.6 -249.45 -182.4 -248.8 -182.0 -223.8 -177.85 -219.4 -177.25 M-259.65 -183.15 L-262.75 -183.5 -262.9 -183.75 -263.0 -183.85 -263.75 -184.25 -263.8 -184.4 -267.0 -185.0 -269.55 -185.55 -269.45 -185.65 -262.3 -184.65 -259.1 -184.0 -258.7 -183.65 -258.3 -183.35 -253.35 -183.1 -252.7 -182.8 -252.25 -182.6 -251.65 -182.2 -251.5 -182.0 -252.5 -182.2 -259.0 -182.4 -259.4 -182.8 -259.65 -183.1 -259.65 -183.15 M-260.5 -180.2 L-264.0 -180.7 -264.1 -180.75 Q-264.7 -180.8 -264.55 -181.35 L-264.4 -181.55 -263.55 -181.5 -262.2 -180.85 -260.5 -180.2 M-309.9 -192.8 L-307.9 -192.2 -306.85 -191.5 Q-308.4 -191.75 -309.95 -192.35 -310.65 -192.7 -309.9 -192.8 M-28.65 -167.0 Q-38.55 -167.75 -48.45 -166.95 L-61.85 -167.4 -64.0 -167.8 Q-57.35 -167.5 -50.3 -167.75 L-47.9 -167.7 Q-44.05 -167.4 -40.7 -168.5 L-33.65 -167.9 -28.65 -167.0 M-38.85 -170.75 L-40.95 -170.4 -30.4 -170.7 -27.75 -171.1 Q-27.5 -171.15 -27.3 -171.3 L-15.0 -171.1 -10.45 -170.75 Q-41.15 -168.85 -72.05 -169.2 L-75.0 -169.45 -77.95 -169.95 -60.4 -170.15 -52.6 -170.2 -41.75 -171.3 -40.2 -171.15 -38.85 -170.75 M-23.7 -168.0 L-20.8 -168.35 -20.6 -168.4 -19.0 -168.35 -18.65 -168.25 Q-19.15 -167.7 -20.6 -167.75 L-23.7 -167.95 -23.7 -168.0 M-110.6 -170.35 L-110.9 -170.15 -111.4 -169.95 Q-122.0 -169.35 -132.35 -170.2 L-142.2 -171.55 -139.25 -171.75 -134.45 -171.9 -134.45 -171.95 -117.85 -171.35 -104.7 -170.75 -110.6 -170.35 M-113.55 -168.15 L-113.0 -168.0 -112.85 -167.9 Q-112.7 -167.4 -113.9 -167.8 -114.1 -167.85 -113.7 -168.1 L-113.55 -168.15 M-116.65 -167.6 L-134.6 -168.3 -132.6 -168.4 -132.25 -168.3 -132.15 -168.2 -132.1 -168.15 -121.6 -168.55 -118.65 -168.2 Q-117.55 -168.15 -116.65 -167.6 M-84.4 -169.65 L-84.65 -169.6 Q-89.7 -169.45 -94.05 -170.45 L-93.75 -170.55 -92.7 -170.75 -86.1 -170.6 -85.75 -170.3 -85.6 -170.2 -84.55 -169.85 -84.4 -169.65 M-90.65 -167.65 L-88.95 -167.85 -88.0 -167.7 Q-87.8 -167.45 -87.45 -167.35 L-89.6 -167.3 Q-90.3 -167.4 -90.65 -167.65 M-153.4 -169.5 L-155.1 -169.65 Q-155.3 -169.85 -154.85 -169.85 L-153.85 -169.7 -153.4 -169.5" fill="#000000" fill-rule="evenodd" stroke="none"/>
    </clipPath>
    <g clip-path="url(#clipPath0)">
      <use ffdec:characterId="209" height="86.05" transform="matrix(1.0, 0.0, 0.0, 1.0, -336.85, -250.65)" width="527.25" xlink:href="#shape2"/>
    </g>
    <use ffdec:characterId="210" height="137.6" transform="matrix(1.0, 0.0, 0.0, 1.0, -163.05, -340.25)" width="176.45" xlink:href="#shape3"/>
  </g>
  <defs>
    <g id="shape0" transform="matrix(1.0, 0.0, 0.0, 1.0, 336.85, 250.65)">
      <path d="M131.95 -180.6 Q134.1 -183.6 133.35 -186.65 132.65 -189.6 129.15 -192.7 114.05 -206.1 52.55 -214.5 -3.05 -222.05 -73.25 -222.05 -143.4 -222.05 -198.95 -214.5 -231.05 -210.1 -250.5 -204.35 -268.4 -199.1 -275.65 -192.7 -282.7 -186.45 -278.4 -180.6 -326.6 -190.2 -335.05 -202.1 -337.7 -205.85 -336.45 -209.85 -335.95 -211.45 -334.85 -212.95 -323.8 -228.35 -252.7 -239.15 -176.8 -250.65 -73.25 -250.65 L-72.75 -250.65 Q30.5 -250.6 106.25 -239.15 184.4 -227.25 190.0 -209.85 195.25 -193.2 131.95 -180.6 M-143.55 -212.6 L-144.05 -212.05 Q-144.45 -211.65 -144.45 -210.75 L-144.3 -209.15 -144.15 -208.35 -142.8 -208.05 Q-141.3 -206.55 -140.8 -205.5 -140.4 -204.65 -140.4 -203.15 -140.4 -202.7 -141.35 -201.25 -142.35 -199.85 -142.35 -199.2 -142.35 -197.6 -140.75 -193.6 -140.5 -194.45 -139.55 -195.35 L-136.8 -197.45 Q-137.9 -199.45 -137.9 -201.0 -137.9 -201.85 -134.5 -202.8 -131.1 -203.75 -131.1 -205.85 -131.1 -206.95 -129.15 -208.35 -127.85 -209.35 -129.6 -210.75 L-127.65 -210.7 -125.4 -209.85 -125.25 -209.15 -120.9 -208.95 -113.1 -208.55 -111.9 -207.45 -111.35 -206.85 -109.7 -206.95 -109.8 -205.7 -110.9 -205.25 Q-116.15 -204.65 -124.75 -200.9 -130.1 -198.55 -132.4 -196.6 L-132.3 -197.05 -132.3 -197.25 -132.2 -197.8 -132.15 -198.4 -129.85 -200.9 -127.05 -204.05 -125.85 -203.85 -125.25 -203.05 -121.1 -203.7 -119.45 -203.85 -120.15 -204.0 Q-123.55 -204.7 -125.75 -205.65 L-124.35 -207.45 Q-124.5 -207.7 -126.05 -208.1 L-128.1 -208.7 -128.7 -208.35 Q-128.7 -207.75 -127.95 -207.0 L-126.8 -206.55 Q-130.15 -203.4 -132.25 -200.85 -133.15 -200.15 -133.65 -199.1 -135.0 -197.3 -135.55 -195.85 -136.35 -195.3 -137.45 -195.0 -138.3 -193.45 -138.75 -193.05 -137.0 -192.45 -136.65 -191.7 -136.5 -191.45 -136.5 -190.25 -136.5 -189.35 -137.6 -187.45 L-138.35 -186.05 -138.55 -184.35 -138.35 -184.2 -138.65 -183.7 -139.05 -181.8 -139.65 -181.65 -140.55 -178.7 -140.7 -179.1 -140.2 -180.55 Q-139.05 -183.0 -139.05 -183.5 -139.05 -185.55 -139.65 -186.8 L-140.75 -186.3 -140.5 -186.7 -141.35 -190.55 -142.65 -194.7 Q-143.85 -198.55 -143.85 -199.25 L-142.9 -201.1 Q-141.95 -202.55 -141.95 -203.0 -141.95 -204.4 -144.4 -206.75 -146.85 -209.05 -146.85 -210.05 -146.85 -210.45 -145.8 -211.3 L-143.55 -212.6 M-106.15 -204.9 L-105.45 -204.25 -104.3 -203.7 Q-102.15 -204.6 -99.0 -200.1 -98.8 -199.85 -97.0 -199.15 -95.1 -198.4 -94.35 -197.75 L-93.1 -196.3 -92.1 -195.15 Q-90.65 -195.15 -87.0 -199.65 -85.2 -201.9 -84.25 -203.55 L-84.15 -203.05 -83.1 -204.0 -82.3 -204.05 Q-82.95 -203.0 -82.95 -201.6 -82.95 -200.9 -82.0 -199.0 -81.05 -197.05 -81.05 -196.4 -81.05 -195.2 -82.75 -190.55 L-84.8 -185.4 -86.9 -178.7 -87.1 -178.0 -89.25 -175.6 -89.35 -175.5 Q-89.0 -176.45 -89.0 -177.15 -89.0 -178.0 -89.4 -178.75 L-89.6 -179.05 -88.55 -180.15 -89.2 -180.3 -88.9 -180.8 Q-88.55 -181.6 -88.55 -182.55 L-88.65 -183.75 -89.0 -184.2 -89.6 -183.65 -88.95 -184.95 Q-89.6 -185.65 -89.85 -186.5 L-91.1 -189.85 -92.0 -192.75 Q-92.75 -192.15 -93.05 -192.15 -93.75 -192.15 -95.1 -193.45 -95.15 -192.65 -95.75 -191.2 L-96.5 -189.3 -94.35 -189.15 -92.15 -186.45 -91.35 -184.85 Q-91.35 -184.0 -91.9 -183.15 L-92.6 -181.8 -92.35 -180.75 Q-92.0 -180.2 -91.95 -179.5 L-92.1 -178.65 -92.2 -178.2 Q-92.65 -177.2 -93.85 -175.8 L-96.3 -173.3 -96.35 -173.4 -95.75 -174.7 Q-95.1 -175.65 -95.1 -176.45 -95.1 -177.15 -95.55 -178.0 L-95.65 -178.7 Q-95.05 -179.35 -94.85 -180.1 -94.4 -181.1 -94.65 -181.8 L-94.5 -182.65 Q-94.2 -183.95 -94.2 -184.7 -94.2 -185.6 -94.8 -186.15 L-95.4 -186.8 -97.5 -186.95 -98.85 -188.8 -99.15 -190.55 -99.1 -193.1 -101.85 -192.75 -103.4 -192.9 -103.15 -195.4 Q-102.5 -196.3 -98.85 -195.8 L-98.65 -196.4 -102.45 -196.2 -104.6 -194.3 -108.2 -193.4 -108.3 -193.25 -107.65 -192.4 -110.7 -192.05 Q-114.7 -191.2 -115.1 -190.85 -115.1 -190.4 -115.95 -189.45 -116.4 -189.15 -119.45 -188.45 L-122.85 -187.8 -123.15 -188.7 -122.45 -189.55 Q-121.5 -190.4 -120.0 -190.25 L-119.4 -191.35 Q-120.75 -190.8 -122.1 -189.85 L-123.75 -189.45 Q-125.3 -189.05 -127.15 -188.05 -128.7 -187.2 -130.55 -186.95 L-130.75 -187.0 -131.2 -186.05 -130.55 -186.35 Q-129.35 -186.05 -129.05 -185.5 L-130.7 -185.55 -133.1 -185.25 -133.7 -185.1 Q-134.0 -184.85 -134.0 -183.9 L-133.75 -182.85 -133.55 -182.9 -132.95 -182.75 -133.35 -182.4 Q-137.15 -178.9 -137.15 -177.0 -137.15 -176.15 -136.85 -175.95 L-137.45 -174.95 -137.7 -175.15 -137.25 -178.0 -136.65 -180.0 -136.1 -181.7 -135.6 -182.3 Q-135.45 -182.45 -135.6 -183.55 L-135.3 -185.15 Q-135.3 -186.05 -135.45 -186.1 L-135.85 -186.3 Q-135.65 -187.4 -134.45 -188.4 L-134.45 -188.75 -134.0 -190.5 -134.3 -191.45 -133.9 -192.45 -133.85 -192.15 -132.3 -192.15 -132.15 -192.6 Q-132.7 -193.45 -132.65 -194.25 L-131.25 -195.6 -131.75 -195.9 -131.9 -196.0 -130.45 -197.3 Q-128.9 -198.35 -125.25 -199.8 -120.85 -201.45 -115.05 -202.95 L-108.45 -204.8 -108.65 -205.4 -106.2 -204.95 -106.15 -204.95 -106.15 -204.9 M-105.0 -205.5 L-105.0 -205.85 -105.1 -207.0 -101.05 -206.95 -94.35 -206.7 Q-92.45 -206.7 -91.05 -205.7 L-89.7 -204.4 -85.8 -204.3 Q-86.45 -202.6 -86.85 -202.1 L-89.45 -199.45 -91.5 -197.3 Q-92.6 -197.45 -93.0 -198.35 -93.45 -199.5 -94.05 -199.8 -98.05 -200.45 -98.55 -202.2 -99.1 -204.2 -101.85 -205.1 L-105.0 -205.25 -105.0 -205.5 M-108.95 -206.95 L-108.85 -206.95 -108.75 -206.75 -108.6 -206.85 -108.5 -206.85 -108.75 -206.25 -108.55 -206.1 -108.75 -205.9 -108.85 -206.4 -108.95 -206.95 M-103.35 -198.65 L-106.0 -199.9 Q-108.2 -198.25 -113.1 -197.45 L-111.95 -196.05 Q-112.85 -195.05 -115.4 -194.6 L-115.05 -194.45 -114.95 -193.95 -111.2 -194.15 -111.2 -194.45 -110.0 -194.35 Q-108.85 -195.5 -105.85 -196.85 -103.75 -197.8 -102.15 -198.15 L-103.35 -198.65 M-81.8 -201.8 L-81.65 -204.0 -81.6 -204.1 -78.65 -204.05 -74.0 -203.55 Q-75.25 -203.15 -75.85 -202.15 L-74.7 -202.25 Q-72.05 -202.4 -71.15 -201.5 L-69.8 -202.8 Q-67.9 -204.1 -66.0 -203.5 -66.8 -201.4 -66.8 -200.25 -66.8 -199.05 -65.6 -196.8 -64.35 -194.5 -64.35 -193.2 L-64.4 -189.45 -64.35 -185.7 -64.15 -183.9 -65.55 -183.9 -65.85 -183.7 -66.35 -183.35 Q-65.4 -181.7 -64.0 -178.7 L-64.2 -178.05 -64.35 -177.45 Q-63.6 -175.5 -63.6 -174.15 L-63.6 -173.35 -65.4 -175.2 -66.75 -177.65 Q-67.05 -178.1 -66.8 -179.3 -66.65 -180.0 -68.1 -180.35 L-69.25 -180.25 -69.65 -181.05 -70.15 -180.75 -70.95 -181.35 -73.5 -181.65 -73.5 -181.7 Q-73.05 -183.5 -73.05 -184.35 -73.05 -185.3 -73.65 -185.3 L-74.3 -185.1 -74.9 -184.05 -74.95 -185.0 -74.75 -185.3 Q-73.05 -187.6 -73.05 -189.05 -73.05 -190.55 -74.15 -192.75 L-74.85 -192.75 Q-75.55 -189.9 -74.55 -190.0 -74.3 -190.05 -76.2 -187.65 -78.75 -183.35 -78.75 -182.15 L-78.2 -181.65 -81.2 -181.5 Q-81.5 -182.0 -81.5 -180.5 -81.5 -179.55 -81.25 -179.6 L-81.05 -179.85 Q-79.5 -179.45 -79.05 -179.0 L-79.5 -178.45 Q-81.3 -178.15 -82.3 -177.5 L-82.8 -177.15 -82.8 -177.2 -83.15 -180.25 -83.4 -183.6 Q-84.1 -183.2 -84.95 -181.55 L-83.1 -187.45 -80.1 -196.4 -80.95 -199.25 -81.8 -201.8 M-61.15 -198.1 L-60.3 -197.75 -58.55 -197.45 -58.9 -195.5 -59.0 -194.1 -59.3 -192.5 -53.8 -185.45 -53.85 -185.3 -53.85 -185.2 -54.3 -185.25 -54.65 -185.0 -55.25 -184.5 -54.75 -183.65 Q-55.65 -183.45 -55.65 -182.85 -55.65 -180.75 -55.2 -179.9 L-54.9 -179.45 Q-56.35 -177.5 -57.0 -177.15 L-56.1 -176.25 -53.25 -176.05 -53.25 -175.55 -53.55 -175.55 -53.8 -175.5 -53.85 -174.65 -53.7 -173.6 -53.55 -173.7 -53.1 -173.6 -53.1 -173.4 -55.2 -173.55 Q-55.9 -175.6 -57.75 -175.8 L-58.05 -176.45 -57.6 -176.8 Q-57.35 -177.05 -57.35 -177.55 L-57.85 -178.3 -58.2 -178.7 -57.75 -180.15 -57.6 -180.75 -57.7 -181.2 -57.9 -181.35 -57.95 -181.35 -58.15 -181.5 -59.0 -181.8 -61.4 -181.85 -60.3 -183.35 -60.45 -184.05 Q-61.15 -184.55 -62.25 -184.75 L-62.95 -184.85 -63.05 -186.2 -63.1 -189.95 -63.05 -193.7 Q-63.2 -195.4 -64.35 -197.8 -65.4 -200.05 -65.4 -201.45 L-64.9 -202.85 -64.4 -202.1 -60.55 -202.8 -60.6 -202.5 -61.3 -201.1 Q-61.8 -200.25 -61.8 -199.4 -61.8 -198.5 -61.15 -198.1 M-62.05 -198.8 L-62.6 -198.9 -62.9 -198.6 -62.5 -198.3 -62.05 -198.8 M-50.8 -221.7 L-54.65 -221.7 -55.45 -221.8 -52.55 -221.75 -50.8 -221.7 M-54.95 -205.4 Q-51.75 -206.15 -49.35 -206.85 L-46.8 -207.6 -45.45 -207.45 -44.7 -206.7 -44.6 -207.2 Q-44.35 -207.75 -43.4 -207.75 -41.15 -207.95 -39.95 -207.75 L-39.7 -207.7 Q-41.0 -205.45 -44.05 -202.8 L-51.05 -196.95 -53.9 -196.2 -56.85 -195.9 -57.9 -195.2 -57.8 -196.05 -57.3 -198.35 Q-59.3 -198.7 -60.6 -199.5 L-59.8 -201.0 Q-59.3 -202.05 -59.3 -203.0 L-59.35 -203.6 -59.2 -203.75 Q-58.25 -204.65 -54.95 -205.4 M-32.45 -207.3 Q-30.85 -208.25 -29.5 -208.5 -26.65 -209.05 -20.55 -208.55 L-20.25 -208.3 -20.1 -208.85 Q-18.95 -211.1 -16.35 -210.75 L-16.05 -209.3 Q-15.75 -208.25 -15.75 -207.45 -15.75 -206.6 -16.35 -205.9 L-17.15 -204.95 -17.3 -204.8 -13.4 -204.45 -12.9 -204.25 Q-12.75 -204.2 -12.75 -203.3 -12.75 -202.35 -13.4 -202.1 L-15.0 -201.8 -15.15 -201.9 -15.3 -200.9 Q-15.3 -200.1 -14.9 -199.1 L-14.7 -198.05 -13.05 -197.9 -11.4 -196.1 Q-10.2 -194.85 -8.4 -193.85 L-7.95 -193.6 Q-7.8 -193.55 -7.8 -192.65 -7.8 -191.9 -8.6 -191.85 -9.45 -191.85 -9.45 -191.1 -9.45 -189.6 -8.25 -188.2 L-9.2 -187.1 -9.75 -186.2 Q-11.2 -187.3 -11.8 -188.65 -12.5 -190.2 -11.8 -191.7 L-10.7 -192.45 Q-14.0 -196.7 -15.9 -197.8 -18.8 -199.45 -31.2 -203.4 -31.2 -204.3 -31.5 -204.8 L-32.3 -204.8 -32.5 -204.8 -32.75 -203.85 -32.55 -202.55 -32.15 -201.95 Q-21.55 -199.45 -17.1 -197.1 L-17.4 -196.65 -16.4 -196.5 -16.6 -196.8 -16.15 -196.55 -13.95 -194.6 -14.1 -194.65 -14.55 -194.05 -13.35 -193.45 -12.7 -193.0 -12.2 -192.25 -12.45 -191.95 -12.45 -191.6 Q-12.45 -190.85 -13.35 -189.9 L-13.1 -189.75 Q-10.85 -188.2 -12.75 -186.2 L-11.25 -186.05 -10.3 -184.65 -10.4 -183.75 Q-10.4 -183.15 -10.05 -182.75 L-11.5 -183.25 Q-12.8 -185.7 -14.0 -186.35 L-15.9 -186.5 -16.25 -186.6 Q-16.6 -187.3 -16.65 -188.4 -17.25 -188.9 -17.15 -189.65 L-17.1 -189.8 -18.75 -191.55 Q-19.65 -192.15 -20.7 -192.45 L-22.3 -192.75 -24.3 -193.2 -26.4 -193.65 -27.15 -193.2 -27.2 -193.8 -31.05 -194.5 Q-35.6 -195.25 -36.5 -197.6 L-43.05 -197.1 -44.05 -198.2 -46.2 -196.65 -49.8 -194.35 -49.8 -194.15 Q-49.8 -193.4 -50.35 -193.0 -50.9 -192.6 -50.9 -191.85 L-51.15 -190.9 -50.95 -190.85 Q-50.7 -190.75 -50.7 -189.8 -50.7 -189.35 -52.25 -187.45 L-52.75 -186.8 -55.15 -189.8 -58.2 -193.2 -58.15 -193.65 -57.3 -194.0 -57.05 -194.75 Q-56.9 -195.15 -55.95 -195.15 L-53.6 -195.35 -50.55 -195.75 Q-49.15 -198.1 -45.15 -201.2 -42.5 -203.3 -39.15 -205.4 L-39.3 -204.15 -39.3 -203.8 -39.25 -203.8 Q-36.25 -204.3 -34.35 -203.2 L-34.35 -204.8 -33.55 -206.2 -32.45 -207.3 M-18.5 -202.35 Q-19.2 -203.65 -20.15 -204.4 L-21.5 -204.45 Q-21.05 -201.5 -19.55 -200.55 L-17.35 -198.8 -17.45 -199.35 Q-17.65 -200.8 -18.5 -202.35 M-3.7 -202.15 Q-4.65 -200.9 -4.65 -199.8 -4.65 -198.35 -5.55 -194.55 L-6.5 -189.95 Q-6.5 -189.4 -5.5 -186.55 L-5.35 -185.65 -5.4 -185.55 -5.75 -184.6 Q-6.65 -184.45 -6.9 -183.7 L-6.95 -182.6 -6.9 -182.4 -7.0 -182.3 -7.35 -181.6 -7.8 -183.75 -7.7 -184.3 -7.5 -184.95 -7.15 -185.7 Q-6.5 -186.95 -6.5 -187.7 -6.5 -188.7 -6.65 -188.9 L-7.2 -189.3 -8.05 -188.45 -8.4 -189.6 Q-8.4 -191.05 -7.65 -192.15 -6.95 -193.2 -6.95 -195.45 L-7.2 -200.85 -6.7 -202.05 -4.95 -204.3 Q-4.6 -204.75 -4.75 -205.65 L-4.95 -207.6 Q-4.95 -208.15 -3.3 -209.75 L-1.05 -211.5 -2.3 -208.55 Q-2.9 -206.6 -2.9 -205.4 -2.8 -203.35 -3.7 -202.15 M-40.0 -195.45 L-40.0 -195.4 -40.0 -195.45 M-33.9 -193.05 Q-34.05 -193.4 -34.8 -193.75 -35.85 -194.2 -37.5 -194.3 L-37.85 -194.5 -32.3 -193.3 -33.9 -193.05 M-7.55 -174.95 Q-6.35 -176.8 -6.35 -177.15 L-6.35 -177.45 -6.25 -177.35 -7.1 -173.7 -8.1 -170.4 -8.3 -170.65 -7.95 -171.1 Q-7.5 -171.85 -7.5 -173.6 L-7.55 -174.95 M-9.35 -181.75 L-9.3 -181.35 Q-9.3 -180.7 -9.75 -179.45 L-9.55 -180.75 -9.4 -181.65 -9.35 -181.75 M-19.05 -181.3 L-19.15 -181.4 Q-18.7 -181.65 -18.45 -181.95 -18.0 -182.5 -18.0 -184.1 L-17.3 -182.3 Q-16.75 -181.3 -16.4 -179.75 -17.35 -181.05 -19.05 -181.3 M-18.65 -186.9 L-18.4 -185.7 Q-18.65 -186.0 -19.35 -186.35 L-20.3 -186.45 -20.75 -186.85 -20.7 -188.2 Q-20.85 -189.45 -21.9 -189.45 L-23.55 -189.95 -27.0 -190.1 Q-27.25 -191.3 -28.45 -192.1 L-26.25 -191.4 Q-20.1 -189.75 -18.65 -186.9 M-39.8 -167.9 L-41.0 -168.5 -39.65 -168.6 -39.8 -167.9 M-48.45 -180.55 L-48.6 -181.4 -48.35 -181.25 -48.45 -180.55 M-48.75 -178.65 L-48.6 -179.05 -48.55 -179.15 -48.6 -178.25 -48.75 -178.65 M-40.9 -196.3 L-41.05 -195.6 -43.2 -195.35 Q-45.3 -194.7 -45.45 -193.3 L-45.45 -193.7 -45.45 -193.8 Q-46.4 -193.0 -46.7 -191.8 L-46.9 -190.95 Q-48.15 -190.35 -48.15 -189.2 -48.15 -188.45 -48.75 -186.25 -49.35 -184.1 -49.35 -183.35 L-49.3 -182.65 -50.85 -184.45 -50.9 -184.85 Q-50.9 -185.95 -49.4 -190.0 L-47.3 -195.0 Q-44.95 -195.8 -43.4 -195.9 L-42.95 -196.1 -40.9 -196.3 M-78.8 -190.65 L-78.7 -190.35 -78.6 -190.5 -78.8 -190.65 M-80.0 -182.8 L-79.65 -182.95 -79.65 -183.2 -79.75 -183.8 -80.05 -182.8 -80.0 -182.8 M-101.1 -169.55 L-100.25 -170.25 -100.1 -170.35 -100.05 -170.15 -100.45 -169.95 -101.1 -169.55 M-87.1 -167.05 L-86.95 -166.95 -87.2 -166.95 -87.1 -167.05 M-122.9 -186.95 L-121.7 -187.8 -122.25 -186.7 -122.9 -186.95 M-139.65 -190.9 L-139.05 -189.15 -138.6 -190.4 -139.65 -190.9 M-122.45 -183.9 L-123.25 -183.15 -123.6 -183.0 -122.45 -183.95 -122.45 -183.9 M-134.75 -166.95 L-135.0 -166.95 -135.35 -167.0 -134.75 -166.95" fill="#403d56" fill-rule="evenodd" stroke="none"/>
      <path d="M-278.4 -180.6 Q-282.7 -186.45 -275.65 -192.7 -268.4 -199.1 -250.5 -204.35 -231.05 -210.1 -198.95 -214.5 -143.4 -222.05 -73.25 -222.05 -3.05 -222.05 52.55 -214.5 114.05 -206.1 129.15 -192.7 132.65 -189.6 133.35 -186.65 134.1 -183.6 131.95 -180.6 L119.95 -178.4 Q41.85 -164.65 -72.75 -164.6 L-73.25 -164.6 Q-188.2 -164.6 -266.45 -178.4 L-278.4 -180.6 M-106.15 -204.9 L-106.15 -204.95 -106.2 -204.95 -108.65 -205.4 -108.45 -204.8 -115.05 -202.95 Q-120.85 -201.45 -125.25 -199.8 -128.9 -198.35 -130.45 -197.3 L-131.9 -196.0 -131.75 -195.9 -131.25 -195.6 -132.65 -194.25 Q-132.7 -193.45 -132.15 -192.6 L-132.3 -192.15 -133.85 -192.15 -133.9 -192.45 -134.3 -191.45 -134.0 -190.5 -134.45 -188.75 -134.45 -188.4 Q-135.65 -187.4 -135.85 -186.3 L-135.45 -186.1 Q-135.3 -186.05 -135.3 -185.15 L-135.6 -183.55 Q-135.45 -182.45 -135.6 -182.3 L-136.1 -181.7 -136.65 -180.0 -137.25 -178.0 -137.7 -175.15 -137.45 -174.95 -136.85 -175.95 Q-137.15 -176.15 -137.15 -177.0 -137.15 -178.9 -133.35 -182.4 L-132.95 -182.75 -133.55 -182.9 -133.75 -182.85 -134.0 -183.9 Q-134.0 -184.85 -133.7 -185.1 L-133.1 -185.25 -130.7 -185.55 -129.05 -185.5 Q-129.35 -186.05 -130.55 -186.35 L-131.2 -186.05 -130.75 -187.0 -130.55 -186.95 Q-128.7 -187.2 -127.15 -188.05 -125.3 -189.05 -123.75 -189.45 L-122.1 -189.85 Q-120.75 -190.8 -119.4 -191.35 L-120.0 -190.25 Q-121.5 -190.4 -122.45 -189.55 L-123.15 -188.7 -122.85 -187.8 -119.45 -188.45 Q-116.4 -189.15 -115.95 -189.45 -115.1 -190.4 -115.1 -190.85 -114.7 -191.2 -110.7 -192.05 L-107.65 -192.4 -108.3 -193.25 -108.2 -193.4 -104.6 -194.3 -102.45 -196.2 -98.65 -196.4 -98.85 -195.8 Q-102.5 -196.3 -103.15 -195.4 L-103.4 -192.9 -101.85 -192.75 -99.1 -193.1 -99.15 -190.55 -98.85 -188.8 -97.5 -186.95 -95.4 -186.8 -94.8 -186.15 Q-94.2 -185.6 -94.2 -184.7 -94.2 -183.95 -94.5 -182.65 L-94.65 -181.8 Q-94.4 -181.1 -94.85 -180.1 -95.05 -179.35 -95.65 -178.7 L-95.55 -178.0 Q-95.1 -177.15 -95.1 -176.45 -95.1 -175.65 -95.75 -174.7 L-96.35 -173.4 -96.3 -173.3 -93.85 -175.8 Q-92.65 -177.2 -92.2 -178.2 L-92.1 -178.65 -91.95 -179.5 Q-92.0 -180.2 -92.35 -180.75 L-92.6 -181.8 -91.9 -183.15 Q-91.35 -184.0 -91.35 -184.85 L-92.15 -186.45 -94.35 -189.15 -96.5 -189.3 -95.75 -191.2 Q-95.15 -192.65 -95.1 -193.45 -93.75 -192.15 -93.05 -192.15 -92.75 -192.15 -92.0 -192.75 L-91.1 -189.85 -89.85 -186.5 Q-89.6 -185.65 -88.95 -184.95 L-89.6 -183.65 -89.0 -184.2 -88.65 -183.75 -88.55 -182.55 Q-88.55 -181.6 -88.9 -180.8 L-89.2 -180.3 -88.55 -180.15 -89.6 -179.05 -89.4 -178.75 Q-89.0 -178.0 -89.0 -177.15 -89.0 -176.45 -89.35 -175.5 L-89.25 -175.6 -87.1 -178.0 -86.9 -178.7 -84.8 -185.4 -82.75 -190.55 Q-81.05 -195.2 -81.05 -196.4 -81.05 -197.05 -82.0 -199.0 -82.95 -200.9 -82.95 -201.6 -82.95 -203.0 -82.3 -204.05 L-83.1 -204.0 -84.15 -203.05 -84.25 -203.55 Q-85.2 -201.9 -87.0 -199.65 -90.65 -195.15 -92.1 -195.15 L-93.1 -196.3 -94.35 -197.75 Q-95.1 -198.4 -97.0 -199.15 -98.8 -199.85 -99.0 -200.1 -102.15 -204.6 -104.3 -203.7 L-105.45 -204.25 -106.15 -204.9 M-143.55 -212.6 L-145.8 -211.3 Q-146.85 -210.45 -146.85 -210.05 -146.85 -209.05 -144.4 -206.75 -141.95 -204.4 -141.95 -203.0 -141.95 -202.55 -142.9 -201.1 L-143.85 -199.25 Q-143.85 -198.55 -142.65 -194.7 L-141.35 -190.55 -140.5 -186.7 -140.75 -186.3 -139.65 -186.8 Q-139.05 -185.55 -139.05 -183.5 -139.05 -183.0 -140.2 -180.55 L-140.7 -179.1 -140.55 -178.7 -139.65 -181.65 -139.05 -181.8 -138.65 -183.7 -138.35 -184.2 -138.55 -184.35 -138.35 -186.05 -137.6 -187.45 Q-136.5 -189.35 -136.5 -190.25 -136.5 -191.45 -136.65 -191.7 -137.0 -192.45 -138.75 -193.05 -138.3 -193.45 -137.45 -195.0 -136.35 -195.3 -135.55 -195.85 -135.0 -197.3 -133.65 -199.1 -133.15 -200.15 -132.25 -200.85 -130.15 -203.4 -126.8 -206.55 L-127.95 -207.0 Q-128.7 -207.75 -128.7 -208.35 L-128.1 -208.7 -126.05 -208.1 Q-124.5 -207.7 -124.35 -207.45 L-125.75 -205.65 Q-123.55 -204.7 -120.15 -204.0 L-119.45 -203.85 -121.1 -203.7 -125.25 -203.05 -125.85 -203.85 -127.05 -204.05 -129.85 -200.9 -132.15 -198.4 -132.2 -197.8 -132.3 -197.25 -132.3 -197.05 -132.4 -196.6 Q-130.1 -198.55 -124.75 -200.9 -116.15 -204.65 -110.9 -205.25 L-109.8 -205.7 -109.7 -206.95 -111.35 -206.85 -111.9 -207.45 -113.1 -208.55 -120.9 -208.95 -125.25 -209.15 -125.4 -209.85 -127.65 -210.7 -129.6 -210.75 Q-127.85 -209.35 -129.15 -208.35 -131.1 -206.95 -131.1 -205.85 -131.1 -203.75 -134.5 -202.8 -137.9 -201.85 -137.9 -201.0 -137.9 -199.45 -136.8 -197.45 L-139.55 -195.35 Q-140.5 -194.45 -140.75 -193.6 -142.35 -197.6 -142.35 -199.2 -142.35 -199.85 -141.35 -201.25 -140.4 -202.7 -140.4 -203.15 -140.4 -204.65 -140.8 -205.5 -141.3 -206.55 -142.8 -208.05 L-144.15 -208.35 -144.3 -209.15 -144.45 -210.75 Q-144.45 -211.65 -144.05 -212.05 L-143.55 -212.6 M-105.0 -205.5 L-105.0 -205.25 -101.85 -205.1 Q-99.1 -204.2 -98.55 -202.2 -98.05 -200.45 -94.05 -199.8 -93.45 -199.5 -93.0 -198.35 -92.6 -197.45 -91.5 -197.3 L-89.45 -199.45 -86.85 -202.1 Q-86.45 -202.6 -85.8 -204.3 L-89.7 -204.4 -91.05 -205.7 Q-92.45 -206.7 -94.35 -206.7 L-101.05 -206.95 -105.1 -207.0 -105.0 -205.85 -105.0 -205.5 M-103.35 -198.65 L-102.15 -198.15 Q-103.75 -197.8 -105.85 -196.85 -108.85 -195.5 -110.0 -194.35 L-111.2 -194.45 -111.2 -194.15 -114.95 -193.95 -115.05 -194.45 -115.4 -194.6 Q-112.85 -195.05 -111.95 -196.05 L-113.1 -197.45 Q-108.2 -198.25 -106.0 -199.9 L-103.35 -198.65 M-108.95 -206.95 L-108.85 -206.4 -108.75 -205.9 -108.55 -206.1 -108.75 -206.25 -108.5 -206.85 -108.6 -206.85 -108.75 -206.75 -108.85 -206.95 -108.95 -206.95 M-81.8 -201.8 L-80.95 -199.25 -80.1 -196.4 -83.1 -187.45 -84.95 -181.55 Q-84.1 -183.2 -83.4 -183.6 L-83.15 -180.25 -82.8 -177.2 -82.8 -177.15 -82.3 -177.5 Q-81.3 -178.15 -79.5 -178.45 L-79.05 -179.0 Q-79.5 -179.45 -81.05 -179.85 L-81.25 -179.6 Q-81.5 -179.55 -81.5 -180.5 -81.5 -182.0 -81.2 -181.5 L-78.2 -181.65 -78.75 -182.15 Q-78.75 -183.35 -76.2 -187.65 -74.3 -190.05 -74.55 -190.0 -75.55 -189.9 -74.85 -192.75 L-74.15 -192.75 Q-73.05 -190.55 -73.05 -189.05 -73.05 -187.6 -74.75 -185.3 L-74.95 -185.0 -74.9 -184.05 -74.3 -185.1 -73.65 -185.3 Q-73.05 -185.3 -73.05 -184.35 -73.05 -183.5 -73.5 -181.7 L-73.5 -181.65 -70.95 -181.35 -70.15 -180.75 -69.65 -181.05 -69.25 -180.25 -68.1 -180.35 Q-66.65 -180.0 -66.8 -179.3 -67.05 -178.1 -66.75 -177.65 L-65.4 -175.2 -63.6 -173.35 -63.6 -174.15 Q-63.6 -175.5 -64.35 -177.45 L-64.2 -178.05 -64.0 -178.7 Q-65.4 -181.7 -66.35 -183.35 L-65.85 -183.7 -65.55 -183.9 -64.15 -183.9 -64.35 -185.7 -64.4 -189.45 -64.35 -193.2 Q-64.35 -194.5 -65.6 -196.8 -66.8 -199.05 -66.8 -200.25 -66.8 -201.4 -66.0 -203.5 -67.9 -204.1 -69.8 -202.8 L-71.15 -201.5 Q-72.05 -202.4 -74.7 -202.25 L-75.85 -202.15 Q-75.25 -203.15 -74.0 -203.55 L-78.65 -204.05 -81.6 -204.1 -81.65 -204.0 -81.8 -201.8 M-3.7 -202.15 Q-2.8 -203.35 -2.9 -205.4 -2.9 -206.6 -2.3 -208.55 L-1.05 -211.5 -3.3 -209.75 Q-4.95 -208.15 -4.95 -207.6 L-4.75 -205.65 Q-4.6 -204.75 -4.95 -204.3 L-6.7 -202.05 -7.2 -200.85 -6.95 -195.45 Q-6.95 -193.2 -7.65 -192.15 -8.4 -191.05 -8.4 -189.6 L-8.05 -188.45 -7.2 -189.3 -6.65 -188.9 Q-6.5 -188.7 -6.5 -187.7 -6.5 -186.95 -7.15 -185.7 L-7.5 -184.95 -7.7 -184.3 -7.8 -183.75 -7.35 -181.6 -7.0 -182.3 -6.9 -182.4 -6.95 -182.6 -6.9 -183.7 Q-6.65 -184.45 -5.75 -184.6 L-5.4 -185.55 -5.35 -185.65 -5.5 -186.55 Q-6.5 -189.4 -6.5 -189.95 L-5.55 -194.55 Q-4.65 -198.35 -4.65 -199.8 -4.65 -200.9 -3.7 -202.15 M-18.5 -202.35 Q-17.65 -200.8 -17.45 -199.35 L-17.35 -198.8 -19.55 -200.55 Q-21.05 -201.5 -21.5 -204.45 L-20.15 -204.4 Q-19.2 -203.65 -18.5 -202.35 M-32.45 -207.3 L-33.55 -206.2 -34.35 -204.8 -34.35 -203.2 Q-36.25 -204.3 -39.25 -203.8 L-39.3 -203.8 -39.3 -204.15 -39.15 -205.4 Q-42.5 -203.3 -45.15 -201.2 -49.15 -198.1 -50.55 -195.75 L-53.6 -195.35 -55.95 -195.15 Q-56.9 -195.15 -57.05 -194.75 L-57.3 -194.0 -58.15 -193.65 -58.2 -193.2 -55.15 -189.8 -52.75 -186.8 -52.25 -187.45 Q-50.7 -189.35 -50.7 -189.8 -50.7 -190.75 -50.95 -190.85 L-51.15 -190.9 -50.9 -191.85 Q-50.9 -192.6 -50.35 -193.0 -49.8 -193.4 -49.8 -194.15 L-49.8 -194.35 -46.2 -196.65 -44.05 -198.2 -43.05 -197.1 -36.5 -197.6 Q-35.6 -195.25 -31.05 -194.5 L-27.2 -193.8 -27.15 -193.2 -26.4 -193.65 -24.3 -193.2 -22.3 -192.75 -20.7 -192.45 Q-19.65 -192.15 -18.75 -191.55 L-17.1 -189.8 -17.15 -189.65 Q-17.25 -188.9 -16.65 -188.4 -16.6 -187.3 -16.25 -186.6 L-15.9 -186.5 -14.0 -186.35 Q-12.8 -185.7 -11.5 -183.25 L-10.05 -182.75 Q-10.4 -183.15 -10.4 -183.75 L-10.3 -184.65 -11.25 -186.05 -12.75 -186.2 Q-10.85 -188.2 -13.1 -189.75 L-13.35 -189.9 Q-12.45 -190.85 -12.45 -191.6 L-12.45 -191.95 -12.2 -192.25 -12.7 -193.0 -13.35 -193.45 -14.55 -194.05 -14.1 -194.65 -13.95 -194.6 -16.15 -196.55 -16.6 -196.8 -16.4 -196.5 -17.4 -196.65 -17.1 -197.1 Q-21.55 -199.45 -32.15 -201.95 L-32.55 -202.55 -32.75 -203.85 -32.5 -204.8 -32.3 -204.8 -31.5 -204.8 Q-31.2 -204.3 -31.2 -203.4 -18.8 -199.45 -15.9 -197.8 -14.0 -196.7 -10.7 -192.45 L-11.8 -191.7 Q-12.5 -190.2 -11.8 -188.65 -11.2 -187.3 -9.75 -186.2 L-9.2 -187.1 -8.25 -188.2 Q-9.45 -189.6 -9.45 -191.1 -9.45 -191.85 -8.6 -191.85 -7.8 -191.9 -7.8 -192.65 -7.8 -193.55 -7.95 -193.6 L-8.4 -193.85 Q-10.2 -194.85 -11.4 -196.1 L-13.05 -197.9 -14.7 -198.05 -14.9 -199.1 Q-15.3 -200.1 -15.3 -200.9 L-15.15 -201.9 -15.0 -201.8 -13.4 -202.1 Q-12.75 -202.35 -12.75 -203.3 -12.75 -204.2 -12.9 -204.25 L-13.4 -204.45 -17.3 -204.8 -17.15 -204.95 -16.35 -205.9 Q-15.75 -206.6 -15.75 -207.45 -15.75 -208.25 -16.05 -209.3 L-16.35 -210.75 Q-18.95 -211.1 -20.1 -208.85 L-20.25 -208.3 -20.55 -208.55 Q-26.65 -209.05 -29.5 -208.5 -30.85 -208.25 -32.45 -207.3 M-54.95 -205.4 Q-58.25 -204.65 -59.2 -203.75 L-59.35 -203.6 -59.3 -203.0 Q-59.3 -202.05 -59.8 -201.0 L-60.6 -199.5 Q-59.3 -198.7 -57.3 -198.35 L-57.8 -196.05 -57.9 -195.2 -56.85 -195.9 -53.9 -196.2 -51.05 -196.95 -44.05 -202.8 Q-41.0 -205.45 -39.7 -207.7 L-39.95 -207.75 Q-41.15 -207.95 -43.4 -207.75 -44.35 -207.75 -44.6 -207.2 L-44.7 -206.7 -45.45 -207.45 -46.8 -207.6 -49.35 -206.85 Q-51.75 -206.15 -54.95 -205.4 M-50.8 -221.7 L-52.55 -221.75 -55.45 -221.8 -54.65 -221.7 -50.8 -221.7 M-62.05 -198.8 L-62.5 -198.3 -62.9 -198.6 -62.6 -198.9 -62.05 -198.8 M-61.15 -198.1 Q-61.8 -198.5 -61.8 -199.4 -61.8 -200.25 -61.3 -201.1 L-60.6 -202.5 -60.55 -202.8 -64.4 -202.1 -64.9 -202.85 -65.4 -201.45 Q-65.4 -200.05 -64.35 -197.8 -63.2 -195.4 -63.05 -193.7 L-63.1 -189.95 -63.05 -186.2 -62.95 -184.85 -62.25 -184.75 Q-61.15 -184.55 -60.45 -184.05 L-60.3 -183.35 -61.4 -181.85 -59.0 -181.8 -58.15 -181.5 -57.95 -181.35 -57.9 -181.35 -57.7 -181.2 -57.6 -180.75 -57.75 -180.15 -58.2 -178.7 -57.85 -178.3 -57.35 -177.55 Q-57.35 -177.05 -57.6 -176.8 L-58.05 -176.45 -57.75 -175.8 Q-55.9 -175.6 -55.2 -173.55 L-53.1 -173.4 -53.1 -173.6 -53.55 -173.7 -53.7 -173.6 -53.85 -174.65 -53.8 -175.5 -53.55 -175.55 -53.25 -175.55 -53.25 -176.05 -56.1 -176.25 -57.0 -177.15 Q-56.35 -177.5 -54.9 -179.45 L-55.2 -179.9 Q-55.65 -180.75 -55.65 -182.85 -55.65 -183.45 -54.75 -183.65 L-55.25 -184.5 -54.65 -185.0 -54.3 -185.25 -53.85 -185.2 -53.85 -185.3 -53.8 -185.45 -59.3 -192.5 -59.0 -194.1 -58.9 -195.5 -58.55 -197.45 -60.3 -197.75 -61.15 -198.1 M-18.65 -186.9 Q-20.1 -189.75 -26.25 -191.4 L-28.45 -192.1 Q-27.25 -191.3 -27.0 -190.1 L-23.55 -189.95 -21.9 -189.45 Q-20.85 -189.45 -20.7 -188.2 L-20.75 -186.85 -20.3 -186.45 -19.35 -186.35 Q-18.65 -186.0 -18.4 -185.7 L-18.65 -186.9 M-19.05 -181.3 Q-17.35 -181.05 -16.4 -179.75 -16.75 -181.3 -17.3 -182.3 L-18.0 -184.1 Q-18.0 -182.5 -18.45 -181.95 -18.7 -181.65 -19.15 -181.4 L-19.05 -181.3 M-9.35 -181.75 L-9.4 -181.65 -9.55 -180.75 -9.75 -179.45 Q-9.3 -180.7 -9.3 -181.35 L-9.35 -181.75 M-7.55 -174.95 L-7.5 -173.6 Q-7.5 -171.85 -7.95 -171.1 L-8.3 -170.65 -8.1 -170.4 -7.1 -173.7 -6.25 -177.35 -6.35 -177.45 -6.35 -177.15 Q-6.35 -176.8 -7.55 -174.95 M-33.9 -193.05 L-32.3 -193.3 -37.85 -194.5 -37.5 -194.3 Q-35.85 -194.2 -34.8 -193.75 -34.05 -193.4 -33.9 -193.05 M-40.0 -195.45 L-40.0 -195.4 -40.0 -195.45 M-39.8 -167.9 L-39.65 -168.6 -41.0 -168.5 -39.8 -167.9 M-40.9 -196.3 L-42.95 -196.1 -43.4 -195.9 Q-44.95 -195.8 -47.3 -195.0 L-49.4 -190.0 Q-50.9 -185.95 -50.9 -184.85 L-50.85 -184.45 -49.3 -182.65 -49.35 -183.35 Q-49.35 -184.1 -48.75 -186.25 -48.15 -188.45 -48.15 -189.2 -48.15 -190.35 -46.9 -190.95 L-46.7 -191.8 Q-46.4 -193.0 -45.45 -193.8 L-45.45 -193.7 -45.45 -193.3 Q-45.3 -194.7 -43.2 -195.35 L-41.05 -195.6 -40.9 -196.3 M-48.75 -178.65 L-48.6 -178.25 -48.55 -179.15 -48.6 -179.05 -48.75 -178.65 M-48.45 -180.55 L-48.35 -181.25 -48.6 -181.4 -48.45 -180.55 M-80.0 -182.8 L-80.05 -182.8 -79.75 -183.8 -79.65 -183.2 -79.65 -182.95 -80.0 -182.8 M-78.8 -190.65 L-78.6 -190.5 -78.7 -190.35 -78.8 -190.65 M-101.1 -169.55 L-100.45 -169.95 -100.05 -170.15 -100.1 -170.35 -100.25 -170.25 -101.1 -169.55 M-87.1 -167.05 L-87.2 -166.95 -86.95 -166.95 -87.1 -167.05 M-122.9 -186.95 L-122.25 -186.7 -121.7 -187.8 -122.9 -186.95 M-139.65 -190.9 L-138.6 -190.4 -139.05 -189.15 -139.65 -190.9 M-122.45 -183.9 L-122.45 -183.95 -123.6 -183.0 -123.25 -183.15 -122.45 -183.9 M-134.75 -166.95 L-135.35 -167.0 -135.0 -166.95 -134.75 -166.95" fill="#302e41" fill-rule="evenodd" stroke="none"/>
    </g>
    <g id="shape2" transform="matrix(1.0, 0.0, 0.0, 1.0, 336.85, 250.65)">
      <path d="M131.95 -180.6 Q134.1 -183.6 133.35 -186.65 132.65 -189.6 129.15 -192.7 114.05 -206.1 52.55 -214.5 -3.05 -222.05 -73.25 -222.05 -143.4 -222.05 -198.95 -214.5 -231.05 -210.1 -250.5 -204.35 -268.4 -199.1 -275.65 -192.7 -282.7 -186.45 -278.4 -180.6 -326.6 -190.2 -335.05 -202.1 -337.7 -205.85 -336.45 -209.85 -335.95 -211.45 -334.85 -212.95 -323.8 -228.35 -252.7 -239.15 -176.8 -250.65 -73.25 -250.65 L-72.75 -250.65 Q30.5 -250.6 106.25 -239.15 184.4 -227.25 190.0 -209.85 195.25 -193.2 131.95 -180.6" fill="#302e41" fill-rule="evenodd" stroke="none"/>
      <path d="M-278.4 -180.6 Q-282.7 -186.45 -275.65 -192.7 -268.4 -199.1 -250.5 -204.35 -231.05 -210.1 -198.95 -214.5 -143.4 -222.05 -73.25 -222.05 -3.05 -222.05 52.55 -214.5 114.05 -206.1 129.15 -192.7 132.65 -189.6 133.35 -186.65 134.1 -183.6 131.95 -180.6 L119.95 -178.4 Q41.85 -164.65 -72.75 -164.6 L-73.25 -164.6 Q-188.2 -164.6 -266.45 -178.4 L-278.4 -180.6" fill="#403d56" fill-rule="evenodd" stroke="none"/>
      <path d="M181.35 -211.8 L182.7 -210.7 183.15 -210.8 183.4 -210.75 183.45 -210.05 Q183.45 -208.05 179.95 -205.05 175.6 -201.4 170.1 -201.4 L164.1 -201.7 158.85 -202.2 156.05 -202.35 Q138.3 -202.4 122.2 -206.5 L119.25 -207.25 118.1 -207.6 116.3 -208.15 115.2 -208.5 114.65 -208.65 106.8 -211.45 101.0 -212.85 Q91.55 -214.9 83.35 -214.9 L54.6 -213.9 45.8 -212.75 38.25 -211.75 33.3 -210.95 33.15 -210.95 Q33.0 -210.95 33.0 -211.25 L6.75 -205.45 Q-3.75 -203.3 -15.35 -203.3 -26.9 -203.3 -39.55 -204.95 L-50.9 -206.7 Q-51.3 -206.8 -51.9 -207.2 L-52.0 -207.25 -62.85 -209.6 -66.65 -210.3 Q-69.45 -210.8 -72.1 -212.05 L-78.0 -214.05 -84.45 -218.4 Q-91.75 -222.6 -97.5 -222.6 L-102.75 -222.3 -107.45 -221.85 -131.85 -221.65 Q-148.35 -219.4 -159.25 -216.2 -162.9 -215.15 -174.3 -210.8 L-174.3 -210.55 Q-174.45 -210.3 -175.15 -210.3 L-175.7 -210.3 -176.0 -210.2 -176.65 -210.3 -181.25 -210.6 -182.65 -210.75 -184.25 -211.05 -186.75 -211.15 -189.45 -211.45 -190.85 -211.6 -192.4 -211.9 -194.9 -212.0 -197.55 -212.3 -199.8 -212.45 -202.25 -212.75 -206.4 -213.4 -211.7 -214.45 -223.9 -215.3 -228.8 -215.25 -237.9 -214.15 Q-242.45 -213.15 -246.4 -213.05 L-253.4 -212.2 -260.4 -211.45 -267.75 -210.5 -267.85 -210.55 -273.75 -209.45 Q-292.3 -205.9 -293.85 -205.9 L-306.6 -206.6 Q-310.85 -207.6 -313.9 -210.7 L-313.95 -210.75 -314.65 -211.2 Q-317.6 -212.75 -320.1 -212.75 -322.9 -212.75 -325.15 -209.65 -327.25 -206.8 -327.25 -204.2 L-327.35 -204.0 -327.7 -203.65 Q-328.35 -204.1 -329.3 -206.2 -330.15 -208.05 -330.75 -208.05 -331.4 -208.05 -331.35 -208.25 L-331.1 -209.25 Q-331.1 -210.95 -327.7 -212.65 -322.8 -215.1 -313.55 -215.1 -307.85 -215.1 -304.75 -213.25 -301.55 -211.35 -296.4 -211.25 L-285.75 -211.25 -264.45 -212.15 -260.85 -212.8 -254.45 -213.5 -236.45 -216.3 -236.45 -216.5 -223.8 -216.4 -222.6 -216.2 Q-212.05 -215.85 -202.3 -216.05 -198.05 -216.15 -194.15 -215.0 L-193.8 -214.7 -193.7 -214.5 -186.3 -213.95 Q-175.75 -213.95 -165.6 -216.85 L-154.6 -220.65 -143.15 -223.95 Q-135.4 -225.7 -121.6 -227.0 L-121.6 -227.2 -108.95 -227.1 Q-94.4 -225.75 -88.35 -223.8 -82.75 -221.35 -77.7 -219.8 -77.15 -219.35 -76.55 -217.65 L-75.85 -215.85 -72.8 -214.1 -69.45 -212.45 Q-62.85 -210.65 -52.55 -208.95 -42.15 -207.2 -37.95 -207.2 -29.35 -207.2 24.2 -213.45 L77.95 -219.9 93.15 -219.8 Q98.4 -219.6 99.1 -217.95 L99.65 -216.5 Q100.05 -215.6 101.3 -215.0 L105.7 -212.9 106.0 -212.75 Q110.0 -211.75 113.1 -210.5 121.85 -206.95 132.9 -205.35 L139.55 -204.65 146.5 -204.0 148.7 -203.85 150.3 -203.85 170.05 -205.15 Q176.45 -206.05 178.55 -206.7 179.8 -207.1 180.55 -207.5 181.35 -208.65 181.4 -209.65 L181.45 -209.65 180.9 -210.85 180.9 -211.45 181.0 -211.45 181.35 -211.8 M163.75 -202.65 L169.85 -202.45 Q173.7 -202.45 176.65 -204.05 L177.25 -204.6 171.3 -203.55 163.75 -202.65 M17.55 -209.2 Q21.0 -209.9 27.0 -211.85 L34.55 -212.95 35.9 -213.35 19.25 -211.55 3.45 -210.2 -5.05 -209.2 -15.9 -207.4 Q-24.15 -206.0 -30.35 -206.0 L-33.0 -206.05 -29.9 -205.55 -23.7 -204.7 -6.8 -204.5 Q-1.15 -204.5 6.35 -206.3 L17.55 -209.2 M59.15 -216.35 L71.15 -216.7 Q89.3 -216.95 90.9 -215.3 L101.45 -213.75 Q100.35 -214.2 100.0 -214.35 L98.55 -216.2 97.55 -217.95 Q94.05 -218.3 93.05 -218.75 L77.5 -218.75 59.15 -216.35 M-329.1 -207.65 L-328.65 -206.25 Q-327.8 -208.5 -322.9 -212.75 -324.4 -212.35 -326.95 -211.1 -329.35 -209.9 -330.3 -209.1 -329.65 -208.9 -329.1 -207.65 M-131.45 -222.9 L-107.45 -223.15 -100.6 -223.55 -100.6 -223.8 Q-91.1 -222.85 -85.25 -220.0 L-77.7 -215.25 -75.95 -214.3 Q-77.45 -215.4 -77.9 -216.4 L-78.0 -217.9 Q-78.45 -219.2 -80.9 -219.75 -81.6 -219.85 -85.75 -221.75 L-92.3 -223.85 Q-98.05 -225.2 -109.1 -226.05 L-121.95 -225.9 Q-140.6 -224.0 -154.25 -219.75 -169.9 -214.85 -182.0 -213.05 L-191.0 -213.5 -194.5 -214.35 -197.0 -214.9 -199.9 -215.45 -210.65 -215.35 -211.15 -215.35 -211.05 -215.3 Q-207.55 -215.15 -203.85 -214.25 -200.1 -213.3 -196.9 -213.2 L-188.6 -212.65 -180.65 -211.45 -176.0 -211.3 -170.1 -213.85 Q-164.8 -216.0 -160.3 -217.25 L-149.7 -220.15 Q-143.2 -221.65 -131.45 -222.9 M-310.65 -214.15 L-314.8 -213.9 -318.25 -213.6 -314.9 -212.45 Q-312.15 -211.25 -311.4 -209.95 L-311.3 -209.85 -309.05 -208.65 Q-306.5 -207.4 -304.35 -206.85 L-298.05 -206.45 Q-292.45 -206.45 -284.2 -208.1 L-270.3 -210.6 -268.15 -210.85 -282.05 -210.4 -289.8 -210.5 -296.85 -210.8 -299.1 -210.95 -301.55 -211.25 Q-303.35 -210.8 -305.45 -212.35 -307.9 -214.15 -310.65 -214.15 M-313.9 -210.7 L-313.35 -210.3 -313.7 -210.6 -313.9 -210.7" fill="#ffffff" fill-opacity="0.34901962" fill-rule="evenodd" stroke="none"/>
      <path d="M-310.65 -214.15 Q-307.9 -214.15 -305.45 -212.35 -303.35 -210.8 -301.55 -211.25 L-299.1 -210.95 -296.85 -210.8 -289.8 -210.5 -282.05 -210.4 -268.15 -210.85 -270.3 -210.6 -284.2 -208.1 Q-292.45 -206.45 -298.05 -206.45 L-304.35 -206.85 Q-306.5 -207.4 -309.05 -208.65 L-311.3 -209.85 -311.4 -209.95 Q-312.15 -211.25 -314.9 -212.45 L-318.25 -213.6 -314.8 -213.9 -310.65 -214.15 M-131.45 -222.9 Q-143.2 -221.65 -149.7 -220.15 L-160.3 -217.25 Q-164.8 -216.0 -170.1 -213.85 L-176.0 -211.3 -180.65 -211.45 -188.6 -212.65 -196.9 -213.2 Q-200.1 -213.3 -203.85 -214.25 -207.55 -215.15 -211.05 -215.3 L-211.15 -215.35 -210.65 -215.35 -199.9 -215.45 -197.0 -214.9 -194.5 -214.35 -191.0 -213.5 -182.0 -213.05 Q-169.9 -214.85 -154.25 -219.75 -140.6 -224.0 -121.95 -225.9 L-109.1 -226.05 Q-98.05 -225.2 -92.3 -223.85 L-85.75 -221.75 Q-81.6 -219.85 -80.9 -219.75 -78.45 -219.2 -78.0 -217.9 L-77.9 -216.4 Q-77.45 -215.4 -75.95 -214.3 L-77.7 -215.25 -85.25 -220.0 Q-91.1 -222.85 -100.6 -223.8 L-100.6 -223.55 -107.45 -223.15 -131.45 -222.9 M-329.1 -207.65 Q-329.65 -208.9 -330.3 -209.1 -329.35 -209.9 -326.95 -211.1 -324.4 -212.35 -322.9 -212.75 -327.8 -208.5 -328.65 -206.25 L-329.1 -207.65 M59.15 -216.35 L77.5 -218.75 93.05 -218.75 Q94.05 -218.3 97.55 -217.95 L98.55 -216.2 100.0 -214.35 Q100.35 -214.2 101.45 -213.75 L90.9 -215.3 Q89.3 -216.95 71.15 -216.7 L59.15 -216.35 M17.55 -209.2 L6.35 -206.3 Q-1.15 -204.5 -6.8 -204.5 L-23.7 -204.7 -29.9 -205.55 -33.0 -206.05 -30.35 -206.0 Q-24.15 -206.0 -15.9 -207.4 L-5.05 -209.2 3.45 -210.2 19.25 -211.55 35.9 -213.35 34.55 -212.95 27.0 -211.85 Q21.0 -209.9 17.55 -209.2 M163.75 -202.65 L171.3 -203.55 177.25 -204.6 176.65 -204.05 Q173.7 -202.45 169.85 -202.45 L163.75 -202.65" fill="#ffffff" fill-rule="evenodd" stroke="none"/>
    </g>
    <g id="shape3" transform="matrix(1.0, 0.0, 0.0, 1.0, 163.05, 340.25)">
      <path d="M-1.05 -220.4 L-0.5 -220.45 -0.7 -220.95 -1.2 -223.1 Q0.85 -223.5 5.85 -222.25 L11.25 -220.65 11.8 -219.7 12.1 -219.4 12.15 -219.3 Q13.4 -218.65 13.4 -217.55 L12.95 -216.65 Q12.5 -213.85 3.25 -211.75 -4.25 -210.05 -22.85 -207.75 L-33.15 -206.65 -33.3 -206.6 Q-35.55 -205.5 -47.3 -205.0 L-49.1 -204.8 -62.9 -203.1 -63.75 -202.85 -64.05 -202.65 -75.15 -202.7 -75.4 -202.9 -77.65 -203.0 -79.35 -203.05 -81.2 -203.25 Q-85.3 -203.2 -85.6 -203.3 L-85.8 -203.55 -87.6 -203.85 -90.0 -204.05 -92.6 -204.5 -100.8 -204.95 -101.8 -205.0 -106.65 -205.4 -108.65 -205.65 -108.75 -205.65 -108.8 -205.65 -113.45 -206.15 Q-121.5 -206.65 -139.15 -209.7 -163.05 -213.85 -163.05 -217.25 -163.05 -219.9 -160.9 -220.45 -159.65 -221.45 -156.4 -222.5 -150.95 -224.3 -145.85 -224.4 L-145.6 -224.45 Q-145.4 -224.35 -145.4 -223.4 L-145.4 -223.05 -145.6 -221.7 -145.4 -221.45 -145.75 -221.3 -146.3 -220.0 -146.45 -219.5 -145.9 -219.1 -145.4 -219.0 -139.9 -217.9 -136.95 -217.5 -136.8 -217.3 -136.1 -217.2 -130.15 -216.75 -129.0 -216.35 -128.6 -216.3 -126.3 -216.25 -124.35 -216.0 Q-120.1 -215.3 -116.25 -214.1 L-114.65 -213.5 -113.55 -212.85 -111.85 -212.15 Q-109.9 -211.2 -108.85 -210.35 -108.0 -209.65 -107.8 -209.0 L-105.75 -208.75 -104.25 -208.6 -102.45 -208.55 -96.6 -208.55 -88.8 -208.35 -86.1 -208.2 Q-85.65 -208.15 -85.3 -207.75 L-85.1 -207.5 -85.05 -207.4 -84.05 -207.15 -83.95 -207.1 -83.9 -207.1 -83.8 -207.05 Q-83.0 -206.8 -82.35 -206.45 L-80.45 -206.0 -80.0 -205.95 -79.95 -205.95 -79.5 -205.75 -77.6 -205.85 -71.85 -205.95 -67.5 -205.95 -65.25 -205.95 -64.95 -205.95 -64.85 -206.0 -63.9 -206.65 -62.4 -207.3 -61.35 -207.55 -59.95 -207.8 -59.75 -207.85 -59.0 -207.85 -56.8 -208.2 -55.55 -208.35 -43.9 -209.35 -40.25 -209.7 -39.7 -209.7 -37.35 -209.85 -36.55 -210.25 -35.95 -211.15 Q-34.85 -212.3 -32.4 -213.2 L-31.8 -213.45 Q-29.0 -214.45 -21.2 -216.0 L-21.2 -216.15 -20.65 -216.15 -16.95 -216.15 -16.65 -216.2 -15.15 -216.4 -15.15 -216.45 -15.1 -216.45 -8.15 -217.6 -2.25 -218.6 Q-1.9 -218.65 -0.95 -219.05 L-1.4 -220.0 -1.4 -220.4 -1.25 -220.4 -1.05 -220.4" fill="#403d56" fill-rule="evenodd" stroke="none"/>
      <path d="M-143.4 -229.7 L-143.35 -230.0 -140.95 -243.45 -140.9 -244.15 -140.85 -244.95 -140.85 -245.15 -140.85 -246.25 -140.85 -246.5 -140.85 -246.9 -140.05 -263.75 -139.25 -262.1 -137.85 -260.05 -138.05 -258.4 -138.9 -243.6 -138.85 -243.25 -138.95 -243.15 -139.15 -240.5 -137.5 -233.75 Q-140.3 -232.65 -142.85 -230.3 L-143.4 -229.7 M-135.65 -297.3 Q-132.8 -305.75 -127.9 -312.9 -117.3 -328.3 -99.05 -335.35 L-97.45 -335.95 -96.75 -336.2 -89.8 -338.25 -89.1 -338.4 -84.65 -339.25 -84.1 -339.35 Q-74.35 -340.9 -64.0 -339.8 L-63.8 -339.8 -63.6 -339.75 -63.45 -339.75 -63.1 -339.7 -62.8 -339.65 Q-43.6 -337.3 -28.85 -326.7 -20.5 -319.7 -15.65 -310.1 L-18.55 -312.1 -21.25 -313.95 -21.4 -314.2 -21.45 -314.25 -21.55 -314.45 Q-24.6 -318.15 -28.6 -321.45 L-30.6 -323.1 -34.0 -325.6 Q-52.05 -337.8 -72.65 -337.1 -93.25 -337.8 -111.3 -325.6 L-114.7 -323.1 -116.7 -321.45 Q-120.7 -318.15 -123.7 -314.45 L-126.25 -309.95 -126.6 -309.3 -126.9 -308.65 -127.2 -308.05 -130.1 -302.05 -130.45 -301.25 -130.5 -301.25 Q-133.45 -298.45 -135.65 -297.3 M-6.4 -277.15 L-5.0 -262.0 Q-3.3 -242.85 -3.3 -238.1 -3.3 -236.35 -3.75 -234.25 L-2.75 -228.45 -4.6 -228.6 Q-4.95 -228.6 -9.5 -226.25 L-9.95 -226.0 -8.25 -231.85 -8.0 -232.95 Q-6.5 -238.4 -6.1 -240.5 L-6.3 -243.15 -6.4 -243.25 -6.35 -243.6 -7.2 -258.4 Q-8.0 -265.65 -9.3 -274.95 L-9.3 -275.1 Q-8.4 -276.6 -7.15 -277.0 L-6.4 -277.15" fill="#7975a2" fill-rule="evenodd" stroke="none"/>
      <path d="M-15.1 -216.45 L-15.15 -216.45 -15.15 -216.4 -16.65 -216.2 Q-13.85 -222.9 -12.15 -227.9 L-12.3 -227.85 -12.3 -228.0 Q-12.3 -231.65 -15.15 -229.35 L-17.0 -227.35 -18.65 -226.1 Q-21.9 -223.85 -26.35 -219.9 L-35.2 -212.25 -35.95 -211.15 -36.55 -210.25 -37.35 -209.85 -39.7 -209.7 -40.0 -210.25 Q-40.15 -210.85 -40.45 -210.95 L-40.6 -211.25 Q-42.9 -212.0 -45.6 -213.45 L-46.2 -213.8 -52.1 -217.7 -54.15 -219.3 -55.45 -219.05 -55.85 -218.85 Q-56.45 -217.9 -56.95 -217.7 L-58.2 -214.1 Q-59.45 -210.85 -59.9 -208.15 L-59.95 -207.8 -61.35 -207.55 -60.35 -213.15 -60.05 -213.15 Q-59.35 -216.6 -58.35 -219.45 L-58.2 -219.4 -57.05 -220.75 Q-57.05 -222.3 -58.7 -226.85 -60.65 -232.15 -62.4 -233.3 L-62.5 -232.7 -62.2 -231.8 -62.4 -231.8 -62.5 -231.0 -62.5 -230.4 -62.75 -231.45 Q-63.65 -223.6 -63.65 -220.75 L-63.75 -215.55 -64.1 -212.1 -64.05 -212.1 -64.05 -209.85 -64.85 -206.0 -64.95 -205.95 -65.25 -205.95 -65.0 -207.6 -64.4 -226.85 -64.4 -235.45 Q-64.25 -240.4 -63.35 -243.55 L-57.8 -260.7 -57.45 -260.7 -57.45 -260.5 Q-53.75 -268.7 -47.45 -276.35 L-47.15 -276.75 -45.35 -278.8 -39.85 -284.85 -38.5 -286.3 -38.35 -286.45 -37.6 -287.35 -37.3 -287.65 -37.35 -287.65 -35.6 -289.95 Q-33.45 -293.1 -32.35 -296.0 L-31.7 -297.6 Q-30.75 -300.4 -29.15 -306.7 L-29.05 -306.8 -28.9 -307.65 -28.9 -308.25 -29.05 -313.0 Q-29.15 -314.5 -30.95 -318.25 L-31.55 -318.8 -39.55 -324.65 Q-54.9 -334.35 -72.65 -334.75 L-77.6 -334.45 Q-91.45 -333.05 -103.7 -325.8 L-104.75 -325.15 -104.95 -325.0 -105.05 -324.95 -105.15 -324.9 -105.35 -324.8 -110.9 -321.0 -111.1 -320.85 -111.3 -320.7 -111.5 -320.55 -112.0 -320.15 -112.5 -319.75 -113.7 -318.8 -114.3 -318.25 Q-116.15 -314.5 -116.2 -313.0 L-116.35 -308.35 -116.35 -308.25 -116.35 -307.65 -116.15 -306.7 -113.85 -298.5 -112.9 -296.0 Q-111.75 -292.9 -109.35 -289.55 L-107.65 -287.35 -106.75 -286.3 -103.15 -282.5 -100.5 -279.5 -99.6 -278.45 -98.2 -276.85 -98.15 -276.75 -98.1 -276.7 -97.9 -276.5 Q-93.45 -271.05 -90.25 -265.3 L-87.85 -260.5 -87.85 -260.7 -87.5 -260.7 -87.3 -260.15 -81.9 -243.55 -81.65 -242.6 Q-81.0 -239.65 -80.85 -235.45 L-80.85 -229.0 -80.85 -226.85 -80.25 -207.6 -80.0 -205.95 -80.45 -206.0 -81.25 -209.85 -81.25 -212.1 -81.15 -212.1 -81.55 -215.55 -81.6 -220.75 Q-81.6 -223.6 -82.5 -231.45 L-82.75 -230.4 -82.75 -231.0 Q-82.75 -232.2 -82.85 -231.8 L-83.05 -231.8 -82.75 -232.7 -82.85 -233.3 Q-84.65 -232.15 -86.55 -226.85 -88.2 -222.3 -88.2 -220.75 L-87.05 -219.4 -86.95 -219.45 Q-85.9 -216.6 -85.25 -213.15 L-84.95 -213.15 Q-84.6 -212.2 -83.8 -207.05 L-83.9 -207.1 -83.95 -207.1 -84.05 -207.15 -85.05 -207.4 -85.1 -207.5 -85.3 -207.75 -85.35 -208.15 Q-85.85 -210.85 -87.05 -214.1 L-88.3 -217.7 Q-88.8 -217.9 -89.4 -218.85 L-89.85 -219.05 -91.1 -219.3 -93.15 -217.7 Q-99.95 -212.7 -104.7 -211.25 L-104.8 -210.95 -105.3 -210.25 -105.85 -209.1 -105.75 -208.75 -107.8 -209.0 Q-108.0 -209.65 -108.85 -210.35 L-110.05 -212.25 -118.9 -219.9 Q-123.35 -223.85 -126.6 -226.1 L-128.25 -227.35 Q-128.9 -228.4 -130.15 -229.35 -132.95 -231.65 -132.95 -228.0 L-132.95 -227.85 -133.1 -227.9 Q-131.4 -222.95 -128.6 -216.3 L-129.0 -216.35 -130.15 -216.75 -132.25 -220.1 -134.25 -223.4 Q-135.15 -224.95 -137.3 -232.95 L-137.5 -233.75 -139.15 -240.5 -138.95 -243.15 -138.85 -243.25 -138.9 -243.6 -138.05 -258.4 -137.85 -260.05 -135.95 -274.95 Q-133.75 -289.85 -133.15 -296.1 L-130.5 -301.25 -130.45 -301.25 -130.1 -302.05 -127.2 -308.05 -126.9 -308.65 -126.6 -309.3 -126.25 -309.95 -123.7 -314.45 Q-120.7 -318.15 -116.7 -321.45 L-114.7 -323.1 -111.3 -325.6 Q-93.25 -337.8 -72.65 -337.1 -52.05 -337.8 -34.0 -325.6 L-30.6 -323.1 -28.6 -321.45 Q-24.6 -318.15 -21.55 -314.45 L-21.45 -314.25 -21.4 -314.2 -21.25 -313.95 -19.0 -309.95 -18.65 -309.3 -12.1 -296.1 Q-11.5 -289.9 -9.3 -275.1 L-9.3 -274.95 Q-8.0 -265.65 -7.2 -258.4 L-6.35 -243.6 -6.4 -243.25 -6.3 -243.15 -6.1 -240.5 Q-6.5 -238.4 -8.0 -232.95 L-8.25 -231.85 -9.95 -226.0 Q-10.6 -224.1 -11.0 -223.4 L-13.0 -220.1 -13.2 -219.8 -13.45 -219.45 -13.65 -219.1 -13.8 -218.95 -15.1 -216.45 M-20.6 -305.35 L-20.95 -306.7 -21.9 -308.7 -21.9 -309.2 -24.65 -312.25 Q-24.85 -307.6 -26.6 -302.7 L-29.25 -296.75 -30.3 -295.0 Q-32.4 -291.35 -36.95 -285.45 L-37.85 -284.25 -40.45 -281.05 -42.85 -278.15 -43.55 -277.25 -45.5 -274.8 Q-52.4 -266.15 -55.3 -261.05 -59.45 -253.95 -60.6 -247.2 L-61.05 -245.2 Q-61.25 -243.8 -61.25 -238.8 -61.25 -236.35 -60.8 -234.0 L-60.9 -233.6 -60.9 -233.35 -60.95 -233.3 -60.45 -232.1 -60.45 -232.0 -60.4 -231.85 -60.2 -231.3 Q-59.6 -229.15 -58.6 -226.95 L-57.95 -225.75 -57.9 -225.7 -57.9 -225.6 -57.35 -224.65 -57.3 -224.6 -56.75 -223.7 Q-55.45 -221.7 -53.9 -220.35 L-52.9 -219.6 -52.5 -219.4 Q-48.15 -215.15 -42.6 -213.8 -41.55 -213.2 -39.9 -213.2 L-38.65 -213.3 -38.6 -213.25 -37.35 -213.25 Q-35.2 -213.25 -27.25 -220.0 L-18.65 -227.3 -18.3 -227.7 Q-16.25 -229.2 -12.05 -235.05 L-11.3 -236.05 -10.85 -237.6 -9.55 -242.2 -10.15 -253.75 -10.4 -258.15 -10.4 -261.3 -10.45 -263.0 -10.85 -267.6 -10.9 -268.15 -11.1 -269.8 -11.4 -271.95 -13.15 -283.25 Q-14.3 -290.95 -17.95 -300.25 L-18.65 -302.0 -20.0 -304.75 -19.9 -304.3 -20.45 -304.45 -20.6 -305.35 M-134.75 -261.8 L-134.8 -261.8 -134.8 -261.2 -134.8 -260.95 -134.85 -259.05 -134.85 -258.15 -135.7 -242.2 -134.45 -237.6 -133.95 -236.05 -133.2 -235.05 Q-129.05 -229.2 -127.0 -227.7 L-126.6 -227.3 -118.0 -220.0 Q-112.9 -215.7 -110.2 -214.1 -109.65 -213.45 -108.3 -213.25 L-105.9 -212.85 Q-104.45 -212.85 -102.85 -213.8 -97.25 -215.1 -92.75 -219.4 -90.85 -220.45 -89.15 -222.65 L-88.5 -223.6 -87.9 -224.6 -87.55 -225.2 -87.3 -225.75 -86.8 -226.65 -86.55 -227.2 -86.25 -227.9 -85.4 -230.05 -85.35 -230.15 -85.25 -230.65 -85.05 -231.15 -85.05 -231.3 -84.8 -232.1 -84.35 -233.3 -84.45 -234.0 -84.4 -234.05 Q-84.0 -236.4 -84.0 -238.8 L-84.0 -238.95 -84.1 -243.95 -84.2 -245.2 -84.7 -247.2 Q-85.8 -253.55 -89.4 -260.15 L-89.95 -261.05 -90.25 -261.55 Q-93.3 -266.75 -100.15 -275.3 L-102.2 -277.9 -102.45 -278.15 -102.85 -278.7 -103.1 -278.95 -103.3 -279.25 -103.85 -279.9 -107.7 -284.75 -108.3 -285.45 -109.2 -286.7 Q-113.05 -291.75 -115.0 -295.0 L-115.7 -296.3 Q-118.6 -301.55 -119.85 -306.45 -120.55 -309.4 -120.6 -312.25 L-123.35 -309.2 -123.35 -308.7 -123.75 -307.75 -124.05 -307.1 -124.15 -306.9 -124.2 -306.85 -124.3 -306.7 -124.65 -305.15 -125.3 -304.5 -125.35 -304.2 -125.3 -304.75 -126.6 -302.0 -127.35 -300.25 Q-130.95 -290.95 -132.15 -283.25 L-133.95 -271.35 -134.0 -270.95 -134.1 -269.9 -134.2 -269.8 -134.75 -261.8" fill="#6c7054" fill-rule="evenodd" stroke="none"/>
      <path d="M-56.8 -208.2 L-59.0 -207.85 -59.75 -207.85 -59.95 -207.8 -59.9 -208.15 Q-59.45 -210.85 -58.2 -214.1 L-56.95 -217.7 Q-56.45 -217.9 -55.85 -218.85 L-55.45 -219.05 -54.15 -219.3 -52.1 -217.7 -46.2 -213.8 -49.6 -214.15 Q-55.0 -213.6 -56.8 -208.2 M-65.25 -205.95 L-67.5 -205.95 Q-67.4 -210.3 -68.3 -217.6 L-67.95 -229.8 -67.5 -238.0 Q-67.5 -249.35 -62.15 -260.05 -58.4 -267.45 -50.3 -277.25 -40.45 -289.25 -38.5 -292.2 -33.15 -300.35 -33.15 -307.4 -33.15 -332.3 -77.6 -334.45 L-72.65 -334.75 Q-54.9 -334.35 -39.55 -324.65 L-31.55 -318.8 -30.95 -318.25 Q-29.15 -314.5 -29.05 -313.0 L-28.9 -308.25 -28.9 -307.65 -29.05 -306.8 -29.15 -306.7 Q-30.75 -300.4 -31.7 -297.6 L-32.35 -296.0 Q-33.45 -293.1 -35.6 -289.95 L-37.35 -287.65 -37.3 -287.65 -37.6 -287.35 -38.35 -286.45 -38.5 -286.3 -39.85 -284.85 -45.35 -278.8 -47.15 -276.75 -47.45 -276.35 Q-53.75 -268.7 -57.45 -260.5 L-57.45 -260.7 -57.8 -260.7 -63.35 -243.55 Q-64.25 -240.4 -64.4 -235.45 L-64.4 -226.85 -65.0 -207.6 -65.25 -205.95 M-77.6 -205.85 L-79.5 -205.75 -79.95 -205.95 -80.0 -205.95 -80.25 -207.6 -80.85 -226.85 -80.85 -229.0 -80.85 -235.45 Q-81.0 -239.65 -81.65 -242.6 L-81.9 -243.55 -87.3 -260.15 -87.5 -260.7 -87.85 -260.7 -87.85 -260.5 -90.25 -265.3 Q-93.45 -271.05 -97.9 -276.5 L-98.1 -276.7 -98.15 -276.75 -98.2 -276.85 -99.6 -278.45 -100.5 -279.5 -103.15 -282.5 -106.75 -286.3 -107.65 -287.35 -109.35 -289.55 Q-111.75 -292.9 -112.9 -296.0 L-113.85 -298.5 -116.15 -306.7 -116.35 -307.65 -116.35 -308.25 -116.35 -308.35 -116.2 -313.0 Q-116.15 -314.5 -114.3 -318.25 L-113.7 -318.8 -112.5 -319.75 -112.0 -320.15 -111.5 -320.55 -111.3 -320.7 -111.1 -320.85 -110.9 -321.0 -105.35 -324.8 -105.15 -324.9 -105.05 -324.95 -104.95 -325.0 -104.75 -325.15 Q-108.55 -322.1 -111.1 -318.7 -113.9 -315.0 -113.9 -312.75 -113.9 -302.9 -111.9 -298.85 -110.9 -296.8 -100.65 -283.35 L-89.25 -268.2 Q-84.5 -261.2 -81.9 -254.4 -78.75 -246.05 -78.2 -219.05 -78.0 -210.45 -77.6 -205.85 M-85.3 -207.75 Q-85.65 -208.15 -86.1 -208.2 L-88.8 -208.35 Q-89.7 -211.75 -91.1 -213.5 L-97.0 -213.5 Q-98.5 -212.35 -102.4 -211.15 -104.0 -210.65 -104.25 -208.6 L-105.75 -208.75 -105.85 -209.1 -105.3 -210.25 -104.8 -210.95 -104.7 -211.25 Q-99.95 -212.7 -93.15 -217.7 L-91.1 -219.3 -89.85 -219.05 -89.4 -218.85 Q-88.8 -217.9 -88.3 -217.7 L-87.05 -214.1 Q-85.85 -210.85 -85.35 -208.15 L-85.3 -207.75 M-20.6 -305.35 L-20.65 -305.35 -21.0 -304.45 -20.45 -303.15 Q-20.6 -301.35 -21.5 -298.9 L-21.6 -298.6 -21.8 -298.25 -24.3 -293.25 -25.05 -291.9 -25.3 -291.45 -28.85 -286.2 -28.6 -287.9 -28.75 -288.4 Q-44.7 -277.35 -53.3 -263.25 -60.9 -250.8 -61.25 -238.8 -61.25 -243.8 -61.05 -245.2 L-60.6 -247.2 Q-59.45 -253.95 -55.3 -261.05 -52.4 -266.15 -45.5 -274.8 L-43.55 -277.25 -42.85 -278.15 -40.45 -281.05 -37.85 -284.25 -36.95 -285.45 Q-32.4 -291.35 -30.3 -295.0 L-29.25 -296.75 -26.6 -302.7 Q-24.85 -307.6 -24.65 -312.25 L-21.9 -309.2 -21.9 -308.7 -20.95 -306.7 -20.6 -305.35 M-19.9 -304.3 L-20.0 -304.75 -18.65 -302.0 -17.95 -300.25 Q-14.3 -290.95 -13.15 -283.25 L-11.4 -271.95 -11.1 -269.8 -10.9 -268.15 -11.1 -268.05 -12.55 -270.15 -13.5 -271.35 Q-19.5 -278.4 -29.6 -277.95 L-25.8 -281.65 -24.75 -281.7 Q-22.4 -281.7 -19.25 -278.8 L-16.1 -275.5 Q-15.45 -276.0 -15.2 -276.45 -14.8 -277.1 -14.8 -278.25 -14.8 -287.7 -20.25 -297.0 -20.0 -299.35 -19.9 -302.0 L-19.9 -302.3 -19.9 -303.15 -19.9 -303.6 -19.9 -303.7 -19.9 -304.3 M-10.45 -263.0 L-10.4 -261.3 -10.4 -258.15 -10.15 -253.75 -9.55 -242.2 -10.85 -237.6 -11.3 -236.05 -12.05 -235.05 Q-16.25 -229.2 -18.3 -227.7 L-18.65 -227.3 -27.25 -220.0 Q-35.2 -213.25 -37.35 -213.25 L-38.6 -213.25 -38.65 -213.3 -39.9 -213.2 Q-41.55 -213.2 -42.6 -213.8 -48.15 -215.15 -52.5 -219.4 L-52.9 -219.6 -53.9 -220.35 Q-55.8 -222.75 -55.8 -224.3 -55.8 -227.2 -54.8 -230.9 L-54.35 -229.5 -54.1 -229.0 -53.65 -228.2 Q-50.2 -222.2 -39.9 -221.55 -27.25 -223.6 -19.8 -233.8 L-18.65 -235.5 Q-16.7 -239.05 -15.55 -243.2 -14.55 -246.95 -14.55 -248.8 L-14.7 -251.65 -14.1 -255.5 -13.6 -257.4 Q-12.6 -261.1 -12.45 -262.35 L-11.95 -262.7 -12.45 -263.2 -12.55 -263.55 -11.55 -263.35 -10.45 -263.0 M-124.2 -306.85 L-124.15 -306.9 -124.05 -307.1 -123.75 -307.75 -123.35 -308.7 -123.35 -309.2 -120.6 -312.25 Q-120.55 -309.4 -119.85 -306.45 -118.6 -301.55 -115.7 -296.3 L-115.0 -295.0 Q-113.05 -291.75 -109.2 -286.7 L-108.3 -285.45 -107.7 -284.75 -103.85 -279.9 -103.3 -279.25 -103.1 -278.95 -102.85 -278.7 -102.45 -278.15 -102.2 -277.9 -100.15 -275.3 Q-93.3 -266.75 -90.25 -261.55 L-89.95 -261.05 -89.4 -260.15 Q-85.8 -253.55 -84.7 -247.2 L-84.2 -245.2 -84.1 -243.95 -84.0 -238.95 -84.0 -238.8 Q-84.0 -236.4 -84.4 -234.05 L-84.45 -234.0 -84.35 -233.3 -84.8 -232.1 -85.05 -231.3 -85.05 -231.15 -85.25 -230.65 -85.35 -230.15 -85.4 -230.05 -86.25 -227.9 -86.55 -227.2 -86.8 -226.65 -87.3 -225.75 -87.55 -225.2 -87.9 -224.6 -88.5 -223.6 -89.15 -222.65 Q-90.85 -220.45 -92.75 -219.4 -97.25 -215.1 -102.85 -213.8 -104.45 -212.85 -105.9 -212.85 L-108.3 -213.25 Q-109.65 -213.45 -110.2 -214.1 -112.9 -215.7 -118.0 -220.0 L-126.6 -227.3 -127.0 -227.7 Q-129.05 -229.2 -133.2 -235.05 L-133.95 -236.05 -134.45 -237.6 -135.7 -242.2 -134.85 -258.15 -134.85 -259.05 -134.8 -260.95 -134.8 -261.2 -134.8 -261.8 -134.75 -261.8 -132.6 -263.9 -132.8 -263.2 -133.35 -262.7 -133.2 -262.65 -132.8 -262.35 -131.65 -257.4 Q-130.85 -254.7 -130.6 -252.2 L-130.55 -251.65 -130.75 -248.8 Q-130.75 -246.95 -129.7 -243.2 -128.55 -239.05 -126.6 -235.5 L-125.45 -233.8 Q-118.0 -223.6 -105.35 -221.55 -94.7 -222.2 -91.3 -228.7 L-90.65 -230.3 Q-90.15 -231.6 -89.95 -233.15 L-89.85 -235.05 -89.8 -236.0 Q-88.95 -233.8 -88.25 -230.7 L-88.2 -230.15 Q-85.5 -234.3 -85.5 -238.95 -85.5 -257.55 -100.0 -273.85 L-110.0 -284.3 Q-112.3 -286.85 -113.4 -288.95 L-113.45 -289.0 Q-116.05 -291.55 -118.45 -295.05 -122.65 -301.45 -124.2 -306.85 M-134.0 -270.95 L-133.95 -271.35 -132.15 -283.25 Q-130.95 -290.95 -127.35 -300.25 L-126.6 -302.0 -125.3 -304.75 -125.35 -304.2 -125.35 -301.95 -125.3 -301.0 Q-127.5 -299.05 -129.2 -293.7 L-131.15 -285.05 -131.2 -281.95 Q-131.1 -280.65 -129.8 -280.0 -127.45 -278.85 -116.45 -278.7 L-115.6 -277.9 -114.6 -277.1 -114.5 -277.0 -116.8 -277.15 Q-125.6 -277.55 -131.5 -273.1 L-131.95 -272.8 -134.0 -270.95" fill="url(#gradient0)" fill-rule="evenodd" stroke="none"/>
      <path d="M-43.9 -209.35 L-55.55 -208.35 -56.8 -208.2 Q-55.0 -213.6 -49.6 -214.15 L-46.2 -213.8 -45.6 -213.45 Q-43.95 -212.35 -43.9 -209.35 M-67.5 -205.95 L-71.85 -205.95 -77.6 -205.85 Q-78.0 -210.45 -78.2 -219.05 -78.75 -246.05 -81.9 -254.4 -84.5 -261.2 -89.25 -268.2 L-100.65 -283.35 Q-110.9 -296.8 -111.9 -298.85 -113.9 -302.9 -113.9 -312.75 -113.9 -315.0 -111.1 -318.7 -108.55 -322.1 -104.75 -325.15 L-103.7 -325.8 Q-91.45 -333.05 -77.6 -334.45 -33.15 -332.3 -33.15 -307.4 -33.15 -300.35 -38.5 -292.2 -40.45 -289.25 -50.3 -277.25 -58.4 -267.45 -62.15 -260.05 -67.5 -249.35 -67.5 -238.0 L-67.95 -229.8 -68.3 -217.6 Q-67.4 -210.3 -67.5 -205.95 M-88.8 -208.35 L-96.6 -208.55 -102.45 -208.55 -104.25 -208.6 Q-104.0 -210.65 -102.4 -211.15 -98.5 -212.35 -97.0 -213.5 L-91.1 -213.5 Q-89.7 -211.75 -88.8 -208.35 M-75.1 -323.8 L-76.95 -323.45 Q-78.4 -323.05 -79.55 -322.2 L-79.8 -322.0 -79.7 -322.0 -80.8 -321.0 Q-82.2 -319.4 -82.4 -317.3 L-82.4 -317.15 -82.45 -316.8 -82.45 -316.75 -82.45 -316.55 -82.45 -316.2 Q-82.4 -314.6 -81.7 -313.35 -79.6 -309.5 -71.5 -309.5 -67.55 -309.5 -65.55 -311.9 L-64.9 -312.7 -64.45 -313.45 -64.35 -313.85 -63.9 -315.5 -63.9 -315.75 -63.9 -316.05 -63.9 -316.5 -63.9 -316.65 -63.9 -316.8 -63.95 -317.35 -63.95 -317.45 -65.5 -320.8 -66.35 -321.65 -66.75 -322.0 Q-68.2 -323.15 -70.05 -323.65 L-71.3 -323.9 -73.1 -324.0 -74.95 -323.9 -75.1 -323.8 M-43.85 -317.5 Q-46.0 -323.3 -52.65 -327.45 -61.25 -332.75 -73.5 -333.25 -85.95 -333.75 -94.45 -328.95 -102.0 -324.75 -103.4 -317.5 L-103.4 -317.45 -103.6 -316.2 -103.85 -313.6 -103.85 -313.1 -103.85 -312.8 -103.85 -312.5 -103.4 -307.85 -103.05 -305.9 -101.95 -301.75 Q-101.15 -299.4 -99.95 -297.1 L-99.85 -296.8 -99.0 -295.3 -97.95 -293.55 -97.6 -293.0 -97.15 -292.3 -95.8 -290.3 -95.0 -288.8 -93.55 -286.2 -92.3 -284.1 -91.95 -283.45 -91.4 -282.5 -90.5 -281.05 -89.4 -279.15 -88.7 -278.0 -87.9 -276.75 Q-83.9 -270.2 -81.4 -264.85 L-81.3 -264.55 Q-79.5 -260.95 -78.4 -257.8 -73.55 -245.0 -73.5 -230.05 L-73.5 -229.15 -72.8 -229.15 Q-71.55 -244.8 -71.55 -248.1 -71.6 -256.75 -73.5 -264.55 L-73.55 -264.85 -75.4 -270.75 -77.7 -276.4 -77.9 -276.8 -78.25 -277.6 -80.2 -281.35 -80.25 -281.55 -80.4 -281.7 -80.85 -282.7 -80.95 -282.75 -81.5 -283.7 -81.65 -284.0 -82.65 -285.8 -82.7 -285.9 -83.6 -287.45 -84.65 -289.25 -85.35 -290.3 -85.65 -290.7 -86.2 -291.4 -88.75 -294.8 -88.85 -295.05 -89.45 -295.9 -89.85 -296.4 -90.75 -297.75 -91.95 -299.7 -92.0 -299.9 Q-93.35 -302.25 -94.2 -304.6 L-95.35 -309.2 -95.45 -309.85 -95.8 -313.45 -95.8 -313.6 -95.8 -313.75 -95.8 -313.95 Q-95.8 -315.6 -95.1 -317.5 L-94.15 -319.35 -94.1 -319.4 -93.95 -319.65 -93.45 -320.3 -93.55 -320.3 -91.7 -322.6 Q-85.9 -329.5 -76.2 -329.75 -60.95 -330.3 -54.5 -322.65 -52.7 -320.5 -51.8 -317.9 L-51.75 -317.75 -51.65 -317.5 -51.55 -317.2 -51.5 -317.0 -51.45 -316.8 -51.3 -316.5 -51.25 -316.25 -51.2 -316.0 -51.15 -315.7 -50.95 -314.85 -50.75 -313.1 -50.7 -312.15 -50.7 -311.4 -50.75 -310.0 -50.75 -309.9 Q-51.0 -307.2 -52.1 -304.5 -53.05 -302.15 -54.7 -299.7 L-57.35 -295.35 -57.55 -295.1 -57.9 -294.3 Q-58.75 -292.6 -58.75 -291.75 L-58.6 -291.05 Q-58.2 -291.25 -57.8 -291.05 L-53.85 -293.3 -53.35 -293.6 -53.2 -293.7 Q-46.95 -297.7 -44.75 -301.3 L-44.65 -301.55 Q-43.6 -303.6 -43.2 -306.9 L-43.2 -307.15 -43.15 -307.75 -43.0 -311.3 -43.0 -311.6 -43.0 -311.95 -43.25 -314.75 -43.25 -314.8 -43.55 -316.35 -43.85 -317.5 M-61.25 -238.8 Q-60.9 -250.8 -53.3 -263.25 -44.7 -277.35 -28.75 -288.4 L-28.6 -287.9 -28.85 -286.2 -29.5 -285.25 -30.2 -284.25 -30.2 -284.2 -33.75 -279.55 -36.05 -276.55 -36.85 -275.6 -38.85 -273.0 -41.35 -269.8 -41.75 -270.0 -42.85 -270.8 -42.15 -269.8 -41.8 -269.25 -42.4 -268.5 -42.7 -268.1 -48.05 -260.95 -51.25 -255.6 -51.35 -255.6 -51.6 -255.0 -51.8 -254.6 -53.5 -249.6 -53.55 -249.3 -53.95 -247.8 -54.9 -243.55 -55.0 -240.75 -55.0 -240.7 -55.05 -240.1 -55.1 -238.8 -55.5 -236.2 -55.3 -233.15 -54.8 -230.9 Q-55.8 -227.2 -55.8 -224.3 -55.8 -222.75 -53.9 -220.35 -55.45 -221.7 -56.75 -223.7 L-57.3 -224.6 -57.35 -224.65 -57.9 -225.6 -57.9 -225.7 -57.95 -225.75 -58.6 -226.95 Q-59.6 -229.15 -60.2 -231.3 L-60.4 -231.85 -60.45 -232.0 -60.45 -232.1 -60.8 -233.85 -60.9 -233.6 -60.8 -234.0 Q-61.25 -236.35 -61.25 -238.8 M-20.25 -297.0 Q-14.8 -287.7 -14.8 -278.25 -14.8 -277.1 -15.2 -276.45 -15.45 -276.0 -16.1 -275.5 L-19.25 -278.8 Q-22.4 -281.7 -24.75 -281.7 L-25.8 -281.65 -24.05 -283.95 -23.9 -284.15 Q-23.15 -285.4 -22.45 -287.0 -21.15 -290.25 -20.55 -294.55 L-20.25 -296.75 -20.25 -297.0 M-124.2 -306.85 Q-122.65 -301.45 -118.45 -295.05 -116.05 -291.55 -113.45 -289.0 L-113.4 -288.95 Q-112.3 -286.85 -110.0 -284.3 L-100.0 -273.85 Q-85.5 -257.55 -85.5 -238.95 -85.5 -234.3 -88.2 -230.15 L-88.25 -230.7 Q-88.95 -233.8 -89.8 -236.0 L-89.8 -236.2 -89.9 -237.25 -90.0 -238.05 -90.15 -238.8 -90.2 -240.1 -90.4 -243.55 Q-90.65 -245.8 -91.3 -247.8 L-92.4 -251.65 -92.7 -252.6 -93.0 -253.35 -93.8 -255.3 -93.9 -255.6 -94.0 -255.6 -94.55 -256.55 -94.55 -256.65 -94.7 -256.9 -94.7 -256.8 -95.6 -258.35 -97.25 -260.95 Q-99.4 -264.1 -104.9 -271.1 L-105.05 -271.3 -107.85 -274.8 -107.95 -275.0 -108.15 -275.25 -108.45 -275.6 -108.75 -275.95 -114.0 -282.8 -115.7 -285.1 -116.55 -286.4 -120.35 -292.25 -121.2 -293.75 -121.65 -294.5 -122.05 -295.35 -122.25 -295.65 Q-124.45 -299.9 -124.75 -302.7 L-124.75 -303.05 -124.8 -303.65 -124.65 -305.15 -124.3 -306.7 -124.2 -306.85 M-125.3 -301.0 L-125.2 -299.7 -125.15 -298.45 Q-124.85 -293.85 -123.85 -290.2 -122.9 -286.7 -121.35 -284.15 -120.3 -282.4 -117.95 -280.15 L-116.45 -278.7 Q-127.45 -278.85 -129.8 -280.0 -131.1 -280.65 -131.2 -281.95 L-131.15 -285.05 -129.2 -293.7 Q-127.5 -299.05 -125.3 -301.0" fill="url(#gradient1)" fill-rule="evenodd" stroke="none"/>
      <path d="M-75.1 -323.8 L-74.95 -323.9 -73.1 -324.0 -71.3 -323.9 -70.05 -323.65 Q-68.2 -323.15 -66.75 -322.0 L-66.35 -321.65 -65.5 -320.8 -63.95 -317.45 -63.95 -317.35 -63.9 -316.8 -63.9 -316.65 -63.9 -316.5 -63.9 -316.05 -63.9 -315.75 -63.9 -315.5 -64.35 -313.85 -64.45 -313.45 -64.9 -312.7 -65.55 -311.9 Q-67.55 -309.5 -71.5 -309.5 -79.6 -309.5 -81.7 -313.35 -82.4 -314.6 -82.45 -316.2 L-82.45 -316.55 -82.45 -316.75 -82.45 -316.8 -82.4 -317.15 -82.4 -317.3 Q-82.2 -319.4 -80.8 -321.0 L-79.7 -322.0 -79.8 -322.0 -79.55 -322.2 Q-78.4 -323.05 -76.95 -323.45 L-75.1 -323.8 M-43.85 -317.5 L-43.55 -316.35 -43.25 -314.8 -43.25 -314.75 -43.0 -311.95 -43.0 -311.6 -43.0 -311.3 -43.15 -307.75 -43.2 -307.15 -43.2 -306.9 Q-43.6 -303.6 -44.65 -301.55 L-44.75 -301.3 Q-46.95 -297.7 -53.2 -293.7 L-53.35 -293.6 -53.85 -293.3 -57.8 -291.05 Q-58.2 -291.25 -58.6 -291.05 L-58.75 -291.75 Q-58.75 -292.6 -57.9 -294.3 L-57.55 -295.1 -57.35 -295.35 -54.7 -299.7 Q-53.05 -302.15 -52.1 -304.5 -51.0 -307.2 -50.75 -309.9 L-50.75 -310.0 -50.7 -311.4 -50.7 -312.15 -50.75 -313.1 -50.95 -314.85 -51.15 -315.7 -51.2 -316.0 -51.25 -316.25 -51.3 -316.5 -51.45 -316.8 -51.5 -317.0 -51.55 -317.2 -51.65 -317.5 -51.75 -317.75 -51.8 -317.9 Q-52.7 -320.5 -54.5 -322.65 -60.95 -330.3 -76.2 -329.75 -85.9 -329.5 -91.7 -322.6 L-93.55 -320.3 -93.45 -320.3 -93.95 -319.65 -94.1 -319.4 -94.15 -319.35 -95.1 -317.5 Q-95.8 -315.6 -95.8 -313.95 L-95.8 -313.75 -95.8 -313.6 -95.8 -313.45 -95.45 -309.85 -95.35 -309.2 -94.2 -304.6 Q-93.35 -302.25 -92.0 -299.9 L-91.95 -299.7 -90.75 -297.75 -89.85 -296.4 -89.45 -295.9 -88.85 -295.05 -88.75 -294.8 -86.2 -291.4 -85.65 -290.7 -85.35 -290.3 -84.65 -289.25 -83.6 -287.45 -82.7 -285.9 -82.65 -285.8 -81.65 -284.0 -81.5 -283.7 -80.95 -282.75 -80.85 -282.7 -80.4 -281.7 -80.25 -281.55 -80.2 -281.35 -78.25 -277.6 -77.9 -276.8 -77.7 -276.4 -75.4 -270.75 -73.55 -264.85 -73.5 -264.55 Q-71.6 -256.75 -71.55 -248.1 -71.55 -244.8 -72.8 -229.15 L-73.5 -229.15 -73.5 -230.05 Q-73.55 -245.0 -78.4 -257.8 -79.5 -260.95 -81.3 -264.55 L-81.4 -264.85 Q-83.9 -270.2 -87.9 -276.75 L-88.7 -278.0 -89.4 -279.15 -90.5 -281.05 -91.4 -282.5 -91.95 -283.45 -92.3 -284.1 -93.55 -286.2 -95.0 -288.8 -95.8 -290.3 -97.15 -292.3 -97.6 -293.0 -97.95 -293.55 -99.0 -295.3 -99.85 -296.8 -99.95 -297.1 Q-101.15 -299.4 -101.95 -301.75 L-103.05 -305.9 -103.4 -307.85 -103.85 -312.5 -103.85 -312.8 -103.85 -313.1 -103.85 -313.6 -103.6 -316.2 -103.4 -317.45 -103.4 -317.5 Q-102.0 -324.75 -94.45 -328.95 -85.95 -333.75 -73.5 -333.25 -61.25 -332.75 -52.65 -327.45 -46.0 -323.3 -43.85 -317.5 M-28.85 -286.2 L-25.3 -291.45 -25.05 -291.9 -24.3 -293.25 -24.65 -292.55 -24.45 -292.55 Q-22.65 -292.55 -20.55 -294.55 -21.15 -290.25 -22.45 -287.0 -23.15 -285.4 -23.9 -284.15 L-24.05 -283.95 -25.8 -281.65 -29.6 -277.95 -30.45 -277.25 -33.35 -274.95 Q-40.75 -269.25 -44.75 -262.65 L-46.35 -259.85 -46.65 -259.3 Q-48.2 -257.95 -49.45 -256.9 L-48.95 -257.0 Q-50.05 -254.75 -53.55 -249.3 L-53.5 -249.6 -51.8 -254.6 -51.6 -255.0 -51.35 -255.6 -51.25 -255.6 -48.05 -260.95 -42.7 -268.1 -42.4 -268.5 -41.8 -269.25 -41.35 -269.8 -38.85 -273.0 -36.85 -275.6 -36.05 -276.55 -33.75 -279.55 -30.2 -284.2 -30.2 -284.25 -29.5 -285.25 -28.85 -286.2 M-116.55 -286.4 L-115.7 -285.1 -114.0 -282.8 -108.75 -275.95 -108.45 -275.6 -108.15 -275.25 -107.95 -275.0 -107.85 -274.8 -105.05 -271.3 -104.9 -271.1 Q-99.4 -264.1 -97.25 -260.95 L-95.6 -258.35 -94.7 -256.8 -94.7 -256.9 -94.55 -256.65 -94.55 -256.55 -94.0 -255.6 -93.9 -255.6 -93.8 -255.3 -93.0 -253.35 -92.7 -252.6 -92.4 -251.65 -93.85 -253.2 Q-95.9 -255.6 -98.25 -259.4 L-100.8 -263.1 -100.95 -263.3 Q-103.95 -268.1 -108.75 -272.35 L-109.05 -272.65 -109.4 -272.85 -110.0 -273.4 -110.8 -274.1 -111.4 -274.55 -111.9 -274.95 -112.05 -275.05 -113.1 -275.9 -113.45 -276.15 -114.45 -277.0 -114.5 -277.0 -114.6 -277.1 -115.6 -277.9 -116.45 -278.7 -117.95 -280.15 Q-120.3 -282.4 -121.35 -284.15 -122.9 -286.7 -123.85 -290.2 -124.85 -293.85 -125.15 -298.45 -123.85 -295.65 -122.2 -293.1 -119.5 -289.05 -116.55 -286.4 M-129.9 -249.55 L-129.9 -254.05 Q-129.5 -257.1 -127.75 -257.25 -125.8 -252.8 -124.65 -248.65 -124.0 -246.2 -122.8 -243.55 L-121.4 -240.3 Q-114.85 -226.65 -98.1 -226.1 -97.45 -225.7 -96.45 -225.7 -95.4 -225.7 -94.6 -226.2 -97.9 -223.6 -102.8 -223.6 -119.15 -223.6 -126.5 -236.7 L-126.6 -236.9 Q-129.4 -243.0 -130.0 -249.5 L-129.9 -249.55 M-15.4 -249.55 L-15.25 -249.5 Q-15.85 -243.0 -18.65 -236.9 L-18.75 -236.7 Q-26.1 -223.6 -42.45 -223.6 -47.35 -223.6 -50.65 -226.2 -49.85 -225.7 -48.8 -225.7 -47.8 -225.7 -47.2 -226.1 -30.4 -226.65 -23.85 -240.3 L-22.45 -243.55 Q-21.25 -246.2 -20.6 -248.65 -19.45 -252.8 -17.5 -257.25 -15.75 -257.1 -15.4 -254.05 L-15.4 -249.55" fill="url(#gradient2)" fill-rule="evenodd" stroke="none"/>
      <path d="M-20.45 -303.15 L-21.0 -304.45 -20.65 -305.35 -20.6 -305.35 -20.45 -304.45 -20.45 -303.65 -20.45 -303.15 M-11.1 -268.05 L-10.9 -268.15 -10.85 -267.6 -11.1 -268.05" fill="#ecedb6" fill-rule="evenodd" stroke="none"/>
      <path d="M-24.3 -293.25 L-21.8 -298.25 -21.6 -298.6 -21.5 -298.9 Q-20.6 -301.35 -20.45 -303.15 L-20.45 -303.65 -20.45 -304.45 -19.9 -304.3 -19.9 -303.7 -19.9 -303.6 -19.9 -303.15 -19.9 -302.3 -19.9 -302.0 Q-20.0 -299.35 -20.25 -297.0 L-20.25 -296.75 -20.55 -294.55 Q-22.65 -292.55 -24.45 -292.55 L-24.65 -292.55 -24.3 -293.25 M-125.35 -304.2 L-125.3 -304.5 -124.65 -305.15 -124.8 -303.65 -124.75 -303.05 -124.75 -302.7 Q-124.45 -299.9 -122.25 -295.65 L-122.05 -295.35 -121.65 -294.5 -121.2 -293.75 -120.35 -292.25 -116.55 -286.4 Q-119.5 -289.05 -122.2 -293.1 -123.85 -295.65 -125.15 -298.45 L-125.2 -299.7 -125.3 -301.0 -125.35 -301.95 -125.35 -304.2" fill="#f7552d" fill-rule="evenodd" stroke="none"/>
      <path d="M-145.4 -223.05 L-143.75 -228.65 -143.4 -229.7 -142.85 -230.3 Q-140.3 -232.65 -137.5 -233.75 L-137.3 -232.95 Q-135.15 -224.95 -134.25 -223.4 L-132.25 -220.1 -130.15 -216.75 -136.1 -217.2 -136.8 -217.3 -136.95 -217.5 -139.9 -217.9 -145.4 -219.0 -145.9 -219.1 -146.45 -219.5 -146.3 -220.0 -145.75 -221.3 -145.4 -221.45 -145.6 -221.7 -145.4 -223.05 M-140.05 -263.75 L-139.65 -271.25 Q-139.65 -285.55 -135.65 -297.3 -133.45 -298.45 -130.5 -301.25 L-133.15 -296.1 Q-133.75 -289.85 -135.95 -274.95 L-137.85 -260.05 -139.25 -262.1 -140.05 -263.75 M-89.8 -338.25 L-84.1 -339.35 -84.65 -339.25 -89.1 -338.4 -89.8 -338.25 M-15.65 -310.1 Q-14.3 -307.45 -13.25 -304.65 -11.55 -300.15 -9.85 -293.25 L-7.0 -282.0 -6.4 -277.15 -7.15 -277.0 Q-8.4 -276.6 -9.3 -275.1 -11.5 -289.9 -12.1 -296.1 L-18.65 -309.3 -19.0 -309.95 -21.25 -313.95 -18.55 -312.1 -15.65 -310.1 M-2.75 -228.45 L-1.05 -220.4 -1.25 -220.4 -1.4 -220.4 -1.4 -220.0 -0.95 -219.05 Q-1.9 -218.65 -2.25 -218.6 L-8.15 -217.6 -15.1 -216.45 -13.8 -218.95 -13.65 -219.1 -13.45 -219.45 -13.2 -219.8 -13.0 -220.1 -11.0 -223.4 Q-10.6 -224.1 -9.95 -226.0 L-9.5 -226.25 Q-4.95 -228.6 -4.6 -228.6 L-2.75 -228.45" fill="#5e5a85" fill-rule="evenodd" stroke="none"/>
      <path d="M-20.65 -216.15 L-21.2 -216.15 -21.2 -216.0 Q-29.0 -214.45 -31.8 -213.45 L-32.4 -213.2 Q-26.35 -221.2 -16.95 -224.35 L-20.65 -216.15 M-114.65 -213.5 L-116.25 -214.1 Q-120.1 -215.3 -124.35 -216.0 L-126.3 -216.25 Q-130.15 -225.0 -130.15 -226.3 -130.15 -227.9 -129.8 -227.0 -120.9 -223.8 -114.65 -213.5 M-29.6 -277.95 Q-19.5 -278.4 -13.5 -271.35 L-12.55 -270.15 -11.1 -268.05 -10.85 -267.6 -10.45 -263.0 -11.55 -263.35 -12.55 -263.55 -12.6 -263.9 -13.4 -264.85 -13.45 -264.85 -13.55 -265.0 Q-13.6 -264.95 -13.8 -264.85 L-13.95 -264.8 -15.15 -266.05 Q-16.45 -267.05 -18.65 -267.85 L-23.75 -269.0 Q-23.75 -269.25 -27.05 -269.0 L-31.6 -268.5 -32.05 -268.2 Q-35.3 -267.4 -38.6 -265.5 -43.9 -262.35 -47.5 -257.55 L-46.65 -259.3 -46.35 -259.85 -44.75 -262.65 Q-40.75 -269.25 -33.35 -274.95 L-30.45 -277.25 -29.6 -277.95 M-132.6 -263.9 L-134.75 -261.8 -134.2 -269.8 -134.1 -269.9 -134.0 -270.95 -131.95 -272.8 -131.5 -273.1 Q-125.6 -277.55 -116.8 -277.15 L-114.5 -277.0 -114.45 -277.0 -113.45 -276.15 -113.1 -275.9 -112.05 -275.05 -111.9 -274.95 -111.4 -274.55 -110.8 -274.1 -110.0 -273.4 -109.4 -272.85 -109.05 -272.65 -108.75 -272.35 Q-103.95 -268.1 -100.95 -263.3 L-100.8 -263.1 -100.5 -262.65 Q-99.05 -260.25 -97.75 -257.55 -101.35 -262.35 -106.7 -265.5 -109.95 -267.4 -113.2 -268.2 L-113.65 -268.5 -118.2 -269.0 Q-121.5 -269.25 -121.5 -269.0 L-126.6 -267.85 Q-128.8 -267.05 -130.15 -266.05 L-131.35 -264.8 -131.7 -265.0 Q-132.35 -264.65 -132.6 -263.9" fill="#b5c987" fill-rule="evenodd" stroke="none"/>
      <path d="M-112.7 -261.9 L-112.55 -261.85 -108.8 -260.25 -106.45 -259.1 -104.8 -257.65 Q-103.05 -255.75 -101.25 -253.35 -97.1 -247.95 -94.2 -241.55 L-92.45 -237.25 -92.15 -235.75 -92.15 -235.3 -92.1 -233.05 Q-92.3 -232.15 -92.95 -231.05 L-93.7 -229.75 -94.0 -229.85 -97.95 -229.5 Q-111.4 -229.5 -119.1 -244.35 -120.75 -247.55 -124.15 -256.1 L-124.5 -257.1 Q-124.15 -258.45 -122.65 -259.55 -119.65 -261.8 -112.9 -261.9 L-112.8 -261.9 -112.7 -261.9 M-32.45 -261.9 L-32.35 -261.9 Q-25.6 -261.8 -22.6 -259.55 -21.15 -258.45 -20.75 -257.1 L-21.15 -256.1 Q-24.55 -247.55 -26.15 -244.35 -33.85 -229.5 -47.3 -229.5 L-51.25 -229.85 -51.55 -229.75 -52.35 -231.05 -53.2 -233.05 -53.1 -235.3 -53.1 -235.75 -52.8 -237.25 -51.05 -241.55 Q-48.15 -247.95 -44.05 -253.35 L-40.45 -257.65 -38.85 -259.1 -36.45 -260.25 -32.7 -261.85 -32.6 -261.9 -32.45 -261.9" fill="#2e2f22" fill-rule="evenodd" stroke="none"/>
      <path d="M-89.8 -236.0 L-89.85 -235.05 -89.95 -233.15 Q-90.15 -231.6 -90.65 -230.3 L-91.3 -228.7 Q-94.7 -222.2 -105.35 -221.55 -118.0 -223.6 -125.45 -233.8 L-126.6 -235.5 Q-128.55 -239.05 -129.7 -243.2 -130.75 -246.95 -130.75 -248.8 L-130.55 -251.65 -130.6 -252.2 Q-130.85 -254.7 -131.65 -257.4 L-132.8 -262.35 -133.2 -262.65 -133.35 -262.7 -132.8 -263.2 -132.6 -263.9 Q-132.35 -264.65 -131.7 -265.0 L-131.35 -264.8 -130.15 -266.05 Q-128.8 -267.05 -126.6 -267.85 L-121.5 -269.0 Q-121.5 -269.25 -118.2 -269.0 L-113.65 -268.5 -113.2 -268.2 Q-109.95 -267.4 -106.7 -265.5 -101.35 -262.35 -97.75 -257.55 -99.05 -260.25 -100.5 -262.65 L-100.8 -263.1 -98.25 -259.4 Q-95.9 -255.6 -93.85 -253.2 L-92.4 -251.65 -91.3 -247.8 Q-90.65 -245.8 -90.4 -243.55 L-90.2 -240.1 -90.15 -238.8 -90.0 -238.05 -89.9 -237.25 -89.8 -236.2 -89.8 -236.0 M-112.7 -261.9 L-112.8 -261.9 -112.9 -261.9 Q-119.65 -261.8 -122.65 -259.55 -124.15 -258.45 -124.5 -257.1 L-124.15 -256.1 Q-120.75 -247.55 -119.1 -244.35 -111.4 -229.5 -97.95 -229.5 L-94.0 -229.85 -93.7 -229.75 -92.95 -231.05 Q-92.3 -232.15 -92.1 -233.05 L-92.15 -235.3 -92.15 -235.75 -92.45 -237.25 -94.2 -241.55 Q-97.1 -247.95 -101.25 -253.35 -103.05 -255.75 -104.8 -257.65 L-106.45 -259.1 -108.8 -260.25 -112.55 -261.85 -112.7 -261.9 M-129.9 -249.55 L-130.0 -249.5 Q-129.4 -243.0 -126.6 -236.9 L-126.5 -236.7 Q-119.15 -223.6 -102.8 -223.6 -97.9 -223.6 -94.6 -226.2 -95.4 -225.7 -96.45 -225.7 -97.45 -225.7 -98.1 -226.1 -114.85 -226.65 -121.4 -240.3 L-122.8 -243.55 Q-124.0 -246.2 -124.65 -248.65 -125.8 -252.8 -127.75 -257.25 -129.5 -257.1 -129.9 -254.05 L-129.9 -249.55 M-53.55 -249.3 Q-50.05 -254.75 -48.95 -257.0 L-49.45 -256.9 Q-48.2 -257.95 -46.65 -259.3 L-47.5 -257.55 Q-43.9 -262.35 -38.6 -265.5 -35.3 -267.4 -32.05 -268.2 L-31.6 -268.5 -27.05 -269.0 Q-23.75 -269.25 -23.75 -269.0 L-18.65 -267.85 Q-16.45 -267.05 -15.15 -266.05 L-13.95 -264.8 -13.8 -264.85 Q-13.6 -264.95 -13.55 -265.0 L-13.45 -264.85 -13.4 -264.85 -12.6 -263.9 -12.55 -263.55 -12.45 -263.2 -11.95 -262.7 -12.45 -262.35 Q-12.6 -261.1 -13.6 -257.4 L-14.1 -255.5 -14.7 -251.65 -14.55 -248.8 Q-14.55 -246.95 -15.55 -243.2 -16.7 -239.05 -18.65 -235.5 L-19.8 -233.8 Q-27.25 -223.6 -39.9 -221.55 -50.2 -222.2 -53.65 -228.2 L-54.1 -229.0 -54.35 -229.5 -54.8 -230.9 -55.3 -233.15 -55.5 -236.2 -55.1 -238.8 -55.05 -240.1 -55.0 -240.7 -55.0 -240.75 -54.9 -243.55 -53.95 -247.8 -53.55 -249.3 M-32.45 -261.9 L-32.6 -261.9 -32.7 -261.85 -36.45 -260.25 -38.85 -259.1 -40.45 -257.65 -44.05 -253.35 Q-48.15 -247.95 -51.05 -241.55 L-52.8 -237.25 -53.1 -235.75 -53.1 -235.3 -53.2 -233.05 -52.35 -231.05 -51.55 -229.75 -51.25 -229.85 -47.3 -229.5 Q-33.85 -229.5 -26.15 -244.35 -24.55 -247.55 -21.15 -256.1 L-20.75 -257.1 Q-21.15 -258.45 -22.6 -259.55 -25.6 -261.8 -32.35 -261.9 L-32.45 -261.9 M-15.4 -249.55 L-15.4 -254.05 Q-15.75 -257.1 -17.5 -257.25 -19.45 -252.8 -20.6 -248.65 -21.25 -246.2 -22.45 -243.55 L-23.85 -240.3 Q-30.4 -226.65 -47.2 -226.1 -47.8 -225.7 -48.8 -225.7 -49.85 -225.7 -50.65 -226.2 -47.35 -223.6 -42.45 -223.6 -26.1 -223.6 -18.75 -236.7 L-18.65 -236.9 Q-15.85 -243.0 -15.25 -249.5 L-15.4 -249.55" fill="#4b4f3c" fill-rule="evenodd" stroke="none"/>
      <path d="M-16.65 -216.2 L-16.95 -216.15 -20.65 -216.15 -16.95 -224.35 Q-26.35 -221.2 -32.4 -213.2 -34.85 -212.3 -35.95 -211.15 L-35.2 -212.25 -26.35 -219.9 Q-21.9 -223.85 -18.65 -226.1 L-17.0 -227.35 -15.15 -229.35 Q-12.3 -231.65 -12.3 -228.0 L-12.3 -227.85 -12.15 -227.9 Q-13.85 -222.9 -16.65 -216.2 M-108.85 -210.35 Q-109.9 -211.2 -111.85 -212.15 L-113.55 -212.85 -114.65 -213.5 Q-120.9 -223.8 -129.8 -227.0 -130.15 -227.9 -130.15 -226.3 -130.15 -225.0 -126.3 -216.25 L-128.6 -216.3 Q-131.4 -222.95 -133.1 -227.9 L-132.95 -227.85 -132.95 -228.0 Q-132.95 -231.65 -130.15 -229.35 -128.9 -228.4 -128.25 -227.35 L-126.6 -226.1 Q-123.35 -223.85 -118.9 -219.9 L-110.05 -212.25 -108.85 -210.35" fill="#d5e0ba" fill-rule="evenodd" stroke="none"/>
      <path d="M-61.35 -207.55 L-62.4 -207.3 -63.9 -206.65 -64.85 -206.0 -64.05 -209.85 -64.05 -212.1 -64.1 -212.1 -63.75 -215.55 -63.65 -220.75 Q-63.65 -223.6 -62.75 -231.45 L-62.5 -230.4 -62.5 -231.0 -62.4 -231.8 -62.2 -231.8 -62.5 -232.7 -62.4 -233.3 Q-60.65 -232.15 -58.7 -226.85 -57.05 -222.3 -57.05 -220.75 L-58.2 -219.4 -58.35 -219.45 Q-59.35 -216.6 -60.05 -213.15 L-60.35 -213.15 -61.35 -207.55 M-80.45 -206.0 L-82.35 -206.45 Q-83.0 -206.8 -83.8 -207.05 -84.6 -212.2 -84.95 -213.15 L-85.25 -213.15 Q-85.9 -216.6 -86.95 -219.45 L-87.05 -219.4 -88.2 -220.75 Q-88.2 -222.3 -86.55 -226.85 -84.65 -232.15 -82.85 -233.3 L-82.75 -232.7 -83.05 -231.8 -82.85 -231.8 Q-82.75 -232.2 -82.75 -231.0 L-82.75 -230.4 -82.5 -231.45 Q-81.6 -223.6 -81.6 -220.75 L-81.55 -215.55 -81.15 -212.1 -81.25 -212.1 -81.25 -209.85 -80.45 -206.0" fill="#dae2a7" fill-rule="evenodd" stroke="none"/>
      <path d="M-41.35 -269.8 L-41.8 -269.25 -42.15 -269.8 -42.85 -270.8 -41.75 -270.0 -41.35 -269.8" fill="#999999" fill-rule="evenodd" stroke="none"/>
      <path d="M-39.7 -209.7 L-40.25 -209.7 -43.9 -209.35 Q-43.95 -212.35 -45.6 -213.45 -42.9 -212.0 -40.6 -211.25 L-40.45 -210.95 Q-40.15 -210.85 -40.0 -210.25 L-39.7 -209.7 M-60.45 -232.1 L-60.95 -233.3 -60.9 -233.35 -60.9 -233.6 -60.8 -233.85 -60.45 -232.1" fill="#f5f7db" fill-rule="evenodd" stroke="none"/>
    </g>
    <radialGradient cx="0" cy="0" gradientTransform="matrix(0.0, 0.0, 0.0, 0.0, 0.0, 242.4)" gradientUnits="userSpaceOnUse" id="gradient0" r="819.2" spreadMethod="pad">
      <stop offset="0.0" stop-color="#ffffff"/>
      <stop offset="0.9921568627450981" stop-color="#f5f7db"/>
    </radialGradient>
    <radialGradient cx="0" cy="0" gradientTransform="matrix(0.122, 0.0, 0.0, 0.122, -73.6, -315.35)" gradientUnits="userSpaceOnUse" id="gradient1" r="819.2" spreadMethod="pad">
      <stop offset="0.09803921568627451" stop-color="#fffde7"/>
      <stop offset="0.9921568627450981" stop-color="#ecedb6"/>
    </radialGradient>
    <radialGradient cx="0" cy="0" gradientTransform="matrix(0.1139, 0.0, 0.0, 0.1139, -74.5, -328.3)" gradientUnits="userSpaceOnUse" id="gradient2" r="819.2" spreadMethod="pad">
      <stop offset="0.0" stop-color="#ffb69a"/>
      <stop offset="0.9921568627450981" stop-color="#ee062f"/>
    </radialGradient>
  </defs>
</svg>
