<?xml version="1.0" encoding="UTF-8" standalone="no"?>
<svg xmlns:ffdec="https://www.free-decompiler.com/flash" xmlns:xlink="http://www.w3.org/1999/xlink" ffdec:objectType="frame" height="71.05px" width="337.75px" xmlns="http://www.w3.org/2000/svg">
  <g transform="matrix(1.0, 0.0, 0.0, 1.0, 172.45, 6.3)">
    <use ffdec:characterId="4336" height="8.45" transform="matrix(7.0, 0.0, 0.0, 7.0, -142.35, -6.3)" width="43.55" xlink:href="#shape0"/>
  </g>
  <defs>
    <g id="shape0" transform="matrix(1.0, 0.0, 0.0, 1.0, 19.15, 1.55)">
      <path d="M-16.4 1.1 L-16.65 1.25 Q-16.85 1.35 -16.75 1.4 -16.55 1.65 -17.05 1.75 L-17.5 1.85 -18.7 2.0 Q-19.7 2.0 -18.55 1.55 L-17.75 1.35 Q-17.15 1.2 -16.4 1.1 M-15.1 0.7 L-15.1 0.7 M-3.55 -1.25 L-3.55 -1.25 M-7.05 -1.25 L-7.15 -1.3 -6.5 -1.3 -7.05 -1.25 M-12.55 -0.55 L-11.45 -0.65 -11.45 -0.6 -11.95 -0.55 -12.6 -0.5 Q-12.7 -0.55 -12.55 -0.55 M10.45 6.65 Q8.95 6.9 8.05 6.9 7.05 6.9 5.5 6.55 4.1 6.25 4.0 6.0 3.95 5.8 4.05 5.8 L4.15 5.8 7.6 6.0 Q10.05 6.2 10.3 6.5 L10.45 6.65 M18.9 0.05 Q19.35 0.15 19.35 0.25 19.45 0.4 18.7 0.45 L18.45 0.4 18.4 0.2 Q18.35 0.1 18.5 0.0 L18.6 0.0 18.9 0.05 M23.65 3.65 Q25.3 4.25 23.25 4.25 L19.4 3.85 Q19.65 3.7 20.05 3.6 20.85 3.35 21.45 3.35 L22.6 3.45 23.65 3.65 M10.1 -1.1 L9.95 -1.2 10.4 -1.15 10.7 -1.1 Q11.05 -1.05 10.75 -1.0 L10.7 -1.0 10.1 -1.1 M2.75 -1.45 L2.05 -1.5 1.55 -1.5 1.85 -1.55 2.45 -1.5 2.8 -1.45 2.75 -1.45 M0.95 -1.25 L3.95 -1.25 Q4.4 -1.3 4.8 -1.25 L5.65 -1.2 6.2 -1.15 7.1 -1.05 7.45 -1.05 8.25 -0.95 8.65 -0.95 9.25 -0.9 11.55 -0.8 12.35 -0.65 12.8 -0.6 14.15 -0.2 Q14.65 0.0 14.8 0.1 15.05 0.2 15.2 0.3 15.6 0.55 16.55 0.8 L16.95 0.85 18.35 1.05 18.65 1.15 18.8 1.15 Q19.1 1.25 19.0 1.3 19.4 1.55 18.8 1.85 17.6 2.5 12.9 2.6 L11.9 2.75 11.75 2.95 Q11.65 3.05 12.4 3.5 12.3 4.0 7.0 4.0 L-0.3 3.7 -2.45 3.4 -3.05 3.35 Q-6.15 3.3 -7.05 3.6 -8.1 3.95 -10.1 3.95 L-12.35 3.75 Q-11.45 4.55 -9.15 4.8 L-9.65 5.0 -11.65 5.15 Q-13.4 5.15 -14.15 4.2 -14.8 3.45 -14.0 3.1 L-13.9 3.05 Q-14.6 2.3 -13.55 1.2 -13.8 0.9 -14.6 0.9 L-15.6 0.95 -16.55 1.1 -16.4 1.0 Q-16.95 1.0 -15.4 0.55 L-13.45 0.05 Q-12.15 -0.2 -9.35 -0.55 L-9.05 -0.6 Q-8.9 -0.65 -9.1 -0.7 -9.2 -0.75 -8.95 -0.8 L-8.05 -0.9 -6.95 -1.0 -5.85 -1.05 -5.2 -1.1 -4.2 -1.15 -4.25 -1.2 Q-4.35 -1.2 -4.3 -1.25 L-4.05 -1.3 -0.9 -1.3 0.7 -1.25 0.95 -1.25" fill="#ffb74c" fill-opacity="0.8980392" fill-rule="evenodd" stroke="none"/>
      <path d="M-11.9 0.15 Q-11.45 0.15 -11.8 0.25 L-12.15 0.35 -12.95 0.4 Q-13.2 0.4 -13.05 0.4 L-12.85 0.3 -12.55 0.2 -11.9 0.15 M-9.6 2.5 Q-9.45 2.6 -9.55 2.65 L-9.9 2.75 -10.7 2.8 Q-11.65 2.8 -11.2 2.6 -11.05 2.55 -10.75 2.5 L-10.45 2.45 -9.6 2.5 M-2.75 -1.2 L-2.7 -1.25 -2.25 -1.25 -2.1 -1.2 -2.75 -1.2 M8.1 3.15 L7.45 3.25 5.95 3.05 6.1 2.95 7.8 2.85 8.1 3.05 Q8.25 3.15 8.1 3.15 M15.2 1.55 L15.5 1.45 15.9 1.4 16.35 1.45 Q16.5 1.5 16.35 1.55 L15.85 1.6 15.2 1.55 M11.5 -0.55 L11.1 -0.6 11.05 -0.65 11.65 -0.6 Q11.8 -0.6 11.5 -0.55 M2.45 -1.15 L3.85 -1.15 5.8 -1.1 6.65 -1.0 7.7 -0.85 8.45 -0.75 10.9 -0.5 12.6 -0.25 Q13.35 -0.05 13.05 0.15 12.55 0.45 13.15 0.85 L13.95 1.25 Q14.4 1.55 13.6 1.8 12.9 2.0 10.35 2.05 L6.7 2.2 Q6.35 2.25 6.25 2.55 5.6 2.85 2.35 2.85 -1.15 2.85 -3.9 2.25 L-4.25 2.2 -5.55 2.3 -7.65 2.4 Q-11.6 2.4 -10.85 1.1 L-10.6 0.7 Q-10.6 0.6 -10.7 0.55 -11.1 0.35 -11.55 0.15 -11.8 0.05 -11.25 -0.1 -10.55 -0.25 -8.9 -0.4 L-7.1 -0.6 -6.7 -0.8 -6.35 -0.85 -7.05 -0.85 -6.4 -0.9 -5.95 -0.9 -3.75 -1.05 -3.05 -1.1 -2.4 -1.1 -2.05 -1.15 -1.5 -1.2 Q-0.8 -1.25 0.25 -1.2 1.7 -1.15 2.45 -1.15" fill="#ffdc45" fill-opacity="0.8980392" fill-rule="evenodd" stroke="none"/>
      <path d="M2.45 -0.8 Q0.75 -0.9 -0.6 -0.8 L-2.35 -0.7 -3.8 -0.55 Q-4.5 -0.45 -4.65 -0.35 -4.95 -0.2 -4.45 0.15 -3.45 0.75 -0.8 0.75 L1.05 0.7 1.65 0.6 Q2.15 0.6 3.5 0.65 5.05 0.65 6.05 0.25 6.65 -0.05 6.5 -0.15 6.05 -0.4 4.6 -0.6 L2.45 -0.8 M-5.8 1.1 Q-6.5 0.95 -6.85 0.7 -7.4 0.3 -6.8 -0.05 -7.3 0.05 -7.55 0.15 -8.35 0.45 -7.95 0.75 -7.7 0.9 -5.8 1.1 M10.0 -0.05 Q9.55 -0.2 8.7 -0.25 L9.05 -0.15 Q9.7 0.1 9.9 0.4 10.0 0.55 9.85 0.7 10.55 0.6 10.7 0.45 10.9 0.25 10.0 -0.05 M3.65 -1.0 L5.25 -0.9 5.5 -0.9 6.1 -0.85 7.45 -0.6 10.7 0.05 Q11.15 0.2 11.2 0.4 11.25 0.75 10.15 0.85 L8.9 1.05 7.8 1.15 5.5 1.25 Q3.6 1.3 2.55 1.5 L-1.7 1.7 -3.85 1.55 -4.05 1.55 Q-5.75 1.5 -7.25 1.1 -8.7 0.8 -8.65 0.6 -8.6 0.25 -7.6 -0.1 L-6.2 -0.4 -4.85 -0.7 -3.5 -0.9 Q-2.2 -1.05 0.6 -1.0 L3.65 -1.0" fill="#ffff66" fill-opacity="0.8980392" fill-rule="evenodd" stroke="none"/>
      <path d="M2.45 -0.8 L4.6 -0.6 Q6.05 -0.4 6.5 -0.15 6.65 -0.05 6.05 0.25 5.05 0.65 3.5 0.65 2.15 0.6 1.65 0.6 L1.05 0.7 -0.8 0.75 Q-3.45 0.75 -4.45 0.15 -4.95 -0.2 -4.65 -0.35 -4.5 -0.45 -3.8 -0.55 L-2.35 -0.7 -0.6 -0.8 Q0.75 -0.9 2.45 -0.8" fill="#ffffff" fill-opacity="0.8980392" fill-rule="evenodd" stroke="none"/>
    </g>
  </defs>
</svg>
