<?xml version="1.0" encoding="UTF-8" standalone="no"?>
<svg xmlns:ffdec="https://www.free-decompiler.com/flash" xmlns:xlink="http://www.w3.org/1999/xlink" ffdec:objectType="frame" height="251.75px" width="339.0px" xmlns="http://www.w3.org/2000/svg">
  <g transform="matrix(1.0, 0.0, 0.0, 1.0, 141.4, 221.2)">
    <use ffdec:characterId="947" height="0.0" transform="matrix(7.0, 0.0, 0.0, 7.0, -59.85, 6.65)" width="0.0" xlink:href="#shape0"/>
    <use ffdec:characterId="958" ffdec:characterName="_PoolFlame03" height="526.05" transform="matrix(0.4786, 0.0, 0.0, 0.4786, -141.419, -221.21)" width="708.4" xlink:href="#sprite0"/>
    <use ffdec:characterId="967" ffdec:characterName="_PoolFlame01" height="330.05" transform="matrix(0.4786, 0.0, -0.157, 0.4786, 47.2847, -155.4117)" width="171.15" xlink:href="#sprite1"/>
    <use ffdec:characterId="968" height="0.0" transform="matrix(7.0, 0.0, 0.0, 7.0, 68.95, -5.95)" width="0.1" xlink:href="#shape4"/>
    <use ffdec:characterId="980" ffdec:characterName="_PoolFlame02" height="393.75" transform="matrix(0.4786, 0.0, 0.0, 0.4786, -35.3978, -183.542)" width="318.85" xlink:href="#sprite2"/>
    <use ffdec:characterId="981" height="0.0" transform="matrix(7.0, 0.0, 0.0, 7.0, 68.95, -5.95)" width="0.1" xlink:href="#shape7"/>
    <use ffdec:characterId="967" ffdec:characterName="_PoolFlame01" height="330.05" transform="matrix(0.4772, 0.0277, -0.0277, 0.4772, 61.5529, -139.137)" width="171.15" xlink:href="#sprite1"/>
    <use ffdec:characterId="980" ffdec:characterName="_PoolFlame02" height="393.75" transform="matrix(0.3225, 0.0114, -0.0114, 0.3225, -113.53, -117.5495)" width="318.85" xlink:href="#sprite2"/>
    <use ffdec:characterId="967" ffdec:characterName="_PoolFlame01" height="330.05" transform="matrix(0.4786, 0.0, -0.157, 0.4786, -44.3153, -160.3117)" width="171.15" xlink:href="#sprite1"/>
    <use ffdec:characterId="983" ffdec:characterName="_PoolFlame04" height="146.65" transform="matrix(0.3007, 3.0E-4, 0.0204, 0.2727, -85.156, -21.7603)" width="709.45" xlink:href="#sprite3"/>
    <use ffdec:characterId="983" ffdec:characterName="_PoolFlame04" height="146.65" transform="matrix(0.3007, 2.0E-4, 0.1517, 0.2697, -138.0057, -20.0566)" width="709.45" xlink:href="#sprite3"/>
    <use ffdec:characterId="983" ffdec:characterName="_PoolFlame04" height="146.65" transform="matrix(-0.1885, -2.0E-4, -0.1157, 0.2652, 164.729, -19.6898)" width="709.45" xlink:href="#sprite3"/>
  </g>
  <defs>
    <g id="sprite0" transform="matrix(1.0, 0.0, 0.0, 1.0, 294.35, 479.15)">
      <use ffdec:characterId="948" height="19.05" transform="matrix(7.0, 0.0, 0.0, 7.0, -294.35, -86.45)" width="96.1" xlink:href="#shape1"/>
      <use ffdec:characterId="949" height="5.25" transform="matrix(7.0, 0.0, 0.0, 7.0, -115.85, -42.35)" width="33.1" xlink:href="#shape2"/>
    </g>
    <g id="shape1" transform="matrix(1.0, 0.0, 0.0, 1.0, 42.05, 12.35)">
      <path d="M11.6 0.65 L17.1 0.65 Q17.8 0.9 18.5 1.3 18.1 1.45 17.75 1.65 17.45 1.75 17.2 1.9 16.45 2.4 16.45 2.8 L16.45 3.0 16.5 3.1 Q16.6 3.2 16.8 3.3 17.25 3.5 18.3 3.6 L21.05 3.7 23.3 3.55 25.85 3.35 32.05 3.3 Q34.3 2.5 34.9 2.25 36.25 1.65 36.35 1.2 L36.35 1.15 Q36.35 0.8 36.2 0.65 L36.15 0.65 35.9 0.5 35.35 0.15 35.65 0.1 36.5 0.0 37.6 -0.1 Q39.8 -0.3 41.3 -0.6 L41.8 -0.7 Q44.3 -1.25 44.3 -2.05 44.3 -2.65 43.4 -2.9 42.75 -3.1 40.85 -3.2 L40.45 -3.2 38.15 -3.35 36.5 -3.45 35.0 -3.55 31.2 -3.95 Q28.95 -4.2 26.65 -4.55 L26.65 -4.65 26.95 -4.75 Q27.7 -5.05 27.9 -5.25 28.05 -5.4 28.1 -5.65 L28.1 -6.0 Q28.1 -7.15 14.25 -7.8 L12.8 -7.85 11.35 -7.95 Q5.55 -8.15 -0.95 -8.3 L-7.8 -8.35 -10.7 -8.45 Q-12.7 -8.5 -14.55 -8.4 -17.15 -8.2 -19.5 -7.7 -21.65 -7.25 -22.95 -6.65 -24.1 -6.1 -24.15 -5.65 L-24.15 -5.6 Q-24.15 -5.4 -23.95 -4.85 -23.75 -4.3 -23.75 -4.1 -23.75 -3.8 -25.05 -3.4 L-27.85 -2.6 Q-31.95 -1.55 -31.95 -0.65 -31.95 -0.4 -31.85 -0.25 L-31.75 -0.1 Q-31.55 0.15 -31.15 0.25 -30.6 0.5 -29.2 0.65 -27.5 0.9 -26.85 1.05 L-26.8 1.05 Q-25.95 1.25 -25.35 1.55 L-24.8 1.9 -25.25 2.35 Q-25.55 2.7 -25.55 2.85 -24.9 3.55 -22.95 3.55 -20.55 3.55 -18.0 3.6 L-17.5 3.65 -15.5 3.7 -14.4 3.7 Q-13.65 3.7 -13.05 3.55 -12.75 3.45 -12.5 3.35 -12.15 3.15 -12.0 3.0 -11.9 2.8 -11.9 2.65 -11.9 2.45 -12.2 2.15 L-12.5 1.85 -12.05 1.95 -11.7 2.05 Q-10.95 2.3 -10.6 2.8 -10.5 2.95 -10.45 3.1 L-10.4 3.25 -10.35 3.4 -10.35 3.45 Q-10.35 3.6 -10.45 3.8 L-10.5 3.85 Q-10.65 4.15 -10.8 4.3 -11.05 4.5 -11.5 4.65 L-11.85 4.75 Q-13.15 5.1 -16.3 5.15 L-18.4 5.15 Q-26.8 5.15 -29.2 4.35 L-29.7 4.15 Q-30.35 3.85 -30.15 3.4 L-30.0 3.25 -29.85 3.05 Q-29.75 2.8 -29.45 2.55 -29.0 2.15 -28.15 1.7 L-27.8 1.5 -27.55 1.4 Q-27.9 1.3 -28.2 1.15 -32.15 0.95 -34.75 0.4 L-36.15 0.1 -36.7 -0.1 -37.0 -0.2 -38.8 -0.25 -37.95 -0.6 Q-38.2 -0.7 -38.45 -0.85 L-38.1 -1.5 Q-37.8 -2.0 -37.1 -2.3 -35.8 -2.95 -32.75 -3.2 -32.65 -3.4 -32.6 -3.35 L-32.6 -3.25 Q-31.7 -3.55 -29.55 -3.85 L-28.5 -3.95 -27.65 -4.05 -26.85 -4.15 -26.15 -4.25 Q-26.5 -4.4 -26.7 -4.6 -27.1 -4.85 -27.2 -5.1 -27.4 -5.4 -27.25 -5.65 L-27.05 -6.05 -26.75 -6.45 Q-25.15 -8.15 -20.05 -8.65 L-13.75 -8.85 -13.7 -9.05 -4.55 -9.05 -3.1 -9.05 4.9 -9.05 Q22.85 -8.15 28.5 -7.25 31.3 -6.8 32.0 -6.25 L32.05 -6.2 Q32.6 -5.6 30.95 -4.85 L32.1 -4.65 39.8 -4.35 43.15 -4.0 46.0 -3.45 47.6 -3.15 49.65 -3.1 49.5 -2.45 Q49.35 -2.35 49.2 -2.15 L49.05 -2.0 49.0 -1.9 48.7 -1.5 Q48.1 -0.95 46.0 -0.6 44.25 -0.3 41.0 -0.1 L37.75 0.05 36.9 0.4 37.15 0.6 Q37.65 1.2 37.5 1.6 L37.2 2.05 37.3 2.1 37.35 2.15 36.9 2.4 Q36.7 2.6 36.45 2.8 35.85 3.15 35.05 3.45 32.45 4.5 27.25 4.85 L12.5 4.85 11.8 4.25 Q11.5 3.95 11.6 3.75 11.7 3.5 12.15 3.2 12.5 2.95 13.05 2.65 L13.2 2.55 Q14.65 1.75 14.95 1.5 14.1 1.05 12.75 0.8 L11.6 0.65 M-12.55 1.85 L-12.8 1.6 Q-12.5 1.4 -11.85 1.25 L-10.8 0.95 -9.35 0.7 -9.2 0.65 -10.7 1.15 -11.9 1.45 -12.55 1.85 M-8.45 0.5 L-8.35 0.5 -8.45 0.5" fill="#ffcc00" fill-rule="evenodd" stroke="none"/>
      <path d="M0.35 -0.35 L3.0 -0.45 Q8.45 -0.45 9.7 -0.4 12.25 -0.3 13.65 0.1 L20.2 0.2 21.75 0.35 23.35 0.45 Q26.45 0.45 27.85 -0.1 28.95 -0.45 28.95 -1.1 28.95 -1.35 28.85 -1.5 L28.7 -1.65 Q28.05 -2.4 27.65 -2.4 27.4 -2.4 27.0 -2.0 26.6 -1.55 26.3 -1.55 25.7 -1.45 24.85 -2.1 25.5 -2.25 25.95 -3.05 26.3 -3.7 26.3 -4.15 26.3 -5.4 19.2 -6.3 11.65 -7.25 -2.4 -7.6 L-2.4 -7.5 Q-6.35 -7.35 -13.1 -6.1 -16.35 -5.5 -18.1 -5.05 -20.1 -4.5 -20.1 -4.15 L-20.05 -3.95 Q-19.95 -3.4 -19.35 -3.15 -20.1 -2.8 -21.3 -2.4 L-23.2 -1.8 Q-25.05 -1.2 -25.15 -0.4 L-25.15 -0.3 Q-25.2 -0.15 -25.2 0.0 -25.15 0.25 -24.8 0.45 -23.85 1.0 -20.65 1.1 L-19.75 1.1 -18.75 1.05 Q-16.5 1.0 -13.4 0.65 L-12.8 0.6 -12.65 0.55 -7.25 -0.1 -2.25 -0.2 0.35 -0.35 M-12.5 1.85 L-12.2 2.15 Q-11.9 2.45 -11.9 2.65 -11.9 2.8 -12.0 3.0 -12.15 3.15 -12.5 3.35 -12.75 3.45 -13.05 3.55 -13.65 3.7 -14.4 3.7 L-15.5 3.7 -17.5 3.65 -18.0 3.6 Q-20.55 3.55 -22.95 3.55 -24.9 3.55 -25.55 2.85 -25.55 2.7 -25.25 2.35 L-24.8 1.9 -25.35 1.55 Q-25.95 1.25 -26.8 1.05 L-26.85 1.05 Q-27.5 0.9 -29.2 0.65 -30.6 0.5 -31.15 0.25 -31.55 0.15 -31.75 -0.1 L-31.85 -0.25 Q-31.95 -0.4 -31.95 -0.65 -31.95 -1.55 -27.85 -2.6 L-25.05 -3.4 Q-23.75 -3.8 -23.75 -4.1 -23.75 -4.3 -23.95 -4.85 -24.15 -5.4 -24.15 -5.6 L-24.15 -5.65 Q-24.1 -6.1 -22.95 -6.65 -21.65 -7.25 -19.5 -7.7 -17.15 -8.2 -14.55 -8.4 -12.7 -8.5 -10.7 -8.45 L-7.8 -8.35 -0.95 -8.3 Q5.55 -8.15 11.35 -7.95 L12.8 -7.85 14.25 -7.8 Q28.1 -7.15 28.1 -6.0 L28.1 -5.65 Q28.05 -5.4 27.9 -5.25 27.7 -5.05 26.95 -4.75 L26.65 -4.65 26.65 -4.55 Q28.95 -4.2 31.2 -3.95 L35.0 -3.55 36.5 -3.45 38.15 -3.35 40.45 -3.2 40.85 -3.2 Q42.75 -3.1 43.4 -2.9 44.3 -2.65 44.3 -2.05 44.3 -1.25 41.8 -0.7 L41.3 -0.6 Q39.8 -0.3 37.6 -0.1 L36.5 0.0 35.65 0.1 35.35 0.15 35.9 0.5 36.15 0.65 36.2 0.65 Q36.35 0.8 36.35 1.15 L36.35 1.2 Q36.25 1.65 34.9 2.25 34.3 2.5 32.05 3.3 L25.85 3.35 23.3 3.55 21.05 3.7 18.3 3.6 Q17.25 3.5 16.8 3.3 16.6 3.2 16.5 3.1 L16.45 3.0 16.45 2.8 Q16.45 2.4 17.2 1.9 17.45 1.75 17.75 1.65 18.1 1.45 18.5 1.3 17.8 0.9 17.1 0.65 L11.6 0.65 -7.95 0.65 Q-8.2 0.55 -8.35 0.5 L-8.45 0.5 -9.2 0.65 -9.35 0.7 -10.8 0.95 -11.85 1.25 Q-12.5 1.4 -12.8 1.6 L-12.55 1.85 -12.5 1.85" fill="#ffe47f" fill-rule="evenodd" stroke="none"/>
      <path d="M0.35 -0.35 L-2.25 -0.2 -7.25 -0.1 -12.65 0.55 -12.8 0.6 -13.4 0.65 Q-16.5 1.0 -18.75 1.05 L-19.75 1.1 -20.65 1.1 Q-23.85 1.0 -24.8 0.45 -25.15 0.25 -25.2 0.0 -25.2 -0.15 -25.15 -0.3 L-25.15 -0.4 Q-25.05 -1.2 -23.2 -1.8 L-21.3 -2.4 Q-20.1 -2.8 -19.35 -3.15 -19.95 -3.4 -20.05 -3.95 L-20.1 -4.15 Q-20.1 -4.5 -18.1 -5.05 -16.35 -5.5 -13.1 -6.1 -6.35 -7.35 -2.4 -7.5 L-2.4 -7.6 Q11.65 -7.25 19.2 -6.3 26.3 -5.4 26.3 -4.15 26.3 -3.7 25.95 -3.05 25.5 -2.25 24.85 -2.1 25.7 -1.45 26.3 -1.55 26.6 -1.55 27.0 -2.0 27.4 -2.4 27.65 -2.4 28.05 -2.4 28.7 -1.65 L28.85 -1.5 Q28.95 -1.35 28.95 -1.1 28.95 -0.45 27.85 -0.1 26.45 0.45 23.35 0.45 L21.75 0.35 20.2 0.2 13.65 0.1 Q12.25 -0.3 9.7 -0.4 8.45 -0.45 3.0 -0.45 L0.35 -0.35" fill="#fff2bf" fill-rule="evenodd" stroke="none"/>
      <path d="M11.6 0.65 L12.75 0.8 Q14.1 1.05 14.95 1.5 14.65 1.75 13.2 2.55 L13.05 2.65 Q12.5 2.95 12.15 3.2 11.7 3.5 11.6 3.75 11.5 3.95 11.8 4.25 L12.5 4.85 27.25 4.85 Q32.45 4.5 35.05 3.45 35.85 3.15 36.45 2.8 36.7 2.6 36.9 2.4 L37.35 2.15 37.3 2.1 37.2 2.05 37.5 1.6 Q37.65 1.2 37.15 0.6 L36.9 0.4 37.75 0.05 41.0 -0.1 Q44.25 -0.3 46.0 -0.6 48.1 -0.95 48.7 -1.5 L49.0 -1.9 49.55 -2.05 49.2 -2.15 Q49.35 -2.35 49.5 -2.45 L49.65 -3.1 47.6 -3.15 46.0 -3.45 43.15 -4.0 39.8 -4.35 32.1 -4.65 30.95 -4.85 Q32.6 -5.6 32.05 -6.2 L32.0 -6.25 Q31.3 -6.8 28.5 -7.25 22.85 -8.15 4.9 -9.05 L-3.1 -9.05 Q-3.5 -9.1 -4.25 -9.05 L-4.55 -9.05 -13.7 -9.05 -13.75 -8.85 -20.05 -8.65 Q-25.15 -8.15 -26.75 -6.45 L-27.05 -6.05 -27.25 -5.65 Q-27.4 -5.4 -27.2 -5.1 -27.1 -4.85 -26.7 -4.6 -26.5 -4.4 -26.15 -4.25 L-26.85 -4.15 -27.65 -4.05 -28.5 -3.95 -29.55 -3.85 Q-31.7 -3.55 -32.6 -3.25 L-32.6 -3.35 Q-32.65 -3.4 -32.75 -3.2 -35.8 -2.95 -37.1 -2.3 -37.8 -2.0 -38.1 -1.5 L-38.45 -0.85 Q-38.2 -0.7 -37.95 -0.6 L-38.8 -0.25 -37.0 -0.2 -36.7 -0.1 -36.15 0.1 -34.75 0.4 Q-32.15 0.95 -28.2 1.15 -27.9 1.3 -27.55 1.4 L-27.8 1.5 -28.15 1.7 Q-29.0 2.15 -29.45 2.55 -29.75 2.8 -29.85 3.05 L-30.0 3.25 Q-30.35 3.0 -31.0 2.8 -33.05 2.2 -38.8 2.05 -39.15 1.8 -39.8 0.9 -40.45 -0.1 -40.45 -0.45 -40.45 -1.35 -39.7 -1.9 -38.85 -2.5 -36.55 -3.1 L-33.15 -4.0 Q-31.65 -4.4 -28.95 -5.25 -29.25 -6.2 -28.85 -6.85 -28.45 -7.55 -27.3 -8.05 -25.45 -8.9 -19.3 -10.05 L-11.2 -10.2 -5.3 -10.6 1.75 -11.2 Q4.65 -11.2 12.7 -10.4 L24.3 -9.3 Q31.7 -9.25 33.05 -7.85 33.5 -7.4 33.4 -6.65 33.3 -5.7 33.35 -5.55 44.2 -5.35 48.25 -4.6 50.0 -4.25 50.9 -3.7 L51.2 -3.55 Q51.9 -3.05 52.0 -2.3 L52.05 -2.05 Q52.05 -0.75 49.45 0.2 46.15 1.35 39.3 1.55 L39.4 1.75 Q39.45 1.8 39.45 2.2 39.45 3.8 37.5 4.5 35.45 5.25 30.45 5.25 L23.5 5.6 17.5 5.95 Q13.2 5.95 11.2 4.95 9.85 4.3 9.85 3.55 9.85 2.8 10.35 2.3 10.95 1.7 12.35 1.3 L12.7 1.2 9.4 0.95 6.85 0.75 Q3.35 0.75 -2.5 1.5 -7.35 2.1 -8.25 2.35 -7.8 2.75 -7.55 3.1 -7.45 3.35 -7.45 3.5 -7.45 4.15 -11.5 4.65 -11.05 4.5 -10.8 4.3 -10.65 4.15 -10.5 3.85 L-10.45 3.8 Q-10.35 3.6 -10.35 3.45 L-10.35 3.4 -10.0 3.35 -10.4 3.25 -10.45 3.1 Q-10.5 2.95 -10.6 2.8 -10.95 2.3 -11.7 2.05 L-12.05 1.95 -12.5 1.85 -12.55 1.85 -11.9 1.45 -10.7 1.15 -9.2 0.65 -8.45 0.5 -8.35 0.5 Q-8.2 0.55 -7.95 0.65 L11.6 0.65 M-29.2 4.35 Q-26.8 5.15 -18.4 5.15 L-16.3 5.15 -20.2 5.45 -20.2 5.55 Q-25.65 5.5 -27.7 5.05 -28.6 4.9 -29.0 4.55 L-29.2 4.35" fill="#ffe47f" fill-opacity="0.5019608" fill-rule="evenodd" stroke="none"/>
      <path d="M-30.0 3.25 L-30.15 3.4 Q-30.35 3.85 -29.7 4.15 L-29.2 4.35 -29.0 4.55 Q-28.6 4.9 -27.7 5.05 -25.65 5.5 -20.2 5.55 L-20.2 5.45 -16.3 5.15 Q-13.15 5.1 -11.85 4.75 L-11.5 4.65 Q-7.45 4.15 -7.45 3.5 -7.45 3.35 -7.55 3.1 -7.8 2.75 -8.25 2.35 -7.35 2.1 -2.5 1.5 3.35 0.75 6.85 0.75 L9.4 0.95 12.7 1.2 12.35 1.3 Q10.95 1.7 10.35 2.3 9.85 2.8 9.85 3.55 9.85 4.3 11.2 4.95 13.2 5.95 17.5 5.95 L23.5 5.6 30.45 5.25 Q35.45 5.25 37.5 4.5 39.45 3.8 39.45 2.2 39.45 1.8 39.4 1.75 L39.3 1.55 Q46.15 1.35 49.45 0.2 52.05 -0.75 52.05 -2.05 L52.0 -2.3 52.05 -2.5 Q52.05 -3.05 51.9 -3.25 51.65 -3.55 50.9 -3.7 50.0 -4.25 48.25 -4.6 44.2 -5.35 33.35 -5.55 33.3 -5.7 33.4 -6.65 33.5 -7.4 33.05 -7.85 31.7 -9.25 24.3 -9.3 L12.7 -10.4 Q4.65 -11.2 1.75 -11.2 L-5.3 -10.6 -11.2 -10.2 -19.3 -10.05 Q-25.45 -8.9 -27.3 -8.05 -28.45 -7.55 -28.85 -6.85 -29.25 -6.2 -28.95 -5.25 -31.65 -4.4 -33.15 -4.0 L-36.55 -3.1 Q-38.85 -2.5 -39.7 -1.9 -40.45 -1.35 -40.45 -0.45 -40.45 -0.1 -39.8 0.9 -39.15 1.8 -38.8 2.05 -33.05 2.2 -31.0 2.8 -30.35 3.0 -30.0 3.25 M-10.35 3.4 L-10.4 3.25 -10.0 3.35 -10.35 3.4 M13.35 -11.9 L23.25 -11.55 Q27.85 -11.3 30.45 -10.5 33.45 -9.6 34.75 -7.8 L35.2 -7.15 Q35.4 -6.9 35.9 -6.8 36.7 -6.6 41.3 -6.45 46.05 -6.25 49.15 -5.95 51.9 -5.65 52.3 -5.35 52.9 -4.9 53.5 -3.8 54.05 -2.8 54.05 -2.35 54.05 -0.9 52.25 0.3 50.0 1.8 45.1 2.7 42.1 3.2 40.25 3.8 L37.7 4.65 Q34.7 5.6 25.8 6.45 L17.45 6.55 Q17.05 6.7 16.4 6.7 13.45 6.7 11.55 6.1 10.3 5.65 9.05 4.75 7.65 3.65 7.1 3.4 5.85 2.8 3.85 2.8 0.25 2.8 -1.55 3.35 -2.55 3.65 -3.85 4.5 -5.05 5.3 -6.4 5.65 -8.6 6.2 -12.8 6.2 L-26.3 6.2 Q-29.7 5.7 -31.45 4.85 -33.25 3.95 -31.85 3.25 L-31.8 3.2 -33.0 3.15 -34.3 3.2 Q-38.2 3.2 -40.4 1.85 -41.2 1.4 -41.65 0.8 -42.05 0.35 -42.05 0.0 -42.05 -1.25 -40.4 -2.3 -39.2 -3.0 -36.7 -3.8 -33.95 -4.65 -32.8 -5.05 -30.9 -5.7 -30.5 -6.35 -27.6 -11.25 -19.0 -12.1 -16.2 -12.4 -12.05 -12.3 -6.5 -12.2 -6.25 -12.2 L-6.25 -12.3 1.0 -12.3 13.35 -11.9" fill="#ffe47f" fill-opacity="0.2" fill-rule="evenodd" stroke="none"/>
    </g>
    <g id="shape2" transform="matrix(1.0, 0.0, 0.0, 1.0, 16.55, 6.05)">
      <path d="M7.8 -1.9 L6.65 -1.85 Q5.45 -1.95 4.3 -1.95 -1.9 -1.95 -7.3 -0.8 -8.9 -1.0 -11.05 -1.5 L-13.0 -1.75 Q-14.9 -2.05 -16.2 -2.3 -16.55 -2.55 -16.55 -3.0 L-16.35 -3.3 -15.9 -3.7 -15.9 -3.65 Q-12.05 -5.5 -5.85 -6.0 L-5.85 -6.05 3.85 -6.0 Q8.2 -5.45 9.95 -5.15 L15.15 -4.05 14.85 -4.05 14.6 -4.1 14.35 -4.05 Q15.3 -3.8 16.2 -3.45 L16.3 -3.5 Q16.55 -3.2 16.55 -3.05 16.55 -2.85 16.45 -2.65 L16.05 -2.5 Q15.85 -2.1 15.4 -1.85 L14.95 -1.7 14.7 -1.55 14.3 -1.6 Q10.9 -1.9 7.8 -1.9" fill="#ffe47f" fill-rule="evenodd" stroke="none"/>
    </g>
    <g id="sprite1" transform="matrix(1.0, 0.0, 0.0, 1.0, 71.75, 326.2)">
      <use ffdec:characterId="959" height="7.6" transform="matrix(7.0, 0.0, 0.0, 7.0, -64.05, -53.2)" width="18.3" xlink:href="#shape3"/>
    </g>
    <g id="shape3" transform="matrix(1.0, 0.0, 0.0, 1.0, 9.15, 7.6)">
      <path d="M3.75 -4.8 Q3.35 -5.45 3.05 -5.8 2.5 -6.4 1.85 -6.75 L1.85 -6.7 Q2.3 -6.45 2.65 -5.95 3.05 -5.35 3.75 -4.75 L3.75 -4.8 M3.6 -3.8 L3.5 -3.7 3.7 -3.75 3.6 -3.8 M4.0 -4.6 Q4.45 -4.25 4.9 -4.05 5.2 -3.95 5.5 -3.9 L6.35 -3.8 6.7 -3.85 6.75 -3.7 Q7.9 -3.45 8.2 -3.05 L8.5 -2.4 Q8.7 -2.0 9.15 -1.65 L9.15 -1.6 9.1 -1.5 8.95 -1.55 8.85 -1.5 8.85 -1.4 Q8.85 -1.1 8.6 -0.9 8.3 -0.65 7.6 -0.65 7.2 -0.65 6.85 -0.85 L6.55 -0.8 6.45 -0.8 Q6.4 -0.75 6.2 -0.75 L6.2 -0.9 Q6.05 -1.05 5.95 -1.3 5.85 -1.6 5.75 -1.75 L5.55 -1.9 Q5.3 -2.05 4.85 -2.05 L3.8 -2.0 3.35 -1.6 Q3.1 -1.4 3.05 -1.25 L2.85 -1.25 2.95 -1.4 2.65 -1.2 Q2.45 -1.0 2.2 -0.9 L2.1 -0.85 Q0.8 0.0 -0.7 0.0 -2.1 0.0 -2.9 -0.4 -3.5 -0.7 -3.5 -0.9 L-3.5 -1.0 -3.8 -1.15 Q-4.45 -1.45 -4.7 -1.5 L-4.85 -1.5 -5.35 -1.55 Q-6.35 -1.5 -6.8 -1.3 L-6.75 -1.25 Q-6.9 -1.15 -7.05 -0.9 -7.25 -0.65 -7.55 -0.65 -7.85 -0.65 -8.4 -0.85 L-8.55 -0.95 -8.6 -0.9 Q-8.65 -0.9 -8.65 -0.95 L-8.7 -1.0 -8.75 -1.0 -8.9 -1.1 -8.95 -1.15 -9.05 -1.15 -8.9 -1.4 Q-9.0 -1.25 -9.15 -1.2 -9.0 -1.35 -8.6 -1.95 L-8.45 -2.15 -7.9 -2.7 -7.65 -2.9 Q-7.4 -3.2 -7.15 -3.4 -6.85 -3.6 -6.55 -3.75 -5.65 -4.3 -4.9 -4.3 L-4.2 -4.15 -4.0 -4.15 Q-3.85 -4.15 -3.65 -4.3 -3.5 -4.65 -3.1 -5.15 -2.4 -6.15 -1.6 -6.75 L-1.45 -6.9 Q-1.1 -7.15 -0.75 -7.3 L-0.6 -7.4 -0.45 -7.4 Q1.25 -8.05 2.6 -6.3 3.05 -5.9 3.7 -4.9 L4.0 -4.6 M5.65 -3.8 L5.65 -3.8 M-7.3 -1.1 Q-7.6 -1.0 -8.0 -0.95 L-7.9 -0.95 Q-7.55 -0.95 -7.3 -1.1 M-2.45 -5.65 L-2.55 -5.55 -2.5 -5.55 -2.45 -5.65 M-1.5 -6.45 L-1.6 -6.4 -1.55 -6.45 -1.5 -6.45 M-4.35 -1.5 L-4.45 -1.55 -4.2 -1.45 -4.35 -1.5 M-1.6 -0.4 L-1.95 -0.4 -1.6 -0.35 -1.35 -0.35 -1.6 -0.4" fill="#ffe47f" fill-rule="evenodd" stroke="none"/>
    </g>
    <g id="shape4" transform="matrix(1.0, 0.0, 0.0, 1.0, -9.85, 0.85)">
      <path d="M9.95 -0.85 L9.95 -0.85" fill="#ffffff" fill-rule="evenodd" stroke="none"/>
    </g>
    <g id="sprite2" transform="matrix(1.0, 0.0, 0.0, 1.0, 47.95, 387.8)">
      <use ffdec:characterId="969" height="5.75" transform="matrix(7.0, 0.0, 0.0, 7.0, -47.95, -34.3)" width="33.55" xlink:href="#shape5"/>
      <use ffdec:characterId="970" height="10.15" transform="matrix(7.0, 0.0, 0.0, 7.0, -12.95, -71.05)" width="25.15" xlink:href="#shape6"/>
    </g>
    <g id="shape5" transform="matrix(1.0, 0.0, 0.0, 1.0, 6.85, 4.9)">
      <path d="M-3.8 -0.2 Q-4.2 -0.45 -4.4 -0.65 -4.7 -0.95 -4.7 -1.2 -4.7 -1.35 -4.6 -1.45 -4.3 -2.0 -2.55 -2.55 -1.65 -2.8 -0.75 -2.95 L0.15 -3.05 Q1.2 -3.15 2.3 -3.1 L8.15 -3.05 15.3 -2.5 24.15 -1.9 24.25 -1.9 Q24.35 -1.8 24.45 -1.8 24.55 -1.75 24.55 -1.5 24.55 -1.35 24.45 -1.2 24.3 -1.05 24.05 -0.9 23.35 -0.55 21.75 -0.3 L13.7 0.7 11.0 0.75 8.15 0.85 4.8 0.85 Q1.4 0.8 1.35 0.75 L0.7 0.7 Q0.0 0.6 0.0 0.55 -2.35 0.55 -3.7 -0.15 L-3.8 -0.2 M17.25 -0.05 L17.25 0.0 17.55 -0.1 17.75 -0.15 18.35 -0.2 18.5 -0.2 17.25 -0.2 17.25 -0.05 M-0.45 0.1 L-0.45 0.1 M2.8 0.45 L2.8 0.45" fill="#ffffff" fill-opacity="0.64705884" fill-rule="evenodd" stroke="none"/>
      <path d="M26.25 -1.7 Q26.4 -1.85 26.4 -2.1 26.4 -2.85 24.1 -3.2 21.75 -3.6 15.8 -3.75 L8.7 -3.75 7.45 -3.7 7.3 -3.7 6.1 -3.6 5.5 -3.6 3.7 -3.5 0.0 -3.35 Q0.2 -3.55 0.5 -3.65 L0.95 -3.85 0.9 -3.95 -4.15 -3.1 Q-6.1 -2.7 -6.1 -1.9 -6.1 -1.25 -5.85 -0.95 L-5.75 -0.85 Q-6.85 -1.2 -6.85 -1.9 -6.85 -2.45 -6.4 -2.8 -5.95 -3.15 -4.95 -3.45 -4.45 -3.6 1.4 -4.7 L10.85 -4.7 11.75 -4.85 12.7 -4.9 18.3 -4.4 24.55 -3.8 Q26.0 -3.7 26.5 -3.3 26.7 -3.1 26.7 -2.7 26.7 -2.05 26.4 -1.8 L26.25 -1.7" fill="#ffcc00" fill-opacity="0.64705884" fill-rule="evenodd" stroke="none"/>
      <path d="M-5.75 -0.85 L-5.85 -0.95 Q-6.1 -1.25 -6.1 -1.9 -6.1 -2.7 -4.15 -3.1 L0.9 -3.95 0.95 -3.85 0.5 -3.65 Q0.2 -3.55 0.0 -3.35 L3.7 -3.5 5.5 -3.6 6.1 -3.6 7.3 -3.7 7.45 -3.7 8.7 -3.75 15.8 -3.75 Q21.75 -3.6 24.1 -3.2 26.4 -2.85 26.4 -2.1 26.4 -1.85 26.25 -1.7 26.1 -1.5 25.9 -1.4 25.4 -1.15 24.25 -0.95 L24.05 -0.9 Q24.3 -1.05 24.45 -1.2 24.55 -1.35 24.55 -1.5 24.55 -1.75 24.45 -1.8 24.35 -1.8 24.25 -1.9 L24.15 -1.9 15.3 -2.5 8.15 -3.05 2.3 -3.1 Q1.2 -3.15 0.15 -3.05 L-0.75 -2.95 Q-1.65 -2.8 -2.55 -2.55 -4.3 -2.0 -4.6 -1.45 -4.7 -1.35 -4.7 -1.2 -4.7 -0.95 -4.4 -0.65 -4.2 -0.45 -3.8 -0.2 -5.2 -0.35 -5.75 -0.85 M17.25 -0.05 L17.25 -0.2 18.5 -0.2 18.35 -0.2 17.75 -0.15 17.55 -0.1 17.25 -0.05" fill="#ffe47f" fill-opacity="0.64705884" fill-rule="evenodd" stroke="none"/>
    </g>
    <g id="shape6" transform="matrix(1.0, 0.0, 0.0, 1.0, 1.85, 10.15)">
      <path d="M7.3 -9.4 Q8.5 -8.5 9.25 -6.95 L9.65 -6.1 Q9.4 -6.0 9.15 -5.6 8.75 -5.1 8.75 -4.85 8.75 -4.55 9.4 -4.25 10.0 -3.9 10.0 -4.1 L10.1 -4.05 10.3 -4.05 Q10.65 -4.2 11.1 -4.8 L11.7 -5.25 Q12.25 -5.65 13.1 -5.65 14.1 -5.65 15.4 -5.25 16.65 -4.8 18.95 -3.75 22.5 -2.15 23.3 -1.8 L23.1 -1.7 Q22.95 -1.4 22.2 -1.15 L22.15 -1.15 Q21.45 -0.9 20.25 -0.65 17.3 0.0 13.85 0.0 10.95 0.0 10.05 -0.45 L9.95 -0.6 9.6 -0.95 Q9.5 -1.1 9.3 -1.1 L9.25 -1.1 Q9.25 -1.25 9.15 -1.3 L9.0 -1.35 4.8 -1.8 Q2.3 -2.05 0.7 -1.9 L-1.7 -1.75 -1.75 -1.8 Q-1.85 -1.9 -1.85 -2.2 -1.85 -3.2 -1.0 -4.35 -0.75 -4.65 -0.35 -4.8 L0.4 -5.0 Q0.7 -5.05 0.9 -5.2 L0.9 -5.35 Q0.9 -7.0 1.95 -8.4 3.0 -9.8 4.5 -10.1 5.95 -10.35 7.25 -9.4 L7.3 -9.4 M23.1 -1.7 L23.0 -1.9 Q22.95 -1.75 22.8 -1.55 L23.1 -1.7" fill="#ffffff" fill-opacity="0.64705884" fill-rule="evenodd" stroke="none"/>
    </g>
    <g id="shape7" transform="matrix(1.0, 0.0, 0.0, 1.0, -9.85, 0.85)">
      <path d="M9.95 -0.85 L9.95 -0.85" fill="#ffffff" fill-rule="evenodd" stroke="none"/>
    </g>
    <g id="sprite3" transform="matrix(1.0, 0.0, 0.0, 1.0, 315.0, 129.15)">
      <use ffdec:characterId="982" height="20.95" transform="matrix(7.0, 0.0, 0.0, 7.0, -315.0, -129.15)" width="101.35" xlink:href="#shape8"/>
    </g>
    <g id="shape8" transform="matrix(1.0, 0.0, 0.0, 1.0, 45.0, 18.45)">
      <path d="M-38.35 1.7 L-40.6 1.45 -41.5 1.3 Q-42.1 1.1 -42.3 0.8 -42.45 0.65 -42.45 0.45 -42.45 -0.55 -41.05 -1.7 -39.85 -2.75 -38.5 -3.2 L-36.75 -3.85 Q-35.6 -4.3 -34.6 -4.6 -32.85 -5.05 -31.05 -5.25 L-28.45 -5.4 Q-25.2 -5.4 -18.85 -8.0 -17.0 -8.75 -14.65 -9.8 -12.7 -10.7 -12.55 -10.75 -6.85 -12.3 -3.5 -13.1 L-3.0 -13.2 Q2.9 -14.55 8.45 -15.2 L9.45 -15.2 Q12.9 -14.7 18.75 -13.45 24.95 -12.15 27.05 -11.4 28.25 -10.95 29.2 -10.4 L29.6 -10.1 31.3 -8.9 Q33.7 -7.55 41.3 -6.6 L48.3 -6.55 Q50.5 -6.5 52.0 -5.6 L52.65 -5.15 52.85 -5.0 53.15 -4.7 Q53.65 -4.15 53.85 -3.6 53.95 -3.3 53.95 -3.0 53.95 -2.4 53.35 -1.95 L52.95 -1.7 Q51.95 -1.15 49.95 -0.85 L49.15 -0.75 46.5 -0.55 Q46.8 -0.75 47.1 -0.95 L47.55 -1.4 Q47.95 -1.9 47.95 -2.4 47.95 -2.9 47.8 -3.1 47.55 -3.4 46.7 -3.55 45.75 -3.75 38.7 -4.55 36.45 -4.8 34.65 -5.4 L33.25 -5.95 Q32.5 -6.25 31.85 -6.4 29.5 -6.7 27.95 -7.25 26.45 -7.9 25.5 -8.2 22.1 -9.45 12.45 -9.8 L3.35 -8.55 Q-0.35 -8.05 -1.75 -7.8 -3.55 -7.5 -5.1 -7.0 -6.4 -6.6 -9.05 -5.55 -12.0 -4.45 -17.05 -1.85 -18.3 -1.2 -19.4 -0.65 -22.7 0.95 -24.9 1.8 L-25.0 1.85 -25.1 1.85 Q-26.15 1.55 -27.05 1.1 L-28.4 0.2 -28.85 -0.05 Q-29.35 -0.35 -29.75 -0.5 -30.55 -0.8 -31.55 -0.8 -31.4 -0.8 -31.35 -0.85 -31.55 -0.9 -32.3 -0.7 -33.35 -0.35 -34.55 0.15 -35.4 0.5 -36.05 0.85 -36.9 1.35 -37.35 1.75 L-38.25 1.7 -38.35 1.7" fill="#ffe47f" fill-opacity="0.2509804" fill-rule="evenodd" stroke="none"/>
      <path d="M-40.6 1.45 Q-40.95 1.7 -41.35 1.7 -42.6 1.7 -43.55 0.95 -44.5 0.75 -44.85 -0.05 -45.05 -0.65 -45.0 -1.25 -45.0 -1.6 -44.6 -2.05 -44.05 -3.05 -42.4 -3.95 -41.6 -4.4 -40.45 -4.8 -39.65 -5.2 -38.75 -5.65 -33.05 -8.3 -24.2 -11.35 -15.5 -14.35 -7.75 -16.35 0.6 -18.45 4.3 -18.45 10.0 -18.45 14.7 -17.75 18.3 -17.15 21.95 -16.0 24.0 -15.35 27.55 -14.1 30.6 -13.1 33.0 -12.75 45.0 -11.0 49.65 -9.85 56.35 -8.15 56.35 -6.0 56.35 -5.3 56.2 -4.65 56.25 -4.3 56.25 -3.9 56.25 -2.45 54.9 -1.5 54.1 -0.95 52.75 -0.55 48.85 1.65 41.0 2.2 40.55 2.15 40.2 2.0 39.85 1.9 39.7 1.8 38.35 1.85 36.8 1.85 33.3 1.85 21.6 1.0 9.95 0.15 8.45 0.15 L6.4 0.15 -1.5 0.65 -3.95 0.85 -9.35 1.25 -9.6 1.25 Q-11.45 1.35 -13.65 1.75 L-15.6 2.1 -16.4 2.25 -17.25 2.45 -22.1 2.45 -28.75 2.15 -28.95 2.15 -35.4 2.5 Q-35.9 2.5 -37.1 2.3 L-38.8 2.05 Q-38.65 1.85 -38.35 1.7 L-38.25 1.7 -37.35 1.75 Q-36.9 1.35 -36.05 0.85 -35.4 0.5 -34.55 0.15 -33.35 -0.35 -32.3 -0.7 -31.55 -0.9 -31.35 -0.85 -31.4 -0.8 -31.55 -0.8 -30.55 -0.8 -29.75 -0.5 -29.35 -0.35 -28.85 -0.05 L-28.4 0.2 -27.05 1.1 Q-26.15 1.55 -25.1 1.85 L-25.0 1.85 -24.9 1.8 Q-22.7 0.95 -19.4 -0.65 -18.3 -1.2 -17.05 -1.85 -12.0 -4.45 -9.05 -5.55 -6.4 -6.6 -5.1 -7.0 -3.55 -7.5 -1.75 -7.8 -0.35 -8.05 3.35 -8.55 L12.45 -9.8 Q22.1 -9.45 25.5 -8.2 26.45 -7.9 27.95 -7.25 29.5 -6.7 31.85 -6.4 32.5 -6.25 33.25 -5.95 L34.65 -5.4 Q36.45 -4.8 38.7 -4.55 45.75 -3.75 46.7 -3.55 47.55 -3.4 47.8 -3.1 47.95 -2.9 47.95 -2.4 47.95 -1.9 47.55 -1.4 L47.1 -0.95 Q46.8 -0.75 46.5 -0.55 L49.15 -0.75 49.95 -0.85 Q51.95 -1.15 52.95 -1.7 L53.35 -1.95 Q53.95 -2.4 53.95 -3.0 53.95 -3.3 53.85 -3.6 53.65 -4.15 53.15 -4.7 L52.85 -5.0 52.65 -5.15 52.0 -5.6 Q50.5 -6.5 48.3 -6.55 L41.3 -6.6 Q33.7 -7.55 31.3 -8.9 L29.6 -10.1 29.2 -10.4 Q28.25 -10.95 27.05 -11.4 24.95 -12.15 18.75 -13.45 12.9 -14.7 9.45 -15.2 L8.45 -15.2 Q2.9 -14.55 -3.0 -13.2 L-3.5 -13.1 Q-6.85 -12.3 -12.55 -10.75 -12.7 -10.7 -14.65 -9.8 -17.0 -8.75 -18.85 -8.0 -25.2 -5.4 -28.45 -5.4 L-31.05 -5.25 Q-32.85 -5.05 -34.6 -4.6 -35.6 -4.3 -36.75 -3.85 L-38.5 -3.2 Q-39.85 -2.75 -41.05 -1.7 -42.45 -0.55 -42.45 0.45 -42.45 0.65 -42.3 0.8 -42.1 1.1 -41.5 1.3 L-40.6 1.45 M36.55 0.3 L38.95 0.3 38.1 0.25 36.55 0.3" fill="#ffffff" fill-opacity="0.2509804" fill-rule="evenodd" stroke="none"/>
    </g>
  </defs>
</svg>
