<?xml version="1.0" encoding="UTF-8" standalone="no"?>
<svg xmlns:ffdec="https://www.free-decompiler.com/flash" xmlns:xlink="http://www.w3.org/1999/xlink" ffdec:objectType="frame" height="232.05px" width="380.1px" xmlns="http://www.w3.org/2000/svg">
  <g transform="matrix(1.0, 0.0, 0.0, 1.0, 194.6, 155.75)">
    <use ffdec:characterId="350" height="6.95" transform="matrix(7.0, 0.0, 0.0, 7.0, -68.25, -39.55)" width="17.45" xlink:href="#shape0"/>
  </g>
  <defs>
    <g id="shape0" transform="matrix(1.0, 0.0, 0.0, 1.0, 9.75, 5.65)">
      <path d="M0.35 -3.95 Q0.6 -3.85 1.0 -3.35 1.35 -2.85 1.35 -2.7 L1.3 -2.65 0.8 -1.9 Q0.4 -1.35 0.3 -1.1 L0.6 -1.15 0.7 -1.1 0.75 -1.05 0.8 -1.05 Q0.95 -1.0 0.95 -0.75 0.95 -0.65 0.9 -0.6 0.8 -0.55 0.7 -0.5 L0.65 -0.5 0.55 -0.55 Q0.4 -0.55 0.3 -0.65 -0.2 -0.65 -0.3 -0.9 -0.35 -0.95 -0.35 -1.15 -0.35 -1.25 0.2 -2.05 L0.75 -2.7 Q0.7 -2.75 0.45 -3.2 L0.1 -3.6 0.1 -3.55 Q-0.05 -3.35 -0.7 -3.35 L-1.15 -3.4 -1.5 -3.4 -2.1 -3.55 -2.35 -3.5 -2.6 -3.5 Q-3.2 -3.5 -3.85 -3.9 L-4.35 -4.3 -5.0 -4.6 Q-5.3 -4.8 -5.65 -4.9 -5.7 -4.65 -5.75 -4.35 L-5.8 -3.4 -5.75 -2.8 Q-5.7 -2.5 -5.45 -2.3 L-5.35 -2.3 Q-5.3 -2.35 -5.05 -2.3 -4.8 -2.3 -4.75 -2.15 L-4.5 -2.1 -4.35 -2.1 Q-4.4 -2.25 -4.15 -2.25 L-3.95 -2.25 -3.35 -2.15 -2.65 -2.0 -1.95 -1.8 Q-1.55 -1.65 -1.35 -1.2 -1.2 -0.85 -1.1 -0.75 L-0.9 -0.7 -0.8 -0.7 -0.5 -0.45 -0.5 -0.35 -0.55 -0.25 -0.75 -0.15 -0.9 -0.2 Q-1.4 -0.4 -1.7 -0.65 -1.95 -0.95 -1.95 -1.25 -2.0 -1.55 -3.95 -1.9 -4.05 -1.85 -4.2 -1.75 L-4.4 -1.75 -4.4 -1.7 -4.35 -1.65 Q-3.9 -1.3 -3.95 -1.25 -3.95 -0.75 -4.5 -0.05 -5.0 0.55 -5.05 0.65 L-5.05 0.7 -4.9 0.75 -4.8 0.75 -4.75 0.8 -4.75 0.85 Q-4.7 0.85 -4.75 0.9 L-4.75 1.0 -4.85 1.05 -5.05 1.05 -5.1 1.1 -5.15 1.1 -5.25 1.15 -5.45 1.1 -5.55 1.1 -5.6 1.05 Q-5.85 0.75 -5.85 0.6 L-5.35 -0.2 Q-4.95 -0.9 -4.95 -1.4 L-5.0 -1.6 Q-5.45 -1.85 -5.75 -1.9 L-5.85 -1.95 Q-6.25 -2.2 -6.35 -2.7 L-6.3 -2.7 Q-6.35 -2.8 -6.35 -3.35 -6.35 -4.3 -6.3 -4.65 -6.2 -5.6 -5.7 -5.65 L-5.6 -5.65 -5.5 -5.6 Q-4.7 -4.95 -3.25 -4.35 -2.5 -4.0 -1.95 -3.9 L-1.85 -3.85 Q-1.55 -3.8 -1.3 -3.8 -0.45 -3.8 -0.25 -3.9 L-0.2 -3.95 -0.1 -4.0 0.25 -4.0 0.35 -3.95 M-5.3 -2.05 Q-5.35 -1.9 -5.15 -1.9 L-5.15 -2.0 -5.2 -2.0 -5.3 -2.1 -5.3 -2.05 M-5.1 -1.8 L-5.0 -1.85 -5.05 -1.85 -5.15 -1.9 -5.1 -1.85 -5.1 -1.8" fill="#e1ffd2" fill-opacity="0.5019608" fill-rule="evenodd" stroke="none"/>
      <path d="M1.15 -2.7 L0.6 -1.95 Q0.05 -1.2 0.0 -0.95 L0.3 -0.95 0.6 -1.0 0.65 -0.95 Q0.75 -0.9 0.75 -0.75 L0.7 -0.7 Q0.7 -0.65 0.65 -0.65 0.5 -0.7 0.45 -0.8 L0.3 -0.8 Q-0.05 -0.8 -0.1 -0.95 L-0.15 -1.15 Q-0.15 -1.25 0.4 -1.95 L0.95 -2.7 Q0.95 -2.8 0.65 -3.25 0.3 -3.75 0.1 -3.75 0.05 -3.75 -0.05 -3.6 -0.2 -3.5 -0.7 -3.5 L-1.15 -3.5 -1.45 -3.55 -2.1 -3.7 -2.4 -3.65 -2.6 -3.65 Q-3.15 -3.65 -3.75 -4.0 L-4.25 -4.4 -4.9 -4.75 Q-5.3 -4.95 -5.75 -5.15 -5.9 -4.8 -5.95 -4.35 L-6.0 -3.4 -5.95 -2.8 Q-5.9 -2.4 -5.55 -2.15 L-5.25 -2.15 -4.9 -1.85 -4.95 -1.95 -4.9 -1.95 -4.55 -1.6 Q-4.15 -1.3 -4.15 -1.25 -4.15 -0.75 -4.7 -0.1 -5.25 0.55 -5.25 0.65 L-5.25 0.8 -4.95 0.85 -4.95 0.9 -5.05 0.95 -5.2 0.95 -5.25 1.0 -5.45 0.95 Q-5.65 0.75 -5.65 0.6 L-5.2 -0.15 Q-4.75 -0.85 -4.75 -1.4 -4.75 -1.5 -4.8 -1.65 L-4.8 -1.7 -4.85 -1.7 Q-5.35 -1.95 -5.7 -2.05 -6.05 -2.3 -6.1 -2.7 -6.15 -2.85 -6.15 -3.35 L-6.1 -4.6 Q-6.0 -5.45 -5.65 -5.5 -4.85 -4.8 -3.35 -4.2 -2.55 -3.9 -2.0 -3.75 L-1.95 -3.75 -1.3 -3.65 Q-0.25 -3.65 -0.1 -3.85 L0.25 -3.85 Q0.45 -3.75 0.8 -3.25 1.15 -2.8 1.15 -2.7 M-3.45 -2.0 L-2.7 -1.85 -2.05 -1.65 Q-1.7 -1.55 -1.55 -1.15 -1.35 -0.7 -1.25 -0.6 L-0.95 -0.55 -0.7 -0.35 -0.8 -0.3 Q-1.25 -0.5 -1.5 -0.75 -1.75 -1.0 -1.75 -1.25 -1.75 -1.7 -4.0 -2.05 -4.15 -1.95 -4.3 -1.9 L-4.7 -1.95 -4.95 -2.0 -5.0 -2.0 Q-5.1 -2.0 -5.1 -2.05 L-4.85 -2.0 -4.5 -1.95 Q-4.15 -1.95 -4.15 -2.1 -4.2 -2.2 -3.45 -2.0" fill="#ffffff" fill-rule="evenodd" stroke="none"/>
      <path d="M2.45 -4.7 Q2.45 -4.6 2.4 -4.55 L2.35 -4.45 Q2.6 -4.3 3.35 -4.05 L5.5 -3.4 Q6.3 -3.3 7.0 -2.65 7.75 -1.95 7.7 -1.5 7.7 -1.2 7.45 -1.0 L7.4 -1.0 7.1 -0.8 6.55 -0.8 6.35 -0.85 5.9 -0.9 5.9 -0.85 Q5.5 -0.9 4.7 -1.25 L4.65 -1.3 4.4 -1.4 Q4.1 -1.55 3.55 -1.55 3.45 -1.4 3.4 -1.45 L3.35 -1.4 2.7 -1.45 2.0 -1.5 2.05 -1.45 1.35 -1.6 1.3 -1.6 Q1.0 -1.6 0.3 -1.95 L-0.15 -2.15 -0.3 -2.2 -0.45 -2.15 -0.5 -2.15 -0.65 -2.2 -0.7 -2.2 Q-1.0 -2.3 -1.05 -2.4 -1.5 -2.35 -1.85 -2.2 -1.75 -2.15 -1.75 -2.05 L-1.75 -1.95 -1.85 -1.85 Q-2.05 -1.6 -2.25 -1.5 L-2.2 -1.55 Q-2.55 -1.35 -3.05 -1.35 -3.9 -1.35 -4.25 -1.6 -4.55 -1.85 -4.5 -2.1 -4.55 -2.25 -4.4 -2.4 L-4.35 -2.45 -4.4 -2.45 -5.0 -2.55 -5.2 -2.5 -5.15 -2.4 Q-5.15 -2.25 -5.2 -2.2 -5.25 -2.1 -5.35 -2.05 L-5.35 -1.95 Q-5.3 -1.9 -5.35 -1.85 L-5.4 -1.7 Q-5.5 -1.65 -5.8 -1.45 L-6.1 -1.25 Q-6.25 -1.1 -6.25 -0.85 L-6.25 -0.7 -5.9 -0.35 Q-5.85 -0.3 -5.85 -0.2 -5.85 -0.05 -5.9 -0.05 L-5.9 0.05 Q-5.95 0.1 -6.2 0.1 -6.8 0.1 -6.95 -0.15 -7.1 -0.3 -7.1 -0.55 -7.1 -0.7 -7.0 -0.9 L-6.95 -1.1 Q-6.95 -1.05 -7.0 -1.05 L-7.1 -1.15 -7.15 -1.1 Q-7.2 -1.05 -7.3 -1.05 -7.4 -1.0 -7.55 -1.1 L-7.85 -1.2 Q-7.9 -1.2 -7.95 -1.25 -8.2 -1.65 -8.2 -1.8 -8.2 -2.25 -7.75 -2.55 -7.3 -2.85 -6.45 -2.85 L-6.35 -2.8 -6.25 -2.7 Q-6.15 -2.65 -6.15 -2.1 -6.15 -2.05 -6.1 -2.05 L-5.85 -2.1 -5.75 -2.1 -5.75 -2.15 -5.8 -2.3 -5.8 -2.35 -5.85 -2.4 Q-6.0 -2.5 -6.0 -2.8 -6.0 -3.1 -5.65 -3.35 L-5.65 -3.5 Q-5.7 -3.7 -5.6 -3.9 -5.5 -4.15 -5.25 -4.25 -4.95 -4.35 -3.75 -4.25 L-3.0 -4.05 -2.9 -4.0 -2.8 -3.85 Q-2.7 -3.8 -2.7 -3.7 -2.7 -3.65 -2.75 -3.55 L-2.7 -3.5 -2.6 -3.45 Q-2.4 -3.35 -1.75 -3.25 L-1.6 -3.4 -1.5 -3.4 Q-1.3 -3.45 -1.1 -3.6 L-0.95 -3.75 -0.95 -3.8 -1.0 -3.8 Q-1.05 -3.8 -1.1 -3.9 -1.15 -3.95 -1.15 -4.0 L-1.2 -4.1 -1.15 -4.2 Q-0.95 -4.7 -0.45 -4.85 L0.15 -5.05 0.2 -5.1 Q0.7 -5.3 1.2 -5.3 1.85 -5.25 2.35 -4.85 2.4 -4.8 2.45 -4.7 M-9.05 -1.1 L-9.0 -1.1 Q-8.8 -1.05 -8.8 -1.0 L-8.65 -1.05 -8.35 -1.05 Q-8.3 -1.05 -8.25 -0.9 -8.2 -0.9 -8.2 -0.7 -8.2 -0.6 -8.3 -0.4 L-8.3 -0.35 -8.35 -0.25 -8.25 0.1 -8.0 0.55 -8.0 0.6 -7.75 0.8 Q-7.65 0.85 -7.65 0.95 -7.65 1.05 -7.7 1.1 L-7.7 1.15 -7.85 1.25 -7.9 1.25 -8.1 1.3 Q-8.2 1.3 -8.25 1.2 L-8.35 1.05 -8.35 0.95 -8.4 0.95 Q-8.65 0.75 -8.85 0.5 L-8.9 0.55 Q-8.95 0.7 -9.05 0.75 L-9.2 0.7 Q-9.35 0.65 -9.55 0.35 -9.75 0.05 -9.75 -0.05 L-9.65 -0.4 -9.6 -0.6 Q-9.6 -0.85 -9.45 -0.95 -9.3 -1.1 -9.05 -1.1" fill="#e1ffd2" fill-opacity="0.5019608" fill-rule="evenodd" stroke="none"/>
      <path d="M2.0 -4.55 Q2.05 -4.25 3.3 -3.8 4.0 -3.6 5.45 -3.2 6.2 -3.1 6.85 -2.5 7.45 -1.9 7.45 -1.5 7.45 -1.3 7.3 -1.2 L7.0 -1.05 6.4 -1.05 5.95 -1.1 Q5.55 -1.15 4.8 -1.5 4.65 -1.6 4.45 -1.65 4.1 -1.8 3.4 -1.75 L3.35 -1.65 2.7 -1.65 2.1 -1.7 1.35 -1.85 1.3 -1.85 Q1.0 -1.85 0.4 -2.15 L-0.1 -2.4 -0.65 -2.4 Q-0.8 -2.45 -0.8 -2.5 L-0.35 -2.5 0.1 -2.55 0.0 -2.7 -0.3 -2.7 -1.05 -2.65 Q-1.8 -2.55 -2.25 -2.25 L-2.25 -2.1 Q-2.0 -2.05 -2.0 -2.0 L-2.3 -1.75 Q-2.6 -1.6 -3.05 -1.6 -3.8 -1.6 -4.1 -1.8 -4.3 -1.95 -4.3 -2.1 L-4.25 -2.25 -4.1 -2.4 -4.2 -2.65 Q-4.4 -2.75 -5.0 -2.75 L-5.4 -2.7 -5.7 -2.6 Q-5.75 -2.65 -5.75 -2.8 -5.75 -3.0 -5.45 -3.2 -5.4 -3.35 -5.45 -3.55 -5.5 -3.7 -5.4 -3.8 -5.35 -3.95 -5.15 -4.0 -4.9 -4.1 -3.8 -4.0 L-3.05 -3.8 -2.95 -3.7 Q-3.1 -3.55 -3.1 -3.5 L-2.7 -3.2 Q-2.45 -3.1 -1.55 -3.0 L-1.6 -3.05 -1.55 -3.1 -1.5 -3.2 Q-1.2 -3.2 -1.0 -3.4 L-0.75 -3.65 -0.75 -4.0 -0.95 -4.05 -0.95 -4.1 Q-0.8 -4.5 -0.4 -4.6 0.2 -4.8 0.25 -4.85 L0.3 -4.85 Q0.7 -5.1 1.2 -5.05 1.8 -5.05 2.2 -4.65 2.2 -4.6 2.0 -4.55 M-9.45 -0.3 Q-9.35 -0.5 -9.35 -0.6 -9.35 -0.85 -9.05 -0.85 L-8.65 -0.8 -8.45 -0.8 Q-8.45 -0.9 -8.45 -0.7 -8.45 -0.65 -8.5 -0.45 L-8.6 -0.25 Q-8.6 -0.05 -8.45 0.2 L-8.25 0.7 -8.25 0.75 Q-8.55 0.55 -8.75 0.25 -9.05 -0.1 -9.0 -0.35 -9.15 -0.2 -9.15 0.05 L-9.1 0.45 -9.1 0.5 Q-9.2 0.45 -9.35 0.25 -9.5 0.05 -9.5 -0.05 L-9.45 -0.3 M-6.15 -1.8 L-5.8 -1.85 -5.55 -1.9 -5.9 -1.65 -6.3 -1.45 Q-6.5 -1.25 -6.5 -0.85 -6.5 -0.65 -6.45 -0.6 L-6.05 -0.2 -6.1 -0.15 -6.2 -0.15 Q-6.65 -0.15 -6.8 -0.3 -6.85 -0.4 -6.85 -0.55 L-6.8 -0.8 Q-6.7 -1.0 -6.7 -1.1 -6.7 -1.15 -6.85 -1.25 L-7.05 -1.4 -7.3 -1.35 -7.3 -1.25 -7.5 -1.3 -7.75 -1.4 Q-7.95 -1.7 -7.95 -1.8 -7.95 -2.15 -7.65 -2.35 -7.25 -2.6 -6.45 -2.6 -6.4 -2.5 -6.4 -2.1 -6.4 -1.85 -6.15 -1.8 M-5.45 -2.35 L-5.45 -2.2 -5.55 -2.2 -5.55 -2.4 -5.45 -2.45 -5.45 -2.35 M-8.1 0.8 Q-8.05 0.8 -7.9 1.0 L-7.95 1.05 -8.1 1.05 -8.15 0.9 -8.1 0.8" fill="#ffffff" fill-rule="evenodd" stroke="none"/>
    </g>
  </defs>
</svg>
