<?xml version="1.0" encoding="UTF-8" standalone="no"?>
<svg xmlns:ffdec="https://www.free-decompiler.com/flash" xmlns:xlink="http://www.w3.org/1999/xlink" ffdec:objectType="frame" height="274.4px" width="296.1px" xmlns="http://www.w3.org/2000/svg">
  <g transform="matrix(1.0, 0.0, 0.0, 1.0, 155.4, 244.4)">
    <use ffdec:characterId="625" height="27.45" transform="matrix(7.0, 0.0, 0.0, 7.0, -70.55, -173.8)" width="13.9" xlink:href="#shape0"/>
    <use ffdec:characterId="624" height="34.05" transform="matrix(7.0, 0.0, 0.0, 7.0, -96.95, -243.35)" width="25.0" xlink:href="#shape1"/>
  </g>
  <defs>
    <g id="shape0" transform="matrix(1.0, 0.0, 0.0, 1.0, 7.95, 28.7)">
      <path d="M1.2 -16.25 L1.05 -16.15 0.75 -16.05 0.65 -16.05 0.65 -16.2 Q0.65 -16.25 0.85 -16.3 L1.2 -16.35 1.2 -16.25 M5.1 -16.85 Q4.95 -16.75 4.85 -16.75 L4.8 -16.9 5.2 -17.15 Q5.65 -17.15 5.75 -17.05 L5.95 -16.9 Q5.95 -16.7 5.8 -16.65 5.7 -16.7 5.65 -16.8 5.3 -16.95 5.1 -16.85 M3.4 -16.75 L3.5 -16.7 3.45 -16.6 3.45 -16.55 3.2 -16.45 3.1 -16.4 2.95 -16.45 2.95 -16.5 3.05 -16.7 Q3.1 -16.8 3.4 -16.75 M5.1 -11.95 Q5.05 -11.95 5.0 -12.0 4.95 -12.05 4.95 -12.15 5.2 -12.4 5.2 -12.35 L5.4 -12.35 5.5 -12.3 5.5 -11.95 5.3 -12.0 Q5.15 -12.0 5.1 -11.95 M2.9 -5.6 Q2.8 -5.6 2.7 -5.5 L2.55 -5.55 2.65 -5.6 Q2.75 -5.65 2.75 -5.75 2.75 -6.05 2.6 -6.25 2.8 -6.35 2.85 -6.25 2.95 -6.15 2.95 -6.0 L2.9 -5.8 2.9 -5.6 M0.25 -5.35 Q0.25 -5.3 0.3 -5.3 L0.3 -5.25 -0.15 -5.25 -0.3 -5.3 -0.3 -5.5 0.05 -5.55 0.2 -5.5 0.25 -5.35 M0.85 -4.55 Q0.9 -4.5 0.9 -4.4 L0.9 -4.3 0.85 -4.25 0.75 -4.2 0.7 -4.35 Q0.6 -4.45 0.6 -4.5 0.65 -4.6 0.75 -4.6 L0.85 -4.55 M1.85 -4.9 L1.75 -4.85 Q1.55 -4.85 1.4 -5.0 1.45 -5.1 1.6 -5.1 1.75 -5.1 1.9 -4.95 L1.85 -4.9 M-3.55 -28.4 L-4.0 -28.4 -4.0 -28.5 Q-4.0 -28.65 -3.8 -28.7 L-3.45 -28.7 Q-3.45 -28.55 -3.55 -28.4 M-4.9 -26.0 Q-5.0 -25.95 -5.15 -25.9 L-5.35 -25.75 -5.5 -25.8 Q-5.65 -25.8 -5.65 -25.85 -5.45 -26.05 -5.15 -26.1 -4.95 -26.1 -4.9 -26.0 M-4.25 -23.55 Q-4.3 -23.55 -4.35 -23.6 L-4.25 -23.75 -4.1 -23.9 Q-3.95 -23.85 -3.9 -23.8 L-4.2 -23.5 -4.25 -23.55 M-3.15 -22.05 Q-3.1 -22.05 -3.1 -21.95 -3.1 -21.9 -3.25 -21.7 L-3.45 -21.55 -3.5 -21.55 Q-3.55 -21.55 -3.55 -21.65 -3.55 -21.75 -3.45 -21.9 -3.3 -22.05 -3.15 -22.05 M-1.85 -20.75 Q-1.7 -20.6 -1.65 -20.4 L-1.65 -20.35 Q-1.65 -20.3 -1.75 -20.3 L-2.0 -20.5 Q-2.2 -20.7 -2.25 -20.85 -2.05 -20.9 -1.85 -20.75 M-3.25 -19.65 Q-3.5 -19.65 -3.65 -19.55 L-3.8 -19.55 -3.85 -19.65 -3.7 -19.85 Q-3.6 -19.9 -3.3 -19.85 -3.3 -19.75 -3.25 -19.65 M-4.8 -20.75 L-4.85 -20.8 -4.9 -20.9 Q-4.65 -21.1 -4.55 -21.1 -4.55 -21.2 -4.55 -21.05 -4.55 -21.0 -4.8 -20.75 M-3.25 -16.55 L-3.4 -16.55 -3.45 -16.65 Q-3.3 -17.1 -2.85 -17.1 -2.75 -16.9 -2.95 -16.8 -3.2 -16.6 -3.25 -16.55 M-3.2 -9.2 L-3.25 -9.25 Q-3.3 -9.3 -3.3 -9.4 -3.3 -9.5 -3.25 -9.55 L-3.15 -9.55 -2.9 -9.5 -2.7 -9.3 -2.75 -9.15 -2.95 -9.2 -3.2 -9.2 M-5.75 -9.5 L-6.1 -9.5 -6.3 -9.55 -6.35 -9.6 Q-6.35 -9.85 -6.15 -9.8 -5.95 -9.8 -5.75 -9.6 L-5.75 -9.5 M-4.1 -7.25 L-4.0 -7.4 -3.75 -7.4 -3.75 -7.1 -3.8 -7.1 -3.85 -7.05 -3.85 -7.1 Q-3.95 -7.1 -4.05 -7.15 L-4.1 -7.25 M-7.4 -8.9 Q-7.35 -8.95 -7.35 -8.8 -7.35 -8.75 -7.45 -8.7 L-7.7 -8.6 -7.9 -8.6 -7.95 -8.7 -7.85 -8.8 Q-7.75 -8.9 -7.7 -8.9 L-7.4 -8.9 M-6.1 -5.55 L-6.2 -5.55 -6.25 -5.65 Q-6.1 -5.8 -5.95 -5.75 L-6.1 -5.55 M-7.35 -5.2 Q-7.2 -5.2 -7.05 -5.15 L-7.0 -5.05 Q-7.25 -5.0 -7.45 -4.85 L-7.55 -4.9 Q-7.6 -4.9 -7.6 -5.0 -7.6 -5.2 -7.35 -5.2 M-6.85 -1.65 Q-6.85 -1.55 -6.75 -1.25 -6.95 -1.2 -7.05 -1.35 -7.15 -1.45 -7.15 -1.6 -7.15 -1.7 -7.0 -1.85 -6.8 -2.0 -6.65 -2.0 L-6.6 -1.95 -6.6 -1.85 -6.85 -1.65 M-2.45 -6.15 Q-2.25 -5.85 -2.2 -5.7 L-2.2 -5.65 -2.35 -5.65 Q-2.55 -5.65 -2.7 -5.95 -2.8 -6.15 -2.8 -6.25 -2.8 -6.5 -2.65 -6.6 -2.55 -6.55 -2.5 -6.35 L-2.45 -6.15 M-0.8 -4.3 L-0.8 -4.25 -1.15 -4.25 Q-1.05 -4.35 -0.9 -4.4 L-0.8 -4.3 M-3.25 -2.2 L-3.3 -2.1 -3.5 -2.1 Q-3.5 -2.2 -3.55 -2.3 -3.5 -2.4 -3.35 -2.4 L-3.25 -2.2" fill="#270909" fill-opacity="0.5019608" fill-rule="evenodd" stroke="none"/>
    </g>
    <g id="shape1" transform="matrix(1.0, 0.0, 0.0, 1.0, 13.85, 39.55)">
      <path d="M0.45 -39.05 L0.65 -39.05 0.7 -38.95 0.7 -38.9 0.65 -38.9 0.6 -38.85 0.45 -38.9 Q0.4 -38.9 0.4 -39.0 L0.4 -39.05 0.45 -39.05 M1.5 -38.25 L1.25 -38.3 1.25 -38.45 1.4 -38.45 Q1.55 -38.45 1.55 -38.35 L1.55 -38.25 1.5 -38.25 M1.4 -37.35 L1.5 -37.25 Q1.5 -37.15 1.25 -37.1 L1.1 -37.1 1.05 -37.15 1.05 -37.2 Q1.05 -37.3 1.1 -37.3 L1.2 -37.35 1.4 -37.35 M0.0 -36.5 L-0.2 -36.45 -0.25 -36.45 -0.35 -36.5 Q-0.35 -36.6 -0.25 -36.65 L0.0 -36.7 0.05 -36.6 0.0 -36.5 M1.8 -36.15 L1.8 -35.9 1.75 -35.85 1.6 -36.05 1.55 -36.05 1.5 -36.1 Q1.5 -36.2 1.55 -36.2 L1.7 -36.15 1.8 -36.15 M3.95 -36.3 L3.85 -36.3 3.85 -36.35 Q3.85 -36.45 3.95 -36.35 L3.95 -36.3 M5.55 -33.95 L5.8 -33.95 5.9 -33.85 5.65 -33.75 5.4 -33.75 5.4 -33.85 5.45 -33.9 5.55 -33.95 M3.9 -32.85 Q3.85 -32.85 3.85 -32.95 3.85 -33.05 3.95 -33.0 L4.1 -33.0 Q4.25 -32.95 4.25 -32.9 L4.25 -32.8 4.15 -32.8 Q4.1 -32.8 4.05 -32.85 L3.9 -32.9 3.9 -32.85 M5.35 -33.25 Q5.35 -33.2 5.3 -33.1 L5.2 -33.1 Q5.3 -33.25 5.35 -33.25 M1.1 -33.8 Q1.05 -33.75 0.95 -33.75 L0.85 -33.75 0.8 -33.8 0.9 -33.85 1.05 -33.9 1.2 -33.85 1.1 -33.8 M2.2 -33.35 L2.25 -33.3 2.15 -33.25 2.0 -33.25 1.95 -33.3 2.05 -33.4 2.2 -33.35 M1.45 -30.15 L1.5 -30.2 1.6 -30.1 1.5 -30.1 Q1.45 -30.1 1.45 -30.15 M2.0 -28.4 Q1.95 -28.35 1.85 -28.35 L1.7 -28.35 1.7 -28.45 Q1.75 -28.5 1.8 -28.55 1.95 -28.6 2.1 -28.5 2.0 -28.5 2.0 -28.4 M4.8 -30.65 L4.6 -30.6 4.5 -30.55 4.45 -30.55 4.45 -30.75 4.8 -30.7 4.8 -30.65 M4.2 -29.4 Q4.15 -29.4 4.15 -29.5 4.15 -29.6 4.2 -29.6 L4.3 -29.6 Q4.4 -29.55 4.45 -29.55 L4.3 -29.4 4.2 -29.4 M9.0 -34.35 L9.0 -34.1 8.7 -34.1 8.7 -34.25 Q8.7 -34.3 8.7 -34.35 L9.0 -34.35 M9.1 -31.9 L8.95 -31.75 Q8.9 -31.8 8.85 -31.8 8.95 -31.95 9.05 -31.95 L9.1 -31.9 M9.45 -32.15 Q9.35 -32.1 9.2 -32.1 9.15 -32.15 9.15 -32.2 L9.15 -32.3 9.45 -32.3 9.55 -32.25 9.45 -32.15 M8.1 -34.9 Q7.8 -34.75 7.6 -34.65 L7.45 -34.65 7.45 -34.75 Q7.45 -34.9 7.8 -35.0 8.1 -35.1 8.2 -35.1 8.25 -35.2 8.25 -35.05 8.25 -35.0 8.1 -34.9 M7.6 -33.85 Q7.7 -33.85 7.7 -33.75 L7.7 -33.7 Q7.45 -33.7 7.35 -33.6 L7.3 -33.6 7.3 -33.7 Q7.3 -33.75 7.35 -33.8 L7.45 -33.85 7.6 -33.85 M8.25 -32.8 L8.3 -32.65 8.15 -32.65 Q8.05 -32.65 8.05 -32.6 L8.0 -32.55 7.95 -32.55 Q7.9 -32.6 7.9 -32.7 L7.9 -32.75 7.95 -32.8 8.25 -32.8 M7.8 -29.2 L7.85 -29.1 Q7.85 -29.05 7.75 -29.05 L7.55 -29.0 7.5 -29.05 7.5 -29.15 Q7.5 -29.25 7.55 -29.2 L7.8 -29.2 M10.55 -31.55 L10.25 -31.55 10.25 -31.65 Q10.25 -31.7 10.3 -31.75 L10.35 -31.8 10.55 -31.8 Q10.6 -31.75 10.6 -31.6 L10.65 -31.55 10.55 -31.55 M10.75 -31.0 L10.8 -30.85 10.75 -30.85 10.7 -30.95 10.75 -31.0 M9.05 -30.8 L9.2 -30.85 9.25 -30.9 9.4 -30.9 9.5 -30.75 9.35 -30.6 Q9.15 -30.7 9.05 -30.8 M10.0 -29.8 L10.1 -29.75 10.15 -29.65 10.05 -29.55 9.8 -29.6 9.8 -29.75 9.85 -29.8 10.0 -29.8 M6.95 -25.8 Q7.05 -25.75 7.1 -25.65 L7.05 -25.6 Q6.95 -25.6 6.9 -25.65 L6.9 -25.6 6.75 -25.55 6.6 -25.55 6.55 -25.6 6.55 -25.7 Q6.55 -25.8 6.65 -25.8 L6.95 -25.8 M5.85 -26.2 L5.6 -26.3 5.4 -26.35 5.4 -26.45 5.45 -26.45 5.5 -26.5 5.7 -26.5 Q5.8 -26.45 5.85 -26.35 5.85 -26.3 5.85 -26.25 L5.85 -26.2 M7.8 -25.5 Q7.9 -25.45 7.9 -25.4 L7.85 -25.35 7.8 -25.25 Q7.65 -25.25 7.6 -25.3 7.5 -25.35 7.5 -25.45 L7.5 -25.5 7.65 -25.55 7.8 -25.5 M4.45 -28.15 L4.3 -28.15 4.3 -28.25 Q4.35 -28.3 4.45 -28.3 L4.5 -28.2 4.45 -28.15 M3.2 -25.3 L3.25 -25.2 3.2 -25.15 3.2 -25.1 Q3.15 -25.1 3.1 -25.25 3.1 -25.3 3.15 -25.3 L3.2 -25.3 M4.75 -26.45 L4.95 -26.4 4.8 -26.3 4.7 -26.2 4.6 -26.2 4.6 -26.3 Q4.6 -26.35 4.75 -26.45 M2.0 -23.4 L1.95 -23.4 1.85 -23.45 1.85 -23.55 Q1.95 -23.55 2.0 -23.45 L2.0 -23.4 M2.65 -16.0 L2.6 -16.05 2.7 -16.3 Q2.75 -16.45 2.85 -16.45 L3.1 -16.45 3.2 -16.35 3.25 -16.25 3.25 -16.2 2.8 -16.2 2.75 -16.1 2.65 -16.0 M2.5 -15.35 Q2.55 -15.45 2.55 -15.55 L2.6 -15.45 Q2.6 -15.3 2.45 -15.2 L2.05 -15.0 1.85 -15.05 1.8 -15.1 1.8 -15.3 1.9 -15.35 2.05 -15.35 2.2 -15.3 2.4 -15.3 2.5 -15.35 M4.6 -16.05 L4.6 -15.95 4.55 -15.95 Q4.5 -15.95 4.45 -16.0 L4.4 -16.05 4.15 -16.0 3.9 -16.0 3.9 -16.05 4.05 -16.25 4.3 -16.45 4.4 -16.45 Q4.6 -16.15 4.6 -16.05 M5.55 -14.35 L5.7 -14.3 Q5.8 -14.25 5.8 -14.15 L5.8 -14.05 5.65 -14.1 Q5.6 -14.15 5.5 -14.25 L5.55 -14.35 M4.8 -14.65 L4.45 -14.7 4.4 -14.75 Q4.5 -14.95 4.65 -14.9 4.75 -14.9 4.95 -14.75 4.95 -14.65 4.8 -14.65 M9.3 -11.55 L9.4 -11.4 9.5 -11.3 9.35 -11.3 9.2 -11.35 Q9.1 -11.35 9.1 -11.3 L9.1 -11.25 Q9.0 -11.25 8.95 -11.35 L9.0 -11.45 9.2 -11.55 9.3 -11.55 M7.2 -11.65 L7.3 -11.65 Q7.4 -11.6 7.45 -11.5 7.4 -11.4 7.35 -11.4 L7.1 -11.45 7.05 -11.5 Q7.15 -11.65 7.2 -11.65 M6.35 -12.3 Q6.5 -12.4 6.65 -12.4 L6.75 -12.35 Q6.85 -12.25 6.85 -12.15 6.45 -12.15 6.35 -12.2 L6.35 -12.3 M7.45 -9.3 Q7.45 -9.35 7.55 -9.4 L7.8 -9.45 7.8 -9.35 Q7.6 -9.25 7.55 -9.15 L7.45 -9.2 7.45 -9.3 M6.7 -7.15 L6.65 -7.05 6.45 -7.2 6.45 -7.25 Q6.45 -7.3 6.5 -7.3 L6.7 -7.15 M11.15 -10.0 L11.15 -9.95 11.1 -9.95 11.0 -10.0 10.55 -9.85 10.45 -9.85 Q10.55 -10.05 10.8 -10.15 L11.0 -10.1 11.15 -10.0 M10.85 -9.1 L10.85 -9.15 Q11.05 -9.1 11.05 -8.95 L11.05 -8.9 Q10.9 -8.9 10.8 -9.05 L10.85 -9.1 M9.6 -8.4 Q9.65 -8.5 9.7 -8.5 10.0 -8.5 10.05 -8.45 L10.15 -8.35 10.1 -8.25 9.65 -8.35 9.6 -8.4 M9.35 -7.8 Q9.5 -7.75 9.5 -7.65 9.45 -7.65 9.45 -7.55 L9.05 -7.65 9.05 -7.8 9.35 -7.8 M5.1 -13.4 L5.25 -13.35 5.25 -13.3 5.2 -13.25 4.95 -13.3 4.9 -13.4 5.0 -13.45 5.1 -13.4 M3.15 -13.5 Q3.35 -13.45 3.3 -13.3 L2.9 -13.3 2.9 -13.4 3.0 -13.55 3.15 -13.5 M0.5 -12.55 L0.4 -12.55 Q0.35 -12.55 0.35 -12.65 0.35 -12.85 0.5 -12.95 0.65 -13.1 0.95 -12.95 L0.95 -12.9 0.85 -12.85 Q0.8 -12.85 0.65 -12.7 L0.5 -12.55 M1.75 -10.65 L1.55 -10.55 1.3 -10.45 Q1.25 -10.45 1.25 -10.55 1.25 -10.6 1.35 -10.7 L1.45 -10.85 1.75 -10.85 Q1.85 -10.75 1.9 -10.7 L1.9 -10.6 1.8 -10.6 1.75 -10.65 M2.2 -10.4 L2.35 -10.15 2.3 -10.05 2.1 -10.1 1.75 -10.1 1.7 -10.15 1.95 -10.4 2.2 -10.4 M7.5 -6.65 Q7.55 -6.75 7.55 -6.6 7.55 -6.5 7.45 -6.5 L7.25 -6.45 7.2 -6.45 7.2 -6.5 Q7.2 -6.55 7.25 -6.6 L7.3 -6.7 7.5 -6.65 M6.65 -6.25 L6.65 -6.35 Q6.65 -6.4 6.7 -6.45 L6.8 -6.45 Q6.8 -6.5 6.8 -6.35 L6.8 -6.25 6.65 -6.25 M-3.2 -39.55 L-2.95 -39.5 -2.9 -39.45 -2.95 -39.4 -3.25 -39.35 -3.25 -39.3 -3.3 -39.4 Q-3.3 -39.5 -3.25 -39.5 L-3.2 -39.55 M-5.05 -36.55 L-5.05 -36.45 Q-5.1 -36.45 -5.2 -36.4 L-5.4 -36.35 -5.5 -36.35 -5.55 -36.4 -5.6 -36.55 Q-5.6 -36.6 -5.5 -36.6 L-5.45 -36.6 Q-5.15 -36.6 -5.05 -36.55 M-3.25 -36.8 L-3.35 -36.75 Q-3.5 -36.75 -3.45 -36.8 L-3.55 -36.8 -3.6 -36.85 -3.4 -36.95 -3.25 -36.95 -3.15 -36.85 -3.15 -36.8 -3.25 -36.8 M-2.7 -37.5 L-2.7 -37.55 -2.6 -37.65 -2.5 -37.7 -2.45 -37.65 -2.5 -37.55 Q-2.55 -37.5 -2.7 -37.5 M-1.9 -37.8 Q-2.0 -37.8 -2.0 -37.85 L-2.1 -37.9 -2.1 -37.95 -2.05 -38.0 -1.9 -38.0 Q-1.85 -37.95 -1.85 -37.85 L-1.85 -37.8 -1.9 -37.8 M-5.9 -35.8 Q-5.9 -35.7 -5.95 -35.7 L-6.0 -35.65 -6.1 -35.65 -6.2 -35.6 Q-6.3 -35.6 -6.3 -35.65 L-6.3 -35.8 -6.25 -35.85 -5.95 -35.85 Q-5.9 -35.9 -5.9 -35.8 M-5.9 -30.65 L-5.9 -30.75 Q-5.9 -30.9 -5.6 -30.85 L-5.6 -30.65 -5.9 -30.6 -5.9 -30.65 M-0.5 -32.8 L-0.35 -32.7 -0.35 -32.65 Q-0.45 -32.6 -0.55 -32.55 L-0.8 -32.55 -0.8 -32.65 Q-0.8 -32.8 -0.7 -32.8 L-0.5 -32.8 M-3.75 -34.3 L-3.75 -34.1 -4.05 -34.1 -4.1 -34.2 -3.95 -34.3 -3.8 -34.35 -3.75 -34.3 M-4.55 -34.85 L-4.45 -34.8 Q-4.5 -34.75 -4.6 -34.75 -4.7 -34.75 -4.75 -34.6 L-4.9 -34.6 -4.9 -34.7 -4.8 -34.85 -4.55 -34.85 M-5.25 -31.45 L-5.35 -31.5 -5.2 -31.65 -5.0 -31.65 -4.9 -31.5 -5.15 -31.45 -5.25 -31.45 M-5.35 -28.85 L-5.15 -28.7 -5.15 -28.65 -5.35 -28.65 -5.4 -28.75 -5.35 -28.85 M-5.2 -29.1 Q-5.3 -29.05 -5.35 -29.0 L-5.35 -28.95 Q-5.4 -28.95 -5.4 -29.05 -5.4 -29.2 -5.3 -29.25 -5.2 -29.25 -5.1 -29.1 L-5.2 -29.1 M-3.75 -29.2 Q-3.7 -29.3 -3.7 -29.15 -3.7 -29.05 -3.9 -29.0 L-4.0 -29.0 Q-4.1 -29.1 -4.1 -29.2 L-3.95 -29.25 -3.75 -29.2 M-1.25 -28.85 L-1.3 -28.8 -1.35 -28.8 Q-1.4 -28.75 -1.4 -28.85 -1.4 -28.95 -1.4 -28.9 L-1.35 -28.9 -1.25 -28.85 M-4.9 -22.4 L-4.75 -22.25 -4.75 -22.2 -4.9 -22.2 -5.05 -22.15 -5.1 -22.15 -5.1 -22.25 Q-5.1 -22.35 -5.0 -22.4 L-4.9 -22.4 M-5.25 -21.5 L-5.25 -21.6 -5.2 -21.7 Q-5.05 -21.65 -5.0 -21.6 L-5.15 -21.5 -5.25 -21.5 M-3.05 -21.8 Q-3.05 -21.9 -2.95 -21.9 -2.8 -21.95 -2.85 -21.85 -2.9 -21.75 -3.0 -21.7 L-3.05 -21.75 -3.05 -21.8 M-2.25 -22.45 L-2.25 -22.35 Q-2.25 -22.3 -2.35 -22.3 L-2.6 -22.35 -2.6 -22.55 Q-2.4 -22.55 -2.25 -22.45 M-1.55 -22.0 L-1.55 -21.95 -1.65 -21.95 Q-1.8 -21.95 -1.8 -22.05 L-1.55 -22.05 -1.55 -22.0 M-10.5 -22.35 L-10.55 -22.35 -10.6 -22.25 -10.8 -22.3 -10.8 -22.35 Q-10.8 -22.45 -10.7 -22.45 L-10.55 -22.45 -10.5 -22.35 M-8.95 -22.5 L-8.8 -22.5 Q-8.65 -22.45 -8.6 -22.35 L-8.65 -22.3 -8.6 -22.25 -8.75 -22.25 Q-8.85 -22.25 -8.85 -22.3 L-8.9 -22.25 -8.95 -22.25 -9.0 -22.35 -8.95 -22.5 M-8.8 -22.35 L-8.85 -22.3 -8.75 -22.3 -8.8 -22.35 M-9.9 -22.45 L-9.9 -22.35 -10.0 -22.3 Q-10.1 -22.3 -10.2 -22.5 L-9.9 -22.5 -9.9 -22.45 M-7.4 -22.6 L-7.3 -22.5 -7.35 -22.4 -7.6 -22.35 -7.7 -22.4 -7.7 -22.55 -7.4 -22.6 M-6.3 -22.15 Q-6.25 -22.15 -6.25 -22.05 L-6.25 -22.0 -6.6 -22.0 -6.65 -22.1 Q-6.6 -22.15 -6.5 -22.2 L-6.3 -22.15 M-9.75 -21.15 Q-9.75 -21.2 -9.7 -21.25 -9.6 -21.3 -9.5 -21.2 L-9.55 -21.1 -9.75 -21.1 -9.75 -21.15 M-10.05 -19.3 L-10.05 -19.4 Q-10.05 -19.5 -9.85 -19.45 L-9.8 -19.4 Q-9.85 -19.35 -10.0 -19.3 L-10.05 -19.3 M-10.05 -18.0 L-10.0 -18.1 -9.8 -18.1 -9.7 -17.95 -9.85 -17.9 -10.05 -17.95 -10.05 -18.0 M-11.05 -17.3 Q-11.1 -17.2 -11.25 -17.15 L-11.4 -17.15 -11.45 -17.2 -11.45 -17.3 Q-11.45 -17.35 -11.3 -17.45 L-11.15 -17.4 Q-11.05 -17.35 -11.05 -17.3 M-11.3 -14.65 Q-11.35 -14.6 -11.35 -14.55 L-11.5 -14.7 Q-11.5 -15.0 -11.25 -15.0 -10.95 -15.05 -10.95 -14.85 -10.95 -14.75 -11.0 -14.7 L-11.05 -14.7 -11.3 -14.65 M-10.75 -14.85 L-10.65 -14.9 -10.35 -14.85 Q-10.2 -14.7 -10.15 -14.55 L-10.2 -14.5 -10.35 -14.5 -10.4 -14.6 -10.75 -14.65 -10.75 -14.85 M-7.8 -14.75 L-7.95 -14.55 -8.2 -14.35 -8.25 -14.4 -8.25 -14.5 Q-8.25 -14.6 -8.2 -14.7 -8.1 -14.85 -7.95 -14.8 L-7.8 -14.75 M-12.15 -22.2 L-12.4 -22.2 -12.45 -22.3 Q-12.45 -22.35 -12.3 -22.4 L-12.25 -22.45 -12.15 -22.4 -12.0 -22.3 -12.0 -22.25 -12.15 -22.2 M-12.8 -21.15 L-12.8 -21.1 -13.0 -21.1 Q-13.1 -21.1 -13.1 -21.05 -13.1 -21.0 -13.25 -21.0 L-13.5 -20.95 -13.65 -20.95 -13.65 -21.0 Q-13.65 -21.1 -13.5 -21.25 L-13.1 -21.2 -12.95 -21.15 -12.8 -21.15 M-11.65 -19.85 L-11.65 -19.8 -12.05 -19.75 -12.05 -19.95 -12.0 -20.0 Q-11.75 -20.05 -11.7 -20.0 L-11.65 -19.85 M-13.3 -19.1 L-13.45 -19.1 -13.55 -19.05 Q-13.55 -19.0 -13.6 -19.0 L-13.7 -18.9 -13.85 -18.95 -13.85 -19.0 Q-13.8 -19.15 -13.75 -19.2 L-13.75 -19.25 -13.7 -19.3 -13.45 -19.3 Q-13.35 -19.25 -13.3 -19.2 L-13.3 -19.1 M-12.65 -18.75 L-12.7 -18.7 Q-12.85 -18.85 -12.85 -18.9 -12.65 -18.95 -12.65 -18.8 L-12.65 -18.75 M-12.5 -16.75 L-12.8 -16.75 -12.85 -16.8 Q-12.85 -16.9 -12.7 -16.9 L-12.55 -16.95 Q-12.5 -17.0 -12.5 -16.9 L-12.5 -16.75 M-11.8 -10.65 L-11.75 -10.6 -11.75 -10.55 -11.8 -10.45 -11.9 -10.45 -11.9 -10.65 -11.8 -10.65 M-12.7 -12.75 Q-12.45 -12.85 -12.4 -12.6 -12.4 -12.5 -12.45 -12.45 L-12.9 -12.45 -12.9 -12.55 Q-12.9 -12.7 -12.7 -12.75 M-12.65 -10.2 L-12.7 -10.15 -13.05 -10.05 -13.15 -10.1 -13.2 -10.1 -13.2 -10.15 Q-13.2 -10.3 -13.1 -10.35 L-12.8 -10.3 -12.65 -10.2 M-11.6 -8.55 L-11.6 -8.7 -11.55 -8.65 -11.35 -8.6 -11.55 -8.5 -11.6 -8.5 -11.6 -8.55 M-0.05 -13.9 Q0.0 -13.85 0.0 -13.7 L-0.25 -13.75 -0.65 -13.7 Q-0.7 -13.6 -0.8 -13.6 L-0.8 -13.65 Q-0.8 -13.75 -0.7 -13.85 -0.6 -13.9 -0.45 -13.95 L-0.25 -13.95 -0.05 -13.9 M-0.85 -13.45 L-0.85 -13.2 -0.9 -13.15 -0.95 -13.15 -0.95 -13.3 Q-0.95 -13.45 -0.85 -13.45 M-1.05 -12.55 L-0.85 -12.65 -0.6 -12.6 -0.65 -12.45 -0.9 -12.4 -1.1 -12.3 -1.15 -12.35 -1.15 -12.4 Q-1.15 -12.5 -1.05 -12.55 M-8.55 -13.3 L-8.8 -13.3 Q-8.8 -13.25 -8.85 -13.25 L-8.95 -13.25 -9.05 -13.4 Q-8.65 -13.8 -8.5 -13.4 L-8.5 -13.35 -8.55 -13.3 M-8.0 -12.7 Q-8.1 -12.7 -8.1 -12.75 -8.05 -12.85 -7.9 -13.2 -7.75 -13.45 -7.6 -13.5 -7.55 -13.4 -7.55 -13.2 -7.55 -13.05 -7.7 -12.95 L-7.95 -12.7 -8.0 -12.7 M-9.05 -9.25 Q-8.95 -9.25 -8.95 -9.15 -9.0 -9.1 -9.15 -9.05 L-9.2 -9.2 -9.05 -9.25 M-10.45 -9.5 L-10.85 -9.5 -10.85 -9.6 Q-10.85 -9.75 -10.7 -9.7 -10.5 -9.65 -10.45 -9.5 M-10.4 -7.8 L-10.4 -7.9 Q-10.4 -8.05 -10.2 -8.15 -10.0 -8.25 -9.9 -8.05 L-10.1 -7.9 Q-10.3 -7.8 -10.35 -7.8 L-10.4 -7.8 M-8.75 -7.45 L-8.7 -7.55 -8.55 -7.65 -8.5 -7.65 -8.5 -7.55 Q-8.5 -7.5 -8.5 -7.45 L-8.6 -7.4 -8.7 -7.4 -8.75 -7.45 M-8.15 -5.6 L-8.35 -5.5 Q-8.4 -5.5 -8.4 -5.55 -8.4 -5.7 -8.35 -5.75 L-8.05 -5.75 Q-8.05 -5.65 -8.15 -5.6" fill="#540000" fill-opacity="0.5019608" fill-rule="evenodd" stroke="none"/>
    </g>
  </defs>
</svg>
