<?xml version="1.0" encoding="UTF-8" standalone="no"?>
<svg xmlns:ffdec="https://www.free-decompiler.com/flash" xmlns:xlink="http://www.w3.org/1999/xlink" ffdec:objectType="frame" height="237.65px" width="340.2px" xmlns="http://www.w3.org/2000/svg">
  <g transform="matrix(1.0, 0.0, 0.0, 1.0, 179.9, 221.2)">
    <use ffdec:characterId="3886" height="25.8" transform="matrix(7.0, 0.0, 0.0, 7.0, -114.45, -178.5)" width="32.55" xlink:href="#shape0"/>
  </g>
  <defs>
    <g id="shape0" transform="matrix(1.0, 0.0, 0.0, 1.0, 16.35, 25.5)">
      <path d="M10.55 -3.25 Q10.2 -3.05 9.5 -2.55 L9.45 -2.6 9.35 -2.65 9.9 -3.05 Q10.35 -3.3 10.5 -3.3 L10.55 -3.25 M13.5 -8.65 L12.7 -8.35 12.6 -8.45 Q12.7 -8.55 13.05 -8.65 L13.45 -8.7 13.5 -8.65 M6.85 0.15 L6.95 0.2 Q6.95 0.3 6.8 0.3 L6.65 0.25 6.6 0.2 Q6.65 0.15 6.8 0.15 L6.85 0.15 M-10.35 -0.95 Q-10.35 -0.85 -10.4 -0.85 L-10.45 -0.9 Q-10.55 -0.95 -10.7 -1.2 -10.9 -1.45 -10.85 -1.5 L-10.85 -1.7 -10.75 -1.7 Q-10.35 -1.05 -10.35 -0.95" fill="#262626" fill-opacity="0.8" fill-rule="evenodd" stroke="none"/>
      <path d="M13.2 -21.25 L13.65 -21.25 13.7 -21.2 Q13.8 -20.9 13.95 -20.8 14.25 -20.65 15.15 -20.55 L15.2 -20.5 Q15.5 -20.3 15.7 -19.95 L15.9 -19.45 16.05 -18.95 Q16.2 -18.5 16.2 -18.4 16.2 -18.15 15.9 -18.0 15.65 -17.9 15.5 -17.8 15.1 -17.45 14.95 -17.3 L14.5 -16.8 14.55 -16.8 Q14.2 -16.4 14.15 -16.3 13.9 -15.85 13.7 -15.3 13.45 -14.65 13.45 -14.25 13.45 -14.0 13.65 -13.8 L14.05 -13.45 Q14.45 -13.5 14.7 -13.15 14.9 -12.9 14.9 -12.25 14.9 -11.95 14.5 -11.15 14.1 -10.25 13.9 -10.3 13.7 -10.3 13.65 -10.4 13.0 -10.0 12.8 -9.4 12.7 -9.15 12.7 -8.45 12.95 -8.3 12.9 -8.2 12.9 -7.9 11.75 -6.55 L10.55 -5.35 9.25 -4.0 8.25 -3.15 8.25 -3.05 8.2 -2.95 Q7.95 -2.75 6.95 -2.25 L6.5 -2.0 Q6.55 -2.0 6.6 -1.9 L6.6 -1.75 Q6.65 -1.45 4.95 -0.75 3.3 -0.05 2.45 -0.05 L2.1 -0.05 2.05 0.0 Q2.05 0.05 1.95 0.1 L1.85 0.1 Q1.65 0.05 1.6 -0.1 L1.6 -0.15 Q1.2 -0.25 0.65 -0.4 L-0.35 -0.55 -1.55 -0.65 -2.25 -0.7 -2.2 -0.7 Q-3.65 -0.65 -4.25 -0.5 L-4.7 -0.25 -4.6 -0.15 -4.6 -0.1 -4.65 0.0 -4.7 0.05 -4.8 0.05 Q-6.7 -0.25 -7.75 -0.9 -8.5 -1.4 -9.1 -2.3 -9.35 -2.6 -9.35 -3.05 L-9.4 -3.75 Q-9.45 -4.35 -9.65 -4.8 L-9.95 -5.4 Q-10.2 -5.85 -10.4 -6.15 L-11.15 -6.8 Q-11.9 -7.45 -11.85 -7.7 L-11.7 -8.1 Q-11.6 -8.45 -11.55 -8.55 -11.6 -9.0 -12.1 -9.55 -12.65 -10.15 -13.25 -10.4 L-13.5 -10.4 Q-14.4 -10.3 -15.4 -10.05 L-15.45 -10.05 Q-15.65 -10.05 -15.85 -10.1 L-15.9 -10.15 Q-16.0 -10.3 -16.2 -10.95 -16.4 -11.6 -16.35 -11.7 -16.4 -13.5 -14.6 -14.55 -13.7 -15.05 -13.25 -15.35 L-12.85 -15.6 Q-12.2 -16.4 -12.0 -16.75 -11.95 -16.95 -11.9 -17.45 L-12.0 -17.45 -12.05 -17.5 Q-12.3 -17.65 -12.35 -17.8 -12.4 -17.85 -12.4 -18.05 -12.4 -18.55 -12.1 -19.0 -11.7 -19.85 -9.9 -21.25 -8.8 -22.1 -7.6 -22.55 -6.3 -23.0 -5.25 -23.2 -4.05 -23.4 -3.4 -23.2 -3.05 -23.2 -2.85 -23.3 L-2.85 -23.35 Q-2.7 -23.45 -2.55 -23.5 L-2.3 -23.5 -1.95 -23.15 Q-0.95 -23.15 -0.1 -23.55 0.7 -23.9 1.1 -24.35 1.1 -24.4 1.15 -24.4 L1.5 -24.5 1.95 -24.55 3.1 -24.95 Q4.1 -25.2 6.1 -25.4 6.1 -25.45 6.15 -25.45 7.35 -25.6 8.65 -25.05 10.1 -24.5 10.15 -23.75 L10.3 -23.65 10.25 -23.65 Q10.4 -23.6 10.8 -23.55 L10.9 -23.5 12.0 -22.25 Q12.55 -21.65 13.2 -21.25 M6.2 -22.15 L5.8 -21.9 5.4 -21.7 Q4.65 -21.3 4.65 -20.95 L4.65 -20.85 4.6 -20.75 Q4.65 -20.45 4.4 -19.85 4.25 -19.55 3.8 -18.85 3.4 -18.3 3.4 -18.2 L3.8 -17.65 3.75 -17.65 Q4.15 -17.15 4.4 -16.95 5.2 -17.25 5.85 -17.75 L6.95 -18.65 8.15 -19.4 Q8.9 -19.9 8.9 -20.25 L8.7 -20.55 Q8.4 -20.9 8.4 -21.15 8.4 -21.4 8.3 -21.6 8.15 -21.85 7.95 -22.0 7.05 -22.55 6.2 -22.15 M3.25 -20.3 L3.15 -20.3 2.9 -20.25 Q2.55 -20.15 2.3 -19.9 L2.0 -19.65 1.85 -19.5 1.9 -19.45 Q2.1 -19.25 2.25 -19.0 2.35 -18.8 2.35 -18.6 2.45 -18.6 2.6 -18.8 2.7 -18.95 2.7 -19.05 L2.9 -19.45 3.05 -19.8 3.0 -19.75 3.4 -20.45 3.45 -20.55 3.3 -20.4 3.25 -20.3 M0.1 -16.55 L0.2 -16.65 0.25 -16.65 Q0.4 -16.7 0.6 -16.6 L0.65 -16.6 Q0.85 -16.5 1.1 -16.5 L1.25 -16.5 1.35 -16.75 Q1.35 -17.05 1.0 -17.3 0.6 -17.55 -0.15 -17.65 L-0.15 -17.6 Q-0.15 -17.4 -0.15 -17.35 -0.2 -17.2 -0.45 -17.05 L-0.5 -17.0 -0.2 -16.75 0.0 -16.55 0.1 -16.55 M8.65 -14.6 L8.65 -14.1 Q8.65 -13.45 8.15 -12.5 L8.05 -12.45 8.0 -12.45 Q7.6 -11.75 7.25 -10.5 6.9 -9.25 6.9 -8.55 L6.9 -8.05 Q6.9 -7.85 6.95 -7.75 L7.1 -7.7 7.15 -7.7 7.2 -7.65 Q7.6 -7.0 7.55 -6.5 7.6 -6.4 7.55 -6.3 8.35 -6.6 9.25 -7.85 10.2 -9.15 10.2 -9.95 10.15 -9.95 9.95 -10.15 9.65 -10.45 9.65 -10.65 9.65 -10.9 9.75 -11.15 9.85 -11.45 10.0 -11.6 L10.0 -11.65 10.45 -12.0 Q10.7 -12.3 10.75 -12.4 10.85 -12.65 11.0 -13.15 11.1 -13.7 11.1 -14.0 L11.1 -14.95 Q11.1 -15.1 11.0 -15.4 10.85 -15.7 10.85 -15.85 L10.9 -16.05 Q10.3 -16.0 9.55 -15.65 L9.5 -15.65 Q8.8 -15.25 8.75 -15.25 8.6 -15.2 8.5 -15.1 8.65 -14.8 8.65 -14.6 M5.95 -8.5 Q5.95 -9.05 5.75 -9.25 5.45 -9.5 5.45 -9.8 L5.55 -10.25 5.6 -10.65 Q5.6 -10.85 5.4 -11.25 5.2 -11.7 5.05 -11.7 L5.0 -11.7 4.95 -11.35 4.7 -10.45 4.6 -10.4 4.45 -10.4 Q4.3 -10.15 4.15 -9.85 L4.0 -9.25 3.95 -8.95 3.85 -8.3 3.8 -7.95 3.8 -7.9 Q3.7 -7.4 3.7 -7.2 L3.8 -6.6 3.8 -6.3 3.85 -6.25 3.85 -6.0 4.05 -6.0 4.15 -6.1 4.25 -6.15 4.35 -6.1 Q4.35 -6.05 4.45 -5.85 4.75 -5.85 5.0 -6.35 L5.3 -7.15 5.3 -7.2 Q5.4 -7.3 5.65 -7.55 5.8 -7.7 5.85 -7.85 5.95 -8.25 5.95 -8.5 M1.4 -11.6 L1.35 -10.6 Q1.25 -9.9 1.1 -9.3 L0.8 -8.6 0.5 -7.95 Q0.4 -7.7 0.4 -7.35 0.35 -7.15 0.35 -6.75 0.35 -6.15 0.4 -5.75 L0.4 -5.65 0.45 -5.6 Q0.5 -6.2 0.6 -6.8 L0.8 -7.8 0.8 -7.85 0.9 -8.25 0.9 -8.4 0.95 -8.4 Q1.05 -9.0 1.3 -9.2 L1.4 -9.25 1.5 -9.15 1.55 -9.05 Q1.3 -8.15 1.25 -7.75 1.1 -7.05 1.1 -6.5 L1.1 -5.85 Q1.15 -5.65 1.2 -5.35 1.25 -5.55 1.25 -5.65 L1.25 -5.95 1.7 -7.45 Q2.15 -9.0 2.15 -9.55 L2.15 -9.85 Q2.1 -10.0 2.0 -10.05 1.95 -10.05 1.9 -10.05 L1.85 -10.15 1.85 -10.2 Q1.95 -10.55 1.95 -10.65 1.95 -10.95 1.9 -11.3 1.8 -11.65 1.7 -11.7 L1.7 -11.65 1.65 -11.65 1.6 -11.6 Q1.6 -11.55 1.55 -11.55 L1.45 -11.55 Q1.4 -11.55 1.4 -11.6 M-8.3 -18.35 Q-9.1 -17.35 -9.1 -16.4 -9.1 -16.25 -9.05 -16.15 L-9.05 -16.1 -8.85 -15.7 -8.4 -15.65 -8.35 -15.65 Q-8.15 -15.5 -7.75 -14.8 -7.5 -14.45 -6.85 -14.25 -6.55 -14.35 -6.45 -14.5 L-6.4 -14.6 Q-6.8 -14.65 -6.9 -15.05 -6.95 -15.15 -6.95 -15.75 -6.95 -16.4 -6.9 -16.5 L-6.9 -16.55 -6.3 -17.55 -6.25 -17.6 -6.15 -17.6 -6.05 -17.65 Q-5.95 -17.65 -5.95 -17.55 L-5.9 -17.4 Q-5.9 -17.35 -6.05 -17.1 L-6.15 -16.8 -6.2 -16.35 Q-6.2 -15.9 -6.05 -15.45 -5.9 -14.9 -5.5 -14.95 L-5.45 -14.95 Q-4.7 -14.7 -4.05 -15.7 -3.85 -16.1 -3.65 -16.55 -3.5 -16.9 -3.5 -17.0 L-3.55 -17.95 Q-3.6 -18.75 -3.65 -18.9 -3.7 -19.1 -3.9 -19.4 L-4.2 -19.9 Q-4.45 -20.35 -5.05 -20.35 -5.55 -20.35 -6.0 -20.15 -7.45 -19.45 -8.3 -18.35 M-0.85 -17.05 L-0.95 -17.5 Q-0.95 -17.6 -1.05 -17.65 -1.1 -17.6 -1.4 -17.3 L-1.75 -16.95 -2.0 -16.45 Q-2.05 -16.4 -2.05 -16.15 L-2.05 -15.95 -1.8 -15.75 -1.5 -16.05 -1.2 -16.45 -1.15 -16.45 Q-1.0 -16.6 -0.95 -16.75 -0.9 -16.9 -0.8 -17.0 L-0.85 -17.05 M-2.4 -11.45 L-2.5 -11.2 -2.55 -11.1 -2.55 -10.5 Q-2.55 -10.45 -2.6 -10.4 L-2.65 -10.35 Q-2.7 -10.3 -2.75 -10.3 -2.8 -10.3 -2.85 -10.35 L-2.95 -10.5 -3.95 -10.45 Q-4.5 -10.6 -4.8 -11.25 -4.85 -11.3 -4.8 -11.5 L-4.85 -11.25 Q-4.9 -11.05 -4.9 -10.5 -4.9 -9.75 -4.8 -9.15 L-4.5 -7.7 -4.3 -7.0 -4.1 -6.25 Q-4.0 -5.9 -3.6 -5.6 L-3.5 -5.5 -3.5 -5.65 -3.4 -5.7 -3.15 -5.7 Q-3.0 -5.75 -2.9 -5.9 L-2.85 -5.95 Q-2.7 -6.15 -2.05 -5.9 L-1.95 -5.8 -1.85 -5.75 -1.8 -5.7 -1.75 -5.6 Q-1.7 -5.8 -1.65 -6.15 -1.6 -6.9 -1.5 -7.1 -1.35 -7.65 -1.35 -8.8 L-1.35 -9.85 Q-1.35 -9.95 -1.45 -10.3 L-1.5 -10.5 -1.5 -10.55 -1.55 -10.6 -1.85 -10.55 Q-2.1 -10.5 -2.2 -11.05 L-2.3 -11.6 -2.4 -11.5 -2.4 -11.45 M-7.1 -10.85 Q-7.3 -11.25 -7.5 -11.4 -7.8 -11.65 -8.45 -11.85 -9.2 -11.8 -9.55 -11.6 -9.7 -11.5 -9.8 -11.3 L-9.85 -11.25 -10.3 -11.25 -10.3 -11.2 Q-10.3 -10.95 -9.95 -10.6 L-9.25 -9.8 -9.25 -9.75 Q-8.25 -8.7 -7.65 -7.1 -7.6 -6.85 -7.5 -6.35 L-7.35 -5.6 Q-7.25 -5.25 -6.7 -4.9 -6.2 -4.55 -6.0 -4.55 -5.9 -4.6 -5.85 -4.75 L-5.8 -5.05 Q-5.8 -5.3 -5.95 -5.95 L-6.15 -6.65 Q-6.15 -7.05 -5.9 -7.1 L-5.9 -7.3 Q-5.9 -7.75 -6.2 -8.7 L-6.55 -9.65 Q-6.7 -9.85 -6.8 -10.15 L-7.1 -10.85" fill="#31a800" fill-rule="evenodd" stroke="none"/>
      <path d="M15.55 -19.9 L15.75 -19.4 15.9 -18.9 Q16.05 -18.5 16.05 -18.4 16.05 -18.25 15.85 -18.15 L15.4 -17.9 Q14.95 -17.55 14.85 -17.4 L14.4 -16.85 Q14.1 -16.5 14.0 -16.35 13.75 -15.95 13.55 -15.35 13.3 -14.65 13.3 -14.25 13.3 -13.95 13.55 -13.7 L13.95 -13.3 Q14.75 -13.4 14.75 -12.25 14.75 -11.95 14.4 -11.2 14.0 -10.45 13.9 -10.45 13.75 -10.45 13.75 -10.55 L13.6 -10.55 Q12.85 -10.1 12.65 -9.45 12.55 -9.15 12.55 -8.4 L12.6 -8.35 Q12.75 -8.25 12.75 -8.2 12.75 -7.95 11.6 -6.65 L10.45 -5.45 9.15 -4.1 Q8.6 -3.55 7.95 -3.05 L8.1 -3.15 8.1 -3.1 Q7.85 -2.9 6.9 -2.4 5.9 -1.85 5.45 -1.55 5.7 -1.5 6.0 -1.65 L6.45 -1.8 Q6.45 -1.9 6.45 -1.75 6.45 -1.55 4.9 -0.9 3.25 -0.2 2.45 -0.2 L1.95 -0.2 1.95 -0.05 1.9 -0.05 Q1.75 -0.05 1.75 -0.15 L1.7 -0.25 Q1.3 -0.4 0.65 -0.5 L-0.35 -0.7 -1.55 -0.8 -2.25 -0.85 Q-3.7 -0.8 -4.3 -0.65 L-4.95 -0.3 -4.75 -0.1 -4.8 -0.05 Q-6.65 -0.4 -7.65 -1.05 -8.4 -1.5 -9.0 -2.4 -9.2 -2.65 -9.2 -3.05 L-9.25 -3.8 Q-9.3 -4.4 -9.5 -4.9 L-9.8 -5.45 Q-10.05 -5.95 -10.3 -6.25 L-11.05 -6.9 Q-11.7 -7.5 -11.7 -7.7 L-11.55 -8.05 Q-11.45 -8.45 -11.45 -8.55 -11.45 -9.05 -12.0 -9.65 -12.55 -10.25 -13.25 -10.55 L-13.5 -10.55 Q-14.4 -10.45 -15.45 -10.15 -15.65 -10.2 -15.8 -10.25 -15.9 -10.35 -16.05 -11.0 -16.25 -11.6 -16.25 -11.7 -16.25 -13.4 -14.55 -14.45 L-13.2 -15.2 Q-12.95 -15.35 -12.75 -15.5 -12.05 -16.3 -11.9 -16.7 -11.8 -16.95 -11.75 -17.45 L-11.85 -17.6 -12.0 -17.6 Q-12.2 -17.75 -12.25 -17.85 L-12.25 -18.05 Q-12.25 -18.5 -11.95 -18.95 -11.6 -19.8 -9.8 -21.15 -8.7 -21.95 -7.55 -22.4 -6.25 -22.9 -5.2 -23.05 -4.05 -23.25 -3.45 -23.05 -3.0 -23.1 -2.8 -23.2 L-2.5 -23.35 -2.35 -23.35 Q-2.3 -23.25 -2.15 -23.15 L-1.95 -23.05 Q-0.95 -23.05 -0.05 -23.4 0.75 -23.75 1.2 -24.25 L1.55 -24.4 1.95 -24.45 3.15 -24.8 Q4.15 -25.1 6.15 -25.3 7.35 -25.45 8.6 -24.95 10.0 -24.4 10.0 -23.65 10.05 -23.65 10.2 -23.55 10.3 -23.45 10.75 -23.4 L11.9 -22.2 Q12.5 -21.5 13.15 -21.1 L13.55 -21.15 Q13.7 -20.8 13.85 -20.7 14.15 -20.5 15.1 -20.4 15.4 -20.2 15.55 -19.9 M8.0 -22.1 Q7.05 -22.7 6.15 -22.3 6.0 -22.25 5.7 -22.05 L5.35 -21.85 Q4.5 -21.4 4.5 -20.95 L4.5 -20.9 Q4.45 -20.8 4.45 -20.75 4.5 -20.45 4.25 -19.9 4.15 -19.6 3.65 -18.9 3.25 -18.3 3.25 -18.2 3.25 -18.15 3.65 -17.6 4.1 -16.95 4.4 -16.8 5.25 -17.1 5.95 -17.6 6.35 -17.9 7.05 -18.55 7.3 -18.75 8.25 -19.3 9.05 -19.85 9.05 -20.25 9.05 -20.3 8.8 -20.65 8.55 -20.95 8.55 -21.15 8.5 -21.4 8.4 -21.65 8.25 -21.95 8.0 -22.1 M3.15 -20.4 L2.85 -20.4 Q2.5 -20.3 2.2 -20.05 L1.9 -19.75 1.65 -19.45 1.65 -19.35 1.8 -19.35 Q2.0 -19.2 2.1 -18.95 2.25 -18.7 2.25 -18.5 L2.35 -18.45 Q2.5 -18.45 2.7 -18.7 2.85 -18.9 2.85 -19.05 L3.0 -19.4 3.15 -19.7 Q3.25 -20.0 3.5 -20.4 L3.95 -21.05 Q3.9 -21.05 3.55 -20.8 3.15 -20.55 3.15 -20.4 M0.15 -16.45 L0.3 -16.5 Q0.4 -16.55 0.55 -16.45 0.8 -16.35 1.1 -16.35 L1.35 -16.35 Q1.5 -16.65 1.5 -16.75 1.5 -17.1 1.1 -17.4 0.6 -17.75 -0.3 -17.8 L-0.3 -17.4 Q-0.35 -17.3 -0.55 -17.15 L-0.75 -17.15 -0.8 -17.55 Q-0.85 -17.75 -1.05 -17.75 -1.15 -17.75 -1.5 -17.4 L-1.9 -17.0 -2.15 -16.55 -2.15 -16.15 -2.2 -15.95 -2.15 -15.85 -1.85 -15.65 -1.8 -15.65 Q-1.7 -15.65 -1.4 -15.95 L-1.1 -16.35 Q-0.85 -16.55 -0.8 -16.7 -0.75 -16.85 -0.65 -16.95 L-0.3 -16.65 Q-0.05 -16.4 0.0 -16.4 0.1 -16.4 0.15 -16.45 M8.5 -14.6 L8.5 -14.1 Q8.5 -13.5 8.05 -12.6 L8.0 -12.7 Q7.5 -12.0 7.1 -10.55 6.75 -9.25 6.75 -8.55 L6.75 -8.05 Q6.75 -7.75 6.85 -7.65 L7.05 -7.6 Q7.45 -6.95 7.45 -6.5 7.45 -6.4 7.35 -6.3 L7.3 -6.15 7.3 -6.1 Q8.3 -6.25 9.35 -7.75 10.35 -9.15 10.35 -9.95 L10.05 -10.25 Q9.8 -10.5 9.8 -10.65 9.8 -10.85 9.9 -11.1 10.0 -11.35 10.1 -11.55 L10.5 -11.9 Q10.85 -12.2 10.9 -12.35 11.0 -12.6 11.1 -13.1 11.25 -13.7 11.25 -14.0 L11.25 -14.95 Q11.25 -15.15 11.1 -15.45 11.0 -15.75 11.0 -15.85 11.0 -16.05 11.15 -16.15 L11.15 -16.2 11.1 -16.2 11.1 -16.15 10.95 -16.15 Q10.3 -16.15 9.45 -15.8 L8.7 -15.4 Q8.5 -15.3 8.35 -15.1 8.5 -14.8 8.5 -14.6 M6.1 -8.5 Q6.1 -9.15 5.85 -9.35 5.6 -9.55 5.6 -9.8 L5.65 -10.25 5.75 -10.65 Q5.75 -10.85 5.5 -11.35 5.3 -11.9 5.05 -11.85 L5.0 -12.0 4.95 -12.0 4.8 -11.4 4.55 -10.55 Q4.45 -10.55 4.45 -10.6 4.2 -10.3 4.0 -9.9 L3.9 -9.3 3.8 -8.95 3.7 -8.3 3.65 -7.95 3.55 -7.2 Q3.55 -7.0 3.65 -6.6 L3.7 -6.2 3.75 -6.2 3.7 -6.1 3.75 -6.05 Q3.75 -5.95 3.8 -5.85 L4.1 -5.9 4.1 -5.85 4.15 -5.85 4.15 -5.9 4.25 -6.0 4.3 -5.8 Q4.3 -5.7 4.45 -5.7 4.85 -5.7 5.15 -6.3 L5.45 -7.15 Q5.5 -7.25 5.7 -7.45 5.9 -7.6 5.95 -7.8 6.1 -8.25 6.1 -8.5 M1.3 -11.75 L1.25 -11.75 1.2 -10.6 Q1.15 -9.95 0.95 -9.35 0.9 -9.1 0.7 -8.65 L0.4 -8.05 Q0.25 -7.75 0.25 -7.4 0.2 -7.15 0.2 -6.75 0.2 -6.15 0.25 -5.7 L0.25 -5.6 Q0.4 -5.45 0.45 -5.15 L0.5 -5.0 0.55 -4.9 Q0.55 -5.9 0.75 -6.75 L0.95 -7.8 1.05 -8.2 1.05 -8.35 Q1.15 -8.9 1.4 -9.1 L1.1 -7.75 Q0.95 -7.05 0.95 -6.5 L1.0 -5.85 Q1.0 -5.6 1.1 -5.1 1.3 -5.2 1.35 -5.3 1.4 -5.55 1.4 -5.65 L1.35 -5.95 1.85 -7.4 Q2.3 -9.0 2.3 -9.55 L2.25 -9.9 Q2.2 -10.15 2.0 -10.15 2.1 -10.5 2.1 -10.65 2.1 -10.95 2.0 -11.35 1.9 -11.85 1.7 -11.85 L1.6 -11.8 1.5 -11.7 1.45 -11.75 1.3 -11.75 M-8.45 -18.4 Q-9.25 -17.35 -9.25 -16.4 -9.25 -16.2 -9.2 -16.05 L-8.95 -15.55 -8.45 -15.55 Q-8.25 -15.4 -7.85 -14.75 -7.6 -14.3 -6.85 -14.1 -6.5 -14.2 -6.35 -14.4 L-6.2 -14.75 Q-6.65 -14.7 -6.75 -15.1 L-6.8 -15.75 -6.75 -16.5 -6.15 -17.5 -6.1 -17.45 Q-6.05 -17.55 -6.05 -17.4 -6.05 -17.35 -6.15 -17.15 -6.3 -16.95 -6.3 -16.85 L-6.35 -16.35 Q-6.35 -15.9 -6.2 -15.4 -5.95 -14.7 -5.5 -14.8 -4.65 -14.5 -3.95 -15.65 -3.7 -16.0 -3.5 -16.5 -3.35 -16.9 -3.35 -17.0 L-3.4 -17.95 Q-3.45 -18.8 -3.5 -18.95 -3.6 -19.2 -3.8 -19.45 L-4.05 -19.95 Q-4.35 -20.5 -5.05 -20.5 -5.6 -20.5 -6.05 -20.25 -7.55 -19.55 -8.45 -18.4 M-2.5 -11.55 Q-2.65 -11.3 -2.65 -11.2 L-2.7 -11.2 -2.75 -11.15 -2.7 -10.9 -2.7 -10.5 -2.75 -10.45 -2.85 -10.6 -2.85 -10.65 -3.95 -10.6 Q-4.4 -10.7 -4.65 -11.3 -4.7 -11.35 -4.65 -11.5 L-4.65 -11.7 Q-4.65 -11.8 -4.75 -12.0 -4.95 -11.65 -5.0 -11.25 L-5.05 -10.5 Q-5.05 -9.75 -4.9 -9.15 L-4.65 -7.65 -4.25 -6.25 Q-4.15 -5.8 -3.7 -5.45 -3.45 -5.3 -3.35 -5.1 L-3.35 -5.55 -3.1 -5.55 Q-2.9 -5.65 -2.75 -5.85 -2.65 -5.95 -2.1 -5.75 L-1.95 -5.5 -1.95 -5.65 -1.85 -5.45 -1.75 -5.35 Q-1.55 -5.6 -1.5 -6.15 -1.45 -6.85 -1.35 -7.05 -1.2 -7.65 -1.2 -8.8 L-1.2 -9.85 Q-1.2 -9.95 -1.3 -10.35 L-1.35 -10.55 -1.4 -10.6 -1.5 -10.75 Q-1.55 -10.7 -1.85 -10.7 -1.95 -10.7 -2.05 -11.1 -2.15 -11.7 -2.25 -11.9 L-2.5 -11.55 M-8.45 -12.0 Q-9.25 -11.95 -9.65 -11.7 -9.85 -11.6 -9.95 -11.4 L-10.45 -11.45 -10.45 -11.2 Q-10.45 -10.9 -10.1 -10.5 L-9.35 -9.7 -9.4 -9.7 Q-8.35 -8.65 -7.8 -7.05 -7.7 -6.8 -7.65 -6.3 L-7.5 -5.6 Q-7.4 -5.15 -6.75 -4.75 -6.2 -4.4 -6.0 -4.4 -5.8 -4.4 -5.7 -4.7 -5.65 -4.85 -5.65 -5.05 -5.65 -5.3 -5.8 -5.95 L-6.0 -6.65 Q-6.0 -6.95 -5.8 -7.0 -5.75 -7.05 -5.75 -7.3 -5.75 -7.8 -6.05 -8.75 L-6.4 -9.7 Q-6.6 -9.9 -6.7 -10.2 L-7.0 -10.95 Q-7.2 -11.35 -7.4 -11.5 -7.7 -11.75 -8.45 -12.0" fill="#262626" fill-rule="evenodd" stroke="none"/>
      <path d="M-8.45 -12.0 Q-7.7 -11.75 -7.4 -11.5 -7.2 -11.35 -7.0 -10.95 L-6.7 -10.2 Q-6.6 -9.9 -6.4 -9.7 L-6.05 -8.75 Q-5.75 -7.8 -5.75 -7.3 -5.75 -7.05 -5.8 -7.0 -6.0 -6.95 -6.0 -6.65 L-5.8 -5.95 Q-5.65 -5.3 -5.65 -5.05 -5.65 -4.85 -5.7 -4.7 -5.8 -4.4 -6.0 -4.4 -6.2 -4.4 -6.75 -4.75 -7.4 -5.15 -7.5 -5.6 L-7.65 -6.3 Q-7.7 -6.8 -7.8 -7.05 -8.35 -8.65 -9.4 -9.7 L-9.35 -9.7 -10.1 -10.5 Q-10.45 -10.9 -10.45 -11.2 L-10.45 -11.45 -9.95 -11.4 Q-9.85 -11.6 -9.65 -11.7 -9.25 -11.95 -8.45 -12.0 M-2.5 -11.55 L-2.25 -11.9 Q-2.15 -11.7 -2.05 -11.1 -1.95 -10.7 -1.85 -10.7 -1.55 -10.7 -1.5 -10.75 L-1.4 -10.6 -1.35 -10.55 -1.3 -10.35 Q-1.2 -9.95 -1.2 -9.85 L-1.2 -8.8 Q-1.2 -7.65 -1.35 -7.05 -1.45 -6.85 -1.5 -6.15 -1.55 -5.6 -1.75 -5.35 L-1.85 -5.45 -1.95 -5.65 -1.95 -5.5 -2.1 -5.75 Q-2.65 -5.95 -2.75 -5.85 -2.9 -5.65 -3.1 -5.55 L-3.35 -5.55 -3.35 -5.1 Q-3.45 -5.3 -3.7 -5.45 -4.15 -5.8 -4.25 -6.25 L-4.65 -7.65 -4.9 -9.15 Q-5.05 -9.75 -5.05 -10.5 L-5.0 -11.25 Q-4.95 -11.65 -4.75 -12.0 -4.65 -11.8 -4.65 -11.7 L-4.65 -11.5 Q-4.7 -11.35 -4.65 -11.3 -4.4 -10.7 -3.95 -10.6 L-2.85 -10.65 -2.85 -10.6 -2.75 -10.45 -2.7 -10.5 -2.7 -10.9 -2.75 -11.15 -2.7 -11.2 -2.65 -11.2 Q-2.65 -11.3 -2.5 -11.55 M-8.45 -18.4 Q-7.55 -19.55 -6.05 -20.25 -5.6 -20.5 -5.05 -20.5 -4.35 -20.5 -4.05 -19.95 L-3.8 -19.45 Q-3.6 -19.2 -3.5 -18.95 -3.45 -18.8 -3.4 -17.95 L-3.35 -17.0 Q-3.35 -16.9 -3.5 -16.5 -3.7 -16.0 -3.95 -15.65 -4.65 -14.5 -5.5 -14.8 -5.95 -14.7 -6.2 -15.4 -6.35 -15.9 -6.35 -16.35 L-6.3 -16.85 Q-6.3 -16.95 -6.15 -17.15 -6.05 -17.35 -6.05 -17.4 -6.05 -17.55 -6.1 -17.45 L-6.15 -17.5 -6.75 -16.5 -6.8 -15.75 -6.75 -15.1 Q-6.65 -14.7 -6.2 -14.75 L-6.35 -14.4 Q-6.5 -14.2 -6.85 -14.1 -7.6 -14.3 -7.85 -14.75 -8.25 -15.4 -8.45 -15.55 L-8.95 -15.55 -9.2 -16.05 Q-9.25 -16.2 -9.25 -16.4 -9.25 -17.35 -8.45 -18.4 M1.3 -11.75 L1.45 -11.75 1.5 -11.7 1.6 -11.8 1.7 -11.85 Q1.9 -11.85 2.0 -11.35 2.1 -10.95 2.1 -10.65 2.1 -10.5 2.0 -10.15 2.2 -10.15 2.25 -9.9 L2.3 -9.55 Q2.3 -9.0 1.85 -7.4 L1.35 -5.95 1.4 -5.65 Q1.4 -5.55 1.35 -5.3 1.3 -5.2 1.1 -5.1 1.0 -5.6 1.0 -5.85 L0.95 -6.5 Q0.95 -7.05 1.1 -7.75 L1.4 -9.1 Q1.15 -8.9 1.05 -8.35 L1.05 -8.2 0.95 -7.8 0.75 -6.75 Q0.55 -5.9 0.55 -4.9 L0.5 -5.0 0.45 -5.15 Q0.4 -5.45 0.25 -5.6 L0.25 -5.7 Q0.2 -6.15 0.2 -6.75 0.2 -7.15 0.25 -7.4 0.25 -7.75 0.4 -8.05 L0.7 -8.65 Q0.9 -9.1 0.95 -9.35 1.15 -9.95 1.2 -10.6 L1.25 -11.75 1.3 -11.75 M6.1 -8.5 Q6.1 -8.25 5.95 -7.8 5.9 -7.6 5.7 -7.45 5.5 -7.25 5.45 -7.15 L5.15 -6.3 Q4.85 -5.7 4.45 -5.7 4.3 -5.7 4.3 -5.8 L4.25 -6.0 4.15 -5.9 4.15 -5.85 4.1 -5.85 4.1 -5.9 3.8 -5.85 Q3.75 -5.95 3.75 -6.05 L3.7 -6.1 3.75 -6.2 3.7 -6.2 3.65 -6.6 Q3.55 -7.0 3.55 -7.2 L3.65 -7.95 3.7 -8.3 3.8 -8.95 3.9 -9.3 4.0 -9.9 Q4.2 -10.3 4.45 -10.6 4.45 -10.55 4.55 -10.55 L4.8 -11.4 4.95 -12.0 5.0 -12.0 5.05 -11.85 Q5.3 -11.9 5.5 -11.35 5.75 -10.85 5.75 -10.65 L5.65 -10.25 5.6 -9.8 Q5.6 -9.55 5.85 -9.35 6.1 -9.15 6.1 -8.5 M8.5 -14.6 Q8.5 -14.8 8.35 -15.1 8.5 -15.3 8.7 -15.4 L9.45 -15.8 Q10.3 -16.15 10.95 -16.15 L11.1 -16.15 11.1 -16.2 11.15 -16.2 11.15 -16.15 Q11.0 -16.05 11.0 -15.85 11.0 -15.75 11.1 -15.45 11.25 -15.15 11.25 -14.95 L11.25 -14.0 Q11.25 -13.7 11.1 -13.1 11.0 -12.6 10.9 -12.35 10.85 -12.2 10.5 -11.9 L10.1 -11.55 Q10.0 -11.35 9.9 -11.1 9.8 -10.85 9.8 -10.65 9.8 -10.5 10.05 -10.25 L10.35 -9.95 Q10.35 -9.15 9.35 -7.75 8.3 -6.25 7.3 -6.1 L7.3 -6.15 7.35 -6.3 Q7.45 -6.4 7.45 -6.5 7.45 -6.95 7.05 -7.6 L6.85 -7.65 Q6.75 -7.75 6.75 -8.05 L6.75 -8.55 Q6.75 -9.25 7.1 -10.55 7.5 -12.0 8.0 -12.7 L8.05 -12.6 Q8.5 -13.5 8.5 -14.1 L8.5 -14.6 M0.15 -16.45 Q0.1 -16.4 0.0 -16.4 -0.05 -16.4 -0.3 -16.65 L-0.65 -16.95 Q-0.75 -16.85 -0.8 -16.7 -0.85 -16.55 -1.1 -16.35 L-1.4 -15.95 Q-1.7 -15.65 -1.8 -15.65 L-1.85 -15.65 -2.15 -15.85 -2.2 -15.95 -2.15 -16.15 -2.15 -16.55 -1.9 -17.0 -1.5 -17.4 Q-1.15 -17.75 -1.05 -17.75 -0.85 -17.75 -0.8 -17.55 L-0.75 -17.15 -0.55 -17.15 Q-0.35 -17.3 -0.3 -17.4 L-0.3 -17.8 Q0.6 -17.75 1.1 -17.4 1.5 -17.1 1.5 -16.75 1.5 -16.65 1.35 -16.35 L1.1 -16.35 Q0.8 -16.35 0.55 -16.45 0.4 -16.55 0.3 -16.5 L0.15 -16.45 M3.15 -20.4 Q3.15 -20.55 3.55 -20.8 3.9 -21.05 3.95 -21.05 L3.5 -20.4 Q3.25 -20.0 3.15 -19.7 L3.0 -19.4 2.85 -19.05 Q2.85 -18.9 2.7 -18.7 2.5 -18.45 2.35 -18.45 L2.25 -18.5 Q2.25 -18.7 2.1 -18.95 2.0 -19.2 1.8 -19.35 L1.65 -19.35 1.65 -19.45 1.9 -19.75 2.2 -20.05 Q2.5 -20.3 2.85 -20.4 L3.15 -20.4 M8.0 -22.1 Q8.25 -21.95 8.4 -21.65 8.5 -21.4 8.55 -21.15 8.55 -20.95 8.8 -20.65 9.05 -20.3 9.05 -20.25 9.05 -19.85 8.25 -19.3 7.3 -18.75 7.05 -18.55 6.35 -17.9 5.95 -17.6 5.25 -17.1 4.4 -16.8 4.1 -16.95 3.65 -17.6 3.25 -18.15 3.25 -18.2 3.25 -18.3 3.65 -18.9 4.15 -19.6 4.25 -19.9 4.5 -20.45 4.45 -20.75 4.45 -20.8 4.5 -20.9 L4.5 -20.95 Q4.5 -21.4 5.35 -21.85 L5.7 -22.05 Q6.0 -22.25 6.15 -22.3 7.05 -22.7 8.0 -22.1" fill="#c1ff3f" fill-rule="evenodd" stroke="none"/>
      <path d="M4.65 -5.8 L5.55 -5.8 5.5 -5.85 Q8.7 -5.85 11.5 -4.7 11.9 -4.55 12.25 -4.25 L12.85 -3.75 12.8 -3.6 12.55 -3.6 9.8 -2.9 8.9 -2.7 8.8 -2.65 8.65 -2.6 Q8.35 -2.5 7.9 -2.35 7.05 -2.1 6.3 -2.1 4.0 -2.1 2.7 -2.55 2.15 -2.7 1.25 -3.1 L0.2 -3.55 0.05 -3.6 -0.75 -4.0 -0.7 -4.05 0.25 -3.8 -0.4 -4.05 -1.5 -4.45 -2.2 -4.45 -4.15 -4.15 -5.95 -3.8 -7.25 -3.35 Q-8.35 -3.0 -8.55 -3.0 L-8.6 -3.0 -9.95 -2.9 Q-10.45 -2.9 -10.85 -3.05 L-10.85 -3.1 -11.0 -3.2 Q-10.7 -3.85 -9.55 -4.65 -8.65 -5.2 -8.15 -5.55 L-8.15 -5.6 -8.3 -5.65 -7.7 -6.05 Q-7.1 -6.35 -6.3 -6.65 L-4.7 -6.95 -3.45 -7.05 -3.45 -7.1 -2.45 -7.05 -2.85 -7.0 Q-3.75 -7.0 -4.85 -6.55 -6.05 -6.1 -6.05 -5.7 -6.05 -5.55 -6.0 -5.5 -5.95 -5.5 -5.85 -5.45 L-5.2 -5.45 Q-3.65 -5.65 -1.85 -5.95 L1.75 -6.55 2.85 -6.6 2.85 -6.55 Q2.85 -6.3 3.5 -5.75 4.15 -5.15 4.5 -5.15 L4.6 -5.15 5.2 -4.9 5.6 -4.75 Q6.25 -4.5 6.3 -4.5 6.9 -4.3 7.7 -4.25 7.0 -4.8 6.75 -4.95 6.0 -5.35 4.3 -5.75 L4.4 -5.75 4.4 -5.8 4.65 -5.8 M7.45 -3.95 L7.55 -3.9 7.55 -3.95 7.45 -3.95 M-10.8 -3.25 L-10.8 -3.25" fill="#262626" fill-opacity="0.8" fill-rule="evenodd" stroke="none"/>
    </g>
  </defs>
</svg>
