<?xml version="1.0" encoding="UTF-8" standalone="no"?>
<svg xmlns:ffdec="https://www.free-decompiler.com/flash" xmlns:xlink="http://www.w3.org/1999/xlink" ffdec:objectType="frame" height="39.55px" width="31.15px" xmlns="http://www.w3.org/2000/svg">
  <g transform="matrix(1.0, 0.0, 0.0, 1.0, 8.05, 15.4)">
    <use ffdec:characterId="472" height="5.65" transform="matrix(7.0, 0.0, 0.0, 7.0, -8.05, -15.4)" width="4.45" xlink:href="#shape0"/>
  </g>
  <defs>
    <g id="shape0" transform="matrix(1.0, 0.0, 0.0, 1.0, 1.15, 2.2)">
      <path d="M1.1 2.55 Q1.0 2.5 0.95 2.5 L0.8 2.45 0.5 2.2 0.35 2.1 0.3 2.0 0.1 1.8 Q0.05 1.7 -0.25 1.2 L-0.55 1.25 Q-0.9 1.35 -1.1 -0.75 -1.45 -2.05 -0.3 -2.1 L0.35 -2.2 Q1.05 -2.15 1.45 -2.05 1.85 -1.9 2.15 -1.7 L2.55 -1.4 2.75 -1.15 Q2.9 -1.0 2.95 -0.7 L2.95 -0.55 2.9 -0.55 2.85 -0.5 2.85 -0.05 2.9 0.55 3.05 1.0 3.05 1.15 2.9 1.1 2.8 1.1 Q2.5 1.0 2.45 1.15 2.35 1.2 2.25 1.35 L2.15 1.9 1.7 2.8 Q1.65 2.75 1.4 2.55 L1.05 2.3 1.05 2.35 1.0 2.35 1.05 2.4 1.0 2.4 1.2 2.6 1.2 2.65 1.3 2.7 1.35 2.75 1.3 2.75 1.15 2.65 1.1 2.55 M2.1 2.95 L1.85 2.95 Q2.0 2.8 2.2 2.25 L2.2 2.2 2.55 2.2 2.5 2.3 2.4 2.45 2.25 2.75 2.1 2.95 M2.1 1.1 Q2.15 1.05 2.15 1.0 L2.1 0.85 Q2.05 0.75 1.9 0.75 L1.5 0.65 1.4 0.65 1.3 0.6 0.0 0.1 Q-0.15 0.1 -0.2 0.2 L-0.2 0.3 0.1 0.45 0.1 0.5 0.6 0.8 0.65 0.85 0.2 0.75 0.0 0.7 0.2 0.8 0.2 0.85 0.25 0.9 0.25 1.1 0.3 1.2 Q0.45 1.6 0.8 1.6 L0.8 1.65 0.75 1.75 0.75 1.8 0.35 1.8 0.35 1.85 Q0.45 1.95 0.7 1.95 L0.8 1.95 0.85 1.95 1.05 1.85 1.1 2.15 Q1.2 2.35 1.3 2.35 1.45 2.35 1.8 1.8 2.1 1.25 2.1 1.15 L2.1 1.1 M1.55 1.05 L1.55 1.05" fill="#c7a36d" fill-rule="evenodd" stroke="none"/>
      <path d="M1.35 2.75 L1.3 2.7 1.2 2.65 1.2 2.6 1.0 2.4 1.05 2.4 1.0 2.35 1.05 2.35 1.05 2.3 1.4 2.55 Q1.65 2.75 1.7 2.8 L2.15 1.9 2.25 1.35 Q2.35 1.2 2.45 1.15 2.5 1.0 2.8 1.1 L2.9 1.1 3.05 1.15 3.05 1.0 2.9 0.55 2.85 -0.05 2.85 -0.5 2.9 -0.55 2.95 -0.55 2.95 -0.6 3.0 -0.55 3.05 -0.4 3.05 -0.25 Q3.05 0.15 3.25 0.9 3.3 1.05 3.3 1.1 L3.3 1.4 3.25 1.5 3.2 1.55 3.05 1.65 Q2.95 1.8 2.8 2.2 2.75 2.45 2.65 2.65 L2.55 2.75 2.45 2.9 2.4 2.9 2.4 2.95 2.15 3.2 2.1 3.3 2.0 3.45 1.95 3.45 1.95 3.4 Q1.95 3.2 2.1 2.95 L2.25 2.75 2.4 2.45 2.5 2.3 2.55 2.2 2.55 2.15 2.7 1.9 2.55 2.0 2.5 2.0 2.35 1.95 2.3 1.95 2.2 2.2 2.2 2.25 Q2.0 2.8 1.85 2.95 L1.75 3.0 1.65 3.0 1.35 2.75 M0.1 0.5 L0.1 0.45 -0.2 0.3 -0.2 0.2 Q-0.15 0.1 0.0 0.1 L1.3 0.6 1.4 0.65 1.5 0.65 1.9 0.75 Q2.05 0.75 2.1 0.85 L2.15 1.0 Q2.15 1.05 2.1 1.1 L2.05 1.1 1.95 1.15 1.9 1.15 1.65 1.05 1.6 1.15 1.6 1.2 1.65 1.25 Q1.65 1.4 1.5 1.4 L1.25 1.35 1.2 1.4 1.1 1.45 1.1 1.55 Q1.05 1.6 0.95 1.6 L0.8 1.6 Q0.45 1.6 0.3 1.2 L0.25 1.1 0.25 0.9 0.2 0.85 0.2 0.8 0.0 0.7 0.2 0.75 0.65 0.85 0.7 0.85 Q1.15 0.95 1.45 1.15 L1.5 1.1 1.35 0.95 0.8 0.75 0.15 0.5 0.1 0.5 M0.8 1.95 L0.7 1.95 Q0.45 1.95 0.35 1.85 L0.35 1.8 0.75 1.8 1.1 1.75 1.1 1.8 0.8 1.95 M1.55 1.05 L1.55 1.05 M2.45 1.7 L2.35 1.9 2.55 1.9 Q2.45 1.85 2.45 1.7 M2.55 1.4 L2.55 1.45 2.5 1.5 2.55 1.5 2.8 1.55 2.85 1.55 2.95 1.5 2.6 1.4 2.55 1.4 M0.45 1.2 Q0.6 1.4 0.85 1.45 L0.9 1.4 0.8 1.3 Q0.75 1.25 0.75 1.15 L0.75 1.1 0.35 0.9 0.35 1.0 0.45 1.2" fill="#111111" fill-rule="evenodd" stroke="none"/>
      <path d="M2.1 1.1 L2.1 1.15 Q2.1 1.25 1.8 1.8 1.45 2.35 1.3 2.35 1.2 2.35 1.1 2.15 L1.05 1.85 0.85 1.95 0.8 1.95 1.1 1.8 1.1 1.75 0.75 1.8 0.75 1.75 0.8 1.65 0.8 1.6 0.95 1.6 Q1.05 1.6 1.1 1.55 L1.1 1.45 1.2 1.4 1.25 1.35 1.5 1.4 Q1.65 1.4 1.65 1.25 L1.6 1.2 1.6 1.15 1.65 1.05 1.9 1.15 1.95 1.15 2.05 1.1 2.1 1.1 M0.65 0.85 L0.6 0.8 0.1 0.5 0.15 0.5 0.8 0.75 1.35 0.95 1.5 1.1 1.45 1.15 Q1.15 0.95 0.7 0.85 L0.65 0.85 M2.55 1.4 L2.6 1.4 2.95 1.5 2.85 1.55 2.8 1.55 2.55 1.5 2.5 1.5 2.55 1.45 2.55 1.4 M2.2 2.2 L2.3 1.95 2.35 1.95 2.5 2.0 2.55 2.0 2.7 1.9 2.55 2.15 2.55 2.2 2.2 2.2" fill="#a9854f" fill-rule="evenodd" stroke="none"/>
      <path d="M2.45 1.7 Q2.45 1.85 2.55 1.9 L2.35 1.9 2.45 1.7 M0.45 1.2 L0.35 1.0 0.35 0.9 0.75 1.1 0.75 1.15 Q0.75 1.25 0.8 1.3 L0.9 1.4 0.85 1.45 Q0.6 1.4 0.45 1.2" fill="#ffffff" fill-rule="evenodd" stroke="none"/>
    </g>
  </defs>
</svg>
