<?xml version="1.0" encoding="UTF-8" standalone="no"?>
<svg xmlns:ffdec="https://www.free-decompiler.com/flash" xmlns:xlink="http://www.w3.org/1999/xlink" ffdec:objectType="frame" height="259.65px" width="261.85px" xmlns="http://www.w3.org/2000/svg">
  <g transform="matrix(1.0, 0.0, 0.0, 1.0, 57.85, 55.4)">
    <use ffdec:characterId="2576" height="159.25" transform="matrix(0.8099, 0.6826, -0.6826, 0.8099, 62.3294, -47.4877)" width="159.15" xlink:href="#sprite0"/>
  </g>
  <defs>
    <g id="sprite0" transform="matrix(1.0, 0.0, 0.0, 1.0, 7.4, 8.75)">
      <use ffdec:characterId="2575" height="159.25" transform="matrix(1.0, 0.0, 0.0, 1.0, -7.4, -8.75)" width="159.15" xlink:href="#shape0"/>
    </g>
    <g id="shape0" transform="matrix(1.0, 0.0, 0.0, 1.0, 7.4, 8.75)">
      <path d="M71.55 -8.75 Q98.85 -6.95 108.3 -3.35 111.85 -2.05 115.1 0.35 L121.4 4.9 131.9 13.4 Q139.45 19.45 140.65 23.1 143.6 31.7 148.4 42.4 151.75 50.95 151.75 59.65 L151.45 68.85 151.05 83.15 Q151.0 88.65 149.1 94.9 147.15 101.15 143.85 106.6 139.75 113.4 135.85 118.15 130.6 124.65 123.8 130.05 122.35 131.2 118.15 135.6 114.95 139.0 110.65 141.65 108.15 143.15 102.2 144.65 L92.6 146.55 82.95 148.55 Q72.45 150.5 64.0 150.5 51.95 150.5 41.7 146.5 37.55 144.9 32.35 141.65 29.55 139.9 26.55 136.45 22.85 132.3 20.8 130.6 15.1 126.0 10.9 120.05 7.95 115.95 3.9 108.15 L-1.95 97.05 Q-5.1 90.5 -5.6 85.75 L-6.8 74.45 Q-7.4 68.05 -7.4 63.5 -7.4 54.15 5.4 26.4 7.35 22.3 13.65 17.5 L27.1 7.85 Q34.9 1.95 39.9 -0.8 50.7 -6.8 62.3 -8.55 L71.55 -8.75 M127.8 42.55 L122.4 32.6 Q118.7 26.7 114.35 23.2 L107.75 17.9 Q104.0 15.15 100.15 13.55 90.3 9.5 71.55 10.0 L57.2 10.0 Q43.05 10.8 33.1 19.05 26.25 24.7 21.55 33.8 18.3 40.2 13.0 48.65 9.35 55.4 9.35 62.3 9.35 63.45 9.7 65.8 9.0 69.2 10.4 73.15 L10.35 74.0 Q10.35 76.7 11.05 80.6 11.75 84.45 11.75 86.3 11.75 90.4 15.9 100.85 L21.05 114.0 Q22.3 118.75 39.4 126.7 56.4 134.6 65.2 134.6 L80.85 133.6 Q83.4 133.05 85.9 131.95 L88.5 131.3 92.1 129.7 Q93.1 129.25 97.35 128.95 101.7 128.7 103.65 127.75 108.75 125.4 111.85 120.1 115.75 113.4 116.8 112.45 127.05 103.25 131.1 96.25 135.1 89.4 135.1 81.2 132.1 51.0 127.8 42.55 M117.4 12.95 Q118.25 14.25 122.5 16.25 119.25 14.15 117.1 12.45 L117.4 12.95 M57.3 145.95 L53.0 145.45 53.15 145.6 57.3 145.95" fill="#ffd689" fill-opacity="0.08235294" fill-rule="evenodd" stroke="none"/>
      <path d="M127.8 42.55 Q132.1 51.0 135.1 81.2 135.1 89.4 131.1 96.25 127.05 103.25 116.8 112.45 115.75 113.4 111.85 120.1 108.75 125.4 103.65 127.75 101.7 128.7 97.35 128.95 93.1 129.25 92.1 129.7 L88.5 131.3 85.9 131.95 Q83.4 133.05 80.85 133.6 L65.2 134.6 Q56.4 134.6 39.4 126.7 22.3 118.75 21.05 114.0 L15.9 100.85 Q11.75 90.4 11.75 86.3 11.75 84.45 11.05 80.6 10.35 76.7 10.35 74.0 L10.4 73.15 Q9.0 69.2 9.7 65.8 9.35 63.45 9.35 62.3 9.35 55.4 13.0 48.65 18.3 40.2 21.55 33.8 26.25 24.7 33.1 19.05 43.05 10.8 57.2 10.0 L71.55 10.0 Q90.3 9.5 100.15 13.55 104.0 15.15 107.75 17.9 L114.35 23.2 Q118.7 26.7 122.4 32.6 L127.8 42.55 M107.1 64.3 Q105.55 55.7 104.25 52.85 101.75 47.3 95.65 42.25 88.1 36.0 78.8 34.4 L68.45 34.4 Q52.7 34.85 42.85 48.2 39.05 53.3 36.9 59.35 35.05 64.65 35.05 68.65 35.05 81.9 43.95 93.6 54.55 107.55 71.55 107.55 92.1 107.55 102.1 92.25 105.5 87.1 107.25 80.8 108.45 76.4 108.45 73.7 108.45 71.85 107.1 64.3" fill="#ffd689" fill-opacity="0.19215687" fill-rule="evenodd" stroke="none"/>
      <path d="M84.85 72.8 Q84.85 61.95 73.95 59.85 L71.05 60.2 Q63.6 61.8 60.7 65.85 58.75 68.6 58.75 73.15 58.75 77.0 60.35 79.6 63.5 84.7 72.2 84.7 77.55 84.7 80.9 81.5 L81.35 80.7 Q84.85 74.55 84.85 72.8 M107.1 64.3 Q108.45 71.85 108.45 73.7 108.45 76.4 107.25 80.8 105.5 87.1 102.1 92.25 92.1 107.55 71.55 107.55 54.55 107.55 43.95 93.6 35.05 81.9 35.05 68.65 35.05 64.65 36.9 59.35 39.05 53.3 42.85 48.2 52.7 34.85 68.45 34.4 L78.8 34.4 Q88.1 36.0 95.65 42.25 101.75 47.3 104.25 52.85 105.55 55.7 107.1 64.3" fill="#ffd689" fill-opacity="0.38431373" fill-rule="evenodd" stroke="none"/>
      <path d="M84.85 72.8 Q84.85 74.55 81.35 80.7 L80.9 81.5 Q77.55 84.7 72.2 84.7 63.5 84.7 60.35 79.6 58.75 77.0 58.75 73.15 58.75 68.6 60.7 65.85 63.6 61.8 71.05 60.2 L73.95 59.85 Q84.85 61.95 84.85 72.8" fill="#fff8c6" fill-opacity="0.45490196" fill-rule="evenodd" stroke="none"/>
    </g>
  </defs>
</svg>
