<?xml version="1.0" encoding="UTF-8" standalone="no"?>
<svg xmlns:ffdec="https://www.free-decompiler.com/flash" xmlns:xlink="http://www.w3.org/1999/xlink" ffdec:objectType="frame" height="42.7px" width="42.35px" xmlns="http://www.w3.org/2000/svg">
  <g transform="matrix(1.0, 0.0, 0.0, 1.0, 24.15, 42.0)">
    <use ffdec:characterId="234" height="6.1" transform="matrix(7.0, 0.0, 0.0, 7.0, -24.15, -42.0)" width="6.05" xlink:href="#shape0"/>
  </g>
  <defs>
    <g id="shape0" transform="matrix(1.0, 0.0, 0.0, 1.0, 3.45, 6.0)">
      <path d="M-0.65 -0.75 Q-0.35 -0.6 0.0 -0.45 L0.95 -0.1 1.25 -0.05 Q1.7 -0.35 2.15 -0.7 2.35 -0.9 2.45 -1.15 L2.45 -1.2 2.4 -1.35 2.35 -1.55 2.15 -2.45 2.15 -2.55 Q1.95 -3.2 1.8 -3.55 1.55 -4.1 1.05 -4.6 L1.0 -4.6 Q0.8 -4.85 0.45 -5.1 L0.4 -5.1 0.35 -5.15 0.1 -5.35 -0.2 -5.45 -0.45 -5.5 -0.6 -5.6 -1.35 -5.85 -1.4 -5.85 -1.45 -5.9 -1.4 -5.9 -1.45 -5.95 -1.25 -5.95 -1.1 -5.95 -1.05 -5.95 -1.05 -6.0 -1.05 -5.95 -0.9 -5.95 -0.85 -5.9 Q0.25 -5.65 1.15 -4.85 2.1 -4.0 2.15 -3.25 L2.2 -3.15 Q2.2 -3.05 2.35 -2.35 L2.35 -2.25 2.55 -1.5 2.55 -1.6 2.6 -1.5 2.6 -1.2 2.55 -1.15 2.55 -1.1 Q2.45 -0.7 2.0 -0.35 L1.65 -0.05 1.65 0.0 1.55 0.0 1.45 0.05 1.4 0.05 1.25 0.1 1.2 0.1 0.7 0.0 Q0.3 -0.05 -0.3 -0.35 L-1.2 -0.85 Q-1.55 -1.05 -1.9 -1.4 -2.15 -1.75 -2.35 -2.05 -2.5 -2.4 -2.85 -3.3 -3.1 -3.95 -3.35 -4.4 -3.3 -4.35 -3.25 -4.35 -2.95 -4.05 -2.7 -3.5 L-2.2 -2.15 Q-1.8 -1.45 -1.05 -0.95 L-0.65 -0.75 M-1.25 -6.0 L-1.3 -6.0 -1.25 -6.0 M-3.4 -4.55 L-3.4 -4.5 -3.45 -4.55 -3.4 -4.55" fill="#000000" fill-rule="evenodd" stroke="none"/>
      <path d="M-1.1 -5.95 L-1.25 -5.95 -1.3 -6.0 -1.25 -6.0 -1.1 -6.0 -1.1 -5.95" fill="#e9d894" fill-rule="evenodd" stroke="none"/>
      <path d="M-1.05 -6.0 L-1.05 -5.95 -1.1 -5.95 -1.1 -6.0 -1.05 -6.0" fill="#d1b356" fill-rule="evenodd" stroke="none"/>
      <path d="M-0.65 -0.75 L-1.05 -0.95 Q-1.8 -1.45 -2.2 -2.15 L-2.7 -3.5 Q-2.95 -4.05 -3.25 -4.35 -3.3 -4.35 -3.35 -4.4 L-3.4 -4.5 -3.4 -4.55 -3.45 -4.65 Q-3.45 -5.15 -2.95 -5.55 -2.65 -5.75 -2.2 -5.9 L-2.2 -5.8 Q-1.85 -4.2 -1.25 -2.7 -0.95 -2.0 -0.65 -1.45 L-1.0 -1.9 Q-1.8 -3.0 -1.95 -3.75 L-2.05 -3.75 -2.05 -3.7 Q-2.05 -3.0 -1.25 -1.6 -0.95 -1.1 -0.65 -0.75" fill="#e1ca6c" fill-rule="evenodd" stroke="none"/>
      <path d="M-1.25 -5.95 L-1.45 -5.95 -1.4 -5.9 -1.45 -5.9 -1.4 -5.85 -1.35 -5.85 -0.6 -5.6 -0.45 -5.5 -0.2 -5.45 0.1 -5.35 0.35 -5.15 0.4 -5.1 0.45 -5.1 Q0.8 -4.85 1.0 -4.6 L1.05 -4.6 Q1.55 -4.1 1.8 -3.55 1.95 -3.2 2.15 -2.55 L2.15 -2.45 2.35 -1.55 2.4 -1.35 2.45 -1.2 2.45 -1.15 Q2.35 -0.9 2.15 -0.7 1.7 -0.35 1.25 -0.05 L0.95 -0.1 0.0 -0.45 Q-0.35 -0.6 -0.65 -0.75 -0.95 -1.1 -1.25 -1.6 -2.05 -3.0 -2.05 -3.7 L-2.05 -3.75 -1.95 -3.75 Q-1.8 -3.0 -1.0 -1.9 L-0.65 -1.45 Q-0.95 -2.0 -1.25 -2.7 -1.85 -4.2 -2.2 -5.8 L-2.2 -5.9 -1.3 -6.0 -1.25 -5.95" fill="#c7a336" fill-rule="evenodd" stroke="none"/>
    </g>
  </defs>
</svg>
