<?xml version="1.0" encoding="UTF-8" standalone="no"?>
<svg xmlns:ffdec="https://www.free-decompiler.com/flash" xmlns:xlink="http://www.w3.org/1999/xlink" ffdec:objectType="frame" height="253.75px" width="224.35px" xmlns="http://www.w3.org/2000/svg">
  <g transform="matrix(1.0, 0.0, 0.0, 1.0, 69.65, 236.95)">
    <use ffdec:characterId="1097" height="30.4" transform="matrix(7.0, 0.0, 0.0, 7.0, -57.75, -198.1)" width="30.35" xlink:href="#shape0"/>
  </g>
  <defs>
    <g id="shape0" transform="matrix(1.0, 0.0, 0.0, 1.0, 8.25, 28.3)">
      <path d="M17.55 -28.2 Q17.6 -28.15 17.6 -27.95 17.6 -27.75 17.4 -27.55 17.2 -27.35 17.0 -27.4 L16.7 -27.6 Q16.65 -27.7 16.65 -27.8 16.65 -28.0 16.95 -28.2 17.25 -28.4 17.55 -28.25 L17.55 -28.2 M15.3 -27.2 L15.4 -27.05 Q15.25 -26.8 15.1 -26.7 L14.8 -26.95 14.75 -27.05 14.8 -27.25 Q14.85 -27.35 15.1 -27.4 L15.3 -27.2 M11.9 -27.3 Q11.7 -27.05 11.45 -26.85 L11.35 -26.9 11.2 -27.0 11.15 -27.2 Q11.15 -27.35 11.35 -27.45 11.5 -27.6 11.6 -27.55 11.8 -27.45 11.9 -27.3 M11.95 -20.8 L12.0 -20.75 11.6 -20.75 11.55 -20.85 11.55 -21.0 11.9 -21.0 Q11.95 -20.9 11.95 -20.8 M16.55 -16.0 L16.6 -15.8 Q16.55 -15.7 16.55 -15.55 L16.35 -15.5 15.75 -15.5 15.65 -15.55 15.65 -15.6 Q15.6 -15.65 15.6 -15.8 L15.6 -16.0 15.65 -16.1 16.05 -16.1 16.55 -16.0 M20.8 -16.75 L20.5 -16.6 20.2 -16.65 Q20.25 -16.7 20.5 -16.8 20.75 -16.9 20.9 -16.9 20.9 -16.85 20.8 -16.75 M6.85 -23.15 L6.75 -23.0 Q6.7 -22.95 6.55 -22.95 L6.45 -22.95 Q6.4 -23.0 6.4 -23.15 6.4 -23.45 6.45 -23.35 L6.8 -23.35 6.85 -23.15 M1.9 -21.25 Q1.9 -21.05 1.75 -20.9 1.6 -20.8 1.45 -20.8 1.1 -20.8 1.0 -21.0 1.0 -21.05 1.0 -21.2 1.0 -21.65 1.45 -21.65 1.9 -21.65 1.9 -21.25 M3.4 -18.95 L3.35 -18.95 3.35 -19.15 Q3.35 -19.3 3.35 -19.35 L3.4 -19.4 3.55 -19.4 3.75 -19.05 3.65 -18.95 3.4 -18.95 M5.35 -18.45 L5.3 -18.5 Q5.25 -18.6 5.25 -18.7 L5.4 -18.7 Q5.5 -18.65 5.6 -18.55 5.55 -18.45 5.35 -18.45 M1.55 -0.25 L1.65 -0.25 1.95 -0.15 Q1.9 0.1 1.6 0.15 1.5 0.05 1.5 -0.05 L1.55 -0.25 M9.55 -0.4 Q9.45 -0.25 9.3 -0.25 8.65 -0.25 8.65 -0.8 8.65 -1.25 9.15 -1.25 9.6 -1.25 9.6 -0.65 9.6 -0.5 9.55 -0.4 M21.55 -12.0 L21.45 -12.05 21.4 -12.1 Q21.35 -12.15 21.35 -12.3 21.35 -12.6 21.65 -12.55 21.95 -12.55 22.1 -12.15 L22.1 -12.05 Q22.05 -12.0 21.85 -12.0 L21.55 -12.0 M17.75 -10.75 L17.95 -10.6 Q18.0 -10.5 18.0 -10.35 17.9 -10.15 17.75 -10.1 L17.5 -10.2 Q17.45 -10.25 17.45 -10.45 17.45 -10.65 17.55 -10.7 L17.75 -10.75 M11.95 -3.6 Q12.15 -3.55 12.2 -3.35 12.15 -3.25 12.0 -3.1 L11.65 -3.1 11.65 -3.15 Q11.6 -3.2 11.6 -3.35 11.6 -3.55 11.7 -3.6 L11.95 -3.6 M17.3 -1.95 Q17.7 -1.75 17.7 -1.4 17.7 -1.1 17.6 -1.0 17.4 -0.75 16.75 -0.75 16.1 -0.75 15.75 -0.95 15.65 -1.05 15.55 -1.2 L15.35 -1.05 15.15 -1.1 Q15.0 -1.15 14.95 -1.2 15.15 -1.4 15.4 -2.05 15.6 -2.7 15.8 -2.8 L16.25 -2.8 16.5 -2.45 Q16.7 -2.2 17.05 -2.2 17.25 -2.05 17.3 -1.95 M21.2 -4.0 L21.15 -3.95 Q21.05 -3.9 20.9 -3.9 20.5 -3.9 20.5 -4.3 20.5 -4.5 20.6 -4.6 20.75 -4.75 21.15 -4.65 21.15 -4.6 21.2 -4.45 L21.25 -4.3 21.2 -4.0 M19.2 -1.0 Q19.3 -0.9 19.3 -0.7 19.3 -0.55 18.9 -0.25 18.5 0.0 18.35 0.0 18.0 0.0 17.85 -0.15 17.75 -0.25 17.75 -0.4 17.75 -0.7 18.15 -1.0 18.55 -1.35 19.0 -1.15 L19.2 -1.0 M21.8 1.3 L21.8 1.55 Q21.8 1.65 21.7 1.75 21.55 1.95 21.3 2.1 L20.9 2.1 20.75 1.8 Q20.65 1.65 20.65 1.45 20.65 1.15 21.0 1.15 L21.75 1.25 21.8 1.3 M-3.7 -21.8 Q-3.7 -22.5 -3.05 -22.1 L-2.6 -21.75 -2.4 -21.55 Q-2.4 -21.3 -2.65 -21.2 L-3.0 -21.15 Q-3.45 -21.15 -3.6 -21.5 -3.7 -21.65 -3.7 -21.8 M-6.25 -16.25 L-6.3 -16.1 Q-6.4 -16.05 -6.55 -16.05 -6.85 -16.05 -6.8 -16.1 L-6.9 -16.15 Q-6.95 -16.2 -6.95 -16.4 -6.95 -16.6 -6.8 -16.65 L-6.65 -16.7 Q-6.3 -16.4 -6.25 -16.25 M-1.55 -20.9 Q-1.4 -20.85 -1.3 -20.65 -1.35 -20.55 -1.7 -20.3 L-1.85 -20.3 Q-1.9 -20.3 -1.9 -20.5 -1.9 -20.65 -1.7 -20.75 -1.55 -20.85 -1.55 -20.9 M-3.1 -16.55 L-2.85 -16.55 -2.75 -16.45 -2.8 -16.3 -3.0 -16.25 Q-3.3 -16.3 -3.3 -16.5 L-3.1 -16.55 M-4.5 -8.8 L-4.65 -8.8 Q-4.75 -8.9 -4.75 -9.15 L-4.6 -9.15 Q-4.5 -9.15 -4.45 -9.05 -4.45 -8.9 -4.5 -8.8 M-7.65 -8.95 L-7.7 -8.7 -7.8 -8.6 Q-7.9 -8.55 -7.95 -8.55 L-8.15 -8.6 Q-8.25 -8.65 -8.25 -8.85 -8.25 -9.05 -8.15 -9.1 L-7.95 -9.2 Q-7.75 -9.1 -7.65 -8.95 M-2.9 -2.0 L-2.65 -1.9 Q-2.7 -1.85 -2.85 -1.85 -3.0 -1.85 -3.1 -1.9 -3.0 -2.0 -2.9 -2.0 M-4.95 -2.2 L-4.95 -2.4 -4.9 -2.5 Q-4.6 -2.55 -4.05 -2.25 L-4.35 -2.1 Q-4.55 -1.95 -4.7 -1.9 L-4.9 -1.95 Q-4.95 -2.0 -4.95 -2.2" fill="#e5eeff" fill-opacity="0.7529412" fill-rule="evenodd" stroke="none"/>
    </g>
  </defs>
</svg>
