<?xml version="1.0" encoding="UTF-8" standalone="no"?>
<svg xmlns:ffdec="https://www.free-decompiler.com/flash" xmlns:xlink="http://www.w3.org/1999/xlink" ffdec:objectType="frame" height="40.6px" width="30.45px" xmlns="http://www.w3.org/2000/svg">
  <g transform="matrix(1.0, 0.0, 0.0, 1.0, 8.05, 15.4)">
    <use ffdec:characterId="332" height="5.8" transform="matrix(7.0, 0.0, 0.0, 7.0, -8.05, -15.4)" width="4.35" xlink:href="#shape0"/>
  </g>
  <defs>
    <g id="shape0" transform="matrix(1.0, 0.0, 0.0, 1.0, 1.15, 2.2)">
      <path d="M1.0 2.85 L0.75 2.6 0.55 2.45 0.4 2.3 0.25 2.1 -0.05 1.6 -0.1 1.5 -0.2 1.35 -0.25 1.2 -0.55 1.25 Q-0.9 1.35 -1.1 -0.75 -1.45 -2.05 -0.3 -2.1 L0.35 -2.2 Q1.05 -2.15 1.45 -2.05 L1.85 -1.9 2.15 -1.7 2.55 -1.4 2.75 -1.15 Q2.9 -1.0 2.95 -0.7 L2.95 -0.55 2.9 -0.55 Q2.85 -0.45 2.85 -0.4 L2.9 -0.3 2.9 -0.1 2.85 0.15 Q2.8 0.35 2.75 0.5 2.75 0.65 2.8 0.75 L2.85 0.9 Q2.75 0.95 2.6 1.05 L2.55 1.05 2.55 0.95 2.45 0.25 2.4 0.25 2.4 0.65 2.35 0.95 2.35 1.1 2.3 1.2 2.25 1.35 2.1 1.55 2.0 1.65 1.95 1.65 1.95 1.75 2.0 2.1 2.0 2.45 2.05 2.65 2.05 3.05 1.95 3.35 Q1.7 3.3 1.5 3.1 1.4 3.0 1.35 2.9 L1.35 2.8 Q1.35 2.75 1.4 2.7 L1.5 2.6 Q1.65 2.6 1.75 2.75 1.7 2.5 1.5 2.45 L1.1 2.7 1.05 2.7 1.05 2.75 1.0 2.85 M1.65 1.45 L1.8 1.45 Q1.9 1.45 2.0 1.3 L2.05 1.15 2.15 0.95 2.15 0.7 2.25 0.5 Q2.25 0.4 2.15 0.25 2.1 0.4 1.95 0.8 L1.9 0.95 1.5 0.95 1.3 0.8 1.25 0.7 1.15 0.65 1.05 0.55 0.85 0.45 0.85 0.4 0.7 0.35 0.55 0.25 0.45 0.15 0.1 0.1 Q0.0 0.2 -0.05 0.35 L0.05 0.45 0.3 0.45 0.5 0.6 0.55 0.65 Q0.35 0.6 0.2 0.7 L-0.15 0.7 -0.15 0.8 0.15 0.8 0.25 1.2 Q0.35 1.35 0.55 1.45 0.75 1.6 0.95 1.55 L1.05 1.75 1.0 1.85 1.05 2.0 1.1 1.9 1.15 1.9 1.25 1.75 1.55 1.55 1.6 1.5 1.65 1.5 1.65 1.45 M2.2 2.0 L2.25 2.0 2.5 1.95 Q2.45 2.2 2.35 2.4 2.3 2.2 2.2 2.0" fill="#c7a36d" fill-rule="evenodd" stroke="none"/>
      <path d="M1.0 2.85 L1.05 2.75 1.05 2.7 1.1 2.7 1.5 2.45 Q1.7 2.5 1.75 2.75 1.65 2.6 1.5 2.6 L1.4 2.7 Q1.35 2.75 1.35 2.8 L1.35 2.9 Q1.4 3.0 1.5 3.1 1.7 3.3 1.95 3.35 L2.05 3.05 2.05 2.65 2.0 2.45 2.0 2.1 1.95 1.75 1.95 1.65 2.0 1.65 2.1 1.55 2.25 1.35 2.3 1.2 2.35 1.1 2.35 0.95 2.4 0.65 2.4 0.25 2.45 0.25 2.55 0.95 2.55 1.05 2.6 1.05 Q2.75 0.95 2.85 0.9 L2.8 0.75 Q2.75 0.65 2.75 0.5 2.8 0.35 2.85 0.15 L2.9 -0.1 2.9 -0.3 2.85 -0.4 Q2.85 -0.45 2.9 -0.55 L2.95 -0.55 2.95 -0.6 Q3.05 -0.55 3.05 -0.5 L3.0 -0.2 3.0 0.15 2.95 0.35 2.95 0.65 3.0 0.75 3.05 0.9 3.1 1.0 3.2 1.0 3.15 1.2 3.15 1.4 2.95 1.7 2.75 1.85 Q2.65 1.95 2.65 2.1 L2.55 2.5 2.45 2.7 2.35 2.8 2.35 3.0 2.3 3.2 2.3 3.3 2.2 3.45 2.2 3.5 Q2.1 3.6 1.95 3.6 L1.75 3.5 1.5 3.4 1.35 3.25 1.05 2.9 1.0 2.85 M2.95 1.25 L2.85 1.3 2.75 1.55 2.7 1.65 2.95 1.3 2.95 1.25 M0.3 0.45 L0.05 0.45 -0.05 0.35 Q0.0 0.2 0.1 0.1 L0.45 0.15 0.55 0.25 0.7 0.35 0.85 0.4 0.85 0.45 1.05 0.55 1.15 0.65 1.25 0.7 1.3 0.8 1.5 0.95 1.9 0.95 1.95 0.8 Q2.1 0.4 2.15 0.25 2.25 0.4 2.25 0.5 L2.15 0.7 2.15 0.95 2.05 1.15 2.0 1.3 Q1.9 1.45 1.8 1.45 L1.65 1.45 1.35 1.3 1.35 1.45 1.4 1.45 1.4 1.5 1.35 1.6 1.3 1.75 1.25 1.75 1.15 1.9 1.1 1.9 1.05 2.0 1.0 1.85 1.05 1.75 0.95 1.55 Q0.75 1.6 0.55 1.45 0.35 1.35 0.25 1.2 L0.15 0.8 -0.15 0.8 -0.15 0.7 0.2 0.7 Q0.35 0.6 0.55 0.65 L0.65 0.65 Q0.55 0.5 0.35 0.45 L0.3 0.45 M2.65 1.3 L2.6 1.3 2.55 1.35 2.6 1.35 2.6 1.4 2.55 1.45 2.5 1.55 2.4 1.55 2.4 1.5 2.35 1.5 2.2 1.65 Q2.4 1.7 2.5 1.55 L2.6 1.45 2.6 1.35 2.65 1.3 M2.5 1.95 L2.5 1.85 2.45 1.85 2.6 1.75 Q2.5 1.8 2.35 1.8 L2.2 2.0 Q2.3 2.2 2.35 2.4 2.45 2.2 2.5 1.95 M0.35 0.8 L0.55 1.25 0.95 1.35 Q1.15 1.35 1.05 1.2 L0.85 1.3 0.8 1.25 0.75 1.25 0.75 1.1 0.8 1.0 0.85 0.95 0.8 0.95 0.8 0.85 Q0.6 0.75 0.45 0.85 L0.35 0.8" fill="#111111" fill-rule="evenodd" stroke="none"/>
      <path d="M2.95 1.25 L2.95 1.3 2.7 1.65 2.75 1.55 2.85 1.3 2.95 1.25 M1.65 1.45 L1.65 1.5 1.6 1.5 1.55 1.55 1.25 1.75 1.3 1.75 1.35 1.6 1.4 1.5 1.4 1.45 1.35 1.45 1.35 1.3 1.65 1.45 M0.55 0.65 L0.5 0.6 0.3 0.45 0.35 0.45 Q0.55 0.5 0.65 0.65 L0.55 0.65 M2.2 2.0 L2.35 1.8 Q2.5 1.8 2.6 1.75 L2.45 1.85 2.5 1.85 2.5 1.95 2.25 2.0 2.2 2.0" fill="#a9854f" fill-rule="evenodd" stroke="none"/>
      <path d="M2.65 1.3 L2.6 1.35 2.6 1.45 2.5 1.55 Q2.4 1.7 2.2 1.65 L2.35 1.5 2.4 1.5 2.4 1.55 2.5 1.55 2.55 1.45 2.6 1.4 2.6 1.35 2.55 1.35 2.6 1.3 2.65 1.3 M0.35 0.8 L0.45 0.85 Q0.6 0.75 0.8 0.85 L0.8 0.95 0.85 0.95 0.8 1.0 0.75 1.1 0.75 1.25 0.8 1.25 0.85 1.3 1.05 1.2 Q1.15 1.35 0.95 1.35 L0.55 1.25 0.35 0.8" fill="#ffffff" fill-rule="evenodd" stroke="none"/>
    </g>
  </defs>
</svg>
