<?xml version="1.0" encoding="UTF-8" standalone="no"?>
<svg xmlns:ffdec="https://www.free-decompiler.com/flash" xmlns:xlink="http://www.w3.org/1999/xlink" ffdec:objectType="frame" height="71.4px" width="191.1px" xmlns="http://www.w3.org/2000/svg">
  <g transform="matrix(1.0, 0.0, 0.0, 1.0, 8.4, 78.4)">
    <use ffdec:characterId="924" height="3.7" transform="matrix(7.0, 0.0, 0.0, 7.0, -8.4, -46.55)" width="19.45" xlink:href="#shape0"/>
  </g>
  <defs>
    <g id="shape0" transform="matrix(1.0, 0.0, 0.0, 1.0, 1.2, 6.65)">
      <path d="M5.2 -4.0 Q5.0 -3.65 4.95 -3.15 L4.9 -3.05 4.85 -3.0 4.75 -3.0 4.7 -2.95 3.95 -3.05 3.0 -3.05 2.0 -3.15 Q1.1 -3.25 0.7 -3.45 0.3 -3.6 0.15 -3.95 L-0.3 -3.95 Q-0.4 -3.95 -0.65 -3.85 L-0.9 -3.7 -0.95 -3.7 Q-1.0 -3.65 -1.05 -3.65 -1.1 -3.65 -1.15 -3.7 L-1.2 -3.75 -1.2 -3.9 Q-1.2 -4.05 -0.75 -4.25 -0.3 -4.45 0.25 -4.3 L0.35 -4.25 Q0.6 -3.95 0.95 -3.8 1.55 -3.55 2.95 -3.55 L3.5 -3.5 4.45 -3.5 Q4.4 -3.85 4.8 -4.3 5.15 -4.75 5.85 -5.2 L6.15 -5.2 6.2 -5.15 Q6.35 -5.05 6.45 -4.7 6.55 -4.5 6.65 -4.45 L7.25 -4.5 7.65 -4.55 8.05 -4.5 8.25 -4.45 9.15 -4.55 Q9.35 -4.6 9.5 -4.75 L9.6 -4.8 9.6 -4.85 Q9.85 -5.45 10.1 -5.55 10.85 -6.05 11.3 -5.6 11.65 -5.35 11.7 -5.0 L12.2 -5.05 12.35 -5.1 12.35 -5.2 Q12.4 -5.2 12.45 -5.2 L12.55 -5.2 12.25 -5.5 12.15 -5.55 12.1 -5.55 12.05 -5.6 Q11.95 -5.6 11.9 -5.7 L11.7 -5.8 11.65 -5.85 11.55 -5.85 Q10.95 -5.9 10.85 -6.0 L10.55 -6.15 10.25 -6.2 9.55 -6.15 9.45 -6.1 Q9.55 -6.1 9.5 -6.0 L9.4 -5.95 Q9.35 -5.95 9.3 -6.0 L9.25 -6.0 9.15 -6.1 9.15 -6.2 Q9.4 -6.7 10.2 -6.6 10.7 -6.55 11.15 -6.35 L11.85 -6.2 11.9 -6.2 12.2 -6.15 12.7 -6.1 12.75 -6.1 12.8 -6.0 Q12.85 -5.85 13.1 -5.35 L13.15 -5.25 13.4 -5.15 13.55 -5.1 13.65 -5.1 13.6 -5.15 13.65 -5.3 13.55 -5.25 13.55 -5.3 Q13.5 -5.3 13.45 -5.35 L13.45 -5.5 13.55 -5.6 14.45 -5.95 Q15.05 -6.25 15.4 -6.35 L15.7 -6.35 15.75 -6.3 16.1 -6.0 16.1 -6.05 16.15 -6.15 16.15 -6.25 16.2 -6.25 16.25 -6.35 16.45 -6.35 16.5 -6.3 17.5 -6.5 17.6 -6.5 17.65 -6.45 17.65 -6.35 Q17.65 -6.25 17.55 -6.15 L17.5 -6.1 16.85 -6.0 16.65 -5.95 16.8 -5.65 Q16.85 -5.55 16.75 -5.45 L16.1 -5.45 Q16.05 -5.45 16.0 -5.45 L15.65 -5.75 Q15.0 -5.5 14.6 -5.25 L14.55 -5.2 14.45 -5.2 14.4 -5.15 14.7 -5.05 14.8 -5.05 15.75 -4.95 15.85 -4.95 15.95 -4.8 Q16.05 -4.95 16.2 -4.95 L16.45 -4.95 16.55 -4.9 16.6 -4.85 16.6 -4.75 16.95 -4.7 17.25 -4.6 17.35 -4.55 17.4 -4.5 17.4 -4.4 Q17.35 -4.3 17.15 -4.3 L16.9 -4.25 16.6 -4.25 16.4 -4.25 16.3 -4.3 16.25 -4.4 16.25 -4.5 16.1 -4.35 16.25 -4.25 17.1 -4.2 17.2 -4.15 17.3 -3.95 17.55 -3.9 Q17.9 -3.8 18.1 -3.7 L18.2 -3.6 18.2 -3.55 Q18.3 -3.4 18.15 -3.3 L17.55 -3.3 17.15 -3.35 16.95 -3.4 16.85 -3.45 Q16.75 -3.55 16.75 -3.7 L16.75 -3.75 15.7 -3.75 15.65 -3.85 15.6 -3.9 Q15.6 -4.0 15.45 -4.1 L15.4 -4.1 Q15.25 -4.2 15.25 -4.35 15.25 -4.45 15.3 -4.55 L15.25 -4.55 15.1 -4.6 14.4 -4.55 14.4 -4.5 14.3 -4.4 14.2 -4.35 14.05 -4.35 Q13.95 -4.35 13.95 -4.4 L13.9 -4.45 13.8 -4.45 Q13.3 -4.25 13.15 -4.2 L13.1 -4.25 13.0 -4.3 12.9 -4.5 12.9 -4.55 12.85 -4.6 12.75 -4.8 12.65 -4.8 Q12.5 -4.7 12.3 -4.7 L12.15 -4.65 11.95 -4.6 11.45 -4.6 11.35 -4.7 Q11.3 -4.75 11.25 -5.1 11.2 -5.2 11.1 -5.2 10.85 -5.2 10.65 -5.15 L10.3 -4.8 9.7 -4.25 9.65 -4.2 9.8 -4.15 10.15 -3.85 Q10.35 -3.85 10.5 -4.0 10.8 -4.2 11.05 -4.2 L11.25 -4.2 11.3 -4.15 11.55 -4.35 Q11.9 -4.55 12.05 -4.5 L12.15 -4.4 12.15 -4.3 11.85 -4.0 11.45 -3.7 11.15 -3.7 Q10.75 -3.6 10.55 -3.5 10.35 -3.4 10.2 -3.2 L10.1 -3.15 10.05 -3.15 Q10.0 -3.15 9.7 -3.4 L9.5 -3.6 Q9.45 -3.45 9.35 -3.4 9.1 -3.15 7.95 -3.2 L7.85 -3.2 Q7.7 -3.25 7.7 -3.55 7.7 -3.6 7.75 -3.65 L7.85 -3.7 9.0 -3.7 9.15 -3.9 9.2 -4.05 8.1 -3.9 6.6 -3.75 6.5 -3.75 Q6.45 -3.75 6.4 -3.8 L6.25 -4.2 Q6.15 -4.3 6.1 -4.45 L5.95 -4.75 Q5.8 -4.75 5.55 -4.45 L5.2 -4.0 M9.9 -3.6 L9.9 -3.55 10.05 -3.65 10.0 -3.65 9.9 -3.6 M6.7 -4.15 L6.5 -4.25 6.6 -4.0 6.7 -4.15 M16.3 -5.9 L16.2 -5.9 16.15 -5.95 16.2 -5.85 16.2 -5.8 Q16.2 -5.75 16.3 -5.7 L16.4 -5.95 16.3 -5.95 16.35 -5.9 16.3 -5.9 M16.15 -6.0 L16.1 -6.0 16.15 -5.95 16.2 -5.95 16.15 -6.0 M16.4 -4.05 L16.3 -4.1 16.3 -4.0 16.4 -4.05 M17.0 -3.6 L17.1 -3.65 17.15 -3.65 17.1 -3.75 16.95 -3.6 17.0 -3.6 M17.15 -3.85 L17.05 -3.95 16.95 -3.85 17.05 -3.75 17.15 -3.85 M13.55 -5.3 L13.6 -5.3 13.5 -5.4 13.55 -5.3 13.55 -5.3 M12.0 -5.95 L11.85 -5.9 11.95 -5.8 11.95 -5.9 12.0 -5.95 M11.65 -5.95 L11.6 -5.9 11.65 -5.9 11.65 -5.95 M12.55 -5.7 L12.6 -5.9 12.45 -5.75 12.55 -5.7 M12.8 -5.15 L12.7 -4.95 12.8 -4.9 12.85 -4.95 12.8 -5.15 M12.55 -5.2 L12.6 -5.1 12.65 -5.2 12.55 -5.2 12.55 -5.2 M13.8 -5.0 L13.85 -5.05 13.75 -5.05 13.8 -5.0 13.75 -4.95 13.8 -4.95 13.85 -5.0 13.8 -5.0 M13.7 -5.05 L13.75 -5.05 13.7 -5.1 13.7 -5.05 M13.65 -5.05 L13.65 -5.05 M13.65 -5.0 L13.65 -4.95 13.7 -4.85 13.75 -4.95 Q13.7 -4.95 13.7 -5.0 L13.65 -5.0" fill="#77fbff" fill-opacity="0.9019608" fill-rule="evenodd" stroke="none"/>
      <path d="M5.1 -4.05 Q4.85 -3.75 4.8 -3.15 L4.7 -3.1 3.95 -3.2 3.0 -3.2 2.05 -3.3 2.15 -3.3 Q1.2 -3.4 0.75 -3.55 0.4 -3.7 0.2 -4.1 L-0.3 -4.1 Q-0.45 -4.1 -0.7 -3.95 -1.0 -3.8 -1.05 -3.8 L-1.05 -3.9 Q-1.05 -4.0 -0.7 -4.1 L0.25 -4.15 Q0.55 -3.85 0.85 -3.7 1.5 -3.4 2.95 -3.4 L3.5 -3.35 4.2 -3.35 4.6 -3.3 Q4.45 -3.7 4.9 -4.2 5.25 -4.65 5.95 -5.1 L6.1 -5.05 Q6.25 -4.95 6.35 -4.65 6.45 -4.35 6.6 -4.3 L7.25 -4.35 7.65 -4.45 8.0 -4.35 8.25 -4.3 9.15 -4.45 Q9.4 -4.5 9.6 -4.65 L9.7 -4.7 9.75 -4.8 Q9.95 -5.3 10.15 -5.45 10.8 -5.85 11.25 -5.5 11.55 -5.25 11.55 -4.85 L12.25 -4.9 12.45 -5.0 12.45 -5.1 12.6 -5.05 12.75 -5.15 12.65 -5.35 12.4 -5.6 12.35 -5.6 12.2 -5.7 12.1 -5.75 Q12.05 -5.75 12.0 -5.8 L11.75 -5.95 11.7 -5.95 11.6 -6.0 Q11.05 -6.05 10.9 -6.15 L10.55 -6.3 10.25 -6.35 9.45 -6.25 9.35 -6.1 9.3 -6.15 Q9.5 -6.55 10.2 -6.5 10.65 -6.45 11.1 -6.2 11.35 -6.15 11.85 -6.1 L12.15 -6.0 12.7 -5.95 Q12.7 -5.8 12.95 -5.3 L13.0 -5.1 13.35 -5.0 13.55 -4.95 13.8 -4.9 13.8 -5.1 Q13.75 -5.1 13.75 -5.15 L13.7 -5.15 13.7 -5.2 13.75 -5.2 13.7 -5.25 13.7 -5.35 13.65 -5.45 13.6 -5.4 13.55 -5.45 13.6 -5.45 14.5 -5.85 15.45 -6.2 15.7 -6.2 16.1 -5.85 16.15 -5.8 16.4 -5.8 16.35 -5.9 16.3 -6.05 16.25 -6.05 16.3 -6.1 16.3 -6.2 16.35 -6.2 16.4 -6.15 Q16.7 -6.25 17.5 -6.35 L17.45 -6.25 Q17.3 -6.2 16.8 -6.15 L16.45 -6.05 16.6 -5.7 16.65 -5.65 Q16.7 -5.6 16.55 -5.6 L16.45 -5.55 16.1 -5.6 Q15.85 -5.75 15.7 -5.9 15.0 -5.65 14.55 -5.4 L14.5 -5.35 14.45 -5.35 14.4 -5.3 Q14.1 -5.15 14.05 -5.0 L14.05 -4.95 14.3 -5.0 Q14.6 -5.0 14.65 -4.95 L14.8 -4.95 15.75 -4.85 15.8 -4.75 15.85 -4.55 15.85 -4.5 16.0 -4.65 Q16.1 -4.8 16.2 -4.8 L16.45 -4.8 16.45 -4.55 Q16.45 -4.6 16.55 -4.6 L16.9 -4.55 17.25 -4.45 17.1 -4.45 16.85 -4.4 16.4 -4.4 16.4 -4.75 Q16.3 -4.75 16.15 -4.6 L15.95 -4.4 15.85 -4.4 16.0 -4.25 16.2 -4.1 17.1 -4.05 Q17.2 -3.95 17.2 -3.85 L17.5 -3.75 18.05 -3.55 18.1 -3.5 Q18.1 -3.45 17.95 -3.45 L17.55 -3.45 17.2 -3.5 16.95 -3.55 Q16.9 -3.6 16.9 -3.7 L16.9 -3.75 16.85 -3.8 16.9 -3.8 16.95 -3.85 16.4 -3.9 15.75 -3.9 Q15.75 -4.05 15.5 -4.2 15.3 -4.35 15.5 -4.6 15.5 -4.65 15.45 -4.7 L15.3 -4.7 15.15 -4.75 14.25 -4.7 14.3 -4.6 14.2 -4.5 14.05 -4.5 13.9 -4.6 13.75 -4.55 Q13.25 -4.35 13.15 -4.35 L13.0 -4.65 12.95 -4.65 12.85 -4.95 12.6 -4.95 Q12.45 -4.8 12.3 -4.8 L12.1 -4.75 11.95 -4.7 11.65 -4.75 11.45 -4.75 11.4 -5.1 Q11.35 -5.35 11.1 -5.35 10.8 -5.35 10.55 -5.25 L10.2 -4.9 9.6 -4.35 Q9.35 -4.1 8.1 -4.05 6.7 -3.95 6.55 -3.85 L6.35 -4.25 Q6.3 -4.35 6.25 -4.5 L6.1 -4.85 6.05 -4.9 6.0 -4.9 Q5.75 -4.9 5.4 -4.55 L5.1 -4.05 M9.25 -3.85 Q9.45 -4.2 9.7 -4.0 L10.15 -3.7 Q10.4 -3.7 10.6 -3.9 10.8 -4.05 11.05 -4.05 L11.2 -4.05 11.35 -4.0 Q11.45 -4.1 11.65 -4.2 11.95 -4.35 12.0 -4.35 11.9 -4.25 11.75 -4.1 L11.35 -3.85 11.15 -3.85 Q10.7 -3.75 10.5 -3.65 10.3 -3.55 10.05 -3.3 L9.8 -3.55 9.5 -3.8 9.45 -3.8 Q9.4 -3.8 9.35 -3.65 L9.25 -3.5 Q9.0 -3.3 7.95 -3.35 7.85 -3.35 7.85 -3.55 L9.0 -3.55 Q9.15 -3.55 9.25 -3.85 M9.7 -3.75 L9.7 -3.75 M10.0 -3.65 L10.0 -3.65 M10.05 -3.6 L10.1 -3.5 10.2 -3.55 10.05 -3.6 M7.85 -4.25 L7.95 -4.25 7.55 -4.2 7.85 -4.25 M16.25 -4.0 L16.3 -4.0 16.25 -4.05 16.25 -4.0 M17.05 -3.9 L17.05 -3.9 M17.1 -3.65 L17.0 -3.7 17.05 -3.65 17.1 -3.65 M12.0 -5.9 L12.0 -5.9 M11.7 -6.0 L11.7 -6.0 M12.55 -5.8 L12.55 -5.8 M13.4 -4.85 L13.1 -4.9 13.15 -4.8 13.55 -4.8 13.4 -4.85" fill="#000033" fill-opacity="0.9019608" fill-rule="evenodd" stroke="none"/>
    </g>
  </defs>
</svg>
