<?xml version="1.0" encoding="UTF-8" standalone="no"?>
<svg xmlns:ffdec="https://www.free-decompiler.com/flash" xmlns:xlink="http://www.w3.org/1999/xlink" ffdec:objectType="frame" height="302.5px" width="362.5px" xmlns="http://www.w3.org/2000/svg">
  <g transform="matrix(1.0, 0.0, 0.0, 1.0, 191.0, 187.75)">
    <use ffdec:characterId="4185" height="291.0" transform="matrix(1.0, 0.0, 0.0, 1.0, -169.0, -187.75)" width="340.5" xlink:href="#shape0"/>
  </g>
  <defs>
    <g id="shape0" transform="matrix(1.0, 0.0, 0.0, 1.0, 169.0, 187.75)">
      <path d="M128.5 -151.75 Q129.75 -149.85 130.4 -145.8 L131.5 -139.0 130.5 -138.75 Q129.55 -141.1 128.55 -144.7 127.55 -148.35 127.0 -151.5 L128.5 -151.75 M129.25 -132.25 Q128.85 -131.05 128.0 -130.75 L125.25 -131.0 125.0 -130.6 Q124.75 -130.55 124.75 -132.1 124.75 -133.65 125.4 -133.5 L126.0 -133.25 Q128.5 -133.0 129.25 -132.25 M139.1 -134.7 L137.0 -133.75 136.05 -133.95 Q135.05 -134.3 134.75 -134.75 136.7 -136.05 137.4 -137.15 137.75 -137.35 141.0 -136.0 140.65 -135.5 139.1 -134.7 M134.8 -127.6 Q135.75 -125.25 135.75 -123.75 L135.5 -120.0 134.5 -119.75 Q134.05 -125.2 132.25 -129.5 L132.5 -131.25 133.25 -131.25 134.8 -127.6 M46.9 -183.0 Q45.5 -184.55 44.75 -186.5 L45.25 -187.75 Q46.35 -187.2 48.05 -184.75 L50.5 -181.0 Q48.7 -180.9 46.9 -183.0 M4.25 -103.25 Q4.1 -102.05 3.2 -100.9 2.1 -99.6 0.5 -99.25 L0.25 -99.05 Q0.0 -99.2 0.0 -100.75 0.0 -103.25 4.25 -103.25 M47.5 -121.5 Q50.65 -122.1 52.15 -118.7 54.7 -112.85 55.0 -112.5 59.5 -103.5 60.75 -99.0 L60.0 -98.5 Q55.15 -102.35 51.85 -109.8 50.0 -113.95 47.5 -121.5 M63.5 -89.5 L63.45 -89.95 63.0 -91.0 Q63.45 -92.3 66.0 -91.0 65.5 -89.5 63.5 -89.5 M86.75 -73.75 Q86.75 -73.0 86.0 -72.5 L84.55 -72.9 Q84.0 -73.25 84.0 -74.85 L84.05 -76.45 84.25 -76.75 85.5 -76.75 Q86.75 -74.85 86.75 -73.75 M115.25 -29.25 Q117.2 -29.8 123.8 -29.25 L135.5 -27.75 Q136.0 -27.0 136.0 -26.25 135.75 -25.5 134.5 -25.25 L128.3 -26.2 129.5 -25.0 Q125.8 -25.0 115.0 -27.0 L116.2 -28.2 116.75 -28.7 115.25 -29.25 M158.7 -39.35 Q162.25 -38.15 164.25 -36.25 L164.05 -36.7 Q163.75 -37.65 163.75 -39.25 163.75 -40.8 164.05 -42.6 L164.5 -45.25 165.25 -45.25 165.95 -42.15 166.25 -38.85 Q166.25 -37.25 165.95 -36.5 L165.25 -35.5 164.5 -35.5 164.25 -36.2 164.0 -35.2 Q163.7 -34.75 162.1 -34.75 160.45 -34.75 156.7 -36.7 152.95 -38.7 152.5 -39.75 154.8 -40.65 158.7 -39.35 M161.6 -29.35 Q163.35 -32.85 164.25 -33.25 L161.45 -28.3 Q159.55 -24.65 158.5 -24.25 159.65 -25.4 161.6 -29.35 M171.5 -37.75 L169.6 -36.3 Q168.3 -35.4 167.5 -35.25 L167.25 -35.05 Q167.0 -35.2 167.0 -36.75 167.0 -39.35 171.25 -38.5 L171.5 -37.75 M166.2 -32.6 Q166.65 -32.55 167.0 -32.0 L166.75 -30.5 165.5 -30.25 Q165.0 -31.0 165.0 -32.5 L166.2 -32.6 M87.5 7.1 Q87.75 7.05 87.75 8.6 87.75 10.25 84.75 15.0 L83.5 15.25 Q85.75 8.2 87.25 7.5 L87.5 7.1 M97.25 18.25 L96.5 19.0 94.25 19.0 Q93.75 18.25 93.75 17.5 L94.0 16.0 95.5 16.0 Q97.0 17.5 97.25 18.25 M81.9 41.05 L74.25 51.25 73.5 51.25 Q76.45 48.1 80.85 40.65 85.7 32.45 86.25 31.75 85.85 35.25 81.9 41.05 M36.5 67.5 Q37.2 66.45 39.5 64.9 42.0 63.25 43.5 63.0 L44.5 63.75 41.05 66.15 37.25 68.25 36.5 67.5 M13.5 75.75 L8.0 76.0 Q6.5 75.5 6.25 74.75 7.6 74.15 10.85 73.95 L14.5 74.25 13.5 75.75 M2.25 93.0 L0.85 91.8 Q0.0 91.05 0.0 90.25 L5.6 91.05 Q10.4 92.15 14.25 94.25 L13.95 94.8 12.1 95.0 Q10.85 95.0 7.95 94.2 4.55 93.25 2.25 93.0 M-65.75 -176.25 Q-67.75 -171.2 -73.5 -170.25 L-74.0 -171.0 Q-72.85 -172.2 -69.8 -174.1 -67.0 -175.85 -65.75 -176.25 M-73.75 -174.25 Q-73.75 -172.75 -74.5 -172.0 L-75.4 -172.0 -74.75 -171.0 -75.1 -170.6 Q-75.65 -170.15 -76.75 -170.0 -78.5 -170.95 -80.35 -173.75 -82.1 -176.35 -82.0 -177.5 -79.8 -176.8 -77.6 -174.65 L-76.1 -172.95 -76.25 -174.75 -75.35 -174.8 -73.75 -174.25 M-69.75 -165.25 L-70.1 -164.95 Q-70.55 -164.65 -71.0 -164.5 -73.5 -164.85 -73.5 -166.25 L-73.25 -168.25 -71.5 -168.25 Q-69.85 -167.0 -69.5 -166.0 L-69.75 -165.25 M-77.35 -168.8 Q-76.55 -168.7 -75.75 -168.25 -75.75 -166.75 -76.5 -166.0 L-77.75 -166.0 Q-78.25 -166.75 -78.25 -168.75 L-77.35 -168.8 M-73.5 -166.75 Q-73.7 -164.15 -74.7 -159.85 -75.6 -155.95 -76.75 -152.5 L-77.5 -152.5 -78.0 -155.1 -76.65 -162.4 Q-75.95 -166.45 -73.5 -166.75 M-79.0 -121.0 L-78.25 -121.3 Q-77.5 -121.3 -77.5 -119.75 -77.5 -118.2 -79.95 -107.3 -82.3 -96.6 -82.75 -95.75 L-83.5 -95.75 -83.75 -96.85 -82.5 -103.65 Q-84.25 -104.95 -84.25 -105.85 -84.25 -107.95 -83.2 -110.85 -82.15 -113.9 -80.5 -115.15 -79.75 -118.75 -79.0 -121.0 M-21.5 -113.75 L-23.0 -113.25 -25.3 -113.45 Q-27.6 -113.8 -27.75 -114.25 L-27.35 -114.4 Q-27.0 -114.6 -27.0 -114.75 L-21.75 -114.25 -21.5 -113.75 M-3.75 -107.5 L-2.75 -105.6 Q-2.5 -104.8 -2.5 -103.0 L-2.55 -100.85 -3.0 -100.0 -4.75 -99.75 -5.4 -100.75 -5.5 -103.1 Q-5.5 -104.95 -5.0 -106.15 -4.5 -107.3 -3.75 -107.5 M-10.0 -99.25 Q-6.5 -98.75 -6.0 -98.0 L-6.5 -97.25 -11.5 -97.25 Q-13.0 -98.75 -13.0 -99.75 -10.5 -99.75 -10.0 -99.25 M-96.5 -83.25 L-97.0 -84.0 Q-96.8 -84.65 -95.7 -85.05 L-93.5 -85.0 Q-95.0 -83.5 -96.5 -83.25 M-84.25 -53.0 L-85.4 -51.65 -87.0 -50.25 -88.35 -50.65 Q-88.75 -51.0 -88.75 -52.6 -88.75 -54.25 -87.2 -54.9 L-85.5 -55.25 Q-84.75 -54.5 -84.25 -53.0 M-102.1 -47.2 Q-101.75 -47.05 -101.75 -45.5 -101.75 -43.95 -102.45 -41.2 L-103.75 -36.5 -104.5 -36.5 Q-105.25 -38.75 -105.25 -42.5 L-105.1 -45.05 Q-104.6 -46.35 -102.5 -47.0 L-102.1 -47.2 M-119.5 -35.0 Q-118.45 -32.9 -117.65 -28.0 L-117.25 -27.5 Q-116.75 -26.8 -116.75 -25.5 L-116.85 -25.05 -117.1 -24.45 -116.25 -18.85 -116.5 -17.0 -117.5 -16.75 -119.35 -23.5 -119.95 -25.75 Q-121.25 -26.95 -121.25 -28.1 L-121.0 -29.8 -121.25 -31.35 -121.0 -35.0 -119.5 -35.0 M-104.85 -13.55 L-104.75 -11.75 Q-104.75 -10.05 -104.95 -9.6 L-105.75 -8.75 -107.25 -8.75 -107.25 -13.25 -107.0 -14.0 -105.5 -14.0 -104.85 -13.55 M-2.0 -94.5 L-3.35 -94.1 Q-4.6 -93.8 -4.75 -94.25 -4.0 -95.35 -4.0 -96.5 L-2.8 -96.6 -2.0 -96.0 -2.0 -94.5 M-70.0 -52.75 L-70.5 -53.25 Q-69.05 -54.35 -64.8 -60.5 -61.3 -65.55 -59.75 -65.25 L-63.55 -59.2 Q-66.25 -55.0 -70.0 -52.75 M-66.25 -69.5 Q-66.25 -70.85 -65.0 -71.25 L-62.5 -71.0 -60.95 -69.85 Q-60.15 -69.25 -60.0 -68.75 L-60.0 -68.0 -60.35 -67.6 Q-60.85 -67.25 -61.5 -67.25 -63.75 -68.0 -66.25 -69.5 M-57.5 -72.75 Q-57.0 -72.0 -57.0 -69.0 -57.35 -68.45 -58.15 -67.95 -58.95 -67.5 -59.5 -67.5 L-60.0 -69.0 Q-59.4 -69.9 -59.1 -71.15 L-58.75 -72.75 -57.5 -72.75 M-56.95 -62.7 Q-58.05 -63.05 -58.5 -63.5 -58.5 -63.95 -57.75 -64.7 L-57.0 -65.5 -55.3 -65.15 Q-54.3 -64.8 -53.75 -64.25 L-54.25 -63.0 -56.0 -62.5 -56.95 -62.7 M-80.75 28.75 L-81.1 29.05 -82.0 29.5 Q-84.5 29.15 -84.5 27.75 L-84.25 25.75 -82.5 25.75 Q-80.85 27.0 -80.5 28.0 L-80.75 28.75 M-47.5 43.35 Q-47.25 43.3 -47.25 44.85 -47.25 46.3 -48.05 47.7 L-49.0 49.75 -50.75 50.0 Q-51.0 49.65 -51.2 49.7 L-51.25 48.1 Q-51.25 47.25 -50.55 46.2 -49.6 44.8 -47.75 43.75 L-47.5 43.35 M-58.75 48.25 L-57.5 48.25 Q-56.25 50.15 -56.25 51.25 L-56.25 51.75 -56.85 51.9 -58.75 52.0 -59.0 52.2 -59.25 50.5 -59.0 48.55 -58.75 48.25 M-48.4 53.7 Q-47.2 54.3 -46.75 54.75 -47.1 55.9 -48.0 56.75 L-50.75 56.0 -51.0 56.35 Q-51.25 56.4 -51.25 54.85 L-51.1 53.1 -51.0 53.25 -49.5 53.25 -48.4 53.7 M-57.75 56.25 Q-55.25 54.8 -53.0 55.0 L-56.05 57.65 Q-58.65 59.9 -59.0 60.0 L-59.6 60.5 Q-60.25 60.65 -60.25 59.1 -60.25 57.7 -57.75 56.25 M-102.35 19.15 L-101.5 22.5 -101.75 23.25 -103.9 20.5 Q-104.75 19.0 -104.75 17.25 L-104.5 15.75 -103.75 15.75 Q-102.85 17.1 -102.35 19.15 M-150.45 85.2 L-150.5 83.6 Q-150.5 81.85 -149.9 80.35 -149.35 78.95 -148.75 78.75 L-147.85 80.65 Q-147.5 81.6 -147.5 83.25 L-147.7 85.5 -148.5 87.0 -150.25 87.0 -150.3 86.8 -150.85 86.9 -152.75 87.0 -153.0 87.2 Q-153.25 87.05 -153.25 85.5 L-153.0 83.55 -152.75 83.25 -151.5 83.25 Q-150.75 84.35 -150.45 85.2 M-154.75 95.6 Q-155.0 95.65 -155.0 94.1 -155.0 93.35 -153.05 91.25 -151.15 89.2 -150.5 89.0 -149.95 90.65 -150.9 92.35 -151.95 94.25 -154.5 95.25 L-154.75 95.6 M-157.5 89.5 Q-157.5 89.05 -156.75 88.3 L-156.0 87.5 Q-152.5 87.75 -151.5 88.5 L-151.5 89.25 -151.85 89.7 -153.0 90.5 Q-156.75 90.25 -157.5 89.5 M-144.5 89.0 Q-146.75 89.0 -147.25 88.25 -145.5 86.5 -142.75 86.75 -143.15 88.0 -144.5 89.0 M-147.0 90.45 Q-146.0 90.45 -146.0 92.0 -146.0 94.5 -147.75 103.25 L-148.5 103.25 -148.95 99.4 -149.25 95.35 Q-149.25 91.4 -148.0 90.75 -147.5 90.45 -147.0 90.45 M-164.4 40.75 Q-162.75 42.55 -162.75 45.0 L-163.0 51.0 -163.3 51.4 -164.0 52.0 -166.8 51.7 -168.5 51.75 -169.0 51.0 -169.0 39.25 Q-166.25 38.8 -164.4 40.75" fill="#ffffff" fill-opacity="0.9882353" fill-rule="evenodd" stroke="none"/>
    </g>
  </defs>
</svg>
