<?xml version="1.0" encoding="UTF-8" standalone="no"?>
<svg xmlns:ffdec="https://www.free-decompiler.com/flash" xmlns:xlink="http://www.w3.org/1999/xlink" ffdec:objectType="frame" height="41.1px" width="279.75px" xmlns="http://www.w3.org/2000/svg">
  <g transform="matrix(1.0, 0.0, 0.0, 1.0, 0.0, 0.0)">
    <use ffdec:characterId="128" height="41.1" transform="matrix(1.0, 0.0, 0.0, 1.0, 0.0, 0.0)" width="279.75" xlink:href="#shape0"/>
  </g>
  <defs>
    <g id="shape0" transform="matrix(1.0, 0.0, 0.0, 1.0, 0.0, 0.0)">
      <path d="M279.75 24.5 L277.25 25.1 273.25 25.5 265.5 25.25 263.75 24.5 Q266.6 22.55 271.95 22.45 277.5 22.35 279.75 24.5 M231.0 12.5 L217.75 12.5 Q220.85 11.55 221.8 10.5 L223.2 9.3 247.25 8.25 Q250.2 9.75 250.75 11.25 250.5 12.0 249.25 12.5 L239.15 12.5 238.8 11.35 238.35 10.15 Q232.0 10.4 229.95 11.45 230.05 11.85 230.9 12.45 L231.0 12.5 M250.55 40.1 Q248.85 41.1 246.75 41.1 241.6 38.75 234.95 37.0 221.7 33.5 212.25 36.6 L211.5 37.3 Q210.75 37.65 210.75 36.1 210.75 35.3 217.25 34.05 224.1 32.75 231.65 32.25 252.5 30.8 252.5 37.0 252.5 38.95 250.55 40.1 M203.9 29.4 L199.75 29.85 193.5 29.75 192.55 29.2 191.25 28.25 Q193.35 27.4 199.1 27.35 204.75 27.3 206.5 28.0 206.15 28.85 203.9 29.4 M170.35 12.55 L170.4 12.55 169.45 12.95 169.15 13.05 168.95 13.15 168.3 14.1 168.1 14.5 Q178.85 12.7 187.05 15.85 189.0 16.6 192.05 18.2 L192.5 18.45 192.9 18.65 191.5 18.75 178.6 16.3 Q165.25 13.95 161.75 14.5 166.2 13.1 170.35 12.55 M143.1 5.85 L143.4 5.75 144.3 5.45 141.25 10.25 137.45 9.75 121.25 9.25 119.95 8.9 Q118.65 8.45 118.5 8.0 L129.9 7.5 129.95 7.5 132.75 7.8 137.1 8.25 142.75 5.95 142.9 5.9 143.1 5.85 M139.2 16.85 Q137.7 17.5 133.65 18.2 L126.75 19.0 121.6 18.45 Q118.15 17.9 115.5 17.0 118.2 17.0 125.1 15.3 131.15 14.25 137.0 15.25 L134.4 15.25 Q126.9 15.55 126.9 16.85 126.9 18.15 128.4 17.85 L129.85 17.25 132.65 16.9 133.4 16.85 134.05 16.8 135.0 16.7 135.1 16.7 135.35 16.7 138.4 16.75 138.9 16.8 139.05 16.85 139.2 16.85 M104.2 23.75 L104.5 23.75 111.25 25.1 111.35 25.15 Q112.9 25.95 114.2 27.45 115.25 28.65 115.6 28.65 L116.4 27.75 Q117.6 26.65 119.4 25.85 125.15 23.35 134.95 24.8 L136.05 24.7 137.1 23.75 131.35 23.1 124.65 22.9 124.5 22.9 122.8 23.05 124.7 21.3 Q129.75 17.9 143.5 25.0 L143.75 25.5 Q137.15 27.7 126.7 29.55 L115.75 31.1 Q114.25 31.1 109.85 28.1 104.3 24.3 103.3 23.8 L104.2 23.75 M99.1 2.75 L90.25 2.25 89.5 1.7 Q88.75 1.2 88.75 0.75 L105.6 0.0 Q113.55 0.0 117.5 4.0 117.25 4.75 115.5 5.0 L106.05 3.45 109.35 3.35 108.5 1.95 Q103.1 0.25 100.6 1.35 L99.5 2.4 99.1 2.75 M92.65 29.0 Q99.75 29.35 101.75 30.35 L100.85 30.8 98.4 31.1 90.55 30.6 81.75 29.5 92.05 28.95 92.45 29.0 92.5 29.0 92.6 29.0 92.65 29.0 M84.85 27.75 L85.5 27.8 79.4 28.15 67.75 28.75 67.5 28.0 Q75.9 22.6 79.05 23.05 80.05 23.2 81.95 24.05 L81.05 24.2 Q77.8 24.85 73.5 27.0 73.65 27.45 74.35 27.55 L75.0 27.5 75.2 27.5 75.4 27.5 84.85 27.75 M85.75 20.0 L82.15 19.55 Q80.4 19.05 80.0 18.5 L80.0 17.25 87.5 16.5 Q87.5 16.75 88.4 17.4 L89.5 18.5 88.1 19.55 85.75 20.0 M42.0 17.25 Q41.75 17.85 41.75 18.6 41.75 20.15 42.0 20.0 L42.25 19.5 Q42.65 18.75 44.25 18.15 45.9 17.5 47.75 17.5 L66.75 19.5 65.95 19.25 Q60.7 17.5 56.55 16.5 L49.5 15.2 49.0 15.15 Q55.25 10.85 58.1 11.3 60.8 11.7 69.5 17.0 L70.0 18.5 Q65.95 20.65 52.5 20.8 37.15 20.65 31.25 21.0 L28.75 20.5 Q30.65 20.05 32.7 18.9 35.3 18.05 42.0 17.25 M3.95 13.55 L0.5 14.25 Q0.0 13.5 0.0 11.5 L6.0 11.75 6.5 12.5 Q6.15 13.0 3.95 13.55" fill="#d5dfbb" fill-rule="evenodd" stroke="none"/>
      <path d="M239.15 12.5 L239.2 13.15 238.1 13.65 231.65 13.15 231.0 12.5 230.9 12.45 Q230.05 11.85 229.95 11.45 232.0 10.4 238.35 10.15 L238.8 11.35 239.15 12.5 M193.8 3.55 L193.8 2.2 195.2 2.15 199.65 2.7 199.85 3.35 200.0 3.9 Q199.9 4.4 198.6 4.4 194.65 4.4 193.8 3.55 M192.9 18.65 L192.5 18.45 192.05 18.2 Q189.0 16.6 187.05 15.85 178.85 12.7 168.1 14.5 L168.3 14.1 168.95 13.15 169.15 13.05 169.45 12.95 170.4 12.55 170.35 12.55 Q177.3 9.95 186.5 13.05 192.0 14.9 196.45 17.9 L196.4 18.9 Q196.35 19.4 195.1 19.4 194.45 19.4 192.9 18.65 M178.1 27.35 Q172.7 25.1 168.75 24.1 L161.2 22.25 161.4 21.8 161.6 21.5 168.5 23.15 Q175.0 24.85 177.9 26.75 L178.1 27.35 M129.9 7.5 L125.5 7.2 124.0 6.9 Q122.5 6.5 122.5 6.1 L132.4 6.55 Q135.25 6.55 138.65 5.3 L144.25 2.95 Q150.4 0.5 155.15 3.15 L160.35 3.35 160.75 4.0 Q160.45 4.4 159.25 4.7 L156.4 5.05 153.65 4.7 Q152.5 4.4 152.15 4.0 L152.5 3.7 Q148.45 3.9 143.1 5.85 L142.9 5.9 142.75 5.95 137.1 8.25 132.75 7.8 129.95 7.5 129.9 7.5 M137.0 15.25 Q142.3 15.35 143.35 17.25 L143.25 18.05 142.7 18.55 Q141.3 17.55 139.95 17.05 L139.2 16.85 139.05 16.85 138.9 16.8 138.4 16.75 135.35 16.7 135.1 16.7 135.0 16.7 134.05 16.8 133.4 16.85 132.65 16.9 129.85 17.25 128.4 17.85 Q126.9 18.15 126.9 16.85 126.9 15.55 134.4 15.25 L137.0 15.25 M122.8 23.05 L124.5 22.9 124.65 22.9 131.35 23.1 137.1 23.75 136.05 24.7 134.95 24.8 Q125.15 23.35 119.4 25.85 117.6 26.65 116.4 27.75 L115.6 28.65 Q115.25 28.65 114.2 27.45 112.9 25.95 111.35 25.15 L111.25 25.1 104.5 23.75 104.2 23.75 Q99.65 23.75 93.3 25.25 92.9 24.6 92.9 22.9 L96.7 22.8 107.85 23.1 112.5 24.65 115.2 25.65 118.6 24.3 Q120.85 23.35 122.8 23.05 M99.1 2.75 L99.5 2.4 100.6 1.35 Q103.1 0.25 108.5 1.95 L109.35 3.35 106.05 3.45 102.95 3.45 98.4 3.35 99.1 2.75 M101.4 20.3 Q99.45 18.85 98.0 18.2 91.95 15.35 75.25 13.85 85.1 13.85 85.1 13.65 93.25 14.7 98.6 17.2 103.45 19.45 104.45 21.95 103.0 21.5 101.4 20.3 M81.95 24.05 Q83.75 23.75 85.2 24.0 87.25 24.3 94.0 28.0 94.0 28.7 92.65 29.0 L92.6 29.0 92.5 29.0 Q90.7 28.1 84.85 27.75 L75.4 27.5 75.2 27.5 75.0 27.5 74.35 27.55 Q73.65 27.45 73.5 27.0 77.8 24.85 81.05 24.2 L81.95 24.05 M49.0 15.15 L49.5 15.2 56.55 16.5 Q60.7 17.5 65.95 19.25 L66.75 19.5 47.75 17.5 Q45.9 17.5 44.25 18.15 42.65 18.75 42.25 19.5 L42.0 20.0 Q41.75 20.15 41.75 18.6 41.75 17.85 42.0 17.25 43.1 14.65 49.0 15.15" fill="#89a34e" fill-rule="evenodd" stroke="none"/>
    </g>
  </defs>
</svg>
