<?xml version="1.0" encoding="UTF-8" standalone="no"?>
<svg xmlns:ffdec="https://www.free-decompiler.com/flash" xmlns:xlink="http://www.w3.org/1999/xlink" ffdec:objectType="frame" height="317.7px" width="98.9px" xmlns="http://www.w3.org/2000/svg">
  <g transform="matrix(1.0, 0.0, 0.0, 1.0, 50.75, 197.7)">
    <use ffdec:characterId="1473" height="317.7" transform="matrix(1.0, 0.0, 0.0, 1.0, -50.75, -197.7)" width="98.9" xlink:href="#shape0"/>
  </g>
  <defs>
    <g id="shape0" transform="matrix(1.0, 0.0, 0.0, 1.0, 50.75, 197.7)">
      <path d="M9.2 -108.1 Q8.95 -110.5 8.85 -113.3 8.7 -116.6 8.7 -125.85 L8.9 -142.85 8.9 -178.35 Q9.15 -181.25 9.05 -188.9 9.15 -195.6 10.65 -197.7 L11.35 -187.95 11.65 -178.7 11.7 -177.85 11.7 -142.3 11.85 -125.85 11.8 -113.05 11.55 -108.8 11.5 -108.55 11.85 -108.55 12.05 -107.5 Q11.3 -102.4 9.75 -98.05 8.55 -94.7 6.8 -91.8 5.05 -88.85 2.75 -86.4 L2.7 -86.35 2.5 -86.15 1.5 -85.2 0.95 -84.7 0.1 -83.85 -1.0 -82.75 -1.3 -82.5 -2.2 -81.6 -3.2 -80.45 Q-4.3 -79.0 -4.3 -77.75 L-3.6 -75.4 -3.0 -73.65 Q-1.55 -69.8 -0.8 -69.35 L-1.35 -68.6 -2.05 -68.35 Q-0.65 -64.8 2.15 -59.15 6.0 -51.4 7.1 -46.75 L7.3 -45.8 7.35 -45.7 8.55 -45.7 8.55 -45.6 8.75 -43.85 8.8 -43.4 9.0 -41.75 9.7 -35.3 10.3 -27.85 Q10.3 -26.45 9.15 -25.05 8.0 -23.6 8.0 -21.65 8.0 -21.05 8.85 -20.05 L9.95 -18.5 9.65 -17.7 9.45 -17.5 8.2 -17.25 Q7.05 -17.25 6.05 -18.5 L5.6 -19.2 Q4.7 -20.7 4.7 -21.3 L7.15 -40.35 7.15 -41.95 7.2 -43.25 7.2 -43.35 7.25 -44.3 7.3 -45.05 7.3 -45.5 Q7.2 -45.35 6.9 -45.25 L6.1 -45.2 5.85 -45.65 5.3 -46.75 0.7 -57.25 -3.7 -67.55 -4.25 -68.9 -5.15 -70.15 -6.25 -73.2 -6.5 -74.4 -7.1 -78.15 Q-7.1 -81.2 -5.65 -82.5 L-5.5 -82.65 -4.25 -83.25 -3.95 -83.35 -3.3 -83.6 -3.1 -83.7 -1.8 -84.1 -1.05 -84.35 -0.15 -84.75 0.95 -85.35 1.45 -85.75 2.25 -86.55 Q3.05 -87.5 3.65 -88.8 L4.4 -91.25 4.65 -92.3 4.85 -93.9 5.1 -95.6 Q5.65 -98.7 6.95 -102.45 7.75 -104.75 8.5 -106.2 L8.7 -106.6 9.25 -107.55 9.2 -108.1 M-20.9 -88.85 L-21.1 -90.1 -21.2 -93.55 -21.2 -173.45 Q-21.1 -177.95 -21.3 -186.55 L-21.55 -195.4 -21.5 -196.4 -21.2 -196.45 Q-20.35 -196.45 -20.35 -196.65 -19.25 -192.5 -18.6 -167.15 L-18.55 -164.6 -18.5 -162.75 Q-18.15 -146.7 -18.15 -133.65 -18.15 -105.1 -18.45 -89.5 L-18.45 -89.0 -18.45 -88.8 -18.45 -88.7 -17.5 -87.55 -16.9 -86.85 Q-14.8 -84.3 -14.8 -83.7 L-14.9 -82.0 -14.9 -81.75 -14.95 -81.55 -14.3 -81.25 -15.7 -80.25 -16.2 -80.0 -16.4 -80.4 -18.3 -80.55 -18.7 -80.5 -20.2 -80.0 Q-21.2 -79.4 -21.75 -78.1 L-22.1 -77.05 -22.45 -74.6 -22.45 -73.35 -21.95 -66.85 -21.85 -66.0 -21.05 -59.4 Q-19.65 -49.35 -19.65 -46.95 -19.65 -45.8 -20.75 -45.0 L-20.95 -44.85 Q-21.45 -44.55 -22.95 -43.8 L-23.2 -43.65 Q-26.8 -41.85 -26.8 -38.6 L-26.1 -35.05 Q-25.4 -32.4 -25.4 -31.55 L-25.45 -29.2 -24.9 -29.6 Q-24.3 -24.0 -22.6 -21.0 -21.2 -18.45 -21.2 -14.75 -21.2 -10.9 -22.7 -6.25 L-23.1 -5.0 -23.4 -4.1 -23.5 -3.7 -24.2 -1.8 Q-24.2 4.15 -22.45 11.7 -21.0 17.9 -20.75 24.15 L-20.7 26.9 Q-20.7 30.4 -21.75 33.25 L-22.0 34.0 -22.35 35.75 Q-22.8 38.25 -22.8 41.85 -22.8 49.65 -23.5 55.95 L-24.2 56.15 -25.25 43.5 -25.75 35.3 -25.75 34.7 -25.75 34.65 -25.75 34.45 -25.55 33.2 -24.95 30.65 Q-24.2 27.45 -24.2 26.55 L-24.4 21.65 -25.3 13.0 Q-26.45 4.2 -26.45 -0.3 L-25.5 -4.9 -25.4 -5.3 -25.05 -6.95 Q-23.65 -13.6 -23.65 -14.55 -23.65 -16.65 -25.3 -21.45 L-25.75 -22.75 -25.85 -21.15 -26.65 -5.5 -26.65 -5.45 -27.85 -5.3 -27.9 -5.7 -28.8 -23.25 -29.25 -38.2 Q-29.25 -41.6 -27.35 -43.95 L-25.75 -45.5 -24.9 -46.2 -23.35 -47.55 Q-22.25 -48.8 -22.25 -50.6 -22.25 -51.65 -23.75 -61.25 L-24.05 -63.45 -24.4 -65.7 -24.6 -67.0 -25.25 -73.1 -25.3 -76.65 -25.3 -76.95 -25.15 -78.3 Q-25.0 -79.8 -24.5 -80.8 -22.9 -84.25 -17.9 -82.75 L-19.35 -84.5 Q-20.2 -85.45 -20.55 -86.55 L-20.85 -88.4 -20.85 -88.6 -20.9 -88.85" fill="#65633e" fill-rule="evenodd" stroke="none"/>
      <path d="M28.15 -6.7 L28.95 -5.25 28.9 -5.1 28.1 -5.8 28.15 -6.7 M-42.75 69.7 L-42.75 68.45 -42.15 68.0 -42.25 68.25 -42.55 69.2 -42.55 69.3 -42.65 69.3 -42.75 69.7 M-38.75 65.5 L-34.65 62.5 -34.65 60.85 -34.6 60.85 -34.55 61.05 -33.9 62.75 -34.1 62.75 -34.75 62.7 -34.75 63.9 -34.95 64.5 -34.95 64.55 -36.55 64.9 -38.75 65.5 M-34.65 60.5 L-34.65 59.6 -34.6 60.05 -34.65 60.5 M-35.3 -24.25 L-35.5 -27.65 -35.3 -26.4 -35.1 -25.2 -35.3 -24.25 M-34.4 -46.9 L-34.4 -47.0 -34.3 -46.9 -34.4 -46.9 M-35.75 -50.1 L-35.85 -50.2 -35.8 -50.6 -35.75 -50.1 M-24.15 -83.7 L-23.75 -84.55 -22.45 -87.0 -21.9 -87.5 -22.35 -86.4 Q-23.0 -84.9 -24.15 -83.7 M-10.45 -92.35 L-9.1 -93.3 -7.75 -93.75 -7.4 -93.8 -7.3 -93.7 -10.45 -92.35 M-3.55 -97.55 L-3.55 -98.1 Q-1.75 -100.35 -1.3 -102.85 -1.35 -101.3 -2.25 -99.55 L-3.55 -97.55 M8.5 -106.2 Q7.75 -104.75 6.95 -102.45 5.65 -98.7 5.1 -95.6 L2.95 -93.65 Q-1.15 -89.85 -1.15 -88.15 L-0.65 -86.35 -0.15 -84.75 -1.05 -84.35 -3.85 -85.1 -4.55 -85.0 -4.55 -84.95 -14.9 -81.75 -14.9 -82.0 -14.8 -83.7 Q-14.8 -84.3 -16.9 -86.85 L-17.5 -87.55 -11.75 -90.15 Q-4.65 -93.5 -2.55 -95.1 L-3.45 -95.0 -1.8 -99.1 Q-0.6 -102.0 -0.6 -103.6 L4.15 -105.15 8.5 -106.2 M4.4 -91.25 L3.65 -88.8 2.75 -88.1 1.95 -87.3 1.0 -89.4 1.05 -89.5 Q2.85 -90.1 4.4 -91.25 M1.45 -85.75 L0.95 -85.35 0.75 -87.0 0.7 -87.55 0.75 -87.45 1.25 -86.3 1.1 -86.1 1.4 -85.9 1.45 -85.75 M-3.1 -83.7 L-3.3 -83.6 -3.85 -83.95 -3.95 -83.35 -4.25 -83.25 -4.0 -84.1 -3.1 -83.7 M-5.65 -82.5 Q-7.1 -81.2 -7.1 -78.15 L-6.5 -74.4 -6.75 -72.25 -6.15 -66.8 -5.55 -61.4 -5.1 -61.65 Q-4.6 -61.85 -4.3 -61.45 L-4.25 -63.9 Q-4.25 -64.55 -4.8 -68.05 L-5.15 -70.15 -4.25 -68.9 -3.7 -67.55 -2.75 -59.6 Q-1.45 -48.65 -1.45 -46.75 L5.3 -46.75 5.85 -45.65 4.45 -45.85 4.05 -45.8 Q3.25 -45.6 3.1 -44.7 L0.75 -44.3 -2.45 -43.65 -2.6 -43.25 -4.5 -42.6 -3.85 -45.05 Q-3.6 -46.35 -3.6 -48.55 L-4.0 -54.15 -4.3 -57.65 -4.95 -56.25 -5.25 -55.45 -4.9 -52.3 -4.55 -48.8 Q-4.55 -47.75 -5.1 -45.5 -5.65 -43.25 -5.65 -42.0 L-5.65 -41.85 Q-6.8 -40.9 -7.35 -39.45 L-7.85 -37.4 -8.5 -38.8 -9.35 -38.5 -8.5 -36.4 -8.55 -36.4 -8.5 -36.25 -8.5 -36.2 -8.55 -35.55 -8.8 -35.4 -8.85 -34.85 Q-9.05 -31.35 -7.9 -29.45 L-7.45 -28.8 -7.15 -29.0 -7.15 -28.35 -7.55 -27.85 -7.8 -26.85 -7.65 -26.3 -7.15 -26.25 -6.85 -26.45 Q-6.85 -27.9 -7.1 -28.4 L-6.85 -29.2 -6.6 -30.5 -6.7 -35.15 -6.75 -36.0 Q-7.15 -35.75 -7.6 -35.65 L-6.55 -38.1 -5.2 -41.05 -5.05 -41.1 -4.75 -41.85 -4.45 -42.4 -2.0 -42.5 -0.75 -42.5 -0.75 -42.8 3.5 -43.35 3.85 -43.0 4.25 -42.65 3.7 -42.45 4.3 -42.6 Q5.2 -41.95 6.45 -41.95 L6.7 -41.95 Q6.0 -40.95 5.15 -40.6 3.9 -40.05 -1.55 -39.5 L-4.4 -37.5 -4.5 -37.5 Q-5.65 -34.05 -6.0 -29.5 L-5.75 -27.2 -5.05 -20.85 -5.1 -20.85 -5.05 -20.8 -4.8 -17.55 -4.95 -15.75 -5.2 -14.1 -5.75 -13.95 Q-5.85 -10.6 -6.25 -7.05 L-6.4 -5.95 -6.4 -6.25 -6.05 -12.35 -5.65 -18.35 -5.65 -18.45 Q-5.65 -19.05 -6.2 -19.9 L-6.8 -21.0 -6.75 -21.55 -7.05 -21.6 -7.3 -25.1 -7.65 -25.1 -7.8 -22.0 -7.9 -19.05 -8.2 -16.05 Q-8.6 -12.45 -8.6 -9.5 L-8.5 -6.1 -9.9 -5.0 Q-10.45 -4.4 -10.45 -3.5 L-10.45 -3.35 -16.75 -4.4 -23.1 -5.0 -22.7 -6.25 Q-21.2 -10.9 -21.2 -14.75 -21.2 -18.45 -22.6 -21.0 -24.3 -24.0 -24.9 -29.6 L-25.45 -29.2 -25.4 -31.55 Q-25.4 -32.4 -26.1 -35.05 L-26.8 -38.6 Q-26.8 -41.85 -23.2 -43.65 L-22.95 -43.8 -21.9 -43.8 Q-21.1 -43.3 -19.85 -42.85 L-18.25 -42.4 -18.25 -42.35 -15.45 -41.9 -16.75 -31.55 Q-17.6 -24.45 -18.7 -20.0 L-18.2 -20.15 Q-17.35 -23.4 -15.75 -32.0 -14.15 -40.35 -14.15 -41.45 L-14.15 -41.75 -12.8 -41.65 -12.0 -41.55 -11.95 -43.2 -13.4 -43.4 -13.85 -43.4 -15.35 -43.6 -17.7 -43.95 -20.95 -44.85 -20.75 -45.0 Q-19.65 -45.8 -19.65 -46.95 -19.65 -49.35 -21.05 -59.4 L-21.85 -66.0 -21.45 -66.6 -21.95 -66.85 -22.45 -73.35 -22.45 -74.6 -22.1 -77.05 -21.75 -78.1 -19.5 -78.8 Q-7.25 -82.65 -6.05 -83.25 L-5.7 -82.9 -5.65 -82.5 M6.9 -45.25 Q7.2 -45.35 7.3 -45.5 L7.3 -45.05 6.9 -45.25 M7.25 -44.3 L7.2 -43.35 6.8 -43.35 6.9 -43.15 5.7 -42.8 5.4 -43.0 5.7 -43.15 5.35 -43.05 4.8 -43.4 4.25 -43.9 4.3 -44.6 6.35 -44.85 7.25 -44.3 M8.8 -43.4 L8.75 -43.85 8.8 -44.05 11.05 -44.4 11.8 -44.5 11.9 -43.55 10.4 -43.45 8.8 -43.4 M8.55 -45.6 L8.55 -45.7 7.35 -45.7 7.3 -45.8 7.1 -46.75 7.75 -46.8 13.8 -47.0 13.4 -46.6 Q12.85 -46.45 12.45 -46.1 L8.55 -45.6 M-3.6 -75.4 L-4.3 -77.75 Q-4.3 -79.0 -3.2 -80.45 L-3.1 -79.6 -3.6 -75.65 -3.6 -75.4 M-1.3 -82.5 L-1.0 -82.75 0.1 -82.25 0.25 -82.2 0.4 -81.8 -0.45 -82.15 -1.3 -82.5 M0.95 -84.7 L1.5 -85.2 1.05 -84.5 0.95 -84.45 0.95 -84.5 0.95 -84.7 M2.5 -86.15 L2.7 -86.35 2.75 -86.4 4.7 -87.35 Q6.95 -88.55 6.95 -89.3 L6.8 -91.8 Q8.55 -94.7 9.75 -98.05 12.15 -102.75 12.15 -107.0 L12.15 -107.25 12.35 -107.3 13.25 -107.6 13.25 -107.7 14.75 -108.55 18.75 -110.7 18.25 -109.7 18.25 -109.45 19.85 -110.25 20.75 -110.6 19.6 -106.5 17.25 -97.35 17.25 -97.2 17.15 -97.1 16.9 -96.25 Q15.8 -92.8 14.55 -90.15 L13.0 -88.1 11.75 -86.1 11.75 -85.7 11.25 -85.5 Q10.85 -85.25 10.75 -84.7 L10.75 -84.2 9.7 -84.0 8.15 -82.85 8.1 -82.8 7.75 -82.2 7.8 -82.7 7.75 -82.7 7.5 -82.7 7.35 -82.9 6.15 -82.15 4.95 -82.05 Q4.25 -82.05 1.6 -83.2 2.2 -83.35 2.45 -83.9 L2.6 -85.6 2.5 -86.15 M22.4 -46.85 L21.0 -46.85 19.8 -46.75 19.4 -46.75 18.2 -46.7 18.75 -47.2 18.75 -47.35 19.3 -47.45 21.8 -47.45 21.85 -47.3 21.9 -47.3 22.4 -46.9 22.4 -46.85 M16.65 -45.1 L18.45 -45.35 18.6 -44.75 15.9 -44.05 15.75 -44.2 16.65 -45.1 M19.2 -44.95 L19.1 -45.4 19.8 -45.5 20.5 -45.55 19.2 -44.95 M2.15 -81.4 L0.45 -81.8 0.6 -82.05 2.15 -81.4 M23.4 -6.7 L20.55 -8.35 Q17.35 -10.2 11.15 -13.25 L1.1 -18.3 1.95 -18.35 Q9.55 -16.15 18.7 -12.7 21.95 -11.5 24.3 -10.65 25.65 -11.1 28.55 -9.4 27.5 -9.15 27.05 -8.35 26.75 -7.85 26.75 -5.85 L26.85 -4.5 26.3 -4.75 26.25 -4.8 26.15 -4.85 25.35 -5.95 25.4 -5.95 25.3 -6.05 24.8 -6.7 24.7 -6.7 24.6 -6.7 23.4 -6.7 M-8.55 2.3 L-10.5 1.9 -8.35 3.5 -7.7 8.3 -7.9 8.8 -8.1 9.2 Q-8.65 10.4 -8.65 11.75 L-8.5 13.25 -7.9 13.9 -7.65 14.0 -7.65 14.4 -7.2 15.2 -7.15 15.35 -7.15 21.75 -7.4 25.6 -7.15 28.1 -7.15 33.5 -7.45 34.75 -7.15 34.95 -7.15 36.9 -7.4 37.45 -7.8 37.4 -7.85 38.0 -7.9 37.85 -8.25 37.2 -13.6 36.25 -22.0 34.0 -21.75 33.25 Q-20.7 30.4 -20.7 26.9 L-20.75 24.15 Q-21.0 17.9 -22.45 11.7 -24.2 4.15 -24.2 -1.8 L-23.5 -3.7 Q-19.3 0.6 -18.85 6.5 L-18.75 7.65 -18.5 0.45 Q-18.5 -1.8 -19.2 -2.55 L-21.1 -3.8 -16.95 -3.6 -14.45 -3.3 -14.25 -3.05 -13.75 -2.7 -10.25 -2.65 -10.2 -2.65 -9.2 -2.5 -8.65 -2.2 -8.85 -1.4 -8.85 -0.9 -8.7 -0.8 -8.35 -1.0 -7.9 -1.4 -7.8 -0.35 -8.7 1.45 -8.55 2.3 M14.65 34.15 L7.6 35.3 7.5 35.3 7.3 35.35 6.4 35.45 6.05 35.55 4.35 35.8 -2.05 36.9 -2.85 37.05 -3.35 36.6 -3.35 37.15 -3.5 37.2 -5.5 36.4 -5.55 36.35 -5.05 34.9 -4.95 34.15 -5.25 32.05 Q-6.15 30.45 -6.35 26.6 L-6.4 21.5 -6.35 17.75 -6.4 16.2 Q-5.35 17.2 -4.85 19.0 -4.35 20.75 -3.4 24.9 -2.05 28.55 1.4 30.65 5.85 33.4 14.65 34.05 L14.65 34.15 M-7.2 12.55 L-7.65 13.2 -7.8 13.1 -7.9 12.55 -7.9 12.15 -7.9 11.75 Q-7.9 11.15 -7.5 10.4 L-7.45 10.3 -7.2 12.55 M-22.35 35.75 L-17.85 36.5 -11.55 37.7 -7.9 38.7 -7.65 38.8 -7.55 38.9 -7.65 39.2 -7.15 39.95 -7.15 53.1 -6.1 53.35 -6.1 53.15 -5.85 53.1 -5.8 54.75 -6.95 54.5 -7.15 54.45 -7.15 58.9 -7.05 58.95 -6.9 59.1 -5.85 59.6 -5.85 61.05 -6.1 61.3 -6.1 60.9 -6.25 60.85 -6.6 60.55 -7.15 60.5 -7.15 70.9 -7.9 70.7 -7.95 70.7 -8.15 70.65 -19.65 67.45 -26.05 65.7 -27.4 65.3 -30.2 64.55 -31.5 65.05 Q-32.0 65.05 -32.4 64.55 L-32.25 64.4 -32.05 64.0 -33.2 59.95 -34.0 56.7 -33.7 49.8 -33.65 48.8 -33.5 48.9 -33.65 48.35 Q-33.55 45.15 -33.9 43.15 L-33.2 40.5 -33.2 36.3 -32.55 35.75 -30.95 35.5 -30.95 35.0 -27.55 35.15 -25.95 35.3 -25.75 35.3 -25.25 43.5 -24.2 56.15 -23.5 55.95 Q-22.8 49.65 -22.8 41.85 -22.8 38.25 -22.35 35.75 M-25.75 34.65 L-25.95 34.6 -27.55 34.5 -30.95 34.35 -30.9 33.05 -30.8 33.0 -27.55 34.0 -25.95 34.4 -25.75 34.45 -25.75 34.65 M-25.55 33.2 L-25.95 33.1 -27.6 32.7 -29.9 32.15 -30.9 31.9 -30.9 31.5 Q-32.45 31.15 -33.2 30.0 L-33.2 29.95 -33.25 29.85 -33.3 29.85 -33.35 29.8 -34.8 27.0 -34.85 27.05 -34.85 26.9 -34.6 21.1 -34.5 15.6 -34.5 14.75 -34.65 12.05 -34.7 11.15 -34.5 11.2 -34.4 10.8 -34.35 9.75 -34.3 9.55 -34.3 9.2 -34.15 8.3 -33.9 6.05 Q-33.9 5.3 -34.5 4.65 -35.1 4.05 -35.1 3.5 L-34.25 -2.55 -34.0 -3.75 -34.1 -4.05 -33.85 -4.8 -33.75 -5.1 -33.6 -6.0 -33.2 -5.6 -33.2 -6.1 -33.0 -6.0 -33.0 -5.35 -31.65 -5.65 Q-30.6 -5.6 -30.0 -5.15 L-27.6 -4.75 -27.35 -4.7 -25.5 -4.9 -26.45 -0.3 Q-26.45 4.2 -25.3 13.0 L-24.4 21.65 -24.2 26.55 Q-24.2 27.45 -24.95 30.65 L-25.55 33.2 M-25.4 -5.3 L-25.95 -5.4 -26.65 -5.5 -25.85 -21.15 -25.75 -22.75 -25.3 -21.45 Q-23.65 -16.65 -23.65 -14.55 -23.65 -13.6 -25.05 -6.95 L-25.4 -5.3 M-27.9 -5.7 L-30.3 -6.2 -30.85 -6.3 -30.85 -7.1 Q-32.15 -7.2 -33.05 -8.0 L-33.05 -7.85 -33.35 -8.25 -34.15 -9.35 -34.15 -9.6 -34.25 -9.55 -34.55 -10.6 -34.7 -11.8 -34.85 -11.8 -35.35 -11.9 -34.95 -17.0 -34.8 -16.8 -34.9 -18.0 -34.85 -20.75 -34.9 -22.1 -34.85 -22.1 Q-35.0 -22.55 -34.55 -23.85 L-34.45 -24.05 -34.0 -25.65 -34.1 -26.4 -34.55 -27.85 Q-35.1 -29.55 -35.1 -30.9 L-35.2 -36.45 Q-35.2 -38.45 -34.65 -40.1 -34.15 -41.75 -34.15 -43.45 L-34.15 -43.65 -33.95 -43.75 -33.8 -44.2 -33.85 -44.35 -33.85 -46.1 -33.6 -46.15 -33.45 -45.95 -33.1 -46.15 -33.0 -46.15 -33.0 -45.75 Q-32.4 -46.55 -31.6 -46.45 L-30.85 -46.1 -30.85 -45.9 -30.65 -45.75 -30.5 -45.75 -30.3 -45.4 -30.15 -45.1 -29.65 -45.2 -29.65 -45.35 -28.35 -44.9 -28.4 -44.55 -28.3 -43.95 -28.2 -44.1 -27.35 -43.95 Q-29.25 -41.6 -29.25 -38.2 L-28.8 -23.25 -27.9 -5.7 M-24.9 -46.2 L-26.6 -46.1 -27.8 -45.6 -29.1 -45.8 -29.85 -46.0 Q-28.85 -47.75 -26.9 -53.45 -24.55 -60.6 -24.45 -63.1 L-24.05 -63.45 -23.75 -61.25 Q-22.25 -51.65 -22.25 -50.6 -22.25 -48.8 -23.35 -47.55 L-24.9 -46.2 M-33.45 -54.6 L-33.7 -54.0 -33.7 -54.2 -33.45 -54.6 M-34.1 -58.0 L-34.4 -60.7 -34.1 -62.4 -34.1 -62.5 -33.95 -63.05 -33.3 -65.3 -32.9 -66.5 -32.9 -66.45 -32.35 -68.55 -32.85 -70.6 -32.85 -70.55 -33.3 -71.35 -33.4 -71.55 -33.1 -71.55 -33.2 -71.9 -33.45 -72.7 -33.25 -73.3 -32.95 -73.6 -31.95 -73.25 -31.95 -73.7 -32.3 -74.25 -32.05 -74.55 -25.3 -76.95 -25.3 -76.65 -25.25 -73.1 -24.6 -67.0 Q-26.9 -66.4 -30.0 -63.35 -32.95 -60.5 -34.1 -58.0 M-25.15 -78.3 L-30.25 -76.5 -29.8 -77.0 Q-27.0 -80.05 -25.35 -80.95 -22.7 -82.4 -21.35 -85.15 L-20.55 -86.55 Q-20.2 -85.45 -19.35 -84.5 L-17.9 -82.75 Q-22.9 -84.25 -24.5 -80.8 -25.0 -79.8 -25.15 -78.3 M13.35 -11.85 Q18.6 -9.35 22.55 -6.75 L15.75 -10.5 13.35 -11.85 M28.25 17.05 L28.25 17.35 28.2 18.05 28.0 18.35 27.5 19.4 27.25 19.6 26.95 19.8 27.15 20.25 26.9 21.25 26.55 21.4 24.3 19.85 24.25 19.8 24.1 19.75 18.05 16.55 16.8 16.0 14.6 15.05 5.95 11.2 Q0.3 8.6 -4.1 5.85 L-6.0 3.85 -2.6 4.8 17.75 12.35 Q24.2 15.1 28.25 17.05 M28.55 45.15 L28.35 45.4 28.25 45.3 28.55 45.15 M13.35 60.25 Q13.1 61.35 13.0 63.7 L12.7 62.95 12.7 60.25 13.35 60.25 M12.55 66.45 L12.3 67.0 11.9 67.2 9.0 67.15 Q7.7 67.75 7.2 68.4 L5.4 68.8 4.75 69.0 2.15 69.95 1.65 70.1 -0.15 70.05 -2.0 70.25 Q-2.3 70.55 -2.95 70.6 -4.25 69.85 -5.2 68.45 L-5.65 67.7 -5.65 65.65 -5.0 64.2 Q-4.4 63.05 -4.55 60.45 L-4.75 58.2 Q-4.05 58.8 -2.5 60.9 -0.85 63.15 0.45 64.15 2.45 65.7 5.0 65.7 L9.35 66.0 12.55 66.45 M0.4 37.8 L-0.4 38.05 -0.95 38.15 -1.5 38.05 -0.6 37.9 0.4 37.8 M-3.35 38.35 L-3.35 38.7 -3.75 38.9 -4.4 39.25 -4.6 38.7 -3.35 38.35 M-5.55 38.9 L-5.55 39.25 -5.5 41.85 -5.65 40.75 -5.65 38.9 -5.55 38.9 M26.95 52.55 L24.85 50.65 Q17.9 44.8 11.6 43.2 L12.7 43.2 18.15 44.75 27.3 46.3 Q27.55 45.85 28.05 45.7 L28.1 45.7 Q27.7 46.3 27.55 47.15 27.35 47.9 27.35 50.65 L27.4 52.55 26.95 52.55 M15.45 65.65 L15.1 65.8 13.55 66.25 13.45 65.85 13.6 65.15 13.75 62.7 Q13.7 61.25 13.8 60.85 L14.0 60.85 14.65 62.4 14.7 62.55 Q14.7 64.15 15.15 65.1 L15.45 65.65 M6.45 69.6 L6.25 69.7 4.25 70.05 6.45 69.6 M-5.4 72.1 L-5.45 72.2 -5.1 73.15 -5.05 74.9 -4.7 75.5 -4.0 75.0 -3.85 74.85 -3.55 75.05 -2.8 75.75 -4.55 75.8 -4.9 75.9 -6.1 75.85 -6.1 72.3 -6.0 72.35 -6.0 72.1 -5.4 72.1 M25.9 82.0 L28.1 82.25 28.9 81.65 Q32.9 78.85 37.35 78.85 L37.55 79.3 37.75 79.7 Q35.45 79.75 33.6 80.65 L29.25 83.3 Q22.55 87.4 10.2 87.7 9.7 87.2 7.3 86.3 4.7 85.3 3.35 85.3 L2.2 85.5 2.1 85.65 Q-2.85 84.35 -4.45 84.35 L-4.6 84.35 -4.8 84.0 -4.9 83.95 Q-5.35 83.45 -5.85 83.25 L-5.85 83.2 Q-5.85 82.65 -5.95 82.6 L-6.1 82.6 -6.1 78.05 -7.15 77.9 -7.2 83.3 Q-7.5 85.25 -10.45 85.55 L-15.0 85.95 -15.5 85.05 Q-16.15 84.0 -17.4 83.35 L-23.85 83.2 -27.35 83.2 -27.85 83.55 -27.9 83.65 Q-31.5 80.95 -35.45 80.9 -35.25 79.75 -34.5 78.95 L-34.1 79.65 -33.7 80.35 -33.75 80.05 -33.7 79.5 -34.15 78.55 -34.1 78.55 -33.6 78.2 -33.55 76.85 -34.7 77.45 -34.1 75.8 -34.1 75.65 -33.55 76.6 -33.4 74.4 -33.4 73.95 -33.9 71.25 Q-33.9 70.65 -33.1 69.95 L-32.65 69.5 -32.6 70.2 -31.05 70.65 -31.05 70.0 -27.4 71.2 -26.05 71.65 -25.45 71.8 Q-13.5 75.65 -7.9 76.3 L-7.5 76.35 -7.25 76.6 -7.15 76.6 -7.15 77.35 -6.1 77.7 -6.1 76.3 -3.85 76.6 -3.15 76.95 -1.95 76.85 -1.8 77.1 0.3 80.4 Q1.05 81.55 3.45 82.65 4.75 83.25 5.15 84.35 L8.65 84.95 9.9 85.55 20.0 84.4 Q20.8 83.85 22.9 83.25 L23.9 83.0 24.1 82.9 Q25.5 82.05 25.85 82.0 L25.9 82.0 M14.35 107.2 L12.05 103.65 12.05 103.6 12.8 104.0 10.7 101.6 9.1 99.2 Q7.8 93.85 6.95 88.45 L7.6 88.7 7.4 88.1 7.75 88.2 Q8.2 92.45 12.05 98.9 L15.6 104.9 Q17.1 107.6 17.85 109.8 L16.2 110.35 15.9 109.8 Q15.65 107.95 14.3 105.9 L14.25 105.85 14.35 107.2 M-2.55 86.1 L-2.8 87.0 -3.55 85.95 -2.55 86.1 M-5.25 99.2 L-5.65 107.05 -5.75 105.85 -5.55 102.55 -5.4 99.45 -5.25 99.2 M-4.9 -95.25 L-4.75 -94.65 -5.4 -94.45 -4.9 -95.25 M-18.45 -88.8 L-18.45 -89.0 -17.8 -89.1 -18.45 -88.8 M-33.7 -70.8 Q-33.2 -70.0 -33.2 -69.65 L-33.5 -68.7 -33.7 -70.8 M-30.85 -47.05 L-30.9 -47.05 -30.9 -47.25 -31.15 -47.2 Q-32.3 -47.2 -33.0 -47.65 L-33.0 -47.4 -31.0 -47.05 -32.95 -46.9 -33.25 -47.85 -33.8 -48.5 -34.0 -48.95 -34.4 -49.35 -34.15 -49.8 -34.1 -49.75 Q-33.5 -51.45 -32.95 -54.45 L-32.3 -55.95 -30.65 -57.9 -29.6 -58.65 Q-28.15 -59.6 -25.8 -61.8 L-25.85 -61.45 Q-26.75 -60.75 -28.75 -55.3 -30.8 -49.7 -30.85 -47.05 M-26.2 -59.4 L-27.05 -54.6 Q-28.15 -49.6 -29.95 -46.05 -27.7 -51.75 -26.2 -59.4 M-34.8 -59.25 L-34.7 -58.75 Q-34.7 -56.75 -35.25 -53.85 L-34.85 -59.0 -34.85 -59.05 -34.8 -59.05 -34.8 -59.25 M-3.55 -43.35 L-2.95 -43.3 -3.45 -44.85 -3.6 -43.35 -3.55 -43.35 M-6.25 -41.35 L-6.05 -41.65 -6.05 -42.05 -6.25 -41.35 M-10.65 -42.3 L-10.8 -42.2 -10.7 -42.0 -10.65 -42.3 M-6.05 -28.95 Q-6.05 -27.3 -6.55 -26.25 L-7.15 -24.5 -7.15 -23.9 -7.1 -23.45 -7.0 -22.7 -6.8 -22.55 Q-5.75 -23.45 -5.75 -25.9 L-6.05 -28.95 M-32.75 -46.15 L-32.9 -46.2 -32.8 -46.2 -32.75 -46.15 M-33.05 -24.25 L-33.0 -24.55 -33.05 -25.65 -33.05 -24.25 M-7.5 -13.05 L-7.15 -14.4 -7.15 -9.3 -7.5 -13.05 M-5.65 -19.45 L-5.65 -21.5 -6.3 -21.45 -5.65 -19.45 M-7.3 -3.4 L-7.35 -3.4 -7.9 -3.5 -8.1 -3.55 -8.65 -3.75 -9.3 -3.6 -8.8 -4.55 -8.35 -5.45 -7.9 -4.3 -7.3 -3.4 M-19.25 18.25 L-18.7 18.1 -18.85 13.0 -19.25 18.25 M-7.15 14.05 L-7.15 14.5 -7.3 14.05 -7.15 14.05 M-32.8 39.35 L-32.45 38.35 -32.2 37.8 -32.85 37.95 -32.85 38.0 -32.8 39.35 M-12.5 46.55 L-12.8 46.65 Q-13.75 46.9 -14.35 47.5 -15.0 48.2 -15.0 49.25 L-14.7 51.9 -14.15 54.65 -13.75 53.95 Q-13.75 51.95 -13.0 49.95 -12.25 48.0 -12.25 47.5 -12.25 46.65 -12.5 46.55 M-38.4 80.6 L-40.75 79.85 -41.2 79.25 Q-42.3 77.75 -42.3 76.0 -42.35 73.75 -42.0 71.6 -41.3 67.35 -39.3 67.35 L-38.4 67.4 -35.45 68.5 -36.15 68.5 -36.45 72.7 Q-36.45 73.5 -38.4 80.6 M-35.45 68.5 L-34.75 68.75 -34.75 69.15 -34.4 69.2 -34.55 69.5 -34.7 71.55 -34.7 72.1 -35.45 68.5 M-48.4 91.0 L-48.7 86.8 -47.4 84.9 Q-45.75 84.15 -43.8 82.9 L-41.2 81.35 -41.65 82.05 -40.1 81.5 -40.1 81.3 -40.1 81.0 -38.7 81.7 -39.1 83.15 -41.8 92.6 -41.35 95.6 -41.2 97.15 -40.85 98.75 -40.55 99.35 -40.15 101.2 -38.25 108.45 -39.85 108.1 Q-44.95 94.7 -46.4 86.1 L-46.8 86.1 -46.9 86.75 -46.95 88.05 -46.95 88.2 -47.35 86.75 -48.35 86.75 -48.35 89.05 Q-47.8 91.6 -46.55 100.75 -45.65 105.1 -44.25 107.05 L-47.3 106.15 -47.7 105.65 -47.6 104.85 -47.5 102.7 -47.85 97.6 -48.35 91.55 -48.4 91.0 M-36.65 82.55 L-35.25 83.0 -35.05 82.35 Q-29.55 83.15 -27.2 85.8 L-25.15 88.55 Q-23.95 90.3 -22.45 91.25 L-19.45 91.25 -16.95 89.9 -14.75 88.25 -14.8 87.3 -14.8 87.15 -14.6 86.9 Q-9.45 86.8 -7.35 85.6 L-7.35 85.65 -6.9 88.15 -6.5 90.6 Q-6.5 92.2 -6.95 95.7 -7.05 97.8 -6.55 99.25 -7.2 100.5 -7.25 103.1 L-7.0 107.55 Q-7.0 108.75 -6.4 111.6 L-6.1 113.1 -6.4 116.2 -7.75 117.05 -8.5 117.45 -8.6 117.55 -8.65 117.3 -8.7 117.1 -13.0 116.05 -18.95 114.05 -19.4 114.25 -26.25 111.95 -30.45 110.45 -30.5 111.05 -31.15 110.8 -33.45 109.65 -34.5 109.6 -36.75 108.8 -37.25 106.75 Q-37.35 104.9 -37.8 102.15 L-38.25 98.75 -38.35 97.25 -38.35 97.15 -38.45 96.55 -38.8 96.25 Q-39.55 95.75 -40.5 94.0 L-39.5 90.55 -39.4 90.4 -37.9 90.25 Q-37.9 89.3 -37.0 87.95 L-37.1 87.95 Q-37.15 86.8 -37.35 86.25 -37.5 85.65 -35.7 84.35 L-34.55 83.6 -35.1 83.3 -36.4 84.0 -37.5 84.8 -37.35 84.4 -36.65 82.55 M-38.05 86.2 L-37.9 87.25 -37.9 87.4 -37.85 87.95 -38.05 87.95 -39.0 89.05 -38.05 86.2 M-40.5 94.15 Q-39.65 95.4 -39.1 97.15 L-38.75 98.75 -38.5 100.4 -38.2 103.85 -38.7 102.25 Q-40.65 96.55 -40.65 95.05 L-40.5 94.15 M-5.1 71.0 L-5.1 71.1 -6.0 71.1 -6.0 70.6 -6.05 69.7 -5.1 71.0 M-7.9 71.75 L-7.8 71.75 -7.15 71.85 -7.15 75.6 -7.75 75.25 -7.85 75.15 -7.9 75.1 -25.45 70.45 -26.05 70.3 -27.4 69.9 -29.2 69.4 -30.95 69.55 Q-32.65 69.55 -33.45 68.6 L-33.6 68.6 -34.7 68.4 -36.3 67.8 -36.05 67.6 -37.4 67.3 -37.35 67.25 -38.5 66.2 -37.45 66.25 -36.45 65.95 -35.4 65.65 -35.4 65.6 Q-34.7 64.1 -33.1 65.05 L-32.95 65.1 -31.1 65.45 -30.9 65.55 -27.4 66.4 -26.05 66.8 -18.05 68.95 -8.0 71.7 -7.9 71.75 M-31.0 60.45 L-31.0 60.05 -30.15 59.8 -30.55 59.05 -31.45 60.45 -31.0 60.45 M-21.85 89.85 L-21.9 89.85 -23.4 88.3 Q-25.05 86.2 -26.4 84.95 L-26.9 84.5 -18.05 84.5 -19.6 85.55 Q-21.85 87.65 -21.85 89.0 L-21.85 89.85 M-17.8 84.5 L-17.7 84.5 -17.6 84.65 -17.8 84.5 M-17.55 84.65 L-16.8 85.6 Q-17.4 85.2 -17.4 85.5 -17.4 84.9 -17.55 84.65 M-16.0 86.35 L-15.65 86.7 -15.7 87.0 -16.0 86.35 M-15.85 87.45 L-16.25 88.05 Q-16.95 88.95 -18.35 89.4 L-17.2 88.45 -15.85 87.45 M-6.05 85.8 L-6.15 84.45 -6.1 84.35 Q-5.9 84.6 -5.85 85.05 L-5.85 85.9 -6.05 85.8 M-4.15 89.5 Q-3.8 90.45 -3.8 91.05 -3.8 92.3 -4.45 94.2 L-5.85 98.3 -5.85 93.85 Q-5.55 92.6 -5.4 90.8 L-5.3 87.65 -5.3 87.6 Q-4.55 88.3 -4.15 89.5" fill="#8d7853" fill-rule="evenodd" stroke="none"/>
      <path d="M8.7 -106.6 L8.5 -106.2 4.15 -105.15 8.7 -106.6 M19.85 -110.25 L18.25 -109.45 18.25 -109.7 19.85 -110.25 M14.75 -108.55 L13.25 -107.7 13.25 -107.6 12.35 -107.3 12.15 -107.25 12.15 -107.7 14.75 -108.55 M26.6 -98.25 L27.0 -98.25 27.4 -96.15 26.6 -98.25 M-33.45 -72.7 L-33.55 -73.0 -33.25 -73.3 -33.45 -72.7" fill="#a1895f" fill-rule="evenodd" stroke="none"/>
      <path d="M11.55 -108.8 L21.1 -111.45 21.5 -112.15 22.75 -112.0 Q23.0 -110.0 23.9 -107.3 L24.35 -107.8 Q25.3 -106.45 26.1 -103.65 L27.2 -99.35 Q29.45 -94.3 29.9 -92.15 L29.9 -70.8 29.9 -61.05 29.9 -60.9 30.65 -57.4 30.9 -55.2 31.6 -55.2 Q31.8 -52.25 31.6 -50.8 L31.4 -49.6 31.4 -47.7 30.2 -47.45 Q29.6 -46.85 28.75 -46.55 L28.25 -46.4 28.1 -46.35 28.35 -46.15 29.3 -45.75 29.3 -45.85 29.3 -46.15 31.4 -46.75 31.45 -45.5 31.45 -44.2 31.45 -37.35 31.6 -34.1 31.6 -33.2 Q31.2 -32.6 31.2 -31.55 31.1 -30.8 31.35 -30.1 L31.5 -29.7 31.5 -19.2 31.75 -17.65 32.15 -14.05 Q32.15 -10.9 31.85 -9.8 L31.6 -8.85 31.65 -8.55 31.55 -8.55 31.55 -7.3 30.05 -8.4 Q28.85 -8.2 28.4 -7.4 L28.15 -6.7 28.1 -5.8 28.9 -5.1 29.0 -5.05 Q30.1 -4.3 30.8 -2.45 L30.45 -1.6 Q30.85 -1.35 31.2 -1.2 L31.2 -0.15 31.35 3.05 31.45 3.7 31.45 4.6 31.55 4.6 31.55 5.8 31.5 5.95 Q31.2 6.65 31.2 7.2 L31.2 8.75 31.55 9.6 31.55 12.45 31.8 12.45 31.85 12.95 31.8 13.0 31.75 13.0 31.55 13.15 31.55 13.4 Q31.2 14.15 31.2 15.25 L31.1 16.05 32.05 16.15 32.3 16.55 31.7 17.25 32.05 17.65 31.9 17.7 30.95 18.1 29.55 19.6 Q28.1 21.25 28.1 22.45 L28.15 22.75 29.35 24.05 30.65 26.65 32.35 29.7 32.45 30.15 32.45 30.35 Q32.3 30.55 31.55 30.55 L31.55 32.8 Q31.25 32.9 31.0 33.2 30.55 33.65 30.45 34.7 30.35 35.9 30.4 37.9 L30.45 40.35 30.55 41.85 30.7 44.85 30.85 45.0 30.8 45.95 30.85 46.65 30.85 46.8 30.65 46.6 29.75 48.25 Q28.65 49.55 28.65 50.7 28.65 52.2 29.2 53.25 L30.35 55.7 31.0 55.95 30.9 57.3 Q31.7 58.8 31.75 60.0 L31.75 60.15 31.65 61.35 31.35 61.95 31.55 62.35 31.55 62.8 31.55 63.5 31.65 63.45 31.85 63.55 32.0 63.55 32.1 63.8 32.15 63.8 34.25 64.15 36.25 64.6 Q38.4 65.2 39.05 65.9 39.65 66.7 40.05 68.1 L40.35 69.75 40.7 73.4 40.75 74.3 40.9 77.45 40.45 79.15 40.1 80.45 40.05 80.55 40.15 80.55 41.05 80.9 42.1 81.4 46.0 83.55 46.0 83.65 45.9 83.8 45.8 83.9 45.75 83.95 45.8 83.95 45.95 83.9 46.1 83.85 46.55 85.45 46.25 85.5 46.35 86.6 46.45 87.95 47.05 87.95 47.05 88.5 47.15 90.35 46.5 90.35 46.5 92.1 46.35 95.7 46.25 97.15 46.2 98.1 46.45 98.7 47.1 99.35 Q47.7 100.5 47.7 101.8 L47.7 101.85 Q47.7 102.6 46.9 103.4 45.85 104.35 43.5 105.3 L42.65 105.6 42.8 106.5 41.65 106.9 41.7 106.75 41.75 106.45 38.7 107.25 38.35 107.0 33.2 108.4 31.7 108.8 30.45 107.75 23.85 110.6 23.75 110.8 22.7 111.05 21.3 111.35 21.3 111.4 20.4 111.65 Q15.4 112.95 11.85 114.2 L11.85 114.3 Q11.85 115.6 13.95 117.05 L20.05 117.05 16.55 117.25 Q13.1 117.25 11.7 116.55 10.95 116.15 10.95 115.75 10.95 115.25 11.1 115.15 L6.5 116.1 2.5 116.8 2.1 116.8 2.1 116.95 Q2.1 118.25 1.7 118.7 1.25 119.15 0.3 119.4 L-3.1 119.75 -5.6 119.5 -7.8 119.2 -8.05 119.35 -7.9 119.7 -8.4 119.6 -8.95 120.0 -9.5 119.7 -9.6 119.35 -11.95 118.75 -12.85 118.5 -15.75 117.65 -22.45 115.45 -25.65 114.3 -32.55 111.7 -39.25 110.15 -39.35 110.1 -39.55 110.25 -39.7 110.05 Q-45.45 108.55 -48.2 107.15 L-49.15 107.3 -49.2 106.6 Q-50.5 105.8 -50.75 105.0 L-49.3 105.55 -49.45 98.95 -49.45 97.95 -49.65 98.05 -49.65 97.15 -49.65 96.45 -49.6 92.7 Q-49.3 91.85 -49.3 91.25 L-49.4 88.5 -49.6 87.95 -49.55 87.95 -49.55 87.9 -49.5 87.9 -49.5 87.4 -49.15 84.8 -48.65 84.4 -49.55 83.75 -48.5 83.1 -47.8 83.8 -45.45 82.3 Q-43.1 81.0 -41.55 80.5 L-42.0 79.75 -42.45 79.25 -42.2 79.35 -42.8 78.2 Q-43.4 77.15 -43.4 76.1 -43.35 72.9 -42.8 70.4 L-42.95 70.4 -42.75 69.7 -42.65 69.3 -42.55 69.3 -42.55 69.2 -42.25 68.25 -42.15 68.0 -41.5 66.75 Q-40.7 65.5 -39.6 65.7 L-38.75 65.5 -36.55 64.9 -34.95 64.55 -34.95 64.5 -34.75 63.9 -34.75 62.7 -34.1 62.75 -33.9 62.75 -34.55 61.05 -34.6 60.85 -34.65 60.85 -34.75 60.85 -34.65 60.5 -34.6 60.05 -34.65 59.6 Q-34.75 58.95 -35.3 58.0 L-35.7 57.3 -35.7 57.15 -35.2 51.2 -35.0 49.85 -35.0 49.15 -34.8 46.6 -34.8 35.3 -34.5 35.35 -34.5 35.2 -34.45 34.95 -34.85 35.05 Q-34.35 34.4 -32.85 33.45 L-32.85 32.6 Q-35.4 32.0 -35.4 29.05 L-35.35 28.2 -35.5 26.0 -35.4 25.0 Q-35.3 24.4 -35.5 23.85 L-35.6 23.65 -35.7 21.1 -35.75 15.6 -35.85 13.85 -35.9 11.65 -35.65 9.55 -35.15 8.75 Q-34.5 7.5 -34.5 6.8 -34.5 6.35 -35.65 5.55 L-35.75 5.45 Q-36.35 4.6 -36.35 3.45 L-36.1 -1.65 -35.35 -5.45 -34.75 -6.9 -35.2 -7.2 -34.8 -7.2 -34.8 -7.55 Q-35.45 -8.35 -35.7 -9.25 L-35.9 -10.35 -36.1 -10.55 -36.15 -11.2 -36.4 -17.75 Q-36.4 -20.55 -35.9 -22.45 L-35.9 -22.75 -35.5 -23.9 -35.4 -24.05 -35.3 -24.25 -35.1 -25.2 -35.3 -26.4 -35.5 -27.65 -35.85 -29.95 -35.8 -30.6 Q-35.8 -31.25 -36.15 -31.95 L-36.2 -32.45 -36.3 -33.45 -36.1 -38.25 Q-35.75 -39.7 -35.75 -41.7 L-35.8 -44.85 -35.8 -44.95 -35.65 -45.45 -35.4 -45.8 -35.45 -46.35 -35.45 -46.5 -35.4 -46.65 -35.25 -46.9 -35.2 -45.95 -35.15 -46.0 -34.85 -46.7 -34.75 -46.9 -34.4 -46.9 -34.3 -46.9 -34.4 -47.0 -35.0 -47.7 -35.0 -48.05 Q-35.0 -48.55 -35.75 -49.3 L-35.75 -49.35 -35.75 -49.95 -35.75 -50.1 -35.8 -50.6 -35.85 -50.65 -35.9 -54.05 -35.85 -55.85 -35.8 -57.6 -35.65 -59.0 -35.85 -59.0 -35.8 -60.0 -35.8 -60.2 -35.35 -60.25 -35.25 -60.45 -35.3 -60.8 -35.05 -62.55 -34.8 -64.3 -34.3 -66.5 -34.0 -67.35 -33.5 -68.7 -33.2 -69.65 Q-33.2 -70.0 -33.7 -70.8 L-33.85 -71.0 -34.1 -71.35 -33.75 -71.75 -33.95 -73.05 Q-34.2 -73.15 -34.25 -73.2 L-34.35 -73.9 -34.5 -74.1 -34.65 -74.1 -35.35 -75.3 -35.35 -75.35 -35.05 -75.3 -35.1 -75.35 -35.3 -75.55 -35.3 -76.1 -34.4 -75.3 -34.4 -75.15 -34.3 -75.15 Q-34.0 -76.6 -32.75 -77.8 L-26.35 -82.05 -24.15 -83.7 Q-23.0 -84.9 -22.35 -86.4 L-21.9 -87.5 -21.75 -87.85 -21.6 -88.15 -20.9 -88.85 -20.85 -88.6 -20.85 -88.4 -20.55 -86.55 -21.35 -85.15 Q-22.7 -82.4 -25.35 -80.95 -27.0 -80.05 -29.8 -77.0 L-30.25 -76.5 -25.15 -78.3 -25.3 -76.95 -32.05 -74.55 -32.3 -74.25 -32.95 -73.6 -33.25 -73.3 -33.55 -73.0 -33.45 -72.7 -33.2 -71.9 -33.1 -71.55 -33.4 -71.55 -33.3 -71.35 -32.85 -70.55 -32.85 -70.6 -32.35 -68.55 -32.9 -66.45 -32.9 -66.5 -33.3 -65.3 -33.95 -63.05 -34.1 -62.5 -34.1 -62.4 -34.4 -60.7 -34.1 -58.0 Q-33.75 -56.1 -33.75 -55.1 L-33.7 -54.2 -33.7 -54.0 -33.45 -54.6 Q-31.95 -57.65 -28.35 -61.55 L-24.4 -65.7 -24.05 -63.45 -24.45 -63.1 Q-24.55 -60.6 -26.9 -53.45 -28.85 -47.75 -29.85 -46.0 L-29.1 -45.8 -27.8 -45.6 -26.6 -46.1 -24.9 -46.2 -25.75 -45.5 -27.35 -43.95 -28.2 -44.1 -28.3 -43.95 -28.4 -44.55 -28.35 -44.9 -29.65 -45.35 -29.65 -45.2 -30.15 -45.1 -30.3 -45.4 -30.5 -45.75 -30.85 -46.1 -31.6 -46.45 Q-32.4 -46.55 -33.0 -45.75 L-33.0 -46.15 -33.1 -46.15 -33.45 -45.95 -33.6 -46.15 -33.85 -46.1 -33.85 -44.35 -33.8 -44.2 -33.95 -43.75 -34.15 -43.65 -34.15 -43.45 Q-34.15 -41.75 -34.65 -40.1 -35.2 -38.45 -35.2 -36.45 L-35.1 -30.9 Q-35.1 -29.55 -34.55 -27.85 L-34.1 -26.4 -34.0 -25.65 -34.45 -24.05 -34.55 -23.85 Q-35.0 -22.55 -34.85 -22.1 L-34.9 -22.1 -34.85 -20.75 -34.9 -18.0 -34.95 -17.0 -35.35 -11.9 -34.85 -11.8 -34.7 -11.8 -34.55 -10.6 -34.25 -9.55 -34.15 -9.35 -33.35 -8.25 -33.05 -7.85 -33.05 -8.0 Q-32.15 -7.2 -30.85 -7.1 L-30.85 -6.3 -30.3 -6.2 -27.9 -5.7 -27.85 -5.3 -26.65 -5.45 -26.65 -5.5 -25.95 -5.4 -25.4 -5.3 -25.5 -4.9 -27.35 -4.7 -27.6 -4.75 -30.0 -5.15 Q-30.6 -5.6 -31.65 -5.65 L-33.0 -5.35 -33.0 -6.0 -33.2 -6.1 -33.2 -5.6 -33.6 -6.0 -33.75 -5.1 -33.85 -4.8 -34.1 -4.05 -34.0 -3.75 -34.25 -2.55 -35.1 3.5 Q-35.1 4.05 -34.5 4.65 -33.9 5.3 -33.9 6.05 L-34.15 8.3 -34.3 9.2 -34.35 9.75 -34.4 10.8 -34.5 11.2 -34.7 11.15 -34.65 12.05 -34.5 14.75 -34.5 15.6 -34.6 21.1 -34.85 26.9 -34.9 27.05 -34.85 27.05 -34.8 27.0 -33.35 29.8 -33.3 29.85 -33.25 29.85 -33.2 29.95 -33.2 30.0 Q-32.45 31.15 -30.9 31.5 L-30.9 31.9 -29.9 32.15 -27.6 32.7 -25.95 33.1 -25.55 33.2 -25.75 34.45 -25.95 34.4 -27.55 34.0 -30.8 33.0 -30.9 33.05 -30.95 34.35 -27.55 34.5 -25.95 34.6 -25.75 34.65 -25.75 34.7 -25.75 35.3 -25.95 35.3 -27.55 35.15 -30.95 35.0 -30.95 35.5 -32.55 35.75 -33.2 36.3 -33.2 40.5 -33.9 43.15 Q-33.55 45.15 -33.65 48.35 L-33.5 48.9 -33.65 48.8 -33.7 49.8 -34.0 56.7 -33.2 59.95 -32.05 64.0 -32.25 64.4 -32.4 64.55 Q-32.0 65.05 -31.5 65.05 L-30.2 64.55 -27.4 65.3 -26.05 65.7 -19.65 67.45 -8.15 70.65 -7.95 70.7 -7.9 70.7 -7.15 70.9 -7.15 60.5 -6.6 60.55 -6.25 60.85 -6.1 60.9 -6.1 61.3 -5.85 61.05 -5.85 59.6 -6.9 59.1 -7.05 58.95 -7.15 58.9 -7.15 54.45 -6.95 54.5 -5.8 54.75 -5.85 53.1 -6.1 53.15 -6.1 53.35 -7.15 53.1 -7.15 39.95 -7.65 39.2 -7.55 38.9 -7.65 38.8 -7.9 38.7 -11.55 37.7 -17.85 36.5 -22.35 35.75 -22.0 34.0 -13.6 36.25 -8.25 37.2 -7.9 37.85 -7.85 38.0 -7.8 37.4 -7.4 37.45 -7.15 36.9 -7.15 34.95 -7.45 34.75 -7.15 33.5 -7.15 28.1 -7.4 25.6 -7.15 21.75 -7.15 15.35 -7.2 15.2 -7.65 14.4 -7.65 14.0 -7.9 13.9 -8.5 13.25 -8.65 11.75 Q-8.65 10.4 -8.1 9.2 L-7.9 8.8 -7.7 8.3 -7.5 7.2 -7.55 4.75 -7.1 9.15 -7.0 9.85 -7.0 10.05 -7.15 9.9 -7.15 9.2 -7.45 10.3 -7.5 10.4 Q-7.9 11.15 -7.9 11.75 L-7.9 12.15 -7.9 12.55 -7.8 13.1 -7.65 13.2 -7.2 12.55 -7.15 12.4 -7.15 11.0 -6.9 11.1 -6.9 11.0 -6.4 16.2 -6.35 17.75 -6.4 21.5 -6.35 26.6 Q-6.15 30.45 -5.25 32.05 L-4.95 34.15 -5.05 34.9 -5.55 36.35 -5.5 36.4 -3.5 37.2 -3.35 37.15 -2.85 37.05 -2.05 36.9 4.35 35.8 6.05 35.55 7.3 35.35 7.5 35.3 7.6 35.3 14.65 34.15 18.1 33.65 19.1 33.45 19.8 33.4 20.9 33.2 21.5 33.1 21.9 33.05 25.1 32.2 25.35 32.15 27.15 31.5 29.05 31.1 29.4 31.15 29.3 29.95 29.3 29.55 29.45 29.25 29.35 29.15 26.15 25.65 Q20.5 19.75 13.7 16.4 9.7 14.5 5.15 11.95 L2.15 10.2 2.0 10.15 1.9 10.05 1.85 10.05 -2.75 7.25 -8.35 3.5 -10.5 1.9 -8.55 2.3 Q5.2 5.05 14.9 8.35 21.2 10.5 25.45 12.75 28.6 14.4 30.6 16.15 L30.65 16.1 30.65 14.7 Q30.65 13.7 30.1 12.65 L29.8 5.0 30.05 4.9 29.8 4.45 29.75 3.75 29.35 -0.65 29.3 -0.8 29.3 -1.25 27.7 -2.85 24.05 -5.75 22.8 -5.55 21.4 -5.2 19.8 -4.75 19.6 -4.7 17.9 -4.2 14.55 -2.8 Q9.9 -1.15 6.6 -1.15 L2.6 -1.55 0.7 -2.1 -1.2 -2.8 -4.35 -2.4 -4.35 -2.75 -5.1 -2.5 -5.95 -2.2 -5.65 -0.65 -5.65 -0.45 -6.35 -0.95 Q-6.95 -1.0 -7.4 -0.15 L-7.7 1.05 -7.8 -0.35 -7.9 -1.4 -8.35 -1.0 -8.7 -0.8 -8.85 -0.9 -8.85 -1.4 -8.65 -2.2 -9.2 -2.5 -10.2 -2.65 -10.25 -2.65 -13.75 -2.7 -14.25 -3.05 -14.45 -3.3 -16.95 -3.6 -21.1 -3.8 -22.25 -3.9 -23.4 -4.1 -23.1 -5.0 -16.75 -4.4 -10.45 -3.35 -10.45 -3.5 Q-10.45 -4.4 -9.9 -5.0 L-8.5 -6.1 -8.6 -9.5 Q-8.6 -12.45 -8.2 -16.05 L-7.9 -19.05 -7.8 -22.0 -7.65 -25.1 -7.3 -25.1 -7.05 -21.6 -6.75 -21.55 -6.8 -21.0 -6.2 -19.9 Q-5.65 -19.05 -5.65 -18.45 L-5.65 -18.35 -6.05 -12.35 -6.4 -6.25 -6.4 -5.95 -6.2 -3.65 -6.2 -3.6 -6.15 -3.55 -6.15 -3.5 -4.0 -4.15 -3.2 -4.25 -2.7 -3.9 -2.6 -3.8 -2.5 -3.8 -2.45 -3.9 -1.55 -4.15 Q-0.2 -4.15 0.35 -5.25 1.1 -6.75 1.65 -7.1 L7.55 -7.35 Q11.1 -6.8 16.6 -5.15 L17.45 -4.9 17.55 -5.1 18.75 -5.35 19.8 -5.6 21.15 -5.85 21.35 -5.95 23.15 -6.35 22.65 -6.7 22.55 -6.75 Q18.6 -9.35 13.35 -11.85 L12.5 -12.25 1.7 -17.05 Q-3.55 -19.45 -5.05 -20.8 L-5.1 -20.85 -5.05 -20.85 Q-1.15 -20.65 6.05 -18.5 7.05 -17.25 8.2 -17.25 L9.45 -17.5 13.8 -16.05 Q21.75 -13.3 26.5 -11.15 27.65 -10.85 28.5 -10.2 29.1 -9.9 29.65 -9.65 L29.7 -9.75 30.35 -11.2 Q30.85 -12.85 30.85 -14.3 L30.35 -18.5 Q29.8 -21.4 29.75 -22.7 L29.5 -24.8 29.3 -26.3 29.3 -44.75 Q28.15 -46.05 26.6 -46.15 L26.35 -46.15 21.0 -45.6 20.5 -45.55 19.8 -45.5 19.1 -45.4 19.2 -44.95 19.3 -44.55 18.6 -44.55 18.6 -44.75 18.45 -45.35 16.65 -45.1 18.2 -46.7 19.4 -46.75 19.8 -46.75 21.0 -46.85 22.4 -46.85 26.15 -46.7 27.6 -47.45 28.05 -47.7 29.2 -48.45 29.3 -48.55 29.3 -48.65 29.3 -54.15 29.05 -55.6 28.25 -60.15 28.25 -90.0 28.25 -91.7 27.75 -94.45 27.4 -96.15 27.0 -98.25 26.6 -98.25 26.25 -98.25 Q25.35 -98.25 23.35 -97.2 L20.95 -96.2 18.75 -96.4 18.3 -95.35 18.25 -95.2 Q17.1 -92.5 15.65 -89.95 13.75 -86.6 11.85 -84.45 L11.4 -84.0 11.3 -85.15 Q13.05 -87.05 14.55 -90.15 15.8 -92.8 16.9 -96.25 L17.15 -97.1 17.25 -97.2 17.25 -97.35 19.6 -106.5 20.75 -110.6 19.85 -110.25 18.25 -109.7 18.75 -110.7 14.75 -108.55 12.15 -107.7 12.15 -107.25 12.15 -107.0 Q12.15 -102.75 9.75 -98.05 11.3 -102.4 12.05 -107.5 L11.85 -108.55 11.5 -108.55 11.55 -108.8 M-14.15 -90.65 L-11.05 -92.1 -10.45 -92.35 -7.3 -93.7 -5.9 -94.25 -5.4 -94.45 -4.75 -94.65 -4.9 -95.25 -4.95 -95.3 -4.55 -95.95 -4.5 -96.0 -4.35 -96.3 -3.85 -97.1 -3.55 -97.55 -2.25 -99.55 Q-1.35 -101.3 -1.3 -102.85 -1.3 -103.9 -1.7 -104.85 L9.2 -108.1 9.25 -107.55 8.7 -106.6 4.15 -105.15 -0.6 -103.6 Q-0.6 -102.0 -1.8 -99.1 L-3.45 -95.0 -2.55 -95.1 Q-4.65 -93.5 -11.75 -90.15 L-17.5 -87.55 -18.45 -88.7 -18.45 -88.8 -17.8 -89.1 -14.15 -90.65 M4.65 -92.3 L4.4 -91.25 Q2.85 -90.1 1.05 -89.5 L0.95 -89.45 1.0 -89.4 1.95 -87.3 2.75 -88.1 3.65 -88.8 Q3.05 -87.5 2.25 -86.55 L1.45 -85.75 1.4 -85.9 1.1 -86.1 1.25 -86.3 0.75 -87.45 0.7 -87.55 -0.05 -89.25 Q-0.05 -89.75 1.35 -90.5 L4.55 -92.25 4.65 -92.3 M-1.05 -84.35 L-1.8 -84.1 -3.1 -83.7 -4.0 -84.1 -4.25 -83.25 -5.5 -82.65 -5.65 -82.5 -5.7 -82.9 -6.05 -83.25 Q-7.25 -82.65 -19.5 -78.8 L-21.75 -78.1 Q-21.2 -79.4 -20.2 -80.0 L-18.7 -80.5 -18.3 -80.55 -16.4 -80.4 -16.2 -80.0 -15.7 -80.25 -14.3 -81.25 -14.95 -81.55 -14.9 -81.75 -4.55 -84.95 -4.55 -85.0 -3.85 -85.1 -1.05 -84.35 M-6.5 -74.4 L-6.25 -73.2 -5.15 -70.15 -4.8 -68.05 Q-4.25 -64.55 -4.25 -63.9 L-4.3 -61.45 Q-4.6 -61.85 -5.1 -61.65 L-5.55 -61.4 -6.15 -66.8 -6.75 -72.25 -6.5 -74.4 M5.85 -45.65 L6.1 -45.2 6.9 -45.25 7.3 -45.05 7.25 -44.3 6.35 -44.85 4.3 -44.6 4.25 -43.9 4.8 -43.4 5.35 -43.05 5.4 -43.0 5.7 -42.8 6.9 -43.15 7.2 -43.25 7.15 -41.95 6.7 -41.95 6.45 -41.95 Q5.2 -41.95 4.3 -42.6 L4.25 -42.65 3.85 -43.0 3.5 -43.35 -0.75 -42.8 -0.75 -42.5 -2.0 -42.5 -4.45 -42.4 -4.75 -41.85 -5.05 -41.1 -5.2 -41.05 -6.55 -38.1 -7.6 -35.65 Q-7.15 -35.75 -6.75 -36.0 L-6.7 -35.15 -6.6 -30.5 -6.85 -29.2 -7.1 -28.4 Q-6.85 -27.9 -6.85 -26.45 L-7.15 -26.25 -7.65 -26.3 -7.8 -26.85 -7.55 -27.85 -7.15 -28.35 -7.15 -29.0 -7.45 -28.8 -7.9 -29.45 Q-9.05 -31.35 -8.85 -34.85 L-8.8 -35.4 -8.55 -35.55 -8.5 -36.2 -8.5 -36.25 -8.5 -36.4 -9.35 -38.5 -8.5 -38.8 -7.85 -37.4 -7.35 -39.45 Q-6.8 -40.9 -5.65 -41.85 L-5.65 -42.0 Q-5.65 -43.25 -5.1 -45.5 -4.55 -47.75 -4.55 -48.8 L-4.9 -52.3 -5.25 -55.45 -4.95 -56.25 -4.3 -57.65 -4.0 -54.15 -3.6 -48.55 Q-3.6 -46.35 -3.85 -45.05 L-4.5 -42.6 -2.6 -43.25 -2.45 -43.65 0.75 -44.3 3.1 -44.7 Q3.25 -45.6 4.05 -45.8 L4.45 -45.85 5.85 -45.65 M8.75 -43.85 L8.55 -45.6 12.45 -46.1 12.1 -45.85 11.75 -45.7 11.9 -45.35 11.75 -45.2 11.8 -44.5 11.05 -44.4 8.8 -44.05 8.75 -43.85 M-1.0 -82.75 L0.1 -83.85 0.3 -83.8 0.95 -84.45 1.05 -84.5 1.5 -85.2 2.5 -86.15 2.6 -85.6 2.45 -83.9 Q2.2 -83.35 1.6 -83.2 4.25 -82.05 4.95 -82.05 L6.15 -82.15 7.35 -82.4 7.25 -82.2 7.5 -81.15 Q6.2 -80.65 4.95 -80.65 4.1 -80.65 2.15 -81.4 L0.6 -82.05 0.25 -82.2 0.1 -82.25 -1.0 -82.75 M2.75 -86.4 Q5.05 -88.85 6.8 -91.8 L6.95 -89.3 Q6.95 -88.55 4.7 -87.35 L2.75 -86.4 M21.95 -108.2 Q21.05 -102.6 19.15 -97.4 L21.5 -98.45 25.15 -99.4 Q25.15 -101.1 24.35 -102.55 23.5 -103.95 23.5 -104.9 L23.6 -106.3 23.6 -106.35 21.95 -108.2 M26.85 -4.5 L26.75 -5.85 Q26.75 -7.85 27.05 -8.35 27.5 -9.15 28.55 -9.4 25.65 -11.1 24.3 -10.65 21.95 -11.5 18.7 -12.7 9.55 -16.15 1.95 -18.35 L1.1 -18.3 11.15 -13.25 Q17.35 -10.2 20.55 -8.35 L23.4 -6.7 23.75 -6.5 24.6 -6.7 24.7 -6.7 25.3 -6.05 25.4 -5.95 25.35 -5.95 24.7 -5.85 26.15 -4.85 26.2 -4.8 26.3 -4.75 26.85 -4.3 26.9 -4.3 26.85 -4.5 M4.25 -2.9 L6.6 -2.65 11.15 -3.25 11.25 -3.3 Q14.35 -3.9 15.1 -4.25 L15.55 -4.45 15.25 -4.6 Q10.6 -7.05 5.95 -7.0 L5.6 -6.95 Q0.7 -6.85 -0.05 -3.6 L-0.05 -3.5 3.8 -3.0 4.1 -2.95 4.25 -2.9 M28.2 18.05 L28.75 17.3 28.25 17.05 Q24.2 15.1 17.75 12.35 L15.35 11.35 Q4.55 6.9 -2.6 4.8 L-6.0 3.85 -6.2 3.8 -7.0 3.95 -6.0 4.65 -5.55 4.95 -4.1 5.85 Q0.3 8.6 5.95 11.2 L14.6 15.05 16.8 16.0 18.05 16.55 24.1 19.75 24.3 19.85 26.55 21.4 26.85 21.6 26.9 21.25 27.15 20.25 27.5 19.4 28.0 18.35 28.2 18.05 M28.9 44.85 L29.3 44.6 29.3 43.4 Q29.6 37.8 29.4 32.2 L25.3 33.0 24.9 33.1 21.5 33.85 19.8 34.2 15.0 35.2 5.7 37.0 4.9 37.1 2.7 38.6 1.55 39.4 Q0.1 40.4 -0.8 41.15 -4.65 44.3 -4.95 47.35 L-5.0 47.45 -5.05 47.5 Q-4.8 52.1 -4.8 57.5 L-4.75 58.2 -4.55 60.45 Q-4.4 63.05 -5.0 64.2 L-5.65 65.65 -5.65 67.7 -5.2 68.45 Q-4.25 69.85 -2.95 70.6 L-2.3 70.9 1.65 70.1 2.15 69.95 4.75 69.0 5.4 68.8 7.2 68.4 Q7.7 67.75 9.0 67.15 L11.9 67.2 12.1 67.35 12.3 67.0 12.55 66.45 13.0 63.75 13.0 63.7 Q13.1 61.35 13.35 60.25 L13.45 59.9 Q14.45 60.0 14.95 61.05 L15.6 63.25 16.05 64.4 16.75 65.4 17.4 65.9 19.8 66.4 19.85 66.4 20.95 66.35 21.5 66.3 Q24.0 66.05 27.35 65.0 L28.35 64.7 28.6 64.7 Q30.45 64.7 30.45 62.2 L29.8 59.55 29.45 58.45 29.3 58.05 29.3 57.25 Q27.4 54.4 23.65 51.6 21.85 50.25 19.8 49.05 14.7 46.0 7.95 43.75 L1.65 41.9 Q1.4 41.5 1.4 40.4 L3.1 40.4 14.8 42.4 28.0 45.0 28.25 45.3 28.35 45.4 28.55 45.15 28.9 44.85 M-5.5 41.85 L-5.2 44.75 -5.15 45.6 -3.65 43.55 Q-1.95 41.7 -0.1 40.55 L1.45 39.3 1.75 39.0 3.05 37.4 0.4 37.8 -0.6 37.9 -1.5 38.05 -2.95 38.15 -3.35 38.35 -4.6 38.7 -4.75 38.7 -4.8 38.8 -5.15 38.85 -5.55 38.9 -5.65 38.9 -5.65 40.75 -5.5 41.85 M27.4 52.55 L27.35 50.65 Q27.35 47.9 27.55 47.15 27.7 46.3 28.1 45.7 L28.05 45.7 Q27.55 45.85 27.3 46.3 L18.15 44.75 12.7 43.2 11.6 43.2 Q17.9 44.8 24.85 50.65 L26.95 52.55 27.45 53.05 27.4 52.55 M35.4 65.2 L32.25 64.85 31.9 64.6 31.55 64.45 31.55 65.5 Q30.4 64.7 29.6 65.1 L29.3 65.3 29.3 65.25 29.15 65.4 28.95 65.65 27.2 66.2 21.5 67.4 19.85 67.55 19.8 67.55 Q16.75 67.5 15.45 65.65 L15.15 65.1 Q14.7 64.15 14.7 62.55 L14.7 62.4 14.4 61.5 14.05 60.85 14.0 60.85 13.8 60.85 Q13.7 61.25 13.75 62.7 L13.6 65.15 13.45 65.85 Q12.9 67.7 11.2 68.05 L10.4 68.1 Q8.75 68.1 8.3 68.6 L7.7 69.5 6.45 69.6 4.25 70.05 4.05 70.1 1.9 70.95 -1.3 71.8 -2.45 72.1 -3.35 72.0 -5.4 72.1 -6.0 72.1 -6.0 72.35 -6.1 72.3 -6.1 75.85 -4.9 75.9 -4.55 75.8 -2.8 75.75 0.15 75.45 Q6.2 74.65 15.3 72.35 L19.7 71.2 19.8 71.2 20.1 71.1 21.2 70.8 21.5 70.7 28.95 68.6 29.75 69.7 29.3 70.3 29.3 69.35 21.7 71.4 21.5 71.45 20.15 71.85 19.8 71.9 17.35 72.55 10.9 74.2 10.45 74.3 8.1 74.85 5.35 75.5 -1.95 76.85 -3.15 76.95 -3.85 76.6 -6.1 76.3 -6.1 77.7 -7.15 77.35 -7.15 76.6 -7.25 76.6 -7.5 76.35 -7.9 76.3 Q-13.5 75.65 -25.45 71.8 L-26.05 71.65 -27.4 71.2 -31.05 70.0 -31.05 70.65 -32.6 70.2 -32.65 69.5 -33.1 69.95 Q-33.9 70.65 -33.9 71.25 L-33.4 73.95 -33.4 74.4 -33.55 76.6 -34.1 75.65 -34.6 74.0 -34.7 72.1 -34.7 71.55 -34.55 69.5 -34.4 69.2 -34.75 69.15 -34.75 68.75 -35.45 68.5 -38.4 67.4 -39.3 67.35 Q-41.3 67.35 -42.0 71.6 -42.35 73.75 -42.3 76.0 -42.3 77.75 -41.2 79.25 L-40.75 79.85 -38.4 80.6 -37.0 81.0 -36.4 80.95 -36.45 79.85 Q-36.45 79.0 -35.75 78.3 L-34.7 77.45 -33.55 76.85 -33.6 78.2 -34.1 78.55 -34.15 78.55 -33.7 79.5 -33.75 80.05 -33.7 80.35 -34.1 79.65 -34.5 78.95 Q-35.25 79.75 -35.45 80.9 -31.5 80.95 -27.9 83.65 L-27.85 83.55 -27.35 83.2 -23.85 83.2 -17.4 83.35 Q-16.15 84.0 -15.5 85.05 L-15.0 85.95 -10.45 85.55 Q-7.5 85.25 -7.2 83.3 L-7.15 77.9 -6.1 78.05 -6.1 82.6 -5.95 82.6 Q-5.85 82.65 -5.85 83.2 L-5.85 83.25 Q-5.35 83.45 -4.9 83.95 L-4.6 84.35 -4.45 84.35 Q-2.85 84.35 2.1 85.65 L2.2 85.5 3.35 85.3 Q4.7 85.3 7.3 86.3 9.7 87.2 10.2 87.7 22.55 87.4 29.25 83.3 L33.6 80.65 Q35.45 79.75 37.75 79.7 L39.0 79.7 39.2 79.25 39.6 77.85 39.6 72.6 Q39.45 69.8 38.8 68.2 L37.85 66.65 33.9 67.95 33.45 67.3 37.35 66.25 37.4 66.25 Q36.55 65.55 35.4 65.2 M13.95 84.45 L14.1 83.8 15.05 83.35 13.95 84.45 M5.5 88.05 L3.95 87.65 2.9 87.35 -2.55 86.1 -3.55 85.95 -3.85 85.9 -3.55 86.8 Q-2.85 89.35 -2.85 91.2 -2.85 92.0 -3.9 95.5 L-5.25 99.2 -5.4 99.45 -5.55 102.55 -5.75 105.85 -5.65 107.05 -5.15 110.65 -4.55 115.25 -4.45 115.15 -2.55 115.15 1.4 115.25 Q3.25 114.3 5.5 113.7 L9.7 112.9 10.35 112.8 Q11.9 111.95 14.55 110.95 L15.15 110.75 14.5 108.15 14.35 107.2 14.25 105.85 14.3 105.9 Q15.65 107.95 15.9 109.8 L15.95 110.45 16.2 110.35 17.85 109.8 18.75 109.5 Q20.1 108.6 21.7 107.95 24.85 106.65 28.8 106.4 L29.6 106.35 36.25 104.65 46.0 102.4 45.9 101.6 Q45.35 101.85 44.85 102.2 45.3 101.85 45.85 101.6 L45.55 100.9 45.3 100.35 44.95 99.3 44.85 99.3 44.85 99.1 44.8 98.8 44.65 98.35 44.6 97.9 44.6 97.45 44.65 97.55 44.95 97.55 45.0 97.15 45.2 92.85 45.35 90.05 45.2 90.05 45.5 89.2 45.4 87.95 45.5 85.8 45.35 85.7 45.3 85.25 45.3 84.95 45.15 84.75 44.75 84.1 44.75 84.05 Q43.7 83.8 41.35 82.45 L40.1 81.65 40.1 82.05 39.95 81.95 38.8 81.5 38.8 80.9 37.8 81.45 30.6 85.0 27.85 86.1 Q24.9 87.2 22.25 87.9 L22.25 86.85 20.85 88.2 20.5 88.3 17.95 88.7 11.25 88.35 11.5 88.8 7.75 88.2 7.4 88.1 7.6 88.7 6.95 88.45 Q7.8 93.85 9.1 99.2 L9.35 100.15 10.7 101.6 12.8 104.0 12.05 103.6 11.4 103.25 Q9.2 102.0 8.55 100.95 L8.65 100.15 Q7.75 98.55 7.3 96.15 L7.2 95.5 6.4 92.0 5.85 90.65 5.85 89.45 5.85 88.15 5.5 88.05 M29.85 94.0 L29.85 94.25 29.35 94.3 29.85 94.0 M31.05 101.75 L31.55 101.05 31.55 101.25 31.3 101.7 31.05 101.85 31.05 101.75 M1.0 116.95 L1.0 116.4 -4.9 117.0 -5.5 117.8 -6.05 118.1 -6.45 118.5 -0.25 118.2 0.1 117.9 Q0.3 117.6 0.9 117.5 L1.0 116.95 M-21.95 -66.85 L-21.45 -66.6 -21.85 -66.0 -21.95 -66.85 M-20.95 -44.85 L-17.7 -43.95 -15.35 -43.6 -13.85 -43.4 -13.4 -43.4 -11.95 -43.2 -12.0 -41.55 -12.8 -41.65 -14.15 -41.75 -15.45 -41.9 -18.25 -42.35 -18.25 -42.4 -19.85 -42.85 Q-21.1 -43.3 -21.9 -43.8 L-22.95 -43.8 Q-21.45 -44.55 -20.95 -44.85 M-25.85 -61.45 L-25.8 -61.8 Q-28.15 -59.6 -29.6 -58.65 L-30.65 -57.9 -32.3 -55.95 -32.95 -54.45 Q-33.5 -51.45 -34.1 -49.75 L-34.15 -49.8 -34.4 -49.35 -34.0 -48.95 -33.8 -48.5 -33.25 -47.85 -32.95 -46.9 -31.0 -47.05 -33.0 -47.4 -33.0 -47.65 Q-32.3 -47.2 -31.15 -47.2 L-30.9 -47.25 -30.9 -47.05 -30.85 -47.05 -30.75 -47.05 -30.0 -46.05 -29.95 -46.05 Q-28.15 -49.6 -27.05 -54.6 L-26.2 -59.4 -25.95 -60.85 -25.85 -61.45 M-34.8 -59.25 L-34.8 -59.05 -34.85 -59.05 -34.85 -59.0 -35.25 -53.85 Q-34.7 -56.75 -34.7 -58.75 L-34.8 -59.25 M-6.05 -28.95 L-5.75 -25.9 Q-5.75 -23.45 -6.8 -22.55 L-7.0 -22.7 -7.1 -23.45 -7.15 -23.9 -7.15 -24.5 -6.55 -26.25 Q-6.05 -27.3 -6.05 -28.95 M-32.75 -46.15 L-32.8 -46.2 -32.9 -46.2 -32.75 -46.15 M-33.05 -24.25 L-33.05 -25.65 -33.0 -24.55 -33.05 -24.25 M-5.65 -19.45 L-6.3 -21.45 -5.65 -21.5 -5.65 -19.45 M-7.5 -13.05 L-7.15 -9.3 -7.15 -14.4 -7.5 -13.05 M-7.3 -3.4 L-7.9 -4.3 -8.35 -5.45 -8.8 -4.55 -9.3 -3.6 -8.65 -3.75 -8.1 -3.55 -7.9 -3.5 -7.35 -3.4 -7.3 -3.4 M-7.15 -2.0 L-7.25 -2.0 -7.25 -1.95 -7.15 -1.8 -7.15 -2.0 M-7.15 14.05 L-7.3 14.05 -7.15 14.5 -7.15 14.05 M-35.85 27.05 L-35.85 27.15 -35.9 27.15 -35.85 27.05 M-32.8 39.35 L-32.85 38.0 -32.85 37.95 -32.2 37.8 -32.45 38.35 -32.8 39.35 M-47.4 84.9 L-49.05 85.5 -48.95 85.5 -48.75 87.7 -48.75 88.7 -48.55 90.05 -48.65 90.05 -48.55 90.4 -48.5 90.5 -48.45 90.5 -48.4 91.0 -48.35 91.55 -47.85 97.6 -47.5 102.7 -47.6 104.85 -47.7 105.65 -47.8 106.0 -47.3 106.15 -44.25 107.05 -41.05 107.95 Q-43.4 104.1 -44.95 99.4 -46.95 93.5 -46.95 88.2 L-46.95 88.05 -46.9 86.75 -46.8 86.1 -46.4 86.1 Q-44.95 94.7 -39.85 108.1 L-38.25 108.45 -37.05 108.75 -37.25 108.6 -36.75 108.8 -34.5 109.6 -31.15 110.8 -30.5 111.05 -30.45 110.45 -26.25 111.95 -19.4 114.25 -18.95 114.05 -13.0 116.05 -8.7 117.1 -8.65 117.3 -8.6 117.55 -8.5 117.45 -7.75 117.05 -6.4 116.2 Q-5.85 115.75 -5.85 115.45 L-6.1 113.1 -6.4 111.6 Q-7.0 108.75 -7.0 107.55 L-7.25 103.1 Q-7.2 100.5 -6.55 99.25 -7.05 97.8 -6.95 95.7 -6.5 92.2 -6.5 90.6 L-6.9 88.15 -7.35 85.65 -7.35 85.6 Q-9.45 86.8 -14.6 86.9 L-14.8 87.15 -14.8 87.3 -14.75 88.25 -16.95 89.9 -19.45 91.25 -22.45 91.25 Q-23.95 90.3 -25.15 88.55 L-27.2 85.8 Q-29.55 83.15 -35.05 82.35 L-35.25 83.0 -36.65 82.55 -38.7 81.7 -40.1 81.0 -40.1 81.3 -40.1 81.5 -41.65 82.05 -41.2 81.35 -43.8 82.9 Q-45.75 84.15 -47.4 84.9 M-39.5 90.55 L-40.2 91.75 -40.85 93.05 -40.85 93.45 -40.75 93.45 -40.5 94.0 Q-39.55 95.75 -38.8 96.25 L-38.45 96.55 -38.35 97.15 -38.35 97.25 -38.25 98.75 -37.8 102.15 Q-37.35 104.9 -37.25 106.75 L-37.25 107.3 Q-37.25 108.05 -37.35 107.65 -37.9 106.2 -38.15 104.1 L-38.2 103.85 -38.5 100.4 -38.75 98.75 -39.1 97.15 Q-39.65 95.4 -40.5 94.15 L-40.8 93.8 -40.45 97.15 -40.3 98.75 -40.2 99.35 -40.45 99.55 -40.55 99.35 -40.85 98.75 -41.2 97.15 -41.35 95.6 -41.45 92.95 -40.2 90.05 -40.3 90.05 -39.0 89.05 -38.05 87.95 -37.85 87.95 -37.9 87.4 -37.9 87.25 -38.05 86.2 -38.05 86.15 -38.05 85.7 Q-38.05 85.35 -37.5 84.8 L-36.4 84.0 -35.1 83.3 -34.55 83.6 -35.7 84.35 Q-37.5 85.65 -37.35 86.25 -37.15 86.8 -37.1 87.95 L-37.0 87.95 Q-37.9 89.3 -37.9 90.25 L-39.4 90.4 -39.5 90.55 M-5.1 71.0 L-6.05 69.7 -6.0 70.6 -6.0 71.1 -5.1 71.1 -5.0 71.1 -5.1 71.0 M-7.9 71.75 L-8.0 71.7 -18.05 68.95 -26.05 66.8 -27.4 66.4 -30.9 65.55 -31.1 65.45 -32.95 65.1 -33.1 65.05 Q-34.7 64.1 -35.4 65.6 L-35.4 65.65 -36.45 65.95 -37.45 66.25 -38.5 66.2 -37.35 67.25 -37.4 67.3 -36.05 67.6 -36.3 67.8 -34.7 68.4 -33.6 68.6 -33.45 68.6 Q-32.65 69.55 -30.95 69.55 L-29.2 69.4 -27.4 69.9 -26.05 70.3 -25.45 70.45 -7.9 75.1 -7.85 75.15 -7.75 75.25 -7.15 75.6 -7.15 71.85 -7.8 71.75 -7.9 71.75 M-31.0 60.45 L-31.45 60.45 -30.55 59.05 -30.15 59.8 -31.0 60.05 -31.0 60.45 M-18.05 84.5 L-26.9 84.5 -26.4 84.95 Q-25.05 86.2 -23.4 88.3 L-21.9 89.85 -21.85 89.85 -18.35 89.4 Q-16.95 88.95 -16.25 88.05 L-15.85 87.45 -15.7 87.0 -15.65 86.7 -16.0 86.35 -16.35 86.05 -16.8 85.6 -17.55 84.65 -17.6 84.65 -17.7 84.5 -17.8 84.5 -18.05 84.5 M-6.05 85.8 L-5.85 85.9 -5.85 85.05 Q-5.9 84.6 -6.1 84.35 L-6.15 84.45 -6.05 85.8 M-4.15 89.5 Q-4.55 88.3 -5.3 87.6 L-5.3 87.65 -5.4 90.8 Q-5.55 92.6 -5.85 93.85 L-5.85 98.3 -4.45 94.2 Q-3.8 92.3 -3.8 91.05 -3.8 90.45 -4.15 89.5" fill="#716143" fill-rule="evenodd" stroke="none"/>
      <path d="M28.75 -46.55 L28.55 -46.2 29.3 -45.85 29.3 -45.75 28.35 -46.15 28.1 -46.35 28.25 -46.4 28.75 -46.55 M31.55 62.8 L31.85 63.55 31.65 63.45 31.55 63.5 31.55 62.8 M40.1 80.45 L40.15 80.55 40.05 80.55 40.1 80.45 M47.7 101.8 L48.15 102.25 Q47.8 103.1 46.9 103.4 47.7 102.6 47.7 101.85 L47.7 101.8 M9.0 -41.75 L8.8 -43.4 10.4 -43.45 11.9 -43.55 12.05 -41.45 9.0 -41.75 M21.95 -108.2 L23.6 -106.35 23.6 -106.3 23.5 -104.9 Q23.5 -103.95 24.35 -102.55 25.15 -101.1 25.15 -99.4 L21.5 -98.45 19.15 -97.4 Q21.05 -102.6 21.95 -108.2 M11.85 -84.45 Q13.75 -86.6 15.65 -89.95 17.1 -92.5 18.25 -95.2 L18.3 -95.3 18.3 -95.35 18.75 -96.4 20.95 -96.2 23.35 -97.2 Q25.35 -98.25 26.25 -98.25 L26.6 -98.25 27.4 -96.15 27.75 -94.45 27.85 -93.65 28.25 -90.0 28.25 -60.15 29.05 -55.6 29.3 -54.15 29.3 -48.65 29.2 -48.45 28.05 -47.7 27.6 -47.45 26.15 -46.7 22.4 -46.85 22.4 -46.9 21.9 -47.3 26.4 -47.2 26.4 -51.0 21.55 -56.95 Q18.55 -64.1 18.85 -73.7 15.4 -75.35 14.0 -78.55 L14.0 -81.8 Q11.85 -83.1 11.85 -84.45 M18.6 -44.75 L18.6 -44.55 19.3 -44.55 19.2 -44.95 20.5 -45.55 21.0 -45.6 26.35 -46.15 26.6 -46.15 Q28.15 -46.05 29.3 -44.75 L29.3 -26.3 29.5 -24.8 29.75 -22.7 Q29.8 -21.4 30.35 -18.5 L30.85 -14.3 Q30.85 -12.85 30.35 -11.2 L29.7 -9.75 26.4 -12.65 Q28.65 -24.4 21.55 -36.95 L18.35 -40.6 18.25 -41.7 15.9 -44.05 18.6 -44.75 M23.4 -6.7 L24.6 -6.7 23.75 -6.5 23.4 -6.7 M24.7 -6.7 L24.8 -6.7 25.3 -6.05 24.7 -6.7 M25.35 -5.95 L26.15 -4.85 24.7 -5.85 25.35 -5.95 M26.25 -4.8 L26.3 -4.75 26.2 -4.8 26.25 -4.8 M-0.05 -3.6 L1.05 -3.45 2.65 -3.45 4.25 -2.9 4.1 -2.95 3.8 -3.0 -0.05 -3.5 -0.05 -3.6 M2.6 -1.55 L6.6 -1.15 Q9.9 -1.15 14.55 -2.8 L17.9 -4.2 19.6 -4.7 19.8 -4.75 21.4 -5.2 22.8 -5.55 24.05 -5.75 27.7 -2.85 29.35 -0.65 29.75 3.75 29.8 4.45 30.05 4.9 29.8 5.0 30.1 12.65 Q30.65 13.7 30.65 14.7 L30.65 16.1 30.6 16.15 Q28.6 14.4 25.45 12.75 L24.8 12.2 Q24.7 10.5 24.2 9.0 23.35 6.55 21.0 5.2 L19.4 2.5 16.65 1.5 Q11.6 -0.3 5.9 -0.2 L2.6 -1.55 M-2.75 7.25 L1.85 10.05 1.9 10.05 2.0 10.15 5.15 11.95 Q9.7 14.5 13.7 16.4 20.5 19.75 26.15 25.65 L29.35 29.15 29.45 29.25 29.3 29.55 29.3 29.95 29.4 31.15 29.05 31.1 27.15 31.5 25.35 32.15 24.8 27.35 21.45 23.65 Q17.85 19.25 11.3 17.1 L11.15 16.75 Q4.1 12.6 -2.75 7.25 M25.1 32.2 L21.9 33.05 21.5 33.1 20.9 33.2 19.8 33.4 19.1 33.45 18.1 33.65 19.95 32.2 25.1 32.2 M-2.45 -3.9 L-2.5 -3.8 -2.6 -3.8 -2.7 -3.9 -2.45 -3.9 M22.65 -6.7 L23.15 -6.35 21.35 -5.95 21.15 -5.85 19.8 -5.6 18.75 -5.35 20.5 -6.7 22.65 -6.7 M24.3 19.85 L24.1 19.75 24.25 19.8 24.3 19.85 M5.7 37.0 L15.0 35.2 19.8 34.2 21.5 33.85 24.9 33.1 25.3 33.0 29.4 32.2 Q29.6 37.8 29.3 43.4 L29.3 44.6 28.9 44.85 22.1 43.0 Q22.1 41.0 20.2 40.2 L17.25 38.7 5.7 37.0 M19.8 49.05 Q21.85 50.25 23.65 51.6 27.4 54.4 29.3 57.25 L29.3 58.05 29.45 58.45 29.8 59.55 30.45 62.2 Q30.45 64.7 28.6 64.7 L28.35 64.7 27.35 65.0 Q24.0 66.05 21.5 66.3 L20.95 66.35 26.4 65.2 26.3 64.1 Q25.25 58.5 23.0 54.05 21.6 51.3 19.8 49.05 M17.4 65.9 L16.75 65.4 16.05 64.4 17.4 65.9 M12.3 67.0 L12.1 67.35 11.9 67.2 12.3 67.0 M15.45 65.65 Q16.75 67.5 19.8 67.55 L19.85 67.55 21.5 67.4 27.2 66.2 28.95 65.65 29.15 65.4 29.3 65.25 29.3 65.3 29.6 65.1 Q30.4 64.7 31.55 65.5 L31.55 64.45 31.9 64.6 32.25 64.85 35.4 65.2 Q36.45 65.6 37.35 66.25 L33.45 67.3 33.9 67.95 37.85 66.65 38.8 68.2 Q39.45 69.8 39.6 72.6 L39.6 77.85 39.2 79.25 39.0 79.7 37.75 79.7 37.55 79.3 37.35 78.85 Q32.9 78.85 28.9 81.65 L28.1 82.25 25.9 82.0 25.85 80.6 25.9 79.3 25.95 79.0 Q26.05 77.8 26.4 77.1 L26.4 75.45 23.2 73.3 21.7 71.4 29.3 69.35 29.3 70.3 29.75 69.7 28.95 68.6 21.5 70.7 21.2 70.8 21.0 70.6 17.8 70.6 15.3 72.35 Q6.2 74.65 0.15 75.45 L-3.55 75.05 -3.85 74.85 -4.0 75.0 -4.4 74.9 -5.1 73.15 -5.45 72.2 -5.4 72.1 -3.35 72.0 -2.45 72.1 -1.3 71.8 1.9 70.95 4.05 70.1 4.25 70.05 6.25 69.7 6.45 69.6 7.7 69.5 8.3 68.6 Q8.75 68.1 10.4 68.1 L11.2 68.05 Q12.9 67.7 13.45 65.85 L13.55 66.25 15.1 65.8 15.45 65.65 M10.9 74.2 L10.75 74.35 10.45 74.3 10.9 74.2 M8.1 74.85 L7.5 75.45 5.35 75.5 8.1 74.85 M5.5 88.05 L5.85 89.45 5.85 90.65 6.4 92.0 6.6 93.15 7.3 96.15 Q7.75 98.55 8.65 100.15 L8.55 100.95 Q9.2 102.0 11.4 103.25 L12.05 103.6 12.05 103.65 14.35 107.2 14.5 108.15 15.15 110.75 14.55 110.95 11.25 105.45 7.65 99.8 Q3.9 93.45 3.9 88.1 L3.95 87.65 5.5 88.05 M36.25 104.65 L33.4 104.15 Q31.75 103.65 30.75 102.4 L30.75 100.85 Q28.95 98.9 28.3 95.85 L26.95 95.65 26.95 89.6 28.55 86.85 27.85 86.1 30.6 85.0 37.8 81.45 38.8 80.9 38.8 81.5 39.95 81.95 40.1 82.05 40.1 81.65 41.35 82.45 Q43.7 83.8 44.75 84.05 L44.75 84.1 45.15 84.75 45.3 84.95 45.3 85.25 45.35 85.7 45.5 85.8 45.4 87.95 45.5 89.2 45.2 90.05 45.35 90.05 45.2 92.85 45.0 97.15 44.95 97.55 44.65 97.55 44.6 97.45 44.6 97.9 44.65 98.35 44.8 98.8 44.85 99.1 44.85 99.3 44.95 99.3 45.3 100.35 45.55 100.9 45.85 101.6 Q45.3 101.85 44.85 102.2 45.35 101.85 45.9 101.6 L46.0 102.4 36.25 104.65 M29.85 94.0 L29.35 94.3 29.85 94.25 29.85 94.0 M32.25 92.05 L32.45 91.8 32.3 91.5 32.25 92.05 M31.05 101.75 L31.05 101.85 31.3 101.7 31.55 101.25 31.55 101.05 31.05 101.75" fill="#c8ab77" fill-rule="evenodd" stroke="none"/>
      <path d="M29.9 -70.8 L30.15 -68.65 30.65 -63.6 30.15 -61.7 29.9 -61.05 29.9 -70.8 M31.45 -45.5 L31.75 -45.45 31.75 -44.95 31.45 -44.2 31.45 -45.5 M-35.85 -50.2 L-36.45 -50.8 Q-36.45 -52.6 -35.85 -55.85 L-35.9 -54.05 -35.85 -50.65 -35.8 -50.6 -35.85 -50.2 M-34.3 -66.5 Q-34.25 -69.05 -33.85 -71.0 L-33.7 -70.8 -33.5 -68.7 -34.0 -67.35 -34.3 -66.5 M-22.45 -87.0 L-21.75 -87.85 -21.9 -87.5 -22.45 -87.0 M-18.45 -89.5 L-15.9 -90.2 -14.15 -90.65 -17.8 -89.1 -18.45 -89.0 -18.45 -89.5 M-9.1 -93.3 L-7.85 -94.2 -7.7 -94.05 -7.4 -93.8 -7.75 -93.75 -9.1 -93.3 M-5.9 -94.25 Q-5.25 -94.9 -4.55 -95.95 L-4.95 -95.3 -4.9 -95.25 -5.4 -94.45 -5.9 -94.25 M5.1 -95.6 L4.85 -93.9 4.65 -92.3 4.55 -92.25 1.35 -90.5 Q-0.05 -89.75 -0.05 -89.25 L0.7 -87.55 0.75 -87.0 0.95 -85.35 -0.15 -84.75 -0.65 -86.35 -1.15 -88.15 Q-1.15 -89.85 2.95 -93.65 L5.1 -95.6 M-3.3 -83.6 L-3.95 -83.35 -3.85 -83.95 -3.3 -83.6 M-3.7 -67.55 L0.7 -57.25 5.3 -46.75 -1.45 -46.75 Q-1.45 -48.65 -2.75 -59.6 L-3.7 -67.55 M7.2 -43.35 L7.2 -43.25 6.9 -43.15 6.8 -43.35 7.2 -43.35 M7.15 -41.95 L7.15 -40.35 4.7 -21.3 Q4.7 -20.7 5.6 -19.2 L6.05 -18.5 Q-1.15 -20.65 -5.05 -20.85 L-5.75 -27.2 -6.0 -29.5 Q-5.65 -34.05 -4.5 -37.5 L-4.4 -37.5 -1.55 -39.5 Q3.9 -40.05 5.15 -40.6 6.0 -40.95 6.7 -41.95 L7.15 -41.95 M9.45 -17.5 L9.65 -17.7 9.95 -18.5 8.85 -20.05 Q8.0 -21.05 8.0 -21.65 8.0 -23.6 9.15 -25.05 10.3 -26.45 10.3 -27.85 L9.7 -35.3 9.0 -41.75 12.05 -41.45 11.9 -43.55 11.8 -44.5 11.75 -45.2 11.9 -45.35 11.75 -45.7 12.1 -45.85 12.45 -46.1 Q12.85 -46.45 13.4 -46.6 L13.8 -47.0 7.75 -46.8 7.1 -46.75 Q6.0 -51.4 2.15 -59.15 -0.65 -64.8 -2.05 -68.35 L-1.35 -68.6 -0.8 -69.35 Q-1.55 -69.8 -3.0 -73.65 L-3.6 -75.4 -3.6 -75.65 -3.1 -79.6 -3.2 -80.45 -2.2 -81.6 -1.3 -82.5 -0.45 -82.15 0.4 -81.8 0.25 -82.2 0.6 -82.05 0.45 -81.8 2.15 -81.4 Q4.1 -80.65 4.95 -80.65 6.2 -80.65 7.5 -81.15 L7.25 -82.2 7.35 -82.4 6.15 -82.15 7.35 -82.9 7.5 -82.7 7.75 -82.7 7.8 -82.7 7.75 -82.2 8.1 -82.8 8.15 -82.85 9.7 -84.0 10.75 -84.2 10.75 -84.7 Q10.85 -85.25 11.25 -85.5 L11.75 -85.7 11.75 -86.1 13.0 -88.1 14.55 -90.15 Q13.05 -87.05 11.3 -85.15 L11.4 -84.0 11.85 -84.45 Q11.85 -83.1 14.0 -81.8 L14.0 -78.55 Q15.4 -75.35 18.85 -73.7 18.55 -64.1 21.55 -56.95 L26.4 -51.0 26.4 -47.2 21.9 -47.3 21.85 -47.3 21.8 -47.45 19.3 -47.45 18.75 -47.35 18.75 -47.2 18.2 -46.7 16.65 -45.1 15.75 -44.2 15.9 -44.05 18.25 -41.7 18.35 -40.6 21.55 -36.95 Q28.65 -24.4 26.4 -12.65 L29.7 -9.75 29.65 -9.65 Q29.1 -9.9 28.5 -10.2 27.65 -10.85 26.5 -11.15 21.75 -13.3 13.8 -16.05 L9.45 -17.5 M0.1 -83.85 L0.95 -84.7 0.95 -84.5 0.95 -84.45 0.3 -83.8 0.1 -83.85 M18.25 -95.2 L18.3 -95.35 18.3 -95.3 18.25 -95.2 M27.75 -94.45 L28.25 -91.7 28.25 -90.0 27.85 -93.65 27.75 -94.45 M29.3 -48.65 L29.3 -48.55 29.2 -48.45 29.3 -48.65 M1.0 -89.4 L0.95 -89.45 1.05 -89.5 1.0 -89.4 M5.35 -43.05 L5.7 -43.15 5.4 -43.0 5.35 -43.05 M-8.5 -36.4 L-8.5 -36.25 -8.55 -36.4 -8.5 -36.4 M4.25 -42.65 L4.3 -42.6 3.7 -42.45 4.25 -42.65 M26.15 -4.85 L26.25 -4.8 26.2 -4.8 26.15 -4.85 M26.3 -4.75 L26.85 -4.5 26.9 -4.3 26.85 -4.3 26.3 -4.75 M-0.05 -3.6 Q0.7 -6.85 5.6 -6.95 L5.95 -7.0 Q10.6 -7.05 15.25 -4.6 L15.55 -4.45 15.1 -4.25 Q14.35 -3.9 11.25 -3.3 L11.15 -3.25 6.6 -2.65 4.25 -2.9 2.65 -3.45 1.05 -3.45 -0.05 -3.6 M-7.8 -0.35 L-7.7 1.05 -7.4 -0.15 Q-6.95 -1.0 -6.35 -0.95 L-5.65 -0.45 -5.65 -0.65 -5.95 -2.2 -5.1 -2.5 -4.35 -2.75 -4.35 -2.4 -1.2 -2.8 0.7 -2.1 2.6 -1.55 5.9 -0.2 Q11.6 -0.3 16.65 1.5 L19.4 2.5 21.0 5.2 Q23.35 6.55 24.2 9.0 24.7 10.5 24.8 12.2 L25.45 12.75 Q21.2 10.5 14.9 8.35 5.2 5.05 -8.55 2.3 L-8.7 1.45 -7.8 -0.35 M27.7 -2.85 L29.3 -1.25 29.3 -0.8 29.35 -0.65 27.7 -2.85 M-8.35 3.5 L-2.75 7.25 Q4.1 12.6 11.15 16.75 L11.3 17.1 Q17.85 19.25 21.45 23.65 L24.8 27.35 25.35 32.15 25.1 32.2 19.95 32.2 18.1 33.65 14.65 34.15 14.65 34.05 Q5.85 33.4 1.4 30.65 -2.05 28.55 -3.4 24.9 -4.35 20.75 -4.85 19.0 -5.35 17.2 -6.4 16.2 L-6.9 11.0 -6.9 11.1 -7.15 11.0 -7.15 12.4 -7.2 12.55 -7.45 10.3 -7.15 9.2 -7.15 9.9 -7.0 10.05 -7.0 9.85 -7.1 9.15 -7.55 4.75 -7.5 7.2 -7.7 8.3 -8.35 3.5 M2.0 10.15 L2.15 10.2 5.15 11.95 2.0 10.15 M7.3 35.35 L6.05 35.55 6.4 35.45 7.3 35.35 M-2.85 37.05 L-3.35 37.15 -3.35 36.6 -2.85 37.05 M-34.85 27.05 L-34.9 27.05 -34.85 26.9 -34.85 27.05 M-34.35 9.75 L-34.3 9.2 -34.3 9.55 -34.35 9.75 M-34.15 -9.35 L-34.25 -9.55 -34.15 -9.6 -34.15 -9.35 M-34.95 -17.0 L-34.9 -18.0 -34.8 -16.8 -34.95 -17.0 M-30.85 -46.1 L-30.5 -45.75 -30.65 -45.75 -30.85 -45.9 -30.85 -46.1 M-24.4 -65.7 L-28.35 -61.55 Q-31.95 -57.65 -33.45 -54.6 L-33.7 -54.2 -33.75 -55.1 Q-33.75 -56.1 -34.1 -58.0 -32.95 -60.5 -30.0 -63.35 -26.9 -66.4 -24.6 -67.0 L-24.4 -65.7 M-32.95 -73.6 L-32.3 -74.25 -31.95 -73.7 -31.95 -73.25 -32.95 -73.6 M18.75 -5.35 L17.55 -5.1 17.45 -4.9 16.6 -5.15 Q11.1 -6.8 7.55 -7.35 L1.65 -7.1 Q1.1 -6.75 0.35 -5.25 -0.2 -4.15 -1.55 -4.15 L-2.45 -3.9 -2.7 -3.9 -3.2 -4.25 -4.0 -4.15 -6.15 -3.5 -6.15 -3.55 -6.2 -3.6 -6.2 -3.65 -6.4 -5.95 -6.25 -7.05 Q-5.85 -10.6 -5.75 -13.95 L-5.2 -14.1 -4.95 -15.75 -4.8 -17.55 -5.05 -20.8 Q-3.55 -19.45 1.7 -17.05 L12.5 -12.25 13.35 -11.85 15.75 -10.5 22.55 -6.75 22.65 -6.7 20.5 -6.7 18.75 -5.35 M-23.4 -4.1 L-22.25 -3.9 -21.1 -3.8 -19.2 -2.55 Q-18.5 -1.8 -18.5 0.45 L-18.75 7.65 -18.85 6.5 Q-19.3 0.6 -23.5 -3.7 L-23.4 -4.1 M28.25 17.05 L28.75 17.3 28.2 18.05 28.25 17.35 28.25 17.05 M27.5 19.4 L27.15 20.25 26.95 19.8 27.25 19.6 27.5 19.4 M26.9 21.25 L26.85 21.6 26.55 21.4 26.9 21.25 M-4.1 5.85 L-5.55 4.95 -6.0 4.65 -7.0 3.95 -6.2 3.8 -6.0 3.85 -4.1 5.85 M-2.6 4.8 Q4.55 6.9 15.35 11.35 L17.75 12.35 -2.6 4.8 M5.7 37.0 L17.25 38.7 20.2 40.2 Q22.1 41.0 22.1 43.0 L28.9 44.85 28.55 45.15 28.25 45.3 28.0 45.0 14.8 42.4 3.1 40.4 1.4 40.4 Q1.4 41.5 1.65 41.9 L7.95 43.75 Q14.7 46.0 19.8 49.05 21.6 51.3 23.0 54.05 25.25 58.5 26.3 64.1 L26.4 65.2 20.95 66.35 19.85 66.4 19.8 66.4 17.4 65.9 16.05 64.4 15.6 63.25 14.95 61.05 Q14.45 60.0 13.45 59.9 L13.35 60.25 12.7 60.25 12.7 62.95 13.0 63.7 13.0 63.75 12.55 66.45 9.35 66.0 5.0 65.7 Q2.45 65.7 0.45 64.15 -0.85 63.15 -2.5 60.9 -4.05 58.8 -4.75 58.2 L-4.8 57.5 Q-4.8 52.1 -5.05 47.5 L-5.0 47.45 -4.95 47.35 Q-4.65 44.3 -0.8 41.15 0.1 40.4 1.55 39.4 L2.7 38.6 4.9 37.1 5.7 37.0 M1.65 70.1 L-2.3 70.9 -2.95 70.6 Q-2.3 70.55 -2.0 70.25 L-0.15 70.05 1.65 70.1 M0.4 37.8 L3.05 37.4 1.75 39.0 1.45 39.3 -0.1 40.55 Q-1.95 41.7 -3.65 43.55 L-5.15 45.6 -5.2 44.75 -5.5 41.85 -5.55 39.25 -5.55 38.9 -5.15 38.85 -4.8 38.8 -4.75 38.7 -4.6 38.7 -4.4 39.25 -3.75 38.9 -3.35 38.7 -3.35 38.35 -2.95 38.15 -1.5 38.05 -0.95 38.15 -0.4 38.05 0.4 37.8 M27.4 52.55 L27.45 53.05 26.95 52.55 27.4 52.55 M-5.1 73.15 L-4.4 74.9 -4.0 75.0 -4.7 75.5 -5.05 74.9 -5.1 73.15 M-3.55 75.05 L0.15 75.45 -2.8 75.75 -3.55 75.05 M15.3 72.35 L17.8 70.6 21.0 70.6 21.2 70.8 20.1 71.1 19.8 71.2 19.7 71.2 15.3 72.35 M21.7 71.4 L23.2 73.3 26.4 75.45 26.4 77.1 Q26.05 77.8 25.95 79.0 L25.85 79.0 25.9 79.3 25.85 80.6 25.9 82.0 25.85 82.0 Q25.5 82.05 24.1 82.9 L23.9 83.0 22.9 83.25 Q20.8 83.85 20.0 84.4 L9.9 85.55 8.65 84.95 5.15 84.35 Q4.75 83.25 3.45 82.65 1.05 81.55 0.3 80.4 L-1.8 77.1 -1.95 76.85 5.35 75.5 7.5 75.45 8.1 74.85 10.45 74.3 10.75 74.35 10.9 74.2 17.35 72.55 19.8 71.9 20.15 71.85 21.5 71.45 21.7 71.4 M37.35 66.25 Q36.45 65.6 35.4 65.2 36.55 65.55 37.4 66.25 L37.35 66.25 M14.0 60.85 L14.05 60.85 14.4 61.5 14.7 62.4 14.7 62.55 14.65 62.4 14.0 60.85 M10.35 81.75 L10.35 81.5 9.95 81.6 10.2 81.7 10.35 81.75 M13.95 83.8 L14.1 83.65 14.0 83.3 13.95 83.65 13.95 83.8 M13.95 84.45 L15.05 83.35 14.1 83.8 13.95 84.45 M5.85 89.45 L5.5 88.05 5.85 88.15 5.85 89.45 M3.95 87.65 L3.9 88.1 Q3.9 93.45 7.65 99.8 L11.25 105.45 14.55 110.95 Q11.9 111.95 10.35 112.8 L9.7 112.9 5.5 113.7 Q3.25 114.3 1.4 115.25 L-2.55 115.15 -4.45 115.15 -4.55 115.25 -5.15 110.65 -5.65 107.05 -5.25 99.2 -3.9 95.5 Q-2.85 92.0 -2.85 91.2 -2.85 89.35 -3.55 86.8 L-3.85 85.9 -3.55 85.95 -2.8 87.0 -2.55 86.1 2.9 87.35 3.95 87.65 M7.3 96.15 L6.6 93.15 6.4 92.0 7.2 95.5 7.3 96.15 M9.1 99.2 L10.7 101.6 9.35 100.15 9.1 99.2 M7.75 88.2 L11.5 88.8 11.25 88.35 17.95 88.7 20.5 88.3 20.85 88.2 22.25 86.85 22.25 87.9 Q24.9 87.2 27.85 86.1 L28.55 86.85 26.95 89.6 26.95 95.65 28.3 95.85 Q28.95 98.9 30.75 100.85 L30.75 102.4 Q31.75 103.65 33.4 104.15 L36.25 104.65 29.6 106.35 28.8 106.4 Q24.85 106.65 21.7 107.95 20.1 108.6 18.75 109.5 L17.85 109.8 Q17.1 107.6 15.6 104.9 L12.05 98.9 Q8.2 92.45 7.75 88.2 M15.9 109.8 L16.2 110.35 15.95 110.45 15.9 109.8 M1.0 116.95 L0.9 117.5 Q0.3 117.6 0.1 117.9 L-0.25 118.2 -6.45 118.5 -6.05 118.1 -5.5 117.8 -4.9 117.0 1.0 116.4 1.0 116.95 M-14.15 -41.75 L-14.15 -41.45 Q-14.15 -40.35 -15.75 -32.0 -17.35 -23.4 -18.2 -20.15 L-18.7 -20.0 Q-17.6 -24.45 -16.75 -31.55 L-15.45 -41.9 -14.15 -41.75 M-25.85 -61.45 L-25.95 -60.85 -26.2 -59.4 Q-27.7 -51.75 -29.95 -46.05 L-30.0 -46.05 -30.75 -47.05 -30.85 -47.05 Q-30.8 -49.7 -28.75 -55.3 -26.75 -60.75 -25.85 -61.45 M-10.65 -42.3 L-10.7 -42.0 -10.8 -42.2 -10.65 -42.3 M-6.25 -41.35 L-6.05 -42.05 -6.05 -41.65 -6.25 -41.35 M-3.55 -43.35 L-3.6 -43.35 -3.45 -44.85 -2.95 -43.3 -3.55 -43.35 M-7.15 -2.0 L-7.15 -1.8 -7.25 -1.95 -7.25 -2.0 -7.15 -2.0 M-19.25 18.25 L-18.85 13.0 -18.7 18.1 -19.25 18.25 M-12.5 46.55 Q-12.25 46.65 -12.25 47.5 -12.25 48.0 -13.0 49.95 -13.75 51.95 -13.75 53.95 L-14.15 54.65 -14.7 51.9 -15.0 49.25 Q-15.0 48.2 -14.35 47.5 -13.75 46.9 -12.8 46.65 L-12.5 46.55 M-38.4 80.6 Q-36.45 73.5 -36.45 72.7 L-36.15 68.5 -35.45 68.5 -34.7 72.1 -34.6 74.0 -34.1 75.65 -34.1 75.8 -34.7 77.45 -35.75 78.3 Q-36.45 79.0 -36.45 79.85 L-36.4 80.95 -37.0 81.0 -38.4 80.6 M-48.4 91.0 L-48.45 90.5 -48.5 90.5 -48.55 90.4 -48.65 90.05 -48.55 90.05 -48.75 88.7 -48.75 87.7 -48.95 85.5 -49.05 85.5 -47.4 84.9 -48.7 86.8 -48.4 91.0 M-38.7 81.7 L-36.65 82.55 -37.35 84.4 -37.5 84.8 Q-38.05 85.35 -38.05 85.7 L-38.05 86.15 -38.05 86.2 -39.0 89.05 -40.3 90.05 -40.2 90.05 -41.45 92.95 -41.35 95.6 -41.8 92.6 -39.1 83.15 -38.7 81.7 M-6.1 113.1 L-5.85 115.45 Q-5.85 115.75 -6.4 116.2 L-6.1 113.1 M-31.15 110.8 L-34.5 109.6 -33.45 109.65 -31.15 110.8 M-36.75 108.8 L-37.25 108.6 -37.05 108.75 -38.25 108.45 -40.15 101.2 -40.55 99.35 -40.45 99.55 -40.2 99.35 -40.3 98.75 -40.45 97.15 -40.8 93.8 -40.5 94.15 -40.65 95.05 Q-40.65 96.55 -38.7 102.25 L-38.2 103.85 -38.15 104.1 Q-37.9 106.2 -37.35 107.65 -37.25 108.05 -37.25 107.3 L-37.25 106.75 -36.75 108.8 M-46.95 88.2 Q-46.95 93.5 -44.95 99.4 -43.4 104.1 -41.05 107.95 L-44.25 107.05 Q-45.65 105.1 -46.55 100.75 -47.8 91.6 -48.35 89.05 L-48.35 86.75 -47.35 86.75 -46.95 88.2 M-47.3 106.15 L-47.8 106.0 -47.7 105.65 -47.3 106.15 M-40.5 94.0 L-40.75 93.45 -40.85 93.45 -40.85 93.05 -40.2 91.75 -39.5 90.55 -40.5 94.0 M-5.1 71.1 L-5.1 71.0 -5.0 71.1 -5.1 71.1 M-21.85 89.85 L-21.85 89.0 Q-21.85 87.65 -19.6 85.55 L-18.05 84.5 -17.8 84.5 -17.6 84.65 -17.55 84.65 Q-17.4 84.9 -17.4 85.5 -17.4 85.2 -16.8 85.6 L-16.35 86.05 -16.0 86.35 -15.7 87.0 -15.85 87.45 -17.2 88.45 -18.35 89.4 -21.85 89.85 M-4.9 83.95 L-4.8 84.0 -4.6 84.35 -4.9 83.95" fill="#ac9264" fill-rule="evenodd" stroke="none"/>
    </g>
  </defs>
</svg>
