<?xml version="1.0" encoding="UTF-8" standalone="no"?>
<svg xmlns:ffdec="https://www.free-decompiler.com/flash" xmlns:xlink="http://www.w3.org/1999/xlink" ffdec:objectType="frame" height="1065.0px" width="1685.0px" xmlns="http://www.w3.org/2000/svg">
  <g transform="matrix(1.0, 0.0, 0.0, 1.0, 182.5, 622.5)">
    <use ffdec:characterId="2586" height="825.0" transform="matrix(1.0, 0.0, 0.0, 1.0, -182.5, -622.5)" width="1685.0" xlink:href="#shape0"/>
    <use ffdec:characterId="2588" height="485.0" id="am_Plummet" transform="matrix(1.0, 0.0, 0.0, 1.0, 217.5, -482.5)" width="945.0" xlink:href="#sprite0"/>
    <use ffdec:characterId="2589" height="244.9" transform="matrix(1.0, 0.0, 0.0, 1.0, 617.4, 197.6)" width="625.1" xlink:href="#shape2"/>
  </g>
  <defs>
    <g id="shape0" transform="matrix(1.0, 0.0, 0.0, 1.0, 182.5, 622.5)">
      <path d="M1220.0 -620.0 L1220.0 100.0" fill="none" stroke="#ffff00" stroke-linecap="round" stroke-linejoin="round" stroke-width="5.0"/>
      <path d="M-180.0 -40.0 L620.0 -40.0 620.0 200.0" fill="none" stroke="#00ffff" stroke-linecap="round" stroke-linejoin="round" stroke-width="5.0"/>
      <path d="M-180.0 100.0 L1500.0 100.0" fill="none" stroke="#666666" stroke-linecap="round" stroke-linejoin="round" stroke-width="5.0"/>
    </g>
    <g id="sprite0" transform="matrix(1.0, 0.0, 0.0, 1.0, 2.5, 482.5)">
      <use ffdec:characterId="2587" height="485.0" transform="matrix(1.0, 0.0, 0.0, 1.0, -2.5, -482.5)" width="945.0" xlink:href="#shape1"/>
    </g>
    <g id="shape1" transform="matrix(1.0, 0.0, 0.0, 1.0, 2.5, 482.5)">
      <path d="M940.0 -480.0 L940.0 0.0 0.0 0.0" fill="none" stroke="#ffffff" stroke-linecap="round" stroke-linejoin="round" stroke-width="5.0"/>
    </g>
    <g id="shape2" transform="matrix(1.0, 0.0, 0.0, 1.0, -617.4, -197.6)">
      <path d="M1240.0 440.0 L619.9 439.9 619.9 200.1" fill="none" stroke="#00ffff" stroke-linecap="round" stroke-linejoin="round" stroke-width="5.0"/>
    </g>
  </defs>
</svg>
