<?xml version="1.0" encoding="UTF-8" standalone="no"?>
<svg xmlns:ffdec="https://www.free-decompiler.com/flash" xmlns:xlink="http://www.w3.org/1999/xlink" ffdec:objectType="frame" height="211.55px" width="12.0px" xmlns="http://www.w3.org/2000/svg">
  <g transform="matrix(1.0, 0.0, 0.0, 1.0, 0.0, 1.0)">
    <use ffdec:characterId="19" height="211.55" transform="matrix(1.0, 0.0, 0.0, 1.0, 0.0, -1.0)" width="12.0" xlink:href="#shape0"/>
    <clipPath id="clip1">
      <path d="M 0,0 L 1.0,0 L 1.0,1.0 L 0,1.0 Z"/>
    </clipPath>
    <clipPath id="clip2">
      <path d="M 0,17.0 L 1.0,17.0 L 1.0,18.0 L 0,18.0 Z"/>
    </clipPath>
    <clipPath id="clip3">
      <path d="M 9.0,0 L 10.0,0 L 10.0,1.0 L 9.0,1.0 Z"/>
    </clipPath>
    <clipPath id="clip4">
      <path d="M 9.0,17.0 L 10.0,17.0 L 10.0,18.0 L 9.0,18.0 Z"/>
    </clipPath>
    <clipPath id="clip5">
      <path d="M 1.0,0 L 9.0,0 L 9.0,1.0 L 1.0,1.0 Z"/>
    </clipPath>
    <clipPath id="clip6">
      <path d="M 0,1.0 L 1.0,1.0 L 1.0,17.0 L 0,17.0 Z"/>
    </clipPath>
    <clipPath id="clip7">
      <path d="M 1.0,17.0 L 9.0,17.0 L 9.0,18.0 L 1.0,18.0 Z"/>
    </clipPath>
    <clipPath id="clip8">
      <path d="M 9.0,1.0 L 10.0,1.0 L 10.0,17.0 L 9.0,17.0 Z"/>
    </clipPath>
    <clipPath id="clip9">
      <path d="M 1.0,1.0 L 9.0,1.0 L 9.0,17.0 L 1.0,17.0 Z"/>
    </clipPath>
    <g ffdec:characterId="21" id="am_ScrollButton">
      <use clip-path="url(#clip1)" transform="matrix(1.0, 0.0, 0.0, 1.0, 1.0, 0.0)" xlink:href="#sprite0"/>
      <use clip-path="url(#clip2)" transform="matrix(1.0, 0.0, 0.0, 1.0, 1.0, 0.0)" xlink:href="#sprite0"/>
      <use clip-path="url(#clip3)" transform="matrix(1.0, 0.0, 0.0, 1.0, 1.0, 0.0)" xlink:href="#sprite0"/>
      <use clip-path="url(#clip4)" transform="matrix(1.0, 0.0, 0.0, 1.0, 1.0, 0.0)" xlink:href="#sprite0"/>
      <use clip-path="url(#clip5)" transform="matrix(1.0, 0.0, 0.0, 1.0, 1.0, 0.0)" xlink:href="#sprite0"/>
      <use clip-path="url(#clip6)" transform="matrix(1.0, 0.0, 0.0, 1.0, 1.0, 0.0)" xlink:href="#sprite0"/>
      <use clip-path="url(#clip7)" transform="matrix(1.0, 0.0, 0.0, 1.0, 1.0, 0.0)" xlink:href="#sprite0"/>
      <use clip-path="url(#clip8)" transform="matrix(1.0, 0.0, 0.0, 1.0, 1.0, 0.0)" xlink:href="#sprite0"/>
      <use clip-path="url(#clip9)" transform="matrix(1.0, 0.0, 0.0, 1.0, 1.0, 0.0)" xlink:href="#sprite0"/>
    </g>
  </g>
  <defs>
    <g id="shape0" transform="matrix(1.0, 0.0, 0.0, 1.0, 0.0, 1.0)">
      <path d="M3.25 -1.0 L8.75 -1.0 Q12.1 -1.0 12.0 3.55 L12.0 206.45 12.0 207.05 Q11.9 210.55 8.75 210.55 L3.25 210.55 Q0.1 210.55 0.0 207.05 L0.0 206.45 0.0 3.55 Q-0.1 -1.0 3.25 -1.0" fill="#000000" fill-rule="evenodd" stroke="none"/>
    </g>
    <g id="sprite0" transform="matrix(1.0, 0.0, 0.0, 1.0, 0.0, 0.0)">
      <use ffdec:characterId="20" height="18.0" transform="matrix(1.0, 0.0, 0.0, 1.0, 0.0, 0.0)" width="10.0" xlink:href="#shape1"/>
    </g>
    <g id="shape1" transform="matrix(1.0, 0.0, 0.0, 1.0, 0.0, 0.0)">
      <path d="M9.0 18.0 L8.9 18.0 0.95 18.0 0.0 18.0 0.0 17.0 0.0 1.05 0.0 1.0 0.95 1.0 1.0 1.0 1.0 1.05 1.0 2.85 1.0 6.35 1.0 17.0 8.9 17.0 9.0 17.0 9.0 18.0" fill="#b28e2d" fill-rule="evenodd" stroke="none"/>
      <path d="M9.0 17.0 L8.9 17.0 1.0 17.0 1.0 6.35 1.0 2.85 1.0 1.05 1.0 1.0 8.9 1.0 9.0 1.0 9.0 1.05 9.0 17.0" fill="#cdb53a" fill-rule="evenodd" stroke="none"/>
      <path d="M9.0 18.0 L9.0 17.0 9.0 1.05 9.0 1.0 8.9 1.0 1.0 1.0 0.95 1.0 0.0 1.0 0.0 0.0 0.95 0.0 8.9 0.0 10.0 0.0 10.0 1.05 10.0 16.0 10.0 16.5 10.0 17.0 10.0 18.0 9.0 18.0" fill="#eee2bc" fill-rule="evenodd" stroke="none"/>
    </g>
  </defs>
</svg>
