<?xml version="1.0" encoding="UTF-8" standalone="no"?>
<svg xmlns:ffdec="https://www.free-decompiler.com/flash" xmlns:xlink="http://www.w3.org/1999/xlink" ffdec:objectType="frame" height="399.95px" width="200.0px" xmlns="http://www.w3.org/2000/svg">
  <g transform="matrix(1.0, 0.0, 0.0, 1.0, 100.0, 242.5)">
    <use ffdec:characterId="159" height="399.95" transform="matrix(1.0, 0.0, 0.0, 1.0, -100.0, -242.5)" width="200.0" xlink:href="#shape0"/>
  </g>
  <defs>
    <g id="shape0" transform="matrix(1.0, 0.0, 0.0, 1.0, 100.0, 242.5)">
      <path d="M6.75 -69.3 Q5.85 -90.7 2.0 -103.25 -8.85 -95.45 -22.85 -78.95 -35.0 -64.7 -35.0 -63.25 -35.0 -61.15 -33.45 -57.95 -31.1 -53.25 -27.0 -53.25 -24.4 -53.25 -14.95 -66.15 -10.05 -72.85 -3.5 -82.25 L-3.0 -80.75 -3.0 20.4 -25.15 22.15 Q-34.95 23.25 -38.9 24.6 -43.0 26.0 -43.0 28.5 -43.0 31.85 -41.6 33.15 -40.9 33.8 -38.0 34.75 L-22.0 34.75 Q-10.55 31.5 -2.6 29.8 L-2.0 30.95 Q-0.95 32.1 2.0 32.75 L4.65 31.8 Q6.0 31.25 6.5 31.25 L6.55 28.2 8.05 28.05 Q11.7 27.75 43.75 27.75 L44.45 25.95 Q44.75 25.2 44.75 22.25 44.75 19.05 43.2 18.0 42.25 17.4 39.75 16.75 L6.6 19.6 7.0 -35.5 6.75 -69.3 M37.5 -142.1 L37.5 -156.35 Q41.0 -156.45 45.4 -159.3 49.5 -162.0 49.5 -163.5 L49.25 -165.1 49.0 -165.35 Q35.9 -162.75 33.55 -160.0 32.45 -158.75 32.35 -156.55 L32.5 -151.5 Q32.5 -147.4 32.65 -146.25 33.15 -142.9 35.0 -140.85 L36.55 -141.65 37.5 -142.1 M9.05 -155.95 L9.85 -156.1 13.0 -156.25 13.0 -148.75 11.0 -146.5 5.0 -146.5 Q4.35 -148.5 4.15 -151.0 L4.1 -151.95 4.0 -155.5 9.05 -155.95 M18.0 -152.5 Q18.0 -156.85 15.05 -159.9 12.3 -162.75 8.5 -163.2 4.6 -163.65 1.95 -161.15 1.0 -160.25 0.35 -159.0 -1.0 -156.55 -1.0 -152.75 L-1.0 -151.5 -0.95 -149.1 -0.75 -146.75 Q-0.2 -144.1 1.4 -142.5 2.25 -141.6 3.5 -141.0 L12.5 -141.0 Q16.7 -143.8 17.65 -146.9 18.0 -148.05 18.0 -152.5 M100.0 157.45 L-100.0 157.45 -100.0 -242.5 100.0 -242.5 100.0 157.45 M-21.0 -164.05 Q-24.9 -164.5 -27.55 -162.0 -30.5 -159.2 -30.5 -153.6 L-30.25 -147.6 Q-29.4 -143.45 -26.0 -141.85 L-17.0 -141.85 Q-12.8 -144.65 -11.85 -147.75 -11.5 -148.9 -11.5 -153.35 -11.5 -157.7 -14.45 -160.75 -17.2 -163.6 -21.0 -164.05 M-25.5 -156.35 L-20.45 -156.8 -16.5 -157.1 -16.5 -149.6 -18.5 -147.35 -24.5 -147.35 Q-25.15 -149.35 -25.35 -151.85 L-25.5 -156.35 M-52.5 -185.35 Q-48.0 -183.9 -46.85 -179.05 -46.5 -177.45 -46.5 -171.85 -46.5 -162.2 -49.35 -155.2 -53.8 -144.05 -64.35 -144.1 L-64.35 -144.35 Q-64.35 -144.85 -63.35 -147.1 L-63.35 -185.6 -52.5 -185.35 M-51.0 -190.85 Q-64.95 -191.15 -66.85 -190.0 -67.3 -189.75 -67.3 -189.0 -67.35 -188.35 -68.35 -188.1 L-68.35 -148.35 -69.15 -146.3 -69.35 -143.5 -69.1 -139.35 -64.35 -138.85 Q-50.0 -138.85 -44.5 -153.15 -41.5 -160.9 -41.5 -171.85 -41.5 -179.9 -42.05 -181.65 -43.65 -186.4 -51.0 -190.85" fill="#ff6600" fill-opacity="0.49803922" fill-rule="evenodd" stroke="none"/>
      <path d="M18.0 -152.5 Q18.0 -148.05 17.65 -146.9 16.7 -143.8 12.5 -141.0 L3.5 -141.0 Q2.25 -141.6 1.4 -142.5 -0.2 -144.1 -0.75 -146.75 L-0.95 -149.1 -1.0 -151.5 -1.0 -152.75 Q-1.0 -156.55 0.35 -159.0 1.0 -160.25 1.95 -161.15 4.6 -163.65 8.5 -163.2 12.3 -162.75 15.05 -159.9 18.0 -156.85 18.0 -152.5 M9.05 -155.95 L4.0 -155.5 4.1 -151.95 4.15 -151.0 Q4.35 -148.5 5.0 -146.5 L11.0 -146.5 13.0 -148.75 13.0 -156.25 9.85 -156.1 9.05 -155.95 M37.5 -142.1 L36.55 -141.65 35.0 -140.85 Q33.15 -142.9 32.65 -146.25 32.5 -147.4 32.5 -151.5 L32.35 -156.55 Q32.45 -158.75 33.55 -160.0 35.9 -162.75 49.0 -165.35 L49.25 -165.1 49.5 -163.5 Q49.5 -162.0 45.4 -159.3 41.0 -156.45 37.5 -156.35 L37.5 -142.1 M6.75 -69.3 L7.0 -35.5 6.6 19.6 39.75 16.75 Q42.25 17.4 43.2 18.0 44.75 19.05 44.75 22.25 44.75 25.2 44.45 25.95 L43.75 27.75 Q11.7 27.75 8.05 28.05 L6.55 28.2 6.5 31.25 Q6.0 31.25 4.65 31.8 L2.0 32.75 Q-0.95 32.1 -2.0 30.95 L-2.6 29.8 Q-10.55 31.5 -22.0 34.75 L-38.0 34.75 Q-40.9 33.8 -41.6 33.15 -43.0 31.85 -43.0 28.5 -43.0 26.0 -38.9 24.6 -34.95 23.25 -25.15 22.15 L-3.0 20.4 -3.0 -80.75 -3.5 -82.25 Q-10.05 -72.85 -14.95 -66.15 -24.4 -53.25 -27.0 -53.25 -31.1 -53.25 -33.45 -57.95 -35.0 -61.15 -35.0 -63.25 -35.0 -64.7 -22.85 -78.95 -8.85 -95.45 2.0 -103.25 5.85 -90.7 6.75 -69.3 M-51.0 -190.85 Q-43.65 -186.4 -42.05 -181.65 -41.5 -179.9 -41.5 -171.85 -41.5 -160.9 -44.5 -153.15 -50.0 -138.85 -64.35 -138.85 L-69.1 -139.35 -69.35 -143.5 -69.15 -146.3 -68.35 -148.35 -68.35 -188.1 Q-67.35 -188.35 -67.3 -189.0 -67.3 -189.75 -66.85 -190.0 -64.95 -191.15 -51.0 -190.85 M-52.5 -185.35 L-63.35 -185.6 -63.35 -147.1 Q-64.35 -144.85 -64.35 -144.35 L-64.35 -144.1 Q-53.8 -144.05 -49.35 -155.2 -46.5 -162.2 -46.5 -171.85 -46.5 -177.45 -46.85 -179.05 -48.0 -183.9 -52.5 -185.35 M-25.5 -156.35 L-25.35 -151.85 Q-25.15 -149.35 -24.5 -147.35 L-18.5 -147.35 -16.5 -149.6 -16.5 -157.1 -20.45 -156.8 -25.5 -156.35 M-21.0 -164.05 Q-17.2 -163.6 -14.45 -160.75 -11.5 -157.7 -11.5 -153.35 -11.5 -148.9 -11.85 -147.75 -12.8 -144.65 -17.0 -141.85 L-26.0 -141.85 Q-29.4 -143.45 -30.25 -147.6 L-30.5 -153.6 Q-30.5 -159.2 -27.55 -162.0 -24.9 -164.5 -21.0 -164.05" fill="#000000" fill-opacity="0.49803922" fill-rule="evenodd" stroke="none"/>
    </g>
  </defs>
</svg>
