<?xml version="1.0" encoding="UTF-8" standalone="no"?>
<svg xmlns:ffdec="https://www.free-decompiler.com/flash" xmlns:xlink="http://www.w3.org/1999/xlink" ffdec:objectType="frame" height="241.35px" width="337.6px" xmlns="http://www.w3.org/2000/svg">
  <g transform="matrix(1.0, 0.0, 0.0, 1.0, -0.6, 0.0)">
    <use ffdec:characterId="1022" height="241.35" transform="matrix(1.0, 0.0, 0.0, 1.0, 0.6, 0.0)" width="337.6" xlink:href="#shape0"/>
  </g>
  <defs>
    <g id="shape0" transform="matrix(1.0, 0.0, 0.0, 1.0, -0.6, 0.0)">
      <path d="M162.25 10.95 L162.5 8.0 164.0 8.0 Q166.1 17.15 165.3 26.5 163.5 47.2 175.75 63.5 L179.1 64.0 Q182.45 63.9 180.95 66.05 201.45 67.2 221.55 67.0 L224.7 65.75 337.85 63.75 338.2 65.5 323.5 68.1 313.35 68.15 311.65 68.4 311.05 68.9 Q310.25 70.75 308.35 71.2 L288.95 70.1 287.95 72.45 286.8 72.6 286.65 72.25 288.9 70.1 286.75 70.1 265.25 94.5 266.5 95.0 269.3 92.7 263.5 99.0 262.25 98.5 262.25 89.5 263.15 88.65 Q269.1 81.6 272.3 72.65 L273.6 70.6 273.05 69.95 256.4 69.8 253.45 69.4 253.3 68.95 262.65 68.45 281.2 68.15 Q275.55 71.35 273.7 77.7 L275.6 78.4 285.25 68.9 308.8 68.3 Q303.35 66.4 296.7 66.4 268.4 66.45 240.2 66.65 L233.5 66.6 231.5 66.5 226.65 67.05 226.55 67.1 Q225.35 67.1 224.55 67.6 223.7 68.05 223.7 68.7 L222.35 69.35 212.5 72.3 213.35 71.65 214.4 70.95 199.85 70.85 197.0 73.0 171.55 73.4 174.8 70.75 165.05 66.0 166.15 57.8 174.7 65.9 178.7 66.0 177.65 65.65 Q167.9 61.7 165.25 51.25 L162.95 41.0 162.25 34.75 162.25 10.95 M72.65 73.65 L73.75 75.25 2.5 80.4 2.5 77.6 19.5 76.7 26.85 76.1 50.95 73.95 72.65 73.65 M57.8 56.0 L59.2 62.4 59.5 72.5 58.5 73.0 56.5 56.0 57.8 56.0 M211.4 109.8 L210.75 107.0 Q211.85 96.15 207.2 86.4 L206.35 84.7 206.1 84.0 Q206.0 83.8 205.75 83.8 L204.8 82.6 206.0 81.35 206.8 81.3 206.05 81.3 215.1 75.3 Q214.15 76.15 213.4 77.15 210.05 81.8 210.55 87.8 L211.15 90.45 Q213.5 99.9 211.5 109.2 L211.4 109.8 M139.8 82.4 L99.2 84.9 98.9 84.5 98.1 84.3 91.8 83.2 90.8 80.0 84.45 74.6 81.25 72.55 88.75 74.35 89.1 74.5 93.55 78.0 Q120.4 78.85 147.1 75.35 L166.7 73.5 167.55 74.25 139.8 82.4 M91.15 141.75 L89.7 145.5 89.6 144.05 88.2 126.15 Q86.7 105.5 88.45 84.9 L90.7 84.7 Q92.6 89.3 89.75 94.0 L89.7 94.2 89.85 94.7 Q90.05 94.95 90.4 95.05 L91.9 132.3 Q92.0 134.7 91.5 137.4 91.1 139.5 91.15 141.75 M225.35 71.0 L225.7 75.15 224.4 78.6 224.3 76.35 223.25 80.05 224.55 81.2 Q224.5 80.6 224.75 80.25 L225.25 80.2 227.0 87.1 227.05 88.05 226.1 95.25 Q225.6 98.15 225.7 100.9 226.6 122.65 229.8 143.9 L218.9 146.75 Q216.1 136.1 217.15 124.9 217.5 121.5 217.15 118.3 215.15 99.05 213.4 79.65 213.3 78.7 213.75 78.1 218.0 72.5 225.35 71.0 M209.1 81.45 L209.1 81.25 209.05 81.25 209.1 81.45 M137.8 142.7 L135.25 147.15 134.0 147.05 134.6 145.25 136.25 143.85 137.8 142.7 M142.25 147.65 L148.1 141.5 144.75 146.35 145.0 147.5 146.35 148.0 142.25 147.65 M196.5 144.75 L197.55 144.75 198.05 149.25 196.85 148.9 Q196.3 148.5 196.3 148.0 L196.5 144.75 M114.65 179.55 L107.1 186.1 105.5 186.2 Q105.4 180.8 110.1 177.1 113.5 174.4 117.0 171.8 120.85 168.95 125.1 170.35 L126.2 171.8 114.8 179.45 115.85 177.25 114.65 179.55" fill="#5f5341" fill-rule="evenodd" stroke="none"/>
      <path d="M256.4 69.8 L273.05 69.95 273.6 70.6 272.3 72.65 235.5 73.75 235.0 78.0 Q236.75 85.65 233.65 93.65 232.2 97.45 232.3 101.7 232.5 109.0 233.65 116.3 235.65 128.75 233.85 141.1 L233.6 144.15 231.75 145.0 Q232.9 124.35 229.6 103.7 229.15 100.85 229.55 98.25 L230.25 94.05 Q233.25 87.5 231.9 80.95 L231.75 80.15 231.4 77.95 Q231.4 74.8 233.6 72.6 235.75 70.4 238.8 70.4 L242.35 70.05 256.4 69.8 M269.3 92.7 L266.5 95.0 265.25 94.5 286.75 70.1 288.9 70.1 286.65 72.25 286.8 72.6 287.95 72.45 288.95 70.1 308.35 71.2 Q310.25 70.75 311.05 68.9 L313.35 68.15 323.5 68.1 Q317.25 72.4 309.35 72.85 299.55 73.05 290.75 72.75 283.15 82.2 273.75 90.45 270.8 93.05 269.3 92.7 M244.55 144.15 L286.05 144.4 Q296.15 144.3 306.0 142.75 320.7 140.2 335.6 139.75 333.7 141.4 331.3 142.1 L320.55 144.9 Q300.9 149.15 280.9 146.9 L255.6 146.7 Q248.65 148.1 242.2 150.7 234.3 153.95 226.35 153.65 L231.4 149.1 232.75 148.35 233.45 148.0 244.55 144.15 M219.6 155.9 Q213.55 161.95 208.95 169.2 207.65 171.3 207.0 173.65 203.4 186.35 205.0 199.85 207.4 220.55 206.1 241.35 L204.75 241.35 203.1 205.15 202.45 196.85 201.9 192.3 Q201.05 186.35 201.8 180.85 L201.75 179.4 202.35 171.85 Q202.2 166.3 206.6 162.85 L206.7 162.75 206.95 162.55 209.35 161.35 210.2 161.9 219.6 155.9 M145.75 150.45 L176.65 152.75 176.4 155.0 145.6 153.1 Q136.8 152.35 128.1 153.25 L103.45 155.35 103.5 152.55 112.8 152.0 117.3 151.3 Q131.4 148.55 145.75 150.45 M96.5 152.0 L98.55 153.3 97.85 153.75 93.1 153.95 53.65 155.2 17.5 157.25 Q13.0 157.75 13.95 155.15 L55.4 152.5 59.85 152.2 Q77.85 149.8 96.5 152.0 M158.55 126.9 L167.2 126.2 173.55 125.25 Q176.1 124.85 178.65 125.25 181.95 125.0 181.25 126.75 L156.25 131.05 148.1 141.5 142.25 147.65 135.25 147.15 137.8 142.7 147.0 132.0 148.7 130.45 153.25 127.25 157.75 126.75 158.55 126.9 M186.25 155.05 L192.6 155.0 194.7 157.05 196.55 157.15 197.75 153.0 204.65 153.05 205.6 153.15 205.85 152.95 205.9 152.9 206.7 152.45 207.3 152.5 Q208.0 154.05 205.8 155.75 L207.3 158.75 207.15 159.4 Q206.3 162.8 203.2 162.4 L203.15 162.3 203.35 161.15 199.5 161.05 198.4 160.25 195.4 159.8 Q191.6 159.8 188.95 158.4 186.25 157.0 186.25 155.05 M217.55 150.2 L228.75 146.75 216.8 154.8 214.45 156.95 216.05 155.25 210.55 158.55 209.2 155.15 210.5 154.15 211.2 153.6 211.5 152.15 217.55 150.2 M205.6 158.3 L205.45 158.1 205.15 158.2 205.6 158.3 M61.0 50.0 L61.85 54.85 Q61.8 60.25 64.8 64.65 65.45 65.65 66.6 66.05 69.2 67.2 68.25 68.75 L66.8 68.8 Q58.6 61.1 59.5 50.0 L61.0 50.0 M104.9 149.75 L104.7 150.45 96.8 151.4 96.45 151.1 96.35 147.9 96.5 146.25 97.45 143.15 103.3 138.25 106.9 137.65 120.35 137.9 120.6 137.8 120.45 137.9 Q111.4 141.7 105.45 148.7 105.1 149.15 104.9 149.75 M114.65 179.55 L114.8 179.45 126.2 171.8 127.0 171.0 126.65 173.6 Q126.7 174.4 126.4 175.05 122.35 183.7 112.8 186.15 L107.75 188.15 106.25 187.25 107.1 186.1 114.65 179.55" fill="#73654f" fill-rule="evenodd" stroke="none"/>
      <path d="M162.25 10.95 L162.25 34.75 162.95 41.0 165.25 51.25 164.7 54.9 164.5 56.05 164.75 56.1 164.95 56.45 165.3 56.3 Q166.35 55.75 166.2 56.95 L166.15 57.8 165.05 66.0 174.8 70.75 171.55 73.4 197.0 73.0 199.85 70.85 213.35 71.65 212.5 72.3 222.35 69.35 223.7 68.7 Q223.7 68.05 224.55 67.6 225.35 67.1 226.55 67.1 L226.65 67.05 231.5 66.5 233.5 66.6 240.2 66.65 Q268.4 66.45 296.7 66.4 303.35 66.4 308.8 68.3 L285.25 68.9 275.6 78.4 273.7 77.7 Q275.55 71.35 281.2 68.15 L262.65 68.45 253.3 68.95 253.45 69.4 256.4 69.8 242.35 70.05 233.5 69.75 231.25 69.5 230.75 77.85 231.4 77.95 231.75 80.15 231.6 86.5 229.95 88.85 230.25 94.05 229.55 98.25 Q229.15 100.85 229.6 103.7 232.9 124.35 231.75 145.0 L233.6 144.15 233.85 141.1 236.2 141.7 235.3 141.1 237.75 139.0 252.0 138.4 259.55 138.6 Q271.25 136.7 283.35 139.55 L283.55 140.4 303.65 139.15 Q311.95 138.4 319.35 134.9 323.8 132.8 326.45 135.15 322.7 137.25 318.55 138.6 297.0 145.4 274.25 142.7 259.95 140.75 245.8 143.0 L244.55 144.15 233.45 148.0 232.8 148.1 232.75 148.35 231.4 149.1 219.6 155.9 210.2 161.9 209.35 161.35 206.95 162.55 206.7 162.75 206.6 162.85 Q202.2 166.3 202.35 171.85 L201.75 179.4 201.8 180.85 Q201.05 186.35 201.9 192.3 L202.45 196.85 203.55 224.5 202.15 225.7 201.5 231.75 199.75 232.0 Q199.95 217.8 199.55 203.55 199.45 200.5 199.7 197.55 201.2 180.9 193.15 166.65 L190.7 162.05 Q190.4 161.5 191.2 161.1 L192.25 160.5 187.75 160.0 186.4 158.25 Q181.75 152.55 174.5 150.95 L167.1 150.3 145.75 150.45 Q131.4 148.55 117.3 151.3 L112.8 152.0 96.5 152.0 Q77.85 149.8 59.85 152.2 L55.4 152.5 13.95 155.15 2.45 155.35 2.35 154.55 1.95 153.35 Q1.45 152.9 0.6 152.8 L16.8 151.85 Q17.5 151.45 18.25 151.6 L46.85 150.6 46.25 149.0 48.4 149.45 Q52.65 149.7 56.9 149.4 73.75 150.45 87.45 141.9 87.4 126.05 86.55 110.15 86.35 106.25 85.55 102.4 83.1 90.55 83.05 78.7 L72.65 73.65 50.95 73.95 Q39.45 73.7 28.25 75.65 L26.85 76.1 19.5 76.7 54.5 70.25 55.9 62.2 Q55.35 61.05 55.3 59.8 L54.95 53.45 Q54.5 46.9 59.6 45.0 L57.8 56.0 56.5 56.0 58.5 73.0 59.5 72.5 59.2 62.4 60.75 63.75 60.3 64.65 63.5 69.75 70.2 69.9 80.15 70.1 Q93.6 70.15 107.1 69.35 L157.25 66.5 160.3 62.6 161.25 56.45 161.15 43.35 Q161.0 36.75 160.0 30.05 157.75 15.05 156.5 0.0 L158.0 0.0 161.95 10.9 162.25 10.95 M107.55 131.4 L110.55 131.55 111.65 132.5 Q121.75 130.3 128.4 137.8 131.6 141.4 135.1 141.95 L137.8 138.8 150.25 125.3 150.8 125.0 153.85 124.3 175.2 120.5 Q181.3 119.55 186.35 122.1 188.9 123.3 190.65 125.55 196.1 132.5 198.3 141.5 L198.65 142.5 209.3 141.3 209.4 140.9 Q209.6 139.25 211.0 139.75 L211.25 139.9 211.75 127.85 212.0 116.75 214.95 145.8 218.9 146.75 229.8 143.9 Q226.6 122.65 225.7 100.9 225.6 98.15 226.1 95.25 L227.05 88.05 227.0 87.1 225.25 80.2 224.75 80.25 Q224.5 80.6 224.55 81.2 L223.25 80.05 224.3 76.35 224.4 78.6 225.7 75.15 225.35 71.0 225.3 70.5 224.2 70.9 221.35 71.9 215.1 75.3 206.05 81.3 206.0 81.35 204.8 82.6 203.8 84.05 203.5 84.25 202.2 84.35 202.2 83.8 Q202.5 82.75 200.8 82.95 L195.5 81.25 168.2 79.8 Q160.95 81.8 153.25 82.0 L151.9 82.3 Q147.95 83.9 145.5 81.95 L139.8 82.4 167.55 74.25 166.7 73.5 147.1 75.35 Q120.4 78.85 93.55 78.0 L89.1 74.5 89.15 74.5 Q89.25 73.05 88.75 74.35 L81.25 72.55 84.45 74.6 90.8 80.0 91.8 83.2 98.1 84.3 98.9 84.5 99.2 84.9 97.2 86.5 97.4 92.0 94.55 94.3 93.4 91.8 Q91.6 105.65 93.85 121.05 95.05 129.45 94.0 137.8 93.45 142.1 91.55 143.65 L91.15 141.75 Q91.1 139.5 91.5 137.4 92.0 134.7 91.9 132.3 L90.4 95.05 Q90.05 94.95 89.85 94.7 L89.7 94.2 89.75 94.0 Q92.6 89.3 90.7 84.7 L88.45 84.9 Q86.7 105.5 88.2 126.15 L89.6 144.05 Q87.8 148.95 83.5 149.95 L89.25 150.0 Q89.05 150.7 89.8 150.7 L91.0 150.85 90.0 148.2 94.8 145.9 94.45 143.75 Q97.05 137.75 102.55 133.85 L102.5 131.7 107.55 131.4 M195.1 78.85 L193.9 78.55 187.35 79.15 195.1 78.85 M211.6 147.6 L212.15 147.25 212.3 146.35 211.6 147.6 M148.1 141.5 L156.25 131.05 181.25 126.75 Q181.95 125.0 178.65 125.25 176.1 124.85 173.55 125.25 L167.2 126.2 158.55 126.9 158.75 126.7 157.75 126.75 153.25 127.25 151.1 127.45 150.05 128.35 147.0 132.0 137.8 142.7 136.25 143.85 Q135.15 143.85 134.35 144.5 133.55 145.1 133.55 146.0 L133.7 146.9 134.0 147.05 135.25 147.15 142.25 147.65 146.35 148.0 145.0 147.5 144.75 146.35 148.1 141.5 M168.45 144.45 L182.5 144.55 193.65 146.15 Q193.8 142.05 192.6 137.05 190.8 129.45 183.25 129.0 L182.35 129.9 156.3 133.2 155.65 135.6 Q153.2 139.0 150.1 142.25 147.85 144.6 148.6 147.35 L156.5 147.25 157.65 146.25 161.5 145.25 Q164.2 139.0 170.8 136.95 L173.25 136.2 168.45 144.45 M191.0 131.6 L192.15 134.65 192.45 135.25 191.0 131.6 M197.55 144.75 L196.5 143.85 196.5 144.75 196.3 148.0 196.0 150.1 198.05 149.25 197.55 144.75 M186.25 155.05 Q186.25 157.0 188.95 158.4 191.6 159.8 195.4 159.8 L196.05 160.75 198.7 162.15 199.5 161.05 203.35 161.15 203.15 162.3 203.2 162.4 Q206.3 162.8 207.15 159.4 L207.3 158.75 205.8 155.75 Q208.0 154.05 207.3 152.5 L206.7 152.45 203.25 152.3 205.9 152.9 205.85 152.95 204.65 153.05 197.75 153.0 181.7 152.3 186.25 155.05 M200.05 174.3 L202.95 162.75 Q198.75 166.8 199.85 172.85 L200.05 174.3 M211.5 152.15 L211.2 153.6 210.5 154.15 209.2 155.15 210.55 158.55 216.05 155.25 214.45 156.95 216.8 154.8 228.75 146.75 217.55 150.2 214.95 150.15 211.2 151.85 211.5 152.15 M93.6 86.05 L93.05 86.05 93.3 86.65 93.6 86.05 M88.75 79.35 L88.45 82.8 90.1 83.25 88.75 79.35 M104.9 149.75 L130.75 148.8 129.95 147.05 129.0 147.5 122.55 138.5 120.45 137.9 120.6 137.8 120.35 137.9 106.9 137.65 103.3 138.25 97.45 143.15 97.55 142.65 96.3 146.65 96.35 147.9 96.45 151.1 96.8 151.4 104.7 150.45 104.9 149.75 M131.35 143.7 L126.4 139.0 132.55 146.2 132.55 145.05 Q132.55 144.5 132.2 144.1 131.85 143.7 131.35 143.7 M133.45 147.95 L133.7 148.3 133.75 148.1 133.45 147.95 M112.5 134.5 L120.8 135.25 115.8 134.1 106.15 134.55 103.35 136.25 106.3 135.45 108.1 135.7 110.35 134.75 112.5 134.5" fill="#534939" fill-rule="evenodd" stroke="none"/>
      <path d="M164.7 54.9 L165.3 56.3 164.95 56.45 164.75 56.1 164.5 56.05 164.7 54.9 M211.6 111.4 L211.4 109.8 211.5 109.2 211.6 111.4 M195.1 78.85 L187.35 79.15 193.9 78.55 195.1 78.85 M224.2 70.9 L225.3 70.5 224.2 70.9 M238.8 70.4 L233.5 69.75 242.35 70.05 238.8 70.4 M148.7 130.45 L147.0 132.0 150.05 128.35 148.7 130.45 M96.35 147.9 L96.3 146.65 96.5 146.25 96.35 147.9" fill="#828a8c" fill-rule="evenodd" stroke="none"/>
      <path d="M107.55 131.4 L107.5 125.8 108.25 124.85 107.3 124.6 107.25 123.1 108.25 121.45 105.75 117.2 Q104.3 109.95 109.6 105.6 L101.75 98.6 101.95 96.85 111.25 94.75 Q112.0 92.5 107.7 92.85 L102.7 93.5 102.75 92.35 105.75 87.75 Q106.6 87.05 109.9 86.85 L129.0 85.4 128.85 85.85 128.75 86.25 Q133.1 89.4 139.25 88.45 L151.35 87.8 153.6 91.6 Q159.55 94.0 164.15 89.9 L165.75 87.75 160.25 86.5 172.45 87.1 176.25 86.85 177.3 85.65 179.45 85.45 182.85 91.25 198.25 84.25 198.7 85.9 196.8 87.15 Q195.25 91.1 199.5 94.0 L201.65 91.8 198.75 89.75 205.75 89.25 200.9 84.3 200.8 82.95 Q202.5 82.75 202.2 83.8 L202.2 84.35 203.5 84.25 203.8 84.05 Q208.75 90.2 207.85 97.85 L207.75 99.5 204.0 98.2 203.0 94.0 Q197.75 96.75 200.25 102.0 L200.75 103.0 205.5 103.25 207.75 100.95 208.35 103.3 210.75 107.0 211.4 109.8 211.6 111.4 212.0 116.75 211.75 127.85 211.0 139.75 Q209.6 139.25 209.4 140.9 L209.3 141.3 198.65 142.5 198.3 141.5 Q199.7 139.55 202.9 139.1 205.1 138.9 206.15 136.8 208.0 132.95 207.75 128.5 207.25 119.45 205.8 110.35 L204.5 113.25 Q195.65 110.4 191.45 101.95 191.05 101.1 189.9 100.95 L181.15 99.7 178.25 96.5 169.5 96.75 Q166.75 101.45 161.4 101.4 L149.75 102.0 149.0 96.75 137.85 97.45 Q134.7 98.05 132.8 100.95 131.8 102.4 131.5 104.25 L125.5 104.75 Q123.55 111.7 119.25 116.85 117.9 118.5 116.0 119.8 L113.5 121.65 112.6 126.8 111.1 127.8 111.0 130.15 124.25 130.55 Q125.45 130.85 124.35 131.95 L127.5 133.75 127.65 134.75 131.0 137.7 134.5 135.0 137.8 138.8 135.1 141.95 Q131.6 141.4 128.4 137.8 121.75 130.3 111.65 132.5 L110.55 131.55 107.55 131.4 M164.75 120.0 Q164.75 120.95 163.8 121.65 162.85 122.3 161.5 122.3 160.15 122.3 159.2 121.65 158.25 120.95 158.25 120.0 158.25 119.05 159.2 118.4 160.15 117.7 161.5 117.7 162.85 117.7 163.8 118.4 164.75 119.05 164.75 120.0 M200.0 115.2 Q201.15 115.2 201.95 115.75 202.75 116.3 202.75 117.1 202.75 117.9 201.95 118.45 201.15 119.0 200.0 119.0 198.85 119.0 198.05 118.45 197.25 117.9 197.25 117.1 197.25 116.3 198.05 115.75 198.85 115.2 200.0 115.2 M145.4 100.0 L146.75 103.75 136.5 106.2 137.3 101.85 137.25 101.55 137.45 100.95 137.75 99.25 145.4 100.0 M103.35 112.0 L102.3 111.65 99.4 109.05 99.85 102.0 Q101.8 101.25 103.3 102.85 107.65 107.5 104.5 112.25 L103.35 112.0" fill="#5e492f" fill-rule="evenodd" stroke="none"/>
      <path d="M200.8 82.95 L200.9 84.3 205.75 89.25 198.75 89.75 201.65 91.8 199.5 94.0 Q195.25 91.1 196.8 87.15 L198.7 85.9 198.25 84.25 182.85 91.25 179.45 85.45 177.3 85.65 176.25 86.85 172.45 87.1 160.25 86.5 165.75 87.75 164.15 89.9 Q159.55 94.0 153.6 91.6 L151.35 87.8 139.25 88.45 Q133.1 89.4 128.75 86.25 L128.85 85.85 129.0 85.4 109.9 86.85 Q106.6 87.05 105.75 87.75 L102.75 92.35 102.7 93.5 107.7 92.85 Q112.0 92.5 111.25 94.75 L101.95 96.85 101.75 98.6 109.6 105.6 Q104.3 109.95 105.75 117.2 L108.25 121.45 107.25 123.1 107.3 124.6 108.25 124.85 107.5 125.8 107.55 131.4 102.5 131.7 102.55 133.85 Q97.05 137.75 94.45 143.75 L94.8 145.9 90.0 148.2 91.0 150.85 89.8 150.7 Q89.05 150.7 89.25 150.0 L89.7 145.5 91.15 141.75 91.55 143.65 Q93.45 142.1 94.0 137.8 95.05 129.45 93.85 121.05 91.6 105.65 93.4 91.8 L94.55 94.3 97.4 92.0 97.2 86.5 99.2 84.9 139.8 82.4 145.5 81.95 Q147.95 83.9 151.9 82.3 L153.25 82.0 Q160.95 81.8 168.2 79.8 L195.5 81.25 200.8 82.95 M210.75 107.0 L208.35 103.3 207.75 100.95 205.5 103.25 200.75 103.0 200.25 102.0 Q197.75 96.75 203.0 94.0 L204.0 98.2 207.75 99.5 207.85 97.85 Q208.75 90.2 203.8 84.05 L204.8 82.6 205.75 83.8 206.35 84.7 207.2 86.4 Q211.85 96.15 210.75 107.0 M103.35 112.0 L104.5 112.25 Q107.65 107.5 103.3 102.85 101.8 101.25 99.85 102.0 L99.4 109.05 102.3 111.65 103.05 113.45 103.35 112.0 M95.15 114.35 L95.05 113.25 95.15 114.3 95.15 114.35" fill="#55422b" fill-rule="evenodd" stroke="none"/>
      <path d="M137.8 138.8 L134.5 135.0 131.0 137.7 127.65 134.75 127.5 133.75 124.35 131.95 Q125.45 130.85 124.25 130.55 L111.0 130.15 111.1 127.8 112.6 126.8 113.5 121.65 116.0 119.8 Q117.9 118.5 119.25 116.85 123.55 111.7 125.5 104.75 L131.5 104.25 Q131.8 102.4 132.8 100.95 134.7 98.05 137.85 97.45 L149.0 96.75 149.75 102.0 161.4 101.4 Q166.75 101.45 169.5 96.75 L178.25 96.5 181.15 99.7 189.9 100.95 Q191.05 101.1 191.45 101.95 195.65 110.4 204.5 113.25 L205.8 110.35 Q207.25 119.45 207.75 128.5 208.0 132.95 206.15 136.8 205.1 138.9 202.9 139.1 199.7 139.55 198.3 141.5 196.1 132.5 190.65 125.55 188.9 123.3 186.35 122.1 181.3 119.55 175.2 120.5 L153.85 124.3 150.8 125.0 150.25 125.3 137.8 138.8 M200.0 115.2 Q198.85 115.2 198.05 115.75 197.25 116.3 197.25 117.1 197.25 117.9 198.05 118.45 198.85 119.0 200.0 119.0 201.15 119.0 201.95 118.45 202.75 117.9 202.75 117.1 202.75 116.3 201.95 115.75 201.15 115.2 200.0 115.2 M164.75 120.0 Q164.75 119.05 163.8 118.4 162.85 117.7 161.5 117.7 160.15 117.7 159.2 118.4 158.25 119.05 158.25 120.0 158.25 120.95 159.2 121.65 160.15 122.3 161.5 122.3 162.85 122.3 163.8 121.65 164.75 120.95 164.75 120.0 M145.4 100.0 L137.75 99.25 137.45 100.95 137.25 101.55 137.3 101.85 136.5 106.2 146.75 103.75 145.4 100.0" fill="#644e33" fill-rule="evenodd" stroke="none"/>
      <path d="M89.7 145.5 L89.25 150.0 83.5 149.95 Q87.8 148.95 89.6 144.05 L89.7 145.5 M206.05 81.3 L206.8 81.3 206.0 81.35 206.05 81.3 M205.75 83.8 Q206.0 83.8 206.1 84.0 L206.35 84.7 205.75 83.8 M209.1 81.45 L209.05 81.25 209.1 81.25 209.1 81.45 M211.6 147.6 L212.3 146.35 212.15 147.25 211.6 147.6 M158.55 126.9 L157.75 126.75 158.75 126.7 158.55 126.9 M153.25 127.25 L148.7 130.45 150.05 128.35 151.1 127.45 153.25 127.25 M191.0 131.6 L192.45 135.25 192.15 134.65 191.0 131.6 M197.55 144.75 L196.5 144.75 196.5 143.85 197.55 144.75 M196.3 148.0 Q196.3 148.5 196.85 148.9 L198.05 149.25 196.0 150.1 196.3 148.0 M132.55 145.05 L132.55 146.2 126.4 139.0 131.35 143.7 132.55 145.05 M133.55 146.0 L134.6 145.25 134.0 147.05 133.7 146.9 133.55 146.0 M133.45 147.95 L133.75 148.1 133.7 148.3 133.45 147.95 M102.3 111.65 L103.35 112.0 103.05 113.45 102.3 111.65 M95.15 114.35 L95.15 114.3 95.05 113.25 95.15 114.35 M112.5 134.5 L115.8 134.1 120.8 135.25 112.5 134.5 M106.3 135.45 L110.35 134.75 108.1 135.7 106.3 135.45" fill="#807657" fill-rule="evenodd" stroke="none"/>
      <path d="M211.0 139.75 L211.75 127.85 211.25 139.9 211.0 139.75 M96.3 146.65 L97.55 142.65 97.45 143.15 96.5 146.25 96.3 146.65 M115.8 134.1 L112.5 134.5 110.35 134.75 106.3 135.45 103.35 136.25 106.15 134.55 115.8 134.1" fill="#696147" fill-rule="evenodd" stroke="none"/>
      <path d="M168.45 144.45 L173.25 136.2 170.8 136.95 Q164.2 139.0 161.5 145.25 L157.65 146.25 156.5 147.25 148.6 147.35 Q147.85 144.6 150.1 142.25 153.2 139.0 155.65 135.6 L156.3 133.2 182.35 129.9 183.25 129.0 Q190.8 129.45 192.6 137.05 193.8 142.05 193.65 146.15 L182.5 144.55 168.45 144.45 M120.45 137.9 L122.55 138.5 129.0 147.5 129.95 147.05 130.75 148.8 104.9 149.75 Q105.1 149.15 105.45 148.7 111.4 141.7 120.45 137.9" fill="#655945" fill-rule="evenodd" stroke="none"/>
      <path d="M206.7 152.45 L205.9 152.9 203.25 152.3 206.7 152.45 M200.05 174.3 L199.85 172.85 Q198.75 166.8 202.95 162.75 L200.05 174.3" fill="#696750" fill-rule="evenodd" stroke="none"/>
      <path d="M93.6 86.05 L93.3 86.65 93.05 86.05 93.6 86.05 M88.75 79.35 L90.1 83.25 88.45 82.8 88.75 79.35" fill="#757d80" fill-rule="evenodd" stroke="none"/>
      <path d="M131.35 143.7 Q131.85 143.7 132.2 144.1 132.55 144.5 132.55 145.05 L131.35 143.7 M136.25 143.85 L134.6 145.25 133.55 146.0 Q133.55 145.1 134.35 144.5 135.15 143.85 136.25 143.85" fill="#796146" fill-rule="evenodd" stroke="none"/>
    </g>
  </defs>
</svg>
