<?xml version="1.0" encoding="UTF-8" standalone="no"?>
<svg xmlns:ffdec="https://www.free-decompiler.com/flash" xmlns:xlink="http://www.w3.org/1999/xlink" ffdec:objectType="frame" height="62.3px" width="185.85px" xmlns="http://www.w3.org/2000/svg">
  <g transform="matrix(1.0, 0.0, 0.0, 1.0, 98.35, 30.45)">
    <use ffdec:characterId="524" height="8.9" transform="matrix(7.0, 0.0, 0.0, 7.0, -98.35, -30.45)" width="26.55" xlink:href="#shape0"/>
  </g>
  <defs>
    <g id="shape0" transform="matrix(1.0, 0.0, 0.0, 1.0, 14.05, 4.35)">
      <path d="M10.4 -4.05 L11.8 -4.05 11.45 -3.8 10.75 -3.4 10.0 -3.0 9.55 -2.8 Q9.05 -2.6 8.5 -2.55 L7.6 -2.5 6.5 -2.5 6.05 -2.45 5.7 -2.4 5.2 -2.4 4.3 -2.3 3.45 -2.2 2.4 -2.1 1.8 -2.0 1.25 -1.85 0.65 -1.7 -0.2 -1.45 -0.6 -1.35 -1.4 -1.05 -1.55 -1.0 -2.2 -0.8 -3.0 -0.6 Q-3.55 -0.45 -4.05 -0.2 L-4.35 -0.05 Q-4.55 0.0 -4.7 -0.05 L-4.85 -0.3 -4.55 -0.6 -4.0 -1.1 -3.35 -1.55 Q-3.0 -1.75 -2.6 -1.9 L-1.7 -2.25 -1.55 -2.3 -0.75 -2.55 0.2 -2.8 1.0 -3.05 1.85 -3.25 2.7 -3.4 3.55 -3.6 4.4 -3.7 5.2 -3.8 5.7 -3.85 6.1 -3.9 6.95 -3.95 7.75 -4.0 8.6 -4.05 10.4 -4.05 M-8.1 0.05 L-8.15 0.0 -8.15 -0.1 -7.9 -0.2 Q-7.55 -0.35 -7.15 -0.15 L-6.95 0.0 -7.05 0.1 Q-6.8 0.25 -6.75 0.6 L-6.75 0.7 -6.45 1.05 -6.35 1.35 -6.35 1.7 Q-6.65 2.0 -7.05 1.85 L-7.1 1.8 -7.2 1.75 -7.3 1.2 Q-7.4 0.6 -7.65 0.05 L-7.8 0.05 -8.1 0.05 M-13.1 2.8 L-12.35 2.8 -12.85 2.95 -12.85 3.4 -12.9 3.45 -13.05 3.45 -13.15 3.5 Q-13.5 3.7 -13.85 3.4 L-13.7 3.2 -13.5 2.95 -13.1 2.8" fill="#999999" fill-rule="evenodd" stroke="none"/>
      <path d="M-4.85 -0.3 L-4.95 -0.35 Q-4.45 -0.85 -3.85 -1.3 L-3.05 -1.75 Q-2.65 -2.0 -2.2 -2.15 L-1.55 -2.4 -1.35 -2.45 0.25 -2.95 1.85 -3.35 2.6 -3.55 3.4 -3.7 4.15 -3.8 5.0 -3.9 5.7 -4.0 5.85 -4.05 6.3 -4.1 10.1 -4.1 10.4 -4.05 8.6 -4.05 7.75 -4.0 6.95 -3.95 6.1 -3.9 5.7 -3.85 5.2 -3.8 4.4 -3.7 3.55 -3.6 2.7 -3.4 1.85 -3.25 1.0 -3.05 0.2 -2.8 -0.75 -2.55 -1.55 -2.3 -1.7 -2.25 -2.6 -1.9 Q-3.0 -1.75 -3.35 -1.55 L-4.0 -1.1 -4.55 -0.6 -4.85 -0.3 M10.0 -3.0 L9.7 -2.75 Q9.35 -2.4 9.0 -1.95 8.65 -1.55 8.35 -1.1 L7.9 -0.35 7.85 -0.35 7.75 -0.4 7.55 -0.4 6.5 -0.35 5.7 -0.25 5.4 -0.25 3.8 -0.05 3.0 0.0 2.15 0.15 1.35 0.25 0.5 0.35 0.05 0.45 -0.35 0.5 -1.75 0.85 -2.85 1.15 -4.55 1.75 -5.65 2.15 -5.7 1.9 Q-5.85 1.45 -6.05 1.1 -5.75 1.0 -5.5 0.9 -5.25 0.75 -5.05 0.5 -4.85 0.3 -4.7 0.0 L-4.7 -0.05 Q-4.55 0.0 -4.35 -0.05 L-4.05 -0.2 Q-3.55 -0.45 -3.0 -0.6 L-2.2 -0.8 -1.55 -1.0 -1.4 -1.05 -0.6 -1.35 -0.2 -1.45 -0.2 -1.4 -0.05 -1.35 0.05 -1.35 0.75 -1.45 1.4 -1.6 2.75 -1.8 3.55 -1.95 5.05 -2.15 5.7 -2.2 5.8 -2.2 6.65 -2.25 7.5 -2.25 8.75 -2.3 9.15 -2.3 9.0 -2.5 7.6 -2.5 8.5 -2.55 Q9.05 -2.6 9.55 -2.8 L10.0 -3.0 M-6.3 0.95 L-6.35 0.75 -6.25 0.9 -6.3 0.95 M-2.7 1.75 L-2.3 1.6 -1.55 1.4 -1.4 1.35 -0.3 1.1 -2.7 1.75 M6.5 -2.5 L5.7 -2.4 5.65 -2.4 3.95 -2.2 3.15 -2.1 2.5 -2.0 1.3 -1.8 0.65 -1.7 1.25 -1.85 1.8 -2.0 2.4 -2.1 3.45 -2.2 4.3 -2.3 5.2 -2.4 5.7 -2.4 6.05 -2.45 6.5 -2.5 M-8.1 0.05 L-8.25 0.05 -8.25 -0.2 Q-8.05 -0.3 -7.8 -0.35 -7.45 -0.35 -7.15 -0.15 -7.55 -0.35 -7.9 -0.2 L-8.15 -0.1 -8.15 0.0 -8.1 0.05 M-6.95 0.0 L-6.45 1.05 -6.75 0.7 -6.75 0.6 Q-6.8 0.25 -7.05 0.1 L-6.95 0.0 M-6.35 1.35 L-6.15 2.3 Q-6.1 2.75 -6.05 3.25 -6.25 3.1 -6.45 3.15 -6.8 3.15 -6.95 3.45 L-7.05 3.25 -7.15 2.7 -7.2 2.3 -7.35 1.5 -7.4 1.2 -7.4 1.15 -7.7 0.35 -7.8 0.05 -7.65 0.05 Q-7.4 0.6 -7.3 1.2 L-7.2 1.75 -7.1 1.8 -7.05 1.85 Q-6.65 2.0 -6.35 1.7 L-6.35 1.35 M-13.5 2.95 L-13.7 3.2 -13.85 3.4 Q-13.5 3.7 -13.15 3.5 L-13.05 3.45 -12.9 3.45 -12.85 3.4 -12.85 2.95 -12.35 2.8 -13.1 2.8 Q-12.75 2.65 -12.35 2.75 L-12.25 2.8 -12.25 2.95 -12.55 3.0 -12.75 3.05 -12.75 3.5 -12.5 3.6 -12.15 3.7 Q-12.0 3.95 -12.3 4.15 -12.4 4.25 -12.6 4.25 L-12.9 4.3 Q-13.55 4.3 -13.85 3.7 -13.95 3.5 -13.85 3.35 -13.75 3.05 -13.5 2.95" fill="#666666" fill-rule="evenodd" stroke="none"/>
      <path d="M10.4 -4.05 L10.1 -4.1 6.3 -4.1 5.85 -4.05 5.7 -4.0 5.0 -3.9 4.15 -3.8 3.4 -3.7 2.6 -3.55 1.85 -3.35 0.25 -2.95 -1.35 -2.45 -1.55 -2.4 -2.2 -2.15 Q-2.65 -2.0 -3.05 -1.75 L-3.85 -1.3 Q-4.45 -0.85 -4.95 -0.35 L-4.85 -0.3 -4.7 -0.05 -4.7 0.0 Q-4.85 0.3 -5.05 0.5 -5.25 0.75 -5.5 0.9 -5.75 1.0 -6.05 1.1 L-6.3 1.1 -6.3 0.95 -6.25 0.9 -5.7 0.55 -5.05 0.15 -4.95 0.0 -5.35 -0.25 -5.25 -0.45 -4.85 -0.85 Q-3.95 -1.6 -2.95 -2.05 L-2.1 -2.4 -1.55 -2.6 -0.85 -2.85 0.4 -3.25 1.8 -3.65 2.2 -3.75 2.9 -3.9 5.2 -4.2 5.7 -4.25 6.35 -4.35 10.05 -4.35 12.35 -4.25 12.5 -4.1 12.45 -4.1 12.15 -3.9 11.5 -3.6 Q10.8 -3.3 10.2 -2.8 L9.8 -2.4 8.7 -1.1 8.2 -0.45 7.95 -0.1 7.75 0.25 7.35 0.3 5.85 0.45 5.7 0.45 3.8 0.65 2.95 0.7 1.35 0.9 0.5 1.0 -0.3 1.1 -1.4 1.35 -1.55 1.4 -2.3 1.6 -2.7 1.75 -5.8 2.8 -5.9 2.8 -5.8 3.15 Q-5.7 3.75 -5.75 4.3 L-5.85 4.35 -6.2 4.25 Q-6.55 4.15 -6.9 4.0 -7.05 3.95 -7.2 3.85 L-7.2 3.8 -7.15 3.55 Q-7.15 3.25 -7.25 3.0 L-7.4 2.7 -7.75 2.65 Q-7.85 2.5 -7.85 2.1 -7.85 1.75 -7.6 1.8 L-7.65 1.2 -7.65 1.1 Q-7.65 0.9 -7.8 0.6 L-7.95 0.35 -8.35 0.3 -8.4 0.25 Q-8.45 0.1 -8.45 -0.05 -8.4 -0.3 -8.2 -0.4 L-7.9 -0.5 Q-7.45 -0.6 -7.05 -0.4 -6.85 -0.35 -6.75 -0.15 L-6.6 0.1 -6.45 0.4 -6.35 0.75 -6.3 0.95 Q-6.35 1.2 -6.25 1.45 -6.15 1.8 -6.1 2.15 L-6.0 2.45 -5.9 2.6 -5.75 2.65 Q-4.8 2.15 -3.8 1.85 -2.8 1.5 -1.85 1.3 L-1.55 1.2 -0.3 0.95 1.95 0.65 2.4 0.55 Q2.85 0.4 3.3 0.3 L4.2 0.2 5.0 0.2 5.7 0.15 6.25 0.15 7.45 0.0 7.65 0.0 7.65 -0.05 Q7.75 -0.05 7.8 -0.1 7.9 -0.2 7.9 -0.35 L8.35 -1.1 Q8.65 -1.55 9.0 -1.95 9.35 -2.4 9.7 -2.75 L10.0 -3.0 10.75 -3.4 11.45 -3.8 11.8 -4.05 10.4 -4.05 M0.65 -1.7 L1.3 -1.8 2.5 -2.0 3.15 -2.1 3.95 -2.2 5.65 -2.4 5.7 -2.4 6.5 -2.5 7.6 -2.5 9.0 -2.5 9.15 -2.3 8.75 -2.3 7.5 -2.25 6.65 -2.25 5.8 -2.2 5.7 -2.2 5.05 -2.15 3.55 -1.95 2.75 -1.8 1.4 -1.6 0.75 -1.45 0.05 -1.35 -0.05 -1.35 -0.2 -1.4 -0.2 -1.45 0.65 -1.7 M-7.15 -0.15 Q-7.45 -0.35 -7.8 -0.35 -8.05 -0.3 -8.25 -0.2 L-8.25 0.05 -8.1 0.05 -7.8 0.05 -7.7 0.35 -7.4 1.15 -7.4 1.2 -7.35 1.5 -7.2 2.3 -7.15 2.7 -7.05 3.25 -6.95 3.45 Q-6.95 3.7 -6.8 3.8 L-6.6 3.9 -6.1 4.0 -6.0 3.95 -6.0 3.85 Q-5.95 3.55 -6.05 3.25 -6.1 2.75 -6.15 2.3 L-6.35 1.35 -6.45 1.05 -6.95 0.0 -7.15 -0.15 M-10.9 3.0 L-10.8 3.6 Q-10.8 3.95 -10.7 4.05 L-10.85 4.05 -11.5 4.2 -12.25 4.4 -12.6 4.5 Q-13.1 4.6 -13.55 4.4 -13.8 4.3 -13.95 4.1 -14.0 4.0 -14.05 3.85 -14.05 3.65 -14.05 3.5 L-13.95 3.15 Q-13.85 2.85 -13.55 2.7 -13.1 2.45 -12.6 2.5 L-12.3 2.55 Q-12.2 2.55 -12.15 2.65 -12.0 2.8 -12.05 3.0 L-12.15 3.3 -12.4 3.2 -12.55 3.2 -12.5 3.4 -12.1 3.3 -11.3 2.95 -11.25 2.95 -11.05 2.85 Q-10.9 2.85 -10.9 3.0 M-11.4 3.25 L-11.9 3.65 -11.85 4.05 -11.5 3.95 -11.05 3.8 Q-11.1 3.75 -11.05 3.5 -11.0 3.2 -11.05 3.1 L-11.1 3.1 -11.1 3.15 -11.2 3.15 -11.4 3.25 M-13.5 2.95 Q-13.75 3.05 -13.85 3.35 -13.95 3.5 -13.85 3.7 -13.55 4.3 -12.9 4.3 L-12.6 4.25 Q-12.4 4.25 -12.3 4.15 -12.0 3.95 -12.15 3.7 L-12.5 3.6 -12.75 3.5 -12.75 3.05 -12.55 3.0 -12.25 2.95 -12.25 2.8 -12.35 2.75 Q-12.75 2.65 -13.1 2.8 L-13.5 2.95" fill="#111111" fill-rule="evenodd" stroke="none"/>
      <path d="M7.9 -0.35 Q7.9 -0.2 7.8 -0.1 7.75 -0.05 7.65 -0.05 L7.65 0.0 7.45 0.0 6.25 0.15 5.7 0.15 5.0 0.2 4.2 0.2 3.3 0.3 Q2.85 0.4 2.4 0.55 L1.95 0.65 -0.3 0.95 -1.55 1.2 -1.85 1.3 Q-2.8 1.5 -3.8 1.85 -4.8 2.15 -5.75 2.65 L-5.9 2.6 -6.0 2.45 -6.1 2.15 Q-6.15 1.8 -6.25 1.45 -6.35 1.2 -6.3 0.95 L-6.3 1.1 -6.05 1.1 Q-5.85 1.45 -5.7 1.9 L-5.65 2.15 -4.55 1.75 -2.85 1.15 -1.75 0.85 -0.35 0.5 0.05 0.45 0.5 0.35 1.35 0.25 2.15 0.15 3.0 0.0 3.8 -0.05 5.4 -0.25 5.7 -0.25 6.5 -0.35 7.55 -0.4 7.75 -0.4 7.85 -0.35 7.9 -0.35 M-6.25 0.9 L-6.3 0.95 -6.25 0.9 M-6.05 3.25 Q-5.95 3.55 -6.0 3.85 L-6.0 3.95 -6.1 4.0 -6.6 3.9 -6.8 3.8 Q-6.95 3.7 -6.95 3.45 -6.8 3.15 -6.45 3.15 -6.25 3.1 -6.05 3.25" fill="#333333" fill-rule="evenodd" stroke="none"/>
      <path d="M-11.4 3.25 L-11.2 3.15 -11.1 3.15 -11.1 3.1 -11.05 3.1 Q-11.0 3.2 -11.05 3.5 -11.1 3.75 -11.05 3.8 L-11.5 3.95 -11.85 4.05 -11.9 3.65 -11.4 3.25" fill="#000066" fill-rule="evenodd" stroke="none"/>
    </g>
  </defs>
</svg>
