<?xml version="1.0" encoding="UTF-8" standalone="no"?>
<svg xmlns:ffdec="https://www.free-decompiler.com/flash" xmlns:xlink="http://www.w3.org/1999/xlink" ffdec:objectType="frame" height="355.7px" width="336.85px" xmlns="http://www.w3.org/2000/svg">
  <g transform="matrix(1.0, 0.0, 0.0, 1.0, 181.95, 272.85)">
    <use ffdec:characterId="652" height="8.75" transform="matrix(0.74, 0.0, 0.0, 0.74, -59.656, -212.469)" width="8.8" xlink:href="#sprite0"/>
    <use ffdec:characterId="652" height="8.75" transform="matrix(0.7627, 0.0, 0.0, 0.7627, 19.844, -238.9179)" width="8.8" xlink:href="#sprite0"/>
    <use ffdec:characterId="652" height="8.75" transform="matrix(0.7379, 0.0, 0.0, 0.7379, -80.1468, -197.1099)" width="8.8" xlink:href="#sprite0"/>
    <use ffdec:characterId="652" height="8.75" transform="matrix(0.795, 0.0, 0.0, 0.795, -68.898, -238.8082)" width="8.8" xlink:href="#sprite0"/>
    <use ffdec:characterId="652" height="8.75" transform="matrix(0.8008, 0.0, 0.0, 0.8008, 63.7266, -235.6333)" width="8.8" xlink:href="#sprite0"/>
    <use ffdec:characterId="652" height="8.75" transform="matrix(0.825, 0.0, 0.0, 0.825, 65.1701, -270.7386)" width="8.8" xlink:href="#sprite0"/>
    <use ffdec:characterId="652" height="8.75" transform="matrix(0.8198, 0.0, 0.0, 0.8198, 121.193, -181.066)" width="8.8" xlink:href="#sprite0"/>
    <use ffdec:characterId="652" height="8.75" transform="matrix(-0.3728, -0.6392, 0.6392, -0.3728, -63.7401, 19.9342)" width="8.8" xlink:href="#sprite0"/>
    <use ffdec:characterId="652" height="8.75" transform="matrix(-0.3843, -0.6588, 0.6588, -0.3843, -126.6251, -35.4795)" width="8.8" xlink:href="#sprite0"/>
    <use ffdec:characterId="652" height="8.75" transform="matrix(-0.3718, -0.6374, 0.6374, -0.3718, -40.1369, 29.8717)" width="8.8" xlink:href="#sprite0"/>
    <use ffdec:characterId="652" height="8.75" transform="matrix(-0.4005, -0.6867, 0.6867, -0.4005, -81.8248, 41.1139)" width="8.8" xlink:href="#sprite0"/>
    <use ffdec:characterId="652" height="8.75" transform="matrix(-0.4034, -0.6917, 0.6917, -0.4034, -145.9337, -75.0516)" width="8.8" xlink:href="#sprite0"/>
    <use ffdec:characterId="652" height="8.75" transform="matrix(-0.4156, -0.7126, 0.7126, -0.4156, -176.971, -58.5565)" width="8.8" xlink:href="#sprite0"/>
    <use ffdec:characterId="652" height="8.75" transform="matrix(-0.413, -0.7081, 0.7081, -0.413, -127.713, -152.1378)" width="8.8" xlink:href="#sprite0"/>
    <use ffdec:characterId="652" height="8.75" transform="matrix(-0.5384, 0.5076, -0.5076, -0.5384, 130.1271, -51.0414)" width="8.8" xlink:href="#sprite0"/>
    <use ffdec:characterId="652" height="8.75" transform="matrix(-0.5549, 0.5232, -0.5232, -0.5549, 90.4177, 22.7119)" width="8.8" xlink:href="#sprite0"/>
    <use ffdec:characterId="652" height="8.75" transform="matrix(-0.5369, 0.5062, -0.5062, -0.5369, 134.5142, -76.2417)" width="8.8" xlink:href="#sprite0"/>
    <use ffdec:characterId="652" height="8.75" transform="matrix(-0.5784, 0.5453, -0.5453, -0.5784, 154.9174, -38.2333)" width="8.8" xlink:href="#sprite0"/>
    <use ffdec:characterId="652" height="8.75" transform="matrix(-0.5826, 0.5493, -0.5493, -0.5826, 56.203, 50.4175)" width="8.8" xlink:href="#sprite0"/>
    <use ffdec:characterId="652" height="8.75" transform="matrix(-0.6002, 0.5659, -0.5659, -0.6002, 79.2527, 76.9711)" width="8.8" xlink:href="#sprite0"/>
    <use ffdec:characterId="652" height="8.75" transform="matrix(-0.5965, 0.5623, -0.5623, -0.5965, -23.0795, 50.1703)" width="8.8" xlink:href="#sprite0"/>
    <use ffdec:characterId="652" height="8.75" transform="matrix(0.0042, -0.4953, 0.4951, 0.0166, -73.5222, -60.793)" width="8.8" xlink:href="#sprite0"/>
    <use ffdec:characterId="652" height="8.75" transform="matrix(0.0043, -0.5105, 0.5104, 0.0171, -90.739, -114.5783)" width="8.8" xlink:href="#sprite0"/>
    <use ffdec:characterId="652" height="8.75" transform="matrix(0.0042, -0.4939, 0.4938, 0.0165, -63.3162, -46.7489)" width="8.8" xlink:href="#sprite0"/>
    <use ffdec:characterId="652" height="8.75" transform="matrix(0.0045, -0.5321, 0.532, 0.0178, -91.1838, -55.1864)" width="8.8" xlink:href="#sprite0"/>
    <use ffdec:characterId="652" height="8.75" transform="matrix(0.0045, -0.5359, 0.5358, 0.0179, -88.3007, -143.9199)" width="8.8" xlink:href="#sprite0"/>
    <use ffdec:characterId="652" height="8.75" transform="matrix(0.0047, -0.5521, 0.552, 0.0185, -111.8218, -145.6011)" width="8.8" xlink:href="#sprite0"/>
    <use ffdec:characterId="652" height="8.75" transform="matrix(0.0046, -0.5486, 0.5485, 0.0184, -51.4565, -181.1159)" width="8.8" xlink:href="#sprite0"/>
    <use ffdec:characterId="652" height="8.75" transform="matrix(-0.4947, 0.0243, -0.0119, -0.4953, 47.2785, -13.4526)" width="8.8" xlink:href="#sprite0"/>
    <use ffdec:characterId="652" height="8.75" transform="matrix(-0.5099, 0.0251, -0.0123, -0.5105, -5.5031, 6.9103)" width="8.8" xlink:href="#sprite0"/>
    <use ffdec:characterId="652" height="8.75" transform="matrix(-0.4933, 0.0243, -0.0119, -0.4939, 60.7222, -24.3584)" width="8.8" xlink:href="#sprite0"/>
    <use ffdec:characterId="652" height="8.75" transform="matrix(-0.5314, 0.0261, -0.0128, -0.5321, 53.8442, 3.9496)" width="8.8" xlink:href="#sprite0"/>
    <use ffdec:characterId="652" height="8.75" transform="matrix(-0.5353, 0.0263, -0.0129, -0.536, -34.8884, 6.1656)" width="8.8" xlink:href="#sprite0"/>
    <use ffdec:characterId="652" height="8.75" transform="matrix(-0.5515, 0.0271, -0.0133, -0.5522, -35.2657, 29.7325)" width="8.8" xlink:href="#sprite0"/>
    <use ffdec:characterId="652" height="8.75" transform="matrix(-0.548, 0.027, -0.0132, -0.5487, -74.1312, -28.4819)" width="8.8" xlink:href="#sprite0"/>
    <use ffdec:characterId="652" height="8.75" transform="matrix(0.4802, 0.1211, -0.1331, 0.4772, -15.9838, -165.9086)" width="8.8" xlink:href="#sprite0"/>
    <use ffdec:characterId="652" height="8.75" transform="matrix(0.495, 0.1248, -0.1372, 0.4919, 40.4691, -169.9388)" width="8.8" xlink:href="#sprite0"/>
    <use ffdec:characterId="652" height="8.75" transform="matrix(0.4789, 0.1208, -0.1328, 0.4758, -32.0295, -159.3013)" width="8.8" xlink:href="#sprite0"/>
    <use ffdec:characterId="652" height="8.75" transform="matrix(0.5159, 0.1301, -0.1431, 0.5127, -17.1978, -184.4026)" width="8.8" xlink:href="#sprite0"/>
    <use ffdec:characterId="652" height="8.75" transform="matrix(0.5197, 0.1311, -0.1441, 0.5164, 68.3402, -160.6229)" width="8.8" xlink:href="#sprite0"/>
    <use ffdec:characterId="652" height="8.75" transform="matrix(0.5354, 0.135, -0.1484, 0.532, 75.5901, -183.1082)" width="8.8" xlink:href="#sprite0"/>
    <use ffdec:characterId="652" height="8.75" transform="matrix(0.532, 0.1342, -0.1475, 0.5286, 95.7509, -116.0399)" width="8.8" xlink:href="#sprite0"/>
    <use ffdec:characterId="652" height="8.75" transform="matrix(0.7957, 0.0, 0.0, 0.7957, 83.149, -228.3112)" width="8.8" xlink:href="#sprite0"/>
    <use ffdec:characterId="652" height="8.75" transform="matrix(0.9314, 0.0, 0.0, 0.9314, -54.6481, -179.6016)" width="8.8" xlink:href="#sprite0"/>
    <use ffdec:characterId="652" height="8.75" transform="matrix(0.9224, 0.0, 0.0, 0.9224, -23.9587, -234.0126)" width="8.8" xlink:href="#sprite0"/>
    <use ffdec:characterId="652" height="8.75" transform="matrix(0.8643, 0.0, 0.0, 0.8643, -54.9527, -175.2095)" width="8.8" xlink:href="#sprite0"/>
    <use ffdec:characterId="652" height="8.75" transform="matrix(0.8897, 0.0, 0.0, 0.8897, -53.2148, -226.5203)" width="8.8" xlink:href="#sprite0"/>
    <use ffdec:characterId="652" height="8.75" transform="matrix(0.9119, 0.0, 0.0, 0.9119, 47.1375, -222.0669)" width="8.8" xlink:href="#sprite0"/>
    <use ffdec:characterId="652" height="8.75" transform="matrix(0.9538, 0.0, 0.0, 0.9538, 64.5035, -240.6488)" width="8.8" xlink:href="#sprite0"/>
    <use ffdec:characterId="652" height="8.75" transform="matrix(1.0146, 0.0, 0.0, 1.0146, -14.4141, -250.7633)" width="8.8" xlink:href="#sprite0"/>
    <use ffdec:characterId="652" height="8.75" transform="matrix(1.0179, 0.0, 0.0, 1.0179, 75.1712, -171.9279)" width="8.8" xlink:href="#sprite0"/>
    <use ffdec:characterId="652" height="8.75" transform="matrix(0.5802, 0.0, 0.0, 0.5802, 109.3972, -179.3238)" width="8.8" xlink:href="#sprite0"/>
    <use ffdec:characterId="652" height="8.75" transform="matrix(-0.4009, -0.6873, 0.6873, -0.4009, -149.3759, -95.482)" width="8.8" xlink:href="#sprite0"/>
    <use ffdec:characterId="652" height="8.75" transform="matrix(-0.4693, -0.8045, 0.8045, -0.4693, -37.935, -1.0188)" width="8.8" xlink:href="#sprite0"/>
    <use ffdec:characterId="652" height="8.75" transform="matrix(-0.4647, -0.7968, 0.7968, -0.4647, -100.3712, -0.0725)" width="8.8" xlink:href="#sprite0"/>
    <use ffdec:characterId="652" height="8.75" transform="matrix(-0.4354, -0.7465, 0.7465, -0.4354, -33.9316, -2.9211)" width="8.8" xlink:href="#sprite0"/>
    <use ffdec:characterId="652" height="8.75" transform="matrix(-0.4483, -0.7685, 0.7685, -0.4483, -79.1708, 21.3815)" width="8.8" xlink:href="#sprite0"/>
    <use ffdec:characterId="652" height="8.75" transform="matrix(-0.4594, -0.7877, 0.7877, -0.4594, -125.855, -67.4855)" width="8.8" xlink:href="#sprite0"/>
    <use ffdec:characterId="652" height="8.75" transform="matrix(-0.4805, -0.8238, 0.8238, -0.4805, -150.6194, -73.1849)" width="8.8" xlink:href="#sprite0"/>
    <use ffdec:characterId="652" height="8.75" transform="matrix(-0.5112, -0.8764, 0.8764, -0.5112, -119.5631, 0.1295)" width="8.8" xlink:href="#sprite0"/>
    <use ffdec:characterId="652" height="8.75" transform="matrix(-0.5128, -0.8793, 0.8793, -0.5128, -96.6683, -116.9504)" width="8.8" xlink:href="#sprite0"/>
    <use ffdec:characterId="652" height="8.75" transform="matrix(-0.2923, -0.5012, 0.5012, -0.2923, -120.2939, -142.8233)" width="8.8" xlink:href="#sprite0"/>
    <use ffdec:characterId="652" height="8.75" transform="matrix(-0.5789, 0.5458, -0.5458, -0.5789, 37.0716, 58.4168)" width="8.8" xlink:href="#sprite0"/>
    <use ffdec:characterId="652" height="8.75" transform="matrix(-0.6777, 0.6389, -0.6389, -0.6777, 103.961, -71.4633)" width="8.8" xlink:href="#sprite0"/>
    <use ffdec:characterId="652" height="8.75" transform="matrix(-0.6712, 0.6328, -0.6328, -0.6712, 118.9556, -10.8646)" width="8.8" xlink:href="#sprite0"/>
    <use ffdec:characterId="652" height="8.75" transform="matrix(-0.6288, 0.5928, -0.5928, -0.6288, 101.1457, -74.9731)" width="8.8" xlink:href="#sprite0"/>
    <use ffdec:characterId="652" height="8.75" transform="matrix(-0.6474, 0.6103, -0.6103, -0.6474, 135.0533, -36.3694)" width="8.8" xlink:href="#sprite0"/>
    <use ffdec:characterId="652" height="8.75" transform="matrix(-0.6635, 0.6256, -0.6256, -0.6635, 59.0407, 29.1838)" width="8.8" xlink:href="#sprite0"/>
    <use ffdec:characterId="652" height="8.75" transform="matrix(-0.6939, 0.6542, -0.6542, -0.6939, 59.0993, 54.64)" width="8.8" xlink:href="#sprite0"/>
    <use ffdec:characterId="652" height="8.75" transform="matrix(-0.7382, 0.696, -0.696, -0.7382, 123.4754, 7.8989)" width="8.8" xlink:href="#sprite0"/>
    <use ffdec:characterId="652" height="8.75" transform="matrix(-0.7406, 0.6983, -0.6983, -0.7406, 4.1961, 11.9493)" width="8.8" xlink:href="#sprite0"/>
    <use ffdec:characterId="652" height="8.75" transform="matrix(-0.4221, 0.398, -0.398, -0.4221, -15.6113, 40.8352)" width="8.8" xlink:href="#sprite0"/>
    <use ffdec:characterId="652" height="8.75" transform="matrix(0.0045, -0.5325, 0.5324, 0.0178, -83.2858, -156.6845)" width="8.8" xlink:href="#sprite0"/>
    <use ffdec:characterId="652" height="8.75" transform="matrix(0.0052, -0.6234, 0.6232, 0.0209, -51.5341, -63.3981)" width="8.8" xlink:href="#sprite0"/>
    <use ffdec:characterId="652" height="8.75" transform="matrix(0.0052, -0.6174, 0.6172, 0.0207, -87.7579, -85.1235)" width="8.8" xlink:href="#sprite0"/>
    <use ffdec:characterId="652" height="8.75" transform="matrix(0.0049, -0.5784, 0.5783, 0.0194, -48.5871, -63.0891)" width="8.8" xlink:href="#sprite0"/>
    <use ffdec:characterId="652" height="8.75" transform="matrix(0.005, -0.5955, 0.5954, 0.0199, -82.8119, -65.4667)" width="8.8" xlink:href="#sprite0"/>
    <use ffdec:characterId="652" height="8.75" transform="matrix(0.0051, -0.6103, 0.6102, 0.0204, -79.3771, -132.4535)" width="8.8" xlink:href="#sprite0"/>
    <use ffdec:characterId="652" height="8.75" transform="matrix(0.0054, -0.6383, 0.6382, 0.0214, -91.6997, -144.5344)" width="8.8" xlink:href="#sprite0"/>
    <use ffdec:characterId="652" height="8.75" transform="matrix(0.0057, -0.679, 0.6789, 0.0227, -98.9283, -91.9112)" width="8.8" xlink:href="#sprite0"/>
    <use ffdec:characterId="652" height="8.75" transform="matrix(0.0057, -0.6813, 0.6811, 0.0228, -45.5881, -150.1017)" width="8.8" xlink:href="#sprite0"/>
    <use ffdec:characterId="652" height="8.75" transform="matrix(0.0033, -0.3883, 0.3882, 0.013, -50.4532, -173.198)" width="8.8" xlink:href="#sprite0"/>
    <use ffdec:characterId="652" height="8.75" transform="matrix(-0.5319, 0.0262, -0.0128, -0.5326, -48.0038, 1.9015)" width="8.8" xlink:href="#sprite0"/>
    <use ffdec:characterId="652" height="8.75" transform="matrix(-0.6226, 0.0306, -0.015, -0.6234, 43.3549, -35.173)" width="8.8" xlink:href="#sprite0"/>
    <use ffdec:characterId="652" height="8.75" transform="matrix(-0.6166, 0.0303, -0.0149, -0.6174, 23.7279, 2.2522)" width="8.8" xlink:href="#sprite0"/>
    <use ffdec:characterId="652" height="8.75" transform="matrix(-0.5777, 0.0284, -0.0139, -0.5785, 43.5027, -38.1588)" width="8.8" xlink:href="#sprite0"/>
    <use ffdec:characterId="652" height="8.75" transform="matrix(-0.5948, 0.0293, -0.0144, -0.5955, 43.1794, -3.7883)" width="8.8" xlink:href="#sprite0"/>
    <use ffdec:characterId="652" height="8.75" transform="matrix(-0.6096, 0.03, -0.0147, -0.6104, -23.9537, -3.4768)" width="8.8" xlink:href="#sprite0"/>
    <use ffdec:characterId="652" height="8.75" transform="matrix(-0.6376, 0.0314, -0.0154, -0.6384, -35.2778, 9.5389)" width="8.8" xlink:href="#sprite0"/>
    <use ffdec:characterId="652" height="8.75" transform="matrix(-0.6782, 0.0334, -0.0164, -0.679, 17.6553, 13.7571)" width="8.8" xlink:href="#sprite0"/>
    <use ffdec:characterId="652" height="8.75" transform="matrix(-0.6805, 0.0335, -0.0164, -0.6813, -43.4846, -36.0837)" width="8.8" xlink:href="#sprite0"/>
    <use ffdec:characterId="652" height="8.75" transform="matrix(-0.3878, 0.0191, -0.0094, -0.3883, -66.3028, -29.9447)" width="8.8" xlink:href="#sprite0"/>
    <use ffdec:characterId="652" height="8.75" transform="matrix(0.5164, 0.1302, -0.1432, 0.5131, 79.6008, -152.805)" width="8.8" xlink:href="#sprite0"/>
    <use ffdec:characterId="652" height="8.75" transform="matrix(0.6044, 0.1524, -0.1676, 0.6006, -18.5306, -143.8835)" width="8.8" xlink:href="#sprite0"/>
    <use ffdec:characterId="652" height="8.75" transform="matrix(0.5986, 0.151, -0.166, 0.5948, 11.088, -173.9519)" width="8.8" xlink:href="#sprite0"/>
    <use ffdec:characterId="652" height="8.75" transform="matrix(0.5609, 0.1414, -0.1555, 0.5573, -19.5914, -141.1467)" width="8.8" xlink:href="#sprite0"/>
    <use ffdec:characterId="652" height="8.75" transform="matrix(0.5774, 0.1456, -0.1601, 0.5737, -9.1942, -173.8865)" width="8.8" xlink:href="#sprite0"/>
    <use ffdec:characterId="652" height="8.75" transform="matrix(0.5918, 0.1492, -0.1641, 0.5881, 55.1098, -154.6148)" width="8.8" xlink:href="#sprite0"/>
    <use ffdec:characterId="652" height="8.75" transform="matrix(0.619, 0.1561, -0.1716, 0.615, 69.6731, -163.7622)" width="8.8" xlink:href="#sprite0"/>
    <use ffdec:characterId="652" height="8.75" transform="matrix(0.6584, 0.166, -0.1826, 0.6543, 20.2971, -183.2266)" width="8.8" xlink:href="#sprite0"/>
    <use ffdec:characterId="652" height="8.75" transform="matrix(0.6606, 0.1666, -0.1832, 0.6564, 64.2401, -117.6884)" width="8.8" xlink:href="#sprite0"/>
    <use ffdec:characterId="652" height="8.75" transform="matrix(0.3765, 0.095, -0.1044, 0.3741, 87.7974, -116.8953)" width="8.8" xlink:href="#sprite0"/>
    <use ffdec:characterId="652" height="8.75" transform="matrix(1.061, 0.0, 0.0, 1.061, 49.0315, -189.8654)" width="8.8" xlink:href="#sprite0"/>
    <use ffdec:characterId="652" height="8.75" transform="matrix(1.349, 0.0, 0.0, 1.349, -66.2356, -109.2181)" width="8.8" xlink:href="#sprite0"/>
    <use ffdec:characterId="652" height="8.75" transform="matrix(1.1959, 0.0, 0.0, 1.1959, -54.9621, -183.9523)" width="8.8" xlink:href="#sprite0"/>
    <use ffdec:characterId="652" height="8.75" transform="matrix(1.14, 0.0, 0.0, 1.14, -47.0158, -163.5088)" width="8.8" xlink:href="#sprite0"/>
    <use ffdec:characterId="652" height="8.75" transform="matrix(1.1473, 0.0, 0.0, 1.1473, -0.498, -214.5906)" width="8.8" xlink:href="#sprite0"/>
    <use ffdec:characterId="652" height="8.75" transform="matrix(1.17, 0.0, 0.0, 1.17, 19.102, -184.4395)" width="8.8" xlink:href="#sprite0"/>
    <use ffdec:characterId="652" height="8.75" transform="matrix(1.2078, 0.0, 0.0, 1.2078, 21.2356, -200.654)" width="8.8" xlink:href="#sprite0"/>
    <use ffdec:characterId="652" height="8.75" transform="matrix(1.2568, 0.0, 0.0, 1.2568, 1.4701, -189.7171)" width="8.8" xlink:href="#sprite0"/>
    <use ffdec:characterId="652" height="8.75" transform="matrix(1.3793, 0.0, 0.0, 1.3793, 61.4313, -146.3498)" width="8.8" xlink:href="#sprite0"/>
    <use ffdec:characterId="652" height="8.75" transform="matrix(0.9226, 0.0, 0.0, 0.9226, 58.7407, -151.5632)" width="8.8" xlink:href="#sprite0"/>
    <use ffdec:characterId="652" height="8.75" transform="matrix(-0.5346, -0.9165, 0.9165, -0.5346, -98.9847, -85.392)" width="8.8" xlink:href="#sprite0"/>
    <use ffdec:characterId="652" height="8.75" transform="matrix(-0.6796, -1.1653, 1.1653, -0.6796, 28.8216, -26.4664)" width="8.8" xlink:href="#sprite0"/>
    <use ffdec:characterId="652" height="8.75" transform="matrix(-0.6025, -1.033, 1.033, -0.6025, -41.4425, 1.4663)" width="8.8" xlink:href="#sprite0"/>
    <use ffdec:characterId="652" height="8.75" transform="matrix(-0.5743, -0.9847, 0.9847, -0.5743, -27.8063, -15.7691)" width="8.8" xlink:href="#sprite0"/>
    <use ffdec:characterId="652" height="8.75" transform="matrix(-0.578, -0.991, 0.991, -0.578, -95.4676, -30.1753)" width="8.8" xlink:href="#sprite0"/>
    <use ffdec:characterId="652" height="8.75" transform="matrix(-0.5895, -1.0106, 1.0106, -0.5895, -79.2526, -62.239)" width="8.8" xlink:href="#sprite0"/>
    <use ffdec:characterId="652" height="8.75" transform="matrix(-0.6085, -1.0433, 1.0433, -0.6085, -94.3609, -55.9624)" width="8.8" xlink:href="#sprite0"/>
    <use ffdec:characterId="652" height="8.75" transform="matrix(-0.6332, -1.0856, 1.0856, -0.6332, -74.9364, -44.3189)" width="8.8" xlink:href="#sprite0"/>
    <use ffdec:characterId="652" height="8.75" transform="matrix(-0.6949, -1.1914, 1.1914, -0.6949, -67.6751, -118.0351)" width="8.8" xlink:href="#sprite0"/>
    <use ffdec:characterId="652" height="8.75" transform="matrix(-0.4648, -0.7969, 0.7969, -0.4648, -70.7714, -113.1217)" width="8.8" xlink:href="#sprite0"/>
    <use ffdec:characterId="652" height="8.75" transform="matrix(-0.772, 0.7278, -0.7278, -0.772, 35.5128, 7.1557)" width="8.8" xlink:href="#sprite0"/>
    <use ffdec:characterId="652" height="8.75" transform="matrix(-0.9815, 0.9254, -0.9254, -0.9815, 64.0941, -130.702)" width="8.8" xlink:href="#sprite0"/>
    <use ffdec:characterId="652" height="8.75" transform="matrix(-0.8701, 0.8204, -0.8204, -0.8701, 107.0972, -68.5744)" width="8.8" xlink:href="#sprite0"/>
    <use ffdec:characterId="652" height="8.75" transform="matrix(-0.8294, 0.782, -0.782, -0.8294, 87.351, -78.0327)" width="8.8" xlink:href="#sprite0"/>
    <use ffdec:characterId="652" height="8.75" transform="matrix(-0.8347, 0.787, -0.787, -0.8347, 88.4462, -8.8817)" width="8.8" xlink:href="#sprite0"/>
    <use ffdec:characterId="652" height="8.75" transform="matrix(-0.8513, 0.8026, -0.8026, -0.8513, 53.5868, -17.3783)" width="8.8" xlink:href="#sprite0"/>
    <use ffdec:characterId="652" height="8.75" transform="matrix(-0.8788, 0.8285, -0.8285, -0.8788, 63.1708, -4.1227)" width="8.8" xlink:href="#sprite0"/>
    <use ffdec:characterId="652" height="8.75" transform="matrix(-0.9144, 0.8621, -0.8621, -0.9144, 70.0238, -25.6655)" width="8.8" xlink:href="#sprite0"/>
    <use ffdec:characterId="652" height="8.75" transform="matrix(-1.0035, 0.9461, -0.9461, -1.0035, -3.3188, -16.0975)" width="8.8" xlink:href="#sprite0"/>
    <use ffdec:characterId="652" height="8.75" transform="matrix(-0.6712, 0.6329, -0.6329, -0.6712, 2.1564, -14.1146)" width="8.8" xlink:href="#sprite0"/>
    <use ffdec:characterId="652" height="8.75" transform="matrix(0.006, -0.7101, 0.71, 0.0238, -57.7646, -133.0789)" width="8.8" xlink:href="#sprite0"/>
    <use ffdec:characterId="652" height="8.75" transform="matrix(0.0076, -0.9028, 0.9027, 0.0302, -4.41, -54.059)" width="8.8" xlink:href="#sprite0"/>
    <use ffdec:characterId="652" height="8.75" transform="matrix(0.0067, -0.8004, 0.8002, 0.0268, -54.3607, -63.2949)" width="8.8" xlink:href="#sprite0"/>
    <use ffdec:characterId="652" height="8.75" transform="matrix(0.0064, -0.7629, 0.7628, 0.0255, -40.6464, -68.2042)" width="8.8" xlink:href="#sprite0"/>
    <use ffdec:characterId="652" height="8.75" transform="matrix(0.0065, -0.7678, 0.7677, 0.0257, -74.5678, -100.4334)" width="8.8" xlink:href="#sprite0"/>
    <use ffdec:characterId="652" height="8.75" transform="matrix(0.0066, -0.7831, 0.7829, 0.0262, -54.3345, -112.8687)" width="8.8" xlink:href="#sprite0"/>
    <use ffdec:characterId="652" height="8.75" transform="matrix(0.0068, -0.8084, 0.8082, 0.0271, -65.1456, -114.6609)" width="8.8" xlink:href="#sprite0"/>
    <use ffdec:characterId="652" height="8.75" transform="matrix(0.0071, -0.8412, 0.841, 0.0282, -57.9894, -101.2214)" width="8.8" xlink:href="#sprite0"/>
    <use ffdec:characterId="652" height="8.75" transform="matrix(0.0078, -0.9231, 0.9229, 0.0309, -28.5988, -140.3228)" width="8.8" xlink:href="#sprite0"/>
    <use ffdec:characterId="652" height="8.75" transform="matrix(0.0052, -0.6175, 0.6173, 0.0207, -32.0583, -138.6731)" width="8.8" xlink:href="#sprite0"/>
    <use ffdec:characterId="652" height="8.75" transform="matrix(-0.7093, 0.0349, -0.0171, -0.7101, -25.8047, -24.8644)" width="8.8" xlink:href="#sprite0"/>
    <use ffdec:characterId="652" height="8.75" transform="matrix(-0.9018, 0.0444, -0.0218, -0.9029, 50.0125, -82.7175)" width="8.8" xlink:href="#sprite0"/>
    <use ffdec:characterId="652" height="8.75" transform="matrix(-0.7995, 0.0393, -0.0193, -0.8004, 43.6515, -32.3411)" width="8.8" xlink:href="#sprite0"/>
    <use ffdec:characterId="652" height="8.75" transform="matrix(-0.762, 0.0375, -0.0184, -0.763, 37.983, -45.746)" width="8.8" xlink:href="#sprite0"/>
    <use ffdec:characterId="652" height="8.75" transform="matrix(-0.7669, 0.0377, -0.0185, -0.7679, 7.705, -10.0257)" width="8.8" xlink:href="#sprite0"/>
    <use ffdec:characterId="652" height="8.75" transform="matrix(-0.7821, 0.0385, -0.0189, -0.7831, -5.8766, -29.5129)" width="8.8" xlink:href="#sprite0"/>
    <use ffdec:characterId="652" height="8.75" transform="matrix(-0.8074, 0.0397, -0.0195, -0.8084, -7.0626, -18.6082)" width="8.8" xlink:href="#sprite0"/>
    <use ffdec:characterId="652" height="8.75" transform="matrix(-0.8401, 0.0413, -0.0203, -0.8412, 5.9349, -26.5727)" width="8.8" xlink:href="#sprite0"/>
    <use ffdec:characterId="652" height="8.75" transform="matrix(-0.922, 0.0453, -0.0222, -0.9232, -34.7464, -53.6338)" width="8.8" xlink:href="#sprite0"/>
    <use ffdec:characterId="652" height="8.75" transform="matrix(-0.6167, 0.0303, -0.0149, -0.6175, -32.8717, -50.2474)" width="8.8" xlink:href="#sprite0"/>
    <use ffdec:characterId="652" height="8.75" transform="matrix(0.6886, 0.1736, -0.1909, 0.6842, 50.5508, -133.5404)" width="8.8" xlink:href="#sprite0"/>
    <use ffdec:characterId="652" height="8.75" transform="matrix(0.8755, 0.2208, -0.2427, 0.8699, -38.7962, -100.4056)" width="8.8" xlink:href="#sprite0"/>
    <use ffdec:characterId="652" height="8.75" transform="matrix(0.7761, 0.1957, -0.2152, 0.7712, -17.9788, -146.716)" width="8.8" xlink:href="#sprite0"/>
    <use ffdec:characterId="652" height="8.75" transform="matrix(0.7398, 0.1866, -0.2051, 0.7351, -16.5129, -132.2187)" width="8.8" xlink:href="#sprite0"/>
    <use ffdec:characterId="652" height="8.75" transform="matrix(0.7445, 0.1878, -0.2064, 0.7398, 22.822, -157.5444)" width="8.8" xlink:href="#sprite0"/>
    <use ffdec:characterId="652" height="8.75" transform="matrix(0.7593, 0.1915, -0.2105, 0.7545, 30.1749, -134.9745)" width="8.8" xlink:href="#sprite0"/>
    <use ffdec:characterId="652" height="8.75" transform="matrix(0.7838, 0.1977, -0.2173, 0.7789, 34.4965, -145.1079)" width="8.8" xlink:href="#sprite0"/>
    <use ffdec:characterId="652" height="8.75" transform="matrix(0.8156, 0.2057, -0.2261, 0.8105, 19.6949, -141.2806)" width="8.8" xlink:href="#sprite0"/>
    <use ffdec:characterId="652" height="8.75" transform="matrix(0.8951, 0.2257, -0.2482, 0.8894, 50.7911, -103.4623)" width="8.8" xlink:href="#sprite0"/>
    <use ffdec:characterId="652" height="8.75" transform="matrix(0.5987, 0.151, -0.166, 0.5949, 49.9877, -107.2523)" width="8.8" xlink:href="#sprite0"/>
  </g>
  <defs>
    <g id="sprite0" transform="matrix(1.0, 0.0, 0.0, 1.0, 4.4, 4.35)">
      <use ffdec:characterId="651" height="1.25" transform="matrix(0.4444, 0.0, 0.0, 7.0, -4.3778, -4.35)" width="19.7" xlink:href="#shape0"/>
    </g>
    <g id="shape0" transform="matrix(1.0, 0.0, 0.0, 1.0, 9.85, 1.25)">
      <path d="M6.95 -0.2 L0.0 0.0 -6.95 -0.2 Q-9.85 -0.35 -9.85 -0.65 -9.85 -0.9 -6.95 -1.05 L0.0 -1.25 6.95 -1.05 Q9.85 -0.9 9.85 -0.65 9.85 -0.35 6.95 -0.2" fill="#53fea9" fill-opacity="0.003921569" fill-rule="evenodd" stroke="none"/>
    </g>
  </defs>
</svg>
