<?xml version="1.0" encoding="UTF-8" standalone="no"?>
<svg xmlns:ffdec="https://www.free-decompiler.com/flash" xmlns:xlink="http://www.w3.org/1999/xlink" ffdec:objectType="frame" height="355.7px" width="336.85px" xmlns="http://www.w3.org/2000/svg">
  <g transform="matrix(1.0, 0.0, 0.0, 1.0, 181.95, 272.85)">
    <use ffdec:characterId="652" height="8.75" transform="matrix(1.3672, 0.0, 0.0, 1.3672, 86.0845, -140.4971)" width="8.8" xlink:href="#sprite0"/>
    <use ffdec:characterId="652" height="8.75" transform="matrix(1.7735, 0.0, 0.0, 1.7735, 3.9467, -90.4147)" width="8.8" xlink:href="#sprite0"/>
    <use ffdec:characterId="652" height="8.75" transform="matrix(1.4558, 0.0, 0.0, 1.4558, -73.0556, -116.0328)" width="8.8" xlink:href="#sprite0"/>
    <use ffdec:characterId="652" height="8.75" transform="matrix(1.4202, 0.0, 0.0, 1.4202, -20.2487, -107.2277)" width="8.8" xlink:href="#sprite0"/>
    <use ffdec:characterId="652" height="8.75" transform="matrix(1.4212, 0.0, 0.0, 1.4212, -7.7034, -157.4824)" width="8.8" xlink:href="#sprite0"/>
    <use ffdec:characterId="652" height="8.75" transform="matrix(1.436, 0.0, 0.0, 1.436, 29.8314, -135.2468)" width="8.8" xlink:href="#sprite0"/>
    <use ffdec:characterId="652" height="8.75" transform="matrix(1.4596, 0.0, 0.0, 1.4596, 29.3776, -143.8494)" width="8.8" xlink:href="#sprite0"/>
    <use ffdec:characterId="652" height="8.75" transform="matrix(1.5363, 0.0, 0.0, 1.5363, 0.4402, -141.283)" width="8.8" xlink:href="#sprite0"/>
    <use ffdec:characterId="652" height="8.75" transform="matrix(1.7295, 0.0, 0.0, 1.7295, 4.09, -97.4235)" width="8.8" xlink:href="#sprite0"/>
    <use ffdec:characterId="652" height="8.75" transform="matrix(1.2933, 0.0, 0.0, 1.2933, 59.2093, -138.726)" width="8.8" xlink:href="#sprite0"/>
    <use ffdec:characterId="652" height="8.75" transform="matrix(-0.6888, -1.1809, 1.1809, -0.6888, -75.0064, -142.2576)" width="8.8" xlink:href="#sprite0"/>
    <use ffdec:characterId="652" height="8.75" transform="matrix(-0.8935, -1.5319, 1.5319, -0.8935, 9.5676, -96.5228)" width="8.8" xlink:href="#sprite0"/>
    <use ffdec:characterId="652" height="8.75" transform="matrix(-0.7335, -1.2575, 1.2575, -0.7335, 26.257, -17.1264)" width="8.8" xlink:href="#sprite0"/>
    <use ffdec:characterId="652" height="8.75" transform="matrix(-0.7155, -1.2267, 1.2267, -0.7155, 7.3119, -67.19)" width="8.8" xlink:href="#sprite0"/>
    <use ffdec:characterId="652" height="8.75" transform="matrix(-0.716, -1.2276, 1.2276, -0.716, -42.4897, -52.6836)" width="8.8" xlink:href="#sprite0"/>
    <use ffdec:characterId="652" height="8.75" transform="matrix(-0.7235, -1.2404, 1.2404, -0.7235, -42.1125, -96.2949)" width="8.8" xlink:href="#sprite0"/>
    <use ffdec:characterId="652" height="8.75" transform="matrix(-0.7354, -1.2608, 1.2608, -0.7354, -49.3489, -91.5535)" width="8.8" xlink:href="#sprite0"/>
    <use ffdec:characterId="652" height="8.75" transform="matrix(-0.774, -1.3271, 1.3271, -0.774, -32.567, -67.844)" width="8.8" xlink:href="#sprite0"/>
    <use ffdec:characterId="652" height="8.75" transform="matrix(-0.8714, -1.494, 1.494, -0.8714, 3.4853, -93.1361)" width="8.8" xlink:href="#sprite0"/>
    <use ffdec:characterId="652" height="8.75" transform="matrix(-0.6516, -1.1172, 1.1172, -0.6516, -59.9427, -119.9)" width="8.8" xlink:href="#sprite0"/>
    <use ffdec:characterId="652" height="8.75" transform="matrix(-0.9947, 0.9378, -0.9378, -0.9947, -25.2936, -3.4493)" width="8.8" xlink:href="#sprite0"/>
    <use ffdec:characterId="652" height="8.75" transform="matrix(-1.2904, 1.2166, -1.2166, -1.2904, 0.1197, -96.1897)" width="8.8" xlink:href="#sprite0"/>
    <use ffdec:characterId="652" height="8.75" transform="matrix(-1.0592, 0.9986, -0.9986, -1.0592, 73.7547, -130.3864)" width="8.8" xlink:href="#sprite0"/>
    <use ffdec:characterId="652" height="8.75" transform="matrix(-1.0333, 0.9742, -0.9742, -1.0333, 29.1843, -100.5416)" width="8.8" xlink:href="#sprite0"/>
    <use ffdec:characterId="652" height="8.75" transform="matrix(-1.0341, 0.9749, -0.9749, -1.0341, 54.6408, -55.3914)" width="8.8" xlink:href="#sprite0"/>
    <use ffdec:characterId="652" height="8.75" transform="matrix(-1.0448, 0.9851, -0.9851, -1.0448, 12.0324, -45.8393)" width="8.8" xlink:href="#sprite0"/>
    <use ffdec:characterId="652" height="8.75" transform="matrix(-1.062, 1.0013, -1.0013, -1.062, 18.2783, -39.9358)" width="8.8" xlink:href="#sprite0"/>
    <use ffdec:characterId="652" height="8.75" transform="matrix(-1.1178, 1.0539, -1.0539, -1.1178, 37.5527, -61.5745)" width="8.8" xlink:href="#sprite0"/>
    <use ffdec:characterId="652" height="8.75" transform="matrix(-1.2584, 1.1864, -1.1864, -1.2584, 4.7978, -91.0462)" width="8.8" xlink:href="#sprite0"/>
    <use ffdec:characterId="652" height="8.75" transform="matrix(-0.941, 0.8872, -0.8872, -0.941, -6.9502, -23.1602)" width="8.8" xlink:href="#sprite0"/>
    <use ffdec:characterId="652" height="8.75" transform="matrix(0.0077, -0.915, 0.9148, 0.0306, -24.5634, -156.7072)" width="8.8" xlink:href="#sprite0"/>
    <use ffdec:characterId="652" height="8.75" transform="matrix(0.01, -1.187, 1.1867, 0.0397, 8.4939, -100.6503)" width="8.8" xlink:href="#sprite0"/>
    <use ffdec:characterId="652" height="8.75" transform="matrix(0.0082, -0.9743, 0.9741, 0.0326, -9.0736, -49.7048)" width="8.8" xlink:href="#sprite0"/>
    <use ffdec:characterId="652" height="8.75" transform="matrix(0.008, -0.9505, 0.9503, 0.0318, -2.869, -84.8063)" width="8.8" xlink:href="#sprite0"/>
    <use ffdec:characterId="652" height="8.75" transform="matrix(0.008, -0.9512, 0.951, 0.0319, -36.4221, -94.3034)" width="8.8" xlink:href="#sprite0"/>
    <use ffdec:characterId="652" height="8.75" transform="matrix(0.0081, -0.9611, 0.9609, 0.0322, -21.3155, -118.9111)" width="8.8" xlink:href="#sprite0"/>
    <use ffdec:characterId="652" height="8.75" transform="matrix(0.0082, -0.9769, 0.9767, 0.0327, -27.0848, -118.844)" width="8.8" xlink:href="#sprite0"/>
    <use ffdec:characterId="652" height="8.75" transform="matrix(0.0087, -1.0282, 1.028, 0.0344, -25.5599, -99.4256)" width="8.8" xlink:href="#sprite0"/>
    <use ffdec:characterId="652" height="8.75" transform="matrix(0.0098, -1.1575, 1.1573, 0.0388, 3.8228, -100.8755)" width="8.8" xlink:href="#sprite0"/>
    <use ffdec:characterId="652" height="8.75" transform="matrix(0.0073, -0.8656, 0.8654, 0.029, -23.5467, -138.6675)" width="8.8" xlink:href="#sprite0"/>
    <use ffdec:characterId="652" height="8.75" transform="matrix(-0.9139, 0.045, -0.022, -0.9151, -51.3828, -56.7673)" width="8.8" xlink:href="#sprite0"/>
    <use ffdec:characterId="652" height="8.75" transform="matrix(-1.1855, 0.0583, -0.0286, -1.187, 2.7409, -92.9431)" width="8.8" xlink:href="#sprite0"/>
    <use ffdec:characterId="652" height="8.75" transform="matrix(-0.9732, 0.0479, -0.0235, -0.9744, 54.6842, -78.372)" width="8.8" xlink:href="#sprite0"/>
    <use ffdec:characterId="652" height="8.75" transform="matrix(-0.9494, 0.0467, -0.0229, -0.9505, 19.2268, -82.5207)" width="8.8" xlink:href="#sprite0"/>
    <use ffdec:characterId="652" height="8.75" transform="matrix(-0.9501, 0.0467, -0.0229, -0.9512, 11.5801, -48.4177)" width="8.8" xlink:href="#sprite0"/>
    <use ffdec:characterId="652" height="8.75" transform="matrix(-0.96, 0.0472, -0.0232, -0.9612, -13.8254, -62.0768)" width="8.8" xlink:href="#sprite0"/>
    <use ffdec:characterId="652" height="8.75" transform="matrix(-0.9757, 0.048, -0.0235, -0.9769, -13.3543, -56.4115)" width="8.8" xlink:href="#sprite0"/>
    <use ffdec:characterId="652" height="8.75" transform="matrix(-1.027, 0.0505, -0.0248, -1.0283, 5.8766, -59.0493)" width="8.8" xlink:href="#sprite0"/>
    <use ffdec:characterId="652" height="8.75" transform="matrix(-1.1562, 0.0569, -0.0279, -1.1576, 2.7586, -88.2647)" width="8.8" xlink:href="#sprite0"/>
    <use ffdec:characterId="652" height="8.75" transform="matrix(-0.8646, 0.0425, -0.0209, -0.8656, -33.4051, -58.7716)" width="8.8" xlink:href="#sprite0"/>
    <use ffdec:characterId="652" height="8.75" transform="matrix(0.8873, 0.2238, -0.246, 0.8816, 65.6662, -95.6696)" width="8.8" xlink:href="#sprite0"/>
    <use ffdec:characterId="652" height="8.75" transform="matrix(1.1509, 0.2903, -0.3191, 1.1437, 3.374, -76.802)" width="8.8" xlink:href="#sprite0"/>
    <use ffdec:characterId="652" height="8.75" transform="matrix(0.9448, 0.2383, -0.2619, 0.9388, -41.9676, -105.9822)" width="8.8" xlink:href="#sprite0"/>
    <use ffdec:characterId="652" height="8.75" transform="matrix(0.9216, 0.2324, -0.2555, 0.9158, -9.2436, -91.6065)" width="8.8" xlink:href="#sprite0"/>
    <use ffdec:characterId="652" height="8.75" transform="matrix(0.9223, 0.2326, -0.2557, 0.9165, 7.9041, -122.0103)" width="8.8" xlink:href="#sprite0"/>
    <use ffdec:characterId="652" height="8.75" transform="matrix(0.9319, 0.235, -0.2584, 0.9261, 28.2734, -101.4625)" width="8.8" xlink:href="#sprite0"/>
    <use ffdec:characterId="652" height="8.75" transform="matrix(0.9473, 0.2389, -0.2626, 0.9413, 29.4746, -107.0956)" width="8.8" xlink:href="#sprite0"/>
    <use ffdec:characterId="652" height="8.75" transform="matrix(0.997, 0.2514, -0.2764, 0.9907, 10.3156, -110.166)" width="8.8" xlink:href="#sprite0"/>
    <use ffdec:characterId="652" height="8.75" transform="matrix(1.1224, 0.2831, -0.3112, 1.1153, 4.7151, -81.2972)" width="8.8" xlink:href="#sprite0"/>
    <use ffdec:characterId="652" height="8.75" transform="matrix(0.8393, 0.2117, -0.2327, 0.834, 47.9692, -98.8594)" width="8.8" xlink:href="#sprite0"/>
  </g>
  <defs>
    <g id="sprite0" transform="matrix(1.0, 0.0, 0.0, 1.0, 4.4, 4.35)">
      <use ffdec:characterId="651" height="1.25" transform="matrix(0.4444, 0.0, 0.0, 7.0, -4.3778, -4.35)" width="19.7" xlink:href="#shape0"/>
    </g>
    <g id="shape0" transform="matrix(1.0, 0.0, 0.0, 1.0, 9.85, 1.25)">
      <path d="M6.95 -0.2 L0.0 0.0 -6.95 -0.2 Q-9.85 -0.35 -9.85 -0.65 -9.85 -0.9 -6.95 -1.05 L0.0 -1.25 6.95 -1.05 Q9.85 -0.9 9.85 -0.65 9.85 -0.35 6.95 -0.2" fill="#6dda91" fill-opacity="0.60784316" fill-rule="evenodd" stroke="none"/>
    </g>
  </defs>
</svg>
