<?xml version="1.0" encoding="UTF-8" standalone="no"?>
<svg xmlns:ffdec="https://www.free-decompiler.com/flash" xmlns:xlink="http://www.w3.org/1999/xlink" ffdec:objectType="frame" height="355.7px" width="336.85px" xmlns="http://www.w3.org/2000/svg">
  <g transform="matrix(1.0, 0.0, 0.0, 1.0, 181.95, 272.85)">
    <use ffdec:characterId="652" height="8.75" transform="matrix(0.7493, 0.0, 0.0, 0.7493, 86.003, -238.1096)" width="8.8" xlink:href="#sprite0"/>
    <use ffdec:characterId="652" height="8.75" transform="matrix(0.8323, 0.0, 0.0, 0.8323, -54.0619, -197.1703)" width="8.8" xlink:href="#sprite0"/>
    <use ffdec:characterId="652" height="8.75" transform="matrix(0.8494, 0.0, 0.0, 0.8494, -3.2372, -233.5447)" width="8.8" xlink:href="#sprite0"/>
    <use ffdec:characterId="652" height="8.75" transform="matrix(0.7988, 0.0, 0.0, 0.7988, -68.6648, -185.8748)" width="8.8" xlink:href="#sprite0"/>
    <use ffdec:characterId="652" height="8.75" transform="matrix(0.8341, 0.0, 0.0, 0.8341, -64.1202, -231.7285)" width="8.8" xlink:href="#sprite0"/>
    <use ffdec:characterId="652" height="8.75" transform="matrix(0.8524, 0.0, 0.0, 0.8524, 57.2494, -228.0579)" width="8.8" xlink:href="#sprite0"/>
    <use ffdec:characterId="652" height="8.75" transform="matrix(0.8905, 0.0, 0.0, 0.8905, 65.4818, -255.4237)" width="8.8" xlink:href="#sprite0"/>
    <use ffdec:characterId="652" height="8.75" transform="matrix(0.9722, 0.0, 0.0, 0.9722, -4.9278, -260.3292)" width="8.8" xlink:href="#sprite0"/>
    <use ffdec:characterId="652" height="8.75" transform="matrix(0.9244, 0.0, 0.0, 0.9244, 95.6327, -180.621)" width="8.8" xlink:href="#sprite0"/>
    <use ffdec:characterId="652" height="8.75" transform="matrix(0.5093, 0.0, 0.0, 0.5093, 122.4091, -179.5654)" width="8.8" xlink:href="#sprite0"/>
    <use ffdec:characterId="652" height="8.75" transform="matrix(-0.3775, -0.6473, 0.6473, -0.3775, -159.3045, -93.0098)" width="8.8" xlink:href="#sprite0"/>
    <use ffdec:characterId="652" height="8.75" transform="matrix(-0.4193, -0.7189, 0.7189, -0.4193, -53.4323, 7.3872)" width="8.8" xlink:href="#sprite0"/>
    <use ffdec:characterId="652" height="8.75" transform="matrix(-0.4279, -0.7337, 0.7337, -0.4279, -110.4086, -18.2103)" width="8.8" xlink:href="#sprite0"/>
    <use ffdec:characterId="652" height="8.75" transform="matrix(-0.4025, -0.69, 0.69, -0.4025, -36.2808, 14.2367)" width="8.8" xlink:href="#sprite0"/>
    <use ffdec:characterId="652" height="8.75" transform="matrix(-0.4203, -0.7205, 0.7205, -0.4203, -78.1351, 33.4484)" width="8.8" xlink:href="#sprite0"/>
    <use ffdec:characterId="652" height="8.75" transform="matrix(-0.4295, -0.7363, 0.7363, -0.4295, -136.1133, -73.1921)" width="8.8" xlink:href="#sprite0"/>
    <use ffdec:characterId="652" height="8.75" transform="matrix(-0.4487, -0.7692, 0.7692, -0.4487, -163.922, -66.5638)" width="8.8" xlink:href="#sprite0"/>
    <use ffdec:characterId="652" height="8.75" transform="matrix(-0.4898, -0.8398, 0.8398, -0.4898, -132.6979, -3.3242)" width="8.8" xlink:href="#sprite0"/>
    <use ffdec:characterId="652" height="8.75" transform="matrix(-0.4657, -0.7985, 0.7985, -0.4657, -114.5242, -130.3108)" width="8.8" xlink:href="#sprite0"/>
    <use ffdec:characterId="652" height="8.75" transform="matrix(-0.2566, -0.4399, 0.4399, -0.2566, -127.0847, -153.9982)" width="8.8" xlink:href="#sprite0"/>
    <use ffdec:characterId="652" height="8.75" transform="matrix(-0.5452, 0.514, -0.514, -0.5452, 41.7348, 67.61)" width="8.8" xlink:href="#sprite0"/>
    <use ffdec:characterId="652" height="8.75" transform="matrix(-0.6055, 0.5709, -0.5709, -0.6055, 115.5978, -58.2779)" width="8.8" xlink:href="#sprite0"/>
    <use ffdec:characterId="652" height="8.75" transform="matrix(-0.618, 0.5826, -0.5826, -0.618, 103.5037, 2.9747)" width="8.8" xlink:href="#sprite0"/>
    <use ffdec:characterId="652" height="8.75" transform="matrix(-0.5812, 0.548, -0.548, -0.5812, 118.441, -76.5827)" width="8.8" xlink:href="#sprite0"/>
    <use ffdec:characterId="652" height="8.75" transform="matrix(-0.6069, 0.5722, -0.5722, -0.6069, 146.5595, -40.0775)" width="8.8" xlink:href="#sprite0"/>
    <use ffdec:characterId="652" height="8.75" transform="matrix(-0.6202, 0.5847, -0.5847, -0.6202, 55.7724, 40.4752)" width="8.8" xlink:href="#sprite0"/>
    <use ffdec:characterId="652" height="8.75" transform="matrix(-0.6479, 0.6109, -0.6109, -0.6479, 68.5081, 66.0807)" width="8.8" xlink:href="#sprite0"/>
    <use ffdec:characterId="652" height="8.75" transform="matrix(-0.7074, 0.6669, -0.6669, -0.7074, 123.1636, 21.3427)" width="8.8" xlink:href="#sprite0"/>
    <use ffdec:characterId="652" height="8.75" transform="matrix(-0.6726, 0.6341, -0.6341, -0.6726, -4.7324, 32.3357)" width="8.8" xlink:href="#sprite0"/>
    <use ffdec:characterId="652" height="8.75" transform="matrix(-0.3706, 0.3494, -0.3494, -0.3706, -24.8998, 49.9747)" width="8.8" xlink:href="#sprite0"/>
    <use ffdec:characterId="652" height="8.75" transform="matrix(0.0042, -0.5015, 0.5014, 0.0168, -89.8497, -158.8664)" width="8.8" xlink:href="#sprite0"/>
    <use ffdec:characterId="652" height="8.75" transform="matrix(0.0047, -0.557, 0.5569, 0.0186, -63.2431, -64.1302)" width="8.8" xlink:href="#sprite0"/>
    <use ffdec:characterId="652" height="8.75" transform="matrix(0.0048, -0.5685, 0.5683, 0.019, -87.2934, -99.0316)" width="8.8" xlink:href="#sprite0"/>
    <use ffdec:characterId="652" height="8.75" transform="matrix(0.0045, -0.5346, 0.5345, 0.0179, -55.7949, -54.1255)" width="8.8" xlink:href="#sprite0"/>
    <use ffdec:characterId="652" height="8.75" transform="matrix(0.0047, -0.5583, 0.5582, 0.0187, -86.4986, -58.2249)" width="8.8" xlink:href="#sprite0"/>
    <use ffdec:characterId="652" height="8.75" transform="matrix(0.0048, -0.5705, 0.5704, 0.0191, -83.2523, -139.3729)" width="8.8" xlink:href="#sprite0"/>
    <use ffdec:characterId="652" height="8.75" transform="matrix(0.005, -0.596, 0.5959, 0.02, -101.5641, -145.4645)" width="8.8" xlink:href="#sprite0"/>
    <use ffdec:characterId="652" height="8.75" transform="matrix(0.0055, -0.6507, 0.6506, 0.0218, -105.254, -98.4817)" width="8.8" xlink:href="#sprite0"/>
    <use ffdec:characterId="652" height="8.75" transform="matrix(0.0052, -0.6187, 0.6185, 0.0207, -51.3636, -164.068)" width="8.8" xlink:href="#sprite0"/>
    <use ffdec:characterId="652" height="8.75" transform="matrix(0.0029, -0.3409, 0.3408, 0.0114, -50.5451, -181.8999)" width="8.8" xlink:href="#sprite0"/>
    <use ffdec:characterId="652" height="8.75" transform="matrix(-0.5009, 0.0246, -0.0121, -0.5015, -49.6934, 8.6232)" width="8.8" xlink:href="#sprite0"/>
    <use ffdec:characterId="652" height="8.75" transform="matrix(-0.5564, 0.0274, -0.0134, -0.5571, 43.3064, -23.3973)" width="8.8" xlink:href="#sprite0"/>
    <use ffdec:characterId="652" height="8.75" transform="matrix(-0.5678, 0.0279, -0.0137, -0.5685, 9.8079, 2.6001)" width="8.8" xlink:href="#sprite0"/>
    <use ffdec:characterId="652" height="8.75" transform="matrix(-0.534, 0.0263, -0.0129, -0.5347, 52.8557, -31.4399)" width="8.8" xlink:href="#sprite0"/>
    <use ffdec:characterId="652" height="8.75" transform="matrix(-0.5576, 0.0274, -0.0135, -0.5583, 50.562, -0.6422)" width="8.8" xlink:href="#sprite0"/>
    <use ffdec:characterId="652" height="8.75" transform="matrix(-0.5698, 0.028, -0.0137, -0.5705, -30.633, 0.9085)" width="8.8" xlink:href="#sprite0"/>
    <use ffdec:characterId="652" height="8.75" transform="matrix(-0.5953, 0.0293, -0.0144, -0.596, -35.7183, 19.5139)" width="8.8" xlink:href="#sprite0"/>
    <use ffdec:characterId="652" height="8.75" transform="matrix(-0.6499, 0.032, -0.0157, -0.6507, 11.4279, 20.39)" width="8.8" xlink:href="#sprite0"/>
    <use ffdec:characterId="652" height="8.75" transform="matrix(-0.6179, 0.0304, -0.0149, -0.6187, -57.0662, -29.5924)" width="8.8" xlink:href="#sprite0"/>
    <use ffdec:characterId="652" height="8.75" transform="matrix(-0.3405, 0.0168, -0.0082, -0.3409, -75.0663, -29.3909)" width="8.8" xlink:href="#sprite0"/>
    <use ffdec:characterId="652" height="8.75" transform="matrix(0.4863, 0.1226, -0.1348, 0.4832, 83.1968, -158.6416)" width="8.8" xlink:href="#sprite0"/>
    <use ffdec:characterId="652" height="8.75" transform="matrix(0.5401, 0.1362, -0.1497, 0.5367, -15.0251, -155.184)" width="8.8" xlink:href="#sprite0"/>
    <use ffdec:characterId="652" height="8.75" transform="matrix(0.5512, 0.139, -0.1528, 0.5477, 24.4894, -170.2943)" width="8.8" xlink:href="#sprite0"/>
    <use ffdec:characterId="652" height="8.75" transform="matrix(0.5184, 0.1307, -0.1437, 0.5151, -26.5558, -150.2661)" width="8.8" xlink:href="#sprite0"/>
    <use ffdec:characterId="652" height="8.75" transform="matrix(0.5413, 0.1365, -0.1501, 0.5379, -15.379, -179.0906)" width="8.8" xlink:href="#sprite0"/>
    <use ffdec:characterId="652" height="8.75" transform="matrix(0.5532, 0.1395, -0.1534, 0.5497, 62.7332, -156.805)" width="8.8" xlink:href="#sprite0"/>
    <use ffdec:characterId="652" height="8.75" transform="matrix(0.5779, 0.1457, -0.1602, 0.5742, 73.0542, -173.0892)" width="8.8" xlink:href="#sprite0"/>
    <use ffdec:characterId="652" height="8.75" transform="matrix(0.631, 0.1591, -0.1749, 0.627, 28.1848, -187.8274)" width="8.8" xlink:href="#sprite0"/>
    <use ffdec:characterId="652" height="8.75" transform="matrix(0.5999, 0.1513, -0.1663, 0.5961, 79.1339, -119.9587)" width="8.8" xlink:href="#sprite0"/>
    <use ffdec:characterId="652" height="8.75" transform="matrix(0.3305, 0.0834, -0.0916, 0.3284, 96.3444, -114.8954)" width="8.8" xlink:href="#sprite0"/>
    <use ffdec:characterId="652" height="8.75" transform="matrix(0.9571, 0.0, 0.0, 0.9571, 51.6887, -210.5634)" width="8.8" xlink:href="#sprite0"/>
    <use ffdec:characterId="652" height="8.75" transform="matrix(1.1959, 0.0, 0.0, 1.1959, -71.9121, -134.1023)" width="8.8" xlink:href="#sprite0"/>
    <use ffdec:characterId="652" height="8.75" transform="matrix(1.0989, 0.0, 0.0, 1.0989, -61.0853, -208.6803)" width="8.8" xlink:href="#sprite0"/>
    <use ffdec:characterId="652" height="8.75" transform="matrix(1.0389, 0.0, 0.0, 1.0389, -47.4211, -189.9691)" width="8.8" xlink:href="#sprite0"/>
    <use ffdec:characterId="652" height="8.75" transform="matrix(1.0506, 0.0, 0.0, 1.0506, -17.9728, -224.6702)" width="8.8" xlink:href="#sprite0"/>
    <use ffdec:characterId="652" height="8.75" transform="matrix(1.0747, 0.0, 0.0, 1.0747, 22.9712, -202.0251)" width="8.8" xlink:href="#sprite0"/>
    <use ffdec:characterId="652" height="8.75" transform="matrix(1.1158, 0.0, 0.0, 1.1158, 36.0403, -216.2539)" width="8.8" xlink:href="#sprite0"/>
    <use ffdec:characterId="652" height="8.75" transform="matrix(1.162, 0.0, 0.0, 1.162, -20.6626, -206.3045)" width="8.8" xlink:href="#sprite0"/>
    <use ffdec:characterId="652" height="8.75" transform="matrix(1.2499, 0.0, 0.0, 1.2499, 51.7005, -169.287)" width="8.8" xlink:href="#sprite0"/>
    <use ffdec:characterId="652" height="8.75" transform="matrix(0.7929, 0.0, 0.0, 0.7929, 73.6111, -167.9992)" width="8.8" xlink:href="#sprite0"/>
    <use ffdec:characterId="652" height="8.75" transform="matrix(-0.4822, -0.8267, 0.8267, -0.4822, -118.2746, -77.2148)" width="8.8" xlink:href="#sprite0"/>
    <use ffdec:characterId="652" height="8.75" transform="matrix(-0.6025, -1.033, 1.033, -0.6025, 10.1075, -8.9837)" width="8.8" xlink:href="#sprite0"/>
    <use ffdec:characterId="652" height="8.75" transform="matrix(-0.5537, -0.9492, 0.9492, -0.5537, -59.7931, 19.1851)" width="8.8" xlink:href="#sprite0"/>
    <use ffdec:characterId="652" height="8.75" transform="matrix(-0.5234, -0.8974, 0.8974, -0.5234, -50.5006, -1.9748)" width="8.8" xlink:href="#sprite0"/>
    <use ffdec:characterId="652" height="8.75" transform="matrix(-0.5293, -0.9075, 0.9075, -0.5293, -95.3687, -10.0044)" width="8.8" xlink:href="#sprite0"/>
    <use ffdec:characterId="652" height="8.75" transform="matrix(-0.5415, -0.9283, 0.9283, -0.5415, -96.4058, -56.7599)" width="8.8" xlink:href="#sprite0"/>
    <use ffdec:characterId="652" height="8.75" transform="matrix(-0.5622, -0.9639, 0.9639, -0.5622, -115.2692, -60.8636)" width="8.8" xlink:href="#sprite0"/>
    <use ffdec:characterId="652" height="8.75" transform="matrix(-0.5854, -1.0037, 1.0037, -0.5854, -78.0403, -16.8872)" width="8.8" xlink:href="#sprite0"/>
    <use ffdec:characterId="652" height="8.75" transform="matrix(-0.6297, -1.0796, 1.0796, -0.6297, -82.6257, -98.0604)" width="8.8" xlink:href="#sprite0"/>
    <use ffdec:characterId="652" height="8.75" transform="matrix(-0.3995, -0.6849, 0.6849, -0.3995, -92.4716, -117.6486)" width="8.8" xlink:href="#sprite0"/>
    <use ffdec:characterId="652" height="8.75" transform="matrix(-0.6964, 0.6565, -0.6565, -0.6964, 47.82, 23.9405)" width="8.8" xlink:href="#sprite0"/>
    <use ffdec:characterId="652" height="8.75" transform="matrix(-0.8701, 0.8204, -0.8204, -0.8701, 85.2972, -116.4744)" width="8.8" xlink:href="#sprite0"/>
    <use ffdec:characterId="652" height="8.75" transform="matrix(-0.7996, 0.7538, -0.7538, -0.7996, 128.5473, -54.7887)" width="8.8" xlink:href="#sprite0"/>
    <use ffdec:characterId="652" height="8.75" transform="matrix(-0.7559, 0.7126, -0.7126, -0.7559, 105.8258, -59.0475)" width="8.8" xlink:href="#sprite0"/>
    <use ffdec:characterId="652" height="8.75" transform="matrix(-0.7644, 0.7207, -0.7207, -0.7644, 108.1485, -13.5457)" width="8.8" xlink:href="#sprite0"/>
    <use ffdec:characterId="652" height="8.75" transform="matrix(-0.782, 0.7372, -0.7372, -0.782, 62.8476, -1.9422)" width="8.8" xlink:href="#sprite0"/>
    <use ffdec:characterId="652" height="8.75" transform="matrix(-0.8119, 0.7654, -0.7654, -0.8119, 63.1019, 17.3138)" width="8.8" xlink:href="#sprite0"/>
    <use ffdec:characterId="652" height="8.75" transform="matrix(-0.8454, 0.7971, -0.7971, -0.8454, 97.4871, -28.7794)" width="8.8" xlink:href="#sprite0"/>
    <use ffdec:characterId="652" height="8.75" transform="matrix(-0.9094, 0.8574, -0.8574, -0.9094, 19.481, -6.0665)" width="8.8" xlink:href="#sprite0"/>
    <use ffdec:characterId="652" height="8.75" transform="matrix(-0.5769, 0.5439, -0.5439, -0.5769, 2.6545, 8.0164)" width="8.8" xlink:href="#sprite0"/>
    <use ffdec:characterId="652" height="8.75" transform="matrix(0.0054, -0.6406, 0.6404, 0.0215, -71.6096, -135.2248)" width="8.8" xlink:href="#sprite0"/>
    <use ffdec:characterId="652" height="8.75" transform="matrix(0.0067, -0.8004, 0.8002, 0.0268, -21.1107, -50.8949)" width="8.8" xlink:href="#sprite0"/>
    <use ffdec:characterId="652" height="8.75" transform="matrix(0.0062, -0.7355, 0.7353, 0.0246, -70.976, -59.821)" width="8.8" xlink:href="#sprite0"/>
    <use ffdec:characterId="652" height="8.75" transform="matrix(0.0059, -0.6953, 0.6952, 0.0233, -58.3997, -68.492)" width="8.8" xlink:href="#sprite0"/>
    <use ffdec:characterId="652" height="8.75" transform="matrix(0.0059, -0.7032, 0.703, 0.0235, -81.3842, -88.9585)" width="8.8" xlink:href="#sprite0"/>
    <use ffdec:characterId="652" height="8.75" transform="matrix(0.0061, -0.7193, 0.7191, 0.0241, -66.0549, -115.8899)" width="8.8" xlink:href="#sprite0"/>
    <use ffdec:characterId="652" height="8.75" transform="matrix(0.0063, -0.7468, 0.7467, 0.025, -75.5256, -124.8728)" width="8.8" xlink:href="#sprite0"/>
    <use ffdec:characterId="652" height="8.75" transform="matrix(0.0065, -0.7777, 0.7775, 0.026, -69.161, -86.7916)" width="8.8" xlink:href="#sprite0"/>
    <use ffdec:characterId="652" height="8.75" transform="matrix(0.007, -0.8365, 0.8363, 0.028, -43.9691, -134.3412)" width="8.8" xlink:href="#sprite0"/>
    <use ffdec:characterId="652" height="8.75" transform="matrix(0.0045, -0.5307, 0.5306, 0.0178, -42.9777, -148.9923)" width="8.8" xlink:href="#sprite0"/>
    <use ffdec:characterId="652" height="8.75" transform="matrix(-0.6398, 0.0315, -0.0154, -0.6406, -27.1677, -10.9519)" width="8.8" xlink:href="#sprite0"/>
    <use ffdec:characterId="652" height="8.75" transform="matrix(-0.7995, 0.0393, -0.0193, -0.8004, 54.1515, -66.2411)" width="8.8" xlink:href="#sprite0"/>
    <use ffdec:characterId="652" height="8.75" transform="matrix(-0.7346, 0.0361, -0.0177, -0.7355, 48.0595, -15.9595)" width="8.8" xlink:href="#sprite0"/>
    <use ffdec:characterId="652" height="8.75" transform="matrix(-0.6945, 0.0342, -0.0168, -0.6953, 38.6786, -28.0256)" width="8.8" xlink:href="#sprite0"/>
    <use ffdec:characterId="652" height="8.75" transform="matrix(-0.7023, 0.0345, -0.017, -0.7032, 19.564, -3.8431)" width="8.8" xlink:href="#sprite0"/>
    <use ffdec:characterId="652" height="8.75" transform="matrix(-0.7184, 0.0353, -0.0173, -0.7193, -8.1634, -17.6264)" width="8.8" xlink:href="#sprite0"/>
    <use ffdec:characterId="652" height="8.75" transform="matrix(-0.7459, 0.0367, -0.018, -0.7468, -16.6896, -7.7127)" width="8.8" xlink:href="#sprite0"/>
    <use ffdec:characterId="652" height="8.75" transform="matrix(-0.7767, 0.0382, -0.0187, -0.7777, 21.0492, -16.2351)" width="8.8" xlink:href="#sprite0"/>
    <use ffdec:characterId="652" height="8.75" transform="matrix(-0.8355, 0.0411, -0.0202, -0.8366, -27.936, -38.5918)" width="8.8" xlink:href="#sprite0"/>
    <use ffdec:characterId="652" height="8.75" transform="matrix(-0.5301, 0.0261, -0.0128, -0.5307, -42.5121, -38.7561)" width="8.8" xlink:href="#sprite0"/>
    <use ffdec:characterId="652" height="8.75" transform="matrix(0.6211, 0.1566, -0.1722, 0.6172, 55.9662, -146.5241)" width="8.8" xlink:href="#sprite0"/>
    <use ffdec:characterId="652" height="8.75" transform="matrix(0.7761, 0.1957, -0.2152, 0.7712, -37.9788, -117.366)" width="8.8" xlink:href="#sprite0"/>
    <use ffdec:characterId="652" height="8.75" transform="matrix(0.7132, 0.1799, -0.1977, 0.7087, -17.4778, -163.7241)" width="8.8" xlink:href="#sprite0"/>
    <use ffdec:characterId="652" height="8.75" transform="matrix(0.6742, 0.17, -0.1869, 0.6699, -12.0534, -149.4124)" width="8.8" xlink:href="#sprite0"/>
    <use ffdec:characterId="652" height="8.75" transform="matrix(0.6818, 0.172, -0.189, 0.6775, 13.3723, -166.9538)" width="8.8" xlink:href="#sprite0"/>
    <use ffdec:characterId="652" height="8.75" transform="matrix(0.6975, 0.1759, -0.1934, 0.6931, 35.8723, -145.6888)" width="8.8" xlink:href="#sprite0"/>
    <use ffdec:characterId="652" height="8.75" transform="matrix(0.7242, 0.1826, -0.2008, 0.7196, 46.8371, -152.6837)" width="8.8" xlink:href="#sprite0"/>
    <use ffdec:characterId="652" height="8.75" transform="matrix(0.7541, 0.1902, -0.2091, 0.7493, 8.2916, -155.5463)" width="8.8" xlink:href="#sprite0"/>
    <use ffdec:characterId="652" height="8.75" transform="matrix(0.8111, 0.2046, -0.2249, 0.806, 48.6094, -119.8062)" width="8.8" xlink:href="#sprite0"/>
    <use ffdec:characterId="652" height="8.75" transform="matrix(0.5146, 0.1298, -0.1427, 0.5113, 62.5564, -115.4453)" width="8.8" xlink:href="#sprite0"/>
    <use ffdec:characterId="652" height="8.75" transform="matrix(1.3672, 0.0, 0.0, 1.3672, 86.0845, -140.4971)" width="8.8" xlink:href="#sprite0"/>
    <use ffdec:characterId="652" height="8.75" transform="matrix(1.7735, 0.0, 0.0, 1.7735, 3.9467, -90.4147)" width="8.8" xlink:href="#sprite0"/>
    <use ffdec:characterId="652" height="8.75" transform="matrix(1.4558, 0.0, 0.0, 1.4558, -73.0556, -116.0328)" width="8.8" xlink:href="#sprite0"/>
    <use ffdec:characterId="652" height="8.75" transform="matrix(1.4202, 0.0, 0.0, 1.4202, -20.2487, -107.2277)" width="8.8" xlink:href="#sprite0"/>
    <use ffdec:characterId="652" height="8.75" transform="matrix(1.4212, 0.0, 0.0, 1.4212, -7.7034, -157.4824)" width="8.8" xlink:href="#sprite0"/>
    <use ffdec:characterId="652" height="8.75" transform="matrix(1.436, 0.0, 0.0, 1.436, 29.8314, -135.2468)" width="8.8" xlink:href="#sprite0"/>
    <use ffdec:characterId="652" height="8.75" transform="matrix(1.4596, 0.0, 0.0, 1.4596, 29.3776, -143.8494)" width="8.8" xlink:href="#sprite0"/>
    <use ffdec:characterId="652" height="8.75" transform="matrix(1.5363, 0.0, 0.0, 1.5363, 0.4402, -141.283)" width="8.8" xlink:href="#sprite0"/>
    <use ffdec:characterId="652" height="8.75" transform="matrix(1.7295, 0.0, 0.0, 1.7295, 4.09, -97.4235)" width="8.8" xlink:href="#sprite0"/>
    <use ffdec:characterId="652" height="8.75" transform="matrix(1.2933, 0.0, 0.0, 1.2933, 59.2093, -138.726)" width="8.8" xlink:href="#sprite0"/>
    <use ffdec:characterId="652" height="8.75" transform="matrix(-0.6888, -1.1809, 1.1809, -0.6888, -75.0064, -142.2576)" width="8.8" xlink:href="#sprite0"/>
    <use ffdec:characterId="652" height="8.75" transform="matrix(-0.8935, -1.5319, 1.5319, -0.8935, 9.5676, -96.5228)" width="8.8" xlink:href="#sprite0"/>
    <use ffdec:characterId="652" height="8.75" transform="matrix(-0.7335, -1.2575, 1.2575, -0.7335, 26.257, -17.1264)" width="8.8" xlink:href="#sprite0"/>
    <use ffdec:characterId="652" height="8.75" transform="matrix(-0.7155, -1.2267, 1.2267, -0.7155, 7.3119, -67.19)" width="8.8" xlink:href="#sprite0"/>
    <use ffdec:characterId="652" height="8.75" transform="matrix(-0.716, -1.2276, 1.2276, -0.716, -42.4897, -52.6836)" width="8.8" xlink:href="#sprite0"/>
    <use ffdec:characterId="652" height="8.75" transform="matrix(-0.7235, -1.2404, 1.2404, -0.7235, -42.1125, -96.2949)" width="8.8" xlink:href="#sprite0"/>
    <use ffdec:characterId="652" height="8.75" transform="matrix(-0.7354, -1.2608, 1.2608, -0.7354, -49.3489, -91.5535)" width="8.8" xlink:href="#sprite0"/>
    <use ffdec:characterId="652" height="8.75" transform="matrix(-0.774, -1.3271, 1.3271, -0.774, -32.567, -67.844)" width="8.8" xlink:href="#sprite0"/>
    <use ffdec:characterId="652" height="8.75" transform="matrix(-0.8714, -1.494, 1.494, -0.8714, 3.4853, -93.1361)" width="8.8" xlink:href="#sprite0"/>
    <use ffdec:characterId="652" height="8.75" transform="matrix(-0.6516, -1.1172, 1.1172, -0.6516, -59.9427, -119.9)" width="8.8" xlink:href="#sprite0"/>
    <use ffdec:characterId="652" height="8.75" transform="matrix(-0.9947, 0.9378, -0.9378, -0.9947, -25.2936, -3.4493)" width="8.8" xlink:href="#sprite0"/>
    <use ffdec:characterId="652" height="8.75" transform="matrix(-1.2904, 1.2166, -1.2166, -1.2904, 0.1197, -96.1897)" width="8.8" xlink:href="#sprite0"/>
    <use ffdec:characterId="652" height="8.75" transform="matrix(-1.0592, 0.9986, -0.9986, -1.0592, 73.7547, -130.3864)" width="8.8" xlink:href="#sprite0"/>
    <use ffdec:characterId="652" height="8.75" transform="matrix(-1.0333, 0.9742, -0.9742, -1.0333, 29.1843, -100.5416)" width="8.8" xlink:href="#sprite0"/>
    <use ffdec:characterId="652" height="8.75" transform="matrix(-1.0341, 0.9749, -0.9749, -1.0341, 54.6408, -55.3914)" width="8.8" xlink:href="#sprite0"/>
    <use ffdec:characterId="652" height="8.75" transform="matrix(-1.0448, 0.9851, -0.9851, -1.0448, 12.0324, -45.8393)" width="8.8" xlink:href="#sprite0"/>
    <use ffdec:characterId="652" height="8.75" transform="matrix(-1.062, 1.0013, -1.0013, -1.062, 18.2783, -39.9358)" width="8.8" xlink:href="#sprite0"/>
    <use ffdec:characterId="652" height="8.75" transform="matrix(-1.1178, 1.0539, -1.0539, -1.1178, 37.5527, -61.5745)" width="8.8" xlink:href="#sprite0"/>
    <use ffdec:characterId="652" height="8.75" transform="matrix(-1.2584, 1.1864, -1.1864, -1.2584, 4.7978, -91.0462)" width="8.8" xlink:href="#sprite0"/>
    <use ffdec:characterId="652" height="8.75" transform="matrix(-0.941, 0.8872, -0.8872, -0.941, -6.9502, -23.1602)" width="8.8" xlink:href="#sprite0"/>
    <use ffdec:characterId="652" height="8.75" transform="matrix(0.0077, -0.915, 0.9148, 0.0306, -24.5634, -156.7072)" width="8.8" xlink:href="#sprite0"/>
    <use ffdec:characterId="652" height="8.75" transform="matrix(0.01, -1.187, 1.1867, 0.0397, 8.4939, -100.6503)" width="8.8" xlink:href="#sprite0"/>
    <use ffdec:characterId="652" height="8.75" transform="matrix(0.0082, -0.9743, 0.9741, 0.0326, -9.0736, -49.7048)" width="8.8" xlink:href="#sprite0"/>
    <use ffdec:characterId="652" height="8.75" transform="matrix(0.008, -0.9505, 0.9503, 0.0318, -2.869, -84.8063)" width="8.8" xlink:href="#sprite0"/>
    <use ffdec:characterId="652" height="8.75" transform="matrix(0.008, -0.9512, 0.951, 0.0319, -36.4221, -94.3034)" width="8.8" xlink:href="#sprite0"/>
    <use ffdec:characterId="652" height="8.75" transform="matrix(0.0081, -0.9611, 0.9609, 0.0322, -21.3155, -118.9111)" width="8.8" xlink:href="#sprite0"/>
    <use ffdec:characterId="652" height="8.75" transform="matrix(0.0082, -0.9769, 0.9767, 0.0327, -27.0848, -118.844)" width="8.8" xlink:href="#sprite0"/>
    <use ffdec:characterId="652" height="8.75" transform="matrix(0.0087, -1.0282, 1.028, 0.0344, -25.5599, -99.4256)" width="8.8" xlink:href="#sprite0"/>
    <use ffdec:characterId="652" height="8.75" transform="matrix(0.0098, -1.1575, 1.1573, 0.0388, 3.8228, -100.8755)" width="8.8" xlink:href="#sprite0"/>
    <use ffdec:characterId="652" height="8.75" transform="matrix(0.0073, -0.8656, 0.8654, 0.029, -23.5467, -138.6675)" width="8.8" xlink:href="#sprite0"/>
    <use ffdec:characterId="652" height="8.75" transform="matrix(-0.9139, 0.045, -0.022, -0.9151, -51.3828, -56.7673)" width="8.8" xlink:href="#sprite0"/>
    <use ffdec:characterId="652" height="8.75" transform="matrix(-1.1855, 0.0583, -0.0286, -1.187, 2.7409, -92.9431)" width="8.8" xlink:href="#sprite0"/>
    <use ffdec:characterId="652" height="8.75" transform="matrix(-0.9732, 0.0479, -0.0235, -0.9744, 54.6842, -78.372)" width="8.8" xlink:href="#sprite0"/>
    <use ffdec:characterId="652" height="8.75" transform="matrix(-0.9494, 0.0467, -0.0229, -0.9505, 19.2268, -82.5207)" width="8.8" xlink:href="#sprite0"/>
    <use ffdec:characterId="652" height="8.75" transform="matrix(-0.9501, 0.0467, -0.0229, -0.9512, 11.5801, -48.4177)" width="8.8" xlink:href="#sprite0"/>
    <use ffdec:characterId="652" height="8.75" transform="matrix(-0.96, 0.0472, -0.0232, -0.9612, -13.8254, -62.0768)" width="8.8" xlink:href="#sprite0"/>
    <use ffdec:characterId="652" height="8.75" transform="matrix(-0.9757, 0.048, -0.0235, -0.9769, -13.3543, -56.4115)" width="8.8" xlink:href="#sprite0"/>
    <use ffdec:characterId="652" height="8.75" transform="matrix(-1.027, 0.0505, -0.0248, -1.0283, 5.8766, -59.0493)" width="8.8" xlink:href="#sprite0"/>
    <use ffdec:characterId="652" height="8.75" transform="matrix(-1.1562, 0.0569, -0.0279, -1.1576, 2.7586, -88.2647)" width="8.8" xlink:href="#sprite0"/>
    <use ffdec:characterId="652" height="8.75" transform="matrix(-0.8646, 0.0425, -0.0209, -0.8656, -33.4051, -58.7716)" width="8.8" xlink:href="#sprite0"/>
    <use ffdec:characterId="652" height="8.75" transform="matrix(0.8873, 0.2238, -0.246, 0.8816, 65.6662, -95.6696)" width="8.8" xlink:href="#sprite0"/>
    <use ffdec:characterId="652" height="8.75" transform="matrix(1.1509, 0.2903, -0.3191, 1.1437, 3.374, -76.802)" width="8.8" xlink:href="#sprite0"/>
    <use ffdec:characterId="652" height="8.75" transform="matrix(0.9448, 0.2383, -0.2619, 0.9388, -41.9676, -105.9822)" width="8.8" xlink:href="#sprite0"/>
    <use ffdec:characterId="652" height="8.75" transform="matrix(0.9216, 0.2324, -0.2555, 0.9158, -9.2436, -91.6065)" width="8.8" xlink:href="#sprite0"/>
    <use ffdec:characterId="652" height="8.75" transform="matrix(0.9223, 0.2326, -0.2557, 0.9165, 7.9041, -122.0103)" width="8.8" xlink:href="#sprite0"/>
    <use ffdec:characterId="652" height="8.75" transform="matrix(0.9319, 0.235, -0.2584, 0.9261, 28.2734, -101.4625)" width="8.8" xlink:href="#sprite0"/>
    <use ffdec:characterId="652" height="8.75" transform="matrix(0.9473, 0.2389, -0.2626, 0.9413, 29.4746, -107.0956)" width="8.8" xlink:href="#sprite0"/>
    <use ffdec:characterId="652" height="8.75" transform="matrix(0.997, 0.2514, -0.2764, 0.9907, 10.3156, -110.166)" width="8.8" xlink:href="#sprite0"/>
    <use ffdec:characterId="652" height="8.75" transform="matrix(1.1224, 0.2831, -0.3112, 1.1153, 4.7151, -81.2972)" width="8.8" xlink:href="#sprite0"/>
    <use ffdec:characterId="652" height="8.75" transform="matrix(0.8393, 0.2117, -0.2327, 0.834, 47.9692, -98.8594)" width="8.8" xlink:href="#sprite0"/>
  </g>
  <defs>
    <g id="sprite0" transform="matrix(1.0, 0.0, 0.0, 1.0, 4.4, 4.35)">
      <use ffdec:characterId="651" height="1.25" transform="matrix(0.4444, 0.0, 0.0, 7.0, -4.3778, -4.35)" width="19.7" xlink:href="#shape0"/>
    </g>
    <g id="shape0" transform="matrix(1.0, 0.0, 0.0, 1.0, 9.85, 1.25)">
      <path d="M6.95 -0.2 L0.0 0.0 -6.95 -0.2 Q-9.85 -0.35 -9.85 -0.65 -9.85 -0.9 -6.95 -1.05 L0.0 -1.25 6.95 -1.05 Q9.85 -0.9 9.85 -0.65 9.85 -0.35 6.95 -0.2" fill="#53fea9" fill-opacity="0.011764706" fill-rule="evenodd" stroke="none"/>
    </g>
  </defs>
</svg>
