<?xml version="1.0" encoding="UTF-8" standalone="no"?>
<svg xmlns:ffdec="https://www.free-decompiler.com/flash" xmlns:xlink="http://www.w3.org/1999/xlink" ffdec:objectType="frame" height="355.7px" width="336.85px" xmlns="http://www.w3.org/2000/svg">
  <g transform="matrix(1.0, 0.0, 0.0, 1.0, 181.95, 272.85)">
    <use ffdec:characterId="652" height="8.75" transform="matrix(0.7345, 0.0, 0.0, 0.7345, -59.2819, -213.3952)" width="8.8" xlink:href="#sprite0"/>
    <use ffdec:characterId="652" height="8.75" transform="matrix(0.7513, 0.0, 0.0, 0.7513, 21.7943, -241.4681)" width="8.8" xlink:href="#sprite0"/>
    <use ffdec:characterId="652" height="8.75" transform="matrix(0.7343, 0.0, 0.0, 0.7343, -81.1308, -197.3941)" width="8.8" xlink:href="#sprite0"/>
    <use ffdec:characterId="652" height="8.75" transform="matrix(0.799, 0.0, 0.0, 0.799, 63.9344, -235.8757)" width="8.8" xlink:href="#sprite0"/>
    <use ffdec:characterId="652" height="8.75" transform="matrix(0.8188, 0.0, 0.0, 0.8188, 64.6472, -272.0619)" width="8.8" xlink:href="#sprite0"/>
    <use ffdec:characterId="652" height="8.75" transform="matrix(0.8076, 0.0, 0.0, 0.8076, 123.4464, -182.9133)" width="8.8" xlink:href="#sprite0"/>
    <use ffdec:characterId="652" height="8.75" transform="matrix(-0.3701, -0.6345, 0.6345, -0.3701, -64.7817, 20.1015)" width="8.8" xlink:href="#sprite0"/>
    <use ffdec:characterId="652" height="8.75" transform="matrix(-0.3785, -0.649, 0.649, -0.3785, -129.8576, -35.898)" width="8.8" xlink:href="#sprite0"/>
    <use ffdec:characterId="652" height="8.75" transform="matrix(-0.3699, -0.6343, 0.6343, -0.3699, -39.9313, 30.8)" width="8.8" xlink:href="#sprite0"/>
    <use ffdec:characterId="652" height="8.75" transform="matrix(-0.4026, -0.6902, 0.6902, -0.4026, -146.2811, -75.0621)" width="8.8" xlink:href="#sprite0"/>
    <use ffdec:characterId="652" height="8.75" transform="matrix(-0.4125, -0.7073, 0.7073, -0.4125, -177.8616, -57.4434)" width="8.8" xlink:href="#sprite0"/>
    <use ffdec:characterId="652" height="8.75" transform="matrix(-0.4069, -0.6976, 0.6976, -0.4069, -130.4943, -153.2604)" width="8.8" xlink:href="#sprite0"/>
    <use ffdec:characterId="652" height="8.75" transform="matrix(-0.5344, 0.5039, -0.5039, -0.5344, 130.5433, -50.1922)" width="8.8" xlink:href="#sprite0"/>
    <use ffdec:characterId="652" height="8.75" transform="matrix(-0.5466, 0.5154, -0.5154, -0.5466, 90.7471, 25.9603)" width="8.8" xlink:href="#sprite0"/>
    <use ffdec:characterId="652" height="8.75" transform="matrix(-0.5343, 0.5037, -0.5037, -0.5343, 135.3918, -76.6922)" width="8.8" xlink:href="#sprite0"/>
    <use ffdec:characterId="652" height="8.75" transform="matrix(-0.5814, 0.5481, -0.5481, -0.5814, 56.2422, 50.7673)" width="8.8" xlink:href="#sprite0"/>
    <use ffdec:characterId="652" height="8.75" transform="matrix(-0.5958, 0.5617, -0.5617, -0.5958, 80.5647, 77.5702)" width="8.8" xlink:href="#sprite0"/>
    <use ffdec:characterId="652" height="8.75" transform="matrix(-0.5876, 0.554, -0.554, -0.5876, -23.4045, 53.0685)" width="8.8" xlink:href="#sprite0"/>
    <use ffdec:characterId="652" height="8.75" transform="matrix(0.0041, -0.4916, 0.4915, 0.0165, -74.1562, -61.0086)" width="8.8" xlink:href="#sprite0"/>
    <use ffdec:characterId="652" height="8.75" transform="matrix(0.0042, -0.5028, 0.5027, 0.0168, -92.5055, -115.9609)" width="8.8" xlink:href="#sprite0"/>
    <use ffdec:characterId="652" height="8.75" transform="matrix(0.0041, -0.4914, 0.4913, 0.0165, -63.5555, -46.1093)" width="8.8" xlink:href="#sprite0"/>
    <use ffdec:characterId="652" height="8.75" transform="matrix(0.0045, -0.5348, 0.5347, 0.0179, -88.4955, -144.025)" width="8.8" xlink:href="#sprite0"/>
    <use ffdec:characterId="652" height="8.75" transform="matrix(0.0046, -0.548, 0.5479, 0.0184, -112.7036, -145.3186)" width="8.8" xlink:href="#sprite0"/>
    <use ffdec:characterId="652" height="8.75" transform="matrix(0.0045, -0.5405, 0.5404, 0.0181, -52.7208, -182.7003)" width="8.8" xlink:href="#sprite0"/>
    <use ffdec:characterId="652" height="8.75" transform="matrix(-0.491, 0.0242, -0.0119, -0.4916, 47.062, -12.7677)" width="8.8" xlink:href="#sprite0"/>
    <use ffdec:characterId="652" height="8.75" transform="matrix(-0.5022, 0.0247, -0.0121, -0.5029, -6.7375, 8.6787)" width="8.8" xlink:href="#sprite0"/>
    <use ffdec:characterId="652" height="8.75" transform="matrix(-0.4909, 0.0241, -0.0118, -0.4915, 61.3613, -24.2184)" width="8.8" xlink:href="#sprite0"/>
    <use ffdec:characterId="652" height="8.75" transform="matrix(-0.5341, 0.0263, -0.0129, -0.5348, -34.9938, 6.3607)" width="8.8" xlink:href="#sprite0"/>
    <use ffdec:characterId="652" height="8.75" transform="matrix(-0.5474, 0.0269, -0.0132, -0.548, -34.8841, 30.6155)" width="8.8" xlink:href="#sprite0"/>
    <use ffdec:characterId="652" height="8.75" transform="matrix(-0.5399, 0.0266, -0.013, -0.5406, -75.6177, -27.1155)" width="8.8" xlink:href="#sprite0"/>
    <use ffdec:characterId="652" height="8.75" transform="matrix(0.4767, 0.1202, -0.1322, 0.4737, -15.5225, -166.4394)" width="8.8" xlink:href="#sprite0"/>
    <use ffdec:characterId="652" height="8.75" transform="matrix(0.4876, 0.123, -0.1352, 0.4845, 42.1427, -171.2485)" width="8.8" xlink:href="#sprite0"/>
    <use ffdec:characterId="652" height="8.75" transform="matrix(0.4765, 0.1202, -0.1321, 0.4735, -32.572, -159.7386)" width="8.8" xlink:href="#sprite0"/>
    <use ffdec:characterId="652" height="8.75" transform="matrix(0.5185, 0.1308, -0.1438, 0.5153, 68.4938, -160.7668)" width="8.8" xlink:href="#sprite0"/>
    <use ffdec:characterId="652" height="8.75" transform="matrix(0.5314, 0.134, -0.1473, 0.528, 75.5028, -183.9865)" width="8.8" xlink:href="#sprite0"/>
    <use ffdec:characterId="652" height="8.75" transform="matrix(0.5241, 0.1322, -0.1453, 0.5208, 97.5759, -116.8472)" width="8.8" xlink:href="#sprite0"/>
    <use ffdec:characterId="652" height="8.75" transform="matrix(0.7642, 0.0, 0.0, 0.7642, 85.5877, -234.8241)" width="8.8" xlink:href="#sprite0"/>
    <use ffdec:characterId="652" height="8.75" transform="matrix(0.8678, 0.0, 0.0, 0.8678, -52.5684, -191.1251)" width="8.8" xlink:href="#sprite0"/>
    <use ffdec:characterId="652" height="8.75" transform="matrix(0.8765, 0.0, 0.0, 0.8765, -10.9564, -233.6126)" width="8.8" xlink:href="#sprite0"/>
    <use ffdec:characterId="652" height="8.75" transform="matrix(0.8223, 0.0, 0.0, 0.8223, -64.668, -180.9769)" width="8.8" xlink:href="#sprite0"/>
    <use ffdec:characterId="652" height="8.75" transform="matrix(0.8535, 0.0, 0.0, 0.8535, -60.5553, -229.4627)" width="8.8" xlink:href="#sprite0"/>
    <use ffdec:characterId="652" height="8.75" transform="matrix(0.8736, 0.0, 0.0, 0.8736, 53.6063, -225.9)" width="8.8" xlink:href="#sprite0"/>
    <use ffdec:characterId="652" height="8.75" transform="matrix(0.9135, 0.0, 0.0, 0.9135, 65.3806, -250.0237)" width="8.8" xlink:href="#sprite0"/>
    <use ffdec:characterId="652" height="8.75" transform="matrix(0.9858, 0.0, 0.0, 0.9858, -8.1874, -257.4881)" width="8.8" xlink:href="#sprite0"/>
    <use ffdec:characterId="652" height="8.75" transform="matrix(0.9588, 0.0, 0.0, 0.9588, 87.3815, -179.5706)" width="8.8" xlink:href="#sprite0"/>
    <use ffdec:characterId="652" height="8.75" transform="matrix(0.5336, 0.0, 0.0, 0.5336, 118.0523, -178.821)" width="8.8" xlink:href="#sprite0"/>
    <use ffdec:characterId="652" height="8.75" transform="matrix(-0.385, -0.6601, 0.6601, -0.385, -156.2273, -94.271)" width="8.8" xlink:href="#sprite0"/>
    <use ffdec:characterId="652" height="8.75" transform="matrix(-0.4372, -0.7496, 0.7496, -0.4372, -48.887, 3.0003)" width="8.8" xlink:href="#sprite0"/>
    <use ffdec:characterId="652" height="8.75" transform="matrix(-0.4416, -0.7571, 0.7571, -0.4416, -106.5504, -11.548)" width="8.8" xlink:href="#sprite0"/>
    <use ffdec:characterId="652" height="8.75" transform="matrix(-0.4143, -0.7103, 0.7103, -0.4143, -34.0669, 8.3273)" width="8.8" xlink:href="#sprite0"/>
    <use ffdec:characterId="652" height="8.75" transform="matrix(-0.43, -0.7372, 0.7372, -0.43, -78.015, 29.2643)" width="8.8" xlink:href="#sprite0"/>
    <use ffdec:characterId="652" height="8.75" transform="matrix(-0.4401, -0.7546, 0.7546, -0.4401, -132.4459, -71.1654)" width="8.8" xlink:href="#sprite0"/>
    <use ffdec:characterId="652" height="8.75" transform="matrix(-0.4602, -0.7891, 0.7891, -0.4602, -159.2575, -69.226)" width="8.8" xlink:href="#sprite0"/>
    <use ffdec:characterId="652" height="8.75" transform="matrix(-0.4967, -0.8515, 0.8515, -0.4967, -128.5688, -1.9429)" width="8.8" xlink:href="#sprite0"/>
    <use ffdec:characterId="652" height="8.75" transform="matrix(-0.483, -0.8282, 0.8282, -0.483, -109.4771, -123.7049)" width="8.8" xlink:href="#sprite0"/>
    <use ffdec:characterId="652" height="8.75" transform="matrix(-0.2688, -0.4609, 0.4609, -0.2688, -124.2721, -150.5527)" width="8.8" xlink:href="#sprite0"/>
    <use ffdec:characterId="652" height="8.75" transform="matrix(-0.556, 0.5242, -0.5242, -0.556, 39.7766, 64.8622)" width="8.8" xlink:href="#sprite0"/>
    <use ffdec:characterId="652" height="8.75" transform="matrix(-0.6314, 0.5953, -0.5953, -0.6314, 110.2678, -61.6727)" width="8.8" xlink:href="#sprite0"/>
    <use ffdec:characterId="652" height="8.75" transform="matrix(-0.6377, 0.6012, -0.6012, -0.6377, 109.2213, -2.2214)" width="8.8" xlink:href="#sprite0"/>
    <use ffdec:characterId="652" height="8.75" transform="matrix(-0.5983, 0.5641, -0.5641, -0.5983, 112.1861, -77.3793)" width="8.8" xlink:href="#sprite0"/>
    <use ffdec:characterId="652" height="8.75" transform="matrix(-0.621, 0.5855, -0.5855, -0.621, 142.4291, -39.3248)" width="8.8" xlink:href="#sprite0"/>
    <use ffdec:characterId="652" height="8.75" transform="matrix(-0.6356, 0.5992, -0.5992, -0.6356, 56.9534, 36.4282)" width="8.8" xlink:href="#sprite0"/>
    <use ffdec:characterId="652" height="8.75" transform="matrix(-0.6647, 0.6266, -0.6266, -0.6647, 64.9003, 62.0841)" width="8.8" xlink:href="#sprite0"/>
    <use ffdec:characterId="652" height="8.75" transform="matrix(-0.7173, 0.6762, -0.6762, -0.7173, 123.5475, 16.9947)" width="8.8" xlink:href="#sprite0"/>
    <use ffdec:characterId="652" height="8.75" transform="matrix(-0.6976, 0.6577, -0.6577, -0.6976, 0.5802, 25.8908)" width="8.8" xlink:href="#sprite0"/>
    <use ffdec:characterId="652" height="8.75" transform="matrix(-0.3882, 0.366, -0.366, -0.3882, -22.1997, 46.4283)" width="8.8" xlink:href="#sprite0"/>
    <use ffdec:characterId="652" height="8.75" transform="matrix(0.0043, -0.5114, 0.5113, 0.0171, -87.6432, -158.4742)" width="8.8" xlink:href="#sprite0"/>
    <use ffdec:characterId="652" height="8.75" transform="matrix(0.0049, -0.5808, 0.5807, 0.0195, -59.1975, -65.0791)" width="8.8" xlink:href="#sprite0"/>
    <use ffdec:characterId="652" height="8.75" transform="matrix(0.0049, -0.5866, 0.5865, 0.0196, -87.4229, -93.8044)" width="8.8" xlink:href="#sprite0"/>
    <use ffdec:characterId="652" height="8.75" transform="matrix(0.0046, -0.5503, 0.5502, 0.0184, -52.5139, -56.7087)" width="8.8" xlink:href="#sprite0"/>
    <use ffdec:characterId="652" height="8.75" transform="matrix(0.0048, -0.5712, 0.5711, 0.0191, -84.8555, -60.5699)" width="8.8" xlink:href="#sprite0"/>
    <use ffdec:characterId="652" height="8.75" transform="matrix(0.0049, -0.5847, 0.5845, 0.0196, -81.8644, -136.8627)" width="8.8" xlink:href="#sprite0"/>
    <use ffdec:characterId="652" height="8.75" transform="matrix(0.0051, -0.6114, 0.6113, 0.0205, -97.9816, -145.299)" width="8.8" xlink:href="#sprite0"/>
    <use ffdec:characterId="652" height="8.75" transform="matrix(0.0056, -0.6598, 0.6596, 0.0221, -103.3438, -96.2432)" width="8.8" xlink:href="#sprite0"/>
    <use ffdec:characterId="652" height="8.75" transform="matrix(0.0054, -0.6417, 0.6415, 0.0215, -50.7145, -158.4701)" width="8.8" xlink:href="#sprite0"/>
    <use ffdec:characterId="652" height="8.75" transform="matrix(0.003, -0.3571, 0.357, 0.012, -50.0163, -178.9308)" width="8.8" xlink:href="#sprite0"/>
    <use ffdec:characterId="652" height="8.75" transform="matrix(-0.5108, 0.0251, -0.0123, -0.5115, -49.4488, 6.4143)" width="8.8" xlink:href="#sprite0"/>
    <use ffdec:characterId="652" height="8.75" transform="matrix(-0.5801, 0.0285, -0.014, -0.5808, 42.1135, -27.4489)" width="8.8" xlink:href="#sprite0"/>
    <use ffdec:characterId="652" height="8.75" transform="matrix(-0.5859, 0.0288, -0.0141, -0.5866, 14.9895, 2.375)" width="8.8" xlink:href="#sprite0"/>
    <use ffdec:characterId="652" height="8.75" transform="matrix(-0.5497, 0.027, -0.0133, -0.5504, 50.0763, -34.6249)" width="8.8" xlink:href="#sprite0"/>
    <use ffdec:characterId="652" height="8.75" transform="matrix(-0.5705, 0.0281, -0.0138, -0.5712, 48.1203, -2.0386)" width="8.8" xlink:href="#sprite0"/>
    <use ffdec:characterId="652" height="8.75" transform="matrix(-0.584, 0.0287, -0.0141, -0.5847, -28.2192, -0.633)" width="8.8" xlink:href="#sprite0"/>
    <use ffdec:characterId="652" height="8.75" transform="matrix(-0.6107, 0.03, -0.0147, -0.6114, -35.6989, 15.8775)" width="8.8" xlink:href="#sprite0"/>
    <use ffdec:characterId="652" height="8.75" transform="matrix(-0.659, 0.0324, -0.0159, -0.6598, 13.5687, 18.4275)" width="8.8" xlink:href="#sprite0"/>
    <use ffdec:characterId="652" height="8.75" transform="matrix(-0.6409, 0.0315, -0.0155, -0.6417, -51.6127, -30.5473)" width="8.8" xlink:href="#sprite0"/>
    <use ffdec:characterId="652" height="8.75" transform="matrix(-0.3567, 0.0175, -0.0086, -0.3571, -72.0932, -30.0238)" width="8.8" xlink:href="#sprite0"/>
    <use ffdec:characterId="652" height="8.75" transform="matrix(0.4959, 0.1251, -0.1375, 0.4928, 82.3161, -156.5439)" width="8.8" xlink:href="#sprite0"/>
    <use ffdec:characterId="652" height="8.75" transform="matrix(0.5632, 0.142, -0.1561, 0.5596, -15.1488, -151.0093)" width="8.8" xlink:href="#sprite0"/>
    <use ffdec:characterId="652" height="8.75" transform="matrix(0.5688, 0.1434, -0.1577, 0.5652, 19.5333, -171.5898)" width="8.8" xlink:href="#sprite0"/>
    <use ffdec:characterId="652" height="8.75" transform="matrix(0.5336, 0.1346, -0.1479, 0.5303, -24.8544, -146.4488)" width="8.8" xlink:href="#sprite0"/>
    <use ffdec:characterId="652" height="8.75" transform="matrix(0.5539, 0.1397, -0.1536, 0.5504, -13.4691, -176.9588)" width="8.8" xlink:href="#sprite0"/>
    <use ffdec:characterId="652" height="8.75" transform="matrix(0.5669, 0.143, -0.1572, 0.5633, 59.9893, -156.0796)" width="8.8" xlink:href="#sprite0"/>
    <use ffdec:characterId="652" height="8.75" transform="matrix(0.5928, 0.1495, -0.1644, 0.5891, 72.0065, -169.6704)" width="8.8" xlink:href="#sprite0"/>
    <use ffdec:characterId="652" height="8.75" transform="matrix(0.6397, 0.1613, -0.1774, 0.6357, 25.6067, -186.5251)" width="8.8" xlink:href="#sprite0"/>
    <use ffdec:characterId="652" height="8.75" transform="matrix(0.6222, 0.1569, -0.1725, 0.6183, 73.6127, -120.6799)" width="8.8" xlink:href="#sprite0"/>
    <use ffdec:characterId="652" height="8.75" transform="matrix(0.3463, 0.0873, -0.096, 0.3441, 93.3441, -115.181)" width="8.8" xlink:href="#sprite0"/>
  </g>
  <defs>
    <g id="sprite0" transform="matrix(1.0, 0.0, 0.0, 1.0, 4.4, 4.35)">
      <use ffdec:characterId="651" height="1.25" transform="matrix(0.4444, 0.0, 0.0, 7.0, -4.3778, -4.35)" width="19.7" xlink:href="#shape0"/>
    </g>
    <g id="shape0" transform="matrix(1.0, 0.0, 0.0, 1.0, 9.85, 1.25)">
      <path d="M6.95 -0.2 L0.0 0.0 -6.95 -0.2 Q-9.85 -0.35 -9.85 -0.65 -9.85 -0.9 -6.95 -1.05 L0.0 -1.25 6.95 -1.05 Q9.85 -0.9 9.85 -0.65 9.85 -0.35 6.95 -0.2" fill="#91feb6" fill-opacity="0.0" fill-rule="evenodd" stroke="none"/>
    </g>
  </defs>
</svg>
