<?xml version="1.0" encoding="UTF-8" standalone="no"?>
<svg xmlns:ffdec="https://www.free-decompiler.com/flash" xmlns:xlink="http://www.w3.org/1999/xlink" ffdec:objectType="frame" height="355.7px" width="336.85px" xmlns="http://www.w3.org/2000/svg">
  <g transform="matrix(1.0, 0.0, 0.0, 1.0, 181.95, 272.85)">
    <use ffdec:characterId="652" height="8.75" transform="matrix(1.4073, 0.0, 0.0, 1.4073, 83.3077, -132.122)" width="8.8" xlink:href="#sprite0"/>
    <use ffdec:characterId="652" height="8.75" transform="matrix(1.4883, 0.0, 0.0, 1.4883, -66.8983, -109.7739)" width="8.8" xlink:href="#sprite0"/>
    <use ffdec:characterId="652" height="8.75" transform="matrix(1.4558, 0.0, 0.0, 1.4558, -29.5056, -105.5328)" width="8.8" xlink:href="#sprite0"/>
    <use ffdec:characterId="652" height="8.75" transform="matrix(1.4565, 0.0, 0.0, 1.4565, -7.2085, -149.6857)" width="8.8" xlink:href="#sprite0"/>
    <use ffdec:characterId="652" height="8.75" transform="matrix(1.47, 0.0, 0.0, 1.47, 30.0321, -128.6444)" width="8.8" xlink:href="#sprite0"/>
    <use ffdec:characterId="652" height="8.75" transform="matrix(1.4914, 0.0, 0.0, 1.4914, 29.4877, -136.4877)" width="8.8" xlink:href="#sprite0"/>
    <use ffdec:characterId="652" height="8.75" transform="matrix(1.573, 0.0, 0.0, 1.573, -10.2714, -136.0427)" width="8.8" xlink:href="#sprite0"/>
    <use ffdec:characterId="652" height="8.75" transform="matrix(1.7735, 0.0, 0.0, 1.7735, 7.8467, -87.8647)" width="8.8" xlink:href="#sprite0"/>
    <use ffdec:characterId="652" height="8.75" transform="matrix(1.3413, 0.0, 0.0, 1.3413, 54.6484, -131.5345)" width="8.8" xlink:href="#sprite0"/>
    <use ffdec:characterId="652" height="8.75" transform="matrix(-0.709, -1.2157, 1.2157, -0.709, -66.3183, -144.0668)" width="8.8" xlink:href="#sprite0"/>
    <use ffdec:characterId="652" height="8.75" transform="matrix(-0.7498, -1.2856, 1.2856, -0.7498, 28.607, -25.5819)" width="8.8" xlink:href="#sprite0"/>
    <use ffdec:characterId="652" height="8.75" transform="matrix(-0.7335, -1.2575, 1.2575, -0.7335, 13.407, -60.0264)" width="8.8" xlink:href="#sprite0"/>
    <use ffdec:characterId="652" height="8.75" transform="matrix(-0.7338, -1.2581, 1.2581, -0.7338, -35.944, -57.0223)" width="8.8" xlink:href="#sprite0"/>
    <use ffdec:characterId="652" height="8.75" transform="matrix(-0.7406, -1.2698, 1.2698, -0.7406, -36.5649, -99.7914)" width="8.8" xlink:href="#sprite0"/>
    <use ffdec:characterId="652" height="8.75" transform="matrix(-0.7514, -1.2883, 1.2883, -0.7514, -43.0479, -95.4129)" width="8.8" xlink:href="#sprite0"/>
    <use ffdec:characterId="652" height="8.75" transform="matrix(-0.7925, -1.3588, 1.3588, -0.7925, -22.7236, -61.2239)" width="8.8" xlink:href="#sprite0"/>
    <use ffdec:characterId="652" height="8.75" transform="matrix(-0.8935, -1.5319, 1.5319, -0.8935, 9.8676, -101.1728)" width="8.8" xlink:href="#sprite0"/>
    <use ffdec:characterId="652" height="8.75" transform="matrix(-0.6758, -1.1586, 1.1586, -0.6758, -51.3665, -119.6128)" width="8.8" xlink:href="#sprite0"/>
    <use ffdec:characterId="652" height="8.75" transform="matrix(-1.024, 0.9654, -0.9654, -1.024, -28.9951, -11.4935)" width="8.8" xlink:href="#sprite0"/>
    <use ffdec:characterId="652" height="8.75" transform="matrix(-1.0828, 1.0209, -1.0209, -1.0828, 64.9554, -130.7316)" width="8.8" xlink:href="#sprite0"/>
    <use ffdec:characterId="652" height="8.75" transform="matrix(-1.0592, 0.9986, -0.9986, -1.0592, 34.8047, -108.1364)" width="8.8" xlink:href="#sprite0"/>
    <use ffdec:characterId="652" height="8.75" transform="matrix(-1.0597, 0.9991, -0.9991, -1.0597, 48.9089, -60.7362)" width="8.8" xlink:href="#sprite0"/>
    <use ffdec:characterId="652" height="8.75" transform="matrix(-1.0695, 1.0084, -1.0084, -1.0695, 7.3924, -50.4843)" width="8.8" xlink:href="#sprite0"/>
    <use ffdec:characterId="652" height="8.75" transform="matrix(-1.0851, 1.0231, -1.0231, -1.0851, 13.125, -45.1811)" width="8.8" xlink:href="#sprite0"/>
    <use ffdec:characterId="652" height="8.75" transform="matrix(-1.1445, 1.0791, -1.0791, -1.1445, 41.7798, -72.7691)" width="8.8" xlink:href="#sprite0"/>
    <use ffdec:characterId="652" height="8.75" transform="matrix(-1.2904, 1.2166, -1.2166, -1.2904, -4.4803, -95.3897)" width="8.8" xlink:href="#sprite0"/>
    <use ffdec:characterId="652" height="8.75" transform="matrix(-0.9759, 0.9201, -0.9201, -0.9759, -8.6038, -31.5531)" width="8.8" xlink:href="#sprite0"/>
    <use ffdec:characterId="652" height="8.75" transform="matrix(0.0079, -0.9419, 0.9417, 0.0315, -19.0314, -154.6928)" width="8.8" xlink:href="#sprite0"/>
    <use ffdec:characterId="652" height="8.75" transform="matrix(0.0084, -0.9961, 0.9958, 0.0334, -4.8189, -53.6624)" width="8.8" xlink:href="#sprite0"/>
    <use ffdec:characterId="652" height="8.75" transform="matrix(0.0082, -0.9743, 0.9741, 0.0326, -1.7736, -78.6048)" width="8.8" xlink:href="#sprite0"/>
    <use ffdec:characterId="652" height="8.75" transform="matrix(0.0082, -0.9748, 0.9746, 0.0326, -31.1756, -94.4529)" width="8.8" xlink:href="#sprite0"/>
    <use ffdec:characterId="652" height="8.75" transform="matrix(0.0083, -0.9838, 0.9836, 0.0329, -16.9152, -118.9145)" width="8.8" xlink:href="#sprite0"/>
    <use ffdec:characterId="652" height="8.75" transform="matrix(0.0084, -0.9982, 0.998, 0.0334, -22.1282, -118.7535)" width="8.8" xlink:href="#sprite0"/>
    <use ffdec:characterId="652" height="8.75" transform="matrix(0.0089, -1.0528, 1.0526, 0.0353, -22.1677, -92.0711)" width="8.8" xlink:href="#sprite0"/>
    <use ffdec:characterId="652" height="8.75" transform="matrix(0.01, -1.187, 1.1867, 0.0397, 10.2439, -103.2003)" width="8.8" xlink:href="#sprite0"/>
    <use ffdec:characterId="652" height="8.75" transform="matrix(0.0076, -0.8977, 0.8975, 0.0301, -18.7373, -135.481)" width="8.8" xlink:href="#sprite0"/>
    <use ffdec:characterId="652" height="8.75" transform="matrix(-0.9408, 0.0463, -0.0227, -0.942, -49.6117, -62.4061)" width="8.8" xlink:href="#sprite0"/>
    <use ffdec:characterId="652" height="8.75" transform="matrix(-0.9949, 0.0489, -0.024, -0.9961, 50.4319, -82.3822)" width="8.8" xlink:href="#sprite0"/>
    <use ffdec:characterId="652" height="8.75" transform="matrix(-0.9732, 0.0479, -0.0235, -0.9744, 25.3842, -83.972)" width="8.8" xlink:href="#sprite0"/>
    <use ffdec:characterId="652" height="8.75" transform="matrix(-0.9736, 0.0479, -0.0235, -0.9748, 11.1363, -53.6702)" width="8.8" xlink:href="#sprite0"/>
    <use ffdec:characterId="652" height="8.75" transform="matrix(-0.9827, 0.0483, -0.0237, -0.9839, -14.0731, -66.5328)" width="8.8" xlink:href="#sprite0"/>
    <use ffdec:characterId="652" height="8.75" transform="matrix(-0.997, 0.049, -0.0241, -0.9982, -13.6086, -61.2735)" width="8.8" xlink:href="#sprite0"/>
    <use ffdec:characterId="652" height="8.75" transform="matrix(-1.0516, 0.0517, -0.0254, -1.0529, 12.9872, -62.8477)" width="8.8" xlink:href="#sprite0"/>
    <use ffdec:characterId="652" height="8.75" transform="matrix(-1.1855, 0.0583, -0.0286, -1.187, 0.0909, -94.5931)" width="8.8" xlink:href="#sprite0"/>
    <use ffdec:characterId="652" height="8.75" transform="matrix(-0.8966, 0.0441, -0.0216, -0.8977, -30.4608, -63.839)" width="8.8" xlink:href="#sprite0"/>
    <use ffdec:characterId="652" height="8.75" transform="matrix(0.9133, 0.2303, -0.2532, 0.9075, 62.3829, -90.7113)" width="8.8" xlink:href="#sprite0"/>
    <use ffdec:characterId="652" height="8.75" transform="matrix(0.9658, 0.2436, -0.2678, 0.9597, -39.0848, -100.8966)" width="8.8" xlink:href="#sprite0"/>
    <use ffdec:characterId="652" height="8.75" transform="matrix(0.9448, 0.2383, -0.2619, 0.9388, -15.6176, -91.9822)" width="8.8" xlink:href="#sprite0"/>
    <use ffdec:characterId="652" height="8.75" transform="matrix(0.9452, 0.2384, -0.2621, 0.9392, 6.781, -116.8345)" width="8.8" xlink:href="#sprite0"/>
    <use ffdec:characterId="652" height="8.75" transform="matrix(0.954, 0.2406, -0.2645, 0.948, 27.203, -97.1822)" width="8.8" xlink:href="#sprite0"/>
    <use ffdec:characterId="652" height="8.75" transform="matrix(0.9679, 0.2441, -0.2684, 0.9618, 28.2586, -102.3077)" width="8.8" xlink:href="#sprite0"/>
    <use ffdec:characterId="652" height="8.75" transform="matrix(1.0209, 0.2574, -0.283, 1.0144, 2.3894, -108.5954)" width="8.8" xlink:href="#sprite0"/>
    <use ffdec:characterId="652" height="8.75" transform="matrix(1.1509, 0.2903, -0.3191, 1.1437, 5.474, -74.502)" width="8.8" xlink:href="#sprite0"/>
    <use ffdec:characterId="652" height="8.75" transform="matrix(0.8704, 0.2195, -0.2413, 0.8649, 43.7199, -94.9783)" width="8.8" xlink:href="#sprite0"/>
  </g>
  <defs>
    <g id="sprite0" transform="matrix(1.0, 0.0, 0.0, 1.0, 4.4, 4.35)">
      <use ffdec:characterId="651" height="1.25" transform="matrix(0.4444, 0.0, 0.0, 7.0, -4.3778, -4.35)" width="19.7" xlink:href="#shape0"/>
    </g>
    <g id="shape0" transform="matrix(1.0, 0.0, 0.0, 1.0, 9.85, 1.25)">
      <path d="M6.95 -0.2 L0.0 0.0 -6.95 -0.2 Q-9.85 -0.35 -9.85 -0.65 -9.85 -0.9 -6.95 -1.05 L0.0 -1.25 6.95 -1.05 Q9.85 -0.9 9.85 -0.65 9.85 -0.35 6.95 -0.2" fill="#6dda91" fill-opacity="0.64705884" fill-rule="evenodd" stroke="none"/>
    </g>
  </defs>
</svg>
