<?xml version="1.0" encoding="UTF-8" standalone="no"?>
<svg xmlns:ffdec="https://www.free-decompiler.com/flash" xmlns:xlink="http://www.w3.org/1999/xlink" ffdec:objectType="frame" height="486.15px" width="551.25px" xmlns="http://www.w3.org/2000/svg">
  <g transform="matrix(1.0, 0.0, 0.0, 1.0, 265.65, 317.1)">
    <use ffdec:characterId="1224" height="68.15" transform="matrix(7.0, 0.0, 0.0, 7.0, -204.05, -317.1)" width="64.75" xlink:href="#shape0"/>
  </g>
  <defs>
    <g id="shape0" transform="matrix(1.0, 0.0, 0.0, 1.0, 29.15, 45.3)">
      <path d="M26.1 -43.55 L25.25 -42.55 24.3 -41.55 23.95 -41.55 Q23.85 -41.55 23.85 -41.9 23.85 -42.05 24.95 -43.2 26.25 -44.55 27.3 -45.25 27.6 -45.25 28.3 -44.8 29.1 -44.3 29.25 -43.75 L29.15 -43.25 29.1 -43.15 Q28.95 -43.05 28.65 -43.05 28.2 -43.05 27.35 -43.2 26.5 -43.4 26.1 -43.55 M27.55 -44.5 L27.3 -44.5 27.0 -44.4 27.75 -44.35 27.55 -44.5 M25.9 -38.15 L26.05 -38.15 Q26.1 -38.1 26.1 -37.8 26.1 -37.6 25.95 -37.4 25.75 -37.2 25.35 -37.1 L25.05 -37.2 Q24.95 -37.3 24.95 -37.65 24.95 -38.0 25.2 -38.2 25.45 -38.35 25.9 -38.15 M27.6 -30.45 Q27.4 -30.9 27.4 -31.25 27.4 -31.75 27.45 -31.75 28.1 -32.1 28.65 -31.45 29.1 -30.95 29.1 -30.45 29.1 -30.1 29.1 -30.0 L29.05 -29.95 29.0 -29.85 Q28.9 -29.75 28.6 -29.75 27.95 -29.75 27.6 -30.45 M34.65 -34.05 Q34.8 -33.8 34.8 -33.3 34.8 -33.0 34.6 -32.6 34.4 -32.2 34.0 -31.95 L33.8 -31.95 Q33.75 -32.4 33.5 -33.35 33.35 -33.85 33.25 -33.9 L33.25 -34.5 Q33.05 -34.5 32.75 -34.6 L32.25 -34.75 32.2 -34.7 Q32.15 -34.65 32.15 -35.0 32.15 -35.35 32.3 -35.3 32.35 -35.3 32.4 -35.25 L33.1 -35.1 Q33.6 -34.95 33.8 -34.95 34.5 -34.4 34.65 -34.05 M33.8 -33.8 Q34.0 -33.3 34.05 -33.2 34.1 -33.35 34.0 -33.6 33.95 -33.75 33.8 -33.85 L33.8 -33.8 M34.65 -28.95 L35.45 -29.05 35.55 -28.6 Q35.6 -28.25 35.6 -27.95 35.6 -27.3 35.45 -26.95 35.25 -26.45 34.55 -25.95 34.45 -26.0 34.4 -26.05 34.3 -26.15 34.3 -26.45 34.3 -27.0 34.45 -27.25 34.55 -27.45 35.3 -28.3 L35.3 -28.65 34.75 -28.65 34.0 -28.75 Q34.1 -28.85 34.65 -28.95 M10.85 -39.0 Q10.85 -38.75 10.7 -38.55 L9.95 -39.15 Q9.35 -39.1 8.85 -38.85 8.4 -38.55 8.2 -38.45 8.15 -38.55 8.05 -38.5 L8.05 -38.85 Q8.05 -39.3 8.9 -39.6 9.75 -39.9 10.35 -39.65 10.65 -39.35 10.85 -39.0 M5.0 -36.2 L4.35 -36.05 Q4.2 -35.95 3.9 -35.5 3.55 -34.95 3.4 -34.8 L3.2 -34.95 Q3.2 -35.45 3.65 -35.9 3.9 -36.15 4.25 -36.35 4.95 -36.3 5.0 -36.2 M3.1 -34.05 Q3.05 -33.8 2.5 -33.15 2.05 -32.6 1.7 -32.2 L0.95 -32.25 0.75 -32.55 Q0.5 -32.9 0.3 -33.0 0.1 -32.7 -0.35 -32.45 -0.8 -32.15 -1.05 -32.15 -1.6 -32.15 -1.8 -32.6 -1.9 -32.85 -1.9 -33.15 -1.9 -33.6 -1.5 -33.8 -1.35 -33.9 -1.15 -33.9 -0.85 -33.9 -0.3 -33.75 0.35 -33.5 0.7 -33.45 L0.95 -33.1 1.25 -32.7 Q1.9 -32.55 2.45 -33.35 3.0 -34.1 2.85 -34.4 L3.0 -34.4 3.1 -34.05 M10.3 -28.8 Q11.45 -29.1 11.45 -27.5 11.45 -27.15 11.3 -26.85 L11.0 -26.45 10.65 -26.35 Q10.35 -26.5 10.2 -26.75 10.05 -27.0 10.05 -27.25 10.05 -27.5 10.2 -27.75 10.4 -28.0 10.7 -28.1 L10.65 -28.2 Q10.5 -28.2 9.95 -27.9 9.4 -27.55 9.25 -27.55 L9.2 -27.5 Q9.15 -27.55 9.15 -27.9 9.15 -28.05 9.5 -28.35 9.9 -28.65 10.3 -28.8 M13.65 -34.05 L13.6 -33.65 13.45 -33.6 Q13.3 -33.5 13.2 -33.5 L12.8 -33.85 Q12.55 -34.1 12.55 -34.15 12.55 -34.5 12.6 -34.55 12.65 -34.55 12.65 -34.5 L12.95 -34.5 13.6 -34.45 13.65 -34.05 M20.05 -32.15 L21.1 -32.0 21.55 -31.45 Q21.9 -31.0 21.9 -30.85 21.9 -30.5 21.8 -30.35 21.7 -30.3 21.35 -30.25 21.3 -30.3 21.15 -30.6 L20.85 -31.05 20.05 -31.1 19.7 -31.25 Q19.6 -31.3 19.6 -31.65 L19.6 -32.0 19.7 -32.15 20.05 -32.15 M15.0 -19.2 Q15.1 -19.2 15.1 -18.85 15.1 -18.6 14.8 -18.65 14.4 -18.7 14.1 -18.5 L13.85 -18.15 Q13.75 -17.95 13.4 -17.95 13.25 -17.95 13.05 -18.2 L12.7 -18.65 Q12.1 -19.3 11.1 -19.2 L10.55 -19.25 Q10.3 -19.5 10.15 -19.75 10.0 -20.05 10.0 -20.45 10.0 -20.75 10.15 -21.45 L10.35 -22.45 10.5 -22.45 Q10.5 -22.3 10.45 -22.0 10.35 -21.65 10.35 -21.4 10.35 -21.0 10.5 -20.55 10.6 -20.1 10.8 -19.7 L11.6 -20.0 12.35 -20.3 13.45 -20.1 13.5 -19.5 13.6 -18.9 14.1 -18.95 14.7 -19.1 15.0 -19.2 M13.55 -15.0 Q13.75 -14.95 13.95 -14.75 14.1 -14.55 14.1 -14.3 L14.1 -13.8 13.95 -13.65 13.5 -13.6 13.05 -13.65 13.0 -13.7 12.95 -14.35 Q12.95 -15.1 13.55 -15.0 M7.2 -21.7 Q7.2 -21.75 7.25 -21.75 7.3 -21.7 7.3 -21.35 7.3 -21.3 7.05 -20.95 6.75 -20.55 6.6 -20.4 6.3 -20.5 6.25 -20.6 6.15 -20.8 6.15 -21.15 6.15 -21.55 6.2 -21.65 6.4 -21.9 7.2 -21.7 M5.45 -4.8 Q5.45 -4.95 5.5 -5.05 5.65 -5.3 6.15 -5.6 L6.55 -5.45 Q6.7 -5.35 6.7 -5.0 6.7 -4.9 6.5 -4.65 6.25 -4.3 5.95 -4.05 5.7 -4.15 5.6 -4.25 5.45 -4.45 5.45 -4.8 M32.9 -22.25 Q33.6 -21.7 33.6 -20.75 33.6 -20.35 33.55 -20.25 33.45 -19.95 32.95 -19.75 L32.25 -19.75 32.15 -19.7 Q32.1 -19.65 32.1 -20.0 L32.3 -20.35 Q32.45 -20.65 32.3 -21.2 32.25 -21.4 32.45 -21.75 32.65 -22.1 32.9 -22.25 M27.55 5.15 L27.5 5.7 27.45 5.8 Q27.4 5.95 27.1 5.95 26.95 5.95 26.65 5.4 L26.4 4.8 Q26.4 4.65 26.75 4.45 27.1 4.25 27.1 4.0 L27.4 4.1 Q27.55 4.25 27.55 4.6 L27.55 5.15 M28.55 13.8 Q28.75 14.3 28.75 15.05 28.75 15.65 28.25 16.1 27.65 16.6 27.35 16.95 27.3 17.1 27.3 18.0 27.3 18.7 27.15 19.0 26.3 20.65 25.85 21.3 25.05 22.5 24.1 22.85 23.2 22.75 22.85 22.5 22.25 22.1 21.65 21.85 21.65 21.7 21.75 21.35 L22.2 21.4 22.85 21.5 Q23.1 21.5 23.3 21.25 L23.6 20.8 Q24.05 20.0 24.95 19.7 25.45 19.55 25.95 18.95 26.5 18.3 26.5 17.85 26.5 17.35 26.6 16.85 26.8 16.15 27.15 15.6 27.45 15.15 27.25 14.45 27.0 13.7 27.25 13.2 28.2 12.85 28.55 13.8 M9.8 2.25 L9.7 2.6 Q9.6 2.7 9.35 2.75 L8.9 2.35 Q8.75 2.15 8.75 2.1 8.75 1.75 8.8 1.7 L8.85 1.75 Q9.15 1.75 9.15 1.7 L9.8 2.25 M6.0 8.5 L6.5 8.45 7.25 8.5 7.3 8.6 Q7.35 8.6 7.35 8.9 7.35 9.2 7.0 9.5 6.75 9.7 6.6 9.7 6.2 9.7 6.0 9.35 5.9 9.15 5.9 8.95 5.9 8.65 5.95 8.65 L6.0 8.5 M12.85 16.1 Q12.9 16.25 12.95 16.65 12.95 17.05 13.05 17.2 L13.7 17.5 Q14.35 17.8 14.45 18.15 L14.35 18.6 14.3 18.65 13.85 18.7 Q12.9 18.7 12.35 17.85 11.95 17.25 11.95 16.85 11.95 16.2 12.0 16.15 12.15 15.95 12.85 16.1 M-22.0 -30.25 Q-22.15 -30.05 -22.25 -29.55 L-22.5 -28.7 Q-22.85 -27.6 -23.4 -27.5 L-23.15 -28.85 Q-23.0 -29.7 -23.0 -30.0 -23.0 -31.1 -21.25 -31.4 L-20.05 -31.5 -19.4 -31.45 Q-18.4 -31.1 -17.5 -30.2 -16.5 -29.2 -15.9 -28.9 L-15.95 -28.75 -17.35 -29.75 Q-18.5 -30.5 -18.9 -30.5 -19.15 -30.5 -19.6 -30.25 -20.1 -30.0 -20.25 -29.95 L-21.25 -30.0 Q-21.7 -30.1 -22.0 -30.25 M-9.25 -29.9 Q-8.9 -29.65 -8.85 -29.45 L-9.95 -28.85 Q-10.6 -28.5 -11.4 -28.3 -11.4 -28.45 -11.35 -28.55 -11.25 -28.7 -10.85 -28.8 L-10.45 -29.45 Q-10.2 -29.85 -10.0 -29.95 L-9.25 -29.9 M-24.6 -25.3 L-24.5 -25.1 -25.65 -25.05 Q-26.3 -25.0 -26.65 -24.85 -26.3 -24.6 -26.2 -24.5 -26.0 -24.35 -26.0 -24.25 -26.0 -23.85 -26.4 -23.2 -26.75 -22.6 -26.75 -21.75 L-26.95 -21.7 Q-26.95 -22.6 -27.35 -23.35 -27.7 -24.05 -27.7 -24.45 -27.7 -24.95 -27.35 -25.4 -26.95 -26.0 -26.2 -26.05 -25.4 -25.9 -25.05 -25.7 -24.8 -25.6 -24.6 -25.3 M-29.15 -18.7 Q-29.15 -19.55 -28.7 -20.0 L-27.0 -21.15 Q-27.1 -20.85 -27.5 -20.35 L-28.15 -19.4 Q-28.9 -18.25 -28.1 -17.65 L-28.15 -17.55 Q-28.25 -17.45 -28.35 -17.4 -29.0 -17.55 -29.15 -18.0 L-29.15 -18.7 M-23.5 -19.6 Q-23.25 -20.15 -21.95 -20.25 L-21.65 -20.2 Q-21.55 -20.15 -21.55 -19.8 -21.55 -19.2 -22.0 -18.4 -22.55 -17.55 -23.05 -17.55 L-23.5 -17.6 -23.5 -17.65 -23.6 -18.0 -23.6 -18.55 Q-23.6 -19.4 -23.5 -19.6 M-23.85 -14.7 Q-24.05 -14.8 -24.1 -14.9 -23.8 -15.1 -23.15 -15.15 -22.6 -15.25 -22.35 -15.2 -22.35 -15.0 -22.35 -14.95 -22.4 -14.8 -22.5 -14.7 L-23.7 -14.65 -23.85 -14.7 M-3.9 -18.4 L-3.75 -18.1 Q-3.85 -17.85 -4.15 -17.75 -4.4 -17.65 -4.9 -17.6 -5.05 -17.65 -5.3 -17.8 -5.55 -17.95 -5.6 -18.1 -5.4 -18.4 -4.9 -18.55 -4.45 -18.7 -4.0 -18.7 -4.0 -18.6 -3.9 -18.4 M-15.55 -10.5 Q-15.35 -10.0 -15.4 -9.55 L-15.55 -9.35 Q-15.65 -9.25 -15.75 -9.2 -16.15 -9.5 -16.45 -9.9 -16.8 -10.3 -16.8 -10.5 -16.8 -10.8 -16.5 -10.95 -16.2 -11.15 -16.2 -11.25 -15.8 -11.05 -15.55 -10.5 M-17.8 -8.1 Q-18.1 -7.9 -19.0 -7.65 -17.95 -7.5 -18.15 -6.65 -18.55 -5.6 -18.55 -5.15 -18.55 -5.05 -18.15 -4.65 -17.75 -4.2 -17.65 -3.75 L-17.95 -3.7 -18.45 -3.65 Q-19.25 -3.65 -19.55 -4.4 -19.7 -4.8 -19.7 -5.3 -19.7 -5.55 -19.5 -6.0 -19.3 -6.4 -19.3 -6.65 L-19.65 -7.05 Q-20.05 -7.45 -20.05 -7.7 -20.05 -8.15 -19.95 -8.25 -19.65 -8.65 -18.55 -8.4 -18.1 -8.3 -17.8 -8.1 M-9.15 -11.8 Q-9.1 -11.7 -9.1 -11.4 -9.1 -11.2 -9.4 -10.85 -9.75 -10.35 -10.4 -10.45 L-10.6 -10.6 Q-10.65 -10.65 -10.65 -11.0 -10.65 -11.5 -10.2 -11.75 -9.75 -12.05 -9.2 -11.9 L-9.15 -11.8 M-11.3 -7.4 Q-10.65 -7.2 -10.25 -7.0 -9.55 -6.65 -9.5 -5.95 L-9.45 -5.9 -9.8 -5.85 Q-10.7 -5.85 -11.15 -6.2 -11.5 -6.45 -11.5 -6.9 -11.5 -7.25 -11.45 -7.3 L-11.3 -7.4 M-6.2 -3.95 Q-6.35 -3.85 -6.7 -3.85 -7.05 -3.85 -7.1 -3.9 L-7.25 -4.1 Q-7.0 -4.5 -6.8 -4.6 -6.5 -4.7 -6.0 -4.25 -6.1 -4.0 -6.2 -3.95 M-4.15 7.65 Q-4.2 7.9 -4.7 8.1 -4.9 8.0 -5.0 7.85 -5.1 7.7 -5.1 7.35 -5.1 6.6 -4.7 6.45 -4.3 6.9 -4.25 7.1 L-4.15 7.65 M-16.25 19.25 Q-15.9 19.6 -15.9 19.85 -15.9 20.25 -16.5 20.55 -16.95 20.8 -17.15 20.8 L-18.0 20.75 -18.1 20.65 Q-18.2 20.55 -18.2 20.2 -18.2 20.1 -17.8 19.85 -17.45 19.6 -17.45 19.55 -17.45 19.05 -17.75 18.85 -18.45 18.5 -19.1 18.0 -19.1 17.85 -19.0 17.7 -18.9 17.5 -18.75 17.45 -18.6 17.55 -18.0 18.05 -17.5 18.55 -17.05 18.7 -16.65 18.8 -16.25 19.25 M-22.6 18.9 Q-23.4 18.9 -24.6 17.35 L-24.5 16.2 Q-24.35 15.25 -24.35 14.75 -23.85 14.8 -23.65 15.35 -23.55 15.7 -23.4 16.3 -23.25 16.85 -22.75 17.45 -22.2 18.1 -22.0 18.35 -22.05 18.7 -22.15 18.75 -22.25 18.9 -22.6 18.9 M-0.45 14.55 Q-0.45 15.3 -1.45 16.0 L-1.85 15.95 Q-2.05 15.9 -2.05 15.6 -2.05 15.15 -1.8 14.8 -1.65 14.55 -1.05 13.95 L-0.6 14.35 Q-0.45 14.5 -0.45 14.55 M-10.05 18.95 L-10.2 18.75 Q-10.2 17.1 -9.4 16.75 -8.4 16.4 -6.25 18.15 -6.65 18.35 -7.1 18.4 L-7.9 18.4 Q-8.85 18.4 -9.3 18.95 L-9.8 19.75 Q-10.2 20.3 -10.45 20.4 -11.2 20.35 -11.3 20.2 L-11.4 20.05 -11.35 20.0 -10.95 20.05 Q-9.95 20.05 -9.95 19.4 -9.95 19.2 -10.05 18.95" fill="#ffe77f" fill-opacity="0.7529412" fill-rule="evenodd" stroke="none"/>
      <path d="M28.15 -45.1 Q28.35 -44.85 28.35 -44.4 L28.35 -44.1 Q28.3 -44.05 28.3 -43.95 L28.3 -43.85 Q28.25 -43.75 27.95 -43.75 27.9 -43.75 27.45 -44.0 27.05 -44.25 26.8 -44.4 26.85 -44.85 27.1 -45.1 27.35 -45.3 27.65 -45.3 27.95 -45.3 28.15 -45.1 M28.6 -30.3 Q27.95 -30.9 27.95 -30.95 27.95 -31.3 28.0 -31.35 L28.05 -31.3 Q28.7 -31.3 29.0 -30.85 L28.9 -30.45 Q28.8 -30.35 28.6 -30.3 M33.9 -33.2 Q33.8 -33.35 33.8 -33.75 33.8 -33.9 33.9 -34.05 34.0 -34.4 34.35 -34.65 34.65 -34.55 34.8 -34.25 34.95 -34.0 34.95 -33.85 L34.9 -33.4 34.85 -33.1 34.35 -32.85 Q34.0 -33.05 33.9 -33.2 M11.2 -28.4 L11.3 -28.15 Q11.25 -27.95 11.15 -27.85 11.0 -27.65 10.65 -27.65 10.3 -27.65 10.2 -27.75 10.1 -27.85 10.0 -28.0 10.25 -28.3 10.65 -28.45 L11.15 -28.6 11.2 -28.4 M11.8 -19.95 Q11.8 -20.3 12.05 -20.4 12.3 -20.45 12.95 -20.3 12.95 -19.85 13.1 -19.65 13.05 -19.5 13.0 -19.4 12.9 -19.25 12.55 -19.25 12.25 -19.25 12.2 -19.3 12.05 -19.4 11.9 -19.45 L11.85 -19.55 Q11.8 -19.65 11.8 -19.95 M27.9 4.8 L27.85 5.05 Q27.85 5.15 27.7 5.2 L27.0 4.8 Q26.9 4.75 26.9 4.7 L26.95 4.4 Q27.0 4.4 27.0 4.35 L27.25 4.35 27.75 4.4 27.9 4.8 M28.65 14.1 Q28.75 14.25 28.75 14.65 28.75 14.95 28.6 15.3 28.4 15.8 28.35 15.95 L27.85 16.1 27.8 15.85 27.75 15.35 Q27.75 15.05 27.9 14.65 28.05 14.2 28.35 13.9 28.6 14.0 28.65 14.1 M26.6 20.6 Q26.4 21.15 25.65 21.85 24.85 22.55 24.3 22.7 L23.8 22.55 23.65 22.5 Q23.6 22.45 23.6 22.15 23.6 21.4 24.55 20.65 25.5 19.9 26.5 20.0 L26.6 20.6 M13.1 17.95 Q13.0 18.15 12.65 18.15 12.25 18.15 12.0 17.55 11.8 17.1 11.8 16.8 12.05 16.75 12.35 16.95 12.45 17.0 13.2 17.6 L13.1 17.95 M-21.0 -30.85 L-22.35 -30.7 -22.4 -30.65 Q-22.45 -30.65 -22.45 -30.95 -22.45 -31.3 -22.2 -31.5 -21.95 -31.75 -21.6 -31.8 -20.7 -31.95 -20.3 -31.1 -20.4 -30.95 -21.0 -30.85 M-0.35 -33.6 L-0.3 -33.65 Q-0.2 -33.6 -0.2 -33.25 -0.2 -33.0 -0.55 -32.8 -0.8 -32.6 -0.95 -32.6 -1.3 -32.6 -1.55 -32.8 -1.65 -32.85 -1.9 -33.1 -1.55 -33.7 -0.75 -33.75 L-0.35 -33.6 M-27.95 -24.15 Q-28.2 -24.35 -28.25 -24.45 -28.3 -24.6 -28.3 -25.0 -28.3 -25.75 -27.95 -25.85 -27.55 -26.0 -26.9 -25.1 -27.65 -24.2 -27.95 -24.15 M-23.6 -18.75 Q-23.75 -18.95 -23.75 -19.3 -23.75 -19.4 -23.55 -19.7 -23.35 -20.05 -23.05 -20.25 -22.8 -20.15 -22.7 -20.05 -22.55 -19.85 -22.55 -19.5 -22.55 -19.4 -22.8 -19.1 -23.05 -18.7 -23.25 -18.55 -23.5 -18.65 -23.6 -18.75 M-4.4 -18.6 L-4.5 -18.2 -4.8 -18.15 -5.45 -18.1 -5.5 -18.15 Q-5.6 -18.25 -5.6 -18.6 -5.6 -18.9 -5.25 -19.0 -4.95 -19.1 -4.5 -18.9 -4.5 -18.75 -4.4 -18.6 M-19.65 -8.25 Q-19.5 -8.2 -19.5 -7.9 -19.5 -7.6 -19.6 -7.3 L-19.7 -6.75 -19.75 -6.7 Q-19.8 -6.65 -20.15 -6.65 L-20.6 -6.7 -20.6 -7.7 Q-20.3 -8.2 -20.05 -8.25 L-19.65 -8.25 M-19.1 -5.1 Q-18.5 -4.25 -18.35 -4.0 L-18.4 -3.75 Q-18.45 -3.6 -18.75 -3.6 -19.2 -3.6 -19.4 -3.95 -19.55 -4.15 -19.55 -4.35 -19.55 -4.7 -19.45 -4.9 -19.35 -5.05 -19.1 -5.1 M-18.15 18.55 Q-18.25 18.65 -18.45 18.7 -18.55 18.55 -18.55 18.25 -18.4 18.2 -18.25 18.3 -18.1 18.35 -18.1 18.5 L-18.15 18.55 M-17.55 20.6 Q-17.65 20.75 -18.0 20.75 L-18.45 20.7 -18.45 20.6 Q-18.6 20.4 -18.6 20.2 L-18.5 19.7 -18.05 19.75 Q-17.7 19.85 -17.45 20.2 L-17.55 20.6 M-9.9 18.45 Q-9.8 18.25 -9.45 17.9 -9.1 17.55 -8.95 17.5 L-8.3 17.5 -7.6 17.85 -7.5 18.15 Q-7.75 18.4 -8.3 18.55 -8.85 18.7 -9.25 18.7 L-9.75 18.6 -9.9 18.45 M-24.1 17.15 Q-23.85 17.65 -23.75 17.85 -23.8 18.0 -23.85 18.1 -23.9 18.2 -24.1 18.25 -25.2 17.65 -25.2 17.15 -25.2 16.8 -25.05 16.65 L-24.75 16.45 Q-24.35 16.7 -24.1 17.15" fill="#ffe77f" fill-opacity="0.7529412" fill-rule="evenodd" stroke="none"/>
    </g>
  </defs>
</svg>
