<?xml version="1.0" encoding="UTF-8" standalone="no"?>
<svg xmlns:ffdec="https://www.free-decompiler.com/flash" xmlns:xlink="http://www.w3.org/1999/xlink" ffdec:objectType="frame" height="407.4px" width="179.2px" xmlns="http://www.w3.org/2000/svg">
  <g transform="matrix(1.0, 0.0, 0.0, 1.0, 89.6, 203.7)">
    <use ffdec:characterId="1288" height="58.2" transform="matrix(7.0, 0.0, 0.0, 7.0, -89.6, -203.7)" width="25.6" xlink:href="#shape0"/>
  </g>
  <defs>
    <g id="shape0" transform="matrix(1.0, 0.0, 0.0, 1.0, 12.8, 29.1)">
      <path d="M-7.65 -28.0 L-6.5 -28.0 -5.55 -27.9 -4.15 -27.85 Q-3.35 -27.85 -3.05 -27.9 L1.15 -27.9 Q2.9 -27.85 4.2 -27.95 L6.2 -28.3 6.45 -28.4 Q6.95 -28.55 7.05 -28.5 L7.15 -28.45 7.25 -28.45 9.2 -28.6 9.15 -28.55 Q9.0 -28.2 8.85 -27.7 8.7 -27.15 8.65 -26.75 L8.3 -25.0 Q8.1 -23.8 8.0 -23.2 7.55 -20.15 7.2 -16.05 L6.5 -9.45 6.0 -4.7 5.8 0.8 5.7 2.5 6.2 -0.4 Q6.7 -3.3 6.8 -4.45 L6.8 -4.75 Q7.45 -9.3 7.85 -11.8 8.7 -15.9 8.95 -17.0 9.4 -18.95 10.85 -23.85 11.9 -27.45 12.1 -28.25 12.8 -27.95 12.8 -27.35 L12.75 -26.6 12.75 18.5 12.7 18.6 12.7 24.9 Q12.8 25.0 12.8 25.2 12.8 25.45 5.65 26.1 L4.05 26.25 Q3.7 26.4 3.25 26.55 L2.0 26.85 0.1 27.1 -1.2 27.2 -4.05 27.25 -4.2 23.55 -4.2 19.75 -3.9 16.6 Q-3.65 13.95 -3.65 13.25 L-3.65 11.25 -3.6 10.3 -3.55 9.7 Q-3.55 9.45 -3.35 7.9 L-3.15 6.3 Q-3.15 5.7 -2.95 4.5 -2.8 3.3 -2.8 2.8 -2.8 2.55 -2.9 1.8 L-2.95 1.8 -3.8 7.35 -3.85 7.15 -3.9 7.15 Q-4.35 10.5 -5.35 17.25 -6.15 23.1 -6.35 27.25 L-9.3 27.25 -9.9 27.5 -9.9 27.15 -9.95 26.5 Q-9.95 25.7 -10.5 22.85 L-10.5 18.7 Q-10.65 18.15 -10.65 17.1 -10.65 16.55 -10.55 16.35 L-10.55 9.75 Q-10.5 8.1 -10.25 6.95 -10.15 6.35 -9.85 4.35 -9.5 1.9 -9.5 1.1 -8.85 -0.7 -8.85 -1.85 -8.85 -2.7 -9.25 -4.7 -9.7 -6.7 -9.7 -7.15 L-9.65 -8.7 Q-9.2 -11.85 -9.0 -14.1 L-8.15 -16.55 Q-7.2 -19.15 -7.2 -19.8 -7.6 -23.1 -7.6 -23.85 -7.6 -24.25 -7.45 -25.25 -7.3 -26.25 -7.3 -26.6 L-7.05 -27.7 Q-7.3 -27.95 -7.65 -28.0 M11.45 -28.45 L11.55 -28.4 11.55 -28.35 11.45 -28.45 M-12.55 27.8 L-12.6 27.7 -12.6 27.65 -12.65 27.3 Q-12.7 27.0 -12.7 26.65 -12.65 27.4 -12.55 27.8 M-7.95 -22.55 L-8.0 -22.8 Q-7.95 -22.8 -7.95 -22.55 M-9.75 1.75 L-10.9 7.8 -10.6 3.85 -9.75 1.8 -9.75 1.75" fill="#59404a" fill-rule="evenodd" stroke="none"/>
      <path d="M9.2 -28.6 Q9.65 -29.4 10.7 -28.95 11.1 -28.75 11.45 -28.45 L11.55 -28.35 11.55 -28.4 Q11.75 -28.65 11.85 -28.75 12.15 -29.0 12.15 -28.45 L12.1 -28.25 Q11.9 -27.45 10.85 -23.85 9.4 -18.95 8.95 -17.0 8.7 -15.9 7.85 -11.8 7.45 -9.3 6.8 -4.75 L6.8 -4.45 Q6.7 -3.3 6.2 -0.4 L5.7 2.5 5.8 0.8 6.0 -4.7 6.5 -9.45 7.2 -16.05 Q7.55 -20.15 8.0 -23.2 8.1 -23.8 8.3 -25.0 L8.65 -26.75 Q8.7 -27.15 8.85 -27.7 9.0 -28.2 9.15 -28.55 L9.2 -28.6 M-4.05 27.25 L-4.05 27.3 -4.4 27.3 -4.9 27.45 Q-5.35 27.55 -5.85 27.55 L-6.3 27.55 -6.35 27.35 -6.35 27.25 Q-6.15 23.1 -5.35 17.25 -4.35 10.5 -3.9 7.15 L-3.85 7.15 -3.8 7.35 -2.95 1.8 -2.9 1.8 Q-2.8 2.55 -2.8 2.8 -2.8 3.3 -2.95 4.5 -3.15 5.7 -3.15 6.3 L-3.35 7.9 Q-3.55 9.45 -3.55 9.7 L-3.6 10.3 -3.65 11.25 -3.65 13.25 Q-3.65 13.95 -3.9 16.6 L-4.2 19.75 -4.2 23.55 -4.05 27.25 M-12.05 28.4 L-12.2 28.3 -12.15 28.25 -12.2 28.25 -12.15 27.85 -12.05 28.4 M-9.5 1.1 Q-9.5 1.9 -9.85 4.35 -10.15 6.35 -10.25 6.95 -10.5 8.1 -10.55 9.75 L-10.55 16.35 Q-10.65 16.55 -10.65 17.1 -10.65 18.15 -10.5 18.7 L-10.5 22.85 -10.5 22.6 Q-10.85 20.8 -11.0 19.6 L-11.0 17.75 Q-10.9 17.3 -10.9 17.2 -10.9 17.1 -11.0 16.75 L-11.0 15.85 Q-10.95 15.55 -10.9 15.4 L-10.9 7.8 -9.75 1.75 -9.5 1.1" fill="#664d56" fill-rule="evenodd" stroke="none"/>
      <path d="M-9.9 27.5 Q-9.95 27.75 -10.0 27.95 -10.25 28.8 -11.25 28.85 L-11.25 28.9 Q-11.3 29.1 -11.75 29.1 -12.15 29.1 -12.25 29.0 L-12.3 28.85 Q-12.3 28.75 -12.15 28.7 -12.05 28.7 -12.05 28.6 L-12.05 28.4 -12.15 27.85 -12.2 28.25 -12.15 28.25 -12.2 28.3 -12.3 28.3 Q-12.45 28.3 -12.55 27.8 -12.65 27.4 -12.7 26.65 L-12.8 24.75 -12.8 21.1 Q-12.8 20.1 -12.65 16.75 -12.55 13.4 -12.55 10.7 -12.55 9.9 -12.4 7.6 -12.25 5.35 -12.25 3.25 -12.25 2.6 -11.9 -0.5 L-11.75 -1.8 -11.75 -1.9 -11.55 -3.9 Q-11.4 -5.85 -11.4 -6.4 -11.4 -7.5 -10.85 -12.35 L-10.35 -17.5 Q-10.3 -18.55 -10.15 -20.3 -9.95 -22.3 -9.9 -23.1 -9.8 -23.55 -9.7 -24.6 L-9.5 -26.25 Q-9.2 -28.15 -8.4 -28.35 L-8.35 -28.35 Q-8.35 -28.3 -8.35 -28.15 L-8.35 -28.0 -8.2 -28.05 -7.65 -28.0 Q-7.3 -27.95 -7.05 -27.7 L-7.3 -26.6 Q-7.3 -26.25 -7.45 -25.25 -7.6 -24.25 -7.6 -23.85 -7.6 -23.1 -7.2 -19.8 -7.2 -19.15 -8.15 -16.55 L-9.0 -14.1 Q-9.2 -11.85 -9.65 -8.7 L-9.7 -7.15 Q-9.7 -6.7 -9.25 -4.7 -8.85 -2.7 -8.85 -1.85 -8.85 -0.7 -9.5 1.1 L-9.75 1.75 -9.75 1.8 -10.6 3.85 -10.9 7.8 -10.9 15.4 Q-10.95 15.55 -11.0 15.85 L-11.0 16.75 Q-10.9 17.1 -10.9 17.2 -10.9 17.3 -11.0 17.75 L-11.0 19.6 Q-10.85 20.8 -10.5 22.6 L-10.5 22.85 Q-9.95 25.7 -9.95 26.5 L-9.9 27.15 -9.9 27.5 M-7.95 -22.55 Q-7.95 -22.8 -8.0 -22.8 L-7.95 -22.55" fill="#987196" fill-rule="evenodd" stroke="none"/>
    </g>
  </defs>
</svg>
