<?xml version="1.0" encoding="UTF-8" standalone="no"?>
<svg xmlns:ffdec="https://www.free-decompiler.com/flash" xmlns:xlink="http://www.w3.org/1999/xlink" ffdec:objectType="frame" height="47.95px" width="47.95px" xmlns="http://www.w3.org/2000/svg">
  <g transform="matrix(1.0, 0.0, 0.0, 1.0, -0.05, 0.05)">
    <use ffdec:characterId="2102" height="47.95" transform="matrix(1.0, 0.0, 0.0, 1.0, 0.05, -0.05)" width="47.95" xlink:href="#shape0"/>
  </g>
  <defs>
    <g id="shape0" transform="matrix(1.0, 0.0, 0.0, 1.0, -0.05, 0.05)">
      <path d="M42.5 19.65 L42.05 19.2 Q41.2 18.25 41.95 16.95 L42.55 16.1 42.6 16.0 42.7 15.95 42.95 15.85 42.8 15.95 42.45 16.3 42.05 17.05 41.75 18.05 Q41.8 18.8 42.35 19.5 L42.5 19.65 M44.75 18.25 L44.6 18.2 44.25 17.9 44.05 17.55 44.15 17.3 44.2 17.25 44.25 17.55 44.25 17.65 44.25 17.8 44.55 18.05 44.7 18.1 44.75 18.2 44.75 18.25 M44.9 14.4 L44.75 14.3 44.05 13.7 43.8 13.2 Q43.7 12.85 43.75 12.3 L43.75 11.9 43.8 12.45 43.85 12.75 44.05 13.35 44.1 13.5 44.2 13.65 44.4 13.9 44.8 14.25 44.9 14.4 M42.55 13.7 L41.25 13.3 Q39.95 12.85 39.45 11.7 L39.35 11.5 Q39.05 10.75 39.05 9.8 L39.05 9.2 39.3 9.2 39.3 9.85 Q39.3 10.75 39.8 11.65 40.5 12.9 42.0 13.5 L42.55 13.7 M37.1 8.25 L36.65 8.15 Q34.95 7.7 34.8 5.75 L34.85 4.25 34.9 4.1 34.95 4.0 35.1 3.65 35.05 3.95 34.95 4.6 35.0 5.75 Q35.05 6.45 35.45 7.05 36.05 7.85 37.1 8.25 M38.9 5.0 L38.75 5.05 38.2 5.0 37.65 4.75 37.55 4.45 37.5 4.25 38.05 4.85 38.6 5.0 38.75 4.95 38.9 5.0 M36.15 0.6 L35.95 0.6 34.65 0.45 34.0 0.0 33.95 -0.05 34.15 -0.05 34.45 0.15 34.6 0.15 35.25 0.45 36.0 0.55 36.15 0.6 M44.7 9.3 L44.5 9.35 43.65 9.2 43.0 8.8 42.8 8.3 42.8 8.1 43.55 9.0 44.15 9.15 44.45 9.15 44.7 9.25 44.7 9.3 M14.7 41.95 L14.95 42.1 Q16.55 43.1 16.1 45.2 L15.55 46.7 15.5 46.8 15.4 46.95 15.15 47.2 15.25 46.95 15.6 46.35 15.85 45.1 15.8 43.6 Q15.55 42.65 14.7 41.95 M6.5 33.6 L6.6 33.55 7.05 33.3 7.45 32.95 7.9 32.55 8.55 31.55 Q8.85 30.75 8.55 29.75 L8.7 30.15 Q9.3 31.6 7.95 32.75 7.5 33.2 6.85 33.5 L6.75 33.55 6.65 33.55 6.5 33.6 M5.45 31.7 L5.6 30.85 5.45 30.45 5.3 30.35 5.25 30.2 5.35 30.25 5.65 30.75 5.75 31.2 5.6 31.5 5.45 31.7 M3.6 34.5 L3.7 34.65 4.25 35.6 4.35 36.35 4.1 37.15 4.15 35.95 4.15 35.85 3.95 35.2 3.9 35.1 3.6 34.65 3.6 34.5 M8.3 34.35 L8.95 34.55 Q11.3 35.4 11.3 38.25 L11.1 40.1 10.9 40.1 10.95 39.9 11.0 38.2 Q11.0 37.25 10.5 36.3 9.8 35.05 8.3 34.35 M5.25 38.75 L5.45 38.7 6.3 38.85 7.0 39.3 7.15 39.8 7.2 40.05 6.45 39.05 5.75 38.85 5.45 38.85 5.25 38.8 5.25 38.75 M11.6 44.6 L11.75 44.6 12.4 44.8 12.8 45.25 12.85 45.7 12.85 45.9 12.45 45.0 12.0 44.75 11.75 44.7 11.6 44.6" fill="#ef98ef" fill-rule="evenodd" stroke="none"/>
      <path d="M45.9 20.8 L45.7 20.85 Q43.95 21.1 42.5 19.65 L42.35 19.5 Q41.8 18.8 41.75 18.05 L42.05 17.05 42.45 16.3 42.8 15.95 42.95 15.85 43.2 15.7 43.8 15.45 44.45 15.4 43.85 15.55 43.3 15.8 42.95 16.1 Q41.4 17.45 42.25 19.15 L42.9 19.9 Q43.8 20.6 44.65 20.7 L45.9 20.8 M45.0 18.25 L44.75 18.25 44.75 18.2 44.7 18.1 44.55 18.05 44.25 17.8 44.25 17.65 44.3 17.8 44.7 18.05 Q44.9 18.15 44.95 18.2 L45.0 18.25 M44.2 17.25 L44.25 17.0 44.35 16.95 44.55 16.85 44.7 16.85 44.65 16.9 44.4 17.05 44.25 17.35 44.25 17.55 44.2 17.25 M46.05 18.2 L46.55 17.35 46.3 16.3 46.25 16.2 45.25 14.75 44.9 14.4 44.8 14.25 44.4 13.9 44.2 13.65 44.1 13.5 44.05 13.35 43.85 12.75 43.8 12.45 43.75 11.9 43.75 11.8 43.75 11.65 43.75 11.6 44.0 11.05 44.05 11.2 44.0 11.55 43.95 12.2 43.95 12.8 44.35 13.65 44.4 13.75 45.4 14.7 45.55 14.9 46.0 15.7 46.05 15.75 46.3 16.1 46.55 16.65 46.6 16.7 46.55 17.6 46.4 17.95 46.35 17.95 46.35 18.05 46.1 18.3 46.05 18.2 M48.0 12.9 L46.95 13.45 46.75 13.3 46.8 13.25 48.0 12.65 48.0 12.9 M43.45 13.6 L43.6 13.85 42.55 13.7 42.0 13.5 Q40.5 12.9 39.8 11.65 39.3 10.75 39.3 9.85 L39.3 9.2 39.6 9.15 Q39.4 11.45 41.55 12.9 L43.35 13.55 43.45 13.6 M46.75 8.05 L46.75 8.0 Q47.1 6.95 46.75 6.2 46.2 5.1 44.4 4.15 L44.4 4.1 44.55 4.15 45.2 4.4 46.15 5.15 46.2 5.15 Q46.65 5.3 46.95 6.55 L47.0 7.25 46.95 7.35 47.0 7.5 46.85 8.05 46.75 8.05 M42.2 7.0 L42.0 7.15 Q40.15 8.95 37.1 8.25 36.05 7.85 35.45 7.05 35.05 6.45 35.0 5.75 L34.95 4.6 35.05 3.95 35.1 3.65 35.3 3.3 35.8 2.6 36.4 2.1 35.85 2.7 35.45 3.4 35.3 4.0 Q34.6 6.65 36.85 7.9 L38.2 8.25 39.15 8.3 39.35 8.25 39.75 8.2 40.35 8.0 40.7 7.8 Q41.45 7.35 41.9 7.15 L42.2 7.0 M39.2 4.85 L38.9 5.0 38.75 4.95 38.6 5.0 38.05 4.85 37.5 4.25 37.45 4.05 37.5 3.9 37.65 3.6 37.85 3.45 37.85 3.55 37.65 3.9 37.7 4.3 Q37.85 4.75 38.1 4.8 L38.8 4.85 39.15 4.8 39.2 4.85 M40.4 4.0 L40.4 3.9 Q40.65 3.15 40.3 2.6 39.6 1.45 36.9 0.7 L36.15 0.6 36.0 0.55 35.25 0.45 34.6 0.15 34.45 0.15 34.15 -0.05 34.6 -0.05 35.15 0.2 36.9 0.55 37.0 0.6 37.7 0.85 38.3 1.1 38.45 1.2 38.55 1.25 39.05 1.4 39.8 1.9 39.85 1.9 40.35 2.55 40.45 2.8 40.5 2.9 40.55 3.0 40.55 3.4 40.55 3.5 40.55 3.6 40.45 4.0 40.4 4.0 M45.05 9.1 L44.7 9.3 44.7 9.25 44.45 9.15 44.15 9.15 43.55 9.0 42.8 8.1 42.75 7.75 42.85 7.55 42.9 7.5 43.25 7.1 43.35 7.05 43.35 7.1 43.35 7.2 43.0 7.65 43.05 8.25 43.55 8.9 44.5 9.0 45.0 9.05 45.05 9.1 M0.9 35.45 L1.1 35.25 1.15 35.25 1.2 35.35 0.9 35.45 M3.05 40.0 L3.0 40.1 Q2.6 41.2 2.95 41.95 3.55 43.2 5.6 44.3 L5.55 44.35 5.55 44.4 5.4 44.3 5.25 44.25 4.6 43.9 3.55 43.15 3.5 43.15 Q3.05 42.95 2.75 41.6 2.55 41.0 2.65 40.85 L2.7 40.75 2.7 40.55 2.95 39.95 3.05 40.0 M8.95 41.6 L9.15 41.45 Q11.75 40.2 14.7 41.95 15.55 42.65 15.8 43.6 L15.85 45.1 15.6 46.35 15.25 46.95 15.15 47.2 14.8 47.55 14.35 47.9 14.05 47.9 14.65 47.35 15.0 46.75 Q16.55 44.3 14.7 42.35 L13.45 41.55 12.05 41.15 10.65 41.15 10.6 41.2 10.05 41.35 9.35 41.5 8.95 41.6 M10.2 47.9 L10.0 47.9 9.75 47.55 9.7 47.55 9.4 46.75 9.35 46.25 9.4 46.0 9.45 45.8 9.45 45.75 9.5 45.65 9.5 45.55 9.5 45.5 9.75 45.15 9.85 45.25 9.8 45.25 Q9.35 45.95 9.45 46.6 9.6 47.25 10.2 47.9 M4.5 33.6 L5.2 33.6 5.95 33.5 6.5 33.3 7.3 32.9 Q8.7 31.95 8.45 30.15 L7.95 29.0 Q7.3 27.9 6.3 27.4 L5.15 26.9 Q7.4 27.25 8.55 29.75 8.85 30.75 8.55 31.55 L7.9 32.55 7.45 32.95 7.05 33.3 6.6 33.55 6.5 33.6 5.95 33.65 5.2 33.7 4.5 33.6 M5.25 30.2 L5.3 30.35 5.45 30.45 5.6 30.85 5.45 31.7 5.35 31.8 5.2 31.85 4.95 31.9 4.75 31.85 4.8 31.75 5.15 31.75 5.45 31.45 5.55 30.9 5.2 30.4 5.0 30.1 5.25 30.2 M3.8 29.7 L3.75 29.7 Q3.05 29.95 2.85 30.45 2.35 31.6 3.25 33.9 L3.6 34.5 3.6 34.65 3.9 35.1 3.95 35.2 4.15 35.85 4.15 35.95 4.1 37.15 4.05 37.3 3.7 38.15 3.3 38.65 3.3 38.55 3.5 38.05 3.8 37.35 4.0 36.65 3.85 35.45 3.15 33.9 2.9 33.0 2.8 32.55 2.75 32.45 2.65 32.05 2.55 31.25 2.55 31.2 Q2.45 30.9 2.95 30.2 L3.25 29.9 3.35 29.85 3.35 29.8 3.75 29.65 3.8 29.7 M7.1 34.3 L7.2 34.2 7.3 34.2 7.5 34.1 8.3 34.35 Q9.8 35.05 10.5 36.3 11.0 37.25 11.0 38.2 L10.95 39.9 10.9 40.1 10.5 40.1 Q11.45 36.8 8.65 34.9 L7.1 34.3 M4.85 38.95 L5.25 38.75 5.25 38.8 5.45 38.85 5.75 38.85 6.45 39.05 7.2 40.05 7.25 40.4 7.15 40.6 6.9 40.95 6.6 41.15 6.6 41.1 6.65 41.0 7.0 40.5 6.95 39.85 6.4 39.15 5.45 39.0 4.9 39.0 4.85 38.95 M12.85 45.9 L12.85 46.1 12.75 46.25 12.5 46.5 12.2 46.6 12.2 46.55 12.25 46.5 12.55 46.25 12.6 46.15 12.7 45.7 12.4 45.1 11.75 44.85 11.35 44.7 11.3 44.7 11.6 44.6 11.75 44.7 12.0 44.75 12.45 45.0 12.85 45.9" fill="#e34fe3" fill-rule="evenodd" stroke="none"/>
      <path d="M46.8 20.55 L45.9 20.8 44.65 20.7 Q43.8 20.6 42.9 19.9 L42.25 19.15 Q41.4 17.45 42.95 16.1 L43.3 15.8 43.85 15.55 44.45 15.4 45.25 15.55 45.25 15.6 45.45 15.8 45.65 16.0 45.75 16.15 45.7 16.15 45.45 16.0 45.4 15.95 44.1 15.85 43.45 16.05 43.3 16.2 42.7 17.0 Q42.45 17.4 42.5 17.9 42.5 18.5 42.9 19.1 L43.45 19.75 Q44.0 20.1 44.6 20.25 L45.55 20.3 46.25 20.15 46.95 20.0 47.0 19.9 47.25 19.8 47.45 19.5 47.7 19.3 48.0 18.75 48.0 19.0 47.85 19.5 47.3 20.15 46.8 20.55 M45.05 18.25 L45.0 18.25 44.95 18.2 Q44.9 18.15 44.7 18.05 L44.3 17.8 44.25 17.65 44.25 17.55 44.25 17.35 44.4 17.05 44.65 16.9 44.7 16.85 44.95 16.9 45.0 17.0 44.95 17.0 44.6 17.05 Q44.25 17.4 44.65 17.9 44.85 18.1 45.2 18.1 L45.05 18.25 M45.8 18.4 L46.05 18.2 46.1 18.3 46.35 18.05 46.35 17.95 46.4 17.95 46.55 17.6 46.6 16.7 46.55 16.65 46.3 16.1 46.05 15.75 46.0 15.7 45.55 14.9 45.4 14.7 44.4 13.75 44.35 13.65 43.95 12.8 43.95 12.2 44.0 11.55 44.05 11.2 44.15 11.4 44.15 11.5 44.15 11.65 44.2 12.15 44.4 12.85 44.8 13.6 45.3 14.2 45.4 14.35 45.8 14.85 45.9 14.95 45.9 15.0 45.95 15.05 Q46.6 15.75 46.75 16.7 46.9 17.7 46.3 18.15 L46.1 18.3 46.05 18.3 46.0 18.35 45.8 18.4 M46.75 13.3 L46.6 13.15 46.3 12.95 46.15 12.85 45.95 12.65 46.3 12.55 Q47.35 12.25 47.85 11.75 L48.0 11.65 48.0 12.65 46.8 13.25 46.75 13.3 M43.25 12.55 L43.25 12.65 43.45 13.6 43.35 13.55 41.55 12.9 Q39.4 11.45 39.6 9.15 L40.25 9.05 40.25 9.2 Q40.3 10.05 40.75 10.8 41.4 11.75 42.55 12.3 L43.25 12.55 M46.45 8.7 L46.75 8.05 46.85 8.05 47.0 7.5 46.95 7.35 47.0 7.25 46.95 6.55 Q46.65 5.3 46.2 5.15 L46.15 5.15 45.2 4.4 44.55 4.15 44.4 4.1 44.4 4.05 44.4 3.65 44.4 3.55 44.4 3.5 44.4 3.35 46.4 5.0 Q47.5 6.4 47.05 7.7 L46.9 8.1 46.85 8.15 46.85 8.2 46.75 8.3 46.55 8.6 46.45 8.7 M43.0 6.0 L42.2 7.0 41.9 7.15 Q41.45 7.35 40.7 7.8 L40.35 8.0 39.75 8.2 39.35 8.25 39.15 8.3 38.2 8.25 36.85 7.9 Q34.6 6.65 35.3 4.0 L35.45 3.4 35.85 2.7 36.4 2.1 Q36.85 1.8 37.45 1.65 L37.5 1.65 37.85 1.7 38.25 1.85 38.45 1.95 38.05 1.95 37.9 1.95 37.4 2.05 Q36.85 2.25 36.4 2.8 L35.8 3.6 35.8 3.8 Q35.6 4.6 35.7 5.25 L36.1 6.35 Q36.65 7.05 37.5 7.4 L38.6 7.7 39.3 7.65 39.5 7.6 40.0 7.45 40.3 7.35 40.6 7.25 41.4 6.65 42.1 6.0 42.8 5.3 42.85 5.15 42.85 5.1 42.95 4.8 43.0 4.55 43.05 4.35 43.05 3.95 43.05 3.55 43.05 3.35 42.95 2.8 42.9 2.6 43.0 2.8 43.05 3.1 43.2 3.4 43.25 3.65 43.35 4.0 43.35 4.7 43.35 5.05 43.3 5.2 43.0 6.0 M39.25 4.8 L39.2 4.85 39.15 4.8 38.8 4.85 38.1 4.8 Q37.85 4.75 37.7 4.3 L37.65 3.9 37.85 3.55 37.85 3.45 38.2 3.4 38.25 3.4 38.25 3.45 37.85 3.85 Q37.7 4.5 38.55 4.7 L39.35 4.5 39.25 4.75 39.25 4.8 M40.15 4.55 L40.4 4.0 40.45 4.0 40.55 3.6 40.55 3.5 40.55 3.4 40.55 3.0 40.5 2.9 40.45 2.8 40.35 2.55 39.85 1.9 39.8 1.9 39.05 1.4 38.55 1.25 38.45 1.2 38.3 1.1 37.7 0.85 37.0 0.6 36.9 0.55 35.15 0.2 34.6 -0.05 36.05 -0.05 36.45 0.1 36.65 0.15 37.75 0.45 37.9 0.45 38.95 0.9 39.7 1.45 40.0 1.75 40.55 2.6 40.65 2.85 40.7 3.0 40.65 3.7 40.5 4.0 40.5 4.1 40.45 4.15 40.3 4.4 40.15 4.55 M44.2 5.1 L44.2 5.05 44.3 5.1 44.2 5.1 M45.1 9.05 L45.05 9.1 45.0 9.05 44.5 9.0 43.55 8.9 43.05 8.25 43.0 7.65 43.35 7.2 43.35 7.1 43.35 7.05 43.8 7.0 43.9 7.05 43.85 7.1 43.35 7.6 Q43.05 8.45 44.15 8.85 L45.3 8.6 45.1 9.0 45.1 9.05 M41.15 7.3 L41.2 7.25 41.2 7.2 41.15 7.3 M45.2 20.55 L45.2 20.5 45.1 20.5 45.2 20.55 M0.05 36.2 L0.9 35.45 1.2 35.35 1.35 35.6 1.5 35.75 1.75 36.15 0.8 36.9 0.05 37.55 0.05 36.2 M3.35 39.35 L3.05 40.0 2.95 39.95 2.7 40.55 2.7 40.75 2.65 40.85 Q2.55 41.0 2.75 41.6 3.05 42.95 3.5 43.15 L3.55 43.15 4.6 43.9 5.25 44.25 5.4 44.3 5.55 44.4 5.5 44.4 5.5 44.65 5.5 44.9 5.45 44.9 5.5 45.1 Q4.15 44.45 3.3 43.3 2.1 41.7 2.6 40.35 L2.85 39.95 2.95 39.75 3.2 39.45 Q3.3 39.35 3.35 39.35 M7.9 42.25 L8.95 41.6 9.35 41.5 10.05 41.35 10.6 41.2 10.65 41.15 12.05 41.15 13.45 41.55 14.7 42.35 Q16.55 44.3 15.0 46.75 L14.65 47.35 14.05 47.9 13.15 47.9 13.5 47.75 13.55 47.7 14.35 47.05 14.5 46.85 15.0 45.45 Q15.15 44.8 14.95 44.1 14.65 43.3 13.85 42.65 L12.8 42.0 11.7 41.8 10.95 41.8 10.0 41.95 9.6 42.15 9.55 42.2 8.7 42.55 7.8 43.1 7.7 43.25 7.45 43.55 7.35 43.7 7.25 43.95 7.05 44.4 6.95 44.9 6.9 45.15 6.85 45.7 6.8 45.85 6.8 45.65 6.8 45.25 6.8 45.1 6.8 44.85 6.8 44.2 6.9 43.8 7.2 43.15 7.25 43.05 7.9 42.25 M10.0 47.9 L9.65 47.9 9.5 47.6 9.25 46.65 9.3 45.95 9.35 45.75 9.4 45.55 9.5 45.35 9.7 45.15 9.8 45.0 Q9.95 44.85 10.05 44.8 L10.25 44.75 9.85 45.25 9.75 45.15 9.5 45.5 9.5 45.55 9.5 45.65 9.45 45.75 9.45 45.8 9.4 46.0 9.35 46.25 9.4 46.75 9.7 47.55 9.75 47.55 10.0 47.9 M5.65 27.4 L5.6 27.4 5.75 27.45 5.65 27.4 M5.15 26.9 L6.3 27.4 Q7.3 27.9 7.95 29.0 L8.45 30.15 Q8.7 31.95 7.3 32.9 L6.5 33.3 5.95 33.5 5.2 33.6 4.5 33.6 3.6 33.05 3.65 32.95 3.5 32.7 3.35 32.4 3.35 32.2 3.55 32.45 3.65 32.55 3.95 32.8 5.05 33.15 5.9 33.15 6.1 33.05 6.65 32.8 7.1 32.4 7.7 31.5 Q7.9 30.75 7.7 29.95 L7.35 29.0 Q6.85 28.35 6.15 28.0 5.6 27.6 5.15 27.55 L4.25 27.4 3.45 27.35 3.3 27.4 2.95 27.45 2.65 27.65 2.3 27.8 1.45 28.65 1.7 28.25 2.2 27.55 3.1 27.0 3.9 26.8 5.15 26.9 M5.0 30.1 L5.2 30.4 5.55 30.9 5.45 31.45 5.15 31.75 4.8 31.75 4.75 31.85 4.55 31.7 4.5 31.55 5.0 31.55 Q5.55 31.35 5.25 30.6 5.15 30.3 4.65 30.15 L4.95 30.1 5.0 30.1 M4.25 29.55 L3.8 29.7 3.75 29.65 3.35 29.8 3.35 29.85 3.25 29.9 2.95 30.2 Q2.45 30.9 2.55 31.2 L2.55 31.25 2.65 32.05 2.75 32.45 2.8 32.55 2.9 33.0 3.15 33.9 3.85 35.45 4.0 36.65 3.8 37.35 3.5 38.05 3.3 38.55 3.25 38.5 3.25 38.3 3.3 38.05 3.35 37.9 3.5 37.3 Q3.65 36.4 3.35 35.45 L3.05 34.55 3.0 34.5 3.0 34.4 2.6 33.45 2.6 33.4 2.55 33.35 2.5 33.15 Q2.15 32.2 2.35 31.15 2.65 30.0 3.45 29.7 L3.75 29.6 3.85 29.55 4.1 29.55 4.25 29.55 M4.65 35.0 L4.3 34.25 5.85 34.4 7.05 34.3 7.1 34.3 8.65 34.9 Q11.45 36.8 10.5 40.1 L9.8 40.25 9.95 38.9 Q9.9 38.0 9.45 37.2 8.8 36.15 7.6 35.55 L6.05 34.95 4.65 35.0 M6.0 43.3 L5.9 43.45 5.8 43.4 5.55 43.25 5.55 43.2 6.0 43.3 M4.75 39.0 L4.85 38.95 4.9 39.0 5.45 39.0 6.4 39.15 6.95 39.85 7.0 40.5 6.65 41.0 6.6 41.1 6.6 41.15 6.1 41.2 6.05 41.15 6.05 41.1 6.6 40.6 Q6.9 39.65 5.7 39.2 5.2 39.0 4.55 39.45 L4.75 39.05 4.75 39.0 M10.1 41.6 L10.05 41.6 10.0 41.65 10.1 41.6 M11.85 46.5 L11.85 46.45 12.3 46.15 12.4 46.05 Q12.6 45.45 11.9 45.0 11.55 44.8 11.05 45.0 L11.0 45.0 11.05 45.0 11.25 44.8 11.3 44.7 11.35 44.7 11.75 44.85 12.4 45.1 12.7 45.7 12.6 46.15 12.55 46.25 12.25 46.5 12.2 46.55 12.2 46.6 11.9 46.55 11.85 46.5" fill="#b51cb5" fill-rule="evenodd" stroke="none"/>
      <path d="M45.15 17.65 L45.2 17.65 45.4 17.5 45.55 17.35 45.35 16.75 45.3 16.7 45.25 16.6 43.7 16.65 43.3 17.15 43.1 17.8 Q43.1 18.2 43.5 18.6 44.25 19.2 45.05 19.05 L45.95 18.5 46.05 18.4 46.05 18.3 46.1 18.3 46.3 18.15 Q46.9 17.7 46.75 16.7 46.6 15.75 45.95 15.05 L45.9 15.0 45.9 14.95 45.8 14.85 45.4 14.35 45.3 14.2 44.8 13.6 44.4 12.85 44.2 12.15 44.15 11.65 44.65 12.4 44.75 12.55 44.9 12.7 45.0 12.8 45.45 13.6 47.1 15.3 48.0 17.2 48.0 18.75 47.7 19.3 47.45 19.5 47.25 19.8 47.0 19.9 46.95 20.0 46.25 20.15 45.55 20.3 44.6 20.25 Q44.0 20.1 43.45 19.75 L42.9 19.1 Q42.5 18.5 42.5 17.9 42.45 17.4 42.7 17.0 L43.3 16.2 43.45 16.05 44.1 15.85 45.4 15.95 45.45 16.0 45.7 16.15 45.75 16.45 45.85 16.75 45.85 17.0 45.8 17.55 45.8 17.6 45.55 17.95 45.25 18.1 45.2 18.1 Q44.85 18.1 44.65 17.9 44.25 17.4 44.6 17.05 L44.95 17.0 45.0 17.0 45.05 17.2 44.8 17.5 44.75 17.6 44.75 17.7 45.15 17.7 45.15 17.65 M45.95 12.65 L45.65 12.4 45.3 12.15 44.95 11.75 44.4 11.0 Q45.25 10.85 45.8 10.3 46.35 9.8 46.75 8.55 L46.85 8.3 46.85 8.2 46.85 8.15 46.9 8.1 47.05 7.7 Q47.5 6.4 46.4 5.0 L44.4 3.35 44.4 3.3 44.35 3.05 44.3 2.85 44.2 2.65 44.0 2.0 45.65 2.45 Q46.2 2.65 47.0 3.2 48.0 5.0 48.0 7.8 L48.0 11.65 47.85 11.75 Q47.35 12.25 46.3 12.55 L45.95 12.65 M43.55 11.0 Q43.25 11.65 43.25 12.55 L42.55 12.3 Q41.4 11.75 40.75 10.8 40.3 10.05 40.25 9.2 L40.25 9.05 41.4 8.6 41.4 8.85 Q41.45 9.95 41.7 10.1 42.1 10.7 43.05 10.9 L43.55 11.0 M38.45 1.95 L38.45 2.0 38.7 2.2 38.7 2.25 38.75 2.25 39.05 2.45 39.1 2.5 39.25 2.75 39.65 3.45 39.6 3.5 39.65 3.8 39.65 4.05 39.4 4.45 39.35 4.5 38.55 4.7 Q37.7 4.5 37.85 3.85 L38.25 3.45 38.25 3.4 38.45 3.65 38.4 4.2 38.45 4.25 38.55 4.45 38.95 4.0 39.1 3.75 39.1 3.35 38.45 2.85 38.25 2.75 38.0 2.7 Q37.0 2.65 36.65 4.05 L36.45 4.9 Q36.6 5.7 36.8 5.8 37.1 6.2 37.8 6.35 L38.7 6.35 Q39.45 6.2 39.9 5.7 L40.35 4.7 40.45 4.35 40.5 4.15 40.55 4.1 40.5 4.05 40.5 4.0 40.65 3.7 40.7 3.0 40.65 2.85 40.55 2.6 40.0 1.75 39.7 1.45 38.95 0.9 37.9 0.45 37.75 0.45 36.65 0.15 36.45 0.1 36.05 -0.05 39.3 -0.05 39.8 0.15 41.85 1.4 41.95 1.45 42.2 1.6 42.9 2.6 42.95 2.8 43.05 3.35 43.05 3.55 43.05 3.95 43.05 4.35 43.0 4.55 42.95 4.8 42.85 5.1 42.85 5.15 42.8 5.3 42.1 6.0 41.4 6.65 40.6 7.25 40.3 7.35 40.0 7.45 39.5 7.6 39.3 7.65 38.6 7.7 37.5 7.4 Q36.65 7.05 36.1 6.35 L35.7 5.25 Q35.6 4.6 35.8 3.8 L35.8 3.6 36.4 2.8 Q36.85 2.25 37.4 2.05 L37.9 1.95 38.05 1.95 38.45 1.95 M44.2 5.1 L44.3 5.1 44.35 5.15 44.65 5.5 45.1 5.85 45.15 5.9 45.35 6.25 45.7 7.25 45.75 7.3 45.7 8.0 45.35 8.55 45.3 8.6 44.15 8.85 Q43.05 8.45 43.35 7.6 L43.85 7.1 43.9 7.05 44.15 7.35 Q44.3 7.7 44.05 8.1 L44.1 8.2 44.25 8.45 44.8 8.0 45.0 7.55 45.1 7.1 45.0 6.9 44.2 6.3 43.95 6.2 43.85 6.15 44.2 5.1 M41.15 7.3 L41.2 7.2 41.2 7.25 41.15 7.3 M45.2 20.55 L45.1 20.5 45.2 20.5 45.2 20.55 M1.75 36.15 L1.95 36.4 2.25 36.9 2.5 37.55 2.85 39.05 2.85 39.35 3.0 39.4 2.95 39.45 2.85 39.7 2.85 39.9 2.85 39.95 2.6 40.35 Q2.1 41.7 3.3 43.3 4.15 44.45 5.5 45.1 L5.5 45.15 5.45 45.35 5.6 46.45 5.65 46.5 4.0 46.0 Q2.9 45.6 0.55 43.5 L0.4 43.0 0.35 42.8 0.15 41.65 0.05 40.05 0.05 37.55 0.8 36.9 1.75 36.15 M13.15 47.9 L11.15 47.9 11.05 47.7 10.95 47.55 10.7 47.2 10.65 47.15 10.55 46.8 10.45 46.4 10.4 46.05 10.4 45.95 10.45 45.9 10.5 45.8 10.6 45.35 10.95 45.05 11.0 45.0 11.05 45.0 Q11.55 44.8 11.9 45.0 12.6 45.45 12.4 46.05 L12.3 46.15 11.85 46.45 11.85 46.5 11.7 46.15 Q11.6 45.85 11.9 45.6 L11.85 45.55 11.8 45.3 11.55 45.35 11.3 45.6 11.05 45.85 10.9 46.2 10.95 46.35 10.95 46.45 11.0 46.5 11.05 46.6 11.1 46.65 11.45 46.95 11.6 47.1 12.05 47.3 12.2 47.35 13.15 47.0 13.65 46.35 14.1 45.55 Q14.25 44.65 14.05 44.5 L13.2 43.65 10.85 43.6 Q10.45 43.8 10.0 44.5 L9.85 44.75 9.75 44.95 9.7 45.1 9.7 45.15 9.5 45.35 9.4 45.55 9.35 45.75 9.3 45.95 9.25 46.65 9.5 47.6 9.65 47.9 7.85 47.9 7.65 47.65 7.4 47.3 7.2 47.0 6.8 45.85 6.85 45.7 6.9 45.15 6.95 44.9 7.05 44.4 7.25 43.95 7.35 43.7 7.45 43.55 7.7 43.25 7.8 43.1 8.7 42.55 9.55 42.2 9.6 42.15 10.0 41.95 10.95 41.8 11.7 41.8 12.8 42.0 13.85 42.65 Q14.65 43.3 14.95 44.1 15.15 44.8 15.0 45.45 L14.5 46.85 14.35 47.05 13.55 47.7 13.5 47.75 13.15 47.9 M5.65 27.4 L5.75 27.45 5.6 27.4 5.65 27.4 M1.45 28.65 L2.3 27.8 2.65 27.65 2.95 27.45 3.3 27.4 3.45 27.35 4.25 27.4 5.15 27.55 Q5.6 27.6 6.15 28.0 6.85 28.35 7.35 29.0 L7.7 29.95 Q7.9 30.75 7.7 31.5 L7.1 32.4 6.65 32.8 6.1 33.05 5.9 33.15 5.05 33.15 3.95 32.8 3.65 32.55 3.55 32.45 3.35 32.2 3.35 32.15 3.35 31.8 3.4 31.45 3.35 31.4 3.45 31.2 3.75 30.55 3.8 30.45 4.2 30.2 4.6 30.15 4.65 30.15 Q5.15 30.3 5.25 30.6 5.55 31.35 5.0 31.55 L4.5 31.55 4.5 31.25 Q4.6 31.0 4.95 30.95 L5.0 30.95 5.0 30.75 4.55 30.7 4.25 30.75 4.0 30.9 4.0 31.0 3.95 31.15 4.0 31.7 4.0 31.85 Q4.4 32.9 5.75 32.35 L6.5 32.0 6.95 31.3 6.8 30.3 Q6.15 29.2 5.25 29.15 L4.0 29.4 3.85 29.55 3.75 29.6 3.45 29.7 Q2.65 30.0 2.35 31.15 2.15 32.2 2.5 33.15 L2.55 33.35 2.6 33.4 2.6 33.45 3.0 34.4 3.0 34.5 3.05 34.55 3.35 35.45 Q3.65 36.4 3.5 37.3 L3.35 37.9 3.1 36.9 3.0 36.65 2.95 36.4 2.75 35.5 2.65 35.15 1.4 32.6 Q1.15 31.9 1.1 29.9 L1.1 29.65 1.45 28.65 M9.8 40.25 L8.85 40.55 8.3 40.85 8.45 40.5 8.75 39.25 Q8.7 38.1 8.45 37.9 8.05 37.25 7.05 37.0 L4.7 37.2 4.7 37.15 Q5.05 36.05 4.65 35.0 L6.05 34.95 7.6 35.55 Q8.8 36.15 9.45 37.2 9.9 38.0 9.95 38.9 L9.8 40.25 M6.8 42.2 L6.3 42.85 6.0 43.3 5.55 43.2 5.2 42.8 4.7 42.4 4.65 42.35 4.45 41.95 4.0 40.9 4.05 40.8 Q4.0 40.25 4.1 40.0 4.25 39.65 4.5 39.45 L4.55 39.45 Q5.2 39.0 5.7 39.2 6.9 39.65 6.6 40.6 L6.05 41.1 6.05 41.15 5.7 40.8 Q5.55 40.45 5.8 40.0 L5.8 39.9 Q5.9 39.7 5.7 39.65 5.35 39.5 5.1 40.15 L4.8 40.55 4.75 41.05 Q4.8 41.5 5.65 41.9 L5.9 42.05 6.8 42.2 M10.1 41.6 L10.0 41.65 10.05 41.6 10.1 41.6" fill="#851485" fill-rule="evenodd" stroke="none"/>
      <path d="M48.0 19.6 L47.6 20.0 46.8 20.55 47.3 20.15 47.85 19.5 48.0 19.0 48.0 19.6 M45.75 16.15 L45.9 16.5 45.95 16.95 Q46.05 17.65 45.65 18.0 L45.45 18.2 45.05 18.25 45.2 18.1 45.25 18.1 45.55 17.95 45.8 17.6 45.8 17.55 45.85 17.0 45.85 16.75 45.75 16.45 45.7 16.15 45.75 16.15 M44.95 16.9 L45.1 17.0 45.1 17.15 45.1 17.4 45.05 17.65 45.15 17.7 44.75 17.7 44.75 17.6 44.8 17.5 45.05 17.2 45.0 17.0 44.95 16.9 M45.35 16.75 L45.2 16.6 45.0 16.45 Q44.7 16.15 43.95 16.65 43.6 16.95 43.5 17.4 43.3 17.9 43.65 18.35 44.15 18.95 45.0 18.75 L45.8 18.4 46.0 18.35 46.05 18.3 46.05 18.4 45.95 18.5 45.05 19.05 Q44.25 19.2 43.5 18.6 43.1 18.2 43.1 17.8 L43.3 17.15 43.7 16.65 45.25 16.6 45.3 16.7 45.35 16.75 M44.15 11.4 L44.25 11.5 44.3 11.7 44.85 12.55 47.45 15.5 48.0 16.6 48.0 17.2 47.1 15.3 45.45 13.6 45.0 12.8 44.9 12.7 44.75 12.55 44.65 12.4 44.15 11.65 44.15 11.5 44.15 11.4 M44.4 11.0 L44.2 10.6 44.2 10.55 Q44.95 10.5 45.6 9.9 L46.55 8.6 46.75 8.3 46.85 8.2 46.85 8.3 46.75 8.55 Q46.35 9.8 45.8 10.3 45.25 10.85 44.4 11.0 M43.8 10.55 L43.55 11.0 43.05 10.9 Q42.1 10.7 41.7 10.1 41.45 9.95 41.4 8.85 L41.4 8.6 41.85 8.4 41.9 9.05 Q42.1 10.05 43.05 10.4 L43.8 10.55 M43.7 9.75 L43.8 9.75 43.9 9.8 43.75 9.75 43.7 9.75 M44.0 2.0 L43.8 1.65 43.7 1.5 44.05 1.6 44.05 1.55 46.45 2.4 47.0 3.2 Q46.2 2.65 45.65 2.45 L44.0 2.0 M43.65 3.95 L43.5 4.75 43.0 6.0 43.3 5.2 43.35 5.05 43.35 4.7 43.35 4.0 43.25 3.65 43.2 3.4 43.05 3.1 43.0 2.8 42.9 2.6 42.2 1.6 41.95 1.45 41.85 1.4 39.8 0.15 39.3 -0.05 40.1 -0.05 40.3 0.05 41.3 0.65 41.85 1.05 42.4 1.55 43.05 2.35 43.3 2.9 43.45 3.55 43.65 3.95 M38.45 2.0 L38.95 2.2 39.3 2.6 Q39.85 3.25 39.85 3.9 L39.8 4.1 39.7 4.4 39.25 4.8 39.25 4.75 39.35 4.5 39.4 4.45 39.65 4.05 39.65 3.8 39.6 3.5 39.65 3.45 39.25 2.75 39.1 2.5 39.05 2.45 38.75 2.25 38.7 2.25 38.7 2.2 38.45 2.0 M38.2 3.4 L38.4 3.4 38.45 3.45 38.7 3.8 38.8 4.1 38.95 4.0 38.55 4.45 38.45 4.25 38.4 4.2 38.45 3.65 38.25 3.4 38.2 3.4 M38.45 2.85 L38.25 2.8 37.8 2.85 Q37.25 2.75 36.85 3.9 36.7 4.45 36.85 5.0 37.1 5.7 37.8 5.9 L39.2 5.75 39.65 5.4 40.0 5.0 40.3 4.4 40.45 4.15 40.5 4.1 40.5 4.0 40.5 4.05 40.55 4.1 40.5 4.15 40.45 4.35 40.35 4.7 39.9 5.7 Q39.45 6.2 38.7 6.35 L37.8 6.35 Q37.1 6.2 36.8 5.8 36.6 5.7 36.45 4.9 L36.65 4.05 Q37.0 2.65 38.0 2.7 L38.25 2.75 38.45 2.85 M38.25 5.4 L38.3 5.4 38.45 5.45 38.25 5.4 M44.35 5.15 L44.95 5.45 45.4 6.1 Q46.2 7.2 45.9 8.1 45.7 8.35 45.75 8.55 L45.1 9.05 45.1 9.0 45.3 8.6 45.35 8.55 45.7 8.0 45.75 7.3 45.7 7.25 45.35 6.25 45.15 5.9 45.1 5.85 44.65 5.5 44.35 5.15 M43.8 7.0 L44.3 7.1 44.6 7.4 44.8 8.0 44.25 8.45 44.1 8.2 44.05 8.1 Q44.3 7.7 44.15 7.35 L43.9 7.05 43.8 7.0 M45.0 6.9 Q44.75 6.5 43.95 6.25 L43.8 6.2 43.85 6.15 43.95 6.2 44.2 6.3 45.0 6.9 M3.0 39.4 L3.15 39.4 3.25 39.35 3.2 39.45 2.95 39.75 2.85 39.95 2.85 39.9 2.85 39.7 2.95 39.45 3.0 39.4 M5.65 46.5 L5.75 46.95 3.1 46.0 1.0 44.5 0.55 43.5 Q2.9 45.6 4.0 46.0 L5.65 46.5 M6.5 44.2 Q6.6 43.75 6.85 43.4 L7.9 42.25 7.25 43.05 7.2 43.15 6.9 43.8 6.8 44.2 6.8 44.85 6.8 45.1 6.8 45.25 6.8 45.65 6.8 45.85 7.2 47.0 7.4 47.3 7.65 47.65 7.85 47.9 7.6 47.9 7.5 47.9 7.4 47.75 7.25 47.5 6.85 46.9 6.6 46.05 6.55 45.55 6.55 45.0 6.55 44.75 6.55 44.65 6.5 44.2 M11.15 47.9 L11.1 47.9 10.8 47.65 10.75 47.45 10.5 46.9 10.35 46.35 10.3 46.0 10.3 45.75 10.45 45.35 10.65 45.0 Q11.0 44.8 11.3 44.7 L11.25 44.8 11.05 45.0 11.0 45.0 10.95 45.05 10.6 45.35 10.5 45.8 10.45 45.9 10.4 45.95 10.4 46.05 10.45 46.4 10.55 46.8 10.65 47.15 10.7 47.2 10.95 47.55 11.05 47.7 11.15 47.9 M3.9 26.8 L3.1 27.0 2.2 27.55 1.7 28.25 1.45 28.65 1.1 29.65 1.1 29.9 Q1.15 31.9 1.4 32.6 L2.65 35.15 2.75 35.5 2.95 36.4 3.0 36.65 3.1 36.9 3.35 37.9 3.3 38.05 3.25 38.3 3.2 38.2 3.15 37.8 2.9 36.65 1.7 33.8 1.65 33.8 1.05 32.2 0.9 30.25 Q0.9 29.15 1.2 28.7 L1.8 27.75 2.0 27.5 2.7 27.05 3.9 26.8 M6.0 30.65 L5.85 30.4 5.8 30.3 5.9 30.45 6.0 30.65 M3.85 29.55 L4.0 29.4 5.25 29.15 Q6.15 29.2 6.8 30.3 L6.95 31.3 6.5 32.0 5.75 32.35 Q4.4 32.9 4.0 31.85 L4.0 31.7 4.05 31.85 4.35 32.2 5.55 32.25 6.35 31.65 Q6.75 31.1 6.5 30.5 6.15 29.6 5.15 29.5 L4.1 29.55 3.85 29.55 M4.55 30.7 L5.0 30.75 5.0 30.95 4.95 30.95 Q4.6 31.0 4.5 31.25 L4.5 31.55 4.55 31.7 4.4 31.5 4.45 31.35 4.55 31.05 4.65 30.75 4.55 30.75 4.55 30.7 M4.65 30.15 L4.6 30.15 4.2 30.2 3.8 30.45 3.75 30.55 3.45 31.2 3.35 31.4 3.4 31.45 3.35 31.8 3.35 32.15 3.25 31.75 3.4 31.15 Q3.6 30.35 4.15 30.1 L4.45 29.95 5.0 30.1 4.95 30.1 4.65 30.15 M8.3 40.85 L7.8 41.2 8.1 40.65 Q8.35 39.9 8.2 39.05 7.95 38.0 7.0 37.6 5.55 37.05 4.35 38.05 L4.7 37.2 7.05 37.0 Q8.05 37.25 8.45 37.9 8.7 38.1 8.75 39.25 L8.45 40.5 8.3 40.85 M6.95 42.0 L6.8 42.2 5.9 42.05 5.65 41.9 5.9 42.0 6.55 42.05 6.95 42.0 M5.55 43.25 L4.9 42.9 4.35 42.1 Q3.55 40.95 3.9 40.0 L4.1 39.55 4.75 39.0 4.75 39.05 4.55 39.45 4.5 39.45 Q4.25 39.65 4.1 40.0 4.0 40.25 4.05 40.8 L4.0 40.9 4.45 41.95 4.65 42.35 4.7 42.4 5.2 42.8 5.55 43.2 5.55 43.25 M6.1 41.2 L5.85 41.15 5.75 41.0 5.45 40.5 5.3 40.05 5.1 40.15 Q5.35 39.5 5.7 39.65 5.9 39.7 5.8 39.9 L5.8 40.0 Q5.55 40.45 5.7 40.8 L6.05 41.15 6.1 41.2 M6.35 38.35 L6.2 38.3 6.0 38.25 6.25 38.3 6.35 38.35 M9.7 45.15 L9.7 45.1 9.75 44.95 9.85 44.75 10.0 44.5 Q10.45 43.8 10.85 43.6 L13.2 43.65 14.05 44.5 Q14.25 44.65 14.1 45.55 L13.65 46.35 13.15 47.0 12.2 47.35 12.05 47.3 11.6 47.1 11.45 46.95 11.6 47.05 12.2 47.2 Q12.55 47.3 13.05 46.85 L13.4 46.45 13.7 45.3 Q13.75 44.45 13.1 44.05 L11.05 43.95 10.25 44.6 10.05 44.8 Q9.95 44.85 9.8 45.0 L9.7 45.15 M11.05 46.6 L11.0 46.5 10.95 46.45 11.05 46.6 M11.3 45.6 L11.55 45.35 11.8 45.3 11.85 45.55 11.9 45.6 Q11.6 45.85 11.7 46.15 L11.85 46.5 11.9 46.55 11.7 46.45 11.65 46.35 11.55 45.95 11.45 45.55 11.3 45.6" fill="#750075" fill-rule="evenodd" stroke="none"/>
      <path d="M45.9 16.5 L46.15 16.9 46.2 17.55 45.85 17.95 45.5 18.15 45.45 18.2 45.65 18.0 Q46.05 17.65 45.95 16.95 L45.9 16.5 M45.1 17.0 L45.2 17.1 45.2 17.3 45.15 17.65 45.15 17.7 45.05 17.65 45.1 17.4 45.1 17.15 45.1 17.0 M45.0 16.45 L44.6 16.45 44.2 16.65 Q43.8 16.95 43.75 17.3 43.65 17.75 44.15 18.2 L44.25 18.3 45.8 18.4 45.0 18.75 Q44.15 18.95 43.65 18.35 43.3 17.9 43.5 17.4 43.6 16.95 43.95 16.65 44.7 16.15 45.0 16.45 M44.25 11.5 L44.6 12.0 44.55 12.0 44.8 12.25 44.85 12.3 44.9 12.35 44.95 12.35 45.1 12.6 45.65 13.0 46.0 13.25 46.05 13.35 47.45 14.85 48.0 15.8 48.0 16.6 47.45 15.5 44.85 12.55 44.3 11.7 44.25 11.5 M44.2 10.55 L44.1 10.4 43.9 10.4 43.8 10.55 43.05 10.4 Q42.1 10.05 41.9 9.05 L41.85 8.4 42.2 8.15 Q42.1 9.4 43.7 9.75 L43.75 9.75 43.9 9.8 Q45.65 10.05 46.45 8.7 L46.55 8.6 45.6 9.9 Q44.95 10.5 44.2 10.55 M43.7 1.5 L43.0 0.5 45.25 1.25 46.45 2.4 44.05 1.55 44.05 1.6 43.7 1.5 M41.15 0.0 Q42.5 0.85 43.15 2.1 43.6 3.05 43.65 3.95 L43.45 3.55 43.3 2.9 43.05 2.35 42.4 1.55 41.85 1.05 41.3 0.65 40.3 0.05 40.1 -0.05 40.15 -0.05 41.15 0.0 M38.95 2.2 L39.5 2.4 40.05 3.15 39.95 3.8 39.75 4.35 39.7 4.4 39.8 4.1 39.85 3.9 Q39.85 3.25 39.3 2.6 L38.95 2.2 M38.4 3.4 L38.55 3.45 38.8 3.65 38.95 4.0 38.8 4.1 38.7 3.8 38.45 3.45 38.4 3.4 M37.8 2.85 L37.4 3.15 37.1 3.65 Q36.7 5.25 38.25 5.4 L38.45 5.45 Q39.6 5.5 40.15 4.55 L40.3 4.4 40.0 5.0 39.65 5.4 39.2 5.75 37.8 5.9 Q37.1 5.7 36.85 5.0 36.7 4.45 36.85 3.9 37.25 2.75 37.8 2.85 M44.95 5.45 L45.7 5.85 46.3 6.85 46.15 7.8 45.8 8.45 45.75 8.55 Q45.7 8.35 45.9 8.1 46.2 7.2 45.4 6.1 L44.95 5.45 M3.25 39.35 L3.45 39.2 3.35 39.35 Q3.3 39.35 3.2 39.45 L3.25 39.35 M5.75 46.95 L6.0 47.8 5.4 47.65 3.8 47.1 2.75 46.55 Q1.65 45.75 1.0 44.5 L3.1 46.0 5.75 46.95 M6.95 47.9 Q6.55 47.05 6.4 46.2 6.2 45.1 6.5 44.2 L6.55 44.65 6.55 44.75 6.55 45.0 6.55 45.55 6.6 46.05 6.85 46.9 7.25 47.5 7.4 47.75 7.5 47.9 6.95 47.9 M5.8 30.3 Q5.2 29.4 4.25 29.55 L4.1 29.55 5.15 29.5 Q6.15 29.6 6.5 30.5 6.75 31.1 6.35 31.65 L5.55 32.25 4.35 32.2 4.75 32.25 5.25 32.2 Q6.35 31.8 6.05 30.85 L6.0 30.7 6.0 30.65 5.9 30.45 5.8 30.3 M3.2 38.2 L3.0 37.35 2.85 36.95 2.8 36.9 2.8 36.85 2.75 36.8 2.65 36.45 2.1 35.8 1.85 35.35 1.8 35.25 0.85 32.95 Q0.1 30.45 0.95 28.7 1.35 27.95 2.0 27.5 L1.8 27.75 1.2 28.7 Q0.9 29.15 0.9 30.25 L1.05 32.2 1.65 33.8 1.7 33.8 2.9 36.65 3.15 37.8 3.2 38.2 M4.45 29.95 L4.15 30.1 Q3.6 30.35 3.4 31.15 L3.25 31.75 3.1 31.15 3.35 30.4 3.9 30.1 4.35 29.95 4.45 29.95 M4.55 30.75 L4.65 30.75 4.55 31.05 4.45 31.35 4.4 31.5 4.3 31.3 4.35 31.0 4.55 30.75 M7.8 41.2 L6.95 42.0 6.55 42.05 7.15 41.65 7.65 40.95 Q8.45 38.8 6.35 38.35 L6.25 38.3 6.0 38.25 Q4.8 38.0 4.0 38.65 L4.35 38.05 Q5.55 37.05 7.0 37.6 7.95 38.0 8.2 39.05 8.35 39.9 8.1 40.65 L7.8 41.2 M4.9 42.9 L4.05 42.4 3.4 41.3 Q3.35 41.0 3.6 40.35 L4.0 39.6 4.1 39.55 3.9 40.0 Q3.55 40.95 4.35 42.1 L4.9 42.9 M5.85 41.15 L5.55 41.05 5.25 40.75 5.1 40.15 5.3 40.05 5.45 40.5 5.75 41.0 5.85 41.15 M10.05 44.8 L10.25 44.6 11.05 43.95 13.1 44.05 Q13.75 44.45 13.7 45.3 L13.4 46.45 13.05 46.85 Q12.55 47.3 12.2 47.2 L12.55 47.0 13.05 46.55 Q14.0 45.1 12.4 44.4 11.1 43.8 10.25 44.75 L10.05 44.8 M11.7 46.45 L11.5 46.35 11.35 46.05 11.3 45.6 11.45 45.55 11.55 45.95 11.65 46.35 11.7 46.45 M10.65 45.0 L10.45 45.35 10.3 45.75 10.3 46.0 10.35 46.35 10.5 46.9 10.75 47.45 10.8 47.65 10.2 47.1 9.9 46.2 10.2 45.55 10.55 45.05 10.65 45.0" fill="#640064" fill-rule="evenodd" stroke="none"/>
      <path d="M5.4 47.65 L4.9 47.55 Q3.65 47.2 2.75 46.55 L3.8 47.1 5.4 47.65" fill="#530053" fill-rule="evenodd" stroke="none"/>
      <path d="M16.55 37.6 L16.6 37.65 18.7 39.6 19.1 40.85 19.1 40.7 Q19.1 40.55 19.2 40.55 L19.45 40.55 19.65 40.75 19.4 40.95 19.1 40.9 19.3 42.3 19.2 42.35 19.0 42.3 Q18.65 41.0 17.7 39.4 L16.55 37.6 M27.9 41.2 L28.25 40.9 28.35 40.9 28.35 40.85 28.5 40.7 28.6 40.55 30.5 39.1 29.7 40.1 Q27.85 42.7 27.85 45.75 L27.75 45.75 27.7 44.8 Q27.7 43.85 28.0 42.35 L27.95 42.3 27.6 43.35 27.45 43.3 27.45 42.85 27.9 41.6 27.8 41.5 27.9 41.2 M28.1 41.05 L28.0 41.35 28.2 41.05 28.1 41.05" fill="#752abe" fill-rule="evenodd" stroke="none"/>
      <path d="M12.35 32.85 L13.8 34.65 14.75 36.1 15.4 37.1 15.3 37.15 16.1 39.95 16.1 40.1 16.0 40.15 Q15.55 38.2 13.8 35.3 L12.35 32.85 M35.8 33.35 L36.85 32.0 37.45 31.2 36.75 32.5 34.6 36.3 Q33.65 37.7 33.0 39.65 L32.05 42.95 32.0 42.95 31.95 42.45 Q31.95 42.0 32.3 41.05 L32.65 39.7 Q32.7 38.95 33.2 37.95 L33.7 36.9 33.6 36.7 34.55 35.2 35.8 33.35" fill="#3a1063" fill-rule="evenodd" stroke="none"/>
      <path d="M14.9 35.9 L16.55 37.6 17.7 39.4 Q18.2 40.5 18.2 41.2 L18.1 41.75 18.05 41.75 17.9 40.9 17.65 40.45 17.55 40.55 17.0 38.95 16.9 38.75 16.45 37.95 16.2 37.6 14.9 35.9 M30.5 39.1 L31.95 37.65 33.45 36.15 32.25 37.7 31.4 38.65 Q30.65 39.5 29.85 41.5 L29.8 41.5 29.85 41.35 29.85 41.25 29.5 41.8 29.45 41.8 28.85 43.05 28.65 43.05 28.65 42.75 Q28.95 41.45 29.7 40.1 L30.5 39.1" fill="#6522a4" fill-rule="evenodd" stroke="none"/>
      <path d="M13.8 34.65 L14.9 35.9 16.2 37.6 16.25 37.8 16.65 38.8 Q16.65 38.7 16.8 38.7 L16.9 38.75 17.0 38.95 16.8 39.15 16.75 39.15 16.9 40.2 17.1 40.75 17.1 41.0 16.1 38.5 15.4 37.1 14.75 36.1 13.8 34.65 M33.45 36.15 L35.8 33.35 34.55 35.2 33.7 36.3 Q32.4 38.6 31.5 40.65 L31.35 40.65 31.35 40.3 31.05 41.1 30.6 41.95 30.45 41.75 Q30.45 40.9 31.4 39.1 L32.25 37.7 33.45 36.15" fill="#531b89" fill-rule="evenodd" stroke="none"/>
      <path d="M24.15 7.05 L24.2 7.0 24.55 7.25 25.75 8.1 25.8 8.1 Q26.9 9.1 30.75 10.8 L36.15 13.1 36.1 13.3 36.6 20.8 Q36.6 25.75 36.1 27.2 L34.25 30.85 33.45 31.7 31.75 33.65 27.8 37.45 25.5 39.8 Q24.85 40.35 24.75 40.65 L24.4 41.2 24.15 41.2 24.15 41.15 24.2 41.1 24.25 40.9 24.2 40.75 24.4 36.9 24.15 33.25 24.2 33.15 24.25 32.95 24.5 33.35 24.75 33.75 25.25 34.9 25.4 35.6 Q25.7 36.4 26.6 36.4 L27.15 36.35 27.2 36.35 27.25 36.35 27.3 36.35 27.35 36.35 28.1 35.8 Q30.3 35.7 33.3 30.9 36.3 26.05 36.3 22.55 L36.3 22.1 36.3 21.6 36.05 21.05 35.95 20.95 35.1 19.55 Q34.15 18.2 34.15 17.8 L34.4 16.55 34.65 15.2 34.65 15.0 Q34.95 14.8 34.95 14.15 34.95 13.75 31.1 11.95 27.45 10.25 26.45 10.1 L26.2 9.8 25.95 9.75 25.85 9.7 Q25.15 9.65 25.15 10.2 24.45 10.85 24.45 12.1 L24.45 12.15 Q24.25 12.55 24.2 12.95 L24.3 11.5 24.15 9.25 24.0 7.45 24.15 7.15 24.1 7.1 24.15 7.05 M37.5 19.5 L37.55 20.0 37.5 19.95 37.5 19.5 M22.2 10.5 Q21.95 10.55 21.8 10.7 L21.75 10.65 21.65 10.7 19.15 11.75 17.65 12.35 17.4 12.55 14.8 13.85 14.8 13.8 14.3 14.15 Q14.3 14.45 14.45 14.45 L14.5 14.45 14.85 16.3 15.25 17.55 15.5 18.05 13.9 19.95 13.6 20.35 Q12.55 22.05 12.55 22.6 L12.75 23.7 12.75 24.4 13.1 25.55 Q13.2 26.5 14.05 28.15 14.85 29.65 15.75 30.8 L18.75 34.15 Q20.75 36.2 21.3 36.35 L21.25 36.45 21.0 36.5 Q20.05 36.5 17.55 33.9 15.25 31.55 14.15 29.8 L13.75 28.95 Q13.15 28.6 12.75 27.2 12.25 25.8 11.9 23.4 11.9 22.55 12.45 21.5 L13.5 19.5 14.5 17.95 14.5 17.9 14.3 16.7 14.15 15.3 13.9 14.35 13.85 14.1 Q13.85 13.75 15.45 12.8 16.85 11.9 17.75 11.6 L19.7 10.7 22.15 10.3 22.15 10.35 22.2 10.5 M33.45 13.65 L33.85 13.85 34.4 14.1 34.4 14.15 34.1 14.1 33.85 13.85 33.8 13.85 33.45 13.65" fill="#732697" fill-rule="evenodd" stroke="none"/>
      <path d="M24.15 7.05 L24.1 7.1 24.15 7.15 24.0 7.45 23.9 7.55 23.9 7.6 Q23.9 8.35 21.15 9.7 L18.95 10.7 18.85 10.7 18.8 10.75 Q17.8 11.2 17.5 11.35 L12.3 14.05 11.65 23.75 11.7 25.05 11.85 25.95 Q12.5 28.9 14.15 31.1 L18.85 36.15 21.85 38.6 24.2 40.75 24.25 40.9 24.2 41.1 24.15 41.15 24.05 41.2 23.15 40.65 23.05 40.7 22.85 40.45 20.95 38.9 20.8 38.85 20.75 38.9 16.95 35.2 13.8 31.75 Q12.4 29.8 11.8 28.2 11.0 25.35 11.0 20.45 L11.4 13.45 17.85 10.8 Q22.15 8.85 23.05 7.85 L23.75 7.35 24.15 7.05 M24.25 32.95 L24.2 33.15 24.15 33.25 Q22.85 36.65 22.1 36.65 L21.65 36.5 21.45 36.35 Q22.0 36.1 24.15 32.6 L24.2 32.55 24.25 32.95 M22.2 10.5 L22.15 10.35 22.15 10.3 Q22.15 10.05 22.3 9.95 22.5 9.35 23.25 10.7 L24.2 12.95 24.2 13.0 24.25 13.35 24.25 13.4 24.2 13.7 24.2 13.75 23.6 12.65 23.05 11.45 Q22.8 10.7 22.35 10.55 L22.3 10.45 22.25 10.45 22.2 10.5" fill="#cb96e4" fill-rule="evenodd" stroke="none"/>
      <path d="M24.0 7.45 L24.15 9.25 24.3 11.5 24.2 12.95 23.25 10.7 Q22.5 9.35 22.3 9.95 22.15 10.05 22.15 10.3 L19.7 10.7 17.75 11.6 Q16.85 11.9 15.45 12.8 13.85 13.75 13.85 14.1 L13.9 14.35 14.15 15.3 14.3 16.7 14.5 17.9 14.5 17.95 13.5 19.5 12.45 21.5 Q11.9 22.55 11.9 23.4 12.25 25.8 12.75 27.2 13.15 28.6 13.75 28.95 L14.15 29.8 Q15.25 31.55 17.55 33.9 20.05 36.5 21.0 36.5 L21.25 36.45 21.3 36.35 21.35 36.35 21.45 36.35 21.65 36.5 22.1 36.65 Q22.85 36.65 24.15 33.25 L24.4 36.9 24.2 40.75 21.85 38.6 18.85 36.15 14.15 31.1 Q12.5 28.9 11.85 25.95 L11.7 25.05 11.65 23.75 12.3 14.05 17.5 11.35 Q17.8 11.2 18.8 10.75 L18.85 10.7 18.95 10.7 21.15 9.7 Q23.9 8.35 23.9 7.6 L23.9 7.55 24.0 7.45 M26.45 10.1 Q27.45 10.25 31.1 11.95 34.95 13.75 34.95 14.15 34.95 14.8 34.65 15.0 L34.65 15.2 34.4 16.55 34.15 17.8 Q34.15 18.2 35.1 19.55 L35.95 20.95 36.05 21.05 36.3 21.6 36.3 22.1 36.3 22.55 Q36.3 26.05 33.3 30.9 30.3 35.7 28.1 35.8 L29.85 34.15 32.85 30.8 34.55 28.15 Q35.35 26.5 35.45 25.55 L35.85 24.4 35.85 23.7 36.05 22.6 35.0 20.35 34.65 19.95 33.1 18.05 33.3 17.55 33.7 16.3 34.1 14.45 34.25 14.15 34.1 14.1 34.4 14.15 34.4 14.1 33.85 13.85 33.45 13.65 30.85 12.4 26.9 10.7 26.85 10.65 26.85 10.7 26.35 10.45 26.2 10.05 26.35 10.1 26.3 10.05 26.45 10.1 M27.35 36.35 L27.3 36.35 27.25 36.35 27.35 36.35 M24.15 41.15 L24.15 41.2 24.05 41.2 24.15 41.15 M13.8 31.75 L16.95 35.2 15.05 33.3 13.8 31.75 M17.4 12.55 L17.65 12.35 19.15 11.75 17.7 12.4 17.4 12.55 M33.85 13.85 L33.85 13.8 33.85 13.85 M24.15 32.6 L24.15 32.55 24.15 32.6" fill="#9933cc" fill-rule="evenodd" stroke="none"/>
      <path d="M17.2 30.1 L15.05 27.45 Q13.85 25.35 13.85 23.3 L13.9 22.8 13.85 22.35 14.05 22.1 Q14.05 21.3 15.5 19.6 L16.55 18.45 16.7 18.25 16.75 18.2 16.8 17.8 16.8 17.75 16.8 17.55 16.75 17.55 16.5 17.2 16.1 15.85 15.85 14.5 19.15 12.9 20.45 12.3 21.65 11.7 22.0 12.25 21.9 12.3 Q21.3 12.8 19.5 13.55 L17.75 14.35 16.95 14.85 16.7 15.15 17.4 17.75 17.35 17.85 17.4 18.1 16.9 18.6 16.5 19.3 Q15.95 20.15 15.75 21.25 L15.7 21.35 15.4 22.95 Q15.25 23.7 15.25 24.35 15.25 27.0 16.85 29.55 L17.2 30.1 M22.8 13.55 L23.85 15.1 23.85 15.45 24.05 15.6 24.2 18.4 24.45 23.95 24.4 31.35 24.3 31.4 24.15 31.35 24.0 31.5 24.05 31.5 Q23.25 31.9 22.6 32.95 L22.1 33.85 21.25 32.45 20.4 31.05 20.25 30.75 Q18.45 26.8 18.45 24.2 18.45 22.7 19.1 20.6 L19.8 18.7 19.35 17.1 18.85 15.9 22.8 13.55 M25.85 32.8 L25.7 32.55 25.85 32.55 25.85 32.8 M14.45 23.95 L14.55 22.7 14.4 23.4 14.45 23.95" fill="#929ab6" fill-rule="evenodd" stroke="none"/>
      <path d="M15.75 21.25 Q15.95 20.15 16.5 19.3 L16.9 18.6 16.9 18.65 16.45 19.8 16.4 19.95 Q15.95 20.55 15.75 21.25 M22.55 13.15 L22.7 13.4 22.8 13.55 18.85 15.9 19.35 17.1 19.8 18.7 19.1 20.6 Q18.45 22.7 18.45 24.2 18.45 26.8 20.25 30.75 L20.4 31.05 21.25 32.45 22.1 33.85 21.75 34.5 19.7 31.7 Q17.4 28.3 17.4 23.35 17.4 22.35 17.8 21.05 L18.1 19.5 18.2 19.35 18.2 19.2 18.6 18.4 18.1 17.15 17.65 16.1 Q17.65 15.65 20.3 14.35 L22.55 13.15 M14.45 23.95 L14.4 23.4 14.55 22.7 14.45 23.95" fill="#b0b6ca" fill-rule="evenodd" stroke="none"/>
      <path d="M17.2 30.1 L16.85 29.55 Q15.25 27.0 15.25 24.35 15.25 23.7 15.4 22.95 L15.7 21.35 15.75 21.25 Q15.95 20.55 16.4 19.95 L16.45 19.8 16.9 18.65 16.9 18.6 17.4 18.1 17.35 17.85 17.4 17.75 16.7 15.15 16.95 14.85 17.75 14.35 19.5 13.55 Q21.3 12.8 21.9 12.3 L22.0 12.25 22.55 13.15 20.3 14.35 Q17.65 15.65 17.65 16.1 L18.1 17.15 18.6 18.4 18.2 19.2 18.2 19.35 18.1 19.5 17.8 21.05 Q17.4 22.35 17.4 23.35 17.4 28.3 19.7 31.7 L21.75 34.5 21.5 34.9 17.2 30.1" fill="#d6d9e2" fill-rule="evenodd" stroke="none"/>
      <path d="M24.2 12.95 Q24.25 12.55 24.45 12.15 L24.45 12.1 Q24.45 10.85 25.15 10.2 25.15 9.65 25.85 9.7 L25.95 9.75 26.2 9.8 26.45 10.1 26.3 10.05 26.35 10.1 26.2 10.05 26.35 10.45 26.25 10.45 26.2 10.55 Q25.85 10.7 25.5 11.45 L24.95 12.65 24.3 13.9 24.2 13.75 24.2 13.7 24.25 13.4 24.25 13.35 24.2 13.0 24.2 12.95 M27.15 36.35 L26.6 36.4 Q25.7 36.4 25.4 35.6 L25.25 34.9 24.75 33.75 24.5 33.35 24.25 32.95 24.2 32.55 24.15 32.6 24.15 32.55 24.3 32.3 Q26.55 36.1 27.15 36.35 M24.4 41.2 L24.75 40.65 Q24.85 40.35 25.5 39.8 L27.8 37.45 31.75 33.65 33.45 31.7 34.25 30.85 36.1 27.2 Q36.6 25.75 36.6 20.8 L36.1 13.3 36.15 13.1 37.15 13.45 37.2 13.45 37.5 19.5 37.5 19.95 37.55 20.0 37.55 20.45 Q37.55 25.35 36.8 28.2 35.95 30.45 33.5 33.3 L27.85 38.9 27.85 38.85 27.6 38.9 25.7 40.45 25.5 40.7 Q25.2 40.7 24.75 41.15 L24.45 41.4 24.4 41.2" fill="#511b6b" fill-rule="evenodd" stroke="none"/>
      <path d="M24.9 14.95 L25.9 13.4 26.9 11.7 28.1 12.3 29.4 12.9 32.75 14.5 32.45 15.85 32.05 17.2 31.85 17.55 31.8 17.55 31.8 17.75 31.8 17.8 31.85 18.2 31.9 18.25 32.0 18.45 32.6 19.1 32.55 19.5 32.9 20.95 33.25 22.95 Q33.25 25.8 31.6 28.75 L29.85 31.55 29.85 31.85 29.85 31.9 27.1 34.9 26.9 34.55 28.9 32.0 Q30.65 29.35 31.35 26.4 31.8 24.7 31.95 21.65 L31.85 21.35 31.8 20.15 31.25 19.1 30.85 18.0 Q30.85 17.6 31.2 16.85 L31.85 15.7 31.85 15.65 31.85 15.5 32.1 14.7 30.35 14.0 28.5 13.1 26.95 12.7 26.25 13.55 24.9 14.95" fill="#535b79" fill-rule="evenodd" stroke="none"/>
      <path d="M24.3 15.6 L24.35 15.65 Q24.75 15.55 24.75 15.45 L24.75 15.1 24.9 14.95 26.25 13.55 26.95 12.7 28.5 13.1 30.35 14.0 32.1 14.7 31.85 15.5 31.85 15.65 31.85 15.7 31.2 16.85 Q30.85 17.6 30.85 18.0 L31.25 19.1 31.8 20.15 31.85 21.35 31.95 21.65 Q31.8 24.7 31.35 26.4 30.65 29.35 28.9 32.0 L26.9 34.55 26.35 33.6 27.15 32.35 27.3 32.2 28.25 30.0 Q30.15 25.35 30.15 21.95 L29.9 19.3 29.95 18.65 29.85 18.45 30.5 16.6 30.95 15.05 28.5 13.85 27.35 13.35 24.85 15.9 Q24.5 15.9 24.45 15.7 L24.35 15.65 24.3 15.6" fill="#616b8f" fill-rule="evenodd" stroke="none"/>
      <path d="M24.05 15.6 L24.2 15.65 24.3 15.6 24.35 15.65 24.45 15.7 Q24.5 15.9 24.85 15.9 L27.35 13.35 28.5 13.85 30.95 15.05 30.5 16.6 29.85 18.45 29.95 18.65 29.9 19.3 30.15 21.95 Q30.15 25.35 28.25 30.0 L27.3 32.2 27.15 32.35 26.35 33.6 25.95 32.95 25.85 32.8 25.85 32.55 25.7 32.55 24.55 31.5 24.45 31.35 24.4 31.35 24.45 23.95 24.2 18.4 24.05 15.6" fill="#7b85a6" fill-rule="evenodd" stroke="none"/>
      <path d="M32.6 19.1 L33.05 19.6 Q34.5 21.3 34.5 22.1 L34.7 22.35 34.65 22.8 34.7 23.3 Q34.7 25.35 33.5 27.45 L29.85 31.9 29.85 31.85 29.85 31.55 31.6 28.75 Q33.25 25.8 33.25 22.95 L32.9 20.95 32.55 19.5 32.6 19.1" fill="#40465e" fill-rule="evenodd" stroke="none"/>
      <path d="M38.15 11.5 L38.2 11.5 38.7 11.7 38.85 12.75 39.2 17.25 39.2 23.0 38.95 27.35 Q38.6 29.35 37.45 31.2 L36.85 32.0 35.8 33.35 33.45 36.15 31.95 37.65 30.5 39.1 28.6 40.55 28.5 40.7 28.35 40.85 28.25 40.9 27.9 41.2 26.85 41.9 24.35 43.5 23.75 43.3 22.6 42.5 21.8 41.9 20.1 40.7 19.95 40.55 18.7 39.6 16.6 37.65 16.55 37.6 14.9 35.9 13.8 34.65 12.35 32.85 11.7 32.0 Q10.0 29.8 9.6 27.35 9.35 26.15 9.35 23.0 L9.4 17.25 Q9.5 14.0 9.9 11.7 L10.35 11.5 10.6 11.45 10.85 11.45 10.85 11.5 11.2 11.5 Q13.85 11.1 18.05 8.85 20.35 7.65 22.25 6.45 L22.7 6.15 22.95 5.85 Q23.85 4.85 24.45 4.85 L25.35 5.5 26.05 6.05 26.2 6.4 26.3 6.45 30.5 8.85 Q34.7 11.1 37.35 11.5 L37.75 11.5 37.75 11.45 37.95 11.45 38.15 11.5 M36.15 13.1 L30.75 10.8 Q26.9 9.1 25.8 8.1 L25.75 8.1 24.55 7.25 24.2 7.0 24.15 7.05 23.75 7.35 23.05 7.85 Q22.15 8.85 17.85 10.8 L11.4 13.45 11.0 20.45 Q11.0 25.35 11.8 28.2 12.4 29.8 13.8 31.75 L15.05 33.3 16.95 35.2 20.75 38.9 20.8 38.85 20.95 38.9 22.85 40.45 23.05 40.7 23.15 40.65 24.05 41.2 24.15 41.2 24.4 41.2 24.45 41.4 24.75 41.15 Q25.2 40.7 25.5 40.7 L25.7 40.45 27.6 38.9 27.85 38.85 27.85 38.9 33.5 33.3 Q35.95 30.45 36.8 28.2 37.55 25.35 37.55 20.45 L37.55 20.0 37.5 19.5 37.2 13.45 37.15 13.45 36.15 13.1 M28.1 35.8 L27.35 36.35 27.25 36.35 27.2 36.35 27.15 36.35 Q26.55 36.1 24.3 32.3 L24.15 32.55 24.15 32.6 Q22.0 36.1 21.45 36.35 L21.35 36.35 21.3 36.35 Q20.75 36.2 18.75 34.15 L15.75 30.8 Q14.85 29.65 14.05 28.15 13.2 26.5 13.1 25.55 L12.75 24.4 12.75 23.7 12.55 22.6 Q12.55 22.05 13.6 20.35 L13.9 19.95 15.5 18.05 15.25 17.55 14.85 16.3 14.5 14.45 14.45 14.45 Q14.3 14.45 14.3 14.15 L14.8 13.8 14.8 13.85 17.4 12.55 17.7 12.4 19.15 11.75 21.65 10.7 21.75 10.65 21.8 10.7 Q21.95 10.55 22.2 10.5 L22.25 10.45 22.3 10.45 22.35 10.55 Q22.8 10.7 23.05 11.45 L23.6 12.65 24.2 13.75 24.3 13.9 24.95 12.65 25.5 11.45 Q25.85 10.7 26.2 10.55 L26.25 10.45 26.35 10.45 26.85 10.7 26.85 10.65 26.9 10.7 30.85 12.4 33.45 13.65 33.8 13.85 33.85 13.85 34.1 14.1 34.25 14.15 34.1 14.45 33.7 16.3 33.3 17.55 33.1 18.05 34.65 19.95 35.0 20.35 36.05 22.6 35.85 23.7 35.85 24.4 35.45 25.55 Q35.35 26.5 34.55 28.15 L32.85 30.8 29.85 34.15 28.1 35.8 M22.0 12.25 L21.65 11.7 20.45 12.3 19.15 12.9 15.85 14.5 16.1 15.85 16.5 17.2 16.75 17.55 16.8 17.55 16.8 17.75 16.8 17.8 16.75 18.2 16.7 18.25 16.55 18.45 15.5 19.6 Q14.05 21.3 14.05 22.1 L13.85 22.35 13.9 22.8 13.85 23.3 Q13.85 25.35 15.05 27.45 L17.2 30.1 21.5 34.9 21.75 34.5 22.1 33.85 22.6 32.95 Q23.25 31.9 24.05 31.5 L24.0 31.5 24.15 31.35 24.3 31.4 24.4 31.35 24.45 31.35 24.55 31.5 25.7 32.55 25.85 32.8 25.95 32.95 26.35 33.6 26.9 34.55 27.1 34.9 29.85 31.9 33.5 27.45 Q34.7 25.35 34.7 23.3 L34.65 22.8 34.7 22.35 34.5 22.1 Q34.5 21.3 33.05 19.6 L32.6 19.1 32.0 18.45 31.9 18.25 31.85 18.2 31.8 17.8 31.8 17.75 31.8 17.55 31.85 17.55 32.05 17.2 32.45 15.85 32.75 14.5 29.4 12.9 28.1 12.3 26.9 11.7 25.9 13.4 24.9 14.95 24.75 15.1 24.75 15.45 Q24.75 15.55 24.35 15.65 L24.3 15.6 24.2 15.65 24.05 15.6 23.85 15.45 23.85 15.1 22.8 13.55 22.7 13.4 22.55 13.15 22.0 12.25 M33.85 13.85 L33.85 13.8 33.85 13.85" fill="#000000" fill-rule="evenodd" stroke="none"/>
      <path d="M38.15 11.5 L38.0 11.15 37.95 10.95 37.9 10.75 37.8 10.2 37.8 10.15 37.8 9.95 37.8 9.15 37.35 9.1 36.05 8.75 35.75 8.6 Q34.45 7.9 34.0 6.5 L33.95 6.1 33.9 6.05 33.9 5.9 33.85 4.8 33.85 4.65 33.95 4.2 34.0 4.1 34.05 3.9 34.75 2.65 35.9 1.5 Q34.1 1.2 33.1 -0.05 L33.95 -0.05 34.0 0.0 34.65 0.45 35.95 0.6 36.15 0.6 36.9 0.7 Q39.6 1.45 40.3 2.6 40.65 3.15 40.4 3.9 L40.4 4.0 40.15 4.55 Q39.6 5.5 38.45 5.45 L38.3 5.4 38.25 5.4 Q36.7 5.25 37.1 3.65 L37.4 3.15 37.8 2.85 38.25 2.8 38.45 2.85 39.1 3.35 39.1 3.75 38.95 4.0 38.8 3.65 38.55 3.45 38.4 3.4 38.2 3.4 37.85 3.45 37.65 3.6 37.5 3.9 37.45 4.05 37.5 4.25 37.55 4.45 37.65 4.75 38.2 5.0 38.75 5.05 38.9 5.0 39.2 4.85 39.25 4.8 39.7 4.4 39.75 4.35 39.95 3.8 40.05 3.15 39.5 2.4 38.95 2.2 38.45 2.0 38.45 1.95 38.25 1.85 37.85 1.7 37.5 1.65 37.45 1.65 Q36.85 1.8 36.4 2.1 L35.8 2.6 35.3 3.3 35.1 3.65 34.95 4.0 34.9 4.1 34.85 4.25 34.8 5.75 Q34.95 7.7 36.65 8.15 L37.1 8.25 Q40.15 8.95 42.0 7.15 L42.2 7.0 43.0 6.0 43.5 4.75 43.65 3.95 Q43.6 3.05 43.15 2.1 42.5 0.85 41.15 0.0 L41.85 0.05 42.2 0.1 Q44.0 0.4 45.25 1.25 L43.0 0.5 43.7 1.5 43.8 1.65 44.0 2.0 44.2 2.65 44.3 2.85 44.35 3.05 44.4 3.3 44.4 3.35 44.4 3.5 44.4 3.55 44.4 3.65 44.4 4.05 44.4 4.1 44.4 4.15 Q46.2 5.1 46.75 6.2 47.1 6.95 46.75 8.0 L46.75 8.05 46.45 8.7 Q45.65 10.05 43.9 9.8 L43.8 9.75 43.7 9.75 Q42.1 9.4 42.2 8.15 L41.85 8.4 41.4 8.6 40.25 9.05 39.6 9.15 39.3 9.2 39.05 9.2 39.05 9.8 Q39.05 10.75 39.35 11.5 L39.45 11.7 Q39.95 12.85 41.25 13.3 L42.55 13.7 43.6 13.85 43.45 13.6 43.25 12.65 43.25 12.55 Q43.25 11.65 43.55 11.0 L43.8 10.55 43.9 10.4 44.1 10.4 44.2 10.55 44.2 10.6 44.4 11.0 44.95 11.75 45.3 12.15 45.65 12.4 45.95 12.65 46.15 12.85 46.3 12.95 46.6 13.15 46.75 13.3 46.95 13.45 48.0 12.9 48.0 14.2 47.7 14.35 47.9 14.6 48.0 14.8 48.0 15.8 47.45 14.85 46.05 13.35 46.0 13.25 45.65 13.0 45.1 12.6 44.95 12.35 44.9 12.35 44.85 12.3 44.8 12.25 44.55 12.0 44.6 12.0 44.25 11.5 44.15 11.4 44.05 11.2 44.0 11.05 43.75 11.6 43.75 11.65 43.75 11.8 43.75 11.9 43.75 12.3 Q43.7 12.85 43.8 13.2 L44.05 13.7 44.75 14.3 44.9 14.4 45.25 14.75 46.25 16.2 46.3 16.3 46.55 17.35 46.05 18.2 45.8 18.4 44.25 18.3 44.15 18.2 Q43.65 17.75 43.75 17.3 43.8 16.95 44.2 16.65 L44.6 16.45 45.0 16.45 45.2 16.6 45.35 16.75 45.55 17.35 45.4 17.5 45.2 17.65 45.15 17.65 45.2 17.3 45.2 17.1 45.1 17.0 44.95 16.9 44.7 16.85 44.55 16.85 44.35 16.95 44.25 17.0 44.2 17.25 44.15 17.3 44.05 17.55 44.25 17.9 44.6 18.2 44.75 18.25 45.0 18.25 45.05 18.25 45.45 18.2 45.5 18.15 45.85 17.95 46.2 17.55 46.15 16.9 45.9 16.5 45.75 16.15 45.65 16.0 45.45 15.8 45.25 15.6 45.25 15.55 44.45 15.4 43.8 15.45 43.2 15.7 42.95 15.85 42.7 15.95 42.6 16.0 42.55 16.1 41.95 16.95 Q41.2 18.25 42.05 19.2 L42.5 19.65 Q43.95 21.1 45.7 20.85 L45.9 20.8 46.8 20.55 47.6 20.0 48.0 19.6 48.0 20.4 47.9 20.45 Q46.9 21.3 45.7 21.45 43.85 21.65 42.1 20.05 L42.05 20.1 41.4 19.35 41.25 19.1 Q40.8 18.15 41.1 17.1 L41.2 16.8 41.25 16.8 41.3 16.65 Q41.45 16.25 41.75 15.95 L41.8 15.9 42.05 15.65 42.1 15.6 42.25 15.5 Q42.65 15.2 43.15 15.05 L43.85 14.9 42.1 14.65 40.4 14.0 40.0 13.75 39.5 13.4 39.4 13.3 39.2 13.1 38.85 12.75 38.7 11.7 38.2 11.5 38.15 11.5 M44.3 5.1 L44.2 5.05 44.2 5.1 43.85 6.15 43.8 6.2 43.95 6.25 Q44.75 6.5 45.0 6.9 L45.1 7.1 45.0 7.55 44.8 8.0 44.6 7.4 44.3 7.1 43.8 7.0 43.35 7.05 43.25 7.1 42.9 7.5 42.85 7.55 42.75 7.75 42.8 8.1 42.8 8.3 43.0 8.8 43.65 9.2 44.5 9.35 44.7 9.3 45.05 9.1 45.1 9.05 45.75 8.55 45.8 8.45 46.15 7.8 46.3 6.85 45.7 5.85 44.95 5.45 44.35 5.15 44.3 5.1 M0.05 36.2 L0.05 34.55 0.5 34.2 0.65 34.15 0.55 33.95 0.2 33.05 0.05 32.3 0.05 29.2 0.3 28.5 0.75 27.7 0.9 27.5 0.95 27.35 1.0 27.35 1.15 27.2 1.25 27.1 1.3 27.05 1.4 27.0 1.65 26.8 1.8 26.7 2.0 26.6 2.1 26.6 2.55 26.4 5.4 26.15 Q7.6 26.6 9.0 29.1 L9.05 29.1 9.5 30.25 9.5 30.6 Q9.7 31.75 9.05 32.75 L8.95 32.75 8.95 32.85 9.05 32.75 8.95 32.9 8.7 33.2 8.65 33.25 9.9 33.75 10.35 34.0 Q11.9 35.15 12.45 36.95 L12.55 37.3 12.6 37.9 12.55 37.95 12.6 38.15 12.55 39.75 12.45 40.0 12.4 40.2 14.5 40.9 14.55 40.85 15.8 41.65 16.05 41.95 Q17.1 43.0 17.1 44.5 L17.1 44.65 17.1 45.05 17.1 45.15 17.05 45.3 16.75 46.45 16.65 46.6 16.45 47.05 16.4 47.15 16.25 47.35 15.75 47.9 14.35 47.9 14.8 47.55 15.15 47.2 15.4 46.95 15.5 46.8 15.55 46.7 16.1 45.2 Q16.55 43.1 14.95 42.1 L14.7 41.95 Q11.75 40.2 9.15 41.45 L8.95 41.6 7.9 42.25 6.85 43.4 Q6.6 43.75 6.5 44.2 6.2 45.1 6.4 46.2 6.55 47.05 6.95 47.9 L6.0 47.8 5.75 46.95 5.65 46.5 5.6 46.45 5.45 45.35 5.5 45.15 5.5 45.1 5.45 44.9 5.5 44.9 5.5 44.65 5.5 44.4 5.55 44.4 5.55 44.35 5.6 44.3 Q3.55 43.2 2.95 41.95 2.6 41.2 3.0 40.1 L3.05 40.0 3.35 39.35 3.45 39.2 3.25 39.35 3.15 39.4 3.0 39.4 2.85 39.35 2.85 39.05 2.5 37.55 2.25 36.9 1.95 36.4 1.75 36.15 1.5 35.75 1.35 35.6 1.2 35.35 1.15 35.25 1.1 35.25 0.9 35.45 0.05 36.2 M11.1 47.9 L10.2 47.9 Q9.6 47.25 9.45 46.6 9.35 45.95 9.8 45.25 L9.85 45.25 10.25 44.75 Q11.1 43.8 12.4 44.4 14.0 45.1 13.05 46.55 L12.55 47.0 12.2 47.2 11.6 47.05 11.45 46.95 11.1 46.65 11.05 46.6 10.95 46.45 10.95 46.35 10.9 46.2 11.05 45.85 11.3 45.6 11.35 46.05 11.5 46.35 11.7 46.45 11.9 46.55 12.2 46.6 12.5 46.5 12.75 46.25 12.85 46.1 12.85 45.9 12.85 45.7 12.8 45.25 12.4 44.8 11.75 44.6 11.6 44.6 11.3 44.7 Q11.0 44.8 10.65 45.0 L10.55 45.05 10.2 45.55 9.9 46.2 10.2 47.1 10.8 47.65 11.1 47.9 M5.15 26.9 L3.9 26.8 2.7 27.05 2.0 27.5 Q1.35 27.95 0.95 28.7 0.1 30.45 0.85 32.95 L1.8 35.25 1.85 35.35 2.1 35.8 2.65 36.45 2.75 36.8 2.8 36.85 2.8 36.9 2.85 36.95 3.0 37.35 3.2 38.2 3.25 38.3 3.25 38.5 3.3 38.55 3.3 38.65 3.7 38.15 4.05 37.3 4.1 37.15 4.35 36.35 4.25 35.6 3.7 34.65 3.6 34.5 3.25 33.9 Q2.35 31.6 2.85 30.45 3.05 29.95 3.75 29.7 L3.8 29.7 4.25 29.55 Q5.2 29.4 5.8 30.3 L5.85 30.4 6.0 30.65 6.0 30.7 6.05 30.85 Q6.35 31.8 5.25 32.2 L4.75 32.25 4.35 32.2 4.05 31.85 4.0 31.7 3.95 31.15 4.0 31.0 4.0 30.9 4.25 30.75 4.55 30.7 4.55 30.75 4.35 31.0 4.3 31.3 4.4 31.5 4.55 31.7 4.75 31.85 4.95 31.9 5.2 31.85 5.35 31.8 5.45 31.7 5.6 31.5 5.75 31.2 5.65 30.75 5.35 30.25 5.25 30.2 5.0 30.1 4.45 29.95 4.35 29.95 3.9 30.1 3.35 30.4 3.1 31.15 3.25 31.75 3.35 32.15 3.35 32.2 3.35 32.4 3.5 32.7 3.65 32.95 3.6 33.05 4.5 33.6 5.2 33.7 5.95 33.65 6.5 33.6 6.65 33.55 6.75 33.55 6.85 33.5 Q7.5 33.2 7.95 32.75 9.3 31.6 8.7 30.15 L8.55 29.75 Q7.4 27.25 5.15 26.9 M7.1 34.3 L7.05 34.3 5.85 34.4 4.3 34.25 4.65 35.0 Q5.05 36.05 4.7 37.15 L4.7 37.2 4.35 38.05 4.0 38.65 Q4.8 38.0 6.0 38.25 L6.2 38.3 6.35 38.35 Q8.45 38.8 7.65 40.95 L7.15 41.65 6.55 42.05 5.9 42.0 5.65 41.9 Q4.8 41.5 4.75 41.05 L4.8 40.55 5.1 40.15 5.25 40.75 5.55 41.05 5.85 41.15 6.1 41.2 6.6 41.15 6.9 40.95 7.15 40.6 7.25 40.4 7.2 40.05 7.15 39.8 7.0 39.3 6.3 38.85 5.45 38.7 5.25 38.75 4.85 38.95 4.75 39.0 4.1 39.55 4.0 39.6 3.6 40.35 Q3.35 41.0 3.4 41.3 L4.05 42.4 4.9 42.9 5.55 43.25 5.8 43.4 5.9 43.45 6.0 43.3 6.3 42.85 6.8 42.2 6.95 42.0 7.8 41.2 8.3 40.85 8.85 40.55 9.8 40.25 10.5 40.1 10.9 40.1 11.1 40.1 11.3 38.25 Q11.3 35.4 8.95 34.55 L8.3 34.35 7.5 34.1 7.3 34.2 7.2 34.2 7.1 34.3" fill="#17012b" fill-rule="evenodd" stroke="none"/>
      <path d="M26.2 18.4 L27.0 19.3 27.05 19.3 27.05 19.35 26.95 19.65 26.4 19.25 25.7 19.1 24.25 19.1 Q23.05 19.25 22.3 19.95 L22.95 19.4 Q22.45 19.65 22.1 20.2 L22.2 20.05 22.0 20.3 21.65 20.85 Q21.05 22.05 21.05 23.2 21.05 24.15 21.6 25.25 22.4 26.95 24.0 26.95 25.7 26.95 26.6 26.35 L27.05 26.0 27.5 25.4 27.55 25.5 27.65 25.3 27.7 25.4 Q27.7 26.1 26.95 27.05 26.3 27.9 25.35 28.2 L24.9 28.3 24.8 28.3 24.15 28.35 22.85 28.3 22.8 28.2 21.55 27.9 21.45 27.9 21.35 27.85 21.25 27.8 21.1 27.75 20.45 27.5 19.8 26.95 19.6 26.75 Q18.3 25.5 18.3 23.2 18.3 18.95 22.75 17.45 L24.2 17.45 24.5 17.6 Q25.15 17.7 25.8 18.1 L26.2 18.4 M22.7 17.7 L22.95 17.65 22.75 17.65 22.7 17.7 M25.0 22.1 Q25.0 21.55 25.35 20.9 25.85 19.95 26.85 19.95 L27.0 20.0 27.25 20.0 27.3 20.05 27.5 20.1 Q28.2 20.05 28.7 20.8 L29.05 21.8 Q28.85 24.15 27.2 24.15 26.05 24.15 25.55 23.6 L25.05 22.95 25.0 22.1" fill="#17012b" fill-rule="evenodd" stroke="none"/>
    </g>
  </defs>
</svg>
