<?xml version="1.0" encoding="UTF-8" standalone="no"?>
<svg xmlns:ffdec="https://www.free-decompiler.com/flash" xmlns:xlink="http://www.w3.org/1999/xlink" ffdec:objectType="frame" height="608.25px" width="463.75px" xmlns="http://www.w3.org/2000/svg">
  <g transform="matrix(1.0, 0.0, 0.0, 1.0, -5.15, 34.95)">
    <use ffdec:characterId="363" height="608.25" id="am_Panel" transform="matrix(1.0, 0.0, 0.0, 1.0, 5.15, -34.95)" width="463.75" xlink:href="#sprite0"/>
  </g>
  <defs>
    <g id="sprite0" transform="matrix(1.0, 0.0, 0.0, 1.0, 10.85, 9.15)">
      <use ffdec:characterId="342" height="33.85" id="am_TopLeftGroup" transform="matrix(1.0, 0.0, 0.0, 1.0, -10.85, -9.15)" width="251.3" xlink:href="#sprite1"/>
      <use ffdec:characterId="350" height="44.3" id="am_ExternalLink" transform="matrix(0.7, 0.0, 0.0, 0.7, 242.15, -6.035)" width="301.1" xlink:href="#sprite11"/>
      <use ffdec:characterId="362" height="571.95" id="am_Tooltip" transform="matrix(1.0, 0.0, 0.0, 1.0, 1.55, 27.15)" width="344.1" xlink:href="#sprite17"/>
    </g>
    <g id="sprite1" transform="matrix(1.0, 0.0, 0.0, 1.0, 8.5, 6.75)">
      <use ffdec:characterId="333" height="23.25" id="am_CacheIcon" transform="matrix(1.0, 0.0, 0.0, 1.0, 22.0, 1.5)" width="220.8" xlink:href="#sprite2"/>
      <filter id="filter8">
        <feColorMatrix in="SourceGraphic" result="filterResult0" type="matrix" values="0 0 0 0 0.20784314,0 0 0 0 0.20392157,0 0 0 0 0.18431373,0 0 0 1 0"/>
        <feConvolveMatrix divisor="16.0" in="filterResult0" kernelMatrix="1 1 1 1 1 1 1 1 1 1 1 1 1 1 1 1" order="4 4" result="filterResult1"/>
        <feComposite in="SourceGraphic" in2="filterResult1" operator="over" result="filterResult2"/>
      </filter>
      <use ffdec:characterId="334" filter="url(#filter8)" height="21.65" id="am_Title" transform="matrix(1.0, 0.0, 0.0, 1.0, 34.05, 2.5)" width="199.95" xlink:href="#text0"/>
      <use ffdec:characterId="341" height="33.85" id="am_IconHolder" transform="matrix(1.0, 0.0, 0.0, 1.0, -8.5, -6.75)" width="41.1" xlink:href="#sprite6"/>
    </g>
    <g id="sprite2" transform="matrix(1.0, 0.0, 0.0, 1.0, 0.0, 0.0)">
      <use ffdec:characterId="330" height="61.65" id="am_ProgressBar" transform="matrix(0.2756, 0.0, 0.0, 0.2756, 1.1246, 3.1337)" width="782.8" xlink:href="#sprite3"/>
      <use ffdec:characterId="332" height="23.25" id="am_CacheIcon" transform="matrix(1.0, 0.0, 0.0, 1.0, 0.0, 0.0)" width="220.8" xlink:href="#sprite5"/>
    </g>
    <g id="sprite3" transform="matrix(1.0, 0.0, 0.0, 1.0, -5.35, -49.1)">
      <use ffdec:characterId="329" height="55.5" id="am_CacheIcon" transform="matrix(1.1111, 0.0, 0.0, 1.1111, 5.35, 49.1)" width="704.5" xlink:href="#sprite4"/>
    </g>
    <g id="sprite4" transform="matrix(1.0, 0.0, 0.0, 1.0, 0.0, 0.0)">
      <use ffdec:characterId="328" height="55.5" transform="matrix(1.0, 0.0, 0.0, 1.0, 0.0, 0.0)" width="704.5" xlink:href="#shape0"/>
    </g>
    <g id="shape0" transform="matrix(1.0, 0.0, 0.0, 1.0, 0.0, 0.0)">
      <path d="M698.3 49.25 L698.25 49.3 Q692.1 55.5 683.35 55.5 L21.15 55.5 Q12.4 55.5 6.25 49.3 L6.2 49.25 Q0.0 43.1 0.0 34.35 L0.0 21.15 Q0.0 12.4 6.2 6.25 L6.25 6.2 Q12.4 0.0 21.15 0.0 L683.35 0.0 Q692.1 0.0 698.25 6.2 L698.3 6.25 Q704.5 12.4 704.5 21.15 L704.5 34.35 Q704.5 43.1 698.3 49.25" fill="url(#gradient0)" fill-rule="evenodd" stroke="none"/>
    </g>
    <linearGradient gradientTransform="matrix(-1.0E-4, 0.0339, -0.0339, -1.0E-4, 352.25, 27.75)" gradientUnits="userSpaceOnUse" id="gradient0" spreadMethod="pad" x1="-819.2" x2="819.2">
      <stop offset="0.0" stop-color="#272727"/>
      <stop offset="1.0" stop-color="#6a6a6a"/>
    </linearGradient>
    <g id="sprite5" transform="matrix(1.0, 0.0, 0.0, 1.0, -19.4, -3.3)">
      <use ffdec:characterId="331" height="23.25" transform="matrix(1.0, 0.0, 0.0, 1.0, 19.4, 3.3)" width="220.8" xlink:href="#shape1"/>
    </g>
    <g id="shape1" transform="matrix(1.0, 0.0, 0.0, 1.0, -19.4, -3.3)">
      <path d="M19.4 5.0 L19.4 3.4 230.25 3.4 Q231.0 3.25 231.95 3.4 L232.05 3.4 232.2 3.45 232.25 3.45 232.5 3.35 232.75 3.45 232.8 3.5 232.9 3.5 234.4 3.85 Q235.0 4.15 235.75 4.75 L237.75 6.25 239.05 7.75 Q240.0 9.2 240.0 10.15 L240.0 10.3 240.05 10.5 240.05 10.55 240.0 11.1 240.05 11.1 240.05 12.1 240.15 13.1 240.2 13.1 240.2 19.2 240.15 19.35 239.5 21.3 238.2 23.15 235.95 25.05 235.15 25.35 232.85 26.15 232.4 26.3 232.3 26.3 230.9 26.45 230.15 26.45 229.3 26.45 229.2 26.45 225.8 26.45 224.95 26.45 224.25 26.45 216.75 26.45 216.2 26.45 214.95 26.45 210.95 26.45 210.95 26.5 19.4 26.55 19.4 24.7 171.25 24.7 171.25 24.65 177.2 24.65 181.55 24.65 231.25 24.65 231.45 24.65 231.5 24.6 231.65 24.4 231.95 24.4 Q232.95 24.2 234.3 23.4 L236.15 22.05 237.5 20.55 238.25 18.9 238.25 18.8 238.35 18.4 238.4 18.15 238.4 15.3 Q238.4 12.15 237.9 10.45 L237.85 10.2 237.1 8.9 236.65 8.1 236.25 7.65 Q235.65 6.85 235.05 6.55 L234.7 6.3 Q233.15 5.3 231.3 5.05 L231.2 5.15 230.8 5.0 229.4 4.9 227.95 5.0 220.9 5.0 216.75 5.0 216.2 5.0 214.95 5.0 201.8 5.0 198.55 5.0 195.4 5.0 177.2 5.0 177.0 5.0 175.2 5.0 174.9 5.0 19.4 5.0" fill="#92a387" fill-rule="evenodd" stroke="none"/>
      <path d="M19.4 5.0 L174.9 5.0 175.2 5.0 177.0 5.0 177.2 5.0 195.4 5.0 198.55 5.0 201.8 5.0 214.95 5.0 216.2 5.0 216.75 5.0 220.9 5.0 227.95 5.0 229.4 4.9 230.8 5.0 231.2 5.15 231.3 5.05 Q233.15 5.3 234.7 6.3 L235.05 6.55 Q235.65 6.85 236.25 7.65 L236.65 8.1 237.1 8.9 237.85 10.2 237.9 10.45 Q238.4 12.15 238.4 15.3 L238.4 18.15 238.35 18.4 238.25 18.8 238.25 18.9 238.2 18.9 236.0 18.55 236.15 16.0 236.0 12.85 235.9 11.55 Q235.95 11.0 235.55 10.4 L234.65 8.7 233.45 7.7 Q232.55 7.05 232.1 6.9 L232.0 6.9 231.7 6.8 230.85 6.6 19.4 6.6 19.4 5.0" fill="#6a7c5f" fill-rule="evenodd" stroke="none"/>
      <path d="M238.25 18.9 L237.5 20.55 236.15 22.05 234.3 23.4 Q232.95 24.2 231.95 24.4 L231.65 24.4 231.5 24.6 231.25 24.65 181.55 24.65 177.2 24.65 171.25 24.65 171.25 24.7 19.4 24.7 19.4 23.35 228.9 23.35 229.4 23.3 229.5 23.3 Q231.7 23.3 233.05 22.5 L234.3 21.45 235.8 19.2 236.0 18.55 238.2 18.9 238.25 18.9" fill="#a4b39c" fill-rule="evenodd" stroke="none"/>
    </g>
    <g id="text0" transform="matrix(1.0, 0.0, 0.0, 1.0, 2.0, 2.0)">
      <g transform="matrix(1.0, 0.0, 0.0, 1.0, -2.0, -2.0)">
        <use fill="#eee2bc" height="21.65" transform="matrix(0.0146, 0.0, 0.0, 0.0146, 0.0, 14.45)" width="199.95" xlink:href="#font_HelveticaRounded_LT_Std_Bd_H0"/>
        <use fill="#eee2bc" height="21.65" transform="matrix(0.0146, 0.0, 0.0, 0.0146, 11.65, 14.45)" width="199.95" xlink:href="#font_HelveticaRounded_LT_Std_Bd_e0"/>
        <use fill="#eee2bc" height="21.65" transform="matrix(0.0146, 0.0, 0.0, 0.0146, 20.85, 14.45)" width="199.95" xlink:href="#font_HelveticaRounded_LT_Std_Bd_a0"/>
        <use fill="#eee2bc" height="21.65" transform="matrix(0.0146, 0.0, 0.0, 0.0146, 30.0, 14.45)" width="199.95" xlink:href="#font_HelveticaRounded_LT_Std_Bd_d0"/>
        <use fill="#eee2bc" height="21.65" transform="matrix(0.0146, 0.0, 0.0, 0.0146, 39.15, 14.45)" width="199.95" xlink:href="#font_HelveticaRounded_LT_Std_Bd_l0"/>
        <use fill="#eee2bc" height="21.65" transform="matrix(0.0146, 0.0, 0.0, 0.0146, 43.3, 14.45)" width="199.95" xlink:href="#font_HelveticaRounded_LT_Std_Bd_i0"/>
        <use fill="#eee2bc" height="21.65" transform="matrix(0.0146, 0.0, 0.0, 0.0146, 47.45, 14.45)" width="199.95" xlink:href="#font_HelveticaRounded_LT_Std_Bd_n0"/>
        <use fill="#eee2bc" height="21.65" transform="matrix(0.0146, 0.0, 0.0, 0.0146, 56.6, 14.45)" width="199.95" xlink:href="#font_HelveticaRounded_LT_Std_Bd_e0"/>
      </g>
    </g>
    <g id="font_HelveticaRounded_LT_Std_Bd_H0">
      <path d="M78.0 -70.5 L78.0 -667.0 Q78.5 -705.0 101.0 -728.0 123.0 -750.5 162.0 -751.0 201.0 -750.5 223.0 -728.0 245.5 -705.0 246.0 -667.0 L246.0 -458.0 551.0 -458.0 551.0 -667.0 Q551.5 -705.0 574.0 -728.0 596.0 -750.5 635.0 -751.0 674.0 -750.5 696.0 -728.0 718.5 -705.0 719.0 -667.0 L719.0 -70.5 Q718.5 -32.5 696.0 -9.5 674.0 13.0 635.0 13.5 596.0 13.0 574.0 -9.5 551.5 -32.5 551.0 -70.5 L551.0 -316.5 246.0 -316.5 246.0 -70.5 Q245.5 -32.5 223.0 -9.5 201.0 13.0 162.0 13.5 123.0 13.0 101.0 -9.5 78.5 -32.5 78.0 -70.5" fill-rule="evenodd" stroke="none"/>
    </g>
    <g id="font_HelveticaRounded_LT_Std_Bd_e0">
      <path d="M186.5 -325.5 L448.5 -325.5 Q441.5 -378.0 407.5 -411.0 373.5 -443.5 322.5 -444.5 266.5 -444.0 232.5 -412.5 198.5 -380.5 186.5 -325.5 M524.5 -239.5 L186.5 -239.5 Q187.0 -179.0 223.0 -141.5 259.0 -104.0 324.5 -103.0 366.0 -103.5 390.5 -114.5 415.0 -125.5 431.0 -140.0 446.5 -154.5 461.0 -165.5 476.0 -176.5 497.5 -177.0 525.0 -176.0 542.0 -158.0 558.5 -140.0 559.0 -118.5 558.5 -84.5 535.0 -60.0 512.0 -35.0 475.5 -18.5 439.5 -2.5 399.5 5.5 359.5 13.5 324.5 13.5 246.5 13.0 191.5 -10.5 136.5 -34.0 102.5 -73.5 68.5 -112.5 52.5 -160.5 37.0 -208.5 37.0 -258.0 37.5 -345.5 71.0 -411.0 104.5 -476.0 167.5 -512.0 230.5 -548.5 319.5 -549.0 406.0 -548.0 466.0 -513.0 526.5 -478.0 558.0 -422.0 589.5 -366.5 590.0 -304.0 590.5 -266.5 576.0 -252.5 561.5 -239.0 524.5 -239.5" fill-rule="evenodd" stroke="none"/>
    </g>
    <g id="font_HelveticaRounded_LT_Std_Bd_a0">
      <path d="M406.5 -193.5 L406.5 -252.0 Q393.5 -241.0 374.5 -236.0 356.0 -230.5 342.0 -228.5 L287.5 -220.5 Q240.5 -214.0 216.0 -197.0 191.5 -180.0 191.5 -146.5 192.0 -120.5 213.5 -103.0 235.5 -85.5 274.5 -85.0 315.5 -85.5 345.0 -101.0 374.5 -116.0 390.5 -141.0 406.5 -165.5 406.5 -193.5 M556.0 -395.5 L556.0 -144.5 Q556.5 -113.5 560.0 -96.0 563.5 -78.0 567.5 -66.5 571.0 -55.0 571.5 -44.0 570.5 -18.0 551.0 -2.5 531.5 13.0 504.0 13.5 456.0 12.5 436.5 -13.0 416.5 -38.0 415.5 -73.5 372.0 -26.0 321.0 -6.0 270.0 14.0 211.0 13.5 167.5 13.0 129.5 -5.0 91.0 -23.5 67.0 -58.0 43.0 -92.0 42.0 -139.5 42.5 -200.5 70.5 -236.0 98.5 -271.5 146.0 -288.5 193.0 -305.5 251.0 -311.5 L342.0 -321.5 Q369.5 -323.5 387.5 -334.5 406.0 -345.5 406.5 -377.0 405.5 -409.0 378.0 -424.0 351.0 -438.5 312.5 -438.5 271.5 -438.0 247.0 -425.5 222.5 -413.5 206.5 -397.5 190.5 -381.5 176.0 -369.5 161.0 -357.0 139.5 -356.5 110.5 -357.0 93.5 -373.5 76.0 -390.0 76.0 -414.0 76.0 -444.5 103.5 -475.5 130.5 -506.0 183.5 -527.0 236.5 -548.0 313.5 -549.0 385.5 -549.0 440.0 -533.0 494.5 -517.0 525.0 -483.0 555.5 -449.0 556.0 -395.5" fill-rule="evenodd" stroke="none"/>
    </g>
    <g id="font_HelveticaRounded_LT_Std_Bd_d0">
      <path d="M186.5 -266.0 Q186.5 -221.5 199.5 -185.0 212.5 -148.5 239.0 -126.5 265.5 -104.5 305.5 -103.0 348.5 -103.5 375.0 -126.5 401.5 -149.0 413.5 -186.0 425.5 -223.0 425.0 -266.0 425.5 -305.5 414.5 -344.0 403.5 -382.0 377.0 -407.0 350.5 -432.0 305.5 -432.5 258.0 -431.5 232.0 -405.0 206.0 -378.5 196.0 -340.5 186.0 -302.5 186.5 -266.0 M566.5 -676.0 L566.5 -57.0 Q566.5 -22.5 550.0 -4.5 533.5 13.5 499.0 13.5 466.0 13.5 448.5 -4.5 431.5 -22.5 431.5 -57.0 L431.5 -80.5 429.5 -80.5 Q410.0 -33.0 368.5 -10.0 327.0 13.5 271.5 13.5 208.0 13.5 155.0 -17.5 102.0 -48.0 70.0 -111.5 38.0 -174.5 37.0 -271.5 37.0 -344.5 61.5 -407.0 86.5 -470.0 137.5 -509.0 188.5 -548.0 267.5 -549.0 317.5 -548.5 355.0 -529.0 392.5 -509.5 415.0 -473.5 L417.0 -473.5 417.0 -676.0 Q417.5 -713.0 437.5 -732.0 457.5 -751.0 492.0 -751.0 526.0 -751.0 546.0 -732.0 566.0 -713.0 566.5 -676.0" fill-rule="evenodd" stroke="none"/>
    </g>
    <g id="font_HelveticaRounded_LT_Std_Bd_l0">
      <path d="M67.5 -61.5 L67.5 -676.0 Q68.0 -713.0 88.0 -732.0 108.0 -751.0 142.5 -751.0 176.5 -751.0 196.5 -732.0 216.5 -713.0 217.0 -676.0 L217.0 -61.5 Q216.5 -24.5 196.5 -5.5 176.5 13.5 142.5 13.5 108.0 13.5 88.0 -5.5 68.0 -24.5 67.5 -61.5" fill-rule="evenodd" stroke="none"/>
    </g>
    <g id="font_HelveticaRounded_LT_Std_Bd_i0">
      <path d="M64.5 -677.5 Q65.5 -710.5 87.5 -732.0 109.0 -754.0 142.0 -755.0 175.5 -754.0 197.0 -732.0 219.0 -710.5 220.0 -677.5 219.0 -644.0 197.0 -622.5 175.5 -600.5 142.0 -599.5 109.0 -600.5 87.5 -622.5 65.5 -644.0 64.5 -677.5 M67.5 -61.5 L67.5 -474.0 Q66.5 -505.0 83.0 -526.5 99.5 -548.0 142.5 -549.0 185.0 -548.0 201.5 -526.5 218.0 -505.0 217.0 -474.0 L217.0 -61.5 Q218.0 -30.5 201.5 -9.0 185.0 12.5 142.5 13.5 99.5 12.5 83.0 -9.0 66.5 -30.5 67.5 -61.5" fill-rule="evenodd" stroke="none"/>
    </g>
    <g id="font_HelveticaRounded_LT_Std_Bd_n0">
      <path d="M59.5 -61.5 L59.5 -474.0 Q59.5 -508.5 75.5 -528.5 92.0 -548.5 127.0 -549.0 162.0 -548.5 178.5 -528.5 195.0 -508.5 194.5 -474.0 L194.5 -454.5 196.5 -454.5 Q227.5 -497.0 271.0 -522.5 315.0 -548.0 378.0 -549.0 424.0 -549.5 467.0 -531.5 510.0 -514.0 537.5 -470.5 565.5 -427.5 566.5 -352.5 L566.5 -61.5 Q567.5 -30.5 551.0 -9.0 534.5 12.5 492.0 13.5 449.0 12.5 432.5 -9.0 416.0 -30.5 417.0 -61.5 L417.0 -322.5 Q417.0 -368.5 394.0 -397.0 371.0 -425.5 322.5 -426.0 296.0 -426.0 270.0 -412.0 244.0 -398.5 227.0 -372.0 209.5 -345.5 209.0 -308.0 L209.0 -61.5 Q210.0 -30.5 193.5 -9.0 177.0 12.5 134.5 13.5 91.5 12.5 75.0 -9.0 58.5 -30.5 59.5 -61.5" fill-rule="evenodd" stroke="none"/>
    </g>
    <g id="sprite6" transform="matrix(1.0, 0.0, 0.0, 1.0, 8.0, 4.75)">
      <use ffdec:characterId="340" ffdec:characterName="a_NewsGearIcon" height="33.85" transform="matrix(1.0, 0.0, 0.0, 1.0, -8.0, -4.75)" width="41.1" xlink:href="#sprite7"/>
    </g>
    <g id="sprite7" transform="matrix(1.0, 0.0, 0.0, 1.0, 8.0, 4.75)">
      <use ffdec:characterId="339" height="32.25" transform="matrix(1.05, 0.0, 0.0, 1.05, -8.0, -4.75)" width="39.15" xlink:href="#sprite8"/>
    </g>
    <g id="sprite8" transform="matrix(1.0, 0.0, 0.0, 1.0, 0.0, 0.0)">
      <use ffdec:characterId="336" height="45.15" transform="matrix(0.6121, 0.0, 0.0, 0.6121, 11.5723, 2.7342)" width="45.05" xlink:href="#sprite9"/>
      <use ffdec:characterId="338" height="43.8" transform="matrix(-0.5151, 0.2217, -0.2217, -0.5151, 32.25, 22.55)" width="43.8" xlink:href="#sprite10"/>
    </g>
    <g id="sprite9" transform="matrix(1.0, 0.0, 0.0, 1.0, -8.45, -3.65)">
      <use ffdec:characterId="335" height="45.15" transform="matrix(1.0, 0.0, 0.0, 1.0, 8.45, 3.65)" width="45.05" xlink:href="#shape2"/>
    </g>
    <g id="shape2" transform="matrix(1.0, 0.0, 0.0, 1.0, -8.45, -3.65)">
      <path d="M31.25 34.55 L31.1 34.65 31.15 34.35 31.25 34.55 M29.35 33.6 L29.5 33.5 29.55 33.8 29.35 33.6 M21.1 30.05 L20.85 30.0 20.75 29.85 21.1 30.05 M29.75 38.15 L29.75 38.2 29.65 38.55 29.7 38.15 29.7 38.0 29.75 38.15" fill="#000000" fill-rule="evenodd" stroke="none"/>
      <path d="M41.25 8.6 L38.75 6.75 38.3 6.55 38.15 6.35 37.75 6.0 38.2 6.0 38.3 5.85 38.85 5.45 41.0 5.35 42.7 6.1 43.35 6.55 43.6 6.7 43.7 6.8 43.95 7.15 44.1 7.7 43.9 8.2 43.8 8.3 43.65 8.35 43.4 8.65 42.55 9.15 41.65 8.4 Q41.3 8.3 41.25 8.6 M50.45 18.3 L50.45 18.25 Q52.0 17.55 52.0 19.3 L51.65 20.25 51.25 20.8 51.25 20.95 49.25 21.55 49.25 20.5 49.15 20.4 48.2 20.35 47.95 20.1 49.15 18.95 49.3 19.05 49.35 19.0 50.45 18.3 M19.4 14.3 Q19.7 14.0 20.45 13.8 L20.85 13.7 23.05 13.6 24.1 13.75 25.6 14.25 Q26.8 14.85 26.8 15.85 L27.0 16.05 26.95 16.1 26.75 16.05 26.65 16.4 26.6 16.45 25.85 16.85 25.75 16.85 24.1 17.05 23.4 16.95 23.0 16.85 Q21.45 15.45 19.3 15.25 L19.5 15.15 19.3 14.65 19.4 14.3 M45.9 28.55 L46.3 29.75 46.3 30.1 46.2 30.75 46.1 31.0 45.65 31.2 Q45.1 31.2 44.95 30.55 L44.85 29.85 44.4 29.15 43.85 28.5 43.8 28.5 43.55 28.6 Q43.1 28.6 42.6 28.1 L42.3 27.85 42.25 27.75 42.15 27.55 42.1 27.2 42.1 27.15 42.35 27.15 42.8 26.95 43.95 27.05 44.2 27.15 Q45.1 27.5 45.65 28.2 L45.9 28.55 M30.05 27.3 L30.45 27.15 31.5 27.1 31.9 27.1 32.75 27.1 Q33.4 27.1 33.4 27.9 L33.15 29.1 32.7 29.6 32.0 29.85 30.9 30.2 30.65 30.2 30.6 29.35 30.4 29.05 29.6 28.6 29.45 28.35 Q29.45 27.6 30.05 27.3" fill="#fbfbf9" fill-rule="evenodd" stroke="none"/>
      <path d="M43.7 6.8 L43.6 6.7 43.35 6.55 42.7 6.1 41.0 5.35 38.85 5.45 38.3 5.85 38.2 6.0 37.75 6.0 38.15 6.35 38.3 6.55 38.75 6.75 41.25 8.6 41.25 8.8 41.6 9.45 42.45 10.8 Q43.75 12.95 44.15 14.85 L44.4 16.4 44.7 17.9 Q44.9 18.7 46.15 19.65 47.3 20.55 47.9 20.55 L48.15 20.5 48.2 20.35 49.15 20.4 49.25 20.5 49.25 21.55 Q49.1 23.05 49.5 24.5 L49.6 24.75 49.05 25.1 Q48.5 25.2 48.0 25.6 47.35 26.1 46.6 25.8 L46.65 25.55 Q47.65 25.2 48.3 24.35 L47.85 21.25 47.3 21.05 45.3 19.95 Q43.9 18.85 43.65 17.05 L43.55 16.45 43.25 14.1 41.95 10.85 41.8 10.65 41.25 9.85 40.05 8.55 39.6 8.2 38.3 7.6 38.0 7.35 35.5 7.2 34.9 7.5 34.8 7.45 34.6 7.1 Q36.45 4.55 39.85 4.85 44.7 5.2 46.9 9.5 48.15 11.9 48.8 14.55 49.5 17.35 52.35 17.9 L52.35 25.8 51.15 26.05 51.25 20.95 51.25 20.8 51.65 20.25 52.0 19.3 Q52.0 17.55 50.45 18.25 L50.45 18.3 49.75 17.65 Q48.75 16.6 47.9 14.9 L47.7 14.1 47.2 12.55 47.05 12.15 46.9 11.75 46.8 11.55 46.3 10.25 46.05 9.85 44.4 7.4 43.7 6.8 M44.2 9.45 L44.25 9.55 44.05 9.55 44.2 9.45 M46.9 15.4 L47.3 16.35 Q48.2 18.2 49.15 18.95 L47.95 20.1 47.5 19.7 46.6 19.1 Q45.45 18.3 45.45 17.55 L45.3 16.0 46.9 15.4 M30.5 22.55 L30.5 22.85 Q30.25 25.7 33.0 26.45 L33.75 26.75 33.75 27.55 33.9 30.35 33.9 30.65 33.9 31.6 34.4 31.15 35.4 30.9 35.65 30.9 35.85 31.35 35.65 31.55 Q34.45 32.4 33.05 32.75 L32.9 32.8 32.7 29.6 33.15 29.1 33.4 27.9 Q33.4 27.1 32.75 27.1 L31.9 27.1 31.2 26.65 Q30.05 25.75 29.7 24.6 L29.6 23.1 29.45 21.55 Q29.1 19.0 27.85 17.05 L27.8 17.0 27.65 16.65 27.45 16.5 27.05 16.15 27.0 16.05 26.8 15.85 Q26.8 14.85 25.6 14.25 L24.1 13.75 23.05 13.6 20.85 13.7 22.9 13.2 23.35 13.3 24.1 13.4 Q28.35 14.3 29.7 18.55 L29.75 18.75 Q30.3 20.4 30.45 22.1 L30.5 22.55 M51.05 26.4 L51.15 28.2 51.05 28.2 51.0 28.25 50.3 28.55 50.25 28.6 49.15 28.9 49.1 28.9 49.1 28.55 49.0 27.3 49.35 27.05 49.9 26.8 50.7 26.55 51.05 26.4 M30.1 47.65 Q26.65 47.4 24.0 44.85 L23.2 44.35 15.4 41.05 Q12.75 39.95 10.45 38.35 L10.6 38.2 Q11.1 34.2 11.0 30.25 11.6 31.15 12.5 31.15 L12.55 31.15 12.55 31.5 12.5 32.3 12.5 34.45 12.5 36.1 12.5 37.15 12.55 37.85 28.4 44.6 28.35 38.7 28.35 37.75 29.7 38.15 29.65 38.55 29.75 38.2 29.75 38.15 30.05 38.15 30.5 38.0 30.7 37.6 30.55 37.15 30.45 36.75 30.6 36.05 30.8 35.55 30.65 35.3 30.85 35.2 32.45 34.9 32.4 37.25 Q31.4 38.0 30.5 38.0 L30.4 44.25 30.05 47.4 30.0 47.15 29.9 47.25 30.1 47.65 M10.85 27.2 L10.8 26.95 10.25 26.45 9.85 26.35 9.75 26.35 9.7 25.85 Q9.35 22.5 10.25 19.55 L10.4 19.65 10.9 19.65 11.05 19.55 11.15 19.55 12.5 18.75 12.75 18.85 13.0 18.75 13.6 19.1 14.45 18.9 Q16.45 15.8 19.4 14.3 L19.3 14.65 19.5 15.15 19.3 15.25 Q21.45 15.45 23.0 16.85 L23.35 17.2 24.1 18.1 24.5 18.7 25.1 19.95 25.9 21.35 26.15 23.1 26.45 23.95 26.5 24.1 26.5 24.4 26.6 24.75 26.85 24.8 Q27.5 24.8 28.75 23.85 28.8 24.7 29.0 25.35 29.35 26.65 30.05 27.3 29.45 27.6 29.45 28.35 L29.6 28.6 30.4 29.05 30.6 29.35 30.65 30.2 30.65 34.7 30.6 35.25 30.3 35.1 29.3 34.65 28.05 34.45 22.45 32.2 15.75 29.35 12.7 27.9 12.7 28.0 12.6 27.85 11.6 27.3 10.85 27.2 M26.6 17.45 L26.6 17.6 26.25 17.75 26.6 17.45 M25.6 24.65 Q25.4 22.0 24.1 19.95 23.05 18.3 21.35 17.1 L20.85 16.75 20.7 16.8 Q18.4 16.0 16.65 17.75 15.9 18.5 15.5 19.5 14.35 22.2 11.4 21.25 L11.1 21.15 11.2 22.5 11.2 22.8 11.35 24.95 13.55 25.7 14.1 25.85 21.5 28.65 Q23.5 29.5 25.3 30.6 L25.5 30.75 25.6 30.75 25.7 30.85 25.75 30.85 25.75 30.9 25.85 30.95 25.95 30.95 25.95 31.0 28.8 31.95 29.45 32.0 29.45 31.45 29.4 29.95 29.4 29.1 29.45 28.8 27.1 28.0 26.85 27.75 Q25.8 26.4 25.6 24.65 M21.1 30.05 L20.75 29.85 20.85 30.0 21.1 30.05 M29.35 33.6 L29.55 33.8 29.5 33.5 29.35 33.6" fill="#af8f20" fill-rule="evenodd" stroke="none"/>
      <path d="M41.25 8.6 Q41.3 8.3 41.65 8.4 L42.55 9.15 43.4 8.65 43.65 8.35 43.8 8.3 44.55 9.25 Q44.45 9.35 44.3 9.4 L44.25 9.4 44.25 9.45 44.2 9.45 44.05 9.55 43.45 10.45 Q44.3 11.95 44.85 14.05 L46.3 13.7 46.9 15.4 45.3 16.0 45.45 17.55 Q45.45 18.3 46.6 19.1 L47.5 19.7 47.95 20.1 48.2 20.35 48.15 20.5 47.9 20.55 Q47.3 20.55 46.15 19.65 44.9 18.7 44.7 17.9 L44.4 16.4 44.15 14.85 Q43.75 12.95 42.45 10.8 L41.6 9.45 41.25 8.8 41.25 8.6 M43.95 7.15 L43.7 6.8 44.4 7.4 46.05 9.85 46.8 11.55 46.9 11.75 47.05 12.15 47.2 12.55 47.7 14.1 47.9 14.9 46.95 12.35 45.5 9.05 Q44.9 8.0 43.95 7.15 M51.25 20.95 L51.15 26.05 51.05 26.25 49.9 26.8 49.35 27.05 49.0 27.25 45.9 28.55 45.65 28.2 Q45.1 27.5 44.2 27.15 L43.95 27.05 44.4 26.85 46.6 25.8 Q47.35 26.1 48.0 25.6 48.5 25.2 49.05 25.1 L49.6 24.75 49.5 24.5 Q49.1 23.05 49.25 21.55 L51.25 20.95 M35.65 31.55 L35.6 31.7 35.8 33.2 32.45 34.9 30.85 35.2 30.6 35.25 30.65 34.7 30.65 30.2 30.9 30.2 32.0 29.85 32.7 29.6 32.9 32.8 33.05 32.75 Q34.45 32.4 35.65 31.55 M26.95 16.1 L27.0 16.05 27.05 16.15 27.0 16.1 26.95 16.1 M26.6 16.45 L26.6 16.5 26.8 17.25 26.6 17.45 26.25 17.75 25.05 19.35 25.0 19.4 25.45 20.25 25.45 20.3 25.6 20.6 24.5 18.7 24.1 18.1 23.35 17.2 23.0 16.85 23.4 16.95 24.1 17.05 25.75 16.85 25.85 16.85 26.6 16.45 M26.45 23.95 L26.45 23.7 26.75 23.4 27.05 23.1 28.65 22.4 28.7 23.45 28.75 23.85 Q27.5 24.8 26.85 24.8 L26.6 24.75 26.5 24.4 26.75 24.25 26.9 24.3 26.5 24.1 26.45 23.95 M31.25 34.55 L31.15 34.35 31.1 34.65 31.25 34.55" fill="#feeb61" fill-rule="evenodd" stroke="none"/>
      <path d="M43.8 8.3 L43.9 8.2 44.1 7.7 43.95 7.15 Q44.9 8.0 45.5 9.05 L46.95 12.35 47.9 14.9 Q48.75 16.6 49.75 17.65 L50.45 18.3 49.35 19.0 49.3 19.05 49.15 18.95 Q48.2 18.2 47.3 16.35 L46.9 15.4 46.3 13.7 44.85 14.05 Q44.3 11.95 43.45 10.45 L44.05 9.55 44.25 9.55 44.2 9.45 44.25 9.45 44.25 9.4 44.3 9.4 Q44.45 9.35 44.55 9.25 L43.8 8.3 M51.15 28.2 L51.65 38.0 50.95 38.3 Q50.55 37.0 50.35 33.6 L50.25 29.85 50.25 28.6 50.3 28.55 51.0 28.25 51.05 28.2 51.15 28.2 M32.25 43.65 L32.2 44.5 32.65 44.3 33.05 44.15 35.55 43.1 35.6 43.3 35.35 43.75 34.85 43.8 33.65 44.3 31.75 44.8 Q31.45 44.8 31.35 44.6 L31.3 44.4 31.45 40.35 Q32.0 39.8 32.1 40.45 L32.1 41.1 32.1 41.6 32.1 43.65 32.1 43.7 32.25 43.65 M26.6 16.45 L26.65 16.4 26.75 16.05 26.95 16.1 27.0 16.1 27.05 16.15 27.45 16.5 27.65 16.65 27.8 17.0 27.85 17.05 Q29.1 19.0 29.45 21.55 L29.6 23.1 29.7 24.6 Q30.05 25.75 31.2 26.65 L31.9 27.1 31.5 27.1 30.45 27.15 30.05 27.3 Q29.35 26.65 29.0 25.35 28.8 24.7 28.75 23.85 L28.7 23.45 28.65 22.4 27.05 23.1 26.4 23.4 26.45 23.7 26.45 23.95 26.15 23.1 25.9 21.35 25.1 19.95 24.5 18.7 25.6 20.6 25.45 20.3 25.55 20.3 25.45 20.25 25.0 19.4 25.05 19.35 26.25 17.75 26.6 17.6 26.6 17.45 26.8 17.25 26.6 16.5 26.6 16.45" fill="#fedf05" fill-rule="evenodd" stroke="none"/>
      <path d="M41.25 9.85 L41.8 10.65 41.3 10.5 41.25 9.85 M22.9 13.2 L23.3 13.0 23.35 13.3 22.9 13.2 M37.35 28.1 L36.65 28.9 36.7 28.45 36.7 28.4 37.35 28.1 M33.9 30.65 L33.9 30.35 33.95 30.5 33.9 30.65 M35.35 29.9 L35.3 29.75 35.4 29.75 35.4 30.25 35.35 29.9" fill="#95692f" fill-rule="evenodd" stroke="none"/>
      <path d="M46.05 9.85 L46.3 10.25 46.8 11.55 46.05 9.85" fill="#fee116" fill-rule="evenodd" stroke="none"/>
      <path d="M51.05 26.25 L51.05 26.4 50.7 26.55 49.9 26.8 51.05 26.25 M50.95 38.3 L49.95 38.7 Q45.7 40.5 41.6 42.6 L34.65 46.0 Q32.45 47.05 30.1 47.65 L29.9 47.25 30.0 47.15 30.05 47.4 30.4 44.25 30.5 38.0 Q31.4 38.0 32.4 37.25 L32.25 42.3 32.25 43.65 32.1 43.7 32.1 43.65 32.1 41.6 32.1 41.1 32.1 40.45 Q32.0 39.8 31.45 40.35 L31.3 44.4 31.35 44.6 Q31.45 44.8 31.75 44.8 L33.65 44.3 34.85 43.8 35.35 43.75 35.6 43.3 35.55 43.1 39.45 41.55 Q43.35 40.0 47.0 37.9 48.25 37.15 49.65 36.65 L49.55 35.75 49.1 28.9 49.15 28.9 50.25 28.6 50.25 29.85 50.35 33.6 Q50.55 37.0 50.95 38.3 M49.35 27.05 L49.0 27.3 49.0 27.25 49.35 27.05 M46.1 31.0 Q46.0 32.15 45.15 33.1 L45.0 33.2 Q44.9 34.95 45.35 36.65 L45.3 36.5 39.85 38.8 39.95 34.35 Q36.35 32.05 39.4 28.7 40.55 27.4 42.1 27.15 L42.1 27.2 42.15 27.55 42.25 27.75 42.3 27.85 42.6 28.1 Q43.1 28.6 43.55 28.6 L43.8 28.5 43.85 28.5 44.4 29.15 44.85 29.85 44.95 30.55 Q45.1 31.2 45.65 31.2 L46.1 31.0 M43.75 35.0 Q44.05 34.05 43.6 32.6 45.45 29.0 43.5 28.95 41.2 29.45 40.1 31.45 40.2 32.8 41.7 33.0 L41.5 35.75 Q42.55 35.1 43.75 35.0 M30.65 35.3 L30.6 35.35 30.6 35.25 30.85 35.2 30.65 35.3" fill="#e3cd53" fill-rule="evenodd" stroke="none"/>
      <path d="M11.2 22.8 L11.3 22.75 11.8 22.85 Q12.1 23.15 12.2 23.95 12.25 24.65 13.15 25.35 L13.55 25.7 11.35 24.95 11.2 22.8 M15.3 23.1 L15.5 23.05 15.7 23.1 15.8 23.15 15.7 23.25 15.5 23.25 15.3 23.25 15.2 23.15 15.3 23.1" fill="#231a0c" fill-rule="evenodd" stroke="none"/>
      <path d="M39.85 38.8 L41.0 38.55 40.95 38.7 Q39.6 39.85 38.1 38.95 L36.9 35.05 Q36.65 34.0 35.8 33.2 L35.6 31.7 35.65 31.55 35.85 31.35 35.65 30.9 35.95 30.1 36.65 28.9 37.35 28.1 Q39.3 26.15 42.4 26.15 L42.8 26.2 42.85 26.2 44.4 26.85 43.95 27.05 42.8 26.95 42.35 27.15 42.1 27.15 Q40.55 27.4 39.4 28.7 36.35 32.05 39.95 34.35 L39.85 38.8 M43.75 35.0 Q42.55 35.1 41.5 35.75 L41.7 33.0 Q40.2 32.8 40.1 31.45 41.2 29.45 43.5 28.95 45.45 29.0 43.6 32.6 44.05 34.05 43.75 35.0 M39.9 38.8 L40.0 38.85 Q40.55 38.85 39.9 38.8" fill="#37314d" fill-rule="evenodd" stroke="none"/>
      <path d="M12.5 36.1 L12.5 34.45 12.6 34.55 Q13.35 35.35 12.5 36.1 M28.8 31.95 L28.9 31.95 29.4 31.5 29.45 31.45 29.45 32.0 28.8 31.95" fill="#382812" fill-rule="evenodd" stroke="none"/>
      <path d="M25.45 20.25 L25.55 20.3 25.45 20.3 25.45 20.25" fill="#eeedf3" fill-rule="evenodd" stroke="none"/>
      <path d="M26.5 24.1 L26.9 24.3 26.75 24.25 26.5 24.4 26.5 24.1 M34.4 31.15 Q34.85 30.65 35.5 30.85 L35.65 30.9 35.4 30.9 34.4 31.15" fill="#dddae7" fill-rule="evenodd" stroke="none"/>
      <path d="M26.45 23.7 L26.4 23.4 27.05 23.1 26.75 23.4 26.45 23.7" fill="#8b7dac" fill-rule="evenodd" stroke="none"/>
      <path d="M11.0 30.25 L10.85 27.2 11.6 27.3 12.6 27.85 12.7 28.0 12.55 31.15 12.5 31.15 Q11.6 31.15 11.0 30.25 M28.05 34.45 L29.3 34.65 30.3 35.1 30.6 35.25 30.6 35.35 30.65 35.3 30.8 35.55 30.6 36.05 30.45 36.75 30.55 37.15 30.7 37.6 30.5 38.0 30.05 38.15 29.75 38.15 29.7 38.0 29.7 38.15 28.35 37.75 28.35 34.6 28.05 34.45" fill="#95791c" fill-rule="evenodd" stroke="none"/>
      <path d="M39.9 38.8 Q40.55 38.85 40.0 38.85 L39.9 38.8" fill="#cfcadd" fill-rule="evenodd" stroke="none"/>
      <path d="M51.15 26.05 L52.35 25.8 52.35 17.9 Q49.5 17.35 48.8 14.55 48.15 11.9 46.9 9.5 44.7 5.2 39.85 4.85 36.45 4.55 34.6 7.1 L32.1 8.4 25.95 11.5 23.3 13.0 22.9 13.2 20.85 13.7 20.45 13.8 Q19.7 14.0 19.4 14.3 16.45 15.8 14.45 18.9 L13.6 19.1 13.0 18.75 12.75 18.85 12.5 18.75 11.15 19.55 11.05 19.55 10.9 19.65 10.4 19.65 10.25 19.55 Q9.35 22.5 9.7 25.85 L9.75 26.35 9.85 26.35 10.25 26.45 10.8 26.95 10.85 27.2 11.0 30.25 Q11.1 34.2 10.6 38.2 L10.45 38.35 Q12.75 39.95 15.4 41.05 L23.2 44.35 24.0 44.85 Q26.65 47.4 30.1 47.65 32.45 47.05 34.65 46.0 L41.6 42.6 Q45.7 40.5 49.95 38.7 L50.95 38.3 51.65 38.0 51.15 28.2 51.05 26.4 51.05 26.25 51.15 26.05 M53.2 17.15 L53.2 17.2 53.5 17.9 53.5 25.8 53.25 26.5 Q53.0 26.8 52.6 26.9 L52.25 27.0 52.8 37.9 52.6 38.6 52.6 38.65 52.2 39.0 52.1 39.05 51.4 39.35 51.3 39.35 50.45 39.75 50.4 39.75 Q46.2 41.55 42.15 43.65 L42.1 43.65 35.15 47.05 Q32.85 48.1 30.45 48.75 L30.4 48.75 30.05 48.8 30.0 48.8 Q26.2 48.5 23.2 45.7 L23.2 45.65 22.8 45.4 22.75 45.4 15.0 42.1 14.95 42.1 Q12.25 40.95 9.85 39.3 L9.8 39.3 9.35 38.75 9.35 38.7 9.3 38.15 9.3 38.1 9.5 37.65 Q9.95 34.0 9.85 30.25 L9.7 27.5 9.0 27.2 8.95 27.2 8.6 26.5 8.55 25.85 Q8.2 22.3 9.15 19.25 L9.15 19.2 9.45 18.7 9.5 18.7 9.5 18.65 Q9.75 18.45 10.05 18.4 L10.15 18.4 10.65 18.45 10.8 18.4 11.9 17.75 11.95 17.75 12.4 17.6 12.7 17.65 13.0 17.6 Q13.25 17.6 13.5 17.75 L13.55 17.75 13.8 17.9 Q15.8 14.9 18.75 13.4 19.15 12.95 20.2 12.7 L20.55 12.6 22.5 12.15 25.35 10.5 25.4 10.45 25.4 10.5 33.85 6.2 Q36.0 3.35 39.9 3.7 45.4 4.1 47.95 8.95 49.25 11.5 49.95 14.3 50.45 16.35 52.55 16.8 52.95 16.85 53.2 17.15 M10.7 18.8 L10.7 18.55 10.35 18.75 10.6 19.0 10.5 19.15 10.65 19.2 10.65 19.1 10.7 19.15 10.7 18.95 10.75 18.7 10.7 18.8 M9.8 27.5 L9.75 27.45 9.75 27.5 9.8 27.5" fill="#55450f" fill-rule="evenodd" stroke="none"/>
      <path d="M15.5 19.5 Q15.9 18.5 16.65 17.75 18.4 16.0 20.7 16.8 L20.85 16.75 21.35 17.1 Q23.05 18.3 24.1 19.95 25.4 22.0 25.6 24.65 L25.2 24.8 24.85 25.05 24.65 25.3 24.5 25.5 24.1 25.3 23.7 25.2 23.05 25.2 22.9 25.3 22.8 25.65 23.05 25.85 23.1 25.9 Q24.95 27.25 27.1 28.0 L29.45 28.8 29.4 29.1 29.4 29.95 29.2 29.95 Q28.8 29.95 28.55 30.2 28.3 30.45 28.35 30.85 L27.5 30.55 26.3 30.25 Q25.95 30.25 25.65 30.55 L25.5 30.75 25.3 30.6 Q23.5 29.5 21.5 28.65 L14.1 25.85 13.55 25.7 13.15 25.35 Q12.25 24.65 12.2 23.95 12.1 23.15 11.8 22.85 L11.3 22.75 11.2 22.8 11.2 22.5 16.75 22.7 16.95 22.5 15.5 19.5 M20.8 20.15 L20.85 20.0 Q19.1 19.1 17.25 19.1 L17.15 19.15 17.15 19.25 19.5 20.8 Q21.75 21.8 24.1 22.3 L25.0 22.45 25.05 22.2 20.8 20.15 M15.3 23.1 L15.2 23.15 15.3 23.25 15.5 23.25 15.7 23.25 15.8 23.15 15.7 23.1 15.5 23.05 15.3 23.1 M12.5 32.3 L12.55 31.5 13.4 30.9 25.95 35.75 28.35 38.7 28.4 44.6 12.55 37.85 12.5 37.15 13.3 37.1 13.5 36.9 14.45 35.9 Q17.95 37.25 21.3 37.35 L20.75 36.8 Q17.6 35.7 14.65 34.2 L13.25 34.1 13.1 33.25 Q13.05 32.45 12.5 32.3" fill="#381212" fill-rule="evenodd" stroke="none"/>
      <path d="M49.0 27.3 L49.1 28.55 Q47.8 29.8 46.3 29.75 L45.9 28.55 49.0 27.25 49.0 27.3 M38.1 38.95 Q36.45 38.05 36.45 35.8 L36.4 35.45 36.2 35.35 34.25 36.45 33.0 36.75 33.0 38.7 Q33.65 38.3 34.35 38.5 L34.45 38.55 34.55 38.8 33.5 40.05 33.1 40.35 Q33.35 41.55 32.4 42.2 L32.25 42.3 32.4 37.25 32.45 34.9 35.8 33.2 Q36.65 34.0 36.9 35.05 L38.1 38.95 M49.55 35.75 Q49.15 35.3 49.05 34.6 L48.9 33.9 48.1 34.2 47.5 34.05 47.4 33.65 Q49.4 32.25 48.85 29.75 48.75 29.3 49.1 28.9 L49.55 35.75 M15.5 19.5 L16.95 22.5 16.75 22.7 11.2 22.5 11.1 21.15 11.4 21.25 Q14.35 22.2 15.5 19.5 M25.5 30.75 L25.65 30.55 Q25.95 30.25 26.3 30.25 L27.5 30.55 28.35 30.85 Q28.3 30.45 28.55 30.2 28.8 29.95 29.2 29.95 L29.4 29.95 29.45 31.45 29.4 31.5 28.9 31.95 28.8 31.95 25.95 31.0 25.95 30.95 25.85 30.95 25.75 30.9 25.75 30.85 25.7 30.85 25.6 30.75 25.5 30.75 M27.1 28.0 Q24.95 27.25 23.1 25.9 L23.05 25.85 22.8 25.65 22.9 25.3 23.05 25.2 23.7 25.2 24.1 25.3 24.5 25.5 24.65 25.3 24.85 25.05 25.2 24.8 25.6 24.65 Q25.8 26.4 26.85 27.75 L27.1 28.0 M20.8 20.15 L25.05 22.2 25.0 22.45 24.1 22.3 Q21.75 21.8 19.5 20.8 L17.15 19.25 17.15 19.15 17.25 19.1 Q19.1 19.1 20.85 20.0 L20.8 20.15 M12.7 28.0 L12.7 27.9 15.75 29.35 22.45 32.2 28.05 34.45 28.35 34.6 28.35 37.75 28.35 38.7 25.95 35.75 13.4 30.9 12.55 31.5 12.55 31.15 12.7 28.0 M12.5 36.1 Q13.35 35.35 12.6 34.55 L12.5 34.45 12.5 32.3 Q13.05 32.45 13.1 33.25 L13.25 34.1 14.65 34.2 Q17.6 35.7 20.75 36.8 L21.3 37.35 Q17.95 37.25 14.45 35.9 L13.5 36.9 13.3 37.1 12.5 37.15 12.5 36.1" fill="#230c0c" fill-rule="evenodd" stroke="none"/>
      <path d="M38.3 7.6 L39.6 8.2 40.05 8.55 Q39.8 9.7 40.7 10.6 L37.5 12.8 37.6 12.95 Q39.1 12.95 40.8 12.0 L41.2 12.0 Q42.45 12.85 43.25 14.1 L43.55 16.45 43.05 16.2 Q42.55 17.35 43.4 18.65 L41.9 20.2 41.95 20.35 45.3 19.95 47.3 21.05 47.0 22.05 45.6 22.7 Q43.8 23.55 42.8 24.2 L40.9 25.55 40.2 25.65 Q39.6 25.8 37.95 26.55 36.55 27.2 36.2 27.65 L35.25 27.8 34.55 28.15 33.75 27.55 33.75 26.75 33.0 26.45 33.2 26.35 33.4 26.2 33.55 26.0 33.65 25.65 33.55 25.1 36.5 23.35 37.4 23.3 Q39.35 22.2 40.95 20.6 L40.65 20.45 Q36.35 22.15 32.25 24.25 L32.05 24.0 Q31.45 23.1 30.5 22.55 L30.45 22.1 Q30.3 20.4 29.75 18.75 29.95 17.7 30.65 16.9 L31.3 16.25 Q31.2 15.35 30.2 15.25 L28.65 15.05 28.1 14.25 Q26.95 13.15 25.4 12.75 L25.95 11.5 32.1 8.4 32.25 8.55 38.3 7.6" fill="#952f2f" fill-rule="evenodd" stroke="none"/>
      <path d="M34.6 7.1 L34.8 7.45 34.9 7.5 35.5 7.2 38.0 7.35 38.3 7.6 32.25 8.55 32.1 8.4 34.6 7.1 M40.05 8.55 L41.25 9.85 41.3 10.5 41.8 10.65 41.95 10.85 43.25 14.1 Q42.45 12.85 41.2 12.0 L40.8 12.0 Q39.1 12.95 37.6 12.95 L37.5 12.8 40.7 10.6 Q39.8 9.7 40.05 8.55 M43.55 16.45 L43.65 17.05 Q43.9 18.85 45.3 19.95 L41.95 20.35 41.9 20.2 43.4 18.65 Q42.55 17.35 43.05 16.2 L43.55 16.45 M47.3 21.05 L47.85 21.25 48.3 24.35 Q47.65 25.2 46.65 25.55 L46.6 25.8 44.4 26.85 42.85 26.2 42.8 26.2 42.4 26.15 Q39.3 26.15 37.35 28.1 L36.7 28.4 36.7 28.45 36.65 28.9 35.95 30.1 35.65 30.9 35.5 30.85 Q34.85 30.65 34.4 31.15 L33.9 31.6 33.9 30.65 33.95 30.5 33.9 30.35 33.75 27.55 34.55 28.15 35.25 27.8 36.2 27.65 Q36.55 27.2 37.95 26.55 39.6 25.8 40.2 25.65 L40.9 25.55 42.8 24.2 Q43.8 23.55 45.6 22.7 L47.0 22.05 47.3 21.05 M30.5 22.55 Q31.45 23.1 32.05 24.0 L32.25 24.25 Q36.35 22.15 40.65 20.45 L40.95 20.6 Q39.35 22.2 37.4 23.3 L36.5 23.35 33.55 25.1 33.65 25.65 33.55 26.0 33.4 26.2 33.2 26.35 33.0 26.45 Q30.25 25.7 30.5 22.85 L30.5 22.55 M23.3 13.0 L25.95 11.5 25.4 12.75 Q26.95 13.15 28.1 14.25 L28.65 15.05 30.2 15.25 Q31.2 15.35 31.3 16.25 L30.65 16.9 Q29.95 17.7 29.75 18.75 L29.7 18.55 Q28.35 14.3 24.1 13.4 L23.35 13.3 23.3 13.0 M35.35 29.9 L35.4 30.25 35.4 29.75 35.3 29.75 35.35 29.9" fill="#672121" fill-rule="evenodd" stroke="none"/>
      <path d="M49.1 28.55 L49.1 28.9 Q48.75 29.3 48.85 29.75 49.4 32.25 47.4 33.65 L47.5 34.05 48.1 34.2 48.9 33.9 49.05 34.6 Q49.15 35.3 49.55 35.75 L49.65 36.65 Q48.25 37.15 47.0 37.9 43.35 40.0 39.45 41.55 L35.55 43.1 33.05 44.15 32.65 44.3 32.2 44.5 32.25 43.65 32.25 42.3 32.4 42.2 Q33.35 41.55 33.1 40.35 L33.5 40.05 34.55 38.8 34.45 38.55 34.35 38.5 Q33.65 38.3 33.0 38.7 L33.0 36.75 34.25 36.45 36.2 35.35 36.4 35.45 36.45 35.8 Q36.45 38.05 38.1 38.95 39.6 39.85 40.95 38.7 L41.0 38.55 39.85 38.8 45.3 36.5 45.35 36.65 Q44.9 34.95 45.0 33.2 L45.15 33.1 Q46.0 32.15 46.1 31.0 L46.2 30.75 46.3 30.1 46.3 29.75 Q47.8 29.8 49.1 28.55" fill="#6a2222" fill-rule="evenodd" stroke="none"/>
    </g>
    <g id="sprite10" transform="matrix(1.0, 0.0, 0.0, 1.0, 0.0, 0.0)">
      <use ffdec:characterId="337" height="43.8" transform="matrix(1.0, 0.0, 0.0, 1.0, 0.0, 0.0)" width="43.8" xlink:href="#shape3"/>
    </g>
    <g id="shape3" transform="matrix(1.0, 0.0, 0.0, 1.0, 0.0, 0.0)">
      <path d="M2.55 21.75 L2.5 21.65 2.6 21.55 2.65 21.55 2.65 21.6 2.55 21.75 M4.3 21.5 L4.65 21.15 5.4 21.05 5.6 21.3 5.6 21.35 6.65 22.65 7.3 23.2 9.95 25.2 Q11.7 26.2 13.4 26.45 L13.85 26.65 14.2 26.85 14.25 26.95 14.35 27.15 14.4 27.25 14.35 27.35 14.25 27.5 14.05 27.95 14.05 28.0 14.0 28.05 11.8 30.15 10.15 29.9 9.55 29.7 Q7.85 28.15 6.45 26.15 5.25 24.35 4.4 22.55 L4.3 21.9 4.3 21.5 M3.45 40.5 L3.35 40.4 3.3 40.35 2.45 39.1 3.65 38.05 3.7 38.0 3.8 37.9 3.85 37.9 4.3 37.5 4.7 37.15 Q6.45 35.6 6.4 34.2 L6.4 33.8 6.8 33.35 Q7.05 34.45 7.9 35.35 L8.25 35.7 6.05 37.9 5.8 38.2 5.5 38.4 Q4.55 39.15 4.05 40.0 L3.55 40.4 3.45 40.5" fill="#866b39" fill-rule="evenodd" stroke="none"/>
      <path d="M19.75 23.45 L19.8 23.4 19.9 23.35 20.1 23.75 20.35 23.5 20.6 23.35 Q20.7 24.1 20.2 24.9 L19.2 26.35 19.15 26.9 Q19.4 29.35 20.1 32.0 21.0 35.45 24.25 37.05 L24.35 37.0 24.4 36.9 24.6 36.75 24.75 37.65 24.9 37.5 25.3 37.25 Q25.95 38.6 24.3 40.15 23.05 41.3 21.55 41.9 L21.25 41.85 21.45 41.35 20.8 41.2 20.95 40.9 20.9 40.9 20.65 40.85 20.75 40.55 20.4 40.3 20.05 40.25 Q18.5 40.0 16.95 38.7 L16.9 38.65 14.15 36.75 Q13.05 35.9 12.4 34.85 L12.3 34.75 Q11.6 34.15 11.5 33.6 L11.45 33.6 10.95 33.95 10.8 33.95 10.75 33.65 10.65 33.6 10.6 33.4 9.7 33.65 10.05 33.25 10.65 32.9 Q10.8 32.35 11.4 31.85 L13.1 30.5 13.25 30.4 15.15 28.6 19.5 24.25 19.7 24.1 19.7 23.8 Q20.2 23.65 19.75 23.45 M17.75 29.35 L17.25 28.7 14.85 30.6 Q13.8 31.65 13.05 32.95 14.45 35.2 16.7 36.85 18.6 38.25 20.8 39.2 L21.55 39.35 21.9 38.95 22.35 38.6 22.4 38.45 22.75 37.75 22.7 37.7 21.5 36.9 Q19.6 35.8 18.3 33.5 17.2 31.45 17.8 29.65 L17.75 29.35 M11.35 35.5 L11.5 35.6 11.6 35.95 11.55 36.4 11.55 36.6 11.7 36.85 11.05 36.95 Q11.5 36.3 11.3 35.8 L11.4 35.6 11.35 35.5 M9.95 38.0 L8.6 39.5 7.3 40.65 8.7 39.25 9.7 38.15 9.9 38.0 9.95 38.0 M5.1 42.1 L5.05 42.1 4.85 42.2 4.5 42.15 4.65 42.15 5.05 42.05 5.1 42.1 M4.15 42.0 L4.0 41.7 4.0 41.5 4.15 41.35 3.9 41.2 3.55 41.5 3.4 41.5 3.45 41.25 3.4 41.25 3.3 41.2 Q3.15 40.8 3.45 40.5 L3.55 40.4 4.05 40.0 Q4.55 39.15 5.5 38.4 L5.8 38.2 6.05 37.9 8.25 35.7 7.9 35.35 Q7.05 34.45 6.8 33.35 L6.7 32.55 6.85 32.3 6.85 32.15 7.0 32.05 7.1 31.95 7.3 31.9 7.35 31.85 9.15 33.75 10.35 34.9 7.3 38.3 5.35 40.35 4.7 40.8 Q4.2 41.2 4.35 41.75 L4.15 42.0" fill="#65512c" fill-rule="evenodd" stroke="none"/>
      <path d="M10.05 33.25 L9.5 33.45 10.15 32.5 10.05 32.5 Q9.95 32.55 9.8 32.65 L9.55 32.6 9.8 32.3 9.75 32.15 9.55 31.75 Q8.6 31.6 7.55 30.2 5.4 27.3 3.7 24.1 L3.1 22.75 2.3 23.45 2.15 23.45 Q2.15 22.6 2.55 21.75 L2.65 21.6 2.65 21.55 2.45 20.9 Q2.5 20.65 2.8 20.65 L3.4 20.5 5.4 18.3 5.9 18.0 Q6.35 18.1 6.25 18.55 L6.25 18.7 6.4 19.15 6.45 19.25 Q7.85 22.45 11.2 23.75 13.4 24.65 15.5 24.6 L16.6 24.4 17.05 24.3 17.45 24.4 18.05 24.25 18.5 23.75 Q18.7 23.55 19.0 23.5 L19.05 23.55 19.25 23.3 Q19.4 23.1 19.6 23.1 L19.7 23.45 19.75 23.45 Q20.2 23.65 19.7 23.8 L19.7 24.1 19.5 24.25 15.15 28.6 13.25 30.4 13.1 30.5 11.4 31.85 Q10.8 32.35 10.65 32.9 L10.05 33.25 M4.3 21.5 L4.3 21.9 4.4 22.55 Q5.25 24.35 6.45 26.15 7.85 28.15 9.55 29.7 L10.15 29.9 11.8 30.15 14.0 28.05 14.05 28.0 14.05 27.95 14.25 27.5 14.35 27.35 14.4 27.25 14.35 27.15 14.25 26.95 14.2 26.85 13.85 26.65 13.4 26.45 Q11.7 26.2 9.95 25.2 L7.3 23.2 6.65 22.65 5.6 21.35 5.6 21.3 5.4 21.05 4.65 21.15 4.3 21.5 M2.45 39.1 L2.4 39.15 1.9 39.8 1.8 39.85 Q1.3 39.35 1.6 38.8 L1.35 38.85 1.25 38.75 3.7 36.2 6.05 33.75 Q6.2 33.6 6.35 33.55 L6.4 33.8 6.4 34.2 Q6.45 35.6 4.7 37.15 L4.3 37.5 3.85 37.9 3.8 37.9 3.7 38.0 3.65 38.05 2.45 39.1" fill="#a98747" fill-rule="evenodd" stroke="none"/>
      <path d="M17.75 29.35 L17.8 29.65 Q17.2 31.45 18.3 33.5 19.6 35.8 21.5 36.9 L22.7 37.7 22.75 37.75 22.4 38.45 22.35 38.6 21.9 38.95 21.55 39.35 20.8 39.2 Q18.6 38.25 16.7 36.85 14.45 35.2 13.05 32.95 13.8 31.65 14.85 30.6 L17.25 28.7 17.75 29.35 M10.35 34.9 L10.5 34.65 10.7 34.5 11.05 34.9 Q11.05 35.3 11.35 35.5 L11.4 35.6 11.3 35.8 Q11.5 36.3 11.05 36.95 L9.95 38.0 9.9 38.0 9.7 38.15 8.7 39.25 7.3 40.65 5.7 42.25 5.65 42.3 5.5 42.3 5.15 42.1 5.1 42.1 5.05 42.05 4.65 42.15 4.5 42.15 4.3 42.1 4.25 42.05 4.15 42.0 4.35 41.75 Q4.2 41.2 4.7 40.8 L5.35 40.35 7.3 38.3 10.35 34.9" fill="#524223" fill-rule="evenodd" stroke="none"/>
      <path d="M41.85 12.4 L41.4 12.65 21.25 32.8 Q19.7 29.2 21.2 24.4 21.1 23.9 21.45 23.25 L21.55 23.1 21.45 22.6 21.45 22.5 21.0 22.25 20.05 22.5 Q14.9 24.25 11.0 22.55 L31.15 2.4 31.45 2.0 40.7 2.05 40.55 2.25 40.75 2.15 41.2 2.15 41.5 2.3 41.75 2.65 41.75 3.15 41.85 12.4" fill="url(#gradient1)" fill-rule="evenodd" stroke="none"/>
      <path d="M40.25 3.7 L40.25 3.8 40.35 11.6 23.2 28.75 23.2 20.75 23.1 20.75 22.95 20.7 22.9 20.55 22.95 20.45 22.95 20.4 39.9 3.55 40.05 3.5 40.2 3.55 40.25 3.7" fill="url(#gradient2)" fill-rule="evenodd" stroke="none"/>
      <path d="M40.3 3.7 L40.3 3.8 40.25 3.8 40.25 3.7 40.3 3.7" fill="#cccccc" fill-rule="evenodd" stroke="none"/>
      <path d="M22.95 20.4 L22.95 20.45 15.2 20.45 32.15 3.5 39.7 3.55 39.85 3.65 22.95 20.4" fill="url(#gradient3)" fill-rule="evenodd" stroke="none"/>
      <path d="M41.85 12.4 L41.4 12.65 23.5 30.55 Q28.05 22.7 30.75 13.9 32.3 8.7 31.85 4.1 L31.85 2.0 40.7 2.05 40.55 2.25 40.75 2.15 41.2 2.15 41.5 2.3 41.75 2.65 41.75 3.15 41.85 12.4" fill="url(#gradient4)" fill-rule="evenodd" stroke="none"/>
      <path d="M8.8 33.85 L7.6 32.55 2.1 38.05 Q2.45 39.5 3.3 40.35 L3.35 40.4 Q4.2 41.35 5.75 41.75 L11.25 36.25 10.0 35.05 9.3 34.35 8.8 33.85 M2.6 21.55 L2.5 21.65 Q5.75 27.7 10.25 32.4 L10.75 32.9 11.45 33.6 Q16.15 38.1 22.15 41.3 L22.25 41.2 25.4 38.05 20.85 35.3 20.75 35.2 20.5 34.95 Q20.2 34.65 20.2 34.25 L20.2 34.05 Q18.0 29.75 19.75 24.1 14.1 25.85 9.8 23.7 L9.7 23.65 9.0 23.45 8.6 23.05 8.3 22.75 5.75 18.4 2.6 21.55 M41.75 2.65 L41.5 2.3 41.2 2.15 40.75 2.15 40.55 2.25 40.7 2.05 31.45 2.0 31.15 2.4 11.0 22.55 Q14.9 24.25 20.05 22.5 L21.0 22.25 21.45 22.5 21.45 22.6 21.55 23.1 21.45 23.25 Q21.1 23.9 21.2 24.4 19.7 29.2 21.25 32.8 L41.4 12.65 41.85 12.4 41.75 3.15 41.75 2.65 M43.3 0.35 L43.4 0.45 43.5 0.55 43.8 1.25 43.8 12.65 43.6 13.35 43.05 13.6 42.85 14.1 22.8 34.15 Q25.05 35.6 27.55 36.9 L28.0 37.35 28.05 38.0 27.8 38.55 23.7 42.65 23.3 42.85 23.25 43.0 22.7 43.45 21.95 43.4 Q17.0 40.85 12.85 37.5 L6.85 43.5 6.4 43.75 5.95 43.8 Q3.35 43.4 1.95 41.8 L1.9 41.75 Q0.4 40.35 0.0 37.85 L0.05 37.4 0.35 37.0 6.35 31.0 Q3.0 26.85 0.45 21.9 0.25 21.5 0.4 21.15 0.5 20.75 0.85 20.6 L0.95 20.5 1.2 20.15 5.3 16.05 Q5.5 15.85 5.85 15.8 L6.5 15.85 6.9 16.25 9.65 21.1 29.75 1.0 Q30.0 0.75 30.2 0.75 L30.5 0.25 Q30.75 0.0 31.15 0.0 L42.6 0.05 Q43.0 0.05 43.3 0.35" fill="#696969" fill-rule="evenodd" stroke="none"/>
      <path d="M8.8 33.85 L7.6 32.55 2.1 38.05 Q2.45 39.5 3.3 40.35 L3.35 40.4 Q4.2 41.35 5.75 41.75 L11.25 36.25 10.0 35.05 9.3 34.35 8.8 33.85 M2.6 21.55 L2.5 21.65 Q5.75 27.7 10.25 32.4 L10.75 32.9 11.45 33.6 Q16.15 38.1 22.15 41.3 L22.25 41.2 25.4 38.05 20.85 35.3 20.75 35.2 20.5 34.95 Q20.2 34.65 20.2 34.25 L20.2 34.05 Q18.0 29.75 19.75 24.1 14.1 25.85 9.8 23.7 L9.7 23.65 9.0 23.45 8.6 23.05 8.3 22.75 5.75 18.4 2.6 21.55 M21.0 22.25 L21.45 22.5 21.45 22.6 21.55 23.1 21.45 23.25 Q21.1 23.9 21.2 24.4 19.7 29.2 21.25 32.8 L21.4 32.7 21.5 32.8 21.95 33.5 22.5 33.9 22.85 34.1 22.8 34.15 Q25.05 35.6 27.55 36.9 L28.0 37.35 28.05 38.0 27.8 38.55 23.7 42.65 23.3 42.85 23.25 43.0 22.7 43.45 21.95 43.4 Q17.0 40.85 12.85 37.5 L6.85 43.5 6.4 43.75 5.95 43.8 Q3.35 43.4 1.95 41.8 L1.9 41.75 Q0.4 40.35 0.0 37.85 L0.05 37.4 0.35 37.0 6.35 31.0 Q3.0 26.85 0.45 21.9 0.25 21.5 0.4 21.15 0.5 20.75 0.85 20.6 L0.95 20.5 1.2 20.15 5.3 16.05 Q5.5 15.85 5.85 15.8 L6.5 15.85 6.9 16.25 9.65 21.1 9.7 21.1 9.8 21.35 Q10.2 22.0 10.7 22.25 L10.8 22.35 11.05 22.55 11.0 22.55 Q14.9 24.25 20.05 22.5 L21.0 22.25" fill="#47391f" fill-rule="evenodd" stroke="none"/>
    </g>
    <linearGradient gradientTransform="matrix(0.0065, 0.0065, -0.0132, 0.0133, 26.4, 17.4)" gradientUnits="userSpaceOnUse" id="gradient1" spreadMethod="pad" x1="-819.2" x2="819.2">
      <stop offset="0.0" stop-color="#ffffff"/>
      <stop offset="0.9764705882352941" stop-color="#b9b9b9"/>
    </linearGradient>
    <linearGradient gradientTransform="matrix(-0.0039, -0.0078, 0.0092, -0.0045, 36.95, 13.1)" gradientUnits="userSpaceOnUse" id="gradient2" spreadMethod="pad" x1="-819.2" x2="819.2">
      <stop offset="0.0" stop-color="#ffffff"/>
      <stop offset="0.9764705882352941" stop-color="#959595"/>
    </linearGradient>
    <linearGradient gradientTransform="matrix(-0.0113, 0.0129, -0.0078, -0.0068, 27.5, 11.95)" gradientUnits="userSpaceOnUse" id="gradient3" spreadMethod="pad" x1="-819.2" x2="819.2">
      <stop offset="0.0" stop-color="#ffffff"/>
      <stop offset="0.9764705882352941" stop-color="#b9b9b9"/>
    </linearGradient>
    <linearGradient gradientTransform="matrix(0.007, 0.0021, -0.0037, 0.0126, 25.55, 42.65)" gradientUnits="userSpaceOnUse" id="gradient4" spreadMethod="pad" x1="-819.2" x2="819.2">
      <stop offset="0.0" stop-color="#ffffff"/>
      <stop offset="1.0" stop-color="#d6d6d6" stop-opacity="0.0"/>
    </linearGradient>
    <g id="sprite11" transform="matrix(1.0, 0.0, 0.0, 1.0, 1.5, 5.05)">
      <use ffdec:characterId="346" height="38.0" id="am_CacheIcon" transform="matrix(1.0, 0.0, 0.0, 1.0, -1.5, -1.5)" width="39.65" xlink:href="#sprite12"/>
      <use ffdec:characterId="349" height="44.3" id="am_Tooltip" transform="matrix(1.0, 0.0, 0.0, 1.0, 40.7, -5.05)" width="258.9" xlink:href="#sprite16"/>
    </g>
    <g id="sprite12" transform="matrix(1.0, 0.0, 0.0, 1.0, 0.0, 0.0)">
      <use ffdec:characterId="343" height="38.0" transform="matrix(1.0, 0.0, 0.0, 1.0, 0.0, 0.0)" width="39.65" xlink:href="#sprite13"/>
      <use ffdec:characterId="345" height="23.15" transform="matrix(1.0, 0.0, 0.0, 1.0, 8.35, 7.6)" width="23.35" xlink:href="#sprite15"/>
    </g>
    <g id="sprite13" transform="matrix(1.0, 0.0, 0.0, 1.0, 0.0, 0.0)">
      <use ffdec:characterId="86" height="26.05" transform="matrix(1.0, 0.0, 0.0, 1.0, 6.3, 5.9)" width="27.15" xlink:href="#shape4"/>
      <use ffdec:characterId="88" height="38.0" transform="matrix(1.0, 0.0, 0.0, 1.0, 0.0, 0.0)" width="39.65" xlink:href="#sprite14"/>
    </g>
    <g id="shape4" transform="matrix(1.0, 0.0, 0.0, 1.0, -5.55, -5.15)">
      <path d="M10.3 5.8 L10.3 5.15 23.5 5.15 Q28.0 5.15 30.4 6.95 32.15 8.4 32.6 11.05 L32.7 12.9 32.7 23.5 32.6 25.4 Q31.5 31.2 23.5 31.2 L10.3 31.2 10.3 30.6 10.3 5.8" fill="url(#gradient5)" fill-rule="evenodd" stroke="none"/>
      <path d="M10.3 5.8 L10.3 30.6 Q6.45 29.3 5.7 25.4 5.55 24.45 5.55 23.5 L5.55 12.9 Q5.65 7.35 10.3 5.8" fill="url(#gradient6)" fill-rule="evenodd" stroke="none"/>
    </g>
    <linearGradient gradientTransform="matrix(0.0, 0.0167, -0.0159, 0.0, 78.5, 18.8)" gradientUnits="userSpaceOnUse" id="gradient5" spreadMethod="pad" x1="-819.2" x2="819.2">
      <stop offset="0.0" stop-color="#202020"/>
      <stop offset="1.0" stop-color="#757575"/>
    </linearGradient>
    <linearGradient gradientTransform="matrix(0.0, 0.0167, -0.0159, 0.0, 165.0, 18.8)" gradientUnits="userSpaceOnUse" id="gradient6" spreadMethod="pad" x1="-819.2" x2="819.2">
      <stop offset="0.0" stop-color="#202020"/>
      <stop offset="1.0" stop-color="#757575"/>
    </linearGradient>
    <g id="sprite14" transform="matrix(1.0, 0.0, 0.0, 1.0, 1.5, 1.5)">
      <use ffdec:characterId="87" height="38.0" transform="matrix(1.0, 0.0, 0.0, 1.0, -1.5, -1.5)" width="39.65" xlink:href="#shape5"/>
    </g>
    <g id="shape5" transform="matrix(1.0, 0.0, 0.0, 1.0, 1.5, 1.5)">
      <path d="M14.1 -1.5 L22.55 -1.5 Q30.15 -1.5 34.0 1.8 L33.95 1.8 Q38.15 5.2 38.15 12.2 L38.15 22.85 38.15 24.1 38.1 24.4 37.75 26.8 37.75 26.9 Q35.65 36.5 22.55 36.5 L13.9 36.5 Q5.15 36.45 1.45 32.0 -1.5 28.65 -1.5 22.85 L-1.5 12.2 Q-1.6 -1.4 13.9 -1.5 L14.1 -1.5 M22.55 4.5 L14.1 4.5 13.9 4.5 Q11.3 4.5 9.4 5.15 L9.35 5.2 9.0 5.3 7.45 6.15 Q4.9 8.05 4.9 12.2 L4.9 22.85 Q4.9 25.55 6.0 27.3 8.05 30.45 13.9 30.5 L22.55 30.5 Q31.65 30.5 31.75 22.85 L31.75 12.2 Q31.75 8.15 29.35 6.25 26.95 4.5 22.55 4.5" fill="#524603" fill-rule="evenodd" stroke="none"/>
      <path d="M32.4 3.65 L32.5 3.75 32.55 3.75 32.7 3.95 32.8 4.05 34.1 6.1 35.05 8.1 Q35.6 10.65 35.65 12.35 L35.6 16.25 35.55 24.4 35.35 25.8 34.85 27.75 Q34.4 29.35 33.55 30.6 L33.3 31.0 32.6 31.55 30.85 32.85 28.65 33.65 23.85 34.25 15.7 34.25 15.5 34.2 12.05 34.15 Q5.75 33.5 3.2 31.0 L2.8 30.45 2.8 30.3 1.6 27.65 1.1 26.85 1.05 26.7 1.1 26.7 1.1 26.6 0.95 26.4 0.6 25.05 0.7 24.45 0.7 21.0 0.7 17.9 Q0.7 9.7 1.4 7.55 3.5 1.15 11.85 0.75 L14.85 0.7 15.05 0.65 23.05 0.65 23.25 0.7 26.05 0.75 27.9 1.2 30.55 2.3 32.4 3.65 M5.4 29.75 Q5.6 30.25 6.85 30.95 L8.45 31.7 Q9.8 32.25 11.6 32.45 L14.2 32.5 14.6 32.6 19.35 32.7 22.35 32.7 22.55 32.65 25.35 32.6 Q29.7 31.9 31.9 29.1 33.5 27.15 33.8 24.5 L33.8 17.65 33.95 15.1 Q33.95 12.2 33.55 9.1 33.25 7.1 32.45 6.1 L31.05 4.6 Q30.85 3.8 28.95 3.2 L27.2 2.9 23.0 2.2 16.25 2.2 9.35 2.65 Q5.85 3.2 3.75 7.1 3.0 8.5 2.7 10.15 2.55 11.25 2.55 13.25 L2.6 23.85 Q2.6 26.25 4.3 28.55 L5.4 29.75" fill="#c5a807" fill-rule="evenodd" stroke="none"/>
      <path d="M8.85 3.75 L8.25 4.0 6.75 4.8 Q7.8 4.0 8.65 3.8 L8.85 3.75" fill="#85888a" fill-rule="evenodd" stroke="none"/>
      <path d="M0.95 26.4 L1.1 26.6 1.1 26.7 1.05 26.7 0.95 26.4" fill="#66696e" fill-rule="evenodd" stroke="none"/>
      <path d="M2.8 30.45 L3.2 31.0 Q5.75 33.5 12.05 34.15 L15.5 34.2 15.7 34.25 23.85 34.25 28.65 33.65 30.85 32.85 32.6 31.55 33.3 31.0 33.55 30.6 Q34.4 29.35 34.85 27.75 L35.35 25.8 35.55 24.4 35.6 16.25 35.65 12.35 Q35.6 10.65 35.05 8.1 L34.1 6.1 32.8 4.05 32.7 3.95 32.55 3.75 32.5 3.75 32.4 3.65 32.35 3.55 32.35 3.45 32.35 3.4 32.3 3.35 32.4 3.35 33.0 2.95 Q36.65 6.0 36.65 12.2 L36.65 22.85 36.65 24.05 36.6 24.1 36.3 26.5 36.3 26.55 Q34.3 35.0 22.55 35.0 L13.9 35.0 Q6.0 34.95 2.6 31.0 L2.5 30.85 2.8 30.45 M31.05 4.6 L31.05 4.75 30.95 5.0 30.65 5.2 30.25 5.05 Q27.55 3.0 22.55 3.0 L14.1 3.0 13.9 3.0 Q11.0 3.0 8.95 3.75 L8.85 3.75 8.65 3.8 Q7.8 4.0 6.75 4.8 L6.65 4.85 Q3.4 7.15 3.4 12.2 L3.4 22.85 Q3.4 26.05 4.7 28.1 L5.35 29.25 5.3 29.5 5.4 29.75 4.3 28.55 Q2.6 26.25 2.6 23.85 L2.55 13.25 Q2.55 11.25 2.7 10.15 3.0 8.5 3.75 7.1 5.85 3.2 9.35 2.65 L16.25 2.2 23.0 2.2 27.2 2.9 28.95 3.2 Q30.85 3.8 31.05 4.6" fill="#947e05" fill-rule="evenodd" stroke="none"/>
      <path d="M2.8 30.45 L2.5 30.85 2.6 31.0 Q0.0 28.05 0.0 22.85 L0.0 12.2 Q0.0 0.1 13.9 0.0 L14.1 0.0 22.55 0.0 Q29.5 0.0 33.0 2.95 L32.4 3.35 32.3 3.35 32.35 3.4 32.35 3.45 32.35 3.55 32.4 3.65 30.55 2.3 27.9 1.2 26.05 0.75 23.25 0.7 23.05 0.65 15.05 0.65 14.85 0.7 11.85 0.75 Q3.5 1.15 1.4 7.55 0.7 9.7 0.7 17.9 L0.7 21.0 0.7 24.45 0.6 25.05 0.95 26.4 1.05 26.7 1.1 26.85 1.6 27.65 2.8 30.3 2.8 30.45 M30.25 5.05 L30.65 5.2 30.95 5.0 31.05 4.75 31.05 4.6 32.45 6.1 Q33.25 7.1 33.55 9.1 33.95 12.2 33.95 15.1 L33.8 17.65 33.8 24.5 Q33.5 27.15 31.9 29.1 29.7 31.9 25.35 32.6 L22.55 32.65 22.35 32.7 19.35 32.7 14.6 32.6 14.2 32.5 11.6 32.45 Q9.8 32.25 8.45 31.7 L6.85 30.95 Q5.6 30.25 5.4 29.75 L5.3 29.5 5.35 29.25 4.7 28.1 Q7.1 31.95 13.9 32.0 L22.55 32.0 Q33.25 32.0 33.25 22.85 L33.25 12.2 Q33.25 7.3 30.25 5.05" fill="#f9e053" fill-rule="evenodd" stroke="none"/>
    </g>
    <g id="sprite15" transform="matrix(1.0, 0.0, 0.0, 1.0, 0.0, 0.65)">
      <use ffdec:characterId="344" height="23.15" transform="matrix(1.0, 0.0, 0.0, 1.0, 0.0, -0.65)" width="23.35" xlink:href="#shape6"/>
    </g>
    <g id="shape6" transform="matrix(1.0, 0.0, 0.0, 1.0, 0.0, 0.65)">
      <path d="M1.15 -0.65 L11.8 -0.65 12.1 -0.6 12.45 -0.3 Q12.85 0.15 12.85 0.65 12.85 1.2 12.45 1.6 L11.5 2.05 2.8 2.05 2.8 19.7 20.45 19.7 20.45 9.6 Q20.45 9.05 20.9 8.6 21.3 8.2 21.85 8.2 22.35 8.2 22.8 8.6 23.2 9.05 23.2 9.6 L23.2 15.75 23.35 16.1 23.35 17.65 23.2 18.0 23.2 21.05 Q23.2 21.65 22.8 22.1 22.35 22.5 21.85 22.5 L1.45 22.5 Q0.85 22.5 0.4 22.1 0.0 21.65 0.0 21.05 L0.0 0.65 Q0.0 0.15 0.4 -0.3 L0.9 -0.6 1.15 -0.65 M17.35 4.7 Q17.75 5.1 17.75 5.65 L17.75 12.3 17.35 13.25 Q16.9 13.65 16.3 13.65 15.8 13.65 15.35 13.25 14.95 12.8 14.95 12.3 L14.95 8.95 8.95 15.0 Q8.55 15.4 8.0 15.4 7.45 15.4 7.05 15.0 6.6 14.55 6.6 14.0 6.6 13.35 7.1 13.0 L13.0 7.0 9.75 7.0 Q9.2 7.0 8.8 6.6 8.35 6.2 8.35 5.65 8.35 5.1 8.8 4.7 9.2 4.25 9.75 4.25 L16.3 4.25 Q16.9 4.25 17.35 4.7" fill="#b0ecff" fill-rule="evenodd" stroke="none"/>
    </g>
    <g id="sprite16" transform="matrix(1.0, 0.0, 0.0, 1.0, 63.0, 16.55)">
      <use ffdec:characterId="347" height="44.3" transform="matrix(1.0, 0.0, 0.0, 1.0, -63.0, -16.55)" width="258.9" xlink:href="#shape7"/>
      <filter id="filter25">
        <feColorMatrix in="SourceGraphic" result="filterResult3" type="matrix" values="0 0 0 0 0.19215687,0 0 0 0 0.15686275,0 0 0 0 0.050980393,0 0 0 1 0"/>
        <feConvolveMatrix divisor="16.0" in="filterResult3" kernelMatrix="1 1 1 1 1 1 1 1 1 1 1 1 1 1 1 1" order="4 4" result="filterResult4"/>
        <feComposite in="SourceGraphic" in2="filterResult4" operator="over" result="filterResult5"/>
      </filter>
      <use ffdec:characterId="348" filter="url(#filter25)" height="32.25" id="am_Text" transform="matrix(1.0, 0.0, 0.0, 1.0, -54.45, -11.3)" width="247.25" xlink:href="#text1"/>
    </g>
    <g id="shape7" transform="matrix(1.0, 0.0, 0.0, 1.0, 63.0, 16.55)">
      <path d="M189.7 -10.05 Q195.9 -3.5 195.9 5.6 L195.9 5.7 Q195.9 14.7 189.7 21.15 L189.7 21.2 Q183.45 27.75 174.6 27.75 L-41.7 27.75 Q-46.75 27.75 -50.95 25.55 L-50.8 25.6 Q-54.2 24.0 -56.85 21.15 -62.75 14.95 -63.0 6.35 L-63.0 6.2 -63.0 5.15 -63.0 5.05 Q-62.75 -3.75 -56.85 -10.0 L-56.8 -10.05 Q-50.75 -16.4 -42.15 -16.55 L174.6 -16.55 Q183.45 -16.55 189.7 -10.05" fill="#b28e2d" fill-rule="evenodd" stroke="none"/>
      <path d="M174.6 -12.55 Q181.75 -12.55 186.8 -7.3 191.9 -1.9 191.9 5.6 L191.9 5.7 Q191.9 13.1 186.8 18.4 181.75 23.75 174.6 23.75 L-41.7 23.75 Q-45.75 23.75 -49.1 22.0 -51.8 20.7 -53.95 18.4 -58.8 13.3 -59.0 6.2 L-59.0 5.15 Q-58.8 -2.1 -53.95 -7.3 -49.05 -12.4 -42.1 -12.55 L174.6 -12.55" fill="#333333" fill-rule="evenodd" stroke="none"/>
    </g>
    <g id="text1" transform="matrix(1.0, 0.0, 0.0, 1.0, 2.0, 2.0)">
      <g transform="matrix(1.0, 0.0, 0.0, 1.0, -2.0, -2.0)">
        <use fill="#eee2bc" height="32.25" transform="matrix(0.0234, 0.0, 0.0, 0.0234, 16.35, 20.1)" width="247.25" xlink:href="#font_HelveticaRounded_LT_Std_Bd_V0"/>
        <use fill="#eee2bc" height="32.25" transform="matrix(0.0234, 0.0, 0.0, 0.0234, 31.9, 20.1)" width="247.25" xlink:href="#font_HelveticaRounded_LT_Std_Bd_i0"/>
        <use fill="#eee2bc" height="32.25" transform="matrix(0.0234, 0.0, 0.0, 0.0234, 38.6, 20.1)" width="247.25" xlink:href="#font_HelveticaRounded_LT_Std_Bd_e0"/>
        <use fill="#eee2bc" height="32.25" transform="matrix(0.0234, 0.0, 0.0, 0.0234, 53.3, 20.1)" width="247.25" xlink:href="#font_HelveticaRounded_LT_Std_Bd_w0"/>
      </g>
      <g transform="matrix(1.0, 0.0, 0.0, 1.0, -2.0, -2.0)">
        <use fill="#eee2bc" height="32.25" transform="matrix(0.0234, 0.0, 0.0, 0.0234, 79.35, 20.1)" width="247.25" xlink:href="#font_HelveticaRounded_LT_Std_Bd_e0"/>
        <use fill="#eee2bc" height="32.25" transform="matrix(0.0234, 0.0, 0.0, 0.0234, 94.05, 20.1)" width="247.25" xlink:href="#font_HelveticaRounded_LT_Std_Bd_v0"/>
        <use fill="#eee2bc" height="32.25" transform="matrix(0.0234, 0.0, 0.0, 0.0234, 106.05, 20.1)" width="247.25" xlink:href="#font_HelveticaRounded_LT_Std_Bd_e0"/>
        <use fill="#eee2bc" height="32.25" transform="matrix(0.0234, 0.0, 0.0, 0.0234, 120.75, 20.1)" width="247.25" xlink:href="#font_HelveticaRounded_LT_Std_Bd_n0"/>
        <use fill="#eee2bc" height="32.25" transform="matrix(0.0234, 0.0, 0.0, 0.0234, 135.4, 20.1)" width="247.25" xlink:href="#font_HelveticaRounded_LT_Std_Bd_t0"/>
      </g>
      <g transform="matrix(1.0, 0.0, 0.0, 1.0, -2.0, -2.0)">
        <use fill="#eee2bc" height="32.25" transform="matrix(0.0234, 0.0, 0.0, 0.0234, 151.65, 20.1)" width="247.25" xlink:href="#font_HelveticaRounded_LT_Std_Bd_d0"/>
        <use fill="#eee2bc" height="32.25" transform="matrix(0.0234, 0.0, 0.0, 0.0234, 166.3, 20.1)" width="247.25" xlink:href="#font_HelveticaRounded_LT_Std_Bd_e0"/>
        <use fill="#eee2bc" height="32.25" transform="matrix(0.0234, 0.0, 0.0, 0.0234, 181.0, 20.1)" width="247.25" xlink:href="#font_HelveticaRounded_LT_Std_Bd_t0"/>
        <use fill="#eee2bc" height="32.25" transform="matrix(0.0234, 0.0, 0.0, 0.0234, 189.9, 20.1)" width="247.25" xlink:href="#font_HelveticaRounded_LT_Std_Bd_a0"/>
        <use fill="#eee2bc" height="32.25" transform="matrix(0.0234, 0.0, 0.0, 0.0234, 204.55, 20.1)" width="247.25" xlink:href="#font_HelveticaRounded_LT_Std_Bd_i0"/>
        <use fill="#eee2bc" height="32.25" transform="matrix(0.0234, 0.0, 0.0, 0.0234, 211.25, 20.1)" width="247.25" xlink:href="#font_HelveticaRounded_LT_Std_Bd_l0"/>
        <use fill="#eee2bc" height="32.25" transform="matrix(0.0234, 0.0, 0.0, 0.0234, 217.95, 20.1)" width="247.25" xlink:href="#font_HelveticaRounded_LT_Std_Bd_s0"/>
      </g>
    </g>
    <g id="font_HelveticaRounded_LT_Std_Bd_V0">
      <path d="M644.0 -627.0 L431.5 -45.0 Q418.5 -9.5 393.0 2.5 368.0 14.5 329.0 13.5 290.0 14.5 264.5 2.5 239.5 -9.5 226.5 -45.0 L20.0 -627.0 Q14.5 -641.5 12.0 -654.0 9.5 -666.0 9.5 -676.0 10.0 -704.0 22.0 -720.5 34.5 -737.0 54.0 -744.0 73.0 -751.0 94.5 -751.0 128.0 -751.0 148.0 -733.0 168.5 -715.0 179.5 -677.0 L331.0 -175.0 333.0 -175.0 490.5 -677.0 Q502.0 -715.0 521.5 -733.0 540.5 -751.0 569.5 -751.0 591.0 -751.0 610.0 -744.0 629.5 -737.0 642.0 -720.5 654.0 -704.0 654.5 -676.0 654.5 -666.0 652.0 -654.0 649.5 -641.5 644.0 -627.0" fill-rule="evenodd" stroke="none"/>
    </g>
    <g id="font_HelveticaRounded_LT_Std_Bd_w0">
      <path d="M133.5 -67.5 L24.0 -424.0 Q20.0 -436.0 16.5 -449.5 13.5 -462.5 13.5 -479.5 14.5 -509.0 35.5 -528.5 57.0 -548.5 86.0 -549.0 113.5 -549.0 127.5 -539.5 142.0 -530.5 148.5 -514.0 155.5 -498.0 160.0 -476.0 L239.0 -148.5 241.0 -148.5 304.5 -446.5 Q310.0 -476.0 318.5 -499.5 327.5 -523.0 346.0 -536.5 364.0 -549.5 398.5 -549.0 433.5 -549.5 452.5 -536.5 471.5 -523.5 481.0 -500.0 490.5 -476.5 497.0 -446.5 L561.5 -148.5 563.5 -148.5 637.0 -476.0 Q641.0 -498.0 648.0 -514.0 654.5 -530.5 669.0 -539.5 683.5 -549.0 711.0 -549.0 740.0 -548.5 761.5 -528.5 782.5 -509.0 783.5 -479.5 783.5 -462.5 780.5 -449.5 777.0 -436.0 773.0 -424.0 L663.5 -67.5 Q653.5 -32.5 642.0 -15.0 631.0 2.5 613.0 8.0 595.5 14.0 566.5 13.5 535.5 13.5 518.0 6.5 500.0 -0.5 490.5 -18.0 480.5 -35.0 473.0 -64.5 L399.5 -358.5 397.5 -358.5 324.0 -64.5 Q316.5 -35.0 306.5 -18.0 297.0 -0.5 279.0 6.5 261.5 13.5 230.5 13.5 201.5 14.0 184.0 8.0 166.0 2.5 155.0 -15.0 143.5 -32.5 133.5 -67.5" fill-rule="evenodd" stroke="none"/>
    </g>
    <g id="font_HelveticaRounded_LT_Std_Bd_v0">
      <path d="M158.0 -40.0 L16.5 -433.0 Q13.5 -443.0 10.5 -453.5 7.5 -464.0 7.5 -471.0 8.5 -511.0 30.5 -530.0 52.0 -549.0 80.0 -549.0 108.0 -548.0 123.5 -536.0 139.5 -524.0 146.0 -509.5 153.0 -495.0 155.0 -486.5 L255.0 -148.5 257.5 -148.5 357.5 -486.5 Q359.5 -495.0 366.5 -509.5 373.0 -524.0 389.0 -536.0 404.5 -548.0 432.5 -549.0 460.5 -549.0 482.0 -530.0 504.0 -511.0 505.0 -471.0 505.0 -464.0 502.0 -453.5 499.0 -443.0 496.0 -433.0 L354.5 -40.0 Q348.0 -20.0 339.5 -8.0 330.5 3.5 311.5 8.5 293.0 13.5 256.0 13.5 219.5 13.5 201.0 8.5 182.0 3.5 173.0 -8.0 164.5 -20.0 158.0 -40.0" fill-rule="evenodd" stroke="none"/>
    </g>
    <g id="font_HelveticaRounded_LT_Std_Bd_t0">
      <path d="M98.5 -119.5 L98.5 -437.0 73.0 -437.0 Q41.5 -437.0 27.5 -449.5 13.5 -461.5 13.5 -486.5 13.5 -511.0 27.5 -523.0 41.5 -535.5 73.0 -535.5 L98.5 -535.5 98.5 -626.5 Q99.0 -663.5 119.0 -682.5 139.0 -701.0 173.5 -701.5 207.5 -701.0 227.5 -682.5 247.5 -663.5 248.0 -626.5 L248.0 -535.5 293.0 -535.5 Q326.0 -535.5 343.5 -524.5 360.5 -513.0 360.5 -486.5 360.5 -459.5 343.5 -448.0 326.0 -437.0 293.0 -437.0 L248.0 -437.0 248.0 -138.0 Q248.0 -121.0 257.5 -112.0 267.0 -103.0 287.0 -103.0 L308.5 -103.0 Q333.0 -103.0 347.0 -90.0 360.5 -77.0 360.5 -53.0 360.5 -20.5 333.0 -3.5 306.0 13.5 252.0 13.5 171.5 13.5 134.5 -20.0 98.0 -53.5 98.5 -119.5" fill-rule="evenodd" stroke="none"/>
    </g>
    <g id="font_HelveticaRounded_LT_Std_Bd_s0">
      <path d="M36.0 -382.0 Q36.5 -427.5 56.5 -459.5 76.5 -491.5 109.5 -511.0 142.0 -531.0 181.5 -540.0 221.0 -549.0 260.0 -549.0 318.0 -549.0 370.0 -535.0 421.5 -521.0 454.5 -495.5 487.5 -470.0 488.5 -435.5 488.0 -408.5 471.5 -389.5 455.5 -370.5 426.0 -370.0 404.5 -370.5 390.5 -380.5 376.0 -391.0 362.0 -404.0 348.0 -417.5 327.0 -428.0 306.0 -438.0 271.5 -438.5 232.0 -438.5 209.0 -427.5 186.0 -416.0 185.5 -392.5 186.0 -367.0 208.0 -356.5 230.0 -346.0 265.5 -339.0 L327.5 -324.5 Q371.5 -315.5 413.5 -298.0 456.0 -280.0 484.5 -248.5 513.0 -216.5 514.0 -165.0 513.0 -104.0 479.5 -64.5 445.5 -25.0 393.5 -5.5 341.0 13.5 283.5 13.5 215.5 13.0 159.5 -5.0 103.5 -23.0 70.0 -53.0 37.0 -83.5 36.0 -120.5 36.0 -146.0 50.5 -164.5 65.0 -182.5 96.5 -183.0 120.0 -182.5 136.5 -169.0 153.0 -155.0 169.5 -137.0 186.5 -119.0 211.5 -105.5 237.0 -91.5 277.5 -91.0 318.0 -91.5 341.0 -106.5 364.0 -121.5 364.5 -145.5 364.0 -172.5 341.5 -183.0 319.0 -194.0 278.5 -202.5 L190.5 -224.5 Q146.5 -234.5 112.0 -252.5 77.0 -270.5 57.0 -301.5 36.5 -332.5 36.0 -382.0" fill-rule="evenodd" stroke="none"/>
    </g>
    <g id="sprite17" transform="matrix(1.0, 0.0, 0.0, 1.0, -0.2, 0.0)">
      <use ffdec:characterId="352" height="128.15" id="am_Background" transform="matrix(0.5277, 0.0, 0.0, 4.416, 2.2, 2.3)" width="639.95" xlink:href="#sprite18"/>
      <use ffdec:characterId="354" height="4.5" transform="matrix(1.6141, 0.0, 0.0, 1.2459, 4.5, 0.0049)" width="207.5" xlink:href="#sprite19"/>
      <filter id="filter87">
        <feColorMatrix in="SourceGraphic" result="filterResult6" type="matrix" values="0 0 0 0 0.20392157,0 0 0 0 0.16862746,0 0 0 0 0.05490196,0 0 0 1 0"/>
        <feConvolveMatrix divisor="16.0" in="filterResult6" kernelMatrix="1 1 1 1 1 1 1 1 1 1 1 1 1 1 1 1" order="4 4" result="filterResult7"/>
        <feComposite in="SourceGraphic" in2="filterResult7" operator="over" result="filterResult8"/>
      </filter>
      <use ffdec:characterId="355" filter="url(#filter87)" height="91.6" id="am_TooltipText" transform="matrix(1.0, 0.0, 0.0, 1.0, 10.9, 10.4)" width="323.1" xlink:href="#text2"/>
      <use ffdec:characterId="358" height="44.95" id="am_TimerGroup" transform="matrix(1.0, 0.0, 0.0, 1.0, 9.95, 85.55)" width="183.3" xlink:href="#sprite20"/>
      <use ffdec:characterId="360" height="562.0" id="am_RightBorder" transform="matrix(1.0, 0.0, 0.0, 1.0, 338.7, 4.65)" width="5.6" xlink:href="#sprite23"/>
      <use ffdec:characterId="360" height="562.0" id="am_LeftBorder" transform="matrix(1.0, 0.0, 0.0, 1.0, 0.2, 4.65)" width="5.6" xlink:href="#sprite23"/>
      <use ffdec:characterId="361" height="5.6" id="am_BottomBorder" transform="matrix(1.0, 0.0, 0.0, 1.0, 4.55, 566.35)" width="335.0" xlink:href="#sprite24"/>
    </g>
    <g id="sprite18" transform="matrix(1.0, 0.0, 0.0, 1.0, 0.0, 0.0)">
      <use ffdec:characterId="351" height="128.15" transform="matrix(1.0, 0.0, 0.0, 1.0, 0.0, 0.0)" width="639.95" xlink:href="#shape8"/>
    </g>
    <g id="shape8" transform="matrix(1.0, 0.0, 0.0, 1.0, 0.0, 0.0)">
      <path d="M639.95 0.0 L639.95 128.15 0.0 128.15 0.0 0.0 639.95 0.0" fill="#1b1b1b" fill-opacity="0.9490196" fill-rule="evenodd" stroke="none"/>
    </g>
    <g id="sprite19" transform="matrix(1.0, 0.0, 0.0, 1.0, 0.0, 1.2)">
      <use ffdec:characterId="353" height="4.5" transform="matrix(1.0, 0.0, 0.0, 1.0, 0.0, -1.2)" width="207.5" xlink:href="#shape9"/>
    </g>
    <g id="shape9" transform="matrix(1.0, 0.0, 0.0, 1.0, 0.0, 1.2)">
      <path d="M0.0 -1.2 L207.5 -1.2 207.5 3.3 0.0 3.3 0.0 -1.2" fill="#332c02" fill-rule="evenodd" stroke="none"/>
      <path d="M207.5 0.0 L207.5 2.0 0.0 2.0 0.0 0.0 207.5 0.0" fill="#f8dd45" fill-rule="evenodd" stroke="none"/>
      <path d="M207.5 1.15 L207.5 2.0 0.0 2.0 0.0 1.15 207.5 1.15" fill="#a68e06" fill-rule="evenodd" stroke="none"/>
    </g>
    <g id="text2" transform="matrix(1.0, 0.0, 0.0, 1.0, 2.0, 2.0)">
      <g transform="matrix(1.0, 0.0, 0.0, 1.0, -2.0, -2.0)">
        <use fill="#eee2bc" height="91.6" transform="matrix(0.0146, 0.0, 0.0, 0.0146, 0.0, 14.45)" width="323.1" xlink:href="#font_HelveticaRounded_LT_Std_Bd_W0"/>
        <use fill="#eee2bc" height="91.6" transform="matrix(0.0146, 0.0, 0.0, 0.0146, 13.9, 14.45)" width="323.1" xlink:href="#font_HelveticaRounded_LT_Std_Bd_h0"/>
        <use fill="#eee2bc" height="91.6" transform="matrix(0.0146, 0.0, 0.0, 0.0146, 23.05, 14.45)" width="323.1" xlink:href="#font_HelveticaRounded_LT_Std_Bd_i0"/>
        <use fill="#eee2bc" height="91.6" transform="matrix(0.0146, 0.0, 0.0, 0.0146, 27.2, 14.45)" width="323.1" xlink:href="#font_HelveticaRounded_LT_Std_Bd_l0"/>
        <use fill="#eee2bc" height="91.6" transform="matrix(0.0146, 0.0, 0.0, 0.0146, 31.35, 14.45)" width="323.1" xlink:href="#font_HelveticaRounded_LT_Std_Bd_e0"/>
      </g>
      <g transform="matrix(1.0, 0.0, 0.0, 1.0, -2.0, -2.0)">
        <use fill="#eee2bc" height="91.6" transform="matrix(0.0146, 0.0, 0.0, 0.0146, 45.15, 14.45)" width="323.1" xlink:href="#font_HelveticaRounded_LT_Std_Bd_t0"/>
        <use fill="#eee2bc" height="91.6" transform="matrix(0.0146, 0.0, 0.0, 0.0146, 50.7, 14.45)" width="323.1" xlink:href="#font_HelveticaRounded_LT_Std_Bd_h0"/>
        <use fill="#eee2bc" height="91.6" transform="matrix(0.0146, 0.0, 0.0, 0.0146, 59.85, 14.45)" width="323.1" xlink:href="#font_HelveticaRounded_LT_Std_Bd_i0"/>
        <use fill="#eee2bc" height="91.6" transform="matrix(0.0146, 0.0, 0.0, 0.0146, 64.0, 14.45)" width="323.1" xlink:href="#font_HelveticaRounded_LT_Std_Bd_s0"/>
      </g>
      <g transform="matrix(1.0, 0.0, 0.0, 1.0, -2.0, -2.0)">
        <use fill="#eee2bc" height="91.6" transform="matrix(0.0146, 0.0, 0.0, 0.0146, 76.65, 14.45)" width="323.1" xlink:href="#font_HelveticaRounded_LT_Std_Bd_e0"/>
        <use fill="#eee2bc" height="91.6" transform="matrix(0.0146, 0.0, 0.0, 0.0146, 85.85, 14.45)" width="323.1" xlink:href="#font_HelveticaRounded_LT_Std_Bd_v0"/>
        <use fill="#eee2bc" height="91.6" transform="matrix(0.0146, 0.0, 0.0, 0.0146, 93.35, 14.45)" width="323.1" xlink:href="#font_HelveticaRounded_LT_Std_Bd_e0"/>
        <use fill="#eee2bc" height="91.6" transform="matrix(0.0146, 0.0, 0.0, 0.0146, 102.55, 14.45)" width="323.1" xlink:href="#font_HelveticaRounded_LT_Std_Bd_n0"/>
        <use fill="#eee2bc" height="91.6" transform="matrix(0.0146, 0.0, 0.0, 0.0146, 111.7, 14.45)" width="323.1" xlink:href="#font_HelveticaRounded_LT_Std_Bd_t0"/>
      </g>
      <g transform="matrix(1.0, 0.0, 0.0, 1.0, -2.0, -2.0)">
        <use fill="#eee2bc" height="91.6" transform="matrix(0.0146, 0.0, 0.0, 0.0146, 121.85, 14.45)" width="323.1" xlink:href="#font_HelveticaRounded_LT_Std_Bd_i0"/>
        <use fill="#eee2bc" height="91.6" transform="matrix(0.0146, 0.0, 0.0, 0.0146, 126.0, 14.45)" width="323.1" xlink:href="#font_HelveticaRounded_LT_Std_Bd_s0"/>
      </g>
      <g transform="matrix(1.0, 0.0, 0.0, 1.0, -2.0, -2.0)">
        <use fill="#eee2bc" height="91.6" transform="matrix(0.0146, 0.0, 0.0, 0.0146, 138.65, 14.45)" width="323.1" xlink:href="#font_HelveticaRounded_LT_Std_Bd_i0"/>
        <use fill="#eee2bc" height="91.6" transform="matrix(0.0146, 0.0, 0.0, 0.0146, 142.8, 14.45)" width="323.1" xlink:href="#font_HelveticaRounded_LT_Std_Bd_n0"/>
      </g>
      <g transform="matrix(1.0, 0.0, 0.0, 1.0, -2.0, -2.0)">
        <use fill="#eee2bc" height="91.6" transform="matrix(0.0146, 0.0, 0.0, 0.0146, 156.55, 14.45)" width="323.1" xlink:href="#font_HelveticaRounded_LT_Std_Bd_p0"/>
        <use fill="#eee2bc" height="91.6" transform="matrix(0.0146, 0.0, 0.0, 0.0146, 165.7, 14.45)" width="323.1" xlink:href="#font_HelveticaRounded_LT_Std_Bd_l0"/>
        <use fill="#eee2bc" height="91.6" transform="matrix(0.0146, 0.0, 0.0, 0.0146, 169.85, 14.45)" width="323.1" xlink:href="#font_HelveticaRounded_LT_Std_Bd_a0"/>
        <use fill="#eee2bc" height="91.6" transform="matrix(0.0146, 0.0, 0.0, 0.0146, 179.0, 14.45)" width="323.1" xlink:href="#font_HelveticaRounded_LT_Std_Bd_c0"/>
        <use fill="#eee2bc" height="91.6" transform="matrix(0.0146, 0.0, 0.0, 0.0146, 187.05, 14.45)" width="323.1" xlink:href="#font_HelveticaRounded_LT_Std_Bd_e0"/>
      </g>
      <g transform="matrix(1.0, 0.0, 0.0, 1.0, -2.0, -2.0)">
        <use fill="#eee2bc" height="91.6" transform="matrix(0.0146, 0.0, 0.0, 0.0146, 200.85, 14.45)" width="323.1" xlink:href="#font_HelveticaRounded_LT_Std_Bd_a0"/>
        <use fill="#eee2bc" height="91.6" transform="matrix(0.0146, 0.0, 0.0, 0.0146, 210.0, 14.45)" width="323.1" xlink:href="#font_HelveticaRounded_LT_Std_Bd_l0"/>
        <use fill="#eee2bc" height="91.6" transform="matrix(0.0146, 0.0, 0.0, 0.0146, 214.15, 14.45)" width="323.1" xlink:href="#font_HelveticaRounded_LT_Std_Bd_l0"/>
      </g>
      <g transform="matrix(1.0, 0.0, 0.0, 1.0, -2.0, -2.0)">
        <use fill="#eee2bc" height="91.6" transform="matrix(0.0146, 0.0, 0.0, 0.0146, 222.9, 14.45)" width="323.1" xlink:href="#font_HelveticaRounded_LT_Std_Bd_m0"/>
        <use fill="#eee2bc" height="91.6" transform="matrix(0.0146, 0.0, 0.0, 0.0146, 236.8, 14.45)" width="323.1" xlink:href="#font_HelveticaRounded_LT_Std_Bd_a0"/>
        <use fill="#eee2bc" height="91.6" transform="matrix(0.0146, 0.0, 0.0, 0.0146, 245.95, 14.45)" width="323.1" xlink:href="#font_HelveticaRounded_LT_Std_Bd_t0"/>
        <use fill="#eee2bc" height="91.6" transform="matrix(0.0146, 0.0, 0.0, 0.0146, 251.5, 14.45)" width="323.1" xlink:href="#font_HelveticaRounded_LT_Std_Bd_e0"/>
        <use fill="#eee2bc" height="91.6" transform="matrix(0.0146, 0.0, 0.0, 0.0146, 260.7, 14.45)" width="323.1" xlink:href="#font_HelveticaRounded_LT_Std_Bd_r0"/>
        <use fill="#eee2bc" height="91.6" transform="matrix(0.0146, 0.0, 0.0, 0.0146, 266.8, 14.45)" width="323.1" xlink:href="#font_HelveticaRounded_LT_Std_Bd_i0"/>
        <use fill="#eee2bc" height="91.6" transform="matrix(0.0146, 0.0, 0.0, 0.0146, 270.95, 14.45)" width="323.1" xlink:href="#font_HelveticaRounded_LT_Std_Bd_a0"/>
        <use fill="#eee2bc" height="91.6" transform="matrix(0.0146, 0.0, 0.0, 0.0146, 280.1, 14.45)" width="323.1" xlink:href="#font_HelveticaRounded_LT_Std_Bd_l0"/>
      </g>
      <g transform="matrix(1.0, 0.0, 0.0, 1.0, -2.0, -2.0)">
        <use fill="#eee2bc" height="91.6" transform="matrix(0.0146, 0.0, 0.0, 0.0146, 0.0, 32.1)" width="323.1" xlink:href="#font_HelveticaRounded_LT_Std_Bd_d0"/>
        <use fill="#eee2bc" height="91.6" transform="matrix(0.0146, 0.0, 0.0, 0.0146, 9.15, 32.1)" width="323.1" xlink:href="#font_HelveticaRounded_LT_Std_Bd_r0"/>
        <use fill="#eee2bc" height="91.6" transform="matrix(0.0146, 0.0, 0.0, 0.0146, 15.25, 32.1)" width="323.1" xlink:href="#font_HelveticaRounded_LT_Std_Bd_o0"/>
        <use fill="#eee2bc" height="91.6" transform="matrix(0.0146, 0.0, 0.0, 0.0146, 24.45, 32.1)" width="323.1" xlink:href="#font_HelveticaRounded_LT_Std_Bd_p0"/>
        <use fill="#eee2bc" height="91.6" transform="matrix(0.0146, 0.0, 0.0, 0.0146, 33.6, 32.1)" width="323.1" xlink:href="#font_HelveticaRounded_LT_Std_Bd_s0"/>
      </g>
      <g transform="matrix(1.0, 0.0, 0.0, 1.0, -2.0, -2.0)">
        <use fill="#eee2bc" height="91.6" transform="matrix(0.0146, 0.0, 0.0, 0.0146, 46.25, 32.1)" width="323.1" xlink:href="#font_HelveticaRounded_LT_Std_Bd_w0"/>
        <use fill="#eee2bc" height="91.6" transform="matrix(0.0146, 0.0, 0.0, 0.0146, 57.9, 32.1)" width="323.1" xlink:href="#font_HelveticaRounded_LT_Std_Bd_i0"/>
        <use fill="#eee2bc" height="91.6" transform="matrix(0.0146, 0.0, 0.0, 0.0146, 62.05, 32.1)" width="323.1" xlink:href="#font_HelveticaRounded_LT_Std_Bd_l0"/>
        <use fill="#eee2bc" height="91.6" transform="matrix(0.0146, 0.0, 0.0, 0.0146, 66.2, 32.1)" width="323.1" xlink:href="#font_HelveticaRounded_LT_Std_Bd_l0"/>
      </g>
      <g transform="matrix(1.0, 0.0, 0.0, 1.0, -2.0, -2.0)">
        <use fill="#eee2bc" height="91.6" transform="matrix(0.0146, 0.0, 0.0, 0.0146, 74.95, 32.1)" width="323.1" xlink:href="#font_HelveticaRounded_LT_Std_Bd_b0"/>
        <use fill="#eee2bc" height="91.6" transform="matrix(0.0146, 0.0, 0.0, 0.0146, 84.1, 32.1)" width="323.1" xlink:href="#font_HelveticaRounded_LT_Std_Bd_e0"/>
      </g>
      <g transform="matrix(1.0, 0.0, 0.0, 1.0, -2.0, -2.0)">
        <use fill="#eee2bc" height="91.6" transform="matrix(0.0146, 0.0, 0.0, 0.0146, 97.9, 32.1)" width="323.1" xlink:href="#font_HelveticaRounded_LT_Std_Bd_d0"/>
        <use fill="#eee2bc" height="91.6" transform="matrix(0.0146, 0.0, 0.0, 0.0146, 107.05, 32.1)" width="323.1" xlink:href="#font_HelveticaRounded_LT_Std_Bd_o0"/>
        <use fill="#eee2bc" height="91.6" transform="matrix(0.0146, 0.0, 0.0, 0.0146, 116.25, 32.1)" width="323.1" xlink:href="#font_HelveticaRounded_LT_Std_Bd_u0"/>
        <use fill="#eee2bc" height="91.6" transform="matrix(0.0146, 0.0, 0.0, 0.0146, 125.4, 32.1)" width="323.1" xlink:href="#font_HelveticaRounded_LT_Std_Bd_b0"/>
        <use fill="#eee2bc" height="91.6" transform="matrix(0.0146, 0.0, 0.0, 0.0146, 134.55, 32.1)" width="323.1" xlink:href="#font_HelveticaRounded_LT_Std_Bd_l0"/>
        <use fill="#eee2bc" height="91.6" transform="matrix(0.0146, 0.0, 0.0, 0.0146, 138.7, 32.1)" width="323.1" xlink:href="#font_HelveticaRounded_LT_Std_Bd_e0"/>
        <use fill="#eee2bc" height="91.6" transform="matrix(0.0146, 0.0, 0.0, 0.0146, 147.9, 32.1)" width="323.1" xlink:href="#font_HelveticaRounded_LT_Std_Bd_d0"/>
      </g>
      <g transform="matrix(1.0, 0.0, 0.0, 1.0, -2.0, -2.0)">
        <use fill="#eee2bc" height="91.6" transform="matrix(0.0146, 0.0, 0.0, 0.0146, 161.65, 32.1)" width="323.1" xlink:href="#font_HelveticaRounded_LT_Std_Bd_w0"/>
        <use fill="#eee2bc" height="91.6" transform="matrix(0.0146, 0.0, 0.0, 0.0146, 173.3, 32.1)" width="323.1" xlink:href="#font_HelveticaRounded_LT_Std_Bd_o0"/>
        <use fill="#eee2bc" height="91.6" transform="matrix(0.0146, 0.0, 0.0, 0.0146, 182.5, 32.1)" width="323.1" xlink:href="#font_HelveticaRounded_LT_Std_Bd_r0"/>
        <use fill="#eee2bc" height="91.6" transform="matrix(0.0146, 0.0, 0.0, 0.0146, 188.6, 32.1)" width="323.1" xlink:href="#font_HelveticaRounded_LT_Std_Bd_l0"/>
        <use fill="#eee2bc" height="91.6" transform="matrix(0.0146, 0.0, 0.0, 0.0146, 192.75, 32.1)" width="323.1" xlink:href="#font_HelveticaRounded_LT_Std_Bd_d0"/>
      </g>
      <g transform="matrix(1.0, 0.0, 0.0, 1.0, -2.0, -2.0)">
        <use fill="#eee2bc" height="91.6" transform="matrix(0.0146, 0.0, 0.0, 0.0146, 206.5, 32.1)" width="323.1" xlink:href="#font_HelveticaRounded_LT_Std_Bd_w0"/>
        <use fill="#eee2bc" height="91.6" transform="matrix(0.0146, 0.0, 0.0, 0.0146, 218.15, 32.1)" width="323.1" xlink:href="#font_HelveticaRounded_LT_Std_Bd_i0"/>
        <use fill="#eee2bc" height="91.6" transform="matrix(0.0146, 0.0, 0.0, 0.0146, 222.3, 32.1)" width="323.1" xlink:href="#font_HelveticaRounded_LT_Std_Bd_d0"/>
        <use fill="#eee2bc" height="91.6" transform="matrix(0.0146, 0.0, 0.0, 0.0146, 231.45, 32.1)" width="323.1" xlink:href="#font_HelveticaRounded_LT_Std_Bd_e0"/>
      </g>
    </g>
    <g id="font_HelveticaRounded_LT_Std_Bd_W0">
      <path d="M930.5 -627.0 L786.5 -66.5 Q775.5 -23.0 753.0 -4.5 730.0 14.0 685.0 13.5 638.5 13.5 616.5 -7.0 594.5 -27.5 584.5 -69.5 L475.0 -519.5 473.0 -519.5 363.5 -69.5 Q354.5 -27.5 332.0 -7.0 309.5 13.5 263.0 13.5 218.0 14.0 195.0 -4.5 172.5 -23.0 161.5 -66.5 L17.5 -627.0 Q14.0 -638.5 11.5 -650.5 9.0 -663.0 9.0 -675.0 9.5 -700.5 21.5 -717.5 33.5 -734.5 51.5 -742.5 70.0 -751.0 90.0 -751.0 122.0 -751.5 141.5 -735.0 161.0 -719.0 169.0 -682.5 L268.0 -192.5 270.0 -192.5 385.0 -688.5 Q390.5 -719.5 409.0 -735.0 427.5 -751.0 473.0 -751.0 508.0 -751.0 527.0 -740.5 546.0 -730.0 554.5 -712.5 563.5 -694.5 568.0 -671.0 L680.0 -192.5 682.0 -192.5 782.0 -682.5 Q790.0 -719.0 809.0 -735.0 828.0 -751.5 858.0 -751.0 878.0 -751.0 896.5 -742.5 914.5 -734.5 926.5 -717.5 938.5 -700.5 939.0 -675.0 939.0 -663.0 936.5 -650.5 934.0 -638.5 930.5 -627.0" fill-rule="evenodd" stroke="none"/>
    </g>
    <g id="font_HelveticaRounded_LT_Std_Bd_h0">
      <path d="M59.5 -61.5 L59.5 -676.0 Q60.0 -713.0 80.0 -732.0 100.0 -751.0 134.5 -751.0 168.5 -751.0 188.5 -732.0 208.5 -713.0 209.0 -676.0 L209.0 -470.0 211.0 -470.0 Q226.0 -490.0 248.5 -508.0 271.5 -525.5 303.5 -537.0 335.5 -548.5 378.0 -549.0 424.0 -549.5 467.0 -531.5 510.0 -514.0 537.5 -470.5 565.5 -427.5 566.5 -352.5 L566.5 -61.5 Q567.5 -30.5 551.0 -9.0 534.5 12.5 492.0 13.5 449.0 12.5 432.5 -9.0 416.0 -30.5 417.0 -61.5 L417.0 -322.5 Q417.0 -368.5 394.0 -397.0 371.0 -425.5 322.5 -426.0 296.0 -426.0 270.0 -412.0 244.0 -398.5 227.0 -372.0 209.5 -345.5 209.0 -308.0 L209.0 -61.5 Q210.0 -30.5 193.5 -9.0 177.0 12.5 134.5 13.5 91.5 12.5 75.0 -9.0 58.5 -30.5 59.5 -61.5" fill-rule="evenodd" stroke="none"/>
    </g>
    <g id="font_HelveticaRounded_LT_Std_Bd_p0">
      <path d="M439.5 -269.5 Q439.5 -314.0 426.5 -350.5 413.5 -387.0 387.0 -409.0 360.5 -431.0 320.5 -432.5 277.5 -432.0 251.0 -409.0 224.5 -386.5 212.5 -349.5 200.5 -312.5 201.0 -269.5 200.5 -230.0 211.5 -191.5 222.5 -153.5 249.0 -128.5 275.5 -103.5 320.5 -103.0 368.0 -104.0 394.0 -130.5 420.0 -157.0 430.0 -195.0 440.0 -233.0 439.5 -269.5 M59.5 137.5 L59.5 -478.5 Q59.5 -513.0 76.0 -531.0 92.5 -549.0 127.0 -549.0 160.0 -549.0 177.5 -531.0 194.5 -513.0 194.5 -478.5 L194.5 -455.0 196.5 -455.0 Q216.0 -502.5 257.5 -525.5 299.0 -549.0 354.5 -549.0 418.0 -549.0 471.0 -518.0 524.0 -487.5 556.0 -424.0 588.0 -361.0 589.0 -264.0 589.0 -191.0 564.5 -128.5 539.5 -65.5 488.5 -26.5 437.5 12.5 358.5 13.5 307.0 13.0 269.5 -6.5 232.0 -26.0 211.0 -62.0 L209.0 -62.0 209.0 137.5 Q208.5 174.0 188.5 193.0 168.5 212.0 134.5 212.0 100.0 212.0 80.0 193.0 60.0 174.0 59.5 137.5" fill-rule="evenodd" stroke="none"/>
    </g>
    <g id="font_HelveticaRounded_LT_Std_Bd_c0">
      <path d="M30.5 -257.0 Q30.5 -344.0 62.5 -409.5 94.5 -475.0 157.0 -511.5 219.5 -548.5 311.0 -549.0 374.0 -548.5 423.0 -528.0 472.0 -508.0 500.5 -476.0 528.5 -444.5 529.0 -409.0 528.5 -376.5 508.5 -360.5 488.5 -344.0 459.5 -344.0 434.0 -345.0 421.0 -358.0 408.0 -371.0 397.0 -388.5 386.0 -405.5 366.0 -418.5 346.5 -432.0 307.0 -432.5 277.0 -433.0 248.0 -417.0 219.0 -401.0 200.0 -362.5 180.5 -324.0 180.0 -257.0 180.0 -186.0 212.0 -145.0 244.5 -104.0 306.0 -103.0 344.0 -103.5 364.0 -118.0 384.0 -132.5 396.0 -151.0 408.0 -170.0 423.0 -184.5 438.0 -198.5 466.5 -199.5 495.5 -198.5 512.0 -182.0 529.0 -165.0 529.0 -142.0 529.0 -108.0 504.5 -72.5 479.5 -37.0 429.0 -12.5 378.5 12.5 302.0 13.5 210.0 13.0 149.5 -21.5 89.5 -56.5 60.0 -117.0 30.5 -178.0 30.5 -257.0" fill-rule="evenodd" stroke="none"/>
    </g>
    <g id="font_HelveticaRounded_LT_Std_Bd_m0">
      <path d="M59.5 -61.5 L59.5 -474.0 Q60.0 -508.5 78.5 -528.5 97.0 -548.5 130.0 -549.0 163.5 -548.5 182.0 -528.5 200.5 -508.5 201.0 -474.0 L201.0 -454.5 203.0 -454.5 Q232.5 -499.5 279.0 -524.0 326.0 -548.5 383.0 -549.0 409.0 -549.0 437.0 -540.0 464.5 -531.5 488.5 -510.5 512.0 -490.0 526.5 -454.5 557.5 -499.0 600.0 -523.5 642.5 -548.5 702.5 -549.0 755.0 -549.5 797.0 -532.0 839.0 -514.0 863.5 -474.5 888.5 -434.5 889.0 -367.5 L889.0 -61.5 Q890.0 -30.5 873.5 -9.0 857.0 12.5 814.5 13.5 771.5 12.5 755.0 -9.0 738.5 -30.5 739.5 -61.5 L739.5 -330.0 Q740.0 -370.5 720.5 -398.0 701.0 -425.0 657.5 -426.0 628.5 -426.0 604.0 -411.5 579.5 -397.0 564.5 -371.5 549.5 -345.5 549.0 -310.5 L549.0 -61.5 Q550.0 -30.5 533.5 -9.0 517.0 12.5 474.5 13.5 431.5 12.5 415.0 -9.0 398.5 -30.5 399.5 -61.5 L399.5 -330.0 Q400.0 -370.5 380.5 -398.0 361.0 -425.0 317.5 -426.0 288.5 -426.0 264.0 -411.5 239.5 -397.0 224.5 -371.5 209.5 -345.5 209.0 -310.5 L209.0 -61.5 Q210.0 -30.5 193.5 -9.0 177.0 12.5 134.5 13.5 91.5 12.5 75.0 -9.0 58.5 -30.5 59.5 -61.5" fill-rule="evenodd" stroke="none"/>
    </g>
    <g id="font_HelveticaRounded_LT_Std_Bd_r0">
      <path d="M67.5 -61.5 L67.5 -479.5 Q68.0 -513.5 87.0 -531.0 106.0 -549.0 135.0 -549.0 164.0 -549.0 183.0 -531.0 202.0 -513.5 202.5 -479.5 L202.5 -422.0 204.5 -422.0 Q213.0 -454.0 228.5 -482.5 243.5 -511.5 268.0 -530.0 292.5 -548.5 328.5 -549.0 364.5 -548.5 387.0 -528.5 410.0 -508.5 410.5 -476.5 409.5 -435.5 387.5 -418.0 365.5 -401.0 337.0 -401.5 L310.0 -401.5 Q264.5 -403.0 241.0 -365.0 217.0 -327.5 217.0 -235.5 L217.0 -61.5 Q218.0 -30.5 201.5 -9.0 185.0 12.5 142.5 13.5 99.5 12.5 83.0 -9.0 66.5 -30.5 67.5 -61.5" fill-rule="evenodd" stroke="none"/>
    </g>
    <g id="font_HelveticaRounded_LT_Std_Bd_o0">
      <path d="M37.0 -268.5 Q37.0 -348.0 68.5 -411.0 100.0 -474.5 161.5 -511.5 223.5 -548.0 313.5 -549.0 403.5 -548.0 465.5 -511.5 527.0 -474.5 558.5 -411.0 590.0 -348.0 590.0 -268.5 590.5 -192.5 563.5 -128.5 536.5 -65.0 476.0 -26.5 415.0 12.5 313.5 13.5 212.0 12.5 151.0 -26.5 90.5 -65.0 63.5 -128.5 36.5 -192.5 37.0 -268.5 M186.5 -268.5 Q186.5 -222.0 199.5 -183.5 213.0 -144.5 241.0 -121.0 269.0 -97.5 313.5 -97.0 358.0 -97.5 386.0 -121.0 414.0 -144.5 427.5 -183.5 440.5 -222.0 440.5 -268.5 440.5 -317.5 427.0 -355.5 413.5 -394.0 385.0 -416.0 357.0 -438.0 313.5 -438.5 270.0 -438.0 242.0 -416.0 213.5 -394.0 200.0 -355.5 186.5 -317.5 186.5 -268.5" fill-rule="evenodd" stroke="none"/>
    </g>
    <g id="font_HelveticaRounded_LT_Std_Bd_b0">
      <path d="M439.5 -266.0 Q440.0 -302.5 430.0 -340.5 420.0 -378.5 394.0 -405.0 368.0 -431.5 320.5 -432.5 275.5 -432.0 249.0 -407.0 222.5 -382.0 211.5 -344.0 200.5 -305.5 201.0 -266.0 200.5 -223.0 212.5 -186.0 224.5 -149.0 251.0 -126.5 277.5 -103.5 320.5 -103.0 360.5 -104.5 387.0 -126.5 413.5 -148.5 426.5 -185.0 439.5 -221.5 439.5 -266.0 M59.5 -57.0 L59.5 -676.0 Q60.0 -713.0 80.0 -732.0 100.0 -751.0 134.5 -751.0 168.5 -751.0 188.5 -732.0 208.5 -713.0 209.0 -676.0 L209.0 -473.5 211.0 -473.5 Q233.5 -509.5 271.0 -529.0 308.5 -548.5 358.5 -549.0 437.5 -548.0 488.5 -509.0 539.5 -470.0 564.5 -407.0 589.0 -344.5 589.0 -271.5 588.0 -174.5 556.0 -111.5 524.0 -48.0 471.0 -17.5 418.0 13.5 354.5 13.5 299.0 13.5 257.5 -10.0 216.0 -33.0 196.5 -80.5 L194.5 -80.5 194.5 -57.0 Q194.5 -22.5 177.5 -4.5 160.0 13.5 127.0 13.5 92.5 13.5 76.0 -4.5 59.5 -22.5 59.5 -57.0" fill-rule="evenodd" stroke="none"/>
    </g>
    <g id="font_HelveticaRounded_LT_Std_Bd_u0">
      <path d="M566.5 -474.0 L566.5 -61.5 Q566.5 -27.0 550.5 -7.0 534.0 13.0 499.0 13.5 464.0 13.0 447.5 -7.0 431.0 -27.0 431.5 -61.5 L431.5 -81.0 429.5 -81.0 Q398.5 -38.5 355.0 -13.0 311.0 12.5 248.0 13.5 202.0 14.0 159.0 -4.0 116.0 -21.5 88.5 -65.0 60.5 -108.0 59.5 -183.0 L59.5 -474.0 Q58.5 -505.0 75.0 -526.5 91.5 -548.0 134.5 -549.0 177.0 -548.0 193.5 -526.5 210.0 -505.0 209.0 -474.0 L209.0 -213.0 Q209.0 -167.0 232.0 -138.5 255.0 -110.0 303.5 -109.5 330.0 -109.5 356.0 -123.5 382.0 -137.0 399.0 -163.5 416.5 -190.0 417.0 -227.5 L417.0 -474.0 Q416.0 -505.0 432.5 -526.5 449.0 -548.0 492.0 -549.0 534.5 -548.0 551.0 -526.5 567.5 -505.0 566.5 -474.0" fill-rule="evenodd" stroke="none"/>
    </g>
    <g id="sprite20" transform="matrix(1.0, 0.0, 0.0, 1.0, 0.0, 0.0)">
      <use ffdec:characterId="302" height="26.3" transform="matrix(1.0, 0.0, 0.0, 1.0, 0.0, 18.65)" width="183.3" xlink:href="#sprite21"/>
      <filter id="filter96">
        <feColorMatrix in="SourceGraphic" result="filterResult9" type="matrix" values="0 0 0 0 0.20392157,0 0 0 0 0.16862746,0 0 0 0 0.05490196,0 0 0 1 0"/>
        <feConvolveMatrix divisor="16.0" in="filterResult9" kernelMatrix="1 1 1 1 1 1 1 1 1 1 1 1 1 1 1 1" order="4 4" result="filterResult10"/>
        <feComposite in="SourceGraphic" in2="filterResult10" operator="over" result="filterResult11"/>
      </filter>
      <use ffdec:characterId="356" filter="url(#filter96)" height="21.65" id="am_TimeLeftText" transform="matrix(1.0, 0.0, 0.0, 1.0, 30.0, 20.65)" width="146.05" xlink:href="#text3"/>
      <filter id="filter110">
        <feColorMatrix in="SourceGraphic" result="filterResult12" type="matrix" values="0 0 0 0 0.0,0 0 0 0 0.1764706,0 0 0 0 0.21568628,0 0 0 1 0"/>
        <feConvolveMatrix divisor="16.0" in="filterResult12" kernelMatrix="1 1 1 1 1 1 1 1 1 1 1 1 1 1 1 1" order="4 4" result="filterResult13"/>
        <feComposite in="SourceGraphic" in2="filterResult13" operator="over" result="filterResult14"/>
      </filter>
      <use ffdec:characterId="357" filter="url(#filter110)" height="21.65" transform="matrix(1.0, 0.0, 0.0, 1.0, 1.05, 0.0)" width="131.0" xlink:href="#text4"/>
    </g>
    <g id="sprite21" transform="matrix(1.0, 0.0, 0.0, 1.0, 0.0, 0.0)">
      <use ffdec:characterId="299" height="23.0" transform="matrix(1.0, 0.0, 0.0, 1.0, 9.4, 1.25)" width="173.9" xlink:href="#shape10"/>
      <use ffdec:characterId="301" height="45.35" transform="matrix(0.58, 0.0, 0.0, 0.58, 0.02, 0.02)" width="45.35" xlink:href="#sprite22"/>
    </g>
    <g id="shape10" transform="matrix(1.0, 0.0, 0.0, 1.0, -9.4, -1.25)">
      <path d="M171.8 1.25 Q176.6 1.25 179.95 4.6 183.3 7.95 183.3 12.75 183.3 17.55 179.95 20.9 176.6 24.25 171.8 24.25 L20.9 24.25 Q16.1 24.25 12.75 20.9 9.4 17.55 9.4 12.75 9.4 7.95 12.75 4.6 16.1 1.25 20.9 1.25 L171.8 1.25" fill="#333333" fill-opacity="0.7490196" fill-rule="evenodd" stroke="none"/>
    </g>
    <g id="sprite22" transform="matrix(1.0, 0.0, 0.0, 1.0, 1.0, 1.0)">
      <use ffdec:characterId="300" height="45.35" transform="matrix(1.0, 0.0, 0.0, 1.0, -1.0, -1.0)" width="45.35" xlink:href="#shape11"/>
    </g>
    <g id="shape11" transform="matrix(1.0, 0.0, 0.0, 1.0, 1.0, 1.0)">
      <path d="M33.85 9.45 Q28.8 4.4 21.65 4.4 14.5 4.4 9.4 9.45 4.35 14.55 4.35 21.7 4.35 28.85 9.4 33.9 14.5 39.0 21.65 39.0 28.8 39.0 33.85 33.9 38.95 28.85 38.95 21.7 38.95 14.55 33.85 9.45 M36.95 6.35 Q43.35 12.75 43.35 21.7 43.35 30.65 36.95 37.0 30.6 43.35 21.65 43.35 12.7 43.35 6.3 37.0 0.0 30.65 0.0 21.7 0.0 12.75 6.3 6.35 12.7 0.0 21.65 0.0 30.6 0.0 36.95 6.35" fill="url(#gradient7)" fill-rule="evenodd" stroke="none"/>
      <path d="M33.85 9.45 Q38.95 14.55 38.95 21.7 38.95 28.85 33.85 33.9 28.8 39.0 21.65 39.0 14.5 39.0 9.4 33.9 4.35 28.85 4.35 21.7 4.35 14.55 9.4 9.45 14.5 4.4 21.65 4.4 28.8 4.4 33.85 9.45" fill="url(#gradient8)" fill-rule="evenodd" stroke="none"/>
      <path d="M5.6 5.65 Q12.3 -1.0 21.65 -1.0 31.0 -1.0 37.65 5.65 44.35 12.35 44.35 21.7 44.35 31.05 37.65 37.7 31.0 44.35 21.65 44.35 12.3 44.35 5.6 37.7 -1.0 31.05 -1.0 21.7 -1.0 12.35 5.6 5.65 M38.45 21.7 Q38.45 14.75 33.5 9.8 28.6 4.9 21.65 4.9 14.7 4.9 9.75 9.8 4.85 14.75 4.85 21.7 4.85 28.65 9.75 33.55 14.7 38.5 21.65 38.5 28.6 38.5 33.5 33.55 38.45 28.65 38.45 21.7 M34.2 9.1 Q39.45 14.35 39.45 21.7 39.45 29.05 34.2 34.25 29.0 39.5 21.65 39.5 14.3 39.5 9.05 34.25 3.85 29.05 3.85 21.7 3.85 14.35 9.05 9.1 14.3 3.9 21.65 3.9 29.0 3.9 34.2 9.1 M36.25 7.05 Q30.2 1.0 21.65 1.0 13.1 1.0 7.0 7.05 L7.05 7.05 Q1.0 13.15 1.0 21.7 1.0 30.25 7.0 36.3 13.1 42.35 21.65 42.35 30.2 42.35 36.25 36.3 42.35 30.25 42.35 21.7 42.35 13.15 36.25 7.05 M22.3 7.55 Q22.85 8.1 22.85 8.95 L22.85 20.7 34.6 20.7 Q35.45 20.7 36.05 21.3 36.6 21.85 36.6 22.7 36.6 23.55 36.05 24.15 35.45 24.7 34.6 24.7 L21.1 24.7 Q20.25 24.7 19.7 24.15 L19.55 24.0 19.45 23.9 Q18.85 23.3 18.85 22.45 L18.85 8.95 Q18.85 8.1 19.45 7.55 20.0 6.95 20.85 6.95 21.7 6.95 22.3 7.55" fill="#0a373d" fill-rule="evenodd" stroke="none"/>
      <path d="M29.7 21.25 Q26.25 23.7 21.4 23.7 16.65 23.7 13.15 21.25 9.7 18.85 9.7 15.35 9.7 11.9 13.15 9.45 16.65 7.05 21.4 7.05 26.25 7.05 29.7 9.45 33.1 11.9 33.1 15.4 33.1 18.85 29.7 21.25" fill="url(#gradient9)" fill-rule="evenodd" stroke="none"/>
    </g>
    <linearGradient gradientTransform="matrix(0.0, -0.0265, 0.0265, 0.0, 21.6, 21.7)" gradientUnits="userSpaceOnUse" id="gradient7" spreadMethod="pad" x1="-819.2" x2="819.2">
      <stop offset="0.0" stop-color="#026b77"/>
      <stop offset="1.0" stop-color="#abf5fe"/>
    </linearGradient>
    <linearGradient gradientTransform="matrix(-2.0E-4, 0.0211, -0.0211, -2.0E-4, 21.65, 21.7)" gradientUnits="userSpaceOnUse" id="gradient8" spreadMethod="pad" x1="-819.2" x2="819.2">
      <stop offset="0.0" stop-color="#999999"/>
      <stop offset="1.0" stop-color="#ffffff"/>
    </linearGradient>
    <linearGradient gradientTransform="matrix(-2.0E-4, 0.0107, -0.0102, -2.0E-4, 21.4, 15.35)" gradientUnits="userSpaceOnUse" id="gradient9" spreadMethod="pad" x1="-819.2" x2="819.2">
      <stop offset="0.0" stop-color="#ffffff" stop-opacity="0.7490196"/>
      <stop offset="1.0" stop-color="#ffffff" stop-opacity="0.0"/>
    </linearGradient>
    <g id="text3" transform="matrix(1.0, 0.0, 0.0, 1.0, 2.0, 2.0)">
      <g transform="matrix(1.0, 0.0, 0.0, 1.0, -2.0, -2.0)">
        <use fill="#eee2bc" height="21.65" transform="matrix(0.0146, 0.0, 0.0, 0.0146, 0.0, 16.45)" width="146.05" xlink:href="#font_HelveticaRounded_LT_Std_Bd_90"/>
        <use fill="#eee2bc" height="21.65" transform="matrix(0.0146, 0.0, 0.0, 0.0146, 9.2, 16.45)" width="146.05" xlink:href="#font_HelveticaRounded_LT_Std_Bd_90"/>
        <use fill="#eee2bc" height="21.65" transform="matrix(0.0146, 0.0, 0.0, 0.0146, 18.4, 16.45)" width="146.05" xlink:href="#font_HelveticaRounded_LT_Std_Bd_:0"/>
        <use fill="#eee2bc" height="21.65" transform="matrix(0.0146, 0.0, 0.0, 0.0146, 23.0, 16.45)" width="146.05" xlink:href="#font_HelveticaRounded_LT_Std_Bd_90"/>
        <use fill="#eee2bc" height="21.65" transform="matrix(0.0146, 0.0, 0.0, 0.0146, 32.2, 16.45)" width="146.05" xlink:href="#font_HelveticaRounded_LT_Std_Bd_90"/>
        <use fill="#eee2bc" height="21.65" transform="matrix(0.0146, 0.0, 0.0, 0.0146, 41.4, 16.45)" width="146.05" xlink:href="#font_HelveticaRounded_LT_Std_Bd_:0"/>
        <use fill="#eee2bc" height="21.65" transform="matrix(0.0146, 0.0, 0.0, 0.0146, 46.0, 16.45)" width="146.05" xlink:href="#font_HelveticaRounded_LT_Std_Bd_90"/>
        <use fill="#eee2bc" height="21.65" transform="matrix(0.0146, 0.0, 0.0, 0.0146, 55.2, 16.45)" width="146.05" xlink:href="#font_HelveticaRounded_LT_Std_Bd_90"/>
      </g>
    </g>
    <g id="font_HelveticaRounded_LT_Std_Bd_90">
      <path d="M428.5 -484.5 Q427.5 -544.5 396.0 -578.0 364.5 -611.5 308.5 -612.0 252.5 -611.5 221.0 -578.0 190.0 -544.5 189.5 -484.5 190.5 -419.5 223.5 -389.0 256.5 -358.0 308.5 -358.5 359.5 -359.0 393.5 -391.0 427.0 -423.5 428.5 -484.5 M437.5 -295.0 L437.5 -313.5 Q405.0 -282.0 367.0 -265.0 328.5 -248.0 277.5 -248.0 200.5 -249.0 147.5 -279.0 95.0 -309.5 67.5 -360.5 40.0 -411.5 40.0 -474.5 41.0 -559.0 75.5 -615.5 110.5 -672.0 170.0 -700.0 229.5 -728.5 305.5 -728.5 386.5 -728.0 441.0 -699.5 495.5 -671.5 527.5 -624.0 559.5 -576.5 573.5 -517.5 587.5 -459.0 587.0 -397.5 586.5 -246.5 549.5 -156.0 512.0 -65.5 443.5 -25.5 374.5 14.5 278.5 13.5 217.5 13.0 171.5 -7.0 125.5 -26.5 100.0 -56.5 74.0 -86.5 74.0 -118.5 74.5 -147.0 92.5 -166.0 111.0 -184.5 138.5 -185.5 163.0 -184.5 179.0 -171.5 195.0 -158.5 209.5 -141.0 223.5 -124.0 242.5 -111.0 261.5 -97.5 292.0 -97.0 345.0 -98.0 377.0 -127.5 409.0 -156.5 423.5 -202.0 438.0 -247.0 437.5 -295.0" fill-rule="evenodd" stroke="none"/>
    </g>
    <g id="font_HelveticaRounded_LT_Std_Bd_:0">
      <path d="M72.5 -76.5 Q73.5 -112.0 97.0 -136.0 121.0 -159.5 156.5 -160.5 192.0 -159.5 216.0 -136.0 239.5 -112.0 240.5 -76.5 239.5 -41.0 216.0 -17.0 192.0 6.5 156.5 7.5 121.0 6.5 97.0 -17.0 73.5 -41.0 72.5 -76.5 M72.5 -451.5 Q73.5 -487.0 97.0 -511.0 121.0 -534.5 156.5 -535.5 192.0 -534.5 216.0 -511.0 239.5 -487.0 240.5 -451.5 239.5 -416.0 216.0 -392.0 192.0 -368.5 156.5 -367.5 121.0 -368.5 97.0 -392.0 73.5 -416.0 72.5 -451.5" fill-rule="evenodd" stroke="none"/>
    </g>
    <g id="text4" transform="matrix(1.0, 0.0, 0.0, 1.0, 2.0, 2.0)">
      <g transform="matrix(1.0, 0.0, 0.0, 1.0, -2.0, -2.0)">
        <use fill="#00ccff" height="21.65" transform="matrix(0.0146, 0.0, 0.0, 0.0146, 0.0, 16.45)" width="131.0" xlink:href="#font_HelveticaRounded_LT_Std_Bd_T0"/>
        <use fill="#00ccff" height="21.65" transform="matrix(0.0146, 0.0, 0.0, 0.0146, 8.1, 16.45)" width="131.0" xlink:href="#font_HelveticaRounded_LT_Std_Bd_i0"/>
        <use fill="#00ccff" height="21.65" transform="matrix(0.0146, 0.0, 0.0, 0.0146, 12.25, 16.45)" width="131.0" xlink:href="#font_HelveticaRounded_LT_Std_Bd_m0"/>
        <use fill="#00ccff" height="21.65" transform="matrix(0.0146, 0.0, 0.0, 0.0146, 26.15, 16.45)" width="131.0" xlink:href="#font_HelveticaRounded_LT_Std_Bd_e0"/>
      </g>
      <g transform="matrix(1.0, 0.0, 0.0, 1.0, -2.0, -2.0)">
        <use fill="#00ccff" height="21.65" transform="matrix(0.0146, 0.0, 0.0, 0.0146, 39.95, 16.45)" width="131.0" xlink:href="#font_HelveticaRounded_LT_Std_Bd_R0"/>
        <use fill="#00ccff" height="21.65" transform="matrix(0.0146, 0.0, 0.0, 0.0146, 51.05, 16.45)" width="131.0" xlink:href="#font_HelveticaRounded_LT_Std_Bd_e0"/>
        <use fill="#00ccff" height="21.65" transform="matrix(0.0146, 0.0, 0.0, 0.0146, 60.25, 16.45)" width="131.0" xlink:href="#font_HelveticaRounded_LT_Std_Bd_m0"/>
        <use fill="#00ccff" height="21.65" transform="matrix(0.0146, 0.0, 0.0, 0.0146, 74.15, 16.45)" width="131.0" xlink:href="#font_HelveticaRounded_LT_Std_Bd_a0"/>
        <use fill="#00ccff" height="21.65" transform="matrix(0.0146, 0.0, 0.0, 0.0146, 83.3, 16.45)" width="131.0" xlink:href="#font_HelveticaRounded_LT_Std_Bd_i0"/>
        <use fill="#00ccff" height="21.65" transform="matrix(0.0146, 0.0, 0.0, 0.0146, 87.45, 16.45)" width="131.0" xlink:href="#font_HelveticaRounded_LT_Std_Bd_n0"/>
        <use fill="#00ccff" height="21.65" transform="matrix(0.0146, 0.0, 0.0, 0.0146, 96.6, 16.45)" width="131.0" xlink:href="#font_HelveticaRounded_LT_Std_Bd_i0"/>
        <use fill="#00ccff" height="21.65" transform="matrix(0.0146, 0.0, 0.0, 0.0146, 100.75, 16.45)" width="131.0" xlink:href="#font_HelveticaRounded_LT_Std_Bd_n0"/>
        <use fill="#00ccff" height="21.65" transform="matrix(0.0146, 0.0, 0.0, 0.0146, 109.9, 16.45)" width="131.0" xlink:href="#font_HelveticaRounded_LT_Std_Bd_g0"/>
      </g>
    </g>
    <g id="font_HelveticaRounded_LT_Std_Bd_T0">
      <path d="M258.0 -70.5 L258.0 -596.0 99.5 -596.0 Q62.5 -596.0 37.5 -614.0 13.0 -632.0 12.5 -667.0 13.0 -701.5 37.5 -719.5 62.5 -737.5 99.5 -737.5 L584.5 -737.5 Q621.5 -737.5 646.5 -719.5 671.0 -701.5 671.5 -667.0 671.0 -632.0 646.5 -614.0 621.5 -596.0 584.5 -596.0 L426.0 -596.0 426.0 -70.5 Q425.5 -32.5 403.0 -9.5 381.0 13.0 342.0 13.5 303.0 13.0 281.0 -9.5 258.5 -32.5 258.0 -70.5" fill-rule="evenodd" stroke="none"/>
    </g>
    <g id="font_HelveticaRounded_LT_Std_Bd_R0">
      <path d="M246.0 -608.5 L246.0 -410.0 413.5 -410.0 Q446.0 -409.5 475.0 -417.5 503.5 -425.0 521.5 -446.5 540.0 -468.0 540.5 -509.0 540.0 -567.0 507.5 -588.5 475.0 -609.5 419.0 -608.5 L246.0 -608.5 M78.0 -70.5 L78.0 -639.0 Q78.5 -694.5 105.0 -716.5 131.0 -738.5 176.5 -737.5 L455.5 -737.5 Q554.5 -736.5 610.0 -705.5 665.0 -675.0 687.5 -628.0 709.5 -581.5 708.5 -533.0 708.5 -492.5 693.5 -455.5 678.5 -418.5 650.0 -392.0 621.5 -365.5 581.5 -355.5 L581.5 -353.5 Q624.0 -347.0 646.0 -326.0 668.0 -305.0 676.0 -273.5 683.5 -242.0 683.0 -204.0 683.5 -162.0 689.0 -134.5 694.0 -107.0 699.5 -88.0 705.0 -69.0 705.5 -52.0 705.0 -32.5 693.5 -18.0 682.5 -3.0 664.5 5.0 646.5 13.5 626.5 13.5 592.5 13.0 572.5 -1.0 552.5 -15.0 542.5 -35.0 533.0 -55.0 530.0 -74.5 527.0 -94.0 527.5 -105.5 528.0 -170.0 518.0 -210.0 508.0 -250.0 482.5 -268.5 457.5 -287.5 411.5 -287.0 L246.0 -287.0 246.0 -70.5 Q245.5 -32.5 223.0 -9.5 201.0 13.0 162.0 13.5 123.0 13.0 101.0 -9.5 78.5 -32.5 78.0 -70.5" fill-rule="evenodd" stroke="none"/>
    </g>
    <g id="font_HelveticaRounded_LT_Std_Bd_g0">
      <path d="M566.5 -478.5 L566.5 -44.0 Q566.0 46.0 532.0 104.5 498.0 163.0 438.5 191.5 378.5 219.5 300.0 219.5 242.5 219.0 191.0 203.5 140.0 188.0 108.0 160.0 76.0 132.5 75.0 95.5 75.5 67.5 93.5 50.0 111.0 32.5 136.5 32.0 159.5 32.5 175.5 44.0 192.0 55.5 207.5 70.5 223.0 85.5 243.5 97.0 264.0 108.5 295.0 109.0 363.0 110.0 393.0 71.0 423.5 32.5 423.0 -55.5 L423.0 -86.0 421.0 -86.0 Q400.0 -56.0 361.0 -35.5 322.0 -15.5 276.5 -14.5 197.5 -15.0 144.5 -46.5 91.0 -78.0 64.0 -134.0 37.0 -190.0 37.0 -264.5 38.0 -361.0 70.0 -424.5 102.0 -487.5 154.5 -518.0 207.5 -549.0 271.5 -549.0 326.5 -548.5 367.0 -525.0 408.0 -502.0 429.0 -460.0 L431.5 -460.0 431.5 -478.5 Q431.5 -513.0 448.5 -531.0 465.5 -549.0 499.0 -549.0 533.5 -549.0 550.0 -531.0 566.5 -513.0 566.5 -478.5 M186.5 -269.5 Q186.5 -234.5 198.5 -201.5 210.5 -168.5 236.5 -147.0 263.0 -125.5 305.5 -125.0 356.5 -124.5 389.0 -160.5 422.0 -196.5 423.0 -275.5 422.5 -357.0 394.0 -395.0 365.0 -433.0 312.5 -432.5 264.5 -432.0 237.0 -411.0 209.5 -389.5 197.5 -353.0 186.0 -316.0 186.5 -269.5" fill-rule="evenodd" stroke="none"/>
    </g>
    <g id="sprite23" transform="matrix(1.0, 0.0, 0.0, 1.0, 2.8, 0.0)">
      <use ffdec:characterId="359" height="562.0" transform="matrix(1.0, 0.0, 0.0, 1.0, -2.8, 0.0)" width="5.6" xlink:href="#shape12"/>
    </g>
    <g id="shape12" transform="matrix(1.0, 0.0, 0.0, 1.0, 2.8, 0.0)">
      <path d="M0.15 0.0 L1.2 0.0 1.2 562.0 0.15 562.0 0.15 0.0" fill="#a68e06" fill-rule="evenodd" stroke="none"/>
      <path d="M1.2 562.0 L1.2 0.0 2.8 0.0 2.8 562.0 1.2 562.0 M-1.3 562.0 L-2.8 562.0 -2.8 0.0 -1.3 0.0 -1.3 562.0" fill="#332c02" fill-rule="evenodd" stroke="none"/>
      <path d="M0.15 0.0 L0.15 562.0 -1.3 562.0 -1.3 0.0 0.15 0.0" fill="#f8dd45" fill-rule="evenodd" stroke="none"/>
    </g>
    <g id="sprite24" transform="matrix(1.0, 0.0, 0.0, 1.0, -4.5, -0.3)">
      <use ffdec:characterId="354" height="4.5" transform="matrix(1.6144, 0.0, 0.0, 1.2459, 4.5, 0.3049)" width="207.5" xlink:href="#sprite19"/>
    </g>
  </defs>
</svg>
