<?xml version="1.0" encoding="UTF-8" standalone="no"?>
<svg xmlns:ffdec="https://www.free-decompiler.com/flash" xmlns:xlink="http://www.w3.org/1999/xlink" ffdec:objectType="frame" height="224.6px" width="328.55px" xmlns="http://www.w3.org/2000/svg">
  <g transform="matrix(1.0, 0.0, 0.0, 1.0, 0.0, 0.0)">
    <use ffdec:characterId="1275" height="224.6" transform="matrix(1.0, 0.0, 0.0, 1.0, 0.0, 0.0)" width="328.55" xlink:href="#shape0"/>
    <use ffdec:characterId="1277" height="181.2" transform="matrix(0.7018, 0.0, 0.0, 0.7018, 103.0083, 25.7818)" width="174.75" xlink:href="#sprite0"/>
  </g>
  <defs>
    <g id="shape0" transform="matrix(1.0, 0.0, 0.0, 1.0, 0.0, 0.0)">
      <path d="M327.9 159.3 L327.7 159.3 327.85 159.9 Q325.8 159.65 324.1 159.85 L323.9 159.5 317.4 160.15 311.75 160.85 Q309.2 160.85 307.8 161.85 306.4 162.8 305.7 162.8 304.65 162.8 304.2 161.9 303.8 161.0 302.75 161.0 L298.2 161.65 289.65 162.55 Q287.15 175.0 284.6 192.25 L281.7 212.65 Q281.1 220.35 281.05 224.0 L275.65 224.0 261.95 223.4 230.9 223.75 178.55 224.0 168.0 224.3 167.7 224.4 165.95 224.6 164.3 224.5 162.6 224.6 160.85 224.4 160.55 224.3 150.0 224.0 97.65 223.75 66.6 223.4 52.9 224.0 47.5 224.0 46.85 212.65 43.95 192.25 Q41.4 175.0 38.9 162.55 L30.35 161.65 25.8 161.0 Q24.75 161.0 24.35 161.9 23.9 162.8 22.85 162.8 22.15 162.8 20.75 161.85 19.35 160.85 16.8 160.85 L11.15 160.15 4.65 159.5 4.45 159.85 Q2.75 159.65 0.7 159.9 L0.85 159.3 0.65 159.3 0.0 158.65 1.25 156.9 Q2.4 153.4 10.0 136.9 19.7 115.85 21.75 108.4 27.3 88.4 28.95 83.45 32.8 71.95 37.2 64.55 L39.75 57.05 40.25 54.35 40.45 53.7 62.15 31.45 Q69.0 24.35 91.65 5.75 L94.6 3.05 95.4 2.7 99.45 0.35 103.15 0.35 103.3 0.65 106.15 0.75 161.15 0.55 163.0 0.55 162.8 0.1 163.65 0.0 163.65 0.6 164.25 0.6 164.9 0.6 164.9 0.0 165.75 0.1 165.55 0.55 167.4 0.55 222.4 0.75 225.25 0.65 225.4 0.35 229.1 0.35 Q230.8 1.6 233.15 2.7 L233.95 3.05 236.9 5.75 Q259.55 24.35 266.4 31.45 L288.1 53.7 288.3 54.35 288.8 57.05 291.35 64.55 Q295.75 71.95 299.6 83.45 301.25 88.4 306.8 108.4 308.85 115.85 318.55 136.9 326.15 153.4 327.3 156.9 L328.55 158.65 327.9 159.3 M256.0 25.95 L248.95 19.0 Q238.65 9.1 229.05 4.4 226.95 3.35 224.95 2.6 L224.55 2.45 224.55 2.15 222.4 2.05 164.95 2.05 164.9 2.25 164.9 2.05 163.65 2.05 163.65 2.25 163.6 2.05 113.2 2.05 112.8 2.05 106.15 2.05 104.0 2.15 104.0 2.45 103.95 2.5 Q101.8 3.25 99.65 4.3 89.95 9.0 79.6 19.0 L68.95 29.35 Q63.6 34.4 58.55 38.05 46.7 49.2 41.9 56.5 40.4 62.25 37.85 69.55 31.95 85.2 29.85 91.8 L29.2 91.8 30.05 87.6 Q25.6 101.0 25.6 103.9 25.6 105.0 24.85 107.75 24.1 110.5 24.1 111.55 24.1 115.35 10.9 145.45 L5.85 156.8 12.4 157.6 12.65 157.65 13.4 157.8 14.4 157.95 21.95 159.25 Q28.4 160.5 40.9 159.3 42.5 160.15 42.5 163.3 L42.15 167.15 42.15 167.3 43.45 174.45 43.85 176.05 43.0 179.25 43.35 181.1 Q45.25 190.75 47.4 200.25 L47.6 201.05 47.6 201.2 49.05 207.3 51.65 216.8 51.65 216.95 51.2 220.55 52.35 220.7 53.25 220.8 53.4 220.85 53.75 221.0 54.3 220.95 55.65 221.15 57.3 221.45 59.5 221.65 61.45 221.65 97.65 220.8 150.0 220.6 160.3 220.35 Q160.55 219.95 162.6 219.95 L164.3 220.1 165.95 219.95 Q168.0 219.95 168.3 220.35 L178.55 220.6 230.9 220.8 264.4 221.6 268.4 221.65 268.8 221.65 269.0 221.65 269.05 221.65 272.35 221.25 272.9 221.15 274.25 220.95 274.8 221.0 275.15 220.85 277.35 220.55 Q276.9 218.1 276.9 216.95 L276.9 216.8 277.95 213.25 279.85 205.9 281.15 200.25 283.3 190.55 285.55 179.25 284.7 176.05 285.1 174.45 286.4 167.3 286.4 167.15 286.05 163.3 Q286.05 160.15 287.65 159.3 299.35 160.4 305.75 159.4 L306.6 159.25 307.4 159.1 307.65 159.05 308.45 158.9 319.25 157.2 322.7 156.8 317.65 145.45 Q304.45 115.35 304.45 111.55 304.45 110.5 303.7 107.75 302.95 105.0 302.95 103.9 302.95 101.0 298.5 87.6 L299.35 91.8 298.7 91.8 Q296.6 85.2 290.7 69.55 288.15 62.25 286.65 56.5 281.85 49.2 270.0 38.05 265.3 34.65 260.3 30.0 L259.6 29.35 256.25 26.15 256.0 25.95" fill="#828053" fill-rule="evenodd" stroke="none"/>
      <path d="M256.0 25.95 Q253.2 23.35 251.35 21.95 246.05 17.85 243.5 18.1 241.3 17.35 240.3 19.25 239.5 20.75 239.5 26.35 L264.2 133.25 264.0 132.45 Q269.8 110.75 270.3 105.5 L270.9 105.5 271.1 106.2 271.15 108.05 270.4 120.3 269.65 132.6 266.75 148.25 267.25 149.7 Q269.75 156.7 269.75 160.45 272.9 177.75 277.0 194.85 278.45 200.9 279.85 205.9 L277.95 213.25 276.25 208.5 Q267.35 183.85 264.75 172.9 262.55 163.75 259.55 142.9 256.8 123.6 254.05 113.6 249.05 95.4 240.45 54.3 234.0 23.35 229.05 4.4 238.65 9.1 248.95 19.0 L256.0 25.95 M319.25 157.2 L313.9 143.35 Q302.1 113.35 298.45 103.45 291.4 128.3 290.25 134.9 L289.2 135.15 292.65 111.55 Q294.2 100.15 294.9 91.85 L291.1 77.2 Q287.35 63.7 283.05 55.7 279.8 49.5 274.4 44.2 L265.6 35.3 260.3 30.0 Q265.3 34.65 270.0 38.05 281.85 49.2 286.65 56.5 288.15 62.25 290.7 69.55 296.6 85.2 298.7 91.8 L299.35 91.8 298.5 87.6 Q302.95 101.0 302.95 103.9 302.95 105.0 303.7 107.75 304.45 110.5 304.45 111.55 304.45 115.35 317.65 145.45 L322.7 156.8 319.25 157.2 M254.4 38.9 Q253.15 40.8 251.8 41.2 L250.1 40.15 Q251.05 36.4 255.4 36.65 255.4 37.35 254.4 38.9 M280.7 70.25 L281.0 72.25 Q281.0 73.85 278.95 75.65 277.05 77.35 275.9 77.35 L273.75 75.5 Q273.25 75.0 273.25 74.35 273.25 72.15 275.15 70.65 277.25 69.0 280.35 69.35 L280.7 70.25 M264.65 51.1 Q266.05 51.6 266.9 52.8 L264.65 55.35 Q263.35 55.0 262.75 54.4 L262.5 53.0 Q262.5 52.55 263.25 51.9 264.0 51.25 264.65 51.1 M260.45 65.45 L259.55 65.95 256.9 64.8 Q257.55 63.9 258.7 63.5 L260.6 63.3 261.05 64.6 260.45 65.45 M99.65 4.3 L98.35 9.85 Q92.95 33.45 90.95 48.65 89.6 59.2 84.65 79.9 79.4 101.9 78.0 111.25 76.45 121.25 62.2 178.0 55.15 205.95 51.85 220.6 L52.35 220.7 51.2 220.55 51.65 216.95 51.65 216.8 49.05 207.3 49.2 207.85 49.95 204.95 Q58.85 170.85 63.4 143.65 64.7 135.95 68.85 121.8 L71.65 112.4 Q72.8 104.7 75.5 91.65 70.3 96.6 55.8 109.2 47.1 116.75 42.55 121.3 L60.4 102.65 Q75.65 85.35 75.65 78.3 75.65 76.35 80.2 69.05 L80.4 68.75 Q83.65 53.2 85.0 43.6 L80.75 43.95 77.35 43.5 72.75 42.25 72.75 41.2 Q74.9 40.85 83.95 37.35 L85.8 36.75 85.95 32.75 86.0 29.5 Q85.85 27.85 84.45 27.85 L79.6 28.1 Q61.2 36.95 49.95 56.2 42.8 68.4 35.25 94.55 32.35 104.6 24.5 125.65 L24.8 126.7 24.85 132.35 Q27.45 131.1 34.45 124.75 40.8 119.05 42.25 119.0 27.85 129.15 19.65 143.05 15.25 150.5 13.4 157.8 L12.65 157.65 12.4 157.6 5.85 156.8 10.9 145.45 Q24.1 115.35 24.1 111.55 24.1 110.5 24.85 107.75 25.6 105.0 25.6 103.9 25.6 101.0 30.05 87.6 L29.2 91.8 29.85 91.8 Q31.95 85.2 37.85 69.55 40.4 62.25 41.9 56.5 46.7 49.2 58.55 38.05 63.6 34.4 68.95 29.35 L79.6 19.0 Q89.95 9.0 99.65 4.3 M61.45 221.65 L64.1 209.7 71.2 175.45 Q80.55 138.2 84.45 116.15 85.55 110.1 91.45 86.2 96.0 67.7 96.7 56.85 96.9 53.3 98.3 47.45 L98.15 48.0 99.2 47.45 Q103.9 47.45 115.5 50.55 125.65 53.25 133.45 56.1 L133.45 55.35 Q123.7 50.35 114.75 47.25 L103.9 43.8 Q101.15 42.8 99.8 41.5 L103.35 27.2 Q103.9 24.25 104.6 21.6 106.15 20.35 106.35 18.3 L106.85 15.45 Q107.2 14.1 107.75 13.25 L108.45 12.35 Q116.35 5.0 170.65 5.0 210.95 5.0 220.55 14.8 223.8 18.1 223.85 23.0 L223.4 27.65 223.45 27.2 222.85 29.8 221.1 37.5 220.55 42.75 Q220.0 46.6 220.0 47.8 220.0 51.75 215.9 62.0 210.7 75.1 204.7 75.1 L188.15 71.5 Q186.8 71.5 186.75 71.8 L187.0 72.1 189.15 73.3 186.7 72.45 Q176.0 68.85 167.95 66.8 L167.95 67.0 Q176.5 70.1 192.95 74.95 198.35 77.15 206.55 79.3 213.35 81.1 219.15 82.2 220.5 82.2 220.3 81.9 L219.8 81.6 217.5 79.65 215.05 77.75 Q215.4 77.45 216.15 77.3 216.75 77.0 216.75 75.75 216.75 70.0 218.9 62.35 221.3 53.95 221.7 46.75 L223.1 46.3 225.25 46.1 226.55 47.35 231.0 62.25 238.7 86.55 Q228.05 85.4 215.15 81.8 231.75 87.95 237.85 94.45 239.7 96.4 244.1 104.2 247.6 116.6 249.35 126.0 251.35 136.95 255.15 163.3 L258.1 183.65 252.65 182.6 Q245.2 179.5 235.7 173.9 226.55 168.5 222.15 164.75 L222.15 165.0 Q231.15 172.9 249.5 185.5 L259.35 192.05 261.45 205.45 Q262.9 214.3 264.4 221.6 L230.9 220.8 178.55 220.6 168.3 220.35 Q168.0 219.95 165.95 219.95 L164.3 220.1 162.6 219.95 Q160.55 219.95 160.3 220.35 L150.0 220.6 97.65 220.8 61.45 221.65 M162.45 170.85 Q164.65 170.85 165.65 170.15 L167.95 168.6 Q166.85 166.65 162.7 166.25 158.5 165.85 158.5 168.15 158.5 169.5 158.65 169.6 L158.8 169.45 Q160.2 170.85 162.45 170.85 M192.85 189.65 Q192.7 189.6 192.7 190.9 192.7 194.4 199.3 194.4 202.95 194.4 204.95 192.7 L204.7 192.1 Q202.7 191.1 198.35 190.4 L192.95 189.95 192.85 189.65 M169.65 125.25 Q170.95 125.25 173.2 124.4 L176.55 123.1 Q173.85 121.65 169.9 121.55 165.15 121.45 162.85 123.95 L165.85 124.55 169.65 125.25 M167.45 20.6 L167.2 19.05 166.9 18.7 Q164.45 18.7 161.15 20.25 158.4 21.55 157.65 22.5 L160.05 23.3 162.85 23.8 Q167.45 23.15 167.45 20.6 M301.6 146.3 Q304.7 144.85 306.6 146.3 L306.85 146.9 306.25 148.0 Q305.65 148.6 304.3 148.6 L302.45 148.4 302.25 148.2 Q301.6 147.55 301.6 146.3 M280.8 160.65 L278.95 162.55 Q278.0 163.3 276.25 163.3 L273.75 163.1 272.85 162.85 272.65 162.4 Q272.4 162.1 272.4 160.85 272.4 158.35 274.75 158.0 277.3 157.6 280.8 160.65 M141.1 20.4 Q139.25 18.95 136.05 19.3 132.8 19.65 132.8 21.25 132.8 22.55 133.0 22.75 L133.65 23.15 133.9 23.35 135.75 23.55 Q136.9 23.55 138.8 22.35 140.55 21.25 141.1 20.4 M113.95 84.75 L115.15 84.85 117.45 84.35 119.0 84.0 119.6 81.35 119.1 80.7 119.0 80.5 115.1 80.7 Q113.65 81.15 113.65 83.4 113.65 84.65 113.95 84.75 M99.75 88.3 Q98.0 88.05 96.65 89.35 96.65 90.3 97.25 91.15 97.85 92.0 98.8 92.3 L103.55 88.7 99.75 88.3 M67.65 59.15 Q67.65 57.95 69.55 56.75 71.75 55.4 74.05 56.5 L74.45 57.8 72.75 59.55 Q71.25 60.85 69.55 61.2 L68.15 60.8 Q67.65 60.55 67.65 59.15 M51.85 77.5 L49.8 78.4 Q48.45 77.95 48.1 77.35 49.2 76.4 50.55 75.9 L52.8 75.65 53.4 76.25 Q53.15 76.9 51.85 77.5 M47.6 136.6 Q48.35 137.8 46.6 138.15 L42.7 138.3 42.4 137.25 Q42.05 136.35 42.05 136.0 L44.7 135.8 Q46.4 135.95 47.6 136.6 M41.85 158.5 Q42.3 155.25 45.2 156.9 46.85 157.8 50.0 160.3 L50.25 160.85 50.4 161.45 Q50.3 162.0 48.95 162.0 46.0 162.0 43.75 160.4 42.25 159.35 41.85 158.5 M101.15 195.9 L101.15 196.95 Q101.85 198.05 104.75 198.05 108.8 198.05 109.3 197.4 L107.8 196.75 Q106.2 196.05 103.95 195.85 L101.15 195.9 M101.35 154.9 Q102.75 154.9 104.3 154.2 L106.1 153.0 105.05 151.7 Q100.2 149.75 97.85 150.1 96.2 150.35 94.95 152.25 95.6 152.8 98.4 153.9 101.0 154.9 101.35 154.9" fill="#95a06a" fill-rule="evenodd" stroke="none"/>
      <path d="M279.85 205.9 Q278.45 200.9 277.0 194.85 272.9 177.75 269.75 160.45 269.75 156.7 267.25 149.7 L266.75 148.25 269.65 132.6 270.4 120.3 271.15 108.05 271.1 106.2 270.9 105.5 270.3 105.5 Q269.8 110.75 264.0 132.45 L264.2 133.25 239.5 26.35 Q239.5 20.75 240.3 19.25 241.3 17.35 243.5 18.1 246.05 17.85 251.35 21.95 253.2 23.35 256.0 25.95 L256.25 26.15 259.6 29.35 260.3 30.0 265.6 35.3 274.4 44.2 Q279.8 49.5 283.05 55.7 287.35 63.7 291.1 77.2 L294.9 91.85 Q294.2 100.15 292.65 111.55 L289.2 135.15 290.25 134.9 Q291.4 128.3 298.45 103.45 302.1 113.35 313.9 143.35 L319.25 157.2 308.45 158.9 307.65 159.05 307.4 159.1 306.6 159.25 305.75 159.4 Q299.35 160.4 287.65 159.3 286.05 160.15 286.05 163.3 L286.4 167.15 286.4 167.3 285.1 174.45 284.7 176.05 285.55 179.25 283.3 190.55 281.15 200.25 279.85 205.9 M254.4 38.9 Q255.4 37.35 255.4 36.65 251.05 36.4 250.1 40.15 L251.8 41.2 Q253.15 40.8 254.4 38.9 M260.45 65.45 L261.05 64.6 260.6 63.3 258.7 63.5 Q257.55 63.9 256.9 64.8 L259.55 65.95 260.45 65.45 M264.65 51.1 Q264.0 51.25 263.25 51.9 262.5 52.55 262.5 53.0 L262.75 54.4 Q263.35 55.0 264.65 55.35 L266.9 52.8 Q266.05 51.6 264.65 51.1 M280.7 70.25 L280.35 69.35 Q277.25 69.0 275.15 70.65 273.25 72.15 273.25 74.35 273.25 75.0 273.75 75.5 L275.9 77.35 Q277.05 77.35 278.95 75.65 281.0 73.85 281.0 72.25 L280.7 70.25 M280.8 160.65 Q277.3 157.6 274.75 158.0 272.4 158.35 272.4 160.85 272.4 162.1 272.65 162.4 L272.85 162.85 273.75 163.1 276.25 163.3 Q278.0 163.3 278.95 162.55 L280.8 160.65 M301.6 146.3 Q301.6 147.55 302.25 148.2 L302.45 148.4 304.3 148.6 Q305.65 148.6 306.25 148.0 L306.85 146.9 306.6 146.3 Q304.7 144.85 301.6 146.3 M13.4 157.8 Q15.25 150.5 19.65 143.05 27.85 129.15 42.25 119.0 40.8 119.05 34.45 124.75 27.45 131.1 24.85 132.35 L24.8 126.7 24.5 125.65 Q32.35 104.6 35.25 94.55 42.8 68.4 49.95 56.2 61.2 36.95 79.6 28.1 L84.45 27.85 Q85.85 27.85 86.0 29.5 L85.95 32.75 85.8 36.75 83.95 37.35 Q74.9 40.85 72.75 41.2 L72.75 42.25 77.35 43.5 80.75 43.95 85.0 43.6 Q83.65 53.2 80.4 68.75 L80.2 69.05 Q75.65 76.35 75.65 78.3 75.65 85.35 60.4 102.65 L42.55 121.3 Q47.1 116.75 55.8 109.2 70.3 96.6 75.5 91.65 72.8 104.7 71.65 112.4 L68.85 121.8 Q64.7 135.95 63.4 143.65 58.85 170.85 49.95 204.95 L49.2 207.85 49.05 207.3 47.6 201.2 47.6 201.05 47.4 200.25 Q45.25 190.75 43.35 181.1 L43.0 179.25 43.85 176.05 43.45 174.45 42.15 167.3 42.15 167.15 42.5 163.3 Q42.5 160.15 40.9 159.3 28.4 160.5 21.95 159.25 L14.4 157.95 13.4 157.8 M41.85 158.5 Q42.25 159.35 43.75 160.4 46.0 162.0 48.95 162.0 50.3 162.0 50.4 161.45 L50.25 160.85 50.0 160.3 Q46.85 157.8 45.2 156.9 42.3 155.25 41.85 158.5 M47.6 136.6 Q46.4 135.95 44.7 135.8 L42.05 136.0 Q42.05 136.35 42.4 137.25 L42.7 138.3 46.6 138.15 Q48.35 137.8 47.6 136.6 M51.85 77.5 Q53.15 76.9 53.4 76.25 L52.8 75.65 50.55 75.9 Q49.2 76.4 48.1 77.35 48.45 77.95 49.8 78.4 L51.85 77.5 M67.65 59.15 Q67.65 60.55 68.15 60.8 L69.55 61.2 Q71.25 60.85 72.75 59.55 L74.45 57.8 74.05 56.5 Q71.75 55.4 69.55 56.75 67.65 57.95 67.65 59.15" fill="#8f9663" fill-rule="evenodd" stroke="none"/>
      <path d="M229.05 4.4 Q234.0 23.35 240.45 54.3 249.05 95.4 254.05 113.6 256.8 123.6 259.55 142.9 262.55 163.75 264.75 172.9 267.35 183.85 276.25 208.5 L277.95 213.25 276.9 216.8 276.9 216.95 Q276.9 218.1 277.35 220.55 L275.15 220.85 274.8 221.0 274.25 220.95 272.9 221.15 272.35 221.25 269.05 221.65 269.0 221.65 268.8 221.65 268.4 221.65 264.4 221.6 Q262.9 214.3 261.45 205.45 L259.35 192.05 249.5 185.5 Q231.15 172.9 222.15 165.0 L222.15 164.75 Q226.55 168.5 235.7 173.9 245.2 179.5 252.65 182.6 L258.1 183.65 255.15 163.3 Q251.35 136.95 249.35 126.0 247.6 116.6 244.1 104.2 239.7 96.4 237.85 94.45 231.75 87.95 215.15 81.8 228.05 85.4 238.7 86.55 L231.0 62.25 226.55 47.35 225.25 46.1 223.1 46.3 221.7 46.75 Q221.3 53.95 218.9 62.35 216.75 70.0 216.75 75.75 216.75 77.0 216.15 77.3 215.4 77.45 215.05 77.75 L217.5 79.65 219.8 81.6 220.3 81.9 Q220.5 82.2 219.15 82.2 213.35 81.1 206.55 79.3 198.35 77.15 192.95 74.95 176.5 70.1 167.95 67.0 L167.95 66.8 Q176.0 68.85 186.7 72.45 L189.15 73.3 187.0 72.1 186.75 71.8 Q186.8 71.5 188.15 71.5 L204.7 75.1 Q210.7 75.1 215.9 62.0 220.0 51.75 220.0 47.8 220.0 46.6 220.55 42.75 L221.1 37.5 222.85 29.8 223.45 27.2 223.4 27.65 223.85 23.0 Q223.8 18.1 220.55 14.8 210.95 5.0 170.65 5.0 116.35 5.0 108.45 12.35 L107.75 13.25 Q107.2 14.1 106.85 15.45 L106.35 18.3 Q106.15 20.35 104.6 21.6 103.9 24.25 103.35 27.2 L99.8 41.5 Q101.15 42.8 103.9 43.8 L114.75 47.25 Q123.7 50.35 133.45 55.35 L133.45 56.1 Q125.65 53.25 115.5 50.55 103.9 47.45 99.2 47.45 L98.15 48.0 98.3 47.45 Q96.9 53.3 96.7 56.85 96.0 67.7 91.45 86.2 85.55 110.1 84.45 116.15 80.55 138.2 71.2 175.45 L64.1 209.7 61.45 221.65 59.5 221.65 57.3 221.45 55.65 221.15 54.3 220.95 53.75 221.0 53.4 220.85 53.25 220.8 52.35 220.7 51.85 220.6 Q55.15 205.95 62.2 178.0 76.45 121.25 78.0 111.25 79.4 101.9 84.65 79.9 89.6 59.2 90.95 48.65 92.95 33.45 98.35 9.85 L99.65 4.3 Q101.8 3.25 103.95 2.5 L104.0 2.45 104.0 2.15 106.15 2.05 112.8 2.05 112.6 2.35 113.2 2.05 163.6 2.05 163.65 2.25 163.65 2.05 164.9 2.05 164.9 2.25 164.95 2.05 222.4 2.05 224.55 2.15 224.55 2.45 224.95 2.6 Q226.95 3.35 229.05 4.4 M167.45 20.6 Q167.45 23.15 162.85 23.8 L160.05 23.3 157.65 22.5 Q158.4 21.55 161.15 20.25 164.45 18.7 166.9 18.7 L167.2 19.05 167.45 20.6 M169.65 125.25 L165.85 124.55 162.85 123.95 Q165.15 121.45 169.9 121.55 173.85 121.65 176.55 123.1 L173.2 124.4 Q170.95 125.25 169.65 125.25 M192.85 189.65 L192.95 189.95 198.35 190.4 Q202.7 191.1 204.7 192.1 L204.95 192.7 Q202.95 194.4 199.3 194.4 192.7 194.4 192.7 190.9 192.7 189.6 192.85 189.65 M162.45 170.85 Q160.2 170.85 158.8 169.45 L158.65 169.6 Q158.5 169.5 158.5 168.15 158.5 165.85 162.7 166.25 166.85 166.65 167.95 168.6 L165.65 170.15 Q164.65 170.85 162.45 170.85 M141.1 20.4 Q140.55 21.25 138.8 22.35 136.9 23.55 135.75 23.55 L133.9 23.35 133.65 23.15 133.0 22.75 Q132.8 22.55 132.8 21.25 132.8 19.65 136.05 19.3 139.25 18.95 141.1 20.4 M99.75 88.3 L103.55 88.7 98.8 92.3 Q97.85 92.0 97.25 91.15 96.65 90.3 96.65 89.35 98.0 88.05 99.75 88.3 M113.95 84.75 Q113.65 84.65 113.65 83.4 113.65 81.15 115.1 80.7 L119.0 80.5 119.1 80.7 119.6 81.35 119.0 84.0 117.45 84.35 115.15 84.85 113.95 84.75 M101.35 154.9 Q101.0 154.9 98.4 153.9 95.6 152.8 94.95 152.25 96.2 150.35 97.85 150.1 100.2 149.75 105.05 151.7 L106.1 153.0 104.3 154.2 Q102.75 154.9 101.35 154.9 M101.15 195.9 L103.95 195.85 Q106.2 196.05 107.8 196.75 L109.3 197.4 Q108.8 198.05 104.75 198.05 101.85 198.05 101.15 196.95 L101.15 195.9" fill="#9ca971" fill-rule="evenodd" stroke="none"/>
    </g>
    <g id="sprite0" transform="matrix(1.0, 0.0, 0.0, 1.0, 37.75, -15.15)">
      <use ffdec:characterId="1276" height="181.2" transform="matrix(1.0, 0.0, 0.0, 1.0, -37.75, 15.15)" width="174.75" xlink:href="#shape1"/>
    </g>
    <g id="shape1" transform="matrix(1.0, 0.0, 0.0, 1.0, 37.75, -15.15)">
      <path d="M76.55 15.85 Q78.1 14.2 81.4 16.55 L81.7 16.25 Q83.1 16.25 87.15 19.0 91.05 21.6 90.8 21.9 98.0 29.0 101.6 38.1 L101.65 38.2 102.4 41.55 Q103.65 46.5 103.65 51.75 L103.4 54.95 Q102.55 44.4 94.75 32.1 85.9 18.15 78.15 18.15 L78.0 18.2 76.55 15.85 M79.5 101.45 L94.1 118.6 95.25 119.45 95.3 119.65 Q97.25 120.05 98.1 121.0 L98.45 121.5 97.45 122.7 97.35 122.85 96.6 123.9 Q93.3 121.25 86.05 112.55 L76.9 101.2 78.3 101.45 79.5 101.45 M97.95 143.8 Q98.5 145.4 99.35 146.95 100.45 141.6 103.25 136.1 106.6 129.6 110.65 125.75 111.15 124.25 112.9 122.65 L113.05 122.5 113.2 122.35 Q114.8 120.9 116.3 120.6 119.2 119.3 121.75 121.75 122.8 122.35 123.9 123.6 L124.1 123.8 Q125.7 124.6 127.15 126.2 130.05 129.35 132.3 132.95 134.1 135.85 134.7 138.05 L134.35 138.75 134.3 138.85 132.55 140.55 131.8 140.95 131.9 140.1 Q122.65 123.0 118.7 123.0 115.85 123.0 111.2 128.55 107.6 132.85 105.65 136.65 L101.7 143.6 Q99.5 148.0 100.35 150.9 L100.2 151.1 99.6 151.25 Q98.85 151.25 98.1 149.05 L97.85 148.15 98.7 148.65 98.85 147.9 97.95 143.8 M112.45 159.05 L112.55 160.3 113.1 164.5 113.5 164.95 114.4 166.05 114.3 166.05 113.05 165.25 Q117.25 169.15 125.15 167.75 L131.15 166.8 Q134.15 166.65 135.55 168.25 L135.9 168.65 135.9 168.8 Q135.9 169.65 135.3 171.95 134.0 169.35 131.95 169.35 L126.65 170.1 121.3 170.85 Q114.35 170.85 111.4 167.8 110.45 166.85 110.05 165.7 L109.8 164.7 109.85 162.7 110.7 164.9 Q111.0 161.85 111.65 159.35 L111.85 159.25 112.45 159.05 M60.7 171.4 L61.2 170.15 Q61.65 168.7 63.25 167.25 65.0 165.7 66.6 165.35 70.8 161.8 77.65 159.1 83.4 156.95 88.85 156.4 L88.9 156.4 89.5 156.6 90.9 157.35 91.65 157.15 91.85 157.2 92.1 157.3 92.55 157.4 92.65 157.4 92.85 157.45 93.2 157.5 93.25 157.55 Q91.65 158.55 82.15 162.05 69.95 166.6 69.0 167.25 64.2 170.4 63.65 174.25 L63.55 176.5 Q62.7 175.2 61.2 172.35 L60.7 171.4 M10.15 156.35 L10.4 156.4 10.9 156.45 11.4 156.5 11.45 156.55 15.5 157.85 Q21.05 159.7 25.6 161.7 29.7 163.55 32.65 165.35 L32.7 165.35 Q35.45 167.05 37.2 168.75 L37.25 168.85 37.3 169.15 37.35 169.55 Q37.5 171.7 36.25 174.35 L36.05 173.25 Q35.4 171.1 29.45 167.25 24.15 162.8 20.7 161.2 14.95 158.55 3.8 159.3 L2.85 158.5 Q2.85 157.75 3.95 157.25 L3.9 157.45 Q3.9 157.95 4.05 158.1 L4.5 158.25 8.6 157.0 10.35 156.4 10.15 156.35 M-37.4 170.3 Q-37.05 169.1 -36.3 168.25 -34.95 166.7 -32.05 166.8 L-31.9 166.8 -25.9 167.75 Q-19.5 168.9 -15.55 166.55 L-13.8 165.25 -15.05 166.05 -15.15 166.05 -14.25 164.95 -13.85 164.5 -13.3 160.3 Q-12.85 156.45 -13.75 153.45 -12.3 156.3 -11.8 160.25 L-11.5 160.2 -11.3 157.15 -10.95 160.65 Q-10.95 163.2 -12.7 165.9 -15.65 170.45 -22.2 170.45 L-28.85 169.7 Q-30.2 168.9 -30.75 168.9 -35.4 168.9 -36.1 171.45 -36.4 172.65 -36.1 174.4 L-36.1 174.45 -36.55 173.1 -37.2 171.45 -37.4 170.3 M-35.35 137.85 Q-34.75 135.7 -33.05 132.95 L-32.05 131.45 Q-30.15 128.65 -27.9 126.2 -26.45 124.6 -24.85 123.8 L-24.65 123.6 -22.8 121.95 -22.5 121.75 Q-19.95 119.3 -17.05 120.6 -15.75 120.85 -14.4 121.95 L-13.95 122.35 -13.8 122.5 -13.65 122.65 Q-11.9 124.25 -11.4 125.75 -7.35 129.6 -4.0 136.1 -2.4 139.3 -1.3 142.45 -0.6 144.85 -0.45 146.8 L-0.35 145.85 -0.1 146.95 Q2.35 142.45 2.6 137.6 L4.2 141.9 3.1 144.75 Q0.6 149.55 -0.15 151.8 L-0.6 151.8 -0.7 150.35 Q-5.6 140.05 -8.75 134.1 -14.75 122.85 -19.05 122.85 -25.3 122.85 -30.25 130.95 -32.7 134.95 -33.95 139.0 L-35.35 137.85 M-5.4 44.4 Q-4.3 40.6 -2.35 38.1 1.25 29.0 8.45 21.9 8.2 21.6 12.1 19.0 16.15 16.25 17.55 16.25 L17.85 16.55 Q20.65 14.55 22.2 15.45 L21.95 15.8 Q20.7 18.0 20.7 19.05 L20.75 19.15 21.3 18.9 20.35 19.35 Q15.1 21.75 13.2 22.85 9.1 25.2 6.35 28.3 4.25 30.7 2.45 34.2 0.25 38.55 -1.8 45.35 -4.05 52.85 -4.05 56.9 -4.05 58.8 -2.25 66.7 L-2.25 66.85 -4.5 60.25 Q-5.7 55.5 -5.7 47.55 L-5.4 44.4 M22.25 22.05 Q21.85 24.7 22.05 28.05 22.3 32.1 24.25 36.6 L24.25 36.75 24.7 37.95 25.95 41.8 29.55 47.4 43.75 62.25 49.65 68.55 50.0 68.15 55.5 62.25 69.7 47.4 73.3 41.8 74.55 37.95 75.0 36.75 75.0 36.6 75.9 34.3 75.9 39.0 76.1 39.0 77.6 35.65 76.5 38.85 Q73.75 46.45 70.5 49.95 L66.5 55.3 Q63.9 58.85 60.45 61.25 59.55 61.9 55.2 67.35 51.35 72.2 50.25 72.2 L50.1 72.2 49.9 72.2 Q46.15 72.2 30.3 51.5 23.85 43.6 21.9 40.6 19.15 36.35 18.95 31.6 L20.4 34.5 20.75 34.5 Q20.65 29.2 21.2 25.8 21.45 24.45 22.25 22.05 M88.65 54.15 L88.75 53.8 90.2 41.15 Q90.2 39.75 89.35 36.6 88.5 33.45 88.5 32.0 L88.5 31.95 Q90.0 35.15 91.15 39.75 L91.4 41.45 91.75 44.0 91.9 45.75 92.05 47.65 92.05 47.9 92.05 48.05 Q92.35 54.75 90.85 57.55 L87.3 63.4 87.6 62.0 88.65 54.15 M97.95 61.2 L98.15 62.8 Q98.15 68.9 86.3 83.4 75.1 97.1 72.8 97.1 70.95 97.1 67.65 92.65 L64.7 88.15 Q64.7 87.6 65.5 87.15 66.65 87.4 67.35 88.2 67.6 88.5 68.15 88.65 L73.2 94.3 88.3 77.5 92.1 71.5 Q94.1 66.35 95.25 61.35 L95.45 64.65 94.85 68.1 94.85 70.95 95.1 70.95 97.05 66.5 Q98.0 64.05 97.95 62.45 L97.95 61.2 M85.35 48.55 L85.55 51.55 85.05 55.6 84.55 58.8 79.2 66.6 Q75.25 72.15 70.85 76.5 L66.05 81.85 Q62.7 85.5 61.5 85.5 60.0 85.5 56.25 80.9 52.8 76.65 52.8 76.2 L53.25 75.75 Q53.7 76.2 54.75 76.2 L56.65 76.05 60.4 80.1 61.05 81.6 61.5 81.25 62.2 82.0 74.3 68.9 76.0 66.55 Q79.9 61.0 82.45 56.5 84.7 52.75 85.35 48.55 M85.05 58.0 L85.35 56.65 86.95 52.15 Q88.0 49.5 88.2 47.2 88.15 52.05 85.8 56.6 L85.05 58.0 M77.05 99.4 L76.75 99.7 76.2 100.25 76.2 100.3 76.2 100.4 76.05 100.2 Q76.05 99.15 77.05 99.4 M11.9 29.4 L12.0 29.7 12.05 30.4 Q12.05 30.95 10.9 33.9 9.8 36.8 9.9 38.4 L9.6 46.0 Q9.6 48.1 10.0 50.3 L9.95 51.5 Q9.95 56.95 11.65 60.2 13.8 64.4 15.25 68.2 L15.05 67.9 9.8 59.95 9.7 59.75 9.55 59.55 9.45 59.35 8.9 58.45 8.7 58.1 8.55 57.75 8.4 57.55 Q6.9 54.75 7.2 48.05 7.4 43.25 8.4 38.45 L8.55 38.1 9.4 35.1 Q9.9 32.95 10.5 31.8 L11.9 29.4 M83.5 144.95 L83.9 145.65 Q83.9 146.85 82.05 146.85 75.65 145.5 74.7 145.5 L68.4 146.1 Q67.75 146.1 67.2 145.2 L66.8 144.4 Q63.65 141.65 54.7 131.35 L29.45 102.6 Q13.75 85.55 10.7 81.7 -0.15 68.05 -0.15 59.85 L0.0 56.6 0.4 59.1 1.55 65.45 1.95 65.1 1.95 56.9 2.0 56.25 2.95 52.95 Q2.9 55.5 3.25 57.7 4.45 64.45 7.15 71.5 L10.95 77.5 26.05 94.3 26.2 94.15 27.45 95.85 68.0 142.4 69.7 143.15 70.8 143.6 71.3 143.7 72.35 143.55 Q76.15 143.2 80.6 143.65 L79.9 142.95 79.4 142.4 79.55 142.4 80.15 142.6 83.5 144.95 M91.7 126.45 L90.7 133.85 89.6 141.35 89.6 141.4 90.0 142.1 89.35 141.55 88.55 141.65 Q88.35 141.65 88.0 140.35 78.1 131.6 67.1 119.5 L46.35 95.75 Q33.25 82.35 25.65 73.6 11.6 57.5 11.6 49.05 11.6 48.0 11.85 47.6 L12.05 48.4 12.2 49.3 13.35 54.5 13.65 54.45 13.85 53.7 14.0 52.7 13.75 48.75 13.75 48.5 14.0 49.05 14.05 49.2 14.1 49.55 16.4 55.75 16.5 55.95 16.55 56.05 16.6 56.2 16.7 56.3 16.8 56.5 Q19.35 61.0 23.25 66.55 L24.95 68.9 44.2 89.85 66.2 113.9 83.0 132.6 83.3 132.9 85.8 135.4 85.8 135.45 87.35 137.75 87.1 136.8 87.9 137.6 Q87.9 132.85 88.7 128.85 L89.0 127.8 88.9 127.55 89.25 126.9 89.75 126.3 91.2 126.5 91.7 126.45 M39.6 86.75 L28.1 73.3 29.95 76.0 39.6 86.75 M63.05 82.95 L69.3 76.0 71.15 73.3 62.95 82.85 63.05 82.95 M44.85 127.95 L44.9 128.7 Q44.9 129.95 37.05 137.9 36.45 138.45 33.4 142.75 30.65 146.6 30.3 146.6 L28.55 146.0 22.8 145.8 17.65 146.1 14.6 145.65 13.35 145.05 14.15 144.65 14.25 144.9 14.85 145.05 18.9 143.45 18.65 143.65 20.55 143.5 Q23.9 143.3 26.9 143.55 L27.95 143.7 28.45 143.6 31.25 142.4 43.65 128.15 43.95 128.15 44.35 128.15 44.85 127.95 M10.3 127.65 L10.25 127.8 10.55 128.85 11.25 133.9 10.85 137.6 10.8 138.2 10.85 137.7 11.35 136.95 11.35 137.6 16.25 132.6 31.9 115.2 32.85 115.4 33.6 115.25 33.6 115.65 Q33.6 116.35 24.3 126.55 13.3 138.5 10.1 142.5 L10.0 142.6 10.05 142.6 9.95 142.65 9.9 142.65 9.6 142.7 Q8.75 141.0 7.5 134.5 6.3 128.3 6.3 126.4 6.3 125.65 6.45 125.2 7.45 125.85 9.3 126.05 L10.3 127.65 M27.9 176.45 L30.45 175.2 Q30.3 176.05 27.3 179.25 24.05 182.7 22.8 182.7 22.4 182.7 20.85 179.45 L18.45 174.8 15.9 170.7 Q13.95 167.35 13.95 166.8 13.95 165.4 14.8 165.65 L14.85 166.15 14.85 166.2 17.8 168.3 17.9 168.45 17.75 168.4 17.45 168.25 Q20.2 171.05 21.7 174.15 L21.75 174.3 22.85 176.7 23.3 177.65 23.35 177.8 23.55 178.5 23.65 178.45 24.2 179.65 Q26.2 178.35 27.8 176.6 L27.9 176.45 M81.2 168.55 Q82.7 167.35 84.45 166.8 L84.55 166.9 84.6 167.55 82.55 170.9 79.5 175.8 77.85 180.15 Q76.65 183.35 75.9 183.35 75.05 183.35 72.1 180.45 68.9 177.25 67.7 176.75 L67.85 175.95 67.85 175.9 70.35 175.5 71.15 175.65 71.45 176.6 Q73.05 178.35 75.05 179.65 L77.55 174.15 Q79.05 171.05 81.8 168.25 L81.2 168.55 M109.4 143.3 L109.55 143.55 109.55 143.6 109.85 143.85 113.0 141.05 115.05 139.1 Q116.6 138.2 118.2 137.6 L123.3 135.95 Q124.1 136.8 124.7 136.8 L125.45 136.55 125.45 136.95 119.1 140.2 Q111.9 143.7 109.2 145.65 L108.75 145.55 Q108.6 145.5 108.6 145.0 108.6 144.25 109.4 143.3 M93.45 156.3 L93.55 156.55 93.4 156.3 93.45 156.3 M118.55 184.65 L118.55 185.45 125.5 179.2 126.4 177.5 126.05 177.5 126.1 177.45 126.15 177.4 Q127.5 176.55 128.6 176.15 L126.85 179.6 Q125.75 181.8 124.25 183.45 123.45 184.3 120.7 186.25 117.3 188.6 116.3 189.45 L115.6 188.6 115.2 187.85 115.4 187.45 Q115.4 188.15 115.5 187.85 L116.15 187.85 Q117.65 186.6 118.55 184.65 M-11.25 144.0 Q-11.3 144.65 -11.65 144.8 L-12.45 144.8 Q-13.7 144.8 -19.65 140.25 -21.25 139.55 -24.3 138.8 L-30.3 137.25 -30.45 136.9 -29.15 136.1 -29.4 136.6 -29.4 136.65 -29.25 137.2 -28.65 137.25 -25.55 136.6 -23.9 136.0 -18.95 137.6 Q-16.65 138.45 -14.45 139.9 L-11.25 144.0 M-29.9 175.05 L-30.15 175.2 Q-30.05 175.95 -28.55 177.0 L-28.4 177.1 -28.0 177.35 -27.7 177.55 -27.65 177.6 -26.25 179.2 -25.05 180.5 -24.55 180.75 -24.2 181.05 -19.8 185.0 -19.1 186.0 Q-18.2 187.2 -17.7 187.2 L-17.6 187.2 -17.45 187.2 -17.4 187.65 Q-18.0 188.4 -18.45 188.4 -22.45 188.4 -27.45 182.1 L-31.65 175.65 Q-31.65 173.25 -29.9 175.05" fill="#818156" fill-rule="evenodd" stroke="none"/>
      <path d="M76.55 15.85 L78.0 18.2 78.35 19.2 Q79.1 20.55 79.3 22.65 L79.35 26.2 Q79.35 30.95 77.6 35.65 L76.1 39.0 75.9 39.0 75.9 34.3 Q77.0 31.05 77.2 28.05 77.6 22.1 75.95 18.2 L76.2 18.0 75.95 17.45 Q75.85 16.6 76.5 15.9 L76.55 15.85 M103.4 54.95 L103.65 51.75 Q103.65 46.5 102.4 41.55 L101.65 38.2 101.65 38.15 101.9 38.55 102.1 38.8 105.25 46.95 Q106.8 54.2 105.05 62.0 L104.25 67.0 Q103.0 72.9 100.75 75.4 L100.55 75.5 Q99.85 77.25 98.2 79.65 95.75 83.3 91.4 88.25 L86.85 93.05 80.6 100.0 80.1 100.1 80.45 100.15 80.2 100.4 79.4 101.35 79.5 101.45 78.3 101.45 76.9 101.2 Q76.25 100.95 76.2 100.4 L76.2 100.3 76.2 100.25 76.75 99.7 77.05 99.4 79.6 96.9 Q83.75 92.65 87.45 87.95 93.25 80.55 96.3 75.9 98.8 72.1 101.25 64.05 102.85 58.7 103.4 54.95 M98.45 121.5 L98.75 123.0 Q98.75 124.15 98.1 124.9 98.4 125.7 98.05 127.45 L98.05 127.55 98.0 127.8 97.95 127.85 97.2 131.15 96.95 132.65 Q96.0 138.45 97.95 143.8 L98.85 147.9 98.7 148.65 97.85 148.15 Q95.55 146.3 94.45 140.7 93.6 136.45 93.6 131.25 93.6 128.15 96.6 123.9 L97.35 122.85 97.45 122.7 98.45 121.5 M134.7 138.05 L134.8 138.45 134.6 141.65 134.1 142.45 133.7 142.85 Q133.1 143.4 126.8 143.95 120.5 144.5 116.4 148.15 114.25 150.1 113.25 152.8 112.25 155.55 112.45 159.05 L111.85 159.25 111.65 159.35 Q111.0 161.85 110.7 164.9 L109.85 162.7 Q108.6 159.2 108.6 157.35 108.6 156.1 110.85 151.8 112.9 147.9 113.7 147.0 116.05 144.35 120.7 143.65 127.7 142.6 131.3 141.15 L131.8 140.95 132.55 140.55 134.3 138.85 134.35 138.75 134.7 138.05 M135.9 168.65 Q137.7 171.15 136.6 176.1 135.1 182.85 128.45 188.85 120.15 196.3 114.1 196.35 112.25 196.4 110.85 195.85 109.7 195.3 108.9 194.45 L108.9 194.5 108.8 194.45 108.75 194.35 Q106.95 192.35 108.2 187.05 109.7 180.75 108.65 177.15 108.3 175.55 106.25 173.35 L105.2 172.4 104.8 171.95 100.75 170.9 Q93.0 169.2 88.25 173.45 84.15 177.15 82.95 183.35 81.75 189.55 81.15 190.05 78.05 192.85 71.45 187.65 68.1 185.05 65.3 181.8 63.85 180.2 63.25 178.5 L63.05 178.3 Q61.75 176.85 61.25 175.6 L61.0 174.5 Q60.25 172.95 60.7 171.4 L61.2 172.35 Q62.7 175.2 63.55 176.5 L64.25 177.5 Q66.2 179.4 69.85 182.05 74.75 185.7 76.5 185.7 78.45 185.7 79.75 183.65 L82.0 178.85 Q85.3 171.1 91.1 168.75 100.45 164.9 108.6 171.35 110.85 173.35 111.75 175.75 112.35 177.5 112.35 179.95 L110.55 188.8 110.65 188.4 111.05 190.35 Q112.1 192.45 115.6 192.45 120.2 192.45 125.45 188.25 128.95 185.45 131.85 181.65 132.5 180.75 134.15 175.6 L135.3 171.95 Q135.9 169.65 135.9 168.8 L135.9 168.65 M88.9 156.4 L89.05 156.4 89.5 156.3 Q83.05 151.75 75.25 152.15 L70.55 152.65 69.95 152.7 Q67.65 152.95 67.05 152.3 L66.3 151.35 66.2 151.35 66.15 151.3 Q64.5 150.15 62.3 147.6 L58.55 143.25 49.65 133.75 40.7 143.25 40.25 143.8 39.45 144.75 38.95 145.3 38.0 146.4 Q35.85 148.5 34.3 149.8 L34.0 149.75 34.75 149.95 33.1 151.3 33.05 151.35 32.95 151.35 32.2 152.3 Q31.6 152.95 29.3 152.7 L24.0 152.15 20.55 152.25 Q17.45 152.5 14.55 153.7 L11.7 154.5 11.4 154.65 12.0 154.85 12.1 154.8 12.15 154.85 9.75 156.3 10.05 156.35 10.15 156.35 10.35 156.4 8.6 157.0 4.5 158.25 4.05 158.1 Q3.9 157.95 3.9 157.45 L3.95 157.25 Q4.3 155.65 10.4 152.25 16.25 149.0 18.0 148.7 23.35 147.85 30.3 148.95 L30.85 149.05 Q35.5 143.3 40.15 138.3 49.35 128.45 50.65 130.7 51.95 131.1 53.7 132.85 L60.0 140.75 66.55 147.2 69.1 149.95 68.45 149.15 68.8 149.1 Q72.8 148.5 78.4 149.25 84.15 150.0 88.05 151.7 90.9 152.95 91.9 154.4 L92.8 155.35 93.4 156.3 93.9 157.65 93.2 157.5 92.85 157.45 92.65 157.4 92.55 157.4 92.1 157.3 91.85 157.2 91.65 157.15 90.9 157.35 89.5 156.6 88.9 156.4 M37.2 168.55 L37.2 168.5 37.6 169.1 38.05 170.1 38.05 170.15 Q39.3 172.35 38.25 174.5 L38.0 175.6 Q37.5 176.85 36.2 178.3 L36.0 178.5 Q35.4 180.2 33.95 181.8 31.15 185.05 27.8 187.65 21.2 192.85 18.1 190.05 17.5 189.55 16.3 183.35 15.1 177.15 11.0 173.45 6.25 169.2 -1.5 170.9 L-5.55 171.95 -5.95 172.4 -7.0 173.35 Q-9.05 175.55 -9.4 177.15 -10.25 180.15 -9.35 185.05 L-8.95 187.05 -8.6 188.65 -8.55 188.95 -8.75 193.1 -9.05 193.8 -9.1 193.8 -9.6 194.25 Q-11.0 195.4 -12.8 195.75 L-13.0 195.8 -13.2 195.85 -13.45 195.85 -14.05 195.9 -14.4 195.9 -14.55 195.9 -19.55 195.35 -19.65 195.3 -21.25 194.55 Q-24.95 192.7 -29.2 188.85 L-32.05 186.0 Q-36.2 181.25 -37.35 176.1 -38.15 172.55 -37.4 170.3 L-37.2 171.45 -36.55 173.1 -36.1 174.45 -36.1 174.4 -35.95 174.85 Q-35.2 176.85 -34.05 178.7 -32.4 181.35 -26.1 186.1 -19.1 191.4 -15.85 191.4 L-13.6 191.4 -12.55 189.9 -12.6 189.85 -12.9 189.15 Q-11.85 179.25 -11.85 177.75 -11.85 174.2 -8.75 171.15 -4.65 167.0 3.15 167.0 13.2 167.0 16.9 177.4 L19.0 184.55 Q20.1 187.8 21.75 187.8 25.25 187.8 29.85 183.0 33.1 179.65 35.4 175.8 L36.25 174.35 Q37.5 171.7 37.35 169.55 L37.3 169.15 37.25 168.85 37.2 168.55 M-13.75 153.45 Q-14.75 150.35 -17.15 148.15 -21.25 144.5 -27.55 143.95 L-32.05 143.45 Q-34.1 143.15 -34.45 142.85 -36.3 141.15 -35.35 137.85 L-33.95 139.0 -33.15 139.65 Q-31.85 140.5 -26.1 141.55 L-19.8 142.65 Q-17.15 143.5 -13.95 148.55 -11.1 153.05 -11.1 154.85 L-11.3 157.15 -11.5 160.2 -11.8 160.25 Q-12.3 156.3 -13.75 153.45 M2.6 137.6 L2.35 132.75 2.3 132.65 1.2 127.45 Q0.85 125.7 1.15 124.9 0.5 124.15 0.5 123.0 0.5 122.4 0.65 121.95 0.8 121.4 1.15 121.0 L1.55 120.65 Q2.05 124.0 3.05 126.85 5.0 132.5 5.0 134.1 L4.75 138.6 4.5 142.8 4.2 141.9 2.6 137.6 M19.65 101.6 L19.9 101.35 12.4 93.05 7.85 88.25 Q3.5 83.3 1.05 79.65 -0.6 77.25 -1.3 75.5 L-1.5 75.4 Q-3.75 72.9 -5.0 67.0 L-5.8 62.0 Q-7.55 54.2 -6.0 46.95 L-5.95 46.75 -5.55 45.0 -5.4 44.35 -5.4 44.4 -5.7 47.55 Q-5.7 55.5 -4.5 60.25 L-2.25 66.85 0.9 74.7 Q2.5 78.6 11.75 88.15 20.6 97.25 21.9 101.85 21.65 102.2 20.85 102.2 20.45 102.2 19.65 101.6 M22.2 15.45 L22.75 15.9 Q23.4 16.6 23.3 17.45 L23.05 18.0 23.15 18.1 23.3 18.2 Q22.55 19.9 22.25 22.05 21.45 24.45 21.2 25.8 20.65 29.2 20.75 34.5 L20.4 34.5 18.95 31.6 18.65 30.95 Q18.45 30.5 18.45 28.65 18.45 24.05 20.35 19.35 L21.3 18.9 20.75 19.15 20.7 19.05 Q20.7 18.0 21.95 15.8 L22.2 15.45 M88.5 31.95 Q88.55 31.35 89.25 31.1 94.95 38.6 96.7 42.95 98.4 47.2 98.4 53.75 L98.15 57.3 97.95 61.2 97.95 62.45 Q98.0 64.05 97.05 66.5 L95.1 70.95 94.85 70.95 94.85 68.1 95.45 64.65 95.25 61.35 96.0 57.7 Q96.6 54.15 96.1 49.7 95.5 44.2 93.3 40.3 L90.25 35.6 91.15 39.75 Q90.0 35.15 88.5 31.95 M65.5 87.15 Q80.0 72.75 85.15 63.2 87.4 59.0 88.65 54.15 L87.6 62.0 87.3 63.4 83.4 69.1 75.8 79.85 68.05 88.55 68.15 88.65 Q67.6 88.5 67.35 88.2 66.65 87.4 65.5 87.15 M85.35 48.55 Q85.65 46.2 85.55 43.75 L83.7 38.25 83.65 38.3 83.25 39.9 82.9 41.1 81.2 45.0 79.35 47.85 Q78.4 50.55 75.15 54.8 L66.8 64.35 65.95 65.3 58.15 73.75 56.75 74.7 57.1 74.9 56.35 75.7 56.4 75.8 56.7 76.05 56.65 76.05 54.75 76.2 Q53.7 76.2 53.25 75.75 L53.0 75.3 66.3 61.1 Q74.25 52.15 77.25 45.95 L80.1 38.5 Q81.8 33.4 82.8 31.5 L86.1 38.35 Q88.25 43.35 88.25 46.05 L88.2 47.2 Q88.0 49.5 86.95 52.15 L85.35 56.65 85.05 58.0 85.0 58.05 85.0 58.0 84.65 59.55 84.3 59.7 84.55 58.8 85.05 55.6 85.55 51.55 85.35 48.55 M11.9 29.4 L10.5 31.8 Q9.9 32.95 9.4 35.1 L8.55 38.1 8.4 38.45 8.75 36.8 9.0 35.6 5.95 40.3 Q5.4 41.25 5.0 42.3 3.6 45.55 3.15 49.7 L2.95 52.95 2.0 56.25 1.95 56.9 1.95 65.1 1.55 65.45 0.4 59.1 0.0 56.6 -0.55 51.5 Q-0.55 48.05 2.95 39.7 5.15 34.5 7.2 32.6 7.75 31.25 9.5 29.85 11.4 28.3 11.9 29.4 M15.25 68.2 Q13.8 64.4 11.65 60.2 9.95 56.95 9.95 51.5 L10.0 50.3 Q11.55 59.65 19.95 70.6 23.7 75.45 30.5 82.85 L42.5 95.9 Q45.3 99.05 52.7 108.55 58.6 116.1 63.45 120.8 L75.7 132.95 Q82.25 140.15 84.3 145.4 L83.5 144.95 80.15 142.6 77.8 140.7 77.35 140.2 67.95 129.75 67.6 129.3 66.75 128.3 23.45 79.85 15.85 69.1 15.25 68.2 M12.05 48.4 Q11.3 44.85 11.3 44.1 11.3 41.1 12.0 39.1 12.85 36.65 15.2 34.35 L15.3 34.55 Q15.55 33.85 15.9 33.45 17.1 43.0 28.35 56.45 34.8 64.25 49.65 79.55 52.65 82.8 61.15 90.85 69.6 98.8 72.95 102.5 92.6 124.3 92.6 125.4 92.6 125.9 92.15 126.2 L91.7 126.45 91.2 126.5 89.75 126.3 90.0 125.95 90.1 125.8 64.85 99.05 32.45 64.35 24.1 54.8 Q20.85 50.55 19.9 47.85 17.25 44.35 16.0 39.9 L15.6 38.3 15.55 38.25 14.6 41.15 13.7 43.75 13.7 44.85 13.7 45.9 13.75 48.5 13.75 48.75 14.0 52.7 13.85 53.7 13.65 54.45 13.35 54.5 12.2 49.3 12.05 48.4 M14.15 144.65 L14.1 144.3 Q14.1 143.5 30.35 126.45 L33.9 122.0 Q36.2 119.0 37.65 118.05 39.65 119.6 42.55 123.1 45.3 126.4 45.3 127.0 45.3 127.65 44.85 127.95 L44.35 128.15 43.95 128.15 43.65 128.15 44.0 127.7 43.0 126.65 38.4 121.7 38.1 122.05 37.95 122.0 35.8 124.65 35.65 124.85 32.5 128.3 31.25 129.8 21.05 140.7 21.5 140.5 21.75 140.4 20.55 141.7 19.35 142.95 18.9 143.45 14.85 145.05 14.25 144.9 14.15 144.65 M26.45 108.6 L26.3 108.15 26.2 108.3 25.95 108.05 20.55 113.75 12.8 121.95 12.75 122.0 12.15 122.65 12.1 122.7 10.35 123.65 10.5 123.7 10.65 124.25 9.65 125.3 9.15 125.8 9.35 126.05 9.3 126.05 Q7.45 125.85 6.45 125.2 L5.9 124.8 12.8 116.8 Q16.75 112.3 20.55 109.35 21.75 108.45 24.4 105.35 26.75 103.35 27.9 106.85 28.55 108.05 30.9 110.65 L33.9 114.3 33.8 115.05 33.6 115.25 32.85 115.4 31.9 115.2 32.2 114.9 26.45 108.6 M27.9 176.45 L28.15 175.25 26.15 173.7 24.2 172.15 23.55 171.7 18.85 168.9 18.2 168.6 18.15 168.55 17.8 168.3 14.85 166.2 14.85 166.15 14.8 165.65 Q14.9 163.45 22.5 167.75 31.05 172.6 31.05 174.2 31.05 174.7 30.45 175.2 L27.9 176.45 M67.85 175.95 L67.75 176.2 66.15 175.65 Q66.0 175.95 66.0 175.2 L69.55 172.9 Q73.4 170.3 74.85 168.65 76.35 166.95 80.7 166.1 L86.1 165.2 Q84.2 166.55 79.15 169.5 73.4 172.9 70.8 174.6 L71.2 175.2 71.1 175.25 71.15 175.65 70.35 175.5 67.85 175.9 67.85 175.95 M109.4 143.3 L109.35 142.9 Q109.35 141.05 111.4 136.75 113.45 132.5 115.1 130.8 117.1 128.8 118.35 128.4 120.3 127.7 121.85 129.9 L125.85 135.65 125.55 136.4 125.45 136.55 124.7 136.8 Q124.1 136.8 123.3 135.95 L123.95 135.7 Q122.9 133.55 121.3 131.8 121.05 131.5 120.1 131.25 L119.95 131.45 119.75 131.25 117.55 133.85 117.35 134.05 116.8 134.65 116.65 134.85 116.15 135.4 115.8 135.8 115.25 136.5 114.95 136.9 114.9 137.0 114.45 137.45 114.55 137.45 112.25 140.95 115.05 139.1 113.0 141.05 109.85 143.85 109.55 143.6 109.55 143.55 109.4 143.3 M126.05 177.5 L126.0 177.5 123.45 177.6 122.65 177.65 118.65 178.0 118.55 184.65 Q117.65 186.6 116.15 187.85 L115.5 187.85 Q115.4 188.15 115.4 187.45 L115.4 187.4 116.0 183.4 Q116.55 180.05 116.55 177.75 116.55 176.35 117.1 175.85 117.8 175.2 119.85 175.2 L126.6 175.7 Q127.4 175.7 127.65 176.25 L126.15 177.4 126.1 177.45 126.05 177.5 M-29.15 136.1 L-27.75 134.15 Q-25.95 131.8 -24.3 130.5 -22.1 128.75 -20.15 128.85 -18.25 129.0 -17.1 130.8 -10.2 139.3 -10.2 143.1 L-11.1 144.15 -11.25 144.0 -14.45 139.9 -13.0 140.95 Q-14.75 137.8 -17.55 134.65 L-19.35 132.8 -19.85 132.3 -20.55 131.4 -20.65 131.45 -20.85 131.25 Q-21.8 131.5 -22.05 131.8 L-23.5 133.65 -24.75 134.7 -24.15 134.7 -24.7 135.7 -24.3 135.85 -23.9 136.0 -25.55 136.6 -28.65 137.25 -29.25 137.2 -29.4 136.65 -29.4 136.6 -29.15 136.1 M-27.65 177.6 L-27.7 177.55 -28.0 177.35 -28.4 177.1 -28.55 177.0 Q-30.05 175.95 -30.15 175.2 L-29.9 175.05 Q-29.0 174.45 -27.45 174.4 L-22.3 174.65 -18.55 174.85 -16.3 175.05 Q-15.85 175.4 -15.85 177.35 -15.85 178.95 -16.5 182.55 L-16.75 182.85 -17.2 186.9 -17.2 187.05 Q-17.25 187.2 -17.6 187.2 L-17.7 187.2 Q-18.2 187.2 -19.1 186.0 L-19.8 185.0 -19.3 185.45 -19.3 183.8 -19.3 183.6 -19.4 178.0 -23.4 177.65 -27.15 177.5 -26.9 177.95 -27.65 177.6 M-18.55 183.3 L-18.75 183.35 -18.75 184.1 -18.45 184.25 -18.55 183.3" fill="#a3b279" fill-rule="evenodd" stroke="none"/>
      <path d="M78.0 18.2 L78.15 18.15 Q85.9 18.15 94.75 32.1 102.55 44.4 103.4 54.95 102.85 58.7 101.25 64.05 98.8 72.1 96.3 75.9 93.25 80.55 87.45 87.95 83.75 92.65 79.6 96.9 L77.05 99.4 Q76.05 99.15 76.05 100.2 L76.2 100.4 Q76.25 100.95 76.9 101.2 L86.05 112.55 Q93.3 121.25 96.6 123.9 93.6 128.15 93.6 131.25 93.6 136.45 94.45 140.7 95.55 146.3 97.85 148.15 L98.1 149.05 Q98.85 151.25 99.6 151.25 L100.2 151.1 100.35 150.9 Q99.5 148.0 101.7 143.6 L105.65 136.65 Q107.6 132.85 111.2 128.55 115.85 123.0 118.7 123.0 122.65 123.0 131.9 140.1 L131.8 140.95 131.3 141.15 Q127.7 142.6 120.7 143.65 116.05 144.35 113.7 147.0 112.9 147.9 110.85 151.8 108.6 156.1 108.6 157.35 108.6 159.2 109.85 162.7 L109.8 164.7 110.05 165.7 Q110.45 166.85 111.4 167.8 114.35 170.85 121.3 170.85 L126.65 170.1 131.95 169.35 Q134.0 169.35 135.3 171.95 L134.15 175.6 Q132.5 180.75 131.85 181.65 128.95 185.45 125.45 188.25 120.2 192.45 115.6 192.45 112.1 192.45 111.05 190.35 L110.65 188.4 110.55 188.8 112.35 179.95 Q112.35 177.5 111.75 175.75 110.85 173.35 108.6 171.35 100.45 164.9 91.1 168.75 85.3 171.1 82.0 178.85 L79.75 183.65 Q78.45 185.7 76.5 185.7 74.75 185.7 69.85 182.05 66.2 179.4 64.25 177.5 L63.55 176.5 63.65 174.25 Q64.2 170.4 69.0 167.25 69.95 166.6 82.15 162.05 91.65 158.55 93.25 157.55 L93.2 157.5 93.9 157.65 93.4 156.3 92.8 155.35 91.9 154.4 Q90.9 152.95 88.05 151.7 84.15 150.0 78.4 149.25 72.8 148.5 68.8 149.1 L68.45 149.15 69.1 149.95 66.55 147.2 60.0 140.75 53.7 132.85 Q51.95 131.1 50.65 130.7 49.35 128.45 40.15 138.3 35.5 143.3 30.85 149.05 L30.3 148.95 Q23.35 147.85 18.0 148.7 16.25 149.0 10.4 152.25 4.3 155.65 3.95 157.25 2.85 157.75 2.85 158.5 L3.8 159.3 Q14.95 158.55 20.7 161.2 24.15 162.8 29.45 167.25 35.4 171.1 36.05 173.25 L36.25 174.35 35.4 175.8 Q33.1 179.65 29.85 183.0 25.25 187.8 21.75 187.8 20.1 187.8 19.0 184.55 L16.9 177.4 Q13.2 167.0 3.15 167.0 -4.65 167.0 -8.75 171.15 -11.85 174.2 -11.85 177.75 -11.85 179.25 -12.9 189.15 L-12.6 189.85 -12.55 189.9 -13.6 191.4 -15.85 191.4 Q-19.1 191.4 -26.1 186.1 -32.4 181.35 -34.05 178.7 -35.2 176.85 -35.95 174.85 L-36.1 174.4 Q-36.4 172.65 -36.1 171.45 -35.4 168.9 -30.75 168.9 -30.2 168.9 -28.85 169.7 L-22.2 170.45 Q-15.65 170.45 -12.7 165.9 -10.95 163.2 -10.95 160.65 L-11.3 157.15 -11.1 154.85 Q-11.1 153.05 -13.95 148.55 -17.15 143.5 -19.8 142.65 L-26.1 141.55 Q-31.85 140.5 -33.15 139.65 L-33.95 139.0 Q-32.7 134.95 -30.25 130.95 -25.3 122.85 -19.05 122.85 -14.75 122.85 -8.75 134.1 -5.6 140.05 -0.7 150.35 L-0.6 151.8 -0.15 151.8 Q0.6 149.55 3.1 144.75 L4.2 141.9 4.5 142.8 4.75 138.6 5.0 134.1 Q5.0 132.5 3.05 126.85 2.05 124.0 1.55 120.65 2.4 119.95 3.95 119.65 L4.0 119.45 5.15 118.6 11.85 110.6 19.65 101.6 Q20.45 102.2 20.85 102.2 21.65 102.2 21.9 101.85 20.6 97.25 11.75 88.15 2.5 78.6 0.9 74.7 L-2.25 66.85 -2.25 66.7 Q-4.05 58.8 -4.05 56.9 -4.05 52.85 -1.8 45.35 0.25 38.55 2.45 34.2 4.25 30.7 6.35 28.3 9.1 25.2 13.2 22.85 15.1 21.75 20.35 19.35 18.45 24.05 18.45 28.65 18.45 30.5 18.65 30.95 L18.95 31.6 Q19.15 36.35 21.9 40.6 23.85 43.6 30.3 51.5 46.15 72.2 49.9 72.2 L50.1 72.2 50.25 72.2 Q51.35 72.2 55.2 67.35 59.55 61.9 60.45 61.25 63.9 58.85 66.5 55.3 L70.5 49.95 Q73.75 46.45 76.5 38.85 L77.6 35.65 Q79.35 30.95 79.35 26.2 L79.3 22.65 Q79.1 20.55 78.35 19.2 L78.0 18.2 M80.6 100.0 L80.45 100.15 80.1 100.1 80.6 100.0 M110.85 195.85 Q109.65 195.35 108.8 194.45 L108.9 194.5 108.9 194.45 Q109.7 195.3 110.85 195.85 M38.0 146.4 L36.95 147.6 34.75 149.95 34.0 149.75 34.3 149.8 Q35.85 148.5 38.0 146.4 M14.55 153.7 Q13.3 154.15 12.15 154.85 L12.1 154.8 12.0 154.85 11.4 154.65 11.7 154.5 14.55 153.7 M11.45 156.55 Q15.9 157.1 20.55 158.75 L21.6 159.1 Q28.45 161.8 32.65 165.35 29.7 163.55 25.6 161.7 21.05 159.7 15.5 157.85 L11.45 156.55 M32.7 165.35 Q34.25 165.7 36.0 167.25 L37.2 168.55 37.25 168.85 37.2 168.75 Q35.45 167.05 32.7 165.35 M-9.1 193.8 L-9.5 194.35 Q-11.4 196.45 -14.85 196.35 -17.05 196.35 -19.55 195.35 L-14.55 195.9 -14.4 195.9 -14.05 195.9 -13.45 195.85 -13.2 195.85 -13.0 195.8 -12.8 195.75 Q-11.0 195.4 -9.6 194.25 L-9.1 193.8 M-1.3 142.45 L-0.35 145.85 -0.45 146.8 Q-0.6 144.85 -1.3 142.45 M88.5 31.95 L88.5 32.0 Q88.5 33.45 89.35 36.6 90.2 39.75 90.2 41.15 L88.75 53.8 88.65 54.15 Q87.4 59.0 85.15 63.2 80.0 72.75 65.5 87.15 64.7 87.6 64.7 88.15 L67.65 92.65 Q70.95 97.1 72.8 97.1 75.1 97.1 86.3 83.4 98.15 68.9 98.15 62.8 L97.95 61.2 98.15 57.3 98.4 53.75 Q98.4 47.2 96.7 42.95 94.95 38.6 89.25 31.1 88.55 31.35 88.5 31.95 M84.55 58.8 L84.3 59.7 84.65 59.55 85.0 58.0 85.0 58.05 85.05 58.0 85.8 56.6 Q88.15 52.05 88.2 47.2 L88.25 46.05 Q88.25 43.35 86.1 38.35 L82.8 31.5 Q81.8 33.4 80.1 38.5 L77.25 45.95 Q74.25 52.15 66.3 61.1 L53.0 75.3 53.25 75.75 52.8 76.2 Q52.8 76.65 56.25 80.9 60.0 85.5 61.5 85.5 62.7 85.5 66.05 81.85 L70.85 76.5 Q75.25 72.15 79.2 66.6 L84.55 58.8 M57.1 74.9 L56.75 74.7 58.15 73.75 57.1 74.9 M61.5 81.25 L61.05 81.6 60.4 80.1 61.5 81.25 M10.0 50.3 Q9.6 48.1 9.6 46.0 L9.9 38.4 Q9.8 36.8 10.9 33.9 12.05 30.95 12.05 30.4 L12.0 29.7 11.9 29.4 Q11.4 28.3 9.5 29.85 7.75 31.25 7.2 32.6 5.15 34.5 2.95 39.7 -0.55 48.05 -0.55 51.5 L0.0 56.6 -0.15 59.85 Q-0.15 68.05 10.7 81.7 13.75 85.55 29.45 102.6 L54.7 131.35 Q63.65 141.65 66.8 144.4 L67.2 145.2 Q67.75 146.1 68.4 146.1 L74.7 145.5 Q75.65 145.5 82.05 146.85 83.9 146.85 83.9 145.65 L83.5 144.95 84.3 145.4 Q82.25 140.15 75.7 132.95 L63.45 120.8 Q58.6 116.1 52.7 108.55 45.3 99.05 42.5 95.9 L30.5 82.85 Q23.7 75.45 19.95 70.6 11.55 59.65 10.0 50.3 M91.7 126.45 L92.15 126.2 Q92.6 125.9 92.6 125.4 92.6 124.3 72.95 102.5 69.6 98.8 61.15 90.85 52.65 82.8 49.65 79.55 34.8 64.25 28.35 56.45 17.1 43.0 15.9 33.45 15.55 33.85 15.3 34.55 L15.2 34.35 Q12.85 36.65 12.0 39.1 11.3 41.1 11.3 44.1 11.3 44.85 12.05 48.4 L11.85 47.6 Q11.6 48.0 11.6 49.05 11.6 57.5 25.65 73.6 33.25 82.35 46.35 95.75 L67.1 119.5 Q78.1 131.6 88.0 140.35 88.35 141.65 88.55 141.65 L89.35 141.55 90.0 142.1 89.6 141.4 89.6 141.35 90.7 133.85 91.7 126.45 M13.75 48.5 L13.7 45.9 14.0 49.05 13.75 48.5 M90.0 125.95 L89.75 126.3 89.25 126.9 88.9 127.55 88.85 127.35 90.0 125.95 M79.4 142.4 L77.8 140.7 80.15 142.6 79.55 142.4 79.4 142.4 M14.15 144.65 L13.35 145.05 14.6 145.65 17.65 146.1 22.8 145.8 28.55 146.0 30.3 146.6 Q30.65 146.6 33.4 142.75 36.45 138.45 37.05 137.9 44.9 129.95 44.9 128.7 L44.85 127.95 Q45.3 127.65 45.3 127.0 45.3 126.4 42.55 123.1 39.65 119.6 37.65 118.05 36.2 119.0 33.9 122.0 L30.35 126.45 Q14.1 143.5 14.1 144.3 L14.15 144.65 M26.45 108.6 L26.2 108.3 26.3 108.15 26.45 108.6 M12.1 122.7 L10.65 124.25 10.5 123.7 10.35 123.65 12.1 122.7 M9.35 126.05 L10.4 127.35 10.3 127.65 9.3 126.05 9.35 126.05 M11.25 133.9 L11.35 136.95 10.85 137.7 10.8 138.2 10.85 137.6 11.25 133.9 M33.6 115.25 L33.8 115.05 33.9 114.3 30.9 110.65 Q28.55 108.05 27.9 106.85 26.75 103.35 24.4 105.35 21.75 108.45 20.55 109.35 16.75 112.3 12.8 116.8 L5.9 124.8 6.45 125.2 Q6.3 125.65 6.3 126.4 6.3 128.3 7.5 134.5 8.75 141.0 9.6 142.7 L9.9 142.65 9.95 142.65 10.05 142.6 10.0 142.6 10.1 142.5 Q13.3 138.5 24.3 126.55 33.6 116.35 33.6 115.65 L33.6 115.25 M35.65 124.85 L35.8 124.65 37.95 122.0 38.1 122.05 35.65 124.85 M31.25 129.8 L21.75 140.4 21.5 140.5 21.05 140.7 31.25 129.8 M30.45 175.2 Q31.05 174.7 31.05 174.2 31.05 172.6 22.5 167.75 14.9 163.45 14.8 165.65 13.95 165.4 13.95 166.8 13.95 167.35 15.9 170.7 L18.45 174.8 20.85 179.45 Q22.4 182.7 22.8 182.7 24.05 182.7 27.3 179.25 30.3 176.05 30.45 175.2 M17.8 168.3 L18.15 168.55 17.9 168.45 17.8 168.3 M23.35 177.8 L23.65 178.45 23.55 178.5 23.35 177.8 M71.2 175.2 L70.8 174.6 Q73.4 172.9 79.15 169.5 84.2 166.55 86.1 165.2 L80.7 166.1 Q76.35 166.95 74.85 168.65 73.4 170.3 69.55 172.9 L66.0 175.2 Q66.0 175.95 66.15 175.65 L67.75 176.2 67.85 175.95 67.7 176.75 Q68.9 177.25 72.1 180.45 75.05 183.35 75.9 183.35 76.65 183.35 77.85 180.15 L79.5 175.8 82.55 170.9 84.6 167.55 84.55 166.9 84.45 166.8 Q82.7 167.35 81.2 168.55 78.2 169.95 75.05 172.15 L73.1 173.7 71.2 175.2 M125.45 136.55 L125.55 136.4 125.85 135.65 121.85 129.9 Q120.3 127.7 118.35 128.4 117.1 128.8 115.1 130.8 113.45 132.5 111.4 136.75 109.35 141.05 109.35 142.9 L109.4 143.3 Q108.6 144.25 108.6 145.0 108.6 145.5 108.75 145.55 L109.2 145.65 Q111.9 143.7 119.1 140.2 L125.45 136.95 125.45 136.55 M114.55 137.45 L114.45 137.45 114.9 137.0 114.55 137.45 M117.55 133.85 L119.75 131.25 119.95 131.45 118.6 132.8 117.55 133.85 M87.1 136.8 L87.35 137.75 85.8 135.45 87.1 136.8 M93.45 156.3 L93.4 156.3 93.55 156.55 93.45 156.3 M115.4 187.45 L115.2 187.85 115.6 188.6 116.3 189.45 Q117.3 188.6 120.7 186.25 123.45 184.3 124.25 183.45 125.75 181.8 126.85 179.6 L128.6 176.15 Q127.5 176.55 126.15 177.4 L127.65 176.25 Q127.4 175.7 126.6 175.7 L119.85 175.2 Q117.8 175.2 117.1 175.85 116.55 176.35 116.55 177.75 116.55 180.05 116.0 183.4 L115.4 187.4 115.4 187.45 M-11.25 144.0 L-11.1 144.15 -10.2 143.1 Q-10.2 139.3 -17.1 130.8 -18.25 129.0 -20.15 128.85 -22.1 128.75 -24.3 130.5 -25.95 131.8 -27.75 134.15 L-29.15 136.1 -30.45 136.9 -30.3 137.25 -24.3 138.8 Q-21.25 139.55 -19.65 140.25 -13.7 144.8 -12.45 144.8 L-11.65 144.8 Q-11.3 144.65 -11.25 144.0 M-24.15 134.7 L-24.75 134.7 -23.5 133.65 -24.15 134.7 M-20.65 131.45 L-20.55 131.4 -19.85 132.3 -20.65 131.45 M-29.9 175.05 Q-31.65 173.25 -31.65 175.65 L-27.45 182.1 Q-22.45 188.4 -18.45 188.4 -18.0 188.4 -17.4 187.65 L-17.45 187.2 -17.6 187.2 Q-17.25 187.2 -17.2 187.05 L-17.2 186.9 -16.75 182.85 -16.5 182.55 Q-15.85 178.95 -15.85 177.35 -15.85 175.4 -16.3 175.05 L-18.55 174.85 -22.3 174.65 -27.45 174.4 Q-29.0 174.45 -29.9 175.05 M-24.2 181.05 L-24.55 180.75 -25.05 180.5 -26.25 179.2 -27.65 177.6 -26.9 177.95 -26.25 179.2 -24.2 181.05 M-18.55 183.3 L-18.45 184.25 -18.75 184.1 -18.75 183.35 -18.55 183.3" fill="#909764" fill-rule="evenodd" stroke="none"/>
    </g>
  </defs>
</svg>
