<?xml version="1.0" encoding="UTF-8" standalone="no"?>
<svg xmlns:ffdec="https://www.free-decompiler.com/flash" xmlns:xlink="http://www.w3.org/1999/xlink" ffdec:objectType="frame" height="572.3px" width="622.5px" xmlns="http://www.w3.org/2000/svg">
  <g transform="matrix(1.0, 0.0, 0.0, 1.0, 288.45, 502.5)">
    <use ffdec:characterId="1746" height="21.05" transform="matrix(7.0, 0.0, 0.0, 7.0, -227.85, -202.3)" width="29.35" xlink:href="#shape0"/>
    <use ffdec:characterId="1692" height="33.65" transform="matrix(-6.1428, -0.7166, -0.7166, 6.1428, 74.103, -244.7651)" width="11.4" xlink:href="#shape1"/>
    <use ffdec:characterId="1704" height="7.35" transform="matrix(-6.1428, -0.7166, -0.7166, 6.1428, 58.8689, -231.5988)" width="7.9" xlink:href="#shape2"/>
    <use ffdec:characterId="1724" height="33.2" transform="matrix(6.4371, 1.4455, -1.4455, 6.4371, 214.3144, -223.3646)" width="5.3" xlink:href="#shape3"/>
    <use ffdec:characterId="1747" height="25.3" transform="matrix(6.4371, 1.4455, -1.4455, 6.4371, 216.4285, -208.6903)" width="4.15" xlink:href="#shape4"/>
    <use ffdec:characterId="1724" height="33.2" transform="matrix(-6.455, 1.3632, 1.3632, 6.455, -225.3557, -246.1936)" width="5.3" xlink:href="#shape3"/>
    <use ffdec:characterId="1747" height="25.3" transform="matrix(-6.455, 1.3632, 1.3632, 6.455, -227.6569, -231.5474)" width="4.15" xlink:href="#shape4"/>
  </g>
  <defs>
    <g id="shape0" transform="matrix(1.0, 0.0, 0.0, 1.0, 32.55, 28.9)">
      <path d="M-20.45 -28.75 L-20.4 -28.8 -19.9 -28.9 -19.85 -28.9 -18.75 -28.6 Q-17.9 -28.45 -17.25 -28.5 L-17.25 -28.45 -17.2 -28.45 -17.2 -28.25 Q-17.2 -28.15 -17.25 -28.1 L-17.15 -28.1 -17.05 -28.05 -17.05 -28.0 -16.95 -27.85 -16.9 -27.85 Q-16.85 -27.8 -16.75 -27.8 L-16.7 -27.8 Q-16.65 -28.0 -16.6 -27.95 L-16.55 -28.0 -16.5 -27.95 Q-16.4 -27.85 -16.4 -27.7 L-16.4 -27.65 -16.45 -27.65 Q-16.6 -27.55 -16.75 -27.55 L-16.95 -27.55 Q-17.1 -27.6 -17.2 -27.75 L-17.25 -27.85 -17.35 -28.0 -17.55 -28.1 -17.55 -28.2 -17.6 -28.2 Q-17.95 -28.25 -18.9 -28.45 -19.75 -28.65 -20.05 -28.65 L-20.3 -28.6 Q-20.3 -28.45 -20.5 -28.25 -20.8 -28.0 -21.1 -27.95 L-21.2 -27.95 -21.2 -28.0 -21.15 -28.05 -20.7 -28.45 Q-20.5 -28.6 -20.45 -28.75 M-23.85 -27.75 Q-23.25 -28.25 -21.6 -28.05 L-21.55 -28.05 -21.55 -28.0 Q-21.5 -27.9 -22.05 -27.75 L-22.85 -27.6 Q-23.4 -26.7 -23.4 -26.65 -23.4 -26.55 -23.35 -26.5 -23.15 -26.4 -23.2 -26.25 -23.2 -26.05 -23.35 -25.95 L-23.5 -25.8 -23.5 -25.75 -23.6 -25.75 -23.9 -25.25 -24.45 -24.45 -24.3 -23.9 -24.3 -23.8 -24.1 -23.35 Q-24.0 -23.0 -23.9 -22.65 L-23.95 -22.6 Q-24.35 -22.25 -24.8 -21.75 -24.95 -21.45 -25.25 -21.15 L-25.3 -21.1 -25.35 -21.1 -25.35 -21.0 -25.55 -20.8 -25.65 -20.9 -25.6 -20.95 -25.6 -21.0 -25.45 -21.1 -25.4 -21.15 -25.45 -21.15 -25.4 -21.2 -25.1 -21.65 Q-24.6 -22.5 -24.55 -22.9 L-24.55 -22.95 -24.5 -23.1 -24.5 -23.15 Q-24.5 -23.4 -24.55 -23.6 -24.65 -23.8 -24.6 -24.05 L-24.65 -24.25 -24.65 -24.5 Q-24.65 -24.55 -24.15 -25.3 L-23.6 -26.2 Q-23.6 -26.3 -23.7 -26.5 -24.15 -27.0 -24.1 -27.2 L-24.1 -27.4 Q-24.05 -27.6 -23.85 -27.75 M-23.55 -27.65 L-23.7 -27.5 Q-23.85 -27.4 -23.85 -27.25 -23.85 -27.15 -23.8 -27.1 -23.75 -27.05 -23.55 -27.0 L-23.4 -27.35 Q-23.35 -27.55 -23.2 -27.65 L-23.55 -27.65 M-23.2 -26.8 L-23.15 -26.85 -23.1 -26.85 -23.1 -26.9 -23.05 -26.9 -23.0 -26.85 -23.0 -26.65 -23.05 -26.6 -23.25 -26.65 -23.25 -26.7 -23.2 -26.75 -23.2 -26.8 M-32.1 -21.4 L-32.3 -21.15 -32.25 -21.15 -32.2 -21.1 -32.2 -21.0 -32.25 -20.85 -32.4 -20.85 -32.55 -21.0 Q-32.6 -21.05 -32.55 -21.15 -32.55 -21.35 -32.4 -21.5 L-31.95 -21.95 -31.7 -21.95 Q-31.0 -21.6 -30.6 -21.35 L-30.5 -21.55 -30.05 -22.1 Q-30.05 -22.4 -30.25 -22.5 -30.55 -22.7 -30.75 -23.05 -30.95 -22.95 -30.95 -23.0 L-31.05 -23.0 Q-31.05 -23.05 -31.05 -23.15 L-31.05 -23.3 Q-31.0 -23.35 -30.95 -23.3 L-30.9 -23.3 -30.7 -23.35 Q-30.65 -23.35 -30.55 -23.2 L-30.25 -22.8 -30.25 -22.85 -29.95 -22.45 Q-29.8 -22.25 -29.8 -22.1 -29.8 -22.05 -30.05 -21.75 L-30.35 -21.35 -30.35 -21.4 Q-30.5 -21.05 -30.65 -20.9 -30.75 -20.8 -30.75 -20.7 L-30.75 -20.4 -30.6 -20.25 -30.6 -20.2 -30.55 -20.2 -30.55 -20.15 Q-30.45 -20.05 -30.3 -20.0 -30.05 -19.9 -29.7 -19.85 L-29.65 -19.85 -29.6 -19.8 -29.6 -19.75 -28.45 -19.55 Q-28.2 -19.6 -27.8 -19.75 L-27.25 -20.05 -26.7 -20.2 Q-26.2 -20.5 -26.0 -20.6 L-25.95 -20.6 -25.7 -20.8 -25.6 -20.8 -25.6 -20.7 -25.85 -20.3 -25.9 -20.25 -26.15 -20.2 -26.7 -20.05 -27.15 -19.8 -27.2 -19.8 -27.6 -19.5 -28.25 -19.05 -28.3 -19.05 -28.75 -19.0 -28.95 -19.0 -28.85 -18.9 -28.85 -18.95 Q-28.75 -18.8 -28.8 -18.55 L-28.85 -18.5 -29.1 -18.45 -29.55 -18.4 -29.65 -18.3 -29.9 -18.3 -29.95 -18.35 -29.9 -18.4 -29.9 -18.45 -29.6 -18.5 -29.55 -18.5 -29.05 -18.7 -29.15 -18.8 -29.45 -18.75 -29.55 -18.75 Q-29.7 -18.85 -30.2 -19.1 -30.75 -19.3 -31.05 -19.35 L-31.1 -19.4 -31.1 -19.6 -31.05 -19.7 -31.05 -19.8 -31.0 -20.1 -31.0 -20.45 -30.95 -20.7 -30.95 -20.75 -31.0 -20.75 -31.0 -20.85 -30.85 -21.05 -30.8 -21.15 -30.75 -21.2 -31.15 -21.45 -31.2 -21.45 -31.65 -21.7 -31.8 -21.75 -31.9 -21.75 -32.1 -21.4 M-30.45 -19.5 L-30.6 -19.45 -29.85 -19.2 -29.35 -18.95 -29.2 -19.05 Q-29.45 -19.15 -29.75 -19.25 L-30.4 -19.5 -30.45 -19.5 M-30.55 -18.45 L-30.45 -18.3 -30.25 -18.3 -30.2 -18.25 -30.2 -18.2 -30.25 -18.2 -30.45 -18.05 -30.5 -18.05 Q-30.6 -18.05 -30.65 -18.15 L-30.75 -18.2 -30.8 -18.15 -30.95 -18.15 -31.1 -18.3 -31.05 -18.35 Q-30.95 -18.5 -30.85 -18.5 L-30.6 -18.45 -30.55 -18.45 M-25.3 -17.85 L-25.25 -17.9 -25.2 -17.85 -25.2 -17.75 -25.05 -17.6 -24.85 -17.25 Q-24.6 -16.7 -24.6 -16.45 L-24.6 -16.4 -24.95 -16.05 Q-25.25 -15.75 -25.3 -15.55 -25.3 -15.4 -25.35 -15.15 L-25.45 -14.75 -25.75 -13.1 -25.75 -13.05 -25.4 -12.1 -25.4 -12.05 -25.35 -12.05 -25.25 -11.95 -25.05 -11.8 -25.05 -11.7 -24.8 -11.5 Q-24.55 -11.45 -24.3 -11.3 -24.1 -11.15 -24.1 -10.95 L-24.2 -10.7 -24.3 -10.4 -24.3 -9.95 -24.25 -9.65 Q-24.2 -9.3 -24.2 -9.25 -24.2 -9.1 -24.25 -9.05 -24.3 -8.9 -24.5 -8.75 -24.7 -8.7 -25.15 -8.45 L-25.2 -8.45 Q-25.75 -8.25 -26.6 -8.2 L-27.05 -8.25 -27.05 -8.2 -27.1 -8.2 -27.4 -8.25 Q-27.9 -8.5 -27.9 -8.7 L-27.85 -8.9 Q-27.8 -8.95 -27.85 -9.0 -28.0 -9.15 -28.85 -9.15 L-29.15 -9.15 -29.3 -8.9 -29.05 -8.9 -29.05 -8.85 -29.1 -8.8 Q-29.3 -8.7 -29.4 -8.6 L-29.6 -8.5 Q-29.8 -8.4 -29.95 -8.35 L-29.95 -8.25 Q-29.95 -8.0 -30.1 -8.05 -30.2 -8.05 -30.25 -8.1 -30.35 -8.15 -30.3 -8.25 L-30.3 -8.3 -30.25 -8.45 -30.25 -8.5 -30.0 -8.5 -29.9 -8.6 -29.9 -8.65 -29.85 -8.7 Q-29.65 -8.75 -29.6 -8.9 L-29.4 -9.2 Q-29.15 -9.5 -28.0 -9.3 L-27.95 -9.3 Q-27.55 -9.1 -27.6 -8.75 -27.6 -8.65 -27.45 -8.5 -27.35 -8.5 -27.1 -8.35 L-27.1 -8.4 -27.05 -8.4 Q-26.8 -8.45 -26.65 -8.5 L-26.35 -8.5 -25.95 -8.55 -24.6 -9.0 -24.5 -9.15 -24.5 -9.2 -24.55 -9.25 -24.55 -9.3 -24.5 -9.4 -24.5 -9.55 -24.55 -9.85 -24.55 -9.9 -24.7 -10.25 Q-24.75 -10.4 -24.75 -10.85 -24.75 -10.95 -24.85 -11.1 -25.0 -11.35 -24.95 -11.4 L-25.0 -11.45 Q-25.25 -11.6 -25.35 -11.75 L-25.55 -11.8 -25.6 -11.8 Q-26.1 -12.6 -26.15 -12.8 -26.2 -13.0 -26.15 -13.65 L-26.05 -14.25 -25.9 -15.05 Q-25.8 -15.5 -25.75 -15.75 -25.75 -16.05 -25.45 -16.3 L-25.45 -16.25 -25.25 -16.5 -25.55 -17.35 -25.6 -17.3 -25.6 -17.25 -25.65 -17.2 Q-25.8 -17.1 -25.95 -16.95 -26.0 -16.85 -26.1 -16.8 L-26.25 -16.75 Q-26.35 -16.45 -26.45 -16.3 -26.65 -15.9 -26.95 -15.75 L-27.0 -15.8 -27.0 -15.75 -27.25 -14.8 -27.3 -14.75 -27.35 -14.75 Q-27.35 -14.7 -27.4 -14.65 L-27.5 -14.6 Q-28.15 -14.45 -28.3 -14.15 L-28.45 -13.85 Q-28.55 -13.7 -28.8 -13.55 L-29.1 -13.55 -29.1 -13.7 Q-29.05 -13.75 -28.9 -13.8 -28.75 -13.85 -28.65 -14.0 L-28.55 -14.25 Q-28.35 -14.6 -27.65 -14.8 L-27.55 -14.85 -27.55 -14.9 -27.45 -15.0 -27.45 -15.1 -27.4 -15.35 -27.35 -15.35 -27.35 -15.6 -27.25 -15.75 -27.1 -16.0 -27.05 -16.0 Q-26.95 -16.2 -26.8 -16.45 L-26.5 -16.8 -26.55 -16.8 -26.5 -16.85 -26.5 -16.9 -26.45 -16.9 -26.4 -16.95 -26.35 -16.95 -26.15 -17.05 -25.95 -17.3 -25.95 -17.35 -25.85 -17.35 -25.8 -17.4 Q-25.65 -17.5 -25.55 -17.65 L-25.45 -17.85 -25.4 -17.9 -25.35 -17.9 -25.3 -17.85 M-23.35 -10.3 L-23.3 -10.25 -23.1 -10.3 -23.0 -10.3 -23.0 -10.0 -23.45 -10.0 Q-23.65 -9.9 -23.75 -9.7 -23.8 -9.55 -23.8 -9.3 L-23.85 -9.25 -23.85 -9.2 -23.9 -9.2 -24.05 -9.25 -24.1 -9.25 -24.1 -9.3 -24.05 -9.9 -24.0 -9.95 -23.75 -10.15 Q-23.6 -10.25 -23.4 -10.3 L-23.35 -10.3 M-3.75 -23.85 L-3.65 -23.85 -3.6 -23.8 -3.4 -23.7 Q-3.2 -23.6 -3.2 -23.45 L-3.25 -23.4 -3.3 -23.4 -3.5 -23.5 -3.65 -23.6 Q-3.65 -23.3 -3.9 -22.8 L-4.35 -22.0 -4.4 -22.0 -4.4 -21.95 -4.85 -21.95 Q-4.95 -22.0 -5.1 -22.2 L-5.1 -22.25 Q-5.25 -22.45 -5.2 -22.6 -5.2 -22.7 -5.15 -22.75 L-5.1 -22.75 -5.05 -22.8 -4.7 -22.85 -4.6 -23.1 -4.5 -23.1 Q-4.45 -23.05 -4.45 -22.9 L-4.45 -22.85 -4.5 -22.7 -4.55 -22.7 -4.75 -22.6 -4.95 -22.6 -4.95 -22.55 -4.9 -22.35 -4.9 -22.3 Q-4.85 -22.2 -4.7 -22.2 L-4.5 -22.2 Q-4.55 -22.4 -4.35 -22.65 L-4.05 -23.0 -3.9 -23.4 Q-3.85 -23.7 -3.75 -23.85 M-8.45 -26.25 Q-8.7 -26.2 -8.95 -25.8 L-9.0 -25.8 Q-9.05 -25.8 -9.1 -25.85 L-9.15 -25.9 -9.15 -25.95 Q-9.05 -26.2 -8.75 -26.45 L-8.55 -26.65 -8.6 -26.85 -8.7 -27.15 -9.05 -27.5 Q-9.25 -27.65 -9.35 -27.65 -9.45 -27.65 -9.8 -27.35 L-10.25 -26.9 -10.3 -26.9 -10.45 -26.85 -10.7 -26.85 Q-10.8 -26.85 -10.85 -26.9 L-11.8 -26.95 Q-12.0 -27.05 -11.95 -27.25 L-11.95 -27.3 Q-11.95 -27.45 -12.0 -27.55 -12.1 -27.65 -12.35 -27.65 L-12.35 -27.7 -12.4 -27.75 -12.3 -27.85 Q-11.9 -27.95 -11.75 -27.75 -11.6 -27.6 -11.6 -27.4 L-11.6 -27.25 -11.65 -27.2 -11.55 -27.15 -10.45 -27.15 Q-10.25 -27.25 -10.0 -27.5 -9.7 -27.8 -9.45 -27.95 L-9.15 -28.0 -9.1 -27.95 Q-8.6 -27.6 -8.45 -27.35 -8.2 -27.0 -8.25 -26.6 -8.25 -26.25 -8.45 -26.25 M-8.75 -23.55 L-8.2 -23.65 -8.15 -23.6 Q-8.1 -23.6 -7.95 -23.45 L-7.95 -23.35 -8.0 -23.3 -8.6 -23.3 -9.3 -22.35 Q-9.65 -21.85 -10.1 -21.45 -10.1 -21.4 -10.15 -21.4 L-10.2 -21.4 -10.25 -21.45 -10.25 -21.5 -10.3 -21.55 -10.25 -21.55 -8.8 -23.55 -8.75 -23.55 M-8.05 -22.45 L-7.95 -22.35 -7.95 -22.3 -8.0 -22.25 -8.2 -22.25 -8.2 -22.4 -8.15 -22.45 -8.05 -22.45 M-16.55 -22.55 L-16.55 -22.4 Q-16.55 -22.2 -16.8 -22.2 L-17.15 -22.15 -17.45 -21.75 -17.45 -21.8 Q-17.45 -21.7 -17.6 -21.65 -17.7 -21.6 -17.75 -21.65 L-17.75 -21.6 Q-17.85 -21.55 -17.95 -21.55 L-19.25 -21.5 -19.9 -21.5 Q-20.25 -21.5 -20.55 -21.15 L-20.85 -20.8 -20.85 -20.45 Q-20.85 -20.25 -21.0 -20.15 L-21.0 -20.05 -21.05 -19.95 -21.1 -19.9 -21.3 -19.9 -21.35 -19.95 -21.35 -20.15 -21.3 -20.2 -21.3 -20.25 -21.25 -20.25 Q-21.15 -20.35 -21.15 -20.55 -21.15 -20.9 -21.1 -20.95 -20.8 -21.4 -20.45 -21.6 -20.15 -21.75 -19.6 -21.8 L-19.05 -21.8 -17.95 -21.85 -17.8 -21.9 -17.7 -21.9 Q-17.6 -22.2 -17.2 -22.35 -17.05 -22.4 -16.95 -22.45 L-16.9 -22.5 -16.9 -22.45 -16.85 -22.5 Q-16.85 -22.55 -16.8 -22.55 L-16.65 -22.6 -16.6 -22.6 -16.55 -22.55 M-22.15 -18.65 L-22.15 -18.6 -22.25 -18.55 -22.3 -18.5 -22.35 -18.55 -22.35 -18.5 Q-22.4 -18.45 -22.45 -18.45 L-22.5 -18.45 -22.65 -18.55 -22.65 -18.7 -22.6 -18.85 -22.55 -18.9 -22.4 -18.9 Q-22.3 -18.85 -22.15 -18.7 L-22.15 -18.65 M-11.7 -20.95 L-11.7 -20.85 -11.8 -20.75 -11.95 -20.75 -11.95 -20.9 -11.85 -21.0 -11.7 -21.0 -11.7 -20.95 M-15.95 -18.4 L-15.3 -18.85 -15.25 -18.9 -15.25 -18.85 -15.2 -18.85 -15.15 -18.8 -15.15 -18.7 -15.8 -18.1 -16.35 -17.5 -16.35 -17.45 -16.45 -17.45 -16.55 -17.55 -16.55 -17.6 Q-16.45 -17.9 -15.95 -18.4 M-17.25 -16.1 L-17.25 -16.15 -17.2 -16.15 Q-16.9 -16.1 -16.8 -15.95 L-16.8 -15.75 -16.85 -15.7 -17.1 -15.1 Q-17.15 -14.95 -17.1 -14.8 L-17.1 -14.75 -17.25 -14.75 Q-17.4 -15.0 -17.4 -15.1 -17.4 -15.25 -17.25 -15.45 -17.1 -15.6 -17.1 -15.7 L-17.1 -15.75 Q-17.1 -15.85 -17.15 -15.9 L-17.25 -16.05 -17.25 -16.1 M-14.75 -15.05 Q-14.8 -14.85 -15.1 -14.5 L-15.4 -14.05 -14.6 -13.25 Q-14.5 -13.1 -14.4 -12.8 L-14.3 -12.35 -14.2 -12.35 Q-13.95 -12.7 -13.25 -12.9 -12.7 -13.0 -12.65 -13.3 -12.65 -13.35 -12.8 -13.45 L-12.9 -13.35 -13.1 -13.3 -13.15 -13.3 -13.2 -13.35 -13.2 -13.4 -13.15 -13.45 -12.95 -13.6 -12.75 -13.65 -12.7 -13.65 -12.55 -13.6 -12.5 -13.6 -12.5 -13.55 -12.45 -13.45 -12.45 -13.3 Q-12.5 -12.9 -13.0 -12.75 -13.65 -12.5 -14.05 -12.15 L-14.45 -12.1 -14.5 -12.1 -14.5 -12.15 Q-14.6 -12.3 -14.65 -12.65 L-14.75 -13.1 -15.2 -13.6 -15.2 -13.55 Q-15.7 -14.0 -15.65 -14.1 -15.65 -14.2 -15.25 -14.65 L-15.25 -14.7 Q-14.9 -15.05 -14.9 -15.15 L-14.9 -15.25 -14.85 -15.25 -14.65 -15.3 -14.6 -15.3 Q-14.4 -15.2 -14.3 -15.1 L-14.3 -15.0 -14.55 -15.0 -14.75 -15.05 M-14.9 -9.85 L-14.9 -9.95 Q-14.85 -10.05 -14.4 -10.1 L-14.35 -10.1 -14.3 -10.05 Q-14.25 -10.0 -14.25 -9.95 L-14.3 -9.9 -14.75 -9.8 -14.8 -9.8 -14.85 -9.85 -14.9 -9.85 M-12.15 -8.5 Q-12.1 -8.45 -12.3 -8.4 -12.4 -8.3 -12.55 -8.15 L-12.6 -8.1 -12.65 -7.95 -12.65 -7.9 Q-12.65 -7.85 -12.7 -7.85 L-12.8 -7.95 -12.85 -7.95 -12.85 -8.0 -12.8 -8.25 Q-12.8 -8.4 -12.45 -8.5 L-12.45 -8.55 -12.6 -8.5 Q-12.7 -8.5 -12.7 -8.55 L-12.75 -8.65 -12.7 -8.7 -12.6 -8.75 -12.55 -8.8 -12.3 -8.8 Q-12.15 -8.75 -12.15 -8.5 M-21.1 -9.6 L-21.05 -9.6 -21.05 -9.55 Q-21.05 -9.5 -21.1 -9.4 L-21.15 -9.3 -21.15 -9.25 -21.2 -9.25 -21.5 -9.2 -21.55 -9.2 -21.55 -9.25 -21.6 -9.3 -21.6 -9.4 -21.5 -9.45 -21.45 -9.5 -21.4 -9.5 -21.3 -9.6 -21.1 -9.6" fill="#00ffff" fill-opacity="0.5019608" fill-rule="evenodd" stroke="none"/>
      <path d="M-29.7 -18.35 L-29.85 -18.35 -29.6 -18.45 -29.7 -18.35 M-30.6 -18.4 L-30.5 -18.25 -30.45 -18.2 -30.25 -18.25 -30.5 -18.1 Q-30.55 -18.1 -30.6 -18.2 -30.65 -18.3 -30.8 -18.3 L-30.85 -18.2 Q-30.85 -18.15 -31.0 -18.3 -30.95 -18.4 -30.85 -18.4 L-30.6 -18.4 M-30.85 -20.1 L-30.85 -20.05 -30.8 -20.1 -30.85 -20.1 M-32.35 -21.45 L-31.95 -21.85 -31.75 -21.9 Q-30.95 -21.5 -30.6 -21.3 L-30.0 -22.1 Q-29.95 -22.45 -30.2 -22.55 -30.55 -22.8 -30.7 -23.15 L-30.95 -23.05 -31.0 -23.05 -31.0 -23.15 Q-30.95 -23.3 -30.95 -23.25 L-30.7 -23.25 Q-30.65 -23.25 -30.6 -23.15 L-30.45 -22.95 -30.3 -22.8 -30.05 -22.4 Q-29.85 -22.2 -29.9 -22.1 L-30.15 -21.8 -30.45 -21.4 Q-30.55 -21.1 -30.7 -20.95 -30.8 -20.85 -30.85 -20.7 L-30.8 -20.5 -30.8 -20.35 Q-30.7 -20.3 -30.65 -20.2 L-30.6 -20.15 -30.6 -20.1 Q-30.5 -20.0 -30.3 -19.9 -30.1 -19.8 -29.7 -19.8 L-29.85 -19.75 Q-28.65 -19.5 -28.45 -19.5 -28.15 -19.5 -27.8 -19.7 -27.35 -19.95 -27.2 -20.0 L-26.65 -20.15 -25.95 -20.55 -25.95 -20.5 -25.65 -20.75 -25.95 -20.35 -26.15 -20.3 -26.2 -20.25 -26.75 -20.1 -27.2 -19.85 -27.65 -19.55 Q-28.1 -19.25 -28.3 -19.15 L-28.8 -19.1 Q-29.0 -19.05 -29.75 -19.35 L-30.4 -19.6 -30.45 -19.55 -30.85 -19.45 -29.9 -19.1 -29.35 -18.9 -29.15 -19.0 Q-29.1 -19.05 -28.9 -18.9 -28.85 -18.8 -28.85 -18.6 L-29.15 -18.5 -29.55 -18.45 -28.9 -18.65 -29.1 -18.85 -29.5 -18.85 Q-29.65 -18.95 -30.2 -19.15 -30.7 -19.35 -31.05 -19.4 L-30.95 -19.45 -31.0 -19.45 Q-31.05 -19.5 -31.0 -19.6 L-31.0 -19.8 -30.9 -20.1 -30.95 -20.2 -30.95 -20.25 -30.9 -20.4 -30.9 -20.7 -30.85 -20.85 -30.9 -20.8 -30.95 -20.8 -30.8 -21.0 -30.7 -21.1 -30.65 -21.25 -31.15 -21.5 -31.6 -21.8 -31.9 -21.8 -32.15 -21.45 -32.4 -21.15 -32.4 -21.05 -32.35 -21.1 -32.3 -21.1 -32.3 -20.95 -32.4 -20.9 -32.45 -20.95 -32.45 -21.0 -32.5 -21.15 Q-32.45 -21.3 -32.35 -21.45 M-23.9 -27.25 Q-23.95 -27.15 -23.85 -27.05 -23.75 -26.95 -23.5 -26.9 -23.45 -27.0 -23.35 -27.3 -23.2 -27.6 -23.0 -27.7 L-23.55 -27.75 -23.75 -27.55 Q-23.9 -27.4 -23.9 -27.25 M-23.65 -26.5 Q-24.05 -27.0 -24.05 -27.2 L-24.05 -27.4 Q-24.0 -27.6 -23.8 -27.7 -23.2 -28.2 -21.6 -28.0 -21.6 -27.95 -22.1 -27.8 L-22.9 -27.65 Q-23.45 -26.75 -23.45 -26.65 -23.5 -26.5 -23.35 -26.45 -23.25 -26.35 -23.25 -26.25 -23.3 -26.1 -23.4 -26.0 L-23.55 -25.8 -23.65 -25.85 -23.95 -25.3 -24.5 -24.45 -24.4 -23.85 -24.4 -23.8 -24.2 -23.3 Q-24.05 -22.95 -24.0 -22.65 -24.4 -22.3 -24.85 -21.8 -25.0 -21.5 -25.3 -21.2 L-25.35 -21.15 -25.05 -21.6 Q-24.5 -22.45 -24.5 -22.9 L-24.45 -23.1 Q-24.4 -23.4 -24.5 -23.6 -24.55 -23.85 -24.55 -24.05 -24.55 -24.1 -24.55 -24.25 L-24.6 -24.5 -24.1 -25.3 -23.5 -26.15 Q-23.5 -26.3 -23.65 -26.5 M-20.4 -28.7 L-19.9 -28.8 -18.75 -28.55 Q-17.95 -28.35 -17.25 -28.4 L-17.25 -28.25 Q-17.25 -28.2 -17.3 -28.15 L-17.35 -28.15 Q-17.3 -28.05 -17.2 -28.0 L-17.1 -28.0 -17.0 -27.8 Q-16.9 -27.7 -16.75 -27.7 L-16.6 -27.75 -16.55 -27.9 Q-16.45 -27.85 -16.5 -27.7 -16.65 -27.65 -16.75 -27.6 L-16.95 -27.6 Q-17.05 -27.65 -17.15 -27.8 L-17.2 -27.9 Q-17.25 -28.0 -17.35 -28.05 L-17.5 -28.15 -17.35 -28.3 Q-17.55 -28.25 -17.6 -28.3 -17.95 -28.3 -18.9 -28.55 -19.75 -28.75 -20.1 -28.7 L-20.35 -28.65 Q-20.35 -28.5 -20.55 -28.3 -20.8 -28.1 -21.1 -28.0 L-20.7 -28.4 Q-20.45 -28.55 -20.4 -28.7 M-25.55 -20.9 L-25.55 -20.95 -25.45 -21.05 -25.55 -20.9 M-25.35 -17.8 L-25.25 -17.8 -25.3 -17.75 -25.1 -17.55 -24.9 -17.2 Q-24.65 -16.7 -24.7 -16.45 L-25.0 -16.1 Q-25.35 -15.8 -25.35 -15.55 -25.4 -15.4 -25.45 -15.15 L-25.55 -14.75 -25.8 -13.1 -25.85 -13.05 -25.45 -12.05 -25.45 -12.0 -25.4 -11.95 -25.4 -12.0 -25.15 -11.75 -25.2 -11.75 -25.15 -11.7 Q-24.95 -11.5 -24.8 -11.4 -24.55 -11.4 -24.35 -11.25 -24.15 -11.1 -24.15 -11.0 L-24.3 -10.7 -24.4 -10.45 -24.35 -9.95 -24.35 -9.65 -24.3 -9.25 Q-24.3 -9.1 -24.3 -9.05 -24.35 -8.95 -24.55 -8.8 L-25.2 -8.55 Q-25.75 -8.35 -26.6 -8.25 -26.95 -8.25 -27.05 -8.35 -26.8 -8.35 -26.65 -8.45 L-25.9 -8.45 -24.6 -8.95 Q-24.45 -9.0 -24.45 -9.1 L-24.4 -9.25 -24.4 -9.3 -24.45 -9.3 -24.4 -9.4 -24.45 -9.55 -24.45 -9.9 -24.65 -10.3 Q-24.7 -10.45 -24.65 -10.85 -24.65 -10.95 -24.8 -11.15 L-24.9 -11.35 -24.9 -11.45 -24.95 -11.5 Q-25.2 -11.7 -25.3 -11.85 L-25.4 -11.9 -25.35 -11.85 -25.55 -11.85 Q-26.0 -12.65 -26.1 -12.8 -26.15 -13.0 -26.1 -13.65 L-26.0 -14.2 -25.8 -15.05 Q-25.7 -15.5 -25.7 -15.75 -25.65 -16.0 -25.4 -16.2 L-25.15 -16.45 -25.55 -17.5 -25.75 -17.3 -25.8 -17.3 -25.75 -17.35 Q-25.6 -17.45 -25.5 -17.6 -25.4 -17.7 -25.35 -17.8 M-26.4 -16.9 L-26.35 -16.9 -26.1 -17.0 -25.9 -17.25 -25.7 -17.25 -26.05 -17.0 Q-26.05 -16.9 -26.15 -16.85 L-26.3 -16.8 Q-26.4 -16.5 -26.5 -16.3 -26.7 -15.95 -26.95 -15.85 L-27.0 -15.9 -27.1 -15.8 -27.3 -14.85 -27.35 -14.85 -27.4 -14.8 -27.45 -14.7 -27.55 -14.65 Q-28.2 -14.5 -28.4 -14.15 L-28.5 -13.9 Q-28.6 -13.75 -28.8 -13.6 L-29.0 -13.6 -29.05 -13.65 -28.85 -13.7 Q-28.7 -13.8 -28.6 -13.95 L-28.45 -14.25 Q-28.3 -14.55 -27.6 -14.75 -27.5 -14.8 -27.5 -14.85 L-27.4 -14.9 -27.35 -15.05 -27.35 -15.3 -27.3 -15.3 -27.25 -15.55 Q-27.25 -15.6 -27.2 -15.75 L-27.05 -15.95 -27.05 -15.9 -27.0 -15.95 Q-26.95 -16.15 -26.7 -16.4 L-26.45 -16.8 -26.45 -16.85 -26.4 -16.85 -26.4 -16.9 M-22.2 -9.8 L-23.05 -10.25 -23.0 -10.35 Q-22.1 -10.25 -21.4 -9.5 -21.75 -9.6 -22.2 -9.8 M-21.15 -9.55 Q-21.15 -9.5 -21.15 -9.4 L-21.2 -9.3 -21.5 -9.3 -21.5 -9.35 -21.2 -9.55 -21.15 -9.55 M-12.55 -8.7 L-12.3 -8.7 Q-12.2 -8.7 -12.2 -8.5 L-12.3 -8.45 Q-12.45 -8.4 -12.6 -8.2 L-12.65 -8.15 -12.7 -7.95 -12.75 -8.0 -12.75 -8.2 Q-12.7 -8.35 -12.35 -8.5 L-12.45 -8.6 Q-12.55 -8.55 -12.6 -8.55 -12.7 -8.55 -12.65 -8.65 L-12.55 -8.7 M-14.75 -9.9 L-14.85 -9.9 Q-14.8 -9.95 -14.4 -10.0 L-14.35 -10.0 -14.35 -9.95 -14.75 -9.9 M-14.55 -15.1 L-14.8 -15.15 Q-14.8 -14.95 -15.15 -14.55 -15.5 -14.15 -15.5 -14.05 -15.5 -14.0 -15.1 -13.65 L-14.65 -13.2 Q-14.55 -13.1 -14.45 -12.75 L-14.35 -12.3 -14.15 -12.3 Q-13.95 -12.65 -13.2 -12.85 -12.65 -12.95 -12.6 -13.3 -12.6 -13.4 -12.8 -13.5 -12.85 -13.5 -12.95 -13.45 L-13.15 -13.35 -12.95 -13.55 -12.7 -13.6 -12.55 -13.55 -12.55 -13.3 Q-12.55 -12.95 -13.05 -12.8 -13.7 -12.6 -14.1 -12.2 L-14.45 -12.15 Q-14.55 -12.35 -14.6 -12.7 -14.65 -13.05 -14.7 -13.15 L-15.15 -13.65 Q-15.6 -14.05 -15.6 -14.1 -15.6 -14.2 -15.2 -14.65 -14.8 -15.05 -14.85 -15.2 L-14.65 -15.2 Q-14.45 -15.15 -14.35 -15.05 L-14.55 -15.1 M-17.1 -15.95 L-17.2 -16.1 Q-16.95 -16.05 -16.9 -15.9 L-16.9 -15.75 -17.15 -15.15 Q-17.2 -14.95 -17.2 -14.8 -17.35 -15.0 -17.35 -15.1 -17.3 -15.2 -17.15 -15.4 -17.05 -15.6 -17.0 -15.7 -17.0 -15.85 -17.1 -15.95 M-15.25 -18.8 L-15.25 -18.75 -15.85 -18.15 Q-16.3 -17.65 -16.4 -17.5 L-16.45 -17.55 Q-16.4 -17.85 -15.9 -18.35 L-15.3 -18.8 -15.25 -18.8 M-11.85 -20.9 L-11.75 -20.95 -11.75 -20.9 -11.85 -20.8 -11.9 -20.8 -11.85 -20.9 M-22.2 -18.65 L-22.3 -18.6 -22.4 -18.65 Q-22.4 -18.6 -22.4 -18.55 L-22.5 -18.5 -22.6 -18.7 -22.55 -18.8 -22.4 -18.85 -22.2 -18.65 M-23.1 -26.75 L-23.1 -26.8 -23.05 -26.8 -23.05 -26.7 -23.2 -26.7 -23.1 -26.75 M-16.8 -22.25 L-17.2 -22.2 -17.5 -21.8 Q-17.55 -21.75 -17.6 -21.75 -17.7 -21.7 -17.75 -21.7 L-17.8 -21.65 Q-17.85 -21.6 -17.95 -21.6 L-19.25 -21.55 -19.95 -21.6 Q-20.25 -21.55 -20.6 -21.2 L-20.9 -20.85 -20.95 -20.45 Q-20.95 -20.25 -21.1 -20.15 L-21.05 -20.1 -21.1 -20.0 -21.3 -19.95 -21.25 -20.15 -21.25 -20.15 Q-21.05 -20.3 -21.05 -20.55 L-21.05 -20.9 Q-20.75 -21.35 -20.45 -21.5 -20.15 -21.7 -19.55 -21.75 L-17.95 -21.75 -17.8 -21.8 -17.6 -21.85 Q-17.6 -22.1 -17.15 -22.25 L-16.9 -22.4 -16.85 -22.4 -16.8 -22.45 -16.8 -22.5 -16.6 -22.55 -16.6 -22.45 Q-16.65 -22.3 -16.8 -22.25 M-8.15 -22.35 L-8.1 -22.4 -8.05 -22.35 -8.15 -22.3 -8.15 -22.35 M-10.2 -21.55 L-8.75 -23.5 -8.2 -23.55 -8.0 -23.4 -8.2 -23.35 -8.65 -23.4 -9.35 -22.4 Q-9.75 -21.9 -10.15 -21.5 L-10.2 -21.55 M-8.45 -26.6 L-8.55 -26.9 Q-8.65 -27.15 -8.65 -27.2 L-9.0 -27.55 Q-9.25 -27.75 -9.35 -27.75 -9.5 -27.75 -9.85 -27.4 L-10.3 -26.95 -10.45 -26.95 -10.7 -26.9 Q-10.75 -26.9 -10.8 -26.95 L-10.85 -26.95 -11.8 -27.0 Q-11.9 -27.1 -11.9 -27.25 -11.8 -27.7 -12.3 -27.75 -11.95 -27.9 -11.8 -27.7 -11.65 -27.6 -11.65 -27.4 L-11.7 -27.25 Q-11.85 -27.2 -11.7 -27.15 L-11.55 -27.1 -10.4 -27.1 Q-10.25 -27.2 -9.95 -27.45 -9.65 -27.75 -9.45 -27.9 L-9.15 -27.9 Q-8.65 -27.55 -8.5 -27.3 -8.25 -27.0 -8.3 -26.6 -8.35 -26.3 -8.5 -26.3 -8.75 -26.25 -9.0 -25.85 -9.05 -25.85 -9.05 -25.9 L-9.1 -25.95 Q-9.0 -26.15 -8.7 -26.4 L-8.45 -26.6 M-4.0 -23.0 L-3.85 -23.4 Q-3.75 -23.65 -3.65 -23.8 L-3.45 -23.65 Q-3.3 -23.55 -3.3 -23.45 L-3.45 -23.6 -3.7 -23.7 -3.7 -23.65 Q-3.7 -23.35 -4.0 -22.85 L-4.45 -22.05 -4.8 -22.0 -5.05 -22.25 Q-5.15 -22.45 -5.15 -22.6 -5.15 -22.65 -5.1 -22.7 L-5.05 -22.7 -4.6 -22.8 Q-4.6 -22.95 -4.55 -23.05 -4.5 -23.0 -4.5 -22.9 L-4.55 -22.75 -4.8 -22.7 -5.0 -22.65 -5.0 -22.6 Q-5.05 -22.4 -5.0 -22.3 -4.9 -22.15 -4.7 -22.1 L-4.5 -22.1 -4.5 -22.15 -4.45 -22.15 Q-4.5 -22.35 -4.3 -22.6 -4.0 -22.9 -4.0 -23.0 M-30.2 -8.45 L-30.1 -8.45 Q-30.0 -8.4 -30.0 -8.25 -30.0 -8.1 -30.1 -8.1 -30.15 -8.1 -30.2 -8.15 -30.25 -8.2 -30.25 -8.25 L-30.2 -8.45 M-23.7 -10.1 Q-23.55 -10.2 -23.4 -10.2 L-23.35 -10.2 -23.35 -10.15 -23.05 -10.2 -23.05 -10.05 -23.45 -10.1 Q-23.7 -10.0 -23.8 -9.75 -23.9 -9.6 -23.9 -9.3 L-24.0 -9.3 -23.95 -9.9 -23.7 -10.1 M-27.8 -9.05 Q-27.95 -9.25 -28.9 -9.2 L-29.15 -9.2 Q-29.4 -8.95 -29.4 -8.9 L-29.4 -8.75 -29.15 -8.85 Q-29.35 -8.75 -29.45 -8.65 L-29.65 -8.55 Q-29.85 -8.4 -30.0 -8.4 L-29.75 -8.6 -29.8 -8.6 Q-29.6 -8.7 -29.5 -8.9 L-29.35 -9.15 Q-29.15 -9.4 -28.0 -9.25 -27.65 -9.05 -27.7 -8.75 -27.7 -8.6 -27.45 -8.45 L-27.1 -8.3 -27.4 -8.3 Q-27.8 -8.5 -27.8 -8.7 L-27.75 -8.85 Q-27.75 -9.0 -27.8 -9.05" fill="#ffffff" fill-opacity="0.7019608" fill-rule="evenodd" stroke="none"/>
    </g>
    <g id="shape1" transform="matrix(1.0, 0.0, 0.0, 1.0, 5.7, 16.8)">
      <path d="M-3.25 9.35 L-3.7 9.0 -4.25 8.5 -4.45 8.25 -4.5 8.2 -4.5 8.15 -4.6 8.05 -5.0 7.5 -5.0 7.45 -5.4 6.95 -5.4 6.9 -5.55 6.7 -5.6 6.7 -5.65 6.6 -5.6 6.5 Q-5.7 6.3 -5.7 6.15 L-5.65 5.75 -5.65 5.45 Q-5.65 5.35 -5.6 5.3 L-5.5 5.2 -5.4 5.2 Q-5.35 5.2 -5.3 5.15 -5.25 5.15 -5.15 5.2 -5.05 5.2 -5.0 5.25 L-4.95 5.35 -4.75 5.55 Q-4.4 5.75 -4.15 5.95 -3.45 6.05 -3.1 6.4 L-3.0 6.3 -2.85 6.2 -2.95 6.0 Q-3.1 5.65 -3.1 5.55 L-3.1 5.45 -3.05 5.35 Q-3.0 5.25 -2.9 5.25 -2.85 5.2 -2.75 5.25 -2.65 5.3 -2.5 5.4 L-2.35 5.5 -2.15 5.65 -1.9 5.8 -1.8 5.85 -1.65 5.85 -1.65 5.7 Q-1.1 0.85 -1.15 -4.15 -1.2 -8.8 -1.35 -12.45 L-1.35 -12.6 -1.4 -13.15 -1.35 -13.65 -1.3 -14.2 Q-1.2 -14.7 -0.7 -15.7 L-0.7 -15.75 -0.65 -15.8 -0.35 -16.45 -0.3 -16.5 -0.3 -16.55 -0.2 -16.65 -0.2 -16.7 -0.15 -16.7 -0.1 -16.75 Q-0.05 -16.8 0.0 -16.8 L0.15 -16.8 0.15 -16.75 0.2 -16.7 0.3 -16.5 0.35 -16.5 0.35 -16.45 0.7 -15.8 0.7 -15.75 0.75 -15.7 Q1.2 -14.7 1.3 -14.2 L1.35 -13.65 1.4 -13.15 1.35 -12.6 1.35 -12.45 Q1.25 -8.8 1.2 -4.15 1.1 0.85 1.65 5.7 L1.65 5.8 1.7 5.85 1.8 5.85 1.9 5.8 1.95 5.8 Q2.05 5.7 2.15 5.65 L2.35 5.5 2.4 5.45 2.5 5.4 Q2.65 5.25 2.8 5.25 2.85 5.2 2.9 5.25 3.0 5.25 3.05 5.35 L3.1 5.45 3.1 5.55 Q3.1 5.65 2.95 6.0 L2.85 6.2 3.0 6.3 3.05 6.35 3.25 6.3 3.5 6.15 3.55 6.15 3.55 6.1 Q3.8 5.95 4.2 5.95 L4.8 5.5 5.05 5.25 Q5.1 5.2 5.2 5.2 5.25 5.15 5.3 5.15 L5.4 5.2 5.5 5.2 5.6 5.25 5.6 5.3 Q5.7 5.35 5.7 5.45 L5.7 5.55 5.65 5.75 5.7 6.0 Q5.7 6.4 5.65 6.5 L5.65 6.6 5.6 6.7 5.45 6.9 5.4 6.95 5.0 7.45 5.0 7.5 Q4.85 7.8 4.55 8.15 L4.5 8.2 4.5 8.25 4.3 8.4 3.55 9.2 Q3.1 9.65 2.35 10.05 L2.25 10.05 2.15 10.15 2.1 10.15 1.2 10.55 1.2 11.2 Q1.2 11.55 1.45 12.8 L1.7 13.95 1.9 14.1 1.95 14.1 2.05 14.2 2.05 14.3 2.1 14.45 2.05 14.55 2.0 14.6 Q1.9 14.7 1.7 14.8 L1.75 14.9 2.0 15.35 2.05 15.35 2.05 15.45 2.15 15.6 2.15 15.8 Q2.15 15.9 2.0 15.95 1.85 16.15 1.7 16.1 L1.45 16.1 1.4 16.15 1.4 16.2 1.35 16.2 1.35 16.25 1.3 16.3 Q1.1 16.5 1.0 16.5 L0.75 16.5 0.6 16.55 0.5 16.6 0.45 16.55 0.4 16.55 0.4 16.6 0.3 16.75 0.2 16.8 0.15 16.85 0.1 16.8 0.05 16.8 Q-0.2 16.75 -0.3 16.55 L-0.45 16.4 -0.55 16.4 -0.65 16.5 Q-0.7 16.55 -0.8 16.5 L-1.15 16.5 -1.25 16.4 -1.4 16.1 -1.7 16.1 Q-1.9 16.15 -2.1 15.75 L-2.1 15.6 Q-2.1 15.55 -2.05 15.5 -2.05 15.4 -1.75 14.9 L-1.65 14.8 Q-1.9 14.7 -2.0 14.55 L-2.05 14.5 -2.05 14.45 -2.1 14.4 -2.0 14.2 -1.9 14.1 Q-1.7 14.0 -1.5 13.9 -1.25 13.1 -1.25 12.1 L-1.3 10.5 Q-1.65 10.4 -2.1 10.15 L-2.15 10.15 Q-2.2 10.1 -2.25 10.05 L-2.65 9.8 -3.15 9.45 -3.25 9.4 -3.25 9.35 M-0.05 -16.55 L-0.1 -16.5 -0.05 -16.45 -0.1 -16.4 -0.15 -16.4 -0.15 -16.35 -0.45 -15.7 -0.55 -15.6 Q-1.0 -14.65 -1.1 -14.15 L-1.15 -13.6 -1.2 -13.15 -1.15 -12.65 -1.1 -12.5 Q-1.0 -8.85 -0.95 -4.15 -0.9 0.85 -1.45 5.75 L-1.45 5.95 -1.45 6.0 Q-1.7 6.05 -1.85 6.1 L-2.3 5.8 -2.5 5.65 -2.6 5.6 Q-2.75 5.5 -2.8 5.5 L-2.85 5.5 -2.85 5.45 -2.9 5.55 -2.75 5.9 -2.6 6.2 Q-2.6 6.3 -2.9 6.5 L-3.15 6.65 Q-3.2 6.6 -3.4 6.5 -3.65 6.3 -3.7 6.3 L-3.5 6.55 -3.5 6.6 -3.55 6.55 -4.0 6.3 -3.9 6.35 -4.15 6.2 -4.2 6.2 -4.9 5.7 -5.0 5.6 -5.15 5.5 -5.15 5.4 -5.2 5.45 -5.3 5.4 -5.3 5.45 -5.4 5.4 -5.45 5.45 -5.45 5.55 Q-5.45 5.7 -5.35 5.85 L-5.2 6.1 -5.15 6.25 -5.15 6.3 -5.1 6.3 Q-4.8 6.45 -4.5 6.7 L-4.3 6.95 -4.55 6.8 -5.0 6.65 -5.05 6.65 -5.1 6.55 -5.35 6.5 -5.3 6.6 -5.4 6.55 -5.25 6.8 -4.8 7.35 -4.35 8.0 -4.3 8.05 -4.3 8.1 Q-4.15 8.3 -3.55 8.8 L-3.3 9.0 -3.1 9.25 -3.05 9.25 -2.8 9.2 -2.85 9.15 -2.45 9.0 -2.55 9.1 -2.65 9.25 -2.65 9.3 -2.7 9.3 -2.75 9.4 -2.55 9.55 -2.3 9.7 -2.3 9.65 Q-2.2 9.6 -2.1 9.4 L-2.05 9.3 -2.05 9.4 -2.1 9.6 -2.1 9.9 -2.05 9.85 Q-1.95 9.8 -1.85 9.8 L-1.6 10.0 Q-1.35 10.25 -1.2 10.25 L-1.05 10.25 -1.0 12.1 Q-1.05 13.2 -1.35 14.0 -1.55 14.2 -1.85 14.3 L-1.85 14.35 -1.9 14.4 -1.85 14.4 Q-1.7 14.55 -1.35 14.7 L-1.55 15.0 -1.85 15.5 -1.8 15.6 -1.9 15.65 Q-1.8 15.9 -1.7 15.9 -1.4 15.85 -1.3 15.9 -1.25 15.95 -1.05 16.3 L-0.75 16.3 -0.75 16.25 -0.65 16.15 -0.35 16.15 -0.15 16.45 Q-0.05 16.55 0.15 16.6 L0.25 16.45 Q0.3 16.4 0.4 16.35 L0.5 16.35 Q0.6 16.3 0.7 16.3 L1.0 16.25 1.15 16.15 1.2 16.05 1.35 15.9 Q1.45 15.85 1.7 15.9 1.8 15.9 1.9 15.75 L1.95 15.7 1.85 15.5 1.85 15.45 1.35 14.7 Q1.75 14.55 1.9 14.4 L1.9 14.4 1.85 14.35 1.85 14.3 Q1.65 14.2 1.5 14.1 L1.2 12.85 Q0.95 11.55 0.95 11.2 L1.0 10.5 1.05 10.25 1.2 10.25 Q1.35 10.25 1.6 10.0 L1.85 9.8 Q1.95 9.8 2.05 9.85 L2.1 9.9 2.1 9.6 2.05 9.4 2.05 9.3 2.1 9.4 2.3 9.65 2.3 9.7 2.55 9.55 2.75 9.4 2.7 9.3 2.65 9.3 2.7 9.25 2.45 9.0 2.85 9.15 2.8 9.2 3.1 9.25 3.3 9.0 3.55 8.8 3.6 8.8 Q4.15 8.3 4.3 8.1 L4.35 8.05 4.35 8.0 Q4.35 7.95 4.85 7.35 L5.25 6.8 5.45 6.55 Q5.4 6.6 5.35 6.6 L5.35 6.5 5.1 6.55 5.05 6.65 5.0 6.65 4.55 6.8 4.3 6.95 4.5 6.7 Q4.8 6.45 5.1 6.3 L5.15 6.3 5.2 6.25 5.15 6.25 5.2 6.1 Q5.3 5.95 5.4 5.85 5.45 5.7 5.45 5.55 L5.45 5.4 5.3 5.45 5.3 5.4 5.25 5.45 5.2 5.4 5.2 5.5 5.0 5.6 4.9 5.7 4.2 6.2 4.15 6.2 3.95 6.35 4.0 6.3 3.55 6.55 3.7 6.3 Q3.65 6.3 3.4 6.5 L3.15 6.65 2.9 6.5 Q2.6 6.3 2.6 6.2 L2.75 5.9 2.9 5.55 2.9 5.45 2.85 5.5 2.8 5.5 Q2.75 5.5 2.6 5.6 L2.5 5.65 Q2.35 5.75 2.3 5.8 L2.05 6.0 1.85 6.1 Q1.7 6.05 1.45 6.0 L1.45 5.95 1.45 5.75 Q0.9 0.85 0.95 -4.15 1.0 -8.85 1.15 -12.5 L1.15 -12.65 1.2 -13.15 1.15 -13.6 1.1 -14.15 Q1.0 -14.65 0.55 -15.6 L0.55 -15.65 0.5 -15.7 0.15 -16.35 0.15 -16.4 0.1 -16.45 0.1 -16.5 0.0 -16.6 -0.05 -16.55 M0.3 -16.5 L0.3 -16.55 0.25 -16.55 0.3 -16.5 0.3 -16.5 M2.5 6.4 L2.5 6.4 M1.55 6.65 L1.95 6.8 Q2.45 7.05 2.65 7.1 2.2 7.35 1.7 7.5 L1.85 7.3 1.7 7.4 1.65 7.2 1.6 7.1 1.55 6.65 M5.1 5.65 L5.1 5.65 M4.2 8.0 L4.2 8.0 M0.1 8.5 L0.1 8.5 M0.65 8.9 L0.65 8.9 M2.35 9.4 L2.35 9.55 2.25 9.45 2.3 9.45 2.35 9.4 M0.65 11.25 L0.7 11.25 0.65 11.35 0.65 11.25 M-1.4 14.3 L-1.45 14.35 -1.4 14.3 M1.0 14.5 L1.0 14.5 M-5.05 5.65 L-5.05 5.65 M-1.95 6.25 L-2.0 6.2 -1.95 6.2 -1.95 6.25 M-1.5 6.65 L-1.6 7.1 -1.65 7.2 -1.7 7.4 -1.8 7.3 -1.7 7.5 Q-2.2 7.35 -2.65 7.1 -2.45 7.05 -1.9 6.8 L-1.5 6.65 M-1.25 5.95 L-1.25 5.95 M-2.35 9.45 L-2.35 9.45 M-2.3 9.5 L-2.3 9.5 M-0.9 8.9 L-0.9 8.9 M-4.15 8.05 L-4.15 8.05 M-0.95 14.45 L-0.95 14.45" fill="#ebebeb" fill-opacity="0.2509804" fill-rule="evenodd" stroke="none"/>
      <path d="M-0.05 -16.55 L0.0 -16.6 0.1 -16.5 0.1 -16.45 0.15 -16.4 0.15 -16.35 0.5 -15.7 0.55 -15.65 0.55 -15.6 Q1.0 -14.65 1.1 -14.15 L1.15 -13.6 1.2 -13.15 1.15 -12.65 1.15 -12.5 Q1.0 -8.85 0.95 -4.15 0.9 0.85 1.45 5.75 L1.45 5.95 1.45 6.0 Q1.7 6.05 1.85 6.1 L2.05 6.0 2.3 5.8 Q2.35 5.75 2.5 5.65 L2.6 5.6 Q2.75 5.5 2.8 5.5 L2.85 5.5 2.9 5.45 2.9 5.55 2.75 5.9 2.6 6.2 Q2.6 6.3 2.9 6.5 L3.15 6.65 3.4 6.5 Q3.65 6.3 3.7 6.3 L3.55 6.55 4.0 6.3 3.95 6.35 4.15 6.2 4.2 6.2 4.9 5.7 5.0 5.6 5.2 5.5 5.2 5.4 5.25 5.45 5.3 5.4 5.3 5.45 5.45 5.4 5.45 5.55 Q5.45 5.7 5.4 5.85 5.3 5.95 5.2 6.1 L5.15 6.25 5.2 6.25 5.15 6.3 5.1 6.3 Q4.8 6.45 4.5 6.7 L4.3 6.95 4.55 6.8 5.0 6.65 5.05 6.65 5.1 6.55 5.35 6.5 5.35 6.6 Q5.4 6.6 5.45 6.55 L5.25 6.8 4.85 7.35 Q4.35 7.95 4.35 8.0 L4.35 8.05 4.3 8.1 Q4.15 8.3 3.6 8.8 L3.55 8.8 3.3 9.0 3.1 9.25 2.8 9.2 2.85 9.15 2.45 9.0 2.7 9.25 2.65 9.3 2.7 9.3 2.75 9.4 2.55 9.55 2.3 9.7 2.3 9.65 2.1 9.4 2.05 9.3 2.05 9.4 2.1 9.6 2.1 9.9 2.05 9.85 Q1.95 9.8 1.85 9.8 L1.6 10.0 Q1.35 10.25 1.2 10.25 L1.05 10.25 1.0 10.5 0.95 11.2 Q0.95 11.55 1.2 12.85 L1.5 14.1 Q1.65 14.2 1.85 14.3 L1.85 14.35 1.9 14.4 1.9 14.4 Q1.75 14.55 1.35 14.7 L1.85 15.45 1.85 15.5 1.95 15.7 1.9 15.75 Q1.8 15.9 1.7 15.9 1.45 15.85 1.35 15.9 L1.2 16.05 1.15 16.15 1.0 16.25 0.7 16.3 Q0.6 16.3 0.5 16.35 L0.4 16.35 Q0.3 16.4 0.25 16.45 L0.15 16.6 Q-0.05 16.55 -0.15 16.45 L-0.35 16.15 -0.65 16.15 -0.75 16.25 -0.75 16.3 -1.05 16.3 Q-1.25 15.95 -1.3 15.9 -1.4 15.85 -1.7 15.9 -1.8 15.9 -1.9 15.65 L-1.8 15.6 -1.85 15.5 -1.55 15.0 -1.35 14.7 Q-1.7 14.55 -1.85 14.4 L-1.9 14.4 -1.85 14.35 -1.85 14.3 Q-1.55 14.2 -1.35 14.0 -1.05 13.2 -1.0 12.1 L-1.05 10.25 -1.2 10.25 Q-1.35 10.25 -1.6 10.0 L-1.85 9.8 Q-1.95 9.8 -2.05 9.85 L-2.1 9.9 -2.1 9.6 -2.05 9.4 -2.05 9.3 -2.1 9.4 Q-2.2 9.6 -2.3 9.65 L-2.3 9.7 -2.55 9.55 -2.75 9.4 -2.7 9.3 -2.65 9.3 -2.65 9.25 -2.55 9.1 -2.45 9.0 -2.85 9.15 -2.8 9.2 -3.05 9.25 -3.1 9.25 -3.3 9.0 -3.55 8.8 Q-4.15 8.3 -4.3 8.1 L-4.3 8.05 -4.35 8.0 -4.8 7.35 -5.25 6.8 -5.4 6.55 -5.3 6.6 -5.35 6.5 -5.1 6.55 -5.05 6.65 -5.0 6.65 -4.55 6.8 -4.3 6.95 -4.5 6.7 Q-4.8 6.45 -5.1 6.3 L-5.15 6.3 -5.15 6.25 -5.2 6.1 -5.35 5.85 Q-5.45 5.7 -5.45 5.55 L-5.45 5.45 -5.4 5.4 -5.3 5.45 -5.3 5.4 -5.2 5.45 -5.15 5.4 -5.15 5.5 -5.0 5.6 -4.9 5.7 -4.2 6.2 -4.15 6.2 -3.9 6.35 -4.0 6.3 -3.55 6.55 -3.5 6.6 -3.5 6.55 -3.7 6.3 Q-3.65 6.3 -3.4 6.5 -3.2 6.6 -3.15 6.65 L-2.9 6.5 Q-2.6 6.3 -2.6 6.2 L-2.75 5.9 -2.9 5.55 -2.85 5.45 -2.85 5.5 -2.8 5.5 Q-2.75 5.5 -2.6 5.6 L-2.5 5.65 -2.3 5.8 -1.85 6.1 Q-1.7 6.05 -1.45 6.0 L-1.45 5.95 -1.45 5.75 Q-0.9 0.85 -0.95 -4.15 -1.0 -8.85 -1.1 -12.5 L-1.15 -12.65 -1.2 -13.15 -1.15 -13.6 -1.1 -14.15 Q-1.0 -14.65 -0.55 -15.6 L-0.45 -15.7 -0.15 -16.35 -0.15 -16.4 -0.1 -16.4 -0.05 -16.45 -0.1 -16.5 -0.05 -16.55 M0.0 -12.45 L0.0 4.45 0.1 4.45 0.1 4.55 0.15 4.7 0.6 5.7 0.65 5.75 0.7 5.85 0.9 5.9 0.95 5.95 1.15 5.95 1.15 5.6 Q0.6 0.8 0.7 -4.15 0.75 -8.4 0.8 -11.8 0.85 -12.05 0.9 -12.5 L0.9 -13.7 Q0.85 -14.15 0.7 -14.7 L0.7 -14.75 0.6 -14.95 0.4 -15.55 0.4 -15.6 0.35 -15.7 Q0.3 -15.8 0.25 -15.85 L0.2 -16.0 0.1 -16.2 0.0 -16.35 0.0 -16.15 -0.05 -16.1 -0.05 -16.2 -0.1 -16.15 -0.15 -16.0 -0.25 -15.85 -0.3 -15.7 -0.35 -15.6 -0.4 -15.55 -0.6 -14.95 -0.65 -14.75 -0.7 -14.7 Q-0.85 -14.15 -0.9 -13.7 L-0.9 -12.5 Q-0.85 -12.05 -0.8 -11.8 -0.7 -8.4 -0.65 -4.15 -0.6 0.8 -1.1 5.6 L-1.1 5.75 -1.15 5.8 -1.1 5.85 -1.15 5.95 -1.05 5.95 -1.0 5.9 -0.95 5.9 -0.65 5.8 -0.65 5.75 -0.6 5.7 -0.15 4.7 -0.1 4.6 0.0 4.55 0.0 -12.45 M-0.05 5.0 L-0.1 5.05 -0.25 5.35 -0.25 5.4 -0.25 5.45 Q-0.35 5.7 -0.5 5.9 -1.0 5.95 -1.85 6.25 L-1.95 6.3 -2.0 6.25 -1.95 6.25 -2.0 6.25 -2.1 6.15 -2.25 6.05 -2.3 6.0 -2.45 5.9 -2.5 5.85 Q-2.6 5.7 -2.7 5.7 L-2.7 5.75 -2.45 6.3 -2.45 6.4 -2.5 6.45 -2.4 6.45 -2.45 6.5 -2.7 6.6 -3.0 6.8 -3.3 6.8 -3.05 6.95 -3.05 7.0 -2.95 7.1 -2.9 7.05 -2.8 7.0 -2.7 7.0 Q-2.5 6.85 -2.1 6.7 -1.85 6.6 -1.55 6.5 L-1.5 6.5 -1.5 6.45 -1.35 6.45 -1.2 6.4 -1.2 6.45 -0.95 6.4 -0.9 6.4 -0.75 6.35 -0.65 6.35 0.0 6.3 0.05 6.3 0.65 6.35 0.75 6.35 0.9 6.4 1.0 6.4 1.2 6.45 1.2 6.4 1.35 6.45 1.5 6.45 1.5 6.5 1.6 6.5 2.15 6.7 Q2.5 6.85 2.7 7.0 L2.8 7.0 2.9 7.05 2.95 7.1 3.1 6.95 3.3 6.8 3.05 6.8 Q2.7 6.6 2.5 6.5 L2.45 6.45 2.35 6.45 2.35 6.4 2.3 6.4 2.55 5.8 2.6 5.8 2.65 5.65 Q2.55 5.65 2.3 5.9 L1.95 6.25 2.0 6.25 1.95 6.3 1.8 6.25 1.6 6.2 1.1 6.05 0.95 6.0 0.7 5.95 0.7 6.0 Q0.5 5.95 0.4 5.8 0.4 5.65 0.3 5.5 L0.3 5.4 0.05 4.9 0.0 4.8 -0.05 4.9 -0.05 5.0 M0.45 6.45 L0.8 6.6 0.75 6.55 0.75 6.45 0.45 6.45 M0.3 7.25 L0.3 7.2 0.25 7.1 0.2 7.05 0.15 6.95 -0.1 6.95 Q-0.2 7.0 -0.3 7.2 L-0.35 7.5 -0.4 7.65 -0.3 7.5 -0.25 7.45 -0.3 7.6 -0.45 7.85 -0.45 7.9 -0.5 7.95 -0.5 8.1 Q-0.25 8.25 0.0 8.3 0.2 8.25 0.4 8.2 L0.4 8.15 0.45 8.05 0.5 7.9 0.45 7.9 0.45 7.75 0.4 7.7 0.3 7.5 0.3 7.4 0.35 7.4 0.3 7.25 M0.25 6.95 L0.3 7.05 0.5 7.3 0.5 7.45 0.55 7.7 1.05 7.65 0.95 7.05 0.9 7.05 0.9 6.95 0.65 6.8 0.4 6.7 0.25 6.65 0.05 6.6 -0.15 6.6 -0.35 6.7 -0.9 6.95 -0.9 7.05 -1.0 7.65 -0.55 7.7 -0.5 7.45 -0.45 7.3 Q-0.45 7.2 -0.3 7.05 L-0.25 6.95 -0.2 6.9 -0.15 6.9 0.0 6.85 0.2 6.9 0.25 6.95 M1.25 6.6 L1.25 6.55 0.9 6.5 0.9 6.55 0.95 6.6 1.25 6.6 M1.2 6.9 L1.2 6.9 M1.1 7.05 L1.2 7.6 1.4 7.6 1.3 7.2 1.3 7.05 1.1 7.05 M1.55 6.65 L1.6 7.1 1.65 7.2 1.7 7.4 1.85 7.3 1.7 7.5 Q2.2 7.35 2.65 7.1 2.45 7.05 1.95 6.8 L1.55 6.65 M2.5 6.4 L2.5 6.4 M5.1 5.65 L5.15 5.65 5.1 5.7 Q4.8 5.95 4.2 6.3 L4.0 6.45 Q3.85 6.55 3.6 6.65 L3.6 6.7 3.5 6.75 3.7 6.8 Q3.65 6.9 3.4 7.0 3.1 7.2 3.0 7.25 L2.95 7.25 2.95 7.2 2.7 7.2 1.75 7.6 1.65 7.65 1.6 7.7 1.45 7.75 1.25 7.75 1.1 7.85 1.45 7.95 1.8 7.95 1.75 8.0 1.85 8.05 1.8 8.1 1.7 8.05 1.55 8.2 1.75 8.25 Q2.05 8.0 2.35 7.85 L2.4 7.85 2.5 7.8 Q2.75 7.65 3.0 7.6 L3.05 7.55 3.35 7.5 Q3.35 7.55 3.3 7.6 L3.3 7.65 3.2 7.75 Q3.1 7.85 3.05 8.0 L2.8 8.1 Q2.75 8.15 2.85 8.35 L2.7 8.35 2.85 8.4 3.4 8.65 3.4 8.7 3.75 8.4 4.1 8.05 3.85 8.05 3.55 8.1 3.4 8.05 3.35 8.05 3.35 8.1 3.05 8.1 3.2 7.95 3.55 7.8 3.45 7.95 3.4 8.0 Q3.55 7.9 4.0 7.75 L4.3 7.65 4.55 7.35 4.5 7.4 3.8 7.55 3.6 7.55 Q4.1 7.35 4.45 7.3 L4.5 7.25 4.6 7.3 4.65 7.25 Q4.9 6.9 5.15 6.75 L5.15 6.7 5.1 6.75 4.8 6.9 4.25 7.1 3.8 7.25 Q3.9 7.15 4.2 7.05 L4.25 7.0 4.75 6.8 4.55 6.9 4.3 6.95 4.25 7.0 4.2 7.0 3.95 7.15 3.7 7.25 3.5 7.3 3.65 7.15 4.3 6.6 Q4.6 6.35 5.0 6.1 L5.05 6.1 5.1 6.05 5.15 5.8 5.15 5.6 5.1 5.65 5.1 5.65 M4.2 8.0 L4.2 8.0 M2.5 8.85 L2.5 8.9 2.85 9.05 2.9 9.1 3.35 8.7 2.5 8.35 2.5 8.85 M1.3 8.0 L1.25 7.95 0.8 7.95 0.7 7.95 0.6 7.95 0.6 8.05 0.55 8.1 0.55 8.15 0.5 8.3 0.55 8.3 0.5 8.35 0.5 8.5 0.5 8.6 0.55 8.8 0.7 8.8 0.85 8.75 0.8 8.7 0.95 8.7 1.0 8.65 1.25 8.3 1.25 8.25 1.15 8.15 1.2 8.1 1.45 8.1 1.3 8.0 M0.0 7.3 L0.0 7.25 0.05 7.3 Q0.1 7.35 0.2 7.55 L0.4 7.9 0.35 8.0 0.3 8.15 0.2 8.15 0.15 8.2 -0.15 8.2 -0.15 8.15 -0.25 8.15 Q-0.3 8.1 -0.3 8.0 L-0.4 7.95 -0.35 7.9 -0.2 7.55 0.0 7.3 M0.4 8.2 L0.15 8.35 0.1 8.4 0.0 8.35 -0.1 8.4 -0.15 8.35 -0.45 8.15 -0.5 8.15 Q-0.45 8.3 -0.35 8.35 L-0.05 8.5 -0.1 8.5 0.0 8.6 Q0.05 8.55 0.1 8.5 L0.35 8.35 0.5 8.2 0.4 8.25 0.4 8.2 M0.1 8.5 L0.1 8.5 M0.15 8.6 L0.1 8.65 0.15 8.7 0.25 8.6 0.45 8.5 0.45 8.45 0.4 8.4 0.25 8.5 0.15 8.5 0.15 8.6 M0.25 8.75 L0.3 8.85 0.35 8.8 0.45 8.8 0.45 8.55 0.25 8.75 M1.05 8.85 L0.95 8.95 Q1.0 8.95 1.05 9.0 L1.0 9.05 0.7 9.05 0.55 9.1 0.7 9.45 0.7 9.6 0.75 9.6 0.75 9.65 0.8 9.6 0.8 9.55 1.0 9.45 1.2 9.25 1.15 9.25 1.15 9.15 Q1.15 9.0 1.2 8.75 L1.25 8.55 1.1 8.7 1.1 8.75 1.0 8.8 1.05 8.85 M0.65 8.9 L0.65 8.9 M-0.7 10.2 L-0.7 10.35 -0.65 10.45 -0.55 11.15 Q-0.4 11.65 -0.25 11.95 L0.2 12.0 0.4 11.8 Q0.5 11.4 0.65 10.3 L0.65 10.05 0.7 10.05 0.7 9.9 0.45 9.4 0.25 9.1 0.15 8.9 0.1 8.9 0.0 8.8 -0.05 8.85 -0.1 8.85 Q-0.15 8.9 -0.4 9.25 L-0.6 9.6 Q-0.75 9.8 -0.75 9.85 L-0.75 10.0 Q-0.75 10.15 -0.7 10.2 M2.3 9.0 L2.1 8.8 2.15 8.9 Q2.35 9.2 2.4 9.4 L2.35 9.4 2.65 9.3 2.4 9.1 2.3 9.0 M2.35 9.4 L2.3 9.45 2.25 9.45 2.35 9.55 2.35 9.4 M1.9 9.1 L1.7 8.95 1.7 9.0 1.75 9.1 Q1.75 9.3 1.65 9.55 1.55 9.85 1.4 9.95 L1.65 9.8 Q1.8 9.55 2.0 9.65 L1.95 9.4 1.9 9.35 1.85 9.15 1.9 9.1 M0.75 11.2 Q0.7 11.3 0.65 11.45 L0.75 11.5 0.75 11.2 M0.65 11.25 L0.65 11.35 0.7 11.25 0.65 11.25 M0.65 11.7 L0.6 11.7 0.6 11.8 0.55 11.9 0.5 11.95 0.45 12.05 0.8 12.05 0.95 12.1 0.9 11.85 Q0.8 11.8 0.8 11.65 L0.75 11.6 0.65 11.55 0.65 11.7 M-1.0 13.4 L-1.1 13.8 Q-1.0 13.65 -0.9 13.5 L-0.85 13.35 -0.75 13.1 -0.75 13.25 -0.45 13.05 Q0.05 12.85 0.1 12.8 L0.55 12.8 Q0.55 12.9 0.7 12.8 L1.05 12.8 0.95 12.2 0.95 12.15 Q0.7 12.15 0.7 12.1 L0.35 12.15 0.1 12.25 -0.1 12.25 -0.3 12.3 -0.4 12.25 -0.55 12.35 Q-0.75 12.45 -0.8 12.65 L-0.85 12.65 -0.9 12.75 -0.9 13.05 -0.95 13.2 -0.95 13.3 -1.0 13.35 -1.0 13.4 M0.75 12.9 L0.9 13.25 Q1.05 13.65 1.25 13.9 L1.2 13.75 Q1.1 13.45 1.1 13.35 L1.05 12.9 0.75 12.9 M-1.4 14.3 L-0.9 14.2 -0.85 14.2 -0.85 14.25 -0.6 14.3 -0.3 14.25 -0.3 14.3 -0.05 14.45 0.25 14.45 Q0.6 14.45 1.05 14.25 L1.1 14.25 1.45 14.3 1.4 14.3 1.15 14.0 1.15 13.95 0.95 13.75 0.9 13.65 0.8 13.4 Q0.7 13.15 0.65 12.9 -0.2 13.0 -0.45 13.15 -0.6 13.2 -0.75 13.4 L-0.8 13.45 -0.9 13.6 -1.05 13.85 -1.4 14.1 -1.65 14.35 -1.65 14.4 -1.5 14.4 -1.5 14.35 -1.45 14.35 -1.4 14.3 M1.65 14.35 L1.45 14.3 1.45 14.4 1.65 14.4 1.65 14.35 M1.6 15.55 L1.4 15.25 1.25 14.9 1.2 14.8 1.2 14.7 Q1.15 15.0 0.9 15.4 L0.95 15.4 1.6 15.5 1.6 15.55 M1.0 14.5 L1.0 14.5 M1.0 14.75 L1.05 14.7 0.95 14.75 Q0.9 14.85 0.85 15.0 L0.8 15.0 0.7 15.15 0.6 15.2 Q0.45 15.35 0.25 15.4 L0.05 15.35 0.05 15.4 0.0 15.4 0.0 15.35 -0.05 15.35 -0.25 15.4 Q-0.45 15.35 -0.6 15.2 L-0.8 15.0 -0.95 14.75 -1.0 14.7 Q-0.9 15.2 -0.6 15.55 L-0.35 15.75 -0.05 15.8 0.25 15.75 0.4 15.75 0.6 15.55 0.75 15.35 0.45 15.6 -0.1 15.6 Q-0.3 15.55 -0.3 15.5 0.55 15.5 0.8 15.15 L0.9 14.85 Q0.95 14.8 1.0 14.75 M0.15 14.8 L0.0 14.8 Q-0.05 14.8 -0.3 14.65 -0.5 14.5 -0.85 14.5 L-0.85 14.6 Q-0.85 14.8 -0.75 14.95 L-0.55 15.15 -0.4 15.2 0.0 15.05 Q0.15 14.95 0.2 14.95 L0.15 14.8 M-5.05 5.65 L-5.05 5.65 -5.15 5.6 -5.15 5.65 -5.05 5.65 M-3.95 6.45 L-4.2 6.3 Q-4.75 5.95 -5.05 5.7 L-5.15 5.65 -5.2 5.65 Q-5.25 5.6 -5.3 5.65 L-5.35 5.7 -5.3 5.7 -5.0 6.2 -4.95 6.15 -5.0 6.1 -4.95 6.1 Q-4.6 6.35 -4.3 6.6 -4.1 6.8 -3.65 7.15 L-3.5 7.3 -3.95 7.15 -4.2 7.0 -4.25 7.0 -4.3 6.95 -4.5 6.9 -4.5 6.9 Q-4.35 6.95 -4.2 7.0 L-4.2 7.05 Q-3.85 7.15 -3.8 7.25 L-4.25 7.1 -4.55 6.95 Q-4.8 6.8 -4.9 6.8 L-4.9 6.85 -5.0 6.8 -5.1 6.75 -5.1 6.7 -5.15 6.75 -5.05 6.8 Q-5.0 6.9 -4.9 7.1 -4.8 7.25 -4.55 7.3 L-4.5 7.25 -4.45 7.3 Q-4.1 7.35 -3.6 7.55 L-3.75 7.55 -3.85 7.55 -3.95 7.5 -4.1 7.5 -4.45 7.4 -4.5 7.4 -4.5 7.35 -4.3 7.65 -4.0 7.75 Q-3.5 7.9 -3.4 8.0 L-3.4 7.95 -3.55 7.8 -3.15 7.95 -3.05 8.05 -3.35 8.05 -3.4 8.05 -3.7 8.05 -4.1 8.05 -3.7 8.4 -3.4 8.7 -3.35 8.65 -2.8 8.4 -2.7 8.35 -2.85 8.35 Q-2.75 8.15 -2.8 8.1 L-3.05 8.0 Q-3.1 7.85 -3.2 7.75 L-3.3 7.65 -3.25 7.6 -3.3 7.6 Q-3.35 7.55 -3.35 7.5 L-3.05 7.55 -3.0 7.55 -2.95 7.6 Q-2.7 7.65 -2.5 7.8 L-2.4 7.85 -2.3 7.85 Q-2.0 8.0 -1.75 8.25 L-1.55 8.2 -1.7 8.05 -1.8 8.1 -1.85 8.05 -1.75 8.0 -1.8 7.95 -1.45 7.95 -1.05 7.85 -1.25 7.75 -1.45 7.75 -1.6 7.7 -1.6 7.65 -1.75 7.6 -2.7 7.2 -2.9 7.2 -2.95 7.25 -3.0 7.25 Q-3.1 7.2 -3.4 7.0 -3.65 6.9 -3.65 6.8 L-3.5 6.75 -3.45 6.75 -3.55 6.7 -3.55 6.65 -3.6 6.65 -3.8 6.55 -3.95 6.45 M-1.95 6.25 L-1.95 6.2 -2.0 6.2 -1.95 6.25 M-1.5 6.65 L-1.9 6.8 Q-2.45 7.05 -2.65 7.1 -2.2 7.35 -1.7 7.5 L-1.8 7.3 -1.7 7.4 -1.65 7.2 -1.6 7.1 -1.5 6.65 M-1.25 5.95 L-1.25 5.95 M-1.1 7.05 L-1.25 7.05 -1.3 7.1 -1.3 7.2 -1.35 7.6 -1.2 7.6 -1.1 7.05 M-0.75 6.55 L-0.55 6.45 -0.7 6.45 -0.75 6.55 M-0.95 6.6 L-0.9 6.6 -0.9 6.55 -0.85 6.5 -1.2 6.55 -1.2 6.65 -0.95 6.6 M-0.8 6.7 L-0.8 6.7 M-0.7 7.95 L-1.4 8.0 -1.45 8.05 -1.4 8.1 -1.2 8.1 -1.15 8.15 -1.2 8.2 -1.25 8.25 -1.2 8.3 Q-1.1 8.5 -1.0 8.65 L-0.9 8.7 -0.8 8.7 -0.8 8.75 -0.65 8.8 -0.5 8.8 -0.5 8.5 -0.5 8.35 -0.55 8.3 -0.5 8.3 -0.55 8.15 -0.6 8.1 -0.6 8.05 -0.65 8.05 -0.65 8.0 -0.65 7.95 -0.7 7.95 M-0.85 9.05 L-0.95 9.05 -1.0 9.0 Q-1.0 8.95 -0.9 8.95 L-1.0 8.85 -1.0 8.8 -1.25 8.55 -1.2 8.75 -1.15 9.15 -1.15 9.25 -1.0 9.45 -0.8 9.55 -0.8 9.6 -0.75 9.65 -0.75 9.6 -0.7 9.6 -0.7 9.55 -0.65 9.5 -0.7 9.45 -0.5 9.1 -0.65 9.05 -0.75 9.05 -0.85 9.05 M-0.45 8.45 L-0.45 8.5 Q-0.35 8.55 -0.25 8.6 -0.15 8.65 -0.1 8.7 L-0.1 8.65 -0.15 8.6 -0.15 8.5 -0.25 8.5 -0.35 8.4 -0.45 8.45 M-0.45 8.55 L-0.45 8.6 -0.4 8.8 -0.35 8.8 -0.3 8.85 -0.2 8.75 -0.3 8.7 -0.45 8.55 M-3.3 8.75 L-2.9 9.1 -2.85 9.05 -2.5 8.9 -2.5 8.85 -2.5 8.35 -3.35 8.7 -3.3 8.75 M-2.3 9.0 L-2.35 9.1 -2.6 9.3 -2.35 9.4 Q-2.3 9.2 -2.15 8.9 L-2.1 8.8 -2.3 9.0 M-1.7 9.1 L-1.7 9.0 -1.65 9.05 -1.7 8.95 -1.85 9.1 -1.85 9.15 -1.9 9.35 -1.9 9.4 -2.0 9.65 Q-1.8 9.55 -1.6 9.8 L-1.4 9.95 Q-1.55 9.85 -1.65 9.55 -1.7 9.3 -1.7 9.1 M-0.9 8.9 L-0.9 8.9 M-2.3 9.5 L-2.3 9.5 M-2.35 9.45 L-2.35 9.45 M-4.15 8.05 L-4.15 8.05 M-0.75 11.8 L-0.8 11.9 Q-0.9 12.15 -0.9 12.3 L-0.85 12.35 -0.85 12.4 -0.85 12.6 Q-0.7 12.35 -0.3 12.2 L-0.45 11.9 -0.55 11.75 -0.6 11.7 -0.6 11.65 -0.65 11.6 -0.65 11.65 -0.75 11.7 -0.75 11.8 M-0.95 14.45 L-0.95 14.45 M-1.2 14.85 Q-1.3 14.9 -1.5 15.15 -1.7 15.4 -1.7 15.5 -1.7 15.55 -1.65 15.55 L-1.55 15.5 -0.9 15.4 Q-1.15 15.0 -1.15 14.7 L-1.15 14.8 -1.2 14.85" fill="#00bfff" fill-opacity="0.09803922" fill-rule="evenodd" stroke="none"/>
      <path d="M-0.95 5.9 L-1.0 5.9 -1.05 5.95 -1.15 5.95 -1.1 5.85 -1.15 5.8 -1.1 5.75 -1.1 5.6 Q-0.6 0.8 -0.65 -4.15 -0.7 -8.4 -0.8 -11.8 -0.85 -12.05 -0.9 -12.5 L-0.9 -13.7 Q-0.85 -14.15 -0.7 -14.7 L-0.65 -14.75 -0.6 -14.95 -0.4 -15.55 -0.35 -15.6 -0.3 -15.7 -0.25 -15.85 -0.15 -16.0 -0.1 -16.15 -0.05 -16.2 -0.05 -16.1 0.0 -16.15 0.0 -16.35 0.1 -16.2 0.2 -16.0 0.25 -15.85 Q0.3 -15.8 0.35 -15.7 L0.4 -15.6 0.4 -15.55 0.6 -14.95 0.7 -14.75 0.7 -14.7 Q0.85 -14.15 0.9 -13.7 L0.9 -12.5 Q0.85 -12.05 0.8 -11.8 0.75 -8.4 0.7 -4.15 0.6 0.8 1.15 5.6 L1.15 5.95 0.95 5.95 0.9 5.9 0.7 5.85 0.65 5.75 0.6 5.7 0.15 4.7 0.1 4.55 0.1 4.45 0.0 4.45 0.0 -12.45 0.0 -13.6 -0.1 -14.85 -0.15 -14.85 -0.2 -13.6 -0.2 0.0 -0.3 0.9 -0.45 2.55 -0.55 3.4 Q-0.6 3.9 -0.7 4.2 L-0.8 5.0 Q-0.95 5.7 -0.95 5.85 L-0.95 5.9 M-3.05 7.0 L-3.05 6.95 -2.8 6.8 Q-2.6 6.65 -2.5 6.65 L-1.9 6.4 Q-1.4 6.2 -0.7 6.05 L-0.4 6.0 -0.35 6.0 Q-0.1 6.0 -0.1 5.85 -0.1 5.6 -0.05 5.5 L0.0 5.25 0.05 4.95 0.05 4.9 -0.05 5.0 -0.05 4.9 0.0 4.8 0.05 4.9 0.3 5.4 0.3 5.5 0.2 5.35 0.2 5.6 Q0.25 5.8 0.35 5.9 L0.4 5.85 0.4 5.8 Q0.5 5.95 0.7 6.0 L0.7 5.95 0.95 6.0 1.1 6.05 1.6 6.2 1.8 6.25 1.95 6.3 2.0 6.25 2.25 6.05 2.3 6.0 2.35 6.0 2.55 5.8 2.3 6.4 2.35 6.4 2.35 6.45 2.45 6.45 2.5 6.5 Q2.7 6.6 3.05 6.8 L3.3 6.8 3.1 6.95 2.95 7.1 2.9 7.05 2.8 7.0 2.7 7.0 Q2.5 6.85 2.15 6.7 L1.6 6.5 1.5 6.5 1.5 6.45 1.35 6.45 1.2 6.4 1.2 6.45 1.0 6.4 0.9 6.4 0.75 6.35 0.65 6.35 0.05 6.3 0.0 6.3 -0.65 6.35 -0.75 6.35 -0.9 6.4 -0.95 6.4 -1.2 6.45 -1.2 6.4 -1.35 6.45 -1.5 6.45 -1.5 6.5 -1.55 6.5 Q-1.85 6.6 -2.1 6.7 -2.5 6.85 -2.7 7.0 L-2.8 7.0 -2.9 7.05 -2.95 7.1 -3.05 7.0 M-0.25 5.4 L-0.25 5.45 -0.25 5.4 M-1.95 6.3 L-2.3 6.45 -2.3 6.4 -2.25 6.4 -2.3 6.3 Q-2.3 6.2 -2.45 6.0 L-2.5 5.85 -2.45 5.9 -2.3 6.0 -2.25 6.05 -2.1 6.15 -2.0 6.25 -1.95 6.25 -2.0 6.25 -1.95 6.3 M-2.35 6.45 L-2.7 6.6 -2.45 6.5 -2.4 6.45 -2.35 6.45 M-3.0 6.8 L-3.05 6.9 -3.05 6.95 -3.3 6.8 -3.0 6.8 M0.45 6.45 L0.75 6.45 0.75 6.55 0.8 6.6 0.45 6.45 M0.05 6.85 L0.05 6.8 0.0 6.8 0.05 6.85 M0.3 7.25 L0.35 7.4 0.3 7.4 0.3 7.5 0.4 7.7 0.45 7.75 0.45 7.9 0.5 7.9 0.45 8.05 0.4 8.15 0.4 8.2 Q0.2 8.25 0.0 8.3 -0.25 8.25 -0.5 8.1 L-0.5 7.95 -0.45 7.9 -0.5 8.0 Q-0.5 8.1 -0.4 8.15 L-0.4 7.95 -0.3 8.0 Q-0.3 8.1 -0.25 8.15 L-0.15 8.15 -0.15 8.2 0.15 8.2 0.2 8.15 0.3 8.15 0.35 8.0 0.4 7.9 0.2 7.55 Q0.1 7.35 0.05 7.3 L0.0 7.25 0.0 7.3 0.15 7.15 0.25 7.25 0.3 7.25 M-0.25 7.45 L-0.3 7.5 -0.4 7.65 -0.35 7.5 Q-0.35 7.55 -0.3 7.5 L-0.2 7.25 Q-0.15 7.15 0.0 7.15 -0.1 7.25 -0.25 7.45 M0.25 6.95 L0.2 6.9 0.0 6.85 -0.15 6.9 -0.2 6.9 -0.25 6.95 -0.3 7.05 Q-0.45 7.2 -0.45 7.3 L-0.5 7.45 -0.55 7.7 -1.0 7.65 -0.9 7.05 -0.9 6.95 -0.35 6.7 -0.15 6.6 0.05 6.6 0.25 6.65 0.4 6.7 0.65 6.8 0.9 6.95 0.9 7.05 0.95 7.05 1.05 7.65 0.55 7.7 0.5 7.45 0.5 7.3 0.3 7.05 0.25 6.95 M1.25 6.6 L0.95 6.6 0.9 6.55 0.9 6.5 1.25 6.55 1.25 6.6 M1.1 7.05 L1.3 7.05 1.3 7.2 1.4 7.6 1.2 7.6 1.1 7.05 M1.2 6.9 L1.2 6.9 M5.1 5.65 L5.15 5.6 5.15 5.8 5.1 6.05 5.05 6.1 5.0 6.1 Q4.6 6.35 4.3 6.6 L3.65 7.15 3.5 7.3 3.7 7.25 3.95 7.15 4.2 7.0 4.25 7.0 4.3 6.95 4.55 6.9 4.75 6.8 4.25 7.0 4.2 7.05 Q3.9 7.15 3.8 7.25 L4.25 7.1 4.8 6.9 5.1 6.75 5.15 6.7 5.15 6.75 Q4.9 6.9 4.65 7.25 L4.6 7.3 4.5 7.25 4.45 7.3 Q4.1 7.35 3.6 7.55 L3.8 7.55 4.5 7.4 4.55 7.35 4.3 7.65 4.0 7.75 Q3.55 7.9 3.4 8.0 L3.45 7.95 3.55 7.8 3.2 7.95 3.05 8.1 3.35 8.1 3.35 8.05 3.4 8.05 3.55 8.1 3.85 8.05 4.1 8.05 3.75 8.4 3.4 8.7 3.4 8.65 2.85 8.4 2.7 8.35 2.85 8.35 Q2.75 8.15 2.8 8.1 L3.05 8.0 Q3.1 7.85 3.2 7.75 L3.3 7.65 3.3 7.6 Q3.35 7.55 3.35 7.5 L3.05 7.55 3.0 7.6 Q2.75 7.65 2.5 7.8 L2.4 7.85 2.35 7.85 Q2.05 8.0 1.75 8.25 L1.55 8.2 1.7 8.05 1.8 8.1 1.85 8.05 1.75 8.0 1.8 7.95 1.45 7.95 1.1 7.85 1.25 7.75 1.45 7.75 1.6 7.7 1.65 7.65 1.75 7.6 2.7 7.2 2.95 7.2 2.95 7.25 3.0 7.25 Q3.1 7.2 3.4 7.0 3.65 6.9 3.7 6.8 L3.5 6.75 3.6 6.7 3.6 6.65 Q3.85 6.55 4.0 6.45 L4.2 6.3 Q4.8 5.95 5.1 5.7 L5.15 5.65 5.1 5.65 M2.5 8.85 L2.5 8.35 3.35 8.7 2.9 9.1 2.85 9.05 2.5 8.9 2.5 8.85 2.5 8.85 M0.8 7.95 L1.25 7.95 1.3 8.0 1.45 8.1 1.2 8.1 1.15 8.15 1.25 8.25 1.25 8.3 1.0 8.65 0.95 8.7 0.8 8.7 0.85 8.75 0.7 8.8 0.55 8.8 0.5 8.6 0.5 8.5 0.5 8.35 0.55 8.3 0.5 8.3 0.55 8.15 0.55 8.1 0.6 8.05 0.6 7.95 0.7 7.95 0.6 8.05 0.65 8.1 Q1.05 8.05 1.05 8.15 L1.1 8.05 1.15 8.05 1.3 8.0 1.0 7.95 0.8 7.95 M0.4 8.2 L0.4 8.25 0.5 8.2 0.35 8.35 0.1 8.5 Q0.05 8.55 0.0 8.6 L-0.1 8.5 -0.05 8.5 -0.35 8.35 Q-0.45 8.3 -0.5 8.15 L-0.45 8.15 -0.15 8.35 -0.1 8.4 0.0 8.35 0.1 8.4 0.15 8.35 0.4 8.2 M1.05 8.85 L1.0 8.8 1.1 8.75 1.1 8.7 1.25 8.55 1.2 8.75 Q1.15 9.0 1.15 9.15 L1.15 9.25 1.2 9.25 1.0 9.45 0.8 9.55 0.8 9.6 0.75 9.65 0.75 9.6 0.7 9.6 0.7 9.45 0.55 9.1 0.7 9.05 1.0 9.05 1.05 9.0 Q1.0 8.95 0.95 8.95 L1.05 8.85 M0.25 8.75 L0.45 8.55 0.45 8.8 0.35 8.8 0.3 8.85 0.25 8.75 M0.15 8.6 L0.15 8.5 0.25 8.5 0.4 8.4 0.45 8.45 0.45 8.5 0.25 8.6 0.15 8.7 0.1 8.65 0.15 8.6 M0.95 9.2 L1.0 9.1 0.85 9.05 0.7 9.1 0.65 9.15 Q0.7 9.25 0.8 9.25 L0.95 9.2 M-0.05 8.85 L0.0 8.8 0.1 8.9 0.15 8.9 0.25 9.1 0.45 9.4 0.7 9.9 0.7 10.05 0.65 10.05 0.65 10.3 Q0.5 11.4 0.4 11.8 L0.2 12.0 -0.25 11.95 Q-0.4 11.65 -0.55 11.15 L-0.65 10.45 -0.7 10.35 -0.7 10.2 -0.65 10.2 Q-0.65 10.15 -0.65 10.0 L-0.65 9.9 -0.3 9.4 0.1 8.9 Q0.0 8.85 -0.05 8.85 M2.3 9.0 L2.4 9.1 2.65 9.3 2.35 9.4 2.4 9.4 Q2.35 9.2 2.15 8.9 L2.1 8.8 2.3 9.0 M0.75 11.2 L0.75 11.5 0.65 11.45 Q0.7 11.3 0.75 11.2 M1.9 9.1 L1.85 9.15 1.9 9.35 1.95 9.4 2.0 9.65 Q1.8 9.55 1.65 9.8 L1.4 9.95 Q1.55 9.85 1.65 9.55 1.75 9.3 1.75 9.1 L1.7 9.0 1.7 8.95 1.9 9.1 M0.65 11.7 L0.65 11.55 0.75 11.6 0.8 11.65 Q0.8 11.8 0.9 11.85 L0.95 12.1 0.8 12.05 0.45 12.05 0.5 11.95 0.55 11.9 0.6 11.8 0.65 11.95 0.85 11.95 0.85 11.9 0.8 11.85 0.75 11.75 Q0.8 11.7 0.75 11.7 L0.65 11.7 M-0.3 12.3 L-0.1 12.25 0.1 12.25 0.35 12.15 0.7 12.1 Q0.7 12.15 0.95 12.15 L0.95 12.2 1.05 12.8 0.7 12.8 Q0.55 12.9 0.55 12.8 L0.1 12.8 Q0.05 12.85 -0.45 13.05 L-0.75 13.25 -0.75 13.1 -0.85 13.35 -0.9 13.5 Q-1.0 13.65 -1.1 13.8 L-1.0 13.4 -0.85 12.95 -0.85 13.15 -0.55 12.9 Q-0.35 12.7 -0.25 12.65 L-0.25 12.7 -0.2 12.7 -0.05 12.65 0.3 12.55 0.85 12.55 Q0.85 12.5 0.7 12.45 L0.4 12.55 0.35 12.5 0.85 12.25 0.8 12.2 0.7 12.2 0.1 12.3 Q-0.25 12.4 -0.4 12.5 L-0.75 12.8 -0.75 12.75 -0.6 12.6 Q-0.55 12.55 -0.55 12.5 L-0.45 12.4 Q-0.35 12.35 -0.3 12.3 M-0.8 12.65 Q-0.75 12.45 -0.55 12.35 -0.7 12.5 -0.7 12.55 -0.75 12.6 -0.8 12.65 M0.75 12.9 L1.05 12.9 1.1 13.35 Q1.1 13.45 1.2 13.75 L1.25 13.9 Q1.05 13.65 0.9 13.25 L0.75 12.9 M0.65 13.75 L0.45 13.4 Q0.3 13.55 0.3 14.2 L0.3 14.35 Q0.7 14.3 0.9 14.1 0.75 13.95 0.65 13.75 M-0.8 13.45 L-0.75 13.4 Q-0.6 13.2 -0.45 13.15 -0.2 13.0 0.65 12.9 0.7 13.15 0.8 13.4 L0.9 13.65 0.95 13.75 1.15 13.95 1.15 14.0 1.4 14.3 1.45 14.3 1.1 14.25 1.05 14.25 Q0.6 14.45 0.25 14.45 L-0.05 14.45 -0.3 14.3 -0.3 14.25 -0.6 14.3 -0.85 14.25 -0.85 14.2 -0.9 14.2 -1.4 14.3 Q-1.25 14.2 -1.0 13.95 -0.7 13.6 -0.7 13.45 L-0.7 13.4 -0.75 13.4 -0.8 13.45 M-1.5 14.35 L-1.5 14.4 -1.65 14.4 -1.65 14.35 -1.5 14.35 M1.6 15.55 L1.6 15.5 0.95 15.4 0.9 15.4 Q1.15 15.0 1.2 14.7 L1.2 14.8 1.25 14.9 1.4 15.25 1.6 15.55 M1.65 14.35 L1.65 14.4 1.45 14.4 1.45 14.3 1.65 14.35 M1.0 14.75 Q0.95 14.8 0.9 14.85 L0.8 15.15 Q0.55 15.5 -0.3 15.5 -0.3 15.55 -0.1 15.6 L0.45 15.6 0.75 15.35 0.6 15.55 0.4 15.75 0.25 15.75 -0.05 15.8 -0.35 15.75 -0.6 15.55 Q-0.9 15.2 -1.0 14.7 L-0.95 14.75 -0.8 15.0 -0.6 15.2 Q-0.45 15.35 -0.25 15.4 L-0.05 15.35 0.0 15.35 0.0 15.4 0.05 15.4 0.05 15.35 0.25 15.4 Q0.45 15.35 0.6 15.2 L0.7 15.15 0.8 15.0 0.85 15.0 Q0.9 14.85 0.95 14.75 L1.05 14.7 1.0 14.75 M0.15 14.8 L0.2 14.95 Q0.15 14.95 0.0 15.05 L-0.4 15.2 -0.55 15.15 -0.75 14.95 Q-0.85 14.8 -0.85 14.6 L-0.85 14.5 Q-0.5 14.5 -0.3 14.65 -0.05 14.8 0.0 14.8 L0.15 14.8 M-5.05 5.65 L-5.15 5.65 -5.05 5.7 Q-4.75 5.95 -4.2 6.3 L-3.95 6.45 -4.0 6.45 -4.45 6.2 -5.05 5.8 Q-5.1 5.7 -5.15 5.65 L-5.15 5.6 -5.05 5.65 M-3.8 6.55 L-3.6 6.65 -3.55 6.65 -3.55 6.7 -3.45 6.75 -3.5 6.75 -3.65 6.8 Q-3.65 6.9 -3.4 7.0 -3.1 7.2 -3.0 7.25 L-2.95 7.25 -2.9 7.2 -2.7 7.2 -1.75 7.6 -1.6 7.65 -1.6 7.7 -1.45 7.75 -1.25 7.75 -1.05 7.85 -1.45 7.95 -1.8 7.95 -1.75 8.0 -1.85 8.05 -1.8 8.1 -1.7 8.05 -1.55 8.2 -1.75 8.25 Q-2.0 8.0 -2.3 7.85 L-2.4 7.85 -2.5 7.8 Q-2.7 7.65 -2.95 7.6 L-3.0 7.55 -3.05 7.55 -3.35 7.5 Q-3.35 7.55 -3.3 7.6 L-3.25 7.6 -3.3 7.65 -3.2 7.75 Q-3.1 7.85 -3.05 8.0 L-2.8 8.1 Q-2.75 8.15 -2.85 8.35 L-2.7 8.35 -2.8 8.4 -3.35 8.65 -3.4 8.7 -3.7 8.4 -4.1 8.05 -3.7 8.05 -3.75 8.05 Q-3.9 8.05 -3.9 8.1 L-3.8 8.2 -3.4 8.2 -3.05 8.15 -3.0 8.1 -3.05 8.05 -3.15 7.95 -3.55 7.8 -3.4 7.95 -3.4 8.0 Q-3.5 7.9 -4.0 7.75 L-4.3 7.65 -4.5 7.35 -4.5 7.4 -4.45 7.4 -4.1 7.5 -4.4 7.4 -4.4 7.5 -3.3 7.75 -3.3 7.65 -3.75 7.55 -3.6 7.55 Q-4.1 7.35 -4.45 7.3 L-4.5 7.25 -4.55 7.3 Q-4.6 7.15 -4.75 6.95 -4.7 6.95 -4.6 7.0 L-4.15 7.25 -3.4 7.55 -3.35 7.45 -3.45 7.4 -3.8 7.25 Q-3.85 7.15 -4.2 7.05 L-4.2 7.0 Q-4.35 6.95 -4.5 6.9 L-4.5 6.9 -4.3 6.95 -4.25 7.0 -4.2 7.0 -3.95 7.15 -3.5 7.3 -3.65 7.15 Q-4.1 6.8 -4.3 6.6 -4.6 6.35 -4.95 6.1 L-5.0 6.1 -5.0 5.95 -4.5 6.35 Q-4.35 6.4 -4.05 6.6 -3.7 6.75 -3.65 6.75 L-3.6 6.75 -3.6 6.7 -3.8 6.55 M-3.4 8.05 L-3.35 8.05 -3.4 8.05 M-5.05 6.8 L-5.15 6.75 -5.1 6.7 -5.1 6.75 -5.0 6.8 -5.05 6.8 M-0.95 6.6 L-1.2 6.65 -1.2 6.55 -0.85 6.5 -0.9 6.55 -0.9 6.6 -0.95 6.6 M-0.75 6.55 L-0.7 6.45 -0.55 6.45 -0.75 6.55 M-1.1 7.05 L-1.2 7.6 -1.35 7.6 -1.3 7.2 -1.3 7.1 -1.25 7.05 -1.1 7.05 M-0.8 6.7 L-0.8 6.7 M0.0 7.3 L-0.2 7.55 -0.35 7.9 Q-0.35 7.75 -0.25 7.6 -0.15 7.4 0.0 7.3 M-0.7 7.95 L-0.65 7.95 -0.65 8.0 -0.7 7.95 M-0.6 8.1 L-0.55 8.15 -0.5 8.3 -0.55 8.3 -0.5 8.35 -0.5 8.5 -0.5 8.8 -0.65 8.8 -0.8 8.75 -0.8 8.7 -0.9 8.7 -1.0 8.65 Q-1.1 8.5 -1.2 8.3 L-1.25 8.25 -1.2 8.2 -1.2 8.25 Q-1.1 8.25 -1.05 8.3 L-1.05 8.35 Q-0.9 8.35 -0.75 8.3 -0.65 8.2 -0.55 8.25 L-0.6 8.1 M-1.15 8.15 L-1.2 8.1 -1.4 8.1 -1.05 8.05 -1.0 8.1 -1.05 8.15 -1.15 8.15 M-0.75 9.05 L-0.65 9.05 -0.5 9.1 -0.7 9.45 -0.65 9.5 -0.7 9.55 -0.7 9.6 -0.75 9.6 -0.75 9.65 -0.8 9.6 -0.8 9.55 -1.0 9.45 -1.15 9.25 -1.15 9.15 -1.2 8.75 -1.25 8.55 -1.0 8.8 -1.0 8.85 -0.9 8.95 Q-1.0 8.95 -1.0 9.0 L-0.95 9.05 -0.85 9.05 -0.95 9.05 Q-1.05 9.1 -1.05 9.2 L-1.0 9.25 -0.65 9.25 -0.65 9.1 -0.7 9.05 -0.75 9.05 M-0.45 8.55 L-0.3 8.7 -0.2 8.75 -0.3 8.85 -0.35 8.8 -0.4 8.8 -0.45 8.6 -0.45 8.55 M-0.45 8.45 L-0.35 8.4 -0.25 8.5 -0.15 8.5 -0.15 8.6 -0.1 8.65 -0.1 8.7 Q-0.15 8.65 -0.25 8.6 -0.35 8.55 -0.45 8.5 L-0.45 8.45 M-3.3 8.75 L-2.6 8.45 -2.9 8.55 -3.3 8.75 -3.35 8.7 -2.5 8.35 -2.5 8.85 -2.5 8.9 -2.85 9.05 -2.9 9.1 -3.3 8.75 M-2.5 8.85 L-2.5 8.85 M-1.7 9.1 Q-1.7 9.3 -1.65 9.55 -1.55 9.85 -1.4 9.95 L-1.6 9.8 Q-1.8 9.55 -2.0 9.65 L-1.9 9.4 -1.9 9.35 -1.85 9.15 -1.85 9.1 -1.7 8.95 -1.65 9.05 -1.7 9.0 -1.7 9.1 M-2.3 9.0 L-2.1 8.8 -2.15 8.9 Q-2.3 9.2 -2.35 9.4 L-2.6 9.3 -2.35 9.1 -2.3 9.0 M-0.75 11.8 L-0.75 11.7 -0.65 11.65 -0.65 11.6 -0.6 11.65 -0.65 11.65 -0.75 11.8 M-0.55 11.75 L-0.45 11.9 -0.3 12.2 Q-0.7 12.35 -0.85 12.6 L-0.85 12.4 -0.8 12.35 -0.7 12.4 Q-0.7 12.3 -0.6 12.15 L-0.45 11.9 -0.55 11.85 -0.65 11.95 -0.6 11.8 -0.55 11.75 M-0.1 13.25 L-0.15 13.25 -0.15 13.5 -0.1 13.7 -0.05 14.0 0.0 13.95 0.0 13.85 Q0.0 13.5 -0.1 13.25 M-0.85 13.8 Q-0.95 14.05 -0.95 14.1 L-0.95 14.15 -0.5 14.15 -0.5 14.05 Q-0.5 14.0 -0.5 13.95 L-0.55 13.85 -0.65 13.55 -0.85 13.8 M-1.2 14.85 L-1.15 14.8 -1.15 14.7 Q-1.15 15.0 -0.9 15.4 L-1.55 15.5 Q-1.4 15.35 -1.15 14.9 L-1.15 14.85 -1.2 14.85" fill="#00ffff" fill-opacity="0.49803922" fill-rule="evenodd" stroke="none"/>
      <path d="M0.0 -12.45 L0.0 4.55 -0.1 4.6 -0.15 4.7 -0.6 5.7 -0.65 5.75 -0.65 5.8 -0.95 5.9 -0.95 5.85 Q-0.95 5.7 -0.8 5.0 L-0.7 4.2 Q-0.6 3.9 -0.55 3.4 L-0.45 2.55 -0.3 0.9 -0.2 0.0 -0.2 -13.6 -0.15 -14.85 -0.1 -14.85 0.0 -13.6 0.0 -12.45 M0.05 4.9 L0.05 4.95 0.0 5.25 -0.05 5.5 Q-0.1 5.6 -0.1 5.85 -0.1 6.0 -0.35 6.0 L-0.4 6.0 -0.7 6.05 Q-1.4 6.2 -1.9 6.4 L-2.5 6.65 Q-2.6 6.65 -2.8 6.8 L-3.05 6.95 -3.05 7.0 -3.05 6.95 -3.05 6.9 -3.0 6.8 -2.7 6.6 -2.35 6.45 -2.3 6.45 -1.95 6.3 -1.85 6.25 Q-1.0 5.95 -0.5 5.9 -0.35 5.7 -0.25 5.45 L-0.25 5.4 -0.25 5.35 -0.1 5.05 -0.05 5.0 0.05 4.9 M2.55 5.8 L2.35 6.0 2.3 6.0 2.25 6.05 2.0 6.25 1.95 6.25 2.3 5.9 Q2.55 5.65 2.65 5.65 L2.6 5.8 2.55 5.8 M0.4 5.8 L0.4 5.85 0.35 5.9 Q0.25 5.8 0.2 5.6 L0.2 5.35 0.3 5.5 Q0.4 5.65 0.4 5.8 M-0.35 7.5 L-0.3 7.2 Q-0.2 7.0 -0.1 6.95 L0.15 6.95 0.2 7.05 0.25 7.1 0.3 7.2 0.3 7.25 0.25 7.25 0.15 7.15 0.0 7.3 Q-0.15 7.4 -0.25 7.6 -0.35 7.75 -0.35 7.9 L-0.4 7.95 -0.4 8.15 Q-0.5 8.1 -0.5 8.0 L-0.45 7.9 -0.45 7.85 -0.3 7.6 -0.25 7.45 Q-0.1 7.25 0.0 7.15 -0.15 7.15 -0.2 7.25 L-0.3 7.5 Q-0.35 7.55 -0.35 7.5 M0.7 7.95 L0.8 7.95 1.0 7.95 1.3 8.0 1.15 8.05 1.1 8.05 1.05 8.15 Q1.05 8.05 0.65 8.1 L0.6 8.05 0.7 7.95 M0.95 9.2 L0.8 9.25 Q0.7 9.25 0.65 9.15 L0.7 9.1 0.85 9.05 1.0 9.1 0.95 9.2 M-0.05 8.85 Q0.0 8.85 0.1 8.9 L-0.3 9.4 -0.65 9.9 -0.65 10.0 Q-0.65 10.15 -0.65 10.2 L-0.7 10.2 Q-0.75 10.15 -0.75 10.0 L-0.75 9.85 Q-0.75 9.8 -0.6 9.6 L-0.4 9.25 Q-0.15 8.9 -0.1 8.85 L-0.05 8.85 M0.6 11.8 L0.6 11.7 0.65 11.7 0.75 11.7 Q0.8 11.7 0.75 11.75 L0.8 11.85 0.85 11.9 0.85 11.95 0.65 11.95 0.6 11.8 M-0.3 12.3 Q-0.35 12.35 -0.45 12.4 L-0.55 12.5 Q-0.55 12.55 -0.6 12.6 L-0.75 12.75 -0.75 12.8 -0.4 12.5 Q-0.25 12.4 0.1 12.3 L0.7 12.2 0.8 12.2 0.85 12.25 0.35 12.5 0.4 12.55 0.7 12.45 Q0.85 12.5 0.85 12.55 L0.3 12.55 -0.05 12.65 -0.2 12.7 -0.25 12.7 -0.25 12.65 Q-0.35 12.7 -0.55 12.9 L-0.85 13.15 -0.85 12.95 -1.0 13.4 -1.0 13.35 -0.95 13.3 -0.95 13.2 -0.9 13.05 -0.9 12.75 -0.85 12.65 -0.8 12.65 Q-0.75 12.6 -0.7 12.55 -0.7 12.5 -0.55 12.35 L-0.4 12.25 -0.3 12.3 M0.65 13.75 Q0.75 13.95 0.9 14.1 0.7 14.3 0.3 14.35 L0.3 14.2 Q0.3 13.55 0.45 13.4 L0.65 13.75 M-0.8 13.45 L-0.75 13.4 -0.7 13.4 -0.7 13.45 Q-0.7 13.6 -1.0 13.95 -1.25 14.2 -1.4 14.3 L-1.45 14.35 -1.5 14.35 -1.65 14.35 -1.4 14.1 -1.05 13.85 -0.9 13.6 -0.8 13.45 M-3.95 6.45 L-3.8 6.55 -3.6 6.7 -3.6 6.75 -3.65 6.75 Q-3.7 6.75 -4.05 6.6 -4.35 6.4 -4.5 6.35 L-5.0 5.95 -5.0 6.1 -4.95 6.15 -5.0 6.2 -5.3 5.7 -5.35 5.7 -5.3 5.65 Q-5.25 5.6 -5.2 5.65 L-5.15 5.65 Q-5.1 5.7 -5.05 5.8 L-4.45 6.2 -4.0 6.45 -3.95 6.45 M-3.7 8.05 L-3.4 8.05 -3.35 8.05 -3.05 8.05 -3.0 8.1 -3.05 8.15 -3.4 8.2 -3.8 8.2 -3.9 8.1 Q-3.9 8.05 -3.75 8.05 L-3.7 8.05 M-4.1 7.5 L-3.95 7.5 -3.85 7.55 -3.75 7.55 -3.3 7.65 -3.3 7.75 -4.4 7.5 -4.4 7.4 -4.1 7.5 M-4.55 7.3 Q-4.8 7.25 -4.9 7.1 -5.0 6.9 -5.05 6.8 L-5.0 6.8 -4.9 6.85 -4.9 6.8 Q-4.8 6.8 -4.55 6.95 L-4.25 7.1 -3.8 7.25 -3.45 7.4 -3.35 7.45 -3.4 7.55 -4.15 7.25 -4.6 7.0 Q-4.7 6.95 -4.75 6.95 -4.6 7.15 -4.55 7.3 M-2.4 6.45 L-2.5 6.45 -2.45 6.4 -2.45 6.3 -2.7 5.75 -2.7 5.7 Q-2.6 5.7 -2.5 5.85 L-2.45 6.0 Q-2.3 6.2 -2.3 6.3 L-2.3 6.4 -2.4 6.45 M-1.4 8.1 L-1.45 8.05 -1.4 8.0 -0.7 7.95 -0.65 8.0 -0.65 8.05 -0.6 8.05 -0.6 8.1 -0.55 8.25 Q-0.65 8.2 -0.75 8.3 -0.9 8.35 -1.05 8.35 L-1.05 8.3 Q-1.1 8.25 -1.2 8.25 L-1.2 8.2 -1.15 8.15 -1.05 8.15 -1.0 8.1 -1.05 8.05 -1.4 8.1 M-0.85 9.05 L-0.75 9.05 -0.7 9.05 -0.65 9.1 -0.65 9.25 -1.0 9.25 -1.05 9.2 Q-1.05 9.1 -0.95 9.05 L-0.85 9.05 M-3.3 8.75 L-2.9 8.55 -2.6 8.45 -3.3 8.75 M-0.85 12.4 L-0.85 12.35 -0.9 12.3 Q-0.9 12.15 -0.8 11.9 L-0.75 11.8 -0.65 11.65 -0.6 11.65 -0.6 11.7 -0.55 11.75 -0.6 11.8 -0.65 11.95 -0.55 11.85 -0.45 11.9 -0.6 12.15 Q-0.7 12.3 -0.7 12.4 L-0.8 12.35 -0.85 12.4 M-0.85 13.8 L-0.65 13.55 -0.55 13.85 -0.5 13.95 Q-0.5 14.0 -0.5 14.05 L-0.5 14.15 -0.95 14.15 -0.95 14.1 Q-0.95 14.05 -0.85 13.8 M-1.55 15.5 L-1.65 15.55 Q-1.7 15.55 -1.7 15.5 -1.7 15.4 -1.5 15.15 -1.3 14.9 -1.2 14.85 L-1.15 14.85 -1.15 14.9 Q-1.4 15.35 -1.55 15.5" fill="#87ffff" fill-opacity="0.49803922" fill-rule="evenodd" stroke="none"/>
      <path d="M-2.3 6.45 L-2.35 6.45 -2.4 6.45 -2.3 6.4 -2.3 6.3 -2.25 6.4 -2.3 6.4 -2.3 6.45 M2.3 6.0 L2.25 6.05 2.3 6.0 M0.05 6.85 L0.0 6.8 0.05 6.8 0.05 6.85 M2.5 8.85 L2.5 8.85 M-2.5 8.85 L-2.5 8.85" fill="#00bfff" fill-opacity="0.49803922" fill-rule="evenodd" stroke="none"/>
      <path d="M-3.25 9.4 L-3.25 9.35 -3.25 9.4" fill="#6bcbeb" fill-opacity="0.2509804" fill-rule="evenodd" stroke="none"/>
      <path d="M-0.1 13.25 Q0.0 13.5 0.0 13.85 L0.0 13.95 -0.05 14.0 -0.1 13.7 -0.15 13.5 -0.15 13.25 -0.1 13.25" fill="#00ffff" fill-opacity="0.48235294" fill-rule="evenodd" stroke="none"/>
    </g>
    <g id="shape2" transform="matrix(1.0, 0.0, 0.0, 1.0, 3.5, 14.4)">
      <path d="M1.85 -12.55 L2.1 -12.55 2.1 -12.5 2.15 -12.5 2.5 -11.85 2.55 -11.85 3.15 -11.2 Q3.6 -10.7 3.6 -10.45 3.6 -10.35 3.35 -9.8 3.05 -9.2 2.9 -9.2 L2.15 -9.3 2.05 -9.3 1.95 -9.35 1.65 -9.35 Q1.55 -9.25 1.5 -9.05 1.4 -8.8 1.2 -8.75 L1.2 -8.7 1.15 -8.7 Q1.05 -8.7 1.05 -8.9 1.05 -9.1 1.25 -9.3 L1.55 -9.6 1.6 -9.6 2.0 -9.65 Q2.25 -9.7 2.2 -10.15 L2.3 -10.4 Q2.25 -10.55 2.1 -10.95 L2.1 -11.0 Q2.05 -11.1 2.2 -11.25 L1.85 -12.0 0.95 -11.25 Q0.5 -10.85 -0.2 -10.6 -0.85 -10.6 -1.1 -10.75 L-1.05 -10.75 Q-1.35 -10.9 -1.6 -10.95 -1.75 -10.65 -1.8 -10.05 L-1.75 -10.0 Q-1.4 -9.65 -1.4 -9.4 -1.15 -9.1 -1.0 -8.75 L-1.0 -8.7 -1.05 -8.7 -1.05 -8.65 -1.15 -8.6 -1.2 -8.6 -1.25 -8.65 -1.25 -8.7 Q-1.4 -8.75 -1.7 -8.9 L-2.1 -9.15 -2.15 -9.1 -2.35 -9.1 Q-2.85 -9.1 -3.0 -9.7 L-3.15 -10.75 Q-3.15 -11.0 -3.2 -11.1 L-3.35 -11.4 Q-3.5 -11.65 -3.5 -11.75 -3.5 -12.0 -3.25 -12.0 L-2.45 -12.5 Q-2.4 -12.6 -2.45 -12.85 L-2.4 -13.1 -2.25 -13.35 -2.25 -13.3 -2.15 -13.45 -1.9 -14.15 Q-1.7 -14.45 -1.5 -14.35 -1.35 -14.35 -1.15 -14.1 L-1.1 -14.1 -1.0 -14.0 -0.95 -14.0 -0.95 -13.95 -1.0 -13.65 Q-1.1 -13.45 -1.25 -13.25 L-1.25 -13.05 Q-1.2 -12.9 -1.1 -12.75 L-1.05 -12.75 -1.05 -12.7 -0.9 -12.6 -0.9 -12.5 -0.95 -12.45 -0.95 -12.4 Q-0.95 -12.35 -0.95 -12.25 L-0.95 -12.2 -1.0 -12.15 -1.0 -12.1 -1.1 -12.0 -1.25 -12.0 -1.25 -12.05 -1.35 -12.15 -1.4 -12.15 -1.45 -12.1 Q-1.55 -12.05 -1.7 -12.05 -1.75 -12.0 -2.0 -11.65 -2.2 -11.25 -2.7 -11.35 L-2.75 -10.5 Q-2.7 -10.0 -2.65 -9.65 L-2.65 -9.6 Q-2.45 -9.35 -2.05 -9.4 L-2.0 -9.4 Q-1.75 -9.15 -1.4 -9.0 L-1.65 -9.25 Q-2.05 -9.55 -2.05 -9.8 L-2.05 -9.95 Q-2.35 -10.35 -2.35 -10.6 L-2.35 -10.65 Q-1.95 -11.6 -1.65 -11.6 -1.55 -11.6 -1.15 -11.3 L-0.7 -10.95 Q-0.1 -11.05 0.15 -11.25 0.3 -11.35 0.5 -11.7 L0.55 -11.7 Q0.65 -11.85 1.2 -12.15 1.65 -12.45 1.85 -12.55 M2.6 -10.7 L2.6 -10.5 Q2.6 -10.45 2.55 -10.45 L2.55 -10.35 2.5 -10.15 2.45 -10.05 Q2.35 -9.7 2.25 -9.5 L2.45 -9.5 2.85 -9.45 Q3.05 -9.65 3.4 -10.45 3.35 -10.6 2.95 -11.1 L2.65 -11.45 2.5 -11.25 Q2.6 -10.95 2.6 -10.7 M2.7 -7.6 Q2.65 -7.45 2.75 -7.2 L2.75 -7.1 2.7 -7.05 2.6 -7.05 Q2.55 -7.1 2.45 -7.25 2.35 -7.4 2.35 -7.5 2.35 -7.65 2.55 -7.85 2.7 -8.05 2.8 -8.05 2.9 -8.05 3.15 -7.8 L3.4 -7.55 3.7 -7.55 3.7 -7.9 Q3.9 -8.1 4.15 -8.05 4.4 -8.0 4.4 -7.75 4.4 -7.55 4.3 -7.5 L4.05 -7.5 4.05 -7.6 4.15 -7.7 4.1 -7.8 4.0 -7.8 3.95 -7.75 3.95 -7.6 Q3.95 -7.45 3.85 -7.35 3.75 -7.25 3.6 -7.25 3.35 -7.25 3.1 -7.5 3.0 -7.6 2.85 -7.7 2.7 -7.7 2.7 -7.6 M3.95 -7.75 L3.95 -7.75 M-1.35 -13.95 L-1.55 -14.1 -1.7 -13.9 Q-1.5 -13.85 -1.45 -13.75 L-1.35 -13.6 -1.35 -13.55 -1.3 -13.6 Q-1.2 -13.65 -1.25 -13.8 L-1.35 -13.95 M-1.4 -12.85 L-1.45 -13.0 -1.45 -13.4 -1.7 -13.6 -1.85 -13.5 Q-2.0 -13.35 -2.05 -13.35 L-2.15 -13.15 -2.15 -12.65 -2.05 -12.9 -1.7 -13.3 -1.6 -13.3 -1.55 -13.25 -1.45 -12.95 -1.4 -12.85 -1.3 -12.75 -1.3 -12.8 -1.4 -12.85 M-2.45 -12.15 L-2.8 -12.0 -2.9 -11.95 -2.25 -11.95 -2.2 -12.3 -2.2 -12.35 Q-2.25 -12.2 -2.45 -12.15" fill="#00ffff" fill-opacity="0.2509804" fill-rule="evenodd" stroke="none"/>
      <path d="M2.1 -12.45 L2.45 -11.8 2.5 -11.8 3.1 -11.15 Q3.55 -10.7 3.55 -10.45 3.55 -10.35 3.3 -9.8 3.0 -9.25 2.9 -9.25 L2.2 -9.35 2.05 -9.4 1.95 -9.45 1.6 -9.4 Q1.55 -9.3 1.4 -9.1 1.3 -8.9 1.2 -8.8 L1.15 -8.8 1.15 -8.9 Q1.15 -9.05 1.3 -9.25 L1.6 -9.55 2.0 -9.6 Q2.35 -9.65 2.3 -10.15 2.3 -10.2 2.35 -10.4 L2.15 -11.0 Q2.15 -11.05 2.25 -11.25 L1.85 -12.1 0.9 -11.3 Q0.45 -10.9 -0.2 -10.65 -0.8 -10.7 -1.05 -10.8 -1.35 -10.95 -1.65 -11.0 -1.85 -10.75 -1.85 -10.05 L-1.8 -9.95 Q-1.45 -9.6 -1.45 -9.4 -1.2 -9.1 -1.1 -8.75 L-1.1 -8.7 Q-1.15 -8.7 -1.2 -8.7 L-1.2 -8.8 Q-1.35 -8.8 -1.65 -8.95 L-2.1 -9.2 -2.15 -9.2 -2.35 -9.15 Q-2.8 -9.15 -2.95 -9.75 L-3.05 -10.45 -3.05 -10.8 Q-3.05 -11.0 -3.1 -11.1 L-3.3 -11.45 Q-3.4 -11.65 -3.4 -11.75 -3.4 -11.95 -3.25 -11.95 L-2.8 -12.2 -2.4 -12.45 Q-2.3 -12.55 -2.4 -12.85 L-2.35 -13.05 -2.2 -13.3 -2.1 -13.45 -1.85 -14.15 Q-1.55 -14.55 -1.15 -13.95 L-1.15 -14.0 Q-1.15 -14.05 -1.05 -13.95 L-1.1 -13.65 Q-1.15 -13.5 -1.3 -13.3 L-1.35 -13.35 -1.3 -13.05 Q-1.25 -12.85 -1.1 -12.7 L-1.1 -12.65 -0.95 -12.55 -0.95 -12.5 -1.0 -12.5 -1.0 -12.4 Q-1.0 -12.35 -1.05 -12.25 L-1.05 -12.2 -1.1 -12.15 -1.05 -12.15 -1.1 -12.1 -1.1 -12.05 -1.2 -12.05 -1.2 -12.1 Q-1.25 -12.1 -1.25 -12.15 L-1.45 -12.25 -1.5 -12.15 Q-1.55 -12.1 -1.7 -12.1 -1.8 -12.1 -2.05 -11.65 -2.25 -11.3 -2.75 -11.45 L-2.8 -10.5 Q-2.8 -9.95 -2.75 -9.65 L-2.8 -9.7 Q-2.6 -9.25 -2.05 -9.3 -1.65 -9.05 -1.2 -8.8 -1.3 -9.05 -1.65 -9.3 -2.0 -9.6 -2.0 -9.8 L-1.95 -9.95 -2.0 -9.95 Q-2.25 -10.4 -2.25 -10.6 -1.9 -11.55 -1.65 -11.55 -1.55 -11.55 -1.2 -11.25 L-0.75 -10.85 Q-0.05 -11.0 0.2 -11.2 0.35 -11.3 0.6 -11.65 0.7 -11.8 1.25 -12.1 L1.85 -12.5 2.1 -12.45 M2.6 -11.55 Q2.6 -11.45 2.45 -11.3 L2.45 -11.25 Q2.55 -10.95 2.55 -10.7 L2.55 -10.55 Q2.55 -10.5 2.45 -10.5 L2.45 -10.2 2.35 -10.1 2.35 -10.05 Q2.3 -9.6 2.1 -9.45 L2.45 -9.45 2.85 -9.4 Q3.1 -9.55 3.45 -10.45 3.45 -10.6 3.0 -11.15 L2.55 -11.7 2.6 -11.55 M2.6 -7.8 Q2.7 -7.95 2.8 -7.95 2.85 -7.95 3.1 -7.75 L3.35 -7.5 3.75 -7.45 3.75 -7.85 Q3.9 -8.05 4.1 -8.0 4.3 -7.95 4.3 -7.75 4.3 -7.6 4.25 -7.6 L4.1 -7.55 4.25 -7.7 Q4.2 -7.75 4.2 -7.85 L3.95 -7.85 Q3.95 -7.8 3.8 -7.8 L3.85 -7.75 3.9 -7.6 Q3.9 -7.5 3.8 -7.4 3.7 -7.35 3.6 -7.35 3.4 -7.35 3.15 -7.55 L2.85 -7.8 Q2.45 -7.75 2.7 -7.15 L2.65 -7.1 Q2.6 -7.15 2.5 -7.3 2.45 -7.45 2.45 -7.5 2.45 -7.65 2.6 -7.8 M-1.3 -14.0 L-1.55 -14.2 -1.85 -13.8 -1.8 -13.8 Q-1.6 -13.8 -1.5 -13.7 L-1.4 -13.5 -1.35 -13.5 Q-1.15 -13.55 -1.15 -13.85 L-1.3 -14.0 M-1.25 -12.75 L-1.4 -13.0 -1.4 -13.45 -1.7 -13.7 -1.9 -13.55 -2.05 -13.4 -2.1 -13.4 -2.2 -13.2 -2.25 -12.45 Q-2.25 -12.3 -2.5 -12.25 -2.8 -12.1 -2.85 -12.05 L-3.05 -11.95 -2.7 -11.85 -2.2 -11.85 -2.1 -12.3 -2.1 -12.35 Q-2.1 -12.65 -2.0 -12.85 L-1.65 -13.25 -1.5 -12.9 Q-1.4 -12.7 -1.25 -12.7 L-1.25 -12.75 M-1.7 -12.25 L-1.95 -12.2 -2.0 -12.0 -2.05 -11.9 -1.9 -12.15 Q-1.75 -12.2 -1.65 -12.25 L-1.7 -12.25 M-1.85 -9.75 L-1.75 -9.65 -1.85 -9.85 -1.85 -9.75" fill="#ffffff" fill-opacity="0.49803922" fill-rule="evenodd" stroke="none"/>
    </g>
    <g id="shape3" transform="matrix(1.0, 0.0, 0.0, 1.0, 2.65, 16.55)">
      <path d="M0.0 -16.3 L0.0 -3.25 -0.05 -3.15 -0.05 -3.0 0.0 3.85 -0.05 3.9 -0.05 5.85 -0.1 5.9 -0.15 6.05 -0.2 6.0 -0.2 6.05 -0.3 5.65 -0.3 4.05 -0.25 4.0 -0.3 3.75 -0.25 3.45 Q-0.2 2.25 -0.2 0.5 L-0.25 -11.8 -0.25 -14.0 -0.3 -14.35 -0.3 -14.65 Q-0.3 -15.15 -0.15 -15.75 L-0.05 -16.2 0.0 -16.3 M-1.9 5.8 L-2.0 5.4 -2.0 5.35 Q-1.85 5.5 -1.75 5.85 L-1.7 5.9 -1.55 6.35 -1.6 6.45 -1.7 6.35 -1.8 6.2 Q-1.85 6.0 -1.85 5.95 L-1.9 5.8 M-1.1 6.4 L-1.1 6.35 -1.0 6.2 -0.9 6.1 -0.8 6.0 Q-0.8 6.1 -0.9 6.2 -1.0 6.35 -1.1 6.45 L-1.1 6.4 M-0.45 5.45 L-0.4 5.4 Q-0.35 5.55 -0.35 5.6 L-0.4 5.75 -0.4 6.05 -0.45 6.45 -0.55 6.5 Q-0.6 6.45 -0.6 6.35 L-0.55 5.9 -0.45 5.45 M0.0 6.4 L0.0 6.5 Q0.0 6.6 -0.2 7.3 -0.4 8.05 -0.5 8.2 L-0.5 8.05 -0.45 7.95 -0.3 7.3 -0.2 6.8 Q-0.1 6.5 0.0 6.4 M0.0 7.75 L0.05 7.75 0.05 7.8 0.0 7.95 -0.05 8.05 -0.1 8.1 -0.15 8.2 -0.2 8.3 -0.25 8.3 -0.25 8.25 -0.25 8.15 Q-0.25 8.1 -0.3 8.1 L-0.2 7.9 0.0 7.75 M0.05 6.5 L0.05 6.4 Q0.15 6.55 0.3 7.1 L0.65 8.35 0.65 8.4 0.65 8.55 0.6 8.6 Q0.55 8.5 0.4 8.1 0.3 7.7 0.3 7.55 L0.25 7.25 0.15 7.0 Q0.1 6.65 0.05 6.5 M0.05 9.3 L0.05 9.25 Q0.05 9.15 0.2 9.05 0.25 9.0 0.3 9.0 0.35 9.0 0.45 9.05 L0.3 9.15 0.1 9.3 0.05 9.3 M-0.45 8.85 L-0.45 8.8 -0.35 8.6 -0.35 8.55 -0.15 8.25 Q-0.1 8.15 0.0 8.2 L-0.1 8.35 -0.05 8.55 -0.1 8.7 -0.15 8.6 -0.15 8.55 -0.2 8.5 -0.35 8.85 -0.45 8.85 Q-0.45 8.9 -0.45 8.85 M-1.45 7.35 L-1.45 7.3 -1.05 7.3 -0.95 7.3 -0.8 7.45 -0.8 7.5 -0.85 7.55 -0.95 7.45 -1.0 7.5 -0.95 7.5 -0.95 7.55 -1.0 7.65 -1.05 7.7 -1.2 7.6 -1.4 7.45 -1.45 7.4 -1.45 7.35 M-1.55 9.1 L-1.5 9.05 -1.15 9.15 -1.05 9.15 -1.05 8.9 -1.1 8.65 Q-1.1 8.6 -1.0 8.6 L-0.85 8.65 -0.8 8.7 -1.0 8.8 Q-0.9 9.1 -0.9 9.2 -0.9 9.3 -0.95 9.25 L-0.95 9.3 -1.0 9.3 -1.45 9.2 -1.55 9.3 -1.65 9.3 -1.75 9.25 Q-1.85 9.25 -1.85 9.3 L-1.85 9.35 -1.9 9.35 -1.9 9.3 Q-1.9 9.1 -1.75 9.1 -1.6 9.1 -1.5 9.15 L-1.55 9.1 Q-1.6 9.1 -1.55 9.1 M-2.15 8.6 L-2.1 8.55 -2.05 8.6 -2.05 8.65 Q-2.05 8.75 -2.15 9.15 L-2.25 9.35 -2.25 10.05 -2.3 10.35 Q-2.4 10.15 -2.4 10.0 L-2.45 9.65 -2.4 9.35 -2.35 9.05 Q-2.25 8.75 -2.15 8.65 L-2.15 8.6 M-0.35 9.15 L-0.35 9.05 Q-0.3 9.05 -0.2 9.1 L-0.15 9.15 Q-0.1 9.2 0.0 9.35 L-0.05 9.35 -0.15 9.25 -0.15 9.2 -0.2 9.25 Q-0.3 9.25 -0.35 9.15 M-0.1 9.5 L-0.15 9.55 Q-0.15 9.65 -0.2 9.7 L-0.15 9.8 Q-0.15 9.85 -0.15 9.9 -0.25 9.95 -0.3 9.9 L-0.25 9.25 Q-0.05 9.3 -0.05 9.35 L-0.1 9.5 M-0.2 10.8 L-0.15 10.85 Q-0.15 10.95 -0.35 11.0 -0.45 11.05 -0.45 10.95 L-0.35 10.9 -0.3 10.8 -0.2 10.8 M-0.65 11.3 Q-0.65 11.2 -0.15 11.05 L0.45 10.9 0.55 10.95 0.35 11.0 0.2 11.05 0.15 11.1 -0.05 11.15 -0.1 11.35 -0.15 11.4 -0.15 11.6 Q-0.2 11.65 -0.35 11.7 L-0.35 11.55 -0.45 11.55 -0.4 11.5 -0.4 11.45 Q-0.4 11.4 -0.45 11.35 L-0.45 11.3 -0.55 11.35 -0.6 11.35 -0.65 11.3 M0.6 12.8 L0.5 12.9 0.15 13.1 0.1 13.1 0.45 12.85 Q0.65 12.7 0.7 12.65 L0.65 12.75 0.6 12.8 M-0.15 11.95 L-0.15 11.9 0.0 11.9 0.05 11.95 -0.15 12.05 -0.25 12.0 -0.15 11.95 M-0.05 12.1 L0.05 12.2 0.0 12.25 0.0 12.3 -0.1 12.5 Q-0.1 12.6 -0.15 12.65 -0.1 12.7 -0.1 12.75 L-0.15 12.75 -0.2 12.9 -0.25 12.95 -0.25 12.8 Q-0.25 12.6 -0.15 12.55 L-0.25 12.4 -0.3 12.25 Q-0.3 12.15 -0.25 12.1 L-0.05 12.1 M-0.7 14.5 Q-0.75 14.5 -0.75 14.4 -0.6 13.65 -0.45 13.4 L-0.4 13.6 -0.45 14.0 -0.55 14.25 -0.7 14.5 M-0.05 15.25 L-0.15 15.3 Q-0.15 15.25 -0.15 15.3 L-0.2 15.3 -0.2 15.35 -0.2 15.4 -0.25 15.4 -0.35 15.25 -0.45 15.15 -0.45 15.05 Q-0.2 15.05 -0.05 15.2 L-0.05 15.25 M-0.15 13.25 Q-0.1 13.3 0.0 13.35 L-0.2 13.6 -0.3 13.5 -0.3 13.45 -0.35 13.3 -0.35 13.25 -0.3 13.2 -0.15 13.25 M-0.95 13.85 L-0.8 13.55 -0.75 13.3 -0.65 13.15 -0.75 13.65 Q-0.8 14.0 -0.9 14.2 L-1.05 14.2 -1.05 14.15 -0.95 13.85 M-0.1 15.6 Q-0.05 15.65 -0.05 15.7 -0.05 15.75 -0.1 15.75 -0.25 15.65 -0.25 15.5 -0.15 15.5 -0.1 15.55 L-0.1 15.6 M-1.15 15.55 L-1.15 15.45 -1.1 15.4 -1.05 15.3 -1.0 15.3 -1.0 15.35 -1.0 15.5 Q-1.05 15.65 -1.1 15.65 L-1.15 15.65 -1.15 15.55 M0.85 6.05 L0.9 6.15 0.95 6.3 0.85 6.55 0.8 6.55 Q0.8 6.5 0.8 6.35 0.8 6.15 0.85 6.05 M1.9 5.6 L1.75 5.95 Q1.65 6.2 1.5 6.35 1.5 6.4 1.5 6.3 L1.6 6.05 Q1.75 5.7 1.85 5.55 L1.9 5.5 1.95 5.5 1.9 5.6 M0.3 6.3 Q0.35 5.95 0.4 5.8 L0.45 5.75 0.45 6.05 Q0.45 6.25 0.35 6.35 L0.3 6.3 M1.25 7.35 L1.25 7.45 Q1.25 7.5 1.05 7.6 L0.95 7.5 Q0.95 7.4 1.05 7.35 L1.25 7.35 M1.15 8.6 L1.15 8.7 Q1.15 8.75 1.05 8.8 0.9 8.85 0.85 8.95 L0.8 9.3 0.75 9.3 0.75 9.2 Q0.75 8.9 0.8 8.75 0.9 8.5 1.15 8.6 M1.45 9.1 L1.6 9.15 1.65 9.2 Q1.45 9.4 1.35 9.4 L1.25 9.35 Q1.2 9.35 1.2 9.25 L1.25 9.15 Q1.35 9.1 1.45 9.1 M0.55 14.05 L0.6 14.3 Q0.6 14.4 0.4 14.4 0.2 14.4 0.25 14.2 0.25 14.05 0.35 14.0 0.4 13.95 0.4 13.85 0.4 13.8 0.45 13.8 L0.45 13.75 0.55 14.05" fill="#87ffff" fill-opacity="0.8" fill-rule="evenodd" stroke="none"/>
      <path d="M0.05 -16.55 L0.1 -16.55 0.25 -16.1 0.25 -16.05 0.35 -15.7 0.4 -15.55 0.45 -15.25 Q0.5 -14.85 0.5 -14.1 L0.45 -13.75 0.4 -12.8 0.4 -4.05 0.45 0.55 0.45 2.1 0.5 3.95 0.5 4.8 0.55 4.8 0.55 4.9 0.65 5.35 0.75 5.75 Q0.8 5.75 0.9 5.8 L1.0 5.85 1.05 5.85 1.3 6.1 1.35 6.25 1.45 6.2 Q1.45 6.15 1.6 5.85 L1.8 5.5 2.0 5.1 Q2.1 4.95 2.15 4.9 L2.3 4.7 2.35 4.7 2.35 4.75 2.25 5.2 2.05 5.65 1.95 6.2 Q1.9 6.4 1.8 6.5 L1.75 6.55 1.65 6.55 1.3 6.7 Q1.1 6.8 1.0 6.9 L1.05 7.1 1.05 7.15 1.25 7.15 1.65 7.25 1.7 7.3 1.7 7.5 1.65 7.45 Q1.55 7.7 1.55 7.8 L1.55 7.85 1.6 7.9 1.6 7.95 1.65 8.15 1.65 8.2 1.7 8.2 1.65 8.25 Q1.6 8.3 1.65 8.35 1.65 8.4 1.65 8.5 L1.65 8.7 1.6 8.65 1.65 8.75 1.55 8.8 1.65 8.8 Q1.7 8.8 1.7 8.75 L1.75 8.7 2.0 8.7 2.05 8.3 Q2.25 8.25 2.3 8.45 L2.45 8.75 2.65 9.4 2.6 9.45 2.65 9.5 2.6 10.05 2.5 10.85 Q2.5 11.4 2.35 12.05 L2.35 12.1 Q2.4 12.15 2.3 12.2 L2.25 12.25 Q2.05 12.25 2.05 12.15 2.0 11.9 2.1 11.2 L2.15 10.9 2.15 9.85 2.1 9.7 2.1 9.75 Q2.1 9.85 1.6 9.9 1.45 10.0 1.4 10.2 L1.35 10.5 1.3 10.5 1.25 10.55 1.15 10.75 1.05 11.0 Q1.0 11.3 0.95 11.5 L1.0 11.75 1.0 12.0 0.95 12.5 Q0.95 12.55 1.0 12.6 L1.05 12.7 0.95 12.95 Q0.95 13.05 1.1 13.65 L1.25 14.15 1.35 14.4 1.25 14.3 1.1 14.4 1.25 14.85 1.4 15.5 1.4 15.7 1.2 15.9 1.15 15.9 1.15 15.95 1.05 15.9 Q0.95 15.75 0.9 15.4 L0.85 15.05 0.8 15.25 0.8 15.3 0.9 16.05 0.9 16.25 Q0.85 16.3 0.75 16.3 L0.5 16.25 0.4 16.2 Q0.15 16.5 0.15 16.65 L-0.1 16.65 Q-0.1 16.5 -0.4 16.2 L-0.45 16.15 -0.5 16.15 Q-0.55 16.25 -0.7 16.25 -0.9 16.25 -0.9 16.1 L-0.8 15.6 -0.8 15.35 -0.75 15.25 -0.8 15.05 -0.85 15.4 Q-0.9 15.65 -0.95 15.85 -1.0 15.95 -1.05 15.95 L-1.1 15.95 Q-1.25 15.9 -1.3 15.8 -1.4 15.65 -1.4 15.55 -1.4 15.2 -1.1 14.45 L-1.15 14.35 -1.2 14.35 -1.3 14.4 -1.25 14.3 -1.3 14.35 -1.4 14.35 -1.4 14.25 -1.1 13.55 -1.0 13.35 -0.95 13.15 -0.85 12.9 Q-0.95 12.85 -0.95 12.7 L-0.9 12.2 -1.0 12.2 -1.0 12.15 -0.95 11.7 -0.95 11.45 Q-0.95 11.35 -0.9 11.3 L-1.0 11.05 -1.15 10.55 Q-1.3 10.55 -1.35 10.45 -1.35 10.3 -1.4 10.25 L-1.45 10.05 Q-1.45 9.9 -1.5 9.85 L-1.75 9.8 -1.9 9.8 -2.0 9.75 -2.05 9.7 -2.1 9.7 -2.1 10.9 -2.05 11.2 Q-1.95 11.9 -2.0 12.15 -2.05 12.25 -2.2 12.25 L-2.25 12.2 -2.3 12.2 Q-2.35 12.15 -2.35 12.1 L-2.3 12.05 Q-2.45 11.4 -2.5 10.85 L-2.5 10.45 -2.55 10.5 -2.65 9.5 -2.6 9.35 -2.55 9.15 -2.45 9.0 -2.35 8.65 Q-2.3 8.5 -2.15 8.35 -2.0 8.15 -2.0 8.5 L-2.0 8.7 -1.7 8.7 -1.65 8.75 -1.65 8.8 -1.5 8.8 -1.6 8.75 -1.6 8.5 Q-1.6 8.4 -1.6 8.35 -1.6 8.3 -1.6 8.25 L-1.65 8.2 -1.65 8.15 -1.6 8.1 -1.55 7.95 -1.55 7.8 Q-1.5 7.7 -1.6 7.45 L-1.65 7.5 -1.65 7.35 Q-1.5 7.2 -1.3 7.15 -1.15 7.1 -1.05 7.15 L-1.0 7.1 -0.95 6.9 -1.1 6.75 Q-1.4 6.6 -1.7 6.55 L-1.75 6.5 -1.75 6.4 -2.0 5.7 Q-2.2 5.0 -2.2 4.85 L-2.2 4.85 Q-2.1 4.9 -1.9 5.15 L-1.7 5.55 -1.45 5.9 Q-1.35 6.1 -1.35 6.25 L-1.15 5.95 -1.05 5.85 -0.95 5.85 -0.8 5.75 -0.75 5.75 -0.7 5.8 -0.65 5.55 -0.6 5.1 -0.6 5.05 -0.5 4.75 -0.45 4.85 -0.45 3.95 -0.35 2.1 -0.35 -12.8 -0.4 -13.75 -0.45 -14.1 Q-0.45 -14.85 -0.4 -15.25 L-0.3 -15.55 -0.3 -15.7 -0.2 -16.05 -0.2 -16.1 -0.05 -16.55 0.05 -16.55 M0.1 -16.2 L0.05 -16.3 0.05 -4.45 0.1 -4.45 0.1 5.6 0.15 5.8 0.2 6.05 0.25 6.0 0.25 6.05 0.4 5.25 Q0.35 4.75 0.35 4.15 L0.35 3.75 0.3 3.45 Q0.3 2.25 0.3 0.5 L0.3 -13.55 0.35 -13.8 0.3 -14.0 0.35 -14.35 0.35 -14.65 Q0.35 -15.15 0.2 -15.75 L0.1 -16.2 M0.0 -16.3 L-0.05 -16.2 -0.15 -15.75 Q-0.3 -15.15 -0.3 -14.65 L-0.3 -14.35 -0.25 -14.0 -0.25 -11.8 -0.2 0.5 Q-0.2 2.25 -0.25 3.45 L-0.3 3.75 -0.25 4.0 -0.3 4.05 -0.3 5.65 -0.2 6.05 -0.2 6.0 -0.15 6.05 -0.1 5.9 -0.05 5.85 -0.05 3.9 0.0 3.85 -0.05 -3.0 -0.05 -3.15 0.0 -3.25 0.0 -16.3 M-2.0 5.35 L-2.0 5.4 -1.9 5.8 -1.85 5.9 -1.85 5.95 Q-1.85 6.0 -1.8 6.2 L-1.7 6.35 -1.65 6.45 Q-1.4 6.35 -0.9 6.65 -0.4 7.0 -0.35 7.2 L-0.3 7.0 -0.4 6.9 -0.45 6.9 -0.4 6.85 -0.35 6.55 -0.5 6.7 -0.5 6.8 Q-0.55 6.75 -0.6 6.75 L-0.75 6.6 -0.7 6.6 Q-0.75 6.55 -0.8 6.55 L-0.8 5.9 -0.9 6.1 -1.0 6.2 -1.1 6.35 -1.1 6.4 -1.15 6.35 -1.25 6.35 -1.35 6.3 -1.35 6.35 -1.4 6.3 -1.45 6.3 Q-1.55 6.15 -1.65 6.0 L-1.7 5.9 -1.75 5.85 Q-1.85 5.5 -2.0 5.35 M-0.4 5.75 L-0.35 5.6 Q-0.35 5.55 -0.4 5.4 L-0.45 5.45 -0.45 5.4 -0.5 5.6 -0.6 6.25 -0.6 6.3 -0.7 6.45 -0.6 6.45 -0.45 6.55 -0.35 6.5 -0.35 6.45 -0.3 6.7 -0.25 6.4 -0.25 6.45 -0.3 6.1 -0.4 5.75 M-0.85 6.95 Q-0.85 7.1 -0.9 7.2 -0.7 7.35 -0.55 7.35 L-0.5 7.35 -0.5 7.3 -0.6 7.2 Q-0.8 7.0 -0.85 6.95 M0.0 6.5 L0.0 6.4 -0.05 6.25 -0.05 6.3 -0.1 6.3 -0.3 7.25 -0.4 7.5 -0.45 7.75 -0.45 7.95 -0.5 8.05 -0.5 8.2 -0.55 8.35 -0.6 8.4 -0.65 8.6 -0.6 8.7 -0.5 8.7 -0.4 8.65 -0.4 8.6 -0.35 8.5 Q-0.35 8.45 -0.35 8.35 L-0.3 8.35 -0.3 8.5 -0.35 8.55 -0.35 8.6 -0.45 8.8 -0.45 8.85 -0.45 8.9 -0.5 9.0 -0.55 9.25 -0.6 9.4 -0.55 9.45 Q-0.55 9.6 -0.6 9.65 L-0.65 9.75 -0.7 9.8 -0.7 10.2 -0.75 10.45 -0.7 10.45 -0.7 10.55 -0.65 10.55 Q-0.6 10.55 -0.5 10.5 L-0.4 10.4 -0.35 10.3 -0.35 10.25 Q-0.4 9.85 -0.45 9.75 L-0.35 9.85 -0.3 9.95 -0.3 10.05 -0.2 10.1 -0.1 9.8 Q0.0 9.5 0.0 9.3 0.0 9.2 -0.15 9.1 L-0.35 8.9 -0.05 8.95 -0.05 8.8 0.0 8.65 0.0 8.2 0.0 7.95 0.05 7.8 0.05 7.75 0.0 7.75 -0.05 7.7 -0.05 7.75 -0.15 7.8 -0.25 7.95 -0.1 7.35 -0.05 7.05 0.0 6.95 0.0 6.5 M0.05 6.5 L0.05 7.0 0.1 7.0 0.1 7.05 0.05 7.05 0.15 7.35 0.3 7.95 0.2 7.8 0.1 7.75 0.1 7.7 0.05 7.7 Q0.05 7.75 0.05 7.8 L0.05 8.9 0.1 8.9 0.15 8.95 0.35 8.9 0.4 8.9 0.3 9.0 Q0.25 9.0 0.2 9.05 0.05 9.15 0.05 9.25 L0.05 9.3 Q0.05 9.5 0.15 9.8 L0.25 10.1 0.35 10.05 0.35 10.0 0.45 9.85 0.45 9.95 0.4 10.2 0.3 10.35 0.4 10.35 0.45 10.45 0.6 10.55 0.75 10.55 0.8 10.5 0.75 10.4 0.75 10.35 0.8 10.25 0.75 9.95 0.75 9.8 Q0.7 9.75 0.65 9.75 L0.65 9.65 Q0.6 9.6 0.6 9.45 L0.6 9.25 0.55 9.0 0.5 8.9 0.5 8.8 0.35 8.5 0.35 8.35 0.4 8.5 0.45 8.6 0.45 8.65 0.5 8.7 0.65 8.7 0.65 8.55 0.65 8.4 0.65 8.35 0.3 7.1 0.15 6.5 0.15 6.35 0.1 6.3 0.05 6.35 0.05 6.4 0.05 6.5 M-1.45 7.35 L-1.5 7.4 -1.45 7.4 -1.25 7.6 Q-0.95 7.95 -0.95 8.05 L-1.05 8.2 -1.1 8.2 Q-1.2 8.25 -1.45 8.35 L-1.55 8.2 -1.6 8.2 -1.45 8.35 -1.1 8.3 -1.0 8.2 -0.85 8.2 -0.6 8.2 -0.6 8.05 -0.65 8.05 -0.7 8.0 -0.7 7.85 Q-0.75 7.7 -0.85 7.65 -0.75 7.65 -0.65 7.8 L-0.5 7.8 -0.5 7.7 -0.55 7.7 -0.8 7.45 -0.95 7.3 -1.0 7.25 -1.05 7.3 -1.45 7.3 -1.45 7.35 M-0.55 7.95 L-0.6 7.85 -0.65 7.9 Q-0.6 8.0 -0.6 8.05 L-0.55 8.15 -0.5 7.9 -0.55 7.95 M-0.25 8.25 L-0.25 8.3 -0.25 8.25 M-0.15 8.2 L-0.1 8.1 -0.05 8.1 -0.15 8.2 M-1.55 9.1 L-1.6 9.0 -1.75 9.0 -1.8 9.05 -1.8 9.1 -1.85 9.1 -1.95 9.2 -1.95 9.4 -2.0 9.25 -2.0 9.4 Q-2.0 9.55 -1.95 9.65 L-1.9 9.65 -1.85 9.7 -1.4 9.7 -1.35 9.75 -1.35 9.7 -1.2 9.7 -1.05 9.65 -0.9 9.65 -0.75 9.6 -0.65 9.5 -0.7 9.0 -0.7 8.95 -0.75 8.85 -0.75 8.75 -0.8 8.7 -0.8 8.6 -0.85 8.55 -1.05 8.55 -1.15 8.6 -1.2 8.65 -1.35 8.9 Q-1.3 8.9 -1.3 8.85 L-1.25 8.85 -1.25 8.75 Q-1.2 8.75 -1.15 8.85 L-1.15 8.9 -1.1 9.1 -1.05 9.15 -1.15 9.15 -1.5 9.05 -1.55 9.1 M-1.2 8.45 L-1.3 8.4 -1.35 8.65 -1.45 8.8 -1.35 8.8 -1.2 8.55 -1.15 8.4 -1.2 8.45 M-1.45 8.55 Q-1.4 8.45 -1.35 8.4 L-1.45 8.4 -1.45 8.5 -1.5 8.55 -1.5 8.7 -1.45 8.7 -1.45 8.55 M-0.6 8.4 L-0.6 8.35 -0.65 8.4 -0.6 8.4 M-0.7 8.7 L-0.7 8.7 M-1.55 7.5 L-1.5 7.5 -1.55 7.45 -1.55 7.5 M-1.65 7.4 L-1.65 7.45 -1.6 7.45 -1.65 7.4 M-2.15 9.15 Q-2.05 8.75 -2.05 8.65 L-2.05 8.6 -2.1 8.55 -2.15 8.6 -2.1 8.55 -2.15 8.65 Q-2.25 8.75 -2.35 9.05 L-2.4 9.35 -2.45 9.4 -2.45 9.8 -2.4 10.7 -2.25 11.5 -2.2 12.05 -2.15 12.05 -2.2 11.3 -2.2 10.05 -2.15 9.15 M-2.6 9.4 L-2.6 9.45 -2.55 9.4 -2.6 9.4 M-2.05 9.5 L-2.05 9.5 M-1.9 9.0 L-1.9 9.0 M-0.95 9.85 L-1.1 9.85 Q-1.15 9.85 -1.25 9.9 L-1.2 10.05 -1.2 10.15 -1.15 10.3 -1.05 10.4 -0.8 10.3 -0.8 10.05 Q-0.9 10.0 -0.9 9.85 L-0.95 9.85 M-1.3 9.8 L-1.25 9.8 -1.25 9.75 -1.3 9.8 M-0.8 10.55 L-0.8 10.5 -0.95 10.6 -0.85 10.8 Q-0.75 11.1 -0.75 11.2 L-0.75 11.25 Q-0.65 11.15 -0.35 11.05 L-0.05 10.9 Q0.2 10.8 0.6 10.8 L0.75 10.85 0.85 10.85 0.9 10.9 0.95 10.8 1.0 10.6 0.9 10.5 0.8 10.5 0.8 10.6 0.85 10.65 0.8 10.7 0.75 10.6 0.7 10.65 0.7 10.75 0.65 10.75 0.45 10.7 0.25 10.6 0.2 10.55 0.2 10.45 Q0.15 10.45 0.1 10.4 L0.1 10.35 0.05 10.25 0.0 10.35 -0.1 10.35 -0.05 10.4 -0.05 10.5 -0.2 10.55 -0.3 10.65 Q-0.35 10.75 -0.55 10.75 L-0.55 10.65 -0.7 10.65 -0.7 10.6 -0.75 10.7 -0.8 10.65 -0.8 10.55 M-0.8 10.4 L-0.8 10.4 M-0.85 11.35 L-0.8 11.55 -0.75 12.0 -0.75 12.15 -0.6 12.05 -0.4 11.95 Q-0.25 11.85 -0.15 11.8 L0.05 11.75 0.15 11.75 0.3 11.7 0.5 11.7 Q0.7 11.75 0.75 11.8 L0.8 11.85 0.8 11.6 Q0.8 11.45 0.85 11.3 L0.85 11.25 Q0.85 11.15 0.9 10.95 L0.8 10.9 0.5 10.85 Q0.15 10.85 -0.3 11.05 L-0.8 11.3 Q-0.75 11.35 -0.85 11.35 M0.65 12.75 L0.85 12.65 0.8 12.55 0.8 12.5 Q0.55 12.8 0.35 12.85 0.4 12.75 0.55 12.7 L0.7 12.55 0.65 12.5 Q0.65 12.45 0.75 12.4 L0.75 12.3 0.8 11.9 0.75 11.85 0.55 12.0 Q0.4 12.1 0.3 12.1 L0.0 12.1 -0.25 12.05 -0.4 12.0 -0.75 12.2 -0.75 12.55 -0.8 12.75 -0.7 12.9 -0.4 13.05 -0.3 13.15 Q-0.2 13.2 -0.1 13.2 L0.0 13.2 0.4 13.0 0.6 12.8 0.65 12.75 M-0.25 12.05 L0.15 12.1 Q0.35 12.1 0.5 11.95 L0.7 11.8 0.45 11.75 Q0.05 11.75 -0.35 12.0 L-0.25 12.05 M-0.7 12.7 Q-0.7 12.8 -0.5 12.9 L-0.65 12.8 -0.7 12.7 M-0.3 13.2 L-0.35 13.15 Q-0.4 13.1 -0.5 13.05 L-0.75 12.95 -0.75 13.2 Q-0.8 13.4 -0.9 13.7 L-0.95 13.75 -1.05 14.1 -1.1 14.2 Q-1.05 14.25 -1.0 14.25 L-0.95 14.25 -0.95 14.3 -0.9 14.3 -0.75 13.95 -0.65 13.65 -0.6 13.4 -0.55 13.45 -0.7 14.0 Q-0.75 14.35 -0.8 14.45 L-0.75 14.5 -0.8 14.55 -0.75 14.55 -0.7 14.5 -0.05 14.55 0.0 14.55 0.0 15.4 -0.05 15.4 -0.05 15.25 -0.05 15.2 -0.05 15.1 -0.1 15.1 Q-0.25 15.05 -0.4 14.85 L-0.65 14.6 -0.75 14.6 -0.7 14.7 -0.5 15.15 -0.15 15.75 0.0 15.9 0.05 15.9 0.2 15.75 0.45 15.2 Q0.3 15.4 0.1 15.5 L0.05 15.55 -0.05 15.6 -0.1 15.6 -0.1 15.55 -0.05 15.5 -0.15 15.5 -0.2 15.35 -0.15 15.3 -0.15 15.35 Q-0.1 15.4 0.0 15.45 L0.05 15.4 0.0 15.4 0.0 14.6 0.05 14.55 0.1 14.55 Q0.25 14.4 0.8 14.55 L0.85 14.55 0.75 14.5 0.85 14.45 Q0.8 14.35 0.7 14.0 L0.6 13.45 0.6 13.4 0.65 13.4 0.7 13.65 0.8 13.95 0.95 14.3 1.05 14.3 1.1 14.25 1.15 14.25 Q1.05 14.05 0.85 13.4 L0.75 13.1 0.75 12.8 0.7 12.8 Q0.6 12.85 0.35 13.05 0.05 13.25 0.0 13.25 L-0.15 13.25 -0.3 13.2 M-0.95 14.55 L-0.95 14.55 M-1.15 15.55 L-1.2 15.65 -1.05 15.8 Q-0.9 15.35 -0.85 14.9 L-0.85 14.85 -0.8 14.75 -0.85 14.55 -0.85 14.65 -0.9 15.0 Q-0.95 15.25 -1.0 15.35 L-1.0 15.3 -1.05 15.3 -1.05 14.95 -1.1 15.3 -1.1 15.4 -1.15 15.45 -1.15 15.55 M-0.75 15.75 L-0.75 16.0 -0.65 16.0 -0.55 15.95 -0.7 15.8 -0.75 15.6 -0.75 15.75 M-0.15 15.3 Q-0.15 15.25 -0.15 15.3 M0.5 5.0 L0.5 5.0 M1.5 6.3 L1.3 6.35 1.2 6.35 1.15 6.4 1.1 6.4 1.1 6.35 0.85 5.95 0.85 6.05 Q0.8 6.15 0.8 6.35 0.8 6.5 0.8 6.55 L0.75 6.6 0.8 6.6 0.6 6.75 Q0.55 6.75 0.5 6.8 L0.5 6.65 0.4 6.55 0.45 6.85 0.45 6.9 0.4 6.95 Q0.35 6.95 0.35 7.0 L0.35 7.2 Q0.5 7.05 0.85 6.8 L0.85 6.75 Q1.3 6.45 1.7 6.45 L1.7 6.35 Q1.7 6.05 1.9 5.6 L1.95 5.5 1.9 5.5 1.95 5.45 1.95 5.4 1.85 5.55 Q1.75 5.7 1.6 6.05 L1.5 6.25 1.5 6.3 M0.3 6.3 L0.3 6.45 0.25 6.3 0.3 6.4 0.35 6.8 0.35 6.45 0.4 6.45 0.4 6.5 0.5 6.6 Q0.55 6.55 0.6 6.5 L0.7 6.45 0.65 6.3 0.65 6.1 0.6 5.85 0.55 5.75 0.5 5.35 0.45 5.45 0.45 5.55 0.4 5.8 Q0.35 5.95 0.3 6.3 M0.9 6.95 Q0.75 7.1 0.65 7.25 L0.6 7.35 Q0.75 7.35 0.95 7.2 0.9 7.1 0.9 6.95 M1.55 7.5 L1.55 7.5 M1.65 7.4 L1.6 7.45 1.65 7.45 1.65 7.4 M1.6 8.2 L1.5 8.35 1.15 8.2 1.1 8.2 1.0 8.05 Q0.95 7.95 1.3 7.6 L1.5 7.4 Q1.3 7.4 1.15 7.3 L1.05 7.25 0.6 7.7 0.55 7.7 0.5 7.75 0.5 7.8 0.7 7.8 Q0.75 7.65 0.85 7.65 L0.9 7.65 Q0.75 7.7 0.7 7.85 L0.75 7.85 0.75 7.9 0.7 8.0 0.7 8.05 0.65 8.05 0.65 8.2 0.9 8.2 1.05 8.2 1.15 8.3 1.5 8.35 1.6 8.25 1.6 8.2 M1.5 8.4 L1.4 8.4 Q1.45 8.45 1.5 8.55 L1.5 8.65 1.55 8.55 1.5 8.5 1.5 8.4 M2.2 8.65 L2.2 8.7 Q2.25 9.15 2.25 10.05 L2.25 11.3 2.2 12.05 2.3 11.5 2.4 10.7 2.5 9.8 2.5 9.45 2.4 9.25 2.4 9.3 2.35 9.1 2.25 8.75 2.2 8.65 M0.4 7.3 L0.4 7.3 M0.55 7.9 L0.6 8.15 0.6 8.05 Q0.6 8.0 0.65 7.9 L0.65 7.85 0.6 7.95 0.55 7.9 M0.1 8.1 L0.1 8.1 M0.85 8.6 L0.8 8.7 0.8 8.75 0.75 8.8 0.75 9.0 Q0.75 9.25 0.7 9.5 L0.75 9.6 0.85 9.6 0.95 9.65 1.05 9.65 1.2 9.7 1.3 9.7 1.4 9.75 1.5 9.75 1.55 9.7 1.7 9.7 1.9 9.65 2.0 9.65 Q2.05 9.55 2.05 9.4 L2.05 9.25 2.0 9.4 2.0 9.2 1.85 9.1 1.8 9.05 1.8 9.0 1.65 9.0 1.6 9.1 1.6 9.05 Q1.35 9.1 1.25 9.15 L1.1 9.15 Q1.1 9.1 1.15 9.0 L1.2 8.85 1.2 8.8 1.25 8.75 1.25 8.85 1.3 8.85 Q1.35 8.9 1.4 8.9 L1.25 8.65 1.2 8.6 1.05 8.55 0.9 8.55 0.85 8.6 M0.75 8.7 L0.75 8.7 M1.2 8.4 L1.25 8.55 1.4 8.8 1.45 8.8 Q1.4 8.75 1.4 8.65 L1.35 8.4 1.3 8.4 1.2 8.45 1.2 8.4 M1.3 9.9 Q1.2 9.85 1.1 9.85 L0.95 9.85 Q0.95 10.0 0.85 10.05 L0.8 10.1 0.8 10.2 0.85 10.25 0.85 10.3 1.1 10.4 1.2 10.4 Q1.2 10.3 1.25 10.05 L1.3 9.9 M1.3 9.8 L1.3 9.8 M1.9 9.0 L1.9 9.05 1.95 9.05 1.9 9.0 M2.1 9.05 L2.1 9.05 M2.1 9.55 L2.1 9.55 M0.9 14.55 L0.85 14.75 0.9 14.85 0.9 14.9 Q0.95 15.35 1.1 15.8 L1.15 15.75 1.15 15.7 1.2 15.65 1.2 15.5 1.15 15.4 1.15 15.3 1.05 14.95 1.1 15.2 1.05 15.35 Q1.0 15.3 0.95 15.0 L0.9 14.65 0.9 14.55 M1.0 14.4 L1.0 14.4 M1.0 14.55 L1.0 14.55 M0.8 14.6 L0.7 14.6 0.45 14.85 Q0.25 15.05 0.1 15.1 L0.1 15.35 0.35 15.05 Q0.6 14.75 0.75 14.65 L0.8 14.6 M0.75 16.05 L0.7 15.8 0.5 16.05 0.7 16.15 0.75 16.15 0.75 16.05" fill="#00bfff" fill-opacity="0.15686275" fill-rule="evenodd" stroke="none"/>
      <path d="M0.1 -16.2 L0.2 -15.75 Q0.35 -15.15 0.35 -14.65 L0.35 -14.35 0.3 -14.0 0.35 -13.8 0.3 -13.55 0.3 0.5 Q0.3 2.25 0.3 3.45 L0.35 3.75 0.35 4.15 Q0.35 4.75 0.4 5.25 L0.25 6.05 0.25 6.0 0.2 6.05 0.15 5.8 0.1 5.6 0.1 -4.45 0.05 -4.45 0.05 -16.3 0.1 -16.2 M-1.9 5.8 L-1.85 5.95 -1.85 5.9 -1.9 5.8 M-1.7 6.35 L-1.6 6.45 -1.55 6.35 -1.7 5.9 -1.65 6.0 Q-1.55 6.15 -1.45 6.3 L-1.4 6.3 -1.35 6.35 -1.35 6.3 -1.25 6.35 -1.15 6.35 -1.1 6.4 -1.1 6.45 Q-1.0 6.35 -0.9 6.2 -0.8 6.1 -0.8 6.0 L-0.9 6.1 -0.8 5.9 -0.8 6.55 Q-0.75 6.55 -0.7 6.6 L-0.75 6.6 -0.6 6.75 Q-0.55 6.75 -0.5 6.8 L-0.5 6.7 -0.35 6.55 -0.4 6.85 -0.45 6.9 -0.4 6.9 -0.3 7.0 -0.35 7.2 Q-0.4 7.0 -0.9 6.65 -1.4 6.35 -1.65 6.45 L-1.7 6.35 M-0.4 5.75 L-0.3 6.1 -0.25 6.45 -0.25 6.4 -0.3 6.7 -0.35 6.45 -0.35 6.5 -0.45 6.55 -0.6 6.45 -0.7 6.45 -0.6 6.3 -0.6 6.25 -0.5 5.6 -0.45 5.4 -0.45 5.45 -0.55 5.9 -0.6 6.35 Q-0.6 6.45 -0.55 6.5 L-0.45 6.45 -0.4 6.05 -0.4 5.75 M-0.85 6.95 Q-0.8 7.0 -0.6 7.2 L-0.5 7.3 -0.5 7.35 -0.55 7.35 Q-0.7 7.35 -0.9 7.2 -0.85 7.1 -0.85 6.95 M0.0 6.5 L0.0 6.95 -0.05 7.05 -0.1 7.35 -0.25 7.95 -0.15 7.8 -0.05 7.75 -0.05 7.7 0.0 7.75 -0.2 7.9 -0.3 8.1 Q-0.25 8.1 -0.25 8.15 L-0.25 8.25 -0.25 8.3 -0.2 8.3 -0.15 8.2 -0.05 8.1 -0.1 8.1 -0.05 8.05 0.0 7.95 0.0 8.2 0.0 8.65 -0.05 8.8 -0.05 8.95 -0.35 8.9 -0.15 9.1 Q0.0 9.2 0.0 9.3 0.0 9.5 -0.1 9.8 L-0.2 10.1 -0.3 10.05 -0.3 9.95 -0.35 9.85 -0.45 9.75 Q-0.4 9.85 -0.35 10.25 L-0.35 10.3 -0.4 10.4 -0.5 10.5 Q-0.6 10.55 -0.65 10.55 L-0.7 10.55 -0.7 10.45 -0.75 10.45 -0.7 10.2 -0.7 9.8 -0.65 9.75 -0.6 9.65 Q-0.55 9.6 -0.55 9.45 L-0.6 9.4 -0.55 9.25 -0.5 9.0 -0.45 8.9 -0.45 8.85 Q-0.45 8.9 -0.45 8.85 L-0.35 8.85 -0.2 8.5 -0.15 8.55 -0.15 8.6 -0.1 8.7 -0.05 8.55 -0.1 8.35 0.0 8.2 Q-0.1 8.15 -0.15 8.25 L-0.35 8.55 -0.3 8.5 -0.3 8.35 -0.35 8.35 Q-0.35 8.45 -0.35 8.5 L-0.4 8.6 -0.4 8.65 -0.5 8.7 -0.6 8.7 -0.65 8.6 -0.6 8.4 -0.55 8.35 -0.5 8.2 -0.5 8.05 -0.5 8.2 Q-0.4 8.05 -0.2 7.3 0.0 6.6 0.0 6.5 M0.05 7.8 Q0.05 7.75 0.05 7.7 L0.1 7.7 0.1 7.75 0.2 7.8 0.3 7.95 0.15 7.35 0.05 7.05 0.1 7.05 0.1 7.0 0.05 7.0 0.05 6.5 Q0.1 6.65 0.15 7.0 L0.25 7.25 0.3 7.55 Q0.3 7.7 0.4 8.1 0.55 8.5 0.6 8.6 L0.65 8.55 0.65 8.7 0.5 8.7 0.45 8.65 0.45 8.6 0.4 8.5 0.35 8.35 0.35 8.5 0.5 8.8 0.5 8.9 0.55 9.0 0.6 9.25 0.6 9.45 Q0.6 9.6 0.65 9.65 L0.65 9.75 Q0.7 9.75 0.75 9.8 L0.75 9.95 0.8 10.25 0.75 10.35 0.75 10.4 0.8 10.5 0.75 10.55 0.6 10.55 0.45 10.45 0.4 10.35 0.3 10.35 0.4 10.2 0.45 9.95 0.45 9.85 0.35 10.0 0.35 10.05 0.25 10.1 0.15 9.8 Q0.05 9.5 0.05 9.3 L0.1 9.3 0.3 9.15 0.45 9.05 Q0.35 9.0 0.3 9.0 L0.4 8.9 0.35 8.9 0.15 8.95 0.1 8.9 0.05 8.9 0.05 7.8 M0.05 6.4 L0.05 6.35 0.1 6.3 0.15 6.35 0.15 6.5 0.3 7.1 Q0.15 6.55 0.05 6.4 M-0.45 7.95 L-0.45 7.75 -0.4 7.5 -0.3 7.25 -0.1 6.3 -0.05 6.3 -0.05 6.25 0.0 6.4 Q-0.1 6.5 -0.2 6.8 L-0.3 7.3 -0.45 7.95 M-0.8 7.45 L-0.55 7.7 -0.5 7.7 -0.5 7.8 -0.65 7.8 Q-0.75 7.65 -0.85 7.65 -0.75 7.7 -0.7 7.85 L-0.7 8.0 -0.65 8.05 -0.6 8.05 -0.6 8.2 -0.85 8.2 -1.0 8.2 -1.1 8.3 -1.45 8.35 -1.6 8.2 -1.55 8.2 -1.45 8.35 Q-1.2 8.25 -1.1 8.2 L-1.05 8.2 -0.95 8.05 Q-0.95 7.95 -1.25 7.6 L-1.45 7.4 -1.5 7.4 -1.45 7.35 -1.45 7.4 -1.4 7.45 -1.2 7.6 -1.05 7.7 -1.0 7.65 -0.95 7.55 -0.95 7.5 -1.0 7.5 -0.95 7.45 -0.85 7.55 -0.8 7.5 -0.8 7.45 M-1.05 7.3 L-1.0 7.25 -0.95 7.3 -1.05 7.3 M-0.55 7.95 L-0.5 7.9 -0.55 8.15 -0.6 8.05 Q-0.6 8.0 -0.65 7.9 L-0.6 7.85 -0.55 7.95 M-1.05 9.15 L-1.1 9.1 -1.15 8.9 -1.15 8.85 Q-1.2 8.75 -1.25 8.75 L-1.25 8.85 -1.3 8.85 Q-1.3 8.9 -1.35 8.9 L-1.2 8.65 -1.15 8.6 -1.05 8.55 -0.85 8.55 -0.8 8.6 -0.8 8.7 -0.75 8.75 -0.75 8.85 -0.7 8.95 -0.7 9.0 -0.65 9.5 -0.75 9.6 -0.9 9.65 -1.05 9.65 -1.2 9.7 -1.35 9.7 -1.35 9.75 -1.4 9.7 -1.85 9.7 -1.9 9.65 -1.95 9.65 Q-2.0 9.55 -2.0 9.4 L-2.0 9.25 -1.95 9.4 -1.95 9.2 -1.85 9.1 -1.8 9.1 -1.8 9.05 -1.75 9.0 -1.6 9.0 -1.55 9.1 Q-1.6 9.1 -1.55 9.1 L-1.5 9.15 Q-1.6 9.1 -1.75 9.1 -1.9 9.1 -1.9 9.3 L-1.9 9.35 -1.85 9.35 -1.85 9.3 Q-1.85 9.25 -1.75 9.25 L-1.65 9.3 -1.55 9.3 -1.45 9.2 -1.0 9.3 -0.95 9.3 -0.95 9.25 Q-0.9 9.3 -0.9 9.2 -0.9 9.1 -1.0 8.8 L-0.8 8.7 -0.85 8.65 -1.0 8.6 Q-1.1 8.6 -1.1 8.65 L-1.05 8.9 -1.05 9.15 M-1.2 8.45 L-1.15 8.4 -1.2 8.55 -1.35 8.8 -1.45 8.8 -1.35 8.65 -1.3 8.4 -1.2 8.45 M-1.45 8.55 L-1.45 8.7 -1.5 8.7 -1.5 8.55 -1.45 8.5 -1.45 8.4 -1.35 8.4 Q-1.4 8.45 -1.45 8.55 M-2.15 8.6 L-2.15 8.65 -2.1 8.55 -2.15 8.6 M-2.4 9.35 L-2.45 9.65 -2.4 10.0 Q-2.4 10.15 -2.3 10.35 L-2.25 10.05 -2.25 9.35 -2.15 9.15 -2.2 10.05 -2.2 11.3 -2.15 12.05 -2.2 12.05 -2.25 11.5 -2.4 10.7 -2.45 9.8 -2.45 9.4 -2.4 9.35 M-0.1 9.5 L-0.05 9.35 Q-0.05 9.3 -0.25 9.25 L-0.3 9.9 Q-0.25 9.95 -0.15 9.9 -0.15 9.85 -0.15 9.8 L-0.2 9.7 Q-0.15 9.65 -0.15 9.55 L-0.1 9.5 M-0.35 9.15 Q-0.3 9.25 -0.2 9.25 L-0.15 9.2 -0.15 9.25 -0.05 9.35 0.0 9.35 Q-0.1 9.2 -0.15 9.15 L-0.2 9.1 Q-0.3 9.05 -0.35 9.05 L-0.35 9.15 M-0.95 9.85 L-0.9 9.85 Q-0.9 10.0 -0.8 10.05 L-0.8 10.3 -1.05 10.4 -1.15 10.3 -1.2 10.15 -1.2 10.05 -1.25 9.9 Q-1.15 9.85 -1.1 9.85 L-0.95 9.85 M-0.8 10.55 L-0.8 10.65 -0.75 10.7 -0.7 10.6 -0.7 10.65 -0.55 10.65 -0.55 10.75 Q-0.35 10.75 -0.3 10.65 L-0.2 10.55 -0.05 10.5 -0.05 10.4 -0.1 10.35 0.0 10.35 0.05 10.25 0.1 10.35 0.1 10.4 Q0.15 10.45 0.2 10.45 L0.2 10.55 0.25 10.6 0.45 10.7 0.65 10.75 0.7 10.75 0.7 10.65 0.75 10.6 0.8 10.7 0.85 10.65 0.8 10.6 0.8 10.5 0.9 10.5 1.0 10.6 0.95 10.8 0.9 10.9 0.85 10.85 0.75 10.85 0.6 10.8 Q0.2 10.8 -0.05 10.9 L-0.35 11.05 Q-0.65 11.15 -0.75 11.25 L-0.75 11.2 Q-0.75 11.1 -0.85 10.8 L-0.95 10.6 -0.8 10.5 -0.8 10.55 M-0.65 11.3 L-0.6 11.35 -0.55 11.35 -0.45 11.3 -0.45 11.35 Q-0.4 11.4 -0.4 11.45 L-0.4 11.5 -0.45 11.55 -0.35 11.55 -0.35 11.7 Q-0.2 11.65 -0.15 11.6 L-0.15 11.4 -0.1 11.35 -0.05 11.15 0.15 11.1 0.2 11.05 0.35 11.0 0.55 10.95 0.45 10.9 -0.15 11.05 Q-0.65 11.2 -0.65 11.3 M-0.2 10.8 L-0.3 10.8 -0.35 10.9 -0.45 10.95 Q-0.45 11.05 -0.35 11.0 -0.15 10.95 -0.15 10.85 L-0.2 10.8 M0.6 12.8 L0.4 13.0 0.0 13.2 -0.1 13.2 Q-0.2 13.2 -0.3 13.15 L-0.4 13.05 -0.7 12.9 -0.8 12.75 -0.75 12.55 -0.75 12.2 -0.4 12.0 -0.25 12.05 0.0 12.1 0.3 12.1 Q0.4 12.1 0.55 12.0 L0.75 11.85 0.8 11.9 0.75 12.3 0.75 12.4 Q0.65 12.45 0.65 12.5 L0.7 12.55 0.55 12.7 Q0.4 12.75 0.35 12.85 0.55 12.8 0.8 12.5 L0.8 12.55 0.85 12.65 0.65 12.75 0.7 12.65 Q0.65 12.7 0.45 12.85 L0.1 13.1 0.15 13.1 0.5 12.9 0.6 12.8 M-0.85 11.35 Q-0.75 11.35 -0.8 11.3 L-0.3 11.05 Q0.15 10.85 0.5 10.85 L0.8 10.9 0.9 10.95 Q0.85 11.15 0.85 11.25 L0.85 11.3 Q0.8 11.45 0.8 11.6 L0.8 11.85 0.75 11.8 Q0.7 11.75 0.5 11.7 L0.3 11.7 0.15 11.75 0.05 11.75 -0.15 11.8 Q-0.25 11.85 -0.4 11.95 L-0.6 12.05 -0.75 12.15 -0.75 12.0 -0.8 11.55 -0.85 11.35 M-0.25 12.05 L-0.35 12.0 Q0.05 11.75 0.45 11.75 L0.7 11.8 0.5 11.95 Q0.35 12.1 0.15 12.1 L-0.25 12.05 M-0.05 12.1 L-0.25 12.1 Q-0.3 12.15 -0.3 12.25 L-0.25 12.4 -0.15 12.55 Q-0.25 12.6 -0.25 12.8 L-0.25 12.95 -0.2 12.9 -0.15 12.75 -0.1 12.75 Q-0.1 12.7 -0.15 12.65 -0.1 12.6 -0.1 12.5 L0.0 12.3 0.0 12.25 0.05 12.2 -0.05 12.1 M-0.15 11.95 L-0.25 12.0 -0.15 12.05 0.05 11.95 0.0 11.9 -0.15 11.9 -0.15 11.95 M-0.7 14.5 L-0.75 14.55 -0.8 14.55 -0.75 14.5 -0.8 14.45 Q-0.75 14.35 -0.7 14.0 L-0.55 13.45 -0.6 13.4 -0.65 13.65 -0.75 13.95 -0.9 14.3 -0.95 14.3 -0.95 14.25 -1.0 14.25 Q-1.05 14.25 -1.1 14.2 L-1.05 14.1 -0.95 13.75 -0.9 13.7 Q-0.8 13.4 -0.75 13.2 L-0.75 12.95 -0.5 13.05 Q-0.4 13.1 -0.35 13.15 L-0.3 13.2 -0.35 13.25 -0.35 13.3 -0.3 13.45 -0.3 13.5 -0.2 13.6 0.0 13.35 Q-0.1 13.3 -0.15 13.25 L0.0 13.25 Q0.05 13.25 0.35 13.05 0.6 12.85 0.7 12.8 L0.75 12.8 0.75 13.1 0.85 13.4 Q1.05 14.05 1.15 14.25 L1.1 14.25 1.05 14.3 0.95 14.3 0.8 13.95 0.7 13.65 0.65 13.4 0.6 13.4 0.6 13.45 0.7 14.0 Q0.8 14.35 0.85 14.45 L0.75 14.5 0.85 14.55 0.8 14.55 Q0.25 14.4 0.1 14.55 L0.05 14.55 0.0 14.6 0.0 15.4 0.05 15.4 0.0 15.45 Q-0.1 15.4 -0.15 15.35 L-0.15 15.3 -0.05 15.25 -0.05 15.4 0.0 15.4 0.0 14.55 -0.05 14.55 -0.7 14.5 -0.55 14.25 -0.45 14.0 -0.4 13.6 -0.45 13.4 Q-0.6 13.65 -0.75 14.4 -0.75 14.5 -0.7 14.5 M-0.7 12.7 L-0.65 12.8 -0.5 12.9 Q-0.7 12.8 -0.7 12.7 M-0.95 13.85 L-1.05 14.15 -1.05 14.2 -0.9 14.2 Q-0.8 14.0 -0.75 13.65 L-0.65 13.15 -0.75 13.3 -0.8 13.55 -0.95 13.85 M-0.1 15.6 L-0.05 15.6 0.05 15.55 0.1 15.5 Q0.3 15.4 0.45 15.2 L0.2 15.75 0.05 15.9 0.0 15.9 -0.15 15.75 -0.5 15.15 -0.7 14.7 -0.75 14.6 -0.65 14.6 -0.4 14.85 Q-0.25 15.05 -0.1 15.1 L-0.05 15.1 -0.05 15.2 Q-0.2 15.05 -0.45 15.05 L-0.45 15.15 -0.35 15.25 -0.25 15.4 -0.2 15.4 -0.2 15.35 -0.15 15.5 -0.05 15.5 -0.1 15.55 Q-0.15 15.5 -0.25 15.5 -0.25 15.65 -0.1 15.75 -0.05 15.75 -0.05 15.7 -0.05 15.65 -0.1 15.6 M-1.0 15.35 Q-0.95 15.25 -0.9 15.0 L-0.85 14.65 -0.85 14.55 -0.8 14.75 -0.85 14.85 -0.85 14.9 Q-0.9 15.35 -1.05 15.8 L-1.2 15.65 -1.15 15.55 -1.15 15.65 -1.1 15.65 Q-1.05 15.65 -1.0 15.5 L-1.0 15.35 M-1.1 15.4 L-1.1 15.3 -1.05 14.95 -1.05 15.3 -1.1 15.4 M-0.75 15.75 L-0.75 15.6 -0.7 15.8 -0.55 15.95 -0.65 16.0 -0.75 16.0 -0.75 15.75 M-0.15 15.3 L-0.2 15.35 -0.2 15.3 -0.15 15.3 M0.85 6.05 L0.85 5.95 1.1 6.35 1.1 6.4 1.15 6.4 1.2 6.35 1.3 6.35 1.5 6.3 Q1.5 6.4 1.5 6.35 1.65 6.2 1.75 5.95 L1.9 5.6 Q1.7 6.05 1.7 6.35 L1.7 6.45 Q1.3 6.45 0.85 6.75 L0.85 6.8 Q0.5 7.05 0.35 7.2 L0.35 7.0 Q0.35 6.95 0.4 6.95 L0.45 6.9 0.45 6.85 0.4 6.55 0.5 6.65 0.5 6.8 Q0.55 6.75 0.6 6.75 L0.8 6.6 0.75 6.6 0.8 6.55 0.85 6.55 0.95 6.3 0.9 6.15 0.85 6.05 M1.5 6.3 L1.5 6.25 1.6 6.05 1.5 6.3 M1.85 5.55 L1.95 5.4 1.95 5.45 1.9 5.5 1.85 5.55 M0.4 5.8 L0.45 5.55 0.45 5.45 0.5 5.35 0.55 5.75 0.6 5.85 0.65 6.1 0.65 6.3 0.7 6.45 0.6 6.5 Q0.55 6.55 0.5 6.6 L0.4 6.5 0.4 6.45 0.35 6.45 0.35 6.8 0.3 6.4 0.25 6.3 0.3 6.45 0.3 6.3 0.35 6.35 Q0.45 6.25 0.45 6.05 L0.45 5.75 0.4 5.8 M0.9 6.95 Q0.9 7.1 0.95 7.2 0.75 7.35 0.6 7.35 L0.65 7.25 Q0.75 7.1 0.9 6.95 M1.6 8.2 L1.6 8.25 1.5 8.35 1.15 8.3 1.05 8.2 0.9 8.2 0.65 8.2 0.65 8.05 0.7 8.05 0.7 8.0 0.75 7.9 0.75 7.85 0.7 7.85 Q0.75 7.7 0.9 7.65 L0.85 7.65 Q0.75 7.65 0.7 7.8 L0.5 7.8 0.5 7.75 0.55 7.7 0.6 7.7 1.05 7.25 1.15 7.3 Q1.3 7.4 1.5 7.4 L1.3 7.6 Q0.95 7.95 1.0 8.05 L1.1 8.2 1.15 8.2 1.5 8.35 1.6 8.2 M2.2 8.65 L2.25 8.75 2.35 9.1 2.4 9.3 2.4 9.25 2.5 9.45 2.5 9.8 2.4 10.7 2.3 11.5 2.2 12.05 2.25 11.3 2.25 10.05 Q2.25 9.15 2.2 8.7 L2.2 8.65 M1.5 8.4 L1.5 8.5 1.55 8.55 1.5 8.65 1.5 8.55 Q1.45 8.45 1.4 8.4 L1.5 8.4 M1.25 7.35 L1.05 7.35 Q0.95 7.4 0.95 7.5 L1.05 7.6 Q1.25 7.5 1.25 7.45 L1.25 7.35 M0.55 7.9 L0.6 7.95 0.65 7.85 0.65 7.9 Q0.6 8.0 0.6 8.05 L0.6 8.15 0.55 7.9 M0.85 8.6 L0.9 8.55 1.05 8.55 1.2 8.6 1.25 8.65 1.4 8.9 Q1.35 8.9 1.3 8.85 L1.25 8.85 1.25 8.75 1.2 8.8 1.2 8.85 1.15 9.0 Q1.1 9.1 1.1 9.15 L1.25 9.15 Q1.35 9.1 1.6 9.05 L1.6 9.1 1.65 9.0 1.8 9.0 1.8 9.05 1.85 9.1 2.0 9.2 2.0 9.4 2.05 9.25 2.05 9.4 Q2.05 9.55 2.0 9.65 L1.9 9.65 1.7 9.7 1.55 9.7 1.5 9.75 1.4 9.75 1.3 9.7 1.2 9.7 1.05 9.65 0.95 9.65 0.85 9.6 0.75 9.6 0.7 9.5 Q0.75 9.25 0.75 9.0 L0.75 8.8 0.8 8.75 0.8 8.7 0.85 8.6 M0.1 8.1 L0.1 8.1 M1.15 8.6 Q0.9 8.5 0.8 8.75 0.75 8.9 0.75 9.2 L0.75 9.3 0.8 9.3 0.85 8.95 Q0.9 8.85 1.05 8.8 1.15 8.75 1.15 8.7 L1.15 8.6 M1.2 8.4 L1.2 8.45 1.3 8.4 1.35 8.4 1.4 8.65 Q1.4 8.75 1.45 8.8 L1.4 8.8 1.25 8.55 1.2 8.4 M1.45 9.1 Q1.35 9.1 1.25 9.15 L1.2 9.25 Q1.2 9.35 1.25 9.35 L1.35 9.4 Q1.45 9.4 1.65 9.2 L1.6 9.15 1.45 9.1 M1.3 9.9 L1.25 10.05 Q1.2 10.3 1.2 10.4 L1.1 10.4 0.85 10.3 0.85 10.25 0.8 10.2 0.8 10.1 0.85 10.05 Q0.95 10.0 0.95 9.85 L1.1 9.85 Q1.2 9.85 1.3 9.9 M0.55 14.05 L0.45 13.75 0.45 13.8 Q0.4 13.8 0.4 13.85 0.4 13.95 0.35 14.0 0.25 14.05 0.25 14.2 0.2 14.4 0.4 14.4 0.6 14.4 0.6 14.3 L0.55 14.05 M0.9 14.55 L0.9 14.65 0.95 15.0 Q1.0 15.3 1.05 15.35 L1.1 15.2 1.05 14.95 1.15 15.3 1.15 15.4 1.2 15.5 1.2 15.65 1.15 15.7 1.15 15.75 1.1 15.8 Q0.95 15.35 0.9 14.9 L0.9 14.85 0.85 14.75 0.9 14.55 M0.75 16.05 L0.75 16.15 0.7 16.15 0.5 16.05 0.7 15.8 0.75 16.05 M0.8 14.6 L0.75 14.65 Q0.6 14.75 0.35 15.05 L0.1 15.35 0.1 15.1 Q0.25 15.05 0.45 14.85 L0.7 14.6 0.8 14.6" fill="#00ffff" fill-opacity="0.8" fill-rule="evenodd" stroke="none"/>
    </g>
    <g id="shape4" transform="matrix(1.0, 0.0, 0.0, 1.0, 1.85, 14.45)">
      <path d="M1.05 -14.15 L1.2 -13.45 1.2 -13.35 1.3 -13.1 1.3 -12.85 Q1.3 -12.6 1.3 -12.5 L1.45 -12.3 1.6 -12.05 Q1.75 -12.0 1.75 -11.75 1.75 -11.65 1.7 -11.4 L1.65 -11.1 1.6 -11.1 Q1.6 -11.0 1.6 -10.8 L1.6 -10.4 1.55 -9.7 Q1.45 -9.0 1.15 -9.0 L1.1 -9.0 0.8 -8.7 0.75 -8.6 0.7 -8.55 0.6 -8.55 Q0.5 -8.55 0.45 -8.65 L0.45 -8.75 Q0.5 -9.1 0.6 -9.4 0.65 -9.65 0.75 -10.0 L0.8 -10.0 0.8 -10.05 0.75 -10.8 0.7 -10.75 Q0.55 -10.55 0.25 -10.5 0.2 -10.5 0.15 -10.55 -0.2 -10.8 -0.4 -11.25 L-0.6 -11.7 -0.7 -11.25 -0.65 -11.0 -0.65 -10.95 -0.75 -10.45 -0.7 -10.15 Q-0.75 -9.75 -0.7 -9.7 L-0.55 -9.65 -0.5 -9.65 -0.45 -9.6 -0.3 -9.3 Q-0.2 -9.1 -0.2 -8.9 -0.2 -8.65 -0.35 -8.65 L-0.4 -8.65 -0.5 -8.7 -0.5 -8.75 Q-0.6 -8.8 -0.65 -9.05 L-0.7 -9.3 -0.7 -9.25 -0.75 -9.25 Q-1.0 -9.1 -1.1 -9.1 -1.3 -9.1 -1.45 -9.8 -1.55 -10.35 -1.55 -10.45 -1.55 -10.7 -1.35 -11.2 L-1.1 -11.85 -1.05 -11.9 -0.9 -12.5 -0.8 -12.6 -0.65 -12.6 -0.55 -12.55 -0.3 -12.2 -0.3 -12.15 Q-0.05 -11.85 0.0 -11.7 L0.0 -11.65 Q0.1 -11.4 0.15 -11.25 L0.2 -11.25 Q0.25 -11.15 0.4 -11.05 L0.5 -11.3 Q0.75 -11.7 0.85 -11.7 L0.8 -11.95 0.75 -12.0 0.75 -11.95 Q0.7 -11.9 0.65 -11.9 L0.55 -11.95 0.45 -12.05 0.45 -12.25 0.4 -12.4 0.4 -12.55 0.45 -12.6 0.45 -12.7 0.5 -12.75 0.55 -13.05 0.55 -13.25 0.45 -13.6 0.45 -14.05 0.5 -14.15 0.55 -14.15 Q0.65 -14.4 0.7 -14.45 0.85 -14.5 0.95 -14.35 L1.05 -14.15 M1.2 -10.2 L1.15 -9.95 1.15 -9.8 Q1.15 -9.65 1.05 -9.45 1.1 -9.45 1.1 -9.5 L1.15 -9.6 1.15 -9.65 1.2 -10.2 M1.2 -10.95 L1.2 -11.25 1.1 -11.25 1.2 -10.95 M1.2 -12.0 L1.25 -12.0 1.2 -12.05 1.2 -12.0 M0.7 -12.75 L0.7 -12.75 M1.4 10.15 L1.45 10.15 Q1.5 10.15 1.55 10.2 L1.6 10.25 1.6 10.4 1.65 10.45 1.75 10.5 1.95 10.3 2.0 10.2 2.05 10.15 2.15 10.15 2.25 10.2 Q2.3 10.3 2.3 10.5 L2.3 10.55 2.25 10.65 2.1 10.65 1.85 10.85 1.8 10.85 Q1.4 10.8 1.35 10.65 L1.3 10.6 1.3 10.5 1.25 10.45 1.2 10.45 1.2 10.35 Q1.25 10.2 1.4 10.15 M-0.85 -7.35 L-0.85 -7.3 -0.8 -7.3 -0.85 -7.25 -0.95 -7.3 -0.95 -7.35 -0.85 -7.35 M-1.35 -7.65 L-1.35 -7.55 -1.4 -7.6 -1.35 -7.75 -1.35 -7.65 M-1.0 -7.65 L-1.1 -7.45 -1.15 -7.4 -1.15 -7.65 -1.0 -7.65 M-1.05 -8.1 L-1.05 -8.1 M-1.6 -7.4 L-1.65 -7.4 -1.7 -7.5 -1.6 -7.45 -1.6 -7.4 M-1.55 -7.3 L-1.65 -7.3 -1.65 -7.35 -1.5 -7.35 -1.55 -7.3 M-1.55 -7.75 L-1.55 -7.75 -1.7 -7.7 -1.7 -7.75 -1.55 -7.75 M-1.1 -10.7 L-1.1 -10.9 -1.25 -10.45 -1.05 -9.55 -0.95 -9.55 Q-1.0 -9.75 -1.05 -10.05 L-1.05 -10.15 -1.1 -10.35 -1.1 -10.7" fill="#00ffff" fill-opacity="0.4" fill-rule="evenodd" stroke="none"/>
      <path d="M0.95 -9.75 L0.95 -9.85 0.9 -9.65 0.95 -9.75 M0.85 -12.25 L0.95 -12.15 1.0 -11.9 1.0 -12.0 0.95 -12.2 0.85 -12.25 M1.05 -13.4 L0.85 -13.7 0.75 -13.45 0.75 -13.0 0.65 -12.75 0.65 -12.7 Q0.75 -12.7 0.8 -12.9 L0.85 -13.25 1.0 -12.85 Q1.05 -12.65 1.05 -12.35 L1.05 -12.3 1.1 -11.85 1.3 -11.85 1.45 -11.95 1.4 -12.05 1.2 -12.25 Q1.1 -12.3 1.1 -12.45 L1.1 -13.2 1.05 -13.4 M1.05 -13.45 L1.1 -13.3 1.15 -13.05 1.15 -12.85 Q1.1 -12.55 1.15 -12.45 L1.55 -11.95 Q1.6 -11.95 1.6 -11.75 L1.55 -11.45 1.5 -11.1 1.45 -10.8 1.45 -10.45 1.4 -9.75 Q1.35 -9.15 1.15 -9.15 1.1 -9.15 1.05 -9.2 L0.85 -8.95 Q0.7 -8.8 0.65 -8.8 L0.65 -8.7 0.6 -8.7 0.6 -8.75 Q0.65 -9.1 0.75 -9.4 0.75 -9.6 0.9 -9.95 L0.95 -10.05 Q0.95 -10.75 0.85 -11.0 0.7 -10.95 0.6 -10.8 0.5 -10.7 0.2 -10.65 -0.05 -10.9 -0.25 -11.3 L-0.7 -12.1 -0.85 -11.25 Q-0.8 -11.05 -0.8 -11.0 L-0.9 -10.4 -0.85 -10.15 Q-0.9 -9.65 -0.75 -9.6 L-0.55 -9.55 -0.45 -9.25 Q-0.35 -9.05 -0.35 -8.9 -0.35 -8.8 -0.4 -8.8 -0.45 -8.9 -0.5 -9.1 L-0.55 -9.4 -0.75 -9.45 -0.75 -9.4 -0.8 -9.35 Q-1.05 -9.25 -1.15 -9.25 -1.2 -9.25 -1.3 -9.8 -1.4 -10.35 -1.4 -10.45 -1.4 -10.7 -1.2 -11.15 L-0.95 -11.8 -0.75 -12.45 -0.7 -12.5 -0.4 -12.1 Q-0.2 -11.8 -0.1 -11.65 0.0 -11.3 0.05 -11.2 0.15 -11.0 0.45 -10.85 L0.65 -11.25 Q0.8 -11.55 0.85 -11.55 0.95 -11.55 1.1 -10.6 1.1 -10.4 1.0 -9.95 L1.0 -9.8 Q1.0 -9.6 0.85 -9.3 0.7 -9.05 0.65 -8.8 0.85 -9.05 1.0 -9.3 1.25 -9.25 1.35 -9.7 L1.3 -9.65 1.35 -10.5 1.3 -11.45 Q1.1 -11.3 1.0 -11.65 0.9 -12.1 0.85 -12.1 0.8 -12.1 0.8 -12.15 L0.75 -12.25 0.7 -12.2 0.7 -12.15 0.65 -12.1 0.65 -12.05 0.6 -12.05 0.6 -12.25 0.55 -12.4 0.55 -12.55 0.6 -12.65 0.6 -12.7 Q0.7 -12.85 0.7 -13.05 L0.7 -13.3 Q0.65 -13.5 0.6 -13.65 L0.6 -13.95 0.65 -14.0 0.65 -13.95 Q0.8 -14.55 0.9 -14.15 L1.05 -13.45 M0.9 -13.8 L0.95 -13.8 0.8 -14.2 0.7 -14.0 0.65 -13.85 Q0.6 -13.55 0.7 -13.5 L0.75 -13.5 0.8 -13.7 Q0.8 -13.8 0.9 -13.8 M1.4 10.35 L1.5 10.35 Q1.45 10.45 1.5 10.55 L1.7 10.65 1.8 10.65 2.1 10.35 2.1 10.3 Q2.15 10.35 2.2 10.5 L2.15 10.5 2.1 10.4 Q1.95 10.65 1.8 10.7 1.55 10.7 1.45 10.55 L1.4 10.4 1.35 10.4 Q1.4 10.3 1.45 10.3 L1.4 10.35 M-1.55 -7.8 L-1.6 -7.85 -1.7 -7.85 Q-1.7 -7.75 -1.7 -7.7 L-1.65 -7.55 -1.7 -7.6 -1.75 -7.75 Q-1.75 -7.95 -1.65 -8.0 -1.55 -8.05 -1.5 -7.85 L-1.5 -7.45 -1.35 -7.5 -1.2 -7.75 -1.1 -7.95 Q-1.05 -7.95 -1.0 -7.8 -0.95 -7.65 -0.95 -7.5 L-0.95 -7.3 -1.0 -7.1 -1.05 -7.15 Q-0.95 -7.75 -1.1 -7.8 L-1.25 -7.55 Q-1.35 -7.35 -1.45 -7.35 L-1.5 -7.4 -1.55 -7.6 -1.55 -7.8 M-1.0 -11.55 L-0.95 -11.7 -1.15 -11.15 Q-1.35 -10.6 -1.35 -10.45 -1.2 -9.55 -1.1 -9.4 L-0.95 -9.45 -0.75 -9.45 Q-0.85 -9.6 -0.9 -10.05 L-0.9 -10.1 -0.95 -10.2 -0.95 -11.3 -1.0 -11.55" fill="#ffffff" fill-opacity="0.8" fill-rule="evenodd" stroke="none"/>
    </g>
  </defs>
</svg>
