<?xml version="1.0" encoding="UTF-8" standalone="no"?>
<svg xmlns:ffdec="https://www.free-decompiler.com/flash" xmlns:xlink="http://www.w3.org/1999/xlink" ffdec:objectType="frame" height="190.35px" width="177.4px" xmlns="http://www.w3.org/2000/svg">
  <g transform="matrix(1.0, 0.0, 0.0, 1.0, 71.5, 49.2)">
    <use ffdec:characterId="258" height="190.35" transform="matrix(1.0, 0.0, 0.0, 1.0, -71.5, -49.2)" width="177.4" xlink:href="#shape0"/>
  </g>
  <defs>
    <g id="shape0" transform="matrix(1.0, 0.0, 0.0, 1.0, 71.5, 49.2)">
      <path d="M14.6 -17.4 L14.25 -17.25 10.3 -16.75 10.3 -16.15 Q13.3 -12.6 17.0 -11.9 18.35 -11.65 18.7 -11.25 19.2 -10.7 19.25 -9.15 L15.1 -10.4 11.8 -11.45 11.45 -11.55 10.8 -11.8 10.65 -11.85 -6.0 -17.65 -10.95 -19.25 -12.3 -19.65 -12.75 -19.8 -13.0 -20.4 Q-13.0 -23.7 -9.55 -23.85 L0.5 -21.15 4.35 -19.4 5.0 -19.95 12.35 -18.0 14.6 -17.4 M40.35 -3.25 Q40.6 -4.3 41.3 -5.25 43.2 -7.75 47.55 -7.75 L48.75 -7.55 50.05 -7.15 51.45 -6.6 Q54.05 -5.5 55.25 -5.5 L55.35 -5.5 66.4 -1.8 Q67.25 1.75 79.9 7.2 L80.7 7.55 79.0 7.75 78.55 7.95 Q74.9 6.6 70.15 5.1 L69.9 4.3 69.6 4.65 69.6 4.95 51.45 -0.3 51.0 -0.4 50.4 -0.6 40.35 -3.25 M44.45 134.3 L44.2 133.75 Q43.4 131.9 42.75 129.7 41.65 126.25 40.95 122.0 L40.9 121.6 40.85 121.15 40.8 120.9 40.8 120.75 40.75 120.45 40.7 120.1 40.65 119.85 38.85 102.0 Q37.9 94.7 37.3 84.15 L36.5 65.85 Q35.5 44.25 34.45 29.95 L33.2 14.55 31.4 -1.6 33.55 -3.7 38.05 -2.45 38.0 -0.05 38.0 0.3 37.05 0.45 36.05 0.7 36.1 10.5 Q36.65 17.8 37.1 31.2 37.6 45.6 38.0 51.9 38.75 64.25 41.75 100.7 L44.45 134.3 M-15.45 -10.2 L-15.4 -10.7 -15.0 -15.75 -14.85 -17.8 -14.85 -17.95 -7.1 -16.0 -7.8 -12.7 -7.95 -12.1 -8.45 -11.55 -12.0 -7.95 -12.4 -8.55 -13.1 -10.0 -15.45 -10.2 M80.45 19.6 Q78.9 20.0 77.8 20.9 L79.1 27.6 81.05 38.1 86.15 60.05 Q89.55 74.05 91.05 81.55 94.25 97.4 99.6 127.8 L101.35 137.85 100.8 137.25 Q97.2 133.1 95.0 123.3 L93.35 114.8 91.85 106.3 88.4 89.15 85.0 72.25 81.45 55.25 77.55 38.1 75.15 26.05 74.05 20.75 Q72.25 12.2 70.65 6.7 L77.8 9.05 77.8 9.1 80.45 19.6 M-7.5 -1.95 L0.65 1.65 2.9 2.7 0.65 3.9 14.7 13.35 18.45 16.05 Q17.2 17.4 16.5 17.4 10.4 14.25 3.4 10.85 L2.75 9.85 2.65 10.2 2.65 10.3 2.6 10.35 2.6 9.55 2.15 9.5 2.05 10.15 -0.6 8.9 Q-4.7 6.9 -8.3 5.25 L-8.25 4.75 -9.0 4.75 -9.0 4.9 -9.3 4.75 -9.7 4.55 -11.05 3.95 -12.35 3.35 Q-21.9 -1.0 -26.9 -2.5 -37.9 -5.9 -50.6 -11.3 -54.7 -13.1 -55.95 -17.6 L-56.3 -19.0 Q-33.25 -11.7 -17.55 -5.9 L-15.0 -4.95 -14.9 -4.9 -9.35 -1.6 -7.5 -1.95 M-3.2 67.5 L-3.65 66.35 -3.8 65.85 Q-4.5 63.5 -4.5 59.75 L-1.2 39.9 Q1.25 24.85 2.25 15.95 L3.25 13.55 3.4 13.1 4.85 14.0 Q6.85 15.25 8.6 16.1 L8.55 16.5 8.05 19.45 7.5 19.05 Q6.8 19.05 6.45 19.45 L5.75 19.85 Q0.6 52.75 -2.9 68.15 L-3.2 67.5 M-20.4 -21.8 L-34.8 -24.8 Q-50.65 -27.55 -59.85 -30.6 -69.65 -33.8 -69.65 -36.55 -69.65 -39.2 -66.7 -39.05 -64.85 -38.9 -64.15 -39.55 -52.35 -35.6 -36.2 -31.05 L-36.1 -31.0 -28.8 -29.05 -27.7 -28.75 Q-20.3 -24.6 -20.3 -22.75 L-20.4 -21.8 M-14.8 36.65 L-16.25 36.6 -18.7 36.7 -17.35 17.85 -16.25 3.15 -15.7 3.3 -12.0 4.6 -12.5 8.95 -14.25 25.9 Q-14.35 31.3 -14.8 36.65" fill="#544d23" fill-rule="evenodd" stroke="none"/>
      <path d="M19.25 -9.15 Q19.2 -10.7 18.7 -11.25 18.35 -11.65 17.0 -11.9 13.3 -12.6 10.3 -16.15 L10.3 -16.75 14.25 -17.25 14.6 -17.4 Q33.6 -12.25 48.75 -7.55 L47.55 -7.75 Q43.2 -7.75 41.3 -5.25 40.6 -4.3 40.35 -3.25 L38.95 -3.65 38.85 -4.65 38.3 -4.65 38.2 -3.85 30.85 -5.85 30.85 -5.9 30.5 -6.0 30.5 -5.95 19.25 -9.15 M5.0 -19.95 L4.35 -19.4 0.5 -21.15 -9.55 -23.85 Q-13.0 -23.7 -13.0 -20.4 L-12.75 -19.8 -12.3 -19.65 -14.8 -20.35 -15.0 -20.75 -15.75 -21.15 -15.95 -20.7 -20.4 -21.8 -20.3 -22.75 Q-20.3 -24.6 -27.7 -28.75 L-28.8 -29.05 5.0 -19.95 M46.35 137.75 Q45.35 136.2 44.45 134.3 L41.75 100.7 Q38.75 64.25 38.0 51.9 37.6 45.6 37.1 31.2 36.65 17.8 36.1 10.5 L36.05 0.7 37.05 0.45 38.0 0.3 Q38.05 7.05 39.4 19.6 40.75 32.5 40.75 39.05 40.75 52.3 43.45 94.2 L46.45 137.5 46.35 137.75 M31.4 -1.6 L31.05 -4.4 33.55 -3.7 31.4 -1.6 M-7.8 -12.7 L-8.0 -11.8 -8.1 -8.5 Q-9.0 -7.1 -10.15 -7.1 -11.3 -7.1 -12.0 -7.95 L-8.45 -11.55 -7.95 -12.1 -7.8 -12.7 M-6.2 -14.85 L-6.15 -15.2 -6.15 -15.7 -6.1 -15.7 -6.2 -14.85 M50.05 -7.15 L55.35 -5.5 55.25 -5.5 Q54.05 -5.5 51.45 -6.6 L50.05 -7.15 M66.4 -1.8 Q78.85 2.5 87.65 6.45 L84.8 6.9 80.7 7.55 79.9 7.2 Q67.25 1.75 66.4 -1.8 M101.35 137.85 L99.6 127.8 Q94.25 97.4 91.05 81.55 89.55 74.05 86.15 60.05 L81.05 38.1 79.1 27.6 77.8 20.9 Q78.9 20.0 80.45 19.6 85.7 40.45 90.95 63.25 104.05 120.4 104.05 135.9 104.05 136.35 102.3 138.3 L102.1 138.55 101.35 137.85 M2.9 2.7 Q13.9 8.1 19.5 13.15 L19.6 14.05 Q19.6 14.7 18.45 16.05 L14.7 13.35 0.65 3.9 2.9 2.7 M-14.9 -4.9 L-7.5 -1.95 -9.35 -1.6 -14.9 -4.9 M8.05 19.45 Q6.8 27.4 4.85 42.7 2.5 61.05 -0.25 71.9 -2.2 69.85 -3.2 67.5 L-2.9 68.15 Q0.6 52.75 5.75 19.85 L6.45 19.45 Q6.8 19.05 7.5 19.05 L8.05 19.45 M-14.8 36.65 Q-14.35 31.3 -14.25 25.9 L-12.5 8.95 -12.0 4.6 -9.15 5.7 Q-10.15 11.6 -10.85 21.1 -11.7 33.35 -12.25 37.5 L-12.55 37.45 -13.0 37.05 -14.8 36.65" fill="#77643c" fill-rule="evenodd" stroke="none"/>
      <path d="M14.6 -17.4 L12.35 -18.0 5.0 -19.95 -28.8 -29.05 -36.1 -31.0 -36.2 -31.05 Q-52.35 -35.6 -64.15 -39.55 -64.85 -38.9 -66.7 -39.05 -69.65 -39.2 -69.65 -36.55 -69.65 -33.8 -59.85 -30.6 -50.65 -27.55 -34.8 -24.8 L-20.4 -21.8 -15.95 -20.7 -15.75 -21.15 -15.0 -20.75 -14.8 -20.35 -12.3 -19.65 -10.95 -19.25 -6.0 -17.65 10.65 -11.85 10.8 -11.8 11.45 -11.55 11.8 -11.45 15.1 -10.4 19.25 -9.15 30.5 -5.95 30.5 -6.0 30.85 -5.9 30.85 -5.85 38.2 -3.85 38.3 -4.65 38.85 -4.65 38.95 -3.65 40.35 -3.25 50.4 -0.6 51.0 -0.4 51.45 -0.3 69.6 4.95 69.6 4.65 69.9 4.3 70.15 5.1 Q74.9 6.6 78.55 7.95 L79.0 7.75 80.7 7.55 84.8 6.9 87.65 6.45 Q78.85 2.5 66.4 -1.8 L55.35 -5.5 50.05 -7.15 48.75 -7.55 Q33.6 -12.25 14.6 -17.4 M46.35 137.75 Q46.05 138.9 46.05 140.05 L46.05 140.15 Q44.45 139.85 43.3 138.75 41.9 137.4 41.9 135.5 L40.75 127.7 Q39.55 120.1 39.55 118.05 37.25 103.4 37.25 100.6 37.25 93.6 36.0 76.35 L34.55 54.75 Q34.35 49.3 32.75 32.0 31.3 16.3 31.3 8.65 L30.4 -4.0 30.4 -4.6 Q15.4 -8.85 8.25 -11.3 1.7 -13.6 -6.15 -15.7 L-6.15 -15.2 -6.2 -14.85 -7.05 -3.25 Q20.9 8.3 23.0 15.8 L22.25 16.0 20.9 14.5 20.0 16.05 Q18.35 18.0 15.35 18.0 L11.45 17.3 11.3 17.8 Q10.9 19.2 9.9 20.75 9.3 30.15 6.35 48.0 2.35 71.75 -0.4 73.8 L-5.35 65.55 Q-5.65 64.95 -5.65 60.0 -5.65 55.8 -2.15 34.85 -0.25 23.45 1.05 17.05 L0.9 16.85 0.75 16.6 1.1 15.5 1.0 15.5 1.7 11.95 -4.15 8.0 Q-5.8 7.05 -8.35 6.0 L-9.0 13.55 Q-9.35 18.95 -9.75 22.0 -10.05 24.6 -9.65 31.6 -9.8 36.4 -11.75 38.4 L-11.9 39.35 -13.25 39.45 -14.35 39.6 -19.0 39.6 -19.75 39.25 Q-20.05 38.95 -20.05 38.1 L-20.05 37.75 -20.35 36.8 -20.4 34.5 Q-19.15 9.3 -17.45 2.75 L-30.15 -1.15 Q-46.65 -6.2 -51.65 -9.25 -58.2 -13.15 -58.7 -19.75 L-59.5 -20.0 -58.7 -19.95 -58.75 -20.9 -58.6 -21.85 -58.5 -22.1 Q-57.35 -21.85 -56.75 -20.5 L-56.5 -19.6 -43.6 -16.2 Q-30.2 -12.25 -16.5 -7.0 L-7.9 -3.6 -8.1 -7.85 -8.1 -8.5 -8.0 -11.8 -7.8 -12.7 -7.1 -16.0 -14.85 -17.95 -14.85 -17.8 -15.0 -15.75 -15.4 -10.7 -15.45 -10.2 -15.75 -7.1 -16.5 -7.1 Q-17.05 -9.9 -17.05 -13.15 -17.05 -16.25 -16.65 -18.35 L-20.2 -19.2 -45.85 -24.65 Q-58.9 -27.4 -64.35 -29.65 -71.5 -32.6 -71.5 -36.5 -71.5 -38.3 -70.9 -39.55 L-70.1 -39.75 Q-65.5 -40.4 -63.45 -41.1 L-61.7 -40.6 -36.0 -32.4 Q-33.1 -31.5 -11.4 -26.5 9.35 -21.75 19.0 -18.6 35.3 -13.3 62.9 -4.9 78.15 0.2 88.7 5.95 L88.6 6.2 88.3 7.3 86.4 7.8 84.4 8.6 Q83.1 8.35 82.6 9.4 L82.45 9.5 82.55 9.55 82.4 10.1 Q81.75 9.85 81.4 10.4 L80.15 9.9 81.05 11.55 81.0 12.65 Q81.0 16.3 85.85 34.95 L86.8 39.3 Q87.1 47.75 94.3 71.05 L95.2 73.95 96.05 77.45 97.25 84.8 Q97.25 86.0 101.6 107.65 105.9 129.3 105.9 135.65 105.9 137.5 105.35 138.1 L103.75 139.45 104.0 139.5 103.85 140.3 103.35 140.5 102.15 140.75 102.1 140.75 101.6 141.15 100.6 140.85 100.35 140.65 100.65 140.25 Q95.8 137.0 90.8 113.2 90.0 109.45 84.05 74.1 83.2 69.15 76.0 37.1 70.2 11.3 69.65 6.4 L50.7 0.95 39.05 -2.2 42.3 41.35 Q42.55 55.4 44.85 89.55 46.8 119.2 47.55 126.55 L47.6 130.35 47.45 135.25 Q46.8 136.35 46.45 137.5 L43.45 94.2 Q40.75 52.3 40.75 39.05 40.75 32.5 39.4 19.6 38.05 7.05 38.0 0.3 L38.0 -0.05 38.05 -2.45 33.55 -3.7 31.05 -4.4 31.4 -1.6 33.2 14.55 34.45 29.95 Q35.5 44.25 36.5 65.85 L37.3 84.15 Q37.9 94.7 38.85 102.0 L40.65 119.85 40.7 120.1 40.75 120.45 40.8 120.75 40.8 120.9 40.85 121.15 40.9 121.6 40.95 122.0 Q41.65 126.25 42.75 129.7 43.4 131.9 44.2 133.75 L44.45 134.3 Q45.35 136.2 46.35 137.75 M80.45 19.6 L77.8 9.1 77.8 9.05 70.65 6.7 Q72.25 12.2 74.05 20.75 L75.15 26.05 77.55 38.1 81.45 55.25 85.0 72.25 88.4 89.15 91.85 106.3 93.35 114.8 95.0 123.3 Q97.2 133.1 100.8 137.25 L101.35 137.85 102.1 138.55 102.3 138.3 Q104.05 136.35 104.05 135.9 104.05 120.4 90.95 63.25 85.7 40.45 80.45 19.6 M2.9 2.7 L0.65 1.65 -7.5 -1.95 -14.9 -4.9 -15.0 -4.95 -17.55 -5.9 Q-33.25 -11.7 -56.3 -19.0 L-55.95 -17.6 Q-54.7 -13.1 -50.6 -11.3 -37.9 -5.9 -26.9 -2.5 -21.9 -1.0 -12.35 3.35 L-11.05 3.95 -9.7 4.55 -9.3 4.75 -9.0 4.9 -9.0 4.75 -8.25 4.75 -8.3 5.25 Q-4.7 6.9 -0.6 8.9 L2.05 10.15 2.15 9.5 2.6 9.55 2.6 10.35 2.65 10.3 2.65 10.2 2.75 9.85 3.4 10.85 Q10.4 14.25 16.5 17.4 17.2 17.4 18.45 16.05 19.6 14.7 19.6 14.05 L19.5 13.15 Q13.9 8.1 2.9 2.7 M8.05 19.45 L8.55 16.5 8.6 16.1 Q6.85 15.25 4.85 14.0 L3.4 13.1 3.25 13.55 2.25 15.95 Q1.25 24.85 -1.2 39.9 L-4.5 59.75 Q-4.5 63.5 -3.8 65.85 L-3.65 66.35 -3.2 67.5 Q-2.2 69.85 -0.25 71.9 2.5 61.05 4.85 42.7 6.8 27.4 8.05 19.45 M-12.0 4.6 L-15.7 3.3 -16.25 3.15 -17.35 17.85 -18.7 36.7 -16.25 36.6 -14.8 36.65 -13.0 37.05 -12.55 37.45 -12.25 37.5 Q-11.7 33.35 -10.85 21.1 -10.15 11.6 -9.15 5.7 L-12.0 4.6" fill="#373317" fill-rule="evenodd" stroke="none"/>
      <path d="M-4.25 -24.05 L-5.05 -24.1 13.25 -25.05 18.55 -25.95 23.5 -26.9 29.8 -27.25 34.65 -27.5 7.95 -29.05 8.8 -29.05 39.2 -28.95 41.35 -28.95 41.4 -27.1 41.35 -25.4 40.55 -25.35 39.55 -24.6 30.2 -24.95 19.9 -25.15 6.15 -24.05 -4.25 -24.05 M35.15 -27.15 L37.4 -27.2 35.6 -27.35 35.15 -27.15 M-54.8 -25.5 L-54.8 -25.55 -50.2 -25.35 -50.75 -25.35 -54.8 -25.5 M0.2 -44.15 L-10.25 -43.0 -14.55 -42.35 -49.1 -36.35 -50.55 -36.6 -51.9 -36.95 -46.65 -37.45 -18.9 -42.5 Q-4.25 -45.05 -1.7 -46.95 L-13.35 -46.1 -15.5 -45.25 -39.05 -42.95 -38.75 -43.15 -20.3 -45.15 -16.4 -45.95 -12.6 -46.75 -4.05 -47.4 -1.45 -47.8 -0.7 -46.05 0.2 -44.15 M-26.35 -7.6 L-26.4 -8.45 -17.35 -9.45 -4.5 -10.95 Q-4.3 -10.85 0.1 -10.9 L5.05 -10.95 21.5 -12.2 45.35 -13.25 46.35 -13.2 53.15 -13.0 41.3 -12.35 18.1 -10.4 11.55 -11.15 -3.25 -10.0 -4.55 -10.25 -20.75 -8.55 -26.35 -7.6 M78.35 -13.6 L79.75 -13.7 79.95 -11.6 Q79.2 -9.35 79.35 -7.95 L79.4 -7.45 76.85 -7.15 76.1 -7.35 Q70.45 -8.45 62.55 -8.6 L56.15 -8.55 46.65 -7.65 44.55 -7.45 37.55 -6.9 30.8 -6.65 28.75 -6.6 17.55 -6.2 -3.05 -4.45 -7.7 -4.5 -12.05 -4.5 -24.55 -3.45 -25.85 -3.35 -25.85 -3.75 -26.2 -6.8 -24.7 -6.4 -21.2 -5.2 Q-15.75 -4.0 -0.1 -5.5 L24.9 -7.4 54.95 -10.15 77.0 -9.2 Q77.8 -9.25 78.25 -9.6 L78.8 -10.35 79.0 -12.75 Q79.05 -13.3 78.35 -13.6" fill="#8d7747" fill-rule="evenodd" stroke="none"/>
      <path d="M35.15 -27.15 L35.6 -27.35 37.4 -27.2 35.15 -27.15 M7.95 -29.05 L34.65 -27.5 29.8 -27.25 23.5 -26.9 18.55 -25.95 13.25 -25.05 -5.05 -24.1 -4.25 -24.05 Q-22.7 -24.2 -49.3 -25.3 L-49.4 -25.3 -50.75 -25.35 -50.2 -25.35 -54.8 -25.55 -54.8 -25.5 -55.4 -28.2 Q-55.65 -29.4 -56.05 -30.25 -43.0 -29.35 -8.45 -29.15 L7.95 -29.05 M-51.9 -36.95 Q-56.7 -38.1 -58.1 -39.75 L-57.5 -40.7 -40.95 -42.4 -39.05 -42.95 -15.5 -45.25 -13.35 -46.1 -1.7 -46.95 Q-4.25 -45.05 -18.9 -42.5 L-46.65 -37.45 -51.9 -36.95 M53.15 -13.0 Q65.1 -12.8 78.35 -13.6 79.05 -13.3 79.0 -12.75 L78.8 -10.35 78.25 -9.6 Q77.8 -9.25 77.0 -9.2 L54.95 -10.15 24.9 -7.4 -0.1 -5.5 Q-15.75 -4.0 -21.2 -5.2 L-24.7 -6.4 -26.2 -6.8 -26.35 -7.6 -20.75 -8.55 -4.55 -10.25 -3.25 -10.0 11.55 -11.15 18.1 -10.4 41.3 -12.35 53.15 -13.0" fill="#77643c" fill-rule="evenodd" stroke="none"/>
      <path d="M30.2 -24.95 L39.55 -24.6 Q36.85 -23.05 31.15 -22.05 L30.85 -22.0 8.4 -19.55 Q5.05 -19.2 3.6 -20.05 L3.25 -20.0 -5.4 -20.35 -5.85 -20.35 -23.5 -21.6 Q-32.9 -22.2 -49.4 -21.15 L-49.55 -21.05 Q-53.3 -21.65 -54.4 -24.15 L-54.8 -25.5 -50.75 -25.35 -49.4 -25.3 -49.3 -25.3 -48.8 -25.2 -17.3 -21.95 Q0.65 -20.8 16.3 -22.3 24.45 -23.1 30.2 -24.95 M0.2 -44.15 L0.35 -43.75 Q-1.05 -43.2 -1.75 -42.35 L-3.5 -40.95 -4.35 -40.15 Q-5.6 -39.55 -9.85 -38.8 L-14.45 -37.8 Q-19.7 -37.25 -19.95 -36.9 L-24.1 -35.95 -33.2 -35.05 -35.55 -35.1 Q-22.65 -38.4 -18.1 -39.3 L-5.5 -41.0 -5.65 -41.45 -5.65 -42.25 -10.25 -43.0 0.2 -44.15 M-25.65 -1.4 L-25.8 -2.85 -25.8 -2.9 -25.85 -3.35 -24.55 -3.45 -12.05 -4.5 -7.7 -4.5 -3.05 -4.45 17.55 -6.2 28.75 -6.6 30.8 -6.65 29.2 -6.55 27.15 -6.2 26.0 -5.9 5.75 -3.95 3.9 -3.95 2.0 -3.55 -13.3 -2.1 -17.05 -2.4 -21.15 -2.45 Q-21.85 -2.4 -23.0 -1.8 L-24.8 -1.0 -25.6 -0.9 -25.65 -1.4 M44.55 -7.45 L46.65 -7.65 56.15 -8.55 62.55 -8.6 55.7 -7.95 52.3 -7.9 51.35 -7.95 44.55 -7.45" fill="#635b29" fill-rule="evenodd" stroke="none"/>
      <path d="M39.55 -24.6 L40.55 -25.35 41.35 -25.4 41.4 -27.1 41.35 -28.95 39.2 -28.95 8.8 -29.05 7.95 -29.05 -8.45 -29.15 Q-43.0 -29.35 -56.05 -30.25 -55.65 -29.4 -55.4 -28.2 L-54.8 -25.5 -54.4 -24.15 Q-53.3 -21.65 -49.55 -21.05 L-49.4 -21.15 Q-32.9 -22.2 -23.5 -21.6 L-5.85 -20.35 -5.4 -20.35 3.25 -20.0 3.6 -20.05 Q5.05 -19.2 8.4 -19.55 L30.85 -22.0 31.15 -22.05 Q36.85 -23.05 39.55 -24.6 M0.95 -46.6 Q1.75 -43.4 2.1 -42.9 0.35 -42.4 -1.8 -40.4 -3.6 -38.6 -9.1 -37.8 L-11.45 -37.2 -13.65 -36.85 Q-13.8 -36.65 -16.45 -36.2 L-19.05 -35.8 -19.35 -35.3 -23.3 -34.65 Q-23.4 -34.45 -27.4 -33.7 L-32.35 -32.8 Q-43.8 -31.7 -54.05 -35.4 -57.6 -36.75 -59.7 -37.85 -59.95 -39.75 -60.55 -41.65 L-58.3 -41.85 -41.1 -44.0 -39.45 -44.25 -39.0 -44.45 -20.65 -46.45 -9.35 -48.25 -2.65 -49.2 Q-0.2 -49.45 0.95 -46.6 M-35.55 -35.1 L-33.2 -35.05 -24.1 -35.95 -19.95 -36.9 Q-19.7 -37.25 -14.45 -37.8 L-9.85 -38.8 Q-5.6 -39.55 -4.35 -40.15 L-3.5 -40.95 -1.75 -42.35 Q-1.05 -43.2 0.35 -43.75 L0.2 -44.15 -0.7 -46.05 -1.45 -47.8 -4.05 -47.4 -12.6 -46.75 -16.4 -45.95 -20.3 -45.15 -38.75 -43.15 -39.05 -42.95 -40.95 -42.4 -57.5 -40.7 -58.1 -39.75 Q-56.7 -38.1 -51.9 -36.95 L-50.55 -36.6 -49.1 -36.35 -48.6 -36.25 -40.1 -35.3 -37.65 -35.15 -37.4 -35.15 -36.45 -35.15 -35.55 -35.1 M1.85 -13.25 L2.05 -13.25 4.15 -12.75 6.45 -12.95 7.7 -12.7 8.0 -13.05 21.0 -14.1 26.9 -14.5 32.55 -15.1 47.85 -14.9 61.6 -14.6 Q61.85 -14.45 66.9 -14.7 L71.85 -15.05 79.4 -15.5 81.65 -15.45 Q81.45 -14.6 81.15 -10.85 80.9 -8.2 80.25 -6.8 L80.25 -6.7 80.05 -6.45 79.9 -6.6 74.6 -5.5 68.1 -4.55 Q67.1 -4.45 64.6 -4.5 L61.45 -4.65 41.8 -2.9 27.5 -1.0 10.35 0.65 -2.7 2.1 -3.45 2.45 -24.5 4.5 -25.65 3.9 -28.15 2.75 Q-28.2 -5.7 -28.5 -8.6 L-28.65 -9.95 -28.5 -10.05 -16.1 -12.1 -15.3 -12.05 1.85 -13.25 M16.3 -19.2 L14.4 -18.7 12.5 -18.25 Q8.4 -17.85 5.95 -18.1 L3.3 -17.7 -3.1 -18.3 -6.25 -18.35 -6.95 -18.5 -26.5 -19.8 -44.75 -19.25 -44.75 -19.3 -47.3 -19.05 -55.35 -20.1 -55.55 -20.3 -56.4 -24.2 Q-56.6 -26.2 -57.65 -30.95 L-57.65 -31.05 Q-57.5 -31.15 -57.1 -31.4 L-56.65 -31.0 Q-45.0 -31.85 -7.4 -31.4 L42.25 -30.65 42.65 -28.4 42.8 -25.7 Q42.7 -24.45 42.0 -23.8 L41.8 -23.15 41.25 -22.8 30.35 -21.0 16.3 -19.2 M53.15 -13.0 L46.35 -13.2 45.35 -13.25 21.5 -12.2 5.05 -10.95 0.1 -10.9 Q-4.3 -10.85 -4.5 -10.95 L-17.35 -9.45 -26.4 -8.45 -26.35 -7.6 -26.2 -6.8 -25.85 -3.75 -25.85 -3.35 -25.8 -2.9 -25.8 -2.85 -25.65 -1.4 -25.6 -0.5 Q-25.55 1.05 -25.65 2.45 L-3.05 0.3 13.35 -1.35 27.35 -2.65 41.0 -4.2 51.2 -5.5 60.9 -6.5 60.95 -6.25 76.6 -7.15 76.85 -7.15 79.4 -7.45 79.35 -7.95 Q79.2 -9.35 79.95 -11.6 L79.75 -13.7 78.35 -13.6 Q65.1 -12.8 53.15 -13.0 M-41.55 -19.95 L-41.75 -19.85 -38.5 -19.85 -41.55 -19.95" fill="#373317" fill-rule="evenodd" stroke="none"/>
      <path d="M-4.25 -24.05 L6.15 -24.05 19.9 -25.15 30.2 -24.95 Q24.45 -23.1 16.3 -22.3 0.65 -20.8 -17.3 -21.95 L-48.8 -25.2 -49.3 -25.3 Q-22.7 -24.2 -4.25 -24.05 M-10.25 -43.0 L-5.65 -42.25 -5.65 -41.45 -5.5 -41.0 -18.1 -39.3 Q-22.65 -38.4 -35.55 -35.1 L-36.45 -35.15 -37.4 -35.15 -37.65 -35.15 -40.1 -35.3 -48.6 -36.25 -49.1 -36.35 -14.55 -42.35 -10.25 -43.0 M76.85 -7.15 L76.6 -7.15 60.95 -6.25 60.9 -6.5 51.2 -5.5 41.0 -4.2 27.35 -2.65 13.35 -1.35 -3.05 0.3 -25.65 2.45 Q-25.55 1.05 -25.6 -0.5 L-25.65 -1.4 -25.6 -0.9 -24.8 -1.0 -23.0 -1.8 Q-21.85 -2.4 -21.15 -2.45 L-17.05 -2.4 -13.3 -2.1 2.0 -3.55 3.9 -3.95 5.75 -3.95 26.0 -5.9 27.15 -6.2 29.2 -6.55 30.8 -6.65 37.55 -6.9 44.55 -7.45 51.35 -7.95 52.3 -7.9 55.7 -7.95 62.55 -8.6 Q70.45 -8.45 76.1 -7.35 L76.85 -7.15" fill="#544d23" fill-rule="evenodd" stroke="none"/>
    </g>
  </defs>
</svg>
