<?xml version="1.0" encoding="UTF-8" standalone="no"?>
<svg xmlns:ffdec="https://www.free-decompiler.com/flash" xmlns:xlink="http://www.w3.org/1999/xlink" ffdec:objectType="frame" height="66.05px" width="222.0px" xmlns="http://www.w3.org/2000/svg">
  <g transform="matrix(1.0, 0.0, 0.0, 1.0, 0.0, 0.0)">
    <use ffdec:characterId="214" height="66.05" transform="matrix(1.0, 0.0, 0.0, 1.0, 0.0, 0.0)" width="222.0" xlink:href="#shape0"/>
  </g>
  <defs>
    <g id="shape0" transform="matrix(1.0, 0.0, 0.0, 1.0, 0.0, 0.0)">
      <path d="M165.25 43.0 Q168.4 43.4 170.4 46.1 L165.45 43.1 165.25 43.0 M176.2 49.4 L177.25 48.4 177.5 47.9 Q173.85 46.45 165.25 40.05 170.75 39.5 170.75 36.15 170.75 31.45 159.85 31.1 L153.9 31.35 153.25 30.9 Q151.7 30.9 150.45 31.5 L144.0 31.65 147.7 33.55 147.65 33.55 Q144.4 32.2 142.0 31.65 L141.75 32.4 142.45 32.95 Q141.0 33.3 141.0 35.5 L141.15 35.95 139.25 35.9 139.25 35.65 137.65 35.4 Q135.45 33.75 133.0 32.9 L129.65 32.15 Q128.8 28.5 121.45 28.3 113.25 28.1 110.5 32.0 L110.7 33.0 109.8 33.15 99.6 35.4 99.5 35.4 97.35 35.85 90.5 36.65 86.45 35.95 83.05 35.15 81.8 33.8 Q81.2 33.15 80.4 32.6 89.5 32.0 96.8 27.9 L99.3 26.35 Q100.05 27.7 101.8 28.65 104.65 30.15 109.0 30.15 111.2 30.15 112.7 28.45 L114.5 25.65 116.85 26.85 Q118.9 27.65 120.5 27.65 122.55 27.65 126.55 26.05 129.3 24.9 131.4 24.55 L135.4 24.75 136.25 24.8 140.05 25.4 149.15 26.4 Q148.95 26.05 144.8 25.35 L139.75 24.7 148.3 22.7 Q159.75 20.3 169.2 19.4 199.5 16.55 199.5 29.5 199.5 32.3 194.5 37.35 L191.9 39.75 188.15 36.5 Q181.4 31.8 176.0 40.4 177.45 41.1 183.45 46.05 L185.25 47.3 184.95 48.2 181.2 46.65 Q178.25 45.6 177.0 49.65 177.95 50.25 180.25 51.45 182.65 52.65 183.0 52.65 L183.25 52.65 183.1 53.05 176.2 49.4 M166.4 46.5 L163.75 44.7 164.8 45.25 166.4 46.5 M139.3 36.4 Q144.05 40.3 150.45 44.6 145.7 44.2 142.65 40.3 141.05 38.25 139.3 36.7 L139.3 36.4 M169.35 56.3 L172.15 57.9 Q173.45 59.75 175.35 61.3 L177.8 62.95 173.75 61.55 Q169.9 59.95 169.35 56.3 M180.5 64.0 L181.9 64.3 181.35 64.45 180.5 64.0 M185.5 63.4 L185.75 62.4 185.25 60.9 182.75 59.55 183.0 58.25 182.75 57.9 183.5 57.9 186.8 57.35 191.0 56.4 186.2 54.5 193.15 52.9 212.5 49.9 217.45 50.45 222.0 51.4 Q213.5 55.35 195.1 60.7 L185.5 63.4 M166.65 62.6 L166.85 62.7 Q170.25 64.85 173.85 65.65 168.35 65.5 166.65 62.6 M86.65 37.2 Q85.45 36.9 84.65 36.45 L83.7 35.7 Q85.05 36.2 86.65 37.2 M78.1 28.95 L73.85 30.25 67.0 29.65 78.1 28.95" fill="#ad9361" fill-rule="evenodd" stroke="none"/>
      <path d="M165.25 40.05 L163.0 40.15 Q161.3 40.15 157.35 38.4 L153.7 36.6 148.25 33.8 147.7 33.55 144.0 31.65 150.45 31.5 153.9 31.35 159.85 31.1 Q170.75 31.45 170.75 36.15 170.75 39.5 165.25 40.05 M163.75 44.7 L166.4 46.5 Q171.8 50.15 172.5 50.15 175.0 50.15 179.25 54.15 L182.75 57.9 183.0 58.25 182.75 59.55 185.25 60.9 185.75 62.4 185.5 63.4 185.4 63.7 Q185.05 64.4 183.5 64.4 L181.9 64.3 180.5 64.0 Q179.1 63.65 177.8 62.95 L175.35 61.3 Q173.45 59.75 172.15 57.9 L169.35 56.3 Q158.55 50.1 150.45 44.6 144.05 40.3 139.3 36.4 L139.0 36.15 139.0 35.9 139.25 35.9 141.15 35.95 147.1 36.8 153.5 37.65 162.6 43.9 163.75 44.7 M185.25 47.3 L183.45 46.05 Q177.45 41.1 176.0 40.4 181.4 31.8 188.15 36.5 L191.9 39.75 194.0 41.85 Q197.95 45.9 200.0 47.4 L197.2 49.6 Q195.7 50.65 194.5 50.65 190.45 50.65 185.25 47.3 M110.7 33.0 L110.5 32.0 Q113.25 28.1 121.45 28.3 128.8 28.5 129.65 32.15 L129.75 33.15 Q129.75 35.05 128.5 36.15 127.1 37.4 124.5 37.4 121.1 37.4 116.65 35.9 112.9 34.6 110.75 33.15 L110.7 33.0 M184.95 48.2 L190.0 50.4 186.6 51.8 Q184.65 52.6 183.25 52.65 L183.0 52.65 Q182.65 52.65 180.25 51.45 177.95 50.25 177.0 49.65 178.25 45.6 181.2 46.65 L184.95 48.2 M150.8 49.7 Q149.75 49.95 149.05 50.4 L147.35 51.95 Q144.8 53.9 135.5 53.9 129.0 53.9 127.25 56.3 L126.1 57.9 Q125.25 58.65 123.5 58.65 121.6 58.65 119.85 56.8 118.1 54.9 118.0 52.65 L120.5 51.9 Q121.25 52.15 123.35 53.2 125.4 54.15 126.9 54.15 131.6 54.15 136.0 51.8 141.55 48.9 142.5 48.65 L140.35 45.35 139.7 44.2 Q139.05 42.95 139.0 41.9 140.75 41.6 144.85 44.75 149.15 48.05 151.75 47.9 L152.25 49.4 150.8 49.7" fill="#b4a265" fill-rule="evenodd" stroke="none"/>
      <path d="M157.35 38.4 Q161.0 40.4 165.25 43.0 L165.45 43.1 170.4 46.1 176.2 49.4 183.1 53.05 186.2 54.5 191.0 56.4 186.8 57.35 183.5 57.9 182.75 57.9 179.25 54.15 Q175.0 50.15 172.5 50.15 171.8 50.15 166.4 46.5 L164.8 45.25 163.75 44.7 162.6 43.9 153.5 37.65 147.1 36.8 141.15 35.95 141.0 35.5 Q141.0 33.3 142.45 32.95 L141.75 32.4 142.0 31.65 Q144.4 32.2 147.65 33.55 L148.25 33.8 153.7 36.6 157.35 38.4 M150.45 44.6 Q158.55 50.1 169.35 56.3 169.9 59.95 173.75 61.55 L177.8 62.95 Q179.1 63.65 180.5 64.0 L181.35 64.45 183.0 65.4 173.85 65.65 Q170.25 64.85 166.85 62.7 L166.65 62.6 Q163.65 60.65 162.5 58.4 161.25 55.9 162.75 54.15 158.7 52.2 153.25 50.45 L150.8 49.7 152.25 49.4 151.75 47.9 Q149.15 48.05 144.85 44.75 140.75 41.6 139.0 41.9 139.05 42.95 139.7 44.2 137.1 41.6 135.75 37.9 L130.95 38.6 126.0 38.9 117.1 38.0 102.75 36.9 97.5 39.65 89.75 39.4 86.65 37.2 Q85.05 36.2 83.7 35.7 L82.25 35.3 80.0 35.15 Q80.0 33.6 80.25 33.95 L80.5 34.65 83.05 35.15 86.45 35.95 90.5 36.65 97.35 35.85 99.35 35.45 99.6 35.4 109.8 33.15 110.7 33.0 110.75 33.15 Q112.9 34.6 116.65 35.9 121.1 37.4 124.5 37.4 127.1 37.4 128.5 36.15 129.75 35.05 129.75 33.15 L129.65 32.15 133.0 32.9 Q135.45 33.75 137.65 35.4 L139.3 36.7 Q141.05 38.25 142.65 40.3 145.7 44.2 150.45 44.6 M139.75 24.7 L144.8 25.35 Q148.95 26.05 149.15 26.4 L140.05 25.4 136.25 24.8 133.0 24.4 131.4 24.55 Q129.3 24.9 126.55 26.05 122.55 27.65 120.5 27.65 118.9 27.65 116.85 26.85 L114.5 25.65 112.7 28.45 Q111.2 30.15 109.0 30.15 104.65 30.15 101.8 28.65 100.05 27.7 99.3 26.35 L96.8 27.9 Q89.5 32.0 80.4 32.6 L77.5 32.65 74.55 32.2 71.0 31.4 Q71.9 30.9 73.85 30.25 L78.1 28.95 82.3 27.9 Q91.05 25.75 92.75 24.65 95.1 23.15 96.4 18.35 97.55 14.2 100.5 13.4 101.6 15.1 102.75 17.85 L102.95 18.35 107.2 20.4 Q110.55 21.9 113.5 21.9 L116.85 20.3 Q120.0 18.65 120.5 18.65 123.3 18.65 128.45 20.45 133.85 22.35 135.25 24.15 L139.75 24.7 M47.5 9.7 Q42.85 12.65 39.75 12.65 L20.45 15.3 2.0 18.15 0.0 18.4 Q0.9 17.65 6.5 16.8 L18.35 15.15 Q35.6 12.45 39.25 8.15 42.4 4.4 46.35 1.7 52.5 -2.5 52.5 3.65 52.5 6.5 47.5 9.7" fill="#8e774a" fill-rule="evenodd" stroke="none"/>
    </g>
  </defs>
</svg>
