<?xml version="1.0" encoding="UTF-8" standalone="no"?>
<svg xmlns:ffdec="https://www.free-decompiler.com/flash" xmlns:xlink="http://www.w3.org/1999/xlink" ffdec:objectType="frame" height="39.9px" width="37.85px" xmlns="http://www.w3.org/2000/svg">
  <g transform="matrix(1.0, 0.0, 0.0, 1.0, 20.45, 19.9)">
    <use ffdec:characterId="321" height="39.9" transform="matrix(1.0, 0.0, 0.0, 1.0, -20.45, -19.9)" width="37.85" xlink:href="#shape0"/>
  </g>
  <defs>
    <g id="shape0" transform="matrix(1.0, 0.0, 0.0, 1.0, 20.45, 19.9)">
      <path d="M11.6 -17.6 L11.65 -17.2 Q4.7 -0.45 1.8 8.1 2.85 8.35 4.3 9.05 9.1 10.2 11.05 11.25 L11.25 14.95 Q11.05 16.8 11.15 19.95 L11.15 20.0 3.9 17.1 Q0.45 15.85 -5.4 13.95 L-10.8 11.8 -10.95 11.7 -11.05 11.7 -12.55 11.0 -7.8 5.0 -1.75 -3.05 7.5 -13.2 11.6 -17.6 M1.65 -15.9 L-0.1 -17.25 -2.95 -13.3 -17.65 3.6 -15.75 5.1 -15.35 5.45 -9.85 -1.65 0.2 -14.05 1.65 -15.9 M0.95 -18.5 L4.05 -16.2 -15.35 8.4 -20.05 4.4 -20.15 4.0 -0.85 -19.8 -0.75 -19.9 0.95 -18.5 M6.65 -9.3 L-8.95 10.35 Q-6.9 10.7 -3.5 11.9 2.35 13.9 6.5 16.05 L8.8 16.75 8.8 15.8 8.9 13.6 8.8 13.6 8.8 13.3 8.35 12.9 3.6 11.25 3.2 11.1 1.55 10.55 Q-0.15 9.8 -0.55 9.35 L-0.7 9.3 -0.75 8.65 Q-0.75 7.45 5.55 -6.85 L6.65 -9.3 M17.35 -6.35 Q16.75 -2.75 13.45 -4.25 10.3 -5.6 10.8 -7.85 10.9 -8.7 11.9 -9.65 13.05 -10.95 14.45 -10.65 16.65 -10.3 17.3 -8.5 L17.35 -6.35 M15.65 -7.0 Q15.55 -8.9 13.7 -8.9 L13.3 -8.4 12.4 -7.4 Q12.35 -6.9 13.5 -5.75 L14.55 -5.5 15.0 -6.05 15.55 -6.35 15.65 -7.0 M12.65 2.2 Q12.85 2.95 12.7 3.8 12.05 7.15 9.35 6.25 6.8 5.45 7.35 2.95 L7.4 2.85 Q7.5 2.35 7.75 2.0 8.75 0.0 10.75 0.4 12.35 0.7 12.65 2.2 M11.9 3.55 Q12.0 3.15 11.55 2.2 L11.45 2.0 10.65 1.6 Q9.8 1.45 9.3 2.05 L8.8 2.75 Q8.4 4.6 10.0 5.4 L10.65 4.95 Q11.75 4.35 11.9 3.55" fill="#dfdf00" fill-rule="evenodd" stroke="none"/>
      <path d="M1.65 -15.9 L0.2 -14.05 -9.85 -1.65 -15.35 5.45 -15.75 5.1 -17.65 3.6 -2.95 -13.3 -0.1 -17.25 1.65 -15.9 M6.65 -9.3 L5.55 -6.85 Q-0.75 7.45 -0.75 8.65 L-0.7 9.3 -0.55 9.35 Q-0.15 9.8 1.55 10.55 L3.2 11.1 3.6 11.25 8.35 12.9 8.8 13.3 8.8 13.6 8.9 13.6 8.8 15.8 8.8 16.75 6.5 16.05 Q2.35 13.9 -3.5 11.9 -6.9 10.7 -8.95 10.35 L6.65 -9.3 M15.65 -7.0 L15.55 -6.35 15.0 -6.05 14.55 -5.5 13.5 -5.75 Q12.35 -6.9 12.4 -7.4 L13.3 -8.4 13.7 -8.9 Q15.55 -8.9 15.65 -7.0 M11.9 3.55 Q11.75 4.35 10.65 4.95 L10.0 5.4 Q8.4 4.6 8.8 2.75 L9.3 2.05 Q9.8 1.45 10.65 1.6 L11.45 2.0 11.55 2.2 Q12.0 3.15 11.9 3.55 M-20.45 -4.9 L-20.2 -5.25 -20.15 -5.25 -20.15 -5.15 -20.25 -5.05 -20.45 -4.9 M-9.3 17.0 L-9.1 17.15 -10.6 16.75 -10.1 16.8 -9.3 17.0" fill="#ffff33" fill-rule="evenodd" stroke="none"/>
    </g>
  </defs>
</svg>
