<?xml version="1.0" encoding="UTF-8" standalone="no"?>
<svg xmlns:ffdec="https://www.free-decompiler.com/flash" xmlns:xlink="http://www.w3.org/1999/xlink" ffdec:objectType="frame" height="32.85px" width="346.5px" xmlns="http://www.w3.org/2000/svg">
  <g transform="matrix(1.0, 0.0, 0.0, 1.0, 0.0, 11.25)">
    <use ffdec:characterId="451" ffdec:characterName="a_EB_SewerWaterEdge1Frame2" height="25.55" transform="matrix(1.0, 0.0, 0.0, 1.0, 0.0, -6.3)" width="346.5" xlink:href="#sprite0"/>
  </g>
  <defs>
    <g id="sprite0" transform="matrix(1.0, 0.0, 0.0, 1.0, 0.0, 0.0)">
      <use ffdec:characterId="450" height="3.65" transform="matrix(7.0, 0.0, 0.0, 7.0, 0.0, 0.0)" width="49.5" xlink:href="#shape0"/>
    </g>
    <g id="shape0" transform="matrix(1.0, 0.0, 0.0, 1.0, 0.0, 0.0)">
      <path d="M49.5 3.1 L45.35 3.1 44.6 3.2 40.4 3.65 38.75 3.65 Q36.75 3.55 35.7 3.4 L34.25 3.15 33.75 3.1 31.05 3.15 Q30.5 3.25 29.85 3.25 L27.35 3.25 25.65 3.1 24.85 3.1 22.2 2.85 21.0 2.85 16.05 3.4 14.95 3.55 13.4 3.55 9.9 3.1 0.0 3.1 0.0 0.9 12.5 0.9 13.2 0.8 14.3 0.8 Q16.5 0.5 21.05 0.05 L22.9 0.05 Q24.5 0.1 25.75 0.35 L27.0 0.3 27.95 0.15 29.55 0.0 Q30.25 0.1 31.95 0.5 33.1 0.75 34.35 0.9 L49.5 0.9 49.5 3.1" fill="#6cc6b1" fill-rule="evenodd" stroke="none"/>
    </g>
  </defs>
</svg>
