<?xml version="1.0" encoding="UTF-8" standalone="no"?>
<svg xmlns:ffdec="https://www.free-decompiler.com/flash" xmlns:xlink="http://www.w3.org/1999/xlink" ffdec:objectType="frame" height="363.05px" width="183.1px" xmlns="http://www.w3.org/2000/svg">
  <g transform="matrix(1.0, 0.0, 0.0, 1.0, 87.35, 191.6)">
    <use ffdec:characterId="401" ffdec:characterName="a_LostSoulArm15" height="79.45" transform="matrix(0.8985, -0.2867, 0.2867, 0.8985, -44.4079, -45.5405)" width="91.0" xlink:href="#sprite0"/>
    <use ffdec:characterId="405" ffdec:characterName="a_LostSoulArm13" height="80.5" transform="matrix(0.9871, 0.1602, -0.1602, 0.9871, -64.2107, -96.9434)" width="84.7" xlink:href="#sprite1"/>
    <use ffdec:characterId="355" ffdec:characterName="a_LostSoulBody01" height="70.0" transform="matrix(1.0, 0.0, 0.0, 1.0, -30.0, -111.35)" width="85.4" xlink:href="#sprite2"/>
    <use ffdec:characterId="376" ffdec:characterName="a_LostSoulHead01" height="98.35" transform="matrix(1.0, 0.0, 0.0, 1.0, -8.85, -185.95)" width="84.35" xlink:href="#sprite3"/>
  </g>
  <defs>
    <g id="sprite0" transform="matrix(1.0, 0.0, 0.0, 1.0, 45.5, 79.45)">
      <use ffdec:characterId="400" height="11.35" transform="matrix(7.0, 0.0, 0.0, 7.0, -45.5, -79.45)" width="13.0" xlink:href="#shape0"/>
    </g>
    <g id="shape0" transform="matrix(1.0, 0.0, 0.0, 1.0, 6.5, 11.35)">
      <path d="M5.4 -11.35 L5.45 -11.35 5.5 -11.25 5.7 -11.35 Q6.5 -11.55 6.5 -10.7 6.5 -9.4 5.1 -7.7 3.7 -6.15 2.1 -5.35 1.2 -4.95 0.6 -4.1 0.05 -3.45 -0.2 -2.65 -0.35 -2.1 -1.0 -1.25 -1.85 -0.15 -2.7 -0.15 L-2.8 -0.15 Q-3.5 0.0 -4.25 0.0 -4.75 0.0 -5.05 -0.15 -5.3 -0.25 -5.3 -0.35 -5.3 -0.5 -3.85 -1.1 -3.65 -1.15 -3.4 -1.3 -3.15 -1.45 -3.15 -1.5 L-3.15 -1.55 -3.95 -1.3 Q-4.75 -1.1 -6.1 -1.1 -6.35 -1.1 -6.45 -1.25 L-6.5 -1.4 -5.4 -1.9 Q-4.1 -2.4 -3.6 -2.95 L-3.55 -3.0 -4.3 -2.65 Q-5.1 -2.35 -5.8 -2.35 -6.0 -2.35 -6.1 -2.45 -6.25 -2.5 -6.25 -2.55 -6.25 -2.7 -5.4 -3.05 -4.5 -3.45 -4.45 -3.55 L-4.0 -4.05 Q-3.95 -4.2 -3.5 -5.0 L-2.75 -6.2 Q-2.4 -6.7 -1.65 -7.25 -1.1 -7.65 -0.45 -8.0 0.7 -8.6 3.2 -9.45 3.85 -9.7 4.55 -10.4 5.0 -10.85 5.4 -11.35" fill="url(#gradient0)" fill-rule="evenodd" stroke="none"/>
    </g>
    <linearGradient gradientTransform="matrix(-0.0097, 0.0033, -0.0453, -0.1351, -5.05, -8.0)" gradientUnits="userSpaceOnUse" id="gradient0" spreadMethod="pad" x1="-819.2" x2="819.2">
      <stop offset="0.0" stop-color="#000000"/>
      <stop offset="1.0" stop-color="#000000" stop-opacity="0.0"/>
    </linearGradient>
    <g id="sprite1" transform="matrix(1.0, 0.0, 0.0, 1.0, 42.35, 80.5)">
      <use ffdec:characterId="404" height="11.5" transform="matrix(7.0, 0.0, 0.0, 7.0, -42.35, -80.5)" width="12.1" xlink:href="#shape1"/>
    </g>
    <g id="shape1" transform="matrix(1.0, 0.0, 0.0, 1.0, 6.05, 11.5)">
      <path d="M5.55 -11.5 Q6.05 -11.45 6.05 -11.0 6.05 -10.45 5.1 -9.55 4.5 -8.95 3.6 -8.3 2.75 -7.7 2.35 -6.9 1.95 -6.2 1.9 -5.4 1.75 -2.85 0.35 -1.35 -0.85 0.0 -2.45 0.0 -3.8 0.0 -4.75 -0.65 -5.5 -1.15 -5.5 -1.45 L-5.5 -1.65 Q-5.45 -1.7 -5.2 -1.7 L-4.9 -1.7 Q-5.25 -1.9 -5.5 -2.15 -6.05 -2.65 -6.05 -3.1 -6.05 -3.35 -5.8 -3.3 -5.65 -3.25 -5.25 -3.0 -4.15 -2.4 -3.65 -2.4 L-3.55 -2.4 -3.5 -2.45 -3.55 -2.5 Q-4.65 -2.5 -5.15 -3.45 -5.4 -3.95 -5.4 -4.5 -5.4 -5.0 -5.1 -4.7 -4.85 -4.5 -4.65 -4.1 -4.6 -3.9 -4.4 -3.7 -4.15 -3.45 -3.65 -3.35 -2.45 -3.8 -2.1 -4.8 -2.0 -5.1 -1.9 -5.8 -1.75 -6.5 -1.6 -6.8 -1.0 -8.3 0.95 -9.4 1.65 -9.8 2.3 -10.0 L3.05 -10.3 4.1 -10.7 5.1 -11.3 Q5.15 -11.55 5.55 -11.5" fill="url(#gradient1)" fill-rule="evenodd" stroke="none"/>
    </g>
    <linearGradient gradientTransform="matrix(-0.0097, 0.0033, -0.0453, -0.1351, -5.05, -8.0)" gradientUnits="userSpaceOnUse" id="gradient1" spreadMethod="pad" x1="-819.2" x2="819.2">
      <stop offset="0.0" stop-color="#000000"/>
      <stop offset="1.0" stop-color="#000000" stop-opacity="0.0"/>
    </linearGradient>
    <g id="sprite2" transform="matrix(1.0, 0.0, 0.0, 1.0, 42.7, 70.0)">
      <use ffdec:characterId="354" height="10.0" transform="matrix(7.0, 0.0, 0.0, 7.0, -42.7, -70.0)" width="12.2" xlink:href="#shape2"/>
    </g>
    <g id="shape2" transform="matrix(1.0, 0.0, 0.0, 1.0, 6.1, 10.0)">
      <path d="M5.7 -5.6 L5.65 -5.9 5.6 -6.35 5.55 -6.5 Q5.4 -6.9 5.2 -7.25 L5.2 -7.3 5.0 -7.6 4.7 -7.95 Q4.2 -8.45 3.5 -8.85 L3.3 -8.95 3.25 -9.0 2.8 -9.2 2.65 -9.25 2.5 -9.35 Q2.65 -9.0 2.85 -8.4 3.15 -7.4 3.15 -7.0 L3.15 -6.1 Q3.35 -6.35 3.7 -6.8 3.9 -7.05 3.9 -6.75 L3.9 -6.65 Q3.9 -6.3 3.6 -5.95 L3.55 -5.85 3.45 -5.75 3.4 -5.75 3.3 -5.65 Q3.45 -5.25 3.45 -4.95 L3.45 -4.65 Q3.4 -4.45 3.3 -4.45 L3.0 -5.15 2.55 -3.8 2.55 -3.7 2.35 -3.35 3.0 -3.35 Q3.0 -3.15 2.1 -2.8 L2.0 -2.75 2.0 -2.6 Q1.75 -1.55 1.3 -1.55 L1.2 -1.55 1.2 -1.75 Q1.2 -1.85 1.3 -2.2 L1.25 -2.2 Q0.65 -1.85 0.15 -1.4 -0.15 -1.15 -0.3 -0.95 L-0.3 -0.55 Q0.0 -0.75 0.8 -1.05 1.65 -1.4 2.1 -1.65 2.35 -1.75 2.7 -1.95 3.0 -2.15 3.2 -2.3 L3.45 -2.65 Q3.6 -2.9 3.75 -2.9 L3.85 -2.9 3.95 -2.85 3.95 -2.7 Q3.95 -2.6 3.9 -2.5 L3.95 -2.25 3.9 -1.7 Q3.9 -1.5 3.95 -1.2 L4.05 -0.8 4.1 -0.7 4.1 -0.65 Q4.8 -1.3 5.3 -2.8 L5.55 -3.75 5.6 -4.0 Q5.7 -4.6 5.7 -5.15 L5.7 -5.6 M2.7 -9.8 L2.8 -9.75 Q3.3 -9.5 3.8 -9.1 4.6 -8.45 5.45 -7.45 L5.55 -7.35 Q5.95 -6.75 6.05 -5.95 6.1 -5.5 6.1 -4.4 6.1 -4.15 6.0 -3.75 L5.85 -3.2 5.5 -2.15 Q5.3 -1.65 4.7 -0.75 4.15 0.0 4.05 0.0 3.9 0.0 3.65 -1.25 L3.55 -2.05 3.4 -1.95 Q2.9 -1.55 2.25 -1.25 L0.7 -0.55 -0.4 -0.05 Q-0.6 -0.05 -0.65 -0.35 L-0.65 -0.7 Q-0.65 -1.7 -0.05 -2.75 L0.05 -2.85 Q-0.5 -2.7 -1.5 -2.4 -3.55 -1.9 -4.45 -1.9 L-4.6 -1.9 Q-4.85 -1.9 -4.85 -2.0 L-4.9 -2.1 Q-4.9 -2.6 -4.0 -3.6 L-3.85 -3.75 Q-3.45 -4.15 -3.05 -4.35 -3.55 -4.45 -4.5 -4.85 L-4.65 -4.95 Q-6.1 -5.55 -6.1 -5.7 -5.35 -6.3 -4.6 -6.75 L-4.5 -6.8 -4.05 -7.05 Q-4.25 -7.2 -4.5 -7.45 L-4.75 -7.8 Q-5.3 -8.65 -5.3 -9.0 -5.3 -9.25 -5.15 -9.25 L-4.75 -9.05 Q-4.65 -9.0 -4.5 -8.95 L-3.75 -8.9 Q-3.05 -8.9 -2.45 -9.1 -2.1 -9.2 -1.8 -9.4 -0.85 -9.95 0.35 -10.0 L1.75 -9.95 Q2.15 -9.95 2.55 -9.85 L2.7 -9.8 M2.0 -5.0 L1.95 -5.0 1.95 -5.05 1.9 -5.1 Q1.9 -5.2 2.5 -5.65 L2.7 -5.8 2.45 -6.35 2.3 -6.75 Q2.3 -7.15 2.75 -6.55 L2.9 -6.35 2.95 -6.2 2.95 -6.65 Q2.85 -7.55 2.6 -8.45 L2.3 -9.4 1.65 -9.65 1.25 -9.65 Q1.45 -9.45 1.6 -9.05 1.85 -8.35 1.85 -8.05 1.85 -7.0 1.6 -6.25 1.45 -5.9 1.3 -5.6 L1.05 -5.3 1.0 -5.2 Q0.95 -5.0 0.7 -4.8 L0.55 -4.8 0.55 -4.95 Q0.25 -4.8 -0.15 -4.75 L-0.55 -4.7 Q-0.9 -4.7 -1.2 -4.85 -1.5 -4.65 -1.6 -4.65 L-1.7 -4.65 -1.75 -4.75 Q-1.75 -4.8 -1.55 -5.0 -1.8 -5.25 -1.95 -5.6 -2.1 -6.05 -2.1 -6.75 L-2.15 -6.9 -2.4 -6.85 -2.45 -6.85 -2.65 -6.95 -2.7 -7.0 -2.8 -7.1 -2.6 -7.15 -2.5 -7.15 -2.45 -7.15 Q-2.4 -7.15 -2.2 -7.25 L-2.3 -7.65 -2.45 -7.65 -2.7 -7.7 Q-2.85 -7.7 -2.9 -7.75 -2.75 -7.95 -2.45 -8.05 L-2.45 -8.15 -2.5 -8.2 Q-2.6 -8.45 -2.8 -8.6 L-3.75 -8.5 -4.5 -8.55 -4.55 -8.6 -4.85 -8.65 -4.55 -8.2 -4.5 -8.15 Q-4.2 -7.8 -3.8 -7.45 L-3.45 -7.25 Q-3.3 -7.1 -3.15 -7.1 L-3.15 -7.05 -3.2 -7.05 -3.35 -6.9 -3.45 -6.85 -4.1 -6.45 -4.5 -6.2 Q-5.2 -5.8 -5.45 -5.7 L-5.4 -5.7 -5.35 -5.65 Q-5.1 -5.5 -4.75 -5.35 L-4.5 -5.2 -4.15 -5.05 Q-3.7 -4.8 -2.8 -4.75 L-2.45 -4.75 Q-2.1 -4.7 -2.1 -4.55 -2.1 -4.4 -2.35 -4.35 L-2.45 -4.25 -3.05 -3.75 -3.5 -3.35 -3.55 -3.3 -3.7 -3.2 -4.3 -2.45 -4.35 -2.45 -4.4 -2.3 -4.1 -2.35 -3.6 -2.4 -3.55 -2.45 -3.15 -2.5 -3.1 -2.5 Q-2.0 -2.65 -1.65 -2.8 L-0.2 -3.3 Q0.55 -3.55 0.55 -3.15 L0.15 -2.25 -0.2 -1.3 0.65 -1.95 Q1.05 -2.25 1.4 -2.5 L1.4 -2.55 Q1.05 -2.45 0.9 -2.45 0.75 -2.45 0.65 -2.5 0.6 -2.5 0.6 -2.6 0.6 -2.65 1.6 -3.05 L1.85 -3.7 1.9 -3.75 2.0 -3.95 2.1 -3.85 2.1 -3.25 2.25 -3.3 2.3 -3.4 2.4 -3.7 2.4 -3.75 2.65 -4.6 2.85 -5.35 Q2.55 -5.15 2.1 -5.0 L2.0 -5.0 M0.85 -9.7 L0.7 -9.7 Q-0.55 -9.7 -1.6 -9.1 -2.0 -8.85 -2.45 -8.7 L-2.5 -8.7 -2.45 -8.65 Q-2.4 -8.5 -2.3 -8.3 L-2.3 -8.25 -2.25 -8.1 Q-1.95 -8.1 -1.8 -7.95 -1.85 -7.85 -2.0 -7.75 L-2.15 -7.7 -2.1 -7.3 -1.9 -7.4 Q-1.55 -7.55 -1.55 -7.3 -1.55 -7.15 -1.85 -7.0 L-2.0 -6.9 -2.0 -6.85 Q-1.75 -5.7 -1.35 -5.2 L-1.15 -5.35 Q-0.6 -5.85 -0.6 -5.4 -0.6 -5.25 -1.0 -4.95 -0.85 -4.9 -0.6 -4.9 0.1 -4.9 0.6 -5.25 L0.8 -5.85 Q1.05 -6.6 1.05 -5.7 L1.3 -6.15 Q1.7 -6.9 1.7 -7.7 1.7 -8.2 1.45 -8.85 1.25 -9.4 1.0 -9.7 L0.85 -9.7" fill="#000000" fill-rule="evenodd" stroke="none"/>
      <path d="M-4.1 -2.35 L-4.2 -2.3 Q-3.65 -2.6 -3.45 -2.75 -2.9 -3.05 -1.85 -3.6 -0.75 -4.2 -0.4 -4.3 -0.65 -4.0 -1.5 -3.4 L-2.75 -2.6 Q-1.55 -2.95 -0.55 -3.55 L-0.25 -3.7 2.0 -5.0 2.1 -5.0 Q2.55 -5.15 2.85 -5.35 L2.65 -4.6 2.4 -3.75 2.4 -3.7 2.3 -3.4 2.25 -3.3 2.1 -3.25 2.1 -3.85 2.0 -3.95 1.9 -3.75 1.85 -3.7 1.6 -3.05 Q0.6 -2.65 0.6 -2.6 0.6 -2.5 0.65 -2.5 0.75 -2.45 0.9 -2.45 1.05 -2.45 1.4 -2.55 L1.4 -2.5 Q1.05 -2.25 0.65 -1.95 L-0.2 -1.3 0.15 -2.25 0.55 -3.15 Q0.55 -3.55 -0.2 -3.3 L-1.65 -2.8 Q-2.0 -2.65 -3.1 -2.5 L-3.15 -2.5 -3.55 -2.45 -3.6 -2.4 -4.1 -2.35" fill="#3c4847" fill-rule="evenodd" stroke="none"/>
      <path d="M3.4 -5.75 L3.5 -5.8 Q4.25 -6.2 4.8 -6.2 5.35 -6.2 5.7 -5.65 L5.7 -5.6 5.7 -5.15 Q5.7 -4.6 5.6 -4.0 5.2 -3.3 4.8 -2.6 4.2 -1.5 4.05 -0.95 L4.05 -0.8 3.95 -1.2 Q3.9 -1.5 3.9 -1.7 L3.95 -2.25 3.9 -2.5 Q3.95 -2.6 3.95 -2.7 L3.95 -2.85 3.85 -2.9 3.75 -2.9 Q3.6 -2.9 3.45 -2.65 L3.2 -2.3 Q3.0 -2.15 2.7 -1.95 2.35 -1.75 2.1 -1.65 1.65 -1.4 0.8 -1.05 0.0 -0.75 -0.3 -0.55 L-0.3 -0.95 Q-0.15 -1.15 0.15 -1.4 0.65 -1.85 1.25 -2.2 L1.3 -2.2 Q1.2 -1.85 1.2 -1.75 L1.2 -1.55 1.3 -1.55 Q1.75 -1.55 2.0 -2.6 L2.0 -2.75 2.1 -2.8 Q3.0 -3.15 3.0 -3.35 L2.35 -3.35 2.55 -3.7 2.55 -3.8 3.0 -5.15 3.3 -4.45 Q3.4 -4.45 3.45 -4.65 L3.45 -4.95 Q3.45 -5.25 3.3 -5.65 L3.4 -5.75" fill="#4f5860" fill-rule="evenodd" stroke="none"/>
      <path d="M-2.7 -7.0 L-2.65 -6.95 -2.45 -6.85 -2.4 -6.85 -2.15 -6.9 -2.1 -6.75 Q-2.1 -6.05 -1.95 -5.6 -1.8 -5.25 -1.55 -5.0 -1.75 -4.8 -1.75 -4.75 L-1.7 -4.65 -1.6 -4.65 Q-1.5 -4.65 -1.2 -4.85 -0.9 -4.7 -0.55 -4.7 L-0.15 -4.75 Q0.25 -4.8 0.55 -4.95 L0.55 -4.8 0.7 -4.8 Q0.95 -5.0 1.0 -5.2 L1.05 -5.3 1.3 -5.6 Q1.45 -5.9 1.6 -6.25 1.85 -7.0 1.85 -8.05 1.85 -8.35 1.6 -9.05 1.45 -9.45 1.25 -9.65 L1.65 -9.65 2.3 -9.4 2.6 -8.45 Q2.85 -7.55 2.95 -6.65 L2.95 -6.2 2.9 -6.35 2.75 -6.55 Q2.3 -7.15 2.3 -6.75 L2.45 -6.35 2.7 -5.8 2.5 -5.65 Q1.9 -5.2 1.9 -5.1 L1.95 -5.05 1.95 -5.0 2.0 -5.0 -0.25 -3.7 -0.55 -3.55 Q-1.55 -2.95 -2.75 -2.6 L-1.5 -3.4 Q-0.65 -4.0 -0.4 -4.3 -0.75 -4.2 -1.85 -3.6 -2.9 -3.05 -3.45 -2.75 -3.65 -2.6 -4.2 -2.3 L-4.1 -2.35 -4.4 -2.3 -4.35 -2.45 -4.3 -2.45 -3.7 -3.2 -3.55 -3.3 -3.5 -3.35 -3.05 -3.75 -2.45 -4.25 -2.35 -4.35 Q-2.1 -4.4 -2.1 -4.55 -2.1 -4.7 -2.45 -4.75 L-2.8 -4.75 Q-3.7 -4.8 -4.15 -5.05 L-4.5 -5.2 -4.75 -5.35 Q-5.1 -5.5 -5.35 -5.65 -4.8 -5.75 -4.1 -6.05 -3.1 -6.4 -2.65 -6.95 L-2.7 -7.0 M-4.55 -8.2 Q-4.15 -8.0 -3.65 -8.0 -3.1 -8.0 -2.5 -8.2 L-2.45 -8.15 -2.45 -8.05 Q-2.75 -7.95 -2.9 -7.75 -2.85 -7.7 -2.7 -7.7 L-2.45 -7.65 -2.3 -7.65 -2.2 -7.25 Q-2.4 -7.15 -2.45 -7.15 L-2.5 -7.15 -2.4 -7.45 -3.15 -7.05 -3.2 -7.05 -3.15 -7.05 -3.15 -7.1 Q-3.3 -7.1 -3.45 -7.25 L-3.8 -7.45 Q-4.2 -7.8 -4.5 -8.15 L-4.55 -8.2" fill="#1e2728" fill-rule="evenodd" stroke="none"/>
      <path d="M3.4 -5.75 L3.45 -5.75 3.55 -5.85 3.6 -5.95 Q3.9 -6.3 3.9 -6.65 L3.9 -6.75 Q3.9 -7.05 3.7 -6.8 3.35 -6.35 3.15 -6.1 L3.15 -7.0 Q3.15 -7.4 2.85 -8.4 2.65 -9.0 2.5 -9.35 L2.65 -9.25 2.8 -9.2 3.25 -9.0 3.3 -8.95 3.5 -8.85 Q4.2 -8.45 4.7 -7.95 L5.0 -7.6 5.2 -7.3 5.2 -7.25 Q5.4 -6.9 5.55 -6.5 L5.6 -6.35 5.65 -5.9 5.7 -5.6 5.7 -5.65 Q5.35 -6.2 4.8 -6.2 4.25 -6.2 3.5 -5.8 L3.4 -5.75 M5.6 -4.0 L5.55 -3.75 5.3 -2.8 Q4.8 -1.3 4.1 -0.65 L4.1 -0.7 4.05 -0.8 4.05 -0.95 Q4.2 -1.5 4.8 -2.6 5.2 -3.3 5.6 -4.0" fill="#262d37" fill-rule="evenodd" stroke="none"/>
      <path d="M-2.3 -8.3 Q-2.0 -8.45 -1.55 -8.7 L-0.6 -9.25 0.75 -9.65 0.85 -9.7 1.0 -9.7 Q1.25 -9.4 1.45 -8.85 1.7 -8.2 1.7 -7.7 1.7 -6.9 1.3 -6.15 L1.05 -5.7 Q1.05 -6.6 0.8 -5.85 L0.6 -5.25 Q0.1 -4.9 -0.6 -4.9 -0.85 -4.9 -1.0 -4.95 -0.6 -5.25 -0.6 -5.4 -0.6 -5.85 -1.15 -5.35 L-1.35 -5.2 Q-1.75 -5.7 -2.0 -6.85 L-2.0 -6.9 -1.85 -7.0 Q-1.55 -7.15 -1.55 -7.3 -1.55 -7.55 -1.9 -7.4 L-2.1 -7.3 -2.15 -7.7 -2.0 -7.75 Q-1.85 -7.85 -1.8 -7.95 -1.95 -8.1 -2.25 -8.1 L-2.3 -8.25 -2.3 -8.3" fill="#364140" fill-rule="evenodd" stroke="none"/>
      <path d="M-2.7 -7.0 L-2.65 -6.95 Q-3.1 -6.4 -4.1 -6.05 -4.8 -5.75 -5.35 -5.65 L-5.4 -5.7 -5.45 -5.7 Q-5.2 -5.8 -4.5 -6.2 L-4.1 -6.45 -3.45 -6.85 -3.35 -6.9 -3.2 -7.05 -3.15 -7.05 -2.4 -7.45 -2.5 -7.15 -2.6 -7.15 -2.8 -7.1 -2.7 -7.0 M-2.3 -8.3 Q-2.4 -8.5 -2.45 -8.65 L-2.5 -8.7 -2.45 -8.7 Q-2.0 -8.85 -1.6 -9.1 -0.55 -9.7 0.7 -9.7 L0.85 -9.7 0.75 -9.65 -0.6 -9.25 -1.55 -8.7 Q-2.0 -8.45 -2.3 -8.3 M-4.55 -8.2 L-4.85 -8.65 -4.55 -8.6 -4.5 -8.55 -3.75 -8.5 -2.8 -8.6 Q-2.6 -8.45 -2.5 -8.2 -3.1 -8.0 -3.65 -8.0 -4.15 -8.0 -4.55 -8.2" fill="#495a9c" fill-rule="evenodd" stroke="none"/>
    </g>
    <g id="sprite3" transform="matrix(1.0, 0.0, 0.0, 1.0, 42.0, 98.35)">
      <use ffdec:characterId="375" height="14.05" transform="matrix(7.0, 0.0, 0.0, 7.0, -42.0, -98.35)" width="12.05" xlink:href="#shape3"/>
    </g>
    <g id="shape3" transform="matrix(1.0, 0.0, 0.0, 1.0, 6.0, 14.05)">
      <path d="M1.4 -9.0 L1.5 -9.0 Q2.15 -8.75 2.75 -8.45 3.75 -7.9 4.35 -7.4 4.45 -7.3 5.3 -6.9 5.8 -6.65 5.95 -6.55 L6.0 -6.55 6.05 -6.5 Q6.05 -6.4 6.0 -6.35 5.9 -6.05 5.35 -5.45 L4.8 -4.8 4.75 -4.5 Q4.75 -4.1 4.95 -3.15 L5.0 -2.95 5.1 -1.9 Q5.1 -1.5 5.05 -1.25 L4.95 -0.95 4.85 -0.8 Q4.5 -0.3 3.6 -0.15 L3.4 -0.05 3.0 0.0 1.6 0.0 -0.2 -0.05 Q-0.8 -0.15 -1.55 -0.4 -2.1 -0.5 -2.5 -0.85 -2.95 -1.1 -3.3 -1.35 -3.85 -1.55 -4.3 -2.05 -4.85 -2.55 -4.85 -3.0 -4.85 -3.2 -4.75 -3.45 -4.75 -3.65 -4.45 -4.25 -4.1 -4.9 -4.1 -5.55 -4.1 -6.4 -5.1 -7.1 L-5.15 -7.15 -5.7 -7.2 Q-5.9 -7.2 -5.95 -7.3 -6.0 -7.35 -5.95 -7.45 L-5.95 -7.6 -5.55 -8.2 -4.8 -8.7 Q-4.7 -8.75 -4.65 -8.85 L-4.25 -9.0 -3.8 -9.2 Q-2.5 -9.55 -1.45 -9.55 L-0.9 -9.5 Q-0.3 -9.45 0.45 -9.3 L0.6 -9.25 1.4 -9.0 M1.2 -8.35 Q1.5 -8.25 1.5 -8.1 L1.5 -7.95 1.45 -7.95 1.35 -7.9 Q1.2 -7.9 0.95 -8.05 L0.9 -7.9 0.8 -7.7 0.85 -7.7 Q1.35 -7.7 1.35 -7.4 L1.3 -7.3 Q1.25 -7.2 1.1 -7.2 L0.75 -7.2 0.75 -7.1 Q0.75 -6.65 1.05 -6.0 L1.1 -5.85 1.2 -5.9 Q1.65 -6.15 1.65 -5.85 1.65 -5.7 1.4 -5.55 L1.3 -5.5 1.5 -5.15 1.9 -5.4 2.45 -6.0 Q3.2 -6.65 4.3 -6.65 L4.65 -6.7 3.2 -7.6 Q2.25 -8.2 1.4 -8.5 L1.2 -8.35 M-1.75 -2.65 L-1.3 -3.0 -1.2 -3.05 -1.0 -3.2 -0.45 -3.55 0.05 -3.9 0.3 -4.05 1.4 -5.05 1.3 -5.2 1.15 -5.45 0.85 -5.25 0.7 -5.3 0.7 -5.4 Q0.7 -5.6 1.05 -5.85 L0.85 -6.2 Q0.65 -6.7 0.65 -7.1 L0.65 -7.25 0.5 -7.3 Q0.3 -7.35 0.3 -7.45 0.3 -7.65 0.7 -7.65 L0.8 -8.05 0.8 -8.15 0.35 -8.45 0.35 -8.55 0.95 -8.45 1.15 -8.6 Q-0.1 -9.1 -1.15 -9.1 -2.3 -9.1 -3.35 -8.85 L-3.95 -8.65 Q-4.5 -8.45 -4.9 -8.2 L-5.2 -7.95 -5.3 -7.85 -5.1 -7.7 -5.05 -7.65 -4.8 -7.6 Q-4.35 -7.4 -4.05 -6.9 L-3.85 -6.65 Q-3.6 -6.2 -3.6 -5.85 L-3.65 -5.65 -3.65 -5.5 Q-3.65 -4.75 -4.0 -4.0 L-4.4 -3.15 Q-4.4 -2.6 -3.6 -1.9 L-3.45 -1.75 -3.45 -1.85 -3.0 -2.3 -2.35 -2.9 -1.05 -4.05 -0.6 -4.6 -0.35 -4.85 -0.25 -5.05 -0.2 -5.05 0.6 -6.0 Q0.25 -5.45 -0.2 -4.9 L-0.25 -4.85 -0.65 -4.4 Q-0.95 -4.05 -1.35 -3.75 L-2.6 -2.5 Q-2.75 -2.35 -2.8 -2.15 L-2.85 -2.0 -2.95 -1.6 Q-2.75 -1.05 -1.9 -0.75 L-1.85 -0.75 -2.15 -1.05 Q-2.3 -1.3 -2.4 -1.55 L-2.4 -1.7 -2.35 -1.8 -2.2 -2.15 -2.1 -2.3 -1.75 -2.65 M3.4 -8.8 L3.4 -8.8 M3.1 -4.65 L3.0 -4.35 3.0 -4.3 2.7 -3.3 2.7 -3.2 Q2.6 -2.95 2.6 -2.8 L2.6 -2.6 2.65 -2.55 2.75 -2.5 Q2.8 -2.5 2.85 -2.55 3.15 -2.55 3.35 -3.1 3.5 -3.5 3.5 -3.8 3.5 -3.95 3.35 -4.25 3.25 -4.55 3.1 -4.65 L3.1 -4.65 M0.9 -4.25 L0.8 -4.1 -0.1 -3.5 Q0.05 -3.2 0.2 -2.95 0.55 -2.4 1.2 -2.4 1.35 -2.4 1.6 -2.8 L1.7 -3.45 1.7 -3.55 Q1.6 -3.85 1.35 -4.2 L1.15 -4.45 0.95 -4.25 0.9 -4.25 M0.75 -1.05 Q0.75 -1.4 0.95 -1.5 1.2 -1.65 1.3 -0.95 L2.3 -0.9 2.4 -0.9 2.45 -0.95 2.45 -1.05 Q2.45 -1.2 2.35 -1.3 2.25 -1.4 2.1 -1.3 L2.1 -1.25 Q1.9 -1.05 1.8 -1.05 1.65 -1.05 1.55 -1.3 1.5 -1.5 1.5 -1.6 L-0.05 -1.7 -0.3 -1.25 -0.3 -1.2 -0.4 -1.15 Q-0.5 -1.15 -0.7 -1.55 L-0.7 -1.6 Q-1.0 -1.45 -1.0 -1.25 L-0.95 -1.15 -0.15 -1.15 0.0 -1.3 Q0.1 -1.5 0.25 -1.6 0.5 -1.7 0.5 -1.2 L0.5 -1.05 0.75 -1.05" fill="#000000" fill-rule="evenodd" stroke="none"/>
      <path d="M-5.2 -7.95 L-4.9 -8.2 Q-4.5 -8.45 -3.95 -8.65 L-3.35 -8.85 Q-2.3 -9.1 -1.15 -9.1 -0.1 -9.1 1.15 -8.6 L0.95 -8.45 0.35 -8.55 0.35 -8.45 0.8 -8.15 0.8 -8.05 0.7 -7.65 Q0.3 -7.65 0.3 -7.45 0.3 -7.35 0.5 -7.3 L0.65 -7.25 0.65 -7.1 Q0.65 -6.7 0.85 -6.2 L1.05 -5.85 Q0.7 -5.6 0.7 -5.4 L0.7 -5.3 0.85 -5.25 1.15 -5.45 1.3 -5.2 1.4 -5.05 0.3 -4.05 0.05 -3.9 -0.45 -3.55 -1.0 -3.2 -1.2 -3.05 -1.3 -3.0 -1.75 -2.65 -1.7 -2.7 -1.6 -3.1 -1.35 -3.4 -1.2 -3.6 Q-0.3 -4.4 -0.25 -4.85 L-0.2 -4.9 Q0.25 -5.45 0.6 -6.0 L-0.2 -5.05 -0.2 -5.5 Q-0.15 -6.35 -0.75 -7.05 -1.45 -7.95 -2.95 -8.15 L-3.95 -8.15 Q-4.45 -8.15 -5.05 -8.0 L-5.2 -7.95" fill="#3c4847" fill-rule="evenodd" stroke="none"/>
      <path d="M1.2 -8.35 L1.4 -8.5 Q2.25 -8.2 3.2 -7.6 L4.65 -6.7 4.3 -6.65 Q3.2 -6.65 2.45 -6.0 L1.9 -5.4 1.5 -5.15 1.3 -5.5 1.4 -5.55 Q1.65 -5.7 1.65 -5.85 1.65 -6.15 1.2 -5.9 L1.1 -5.85 1.05 -6.0 Q0.75 -6.65 0.75 -7.1 L0.75 -7.2 1.1 -7.2 Q1.25 -7.2 1.3 -7.3 L1.35 -7.4 Q1.35 -7.7 0.85 -7.7 L0.8 -7.7 0.9 -7.9 0.95 -8.05 Q1.2 -7.9 1.35 -7.9 L1.45 -7.95 1.5 -7.95 1.5 -8.1 Q1.5 -8.25 1.2 -8.35" fill="#4f605e" fill-rule="evenodd" stroke="none"/>
      <path d="M0.9 -4.25 L0.95 -4.25 1.15 -4.45 1.35 -4.2 Q1.6 -3.85 1.7 -3.55 L1.7 -3.45 1.6 -2.8 Q1.35 -2.4 1.2 -2.4 0.55 -2.4 0.2 -2.95 0.05 -3.2 -0.1 -3.5 L0.8 -4.1 0.9 -4.25 M3.1 -4.65 L3.1 -4.65 Q3.25 -4.55 3.35 -4.25 3.5 -3.95 3.5 -3.8 3.5 -3.5 3.35 -3.1 3.15 -2.55 2.85 -2.55 2.8 -2.5 2.75 -2.5 L2.65 -2.55 2.6 -2.6 2.6 -2.8 Q2.6 -2.95 2.7 -3.2 L2.7 -3.3 3.0 -4.3 3.0 -4.35 3.1 -4.65 M0.75 -1.05 L0.5 -1.05 0.5 -1.2 Q0.5 -1.7 0.25 -1.6 0.1 -1.5 0.0 -1.3 L-0.15 -1.15 -0.95 -1.15 -1.0 -1.25 Q-1.0 -1.45 -0.7 -1.6 L-0.7 -1.55 Q-0.5 -1.15 -0.4 -1.15 L-0.3 -1.2 -0.3 -1.25 -0.05 -1.7 1.5 -1.6 Q1.5 -1.5 1.55 -1.3 1.65 -1.05 1.8 -1.05 1.9 -1.05 2.1 -1.25 L2.1 -1.3 Q2.25 -1.4 2.35 -1.3 2.45 -1.2 2.45 -1.05 L2.45 -0.95 2.4 -0.9 2.3 -0.9 1.3 -0.95 Q1.2 -1.65 0.95 -1.5 0.75 -1.4 0.75 -1.05" fill="#00ff99" fill-rule="evenodd" stroke="none"/>
      <path d="M-5.2 -7.95 L-5.05 -8.0 Q-4.45 -8.15 -3.95 -8.15 L-2.95 -8.15 Q-1.45 -7.95 -0.75 -7.05 -0.15 -6.35 -0.2 -5.5 L-0.2 -5.05 -0.25 -5.05 -0.35 -4.85 -0.6 -4.6 -1.05 -4.05 -2.35 -2.9 -3.0 -2.3 Q-3.35 -2.8 -3.35 -3.35 -3.35 -3.75 -3.15 -4.35 -2.95 -4.95 -2.95 -5.45 -2.95 -5.9 -3.05 -6.2 -3.15 -6.55 -3.35 -6.9 -3.65 -7.35 -4.3 -7.65 -4.55 -7.8 -5.1 -7.7 L-5.3 -7.85 -5.2 -7.95 M-0.25 -4.85 Q-0.3 -4.4 -1.2 -3.6 L-1.35 -3.4 -1.6 -3.1 -1.7 -2.7 -1.75 -2.65 -2.1 -2.3 -2.2 -2.15 -2.35 -1.8 -2.65 -2.05 -2.8 -2.15 Q-2.75 -2.35 -2.6 -2.5 L-1.35 -3.75 Q-0.95 -4.05 -0.65 -4.4 L-0.25 -4.85" fill="#1e2728" fill-rule="evenodd" stroke="none"/>
      <path d="M-2.35 -1.8 L-2.4 -1.7 -2.4 -1.55 Q-2.3 -1.3 -2.15 -1.05 L-1.85 -0.75 -1.9 -0.75 Q-2.75 -1.05 -2.95 -1.6 L-2.85 -2.0 -2.8 -2.15 -2.65 -2.05 -2.35 -1.8 M-5.1 -7.7 Q-4.55 -7.8 -4.3 -7.65 -3.65 -7.35 -3.35 -6.9 -3.15 -6.55 -3.05 -6.2 -2.95 -5.9 -2.95 -5.45 -2.95 -4.95 -3.15 -4.35 -3.35 -3.75 -3.35 -3.35 -3.35 -2.8 -3.0 -2.3 L-3.45 -1.85 -3.45 -1.75 -3.6 -1.9 Q-4.4 -2.6 -4.4 -3.15 L-4.0 -4.0 Q-3.65 -4.75 -3.65 -5.5 L-3.65 -5.65 -3.6 -5.85 Q-3.6 -6.2 -3.85 -6.65 L-4.05 -6.9 Q-4.35 -7.4 -4.8 -7.6 L-5.05 -7.65 -5.1 -7.7" fill="#495a9c" fill-rule="evenodd" stroke="none"/>
      <path d="M-3.05 -3.75 L-3.55 -2.6 Q-3.65 -2.7 -3.65 -3.1 L-3.6 -3.3 -4.15 -2.9 -4.25 -3.0 Q-4.25 -3.4 -3.65 -3.95 L-2.4 -4.9 Q-2.4 -4.45 -2.95 -3.9 L-3.05 -3.75" fill="#495a9c" fill-rule="evenodd" stroke="none"/>
      <path d="M2.35 -12.6 L2.35 -12.25 Q2.35 -12.2 2.5 -12.0 L2.65 -11.7 2.65 -11.65 2.6 -11.7 2.6 -11.65 Q2.5 -11.7 2.45 -11.8 L1.4 -12.8 1.3 -12.9 0.55 -13.55 Q1.3 -13.65 1.85 -13.3 2.25 -13.0 2.35 -12.6 M2.35 -9.85 L2.65 -9.55 Q3.05 -8.7 3.25 -8.45 L4.2 -7.35 Q4.7 -6.8 4.7 -6.4 4.7 -6.0 4.3 -5.5 3.75 -4.9 3.55 -4.45 L3.5 -4.1 3.55 -3.95 Q3.55 -3.5 3.45 -3.1 3.3 -2.4 2.85 -2.4 2.55 -2.4 2.45 -2.6 2.4 -2.65 2.4 -2.75 2.4 -2.9 2.5 -3.3 L2.55 -3.75 Q2.55 -4.7 3.15 -5.4 L3.6 -5.85 Q3.75 -6.1 3.75 -6.35 3.75 -6.75 3.3 -7.2 2.85 -7.7 2.8 -8.25 2.7 -8.75 2.5 -9.15 2.2 -9.7 1.5 -9.95 1.95 -10.15 2.3 -9.9 L2.3 -10.0 2.45 -9.85 2.35 -9.85 M0.7 -7.45 Q1.15 -7.4 1.5 -7.05 L1.65 -6.9 Q2.0 -6.8 2.2 -6.25 L2.35 -6.05 Q2.5 -5.8 2.5 -5.0 2.5 -4.75 2.2 -4.3 L1.95 -4.0 Q2.0 -3.9 2.0 -3.85 2.0 -3.3 1.9 -3.0 1.7 -2.3 1.0 -2.3 0.4 -2.3 0.1 -2.7 L-0.05 -2.9 Q-0.2 -3.1 -0.25 -3.25 -0.25 -3.6 0.55 -4.1 L1.1 -4.45 1.1 -4.6 Q1.1 -5.1 1.15 -5.55 1.15 -5.9 0.95 -6.4 L0.85 -6.6 Q0.3 -6.9 0.15 -7.2 L-0.1 -7.75 Q-0.2 -7.95 -0.2 -8.2 L-0.2 -8.3 -0.15 -8.35 Q-0.05 -8.3 0.1 -7.95 0.2 -7.55 0.7 -7.45 M0.5 -3.1 L0.7 -2.8 Q0.8 -2.6 1.05 -2.6 1.35 -2.6 1.45 -2.9 1.5 -3.05 1.5 -3.25 1.5 -3.9 1.05 -4.0 0.8 -4.05 0.7 -3.9 0.6 -3.8 0.55 -3.65 L0.5 -3.5 0.35 -3.4 Q0.35 -3.25 0.5 -3.1 M2.75 -2.85 Q2.75 -2.7 2.85 -2.7 3.05 -2.7 3.2 -3.1 3.3 -3.35 3.3 -3.5 3.3 -4.25 3.05 -3.8 2.75 -3.3 2.75 -2.85 M-1.1 -12.8 Q-1.15 -12.8 -1.15 -12.85 -1.2 -12.85 -1.3 -12.85 -1.8 -12.85 -2.0 -12.25 L-2.1 -11.65 Q-2.1 -11.5 -1.35 -10.75 L-1.15 -10.6 -0.95 -10.6 Q-0.65 -10.6 -0.5 -10.25 L-0.25 -9.8 -0.5 -9.85 -0.55 -9.85 -0.55 -9.9 -1.1 -10.2 -1.45 -10.45 -1.5 -10.45 Q-1.6 -10.4 -1.65 -10.4 -2.05 -10.4 -2.15 -10.75 -2.2 -10.95 -2.15 -11.1 L-2.2 -11.55 -2.3 -12.0 Q-2.3 -12.45 -2.05 -12.75 -1.7 -13.15 -1.1 -12.85 L-1.1 -12.8 M-0.3 -13.75 L-0.4 -13.75 -0.45 -13.8 Q-0.45 -13.95 -0.25 -14.0 -0.1 -14.1 0.0 -14.0 L-0.15 -13.85 -0.3 -13.75" fill="#00ff99" fill-opacity="0.46666667" fill-rule="evenodd" stroke="none"/>
      <path d="M0.6 -1.9 Q0.6 -2.15 1.7 -1.7 2.75 -1.25 2.75 -0.85 2.75 -0.75 2.65 -0.65 2.55 -0.6 2.45 -0.6 2.15 -0.6 1.65 -0.8 1.2 -0.95 1.05 -1.1 L0.9 -0.95 Q0.85 -0.85 0.7 -0.85 0.55 -0.85 0.45 -1.0 0.4 -1.05 0.35 -1.1 L0.15 -0.9 -0.6 -0.85 Q-1.15 -0.85 -1.3 -1.0 -1.4 -1.1 -1.35 -1.25 -1.35 -1.7 -0.85 -1.75 L0.0 -1.9 0.6 -1.9" fill="#00ff99" fill-opacity="0.3372549" fill-rule="evenodd" stroke="none"/>
      <path d="M3.15 -3.6 L3.2 -3.5 3.1 -3.25 3.0 -2.95 2.85 -2.9 Q2.8 -2.9 2.8 -3.0 2.8 -3.1 2.9 -3.35 3.0 -3.65 3.1 -3.65 L3.15 -3.6 M1.05 -2.75 Q0.9 -2.9 0.85 -3.05 L0.8 -3.35 Q0.8 -3.8 1.05 -3.7 1.3 -3.65 1.3 -3.15 1.3 -2.85 1.05 -2.75" fill="#ffffff" fill-rule="evenodd" stroke="none"/>
      <path d="M3.15 -3.6 L3.1 -3.65 Q3.0 -3.65 2.9 -3.35 2.8 -3.1 2.8 -3.0 2.8 -2.9 2.85 -2.9 L3.0 -2.95 3.1 -3.25 3.2 -3.5 3.15 -3.6 M0.5 -3.5 L0.55 -3.65 Q0.6 -3.8 0.7 -3.9 0.8 -4.05 1.05 -4.0 1.5 -3.9 1.5 -3.25 1.5 -3.05 1.45 -2.9 1.35 -2.6 1.05 -2.6 0.8 -2.6 0.7 -2.8 L0.5 -3.1 Q0.45 -3.2 0.45 -3.25 L0.5 -3.5 M2.75 -2.85 Q2.75 -3.3 3.05 -3.8 3.3 -4.25 3.3 -3.5 3.3 -3.35 3.2 -3.1 3.05 -2.7 2.85 -2.7 2.75 -2.7 2.75 -2.85 M1.05 -2.75 Q1.3 -2.85 1.3 -3.15 1.3 -3.65 1.05 -3.7 0.8 -3.8 0.8 -3.35 L0.85 -3.05 Q0.9 -2.9 1.05 -2.75" fill="#d5ffee" fill-rule="evenodd" stroke="none"/>
    </g>
  </defs>
</svg>
