<?xml version="1.0" encoding="UTF-8" standalone="no"?>
<svg xmlns:ffdec="https://www.free-decompiler.com/flash" xmlns:xlink="http://www.w3.org/1999/xlink" ffdec:objectType="frame" height="138.95px" width="163.45px" xmlns="http://www.w3.org/2000/svg">
  <g transform="matrix(1.0, 0.0, 0.0, 1.0, 63.35, 100.8)">
    <use ffdec:characterId="1108" height="19.85" transform="matrix(7.0, 0.0, 0.0, 7.0, -63.35, -100.8)" width="23.35" xlink:href="#shape0"/>
  </g>
  <defs>
    <g id="shape0" transform="matrix(1.0, 0.0, 0.0, 1.0, 9.05, 14.4)">
      <path d="M0.05 -14.15 Q0.7 -14.55 0.95 -14.35 1.55 -13.9 2.8 -13.3 3.2 -13.45 3.55 -13.45 L4.75 -13.75 Q5.45 -13.9 5.95 -13.9 7.35 -13.85 8.75 -12.35 9.05 -12.05 9.2 -11.7 9.5 -11.25 9.75 -10.7 10.15 -9.9 10.15 -9.25 10.15 -9.05 10.1 -8.85 11.0 -7.4 11.0 -5.8 11.0 -4.25 10.15 -2.65 11.95 -1.65 11.7 -0.35 11.65 -0.1 11.5 0.2 L11.3 0.2 11.95 0.45 Q12.15 0.5 12.3 0.55 L12.5 0.6 Q13.3 0.8 13.55 1.05 13.75 1.1 13.9 1.2 14.35 1.4 14.3 1.65 14.3 2.2 14.0 3.0 13.8 3.5 13.55 3.8 13.35 4.3 13.05 4.6 12.25 5.4 10.2 5.3 7.75 5.65 3.8 5.25 L2.55 5.05 0.45 4.6 0.0 4.55 -0.55 4.4 -0.7 4.4 -0.7 4.3 Q-1.25 4.1 -2.45 2.9 L-3.45 1.8 Q-4.55 0.8 -5.4 0.1 -5.9 -0.25 -6.1 -0.55 -6.35 -0.65 -6.5 -0.8 -8.2 -2.1 -8.75 -3.1 -9.25 -4.0 -8.85 -4.45 L-8.45 -4.75 Q-8.05 -4.95 -7.95 -5.1 L-4.5 -9.05 Q-4.3 -9.35 -3.2 -10.15 -2.55 -10.6 -2.1 -10.8 L-1.5 -12.15 Q-1.1 -13.1 -0.6 -13.75 -0.45 -13.9 0.05 -14.15 M1.3 -7.9 L1.45 -8.25 1.45 -8.3 1.5 -8.35 1.85 -9.15 2.2 -9.9 Q2.35 -10.3 2.5 -10.5 2.95 -11.1 4.1 -11.15 5.45 -11.6 6.35 -11.5 7.4 -11.4 8.3 -10.8 L8.3 -10.85 8.5 -10.65 Q8.95 -10.2 9.1 -10.05 L9.15 -10.15 Q9.15 -10.5 8.7 -11.1 8.25 -11.8 7.6 -12.25 6.7 -12.85 5.85 -12.9 L5.75 -12.9 5.7 -12.95 5.55 -12.95 Q4.75 -13.1 3.9 -12.85 3.2 -12.65 2.5 -12.2 L2.25 -12.05 2.25 -12.0 2.2 -12.0 Q1.85 -11.75 1.5 -11.45 L1.25 -11.25 0.2 -10.2 0.2 -10.15 -0.05 -9.85 Q-0.35 -9.3 -0.6 -8.4 -0.85 -7.2 -0.8 -6.0 -0.55 -2.75 2.45 -1.1 3.35 -0.6 4.85 -0.4 L5.0 -0.45 5.1 -0.45 7.95 -0.3 9.0 -0.25 9.85 -0.1 10.3 0.0 10.4 0.1 10.45 0.2 10.65 0.2 10.75 0.1 10.75 0.05 10.8 0.05 10.85 -0.15 Q10.95 -0.35 10.85 -0.6 L10.75 -0.85 Q10.5 -1.4 9.6 -1.9 L9.05 -2.25 9.0 -2.3 8.25 -2.4 7.0 -2.55 6.75 -2.55 6.65 -2.55 4.9 -2.7 4.75 -2.7 Q4.3 -2.95 4.05 -3.05 3.85 -3.1 3.75 -3.15 3.3 -3.4 2.9 -3.75 2.2 -4.4 1.65 -5.45 0.8 -6.95 1.15 -7.55 L1.3 -7.9 M8.85 -2.45 L8.9 -2.45 9.3 -2.65 9.3 -2.7 Q10.25 -4.4 9.75 -6.5 9.25 -8.4 7.85 -9.75 6.4 -11.1 4.85 -11.05 L4.35 -11.0 4.1 -10.95 Q2.95 -10.6 2.2 -9.3 L2.1 -9.15 Q1.5 -8.15 1.4 -7.1 L1.45 -7.05 1.4 -6.95 Q1.35 -5.0 3.3 -3.95 4.45 -3.3 6.4 -2.8 L6.6 -2.75 Q8.2 -2.3 8.85 -2.45 M0.3 -13.05 L0.2 -13.1 Q-0.2 -13.1 -0.85 -12.25 -1.1 -11.95 -0.95 -11.4 -0.85 -11.05 -0.85 -10.85 L-0.75 -10.35 -0.7 -10.25 -0.3 -10.85 0.05 -11.25 0.3 -11.5 0.5 -11.75 0.75 -11.95 1.0 -12.2 1.2 -12.35 1.45 -12.55 1.35 -12.6 1.35 -12.65 1.25 -12.65 1.25 -12.7 1.15 -12.7 Q0.55 -13.0 0.3 -13.05 M0.75 -1.15 L0.3 -1.7 Q0.0 -2.15 -0.2 -2.65 L-0.55 -3.0 Q-0.65 -3.3 -0.9 -3.45 L-0.95 -3.55 -0.95 -3.45 -1.05 -3.5 Q-1.5 -3.6 -2.2 -3.25 -2.85 -2.95 -3.4 -2.5 L-3.75 -2.1 Q-4.05 -1.9 -4.3 -1.6 L-4.55 -1.0 -4.65 -0.7 -4.15 -0.3 Q-3.25 0.4 -2.7 0.95 L-2.5 1.15 -2.1 1.4 Q-1.7 1.65 -1.25 2.1 L-1.05 2.3 -0.95 2.35 -0.65 2.65 -0.55 2.2 Q-0.35 1.5 -0.05 1.25 0.0 1.0 0.15 0.75 0.45 0.0 0.95 -0.55 L1.05 -0.7 1.15 -0.8 0.75 -1.15 M-0.25 0.25 Q-0.45 0.35 -0.7 0.45 L-0.3 -0.15 -0.1 0.05 0.0 0.15 -0.25 0.25 M4.1 0.2 L2.65 0.2 2.1 0.05 2.05 0.05 1.8 -0.1 1.75 -0.15 1.8 -0.25 1.75 -0.3 1.45 -0.1 1.4 -0.1 1.15 0.15 1.1 0.15 1.0 0.25 Q0.45 0.8 0.25 1.4 L0.3 1.3 0.45 1.25 0.4 1.3 Q-0.05 1.75 -0.05 2.35 L0.0 2.7 -0.05 2.95 -0.1 2.95 -0.1 3.0 Q-0.1 3.1 0.05 3.4 L0.15 3.55 1.75 3.95 1.85 4.0 2.05 4.0 2.2 4.05 2.45 4.05 Q2.5 3.45 3.05 2.35 L3.25 1.85 Q3.7 1.0 4.05 0.75 4.6 0.35 5.75 0.25 L5.0 0.25 4.9 0.25 4.85 0.25 Q4.1 0.55 3.55 0.7 L3.0 0.85 3.2 0.65 3.3 0.45 3.9 0.3 4.05 0.25 4.1 0.25 4.15 0.2 4.1 0.2 M-1.35 -9.0 L-1.2 -9.35 -0.95 -9.8 -0.85 -10.05 -0.95 -10.2 Q-1.1 -10.3 -1.45 -10.3 L-1.55 -10.1 Q-2.65 -9.3 -3.95 -8.2 -6.55 -6.1 -7.55 -4.8 -7.7 -4.6 -7.85 -4.2 -8.0 -3.55 -7.65 -3.15 L-6.15 -1.95 -5.4 -1.4 Q-4.95 -1.45 -4.15 -2.45 L-3.65 -2.85 -3.05 -3.3 -3.0 -3.35 -2.8 -3.45 Q-2.45 -3.65 -2.15 -3.75 -1.85 -4.15 -1.55 -4.4 L-1.35 -4.55 Q-1.85 -5.95 -1.7 -7.3 -1.65 -8.0 -1.45 -8.7 L-1.35 -8.9 -1.35 -9.0 M13.0 2.05 Q12.8 1.8 12.35 1.6 L11.95 1.4 10.4 0.8 9.1 0.3 Q7.7 0.25 6.5 0.55 L6.65 0.6 Q7.5 0.9 8.65 1.1 L9.1 1.3 10.3 1.65 10.4 1.7 10.45 2.05 10.4 2.25 Q10.3 2.9 10.1 3.5 L10.1 3.65 9.9 4.25 10.0 4.25 Q10.05 4.3 10.25 4.3 10.65 4.35 11.1 4.1 11.45 4.1 11.75 4.0 12.2 3.9 12.4 3.5 L12.45 3.35 12.65 3.2 12.75 2.95 13.1 2.15 13.0 2.05 M3.75 2.0 Q3.35 2.45 3.35 3.05 L3.4 3.95 3.4 4.2 4.45 4.3 Q7.1 4.55 9.0 4.4 L9.3 3.85 Q9.75 3.15 9.75 3.0 L9.8 2.5 9.8 2.35 9.75 2.25 Q9.7 2.05 9.55 1.85 8.9 1.1 6.45 0.8 6.2 0.8 5.9 0.9 L5.5 0.85 Q4.25 1.3 3.75 2.0" fill="#111111" fill-rule="evenodd" stroke="none"/>
      <path d="M8.3 -10.85 L8.25 -10.9 8.25 -11.0 8.2 -11.05 8.0 -11.15 Q7.15 -12.0 6.7 -12.2 4.4 -13.1 2.55 -11.7 1.65 -11.0 1.05 -9.85 L1.0 -9.9 0.95 -9.9 1.0 -10.1 1.25 -10.35 Q1.45 -10.55 1.5 -10.65 1.55 -10.8 1.5 -11.05 1.5 -11.3 1.55 -11.4 L1.65 -11.5 1.7 -11.5 2.25 -12.0 2.25 -12.05 2.5 -12.2 Q3.2 -12.65 3.9 -12.85 4.75 -13.1 5.55 -12.95 L5.7 -12.95 5.75 -12.9 5.85 -12.9 Q6.7 -12.85 7.6 -12.25 8.25 -11.8 8.7 -11.1 9.15 -10.5 9.15 -10.15 L9.1 -10.05 Q8.95 -10.2 8.5 -10.65 L8.3 -10.85 M9.6 -1.9 L9.6 -1.85 Q9.55 -1.7 9.5 -1.65 L9.4 -1.6 8.9 -1.75 Q8.4 -1.95 8.25 -2.15 L8.2 -2.4 8.25 -2.4 9.0 -2.3 9.05 -2.25 9.6 -1.9 M6.75 -2.55 L7.7 -2.1 4.95 -2.35 3.2 -2.55 Q2.85 -2.7 2.25 -3.2 1.55 -3.75 1.0 -4.4 -0.3 -6.05 0.15 -7.5 0.1 -7.95 0.3 -8.75 L0.6 -9.25 0.95 -9.85 1.0 -9.8 Q0.9 -9.5 0.8 -8.45 L0.6 -7.45 Q0.9 -6.8 1.05 -6.25 1.2 -5.45 1.3 -5.1 1.5 -4.65 2.05 -4.25 2.35 -4.0 2.9 -3.75 3.3 -3.4 3.75 -3.15 3.85 -3.1 4.05 -3.05 4.3 -2.95 4.75 -2.7 L4.9 -2.7 6.65 -2.55 6.75 -2.55 M3.55 0.7 Q4.1 0.55 4.85 0.25 L4.9 0.25 5.0 0.25 5.75 0.25 Q4.6 0.35 4.05 0.75 3.7 1.0 3.25 1.85 L3.05 2.35 Q2.5 3.45 2.45 4.05 L2.2 4.05 2.05 4.0 1.85 4.0 1.75 3.95 Q1.8 3.6 1.95 3.2 L2.2 2.55 2.25 2.45 Q2.65 1.55 3.15 0.95 3.25 0.85 3.55 0.7 M10.4 2.25 L10.45 2.05 10.4 1.7 10.3 1.65 9.1 1.3 8.65 1.1 Q7.5 0.9 6.65 0.6 L6.5 0.55 Q7.7 0.25 9.1 0.3 L10.4 0.8 11.95 1.4 12.35 1.6 Q12.8 1.8 13.0 2.05 L10.4 2.25 M3.75 2.0 Q4.25 1.3 5.5 0.85 L5.9 0.9 Q6.2 0.8 6.45 0.8 8.9 1.1 9.55 1.85 9.7 2.05 9.75 2.25 9.2 2.3 8.65 2.3 L4.3 2.1 3.75 2.0" fill="#d0f0f0" fill-rule="evenodd" stroke="none"/>
      <path d="M8.0 -11.15 L7.95 -11.15 Q6.95 -11.6 6.1 -11.75 5.55 -11.85 4.65 -11.75 3.8 -11.65 3.5 -11.5 2.25 -10.8 1.55 -9.05 1.25 -8.35 1.3 -7.9 L1.15 -7.55 Q0.8 -6.95 1.65 -5.45 2.2 -4.4 2.9 -3.75 2.35 -4.0 2.05 -4.25 1.5 -4.65 1.3 -5.1 1.2 -5.45 1.05 -6.25 0.9 -6.8 0.6 -7.45 L0.8 -8.45 Q0.9 -9.5 1.0 -9.8 L0.95 -9.85 0.6 -9.25 0.3 -8.75 Q0.1 -7.95 0.15 -7.5 -0.3 -6.05 1.0 -4.4 1.55 -3.75 2.25 -3.2 2.85 -2.7 3.2 -2.55 L4.95 -2.35 7.7 -2.1 6.75 -2.55 7.0 -2.55 8.25 -2.4 8.2 -2.4 8.25 -2.15 Q8.4 -1.95 8.9 -1.75 L9.4 -1.6 9.5 -1.65 Q9.55 -1.7 9.6 -1.85 L9.6 -1.9 Q10.5 -1.4 10.75 -0.85 L10.85 -0.6 10.55 -0.75 6.8 -1.4 Q3.05 -2.1 2.8 -2.2 0.25 -3.2 -0.1 -6.5 -0.25 -7.65 -0.05 -8.9 0.05 -9.65 0.2 -10.15 L0.2 -10.2 1.25 -11.25 1.5 -11.45 Q1.85 -11.75 2.2 -12.0 L2.25 -12.0 2.25 -12.05 2.25 -12.0 1.7 -11.5 1.65 -11.5 1.55 -11.4 Q1.5 -11.3 1.5 -11.05 1.55 -10.8 1.5 -10.65 1.45 -10.55 1.25 -10.35 L1.0 -10.1 0.95 -9.9 1.0 -9.9 1.05 -9.85 Q1.65 -11.0 2.55 -11.7 4.4 -13.1 6.7 -12.2 7.15 -12.0 8.0 -11.15 M0.3 -13.05 Q0.55 -13.0 1.15 -12.7 L1.25 -12.7 1.25 -12.65 1.35 -12.65 1.35 -12.6 1.45 -12.55 1.2 -12.35 0.9 -12.1 0.75 -11.95 0.5 -11.75 0.3 -11.5 0.2 -11.6 Q0.0 -11.75 0.0 -12.05 0.05 -12.3 0.15 -12.4 0.25 -12.55 0.5 -12.6 L0.55 -12.6 0.3 -13.05 M0.05 -11.25 L-0.3 -10.85 Q-0.35 -10.95 -0.3 -11.1 L-0.25 -11.25 0.05 -11.25 M-0.1 0.05 Q0.15 -0.4 0.45 -0.75 L0.75 -1.15 1.15 -0.8 1.05 -0.7 0.95 -0.55 Q0.45 0.0 0.15 0.75 0.0 1.0 -0.05 1.25 -0.35 1.5 -0.55 2.2 L-0.65 2.65 -0.95 2.35 -1.05 2.3 Q-0.9 1.7 -0.65 1.05 L-0.25 0.25 0.0 0.15 -0.1 0.05 M4.1 0.2 L4.15 0.2 4.1 0.25 4.1 0.2 M3.2 0.65 L3.0 0.85 3.55 0.7 Q3.25 0.85 3.15 0.95 2.65 1.55 2.25 2.45 L2.2 2.55 1.95 3.2 Q1.8 3.6 1.75 3.95 L0.15 3.55 0.05 3.4 Q-0.1 3.1 -0.1 3.0 L-0.1 2.95 -0.05 2.95 0.0 2.7 -0.05 2.35 Q-0.05 1.75 0.4 1.3 L0.45 1.25 0.3 1.3 0.25 1.4 Q0.45 0.8 1.0 0.25 1.4 0.75 2.2 0.75 L3.2 0.65 M4.9 0.25 L5.0 0.25 4.9 0.25 M10.75 0.1 L10.65 0.2 10.45 0.2 10.4 0.1 10.75 0.1 M-3.7 -7.45 L-3.55 -7.6 -3.5 -7.6 Q-3.25 -7.5 -3.2 -7.4 -3.15 -7.3 -3.3 -7.1 -3.35 -7.05 -3.7 -7.0 L-3.8 -7.25 -3.85 -7.25 -3.7 -7.45 M-1.35 -9.0 L-1.35 -8.9 -1.35 -9.0 M-3.65 -2.85 L-4.15 -2.45 Q-4.95 -1.45 -5.4 -1.4 L-6.15 -1.95 -5.9 -2.4 -5.75 -2.75 -5.95 -2.9 Q-6.2 -3.05 -6.25 -3.3 -6.3 -3.55 -6.15 -3.7 -5.7 -4.25 -5.25 -3.85 L-5.2 -3.8 -4.65 -4.7 Q-4.4 -4.8 -4.1 -5.0 L-3.5 -5.5 Q-3.3 -5.75 -3.35 -6.0 -3.4 -6.2 -3.55 -6.35 L-2.75 -7.4 -2.5 -7.6 Q-2.35 -7.75 -2.25 -7.8 L-2.1 -7.9 Q-2.35 -6.55 -3.45 -3.65 L-3.75 -2.8 -3.65 -2.85 M-5.4 -5.5 Q-5.15 -5.8 -4.8 -5.5 -4.5 -5.15 -4.75 -4.85 -4.85 -4.75 -4.95 -4.7 -5.15 -4.6 -5.4 -4.75 -5.55 -4.9 -5.5 -5.15 -5.5 -5.35 -5.4 -5.5 M-4.5 -3.75 Q-4.25 -3.6 -4.1 -3.7 L-3.95 -3.85 Q-3.85 -3.95 -3.85 -4.05 -3.85 -4.3 -4.35 -4.5 -4.4 -4.45 -4.6 -4.35 L-4.7 -4.05 -4.65 -3.95 Q-4.6 -3.85 -4.5 -3.75 M13.0 2.05 L13.1 2.15 12.75 2.95 12.65 3.2 12.45 3.35 12.4 3.5 Q12.2 3.9 11.75 4.0 11.45 4.1 11.1 4.1 10.65 4.35 10.25 4.3 10.05 4.3 10.0 4.25 L9.9 4.25 10.1 3.65 10.1 3.5 Q10.3 2.9 10.4 2.25 L13.0 2.05 M9.75 2.25 L9.8 2.35 9.8 2.5 9.75 3.0 Q9.75 3.15 9.3 3.85 L9.0 4.4 Q7.1 4.55 4.45 4.3 L3.4 4.2 3.4 3.95 3.35 3.05 Q3.35 2.45 3.75 2.0 L4.3 2.1 8.65 2.3 Q9.2 2.3 9.75 2.25" fill="#80c0f0" fill-rule="evenodd" stroke="none"/>
      <path d="M8.0 -11.15 L8.2 -11.05 8.25 -11.0 8.25 -10.9 8.3 -10.85 8.3 -10.8 Q7.4 -11.4 6.35 -11.5 5.45 -11.6 4.1 -11.15 2.95 -11.1 2.5 -10.5 2.35 -10.3 2.2 -9.9 L1.85 -9.15 1.5 -8.35 1.45 -8.3 1.45 -8.25 1.3 -7.9 Q1.25 -8.35 1.55 -9.05 2.25 -10.8 3.5 -11.5 3.8 -11.65 4.65 -11.75 5.55 -11.85 6.1 -11.75 6.95 -11.6 7.95 -11.15 L8.0 -11.15 M-0.3 -10.85 L-0.7 -10.25 -0.75 -10.35 -0.85 -10.85 Q-0.85 -11.05 -0.95 -11.4 -1.1 -11.95 -0.85 -12.25 -0.2 -13.1 0.2 -13.1 L0.3 -13.05 0.55 -12.6 0.5 -12.6 Q0.25 -12.55 0.15 -12.4 0.05 -12.3 0.0 -12.05 0.0 -11.75 0.2 -11.6 L0.3 -11.5 0.05 -11.25 -0.25 -11.25 -0.3 -11.1 Q-0.35 -10.95 -0.3 -10.85 M1.2 -12.35 L1.0 -12.2 0.75 -11.95 0.9 -12.1 1.2 -12.35 M0.2 -10.15 Q0.05 -9.65 -0.05 -8.9 -0.25 -7.65 -0.1 -6.5 0.25 -3.2 2.8 -2.2 3.05 -2.1 6.8 -1.4 L10.55 -0.75 10.85 -0.6 Q10.95 -0.35 10.85 -0.15 L10.8 0.05 10.75 0.05 10.75 0.1 10.4 0.1 10.3 0.0 9.85 -0.1 9.0 -0.25 7.95 -0.3 5.1 -0.45 5.0 -0.45 4.85 -0.4 Q3.35 -0.6 2.45 -1.1 -0.55 -2.75 -0.8 -6.0 -0.85 -7.2 -0.6 -8.4 -0.35 -9.3 -0.05 -9.85 L0.2 -10.15 M0.75 -1.15 L0.45 -0.75 Q0.15 -0.4 -0.1 0.05 L-0.3 -0.15 -0.7 0.45 Q-0.45 0.35 -0.25 0.25 L-0.65 1.05 Q-0.9 1.7 -1.05 2.3 L-1.25 2.1 Q-1.7 1.65 -2.1 1.4 L-2.5 1.15 -2.7 0.95 Q-3.25 0.4 -4.15 -0.3 L-4.65 -0.7 -4.55 -1.0 -4.3 -1.6 Q-4.05 -1.9 -3.75 -2.1 L-3.4 -2.5 Q-2.85 -2.95 -2.2 -3.25 -1.5 -3.6 -1.05 -3.5 L-0.95 -3.45 -0.95 -3.55 -0.9 -3.45 Q-0.65 -3.3 -0.55 -3.0 L-0.2 -2.65 Q0.0 -2.15 0.3 -1.7 L0.75 -1.15 M1.0 0.25 L1.1 0.15 1.15 0.15 1.4 -0.1 1.45 -0.1 1.75 -0.3 1.8 -0.25 1.75 -0.15 1.8 -0.1 2.05 0.05 2.1 0.05 2.65 0.2 4.1 0.2 4.1 0.25 4.05 0.25 3.9 0.3 3.3 0.45 3.2 0.65 2.2 0.75 Q1.4 0.75 1.0 0.25 M-3.7 -7.45 L-3.85 -7.25 -3.8 -7.25 -3.7 -7.0 Q-3.35 -7.05 -3.3 -7.1 -3.15 -7.3 -3.2 -7.4 -3.25 -7.5 -3.5 -7.6 L-3.55 -7.6 -3.7 -7.45 M-6.15 -1.95 L-7.65 -3.15 Q-8.0 -3.55 -7.85 -4.2 -7.7 -4.6 -7.55 -4.8 -6.55 -6.1 -3.95 -8.2 -2.65 -9.3 -1.55 -10.1 L-1.45 -10.3 Q-1.1 -10.3 -0.95 -10.2 L-0.85 -10.05 -0.95 -9.8 -1.2 -9.35 -1.35 -9.0 -1.35 -8.9 -1.45 -8.7 Q-1.65 -8.0 -1.7 -7.3 -1.85 -5.95 -1.35 -4.55 L-1.55 -4.4 Q-1.85 -4.15 -2.15 -3.75 -2.45 -3.65 -2.8 -3.45 L-3.0 -3.35 -3.05 -3.3 -3.65 -2.85 -3.75 -2.8 -3.45 -3.65 Q-2.35 -6.55 -2.1 -7.9 L-2.25 -7.8 Q-2.35 -7.75 -2.5 -7.6 L-2.75 -7.4 -3.55 -6.35 Q-3.4 -6.2 -3.35 -6.0 -3.3 -5.75 -3.5 -5.5 L-4.1 -5.0 Q-4.4 -4.8 -4.65 -4.7 L-5.2 -3.8 -5.25 -3.85 Q-5.7 -4.25 -6.15 -3.7 -6.3 -3.55 -6.25 -3.3 -6.2 -3.05 -5.95 -2.9 L-5.75 -2.75 -5.9 -2.4 -6.15 -1.95 M-5.4 -5.5 Q-5.5 -5.35 -5.5 -5.15 -5.55 -4.9 -5.4 -4.75 -5.15 -4.6 -4.95 -4.7 -4.85 -4.75 -4.75 -4.85 -4.5 -5.15 -4.8 -5.5 -5.15 -5.8 -5.4 -5.5 M-4.5 -3.75 Q-4.6 -3.85 -4.65 -3.95 L-4.7 -4.05 -4.6 -4.35 Q-4.4 -4.45 -4.35 -4.5 -3.85 -4.3 -3.85 -4.05 -3.85 -3.95 -3.95 -3.85 L-4.1 -3.7 Q-4.25 -3.6 -4.5 -3.75" fill="#0070e0" fill-rule="evenodd" stroke="none"/>
      <path d="M2.2 -9.3 Q2.95 -10.6 4.1 -10.95 L4.35 -11.0 4.85 -11.05 Q6.4 -11.1 7.85 -9.75 9.25 -8.4 9.75 -6.5 10.25 -4.4 9.3 -2.7 L9.3 -2.65 8.9 -2.45 8.85 -2.45 9.0 -3.3 Q9.25 -4.4 9.2 -5.25 9.15 -6.3 8.65 -7.1 8.7 -6.6 8.5 -6.15 8.3 -5.7 7.95 -5.3 7.75 -5.1 7.5 -5.0 7.0 -4.7 6.4 -4.9 4.7 -5.6 4.4 -7.05 4.2 -7.9 4.5 -8.55 L4.5 -8.6 Q4.8 -9.3 5.45 -9.45 4.25 -9.8 2.65 -9.45 2.4 -9.35 2.2 -9.3" fill="#ff9999" fill-rule="evenodd" stroke="none"/>
      <path d="M8.85 -2.45 Q8.2 -2.3 6.6 -2.75 L6.4 -2.8 Q7.0 -3.15 7.25 -3.7 7.5 -4.35 7.5 -5.0 7.75 -5.1 7.95 -5.3 8.3 -5.7 8.5 -6.15 8.7 -6.6 8.65 -7.1 9.15 -6.3 9.2 -5.25 9.25 -4.4 9.0 -3.3 L8.85 -2.45 M1.4 -7.1 Q1.5 -8.15 2.1 -9.15 L2.2 -9.3 Q2.4 -9.35 2.65 -9.45 4.25 -9.8 5.45 -9.45 4.8 -9.3 4.5 -8.6 L4.5 -8.55 3.1 -8.5 Q2.0 -8.25 1.4 -7.1" fill="#b00000" fill-rule="evenodd" stroke="none"/>
      <path d="M6.4 -2.8 Q4.45 -3.3 3.3 -3.95 1.35 -5.0 1.4 -6.95 L1.45 -7.05 1.4 -7.1 Q2.0 -8.25 3.1 -8.5 L4.5 -8.55 Q4.2 -7.9 4.4 -7.05 4.7 -5.6 6.4 -4.9 7.0 -4.7 7.5 -5.0 7.5 -4.35 7.25 -3.7 7.0 -3.15 6.4 -2.8" fill="#600000" fill-rule="evenodd" stroke="none"/>
    </g>
  </defs>
</svg>
