<?xml version="1.0" encoding="UTF-8" standalone="no"?>
<svg xmlns:ffdec="https://www.free-decompiler.com/flash" xmlns:xlink="http://www.w3.org/1999/xlink" ffdec:objectType="frame" height="139.65px" width="166.6px" xmlns="http://www.w3.org/2000/svg">
  <g transform="matrix(1.0, 0.0, 0.0, 1.0, 67.9, 103.25)">
    <use ffdec:characterId="1825" height="19.95" transform="matrix(7.0, 0.0, 0.0, 7.0, -67.9, -103.25)" width="23.8" xlink:href="#shape0"/>
  </g>
  <defs>
    <g id="shape0" transform="matrix(1.0, 0.0, 0.0, 1.0, 9.7, 14.75)">
      <path d="M0.35 -8.35 Q0.8 -8.95 0.65 -9.3 0.55 -9.3 0.2 -8.95 L-0.1 -8.75 -0.6 -9.2 0.25 -10.05 2.65 -7.9 3.9 -7.2 3.65 -6.35 3.25 -6.65 1.95 -7.35 Q1.05 -7.75 0.8 -7.95 L0.35 -8.35 M-2.2 -4.75 L-1.95 -4.75 Q-1.9 -4.85 -1.85 -5.65 -1.75 -6.25 -1.55 -6.6 -1.3 -6.15 -0.6 -5.45 -0.4 -5.25 -0.4 -5.15 -0.4 -4.95 -0.6 -4.7 -0.8 -4.5 -1.05 -4.35 -1.6 -4.1 -2.05 -4.55 L-2.2 -4.75 M-4.55 -2.75 Q-3.6 -2.0 -2.55 -1.3 0.15 0.55 2.15 1.1 L2.25 1.15 2.35 1.15 2.75 1.25 3.4 1.75 Q3.3 1.95 3.25 2.1 2.75 2.3 2.4 2.5 L2.25 2.35 Q1.55 2.35 0.95 3.2 L0.85 3.35 0.7 3.55 -0.35 2.45 Q-2.1 0.65 -3.0 -0.15 -4.15 -1.2 -4.9 -1.7 L-4.8 -1.8 Q-4.55 -2.2 -4.55 -2.75 M-0.45 -10.55 L-0.35 -10.65 -0.35 -10.6 -0.45 -10.55 M4.1 3.15 L4.45 3.05 3.9 3.45 4.1 3.15" fill="#666154" fill-rule="evenodd" stroke="none"/>
      <path d="M0.35 -8.35 L0.8 -7.95 Q1.05 -7.75 1.95 -7.35 L3.25 -6.65 3.65 -6.35 Q3.35 -5.35 3.2 -4.6 2.95 -3.3 3.05 -2.65 L3.05 -2.2 3.9 -1.6 Q4.85 -1.0 4.9 -0.6 L5.35 -0.3 Q5.15 0.0 4.95 0.35 4.25 0.75 3.75 1.3 3.5 1.55 3.4 1.75 L2.75 1.25 2.35 1.15 2.25 1.15 2.15 1.1 Q0.15 0.55 -2.55 -1.3 -3.6 -2.0 -4.55 -2.75 L-4.55 -3.05 Q-4.45 -3.1 -4.4 -3.2 -3.75 -4.1 -4.3 -5.25 L-4.55 -5.8 -4.5 -5.85 Q-4.1 -6.4 -4.0 -7.1 -3.4 -7.2 -2.95 -7.35 -2.1 -7.65 -1.4 -8.4 L-1.25 -8.6 -0.6 -9.2 -0.1 -8.75 -0.25 -8.55 -0.5 -8.35 Q-0.8 -8.1 -1.35 -7.7 L-2.35 -6.9 Q-2.65 -6.6 -2.7 -6.15 -2.75 -5.6 -2.45 -4.7 L-2.2 -4.75 -2.05 -4.55 Q-1.6 -4.1 -1.05 -4.35 -0.8 -4.5 -0.6 -4.7 -0.4 -4.95 -0.4 -5.15 -0.4 -5.25 -0.6 -5.45 -1.3 -6.15 -1.55 -6.6 L-1.4 -6.85 -0.65 -7.45 Q-0.25 -7.75 -0.05 -7.95 L0.15 -8.1 0.15 -8.15 0.3 -8.3 0.35 -8.3 0.35 -8.35" fill="#9c9581" fill-rule="evenodd" stroke="none"/>
      <path d="M8.25 -8.25 L8.2 -8.15 Q7.7 -6.9 7.45 -6.65 7.4 -6.6 6.95 -6.7 6.5 -6.85 5.95 -7.05 L5.55 -7.25 Q5.05 -7.5 4.5 -7.7 3.15 -8.5 1.85 -9.65 0.65 -10.75 -0.05 -11.45 L-0.05 -11.5 -0.1 -11.5 -0.85 -12.3 -0.95 -12.55 -0.25 -13.5 0.35 -12.95 Q1.2 -12.2 4.45 -10.4 6.15 -9.5 8.0 -8.45 L8.25 -8.25 M8.1 -0.65 L8.15 -0.65 8.15 -0.5 8.1 -0.55 8.1 -0.65 M8.15 -0.3 L8.15 -0.25 8.15 -0.3 M-8.55 -6.25 L-8.4 -6.65 Q-8.25 -6.8 -7.15 -7.65 L-6.05 -8.45 -5.95 -8.1 -5.9 -7.85 -5.95 -7.85 -6.25 -7.45 Q-6.5 -7.1 -6.5 -6.7 -6.55 -6.35 -6.35 -5.9 L-6.5 -5.85 -6.8 -5.5 Q-6.95 -5.25 -7.0 -4.95 L-7.0 -4.7 Q-6.95 -4.15 -6.4 -3.6 L-6.5 -3.55 -6.65 -3.4 -7.4 -4.3 -7.8 -4.9 Q-8.05 -5.25 -8.25 -5.7 L-8.3 -5.8 -8.55 -6.25 M5.3 2.8 L5.45 2.6 5.65 2.45 Q6.2 2.1 6.5 1.8 6.75 1.55 6.8 1.35 L7.2 1.25 7.25 1.25 7.75 1.05 7.9 0.95 Q8.2 0.75 8.25 0.4 L8.3 0.4 8.35 0.2 8.35 0.05 8.55 0.0 Q9.6 0.6 11.75 1.55 L12.2 1.85 12.55 2.05 12.7 2.2 Q13.25 2.6 13.45 3.05 L12.7 3.05 Q10.1 3.1 8.2 3.1 6.75 3.1 5.3 2.8 M7.8 0.3 L7.85 0.3 7.8 0.3 M7.95 0.45 L8.0 0.45 7.9 0.6 7.95 0.55 7.95 0.45 M5.5 0.1 L5.5 0.15 5.6 0.15 5.45 0.2 5.4 0.25 5.5 0.1 M5.6 1.9 L5.7 1.8 5.7 1.65 6.0 1.6 Q5.85 1.65 5.8 1.75 L5.6 1.9 M3.35 3.45 L3.35 3.3 3.7 3.25 3.35 3.45" fill="#80c0f0" fill-rule="evenodd" stroke="none"/>
      <path d="M7.3 -0.25 L6.6 -0.1 Q6.25 -0.05 5.85 0.05 L5.65 0.15 5.75 0.0 Q5.9 -0.25 6.25 -0.5 6.45 -0.6 6.65 -0.7 L7.1 -0.75 7.55 -0.75 Q7.3 -0.6 7.3 -0.25 M-5.45 -9.35 L-5.35 -9.2 -5.2 -9.0 -5.05 -8.9 Q-5.0 -8.85 -4.9 -9.0 L-4.9 -9.05 Q-4.75 -8.8 -4.65 -8.55 -4.45 -8.0 -4.55 -7.4 L-4.6 -7.05 Q-4.7 -6.75 -4.85 -6.3 L-5.05 -6.6 -5.0 -6.6 Q-4.9 -6.75 -4.9 -7.05 -4.85 -7.55 -5.1 -8.4 L-5.15 -8.45 Q-5.3 -8.95 -5.45 -9.35 M-5.8 -6.7 L-5.8 -6.95 -5.75 -7.2 -5.6 -7.1 -5.4 -6.5 Q-5.5 -6.65 -5.65 -6.75 L-5.75 -6.75 -5.8 -6.7 M-5.0 -5.6 L-4.8 -5.1 Q-4.55 -4.6 -4.6 -4.3 -4.6 -4.1 -4.65 -3.95 -4.7 -4.3 -4.85 -5.0 -4.95 -5.35 -5.0 -5.6 M-8.1 -3.4 L-8.4 -3.8 -8.35 -3.75 -8.1 -3.4 M-6.35 -4.9 Q-6.3 -5.2 -6.2 -5.5 L-5.6 -4.45 Q-5.3 -3.85 -5.15 -3.25 L-5.15 -3.1 -5.05 -3.0 -5.05 -2.65 -5.45 -3.15 -5.55 -3.6 -5.6 -3.6 Q-5.95 -4.65 -6.35 -4.9 M-5.9 -2.05 L-5.9 -2.1 -5.95 -2.55 Q-6.05 -2.95 -6.15 -3.05 -6.2 -3.05 -6.3 -3.1 L-6.45 -3.05 -6.45 -3.0 -6.45 -3.05 -6.4 -3.15 Q-6.2 -3.15 -6.1 -3.25 L-5.8 -2.85 -5.9 -2.9 -5.85 -2.4 -5.8 -2.05 -5.9 -2.05 M8.4 4.3 L7.55 4.3 5.55 4.2 5.15 4.1 5.25 4.1 8.4 4.3 M6.6 1.1 L6.55 1.15 6.35 1.2 Q5.15 1.45 4.3 1.7 L4.2 1.75 4.25 1.7 4.75 1.05 Q4.9 0.9 5.9 0.6 L6.45 0.45 7.05 0.3 7.35 0.3 7.25 0.3 Q6.95 0.45 6.8 0.65 6.6 0.85 6.6 1.1 M4.55 2.0 Q4.2 2.25 3.95 2.65 3.55 2.8 3.2 2.8 L2.95 2.8 3.1 2.75 3.1 2.7 4.45 2.0 4.55 2.0 M2.3 3.25 Q1.95 3.45 1.8 3.8 L1.75 3.9 1.05 3.9 1.1 3.8 Q1.45 3.4 2.1 3.2 L2.2 3.25 2.3 3.25" fill="#b00000" fill-rule="evenodd" stroke="none"/>
      <path d="M7.3 -0.25 Q7.3 -0.6 7.55 -0.75 L7.85 -0.7 8.1 -0.65 8.1 -0.55 8.15 -0.5 8.1 -0.35 8.15 -0.3 8.15 -0.25 Q7.95 -0.35 7.6 -0.3 L7.3 -0.25 M-5.05 -6.6 L-5.25 -7.0 -5.45 -7.3 Q-5.3 -7.55 -5.45 -8.2 L-5.45 -8.25 Q-5.65 -9.05 -5.6 -9.4 L-5.55 -9.45 -5.45 -9.35 Q-5.3 -8.95 -5.15 -8.45 L-5.1 -8.4 Q-4.85 -7.55 -4.9 -7.05 -4.9 -6.75 -5.0 -6.6 L-5.05 -6.6 M-5.4 -6.5 L-5.4 -6.4 -5.1 -5.8 -5.15 -5.75 -5.0 -5.6 Q-4.95 -5.35 -4.85 -5.0 -4.7 -4.3 -4.65 -3.95 L-4.65 -3.9 -4.7 -4.05 -5.3 -5.25 Q-5.7 -6.05 -5.8 -6.6 L-5.8 -6.7 -5.75 -6.75 -5.65 -6.75 Q-5.5 -6.65 -5.4 -6.5 M-5.45 -3.15 L-5.65 -3.45 Q-5.95 -3.8 -6.15 -4.05 L-6.15 -4.15 -6.25 -4.4 -6.3 -4.45 -6.3 -4.5 -6.35 -4.9 Q-5.95 -4.65 -5.6 -3.6 L-5.55 -3.6 -5.45 -3.15 M-6.45 -3.0 L-6.45 -3.05 -6.3 -3.1 Q-6.2 -3.05 -6.15 -3.05 -6.05 -2.95 -5.95 -2.55 L-5.9 -2.1 -5.9 -2.05 Q-6.05 -2.05 -6.15 -1.9 L-6.4 -2.4 -6.4 -2.45 -6.45 -2.8 -6.45 -3.0 M7.8 0.3 L7.85 0.3 7.85 0.35 7.95 0.4 7.95 0.45 7.95 0.55 7.9 0.6 7.9 0.65 7.85 0.65 7.8 0.7 7.7 0.75 7.65 0.8 7.55 0.85 7.4 0.95 6.85 1.1 Q6.85 0.95 6.8 1.05 6.75 1.05 6.6 1.1 6.6 0.85 6.8 0.65 6.95 0.45 7.25 0.3 L7.35 0.3 7.8 0.3 M5.7 1.65 L5.7 1.8 5.6 1.9 5.5 2.0 Q5.45 1.95 5.4 1.95 5.25 1.95 4.9 2.15 L4.85 2.2 4.15 2.6 3.95 2.65 Q4.2 2.25 4.55 2.0 L5.15 1.8 5.4 1.75 5.7 1.65 M3.35 3.3 L3.35 3.45 2.65 3.8 2.6 3.85 2.45 3.9 1.75 3.9 1.8 3.8 Q1.95 3.45 2.3 3.25 L2.35 3.3 2.65 3.35 2.85 3.35 3.35 3.3" fill="#600000" fill-rule="evenodd" stroke="none"/>
      <path d="M-6.65 -3.4 L-6.8 -3.25 Q-7.0 -2.95 -6.65 -2.1 L-6.6 -1.95 Q-7.55 -2.7 -8.1 -3.4 L-8.35 -3.75 -8.4 -3.8 -8.75 -4.55 -8.8 -4.65 -8.8 -4.85 -8.65 -6.0 -8.55 -6.25 -8.3 -5.8 -8.25 -5.7 Q-8.05 -5.25 -7.8 -4.9 L-7.4 -4.3 -6.65 -3.4 M5.3 2.8 Q6.75 3.1 8.2 3.1 10.1 3.1 12.7 3.05 L13.45 3.05 Q13.55 3.3 13.55 3.55 13.55 3.85 12.2 4.25 L11.15 4.35 8.4 4.3 5.25 4.1 5.15 4.1 4.5 3.9 3.95 3.9 4.05 3.85 4.4 3.6 4.45 3.55 5.25 2.85 5.3 2.8" fill="#0070e0" fill-rule="evenodd" stroke="none"/>
      <path d="M0.15 -14.75 L0.65 -14.3 0.75 -14.15 Q1.45 -14.0 2.5 -13.4 4.2 -12.45 9.25 -8.75 9.25 -8.6 9.15 -8.4 9.1 -8.2 8.95 -8.05 L8.8 -7.9 8.7 -7.95 8.5 -7.35 Q8.15 -6.1 7.8 -5.7 7.55 -5.5 7.3 -5.6 L5.9 -6.35 Q5.7 -6.35 5.1 -6.6 L4.85 -6.0 4.8 -5.4 4.55 -3.6 4.45 -2.7 5.15 -2.0 Q5.7 -1.85 6.65 -1.35 L6.55 -1.5 7.5 -1.3 Q7.9 -1.2 8.35 -1.0 9.9 -0.5 11.95 0.7 L11.9 0.75 12.55 1.15 Q14.1 2.25 14.1 3.55 14.1 3.95 13.5 4.3 13.5 4.4 13.3 4.4 L13.1 4.5 12.45 4.75 12.25 4.95 11.6 4.95 Q10.4 5.2 8.6 5.2 L7.3 5.1 4.85 5.0 Q3.15 4.9 2.55 4.7 2.3 4.65 2.2 4.5 L1.65 4.5 1.4 4.7 1.2 4.8 0.7 4.5 0.35 4.5 -0.1 4.45 -0.2 4.45 -0.85 4.4 -0.8 4.35 -0.7 4.2 Q-2.05 3.6 -4.15 1.2 L-5.55 -0.55 -5.6 -0.45 -6.25 -0.85 -6.25 -0.9 -7.85 -1.75 Q-8.75 -2.4 -9.25 -3.2 L-9.35 -3.2 -9.5 -3.55 Q-9.8 -4.1 -9.7 -4.25 L-9.6 -4.3 Q-9.65 -4.7 -9.6 -5.1 -9.5 -5.95 -9.1 -6.5 -8.35 -7.6 -7.9 -7.9 -7.45 -8.25 -6.35 -8.6 L-6.1 -8.7 -6.15 -8.8 Q-6.2 -9.2 -5.85 -9.7 L-5.7 -9.9 -5.55 -10.05 Q-5.15 -10.0 -4.95 -9.55 L-4.9 -9.35 Q-4.5 -9.05 -4.25 -8.65 L-4.2 -8.7 Q-2.0 -9.4 -0.6 -10.85 L-1.85 -12.0 Q-1.9 -12.25 -1.35 -13.15 -0.8 -13.95 -0.55 -14.2 L-0.2 -14.55 -0.15 -14.55 0.15 -14.75 M8.25 -8.25 L8.0 -8.45 Q6.15 -9.5 4.45 -10.4 1.2 -12.2 0.35 -12.95 L-0.25 -13.5 -0.95 -12.55 -0.85 -12.3 -0.1 -11.5 -0.05 -11.5 -0.05 -11.45 Q0.65 -10.75 1.85 -9.65 3.15 -8.5 4.5 -7.7 5.05 -7.5 5.55 -7.25 L5.95 -7.05 Q6.5 -6.85 6.95 -6.7 7.4 -6.6 7.45 -6.65 7.7 -6.9 8.2 -8.15 L8.25 -8.25 M-0.1 -8.75 L0.2 -8.95 Q0.55 -9.3 0.65 -9.3 0.8 -8.95 0.35 -8.35 L0.35 -8.3 0.3 -8.3 0.15 -8.15 0.15 -8.1 -0.05 -7.95 Q-0.25 -7.75 -0.65 -7.45 L-1.4 -6.85 -1.55 -6.6 Q-1.75 -6.25 -1.85 -5.65 -1.9 -4.85 -1.95 -4.75 L-2.2 -4.75 -2.45 -4.7 Q-2.75 -5.6 -2.7 -6.15 -2.65 -6.6 -2.35 -6.9 L-1.35 -7.7 Q-0.8 -8.1 -0.5 -8.35 L-0.25 -8.55 -0.1 -8.75 M3.65 -6.35 L3.9 -7.2 2.65 -7.9 0.25 -10.05 -0.6 -9.2 -1.25 -8.6 -1.4 -8.4 Q-2.1 -7.65 -2.95 -7.35 -3.4 -7.2 -4.0 -7.1 -4.1 -6.4 -4.5 -5.85 L-4.55 -5.8 -4.3 -5.25 Q-3.75 -4.1 -4.4 -3.2 -4.45 -3.1 -4.55 -3.05 L-4.55 -2.75 Q-4.55 -2.2 -4.8 -1.8 L-4.9 -1.7 Q-4.15 -1.2 -3.0 -0.15 -2.1 0.65 -0.35 2.45 L0.7 3.55 0.85 3.35 0.95 3.2 Q1.55 2.35 2.25 2.35 L2.4 2.5 Q2.75 2.3 3.25 2.1 3.3 1.95 3.4 1.75 3.5 1.55 3.75 1.3 4.25 0.75 4.95 0.35 5.15 0.0 5.35 -0.3 L4.9 -0.6 Q4.85 -1.0 3.9 -1.6 L3.05 -2.2 3.05 -2.65 Q2.95 -3.3 3.2 -4.6 3.35 -5.35 3.65 -6.35 M7.55 -0.75 L7.1 -0.75 6.65 -0.7 Q6.45 -0.6 6.25 -0.5 5.9 -0.25 5.75 0.0 L5.65 0.15 5.85 0.05 Q6.25 -0.05 6.6 -0.1 L7.3 -0.25 7.6 -0.3 Q7.95 -0.35 8.15 -0.25 L8.15 -0.3 8.1 -0.35 8.15 -0.5 8.15 -0.65 8.1 -0.65 7.85 -0.7 7.55 -0.75 M-5.45 -9.35 L-5.55 -9.45 -5.6 -9.4 Q-5.65 -9.05 -5.45 -8.25 L-5.45 -8.2 Q-5.3 -7.55 -5.45 -7.3 L-5.25 -7.0 -5.05 -6.6 -4.85 -6.3 Q-4.7 -6.75 -4.6 -7.05 L-4.55 -7.4 Q-4.45 -8.0 -4.65 -8.55 -4.75 -8.8 -4.9 -9.05 L-4.9 -9.0 Q-5.0 -8.85 -5.05 -8.9 L-5.2 -9.0 -5.35 -9.2 -5.45 -9.35 M-5.4 -6.5 L-5.6 -7.1 -5.75 -7.2 -5.8 -6.95 -5.8 -6.7 -5.8 -6.6 Q-5.7 -6.05 -5.3 -5.25 L-4.7 -4.05 -4.65 -3.9 -4.65 -3.95 Q-4.6 -4.1 -4.6 -4.3 -4.55 -4.6 -4.8 -5.1 L-5.0 -5.6 -5.15 -5.75 -5.1 -5.8 -5.4 -6.4 -5.4 -6.5 M-0.45 -10.55 L-0.35 -10.6 -0.35 -10.65 -0.45 -10.55 M-6.65 -3.4 L-6.5 -3.55 -6.4 -3.6 Q-6.95 -4.15 -7.0 -4.7 L-7.0 -4.95 Q-6.95 -5.25 -6.8 -5.5 L-6.5 -5.85 -6.35 -5.9 Q-6.55 -6.35 -6.5 -6.7 -6.5 -7.1 -6.25 -7.45 L-5.95 -7.85 -5.9 -7.85 -5.95 -8.1 -6.05 -8.45 -7.15 -7.65 Q-8.25 -6.8 -8.4 -6.65 L-8.55 -6.25 -8.65 -6.0 -8.8 -4.85 -8.8 -4.65 -8.75 -4.55 -8.4 -3.8 -8.1 -3.4 Q-7.55 -2.7 -6.6 -1.95 L-6.65 -2.1 Q-7.0 -2.95 -6.8 -3.25 L-6.65 -3.4 M-6.35 -4.9 L-6.3 -4.5 -6.3 -4.45 -6.25 -4.4 -6.15 -4.15 -6.15 -4.05 Q-5.95 -3.8 -5.65 -3.45 L-5.45 -3.15 -5.05 -2.65 -5.05 -3.0 -5.15 -3.1 -5.15 -3.25 Q-5.3 -3.85 -5.6 -4.45 L-6.2 -5.5 Q-6.3 -5.2 -6.35 -4.9 M-6.45 -3.0 L-6.45 -2.8 -6.4 -2.45 -6.4 -2.4 -6.15 -1.9 Q-6.05 -2.05 -5.9 -2.05 L-5.8 -2.05 -5.85 -2.4 -5.9 -2.9 -5.8 -2.85 -6.1 -3.25 Q-6.2 -3.15 -6.4 -3.15 L-6.45 -3.05 -6.45 -3.0 M13.45 3.05 Q13.25 2.6 12.7 2.2 L12.55 2.05 12.2 1.85 11.75 1.55 Q9.6 0.6 8.55 0.0 L8.35 0.05 8.35 0.2 8.3 0.4 8.25 0.4 Q8.2 0.75 7.9 0.95 L7.75 1.05 7.25 1.25 7.2 1.25 6.8 1.35 Q6.75 1.55 6.5 1.8 6.2 2.1 5.65 2.45 L5.45 2.6 5.3 2.8 5.25 2.85 4.45 3.55 4.4 3.6 4.05 3.85 3.95 3.9 4.5 3.9 5.15 4.1 5.55 4.2 7.55 4.3 8.4 4.3 11.15 4.35 12.2 4.25 Q13.55 3.85 13.55 3.55 13.55 3.3 13.45 3.05 M7.85 0.3 L7.8 0.3 7.35 0.3 7.05 0.3 6.45 0.45 5.9 0.6 Q4.9 0.9 4.75 1.05 L4.25 1.7 4.2 1.75 4.3 1.7 Q5.15 1.45 6.35 1.2 L6.55 1.15 6.6 1.1 Q6.75 1.05 6.8 1.05 6.85 0.95 6.85 1.1 L7.4 0.95 7.55 0.85 7.65 0.8 7.7 0.75 7.8 0.7 7.85 0.65 7.9 0.65 7.9 0.6 8.0 0.45 7.95 0.45 7.95 0.4 7.85 0.35 7.85 0.3 M5.5 0.1 L5.4 0.25 5.45 0.2 5.6 0.15 5.5 0.15 5.5 0.1 M5.7 1.65 L5.4 1.75 5.15 1.8 4.55 2.0 4.45 2.0 3.1 2.7 3.1 2.75 2.95 2.8 3.2 2.8 Q3.55 2.8 3.95 2.65 L4.15 2.6 4.85 2.2 4.9 2.15 Q5.25 1.95 5.4 1.95 5.45 1.95 5.5 2.0 L5.6 1.9 5.8 1.75 Q5.85 1.65 6.0 1.6 L5.7 1.65 M3.35 3.3 L2.85 3.35 2.65 3.35 2.35 3.3 2.3 3.25 2.2 3.25 2.1 3.2 Q1.45 3.4 1.1 3.8 L1.05 3.9 1.75 3.9 2.45 3.9 2.6 3.85 2.65 3.8 3.35 3.45 3.7 3.25 3.35 3.3 M4.1 3.15 L3.9 3.45 4.45 3.05 4.1 3.15" fill="#111111" fill-rule="evenodd" stroke="none"/>
    </g>
  </defs>
</svg>
