<?xml version="1.0" encoding="UTF-8" standalone="no"?>
<svg xmlns:ffdec="https://www.free-decompiler.com/flash" xmlns:xlink="http://www.w3.org/1999/xlink" ffdec:objectType="frame" height="1505.0px" width="2865.0px" xmlns="http://www.w3.org/2000/svg">
  <g transform="matrix(1.0, 0.0, 0.0, 1.0, 1342.5, 1202.5)">
    <use ffdec:characterId="2020" height="1405.0" transform="matrix(1.0, 0.0, 0.0, 1.0, -1342.5, -1202.5)" width="2865.0" xlink:href="#shape0"/>
    <use ffdec:characterId="2005" height="445.0" id="am_DoorLocal_L" transform="matrix(1.0, 0.0, 0.0, 1.0, -1282.5, -982.5)" width="5.0" xlink:href="#sprite0"/>
    <use ffdec:characterId="2021" height="65.0" transform="matrix(1.0, 0.0, 0.0, 1.0, -1342.5, -182.5)" width="2865.0" xlink:href="#shape2"/>
    <use ffdec:characterId="2019" ffdec:characterName="a_CameraZone_Room_Alley1" height="1085.0" id="am_CameraZone" transform="matrix(1.0, 0.0, 0.0, 1.0, -982.5, -782.5)" width="2505.0" xlink:href="#sprite1"/>
  </g>
  <defs>
    <g id="shape0" transform="matrix(1.0, 0.0, 0.0, 1.0, 1342.5, 1202.5)">
      <path d="M-20.0 -220.0 L1060.0 -220.0 1180.0 -260.0" fill="none" stroke="#ff0000" stroke-linecap="round" stroke-linejoin="round" stroke-width="5.0"/>
      <path d="M1180.0 -260.0 L1180.0 -1100.0 M1180.0 -260.0 L1380.0 -160.0 1380.0 200.0 660.0 200.0 140.0 -160.0 -20.0 -220.0 -800.0 -260.0 -1160.0 -520.0 -1280.0 -540.0 -1300.0 -540.0 -1300.0 -1020.0" fill="none" stroke="#00ffff" stroke-linecap="round" stroke-linejoin="round" stroke-width="5.0"/>
      <path d="M1520.0 -1200.0 L1520.0 -180.0 M-1340.0 -1000.0 L-1340.0 -180.0" fill="none" stroke="#ffff00" stroke-linecap="round" stroke-linejoin="round" stroke-width="5.0"/>
    </g>
    <g id="sprite0" transform="matrix(1.0, 0.0, 0.0, 1.0, 2.5, 202.5)">
      <use ffdec:characterId="2004" height="445.0" transform="matrix(1.0, 0.0, 0.0, 1.0, -2.5, -202.5)" width="5.0" xlink:href="#shape1"/>
    </g>
    <g id="shape1" transform="matrix(1.0, 0.0, 0.0, 1.0, 2.5, 202.5)">
      <path d="M0.0 -200.0 L0.0 240.0" fill="none" stroke="#00ffff" stroke-linecap="round" stroke-linejoin="round" stroke-width="5.0"/>
    </g>
    <g id="shape2" transform="matrix(1.0, 0.0, 0.0, 1.0, 1342.5, 182.5)">
      <path d="M1520.0 -180.0 L660.0 -120.0 -380.0 -120.0 -1340.0 -180.0" fill="none" stroke="#666666" stroke-linecap="round" stroke-linejoin="round" stroke-width="5.0"/>
    </g>
    <g id="sprite1" transform="matrix(1.0, 0.0, 0.0, 1.0, 1322.5, 922.5)">
      <use ffdec:characterId="2018" height="1085.0" transform="matrix(1.0, 0.0, 0.0, 1.0, -1322.5, -922.5)" width="2505.0" xlink:href="#shape3"/>
    </g>
    <g id="shape3" transform="matrix(1.0, 0.0, 0.0, 1.0, 1322.5, 922.5)">
      <path d="M1060.0 120.0 L60.0 120.0 -440.0 -300.0 1060.0 -300.0 1060.0 120.0 Z" fill="none" stroke="#006600" stroke-linecap="round" stroke-linejoin="round" stroke-width="5.0"/>
      <path d="M1180.0 160.0 L40.0 160.0 -440.0 -260.0 -720.0 -260.0 -1320.0 -300.0" fill="none" stroke="#666666" stroke-linecap="round" stroke-linejoin="round" stroke-width="5.0"/>
      <path d="M1180.0 -920.0 L1180.0 160.0" fill="none" stroke="#ffff00" stroke-linecap="round" stroke-linejoin="round" stroke-width="5.0"/>
    </g>
  </defs>
</svg>
