<?xml version="1.0" encoding="UTF-8" standalone="no"?>
<svg xmlns:ffdec="https://www.free-decompiler.com/flash" xmlns:xlink="http://www.w3.org/1999/xlink" ffdec:objectType="frame" height="237.65px" width="358.05px" xmlns="http://www.w3.org/2000/svg">
  <g transform="matrix(1.0, 0.0, 0.0, 1.0, 178.5, 224.0)">
    <use ffdec:characterId="1940" height="19.35" transform="matrix(7.0, 0.0, 0.0, 7.0, -172.55, -126.35)" width="45.1" xlink:href="#shape0"/>
  </g>
  <defs>
    <g id="shape0" transform="matrix(1.0, 0.0, 0.0, 1.0, 24.65, 18.05)">
      <path d="M1.2 -18.05 Q2.6 -17.9 2.85 -17.2 2.95 -16.95 3.05 -16.85 3.25 -16.7 3.75 -16.6 L3.85 -16.55 3.95 -16.45 4.0 -16.45 Q4.15 -16.4 4.15 -16.25 4.15 -16.15 4.0 -16.0 3.85 -15.9 3.7 -15.9 L3.65 -15.9 3.6 -15.85 3.35 -15.7 Q3.25 -15.5 3.15 -15.2 L3.0 -14.3 3.0 -14.2 Q3.1 -13.55 3.6 -13.05 4.05 -12.9 4.75 -12.9 L4.8 -12.85 Q4.8 -13.3 5.45 -13.3 6.35 -13.3 7.05 -12.85 7.35 -12.65 7.55 -12.4 8.1 -12.0 8.65 -10.95 L9.0 -10.2 9.0 -10.15 Q9.1 -9.65 9.1 -9.4 9.15 -8.35 8.15 -6.8 L8.15 -6.75 8.0 -6.5 7.9 -6.4 7.5 -6.1 7.25 -5.85 Q7.2 -5.8 7.1 -5.75 7.0 -5.75 6.9 -5.8 6.8 -5.85 6.8 -5.95 6.75 -6.05 6.75 -6.1 L6.8 -6.3 Q6.75 -6.5 6.4 -6.55 5.9 -6.65 5.2 -6.5 4.45 -6.3 3.9 -6.0 3.65 -5.85 3.5 -5.7 L3.4 -5.65 2.95 -5.35 Q2.45 -5.05 2.45 -4.8 L2.45 -4.75 Q2.5 -4.7 2.55 -4.6 L2.6 -4.55 Q2.75 -4.55 2.9 -4.45 L2.9 -4.4 4.0 -4.5 4.1 -4.6 4.2 -4.75 4.95 -5.05 5.05 -5.05 Q5.4 -5.0 5.45 -4.85 5.5 -4.75 5.45 -4.65 5.4 -4.55 5.35 -4.5 L4.35 -3.85 Q3.75 -3.45 3.4 -3.15 2.9 -2.8 2.25 -2.45 1.0 -1.85 -0.15 -1.85 -1.0 -1.85 -1.05 -2.0 -1.1 -2.1 -1.1 -2.2 L-1.0 -2.35 Q-0.85 -2.65 -0.15 -2.75 L0.45 -2.8 1.45 -3.25 Q1.65 -3.35 1.95 -3.65 L2.25 -4.0 2.2 -4.05 Q2.15 -4.1 2.15 -4.15 L2.0 -4.2 1.65 -4.25 Q-0.1 -4.3 -1.0 -3.9 -1.35 -3.75 -1.5 -3.6 L-1.55 -3.55 Q-1.8 -3.35 -1.8 -2.95 L-1.8 -2.9 Q-1.8 -2.8 -1.75 -2.7 L-1.7 -2.6 Q-1.6 -2.6 -1.55 -2.5 -1.55 -2.4 -1.55 -2.3 -1.6 -2.2 -1.7 -2.15 L-1.85 -2.1 -1.95 -2.1 -2.75 -2.15 Q-4.0 -2.4 -4.55 -3.0 L-4.7 -3.15 Q-4.9 -3.3 -5.1 -3.6 L-5.1 -3.65 Q-5.45 -4.0 -5.45 -4.5 -5.45 -4.85 -5.4 -5.0 L-5.35 -5.1 -5.25 -5.35 -5.25 -5.3 Q-5.15 -5.6 -5.15 -5.7 -5.15 -5.85 -5.3 -6.1 -5.4 -6.35 -5.5 -6.4 L-5.8 -6.5 -5.95 -6.5 Q-6.4 -6.5 -6.7 -6.4 L-6.95 -6.3 -7.1 -6.25 Q-7.5 -6.25 -8.15 -6.6 -8.9 -7.0 -9.05 -7.4 L-9.35 -8.1 Q-9.5 -8.5 -9.45 -8.8 -9.45 -10.15 -8.45 -11.0 L-7.65 -11.7 -7.65 -11.65 Q-7.4 -11.9 -7.2 -12.15 L-7.05 -12.3 -6.9 -12.4 -6.8 -12.5 -6.4 -12.85 -6.15 -13.15 -6.05 -13.2 -5.9 -13.25 Q-5.85 -13.25 -5.75 -13.2 L-5.55 -13.2 Q-5.35 -13.25 -5.0 -13.95 L-4.9 -14.05 -4.8 -14.2 -4.6 -14.3 -4.4 -14.25 -4.3 -14.25 Q-3.95 -14.3 -3.6 -14.9 -3.3 -15.4 -3.25 -15.6 -3.25 -15.75 -3.35 -15.85 L-3.45 -15.95 -3.45 -16.1 Q-3.4 -16.7 -2.5 -17.3 -1.6 -17.95 -0.55 -18.0 L-0.4 -18.05 1.2 -18.05" fill="#cdffb4" fill-opacity="0.5019608" fill-rule="evenodd" stroke="none"/>
      <path d="M2.85 -16.65 Q3.1 -16.45 3.7 -16.3 L3.75 -16.25 3.8 -16.25 3.75 -16.2 3.65 -16.25 3.6 -16.2 3.55 -16.2 Q3.1 -16.15 2.85 -15.45 L2.8 -15.3 Q2.9 -15.7 3.15 -15.9 3.0 -15.7 2.85 -15.25 L2.7 -14.3 2.7 -14.2 Q2.85 -13.4 3.45 -12.8 3.9 -12.6 4.75 -12.6 5.05 -12.6 5.1 -12.8 5.1 -13.05 5.45 -13.05 6.25 -13.05 6.9 -12.6 7.2 -12.4 7.35 -12.2 7.85 -11.8 8.4 -10.8 L8.7 -10.1 Q8.85 -9.6 8.85 -9.4 8.85 -8.4 7.9 -6.95 L7.75 -6.65 Q7.5 -6.5 7.3 -6.3 L7.05 -6.05 7.05 -6.3 Q7.05 -6.75 6.45 -6.85 5.9 -6.95 5.1 -6.75 4.35 -6.55 3.75 -6.25 3.45 -6.05 3.3 -5.9 L2.75 -5.6 Q2.15 -5.15 2.15 -4.8 2.15 -4.65 2.2 -4.6 L2.3 -4.5 2.25 -4.45 2.1 -4.45 Q1.9 -4.55 1.65 -4.55 -0.15 -4.6 -1.15 -4.15 -1.55 -4.0 -1.75 -3.75 -2.05 -3.45 -2.05 -2.95 -2.1 -2.8 -2.05 -2.6 -2.0 -2.45 -1.85 -2.35 L-1.95 -2.4 -2.7 -2.45 Q-3.85 -2.65 -4.35 -3.2 L-4.5 -3.35 Q-4.65 -3.5 -4.85 -3.75 L-4.9 -3.8 Q-5.2 -4.1 -5.2 -4.5 -5.2 -4.8 -5.15 -4.9 L-5.1 -4.95 -5.0 -5.25 Q-4.85 -5.55 -4.85 -5.7 -4.85 -5.95 -5.05 -6.25 -5.2 -6.6 -5.45 -6.7 L-5.95 -6.8 Q-6.45 -6.8 -6.8 -6.65 L-7.1 -6.55 Q-7.45 -6.55 -8.05 -6.85 -8.65 -7.2 -8.8 -7.55 L-9.05 -8.15 Q-9.2 -8.55 -9.2 -8.8 -9.2 -10.0 -8.3 -10.8 L-7.5 -11.45 Q-7.2 -11.7 -6.95 -12.0 L-6.85 -12.05 Q-6.75 -12.15 -6.7 -12.25 L-6.7 -12.2 -6.25 -12.65 -5.9 -12.95 Q-5.8 -12.9 -5.55 -12.9 -5.25 -12.9 -4.75 -13.8 L-4.65 -13.95 -4.5 -14.0 -4.3 -13.95 Q-3.8 -13.95 -3.35 -14.75 -3.0 -15.35 -3.0 -15.6 -3.0 -15.9 -3.2 -16.05 -3.1 -16.55 -2.35 -17.05 -1.45 -17.7 -0.4 -17.75 L1.15 -17.75 Q2.35 -17.6 2.6 -17.1 2.75 -16.75 2.85 -16.65 M3.75 -16.2 L3.8 -16.1 3.8 -16.15 Q3.75 -16.2 3.7 -16.2 L3.75 -16.2 M4.15 -4.25 Q4.25 -4.35 4.35 -4.5 4.45 -4.55 5.05 -4.75 L5.15 -4.75 4.2 -4.1 3.2 -3.4 Q2.7 -3.05 2.1 -2.7 0.9 -2.1 -0.15 -2.1 L-0.8 -2.15 Q-0.65 -2.35 -0.15 -2.45 L0.5 -2.55 1.55 -2.95 Q1.8 -3.1 2.15 -3.5 2.55 -3.9 2.55 -4.0 L2.5 -4.15 2.4 -4.25 2.5 -4.25 Q2.6 -4.25 2.75 -4.2 2.85 -4.1 2.9 -4.1 3.95 -4.1 4.15 -4.25" fill="#ffffff" fill-rule="evenodd" stroke="none"/>
      <path d="M1.6 -18.0 L2.35 -18.0 Q2.45 -18.0 2.5 -17.9 L2.65 -17.8 2.7 -17.65 2.7 -17.5 2.65 -17.4 Q1.45 -16.35 -1.4 -15.05 L-4.45 -13.75 -4.55 -13.7 Q-4.65 -13.75 -4.7 -13.8 L-4.9 -14.0 -4.95 -14.1 Q-7.0 -13.75 -8.65 -12.95 L-9.9 -12.3 Q-10.15 -12.15 -10.35 -12.05 L-10.4 -12.05 Q-10.95 -11.65 -10.95 -11.4 -10.9 -11.0 -12.25 -10.65 -12.85 -10.5 -13.9 -10.3 L-13.9 -10.25 -14.0 -10.25 Q-14.2 -10.2 -14.35 -10.4 -14.4 -10.45 -14.4 -10.6 -14.45 -10.75 -13.9 -11.1 L-13.85 -11.1 Q-13.65 -11.25 -13.6 -11.3 -13.65 -11.85 -12.25 -12.95 L-11.2 -13.8 Q-11.3 -13.85 -11.3 -13.95 -11.3 -14.1 -11.2 -14.15 -11.05 -14.3 -10.6 -14.5 -10.2 -14.65 -10.1 -14.65 L-9.5 -14.65 -8.0 -14.5 -6.75 -14.65 Q-6.4 -14.8 -6.1 -14.95 -5.4 -15.35 -5.2 -15.65 L-5.15 -15.7 -5.1 -15.85 Q-5.0 -16.05 -4.7 -16.2 L-4.35 -16.4 -4.0 -16.55 Q-3.2 -16.95 -2.6 -17.2 -1.65 -17.55 -0.4 -17.6 L1.3 -17.95 1.6 -18.0 M17.9 -7.15 Q18.55 -6.75 18.85 -6.4 L19.05 -6.2 19.7 -5.8 19.75 -5.8 19.95 -5.75 20.05 -5.75 Q20.35 -5.55 20.45 -5.05 L20.45 -4.5 20.4 -3.85 20.35 -3.5 20.35 -3.3 20.3 -2.7 20.3 -2.65 Q20.25 -2.3 19.95 -1.9 19.9 -1.85 19.85 -1.85 L19.55 -1.85 19.45 -1.95 Q19.4 -2.0 19.35 -2.05 19.35 -2.15 19.4 -2.25 L19.45 -2.4 19.5 -2.4 19.5 -2.45 Q19.5 -2.65 19.4 -2.9 L19.15 -2.8 Q19.05 -2.75 19.0 -2.75 L18.65 -2.8 Q18.6 -2.8 18.5 -2.85 18.1 -3.2 18.1 -3.45 18.1 -3.6 18.25 -4.05 L18.3 -4.15 18.1 -4.95 Q17.55 -5.55 17.15 -5.65 L16.8 -5.6 16.45 -5.6 16.35 -5.65 Q16.2 -5.75 15.6 -6.0 L14.65 -6.4 Q14.05 -6.75 13.8 -6.95 13.4 -7.3 13.4 -7.6 13.35 -8.25 14.3 -8.3 15.05 -8.35 16.55 -7.85 L16.6 -7.85 Q17.25 -7.55 17.9 -7.15 M-24.25 -5.7 L-24.05 -5.6 Q-24.0 -5.5 -23.95 -5.35 L-23.95 -5.2 Q-23.8 -5.15 -23.65 -5.05 L-23.6 -5.0 Q-22.9 -5.05 -22.6 -5.35 L-22.4 -5.6 Q-22.2 -5.8 -21.95 -5.9 L-21.85 -5.9 -21.65 -5.85 -21.55 -5.8 -21.4 -5.75 -21.35 -5.7 Q-21.2 -5.6 -21.2 -5.3 -21.2 -4.85 -21.65 -4.25 -22.1 -3.65 -22.45 -3.5 L-22.6 -3.45 -23.0 -3.5 Q-23.05 -3.5 -23.15 -3.55 L-23.2 -3.7 -23.25 -3.7 -23.7 -3.8 Q-23.8 -3.8 -23.85 -3.85 L-24.2 -4.2 Q-24.55 -4.55 -24.45 -4.8 L-24.5 -4.9 -24.6 -4.95 Q-24.65 -4.95 -24.65 -5.25 L-24.65 -5.4 Q-24.65 -5.5 -24.6 -5.6 L-24.55 -5.6 Q-24.5 -5.7 -24.4 -5.7 L-24.25 -5.7 M-24.4 -4.85 L-24.35 -4.85 -24.4 -4.9 -24.4 -4.85 M-23.6 -2.1 Q-23.6 -2.0 -23.6 -1.95 -23.6 -1.9 -23.8 -1.65 -23.95 -1.45 -24.05 -1.4 L-24.15 -1.35 -24.3 -1.35 -24.5 -1.55 Q-24.55 -1.65 -24.55 -1.85 -24.55 -2.05 -24.35 -2.25 -24.1 -2.55 -23.7 -2.2 L-23.6 -2.1 M-15.25 -10.5 Q-15.2 -10.45 -15.2 -10.35 -15.15 -10.3 -15.2 -10.25 -15.3 -10.0 -16.05 -9.55 L-16.8 -9.05 Q-17.05 -8.85 -17.2 -8.6 L-17.4 -8.05 -17.4 -7.75 -17.35 -7.8 -17.3 -7.8 Q-17.15 -7.95 -17.05 -7.85 -16.95 -7.85 -16.9 -7.7 -16.85 -7.65 -16.85 -7.5 -16.8 -7.2 -17.45 -6.95 -17.85 -6.75 -17.9 -6.75 -17.9 -6.7 -17.95 -6.7 L-18.9 -6.7 Q-19.0 -6.7 -19.05 -6.8 L-19.3 -7.05 Q-19.35 -7.15 -19.35 -7.4 -19.35 -7.75 -19.15 -8.1 L-18.95 -8.45 -19.0 -8.45 -19.15 -8.55 -19.25 -8.65 Q-19.45 -9.15 -18.45 -9.8 -17.95 -10.2 -17.15 -10.5 L-17.0 -10.55 Q-16.8 -10.55 -16.6 -10.45 L-16.5 -10.4 -15.95 -10.5 -15.5 -10.6 -15.35 -10.6 Q-15.3 -10.6 -15.25 -10.5 M-20.0 -6.8 Q-19.9 -6.7 -19.85 -6.55 L-19.85 -6.4 -19.9 -6.3 Q-20.0 -6.15 -20.3 -6.0 L-20.6 -6.0 Q-20.75 -6.0 -20.75 -6.4 -20.75 -6.7 -20.5 -6.8 L-20.2 -6.85 Q-20.1 -6.85 -20.0 -6.8 M-14.9 -5.45 L-15.0 -6.05 -15.0 -6.3 Q-14.95 -6.4 -14.85 -6.5 -14.75 -6.55 -14.65 -6.55 -14.55 -6.55 -14.5 -6.45 -13.65 -5.45 -13.15 -4.9 -12.35 -3.9 -12.1 -3.2 L-12.1 -3.1 Q-12.05 -2.95 -12.25 -2.8 -11.9 -2.15 -11.35 -1.55 -10.85 -1.05 -10.25 -0.85 -9.75 -0.65 -9.75 -0.1 L-9.3 0.25 -8.7 0.8 Q-8.65 0.85 -8.65 0.95 L-8.65 1.15 Q-8.7 1.25 -8.85 1.3 L-9.05 1.3 Q-9.15 1.3 -9.65 0.85 -9.95 0.65 -10.1 0.55 -10.25 0.75 -10.5 0.75 -10.95 0.8 -11.65 -0.05 -12.15 -0.7 -12.45 -0.7 -12.8 -0.65 -13.65 -1.85 -14.25 -2.75 -14.55 -3.45 -14.75 -3.8 -14.85 -4.8 L-14.9 -5.45" fill="#cdffb4" fill-opacity="0.5019608" fill-rule="evenodd" stroke="none"/>
      <path d="M2.35 -17.75 L2.45 -17.6 Q1.3 -16.55 -1.5 -15.25 L-4.55 -13.95 -4.7 -14.1 Q-4.75 -14.25 -4.6 -14.4 -6.95 -14.1 -8.75 -13.2 L-10.05 -12.5 -10.55 -12.25 Q-11.25 -11.75 -11.25 -11.4 -11.25 -11.2 -12.3 -10.9 L-14.0 -10.55 -14.05 -10.5 Q-14.1 -10.5 -14.1 -10.6 L-13.75 -10.9 Q-13.35 -11.15 -13.35 -11.3 -13.35 -11.8 -12.1 -12.75 -10.85 -13.75 -10.85 -13.9 -10.85 -14.0 -10.9 -14.0 L-11.0 -13.95 Q-10.9 -14.1 -10.5 -14.25 L-10.1 -14.4 -9.5 -14.35 -9.05 -14.3 Q-8.1 -14.3 -8.0 -14.2 L-6.7 -14.4 Q-6.3 -14.55 -6.0 -14.75 -5.15 -15.2 -5.0 -15.5 L-4.85 -15.75 Q-4.8 -15.85 -4.6 -15.95 -4.45 -16.0 -4.2 -16.15 L-3.9 -16.3 Q-3.1 -16.7 -2.5 -16.95 -1.6 -17.25 -0.4 -17.35 L1.35 -17.7 2.35 -17.75 M13.65 -7.6 Q13.65 -8.0 14.3 -8.05 15.05 -8.05 16.5 -7.6 17.1 -7.35 17.75 -6.95 18.35 -6.55 18.65 -6.25 L18.85 -6.0 19.65 -5.55 19.7 -5.55 19.9 -5.5 Q20.1 -5.35 20.2 -5.0 L20.2 -4.5 20.15 -3.9 20.1 -3.5 20.1 -3.3 20.05 -2.7 Q20.0 -2.4 19.75 -2.1 L19.6 -2.1 19.7 -2.25 19.75 -2.45 Q19.75 -2.7 19.65 -3.05 L19.5 -3.15 Q19.15 -3.15 19.0 -3.0 L18.7 -3.05 Q18.4 -3.3 18.4 -3.45 18.4 -3.6 18.5 -4.0 L18.55 -4.15 18.4 -4.8 18.3 -5.1 Q17.7 -5.85 17.15 -5.9 L16.75 -5.85 Q16.6 -5.85 16.5 -5.85 16.35 -5.95 15.65 -6.25 14.95 -6.5 14.75 -6.65 14.2 -7.0 14.0 -7.15 13.65 -7.4 13.65 -7.6 M-24.25 -5.45 L-24.25 -5.3 -24.2 -5.15 -24.4 -5.15 -24.4 -5.45 -24.25 -5.45 M-23.7 -4.75 Q-22.75 -4.8 -22.45 -5.15 L-22.2 -5.45 Q-22.05 -5.6 -21.9 -5.65 L-21.65 -5.6 -21.55 -5.5 Q-21.45 -5.45 -21.45 -5.3 -21.45 -4.95 -21.85 -4.4 -22.25 -3.9 -22.6 -3.75 L-22.95 -3.75 -22.95 -3.85 -22.9 -3.95 -23.65 -4.05 -24.0 -4.35 Q-24.25 -4.6 -24.2 -4.75 L-24.2 -4.9 Q-24.3 -4.95 -24.05 -4.95 -23.9 -4.95 -23.85 -4.9 L-23.7 -4.75 M-24.25 -1.85 Q-24.25 -1.95 -24.15 -2.05 -24.05 -2.15 -23.85 -2.0 L-24.0 -1.8 -24.2 -1.6 -24.25 -1.65 -24.25 -1.85 M-17.15 -7.5 Q-17.15 -7.35 -17.55 -7.15 L-18.05 -6.95 -18.9 -6.95 -19.05 -7.15 -19.1 -7.4 Q-19.1 -7.65 -18.9 -7.95 -18.7 -8.3 -18.65 -8.65 L-19.0 -8.75 Q-19.1 -9.1 -18.3 -9.6 -17.8 -9.95 -17.05 -10.3 -16.9 -10.3 -16.75 -10.2 -16.6 -10.15 -16.5 -10.15 L-15.9 -10.25 -15.45 -10.35 Q-15.55 -10.2 -16.15 -9.8 L-17.0 -9.3 Q-17.3 -9.0 -17.4 -8.75 L-17.65 -8.1 -17.65 -7.65 Q-17.45 -7.55 -17.15 -7.6 -17.15 -7.7 -17.15 -7.5 M-20.1 -6.45 Q-20.2 -6.35 -20.4 -6.25 L-20.5 -6.25 -20.5 -6.4 Q-20.5 -6.55 -20.4 -6.6 L-20.2 -6.6 -20.1 -6.45 M-14.7 -6.3 L-13.4 -4.75 Q-12.6 -3.75 -12.35 -3.1 -12.35 -3.05 -12.45 -3.0 L-12.6 -2.95 Q-12.2 -2.1 -11.55 -1.4 -11.0 -0.8 -10.35 -0.6 -10.0 -0.45 -10.0 -0.1 -10.0 -0.05 -9.5 0.45 L-8.9 0.95 -8.9 1.0 -8.95 1.05 -9.5 0.65 Q-9.9 0.35 -10.1 0.3 L-10.3 0.4 Q-10.35 0.5 -10.5 0.5 -10.85 0.5 -11.45 -0.25 -12.05 -1.0 -12.45 -1.0 -12.7 -1.0 -13.45 -2.0 -14.0 -2.85 -14.35 -3.55 -14.5 -3.9 -14.55 -4.8 L-14.65 -5.5 -14.75 -6.05 -14.75 -6.25 -14.7 -6.3" fill="#ffffff" fill-rule="evenodd" stroke="none"/>
    </g>
  </defs>
</svg>
