<?xml version="1.0" encoding="UTF-8" standalone="no"?>
<svg xmlns:ffdec="https://www.free-decompiler.com/flash" xmlns:xlink="http://www.w3.org/1999/xlink" ffdec:objectType="frame" height="237.65px" width="358.05px" xmlns="http://www.w3.org/2000/svg">
  <g transform="matrix(1.0, 0.0, 0.0, 1.0, 178.5, 224.0)">
    <use ffdec:characterId="1935" height="32.5" transform="matrix(7.0, 0.0, 0.0, 7.0, -178.5, -222.6)" width="51.05" xlink:href="#shape0"/>
  </g>
  <defs>
    <g id="shape0" transform="matrix(1.0, 0.0, 0.0, 1.0, 25.5, 31.8)">
      <path d="M3.15 -17.85 L3.9 -17.95 4.35 -18.25 4.6 -18.25 Q4.75 -18.2 4.9 -18.05 5.0 -17.95 4.95 -17.8 4.95 -17.65 4.85 -17.5 4.5 -17.15 4.25 -17.05 3.9 -16.8 3.05 -16.7 L2.9 -16.7 2.65 -16.75 Q2.5 -16.75 2.4 -16.9 2.05 -16.95 1.95 -17.05 1.75 -17.2 1.75 -17.55 L1.75 -17.55 1.75 -17.65 Q1.75 -17.75 1.8 -17.85 L1.8 -17.9 1.75 -17.8 1.5 -17.55 Q1.4 -17.6 1.35 -17.7 1.2 -17.6 1.15 -17.6 L0.55 -17.6 Q0.4 -17.55 0.3 -17.4 0.2 -17.3 0.2 -17.2 0.05 -17.2 -0.05 -17.3 -0.15 -17.35 -0.2 -17.45 -0.4 -17.85 -0.4 -18.0 L-0.4 -18.1 -0.35 -18.35 Q-0.45 -18.35 -0.5 -18.4 -0.6 -18.5 -0.65 -18.65 L-0.75 -18.75 Q-1.15 -19.0 -1.15 -19.45 L-1.2 -19.6 Q-1.2 -19.7 -1.1 -19.95 L-1.1 -20.05 Q-1.15 -20.05 -1.2 -20.1 -1.4 -20.15 -1.45 -20.35 L-1.5 -20.5 Q-1.55 -20.65 -1.5 -20.75 -1.45 -20.9 -1.35 -20.95 -1.25 -21.05 -1.1 -21.05 -1.0 -21.1 -1.0 -20.95 -0.95 -21.1 -0.8 -21.15 L-0.5 -21.2 Q-0.25 -21.1 0.1 -20.85 0.5 -20.45 0.45 -20.3 L0.45 -20.25 0.4 -20.05 Q0.4 -19.85 0.3 -19.75 L0.05 -19.6 0.25 -19.35 Q0.5 -18.95 0.35 -18.7 L0.25 -18.55 0.25 -18.5 0.15 -18.45 0.0 -18.35 Q-0.2 -18.2 -0.1 -18.0 L-0.1 -18.05 Q-0.05 -18.25 0.15 -18.25 L0.25 -18.35 Q0.9 -18.4 1.05 -18.65 L0.95 -18.7 0.95 -18.85 0.9 -19.0 Q0.9 -19.15 1.15 -19.3 1.45 -19.45 1.9 -19.4 2.35 -19.25 2.3 -18.85 2.25 -18.4 2.6 -18.25 L2.55 -18.1 2.65 -18.0 2.85 -18.0 3.05 -17.95 3.15 -17.85 M0.85 -18.05 Q0.9 -18.0 0.95 -18.0 L1.2 -18.2 1.25 -18.3 1.3 -18.35 Q1.0 -18.3 0.5 -18.05 L0.75 -18.1 Q0.8 -18.1 0.85 -18.05 M2.4 -18.95 L2.4 -18.95 M1.75 -18.85 Q1.75 -18.8 1.65 -18.7 L1.6 -18.65 1.9 -18.8 1.9 -18.85 1.75 -18.85 M1.75 -18.0 L1.85 -18.0 1.95 -18.1 1.75 -18.0 M1.9 -17.55 L1.9 -17.55 M2.5 -15.75 Q2.6 -15.75 2.7 -15.65 L3.3 -15.15 3.55 -14.9 3.6 -14.9 3.75 -14.85 Q4.3 -14.9 4.75 -13.8 L4.75 -13.75 5.0 -12.85 Q5.0 -11.7 4.15 -11.15 4.0 -11.1 3.85 -11.1 3.7 -11.15 3.6 -11.25 3.5 -11.35 3.5 -11.5 L3.5 -11.55 3.35 -11.5 Q3.15 -11.5 3.1 -11.4 3.05 -11.25 3.0 -11.15 L2.9 -11.0 Q2.75 -10.8 2.75 -10.65 L2.75 -10.55 2.8 -10.6 2.85 -10.6 Q2.9 -11.0 3.4 -11.0 3.7 -11.0 3.75 -10.9 4.95 -10.6 5.25 -9.9 L5.25 -9.8 Q5.4 -9.25 5.5 -9.0 L5.55 -9.0 6.05 -8.0 Q6.25 -7.6 6.25 -6.95 6.25 -6.2 5.8 -5.4 5.35 -4.65 4.55 -4.05 3.55 -3.35 2.7 -2.8 1.4 -2.1 0.7 -1.95 L0.3 -1.75 0.15 -1.75 -0.5 -1.6 -0.65 -1.6 Q-2.05 -1.6 -2.7 -1.8 -2.95 -1.9 -3.65 -2.3 L-4.4 -3.0 -4.9 -3.35 -4.95 -3.4 Q-5.25 -3.65 -5.45 -3.7 L-5.7 -3.8 -5.85 -3.8 -6.2 -3.95 Q-6.3 -4.0 -6.35 -4.1 -6.45 -4.2 -6.5 -4.3 -6.55 -4.75 -7.2 -5.85 -7.95 -7.15 -7.9 -7.8 -7.9 -8.3 -7.65 -9.1 -7.35 -10.1 -6.8 -10.3 -6.5 -10.6 -5.85 -11.0 L-5.25 -11.35 Q-4.7 -11.8 -3.75 -12.05 -3.3 -12.15 -3.0 -12.55 L-2.95 -12.8 -2.95 -12.75 Q-2.9 -13.0 -2.9 -13.15 -2.9 -13.5 -3.0 -13.85 -3.1 -14.0 -3.2 -14.15 L-3.25 -14.15 Q-4.0 -14.05 -4.1 -15.25 -4.15 -15.55 -4.3 -15.6 -5.1 -15.6 -5.7 -15.1 -5.8 -15.0 -5.95 -15.0 -6.1 -15.0 -6.25 -15.1 -6.35 -15.15 -6.4 -15.3 -6.45 -15.45 -6.45 -15.8 -6.45 -16.05 -6.25 -16.5 -6.05 -17.05 -5.8 -17.15 L-5.4 -17.4 -4.85 -17.7 -4.45 -18.05 Q-4.15 -18.35 -3.95 -18.45 L-3.45 -18.45 -3.2 -18.4 Q-2.85 -18.25 -2.7 -17.9 L-2.6 -17.75 -2.45 -17.6 -2.1 -17.35 -1.9 -17.2 Q-1.75 -17.1 -1.75 -16.95 -1.7 -16.8 -1.75 -16.7 L-1.75 -16.65 Q-1.65 -16.55 -1.55 -16.55 -1.4 -16.55 -1.05 -16.65 -1.0 -16.75 -0.9 -16.75 L-0.35 -16.75 -0.1 -16.6 Q-0.05 -16.5 0.0 -16.4 L0.0 -16.25 Q0.1 -16.05 0.15 -16.0 0.55 -15.8 1.3 -15.75 L1.6 -15.9 Q1.75 -16.0 1.9 -15.95 2.15 -15.9 2.25 -15.8 L2.5 -15.75 M2.7 -10.55 L2.75 -10.5 2.75 -10.55 2.7 -10.55 M-0.25 -19.7 L-0.25 -19.7" fill="#cdffb4" fill-opacity="0.5019608" fill-rule="evenodd" stroke="none"/>
      <path d="M4.5 -17.8 Q4.25 -17.5 4.05 -17.4 3.7 -17.25 3.0 -17.15 L2.7 -17.2 Q2.7 -17.3 2.8 -17.3 2.35 -17.3 2.2 -17.4 2.15 -17.45 2.15 -17.55 L2.2 -17.7 2.25 -17.75 Q2.35 -17.6 2.55 -17.6 L2.8 -17.55 Q2.9 -17.5 2.85 -17.4 3.85 -17.4 4.15 -17.55 L4.45 -17.8 4.5 -17.8 M1.15 -19.1 Q1.95 -19.25 1.95 -18.9 L1.95 -18.7 Q1.9 -18.5 1.6 -18.4 L1.35 -18.05 Q1.15 -17.8 0.95 -17.8 L0.85 -17.85 0.75 -17.95 0.35 -17.95 0.35 -17.9 Q0.3 -17.9 0.3 -18.0 0.3 -18.1 0.85 -18.25 1.35 -18.4 1.35 -18.7 1.35 -18.8 1.4 -18.85 L1.5 -18.85 Q1.5 -18.95 1.35 -19.0 L1.15 -19.1 M0.05 -18.1 Q0.3 -18.05 0.3 -17.9 L0.3 -17.75 0.2 -17.65 Q0.05 -17.9 0.05 -18.0 L0.05 -18.1 M1.65 -18.0 L1.65 -18.05 Q1.65 -18.15 1.7 -18.15 L1.7 -18.1 1.9 -18.05 1.95 -18.05 Q2.0 -18.0 1.9 -18.0 L1.65 -18.0 M2.4 -15.35 L3.0 -14.8 3.3 -14.55 3.45 -14.5 Q3.7 -14.4 3.75 -14.4 4.05 -14.4 4.35 -13.6 L4.6 -12.85 Q4.6 -11.95 3.9 -11.55 3.9 -12.05 3.3 -11.95 2.7 -11.85 2.65 -11.4 L2.55 -11.25 Q2.3 -10.95 2.3 -10.65 L2.35 -10.35 Q2.4 -10.15 2.8 -10.15 L2.9 -10.15 3.2 -10.2 Q3.25 -10.25 3.3 -10.45 3.3 -10.55 3.4 -10.55 3.55 -10.55 3.5 -10.5 4.55 -10.25 4.85 -9.7 5.0 -9.05 5.15 -8.8 L5.65 -7.8 Q5.8 -7.45 5.8 -6.95 5.8 -6.3 5.4 -5.65 5.0 -4.95 4.3 -4.4 3.35 -3.7 2.45 -3.2 1.25 -2.5 0.55 -2.35 0.3 -2.25 0.15 -2.2 L0.1 -2.2 Q-0.15 -2.1 -0.55 -2.05 L-0.65 -2.05 Q-1.95 -2.05 -2.55 -2.25 -2.8 -2.3 -3.45 -2.7 L-4.1 -3.3 Q-4.4 -3.6 -4.65 -3.75 -5.05 -4.05 -5.3 -4.15 L-5.65 -4.2 -6.05 -4.4 Q-6.15 -4.85 -6.85 -6.1 -7.45 -7.2 -7.45 -7.8 -7.45 -8.25 -7.25 -8.95 -7.0 -9.75 -6.55 -9.95 -6.25 -10.2 -5.6 -10.6 L-5.0 -11.0 Q-4.5 -11.4 -3.65 -11.6 -3.0 -11.75 -2.6 -12.35 L-2.55 -12.65 Q-2.45 -12.95 -2.45 -13.15 -2.45 -13.6 -2.6 -14.0 -2.8 -14.4 -3.15 -14.65 L-3.25 -14.6 Q-3.6 -14.6 -3.65 -15.35 -3.75 -16.05 -4.3 -16.05 -5.3 -16.05 -6.0 -15.45 L-6.0 -15.8 Q-6.0 -16.0 -5.85 -16.35 -5.7 -16.7 -5.55 -16.75 -5.45 -16.85 -5.2 -17.0 L-4.55 -17.35 -3.75 -18.05 -3.45 -18.05 -3.4 -18.0 -3.35 -18.0 Q-3.15 -17.9 -3.1 -17.7 L-3.05 -17.7 -3.05 -17.65 -3.0 -17.45 -2.7 -17.25 -2.4 -17.0 -2.15 -16.85 Q-2.25 -16.75 -2.45 -16.7 -2.0 -16.1 -1.55 -16.1 -1.3 -16.1 -0.9 -16.25 L-0.7 -16.3 -0.7 -16.35 -0.65 -16.35 -0.65 -16.3 -0.45 -16.3 -0.5 -16.15 Q-0.2 -15.75 -0.05 -15.65 0.4 -15.35 1.4 -15.3 L1.8 -15.5 1.95 -15.45 1.85 -15.4 2.4 -15.35 M-0.2 -20.5 L0.0 -20.3 0.0 -20.05 -0.05 -20.05 Q-0.05 -20.1 -0.15 -20.1 -0.3 -20.1 -0.5 -19.9 L-0.75 -19.6 -0.7 -19.85 Q-0.65 -19.95 -0.65 -20.05 -0.65 -20.2 -0.7 -20.35 -0.8 -20.55 -1.0 -20.45 L-1.05 -20.65 Q-0.65 -20.7 -0.6 -20.75 -0.45 -20.7 -0.2 -20.5 M-0.05 -18.85 L-0.25 -18.75 Q-0.3 -19.0 -0.55 -19.15 -0.7 -19.25 -0.7 -19.45 -0.7 -19.6 -0.65 -19.55 L-0.6 -19.45 Q-0.55 -19.35 -0.35 -19.3 -0.2 -19.25 -0.1 -19.1 0.0 -18.95 -0.05 -18.85" fill="#ffffff" fill-rule="evenodd" stroke="none"/>
      <path d="M2.4 -31.7 L2.55 -31.6 Q2.65 -31.55 2.75 -31.55 L2.8 -31.55 Q3.35 -31.5 3.3 -31.1 3.3 -31.0 3.25 -30.95 3.15 -30.85 3.05 -30.85 2.35 -30.8 2.05 -30.5 1.95 -30.35 2.0 -30.15 L2.0 -30.05 Q2.05 -29.85 1.75 -29.75 1.65 -29.7 1.6 -29.75 L1.45 -29.85 1.25 -30.15 Q1.05 -30.4 1.05 -30.55 1.05 -30.75 1.2 -30.85 1.05 -31.05 1.05 -31.25 1.0 -31.35 1.5 -31.75 1.55 -31.8 1.65 -31.8 L2.25 -31.75 Q2.35 -31.75 2.4 -31.7 M0.1 -31.4 Q0.15 -31.35 0.15 -31.25 0.15 -31.15 0.05 -31.1 -0.25 -30.75 -0.35 -30.75 -0.45 -30.7 -0.55 -30.75 -0.65 -30.75 -0.7 -30.8 -0.8 -30.85 -0.8 -31.15 -0.8 -31.4 -0.7 -31.5 -0.5 -31.8 -0.05 -31.6 L0.05 -31.5 0.1 -31.4 M5.6 -29.45 Q5.65 -29.65 5.65 -29.75 5.65 -29.9 5.75 -29.95 5.8 -30.05 5.9 -30.05 L6.0 -30.05 6.15 -29.95 6.3 -29.8 6.3 -29.75 Q6.35 -29.65 6.35 -29.5 L6.35 -29.35 6.4 -29.2 Q6.5 -29.0 6.85 -29.0 6.95 -29.0 7.05 -28.9 7.1 -28.85 7.1 -28.75 L7.1 -28.7 Q7.2 -28.8 7.3 -28.75 L7.55 -28.75 7.7 -28.7 Q7.8 -28.65 8.0 -28.25 8.2 -27.9 8.2 -27.85 L8.2 -27.75 8.15 -27.65 Q8.1 -27.4 7.9 -27.45 7.8 -27.45 7.75 -27.55 7.65 -27.55 7.55 -27.65 L6.95 -27.65 Q6.85 -27.7 6.8 -27.75 L6.8 -27.85 Q6.75 -27.9 6.75 -28.1 6.75 -28.2 6.8 -28.3 L6.7 -28.25 6.65 -28.25 6.5 -28.3 6.4 -28.15 Q6.35 -28.1 6.25 -28.1 L5.75 -28.1 Q5.65 -28.1 5.55 -28.15 5.5 -28.25 5.5 -28.35 L5.45 -29.0 Q5.45 -29.15 5.6 -29.45 M15.0 -20.55 L15.2 -20.4 15.25 -20.35 15.3 -20.2 Q15.3 -20.0 15.25 -19.9 15.2 -19.8 15.1 -19.75 L14.9 -19.75 Q14.8 -19.8 14.75 -19.9 14.75 -19.85 14.65 -19.9 L14.3 -20.0 Q14.2 -20.0 14.15 -20.1 14.1 -20.15 14.1 -20.25 14.1 -20.6 14.25 -20.65 L14.4 -20.7 14.85 -20.65 Q14.95 -20.65 15.0 -20.55 M22.45 -16.25 L22.55 -16.3 22.9 -16.25 23.25 -16.25 23.25 -16.3 Q23.25 -16.4 23.3 -16.45 23.35 -16.55 23.45 -16.55 L23.7 -16.55 23.85 -16.5 24.0 -16.5 24.1 -16.55 Q24.2 -16.6 24.3 -16.6 L25.0 -16.6 Q25.3 -16.45 25.4 -16.1 L25.5 -15.75 25.55 -15.6 25.5 -15.45 Q25.3 -15.25 25.15 -15.2 L25.05 -15.25 24.9 -15.3 Q24.85 -15.35 24.85 -15.4 L24.85 -15.5 Q23.8 -15.3 23.55 -14.8 L23.45 -14.7 23.35 -14.65 Q23.25 -14.65 23.2 -14.7 23.0 -14.85 22.9 -15.05 22.65 -15.15 22.5 -15.25 L22.15 -15.45 22.05 -15.6 Q22.0 -15.7 22.05 -15.75 L22.1 -15.95 22.1 -16.0 Q22.2 -16.15 22.45 -16.25 M22.7 -11.65 Q22.6 -11.7 22.55 -11.75 22.45 -11.8 22.45 -12.1 22.45 -12.5 22.9 -12.7 23.35 -12.9 24.2 -12.8 24.25 -12.8 24.35 -12.7 L24.4 -12.6 24.4 -12.45 24.25 -12.3 23.55 -11.95 22.85 -11.65 Q22.75 -11.65 22.7 -11.65 M-3.1 -30.1 L-3.1 -30.05 Q-3.3 -30.25 -3.3 -30.45 -3.3 -31.0 -2.1 -31.6 L-1.35 -31.6 Q-1.25 -31.6 -1.2 -31.5 -1.1 -31.4 -1.1 -31.3 L-1.1 -31.2 Q-1.1 -31.1 -1.2 -31.0 -1.25 -30.95 -1.35 -30.95 -1.95 -30.9 -2.25 -30.6 -2.4 -30.4 -2.4 -30.25 L-2.35 -30.05 -2.15 -29.75 Q-2.15 -29.7 -2.15 -29.6 -2.15 -29.55 -2.2 -29.45 L-2.25 -29.4 -2.35 -29.35 -2.7 -29.35 Q-3.0 -29.35 -3.1 -29.75 L-3.1 -30.1 M-23.95 -16.35 L-24.25 -16.4 -24.5 -16.45 Q-24.6 -16.45 -24.65 -16.55 -25.0 -17.0 -24.95 -17.15 -25.0 -17.6 -24.2 -18.3 -23.35 -19.05 -22.85 -18.75 L-22.75 -18.65 Q-22.7 -18.55 -22.7 -18.5 -22.7 -18.4 -22.8 -18.35 L-22.85 -18.3 -22.8 -18.3 -21.55 -18.1 -21.45 -18.05 -21.35 -17.95 -21.35 -17.9 -21.3 -17.85 Q-21.3 -17.8 -21.3 -17.6 -21.3 -17.3 -21.55 -16.95 -21.7 -16.75 -21.7 -16.55 L-21.7 -16.4 Q-21.75 -16.35 -21.8 -16.3 L-21.95 -16.25 Q-22.15 -16.25 -22.55 -16.4 L-22.8 -16.55 -23.6 -16.45 Q-23.7 -16.35 -23.95 -16.35 M-23.2 -5.0 Q-22.95 -5.0 -22.75 -4.8 -22.7 -4.8 -22.75 -4.75 -22.45 -4.75 -22.15 -4.95 -21.7 -5.25 -21.5 -5.25 L-21.35 -5.2 -21.25 -5.1 Q-21.2 -5.0 -21.2 -4.9 -21.2 -4.8 -21.25 -4.75 -21.4 -4.6 -21.85 -4.3 -22.15 -4.15 -22.2 -4.0 L-22.4 -3.6 -22.45 -3.2 -22.35 -2.85 -22.2 -2.35 Q-22.2 -2.05 -22.35 -1.55 L-22.4 -1.55 Q-22.45 -1.3 -22.75 -1.1 L-22.8 -1.1 Q-22.8 -0.85 -22.55 -0.45 L-22.4 -0.2 -22.2 -0.05 -22.2 0.0 Q-22.15 0.1 -22.05 0.35 -22.0 0.45 -22.05 0.55 -22.1 0.65 -22.2 0.7 -22.25 0.75 -22.35 0.7 -22.75 0.55 -23.4 0.4 -24.05 0.2 -24.25 -0.45 L-24.35 -0.9 -24.35 -0.95 -24.45 -1.0 -24.5 -1.15 -24.5 -1.35 Q-24.55 -1.3 -24.65 -1.25 L-24.8 -1.25 Q-25.05 -1.3 -25.3 -1.7 L-25.3 -1.75 Q-25.5 -2.1 -25.5 -2.3 -25.5 -2.45 -25.4 -2.65 L-25.4 -2.8 Q-25.4 -3.4 -24.9 -4.1 -24.2 -5.0 -23.2 -5.0 M-9.2 -27.6 Q-9.15 -27.55 -9.1 -27.5 -8.95 -27.4 -9.0 -27.15 L-9.0 -27.0 Q-8.75 -26.8 -8.85 -26.75 L-8.9 -26.6 -8.9 -26.55 -9.0 -26.45 -9.1 -26.45 Q-9.6 -26.35 -9.7 -26.65 -9.75 -26.7 -9.75 -27.0 -9.75 -27.25 -9.7 -27.3 L-9.65 -27.35 Q-9.6 -27.4 -9.4 -27.55 L-9.2 -27.6 M-12.65 -23.4 L-12.6 -23.5 Q-12.55 -23.6 -12.45 -23.6 L-12.15 -23.6 -12.05 -23.55 Q-11.75 -23.4 -11.7 -23.1 L-11.65 -22.8 Q-11.65 -22.55 -11.75 -22.45 L-11.75 -22.4 -11.9 -22.3 Q-11.95 -22.25 -12.05 -22.25 -12.15 -22.15 -12.45 -22.6 -12.5 -22.65 -12.65 -22.7 -12.75 -22.7 -12.8 -22.75 L-12.9 -22.9 -12.9 -23.15 -12.65 -23.4 M-22.45 -15.15 Q-21.2 -15.05 -21.05 -14.85 -20.85 -14.7 -21.0 -14.4 L-21.05 -14.3 -20.9 -14.15 -20.7 -14.0 Q-20.65 -14.0 -20.55 -13.95 -20.5 -13.9 -20.5 -13.8 L-20.45 -13.8 -20.45 -13.65 Q-20.45 -13.6 -20.45 -13.5 -20.45 -13.35 -20.85 -13.35 -21.95 -13.35 -22.5 -13.8 -22.9 -14.2 -22.9 -14.6 -22.9 -15.05 -22.6 -15.1 L-22.45 -15.15 M-19.45 -14.45 Q-19.25 -14.4 -19.0 -14.2 -18.7 -13.95 -18.65 -13.75 L-18.65 -13.6 -18.7 -13.5 Q-18.75 -13.4 -19.65 -13.3 -19.75 -13.3 -19.85 -13.35 -19.9 -13.4 -19.9 -13.5 L-19.95 -13.6 -19.95 -13.65 Q-19.95 -13.85 -19.85 -13.95 L-19.85 -14.25 Q-19.75 -14.6 -19.5 -14.45 L-19.45 -14.45 M-15.4 -14.3 L-15.25 -14.3 -15.15 -14.25 -14.95 -14.05 -14.95 -13.8 Q-14.95 -13.4 -15.05 -13.3 L-15.1 -13.3 -15.5 -13.05 -15.6 -13.0 -15.7 -13.0 -15.8 -13.05 -15.85 -13.05 Q-16.05 -13.2 -16.05 -13.3 -16.05 -13.4 -16.05 -13.45 L-15.75 -13.75 -15.75 -13.8 Q-15.65 -13.9 -15.65 -14.05 -15.65 -14.15 -15.55 -14.2 -15.5 -14.3 -15.4 -14.3 M-13.25 -12.7 L-13.1 -12.5 -13.1 -12.45 Q-13.0 -12.35 -13.0 -12.2 -13.0 -12.1 -13.1 -12.05 L-13.1 -12.0 Q-13.2 -11.9 -13.4 -11.9 -13.5 -11.85 -13.55 -11.9 -13.65 -11.95 -13.7 -12.0 L-13.8 -12.25 Q-13.85 -12.35 -13.8 -12.45 -13.75 -12.75 -13.45 -12.75 -13.35 -12.75 -13.25 -12.7 M-11.85 -10.8 Q-11.4 -11.05 -11.3 -11.1 -11.0 -11.2 -10.55 -11.1 -10.4 -11.1 -10.35 -11.0 -10.3 -10.9 -10.3 -10.8 -10.35 -10.7 -10.4 -10.65 -10.75 -10.4 -11.2 -10.2 L-11.45 -10.2 -11.75 -10.25 Q-11.85 -10.3 -11.9 -10.35 L-12.0 -10.55 -11.95 -10.7 -11.85 -10.8 M-17.15 -12.45 Q-17.2 -12.4 -17.3 -12.35 L-17.5 -12.35 -17.75 -12.1 -17.75 -11.95 -17.5 -11.75 Q-17.4 -11.7 -17.4 -11.6 -17.35 -11.5 -17.4 -11.4 -17.45 -11.3 -17.55 -11.25 L-17.95 -11.15 -18.15 -11.05 -18.35 -11.0 -19.5 -11.05 -19.7 -11.15 Q-19.95 -11.5 -19.9 -11.6 L-19.9 -11.65 Q-20.05 -11.85 -20.05 -12.05 -20.05 -12.5 -19.5 -12.85 -18.9 -13.25 -18.05 -13.2 -17.95 -13.2 -17.85 -13.1 L-17.8 -13.05 -17.6 -13.0 -17.45 -12.95 -17.4 -12.95 Q-17.1 -12.85 -17.1 -12.75 -17.05 -12.65 -17.05 -12.6 -17.1 -12.5 -17.15 -12.45 M-14.75 -9.25 Q-14.9 -9.4 -14.9 -9.75 -14.9 -10.6 -14.05 -10.6 -13.95 -10.6 -13.85 -10.55 -13.8 -10.45 -13.8 -10.35 -13.8 -10.05 -13.7 -9.9 L-13.6 -9.75 -13.55 -9.8 Q-13.5 -9.85 -13.45 -9.9 L-13.3 -9.9 -13.15 -9.85 -13.05 -9.65 Q-12.85 -9.6 -12.05 -9.85 L-11.95 -9.85 Q-11.5 -9.8 -11.55 -9.55 -11.5 -9.5 -11.55 -9.45 -11.55 -9.35 -11.6 -9.3 -11.7 -9.25 -12.0 -9.05 L-12.35 -8.9 Q-12.45 -8.85 -12.55 -8.85 L-12.95 -8.9 -13.25 -9.0 Q-13.3 -9.0 -13.35 -9.05 L-13.4 -9.05 -13.65 -9.1 -13.9 -9.2 -14.1 -9.15 -14.55 -9.15 Q-14.7 -9.15 -14.75 -9.25 M-10.35 -11.4 Q-10.15 -11.65 -9.9 -11.65 -9.8 -11.65 -9.75 -11.6 L-9.65 -11.45 Q-9.6 -11.35 -9.65 -11.25 -9.75 -11.0 -10.15 -11.0 -10.25 -11.0 -10.3 -11.05 -10.4 -11.1 -10.4 -11.2 -10.4 -11.3 -10.35 -11.4" fill="#cdffb4" fill-opacity="0.5019608" fill-rule="evenodd" stroke="none"/>
      <path d="M2.25 -31.5 L2.4 -31.4 Q2.55 -31.25 2.75 -31.25 3.0 -31.25 3.0 -31.1 2.15 -31.0 1.85 -30.65 1.65 -30.4 1.75 -30.05 1.75 -30.0 1.65 -30.0 L1.45 -30.3 Q1.3 -30.45 1.3 -30.55 1.3 -30.65 1.4 -30.7 1.5 -30.7 1.5 -30.85 1.5 -30.95 1.4 -31.05 1.3 -31.15 1.3 -31.25 1.3 -31.3 1.65 -31.55 L2.25 -31.5 M5.7 -29.0 Q5.7 -29.1 5.8 -29.35 5.9 -29.6 5.9 -29.75 L6.0 -29.75 6.05 -29.7 6.05 -29.65 6.1 -29.5 6.1 -29.4 6.15 -29.1 Q6.3 -28.7 6.85 -28.75 L6.85 -28.6 6.65 -28.55 6.25 -28.55 Q6.2 -28.5 6.2 -28.45 L6.25 -28.35 5.75 -28.35 5.7 -29.0 M7.55 -28.5 L7.75 -28.15 7.95 -27.85 7.9 -27.75 Q7.8 -27.8 7.7 -27.85 L7.6 -27.95 7.05 -27.9 7.05 -27.95 7.0 -28.1 Q7.0 -28.3 7.25 -28.5 L7.55 -28.5 M14.85 -20.4 L15.05 -20.2 15.0 -20.0 14.75 -20.15 14.35 -20.25 Q14.35 -20.4 14.4 -20.45 L14.85 -20.4 M22.85 -16.0 Q23.05 -15.95 23.35 -15.95 L23.5 -16.2 23.5 -16.3 23.6 -16.3 23.8 -16.2 24.1 -16.25 24.3 -16.35 24.9 -16.35 Q25.05 -16.25 25.15 -16.05 25.25 -15.75 25.3 -15.6 25.2 -15.5 25.1 -15.5 L25.0 -15.8 Q23.6 -15.55 23.35 -14.95 23.15 -15.05 23.15 -15.25 22.8 -15.35 22.65 -15.45 L22.3 -15.7 22.35 -15.85 Q22.4 -15.95 22.55 -16.0 L22.85 -16.0 M22.75 -11.95 Q22.7 -11.95 22.7 -12.1 22.7 -12.35 23.0 -12.45 23.4 -12.65 24.15 -12.55 L23.45 -12.2 22.75 -11.9 22.75 -11.95 M-3.0 -30.45 Q-3.0 -30.9 -2.0 -31.35 L-1.4 -31.3 -1.4 -31.2 Q-2.1 -31.15 -2.45 -30.75 -2.65 -30.5 -2.65 -30.25 -2.65 -30.1 -2.6 -29.95 L-2.4 -29.65 -2.45 -29.6 -2.65 -29.65 Q-2.8 -29.65 -2.85 -29.8 L-2.85 -30.1 -2.9 -30.25 Q-3.0 -30.35 -3.0 -30.45 M-0.15 -31.35 L-0.15 -31.3 -0.45 -30.95 -0.55 -31.0 -0.55 -31.15 Q-0.55 -31.3 -0.5 -31.35 -0.4 -31.45 -0.15 -31.35 M-24.05 -18.1 Q-23.35 -18.7 -22.95 -18.55 L-23.2 -18.4 Q-23.1 -18.15 -22.95 -18.05 L-21.6 -17.8 -21.55 -17.75 -21.55 -17.6 Q-21.55 -17.35 -21.75 -17.1 -21.95 -16.85 -21.95 -16.5 -22.1 -16.5 -22.45 -16.65 L-22.75 -16.8 -23.8 -16.65 -23.85 -16.6 -23.95 -16.6 -24.15 -16.65 -24.45 -16.7 Q-24.7 -17.05 -24.7 -17.15 -24.7 -17.5 -24.05 -18.1 M-23.2 -4.75 Q-23.05 -4.75 -22.9 -4.6 L-22.75 -4.5 Q-22.4 -4.5 -22.0 -4.75 -21.65 -5.0 -21.5 -5.0 L-21.45 -4.95 Q-21.6 -4.8 -22.0 -4.5 -22.35 -4.3 -22.45 -4.15 L-22.65 -3.65 -22.7 -3.2 -22.6 -2.75 -22.45 -2.35 Q-22.45 -2.1 -22.6 -1.65 -22.7 -1.45 -22.9 -1.35 -23.05 -1.2 -23.05 -1.1 -23.05 -0.75 -22.75 -0.3 L-22.6 -0.05 Q-22.5 0.05 -22.45 0.15 -22.35 0.2 -22.25 0.45 -22.65 0.3 -23.35 0.15 -23.85 -0.05 -24.0 -0.55 L-24.1 -0.95 Q-24.1 -1.15 -24.25 -1.2 -24.25 -1.3 -24.3 -1.5 -24.35 -1.7 -24.5 -1.7 L-24.7 -1.5 Q-24.9 -1.55 -25.05 -1.85 -25.25 -2.15 -25.25 -2.3 -25.25 -2.4 -25.15 -2.6 L-25.15 -2.8 Q-25.15 -3.35 -24.7 -3.95 -24.1 -4.75 -23.2 -4.75 M-9.5 -27.0 L-9.45 -27.2 -9.25 -27.3 Q-9.2 -27.3 -9.25 -27.2 L-9.3 -27.0 Q-9.3 -26.85 -9.2 -26.8 L-9.1 -26.75 -9.15 -26.7 Q-9.4 -26.65 -9.5 -26.75 L-9.5 -27.0 M-12.45 -23.35 L-12.15 -23.35 Q-12.0 -23.25 -11.95 -23.05 -11.9 -23.0 -11.9 -22.8 -11.9 -22.65 -11.95 -22.6 L-12.05 -22.5 -12.25 -22.75 Q-12.35 -22.9 -12.65 -22.95 L-12.65 -23.05 -12.5 -23.2 Q-12.45 -23.3 -12.45 -23.35 M-22.5 -14.9 Q-21.35 -14.8 -21.25 -14.65 -21.2 -14.6 -21.25 -14.5 L-21.3 -14.3 Q-21.3 -14.2 -21.1 -14.0 -20.9 -13.75 -20.75 -13.75 L-20.7 -13.65 -20.85 -13.65 Q-21.85 -13.65 -22.3 -14.0 -22.65 -14.3 -22.65 -14.6 -22.65 -14.85 -22.5 -14.9 M-19.55 -14.2 Q-19.4 -14.2 -19.15 -14.0 -18.95 -13.8 -18.9 -13.65 L-19.65 -13.55 -19.7 -13.65 Q-19.7 -13.8 -19.6 -13.8 L-19.55 -13.85 -19.55 -13.9 Q-19.6 -13.95 -19.6 -14.1 -19.6 -14.25 -19.55 -14.2 M-13.45 -12.15 L-13.55 -12.4 Q-13.55 -12.5 -13.45 -12.5 L-13.3 -12.35 Q-13.25 -12.25 -13.25 -12.2 L-13.3 -12.2 Q-13.35 -12.15 -13.45 -12.15 M-15.25 -14.0 L-15.2 -13.95 -15.2 -13.8 Q-15.2 -13.55 -15.25 -13.5 -15.3 -13.45 -15.65 -13.25 L-15.7 -13.3 -15.8 -13.35 -15.55 -13.6 Q-15.4 -13.8 -15.4 -14.0 L-15.25 -14.0 M-14.65 -9.75 Q-14.65 -10.35 -14.05 -10.35 -14.05 -9.95 -13.95 -9.75 -13.8 -9.45 -13.35 -9.35 L-13.55 -9.35 -13.8 -9.45 -14.15 -9.45 -14.55 -9.4 Q-14.65 -9.5 -14.65 -9.75 M-11.75 -10.55 L-11.2 -10.85 Q-11.0 -10.95 -10.6 -10.85 -10.9 -10.6 -11.3 -10.45 L-11.45 -10.45 -11.7 -10.5 -11.75 -10.55 M-11.8 -9.5 Q-11.85 -9.45 -12.1 -9.3 L-12.5 -9.1 -12.9 -9.15 -13.15 -9.25 -13.3 -9.3 Q-13.4 -9.35 -13.4 -9.5 L-13.35 -9.65 Q-13.25 -9.5 -13.15 -9.4 -12.9 -9.3 -12.0 -9.6 -11.8 -9.55 -11.8 -9.5 M-17.95 -12.8 L-17.6 -12.75 -17.45 -12.7 -17.35 -12.65 -17.65 -12.55 Q-18.05 -12.2 -18.05 -12.1 -18.05 -11.95 -17.95 -11.8 -17.85 -11.65 -17.65 -11.55 L-18.0 -11.4 -18.35 -11.3 -19.5 -11.3 -19.65 -11.55 -19.6 -11.6 Q-19.6 -11.7 -19.7 -11.85 -19.8 -11.95 -19.8 -12.05 -19.8 -12.35 -19.35 -12.65 -18.8 -13.0 -18.05 -12.95 L-17.95 -12.8 M-9.9 -11.35 Q-9.95 -11.25 -10.15 -11.25 -10.05 -11.35 -9.9 -11.35" fill="#ffffff" fill-rule="evenodd" stroke="none"/>
    </g>
  </defs>
</svg>
