<?xml version="1.0" encoding="UTF-8" standalone="no"?>
<svg xmlns:ffdec="https://www.free-decompiler.com/flash" xmlns:xlink="http://www.w3.org/1999/xlink" ffdec:objectType="frame" height="147.65px" width="3697.1px" xmlns="http://www.w3.org/2000/svg">
  <g transform="matrix(1.0, 0.0, 0.0, 1.0, 0.0, 0.0)">
    <use ffdec:characterId="21" height="147.65" transform="matrix(1.0, 0.0, 0.0, 1.0, 0.0, 0.0)" width="3697.1" xlink:href="#shape0"/>
  </g>
  <defs>
    <g id="shape0" transform="matrix(1.0, 0.0, 0.0, 1.0, 0.0, 0.0)">
      <path d="M3389.1 19.95 Q3408.9 24.5 3419.95 29.4 3426.15 32.2 3467.95 48.85 3505.55 63.8 3515.95 69.0 3529.4 75.7 3553.05 88.75 3577.7 102.3 3589.6 108.3 3629.3 128.25 3669.25 138.1 3674.3 140.55 3686.3 143.7 L3697.1 146.25 3435.65 146.4 3434.9 145.9 3434.7 145.65 2664.85 145.45 2670.85 144.65 2634.3 144.65 2629.35 145.05 2629.1 144.95 2628.9 145.45 2505.7 145.65 2513.7 147.5 2252.25 147.65 2251.5 147.15 2251.3 146.9 1481.45 146.7 1487.45 145.9 1450.9 145.9 1445.95 146.3 1445.7 146.2 1445.5 146.7 1161.75 147.1 1165.95 146.35 1090.5 146.4 1089.75 145.9 1089.55 145.65 319.7 145.45 325.7 144.65 289.15 144.65 284.2 145.05 283.95 144.95 283.75 145.45 0.0 145.85 Q13.05 143.7 20.3 140.55 L89.7 121.05 Q135.3 107.85 162.7 98.25 L199.75 85.1 210.1 81.55 Q209.85 83.65 207.65 85.85 L209.15 85.85 Q209.2 88.65 206.25 90.05 205.65 90.35 205.15 90.85 L196.15 92.85 Q195.6 96.4 190.3 98.3 190.15 98.35 190.15 98.85 L208.15 96.85 Q206.8 98.6 211.15 100.85 L216.15 100.85 217.95 101.25 218.15 101.85 226.15 96.85 Q230.3 97.85 235.3 95.05 L236.2 94.85 Q231.9 99.45 237.2 98.85 235.8 103.25 236.2 105.85 242.05 104.05 243.2 106.85 247.2 107.0 248.2 102.85 257.25 102.8 247.2 115.85 L256.2 115.85 Q260.6 113.2 260.2 121.85 L262.2 115.85 278.2 116.85 Q281.9 115.85 277.2 122.85 282.75 122.95 286.2 117.85 L295.2 117.85 298.2 113.85 Q304.65 114.6 310.2 111.85 312.25 106.0 315.95 100.7 L318.2 96.85 Q318.55 94.7 321.2 97.85 325.9 94.75 330.2 93.85 L334.2 98.85 Q334.7 93.65 337.2 95.85 L346.2 96.85 346.2 102.85 351.2 102.85 Q355.05 109.2 359.2 105.85 L361.2 110.85 373.2 111.95 Q379.9 111.95 382.2 114.85 384.35 116.35 389.2 112.85 L393.2 116.85 Q397.7 119.85 400.05 117.1 399.95 117.75 403.2 119.85 L403.2 130.85 411.2 131.85 417.2 135.85 Q422.6 135.25 427.5 133.9 L428.2 134.85 Q434.85 135.1 435.25 128.85 434.75 125.65 438.25 128.85 L446.25 127.85 Q448.0 128.2 449.25 131.85 454.65 131.3 459.25 127.85 462.5 133.1 470.25 130.85 L471.25 124.85 479.25 124.85 478.25 115.85 Q481.2 119.5 486.25 118.85 L489.25 113.85 Q494.1 117.45 500.25 116.85 501.25 111.75 496.95 111.7 L507.25 110.85 Q507.1 107.75 508.45 105.4 508.75 104.85 508.25 103.85 L503.25 99.85 Q505.9 95.9 501.75 95.05 505.45 95.4 507.0 93.65 L507.25 92.85 520.25 94.85 526.25 91.85 532.25 94.85 539.25 93.85 Q538.2 89.0 532.25 89.85 535.35 85.25 524.3 82.65 L522.95 81.1 522.45 80.85 534.25 80.85 Q537.25 76.85 543.25 79.85 545.65 79.5 547.7 77.9 L558.65 78.0 559.2 77.8 560.5 77.8 562.1 77.8 Q563.9 77.45 565.9 77.8 L572.35 77.7 573.1 77.65 573.2 77.6 581.35 77.6 582.15 77.25 583.0 76.85 Q594.5 71.55 607.5 65.1 631.95 53.0 641.4 48.45 642.75 46.7 648.25 44.05 637.75 56.25 626.25 61.85 L626.3 63.85 Q626.85 72.55 622.25 68.85 621.25 69.85 620.05 70.25 613.6 72.35 614.25 77.85 L612.05 79.4 Q609.75 80.35 608.15 78.9 608.2 80.9 602.25 85.85 L600.25 86.85 599.25 93.9 596.05 95.0 596.25 95.5 Q597.0 97.75 596.25 100.85 594.6 102.5 593.25 102.85 L594.25 102.85 605.25 104.85 Q606.0 109.35 609.25 111.85 L614.25 109.85 Q622.5 115.0 625.25 113.85 629.05 118.15 639.25 112.85 642.7 114.95 648.3 111.85 650.75 110.15 646.3 109.85 L645.3 109.85 655.3 107.85 Q654.55 104.85 657.35 104.05 L659.3 103.85 659.3 95.85 664.3 92.85 Q663.2 84.95 672.3 86.85 L673.3 86.85 Q670.2 87.2 667.85 89.45 666.8 90.35 666.3 91.85 668.45 95.1 673.3 94.35 L673.3 94.85 672.3 100.85 678.3 101.85 681.3 104.85 Q684.75 104.15 687.45 105.6 L690.3 106.85 695.3 111.85 701.3 112.85 Q703.15 115.5 706.3 114.85 L707.3 114.85 Q707.65 119.2 712.4 119.85 715.7 120.0 715.3 122.85 L727.3 122.85 729.3 128.85 Q733.25 125.4 740.3 126.85 L741.3 126.85 741.3 116.85 Q746.7 119.5 751.3 113.85 L751.3 105.85 761.3 105.85 Q765.35 102.9 778.3 101.85 L785.3 103.85 Q789.05 101.95 786.55 98.7 786.3 98.35 786.3 97.85 L792.3 98.85 Q796.7 98.85 798.3 94.85 L798.3 90.85 809.3 89.85 Q814.8 86.85 823.3 84.85 821.4 80.2 826.45 81.1 L828.3 80.85 Q831.55 79.1 830.8 75.95 L830.3 75.85 Q822.0 76.5 831.3 74.85 L832.3 74.85 Q819.1 67.4 807.3 56.85 L805.3 53.85 Q815.15 55.1 813.3 49.85 806.25 50.15 812.8 46.35 L812.3 45.85 Q810.05 46.25 809.5 43.8 L809.3 41.85 Q805.75 42.45 804.3 38.85 L796.3 35.85 815.3 39.85 820.3 43.85 Q823.25 47.95 821.3 51.85 823.1 55.0 829.3 54.85 L832.3 55.85 835.3 60.85 853.35 62.85 Q852.45 67.3 857.4 66.05 L859.35 65.85 861.35 68.85 Q868.0 70.15 870.35 72.85 872.25 78.9 881.45 74.05 L882.35 73.85 879.35 63.85 890.35 63.85 Q892.45 66.45 895.95 69.1 896.8 69.75 898.35 69.85 900.95 71.8 897.35 74.85 L905.35 74.85 Q907.8 77.45 907.1 80.8 906.6 83.35 908.35 84.85 911.55 85.0 912.0 88.9 L912.35 92.85 Q926.7 90.1 940.35 94.85 952.6 87.9 957.35 86.85 959.55 87.2 963.6 83.1 963.85 82.85 964.35 82.85 967.25 87.8 974.45 86.25 L977.35 85.85 Q978.05 83.2 980.25 84.95 L982.35 86.85 988.35 87.85 Q985.05 92.8 990.3 93.5 L993.35 93.85 990.35 99.85 1001.35 99.85 Q1000.75 106.4 1009.35 103.85 L1015.35 99.85 Q1012.3 103.95 1022.35 103.85 L1018.35 111.85 1026.35 109.85 1036.35 112.85 1042.35 110.85 1046.35 112.85 Q1055.0 114.5 1059.4 107.85 L1068.4 108.85 Q1072.2 105.35 1071.4 99.85 1074.0 103.7 1080.4 97.85 1082.75 95.95 1085.4 98.85 L1102.4 96.85 Q1099.15 96.05 1108.4 95.85 1109.4 95.85 1110.4 94.85 1109.05 93.5 1107.95 92.9 1111.1 93.05 1113.15 90.65 L1113.4 89.85 Q1110.7 88.3 1106.55 86.5 1106.4 86.35 1106.4 85.85 1108.55 81.95 1104.45 81.45 L1103.4 80.85 Q1103.7 75.45 1097.35 75.95 1096.4 75.85 1095.4 74.85 1098.75 74.8 1098.05 71.95 L1097.4 70.85 1088.4 65.85 Q1085.05 66.4 1090.4 64.85 1083.1 61.65 1074.4 62.85 1065.7 55.25 1052.4 52.85 1067.1 52.75 1081.4 56.85 1092.95 61.3 1106.4 63.85 L1095.9 56.0 1096.0 54.95 Q1095.9 54.35 1095.4 53.85 1080.7 50.15 1074.4 37.85 1070.4 34.95 1070.4 38.85 1060.25 27.5 1045.35 21.85 L1043.95 19.95 Q1063.75 24.5 1074.8 29.4 1081.0 32.2 1122.8 48.85 1160.4 63.8 1170.8 69.0 1184.25 75.7 1207.9 88.75 1232.55 102.3 1244.45 108.3 1255.0 113.6 1265.55 118.2 1301.4 107.55 1324.45 99.5 L1361.5 86.35 1371.85 82.8 Q1371.6 84.9 1369.4 87.1 L1370.9 87.1 Q1370.95 89.9 1368.0 91.3 L1366.9 92.1 1357.9 94.1 Q1357.35 97.65 1352.05 99.55 1351.9 99.6 1351.9 100.1 L1369.9 98.1 Q1368.55 99.85 1372.9 102.1 L1377.9 102.1 1379.7 102.5 1379.9 103.1 1387.9 98.1 Q1392.05 99.1 1397.05 96.3 L1397.95 96.1 Q1393.65 100.7 1398.95 100.1 1397.55 104.5 1397.95 107.1 1403.8 105.3 1404.95 108.1 1408.95 108.25 1409.95 104.1 1419.0 104.05 1408.95 117.1 L1417.95 117.1 Q1422.35 114.45 1421.95 123.1 L1423.95 117.1 1439.95 118.1 Q1443.65 117.1 1438.95 124.1 1444.5 124.2 1447.95 119.1 L1456.95 119.1 1459.95 115.1 Q1466.4 115.85 1471.95 113.1 1474.0 107.25 1477.7 101.95 L1479.95 98.1 Q1480.3 95.95 1482.95 99.1 1487.65 96.0 1491.95 95.1 L1495.95 100.1 Q1496.45 94.9 1498.95 97.1 L1507.95 98.1 1507.95 104.1 1512.95 104.1 Q1516.8 110.45 1520.95 107.1 L1522.95 112.1 1534.95 113.2 Q1541.65 113.2 1543.95 116.1 1546.1 117.6 1550.95 114.1 L1554.95 118.1 Q1559.45 121.1 1561.8 118.35 1561.7 119.0 1564.95 121.1 L1564.95 132.1 1572.95 133.1 1578.95 137.1 Q1584.35 136.5 1589.25 135.15 L1589.95 136.1 Q1596.6 136.35 1597.0 130.1 1596.5 126.9 1600.0 130.1 L1608.0 129.1 Q1609.75 129.45 1611.0 133.1 1616.4 132.55 1621.0 129.1 1624.25 134.35 1632.0 132.1 L1633.0 126.1 1641.0 126.1 1640.0 117.1 Q1642.95 120.75 1648.0 120.1 L1651.0 115.1 Q1655.85 118.7 1662.0 118.1 1663.0 113.0 1658.7 112.95 L1669.0 112.1 Q1668.85 109.0 1670.2 106.65 1670.5 106.1 1670.0 105.1 L1665.0 101.1 Q1667.65 97.15 1663.5 96.3 1667.2 96.65 1668.75 94.9 L1669.0 94.1 1682.0 96.1 1688.0 93.1 1694.0 96.1 1701.0 95.1 Q1699.95 90.25 1694.0 91.1 1697.1 86.5 1686.05 83.9 L1684.7 82.35 Q1684.5 82.1 1684.15 82.1 L1696.0 82.1 Q1699.0 78.1 1705.0 81.1 1707.4 80.75 1709.45 79.15 L1720.4 79.25 Q1720.65 79.1 1720.95 79.05 L1722.25 79.05 1723.85 79.05 Q1725.65 78.7 1727.65 79.05 L1734.1 78.95 1734.85 78.9 1734.95 78.85 1743.1 78.85 1743.9 78.5 1744.75 78.1 Q1756.25 72.8 1769.25 66.35 L1803.15 49.7 Q1804.5 47.95 1810.0 45.3 1799.5 57.5 1788.0 63.1 L1788.05 65.1 Q1788.6 73.8 1784.0 70.1 1783.0 71.1 1781.8 71.5 1775.35 73.6 1776.0 79.1 1775.0 80.1 1773.8 80.65 1771.5 81.6 1769.9 80.15 1769.95 82.15 1764.0 87.1 L1762.0 88.1 1761.0 95.15 1757.8 96.25 1758.0 96.75 Q1758.75 99.0 1758.0 102.1 1756.35 103.75 1755.0 104.1 L1756.0 104.1 1767.0 106.1 Q1767.75 110.6 1771.0 113.1 L1776.0 111.1 Q1784.25 116.25 1787.0 115.1 1790.8 119.4 1801.0 114.1 1804.45 116.2 1810.05 113.1 1812.5 111.4 1808.05 111.1 L1807.05 111.1 1817.05 109.1 Q1816.3 106.1 1819.1 105.3 L1821.05 105.1 1821.05 97.1 1826.05 94.1 Q1824.95 86.2 1834.05 88.1 L1835.05 88.1 Q1831.95 88.45 1829.6 90.7 1828.55 91.6 1828.05 93.1 1830.2 96.35 1835.05 95.6 L1835.05 96.1 1834.05 102.1 1840.05 103.1 1843.05 106.1 Q1846.5 105.4 1849.2 106.85 L1852.05 108.1 1857.05 113.1 1863.05 114.1 Q1864.9 116.75 1868.05 116.1 L1869.05 116.1 Q1869.4 120.45 1874.15 121.1 1877.45 121.25 1877.05 124.1 L1889.05 124.1 1891.05 130.1 Q1895.0 126.65 1902.05 128.1 L1903.05 128.1 1903.05 118.1 Q1908.45 120.75 1913.05 115.1 L1913.05 107.1 1923.05 107.1 Q1927.1 104.15 1940.05 103.1 L1947.05 105.1 Q1950.8 103.2 1948.3 99.95 L1948.05 99.1 1954.05 100.1 Q1958.45 100.1 1960.05 96.1 L1960.05 92.1 1971.05 91.1 Q1976.55 88.1 1985.05 86.1 1983.15 81.45 1988.2 82.35 1989.05 82.6 1990.05 82.1 1993.3 80.35 1992.55 77.2 L1992.05 77.1 Q1983.75 77.75 1993.05 76.1 L1994.05 76.1 Q1980.85 68.65 1969.05 58.1 L1967.05 55.1 Q1976.9 56.35 1975.05 51.1 1968.0 51.4 1974.55 47.6 L1974.05 47.1 Q1971.8 47.5 1971.25 45.05 L1971.05 43.1 Q1967.5 43.7 1966.05 40.1 L1958.05 37.1 1977.05 41.1 1982.05 45.1 Q1985.0 49.2 1983.05 53.1 1984.85 56.25 1991.05 56.1 L1994.05 57.1 1997.05 62.1 2015.1 64.1 Q2014.2 68.55 2019.15 67.3 L2021.1 67.1 2023.1 70.1 Q2029.75 71.4 2032.1 74.1 2034.0 80.15 2043.2 75.3 L2044.1 75.1 2041.1 65.1 2052.1 65.1 Q2054.2 67.7 2057.7 70.35 2058.55 71.0 2060.1 71.1 2062.7 73.05 2059.1 76.1 L2067.1 76.1 Q2069.55 78.7 2068.85 82.05 2068.35 84.6 2070.1 86.1 2073.3 86.25 2073.75 90.15 L2074.1 94.1 Q2088.45 91.35 2102.1 96.1 2114.35 89.15 2119.1 88.1 2121.3 88.45 2125.35 84.35 2125.6 84.1 2126.1 84.1 2129.0 89.05 2136.2 87.5 L2139.1 87.1 Q2139.8 84.45 2142.0 86.2 L2144.1 88.1 2150.1 89.1 Q2146.8 94.05 2152.05 94.75 L2155.1 95.1 2152.1 101.1 2163.1 101.1 Q2162.5 107.65 2171.1 105.1 L2177.1 101.1 Q2174.05 105.2 2184.1 105.1 L2180.1 113.1 2188.1 111.1 2198.1 114.1 2204.1 112.1 2208.1 114.1 Q2216.75 115.75 2221.15 109.1 L2230.15 110.1 Q2233.95 106.6 2233.15 101.1 2235.75 104.95 2242.15 99.1 2244.5 97.2 2247.15 100.1 L2264.15 98.1 Q2260.9 97.3 2270.15 97.1 2271.15 97.1 2272.15 96.1 2270.8 94.75 2269.7 94.15 2272.85 94.3 2274.9 91.9 L2275.15 91.1 Q2272.45 89.55 2268.3 87.75 2268.15 87.6 2268.15 87.1 2270.3 83.2 2266.2 82.7 L2265.15 82.1 Q2265.45 76.7 2259.1 77.2 2258.15 77.1 2257.15 76.1 2260.5 76.05 2259.8 73.2 2259.65 72.6 2259.15 72.1 L2250.15 67.1 Q2246.8 67.65 2252.15 66.1 2244.85 62.9 2236.15 64.1 2227.45 56.5 2214.15 54.1 2228.85 54.0 2243.15 58.1 2254.7 62.55 2268.15 65.1 L2257.65 57.25 2257.75 56.2 Q2257.65 55.6 2257.15 55.1 2242.45 51.4 2236.15 39.1 2232.15 36.2 2232.15 40.1 2222.0 28.75 2207.1 23.1 L2205.7 21.2 Q2225.5 25.75 2236.55 30.65 2242.75 33.45 2284.55 50.1 2322.15 65.05 2332.55 70.25 2346.0 76.95 2369.65 90.0 2394.3 103.55 2406.2 109.55 2419.4 116.2 2432.65 121.7 L2434.85 121.05 Q2480.45 107.85 2507.85 98.25 2533.2 89.2 2544.9 85.1 L2555.25 81.55 Q2555.0 83.65 2552.8 85.85 L2554.3 85.85 Q2554.35 88.65 2551.4 90.05 L2550.3 90.85 2541.3 92.85 Q2540.75 96.4 2535.45 98.3 2535.3 98.35 2535.3 98.85 L2553.3 96.85 Q2551.95 98.6 2556.3 100.85 L2561.3 100.85 2563.1 101.25 Q2563.3 101.35 2563.3 101.85 L2571.3 96.85 Q2575.45 97.85 2580.45 95.05 L2581.35 94.85 Q2577.05 99.45 2582.35 98.85 2580.95 103.25 2581.35 105.85 2587.2 104.05 2588.35 106.85 2592.35 107.0 2593.35 102.85 2602.4 102.8 2592.35 115.85 L2601.35 115.85 Q2605.75 113.2 2605.35 121.85 L2607.35 115.85 2623.35 116.85 Q2627.05 115.85 2622.35 122.85 2627.9 122.95 2631.35 117.85 L2640.35 117.85 2643.35 113.85 Q2649.8 114.6 2655.35 111.85 2657.4 106.0 2661.1 100.7 L2663.35 96.85 Q2663.7 94.7 2666.35 97.85 2671.05 94.75 2675.35 93.85 L2679.35 98.85 Q2679.85 93.65 2682.35 95.85 L2691.35 96.85 2691.35 102.85 2696.35 102.85 Q2700.2 109.2 2704.35 105.85 L2706.35 110.85 2718.35 111.95 Q2725.05 111.95 2727.35 114.85 2729.5 116.35 2734.35 112.85 L2738.35 116.85 Q2742.85 119.85 2745.2 117.1 2745.1 117.75 2748.35 119.85 L2748.35 130.85 2756.35 131.85 2762.35 135.85 Q2767.75 135.25 2772.65 133.9 L2773.35 134.85 Q2780.0 135.1 2780.4 128.85 2779.9 125.65 2783.4 128.85 L2791.4 127.85 Q2793.15 128.2 2794.4 131.85 2799.8 131.3 2804.4 127.85 2807.65 133.1 2815.4 130.85 L2816.4 124.85 2824.4 124.85 2823.4 115.85 Q2826.35 119.5 2831.4 118.85 L2834.4 113.85 Q2839.25 117.45 2845.4 116.85 2846.4 111.75 2842.1 111.7 L2852.4 110.85 Q2852.25 107.75 2853.6 105.4 2853.9 104.85 2853.4 103.85 L2848.4 99.85 Q2851.05 95.9 2846.9 95.05 2850.6 95.4 2852.15 93.65 L2852.4 92.85 2865.4 94.85 2871.4 91.85 2877.4 94.85 2884.4 93.85 Q2883.35 89.0 2877.4 89.85 2880.5 85.25 2869.45 82.65 L2868.1 81.1 Q2867.9 80.85 2867.6 80.85 L2879.4 80.85 Q2882.4 76.85 2888.4 79.85 2890.8 79.5 2892.85 77.9 L2903.8 78.0 2904.35 77.8 2905.65 77.8 2907.25 77.8 Q2909.05 77.45 2911.05 77.8 L2917.5 77.7 2918.25 77.65 2918.35 77.6 2926.5 77.6 2927.3 77.25 2928.15 76.85 2952.65 65.1 Q2977.1 53.0 2986.55 48.45 2987.9 46.7 2993.4 44.05 2982.9 56.25 2971.4 61.85 L2971.45 63.85 Q2972.0 72.55 2967.4 68.85 2966.4 69.85 2965.2 70.25 2958.75 72.35 2959.4 77.85 L2957.2 79.4 Q2954.9 80.35 2953.3 78.9 2953.35 80.9 2947.4 85.85 L2945.4 86.85 2944.4 93.9 2941.2 95.0 2941.4 95.5 Q2942.15 97.75 2941.4 100.85 2939.75 102.5 2938.4 102.85 L2939.4 102.85 2950.4 104.85 Q2951.15 109.35 2954.4 111.85 L2959.4 109.85 Q2967.65 115.0 2970.4 113.85 2974.2 118.15 2984.4 112.85 2987.85 114.95 2993.45 111.85 2995.9 110.15 2991.45 109.85 L2990.45 109.85 3000.45 107.85 Q2999.7 104.85 3002.5 104.05 L3004.45 103.85 3004.45 95.85 3009.45 92.85 Q3008.35 84.95 3017.45 86.85 L3018.45 86.85 Q3015.35 87.2 3013.0 89.45 3011.95 90.35 3011.45 91.85 3013.6 95.1 3018.45 94.35 L3018.45 94.85 3017.45 100.85 3023.45 101.85 3026.45 104.85 Q3029.9 104.15 3032.6 105.6 L3035.45 106.85 3040.45 111.85 3046.45 112.85 Q3048.3 115.5 3051.45 114.85 L3052.45 114.85 Q3052.8 119.2 3057.55 119.85 3060.85 120.0 3060.45 122.85 L3072.45 122.85 3074.45 128.85 Q3078.4 125.4 3085.45 126.85 L3086.45 126.85 3086.45 116.85 Q3091.85 119.5 3096.45 113.85 L3096.45 105.85 3106.45 105.85 Q3110.5 102.9 3123.45 101.85 L3130.45 103.85 Q3134.2 101.95 3131.7 98.7 L3131.45 97.85 3137.45 98.85 Q3141.85 98.85 3143.45 94.85 L3143.45 90.85 3154.45 89.85 Q3159.95 86.85 3168.45 84.85 3166.55 80.2 3171.6 81.1 L3173.45 80.85 Q3176.7 79.1 3175.95 75.95 L3175.45 75.85 Q3167.15 76.5 3176.45 74.85 L3177.45 74.85 Q3164.25 67.4 3152.45 56.85 L3150.45 53.85 Q3160.3 55.1 3158.45 49.85 3151.4 50.15 3157.95 46.35 L3157.45 45.85 Q3155.2 46.25 3154.65 43.8 L3154.45 41.85 Q3150.9 42.45 3149.45 38.85 L3141.45 35.85 3160.45 39.85 3165.45 43.85 Q3168.4 47.95 3166.45 51.85 3168.25 55.0 3174.45 54.85 L3177.45 55.85 3180.45 60.85 3198.5 62.85 Q3197.6 67.3 3202.55 66.05 L3204.5 65.85 3206.5 68.85 Q3213.15 70.15 3215.5 72.85 3217.4 78.9 3226.6 74.05 L3227.5 73.85 3224.5 63.85 3235.5 63.85 Q3237.6 66.45 3241.1 69.1 3241.95 69.75 3243.5 69.85 3246.1 71.8 3242.5 74.85 L3250.5 74.85 Q3252.95 77.45 3252.25 80.8 3251.75 83.35 3253.5 84.85 3256.7 85.0 3257.15 88.9 L3257.5 92.85 Q3271.85 90.1 3285.5 94.85 3297.75 87.9 3302.5 86.85 3304.7 87.2 3308.75 83.1 3309.0 82.85 3309.5 82.85 3312.4 87.8 3319.6 86.25 L3322.5 85.85 Q3323.2 83.2 3325.4 84.95 L3327.5 86.85 3333.5 87.85 Q3330.2 92.8 3335.45 93.5 L3338.5 93.85 3335.5 99.85 3346.5 99.85 Q3345.9 106.4 3354.5 103.85 L3360.5 99.85 Q3357.45 103.95 3367.5 103.85 L3363.5 111.85 3371.5 109.85 3381.5 112.85 3387.5 110.85 3391.5 112.85 Q3400.15 114.5 3404.55 107.85 L3413.55 108.85 Q3417.35 105.35 3416.55 99.85 3419.15 103.7 3425.55 97.85 3427.9 95.95 3430.55 98.85 L3447.55 96.85 Q3444.3 96.05 3453.55 95.85 3454.55 95.85 3455.55 94.85 3454.2 93.5 3453.1 92.9 3456.25 93.05 3458.3 90.65 L3458.55 89.85 Q3455.85 88.3 3451.7 86.5 3451.55 86.35 3451.55 85.85 3453.7 81.95 3449.6 81.45 L3448.55 80.85 Q3448.85 75.45 3442.5 75.95 3441.55 75.85 3440.55 74.85 3443.9 74.8 3443.2 71.95 L3442.55 70.85 3433.55 65.85 Q3430.2 66.4 3435.55 64.85 3428.25 61.65 3419.55 62.85 3410.85 55.25 3397.55 52.85 3412.25 52.75 3426.55 56.85 3438.1 61.3 3451.55 63.85 L3441.05 56.0 3441.15 54.95 Q3441.05 54.35 3440.55 53.85 3425.85 50.15 3419.55 37.85 3415.55 34.95 3415.55 38.85 3405.4 27.5 3390.5 21.85 L3389.1 19.95 M3452.55 92.85 L3451.55 92.35 Q3452.25 92.45 3453.1 92.9 L3452.55 92.85 M2986.1 49.5 L2986.15 49.35 2985.85 49.7 2986.1 49.6 2986.1 49.5 M2869.45 82.65 Q2871.45 85.25 2868.4 83.85 2866.8 82.0 2869.45 82.65 M2268.15 93.6 Q2268.85 93.7 2269.7 94.15 L2269.15 94.1 2268.15 93.6 M1802.45 50.95 L1802.7 50.85 1802.7 50.75 1802.75 50.6 1802.45 50.95 M1685.0 85.1 Q1683.4 83.25 1686.05 83.9 1688.05 86.5 1685.0 85.1 M1107.95 92.9 L1107.4 92.85 1106.4 92.35 Q1107.1 92.45 1107.95 92.9 M640.95 49.5 L641.0 49.35 640.7 49.7 640.95 49.6 640.95 49.5 M524.3 82.65 Q526.3 85.25 523.25 83.85 521.65 82.0 524.3 82.65" fill="#2f2a2f" fill-rule="evenodd" stroke="none"/>
      <path d="M3389.1 19.95 L3390.5 21.85 Q3405.4 27.5 3415.55 38.85 3415.55 34.95 3419.55 37.85 3425.85 50.15 3440.55 53.85 3441.05 54.35 3441.15 54.95 L3441.05 56.0 3451.55 63.85 Q3438.1 61.3 3426.55 56.85 3412.25 52.75 3397.55 52.85 3410.85 55.25 3419.55 62.85 3428.25 61.65 3435.55 64.85 3430.2 66.4 3433.55 65.85 L3442.55 70.85 3443.2 71.95 Q3443.9 74.8 3440.55 74.85 3441.55 75.85 3442.5 75.95 3448.85 75.45 3448.55 80.85 L3449.6 81.45 Q3453.7 81.95 3451.55 85.85 3451.55 86.35 3451.7 86.5 3455.85 88.3 3458.55 89.85 L3458.3 90.65 Q3456.25 93.05 3453.1 92.9 3454.2 93.5 3455.55 94.85 3454.55 95.85 3453.55 95.85 3444.3 96.05 3447.55 96.85 L3430.55 98.85 Q3427.9 95.95 3425.55 97.85 3419.15 103.7 3416.55 99.85 3417.35 105.35 3413.55 108.85 L3404.55 107.85 Q3400.15 114.5 3391.5 112.85 L3387.5 110.85 3381.5 112.85 3371.5 109.85 3363.5 111.85 3367.5 103.85 Q3357.45 103.95 3360.5 99.85 L3354.5 103.85 Q3345.9 106.4 3346.5 99.85 L3335.5 99.85 3338.5 93.85 3335.45 93.5 Q3330.2 92.8 3333.5 87.85 L3327.5 86.85 3325.4 84.95 Q3323.2 83.2 3322.5 85.85 L3319.6 86.25 Q3312.4 87.8 3309.5 82.85 3309.0 82.85 3308.75 83.1 3304.7 87.2 3302.5 86.85 3297.75 87.9 3285.5 94.85 3271.85 90.1 3257.5 92.85 L3257.15 88.9 Q3256.7 85.0 3253.5 84.85 3251.75 83.35 3252.25 80.8 3252.95 77.45 3250.5 74.85 L3242.5 74.85 Q3246.1 71.8 3243.5 69.85 3241.95 69.75 3241.1 69.1 3237.6 66.45 3235.5 63.85 L3224.5 63.85 3227.5 73.85 3226.6 74.05 Q3217.4 78.9 3215.5 72.85 3213.15 70.15 3206.5 68.85 L3204.5 65.85 3202.55 66.05 Q3197.6 67.3 3198.5 62.85 L3180.45 60.85 3177.45 55.85 3174.45 54.85 Q3168.25 55.0 3166.45 51.85 3168.4 47.95 3165.45 43.85 L3160.45 39.85 3141.45 35.85 3149.45 38.85 Q3150.9 42.45 3154.45 41.85 L3154.65 43.8 Q3155.2 46.25 3157.45 45.85 L3157.95 46.35 Q3151.4 50.15 3158.45 49.85 3160.3 55.1 3150.45 53.85 L3152.45 56.85 Q3164.25 67.4 3177.45 74.85 L3176.45 74.85 Q3167.15 76.5 3175.45 75.85 L3175.95 75.95 Q3176.7 79.1 3173.45 80.85 L3171.6 81.1 Q3166.55 80.2 3168.45 84.85 3159.95 86.85 3154.45 89.85 L3143.45 90.85 3143.45 94.85 Q3141.85 98.85 3137.45 98.85 L3131.45 97.85 3131.7 98.7 Q3134.2 101.95 3130.45 103.85 L3123.45 101.85 Q3110.5 102.9 3106.45 105.85 L3096.45 105.85 3096.45 113.85 Q3091.85 119.5 3086.45 116.85 L3086.45 126.85 3085.45 126.85 Q3078.4 125.4 3074.45 128.85 L3072.45 122.85 3060.45 122.85 Q3060.85 120.0 3057.55 119.85 3052.8 119.2 3052.45 114.85 L3051.45 114.85 Q3048.3 115.5 3046.45 112.85 L3040.45 111.85 3035.45 106.85 3032.6 105.6 Q3029.9 104.15 3026.45 104.85 L3023.45 101.85 3017.45 100.85 3018.45 94.85 3018.45 94.35 Q3013.6 95.1 3011.45 91.85 3011.95 90.35 3013.0 89.45 3015.35 87.2 3018.45 86.85 L3017.45 86.85 Q3008.35 84.95 3009.45 92.85 L3004.45 95.85 3004.45 103.85 3002.5 104.05 Q2999.7 104.85 3000.45 107.85 L2990.45 109.85 2991.45 109.85 Q2995.9 110.15 2993.45 111.85 2987.85 114.95 2984.4 112.85 2974.2 118.15 2970.4 113.85 2967.65 115.0 2959.4 109.85 L2954.4 111.85 Q2951.15 109.35 2950.4 104.85 L2939.4 102.85 2938.4 102.85 Q2939.75 102.5 2941.4 100.85 2942.15 97.75 2941.4 95.5 L2941.2 95.0 2944.4 93.9 2945.4 86.85 2947.4 85.85 Q2953.35 80.9 2953.3 78.9 2954.9 80.35 2957.2 79.4 L2959.4 77.85 Q2958.75 72.35 2965.2 70.25 2966.4 69.85 2967.4 68.85 2972.0 72.55 2971.45 63.85 L2971.4 61.85 Q2982.9 56.25 2993.4 44.05 3001.95 39.95 3020.6 33.75 L3024.7 32.45 Q3027.05 29.2 3035.95 25.85 3041.5 23.75 3047.2 22.9 3061.4 18.55 3076.0 16.5 L3077.85 16.05 3090.65 13.6 Q3097.5 10.85 3108.15 8.85 L3121.2 6.75 3125.35 5.55 Q3137.55 2.65 3156.0 2.15 L3174.35 0.0 3176.2 0.25 Q3177.9 0.55 3178.45 0.9 L3180.85 0.55 3236.1 0.55 Q3313.5 6.0 3363.8 14.9 3377.85 17.35 3389.1 19.95 M2892.85 77.9 Q2890.8 79.5 2888.4 79.85 2882.4 76.85 2879.4 80.85 L2867.6 80.85 Q2867.9 80.85 2868.1 81.1 L2869.45 82.65 Q2880.5 85.25 2877.4 89.85 2883.35 89.0 2884.4 93.85 L2877.4 94.85 2871.4 91.85 2865.4 94.85 2852.4 92.85 2852.15 93.65 Q2850.6 95.4 2846.9 95.05 2851.05 95.9 2848.4 99.85 L2853.4 103.85 Q2853.9 104.85 2853.6 105.4 2852.25 107.75 2852.4 110.85 L2842.1 111.7 Q2846.4 111.75 2845.4 116.85 2839.25 117.45 2834.4 113.85 L2831.4 118.85 Q2826.35 119.5 2823.4 115.85 L2824.4 124.85 2816.4 124.85 2815.4 130.85 Q2807.65 133.1 2804.4 127.85 2799.8 131.3 2794.4 131.85 2793.15 128.2 2791.4 127.85 L2783.4 128.85 Q2779.9 125.65 2780.4 128.85 2780.0 135.1 2773.35 134.85 L2772.65 133.9 Q2767.75 135.25 2762.35 135.85 L2756.35 131.85 2748.35 130.85 2748.35 119.85 Q2745.1 117.75 2745.2 117.1 2742.85 119.85 2738.35 116.85 L2734.35 112.85 Q2729.5 116.35 2727.35 114.85 2725.05 111.95 2718.35 111.95 L2706.35 110.85 2704.35 105.85 Q2700.2 109.2 2696.35 102.85 L2691.35 102.85 2691.35 96.85 2682.35 95.85 Q2679.85 93.65 2679.35 98.85 L2675.35 93.85 Q2671.05 94.75 2666.35 97.85 2663.7 94.7 2663.35 96.85 L2661.1 100.7 Q2657.4 106.0 2655.35 111.85 2649.8 114.6 2643.35 113.85 L2640.35 117.85 2631.35 117.85 Q2627.9 122.95 2622.35 122.85 2627.05 115.85 2623.35 116.85 L2607.35 115.85 2605.35 121.85 Q2605.75 113.2 2601.35 115.85 L2592.35 115.85 Q2602.4 102.8 2593.35 102.85 2592.35 107.0 2588.35 106.85 2587.2 104.05 2581.35 105.85 2580.95 103.25 2582.35 98.85 2577.05 99.45 2581.35 94.85 L2580.45 95.05 Q2575.45 97.85 2571.3 96.85 L2563.3 101.85 Q2563.3 101.35 2563.1 101.25 L2561.3 100.85 2556.3 100.85 Q2551.95 98.6 2553.3 96.85 L2535.3 98.85 Q2535.3 98.35 2535.45 98.3 2540.75 96.4 2541.3 92.85 L2550.3 90.85 2551.4 90.05 Q2554.35 88.65 2554.3 85.85 L2552.8 85.85 Q2555.0 83.65 2555.25 81.55 2569.05 76.9 2580.65 73.55 2621.05 61.75 2677.85 53.0 L2707.85 53.0 Q2734.75 55.75 2752.75 59.55 2757.65 60.6 2778.75 66.15 L2789.7 68.8 2792.75 69.45 2809.65 72.3 Q2832.05 75.4 2869.1 77.4 2869.4 77.65 2887.9 77.8 L2892.85 77.9 M2205.7 21.2 L2207.1 23.1 Q2222.0 28.75 2232.15 40.1 2232.15 36.2 2236.15 39.1 2242.45 51.4 2257.15 55.1 2257.65 55.6 2257.75 56.2 L2257.65 57.25 2268.15 65.1 Q2254.7 62.55 2243.15 58.1 2228.85 54.0 2214.15 54.1 2227.45 56.5 2236.15 64.1 2244.85 62.9 2252.15 66.1 2246.8 67.65 2250.15 67.1 L2259.15 72.1 Q2259.65 72.6 2259.8 73.2 2260.5 76.05 2257.15 76.1 2258.15 77.1 2259.1 77.2 2265.45 76.7 2265.15 82.1 L2266.2 82.7 Q2270.3 83.2 2268.15 87.1 2268.15 87.6 2268.3 87.75 2272.45 89.55 2275.15 91.1 L2274.9 91.9 Q2272.85 94.3 2269.7 94.15 2270.8 94.75 2272.15 96.1 2271.15 97.1 2270.15 97.1 2260.9 97.3 2264.15 98.1 L2247.15 100.1 Q2244.5 97.2 2242.15 99.1 2235.75 104.95 2233.15 101.1 2233.95 106.6 2230.15 110.1 L2221.15 109.1 Q2216.75 115.75 2208.1 114.1 L2204.1 112.1 2198.1 114.1 2188.1 111.1 2180.1 113.1 2184.1 105.1 Q2174.05 105.2 2177.1 101.1 L2171.1 105.1 Q2162.5 107.65 2163.1 101.1 L2152.1 101.1 2155.1 95.1 2152.05 94.75 Q2146.8 94.05 2150.1 89.1 L2144.1 88.1 2142.0 86.2 Q2139.8 84.45 2139.1 87.1 L2136.2 87.5 Q2129.0 89.05 2126.1 84.1 2125.6 84.1 2125.35 84.35 2121.3 88.45 2119.1 88.1 2114.35 89.15 2102.1 96.1 2088.45 91.35 2074.1 94.1 L2073.75 90.15 Q2073.3 86.25 2070.1 86.1 2068.35 84.6 2068.85 82.05 2069.55 78.7 2067.1 76.1 L2059.1 76.1 Q2062.7 73.05 2060.1 71.1 2058.55 71.0 2057.7 70.35 2054.2 67.7 2052.1 65.1 L2041.1 65.1 2044.1 75.1 2043.2 75.3 Q2034.0 80.15 2032.1 74.1 2029.75 71.4 2023.1 70.1 L2021.1 67.1 2019.15 67.3 Q2014.2 68.55 2015.1 64.1 L1997.05 62.1 1994.05 57.1 1991.05 56.1 Q1984.85 56.25 1983.05 53.1 1985.0 49.2 1982.05 45.1 L1977.05 41.1 1958.05 37.1 1966.05 40.1 Q1967.5 43.7 1971.05 43.1 L1971.25 45.05 Q1971.8 47.5 1974.05 47.1 L1974.55 47.6 Q1968.0 51.4 1975.05 51.1 1976.9 56.35 1967.05 55.1 L1969.05 58.1 Q1980.85 68.65 1994.05 76.1 L1993.05 76.1 Q1983.75 77.75 1992.05 77.1 L1992.55 77.2 Q1993.3 80.35 1990.05 82.1 1989.05 82.6 1988.2 82.35 1983.15 81.45 1985.05 86.1 1976.55 88.1 1971.05 91.1 L1960.05 92.1 1960.05 96.1 Q1958.45 100.1 1954.05 100.1 L1948.05 99.1 1948.3 99.95 Q1950.8 103.2 1947.05 105.1 L1940.05 103.1 Q1927.1 104.15 1923.05 107.1 L1913.05 107.1 1913.05 115.1 Q1908.45 120.75 1903.05 118.1 L1903.05 128.1 1902.05 128.1 Q1895.0 126.65 1891.05 130.1 L1889.05 124.1 1877.05 124.1 Q1877.45 121.25 1874.15 121.1 1869.4 120.45 1869.05 116.1 L1868.05 116.1 Q1864.9 116.75 1863.05 114.1 L1857.05 113.1 1852.05 108.1 1849.2 106.85 Q1846.5 105.4 1843.05 106.1 L1840.05 103.1 1834.05 102.1 1835.05 96.1 1835.05 95.6 Q1830.2 96.35 1828.05 93.1 1828.55 91.6 1829.6 90.7 1831.95 88.45 1835.05 88.1 L1834.05 88.1 Q1824.95 86.2 1826.05 94.1 L1821.05 97.1 1821.05 105.1 1819.1 105.3 Q1816.3 106.1 1817.05 109.1 L1807.05 111.1 1808.05 111.1 Q1812.5 111.4 1810.05 113.1 1804.45 116.2 1801.0 114.1 1790.8 119.4 1787.0 115.1 1784.25 116.25 1776.0 111.1 L1771.0 113.1 Q1767.75 110.6 1767.0 106.1 L1756.0 104.1 1755.0 104.1 Q1756.35 103.75 1758.0 102.1 1758.75 99.0 1758.0 96.75 L1757.8 96.25 1761.0 95.15 1762.0 88.1 1764.0 87.1 Q1769.95 82.15 1769.9 80.15 1771.5 81.6 1773.8 80.65 1775.0 80.1 1776.0 79.1 1775.35 73.6 1781.8 71.5 1783.0 71.1 1784.0 70.1 1788.6 73.8 1788.05 65.1 L1788.0 63.1 Q1799.5 57.5 1810.0 45.3 1818.55 41.2 1837.2 35.0 L1841.3 33.7 Q1843.65 30.45 1852.55 27.1 1858.1 25.0 1863.8 24.15 1878.0 19.8 1892.6 17.75 L1894.45 17.3 Q1902.35 15.55 1907.25 14.85 1914.1 12.1 1924.75 10.1 L1937.8 8.0 1941.95 6.8 Q1954.15 3.9 1972.6 3.4 L1990.95 1.25 1992.8 1.5 Q1994.5 1.8 1995.05 2.15 L1997.45 1.8 2052.7 1.8 Q2130.1 7.25 2180.4 16.15 2194.45 18.6 2205.7 21.2 M1709.45 79.15 Q1707.4 80.75 1705.0 81.1 1699.0 78.1 1696.0 82.1 L1684.15 82.1 Q1684.5 82.1 1684.7 82.35 L1686.05 83.9 Q1697.1 86.5 1694.0 91.1 1699.95 90.25 1701.0 95.1 L1694.0 96.1 1688.0 93.1 1682.0 96.1 1669.0 94.1 1668.75 94.9 Q1667.2 96.65 1663.5 96.3 1667.65 97.15 1665.0 101.1 L1670.0 105.1 Q1670.5 106.1 1670.2 106.65 1668.85 109.0 1669.0 112.1 L1658.7 112.95 Q1663.0 113.0 1662.0 118.1 1655.85 118.7 1651.0 115.1 L1648.0 120.1 Q1642.95 120.75 1640.0 117.1 L1641.0 126.1 1633.0 126.1 1632.0 132.1 Q1624.25 134.35 1621.0 129.1 1616.4 132.55 1611.0 133.1 1609.75 129.45 1608.0 129.1 L1600.0 130.1 Q1596.5 126.9 1597.0 130.1 1596.6 136.35 1589.95 136.1 L1589.25 135.15 Q1584.35 136.5 1578.95 137.1 L1572.95 133.1 1564.95 132.1 1564.95 121.1 Q1561.7 119.0 1561.8 118.35 1559.45 121.1 1554.95 118.1 L1550.95 114.1 Q1546.1 117.6 1543.95 116.1 1541.65 113.2 1534.95 113.2 L1522.95 112.1 1520.95 107.1 Q1516.8 110.45 1512.95 104.1 L1507.95 104.1 1507.95 98.1 1498.95 97.1 Q1496.45 94.9 1495.95 100.1 L1491.95 95.1 Q1487.65 96.0 1482.95 99.1 1480.3 95.95 1479.95 98.1 L1477.7 101.95 Q1474.0 107.25 1471.95 113.1 1466.4 115.85 1459.95 115.1 L1456.95 119.1 1447.95 119.1 Q1444.5 124.2 1438.95 124.1 1443.65 117.1 1439.95 118.1 L1423.95 117.1 1421.95 123.1 Q1422.35 114.45 1417.95 117.1 L1408.95 117.1 Q1419.0 104.05 1409.95 104.1 1408.95 108.25 1404.95 108.1 1403.8 105.3 1397.95 107.1 1397.55 104.5 1398.95 100.1 1393.65 100.7 1397.95 96.1 L1397.05 96.3 Q1392.05 99.1 1387.9 98.1 L1379.9 103.1 1379.7 102.5 1377.9 102.1 1372.9 102.1 Q1368.55 99.85 1369.9 98.1 L1351.9 100.1 Q1351.9 99.6 1352.05 99.55 1357.35 97.65 1357.9 94.1 L1366.9 92.1 1368.0 91.3 Q1370.95 89.9 1370.9 87.1 L1369.4 87.1 Q1371.6 84.9 1371.85 82.8 1385.65 78.15 1397.25 74.8 1437.65 63.0 1494.45 54.25 L1524.45 54.25 Q1551.35 57.0 1569.35 60.8 1574.25 61.85 1595.35 67.4 L1606.3 70.05 1609.35 70.7 1626.25 73.55 Q1648.65 76.65 1685.7 78.65 1686.0 78.9 1704.5 79.05 L1709.45 79.15 M1043.95 19.95 L1045.35 21.85 Q1060.25 27.5 1070.4 38.85 1070.4 34.95 1074.4 37.85 1080.7 50.15 1095.4 53.85 1095.9 54.35 1096.0 54.95 L1095.9 56.0 1106.4 63.85 Q1092.95 61.3 1081.4 56.85 1067.1 52.75 1052.4 52.85 1065.7 55.25 1074.4 62.85 1083.1 61.65 1090.4 64.85 1085.05 66.4 1088.4 65.85 L1097.4 70.85 1098.05 71.95 Q1098.75 74.8 1095.4 74.85 1096.4 75.85 1097.35 75.95 1103.7 75.45 1103.4 80.85 L1104.45 81.45 Q1108.55 81.95 1106.4 85.85 1106.4 86.35 1106.55 86.5 1110.7 88.3 1113.4 89.85 L1113.15 90.65 Q1111.1 93.05 1107.95 92.9 1109.05 93.5 1110.4 94.85 1109.4 95.85 1108.4 95.85 1099.15 96.05 1102.4 96.85 L1085.4 98.85 Q1082.75 95.95 1080.4 97.85 1074.0 103.7 1071.4 99.85 1072.2 105.35 1068.4 108.85 L1059.4 107.85 Q1055.0 114.5 1046.35 112.85 L1042.35 110.85 1036.35 112.85 1026.35 109.85 1018.35 111.85 1022.35 103.85 Q1012.3 103.95 1015.35 99.85 L1009.35 103.85 Q1000.75 106.4 1001.35 99.85 L990.35 99.85 993.35 93.85 990.3 93.5 Q985.05 92.8 988.35 87.85 L982.35 86.85 980.25 84.95 Q978.05 83.2 977.35 85.85 L974.45 86.25 Q967.25 87.8 964.35 82.85 963.85 82.85 963.6 83.1 959.55 87.2 957.35 86.85 952.6 87.9 940.35 94.85 926.7 90.1 912.35 92.85 L912.0 88.9 Q911.55 85.0 908.35 84.85 906.6 83.35 907.1 80.8 907.8 77.45 905.35 74.85 L897.35 74.85 Q900.95 71.8 898.35 69.85 896.8 69.75 895.95 69.1 892.45 66.45 890.35 63.85 L879.35 63.85 882.35 73.85 881.45 74.05 Q872.25 78.9 870.35 72.85 868.0 70.15 861.35 68.85 L859.35 65.85 857.4 66.05 Q852.45 67.3 853.35 62.85 L835.3 60.85 832.3 55.85 829.3 54.85 Q823.1 55.0 821.3 51.85 823.25 47.95 820.3 43.85 L815.3 39.85 796.3 35.85 804.3 38.85 Q805.75 42.45 809.3 41.85 L809.5 43.8 Q810.05 46.25 812.3 45.85 L812.8 46.35 Q806.25 50.15 813.3 49.85 815.15 55.1 805.3 53.85 L807.3 56.85 Q819.1 67.4 832.3 74.85 L831.3 74.85 Q822.0 76.5 830.3 75.85 L830.8 75.95 Q831.55 79.1 828.3 80.85 L826.45 81.1 Q821.4 80.2 823.3 84.85 814.8 86.85 809.3 89.85 L798.3 90.85 798.3 94.85 Q796.7 98.85 792.3 98.85 L786.3 97.85 Q786.3 98.35 786.55 98.7 789.05 101.95 785.3 103.85 L778.3 101.85 Q765.35 102.9 761.3 105.85 L751.3 105.85 751.3 113.85 Q746.7 119.5 741.3 116.85 L741.3 126.85 740.3 126.85 Q733.25 125.4 729.3 128.85 L727.3 122.85 715.3 122.85 Q715.7 120.0 712.4 119.85 707.65 119.2 707.3 114.85 L706.3 114.85 Q703.15 115.5 701.3 112.85 L695.3 111.85 690.3 106.85 687.45 105.6 Q684.75 104.15 681.3 104.85 L678.3 101.85 672.3 100.85 673.3 94.85 673.3 94.35 Q668.45 95.1 666.3 91.85 666.8 90.35 667.85 89.45 670.2 87.2 673.3 86.85 L672.3 86.85 Q663.2 84.95 664.3 92.85 L659.3 95.85 659.3 103.85 657.35 104.05 Q654.55 104.85 655.3 107.85 L645.3 109.85 646.3 109.85 Q650.75 110.15 648.3 111.85 642.7 114.95 639.25 112.85 629.05 118.15 625.25 113.85 622.5 115.0 614.25 109.85 L609.25 111.85 Q606.0 109.35 605.25 104.85 L594.25 102.85 593.25 102.85 Q594.6 102.5 596.25 100.85 597.0 97.75 596.25 95.5 L596.05 95.0 599.25 93.9 600.25 86.85 602.25 85.85 Q608.2 80.9 608.15 78.9 609.75 80.35 612.05 79.4 L614.25 77.85 Q613.6 72.35 620.05 70.25 621.25 69.85 622.25 68.85 626.85 72.55 626.3 63.85 L626.25 61.85 Q637.75 56.25 648.25 44.05 656.8 39.95 675.45 33.75 L679.55 32.45 Q681.9 29.2 690.8 25.85 696.35 23.75 702.05 22.9 716.25 18.55 730.85 16.5 L732.7 16.05 Q740.6 14.3 745.5 13.6 752.35 10.85 763.0 8.85 L776.05 6.75 780.2 5.55 Q792.4 2.65 810.85 2.15 L829.2 0.0 831.05 0.25 833.3 0.9 835.7 0.55 890.95 0.55 Q968.35 6.0 1018.65 14.9 1032.7 17.35 1043.95 19.95 M547.7 77.9 Q545.65 79.5 543.25 79.85 537.25 76.85 534.25 80.85 L522.45 80.85 522.95 81.1 524.3 82.65 Q535.35 85.25 532.25 89.85 538.2 89.0 539.25 93.85 L532.25 94.85 526.25 91.85 520.25 94.85 507.25 92.85 507.0 93.65 Q505.45 95.4 501.75 95.05 505.9 95.9 503.25 99.85 L508.25 103.85 Q508.75 104.85 508.45 105.4 507.1 107.75 507.25 110.85 L496.95 111.7 Q501.25 111.75 500.25 116.85 494.1 117.45 489.25 113.85 L486.25 118.85 Q481.2 119.5 478.25 115.85 L479.25 124.85 471.25 124.85 470.25 130.85 Q462.5 133.1 459.25 127.85 454.65 131.3 449.25 131.85 448.0 128.2 446.25 127.85 L438.25 128.85 Q434.75 125.65 435.25 128.85 434.85 135.1 428.2 134.85 L427.5 133.9 Q422.6 135.25 417.2 135.85 L411.2 131.85 403.2 130.85 403.2 119.85 Q399.95 117.75 400.05 117.1 397.7 119.85 393.2 116.85 L389.2 112.85 Q384.35 116.35 382.2 114.85 379.9 111.95 373.2 111.95 L361.2 110.85 359.2 105.85 Q355.05 109.2 351.2 102.85 L346.2 102.85 346.2 96.85 337.2 95.85 Q334.7 93.65 334.2 98.85 L330.2 93.85 Q325.9 94.75 321.2 97.85 318.55 94.7 318.2 96.85 L315.95 100.7 Q312.25 106.0 310.2 111.85 304.65 114.6 298.2 113.85 L295.2 117.85 286.2 117.85 Q282.75 122.95 277.2 122.85 281.9 115.85 278.2 116.85 L262.2 115.85 260.2 121.85 Q260.6 113.2 256.2 115.85 L247.2 115.85 Q257.25 102.8 248.2 102.85 247.2 107.0 243.2 106.85 242.05 104.05 236.2 105.85 235.8 103.25 237.2 98.85 231.9 99.45 236.2 94.85 L235.3 95.05 Q230.3 97.85 226.15 96.85 L218.15 101.85 217.95 101.25 216.15 100.85 211.15 100.85 Q206.8 98.6 208.15 96.85 L190.15 98.85 Q190.15 98.35 190.3 98.3 195.6 96.4 196.15 92.85 L205.15 90.85 Q205.65 90.35 206.25 90.05 209.2 88.65 209.15 85.85 L207.65 85.85 Q209.85 83.65 210.1 81.55 223.9 76.9 235.5 73.55 275.9 61.75 332.7 53.0 L362.7 53.0 Q389.6 55.75 407.6 59.55 412.5 60.6 433.6 66.15 L444.55 68.8 447.6 69.45 464.5 72.3 Q486.9 75.4 523.95 77.4 524.25 77.65 542.75 77.8 L547.7 77.9 M3452.55 92.85 L3453.1 92.9 Q3452.25 92.45 3451.55 92.35 L3452.55 92.85 M2869.45 82.65 Q2866.8 82.0 2868.4 83.85 2871.45 85.25 2869.45 82.65 M2268.15 93.6 L2269.15 94.1 2269.7 94.15 Q2268.85 93.7 2268.15 93.6 M1685.0 85.1 Q1688.05 86.5 1686.05 83.9 1683.4 83.25 1685.0 85.1 M1107.95 92.9 Q1107.1 92.45 1106.4 92.35 L1107.4 92.85 1107.95 92.9 M524.3 82.65 Q521.65 82.0 523.25 83.85 526.3 85.25 524.3 82.65" fill="#3d373d" fill-rule="evenodd" stroke="none"/>
    </g>
  </defs>
</svg>
