<?xml version="1.0" encoding="UTF-8" standalone="no"?>
<svg xmlns:ffdec="https://www.free-decompiler.com/flash" xmlns:xlink="http://www.w3.org/1999/xlink" ffdec:objectType="frame" height="3.45px" width="6.15px" xmlns="http://www.w3.org/2000/svg">
  <g transform="matrix(1.0, 0.0, 0.0, 1.0, 22.05, 69.5)">
    <use ffdec:characterId="296" ffdec:characterName="a_EB_SandGlitter2" height="3.45" transform="matrix(1.0, 0.0, 0.0, 1.0, -22.05, -69.5)" width="6.15" xlink:href="#sprite0"/>
  </g>
  <defs>
    <g id="sprite0" transform="matrix(1.0, 0.0, 0.0, 1.0, 0.0, 0.0)">
      <use ffdec:characterId="295" height="3.45" transform="matrix(1.0, 0.0, 0.0, 1.0, 0.0, 0.0)" width="6.15" xlink:href="#shape0"/>
    </g>
    <g id="shape0" transform="matrix(1.0, 0.0, 0.0, 1.0, 0.0, 0.0)">
      <path d="M3.9 3.2 L1.7 3.45 Q0.4 3.45 0.1 2.8 -0.05 2.5 0.1 2.05 0.1 0.7 2.85 0.1 5.6 -0.5 6.15 2.0 L5.95 2.8 3.9 3.2" fill="#ffff99" fill-rule="evenodd" stroke="none"/>
    </g>
  </defs>
</svg>
