<?xml version="1.0" encoding="UTF-8" standalone="no"?>
<svg xmlns:ffdec="https://www.free-decompiler.com/flash" xmlns:xlink="http://www.w3.org/1999/xlink" ffdec:objectType="frame" height="99.15px" width="22.4px" xmlns="http://www.w3.org/2000/svg">
  <g transform="matrix(1.0, 0.0, 0.0, 1.0, 0.0, 0.0)">
    <use ffdec:characterId="1335" height="99.15" transform="matrix(1.0, 0.0, 0.0, 1.0, 0.0, 0.0)" width="22.4" xlink:href="#shape0"/>
  </g>
  <defs>
    <g id="shape0" transform="matrix(1.0, 0.0, 0.0, 1.0, 0.0, 0.0)">
      <path d="M17.0 16.85 L16.9 17.65 16.85 17.45 17.0 16.85 M5.2 51.85 L5.15 51.7 Q5.0 51.3 5.0 49.75 L5.1 48.85 5.2 51.85 M9.9 18.4 L10.05 18.9 10.15 19.0 11.25 19.0 12.3 17.1 Q14.3 16.1 15.5 16.0 L15.5 16.25 15.65 17.35 14.9 18.3 Q13.05 19.7 7.65 19.75 8.15 19.4 9.0 19.0 L9.9 18.4 M9.75 44.75 L10.15 37.3 10.5 30.5 11.0 27.9 Q11.0 25.1 10.65 23.0 L10.45 23.0 10.15 21.5 Q8.9 22.2 8.9 30.15 L8.8 33.7 8.55 35.25 Q7.0 46.1 6.9 48.45 L6.75 48.25 6.1 48.55 6.0 48.75 6.3 50.1 Q6.8 51.2 8.5 51.15 L8.8 51.05 9.0 52.05 6.65 52.15 Q6.2 52.4 5.9 52.65 L5.75 52.55 5.95 45.15 6.0 37.25 Q6.05 35.0 7.0 29.35 7.85 24.4 7.65 21.5 13.8 21.8 16.05 19.0 L16.4 20.5 16.2 21.3 16.25 22.75 16.25 23.2 15.5 25.2 Q14.5 27.35 14.5 30.5 14.5 32.9 15.5 38.6 16.4 43.7 16.5 46.35 L16.5 47.15 16.0 49.45 15.55 51.55 9.25 52.05 9.5 51.9 9.65 47.55 9.75 47.75 10.05 48.35 10.0 48.95 Q10.15 51.15 12.5 51.15 14.2 51.15 14.5 48.0 L14.5 44.1 Q14.5 38.1 14.15 33.4 L13.65 33.4 Q13.5 34.5 13.6 42.1 13.6 47.2 12.0 49.75 L11.8 49.45 11.0 49.25 10.75 44.75 9.75 44.75 M7.75 49.65 L7.95 49.05 7.9 49.9 7.75 49.65 M10.15 47.35 L9.7 46.1 9.7 45.9 10.0 45.9 10.15 47.35" fill="#cc6600" fill-rule="evenodd" stroke="none"/>
      <path d="M6.9 48.45 Q7.0 46.1 8.55 35.25 L8.8 33.7 8.9 30.15 Q8.9 22.2 10.15 21.5 L10.45 23.0 10.65 23.0 Q11.0 25.1 11.0 27.9 L10.5 30.5 10.15 37.3 9.75 44.75 8.0 44.75 7.95 49.05 7.75 49.65 6.9 48.45 M10.05 48.35 L9.75 47.75 9.65 47.55 9.5 51.9 9.25 52.05 9.0 52.05 8.8 51.05 9.0 50.75 9.0 45.9 9.7 45.9 9.7 46.1 10.15 47.35 10.05 48.35" fill="#d58b1e" fill-rule="evenodd" stroke="none"/>
      <path d="M17.0 75.7 L16.9 77.25 16.85 77.45 16.0 77.65 15.15 77.35 15.15 76.15 13.85 76.05 14.45 74.8 Q15.25 73.35 15.25 72.0 L15.25 70.65 15.9 70.05 16.4 69.5 16.8 69.45 16.9 70.4 16.9 73.0 Q16.9 73.6 16.35 74.4 15.6 75.45 14.5 75.65 14.75 76.0 15.5 76.25 16.4 76.25 17.0 75.7 M13.65 85.1 Q14.25 87.65 16.25 90.3 13.65 87.35 13.65 85.25 L13.65 85.1 M11.15 99.1 L11.0 99.15 6.5 99.15 6.4 99.1 6.5 99.1 11.15 99.1 M1.25 97.1 L0.8 96.95 0.55 96.55 0.7 96.5 1.0 97.0 1.25 97.1 M8.25 81.4 L7.5 79.1 8.3 79.7 8.25 81.4 M6.95 77.4 L6.25 75.2 Q6.55 75.45 6.95 75.55 L6.9 75.85 6.95 77.4 M4.2 57.65 L4.0 57.45 4.25 57.5 4.2 57.65 M2.9 55.5 L3.05 55.4 4.05 55.8 2.45 54.8 3.15 54.55 5.5 54.1 6.0 54.6 7.15 55.65 9.5 55.75 10.0 55.8 10.15 55.15 10.9 55.4 14.15 55.45 17.75 55.4 17.85 55.45 Q17.4 55.7 18.6 56.4 L18.9 56.6 15.15 56.9 6.9 56.5 6.8 57.05 4.55 56.65 2.9 55.5 M11.1 60.0 L10.5 59.95 10.5 60.15 10.55 60.35 11.0 60.65 11.5 60.5 11.55 60.1 11.75 60.15 12.05 62.3 8.8 62.4 8.85 59.2 11.1 60.0 M15.9 62.1 L16.15 61.3 16.2 62.2 15.95 62.1 15.9 62.1 M6.9 58.0 Q7.45 58.25 8.0 58.65 L7.9 62.2 7.1 61.65 Q6.5 61.25 6.1 61.15 L5.9 61.0 5.4 59.45 5.3 59.05 Q5.25 58.7 5.75 57.8 L6.9 58.0 M5.35 67.85 L5.95 63.45 7.8 63.9 7.5 68.7 7.5 68.85 6.5 68.15 6.3 68.35 5.8 68.05 5.35 67.85 M15.55 63.65 L15.75 63.65 16.25 63.1 16.65 67.8 16.4 67.8 16.1 68.2 Q15.75 68.25 15.25 68.6 L15.35 65.1 15.55 63.65 M12.2 69.35 L9.15 69.4 8.6 69.35 8.5 68.4 8.75 64.2 10.45 64.5 Q11.5 64.5 12.15 63.8 L12.2 63.8 12.25 67.25 12.2 69.35 M6.9 70.25 L6.75 70.35 6.5 70.75 7.55 71.45 7.65 72.7 8.15 74.5 Q6.4 72.5 5.7 69.9 L6.9 70.25 M8.6 75.2 L8.65 75.3 8.55 75.25 8.6 75.2 M10.45 75.65 L10.5 75.5 9.15 71.55 9.15 71.5 12.05 71.5 11.45 75.85 10.8 75.7 10.45 75.65 M12.1 70.95 L10.75 70.7 12.15 70.7 12.1 70.95 M11.0 78.6 L10.7 78.55 9.2 77.75 Q8.2 77.2 8.0 76.5 L9.8 76.95 11.25 77.35 11.0 78.6 M13.15 77.65 L13.25 77.65 13.75 77.4 13.9 77.6 13.9 78.5 Q13.9 79.3 13.7 79.35 L13.05 78.85 12.8 78.85 13.15 77.65 M10.75 80.65 L10.7 80.75 10.0 80.75 9.85 83.65 9.75 83.65 9.65 80.4 10.75 80.65 M11.85 83.95 Q11.95 82.5 12.35 80.65 L12.5 80.65 12.75 82.4 12.6 83.65 12.55 83.75 12.0 84.0 11.85 83.95 M9.45 85.8 Q8.8 88.2 7.55 89.95 L7.7 89.45 7.75 89.35 8.15 89.0 8.0 88.9 9.45 85.8 M5.85 93.15 L7.6 90.7 7.5 91.1 7.55 91.9 7.75 92.0 7.95 91.85 6.6 93.25 5.85 93.15 M7.7 93.3 L9.45 91.05 10.55 89.1 10.75 91.6 11.2 93.45 9.6 93.45 7.7 93.3 M14.5 93.4 Q11.9 86.8 11.75 85.6 L12.2 85.65 12.4 85.65 Q12.5 88.3 14.4 90.3 L17.1 93.3 14.5 93.4 M2.75 93.8 Q2.4 94.15 2.4 94.4 2.4 95.15 2.55 95.3 L2.65 95.5 3.5 95.5 3.55 95.8 2.4 95.5 2.15 94.3 2.3 94.2 2.75 93.8 M3.75 95.85 L3.75 95.75 Q5.4 95.25 6.85 94.1 L11.5 94.4 Q12.15 96.05 13.1 96.8 L13.0 96.8 3.75 95.85 M14.95 94.6 L17.5 94.75 18.25 94.7 19.75 96.65 18.65 96.85 15.75 96.85 15.75 96.6 14.95 94.6" fill="#999999" fill-rule="evenodd" stroke="none"/>
      <path d="M15.15 56.9 Q9.75 57.3 6.8 57.05 L6.9 56.5 15.15 56.9 M11.55 60.1 L11.1 60.0 8.85 59.2 8.55 59.05 8.0 58.65 Q7.45 58.25 6.9 58.0 L15.95 58.65 16.15 61.3 15.9 62.1 15.5 62.0 12.05 62.3 11.75 60.15 11.55 60.1 M12.2 63.65 L15.55 63.65 15.35 65.1 15.25 68.6 14.5 69.25 12.2 69.35 12.25 67.25 12.2 63.8 12.2 63.65 M12.05 71.5 L12.1 70.95 12.15 70.7 15.0 70.75 15.25 70.65 15.25 72.0 Q15.25 73.35 14.45 74.8 L13.85 76.05 13.0 76.0 11.45 75.85 12.05 71.5 M11.0 78.6 L11.25 77.35 13.15 77.65 12.8 78.85 11.0 78.6 M10.7 80.75 L10.75 80.65 11.15 80.65 12.35 80.65 Q11.95 82.5 11.85 83.95 L10.35 83.7 10.7 80.75 M10.55 89.1 L10.25 85.65 10.25 85.45 11.75 85.6 Q11.9 86.8 14.5 93.4 L11.2 93.45 10.75 91.6 10.55 89.1 M11.5 94.4 L14.95 94.6 15.75 96.6 15.75 96.85 13.1 96.8 Q12.15 96.05 11.5 94.4" fill="#887871" fill-rule="evenodd" stroke="none"/>
      <path d="M3.05 55.4 L2.3 54.85 2.45 54.8 4.05 55.8 3.05 55.4" fill="#ffffff" fill-rule="evenodd" stroke="none"/>
      <path d="M8.0 58.65 L8.55 59.05 8.85 59.2 8.8 62.4 8.15 62.4 7.9 62.2 8.0 58.65 M5.95 63.45 L5.75 63.4 5.6 62.85 Q6.25 63.5 6.75 63.5 L7.05 63.5 7.15 63.65 12.2 63.65 12.2 63.8 12.15 63.8 Q11.5 64.5 10.45 64.5 L8.75 64.2 8.5 68.4 8.6 69.35 7.6 68.9 7.5 68.85 7.5 68.7 7.8 63.9 5.95 63.45 M8.15 74.5 L7.65 72.7 7.55 71.45 6.5 70.75 6.75 70.35 6.9 70.25 7.0 70.25 7.4 70.25 8.15 70.65 10.75 70.7 12.1 70.95 12.05 71.5 9.15 71.5 9.15 71.55 10.5 75.5 10.45 75.65 8.65 75.3 8.6 75.2 8.65 75.0 8.15 74.5 M10.7 80.75 L10.35 83.7 9.85 83.65 10.0 80.75 10.7 80.75 M10.25 85.45 L10.25 85.65 10.55 89.1 9.45 91.05 7.7 93.3 6.6 93.25 7.95 91.85 7.75 92.0 7.55 91.9 7.5 91.1 7.6 90.7 5.85 93.15 5.4 93.1 7.0 90.65 7.55 89.95 Q8.8 88.2 9.45 85.8 L9.55 85.4 10.25 85.45 M3.7 92.95 L3.65 93.15 3.8 93.3 3.15 94.5 Q3.25 94.9 4.0 94.9 L4.8 93.95 6.85 94.1 Q5.4 95.25 3.75 95.75 L3.75 95.85 Q3.6 96.2 3.55 95.8 L3.5 95.5 2.65 95.5 2.55 95.3 Q2.4 95.15 2.4 94.4 2.4 94.15 2.75 93.8 3.1 93.4 3.7 92.95" fill="#cccccc" fill-rule="evenodd" stroke="none"/>
      <path d="M10.1 15.15 Q9.5 14.25 8.65 12.1 7.5 9.15 7.5 8.2 7.5 6.75 8.35 5.0 8.95 3.65 9.75 3.05 L10.0 0.0 11.15 0.0 11.0 0.95 11.4 1.95 11.65 1.9 11.75 2.45 11.7 2.5 12.15 3.7 Q13.0 5.7 13.0 6.4 L13.0 7.15 13.0 9.9 Q13.0 12.25 12.65 13.2 L12.35 14.0 12.15 13.5 12.4 12.65 12.75 10.75 12.65 10.55 12.65 7.85 12.65 7.5 12.15 7.05 11.65 6.0 Q9.15 6.55 9.5 8.65 L9.45 8.8 9.65 13.0 9.6 13.1 10.35 14.15 10.4 14.2 10.1 15.15 M8.5 9.3 L8.4 9.9 8.55 11.0 8.5 10.0 8.5 9.3 M9.95 16.35 L9.95 16.45 9.9 17.15 9.9 16.85 9.95 16.45 9.95 16.35" fill="#ffff00" fill-rule="evenodd" stroke="none"/>
      <path d="M10.4 14.2 L10.35 14.15 9.6 13.1 9.65 13.0 9.45 8.8 9.5 8.65 Q9.15 6.55 11.65 6.0 L12.15 7.05 12.65 7.5 12.65 7.85 12.65 10.55 11.7 9.95 Q10.65 9.4 10.0 9.4 L10.0 13.4 10.55 13.9 10.4 14.2 M12.4 12.65 L12.15 13.5 12.15 13.45 12.35 12.75 12.4 12.65 M8.5 9.3 L8.5 10.0 8.55 11.0 8.4 9.9 8.5 9.3" fill="#ff9900" fill-rule="evenodd" stroke="none"/>
      <path d="M12.65 10.55 L12.75 10.75 12.4 12.65 12.35 12.75 12.15 13.45 11.65 14.9 10.55 13.9 10.0 13.4 10.0 9.4 Q10.65 9.4 11.7 9.95 L12.65 10.55" fill="#66ffff" fill-rule="evenodd" stroke="none"/>
      <path d="M12.35 14.0 L12.6 14.8 12.65 15.0 12.65 15.45 12.3 17.1 11.25 19.0 10.15 19.0 10.05 18.9 9.9 18.4 9.9 18.1 9.9 17.4 9.9 17.15 9.95 16.45 9.95 16.35 10.05 15.45 10.1 15.15 10.4 14.2 10.55 13.9 11.65 14.9 12.15 13.45 12.15 13.5 12.35 14.0 M16.25 52.6 L16.15 53.75 13.65 53.95 16.5 54.0 18.75 54.15 21.0 56.4 21.15 56.75 Q21.4 57.05 20.65 57.15 L20.65 57.45 20.2 57.95 19.0 58.75 17.65 58.7 18.15 70.4 18.0 73.6 Q17.75 75.0 17.0 75.7 16.4 76.25 15.5 76.25 14.75 76.0 14.5 75.65 15.6 75.45 16.35 74.4 16.9 73.6 16.9 73.0 L16.9 70.4 16.8 69.45 16.4 69.5 15.9 70.05 15.25 70.65 15.0 70.75 12.15 70.7 10.75 70.7 8.15 70.65 7.4 70.25 7.0 70.25 6.9 70.25 5.7 69.9 Q6.4 72.5 8.15 74.5 L8.65 75.0 8.6 75.2 8.55 75.25 8.65 75.3 10.45 75.65 10.8 75.7 11.45 75.85 13.0 76.0 13.85 76.05 15.15 76.15 15.15 77.35 15.15 80.25 14.75 80.65 14.2 80.65 14.25 81.9 14.15 84.15 13.65 85.1 13.65 85.25 Q13.65 87.35 16.25 90.3 L16.75 90.85 Q21.35 95.75 22.4 97.35 L20.0 99.1 11.15 99.1 6.5 99.1 6.4 99.1 1.25 97.1 1.0 97.0 0.7 96.5 0.55 96.55 0.25 96.6 Q0.0 97.0 0.0 95.75 0.0 94.3 3.0 91.75 4.15 90.8 5.2 90.1 L5.95 88.25 Q7.35 85.3 8.45 84.2 L8.25 81.45 8.25 81.4 8.3 79.7 7.5 79.1 7.0 78.25 6.95 77.4 6.9 75.85 6.95 75.55 Q6.55 75.45 6.25 75.2 4.8 74.1 4.25 70.65 L4.05 68.75 3.0 67.75 3.25 67.35 3.5 67.15 4.0 67.25 3.9 63.2 4.0 59.65 4.5 59.65 4.4 59.55 Q4.15 59.2 4.15 58.4 L4.2 57.65 4.25 57.5 4.0 57.45 3.75 57.35 Q2.9 57.05 2.5 56.45 L1.5 55.65 1.65 55.25 2.9 55.5 4.55 56.65 6.8 57.05 Q9.75 57.3 15.15 56.9 L18.9 56.6 18.6 56.4 Q17.4 55.7 17.85 55.45 L17.9 55.4 17.75 55.4 14.15 55.45 10.9 55.4 10.15 55.15 10.0 55.8 9.5 55.75 7.15 55.65 6.0 54.6 5.5 54.1 3.15 54.55 2.45 54.8 2.3 54.85 0.25 55.5 0.0 55.15 Q0.65 54.15 1.8 53.7 L3.3 53.3 3.35 53.3 Q4.3 53.15 5.35 53.3 L5.45 53.1 5.55 53.0 5.75 53.0 5.75 52.75 5.9 52.65 Q6.2 52.4 6.65 52.15 L9.0 52.05 9.25 52.05 15.55 51.55 15.55 51.9 15.5 52.25 Q15.5 53.5 15.75 53.0 L16.25 52.6 M18.9 56.6 L18.95 56.6 18.9 56.6 M12.05 62.3 L15.5 62.0 15.9 62.1 15.95 62.1 16.2 62.2 16.15 61.3 15.95 58.65 6.9 58.0 5.75 57.8 Q5.25 58.7 5.3 59.05 L5.4 59.45 5.4 59.65 5.0 60.25 4.85 60.1 4.9 60.4 Q5.4 60.55 5.9 61.0 L6.1 61.15 Q6.5 61.25 7.1 61.65 L7.9 62.2 8.15 62.4 8.8 62.4 12.05 62.3 M5.6 62.85 L5.2 62.45 5.15 62.45 5.2 67.1 5.3 67.8 5.35 67.85 5.8 68.05 6.3 68.35 6.5 68.15 7.5 68.85 7.6 68.9 8.6 69.35 9.15 69.4 12.2 69.35 14.5 69.25 15.25 68.6 Q15.75 68.25 16.1 68.2 L16.4 67.8 16.65 67.8 16.25 63.1 15.75 63.65 15.55 63.65 12.2 63.65 7.15 63.65 7.05 63.5 6.75 63.5 Q6.25 63.5 5.6 62.85 M11.25 77.35 L9.8 76.95 8.0 76.5 Q8.2 77.2 9.2 77.75 L10.7 78.55 11.0 78.6 12.8 78.85 13.05 78.85 13.7 79.35 Q13.9 79.3 13.9 78.5 L13.9 77.6 13.75 77.4 13.25 77.65 13.15 77.65 11.25 77.35 M10.35 83.7 L11.85 83.95 12.0 84.0 12.55 83.75 12.6 83.65 12.75 82.4 12.5 80.65 12.35 80.65 11.15 80.65 10.75 80.65 9.65 80.4 9.75 83.65 9.85 83.65 10.35 83.7 M10.25 85.45 L9.55 85.4 9.45 85.8 8.0 88.9 8.15 89.0 7.75 89.35 7.7 89.45 7.15 90.35 7.0 90.65 5.4 93.1 5.85 93.15 6.6 93.25 7.7 93.3 9.6 93.45 11.2 93.45 14.5 93.4 17.1 93.3 14.4 90.3 Q12.5 88.3 12.4 85.65 L12.2 85.65 11.75 85.6 10.25 85.45 M4.25 92.3 L4.15 92.4 4.2 92.4 4.25 92.3 M6.85 94.1 L4.8 93.95 4.0 94.9 Q3.25 94.9 3.15 94.5 L3.8 93.3 3.65 93.15 3.7 92.95 3.85 92.6 2.3 94.2 2.15 94.3 2.4 95.5 3.55 95.8 Q3.6 96.2 3.75 95.85 L13.0 96.8 13.1 96.8 15.75 96.85 18.65 96.85 19.75 96.65 18.25 94.7 17.5 94.75 14.95 94.6 11.5 94.4 6.85 94.1" fill="#555142" fill-rule="evenodd" stroke="none"/>
      <path d="M12.6 14.8 Q17.15 12.4 17.15 15.0 L17.0 16.85 16.85 17.45 16.9 17.65 17.05 18.45 17.5 21.35 Q17.5 23.3 16.5 25.85 15.5 28.45 15.5 30.35 15.5 33.0 16.5 38.6 17.5 44.25 17.5 46.85 17.5 51.15 16.25 52.6 L15.75 53.0 Q15.5 53.5 15.5 52.25 L15.55 51.9 15.55 51.55 16.0 49.45 16.5 47.15 16.5 46.85 16.5 46.35 Q16.4 43.7 15.5 38.6 14.5 32.9 14.5 30.5 14.5 27.35 15.5 25.2 L16.25 23.2 16.5 21.5 16.4 20.5 16.05 19.0 Q13.8 21.8 7.65 21.5 7.85 24.4 7.0 29.35 6.05 35.0 6.0 37.25 L5.95 45.15 5.75 52.55 5.75 52.75 5.75 53.0 5.55 53.0 5.25 53.0 5.2 51.85 5.1 48.85 4.4 32.2 Q4.4 30.95 5.4 27.95 6.4 24.9 6.4 23.4 L5.9 21.8 Q5.4 20.85 5.4 20.2 5.4 19.15 9.95 16.35 L9.95 16.45 9.9 16.85 9.9 17.15 9.9 17.4 9.9 18.1 9.9 18.4 9.0 19.0 Q8.15 19.4 7.65 19.75 13.05 19.7 14.9 18.3 L15.65 17.35 15.5 16.25 15.5 16.0 Q14.3 16.1 12.3 17.1 L12.65 15.45 12.65 15.0 12.6 14.8 M9.75 44.75 L10.75 44.75 11.0 49.25 11.8 49.45 12.0 49.75 Q13.6 47.2 13.6 42.1 13.5 34.5 13.65 33.4 L14.15 33.4 Q14.5 38.1 14.5 44.1 L14.5 48.0 Q14.2 51.15 12.5 51.15 10.15 51.15 10.0 48.95 L10.05 48.35 10.15 47.35 10.0 45.9 9.7 45.9 9.0 45.9 9.0 50.75 8.8 51.05 8.5 51.15 Q6.8 51.2 6.3 50.1 L6.0 48.75 6.1 48.55 6.75 48.25 6.9 48.45 7.75 49.65 7.9 49.9 7.95 49.05 8.0 44.75 9.75 44.75" fill="#cc3300" fill-rule="evenodd" stroke="none"/>
    </g>
  </defs>
</svg>
