<?xml version="1.0" encoding="UTF-8" standalone="no"?>
<svg xmlns:ffdec="https://www.free-decompiler.com/flash" xmlns:xlink="http://www.w3.org/1999/xlink" ffdec:objectType="frame" height="52.8px" width="52.8px" xmlns="http://www.w3.org/2000/svg">
  <g transform="matrix(1.0, 0.0, 0.0, 1.0, 2.0, 2.0)">
    <use ffdec:characterId="624" height="44.0" transform="matrix(1.0, 0.0, 0.0, 1.0, 2.0, 2.0)" width="44.0" xlink:href="#sprite0"/>
    <use ffdec:characterId="830" height="38.85" transform="matrix(1.1348, -0.0286, 0.0286, 1.1348, 1.6067, 4.4266)" width="37.25" xlink:href="#sprite2"/>
    <use ffdec:characterId="820" height="52.8" transform="matrix(1.0, 0.0, 0.0, 1.0, -2.0, -2.0)" width="52.8" xlink:href="#sprite3"/>
  </g>
  <defs>
    <g id="sprite0" transform="matrix(1.0, 0.0, 0.0, 1.0, -2.0, -2.0)">
      <use ffdec:characterId="482" height="44.0" transform="matrix(1.0, 0.0, 0.0, 1.0, 2.0, 2.0)" width="44.0" xlink:href="#sprite1"/>
    </g>
    <g id="sprite1" transform="matrix(1.0, 0.0, 0.0, 1.0, -2.0, -2.0)">
      <use ffdec:characterId="481" height="44.0" transform="matrix(1.0, 0.0, 0.0, 1.0, 2.0, 2.0)" width="44.0" xlink:href="#shape0"/>
    </g>
    <g id="shape0" transform="matrix(1.0, 0.0, 0.0, 1.0, -2.0, -2.0)">
      <path d="M44.3 3.05 L44.45 3.2 44.6 3.3 45.3 4.15 45.25 4.0 45.45 4.5 Q46.0 5.75 46.0 7.5 L46.0 40.5 45.75 42.8 45.7 42.9 45.7 42.85 45.45 43.55 45.4 43.7 45.1 44.2 44.7 44.65 Q43.15 46.0 40.1 46.0 L7.9 46.0 Q5.65 46.0 4.2 45.3 L4.25 45.3 3.65 44.95 3.25 44.6 3.15 44.45 3.0 44.3 2.5 43.4 Q2.0 42.2 2.0 40.6 L2.0 40.5 2.0 7.5 Q2.0 6.55 2.15 5.75 L2.7 4.25 Q3.35 3.05 4.7 2.5 L4.65 2.5 5.0 2.4 5.15 2.35 5.3 2.3 5.9 2.15 6.85 2.05 6.95 2.05 7.8 2.0 7.9 2.0 18.3 2.0 18.6 2.0 40.1 2.0 40.45 2.0 41.6 2.1 41.75 2.1 41.95 2.2 43.05 2.45 Q43.7 2.65 44.2 3.0 L44.3 3.05" fill="url(#gradient0)" fill-rule="evenodd" stroke="none"/>
    </g>
    <linearGradient gradientTransform="matrix(-0.0201, -0.0213, 0.0213, -0.0201, 24.0, 24.0)" gradientUnits="userSpaceOnUse" id="gradient0" spreadMethod="pad" x1="-819.2" x2="819.2">
      <stop offset="0.0" stop-color="#565550"/>
      <stop offset="1.0" stop-color="#282826"/>
    </linearGradient>
    <g id="sprite2" transform="matrix(1.0, 0.0, 0.0, 1.0, -1.45, 1.35)">
      <use ffdec:characterId="829" height="38.85" transform="matrix(1.0, 0.0, 0.0, 1.0, 1.45, -1.35)" width="37.25" xlink:href="#shape1"/>
    </g>
    <g id="shape1" transform="matrix(1.0, 0.0, 0.0, 1.0, -1.45, 1.35)">
      <path d="M21.75 1.85 L21.8 1.25 21.6 0.5 21.5 0.8 Q20.55 3.5 20.2 5.4 L20.1 5.75 20.1 5.9 20.05 6.85 Q20.0 8.9 20.6 11.05 L20.6 11.2 22.35 14.4 Q23.95 17.1 24.55 19.45 L25.35 22.8 25.4 25.15 25.45 25.2 25.15 26.65 Q25.1 27.7 24.65 28.9 L24.45 29.9 23.75 31.45 23.6 31.8 23.7 32.05 23.65 32.15 23.75 32.4 23.8 32.25 23.9 32.2 23.9 32.15 23.95 32.15 23.95 32.2 24.55 31.65 25.05 31.3 25.15 31.1 25.75 30.6 25.9 30.55 25.9 31.8 26.1 31.5 26.2 31.15 26.25 30.95 26.2 30.9 26.2 29.7 26.15 29.5 26.2 28.35 26.3 27.25 26.45 27.05 26.6 26.0 26.6 25.95 26.8 25.3 27.0 25.4 26.85 27.15 26.6 28.85 26.7 30.35 26.65 30.7 26.7 31.35 26.65 31.45 26.8 31.6 27.15 32.5 27.25 32.35 27.55 32.25 27.6 32.15 27.8 31.55 28.05 30.0 28.3 28.25 Q28.5 25.95 28.65 25.6 L28.8 24.55 29.0 24.4 28.9 25.2 29.0 25.2 28.75 28.25 28.5 30.35 28.6 30.85 28.6 30.95 28.55 31.0 28.65 31.4 28.6 32.45 28.75 33.3 28.8 33.55 28.9 35.0 29.25 35.35 29.5 35.4 30.05 35.55 30.55 35.2 30.65 35.05 30.75 34.9 31.2 33.65 31.25 33.6 31.5 33.1 31.75 31.8 31.75 31.7 31.95 30.1 32.2 28.2 32.1 27.2 32.05 27.05 32.1 27.05 32.05 26.0 32.1 25.85 32.15 25.85 32.55 27.75 32.55 27.8 32.6 29.3 32.5 32.15 32.55 32.3 32.8 32.7 33.1 33.15 33.25 33.4 33.4 33.25 33.5 33.0 33.6 32.95 33.8 32.9 33.95 32.95 33.95 30.6 34.05 29.55 34.1 28.6 34.25 28.4 34.25 28.35 34.3 28.35 34.45 30.1 34.5 33.2 34.6 33.75 34.65 33.75 34.95 34.55 35.1 35.0 35.25 34.6 35.4 34.1 35.55 33.45 35.95 32.1 36.0 32.0 36.0 30.55 36.05 30.45 36.05 28.3 36.1 28.35 36.45 30.4 36.4 31.3 36.45 31.45 36.5 31.4 36.55 31.4 36.55 31.3 36.85 30.9 37.0 30.55 37.1 29.9 37.15 29.85 37.35 29.8 37.4 29.6 37.45 28.9 37.45 28.75 37.4 26.7 Q37.25 25.0 36.6 23.2 L36.5 23.05 36.45 23.0 36.5 22.9 35.95 21.7 35.8 21.55 35.8 21.5 Q35.15 20.0 34.15 18.65 32.6 16.8 30.65 15.1 L29.7 14.15 29.15 13.6 27.1 11.4 26.4 10.85 25.6 9.45 25.0 8.65 24.15 7.25 23.75 6.55 23.3 5.9 22.85 5.1 22.9 5.05 22.6 4.15 21.95 2.2 21.75 1.85 M20.95 5.95 L21.0 5.55 Q21.05 4.95 21.25 4.45 L21.3 4.15 21.5 4.25 21.45 7.85 21.6 8.85 21.8 9.95 21.85 10.35 22.5 12.0 22.4 12.1 21.65 10.45 Q21.15 9.2 21.0 8.05 L20.95 6.45 20.95 5.95 M31.15 20.25 L32.5 23.4 32.65 23.9 32.35 23.95 Q31.9 21.45 28.2 16.25 L27.7 15.5 27.6 15.35 23.45 9.15 23.75 9.1 28.95 16.75 31.15 20.25 M24.15 11.85 L24.25 11.85 27.55 16.3 28.25 17.25 28.35 17.4 28.75 18.0 30.15 20.85 30.25 21.2 Q30.5 22.45 30.2 23.4 L30.0 23.3 Q30.6 21.2 28.1 17.5 L24.1 12.05 24.15 11.85 M27.45 9.55 Q29.35 12.1 32.0 14.45 35.7 17.45 37.55 23.0 39.5 28.5 38.1 31.65 L37.2 33.3 36.8 33.3 Q36.3 34.5 35.85 36.7 L35.7 37.05 35.3 37.0 Q34.9 36.85 34.4 35.9 L33.85 34.75 33.5 35.15 33.05 35.15 32.55 34.75 Q32.45 34.3 32.2 34.2 L31.55 36.5 Q31.3 37.0 30.7 37.2 29.75 37.4 28.5 36.85 27.35 36.35 27.3 35.5 L27.4 34.3 26.65 34.4 26.2 34.0 26.05 33.5 Q25.5 34.05 24.7 33.7 L24.3 34.25 23.2 34.4 Q21.7 33.75 22.3 31.25 L23.15 29.1 23.4 28.7 23.45 28.75 24.05 25.4 Q24.65 20.7 22.2 16.85 16.75 8.05 20.15 0.35 21.15 -2.15 21.95 -0.95 L24.65 5.2 27.45 9.55 M29.1 15.75 L30.45 17.95 Q30.15 17.75 29.2 16.35 L28.1 14.85 28.35 14.5 28.55 14.85 28.6 14.9 28.9 15.4 29.0 15.5 29.1 15.75 M25.75 18.05 L25.65 18.15 25.25 17.5 24.4 16.6 24.5 16.5 25.2 17.1 25.6 17.8 25.75 18.05 M26.8 23.0 L26.7 23.05 26.4 22.3 26.15 21.35 26.35 21.45 26.85 22.7 26.85 22.8 26.85 23.0 26.8 23.0 M35.2 24.1 L35.3 24.7 35.3 24.6 Q35.55 25.85 35.4 26.7 L35.4 26.75 35.35 26.75 35.25 26.0 34.9 24.2 34.45 23.25 33.6 21.4 32.4 19.55 31.95 18.95 31.95 18.9 32.0 18.85 32.0 18.9 32.95 20.1 33.0 20.2 34.7 22.9 35.2 24.1 M31.65 26.6 L31.85 27.95 31.75 29.0 31.65 29.5 31.55 30.55 31.4 30.5 31.35 30.2 31.5 28.2 31.25 26.5 30.9 25.5 31.1 25.5 31.45 26.15 31.65 26.6" fill="#000000" fill-rule="evenodd" stroke="none"/>
      <path d="M20.95 5.3 L20.9 4.7 Q21.0 2.75 21.2 2.25 L21.55 1.8 21.3 3.45 21.3 4.15 21.25 4.45 Q21.05 4.95 21.0 5.55 L20.95 5.95 20.95 5.3 M21.85 3.45 L21.75 1.85 21.95 2.2 22.0 3.7 22.1 5.5 22.05 5.5 22.05 5.7 22.0 5.8 Q21.9 6.0 22.15 7.65 L22.15 7.9 22.35 9.6 21.85 8.85 21.8 8.0 Q21.65 5.65 21.8 4.3 L21.95 4.25 21.85 3.45 M20.2 5.4 L20.3 5.2 20.45 4.85 20.55 4.9 Q20.45 5.55 20.5 6.45 L20.45 6.75 20.3 6.9 20.6 8.45 20.7 10.3 20.65 10.15 20.2 8.0 20.1 5.9 20.1 5.75 20.2 5.4 M23.85 8.0 L22.95 6.45 Q22.4 5.3 22.4 4.65 L22.5 4.65 23.05 5.55 23.2 6.1 23.3 6.35 23.35 6.55 23.7 7.15 23.75 7.25 23.85 7.45 24.4 8.25 24.3 8.5 24.15 8.5 23.85 8.0 M21.9 9.75 L22.35 10.55 22.35 10.6 22.3 10.6 22.15 10.55 22.05 10.25 21.9 9.75" fill="#53462b" fill-rule="evenodd" stroke="none"/>
      <path d="M21.3 3.45 L21.55 1.8 21.2 2.25 Q21.0 2.75 20.9 4.7 L20.95 5.3 20.75 6.0 20.65 5.95 20.55 6.05 20.55 6.35 20.5 6.45 Q20.45 5.55 20.55 4.9 L20.45 4.85 20.3 5.2 20.2 5.4 Q20.55 3.5 21.5 0.8 L21.6 0.5 21.8 1.25 21.75 1.85 21.85 3.45 21.5 3.4 21.3 3.45 M22.0 3.7 L21.95 2.2 22.6 4.15 22.35 4.05 22.05 3.75 22.0 3.7" fill="#221d11" fill-rule="evenodd" stroke="none"/>
      <path d="M25.0 8.65 L25.6 9.45 26.4 10.85 27.1 11.4 29.15 13.6 29.05 13.8 29.7 14.15 30.65 15.1 Q32.6 16.8 34.15 18.65 35.15 20.0 35.8 21.5 L35.8 21.55 35.95 21.7 36.5 22.9 36.45 23.0 36.5 23.05 36.55 23.35 36.6 23.5 36.7 23.8 36.6 24.35 36.45 24.5 36.15 24.55 34.25 19.8 32.15 17.2 30.95 15.75 30.8 15.6 28.7 13.85 28.6 13.8 Q27.6 13.35 25.6 10.4 L24.3 8.5 24.4 8.25 23.85 7.45 25.0 8.65 M32.55 27.75 L32.15 25.85 32.1 25.5 32.4 26.0 32.55 27.45 32.55 27.75 M28.6 30.95 L28.6 30.85 28.5 30.35 28.75 28.25 29.1 24.6 29.2 23.35 Q29.15 23.1 29.25 22.9 L29.3 22.9 Q29.55 24.55 29.35 26.65 L29.15 28.6 28.8 30.45 28.6 30.95 M26.65 30.7 L26.7 30.35 26.6 28.85 26.85 27.15 27.0 25.4 26.8 25.3 26.95 24.2 26.95 24.0 27.05 24.05 27.0 25.4 26.95 27.7 26.9 30.4 26.65 30.7 M25.3 11.05 L25.35 11.1 25.35 11.15 25.4 11.2 26.4 12.55 30.65 18.75 30.45 18.5 30.4 18.45 30.3 18.35 30.3 18.3 Q27.9 15.4 24.85 10.4 L24.9 10.4 25.3 11.05 M28.55 14.8 L29.05 15.3 29.6 16.0 29.65 16.15 29.6 16.15 29.0 15.5 28.9 15.4 28.6 14.9 28.55 14.85 28.55 14.8 M22.0 10.4 L21.95 10.35 22.05 10.25 22.15 10.55 22.3 10.6 22.3 10.8 22.2 10.9 22.2 10.85 22.0 10.4 M28.25 17.15 L28.0 16.7 26.2 14.4 24.25 11.75 24.3 11.75 Q29.4 17.0 30.65 21.7 L30.6 21.8 30.5 21.85 30.25 21.2 30.15 20.85 28.75 18.0 28.35 17.4 28.3 17.2 28.25 17.15 M25.6 17.8 L25.25 16.85 25.2 16.8 26.0 17.8 26.65 19.05 26.5 19.1 26.05 18.65 25.75 18.05 25.6 17.8 M30.7 33.25 L30.65 33.3 30.5 33.5 30.15 34.35 29.8 34.3 30.55 31.75 30.75 28.95 30.85 28.7 30.85 27.95 30.95 27.95 30.95 28.45 31.0 28.4 31.05 28.4 31.0 30.65 31.0 30.85 30.7 33.25 M32.55 19.15 Q34.4 20.95 35.2 24.1 L34.7 22.9 33.0 20.2 32.95 20.05 32.85 19.9 32.55 19.15 M36.95 25.95 L37.0 25.95 37.15 26.85 37.0 27.25 36.95 27.3 36.8 27.3 Q36.6 27.2 36.65 26.65 L36.6 26.2 36.95 25.95 M34.7 26.45 L34.35 24.35 Q35.2 26.0 35.45 27.9 35.7 29.8 35.35 31.15 L35.0 31.2 Q34.85 31.15 34.65 30.15 L34.55 28.6 34.55 27.45 Q34.55 26.75 34.7 26.45 M31.6 26.35 L31.65 26.6 31.45 26.15 31.4 25.9 31.6 25.9 31.6 26.35" fill="#cdbda0" fill-rule="evenodd" stroke="none"/>
      <path d="M36.6 23.2 Q37.25 25.0 37.4 26.7 L37.45 28.75 37.45 28.9 37.4 29.6 37.35 29.8 37.2 29.75 37.15 29.85 37.1 29.9 36.9 30.4 36.15 26.9 35.4 24.45 34.55 21.85 Q33.6 19.85 32.35 18.5 L32.3 18.55 32.55 19.15 32.85 19.9 32.95 20.05 32.95 20.1 32.0 18.9 32.0 18.85 31.95 18.9 30.45 16.45 30.5 16.3 Q33.0 18.75 34.85 22.2 36.6 25.55 36.75 28.25 L36.85 28.15 36.95 27.3 37.0 27.25 37.15 26.85 37.0 25.95 36.95 25.95 36.85 25.3 36.7 23.8 36.6 23.5 36.55 23.35 36.6 23.2 M36.55 31.3 L36.55 31.4 36.5 31.4 36.45 31.3 36.55 31.3 M36.05 30.45 L36.0 30.55 36.0 32.0 35.95 32.1 35.55 33.45 Q35.45 33.45 35.3 33.6 L35.0 33.55 34.5 33.2 34.45 30.1 Q34.6 32.0 34.95 33.1 L35.15 32.85 Q35.65 31.6 35.75 29.45 L35.65 28.5 36.05 30.45 M35.25 34.6 L35.1 35.0 34.95 34.55 35.25 34.6 M34.25 28.4 L34.1 28.6 34.05 29.55 33.9 29.6 33.45 32.45 33.3 32.65 33.05 32.65 32.55 32.3 32.5 32.15 32.6 29.3 32.55 27.8 32.55 27.75 32.55 27.45 32.4 26.0 32.1 25.5 31.9 25.65 31.65 23.85 31.75 23.8 Q33.0 25.5 32.85 28.4 32.7 30.7 33.05 32.05 L33.25 31.9 33.5 28.2 33.65 28.1 33.7 28.3 33.8 27.8 33.8 27.75 33.75 26.75 33.9 26.7 Q33.85 26.05 33.95 25.65 L34.0 25.7 34.05 25.8 34.05 25.4 34.1 25.4 34.2 26.8 34.25 28.25 34.25 28.4 M33.4 33.25 L33.25 33.4 33.1 33.15 33.4 33.25 M30.75 34.9 L30.65 35.05 30.55 35.2 30.6 35.15 30.75 34.9 M28.65 31.4 L28.55 31.0 28.6 30.95 28.8 30.45 29.15 28.6 28.85 30.4 29.4 34.2 29.7 34.4 30.3 34.45 29.95 34.85 29.05 34.85 28.8 33.55 28.7 32.8 28.65 31.4 M28.65 25.6 Q28.5 25.95 28.3 28.25 L28.05 30.0 27.65 31.15 27.35 31.6 26.85 31.5 26.8 31.6 26.65 31.45 26.7 31.35 26.65 30.7 26.9 30.4 26.95 27.7 27.0 25.4 27.05 24.05 26.95 24.0 26.95 22.65 26.85 22.55 26.85 22.7 26.35 21.45 26.15 21.35 26.4 22.3 26.7 23.05 26.8 23.0 26.4 26.3 25.35 29.35 23.75 32.15 23.8 32.25 23.75 32.4 23.65 32.15 23.7 32.05 23.75 31.45 24.45 29.9 24.65 28.9 Q25.1 27.7 25.15 26.65 L25.45 25.2 25.4 25.15 25.35 22.8 25.35 22.75 Q25.45 20.55 23.8 16.45 L21.8 11.85 21.9 11.8 21.45 9.95 21.65 10.45 22.4 12.1 22.5 12.0 21.85 10.35 22.0 10.4 22.2 10.85 22.2 10.9 23.45 13.8 23.4 14.0 23.15 13.9 22.7 13.7 23.25 14.55 24.15 16.15 Q24.45 15.85 25.2 16.75 L25.2 16.8 25.25 16.85 25.6 17.8 25.2 17.1 24.5 16.5 24.4 16.6 25.25 17.5 25.65 18.15 25.75 18.05 26.05 18.65 25.8 18.65 24.3 16.6 Q25.65 19.5 25.95 23.05 L26.05 25.35 26.15 25.95 26.55 24.55 26.65 23.85 26.3 22.5 26.05 20.95 Q27.0 21.75 27.15 23.25 L27.2 23.8 27.4 26.7 27.15 30.95 27.4 30.5 28.4 26.65 28.5 25.6 28.85 22.4 28.9 22.45 28.65 25.6 M26.2 30.9 L26.25 30.95 26.2 31.15 26.2 30.9 M23.85 8.7 L25.05 10.5 25.3 11.05 24.9 10.4 24.85 10.4 Q27.9 15.4 30.3 18.3 L30.3 18.35 30.85 19.65 31.15 20.25 28.95 16.75 23.75 9.1 23.45 9.15 27.6 15.35 23.25 9.25 23.1 8.9 22.95 8.45 23.25 9.25 23.4 9.2 23.3 8.1 23.35 8.1 23.75 8.7 23.85 8.7 M29.65 16.15 L30.9 18.15 Q32.75 21.4 32.65 21.75 L32.5 21.9 32.5 21.95 32.05 21.25 32.05 21.2 Q31.65 19.45 30.2 17.2 L29.1 15.75 29.0 15.5 29.6 16.15 29.65 16.15 M32.5 23.4 L32.7 23.9 Q32.5 24.15 32.3 24.05 L30.9 21.3 28.2 16.25 Q31.9 21.45 32.35 23.95 L32.65 23.9 32.5 23.4 M20.5 6.95 L20.55 6.75 20.6 6.7 20.7 7.1 20.7 7.15 20.5 6.95 M30.6 21.8 Q30.75 22.7 30.4 23.45 L30.25 23.7 30.05 23.65 Q29.9 23.6 29.85 22.25 L29.55 20.7 Q28.7 19.05 27.35 17.3 23.15 11.15 23.3 10.65 L23.4 10.6 24.15 11.85 24.1 12.05 28.1 17.5 Q30.6 21.2 30.0 23.3 L30.2 23.4 Q30.5 22.45 30.25 21.2 L30.5 21.85 30.6 21.8 M27.55 16.3 L28.25 17.15 28.3 17.2 28.35 17.4 28.25 17.25 27.55 16.3 M29.1 23.1 L29.2 23.35 29.1 24.6 29.1 23.1 M30.85 32.95 L30.7 33.2 30.7 33.25 31.0 30.85 31.0 30.65 31.25 29.35 31.1 26.65 30.75 24.95 Q31.15 24.05 31.65 25.5 L31.75 25.95 31.65 26.1 31.6 26.35 31.6 25.9 31.4 25.9 31.45 26.15 31.1 25.5 30.9 25.5 31.25 26.5 31.3 29.35 30.9 32.45 31.0 32.35 30.85 32.95 M32.4 19.55 L33.6 21.4 33.9 22.25 34.9 24.2 35.25 26.0 34.4 23.8 32.4 19.55" fill="#ad9463" fill-rule="evenodd" stroke="none"/>
      <path d="M22.35 9.6 L22.15 7.9 Q22.55 9.85 23.0 10.05 L23.3 10.0 23.1 8.9 23.25 9.25 27.6 15.35 27.7 15.5 28.2 16.25 30.9 21.3 32.3 24.05 Q32.5 24.15 32.7 23.9 L32.5 23.4 31.15 20.25 30.85 19.65 30.3 18.35 30.4 18.45 30.45 18.5 30.8 19.3 31.45 20.3 32.0 21.3 32.05 21.25 32.5 21.95 32.5 21.9 32.65 21.75 Q32.75 21.4 30.9 18.15 L29.65 16.15 29.6 16.0 29.05 15.3 28.55 14.8 27.75 13.4 Q26.85 12.1 25.95 11.75 L26.4 12.55 25.4 11.2 25.35 11.15 25.35 11.1 25.3 11.05 25.05 10.5 23.85 8.7 23.9 8.7 23.85 8.45 23.95 8.4 23.7 8.1 23.85 8.0 24.15 8.5 24.3 8.5 25.6 10.4 Q27.6 13.35 28.6 13.8 L28.7 13.85 30.8 15.6 30.95 15.75 32.15 17.2 34.25 19.8 36.15 24.55 36.45 24.5 36.6 24.35 36.7 23.8 36.85 25.3 36.95 25.95 36.6 26.2 36.65 26.65 Q36.6 27.2 36.8 27.3 L36.95 27.3 36.85 28.15 36.75 28.25 Q36.6 25.55 34.85 22.2 33.0 18.75 30.5 16.3 L30.45 16.45 31.95 18.9 31.95 18.95 32.4 19.55 34.4 23.8 35.25 26.0 35.35 26.75 35.4 26.75 35.6 28.2 35.65 28.5 35.75 29.45 Q35.65 31.6 35.15 32.85 L34.95 33.1 Q34.6 32.0 34.45 30.1 L34.3 28.35 34.25 28.35 34.25 28.4 34.25 28.25 34.2 26.8 34.1 25.4 34.05 25.4 34.05 25.8 34.0 25.7 33.95 25.65 Q33.85 26.05 33.9 26.7 L33.75 26.75 33.8 27.75 33.8 27.8 33.7 28.3 33.65 28.1 33.5 28.2 33.25 31.9 33.05 32.05 Q32.7 30.7 32.85 28.4 33.0 25.5 31.75 23.8 L31.65 23.85 31.9 25.65 31.75 25.95 31.65 25.5 Q31.15 24.05 30.75 24.95 L31.1 26.65 31.25 29.35 31.0 30.65 31.05 28.4 31.0 28.4 30.95 28.45 30.95 27.95 30.85 27.95 30.85 28.7 30.75 28.95 30.55 31.75 29.8 34.3 30.15 34.35 30.5 33.5 30.65 33.3 30.7 33.25 30.7 33.2 30.85 32.95 30.35 34.35 30.3 34.45 29.7 34.4 29.4 34.2 28.85 30.4 29.15 28.6 29.35 26.65 Q29.55 24.55 29.3 22.9 L29.25 22.9 Q29.15 23.1 29.2 23.35 L29.1 23.1 29.1 23.0 29.1 22.95 28.9 22.35 28.85 22.35 28.85 22.4 28.5 25.6 28.4 26.65 27.4 30.5 27.15 30.95 27.4 26.7 27.2 23.8 27.15 23.25 Q27.0 21.75 26.05 20.95 L26.3 22.5 26.65 23.85 26.55 24.55 26.15 25.95 26.05 25.35 25.95 23.05 Q25.65 19.5 24.3 16.6 L25.8 18.65 26.05 18.65 26.5 19.1 26.65 19.05 26.0 17.8 25.2 16.8 25.2 16.75 Q24.45 15.85 24.15 16.15 L23.25 14.55 22.7 13.7 23.15 13.9 23.4 14.0 23.45 13.8 22.2 10.9 22.3 10.8 22.3 10.6 22.35 10.6 22.35 10.55 22.55 10.7 Q22.75 10.75 22.75 10.6 L22.35 9.6 M29.15 13.6 L29.7 14.15 29.05 13.8 29.15 13.6 M36.5 23.05 L36.6 23.2 36.55 23.35 36.5 23.05 M36.5 31.4 L36.45 31.45 36.4 31.3 36.45 31.3 36.5 31.4 M23.7 32.05 L23.6 31.8 23.75 31.45 23.7 32.05 M24.15 11.85 L23.4 10.6 23.3 10.65 Q23.15 11.15 27.35 17.3 28.7 19.05 29.55 20.7 L29.85 22.25 Q29.9 23.6 30.05 23.65 L30.25 23.7 30.4 23.45 Q30.75 22.7 30.6 21.8 L30.65 21.7 Q29.4 17.0 24.3 11.75 L24.25 11.75 26.2 14.4 28.0 16.7 28.25 17.15 27.55 16.3 24.25 11.85 24.15 11.85 M34.7 26.45 Q34.55 26.75 34.55 27.45 L34.55 28.6 34.65 30.15 Q34.85 31.15 35.0 31.2 L35.35 31.15 Q35.7 29.8 35.45 27.9 35.2 26.0 34.35 24.35 L34.7 26.45 M30.25 29.6 L30.2 29.65 30.25 29.7 30.25 29.6" fill="#b9a379" fill-rule="evenodd" stroke="none"/>
      <path d="M37.35 29.8 L37.15 29.85 37.2 29.75 37.35 29.8 M37.1 29.9 L37.0 30.55 36.85 30.9 36.55 31.3 36.45 31.3 36.4 31.3 36.45 30.4 36.1 28.35 36.05 28.3 36.05 30.45 35.65 28.5 35.6 28.2 35.4 26.75 35.4 26.7 Q35.55 25.85 35.3 24.6 L35.3 24.7 35.2 24.1 Q34.4 20.95 32.55 19.15 L32.3 18.55 32.35 18.5 Q33.6 19.85 34.55 21.85 L35.4 24.45 36.15 26.9 36.9 30.4 37.1 29.9 M35.55 33.45 L35.4 34.1 35.25 34.6 34.95 34.55 34.65 33.75 34.6 33.75 34.5 33.2 35.0 33.55 35.3 33.6 Q35.45 33.45 35.55 33.45 M34.05 29.55 L33.95 30.6 33.95 32.95 33.8 32.9 33.6 32.95 33.5 33.0 33.4 33.25 33.1 33.15 32.8 32.7 32.55 32.3 33.05 32.65 33.3 32.65 33.45 32.45 33.9 29.6 34.05 29.55 M32.15 25.85 L32.1 25.85 32.05 26.0 32.1 27.05 32.05 27.05 32.1 27.2 32.2 28.2 31.95 30.1 31.75 31.7 31.75 31.8 31.5 33.1 31.25 33.6 31.2 33.65 30.75 34.9 30.6 35.15 30.55 35.2 30.05 35.55 29.5 35.4 29.25 35.35 28.9 35.0 28.8 33.55 28.75 33.3 28.6 32.45 28.65 31.4 28.7 32.8 28.8 33.55 29.05 34.85 29.95 34.85 30.3 34.45 30.35 34.35 30.85 32.95 31.0 32.35 30.9 32.45 31.3 29.35 31.25 26.5 31.5 28.2 31.35 30.2 31.4 30.5 31.55 30.55 31.65 29.5 31.75 29.0 31.85 27.95 31.65 26.6 31.6 26.35 31.65 26.1 31.75 25.95 31.9 25.65 32.1 25.5 32.15 25.85 M28.75 28.25 L29.0 25.2 28.9 25.2 29.0 24.4 28.8 24.55 28.65 25.6 28.9 22.45 28.85 22.4 28.85 22.35 28.9 22.35 29.1 22.95 29.1 23.0 29.1 23.1 29.1 24.6 28.75 28.25 M28.05 30.0 L27.8 31.55 27.6 32.15 27.55 32.25 27.25 32.35 27.15 32.5 26.8 31.6 26.85 31.5 27.35 31.6 27.65 31.15 28.05 30.0 M26.8 25.3 L26.6 25.95 26.6 26.0 26.45 27.05 26.3 27.25 26.2 28.35 26.15 29.5 26.2 29.7 26.2 30.9 26.2 31.15 26.1 31.5 25.9 31.8 25.9 30.55 25.75 30.6 25.15 31.1 25.05 31.3 24.55 31.65 23.95 32.2 23.95 32.15 23.9 32.15 23.9 32.2 23.8 32.25 23.75 32.15 25.35 29.35 26.4 26.3 26.8 23.0 26.85 23.0 26.85 22.8 26.85 22.7 26.85 22.55 26.95 22.65 26.95 24.0 26.95 24.2 26.8 25.3 M25.35 22.8 L24.55 19.45 Q23.95 17.1 22.35 14.4 L20.6 11.2 20.6 11.05 20.65 11.1 Q20.8 11.15 20.75 11.05 L20.65 10.15 20.7 10.3 20.6 8.45 20.7 9.15 20.8 9.35 21.2 11.3 21.25 11.25 21.15 10.8 21.65 12.0 21.8 11.85 23.8 16.45 Q25.45 20.55 25.35 22.75 L25.35 22.8 M26.4 12.55 L25.95 11.75 Q26.85 12.1 27.75 13.4 L28.55 14.8 28.55 14.85 28.35 14.5 28.1 14.85 29.2 16.35 Q30.15 17.75 30.45 17.95 L29.1 15.75 30.2 17.2 Q31.65 19.45 32.05 21.2 L32.05 21.25 32.0 21.3 31.45 20.3 30.8 19.3 30.45 18.5 30.65 18.75 26.4 12.55 M32.95 20.1 L32.95 20.05 33.0 20.2 32.95 20.1 M33.6 21.4 L34.45 23.25 34.9 24.2 33.9 22.25 33.6 21.4" fill="#92794b" fill-rule="evenodd" stroke="none"/>
      <path d="M20.55 6.35 L20.55 6.05 20.65 5.95 20.75 6.0 20.95 6.45 21.0 8.05 Q21.15 9.2 21.65 10.45 L21.45 9.95 21.9 11.8 21.8 11.85 21.65 12.0 21.15 10.8 21.25 11.25 21.2 11.3 20.8 9.35 20.7 9.15 20.6 8.45 20.3 6.9 20.45 6.75 20.45 6.9 20.5 6.95 20.7 7.15 20.7 7.1 20.6 6.7 20.55 6.35 M21.85 8.85 L22.35 9.6 22.75 10.6 Q22.75 10.75 22.55 10.7 L22.35 10.55 21.9 9.75 21.95 9.65 21.65 8.6 21.7 8.65 21.85 8.85 M22.15 7.9 L22.15 7.65 Q21.9 6.0 22.0 5.8 L22.05 5.7 22.2 5.55 22.35 5.65 22.4 5.7 22.85 6.5 23.2 7.0 23.7 8.1 23.95 8.4 23.85 8.45 23.9 8.7 23.85 8.7 23.75 8.7 23.35 8.1 23.3 8.1 23.4 9.2 23.25 9.25 22.95 8.45 23.1 8.9 23.3 10.0 23.0 10.05 Q22.55 9.85 22.15 7.9 M23.3 5.9 L23.75 6.55 24.15 7.25 25.0 8.65 23.85 7.45 23.75 7.25 23.7 7.15 23.35 6.55 23.3 6.35 23.2 6.1 23.2 5.9 23.3 5.9" fill="#72603a" fill-rule="evenodd" stroke="none"/>
      <path d="M21.3 3.45 L21.5 3.4 21.85 3.45 21.95 4.25 21.8 4.3 Q21.65 5.65 21.8 8.0 L21.85 8.85 21.7 8.65 21.65 8.6 21.95 9.65 21.9 9.75 22.05 10.25 21.95 10.35 22.0 10.4 21.85 10.35 21.8 9.95 21.6 8.85 21.45 7.85 21.5 4.25 21.3 4.15 21.3 3.45 M20.5 6.45 L20.55 6.35 20.6 6.7 20.55 6.75 20.5 6.95 20.45 6.9 20.45 6.75 20.5 6.45 M20.75 6.0 L20.95 5.3 20.95 5.95 20.95 6.45 20.75 6.0 M22.05 5.7 L22.05 5.5 22.1 5.5 22.0 3.7 22.05 3.75 22.35 4.05 22.6 4.15 22.9 5.05 22.85 5.1 23.3 5.9 23.2 5.9 23.2 6.1 23.05 5.55 22.5 4.65 22.4 4.65 Q22.4 5.3 22.95 6.45 L23.85 8.0 23.7 8.1 23.2 7.0 22.85 6.5 22.4 5.7 22.35 5.65 22.2 5.55 22.05 5.7 M20.6 11.05 Q20.0 8.9 20.05 6.85 L20.1 5.9 20.2 8.0 20.65 10.15 20.75 11.05 Q20.8 11.15 20.65 11.1 L20.6 11.05" fill="#332b1a" fill-rule="evenodd" stroke="none"/>
      <path d="M22.05 19.8 L22.05 19.95 22.8 20.15 26.95 22.35 28.9 23.65 29.4 24.25 29.5 24.15 30.45 25.25 30.7 25.5 30.75 25.55 31.25 26.2 Q32.5 27.9 32.75 29.3 L32.85 29.65 30.65 27.5 29.45 26.25 29.45 26.3 29.4 26.2 28.45 24.95 27.65 23.95 27.55 23.9 27.8 24.2 27.7 24.15 27.65 24.2 28.1 25.1 28.1 25.2 28.7 25.9 28.75 26.05 29.05 26.4 28.75 26.4 28.7 26.55 30.65 29.65 30.65 29.9 Q29.55 29.05 28.35 27.1 26.75 24.6 24.75 23.95 L24.7 24.05 25.9 25.35 25.95 25.75 25.7 25.45 24.65 25.5 25.8 26.65 Q27.2 28.05 27.6 28.8 L28.15 29.95 26.95 28.05 26.8 28.05 26.9 28.2 26.55 27.8 26.5 27.85 26.9 28.45 27.0 28.7 28.4 31.1 Q29.05 32.5 29.3 33.7 L29.6 33.5 29.45 32.55 29.4 32.3 29.45 32.2 29.75 33.4 29.8 33.45 29.3 33.75 28.9 33.75 26.2 31.05 26.15 30.85 25.4 29.45 24.4 27.75 22.25 24.65 22.15 24.7 22.4 25.05 22.0 24.8 21.6 24.4 21.55 24.45 21.6 24.5 21.4 24.45 23.1 27.3 23.7 28.3 25.15 31.9 25.05 32.4 22.95 28.85 21.05 26.55 20.75 26.25 Q19.7 24.95 18.45 25.0 L19.55 26.05 20.65 27.0 21.0 27.6 21.5 29.05 21.1 28.6 19.6 26.7 Q17.25 24.05 14.45 22.45 L16.9 23.2 17.05 23.1 17.7 23.15 17.85 23.0 16.6 22.4 15.3 22.1 15.25 22.1 14.05 22.2 12.45 21.45 11.6 21.05 12.05 21.0 12.25 20.9 12.2 20.65 9.5 19.05 9.5 18.95 9.35 18.8 9.4 18.7 9.65 18.7 9.9 18.5 8.75 17.9 7.65 16.55 7.75 16.6 Q9.05 18.0 9.6 17.95 L9.8 17.7 8.95 17.05 9.35 17.15 Q11.8 18.15 16.55 19.6 L16.65 19.6 16.75 19.65 17.05 19.75 17.45 19.85 18.05 20.1 Q20.2 20.95 22.6 22.45 L25.3 23.9 25.5 23.5 25.1 23.2 22.1 21.45 21.65 21.15 20.4 20.5 20.2 20.35 20.5 20.45 22.5 21.25 23.5 21.75 24.35 22.0 24.35 21.95 24.25 21.75 Q24.2 21.4 20.75 19.85 L18.6 19.0 18.5 18.9 17.6 18.6 16.9 18.5 15.45 17.95 Q13.9 17.3 13.0 17.6 L13.65 17.95 12.2 17.4 11.95 17.3 11.65 17.2 11.55 17.15 9.5 16.35 9.55 16.25 9.35 16.2 9.4 16.05 9.0 15.9 9.05 15.75 9.65 16.0 9.75 15.95 11.9 16.75 Q15.3 17.95 16.4 17.7 L16.45 17.7 19.15 17.95 19.45 17.95 21.25 18.35 24.45 19.3 28.8 21.95 29.0 21.75 29.0 21.55 28.8 21.1 29.8 22.15 30.2 22.6 30.1 23.0 30.35 23.45 30.5 23.65 Q28.9 22.15 26.35 20.9 22.85 19.15 19.35 18.65 L19.3 18.8 22.05 19.8 M28.35 20.6 L28.35 20.7 28.1 20.5 28.35 20.6 M31.0 23.8 L31.4 24.5 31.45 24.65 30.6 23.75 30.85 23.85 31.0 23.8 M11.6 18.65 L10.25 18.1 10.2 18.3 Q10.4 18.7 17.4 21.2 19.45 21.9 21.15 22.75 L22.35 23.9 23.4 24.9 23.55 24.7 23.55 24.45 Q23.35 23.65 22.65 23.0 L22.6 22.95 Q18.8 19.8 11.6 18.45 L11.6 18.5 14.7 19.5 17.55 20.4 18.0 20.65 17.2 20.45 16.85 20.35 11.6 18.6 11.6 18.65 M27.2 22.9 L28.6 24.4 29.1 25.35 29.85 26.35 30.8 27.5 31.7 28.05 32.0 27.8 Q31.45 26.55 30.15 25.1 28.85 23.75 27.2 22.9 M16.6 17.25 L17.5 17.35 16.7 17.45 16.6 17.25 M32.95 27.25 L33.05 27.35 33.0 27.4 33.0 27.45 32.9 27.3 32.95 27.25 M26.95 29.55 L27.0 29.6 27.05 29.6 26.95 29.55 M22.8 34.95 L23.05 35.4 22.85 35.25 22.8 34.95" fill="#b9a379" fill-rule="evenodd" stroke="none"/>
      <path d="M23.55 20.25 L22.1 19.85 22.05 19.8 19.3 18.8 19.35 18.65 Q22.85 19.15 26.35 20.9 28.9 22.15 30.5 23.65 L30.6 23.75 31.45 24.65 31.4 24.5 31.0 23.8 31.05 23.65 30.95 23.3 30.2 22.6 29.8 22.15 28.8 21.1 28.55 20.9 28.4 20.7 28.35 20.7 28.35 20.6 31.05 22.95 32.25 24.7 32.3 24.75 32.75 25.35 32.75 25.6 32.65 25.65 32.7 25.75 32.75 25.8 32.65 25.85 32.75 26.3 30.1 23.85 28.1 22.4 25.85 20.8 Q24.0 19.75 22.1 19.3 L22.15 19.4 22.75 19.8 22.7 19.75 22.8 19.8 23.35 20.15 23.55 20.25 M22.8 20.15 Q23.9 20.5 24.8 21.05 L25.05 21.1 25.1 21.15 25.55 21.45 27.5 22.45 28.9 23.65 26.95 22.35 22.8 20.15 M23.5 21.75 L23.45 21.7 Q22.1 20.45 19.6 19.55 L17.85 19.0 17.6 18.85 18.65 19.1 18.6 19.0 20.75 19.85 Q24.2 21.4 24.25 21.75 L24.35 21.95 24.35 22.0 23.5 21.75 M11.65 17.2 L11.4 17.1 11.3 17.1 Q16.85 19.4 20.4 20.5 L21.65 21.15 22.1 21.45 18.35 19.85 9.55 16.65 9.5 16.95 16.55 19.6 Q11.8 18.15 9.35 17.15 L8.95 17.05 8.6 16.6 9.35 17.15 9.45 17.05 8.7 16.1 8.75 16.1 9.4 16.35 9.5 16.35 11.55 17.15 11.65 17.2 M25.1 23.2 L25.5 23.5 25.3 23.9 22.6 22.45 Q20.2 20.95 18.05 20.1 23.6 22.15 25.35 23.75 L25.45 23.5 25.1 23.2 M9.35 18.8 L9.5 18.95 9.5 19.05 12.2 20.65 12.25 20.9 12.05 21.0 11.6 21.05 12.45 21.45 14.05 22.2 15.25 22.1 15.3 22.1 15.45 22.15 16.35 22.7 15.6 22.4 14.5 22.3 14.6 22.4 15.8 22.7 16.45 22.9 16.55 22.85 17.05 23.1 16.9 23.2 14.45 22.45 Q17.25 24.05 19.6 26.7 L21.1 28.6 21.5 29.05 21.0 27.6 20.65 27.0 19.55 26.05 18.45 25.0 Q19.7 24.95 20.75 26.25 L21.05 26.55 22.95 28.85 25.05 32.4 25.15 31.9 23.7 28.3 23.1 27.3 21.4 24.45 21.6 24.5 23.15 27.05 23.25 27.25 24.5 29.6 25.3 31.15 25.65 32.3 25.75 32.95 25.25 33.15 25.05 33.05 24.6 32.5 24.65 32.15 23.2 29.9 21.1 26.9 21.05 26.95 21.1 27.15 20.1 25.8 20.05 25.8 20.1 26.05 18.9 25.2 18.75 25.2 19.6 25.85 20.15 26.3 20.2 26.2 21.85 29.05 Q22.5 30.4 22.85 32.1 L23.15 35.35 23.2 35.45 23.2 35.55 23.1 35.45 23.05 35.4 22.8 34.95 22.45 33.2 22.1 32.2 21.15 30.15 20.4 28.75 20.3 28.75 18.95 26.9 18.9 26.8 Q17.8 25.05 14.0 22.7 L9.75 20.05 9.75 20.0 8.3 18.75 8.75 19.0 10.35 19.95 10.35 19.75 Q9.5 19.35 8.8 18.8 L8.6 18.65 7.75 17.8 7.05 17.0 5.05 14.1 4.8 14.15 4.4 13.55 4.5 13.35 4.9 13.25 5.35 13.8 5.25 14.0 7.4 16.9 8.0 17.65 7.75 17.6 7.7 17.6 8.5 18.25 8.9 18.65 9.2 18.8 9.35 18.8 M22.0 24.8 L22.4 25.05 23.05 25.95 22.0 24.8 M26.2 31.05 L28.9 33.75 29.3 33.75 29.8 33.45 29.75 33.9 28.95 34.5 27.65 33.0 26.9 32.25 26.75 32.1 26.65 31.9 26.4 31.65 26.25 31.15 26.2 31.05 M29.45 32.2 L29.4 32.3 28.2 30.15 28.15 29.95 27.6 28.8 Q27.2 28.05 25.8 26.65 L24.65 25.5 25.7 25.45 25.95 25.75 26.05 25.85 26.1 26.1 25.85 25.8 25.7 25.9 25.75 25.95 25.2 25.7 25.15 25.85 25.9 26.4 27.65 28.7 29.1 31.5 29.1 31.45 29.35 31.95 29.45 32.2 M25.9 25.35 L24.7 24.05 24.75 23.95 Q26.75 24.6 28.35 27.1 29.55 29.05 30.65 29.9 L30.65 29.65 28.7 26.55 28.75 26.4 29.05 26.4 28.75 26.05 28.7 25.9 28.1 25.2 28.1 25.1 27.65 24.2 27.7 24.15 27.8 24.2 27.55 23.9 27.65 23.95 28.45 24.95 29.4 26.2 29.45 26.3 29.4 26.5 29.85 27.2 29.8 27.45 31.25 30.1 31.25 30.3 30.95 30.4 30.35 30.45 30.1 30.4 28.65 27.95 27.75 26.75 27.6 26.5 26.45 25.35 Q26.1 25.0 26.05 25.15 L25.9 25.35 M30.65 27.5 L32.85 29.65 32.75 29.3 Q32.5 27.9 31.25 26.2 L30.75 25.55 32.15 26.7 32.15 26.85 32.95 28.15 33.0 28.2 33.55 29.65 33.35 29.8 33.1 30.0 32.45 30.05 30.65 27.5 M22.65 23.0 Q23.35 23.65 23.55 24.45 L23.55 24.7 23.4 24.9 22.35 23.9 21.15 22.75 Q19.45 21.9 17.4 21.2 10.4 18.7 10.2 18.3 L10.25 18.1 11.6 18.65 11.6 18.9 18.1 21.05 Q22.25 22.55 23.05 24.6 L23.35 24.55 Q22.95 23.45 21.75 22.6 L22.6 23.05 22.65 23.0 M5.7 16.8 L5.7 16.7 5.7 16.65 6.0 16.95 6.0 17.0 5.75 16.85 5.7 16.8 M24.4 33.05 L24.35 32.9 24.4 33.0 24.4 33.05 M32.95 27.25 L33.05 27.25 33.05 27.35 32.95 27.25 M33.95 30.75 L34.05 31.15 33.6 30.9 33.95 30.75 M31.55 30.7 L31.6 30.95 31.35 30.8 31.55 30.7 M30.35 33.55 L30.45 33.7 30.4 33.85 30.35 33.55" fill="#ad9463" fill-rule="evenodd" stroke="none"/>
      <path d="M25.1 21.15 L26.6 21.9 27.5 22.45 25.55 21.45 25.1 21.15 M29.5 24.15 L29.45 24.15 28.15 22.65 27.95 22.45 Q25.3 20.15 22.8 19.8 L22.7 19.75 22.75 19.8 22.15 19.4 22.1 19.3 Q24.0 19.75 25.85 20.8 L28.1 22.4 30.1 23.85 32.75 26.3 32.65 25.85 32.95 26.35 33.05 26.7 33.05 27.25 32.95 27.25 32.9 27.3 32.35 26.5 30.95 25.1 30.9 25.15 Q31.5 25.65 32.15 26.7 L30.75 25.55 30.7 25.5 30.45 25.25 29.5 24.15 M32.7 25.75 L32.65 25.65 32.75 25.6 32.7 25.75 M20.5 20.45 L20.85 20.5 Q17.45 19.1 13.8 18.0 L13.75 18.0 13.65 17.95 13.0 17.6 Q13.9 17.3 15.45 17.95 L16.9 18.5 16.95 18.55 17.0 18.65 16.6 18.4 Q16.45 18.5 16.55 18.85 L18.3 19.4 20.25 20.05 17.85 19.0 19.6 19.55 Q22.1 20.45 23.45 21.7 L23.5 21.75 22.5 21.25 20.5 20.45 M21.6 24.5 L21.55 24.45 21.6 24.4 22.0 24.8 23.05 25.95 23.0 26.1 24.1 28.1 23.35 26.8 23.2 26.7 22.8 26.0 22.75 26.0 22.8 26.35 23.15 27.05 21.6 24.5 M29.8 33.45 L29.75 33.4 29.45 32.2 29.35 31.95 29.1 31.45 29.1 31.5 27.65 28.7 25.9 26.4 27.05 27.7 28.2 29.4 28.45 29.65 28.5 29.55 28.0 28.65 27.8 28.25 27.2 27.25 26.35 26.3 26.1 26.1 26.05 25.85 25.95 25.75 25.9 25.35 26.05 25.15 26.3 25.3 26.2 25.35 26.3 25.65 26.95 26.45 26.9 26.5 26.95 26.55 27.65 27.2 28.6 28.85 29.3 30.45 29.4 30.5 29.85 31.75 30.0 32.2 30.0 32.25 30.35 33.55 30.4 33.85 30.35 33.9 30.2 34.45 29.7 34.7 29.4 34.9 28.95 34.75 28.05 33.65 27.9 33.45 27.3 32.8 26.9 32.25 27.65 33.0 28.95 34.5 29.75 33.9 29.8 33.45 M6.85 18.1 L7.3 18.45 7.4 18.55 8.85 20.05 8.95 19.9 8.55 19.6 9.65 20.25 9.75 20.05 14.0 22.7 Q17.8 25.05 18.9 26.8 L18.95 26.9 16.3 24.55 Q14.45 23.1 11.65 21.9 L8.35 20.15 8.3 20.15 8.45 20.05 7.85 19.45 7.95 19.5 6.85 18.1 M20.1 26.05 L20.05 25.8 20.1 25.8 21.1 27.15 21.65 28.1 21.85 28.75 22.35 29.7 22.4 29.95 22.9 30.95 Q23.35 31.8 23.55 31.85 L23.65 32.0 24.35 32.9 24.4 33.05 24.45 33.1 24.6 33.5 24.7 33.95 23.95 32.8 23.8 33.0 23.55 33.8 23.65 33.95 23.5 34.55 23.3 35.3 23.3 35.4 23.2 35.45 23.15 35.35 22.85 32.1 Q22.5 30.4 21.85 29.05 L20.2 26.2 20.25 26.1 20.1 26.05 M25.25 33.15 L25.75 32.95 25.65 32.3 25.3 31.15 26.0 32.6 26.2 33.15 26.15 33.2 26.2 33.3 26.1 33.5 26.05 33.65 25.3 33.15 25.25 33.15 M33.55 29.65 L33.75 30.15 33.95 30.75 33.6 30.9 32.9 30.35 32.95 30.3 32.45 30.05 33.1 30.0 33.35 29.8 33.55 29.65 M29.85 27.2 L30.45 28.15 31.85 30.1 31.7 30.15 31.5 30.35 31.5 30.4 31.55 30.7 31.35 30.8 30.8 30.6 30.35 30.45 30.95 30.4 31.25 30.3 31.25 30.1 29.8 27.45 29.85 27.2" fill="#92794b" fill-rule="evenodd" stroke="none"/>
      <path d="M27.95 22.45 L26.65 21.55 Q25.2 20.75 23.6 20.25 L23.55 20.25 23.35 20.15 22.8 19.8 Q25.3 20.15 27.95 22.45 M28.35 20.7 L28.4 20.7 28.55 20.9 28.8 21.1 29.0 21.55 29.0 21.75 28.8 21.95 24.45 19.3 21.25 18.35 19.45 17.95 19.15 17.95 16.45 17.7 16.4 17.7 Q15.3 17.95 11.9 16.75 L9.75 15.95 9.7 15.6 8.75 15.25 10.45 15.55 11.35 15.95 12.9 16.55 13.75 16.55 16.6 17.25 16.7 17.45 17.5 17.35 18.8 17.45 Q21.35 17.8 23.75 18.5 25.3 18.95 26.75 19.7 L26.75 19.75 27.0 19.9 28.1 20.5 28.35 20.7 M30.2 22.6 L30.95 23.3 31.05 23.65 31.0 23.8 30.85 23.85 30.6 23.75 30.5 23.65 30.35 23.45 30.1 23.0 30.2 22.6 M13.65 17.95 L13.75 18.0 13.8 18.0 Q17.45 19.1 20.85 20.5 L20.5 20.45 20.2 20.35 20.4 20.5 Q16.85 19.4 11.3 17.1 L11.4 17.1 11.65 17.2 11.95 17.3 12.2 17.4 13.65 17.95 M17.0 18.65 L16.95 18.55 16.9 18.5 17.6 18.6 18.5 18.9 18.6 19.0 18.65 19.1 17.6 18.85 17.4 18.9 17.0 18.65 M15.3 22.1 L16.6 22.4 17.85 23.0 17.7 23.15 17.05 23.1 16.55 22.85 16.55 22.75 16.35 22.7 15.45 22.15 15.3 22.1 M22.4 25.05 L22.15 24.7 22.25 24.65 24.4 27.75 25.4 29.45 26.15 30.85 26.2 31.05 26.25 31.15 26.4 31.65 26.2 31.5 25.95 31.15 24.85 29.4 24.1 28.1 23.0 26.1 23.05 25.95 22.4 25.05 M29.4 32.3 L29.45 32.55 29.6 33.5 29.3 33.7 Q29.05 32.5 28.4 31.1 L27.0 28.7 26.9 28.45 26.5 27.85 26.55 27.8 26.9 28.2 26.8 28.05 26.95 28.05 28.15 29.95 28.2 30.15 29.4 32.3 M18.0 20.65 L17.55 20.4 14.7 19.5 11.6 18.5 11.6 18.45 Q18.8 19.8 22.6 22.95 L22.65 23.0 22.6 23.05 21.75 22.6 Q20.15 21.55 18.9 21.0 L18.3 20.75 18.15 20.7 18.1 20.65 18.0 20.65 M27.2 22.9 Q28.85 23.75 30.15 25.1 31.45 26.55 32.0 27.8 L31.7 28.05 30.8 27.5 29.85 26.35 29.1 25.35 28.6 24.4 27.2 22.9 M21.65 28.1 L21.1 27.15 21.05 26.95 21.1 26.9 23.2 29.9 24.65 32.15 24.6 32.5 24.55 32.45 24.45 32.15 23.55 31.05 22.75 29.6 21.8 28.0 21.65 28.1 M27.75 26.75 L26.3 25.3 26.05 25.15 Q26.1 25.0 26.45 25.35 L27.6 26.5 27.75 26.75 M25.75 25.95 L25.7 25.9 25.85 25.8 26.1 26.1 26.35 26.3 25.85 26.0 25.85 25.95 25.75 25.95" fill="#cdbda0" fill-rule="evenodd" stroke="none"/>
      <path d="M9.05 15.75 L9.0 15.9 8.05 15.35 9.05 15.75 M5.4 16.5 L5.45 16.4 5.7 16.65 5.7 16.7 5.7 16.8 5.65 16.8 5.4 16.5 M5.4 15.9 L5.15 15.3 5.5 15.8 5.5 15.85 5.75 16.15 5.4 15.9 M7.4 14.45 L7.05 14.2 6.2 13.8 6.1 13.8 Q6.35 14.45 7.5 15.05 L7.75 15.15 7.45 15.1 6.6 14.75 6.6 14.65 6.35 14.7 6.4 14.85 6.2 14.65 6.3 14.7 5.1 13.25 5.65 13.45 5.85 13.25 6.6 13.9 7.5 14.35 7.4 14.45 M7.85 19.45 L8.45 20.05 8.3 20.15 8.25 20.15 Q6.45 18.75 5.25 17.05 L4.9 16.3 Q5.15 16.85 6.1 17.8 L7.8 19.35 7.85 19.45" fill="#332b1a" fill-rule="evenodd" stroke="none"/>
      <path d="M3.8 11.9 L4.9 13.25 4.5 13.35 4.4 13.55 3.55 12.05 3.6 12.7 Q3.7 13.2 4.75 14.8 L5.15 15.3 5.4 15.9 5.35 15.9 5.3 16.1 5.45 16.4 5.4 16.5 4.65 15.25 4.5 15.3 4.55 15.55 4.55 15.7 2.95 11.3 2.95 11.25 2.9 11.0 3.5 11.55 3.8 11.9 M5.85 13.25 L5.65 13.45 5.1 13.25 4.2 12.15 Q4.8 12.45 5.85 13.25" fill="#221d11" fill-rule="evenodd" stroke="none"/>
      <path d="M7.65 16.55 L8.75 17.9 8.0 17.65 7.4 16.9 5.25 14.0 5.35 13.8 4.9 13.25 3.8 11.9 4.2 12.15 5.1 13.25 6.3 14.7 6.2 14.65 6.4 14.85 6.35 15.0 7.55 16.45 7.65 16.55 M9.4 18.7 L9.35 18.8 9.2 18.8 8.9 18.65 8.5 18.25 8.55 18.2 9.4 18.7 M9.75 15.95 L9.65 16.0 9.05 15.75 8.05 15.35 8.05 15.3 7.75 15.15 7.5 15.05 Q6.35 14.45 6.1 13.8 L6.2 13.8 7.05 14.2 7.4 14.45 7.55 14.6 7.7 14.75 7.95 14.85 8.45 15.15 8.55 15.15 8.75 15.25 9.7 15.6 9.75 15.95 M5.15 15.3 L4.75 14.8 Q3.7 13.2 3.6 12.7 L3.55 12.05 4.4 13.55 4.8 14.15 4.95 14.4 5.35 15.5 5.5 15.8 5.15 15.3" fill="#53462b" fill-rule="evenodd" stroke="none"/>
      <path d="M8.95 17.05 L9.8 17.7 9.6 17.95 Q9.05 18.0 7.75 16.6 L7.65 16.55 7.55 16.45 6.35 15.0 6.4 14.85 6.35 14.7 6.6 14.65 6.6 14.75 7.45 15.1 7.75 15.15 8.05 15.3 8.05 15.35 9.0 15.9 9.4 16.05 9.35 16.2 9.55 16.25 9.5 16.35 9.4 16.35 8.75 16.1 8.7 16.1 9.45 17.05 9.35 17.15 8.6 16.6 8.95 17.05 M8.75 17.9 L9.9 18.5 9.65 18.7 9.4 18.7 8.55 18.2 8.5 18.25 7.7 17.6 7.75 17.6 8.0 17.65 8.75 17.9 M5.45 16.4 L5.3 16.1 5.35 15.9 5.4 15.9 5.75 16.15 6.8 17.45 8.75 19.0 8.3 18.75 9.75 20.0 9.75 20.05 9.65 20.25 8.55 19.6 8.95 19.9 8.85 20.05 7.4 18.55 7.3 18.45 6.85 18.1 6.75 18.0 5.55 17.0 5.55 16.75 5.65 16.8 5.7 16.8 5.75 16.85 6.0 17.0 6.0 16.95 5.7 16.65 5.45 16.4 M7.5 14.35 L8.25 14.65 8.85 14.95 10.45 15.55 8.75 15.25 8.55 15.15 8.45 15.15 7.95 14.85 7.7 14.75 7.55 14.6 7.4 14.45 7.5 14.35" fill="#72603a" fill-rule="evenodd" stroke="none"/>
      <path d="M23.55 20.25 L23.6 20.25 Q25.2 20.75 26.65 21.55 L27.95 22.45 28.15 22.65 29.45 24.15 29.5 24.15 29.4 24.25 28.9 23.65 27.5 22.45 26.6 21.9 25.1 21.15 25.05 21.1 24.8 21.05 Q23.9 20.5 22.8 20.15 L22.05 19.95 22.05 19.8 22.1 19.85 23.55 20.25 M32.65 25.85 L32.75 25.8 32.7 25.75 32.75 25.6 32.75 25.35 32.3 24.75 32.25 24.7 31.05 22.95 28.35 20.6 28.1 20.5 27.0 19.9 26.75 19.75 26.75 19.7 Q25.3 18.95 23.75 18.5 21.35 17.8 18.8 17.45 L17.5 17.35 16.6 17.25 13.75 16.55 12.9 16.55 11.35 15.95 10.45 15.55 8.85 14.95 8.25 14.65 7.5 14.35 6.6 13.9 5.85 13.25 Q4.8 12.45 4.2 12.15 L3.8 11.9 3.5 11.55 2.9 11.0 2.95 11.25 2.95 11.3 4.55 15.7 4.55 15.55 4.5 15.3 4.65 15.25 5.4 16.5 5.65 16.8 5.55 16.75 5.55 17.0 6.75 18.0 6.85 18.1 7.95 19.5 7.85 19.45 7.8 19.35 6.1 17.8 Q5.15 16.85 4.9 16.3 L5.25 17.05 Q6.45 18.75 8.25 20.15 L8.3 20.15 8.35 20.15 11.65 21.9 Q14.45 23.1 16.3 24.55 L18.95 26.9 20.3 28.75 20.4 28.75 21.15 30.15 22.1 32.2 22.45 33.2 22.8 34.95 22.85 35.25 23.05 35.4 23.1 35.45 23.2 35.55 23.2 35.45 23.3 35.4 23.3 35.3 23.5 34.55 23.65 33.95 23.55 33.8 23.8 33.0 23.95 32.8 24.7 33.95 24.6 33.5 24.45 33.1 24.4 33.05 24.4 33.0 24.35 32.9 23.65 32.0 23.55 31.85 Q23.35 31.8 22.9 30.95 L22.4 29.95 22.35 29.7 21.85 28.75 21.65 28.1 21.8 28.0 22.75 29.6 23.55 31.05 24.45 32.15 24.55 32.45 24.6 32.5 25.05 33.05 25.25 33.15 25.3 33.15 26.05 33.65 26.1 33.5 26.2 33.3 26.15 33.2 26.2 33.15 26.0 32.6 25.3 31.15 24.5 29.6 23.25 27.25 23.15 27.05 22.8 26.35 22.75 26.0 22.8 26.0 23.2 26.7 23.35 26.8 24.1 28.1 24.85 29.4 25.95 31.15 26.2 31.5 26.4 31.65 26.65 31.9 26.75 32.1 26.9 32.25 27.3 32.8 27.9 33.45 28.05 33.65 28.95 34.75 29.4 34.9 29.7 34.7 30.2 34.45 30.35 33.9 30.4 33.85 30.45 33.7 30.35 33.55 30.0 32.25 30.0 32.2 29.85 31.75 29.4 30.5 29.3 30.45 28.6 28.85 27.65 27.2 26.95 26.55 26.9 26.5 26.95 26.45 26.3 25.65 26.2 25.35 26.3 25.3 27.75 26.75 28.65 27.95 30.1 30.4 30.35 30.45 30.8 30.6 31.35 30.8 31.6 30.95 31.55 30.7 31.5 30.4 31.5 30.35 31.7 30.15 31.85 30.1 30.45 28.15 29.85 27.2 29.4 26.5 29.45 26.3 29.45 26.25 30.65 27.5 32.45 30.05 32.95 30.3 32.9 30.35 33.6 30.9 34.05 31.15 33.95 30.75 33.75 30.15 33.55 29.65 33.0 28.2 32.95 28.15 32.15 26.85 32.15 26.7 Q31.5 25.65 30.9 25.15 L30.95 25.1 32.35 26.5 32.9 27.3 33.0 27.45 33.0 27.4 33.05 27.35 33.05 27.25 33.05 26.7 32.95 26.35 32.65 25.85 M17.85 19.0 L20.25 20.05 18.3 19.4 16.55 18.85 Q16.45 18.5 16.6 18.4 L17.0 18.65 17.4 18.9 17.6 18.85 17.85 19.0 M22.1 21.45 L25.1 23.2 25.45 23.5 25.35 23.75 Q23.6 22.15 18.05 20.1 L17.45 19.85 17.05 19.75 16.75 19.65 16.65 19.6 16.55 19.6 9.5 16.95 9.55 16.65 18.35 19.85 22.1 21.45 M11.6 18.65 L11.6 18.6 16.85 20.35 17.2 20.45 18.0 20.65 18.1 20.65 18.15 20.7 18.3 20.75 18.9 21.0 Q20.15 21.55 21.75 22.6 22.95 23.45 23.35 24.55 L23.05 24.6 Q22.25 22.55 18.1 21.05 L11.6 18.9 11.6 18.65 M2.3 9.7 Q2.6 9.7 8.15 13.05 L13.0 14.95 Q15.95 15.9 19.55 16.15 24.25 16.6 29.05 19.95 33.8 23.25 34.45 26.65 L34.7 28.5 34.4 28.7 Q34.65 29.95 35.6 32.1 L35.6 32.45 35.25 32.6 33.95 32.25 32.85 31.7 32.8 32.2 32.45 32.45 31.8 32.35 31.15 32.1 32.0 34.35 Q32.1 34.9 31.65 35.5 31.1 36.2 29.7 36.5 28.45 36.75 27.9 36.1 L27.35 35.05 26.85 35.55 26.15 35.5 25.75 35.2 Q25.7 35.95 24.75 36.1 L24.75 36.8 Q24.65 37.35 24.0 37.45 22.35 37.85 21.45 35.7 L20.9 33.2 Q20.75 32.95 20.9 32.85 L20.9 32.75 19.35 29.8 Q17.25 25.6 12.95 23.9 3.4 19.95 1.65 11.75 1.0 9.15 2.3 9.7 M8.75 19.0 L6.8 17.45 5.75 16.15 5.5 15.85 5.5 15.8 5.35 15.5 4.95 14.4 4.8 14.15 5.05 14.1 7.05 17.0 7.75 17.8 8.6 18.65 8.8 18.8 Q9.5 19.35 10.35 19.75 L10.35 19.95 8.75 19.0 M16.55 22.85 L16.45 22.9 15.8 22.7 14.6 22.4 14.5 22.3 15.6 22.4 16.35 22.7 16.55 22.75 16.55 22.85 M20.1 26.05 L20.25 26.1 20.2 26.2 20.15 26.3 19.6 25.85 18.75 25.2 18.9 25.2 20.1 26.05 M25.75 25.95 L25.85 25.95 25.85 26.0 26.35 26.3 27.2 27.25 27.8 28.25 28.0 28.65 28.5 29.55 28.45 29.65 28.2 29.4 27.05 27.7 25.9 26.4 25.15 25.85 25.2 25.7 25.75 25.95" fill="#000000" fill-rule="evenodd" stroke="none"/>
    </g>
    <g id="sprite3" transform="matrix(1.0, 0.0, 0.0, 1.0, 2.0, 2.0)">
      <use ffdec:characterId="660" height="52.8" transform="matrix(1.0, 0.0, 0.0, 1.0, -2.0, -2.0)" width="52.8" xlink:href="#shape2"/>
      <filter id="filter0">
        <feColorMatrix in="SourceGraphic" result="filterResult0" type="matrix" values="-0.4478073 0.6093048 0.8385024 0.0 0.043137252 0.45817715 0.644444 -0.1026212 0.0 0.043137252 -0.26456854 1.7206234 -0.45605487 0.0 0.043137256 0.0 0.0 0.0 1.0 0.0"/>
      </filter>
      <use ffdec:characterId="616" filter="url(#filter0)" height="18.9" transform="matrix(1.0, 0.0, 0.0, 1.0, -2.0, -2.0)" width="19.45" xlink:href="#sprite4"/>
    </g>
    <g id="shape2" transform="matrix(1.0, 0.0, 0.0, 1.0, 2.0, 2.0)">
      <path d="M40.8 -2.0 Q50.85 -2.0 50.8 7.65 L50.8 41.2 Q50.85 50.8 40.8 50.8 L8.05 50.8 Q-2.05 50.8 -2.0 41.2 L-2.0 7.65 Q-2.05 -2.0 8.05 -2.0 L40.8 -2.0 M45.6 15.95 L45.6 15.8 45.65 15.3 45.6 14.9 45.6 14.7 45.6 8.35 Q45.45 3.2 39.95 3.2 L8.85 3.2 Q3.25 3.2 3.2 8.5 L3.2 40.35 Q3.25 45.6 8.85 45.6 L39.95 45.6 Q45.55 45.6 45.6 40.35 L45.6 15.95" fill="#0f6995" fill-rule="evenodd" stroke="none"/>
      <path d="M40.8 -1.0 Q49.8 -1.0 49.8 7.65 L49.8 41.2 Q49.85 49.8 40.8 49.8 L8.05 49.8 Q-1.05 49.8 -1.0 41.2 L-1.0 7.65 Q-1.0 -1.0 8.05 -1.0 L40.8 -1.0 M46.6 15.9 L46.65 15.3 46.6 14.8 46.6 14.7 46.6 8.4 Q46.5 2.2 39.95 2.2 L8.85 2.2 Q2.2 2.2 2.2 8.5 L2.2 40.35 Q2.25 46.6 8.85 46.6 L39.95 46.6 Q46.55 46.6 46.6 40.35 L46.6 15.9" fill="url(#gradient1)" fill-rule="evenodd" stroke="none"/>
      <path d="M48.3 7.65 L48.3 41.2 Q48.3 44.75 46.55 46.6 44.6 48.3 40.8 48.3 L8.05 48.3 Q4.2 48.3 2.3 46.6 0.5 44.75 0.5 41.2 L0.5 7.65 Q0.5 4.05 2.3 2.25 4.2 0.5 8.05 0.5 L40.8 0.5 Q44.6 0.5 46.55 2.25 48.3 4.05 48.3 7.65 M45.65 15.3 L45.6 14.9 45.6 14.7 45.6 8.35 Q45.45 3.2 39.95 3.2 L8.85 3.2 Q3.25 3.2 3.2 8.5 L3.2 40.35 Q3.25 45.6 8.85 45.6 L39.95 45.6 Q45.55 45.6 45.6 40.35 L45.6 15.95 45.6 15.8 45.65 15.3" fill="url(#gradient2)" fill-rule="evenodd" stroke="none"/>
      <path d="M46.65 15.35 L46.6 15.85 46.6 15.95 46.6 40.35 Q46.55 46.6 39.95 46.6 L8.85 46.6 Q2.25 46.6 2.2 40.35 L2.2 8.5 Q2.25 2.2 8.85 2.2 L39.95 2.2 Q46.45 2.2 46.6 8.35 L46.6 14.75 46.6 14.85 46.65 15.25 46.65 15.35 M45.6 14.7 L45.6 8.35 Q45.45 3.2 39.95 3.2 L8.85 3.2 Q3.25 3.2 3.2 8.5 L3.2 40.35 Q3.25 45.6 8.85 45.6 L39.95 45.6 Q45.55 45.6 45.6 40.35 L45.6 15.95 45.6 15.8 45.65 15.3 45.6 14.9 45.6 14.7" fill="#0f6995" fill-rule="evenodd" stroke="none"/>
    </g>
    <linearGradient gradientTransform="matrix(0.0, -0.032, 1.0, -3.0E-4, -0.9, 24.4)" gradientUnits="userSpaceOnUse" id="gradient1" spreadMethod="pad" x1="-819.2" x2="819.2">
      <stop offset="0.0" stop-color="#0d87c1"/>
      <stop offset="1.0" stop-color="#bbe7fb"/>
    </linearGradient>
    <linearGradient gradientTransform="matrix(-2.0E-4, 0.0293, -0.031, -2.0E-4, 24.4, 24.4)" gradientUnits="userSpaceOnUse" id="gradient2" spreadMethod="pad" x1="-819.2" x2="819.2">
      <stop offset="0.0" stop-color="#0d87c1"/>
      <stop offset="1.0" stop-color="#bbe7fb"/>
    </linearGradient>
    <g id="sprite4" transform="matrix(1.0, 0.0, 0.0, 1.0, 0.0, 0.0)">
      <use ffdec:characterId="615" height="18.9" transform="matrix(1.0, 0.0, 0.0, 1.0, 0.0, 0.0)" width="19.45" xlink:href="#shape3"/>
    </g>
    <g id="shape3" transform="matrix(1.0, 0.0, 0.0, 1.0, 0.0, 0.0)">
      <path d="M1.0 18.9 L0.0 18.9 0.0 9.65 Q-0.05 0.0 10.05 0.0 L19.45 0.0 19.45 1.0 10.05 1.0 Q1.0 1.0 1.0 9.65 L1.0 18.9 M19.45 4.2 L19.45 5.2 10.85 5.2 Q5.25 5.2 5.2 10.5 L5.2 18.9 4.2 18.9 4.2 10.5 Q4.25 4.2 10.85 4.2 L19.45 4.2" fill="#7c6d01" fill-rule="evenodd" stroke="none"/>
      <path d="M19.45 1.0 L19.45 2.5 10.05 2.5 Q6.2 2.5 4.3 4.25 2.5 6.05 2.5 9.65 L2.5 18.9 1.0 18.9 1.0 9.65 Q1.0 1.0 10.05 1.0 L19.45 1.0" fill="url(#gradient3)" fill-rule="evenodd" stroke="none"/>
      <path d="M19.45 2.5 L19.45 4.2 10.85 4.2 Q4.25 4.2 4.2 10.5 L4.2 18.9 2.5 18.9 2.5 9.65 Q2.5 6.05 4.3 4.25 6.2 2.5 10.05 2.5 L19.45 2.5" fill="url(#gradient4)" fill-rule="evenodd" stroke="none"/>
    </g>
    <linearGradient gradientTransform="matrix(1.0E-4, -0.0295, 0.031, 2.0E-4, 26.4, 26.4)" gradientUnits="userSpaceOnUse" id="gradient3" spreadMethod="pad" x1="-819.2" x2="819.2">
      <stop offset="0.0" stop-color="#dcc001"/>
      <stop offset="1.0" stop-color="#fff3a4"/>
    </linearGradient>
    <linearGradient gradientTransform="matrix(1.0E-4, 0.0295, -0.031, 1.0E-4, 26.4, 26.4)" gradientUnits="userSpaceOnUse" id="gradient4" spreadMethod="pad" x1="-819.2" x2="819.2">
      <stop offset="0.0" stop-color="#dcc001"/>
      <stop offset="1.0" stop-color="#fff3a4"/>
    </linearGradient>
  </defs>
</svg>
