<?xml version="1.0" encoding="UTF-8" standalone="no"?>
<svg xmlns:ffdec="https://www.free-decompiler.com/flash" xmlns:xlink="http://www.w3.org/1999/xlink" ffdec:objectType="frame" height="25.2px" width="19.95px" xmlns="http://www.w3.org/2000/svg">
  <g transform="matrix(1.0, 0.0, 0.0, 1.0, 19.95, 0.0)">
    <use ffdec:characterId="890" height="3.6" transform="matrix(7.0, 0.0, 0.0, 7.0, -19.95, 0.0)" width="2.85" xlink:href="#shape0"/>
  </g>
  <defs>
    <g id="shape0" transform="matrix(1.0, 0.0, 0.0, 1.0, 2.85, 0.0)">
      <path d="M-0.25 0.1 Q-0.1 0.2 -0.1 0.35 L-0.05 0.65 Q-0.1 0.8 -0.2 0.9 -0.05 0.9 -0.05 1.15 0.0 1.25 0.0 1.3 0.0 1.55 -0.15 1.7 -0.25 1.8 -0.3 1.85 L-0.5 1.85 -0.35 1.9 -0.4 1.9 -0.35 1.95 Q-0.25 2.0 -0.25 2.1 -0.15 2.5 -0.5 2.7 L-0.55 2.7 -0.75 2.75 Q-0.7 2.85 -0.65 2.95 -0.65 3.05 -0.75 3.2 -0.85 3.45 -1.1 3.5 L-1.4 3.5 -1.5 3.45 Q-1.6 3.55 -1.75 3.6 L-2.05 3.55 Q-2.2 3.55 -2.25 3.35 L-2.25 3.25 Q-2.3 3.3 -2.45 3.35 -2.6 3.4 -2.7 3.3 L-2.85 3.15 Q-2.85 3.05 -2.8 2.95 L-2.75 2.95 Q-2.7 2.8 -2.6 2.85 L-2.55 2.9 -2.45 2.9 -2.35 2.95 -2.25 3.1 -2.2 3.2 -2.05 3.05 Q-1.7 2.95 -1.55 3.1 L-1.55 3.05 -1.5 3.0 -1.25 2.8 -1.05 2.75 -0.95 2.75 -1.0 2.55 Q-1.0 2.4 -0.95 2.25 -0.9 2.05 -0.75 1.95 L-0.7 1.9 -0.6 1.85 -0.55 1.85 Q-0.7 1.8 -0.7 1.65 L-0.7 1.5 Q-0.7 1.3 -0.6 1.1 L-0.5 0.9 Q-0.6 0.9 -0.7 0.8 -0.8 0.65 -0.7 0.65 L-0.75 0.55 -0.8 0.5 Q-1.15 0.1 -0.75 0.05 L-0.6 0.05 -0.6 0.0 Q-0.35 -0.05 -0.25 0.1 M-0.7 0.1 L-0.8 0.15 Q-0.8 0.35 -0.65 0.5 L-0.45 0.75 Q-0.35 0.75 -0.35 0.7 -0.3 0.65 -0.3 0.5 -0.35 0.25 -0.55 0.2 L-0.7 0.1 M-0.3 1.05 L-0.35 1.05 Q-0.4 1.05 -0.45 1.25 L-0.5 1.45 -0.5 1.6 -0.4 1.7 -0.3 1.65 -0.3 1.55 -0.25 1.55 -0.25 1.5 -0.2 1.4 -0.2 1.15 Q-0.25 1.1 -0.3 1.05 M-1.85 3.45 L-1.8 3.45 Q-1.75 3.45 -1.7 3.45 L-1.65 3.4 -1.65 3.35 -1.75 3.25 -1.8 3.25 -1.95 3.2 Q-2.05 3.25 -2.05 3.35 L-1.85 3.45 M-2.55 3.05 L-2.6 3.1 -2.6 3.15 -2.45 3.15 -2.45 3.1 -2.5 3.05 -2.55 3.05 M-0.7 2.2 L-0.7 2.25 -0.75 2.3 Q-0.8 2.35 -0.75 2.45 -0.75 2.65 -0.6 2.45 L-0.55 2.45 -0.45 2.3 Q-0.4 2.2 -0.45 2.15 L-0.45 2.05 -0.5 2.05 -0.55 2.1 Q-0.65 2.1 -0.7 2.2 M-0.95 2.95 L-1.15 2.95 Q-1.2 3.0 -1.25 3.05 L-1.35 3.1 Q-1.4 3.15 -1.35 3.2 -1.35 3.4 -1.15 3.3 L-1.0 3.2 -0.85 3.0 -0.9 2.95 -0.95 2.95" fill="#111111" fill-rule="evenodd" stroke="none"/>
      <path d="M-0.3 1.05 Q-0.25 1.1 -0.2 1.15 L-0.2 1.4 -0.25 1.5 -0.25 1.55 -0.3 1.55 -0.3 1.65 -0.4 1.7 -0.5 1.6 -0.5 1.45 -0.45 1.25 Q-0.4 1.05 -0.35 1.05 L-0.3 1.05 M-0.7 0.1 L-0.55 0.2 Q-0.35 0.25 -0.3 0.5 -0.3 0.65 -0.35 0.7 -0.35 0.75 -0.45 0.75 L-0.65 0.5 Q-0.8 0.35 -0.8 0.15 L-0.7 0.1 M-2.55 3.05 L-2.5 3.05 -2.45 3.1 -2.45 3.15 -2.6 3.15 -2.6 3.1 -2.55 3.05 M-1.85 3.45 L-2.05 3.35 Q-2.05 3.25 -1.95 3.2 L-1.8 3.25 -1.75 3.25 -1.65 3.35 -1.65 3.4 -1.7 3.45 Q-1.75 3.45 -1.8 3.45 L-1.85 3.45 M-0.95 2.95 L-0.9 2.95 -0.85 3.0 -1.0 3.2 -1.15 3.3 Q-1.35 3.4 -1.35 3.2 -1.4 3.15 -1.35 3.1 L-1.25 3.05 Q-1.2 3.0 -1.15 2.95 L-0.95 2.95 M-0.7 2.2 Q-0.65 2.1 -0.55 2.1 L-0.5 2.05 -0.45 2.05 -0.45 2.15 Q-0.4 2.2 -0.45 2.3 L-0.55 2.45 -0.6 2.45 Q-0.75 2.65 -0.75 2.45 -0.8 2.35 -0.75 2.3 L-0.7 2.25 -0.7 2.2" fill="#faffd2" fill-rule="evenodd" stroke="none"/>
    </g>
  </defs>
</svg>
