<?xml version="1.0" encoding="UTF-8" standalone="no"?>
<svg xmlns:ffdec="https://www.free-decompiler.com/flash" xmlns:xlink="http://www.w3.org/1999/xlink" ffdec:objectType="frame" height="183.75px" width="229.95px" xmlns="http://www.w3.org/2000/svg">
  <g transform="matrix(1.0, 0.0, 0.0, 1.0, 201.25, 131.25)">
    <use ffdec:characterId="1325" height="23.4" transform="matrix(7.0, 0.0, 0.0, 7.0, -201.25, -128.8)" width="32.45" xlink:href="#shape0"/>
  </g>
  <defs>
    <g id="shape0" transform="matrix(1.0, 0.0, 0.0, 1.0, 28.75, 18.4)">
      <path d="M0.75 -8.05 L0.7 -8.05 0.4 -7.6 0.35 -7.5 0.45 -7.35 0.45 -6.9 0.4 -6.9 0.35 -6.85 0.05 -6.85 0.05 -6.7 -0.05 -5.8 -0.1 -4.9 -0.15 -4.45 -0.25 -4.0 -0.25 -3.55 Q-0.25 -3.2 -0.35 -3.05 -0.4 -2.9 -0.75 -2.6 L-0.75 -2.55 -1.15 -2.1 -1.4 -1.75 -0.25 -1.05 0.25 -1.1 0.55 -1.2 0.6 -1.25 0.6 -1.2 0.65 -1.2 Q0.7 -1.2 0.7 -1.0 0.7 -0.85 0.2 0.05 -0.25 0.85 -0.45 1.1 L-0.45 1.15 -0.5 1.15 -0.7 1.1 -0.75 1.1 -0.75 1.05 -0.85 0.65 -1.75 0.25 -2.55 0.65 Q-3.0 0.9 -3.2 1.25 -3.35 1.5 -3.4 1.9 L-3.55 2.55 -3.6 2.6 Q-4.25 2.9 -5.4 3.6 -6.7 4.45 -7.15 5.0 L-7.5 5.0 Q-8.9 4.0 -8.9 3.95 L-8.8 3.55 -8.75 3.2 Q-8.75 3.1 -8.9 2.5 L-9.0 2.0 -9.05 2.0 Q-9.45 1.6 -9.5 1.15 L-9.55 0.3 -9.55 -0.5 Q-9.55 -0.65 -9.65 -0.9 -9.85 -1.15 -9.8 -1.2 -9.85 -1.35 -9.55 -1.65 L-9.25 -1.9 -9.05 -2.15 -9.05 -2.4 Q-9.05 -2.75 -9.1 -2.95 -9.2 -3.1 -9.55 -3.3 -9.65 -3.35 -9.7 -3.45 L-9.75 -3.5 -9.7 -3.5 -9.7 -3.6 Q-9.7 -3.8 -9.85 -3.95 L-10.25 -4.2 Q-10.65 -4.4 -10.95 -4.45 L-11.0 -4.5 -11.4 -4.5 -11.5 -4.45 -11.7 -4.45 -11.85 -4.4 -12.45 -4.1 -12.7 -4.1 -12.7 -4.15 -13.0 -4.35 Q-13.55 -4.45 -13.75 -4.25 L-13.8 -4.25 -13.9 -4.1 -13.9 -4.05 Q-14.0 -3.95 -14.15 -3.95 L-14.4 -4.0 -14.75 -4.1 -14.8 -4.15 Q-14.95 -4.35 -15.3 -4.7 L-15.8 -5.2 -15.8 -6.15 -15.75 -6.2 -15.45 -6.1 -15.3 -6.15 Q-15.0 -6.4 -14.75 -6.7 -14.45 -7.05 -14.45 -7.2 -14.45 -7.55 -14.75 -8.1 -15.1 -8.7 -15.3 -8.7 L-15.4 -8.7 Q-15.45 -8.7 -15.45 -8.9 -15.5 -9.15 -14.8 -9.45 -14.1 -9.7 -13.95 -9.8 L-13.9 -9.8 -13.45 -9.75 -13.2 -9.7 -12.45 -9.8 -11.55 -9.85 -11.5 -9.85 Q-10.95 -9.2 -10.95 -8.65 -10.95 -8.6 -11.05 -8.3 L-11.15 -8.15 -11.1 -8.0 -11.1 -7.9 -11.15 -7.9 -11.15 -7.85 -11.05 -7.65 Q-10.9 -7.45 -10.75 -7.35 -10.55 -7.45 -10.35 -7.65 L-10.0 -8.25 -9.95 -8.25 -9.4 -8.3 -9.35 -8.3 Q-8.5 -8.7 -8.3 -9.7 L-8.2 -10.6 Q-8.1 -11.15 -7.95 -11.45 L-7.95 -11.5 -7.9 -11.5 Q-7.55 -11.6 -7.0 -11.75 L-6.0 -12.05 Q-5.7 -12.1 -5.4 -12.3 -5.15 -12.45 -5.05 -12.5 L-5.0 -12.55 -4.8 -12.5 Q-4.65 -12.4 -4.5 -12.2 L-4.25 -11.8 -4.25 -11.85 Q-3.85 -11.4 -2.8 -11.3 L-2.75 -11.25 -2.75 -10.5 Q-2.7 -10.1 -2.35 -9.9 L-2.35 -9.85 -2.05 -9.55 Q-1.75 -9.25 -1.6 -8.95 -1.55 -8.8 -1.4 -8.2 L-1.3 -7.6 Q-1.3 -7.35 -1.45 -6.75 -1.6 -6.15 -1.6 -5.9 -1.6 -5.6 -2.05 -5.4 L-2.65 -5.15 Q-3.2 -4.7 -3.3 -4.45 L-3.3 -4.35 -3.35 -3.9 -3.35 -3.75 -3.45 -3.15 -3.4 -3.1 -3.4 -2.95 -3.3 -2.95 -3.25 -2.9 -3.15 -2.85 -3.1 -2.85 -1.6 -1.9 -1.25 -2.35 Q-0.55 -3.15 -0.55 -3.25 -0.45 -3.45 -0.45 -3.7 -0.35 -3.7 -0.4 -3.75 L-0.4 -4.15 -0.3 -5.05 Q-0.25 -5.3 -0.25 -5.95 -0.25 -6.6 -0.1 -6.9 L-0.05 -7.05 0.0 -7.05 0.0 -7.1 -0.05 -7.15 0.0 -7.25 Q0.1 -7.55 0.3 -7.85 L1.15 -8.7 Q1.45 -8.65 1.6 -8.5 1.75 -8.45 2.45 -8.35 L2.5 -8.35 Q2.75 -8.0 2.8 -7.4 2.9 -6.65 2.95 -6.45 3.1 -6.0 3.2 -5.45 3.2 -5.4 3.4 -5.0 3.6 -4.55 3.6 -4.5 L3.55 -4.25 3.55 -4.2 3.65 -4.05 3.7 -4.05 3.7 -4.0 3.6 -3.9 Q3.55 -3.9 3.55 -3.95 L3.4 -4.1 3.3 -4.1 3.25 -4.15 3.25 -4.35 3.3 -4.35 3.3 -4.5 3.15 -4.95 Q3.0 -5.35 2.95 -5.45 2.95 -5.8 2.75 -6.4 2.7 -6.55 2.6 -7.35 2.55 -7.9 2.35 -8.15 1.9 -8.05 1.55 -8.25 L1.3 -8.45 Q1.05 -8.45 0.75 -8.05 M0.25 -7.25 L0.15 -7.25 0.15 -7.15 0.05 -7.05 0.2 -7.05 0.25 -7.1 0.25 -7.25 M-25.45 -17.9 L-25.45 -18.05 Q-25.15 -18.25 -24.95 -18.35 L-24.55 -18.35 Q-24.4 -18.3 -24.4 -18.05 L-24.4 -17.95 -24.45 -17.9 -24.5 -17.9 -24.55 -17.95 -24.75 -18.1 Q-24.95 -18.05 -25.2 -17.9 L-25.45 -17.9 M-28.4 -12.3 Q-28.55 -11.8 -28.55 -11.55 L-28.55 -11.5 -28.75 -11.5 -28.75 -11.95 -28.65 -12.15 Q-28.6 -12.3 -28.5 -12.35 L-28.4 -12.35 -28.4 -12.3 M-9.15 -15.15 L-9.1 -15.1 Q-8.95 -14.85 -8.7 -14.05 L-8.7 -14.0 Q-8.8 -13.85 -8.9 -13.85 L-8.95 -13.85 -8.95 -13.9 Q-8.95 -14.25 -9.15 -14.55 -9.25 -14.8 -9.35 -14.85 L-9.6 -14.85 -9.65 -14.8 -9.85 -14.85 -9.9 -14.9 -9.9 -14.95 -9.85 -14.95 -9.65 -15.1 -9.45 -15.15 -9.4 -15.2 -9.2 -15.15 -9.15 -15.15 M-20.8 -17.5 L-20.75 -17.5 -20.75 -17.4 Q-20.75 -17.3 -20.8 -17.3 L-20.85 -17.25 -21.0 -17.4 -21.0 -17.45 Q-21.1 -17.4 -21.15 -17.35 L-21.2 -17.3 -21.3 -17.3 -21.3 -17.45 Q-21.3 -17.65 -21.2 -17.65 L-21.15 -17.65 -21.15 -17.7 -20.9 -17.65 -20.85 -17.65 -20.85 -17.6 -20.8 -17.5 M-18.0 -17.3 L-18.1 -17.15 -18.1 -17.2 Q-18.15 -17.0 -18.2 -16.95 L-18.25 -16.9 -18.3 -16.9 Q-18.4 -16.85 -18.4 -17.05 -18.4 -17.2 -18.25 -17.35 -18.15 -17.55 -18.1 -17.6 L-18.05 -17.65 Q-17.95 -17.65 -17.9 -17.55 -17.7 -17.6 -17.45 -17.55 L-17.05 -17.55 -16.85 -17.5 -16.8 -17.5 -16.75 -17.45 -16.75 -17.25 -16.85 -17.2 -16.95 -17.2 -16.95 -17.3 Q-17.25 -17.25 -17.35 -17.3 L-17.6 -17.35 -17.75 -17.35 -18.0 -17.3 M-15.0 -16.2 L-14.8 -16.15 -14.75 -16.1 -14.75 -16.05 Q-14.95 -15.8 -15.55 -15.45 -15.8 -15.3 -15.85 -15.15 -15.85 -14.9 -15.9 -14.8 L-15.95 -14.75 -16.0 -14.75 -16.0 -14.8 Q-16.1 -14.9 -16.05 -15.0 L-16.35 -15.05 -16.4 -15.1 -16.4 -15.15 -16.35 -15.2 -15.75 -15.65 Q-15.35 -16.0 -15.05 -16.15 L-15.0 -16.2 M-13.0 -16.45 L-13.15 -16.5 -13.85 -16.45 -14.1 -16.4 -14.15 -16.4 -14.15 -16.45 -14.2 -16.45 -14.15 -16.5 -14.15 -16.55 -14.2 -16.55 Q-14.25 -16.6 -14.25 -16.65 L-14.2 -16.75 -14.15 -16.75 -13.75 -16.9 -13.65 -16.85 -13.6 -16.8 -13.6 -16.75 -13.55 -16.8 -13.5 -16.8 -12.75 -16.65 -12.7 -16.65 -12.55 -16.35 -12.55 -16.25 Q-12.65 -16.25 -12.75 -16.3 L-12.85 -16.45 -13.0 -16.45 M-12.3 -16.2 Q-12.3 -16.25 -12.25 -16.3 L-11.9 -16.3 -11.9 -16.25 -11.8 -15.8 -11.85 -15.75 -11.85 -15.7 -12.0 -15.7 -12.15 -15.9 -12.2 -16.1 -12.25 -16.1 -12.3 -16.15 -12.3 -16.2 M-15.15 -8.9 Q-14.85 -8.8 -14.75 -8.55 -14.6 -8.2 -14.5 -8.1 -14.45 -8.0 -14.3 -7.6 -14.2 -7.2 -14.2 -7.15 -14.2 -6.95 -14.65 -6.45 L-15.2 -5.9 -15.55 -5.95 -15.6 -6.0 -15.6 -5.4 Q-14.9 -4.7 -14.65 -4.35 L-14.35 -4.25 -14.2 -4.25 Q-14.05 -4.25 -14.0 -4.35 -13.9 -4.5 -13.75 -4.55 L-13.2 -4.6 -12.9 -4.6 -12.85 -4.55 -12.6 -4.35 -12.25 -4.55 -12.15 -4.65 Q-12.2 -4.7 -12.15 -4.8 -12.15 -4.85 -12.15 -4.95 L-12.15 -5.05 Q-12.6 -4.95 -12.75 -5.25 L-13.25 -5.3 Q-13.3 -5.3 -13.3 -5.35 L-13.3 -5.4 Q-13.35 -5.6 -13.5 -6.05 L-13.55 -6.2 Q-13.75 -6.5 -13.75 -6.7 -13.75 -6.9 -13.6 -7.2 -13.45 -7.5 -13.3 -7.55 L-13.3 -7.7 Q-13.35 -7.85 -12.9 -8.4 L-12.4 -9.0 -12.35 -9.05 -12.05 -8.75 Q-11.9 -8.55 -11.75 -8.55 L-11.6 -8.6 Q-11.5 -8.7 -11.4 -8.7 L-11.35 -8.65 -11.25 -8.45 -11.2 -8.65 Q-11.2 -8.75 -11.4 -9.15 -11.55 -9.55 -11.65 -9.65 L-12.55 -9.55 -13.6 -9.6 -14.55 -9.3 Q-14.95 -9.1 -15.15 -8.9 M-13.2 -7.25 L-13.35 -7.05 -13.5 -6.8 -13.5 -6.75 Q-13.45 -6.5 -13.3 -6.15 L-13.25 -6.1 Q-13.1 -5.9 -12.95 -5.8 L-12.85 -5.75 -12.8 -5.75 -12.75 -6.25 Q-12.75 -6.6 -13.0 -7.05 L-13.15 -7.25 -13.2 -7.25 M-13.05 -7.7 L-13.0 -7.7 Q-12.95 -7.7 -12.95 -7.65 L-12.95 -7.5 Q-12.85 -7.35 -12.75 -7.05 L-12.55 -6.5 -12.55 -6.6 Q-12.55 -6.75 -12.65 -7.15 -12.75 -7.6 -12.75 -7.8 -12.75 -7.95 -12.6 -8.2 L-12.55 -8.4 Q-12.5 -8.55 -12.4 -8.55 L-12.3 -8.55 -12.3 -8.6 -12.35 -8.75 Q-13.05 -7.95 -13.1 -7.7 L-13.05 -7.7 M-12.15 -8.4 Q-12.3 -8.35 -12.35 -8.2 L-12.35 -8.0 Q-12.35 -7.85 -12.1 -6.95 L-12.0 -6.45 Q-11.9 -6.15 -11.7 -6.0 L-11.6 -6.25 -11.45 -6.35 -11.5 -6.55 Q-11.45 -6.9 -11.5 -7.15 L-11.65 -7.35 Q-11.8 -7.65 -11.8 -7.85 -11.8 -8.15 -11.6 -8.15 L-11.55 -8.15 -11.55 -8.1 Q-11.55 -8.05 -11.6 -8.0 L-11.6 -7.9 Q-11.6 -7.75 -11.5 -7.6 L-10.95 -7.05 -10.9 -7.1 -10.9 -7.15 -10.85 -7.2 -10.9 -7.2 -10.95 -7.25 Q-11.1 -7.35 -11.25 -7.5 -11.4 -7.75 -11.4 -7.95 L-11.4 -8.0 -11.45 -8.25 Q-11.55 -8.4 -11.8 -8.35 L-11.9 -8.35 Q-11.9 -8.45 -12.0 -8.45 L-12.1 -8.5 -12.1 -8.45 Q-12.1 -8.4 -12.15 -8.4 M-18.5 -7.15 L-18.45 -7.1 -18.5 -7.05 -19.0 -6.6 Q-19.35 -6.3 -19.25 -6.2 L-19.25 -6.1 -19.3 -6.1 -19.35 -6.05 -19.4 -6.05 -19.5 -6.15 -19.55 -6.35 Q-19.55 -6.5 -19.15 -6.85 -18.75 -7.25 -18.5 -7.15 M-19.15 -5.85 L-19.2 -5.55 -19.2 -5.5 -19.35 -5.5 -19.4 -5.55 -19.4 -5.9 -19.35 -5.95 -19.15 -5.95 -19.15 -5.9 -19.1 -5.9 -19.15 -5.85 M-22.4 -5.45 Q-22.4 -5.6 -22.35 -5.6 -22.25 -5.65 -22.2 -5.5 -21.8 -5.0 -21.5 -4.3 L-21.1 -4.25 -21.1 -4.2 -20.6 -3.85 -20.55 -3.85 -20.55 -3.75 -20.6 -3.7 Q-20.7 -3.7 -20.9 -3.8 -21.1 -3.9 -21.2 -4.0 L-21.6 -4.05 -21.65 -4.05 -21.65 -4.1 Q-21.8 -4.45 -22.4 -5.4 L-22.4 -5.45 M-18.7 -3.35 L-18.55 -3.15 -18.35 -2.95 -18.35 -2.85 -18.45 -2.85 -18.65 -3.0 -18.8 -3.15 -19.0 -3.05 -18.95 -3.05 -18.95 -2.6 -19.0 -2.55 -19.05 -2.55 -19.1 -2.5 -19.1 -2.45 -19.15 -2.45 -19.35 -2.5 -19.4 -2.55 Q-19.45 -2.65 -19.6 -2.9 -19.75 -3.1 -19.75 -3.25 -19.75 -3.55 -19.55 -3.5 L-19.5 -3.5 -19.5 -3.45 Q-19.45 -3.45 -19.5 -3.35 L-19.55 -3.25 Q-19.55 -3.15 -19.4 -3.05 -19.25 -2.9 -19.2 -2.7 L-19.2 -2.95 -19.3 -3.05 -19.3 -3.15 -19.05 -3.4 -19.0 -3.4 -18.75 -3.35 -18.7 -3.35 M-18.0 -2.4 L-17.9 -2.45 -17.85 -2.45 -17.85 -2.4 -17.75 -2.25 -17.75 -2.15 -17.8 -2.15 -17.85 -2.1 -17.9 -2.1 -17.95 -2.15 Q-18.05 -2.25 -18.05 -2.35 L-18.0 -2.4 M-13.25 -5.75 L-13.2 -5.8 -13.25 -5.85 -13.25 -5.75 M-14.3 -3.95 L-14.3 -3.9 -14.25 -3.9 -14.25 -3.85 Q-14.35 -3.7 -14.35 -3.45 -14.35 -3.3 -14.45 -3.25 L-14.55 -3.2 -15.15 -3.2 -15.2 -3.25 -15.15 -3.3 -15.1 -3.4 -15.05 -3.45 Q-14.6 -3.4 -14.5 -3.55 L-14.5 -3.7 Q-14.5 -3.85 -14.35 -3.95 L-14.3 -3.95 M-15.85 -2.7 L-15.85 -2.6 -16.0 -2.45 Q-16.1 -2.4 -16.25 -2.35 L-16.3 -2.3 -16.45 -2.35 -16.5 -2.35 -16.55 -2.4 -16.55 -2.45 -16.5 -2.45 Q-16.0 -2.75 -15.9 -2.75 L-15.85 -2.7 M-4.9 -12.3 L-5.95 -11.8 -6.0 -11.8 -6.9 -11.55 -7.2 -11.4 Q-7.45 -11.3 -7.8 -11.3 -8.0 -10.95 -8.05 -10.5 -8.05 -9.9 -8.1 -9.55 -8.2 -9.0 -8.5 -8.7 -8.75 -8.4 -9.3 -8.15 L-9.35 -8.2 -9.4 -8.15 -9.85 -8.0 -10.2 -7.45 Q-10.35 -7.2 -10.65 -7.1 L-10.6 -6.8 -10.55 -6.65 -10.5 -6.65 -10.45 -6.6 Q-10.4 -6.45 -9.9 -6.15 -9.35 -5.8 -9.2 -5.8 -9.1 -5.8 -8.55 -6.2 L-8.55 -6.25 -7.95 -6.7 Q-7.8 -6.7 -7.7 -6.6 L-7.5 -6.5 Q-6.35 -6.85 -5.45 -7.45 -4.45 -8.2 -4.45 -8.9 L-4.45 -8.95 -4.55 -9.0 -4.6 -9.0 -4.6 -9.1 -4.55 -9.1 Q-3.95 -9.4 -2.75 -9.8 L-2.75 -9.95 Q-2.9 -10.15 -2.95 -10.45 L-2.95 -11.1 Q-4.05 -11.25 -4.3 -11.65 L-4.6 -12.05 Q-4.8 -12.3 -4.9 -12.3 M-3.65 -9.25 Q-4.2 -9.05 -4.25 -8.85 -4.25 -8.6 -4.45 -8.25 -4.65 -7.85 -4.9 -7.65 L-5.45 -7.2 Q-6.0 -6.75 -6.35 -6.7 L-6.7 -6.55 -6.6 -6.15 -6.55 -5.8 Q-6.15 -5.9 -5.75 -5.65 -5.4 -5.45 -5.2 -5.15 -5.1 -5.05 -5.05 -4.8 -4.9 -4.4 -4.9 -4.05 L-4.9 -4.0 -4.85 -4.0 -4.85 -3.95 -4.2 -4.35 -3.8 -4.75 -3.7 -4.95 Q-3.55 -5.5 -3.55 -5.6 -3.6 -5.8 -3.85 -6.35 L-4.2 -7.05 Q-4.2 -7.2 -4.0 -7.75 L-3.75 -8.4 -3.75 -8.35 -3.65 -9.0 -3.6 -9.25 -3.65 -9.25 M-3.25 -9.3 Q-3.35 -9.2 -3.95 -7.15 L-3.65 -6.5 Q-3.3 -5.8 -3.3 -5.6 L-3.35 -5.2 -3.3 -5.1 Q-3.05 -5.3 -3.0 -5.6 L-3.0 -5.65 -2.95 -5.65 Q-2.1 -6.0 -1.75 -6.75 L-1.65 -6.9 -1.55 -7.55 Q-1.55 -7.75 -1.6 -7.9 L-1.6 -8.0 -1.55 -8.0 -1.6 -8.2 Q-1.65 -8.6 -1.75 -8.75 -1.85 -9.05 -2.2 -9.35 L-2.5 -9.6 -3.25 -9.35 -3.25 -9.3 M-7.2 -6.35 L-7.65 -6.3 -7.85 -6.35 Q-8.05 -6.35 -8.5 -5.95 L-9.05 -5.5 -8.85 -5.3 -8.75 -5.25 -7.85 -5.2 -7.8 -5.15 Q-7.6 -5.1 -7.35 -4.8 L-7.1 -4.45 -7.05 -4.35 -6.95 -4.35 -6.75 -4.4 Q-6.3 -4.4 -6.25 -4.15 L-6.2 -3.95 -6.2 -4.0 -6.1 -4.0 -6.1 -4.05 -6.05 -4.05 -5.45 -4.55 -5.45 -5.1 Q-5.55 -5.15 -5.65 -5.25 L-5.7 -5.4 Q-5.85 -5.5 -6.6 -5.5 L-6.65 -5.5 -6.65 -5.55 -6.9 -6.5 -7.2 -6.35 M-7.7 -4.6 L-7.55 -4.6 Q-7.75 -4.85 -7.9 -4.95 L-8.55 -4.95 -8.75 -5.0 -8.85 -4.95 -9.25 -4.95 -9.2 -4.9 -8.35 -4.8 -7.7 -4.6 M-6.1 -3.95 L-6.15 -4.0 -6.15 -3.95 -6.1 -3.95 -6.1 -3.95 M-9.45 -5.0 L-9.45 -4.95 -9.4 -4.95 -9.45 -5.0 M-9.55 -3.55 L-9.55 -3.5 -9.45 -3.6 -9.55 -3.55 M-9.2 -3.65 L-9.2 -3.6 -9.3 -3.45 -9.2 -3.45 -9.15 -3.4 -9.1 -3.4 Q-9.1 -3.3 -9.0 -3.15 L-8.8 -2.9 -8.8 -2.6 -8.65 -2.65 -8.6 -2.65 -8.55 -2.6 Q-8.3 -2.55 -8.3 -2.45 L-8.35 -2.4 -8.35 -2.35 -8.7 -2.35 Q-8.7 -2.25 -8.8 -2.0 L-8.8 -1.95 -8.85 -1.9 -8.85 -1.85 -8.9 -1.85 -8.9 -1.8 Q-9.0 -1.7 -9.15 -1.55 L-9.1 -1.5 -8.9 -1.5 -8.8 -1.65 -8.75 -1.65 Q-8.45 -1.65 -8.3 -1.75 -8.1 -1.85 -7.5 -1.85 L-7.45 -1.9 Q-7.35 -2.05 -7.35 -2.1 L-7.4 -2.3 Q-7.4 -2.45 -7.35 -2.5 L-7.15 -2.8 -7.05 -2.85 -7.05 -3.05 -7.85 -2.8 -8.3 -2.8 Q-8.35 -2.8 -8.35 -2.85 L-8.65 -3.15 -8.85 -3.3 -8.85 -3.35 -9.05 -3.6 -9.2 -3.65 M-9.6 -1.15 Q-9.3 -0.75 -9.3 -0.1 L-9.3 0.1 -9.05 0.2 -9.1 0.15 -8.7 0.2 -8.65 0.2 Q-8.45 0.3 -8.3 0.7 -7.35 0.6 -6.95 0.45 -6.8 0.35 -6.6 0.3 L-6.6 0.0 Q-6.55 -0.05 -6.45 -0.1 L-6.2 -0.35 -6.05 -0.55 -5.95 -0.95 Q-5.95 -1.25 -6.15 -1.4 L-6.2 -1.45 -6.15 -1.5 -6.25 -1.7 -6.3 -1.65 Q-6.35 -1.6 -6.4 -1.6 -6.5 -1.5 -6.55 -1.55 L-6.6 -1.55 Q-6.9 -1.35 -7.0 -1.35 L-7.05 -1.4 -7.4 -1.55 -7.55 -1.55 -8.45 -1.45 -9.5 -1.15 -9.6 -1.15 M-5.95 -2.75 L-6.0 -2.7 -6.0 -2.6 -5.95 -2.6 -5.9 -2.55 -5.9 -2.5 -5.65 -2.35 -5.2 -2.4 -4.65 -2.45 -4.4 -2.45 -4.6 -2.85 -4.75 -2.95 Q-5.0 -3.15 -5.2 -3.25 L-5.3 -3.35 -5.7 -3.2 -5.8 -3.2 Q-5.9 -3.05 -5.95 -2.85 L-6.0 -2.8 -5.95 -2.8 -5.95 -2.75 M-6.8 -2.95 Q-6.8 -2.8 -6.95 -2.55 L-7.1 -2.25 Q-7.15 -1.95 -7.2 -1.8 L-7.2 -1.75 -7.0 -1.7 -6.85 -1.85 -6.75 -1.9 -6.75 -1.95 Q-6.7 -2.15 -6.7 -2.45 -6.7 -2.75 -6.8 -2.95 M-6.85 -2.4 L-6.85 -2.4 M-4.95 -3.65 L-4.85 -3.55 -4.6 -3.35 -4.65 -3.45 -4.7 -3.45 -4.95 -3.65 M-5.05 -4.15 L-5.1 -4.05 -5.0 -4.05 -5.05 -4.15 M-3.75 -3.8 L-3.85 -3.85 -3.85 -3.6 -3.9 -3.55 -3.9 -3.5 -3.85 -3.5 -3.85 -3.55 -3.8 -3.5 -3.75 -3.75 -3.7 -3.8 -3.75 -3.8 M-3.75 -3.75 L-3.75 -3.75 M-4.05 -2.9 L-4.15 -2.9 -4.3 -3.1 -4.35 -3.15 -4.45 -3.2 -4.4 -3.2 -4.4 -3.15 -4.1 -2.75 -4.1 -2.8 -4.05 -2.9 M-4.55 -3.25 L-4.55 -3.3 -4.5 -3.25 -4.55 -3.25 -4.5 -3.2 -4.5 -3.3 -4.55 -3.25 M-4.65 -1.8 L-4.6 -1.75 -4.65 -1.7 -4.75 -1.45 -4.75 -1.5 -4.65 -1.6 -4.65 -1.65 -4.55 -1.8 -4.65 -1.8 M-4.35 -1.4 L-4.35 -1.4 M-5.0 -1.15 L-4.9 -1.3 -4.85 -1.3 -5.0 -1.15 -5.0 -1.15 M-5.55 -1.55 L-5.5 -1.55 -5.6 -1.6 -5.55 -1.55 M-5.2 -0.9 L-5.15 -0.9 -5.1 -0.95 -5.1 -1.0 -5.2 -0.9 M-5.5 -0.1 Q-5.7 -0.1 -6.0 0.2 L-6.05 0.25 -6.15 0.4 -6.15 0.45 -6.5 0.8 Q-6.8 1.3 -6.8 1.55 L-6.85 2.0 -6.85 2.05 -6.35 1.45 -6.3 1.4 -5.85 1.3 -5.6 1.25 -5.45 0.8 -5.45 0.7 -5.4 0.4 -5.4 0.3 -5.3 0.0 -5.5 -0.1 M-4.5 -0.85 L-4.6 -0.85 Q-4.6 -0.75 -4.75 -0.65 L-4.9 -0.4 -4.9 -0.3 Q-4.7 -0.4 -4.5 -0.6 L-4.4 -0.75 -4.4 -0.8 -4.45 -0.8 -4.5 -0.85 M-4.6 -0.85 L-4.6 -0.85 M-4.35 -0.45 L-4.35 -0.45 M-4.95 -0.05 L-4.95 0.0 -4.9 0.0 -4.95 -0.05 M-4.2 -0.35 L-4.55 -0.1 Q-4.85 0.1 -5.0 0.35 L-5.2 0.75 Q-5.3 1.15 -5.3 1.35 L-5.35 1.4 -5.35 1.45 -5.4 1.45 Q-5.45 1.55 -5.5 1.5 L-5.75 1.55 -6.2 1.65 -6.65 2.25 -6.95 2.8 Q-6.85 2.8 -6.75 2.85 L-6.4 3.0 -6.25 3.0 -6.25 2.95 -6.2 3.0 -6.15 3.0 -6.1 2.95 -6.0 2.95 Q-5.95 2.95 -5.95 3.0 L-5.95 3.2 -6.05 3.25 -6.1 3.25 Q-6.65 3.2 -6.9 3.05 L-7.1 3.0 -7.5 2.95 -7.55 2.95 Q-7.7 3.0 -7.85 3.05 -7.9 3.2 -8.2 3.6 -8.4 3.85 -8.4 4.0 L-7.4 4.8 -6.2 3.95 Q-4.75 2.95 -3.85 2.45 -3.75 2.35 -3.7 2.2 -3.7 1.9 -3.7 1.8 L-3.35 1.1 Q-3.15 0.7 -2.7 0.45 L-2.1 0.1 -3.5 -0.45 Q-3.9 -0.5 -4.2 -0.4 L-4.2 -0.35 M-0.5 0.75 L-0.45 0.7 -0.55 0.7 -0.5 0.75 M-6.8 0.65 L-6.85 0.65 Q-7.45 0.95 -7.85 0.95 L-8.4 0.95 -8.45 0.9 -8.55 0.65 Q-8.65 0.45 -8.7 0.4 L-8.8 0.4 -8.9 0.45 -8.95 0.45 -9.15 0.4 -9.3 0.4 -9.3 0.95 Q-9.35 1.2 -9.15 1.5 L-9.05 1.65 -9.0 1.6 -8.95 1.6 -8.95 1.65 Q-8.75 1.75 -8.65 2.2 L-8.6 2.25 -8.6 2.4 -8.5 2.75 Q-8.45 2.9 -8.35 3.0 -8.25 3.0 -8.1 2.9 L-7.85 2.7 -7.65 2.7 -7.35 2.4 Q-7.15 2.2 -7.1 2.05 -7.1 1.6 -7.05 1.35 -7.0 1.15 -6.85 0.8 L-6.8 0.65" fill="#6be7eb" fill-opacity="0.5019608" fill-rule="evenodd" stroke="none"/>
      <path d="M-0.4 -3.9 L-0.4 -3.9" fill="#ffffff" fill-rule="evenodd" stroke="none"/>
      <path d="M0.05 -7.2 L0.05 -7.25 Q0.15 -7.5 0.35 -7.8 L1.15 -8.6 Q1.45 -8.55 1.55 -8.45 1.7 -8.35 2.45 -8.3 2.65 -7.95 2.75 -7.35 2.8 -6.6 2.9 -6.4 3.0 -6.0 3.1 -5.45 3.1 -5.35 3.3 -4.95 3.5 -4.55 3.5 -4.5 L3.5 -4.3 3.45 -4.2 3.6 -4.05 3.6 -4.0 3.4 -4.2 3.3 -4.2 3.35 -4.3 3.35 -4.35 3.4 -4.5 3.2 -4.95 Q3.05 -5.35 3.05 -5.5 3.0 -5.85 2.8 -6.45 L2.7 -7.35 Q2.6 -7.95 2.4 -8.25 1.9 -8.15 1.6 -8.3 L1.3 -8.5 Q1.0 -8.5 0.65 -8.1 L0.3 -7.6 Q0.15 -7.35 0.05 -7.2 M0.4 -7.35 L0.4 -6.95 0.3 -6.9 0.05 -6.9 Q0.05 -6.95 0.25 -7.0 L0.3 -7.05 0.3 -7.3 0.2 -7.35 0.3 -7.45 0.4 -7.35 M0.6 -1.15 L0.6 -1.0 Q0.6 -0.85 0.15 0.0 -0.3 0.8 -0.5 1.05 L-0.7 1.05 -0.75 0.6 -1.8 0.15 Q-2.05 0.3 -2.6 0.6 -3.05 0.85 -3.25 1.2 -3.4 1.5 -3.5 1.85 L-3.65 2.55 Q-4.3 2.85 -5.45 3.55 -6.8 4.4 -7.2 4.95 L-7.45 4.95 -8.8 3.95 -8.75 3.55 Q-8.7 3.3 -8.7 3.2 -8.7 3.1 -8.8 2.5 L-8.95 2.0 -8.95 1.95 Q-9.4 1.6 -9.45 1.15 L-9.45 -0.5 Q-9.45 -0.65 -9.6 -0.9 L-9.75 -1.2 Q-9.75 -1.3 -9.5 -1.6 L-9.2 -1.85 -8.95 -2.15 -8.95 -2.4 Q-8.95 -2.75 -9.05 -2.95 -9.1 -3.15 -9.5 -3.35 L-9.65 -3.5 -9.6 -3.6 Q-9.6 -3.8 -9.8 -4.0 L-10.25 -4.25 Q-10.65 -4.45 -10.95 -4.55 L-11.25 -4.55 -11.4 -4.6 -11.55 -4.55 -11.7 -4.55 -11.75 -4.5 -11.85 -4.45 -12.5 -4.2 -12.7 -4.2 -12.95 -4.45 Q-13.6 -4.55 -13.85 -4.3 L-13.95 -4.1 Q-14.05 -4.05 -14.15 -4.05 L-14.4 -4.1 -14.75 -4.2 -15.25 -4.75 -15.75 -5.25 -15.75 -6.1 -15.6 -6.1 -15.45 -6.05 -15.25 -6.05 Q-14.95 -6.3 -14.7 -6.65 -14.4 -7.05 -14.4 -7.2 -14.4 -7.55 -14.7 -8.15 -15.05 -8.8 -15.3 -8.75 L-15.35 -8.8 -15.4 -8.9 Q-15.4 -9.1 -14.75 -9.4 -14.05 -9.65 -13.95 -9.75 L-13.2 -9.6 -12.45 -9.7 -11.55 -9.8 Q-11.05 -9.2 -11.05 -8.65 -11.05 -8.6 -11.15 -8.35 L-11.2 -8.15 -11.15 -7.95 -11.2 -7.95 -11.25 -7.9 -11.1 -7.65 Q-10.95 -7.4 -10.8 -7.3 L-10.85 -7.25 Q-11.05 -7.35 -11.15 -7.55 -11.3 -7.8 -11.3 -7.95 L-11.3 -8.05 -11.4 -8.3 Q-11.5 -8.5 -11.8 -8.4 -11.85 -8.5 -11.95 -8.5 L-12.25 -8.6 -12.25 -8.8 -12.35 -8.8 Q-13.2 -7.95 -13.2 -7.7 L-13.15 -7.6 -13.1 -7.65 -13.05 -7.65 -13.05 -7.45 Q-12.9 -7.3 -12.8 -7.05 L-12.6 -6.4 Q-12.55 -6.25 -12.6 -6.0 L-12.6 -5.9 -12.55 -6.1 Q-12.5 -6.5 -12.5 -6.6 -12.5 -6.75 -12.6 -7.15 -12.7 -7.6 -12.7 -7.8 -12.7 -7.95 -12.55 -8.15 L-12.5 -8.35 Q-12.4 -8.55 -12.2 -8.45 -12.4 -8.4 -12.45 -8.25 L-12.45 -8.0 Q-12.45 -7.85 -12.15 -6.95 L-12.05 -6.4 Q-11.95 -6.05 -11.7 -5.95 L-11.5 -6.2 -11.4 -6.3 -11.4 -6.55 Q-11.4 -6.9 -11.45 -7.15 L-11.6 -7.4 Q-11.75 -7.65 -11.75 -7.85 -11.75 -8.1 -11.6 -8.1 L-11.65 -8.05 -11.7 -7.9 Q-11.7 -7.75 -11.55 -7.55 -11.5 -7.5 -11.2 -7.2 L-10.95 -6.9 Q-10.95 -6.8 -11.0 -6.7 L-11.05 -6.5 -11.05 -6.4 -11.0 -6.4 -10.85 -6.95 -10.85 -7.05 -10.8 -7.15 -10.85 -7.15 -10.9 -7.25 Q-10.55 -7.3 -10.3 -7.65 -10.05 -8.05 -9.95 -8.2 L-9.4 -8.2 -9.9 -8.05 -10.25 -7.5 Q-10.45 -7.2 -10.75 -7.15 L-10.65 -6.8 -10.6 -6.55 Q-10.6 -6.6 -10.55 -6.6 -10.5 -6.45 -9.9 -6.1 -9.35 -5.75 -9.2 -5.75 -9.05 -5.75 -8.5 -6.15 L-7.95 -6.6 Q-7.85 -6.6 -7.75 -6.55 -7.6 -6.45 -7.5 -6.45 -6.35 -6.8 -5.45 -7.4 -4.4 -8.15 -4.4 -8.9 L-4.4 -9.0 -4.55 -9.05 Q-3.9 -9.35 -2.7 -9.75 -2.55 -9.75 -2.55 -9.7 -2.9 -9.55 -3.7 -9.3 -4.3 -9.1 -4.3 -8.85 -4.35 -8.6 -4.5 -8.25 -4.7 -7.9 -4.95 -7.7 -5.25 -7.45 -5.5 -7.25 -6.05 -6.85 -6.35 -6.75 L-7.2 -6.45 -7.65 -6.4 -7.85 -6.45 Q-8.05 -6.45 -8.55 -6.0 L-9.15 -5.5 -8.95 -5.3 -8.9 -5.2 -8.8 -5.15 -7.85 -5.1 Q-7.65 -5.05 -7.4 -4.75 L-7.15 -4.4 -7.15 -4.35 -7.05 -4.25 -6.95 -4.3 -6.75 -4.3 Q-6.4 -4.3 -6.3 -4.1 L-6.2 -3.8 -6.15 -3.95 -6.15 -3.9 -6.1 -3.9 -6.05 -3.95 -6.05 -4.0 -6.0 -4.0 -5.4 -4.5 Q-5.35 -4.5 -5.35 -5.05 L-5.35 -5.15 Q-5.5 -5.2 -5.55 -5.3 L-5.65 -5.45 Q-5.8 -5.6 -6.6 -5.55 L-6.8 -6.55 -6.75 -6.6 -6.65 -6.15 -6.6 -5.7 Q-6.2 -5.85 -5.75 -5.6 -5.45 -5.4 -5.25 -5.1 -5.15 -5.0 -5.1 -4.8 -4.95 -4.4 -4.95 -4.05 L-4.95 -3.95 -5.0 -3.9 -5.0 -3.75 -5.05 -3.7 -5.0 -3.6 -4.9 -3.5 -4.55 -3.25 -4.6 -3.2 -4.5 -3.2 -4.5 -3.1 -4.45 -3.1 Q-4.2 -2.8 -4.1 -2.55 L-4.05 -2.7 -4.05 -2.8 -4.0 -2.95 -3.95 -2.95 -3.95 -3.0 -3.9 -3.25 -3.85 -3.2 Q-3.8 -3.35 -3.85 -3.35 L-3.75 -3.5 -3.8 -3.5 -3.8 -3.6 -3.75 -3.8 -3.8 -3.75 -3.9 -3.45 Q-4.0 -3.15 -4.1 -2.95 L-4.25 -3.15 -4.3 -3.25 Q-4.45 -3.25 -4.6 -3.5 L-4.65 -3.5 -4.95 -3.75 -4.85 -3.85 -4.85 -3.9 Q-4.75 -3.95 -4.2 -4.3 L-4.1 -4.35 -3.75 -4.7 -3.7 -4.85 -3.65 -4.95 Q-3.5 -5.5 -3.5 -5.6 -3.5 -5.8 -3.8 -6.4 L-4.1 -7.05 Q-4.1 -7.2 -3.9 -7.75 L-3.7 -8.35 Q-3.65 -8.5 -3.6 -9.0 -3.5 -9.4 -3.3 -9.35 -3.4 -9.2 -4.05 -7.15 L-3.7 -6.45 Q-3.35 -5.8 -3.35 -5.6 L-3.4 -5.2 -3.4 -4.95 -3.35 -4.95 Q-3.0 -5.25 -2.95 -5.6 -2.05 -5.95 -1.7 -6.7 L-1.6 -6.9 -1.5 -7.5 Q-1.5 -7.75 -1.55 -7.95 L-1.5 -7.95 -1.5 -8.25 Q-1.6 -8.6 -1.7 -8.8 -1.8 -9.05 -2.15 -9.4 L-2.7 -9.85 -2.7 -9.95 -2.6 -9.9 Q-2.85 -10.1 -2.9 -10.45 L-2.9 -11.15 Q-4.0 -11.3 -4.25 -11.7 L-4.5 -12.05 Q-4.75 -12.35 -4.9 -12.35 L-6.0 -11.85 -6.95 -11.6 -7.25 -11.45 Q-7.5 -11.35 -7.8 -11.35 -8.1 -11.0 -8.1 -10.5 -8.1 -9.9 -8.2 -9.6 -8.3 -9.0 -8.55 -8.75 -8.8 -8.45 -9.3 -8.25 -8.45 -8.65 -8.25 -9.65 L-8.1 -10.6 Q-8.05 -11.15 -7.9 -11.45 -7.55 -11.5 -7.0 -11.7 L-6.0 -11.95 Q-5.7 -12.05 -5.35 -12.25 L-5.0 -12.45 -4.85 -12.45 Q-4.7 -12.35 -4.55 -12.15 L-4.3 -11.8 Q-3.9 -11.35 -2.85 -11.25 L-2.8 -10.5 Q-2.75 -10.1 -2.4 -9.8 L-2.4 -9.75 -2.45 -9.8 -2.1 -9.5 Q-1.8 -9.2 -1.7 -8.95 -1.6 -8.8 -1.5 -8.2 L-1.4 -7.6 Q-1.4 -7.35 -1.55 -6.8 -1.65 -6.2 -1.7 -5.9 -1.7 -5.65 -2.05 -5.45 L-2.7 -5.2 Q-3.3 -4.75 -3.35 -4.45 L-3.35 -4.45 -3.35 -4.4 -3.4 -3.9 -3.4 -3.8 -3.45 -3.75 Q-3.45 -3.4 -3.55 -3.1 L-3.45 -3.1 -3.45 -2.95 -3.4 -2.9 -3.35 -2.9 -3.3 -2.85 -3.15 -2.8 -1.6 -1.8 -1.2 -2.3 Q-0.5 -3.1 -0.45 -3.25 -0.35 -3.5 -0.3 -4.15 L-0.25 -5.05 Q-0.15 -5.3 -0.15 -5.95 -0.15 -6.6 -0.05 -6.85 L0.0 -7.0 -0.05 -6.7 -0.1 -5.8 -0.3 -4.0 -0.3 -3.55 Q-0.3 -3.25 -0.4 -3.05 -0.45 -2.95 -0.8 -2.65 L-1.2 -2.15 -1.5 -1.7 -0.25 -1.0 0.3 -1.05 0.6 -1.15 M-25.25 -18.0 L-25.3 -18.05 -25.0 -18.2 -24.75 -18.3 Q-24.65 -18.35 -24.55 -18.25 L-24.45 -18.1 -24.55 -18.1 Q-24.6 -18.1 -24.7 -18.2 L-25.25 -18.0 M-28.5 -12.2 Q-28.55 -11.85 -28.55 -11.7 L-28.55 -11.65 -28.65 -11.7 -28.65 -12.05 Q-28.6 -12.2 -28.55 -12.25 -28.5 -12.3 -28.5 -12.2 M-9.0 -14.5 L-9.25 -14.95 -9.7 -14.9 Q-9.7 -14.95 -9.55 -15.0 L-9.2 -15.0 Q-8.8 -14.45 -8.8 -14.0 L-8.8 -13.95 -8.85 -13.95 Q-8.95 -13.95 -8.95 -14.25 -8.95 -14.3 -9.0 -14.5 M-20.95 -17.45 L-21.05 -17.55 Q-21.1 -17.55 -21.05 -17.5 L-21.15 -17.5 -21.2 -17.45 -21.25 -17.45 Q-21.2 -17.55 -21.05 -17.6 L-21.0 -17.6 Q-20.85 -17.5 -20.85 -17.35 L-20.95 -17.45 M-17.45 -17.45 L-16.9 -17.45 -16.85 -17.35 -16.9 -17.35 -16.95 -17.4 -17.45 -17.35 -17.95 -17.45 -18.05 -17.3 -18.2 -17.05 -18.25 -17.0 -18.3 -17.05 -18.3 -17.1 Q-18.3 -17.2 -18.15 -17.4 L-17.95 -17.6 Q-17.95 -17.65 -17.95 -17.55 L-17.95 -17.5 Q-17.85 -17.55 -17.7 -17.5 L-17.45 -17.45 M-14.9 -16.05 L-15.5 -15.65 Q-15.8 -15.4 -15.95 -15.25 L-15.85 -15.15 -15.9 -15.05 -15.95 -15.15 -16.15 -15.15 -16.15 -15.2 Q-15.95 -15.45 -15.55 -15.7 L-15.2 -16.0 Q-15.0 -16.15 -14.9 -16.05 M-12.1 -16.1 Q-12.0 -16.1 -11.95 -15.85 -12.0 -15.8 -12.05 -15.9 L-12.1 -16.05 -12.1 -16.1 M-12.7 -16.4 L-13.05 -16.65 -13.55 -16.65 -13.8 -16.6 -13.95 -16.55 -14.0 -16.55 -13.85 -16.75 -13.0 -16.7 -12.7 -16.4 M-15.25 -8.85 Q-14.95 -8.8 -14.8 -8.55 -14.7 -8.2 -14.55 -8.05 -14.5 -7.95 -14.4 -7.6 -14.25 -7.2 -14.25 -7.15 -14.25 -7.0 -14.7 -6.5 L-15.2 -5.95 -15.55 -6.0 -15.7 -6.0 -15.7 -5.35 Q-14.95 -4.65 -14.7 -4.25 L-14.35 -4.2 -14.2 -4.2 Q-14.0 -4.2 -13.95 -4.3 -13.85 -4.45 -13.7 -4.45 L-13.2 -4.55 -12.9 -4.5 -12.6 -4.25 Q-12.55 -4.25 -12.2 -4.5 L-12.05 -4.6 -12.05 -4.65 -12.1 -4.65 -12.1 -4.75 -12.05 -4.95 -12.1 -5.05 -12.1 -5.15 Q-12.6 -5.0 -12.7 -5.3 L-13.25 -5.4 Q-13.25 -5.6 -13.45 -6.1 L-13.5 -6.25 Q-13.7 -6.55 -13.7 -6.7 -13.7 -6.9 -13.5 -7.2 -13.35 -7.5 -13.2 -7.5 L-13.25 -7.7 Q-13.25 -7.85 -12.85 -8.35 L-12.35 -8.95 -12.1 -8.7 Q-11.9 -8.45 -11.75 -8.45 -11.65 -8.45 -11.55 -8.55 -11.45 -8.6 -11.4 -8.6 L-11.25 -8.3 Q-11.15 -8.55 -11.15 -8.65 -11.15 -8.75 -11.3 -9.2 -11.5 -9.65 -11.6 -9.75 L-12.55 -9.6 -13.55 -9.65 -14.6 -9.35 Q-15.05 -9.15 -15.25 -8.85 M-13.1 -7.35 L-13.2 -7.35 -13.15 -7.45 -13.4 -7.1 -13.6 -6.75 -13.55 -6.75 Q-13.5 -6.45 -13.35 -6.15 L-13.3 -6.05 -13.0 -5.75 -12.85 -5.7 -12.8 -5.65 -12.75 -5.65 -12.7 -6.25 Q-12.65 -6.6 -12.95 -7.1 L-13.1 -7.35 M-19.1 -6.75 L-18.6 -7.1 Q-18.65 -6.95 -19.1 -6.7 -19.4 -6.45 -19.3 -6.25 L-19.35 -6.2 -19.4 -6.25 -19.4 -6.35 Q-19.4 -6.55 -19.1 -6.75 M-19.2 -5.6 L-19.25 -5.6 -19.25 -5.85 -19.2 -5.6 M-22.25 -5.4 Q-22.1 -5.25 -21.85 -4.8 -21.65 -4.4 -21.45 -4.2 -21.1 -4.15 -20.9 -4.0 L-20.65 -3.8 Q-20.75 -3.8 -20.95 -3.95 -21.2 -4.1 -21.5 -4.15 -21.75 -4.4 -21.95 -4.8 -22.05 -5.1 -22.25 -5.4 M-17.85 -2.15 Q-17.95 -2.25 -17.95 -2.35 L-17.85 -2.3 -17.85 -2.15 M-18.7 -3.15 Q-18.85 -3.25 -18.9 -3.25 -19.05 -3.25 -19.05 -3.05 L-19.0 -2.9 -19.0 -2.75 -19.05 -2.65 -19.2 -2.55 -19.35 -2.55 -19.35 -2.7 -19.4 -2.85 -19.55 -3.0 -19.65 -3.05 -19.6 -3.3 Q-19.6 -3.45 -19.55 -3.45 L-19.55 -3.2 Q-19.55 -3.1 -19.45 -2.95 -19.3 -2.85 -19.25 -2.65 L-19.15 -2.7 Q-19.05 -2.75 -19.05 -2.8 L-19.1 -2.9 -19.15 -3.05 -19.05 -3.25 -18.95 -3.35 Q-18.65 -3.2 -18.6 -3.1 L-18.6 -3.05 -18.7 -3.15 M-14.35 -3.85 L-14.4 -3.5 Q-14.45 -3.45 -14.55 -3.25 L-14.75 -3.3 -15.0 -3.25 -15.0 -3.3 -14.9 -3.35 Q-14.65 -3.35 -14.6 -3.3 -14.5 -3.4 -14.45 -3.6 L-14.4 -3.9 -14.35 -3.85 M-16.15 -2.5 L-16.45 -2.4 -16.5 -2.4 Q-16.4 -2.45 -16.2 -2.55 L-15.9 -2.7 Q-15.95 -2.6 -16.15 -2.5 M-10.75 -7.15 L-10.75 -7.15 M-7.65 -4.5 L-7.5 -4.5 -7.5 -4.45 -7.35 -4.45 -7.45 -4.55 Q-7.7 -4.9 -7.9 -5.0 L-8.55 -5.05 -8.9 -5.05 -9.1 -5.0 -9.5 -5.0 -9.55 -4.95 -9.2 -4.85 -8.4 -4.75 -7.7 -4.55 -7.65 -4.5 M-9.5 -3.6 L-9.5 -3.6 M-9.3 -3.6 L-9.35 -3.5 -9.45 -3.5 Q-9.35 -3.4 -9.2 -3.35 L-9.05 -3.1 -8.9 -2.9 -8.9 -2.25 Q-8.85 -2.4 -8.8 -2.5 L-8.6 -2.55 Q-8.4 -2.5 -8.4 -2.45 L-8.4 -2.4 -8.45 -2.4 -8.45 -2.45 -8.75 -2.45 Q-8.75 -2.35 -8.9 -2.0 L-8.9 -1.95 -8.95 -1.9 -8.95 -1.85 -9.3 -1.55 -9.2 -1.5 -9.15 -1.4 -8.9 -1.45 -8.75 -1.6 Q-8.4 -1.6 -8.25 -1.7 -8.1 -1.8 -7.45 -1.8 L-7.4 -1.9 Q-7.3 -2.0 -7.3 -2.1 L-7.3 -2.3 Q-7.35 -2.45 -7.3 -2.5 L-7.1 -2.75 -7.0 -2.85 -6.95 -3.1 -7.85 -2.85 -8.3 -2.9 -8.8 -3.4 -9.0 -3.7 -9.3 -3.75 -9.3 -3.6 M-8.8 -3.7 L-8.9 -3.7 -8.8 -3.6 -8.8 -3.7 M-9.55 -1.3 L-9.7 -1.2 Q-9.4 -0.8 -9.35 -0.1 L-9.35 0.2 -9.1 0.25 -8.7 0.25 Q-8.5 0.35 -8.3 0.8 -7.35 0.7 -6.95 0.5 L-6.55 0.35 -6.55 0.05 Q-6.5 0.0 -6.4 0.0 L-6.15 -0.3 -6.0 -0.5 -5.9 -0.75 -5.9 -0.9 Q-5.85 -1.25 -6.1 -1.5 L-6.1 -1.55 -6.25 -1.8 -6.4 -1.65 Q-6.5 -1.6 -6.55 -1.6 L-6.5 -1.7 -6.65 -1.6 Q-6.9 -1.45 -7.0 -1.45 L-7.4 -1.65 -7.45 -1.6 -7.5 -1.6 -7.5 -1.65 -8.45 -1.55 -9.55 -1.25 -9.55 -1.3 M-6.0 -2.9 L-6.05 -2.8 -6.05 -2.55 -5.95 -2.45 -5.7 -2.3 -5.2 -2.3 -4.65 -2.35 -4.25 -2.35 -4.4 -2.65 -4.55 -2.9 -4.7 -3.0 Q-4.95 -3.25 -5.15 -3.3 L-5.3 -3.4 -5.35 -3.4 -5.7 -3.25 -5.8 -3.25 Q-5.95 -3.1 -6.0 -2.9 M-6.9 -3.15 L-6.85 -2.95 Q-6.85 -2.8 -7.0 -2.6 -7.15 -2.35 -7.2 -2.25 -7.2 -1.9 -7.3 -1.75 L-7.2 -1.7 Q-7.1 -1.65 -7.0 -1.65 L-6.8 -1.8 -6.65 -1.9 -6.7 -1.95 Q-6.6 -2.15 -6.6 -2.45 -6.6 -2.85 -6.85 -3.15 L-6.9 -3.15 M-6.85 -2.35 L-6.85 -2.35 M-3.55 -3.0 L-3.55 -3.0 M-4.85 -1.8 L-5.0 -1.7 Q-5.05 -1.65 -5.2 -1.65 L-5.3 -1.6 -5.4 -1.6 -5.75 -1.7 -5.65 -1.55 -5.55 -1.45 Q-5.2 -1.55 -5.05 -1.6 L-4.85 -1.75 -4.7 -1.75 Q-4.95 -1.3 -5.25 -0.95 L-5.5 -0.55 -5.7 -0.35 -5.65 -0.35 Q-5.4 -0.55 -5.2 -0.8 L-5.15 -0.85 -5.1 -0.8 -5.05 -0.95 -5.05 -1.05 -4.95 -1.05 -4.8 -1.25 -4.8 -1.35 -4.65 -1.5 -4.65 -1.55 -4.6 -1.55 -4.6 -1.6 -4.4 -1.9 Q-4.7 -1.85 -4.85 -1.8 M-4.7 -0.9 Q-4.7 -0.8 -4.8 -0.7 L-4.95 -0.45 -5.0 -0.35 -4.95 -0.35 -5.05 -0.15 -5.0 -0.2 Q-4.75 -0.3 -4.45 -0.55 L-4.25 -0.8 -4.3 -0.85 -4.35 -0.85 -4.4 -0.9 -4.5 -0.9 -4.45 -0.95 -4.65 -0.9 -4.7 -0.9 M-5.25 -0.05 Q-5.4 -0.15 -5.5 -0.2 -5.75 -0.2 -6.05 0.15 L-6.1 0.2 -6.2 0.4 -6.25 0.45 -6.3 0.45 -6.55 0.8 Q-6.85 1.3 -6.85 1.55 L-6.95 2.45 -6.8 2.15 -6.3 1.45 -5.85 1.4 -5.55 1.3 Q-5.45 1.15 -5.4 0.8 L-5.4 0.7 -5.35 0.45 -5.3 0.3 -5.25 0.0 -5.25 -0.05 M-4.95 -0.05 L-4.95 -0.05 M-4.2 -0.45 L-4.25 -0.45 -4.6 -0.15 Q-4.9 0.1 -5.1 0.35 L-5.1 0.45 Q-5.15 0.6 -5.25 0.7 L-5.25 0.75 Q-5.4 1.15 -5.4 1.35 L-5.45 1.4 -5.45 1.35 -5.5 1.4 -5.8 1.45 -6.25 1.55 -6.7 2.25 -7.05 2.85 -7.2 2.8 -7.25 2.8 Q-6.95 2.85 -6.8 2.9 L-6.4 3.1 -6.1 3.05 -6.0 3.05 -6.0 3.15 -6.05 3.2 Q-6.65 3.15 -6.9 3.0 L-7.05 2.95 -7.5 2.85 -7.6 2.9 Q-7.7 2.95 -7.9 3.0 -7.95 3.15 -8.25 3.55 -8.5 3.85 -8.5 4.05 L-7.4 4.85 -6.15 4.0 Q-4.7 3.05 -3.8 2.5 -3.7 2.4 -3.65 2.2 L-3.6 1.85 -3.3 1.15 Q-3.1 0.75 -2.65 0.5 -2.15 0.25 -1.95 0.1 L-1.9 0.1 -3.5 -0.5 Q-3.9 -0.6 -4.2 -0.45 M-6.6 0.65 L-6.6 0.65 M-6.6 0.5 L-6.85 0.6 Q-7.45 0.9 -7.85 0.9 L-8.4 0.85 -8.5 0.6 Q-8.6 0.4 -8.7 0.35 L-8.8 0.35 -8.95 0.4 -9.1 0.35 -9.3 0.3 -9.35 0.25 -9.4 0.95 Q-9.4 1.2 -9.2 1.5 L-9.0 1.8 -9.05 1.7 -8.95 1.7 Q-8.8 1.8 -8.7 2.25 L-8.7 2.4 -8.6 2.75 Q-8.5 2.95 -8.4 3.1 -8.25 3.1 -8.05 2.95 L-7.8 2.75 -7.65 2.75 Q-7.6 2.7 -7.35 2.45 -7.05 2.25 -7.05 2.05 -7.05 1.6 -6.95 1.35 -6.95 1.15 -6.8 0.85 L-6.6 0.5 M-6.25 3.05 L-6.25 2.95 -6.15 3.05 -6.25 3.05" fill="#e1e1e1" fill-rule="evenodd" stroke="none"/>
    </g>
  </defs>
</svg>
