<?xml version="1.0" encoding="UTF-8" standalone="no"?>
<svg xmlns:ffdec="https://www.free-decompiler.com/flash" xmlns:xlink="http://www.w3.org/1999/xlink" ffdec:objectType="frame" height="47.95px" width="25.9px" xmlns="http://www.w3.org/2000/svg">
  <g transform="matrix(1.0, 0.0, 0.0, 1.0, -3.85, 48.3)">
    <use ffdec:characterId="144" height="6.85" transform="matrix(7.0, 0.0, 0.0, 7.0, 3.85, -48.3)" width="3.7" xlink:href="#shape0"/>
  </g>
  <defs>
    <g id="shape0" transform="matrix(1.0, 0.0, 0.0, 1.0, -0.55, 6.9)">
      <path d="M3.6 -6.1 L3.6 -6.15 3.55 -6.15 3.4 -6.3 3.4 -6.35 Q3.25 -6.45 3.05 -6.5 L2.7 -6.55 Q1.5 -6.55 1.1 -6.1 0.95 -5.9 0.95 -5.6 L1.05 -5.7 1.4 -5.75 1.75 -5.7 1.95 -5.85 Q2.25 -6.05 2.6 -6.15 3.2 -6.25 3.45 -5.95 L3.65 -5.9 3.75 -5.85 3.75 -5.9 3.7 -5.9 3.7 -5.95 3.6 -6.1 M3.9 -5.2 Q3.75 -5.5 3.55 -5.65 L3.6 -5.45 3.65 -4.3 Q3.65 -4.0 3.55 -3.55 L3.55 -3.25 3.5 -3.1 3.4 -2.5 3.35 -2.15 3.15 -1.4 3.2 -1.4 3.2 -1.35 Q3.2 -1.3 3.35 -1.3 3.45 -1.3 3.5 -1.4 L3.6 -1.55 3.6 -1.6 3.55 -1.65 3.55 -1.7 Q3.65 -2.05 3.65 -2.2 L3.65 -2.25 3.8 -2.65 3.9 -3.4 4.0 -4.25 Q4.0 -4.8 3.95 -5.05 L3.9 -5.15 3.9 -5.2 M4.0 -5.85 L4.05 -5.7 4.0 -5.6 4.1 -5.35 4.15 -5.0 4.25 -3.8 Q4.25 -3.6 4.1 -2.95 L3.95 -2.3 3.8 -1.55 Q3.75 -1.35 3.65 -1.2 L3.65 -0.95 3.6 -0.85 Q3.6 -0.55 3.35 -0.35 3.0 -0.05 2.1 -0.05 1.8 -0.05 1.55 -0.1 L1.3 -0.25 0.8 -0.75 0.65 -1.0 Q0.65 -1.15 0.65 -1.3 0.65 -1.5 0.8 -1.8 L0.9 -2.05 0.95 -2.05 0.95 -2.2 Q0.85 -2.6 0.75 -3.35 0.55 -4.2 0.55 -4.7 0.55 -5.0 0.7 -5.15 L0.7 -5.3 0.65 -5.4 Q0.6 -5.5 0.6 -5.65 0.6 -6.1 1.15 -6.45 1.65 -6.8 2.3 -6.9 3.0 -6.95 3.5 -6.75 4.0 -6.5 4.0 -5.9 L4.0 -5.85 M2.15 -1.3 Q2.2 -1.2 2.45 -1.2 2.7 -1.2 2.85 -1.25 L3.0 -1.35 3.0 -1.4 Q3.1 -1.45 3.1 -1.55 L3.1 -1.6 Q3.2 -1.9 3.3 -2.35 L3.35 -2.7 3.35 -2.85 Q3.45 -3.45 3.45 -4.85 L3.45 -5.25 Q3.35 -5.5 3.2 -5.65 3.05 -5.8 2.85 -5.85 L2.6 -5.9 Q2.15 -5.9 1.95 -5.6 1.85 -5.45 1.85 -5.25 L1.95 -3.4 1.95 -2.65 1.9 -2.75 1.75 -4.2 1.65 -5.45 1.55 -5.5 1.5 -5.55 Q1.2 -5.55 1.05 -5.3 0.95 -5.15 0.95 -5.0 L0.95 -4.8 Q0.95 -4.65 0.95 -4.55 L0.95 -4.45 Q0.95 -4.1 1.1 -3.1 L1.2 -2.3 1.2 -1.8 Q1.2 -1.7 1.2 -1.5 L1.3 -1.45 Q1.35 -1.3 1.45 -1.3 L1.65 -1.25 1.9 -1.3 1.95 -1.3 2.0 -1.5 2.0 -2.0 2.05 -1.8 2.05 -1.7 2.1 -1.5 2.1 -1.4 2.1 -1.3 2.15 -1.3 M0.8 -4.65 Q0.75 -4.55 0.75 -4.35 L0.9 -3.6 0.95 -3.4 0.95 -3.5 Q0.95 -4.15 0.85 -4.55 L0.8 -4.65 M1.85 -1.05 Q1.55 -1.05 1.15 -1.3 L1.1 -1.35 Q1.05 -1.5 0.95 -1.6 0.85 -1.45 0.85 -1.3 0.9 -1.05 1.1 -0.75 L1.15 -0.7 Q1.35 -0.45 1.65 -0.35 L1.85 -0.35 1.9 -0.3 2.1 -0.3 Q3.05 -0.3 3.3 -0.75 L3.3 -0.85 Q3.4 -0.95 3.4 -1.0 3.4 -1.15 3.3 -1.15 L3.2 -1.2 2.1 -1.05 2.0 -1.0 1.85 -1.05" fill="#111111" fill-rule="evenodd" stroke="none"/>
      <path d="M3.55 -3.25 L3.55 -3.55 Q3.65 -4.0 3.65 -4.3 L3.6 -5.45 3.55 -5.65 Q3.75 -5.5 3.9 -5.2 L3.9 -4.9 Q3.9 -4.45 3.85 -4.2 3.75 -3.85 3.55 -3.25 M3.7 -5.35 L3.65 -5.05 3.65 -4.95 3.75 -4.9 3.8 -4.95 Q3.75 -5.1 3.7 -5.35 M2.85 -5.85 L2.9 -5.75 Q3.05 -5.35 3.05 -5.05 3.05 -4.7 2.95 -4.0 L2.85 -3.0 Q2.85 -2.6 2.65 -1.95 L2.45 -1.5 2.5 -1.5 2.45 -1.45 Q2.3 -1.35 2.15 -1.3 L2.1 -1.3 2.1 -1.4 2.1 -1.7 1.95 -3.4 1.85 -5.25 Q1.85 -5.45 1.95 -5.6 2.15 -5.9 2.6 -5.9 L2.85 -5.85 M1.45 -1.3 Q1.35 -1.3 1.3 -1.45 L1.2 -1.5 Q1.2 -1.7 1.2 -1.8 L1.2 -2.3 1.1 -3.1 Q0.95 -4.1 0.95 -4.45 L0.95 -4.55 Q0.95 -4.65 0.95 -4.8 L0.95 -5.0 Q0.95 -5.15 1.05 -5.3 1.2 -5.55 1.5 -5.55 L1.55 -5.5 1.65 -5.45 1.6 -5.2 Q1.55 -4.9 1.55 -4.8 L1.6 -3.2 1.65 -1.85 1.65 -1.75 1.6 -1.55 1.5 -1.35 1.45 -1.3 M2.7 -5.4 Q2.7 -5.6 2.45 -5.7 2.25 -5.75 2.2 -5.4 2.1 -4.95 2.1 -4.8 L2.25 -3.75 2.3 -3.15 2.35 -2.3 2.4 -2.35 2.4 -3.1 2.45 -3.9 2.6 -4.7 2.7 -5.4 M1.15 -4.4 Q1.2 -4.05 1.2 -3.85 L1.25 -3.5 1.3 -3.2 1.35 -2.1 1.4 -2.1 1.45 -2.35 Q1.45 -2.75 1.35 -3.25 1.25 -3.7 1.25 -4.35 1.25 -4.45 1.4 -4.8 L1.5 -5.15 Q1.5 -5.4 1.3 -5.35 1.05 -5.25 1.05 -4.8 L1.15 -4.4" fill="#8f8a64" fill-rule="evenodd" stroke="none"/>
      <path d="M3.55 -3.25 Q3.75 -3.85 3.85 -4.2 3.9 -4.45 3.9 -4.9 L3.9 -5.2 3.9 -5.15 3.95 -5.05 Q4.0 -4.8 4.0 -4.25 L3.9 -3.4 3.8 -2.65 3.65 -2.25 3.65 -2.2 Q3.65 -2.05 3.55 -1.7 L3.55 -1.65 3.6 -1.6 3.6 -1.55 3.5 -1.4 Q3.45 -1.3 3.35 -1.3 3.2 -1.3 3.2 -1.35 L3.2 -1.4 3.15 -1.4 3.35 -2.15 3.4 -2.5 3.5 -3.1 3.55 -3.25 M2.85 -5.85 Q3.05 -5.8 3.2 -5.65 3.35 -5.5 3.45 -5.25 L3.45 -4.85 Q3.45 -3.45 3.35 -2.85 L3.35 -2.7 3.3 -2.35 Q3.2 -1.9 3.1 -1.6 L3.1 -1.55 Q3.1 -1.45 3.0 -1.4 L3.0 -1.35 2.85 -1.25 Q2.7 -1.2 2.45 -1.2 2.2 -1.2 2.15 -1.3 2.3 -1.35 2.45 -1.45 L2.5 -1.5 2.45 -1.5 2.65 -1.95 Q2.85 -2.6 2.85 -3.0 L2.95 -4.0 Q3.05 -4.7 3.05 -5.05 3.05 -5.35 2.9 -5.75 L2.85 -5.85 M2.1 -1.4 L2.1 -1.5 2.05 -1.7 2.05 -1.8 2.0 -2.0 2.0 -1.5 1.95 -1.3 1.9 -1.3 1.65 -1.25 1.45 -1.3 1.5 -1.35 1.6 -1.55 1.65 -1.75 1.65 -1.85 1.6 -3.2 1.55 -4.8 Q1.55 -4.9 1.6 -5.2 L1.65 -5.45 1.75 -4.2 1.9 -2.75 1.95 -2.65 1.95 -3.4 2.1 -1.7 2.1 -1.4" fill="#59542f" fill-rule="evenodd" stroke="none"/>
      <path d="M3.7 -5.35 Q3.75 -5.1 3.8 -4.95 L3.75 -4.9 3.65 -4.95 3.65 -5.05 3.7 -5.35 M2.7 -5.4 L2.6 -4.7 2.45 -3.9 2.4 -3.1 2.4 -2.35 2.35 -2.3 2.3 -3.15 2.25 -3.75 2.1 -4.8 Q2.1 -4.95 2.2 -5.4 2.25 -5.75 2.45 -5.7 2.7 -5.6 2.7 -5.4 M0.8 -4.65 L0.85 -4.55 Q0.95 -4.15 0.95 -3.5 L0.95 -3.4 0.9 -3.6 0.75 -4.35 Q0.75 -4.55 0.8 -4.65 M1.15 -4.4 L1.05 -4.8 Q1.05 -5.25 1.3 -5.35 1.5 -5.4 1.5 -5.15 L1.4 -4.8 Q1.25 -4.45 1.25 -4.35 1.25 -3.7 1.35 -3.25 1.45 -2.75 1.45 -2.35 L1.4 -2.1 1.35 -2.1 1.3 -3.2 1.25 -3.5 1.2 -3.85 Q1.2 -4.05 1.15 -4.4" fill="#d5d3b1" fill-rule="evenodd" stroke="none"/>
      <path d="M2.55 -6.55 Q2.5 -6.4 2.05 -6.25 1.6 -6.0 1.35 -6.0 1.3 -6.0 1.25 -5.95 L1.1 -5.85 Q1.2 -6.15 1.6 -6.3 L2.55 -6.55 M1.85 -1.05 Q1.65 -0.9 1.45 -0.9 1.15 -0.9 0.95 -1.2 L0.85 -1.3 Q0.85 -1.45 0.95 -1.6 1.05 -1.5 1.1 -1.35 L1.15 -1.3 Q1.55 -1.05 1.85 -1.05" fill="#f7ef7a" fill-rule="evenodd" stroke="none"/>
      <path d="M3.05 -6.5 L3.0 -6.5 Q2.75 -6.35 2.0 -6.05 L1.4 -5.75 1.05 -5.7 0.95 -5.6 Q0.95 -5.9 1.1 -6.1 1.5 -6.55 2.7 -6.55 L3.05 -6.5 M3.45 -5.95 L3.6 -6.1 3.7 -5.95 3.7 -5.9 3.75 -5.9 3.75 -5.85 3.65 -5.9 3.45 -5.95 M2.55 -6.55 L1.6 -6.3 Q1.2 -6.15 1.1 -5.85 L1.25 -5.95 Q1.3 -6.0 1.35 -6.0 1.6 -6.0 2.05 -6.25 2.5 -6.4 2.55 -6.55 M0.85 -1.3 L0.95 -1.2 Q1.15 -0.9 1.45 -0.9 1.65 -0.9 1.85 -1.05 L2.0 -1.0 2.1 -1.05 2.4 -0.85 Q2.3 -0.75 2.05 -0.7 L1.4 -0.6 Q1.3 -0.6 1.2 -0.7 1.15 -0.75 1.1 -0.75 0.9 -1.05 0.85 -1.3 M1.65 -0.35 L1.9 -0.4 2.65 -0.5 Q2.9 -0.65 3.2 -1.0 L3.3 -1.15 Q3.4 -1.15 3.4 -1.0 3.4 -0.95 3.3 -0.85 L3.3 -0.75 Q3.05 -0.3 2.1 -0.3 L1.9 -0.3 1.85 -0.35 1.65 -0.35" fill="#ada31b" fill-rule="evenodd" stroke="none"/>
      <path d="M3.05 -6.5 Q3.25 -6.45 3.4 -6.35 L3.4 -6.3 3.55 -6.15 3.6 -6.15 3.6 -6.1 3.45 -5.95 Q3.2 -6.25 2.6 -6.15 2.25 -6.05 1.95 -5.85 L1.75 -5.7 1.4 -5.75 2.0 -6.05 Q2.75 -6.35 3.0 -6.5 L3.05 -6.5 M1.1 -0.75 Q1.15 -0.75 1.2 -0.7 1.3 -0.6 1.4 -0.6 L2.05 -0.7 Q2.3 -0.75 2.4 -0.85 L2.1 -1.05 3.2 -1.2 3.3 -1.15 3.2 -1.0 Q2.9 -0.65 2.65 -0.5 L1.9 -0.4 1.65 -0.35 Q1.35 -0.45 1.15 -0.7 L1.1 -0.75" fill="#5d5706" fill-rule="evenodd" stroke="none"/>
    </g>
  </defs>
</svg>
