<?xml version="1.0" encoding="UTF-8" standalone="no"?>
<svg xmlns:ffdec="https://www.free-decompiler.com/flash" xmlns:xlink="http://www.w3.org/1999/xlink" ffdec:objectType="frame" height="130.2px" width="106.75px" xmlns="http://www.w3.org/2000/svg">
  <g transform="matrix(1.0, 0.0, 0.0, 1.0, 47.25, 124.25)">
    <use ffdec:characterId="4166" height="12.6" transform="matrix(7.0, 0.0, 0.0, 7.0, -27.3, -104.3)" width="7.9" xlink:href="#shape0"/>
  </g>
  <defs>
    <g id="shape0" transform="matrix(1.0, 0.0, 0.0, 1.0, 3.9, 14.9)">
      <path d="M2.85 -14.25 Q2.85 -14.0 2.6 -13.75 2.35 -13.5 2.05 -13.45 L1.75 -13.45 1.45 -13.5 Q2.05 -13.8 2.2 -14.1 2.35 -14.35 2.2 -14.85 L2.3 -14.9 Q2.85 -14.4 2.85 -14.25 M2.4 -14.45 Q2.45 -14.25 2.3 -14.0 2.15 -13.75 1.85 -13.6 L1.85 -13.55 Q2.35 -13.75 2.5 -13.85 2.7 -14.0 2.7 -14.25 2.7 -14.3 2.4 -14.45 M0.4 -13.45 Q0.55 -13.4 0.65 -13.3 L0.65 -13.25 0.4 -13.25 Q-0.15 -13.25 -0.6 -12.95 L-1.0 -12.6 Q-1.2 -12.8 -1.2 -13.0 -1.2 -13.8 -0.1 -13.7 L0.05 -13.5 0.4 -13.45 M1.55 -10.35 L1.35 -10.35 Q1.25 -10.3 1.1 -10.1 L0.85 -9.7 Q0.5 -9.25 -0.15 -9.35 L-0.35 -9.35 Q-0.35 -9.2 -0.4 -8.95 -0.45 -8.65 -0.55 -8.45 -0.65 -8.35 -0.75 -8.2 L-1.1 -8.0 Q-1.4 -7.75 -1.65 -7.8 -2.05 -7.85 -2.5 -7.7 -3.1 -7.5 -3.45 -7.0 -3.8 -6.55 -3.8 -6.15 -3.8 -5.85 -3.6 -5.6 -3.3 -5.2 -2.7 -5.45 L-2.4 -5.2 -2.15 -4.95 -2.15 -4.9 Q-2.0 -4.8 -2.0 -4.55 -2.0 -4.4 -2.1 -4.3 L-2.2 -4.2 -2.1 -4.1 -2.2 -4.0 -2.65 -4.0 Q-2.85 -3.55 -2.85 -3.4 -2.85 -3.35 -2.65 -2.95 -2.4 -2.55 -2.3 -2.5 -1.0 -2.55 -0.7 -2.75 -0.35 -3.0 0.2 -3.05 L0.95 -3.7 Q1.7 -4.3 2.2 -4.3 L3.1 -4.25 3.2 -4.1 Q3.5 -4.15 3.7 -4.45 3.85 -4.7 3.85 -4.85 L3.75 -5.15 3.7 -5.25 Q3.3 -5.4 3.35 -5.75 3.4 -5.9 3.5 -6.25 3.5 -6.35 3.35 -6.5 3.2 -6.6 3.05 -6.6 2.75 -6.85 2.6 -7.1 2.6 -6.9 2.45 -6.65 2.3 -6.4 2.0 -6.25 L1.25 -6.25 Q1.05 -6.35 0.9 -6.8 0.8 -7.2 0.8 -7.45 0.8 -7.75 0.95 -7.95 1.15 -8.2 1.7 -8.5 L2.05 -8.5 2.15 -8.0 Q2.15 -7.7 2.2 -7.55 L2.45 -7.5 Q2.45 -7.6 2.45 -7.7 2.45 -7.95 2.5 -8.1 2.55 -8.2 2.8 -8.4 L3.1 -8.4 3.15 -8.35 Q3.05 -8.55 3.05 -8.9 L3.2 -9.75 Q3.2 -9.8 2.85 -10.1 2.55 -10.4 2.45 -10.45 L1.55 -10.35 M0.95 -10.3 L1.25 -10.45 2.5 -10.55 Q3.25 -10.15 3.25 -9.4 L3.2 -8.8 Q3.2 -8.4 3.3 -8.1 L3.15 -8.25 2.75 -8.25 2.65 -8.1 Q2.55 -8.0 2.55 -7.95 2.55 -7.2 3.15 -6.85 L3.55 -6.55 Q3.7 -6.4 3.7 -6.1 3.7 -6.05 3.65 -6.0 3.6 -5.95 3.6 -5.85 3.6 -5.75 3.65 -5.55 L3.7 -5.45 Q3.9 -5.35 4.0 -5.2 L4.0 -4.85 Q4.0 -4.55 3.8 -4.3 3.5 -3.95 3.05 -3.8 L3.05 -3.95 3.0 -4.1 Q1.55 -4.05 0.95 -3.6 0.8 -3.5 0.3 -2.75 L0.15 -2.9 -0.2 -2.9 -0.65 -2.65 Q-0.9 -2.5 -1.45 -2.35 -2.4 -2.15 -2.8 -2.75 -3.0 -3.05 -3.0 -3.45 -3.0 -3.7 -2.85 -3.95 -2.65 -4.2 -2.4 -4.2 L-2.25 -4.4 Q-2.1 -4.65 -2.1 -4.7 -2.1 -4.8 -2.2 -4.85 L-2.25 -4.8 -2.5 -5.05 -2.75 -5.35 -3.25 -5.3 -3.3 -5.25 Q-3.55 -5.4 -3.75 -5.7 -3.9 -5.9 -3.9 -6.15 -3.9 -6.7 -3.55 -7.1 -3.2 -7.55 -2.45 -7.9 -1.4 -7.7 -0.85 -8.35 -0.5 -8.75 -0.5 -9.1 -0.5 -9.2 -0.55 -9.35 L-0.6 -9.55 Q-0.6 -9.7 -0.55 -9.6 L-0.45 -9.5 Q-0.3 -9.45 -0.05 -9.45 0.55 -9.45 0.8 -9.8 1.0 -10.1 0.95 -10.3 M1.0 -7.3 L1.05 -7.2 1.0 -7.1 Q0.95 -7.05 0.95 -6.95 L1.1 -6.65 Q1.25 -6.4 1.3 -6.35 L1.95 -6.35 Q2.15 -6.4 2.35 -6.7 2.5 -6.95 2.5 -7.1 L2.45 -7.3 2.35 -7.45 2.1 -7.45 Q1.85 -7.65 1.9 -7.75 L2.0 -8.0 Q2.0 -8.1 1.95 -8.2 L1.85 -8.3 Q1.65 -8.25 1.3 -7.95 0.95 -7.6 0.95 -7.45 0.95 -7.35 1.0 -7.3 M-0.2 -13.55 Q-0.75 -13.5 -0.95 -13.35 -1.1 -13.25 -1.1 -13.05 L-1.1 -12.9 -1.05 -12.85 -0.2 -13.35 -0.05 -13.4 -0.2 -13.55 M-1.85 -11.7 L-1.95 -11.6 Q-2.0 -11.5 -2.05 -11.5 L-1.75 -11.25 Q-1.55 -11.15 -1.5 -11.0 L-1.4 -11.1 Q-1.35 -11.15 -1.35 -11.3 -1.35 -11.45 -1.45 -11.55 -1.6 -11.7 -1.85 -11.7 M-1.55 -11.85 Q-1.3 -11.65 -1.25 -11.55 -1.2 -11.5 -1.2 -11.25 L-1.25 -11.0 Q-1.3 -10.9 -1.5 -10.75 L-1.85 -11.2 Q-2.1 -11.5 -2.4 -11.5 -3.05 -11.5 -3.35 -11.3 -3.5 -11.05 -3.6 -11.05 -3.65 -11.1 -3.7 -11.15 L-3.7 -11.35 Q-3.7 -11.6 -3.6 -11.7 L-3.2 -12.05 -2.75 -12.05 Q-2.7 -12.0 -2.6 -11.85 L-2.45 -11.65 -2.05 -11.65 -1.95 -11.85 -1.55 -11.85 M-2.85 -11.95 L-3.15 -11.95 -3.5 -11.6 Q-3.65 -11.4 -3.6 -11.25 L-3.55 -11.25 -3.35 -11.45 Q-3.25 -11.5 -2.85 -11.6 L-2.65 -11.65 Q-2.7 -11.75 -2.85 -11.95 M-0.15 -6.55 L-0.15 -6.7 Q-0.15 -6.85 -0.15 -6.9 -0.25 -7.05 -0.5 -7.05 -1.3 -7.05 -1.6 -6.5 -1.8 -6.15 -1.8 -5.7 -1.8 -5.55 -1.75 -5.4 -1.65 -5.2 -1.6 -5.1 L-1.7 -5.1 -1.7 -5.05 -1.65 -5.0 Q-1.1 -5.15 -0.9 -5.3 -0.65 -5.45 -0.55 -5.75 -0.55 -5.9 -0.3 -6.3 L-0.15 -6.55 M-0.4 -5.9 L-0.45 -5.65 Q-0.5 -5.5 -0.9 -5.15 L-1.3 -4.85 -1.75 -4.9 -1.8 -4.95 -1.85 -5.1 -1.85 -5.15 Q-1.9 -5.3 -1.9 -5.65 -1.9 -7.25 -0.25 -7.2 0.0 -6.95 0.0 -6.8 L0.0 -6.5 Q0.0 -6.4 -0.1 -6.3 L-0.3 -6.05 -0.4 -5.9" fill="#31a800" fill-opacity="0.6" fill-rule="evenodd" stroke="none"/>
      <path d="M-0.45 -5.65 L-0.4 -5.9 -0.3 -6.05 -0.1 -6.3 Q0.0 -6.4 0.0 -6.5 L0.0 -6.8 Q0.0 -6.95 -0.25 -7.2 -1.9 -7.25 -1.9 -5.65 -1.9 -5.3 -1.85 -5.15 L-1.85 -5.1 -1.8 -4.95 -1.75 -4.9 -1.3 -4.85 -0.9 -5.15 Q-0.5 -5.5 -0.45 -5.65 M-2.65 -11.65 L-2.85 -11.6 Q-3.25 -11.5 -3.35 -11.45 L-3.55 -11.25 -3.6 -11.25 Q-3.65 -11.4 -3.5 -11.6 L-3.15 -11.95 -2.85 -11.95 Q-2.7 -11.75 -2.65 -11.65 M-1.85 -11.7 Q-1.6 -11.7 -1.45 -11.55 -1.35 -11.45 -1.35 -11.3 -1.35 -11.15 -1.4 -11.1 L-1.5 -11.0 Q-1.55 -11.15 -1.75 -11.25 L-2.05 -11.5 Q-2.0 -11.5 -1.95 -11.6 L-1.85 -11.7 M-0.05 -13.4 L-0.2 -13.35 -1.05 -12.85 -1.1 -12.9 -1.1 -13.05 Q-1.1 -13.25 -0.95 -13.35 -0.75 -13.5 -0.2 -13.55 L-0.05 -13.4 M1.55 -10.35 L2.45 -10.45 Q2.55 -10.4 2.85 -10.1 3.2 -9.8 3.2 -9.75 L3.05 -8.9 Q3.05 -8.55 3.15 -8.35 L3.1 -8.4 2.8 -8.4 Q2.55 -8.2 2.5 -8.1 2.45 -7.95 2.45 -7.7 2.45 -7.6 2.45 -7.5 L2.2 -7.55 Q2.15 -7.7 2.15 -8.0 L2.05 -8.5 1.7 -8.5 Q1.15 -8.2 0.95 -7.95 0.8 -7.75 0.8 -7.45 0.8 -7.2 0.9 -6.8 1.05 -6.35 1.25 -6.25 L2.0 -6.25 Q2.3 -6.4 2.45 -6.65 2.6 -6.9 2.6 -7.1 2.75 -6.85 3.05 -6.6 3.2 -6.6 3.35 -6.5 3.5 -6.35 3.5 -6.25 3.4 -5.9 3.35 -5.75 3.3 -5.4 3.7 -5.25 L3.75 -5.15 3.85 -4.85 Q3.85 -4.7 3.7 -4.45 3.5 -4.15 3.2 -4.1 L3.1 -4.25 2.2 -4.3 Q1.7 -4.3 0.95 -3.7 L0.2 -3.05 Q-0.35 -3.0 -0.7 -2.75 -1.0 -2.55 -2.3 -2.5 -2.4 -2.55 -2.65 -2.95 -2.85 -3.35 -2.85 -3.4 -2.85 -3.55 -2.65 -4.0 L-2.2 -4.0 -2.1 -4.1 -2.2 -4.2 -2.1 -4.3 Q-2.0 -4.4 -2.0 -4.55 -2.0 -4.8 -2.15 -4.9 L-2.15 -4.95 -2.4 -5.2 -2.7 -5.45 Q-3.3 -5.2 -3.6 -5.6 -3.8 -5.85 -3.8 -6.15 -3.8 -6.55 -3.45 -7.0 -3.1 -7.5 -2.5 -7.7 -2.05 -7.85 -1.65 -7.8 -1.4 -7.75 -1.1 -8.0 L-0.75 -8.2 Q-0.65 -8.35 -0.55 -8.45 -0.45 -8.65 -0.4 -8.95 -0.35 -9.2 -0.35 -9.35 L-0.15 -9.35 Q0.5 -9.25 0.85 -9.7 L1.1 -10.1 Q1.25 -10.3 1.35 -10.35 L1.55 -10.35 M2.4 -14.45 Q2.7 -14.3 2.7 -14.25 2.7 -14.0 2.5 -13.85 2.35 -13.75 1.85 -13.55 L1.85 -13.6 Q2.15 -13.75 2.3 -14.0 2.45 -14.25 2.4 -14.45" fill="#262626" fill-opacity="0.8" fill-rule="evenodd" stroke="none"/>
      <path d="M2.4 -10.1 L2.45 -10.15 Q2.9 -9.9 2.9 -9.75 2.8 -9.7 2.8 -9.65 L2.9 -9.2 2.85 -8.85 2.85 -8.8 Q2.8 -8.85 2.75 -8.85 2.65 -8.85 2.55 -8.8 2.45 -8.65 2.4 -8.65 L2.25 -8.6 2.25 -8.65 Q2.25 -8.7 2.3 -8.75 L2.3 -8.8 2.25 -8.9 2.1 -9.0 1.95 -8.95 1.45 -8.95 1.35 -9.15 1.3 -9.35 Q1.3 -9.45 1.35 -9.55 1.4 -9.6 1.55 -9.65 L2.2 -9.65 Q2.25 -9.65 2.4 -9.7 L2.55 -9.85 2.5 -10.0 2.4 -10.1 M0.2 -8.95 L0.1 -9.05 0.05 -9.2 0.45 -9.2 0.5 -9.25 0.55 -9.25 0.45 -9.1 0.3 -8.95 0.2 -8.95 M3.1 -6.25 L3.1 -6.3 Q3.05 -6.3 3.05 -6.35 3.05 -6.45 3.1 -6.4 3.25 -6.35 3.25 -6.15 L3.25 -5.95 Q3.15 -5.8 2.9 -5.75 2.85 -5.75 2.85 -5.7 L2.85 -5.65 2.55 -5.55 2.45 -5.45 2.75 -5.45 3.15 -5.35 3.25 -5.3 3.25 -5.25 Q3.35 -5.2 3.5 -5.2 L3.6 -5.05 3.65 -4.95 Q3.65 -4.85 3.55 -4.7 L3.3 -4.45 3.25 -4.45 3.25 -4.55 3.1 -4.65 Q3.0 -4.75 2.8 -4.75 L2.5 -4.7 2.4 -4.65 2.35 -4.65 Q2.25 -4.65 2.25 -4.7 L1.85 -4.6 Q1.7 -4.55 1.6 -4.55 L1.5 -4.55 1.5 -4.6 1.65 -4.7 1.85 -4.8 1.9 -4.85 1.55 -4.85 1.2 -4.75 Q1.05 -4.75 0.9 -4.65 0.75 -4.5 0.7 -4.4 0.45 -4.0 0.45 -3.9 0.45 -3.85 0.55 -3.85 L0.65 -3.8 0.3 -3.55 0.0 -3.3 -0.05 -3.3 -0.05 -3.4 -0.15 -3.5 -0.2 -3.5 -0.25 -3.55 Q-0.5 -3.5 -0.55 -3.4 L-0.7 -3.2 -1.25 -3.1 -1.3 -3.05 -1.35 -3.05 -1.45 -2.95 -1.45 -3.0 -1.7 -2.85 -1.7 -2.75 -2.05 -2.75 -2.2 -2.8 Q-2.3 -2.9 -2.6 -3.35 -2.6 -3.45 -2.35 -3.85 L-1.95 -3.85 -1.95 -3.8 Q-1.6 -3.8 -1.45 -3.95 -1.6 -4.0 -1.6 -4.1 L-1.55 -4.2 -1.65 -4.3 -1.65 -4.35 Q-1.55 -4.35 -1.2 -4.35 -1.15 -4.35 -1.1 -4.4 L-1.0 -4.5 -1.1 -4.5 -1.1 -4.55 Q-1.1 -4.7 -0.9 -4.85 L-0.45 -5.05 -0.45 -4.95 Q-0.2 -4.95 -0.05 -5.05 L0.05 -5.1 0.15 -5.25 Q0.2 -5.4 0.2 -5.5 L0.2 -5.55 0.05 -5.65 0.1 -5.8 Q0.15 -5.95 0.2 -6.0 L0.4 -6.0 Q0.55 -6.1 0.6 -6.3 L0.7 -6.6 0.75 -6.35 Q0.8 -6.15 0.9 -6.05 L1.0 -6.0 1.15 -5.85 1.35 -5.75 Q1.75 -5.75 2.1 -5.85 2.25 -5.95 2.4 -6.0 L2.3 -5.95 2.3 -6.0 2.5 -6.1 Q2.7 -6.3 2.75 -6.6 L2.8 -6.6 2.85 -6.4 Q2.85 -6.3 2.95 -6.25 L3.1 -6.25 M0.95 -5.3 Q0.9 -5.35 0.85 -5.35 0.7 -5.4 0.4 -5.2 0.25 -5.1 0.05 -5.0 L-0.15 -4.85 Q-0.25 -4.75 -0.25 -4.65 L-0.25 -4.6 -0.2 -4.6 -0.1 -4.7 0.15 -4.75 0.5 -5.0 Q0.75 -5.15 1.0 -5.2 L1.05 -5.3 0.95 -5.3 M-0.15 -8.4 L-0.05 -8.3 -0.05 -8.2 Q-0.05 -8.05 -0.25 -8.0 L-0.85 -7.8 -0.95 -7.8 Q-0.65 -7.95 -0.45 -8.25 L-0.15 -8.65 -0.15 -8.4 M-2.3 -6.65 L-2.0 -6.85 Q-2.0 -6.65 -2.35 -6.25 -2.6 -5.9 -2.45 -5.75 -2.55 -5.75 -2.7 -5.85 L-3.0 -5.85 -3.0 -5.75 -3.05 -5.75 Q-3.4 -5.8 -3.5 -5.95 -3.6 -6.05 -3.6 -6.2 L-3.6 -6.4 -3.35 -6.65 -3.1 -6.65 -3.0 -6.5 -2.9 -6.45 Q-2.65 -6.45 -2.3 -6.65" fill="#c1ff3f" fill-opacity="0.9019608" fill-rule="evenodd" stroke="none"/>
    </g>
  </defs>
</svg>
