<?xml version="1.0" encoding="UTF-8" standalone="no"?>
<svg xmlns:ffdec="https://www.free-decompiler.com/flash" xmlns:xlink="http://www.w3.org/1999/xlink" ffdec:objectType="frame" height="130.2px" width="106.75px" xmlns="http://www.w3.org/2000/svg">
  <g transform="matrix(1.0, 0.0, 0.0, 1.0, 47.25, 124.25)">
    <use ffdec:characterId="4169" height="8.7" transform="matrix(7.0, 0.0, 0.0, 7.0, -21.0, -94.5)" width="7.9" xlink:href="#shape0"/>
  </g>
  <defs>
    <g id="shape0" transform="matrix(1.0, 0.0, 0.0, 1.0, 3.0, 13.5)">
      <path d="M3.25 -12.1 Q2.6 -12.2 2.3 -12.1 1.95 -12.05 1.65 -11.75 L1.6 -11.8 Q1.6 -11.85 1.75 -12.15 1.85 -12.4 1.85 -12.5 1.85 -12.6 1.8 -12.65 1.7 -12.7 1.7 -12.75 1.7 -13.0 2.1 -13.3 2.5 -13.6 2.9 -13.5 3.2 -13.3 3.1 -12.8 3.0 -12.3 3.25 -12.15 L3.25 -12.1 M2.95 -12.55 L2.95 -12.75 3.0 -13.0 Q3.0 -13.45 2.45 -13.3 1.85 -13.15 1.85 -12.75 1.85 -12.65 1.9 -12.6 L1.95 -12.45 1.95 -12.3 Q1.9 -12.2 1.95 -12.15 L2.2 -12.3 Q2.5 -12.45 2.8 -12.25 L2.9 -12.25 Q2.95 -12.3 2.95 -12.55 M0.5 -10.7 L0.5 -10.6 0.7 -10.85 Q0.9 -11.15 0.95 -11.35 0.8 -11.45 0.6 -11.25 0.45 -11.05 0.45 -10.9 L0.5 -10.7 M1.15 -11.35 Q1.15 -11.3 0.85 -10.85 0.55 -10.4 0.45 -10.35 0.4 -10.45 0.35 -10.5 L0.35 -10.65 Q0.35 -11.2 0.75 -11.45 0.9 -11.55 1.0 -11.55 1.15 -11.5 1.15 -11.35 M1.45 -8.05 L1.5 -7.9 Q1.55 -7.75 1.65 -7.7 1.95 -7.45 1.95 -7.4 L1.95 -7.25 1.9 -7.25 Q1.85 -7.25 1.8 -7.3 L1.7 -7.35 1.35 -7.35 Q0.75 -7.35 0.4 -7.05 0.15 -6.85 0.1 -6.6 L0.05 -6.6 Q0.0 -6.65 0.0 -6.85 0.0 -7.0 0.05 -7.05 L0.1 -7.2 Q0.15 -7.3 0.15 -7.5 0.15 -7.65 0.45 -7.85 0.7 -8.05 0.8 -8.05 L1.45 -8.05 M0.85 -7.95 L0.6 -7.8 Q0.35 -7.65 0.3 -7.55 L0.1 -6.95 0.45 -7.25 Q0.7 -7.4 1.35 -7.5 L1.55 -7.55 Q1.35 -7.7 1.35 -7.95 L0.85 -7.95 M2.7 -8.35 Q2.9 -8.15 2.95 -8.0 L3.25 -8.2 Q3.5 -8.35 3.7 -8.35 L4.3 -8.35 Q4.45 -8.25 4.55 -8.1 L4.7 -7.85 4.75 -7.95 4.8 -8.15 Q4.8 -8.25 4.7 -8.4 L4.6 -8.6 Q4.5 -8.6 4.4 -8.5 L4.3 -8.45 4.1 -8.45 Q3.8 -8.55 3.75 -8.9 3.7 -9.3 3.55 -9.45 L2.85 -9.15 Q2.55 -9.05 2.55 -8.75 2.55 -8.5 2.7 -8.35 M2.45 -8.75 Q2.45 -9.15 2.9 -9.45 3.35 -9.7 3.6 -9.6 3.8 -9.5 3.8 -8.9 3.85 -8.5 4.3 -8.65 L4.65 -8.65 4.85 -8.35 4.9 -8.05 Q4.9 -7.95 4.85 -7.85 L4.75 -7.6 4.65 -7.55 Q4.5 -7.55 4.5 -7.65 L4.55 -7.8 4.45 -8.0 4.25 -8.2 3.7 -8.2 Q3.45 -8.2 3.2 -8.0 L2.95 -7.75 2.8 -7.75 2.85 -7.8 2.85 -7.95 2.65 -8.3 Q2.45 -8.6 2.45 -8.75 M-3.0 -8.75 Q-3.0 -8.9 -2.8 -9.1 -2.6 -9.3 -2.65 -9.65 -2.65 -9.85 -2.55 -10.1 -2.4 -10.35 -2.15 -10.5 L-1.9 -10.45 -1.65 -10.3 Q-1.5 -10.15 -1.5 -10.05 -1.5 -9.9 -1.65 -9.55 L-1.65 -9.45 Q-1.25 -9.4 -1.2 -9.35 -1.25 -9.3 -1.35 -9.25 L-1.95 -9.15 Q-2.45 -9.0 -2.65 -8.85 -2.85 -8.7 -2.9 -8.5 L-2.95 -8.45 -3.0 -8.75 M-1.85 -10.3 Q-2.35 -10.25 -2.45 -10.05 -2.5 -9.95 -2.5 -9.55 -2.5 -9.45 -2.65 -9.25 L-2.85 -8.85 -2.45 -9.05 Q-2.2 -9.15 -1.95 -9.35 -1.85 -9.4 -1.75 -9.6 -1.65 -9.8 -1.65 -9.95 -1.65 -10.05 -1.75 -10.15 -1.85 -10.2 -1.85 -10.3 M-2.1 -6.65 Q-2.45 -6.55 -2.45 -6.45 L-2.45 -6.2 Q-2.45 -6.15 -2.65 -5.8 -2.8 -5.5 -2.8 -5.4 -2.8 -5.3 -2.75 -5.2 L-2.65 -5.05 -2.55 -5.3 -2.4 -5.6 -2.1 -5.9 -1.8 -6.1 Q-1.8 -6.2 -1.95 -6.4 -2.05 -6.65 -2.1 -6.65 M-2.15 -6.7 Q-1.8 -6.8 -1.8 -6.4 -1.65 -6.25 -1.55 -6.15 L-2.15 -5.6 Q-2.5 -5.25 -2.45 -4.85 L-2.5 -4.8 Q-2.8 -5.05 -2.9 -5.15 L-2.9 -5.4 Q-2.9 -5.55 -2.8 -5.85 -2.65 -6.2 -2.6 -6.35 -2.55 -6.6 -2.15 -6.7" fill="#31a800" fill-opacity="0.6" fill-rule="evenodd" stroke="none"/>
      <path d="M-2.1 -6.65 Q-2.05 -6.65 -1.95 -6.4 -1.8 -6.2 -1.8 -6.1 L-2.1 -5.9 -2.4 -5.6 -2.55 -5.3 -2.65 -5.05 -2.75 -5.2 Q-2.8 -5.3 -2.8 -5.4 -2.8 -5.5 -2.65 -5.8 -2.45 -6.15 -2.45 -6.2 L-2.45 -6.45 Q-2.45 -6.55 -2.1 -6.65 M-1.85 -10.3 Q-1.85 -10.2 -1.75 -10.15 -1.65 -10.05 -1.65 -9.95 -1.65 -9.8 -1.75 -9.6 -1.85 -9.4 -1.95 -9.35 -2.2 -9.15 -2.45 -9.05 L-2.85 -8.85 -2.65 -9.25 Q-2.5 -9.45 -2.5 -9.55 -2.5 -9.95 -2.45 -10.05 -2.35 -10.25 -1.85 -10.3 M2.7 -8.35 Q2.55 -8.5 2.55 -8.75 2.55 -9.05 2.85 -9.15 L3.55 -9.45 Q3.7 -9.3 3.75 -8.9 3.8 -8.55 4.1 -8.45 L4.3 -8.45 4.4 -8.5 Q4.5 -8.6 4.6 -8.6 L4.7 -8.4 Q4.8 -8.25 4.8 -8.15 L4.75 -7.95 4.7 -7.85 4.55 -8.1 Q4.45 -8.25 4.3 -8.35 L3.7 -8.35 Q3.5 -8.35 3.25 -8.2 L2.95 -8.0 Q2.9 -8.15 2.7 -8.35 M1.35 -7.5 Q0.7 -7.4 0.45 -7.25 L0.1 -6.95 0.3 -7.55 Q0.35 -7.65 0.6 -7.8 L0.85 -7.95 1.35 -7.95 Q1.35 -7.7 1.55 -7.55 L1.35 -7.5 M0.5 -10.7 L0.45 -10.9 Q0.45 -11.05 0.6 -11.25 0.8 -11.45 0.95 -11.35 0.9 -11.15 0.7 -10.85 L0.5 -10.6 0.5 -10.7 M2.95 -12.55 Q2.95 -12.3 2.9 -12.25 L2.8 -12.25 Q2.5 -12.45 2.2 -12.3 L1.95 -12.15 Q1.9 -12.2 1.95 -12.3 L1.95 -12.45 1.9 -12.6 Q1.85 -12.65 1.85 -12.75 1.85 -13.15 2.45 -13.3 3.0 -13.45 3.0 -13.0 L2.95 -12.75 2.95 -12.55" fill="#262626" fill-opacity="0.8" fill-rule="evenodd" stroke="none"/>
    </g>
  </defs>
</svg>
