<?xml version="1.0" encoding="UTF-8" standalone="no"?>
<svg xmlns:ffdec="https://www.free-decompiler.com/flash" xmlns:xlink="http://www.w3.org/1999/xlink" ffdec:objectType="frame" height="367.45px" width="215.1px" xmlns="http://www.w3.org/2000/svg">
  <g transform="matrix(1.0, 0.0, 0.0, 1.0, 100.25, 239.65)">
    <use ffdec:characterId="486" ffdec:characterName="a_GhoulArmL09" height="21.7" transform="matrix(1.0, 0.0, 0.0, 1.0, 18.6, -3.4)" width="51.1" xlink:href="#sprite0"/>
    <use ffdec:characterId="484" ffdec:characterName="a_GhoulBody5" height="78.4" transform="matrix(1.0, 0.0, 0.0, 1.0, -32.9, -61.0)" width="63.0" xlink:href="#sprite1"/>
    <use ffdec:characterId="482" ffdec:characterName="a_GhoulArmR09" height="29.75" transform="matrix(1.0, 0.0, 0.0, 1.0, -3.75, 1.0)" width="57.75" xlink:href="#sprite2"/>
  </g>
  <defs>
    <g id="sprite0" transform="matrix(1.0, 0.0, 0.0, 1.0, 0.0, 0.0)">
      <use ffdec:characterId="485" height="3.1" transform="matrix(7.0, 0.0, 0.0, 7.0, 0.0, 0.0)" width="7.3" xlink:href="#shape0"/>
    </g>
    <g id="shape0" transform="matrix(1.0, 0.0, 0.0, 1.0, 0.0, 0.0)">
      <path d="M0.35 0.25 L0.55 0.0 1.65 0.55 Q2.3 0.75 3.9 1.0 L4.9 1.0 Q5.6 1.05 6.45 1.55 7.3 2.05 7.3 2.35 7.3 2.55 7.15 2.7 7.05 2.9 6.85 2.95 L6.8 3.0 Q6.75 3.1 6.7 3.1 L6.2 2.8 5.7 2.45 Q5.5 2.35 5.15 2.25 4.7 2.1 4.15 2.1 2.75 2.0 2.05 1.85 1.4 1.7 0.9 1.35 0.35 1.0 0.0 0.65 L0.15 0.45 Q0.6 0.85 1.2 1.2 1.55 1.35 2.6 1.55 3.8 1.8 4.9 1.85 5.25 1.9 6.05 2.3 L6.15 2.3 5.15 1.65 4.8 1.6 4.25 1.5 Q4.15 1.5 4.1 1.45 L4.15 1.4 5.15 1.65 Q5.8 1.75 6.05 1.9 6.15 1.95 6.55 2.25 L6.9 2.5 7.0 2.5 Q6.85 1.8 4.85 1.35 L3.9 1.3 Q1.7 1.05 0.6 0.4 L0.35 0.25" fill="#b18cff" fill-rule="evenodd" stroke="none"/>
      <path d="M0.35 0.25 L0.6 0.4 Q1.7 1.05 3.9 1.3 L4.85 1.35 Q6.85 1.8 7.0 2.5 L6.9 2.5 6.55 2.25 Q6.15 1.95 6.05 1.9 5.8 1.75 5.15 1.65 L4.15 1.4 4.1 1.45 Q4.15 1.5 4.25 1.5 L4.8 1.6 5.15 1.65 6.15 2.3 6.05 2.3 Q5.25 1.9 4.9 1.85 3.8 1.8 2.6 1.55 1.55 1.35 1.2 1.2 0.6 0.85 0.15 0.45 L0.2 0.45 0.35 0.25" fill="#6d2378" fill-opacity="0.73333335" fill-rule="evenodd" stroke="none"/>
    </g>
    <g id="sprite1" transform="matrix(1.0, 0.0, 0.0, 1.0, 0.0, 0.0)">
      <use ffdec:characterId="483" height="11.2" transform="matrix(7.0, 0.0, 0.0, 7.0, 0.0, 0.0)" width="9.0" xlink:href="#shape1"/>
    </g>
    <g id="shape1" transform="matrix(1.0, 0.0, 0.0, 1.0, 0.0, 0.0)">
      <path d="M8.2 3.3 L8.25 3.6 Q8.25 3.75 8.2 3.95 8.1 4.1 8.1 4.35 L8.1 4.5 Q7.9 4.1 7.65 3.15 7.5 2.25 7.2 1.8 7.65 2.25 7.9 2.65 8.1 3.0 8.2 3.3 M7.75 8.25 L7.75 7.9 Q7.6 8.2 6.9 9.0 6.25 9.75 6.05 9.75 6.0 9.75 5.95 9.3 L5.95 9.2 5.85 8.5 5.7 7.95 5.55 7.45 5.6 7.45 5.1 7.9 4.75 8.3 Q4.7 8.3 4.5 7.65 4.25 6.95 4.2 6.55 L4.05 5.65 Q4.0 5.25 4.05 4.85 L4.05 4.75 4.1 4.8 4.2 4.95 4.45 5.2 5.2 5.85 5.5 5.6 5.75 5.35 6.05 5.1 6.35 5.55 6.85 6.35 Q7.0 6.6 7.15 6.7 L7.25 6.5 7.5 6.1 7.65 5.75 7.7 5.6 Q7.85 5.15 7.85 4.9 7.95 4.85 8.1 5.05 L8.5 5.45 8.55 5.55 8.7 5.8 8.7 5.7 8.7 5.8 8.65 6.05 8.55 6.6 8.45 6.9 8.45 6.95 8.3 7.35 8.15 7.65 7.85 8.1 7.8 8.2 7.75 8.25 M5.95 4.5 Q5.2 4.5 4.75 4.0 4.55 3.8 4.4 3.5 L4.25 3.2 Q4.05 2.85 3.85 2.65 L3.7 2.6 3.5 2.6 3.5 2.55 3.75 2.4 3.9 2.35 Q4.15 2.2 4.4 2.2 L4.45 2.2 Q5.2 2.05 5.75 2.55 6.05 2.8 6.25 3.2 L6.5 3.6 6.85 4.55 6.8 4.6 6.7 4.5 Q6.65 4.45 6.55 4.45 L5.95 4.5" fill="#00ccff" fill-rule="evenodd" stroke="none"/>
      <path d="M7.85 2.0 Q8.4 2.65 8.7 3.65 9.0 4.6 9.0 5.4 L9.0 6.05 8.95 6.4 8.95 6.45 Q8.9 6.7 8.75 7.05 L8.75 7.1 Q8.7 7.4 8.3 8.0 7.9 8.6 7.65 8.9 7.2 9.35 6.5 9.9 L5.8 10.35 Q5.4 10.65 4.4 10.9 3.45 11.2 2.9 11.2 L2.85 11.2 2.25 11.1 1.9 10.95 1.35 10.95 Q1.0 10.95 0.7 10.8 L0.65 10.8 0.6 10.75 Q0.0 10.45 0.0 9.95 0.0 9.75 0.3 9.3 0.45 9.0 0.55 8.65 0.45 8.4 0.3 8.0 0.05 7.45 0.05 7.2 0.05 6.8 0.25 6.5 0.55 6.15 1.25 5.75 1.85 5.45 2.35 5.05 L2.5 4.85 2.55 4.6 2.55 4.3 2.5 4.15 Q2.4 3.55 2.1 3.55 2.05 3.55 1.65 3.7 1.25 3.85 1.05 3.85 0.6 3.85 0.25 3.7 0.0 3.55 0.0 3.4 0.0 3.2 0.05 3.2 L0.5 3.2 Q0.95 3.2 1.3 2.8 L1.55 2.3 1.85 1.5 2.05 1.1 Q2.2 0.85 2.4 0.7 2.55 0.5 2.65 0.45 L2.7 0.45 Q2.9 0.3 3.05 0.25 L3.35 0.15 Q3.5 0.1 3.6 0.1 3.95 0.0 4.4 0.0 4.9 0.05 5.85 0.35 6.95 0.85 7.85 2.0 M7.2 1.8 Q6.9 1.45 6.55 1.2 6.1 0.8 5.6 0.6 5.2 0.45 4.75 0.35 L4.5 0.35 4.1 0.3 3.95 0.35 3.65 0.35 3.55 0.4 3.45 0.4 3.25 0.5 3.2 0.55 3.15 0.55 3.1 0.6 Q2.9 0.7 2.75 0.85 L2.7 0.9 Q2.55 1.0 2.5 1.15 L2.4 1.3 2.25 1.55 2.25 1.65 2.2 1.65 Q2.1 1.8 1.9 2.35 L1.7 2.8 1.65 2.85 Q1.3 3.4 0.9 3.45 L0.75 3.5 0.7 3.55 0.4 3.5 0.55 3.55 0.9 3.6 Q1.05 3.6 1.3 3.5 L1.45 3.4 Q1.75 3.3 2.0 3.25 L2.1 3.25 Q2.25 3.25 2.4 3.35 L2.4 3.25 2.8 4.05 2.85 4.35 2.85 4.6 2.75 5.0 2.7 5.1 2.6 5.35 2.55 5.45 2.5 5.45 2.25 5.6 2.1 5.7 1.6 5.95 1.45 6.05 0.85 6.4 Q0.4 6.75 0.4 7.2 0.4 7.4 0.65 7.8 0.9 8.2 0.9 8.55 L0.9 8.7 Q0.85 9.0 0.6 9.35 0.5 9.5 0.45 9.7 L0.35 10.0 0.4 10.1 0.45 10.25 0.55 10.3 Q0.65 10.45 0.9 10.55 L1.15 10.6 1.35 10.65 Q2.0 10.65 2.3 10.8 L2.45 10.85 2.6 10.85 2.75 10.9 3.3 10.9 3.35 10.85 3.4 10.85 3.75 10.8 3.9 10.75 4.15 10.7 4.2 10.7 4.3 10.65 5.0 10.4 5.5 10.15 5.75 10.0 6.55 9.5 6.95 9.15 7.4 8.7 7.4 8.65 7.75 8.3 7.75 8.25 7.8 8.2 7.85 8.1 8.15 7.65 8.3 7.35 8.45 6.95 8.45 6.9 8.55 6.6 8.65 6.05 8.7 5.8 8.7 5.7 8.7 4.95 8.55 4.25 8.55 4.2 8.45 3.9 8.45 3.95 8.35 3.6 8.2 3.3 Q8.1 3.0 7.9 2.65 7.65 2.25 7.2 1.8" fill="#b18cff" fill-rule="evenodd" stroke="none"/>
      <path d="M7.2 1.8 Q7.5 2.25 7.65 3.15 7.9 4.1 8.1 4.5 L8.1 4.35 Q8.1 4.1 8.2 3.95 8.25 3.75 8.25 3.6 L8.2 3.3 8.35 3.6 8.45 3.95 8.45 3.9 8.55 4.2 8.55 4.25 8.7 4.95 8.7 5.7 8.7 5.8 8.55 5.55 8.5 5.45 8.1 5.05 Q7.95 4.85 7.85 4.9 7.85 5.15 7.7 5.6 L7.65 5.75 7.5 6.1 7.25 6.5 7.15 6.7 Q7.0 6.6 6.85 6.35 L6.35 5.55 6.05 5.1 5.75 5.35 5.5 5.6 5.2 5.85 4.45 5.2 4.2 4.95 4.1 4.8 4.05 4.75 4.05 4.85 Q4.0 5.25 4.05 5.65 L4.2 6.55 Q4.25 6.95 4.5 7.65 4.7 8.3 4.75 8.3 L5.1 7.9 5.6 7.45 5.55 7.45 5.7 7.95 5.85 8.5 5.95 9.2 5.95 9.3 Q6.0 9.75 6.05 9.75 6.25 9.75 6.9 9.0 7.6 8.2 7.75 7.9 L7.75 8.25 7.75 8.3 7.4 8.65 7.4 8.7 6.95 9.15 6.55 9.5 5.75 10.0 5.5 10.15 5.0 10.4 4.3 10.65 4.2 10.7 4.15 10.7 3.9 10.75 3.75 10.8 3.4 10.85 3.35 10.85 3.3 10.9 2.75 10.9 2.6 10.85 2.45 10.85 2.3 10.8 Q2.0 10.65 1.35 10.65 L1.15 10.6 0.9 10.55 Q0.65 10.45 0.55 10.3 L0.45 10.25 0.4 10.1 0.35 10.0 0.45 9.7 Q0.5 9.5 0.6 9.35 0.85 9.0 0.9 8.7 L0.9 8.55 Q0.9 8.2 0.65 7.8 0.4 7.4 0.4 7.2 0.4 6.75 0.85 6.4 L1.45 6.05 1.6 5.95 2.1 5.7 2.25 5.6 2.5 5.45 2.55 5.45 2.6 5.35 2.7 5.1 2.75 5.0 2.85 4.6 2.85 4.35 2.8 4.05 2.4 3.25 2.4 3.35 Q2.25 3.25 2.1 3.25 L2.0 3.25 Q1.75 3.3 1.45 3.4 L1.3 3.5 Q1.05 3.6 0.9 3.6 L0.55 3.55 0.4 3.5 0.7 3.55 0.75 3.5 0.9 3.45 Q1.3 3.4 1.65 2.85 L1.7 2.8 1.9 2.35 Q2.1 1.8 2.2 1.65 L2.25 1.65 2.25 1.55 2.4 1.3 2.5 1.15 Q2.55 1.0 2.7 0.9 L2.75 0.85 Q2.9 0.7 3.1 0.6 L3.15 0.55 3.2 0.55 3.25 0.5 3.45 0.4 3.55 0.4 3.65 0.35 3.95 0.35 4.1 0.3 4.5 0.35 4.75 0.35 Q5.2 0.45 5.6 0.6 6.1 0.8 6.55 1.2 6.9 1.45 7.2 1.8 M5.95 4.5 L6.55 4.45 Q6.65 4.45 6.7 4.5 L6.8 4.6 6.85 4.55 6.5 3.6 6.25 3.2 Q6.05 2.8 5.75 2.55 5.2 2.05 4.45 2.2 L4.4 2.2 Q4.15 2.2 3.9 2.35 L3.75 2.4 3.5 2.55 3.5 2.6 3.7 2.6 3.85 2.65 Q4.05 2.85 4.25 3.2 L4.4 3.5 Q4.55 3.8 4.75 4.0 5.2 4.5 5.95 4.5 M2.35 3.15 L2.4 3.2 2.3 2.95 2.35 3.15" fill="#6d2378" fill-opacity="0.73333335" fill-rule="evenodd" stroke="none"/>
      <path d="M2.35 3.15 L2.3 2.95 2.4 3.2 2.35 3.15" fill="#111111" fill-rule="evenodd" stroke="none"/>
    </g>
    <g id="sprite2" transform="matrix(1.0, 0.0, 0.0, 1.0, 0.0, 0.0)">
      <use ffdec:characterId="481" height="4.25" transform="matrix(7.0, 0.0, 0.0, 7.0, 0.0, 0.0)" width="8.25" xlink:href="#shape2"/>
    </g>
    <g id="shape2" transform="matrix(1.0, 0.0, 0.0, 1.0, 0.0, 0.0)">
      <path d="M7.55 3.4 L7.05 3.05 Q6.8 2.95 6.1 2.8 L5.1 2.55 5.05 2.6 Q5.15 2.65 5.2 2.7 L5.75 2.75 6.15 2.8 7.1 3.5 7.0 3.45 Q6.25 3.05 5.85 3.0 4.8 3.0 3.6 2.75 2.55 2.5 2.2 2.35 1.3 1.85 0.75 1.15 L0.3 0.4 0.8 0.95 Q1.2 1.3 1.6 1.55 2.65 2.2 4.85 2.5 L5.8 2.5 Q7.85 2.95 8.0 3.65 L7.9 3.7 7.55 3.4" fill="#6d2378" fill-opacity="0.73333335" fill-rule="evenodd" stroke="none"/>
      <path d="M7.45 2.7 Q8.25 3.2 8.25 3.55 8.25 3.7 8.15 3.9 8.0 4.05 7.8 4.1 L7.8 4.2 Q7.75 4.25 7.7 4.25 L6.7 3.65 Q6.5 3.5 6.15 3.4 5.65 3.3 5.1 3.25 3.7 3.2 3.0 3.0 2.4 2.85 1.85 2.5 0.95 1.9 0.55 1.3 L0.15 0.7 Q0.0 0.4 0.0 0.1 L0.0 0.05 0.05 0.0 0.1 0.05 Q0.15 -0.1 0.55 0.3 L1.45 1.1 Q2.5 1.65 2.65 1.7 3.25 1.9 4.9 2.15 L5.85 2.15 Q6.55 2.2 7.45 2.7 M7.55 3.4 L7.9 3.7 8.0 3.65 Q7.85 2.95 5.8 2.5 L4.85 2.5 Q2.65 2.2 1.6 1.55 1.2 1.3 0.8 0.95 L0.3 0.4 0.75 1.15 Q1.3 1.85 2.2 2.35 2.55 2.5 3.6 2.75 4.8 3.0 5.85 3.0 6.25 3.05 7.0 3.45 L7.1 3.5 6.15 2.8 5.75 2.75 5.2 2.7 Q5.15 2.65 5.05 2.6 L5.1 2.55 6.1 2.8 Q6.8 2.95 7.05 3.05 L7.55 3.4" fill="#b18cff" fill-rule="evenodd" stroke="none"/>
    </g>
  </defs>
</svg>
