<?xml version="1.0" encoding="UTF-8" standalone="no"?>
<svg xmlns:ffdec="https://www.free-decompiler.com/flash" xmlns:xlink="http://www.w3.org/1999/xlink" ffdec:objectType="frame" height="224.25px" width="179.25px" xmlns="http://www.w3.org/2000/svg">
  <g transform="matrix(1.0, 0.0, 0.0, 1.0, -2.5, -3.5)">
    <use ffdec:characterId="241" height="224.25" transform="matrix(1.0, 0.0, 0.0, 1.0, 2.5, 3.5)" width="179.25" xlink:href="#shape0"/>
  </g>
  <defs>
    <g id="shape0" transform="matrix(1.0, 0.0, 0.0, 1.0, -2.5, -3.5)">
      <path d="M167.45 172.8 L170.05 179.15 144.75 152.65 141.95 149.85 Q146.65 155.0 152.4 162.15 162.55 174.95 166.65 179.75 170.1 183.85 172.35 185.85 174.25 192.0 174.25 195.75 174.25 196.75 172.55 197.9 163.05 193.25 148.4 175.3 L133.45 156.35 Q125.45 146.3 121.25 143.0 L119.2 150.55 116.4 142.6 Q112.3 132.1 112.05 127.2 L115.5 130.65 Q121.75 136.5 124.5 136.5 126.8 136.5 130.5 139.1 120.3 130.05 111.4 124.1 L111.05 123.1 110.25 121.2 109.0 118.6 105.7 112.05 105.4 111.5 105.4 111.45 102.6 104.15 Q94.1 82.0 93.25 79.25 91.0 72.15 82.3 52.5 L79.75 46.7 79.75 43.1 Q79.75 33.5 78.1 26.25 L80.45 28.4 Q90.85 38.1 99.25 51.65 L99.9 52.75 98.5 53.9 Q94.5 56.9 94.5 58.0 94.5 59.45 98.65 72.45 102.75 85.45 102.75 91.0 102.75 95.3 109.55 104.2 115.9 112.5 121.0 116.0 L121.5 116.35 115.25 99.0 104.5 69.0 105.0 68.5 Q114.4 82.5 134.95 121.75 L143.8 138.95 146.25 142.25 Q147.2 143.55 152.8 154.75 157.15 163.55 163.0 168.5 L167.45 172.8 M63.1 15.2 Q67.85 18.15 72.1 21.4 L72.15 21.55 74.75 28.9 Q78.5 40.05 78.5 51.15 78.5 63.7 82.8 73.4 84.65 77.6 93.3 91.4 L93.45 91.65 96.75 97.15 97.8 98.95 101.55 106.0 108.65 122.25 108.25 122.0 109.15 123.6 Q113.0 134.3 116.1 147.15 L119.25 161.7 116.35 157.2 Q103.95 138.15 101.0 133.25 93.0 119.85 89.5 109.5 88.1 105.35 82.05 96.85 76.45 88.95 75.75 85.5 74.55 79.6 72.25 72.8 70.05 66.2 67.75 61.5 63.9 53.75 55.4 33.7 47.0 13.9 47.0 12.75 47.0 11.4 48.0 9.7 49.0 8.05 49.0 7.4 L59.35 12.95 Q60.55 17.3 63.0 23.2 L62.75 19.1 Q62.75 16.65 63.1 15.2 M39.8 15.05 L41.7 13.05 42.0 12.75 Q50.35 28.45 60.2 53.7 L62.9 60.7 63.8 63.05 Q63.1 62.3 62.2 61.7 59.25 59.85 55.0 60.4 L54.05 60.55 50.9 51.3 Q41.85 24.8 39.3 15.6 L39.8 15.05 M59.85 77.3 Q61.6 76.4 62.95 74.9 L63.0 78.25 Q63.0 79.75 74.2 107.0 L75.5 110.45 Q72.45 110.9 70.05 112.7 L67.75 105.0 67.7 104.75 Q63.5 88.65 63.5 87.85 L59.85 77.3 M64.0 73.45 L64.3 72.9 Q64.95 71.7 65.25 70.35 L65.5 68.0 65.5 67.55 Q76.75 97.2 80.45 106.1 L75.2 95.8 64.0 73.45 M82.8 110.65 L83.5 111.8 83.3 111.7 82.8 110.65 M80.15 166.35 Q87.95 197.7 100.5 220.75 96.5 220.45 90.75 213.95 86.65 203.45 83.25 185.6 81.55 176.55 80.15 166.35 M108.7 218.05 L106.3 219.05 104.4 215.0 97.05 199.65 Q85.75 175.1 82.25 158.75 80.1 148.5 76.5 135.2 L78.0 135.25 Q81.15 135.25 83.4 133.8 86.4 144.2 87.0 151.0 88.3 164.75 99.35 193.6 L106.7 212.55 108.7 218.05 M88.5 121.8 L88.5 121.0 88.45 119.45 90.5 122.6 90.85 123.15 100.45 137.8 97.9 137.95 97.05 138.2 88.5 121.8 M105.15 153.6 Q106.5 151.7 106.5 149.1 L106.45 147.1 109.2 151.45 Q118.8 166.75 124.85 178.05 135.0 197.1 135.0 204.75 135.0 205.1 127.6 208.85 L123.8 199.0 116.75 179.5 Q116.75 177.1 117.05 175.6 L105.15 153.6" fill="#896b4b" fill-rule="evenodd" stroke="none"/>
      <path d="M167.45 172.8 L163.0 168.5 Q157.15 163.55 152.8 154.75 147.2 143.55 146.25 142.25 L143.8 138.95 134.95 121.75 Q114.4 82.5 105.0 68.5 L104.5 69.0 115.25 99.0 121.5 116.35 121.0 116.0 Q115.9 112.5 109.55 104.2 102.75 95.3 102.75 91.0 102.75 85.45 98.65 72.45 94.5 59.45 94.5 58.0 94.5 56.9 98.5 53.9 L99.9 52.75 Q103.25 58.4 112.65 76.05 120.7 91.25 127.75 100.5 130.1 103.6 137.15 115.5 145.4 129.35 152.9 143.35 162.15 160.65 167.45 172.8 M79.75 46.7 L82.3 52.5 Q91.0 72.15 93.25 79.25 94.1 82.0 102.6 104.15 L105.4 111.45 98.05 98.1 82.75 71.0 Q80.4 65.7 79.9 57.75 79.75 55.9 79.75 46.7 M119.2 150.55 L121.25 143.0 Q125.45 146.3 133.45 156.35 L148.4 175.3 Q163.05 193.25 172.55 197.9 169.75 199.65 162.45 201.7 155.65 203.6 140.25 206.75 L140.0 206.25 Q137.8 194.9 130.9 181.45 127.0 173.85 119.9 162.7 L120.5 161.75 120.65 161.2 120.75 158.75 Q120.75 155.8 119.2 150.55 M63.1 15.2 Q62.75 16.65 62.75 19.1 L63.0 23.2 Q60.55 17.3 59.35 12.95 L63.1 15.2 M108.65 122.25 L101.55 106.0 Q104.4 111.65 106.7 117.25 L108.65 122.25 M39.8 15.05 L39.3 15.6 Q41.85 24.8 50.9 51.3 L54.05 60.55 Q50.6 61.2 48.1 63.25 L47.35 59.3 Q44.2 42.5 41.25 31.7 39.55 39.8 41.05 52.3 43.45 67.4 44.25 74.0 45.2 81.85 50.35 96.5 L53.95 107.2 Q53.25 102.55 53.25 99.4 53.25 93.75 50.7 78.15 L54.0 78.5 Q57.35 78.5 59.85 77.3 L63.5 87.85 Q63.5 88.65 67.7 104.75 L64.75 95.0 64.0 95.25 Q66.3 103.25 68.75 113.8 L68.65 113.9 Q65.0 117.7 65.0 124.0 65.0 126.5 67.5 130.0 69.8 133.2 73.25 134.5 L79.15 162.2 80.15 166.35 Q81.55 176.55 83.25 185.6 86.65 203.45 90.75 213.95 87.45 210.25 83.6 204.5 L83.75 204.0 Q73.8 177.1 66.35 153.95 62.0 140.35 59.1 129.75 L61.2 140.6 Q63.85 153.15 67.0 162.5 L73.35 187.6 Q57.0 158.35 51.5 137.5 49.05 128.3 43.0 115.25 L34.0 95.5 Q29.8 85.1 18.3 68.4 8.25 53.8 8.25 52.4 8.25 51.35 21.85 35.35 L34.2 21.15 35.05 22.2 Q38.35 25.8 40.0 30.75 L40.95 30.6 Q38.75 22.85 36.7 18.4 L39.8 15.05 M62.95 74.9 L63.0 74.8 64.0 73.45 75.2 95.8 80.45 106.1 81.25 108.0 82.8 110.65 83.3 111.7 Q80.4 110.05 76.75 110.3 L75.5 110.45 74.2 107.0 Q63.0 79.75 63.0 78.25 L62.95 74.9 M108.7 218.05 L106.7 212.55 99.35 193.6 Q88.3 164.75 87.0 151.0 86.4 144.2 83.4 133.8 85.7 132.3 87.0 129.25 88.4 126.05 88.5 121.8 L97.05 138.2 Q94.2 139.1 91.95 141.65 89.25 144.65 89.25 147.85 L90.8 152.05 Q93.35 156.5 98.5 156.5 102.65 156.5 104.8 154.0 L105.15 153.6 117.05 175.6 Q116.75 177.1 116.75 179.5 L123.8 199.0 127.6 208.85 119.5 212.9 108.7 218.05" fill="#6c553c" fill-rule="evenodd" stroke="none"/>
      <path d="M172.55 197.9 Q174.25 196.75 174.25 195.75 174.25 192.0 172.35 185.85 170.1 183.85 166.65 179.75 162.55 174.95 152.4 162.15 146.65 155.0 141.95 149.85 L144.75 152.65 170.05 179.15 167.45 172.8 Q162.15 160.65 152.9 143.35 145.4 129.35 137.15 115.5 130.1 103.6 127.75 100.5 120.7 91.25 112.65 76.05 103.25 58.4 99.9 52.75 L99.25 51.65 Q90.85 38.1 80.45 28.4 L78.1 26.25 Q79.75 33.5 79.75 43.1 L79.75 46.7 Q79.75 55.9 79.9 57.75 80.4 65.7 82.75 71.0 L98.05 98.1 105.4 111.45 105.4 111.5 105.7 112.05 109.0 118.6 110.25 121.2 111.05 123.1 111.4 124.1 Q120.3 130.05 130.5 139.1 126.8 136.5 124.5 136.5 121.75 136.5 115.5 130.65 L112.05 127.2 Q112.3 132.1 116.4 142.6 L119.2 150.55 Q120.75 155.8 120.75 158.75 L120.65 161.2 120.5 161.75 119.9 162.7 Q127.0 173.85 130.9 181.45 137.8 194.9 140.0 206.25 L140.25 206.75 Q155.65 203.6 162.45 201.7 169.75 199.65 172.55 197.9 M101.55 106.0 L97.8 98.95 96.75 97.15 93.45 91.65 93.3 91.4 Q84.65 77.6 82.8 73.4 78.5 63.7 78.5 51.15 78.5 40.05 74.75 28.9 L72.15 21.55 72.1 21.4 Q67.85 18.15 63.1 15.2 L59.35 12.95 49.0 7.4 Q49.0 8.05 48.0 9.7 47.0 11.4 47.0 12.75 47.0 13.9 55.4 33.7 63.9 53.75 67.75 61.5 70.05 66.2 72.25 72.8 74.55 79.6 75.75 85.5 76.45 88.95 82.05 96.85 88.1 105.35 89.5 109.5 93.0 119.85 101.0 133.25 103.95 138.15 116.35 157.2 L119.25 161.7 116.1 147.15 Q113.0 134.3 109.15 123.6 L108.25 122.0 108.65 122.25 106.7 117.25 Q104.4 111.65 101.55 106.0 M102.25 49.95 Q116.45 73.1 134.65 104.85 181.75 187.3 181.75 197.25 181.75 200.75 162.2 205.7 139.75 211.35 138.25 212.25 134.05 214.75 127.5 215.5 121.15 216.25 118.5 218.0 L112.3 223.25 Q107.9 226.7 105.05 227.55 L104.5 227.75 104.45 227.65 103.5 227.75 Q91.45 227.75 80.0 211.3 73.4 201.85 66.5 185.5 L56.6 163.45 Q50.45 149.75 47.75 141.25 46.0 135.75 43.15 129.25 37.1 112.4 29.05 96.4 16.2 70.8 2.5 55.15 L23.8 31.5 47.75 3.5 64.45 13.45 75.45 19.4 89.95 30.85 Q93.5 35.75 102.25 49.95 M54.05 60.55 L55.0 60.4 Q59.25 59.85 62.2 61.7 63.1 62.3 63.8 63.05 L62.9 60.7 60.2 53.7 Q50.35 28.45 42.0 12.75 L41.7 13.05 39.8 15.05 36.7 18.4 Q38.75 22.85 40.95 30.6 L40.0 30.75 Q38.35 25.8 35.05 22.2 L34.2 21.15 21.85 35.35 Q8.25 51.35 8.25 52.4 8.25 53.8 18.3 68.4 29.8 85.1 34.0 95.5 L43.0 115.25 Q49.05 128.3 51.5 137.5 57.0 158.35 73.35 187.6 L67.0 162.5 Q63.85 153.15 61.2 140.6 L59.1 129.75 Q62.0 140.35 66.35 153.95 73.8 177.1 83.75 204.0 L83.6 204.5 Q87.45 210.25 90.75 213.95 96.5 220.45 100.5 220.75 87.95 197.7 80.15 166.35 L79.15 162.2 73.25 134.5 Q69.8 133.2 67.5 130.0 65.0 126.5 65.0 124.0 65.0 117.7 68.65 113.9 L68.75 113.8 Q66.3 103.25 64.0 95.25 L64.75 95.0 67.7 104.75 67.75 105.0 70.05 112.7 Q72.45 110.9 75.5 110.45 L76.75 110.3 Q80.4 110.05 83.3 111.7 L83.5 111.8 82.8 110.65 81.25 108.0 80.45 106.1 Q76.75 97.2 65.5 67.55 L65.5 68.0 65.25 70.35 Q65.25 67.15 63.25 64.75 61.55 65.45 60.0 69.15 58.75 72.1 58.75 73.0 58.75 74.55 59.4 74.75 L61.0 75.0 Q63.15 74.1 64.15 73.05 L64.3 72.9 64.0 73.45 63.0 74.8 62.95 74.9 Q61.6 76.4 59.85 77.3 57.35 78.5 54.0 78.5 L50.7 78.15 Q53.25 93.75 53.25 99.4 53.25 102.55 53.95 107.2 L50.35 96.5 Q45.2 81.85 44.25 74.0 43.45 67.4 41.05 52.3 39.55 39.8 41.25 31.7 44.2 42.5 47.35 59.3 L48.1 63.25 Q50.6 61.2 54.05 60.55 M48.5 70.6 Q48.5 72.15 48.75 72.7 49.55 74.5 52.5 74.5 54.9 74.5 56.75 72.0 58.5 69.65 58.5 67.1 58.5 64.65 56.95 63.5 55.5 62.45 53.5 62.95 48.5 64.2 48.5 70.6 M74.5 133.25 L75.55 133.4 78.5 133.5 Q81.25 133.5 84.25 130.75 87.0 128.25 87.0 126.6 87.0 125.55 85.5 121.6 83.7 117.05 82.0 115.5 L82.0 115.75 Q81.8 115.75 81.55 115.1 L81.5 116.35 Q81.5 117.6 82.5 119.3 83.5 121.0 83.5 122.25 83.5 126.0 78.65 127.85 L75.25 129.15 Q73.75 129.85 73.75 130.85 73.75 132.35 74.15 132.8 L74.5 133.25 M69.35 115.75 Q67.5 117.4 67.5 121.0 L67.55 124.0 Q68.5 127.5 73.0 127.5 76.2 127.5 77.8 125.75 79.25 124.25 79.25 121.6 79.25 119.05 77.4 117.05 75.7 115.25 73.4 114.8 70.95 114.35 69.35 115.75 M83.4 133.8 Q81.15 135.25 78.0 135.25 L76.5 135.2 Q80.1 148.5 82.25 158.75 85.75 175.1 97.05 199.65 L104.4 215.0 106.3 219.05 108.7 218.05 119.5 212.9 127.6 208.85 Q135.0 205.1 135.0 204.75 135.0 197.1 124.85 178.05 118.8 166.75 109.2 151.45 L106.45 147.1 106.5 149.1 Q106.5 151.7 105.15 153.6 L104.8 154.0 Q102.65 156.5 98.5 156.5 93.35 156.5 90.8 152.05 L89.25 147.85 Q89.25 144.65 91.95 141.65 94.2 139.1 97.05 138.2 L97.9 137.95 100.45 137.8 90.85 123.15 90.5 122.6 88.45 119.45 88.5 121.0 88.5 121.8 Q88.4 126.05 87.0 129.25 85.7 132.3 83.4 133.8 M98.5 140.75 Q92.75 140.75 92.75 147.85 L93.05 150.7 Q94.15 153.25 98.5 153.25 102.3 153.25 104.05 151.0 105.25 149.45 105.25 147.25 105.25 145.15 104.25 143.55 102.55 140.75 98.5 140.75" fill="#443222" fill-rule="evenodd" stroke="none"/>
      <path d="M64.3 72.9 L64.15 73.05 Q63.15 74.1 61.0 75.0 L59.4 74.75 Q58.75 74.55 58.75 73.0 58.75 72.1 60.0 69.15 61.55 65.45 63.25 64.75 65.25 67.15 65.25 70.35 64.95 71.7 64.3 72.9 M48.5 70.6 Q48.5 64.2 53.5 62.95 55.5 62.45 56.95 63.5 58.5 64.65 58.5 67.1 58.5 69.65 56.75 72.0 54.9 74.5 52.5 74.5 49.55 74.5 48.75 72.7 48.5 72.15 48.5 70.6 M69.35 115.75 Q70.95 114.35 73.4 114.8 75.7 115.25 77.4 117.05 79.25 119.05 79.25 121.6 79.25 124.25 77.8 125.75 76.2 127.5 73.0 127.5 68.5 127.5 67.55 124.0 L67.5 121.0 Q67.5 117.4 69.35 115.75 M74.5 133.25 L74.15 132.8 Q73.75 132.35 73.75 130.85 73.75 129.85 75.25 129.15 L78.65 127.85 Q83.5 126.0 83.5 122.25 83.5 121.0 82.5 119.3 81.5 117.6 81.5 116.35 L81.55 115.1 Q81.8 115.75 82.0 115.75 L82.0 115.5 Q83.7 117.05 85.5 121.6 87.0 125.55 87.0 126.6 87.0 128.25 84.25 130.75 81.25 133.5 78.5 133.5 L75.55 133.4 74.5 133.25 M98.5 140.75 Q102.55 140.75 104.25 143.55 105.25 145.15 105.25 147.25 105.25 149.45 104.05 151.0 102.3 153.25 98.5 153.25 94.15 153.25 93.05 150.7 L92.75 147.85 Q92.75 140.75 98.5 140.75" fill="#797160" fill-rule="evenodd" stroke="none"/>
    </g>
  </defs>
</svg>
