<?xml version="1.0" encoding="UTF-8" standalone="no"?>
<svg xmlns:ffdec="https://www.free-decompiler.com/flash" xmlns:xlink="http://www.w3.org/1999/xlink" ffdec:objectType="frame" height="277.2px" width="441.0px" xmlns="http://www.w3.org/2000/svg">
  <g transform="matrix(1.0, 0.0, 0.0, 1.0, 196.35, 209.3)">
    <use ffdec:characterId="1277" height="35.75" transform="matrix(7.0, 0.0, 0.0, 7.0, -196.35, -199.15)" width="63.0" xlink:href="#shape0"/>
    <use ffdec:characterId="1277" height="35.75" transform="matrix(7.0, 0.0, 0.0, 7.0, -196.35, -199.15)" width="63.0" xlink:href="#shape0"/>
  </g>
  <defs>
    <g id="shape0" transform="matrix(1.0, 0.0, 0.0, 1.0, 28.05, 28.45)">
      <path d="M34.75 -15.45 Q34.85 -16.1 34.85 -16.85 34.9 -20.4 33.8 -23.55 35.05 -20.8 34.95 -17.35 34.9 -16.35 34.75 -15.45 M5.6 -23.1 L5.65 -23.25 Q6.55 -26.05 5.9 -28.45 6.75 -27.0 6.4 -25.15 6.15 -23.85 5.6 -23.1 M24.45 -8.3 Q24.6 -8.5 24.7 -8.7 24.75 -8.85 24.9 -8.85 L24.95 -8.8 Q23.85 -4.15 19.95 -0.75 18.85 0.2 17.65 0.7 18.4 0.2 19.15 -0.5 23.0 -4.1 24.45 -8.25 L24.45 -8.3 M-23.2 5.9 Q-25.85 5.15 -27.35 1.7 -28.0 0.3 -28.05 -1.1 -26.3 3.1 -23.2 5.9 M-8.4 1.25 Q-8.4 4.75 -7.25 7.3 -9.05 5.25 -8.95 1.8 -8.85 0.05 -8.15 -1.3 -8.4 -0.1 -8.4 1.25 M-14.15 -25.95 Q-14.45 -24.9 -14.55 -23.6 -14.7 -22.2 -14.45 -21.0 -15.15 -22.1 -15.05 -23.85 -14.9 -25.2 -14.15 -25.95 M-11.0 -17.85 Q-9.55 -16.85 -8.2 -16.75 -10.85 -15.0 -11.85 -18.5 -11.5 -18.15 -11.0 -17.85 M3.15 1.6 L4.25 1.4 Q6.05 1.0 7.15 0.25 6.4 1.1 4.85 1.4 L3.15 1.6" fill="#ffff33" fill-rule="evenodd" stroke="none"/>
    </g>
  </defs>
</svg>
