<?xml version="1.0" encoding="UTF-8" standalone="no"?>
<svg xmlns:ffdec="https://www.free-decompiler.com/flash" xmlns:xlink="http://www.w3.org/1999/xlink" ffdec:objectType="frame" height="407.05px" width="613.75px" xmlns="http://www.w3.org/2000/svg">
  <g transform="matrix(1.0, 0.0, 0.0, 1.0, 301.9, 250.8)">
    <use ffdec:characterId="2367" height="13.7" transform="matrix(6.4681, -2.6553, 2.6553, 6.4681, 73.3219, -185.0127)" width="21.25" xlink:href="#shape0"/>
    <use ffdec:characterId="2368" height="22.35" transform="matrix(6.7625, 1.7861, -1.7861, 6.7625, -256.3806, -69.9408)" width="41.0" xlink:href="#shape1"/>
    <use ffdec:characterId="2374" height="19.75" transform="matrix(7.0, 0.0, 0.0, 7.0, -1.4, -91.7)" width="34.7" xlink:href="#shape2"/>
  </g>
  <defs>
    <g id="shape0" transform="matrix(1.0, 0.0, 0.0, 1.0, 0.0, 13.7)">
      <path d="M5.35 -0.4 L4.1 -0.35 4.55 -0.6 5.35 -0.4" fill="url(#gradient0)" fill-rule="evenodd" stroke="none"/>
      <path d="M14.5 -3.5 L1.2 -0.3 Q10.15 -8.3 11.3 -9.5 11.65 -9.4 12.65 -9.35 14.15 -9.35 15.85 -9.75 17.9 -10.2 19.65 -11.5 L20.15 -11.9 19.55 -10.4 Q18.45 -7.7 17.5 -6.55 16.45 -5.3 14.5 -3.5 M4.35 -1.55 L4.45 -1.45 8.4 -4.9 Q11.0 -7.2 11.8 -8.1 L12.55 -8.05 12.7 -8.05 Q13.55 -8.0 14.4 -8.15 16.55 -8.65 17.3 -8.9 L17.8 -9.15 Q18.15 -9.35 18.55 -9.6 L18.8 -9.85 18.75 -9.9 18.25 -9.75 17.9 -9.6 17.7 -9.6 Q16.8 -9.3 15.65 -9.2 L13.75 -9.15 Q12.75 -9.1 12.3 -9.0 11.7 -8.8 11.5 -8.4 9.9 -7.1 8.3 -5.65 5.65 -3.15 4.35 -1.55" fill="url(#gradient1)" fill-rule="evenodd" stroke="none"/>
      <path d="M1.2 -0.3 L0.0 0.0 Q2.2 -1.95 5.5 -5.1 8.25 -7.75 10.65 -9.45 L10.8 -9.55 11.35 -9.95 11.4 -9.9 11.45 -9.75 12.8 -9.75 Q13.75 -9.8 15.8 -10.25 L16.8 -10.5 Q18.7 -11.1 19.7 -12.2 20.0 -12.5 20.25 -12.85 L20.45 -13.15 20.8 -13.7 20.95 -13.7 Q21.05 -13.65 21.05 -13.45 L21.1 -13.4 21.2 -13.1 Q21.65 -11.05 17.1 -5.85 16.15 -4.8 15.05 -3.6 L14.5 -3.5 Q16.45 -5.3 17.5 -6.55 18.45 -7.7 19.55 -10.4 L20.15 -11.9 19.65 -11.5 Q17.9 -10.2 15.85 -9.75 14.15 -9.35 12.65 -9.35 11.65 -9.4 11.3 -9.5 10.15 -8.3 1.2 -0.3 M4.35 -1.55 Q5.65 -3.15 8.3 -5.65 9.9 -7.1 11.5 -8.4 11.7 -8.8 12.3 -9.0 12.75 -9.1 13.75 -9.15 L15.65 -9.2 Q16.8 -9.3 17.7 -9.6 L17.9 -9.6 18.25 -9.75 18.75 -9.9 18.8 -9.85 18.55 -9.6 Q18.15 -9.35 17.8 -9.15 L17.3 -8.9 Q16.55 -8.65 14.4 -8.15 13.55 -8.0 12.7 -8.05 L12.55 -8.05 11.8 -8.1 Q11.0 -7.2 8.4 -4.9 L4.45 -1.45 4.35 -1.55" fill="#f6d9ff" fill-rule="evenodd" stroke="none"/>
    </g>
    <linearGradient color-interpolation="linearRGB" gradientTransform="matrix(0.0341, -0.0077, 0.0047, 0.0201, -4.0, 3.7)" gradientUnits="userSpaceOnUse" id="gradient0" spreadMethod="pad" x1="-819.2" x2="819.2">
      <stop offset="0.0" stop-color="#990095"/>
      <stop offset="0.9882352941176471" stop-color="#e68ad6"/>
    </linearGradient>
    <linearGradient color-interpolation="linearRGB" gradientTransform="matrix(0.0258, -0.0235, 0.014, 0.0152, 1.35, 6.4)" gradientUnits="userSpaceOnUse" id="gradient1" spreadMethod="pad" x1="-819.2" x2="819.2">
      <stop offset="0.0" stop-color="#990095"/>
      <stop offset="0.9882352941176471" stop-color="#e68ad6"/>
    </linearGradient>
    <g id="shape1" transform="matrix(1.0, 0.0, 0.0, 1.0, 0.0, 22.35)">
      <path d="M19.55 -22.35 L19.55 -22.35" fill="url(#gradient2)" fill-rule="evenodd" stroke="none"/>
      <path d="M27.0 -17.2 L40.25 -14.1 34.15 -12.25 Q29.35 -10.8 25.75 -9.5 L23.75 -8.85 Q21.85 -9.65 19.4 -9.55 18.35 -9.5 17.6 -9.3 16.85 -9.05 16.8 -8.8 L16.75 -8.6 Q16.8 -8.6 16.8 -8.55 L16.9 -8.6 17.15 -7.85 17.25 -7.25 Q17.45 -5.95 17.45 -5.9 17.4 -5.75 17.35 -5.05 L17.3 -4.25 Q17.1 -3.4 16.05 -2.2 L15.5 -1.65 15.3 -1.45 Q15.7 -2.2 15.75 -2.55 16.05 -3.85 15.65 -5.75 15.25 -7.45 14.45 -8.85 L14.45 -8.85 14.45 -8.9 Q14.6 -8.95 14.6 -9.05 L14.65 -9.25 14.6 -9.3 Q11.9 -8.8 9.15 -7.95 L7.45 -7.4 Q5.65 -6.9 4.6 -6.3 L4.4 -6.25 4.45 -6.2 4.25 -6.1 4.2 -6.2 4.1 -6.15 Q4.25 -5.7 4.25 -5.2 4.25 -4.7 4.15 -4.35 4.1 -4.15 3.85 -3.75 3.55 -3.2 3.3 -3.25 L3.2 -3.3 Q1.7 -4.9 1.0 -6.7 0.5 -8.3 0.55 -9.5 0.6 -9.95 0.65 -10.25 L0.8 -10.4 Q1.15 -10.75 1.5 -10.7 1.9 -10.6 2.6 -9.6 3.15 -8.7 3.3 -8.55 L3.25 -8.5 Q3.3 -8.45 3.4 -8.4 L3.55 -8.35 Q6.65 -9.3 8.45 -9.9 11.4 -10.85 13.1 -11.6 L13.25 -11.65 Q13.35 -11.65 13.4 -11.7 L13.45 -11.75 13.45 -11.8 13.2 -13.75 Q13.05 -15.05 13.2 -15.8 13.5 -17.05 14.3 -18.35 15.15 -19.65 16.1 -20.15 15.95 -19.85 15.8 -19.5 L15.45 -18.7 Q15.25 -18.05 14.95 -16.8 14.85 -15.85 14.85 -14.9 14.85 -14.1 14.95 -13.6 14.7 -13.45 14.65 -13.25 14.6 -13.05 14.7 -12.85 14.85 -12.6 15.2 -12.5 15.75 -12.4 16.0 -12.6 16.2 -12.75 16.3 -13.15 L16.35 -13.45 16.35 -13.7 15.45 -13.75 15.45 -13.9 15.5 -13.9 15.6 -13.85 15.6 -13.95 Q18.6 -14.75 27.0 -17.2 M2.8 -8.15 Q2.0 -9.85 1.0 -9.55 1.45 -8.95 2.1 -7.45 2.55 -6.3 3.2 -5.75 3.35 -6.1 3.25 -6.75 3.1 -7.45 2.8 -8.15 M13.65 -16.0 Q13.55 -15.55 13.6 -14.9 13.7 -14.1 13.95 -13.95 L14.05 -14.05 Q14.1 -15.3 14.2 -16.1 14.4 -17.25 14.65 -18.05 14.35 -18.2 14.0 -17.3 13.8 -16.75 13.65 -16.0" fill="url(#gradient3)" fill-rule="evenodd" stroke="none"/>
      <path d="M14.95 -13.6 L15.3 -13.7 15.45 -13.75 16.35 -13.7 16.35 -13.45 16.3 -13.15 Q16.2 -12.75 16.0 -12.6 15.75 -12.4 15.2 -12.5 14.85 -12.6 14.7 -12.85 14.6 -13.05 14.65 -13.25 14.7 -13.45 14.95 -13.6" fill="#a93aa1" fill-rule="evenodd" stroke="none"/>
      <path d="M40.25 -14.1 L41.0 -13.95 34.55 -11.85 Q27.8 -9.65 24.1 -8.6 L24.1 -8.5 24.05 -8.4 Q24.0 -8.35 23.8 -8.4 L23.4 -8.6 Q23.1 -8.8 22.95 -8.8 20.1 -9.5 18.35 -9.15 17.7 -9.0 17.2 -8.75 17.8 -7.5 17.95 -6.4 18.1 -5.35 17.85 -4.1 17.55 -2.95 16.7 -1.85 15.75 -0.7 14.7 -0.5 14.4 -0.1 14.15 0.0 13.9 -0.15 13.9 -0.3 14.1 -0.45 14.65 -1.4 15.15 -2.35 15.25 -2.65 15.55 -4.0 15.2 -5.7 15.05 -6.6 14.3 -8.8 13.65 -8.5 11.85 -8.0 8.25 -6.9 4.35 -5.95 4.5 -5.6 4.55 -4.9 4.6 -4.05 4.55 -3.85 4.45 -3.35 4.15 -3.05 3.75 -2.65 3.2 -2.75 0.9 -3.3 0.25 -6.65 0.0 -7.7 0.0 -8.95 0.0 -9.9 0.05 -10.15 0.3 -11.1 0.85 -11.25 1.3 -11.4 1.95 -10.95 2.5 -10.55 3.0 -9.8 3.4 -9.2 3.55 -8.7 L3.6 -8.65 3.85 -8.8 Q5.55 -9.55 8.2 -10.4 10.85 -11.25 13.2 -11.75 13.0 -12.25 12.85 -13.6 12.65 -15.2 12.8 -15.85 13.1 -17.2 14.1 -18.7 15.2 -20.35 16.3 -20.55 L16.4 -20.75 16.45 -20.75 16.45 -20.6 16.5 -20.6 16.65 -20.4 16.4 -20.3 Q15.8 -19.05 15.75 -18.8 15.35 -16.95 15.3 -16.2 15.3 -15.6 15.45 -14.05 15.5 -14.05 15.6 -14.0 20.25 -15.7 25.2 -17.25 L25.8 -17.45 27.0 -17.2 Q18.6 -14.75 15.6 -13.95 L15.6 -13.85 15.5 -13.9 15.45 -13.9 15.45 -13.75 15.3 -13.7 14.95 -13.6 Q14.85 -14.1 14.85 -14.9 14.85 -15.85 14.95 -16.8 15.25 -18.05 15.45 -18.7 L15.8 -19.5 Q15.95 -19.85 16.1 -20.15 15.15 -19.65 14.3 -18.35 13.5 -17.05 13.2 -15.8 13.05 -15.05 13.2 -13.75 L13.45 -11.8 13.45 -11.75 13.4 -11.7 Q13.35 -11.65 13.25 -11.65 L13.2 -11.7 13.1 -11.6 Q11.4 -10.85 8.45 -9.9 6.65 -9.3 3.55 -8.35 L3.4 -8.4 Q3.3 -8.45 3.25 -8.5 L3.3 -8.55 Q3.15 -8.7 2.6 -9.6 1.9 -10.6 1.5 -10.7 1.15 -10.75 0.8 -10.4 L0.65 -10.25 0.5 -10.0 Q0.45 -9.75 0.5 -8.85 0.55 -8.3 0.6 -7.75 L0.85 -7.05 1.0 -6.7 Q1.7 -4.9 3.2 -3.3 L3.3 -3.25 Q3.55 -3.2 3.85 -3.75 4.1 -4.15 4.15 -4.35 4.25 -4.7 4.25 -5.2 4.25 -5.7 4.1 -6.15 L4.2 -6.2 4.25 -6.1 4.45 -6.2 4.4 -6.25 4.6 -6.3 Q5.65 -6.9 7.45 -7.4 L9.15 -7.95 Q11.9 -8.8 14.6 -9.3 L14.65 -9.25 14.6 -9.05 Q14.6 -8.95 14.45 -8.9 L14.45 -8.85 14.45 -8.85 Q15.25 -7.45 15.65 -5.75 16.05 -3.85 15.75 -2.55 15.7 -2.2 15.3 -1.45 L15.25 -1.35 15.5 -1.65 16.05 -2.2 Q17.1 -3.4 17.3 -4.25 L17.35 -5.05 Q17.4 -5.75 17.45 -5.9 17.45 -5.95 17.25 -7.25 L17.15 -7.85 17.0 -8.65 16.9 -8.6 16.8 -8.55 Q16.8 -8.6 16.75 -8.6 L16.8 -8.8 Q16.85 -9.05 17.6 -9.3 18.35 -9.5 19.4 -9.55 21.85 -9.65 23.75 -8.85 L23.9 -8.8 25.75 -9.5 Q29.35 -10.8 34.15 -12.25 L40.25 -14.1 M13.65 -16.0 Q13.8 -16.75 14.0 -17.3 14.35 -18.2 14.65 -18.05 14.4 -17.25 14.2 -16.1 14.1 -15.3 14.05 -14.05 L13.95 -13.95 Q13.7 -14.1 13.6 -14.9 13.55 -15.55 13.65 -16.0 M2.8 -8.15 Q3.1 -7.45 3.25 -6.75 3.35 -6.1 3.2 -5.75 2.55 -6.3 2.1 -7.45 1.45 -8.95 1.0 -9.55 2.0 -9.85 2.8 -8.15 M13.45 -8.95 L12.9 -8.8 13.25 -8.85 13.35 -8.85 Q13.45 -8.9 13.5 -9.0 L13.45 -8.95" fill="#f6d9ff" fill-rule="evenodd" stroke="none"/>
    </g>
    <linearGradient color-interpolation="linearRGB" gradientTransform="matrix(0.0303, -0.0175, 0.0104, 0.0178, 40.5, -21.1)" gradientUnits="userSpaceOnUse" id="gradient2" spreadMethod="pad" x1="-819.2" x2="819.2">
      <stop offset="0.0" stop-color="#990095"/>
      <stop offset="0.9882352941176471" stop-color="#e68ad6"/>
    </linearGradient>
    <linearGradient color-interpolation="linearRGB" gradientTransform="matrix(0.0334, -0.0102, 0.0061, 0.0197, 36.4, -14.6)" gradientUnits="userSpaceOnUse" id="gradient3" spreadMethod="pad" x1="-819.2" x2="819.2">
      <stop offset="0.0" stop-color="#990095"/>
      <stop offset="0.9882352941176471" stop-color="#e68ad6"/>
    </linearGradient>
    <g id="shape2" transform="matrix(1.0, 0.0, 0.0, 1.0, 0.2, 13.1)">
      <path d="M3.5 -1.25 L3.6 -1.25 3.5 -0.8 3.5 -1.25 M10.8 -6.15 L10.85 -6.2 10.9 -6.2 10.8 -6.15 M11.7 -4.85 L11.7 -4.8 11.65 -4.8 11.7 -4.85 M12.9 -10.3 Q12.9 -10.6 13.15 -10.65 L13.3 -10.6 13.15 -10.4 12.9 -10.3 M11.65 -6.8 L11.5 -7.0 11.65 -7.05 11.65 -6.8 M22.7 -5.7 L22.6 -5.7 22.4 -5.75 22.4 -5.8 22.6 -5.95 22.7 -5.7 M22.2 -0.55 L22.45 -0.5 22.35 -0.45 22.2 -0.55 M24.65 -6.95 L24.7 -6.8 24.55 -6.6 24.4 -6.9 24.65 -6.95 M24.8 -5.4 L24.7 -5.5 24.8 -5.45 24.9 -5.45 24.95 -5.45 24.8 -5.4 M20.8 2.9 L20.2 2.9 20.45 2.65 20.7 2.7 20.8 2.85 20.8 2.9 M22.0 5.1 L22.05 5.05 22.2 5.15 22.0 5.1" fill="#e68ad6" fill-rule="evenodd" stroke="none"/>
      <path d="M11.25 -8.05 L11.5 -8.1 12.35 -8.2 12.85 -8.25 13.05 -8.05 13.5 -7.7 Q13.35 -7.35 13.15 -7.15 L13.0 -7.0 Q12.6 -6.7 12.1 -6.65 L11.75 -7.25 11.7 -7.4 11.25 -8.05" fill="url(#gradient4)" fill-rule="evenodd" stroke="none"/>
      <path d="M5.25 -2.8 Q5.15 -2.3 5.5 -1.75 5.9 -1.55 6.25 -1.5 6.05 -1.2 5.95 -0.8 L4.8 -1.1 Q5.1 -1.95 5.15 -2.75 L5.25 -2.8 M8.45 -0.55 L8.7 -0.1 8.3 -0.2 8.45 -0.55" fill="url(#gradient5)" fill-rule="evenodd" stroke="none"/>
      <path d="M10.8 -6.15 L10.9 -6.2 11.15 -6.2 11.65 -5.65 11.7 -5.6 11.7 -4.85 11.65 -4.8 Q11.6 -4.25 11.35 -3.65 L10.5 -3.95 10.35 -5.6 10.8 -6.15" fill="url(#gradient6)" fill-rule="evenodd" stroke="none"/>
      <path d="M11.7 -7.4 L11.75 -7.25 11.35 -6.9 Q11.55 -7.1 11.7 -7.4 M11.2 -6.7 L10.5 -6.1 10.3 -6.4 Q10.8 -6.45 11.2 -6.7" fill="url(#gradient7)" fill-rule="evenodd" stroke="none"/>
      <path d="M8.8 -6.45 L8.85 -6.35 8.6 -6.35 8.8 -6.45 M8.55 -6.35 L8.1 -5.8 8.2 -4.15 9.1 -3.85 9.05 -3.75 9.05 -3.65 7.55 -3.8 6.25 -5.5 8.55 -6.35" fill="url(#gradient8)" fill-rule="evenodd" stroke="none"/>
      <path d="M9.9 -5.5 L9.85 -5.5 9.8 -5.55 9.75 -5.7 9.95 -5.55 9.9 -5.5" fill="url(#gradient9)" fill-rule="evenodd" stroke="none"/>
      <path d="M10.55 -3.85 L10.6 -3.9 Q11.25 -3.2 11.85 -2.5 11.05 -3.05 10.5 -3.85 L10.55 -3.85 M10.35 -4.1 L10.45 -4.05 10.45 -3.9 10.35 -4.05 10.35 -4.1" fill="url(#gradient10)" fill-rule="evenodd" stroke="none"/>
      <path d="M8.25 -2.95 L8.4 -2.75 8.45 -2.65 8.8 -2.15 Q8.15 -1.85 7.8 -1.25 7.45 -1.3 7.05 -1.55 6.7 -2.05 6.8 -2.55 L8.25 -2.95" fill="url(#gradient11)" fill-rule="evenodd" stroke="none"/>
      <path d="M9.4 -0.2 L8.6 -1.2 8.65 -1.35 9.85 -1.25 Q9.6 -0.8 9.4 -0.25 L9.4 -0.2 M11.2 -2.25 Q10.75 -2.15 10.45 -1.9 10.2 -1.7 9.95 -1.4 10.35 -2.45 10.3 -3.35 10.7 -2.75 11.2 -2.25 M10.45 -1.9 Q10.8 -2.1 11.25 -2.2 L11.8 -1.8 11.95 -1.6 11.95 -1.55 11.4 -1.3 Q10.55 -1.25 10.45 -1.9" fill="url(#gradient12)" fill-rule="evenodd" stroke="none"/>
      <path d="M9.4 -0.25 Q9.65 -0.45 9.9 -0.55 L10.05 -0.35 10.45 0.25 10.65 0.6 10.7 0.65 11.1 1.3 10.95 1.6 8.6 1.0 Q8.85 0.25 9.4 -0.2 L9.4 -0.25 M10.6 1.3 L10.6 1.3" fill="url(#gradient13)" fill-rule="evenodd" stroke="none"/>
      <path d="M20.55 -11.7 Q20.3 -12.5 20.8 -13.1 L21.35 -13.05 21.4 -12.8 21.95 -12.85 22.05 -12.75 22.4 -12.7 Q21.7 -12.05 21.1 -11.25 L20.7 -11.4 20.6 -11.55 20.8 -11.6 20.55 -11.7" fill="url(#gradient14)" fill-rule="evenodd" stroke="none"/>
      <path d="M20.55 -11.7 L20.8 -11.6 20.6 -11.55 20.55 -11.55 20.5 -11.75 20.55 -11.7 M18.45 -10.9 L18.5 -11.1 Q18.55 -11.6 18.85 -12.1 L19.45 -11.95 19.55 -11.9 Q19.05 -11.85 19.0 -11.2 L19.75 -11.9 19.95 -11.85 Q19.6 -11.45 19.6 -10.95 19.6 -10.9 19.6 -10.8 19.65 -10.5 19.8 -10.15 20.05 -10.05 20.2 -10.0 L19.9 -9.55 19.7 -9.5 19.75 -9.6 18.55 -10.35 18.55 -10.3 Q18.45 -10.6 18.45 -10.9" fill="url(#gradient15)" fill-rule="evenodd" stroke="none"/>
      <path d="M18.45 -10.9 L17.9 -10.4 Q17.9 -11.05 18.45 -11.1 L18.5 -11.1 18.45 -10.9 M19.6 -10.95 L19.8 -10.95 19.95 -10.8 19.7 -10.75 19.6 -10.8 Q19.6 -10.9 19.6 -10.95 M18.15 -8.1 L18.6 -8.7 18.75 -8.75 18.3 -7.95 18.15 -8.1" fill="url(#gradient16)" fill-rule="evenodd" stroke="none"/>
      <path d="M18.8 -8.05 L18.55 -8.1 18.75 -8.3 18.9 -8.3 18.8 -8.05 M17.8 -7.35 L17.8 -7.25 18.65 -7.25 Q18.65 -7.0 18.7 -6.7 L18.3 -5.95 18.15 -5.95 17.55 -7.15 17.8 -7.35" fill="url(#gradient17)" fill-rule="evenodd" stroke="none"/>
      <path d="M17.45 -8.5 L17.3 -8.5 17.45 -8.7 17.55 -8.7 17.45 -8.5 M17.05 -8.3 L17.1 -8.3 17.35 -8.25 17.3 -8.2 Q17.2 -7.8 17.2 -7.45 L16.35 -7.45 16.35 -7.55 16.45 -7.65 17.05 -8.3 M16.7 -6.15 L16.85 -6.15 16.75 -5.95 16.7 -6.15" fill="url(#gradient18)" fill-rule="evenodd" stroke="none"/>
      <path d="M22.7 -11.3 L23.5 -11.85 25.5 -11.25 Q25.05 -10.3 25.65 -9.1 L25.35 -8.7 Q25.1 -8.6 24.85 -8.5 24.25 -9.55 23.3 -10.25 L22.95 -10.5 22.7 -11.3" fill="url(#gradient19)" fill-rule="evenodd" stroke="none"/>
      <path d="M14.5 -11.0 L14.5 -10.85 14.65 -10.85 Q14.5 -10.5 14.4 -10.0 14.05 -9.95 13.55 -10.05 13.4 -10.35 13.3 -10.7 L14.5 -11.0" fill="url(#gradient20)" fill-rule="evenodd" stroke="none"/>
      <path d="M15.0 -10.75 L15.5 -10.9 16.7 -10.6 16.3 -10.15 15.7 -9.65 15.75 -9.65 Q15.3 -9.3 14.75 -9.05 L14.65 -9.1 Q14.55 -9.15 14.55 -9.2 14.7 -10.15 15.0 -10.75" fill="url(#gradient21)" fill-rule="evenodd" stroke="none"/>
      <path d="M12.35 -8.7 L12.3 -8.7 Q11.4 -9.1 10.55 -9.65 L11.7 -10.0 Q11.8 -9.65 11.95 -9.3 12.45 -9.25 12.8 -9.3 L12.75 -8.85 Q12.75 -8.8 12.8 -8.75 L12.95 -8.7 12.65 -8.6 12.55 -8.6 12.35 -8.7 M13.15 -10.4 L13.05 -10.15 12.9 -10.15 12.9 -10.3 13.15 -10.4" fill="url(#gradient22)" fill-rule="evenodd" stroke="none"/>
      <path d="M16.05 -9.2 L16.05 -9.2" fill="url(#gradient23)" fill-rule="evenodd" stroke="none"/>
      <path d="M14.4 -5.55 L14.45 -5.75 14.55 -5.75 14.9 -5.8 14.9 -5.4 14.85 -5.2 14.55 -5.3 14.35 -5.4 14.4 -5.55 M12.8 -3.8 L12.1 -5.2 12.55 -5.65 13.45 -6.45 13.75 -6.25 13.75 -6.2 Q13.15 -4.9 13.75 -3.95 13.4 -3.65 12.9 -3.55 L12.9 -3.6 12.8 -3.8" fill="url(#gradient24)" fill-rule="evenodd" stroke="none"/>
      <path d="M14.9 -5.25 L14.95 -5.25 15.65 -4.8 15.5 -4.4 16.85 -4.0 16.95 -3.75 Q15.9 -3.45 14.95 -2.9 14.35 -3.95 14.9 -5.25" fill="url(#gradient25)" fill-rule="evenodd" stroke="none"/>
      <path d="M17.15 -5.05 L17.35 -4.95 17.2 -4.65 16.95 -4.8 17.15 -5.05" fill="url(#gradient26)" fill-rule="evenodd" stroke="none"/>
      <path d="M14.4 -5.55 L14.35 -5.4 14.55 -5.3 14.75 -4.9 13.9 -5.15 14.0 -5.3 13.95 -5.7 14.2 -5.8 14.25 -5.8 14.25 -5.75 14.4 -5.55 M12.8 -3.8 L12.1 -3.35 12.0 -3.45 Q12.4 -3.55 12.8 -3.8" fill="url(#gradient27)" fill-rule="evenodd" stroke="none"/>
      <path d="M14.25 -1.85 L14.3 -1.8 Q13.9 -1.7 13.5 -1.45 13.85 -1.75 14.25 -1.85 M12.9 -0.85 L13.0 -0.8 13.0 -0.95 13.05 -1.0 Q13.25 -1.3 13.5 -1.45 13.65 -0.85 14.45 -0.9 L15.05 -1.15 15.45 -0.65 Q14.95 -0.1 14.55 0.55 L12.45 0.2 Q12.65 -0.4 12.9 -0.85" fill="url(#gradient28)" fill-rule="evenodd" stroke="none"/>
      <path d="M12.05 -2.7 L12.1 -2.65 12.05 -2.6 11.95 -2.8 12.05 -2.7" fill="url(#gradient29)" fill-rule="evenodd" stroke="none"/>
      <path d="M28.0 -6.1 L28.1 -6.75 28.35 -7.0 Q28.8 -7.45 29.3 -7.6 L29.35 -7.45 29.45 -7.1 29.6 -6.65 29.25 -6.75 29.65 -6.6 29.7 -6.45 28.0 -6.1" fill="url(#gradient30)" fill-rule="evenodd" stroke="none"/>
      <path d="M32.15 -8.9 L30.65 -9.7 30.65 -9.95 34.05 -11.85 33.15 -10.4 32.15 -8.9" fill="url(#gradient31)" fill-rule="evenodd" stroke="none"/>
      <path d="M28.75 -11.15 L28.55 -10.85 Q27.6 -10.6 27.0 -9.9 26.45 -11.15 26.85 -12.1 L28.65 -11.55 28.75 -11.15" fill="url(#gradient32)" fill-rule="evenodd" stroke="none"/>
      <path d="M24.4 -6.9 L24.2 -7.25 Q24.45 -7.3 24.7 -7.4 L24.6 -7.25 24.65 -6.95 24.4 -6.9" fill="url(#gradient33)" fill-rule="evenodd" stroke="none"/>
      <path d="M25.2 -7.7 L25.25 -7.7 25.2 -7.65 25.2 -7.7" fill="url(#gradient34)" fill-rule="evenodd" stroke="none"/>
      <path d="M27.25 -9.8 L27.2 -9.8 27.4 -10.05 27.5 -9.75 27.4 -9.8 27.25 -9.8" fill="url(#gradient35)" fill-rule="evenodd" stroke="none"/>
      <path d="M25.55 -6.35 L25.5 -6.65 Q25.85 -7.3 26.45 -7.7 26.95 -8.05 27.65 -8.2 L27.75 -8.15 27.75 -8.1 Q27.4 -8.0 27.0 -7.65 L26.9 -7.55 26.85 -7.45 26.6 -7.25 26.5 -6.6 25.55 -6.35" fill="url(#gradient36)" fill-rule="evenodd" stroke="none"/>
      <path d="M26.45 -7.7 L26.45 -7.7" fill="url(#gradient37)" fill-rule="evenodd" stroke="none"/>
      <path d="M27.95 -7.65 L27.7 -7.8 27.95 -7.95 27.95 -7.65" fill="url(#gradient38)" fill-rule="evenodd" stroke="none"/>
      <path d="M23.7 -4.15 Q24.45 -4.5 25.2 -4.75 L25.45 -4.55 25.5 -4.35 25.8 -4.25 25.95 -4.15 26.2 -3.9 25.9 -3.9 25.9 -3.85 Q24.75 -3.6 23.8 -2.5 23.1 -3.1 23.1 -3.85 23.4 -4.0 23.65 -4.1 L23.7 -4.15" fill="url(#gradient39)" fill-rule="evenodd" stroke="none"/>
      <path d="M25.25 -2.1 L24.75 -2.45 Q25.65 -3.6 26.7 -3.95 27.0 -4.05 27.3 -4.1 L27.4 -4.05 27.6 -3.85 27.45 -3.8 Q27.15 -3.65 26.85 -3.35 26.6 -2.9 26.6 -2.45 L25.25 -2.1" fill="url(#gradient40)" fill-rule="evenodd" stroke="none"/>
      <path d="M24.8 -5.4 L24.95 -5.45 25.15 -5.25 24.85 -5.35 24.8 -5.4 M24.9 -5.45 L24.8 -5.45 24.8 -5.55 24.9 -5.45" fill="url(#gradient41)" fill-rule="evenodd" stroke="none"/>
      <path d="M23.65 -4.1 L23.6 -4.1 23.6 -4.15 23.7 -4.15 23.65 -4.1" fill="url(#gradient42)" fill-rule="evenodd" stroke="none"/>
      <path d="M24.8 -3.35 L24.85 -3.35 24.9 -3.3 24.8 -3.35" fill="url(#gradient43)" fill-rule="evenodd" stroke="none"/>
      <path d="M27.7 -0.5 Q27.65 -0.95 27.95 -1.4 28.3 -1.7 28.65 -1.9 L28.8 -1.8 28.85 -1.7 28.9 -1.65 29.35 -0.95 28.2 -0.65 27.7 -0.5" fill="url(#gradient44)" fill-rule="evenodd" stroke="none"/>
      <path d="M23.55 0.35 L23.25 0.65 Q23.05 0.65 22.9 0.75 22.5 0.6 22.0 0.5 L21.9 0.5 Q21.5 0.8 21.3 1.2 L20.8 0.95 20.85 0.85 Q22.15 0.2 23.55 0.35" fill="url(#gradient45)" fill-rule="evenodd" stroke="none"/>
      <path d="M23.45 2.85 L22.35 3.95 Q21.95 3.6 21.5 3.4 21.75 2.95 22.1 2.65 L22.25 2.65 Q22.7 2.75 23.1 2.9 L23.45 2.85" fill="url(#gradient46)" fill-rule="evenodd" stroke="none"/>
      <path d="M20.05 5.85 L17.55 6.5 Q18.3 5.5 19.45 4.55 L19.55 4.5 19.75 4.05 Q20.25 4.3 20.75 4.65 L21.05 4.85 20.75 5.2 20.05 5.85" fill="url(#gradient47)" fill-rule="evenodd" stroke="none"/>
      <path d="M13.2 6.25 L12.85 6.35 12.5 6.15 12.35 6.1 13.2 6.25" fill="url(#gradient48)" fill-rule="evenodd" stroke="none"/>
      <path d="M11.3 0.65 L11.15 0.45 11.3 0.45 11.3 0.65" fill="url(#gradient49)" fill-rule="evenodd" stroke="none"/>
      <path d="M10.6 1.3 L10.6 1.3" fill="url(#gradient50)" fill-rule="evenodd" stroke="none"/>
      <path d="M3.65 0.3 L5.3 -0.15 Q5.25 0.55 5.05 1.3 L4.85 1.5 3.6 1.2 Q3.55 0.75 3.65 0.3" fill="url(#gradient51)" fill-rule="evenodd" stroke="none"/>
      <path d="M2.65 -0.35 Q2.6 0.1 2.6 0.55 L0.95 0.1 2.65 -0.35" fill="url(#gradient52)" fill-rule="evenodd" stroke="none"/>
      <path d="M9.2 -8.45 L10.4 -8.55 10.5 -8.45 Q9.9 -8.5 9.2 -8.2 L9.2 -8.45 M12.85 -8.25 L12.35 -8.2 11.5 -8.1 11.25 -8.05 11.0 -8.45 Q11.65 -8.75 12.3 -8.7 L12.35 -8.7 12.85 -8.25 M10.55 -9.65 Q10.2 -9.9 9.85 -10.15 L10.55 -10.3 11.75 -10.6 Q11.7 -10.3 11.7 -10.0 L10.55 -9.65 M5.15 -2.75 L5.15 -3.45 5.7 -3.6 5.6 -3.55 5.5 -3.4 Q5.3 -3.1 5.25 -2.8 L5.15 -2.75 M3.65 0.3 Q3.7 -0.05 3.85 -0.4 L4.5 -0.6 4.45 -0.2 4.55 -0.6 5.3 -0.8 5.3 -0.15 3.65 0.3 M0.95 0.1 L-0.2 -0.2 2.9 -1.05 Q2.75 -0.7 2.65 -0.35 L0.95 0.1 M8.6 -6.35 L8.55 -6.35 6.25 -5.5 5.8 -6.05 7.85 -6.8 8.3 -6.6 8.45 -6.7 8.8 -6.45 8.6 -6.35 M8.25 -2.95 L6.8 -2.55 Q6.85 -2.9 7.05 -3.2 L7.25 -3.4 7.9 -3.55 8.25 -2.95 M13.3 -10.7 Q13.3 -11.0 13.35 -11.3 L14.1 -11.5 14.75 -11.35 Q14.5 -11.35 14.5 -11.0 L13.3 -10.7 M15.5 -10.9 L15.0 -10.75 15.1 -10.95 15.5 -10.9 M34.05 -11.85 L34.5 -12.1 Q33.6 -10.45 32.5 -8.7 32.3 -8.8 32.15 -8.9 L33.15 -10.4 34.05 -11.85 M29.7 -6.45 L29.85 -6.1 27.95 -5.65 28.0 -6.1 29.7 -6.45 M25.55 -6.35 L26.5 -6.6 26.4 -6.1 25.75 -5.95 Q25.6 -6.15 25.55 -6.35 M25.25 -2.1 L26.6 -2.45 Q26.6 -2.25 26.7 -2.05 L25.75 -1.85 25.55 -1.9 25.25 -2.1 M27.7 -0.5 L28.2 -0.65 29.35 -0.95 29.5 -0.6 29.55 -0.55 28.5 -0.3 27.75 -0.1 Q27.7 -0.3 27.7 -0.5 M23.25 0.65 L23.55 0.35 24.05 0.4 23.65 0.8 23.55 0.7 23.25 0.65 M23.45 2.85 L23.75 2.9 23.85 3.0 22.65 4.2 22.35 3.95 23.45 2.85 M20.75 5.2 L21.3 5.15 20.85 5.65 20.05 5.85 20.75 5.2 M12.85 6.35 L13.2 6.25 13.95 6.45 13.35 6.65 12.85 6.35" fill="#f6d9ff" fill-rule="evenodd" stroke="none"/>
    </g>
    <linearGradient color-interpolation="linearRGB" gradientTransform="matrix(0.0347, -0.0044, 0.0027, 0.0205, 12.35, -3.05)" gradientUnits="userSpaceOnUse" id="gradient4" spreadMethod="pad" x1="-819.2" x2="819.2">
      <stop offset="0.0" stop-color="#990095"/>
      <stop offset="0.9882352941176471" stop-color="#e68ad6"/>
    </linearGradient>
    <linearGradient color-interpolation="linearRGB" gradientTransform="matrix(0.0336, -0.0095, 0.0057, 0.0198, 11.15, 0.9)" gradientUnits="userSpaceOnUse" id="gradient5" spreadMethod="pad" x1="-819.2" x2="819.2">
      <stop offset="0.0" stop-color="#990095"/>
      <stop offset="0.9882352941176471" stop-color="#e68ad6"/>
    </linearGradient>
    <linearGradient color-interpolation="linearRGB" gradientTransform="matrix(0.0327, -0.0125, 0.0075, 0.0192, 13.3, -1.65)" gradientUnits="userSpaceOnUse" id="gradient6" spreadMethod="pad" x1="-819.2" x2="819.2">
      <stop offset="0.0" stop-color="#990095"/>
      <stop offset="0.9882352941176471" stop-color="#e68ad6"/>
    </linearGradient>
    <linearGradient color-interpolation="linearRGB" gradientTransform="matrix(0.0347, -0.0044, 0.0027, 0.0205, 10.55, -2.8)" gradientUnits="userSpaceOnUse" id="gradient7" spreadMethod="pad" x1="-819.2" x2="819.2">
      <stop offset="0.0" stop-color="#990095"/>
      <stop offset="0.9882352941176471" stop-color="#e68ad6"/>
    </linearGradient>
    <linearGradient color-interpolation="linearRGB" gradientTransform="matrix(0.0327, -0.0125, 0.0075, 0.0192, 11.05, -1.85)" gradientUnits="userSpaceOnUse" id="gradient8" spreadMethod="pad" x1="-819.2" x2="819.2">
      <stop offset="0.0" stop-color="#990095"/>
      <stop offset="0.9882352941176471" stop-color="#e68ad6"/>
    </linearGradient>
    <linearGradient color-interpolation="linearRGB" gradientTransform="matrix(0.0327, -0.0125, 0.0075, 0.0192, 11.3, -1.8)" gradientUnits="userSpaceOnUse" id="gradient9" spreadMethod="pad" x1="-819.2" x2="819.2">
      <stop offset="0.0" stop-color="#990095"/>
      <stop offset="0.9882352941176471" stop-color="#e68ad6"/>
    </linearGradient>
    <linearGradient color-interpolation="linearRGB" gradientTransform="matrix(0.0327, -0.0125, 0.0075, 0.0192, 12.0, -0.15)" gradientUnits="userSpaceOnUse" id="gradient10" spreadMethod="pad" x1="-819.2" x2="819.2">
      <stop offset="0.0" stop-color="#990095"/>
      <stop offset="0.9882352941176471" stop-color="#e68ad6"/>
    </linearGradient>
    <linearGradient color-interpolation="linearRGB" gradientTransform="matrix(0.0336, -0.0095, 0.0057, 0.0198, 12.7, 1.1)" gradientUnits="userSpaceOnUse" id="gradient11" spreadMethod="pad" x1="-819.2" x2="819.2">
      <stop offset="0.0" stop-color="#990095"/>
      <stop offset="0.9882352941176471" stop-color="#e68ad6"/>
    </linearGradient>
    <linearGradient color-interpolation="linearRGB" gradientTransform="matrix(0.0327, -0.0125, 0.0075, 0.0192, 11.9, 0.55)" gradientUnits="userSpaceOnUse" id="gradient12" spreadMethod="pad" x1="-819.2" x2="819.2">
      <stop offset="0.0" stop-color="#990095"/>
      <stop offset="0.9882352941176471" stop-color="#e68ad6"/>
    </linearGradient>
    <linearGradient color-interpolation="linearRGB" gradientTransform="matrix(0.0336, -0.0095, 0.0057, 0.0198, 13.8, 2.7)" gradientUnits="userSpaceOnUse" id="gradient13" spreadMethod="pad" x1="-819.2" x2="819.2">
      <stop offset="0.0" stop-color="#990095"/>
      <stop offset="0.9882352941176471" stop-color="#e68ad6"/>
    </linearGradient>
    <linearGradient color-interpolation="linearRGB" gradientTransform="matrix(0.027, -0.0223, 0.0132, 0.0159, 16.25, -6.45)" gradientUnits="userSpaceOnUse" id="gradient14" spreadMethod="pad" x1="-819.2" x2="819.2">
      <stop offset="0.0" stop-color="#990095"/>
      <stop offset="0.9882352941176471" stop-color="#e68ad6"/>
    </linearGradient>
    <linearGradient color-interpolation="linearRGB" gradientTransform="matrix(0.027, -0.0223, 0.0132, 0.0159, 15.4, -5.2)" gradientUnits="userSpaceOnUse" id="gradient15" spreadMethod="pad" x1="-819.2" x2="819.2">
      <stop offset="0.0" stop-color="#990095"/>
      <stop offset="0.9882352941176471" stop-color="#e68ad6"/>
    </linearGradient>
    <linearGradient color-interpolation="linearRGB" gradientTransform="matrix(0.027, -0.0223, 0.0132, 0.0159, 14.25, -4.4)" gradientUnits="userSpaceOnUse" id="gradient16" spreadMethod="pad" x1="-819.2" x2="819.2">
      <stop offset="0.0" stop-color="#990095"/>
      <stop offset="0.9882352941176471" stop-color="#e68ad6"/>
    </linearGradient>
    <linearGradient color-interpolation="linearRGB" gradientTransform="matrix(0.027, -0.0223, 0.0132, 0.0159, 15.55, -1.6)" gradientUnits="userSpaceOnUse" id="gradient17" spreadMethod="pad" x1="-819.2" x2="819.2">
      <stop offset="0.0" stop-color="#990095"/>
      <stop offset="0.9882352941176471" stop-color="#e68ad6"/>
    </linearGradient>
    <linearGradient color-interpolation="linearRGB" gradientTransform="matrix(0.027, -0.0223, 0.0132, 0.0159, 14.1, -1.8)" gradientUnits="userSpaceOnUse" id="gradient18" spreadMethod="pad" x1="-819.2" x2="819.2">
      <stop offset="0.0" stop-color="#990095"/>
      <stop offset="0.9882352941176471" stop-color="#e68ad6"/>
    </linearGradient>
    <linearGradient color-interpolation="linearRGB" gradientTransform="matrix(0.0341, -0.0077, 0.0047, 0.0201, 14.95, -7.5)" gradientUnits="userSpaceOnUse" id="gradient19" spreadMethod="pad" x1="-819.2" x2="819.2">
      <stop offset="0.0" stop-color="#990095"/>
      <stop offset="0.9882352941176471" stop-color="#e68ad6"/>
    </linearGradient>
    <linearGradient color-interpolation="linearRGB" gradientTransform="matrix(0.0336, -0.0096, 0.0058, 0.0198, 12.45, -5.15)" gradientUnits="userSpaceOnUse" id="gradient20" spreadMethod="pad" x1="-819.2" x2="819.2">
      <stop offset="0.0" stop-color="#990095"/>
      <stop offset="0.9882352941176471" stop-color="#e68ad6"/>
    </linearGradient>
    <linearGradient color-interpolation="linearRGB" gradientTransform="matrix(0.0336, -0.0096, 0.0058, 0.0198, 12.7, -4.8)" gradientUnits="userSpaceOnUse" id="gradient21" spreadMethod="pad" x1="-819.2" x2="819.2">
      <stop offset="0.0" stop-color="#990095"/>
      <stop offset="0.9882352941176471" stop-color="#e68ad6"/>
    </linearGradient>
    <linearGradient color-interpolation="linearRGB" gradientTransform="matrix(0.0336, -0.0096, 0.0058, 0.0198, 10.85, -4.45)" gradientUnits="userSpaceOnUse" id="gradient22" spreadMethod="pad" x1="-819.2" x2="819.2">
      <stop offset="0.0" stop-color="#990095"/>
      <stop offset="0.9882352941176471" stop-color="#e68ad6"/>
    </linearGradient>
    <linearGradient color-interpolation="linearRGB" gradientTransform="matrix(0.0303, -0.0175, 0.0104, 0.0178, 14.1, -3.55)" gradientUnits="userSpaceOnUse" id="gradient23" spreadMethod="pad" x1="-819.2" x2="819.2">
      <stop offset="0.0" stop-color="#990095"/>
      <stop offset="0.9882352941176471" stop-color="#e68ad6"/>
    </linearGradient>
    <linearGradient color-interpolation="linearRGB" gradientTransform="matrix(0.0347, -0.0044, 0.0027, 0.0205, 12.15, -1.95)" gradientUnits="userSpaceOnUse" id="gradient24" spreadMethod="pad" x1="-819.2" x2="819.2">
      <stop offset="0.0" stop-color="#990095"/>
      <stop offset="0.9882352941176471" stop-color="#e68ad6"/>
    </linearGradient>
    <linearGradient color-interpolation="linearRGB" gradientTransform="matrix(0.0347, -0.0044, 0.0027, 0.0205, 13.35, -0.95)" gradientUnits="userSpaceOnUse" id="gradient25" spreadMethod="pad" x1="-819.2" x2="819.2">
      <stop offset="0.0" stop-color="#990095"/>
      <stop offset="0.9882352941176471" stop-color="#e68ad6"/>
    </linearGradient>
    <linearGradient color-interpolation="linearRGB" gradientTransform="matrix(0.027, -0.0223, 0.0132, 0.0159, 13.35, -1.5)" gradientUnits="userSpaceOnUse" id="gradient26" spreadMethod="pad" x1="-819.2" x2="819.2">
      <stop offset="0.0" stop-color="#990095"/>
      <stop offset="0.9882352941176471" stop-color="#e68ad6"/>
    </linearGradient>
    <linearGradient color-interpolation="linearRGB" gradientTransform="matrix(0.0347, -0.0044, 0.0027, 0.0205, 11.2, -1.85)" gradientUnits="userSpaceOnUse" id="gradient27" spreadMethod="pad" x1="-819.2" x2="819.2">
      <stop offset="0.0" stop-color="#990095"/>
      <stop offset="0.9882352941176471" stop-color="#e68ad6"/>
    </linearGradient>
    <linearGradient color-interpolation="linearRGB" gradientTransform="matrix(0.0327, -0.0125, 0.0075, 0.0192, 15.0, 1.0)" gradientUnits="userSpaceOnUse" id="gradient28" spreadMethod="pad" x1="-819.2" x2="819.2">
      <stop offset="0.0" stop-color="#990095"/>
      <stop offset="0.9882352941176471" stop-color="#e68ad6"/>
    </linearGradient>
    <linearGradient color-interpolation="linearRGB" gradientTransform="matrix(0.0347, -0.0044, 0.0027, 0.0205, 11.2, -1.15)" gradientUnits="userSpaceOnUse" id="gradient29" spreadMethod="pad" x1="-819.2" x2="819.2">
      <stop offset="0.0" stop-color="#990095"/>
      <stop offset="0.9882352941176471" stop-color="#e68ad6"/>
    </linearGradient>
    <linearGradient color-interpolation="linearRGB" gradientTransform="matrix(0.0341, -0.0077, 0.0047, 0.0201, 16.7, -5.15)" gradientUnits="userSpaceOnUse" id="gradient30" spreadMethod="pad" x1="-819.2" x2="819.2">
      <stop offset="0.0" stop-color="#990095"/>
      <stop offset="0.9882352941176471" stop-color="#e68ad6"/>
    </linearGradient>
    <linearGradient color-interpolation="linearRGB" gradientTransform="matrix(0.0197, -0.0299, 0.0166, 0.0115, 23.6, 1.3)" gradientUnits="userSpaceOnUse" id="gradient31" spreadMethod="pad" x1="-819.2" x2="819.2">
      <stop offset="0.0" stop-color="#990095"/>
      <stop offset="0.9882352941176471" stop-color="#e68ad6"/>
    </linearGradient>
    <linearGradient color-interpolation="linearRGB" gradientTransform="matrix(0.0341, -0.0077, 0.0047, 0.0201, 16.3, -8.35)" gradientUnits="userSpaceOnUse" id="gradient32" spreadMethod="pad" x1="-819.2" x2="819.2">
      <stop offset="0.0" stop-color="#990095"/>
      <stop offset="0.9882352941176471" stop-color="#e68ad6"/>
    </linearGradient>
    <linearGradient color-interpolation="linearRGB" gradientTransform="matrix(0.0341, -0.0077, 0.0047, 0.0201, 14.3, -6.25)" gradientUnits="userSpaceOnUse" id="gradient33" spreadMethod="pad" x1="-819.2" x2="819.2">
      <stop offset="0.0" stop-color="#990095"/>
      <stop offset="0.9882352941176471" stop-color="#e68ad6"/>
    </linearGradient>
    <linearGradient color-interpolation="linearRGB" gradientTransform="matrix(0.0341, -0.0077, 0.0047, 0.0201, 12.95, -5.15)" gradientUnits="userSpaceOnUse" id="gradient34" spreadMethod="pad" x1="-819.2" x2="819.2">
      <stop offset="0.0" stop-color="#990095"/>
      <stop offset="0.9882352941176471" stop-color="#e68ad6"/>
    </linearGradient>
    <linearGradient color-interpolation="linearRGB" gradientTransform="matrix(0.0341, -0.0077, 0.0047, 0.0201, 14.95, -7.25)" gradientUnits="userSpaceOnUse" id="gradient35" spreadMethod="pad" x1="-819.2" x2="819.2">
      <stop offset="0.0" stop-color="#990095"/>
      <stop offset="0.9882352941176471" stop-color="#e68ad6"/>
    </linearGradient>
    <linearGradient color-interpolation="linearRGB" gradientTransform="matrix(0.0341, -0.0077, 0.0047, 0.0201, 15.2, -5.65)" gradientUnits="userSpaceOnUse" id="gradient36" spreadMethod="pad" x1="-819.2" x2="819.2">
      <stop offset="0.0" stop-color="#990095"/>
      <stop offset="0.9882352941176471" stop-color="#e68ad6"/>
    </linearGradient>
    <linearGradient color-interpolation="linearRGB" gradientTransform="matrix(0.0341, -0.0077, 0.0047, 0.0201, 13.8, -6.15)" gradientUnits="userSpaceOnUse" id="gradient37" spreadMethod="pad" x1="-819.2" x2="819.2">
      <stop offset="0.0" stop-color="#990095"/>
      <stop offset="0.9882352941176471" stop-color="#e68ad6"/>
    </linearGradient>
    <linearGradient color-interpolation="linearRGB" gradientTransform="matrix(0.0197, -0.0299, 0.0166, 0.0115, 20.9, 3.35)" gradientUnits="userSpaceOnUse" id="gradient38" spreadMethod="pad" x1="-819.2" x2="819.2">
      <stop offset="0.0" stop-color="#990095"/>
      <stop offset="0.9882352941176471" stop-color="#e68ad6"/>
    </linearGradient>
    <linearGradient color-interpolation="linearRGB" gradientTransform="matrix(0.0338, -0.0089, 0.0054, 0.0199, 17.0, -1.65)" gradientUnits="userSpaceOnUse" id="gradient39" spreadMethod="pad" x1="-819.2" x2="819.2">
      <stop offset="0.0" stop-color="#990095"/>
      <stop offset="0.9882352941176471" stop-color="#e68ad6"/>
    </linearGradient>
    <linearGradient color-interpolation="linearRGB" gradientTransform="matrix(0.0338, -0.0089, 0.0054, 0.0199, 18.2, -1.9)" gradientUnits="userSpaceOnUse" id="gradient40" spreadMethod="pad" x1="-819.2" x2="819.2">
      <stop offset="0.0" stop-color="#990095"/>
      <stop offset="0.9882352941176471" stop-color="#e68ad6"/>
    </linearGradient>
    <linearGradient color-interpolation="linearRGB" gradientTransform="matrix(0.0338, -0.0089, 0.0054, 0.0199, 16.35, -2.65)" gradientUnits="userSpaceOnUse" id="gradient41" spreadMethod="pad" x1="-819.2" x2="819.2">
      <stop offset="0.0" stop-color="#990095"/>
      <stop offset="0.9882352941176471" stop-color="#e68ad6"/>
    </linearGradient>
    <linearGradient color-interpolation="linearRGB" gradientTransform="matrix(0.0338, -0.0089, 0.0054, 0.0199, 14.7, -1.9)" gradientUnits="userSpaceOnUse" id="gradient42" spreadMethod="pad" x1="-819.2" x2="819.2">
      <stop offset="0.0" stop-color="#990095"/>
      <stop offset="0.9882352941176471" stop-color="#e68ad6"/>
    </linearGradient>
    <linearGradient color-interpolation="linearRGB" gradientTransform="matrix(0.0338, -0.0089, 0.0054, 0.0199, 15.7, -1.1)" gradientUnits="userSpaceOnUse" id="gradient43" spreadMethod="pad" x1="-819.2" x2="819.2">
      <stop offset="0.0" stop-color="#990095"/>
      <stop offset="0.9882352941176471" stop-color="#e68ad6"/>
    </linearGradient>
    <linearGradient color-interpolation="linearRGB" gradientTransform="matrix(0.0338, -0.0089, 0.0054, 0.0199, 19.25, 0.05)" gradientUnits="userSpaceOnUse" id="gradient44" spreadMethod="pad" x1="-819.2" x2="819.2">
      <stop offset="0.0" stop-color="#990095"/>
      <stop offset="0.9882352941176471" stop-color="#e68ad6"/>
    </linearGradient>
    <linearGradient color-interpolation="linearRGB" gradientTransform="matrix(0.0249, -0.0246, 0.0146, 0.0146, 17.5, 4.05)" gradientUnits="userSpaceOnUse" id="gradient45" spreadMethod="pad" x1="-819.2" x2="819.2">
      <stop offset="0.0" stop-color="#990095"/>
      <stop offset="0.9882352941176471" stop-color="#e68ad6"/>
    </linearGradient>
    <linearGradient color-interpolation="linearRGB" gradientTransform="matrix(0.0249, -0.0246, 0.0146, 0.0146, 17.75, 6.25)" gradientUnits="userSpaceOnUse" id="gradient46" spreadMethod="pad" x1="-819.2" x2="819.2">
      <stop offset="0.0" stop-color="#990095"/>
      <stop offset="0.9882352941176471" stop-color="#e68ad6"/>
    </linearGradient>
    <linearGradient color-interpolation="linearRGB" gradientTransform="matrix(0.0249, -0.0246, 0.0146, 0.0146, 16.45, 7.15)" gradientUnits="userSpaceOnUse" id="gradient47" spreadMethod="pad" x1="-819.2" x2="819.2">
      <stop offset="0.0" stop-color="#990095"/>
      <stop offset="0.9882352941176471" stop-color="#e68ad6"/>
    </linearGradient>
    <linearGradient color-interpolation="linearRGB" gradientTransform="matrix(0.0334, -0.0102, 0.0061, 0.0197, 9.35, 5.75)" gradientUnits="userSpaceOnUse" id="gradient48" spreadMethod="pad" x1="-819.2" x2="819.2">
      <stop offset="0.0" stop-color="#990095"/>
      <stop offset="0.9882352941176471" stop-color="#e68ad6"/>
    </linearGradient>
    <linearGradient color-interpolation="linearRGB" gradientTransform="matrix(0.0327, -0.0125, 0.0075, 0.0192, 14.6, 2.4)" gradientUnits="userSpaceOnUse" id="gradient49" spreadMethod="pad" x1="-819.2" x2="819.2">
      <stop offset="0.0" stop-color="#990095"/>
      <stop offset="0.9882352941176471" stop-color="#e68ad6"/>
    </linearGradient>
    <linearGradient color-interpolation="linearRGB" gradientTransform="matrix(0.0336, -0.0095, 0.0057, 0.0198, 13.75, 3.4)" gradientUnits="userSpaceOnUse" id="gradient50" spreadMethod="pad" x1="-819.2" x2="819.2">
      <stop offset="0.0" stop-color="#990095"/>
      <stop offset="0.9882352941176471" stop-color="#e68ad6"/>
    </linearGradient>
    <linearGradient color-interpolation="linearRGB" gradientTransform="matrix(0.0336, -0.0095, 0.0057, 0.0198, 11.3, 3.5)" gradientUnits="userSpaceOnUse" id="gradient51" spreadMethod="pad" x1="-819.2" x2="819.2">
      <stop offset="0.0" stop-color="#990095"/>
      <stop offset="0.9882352941176471" stop-color="#e68ad6"/>
    </linearGradient>
    <linearGradient color-interpolation="linearRGB" gradientTransform="matrix(0.0336, -0.0095, 0.0057, 0.0198, 10.35, 2.9)" gradientUnits="userSpaceOnUse" id="gradient52" spreadMethod="pad" x1="-819.2" x2="819.2">
      <stop offset="0.0" stop-color="#990095"/>
      <stop offset="0.9882352941176471" stop-color="#e68ad6"/>
    </linearGradient>
  </defs>
</svg>
