<?xml version="1.0" encoding="UTF-8" standalone="no"?>
<svg xmlns:ffdec="https://www.free-decompiler.com/flash" xmlns:xlink="http://www.w3.org/1999/xlink" ffdec:objectType="frame" height="148.4px" width="166.25px" xmlns="http://www.w3.org/2000/svg">
  <g transform="matrix(1.0, 0.0, 0.0, 1.0, 112.0, 87.15)">
    <use ffdec:characterId="62" height="21.2" transform="matrix(7.0, 0.0, 0.0, 7.0, -112.0, -87.15)" width="23.75" xlink:href="#shape0"/>
  </g>
  <defs>
    <g id="shape0" transform="matrix(1.0, 0.0, 0.0, 1.0, 16.0, 12.45)">
      <path d="M-6.1 8.35 L-6.7 7.95 -6.8 7.4 Q-6.8 7.2 -6.6 6.9 -6.9 6.8 -7.5 6.35 L-7.85 6.1 -7.9 6.0 -8.35 5.65 -8.7 5.6 -9.15 5.7 -9.45 5.65 -9.5 5.45 Q-9.7 4.95 -9.6 4.35 -9.65 4.2 -9.75 4.05 L-9.75 3.95 Q-10.05 3.5 -10.45 2.0 -11.2 1.95 -11.9 1.45 -12.1 1.35 -12.25 1.2 L-12.55 0.9 -12.9 0.5 Q-13.45 0.4 -14.55 -0.05 -16.0 -0.6 -16.0 -0.8 -16.0 -1.2 -15.3 -2.15 L-14.75 -2.8 -14.75 -2.85 Q-14.9 -3.3 -14.9 -3.6 -14.9 -3.9 -14.8 -4.2 -14.65 -4.7 -14.25 -5.15 -14.15 -5.4 -13.5 -6.0 L-12.85 -6.5 Q-12.85 -6.85 -12.5 -7.35 L-12.7 -7.6 -12.7 -7.75 -12.45 -7.75 Q-12.4 -7.75 -12.3 -7.65 L-12.2 -7.7 -12.4 -7.95 -12.4 -8.5 Q-12.2 -8.6 -12.05 -8.15 L-12.0 -7.95 -11.65 -8.25 -11.55 -8.45 Q-11.5 -9.0 -11.25 -9.6 -10.9 -10.35 -10.4 -11.0 -9.95 -11.6 -9.6 -11.8 L-9.55 -11.8 Q-9.45 -11.95 -9.2 -12.0 -8.8 -12.25 -8.3 -12.25 -7.8 -12.3 -6.8 -12.0 L-6.55 -12.0 -4.0 -12.05 -2.7 -12.15 -2.5 -12.2 -2.55 -12.15 -2.4 -12.2 -2.2 -12.25 -1.9 -12.25 Q-1.55 -12.35 -0.95 -12.4 1.7 -12.65 3.65 -11.5 L4.1 -11.45 Q4.4 -11.3 4.65 -11.1 5.15 -10.7 5.4 -10.1 5.85 -9.6 6.15 -9.05 6.6 -8.25 6.6 -7.8 6.6 -7.55 6.35 -6.8 L6.4 -6.8 Q7.3 -6.75 7.65 -6.3 L7.65 -6.2 Q7.6 -6.15 7.5 -6.15 7.3 -6.15 7.15 -6.25 7.05 -6.35 6.7 -6.35 L6.25 -6.35 6.2 -6.3 6.2 -6.25 6.15 -6.05 6.2 -6.0 6.6 -5.85 Q7.6 -5.45 7.75 -5.0 L7.75 -4.9 7.65 -4.85 6.65 -5.3 5.95 -5.6 Q5.95 -5.45 6.0 -5.3 L5.95 -5.25 6.1 -5.15 Q6.2 -4.95 6.35 -4.8 6.75 -4.4 6.75 -3.6 L6.75 -3.45 6.65 -3.25 6.55 -2.85 6.6 -2.85 6.55 -2.7 6.45 -2.25 6.4 -2.35 6.25 -2.15 6.25 -2.05 Q6.25 -1.75 5.65 -1.35 L5.6 -1.3 5.55 -1.3 4.95 -0.85 4.95 -0.75 Q4.85 -0.6 4.85 -0.25 L4.85 0.15 4.9 0.25 4.9 0.3 Q4.95 0.7 5.15 0.9 L5.3 1.0 5.35 1.1 5.45 1.15 5.75 1.35 5.9 1.6 6.0 1.8 Q6.2 2.2 6.25 2.65 L6.45 3.55 Q6.45 3.7 6.25 4.2 6.15 4.65 5.85 5.4 L5.75 5.6 4.95 6.1 5.25 5.4 5.4 4.95 5.9 3.4 Q5.8 2.85 5.4 2.05 L4.8 1.25 4.55 0.95 4.5 0.9 4.45 0.9 Q4.35 0.75 4.3 0.5 L4.3 0.25 4.25 0.2 Q4.25 0.0 4.3 -0.2 L4.3 -0.95 Q4.0 -0.9 3.85 -0.8 L3.3 -0.75 3.15 -0.8 Q2.95 -0.8 2.8 -0.9 L3.05 -0.45 3.05 -0.4 3.15 -0.25 3.15 -0.15 3.25 -0.05 3.85 1.15 3.95 1.35 4.05 1.6 4.1 1.6 4.15 1.75 4.45 2.3 Q4.5 2.8 4.6 3.45 L4.7 4.0 4.65 4.25 4.6 4.35 4.6 4.55 4.55 4.75 4.5 4.75 4.5 4.8 4.4 5.3 4.35 5.5 Q4.45 4.75 4.45 4.2 4.45 3.35 4.15 2.65 L4.05 2.25 4.05 2.15 3.55 1.3 3.4 1.1 2.95 0.2 Q2.55 -0.6 2.3 -1.25 L2.35 -1.3 2.25 -1.4 2.35 -1.65 2.4 -1.8 Q2.45 -1.55 2.55 -1.45 2.8 -1.05 3.3 -1.05 L3.75 -1.05 3.8 -1.05 Q4.15 -1.1 4.45 -1.2 L4.55 -1.25 Q4.6 -1.35 4.7 -1.3 4.95 -1.4 5.2 -1.6 L5.25 -1.65 5.6 -2.5 Q6.0 -3.3 6.3 -3.75 L6.3 -4.35 6.25 -4.55 6.15 -4.75 6.1 -4.8 6.05 -4.8 5.4 -4.85 Q4.35 -4.6 3.65 -4.3 3.05 -4.05 2.35 -3.6 L2.25 -3.6 Q2.2 -3.65 2.2 -3.75 2.2 -3.9 2.75 -4.25 L2.95 -4.35 3.15 -4.5 3.1 -4.55 Q2.95 -4.6 2.8 -4.7 2.65 -4.85 2.5 -5.1 L2.25 -5.5 Q2.0 -6.05 1.8 -7.0 L1.8 -8.2 1.85 -8.25 2.0 -8.25 Q2.2 -8.25 2.75 -7.9 L3.25 -7.5 3.45 -7.35 3.9 -7.0 4.4 -6.65 4.1 -7.3 Q3.7 -8.1 3.7 -8.25 3.7 -8.65 3.9 -8.55 4.05 -8.5 4.45 -8.1 L4.85 -7.65 Q5.3 -7.1 5.6 -6.9 L5.8 -7.5 Q5.8 -7.9 5.65 -8.3 L5.5 -8.7 Q5.3 -9.3 5.05 -9.75 4.8 -10.15 4.6 -10.25 L4.5 -10.4 3.85 -10.8 3.05 -11.15 2.95 -11.15 2.25 -11.2 1.85 -11.35 Q0.4 -11.9 0.0 -11.7 L-1.3 -11.75 -2.25 -11.65 -2.6 -11.55 -2.9 -11.45 -3.85 -11.25 Q-4.05 -11.25 -4.95 -10.8 L-5.0 -10.8 Q-5.05 -10.8 -5.05 -10.95 L-4.6 -11.2 -3.95 -11.55 -6.05 -11.55 Q-6.5 -11.7 -7.5 -11.65 L-8.3 -11.5 -8.35 -11.5 -9.0 -11.4 Q-9.55 -11.1 -9.9 -10.8 -10.25 -10.4 -10.5 -9.85 L-10.65 -9.55 -10.75 -9.05 -10.75 -8.9 -10.7 -8.95 Q-10.5 -9.1 -10.2 -9.1 -9.45 -9.2 -9.2 -8.85 L-9.2 -8.75 -9.35 -8.75 -9.6 -8.85 -10.25 -8.8 Q-10.6 -8.55 -10.9 -8.2 L-10.9 -8.1 -10.85 -8.05 Q-10.75 -8.05 -10.65 -7.95 L-10.4 -7.65 -9.95 -7.05 -9.85 -6.85 Q-9.5 -6.3 -9.35 -5.95 L-9.25 -5.7 Q-9.15 -5.6 -9.0 -5.6 L-8.75 -5.95 Q-8.65 -6.15 -8.55 -6.2 -8.5 -6.3 -8.5 -6.1 -8.5 -6.05 -8.7 -5.75 -8.85 -5.5 -8.95 -5.45 L-9.0 -5.45 -9.05 -5.5 -9.2 -5.45 -9.3 -5.35 -9.3 -5.4 -9.4 -5.45 -9.35 -5.3 Q-9.55 -5.1 -9.6 -4.95 L-9.7 -4.55 Q-9.7 -4.3 -9.75 -4.2 -9.9 -3.75 -10.3 -3.15 L-10.3 -3.1 -10.55 -2.9 -10.65 -2.95 -10.7 -3.0 Q-10.1 -3.5 -9.85 -4.35 L-9.8 -4.35 -9.8 -4.4 -9.75 -4.4 -9.8 -4.55 -9.9 -4.35 Q-10.15 -3.95 -10.35 -3.85 L-10.4 -3.85 -10.45 -3.9 -10.45 -3.95 Q-10.45 -4.0 -10.15 -4.3 L-10.05 -4.45 -10.0 -4.45 -9.95 -4.55 -9.85 -4.7 -9.75 -4.85 -9.55 -5.45 -9.5 -5.55 -9.55 -5.55 -9.5 -5.6 -9.5 -5.65 -9.65 -5.85 -9.85 -6.25 -9.95 -6.4 -10.0 -6.5 -10.1 -6.7 -10.65 -7.5 -10.7 -7.65 -10.75 -7.7 -10.85 -7.8 -10.9 -7.75 Q-11.1 -7.7 -11.4 -7.5 -11.7 -7.25 -11.9 -7.0 L-12.05 -6.8 -12.2 -6.55 -12.3 -6.4 Q-12.35 -6.35 -12.35 -6.05 L-12.4 -6.0 -12.4 -5.55 -12.25 -5.1 Q-12.1 -4.65 -11.8 -4.3 L-11.8 -4.25 -11.55 -4.0 -11.6 -4.0 -11.65 -3.9 Q-12.1 -3.95 -12.5 -4.75 -12.8 -5.4 -12.8 -5.8 L-12.8 -5.85 -12.9 -5.75 -13.0 -5.6 Q-13.1 -5.3 -13.1 -4.9 L-13.0 -4.45 -13.05 -4.55 -13.05 -4.6 -13.15 -4.95 Q-13.2 -5.1 -13.25 -5.25 L-13.25 -5.5 -13.3 -5.45 -13.5 -5.25 Q-14.45 -4.2 -14.45 -3.2 L-14.45 -3.1 -13.85 -1.95 -13.65 -1.35 -13.5 -0.85 Q-13.4 -0.35 -13.0 -0.25 L-12.7 -0.25 -12.6 -0.25 -12.45 -0.15 -12.2 0.1 -12.15 0.1 -12.15 0.15 -12.1 0.15 -12.05 0.2 -12.1 0.25 -12.05 0.3 -11.65 0.7 Q-11.05 1.3 -10.6 1.3 L-10.15 1.25 -10.05 1.2 -9.9 0.5 -9.9 0.3 -9.8 -0.4 Q-9.7 -1.35 -9.5 -2.35 L-9.45 -2.7 -9.4 -2.75 -9.4 -2.95 -9.25 -2.95 -9.2 -2.8 -9.2 -2.0 -9.35 -0.95 -9.35 -0.65 -9.4 -0.55 -9.4 -0.5 -9.45 -0.05 -9.5 0.3 -9.55 0.6 -9.6 1.05 Q-9.6 1.15 -9.65 1.4 L-9.65 1.65 -9.6 2.2 -9.6 2.3 Q-9.55 2.6 -9.4 2.9 L-9.4 2.85 -9.35 2.85 -9.15 3.5 -9.25 4.45 -9.25 4.5 Q-9.2 4.8 -9.05 4.9 L-8.75 4.9 -8.55 4.85 -8.5 4.8 -8.15 5.15 -8.05 5.2 -7.95 5.3 Q-7.75 5.55 -7.4 5.7 L-7.15 5.8 -5.25 5.85 Q-4.25 5.85 -3.45 6.1 L-3.4 6.1 -3.2 6.15 Q-3.0 6.2 -2.8 6.25 L-2.75 6.3 Q-2.3 6.45 -2.15 6.8 -2.15 6.85 -2.25 6.85 L-2.3 6.8 -2.35 6.9 -2.45 6.9 Q-2.65 6.9 -2.85 6.8 -3.2 6.6 -3.3 6.55 -4.0 6.25 -5.55 6.2 L-5.6 6.25 -5.65 6.35 -5.65 6.4 -5.75 6.6 -5.75 6.65 -5.9 7.05 -5.9 7.1 Q-6.2 7.8 -6.2 8.05 L-6.2 8.15 -6.15 8.25 -6.15 8.3 -6.1 8.35 M-2.45 8.35 L-2.9 8.45 Q-2.55 8.15 -1.9 7.7 L-0.3 6.7 Q-0.7 7.25 -2.45 8.35 M2.35 -8.8 L2.35 -8.75 2.3 -8.75 2.35 -8.8 M4.6 -7.0 L4.65 -6.9 Q4.75 -6.75 4.75 -6.6 L4.75 -6.35 Q4.65 -6.25 4.45 -6.25 L4.15 -6.3 Q3.85 -6.4 3.5 -6.7 L3.15 -6.95 3.0 -7.05 2.2 -7.8 2.2 -7.1 Q2.4 -6.3 2.7 -5.8 L2.8 -5.65 3.1 -5.25 3.5 -4.9 3.7 -4.75 3.95 -4.85 4.3 -5.0 Q4.0 -5.1 3.7 -5.35 3.2 -5.7 3.2 -5.95 L3.2 -6.0 3.9 -5.55 Q4.35 -5.3 4.65 -5.1 L5.2 -5.2 5.2 -5.5 Q5.2 -5.7 5.45 -6.5 5.2 -6.55 4.85 -6.9 L4.65 -7.15 4.45 -7.35 Q4.5 -7.2 4.6 -7.0 M4.4 -3.8 L4.1 -3.65 4.05 -3.6 3.7 -3.2 3.5 -3.1 3.65 -3.1 4.35 -3.05 4.45 -3.0 Q4.65 -3.0 4.7 -2.85 4.7 -2.75 4.7 -2.45 L4.7 -2.0 Q4.65 -1.75 4.3 -1.55 L4.25 -1.55 4.2 -1.55 4.2 -1.65 4.35 -2.05 Q4.5 -2.4 4.5 -2.45 L4.45 -2.75 4.3 -2.95 4.3 -2.9 3.3 -2.9 3.3 -3.05 3.35 -3.15 3.55 -3.35 Q3.7 -3.55 3.9 -3.7 4.55 -4.0 5.1 -4.15 L5.15 -4.15 5.2 -4.1 Q5.35 -4.1 5.5 -3.95 L5.55 -3.95 5.6 -3.85 5.6 -3.65 5.55 -3.2 5.5 -3.2 5.45 -3.4 5.45 -3.8 5.4 -3.8 5.35 -3.9 Q5.25 -3.95 5.15 -3.95 L4.7 -3.95 4.4 -3.8 M0.2 -4.85 Q0.5 -5.05 0.5 -5.4 L0.5 -5.6 0.25 -5.65 0.05 -5.7 Q0.1 -5.65 0.1 -5.5 0.1 -5.4 0.0 -5.25 -0.1 -5.1 -0.25 -5.1 -0.45 -5.1 -0.6 -5.25 -0.75 -5.4 -0.75 -5.5 -0.75 -5.65 -0.6 -5.75 L-0.85 -5.7 -1.25 -5.75 -1.55 -5.7 -2.3 -5.7 Q-2.25 -5.45 -2.0 -5.1 -1.8 -4.8 -1.55 -4.55 L-1.4 -4.45 -1.4 -4.4 -1.3 -4.3 -1.2 -4.25 Q-0.7 -4.05 0.65 -4.3 L0.8 -4.25 0.85 -4.25 0.85 -4.2 0.65 -4.05 Q0.55 -4.0 0.3 -4.0 L-0.05 -4.0 -0.1 -4.0 -0.95 -4.05 Q-1.1 -4.1 -1.25 -4.15 L-1.35 -4.2 -1.4 -4.25 Q-1.85 -4.45 -2.2 -4.95 -2.55 -5.4 -2.55 -5.7 -2.9 -5.75 -3.3 -5.9 -3.6 -6.0 -3.9 -6.2 -4.15 -6.4 -4.4 -6.6 L-4.65 -6.8 -4.7 -6.85 -4.55 -6.8 -3.9 -6.45 Q-3.2 -6.0 -2.65 -6.0 L-2.15 -6.05 -2.1 -6.05 0.65 -6.0 0.8 -5.95 1.05 -5.7 1.05 -5.75 0.95 -5.9 1.3 -5.6 1.35 -5.5 1.5 -5.25 Q1.6 -4.95 1.6 -4.75 L1.55 -4.3 1.5 -4.25 Q1.5 -4.55 1.4 -4.85 1.25 -5.2 1.05 -5.5 L1.05 -5.55 0.9 -5.5 0.8 -5.5 0.7 -5.25 0.7 -5.1 Q0.6 -4.9 0.15 -4.6 L-0.05 -4.6 0.2 -4.85 M-13.65 -8.35 L-13.65 -8.35 M-12.55 -6.05 L-12.55 -6.05 M-12.55 -6.0 L-12.55 -6.0 M-11.65 -6.05 L-11.45 -6.0 Q-11.7 -5.9 -11.8 -5.6 -11.9 -5.4 -11.9 -5.15 L-11.9 -4.8 Q-11.85 -4.65 -11.65 -4.45 -11.85 -4.65 -11.95 -4.85 L-11.95 -5.15 Q-11.95 -5.4 -11.9 -5.65 -11.8 -5.9 -11.65 -6.05 M-11.65 -5.0 Q-11.65 -5.4 -11.35 -5.45 -11.2 -5.45 -11.1 -5.35 -11.0 -5.25 -11.0 -5.1 -11.0 -5.0 -11.1 -4.85 -11.2 -4.7 -11.4 -4.7 -11.6 -4.7 -11.65 -4.85 L-11.65 -5.0 M-14.5 -2.15 L-14.55 -2.25 -14.6 -2.3 -14.65 -2.5 -15.05 -1.9 Q-15.4 -1.25 -15.5 -0.85 L-14.0 -0.3 -13.8 -0.2 -13.9 -0.35 Q-14.1 -0.55 -14.15 -0.85 -14.2 -1.25 -14.5 -2.15 M-11.85 -3.15 L-11.9 -3.15 -11.9 -3.2 -11.85 -3.15 M-11.75 -1.0 L-11.75 -1.05 -11.85 -1.2 -11.95 -1.45 -12.0 -1.65 -12.0 -2.45 Q-11.9 -2.3 -11.85 -2.15 L-11.85 -1.9 Q-11.8 -1.35 -11.45 -1.0 L-11.0 -0.45 -10.6 0.05 -10.75 0.05 -10.9 -0.1 -11.5 -0.75 -11.75 -1.0 M-0.15 -10.8 Q-2.5 -10.8 -3.45 -10.4 L-3.25 -10.5 Q-2.35 -11.1 -1.5 -11.15 L-0.85 -11.05 Q-0.5 -11.0 -0.15 -10.8 M-5.9 -8.5 L-5.6 -9.0 Q-4.9 -10.05 -4.4 -10.2 L-5.55 -8.65 -5.75 -8.25 Q-5.95 -7.85 -6.0 -7.65 L-6.05 -7.6 -6.1 -7.3 -6.3 -7.5 -6.25 -7.5 Q-6.2 -7.9 -5.9 -8.5 M-4.85 -8.25 Q-4.85 -8.2 -4.85 -8.1 L-4.95 -7.7 Q-5.1 -7.3 -5.1 -7.2 -5.1 -7.1 -4.9 -6.9 -4.65 -6.65 -4.6 -6.5 -4.9 -6.45 -5.15 -6.75 -5.3 -7.0 -5.3 -7.2 -5.3 -7.45 -5.2 -7.75 -5.05 -8.05 -4.9 -8.25 L-4.85 -8.25 M-0.1 -9.1 L-0.15 -9.05 -0.15 -9.1 -0.1 -9.1 M-6.1 -4.55 L-6.25 -4.55 Q-6.5 -4.35 -6.55 -3.7 L-6.65 -3.25 -6.9 -3.2 -7.3 -3.05 Q-7.45 -3.2 -7.6 -3.45 L-7.85 -4.05 -7.95 -4.1 Q-8.15 -4.1 -8.35 -3.85 L-8.5 -3.75 -8.55 -3.75 -8.55 -3.7 -8.6 -3.75 -8.65 -3.75 -8.65 -3.8 Q-8.75 -3.9 -8.8 -4.05 L-8.8 -4.5 -8.75 -4.65 -8.6 -5.2 Q-8.45 -5.55 -8.15 -5.55 L-8.25 -5.75 -8.5 -6.5 Q-8.65 -6.95 -8.8 -7.25 L-8.75 -7.35 -8.75 -7.5 Q-8.75 -7.9 -8.35 -8.2 L-8.1 -8.35 -7.85 -8.45 -7.85 -8.5 -7.55 -8.35 -7.65 -8.3 -7.7 -8.3 -7.8 -8.25 -8.1 -8.0 Q-8.35 -7.75 -8.4 -7.45 L-8.4 -7.15 -7.95 -5.9 -7.95 -5.95 -7.75 -5.25 Q-7.65 -4.85 -7.55 -4.6 L-7.55 -4.45 Q-7.8 -4.75 -8.0 -5.15 -8.4 -5.05 -8.5 -4.65 -8.6 -4.4 -8.55 -3.9 L-8.45 -3.9 Q-8.3 -4.15 -7.9 -4.35 L-7.75 -4.2 Q-7.6 -4.05 -7.45 -3.8 L-7.15 -3.2 -7.15 -3.15 Q-7.0 -3.25 -6.95 -3.35 L-6.8 -4.05 Q-6.7 -4.5 -6.65 -4.7 L-6.6 -4.7 -6.3 -4.85 -6.2 -4.85 Q-5.95 -4.85 -5.8 -4.7 L-5.8 -4.4 Q-5.75 -4.0 -5.65 -3.95 L-5.65 -3.9 -5.6 -3.95 -5.6 -3.9 Q-5.35 -4.05 -5.3 -4.2 -5.25 -4.25 -5.25 -4.5 -5.25 -4.9 -5.7 -5.3 L-5.8 -5.35 -5.8 -5.4 -5.85 -5.4 -6.1 -5.6 -6.1 -5.65 -6.15 -5.6 -6.2 -5.55 -6.3 -5.5 -6.3 -5.45 -6.65 -5.2 -6.7 -5.2 -6.7 -5.3 Q-6.7 -5.5 -6.4 -5.7 -6.25 -5.8 -6.15 -5.85 -5.85 -5.7 -5.65 -5.6 L-5.4 -5.4 -5.25 -5.25 -5.25 -5.2 Q-5.05 -4.9 -5.05 -4.65 L-5.05 -4.15 -5.45 -3.75 -5.55 -3.75 -5.7 -3.7 -5.8 -3.7 Q-5.95 -3.8 -6.0 -4.1 L-5.95 -4.4 -6.0 -4.5 -6.05 -4.6 -6.1 -4.55 M-6.35 -6.25 Q-6.55 -6.0 -6.7 -5.95 L-6.8 -5.95 Q-5.65 -7.25 -4.45 -6.1 -4.1 -5.75 -3.7 -5.1 L-3.35 -4.35 -3.45 -4.3 Q-3.75 -4.75 -4.35 -5.4 -5.0 -6.1 -5.5 -6.5 L-6.05 -6.5 -6.35 -6.25 M-10.85 -5.95 Q-10.7 -5.9 -10.6 -5.55 -10.45 -5.3 -10.45 -5.2 -10.45 -5.1 -10.55 -4.8 -10.7 -4.5 -10.8 -4.45 L-10.65 -4.8 -10.55 -5.2 Q-10.55 -5.3 -10.7 -5.6 -10.85 -5.9 -10.9 -5.9 L-10.85 -5.95 M-11.3 -3.05 L-11.25 -3.1 -11.25 -3.05 -11.3 -3.05 M-8.25 -0.3 Q-8.25 -0.25 -8.25 -0.45 L-8.25 -0.6 Q-8.5 -0.5 -8.5 -0.35 L-8.45 -0.25 -8.35 -0.2 -8.25 -0.3 M-8.55 -0.5 Q-8.4 -0.9 -7.8 -1.2 -7.45 -1.4 -6.25 -1.85 -5.35 -2.2 -5.1 -2.5 -4.15 -3.6 -2.45 -2.9 -1.85 -2.65 -1.25 -2.2 -0.75 -1.8 -0.55 -1.5 0.2 -0.3 1.3 1.8 2.45 3.95 2.45 4.15 L2.45 4.2 Q2.65 3.8 2.65 3.6 L2.65 3.55 Q2.65 3.35 2.55 3.1 2.5 2.85 2.3 2.55 2.0 1.95 1.35 1.2 L0.9 0.45 0.9 0.35 1.0 0.5 1.1 0.6 Q2.85 2.6 2.85 3.6 L2.85 3.8 2.8 3.9 Q2.75 4.35 2.45 4.65 L2.5 4.8 2.5 4.95 2.45 4.95 2.3 5.0 Q0.55 4.15 -0.7 3.6 -3.0 2.65 -4.0 2.65 -5.15 2.65 -6.45 3.3 L-7.3 3.75 Q-7.75 4.0 -8.05 4.0 L-8.4 3.95 -8.4 3.6 Q-8.4 3.4 -8.3 3.35 -8.45 2.75 -8.55 2.0 L-8.65 0.6 -8.7 0.2 -8.65 0.1 -8.7 0.05 -8.65 0.05 Q-8.65 -0.3 -8.55 -0.5 M-7.6 -1.05 Q-8.05 -0.85 -8.05 -0.4 -7.65 0.45 -7.4 0.45 L-7.25 0.4 -7.2 0.4 -7.15 -0.2 -7.1 -0.6 Q-7.1 -1.25 -7.6 -1.05 M-5.95 -1.75 Q-5.95 -1.65 -5.9 -1.65 L-5.8 -1.65 -5.65 -1.7 -5.65 -1.85 Q-5.65 -2.0 -5.7 -1.9 L-5.85 -1.9 Q-5.95 -1.9 -5.95 -1.75 M-6.05 -0.95 Q-5.9 -1.15 -5.9 -1.3 -5.9 -1.65 -6.25 -1.6 -6.55 -1.6 -6.8 -1.2 L-6.5 -0.95 -6.35 -0.75 -6.25 -0.75 Q-6.15 -0.75 -6.05 -0.95 M-5.85 -1.5 L-5.85 -1.1 -5.7 -1.05 -5.55 -1.1 -5.5 -1.2 Q-5.45 -1.35 -5.6 -1.45 -5.7 -1.5 -5.85 -1.5 M-7.1 -1.3 L-7.05 -1.25 -6.9 -1.25 Q-6.9 -1.3 -7.05 -1.35 L-7.1 -1.3 M-7.0 -0.75 L-7.0 -0.6 -6.95 -0.6 -6.8 -0.55 Q-6.6 -0.55 -6.5 -0.7 L-6.45 -0.75 -6.55 -0.8 -6.8 -1.1 Q-7.0 -0.95 -7.0 -0.75 M-5.45 -5.8 Q-4.9 -5.5 -3.95 -4.55 L-2.4 -2.95 Q-2.95 -3.35 -3.95 -4.35 L-5.45 -5.8 M-4.2 -2.05 L-4.2 -2.25 Q-4.7 -2.3 -5.15 -2.1 -5.55 -1.9 -5.55 -1.7 -5.05 -0.8 -4.7 -0.8 L-4.55 -0.8 -4.3 -1.45 Q-4.2 -1.85 -4.2 -2.05 M-4.2 -2.45 L-4.05 -2.3 -4.05 -2.0 Q-4.05 -1.95 -3.9 -1.95 L-3.85 -1.85 Q-3.75 -1.55 -3.5 -1.55 -3.3 -1.55 -3.2 -1.9 -3.1 -2.15 -3.1 -2.35 -3.1 -2.8 -3.65 -2.8 -4.2 -2.85 -4.2 -2.45 M-4.2 -2.65 Q-3.85 -2.9 -3.45 -2.9 -1.95 -2.4 -1.25 -1.95 L-1.2 -2.05 Q-1.75 -2.45 -2.25 -2.6 L-3.95 -3.1 Q-4.8 -2.75 -4.8 -2.5 L-4.75 -2.4 -4.75 -2.45 -4.55 -2.4 Q-4.5 -2.4 -4.2 -2.65 M-1.9 -2.2 Q-2.0 -2.2 -2.0 -2.1 L-2.0 -1.95 -1.95 -1.9 -1.75 -1.9 -1.65 -1.95 -1.6 -2.1 Q-1.8 -2.2 -1.9 -2.2 M-2.2 -2.1 Q-2.2 -2.4 -2.55 -2.5 -2.95 -2.55 -2.95 -2.1 L-2.85 -1.75 Q-2.75 -1.45 -2.55 -1.45 -2.4 -1.45 -2.3 -1.7 -2.2 -1.95 -2.2 -2.1 M-1.4 1.6 L-1.7 2.95 -1.75 2.95 -1.75 3.0 Q-0.85 3.3 0.2 3.75 L0.4 3.85 0.15 3.2 -0.05 2.65 0.0 2.85 Q-0.25 2.55 -0.55 1.8 L-1.25 0.05 Q-1.25 0.65 -1.4 1.6 M-3.1 2.35 L-3.1 2.45 -2.7 2.5 -2.55 2.55 -2.35 2.6 -1.85 2.8 -1.75 2.75 -1.7 2.55 Q-1.75 2.6 -2.05 2.45 L-2.2 2.45 -2.2 2.35 Q-2.2 2.05 -2.5 2.1 -2.8 2.1 -2.8 2.25 L-2.75 2.45 -2.7 2.5 Q-2.95 2.35 -3.1 2.3 L-2.9 2.25 Q-2.85 2.2 -2.85 2.05 -2.85 1.5 -3.05 1.5 L-3.45 1.6 Q-3.45 2.0 -3.45 2.4 L-3.1 2.35 M-5.0 2.4 Q-4.95 2.3 -4.95 2.1 -4.95 1.6 -5.4 1.7 -5.8 1.75 -5.8 2.15 L-5.8 2.5 -5.65 2.5 -5.45 2.55 -5.3 2.55 -4.95 2.5 -4.7 2.45 -4.7 2.4 -5.0 2.4 M-3.8 1.6 Q-3.85 1.6 -3.95 1.55 -4.0 1.6 -4.1 1.8 L-4.2 2.0 Q-4.45 1.4 -4.65 1.35 -4.85 1.3 -4.85 1.85 L-4.85 2.2 Q-4.8 2.35 -4.4 2.35 -4.25 2.35 -4.15 2.25 L-4.1 2.3 -4.05 2.3 -3.95 2.4 -3.55 2.4 -3.55 1.6 -3.6 1.6 -3.8 1.65 -3.8 1.6 M-6.85 3.15 L-6.25 2.95 Q-5.8 2.75 -5.65 2.55 L-5.7 2.5 -5.95 2.6 Q-6.25 2.35 -6.45 2.0 L-6.65 1.5 -6.85 1.25 Q-7.1 1.6 -7.15 2.25 L-7.15 3.15 -7.2 3.15 -7.35 3.25 -7.4 3.2 -7.65 3.15 Q-7.75 3.2 -7.8 3.25 L-7.75 3.35 -7.7 3.4 Q-7.9 3.55 -7.95 3.55 L-7.85 3.65 -7.7 3.65 -7.45 3.45 -7.15 3.25 -7.15 3.35 -6.85 3.15 M-5.6 4.55 L-5.9 4.25 Q-5.85 4.2 -5.8 4.2 -5.55 4.25 -5.45 4.35 L-5.25 4.55 -5.2 4.65 Q-3.9 4.6 -2.4 4.9 -1.3 5.1 -0.2 5.45 L-1.85 5.25 Q-2.1 5.15 -2.35 5.0 -2.55 4.9 -2.9 4.85 L-4.6 4.8 -5.25 4.8 Q-5.4 4.75 -5.6 4.55 M-9.25 5.35 L-9.25 5.35 M0.45 2.65 Q0.3 2.85 0.3 3.2 0.3 3.5 0.35 3.65 0.45 3.95 0.9 3.95 1.05 3.95 1.15 3.9 1.2 3.95 1.2 3.75 1.2 2.7 0.75 2.55 0.55 2.45 0.45 2.65 M1.95 4.35 Q2.1 4.35 2.1 4.25 1.5 3.7 1.2 4.1 L1.45 4.25 1.95 4.35 M2.85 6.3 L0.65 5.5 -1.75 4.55 Q-0.7 4.75 0.45 5.15 2.0 5.65 2.85 6.25 L2.85 6.3 M3.75 4.65 Q3.75 4.95 3.55 5.3 3.35 5.75 3.05 5.85 2.95 5.85 2.95 5.8 3.25 5.5 3.4 4.95 3.6 4.35 3.65 4.25 3.75 4.4 3.75 4.65" fill="#000000" fill-rule="evenodd" stroke="none"/>
      <path d="M6.25 -6.35 L6.2 -6.0 6.15 -6.05 6.2 -6.25 6.2 -6.3 6.25 -6.35 M4.15 6.5 Q3.4 6.85 2.6 7.05 L0.25 7.75 Q-1.1 8.15 -1.85 8.25 L-2.45 8.35 Q-0.7 7.25 -0.3 6.7 L-1.9 7.7 Q-2.55 8.15 -2.9 8.45 L-3.0 8.45 -4.05 8.6 -5.6 8.75 -6.1 8.35 -6.15 8.3 -6.15 8.25 -6.2 8.15 -6.2 8.05 Q-6.2 7.8 -5.9 7.1 L-5.9 7.05 -5.8 7.2 Q-5.45 7.85 -4.6 7.85 -3.8 7.85 -3.1 7.55 -2.45 7.25 -2.45 6.95 L-2.45 6.9 -2.35 6.9 -2.3 6.8 -2.25 6.85 Q-2.15 6.85 -2.15 6.8 -2.3 6.45 -2.75 6.3 -2.95 6.15 -3.1 6.1 L-3.4 6.1 -3.45 6.1 Q-4.25 5.85 -5.25 5.85 L-7.15 5.8 -7.4 5.7 Q-7.75 5.55 -7.95 5.3 L-8.05 5.2 -8.15 5.15 -8.5 4.8 -8.55 4.85 -8.75 4.9 -9.05 4.9 Q-9.2 4.8 -9.25 4.5 L-9.25 4.45 -9.15 3.5 -9.35 2.85 -9.4 2.85 -9.4 2.9 Q-9.55 2.6 -9.6 2.3 L-9.6 2.2 -9.65 1.65 -9.65 1.4 Q-9.6 1.15 -9.6 1.05 L-9.55 0.6 -9.5 0.3 -9.45 -0.05 -9.4 -0.5 -9.4 -0.55 -9.35 -0.65 -9.35 -0.95 -9.2 -2.0 -9.2 -2.8 -9.25 -2.95 -9.4 -2.95 -9.4 -2.75 -9.45 -2.7 -9.5 -2.35 -9.55 -2.4 -9.75 -2.2 Q-9.85 -1.9 -10.05 -1.6 -10.45 -0.9 -10.9 -0.9 -11.3 -0.9 -11.5 -1.4 L-11.55 -1.45 Q-11.7 -1.6 -11.85 -1.9 L-11.85 -1.9 -11.85 -2.15 Q-11.9 -2.3 -12.0 -2.45 L-12.0 -1.65 -11.95 -1.45 -11.85 -1.2 -11.75 -1.05 -11.75 -1.0 -11.7 -0.9 Q-11.5 -0.2 -11.5 -0.1 -11.5 0.1 -11.5 0.15 -11.6 0.3 -11.85 0.3 L-12.05 0.3 -12.1 0.25 -12.05 0.2 -12.1 0.15 -12.15 0.15 -12.15 0.1 -12.2 0.1 -12.45 -0.15 -12.6 -0.25 -12.7 -0.25 -13.0 -0.25 Q-13.4 -0.35 -13.5 -0.85 L-13.65 -1.35 -13.85 -1.95 -14.45 -3.1 -14.45 -3.2 Q-14.45 -4.2 -13.5 -5.25 L-13.3 -5.45 -13.3 -5.25 -13.35 -5.05 Q-13.35 -4.65 -13.2 -4.2 -13.05 -3.8 -12.75 -3.6 L-12.7 -3.5 Q-12.45 -3.3 -12.15 -3.2 -11.85 -3.1 -11.55 -3.1 -11.3 -3.2 -11.15 -3.25 L-11.1 -3.25 -10.95 -3.35 -10.6 -3.75 -10.5 -3.85 -10.45 -3.9 -10.4 -3.85 -10.35 -3.85 Q-10.15 -3.95 -9.9 -4.35 L-9.85 -4.35 Q-10.1 -3.5 -10.7 -3.0 L-10.65 -2.95 -10.55 -2.9 -10.3 -3.1 -10.3 -3.15 Q-9.9 -3.75 -9.75 -4.2 -9.7 -4.3 -9.7 -4.55 L-9.6 -4.95 Q-9.55 -5.1 -9.35 -5.3 L-9.4 -5.45 -9.3 -5.4 -9.3 -5.35 -9.2 -5.45 -9.05 -5.5 -9.0 -5.45 -8.95 -5.45 Q-8.85 -5.5 -8.7 -5.75 -8.5 -6.05 -8.5 -6.1 -8.5 -6.3 -8.55 -6.2 -8.65 -6.15 -8.75 -5.95 L-9.0 -5.6 Q-9.15 -5.6 -9.25 -5.7 L-9.35 -5.95 Q-9.5 -6.3 -9.85 -6.85 L-9.95 -7.05 -10.4 -7.65 -10.65 -7.95 Q-10.75 -8.05 -10.85 -8.05 L-10.9 -8.1 -10.9 -8.2 Q-10.6 -8.55 -10.25 -8.8 L-9.6 -8.85 -9.35 -8.75 -9.2 -8.75 -9.2 -8.85 Q-9.45 -9.2 -10.2 -9.1 -10.5 -9.1 -10.7 -8.95 L-10.75 -8.9 -10.75 -9.05 -10.65 -9.55 -10.5 -9.85 Q-10.25 -10.4 -9.9 -10.8 -9.55 -11.1 -9.0 -11.4 L-8.35 -11.5 -8.3 -11.5 -7.5 -11.65 Q-6.5 -11.7 -6.05 -11.55 L-3.95 -11.55 -4.6 -11.2 -5.05 -10.95 Q-5.05 -10.8 -5.0 -10.8 L-4.95 -10.8 Q-4.05 -11.25 -3.85 -11.25 L-2.9 -11.45 -2.6 -11.55 -2.25 -11.65 -1.3 -11.75 0.0 -11.7 Q0.4 -11.9 1.85 -11.35 L2.25 -11.2 2.95 -11.15 3.05 -11.15 3.85 -10.8 4.5 -10.4 4.6 -10.25 4.55 -10.3 Q4.3 -10.4 4.3 -9.95 4.3 -9.6 4.75 -8.85 L4.95 -8.45 4.95 -8.05 Q4.95 -7.95 4.85 -7.65 L4.45 -8.1 Q4.05 -8.5 3.9 -8.55 3.7 -8.65 3.7 -8.25 3.7 -8.1 4.1 -7.3 4.0 -7.35 3.9 -7.35 L3.85 -7.35 3.85 -7.2 3.9 -7.0 3.45 -7.35 3.3 -7.9 Q3.0 -8.85 2.55 -8.6 2.5 -8.65 2.5 -8.45 L2.75 -7.9 Q2.2 -8.25 2.0 -8.25 L1.85 -8.25 1.8 -8.2 1.8 -7.0 Q2.0 -6.05 2.25 -5.5 L2.5 -5.1 2.45 -5.1 Q2.45 -5.05 2.3 -5.05 1.85 -4.6 1.85 -4.55 1.85 -4.35 1.9 -4.35 L2.1 -4.35 Q2.5 -4.35 2.8 -4.7 2.95 -4.6 3.1 -4.55 L3.0 -4.5 2.95 -4.35 2.75 -4.25 Q2.2 -3.9 2.2 -3.75 2.2 -3.65 2.25 -3.6 L2.35 -3.6 Q3.05 -4.05 3.65 -4.3 4.35 -4.6 5.4 -4.85 L6.05 -4.8 6.1 -4.8 6.15 -4.75 6.25 -4.55 6.0 -4.45 6.2 -4.4 Q6.05 -4.25 5.9 -4.2 L5.8 -4.2 5.3 -4.15 5.2 -4.15 5.2 -4.1 5.15 -4.15 5.1 -4.15 Q4.55 -4.0 3.9 -3.7 3.7 -3.55 3.55 -3.35 L3.35 -3.15 3.3 -3.05 3.3 -2.9 4.3 -2.9 4.3 -2.95 4.45 -2.75 4.5 -2.45 Q4.5 -2.4 4.35 -2.05 L4.2 -1.65 4.2 -1.55 4.25 -1.55 Q4.05 -1.2 3.7 -1.15 L3.8 -1.05 3.75 -1.05 3.5 -1.1 Q3.4 -1.1 3.3 -1.05 2.8 -1.05 2.55 -1.45 2.45 -1.55 2.4 -1.8 L2.35 -1.65 2.25 -1.4 2.35 -1.3 2.3 -1.25 Q2.55 -0.6 2.95 0.2 L3.4 1.1 3.7 1.75 Q4.0 2.2 4.1 2.5 L4.15 2.65 Q4.45 3.35 4.45 4.2 4.45 4.75 4.35 5.5 L4.2 6.4 4.15 6.5 M-9.65 -5.85 L-9.5 -5.65 -9.6 -5.75 -9.65 -5.85 M3.85 1.15 L3.25 -0.05 3.15 -0.15 3.15 -0.25 3.05 -0.4 3.05 -0.45 2.8 -0.9 Q2.95 -0.8 3.15 -0.8 L3.3 -0.75 3.85 -0.8 Q4.0 -0.9 4.3 -0.95 L4.3 -0.2 Q4.25 0.0 4.25 0.2 L4.3 0.25 4.3 0.5 3.95 0.3 3.95 0.35 4.1 0.85 4.05 1.0 Q4.0 1.15 3.85 1.15 M0.95 -10.1 Q0.95 -10.35 0.65 -10.5 L-0.05 -10.5 Q-0.45 -10.45 -0.7 -10.25 -1.0 -10.05 -1.0 -9.75 -1.05 -9.6 -0.95 -9.45 -0.8 -9.15 -0.4 -9.15 0.0 -9.15 0.3 -9.35 L0.45 -9.4 0.55 -9.5 Q0.95 -9.8 0.95 -10.1 M2.35 -8.8 L2.3 -8.75 2.35 -8.75 2.35 -8.8 M4.65 -7.15 L4.6 -7.0 Q4.5 -7.2 4.45 -7.35 L4.65 -7.15 M4.1 -3.65 L4.4 -3.8 Q4.25 -3.75 4.1 -3.65 M3.65 -3.1 L3.5 -3.1 3.7 -3.2 3.65 -3.1 M0.5 -5.4 Q0.5 -5.05 0.2 -4.85 0.3 -4.95 0.4 -5.15 L0.5 -5.4 M1.4 -4.85 Q1.5 -4.55 1.5 -4.25 L1.55 -4.3 1.6 -4.75 Q1.6 -4.95 1.5 -5.25 L1.35 -5.5 1.4 -5.45 1.35 -5.55 1.3 -5.6 0.95 -5.9 0.85 -6.0 0.65 -6.0 -2.1 -6.05 -2.15 -6.05 -2.65 -6.0 Q-3.2 -6.0 -3.9 -6.45 L-4.55 -6.8 -4.7 -6.85 -4.65 -6.8 -4.65 -6.75 -4.7 -6.65 -4.6 -6.5 Q-4.3 -6.05 -4.1 -5.8 L-4.05 -5.8 -3.7 -5.35 -3.2 -5.35 -3.15 -5.2 -2.7 -4.4 -2.4 -4.2 -1.75 -3.6 Q-1.0 -3.2 0.1 -3.2 L0.45 -3.2 0.7 -3.3 Q-0.8 -3.5 -1.6 -3.9 -2.2 -4.2 -2.5 -4.7 L-2.85 -5.35 -2.55 -5.0 Q-1.55 -4.0 -0.4 -4.0 L-0.05 -4.0 0.3 -4.0 Q0.55 -4.0 0.65 -4.05 L0.85 -4.2 0.85 -4.25 0.8 -4.25 0.95 -4.3 Q1.25 -4.55 1.4 -4.85 M-4.4 -6.6 Q-4.15 -6.4 -3.9 -6.2 -3.6 -6.0 -3.3 -5.9 L-3.35 -5.9 Q-3.7 -5.9 -3.95 -6.05 L-4.15 -6.3 -4.4 -6.55 -4.4 -6.6 M2.1 -2.95 Q2.1 -3.45 1.75 -3.55 1.5 -3.6 1.05 -3.35 0.65 -3.05 0.35 -2.65 0.0 -2.25 0.0 -1.9 L0.05 -1.7 Q0.15 -1.45 0.55 -1.45 L0.65 -1.5 0.75 -1.45 0.9 -1.55 Q1.25 -1.65 1.65 -2.1 2.1 -2.7 2.1 -2.95 M-12.7 -0.25 L-12.7 -0.25 M-0.15 -10.8 Q-0.5 -11.0 -0.85 -11.05 L-1.5 -11.15 Q-2.35 -11.1 -3.25 -10.5 L-3.45 -10.4 Q-2.5 -10.8 -0.15 -10.8 M-5.4 -10.75 L-5.25 -10.85 -6.1 -10.45 -6.3 -10.25 -6.3 -10.2 -6.3 -10.15 -6.25 -10.15 Q-6.05 -10.3 -5.85 -10.4 L-5.8 -10.4 Q-5.7 -10.4 -5.4 -10.75 M-3.2 -9.2 Q-3.35 -9.0 -3.35 -8.85 -3.4 -8.75 -3.35 -8.7 -3.3 -8.6 -3.0 -8.6 -2.65 -8.6 -2.4 -8.9 -2.15 -9.15 -2.15 -9.25 -2.15 -9.5 -2.35 -9.55 L-2.75 -9.5 Q-3.0 -9.4 -3.2 -9.2 M-6.0 -7.65 Q-5.95 -7.85 -5.75 -8.25 L-5.55 -8.65 -4.4 -10.2 Q-4.9 -10.05 -5.6 -9.0 L-5.9 -8.5 -6.1 -8.3 -6.7 -7.75 -6.3 -7.5 -6.1 -7.3 -6.05 -7.3 -6.05 -7.35 -6.0 -7.5 -6.0 -7.65 M-4.85 -8.25 L-4.9 -8.25 Q-5.05 -8.05 -5.2 -7.75 -5.3 -7.45 -5.3 -7.2 -5.3 -7.0 -5.15 -6.75 -4.9 -6.45 -4.6 -6.5 -4.65 -6.65 -4.9 -6.9 -5.1 -7.1 -5.1 -7.2 -5.1 -7.3 -4.95 -7.7 L-4.85 -8.1 Q-4.85 -8.2 -4.85 -8.25 M-1.4 -9.8 L-1.75 -9.8 -1.6 -9.75 -1.25 -9.75 -1.4 -9.8 M-1.3 -9.55 L-1.4 -9.7 Q-1.65 -9.7 -1.75 -9.6 L-1.9 -9.45 -1.85 -9.35 -1.85 -9.3 -1.55 -9.25 Q-1.35 -9.45 -1.3 -9.55 M-0.1 -9.1 L-0.15 -9.1 -0.15 -9.05 -0.1 -9.1 M-8.7 -8.75 L-8.7 -8.55 -8.65 -8.5 -8.55 -8.5 Q-8.45 -8.6 -8.45 -8.8 -8.4 -9.0 -8.35 -9.1 -8.1 -9.4 -6.95 -9.4 -6.65 -9.4 -6.45 -9.3 L-6.0 -9.35 -6.1 -9.45 -6.2 -9.5 -6.25 -9.5 Q-6.65 -9.7 -7.2 -9.7 -7.8 -9.65 -8.25 -9.45 -8.7 -9.15 -8.7 -8.75 M-6.65 -4.7 Q-6.7 -4.5 -6.8 -4.05 L-6.95 -3.35 Q-7.0 -3.25 -7.15 -3.15 L-7.15 -3.2 -7.45 -3.8 Q-7.6 -4.05 -7.75 -4.2 L-7.9 -4.35 Q-8.3 -4.15 -8.45 -3.9 L-8.55 -3.9 Q-8.6 -4.4 -8.5 -4.65 -8.4 -5.05 -8.0 -5.15 -7.8 -4.75 -7.55 -4.45 L-7.55 -4.6 Q-7.65 -4.85 -7.75 -5.25 L-7.95 -5.95 -7.95 -5.9 -8.4 -7.15 -8.4 -7.45 Q-8.35 -7.75 -8.1 -8.0 L-7.8 -8.25 -7.7 -8.3 -7.65 -8.3 -7.55 -8.35 -7.85 -8.5 -7.85 -8.45 -8.1 -8.35 -8.35 -8.2 Q-8.75 -7.9 -8.75 -7.5 L-8.75 -7.35 -8.8 -7.25 Q-8.65 -6.95 -8.5 -6.5 L-8.25 -5.75 -8.15 -5.55 Q-8.45 -5.55 -8.6 -5.2 L-8.75 -4.65 -8.8 -4.5 -8.8 -4.05 Q-8.75 -3.9 -8.65 -3.8 L-8.65 -3.75 -8.6 -3.75 -8.55 -3.7 -8.55 -3.75 -8.5 -3.75 -8.35 -3.85 Q-8.15 -4.1 -7.95 -4.1 L-7.85 -4.05 -7.6 -3.45 Q-7.45 -3.2 -7.3 -3.05 L-6.9 -3.2 -6.65 -3.25 -6.55 -3.7 Q-6.5 -4.35 -6.25 -4.55 L-6.1 -4.55 -6.0 -4.5 -5.95 -4.4 -6.0 -4.1 Q-5.95 -3.8 -5.8 -3.7 L-5.7 -3.7 -5.55 -3.75 -5.45 -3.75 -5.05 -4.15 -5.05 -4.65 Q-5.05 -4.9 -5.25 -5.2 L-5.25 -5.25 -5.3 -5.25 -5.45 -5.45 -5.65 -5.6 Q-5.85 -5.7 -6.15 -5.85 -6.25 -5.8 -6.4 -5.7 -6.7 -5.5 -6.7 -5.3 L-6.7 -5.2 -6.65 -5.2 -6.3 -5.45 -6.3 -5.5 -6.2 -5.55 -6.05 -5.5 Q-5.9 -5.4 -5.9 -5.2 -5.9 -5.05 -6.05 -4.95 L-6.1 -4.95 -6.1 -5.0 Q-6.35 -5.05 -6.5 -4.95 -6.65 -4.85 -6.65 -4.75 L-6.65 -4.7 M-6.35 -6.25 L-6.05 -6.5 -5.5 -6.5 Q-5.0 -6.1 -4.35 -5.4 -3.75 -4.75 -3.45 -4.3 L-3.35 -4.35 -3.7 -5.1 Q-4.1 -5.75 -4.45 -6.1 -5.65 -7.25 -6.8 -5.95 L-6.7 -5.95 Q-6.55 -6.0 -6.35 -6.25 M-6.3 -5.9 L-6.35 -5.9 -6.35 -5.85 -6.25 -5.85 -6.3 -5.9 M-6.15 -5.6 L-6.1 -5.65 -6.1 -5.6 -6.15 -5.6 M-5.6 -3.95 L-5.65 -3.9 -5.6 -3.95 M-11.3 -3.05 L-11.25 -3.05 -11.25 -3.1 -11.3 -3.05 M-8.55 -0.5 Q-8.65 -0.3 -8.65 0.05 L-8.7 0.05 -8.65 0.1 -8.7 0.2 -8.65 0.6 -8.55 2.0 Q-8.45 2.75 -8.3 3.35 -8.4 3.4 -8.4 3.6 L-8.4 3.95 -8.05 4.0 Q-7.75 4.0 -7.3 3.75 L-6.45 3.3 Q-5.15 2.65 -4.0 2.65 -3.0 2.65 -0.7 3.6 0.55 4.15 2.3 5.0 L2.45 4.95 2.5 4.95 2.5 4.8 2.45 4.65 Q2.75 4.35 2.8 3.9 L2.85 3.8 2.85 3.6 Q2.85 2.6 1.1 0.6 L1.0 0.5 0.9 0.35 0.9 0.45 1.35 1.2 Q2.0 1.95 2.3 2.55 2.5 2.85 2.55 3.1 2.65 3.35 2.65 3.55 L2.65 3.6 Q2.65 3.8 2.45 4.2 L2.45 4.15 Q2.45 3.95 1.3 1.8 0.2 -0.3 -0.55 -1.5 -0.75 -1.8 -1.25 -2.2 -1.85 -2.65 -2.45 -2.9 -4.15 -3.6 -5.1 -2.5 -5.35 -2.2 -6.25 -1.85 -7.45 -1.4 -7.8 -1.2 -8.4 -0.9 -8.55 -0.5 M-5.45 -5.8 L-3.95 -4.35 Q-2.95 -3.35 -2.4 -2.95 L-3.95 -4.55 Q-4.9 -5.5 -5.45 -5.8 M-2.0 -2.8 L-2.0 -2.8 M-5.6 4.55 L-5.8 4.6 -5.65 4.8 Q-5.5 5.0 -5.2 5.15 -4.35 5.55 -2.5 5.55 L-1.15 5.5 -0.2 5.45 0.2 5.4 0.15 5.35 Q-1.15 4.7 -2.75 4.55 -3.9 4.45 -5.25 4.55 L-5.45 4.35 Q-5.55 4.25 -5.8 4.2 -5.85 4.2 -5.9 4.25 L-5.6 4.55 M5.35 2.45 L5.3 2.5 5.15 2.55 4.95 2.4 4.95 2.3 Q4.95 2.25 5.05 2.2 5.15 2.1 5.15 2.0 L5.25 2.15 Q5.35 2.25 5.35 2.3 L5.35 2.45 M5.55 3.45 Q5.55 3.65 5.5 3.7 5.45 3.85 5.1 3.9 L5.0 3.8 Q4.95 3.75 4.95 3.6 4.95 3.4 5.0 3.3 5.1 3.05 5.5 3.2 L5.55 3.3 5.55 3.45 M2.85 6.3 L2.85 6.25 Q2.0 5.65 0.45 5.15 -0.7 4.75 -1.75 4.55 L0.65 5.5 2.85 6.3 M4.85 4.6 Q4.8 4.6 4.8 4.5 4.8 4.35 4.9 4.35 L5.1 4.3 5.15 4.4 5.05 4.6 4.85 4.6 M3.75 4.65 Q3.75 4.4 3.65 4.25 3.6 4.35 3.4 4.95 3.25 5.5 2.95 5.8 2.95 5.85 3.05 5.85 3.35 5.75 3.55 5.3 3.75 4.95 3.75 4.65 M3.2 3.8 Q3.35 3.75 3.35 3.65 2.75 1.65 2.35 0.85 1.5 -0.8 0.25 -1.35 1.05 -0.35 1.85 1.25 L3.2 3.8" fill="#e6c4c4" fill-rule="evenodd" stroke="none"/>
      <path d="M4.95 6.1 L4.15 6.5 4.2 6.4 4.35 5.5 4.4 5.3 4.5 4.8 4.5 4.75 4.55 4.75 4.6 4.55 4.6 4.35 4.65 4.25 4.7 4.0 4.6 3.45 Q4.5 2.8 4.45 2.3 L4.15 1.75 4.1 1.6 4.05 1.6 3.95 1.35 3.85 1.15 Q4.0 1.15 4.05 1.0 L4.1 0.85 3.95 0.35 3.95 0.3 4.3 0.5 Q4.35 0.75 4.45 0.9 L4.5 0.9 4.55 0.95 4.8 1.25 5.4 2.05 Q5.8 2.85 5.9 3.4 L5.4 4.95 5.25 5.4 4.95 6.1 M-5.9 7.05 L-5.75 6.65 -5.75 6.6 -5.65 6.4 -5.65 6.35 -5.6 6.25 -5.55 6.2 Q-4.0 6.25 -3.3 6.55 -3.2 6.6 -2.85 6.8 -2.65 6.9 -2.45 6.9 L-2.45 6.95 Q-2.45 7.25 -3.1 7.55 -3.8 7.85 -4.6 7.85 -5.45 7.85 -5.8 7.2 L-5.9 7.05 M-2.75 6.3 L-2.8 6.25 Q-3.0 6.2 -3.2 6.15 L-3.4 6.1 -3.1 6.1 Q-2.95 6.15 -2.75 6.3 M-9.5 -2.35 Q-9.7 -1.35 -9.8 -0.4 L-9.9 0.3 -9.9 0.5 -10.05 1.2 -10.15 1.25 -10.6 1.3 Q-11.05 1.3 -11.65 0.7 L-12.05 0.3 -11.85 0.3 Q-11.6 0.3 -11.5 0.15 -11.5 0.1 -11.5 -0.1 -11.5 -0.2 -11.7 -0.9 L-11.75 -1.0 -11.5 -0.75 -10.9 -0.1 -10.75 0.05 -10.6 0.05 -11.0 -0.45 -11.45 -1.0 Q-11.8 -1.35 -11.85 -1.9 L-11.85 -1.9 Q-11.7 -1.6 -11.55 -1.45 L-11.5 -1.4 Q-11.3 -0.9 -10.9 -0.9 -10.45 -0.9 -10.05 -1.6 -9.85 -1.9 -9.75 -2.2 L-9.55 -2.4 -9.5 -2.35 M-13.3 -5.45 L-13.25 -5.5 -13.25 -5.25 Q-13.2 -5.1 -13.15 -4.95 L-13.05 -4.6 -13.05 -4.55 -13.0 -4.45 -13.1 -4.9 Q-13.1 -5.3 -13.0 -5.6 L-12.9 -5.75 -12.8 -5.85 -12.8 -5.8 Q-12.8 -5.4 -12.5 -4.75 -12.1 -3.95 -11.65 -3.9 L-11.6 -4.0 Q-11.25 -3.75 -10.95 -3.75 L-10.9 -3.75 -10.8 -3.75 -10.65 -3.8 -10.6 -3.75 -10.95 -3.35 -11.1 -3.25 -11.15 -3.25 Q-11.3 -3.2 -11.55 -3.1 -11.85 -3.1 -12.15 -3.2 -12.45 -3.3 -12.7 -3.5 L-12.75 -3.6 Q-13.05 -3.8 -13.2 -4.2 -13.35 -4.65 -13.35 -5.05 L-13.3 -5.25 -13.3 -5.45 M-9.5 -5.65 L-9.5 -5.6 -9.55 -5.55 -9.6 -5.65 -9.6 -5.75 -9.5 -5.65 M4.6 -10.25 Q4.8 -10.15 5.05 -9.75 5.3 -9.3 5.5 -8.7 L5.65 -8.3 Q5.8 -7.9 5.8 -7.5 L5.6 -6.9 Q5.3 -7.1 4.85 -7.65 4.95 -7.95 4.95 -8.05 L4.95 -8.45 4.75 -8.85 Q4.3 -9.6 4.3 -9.95 4.3 -10.4 4.55 -10.3 L4.6 -10.25 M4.1 -7.3 L4.4 -6.65 3.9 -7.0 3.85 -7.2 3.85 -7.35 3.9 -7.35 Q4.0 -7.35 4.1 -7.3 M3.45 -7.35 L3.25 -7.5 2.75 -7.9 2.5 -8.45 Q2.5 -8.65 2.55 -8.6 3.0 -8.85 3.3 -7.9 L3.45 -7.35 M2.5 -5.1 Q2.65 -4.85 2.8 -4.7 2.5 -4.35 2.1 -4.35 L1.9 -4.35 Q1.85 -4.35 1.85 -4.55 1.85 -4.6 2.3 -5.05 2.45 -5.05 2.45 -5.1 L2.5 -5.1 M3.1 -4.55 L3.15 -4.5 2.95 -4.35 3.0 -4.5 3.1 -4.55 M6.25 -4.55 L6.3 -4.35 6.3 -3.75 Q6.0 -3.3 5.6 -2.5 L5.25 -1.65 5.2 -1.6 Q4.95 -1.4 4.7 -1.3 4.6 -1.35 4.55 -1.25 L4.45 -1.2 Q4.15 -1.1 3.8 -1.05 L3.7 -1.15 Q4.05 -1.2 4.25 -1.55 L4.3 -1.55 Q4.65 -1.75 4.7 -2.0 L4.7 -2.45 Q4.7 -2.75 4.7 -2.85 4.65 -3.0 4.45 -3.0 L4.35 -3.05 3.65 -3.1 3.7 -3.2 4.05 -3.6 4.1 -3.65 Q4.25 -3.75 4.4 -3.8 L4.7 -3.95 5.15 -3.95 Q5.25 -3.95 5.35 -3.9 L5.4 -3.8 5.45 -3.8 5.45 -3.4 5.5 -3.2 5.55 -3.2 5.6 -3.65 5.6 -3.85 5.55 -3.95 5.5 -3.95 Q5.35 -4.1 5.2 -4.1 L5.2 -4.15 5.3 -4.15 5.8 -4.2 5.9 -4.2 Q6.05 -4.25 6.2 -4.4 L6.0 -4.45 6.25 -4.55 M3.75 -1.05 L3.3 -1.05 Q3.4 -1.1 3.5 -1.1 L3.75 -1.05 M3.4 1.1 L3.55 1.3 4.05 2.15 4.05 2.25 4.15 2.65 4.1 2.5 Q4.0 2.2 3.7 1.75 L3.4 1.1 M3.15 -0.15 L3.15 -0.25 3.15 -0.15 M0.95 -10.1 Q0.95 -9.8 0.55 -9.5 L0.45 -9.4 0.3 -9.35 Q0.0 -9.15 -0.4 -9.15 -0.8 -9.15 -0.95 -9.45 -1.05 -9.6 -1.0 -9.75 -1.0 -10.05 -0.7 -10.25 -0.45 -10.45 -0.05 -10.5 L0.65 -10.5 Q0.95 -10.35 0.95 -10.1 M-0.05 -4.6 L0.15 -4.6 Q0.6 -4.9 0.7 -5.1 L0.7 -5.25 0.8 -5.5 0.9 -5.5 1.05 -5.55 1.05 -5.5 Q1.25 -5.2 1.4 -4.85 1.25 -4.55 0.95 -4.3 L0.8 -4.25 0.65 -4.3 Q-0.7 -4.05 -1.2 -4.25 L-1.3 -4.3 -1.4 -4.4 -1.4 -4.45 -1.55 -4.55 Q-1.8 -4.8 -2.0 -5.1 -2.25 -5.45 -2.3 -5.7 L-1.55 -5.7 Q-1.7 -5.65 -1.7 -5.45 -1.7 -5.25 -1.45 -4.95 -1.1 -4.5 -0.5 -4.5 -0.25 -4.5 -0.05 -4.6 M1.35 -5.5 L1.3 -5.6 1.35 -5.55 1.4 -5.45 1.35 -5.5 M0.95 -5.9 L1.05 -5.75 1.05 -5.7 0.8 -5.95 0.65 -6.0 0.85 -6.0 0.95 -5.9 M-2.1 -6.05 L-2.15 -6.05 -2.1 -6.05 M-4.65 -6.8 L-4.4 -6.6 -4.4 -6.55 -4.15 -6.3 -3.95 -6.05 Q-3.7 -5.9 -3.35 -5.9 L-3.3 -5.9 Q-2.9 -5.75 -2.55 -5.7 -2.55 -5.4 -2.2 -4.95 -1.85 -4.45 -1.4 -4.25 L-1.35 -4.2 -1.25 -4.15 Q-1.1 -4.1 -0.95 -4.05 L-0.1 -4.0 -0.05 -4.0 -0.4 -4.0 Q-1.55 -4.0 -2.55 -5.0 L-2.85 -5.35 -2.5 -4.7 Q-2.2 -4.2 -1.6 -3.9 -0.8 -3.5 0.7 -3.3 L0.45 -3.2 0.1 -3.2 Q-1.0 -3.2 -1.75 -3.6 L-2.4 -4.2 -2.7 -4.4 -3.15 -5.2 -3.2 -5.35 -3.7 -5.35 -4.05 -5.8 -4.1 -5.8 Q-4.3 -6.05 -4.6 -6.5 L-4.7 -6.65 -4.65 -6.75 -4.65 -6.8 M2.1 -2.95 Q2.1 -2.7 1.65 -2.1 1.25 -1.65 0.9 -1.55 L0.75 -1.45 0.65 -1.5 0.55 -1.45 Q0.15 -1.45 0.05 -1.7 L0.0 -1.9 Q0.0 -2.25 0.35 -2.65 0.65 -3.05 1.05 -3.35 1.5 -3.6 1.75 -3.55 2.1 -3.45 2.1 -2.95 M-12.55 -6.0 L-12.55 -6.0 M-12.55 -6.05 L-12.55 -6.05 M-11.85 -3.15 L-11.9 -3.2 -11.9 -3.15 -11.85 -3.15 M-12.7 -0.25 L-12.7 -0.25 M-5.85 -10.4 Q-6.05 -10.3 -6.25 -10.15 L-6.3 -10.15 -6.3 -10.2 -6.3 -10.25 -6.1 -10.45 -5.25 -10.85 -5.4 -10.75 -5.85 -10.4 M-3.2 -9.2 Q-3.0 -9.4 -2.75 -9.5 L-2.35 -9.55 Q-2.15 -9.5 -2.15 -9.25 -2.15 -9.15 -2.4 -8.9 -2.65 -8.6 -3.0 -8.6 -3.3 -8.6 -3.35 -8.7 -3.4 -8.75 -3.35 -8.85 -3.35 -9.0 -3.2 -9.2 M-6.0 -7.65 L-6.0 -7.5 -6.05 -7.35 -6.05 -7.3 -6.1 -7.3 -6.05 -7.6 -6.0 -7.65 M-6.3 -7.5 L-6.7 -7.75 -6.1 -8.3 -5.9 -8.5 Q-6.2 -7.9 -6.25 -7.5 L-6.3 -7.5 M-1.3 -9.55 Q-1.35 -9.45 -1.55 -9.25 L-1.85 -9.3 -1.85 -9.35 -1.9 -9.45 -1.75 -9.6 Q-1.65 -9.7 -1.4 -9.7 L-1.3 -9.55 M-8.7 -8.75 Q-8.7 -9.15 -8.25 -9.45 -7.8 -9.65 -7.2 -9.7 -6.65 -9.7 -6.25 -9.5 L-6.2 -9.5 -6.1 -9.45 -6.0 -9.35 -6.45 -9.3 Q-6.65 -9.4 -6.95 -9.4 -8.1 -9.4 -8.35 -9.1 -8.4 -9.0 -8.45 -8.8 -8.45 -8.6 -8.55 -8.5 L-8.65 -8.5 -8.7 -8.55 -8.7 -8.75 M-6.65 -4.7 L-6.65 -4.75 Q-6.65 -4.85 -6.5 -4.95 -6.35 -5.05 -6.1 -5.0 L-6.1 -4.95 -6.05 -4.95 Q-5.9 -5.05 -5.9 -5.2 -5.9 -5.4 -6.05 -5.5 L-6.2 -5.55 -6.15 -5.6 -6.1 -5.6 -5.85 -5.4 -5.8 -5.4 -5.8 -5.35 -5.7 -5.3 Q-5.25 -4.9 -5.25 -4.5 -5.25 -4.25 -5.3 -4.2 -5.35 -4.05 -5.6 -3.9 L-5.6 -3.95 -5.65 -3.9 -5.65 -3.95 Q-5.75 -4.0 -5.8 -4.4 L-5.8 -4.7 Q-5.95 -4.85 -6.2 -4.85 L-6.3 -4.85 -6.6 -4.7 -6.65 -4.7 M-6.7 -5.2 L-6.7 -5.3 -6.7 -5.2 M-5.65 -5.6 L-5.45 -5.45 -5.3 -5.25 -5.25 -5.25 -5.4 -5.4 -5.65 -5.6 M-6.0 -4.5 L-6.1 -4.55 -6.05 -4.6 -6.0 -4.5 M-6.3 -5.9 L-6.25 -5.85 -6.35 -5.85 -6.35 -5.9 -6.3 -5.9 M-10.65 -3.8 L-10.5 -3.85 -10.6 -3.75 -10.65 -3.8 M-2.0 -2.8 L-2.0 -2.8 M-5.25 4.55 Q-3.9 4.45 -2.75 4.55 -1.15 4.7 0.15 5.35 L0.2 5.4 -0.2 5.45 -1.15 5.5 -2.5 5.55 Q-4.35 5.55 -5.2 5.15 -5.5 5.0 -5.65 4.8 L-5.8 4.6 -5.6 4.55 Q-5.4 4.75 -5.25 4.8 L-4.6 4.8 -2.9 4.85 Q-2.55 4.9 -2.35 5.0 -2.1 5.15 -1.85 5.25 L-0.2 5.45 Q-1.3 5.1 -2.4 4.9 -3.9 4.6 -5.2 4.65 L-5.25 4.55 M5.55 3.45 L5.55 3.3 5.5 3.2 Q5.1 3.05 5.0 3.3 4.95 3.4 4.95 3.6 4.95 3.75 5.0 3.8 L5.1 3.9 Q5.45 3.85 5.5 3.7 5.55 3.65 5.55 3.45 M5.35 2.45 L5.35 2.3 Q5.35 2.25 5.25 2.15 L5.15 2.0 Q5.15 2.1 5.05 2.2 4.95 2.25 4.95 2.3 L4.95 2.4 5.15 2.55 5.3 2.5 5.35 2.45 M4.85 4.6 L5.05 4.6 5.15 4.4 5.1 4.3 4.9 4.35 Q4.8 4.35 4.8 4.5 4.8 4.6 4.85 4.6 M3.2 3.8 L1.85 1.25 Q1.05 -0.35 0.25 -1.35 1.5 -0.8 2.35 0.85 2.75 1.65 3.35 3.65 3.35 3.75 3.2 3.8" fill="#c57676" fill-rule="evenodd" stroke="none"/>
      <path d="M-11.6 -4.0 L-11.55 -4.0 -11.8 -4.25 -11.8 -4.3 Q-12.1 -4.65 -12.25 -5.1 L-12.4 -5.55 -12.4 -6.0 -12.35 -6.05 Q-12.35 -6.35 -12.3 -6.4 L-12.2 -6.55 -12.05 -6.8 -11.9 -7.0 Q-11.7 -7.25 -11.4 -7.5 -11.1 -7.7 -10.9 -7.75 -11.0 -7.6 -11.1 -7.3 L-11.1 -7.2 -10.95 -7.2 Q-10.95 -7.4 -10.75 -7.7 L-10.7 -7.65 -10.7 -7.55 -10.65 -7.5 -10.1 -6.7 -10.0 -6.5 Q-10.05 -6.6 -10.2 -6.6 L-10.1 -6.5 -10.2 -6.55 -10.25 -6.55 Q-10.0 -6.4 -9.9 -6.0 -9.8 -5.75 -9.7 -5.6 -9.75 -5.6 -9.8 -5.65 -9.85 -5.7 -9.9 -5.7 -10.0 -5.7 -9.95 -5.65 L-9.9 -5.6 -9.95 -5.6 -9.85 -5.5 -9.75 -5.45 -9.55 -5.45 -9.75 -4.85 -9.85 -4.7 -9.95 -4.9 Q-10.15 -5.2 -10.1 -5.35 L-10.15 -5.3 -10.15 -5.25 -10.2 -5.25 -10.2 -5.15 -10.1 -4.85 -9.95 -4.55 -10.0 -4.45 -10.05 -4.45 -10.15 -4.3 Q-10.45 -4.0 -10.45 -3.95 L-10.45 -3.9 -10.5 -3.85 -10.65 -3.8 -10.65 -3.85 -10.7 -3.9 Q-10.8 -3.9 -10.95 -4.0 L-11.1 -4.15 -11.15 -4.15 -11.15 -4.1 -11.1 -4.05 -11.1 -4.0 -11.0 -3.85 -10.9 -3.75 -10.95 -3.75 Q-11.25 -3.75 -11.6 -4.0 M0.5 -5.4 L0.4 -5.15 Q0.3 -4.95 0.2 -4.85 L-0.05 -4.6 Q-0.25 -4.5 -0.5 -4.5 -1.1 -4.5 -1.45 -4.95 -1.7 -5.25 -1.7 -5.45 -1.7 -5.65 -1.55 -5.7 L-1.25 -5.75 -0.85 -5.7 -0.6 -5.75 Q-0.75 -5.65 -0.75 -5.5 -0.75 -5.4 -0.6 -5.25 -0.45 -5.1 -0.25 -5.1 -0.1 -5.1 0.0 -5.25 0.1 -5.4 0.1 -5.5 0.1 -5.65 0.05 -5.7 L0.25 -5.65 0.5 -5.6 0.5 -5.4 M-11.75 -6.85 Q-11.75 -6.95 -11.65 -7.15 L-11.5 -7.4 -11.65 -7.2 Q-11.75 -7.0 -11.75 -6.9 L-11.75 -6.85 M-11.65 -6.05 Q-11.8 -5.9 -11.9 -5.65 -11.95 -5.4 -11.95 -5.15 L-11.95 -4.85 Q-11.85 -4.65 -11.65 -4.45 -11.85 -4.65 -11.9 -4.8 L-11.9 -5.15 Q-11.9 -5.4 -11.8 -5.6 -11.7 -5.9 -11.45 -6.0 L-11.65 -6.05 M-11.65 -5.0 L-11.65 -4.85 Q-11.6 -4.7 -11.4 -4.7 -11.2 -4.7 -11.1 -4.85 -11.0 -5.0 -11.0 -5.1 -11.0 -5.25 -11.1 -5.35 -11.2 -5.45 -11.35 -5.45 -11.65 -5.4 -11.65 -5.0 M-10.85 -5.95 L-10.9 -5.9 Q-10.85 -5.9 -10.7 -5.6 -10.55 -5.3 -10.55 -5.2 L-10.65 -4.8 -10.8 -4.45 Q-10.7 -4.5 -10.55 -4.8 -10.45 -5.1 -10.45 -5.2 -10.45 -5.3 -10.6 -5.55 -10.7 -5.9 -10.85 -5.95" fill="#ebd381" fill-rule="evenodd" stroke="none"/>
      <path d="M-9.95 -6.4 L-9.85 -6.25 -9.65 -5.85 -9.6 -5.75 -9.6 -5.65 -9.65 -5.7 Q-9.8 -5.9 -9.8 -6.1 L-9.95 -6.4 M-10.65 -3.8 L-10.8 -3.75 -10.9 -3.8 -10.65 -3.8" fill="#e1e1e1" fill-rule="evenodd" stroke="none"/>
      <path d="M-14.5 -2.15 Q-14.2 -1.25 -14.15 -0.85 -14.1 -0.55 -13.9 -0.35 L-13.8 -0.2 -14.0 -0.3 -15.5 -0.85 Q-15.4 -1.25 -15.05 -1.9 L-14.65 -2.5 -14.6 -2.3 -14.55 -2.25 -14.5 -2.15 M-7.6 -1.05 Q-7.1 -1.25 -7.1 -0.6 L-7.15 -0.2 -7.2 0.4 -7.25 0.4 -7.4 0.45 Q-7.65 0.45 -8.05 -0.4 -8.05 -0.85 -7.6 -1.05 M-5.85 -1.5 Q-5.7 -1.5 -5.6 -1.45 -5.45 -1.35 -5.5 -1.2 L-5.55 -1.1 -5.7 -1.05 -5.85 -1.1 -5.85 -1.5 M-6.05 -0.95 Q-6.15 -0.75 -6.25 -0.75 L-6.35 -0.75 -6.5 -0.95 -6.8 -1.2 Q-6.55 -1.6 -6.25 -1.6 -5.9 -1.65 -5.9 -1.3 -5.9 -1.15 -6.05 -0.95 M-7.0 -0.75 Q-7.0 -0.95 -6.8 -1.1 L-6.55 -0.8 -6.45 -0.75 -6.5 -0.7 Q-6.6 -0.55 -6.8 -0.55 L-6.95 -0.6 -7.0 -0.6 -7.0 -0.75 M-4.2 -2.45 Q-4.2 -2.85 -3.65 -2.8 -3.1 -2.8 -3.1 -2.35 -3.1 -2.15 -3.2 -1.9 -3.3 -1.55 -3.5 -1.55 -3.75 -1.55 -3.85 -1.85 L-3.9 -1.95 Q-4.05 -1.95 -4.05 -2.0 L-4.05 -2.3 -4.2 -2.45 M-4.2 -2.05 Q-4.2 -1.85 -4.3 -1.45 L-4.55 -0.8 -4.7 -0.8 Q-5.05 -0.8 -5.55 -1.7 -5.55 -1.9 -5.15 -2.1 -4.7 -2.3 -4.2 -2.25 L-4.2 -2.05 M-2.2 -2.1 Q-2.2 -1.95 -2.3 -1.7 -2.4 -1.45 -2.55 -1.45 -2.75 -1.45 -2.85 -1.75 L-2.95 -2.1 Q-2.95 -2.55 -2.55 -2.5 -2.2 -2.4 -2.2 -2.1 M-1.9 -2.2 Q-1.8 -2.2 -1.6 -2.1 L-1.65 -1.95 -1.75 -1.9 -1.95 -1.9 -2.0 -1.95 -2.0 -2.1 Q-2.0 -2.2 -1.9 -2.2 M-1.4 1.6 Q-1.25 0.65 -1.25 0.05 L-0.55 1.8 Q-0.25 2.55 0.0 2.85 L-0.05 2.65 0.15 3.2 0.4 3.85 0.2 3.75 Q-0.85 3.3 -1.75 3.0 L-1.75 2.95 -1.7 2.95 -1.4 1.6 M-3.1 2.35 L-3.45 2.4 Q-3.45 2.0 -3.45 1.6 L-3.05 1.5 Q-2.85 1.5 -2.85 2.05 -2.85 2.2 -2.9 2.25 L-3.1 2.3 -3.1 2.35 M-2.7 2.5 L-2.75 2.45 -2.8 2.25 Q-2.8 2.1 -2.5 2.1 -2.2 2.05 -2.2 2.35 L-2.2 2.45 -2.7 2.5 M-3.8 1.6 L-3.8 1.65 -3.6 1.6 -3.55 1.6 -3.55 2.4 -3.95 2.4 -4.05 2.3 -4.1 2.3 -4.15 2.25 Q-4.25 2.35 -4.4 2.35 -4.8 2.35 -4.85 2.2 L-4.85 1.85 Q-4.85 1.3 -4.65 1.35 -4.45 1.4 -4.2 2.0 L-4.1 1.8 Q-4.0 1.6 -3.95 1.55 -3.85 1.6 -3.8 1.6 M-5.45 2.55 L-5.65 2.5 -5.8 2.5 -5.8 2.15 Q-5.8 1.75 -5.4 1.7 -4.95 1.6 -4.95 2.1 -4.95 2.3 -5.0 2.4 L-5.25 2.4 -5.55 2.5 -5.45 2.55 M-6.85 3.15 L-7.15 3.35 -7.15 3.25 -6.85 3.15 M-7.7 3.4 L-7.75 3.35 -7.8 3.25 Q-7.75 3.2 -7.65 3.15 L-7.4 3.2 -7.35 3.25 -7.55 3.35 -7.7 3.4 M-7.15 3.15 L-7.15 2.25 Q-7.1 1.6 -6.85 1.25 L-6.65 1.5 -6.45 2.0 Q-6.25 2.35 -5.95 2.6 -6.15 2.7 -6.4 2.8 -6.85 3.0 -7.15 3.15 M0.45 2.65 Q0.55 2.45 0.75 2.55 1.2 2.7 1.2 3.75 1.2 3.95 1.15 3.9 1.05 3.95 0.9 3.95 0.45 3.95 0.35 3.65 0.3 3.5 0.3 3.2 0.3 2.85 0.45 2.65" fill="#f4ce95" fill-rule="evenodd" stroke="none"/>
      <path d="M6.0 -5.3 L6.1 -5.15 5.95 -5.25 6.0 -5.3 M6.75 -3.45 L6.6 -2.85 6.55 -2.85 6.65 -3.25 6.75 -3.45 M4.65 -7.15 L4.85 -6.9 Q5.2 -6.55 5.45 -6.5 5.2 -5.7 5.2 -5.5 L5.2 -5.2 4.65 -5.1 Q4.35 -5.3 3.9 -5.55 L3.2 -6.0 3.2 -5.95 Q3.2 -5.7 3.7 -5.35 4.0 -5.1 4.3 -5.0 L3.95 -4.85 3.7 -4.75 3.5 -4.9 3.1 -5.25 2.8 -5.65 2.7 -5.8 Q2.4 -6.3 2.2 -7.1 L2.2 -7.8 3.0 -7.05 3.15 -6.95 3.5 -6.7 Q3.85 -6.4 4.15 -6.3 L4.45 -6.25 Q4.65 -6.25 4.75 -6.35 L4.75 -6.6 Q4.75 -6.75 4.65 -6.9 L4.6 -7.0 4.65 -7.15 M-5.4 -10.75 Q-5.7 -10.4 -5.8 -10.4 L-5.85 -10.4 -5.4 -10.75" fill="#d1c4b6" fill-rule="evenodd" stroke="none"/>
      <path d="M-8.25 -0.3 L-8.35 -0.2 -8.45 -0.25 -8.5 -0.35 Q-8.5 -0.5 -8.25 -0.6 L-8.25 -0.45 Q-8.25 -0.25 -8.25 -0.3 M-5.95 -1.75 Q-5.95 -1.9 -5.85 -1.9 L-5.7 -1.9 Q-5.65 -2.0 -5.65 -1.85 L-5.65 -1.7 -5.8 -1.65 -5.9 -1.65 Q-5.95 -1.65 -5.95 -1.75 M-7.1 -1.3 L-7.05 -1.35 Q-6.9 -1.3 -6.9 -1.25 L-7.05 -1.25 -7.1 -1.3 M-4.2 -2.65 Q-4.5 -2.4 -4.55 -2.4 L-4.75 -2.45 -4.75 -2.4 -4.8 -2.5 Q-4.8 -2.75 -3.95 -3.1 L-2.25 -2.6 Q-1.75 -2.45 -1.2 -2.05 L-1.25 -1.95 Q-1.95 -2.4 -3.45 -2.9 -3.85 -2.9 -4.2 -2.65 M-2.2 2.45 L-2.05 2.45 Q-1.75 2.6 -1.7 2.55 L-1.75 2.75 -1.85 2.8 -2.35 2.6 -2.55 2.55 -2.7 2.5 -3.1 2.45 -3.1 2.35 -3.1 2.3 Q-2.95 2.35 -2.7 2.5 L-2.2 2.45 M-5.0 2.4 L-4.7 2.4 -4.7 2.45 -4.95 2.5 -5.3 2.55 -5.45 2.55 -5.55 2.5 -5.25 2.4 -5.0 2.4 M-5.95 2.6 L-5.7 2.5 -5.65 2.55 Q-5.8 2.75 -6.25 2.95 L-6.85 3.15 -7.15 3.25 -7.45 3.45 -7.7 3.65 -7.85 3.65 -7.95 3.55 Q-7.9 3.55 -7.7 3.4 L-7.55 3.35 -7.35 3.25 -7.2 3.15 -7.15 3.15 Q-6.85 3.0 -6.4 2.8 -6.15 2.7 -5.95 2.6 M1.95 4.35 L1.45 4.25 1.2 4.1 Q1.5 3.7 2.1 4.25 2.1 4.35 1.95 4.35" fill="#77835f" fill-rule="evenodd" stroke="none"/>
      <path d="M-10.9 -7.75 L-10.85 -7.8 -10.75 -7.7 Q-10.95 -7.4 -10.95 -7.2 L-11.1 -7.2 -11.1 -7.3 Q-11.0 -7.6 -10.9 -7.75 M-10.7 -7.65 L-10.65 -7.5 -10.7 -7.55 -10.7 -7.65 M-10.0 -6.5 L-9.95 -6.4 -9.8 -6.1 Q-9.8 -5.9 -9.65 -5.7 L-9.6 -5.65 -9.55 -5.55 -9.5 -5.55 -9.55 -5.45 -9.75 -5.45 -9.85 -5.5 -9.95 -5.6 -9.9 -5.6 -9.95 -5.65 Q-10.0 -5.7 -9.9 -5.7 -9.85 -5.7 -9.8 -5.65 -9.75 -5.6 -9.7 -5.6 -9.8 -5.75 -9.9 -6.0 -10.0 -6.4 -10.25 -6.55 L-10.2 -6.55 -10.1 -6.5 -10.2 -6.6 Q-10.05 -6.6 -10.0 -6.5 M-9.85 -4.7 L-9.95 -4.55 -10.1 -4.85 -10.2 -5.15 -10.2 -5.25 -10.15 -5.25 -10.15 -5.3 -10.1 -5.35 Q-10.15 -5.2 -9.95 -4.9 L-9.85 -4.7 M-10.0 -4.45 L-10.05 -4.45 -10.0 -4.45 M-9.9 -4.35 L-9.8 -4.55 -9.75 -4.4 -9.8 -4.4 -9.8 -4.35 -9.85 -4.35 -9.9 -4.35 M-11.75 -6.85 L-11.75 -6.9 Q-11.75 -7.0 -11.65 -7.2 L-11.5 -7.4 -11.65 -7.15 Q-11.75 -6.95 -11.75 -6.85 M-10.6 -3.75 L-10.65 -3.8 -10.6 -3.75 M-10.8 -3.75 L-10.9 -3.75 -11.0 -3.85 -11.1 -4.0 -11.1 -4.05 -11.15 -4.1 -11.15 -4.15 -11.1 -4.15 -10.95 -4.0 Q-10.8 -3.9 -10.7 -3.9 L-10.65 -3.85 -10.65 -3.8 -10.9 -3.8 -10.8 -3.75" fill="#b04a28" fill-rule="evenodd" stroke="none"/>
    </g>
  </defs>
</svg>
