<?xml version="1.0" encoding="UTF-8" standalone="no"?>
<svg xmlns:ffdec="https://www.free-decompiler.com/flash" xmlns:xlink="http://www.w3.org/1999/xlink" ffdec:objectType="frame" height="200.9px" width="140.35px" xmlns="http://www.w3.org/2000/svg">
  <g transform="matrix(1.0, 0.0, 0.0, 1.0, 75.6, 147.0)">
    <use ffdec:characterId="70" height="20.5" transform="matrix(7.0, 0.0, 0.0, 7.0, -50.4, -94.5)" width="13.1" xlink:href="#shape0"/>
  </g>
  <defs>
    <g id="shape0" transform="matrix(1.0, 0.0, 0.0, 1.0, 7.2, 13.5)">
      <path d="M0.2 -13.5 Q0.4 -13.55 1.0 -13.2 1.8 -12.8 1.75 -12.5 1.8 -12.35 1.6 -12.2 L1.7 -12.05 1.7 -12.0 Q1.95 -11.6 1.9 -11.25 1.9 -9.85 1.1 -9.9 L0.9 -9.95 Q0.65 -10.05 0.7 -10.25 0.65 -10.35 0.8 -10.5 L0.85 -10.5 Q0.75 -11.05 -0.7 -11.4 L-1.4 -11.5 -1.6 -11.3 Q-1.65 -11.25 -1.75 -11.25 L-1.95 -11.25 -2.05 -11.4 Q-2.1 -11.5 -2.25 -11.55 L-2.25 -11.6 Q-2.5 -11.8 -2.45 -12.05 -2.45 -12.55 -2.15 -12.45 L-2.1 -12.45 -1.8 -12.5 -1.65 -12.9 -1.55 -13.05 -1.4 -13.1 Q-1.35 -13.1 -1.2 -13.15 L-1.0 -13.25 -1.0 -13.3 -0.8 -13.4 Q-0.7 -13.4 -0.6 -13.3 L-0.5 -13.25 -0.4 -13.25 -0.25 -13.4 -0.05 -13.5 0.2 -13.5 M0.75 -7.35 Q1.55 -7.2 2.2 -6.5 L2.45 -6.2 Q2.75 -6.05 2.95 -5.65 3.2 -5.2 3.2 -4.65 3.2 -4.3 3.15 -4.25 L3.1 -4.2 Q3.05 -4.0 2.95 -3.9 L2.85 -4.0 2.8 -4.0 Q2.6 -3.75 2.6 -3.5 2.6 -3.05 3.15 -2.75 3.45 -2.55 4.25 -2.2 5.9 -1.35 5.9 0.5 5.9 1.15 5.7 1.6 L5.6 1.65 5.4 1.45 Q5.3 1.3 5.1 1.3 4.9 1.3 4.3 1.9 L3.8 2.4 Q3.6 2.9 3.5 3.35 3.5 3.55 3.65 3.9 L3.7 4.0 4.15 4.1 Q4.75 4.25 4.85 4.2 L4.95 4.2 Q5.1 4.05 5.2 4.0 5.3 4.2 5.3 4.5 5.3 4.95 4.7 5.4 L4.1 5.8 Q3.85 5.95 3.6 6.0 L3.4 6.0 Q3.15 6.05 3.1 5.95 L3.0 5.9 Q2.9 5.8 2.9 5.7 L2.85 5.65 Q2.3 5.65 1.85 5.85 1.65 5.95 1.4 6.1 1.25 6.3 1.05 6.5 0.3 7.0 -1.7 7.0 L-2.15 7.0 -4.45 6.9 Q-5.1 6.75 -5.55 6.3 -6.2 6.0 -6.65 5.2 -7.2 4.25 -7.2 3.4 -7.2 1.4 -4.95 -0.45 L-4.1 -1.1 -3.55 -1.8 Q-3.05 -2.35 -2.7 -2.55 -2.85 -3.05 -3.5 -3.55 -4.35 -4.15 -4.35 -4.7 -4.35 -5.35 -3.3 -5.8 -3.0 -5.95 -2.75 -5.95 L-2.4 -5.95 -2.0 -5.85 Q-2.05 -6.2 -2.3 -6.65 -2.6 -7.1 -3.0 -7.4 -3.05 -7.45 -3.45 -7.6 L-3.55 -7.65 -3.65 -7.6 Q-3.95 -7.6 -4.0 -7.9 -4.0 -8.05 -4.0 -8.25 -4.0 -8.9 -3.55 -9.4 L-3.3 -9.65 -2.9 -9.95 Q-1.95 -10.5 -0.85 -9.95 L-0.85 -10.0 Q-0.7 -10.05 -0.6 -9.85 L-0.55 -9.85 -0.55 -9.8 -0.5 -9.65 -0.55 -9.6 Q-0.6 -9.5 -0.85 -9.45 L-1.0 -9.35 Q-1.45 -9.1 -1.55 -9.1 L-1.6 -9.0 Q-1.6 -8.85 -0.8 -8.1 L-0.3 -7.7 -0.05 -7.85 0.05 -7.85 0.2 -7.9 0.35 -7.9 0.4 -7.8 Q0.5 -7.75 0.55 -7.55 L0.6 -7.4 0.75 -7.35" fill="#ffff00" fill-rule="evenodd" stroke="none"/>
      <path d="M5.35 0.75 L5.3 0.75 5.35 0.85 5.35 0.75 M0.15 -7.55 L0.15 -7.6 Q0.1 -7.65 0.15 -7.65 L0.2 -7.55 0.2 -7.6 0.25 -7.6 0.25 -7.25 0.3 -7.15 Q0.35 -7.05 0.45 -6.95 L0.6 -6.95 0.9 -6.9 1.1 -6.85 1.05 -6.85 1.4 -6.7 1.45 -6.65 Q2.0 -6.35 2.35 -5.85 2.75 -5.3 2.8 -4.75 L2.8 -4.5 Q2.8 -4.4 2.8 -4.35 L2.7 -4.35 2.7 -4.45 Q2.5 -4.4 2.35 -4.25 L2.3 -3.95 2.2 -3.65 2.2 -3.5 Q2.2 -3.25 2.25 -3.0 L2.35 -2.9 2.4 -2.95 2.35 -2.85 2.5 -2.7 Q2.7 -2.5 2.95 -2.35 L3.1 -2.3 Q3.25 -2.2 3.4 -2.15 3.6 -2.1 3.85 -1.9 4.1 -1.75 4.4 -1.55 5.35 -0.85 5.35 -0.45 5.65 0.05 5.65 0.5 5.65 0.65 5.55 1.2 5.45 1.2 5.4 1.15 5.45 1.1 5.4 1.0 L5.4 0.95 5.2 0.75 5.05 0.75 Q4.3 1.1 3.8 1.8 3.65 1.95 3.5 2.25 3.1 3.0 3.1 3.35 L3.15 3.85 Q3.2 4.2 3.4 4.35 L3.8 4.3 4.0 4.35 4.2 4.45 4.3 4.45 4.3 4.65 4.2 4.7 4.35 4.7 Q4.65 4.7 4.75 4.6 4.9 4.45 4.95 4.45 4.9 4.55 4.85 4.85 4.8 5.1 4.55 5.2 L4.0 5.4 3.4 5.65 3.4 5.7 Q3.35 5.75 3.3 5.75 3.15 5.75 3.2 5.7 L3.25 5.7 Q3.15 5.65 3.2 5.65 L3.3 5.6 3.35 5.5 Q3.1 5.45 3.1 5.4 L2.8 5.4 Q2.4 5.4 1.65 5.65 0.75 5.95 0.75 6.25 L-0.5 6.55 -1.75 6.65 -3.35 6.65 -4.15 6.6 -4.35 6.65 Q-5.45 6.2 -6.2 5.15 -6.8 4.2 -6.8 3.45 -6.8 2.95 -6.7 2.65 -6.65 2.25 -6.4 1.6 -6.3 1.2 -5.6 0.65 -5.5 0.55 -5.0 0.2 L-4.7 -0.1 -4.2 -0.55 -3.75 -1.0 -3.5 -1.35 Q-2.9 -2.05 -2.45 -2.05 L-2.3 -2.0 -2.25 -2.0 Q-2.25 -2.05 -2.25 -2.2 -2.25 -2.6 -2.55 -3.05 L-3.1 -3.65 -3.05 -3.5 Q-3.25 -3.75 -3.7 -4.15 L-3.8 -4.0 Q-3.85 -4.0 -3.95 -4.35 L-4.1 -4.7 Q-4.1 -5.2 -3.1 -5.65 L-2.35 -5.65 Q-2.25 -5.6 -2.25 -5.5 L-1.65 -5.5 -1.7 -5.55 Q-1.6 -6.15 -2.05 -6.85 -2.5 -7.55 -3.35 -7.9 L-3.65 -7.9 -3.7 -8.25 Q-3.7 -8.8 -3.35 -9.2 -2.8 -9.95 -1.6 -9.85 L-1.6 -9.8 -1.35 -9.75 -0.85 -9.75 -0.95 -9.7 -0.9 -9.7 Q-0.85 -9.7 -0.85 -9.6 L-1.3 -9.65 -1.35 -9.65 Q-1.6 -9.5 -1.75 -9.35 -1.8 -9.2 -1.8 -9.0 -1.8 -8.65 -1.3 -8.0 L-0.85 -7.5 Q-0.5 -7.3 0.0 -7.25 L0.05 -7.3 Q0.05 -7.45 0.15 -7.55 M0.2 -13.25 Q0.35 -13.2 0.85 -12.95 1.45 -12.65 1.45 -12.5 1.45 -12.45 1.35 -12.35 L1.25 -12.2 1.45 -11.9 Q1.6 -11.5 1.6 -11.25 1.6 -10.2 1.1 -10.2 0.95 -10.2 1.0 -10.25 L1.1 -10.3 Q1.15 -10.35 1.15 -10.45 1.15 -11.25 -0.65 -11.7 L-1.4 -11.8 -1.6 -11.75 -1.8 -11.55 Q-1.85 -11.65 -2.05 -11.8 -2.15 -11.9 -2.15 -12.05 L-2.15 -12.15 Q-1.6 -12.15 -1.5 -12.4 L-1.35 -12.8 Q-1.3 -12.8 -1.1 -12.9 L-0.85 -13.0 -0.75 -13.05 -0.75 -13.1 -0.65 -13.0 Q-0.55 -12.95 -0.25 -12.95 -0.2 -12.95 -0.15 -13.0 -0.1 -13.15 -0.05 -13.2 L0.2 -13.25" fill="#ff9a2b" fill-rule="evenodd" stroke="none"/>
      <path d="M0.2 -3.95 Q0.45 -4.1 0.7 -4.45 1.05 -4.75 1.85 -4.75 L2.0 -4.6 2.3 -4.6 2.5 -4.8 2.5 -4.75 2.45 -4.7 2.55 -4.65 Q2.0 -4.4 1.85 -3.95 L1.8 -3.8 Q1.7 -3.15 1.7 -2.85 1.7 -2.45 1.85 -2.05 2.05 -1.65 2.35 -1.45 L2.35 -1.5 Q3.0 -1.1 4.15 -0.7 4.75 -0.5 4.75 -0.05 L4.7 0.25 Q3.85 0.3 2.9 1.15 2.15 1.9 2.15 2.35 L2.3 2.5 Q2.15 2.85 1.75 3.15 L1.85 3.1 1.6 3.25 1.55 3.3 1.5 3.3 1.25 3.4 Q0.7 3.65 0.4 3.65 L0.05 3.65 Q0.0 3.55 0.0 3.5 L-0.8 3.7 Q-1.65 3.9 -2.5 3.9 L-2.7 3.85 Q-3.0 3.85 -3.1 3.75 L-3.15 3.75 -3.25 3.8 -3.45 3.75 -4.65 3.95 -4.8 3.95 -5.0 4.0 -5.25 3.95 -5.2 3.9 -5.1 3.9 Q-5.0 3.8 -4.5 3.65 L-4.6 3.6 -4.75 3.6 -4.75 3.65 -4.8 3.6 -4.85 3.65 Q-4.95 3.7 -5.1 3.7 -5.8 3.7 -6.05 3.55 L-6.3 3.35 Q-6.25 3.55 -6.1 3.8 -5.95 4.05 -5.85 4.05 L-5.55 4.0 Q-5.0 4.0 -4.85 4.1 L-4.8 4.25 Q-4.85 4.3 -4.85 4.35 -4.5 4.6 -3.75 4.6 L-1.1 4.4 0.0 4.4 Q0.7 4.65 0.95 4.65 1.4 4.65 1.55 4.55 L1.7 4.5 Q1.8 4.5 2.95 4.8 L2.7 4.8 2.4 4.85 Q1.8 4.85 0.75 5.2 -0.3 5.6 -0.3 5.85 L-0.3 5.9 -0.25 5.9 Q-0.55 6.1 -1.15 6.25 L-2.65 6.55 -3.15 6.5 -4.15 6.45 -4.35 6.5 -4.35 6.55 -4.45 6.55 Q-4.95 6.55 -5.5 6.0 -5.95 5.6 -6.25 5.05 -6.65 4.35 -6.65 3.55 -6.65 1.7 -4.85 0.7 L-4.15 0.35 -3.85 0.1 -3.6 -0.2 Q-3.5 -0.5 -3.4 -0.65 L-3.2 -0.85 -2.65 -1.25 Q-2.35 -1.35 -2.3 -1.2 L-1.85 -1.85 -1.8 -1.95 -1.85 -2.35 -1.85 -2.4 -2.0 -2.75 -2.2 -3.15 -2.5 -3.7 Q-2.65 -3.85 -2.9 -4.05 -3.45 -4.45 -3.45 -4.5 -3.45 -4.7 -3.3 -4.85 -3.1 -5.05 -2.65 -5.0 L-2.55 -4.55 Q-2.45 -4.2 -2.2 -4.15 L-2.2 -3.8 -1.9 -3.0 -1.75 -2.75 -1.65 -2.65 Q-1.4 -2.55 -1.1 -2.55 -0.65 -2.55 -0.25 -2.75 L-0.1 -2.9 Q0.35 -3.45 0.35 -3.75 0.35 -3.85 0.2 -3.95" fill="#ffd327" fill-rule="evenodd" stroke="none"/>
      <path d="M-5.75 4.9 L-5.45 5.05 -5.3 5.15 -4.8 5.3 -4.75 5.3 -4.15 5.4 -4.05 5.45 -4.0 5.4 -3.55 5.45 -3.15 5.45 -3.0 5.4 -2.9 5.4 -2.7 5.35 -2.15 5.35 -2.15 5.4 -2.7 5.6 -3.35 5.6 -4.1 5.55 Q-4.65 5.5 -4.85 5.4 L-5.0 5.35 -5.25 5.3 -5.8 5.0 -5.8 4.95 -5.95 4.85 -6.0 4.75 -5.95 4.75 -5.75 4.9 M-5.75 3.95 L-5.7 4.05 -5.7 4.2 -5.85 4.2 Q-5.95 4.1 -6.15 4.0 L-6.35 3.75 Q-6.3 3.8 -6.25 3.8 L-6.4 3.45 -6.35 3.45 -6.4 3.3 -6.35 3.35 -6.1 3.75 -5.95 3.95 -5.9 3.95 -5.85 3.9 -5.75 3.95 M0.2 4.15 L0.6 4.0 0.55 4.1 0.35 4.15 0.2 4.2 Q0.25 4.35 0.6 4.4 L1.05 4.5 -0.6 4.45 -1.0 4.5 -1.3 4.55 -1.8 4.65 -2.1 4.7 -3.35 4.7 -3.45 4.75 -3.6 4.7 -3.8 4.7 -4.05 4.65 -4.4 4.65 -4.5 4.6 -4.55 4.6 -4.9 4.4 -4.85 4.25 -4.8 4.25 -4.8 4.4 -4.35 4.5 -4.25 4.55 -3.7 4.55 Q-3.25 4.5 -2.75 4.4 L-2.35 4.25 -2.3 4.25 -2.1 4.2 -1.7 4.15 -1.55 4.3 -1.35 4.3 -0.95 4.25 -0.85 4.2 -0.75 4.2 Q-0.4 4.2 -0.2 4.2 L0.0 4.2 0.15 4.15 0.2 4.15" fill="#ffffff" fill-rule="evenodd" stroke="none"/>
    </g>
  </defs>
</svg>
