<?xml version="1.0" encoding="UTF-8" standalone="no"?>
<svg xmlns:ffdec="https://www.free-decompiler.com/flash" xmlns:xlink="http://www.w3.org/1999/xlink" ffdec:objectType="frame" height="117.6px" width="119.35px" xmlns="http://www.w3.org/2000/svg">
  <g transform="matrix(1.0, 0.0, 0.0, 1.0, 59.5, 107.45)">
    <use ffdec:characterId="2878" height="7.0" transform="matrix(7.0, 0.0, 0.0, 7.0, -56.35, -39.55)" width="15.7" xlink:href="#shape0"/>
  </g>
  <defs>
    <g id="shape0" transform="matrix(1.0, 0.0, 0.0, 1.0, 8.05, 5.65)">
      <path d="M1.9 -2.95 Q1.8 -2.9 1.8 -3.2 1.75 -3.75 3.95 -4.8 6.15 -5.8 7.1 -5.65 L7.15 -5.65 Q7.5 -5.5 7.6 -5.2 L7.65 -4.85 Q7.65 -4.4 7.3 -3.65 L6.75 -2.6 Q6.45 -1.9 6.15 -1.4 5.65 -0.5 5.3 -0.5 L5.15 -0.55 5.1 -0.65 Q4.65 -0.5 4.2 -0.2 L3.15 0.45 3.15 0.4 Q2.45 0.8 2.05 0.9 1.7 1.1 1.35 1.15 L-0.8 1.35 -0.95 1.35 -2.85 1.25 -2.8 1.3 -3.95 0.95 Q-4.55 0.75 -5.0 0.85 L-5.05 0.85 Q-5.1 0.9 -5.15 0.9 L-5.2 0.9 -5.3 0.95 Q-6.1 0.75 -6.65 0.25 -7.15 -0.2 -7.15 -0.65 L-7.05 -0.95 Q-7.0 -1.15 -7.0 -1.2 -7.0 -1.45 -7.25 -1.8 -7.4 -1.95 -7.45 -2.0 L-7.5 -1.95 Q-7.55 -1.9 -7.6 -1.85 L-7.7 -1.85 Q-8.0 -2.0 -8.05 -2.35 L-8.05 -2.8 Q-8.05 -3.35 -7.9 -3.75 -7.65 -4.45 -6.95 -4.45 -6.05 -4.45 -5.5 -4.1 L-5.45 -4.1 -5.05 -3.8 Q-4.9 -3.65 -4.8 -3.3 -4.75 -3.0 -4.65 -2.9 -4.45 -2.65 -3.45 -2.1 -2.45 -1.55 -2.1 -1.55 -0.15 -1.55 1.15 -2.2 1.8 -2.55 2.1 -2.95 L1.9 -2.95" fill="#a8ffff" fill-opacity="0.5019608" fill-rule="evenodd" stroke="none"/>
      <path d="M2.35 -3.05 L2.2 -3.1 2.05 -3.05 1.95 -3.05 Q1.95 -3.1 1.95 -3.2 1.95 -3.7 4.0 -4.65 6.15 -5.65 7.1 -5.5 7.4 -5.4 7.45 -5.15 L7.5 -4.85 Q7.5 -4.4 7.15 -3.75 6.75 -3.0 6.65 -2.65 L6.05 -1.45 Q5.6 -0.65 5.3 -0.65 5.2 -0.65 5.2 -0.7 L5.3 -0.8 Q4.7 -0.7 4.1 -0.35 L3.1 0.3 Q2.35 0.65 2.0 0.8 1.65 0.95 1.35 1.0 L-0.8 1.2 -0.95 1.2 -2.8 1.15 Q-3.15 1.05 -3.9 0.8 -4.55 0.6 -5.1 0.7 L-5.15 0.75 -5.25 0.75 -5.3 0.8 Q-6.0 0.6 -6.55 0.15 -7.0 -0.25 -7.0 -0.65 L-6.95 -0.9 Q-6.85 -1.15 -6.85 -1.2 -6.85 -1.45 -7.15 -1.85 -7.45 -2.3 -7.65 -2.0 -7.85 -2.1 -7.9 -2.4 L-7.95 -2.8 Q-7.95 -3.3 -7.8 -3.7 -7.55 -4.3 -6.95 -4.3 -6.1 -4.3 -5.55 -4.0 L-5.15 -3.7 Q-5.0 -3.55 -4.95 -3.25 -4.85 -2.9 -4.8 -2.8 -4.55 -2.55 -3.55 -1.95 -2.5 -1.4 -2.1 -1.4 -0.15 -1.4 1.2 -2.05 2.1 -2.55 2.35 -3.05" fill="#ffffff" fill-rule="evenodd" stroke="none"/>
      <path d="M5.7 -4.6 Q6.25 -4.75 6.75 -4.7 L6.85 -4.65 6.85 -4.55 6.9 -4.7 Q6.95 -4.85 7.0 -4.85 L7.0 -4.65 Q7.0 -4.25 6.45 -3.15 6.0 -2.2 5.85 -1.95 L5.8 -2.0 5.95 -2.3 Q6.05 -2.6 6.05 -2.7 L6.05 -2.75 5.65 -2.75 Q5.25 -2.6 4.95 -2.35 L4.4 -1.9 3.7 -1.55 3.6 -1.55 3.55 -1.5 Q3.05 -1.45 2.25 -1.2 1.4 -0.95 1.25 -0.8 L1.0 -0.75 Q0.15 -0.55 -0.35 -0.4 L-0.45 -0.4 Q-1.7 -0.35 -2.55 -0.1 -3.3 0.05 -3.3 0.25 -3.3 0.3 -3.0 0.55 -2.55 0.7 -2.5 0.8 L-3.85 0.35 -3.3 0.45 -3.7 0.2 Q-3.8 0.1 -3.9 -0.05 L-4.0 -0.3 Q-4.2 -0.3 -4.3 -0.45 L-4.4 -0.6 Q-4.45 -0.6 -4.65 -0.7 L-5.05 -0.85 -5.55 -0.85 Q-5.95 -0.85 -6.15 -0.75 -6.3 -0.65 -6.3 -0.5 L-6.25 -0.45 -6.2 -0.35 -6.2 -0.3 Q-6.55 -0.5 -6.55 -0.85 -6.55 -1.15 -6.25 -1.3 L-6.05 -1.3 -5.9 -1.65 Q-5.9 -2.0 -6.2 -2.35 -6.5 -2.8 -7.05 -3.0 L-7.2 -3.0 -7.35 -2.85 -7.35 -3.05 Q-7.35 -3.45 -6.8 -3.6 -6.25 -3.7 -5.7 -3.05 -5.7 -3.0 -5.8 -3.05 L-5.85 -2.95 Q-5.85 -2.65 -5.45 -2.4 L-4.7 -2.0 -4.7 -1.95 -4.9 -2.05 Q-4.7 -1.7 -3.95 -1.4 -3.3 -1.15 -3.0 -1.05 L-2.8 -1.0 -2.95 -1.0 Q-3.1 -1.05 -3.1 -0.8 -3.1 -0.7 -3.05 -0.65 L-2.9 -0.6 Q-2.65 -0.5 -2.45 -0.5 L-1.75 -0.5 Q-1.5 -0.5 -1.3 -0.6 -1.0 -0.7 -0.95 -0.85 L-0.35 -1.05 0.75 -1.3 2.1 -1.55 Q2.6 -1.9 2.6 -2.1 2.6 -2.25 2.55 -2.25 L2.8 -2.45 3.15 -2.8 Q3.45 -3.1 3.45 -3.2 L3.45 -3.25 3.25 -3.2 Q3.3 -3.35 3.75 -3.6 4.15 -3.9 4.55 -4.05 5.3 -4.45 5.7 -4.6 M5.5 -1.55 Q5.5 -1.6 5.55 -1.6 L5.6 -1.55 5.4 -1.35 Q5.3 -1.25 5.05 -1.2 5.0 -1.2 4.75 -1.05 L4.45 -0.85 4.4 -0.9 Q4.7 -1.15 4.85 -1.25 L5.05 -1.35 Q5.25 -1.35 5.4 -1.4 L5.45 -1.55 5.5 -1.55 M5.95 -2.85 L5.95 -2.85 M-0.4 -0.4 L-0.4 -0.4" fill="#a8ffff" fill-rule="evenodd" stroke="none"/>
    </g>
  </defs>
</svg>
