<?xml version="1.0" encoding="UTF-8" standalone="no"?>
<svg xmlns:ffdec="https://www.free-decompiler.com/flash" xmlns:xlink="http://www.w3.org/1999/xlink" ffdec:objectType="frame" height="313.35px" width="349.05px" xmlns="http://www.w3.org/2000/svg">
  <g transform="matrix(1.0, 0.0, 0.0, 1.0, 175.0, 156.8)">
    <use ffdec:characterId="1576" height="313.35" transform="matrix(1.0, 0.0, 0.0, 1.0, -175.0, -156.8)" width="349.05" xlink:href="#shape0"/>
  </g>
  <defs>
    <g id="shape0" transform="matrix(1.0, 0.0, 0.0, 1.0, 175.0, 156.8)">
      <path d="M173.8 -108.55 Q174.2 -107.5 174.0 -106.75 L173.7 -106.15 173.8 -108.55 M-44.35 -20.6 L-43.7 -20.9 -43.7 -20.8 -44.35 -20.6 M91.4 -146.35 L94.8 -146.35 Q93.9 -145.8 92.55 -146.05 L91.4 -146.35 M98.25 -138.95 L108.8 -142.75 Q124.45 -142.1 139.0 -149.85 L168.3 -109.55 Q166.5 -105.5 165.0 -105.5 160.8 -105.5 158.05 -104.6 L153.6 -102.55 Q147.05 -99.6 132.05 -99.6 L117.75 -117.0 Q102.6 -135.2 98.25 -138.95 M121.1 -95.45 Q121.35 -97.65 120.25 -99.05 L119.05 -100.1 119.1 -103.85 107.3 -103.75 107.35 -110.9 100.7 -111.35 99.8 -107.15 105.4 -106.35 Q105.45 -105.15 106.6 -103.4 L107.75 -101.85 105.85 -99.65 107.3 -98.95 108.5 -98.75 110.35 -98.9 Q111.55 -98.9 112.35 -98.05 111.0 -98.3 108.3 -92.55 L105.9 -86.8 107.3 -87.55 Q108.85 -88.35 109.45 -88.35 L113.5 -87.85 103.15 -77.0 89.6 -62.85 81.2 -54.1 96.25 -74.1 63.85 -47.45 Q63.2 -50.15 60.9 -52.4 57.9 -55.4 53.35 -55.85 L51.75 -55.85 Q53.45 -54.3 55.3 -50.15 57.55 -45.25 58.55 -43.85 63.05 -37.6 72.95 -44.65 L63.75 -32.1 Q60.15 -37.95 57.95 -40.3 L56.45 -41.45 Q56.3 -39.2 55.75 -38.1 L55.2 -37.45 57.1 -34.45 Q59.1 -31.45 59.7 -31.45 60.7 -31.45 61.95 -30.25 59.0 -30.15 49.9 -25.5 43.55 -22.25 40.95 -20.6 41.85 -21.65 41.8 -21.85 L41.2 -21.9 43.25 -24.1 Q32.6 -17.35 20.3 -7.6 3.9 5.35 3.9 9.45 3.9 13.55 9.25 13.55 12.35 13.35 13.8 12.35 13.3 15.9 11.6 17.85 L9.95 19.1 -8.5 4.55 -3.3 3.9 -3.2 1.45 -26.45 -16.25 -28.85 -21.15 Q-36.25 -29.55 -33.7 -35.7 -32.85 -37.75 -31.0 -39.2 -29.55 -40.35 -28.75 -40.35 -27.75 -40.35 -24.95 -36.15 -21.9 -35.7 -16.95 -37.9 -11.7 -40.25 -11.05 -42.95 L-16.65 -44.5 Q-10.15 -46.6 -2.6 -53.05 3.7 -58.45 5.9 -62.2 L0.85 -64.35 Q7.2 -70.0 11.95 -73.0 19.6 -77.75 25.95 -77.75 26.95 -77.75 28.5 -74.75 L22.95 -75.45 34.05 -62.2 Q41.85 -52.95 44.35 -52.95 46.3 -52.95 46.85 -53.7 48.15 -55.35 47.25 -60.95 L49.2 -61.95 45.9 -66.85 Q42.6 -74.45 38.25 -77.45 36.1 -78.9 34.6 -78.9 L35.7 -82.7 34.5 -83.4 Q43.1 -98.3 54.1 -109.6 65.45 -121.3 80.9 -130.7 75.55 -125.45 73.35 -122.3 L72.2 -120.2 78.45 -119.55 Q78.95 -119.55 79.6 -121.35 80.2 -123.2 80.7 -123.2 L84.2 -122.45 87.65 -121.7 Q90.65 -121.7 93.4 -123.25 96.05 -124.8 99.8 -128.65 L127.5 -97.1 121.1 -95.45 M98.05 -118.7 L95.8 -118.7 95.8 -115.05 98.05 -115.05 98.05 -118.7 M68.45 -100.9 Q72.2 -105.2 74.6 -109.4 76.95 -113.5 76.6 -115.2 66.9 -109.25 60.3 -104.5 48.95 -96.3 48.95 -93.1 48.95 -92.3 49.85 -91.15 50.75 -89.95 51.45 -89.95 58.8 -89.95 68.45 -100.9 M22.8 -2.95 L19.1 -0.8 27.95 -8.9 22.8 -2.95 M19.45 1.65 L16.25 6.85 Q16.25 4.7 17.2 3.2 18.1 1.65 19.45 1.65 M15.55 8.25 L14.05 11.7 10.3 11.1 15.55 8.25 M48.9 -31.4 Q46.85 -28.45 47.1 -25.7 49.9 -26.3 51.35 -29.05 52.45 -31.15 52.45 -33.6 52.45 -36.0 49.75 -36.85 50.7 -34.0 48.9 -31.4 M48.9 -19.35 Q51.55 -21.9 53.4 -22.7 55.05 -23.4 58.1 -23.55 L48.9 -19.35 M116.65 -42.2 L118.1 -43.55 120.0 -45.3 120.75 -45.85 116.3 -41.4 112.8 -38.65 116.65 -42.2 M116.6 -98.0 L116.45 -97.75 116.1 -97.65 115.75 -97.75 115.6 -98.0 115.75 -98.25 116.1 -98.35 116.45 -98.25 116.6 -98.0 M10.8 22.6 L10.95 22.6 10.25 23.05 10.8 22.6 M-14.95 -26.7 Q-17.55 -26.7 -19.35 -25.5 -21.2 -24.3 -21.2 -22.6 -21.2 -20.9 -19.35 -19.7 -17.55 -18.5 -14.95 -18.5 -12.35 -18.5 -10.5 -19.7 -8.7 -20.9 -8.7 -22.6 -8.7 -24.3 -10.5 -25.5 -12.35 -26.7 -14.95 -26.7 M-54.05 -0.25 L-53.05 -4.95 Q-54.6 -6.2 -57.4 -5.75 L-59.9 -5.05 Q-53.35 -10.15 -45.9 -14.2 -39.85 -17.55 -38.7 -17.55 -34.8 -17.55 -29.85 -11.55 -22.05 -2.05 -16.55 2.4 L7.45 20.1 Q-3.55 27.6 -18.35 41.55 -30.95 53.4 -35.95 59.7 L-60.75 42.4 Q-54.4 34.45 -52.75 31.8 -50.0 27.55 -50.0 24.35 -50.4 20.75 -50.4 17.55 L-57.75 17.25 Q-58.75 17.25 -59.9 19.2 L-62.7 15.2 -49.05 -3.6 -54.05 -0.25 M-19.75 3.0 Q-19.75 11.05 -14.7 16.4 L-9.35 22.3 Q-16.9 25.45 -25.1 35.35 -33.3 45.25 -35.0 53.2 L-33.5 53.0 0.25 20.75 -5.45 19.85 -19.75 3.0 M-48.7 68.8 Q-46.65 63.8 -47.1 60.8 L-71.25 53.0 Q-67.75 58.1 -66.0 63.0 -64.1 68.4 -64.1 74.25 -64.1 78.85 -66.1 83.8 -67.65 87.7 -69.75 90.35 L-53.75 77.75 -63.35 82.6 -54.85 73.2 Q-54.95 74.5 -54.25 75.4 L-53.5 76.0 Q-50.8 73.85 -48.7 68.8 M-52.55 55.9 L-51.05 55.65 -37.7 61.35 Q-69.85 99.9 -103.95 138.4 -103.35 136.25 -102.4 134.45 -100.4 130.65 -95.1 123.1 -104.35 122.65 -114.5 132.15 L-121.25 138.75 Q-124.5 141.75 -126.4 141.75 -132.75 141.75 -137.6 131.15 -142.0 121.55 -142.0 111.55 -142.0 98.75 -133.2 85.5 -123.35 70.75 -105.05 59.65 -107.1 57.25 -107.1 56.25 -107.1 51.8 -98.2 46.4 L-85.8 39.85 -52.55 55.9 M-101.9 120.9 L-102.1 118.8 Q-108.75 122.15 -115.15 127.55 -121.4 132.75 -124.9 137.75 L-101.9 120.9 M-95.25 113.5 L-94.0 114.0 Q-94.25 115.35 -91.0 118.25 L-87.8 114.95 Q-88.45 114.4 -89.95 114.6 L-91.35 114.95 -84.35 105.7 -95.25 113.5 M-88.4 137.25 Q-94.45 142.95 -97.7 145.35 -99.3 146.5 -99.75 146.55 L-89.95 134.45 -88.4 137.25 M-118.45 146.1 L-116.05 144.8 -110.35 144.25 Q-109.65 143.8 -108.6 143.65 -112.05 147.1 -114.45 148.45 -117.8 150.35 -121.9 150.35 -129.6 148.8 -132.55 147.2 -122.75 147.35 -118.45 146.1 M-82.6 125.05 L-48.0 82.3 Q-54.15 93.35 -62.9 104.35 -72.45 116.35 -82.6 125.05 M-145.05 135.5 L-135.9 142.35 -139.85 142.2 -141.5 141.3 -146.0 137.5 -145.05 135.5" fill="#593a28" fill-rule="evenodd" stroke="none"/>
      <path d="M94.8 -146.35 L138.0 -155.45 138.35 -156.1 Q138.8 -156.8 139.4 -156.8 140.4 -156.8 145.7 -155.2 L145.95 -153.6 Q145.75 -153.35 148.2 -149.15 153.1 -140.75 166.5 -121.05 166.45 -119.95 173.8 -108.55 L173.7 -106.15 173.35 -104.3 172.9 -104.05 Q170.65 -102.55 162.95 -91.35 L164.7 -99.0 164.35 -101.65 162.95 -100.05 160.2 -101.05 157.85 -101.5 152.95 -100.85 Q150.5 -100.05 148.5 -97.85 L148.25 -97.7 146.95 -97.05 135.1 -93.15 Q117.6 -87.95 103.15 -77.0 L113.5 -87.85 121.1 -95.45 127.5 -97.1 99.8 -128.65 Q96.05 -124.8 93.4 -123.25 90.65 -121.7 87.65 -121.7 L84.2 -122.45 80.7 -123.2 Q80.2 -123.2 79.6 -121.35 78.95 -119.55 78.45 -119.55 L72.2 -120.2 73.35 -122.3 Q75.55 -125.45 80.9 -130.7 65.45 -121.3 54.1 -109.6 43.1 -98.3 34.5 -83.4 L35.7 -82.7 34.6 -78.9 Q36.1 -78.9 38.25 -77.45 42.6 -74.45 45.9 -66.85 L29.2 -79.45 28.95 -76.85 Q28.95 -73.0 37.5 -66.8 44.4 -61.85 47.25 -60.95 48.15 -55.35 46.85 -53.7 46.3 -52.95 44.35 -52.95 41.85 -52.95 34.05 -62.2 L22.95 -75.45 28.5 -74.75 Q26.95 -77.75 25.95 -77.75 19.6 -77.75 11.95 -73.0 7.2 -70.0 0.85 -64.35 L5.9 -62.2 Q3.7 -58.45 -2.6 -53.05 -10.15 -46.6 -16.65 -44.5 L-11.05 -42.95 Q-11.7 -40.25 -16.95 -37.9 -21.9 -35.7 -24.95 -36.15 -27.75 -40.35 -28.75 -40.35 -29.55 -40.35 -31.0 -39.2 -32.85 -37.75 -33.7 -35.7 -36.25 -29.55 -28.85 -21.15 -31.55 -23.05 -34.5 -23.05 -36.25 -23.05 -38.9 -21.95 -37.35 -18.65 -34.05 -17.05 -30.6 -15.35 -26.45 -16.25 L-3.2 1.45 -3.3 3.9 -8.5 4.55 9.95 19.1 11.6 17.85 Q13.3 15.9 13.8 12.35 L14.05 11.7 15.55 8.25 16.05 7.85 16.25 6.85 19.45 1.65 26.25 -4.1 22.8 -2.95 27.95 -8.9 40.95 -20.6 Q43.55 -22.25 49.9 -25.5 59.0 -30.15 61.95 -30.25 60.7 -31.45 59.7 -31.45 59.1 -31.45 57.1 -34.45 L55.2 -37.45 55.75 -38.1 Q56.3 -39.2 56.45 -41.45 L57.95 -40.3 Q60.15 -37.95 63.75 -32.1 L72.95 -44.65 81.2 -54.1 89.6 -62.85 77.8 -44.15 Q70.85 -37.75 68.3 -34.2 63.9 -28.05 67.3 -21.75 L58.1 -23.55 Q55.05 -23.4 53.4 -22.7 51.55 -21.9 48.9 -19.35 38.85 -9.65 32.45 -2.35 24.8 6.45 15.6 19.4 L9.2 21.65 10.8 22.6 10.25 23.05 -26.3 56.85 Q-31.2 58.05 -34.8 61.65 -38.15 65.05 -39.6 69.8 L-35.6 67.0 -48.0 82.3 -82.6 125.05 -89.95 134.45 -99.75 146.55 Q-99.3 146.5 -97.7 145.35 -94.45 142.95 -88.4 137.25 L-73.95 125.1 -64.05 117.4 -92.45 143.0 -90.55 143.8 -53.5 115.85 Q-58.95 122.7 -78.25 138.15 -101.15 156.55 -109.4 156.55 -110.8 156.55 -111.05 152.7 L-116.95 152.95 Q-138.75 152.95 -156.95 138.15 -163.55 132.75 -168.0 126.7 -171.85 121.35 -171.85 118.85 -170.05 123.5 -161.55 129.95 -152.65 136.7 -146.2 137.6 L-141.5 141.3 -139.85 142.2 -135.9 142.35 -145.05 135.5 -166.8 117.5 -162.9 111.65 Q-159.05 105.65 -159.05 105.0 -159.05 104.15 -159.6 103.15 -160.2 102.05 -160.9 102.05 -164.85 102.05 -168.65 108.3 -171.25 112.55 -172.0 115.6 L-175.0 112.7 -115.4 45.05 Q-107.45 35.55 -88.95 17.35 -67.05 -4.2 -51.3 -16.55 L-43.7 -20.8 -43.7 -20.9 Q-41.35 -27.85 -30.5 -44.1 -17.95 -62.8 -12.3 -62.8 -9.9 -62.8 -7.0 -65.65 L-1.0 -71.95 Q8.65 -81.15 23.55 -81.15 24.65 -81.15 35.45 -94.95 48.2 -111.25 51.6 -114.8 L64.45 -126.05 77.25 -137.1 Q79.45 -134.2 80.45 -133.4 82.7 -131.65 86.05 -131.65 89.2 -131.65 91.9 -133.0 L90.25 -138.1 94.95 -141.0 Q95.1 -140.15 95.95 -139.6 96.85 -139.0 98.25 -138.95 102.6 -135.2 117.75 -117.0 L132.05 -99.6 Q147.05 -99.6 153.6 -102.55 L158.05 -104.6 Q160.8 -105.5 165.0 -105.5 166.5 -105.5 168.3 -109.55 L139.0 -149.85 Q124.45 -142.1 108.8 -142.75 L116.5 -147.4 115.7 -149.45 Q103.75 -147.95 96.3 -145.75 92.55 -144.65 82.15 -140.5 L91.4 -146.35 92.55 -146.05 Q93.9 -145.8 94.8 -146.35 M83.3 -12.8 Q60.25 19.05 29.4 52.7 6.25 77.95 0.55 82.25 L19.75 56.4 20.95 56.4 43.6 28.7 55.7 12.15 54.6 11.25 Q55.85 9.95 68.3 -0.6 81.15 -11.45 83.3 -12.8 M-42.6 108.15 L-47.45 111.2 -40.65 106.7 -42.6 108.15 M68.45 -100.9 Q58.8 -89.95 51.45 -89.95 50.75 -89.95 49.85 -91.15 48.95 -92.3 48.95 -93.1 48.95 -96.3 60.3 -104.5 66.9 -109.25 76.6 -115.2 76.95 -113.5 74.6 -109.4 72.2 -105.2 68.45 -100.9 M70.5 -19.6 L73.65 -20.25 74.8 -19.0 74.9 -18.9 75.75 -16.85 73.7 -15.1 73.7 -16.25 73.25 -17.35 Q72.9 -17.8 72.5 -17.75 72.1 -17.7 71.8 -17.2 71.5 -16.75 71.35 -15.75 L71.3 -15.8 71.0 -17.25 71.0 -17.35 70.5 -19.6 M97.6 -27.35 Q97.6 -27.8 98.05 -28.1 98.5 -28.45 99.1 -28.45 L97.6 -27.35 M102.0 -30.55 L116.65 -42.2 112.8 -38.65 102.0 -30.55 M118.1 -43.55 Q118.1 -44.25 118.65 -44.75 119.2 -45.3 120.0 -45.3 L118.1 -43.55 M32.3 16.65 L32.1 19.4 Q30.45 19.4 29.0 20.45 L27.7 21.15 28.1 18.55 29.05 18.35 Q30.35 17.9 32.3 16.65 M17.55 20.05 L22.7 18.8 21.3 19.6 Q19.5 20.3 17.55 20.05 M155.9 -94.8 L158.2 -97.45 150.95 -84.4 155.9 -94.8 M12.2 22.65 L14.45 23.65 12.8 23.1 12.2 22.65 M8.25 36.9 L4.2 42.9 5.55 42.5 Q7.55 41.4 11.1 38.0 L-5.45 54.7 -4.1 50.2 8.25 36.9 M-15.3 56.9 L-10.05 56.1 -17.85 60.15 -26.2 61.4 -15.3 56.9 M13.1 58.25 L15.75 54.95 14.15 57.55 13.1 58.25 M-54.05 -0.25 L-49.05 -3.6 -62.7 15.2 -59.9 19.2 Q-58.75 17.25 -57.75 17.25 L-50.4 17.55 Q-50.4 20.75 -50.0 24.35 -50.0 27.55 -52.75 31.8 -54.4 34.45 -60.75 42.4 L-35.95 59.7 Q-30.95 53.4 -18.35 41.55 -3.55 27.6 7.45 20.1 L-16.55 2.4 Q-22.05 -2.05 -29.85 -11.55 -34.8 -17.55 -38.7 -17.55 -39.85 -17.55 -45.9 -14.2 -53.35 -10.15 -59.9 -5.05 L-57.4 -5.75 Q-54.6 -6.2 -53.05 -4.95 L-54.05 -0.25 M-14.95 -26.7 Q-12.35 -26.7 -10.5 -25.5 -8.7 -24.3 -8.7 -22.6 -8.7 -20.9 -10.5 -19.7 -12.35 -18.5 -14.95 -18.5 -17.55 -18.5 -19.35 -19.7 -21.2 -20.9 -21.2 -22.6 -21.2 -24.3 -19.35 -25.5 -17.55 -26.7 -14.95 -26.7 M-76.25 35.6 L-69.05 36.55 Q-69.3 32.0 -74.6 27.85 -78.2 25.1 -82.85 23.25 -74.15 15.3 -75.8 13.3 -77.1 11.7 -81.4 13.75 -84.15 13.75 -86.05 16.15 -88.0 18.55 -88.0 21.95 -88.55 23.35 -89.7 24.0 L-90.8 24.4 Q-91.6 29.75 -86.85 34.65 -82.05 39.55 -75.8 39.55 -76.8 39.5 -76.25 35.6 M-52.55 55.9 L-85.8 39.85 -98.2 46.4 Q-107.1 51.8 -107.1 56.25 -107.1 57.25 -105.05 59.65 -123.35 70.75 -133.2 85.5 -142.0 98.75 -142.0 111.55 -142.0 121.55 -137.6 131.15 -132.75 141.75 -126.4 141.75 -124.5 141.75 -121.25 138.75 L-114.5 132.15 Q-104.35 122.65 -95.1 123.1 -100.4 130.65 -102.4 134.45 -103.35 136.25 -103.95 138.4 -69.85 99.9 -37.7 61.35 L-51.05 55.65 -52.55 55.9 M-46.05 104.95 L-43.7 103.6 -38.6 100.8 -37.7 100.3 -46.05 104.95 M-118.45 146.1 Q-122.75 147.35 -132.55 147.2 -129.6 148.8 -121.9 150.35 -117.8 150.35 -114.45 148.45 -112.05 147.1 -108.6 143.65 -109.65 143.8 -110.35 144.25 L-116.05 144.8 -118.45 146.1" fill="#452f14" fill-rule="evenodd" stroke="none"/>
      <path d="M89.6 -62.85 L103.15 -77.0 Q117.6 -87.95 135.1 -93.15 L135.15 -89.6 138.15 -89.05 Q126.7 -87.9 112.35 -74.5 98.35 -61.45 96.4 -51.1 L110.4 -66.45 112.45 -66.2 Q112.95 -66.2 114.6 -68.1 116.2 -70.05 116.7 -70.05 117.7 -70.05 119.15 -69.35 L98.4 -41.1 99.9 -41.25 85.0 -26.55 84.65 -23.4 83.7 -22.65 72.2 -21.6 72.0 -25.4 Q72.0 -33.15 75.8 -38.75 78.9 -43.3 85.3 -47.4 L77.8 -44.15 89.6 -62.85 M48.9 -19.35 L58.1 -23.55 67.3 -21.75 64.2 -20.2 70.5 -19.6 71.0 -17.35 68.0 -15.05 Q65.05 -12.5 65.0 -11.25 L63.8 -9.85 Q55.55 -12.85 54.55 -12.85 46.1 -12.85 35.1 0.6 28.35 8.85 23.0 18.7 L22.7 18.8 17.55 20.05 15.6 19.4 Q24.8 6.45 32.45 -2.35 38.85 -9.65 48.9 -19.35 M73.65 -20.25 L74.0 -20.45 76.4 -20.45 75.55 -19.85 74.8 -19.0 73.65 -20.25 M75.85 -19.8 L76.5 -20.45 82.2 -21.15 82.5 -20.1 Q82.2 -19.75 82.0 -19.75 80.85 -19.6 75.75 -16.85 L74.9 -18.9 75.85 -19.8 M69.7 -15.4 L71.0 -17.25 71.3 -15.8 69.7 -15.4 M32.8 15.8 L32.3 16.65 Q30.35 17.9 29.05 18.35 L28.1 18.55 27.85 18.4 Q27.85 17.3 29.3 16.55 30.75 15.8 32.8 15.8 M32.1 19.4 Q32.1 20.0 33.0 20.45 33.85 20.9 35.05 20.9 L12.85 49.0 1.05 54.1 -1.1 54.4 29.95 22.4 29.0 20.45 Q30.45 19.4 32.1 19.4 M43.0 18.65 L43.4 18.45 42.25 19.85 43.0 18.65 M158.2 -97.45 L155.9 -94.8 153.8 -97.75 158.2 -98.9 158.2 -97.45 M148.25 -97.7 L147.9 -97.25 146.95 -97.05 148.25 -97.7 M144.85 -89.45 L150.35 -93.15 Q151.1 -92.05 149.55 -90.75 147.8 -89.3 144.85 -89.45 M142.2 -88.95 L144.15 -89.15 142.15 -87.15 142.2 -88.95 M115.6 -47.25 L115.55 -47.25 120.4 -52.2 117.6 -49.0 115.6 -47.25 M10.95 22.6 L12.2 22.65 12.8 23.1 14.45 23.65 Q16.45 24.65 19.4 24.25 L10.55 33.55 -4.1 50.2 -5.45 54.7 -10.05 56.1 -15.3 56.9 -26.3 56.85 10.25 23.05 10.95 22.6 M-1.25 75.3 L-2.65 74.55 Q-1.4 72.35 2.85 67.6 5.55 64.55 5.55 61.4 5.55 60.8 4.9 60.0 L4.25 59.3 7.45 57.95 Q7.4 60.35 8.15 61.75 L8.85 62.7 -1.25 75.3 M-17.85 60.15 Q-15.05 61.85 -12.95 62.3 L-9.8 62.5 -4.6 61.9 Q-0.65 61.15 2.7 59.85 -0.6 62.55 -17.8 69.55 -34.8 76.45 -41.5 82.2 -63.4 100.95 -73.95 125.1 L-88.4 137.25 -89.95 134.45 -82.6 125.05 Q-72.45 116.35 -62.9 104.35 -54.15 93.35 -48.0 82.3 L-35.6 67.0 -26.2 61.4 -17.85 60.15 M-43.7 103.6 L-36.7 93.9 -38.6 100.8 -43.7 103.6 M-28.15 94.4 L-27.5 93.7 -27.5 93.85 Q-27.65 94.05 -27.3 93.95 L-28.15 94.4" fill="#74603a" fill-rule="evenodd" stroke="none"/>
      <path d="M72.2 -21.6 L83.7 -22.65 82.2 -21.15 76.5 -20.45 76.4 -20.45 74.0 -20.45 72.75 -20.75 Q72.2 -21.1 72.2 -21.6 M84.65 -23.4 L85.0 -26.55 99.9 -41.25 98.4 -41.1 119.15 -69.35 Q117.7 -70.05 116.7 -70.05 116.2 -70.05 114.6 -68.1 112.95 -66.2 112.45 -66.2 L110.4 -66.45 96.4 -51.1 Q98.35 -61.45 112.35 -74.5 126.7 -87.9 138.15 -89.05 L135.15 -89.6 135.1 -93.15 146.95 -97.05 147.9 -97.25 148.25 -97.7 148.5 -97.85 153.8 -97.75 155.9 -94.8 150.95 -84.4 Q146.5 -78.85 144.0 -76.45 L142.4 -75.15 Q142.2 -73.75 120.4 -52.2 L115.55 -47.25 86.6 -22.5 84.65 -23.4 M75.55 -19.85 L75.85 -19.8 74.9 -18.9 74.8 -19.0 75.55 -19.85 M71.0 -17.35 L71.0 -17.25 69.7 -15.4 65.0 -11.25 Q65.05 -12.5 68.0 -15.05 L71.0 -17.35 M23.0 18.7 Q28.35 8.85 35.1 0.6 46.1 -12.85 54.55 -12.85 55.55 -12.85 63.8 -9.85 59.5 -0.45 50.05 6.9 41.6 13.45 32.8 15.8 30.75 15.8 29.3 16.55 27.85 17.3 27.85 18.4 L23.0 18.7 M35.05 20.9 L43.0 18.65 42.25 19.85 19.7 48.55 12.85 49.0 35.05 20.9 M142.2 -88.95 L142.15 -87.15 144.15 -89.15 142.2 -88.95 M144.85 -89.45 Q147.8 -89.3 149.55 -90.75 151.1 -92.05 150.35 -93.15 L144.85 -89.45 M117.6 -49.0 Q117.6 -48.3 117.05 -47.75 116.45 -47.25 115.6 -47.25 L117.6 -49.0 M27.7 21.15 L29.0 20.45 29.95 22.4 -1.1 54.4 1.05 54.1 0.6 56.9 12.7 54.2 15.75 54.95 13.1 58.25 8.85 62.7 8.15 61.75 Q7.4 60.35 7.45 57.95 L4.25 59.3 4.9 60.0 Q5.55 60.8 5.55 61.4 5.55 64.55 2.85 67.6 -1.4 72.35 -2.65 74.55 L-1.25 75.3 Q-11.8 87.3 -27.3 93.95 -27.65 94.05 -27.5 93.85 L-27.5 93.7 -28.15 94.4 -37.7 100.3 -38.6 100.8 -36.7 93.9 -43.7 103.6 -46.05 104.95 -64.05 117.4 -73.95 125.1 Q-63.4 100.95 -41.5 82.2 -34.8 76.45 -17.8 69.55 -0.6 62.55 2.7 59.85 -0.65 61.15 -4.6 61.9 L-9.8 62.5 -12.95 62.3 Q-15.05 61.85 -17.85 60.15 L-10.05 56.1 -5.45 54.7 11.1 38.0 27.7 21.15 M10.55 33.55 L8.25 36.9 -4.1 50.2 10.55 33.55" fill="#625b4d" fill-rule="evenodd" stroke="none"/>
      <path d="M162.95 -91.35 L161.3 -88.6 164.7 -99.0 162.95 -91.35 M-3.75 88.05 L-14.7 93.65 -3.15 85.85 -3.75 88.05 M-47.45 111.2 L-53.5 115.85 -90.55 143.8 -92.45 143.0 -64.05 117.4 -46.05 104.95 -37.7 100.3 -28.15 94.4 -27.3 93.95 Q-11.8 87.3 -1.25 75.3 L8.85 62.7 13.1 58.25 14.15 57.55 Q5.8 74.05 -10.5 88.05 -25.25 100.7 -40.65 106.7 L-47.45 111.2 M148.5 -97.85 Q150.5 -100.05 152.95 -100.85 L157.85 -101.5 160.2 -101.05 162.95 -100.05 129.5 -53.6 120.75 -45.85 120.0 -45.3 Q119.2 -45.3 118.65 -44.75 118.1 -44.25 118.1 -43.55 L116.65 -42.2 102.0 -30.55 99.1 -28.45 Q98.5 -28.45 98.05 -28.1 97.6 -27.8 97.6 -27.35 L71.95 -9.7 73.7 -15.1 75.75 -16.85 Q80.85 -19.6 82.0 -19.75 82.2 -19.75 82.5 -20.1 L82.2 -21.15 83.7 -22.65 84.65 -23.4 86.6 -22.5 115.55 -47.25 115.6 -47.25 Q116.45 -47.25 117.05 -47.75 117.6 -48.3 117.6 -49.0 L120.4 -52.2 Q142.2 -73.75 142.4 -75.15 L144.0 -76.45 Q146.5 -78.85 150.95 -84.4 L158.2 -97.45 158.2 -98.9 153.8 -97.75 148.5 -97.85 M77.8 -44.15 L85.3 -47.4 Q78.9 -43.3 75.8 -38.75 72.0 -33.15 72.0 -25.4 L72.2 -21.6 Q72.2 -21.1 72.75 -20.75 L74.0 -20.45 73.65 -20.25 70.5 -19.6 64.2 -20.2 67.3 -21.75 Q63.9 -28.05 68.3 -34.2 70.85 -37.75 77.8 -44.15 M65.0 -11.25 L69.7 -15.4 71.3 -15.8 71.35 -15.75 Q64.65 -0.7 51.5 12.1 L51.35 9.2 43.4 18.45 43.0 18.65 35.05 20.9 Q33.85 20.9 33.0 20.45 32.1 20.0 32.1 19.4 L32.3 16.65 32.8 15.8 Q41.6 13.45 50.05 6.9 59.5 -0.45 63.8 -9.85 L65.0 -11.25 M15.6 19.4 L17.55 20.05 Q19.5 20.3 21.3 19.6 L22.7 18.8 23.0 18.7 27.85 18.4 28.1 18.55 27.7 21.15 11.1 38.0 Q7.55 41.4 5.55 42.5 L4.2 42.9 8.25 36.9 10.55 33.55 19.4 24.25 Q16.45 24.65 14.45 23.65 L12.2 22.65 10.95 22.6 10.8 22.6 9.2 21.65 15.6 19.4 M1.05 54.1 L12.85 49.0 19.7 48.55 12.7 54.2 0.6 56.9 1.05 54.1 M-26.3 56.85 L-15.3 56.9 -26.2 61.4 -35.6 67.0 -39.6 69.8 Q-38.15 65.05 -34.8 61.65 -31.2 58.05 -26.3 56.85 M19.75 56.4 Q29.45 41.45 43.6 28.7 L20.95 56.4 19.75 56.4" fill="#61421d" fill-rule="evenodd" stroke="none"/>
      <path d="M-51.3 -16.55 L-44.35 -20.6 -43.7 -20.8 -51.3 -16.55" fill="#715a39" fill-rule="evenodd" stroke="none"/>
      <path d="M-171.85 118.85 Q-172.8 117.0 -172.0 115.6 -171.25 112.55 -168.65 108.3 -164.85 102.05 -160.9 102.05 -160.2 102.05 -159.6 103.15 -159.05 104.15 -159.05 105.0 -159.05 105.65 -162.9 111.65 L-166.8 117.5 -145.05 135.5 -146.0 137.5 -146.2 137.6 Q-152.65 136.7 -161.55 129.95 -170.05 123.5 -171.85 118.85 M77.25 -137.1 L82.15 -140.5 Q92.55 -144.65 96.3 -145.75 103.75 -147.95 115.7 -149.45 L116.5 -147.4 108.8 -142.75 98.25 -138.95 Q96.85 -139.0 95.95 -139.6 95.1 -140.15 94.95 -141.0 L90.25 -138.1 91.9 -133.0 Q89.2 -131.65 86.05 -131.65 82.7 -131.65 80.45 -133.4 79.45 -134.2 77.25 -137.1 M45.9 -66.85 L49.2 -61.95 47.25 -60.95 Q44.4 -61.85 37.5 -66.8 28.95 -73.0 28.95 -76.85 L29.2 -79.45 45.9 -66.85 M-28.85 -21.15 L-26.45 -16.25 Q-30.6 -15.35 -34.05 -17.05 -37.35 -18.65 -38.9 -21.95 -36.25 -23.05 -34.5 -23.05 -31.55 -23.05 -28.85 -21.15 M-82.85 23.25 Q-82.85 28.35 -80.9 32.0 -79.0 35.6 -76.25 35.6 -76.8 39.5 -75.8 39.55 -82.05 39.55 -86.85 34.65 -91.6 29.75 -90.8 24.4 L-89.7 24.0 Q-88.55 23.35 -88.0 21.95 L-81.4 13.75 Q-77.1 11.7 -75.8 13.3 -74.15 15.3 -82.85 23.25" fill="#362510" fill-rule="evenodd" stroke="none"/>
      <path d="M161.3 -88.6 Q146.8 -65.9 125.4 -45.45 105.25 -26.15 83.3 -12.8 81.15 -11.45 68.3 -0.6 55.85 9.95 54.6 11.25 L55.7 12.15 43.6 28.7 Q29.45 41.45 19.75 56.4 L0.55 82.25 -3.75 88.05 -3.15 85.85 -14.7 93.65 -52.55 119.4 -53.8 118.9 -42.6 108.15 -40.65 106.7 Q-25.25 100.7 -10.5 88.05 5.8 74.05 14.15 57.55 L15.75 54.95 12.7 54.2 19.7 48.55 42.25 19.85 43.4 18.45 51.35 9.2 51.5 12.1 Q64.65 -0.7 71.35 -15.75 71.5 -16.75 71.8 -17.2 72.1 -17.7 72.5 -17.75 72.9 -17.8 73.25 -17.35 L73.7 -16.25 73.7 -15.1 71.95 -9.7 97.6 -27.35 99.1 -28.45 102.0 -30.55 112.8 -38.65 116.3 -41.4 129.5 -53.6 162.95 -100.05 164.35 -101.65 164.7 -99.0 161.3 -88.6 M-30.1 -52.25 L-31.0 -52.0 -31.85 -52.25 Q-32.25 -52.55 -32.25 -52.9 L-31.85 -53.5 -31.0 -53.8 Q-30.5 -53.8 -30.1 -53.5 -29.75 -53.25 -29.75 -52.9 -29.75 -52.55 -30.1 -52.25" fill="#44372b" fill-rule="evenodd" stroke="none"/>
      <path d="M-82.85 23.25 Q-78.2 25.1 -74.6 27.85 -69.3 32.0 -69.05 36.55 L-76.25 35.6 Q-79.0 35.6 -80.9 32.0 -82.85 28.35 -82.85 23.25 M-88.0 21.95 Q-88.0 18.55 -86.05 16.15 -84.15 13.75 -81.4 13.75 L-88.0 21.95" fill="#422d13" fill-rule="evenodd" stroke="none"/>
      <path d="M98.05 -118.7 L98.05 -115.05 95.8 -115.05 95.8 -118.7 98.05 -118.7 M113.5 -87.85 L109.45 -88.35 Q108.85 -88.35 107.3 -87.55 L105.9 -86.8 108.3 -92.55 Q111.0 -98.3 112.35 -98.05 111.55 -98.9 110.35 -98.9 L108.5 -98.75 107.3 -98.95 105.85 -99.65 107.75 -101.85 106.6 -103.4 Q105.45 -105.15 105.4 -106.35 L99.8 -107.15 100.7 -111.35 107.35 -110.9 107.3 -103.75 119.1 -103.85 119.05 -100.1 120.25 -99.05 Q121.35 -97.65 121.1 -95.45 L113.5 -87.85 M13.8 12.35 Q12.35 13.35 9.25 13.55 3.9 13.55 3.9 9.45 3.9 5.35 20.3 -7.6 32.6 -17.35 43.25 -24.1 L41.2 -21.9 41.8 -21.85 Q41.85 -21.65 40.95 -20.6 L27.95 -8.9 19.1 -0.8 22.8 -2.95 26.25 -4.1 19.45 1.65 Q18.1 1.65 17.2 3.2 16.25 4.7 16.25 6.85 L16.05 7.85 15.55 8.25 10.3 11.1 14.05 11.7 13.8 12.35 M72.95 -44.65 Q63.05 -37.6 58.55 -43.85 57.55 -45.25 55.3 -50.15 53.45 -54.3 51.75 -55.85 L53.35 -55.85 Q57.9 -55.4 60.9 -52.4 63.2 -50.15 63.85 -47.45 L96.25 -74.1 81.2 -54.1 72.95 -44.65 M48.9 -31.4 Q50.7 -34.0 49.75 -36.85 52.45 -36.0 52.45 -33.6 52.45 -31.15 51.35 -29.05 49.9 -26.3 47.1 -25.7 46.85 -28.45 48.9 -31.4 M116.6 -98.0 L116.45 -98.25 116.1 -98.35 115.75 -98.25 115.6 -98.0 115.75 -97.75 116.1 -97.65 116.45 -97.75 116.6 -98.0 M-19.75 3.0 L-5.45 19.85 0.25 20.75 -33.5 53.0 -35.0 53.2 Q-33.3 45.25 -25.1 35.35 -16.9 25.45 -9.35 22.3 L-14.7 16.4 Q-19.75 11.05 -19.75 3.0 M-48.7 68.8 Q-50.8 73.85 -53.5 76.0 L-54.25 75.4 Q-54.95 74.5 -54.85 73.2 L-63.35 82.6 -53.75 77.75 -69.75 90.35 Q-67.65 87.7 -66.1 83.8 -64.1 78.85 -64.1 74.25 -64.1 68.4 -66.0 63.0 -67.75 58.1 -71.25 53.0 L-47.1 60.8 Q-46.65 63.8 -48.7 68.8 M-95.25 113.5 L-84.35 105.7 -91.35 114.95 -89.95 114.6 Q-88.45 114.4 -87.8 114.95 L-91.0 118.25 Q-94.25 115.35 -94.0 114.0 L-95.25 113.5 M-101.9 120.9 L-124.9 137.75 Q-121.4 132.75 -115.15 127.55 -108.75 122.15 -102.1 118.8 L-101.9 120.9" fill="#5c4727" fill-rule="evenodd" stroke="none"/>
    </g>
  </defs>
</svg>
