<?xml version="1.0" encoding="UTF-8" standalone="no"?>
<svg xmlns:ffdec="https://www.free-decompiler.com/flash" xmlns:xlink="http://www.w3.org/1999/xlink" ffdec:objectType="frame" height="146.65px" width="709.45px" xmlns="http://www.w3.org/2000/svg">
  <g transform="matrix(1.0, 0.0, 0.0, 1.0, 315.0, 129.15)">
    <use ffdec:characterId="982" height="20.95" transform="matrix(7.0, 0.0, 0.0, 7.0, -315.0, -129.15)" width="101.35" xlink:href="#shape0"/>
  </g>
  <defs>
    <g id="shape0" transform="matrix(1.0, 0.0, 0.0, 1.0, 45.0, 18.45)">
      <path d="M-38.35 1.7 L-40.6 1.45 -41.5 1.3 Q-42.1 1.1 -42.3 0.8 -42.45 0.65 -42.45 0.45 -42.45 -0.55 -41.05 -1.7 -39.85 -2.75 -38.5 -3.2 L-36.75 -3.85 Q-35.6 -4.3 -34.6 -4.6 -32.85 -5.05 -31.05 -5.25 L-28.45 -5.4 Q-25.2 -5.4 -18.85 -8.0 -17.0 -8.75 -14.65 -9.8 -12.7 -10.7 -12.55 -10.75 -6.85 -12.3 -3.5 -13.1 L-3.0 -13.2 Q2.9 -14.55 8.45 -15.2 L9.45 -15.2 Q12.9 -14.7 18.75 -13.45 24.95 -12.15 27.05 -11.4 28.25 -10.95 29.2 -10.4 L29.6 -10.1 31.3 -8.9 Q33.7 -7.55 41.3 -6.6 L48.3 -6.55 Q50.5 -6.5 52.0 -5.6 L52.65 -5.15 52.85 -5.0 53.15 -4.7 Q53.65 -4.15 53.85 -3.6 53.95 -3.3 53.95 -3.0 53.95 -2.4 53.35 -1.95 L52.95 -1.7 Q51.95 -1.15 49.95 -0.85 L49.15 -0.75 46.5 -0.55 Q46.8 -0.75 47.1 -0.95 L47.55 -1.4 Q47.95 -1.9 47.95 -2.4 47.95 -2.9 47.8 -3.1 47.55 -3.4 46.7 -3.55 45.75 -3.75 38.7 -4.55 36.45 -4.8 34.65 -5.4 L33.25 -5.95 Q32.5 -6.25 31.85 -6.4 29.5 -6.7 27.95 -7.25 26.45 -7.9 25.5 -8.2 22.1 -9.45 12.45 -9.8 L3.35 -8.55 Q-0.35 -8.05 -1.75 -7.8 -3.55 -7.5 -5.1 -7.0 -6.4 -6.6 -9.05 -5.55 -12.0 -4.45 -17.05 -1.85 -18.3 -1.2 -19.4 -0.65 -22.7 0.95 -24.9 1.8 L-25.0 1.85 -25.1 1.85 Q-26.15 1.55 -27.05 1.1 L-28.4 0.2 -28.85 -0.05 Q-29.35 -0.35 -29.75 -0.5 -30.55 -0.8 -31.55 -0.8 -31.4 -0.8 -31.35 -0.85 -31.55 -0.9 -32.3 -0.7 -33.35 -0.35 -34.55 0.15 -35.4 0.5 -36.05 0.85 -36.9 1.35 -37.35 1.75 L-38.25 1.7 -38.35 1.7" fill="#ffe47f" fill-opacity="0.2509804" fill-rule="evenodd" stroke="none"/>
      <path d="M-40.6 1.45 Q-40.95 1.7 -41.35 1.7 -42.6 1.7 -43.55 0.95 -44.5 0.75 -44.85 -0.05 -45.05 -0.65 -45.0 -1.25 -45.0 -1.6 -44.6 -2.05 -44.05 -3.05 -42.4 -3.95 -41.6 -4.4 -40.45 -4.8 -39.65 -5.2 -38.75 -5.65 -33.05 -8.3 -24.2 -11.35 -15.5 -14.35 -7.75 -16.35 0.6 -18.45 4.3 -18.45 10.0 -18.45 14.7 -17.75 18.3 -17.15 21.95 -16.0 24.0 -15.35 27.55 -14.1 30.6 -13.1 33.0 -12.75 45.0 -11.0 49.65 -9.85 56.35 -8.15 56.35 -6.0 56.35 -5.3 56.2 -4.65 56.25 -4.3 56.25 -3.9 56.25 -2.45 54.9 -1.5 54.1 -0.95 52.75 -0.55 48.85 1.65 41.0 2.2 40.55 2.15 40.2 2.0 39.85 1.9 39.7 1.8 38.35 1.85 36.8 1.85 33.3 1.85 21.6 1.0 9.95 0.15 8.45 0.15 L6.4 0.15 -1.5 0.65 -3.95 0.85 -9.35 1.25 -9.6 1.25 Q-11.45 1.35 -13.65 1.75 L-15.6 2.1 -16.4 2.25 -17.25 2.45 -22.1 2.45 -28.75 2.15 -28.95 2.15 -35.4 2.5 Q-35.9 2.5 -37.1 2.3 L-38.8 2.05 Q-38.65 1.85 -38.35 1.7 L-38.25 1.7 -37.35 1.75 Q-36.9 1.35 -36.05 0.85 -35.4 0.5 -34.55 0.15 -33.35 -0.35 -32.3 -0.7 -31.55 -0.9 -31.35 -0.85 -31.4 -0.8 -31.55 -0.8 -30.55 -0.8 -29.75 -0.5 -29.35 -0.35 -28.85 -0.05 L-28.4 0.2 -27.05 1.1 Q-26.15 1.55 -25.1 1.85 L-25.0 1.85 -24.9 1.8 Q-22.7 0.95 -19.4 -0.65 -18.3 -1.2 -17.05 -1.85 -12.0 -4.45 -9.05 -5.55 -6.4 -6.6 -5.1 -7.0 -3.55 -7.5 -1.75 -7.8 -0.35 -8.05 3.35 -8.55 L12.45 -9.8 Q22.1 -9.45 25.5 -8.2 26.45 -7.9 27.95 -7.25 29.5 -6.7 31.85 -6.4 32.5 -6.25 33.25 -5.95 L34.65 -5.4 Q36.45 -4.8 38.7 -4.55 45.75 -3.75 46.7 -3.55 47.55 -3.4 47.8 -3.1 47.95 -2.9 47.95 -2.4 47.95 -1.9 47.55 -1.4 L47.1 -0.95 Q46.8 -0.75 46.5 -0.55 L49.15 -0.75 49.95 -0.85 Q51.95 -1.15 52.95 -1.7 L53.35 -1.95 Q53.95 -2.4 53.95 -3.0 53.95 -3.3 53.85 -3.6 53.65 -4.15 53.15 -4.7 L52.85 -5.0 52.65 -5.15 52.0 -5.6 Q50.5 -6.5 48.3 -6.55 L41.3 -6.6 Q33.7 -7.55 31.3 -8.9 L29.6 -10.1 29.2 -10.4 Q28.25 -10.95 27.05 -11.4 24.95 -12.15 18.75 -13.45 12.9 -14.7 9.45 -15.2 L8.45 -15.2 Q2.9 -14.55 -3.0 -13.2 L-3.5 -13.1 Q-6.85 -12.3 -12.55 -10.75 -12.7 -10.7 -14.65 -9.8 -17.0 -8.75 -18.85 -8.0 -25.2 -5.4 -28.45 -5.4 L-31.05 -5.25 Q-32.85 -5.05 -34.6 -4.6 -35.6 -4.3 -36.75 -3.85 L-38.5 -3.2 Q-39.85 -2.75 -41.05 -1.7 -42.45 -0.55 -42.45 0.45 -42.45 0.65 -42.3 0.8 -42.1 1.1 -41.5 1.3 L-40.6 1.45 M36.55 0.3 L38.95 0.3 38.1 0.25 36.55 0.3" fill="#ffffff" fill-opacity="0.2509804" fill-rule="evenodd" stroke="none"/>
    </g>
  </defs>
</svg>
