<?xml version="1.0" encoding="UTF-8" standalone="no"?>
<svg xmlns:ffdec="https://www.free-decompiler.com/flash" xmlns:xlink="http://www.w3.org/1999/xlink" ffdec:objectType="frame" height="339.85px" width="402.15px" xmlns="http://www.w3.org/2000/svg">
  <g transform="matrix(1.0, 0.0, 0.0, 1.0, 212.45, 265.65)">
    <use ffdec:characterId="1012" height="45.95" transform="matrix(7.0, 0.0, 0.0, 7.0, -210.0, -254.8)" width="56.75" xlink:href="#shape0"/>
  </g>
  <defs>
    <g id="shape0" transform="matrix(1.0, 0.0, 0.0, 1.0, 30.0, 36.4)">
      <path d="M25.65 -32.9 Q26.1 -32.85 26.45 -32.5 26.75 -32.15 26.75 -31.65 26.75 -31.05 26.3 -30.6 25.55 -29.9 23.9 -29.9 21.6 -29.9 21.0 -30.4 20.65 -30.65 20.8 -30.95 20.8 -31.7 21.9 -31.9 L23.7 -32.0 Q24.5 -33.05 25.65 -32.9 M20.0 -30.15 Q20.0 -29.7 19.75 -29.3 19.35 -28.75 18.45 -28.75 18.0 -28.75 17.65 -29.1 17.4 -29.35 17.4 -29.5 17.4 -30.0 17.8 -30.4 18.15 -30.75 18.7 -30.9 L19.6 -30.85 Q20.0 -30.65 20.0 -30.15 M19.0 -23.9 L18.25 -22.9 Q17.8 -22.3 17.25 -21.9 L15.8 -20.8 Q15.35 -20.45 14.0 -20.15 L13.25 -20.15 Q12.95 -20.45 12.85 -20.65 12.75 -20.8 12.75 -21.05 12.75 -21.7 13.1 -22.15 13.45 -22.6 14.3 -22.95 15.1 -23.25 16.45 -23.8 17.55 -24.25 18.3 -24.3 L18.8 -24.25 19.0 -23.9 M17.6 -23.1 Q17.7 -23.15 17.85 -23.4 L18.05 -23.7 18.05 -23.75 17.75 -23.4 17.6 -23.1 M13.6 -21.6 L13.9 -21.9 14.3 -22.25 13.85 -21.9 13.6 -21.6 M14.6 -18.55 Q14.55 -18.55 14.55 -18.8 14.55 -18.95 14.95 -19.2 15.2 -19.4 15.4 -19.45 L15.95 -19.4 16.05 -19.3 16.05 -18.65 16.0 -18.6 Q15.9 -18.6 15.75 -18.45 L15.1 -18.45 Q15.0 -18.6 14.65 -18.6 L14.6 -18.55 M21.2 -19.8 L21.25 -19.1 Q21.25 -18.55 20.9 -18.15 20.5 -17.7 19.8 -17.7 L19.3 -17.7 19.05 -17.75 Q19.0 -17.75 19.0 -18.0 19.0 -18.2 19.55 -18.55 20.05 -18.9 20.05 -19.3 20.05 -19.6 20.3 -19.75 L21.2 -19.8 M2.55 -17.3 Q2.85 -17.2 2.9 -17.1 2.85 -17.0 2.85 -16.85 2.8 -16.7 2.85 -16.6 2.8 -16.45 2.3 -16.45 2.15 -16.45 2.0 -16.55 L1.6 -16.95 Q1.85 -17.25 2.0 -17.3 L2.55 -17.3 M6.6 -16.1 Q6.4 -15.85 6.2 -15.8 6.3 -15.8 6.45 -15.9 6.65 -16.0 6.65 -16.1 L6.6 -16.1 M6.45 -16.5 Q6.85 -16.65 7.1 -16.6 7.25 -16.3 7.0 -15.85 6.65 -15.3 6.0 -15.2 5.9 -15.15 5.85 -15.15 5.7 -15.15 5.7 -15.4 5.7 -15.6 5.85 -15.7 6.0 -15.85 6.0 -16.05 6.0 -16.35 6.45 -16.5 M2.25 -12.6 L2.55 -12.2 2.5 -11.95 1.45 -11.95 0.8 -12.1 Q0.15 -12.2 -0.1 -12.25 -0.15 -12.45 -0.35 -12.6 L-0.15 -12.6 Q0.0 -12.5 0.1 -12.45 0.1 -12.55 0.3 -12.8 0.55 -13.15 0.75 -13.25 L1.35 -13.15 1.9 -13.0 Q2.05 -12.9 2.25 -12.6 M2.7 -4.1 Q3.35 -3.4 3.5 -2.2 L3.6 -1.25 Q3.65 -0.7 3.75 -0.4 4.5 -0.65 5.1 -0.75 L5.6 -0.85 5.9 -0.8 Q5.95 -0.8 5.9 -0.75 L5.95 -0.75 Q6.4 -1.1 6.6 -1.7 6.75 -2.15 6.85 -3.4 7.0 -4.5 7.25 -5.0 7.65 -5.8 8.6 -6.1 8.6 -5.5 8.9 -4.65 9.35 -4.75 9.55 -4.85 9.7 -4.95 10.6 -5.05 L11.15 -5.05 Q11.4 -5.05 11.35 -4.7 11.3 -4.3 11.35 -4.2 L11.7 -3.8 11.85 -3.55 11.85 -3.3 Q11.85 -3.05 11.95 -2.9 12.2 -2.35 13.15 -2.35 L14.5 -2.5 Q14.6 -2.55 15.25 -3.0 15.95 -3.45 16.0 -3.45 L16.4 -3.4 16.6 -3.05 Q16.7 -2.85 16.7 -2.6 16.7 -2.5 16.1 -1.5 L15.5 -0.4 Q15.3 0.25 15.0 0.55 14.5 1.0 13.1 1.3 L13.1 1.6 13.7 1.65 14.7 3.0 Q15.0 3.5 15.0 4.1 15.0 4.6 14.9 4.75 14.65 5.05 13.6 5.5 L13.05 5.75 12.4 6.4 Q11.35 7.3 10.35 7.75 L9.3 8.35 Q8.8 8.65 7.8 8.9 L7.7 8.95 Q6.45 9.45 6.05 9.45 L5.7 9.4 3.7 9.5 Q2.55 9.55 2.05 9.5 L2.35 9.45 2.3 9.45 1.8 9.4 1.75 9.35 1.75 9.4 0.8 9.3 0.6 9.3 0.15 9.25 0.15 9.3 Q0.1 9.3 0.1 9.05 L0.15 9.0 0.1 8.85 0.1 8.6 Q0.1 8.1 0.45 7.8 0.75 7.55 1.4 7.35 L2.65 6.85 Q3.1 6.7 3.45 6.5 L3.75 6.05 3.55 5.85 Q3.25 5.8 2.8 5.6 2.35 5.4 2.15 5.2 L-0.55 5.45 Q-1.55 5.75 -1.85 5.75 -2.15 5.75 -2.35 5.7 L-3.35 5.85 Q-3.65 5.85 -4.1 5.95 -4.6 6.05 -5.05 6.2 L-5.05 6.25 -4.75 6.45 -3.75 6.5 Q-3.5 6.55 -3.4 6.65 -3.3 6.75 -3.05 7.05 -3.2 7.3 -3.45 7.6 -3.9 8.0 -4.45 8.0 L-5.45 7.85 -6.55 7.65 -6.7 7.6 -7.95 7.25 Q-8.7 7.0 -9.2 6.85 L-10.75 6.85 Q-13.3 7.1 -14.7 6.35 -15.15 6.1 -15.45 5.75 -15.65 5.45 -15.65 5.25 -15.65 5.0 -15.55 4.75 L-15.3 4.2 -15.2 4.05 Q-15.05 3.85 -14.85 3.65 -14.65 3.5 -13.75 2.95 -13.05 2.55 -12.8 2.25 -12.7 2.05 -12.65 1.8 L-12.75 1.8 Q-13.0 1.75 -13.25 1.45 L-13.7 1.0 -14.55 0.9 -15.25 0.8 Q-15.65 0.8 -16.05 1.15 L-16.6 1.7 -17.9 1.4 Q-18.0 1.4 -18.8 1.75 -19.65 2.05 -19.8 2.1 L-20.2 2.5 Q-20.5 2.75 -20.6 2.8 L-21.2 2.75 Q-21.65 2.25 -21.7 1.95 -21.75 1.85 -21.75 1.15 -21.75 0.5 -21.65 0.3 -21.55 0.1 -21.0 -0.35 -20.35 -0.85 -20.5 -1.1 L-20.65 -1.35 Q-20.8 -1.5 -20.8 -1.65 -20.8 -2.1 -20.2 -2.65 -19.75 -3.1 -19.4 -3.2 L-18.85 -3.2 Q-18.2 -2.3 -17.9 -2.0 -17.3 -1.4 -16.55 -1.35 L-15.6 -1.5 Q-15.35 -1.7 -14.7 -1.95 L-13.4 -2.4 Q-11.7 -3.05 -11.5 -3.8 L-11.05 -5.35 Q-10.8 -6.3 -10.45 -6.75 -9.45 -5.55 -8.6 -3.9 -7.95 -2.7 -7.25 -1.0 -7.05 -1.1 -6.8 -1.2 L-6.2 -1.3 Q-6.05 -1.3 -5.95 -1.75 L-5.8 -2.7 Q-5.55 -4.1 -4.85 -4.1 -4.05 -4.1 -3.3 -1.85 L-2.7 -0.1 -2.65 -0.15 -2.45 -0.2 Q-1.7 -0.35 -1.3 0.15 L-1.15 0.35 -1.05 0.35 -0.6 -0.2 Q-0.3 -0.6 0.15 -0.9 L0.95 -1.4 Q1.2 -1.65 1.35 -1.95 1.2 -2.45 1.5 -3.2 1.75 -3.85 2.15 -4.15 L2.7 -4.1 M21.25 -12.55 Q21.2 -12.6 21.2 -12.85 24.45 -17.5 24.45 -14.3 24.45 -14.1 23.3 -13.2 22.15 -12.25 21.8 -12.25 21.35 -12.25 21.25 -12.55 M17.85 -12.25 L18.3 -12.25 18.6 -12.0 Q18.75 -11.85 18.75 -11.75 18.75 -11.65 18.55 -11.45 18.3 -11.15 18.0 -11.0 L17.55 -11.0 17.25 -11.1 Q17.15 -11.15 17.15 -11.45 17.15 -11.55 17.4 -11.85 17.7 -12.2 17.85 -12.25 M2.65 7.35 L1.35 8.25 1.4 8.25 1.5 8.2 Q2.15 7.8 2.7 7.35 L2.65 7.35 M-18.3 -32.05 Q-18.6 -31.8 -19.35 -31.8 L-20.6 -31.85 -21.0 -32.3 Q-21.25 -32.65 -21.25 -32.8 -21.25 -33.25 -20.25 -33.4 -19.2 -33.55 -18.25 -33.1 L-18.1 -32.95 -18.1 -32.65 Q-18.1 -32.25 -18.3 -32.05 M-22.35 -31.25 Q-22.9 -30.6 -23.95 -30.6 -25.15 -30.6 -26.4 -31.7 -27.6 -32.7 -27.6 -33.45 -27.6 -34.0 -27.25 -34.4 -26.85 -34.9 -26.15 -34.95 L-25.8 -34.9 Q-25.15 -34.6 -25.2 -34.3 -25.35 -33.95 -25.35 -33.7 -25.35 -33.45 -24.85 -33.35 L-23.65 -33.1 Q-21.95 -32.85 -21.95 -32.3 -21.95 -31.75 -22.35 -31.25 M-25.05 -23.2 Q-25.75 -23.65 -25.75 -23.9 -25.75 -24.4 -25.65 -24.75 -25.55 -25.4 -25.25 -25.65 -23.35 -25.4 -22.4 -24.9 -21.6 -24.5 -21.6 -23.9 -21.6 -23.4 -22.45 -23.0 -23.15 -22.7 -23.65 -22.7 -24.3 -22.7 -25.05 -23.2 M-25.95 -11.0 Q-26.45 -10.8 -27.65 -10.8 -27.9 -10.8 -28.35 -10.95 L-29.0 -11.1 -29.6 -11.9 Q-30.0 -12.4 -30.0 -12.75 -30.0 -13.35 -29.7 -13.6 -28.65 -13.35 -27.5 -13.0 -25.5 -12.3 -25.5 -11.7 -25.5 -11.2 -25.95 -11.0 M-23.15 -13.8 Q-22.6 -13.9 -22.25 -13.7 -21.8 -13.5 -21.8 -12.9 -21.8 -12.65 -22.3 -12.15 -22.8 -11.65 -23.4 -11.5 L-23.8 -11.55 Q-24.5 -12.25 -24.5 -12.65 -24.5 -13.0 -24.1 -13.35 -23.7 -13.65 -23.15 -13.8 M-10.05 -21.4 L-9.45 -20.8 Q-9.25 -20.6 -9.25 -20.2 -9.25 -20.1 -9.35 -19.95 -9.5 -19.7 -9.85 -19.4 L-10.3 -19.4 Q-10.6 -19.6 -10.8 -20.15 -11.0 -20.6 -11.0 -20.9 L-10.95 -21.15 Q-10.9 -21.35 -10.6 -21.45 L-10.05 -21.4 M-6.05 -20.45 L-6.15 -20.4 -6.7 -20.45 -6.6 -20.55 Q-6.1 -20.5 -6.05 -20.45 M-8.2 -19.95 Q-7.5 -20.4 -7.15 -20.1 -6.85 -19.85 -6.85 -19.25 -6.85 -18.85 -7.55 -18.35 -8.4 -17.75 -9.7 -17.75 L-10.7 -17.75 -10.95 -18.25 Q-11.05 -18.5 -11.05 -18.75 -11.05 -19.0 -10.95 -19.15 L-10.75 -19.35 Q-10.45 -19.2 -9.7 -18.8 -8.35 -18.9 -8.2 -19.25 -8.15 -19.35 -8.2 -19.55 -8.2 -19.8 -8.2 -19.95 M-1.75 -18.25 L-1.85 -18.15 -1.95 -18.1 -2.2 -18.1 Q-2.6 -18.1 -2.8 -18.25 -2.95 -18.35 -2.95 -18.5 -2.95 -19.25 -2.35 -19.2 -2.1 -19.15 -1.95 -19.0 -1.75 -18.8 -1.75 -18.5 L-1.75 -18.25 M-19.15 -17.75 Q-18.95 -17.45 -18.95 -17.25 L-19.0 -16.95 Q-19.1 -16.75 -19.4 -16.65 L-20.8 -16.65 Q-21.05 -16.8 -21.15 -16.95 -21.3 -17.15 -21.3 -17.45 L-21.35 -17.5 Q-21.35 -17.55 -21.1 -17.55 L-20.95 -17.5 -20.95 -17.7 Q-20.95 -17.95 -20.65 -18.05 L-19.7 -18.15 Q-19.35 -18.05 -19.15 -17.75 M-19.05 -10.7 Q-19.05 -10.4 -19.2 -10.2 -19.35 -9.9 -19.95 -9.7 L-21.05 -9.7 Q-21.35 -9.75 -21.6 -10.3 -21.75 -10.75 -21.75 -11.1 -21.75 -11.6 -21.3 -11.75 -20.95 -11.9 -20.4 -11.8 -19.85 -11.65 -19.45 -11.35 -19.05 -11.05 -19.05 -10.7 M-2.3 -13.65 Q-2.35 -13.6 -2.35 -13.85 -2.35 -14.1 -2.25 -14.1 L-2.15 -14.05 -1.75 -14.0 Q-1.5 -13.9 -1.45 -13.8 L-1.75 -13.7 -2.25 -13.7 -2.3 -13.65 M-5.8 -12.55 Q-5.85 -12.7 -5.85 -12.95 -5.85 -13.2 -5.85 -13.25 L-5.7 -13.3 -5.3 -13.25 Q-5.2 -13.15 -5.2 -12.95 L-5.2 -12.55 -5.55 -12.35 -5.8 -12.55 M-6.5 -12.75 Q-6.25 -12.45 -6.25 -12.35 -6.25 -11.8 -6.55 -11.7 L-7.3 -11.65 Q-7.5 -11.65 -8.05 -11.85 -8.75 -12.1 -9.15 -12.2 -9.35 -12.45 -9.4 -12.65 -9.5 -12.9 -9.5 -13.2 -9.5 -13.6 -9.05 -14.05 L-8.7 -14.0 Q-8.45 -13.75 -7.55 -13.55 L-6.7 -13.45 Q-6.7 -13.35 -6.85 -13.2 L-6.5 -12.75 M-3.1 5.7 L-2.45 5.6 -2.55 5.55 -3.3 5.7 -3.1 5.7" fill="#e5eeff" fill-opacity="0.7529412" fill-rule="evenodd" stroke="none"/>
      <path d="M25.75 -32.25 Q25.75 -32.05 25.35 -31.7 24.9 -31.25 24.4 -31.1 L24.15 -31.1 Q23.85 -31.1 23.8 -31.15 19.85 -31.05 18.5 -30.6 L17.8 -30.3 Q17.4 -30.2 16.6 -30.2 15.5 -30.2 15.2 -30.9 15.05 -31.25 15.1 -31.65 15.1 -32.65 16.1 -33.15 17.8 -34.05 22.65 -34.0 L22.65 -34.05 Q24.5 -34.15 25.3 -33.35 25.75 -32.9 25.75 -32.25 M18.1 -24.7 Q18.1 -23.95 17.65 -23.45 16.85 -22.6 14.9 -22.55 L13.6 -21.55 Q12.75 -20.95 11.85 -20.75 L11.1 -20.75 Q10.5 -21.05 10.35 -21.55 10.25 -21.75 10.25 -22.35 10.25 -23.35 10.5 -23.75 11.1 -24.65 13.1 -24.35 13.3 -24.45 13.7 -24.75 L14.4 -25.3 Q15.5 -25.95 17.3 -25.9 17.9 -25.55 18.05 -25.25 L18.1 -24.7 M15.25 -19.45 Q15.1 -19.25 14.45 -18.8 L13.85 -18.8 Q13.3 -19.3 13.3 -19.6 13.3 -19.85 13.3 -19.9 13.4 -19.95 13.9 -20.0 L14.2 -20.3 14.6 -20.75 15.1 -20.75 15.3 -20.5 Q15.35 -20.4 15.35 -20.1 15.35 -19.65 15.25 -19.45 M14.5 -19.75 Q14.35 -19.6 14.15 -19.45 L13.9 -19.4 Q14.4 -19.35 14.6 -19.7 14.75 -19.9 14.8 -20.15 L14.75 -20.15 Q14.65 -19.95 14.5 -19.75 M17.1 -18.6 L17.15 -18.75 17.65 -18.85 18.6 -18.95 18.75 -19.15 Q18.9 -19.3 18.9 -19.55 18.9 -19.65 18.7 -19.9 18.45 -20.15 18.45 -20.2 18.45 -20.5 18.7 -20.75 18.95 -20.95 19.25 -21.0 L19.7 -20.9 20.1 -20.8 Q20.35 -20.6 20.6 -20.35 20.8 -20.1 20.8 -19.85 20.8 -19.65 20.35 -19.1 L19.8 -18.45 Q19.25 -18.35 19.1 -18.25 L17.6 -18.25 17.3 -18.45 17.1 -18.6 M20.15 -19.7 L20.2 -19.75 20.25 -19.85 Q20.15 -20.2 19.95 -20.25 20.15 -19.9 20.15 -19.7 M23.05 -16.4 Q23.25 -16.5 23.3 -16.5 L23.9 -16.35 Q24.0 -16.25 24.0 -16.0 24.0 -15.45 22.7 -14.3 21.4 -13.1 20.45 -13.0 L19.9 -13.05 19.8 -13.15 19.8 -13.5 Q19.8 -13.75 19.95 -14.2 20.15 -14.8 20.5 -15.25 21.5 -16.55 23.0 -15.75 L23.45 -15.8 23.15 -16.0 Q22.95 -16.1 22.7 -16.1 22.85 -16.3 23.05 -16.4 M0.75 -18.8 L1.9 -18.75 2.7 -18.2 Q3.2 -17.85 3.2 -17.6 3.2 -17.4 3.15 -17.2 L3.0 -16.95 2.5 -16.95 Q2.25 -17.2 1.45 -17.65 0.75 -18.05 0.5 -18.5 0.5 -18.55 0.65 -18.65 L0.75 -18.8 M2.35 -15.25 Q2.85 -15.15 3.05 -14.6 3.15 -14.3 3.15 -13.85 3.15 -13.6 3.05 -13.55 L2.85 -13.5 2.05 -13.5 Q1.9 -13.65 1.25 -13.85 L0.35 -14.1 0.05 -14.45 Q-0.1 -14.65 -0.1 -14.75 -0.1 -15.45 0.25 -15.6 0.8 -15.8 2.35 -15.25 M5.35 -16.0 Q5.3 -16.15 5.3 -16.4 5.3 -16.9 5.7 -17.4 6.3 -18.05 7.45 -17.85 L7.65 -17.55 Q7.7 -17.4 7.7 -17.15 7.7 -16.9 7.3 -16.4 6.9 -15.9 6.45 -15.7 L5.6 -15.75 Q5.4 -15.95 5.35 -16.0 M8.4 -13.7 Q8.65 -13.1 8.65 -12.0 8.65 -11.1 8.55 -10.8 7.95 -9.7 7.75 -9.1 L7.85 -9.1 Q10.15 -9.1 11.3 -10.05 11.9 -10.5 12.15 -11.1 L12.85 -10.9 13.75 -10.9 Q13.9 -10.5 13.9 -10.05 13.9 -9.85 13.1 -8.7 L12.7 -8.15 13.55 -8.1 Q14.45 -8.05 14.45 -8.3 15.85 -8.25 16.25 -7.7 16.4 -7.5 16.45 -7.2 L16.45 -6.7 Q16.45 -5.4 15.65 -4.75 15.2 -4.4 12.45 -3.0 11.95 -2.8 11.9 -2.1 11.8 -1.3 11.3 -0.9 10.65 -0.35 9.85 0.0 10.05 0.2 10.45 0.25 L11.1 0.35 Q11.55 0.4 11.85 0.65 12.45 1.1 13.35 1.35 13.6 1.45 13.65 1.6 13.75 1.75 13.75 2.2 L13.7 2.9 13.3 3.65 Q12.55 3.8 12.2 4.15 12.0 4.5 11.85 4.55 9.85 4.65 8.65 5.5 8.0 5.95 7.7 6.1 7.1 6.35 6.15 6.35 L5.35 6.25 4.15 6.0 3.3 5.85 Q2.5 5.75 2.35 5.65 2.2 5.7 0.8 6.3 -0.45 6.8 -1.2 6.8 -2.95 6.8 -3.7 6.65 -4.65 6.4 -5.6 6.35 -6.45 6.3 -7.4 5.9 -8.3 5.6 -8.65 5.6 -11.7 5.6 -13.4 4.9 -14.75 4.4 -14.75 3.8 -14.75 3.5 -14.1 2.8 -13.35 2.05 -12.8 2.25 L-12.5 1.8 Q-12.35 1.55 -12.15 1.4 L-11.8 1.4 -12.2 0.75 Q-12.7 0.0 -13.1 0.0 L-13.8 0.1 Q-14.4 0.15 -15.25 0.1 L-15.85 0.25 Q-16.25 0.35 -16.45 0.35 -18.55 0.35 -19.25 -0.5 -19.45 -0.8 -19.6 -1.3 L-19.65 -1.55 Q-19.95 -1.85 -20.15 -2.3 L-20.35 -2.65 Q-20.65 -2.9 -20.8 -3.2 -20.9 -3.55 -20.9 -4.25 -20.9 -5.0 -20.7 -5.45 -20.6 -5.7 -20.4 -5.7 L-20.4 -6.05 -20.25 -6.05 -20.25 -5.7 -20.2 -5.65 Q-19.8 -6.05 -19.25 -5.8 -18.65 -5.55 -18.25 -4.8 L-18.2 -4.8 -17.9 -4.7 -17.15 -4.65 Q-16.75 -4.65 -16.3 -4.9 L-15.45 -5.45 Q-14.3 -6.15 -13.25 -5.9 -12.55 -6.2 -12.35 -6.85 -12.3 -7.05 -12.3 -7.8 -12.3 -8.1 -12.6 -9.05 -12.9 -10.0 -12.9 -10.25 -12.9 -10.7 -12.9 -10.85 -12.75 -11.15 -12.15 -11.25 L-11.45 -11.2 Q-11.15 -10.9 -10.65 -9.95 -10.25 -9.05 -9.65 -8.75 L-8.6 -7.6 Q-7.65 -6.6 -7.3 -6.6 -6.75 -6.6 -6.4 -6.95 -6.05 -7.35 -5.85 -7.55 -4.05 -8.0 -2.55 -5.55 L-1.6 -3.8 Q-1.1 -3.0 -0.7 -3.0 -0.5 -3.0 0.5 -4.15 L1.65 -5.6 2.35 -6.85 Q2.8 -7.7 3.3 -8.1 L4.2 -8.1 Q4.55 -7.65 4.6 -7.1 L4.6 -5.9 Q6.05 -6.35 6.2 -7.6 L6.15 -8.7 Q6.15 -9.35 6.25 -9.75 6.3 -9.95 6.6 -11.7 6.75 -13.0 7.3 -13.65 L7.65 -13.7 7.85 -13.75 8.4 -13.7 M18.8 -12.45 L18.45 -12.55 Q18.2 -12.6 18.15 -12.75 18.15 -12.2 17.95 -11.9 17.75 -11.6 17.65 -11.5 17.5 -11.4 17.2 -11.4 16.9 -11.4 16.7 -11.75 16.5 -12.0 16.45 -12.25 L16.65 -12.5 17.0 -12.25 17.15 -12.05 Q17.4 -12.2 17.45 -12.45 L17.45 -13.0 Q17.9 -13.35 18.2 -13.15 L18.85 -12.55 18.8 -12.45 M-22.75 -31.75 Q-23.2 -31.5 -23.85 -31.5 -24.75 -31.5 -25.25 -31.9 -25.65 -32.2 -25.65 -32.5 -25.65 -33.95 -25.05 -34.75 -24.2 -36.0 -21.8 -36.3 -17.7 -36.8 -15.15 -35.25 -14.2 -34.7 -13.65 -34.0 -13.2 -33.4 -13.2 -33.0 -13.2 -32.75 -13.25 -32.6 -13.35 -32.45 -13.55 -32.3 L-14.3 -32.3 Q-14.75 -32.45 -15.0 -32.6 L-15.25 -32.85 Q-15.5 -33.0 -16.95 -33.0 -20.65 -33.0 -21.95 -32.25 -22.5 -31.9 -22.75 -31.75 M-24.65 -25.9 Q-24.65 -26.35 -24.55 -26.45 -24.3 -26.75 -23.4 -26.75 L-23.05 -26.55 -22.7 -26.3 Q-22.7 -26.4 -22.8 -26.55 -22.9 -26.75 -22.9 -26.95 -22.9 -27.6 -21.7 -27.3 -21.25 -27.2 -19.8 -26.6 L-19.5 -25.95 Q-19.25 -25.4 -19.25 -25.25 -19.25 -24.8 -19.85 -24.4 -20.6 -23.9 -21.8 -23.9 -23.25 -23.9 -24.05 -24.75 -24.65 -25.35 -24.65 -25.9 M-25.4 -14.85 Q-25.0 -15.0 -24.8 -15.3 -23.85 -16.45 -22.25 -16.65 L-20.9 -16.7 -19.55 -16.65 Q-19.3 -16.55 -19.15 -16.35 -19.05 -16.2 -19.05 -16.0 -19.05 -15.2 -20.45 -14.6 L-21.45 -14.2 Q-21.9 -13.9 -21.95 -13.6 -22.05 -12.8 -22.4 -12.35 -23.1 -11.45 -24.55 -11.45 -25.85 -11.45 -26.5 -12.25 -26.85 -12.75 -26.85 -13.15 -26.85 -14.2 -26.1 -14.55 -25.65 -14.75 -25.4 -14.85 M-4.9 -21.5 Q-5.05 -21.3 -5.5 -21.15 L-5.7 -21.05 -6.3 -21.15 Q-6.55 -21.25 -6.65 -21.3 -7.4 -21.35 -8.5 -20.55 L-9.25 -19.95 Q-9.65 -19.7 -9.9 -19.7 -10.45 -19.7 -10.8 -20.1 -11.1 -20.4 -11.1 -20.8 L-11.0 -21.7 Q-10.9 -22.4 -10.9 -22.45 L-10.95 -22.35 Q-11.0 -22.3 -11.0 -22.55 -11.0 -22.8 -10.25 -23.2 -9.8 -23.45 -9.4 -23.6 -7.2 -23.25 -6.0 -22.75 -4.85 -22.25 -4.85 -21.75 -4.85 -21.65 -4.9 -21.5 M-8.75 -16.75 Q-7.75 -16.6 -6.75 -16.35 L-4.85 -15.75 -4.85 -15.65 -4.95 -15.65 Q-5.0 -15.7 -5.0 -15.75 L-5.45 -15.85 -5.7 -15.9 -6.4 -15.8 Q-4.85 -15.35 -4.85 -14.75 -4.85 -14.6 -5.0 -14.4 -5.2 -14.0 -5.7 -13.95 L-6.35 -14.0 -7.1 -14.1 Q-8.15 -14.15 -8.7 -14.85 -9.05 -15.3 -9.05 -15.75 -9.05 -16.0 -8.95 -16.3 -8.9 -16.6 -8.75 -16.75 M-1.25 -19.75 Q-1.25 -19.45 -1.4 -19.15 -1.6 -18.8 -1.75 -18.8 L-2.65 -19.25 Q-3.55 -19.75 -3.75 -19.8 L-3.75 -20.05 -3.65 -19.95 Q-3.55 -19.9 -3.35 -19.9 -3.3 -19.9 -3.15 -20.0 L-2.9 -20.25 Q-2.45 -20.55 -1.45 -20.3 L-1.3 -20.1 Q-1.25 -20.05 -1.25 -19.75 M-1.95 -15.5 Q-1.45 -15.35 -1.3 -15.2 -1.2 -15.1 -1.2 -14.9 -1.2 -14.65 -1.3 -14.55 L-1.55 -14.4 -1.8 -14.45 -2.2 -14.55 -2.25 -14.65 -1.95 -14.85 -1.6 -14.85 -2.0 -15.3 -1.95 -15.5 M-21.0 -18.1 Q-21.0 -18.65 -19.15 -18.8 -17.25 -18.9 -15.8 -18.35 L-15.6 -18.2 Q-15.5 -18.15 -15.45 -18.1 L-15.5 -17.95 Q-15.5 -18.2 -15.7 -18.2 L-16.15 -18.2 Q-16.25 -18.15 -16.35 -18.0 -16.4 -17.8 -16.4 -17.75 -16.6 -17.55 -17.6 -17.3 L-18.8 -17.0 -19.75 -17.25 -20.75 -17.5 -20.9 -17.7 Q-21.0 -17.85 -21.0 -18.1 M-17.25 -11.75 Q-17.75 -10.85 -19.15 -11.25 -18.95 -11.0 -18.8 -10.95 -18.4 -10.8 -18.15 -10.7 L-18.1 -10.55 Q-18.9 -10.75 -19.45 -10.95 -20.6 -11.35 -20.6 -11.8 -20.6 -12.5 -20.05 -13.05 -19.55 -13.5 -18.85 -13.65 -18.1 -13.85 -17.6 -13.65 -17.05 -13.4 -17.05 -12.85 -17.05 -12.15 -17.25 -11.75" fill="#e5eeff" fill-opacity="0.7529412" fill-rule="evenodd" stroke="none"/>
    </g>
  </defs>
</svg>
