<?xml version="1.0" encoding="UTF-8" standalone="no"?>
<svg xmlns:ffdec="https://www.free-decompiler.com/flash" xmlns:xlink="http://www.w3.org/1999/xlink" ffdec:objectType="frame" height="280.35px" width="280.35px" xmlns="http://www.w3.org/2000/svg">
  <g transform="matrix(1.0, 0.0, 0.0, 1.0, 51.75, 244.95)">
    <use ffdec:characterId="2258" height="23.45" transform="matrix(4.9537, 0.0, 0.0, 4.9537, 7.9259, -104.0278)" width="26.95" xlink:href="#shape0"/>
  </g>
  <defs>
    <g id="shape0" transform="matrix(1.0, 0.0, 0.0, 1.0, -1.6, 21.0)">
      <path d="M11.3 -16.75 Q14.2 -21.55 20.05 -20.95 32.45 -15.6 26.8 -4.0 23.1 3.6 16.65 0.7 16.2 0.55 15.85 0.3 L15.6 0.15 15.7 0.2 Q15.4 -0.05 15.3 -0.4 L15.2 -0.3 Q12.8 4.5 5.9 0.9 -1.2 -2.75 3.4 -9.0 4.9 -11.05 7.5 -10.6 L7.55 -10.65 Q8.05 -12.45 9.9 -12.95 L9.95 -12.95 Q9.95 -14.5 11.3 -16.75 M24.15 -1.85 L23.7 -1.1 Q24.65 -1.75 25.35 -2.85 L25.05 -2.75 Q24.8 -2.6 24.45 -2.55 L24.15 -1.85" fill="#ffff33" fill-rule="evenodd" stroke="none"/>
    </g>
  </defs>
</svg>
