<?xml version="1.0" encoding="UTF-8" standalone="no"?>
<svg xmlns:ffdec="https://www.free-decompiler.com/flash" xmlns:xlink="http://www.w3.org/1999/xlink" ffdec:objectType="frame" height="75.5px" width="626.45px" xmlns="http://www.w3.org/2000/svg">
  <g transform="matrix(1.0, 0.0, 0.0, 1.0, -0.25, 0.45)">
    <use ffdec:characterId="339" height="75.5" transform="matrix(1.0, 0.0, 0.0, 1.0, 0.25, -0.45)" width="626.45" xlink:href="#shape0"/>
  </g>
  <defs>
    <g id="shape0" transform="matrix(1.0, 0.0, 0.0, 1.0, -0.25, 0.45)">
      <path d="M612.05 9.8 L605.25 9.55 605.2 7.3 609.15 7.35 610.15 8.45 613.05 7.35 614.0 7.1 614.25 6.85 616.1 6.1 619.85 6.05 619.2 8.05 622.15 6.5 624.95 6.95 625.6 7.6 Q625.6 8.8 625.1 9.65 624.55 10.5 623.8 10.5 L623.5 10.55 621.7 10.45 617.3 9.8 617.2 7.75 612.05 9.8 M599.5 9.55 L592.4 9.5 592.2 9.2 Q591.85 8.35 592.0 9.5 L589.15 9.5 591.75 8.1 586.25 9.5 583.7 9.75 577.55 9.9 576.75 8.75 578.45 7.1 583.1 7.15 584.3 7.75 586.8 7.15 599.75 7.25 599.8 7.5 601.1 7.25 603.7 7.3 599.5 9.55 M554.0 10.8 L554.35 10.85 554.4 11.15 554.0 10.8 M72.35 4.45 L72.45 4.45 79.2 4.95 82.3 5.35 Q77.9 7.7 73.2 5.5 L72.35 4.45 M83.1 5.35 L87.55 5.45 Q88.05 6.1 87.5 6.5 85.85 7.45 88.05 8.25 L83.3 8.0 82.05 6.7 83.1 5.35 M92.65 5.55 L99.3 5.6 Q97.15 7.8 101.3 6.75 L102.05 6.0 111.15 5.7 112.9 5.7 111.05 9.3 107.2 9.35 107.15 8.5 107.15 8.15 102.55 7.75 101.55 8.5 92.15 8.3 92.65 5.55 M118.45 5.75 L125.7 5.8 128.3 6.3 122.8 7.25 121.95 8.45 117.35 8.75 Q116.05 6.9 117.55 6.1 117.95 5.85 118.45 5.75 M134.05 5.85 L141.5 5.9 142.35 6.6 Q142.65 7.1 142.5 7.7 L141.85 8.55 141.05 8.8 140.5 8.75 140.15 7.05 135.3 6.75 134.45 8.45 131.35 8.25 127.4 7.1 134.05 5.85 M146.85 5.9 L152.0 5.95 153.05 7.55 151.0 9.4 145.4 9.1 146.85 5.9 M161.6 5.95 L174.5 6.0 174.85 7.95 173.8 9.3 173.1 9.05 Q172.5 8.35 173.05 7.25 L163.3 7.75 160.5 9.75 154.35 9.5 154.65 7.55 161.6 5.95 M186.25 6.05 L198.4 6.05 200.05 6.05 Q202.3 7.2 201.2 8.2 L201.0 8.3 198.4 6.05 184.6 8.95 178.3 9.15 179.2 6.3 186.25 6.05 M205.25 6.1 L208.8 6.1 206.1 8.8 202.3 8.55 205.25 6.1 M212.05 6.1 L214.7 6.1 214.65 7.75 215.65 6.55 217.8 6.8 220.45 5.65 224.35 5.45 226.15 6.55 225.95 6.1 226.25 5.4 246.05 8.0 242.2 8.9 240.2 8.95 234.65 7.45 217.6 8.95 209.85 8.85 212.05 6.1 M249.85 8.15 L258.55 8.6 262.3 9.85 250.5 9.4 Q249.3 9.3 249.65 8.45 L249.85 8.15 M267.0 8.8 L268.0 8.8 275.55 10.3 267.85 10.1 267.0 8.8 M278.45 8.95 L283.4 9.0 Q285.2 9.25 285.55 9.6 285.9 9.95 285.45 10.3 L283.9 10.75 282.85 10.85 278.55 10.45 278.45 8.95 M287.5 9.0 L294.65 9.05 294.3 11.15 292.25 11.1 292.15 10.9 291.65 11.1 287.65 11.05 287.5 9.0 M300.25 9.1 L304.6 8.65 307.55 8.7 308.1 8.1 318.9 7.55 Q324.5 10.6 329.2 8.05 L329.15 7.8 332.8 7.85 Q332.05 8.25 331.35 8.7 L330.3 10.75 327.7 11.45 315.4 11.5 319.65 9.8 312.3 8.55 306.6 11.3 298.85 11.2 300.25 9.1 M333.0 7.85 L338.5 7.9 338.7 8.25 Q339.35 10.3 341.35 7.9 L360.2 8.05 358.55 9.5 332.25 11.25 331.95 11.1 Q334.45 9.5 333.0 7.85 M363.2 8.05 L371.7 7.95 Q371.85 8.3 371.6 8.65 L371.2 9.2 Q375.65 10.8 379.4 7.0 L384.65 6.45 Q385.25 7.3 384.6 8.15 L385.95 6.5 387.8 7.15 389.25 6.0 396.4 5.55 391.45 6.55 385.4 9.9 369.85 10.3 Q366.15 9.9 363.5 8.55 L363.2 8.05 M403.2 5.45 L408.75 5.4 Q408.75 6.45 407.4 7.2 L405.25 7.85 398.15 8.0 Q397.95 7.35 398.5 6.65 399.75 5.05 402.8 5.9 403.15 6.05 403.2 5.45 M411.95 5.35 L421.7 5.2 421.4 6.15 Q421.05 6.5 420.6 6.5 L420.55 6.5 410.95 7.55 411.95 5.35 M428.45 5.05 L428.85 5.0 436.45 6.55 428.65 6.55 428.3 6.4 Q427.05 5.45 428.45 5.05 M440.8 4.8 L446.85 4.7 447.2 5.15 Q447.65 5.8 448.45 4.7 L450.7 4.7 Q450.7 5.45 450.3 6.0 449.9 6.55 449.3 6.55 L441.3 6.55 440.8 4.8 M452.65 4.7 L463.9 4.6 463.2 6.3 462.4 6.7 459.15 7.05 455.2 6.85 Q453.2 6.55 451.45 5.75 L452.65 4.7 M466.95 4.6 L475.5 4.55 481.7 7.5 473.7 7.45 474.45 6.75 473.35 6.15 470.6 7.4 464.7 7.35 466.95 4.6 M480.3 4.55 L485.7 4.5 480.95 5.65 480.3 4.55 M488.4 4.5 L494.15 4.5 494.2 6.75 492.25 7.8 486.7 7.55 Q486.7 6.3 487.2 5.4 487.7 4.5 488.4 4.5 M499.5 4.45 L506.2 4.45 507.6 5.05 509.05 4.45 512.7 4.45 512.8 4.8 Q513.1 5.65 514.3 4.45 L518.2 4.4 518.75 4.65 Q519.85 4.95 518.9 5.5 L516.5 7.7 516.45 7.7 514.7 8.05 Q506.9 8.35 501.3 5.65 L500.15 8.35 497.65 8.35 499.5 4.45 M198.25 8.75 L196.55 8.85 193.1 8.85 198.1 7.8 Q198.55 8.45 198.25 8.75 M168.8 9.7 L166.65 9.75 Q167.95 6.9 171.3 8.8 L168.8 9.7 M71.55 7.7 L64.4 7.6 67.55 5.55 71.25 6.0 71.55 7.7 M560.3 9.55 L557.45 9.75 557.65 9.5 Q553.75 8.5 555.7 10.15 L552.2 9.4 552.2 9.1 Q553.6 7.9 555.15 7.45 L558.75 7.25 560.05 7.6 560.3 9.55 M564.7 7.0 L572.5 7.05 573.6 9.4 563.2 8.5 564.7 7.0 M595.1 8.55 Q596.7 8.25 595.05 8.2 593.85 8.8 595.1 8.55 M537.9 65.1 L537.9 65.15 Q533.7 67.5 528.7 66.3 L527.35 65.75 527.05 65.45 Q526.3 64.45 527.75 63.8 L537.9 65.1 M548.15 68.2 Q549.1 65.65 552.35 65.65 L559.4 66.05 558.2 69.65 549.7 69.1 548.15 68.2 M515.2 62.9 L513.05 66.05 508.45 66.05 508.1 65.95 507.9 65.85 507.7 65.5 507.65 64.85 510.75 62.5 515.2 62.9 M485.35 61.35 L483.9 64.95 485.15 65.5 Q494.55 61.25 504.9 62.85 L504.65 63.2 504.15 63.7 504.1 63.95 504.4 64.15 505.15 64.55 505.25 64.9 496.55 65.55 494.75 65.4 494.95 65.5 493.7 65.5 486.25 66.45 485.15 65.55 485.6 67.55 484.7 67.5 484.3 66.85 Q484.15 66.25 481.9 66.45 L480.45 65.55 476.6 66.9 473.5 66.6 473.25 66.35 474.2 63.35 475.7 62.8 478.9 63.8 484.05 61.3 485.35 61.35 M467.65 65.95 L459.25 65.1 459.25 65.0 460.7 64.25 466.1 63.9 468.7 64.45 468.65 65.15 467.7 65.9 467.65 65.95 M432.2 64.95 L428.2 64.9 427.65 64.05 425.05 63.65 422.95 64.85 422.1 64.85 423.25 62.5 418.4 62.3 415.45 64.5 410.6 64.4 408.2 63.5 Q409.0 61.55 406.45 61.05 L404.15 61.05 403.55 63.2 402.1 64.25 392.45 64.15 Q393.1 62.5 392.25 62.4 L392.05 61.95 394.95 61.7 398.7 61.8 396.5 62.3 402.65 62.5 403.45 60.85 411.7 60.4 Q413.95 60.6 415.35 62.1 L417.55 60.05 419.15 60.05 426.3 60.75 Q426.15 62.3 426.95 61.7 L428.95 60.3 434.4 61.1 Q434.4 61.45 434.7 61.7 L435.4 61.9 434.7 62.95 433.55 64.1 432.2 64.95 M386.15 64.4 L368.95 67.25 366.4 65.8 363.1 67.65 359.85 67.65 360.15 63.8 Q364.85 61.5 369.4 64.0 L377.4 62.75 380.65 62.0 389.15 62.55 386.15 64.4 M351.25 67.6 L348.15 67.6 347.85 67.55 338.0 66.9 337.7 64.75 333.9 64.95 330.9 67.5 328.9 67.45 326.95 66.9 326.7 65.05 326.0 64.85 Q321.35 63.65 317.55 67.25 L314.45 67.2 Q314.2 63.55 318.25 63.4 L320.5 63.35 330.6 64.4 331.65 63.95 331.7 63.0 342.65 63.0 342.4 65.3 344.3 66.1 346.45 65.8 346.85 63.95 349.4 62.8 358.25 62.6 357.85 65.1 Q354.9 67.25 351.25 67.6 M309.05 67.15 L305.35 67.15 Q303.7 66.25 305.25 65.35 L306.15 64.75 298.05 65.75 295.3 67.9 279.6 68.65 276.3 68.3 278.65 65.55 275.25 66.0 274.95 67.25 272.4 68.65 270.2 68.65 268.55 66.65 268.0 66.55 267.25 66.35 267.45 65.8 267.55 65.7 269.4 65.15 271.9 64.4 270.8 65.0 279.9 64.5 278.4 64.1 286.4 64.25 290.8 64.3 283.6 66.05 289.4 66.8 290.0 66.3 Q295.45 64.15 301.25 63.45 L312.4 63.05 313.05 63.9 312.8 63.95 312.55 63.9 312.55 64.05 Q313.9 64.05 313.45 64.25 L312.55 64.35 309.05 67.15 M456.1 60.65 L457.5 60.7 457.55 60.8 457.6 60.7 475.3 60.95 476.65 62.25 471.8 62.25 455.15 62.1 454.7 63.1 451.7 62.75 451.75 62.5 Q452.25 60.95 451.05 60.95 L456.1 60.65 M565.45 65.35 L566.7 65.6 567.2 66.2 566.7 66.8 565.45 67.05 564.25 66.8 Q563.7 66.55 563.7 66.2 563.7 65.85 564.25 65.6 L565.45 65.35 M445.05 63.75 L437.55 64.0 441.25 61.2 445.75 61.5 447.4 61.9 446.4 63.0 445.05 63.75 M192.1 63.5 L180.7 66.1 192.4 65.65 Q192.85 67.4 189.25 68.45 L187.55 68.8 184.5 68.8 Q182.15 68.5 180.05 67.25 L179.6 66.75 179.65 66.35 167.45 68.15 167.65 65.4 183.55 63.55 192.1 63.5 M196.8 68.75 L195.2 68.25 195.4 63.55 196.45 63.8 196.6 66.3 199.25 64.25 200.3 64.35 200.15 65.6 198.4 67.3 202.6 64.6 203.9 64.75 204.15 65.75 203.8 67.25 205.65 66.95 207.2 64.8 209.1 64.8 205.95 68.75 202.95 68.75 201.9 67.5 199.9 68.75 196.8 68.75 M210.55 64.8 L216.95 64.65 211.4 67.25 218.25 65.9 222.85 66.7 Q222.8 67.75 223.25 67.5 L223.95 67.4 227.15 68.35 226.95 68.55 226.8 68.7 209.2 68.75 210.55 64.8 M165.8 64.3 L162.9 68.6 159.0 67.7 161.15 64.55 162.7 64.3 165.8 64.3 M159.15 64.3 L159.9 64.65 Q156.25 68.85 150.45 67.7 L146.5 67.0 144.95 66.65 Q146.15 67.45 146.0 68.85 L142.6 68.85 140.9 68.4 141.2 66.1 141.7 65.75 Q143.25 65.9 144.25 66.3 143.25 65.55 144.0 64.25 L152.6 64.25 153.5 64.5 Q149.65 64.9 145.65 64.5 L148.2 65.1 148.6 66.6 148.75 66.65 Q152.8 67.4 156.05 64.3 L159.15 64.3 M107.5 64.25 L108.1 64.75 Q108.6 65.2 108.05 65.35 106.8 65.65 106.15 66.1 L104.5 68.65 96.8 68.25 Q97.1 66.85 93.25 67.4 L93.25 67.75 93.25 68.15 85.0 67.95 84.95 66.8 75.35 65.8 76.55 64.85 80.25 64.7 99.7 64.5 100.7 65.55 103.65 66.5 104.8 65.9 104.25 64.25 107.5 64.25 M128.7 68.65 L129.05 65.75 130.9 65.35 131.85 66.0 133.95 65.2 128.85 68.65 128.65 68.75 128.7 68.65 M49.65 67.25 L52.65 63.45 57.1 63.65 57.65 66.3 56.7 67.35 49.65 67.25 M37.4 63.05 Q38.55 63.15 39.5 63.6 40.8 64.15 40.8 65.0 40.8 65.85 39.5 66.45 L36.3 67.0 Q34.45 67.0 33.15 66.45 31.8 65.85 31.8 65.0 31.8 64.15 33.15 63.6 33.5 63.4 33.95 63.3 L36.3 63.0 37.4 63.05 M26.4 64.25 L31.15 64.8 29.55 66.0 18.35 68.15 20.5 65.95 26.4 64.25 M17.2 66.4 L17.85 70.1 14.6 71.85 2.45 71.85 Q3.4 71.2 4.5 71.05 8.8 70.0 11.75 70.15 L13.05 69.05 12.9 67.65 14.1 66.8 14.2 66.8 17.2 66.4 M10.65 67.1 L8.45 69.45 9.3 67.2 10.65 67.1 M67.55 65.05 L69.85 64.9 73.3 65.95 72.9 66.0 Q70.35 66.5 67.95 65.95 67.65 65.8 67.55 65.05 M60.0 67.35 L59.8 66.25 61.55 64.0 64.8 64.05 66.8 65.8 65.55 67.45 60.0 67.35 M47.7 63.85 Q48.7 64.3 48.7 64.95 48.7 65.6 47.7 66.05 L45.25 66.5 42.8 66.05 Q41.8 65.6 41.8 64.95 41.8 64.3 42.8 63.85 L45.25 63.4 47.7 63.85" fill="#b59a4a" fill-rule="evenodd" stroke="none"/>
      <path d="M621.7 10.45 L617.65 10.15 616.15 9.45 614.35 9.95 612.05 9.8 617.2 7.75 617.3 9.8 621.7 10.45 M605.25 9.55 L599.5 9.55 603.7 7.3 605.2 7.3 605.25 9.55 M592.4 9.5 L592.0 9.5 Q591.85 8.35 592.2 9.2 L592.4 9.5 M589.15 9.5 L586.25 9.5 591.75 8.1 589.15 9.5 M577.55 9.9 Q575.45 10.4 578.05 11.15 L580.55 11.5 572.45 15.1 569.65 14.65 577.9 11.5 576.45 11.05 Q576.65 9.75 575.45 9.75 L571.95 9.8 560.3 9.55 560.05 7.6 558.75 7.25 564.7 7.0 563.2 8.5 573.6 9.4 572.5 7.05 578.45 7.1 576.75 8.75 577.55 9.9 M584.45 11.3 L612.05 11.35 610.7 12.25 Q606.15 10.4 601.8 12.7 L600.5 13.4 598.7 13.2 Q599.45 12.15 597.9 12.05 L588.1 11.4 584.45 11.3 M621.65 12.95 L622.2 12.85 567.3 69.1 566.4 68.2 553.75 70.85 551.55 70.2 549.7 69.1 558.2 69.65 559.4 66.05 552.35 65.65 Q549.1 65.65 548.15 68.2 L544.4 66.25 539.95 67.25 529.2 66.8 528.7 66.3 Q533.7 67.5 537.9 65.15 L537.9 65.1 560.75 65.0 569.2 64.3 567.7 64.05 Q574.7 62.35 575.95 55.75 L575.95 55.5 Q573.9 54.35 571.8 55.8 568.45 58.1 565.65 60.8 L563.65 61.0 560.95 60.0 564.0 59.55 Q565.75 59.1 566.05 57.55 L566.1 57.0 557.55 58.5 554.6 57.7 Q556.0 57.25 556.95 56.05 558.0 54.75 557.45 53.25 L557.0 52.5 545.25 59.7 532.65 51.05 532.9 55.3 526.2 55.95 520.1 58.5 519.35 57.6 516.7 57.75 530.4 52.3 Q528.5 50.95 524.9 52.35 L514.3 56.6 Q512.05 57.4 509.95 58.75 L504.9 58.75 503.85 57.85 521.45 51.25 Q521.5 50.4 521.15 50.5 511.0 52.1 501.8 56.55 L493.15 57.25 492.45 56.95 492.45 56.75 492.35 56.2 483.3 54.8 488.45 54.5 479.95 53.4 506.15 51.25 Q505.45 48.9 502.4 48.95 L489.45 49.75 Q481.75 50.6 474.45 52.0 468.95 48.5 462.2 49.75 L469.9 58.05 466.35 58.0 457.8 53.8 456.75 50.7 440.45 55.85 437.4 54.7 Q428.9 52.0 423.4 57.8 L424.6 58.6 403.65 59.4 404.5 50.35 396.7 56.55 396.5 59.5 380.55 60.2 381.4 58.7 Q387.65 59.0 393.15 57.35 393.6 57.3 393.95 56.75 L393.45 55.85 360.7 56.75 Q362.15 55.3 363.1 53.45 363.45 52.85 363.25 52.0 L362.75 50.55 Q357.25 51.65 353.5 56.95 L350.05 57.25 349.75 54.7 352.15 54.5 347.9 49.7 Q347.55 52.1 345.45 50.55 344.7 50.5 344.65 51.05 344.2 56.8 348.2 60.75 L349.6 59.6 353.7 59.4 354.95 61.3 364.4 60.95 351.4 61.45 326.6 62.25 333.05 59.85 343.4 59.3 337.35 56.3 339.9 53.6 339.35 53.5 339.2 53.0 339.2 52.4 339.3 51.95 339.4 51.65 325.95 57.9 Q323.65 56.6 321.35 55.25 323.15 53.3 319.55 53.85 L318.9 53.7 312.45 50.85 313.7 53.7 309.7 52.5 Q300.6 50.3 292.5 54.25 L292.05 54.65 284.9 54.55 280.9 53.95 280.05 51.75 267.4 52.75 265.8 51.25 263.85 54.05 Q251.85 52.65 240.2 55.65 238.5 56.15 240.8 56.5 232.4 55.45 224.15 56.8 222.75 56.85 221.6 57.7 218.8 59.8 215.35 60.75 L218.55 63.5 209.75 63.35 214.9 62.05 213.95 57.95 209.55 56.05 208.55 56.3 208.8 60.0 Q208.25 57.4 206.6 54.05 205.55 51.95 203.5 50.95 L202.6 56.95 191.65 57.3 195.15 53.3 193.5 53.2 191.2 53.35 185.8 55.75 184.05 54.55 179.5 59.05 180.35 61.7 187.55 59.0 188.65 60.0 205.0 63.45 Q189.85 61.4 174.95 62.0 L157.05 62.95 178.65 61.55 176.2 60.35 173.05 60.0 175.25 59.25 178.0 58.0 178.85 57.95 Q179.4 57.85 179.65 57.55 179.85 57.25 179.65 56.95 179.45 56.6 178.7 56.45 L177.05 55.95 176.95 55.95 176.1 55.65 175.2 55.4 Q171.65 54.1 168.45 55.7 L168.35 55.8 167.4 55.85 Q165.2 56.35 165.85 57.15 L166.45 57.55 166.95 58.1 159.9 58.95 173.05 51.9 164.95 53.25 161.8 52.75 162.25 52.3 Q164.2 52.05 162.7 51.25 L162.2 51.1 159.55 50.8 150.95 51.7 152.7 54.25 160.0 54.05 159.9 54.1 Q150.95 56.7 145.55 62.35 L148.6 63.0 140.95 63.05 141.3 58.9 Q141.7 56.65 139.15 57.2 135.0 57.55 131.55 58.6 L129.55 62.75 127.2 62.95 Q129.4 52.7 136.2 44.5 138.45 41.8 139.6 38.55 132.0 43.0 126.85 50.25 L122.5 56.55 122.35 56.75 121.85 57.35 Q122.55 55.7 120.75 55.9 L120.15 56.0 119.55 53.25 Q115.25 56.2 115.6 61.5 L121.15 58.25 120.55 59.1 118.75 61.5 116.8 62.7 115.85 63.0 Q113.75 63.5 113.7 61.1 L113.5 60.3 111.75 62.8 99.85 62.8 100.8 59.7 105.35 57.3 104.55 61.25 Q109.35 64.2 111.65 58.8 112.25 57.4 112.15 55.9 L112.05 55.1 111.85 54.8 Q109.9 53.5 107.75 55.25 L101.45 55.4 101.55 54.35 Q99.2 52.6 95.45 55.4 93.95 55.4 92.9 56.25 91.85 57.05 91.85 58.25 L90.8 60.3 87.6 61.2 87.45 61.65 Q87.25 63.35 88.85 63.35 L85.25 63.45 86.0 60.85 87.05 59.85 84.55 58.5 84.0 56.8 82.55 55.5 84.7 51.0 Q80.15 52.05 76.85 56.65 75.4 58.7 73.1 57.75 68.7 55.85 63.85 55.6 62.7 55.25 61.9 55.8 62.55 57.8 63.95 59.2 L61.55 58.3 Q58.6 57.35 56.6 58.85 L54.6 56.75 64.05 52.4 Q66.45 51.15 66.05 48.65 53.35 51.3 41.5 58.55 L35.65 56.1 32.0 58.35 31.05 58.3 34.15 55.8 Q28.45 52.9 22.1 56.85 18.45 59.05 15.05 61.45 13.75 62.4 13.95 63.75 15.1 64.35 16.4 64.5 L7.2 66.0 12.95 60.3 Q21.55 51.85 29.25 42.65 42.0 27.6 55.5 13.05 L55.7 15.3 Q58.45 14.85 61.8 12.5 63.15 11.45 64.9 12.25 L65.95 12.1 64.15 10.05 78.25 12.55 63.6 13.0 63.05 14.05 67.65 15.3 Q75.3 20.3 84.3 17.7 L80.05 15.55 83.0 13.35 89.5 15.4 89.1 12.95 91.55 12.25 Q95.1 15.95 99.85 17.65 100.75 17.9 101.55 17.25 L97.3 12.55 111.1 13.0 105.65 13.8 105.5 14.1 105.4 14.6 105.3 15.0 104.7 15.25 104.1 15.25 103.65 15.25 103.45 15.35 Q103.3 15.6 103.45 15.9 L104.15 16.85 104.5 17.15 108.3 17.25 107.7 19.45 113.95 16.5 114.2 15.0 116.6 15.0 111.2 20.35 120.25 14.95 125.3 14.9 125.35 17.05 128.7 16.35 141.45 16.3 141.65 15.95 141.7 15.6 Q139.2 13.95 135.5 13.95 L134.2 13.7 137.55 12.8 138.55 13.75 148.4 14.2 153.15 14.65 149.75 18.15 153.9 18.75 162.95 12.95 162.65 11.3 167.1 11.45 164.8 13.2 Q165.25 15.7 168.35 16.7 172.25 18.05 176.2 17.7 177.25 17.5 177.65 16.4 L176.3 14.55 200.1 14.95 Q202.25 19.25 207.3 18.15 215.5 19.8 223.55 18.15 L225.45 17.65 226.35 19.15 Q230.25 20.8 233.8 17.7 L234.7 17.55 244.45 17.0 244.3 16.7 237.05 14.45 241.8 13.9 239.05 12.35 245.3 12.3 246.25 13.1 256.15 13.05 255.05 11.75 247.3 11.05 246.4 10.2 261.7 10.75 260.55 12.0 247.65 16.75 Q247.55 17.8 248.55 17.8 254.15 17.7 259.2 15.2 L260.65 16.65 259.85 16.75 259.65 17.25 259.7 17.85 269.5 18.3 269.75 18.3 269.6 18.25 269.4 18.15 269.05 18.0 278.8 16.55 279.3 14.15 291.9 13.95 281.35 18.9 284.8 19.7 Q291.1 16.95 298.0 16.35 298.65 16.2 299.2 16.75 302.6 20.15 306.7 21.7 L307.15 18.05 310.85 17.2 Q311.9 15.3 314.7 15.75 L329.1 16.85 Q334.8 16.95 336.7 13.0 L336.5 12.95 351.0 11.65 341.95 16.05 341.65 15.1 341.05 14.25 340.4 14.1 339.7 14.15 337.85 15.7 340.1 15.75 335.25 21.05 Q339.75 21.9 344.95 21.15 349.1 20.5 351.55 19.65 L351.65 19.9 357.45 16.75 361.05 16.75 357.95 21.55 359.7 21.8 Q363.1 19.65 366.35 17.2 368.8 15.3 369.1 12.5 L366.15 12.9 364.95 11.5 376.35 11.9 Q369.35 15.0 366.55 21.0 L366.7 21.05 Q371.1 20.45 375.15 16.8 376.85 15.25 377.85 13.3 378.25 12.55 378.0 11.95 L387.65 11.25 Q387.5 12.35 388.6 12.05 402.7 12.8 416.8 12.85 417.15 12.25 417.55 12.95 L402.1 13.4 390.05 13.0 390.0 15.2 Q390.5 16.8 392.2 16.9 L397.05 17.25 Q407.15 22.65 418.6 18.05 L420.7 17.4 424.45 18.5 423.75 15.9 424.2 15.55 440.2 11.3 441.1 10.6 456.4 10.55 457.45 18.3 461.95 14.85 461.55 11.25 464.65 10.65 463.45 17.25 Q468.05 19.7 471.85 15.4 472.75 14.4 472.6 13.25 471.25 11.8 470.15 13.75 L468.8 10.75 477.15 11.1 474.4 13.75 Q479.1 19.85 487.35 18.85 L486.25 15.25 487.15 15.1 Q488.4 18.45 492.5 18.4 L496.05 18.15 511.45 19.55 512.25 19.4 509.8 16.5 Q511.55 16.45 510.0 15.3 L509.15 15.05 509.4 13.35 509.35 13.2 508.0 11.8 Q506.65 10.6 509.35 11.5 L509.65 11.55 507.3 9.9 520.55 11.4 514.4 11.0 514.1 11.05 Q513.95 11.5 513.95 12.05 L519.45 14.75 520.45 18.75 525.05 15.8 Q525.35 16.5 525.95 16.75 L529.05 17.85 529.1 18.2 Q531.35 19.85 534.3 18.95 535.5 18.5 535.8 17.6 L536.3 13.85 537.55 13.45 537.9 13.55 Q537.95 14.25 538.25 13.85 L538.6 13.75 539.25 13.95 Q539.15 16.55 542.55 16.25 L543.25 16.55 544.1 17.75 549.9 18.0 550.55 21.6 Q554.55 21.25 559.05 17.7 560.4 16.65 560.1 15.1 562.2 16.35 563.2 14.4 L562.8 14.3 569.15 14.7 Q563.7 14.55 561.0 18.65 560.9 18.8 560.95 19.0 L574.95 18.25 581.85 18.3 581.35 20.35 Q586.2 21.35 590.5 17.8 L590.25 17.75 591.15 17.8 593.75 17.65 Q594.95 17.45 595.3 17.1 595.65 16.75 593.25 16.05 L594.85 14.75 598.55 14.8 596.5 18.9 600.2 18.3 601.65 19.0 Q604.05 19.2 606.15 18.3 L606.5 18.95 Q615.25 20.1 621.65 12.95 M623.75 10.6 L623.5 10.55 623.8 10.5 623.75 10.6 M622.15 6.5 L619.2 8.05 619.85 6.05 622.15 6.5 M613.05 7.35 L610.15 8.45 609.15 7.35 613.05 7.35 M625.95 7.0 L625.6 7.6 624.95 6.95 625.95 7.0 M522.9 10.5 L521.4 10.3 522.25 10.35 522.9 10.5 M491.95 2.3 L449.45 2.15 Q450.65 1.45 452.9 1.1 472.45 -1.3 491.95 0.05 L491.95 2.3 M449.25 2.15 L378.4 4.2 359.5 4.2 384.95 2.25 385.5 1.65 390.45 1.15 388.05 2.0 397.55 2.0 396.05 1.2 449.25 2.15 M230.15 4.2 L218.0 3.1 218.0 2.4 229.05 2.55 230.45 3.4 229.45 2.55 239.6 4.2 230.15 4.2 M76.35 3.1 L63.95 4.25 64.25 2.8 66.8 2.8 76.35 3.1 M63.85 5.05 L72.35 4.45 73.2 5.5 Q77.9 7.7 82.3 5.35 L83.1 5.35 82.05 6.7 83.3 8.0 71.55 7.7 71.25 6.0 67.55 5.55 64.4 7.6 60.55 7.55 63.85 5.05 M72.45 4.45 L80.9 4.0 80.9 4.2 79.2 4.95 72.45 4.45 M87.55 5.45 L92.65 5.55 92.15 8.3 101.55 8.5 102.55 7.75 107.15 8.15 107.15 8.5 107.2 9.35 97.7 9.5 88.05 8.25 Q85.85 7.45 87.5 6.5 88.05 6.1 87.55 5.45 M99.3 5.6 L111.15 5.7 102.05 6.0 101.3 6.75 Q97.15 7.8 99.3 5.6 M112.9 5.7 L118.45 5.75 Q117.95 5.85 117.55 6.1 116.05 6.9 117.35 8.75 L111.05 9.3 112.9 5.7 M125.7 5.8 L134.05 5.85 127.4 7.1 131.35 8.25 121.95 8.45 122.8 7.25 128.3 6.3 125.7 5.8 M141.5 5.9 L146.85 5.9 145.4 9.1 141.05 8.8 141.85 8.55 142.5 7.7 Q142.65 7.1 142.35 6.6 L141.5 5.9 M152.0 5.95 L161.6 5.95 154.65 7.55 154.35 9.5 151.0 9.4 153.05 7.55 152.0 5.95 M174.5 6.0 L186.25 6.05 179.2 6.3 178.3 9.15 168.8 9.7 171.3 8.8 Q167.95 6.9 166.65 9.75 L160.5 9.75 163.3 7.75 173.05 7.25 Q172.5 8.35 173.1 9.05 L173.8 9.3 174.85 7.95 174.5 6.0 M200.05 6.05 L205.25 6.1 202.3 8.55 198.25 8.75 Q198.55 8.45 198.1 7.8 L193.1 8.85 184.6 8.95 198.4 6.05 201.0 8.3 201.2 8.2 Q202.3 7.2 200.05 6.05 M208.8 6.1 L212.05 6.1 209.85 8.85 206.1 8.8 208.8 6.1 M214.7 6.1 L220.45 5.65 217.8 6.8 215.65 6.55 214.65 7.75 214.7 6.1 M224.35 5.45 L226.25 5.4 225.95 6.1 226.15 6.55 224.35 5.45 M246.05 8.0 L249.85 8.15 249.65 8.45 Q249.3 9.3 250.5 9.4 L243.9 9.2 242.2 8.9 246.05 8.0 M258.55 8.6 L267.0 8.8 267.85 10.1 262.3 9.85 258.55 8.6 M268.0 8.8 L278.45 8.95 278.55 10.45 275.55 10.3 268.0 8.8 M283.4 9.0 L287.5 9.0 287.65 11.05 282.85 10.85 283.9 10.75 285.45 10.3 Q285.9 9.95 285.55 9.6 285.2 9.25 283.4 9.0 M294.65 9.05 L300.25 9.1 298.85 11.2 294.3 11.15 294.65 9.05 M304.6 8.65 L308.1 8.1 307.55 8.7 304.6 8.65 M318.9 7.55 L329.15 7.8 329.2 8.05 Q324.5 10.6 318.9 7.55 M332.8 7.85 L333.0 7.85 Q334.45 9.5 331.95 11.1 L332.25 11.25 327.7 11.45 330.3 10.75 331.35 8.7 Q332.05 8.25 332.8 7.85 M338.5 7.9 L341.35 7.9 Q339.35 10.3 338.7 8.25 L338.5 7.9 M360.2 8.05 L363.2 8.05 363.5 8.55 Q366.15 9.9 369.85 10.3 L358.55 9.5 360.2 8.05 M371.7 7.95 L379.4 7.0 Q375.65 10.8 371.2 9.2 L371.6 8.65 Q371.85 8.3 371.7 7.95 M384.65 6.45 L389.25 6.0 387.8 7.15 385.95 6.5 384.6 8.15 Q385.25 7.3 384.65 6.45 M396.4 5.55 L403.2 5.45 Q403.15 6.05 402.8 5.9 399.75 5.05 398.5 6.65 397.95 7.35 398.15 8.0 L385.4 9.9 391.45 6.55 396.4 5.55 M408.75 5.4 L411.95 5.35 410.95 7.55 405.25 7.85 407.4 7.2 Q408.75 6.45 408.75 5.4 M421.7 5.2 L428.45 5.05 Q427.05 5.45 428.3 6.4 L428.65 6.55 420.6 6.5 Q421.05 6.5 421.4 6.15 L421.7 5.2 M428.85 5.0 L440.8 4.8 441.3 6.55 436.45 6.55 428.85 5.0 M446.85 4.7 L448.45 4.7 Q447.65 5.8 447.2 5.15 L446.85 4.7 M450.7 4.7 L452.65 4.7 451.45 5.75 Q453.2 6.55 455.2 6.85 L449.3 6.55 Q449.9 6.55 450.3 6.0 450.7 5.45 450.7 4.7 M463.9 4.6 L466.95 4.6 464.7 7.35 459.15 7.05 462.4 6.7 463.2 6.3 463.9 4.6 M475.5 4.55 L480.3 4.55 480.95 5.65 485.7 4.5 488.4 4.5 Q487.7 4.5 487.2 5.4 486.7 6.3 486.7 7.55 L481.7 7.5 475.5 4.55 M494.15 4.5 L499.5 4.45 497.65 8.35 492.25 7.8 494.2 6.75 494.15 4.5 M506.2 4.45 L509.05 4.45 507.6 5.05 506.2 4.45 M512.7 4.45 L514.3 4.45 Q513.1 5.65 512.8 4.8 L512.7 4.45 M518.2 4.4 L521.25 4.4 518.9 5.5 Q519.85 4.95 518.75 4.65 L518.2 4.4 M516.05 8.55 L500.15 8.35 501.3 5.65 Q506.9 8.35 514.7 8.05 L516.45 7.7 516.05 8.55 M473.7 7.45 L470.6 7.4 473.35 6.15 474.45 6.75 473.7 7.45 M315.4 11.5 L306.6 11.3 312.3 8.55 319.65 9.8 315.4 11.5 M292.25 11.1 L291.65 11.1 292.15 10.9 292.25 11.1 M239.65 9.1 L217.6 8.95 234.65 7.45 240.2 8.95 239.65 9.1 M140.5 8.75 L134.45 8.45 135.3 6.75 140.15 7.05 140.5 8.75 M98.25 10.7 L116.25 10.2 115.65 10.55 97.65 11.05 98.25 10.7 M119.8 9.95 L125.85 10.0 124.15 10.5 122.15 11.65 119.6 10.75 119.8 9.95 M128.55 10.0 L139.95 10.05 126.3 13.55 122.85 13.55 130.8 10.8 Q129.65 10.2 128.55 10.0 M158.3 11.05 L161.2 11.2 158.5 11.35 158.3 11.05 M173.85 11.35 L189.6 10.65 191.85 11.55 173.85 11.35 M220.2 10.45 L222.3 10.45 221.3 11.5 221.2 11.55 221.15 11.5 220.2 10.45 M490.5 12.95 L490.6 13.15 490.4 13.1 490.5 12.95 M523.05 11.65 L523.6 11.7 523.55 11.7 523.05 11.65 M536.9 10.9 L538.1 10.85 537.75 11.05 536.9 10.9 M542.2 11.65 L542.55 11.8 542.45 11.8 542.2 11.65 M543.85 12.45 L545.0 13.0 543.7 12.65 543.6 12.6 543.8 12.5 543.85 12.45 M548.75 14.15 L549.8 14.25 549.55 14.4 548.75 14.15 M558.5 11.45 L560.45 12.2 558.6 11.55 558.5 11.45 M563.1 13.25 L561.4 13.05 562.2 13.1 563.1 13.25 M557.45 9.75 L555.7 10.15 Q553.75 8.5 557.65 9.5 L557.45 9.75 M551.9 8.6 L553.35 7.5 555.15 7.45 Q553.6 7.9 552.2 9.1 L551.9 8.6 M583.1 7.15 L586.8 7.15 584.3 7.75 583.1 7.15 M599.75 7.25 L601.1 7.25 599.8 7.5 599.75 7.25 M548.55 9.7 L548.6 9.85 548.5 9.75 548.55 9.7 M595.1 8.55 Q593.85 8.8 595.05 8.2 596.7 8.25 595.1 8.55 M531.45 14.3 L525.9 14.65 527.9 13.8 531.45 14.3 M504.4 14.05 L503.6 14.05 503.5 14.0 504.4 14.05 M492.3 13.05 L491.6 12.35 491.85 12.5 492.3 13.05 M496.0 9.8 L496.6 9.8 496.2 9.8 496.0 9.8 M505.9 10.75 L504.05 11.0 502.65 10.8 501.8 9.8 505.9 10.75 M511.1 61.35 L519.0 60.85 522.1 61.8 515.1 62.1 511.1 61.35 M547.2 61.25 Q547.95 60.85 548.6 60.75 L548.5 61.1 547.2 61.25 M517.8 65.4 L518.05 65.25 518.0 65.3 517.8 65.4 M510.75 62.5 L507.65 64.85 507.7 65.5 507.9 65.85 508.1 65.95 508.45 66.05 513.05 66.05 515.2 62.9 519.0 63.5 512.9 66.55 496.55 65.55 505.25 64.9 505.15 64.55 504.4 64.15 504.1 63.95 504.15 63.7 504.65 63.2 504.9 62.85 Q494.55 61.25 485.15 65.5 L483.9 64.95 485.35 61.35 510.75 62.5 M527.35 65.75 L525.2 65.3 Q524.5 64.95 524.75 64.55 525.0 64.15 526.0 63.95 L527.75 63.8 Q526.3 64.45 527.05 65.45 L527.35 65.75 M495.95 66.05 L494.8 66.1 493.7 65.5 494.95 65.5 Q495.45 65.8 495.95 66.05 M2.25 71.9 L6.3 66.9 9.3 67.2 8.45 69.45 10.65 67.1 14.0 66.8 14.1 66.8 12.9 67.65 13.05 69.05 11.75 70.15 Q8.8 70.0 4.5 71.05 3.4 71.2 2.45 71.85 L2.25 71.9 M484.7 67.5 L476.6 66.9 480.45 65.55 481.9 66.45 Q484.15 66.25 484.3 66.85 L484.7 67.5 M459.25 65.1 L459.0 65.1 459.25 65.0 459.25 65.1 M443.7 65.0 L435.55 64.95 437.55 64.0 445.05 63.75 443.7 65.0 M433.2 64.95 L432.2 64.95 433.55 64.1 433.2 64.95 M428.2 64.9 L422.95 64.85 425.05 63.65 427.65 64.05 428.2 64.9 M422.1 64.85 L415.45 64.5 418.4 62.3 423.25 62.5 422.1 64.85 M410.6 64.4 L402.1 64.25 403.55 63.2 404.15 61.05 406.45 61.05 Q409.0 61.55 408.2 63.5 L410.6 64.4 M392.45 64.15 L386.15 64.4 389.15 62.55 380.65 62.0 403.45 60.85 402.65 62.5 396.5 62.3 398.7 61.8 394.95 61.7 392.05 61.95 392.25 62.4 Q393.1 62.5 392.45 64.15 M368.95 67.25 L363.1 67.65 366.4 65.8 368.95 67.25 M359.85 67.65 L351.25 67.6 Q354.9 67.25 357.85 65.1 L358.25 62.6 377.4 62.75 369.4 64.0 Q364.85 61.5 360.15 63.8 L359.85 67.65 M348.15 67.6 L330.9 67.5 333.9 64.95 337.7 64.75 338.0 66.9 347.85 67.55 348.15 67.6 M328.9 67.45 L317.55 67.25 Q321.35 63.65 326.0 64.85 L326.7 65.05 326.95 66.9 328.9 67.45 M314.45 67.2 L309.05 67.15 312.55 64.35 313.45 64.25 Q313.9 64.05 312.55 64.05 L312.55 63.9 312.8 63.95 313.05 63.9 312.4 63.05 331.7 63.0 331.65 63.95 330.6 64.4 320.5 63.35 318.25 63.4 Q314.2 63.55 314.45 67.2 M305.35 67.15 L295.3 67.9 298.05 65.75 306.15 64.75 305.25 65.35 Q303.7 66.25 305.35 67.15 M279.6 68.65 L272.4 68.65 274.95 67.25 275.25 66.0 278.65 65.55 276.3 68.3 279.6 68.65 M270.2 68.65 L266.35 68.65 267.25 66.35 268.0 66.55 268.55 66.65 270.2 68.65 M267.45 65.8 L267.65 65.25 269.4 65.15 267.55 65.7 267.45 65.8 M286.4 64.25 L301.25 63.45 Q295.45 64.15 290.0 66.3 L289.4 66.8 283.6 66.05 290.8 64.3 286.4 64.25 M342.65 63.0 L349.4 62.8 346.85 63.95 346.45 65.8 344.3 66.1 342.4 65.3 342.65 63.0 M411.7 60.4 L417.55 60.05 415.35 62.1 Q413.95 60.6 411.7 60.4 M419.15 60.05 L435.05 60.05 434.4 61.1 428.95 60.3 426.95 61.7 Q426.15 62.3 426.3 60.75 L419.15 60.05 M449.45 60.3 L456.1 60.65 451.05 60.95 450.7 60.95 449.85 60.75 449.45 60.3 M475.3 60.95 L484.05 61.3 478.9 63.8 475.7 62.8 474.2 63.35 473.25 66.35 471.25 66.1 472.8 65.75 Q473.55 65.25 473.7 64.45 473.8 63.65 473.3 63.0 472.75 62.35 471.8 62.25 L476.65 62.25 475.3 60.95 M489.4 60.4 L474.7 59.7 477.45 58.75 473.45 58.15 474.7 57.55 489.4 60.4 M400.45 59.45 L399.0 59.45 Q400.2 58.35 400.4 59.05 L400.45 59.45 M320.75 62.5 L293.8 61.55 306.75 59.25 307.15 60.8 Q312.15 62.9 315.9 60.1 L315.9 60.0 Q310.3 59.65 308.4 56.55 L314.65 55.35 316.0 57.55 312.9 58.1 317.1 59.05 320.75 62.5 M290.7 61.75 L283.8 61.95 286.3 61.2 290.7 61.75 M275.65 62.35 L272.35 62.8 276.75 60.15 276.9 57.9 276.8 57.75 Q277.35 57.8 277.65 57.35 279.2 55.2 282.3 56.8 L275.65 62.35 M273.55 56.45 L269.3 55.8 269.2 55.35 273.55 56.45 M262.6 55.35 L260.0 55.5 259.65 55.3 262.6 55.35 M250.05 56.5 L244.75 56.5 248.4 55.9 250.05 56.5 M138.6 61.2 L136.35 63.6 133.7 63.1 138.6 61.2 M79.1 63.4 L78.55 63.3 78.7 63.3 79.1 63.4 M75.15 62.45 L65.75 62.15 66.7 61.6 66.1 60.75 Q67.8 61.6 70.15 61.9 L75.15 62.45 M35.9 61.25 L20.35 63.85 20.75 63.65 28.5 60.05 Q29.4 59.55 30.55 59.5 L35.9 61.25 M565.45 65.35 L564.25 65.6 Q563.7 65.85 563.7 66.2 563.7 66.55 564.25 66.8 L565.45 67.05 566.7 66.8 567.2 66.2 566.7 65.6 565.45 65.35 M535.75 58.1 L530.65 57.55 533.4 56.25 535.75 58.1 M477.3 11.1 L487.65 11.55 480.4 11.55 479.95 12.75 477.3 11.1 M431.45 18.1 Q431.4 18.55 431.7 18.8 443.45 17.85 454.15 13.25 L432.3 16.2 Q428.5 14.8 425.3 17.0 L425.15 17.25 431.45 18.1 M426.3 12.7 Q423.85 11.9 424.3 13.25 L424.6 13.65 423.95 14.9 422.2 14.0 419.65 11.35 431.6 10.5 426.3 12.7 M405.3 28.05 L404.15 29.05 Q411.65 29.5 417.95 25.0 419.3 24.05 418.8 22.4 411.45 23.7 405.3 28.05 M436.9 50.2 Q427.4 51.1 417.85 53.45 L414.0 54.3 406.55 51.0 405.95 52.85 408.0 54.9 404.4 57.1 Q404.3 58.2 405.45 58.3 L409.95 58.3 410.9 58.0 412.0 57.65 Q413.45 58.3 415.2 58.3 L415.85 58.3 416.3 58.1 416.9 57.75 417.3 57.15 437.15 51.05 Q437.3 50.65 436.9 50.2 M435.4 61.9 L436.45 62.05 434.7 62.95 435.4 61.9 M447.4 61.9 L448.0 62.7 447.65 63.2 446.4 63.0 447.4 61.9 M466.1 63.9 L469.2 64.05 468.7 64.35 468.7 64.45 466.1 63.9 M468.65 65.15 L468.7 65.95 467.7 65.9 468.65 65.15 M391.65 17.55 Q386.25 14.4 380.6 12.5 379.95 12.35 379.2 12.5 L378.95 16.5 Q383.95 19.35 389.4 19.0 390.8 18.8 391.65 17.55 M359.25 4.25 L356.2 4.35 354.65 4.25 359.25 4.25 M353.2 16.75 L351.9 17.75 351.85 17.35 351.65 16.75 353.2 16.75 M363.0 15.05 L360.0 14.7 363.9 14.35 363.0 15.05 M330.1 50.9 L327.95 50.55 325.85 50.9 Q324.95 51.2 324.95 51.65 324.95 52.1 325.85 52.45 L327.95 52.75 330.1 52.45 Q330.95 52.1 330.95 51.65 330.95 51.2 330.1 50.9 M389.2 52.8 Q381.7 50.7 373.8 52.65 373.65 52.6 373.55 52.8 L373.95 53.15 Q379.75 53.1 385.55 54.3 387.95 54.95 389.2 52.8 M307.05 15.5 L303.45 14.3 305.0 14.3 307.05 15.5 M255.6 5.15 L258.7 5.35 257.15 5.5 255.6 5.15 M288.1 59.25 L288.15 59.2 291.9 56.8 296.75 57.15 288.1 59.25 M222.4 15.0 L221.45 15.8 214.5 16.2 217.1 15.05 222.4 15.0 M187.55 68.8 L189.25 68.45 Q192.85 67.4 192.4 65.65 L180.7 66.1 192.1 63.5 195.4 63.55 195.2 68.25 196.8 68.75 187.55 68.8 M183.55 63.55 L167.65 65.4 167.45 68.15 179.65 66.35 179.6 66.75 180.05 67.25 Q182.15 68.5 184.5 68.8 L146.0 68.85 Q146.15 67.45 144.95 66.65 L146.5 67.0 150.45 67.7 Q156.25 68.85 159.9 64.65 L159.15 64.3 162.7 64.3 161.15 64.55 159.0 67.7 162.9 68.6 165.8 64.3 183.55 63.55 M200.3 64.35 L202.6 64.6 198.4 67.3 200.15 65.6 200.3 64.35 M203.9 64.75 L207.2 64.8 205.65 66.95 203.8 67.25 204.15 65.75 203.9 64.75 M209.1 64.8 L210.55 64.8 209.2 68.75 205.95 68.75 209.1 64.8 M216.95 64.65 L219.05 64.45 219.05 64.5 218.75 64.8 Q218.55 64.8 218.4 65.15 218.25 65.45 218.25 65.9 L211.4 67.25 216.95 64.65 M219.25 63.9 L219.25 63.85 219.3 63.9 219.25 63.9 M227.2 68.7 L226.8 68.7 226.95 68.55 227.2 68.7 M202.95 68.75 L199.9 68.75 201.9 67.5 202.95 68.75 M196.45 63.8 L199.25 64.25 196.6 66.3 196.45 63.8 M217.85 62.2 L217.25 61.4 217.65 61.2 217.85 62.2 M152.2 13.65 L156.8 12.55 154.3 13.9 152.2 13.65 M121.2 12.3 L119.35 13.55 113.5 13.45 121.2 12.3 M96.4 11.5 L96.4 11.85 96.25 11.6 96.4 11.5 M107.95 67.6 L107.8 67.85 106.85 68.85 106.45 68.8 107.95 67.6 M114.85 54.7 Q114.2 54.7 113.75 55.2 113.3 55.65 113.3 56.3 113.3 56.95 113.75 57.45 114.2 57.9 114.85 57.9 115.5 57.9 115.95 57.45 116.4 56.95 116.4 56.3 116.4 55.65 115.95 55.2 115.5 54.7 114.85 54.7 M104.5 68.65 L106.15 66.1 Q106.8 65.65 108.05 65.35 108.6 65.2 108.1 64.75 L107.5 64.25 109.65 64.5 104.5 68.65 M104.25 64.25 L104.8 65.9 103.65 66.5 100.7 65.55 99.7 64.5 104.25 64.25 M80.25 64.7 L76.55 64.85 75.35 65.8 84.95 66.8 85.0 67.95 65.55 67.45 66.8 65.8 64.8 64.05 61.55 64.0 59.8 66.25 60.0 67.35 56.7 67.35 57.65 66.3 57.1 63.65 80.25 64.7 M93.25 68.15 L93.25 67.75 93.25 67.4 Q97.1 66.85 96.8 68.25 L93.25 68.15 M156.05 64.3 Q152.8 67.4 148.75 66.65 L148.6 66.6 148.2 65.1 145.65 64.5 Q149.65 64.9 153.5 64.5 L152.6 64.25 156.05 64.3 M144.0 64.25 Q143.25 65.55 144.25 66.3 143.25 65.9 141.7 65.75 L141.2 66.1 140.9 68.4 142.6 68.85 139.7 68.85 139.5 68.85 139.75 66.55 139.95 65.9 140.5 64.25 144.0 64.25 M135.25 66.45 L133.3 68.85 135.8 65.5 135.25 66.45 M128.85 68.65 L133.95 65.2 131.85 66.0 130.9 65.35 129.05 65.75 128.7 68.65 126.95 68.85 128.0 66.85 128.1 65.15 135.3 64.75 132.65 68.15 128.85 68.65 M121.8 68.2 L122.05 67.2 121.95 69.25 121.8 68.2 M21.9 69.25 L21.5 69.25 21.2 69.45 17.85 70.1 17.2 66.4 20.5 65.95 18.35 68.15 29.55 66.0 31.15 64.8 26.4 64.25 33.95 63.3 Q33.5 63.4 33.15 63.6 31.8 64.15 31.8 65.0 31.8 65.85 33.15 66.45 34.45 67.0 36.3 67.0 L39.5 66.45 Q40.8 65.85 40.8 65.0 40.8 64.15 39.5 63.6 38.55 63.15 37.4 63.05 44.75 62.7 52.15 63.45 L52.65 63.45 49.65 67.25 26.85 67.75 23.7 68.65 21.9 69.25 M67.55 65.05 Q67.65 65.8 67.95 65.95 70.35 66.5 72.9 66.0 L73.3 65.95 69.85 64.9 67.55 65.05 M50.8 56.35 L61.9 51.5 56.05 54.65 50.8 56.35 M47.7 63.85 L45.25 63.4 42.8 63.85 Q41.8 64.3 41.8 64.95 41.8 65.6 42.8 66.05 L45.25 66.5 47.7 66.05 Q48.7 65.6 48.7 64.95 48.7 64.3 47.7 63.85" fill="#60859f" fill-rule="evenodd" stroke="none"/>
      <path d="M619.45 4.25 L563.5 4.95 553.45 6.15 550.8 6.75 552.25 6.85 551.05 8.1 549.9 9.75 554.0 10.8 554.4 11.15 553.4 11.7 550.8 13.0 545.75 12.4 544.9 12.05 541.15 9.8 522.9 10.5 522.25 10.35 Q521.7 8.35 520.5 8.95 L520.1 9.2 517.65 8.05 522.9 4.8 522.6 2.35 491.95 2.3 491.95 0.05 521.7 0.55 523.15 1.9 525.15 1.3 525.35 1.7 Q526.15 5.5 522.7 7.95 L527.7 7.7 527.7 6.25 Q538.2 4.25 546.65 10.7 L547.35 10.6 Q549.4 11.25 548.6 9.85 L548.55 9.7 Q548.25 7.6 550.15 6.75 563.6 0.9 578.9 1.65 L584.75 1.45 Q588.25 0.55 590.35 2.3 L611.2 1.9 611.95 3.25 619.45 4.25 M378.4 4.2 Q374.5 4.55 370.85 4.3 L318.9 5.95 Q299.2 6.15 279.55 6.75 L255.7 5.55 285.8 4.2 356.2 4.35 359.25 4.25 359.5 4.2 378.4 4.2 M245.2 5.0 L230.15 4.2 239.6 4.2 245.2 5.0 M218.0 3.1 L90.35 3.85 76.35 3.1 66.8 2.8 Q66.85 0.1 70.6 0.45 L110.5 1.95 148.45 3.25 155.9 2.9 170.95 2.15 178.0 2.65 180.6 2.35 Q199.15 1.2 218.0 2.4 L218.0 3.1 M80.9 4.0 L81.05 4.1 80.9 4.2 80.9 4.0 M516.5 7.7 L516.3 8.45 516.05 8.55 516.45 7.7 516.5 7.7 M576.45 11.05 L574.7 10.75 574.9 10.9 Q576.65 11.95 573.3 12.35 573.35 11.65 573.0 11.45 571.65 10.5 569.65 10.55 L574.05 10.3 571.95 9.8 575.45 9.75 Q576.65 9.75 576.45 11.05 M572.85 12.5 L568.15 13.45 562.2 13.1 561.4 13.05 Q561.4 12.0 562.5 11.3 563.55 10.55 565.1 10.55 L564.85 12.3 572.85 12.5 M529.2 66.8 L539.95 67.25 Q534.8 67.9 529.85 67.0 529.5 67.05 529.2 66.8 M496.6 9.8 L498.9 9.8 500.4 10.95 493.9 11.6 497.7 12.8 496.05 13.25 492.3 13.05 491.85 12.5 491.75 12.15 493.95 10.05 496.2 9.8 496.6 9.8 M503.9 12.1 L508.4 13.55 504.4 14.05 503.5 14.0 501.25 12.95 503.9 12.1 M495.95 66.05 L502.4 67.65 514.4 67.75 515.4 67.05 Q515.9 68.45 514.55 68.5 L492.15 68.55 Q483.55 72.5 473.9 70.05 464.1 67.55 454.0 67.6 L446.2 68.3 Q425.1 67.2 404.05 67.15 L396.75 67.75 Q363.95 72.55 331.05 71.05 322.5 70.9 314.1 71.05 L313.95 71.65 313.05 71.95 299.8 72.15 Q297.55 72.4 295.55 71.05 L285.85 72.5 261.6 71.65 Q259.15 71.15 257.75 69.45 L263.65 65.65 264.35 64.75 264.25 68.4 264.5 70.9 305.65 69.6 309.7 69.55 Q329.5 69.05 349.2 69.9 367.95 70.8 386.5 68.55 403.1 66.6 419.9 66.75 L422.8 66.8 457.8 67.35 486.25 69.8 486.15 68.3 488.75 68.15 487.95 67.8 494.8 66.1 495.95 66.05 M518.05 65.25 L524.25 62.95 525.9 61.8 523.5 66.1 527.4 66.8 528.8 68.0 540.6 68.45 Q542.05 68.5 543.5 67.85 L544.8 67.4 552.3 72.6 554.6 73.1 555.35 71.9 565.95 69.9 Q566.05 70.65 565.35 71.15 557.45 76.2 549.7 72.45 547.35 71.25 544.9 71.3 531.35 70.5 517.85 67.35 L518.0 65.3 518.05 65.25 M265.55 63.1 L267.3 60.75 272.55 59.3 227.85 59.55 227.25 60.5 224.15 62.5 224.8 64.55 Q228.05 65.35 229.85 68.3 231.1 70.3 229.05 69.85 228.25 66.3 224.1 66.0 L220.0 65.75 223.0 65.05 220.65 63.6 220.6 63.35 219.85 63.2 217.85 62.2 217.65 61.2 224.55 57.4 265.95 56.65 275.85 58.55 Q275.1 61.4 271.0 61.8 268.15 62.2 265.55 63.1 M227.05 71.0 Q223.15 73.75 218.35 73.85 L208.8 73.55 Q205.65 73.65 205.25 71.9 L205.5 71.35 201.7 71.8 Q189.95 71.75 178.2 73.25 170.2 73.85 163.0 71.0 L227.05 71.0 M158.4 71.0 L158.0 71.3 Q149.0 72.9 139.5 71.25 134.9 70.2 130.6 71.75 127.45 72.9 126.3 70.8 L132.65 70.85 133.65 69.7 133.8 69.4 133.3 68.85 135.25 66.45 135.95 65.3 140.15 60.85 140.35 60.95 139.95 65.9 139.75 66.55 139.5 68.85 139.7 68.85 139.5 71.25 158.4 71.0 M126.05 69.5 L123.8 68.25 125.25 64.9 120.85 64.15 Q120.75 61.95 118.05 65.3 L113.8 65.0 107.8 71.05 Q94.25 73.3 80.35 71.05 L21.9 72.6 Q13.25 75.8 3.55 74.8 0.85 74.5 2.35 72.9 L15.05 73.75 Q21.45 70.7 28.85 70.95 54.4 69.5 80.0 69.9 L86.3 69.9 88.0 69.95 105.6 70.5 106.0 69.6 107.4 68.95 107.5 68.85 107.4 68.85 107.8 67.85 107.95 67.6 112.35 64.25 113.1 62.25 113.55 61.95 113.75 64.05 117.25 64.05 134.75 43.2 135.65 42.85 128.5 54.5 Q125.45 59.3 126.25 64.0 L126.65 64.45 125.55 67.75 125.45 67.8 126.05 69.5 M260.0 55.5 L259.65 55.55 259.65 55.3 260.0 55.5 M122.35 56.75 L120.55 59.1 121.15 58.25 121.85 57.35 122.35 56.75 M219.15 64.45 L219.6 64.3 220.0 64.25 218.75 64.8 219.05 64.5 219.15 64.45 M227.15 68.35 L227.25 68.7 227.2 68.7 226.95 68.55 227.15 68.35" fill="#7d744f" fill-rule="evenodd" stroke="none"/>
      <path d="M617.65 10.15 L614.35 9.95 616.15 9.45 617.65 10.15 M580.55 11.5 L584.45 11.3 588.1 11.4 597.9 12.05 Q599.45 12.15 598.7 13.2 L593.2 13.75 593.25 14.35 593.4 14.55 594.85 14.75 593.25 16.05 589.0 17.5 590.25 17.75 590.5 17.8 Q586.2 21.35 581.35 20.35 L581.85 18.3 Q587.65 18.0 591.6 14.15 L591.6 14.0 Q586.65 12.35 581.0 13.35 576.25 14.1 574.25 17.75 L574.5 18.05 574.95 18.25 560.95 19.0 Q560.9 18.8 561.0 18.65 563.7 14.55 569.15 14.7 L569.65 14.65 572.45 15.1 580.55 11.5 M612.05 11.35 L618.3 11.55 621.65 12.95 Q615.25 20.1 606.5 18.95 L606.15 18.3 Q604.05 19.2 601.65 19.0 L600.2 18.3 596.5 18.9 598.55 14.8 605.25 15.05 600.5 13.4 601.8 12.7 Q606.15 10.4 610.7 12.25 L612.05 11.35 M554.4 11.15 L554.3 11.35 553.4 11.7 554.4 11.15 M243.9 9.2 L239.65 9.1 240.2 8.95 242.2 8.9 243.9 9.2 M58.9 9.05 L80.35 9.4 98.25 10.7 97.65 11.05 96.55 11.2 Q96.4 11.25 96.4 11.5 L96.25 11.6 96.4 11.85 96.7 12.35 Q96.95 12.55 97.3 12.55 L101.55 17.25 Q100.75 17.9 99.85 17.65 95.1 15.95 91.55 12.25 L89.1 12.95 89.5 15.4 83.0 13.35 80.05 15.55 84.3 17.7 Q75.3 20.3 67.65 15.3 L63.05 14.05 63.6 13.0 78.25 12.55 64.15 10.05 65.95 12.1 64.9 12.25 Q63.15 11.45 61.8 12.5 58.45 14.85 55.7 15.3 L55.5 13.05 58.9 9.05 M116.25 10.2 L119.8 9.95 119.6 10.75 115.65 10.55 116.25 10.2 M125.85 10.0 Q127.15 9.7 128.55 10.0 129.65 10.2 130.8 10.8 L122.85 13.55 119.35 13.55 121.2 12.3 122.05 12.05 122.15 11.65 124.15 10.5 125.85 10.0 M139.95 10.05 L158.3 11.05 158.5 11.35 161.2 11.2 162.65 11.3 162.95 12.95 153.9 18.75 149.75 18.15 153.15 14.65 Q155.25 15.1 154.7 14.2 L154.3 13.9 156.8 12.55 152.2 13.65 148.4 14.2 138.55 13.75 137.55 12.8 134.2 13.7 126.3 13.55 139.95 10.05 M167.1 11.45 L173.85 11.35 191.85 11.55 189.6 10.65 220.2 10.45 221.15 11.5 218.75 12.2 Q214.85 13.55 217.1 15.05 L214.5 16.2 Q210.5 16.3 206.7 17.15 L206.8 17.7 207.3 18.15 Q202.25 19.25 200.1 14.95 L176.3 14.55 177.65 16.4 Q177.25 17.5 176.2 17.7 172.25 18.05 168.35 16.7 165.25 15.7 164.8 13.2 L167.1 11.45 M222.3 10.45 L232.05 10.65 224.95 10.7 221.3 11.5 222.3 10.45 M236.7 10.7 L246.4 10.2 247.3 11.05 255.05 11.75 256.15 13.05 246.25 13.1 245.3 12.3 239.05 12.35 237.9 12.25 236.7 10.7 M261.7 10.75 L336.5 12.95 336.7 13.0 Q334.8 16.95 329.1 16.85 L314.7 15.75 Q311.9 15.3 310.85 17.2 L307.15 18.05 306.7 21.7 Q302.6 20.15 299.2 16.75 298.65 16.2 298.0 16.35 291.1 16.95 284.8 19.7 L281.35 18.9 291.9 13.95 279.3 14.15 278.8 16.55 269.05 18.0 269.4 18.15 269.6 18.25 269.75 18.3 269.5 18.3 259.7 17.85 259.65 17.25 259.85 16.75 260.65 16.65 259.2 15.2 Q254.15 17.7 248.55 17.8 247.55 17.8 247.65 16.75 L260.55 12.0 261.7 10.75 M351.0 11.65 L364.95 11.5 366.15 12.9 369.1 12.5 Q368.8 15.3 366.35 17.2 363.1 19.65 359.7 21.8 L357.95 21.55 361.05 16.75 357.45 16.75 351.65 19.9 351.55 19.65 Q349.1 20.5 344.95 21.15 339.75 21.9 335.25 21.05 L340.1 15.75 337.85 15.7 339.7 14.15 340.4 14.1 341.05 14.25 341.65 15.1 341.95 16.05 351.0 11.65 M376.35 11.9 L378.0 11.95 Q378.25 12.55 377.85 13.3 376.85 15.25 375.15 16.8 371.1 20.45 366.7 21.05 L366.55 21.0 Q369.35 15.0 376.35 11.9 M387.65 11.25 L395.05 9.9 399.5 9.7 Q408.6 10.25 417.55 9.6 L453.1 8.25 467.15 8.95 Q479.6 8.75 492.25 9.35 L490.5 12.95 490.4 13.1 488.25 13.25 489.15 13.7 Q499.0 17.8 509.8 16.5 L512.25 19.4 511.45 19.55 496.05 18.15 492.5 18.4 Q488.4 18.45 487.15 15.1 L486.25 15.25 487.35 18.85 Q479.1 19.85 474.4 13.75 L477.15 11.1 468.8 10.75 470.15 13.75 Q471.25 11.8 472.6 13.25 472.75 14.4 471.85 15.4 468.05 19.7 463.45 17.25 L464.65 10.65 461.55 11.25 461.95 14.85 457.45 18.3 456.4 10.55 441.1 10.6 440.2 11.3 424.2 15.55 424.25 15.35 423.95 14.9 424.6 13.65 427.2 13.75 427.45 13.5 426.3 12.7 431.6 10.5 419.65 11.35 422.2 14.0 417.55 12.95 Q417.15 12.25 416.8 12.85 402.7 12.8 388.6 12.05 387.5 12.35 387.65 11.25 M520.55 11.4 L523.05 11.65 523.55 11.7 537.55 13.45 536.3 13.85 535.8 17.6 Q535.5 18.5 534.3 18.95 531.35 19.85 529.1 18.2 L529.05 17.85 525.95 16.75 Q525.35 16.5 525.05 15.8 L520.45 18.75 519.45 14.75 513.95 12.05 Q513.95 11.5 514.1 11.05 L514.4 11.0 520.55 11.4 M538.1 10.85 L540.85 10.8 542.2 11.65 542.45 11.8 537.75 11.05 538.1 10.85 M549.8 14.25 L553.15 13.2 549.55 14.4 549.8 14.25 M555.3 12.35 L558.5 11.45 558.6 11.55 555.3 12.35 M469.9 58.05 L462.2 49.75 Q468.95 48.5 474.45 52.0 481.75 50.6 489.45 49.75 L502.4 48.95 Q505.45 48.9 506.15 51.25 L479.95 53.4 488.45 54.5 483.3 54.8 492.35 56.2 492.45 56.75 492.45 56.95 493.15 57.25 501.8 56.55 Q511.0 52.1 521.15 50.5 521.5 50.4 521.45 51.25 L503.85 57.85 504.9 58.75 509.95 58.75 Q512.05 57.4 514.3 56.6 L524.9 52.35 Q528.5 50.95 530.4 52.3 L516.7 57.75 519.35 57.6 520.1 58.5 526.2 55.95 532.9 55.3 532.65 51.05 545.25 59.7 557.0 52.5 557.45 53.25 Q558.0 54.75 556.95 56.05 556.0 57.25 554.6 57.7 L557.55 58.5 566.1 57.0 566.05 57.55 Q565.75 59.1 564.0 59.55 L560.95 60.0 563.65 61.0 565.65 60.8 Q568.45 58.1 571.8 55.8 573.9 54.35 575.95 55.5 L575.95 55.75 Q574.7 62.35 567.7 64.05 L552.3 64.2 Q554.65 64.1 555.55 62.1 L555.7 61.35 548.5 61.1 548.6 60.75 Q547.95 60.85 547.2 61.25 543.95 61.65 541.7 62.85 541.35 63.05 541.5 63.7 L541.5 63.75 528.0 61.8 526.65 60.8 523.9 60.75 522.1 61.8 519.0 60.85 511.1 61.35 489.4 60.4 474.7 57.55 473.45 58.15 469.9 58.05 M560.1 15.1 Q560.4 16.65 559.05 17.7 554.55 21.25 550.55 21.6 L549.9 18.0 544.1 17.75 543.25 16.55 542.55 16.25 Q539.15 16.55 539.25 13.95 549.2 18.15 558.45 13.35 L558.8 13.2 560.1 15.1 M538.6 13.75 L538.25 13.85 Q537.95 14.25 537.9 13.55 L538.6 13.75 M531.45 14.3 L527.9 13.8 525.9 14.65 531.45 14.3 M503.6 14.05 L496.05 13.25 497.7 12.8 501.25 12.95 503.5 14.0 503.6 14.05 M457.5 60.7 L457.6 60.7 457.55 60.8 457.5 60.7 M464.9 59.6 L453.55 59.15 Q457.2 58.9 460.5 57.0 L460.9 56.55 454.45 55.3 448.75 55.65 448.4 58.6 450.5 59.0 443.7 58.75 Q445.55 57.85 444.45 57.15 L444.2 57.05 434.25 57.4 Q434.15 57.4 434.2 57.75 434.25 58.45 434.9 58.7 L424.6 58.6 423.4 57.8 Q428.9 52.0 437.4 54.7 L440.45 55.85 456.75 50.7 457.8 53.8 466.35 58.0 Q465.75 58.0 465.35 58.5 464.9 58.95 464.9 59.6 M403.65 59.4 L400.45 59.45 400.4 59.05 Q400.2 58.35 399.0 59.45 L396.5 59.5 396.7 56.55 404.5 50.35 403.65 59.4 M380.55 60.2 L380.45 60.35 364.4 60.95 354.95 61.3 353.7 59.4 349.6 59.6 348.2 60.75 Q344.2 56.8 344.65 51.05 344.7 50.5 345.45 50.55 347.55 52.1 347.9 49.7 L352.15 54.5 349.75 54.7 350.05 57.25 353.5 56.95 Q357.25 51.65 362.75 50.55 L363.25 52.0 Q363.45 52.85 363.1 53.45 362.15 55.3 360.7 56.75 L393.45 55.85 393.95 56.75 Q393.6 57.3 393.15 57.35 387.65 59.0 381.4 58.7 L380.55 60.2 M326.6 62.25 L320.75 62.5 317.1 59.05 319.1 58.55 316.0 57.55 314.65 55.35 315.25 55.1 Q314.8 54.2 313.7 53.7 L312.45 50.85 318.9 53.7 Q316.85 55.45 320.95 55.5 L321.35 55.25 Q323.65 56.6 325.95 57.9 L339.4 51.65 339.3 51.95 339.2 52.4 339.2 53.0 339.35 53.5 339.9 53.6 337.35 56.3 343.4 59.3 333.05 59.85 326.6 62.25 M293.8 61.55 L290.7 61.75 286.3 61.2 283.8 61.95 275.65 62.35 282.3 56.8 Q279.2 55.2 277.65 57.35 277.35 57.8 276.8 57.75 L273.55 56.45 269.2 55.35 263.85 54.05 265.8 51.25 267.4 52.75 280.05 51.75 280.9 53.95 Q278.25 54.65 280.75 55.55 282.95 56.3 285.4 55.6 L286.35 55.6 284.9 54.55 292.05 54.65 Q291.45 55.7 292.2 56.0 L308.4 56.55 Q310.3 59.65 315.9 60.0 L315.9 60.1 Q312.15 62.9 307.15 60.8 L306.75 59.25 293.8 61.55 M209.75 63.35 L205.0 63.45 188.65 60.0 187.55 59.0 180.35 61.7 179.5 59.05 184.05 54.55 185.8 55.75 191.2 53.35 193.5 53.2 195.15 53.3 191.65 57.3 202.6 56.95 203.5 50.95 Q205.55 51.95 206.6 54.05 208.25 57.4 208.8 60.0 L208.55 56.3 209.55 56.05 213.95 57.95 214.9 62.05 209.75 63.35 M157.05 62.95 L148.6 63.0 145.55 62.35 Q150.95 56.7 159.9 54.1 L160.0 54.05 160.45 54.1 Q163.25 55.5 164.85 54.4 165.6 53.8 164.95 53.25 L173.05 51.9 159.9 58.95 166.95 58.1 170.75 58.65 175.25 59.25 173.05 60.0 176.2 60.35 178.65 61.55 157.05 62.95 M141.3 58.9 L138.6 61.2 133.7 63.1 129.55 62.75 131.55 58.6 Q135.0 57.55 139.15 57.2 141.7 56.65 141.3 58.9 M99.85 62.8 L88.85 63.35 Q87.25 63.35 87.45 61.65 L87.6 61.2 90.8 60.3 91.85 58.25 100.8 59.7 99.85 62.8 M85.25 63.45 L79.1 63.4 78.7 63.3 75.15 62.45 70.15 61.9 Q67.8 61.6 66.1 60.75 L66.7 61.6 65.75 62.15 35.9 61.25 30.55 59.5 Q29.4 59.55 28.5 60.05 L20.75 63.65 20.35 63.85 Q18.25 64.65 16.4 64.5 15.1 64.35 13.95 63.75 13.75 62.4 15.05 61.45 18.45 59.05 22.1 56.85 28.45 52.9 34.15 55.8 L31.05 58.3 32.0 58.35 35.65 56.1 41.5 58.55 Q53.35 51.3 66.05 48.65 66.45 51.15 64.05 52.4 L54.6 56.75 56.6 58.85 Q58.6 57.35 61.55 58.3 L63.95 59.2 Q62.55 57.8 61.9 55.8 62.7 55.25 63.85 55.6 68.7 55.85 73.1 57.75 75.4 58.7 76.85 56.65 80.15 52.05 84.7 51.0 L82.55 55.5 84.0 56.8 84.55 58.5 87.05 59.85 86.0 60.85 85.25 63.45 M535.75 58.1 L533.4 56.25 530.65 57.55 535.75 58.1 M477.3 11.1 L479.95 12.75 480.4 11.55 487.65 11.55 477.3 11.1 M431.45 18.1 L432.05 17.55 432.3 16.2 454.15 13.25 Q443.45 17.85 431.7 18.8 431.4 18.55 431.45 18.1 M423.75 15.9 L424.45 18.5 420.7 17.4 423.75 15.9 M397.05 17.25 L392.2 16.9 Q390.5 16.8 390.0 15.2 L390.05 13.0 402.1 13.4 397.05 17.25 M436.9 50.2 Q437.3 50.65 437.15 51.05 L417.3 57.15 416.9 57.75 416.3 58.1 415.85 58.3 415.2 58.3 Q413.45 58.3 412.0 57.65 L410.9 58.0 409.95 58.3 405.45 58.3 Q404.3 58.2 404.4 57.1 L408.0 54.9 405.95 52.85 406.55 51.0 414.0 54.3 417.85 53.45 Q427.4 51.1 436.9 50.2 M405.3 28.05 Q411.45 23.7 418.8 22.4 419.3 24.05 417.95 25.0 411.65 29.5 404.15 29.05 L405.3 28.05 M391.65 17.55 Q390.8 18.8 389.4 19.0 383.95 19.35 378.95 16.5 L379.2 12.5 Q379.95 12.35 380.6 12.5 386.25 14.4 391.65 17.55 M363.0 15.05 L363.9 14.35 360.0 14.7 363.0 15.05 M353.2 16.75 L351.65 16.75 351.85 17.35 351.9 17.75 353.2 16.75 M330.1 50.9 Q330.95 51.2 330.95 51.65 330.95 52.1 330.1 52.45 L327.95 52.75 325.85 52.45 Q324.95 52.1 324.95 51.65 324.95 51.2 325.85 50.9 L327.95 50.55 330.1 50.9 M389.2 52.8 Q387.95 54.95 385.55 54.3 379.75 53.1 373.95 53.15 L373.55 52.8 Q373.65 52.6 373.8 52.65 381.7 50.7 389.2 52.8 M307.05 15.5 L305.0 14.3 303.45 14.3 307.05 15.5 M237.05 14.45 L244.3 16.7 244.45 17.0 234.7 17.55 238.8 16.3 233.55 16.3 233.8 17.7 Q230.25 20.8 226.35 19.15 L225.45 17.65 228.9 16.65 221.45 15.8 222.4 15.0 237.05 14.45 M288.15 59.2 L288.0 57.4 280.8 58.5 288.1 59.25 296.75 57.15 291.9 56.8 288.15 59.2 M128.7 16.35 L125.35 17.05 125.3 14.9 Q126.8 15.3 128.2 15.95 L128.7 16.35 M120.25 14.95 L111.2 20.35 116.6 15.0 120.25 14.95 M107.75 55.25 Q109.9 53.5 111.85 54.8 L112.05 55.1 107.75 55.25 M112.15 55.9 Q112.25 57.4 111.65 58.8 109.35 64.2 104.55 61.25 L105.35 57.3 112.15 55.9 M121.15 58.25 L115.6 61.5 Q115.25 56.2 119.55 53.25 L120.15 56.0 120.75 55.9 Q122.55 55.7 121.85 57.35 L121.15 58.25 M95.45 55.4 Q99.2 52.6 101.55 54.35 L101.45 55.4 95.45 55.4 M50.8 56.35 L56.05 54.65 61.9 51.5 50.8 56.35" fill="#667aa8" fill-rule="evenodd" stroke="none"/>
      <path d="M232.05 10.65 L236.7 10.7 237.9 12.25 239.05 12.35 241.8 13.9 237.05 14.45 222.4 15.0 217.1 15.05 Q214.85 13.55 218.75 12.2 L221.15 11.5 221.2 11.55 221.3 11.5 224.95 10.7 232.05 10.65 M490.6 13.15 L494.95 14.2 501.3 14.9 509.15 15.05 510.0 15.3 Q511.55 16.45 509.8 16.5 499.0 17.8 489.15 13.7 L488.25 13.25 490.4 13.1 490.6 13.15 M523.6 11.7 L536.9 10.9 537.75 11.05 542.45 11.8 542.55 11.8 543.85 12.45 543.8 12.5 543.6 12.6 543.7 12.65 545.0 13.0 548.75 14.15 549.55 14.4 553.15 13.2 554.25 12.85 555.3 12.35 558.6 11.55 560.45 12.2 560.45 13.7 562.8 14.3 563.2 14.4 Q562.2 16.35 560.1 15.1 L558.8 13.2 558.45 13.35 Q549.2 18.15 539.25 13.95 L538.6 13.75 537.9 13.55 537.55 13.45 523.55 11.7 523.6 11.7 M600.5 13.4 L605.25 15.05 598.55 14.8 594.85 14.75 593.4 14.55 593.25 14.35 593.2 13.75 598.7 13.2 600.5 13.4 M593.25 16.05 Q595.65 16.75 595.3 17.1 594.95 17.45 593.75 17.65 L591.15 17.8 590.25 17.75 589.0 17.5 593.25 16.05 M581.85 18.3 L574.95 18.25 574.5 18.05 574.25 17.75 Q576.25 14.1 581.0 13.35 586.65 12.35 591.6 14.0 L591.6 14.15 Q587.65 18.0 581.85 18.3 M541.5 63.75 L541.5 63.7 Q541.35 63.05 541.7 62.85 543.95 61.65 547.2 61.25 L548.5 61.1 555.7 61.35 555.55 62.1 Q554.65 64.1 552.3 64.2 L544.15 64.1 541.6 63.8 541.5 63.75 M470.5 66.3 L468.7 66.1 468.7 65.95 468.65 65.15 468.7 64.45 468.7 64.35 469.2 64.05 466.1 63.9 460.7 64.25 459.25 65.0 459.0 65.1 443.7 65.0 445.05 63.75 446.4 63.0 447.65 63.2 448.0 62.7 447.4 61.9 445.75 61.5 441.25 61.2 437.55 64.0 435.55 64.95 433.2 64.95 433.55 64.1 434.7 62.95 436.45 62.05 435.4 61.9 434.7 61.7 Q434.4 61.45 434.4 61.1 L435.05 60.05 447.45 60.05 449.45 60.3 449.85 60.75 450.7 60.95 451.05 60.95 Q452.25 60.95 451.75 62.5 L451.7 62.75 454.7 63.1 455.15 62.1 471.8 62.25 Q472.75 62.35 473.3 63.0 473.8 63.65 473.7 64.45 473.55 65.25 472.8 65.75 L471.25 66.1 471.2 66.1 470.5 66.3 M474.7 59.7 L464.9 59.6 Q464.9 58.95 465.35 58.5 465.75 58.0 466.35 58.0 L469.9 58.05 473.45 58.15 477.45 58.75 474.7 59.7 M453.55 59.15 L450.5 59.0 448.4 58.6 448.75 55.65 454.45 55.3 460.9 56.55 460.5 57.0 Q457.2 58.9 453.55 59.15 M443.7 58.75 L434.9 58.7 Q434.25 58.45 434.2 57.75 434.15 57.4 434.25 57.4 L444.2 57.05 444.45 57.15 Q445.55 57.85 443.7 58.75 M269.3 55.8 L262.6 55.35 259.65 55.3 259.65 55.55 250.05 56.5 248.4 55.9 244.75 56.5 240.8 56.5 Q238.5 56.15 240.2 55.65 251.85 52.65 263.85 54.05 L269.2 55.35 269.3 55.8 M432.3 16.2 L432.05 17.55 431.45 18.1 425.15 17.25 425.3 17.0 Q428.5 14.8 432.3 16.2 M426.3 12.7 L427.45 13.5 427.2 13.75 424.6 13.65 424.3 13.25 Q423.85 11.9 426.3 12.7 M423.95 14.9 L424.25 15.35 424.2 15.55 423.75 15.9 420.7 17.4 418.6 18.05 Q407.15 22.65 397.05 17.25 L402.1 13.4 417.55 12.95 422.2 14.0 423.95 14.9 M321.35 55.25 L320.95 55.5 Q316.85 55.45 318.9 53.7 L319.55 53.85 Q323.15 53.3 321.35 55.25 M313.7 53.7 Q314.8 54.2 315.25 55.1 L314.65 55.35 308.4 56.55 292.2 56.0 Q291.45 55.7 292.05 54.65 L292.5 54.25 Q300.6 50.3 309.7 52.5 L313.7 53.7 M316.0 57.55 L319.1 58.55 317.1 59.05 312.9 58.1 316.0 57.55 M234.7 17.55 L233.8 17.7 233.55 16.3 238.8 16.3 234.7 17.55 M225.45 17.65 L223.55 18.15 Q215.5 19.8 207.3 18.15 L206.8 17.7 206.7 17.15 Q210.5 16.3 214.5 16.2 L221.45 15.8 228.9 16.65 225.45 17.65 M280.9 53.95 L284.9 54.55 286.35 55.6 285.4 55.6 Q282.95 56.3 280.75 55.55 278.25 54.65 280.9 53.95 M288.15 59.2 L288.1 59.25 280.8 58.5 288.0 57.4 288.15 59.2 M168.35 55.8 L168.45 55.7 Q171.65 54.1 175.2 55.4 L176.1 55.65 176.8 55.9 176.95 55.95 177.05 55.95 177.2 56.05 177.65 56.55 Q178.0 57.15 178.0 58.0 L175.25 59.25 170.75 58.65 170.0 58.35 168.15 56.05 168.35 55.8 M162.25 52.3 L162.05 52.3 Q160.75 52.55 161.8 52.75 L164.95 53.25 Q165.6 53.8 164.85 54.4 163.25 55.5 160.45 54.1 L160.0 54.05 152.7 54.25 150.95 51.7 159.55 50.8 162.2 51.1 162.7 51.25 Q164.2 52.05 162.25 52.3 M154.3 13.9 L154.7 14.2 Q155.25 15.1 153.15 14.65 L148.4 14.2 152.2 13.65 154.3 13.9 M134.2 13.7 L135.5 13.95 Q139.2 13.95 141.7 15.6 L141.65 15.95 141.45 16.3 128.7 16.35 128.2 15.95 Q126.8 15.3 125.3 14.9 L120.25 14.95 116.6 15.0 114.2 15.0 113.95 16.5 107.7 19.45 108.3 17.25 104.5 17.15 104.15 16.85 103.45 15.9 Q103.3 15.6 103.45 15.35 L103.65 15.25 104.1 15.25 104.7 15.25 105.3 15.0 105.4 14.6 105.5 14.1 105.65 13.8 111.1 13.0 97.3 12.55 Q96.95 12.55 96.7 12.35 L96.4 11.85 96.4 11.5 Q96.4 11.25 96.55 11.2 L97.65 11.05 115.65 10.55 119.6 10.75 122.15 11.65 122.05 12.05 121.2 12.3 113.5 13.45 119.35 13.55 122.85 13.55 126.3 13.55 134.2 13.7 M112.05 55.1 L112.15 55.9 105.35 57.3 100.8 59.7 91.85 58.25 Q91.85 57.05 92.9 56.25 93.95 55.4 95.45 55.4 L101.45 55.4 107.75 55.25 112.05 55.1 M114.85 54.7 Q115.5 54.7 115.95 55.2 116.4 55.65 116.4 56.3 116.4 56.95 115.95 57.45 115.5 57.9 114.85 57.9 114.2 57.9 113.75 57.45 113.3 56.95 113.3 56.3 113.3 55.65 113.75 55.2 114.2 54.7 114.85 54.7" fill="#817a70" fill-rule="evenodd" stroke="none"/>
      <path d="M573.3 12.35 L572.85 12.5 564.85 12.3 565.1 10.55 567.9 11.4 569.35 10.6 569.65 10.55 Q571.65 10.5 573.0 11.45 573.35 11.65 573.3 12.35 M500.4 10.95 L503.9 12.1 501.25 12.95 497.7 12.8 493.9 11.6 500.4 10.95" fill="#818d65" fill-rule="evenodd" stroke="none"/>
      <path d="M168.35 55.8 L168.15 56.05 170.0 58.35 166.6 57.05 167.4 55.85 168.35 55.8 M178.0 58.0 Q178.0 57.15 177.65 56.55 L177.2 56.05 178.7 56.45 Q179.45 56.6 179.65 56.95 179.85 57.25 179.65 57.55 179.4 57.85 178.85 57.95 L178.0 58.0" fill="#736d64" fill-rule="evenodd" stroke="none"/>
      <path d="M177.2 56.05 L177.05 55.95 178.7 56.45 177.2 56.05 M176.95 55.95 L176.8 55.9 176.1 55.65 176.95 55.95 M166.6 57.05 L166.4 57.3 166.45 57.55 165.85 57.15 Q165.2 56.35 167.4 55.85 L166.6 57.05" fill="#827455" fill-rule="evenodd" stroke="none"/>
      <path d="M161.8 52.75 Q160.75 52.55 162.05 52.3 L162.25 52.3 161.8 52.75" fill="#918357" fill-rule="evenodd" stroke="none"/>
      <path d="M170.0 58.35 L170.75 58.65 166.95 58.1 166.45 57.55 166.4 57.3 166.6 57.05 170.0 58.35" fill="#7a705c" fill-rule="evenodd" stroke="none"/>
      <path d="M617.65 10.15 L621.7 10.45 623.5 10.55 623.75 10.6 623.3 12.2 Q622.85 12.85 622.2 12.85 L621.65 12.95 618.3 11.55 612.05 11.35 584.45 11.3 580.55 11.5 578.05 11.15 Q575.45 10.4 577.55 9.9 L583.7 9.75 586.25 9.5 589.15 9.5 592.0 9.5 592.4 9.5 599.5 9.55 605.25 9.55 612.05 9.8 614.35 9.95 617.65 10.15 M619.85 6.05 L616.1 6.1 614.25 6.85 614.0 7.1 613.05 7.35 609.15 7.35 605.2 7.3 603.7 7.3 601.1 7.25 599.75 7.25 586.8 7.15 583.1 7.15 578.45 7.1 572.5 7.05 564.7 7.0 558.75 7.25 555.15 7.45 553.35 7.5 551.9 8.6 Q551.6 8.8 551.65 8.9 L552.2 9.4 555.7 10.15 557.45 9.75 560.3 9.55 571.95 9.8 574.05 10.3 569.65 10.55 569.35 10.6 567.9 11.4 565.1 10.55 Q563.55 10.55 562.5 11.3 561.4 12.0 561.4 13.05 L563.1 13.25 565.7 13.55 568.15 13.45 572.85 12.5 573.3 12.35 Q576.65 11.95 574.9 10.9 L574.7 10.75 576.45 11.05 577.9 11.5 569.65 14.65 569.15 14.7 562.8 14.3 560.45 13.7 560.45 12.2 558.5 11.45 555.3 12.35 554.25 12.85 553.15 13.2 549.8 14.25 548.75 14.15 545.0 13.0 543.85 12.45 542.55 11.8 542.2 11.65 540.85 10.8 538.1 10.85 536.9 10.9 523.6 11.7 523.05 11.65 520.55 11.4 507.3 9.9 509.65 11.55 509.35 11.5 Q506.65 10.6 508.0 11.8 L509.35 13.2 509.4 13.35 509.15 15.05 501.3 14.9 494.95 14.2 490.6 13.15 490.5 12.95 492.25 9.35 Q479.6 8.75 467.15 8.95 L453.1 8.25 417.55 9.6 Q408.6 10.25 399.5 9.7 L395.05 9.9 387.65 11.25 378.0 11.95 376.35 11.9 364.95 11.5 351.0 11.65 336.5 12.95 261.7 10.75 246.4 10.2 236.7 10.7 232.05 10.65 222.3 10.45 220.2 10.45 189.6 10.65 173.85 11.35 167.1 11.45 162.65 11.3 161.2 11.2 158.3 11.05 139.95 10.05 128.55 10.0 Q127.15 9.7 125.85 10.0 L119.8 9.95 116.25 10.2 98.25 10.7 80.35 9.4 58.9 9.05 60.55 7.55 64.4 7.6 71.55 7.7 83.3 8.0 88.05 8.25 97.7 9.5 107.2 9.35 111.05 9.3 117.35 8.75 121.95 8.45 131.35 8.25 134.45 8.45 140.5 8.75 141.05 8.8 145.4 9.1 151.0 9.4 154.35 9.5 160.5 9.75 166.65 9.75 168.8 9.7 178.3 9.15 184.6 8.95 193.1 8.85 196.55 8.85 198.25 8.75 202.3 8.55 206.1 8.8 209.85 8.85 217.6 8.95 239.65 9.1 243.9 9.2 250.5 9.4 262.3 9.85 267.85 10.1 275.55 10.3 278.55 10.45 282.85 10.85 287.65 11.05 291.65 11.1 292.25 11.1 294.3 11.15 298.85 11.2 306.6 11.3 315.4 11.5 327.7 11.45 332.25 11.25 358.55 9.5 369.85 10.3 385.4 9.9 398.15 8.0 405.25 7.85 410.95 7.55 420.55 6.5 420.6 6.5 428.65 6.55 436.45 6.55 441.3 6.55 449.3 6.55 455.2 6.85 459.15 7.05 464.7 7.35 470.6 7.4 473.7 7.45 481.7 7.5 486.7 7.55 492.25 7.8 497.65 8.35 500.15 8.35 516.05 8.55 516.3 8.45 516.5 7.7 518.9 5.5 521.25 4.4 518.2 4.4 514.3 4.45 512.7 4.45 509.05 4.45 506.2 4.45 499.5 4.45 494.15 4.5 488.4 4.5 485.7 4.5 480.3 4.55 475.5 4.55 466.95 4.6 463.9 4.6 452.65 4.7 450.7 4.7 448.45 4.7 446.85 4.7 440.8 4.8 428.85 5.0 428.45 5.05 421.7 5.2 411.95 5.35 408.75 5.4 403.2 5.45 396.4 5.55 389.25 6.0 384.65 6.45 379.4 7.0 371.7 7.95 363.2 8.05 360.2 8.05 341.35 7.9 338.5 7.9 333.0 7.85 332.8 7.85 329.15 7.8 318.9 7.55 308.1 8.1 304.6 8.65 300.25 9.1 294.65 9.05 287.5 9.0 283.4 9.0 278.45 8.95 268.0 8.8 267.0 8.8 258.55 8.6 249.85 8.15 246.05 8.0 226.25 5.4 224.35 5.45 220.45 5.65 214.7 6.1 212.05 6.1 208.8 6.1 205.25 6.1 200.05 6.05 198.4 6.05 186.25 6.05 174.5 6.0 161.6 5.95 152.0 5.95 146.85 5.9 141.5 5.9 134.05 5.85 125.7 5.8 118.45 5.75 112.9 5.7 111.15 5.7 99.3 5.6 92.65 5.55 87.55 5.45 83.1 5.35 82.3 5.35 79.2 4.95 80.9 4.2 81.05 4.1 80.9 4.0 72.45 4.45 72.35 4.45 63.85 5.05 63.2 4.9 63.0 4.6 63.35 4.35 63.95 4.25 76.35 3.1 90.35 3.85 218.0 3.1 230.15 4.2 245.2 5.0 246.65 5.2 255.7 5.55 279.55 6.75 Q299.2 6.15 318.9 5.95 L370.85 4.3 Q374.5 4.55 378.4 4.2 L449.25 2.15 449.45 2.15 491.95 2.3 522.6 2.35 522.9 4.8 517.65 8.05 520.1 9.2 Q520.6 9.25 520.95 9.55 L521.4 10.3 522.9 10.5 541.15 9.8 544.9 12.05 545.75 12.4 550.8 13.0 553.4 11.7 554.3 11.35 554.4 11.15 554.35 10.85 554.0 10.8 549.9 9.75 551.05 8.1 552.25 6.85 550.8 6.75 553.45 6.15 563.5 4.95 619.45 4.25 622.8 4.85 Q624.75 5.4 626.3 6.55 627.2 7.2 625.95 7.0 L624.95 6.95 622.15 6.5 619.85 6.05 M567.7 64.05 L569.2 64.3 560.75 65.0 537.9 65.1 527.75 63.8 526.0 63.95 Q525.0 64.15 524.75 64.55 524.5 64.95 525.2 65.3 L527.35 65.75 528.7 66.3 529.2 66.8 Q529.5 67.05 529.85 67.0 534.8 67.9 539.95 67.25 L544.4 66.25 548.15 68.2 549.7 69.1 551.55 70.2 553.75 70.85 566.4 68.2 567.3 69.1 566.9 69.7 565.95 69.9 555.35 71.9 554.6 73.1 552.3 72.6 544.8 67.4 543.5 67.85 Q542.05 68.5 540.6 68.45 L528.8 68.0 527.4 66.8 523.5 66.1 525.9 61.8 524.25 62.95 518.05 65.25 517.8 65.4 515.4 67.05 514.4 67.75 502.4 67.65 495.95 66.05 Q495.45 65.8 494.95 65.5 L494.75 65.4 496.55 65.55 512.9 66.55 519.0 63.5 515.2 62.9 510.75 62.5 485.35 61.35 484.05 61.3 475.3 60.95 457.6 60.7 457.5 60.7 456.1 60.65 449.45 60.3 447.45 60.05 435.05 60.05 419.15 60.05 417.55 60.05 411.7 60.4 403.45 60.85 380.65 62.0 377.4 62.75 358.25 62.6 349.4 62.8 342.65 63.0 331.7 63.0 312.4 63.05 301.25 63.45 286.4 64.25 278.4 64.1 279.9 64.5 270.8 65.0 271.9 64.4 269.4 65.15 267.65 65.25 267.45 65.8 267.25 66.35 266.35 68.65 270.2 68.65 272.4 68.65 279.6 68.65 295.3 67.9 305.35 67.15 309.05 67.15 314.45 67.2 317.55 67.25 328.9 67.45 330.9 67.5 348.15 67.6 351.25 67.6 359.85 67.65 363.1 67.65 368.95 67.25 386.15 64.4 392.45 64.15 402.1 64.25 410.6 64.4 415.45 64.5 422.1 64.85 422.95 64.85 428.2 64.9 432.2 64.95 433.2 64.95 435.55 64.95 443.7 65.0 459.0 65.1 459.25 65.1 467.65 65.95 468.7 66.1 470.5 66.3 473.5 66.6 476.6 66.9 484.7 67.5 485.6 67.55 485.15 65.55 486.25 66.45 493.7 65.5 494.8 66.1 487.95 67.8 488.75 68.15 486.15 68.3 486.25 69.8 457.8 67.35 422.8 66.8 419.9 66.75 Q403.1 66.6 386.5 68.55 367.95 70.8 349.2 69.9 329.5 69.05 309.7 69.55 L305.65 69.6 264.5 70.9 264.25 68.4 264.35 64.75 264.35 63.55 265.55 63.1 Q268.15 62.2 271.0 61.8 275.1 61.4 275.85 58.55 L265.95 56.65 224.55 57.4 217.65 61.2 217.25 61.4 217.85 62.2 219.85 63.2 220.65 63.6 223.0 65.05 220.0 65.75 224.1 66.0 Q228.25 66.3 229.05 69.85 229.05 70.35 228.5 70.7 L227.05 71.0 163.0 71.0 158.4 71.0 139.5 71.25 139.7 68.85 142.6 68.85 146.0 68.85 184.5 68.8 187.55 68.8 196.8 68.75 199.9 68.75 202.95 68.75 205.95 68.75 209.2 68.75 226.8 68.7 227.2 68.7 227.25 68.7 227.15 68.35 223.95 67.4 223.25 67.5 Q222.8 67.75 222.85 66.7 L218.25 65.9 Q218.25 65.45 218.4 65.15 218.55 64.8 218.75 64.8 L220.0 64.25 219.3 63.9 219.25 63.85 219.25 63.9 219.6 64.3 219.15 64.45 219.05 64.45 216.95 64.65 210.55 64.8 209.1 64.8 207.2 64.8 203.9 64.75 202.6 64.6 200.3 64.35 199.25 64.25 196.45 63.8 195.4 63.55 192.1 63.5 183.55 63.55 165.8 64.3 162.7 64.3 159.15 64.3 156.05 64.3 152.6 64.25 144.0 64.25 140.5 64.25 139.95 65.9 140.35 60.95 140.4 60.75 140.15 60.85 135.95 65.3 135.8 65.5 133.3 68.85 133.8 69.4 133.65 69.7 132.65 70.85 126.3 70.8 125.0 70.8 126.05 69.5 125.45 67.8 125.55 67.75 126.65 64.45 126.25 64.0 Q125.45 59.3 128.5 54.5 L135.65 42.85 135.7 42.7 134.75 43.2 117.25 64.05 113.75 64.05 113.55 61.95 113.1 62.25 112.35 64.25 107.95 67.6 106.45 68.8 106.85 68.85 107.4 68.85 107.5 68.85 107.4 68.95 106.0 69.6 105.6 70.5 88.0 69.95 86.3 69.9 80.0 69.9 Q54.4 69.5 28.85 70.95 21.45 70.7 15.05 73.75 L2.35 72.9 0.25 72.3 2.25 71.9 2.45 71.85 14.6 71.85 17.85 70.1 21.2 69.45 21.9 69.25 23.7 68.65 26.85 67.75 49.65 67.25 56.7 67.35 60.0 67.35 65.55 67.45 85.0 67.95 93.25 68.15 96.8 68.25 104.5 68.65 109.65 64.5 107.5 64.25 104.25 64.25 99.7 64.5 80.25 64.7 57.1 63.65 52.65 63.45 52.15 63.45 Q44.75 62.7 37.4 63.05 L36.3 63.0 33.95 63.3 26.4 64.25 20.5 65.95 17.2 66.4 14.2 66.8 14.0 66.8 10.65 67.1 9.3 67.2 6.3 66.9 7.2 66.0 16.4 64.5 Q18.25 64.65 20.35 63.85 L35.9 61.25 65.75 62.15 75.15 62.45 78.7 63.3 78.55 63.3 79.1 63.4 85.25 63.45 88.85 63.35 99.85 62.8 111.75 62.8 113.5 60.3 113.7 61.1 Q113.75 63.5 115.85 63.0 L116.8 62.7 118.75 61.5 120.55 59.1 122.35 56.75 122.5 56.55 126.85 50.25 Q132.0 43.0 139.6 38.55 138.45 41.8 136.2 44.5 129.4 52.7 127.2 62.95 L129.55 62.75 133.7 63.1 136.35 63.6 138.6 61.2 141.3 58.9 140.95 63.05 148.6 63.0 157.05 62.95 174.95 62.0 Q189.85 61.4 205.0 63.45 L209.75 63.35 218.55 63.5 215.35 60.75 Q218.8 59.8 221.6 57.7 222.75 56.85 224.15 56.8 232.4 55.45 240.8 56.5 L244.75 56.5 250.05 56.5 259.65 55.55 260.0 55.5 262.6 55.35 269.3 55.8 273.55 56.45 276.8 57.75 276.9 57.9 276.75 60.15 272.35 62.8 275.65 62.35 283.8 61.95 290.7 61.75 293.8 61.55 320.75 62.5 326.6 62.25 351.4 61.45 364.4 60.95 380.45 60.35 380.55 60.2 396.5 59.5 399.0 59.45 400.45 59.45 403.65 59.4 424.6 58.6 434.9 58.7 443.7 58.75 450.5 59.0 453.55 59.15 464.9 59.6 474.7 59.7 489.4 60.4 511.1 61.35 515.1 62.1 522.1 61.8 523.9 60.75 526.65 60.8 528.0 61.8 541.5 63.75 541.6 63.8 544.15 64.1 552.3 64.2 567.7 64.05 M500.4 10.95 L498.9 9.8 496.6 9.8 496.0 9.8 494.7 9.75 494.25 9.8 493.95 10.05 491.75 12.15 491.6 12.35 492.3 13.05 496.05 13.25 503.6 14.05 504.4 14.05 508.4 13.55 503.9 12.1 500.4 10.95 M505.9 10.75 L501.8 9.8 502.65 10.8 504.05 11.0 505.9 10.75 M251.1 68.8 L251.1 69.0 249.1 69.05 249.95 68.85 251.1 68.8 M128.85 68.65 L132.65 68.15 135.3 64.75 128.1 65.15 128.0 66.85 126.95 68.85 128.7 68.65 128.65 68.75 128.85 68.65" fill="#416083" fill-rule="evenodd" stroke="none"/>
    </g>
  </defs>
</svg>
