<?xml version="1.0" encoding="UTF-8" standalone="no"?>
<svg xmlns:ffdec="https://www.free-decompiler.com/flash" xmlns:xlink="http://www.w3.org/1999/xlink" ffdec:objectType="frame" height="38.0px" width="165.6px" xmlns="http://www.w3.org/2000/svg">
  <g transform="matrix(1.0, 0.0, 0.0, 1.0, 4.5, 1.5)">
    <clipPath id="clipPath0" transform="matrix(1.0, 0.0, 0.0, 1.0, 0.0, 0.0)">
      <path d="M134.15 -0.45 Q136.65 0.4 138.45 1.95 L138.45 1.9 Q142.5 5.3 142.5 12.2 L142.5 22.85 Q142.5 29.75 138.45 33.15 134.6 36.5 126.9 36.5 L31.8 36.5 Q18.15 36.5 16.5 26.15 16.2 24.6 16.2 22.85 L16.2 12.2 Q16.1 -1.5 31.8 -1.5 L126.9 -1.5 Q130.9 -1.5 133.85 -0.55 L134.1 -0.5 134.15 -0.45" fill="#ff0000" fill-rule="evenodd" stroke="none"/>
    </clipPath>
    <g clip-path="url(#clipPath0)">
      <use ffdec:characterId="247" height="29.55" transform="matrix(1.0, 0.0, 0.0, 1.0, -4.5, 3.0)" width="164.6" xlink:href="#shape1"/>
      <use ffdec:characterId="245" height="26.0" transform="matrix(1.0, 0.0, 0.0, 1.0, 22.6, 4.5)" width="113.5" xlink:href="#shape2"/>
      <filter id="filter10">
        <feColorMatrix in="SourceGraphic" result="filterResult0" type="matrix" values="0 0 0 0 0.10980392,0 0 0 0 0.08627451,0 0 0 0 0.023529412,0 0 0 1 0"/>
        <feConvolveMatrix divisor="16.0" in="filterResult0" kernelMatrix="1 1 1 1 1 1 1 1 1 1 1 1 1 1 1 1" order="4 4" result="filterResult1"/>
        <feComposite in="SourceGraphic" in2="filterResult1" operator="over" result="filterResult2"/>
        <feColorMatrix in="filterResult2" result="filterResult3" type="matrix" values="0.6543 0.3047 0.041 0.0 0.0 0.1543 0.8047 0.041 0.0 0.0 0.1543 0.3047 0.541 0.0 0.0 0.0 0.0 0.0 1.0 0.0"/>
      </filter>
      <use ffdec:characterId="246" filter="url(#filter10)" height="25.2" transform="matrix(1.0, 0.0, 0.0, 1.0, 4.05, 5.0)" width="148.05" xlink:href="#text0"/>
    </g>
  </g>
  <defs>
    <g id="shape1" transform="matrix(1.0, 0.0, 0.0, 1.0, 4.5, -3.0)">
      <path d="M-0.9 10.7 L-1.15 12.0 -1.4 13.4 -1.45 14.55 -1.45 17.15 -1.3 20.65 -0.5 24.3 -0.2 24.5 2.0 25.5 5.3 26.25 5.55 26.45 6.15 26.55 150.4 26.55 151.5 26.05 154.4 24.35 155.5 22.55 156.0 21.95 156.65 15.7 Q156.65 10.8 153.9 7.6 L152.65 6.5 150.8 5.75 150.7 5.7 150.55 5.6 150.15 5.55 150.05 5.55 149.15 5.25 149.0 5.2 144.85 5.0 128.3 5.0 128.3 4.95 73.75 4.95 41.15 4.95 28.15 4.95 25.15 4.95 25.15 5.0 22.2 5.0 6.85 5.0 Q6.0 4.95 5.75 5.3 L5.75 5.45 5.35 5.4 4.45 5.5 4.05 5.6 3.8 5.7 Q2.7 5.9 2.4 6.4 L2.2 6.5 1.9 6.65 1.6 6.75 1.5 6.85 Q0.0 7.65 -0.05 8.6 L-0.4 8.85 -0.7 9.25 -0.45 9.4 Q-0.9 9.85 -0.9 10.5 L-0.9 10.7 M150.4 3.2 L151.5 3.3 Q151.95 2.75 153.0 3.6 L153.4 3.7 Q158.25 4.95 158.25 7.7 L158.1 8.25 Q159.7 10.45 159.7 12.5 159.7 13.05 159.2 13.05 L159.15 13.05 Q158.9 12.9 158.55 11.95 L158.85 14.35 158.9 15.15 159.15 17.8 Q160.1 17.25 160.1 19.25 159.0 25.4 158.1 26.5 L157.6 27.1 157.4 27.25 157.3 27.4 157.4 27.55 157.45 27.6 156.95 28.35 156.45 28.7 156.5 28.95 156.5 29.3 Q156.5 29.8 156.15 29.9 L155.9 29.55 155.85 29.45 155.75 29.1 155.2 29.65 153.8 30.9 153.25 31.25 Q151.15 32.55 149.85 32.55 L149.0 31.95 148.5 31.6 148.8 31.35 Q148.85 31.1 149.2 31.0 L138.25 32.0 135.05 32.0 134.45 31.9 134.1 31.75 129.75 31.3 128.3 31.3 128.1 31.3 126.15 31.25 118.4 31.25 118.4 31.8 118.0 31.85 117.45 31.9 116.35 32.0 113.9 32.0 112.9 31.95 112.55 31.95 73.75 31.95 73.75 31.85 54.2 31.85 41.15 31.85 41.15 31.8 28.15 31.8 19.2 31.5 16.6 31.3 14.75 31.4 13.5 31.2 13.5 31.4 Q13.45 31.7 12.95 31.7 L11.45 31.55 11.5 31.75 11.45 32.0 11.1 32.2 10.4 32.0 10.05 31.7 9.85 31.4 9.2 31.4 9.1 31.4 8.35 31.9 Q2.6 31.9 -1.4 28.0 L-2.9 26.4 Q-4.5 24.4 -4.5 22.8 L-4.25 21.4 -4.4 20.15 Q-4.4 19.45 -3.75 19.15 L-3.4 19.1 -2.95 19.3 -2.95 19.2 -3.05 15.25 -2.9 13.05 -3.05 12.65 -3.2 12.1 -3.2 10.6 -3.3 10.6 Q-4.3 10.55 -4.3 9.6 -4.3 7.6 -2.15 6.1 L-0.5 5.1 -0.25 5.0 Q0.95 4.45 2.5 4.0 5.15 3.2 7.15 3.3 L8.05 3.45 8.25 3.45 8.45 3.35 41.15 3.4 41.15 3.45 128.3 3.45 128.3 3.5 148.9 3.5 Q149.35 3.15 150.4 3.2 M156.6 24.65 L156.35 23.85 Q155.6 24.15 155.1 25.3 L154.95 25.7 153.95 26.55 Q152.8 27.65 151.5 27.8 L148.1 28.8 147.2 29.1 144.0 29.4 128.3 29.4 128.3 29.35 126.35 29.35 125.95 29.3 121.45 29.25 118.4 29.4 118.4 29.45 114.9 29.5 Q113.2 29.65 112.9 30.05 L114.9 30.5 121.15 30.5 121.25 30.45 125.95 30.5 125.95 30.55 127.55 30.5 128.5 30.6 128.7 30.5 144.35 30.5 145.2 30.4 146.5 30.6 Q150.0 30.6 153.2 28.8 155.2 27.65 155.85 26.7 L156.0 26.65 Q156.6 25.3 156.6 24.65 M11.65 28.6 L11.75 28.55 11.6 28.55 11.65 28.6" fill="#30313a" fill-rule="evenodd" stroke="none"/>
      <path d="M150.8 5.75 L150.8 5.8 151.4 6.05 Q153.6 7.05 154.0 7.9 154.2 8.25 153.55 8.25 153.25 8.25 151.85 7.55 150.35 6.85 149.3 6.75 L149.2 6.6 41.15 6.6 41.15 6.55 28.1 6.55 Q27.8 5.7 25.15 5.85 L25.15 5.75 23.15 5.75 Q21.1 5.85 20.3 6.5 L20.2 6.5 15.05 6.5 14.5 6.0 9.25 5.75 Q4.7 5.85 3.65 6.8 L1.7 7.4 Q0.2 8.1 0.2 8.75 L0.25 8.9 0.0 9.0 0.0 8.9 -0.05 9.05 -0.35 9.25 -0.45 9.4 -0.7 9.25 -0.4 8.85 -0.05 8.6 Q0.0 7.65 1.5 6.85 L1.9 6.65 2.2 6.5 2.4 6.4 Q2.7 5.9 3.8 5.7 L4.05 5.6 4.45 5.5 5.35 5.4 5.75 5.45 5.75 5.3 Q6.0 4.95 6.85 5.0 L22.2 5.0 25.15 5.0 25.15 4.95 28.15 4.95 41.15 4.95 73.75 4.95 128.3 4.95 128.3 5.0 144.85 5.0 149.0 5.2 149.15 5.25 150.05 5.55 150.15 5.55 150.55 5.6 150.7 5.7 150.8 5.75" fill="#636476" fill-rule="evenodd" stroke="none"/>
      <path d="M150.8 5.75 L152.65 6.5 153.9 7.6 Q156.65 10.8 156.65 15.7 L156.0 21.95 155.5 22.55 154.4 24.35 151.5 26.05 150.4 26.55 6.15 26.55 5.55 26.45 5.3 26.25 2.0 25.5 -0.2 24.5 -0.5 24.3 -1.3 20.65 -1.45 17.15 -1.45 14.55 -1.4 13.4 -1.15 12.0 -0.9 10.7 -0.85 11.05 -0.65 11.25 -0.4 11.25 0.15 10.3 1.3 9.5 11.25 7.55 14.8 7.55 15.15 7.45 15.3 6.95 15.05 6.5 20.2 6.5 19.75 6.8 19.7 6.8 19.75 6.85 20.25 7.3 20.6 7.5 25.15 7.5 25.15 7.45 26.55 7.55 Q28.15 7.55 28.15 6.85 L28.15 6.8 28.1 6.55 41.15 6.55 41.15 6.6 149.2 6.6 149.3 6.75 Q150.35 6.85 151.85 7.55 153.25 8.25 153.55 8.25 154.2 8.25 154.0 7.9 153.6 7.05 151.4 6.05 L150.8 5.8 150.8 5.75 M1.5 6.85 L1.6 6.75 1.9 6.65 1.5 6.85 M159.15 13.05 L159.15 13.35 Q159.15 14.1 158.85 14.35 L158.55 11.95 Q158.9 12.9 159.15 13.05 M157.6 27.1 L157.4 27.55 157.3 27.4 157.4 27.25 157.6 27.1 M156.95 28.35 L156.5 28.95 156.45 28.7 156.95 28.35 M155.9 29.55 L153.8 30.9 155.2 29.65 155.75 29.1 155.85 29.45 155.9 29.55 M149.0 31.95 L147.65 32.0 138.25 32.0 149.2 31.0 Q148.85 31.1 148.8 31.35 L148.5 31.6 149.0 31.95 M135.05 32.0 L116.35 32.0 117.45 31.9 118.0 31.85 118.4 31.8 118.4 31.25 126.15 31.25 128.1 31.3 128.3 31.3 129.75 31.3 134.1 31.75 134.45 31.9 135.05 32.0 M113.9 32.0 L11.45 32.0 11.5 31.75 11.45 31.55 12.95 31.7 Q13.45 31.7 13.5 31.4 L13.5 31.2 14.75 31.4 16.6 31.3 19.2 31.5 28.15 31.8 41.15 31.8 41.15 31.85 54.2 31.85 73.75 31.85 73.75 31.95 112.55 31.95 112.9 31.95 113.9 32.0 M10.4 32.0 L7.3 32.0 Q-1.1 32.0 -2.9 26.4 L-1.4 28.0 Q2.6 31.9 8.35 31.9 L9.1 31.4 9.2 31.4 9.85 31.4 10.05 31.7 10.4 32.0 M-3.4 19.1 L-3.4 12.2 -3.3 10.6 -3.2 10.6 -3.2 12.1 -3.05 12.65 -2.9 13.05 -3.05 15.25 -2.95 19.2 -2.95 19.3 -3.4 19.1 M-0.5 5.1 Q2.15 3.0 7.3 3.0 L147.65 3.0 150.4 3.2 Q149.35 3.15 148.9 3.5 L128.3 3.5 128.3 3.45 41.15 3.45 41.15 3.4 8.45 3.35 8.25 3.45 8.05 3.45 7.15 3.3 Q5.15 3.2 2.5 4.0 0.95 4.45 -0.25 5.0 L-0.5 5.1 M156.6 24.65 Q156.6 25.3 156.0 26.65 L155.85 26.7 Q155.2 27.65 153.2 28.8 150.0 30.6 146.5 30.6 L145.2 30.4 144.35 30.5 128.7 30.5 128.5 30.6 127.55 30.5 125.95 30.55 125.95 30.5 121.25 30.45 121.15 30.5 114.9 30.5 112.9 30.05 Q113.2 29.65 114.9 29.5 L118.4 29.45 118.4 29.4 121.45 29.25 125.95 29.3 126.35 29.35 128.3 29.35 128.3 29.4 144.0 29.4 147.2 29.1 148.1 28.8 151.5 27.8 Q152.8 27.65 153.95 26.55 L154.95 25.7 155.1 25.3 Q155.6 24.15 156.35 23.85 L156.6 24.65 M0.0 9.0 L-0.05 9.05 0.0 8.9 0.0 9.0 M11.65 28.6 L11.6 28.55 11.75 28.55 11.65 28.6" fill="#40414d" fill-rule="evenodd" stroke="none"/>
      <path d="M28.1 6.55 L28.15 6.8 28.15 6.85 Q28.15 7.55 26.55 7.55 L25.15 7.45 25.15 7.5 20.6 7.5 20.25 7.3 19.75 6.85 19.7 6.8 19.75 6.8 20.2 6.5 20.3 6.5 Q21.1 5.85 23.15 5.75 L25.15 5.75 25.15 5.85 Q27.8 5.7 28.1 6.55 M15.05 6.5 L15.3 6.95 15.15 7.45 14.8 7.55 11.25 7.55 1.3 9.5 0.15 10.3 -0.4 11.25 -0.65 11.25 -0.85 11.05 -0.9 10.7 -0.9 10.5 Q-0.9 9.85 -0.45 9.4 L-0.35 9.25 -0.05 9.05 0.0 9.0 0.25 8.9 0.2 8.75 Q0.2 8.1 1.7 7.4 L3.65 6.8 Q4.7 5.85 9.25 5.75 L14.5 6.0 15.05 6.5" fill="#9697a7" fill-rule="evenodd" stroke="none"/>
    </g>
    <g id="shape2" transform="matrix(1.0, 0.0, 0.0, 1.0, -22.6, -4.5)">
      <path d="M126.9 4.5 Q131.4 4.5 133.8 6.3 135.55 7.75 136.0 10.4 L136.1 12.2 136.1 22.85 136.0 24.7 Q134.9 30.5 126.9 30.5 L31.8 30.5 Q23.85 30.5 22.75 24.7 22.6 23.8 22.6 22.85 L22.6 12.2 Q22.7 4.5 31.8 4.5 L126.9 4.5" fill="url(#gradient0)" fill-rule="evenodd" stroke="none"/>
    </g>
    <linearGradient gradientTransform="matrix(0.0, 0.0167, -0.0159, 0.0, 181.85, 18.1)" gradientUnits="userSpaceOnUse" id="gradient0" spreadMethod="pad" x1="-819.2" x2="819.2">
      <stop offset="0.0" stop-color="#202020"/>
      <stop offset="1.0" stop-color="#757575"/>
    </linearGradient>
    <g id="text0" transform="matrix(1.0, 0.0, 0.0, 1.0, 2.0, 2.0)">
      <g transform="matrix(1.0, 0.0, 0.0, 1.0, -2.0, -2.0)">
        <use fill="#eee2bc" height="25.2" transform="matrix(0.0176, 0.0, 0.0, 0.0176, 22.1, 17.35)" width="148.05" xlink:href="#font_HelveticaRounded_LT_Std_Bd_G0"/>
        <use fill="#eee2bc" height="25.2" transform="matrix(0.0176, 0.0, 0.0, 0.0176, 36.8, 17.35)" width="148.05" xlink:href="#font_HelveticaRounded_LT_Std_Bd_e0"/>
        <use fill="#eee2bc" height="25.2" transform="matrix(0.0176, 0.0, 0.0, 0.0176, 47.8, 17.35)" width="148.05" xlink:href="#font_HelveticaRounded_LT_Std_Bd_t0"/>
      </g>
      <g transform="matrix(1.0, 0.0, 0.0, 1.0, -2.0, -2.0)">
        <use fill="#eee2bc" height="25.2" transform="matrix(0.0176, 0.0, 0.0, 0.0176, 59.95, 17.35)" width="148.05" xlink:href="#font_HelveticaRounded_LT_Std_Bd_S0"/>
        <use fill="#eee2bc" height="25.2" transform="matrix(0.0176, 0.0, 0.0, 0.0176, 72.25, 17.35)" width="148.05" xlink:href="#font_HelveticaRounded_LT_Std_Bd_t0"/>
        <use fill="#eee2bc" height="25.2" transform="matrix(0.0176, 0.0, 0.0, 0.0176, 78.9, 17.35)" width="148.05" xlink:href="#font_HelveticaRounded_LT_Std_Bd_a0"/>
        <use fill="#eee2bc" height="25.2" transform="matrix(0.0176, 0.0, 0.0, 0.0176, 89.9, 17.35)" width="148.05" xlink:href="#font_HelveticaRounded_LT_Std_Bd_r0"/>
        <use fill="#eee2bc" height="25.2" transform="matrix(0.0176, 0.0, 0.0, 0.0176, 97.25, 17.35)" width="148.05" xlink:href="#font_HelveticaRounded_LT_Std_Bd_t0"/>
        <use fill="#eee2bc" height="25.2" transform="matrix(0.0176, 0.0, 0.0, 0.0176, 103.9, 17.35)" width="148.05" xlink:href="#font_HelveticaRounded_LT_Std_Bd_e0"/>
        <use fill="#eee2bc" height="25.2" transform="matrix(0.0176, 0.0, 0.0, 0.0176, 114.9, 17.35)" width="148.05" xlink:href="#font_HelveticaRounded_LT_Std_Bd_d0"/>
      </g>
    </g>
    <g id="font_HelveticaRounded_LT_Std_Bd_G0">
      <path d="M762.0 -320.5 L762.0 -43.0 Q761.5 -19.0 746.0 -3.0 730.5 13.0 704.5 13.5 669.5 13.5 654.5 -9.5 640.0 -33.0 633.0 -82.0 597.5 -36.0 544.5 -9.5 491.5 17.0 413.5 17.5 316.5 17.0 247.5 -14.0 179.0 -44.5 136.0 -98.0 93.5 -151.5 73.5 -221.0 54.0 -290.5 54.0 -368.5 55.0 -493.5 103.0 -579.5 151.0 -665.5 237.0 -710.0 323.0 -754.5 438.5 -755.0 508.5 -754.5 561.5 -736.5 615.0 -718.5 651.0 -691.0 687.5 -663.5 705.5 -633.5 724.0 -603.0 724.0 -578.0 723.5 -549.0 711.5 -532.5 699.5 -516.5 681.5 -510.0 664.0 -503.5 645.5 -504.0 615.5 -505.0 599.5 -522.0 584.0 -539.5 567.5 -562.0 551.5 -584.5 520.5 -602.0 489.5 -619.0 429.0 -620.0 370.5 -620.5 324.0 -593.5 277.5 -566.5 250.0 -508.5 222.5 -450.5 222.0 -357.0 222.0 -284.0 245.5 -229.0 269.5 -174.0 316.0 -143.0 362.5 -112.0 431.0 -111.5 476.5 -112.0 514.5 -130.5 552.5 -149.0 577.0 -183.0 602.0 -216.5 606.5 -262.0 L497.0 -262.0 Q478.5 -262.0 461.0 -267.5 444.0 -273.0 432.5 -287.0 421.5 -301.0 421.0 -326.5 421.0 -357.5 438.0 -374.0 455.0 -391.0 486.5 -391.0 L693.5 -391.0 Q730.0 -391.0 746.0 -373.0 762.5 -355.0 762.0 -320.5" fill-rule="evenodd" stroke="none"/>
    </g>
    <g id="font_HelveticaRounded_LT_Std_Bd_e0">
      <path d="M186.5 -325.5 L448.5 -325.5 Q441.5 -378.0 407.5 -411.0 373.5 -443.5 322.5 -444.5 266.5 -444.0 232.5 -412.5 198.5 -380.5 186.5 -325.5 M524.5 -239.5 L186.5 -239.5 Q187.0 -179.0 223.0 -141.5 259.0 -104.0 324.5 -103.0 366.0 -103.5 390.5 -114.5 415.0 -125.5 431.0 -140.0 446.5 -154.5 461.0 -165.5 476.0 -176.5 497.5 -177.0 525.0 -176.0 542.0 -158.0 558.5 -140.0 559.0 -118.5 558.5 -84.5 535.0 -60.0 512.0 -35.0 475.5 -18.5 439.5 -2.5 399.5 5.5 359.5 13.5 324.5 13.5 246.5 13.0 191.5 -10.5 136.5 -34.0 102.5 -73.5 68.5 -112.5 52.5 -160.5 37.0 -208.5 37.0 -258.0 37.5 -345.5 71.0 -411.0 104.5 -476.0 167.5 -512.0 230.5 -548.5 319.5 -549.0 406.0 -548.0 466.0 -513.0 526.5 -478.0 558.0 -422.0 589.5 -366.5 590.0 -304.0 590.5 -266.5 576.0 -252.5 561.5 -239.0 524.5 -239.5" fill-rule="evenodd" stroke="none"/>
    </g>
    <g id="font_HelveticaRounded_LT_Std_Bd_t0">
      <path d="M98.5 -119.5 L98.5 -437.0 73.0 -437.0 Q41.5 -437.0 27.5 -449.5 13.5 -461.5 13.5 -486.5 13.5 -511.0 27.5 -523.0 41.5 -535.5 73.0 -535.5 L98.5 -535.5 98.5 -626.5 Q99.0 -663.5 119.0 -682.5 139.0 -701.0 173.5 -701.5 207.5 -701.0 227.5 -682.5 247.5 -663.5 248.0 -626.5 L248.0 -535.5 293.0 -535.5 Q326.0 -535.5 343.5 -524.5 360.5 -513.0 360.5 -486.5 360.5 -459.5 343.5 -448.0 326.0 -437.0 293.0 -437.0 L248.0 -437.0 248.0 -138.0 Q248.0 -121.0 257.5 -112.0 267.0 -103.0 287.0 -103.0 L308.5 -103.0 Q333.0 -103.0 347.0 -90.0 360.5 -77.0 360.5 -53.0 360.5 -20.5 333.0 -3.5 306.0 13.5 252.0 13.5 171.5 13.5 134.5 -20.0 98.0 -53.5 98.5 -119.5" fill-rule="evenodd" stroke="none"/>
    </g>
    <g id="font_HelveticaRounded_LT_Std_Bd_S0">
      <path d="M323.5 -459.0 L464.0 -427.0 Q540.0 -409.0 582.0 -376.0 624.0 -342.5 640.5 -300.5 657.0 -258.5 656.5 -215.0 656.5 -148.0 623.0 -95.5 589.5 -43.5 522.0 -13.0 454.5 17.0 353.5 17.5 247.0 16.0 178.5 -13.0 110.5 -42.5 77.5 -85.0 45.0 -128.0 45.0 -169.0 45.5 -200.0 65.0 -219.0 84.5 -238.0 115.5 -238.5 148.5 -237.5 167.5 -218.0 186.0 -198.0 205.0 -172.0 224.0 -146.0 257.5 -126.5 291.0 -106.5 353.5 -105.5 397.0 -106.0 427.0 -119.5 457.0 -133.5 473.0 -155.5 488.5 -178.0 488.5 -203.0 489.5 -226.0 474.0 -247.0 459.0 -268.0 417.0 -279.5 L227.5 -328.0 Q152.0 -348.0 113.0 -380.0 73.5 -412.0 60.0 -451.0 46.0 -490.0 47.0 -529.5 47.5 -591.0 73.0 -634.0 98.5 -677.0 140.5 -704.0 183.0 -730.5 235.0 -743.0 287.0 -755.0 341.0 -755.0 391.0 -755.0 441.0 -742.0 491.0 -729.0 533.0 -706.0 575.0 -682.5 600.5 -651.5 626.0 -620.0 627.0 -583.0 626.0 -551.5 603.5 -534.0 581.5 -516.5 550.0 -516.5 522.0 -517.0 505.0 -533.5 487.5 -550.0 469.5 -571.0 451.0 -592.5 419.5 -609.0 387.5 -625.0 330.0 -626.0 271.0 -625.5 240.0 -601.5 209.0 -578.0 209.0 -539.0 209.5 -513.5 227.0 -498.0 244.0 -482.5 270.0 -474.0 296.5 -465.0 323.5 -459.0" fill-rule="evenodd" stroke="none"/>
    </g>
    <g id="font_HelveticaRounded_LT_Std_Bd_a0">
      <path d="M406.5 -193.5 L406.5 -252.0 Q393.5 -241.0 374.5 -236.0 356.0 -230.5 342.0 -228.5 L287.5 -220.5 Q240.5 -214.0 216.0 -197.0 191.5 -180.0 191.5 -146.5 192.0 -120.5 213.5 -103.0 235.5 -85.5 274.5 -85.0 315.5 -85.5 345.0 -101.0 374.5 -116.0 390.5 -141.0 406.5 -165.5 406.5 -193.5 M556.0 -395.5 L556.0 -144.5 Q556.5 -113.5 560.0 -96.0 563.5 -78.0 567.5 -66.5 571.0 -55.0 571.5 -44.0 570.5 -18.0 551.0 -2.5 531.5 13.0 504.0 13.5 456.0 12.5 436.5 -13.0 416.5 -38.0 415.5 -73.5 372.0 -26.0 321.0 -6.0 270.0 14.0 211.0 13.5 167.5 13.0 129.5 -5.0 91.0 -23.5 67.0 -58.0 43.0 -92.0 42.0 -139.5 42.5 -200.5 70.5 -236.0 98.5 -271.5 146.0 -288.5 193.0 -305.5 251.0 -311.5 L342.0 -321.5 Q369.5 -323.5 387.5 -334.5 406.0 -345.5 406.5 -377.0 405.5 -409.0 378.0 -424.0 351.0 -438.5 312.5 -438.5 271.5 -438.0 247.0 -425.5 222.5 -413.5 206.5 -397.5 190.5 -381.5 176.0 -369.5 161.0 -357.0 139.5 -356.5 110.5 -357.0 93.5 -373.5 76.0 -390.0 76.0 -414.0 76.0 -444.5 103.5 -475.5 130.5 -506.0 183.5 -527.0 236.5 -548.0 313.5 -549.0 385.5 -549.0 440.0 -533.0 494.5 -517.0 525.0 -483.0 555.5 -449.0 556.0 -395.5" fill-rule="evenodd" stroke="none"/>
    </g>
    <g id="font_HelveticaRounded_LT_Std_Bd_r0">
      <path d="M67.5 -61.5 L67.5 -479.5 Q68.0 -513.5 87.0 -531.0 106.0 -549.0 135.0 -549.0 164.0 -549.0 183.0 -531.0 202.0 -513.5 202.5 -479.5 L202.5 -422.0 204.5 -422.0 Q213.0 -454.0 228.5 -482.5 243.5 -511.5 268.0 -530.0 292.5 -548.5 328.5 -549.0 364.5 -548.5 387.0 -528.5 410.0 -508.5 410.5 -476.5 409.5 -435.5 387.5 -418.0 365.5 -401.0 337.0 -401.5 L310.0 -401.5 Q264.5 -403.0 241.0 -365.0 217.0 -327.5 217.0 -235.5 L217.0 -61.5 Q218.0 -30.5 201.5 -9.0 185.0 12.5 142.5 13.5 99.5 12.5 83.0 -9.0 66.5 -30.5 67.5 -61.5" fill-rule="evenodd" stroke="none"/>
    </g>
    <g id="font_HelveticaRounded_LT_Std_Bd_d0">
      <path d="M186.5 -266.0 Q186.5 -221.5 199.5 -185.0 212.5 -148.5 239.0 -126.5 265.5 -104.5 305.5 -103.0 348.5 -103.5 375.0 -126.5 401.5 -149.0 413.5 -186.0 425.5 -223.0 425.0 -266.0 425.5 -305.5 414.5 -344.0 403.5 -382.0 377.0 -407.0 350.5 -432.0 305.5 -432.5 258.0 -431.5 232.0 -405.0 206.0 -378.5 196.0 -340.5 186.0 -302.5 186.5 -266.0 M566.5 -676.0 L566.5 -57.0 Q566.5 -22.5 550.0 -4.5 533.5 13.5 499.0 13.5 466.0 13.5 448.5 -4.5 431.5 -22.5 431.5 -57.0 L431.5 -80.5 429.5 -80.5 Q410.0 -33.0 368.5 -10.0 327.0 13.5 271.5 13.5 208.0 13.5 155.0 -17.5 102.0 -48.0 70.0 -111.5 38.0 -174.5 37.0 -271.5 37.0 -344.5 61.5 -407.0 86.5 -470.0 137.5 -509.0 188.5 -548.0 267.5 -549.0 317.5 -548.5 355.0 -529.0 392.5 -509.5 415.0 -473.5 L417.0 -473.5 417.0 -676.0 Q417.5 -713.0 437.5 -732.0 457.5 -751.0 492.0 -751.0 526.0 -751.0 546.0 -732.0 566.0 -713.0 566.5 -676.0" fill-rule="evenodd" stroke="none"/>
    </g>
  </defs>
</svg>
