<?xml version="1.0" encoding="UTF-8" standalone="no"?>
<svg xmlns:ffdec="https://www.free-decompiler.com/flash" xmlns:xlink="http://www.w3.org/1999/xlink" ffdec:objectType="frame" height="28.4px" width="66.05px" xmlns="http://www.w3.org/2000/svg">
  <g transform="matrix(1.0, 0.0, 0.0, 1.0, 0.0, 0.0)">
    <use ffdec:characterId="731" height="28.4" transform="matrix(1.0, 0.0, 0.0, 1.0, 0.0, 0.0)" width="66.05" xlink:href="#shape0"/>
  </g>
  <defs>
    <g id="shape0" transform="matrix(1.0, 0.0, 0.0, 1.0, 0.0, 0.0)">
      <path d="M61.2 14.3 L64.55 17.0 63.35 19.05 61.25 21.1 64.35 18.75 Q63.0 21.45 57.1 23.95 L54.15 25.05 57.8 23.2 59.15 22.45 58.9 22.55 Q51.35 26.4 35.1 27.1 L34.0 26.75 Q36.65 25.1 39.1 23.0 41.45 21.4 41.6 19.0 41.35 18.5 41.4 18.05 41.55 15.65 42.1 13.5 41.3 7.9 38.1 3.45 L38.1 2.95 49.65 8.15 56.05 11.3 57.05 12.0 Q59.5 13.3 61.2 14.3" fill="#766e6c" fill-rule="evenodd" stroke="none"/>
      <path d="M32.55 1.85 L32.25 2.2 31.95 2.1 31.95 1.9 32.05 1.9 32.55 1.85 M29.65 5.05 L29.5 5.2 28.5 6.3 28.85 5.75 29.65 5.05 M19.6 13.4 L19.15 13.65 19.45 13.4 19.6 13.4 M6.35 18.15 L5.85 18.2 6.0 18.1 6.35 18.15 M28.45 27.25 L27.7 27.25 25.05 27.25 23.55 27.0 Q11.5 25.85 6.6 24.15 3.2 22.35 1.2 21.4 1.7 20.4 1.35 19.15 L1.75 19.45 2.7 20.5 Q5.15 21.9 17.55 21.9 21.1 21.9 24.05 20.5 27.95 20.65 31.5 22.4 34.8 24.1 35.05 25.65 L35.45 25.4 33.2 21.4 Q31.7 19.0 28.05 18.65 L27.95 18.75 Q27.8 18.85 27.8 19.0 29.65 19.4 30.75 20.2 L31.55 20.9 29.8 21.0 27.15 20.2 25.45 19.75 26.35 19.15 25.1 19.25 24.5 18.35 23.2 16.5 24.05 16.4 25.55 17.55 26.8 18.25 27.05 17.9 Q26.45 17.15 24.6 16.25 22.7 15.3 21.7 15.4 21.8 16.1 23.15 17.95 L24.25 19.4 20.45 20.05 7.55 20.75 5.65 20.4 3.2 19.65 9.8 18.3 12.1 17.7 Q20.65 15.15 24.8 11.1 L28.95 6.15 Q31.35 3.25 33.95 1.65 L34.05 1.9 Q34.7 5.85 31.9 10.75 28.35 16.05 26.7 18.9 29.35 16.9 31.45 13.55 35.05 7.8 35.05 4.5 L34.8 1.55 36.1 2.2 36.9 2.4 38.1 2.95 38.1 3.45 Q41.3 7.9 42.1 13.5 41.55 15.65 41.4 18.05 41.35 18.5 41.6 19.0 41.45 21.4 39.1 23.0 36.65 25.1 34.0 26.75 L31.75 26.55 28.45 27.25" fill="#8c8280" fill-rule="evenodd" stroke="none"/>
      <path d="M64.35 18.75 L61.25 21.1 63.35 19.05 64.55 17.0 61.2 14.3 Q59.1 12.85 56.05 11.3 L49.65 8.15 38.1 2.95 36.9 2.4 34.75 1.4 34.8 1.55 35.05 4.5 Q35.05 7.8 31.45 13.55 29.35 16.9 26.7 18.9 28.35 16.05 31.9 10.75 34.7 5.85 34.05 1.9 L33.95 1.65 Q31.35 3.25 28.95 6.15 L24.8 11.1 Q20.65 15.15 12.1 17.7 L9.8 18.3 3.2 19.65 5.65 20.4 7.55 20.75 20.45 20.05 24.25 19.4 23.15 17.95 Q21.8 16.1 21.7 15.4 22.7 15.3 24.6 16.25 26.45 17.15 27.05 17.9 L26.8 18.25 25.55 17.55 24.05 16.4 23.2 16.5 24.5 18.35 25.1 19.25 26.35 19.15 25.45 19.75 27.15 20.2 29.8 21.0 31.55 20.9 30.75 20.2 Q29.65 19.4 27.8 19.0 27.8 18.85 27.95 18.75 L28.05 18.65 Q31.7 19.0 33.2 21.4 L35.45 25.4 35.05 25.65 Q34.8 24.1 31.5 22.4 27.95 20.65 24.05 20.5 21.1 21.9 17.55 21.9 5.15 21.9 2.7 20.5 L1.75 19.45 1.35 19.15 Q1.7 20.4 1.2 21.4 3.2 22.35 6.6 24.15 11.5 25.85 23.55 27.0 L25.05 27.25 27.7 27.25 28.45 27.25 35.1 27.1 Q51.35 26.4 58.9 22.55 L59.15 22.45 57.8 23.2 54.15 25.05 Q46.6 28.4 38.55 28.4 L21.15 27.75 Q12.25 27.55 7.35 26.05 4.8 25.25 3.15 24.1 L1.8 23.7 Q0.0 23.2 0.0 21.6 L0.2 20.2 0.25 19.15 1.05 19.05 0.0 18.9 4.6 18.4 4.65 18.4 5.85 18.2 6.35 18.15 11.35 16.75 17.05 14.4 19.15 13.65 19.6 13.4 Q21.8 12.35 24.05 10.5 L28.5 6.3 29.5 5.2 29.65 5.05 32.25 2.2 32.55 1.85 33.7 0.6 33.7 0.25 33.95 0.4 34.3 0.0 34.55 0.65 42.1 4.0 Q44.75 4.95 47.45 6.25 L49.35 7.05 Q62.15 12.8 66.05 16.65 L64.35 18.75" fill="#433938" fill-rule="evenodd" stroke="none"/>
    </g>
  </defs>
</svg>
