<?xml version="1.0" encoding="UTF-8" standalone="no"?>
<svg xmlns:ffdec="https://www.free-decompiler.com/flash" xmlns:xlink="http://www.w3.org/1999/xlink" ffdec:objectType="frame" height="428.25px" width="685.25px" xmlns="http://www.w3.org/2000/svg">
  <g transform="matrix(1.0, 0.0, 0.0, 1.0, 0.0, 0.0)">
    <use ffdec:characterId="1117" height="428.25" transform="matrix(1.0, 0.0, 0.0, 1.0, 0.0, 0.0)" width="685.25" xlink:href="#shape0"/>
  </g>
  <defs>
    <g id="shape0" transform="matrix(1.0, 0.0, 0.0, 1.0, 0.0, 0.0)">
      <path d="M651.5 314.2 L651.3 313.4 650.6 312.15 Q646.75 305.15 646.75 301.7 L646.75 301.55 646.8 300.75 Q646.55 298.85 646.25 294.05 L645.9 295.25 644.95 290.15 645.9 288.25 Q645.5 284.15 644.55 281.35 642.75 275.85 638.1 271.2 629.95 260.4 622.65 251.4 L621.7 250.25 620.35 248.6 Q609.5 235.7 604.4 234.0 L601.65 233.7 596.25 233.55 595.35 232.8 590.35 231.9 588.15 232.05 583.35 231.15 576.6 229.35 575.3 229.0 Q568.05 226.95 563.4 226.25 L559.35 225.9 Q558.85 225.9 551.25 205.45 L550.35 203.8 Q539.75 184.0 535.5 176.95 531.2 169.95 522.55 152.7 513.55 134.85 513.55 132.85 L509.9 126.35 511.3 129.35 519.25 146.45 513.1 136.1 Q505.0 123.2 503.55 119.7 503.0 118.4 499.25 113.0 L496.95 109.45 496.65 109.6 Q496.1 109.85 494.85 110.65 L492.7 112.25 491.7 113.15 490.35 112.7 490.8 110.2 Q491.6 105.75 492.15 103.4 L492.5 102.2 492.9 100.35 493.35 98.65 493.95 94.85 495.0 86.65 Q494.15 80.85 491.8 69.95 488.55 54.9 487.9 53.2 L484.4 43.9 Q482.0 37.6 479.7 33.85 L477.55 29.0 Q476.1 25.6 475.2 25.4 470.7 27.1 468.05 25.25 L468.55 26.05 468.05 25.7 Q463.8 22.95 461.0 23.4 460.15 23.55 459.5 24.05 458.35 23.3 457.05 22.7 L456.15 22.3 Q450.15 19.7 439.2 17.9 L418.9 14.95 Q406.35 13.05 398.1 10.45 L374.9 9.7 297.85 5.1 251.4 4.1 232.05 4.9 217.8 5.45 212.75 6.45 Q205.85 7.25 183.5 6.8 L178.45 6.2 123.4 5.05 105.55 6.2 60.4 7.6 60.15 7.5 53.6 7.85 Q51.5 8.45 49.65 9.35 L48.8 8.75 32.85 13.2 15.3 17.55 12.85 18.05 10.1 18.45 10.1 18.6 9.75 25.9 7.45 62.9 Q5.05 100.0 5.05 104.6 L5.5 119.95 5.5 120.35 5.85 133.25 6.05 143.1 Q6.2 150.55 7.05 165.9 L7.85 180.9 Q7.85 185.95 10.75 194.05 L11.5 200.15 Q12.35 205.3 13.3 208.75 L12.45 211.25 10.9 215.0 9.8 217.15 8.7 224.15 8.4 226.05 4.45 250.15 Q4.35 253.75 5.0 262.25 5.75 272.75 7.55 290.75 L10.8 321.85 Q10.75 324.1 11.65 356.4 L10.9 373.45 Q9.65 377.4 9.45 386.2 9.4 387.15 12.2 395.45 L15.05 403.8 16.1 404.55 12.9 403.1 10.1 400.15 6.55 393.5 8.25 379.4 Q8.5 366.2 6.9 352.7 L7.3 349.7 8.5 339.9 Q8.6 335.35 7.05 320.35 L7.2 316.45 Q7.3 311.4 5.0 288.15 L2.6 264.8 1.05 251.8 0.85 250.3 0.6 244.8 Q0.95 242.0 0.0 237.75 L3.2 228.1 6.9 216.45 Q6.0 213.7 6.65 210.25 8.3 204.55 8.3 202.25 L5.55 170.6 Q2.8 139.05 2.8 115.2 2.8 110.75 4.1 73.35 5.4 36.0 5.4 27.3 L4.5 21.25 3.6 16.65 Q3.6 10.9 9.45 10.9 10.6 10.9 12.15 11.75 13.75 12.6 14.85 12.6 21.4 12.6 30.2 10.4 L44.2 6.35 Q51.45 4.15 54.35 4.2 55.5 4.2 56.3 4.55 L60.05 4.5 80.4 5.05 Q112.65 5.8 123.05 0.55 L177.45 1.7 206.6 2.7 211.65 1.8 217.5 1.35 Q218.4 0.75 219.65 0.7 234.05 0.85 242.85 0.6 L251.15 0.0 296.85 1.0 Q309.65 5.9 327.7 6.4 L351.2 6.2 362.0 5.85 Q371.8 5.5 375.0 5.9 L397.75 6.85 425.9 12.65 Q452.85 18.3 454.9 18.35 457.75 18.4 460.05 19.1 461.2 18.7 463.25 18.25 L468.2 17.3 474.75 17.25 476.95 20.7 476.7 20.8 477.45 21.45 480.7 26.2 Q481.85 28.7 483.4 34.05 485.0 39.4 486.2 41.4 L491.0 55.9 Q493.6 64.3 495.0 70.75 L496.1 75.8 496.75 78.8 496.85 79.15 Q497.25 84.2 497.95 88.65 498.35 91.35 498.9 93.75 494.2 101.55 494.2 105.6 494.2 107.0 494.35 107.05 L495.45 107.1 Q496.25 106.4 497.2 105.65 L503.1 111.95 505.05 115.6 Q514.0 132.35 522.45 146.7 L525.7 152.2 Q534.6 169.3 534.6 171.0 L536.45 173.35 Q538.3 175.45 538.3 176.4 538.3 176.7 548.75 193.05 L555.6 204.25 557.7 209.4 558.45 211.55 558.45 214.95 Q558.7 218.35 560.2 220.8 564.7 228.05 580.25 227.7 584.9 227.6 612.35 233.15 L613.4 233.35 Q617.15 237.2 628.65 253.6 639.35 268.8 645.95 277.4 L646.55 282.1 Q648.6 295.8 651.2 307.25 654.45 321.5 658.1 330.2 L658.1 335.2 658.1 335.8 Q658.1 350.65 666.35 377.0 L672.0 394.0 Q674.55 401.5 674.55 402.4 L674.35 404.3 Q673.85 406.65 672.3 410.25 L671.4 410.5 671.35 410.25 Q670.6 406.1 667.1 393.15 663.85 381.0 663.85 379.55 663.85 378.45 663.0 376.35 662.15 374.3 662.15 373.15 L661.55 368.55 Q660.9 365.05 660.9 363.9 L660.1 357.95 Q659.25 353.15 659.25 352.0 659.25 346.75 655.05 329.1 L651.5 314.2 M678.7 406.15 L679.3 406.45 679.35 405.8 678.85 404.5 Q681.55 407.3 683.8 408.45 L684.25 409.65 685.15 411.0 685.1 411.85 685.25 412.2 685.1 412.0 684.9 412.5 Q684.8 412.6 684.7 412.35 L683.8 412.1 680.75 408.45 678.7 406.15 M483.8 123.7 Q485.75 121.9 486.65 121.7 L485.05 124.2 483.45 126.05 Q480.35 129.55 479.7 130.95 L479.0 130.95 Q478.65 128.9 482.2 125.25 L482.7 124.8 483.8 123.7 M453.5 162.1 Q462.45 151.5 472.35 140.15 L472.25 140.4 471.75 141.2 471.65 141.4 471.6 141.45 471.5 141.55 460.5 156.55 459.9 157.35 459.95 157.3 459.05 158.45 Q448.3 172.6 448.3 174.8 L444.1 179.95 443.9 180.2 436.45 189.35 434.7 191.5 Q419.4 210.4 411.6 221.5 411.35 222.65 411.3 221.45 L407.6 226.25 407.2 226.75 398.8 237.8 Q402.05 232.55 407.2 225.55 L411.35 220.15 Q411.6 217.7 414.0 213.25 L417.1 208.05 Q422.3 199.95 432.25 187.6 L437.1 181.6 440.15 177.9 453.5 162.1 M520.4 148.95 L520.8 149.85 520.4 149.15 520.4 148.95 M389.45 263.75 L389.8 265.3 Q389.15 270.85 389.1 275.4 L389.1 275.45 389.1 276.4 390.4 289.4 390.45 289.95 391.05 295.75 393.0 312.05 394.45 322.5 394.3 322.45 393.6 322.2 391.45 306.6 Q388.1 285.15 388.1 275.05 388.1 266.0 386.5 260.65 L385.8 258.75 Q383.75 253.8 379.05 251.4 376.1 249.85 368.1 247.95 358.8 245.8 353.25 243.65 342.45 239.55 307.9 230.45 286.05 224.75 277.7 219.55 L276.4 218.7 276.4 219.8 Q270.95 225.15 264.9 232.7 L264.75 232.95 263.85 234.05 261.15 237.7 Q252.25 250.1 249.85 261.65 L249.15 261.65 Q252.5 253.25 252.65 250.85 252.2 247.8 252.2 243.45 252.2 241.3 255.7 238.2 L262.45 232.5 263.5 231.6 Q267.6 227.7 270.3 223.2 275.05 215.05 275.25 204.85 L275.85 204.85 276.4 218.25 281.4 220.1 311.8 229.55 313.2 229.95 320.8 232.15 379.35 248.95 380.85 249.6 381.95 249.7 385.4 250.05 387.1 249.9 Q390.05 249.35 392.3 246.8 L395.85 242.75 Q392.9 249.2 390.9 252.45 L390.35 253.35 Q390.0 254.05 390.0 258.85 L390.0 259.6 389.9 261.9 389.5 262.25 389.15 262.6 389.45 263.75 M402.95 393.85 L402.95 396.2 403.75 404.35 404.55 412.5 Q404.55 413.05 407.25 417.85 L407.85 418.95 407.4 419.0 405.35 419.2 Q402.95 419.15 393.8 417.25 L397.65 406.3 400.2 397.55 Q401.5 391.8 401.5 387.3 L400.65 376.85 399.8 366.4 Q399.8 364.25 398.15 358.1 396.45 351.95 396.45 349.75 L395.6 343.9 Q394.75 339.2 394.75 338.05 394.75 333.45 394.05 326.45 L394.5 326.4 395.0 326.25 396.85 338.0 Q398.8 349.55 400.9 358.95 L400.95 359.9 401.0 360.4 Q402.8 380.15 402.95 393.85 M198.55 174.35 Q182.2 167.7 173.55 164.85 162.2 161.1 155.7 160.4 L152.55 160.2 Q150.05 160.25 148.7 160.95 148.4 161.1 148.15 161.3 L148.4 161.1 Q150.5 159.4 155.5 159.6 162.05 159.85 173.6 163.4 191.8 168.95 198.55 173.7 L198.55 174.35 M222.6 184.0 L220.95 184.25 221.2 183.85 221.4 183.6 221.85 183.75 222.35 183.9 222.3 183.85 222.8 184.0 222.6 184.0 M138.15 172.6 L139.15 171.3 137.2 175.25 136.55 176.5 136.35 176.85 132.5 183.85 122.65 200.95 114.9 214.35 Q111.15 220.95 111.15 221.4 L111.15 221.45 111.2 221.65 Q111.65 222.8 115.4 226.9 120.4 232.4 122.05 235.2 119.9 234.5 117.85 233.2 L117.7 233.1 118.25 233.75 Q120.85 236.8 124.35 240.15 129.05 244.65 139.15 252.85 148.45 260.45 151.4 263.45 L151.2 263.9 Q148.65 262.7 145.95 260.5 142.95 258.1 142.95 256.95 142.95 256.55 137.9 253.05 131.1 248.25 126.85 244.7 L126.35 244.3 Q117.5 236.75 113.7 229.95 L111.1 227.2 Q108.85 224.55 107.75 222.75 105.55 222.55 104.2 220.9 102.65 219.0 103.95 217.1 101.45 217.3 97.9 215.95 93.0 214.1 90.65 213.6 90.65 213.35 90.9 213.2 L91.1 212.95 Q95.8 214.45 106.1 215.15 L109.05 215.55 Q111.7 211.0 117.5 202.15 125.1 190.45 132.0 180.9 L132.0 180.95 132.45 180.25 135.8 175.75 138.15 172.6 M227.55 221.95 L228.65 220.25 230.8 217.35 231.6 211.25 232.65 202.15 Q232.65 197.0 231.3 192.5 L230.8 191.05 230.75 190.85 229.4 188.1 229.25 187.85 Q228.25 186.2 227.0 185.3 232.15 186.95 232.8 187.55 233.75 188.4 232.75 191.35 232.75 192.55 234.05 204.95 L234.85 212.9 235.35 212.4 234.95 214.25 235.35 220.35 Q235.35 221.6 235.15 221.65 234.95 221.75 234.9 222.3 L233.75 222.65 233.1 222.95 232.95 223.35 232.65 224.1 232.55 224.35 230.75 227.2 Q227.9 230.55 222.3 232.05 L222.4 231.8 201.05 244.9 198.2 246.65 198.05 246.75 197.35 247.2 196.15 247.95 196.6 247.7 Q187.6 253.3 180.55 257.05 L180.1 257.3 175.7 259.5 175.3 259.9 173.45 261.6 Q170.25 263.8 165.6 264.45 L165.65 264.45 164.4 264.6 162.35 264.7 161.8 264.7 162.2 265.15 160.65 265.4 160.25 265.45 159.9 265.55 157.6 266.55 156.8 267.15 155.25 268.35 154.2 268.65 154.0 267.6 154.75 267.0 155.4 266.3 155.75 265.75 156.3 264.8 157.4 262.35 159.35 262.45 160.2 262.45 160.45 262.45 Q166.3 262.4 171.05 260.6 L196.25 244.45 Q213.15 233.6 223.6 229.05 L224.35 227.45 224.45 227.25 224.7 226.8 227.55 221.95 M276.9 189.3 Q276.15 190.9 276.15 191.8 L275.4 192.15 Q275.15 191.0 275.15 188.75 275.15 187.45 275.65 185.3 L276.3 181.9 276.95 181.9 Q277.65 184.0 277.65 186.5 277.65 187.65 276.9 189.3 M140.4 168.95 Q141.05 167.85 141.75 167.85 L140.75 169.85 Q140.15 171.05 140.05 171.75 L139.35 171.75 Q139.7 170.1 140.4 168.95 M192.45 417.75 L191.85 417.9 200.55 401.55 Q215.15 372.95 223.65 347.85 L230.4 328.7 237.15 308.8 Q238.15 305.5 239.3 299.1 L241.25 288.2 Q242.75 280.95 244.95 276.7 246.25 274.1 247.85 272.65 L247.8 272.7 248.65 268.65 Q249.45 264.9 250.65 263.8 L250.05 266.7 249.55 268.8 248.85 271.85 248.85 271.8 248.6 272.85 248.4 273.8 248.35 273.85 Q245.65 283.8 233.75 319.15 221.7 355.05 221.7 359.1 221.7 359.7 208.75 390.7 202.2 406.9 198.95 416.45 L198.8 415.8 Q198.5 415.4 196.4 416.3 L192.45 417.75" fill="#66685b" fill-rule="evenodd" stroke="none"/>
      <path d="M650.6 312.15 L651.5 314.2 655.05 329.1 Q659.25 346.75 659.25 352.0 659.25 353.15 660.1 357.95 L660.9 363.9 Q660.9 365.05 661.55 368.55 L662.15 373.15 Q662.15 374.3 663.0 376.35 663.85 378.45 663.85 379.55 663.85 381.0 667.1 393.15 670.6 406.1 671.35 410.25 L670.4 407.2 670.5 406.9 Q670.35 406.55 668.95 406.5 667.4 406.45 666.75 407.45 665.8 408.8 662.8 409.4 L662.85 406.1 661.4 405.65 655.55 407.85 653.3 408.75 652.25 409.35 651.8 407.15 Q645.65 368.4 643.15 355.35 640.2 339.8 634.8 308.4 623.6 290.1 597.9 252.65 L583.35 231.15 588.15 232.05 590.35 231.9 595.35 232.8 596.25 233.55 601.65 233.7 604.4 234.0 Q609.5 235.7 620.35 248.6 L620.7 249.25 620.95 249.75 621.3 250.4 621.7 250.25 622.65 251.4 Q629.95 260.4 638.1 271.2 642.75 275.85 644.55 281.35 645.5 284.15 645.9 288.25 L644.95 290.15 645.9 295.25 645.75 296.3 Q645.75 298.1 646.75 301.55 L646.75 301.7 Q646.75 305.15 650.6 312.15 M5.0 262.25 Q4.35 253.75 4.45 250.15 L8.4 226.05 8.7 224.15 9.8 217.15 10.9 215.0 Q12.65 222.55 13.05 222.75 L14.15 222.55 Q16.35 221.85 22.45 219.35 L32.4 215.2 33.45 215.35 Q34.5 215.55 34.65 215.85 14.95 220.75 10.0 230.55 8.3 233.9 7.6 239.45 L6.3 248.6 Q5.65 251.4 5.0 262.25 M15.3 17.55 L32.85 13.2 48.8 8.75 49.65 9.35 Q51.5 8.45 53.6 7.85 L60.15 7.5 60.4 7.6 105.55 6.2 123.4 5.05 178.45 6.2 183.5 6.8 Q205.85 7.25 212.75 6.45 L217.8 5.45 232.05 4.9 251.4 4.1 297.85 5.1 374.9 9.7 398.1 10.45 Q406.35 13.05 418.9 14.95 L439.2 17.9 Q450.15 19.7 456.15 22.3 L457.05 22.7 Q455.55 23.7 454.95 25.4 L455.25 26.55 Q461.8 29.6 466.4 30.9 464.15 26.85 459.5 24.05 460.15 23.55 461.0 23.4 463.8 22.95 468.05 25.7 L468.55 26.05 468.05 25.25 Q470.7 27.1 475.2 25.4 476.1 25.6 477.55 29.0 L479.7 33.85 Q482.0 37.6 484.4 43.9 L487.9 53.2 Q488.55 54.9 491.8 69.95 494.15 80.85 495.0 86.65 L493.95 94.85 493.35 98.65 492.9 100.35 492.5 102.2 492.15 103.4 Q491.6 105.75 490.8 110.2 L472.1 89.8 449.95 65.1 445.15 67.5 444.4 66.55 Q442.9 64.9 441.0 64.9 L440.8 65.7 440.75 67.35 Q440.75 68.45 441.45 69.35 L436.2 71.85 Q418.05 80.6 416.15 80.65 L416.25 80.65 413.6 82.35 Q402.95 89.05 400.35 92.35 397.35 96.0 394.7 101.3 L390.25 110.25 Q385.85 118.05 379.85 132.45 374.4 145.45 374.4 146.7 374.4 147.0 375.75 149.05 377.1 151.1 377.1 151.95 L377.0 153.35 Q383.15 155.2 396.65 163.3 L415.15 174.75 Q424.6 180.6 426.7 181.2 L427.3 181.7 Q430.05 181.4 437.1 181.6 L432.25 187.6 Q423.75 193.2 418.45 203.1 L416.15 207.95 Q416.65 207.6 417.25 207.45 L417.1 208.05 414.0 213.25 413.95 213.25 413.85 212.95 412.75 215.3 Q409.45 222.5 406.45 226.35 L405.45 225.9 Q407.45 218.65 415.6 205.25 422.1 194.45 422.1 186.05 422.1 184.9 422.6 184.05 418.35 179.85 404.8 171.45 384.7 159.05 377.55 159.05 374.95 159.05 373.5 158.0 L374.55 157.35 Q372.9 158.6 370.45 158.6 366.55 158.6 364.85 155.35 L363.9 151.95 Q372.2 137.9 380.45 121.65 397.0 89.2 397.0 77.5 397.0 76.05 394.95 69.9 L393.85 66.65 Q372.95 53.8 366.75 51.85 360.25 49.8 354.15 46.4 349.2 43.65 343.4 42.45 334.85 40.7 309.2 39.2 300.95 43.6 298.0 45.9 L290.85 52.6 Q286.4 56.85 282.7 58.25 L290.35 48.9 Q295.5 42.55 297.55 39.15 L297.95 38.55 275.25 37.55 Q277.45 36.0 278.75 32.15 280.6 26.65 281.35 25.75 278.55 25.05 276.7 29.4 275.65 31.75 273.75 37.5 L244.9 36.45 171.2 36.0 139.55 34.7 137.9 36.95 Q134.3 41.55 134.3 44.2 134.3 50.6 135.55 57.65 136.3 61.65 138.7 71.75 L142.2 85.65 Q144.9 96.45 144.9 99.0 144.9 99.75 146.3 104.6 147.7 109.45 147.7 110.25 L147.6 111.85 147.0 112.25 145.9 112.25 Q142.25 100.45 141.25 96.45 138.9 87.1 138.9 80.65 138.9 78.25 136.95 68.3 134.9 57.6 133.2 52.5 131.25 46.8 128.3 41.9 L127.8 38.25 Q126.65 33.3 122.95 32.15 118.4 30.75 116.55 27.75 115.75 26.45 113.6 20.9 111.8 16.3 109.9 14.5 L109.0 14.7 113.35 29.8 114.4 33.7 101.8 33.3 84.65 34.35 Q74.6 24.05 71.1 24.5 72.55 29.65 75.9 35.95 L76.45 35.85 Q73.75 36.5 71.4 37.3 L71.4 37.9 Q71.4 42.5 51.65 51.35 L51.2 51.55 51.1 51.45 49.05 49.4 31.05 32.85 Q28.0 30.55 20.6 22.95 L15.3 17.55 M492.7 112.25 L494.85 110.65 Q496.1 109.85 496.65 109.6 502.45 120.55 517.8 146.4 542.35 187.75 542.35 193.25 L548.0 210.3 Q554.65 227.1 559.8 227.1 L563.4 226.25 Q568.05 226.95 575.3 229.0 L576.6 229.35 564.75 229.9 558.45 231.15 558.35 231.1 Q555.5 237.0 553.7 246.45 553.0 250.2 547.6 260.7 542.7 270.25 542.7 274.5 542.7 275.9 541.35 279.2 540.0 282.5 540.0 283.7 540.0 284.85 540.85 286.4 541.65 288.0 541.65 289.1 L541.4 290.2 541.65 289.45 545.9 294.4 546.35 294.95 546.4 294.7 546.5 294.85 547.7 294.8 550.65 295.05 551.8 297.0 551.4 297.8 549.65 298.1 548.75 298.1 555.8 307.4 555.55 307.4 555.45 307.4 Q553.5 307.45 553.5 309.7 L553.55 311.0 552.3 309.7 537.55 294.75 Q535.15 296.65 532.8 296.65 530.15 296.65 528.8 294.95 528.05 294.0 527.85 292.8 525.95 293.95 515.75 296.6 L515.8 295.95 515.8 295.85 515.8 295.8 515.45 295.35 514.7 294.6 Q523.7 290.9 529.15 286.95 537.8 280.65 540.45 271.1 L545.85 255.2 Q550.45 241.2 550.45 238.05 550.45 236.35 548.1 233.0 L547.75 232.45 Q548.5 232.35 548.9 231.95 L549.45 231.4 549.55 229.35 Q549.55 227.75 548.75 227.0 548.0 226.3 546.6 226.35 547.4 225.45 548.95 224.1 L551.35 221.85 Q547.6 214.35 542.35 201.9 538.05 195.75 532.6 185.9 L527.8 176.9 526.8 176.85 Q526.8 176.5 525.45 176.15 L526.95 175.35 521.1 163.8 512.15 145.75 Q506.8 142.2 504.45 139.05 501.65 135.35 493.45 134.25 L489.1 133.45 488.45 133.95 477.15 143.75 Q470.5 149.45 465.85 152.65 L459.95 157.3 459.9 157.35 460.5 156.55 471.5 141.55 471.6 141.45 471.65 141.4 471.75 141.2 472.25 140.4 472.35 140.15 Q462.45 151.5 453.5 162.1 L454.95 160.1 470.8 138.8 481.1 125.25 481.5 125.2 482.45 124.9 482.5 124.85 482.7 124.8 482.2 125.25 Q478.65 128.9 479.0 130.95 L479.7 130.95 Q480.35 129.55 483.45 126.05 L485.05 124.2 486.65 121.7 Q485.75 121.9 483.8 123.7 L483.5 123.05 485.35 122.1 485.55 121.05 485.55 120.8 485.35 119.85 487.0 117.75 Q489.55 114.5 493.6 113.25 L492.7 112.25 M500.65 125.8 L502.65 126.45 502.05 125.1 500.65 125.8 M511.4 157.35 Q511.4 158.5 509.65 159.75 508.05 160.85 507.0 160.85 L504.9 160.65 504.45 160.4 504.25 160.0 Q504.0 159.75 504.0 158.4 504.0 156.6 505.45 155.85 507.0 154.95 510.75 155.1 L511.1 155.65 Q511.4 156.05 511.4 157.35 M428.25 60.3 Q428.25 59.85 427.7 59.35 L427.15 58.95 Q426.15 58.95 425.3 59.5 424.45 60.0 424.45 60.5 425.1 61.2 426.7 61.4 L428.25 60.3 M437.6 41.95 Q437.6 41.9 439.15 41.15 440.8 40.2 441.45 39.45 L437.8 37.4 Q436.1 36.65 434.55 36.65 L434.45 37.1 434.35 39.25 Q434.35 41.5 434.55 41.25 L437.6 41.95 M447.3 42.4 L447.75 43.65 Q448.7 45.45 450.9 45.45 L452.65 45.15 453.0 44.55 453.45 43.3 Q452.75 40.45 450.0 40.25 447.3 40.0 447.3 42.4 M352.25 28.9 Q353.3 28.2 354.0 27.1 350.3 24.05 348.6 23.6 346.35 23.05 346.35 26.2 346.35 27.2 347.3 28.2 348.55 29.55 350.75 29.55 351.35 29.55 352.25 28.9 M331.2 17.4 Q330.1 17.9 327.15 20.75 324.0 23.75 322.65 25.75 L323.3 25.75 Q324.5 24.4 328.3 21.15 330.75 19.1 331.2 17.4 M364.8 165.25 L363.9 165.45 365.15 163.45 Q364.8 164.45 364.8 165.25 M399.9 182.25 L400.95 182.25 402.75 182.55 403.2 183.85 403.65 185.15 Q403.1 186.05 401.25 186.5 L399.95 186.1 Q399.45 185.8 399.45 184.35 L399.5 182.85 399.9 182.25 M444.1 179.95 L443.35 181.5 438.5 191.7 Q434.45 199.4 425.25 210.95 L408.7 231.25 Q396.9 246.05 391.95 257.05 L391.55 257.95 Q390.2 261.0 389.45 263.75 L389.15 262.6 389.5 262.25 389.9 261.9 390.0 259.6 390.0 258.85 Q390.0 254.05 390.35 253.35 L390.9 252.45 391.3 252.85 Q396.3 242.65 407.2 226.75 L407.6 226.25 411.3 221.45 Q411.35 222.65 411.6 221.5 419.4 210.4 434.7 191.5 L436.45 189.35 443.9 180.2 444.1 179.95 M389.1 275.45 L390.4 289.4 389.1 276.4 389.1 275.45 M393.0 312.05 L393.05 312.3 398.85 346.05 400.9 358.95 Q404.2 380.9 404.2 387.75 404.2 390.15 403.1 393.4 L402.95 393.85 Q402.8 380.15 401.0 360.4 L400.95 359.9 400.9 358.95 Q398.8 349.55 396.85 338.0 L395.0 326.25 394.45 322.5 393.0 312.05 M512.25 415.45 Q510.7 412.8 510.0 408.5 L508.8 399.45 Q508.05 394.45 506.55 392.25 503.2 387.45 498.35 378.9 L496.65 375.9 496.45 375.95 Q489.45 371.95 485.9 367.75 481.95 363.1 481.95 357.95 481.95 356.85 482.85 356.35 483.75 355.85 483.75 354.7 483.75 353.55 474.9 337.65 465.1 320.0 462.7 313.95 L462.9 312.5 463.8 312.5 470.95 327.95 Q475.3 337.2 478.35 342.3 485.25 353.85 492.1 358.0 493.95 359.15 494.4 360.7 495.0 362.65 495.0 369.1 495.0 370.15 496.05 371.5 497.4 373.2 498.0 375.05 L497.8 375.35 501.25 380.8 Q510.9 394.5 516.25 394.5 521.05 394.5 533.8 411.75 L537.45 416.8 533.25 417.15 533.35 414.2 533.3 414.05 532.25 413.85 529.9 414.25 Q528.6 414.65 527.7 415.15 527.1 416.05 527.1 414.65 527.15 413.9 528.05 410.95 L529.0 407.3 528.95 407.15 527.9 407.0 Q526.8 406.95 523.7 410.3 520.65 413.55 519.8 415.5 L518.6 415.05 Q517.45 414.55 516.7 414.55 516.35 415.15 516.2 416.1 L516.0 417.95 514.55 416.4 Q513.6 415.5 512.3 415.45 L512.25 415.45 M454.95 183.6 Q454.85 184.6 454.45 185.05 L453.0 185.85 451.5 185.45 Q451.0 185.15 451.0 183.7 451.0 182.3 451.65 182.0 L453.0 181.8 Q453.75 182.1 454.25 182.65 L454.95 183.6 M477.3 181.75 L474.95 183.0 473.7 182.75 Q473.25 182.5 473.25 181.1 473.25 177.15 477.55 177.85 479.25 178.55 479.55 179.65 479.25 180.5 477.3 181.75 M407.55 266.5 Q408.5 266.3 412.2 267.25 416.8 268.4 418.15 270.3 L417.7 272.7 416.45 273.15 414.0 273.6 Q410.45 273.6 407.35 268.3 L407.55 266.5 M441.55 282.0 Q444.45 282.75 444.7 285.75 443.85 287.0 442.45 287.55 L439.85 286.4 439.65 284.7 Q439.8 283.95 440.3 283.2 440.85 282.3 441.55 282.0 M433.65 278.2 L433.35 279.7 Q433.05 280.2 431.55 280.2 L429.6 280.0 429.3 279.75 428.85 279.2 Q428.4 278.75 428.4 277.4 428.4 276.0 428.65 275.9 L428.85 276.05 430.05 276.0 432.9 276.3 Q432.9 276.85 433.65 278.2 M387.1 249.9 L385.4 250.05 381.95 249.7 380.85 249.6 379.35 248.95 320.8 232.15 313.2 229.95 311.8 229.55 281.4 220.1 280.15 219.65 Q281.15 219.8 282.15 220.25 294.9 224.5 307.25 226.75 318.75 228.8 324.55 230.95 328.7 232.5 361.5 240.8 379.65 245.95 387.1 249.9 M270.3 223.2 Q267.6 227.7 263.5 231.6 L262.45 232.5 262.3 232.6 Q264.3 229.4 266.85 226.55 268.6 224.6 270.3 223.2 M261.15 237.7 L263.85 234.05 264.75 232.95 264.9 232.7 Q270.95 225.15 276.4 219.8 L277.7 219.55 Q286.05 224.75 307.9 230.45 342.45 239.55 353.25 243.65 358.8 245.8 368.1 247.95 376.1 249.85 379.05 251.4 383.75 253.8 385.8 258.75 L386.5 260.65 Q388.1 266.0 388.1 275.05 388.1 285.15 391.45 306.6 L393.6 322.2 391.5 321.95 391.45 322.15 391.35 324.0 Q391.35 325.4 391.5 325.6 L391.95 326.0 392.0 326.25 393.75 326.45 394.5 326.4 394.05 326.45 Q394.75 333.45 394.75 338.05 394.75 339.2 395.6 343.9 L396.45 349.75 Q396.45 351.95 398.15 358.1 399.8 364.25 399.8 366.4 L400.65 376.85 401.5 387.3 Q401.5 391.8 400.2 397.55 L399.0 397.8 Q393.4 397.8 389.75 373.7 386.35 344.4 384.5 334.1 381.05 309.3 379.3 293.6 L379.45 293.7 379.6 293.95 381.45 294.15 Q383.0 294.15 383.6 293.15 L384.3 291.7 Q383.25 289.8 381.0 288.0 381.0 288.7 379.8 289.7 L378.95 290.5 378.55 286.5 Q379.35 285.85 379.35 284.7 379.35 283.35 378.95 282.95 L378.55 282.45 378.5 282.45 378.15 282.3 Q377.4 274.3 377.4 270.3 377.4 265.15 371.25 261.65 367.35 259.4 357.75 256.65 347.6 253.7 344.2 252.0 339.5 249.6 338.4 246.45 L339.75 246.9 334.5 245.2 Q286.25 229.7 274.95 229.7 274.3 229.7 269.7 233.8 264.55 238.4 263.0 239.25 L261.15 237.7 M324.9 323.65 Q324.9 325.25 323.8 325.8 L319.95 326.25 316.05 325.65 Q313.85 325.05 312.5 324.2 313.85 322.15 315.1 321.7 L324.2 321.3 324.55 321.9 Q324.9 322.35 324.9 323.65 M459.65 315.0 L460.45 316.9 460.35 317.55 459.05 315.6 457.85 313.65 458.55 313.65 459.65 315.0 M588.15 271.35 L586.45 272.7 Q584.75 272.1 584.3 270.9 584.3 270.0 585.05 269.2 585.7 268.45 586.45 268.3 587.85 268.9 588.7 270.0 588.7 270.65 588.15 271.35 M597.7 278.4 Q597.25 279.7 596.1 280.0 593.55 278.95 592.85 278.1 593.65 276.55 593.95 276.35 L597.0 276.5 597.25 277.45 597.7 278.4 M611.1 292.8 Q612.65 292.8 614.1 293.8 615.55 294.8 615.9 296.1 L615.45 297.45 615.25 298.05 613.65 298.35 Q611.9 298.35 611.1 296.95 610.65 296.15 610.65 295.3 610.65 293.95 610.8 293.65 L611.1 292.8 M563.25 304.05 Q563.25 300.9 567.5 302.55 570.25 303.65 572.85 305.65 570.85 308.1 568.9 308.1 565.95 308.1 564.3 306.1 L563.25 304.05 M555.0 312.45 L555.8 312.5 555.95 312.5 556.05 312.5 556.15 312.5 556.2 312.5 Q557.65 312.5 558.35 311.9 L558.75 311.35 Q566.15 321.3 571.3 327.25 L570.5 326.1 Q568.95 324.05 568.55 322.95 L572.7 322.85 575.05 323.05 Q579.35 319.7 587.7 315.6 594.55 312.3 600.05 310.35 L600.4 310.15 Q600.75 310.2 600.75 311.6 600.75 314.85 589.1 319.2 582.15 321.8 576.95 323.1 L578.9 322.85 579.6 322.85 579.65 322.5 579.7 323.85 Q579.7 324.8 578.2 326.15 576.65 327.5 576.65 327.8 576.65 329.55 574.3 335.7 571.65 342.8 569.0 346.15 L568.7 345.3 Q568.35 344.55 568.35 343.2 568.35 340.9 570.1 335.55 571.55 331.0 571.8 328.95 L571.25 328.95 Q570.95 328.95 555.0 312.45 M507.35 298.6 L499.15 299.9 506.35 297.65 507.35 298.6 M502.85 315.45 L502.4 316.65 500.4 317.55 498.95 317.2 Q498.45 316.9 498.45 315.45 498.45 313.95 499.5 313.4 500.45 312.9 501.95 313.4 L502.25 314.4 502.85 315.45 M508.95 371.25 Q508.95 366.35 511.9 369.3 514.3 371.7 515.35 374.4 L515.1 375.5 514.0 375.75 Q511.55 375.6 510.05 373.6 508.95 372.2 508.95 371.25 M532.45 388.35 Q530.45 388.35 528.75 385.9 527.4 383.95 527.4 383.15 L527.5 381.35 527.6 381.25 Q529.95 381.5 531.9 383.25 L534.7 386.55 534.25 387.7 Q533.85 388.35 532.45 388.35 M622.15 332.2 L618.75 333.3 617.05 332.2 Q617.4 329.65 620.7 329.05 L624.45 328.95 625.35 329.6 Q624.2 331.3 622.15 332.2 M635.7 338.4 Q633.35 338.4 632.15 335.95 L631.45 333.9 Q631.45 330.75 634.2 331.55 637.05 332.4 638.75 336.45 L637.9 337.65 Q637.15 338.4 635.7 338.4 M597.9 356.5 L595.8 355.0 Q595.35 354.6 595.35 353.8 595.35 352.25 595.85 351.65 596.2 351.2 597.0 351.0 597.95 351.7 598.5 353.1 L599.25 355.35 Q598.95 356.05 597.9 356.5 M309.35 39.2 L315.35 39.55 Q316.6 36.15 317.35 32.85 315.25 33.75 309.35 39.2 M276.0 62.85 Q280.7 58.8 283.8 58.05 282.05 60.2 277.95 63.85 273.2 68.1 270.0 69.95 271.45 66.85 276.0 62.85 M172.45 28.9 Q173.7 28.9 174.55 27.9 L175.6 26.55 Q175.05 23.85 170.1 23.85 L169.8 24.8 Q169.65 25.1 169.65 26.4 169.65 27.7 169.9 28.0 L170.1 28.45 170.45 28.7 172.45 28.9 M216.45 19.45 Q216.45 20.85 217.05 20.85 L219.45 20.7 220.8 19.65 220.6 18.9 218.85 18.3 217.65 18.1 217.05 18.0 Q216.45 18.05 216.45 19.45 M217.9 103.15 L217.9 103.8 216.9 104.5 210.9 104.25 210.7 104.6 Q210.45 104.65 210.45 103.25 210.45 101.85 211.05 102.0 L211.6 102.25 214.55 102.45 Q217.55 102.7 217.9 103.15 M222.3 183.85 L222.35 183.9 221.85 183.75 221.4 183.6 221.2 183.85 220.95 184.25 222.6 184.0 Q226.9 186.35 229.25 187.85 L229.4 188.1 230.75 190.85 230.8 191.05 231.3 192.5 Q232.65 197.0 232.65 202.15 L231.6 211.25 230.8 217.35 228.65 220.25 227.55 221.95 228.0 221.25 224.1 221.05 Q209.7 221.6 198.9 221.6 L179.05 220.95 164.6 220.25 165.25 220.3 Q174.75 225.9 200.1 226.8 L200.25 227.35 Q196.85 229.6 184.3 230.45 L171.75 230.85 Q170.35 230.85 163.05 224.45 154.7 217.1 151.65 211.25 150.2 208.55 148.55 202.35 147.5 198.35 147.1 195.5 L144.9 190.9 Q141.45 183.8 139.2 180.15 L138.15 178.55 137.2 177.3 137.1 175.95 137.2 175.25 139.15 171.3 138.15 172.6 140.05 169.4 Q142.9 165.1 146.5 161.75 150.5 158.0 152.95 157.85 154.05 157.75 154.75 158.45 161.55 155.5 192.45 169.2 206.35 175.3 219.7 182.45 L222.3 183.85 M198.55 174.35 L198.55 173.7 Q191.8 168.95 173.6 163.4 162.05 159.85 155.5 159.6 150.5 159.4 148.4 161.1 L148.15 161.3 Q148.4 161.1 148.7 160.95 150.05 160.25 152.55 160.2 L155.7 160.4 Q162.2 161.1 173.55 164.85 182.2 167.7 198.55 174.35 M235.65 182.55 Q236.4 182.55 237.4 182.95 L238.1 183.25 239.1 183.8 239.25 183.85 239.35 183.9 239.5 184.0 239.9 184.25 245.35 187.65 245.25 187.7 Q242.8 188.0 240.1 186.15 L235.65 182.55 M231.8 179.1 L234.9 181.2 Q230.15 180.7 229.35 178.3 230.8 178.4 231.8 179.1 M297.9 146.9 L295.5 146.6 294.75 146.25 294.5 143.2 296.85 143.35 Q298.75 143.85 300.0 145.55 L300.0 146.25 Q300.15 146.9 297.9 146.9 M269.45 118.65 L273.35 118.35 274.5 119.7 Q272.3 123.3 270.65 123.3 L266.3 122.7 Q263.65 122.1 263.25 121.6 L263.25 119.55 269.45 118.65 M251.4 123.05 Q252.45 123.2 253.8 123.85 L253.8 125.2 253.15 125.55 251.3 125.85 249.7 125.65 249.75 125.4 249.55 125.7 Q249.3 125.7 249.3 124.3 249.3 122.9 249.45 122.8 L249.6 122.95 251.4 123.05 M278.3 142.5 L276.8 142.15 Q276.3 141.85 276.3 140.4 276.3 139.0 276.4 139.1 L276.5 139.5 Q277.3 138.7 280.35 138.7 L280.9 140.5 279.85 141.65 Q278.95 142.35 278.3 142.5 M148.8 20.9 Q149.3 22.2 150.95 22.7 L152.35 22.2 153.2 21.8 Q153.45 21.7 153.45 19.45 L153.25 17.4 153.0 16.5 Q149.8 15.55 148.95 16.85 148.6 17.35 148.6 19.2 L148.8 20.9 M95.7 90.55 L93.7 90.45 91.8 90.0 91.6 89.55 Q91.35 89.25 91.35 87.95 91.35 85.5 93.65 85.1 96.15 84.6 98.2 87.75 L97.35 89.55 Q96.7 90.55 95.7 90.55 M107.1 94.05 L105.95 93.6 Q105.6 93.25 105.6 91.8 105.6 90.35 106.0 90.15 L107.1 90.0 Q108.1 90.4 108.9 92.45 108.05 93.8 107.1 94.05 M39.45 70.3 Q37.65 71.3 33.5 72.9 L31.8 71.75 Q31.9 70.35 32.6 69.45 34.0 67.75 38.1 68.6 L38.6 69.4 39.45 70.3 M45.75 68.7 Q45.45 68.45 45.45 67.15 45.45 65.2 47.4 64.65 L51.85 64.8 52.2 65.1 Q52.5 65.35 52.5 66.7 52.5 67.55 51.25 68.45 L49.35 69.6 46.0 69.15 45.75 68.7 M51.25 115.0 Q50.8 115.65 49.35 115.65 45.35 115.65 42.75 111.15 40.95 108.0 40.95 106.4 40.95 102.05 42.4 101.25 43.6 100.55 45.65 102.55 50.15 107.0 51.6 113.85 L51.25 115.0 M43.4 143.0 Q43.2 142.8 43.2 141.4 43.2 140.1 44.7 139.7 L49.35 139.6 Q49.35 140.05 50.25 141.4 48.9 143.4 44.1 143.4 L43.4 143.0 M22.15 196.3 L22.25 194.75 22.35 194.85 23.45 194.85 25.65 195.15 26.1 196.4 25.4 197.55 22.6 197.75 22.4 197.7 Q22.15 197.65 22.15 196.3 M36.1 194.65 L35.75 194.4 Q35.55 194.4 35.55 192.15 35.55 189.55 37.8 189.5 40.1 189.45 40.8 193.8 L40.15 194.35 38.1 194.85 36.1 194.65 M145.0 144.45 Q146.25 144.45 147.75 145.25 149.7 146.3 151.2 148.5 L150.55 149.2 148.35 149.4 Q147.0 149.4 145.85 147.8 144.9 146.5 144.9 145.9 L144.95 144.35 145.0 144.45 M112.6 160.2 Q106.75 160.2 104.55 158.75 103.05 157.8 103.05 156.0 103.05 153.95 105.55 152.85 107.75 151.85 111.05 151.95 114.25 152.1 116.5 153.15 119.0 154.35 119.0 156.15 119.0 157.85 116.8 159.1 114.8 160.2 112.6 160.2 M140.4 168.95 Q139.7 170.1 139.35 171.75 L140.05 171.75 Q140.15 171.05 140.75 169.85 L141.75 167.85 Q141.05 167.85 140.4 168.95 M155.4 266.3 Q156.05 259.1 160.35 262.4 L160.45 262.45 160.2 262.45 159.35 262.45 157.4 262.35 156.3 264.8 155.75 265.75 155.4 266.3 M163.3 265.35 Q166.85 269.7 171.6 278.6 177.95 290.55 182.85 303.65 187.95 317.35 187.95 323.2 187.95 324.75 187.45 325.5 L185.7 327.0 Q175.35 322.5 171.6 313.65 170.65 311.4 169.15 306.05 167.75 301.2 166.5 298.65 165.0 295.65 163.95 291.3 162.9 287.05 162.9 283.95 162.9 280.9 159.1 275.9 155.25 270.9 155.25 269.3 L155.25 268.35 156.8 267.15 157.6 266.55 157.0 267.0 Q159.45 266.75 163.3 265.35 M186.05 334.95 Q186.55 333.35 188.3 332.3 191.85 338.4 194.05 346.65 195.2 351.05 197.1 361.65 L196.65 364.05 Q196.55 364.05 196.6 364.5 196.45 364.95 195.05 364.95 192.95 364.95 189.2 351.45 185.85 339.45 185.85 337.7 185.85 335.65 186.05 334.95 M200.7 389.8 Q200.7 391.3 200.4 391.9 L199.55 392.85 197.85 392.85 Q197.1 384.05 197.1 381.8 197.1 378.8 197.75 376.85 L198.9 376.85 200.15 383.95 200.7 389.8 M232.9 356.3 Q232.65 356.05 232.65 354.7 232.65 352.8 234.25 352.35 235.6 352.0 239.85 352.35 L240.2 352.85 Q240.5 353.25 240.5 354.6 240.5 356.2 239.35 356.75 L236.55 357.15 234.0 356.95 233.1 356.7 232.9 356.3 M244.55 359.85 L244.9 359.55 246.4 360.75 248.4 362.7 247.8 363.85 Q247.2 364.5 245.8 364.5 244.4 364.5 243.9 363.85 L243.6 363.25 243.2 362.7 243.0 361.65 Q243.1 361.05 244.05 360.3 L244.55 359.9 244.55 359.85 M308.35 319.15 Q308.55 319.15 308.55 320.5 308.55 322.2 306.5 323.15 305.15 323.75 304.2 323.75 L302.45 323.55 302.4 323.3 301.95 323.05 Q301.8 322.95 301.8 321.6 301.8 320.25 303.95 319.5 L307.65 319.15 308.35 319.15" fill="#acb19e" fill-rule="evenodd" stroke="none"/>
      <path d="M652.25 409.35 L653.3 408.75 655.55 407.85 661.4 405.65 662.85 406.1 662.8 409.4 Q665.8 408.8 666.75 407.45 667.4 406.45 668.95 406.5 670.35 406.55 670.5 406.9 L670.4 407.2 671.35 410.25 671.4 410.5 672.3 410.25 Q673.85 406.65 674.35 404.3 675.45 404.4 677.0 405.2 L678.35 405.95 678.7 406.15 680.75 408.45 683.8 412.1 682.9 411.75 679.45 409.8 Q676.1 407.7 675.6 407.75 675.0 408.85 673.3 410.4 671.3 412.15 669.45 412.7 L669.2 412.0 668.95 410.65 Q669.55 408.0 669.3 407.4 L667.35 409.95 Q665.55 411.6 661.3 411.85 L660.9 412.3 Q660.5 412.4 660.5 411.0 660.55 409.75 661.0 408.9 L661.5 407.45 656.8 409.55 651.2 412.05 651.15 412.05 Q649.0 413.05 647.8 413.05 646.15 413.0 646.0 412.2 L647.5 409.85 Q646.05 410.7 636.9 411.45 L632.45 411.65 627.25 411.65 Q624.7 411.6 624.3 410.8 624.1 410.4 624.15 409.6 L619.55 409.4 Q613.1 409.25 602.4 411.6 L588.55 414.35 580.1 414.7 574.95 415.1 571.7 415.7 568.4 416.2 Q553.1 415.85 542.4 417.65 L532.1 419.35 530.9 419.15 530.6 418.95 530.5 416.85 Q528.35 416.75 527.05 417.7 525.75 418.7 525.1 418.65 L524.0 418.4 523.8 417.5 Q523.7 416.95 523.75 416.15 523.75 415.95 524.5 414.3 L525.5 412.2 525.2 412.15 Q523.75 412.95 522.65 415.45 521.55 418.05 520.3 418.7 L517.85 416.95 Q517.9 418.05 517.65 418.4 517.25 418.95 515.85 418.95 514.95 418.9 513.75 417.85 L512.3 416.6 Q511.25 418.65 508.95 420.4 504.95 423.35 499.65 423.25 498.8 423.2 498.65 422.85 L498.5 422.2 498.7 421.55 498.6 420.95 487.0 423.5 481.9 422.55 473.95 421.55 Q468.6 421.4 468.35 422.2 468.1 422.95 465.1 422.9 459.95 422.8 455.0 419.6 L449.1 415.5 448.55 417.85 447.2 420.0 446.2 419.2 Q445.2 418.55 441.7 418.45 L441.3 420.05 Q441.05 421.0 440.45 421.4 L437.9 420.65 432.6 419.95 431.3 420.2 409.2 420.05 403.65 421.2 Q402.8 421.15 396.9 419.15 L390.1 416.9 366.8 412.55 Q372.55 415.15 374.85 417.35 L373.75 417.9 Q372.2 416.7 368.65 415.65 364.5 414.3 360.3 411.85 L360.45 412.35 Q360.85 413.65 360.4 414.9 L360.3 415.05 359.15 415.1 Q358.35 415.1 357.5 414.55 356.4 413.75 352.0 413.0 L352.1 414.5 Q351.9 415.8 350.65 415.8 L347.35 415.0 Q344.7 414.25 344.0 414.25 342.85 414.2 342.7 415.05 342.6 415.85 341.7 415.85 L338.25 415.2 336.8 414.85 336.65 414.85 332.8 414.6 Q330.35 415.35 328.2 415.3 L322.05 414.75 316.7 413.95 318.1 413.65 316.8 413.65 Q313.85 413.6 309.75 411.3 L309.6 411.55 309.55 412.4 310.0 414.1 Q310.15 415.25 309.1 416.2 308.6 415.85 305.7 415.3 L301.75 414.75 300.3 414.85 299.0 415.2 Q299.5 415.7 299.6 416.45 299.7 417.25 299.35 417.7 L282.0 419.8 263.15 421.55 252.75 417.6 Q252.7 419.25 251.65 419.7 249.3 419.15 246.8 416.65 L243.8 413.5 243.8 414.0 244.4 415.25 Q244.8 416.0 244.8 416.55 L243.35 417.05 238.55 413.3 Q235.25 410.6 234.85 410.6 L234.15 410.6 235.25 412.85 Q233.15 410.7 232.0 410.25 L231.55 410.95 231.05 409.8 230.2 409.2 Q229.7 411.05 228.05 414.5 225.3 420.1 222.7 421.8 L221.8 421.55 221.2 419.65 Q220.95 418.35 220.4 417.65 217.35 420.0 216.5 420.35 213.7 421.25 205.1 421.75 L204.2 422.8 Q203.75 423.25 202.75 423.25 201.9 423.2 201.45 422.85 L201.05 422.5 201.15 421.65 Q199.95 422.6 198.75 422.6 197.4 422.55 196.8 422.1 196.7 422.2 196.75 420.8 196.75 420.05 197.0 419.45 L197.2 418.8 Q195.05 420.25 189.0 421.7 181.75 423.4 174.85 423.25 L172.65 422.85 Q171.45 422.45 171.0 422.1 L171.0 422.0 170.4 421.45 Q170.75 420.2 171.75 419.3 L159.8 422.65 Q148.8 425.5 140.35 425.3 132.6 425.15 125.05 426.65 121.25 427.45 118.9 428.25 117.55 428.2 116.1 427.65 119.05 427.3 122.45 425.95 L125.5 424.8 118.2 425.15 106.3 425.55 105.0 425.3 104.55 424.7 104.85 423.8 110.4 422.45 106.4 421.0 Q103.65 420.95 98.6 422.1 93.6 423.2 89.55 423.1 L88.2 422.75 87.65 422.05 89.25 420.1 90.95 418.3 78.65 421.4 Q70.8 423.5 69.55 424.35 L68.7 424.05 Q68.5 423.5 68.55 422.55 L68.4 421.5 63.5 422.25 58.4 422.55 Q57.0 422.5 57.65 422.45 L57.2 421.25 57.6 420.6 57.7 420.15 60.45 420.05 Q67.4 419.75 68.85 419.0 69.2 417.95 70.8 417.55 L71.8 418.5 71.9 419.8 71.7 421.6 Q78.4 419.4 84.05 417.75 L85.85 417.25 Q93.75 414.95 95.95 415.25 L96.55 415.45 Q96.75 416.4 95.8 417.5 L94.9 418.3 92.1 420.7 95.6 420.8 95.9 420.8 Q97.6 420.15 100.45 419.6 L102.85 419.2 105.35 419.05 Q106.5 419.05 108.95 419.8 112.05 420.8 112.05 421.75 L112.0 422.15 112.05 422.15 112.8 422.05 Q119.25 421.15 125.25 421.9 131.45 422.45 132.15 423.3 L132.2 423.35 132.15 423.65 138.8 423.6 143.4 423.5 150.1 422.85 152.85 422.25 Q154.1 421.65 155.35 421.15 L155.6 421.0 156.1 420.8 156.85 420.5 157.15 420.35 168.05 417.0 169.6 416.75 Q176.25 415.85 176.2 418.25 176.15 419.6 175.95 419.15 L174.1 420.85 174.4 420.85 174.6 420.85 183.25 419.85 Q188.35 419.0 192.45 417.75 L196.4 416.3 Q198.5 415.4 198.8 415.8 L198.95 416.45 199.35 419.75 Q200.45 419.7 202.05 418.5 203.6 417.3 204.35 417.2 204.05 418.35 202.55 420.25 L201.8 421.05 210.05 419.3 Q215.1 418.3 219.8 414.05 222.6 414.95 223.75 418.55 225.3 416.95 224.8 412.65 L224.7 410.0 Q224.75 407.8 225.5 406.9 226.3 407.1 228.0 409.35 L228.55 406.85 228.85 405.4 231.65 405.85 231.8 405.55 231.9 405.75 Q233.55 406.5 235.7 408.25 L238.5 410.75 238.5 410.8 Q240.4 412.45 241.1 412.9 L241.3 412.75 Q241.1 411.3 242.95 409.6 244.45 410.45 246.3 413.3 248.05 415.9 250.2 416.75 L250.95 415.35 Q251.35 414.8 252.05 414.85 261.85 419.1 263.15 419.1 L282.0 417.8 286.9 417.3 296.85 415.8 296.8 415.4 296.75 415.1 296.75 415.0 Q296.75 413.0 299.1 412.25 302.25 411.25 307.6 413.15 L307.6 413.0 Q307.65 410.15 308.0 408.9 307.6 408.65 309.0 408.7 L314.05 410.05 Q319.35 411.65 320.25 412.9 L318.9 413.45 325.85 413.0 329.65 413.5 334.65 413.3 337.2 413.65 342.95 412.3 345.7 412.65 348.6 413.05 Q348.65 411.75 349.7 410.4 L355.45 411.1 357.7 411.5 Q356.25 407.95 364.35 411.45 L365.5 411.95 366.15 411.65 367.05 411.45 386.0 415.55 393.8 417.25 Q402.95 419.15 405.35 419.2 L407.4 419.0 407.85 418.95 408.75 418.65 428.8 418.8 429.1 418.8 430.25 418.8 Q430.6 418.5 430.85 418.35 431.25 418.05 432.1 418.1 L438.6 418.35 Q439.55 416.05 440.5 415.8 441.05 415.7 442.15 416.45 L442.25 416.5 442.4 416.6 Q444.7 418.0 446.75 415.05 447.65 413.6 448.7 413.15 449.95 412.55 450.7 413.5 452.75 415.8 455.3 417.5 460.45 420.85 466.3 420.95 467.2 421.0 467.1 420.75 L466.75 420.25 Q466.85 419.45 473.45 419.55 L488.8 421.15 Q492.95 421.25 495.1 420.1 497.2 418.95 499.5 419.0 500.4 419.0 500.9 420.0 L501.25 421.0 Q504.9 421.1 507.7 418.35 509.15 416.9 510.2 416.2 510.55 415.4 512.25 415.45 L512.3 415.45 Q513.6 415.5 514.55 416.4 L516.0 417.95 516.2 416.1 Q516.35 415.15 516.7 414.55 517.45 414.55 518.6 415.05 L519.8 415.5 Q520.65 413.55 523.7 410.3 526.8 406.95 527.9 407.0 L528.95 407.15 529.0 407.3 528.05 410.95 Q527.15 413.9 527.1 414.65 527.1 416.05 527.7 415.15 528.6 414.65 529.9 414.25 L532.25 413.85 533.3 414.05 533.35 414.2 533.25 417.15 537.45 416.8 556.55 415.15 587.75 412.95 604.55 409.25 Q617.95 406.35 627.35 406.55 628.2 406.55 628.2 406.85 L628.1 407.4 626.75 409.1 627.8 409.65 636.05 410.05 Q643.75 409.85 647.0 408.4 L650.1 406.95 Q650.05 408.65 649.45 410.7 L651.55 409.8 652.25 409.35 M56.95 420.95 L56.95 421.0 56.4 420.75 55.3 417.55 55.15 417.85 54.5 419.4 Q53.95 420.45 52.75 421.15 L49.95 418.1 Q47.7 415.5 46.3 414.95 L46.3 415.3 46.05 418.65 45.55 418.75 44.05 418.85 Q43.0 418.8 39.8 417.35 36.55 415.85 35.4 415.85 L34.4 416.7 33.2 417.5 Q29.9 417.45 28.0 416.0 26.1 414.5 25.25 414.5 24.55 414.45 23.9 415.05 23.2 415.6 22.55 415.6 L21.35 414.5 19.15 410.95 Q16.35 406.9 12.9 403.1 L16.1 404.55 16.3 404.7 16.35 404.7 16.6 404.9 20.75 408.3 21.6 409.05 Q27.8 414.65 32.2 414.75 L33.15 413.75 Q34.05 412.7 34.95 412.75 35.65 412.75 37.6 413.5 L39.6 414.35 43.7 415.9 Q43.75 413.5 44.1 412.25 44.0 411.95 45.4 411.95 46.75 412.0 47.95 412.7 L48.1 412.8 49.3 413.85 Q51.75 416.5 53.0 417.2 L53.65 416.0 Q53.85 415.5 54.4 415.15 L54.8 414.9 56.35 417.15 Q57.4 418.75 57.4 419.45 L57.25 420.6 56.95 420.95" fill="#6f8a53" fill-rule="evenodd" stroke="none"/>
      <path d="M583.35 231.15 L597.9 252.65 Q623.6 290.1 634.8 308.4 640.2 339.8 643.15 355.35 645.65 368.4 651.8 407.15 L652.25 409.35 651.55 409.8 649.45 410.7 Q650.05 408.65 650.1 406.95 L647.0 408.4 Q643.75 409.85 636.05 410.05 L627.8 409.65 626.75 409.1 628.1 407.4 628.2 406.85 Q628.2 406.55 627.35 406.55 617.95 406.35 604.55 409.25 L587.75 412.95 556.55 415.15 537.45 416.8 533.8 411.75 Q521.05 394.5 516.25 394.5 510.9 394.5 501.25 380.8 L497.8 375.35 498.0 375.05 Q497.4 373.2 496.05 371.5 495.0 370.15 495.0 369.1 495.0 362.65 494.4 360.7 493.95 359.15 492.1 358.0 485.25 353.85 478.35 342.3 475.3 337.2 470.95 327.95 L463.8 312.5 462.9 312.5 462.7 313.95 Q465.1 320.0 474.9 337.65 483.75 353.55 483.75 354.7 483.75 355.85 482.85 356.35 481.95 356.85 481.95 357.95 481.95 363.1 485.9 367.75 489.45 371.95 496.45 375.95 L496.65 375.9 498.35 378.9 Q503.2 387.45 506.55 392.25 508.05 394.45 508.8 399.45 L510.0 408.5 Q510.7 412.8 512.25 415.45 510.55 415.4 510.2 416.2 509.15 416.9 507.7 418.35 504.9 421.1 501.25 421.0 L500.9 420.0 Q500.4 419.0 499.5 419.0 497.2 418.95 495.1 420.1 492.95 421.25 488.8 421.15 L473.45 419.55 Q466.85 419.45 466.75 420.25 L467.1 420.75 Q467.2 421.0 466.3 420.95 460.45 420.85 455.3 417.5 452.75 415.8 450.7 413.5 449.95 412.55 448.7 413.15 447.65 413.6 446.75 415.05 444.7 418.0 442.4 416.6 L442.25 416.5 442.15 416.45 Q441.05 415.7 440.5 415.8 439.55 416.05 438.6 418.35 L432.1 418.1 Q431.25 418.05 430.85 418.35 430.6 418.5 430.25 418.8 L429.1 418.8 428.8 418.8 408.75 418.65 407.85 418.95 407.25 417.85 Q404.55 413.05 404.55 412.5 L403.75 404.35 402.95 396.2 402.95 393.85 403.1 393.4 Q404.2 390.15 404.2 387.75 404.2 380.9 400.9 358.95 L398.85 346.05 393.05 312.3 393.0 312.05 391.05 295.75 390.45 289.95 390.4 289.4 389.1 275.45 389.1 275.4 Q389.15 270.85 389.8 265.3 L389.45 263.75 Q390.2 261.0 391.55 257.95 L391.95 257.05 Q396.9 246.05 408.7 231.25 L425.25 210.95 Q434.45 199.4 438.5 191.7 L443.35 181.5 444.1 179.95 448.3 174.8 Q448.3 172.6 459.05 158.45 L459.95 157.3 465.85 152.65 Q470.5 149.45 477.15 143.75 L488.45 133.95 489.1 133.45 493.45 134.25 Q501.65 135.35 504.45 139.05 506.8 142.2 512.15 145.75 L521.1 163.8 526.95 175.35 525.45 176.15 Q526.8 176.5 526.8 176.85 L527.8 176.9 532.6 185.9 Q538.05 195.75 542.35 201.9 547.6 214.35 551.35 221.85 L548.95 224.1 Q547.4 225.45 546.6 226.35 L543.9 226.8 543.5 227.35 543.45 228.7 Q543.45 229.5 544.2 230.75 545.25 232.5 546.95 232.5 L547.75 232.45 548.1 233.0 Q550.45 236.35 550.45 238.05 550.45 241.2 545.85 255.2 L540.45 271.1 Q537.8 280.65 529.15 286.95 523.7 290.9 514.7 294.6 L513.95 293.95 Q511.95 292.3 509.9 291.25 504.0 288.2 504.0 293.25 L505.45 296.55 506.35 297.65 499.15 299.9 507.35 298.6 Q508.9 299.7 510.95 299.7 512.55 299.7 513.9 299.0 515.5 298.15 515.75 296.6 525.95 293.95 527.85 292.8 528.05 294.0 528.8 294.95 530.15 296.65 532.8 296.65 535.15 296.65 537.55 294.75 L552.3 309.7 553.55 311.0 553.65 311.5 553.8 312.05 554.15 312.3 555.0 312.45 Q570.95 328.95 571.25 328.95 L571.8 328.95 Q571.55 331.0 570.1 335.55 568.35 340.9 568.35 343.2 568.35 344.55 568.7 345.3 L569.0 346.15 Q571.65 342.8 574.3 335.7 576.65 329.55 576.65 327.8 576.65 327.5 578.2 326.15 579.7 324.8 579.7 323.85 L579.65 322.5 579.6 322.85 578.9 322.85 576.95 323.1 Q582.15 321.8 589.1 319.2 600.75 314.85 600.75 311.6 600.75 310.2 600.4 310.15 L600.05 310.35 Q594.55 312.3 587.7 315.6 579.35 319.7 575.05 323.05 L572.7 322.85 568.55 322.95 Q568.95 324.05 570.5 326.1 L571.3 327.25 Q566.15 321.3 558.75 311.35 L558.35 311.9 559.45 310.25 Q557.5 307.4 555.55 307.4 L555.8 307.4 548.75 298.1 549.65 298.1 551.4 297.8 551.8 297.0 550.65 295.05 547.7 294.8 546.5 294.85 546.4 294.7 546.35 294.95 545.9 294.4 541.65 289.45 541.4 290.2 541.65 289.1 Q541.65 288.0 540.85 286.4 540.0 284.85 540.0 283.7 540.0 282.5 541.35 279.2 542.7 275.9 542.7 274.5 542.7 270.25 547.6 260.7 553.0 250.2 553.7 246.45 555.5 237.0 558.35 231.1 L558.45 231.15 564.75 229.9 576.6 229.35 583.35 231.15 M57.6 420.6 L57.25 421.15 56.95 420.95 57.25 420.6 57.4 419.45 Q57.4 418.75 56.35 417.15 L54.8 414.9 54.4 415.15 Q53.85 415.5 53.65 416.0 L53.0 417.2 Q51.75 416.5 49.3 413.85 L48.1 412.8 47.95 412.7 Q46.75 412.0 45.4 411.95 44.0 411.95 44.1 412.25 43.75 413.5 43.7 415.9 L39.6 414.35 37.6 413.5 Q35.65 412.75 34.95 412.75 34.05 412.7 33.15 413.75 L32.2 414.75 Q27.8 414.65 21.6 409.05 L20.75 408.3 16.6 404.9 16.35 404.7 16.3 404.7 16.1 404.55 15.05 403.8 12.2 395.45 Q9.4 387.15 9.45 386.2 9.65 377.4 10.9 373.45 L11.65 356.4 Q10.75 324.1 10.8 321.85 L7.55 290.75 Q5.75 272.75 5.0 262.25 5.65 251.4 6.3 248.6 L7.6 239.45 Q8.3 233.9 10.0 230.55 14.95 220.75 34.65 215.85 34.5 215.55 33.45 215.35 L32.4 215.2 22.45 219.35 Q16.35 221.85 14.15 222.55 L13.05 222.75 Q12.65 222.55 10.9 215.0 L12.45 211.25 13.3 208.75 Q12.35 205.3 11.5 200.15 L10.75 194.05 Q7.85 185.95 7.85 180.9 L7.05 165.9 Q6.2 150.55 6.05 143.1 L5.85 133.25 5.5 120.35 5.5 119.95 5.05 104.6 Q5.05 100.0 7.45 62.9 L9.75 25.9 10.1 18.6 10.1 18.45 12.85 18.05 15.3 17.55 20.6 22.95 Q28.0 30.55 31.05 32.85 L49.05 49.4 51.1 51.45 51.2 51.55 51.65 51.35 Q71.4 42.5 71.4 37.9 L71.4 37.3 Q73.75 36.5 76.45 35.85 L75.9 35.95 Q72.55 29.65 71.1 24.5 74.6 24.05 84.65 34.35 L101.8 33.3 114.4 33.7 113.35 29.8 109.0 14.7 109.9 14.5 Q111.8 16.3 113.6 20.9 115.75 26.45 116.55 27.75 118.4 30.75 122.95 32.15 126.65 33.3 127.8 38.25 L128.3 41.9 Q131.25 46.8 133.2 52.5 134.9 57.6 136.95 68.3 138.9 78.25 138.9 80.65 138.9 87.1 141.25 96.45 142.25 100.45 145.9 112.25 L147.0 112.25 147.6 111.85 147.7 110.25 Q147.7 109.45 146.3 104.6 144.9 99.75 144.9 99.0 144.9 96.45 142.2 85.65 L138.7 71.75 Q136.3 61.65 135.55 57.65 134.3 50.6 134.3 44.2 134.3 41.55 137.9 36.95 L139.55 34.7 171.2 36.0 244.9 36.45 273.75 37.5 Q275.65 31.75 276.7 29.4 278.55 25.05 281.35 25.75 280.6 26.65 278.75 32.15 277.45 36.0 275.25 37.55 L297.95 38.55 297.55 39.15 Q295.5 42.55 290.35 48.9 L282.7 58.25 Q286.4 56.85 290.85 52.6 L298.0 45.9 Q300.95 43.6 309.2 39.2 334.85 40.7 343.4 42.45 349.2 43.65 354.15 46.4 360.25 49.8 366.75 51.85 372.95 53.8 393.85 66.65 L394.95 69.9 Q397.0 76.05 397.0 77.5 397.0 89.2 380.45 121.65 372.2 137.9 363.9 151.95 L364.85 155.35 Q366.55 158.6 370.45 158.6 372.9 158.6 374.55 157.35 L373.5 158.0 Q374.95 159.05 377.55 159.05 384.7 159.05 404.8 171.45 418.35 179.85 422.6 184.05 422.1 184.9 422.1 186.05 422.1 194.45 415.6 205.25 407.45 218.65 405.45 225.9 L406.45 226.35 Q409.45 222.5 412.75 215.3 L413.85 212.95 413.95 213.25 414.0 213.25 Q411.6 217.7 411.35 220.15 L407.2 225.55 Q402.05 232.55 398.8 237.8 L407.2 226.75 Q396.3 242.65 391.3 252.85 L390.9 252.45 Q392.9 249.2 395.85 242.75 L392.3 246.8 Q390.05 249.35 387.1 249.9 379.65 245.95 361.5 240.8 328.7 232.5 324.55 230.95 318.75 228.8 307.25 226.75 294.9 224.5 282.15 220.25 281.15 219.8 280.15 219.65 L281.4 220.1 276.4 218.25 275.85 204.85 275.25 204.85 Q275.05 215.05 270.3 223.2 268.6 224.6 266.85 226.55 264.3 229.4 262.3 232.6 L262.45 232.5 255.7 238.2 Q252.2 241.3 252.2 243.45 252.2 247.8 252.65 250.85 252.5 253.25 249.15 261.65 L249.85 261.65 Q252.25 250.1 261.15 237.7 L263.0 239.25 Q264.55 238.4 269.7 233.8 274.3 229.7 274.95 229.7 286.25 229.7 334.5 245.2 L339.75 246.9 338.4 246.45 Q339.5 249.6 344.2 252.0 347.6 253.7 357.75 256.65 367.35 259.4 371.25 261.65 377.4 265.15 377.4 270.3 377.4 274.3 378.15 282.3 375.8 281.6 374.4 282.25 L373.15 278.2 372.5 278.9 374.15 282.4 374.1 282.4 Q372.9 283.15 372.9 284.4 372.9 285.1 373.75 285.9 L375.75 287.55 Q376.15 287.25 377.85 286.85 L378.55 286.5 378.95 290.5 378.55 291.35 Q378.55 292.75 378.85 293.15 L379.3 293.6 Q381.05 309.3 384.5 334.1 386.35 344.4 389.75 373.7 393.4 397.8 399.0 397.8 L400.2 397.55 397.65 406.3 393.8 417.25 386.0 415.55 367.05 411.45 366.15 411.65 365.5 411.95 364.35 411.45 Q356.25 407.95 357.7 411.5 L355.45 411.1 349.7 410.4 Q348.65 411.75 348.6 413.05 L345.7 412.65 342.95 412.3 337.2 413.65 334.65 413.3 329.65 413.5 325.85 413.0 318.9 413.45 320.25 412.9 Q319.35 411.65 314.05 410.05 L309.0 408.7 Q307.6 408.65 308.0 408.9 307.65 410.15 307.6 413.0 L307.6 413.15 Q302.25 411.25 299.1 412.25 296.75 413.0 296.75 415.0 L296.75 415.1 296.8 415.4 296.85 415.8 286.9 417.3 282.0 417.8 263.15 419.1 Q261.85 419.1 252.05 414.85 251.35 414.8 250.95 415.35 L250.2 416.75 Q248.05 415.9 246.3 413.3 244.45 410.45 242.95 409.6 241.1 411.3 241.3 412.75 L241.1 412.9 Q240.4 412.45 238.5 410.8 L238.5 410.75 235.7 408.25 Q233.55 406.5 231.9 405.75 L231.8 405.55 231.65 405.85 228.85 405.4 228.55 406.85 228.0 409.35 Q226.3 407.1 225.5 406.9 224.75 407.8 224.7 410.0 L224.8 412.65 Q225.3 416.95 223.75 418.55 222.6 414.95 219.8 414.05 215.1 418.3 210.05 419.3 L201.8 421.05 202.55 420.25 Q204.05 418.35 204.35 417.2 203.6 417.3 202.05 418.5 200.45 419.7 199.35 419.75 L198.95 416.45 Q202.2 406.9 208.75 390.7 221.7 359.7 221.7 359.1 221.7 355.05 233.75 319.15 245.65 283.8 248.35 273.85 L248.4 273.8 248.6 272.85 248.85 271.8 248.85 271.85 249.55 268.8 250.05 266.7 250.65 263.8 Q249.45 264.9 248.65 268.65 L247.8 272.7 247.85 272.65 Q246.25 274.1 244.95 276.7 242.75 280.95 241.25 288.2 L239.3 299.1 Q238.15 305.5 237.15 308.8 L230.4 328.7 223.65 347.85 Q215.15 372.95 200.55 401.55 L191.85 417.9 192.45 417.75 Q188.35 419.0 183.25 419.85 L174.6 420.85 174.4 420.85 174.1 420.85 175.95 419.15 Q176.15 419.6 176.2 418.25 176.25 415.85 169.6 416.75 L168.05 417.0 157.15 420.35 156.85 420.5 156.1 420.8 155.6 421.0 155.35 421.15 Q154.1 421.65 152.85 422.25 L150.1 422.85 143.4 423.5 141.3 421.65 131.8 412.1 Q127.6 407.7 125.75 404.65 L125.1 404.65 124.85 406.0 129.2 415.65 Q130.7 419.45 131.4 422.85 131.95 423.05 132.15 423.3 131.45 422.45 125.25 421.9 119.25 421.15 112.8 422.05 L112.05 422.15 112.0 422.15 112.05 421.75 Q112.05 420.8 108.95 419.8 106.5 419.05 105.35 419.05 L102.85 419.2 100.45 419.6 Q97.6 420.15 95.9 420.8 L95.6 420.8 95.8 417.5 Q96.75 416.4 96.55 415.45 L95.95 415.25 Q93.75 414.95 85.85 417.25 L84.05 417.75 Q78.4 419.4 71.7 421.6 L71.9 419.8 71.8 418.5 70.8 417.55 Q69.2 417.95 68.85 419.0 67.4 419.75 60.45 420.05 L57.7 420.15 57.6 420.6 M490.8 110.2 L490.35 112.7 491.7 113.15 492.7 112.25 493.6 113.25 Q489.55 114.5 487.0 117.75 L485.35 119.85 Q484.7 117.8 481.7 116.7 477.6 115.1 475.4 119.55 474.5 121.35 468.2 123.35 461.9 125.4 460.45 128.35 L468.1 125.65 Q475.25 123.05 475.85 123.05 477.0 123.05 478.05 124.2 479.15 125.3 480.25 125.3 L481.1 125.25 470.8 138.8 454.95 160.1 453.5 162.1 440.15 177.9 437.1 181.6 Q430.05 181.4 427.3 181.7 L426.7 181.2 Q424.6 180.6 415.15 174.75 L396.65 163.3 Q383.15 155.2 377.0 153.35 L377.1 151.95 Q377.1 151.1 375.75 149.05 374.4 147.0 374.4 146.7 374.4 145.45 379.85 132.45 385.85 118.05 390.25 110.25 L394.7 101.3 Q397.35 96.0 400.35 92.35 402.95 89.05 413.6 82.35 L416.25 80.65 416.15 80.65 Q418.05 80.6 436.2 71.85 L441.45 69.35 Q440.75 68.45 440.75 67.35 L440.8 65.7 441.0 64.9 Q442.9 64.9 444.4 66.55 L445.15 67.5 449.95 65.1 472.1 89.8 490.8 110.2 M496.65 109.6 L496.95 109.45 499.25 113.0 Q503.0 118.4 503.55 119.7 505.0 123.2 513.1 136.1 L519.25 146.45 511.3 129.35 509.9 126.35 513.55 132.85 Q513.55 134.85 522.55 152.7 531.2 169.95 535.5 176.95 539.75 184.0 550.35 203.8 L551.25 205.45 Q558.85 225.9 559.35 225.9 L563.4 226.25 559.8 227.1 Q554.65 227.1 548.0 210.3 L542.35 193.25 Q542.35 187.75 517.8 146.4 502.45 120.55 496.65 109.6 M500.65 125.8 L502.05 125.1 502.65 126.45 500.65 125.8 M490.5 146.45 L490.85 147.8 Q491.7 149.6 493.85 149.6 L495.85 149.3 Q496.55 148.95 496.65 148.95 L497.1 146.55 Q496.25 144.2 493.45 143.75 490.5 143.25 490.5 146.45 M487.35 142.5 L486.9 141.15 482.7 140.95 Q480.7 141.35 480.7 142.95 480.7 144.4 481.25 144.85 L482.85 145.35 485.3 144.35 Q486.95 143.5 487.35 142.5 M520.4 148.95 L520.4 149.15 520.8 149.85 520.4 148.95 M511.4 157.35 Q511.4 156.05 511.1 155.65 L510.75 155.1 Q507.0 154.95 505.45 155.85 504.0 156.6 504.0 158.4 504.0 159.75 504.25 160.0 L504.45 160.4 504.9 160.65 507.0 160.85 Q508.05 160.85 509.65 159.75 511.4 158.5 511.4 157.35 M417.1 208.05 L417.25 207.45 Q416.65 207.6 416.15 207.95 L418.45 203.1 Q423.75 193.2 432.25 187.6 422.3 199.95 417.1 208.05 M337.15 157.2 L338.4 155.55 Q336.2 152.5 334.2 152.55 332.3 152.55 332.3 155.0 332.3 157.25 332.55 157.35 L332.9 157.6 334.9 157.8 Q336.4 157.8 337.15 157.2 M329.4 121.95 L329.0 122.4 328.95 123.75 Q328.95 124.95 332.4 127.5 335.55 129.85 337.15 130.35 L341.3 129.45 341.3 128.8 Q339.9 126.65 336.25 124.4 332.25 121.95 329.4 121.95 M352.65 90.75 L352.9 92.25 Q353.55 92.9 355.25 93.35 L358.2 92.7 358.6 92.0 358.65 90.65 Q358.65 89.3 358.3 89.15 L357.95 89.1 354.2 89.25 352.65 90.75 M399.9 182.25 L399.5 182.85 399.45 184.35 Q399.45 185.8 399.95 186.1 L401.25 186.5 Q403.1 186.05 403.65 185.15 L403.2 183.85 402.75 182.55 400.95 182.25 399.9 182.25 M364.8 165.25 Q364.8 164.45 365.15 163.45 L363.9 165.45 364.8 165.25 M416.1 139.05 L415.6 138.1 415.2 137.7 413.8 137.9 Q413.25 138.25 412.4 139.5 L414.0 140.5 Q415.65 140.05 416.1 139.05 M425.55 119.0 L425.55 117.65 Q423.85 114.7 421.9 114.7 420.05 114.7 420.05 117.1 420.05 117.5 420.5 118.0 L422.2 119.8 423.95 119.5 425.55 119.0 M439.3 122.5 Q435.9 122.1 433.35 123.5 433.2 125.2 434.2 126.15 435.7 127.55 439.75 127.55 442.9 127.55 444.6 124.5 442.4 122.9 439.3 122.5 M477.3 181.75 Q479.25 180.5 479.55 179.65 479.25 178.55 477.55 177.85 473.25 177.15 473.25 181.1 473.25 182.5 473.7 182.75 L474.95 183.0 477.3 181.75 M454.95 183.6 L454.25 182.65 Q453.75 182.1 453.0 181.8 L451.65 182.0 Q451.0 182.3 451.0 183.7 451.0 185.15 451.5 185.45 L453.0 185.85 454.45 185.05 Q454.85 184.6 454.95 183.6 M433.65 278.2 Q432.9 276.85 432.9 276.3 L430.05 276.0 428.85 276.05 428.65 275.9 Q428.4 276.0 428.4 277.4 428.4 278.75 428.85 279.2 L429.3 279.75 429.6 280.0 431.55 280.2 Q433.05 280.2 433.35 279.7 L433.65 278.2 M441.55 282.0 Q440.85 282.3 440.3 283.2 439.8 283.95 439.65 284.7 L439.85 286.4 442.45 287.55 Q443.85 287.0 444.7 285.75 444.45 282.75 441.55 282.0 M407.55 266.5 L407.35 268.3 Q410.45 273.6 414.0 273.6 L416.45 273.15 417.7 272.7 418.15 270.3 Q416.8 268.4 412.2 267.25 408.5 266.3 407.55 266.5 M480.7 291.55 L480.95 293.3 Q481.75 295.65 484.2 295.65 487.6 295.65 488.8 293.7 L488.35 292.35 Q485.85 290.95 484.1 290.35 480.75 289.15 480.7 291.55 M380.0 218.25 L381.15 217.35 380.9 217.35 Q379.85 215.05 378.45 214.3 377.15 213.6 374.85 213.85 375.15 215.6 376.9 216.75 L380.0 218.25 M276.4 219.8 L276.4 218.7 277.7 219.55 276.4 219.8 M324.9 323.65 Q324.9 322.35 324.55 321.9 L324.2 321.3 315.1 321.7 Q313.85 322.15 312.5 324.2 313.85 325.05 316.05 325.65 L319.95 326.25 323.8 325.8 Q324.9 325.25 324.9 323.65 M347.15 365.05 L349.05 364.7 Q349.7 364.15 349.65 362.25 L346.35 360.7 Q344.65 359.85 344.1 360.0 L343.55 360.4 Q343.35 360.65 343.35 362.1 343.35 363.05 343.95 363.8 344.9 365.05 347.15 365.05 M359.05 362.85 Q356.35 362.85 354.5 364.55 352.45 366.35 352.45 369.45 L353.35 372.85 Q355.05 376.2 359.1 376.2 362.6 376.2 364.4 373.45 365.6 371.55 365.6 369.55 365.6 366.35 363.55 364.5 361.7 362.85 359.05 362.85 M327.0 394.75 L328.8 394.45 329.25 393.85 329.6 392.5 Q328.9 389.7 326.2 389.5 323.55 389.3 323.55 391.6 L324.0 392.95 Q324.9 394.75 327.0 394.75 M459.65 315.0 L458.55 313.65 457.85 313.65 459.05 315.6 460.35 317.55 460.45 316.9 459.65 315.0 M445.05 325.1 L444.7 325.1 441.0 325.25 Q439.65 325.45 439.65 326.9 439.65 328.3 439.8 328.4 L440.3 328.6 440.55 328.85 442.45 329.05 444.35 328.75 444.9 328.05 Q445.05 327.8 445.3 327.85 L445.35 326.55 Q445.35 325.2 445.05 325.1 M597.7 278.4 L597.25 277.45 597.0 276.5 593.95 276.35 Q593.65 276.55 592.85 278.1 593.55 278.95 596.1 280.0 597.25 279.7 597.7 278.4 M588.15 271.35 Q588.7 270.65 588.7 270.0 587.85 268.9 586.45 268.3 585.7 268.45 585.05 269.2 584.3 270.0 584.3 270.9 584.75 272.1 586.45 272.7 L588.15 271.35 M611.1 292.8 L610.8 293.65 Q610.65 293.95 610.65 295.3 610.65 296.15 611.1 296.95 611.9 298.35 613.65 298.35 L615.25 298.05 615.45 297.45 615.9 296.1 Q615.55 294.8 614.1 293.8 612.65 292.8 611.1 292.8 M497.1 228.35 Q494.75 229.15 492.85 230.65 491.15 232.0 490.95 232.95 491.85 234.1 493.8 235.15 496.25 236.45 498.6 236.45 500.85 236.45 504.15 233.7 L507.45 230.5 Q503.5 226.15 497.1 228.35 M546.3 239.5 Q545.9 236.45 544.1 236.7 542.5 236.9 541.35 239.05 L542.95 240.5 544.35 241.5 545.55 240.75 546.3 239.5 M528.85 232.15 L527.6 231.85 526.35 233.05 525.25 234.65 526.8 235.8 528.1 235.5 528.95 234.9 Q529.2 236.1 529.2 233.85 529.2 232.4 528.85 232.15 M563.25 304.05 L564.3 306.1 Q565.95 308.1 568.9 308.1 570.85 308.1 572.85 305.65 570.25 303.65 567.5 302.55 563.25 300.9 563.25 304.05 M538.9 302.55 L539.3 303.1 Q540.9 302.55 540.9 300.7 540.9 298.55 537.7 297.6 534.45 296.6 534.45 299.8 L534.7 301.5 534.9 301.95 534.9 302.25 Q534.9 303.6 535.15 304.2 L535.35 304.75 539.1 304.75 539.75 304.05 538.9 302.55 M597.9 356.5 Q598.95 356.05 599.25 355.35 L598.5 353.1 Q597.95 351.7 597.0 351.0 596.2 351.2 595.85 351.65 595.35 352.25 595.35 353.8 595.35 354.6 595.8 355.0 L597.9 356.5 M635.7 338.4 Q637.15 338.4 637.9 337.65 L638.75 336.45 Q637.05 332.4 634.2 331.55 631.45 330.75 631.45 333.9 L632.15 335.95 Q633.35 338.4 635.7 338.4 M622.15 332.2 Q624.2 331.3 625.35 329.6 L624.45 328.95 620.7 329.05 Q617.4 329.65 617.05 332.2 L618.75 333.3 622.15 332.2 M532.45 388.35 Q533.85 388.35 534.25 387.7 L534.7 386.55 531.9 383.25 Q529.95 381.5 527.6 381.25 L527.5 381.35 527.4 383.15 Q527.4 383.95 528.75 385.9 530.45 388.35 532.45 388.35 M508.95 371.25 Q508.95 372.2 510.05 373.6 511.55 375.6 514.0 375.75 L515.1 375.5 515.35 374.4 Q514.3 371.7 511.9 369.3 508.95 366.35 508.95 371.25 M502.85 315.45 L502.25 314.4 501.95 313.4 Q500.45 312.9 499.5 313.4 498.45 313.95 498.45 315.45 498.45 316.9 498.95 317.2 L500.4 317.55 502.4 316.65 502.85 315.45 M276.0 62.85 Q271.45 66.85 270.0 69.95 273.2 68.1 277.95 63.85 282.05 60.2 283.8 58.05 280.7 58.8 276.0 62.85 M298.0 92.8 Q298.4 93.95 301.95 95.8 305.85 97.85 308.7 97.85 310.45 97.85 315.75 95.6 320.85 93.35 322.95 91.8 L322.5 90.45 Q317.25 87.15 308.9 88.65 302.15 89.85 298.0 92.8 M181.05 88.55 Q177.05 89.25 177.05 91.45 177.05 92.95 177.55 93.35 L179.1 93.9 Q182.1 93.2 183.6 92.15 L186.75 89.55 186.3 88.2 181.05 88.55 M235.45 74.0 Q233.65 73.3 231.95 73.45 230.05 73.7 227.8 75.15 L228.35 76.1 228.7 76.95 233.55 76.95 Q235.6 76.15 235.9 75.35 L235.45 74.0 M217.9 103.15 Q217.55 102.7 214.55 102.45 L211.6 102.25 211.05 102.0 Q210.45 101.85 210.45 103.25 210.45 104.65 210.7 104.6 L210.9 104.25 216.9 104.5 217.9 103.8 217.9 103.15 M222.3 183.85 L219.7 182.45 Q206.35 175.3 192.45 169.2 161.55 155.5 154.75 158.45 154.05 157.75 152.95 157.85 150.5 158.0 146.5 161.75 142.9 165.1 140.05 169.4 L138.15 172.6 135.8 175.75 Q132.3 172.8 132.0 180.9 125.1 190.45 117.5 202.15 111.7 211.0 109.05 215.55 L106.1 215.15 Q95.8 214.45 91.1 212.95 L90.9 213.2 Q90.65 213.35 90.65 213.6 93.0 214.1 97.9 215.95 101.45 217.3 103.95 217.1 102.65 219.0 104.2 220.9 105.55 222.55 107.75 222.75 108.85 224.55 111.1 227.2 L113.7 229.95 Q117.5 236.75 126.35 244.3 L126.85 244.7 Q131.1 248.25 137.9 253.05 142.95 256.55 142.95 256.95 142.95 258.1 145.95 260.5 148.65 262.7 151.2 263.9 L151.4 263.45 Q148.45 260.45 139.15 252.85 129.05 244.65 124.35 240.15 120.85 236.8 118.25 233.75 L117.7 233.1 117.85 233.2 Q119.9 234.5 122.05 235.2 120.4 232.4 115.4 226.9 111.65 222.8 111.2 221.65 L111.15 221.45 111.15 221.4 Q111.15 220.95 114.9 214.35 L122.65 200.95 132.5 183.85 136.35 176.85 136.55 176.5 137.2 175.25 137.1 175.95 137.2 177.3 138.15 178.55 139.2 180.15 Q141.45 183.8 144.9 190.9 L147.1 195.5 Q147.5 198.35 148.55 202.35 150.2 208.55 151.65 211.25 154.7 217.1 163.05 224.45 170.35 230.85 171.75 230.85 L184.3 230.45 Q196.85 229.6 200.25 227.35 L200.1 226.8 Q174.75 225.9 165.25 220.3 L164.6 220.25 179.05 220.95 198.9 221.6 Q209.7 221.6 224.1 221.05 L228.0 221.25 227.55 221.95 224.7 226.8 224.45 227.25 224.35 227.45 223.6 229.05 Q213.15 233.6 196.25 244.45 L171.05 260.6 Q166.3 262.4 160.45 262.45 L160.35 262.4 Q156.05 259.1 155.4 266.3 L154.75 267.0 154.0 267.6 154.2 268.65 155.25 268.35 155.25 269.3 Q155.25 270.9 159.1 275.9 162.9 280.9 162.9 283.95 162.9 287.05 163.95 291.3 165.0 295.65 166.5 298.65 167.75 301.2 169.15 306.05 170.65 311.4 171.6 313.65 175.35 322.5 185.7 327.0 L187.45 325.5 Q187.95 324.75 187.95 323.2 187.95 317.35 182.85 303.65 177.95 290.55 171.6 278.6 166.85 269.7 163.3 265.35 L165.6 264.45 Q170.25 263.8 173.45 261.6 L175.3 259.9 180.55 257.05 Q187.6 253.3 196.6 247.7 L196.75 247.6 197.2 247.3 202.7 243.9 Q201.85 244.35 201.05 244.9 L222.4 231.8 222.3 232.05 Q227.9 230.55 230.75 227.2 L230.0 228.05 Q233.1 227.5 233.1 224.1 L232.95 223.35 233.1 222.95 233.75 222.65 234.9 222.3 Q234.95 221.75 235.15 221.65 235.35 221.6 235.35 220.35 L234.95 214.25 235.35 212.4 234.85 212.9 234.05 204.95 Q232.75 192.55 232.75 191.35 233.75 188.4 232.8 187.55 232.15 186.95 227.0 185.3 228.25 186.2 229.25 187.85 226.9 186.35 222.6 184.0 L222.8 184.0 222.3 183.85 M235.65 182.55 L240.1 186.15 Q242.8 188.0 245.25 187.7 L245.35 187.65 239.9 184.25 239.5 184.0 239.35 183.9 239.25 183.85 239.1 183.8 238.1 183.25 237.4 182.95 Q236.4 182.55 235.65 182.55 M231.8 179.1 Q230.8 178.4 229.35 178.3 230.15 180.7 234.9 181.2 L231.8 179.1 M292.6 103.6 Q292.6 102.25 292.15 102.05 L291.7 101.8 285.85 101.3 282.7 100.9 282.6 100.8 Q282.45 100.95 282.45 102.35 282.45 103.5 283.15 104.55 284.45 106.5 287.55 106.5 292.6 106.5 292.6 103.6 M278.3 142.5 Q278.95 142.35 279.85 141.65 L280.9 140.5 280.35 138.7 Q277.3 138.7 276.5 139.5 L276.4 139.1 Q276.3 139.0 276.3 140.4 276.3 141.85 276.8 142.15 L278.3 142.5 M251.4 123.05 L249.6 122.95 249.45 122.8 Q249.3 122.9 249.3 124.3 249.3 125.7 249.55 125.7 L249.75 125.4 249.7 125.65 251.3 125.85 253.15 125.55 253.8 125.2 253.8 123.85 Q252.45 123.2 251.4 123.05 M269.45 118.65 L263.25 119.55 263.25 121.6 Q263.65 122.1 266.3 122.7 L270.65 123.3 Q272.3 123.3 274.5 119.7 L273.35 118.35 269.45 118.65 M297.9 146.9 Q300.15 146.9 300.0 146.25 L300.0 145.55 Q298.75 143.85 296.85 143.35 L294.5 143.2 294.75 146.25 295.5 146.6 297.9 146.9 M256.35 155.8 Q256.35 156.45 256.95 158.15 L260.75 158.15 Q262.55 157.75 263.55 156.6 L263.05 155.7 262.65 154.9 258.0 155.0 Q256.85 155.2 256.35 155.8 M275.2 156.4 L274.95 156.0 Q270.75 155.5 269.55 156.6 269.55 157.95 270.2 158.6 L271.65 159.1 273.9 159.3 Q275.3 159.3 275.5 158.55 L275.6 157.35 275.2 156.4 M276.9 189.3 Q277.65 187.65 277.65 186.5 277.65 184.0 276.95 181.9 L276.3 181.9 275.65 185.3 Q275.15 187.45 275.15 188.75 275.15 191.0 275.4 192.15 L276.15 191.8 Q276.15 190.9 276.9 189.3 M104.7 68.05 Q103.8 66.7 103.8 66.25 94.6 67.0 94.6 69.6 94.6 70.95 94.75 71.05 L95.25 71.3 95.5 71.55 97.4 71.75 Q101.0 71.75 102.45 70.95 103.6 70.3 104.7 68.05 M107.1 94.05 Q108.05 93.8 108.9 92.45 108.1 90.4 107.1 90.0 L106.0 90.15 Q105.6 90.35 105.6 91.8 105.6 93.25 105.95 93.6 L107.1 94.05 M95.7 90.55 Q96.7 90.55 97.35 89.55 L98.2 87.75 Q96.15 84.6 93.65 85.1 91.35 85.5 91.35 87.95 91.35 89.25 91.6 89.55 L91.8 90.0 93.7 90.45 95.7 90.55 M125.75 98.75 L121.45 98.9 Q119.1 99.65 119.1 101.45 119.1 102.75 119.45 103.35 L119.8 104.05 120.25 104.3 122.4 104.5 Q123.95 104.5 125.1 103.4 126.2 102.3 126.2 100.8 126.2 99.5 126.0 99.2 L125.75 98.75 M45.75 68.7 L46.0 69.15 49.35 69.6 51.25 68.45 Q52.5 67.55 52.5 66.7 52.5 65.35 52.2 65.1 L51.85 64.8 47.4 64.65 Q45.45 65.2 45.45 67.15 45.45 68.45 45.75 68.7 M39.45 70.3 L38.6 69.4 38.1 68.6 Q34.0 67.75 32.6 69.45 31.9 70.35 31.8 71.75 L33.5 72.9 Q37.65 71.3 39.45 70.3 M63.7 83.85 L65.85 91.7 66.05 90.95 Q67.25 86.8 69.5 73.1 65.15 76.6 61.85 79.85 L63.55 83.5 63.7 83.85 M43.4 143.0 L44.1 143.4 Q48.9 143.4 50.25 141.4 49.35 140.05 49.35 139.6 L44.7 139.7 Q43.2 140.1 43.2 141.4 43.2 142.8 43.4 143.0 M51.25 115.0 L51.6 113.85 Q50.15 107.0 45.65 102.55 43.6 100.55 42.4 101.25 40.95 102.05 40.95 106.4 40.95 108.0 42.75 111.15 45.35 115.65 49.35 115.65 50.8 115.65 51.25 115.0 M41.5 126.6 L41.25 126.45 Q38.55 126.45 35.8 128.55 33.3 130.5 33.3 131.95 33.3 133.3 33.55 133.5 L33.75 133.85 34.25 134.1 36.45 134.3 Q41.7 131.05 41.7 128.0 41.7 126.65 41.5 126.6 M145.0 144.45 L144.95 144.35 144.9 145.9 Q144.9 146.5 145.85 147.8 147.0 149.4 148.35 149.4 L150.55 149.2 151.2 148.5 Q149.7 146.3 147.75 145.25 146.25 144.45 145.0 144.45 M36.1 194.65 L38.1 194.85 40.15 194.35 40.8 193.8 Q40.1 189.45 37.8 189.5 35.55 189.55 35.55 192.15 35.55 194.4 35.75 194.4 L36.1 194.65 M22.15 196.3 Q22.15 197.65 22.4 197.7 L22.6 197.75 25.4 197.55 26.1 196.4 25.65 195.15 23.45 194.85 22.35 194.85 22.25 194.75 22.15 196.3 M114.95 106.5 L114.5 106.65 Q112.2 106.65 109.6 107.4 106.4 108.3 106.4 109.65 106.4 111.05 106.65 111.0 L106.85 110.7 107.85 111.2 109.65 111.35 Q111.4 111.35 113.25 110.45 115.4 109.45 115.4 108.0 115.4 106.6 114.95 106.5 M82.9 125.55 L85.15 122.85 Q82.6 122.7 79.65 124.85 80.1 125.55 82.9 125.55 M91.45 104.5 L92.35 105.15 Q94.1 104.95 95.1 103.65 L95.85 102.25 Q93.5 102.45 91.45 104.5 M112.6 160.2 Q114.8 160.2 116.8 159.1 119.0 157.85 119.0 156.15 119.0 154.35 116.5 153.15 114.25 152.1 111.05 151.95 107.75 151.85 105.55 152.85 103.05 153.95 103.05 156.0 103.05 157.8 104.55 158.75 106.75 160.2 112.6 160.2 M104.4 278.1 Q105.3 277.65 105.75 276.85 L104.85 275.6 Q103.95 275.6 103.1 276.15 102.25 276.65 102.25 277.2 102.9 277.75 104.4 278.1 M83.75 283.15 L84.45 282.45 84.45 281.8 Q82.6 280.5 80.7 280.3 78.35 280.0 76.8 281.55 L78.6 282.8 Q80.15 283.5 81.65 283.5 L83.75 283.15 M98.3 290.9 L98.35 292.6 Q99.0 294.4 101.8 294.4 103.05 294.4 104.05 293.65 L105.95 291.7 Q104.65 289.55 101.65 288.45 98.3 287.25 98.3 290.9 M89.6 257.75 Q90.9 255.9 90.9 253.65 90.9 251.2 88.85 249.35 86.9 247.65 84.3 247.35 81.55 247.05 79.75 248.5 L78.95 249.4 Q77.35 247.95 73.55 246.2 67.9 243.6 65.55 245.25 65.85 247.85 70.7 249.9 74.75 251.65 77.6 251.65 L77.9 251.65 77.7 253.65 78.5 257.05 Q80.15 260.3 84.25 260.3 87.8 260.3 89.6 257.75 M98.0 259.1 L96.5 257.85 95.1 258.4 Q94.6 258.8 94.6 260.3 94.6 261.7 94.75 261.9 L95.25 262.35 95.25 262.6 96.95 262.8 Q98.35 262.8 98.9 262.15 L99.45 261.0 Q99.25 260.3 98.0 259.1 M46.25 240.95 L46.8 240.85 45.65 241.1 Q43.85 241.6 42.5 242.85 L42.75 244.2 43.4 244.95 45.2 245.25 46.9 245.0 46.3 245.15 46.9 246.55 Q48.6 249.75 52.65 249.75 56.35 249.75 58.35 246.4 59.7 244.15 59.7 242.4 59.7 240.35 57.55 238.7 55.55 237.1 52.85 236.8 50.0 236.5 48.15 237.9 46.7 239.0 46.25 240.95 M62.85 272.95 L61.2 273.15 61.2 274.25 61.7 275.1 63.55 275.4 65.15 275.1 65.35 274.25 65.1 273.6 Q63.8 273.0 62.85 272.95 M52.2 295.65 Q55.6 295.65 56.8 293.7 L56.35 292.35 Q51.35 290.75 49.15 291.0 L49.05 291.2 Q48.9 291.65 48.9 293.05 48.9 295.3 49.15 295.05 L50.45 295.5 52.2 295.65 M121.1 339.8 L121.25 339.4 Q119.7 338.05 118.2 338.05 L119.55 339.6 120.6 340.5 121.1 339.8 M96.4 324.95 Q97.55 326.1 100.55 327.15 110.0 330.5 114.95 334.45 L115.85 334.2 116.55 333.1 Q111.9 324.0 104.4 316.9 94.95 307.9 94.95 320.4 94.95 323.45 96.4 324.95 M55.2 390.8 Q51.55 389.5 48.8 389.85 45.9 390.2 45.9 392.25 L49.15 398.7 Q53.45 405.2 58.5 405.2 61.45 405.2 63.1 403.65 64.45 402.35 64.45 400.7 64.45 394.1 55.2 390.8 M45.2 354.1 L46.0 352.9 Q44.45 350.0 42.45 350.15 40.7 350.25 39.45 352.35 L41.4 353.75 42.95 354.7 Q44.45 354.7 45.2 354.1 M63.65 352.9 L64.0 351.0 Q64.0 349.45 61.15 347.85 58.45 346.35 56.1 346.35 L55.85 346.95 55.8 348.3 Q55.8 349.6 56.6 351.25 57.9 354.0 60.5 354.0 61.85 354.0 62.75 353.45 L63.65 352.9 M30.9 326.75 Q31.65 326.0 31.8 324.2 L30.9 322.85 Q27.15 321.9 25.3 323.2 24.05 324.1 24.05 325.35 24.05 326.7 24.3 326.95 L24.5 327.25 25.4 327.5 28.0 327.7 Q30.05 327.7 30.9 326.75 M110.2 351.25 Q111.9 355.7 112.95 356.95 L115.9 359.95 110.2 351.25 M111.7 379.15 L112.35 378.0 109.65 375.5 Q108.65 375.85 108.55 375.95 108.0 376.4 108.0 377.85 108.0 378.4 108.3 378.65 L110.55 380.0 111.7 379.15 M109.45 391.7 Q109.45 392.95 110.6 394.8 112.25 397.35 114.95 397.35 116.35 397.35 117.0 396.6 L117.65 395.4 Q116.75 393.75 114.45 392.1 111.9 390.3 109.8 390.15 L109.65 390.1 Q109.45 390.3 109.45 391.7 M143.85 370.8 L144.0 369.55 Q141.5 366.25 138.7 361.45 L134.3 353.8 Q129.05 345.25 121.7 341.4 L121.05 343.65 Q123.95 348.3 132.6 359.75 141.45 371.55 142.2 371.55 L142.1 371.55 142.05 372.9 Q142.05 373.9 143.1 375.8 144.5 378.45 146.55 378.45 147.9 378.45 148.15 378.0 148.25 377.45 148.6 377.1 148.6 375.6 147.1 373.65 145.55 371.65 143.45 371.3 L143.85 370.8 M138.15 380.6 L139.95 384.35 140.4 385.25 145.5 390.05 138.4 381.1 138.15 380.6 M155.45 374.95 Q156.2 374.65 156.55 374.2 L157.05 373.25 155.9 371.9 Q154.2 371.9 153.9 373.95 L155.45 374.95 M150.05 388.55 Q151.4 388.55 151.55 388.15 151.45 387.55 151.65 387.2 149.55 384.95 148.15 385.25 147.3 385.45 145.8 387.2 146.05 387.75 147.2 388.15 L150.05 388.55 M286.45 237.75 L288.0 235.1 287.3 233.75 284.65 233.8 282.45 234.0 282.05 234.65 282.0 236.0 Q282.0 237.35 282.3 237.6 L282.9 238.05 283.05 238.3 284.85 238.5 Q285.85 238.5 286.45 237.75 M246.05 238.9 L245.8 238.7 241.3 238.45 Q240.6 238.75 240.05 240.15 L240.3 241.5 241.1 242.35 243.1 242.65 245.25 242.3 246.0 241.95 Q246.25 242.55 246.25 240.3 246.25 239.0 246.05 238.9 M258.75 251.65 L259.2 249.95 258.8 249.05 258.75 248.6 255.8 248.3 Q254.35 248.65 254.35 250.05 254.35 251.4 254.7 251.75 L255.0 252.1 258.75 251.65 M267.75 251.65 Q269.2 251.65 270.0 250.45 L270.65 249.05 Q269.7 245.95 267.35 246.35 265.45 246.65 264.0 248.6 L265.9 250.65 Q267.0 251.65 267.75 251.65 M299.75 266.0 L300.45 264.15 Q297.75 262.8 295.4 262.8 295.3 262.6 295.2 262.7 294.95 262.85 294.95 264.25 L297.55 266.95 Q299.2 266.9 299.75 266.0 M230.4 242.65 L230.9 242.9 233.1 243.1 Q234.35 243.1 235.45 242.2 236.8 241.15 236.8 239.5 236.8 238.2 236.6 237.95 L236.35 237.6 Q233.35 236.7 231.5 237.9 229.95 238.95 229.95 240.6 229.95 241.9 230.2 242.2 L230.4 242.65 M301.6 287.65 L302.5 291.05 Q304.15 294.4 308.1 294.4 311.5 294.4 313.4 291.8 314.75 289.9 314.75 287.85 314.75 284.6 312.7 282.7 310.85 281.05 308.2 281.05 305.5 281.05 303.65 282.75 301.6 284.6 301.6 287.65 M291.0 288.45 L293.5 288.1 Q294.85 287.5 294.85 285.75 294.85 283.75 291.35 282.85 287.85 281.95 287.85 285.3 L288.0 286.65 Q288.65 288.45 291.0 288.45 M238.95 252.9 Q238.95 251.6 238.65 251.3 L238.35 250.85 Q232.7 252.2 227.65 250.7 221.0 248.1 215.1 246.6 211.2 246.75 206.95 250.8 202.0 255.5 199.35 256.35 L203.25 256.5 208.9 255.9 211.4 258.3 Q213.45 259.85 215.55 259.85 217.8 259.85 222.1 257.8 226.45 255.7 229.35 255.7 L236.4 256.35 Q238.95 256.35 238.95 252.9 M214.65 307.45 L216.4 307.1 216.65 306.75 Q215.15 303.3 211.95 303.3 L211.9 303.3 211.8 304.95 Q211.8 306.25 212.1 306.55 L212.4 307.0 212.7 307.25 214.65 307.45 M186.05 334.95 Q185.85 335.65 185.85 337.7 185.85 339.45 189.2 351.45 192.95 364.95 195.05 364.95 196.45 364.95 196.6 364.5 196.55 364.05 196.65 364.05 L197.1 361.65 Q195.2 351.05 194.05 346.65 191.85 338.4 188.3 332.3 186.55 333.35 186.05 334.95 M194.15 345.35 L194.1 345.25 193.95 345.15 194.15 345.35 M172.9 364.6 Q174.4 364.6 174.9 364.0 L175.5 362.45 Q173.3 357.85 169.9 357.6 166.7 357.3 166.7 360.55 L167.85 362.6 Q169.65 364.6 172.9 364.6 M180.45 393.6 Q180.3 392.25 179.85 391.6 179.15 390.6 177.3 389.9 175.9 390.35 175.35 392.6 L175.6 394.3 Q175.75 394.35 176.55 395.1 L178.2 395.4 Q179.6 395.4 180.0 394.75 L180.45 393.6 M232.9 356.3 L233.1 356.7 234.0 356.95 236.55 357.15 239.35 356.75 Q240.5 356.2 240.5 354.6 240.5 353.25 240.2 352.85 L239.85 352.35 Q235.6 352.0 234.25 352.35 232.65 352.8 232.65 354.7 232.65 356.05 232.9 356.3 M200.7 389.8 L200.15 383.95 198.9 376.85 197.75 376.85 Q197.1 378.8 197.1 381.8 197.1 384.05 197.85 392.85 L199.55 392.85 200.4 391.9 Q200.7 391.3 200.7 389.8 M244.55 359.85 L244.65 358.05 244.4 356.45 Q244.0 356.4 243.65 356.05 241.7 356.75 240.85 358.7 240.3 359.9 240.3 361.1 240.3 362.7 240.65 363.05 L242.3 363.6 243.6 363.25 243.9 363.85 Q244.4 364.5 245.8 364.5 247.2 364.5 247.8 363.85 L248.4 362.7 246.4 360.75 244.9 359.55 244.55 359.85 M308.35 319.15 L307.65 319.15 303.95 319.5 Q301.8 320.25 301.8 321.6 301.8 322.95 301.95 323.05 L302.4 323.3 302.45 323.55 304.2 323.75 Q305.15 323.75 306.5 323.15 308.55 322.2 308.55 320.5 308.55 319.15 308.35 319.15 M253.65 305.3 L253.2 304.3 Q252.65 303.5 252.0 303.3 L250.75 303.6 Q250.2 304.05 250.2 305.55 250.2 306.9 250.45 307.3 L250.65 307.8 252.9 307.65 253.35 307.0 253.65 305.3 M279.45 368.3 L280.35 370.7 Q281.65 373.05 283.6 373.05 285.3 373.05 286.3 371.8 L287.1 370.45 283.8 367.45 Q281.7 365.95 279.55 365.95 L279.45 368.3 M270.45 324.6 Q269.55 324.85 269.55 326.25 269.55 327.25 270.2 328.55 271.3 330.6 273.45 330.6 274.9 330.6 275.3 329.95 L275.6 328.8 Q275.45 328.35 273.5 326.4 L271.35 324.45 270.45 324.6 M260.6 317.3 Q257.4 317.05 257.4 320.95 257.4 322.3 257.65 322.5 L257.85 322.85 258.25 323.1 260.3 323.3 262.45 322.85 Q263.8 322.15 263.8 320.7 263.8 317.6 260.6 317.3 M256.95 391.8 Q256.95 393.35 259.45 395.2 262.05 397.1 264.7 397.1 266.1 397.1 266.2 396.7 266.1 396.15 266.25 395.85 265.35 392.75 261.35 389.2 256.95 385.3 256.95 391.8 M301.15 385.0 Q303.05 384.3 303.05 382.6 303.05 378.55 298.45 376.4 293.95 374.35 286.4 374.6 L286.55 377.2 Q286.75 379.3 287.55 380.8 290.05 385.4 298.45 385.4 L301.15 385.0 M195.3 406.45 Q195.5 407.0 195.5 404.75 195.5 403.05 193.05 401.6 190.5 400.05 188.75 401.4 L188.65 401.35 188.55 402.95 Q188.55 403.95 189.45 405.3 190.8 407.35 193.15 407.35 194.5 407.35 194.9 406.9 L195.3 406.45 M86.6 405.3 Q86.6 400.65 83.2 400.9 79.75 401.2 79.75 404.75 79.75 406.2 80.0 406.8 80.65 408.6 83.0 408.6 84.55 408.6 85.7 407.2 86.6 406.1 86.6 405.3 M101.8 414.15 L102.6 413.55 Q102.8 414.1 102.8 411.85 102.8 408.45 98.9 407.2 94.95 406.0 94.95 409.6 94.95 410.8 95.75 412.3 97.05 414.75 99.65 414.75 101.0 414.75 101.8 414.15 M340.65 397.8 L340.2 396.45 Q336.6 394.15 334.35 396.0 334.55 397.0 336.2 398.0 337.75 398.9 338.85 398.9 340.25 398.9 340.6 398.35 L340.65 397.8 M361.65 401.6 Q362.35 400.65 362.35 399.6 362.35 396.85 358.2 395.15 354.0 393.45 354.0 397.8 354.0 398.6 355.35 400.5 357.1 402.85 359.1 402.85 360.7 402.85 361.65 401.6" fill="url(#gradient0)" fill-rule="evenodd" stroke="none"/>
      <path d="M485.35 119.85 L485.55 120.8 485.55 121.05 485.35 122.1 483.5 123.05 483.8 123.7 482.7 124.8 482.5 124.85 482.45 124.9 481.5 125.2 481.1 125.25 480.25 125.3 Q479.15 125.3 478.05 124.2 477.0 123.05 475.85 123.05 475.25 123.05 468.1 125.65 L460.45 128.35 Q461.9 125.4 468.2 123.35 474.5 121.35 475.4 119.55 477.6 115.1 481.7 116.7 484.7 117.8 485.35 119.85 M546.6 226.35 Q548.0 226.3 548.75 227.0 549.55 227.75 549.55 229.35 L549.45 231.4 548.9 231.95 Q548.5 232.35 547.75 232.45 L546.95 232.5 Q545.25 232.5 544.2 230.75 543.45 229.5 543.45 228.7 L543.5 227.35 543.9 226.8 546.6 226.35 M514.7 294.6 L515.45 295.35 515.8 295.8 515.8 295.85 515.8 295.95 515.75 296.6 Q515.5 298.15 513.9 299.0 512.55 299.7 510.95 299.7 508.9 299.7 507.35 298.6 L506.35 297.65 505.45 296.55 504.0 293.25 Q504.0 288.2 509.9 291.25 511.95 292.3 513.95 293.95 L514.7 294.6 M487.35 142.5 Q486.95 143.5 485.3 144.35 L482.85 145.35 481.25 144.85 Q480.7 144.4 480.7 142.95 480.7 141.35 482.7 140.95 L486.9 141.15 487.35 142.5 M490.5 146.45 Q490.5 143.25 493.45 143.75 496.25 144.2 497.1 146.55 L496.65 148.95 Q496.55 148.95 495.85 149.3 L493.85 149.6 Q491.7 149.6 490.85 147.8 L490.5 146.45 M352.65 90.75 L354.2 89.25 357.95 89.1 358.3 89.15 Q358.65 89.3 358.65 90.65 L358.6 92.0 358.2 92.7 355.25 93.35 Q353.55 92.9 352.9 92.25 L352.65 90.75 M329.4 121.95 Q332.25 121.95 336.25 124.4 339.9 126.65 341.3 128.8 L341.3 129.45 337.15 130.35 Q335.55 129.85 332.4 127.5 328.95 124.95 328.95 123.75 L329.0 122.4 329.4 121.95 M337.15 157.2 Q336.4 157.8 334.9 157.8 L332.9 157.6 332.55 157.35 Q332.3 157.25 332.3 155.0 332.3 152.55 334.2 152.55 336.2 152.5 338.4 155.55 L337.15 157.2 M439.3 122.5 Q442.4 122.9 444.6 124.5 442.9 127.55 439.75 127.55 435.7 127.55 434.2 126.15 433.2 125.2 433.35 123.5 435.9 122.1 439.3 122.5 M425.55 119.0 L423.95 119.5 422.2 119.8 420.5 118.0 Q420.05 117.5 420.05 117.1 420.05 114.7 421.9 114.7 423.85 114.7 425.55 117.65 L425.55 119.0 M416.1 139.05 Q415.65 140.05 414.0 140.5 L412.4 139.5 Q413.25 138.25 413.8 137.9 L415.2 137.7 415.6 138.1 416.1 139.05 M480.7 291.55 Q480.75 289.15 484.1 290.35 485.85 290.95 488.35 292.35 L488.8 293.7 Q487.6 295.65 484.2 295.65 481.75 295.65 480.95 293.3 L480.7 291.55 M359.05 362.85 Q361.7 362.85 363.55 364.5 365.6 366.35 365.6 369.55 365.6 371.55 364.4 373.45 362.6 376.2 359.1 376.2 355.05 376.2 353.35 372.85 L352.45 369.45 Q352.45 366.35 354.5 364.55 356.35 362.85 359.05 362.85 M347.15 365.05 Q344.9 365.05 343.95 363.8 343.35 363.05 343.35 362.1 343.35 360.65 343.55 360.4 L344.1 360.0 Q344.65 359.85 346.35 360.7 L349.65 362.25 Q349.7 364.15 349.05 364.7 L347.15 365.05 M534.9 301.95 L534.7 301.5 534.45 299.8 Q534.45 296.6 537.7 297.6 540.9 298.55 540.9 300.7 540.9 302.55 539.3 303.1 L538.9 302.55 538.05 301.6 537.95 301.55 536.4 299.9 535.25 300.4 Q534.95 300.7 534.9 301.95 M298.0 92.8 Q302.15 89.85 308.9 88.65 317.25 87.15 322.5 90.45 L322.95 91.8 Q320.85 93.35 315.75 95.6 310.45 97.85 308.7 97.85 305.85 97.85 301.95 95.8 298.4 93.95 298.0 92.8 M235.45 74.0 L235.9 75.35 Q235.6 76.15 233.55 76.95 L228.7 76.95 228.35 76.1 227.8 75.15 Q230.05 73.7 231.95 73.45 233.65 73.3 235.45 74.0 M292.6 103.6 Q292.6 106.5 287.55 106.5 284.45 106.5 283.15 104.55 282.45 103.5 282.45 102.35 282.45 100.95 282.6 100.8 L282.7 100.9 285.85 101.3 291.7 101.8 292.15 102.05 Q292.6 102.25 292.6 103.6 M104.7 68.05 Q103.6 70.3 102.45 70.95 101.0 71.75 97.4 71.75 L95.5 71.55 95.25 71.3 94.75 71.05 Q94.6 70.95 94.6 69.6 94.6 67.0 103.8 66.25 103.8 66.7 104.7 68.05 M125.75 98.75 L126.0 99.2 Q126.2 99.5 126.2 100.8 126.2 102.3 125.1 103.4 123.95 104.5 122.4 104.5 L120.25 104.3 119.8 104.05 119.45 103.35 Q119.1 102.75 119.1 101.45 119.1 99.65 121.45 98.9 L125.75 98.75 M114.95 106.5 Q115.4 106.6 115.4 108.0 115.4 109.45 113.25 110.45 111.4 111.35 109.65 111.35 L107.85 111.2 106.85 110.7 106.65 111.0 Q106.4 111.05 106.4 109.65 106.4 108.3 109.6 107.4 112.2 106.65 114.5 106.65 L114.95 106.5 M98.0 259.1 Q99.25 260.3 99.45 261.0 L98.9 262.15 Q98.35 262.8 96.95 262.8 L95.25 262.6 95.25 262.35 94.75 261.9 Q94.6 261.7 94.6 260.3 94.6 258.8 95.1 258.4 L96.5 257.85 98.0 259.1 M89.6 257.75 Q87.8 260.3 84.25 260.3 80.15 260.3 78.5 257.05 L77.7 253.65 77.9 251.65 77.6 251.65 Q74.75 251.65 70.7 249.9 65.85 247.85 65.55 245.25 67.9 243.6 73.55 246.2 77.35 247.95 78.95 249.4 L79.75 248.5 Q81.55 247.05 84.3 247.35 86.9 247.65 88.85 249.35 90.9 251.2 90.9 253.65 90.9 255.9 89.6 257.75 M98.3 290.9 Q98.3 287.25 101.65 288.45 104.65 289.55 105.95 291.7 L104.05 293.65 Q103.05 294.4 101.8 294.4 99.0 294.4 98.35 292.6 L98.3 290.9 M83.75 283.15 L81.65 283.5 Q80.15 283.5 78.6 282.8 L76.8 281.55 Q78.35 280.0 80.7 280.3 82.6 280.5 84.45 281.8 L84.45 282.45 83.75 283.15 M104.4 278.1 Q102.9 277.75 102.25 277.2 102.25 276.65 103.1 276.15 103.95 275.6 104.85 275.6 L105.75 276.85 Q105.3 277.65 104.4 278.1 M46.25 240.95 Q46.7 239.0 48.15 237.9 50.0 236.5 52.85 236.8 55.55 237.1 57.55 238.7 59.7 240.35 59.7 242.4 59.7 244.15 58.35 246.4 56.35 249.75 52.65 249.75 48.6 249.75 46.9 246.55 L46.3 245.15 46.9 245.0 45.2 245.25 43.4 244.95 42.75 244.2 42.5 242.85 Q43.85 241.6 45.65 241.1 L46.8 240.85 46.25 240.95 M52.2 295.65 L50.45 295.5 49.15 295.05 Q48.9 295.3 48.9 293.05 48.9 291.65 49.05 291.2 L49.15 291.0 Q51.35 290.75 56.35 292.35 L56.8 293.7 Q55.6 295.65 52.2 295.65 M62.85 272.95 Q63.8 273.0 65.1 273.6 L65.35 274.25 65.15 275.1 63.55 275.4 61.7 275.1 61.2 274.25 61.2 273.15 62.85 272.95 M109.45 391.7 Q109.45 390.3 109.65 390.1 L109.8 390.15 Q111.9 390.3 114.45 392.1 116.75 393.75 117.65 395.4 L117.0 396.6 Q116.35 397.35 114.95 397.35 112.25 397.35 110.6 394.8 109.45 392.95 109.45 391.7 M286.45 237.75 Q285.85 238.5 284.85 238.5 L283.05 238.3 282.9 238.05 282.3 237.6 Q282.0 237.35 282.0 236.0 L282.05 234.65 282.45 234.0 284.65 233.8 287.3 233.75 288.0 235.1 286.45 237.75 M267.75 251.65 Q267.0 251.65 265.9 250.65 L264.0 248.6 Q265.45 246.65 267.35 246.35 269.7 245.95 270.65 249.05 L270.0 250.45 Q269.2 251.65 267.75 251.65 M258.75 251.65 L255.0 252.1 254.7 251.75 Q254.35 251.4 254.35 250.05 254.35 248.65 255.8 248.3 L258.75 248.6 258.8 249.05 259.2 249.95 258.75 251.65 M299.75 266.0 Q299.2 266.9 297.55 266.95 L294.95 264.25 Q294.95 262.85 295.2 262.7 295.3 262.6 295.4 262.8 297.75 262.8 300.45 264.15 L299.75 266.0 M238.95 252.9 Q238.95 256.35 236.4 256.35 L229.35 255.7 Q226.45 255.7 222.1 257.8 217.8 259.85 215.55 259.85 213.45 259.85 211.4 258.3 L208.9 255.9 203.25 256.5 199.35 256.35 Q202.0 255.5 206.95 250.8 211.2 246.75 215.1 246.6 221.0 248.1 227.65 250.7 232.7 252.2 238.35 250.85 L238.65 251.3 Q238.95 251.6 238.95 252.9 M180.45 393.6 L180.0 394.75 Q179.6 395.4 178.2 395.4 L176.55 395.1 Q175.75 394.35 175.6 394.3 L175.35 392.6 Q175.9 390.35 177.3 389.9 179.15 390.6 179.85 391.6 180.3 392.25 180.45 393.6 M260.6 317.3 Q263.8 317.6 263.8 320.7 263.8 322.15 262.45 322.85 L260.3 323.3 258.25 323.1 257.85 322.85 257.65 322.5 Q257.4 322.3 257.4 320.95 257.4 317.05 260.6 317.3 M270.45 324.6 L271.35 324.45 273.5 326.4 Q275.45 328.35 275.6 328.8 L275.3 329.95 Q274.9 330.6 273.45 330.6 271.3 330.6 270.2 328.55 269.55 327.25 269.55 326.25 269.55 324.85 270.45 324.6 M279.45 368.3 L279.55 365.95 Q281.7 365.95 283.8 367.45 L287.1 370.45 286.3 371.8 Q285.3 373.05 283.6 373.05 281.65 373.05 280.35 370.7 L279.45 368.3 M195.3 406.45 L194.9 406.9 Q194.5 407.35 193.15 407.35 190.8 407.35 189.45 405.3 188.55 403.95 188.55 402.95 L188.65 401.35 188.75 401.4 Q190.5 400.05 193.05 401.6 195.5 403.05 195.5 404.75 195.5 407.0 195.3 406.45 M132.15 423.3 Q131.95 423.05 131.4 422.85 130.7 419.45 129.2 415.65 L124.85 406.0 125.1 404.65 125.75 404.65 Q127.6 407.7 131.8 412.1 L141.3 421.65 143.4 423.5 138.8 423.6 132.15 423.65 132.2 423.35 132.15 423.3" fill="#a79e85" fill-rule="evenodd" stroke="none"/>
      <path d="M621.7 250.25 L621.3 250.4 620.95 249.75 620.7 249.25 620.35 248.6 621.7 250.25 M457.05 22.7 Q458.35 23.3 459.5 24.05 464.15 26.85 466.4 30.9 461.8 29.6 455.25 26.55 L454.95 25.4 Q455.55 23.7 457.05 22.7 M447.3 42.4 Q447.3 40.0 450.0 40.25 452.75 40.45 453.45 43.3 L453.0 44.55 452.65 45.15 450.9 45.45 Q448.7 45.45 447.75 43.65 L447.3 42.4 M437.6 41.95 L434.55 41.25 Q434.35 41.5 434.35 39.25 L434.45 37.1 434.55 36.65 Q436.1 36.65 437.8 37.4 L441.45 39.45 Q440.8 40.2 439.15 41.15 437.6 41.9 437.6 41.95 M428.25 60.3 L426.7 61.4 Q425.1 61.2 424.45 60.5 424.45 60.0 425.3 59.5 426.15 58.95 427.15 58.95 L427.7 59.35 Q428.25 59.85 428.25 60.3 M331.2 17.4 Q330.75 19.1 328.3 21.15 324.5 24.4 323.3 25.75 L322.65 25.75 Q324.0 23.75 327.15 20.75 330.1 17.9 331.2 17.4 M352.25 28.9 Q351.35 29.55 350.75 29.55 348.55 29.55 347.3 28.2 346.35 27.2 346.35 26.2 346.35 23.05 348.6 23.6 350.3 24.05 354.0 27.1 353.3 28.2 352.25 28.9 M393.6 322.2 L394.3 322.45 394.45 322.5 395.0 326.25 394.5 326.4 393.75 326.45 392.0 326.25 391.95 326.0 391.5 325.6 Q391.35 325.4 391.35 324.0 L391.45 322.15 391.5 321.95 393.6 322.2 M378.15 282.3 L378.5 282.45 378.55 282.45 378.95 282.95 Q379.35 283.35 379.35 284.7 379.35 285.85 378.55 286.5 L377.85 286.85 Q376.15 287.25 375.75 287.55 L373.75 285.9 Q372.9 285.1 372.9 284.4 372.9 283.15 374.1 282.4 L374.15 282.4 372.5 278.9 373.15 278.2 374.4 282.25 Q375.8 281.6 378.15 282.3 M378.95 290.5 L379.8 289.7 Q381.0 288.7 381.0 288.0 383.25 289.8 384.3 291.7 L383.6 293.15 Q383.0 294.15 381.45 294.15 L379.6 293.95 379.45 293.7 379.3 293.6 378.85 293.15 Q378.55 292.75 378.55 291.35 L378.95 290.5 M309.35 39.2 Q315.25 33.75 317.35 32.85 316.6 36.15 315.35 39.55 L309.35 39.2 M216.45 19.45 Q216.45 18.05 217.05 18.0 L217.65 18.1 218.85 18.3 220.6 18.9 220.8 19.65 219.45 20.7 217.05 20.85 Q216.45 20.85 216.45 19.45 M172.45 28.9 L170.45 28.7 170.1 28.45 169.9 28.0 Q169.65 27.7 169.65 26.4 169.65 25.1 169.8 24.8 L170.1 23.85 Q175.05 23.85 175.6 26.55 L174.55 27.9 Q173.7 28.9 172.45 28.9 M148.8 20.9 L148.6 19.2 Q148.6 17.35 148.95 16.85 149.8 15.55 153.0 16.5 L153.25 17.4 153.45 19.45 Q153.45 21.7 153.2 21.8 L152.35 22.2 150.95 22.7 Q149.3 22.2 148.8 20.9 M110.2 351.25 L115.9 359.95 112.95 356.95 Q111.9 355.7 110.2 351.25 M138.15 380.6 L138.4 381.1 145.5 390.05 140.4 385.25 139.95 384.35 138.15 380.6 M150.05 388.55 L147.2 388.15 Q146.05 387.75 145.8 387.2 147.3 385.45 148.15 385.25 149.55 384.95 151.65 387.2 151.45 387.55 151.55 388.15 151.4 388.55 150.05 388.55" fill="#989e8d" fill-rule="evenodd" stroke="none"/>
      <path d="M553.55 311.0 L553.5 309.7 Q553.5 307.45 555.45 307.4 L555.55 307.4 Q557.5 307.4 559.45 310.25 L558.35 311.9 Q557.65 312.5 556.2 312.5 L556.15 312.5 556.05 312.5 555.95 312.5 555.8 312.5 555.0 312.45 554.15 312.3 553.8 312.05 553.65 311.5 553.55 311.0 M380.0 218.25 L376.9 216.75 Q375.15 215.6 374.85 213.85 377.15 213.6 378.45 214.3 379.85 215.05 380.9 217.35 L381.15 217.35 380.0 218.25 M327.0 394.75 Q324.9 394.75 324.0 392.95 L323.55 391.6 Q323.55 389.3 326.2 389.5 328.9 389.7 329.6 392.5 L329.25 393.85 328.8 394.45 327.0 394.75 M445.05 325.1 Q445.35 325.2 445.35 326.55 L445.3 327.85 Q445.05 327.8 444.9 328.05 L444.35 328.75 442.45 329.05 440.55 328.85 440.3 328.6 439.8 328.4 Q439.65 328.3 439.65 326.9 439.65 325.45 441.0 325.25 L444.7 325.1 445.05 325.1 M528.85 232.15 Q529.2 232.4 529.2 233.85 529.2 236.1 528.95 234.9 L528.1 235.5 526.8 235.8 525.25 234.65 526.35 233.05 527.6 231.85 528.85 232.15 M546.3 239.5 L545.55 240.75 544.35 241.5 542.95 240.5 541.35 239.05 Q542.5 236.9 544.1 236.7 545.9 236.45 546.3 239.5 M497.1 228.35 Q503.5 226.15 507.45 230.5 L504.15 233.7 Q500.85 236.45 498.6 236.45 496.25 236.45 493.8 235.15 491.85 234.1 490.95 232.95 491.15 232.0 492.85 230.65 494.75 229.15 497.1 228.35 M538.9 302.55 L539.75 304.05 539.1 304.75 535.35 304.75 535.15 304.2 Q534.9 303.6 534.9 302.25 L534.9 301.95 Q534.95 300.7 535.25 300.4 L536.4 299.9 537.95 301.55 538.05 301.6 538.9 302.55 M181.05 88.55 L186.3 88.2 186.75 89.55 183.6 92.15 Q182.1 93.2 179.1 93.9 L177.55 93.35 Q177.05 92.95 177.05 91.45 177.05 89.25 181.05 88.55 M275.2 156.4 L275.6 157.35 275.5 158.55 Q275.3 159.3 273.9 159.3 L271.65 159.1 270.2 158.6 Q269.55 157.95 269.55 156.6 270.75 155.5 274.95 156.0 L275.2 156.4 M256.35 155.8 Q256.85 155.2 258.0 155.0 L262.65 154.9 263.05 155.7 263.55 156.6 Q262.55 157.75 260.75 158.15 L256.95 158.15 Q256.35 156.45 256.35 155.8 M63.7 83.85 L63.55 83.5 61.85 79.85 Q65.15 76.6 69.5 73.1 67.25 86.8 66.05 90.95 L65.85 91.7 63.7 83.85 M41.5 126.6 Q41.7 126.65 41.7 128.0 41.7 131.05 36.45 134.3 L34.25 134.1 33.75 133.85 33.55 133.5 Q33.3 133.3 33.3 131.95 33.3 130.5 35.8 128.55 38.55 126.45 41.25 126.45 L41.5 126.6 M91.45 104.5 Q93.5 102.45 95.85 102.25 L95.1 103.65 Q94.1 104.95 92.35 105.15 L91.45 104.5 M82.9 125.55 Q80.1 125.55 79.65 124.85 82.6 122.7 85.15 122.85 L82.9 125.55 M135.8 175.75 L132.45 180.25 132.0 180.95 132.0 180.9 Q132.3 172.8 135.8 175.75 M157.6 266.55 L159.9 265.55 160.25 265.45 160.65 265.4 162.2 265.15 161.8 264.7 162.35 264.7 164.4 264.6 165.65 264.45 165.6 264.45 163.3 265.35 Q159.45 266.75 157.0 267.0 L157.6 266.55 M175.3 259.9 L175.7 259.5 180.1 257.3 180.55 257.05 175.3 259.9 M196.6 247.7 L196.15 247.95 197.35 247.2 198.05 246.75 198.2 246.65 201.05 244.9 Q201.85 244.35 202.7 243.9 L197.2 247.3 196.75 247.6 196.6 247.7 M230.75 227.2 L232.55 224.35 232.65 224.1 232.95 223.35 233.1 224.1 Q233.1 227.5 230.0 228.05 L230.75 227.2 M30.9 326.75 Q30.05 327.7 28.0 327.7 L25.4 327.5 24.5 327.25 24.3 326.95 Q24.05 326.7 24.05 325.35 24.05 324.1 25.3 323.2 27.15 321.9 30.9 322.85 L31.8 324.2 Q31.65 326.0 30.9 326.75 M63.65 352.9 L62.75 353.45 Q61.85 354.0 60.5 354.0 57.9 354.0 56.6 351.25 55.8 349.6 55.8 348.3 L55.85 346.95 56.1 346.35 Q58.45 346.35 61.15 347.85 64.0 349.45 64.0 351.0 L63.65 352.9 M45.2 354.1 Q44.45 354.7 42.95 354.7 L41.4 353.75 39.45 352.35 Q40.7 350.25 42.45 350.15 44.45 350.0 46.0 352.9 L45.2 354.1 M55.2 390.8 Q64.45 394.1 64.45 400.7 64.45 402.35 63.1 403.65 61.45 405.2 58.5 405.2 53.45 405.2 49.15 398.7 L45.9 392.25 Q45.9 390.2 48.8 389.85 51.55 389.5 55.2 390.8 M96.4 324.95 Q94.95 323.45 94.95 320.4 94.95 307.9 104.4 316.9 111.9 324.0 116.55 333.1 L115.85 334.2 114.95 334.45 Q110.0 330.5 100.55 327.15 97.55 326.1 96.4 324.95 M121.1 339.8 L120.6 340.5 119.55 339.6 118.2 338.05 Q119.7 338.05 121.25 339.4 L121.1 339.8 M111.7 379.15 L110.55 380.0 108.3 378.65 Q108.0 378.4 108.0 377.85 108.0 376.4 108.55 375.95 108.65 375.85 109.65 375.5 L112.35 378.0 111.7 379.15 M143.85 370.8 L143.45 371.3 Q145.55 371.65 147.1 373.65 148.6 375.6 148.6 377.1 148.25 377.45 148.15 378.0 147.9 378.45 146.55 378.45 144.5 378.45 143.1 375.8 142.05 373.9 142.05 372.9 L142.1 371.55 142.2 371.55 Q141.45 371.55 132.6 359.75 123.95 348.3 121.05 343.65 L121.7 341.4 Q129.05 345.25 134.3 353.8 L138.7 361.45 Q141.5 366.25 144.0 369.55 L143.85 370.8 M155.45 374.95 L153.9 373.95 Q154.2 371.9 155.9 371.9 L157.05 373.25 156.55 374.2 Q156.2 374.65 155.45 374.95 M246.05 238.9 Q246.25 239.0 246.25 240.3 246.25 242.55 246.0 241.95 L245.25 242.3 243.1 242.65 241.1 242.35 240.3 241.5 240.05 240.15 Q240.6 238.75 241.3 238.45 L245.8 238.7 246.05 238.9 M291.0 288.45 Q288.65 288.45 288.0 286.65 L287.85 285.3 Q287.85 281.95 291.35 282.85 294.85 283.75 294.85 285.75 294.85 287.5 293.5 288.1 L291.0 288.45 M301.6 287.65 Q301.6 284.6 303.65 282.75 305.5 281.05 308.2 281.05 310.85 281.05 312.7 282.7 314.75 284.6 314.75 287.85 314.75 289.9 313.4 291.8 311.5 294.4 308.1 294.4 304.15 294.4 302.5 291.05 L301.6 287.65 M230.4 242.65 L230.2 242.2 Q229.95 241.9 229.95 240.6 229.95 238.95 231.5 237.9 233.35 236.7 236.35 237.6 L236.6 237.95 Q236.8 238.2 236.8 239.5 236.8 241.15 235.45 242.2 234.35 243.1 233.1 243.1 L230.9 242.9 230.4 242.65 M214.65 307.45 L212.7 307.25 212.4 307.0 212.1 306.55 Q211.8 306.25 211.8 304.95 L211.9 303.3 211.95 303.3 Q215.15 303.3 216.65 306.75 L216.4 307.1 214.65 307.45 M172.9 364.6 Q169.65 364.6 167.85 362.6 L166.7 360.55 Q166.7 357.3 169.9 357.6 173.3 357.85 175.5 362.45 L174.9 364.0 Q174.4 364.6 172.9 364.6 M253.65 305.3 L253.35 307.0 252.9 307.65 250.65 307.8 250.45 307.3 Q250.2 306.9 250.2 305.55 250.2 304.05 250.75 303.6 L252.0 303.3 Q252.65 303.5 253.2 304.3 L253.65 305.3 M301.15 385.0 L298.45 385.4 Q290.05 385.4 287.55 380.8 286.75 379.3 286.55 377.2 L286.4 374.6 Q293.95 374.35 298.45 376.4 303.05 378.55 303.05 382.6 303.05 384.3 301.15 385.0 M101.8 414.15 Q101.0 414.75 99.65 414.75 97.05 414.75 95.75 412.3 94.95 410.8 94.95 409.6 94.95 406.0 98.9 407.2 102.8 408.45 102.8 411.85 102.8 414.1 102.6 413.55 L101.8 414.15 M86.6 405.3 Q86.6 406.1 85.7 407.2 84.55 408.6 83.0 408.6 80.65 408.6 80.0 406.8 79.75 406.2 79.75 404.75 79.75 401.2 83.2 400.9 86.6 400.65 86.6 405.3 M95.8 417.5 L95.6 420.8 92.1 420.7 94.9 418.3 95.8 417.5 M361.65 401.6 Q360.7 402.85 359.1 402.85 357.1 402.85 355.35 400.5 354.0 398.6 354.0 397.8 354.0 393.45 358.2 395.15 362.35 396.85 362.35 399.6 362.35 400.65 361.65 401.6 M340.65 397.8 L340.6 398.35 Q340.25 398.9 338.85 398.9 337.75 398.9 336.2 398.0 334.55 397.0 334.35 396.0 336.6 394.15 340.2 396.45 L340.65 397.8" fill="#818967" fill-rule="evenodd" stroke="none"/>
      <path d="M243.6 363.25 L242.3 363.6 240.65 363.05 Q240.3 362.7 240.3 361.1 240.3 359.9 240.85 358.7 241.7 356.75 243.65 356.05 244.0 356.4 244.4 356.45 L244.65 358.05 244.55 359.85 244.55 359.9 244.05 360.3 Q243.1 361.05 243.0 361.65 L243.2 362.7 243.6 363.25 M256.95 391.8 Q256.95 385.3 261.35 389.2 265.35 392.75 266.25 395.85 266.1 396.15 266.2 396.7 266.1 397.1 264.7 397.1 262.05 397.1 259.45 395.2 256.95 393.35 256.95 391.8" fill="#91967e" fill-rule="evenodd" stroke="none"/>
    </g>
    <linearGradient gradientTransform="matrix(-0.0043, 0.1245, -0.9992, -0.0341, 187.5, 303.9)" gradientUnits="userSpaceOnUse" id="gradient0" spreadMethod="pad" x1="-819.2" x2="819.2">
      <stop offset="0.0" stop-color="#989e8d"/>
      <stop offset="1.0" stop-color="#91967e"/>
    </linearGradient>
  </defs>
</svg>
