<?xml version="1.0" encoding="UTF-8" standalone="no"?>
<svg xmlns:ffdec="https://www.free-decompiler.com/flash" xmlns:xlink="http://www.w3.org/1999/xlink" ffdec:objectType="frame" height="612.0px" width="800.25px" xmlns="http://www.w3.org/2000/svg">
  <g transform="matrix(1.0, 0.0, 0.0, 1.0, 364.35, 452.35)">
    <use ffdec:characterId="1432" height="23.6" transform="matrix(7.0, 0.0, 0.0, 7.0, 4.0, -79.1)" width="57.1" xlink:href="#shape0"/>
    <use ffdec:characterId="1434" height="24.5" transform="matrix(-6.9014, 0.0, 0.0, 7.0, 125.6416, -218.85)" width="68.05" xlink:href="#shape1"/>
    <use ffdec:characterId="1423" height="19.55" transform="matrix(-5.8967, 0.0, 0.0, -10.4202, 60.9583, -31.3864)" width="71.45" xlink:href="#shape2"/>
    <use ffdec:characterId="1433" height="12.25" transform="matrix(7.0, 0.0, 0.0, -7.0, -98.6, -60.5)" width="68.25" xlink:href="#shape3"/>
    <use ffdec:characterId="1430" height="11.9" transform="matrix(-7.0, 0.0, 0.0, 7.0, -3.6, -131.5)" width="49.35" xlink:href="#shape4"/>
  </g>
  <defs>
    <g id="shape0" transform="matrix(1.0, 0.0, 0.0, 1.0, -12.25, 3.2)">
      <path d="M68.4 -1.25 Q67.85 -1.3 67.35 -1.45 67.1 -1.5 66.9 -1.7 66.9 -2.0 66.85 -2.3 66.65 -3.1 67.8 -3.2 68.2 -3.15 68.55 -3.05 68.85 -2.95 69.15 -2.8 69.35 -2.5 69.35 -2.2 69.3 -1.6 68.45 -1.3 L68.4 -1.25 M58.05 0.8 L58.05 0.75 Q57.8 0.55 57.45 0.4 57.1 0.25 56.85 0.35 56.6 0.45 56.6 0.8 56.6 1.0 56.75 1.35 56.9 1.75 56.9 1.85 L57.2 2.0 Q56.0 2.0 55.35 1.15 54.65 0.25 56.05 0.0 57.4 -0.05 58.0 0.75 L58.05 0.8 M57.3 5.7 L57.2 5.7 Q56.45 4.9 57.6 4.25 58.25 3.85 58.95 3.6 L58.85 3.7 Q58.35 4.15 57.8 4.9 57.3 5.55 57.3 5.6 L57.3 5.7 M57.55 9.55 Q57.05 9.55 56.6 9.35 56.25 8.95 56.45 8.45 56.65 7.85 57.5 7.5 57.8 7.4 57.95 7.35 L58.6 7.4 Q58.95 7.45 59.3 7.6 L59.45 7.75 59.45 7.8 Q59.2 7.8 58.8 8.05 58.3 8.3 57.9 8.8 57.55 9.25 57.55 9.55 M46.05 2.75 Q46.1 2.95 46.55 3.1 46.75 3.2 47.6 3.3 48.3 3.45 48.6 3.55 49.1 3.8 49.1 4.15 49.1 4.9 48.0 5.5 L47.25 5.95 Q47.05 6.1 47.0 6.25 46.05 6.15 45.45 5.4 44.2 3.7 46.05 2.75 M46.45 10.9 L46.75 10.8 47.05 10.65 Q48.6 9.9 50.2 9.3 51.8 8.5 53.2 7.55 53.85 9.7 48.65 11.65 L45.95 12.6 Q44.65 13.3 43.25 13.9 42.95 13.8 42.6 13.75 41.55 13.5 40.8 13.55 39.95 13.65 39.95 14.1 39.95 14.2 40.3 14.4 L41.0 14.7 Q42.0 15.2 42.0 15.6 42.0 15.8 40.7 16.45 39.8 16.9 39.5 17.15 L38.85 17.15 Q36.65 17.2 34.3 17.45 L30.7 17.85 30.75 17.85 30.65 17.95 30.7 17.85 Q30.5 17.65 30.25 17.5 29.45 17.1 28.15 17.25 27.0 17.4 26.05 17.85 25.1 18.3 25.1 18.7 25.1 18.95 25.15 18.9 L25.2 18.85 25.6 18.95 26.6 18.8 Q27.5 18.65 29.2 18.65 L29.25 18.95 29.05 19.3 29.0 19.4 Q25.55 21.4 18.35 19.35 16.75 18.9 14.95 18.8 14.45 19.1 13.8 19.0 13.7 18.8 13.65 18.65 L12.65 18.55 13.65 18.55 13.65 18.5 Q12.95 18.4 12.25 18.2 L13.7 18.1 13.9 17.95 Q14.8 16.85 16.45 16.0 17.15 15.65 17.9 15.45 L17.85 15.55 Q17.85 15.75 17.95 15.85 L18.0 15.95 Q20.55 15.95 21.6 16.7 L22.35 17.35 Q22.75 17.7 23.2 17.85 23.55 17.7 23.75 17.25 23.95 16.9 23.95 16.7 23.95 16.45 23.6 16.2 L23.85 16.2 Q24.35 15.05 25.2 14.05 L25.5 14.1 Q25.95 14.1 26.35 13.85 26.6 13.75 27.15 13.4 28.35 12.75 30.3 12.75 32.3 12.75 33.2 13.4 L33.75 13.85 Q34.05 14.1 34.45 14.1 34.8 14.1 35.15 13.55 35.35 13.3 35.45 13.05 36.55 12.35 37.6 11.5 L38.45 10.85 38.75 10.85 Q38.8 10.85 40.15 10.45 41.45 10.05 41.5 10.05 44.65 10.05 45.2 10.45 45.35 10.6 45.35 10.9 45.35 11.2 45.5 11.35 46.05 11.25 46.45 10.9 M29.45 11.25 Q30.2 11.05 31.05 10.95 32.0 11.05 32.75 11.25 31.55 11.1 30.1 11.2 L29.45 11.25 M41.5 8.6 L41.6 8.55 Q41.85 8.35 42.15 8.35 L42.35 8.4 Q42.7 8.3 43.05 8.2 L43.1 8.2 43.6 8.15 Q43.1 8.2 42.55 8.35 42.05 8.45 41.5 8.6" fill="#ababab" fill-rule="evenodd" stroke="none"/>
      <path d="M57.2 2.0 L56.9 1.85 Q56.9 1.75 56.75 1.35 56.6 1.0 56.6 0.8 56.6 0.45 56.85 0.35 57.1 0.25 57.45 0.4 57.8 0.55 58.05 0.75 L58.05 0.8 57.8 1.95 57.7 1.95 57.45 2.0 57.2 2.0 M58.95 3.6 L59.0 3.55 59.5 3.45 59.55 3.4 Q60.85 4.1 59.4 5.2 58.5 5.85 57.3 5.7 L57.3 5.6 Q57.3 5.55 57.8 4.9 58.35 4.15 58.85 3.7 L58.95 3.6 M59.45 7.8 L59.55 8.0 59.55 8.65 Q59.15 9.15 58.35 9.4 57.9 9.55 57.55 9.55 57.55 9.25 57.9 8.8 58.3 8.3 58.8 8.05 59.2 7.8 59.45 7.8 M46.05 2.75 L46.25 2.65 Q55.2 3.25 48.75 5.9 47.75 6.3 47.0 6.25 47.05 6.1 47.25 5.95 L48.0 5.5 Q49.1 4.9 49.1 4.15 49.1 3.8 48.6 3.55 48.3 3.45 47.6 3.3 46.75 3.2 46.55 3.1 46.1 2.95 46.05 2.75 M43.6 8.15 Q46.0 8.05 46.55 9.55 46.95 10.55 45.95 11.0 L45.9 11.1 46.45 10.9 Q46.05 11.25 45.5 11.35 45.35 11.2 45.35 10.9 45.35 10.6 45.2 10.45 44.65 10.05 41.5 10.05 41.45 10.05 40.15 10.45 38.8 10.85 38.75 10.85 L38.45 10.85 38.65 10.7 41.2 8.8 41.3 8.75 41.5 8.6 Q42.05 8.45 42.55 8.35 43.1 8.2 43.6 8.15 M43.25 13.9 L43.2 13.95 43.15 13.95 Q44.15 14.7 44.4 15.25 44.45 15.45 44.45 15.6 L44.45 15.7 Q44.25 16.95 39.5 17.15 39.8 16.9 40.7 16.45 42.0 15.8 42.0 15.6 42.0 15.2 41.0 14.7 L40.3 14.4 Q39.95 14.2 39.95 14.1 39.95 13.65 40.8 13.55 41.55 13.5 42.6 13.75 42.95 13.8 43.25 13.9 M30.65 17.95 L29.25 19.25 29.0 19.4 29.05 19.3 29.25 18.95 29.2 18.65 Q27.5 18.65 26.6 18.8 L25.6 18.95 25.2 18.85 25.15 18.9 Q25.1 18.95 25.1 18.7 25.1 18.3 26.05 17.85 27.0 17.4 28.15 17.25 29.45 17.1 30.25 17.5 30.5 17.65 30.7 17.85 L30.65 17.95 M17.9 15.45 L18.35 15.3 Q20.6 15.0 22.4 15.7 22.95 15.9 23.35 16.2 L23.6 16.2 Q23.95 16.45 23.95 16.7 23.95 16.9 23.75 17.25 23.55 17.7 23.2 17.85 22.75 17.7 22.35 17.35 L21.6 16.7 Q20.55 15.95 18.0 15.95 L17.95 15.85 Q17.85 15.75 17.85 15.55 L17.9 15.45 M25.2 14.05 Q25.65 13.55 26.2 13.05 26.45 12.8 26.7 12.6 L29.35 11.3 29.45 11.25 30.1 11.2 Q31.55 11.1 32.75 11.25 35.1 11.85 35.05 13.3 L35.4 13.1 35.45 13.05 Q35.35 13.3 35.15 13.55 34.8 14.1 34.45 14.1 34.05 14.1 33.75 13.85 L33.2 13.4 Q32.3 12.75 30.3 12.75 28.35 12.75 27.15 13.4 26.6 13.75 26.35 13.85 25.95 14.1 25.5 14.1 L25.2 14.05" fill="#e3e3e3" fill-rule="evenodd" stroke="none"/>
    </g>
    <g id="shape1" transform="matrix(1.0, 0.0, 0.0, 1.0, 8.2, 8.15)">
      <path d="M53.9 -7.95 Q54.05 -8.0 54.25 -8.1 54.4 -8.15 54.6 -8.15 55.35 -8.1 56.0 -7.95 56.65 -7.8 56.85 -7.35 56.6 -6.3 54.95 -6.3 53.55 -6.3 53.65 -7.25 L53.65 -7.6 Q53.65 -7.65 53.7 -7.75 L53.9 -7.95 M54.9 -6.5 Q55.4 -6.5 55.65 -6.6 L55.7 -6.65 Q55.75 -6.7 55.75 -6.9 55.75 -7.2 55.3 -7.4 54.6 -7.6 54.25 -7.75 L54.0 -7.7 Q53.9 -7.65 53.9 -7.4 53.9 -6.5 54.9 -6.5 M57.9 1.2 Q57.65 0.95 57.65 0.5 57.7 -0.3 58.8 -0.4 59.1 -0.35 59.3 -0.25 L59.85 0.05 Q59.8 0.45 59.85 0.75 59.95 1.4 59.1 1.65 58.55 1.6 58.25 1.45 L58.45 1.5 59.25 1.4 59.3 1.35 Q59.35 1.3 59.35 1.1 59.35 0.85 58.95 0.65 58.5 0.4 57.8 0.55 L57.8 0.6 Q57.75 0.6 57.75 0.8 57.75 1.0 57.85 1.2 L57.9 1.2 M46.6 1.15 L46.4 0.8 Q46.15 0.25 47.25 0.25 47.95 0.4 48.65 0.65 49.2 0.8 49.15 1.3 48.7 1.65 48.3 1.8 L48.4 1.75 Q48.0 1.0 47.25 0.9 46.9 0.9 46.7 1.0 46.65 1.05 46.6 1.15 M27.2 9.9 L27.1 10.0 Q27.95 10.05 29.1 9.95 L29.1 9.9 Q29.1 9.75 29.15 9.6 29.5 8.85 30.4 8.3 30.8 8.1 31.15 8.05 L32.75 8.1 Q33.55 8.2 33.6 8.7 L33.5 9.0 Q34.0 8.85 34.55 8.75 L34.95 8.7 35.25 8.6 Q37.4 7.9 39.5 7.6 L39.65 7.75 40.25 7.65 39.75 7.9 Q40.15 9.0 35.8 9.9 L33.15 10.45 Q31.75 10.85 29.9 11.2 L28.65 11.5 Q28.0 11.6 27.4 11.6 L27.15 11.65 Q27.35 11.85 27.45 12.0 27.05 11.65 26.55 11.65 26.15 11.65 26.05 11.95 L26.05 12.3 23.75 12.45 22.75 12.5 Q22.6 12.5 21.85 12.25 L20.5 11.8 Q18.75 11.3 18.75 12.0 18.75 12.2 19.3 12.55 19.7 12.8 20.3 13.05 L19.9 12.95 Q17.4 13.35 14.7 13.65 16.3 14.9 15.7 15.6 L15.7 15.4 15.65 15.05 Q15.65 14.65 15.3 14.2 14.95 13.8 14.5 13.55 14.0 13.3 13.7 13.35 13.3 13.4 13.3 13.85 13.3 14.0 13.65 14.45 13.95 14.85 13.95 14.95 L13.9 15.1 Q13.85 15.2 13.6 15.25 L10.5 15.35 Q4.45 15.35 2.45 14.95 1.7 14.8 0.8 14.5 -0.55 14.05 -1.15 13.85 L-1.3 13.8 Q-1.5 13.8 -1.5 14.0 -1.5 14.35 -0.85 14.8 -0.1 15.3 1.3 15.75 L1.9 15.9 2.0 15.9 1.5 15.85 0.45 15.7 Q-1.85 15.55 -3.85 15.2 -5.25 15.5 -6.9 15.3 L-8.2 15.5 Q-7.7 15.35 -7.15 15.15 -7.45 14.9 -7.65 14.55 -8.45 13.25 -6.65 12.6 -5.85 12.35 -5.15 12.2 L-3.2 12.2 Q-2.35 12.15 -1.7 12.4 -0.65 11.7 0.05 10.8 L0.05 10.85 Q0.05 11.05 0.1 11.1 0.2 11.2 0.55 11.4 0.85 11.2 1.35 10.35 1.95 9.25 2.3 8.85 3.9 6.85 6.55 6.85 9.25 6.85 11.0 8.15 L11.7 8.75 Q11.7 9.65 10.95 10.55 12.6 10.45 14.3 10.15 L18.05 8.45 18.2 8.4 Q16.9 9.15 15.45 10.1 L15.45 10.15 Q15.5 10.25 15.6 10.25 17.3 9.55 17.75 9.45 18.1 9.4 19.25 9.45 19.55 9.45 20.0 9.15 L20.95 8.4 Q22.5 7.35 24.5 7.35 25.65 7.35 26.15 7.8 26.5 8.1 26.55 8.7 L26.7 9.6 Q26.8 9.9 27.1 9.95 L27.2 9.9 M6.0 5.65 L6.45 5.55 6.9 5.5 6.8 5.55 6.0 5.65 M44.3 7.6 L44.4 7.65 Q44.75 8.05 44.8 8.45 L44.65 8.05 44.4 7.65 44.3 7.6 M41.35 11.1 Q40.3 11.4 39.2 11.5 38.85 11.25 39.2 10.95 39.95 10.4 40.95 10.05 41.15 9.95 41.1 9.85 41.1 9.7 40.95 9.5 40.8 9.35 40.75 9.15 40.7 8.85 40.9 8.6 41.35 7.95 42.3 7.55 42.6 7.4 42.75 7.35 L43.4 7.4 Q43.3 7.8 43.3 8.6 L43.3 9.2 Q43.2 9.45 43.0 9.65 42.5 10.05 40.5 10.7 40.95 10.95 41.35 11.1 M29.8 4.95 Q29.45 4.65 29.2 4.2 28.6 3.3 29.35 2.85 29.25 3.2 29.25 3.8 29.25 4.3 29.75 4.9 L29.8 4.95 M30.5 2.7 Q31.6 2.85 32.3 3.55 33.0 4.25 32.6 5.2 32.1 5.4 31.6 5.45 L31.9 5.3 Q32.05 5.15 32.05 4.95 31.35 3.6 30.65 2.85 L30.5 2.7 M27.4 10.0 L27.4 10.0 M31.95 9.5 L32.35 9.35 Q32.2 9.35 32.05 9.3 L31.95 9.5 M5.85 9.5 Q3.5 8.2 2.55 9.45 2.2 9.9 2.1 10.6 2.05 11.2 2.15 11.65 1.15 11.65 0.65 12.05 0.3 12.3 0.3 12.5 0.3 12.7 0.35 12.75 0.45 12.75 0.45 12.8 L0.75 12.9 Q1.25 12.75 2.15 12.6 L3.8 12.35 Q3.85 12.4 3.85 12.05 3.85 11.9 3.6 11.55 3.4 11.2 3.4 11.05 3.4 10.8 3.8 10.55 4.2 10.3 5.8 9.65 L5.85 9.5 M9.55 11.05 L9.55 11.1 9.6 11.1 9.55 11.05 M-0.6 13.3 L-0.4 13.25 -0.45 13.25 -0.6 13.3 M-1.7 14.95 L-1.7 14.95" fill="#585858" fill-rule="evenodd" stroke="none"/>
      <path d="M54.9 -6.5 Q53.9 -6.5 53.9 -7.4 53.9 -7.65 54.0 -7.7 L54.25 -7.75 Q54.6 -7.6 55.3 -7.4 55.75 -7.2 55.75 -6.9 55.75 -6.7 55.7 -6.65 L55.65 -6.6 Q55.4 -6.5 54.9 -6.5 M58.25 1.45 L58.2 1.45 Q58.0 1.4 57.9 1.2 L57.85 1.2 Q57.75 1.0 57.75 0.8 57.75 0.6 57.8 0.6 L57.8 0.55 Q58.5 0.4 58.95 0.65 59.35 0.85 59.35 1.1 59.35 1.3 59.3 1.35 L59.25 1.4 58.45 1.5 58.25 1.45 M46.6 1.15 Q46.65 1.05 46.7 1.0 46.9 0.9 47.25 0.9 48.0 1.0 48.4 1.75 L48.3 1.8 Q47.25 2.2 46.6 1.15 M27.45 12.0 L27.5 12.1 25.6 13.45 23.6 13.45 20.4 13.05 20.3 13.05 Q19.7 12.8 19.3 12.55 18.75 12.2 18.75 12.0 18.75 11.3 20.5 11.8 L21.85 12.25 Q22.6 12.5 22.75 12.5 L23.75 12.45 26.05 12.3 26.05 11.95 Q26.15 11.65 26.55 11.65 27.05 11.65 27.45 12.0 M15.7 15.6 Q15.0 16.35 11.25 16.35 L10.95 16.35 9.8 16.3 9.05 16.3 2.0 15.9 1.9 15.9 1.3 15.75 Q-0.1 15.3 -0.85 14.8 -1.5 14.35 -1.5 14.0 -1.5 13.8 -1.3 13.8 L-1.15 13.85 Q-0.55 14.05 0.8 14.5 1.7 14.8 2.45 14.95 4.45 15.35 10.5 15.35 L13.6 15.25 Q13.85 15.2 13.9 15.1 L13.95 14.95 Q13.95 14.85 13.65 14.45 13.3 14.0 13.3 13.85 13.3 13.4 13.7 13.35 14.0 13.3 14.5 13.55 14.95 13.8 15.3 14.2 15.65 14.65 15.65 15.05 L15.7 15.4 15.7 15.6 M0.05 10.8 Q0.65 10.05 1.0 9.2 2.1 6.6 5.95 5.65 L6.0 5.65 6.8 5.55 6.9 5.5 Q10.1 5.45 11.3 7.55 L11.4 7.7 11.4 7.75 11.45 7.75 Q11.65 8.25 11.7 8.75 L11.0 8.15 Q9.25 6.85 6.55 6.85 3.9 6.85 2.3 8.85 1.95 9.25 1.35 10.35 0.85 11.2 0.55 11.4 0.2 11.2 0.1 11.1 0.05 11.05 0.05 10.85 L0.05 10.8 M18.2 8.4 L18.3 8.35 Q20.85 7.2 23.6 6.4 L23.8 6.3 23.9 6.3 24.4 6.15 Q27.85 6.1 27.95 7.9 L28.0 8.1 Q28.2 8.85 27.65 9.35 27.45 9.65 27.2 9.9 L27.1 9.95 Q26.8 9.9 26.7 9.6 L26.55 8.7 Q26.5 8.1 26.15 7.8 25.65 7.35 24.5 7.35 22.5 7.35 20.95 8.4 L20.0 9.15 Q19.55 9.45 19.25 9.45 18.1 9.4 17.75 9.45 17.3 9.55 15.6 10.25 15.5 10.25 15.45 10.15 L15.45 10.1 Q16.9 9.15 18.2 8.4 M44.8 8.45 L44.85 8.55 44.0 10.0 43.95 10.0 43.7 10.2 43.5 10.3 43.45 10.3 43.35 10.4 43.3 10.4 43.15 10.45 42.95 10.55 42.3 10.8 42.25 10.8 41.35 11.1 Q40.95 10.95 40.5 10.7 42.5 10.05 43.0 9.65 43.2 9.45 43.3 9.2 L43.3 8.6 Q43.3 7.8 43.4 7.4 L43.65 7.45 43.75 7.45 44.3 7.6 44.4 7.65 44.65 8.05 44.8 8.45 M29.35 2.85 Q29.55 2.7 29.9 2.65 L30.0 2.65 30.5 2.7 30.65 2.85 Q31.35 3.6 32.05 4.95 32.05 5.15 31.9 5.3 L31.6 5.45 31.35 5.45 29.8 4.95 29.75 4.9 Q29.25 4.3 29.25 3.8 29.25 3.2 29.35 2.85 M27.4 10.0 L27.4 10.0 M5.85 9.5 L5.8 9.65 Q4.2 10.3 3.8 10.55 3.4 10.8 3.4 11.05 3.4 11.2 3.6 11.55 3.85 11.9 3.85 12.05 3.85 12.4 3.8 12.35 L2.15 12.6 Q1.25 12.75 0.75 12.9 L0.45 12.8 Q0.45 12.75 0.35 12.75 0.3 12.7 0.3 12.5 0.3 12.3 0.65 12.05 1.15 11.65 2.15 11.65 2.05 11.2 2.1 10.6 2.2 9.9 2.55 9.45 3.5 8.2 5.85 9.5" fill="#b1b1b1" fill-rule="evenodd" stroke="none"/>
    </g>
    <g id="shape2" transform="matrix(1.0, 0.0, 0.0, 1.0, -2.5, 17.05)">
      <path d="M5.1 -4.55 Q5.35 -3.9 4.45 -3.55 2.55 -3.4 2.5 -4.75 2.5 -5.45 3.5 -5.5 4.8 -5.3 5.1 -4.55 M32.85 -11.55 Q32.1 -11.55 31.2 -11.85 30.0 -13.05 31.4 -14.2 32.5 -15.05 34.0 -15.35 L33.85 -15.35 34.05 -14.95 Q34.5 -14.2 34.5 -14.1 34.5 -13.55 33.65 -12.8 32.8 -12.05 32.8 -11.85 32.8 -11.7 32.85 -11.55 M38.75 -10.45 Q37.75 -9.8 36.75 -10.55 36.6 -10.7 36.45 -10.85 36.45 -11.15 36.65 -11.4 37.15 -11.9 38.0 -12.0 L38.1 -12.0 Q37.8 -11.75 37.8 -11.35 37.8 -11.25 38.25 -10.8 38.55 -10.55 38.75 -10.45 M39.6 -9.5 L40.2 -9.4 Q40.6 -9.3 40.9 -9.15 L41.0 -9.05 Q40.15 -7.7 37.7 -8.45 37.5 -8.5 37.4 -8.65 37.3 -9.2 38.15 -9.35 38.95 -9.5 39.6 -9.5 M32.3 -5.8 Q32.3 -5.95 32.4 -6.1 32.65 -6.45 33.2 -6.65 33.4 -6.7 33.6 -6.7 34.4 -6.85 35.0 -6.5 35.45 -6.25 35.5 -5.85 34.75 -4.9 32.9 -5.35 32.4 -5.5 32.3 -5.8 M67.85 -12.5 L68.05 -12.95 Q68.0 -13.3 67.8 -13.65 67.0 -15.0 68.2 -15.7 68.35 -15.9 68.65 -16.05 68.55 -15.9 68.55 -15.75 68.55 -15.7 69.2 -15.45 70.05 -15.1 70.55 -14.85 72.5 -13.9 72.5 -12.8 72.5 -11.3 70.65 -9.7 L69.35 -8.7 Q68.8 -8.25 68.8 -8.1 L68.8 -8.0 Q68.25 -8.2 67.85 -8.25 67.1 -8.3 67.1 -7.7 67.1 -7.5 67.5 -7.25 L68.35 -6.75 Q69.65 -6.05 69.65 -5.4 69.65 -4.2 67.6 -2.7 L66.2 -1.75 Q65.55 -1.3 65.55 -1.15 65.55 -1.05 65.55 -1.0 L65.4 -0.95 64.05 1.0 Q63.35 1.9 62.05 1.8 L61.0 2.5 61.8 1.55 Q61.25 0.25 62.45 -1.2 63.1 -2.05 63.95 -2.65 63.9 -3.0 63.7 -3.35 L63.6 -3.5 Q63.25 -3.95 62.65 -3.5 61.75 -2.85 60.35 -3.25 59.45 -4.35 59.45 -5.7 59.45 -6.5 59.85 -7.25 62.5 -7.8 63.2 -6.75 L63.55 -5.9 Q63.7 -5.45 64.05 -5.45 64.75 -5.45 65.05 -6.25 65.2 -6.6 65.2 -7.05 L65.25 -7.05 Q65.4 -7.15 65.55 -7.25 L65.35 -8.6 Q65.2 -9.65 64.4 -10.45 63.65 -10.75 62.35 -10.7 61.75 -10.6 61.25 -10.4 60.9 -11.0 57.15 -9.7 56.4 -9.45 53.95 -8.5 L54.05 -8.45 53.55 -8.55 Q52.95 -9.45 53.95 -10.15 L54.15 -10.3 Q49.3 -9.95 44.75 -9.45 45.05 -9.95 45.95 -10.15 51.6 -11.3 57.35 -12.05 L58.05 -12.1 Q57.95 -12.4 58.0 -12.8 L58.3 -12.6 Q58.8 -12.75 59.3 -13.15 59.9 -13.4 61.25 -13.4 63.4 -13.4 65.5 -12.1 65.95 -11.8 66.8 -11.2 67.35 -10.8 67.5 -10.8 67.8 -10.8 68.0 -10.85 L68.2 -10.95 68.2 -11.0 68.25 -11.3 Q68.25 -11.95 67.85 -12.5 M70.0 -7.8 Q70.8 -7.25 71.15 -6.6 L71.1 -6.65 Q70.45 -7.25 69.5 -7.7 L69.4 -7.75 69.55 -7.75 70.0 -7.8 M61.1 -8.6 L61.15 -8.6 61.1 -8.6 M54.0 -13.4 L53.85 -13.4 Q53.1 -13.4 52.55 -13.7 L52.05 -14.0 Q51.9 -14.65 52.35 -15.2 53.2 -16.2 54.45 -16.95 54.6 -17.0 54.8 -17.05 L54.9 -17.05 Q54.9 -16.9 55.1 -16.65 55.3 -16.35 55.3 -16.2 55.3 -15.9 55.1 -15.6 L54.6 -15.0 Q53.95 -14.2 53.9 -13.4 L54.0 -13.4 M61.4 -4.55 L61.3 -4.6 61.3 -4.55 61.4 -4.55" fill="#5a5a5a" fill-rule="evenodd" stroke="none"/>
      <path d="M34.0 -15.35 L34.15 -15.4 34.45 -15.45 34.55 -15.45 35.15 -15.4 Q35.5 -15.35 35.85 -15.2 36.65 -13.7 35.25 -12.4 34.25 -11.5 32.85 -11.55 32.8 -11.7 32.8 -11.85 32.8 -12.05 33.65 -12.8 34.5 -13.55 34.5 -14.1 34.5 -14.2 34.05 -14.95 L33.85 -15.35 34.0 -15.35 M38.1 -12.0 Q39.0 -12.0 39.2 -11.45 39.35 -10.95 38.9 -10.55 L38.75 -10.45 Q38.55 -10.55 38.25 -10.8 37.8 -11.25 37.8 -11.35 37.8 -11.75 38.1 -12.0 M68.65 -16.05 L68.8 -16.15 69.65 -16.4 69.7 -16.45 Q71.15 -16.5 71.9 -15.8 75.5 -14.4 72.8 -10.9 71.4 -9.05 69.6 -8.0 L70.0 -7.8 69.55 -7.75 69.4 -7.75 69.5 -7.7 Q70.45 -7.25 71.1 -6.65 L71.15 -6.6 69.95 -3.5 69.85 -3.4 69.8 -3.4 69.6 -3.2 69.55 -3.2 69.55 -3.15 69.5 -3.15 Q67.55 -1.55 65.55 -1.0 65.55 -1.05 65.55 -1.15 65.55 -1.3 66.2 -1.75 L67.6 -2.7 Q69.65 -4.2 69.65 -5.4 69.65 -6.05 68.35 -6.75 L67.5 -7.25 Q67.1 -7.5 67.1 -7.7 67.1 -8.3 67.85 -8.25 68.25 -8.2 68.8 -8.0 L68.8 -8.1 Q68.8 -8.25 69.35 -8.7 L70.65 -9.7 Q72.5 -11.3 72.5 -12.8 72.5 -13.9 70.55 -14.85 70.05 -15.1 69.2 -15.45 68.55 -15.7 68.55 -15.75 68.55 -15.9 68.65 -16.05 M59.85 -7.25 Q60.25 -7.95 61.1 -8.6 L61.15 -8.6 Q61.4 -8.8 61.75 -8.85 62.85 -8.95 63.6 -8.6 63.95 -8.45 64.25 -8.15 64.75 -7.55 64.8 -6.85 65.05 -6.95 65.2 -7.05 65.2 -6.6 65.05 -6.25 64.75 -5.45 64.05 -5.45 63.7 -5.45 63.55 -5.9 L63.2 -6.75 Q62.5 -7.8 59.85 -7.25 M61.25 -10.4 Q60.55 -10.1 59.9 -9.65 L59.7 -9.55 59.05 -9.2 58.9 -9.1 58.65 -9.0 58.5 -8.95 58.45 -8.9 58.2 -8.8 58.05 -8.75 54.05 -8.45 53.95 -8.5 Q56.4 -9.45 57.15 -9.7 60.9 -11.0 61.25 -10.4 M58.0 -12.8 Q58.0 -13.1 58.1 -13.45 58.55 -15.25 61.45 -15.6 66.2 -14.65 67.25 -11.05 67.4 -11.75 67.85 -12.45 L67.85 -12.5 Q68.25 -11.95 68.25 -11.3 L68.2 -11.0 68.2 -10.95 68.0 -10.85 Q67.8 -10.8 67.5 -10.8 67.35 -10.8 66.8 -11.2 65.95 -11.8 65.5 -12.1 63.4 -13.4 61.25 -13.4 59.9 -13.4 59.3 -13.15 58.8 -12.75 58.3 -12.6 L58.0 -12.8 M54.0 -13.4 L53.9 -13.4 Q53.95 -14.2 54.6 -15.0 L55.1 -15.6 Q55.3 -15.9 55.3 -16.2 55.3 -16.35 55.1 -16.65 54.9 -16.9 54.9 -17.05 L56.05 -16.95 Q56.4 -16.9 56.8 -16.8 57.1 -16.1 56.4 -15.5 55.25 -14.55 54.55 -13.6 54.5 -13.5 54.3 -13.45 L54.0 -13.4 M68.1 -7.8 L68.1 -7.35 68.35 -7.8 68.1 -7.8" fill="#b5b5b5" fill-rule="evenodd" stroke="none"/>
    </g>
    <g id="shape3" transform="matrix(1.0, 0.0, 0.0, 1.0, 13.95, 2.8)">
      <path d="M-5.45 -0.9 Q-5.45 -0.5 -5.2 -0.3 -4.9 -0.1 -4.45 -0.1 -4.05 -0.1 -3.65 -0.25 -3.15 -0.5 -2.8 -0.6 -1.4 -1.15 1.2 -1.15 2.7 -1.15 3.7 -0.55 L4.5 0.0 Q5.05 0.3 5.6 0.5 L6.0 0.4 5.85 0.5 Q8.0 0.8 10.1 1.2 L10.3 1.15 10.35 1.25 Q10.65 1.6 11.25 1.6 L13.45 1.05 Q15.65 0.5 15.9 0.5 17.2 0.5 17.85 0.85 18.35 1.1 18.6 1.7 18.95 2.45 19.0 2.5 19.2 2.8 19.6 2.85 L19.7 2.8 Q19.45 2.95 19.15 3.1 21.65 3.5 24.1 3.95 19.9 4.35 15.7 3.55 L12.65 3.0 12.75 3.05 Q12.85 3.15 12.9 3.3 12.3 3.9 11.65 4.25 L11.7 3.9 Q11.7 3.25 11.2 3.25 L9.85 3.35 Q9.2 3.35 8.55 3.1 8.35 3.0 7.5 2.55 6.85 2.25 6.4 2.15 5.7 1.95 4.9 2.1 5.1 2.5 5.4 2.85 4.05 2.2 2.65 1.8 L0.25 1.7 Q-1.0 1.85 -2.15 2.0 -2.45 2.45 -3.0 2.6 -4.0 1.55 -6.05 0.65 -8.2 -0.3 -9.7 -0.3 L-9.75 -0.25 Q-9.8 -0.2 -9.85 0.05 -10.35 -0.4 -10.7 -0.85 L-10.85 -0.9 Q-12.55 -1.75 -13.95 -2.8 -12.9 -2.35 -11.8 -2.0 L-11.85 -2.15 Q-10.1 -1.65 -8.35 -1.2 -8.0 -1.15 -7.65 -1.05 L-7.6 -1.0 -7.1 -0.9 Q-6.25 -0.75 -5.45 -0.9 M16.8 -0.75 L18.05 -0.8 Q19.65 -0.55 20.4 0.4 20.75 0.8 20.8 1.15 20.55 0.75 20.1 0.4 18.95 -0.65 16.8 -0.75 M8.5 -0.55 Q8.0 -1.0 8.1 -1.5 8.15 -1.85 8.6 -2.05 L9.3 -2.15 9.85 -2.15 Q11.1 -2.0 11.0 -1.15 10.95 -0.7 10.5 -0.35 L8.95 -0.3 Q8.75 -0.3 8.6 -0.4 L8.5 -0.55 M26.8 1.9 Q27.1 1.9 27.2 1.85 L27.5 1.65 Q27.5 1.55 27.6 1.25 27.65 0.95 27.65 0.65 27.65 0.1 27.25 -0.2 27.15 -0.25 27.0 -0.3 L27.6 -0.35 Q27.85 -0.35 28.2 -0.25 29.4 0.15 29.85 0.95 30.15 1.4 29.65 1.8 28.25 2.6 26.8 1.9 M33.5 5.3 Q34.45 5.5 34.7 6.1 34.9 6.6 34.45 6.95 32.3 7.8 31.25 6.7 L31.2 6.55 Q31.5 6.75 31.95 6.75 33.05 6.75 33.4 6.1 33.6 5.75 33.55 5.6 33.55 5.45 33.5 5.3 M37.4 4.1 Q37.75 3.85 38.3 3.75 38.9 3.75 39.45 4.0 39.95 4.25 39.85 4.6 39.55 5.05 38.8 5.2 37.75 5.4 37.25 4.8 37.0 4.45 37.4 4.1 M52.15 8.25 Q53.0 8.35 52.55 8.9 51.8 9.85 50.7 9.15 50.7 8.75 51.2 8.55 51.6 8.35 52.15 8.25 M53.25 0.25 Q53.65 0.25 53.9 0.4 L54.3 0.7 Q54.35 1.05 54.15 1.35 53.75 1.85 52.95 1.8 L52.8 1.65 52.35 1.15 Q52.2 0.95 52.35 0.75 L52.5 0.6 Q52.65 0.45 52.85 0.35 53.05 0.25 53.25 0.25 M20.5 5.2 L22.0 5.05 Q22.25 5.1 22.4 5.15 22.85 5.35 23.05 5.65 23.2 5.8 23.2 6.0 22.4 7.15 20.3 7.2 19.15 7.2 18.35 6.9 L18.5 6.95 18.95 7.0 Q19.7 7.0 20.35 6.3 20.7 6.0 20.85 5.75 20.85 5.35 20.5 5.2 M30.15 3.85 Q31.0 3.9 30.9 4.4 30.8 4.9 29.9 5.0 27.6 5.2 27.2 4.05 27.25 3.95 27.3 3.9 27.6 3.8 27.9 3.7 28.2 3.65 28.45 3.6 29.2 3.8 30.15 3.85 M17.95 6.7 Q17.7 6.5 17.45 6.3 17.25 5.45 18.65 5.35 18.4 5.45 18.15 5.55 17.65 5.85 17.65 6.05 17.65 6.45 17.95 6.7 M12.3 1.6 L12.25 1.5 12.1 1.55 12.3 1.6" fill="#8c8c8c" fill-rule="evenodd" stroke="none"/>
      <path d="M-5.45 -0.9 L-5.25 -0.95 Q-5.05 -1.0 -4.85 -1.1 -3.85 -1.5 -2.8 -1.75 -0.85 -2.45 1.4 -2.5 1.85 -2.45 2.4 -2.35 4.55 -2.0 5.8 -0.8 6.5 -0.2 6.0 0.4 L5.6 0.5 Q5.05 0.3 4.5 0.0 L3.7 -0.55 Q2.7 -1.15 1.2 -1.15 -1.4 -1.15 -2.8 -0.6 -3.15 -0.5 -3.65 -0.25 -4.05 -0.1 -4.45 -0.1 -4.9 -0.1 -5.2 -0.3 -5.45 -0.5 -5.45 -0.9 M10.3 1.15 Q10.85 0.95 11.4 0.7 11.9 0.45 12.4 0.25 L12.5 0.2 13.1 0.0 13.2 -0.05 13.25 -0.05 13.4 -0.1 13.45 -0.15 13.6 -0.15 13.65 -0.2 13.7 -0.2 13.85 -0.25 14.05 -0.3 14.1 -0.3 14.3 -0.35 14.4 -0.4 14.5 -0.4 14.55 -0.45 14.6 -0.45 16.7 -0.75 16.8 -0.75 Q18.95 -0.65 20.1 0.4 20.55 0.75 20.8 1.15 20.9 1.85 20.15 2.5 L20.1 2.5 19.7 2.8 19.6 2.85 Q19.2 2.8 19.0 2.5 18.95 2.45 18.6 1.7 18.35 1.1 17.85 0.85 17.2 0.5 15.9 0.5 15.65 0.5 13.45 1.05 L11.25 1.6 Q10.65 1.6 10.35 1.25 L10.3 1.15 M11.65 4.25 Q9.65 5.2 6.9 3.65 6.2 3.2 5.4 2.85 5.1 2.5 4.9 2.1 5.7 1.95 6.4 2.15 6.85 2.25 7.5 2.55 8.35 3.0 8.55 3.1 9.2 3.35 9.85 3.35 L11.2 3.25 Q11.7 3.25 11.7 3.9 L11.65 4.25 M-3.0 2.6 Q-4.0 2.9 -5.85 2.2 L-6.75 1.85 -7.35 1.6 Q-8.85 0.9 -9.85 0.05 -9.8 -0.2 -9.75 -0.25 L-9.7 -0.3 Q-8.2 -0.3 -6.05 0.65 -4.0 1.55 -3.0 2.6 M27.0 -0.3 Q27.15 -0.25 27.25 -0.2 27.65 0.1 27.65 0.65 27.65 0.95 27.6 1.25 27.5 1.55 27.5 1.65 L27.2 1.85 Q27.1 1.9 26.8 1.9 L26.75 1.85 26.7 1.85 Q25.55 1.2 25.35 0.25 25.55 -0.05 26.1 -0.15 L26.15 -0.2 27.0 -0.3 M33.5 5.3 Q33.55 5.45 33.55 5.6 33.6 5.75 33.4 6.1 33.05 6.75 31.95 6.75 31.5 6.75 31.2 6.55 L31.2 6.35 Q31.2 6.0 31.65 5.7 L31.7 5.65 Q32.35 5.25 33.25 5.25 L33.25 5.3 33.5 5.3 M20.5 5.2 Q20.85 5.35 20.85 5.75 20.7 6.0 20.35 6.3 19.7 7.0 18.95 7.0 L18.5 6.95 18.35 6.9 17.95 6.7 Q17.65 6.45 17.65 6.05 17.65 5.85 18.15 5.55 18.4 5.45 18.65 5.35 L20.5 5.2 M19.25 1.4 Q19.3 1.15 19.15 1.0 L19.0 0.75 Q19.25 1.35 19.2 1.75 L19.25 1.7 19.25 1.4" fill="#d9d9d9" fill-rule="evenodd" stroke="none"/>
    </g>
    <g id="shape4" transform="matrix(1.0, 0.0, 0.0, 1.0, -4.0, 2.7)">
      <path d="M13.55 -0.4 L14.1 -0.4 14.4 -0.3 13.55 -0.4 M17.55 2.0 L17.55 2.4 Q17.25 2.6 16.95 2.85 17.45 2.95 18.65 3.0 L20.25 3.05 21.0 3.0 Q21.1 2.95 21.15 2.95 21.15 2.9 21.25 2.85 21.3 2.8 21.3 2.5 21.3 2.4 21.25 2.25 21.65 2.55 21.8 2.9 L21.85 3.05 22.0 2.65 Q22.25 2.9 22.75 2.9 23.3 2.9 23.65 2.55 L24.25 1.8 Q25.35 0.7 28.4 0.7 28.45 0.7 29.05 1.0 L29.35 1.15 29.3 1.05 Q29.65 1.6 29.65 2.25 29.65 3.25 29.2 3.8 L41.25 4.65 Q38.65 5.15 35.7 5.2 35.4 6.25 34.6 6.75 L34.7 6.7 34.7 6.65 34.65 6.35 Q34.55 6.3 34.55 6.2 L31.05 5.7 Q28.4 5.3 27.95 5.3 27.9 5.3 27.85 5.3 27.75 5.3 27.75 5.6 27.75 5.7 27.75 5.75 L25.8 5.0 Q24.7 4.85 23.6 4.75 24.4 5.2 25.0 5.8 L24.05 6.2 Q24.2 5.95 24.2 5.65 L24.15 5.25 24.1 5.25 23.8 5.1 Q23.5 5.0 23.05 5.0 22.6 5.0 22.35 5.1 22.3 5.15 22.05 5.3 21.7 5.65 20.4 5.65 18.2 5.65 16.0 4.8 15.35 4.55 14.6 4.2 L13.9 3.9 13.25 3.95 13.2 4.05 Q13.15 4.15 13.15 4.45 13.15 4.75 13.65 5.2 L13.7 5.2 Q11.45 4.1 9.1 3.15 L8.55 3.05 Q6.85 2.75 5.75 2.0 L5.6 1.95 7.75 1.4 Q10.35 0.8 11.3 0.8 14.3 0.8 15.35 1.45 15.6 1.65 15.9 1.95 16.2 2.15 16.7 2.15 17.25 2.15 17.55 2.0 M4.35 1.55 L4.0 1.45 Q4.05 1.3 4.2 1.15 4.25 1.4 4.35 1.55 M39.05 -2.65 L39.45 -2.7 Q40.8 -2.6 40.85 -1.7 40.95 -0.7 39.75 -0.35 38.85 -0.4 38.4 -0.8 L38.45 -0.8 Q38.9 -0.8 39.5 -1.35 39.8 -1.6 40.0 -1.85 40.0 -2.3 39.6 -2.5 39.35 -2.65 39.05 -2.65 M50.15 0.35 Q50.2 0.1 50.35 -0.15 50.7 -0.25 51.0 -0.3 L51.55 -0.35 Q52.8 -0.05 53.25 0.75 53.6 1.45 52.75 2.05 51.65 2.25 50.9 1.7 51.55 1.7 51.75 1.45 51.85 1.35 51.85 1.1 51.85 0.65 51.55 0.35 51.3 0.1 50.9 0.05 50.55 0.0 50.25 0.2 50.2 0.25 50.15 0.35 M35.35 2.2 Q35.75 1.95 36.35 2.0 37.25 2.15 37.65 2.8 37.95 3.3 37.35 3.6 36.65 4.0 35.85 3.65 34.95 3.3 34.85 2.75 35.0 2.45 35.35 2.2 M42.55 2.75 Q42.05 3.55 40.6 3.2 39.65 3.0 39.3 2.3 39.4 2.05 39.8 1.95 L40.55 1.75 Q41.25 1.95 42.05 2.2 42.55 2.4 42.55 2.75 M49.3 8.3 Q49.6 7.8 50.3 7.5 51.0 7.2 51.85 7.2 52.0 7.2 52.15 7.25 52.65 7.45 52.95 7.75 53.1 7.95 53.05 8.15 52.8 8.75 51.85 9.0 49.85 9.6 49.3 8.3 M47.35 4.4 L49.3 4.35 49.65 4.4 Q50.0 4.45 50.2 4.6 50.3 4.65 50.35 4.7 L50.35 4.85 Q50.35 5.0 50.3 5.1 49.9 6.2 48.1 5.85 46.5 5.55 45.8 4.9 46.3 4.45 47.35 4.4 M38.75 7.7 Q38.75 7.9 38.8 8.05 L38.75 7.95 38.75 7.7 M39.2 8.5 Q39.4 8.55 39.65 8.55 40.4 8.55 40.55 8.2 40.6 8.05 40.55 7.9 L40.5 7.75 Q40.5 7.3 40.25 7.05 40.1 6.9 39.9 6.85 40.6 6.6 41.4 6.65 L41.4 6.7 Q42.65 6.85 42.1 7.75 41.2 9.2 39.25 8.5 L39.2 8.5" fill="#666666" fill-rule="evenodd" stroke="none"/>
      <path d="M13.55 -0.4 L14.4 -0.3 15.2 -0.1 Q17.1 0.4 17.5 1.65 L17.55 2.0 Q17.25 2.15 16.7 2.15 16.2 2.15 15.9 1.95 15.6 1.65 15.35 1.45 14.3 0.8 11.3 0.8 10.35 0.8 7.75 1.4 L5.6 1.95 4.35 1.55 Q4.25 1.4 4.2 1.15 4.4 1.05 4.8 1.0 L5.0 1.0 Q6.85 -0.1 9.5 -0.3 L13.55 -0.4 M17.55 2.4 Q17.65 2.35 17.8 2.3 19.0 1.85 20.3 1.85 20.75 1.95 21.2 2.25 L21.25 2.25 Q21.3 2.4 21.3 2.5 21.3 2.8 21.25 2.85 21.15 2.9 21.15 2.95 21.1 2.95 21.0 3.0 L20.25 3.05 18.65 3.0 Q17.45 2.95 16.95 2.85 17.25 2.6 17.55 2.4 M22.0 2.65 L22.5 1.35 Q23.35 -0.55 26.75 -0.3 27.1 -0.25 27.4 -0.15 L27.5 -0.1 27.6 -0.1 27.7 -0.05 28.0 0.05 28.45 0.3 29.3 1.05 29.35 1.15 29.05 1.0 Q28.45 0.7 28.4 0.7 25.35 0.7 24.25 1.8 L23.65 2.55 Q23.3 2.9 22.75 2.9 22.25 2.9 22.0 2.65 M34.6 6.75 L29.85 6.55 Q28.8 6.15 27.75 5.75 27.75 5.7 27.75 5.6 27.75 5.3 27.85 5.3 27.9 5.3 27.95 5.3 28.4 5.3 31.05 5.7 L34.55 6.2 Q34.55 6.3 34.65 6.35 L34.7 6.65 34.7 6.7 34.6 6.75 M24.05 6.2 Q19.1 8.0 14.25 5.5 L13.7 5.2 13.65 5.2 Q13.15 4.75 13.15 4.45 13.15 4.15 13.2 4.05 L13.25 3.95 13.9 3.9 14.6 4.2 Q15.35 4.55 16.0 4.8 18.2 5.65 20.4 5.65 21.7 5.65 22.05 5.3 22.3 5.15 22.35 5.1 22.6 5.0 23.05 5.0 23.5 5.0 23.8 5.1 L24.1 5.25 24.15 5.25 24.2 5.65 Q24.2 5.95 24.05 6.2 M39.05 -2.65 Q39.35 -2.65 39.6 -2.5 40.0 -2.3 40.0 -1.85 39.8 -1.6 39.5 -1.35 38.9 -0.8 38.45 -0.8 L38.4 -0.8 Q38.2 -0.95 38.1 -1.15 L38.05 -1.25 Q37.55 -2.35 39.05 -2.65 M50.15 0.35 Q50.2 0.25 50.25 0.2 50.55 0.0 50.9 0.05 51.3 0.1 51.55 0.35 51.85 0.65 51.85 1.1 51.85 1.35 51.75 1.45 51.55 1.7 50.9 1.7 50.65 1.55 50.5 1.35 50.05 0.85 50.15 0.35 M38.8 8.05 Q38.75 7.9 38.75 7.7 39.0 7.25 39.6 7.0 L39.9 6.85 Q40.1 6.9 40.25 7.05 40.5 7.3 40.5 7.75 L40.55 7.9 Q40.6 8.05 40.55 8.2 40.4 8.55 39.65 8.55 39.4 8.55 39.2 8.5 L39.05 8.35 Q38.9 8.25 38.8 8.1 L38.8 8.05" fill="#cccccc" fill-rule="evenodd" stroke="none"/>
    </g>
  </defs>
</svg>
