<?xml version="1.0" encoding="UTF-8" standalone="no"?>
<svg xmlns:ffdec="https://www.free-decompiler.com/flash" xmlns:xlink="http://www.w3.org/1999/xlink" ffdec:objectType="frame" height="136.85px" width="95.2px" xmlns="http://www.w3.org/2000/svg">
  <g transform="matrix(1.0, 0.0, 0.0, 1.0, 47.6, 136.85)">
    <use ffdec:characterId="106" height="19.55" transform="matrix(7.0, 0.0, 0.0, 7.0, -47.6, -136.85)" width="13.6" xlink:href="#shape0"/>
  </g>
  <defs>
    <g id="shape0" transform="matrix(1.0, 0.0, 0.0, 1.0, 6.8, 19.55)">
      <path d="M2.1 -15.4 Q2.95 -15.15 3.85 -14.5 4.55 -14.0 5.15 -13.4 5.95 -12.55 6.4 -11.25 6.8 -10.05 6.8 -9.0 6.8 -8.1 6.45 -7.3 5.9 -6.2 5.55 -5.3 L5.15 -4.0 Q4.95 -2.5 3.35 -1.25 2.6 -0.7 1.8 -0.35 1.05 0.0 0.55 0.0 -1.25 0.0 -2.2 -1.25 L-2.55 -1.8 Q-3.0 -2.35 -3.4 -3.3 -3.65 -3.8 -4.3 -5.8 -4.4 -6.25 -4.95 -7.0 -5.55 -7.85 -5.7 -8.25 -6.05 -9.0 -6.15 -9.45 -6.2 -9.85 -6.2 -10.6 -6.2 -11.2 -6.1 -11.8 -6.0 -12.55 -5.8 -13.0 -4.85 -15.05 -2.95 -15.05 -2.4 -15.05 -1.65 -14.85 -0.85 -14.65 -0.5 -14.65 0.2 -14.65 0.2 -14.95 L0.15 -15.25 Q0.15 -15.45 0.2 -15.55 0.35 -16.0 1.1 -15.8 1.5 -15.7 2.1 -15.4 M-6.8 -18.85 Q-6.8 -18.95 -6.8 -19.0 -6.8 -19.4 -6.15 -19.55 -5.55 -19.65 -5.55 -19.15 -5.55 -19.0 -5.75 -18.85 -6.05 -18.7 -6.45 -18.7 -6.7 -18.7 -6.8 -18.85" fill="#ece2ff" fill-opacity="0.5882353" fill-rule="evenodd" stroke="none"/>
    </g>
  </defs>
</svg>
