<?xml version="1.0" encoding="UTF-8" standalone="no"?>
<svg xmlns:ffdec="https://www.free-decompiler.com/flash" xmlns:xlink="http://www.w3.org/1999/xlink" ffdec:objectType="frame" height="516.95px" width="1113.0px" xmlns="http://www.w3.org/2000/svg">
  <g transform="matrix(1.0, 0.0, 0.0, 1.0, 545.3, 428.05)">
    <use ffdec:characterId="1034" height="15.0" transform="matrix(7.0, 0.0, 0.0, 7.0, -452.55, -47.6)" width="105.5" xlink:href="#shape0"/>
  </g>
  <defs>
    <g id="shape0" transform="matrix(1.0, 0.0, 0.0, 1.0, 64.65, 6.8)">
      <path d="M32.75 -3.6 L32.7 -3.75 32.75 -3.8 32.6 -3.8 Q32.5 -3.9 32.35 -3.9 L31.75 -4.0 Q31.2 -3.95 30.7 -3.75 30.25 -3.65 30.2 -3.3 30.25 -3.15 30.3 -3.1 L30.2 -2.8 30.1 -2.2 30.0 -1.2 Q30.0 -0.95 29.85 -0.75 31.8 0.05 30.8 1.55 L30.45 2.0 Q30.25 2.05 30.15 2.25 L30.1 2.3 30.05 2.45 Q30.05 2.6 30.15 2.75 30.5 3.05 30.85 2.95 L30.9 3.1 30.95 3.15 Q30.85 3.4 30.6 3.55 30.35 3.7 30.1 3.95 29.7 4.0 29.55 3.85 29.45 3.75 29.25 3.75 L29.1 3.6 29.1 3.35 Q28.7 3.75 27.95 3.5 L27.85 3.45 Q27.8 3.15 27.7 2.85 27.55 2.55 27.8 2.25 27.9 2.15 28.1 2.15 L28.2 2.15 Q28.9 2.9 29.7 2.15 30.5 1.35 30.35 0.4 L30.3 0.4 Q30.25 0.2 30.0 0.0 L29.9 0.0 Q29.6 0.0 29.2 0.0 L29.1 -0.05 Q29.1 -0.35 29.05 -0.6 28.75 -1.35 29.0 -2.3 29.25 -3.1 29.1 -3.95 L29.7 -4.15 Q30.25 -4.0 31.0 -4.15 32.55 -4.45 34.0 -5.05 34.15 -5.0 34.25 -4.9 34.2 -4.2 33.75 -3.5 33.5 -3.05 33.35 -2.6 L33.1 -2.55 33.25 -2.4 33.25 -2.35 33.4 -2.35 Q34.6 -1.7 36.35 -1.7 37.75 -1.7 38.6 -2.25 L39.15 -2.0 Q39.15 -1.9 39.1 -1.8 L39.05 -1.75 Q38.75 -1.6 38.55 -1.4 L38.35 -1.2 Q38.15 -1.3 37.9 -1.3 L36.85 -1.3 36.45 -1.2 Q36.6 -1.4 36.8 -1.55 L36.1 -1.65 Q35.15 -1.55 34.25 -1.6 L34.3 -1.5 Q31.75 -0.7 32.2 -2.7 32.25 -3.05 32.45 -3.4 L32.75 -3.6 M35.7 -0.25 Q36.7 -0.45 37.65 -0.7 L37.45 -0.6 Q37.6 -0.45 37.75 -0.4 L37.9 -0.3 38.1 -0.1 38.1 0.0 38.15 0.05 Q38.15 0.2 38.0 0.25 L37.25 0.25 36.25 0.15 Q35.95 0.15 35.75 0.0 35.65 -0.1 35.7 -0.25 M36.3 0.6 Q36.1 0.7 36.2 1.0 37.4 2.1 36.25 2.35 35.85 2.2 35.4 2.25 L34.8 2.25 Q33.95 2.3 33.25 2.7 33.25 2.3 33.5 1.95 33.85 1.55 34.35 1.35 35.1 1.9 36.1 1.85 35.55 1.4 35.65 0.8 35.7 0.35 36.2 0.25 36.55 0.45 36.3 0.6 M37.3 1.1 Q37.85 1.3 37.35 1.65 37.0 1.85 36.85 1.5 36.8 1.35 36.95 1.25 37.1 1.15 37.3 1.1 M27.55 0.65 Q28.4 0.6 28.35 1.25 28.3 1.7 27.9 2.0 L27.75 2.05 27.55 2.1 27.55 0.65 M-53.95 -1.3 Q-54.8 -1.7 -55.4 -2.4 L-55.45 -2.45 Q-55.9 -1.35 -55.7 -0.25 -55.55 0.85 -56.0 1.6 -56.9 2.0 -57.5 2.8 L-57.55 2.85 Q-59.7 2.1 -61.9 2.3 L-62.05 2.3 -62.15 2.25 -62.2 2.25 -62.4 2.1 Q-61.4 0.85 -59.8 1.1 -59.7 1.25 -59.4 1.5 -58.2 2.35 -57.05 1.9 -57.1 1.6 -57.25 1.4 -56.75 0.65 -57.2 -0.25 -57.6 -1.0 -58.25 -1.35 -57.3 -1.95 -56.7 -3.0 L-56.5 -3.25 Q-56.35 -3.7 -55.9 -3.8 -55.8 -3.5 -55.45 -3.35 -53.75 -2.3 -51.95 -2.35 -51.35 -2.2 -50.8 -1.95 -50.8 -0.9 -51.8 -0.1 -53.0 0.9 -53.4 2.2 -53.25 2.15 -53.1 2.1 -52.6 1.9 -52.2 1.75 -51.4 2.0 -51.2 2.7 -51.15 2.9 -51.2 3.05 L-51.65 3.05 -51.9 3.15 Q-52.6 3.4 -52.65 4.0 -52.65 4.25 -52.55 4.45 -52.25 4.6 -52.0 4.65 L-51.8 4.7 -51.85 4.65 Q-51.3 4.65 -50.85 4.15 L-50.65 3.95 Q-50.4 4.0 -50.25 4.35 -52.8 7.0 -53.9 3.6 -54.05 3.1 -53.9 2.7 -54.45 2.0 -54.05 1.2 -53.9 0.35 -53.1 -0.4 -53.3 -1.0 -53.95 -1.3 M-51.95 -1.4 L-52.3 -1.55 Q-52.15 -1.35 -52.05 -1.1 L-51.95 -1.4 M-50.25 2.85 Q-50.7 2.9 -50.95 2.55 -51.1 2.3 -51.0 2.05 -50.85 1.5 -50.45 1.2 -50.4 1.15 -50.35 1.1 L-50.25 1.1 -50.25 2.85 M-53.0 3.25 Q-52.85 3.1 -52.65 3.0 L-52.9 3.1 -53.0 3.25 M-56.25 5.7 Q-56.95 6.2 -57.9 6.5 -58.65 6.2 -59.45 6.1 L-60.55 6.3 -60.9 6.4 Q-60.95 6.15 -60.55 5.7 -60.35 5.45 -60.3 5.2 -60.5 4.95 -60.8 4.65 -61.0 4.4 -60.85 4.15 -60.75 3.95 -60.55 3.95 -59.5 4.05 -58.95 4.7 -58.55 5.2 -59.05 5.7 -58.2 5.8 -57.2 5.3 -56.65 5.45 -56.25 5.7 M-56.25 4.7 Q-55.65 4.3 -55.05 4.3 -55.25 4.7 -55.55 5.05 -55.9 4.85 -56.25 4.7 M-62.25 2.85 Q-61.7 3.3 -61.2 3.5 -61.5 4.1 -62.3 3.85 -63.0 3.6 -62.9 2.9 L-62.85 2.85 -62.8 2.75 Q-62.7 2.7 -62.65 2.65 L-62.45 2.6 Q-62.4 2.75 -62.25 2.85" fill="#ffffff" fill-rule="evenodd" stroke="none"/>
      <path d="M32.75 -3.6 L32.45 -3.4 Q32.25 -3.05 32.2 -2.7 31.75 -0.7 34.3 -1.5 L34.25 -1.6 Q35.15 -1.55 36.1 -1.65 L36.8 -1.55 Q36.6 -1.4 36.45 -1.2 L36.85 -1.3 37.9 -1.3 Q38.15 -1.3 38.35 -1.2 L38.55 -1.4 Q38.75 -1.6 39.05 -1.75 L39.1 -1.8 Q39.15 -1.9 39.15 -2.0 L38.6 -2.25 Q37.75 -1.7 36.35 -1.7 34.6 -1.7 33.4 -2.35 L33.25 -2.35 33.25 -2.4 33.1 -2.55 33.35 -2.6 Q33.5 -3.05 33.75 -3.5 34.2 -4.2 34.25 -4.9 34.15 -5.0 34.0 -5.05 32.55 -4.45 31.0 -4.15 30.25 -4.0 29.7 -4.15 L29.1 -3.95 Q29.25 -3.1 29.0 -2.3 28.75 -1.35 29.05 -0.6 29.1 -0.35 29.1 -0.05 L29.2 0.0 Q29.6 0.0 29.9 0.0 L30.0 0.0 Q30.25 0.2 30.3 0.4 L30.35 0.4 Q30.5 1.35 29.7 2.15 28.9 2.9 28.2 2.15 L28.1 2.15 Q27.9 2.15 27.8 2.25 27.55 2.55 27.7 2.85 27.8 3.15 27.85 3.45 L27.95 3.5 Q28.7 3.75 29.1 3.35 L29.1 3.6 29.25 3.75 Q29.45 3.75 29.55 3.85 29.7 4.0 30.1 3.95 30.35 3.7 30.6 3.55 30.85 3.4 30.95 3.15 L30.9 3.1 30.85 2.95 Q30.5 3.05 30.15 2.75 30.05 2.6 30.05 2.45 L30.1 2.3 30.15 2.25 Q30.25 2.05 30.45 2.0 L30.8 1.55 Q31.8 0.05 29.85 -0.75 30.0 -0.95 30.0 -1.2 L30.1 -2.2 30.2 -2.8 30.3 -3.1 Q30.25 -3.15 30.2 -3.3 30.25 -3.65 30.7 -3.75 31.2 -3.95 31.75 -4.0 L32.35 -3.9 Q32.5 -3.9 32.6 -3.8 L32.75 -3.8 32.7 -3.75 32.75 -3.6 M27.55 0.65 Q28.4 0.6 28.35 1.25 28.3 1.7 27.9 2.0 L27.75 2.05 27.55 2.1 M-53.95 -1.3 Q-53.3 -1.0 -53.1 -0.4 -53.9 0.35 -54.05 1.2 -54.45 2.0 -53.9 2.7 -54.05 3.1 -53.9 3.6 -52.8 7.0 -50.25 4.35 -50.4 4.0 -50.65 3.95 L-50.85 4.15 Q-51.3 4.65 -51.85 4.65 L-51.8 4.7 -52.0 4.65 Q-52.25 4.6 -52.55 4.45 -52.65 4.25 -52.65 4.0 -52.6 3.4 -51.9 3.15 L-51.65 3.05 -51.2 3.05 Q-51.15 2.9 -51.2 2.7 -51.4 2.0 -52.2 1.75 -52.6 1.9 -53.1 2.1 -53.25 2.15 -53.4 2.2 -53.0 0.9 -51.8 -0.1 -50.8 -0.9 -50.8 -1.95 -51.35 -2.2 -51.95 -2.35 -53.75 -2.3 -55.45 -3.35 -55.8 -3.5 -55.9 -3.8 -56.35 -3.7 -56.5 -3.25 L-56.7 -3.0 Q-57.3 -1.95 -58.25 -1.35 -57.6 -1.0 -57.2 -0.25 -56.75 0.65 -57.25 1.4 -57.1 1.6 -57.05 1.9 -58.2 2.35 -59.4 1.5 -59.7 1.25 -59.8 1.1 -61.4 0.85 -62.4 2.1 L-62.2 2.25 -62.15 2.25 -62.05 2.3 -61.9 2.3 Q-59.7 2.1 -57.55 2.85 L-57.5 2.8 Q-56.9 2.0 -56.0 1.6 -55.55 0.85 -55.7 -0.25 -55.9 -1.35 -55.45 -2.45 L-55.4 -2.4 Q-54.8 -1.7 -53.95 -1.3 M-51.95 -1.4 L-52.3 -1.55 Q-52.15 -1.35 -52.05 -1.1 L-51.95 -1.4 M-50.25 2.85 Q-50.7 2.9 -50.95 2.55 -51.1 2.3 -51.0 2.05 -50.85 1.5 -50.45 1.2 -50.4 1.15 -50.35 1.1 L-50.25 1.1 M-53.0 3.25 Q-52.85 3.1 -52.65 3.0 L-52.9 3.1 -53.0 3.25 M-56.25 5.7 Q-56.95 6.2 -57.9 6.5 -58.65 6.2 -59.45 6.1 L-60.55 6.3 -60.9 6.4 Q-60.95 6.15 -60.55 5.7 -60.35 5.45 -60.3 5.2 -60.5 4.95 -60.8 4.65 -61.0 4.4 -60.85 4.15 -60.75 3.95 -60.55 3.95 -59.5 4.05 -58.95 4.7 -58.55 5.2 -59.05 5.7 -58.2 5.8 -57.2 5.3 -56.65 5.45 -56.25 5.7 M-56.25 4.7 Q-55.9 4.85 -55.55 5.05 -55.25 4.7 -55.05 4.3 -55.65 4.3 -56.25 4.7 M-62.25 2.85 Q-61.7 3.3 -61.2 3.5 -61.5 4.1 -62.3 3.85 -63.0 3.6 -62.9 2.9 L-62.85 2.85 -62.8 2.75 Q-62.7 2.7 -62.65 2.65 L-62.45 2.6 Q-62.4 2.75 -62.25 2.85" fill="none" stroke="#ffffff" stroke-linecap="round" stroke-linejoin="round" stroke-opacity="0.3019608" stroke-width="1.1500000000000001"/>
      <path d="M35.7 -0.25 Q36.7 -0.45 37.65 -0.7 L37.45 -0.6 Q37.6 -0.45 37.75 -0.4 L37.9 -0.3 38.1 -0.1 38.1 0.0 38.15 0.05 Q38.15 0.2 38.0 0.25 L37.25 0.25 36.25 0.15 Q35.95 0.15 35.75 0.0 35.65 -0.1 35.7 -0.25 M36.3 0.6 Q36.1 0.7 36.2 1.0 37.4 2.1 36.25 2.35 35.85 2.2 35.4 2.25 L34.8 2.25 Q33.95 2.3 33.25 2.7 33.25 2.3 33.5 1.95 33.85 1.55 34.35 1.35 35.1 1.9 36.1 1.85 35.55 1.4 35.65 0.8 35.7 0.35 36.2 0.25 36.55 0.45 36.3 0.6 Z" fill="none" stroke="#ccffff" stroke-linecap="round" stroke-linejoin="round" stroke-opacity="0.3019608" stroke-width="1.1500000000000001"/>
    </g>
  </defs>
</svg>
