<?xml version="1.0" encoding="UTF-8" standalone="no"?>
<svg xmlns:ffdec="https://www.free-decompiler.com/flash" xmlns:xlink="http://www.w3.org/1999/xlink" ffdec:objectType="frame" height="697.2px" width="221.2px" xmlns="http://www.w3.org/2000/svg">
  <g transform="matrix(1.0, 0.0, 0.0, 1.0, 110.6, 348.6)">
    <use ffdec:characterId="879" height="99.6" transform="matrix(7.0, 0.0, 0.0, 7.0, -110.6, -348.6)" width="31.6" xlink:href="#shape0"/>
  </g>
  <defs>
    <g id="shape0" transform="matrix(1.0, 0.0, 0.0, 1.0, 15.8, 49.8)">
      <path d="M14.5 -48.5 L14.55 -48.25 14.65 -48.4 14.7 -48.45 14.95 -48.45 Q15.3 -48.3 15.4 -47.85 15.65 -47.4 15.75 -46.75 15.8 -46.2 15.8 -42.05 15.8 -39.5 15.3 -32.1 L15.35 -30.1 15.45 16.75 15.45 23.7 15.4 28.35 15.4 33.8 15.35 36.7 15.35 39.6 15.4 40.45 Q15.05 41.05 15.1 42.2 15.1 43.7 15.6 45.55 L15.6 48.45 15.65 49.1 Q15.0 49.5 14.05 49.8 L14.05 49.6 14.0 48.8 Q13.7 48.95 13.4 48.95 12.85 48.95 12.7 48.4 L12.65 47.75 12.7 47.65 12.6 47.65 Q12.7 46.55 12.9 45.25 13.05 43.85 13.35 42.25 L14.0 38.8 14.15 36.9 Q14.25 35.1 14.25 33.35 14.25 32.75 13.95 31.15 13.65 29.55 13.65 28.65 L13.7 27.25 13.65 27.1 Q12.8 25.25 12.8 24.3 12.8 22.6 13.4 21.1 L14.0 19.4 13.85 17.15 Q13.65 14.8 13.65 13.6 13.65 13.0 13.85 8.35 13.7 6.95 13.25 5.05 12.55 1.8 12.55 0.15 12.55 -1.0 12.85 -2.45 13.05 -3.35 13.55 -5.0 L13.85 -6.0 13.75 -7.65 13.9 -9.6 Q14.05 -11.5 14.05 -12.45 14.05 -13.35 13.9 -15.2 L13.8 -17.1 13.95 -19.3 13.85 -19.8 Q13.25 -22.2 13.0 -23.45 12.55 -25.75 12.55 -27.25 12.55 -30.1 13.35 -34.7 L14.0 -38.15 14.1 -41.1 Q14.05 -43.7 14.0 -45.05 14.0 -47.25 14.35 -48.55 L14.4 -48.8 14.5 -48.5 M-13.65 -49.6 L-13.6 -48.65 -13.5 -46.85 -13.5 -45.6 -13.55 -45.5 -13.6 -44.8 -13.65 -44.0 -13.5 -42.35 -13.6 -40.25 Q-13.7 -38.35 -13.8 -37.8 L-13.8 -33.5 Q-13.65 -32.15 -13.65 -31.7 L-13.65 -31.45 -13.35 -30.3 Q-12.85 -28.65 -12.65 -27.75 -12.35 -26.35 -12.35 -25.2 -12.35 -23.55 -13.05 -20.3 -13.3 -19.1 -13.5 -18.1 -13.55 -13.3 -13.7 -10.75 L-13.75 -5.7 -13.2 -4.2 Q-12.6 -2.7 -12.6 -1.05 -12.6 -0.05 -13.45 1.8 L-13.75 2.5 -13.7 3.2 -14.05 10.2 -13.85 12.9 -13.8 13.55 -13.15 16.95 Q-12.3 21.55 -12.3 24.4 -12.3 25.9 -12.8 28.2 -13.0 29.35 -13.5 31.35 L-13.6 36.05 -13.7 41.7 Q-13.7 42.85 -13.95 44.8 L-13.95 45.35 -13.9 45.6 -13.85 45.65 -13.9 45.7 -13.9 45.75 -13.8 46.25 -14.0 46.15 -14.05 46.1 -14.3 46.9 Q-15.1 46.45 -15.7 45.95 L-15.8 45.85 -15.7 44.8 Q-15.55 42.95 -15.55 41.2 L-15.55 41.0 Q-15.45 40.7 -15.45 40.5 -15.45 39.8 -15.5 39.35 L-15.45 38.9 -15.4 38.35 Q-15.25 37.45 -15.15 36.75 -15.2 34.2 -15.15 29.95 L-15.15 8.85 -15.05 -30.8 -15.0 -32.3 -14.9 -35.4 -14.8 -37.95 -14.85 -37.9 -14.85 -38.1 Q-14.95 -41.65 -15.0 -45.25 -15.0 -47.7 -14.9 -48.5 L-14.8 -48.9 -14.75 -49.8 -13.9 -49.75 -13.9 -49.65 -13.65 -49.6 M15.2 -40.15 L15.25 -39.85 15.25 -40.25 15.2 -40.15" fill="#b986ce" fill-rule="evenodd" stroke="none"/>
      <path d="M14.7 -48.45 L14.65 -48.4 14.55 -48.25 14.5 -48.5 14.65 -48.45 14.7 -48.45 M15.2 -40.15 L15.25 -40.25 15.25 -39.85 15.2 -40.15" fill="#669999" fill-rule="evenodd" stroke="none"/>
      <path d="M14.35 -48.55 Q14.0 -47.25 14.0 -45.05 14.05 -43.7 14.1 -41.1 L14.0 -38.15 13.35 -34.7 Q12.55 -30.1 12.55 -27.25 12.55 -25.75 13.0 -23.45 13.25 -22.2 13.85 -19.8 L13.95 -19.3 13.8 -17.1 13.9 -15.2 Q14.05 -13.35 14.05 -12.45 14.05 -11.5 13.9 -9.6 L13.75 -7.65 13.85 -6.0 13.55 -5.0 Q13.05 -3.35 12.85 -2.45 12.55 -1.0 12.55 0.15 12.55 1.8 13.25 5.05 13.7 6.95 13.85 8.35 13.65 13.0 13.65 13.6 13.65 14.8 13.85 17.15 L14.0 19.4 13.4 21.1 Q12.8 22.6 12.8 24.3 12.8 25.25 13.65 27.1 L13.7 27.25 13.65 28.65 Q13.65 29.55 13.95 31.15 14.25 32.75 14.25 33.35 14.25 35.1 14.15 36.9 L14.0 38.8 13.35 42.25 Q13.05 43.85 12.9 45.25 L10.6 45.45 4.45 45.45 Q1.1 45.85 -0.1 45.1 -0.4 44.95 -0.7 44.6 -0.9 44.3 -1.1 44.3 L-1.3 44.3 -1.5 44.35 Q-2.05 44.35 -1.95 44.5 -2.15 44.55 -2.25 44.65 -2.3 44.75 -2.3 45.15 L-8.8 45.4 -10.25 45.45 -13.1 45.55 Q-13.35 45.8 -13.65 45.8 L-13.9 45.75 -13.9 45.7 -13.85 45.65 -13.9 45.6 -13.95 45.35 -13.95 44.8 Q-13.7 42.85 -13.7 41.7 L-13.6 36.05 -13.5 31.35 Q-13.0 29.35 -12.8 28.2 -12.3 25.9 -12.3 24.4 -12.3 21.55 -13.15 16.95 L-13.8 13.55 -13.85 12.9 -14.05 10.2 -13.7 3.2 -13.75 2.5 -13.45 1.8 Q-12.6 -0.05 -12.6 -1.05 -12.6 -2.7 -13.2 -4.2 L-13.75 -5.7 -13.7 -10.75 Q-13.55 -13.3 -13.5 -18.1 -13.3 -19.1 -13.05 -20.3 -12.35 -23.55 -12.35 -25.2 -12.35 -26.35 -12.65 -27.75 -12.85 -28.65 -13.35 -30.3 L-13.65 -31.45 -13.65 -31.7 Q-13.65 -32.15 -13.8 -33.5 L-13.8 -37.8 Q-13.7 -38.35 -13.6 -40.25 L-13.5 -42.35 -13.65 -44.0 -13.6 -44.8 -13.55 -45.5 -13.5 -45.6 -13.5 -46.85 -13.6 -48.65 -13.65 -49.6 -12.85 -49.5 Q-11.35 -49.25 -10.2 -49.25 L-9.65 -49.35 -8.4 -49.5 3.75 -49.55 Q7.15 -49.05 11.1 -48.85 13.5 -48.75 14.35 -48.55" fill="#b52cf3" fill-rule="evenodd" stroke="none"/>
    </g>
  </defs>
</svg>
