<?xml version="1.0" encoding="UTF-8" standalone="no"?>
<svg xmlns:ffdec="https://www.free-decompiler.com/flash" xmlns:xlink="http://www.w3.org/1999/xlink" ffdec:objectType="frame" height="71.05px" width="51.8px" xmlns="http://www.w3.org/2000/svg">
  <g transform="matrix(1.0, 0.0, 0.0, 1.0, 25.55, 73.15)">
    <use ffdec:characterId="37" height="10.15" transform="matrix(7.0, 0.0, 0.0, 7.0, -25.55, -73.15)" width="7.4" xlink:href="#shape0"/>
  </g>
  <defs>
    <g id="shape0" transform="matrix(1.0, 0.0, 0.0, 1.0, 3.65, 10.45)">
      <path d="M-3.5 -2.2 L-3.5 -2.25 -3.45 -2.25 -3.5 -2.2" fill="url(#gradient0)" fill-rule="evenodd" stroke="none"/>
      <path d="M-0.05 -2.0 L-0.45 -1.35 -0.55 -1.4 Q-0.35 -1.7 -0.05 -2.0" fill="url(#gradient1)" fill-rule="evenodd" stroke="none"/>
      <path d="M1.1 -9.1 L1.15 -9.0 1.2 -9.05 1.15 -9.1 1.1 -9.1 M-3.5 -2.25 Q-3.35 -3.4 -2.55 -4.35 -2.35 -4.6 -1.45 -5.35 L-0.6 -6.05 -0.5 -6.25 -0.45 -6.3 -0.4 -6.4 -0.4 -6.45 -0.2 -6.95 Q0.1 -7.6 0.65 -8.5 L1.05 -9.15 Q1.95 -10.45 2.6 -10.45 2.9 -10.45 3.1 -10.3 3.25 -10.25 3.4 -10.15 3.75 -9.75 3.75 -8.95 L3.75 -8.1 Q3.65 -7.55 3.4 -6.85 3.0 -5.65 2.55 -4.9 2.25 -4.4 1.8 -3.95 L1.25 -3.45 1.05 -3.2 0.9 -3.05 0.9 -3.0 0.3 -2.4 -0.05 -2.0 Q-0.35 -1.7 -0.55 -1.4 L-0.45 -1.35 -0.75 -0.75 Q-1.3 -0.3 -2.45 -0.3 -3.05 -0.3 -3.5 -1.1 L-3.55 -1.2 -3.65 -1.3 -3.65 -1.7 -3.5 -2.2 -3.45 -2.25 -3.5 -2.25 M-3.55 -1.3 L-3.55 -1.3" fill="url(#gradient2)" fill-rule="evenodd" stroke="none"/>
    </g>
    <linearGradient gradientTransform="matrix(0.0019, -0.0036, 0.005, 0.0027, -0.6, -4.05)" gradientUnits="userSpaceOnUse" id="gradient0" spreadMethod="pad" x1="-819.2" x2="819.2">
      <stop offset="0.0" stop-color="#ffffff"/>
      <stop offset="1.0" stop-color="#663d65"/>
    </linearGradient>
    <linearGradient gradientTransform="matrix(0.0023, -0.0042, 0.0052, 0.0028, -0.4, -4.65)" gradientUnits="userSpaceOnUse" id="gradient1" spreadMethod="pad" x1="-819.2" x2="819.2">
      <stop offset="0.0" stop-color="#ffffff"/>
      <stop offset="0.5294117647058824" stop-color="#b36bae"/>
      <stop offset="1.0" stop-color="#663d65"/>
    </linearGradient>
    <linearGradient gradientTransform="matrix(0.0016, -0.0042, 0.0058, 0.0022, 0.2, -5.75)" gradientUnits="userSpaceOnUse" id="gradient2" spreadMethod="pad" x1="-819.2" x2="819.2">
      <stop offset="0.0" stop-color="#ffffff"/>
      <stop offset="0.5294117647058824" stop-color="#b36bae"/>
      <stop offset="1.0" stop-color="#663d65"/>
    </linearGradient>
  </defs>
</svg>
