<?xml version="1.0" encoding="UTF-8" standalone="no"?>
<svg xmlns:ffdec="https://www.free-decompiler.com/flash" xmlns:xlink="http://www.w3.org/1999/xlink" ffdec:objectType="frame" height="105.9px" width="108.9px" xmlns="http://www.w3.org/2000/svg">
  <g transform="matrix(1.0, 0.0, 0.0, 1.0, 0.0, 0.0)">
    <use ffdec:characterId="199" height="105.9" transform="matrix(1.0, 0.0, 0.0, 1.0, 0.0, 0.0)" width="108.9" xlink:href="#shape0"/>
  </g>
  <defs>
    <g id="shape0" transform="matrix(1.0, 0.0, 0.0, 1.0, 0.0, 0.0)">
      <path d="M98.55 1.05 L102.6 4.85 103.55 5.65 108.15 10.35 107.8 11.1 Q106.35 13.85 104.7 13.85 L104.45 13.8 104.25 13.7 Q103.8 13.6 103.15 13.15 101.9 12.3 101.25 11.25 L101.1 11.15 99.85 9.95 99.7 9.8 Q97.55 8.05 97.0 7.05 L96.9 7.0 96.6 6.35 96.55 6.25 96.45 4.75 96.3 4.2 96.4 3.8 96.6 2.75 96.8 2.3 Q97.35 1.15 98.55 1.05 M0.8 10.35 L5.4 5.65 6.3 4.85 10.35 1.05 Q11.55 1.15 12.15 2.3 L12.5 3.8 12.6 4.2 12.5 4.75 12.35 6.25 12.0 7.0 11.95 7.05 10.25 8.9 9.25 9.8 9.05 9.95 7.8 11.15 7.65 11.25 Q7.05 12.3 5.8 13.15 L4.7 13.7 4.5 13.8 4.25 13.85 Q2.55 13.85 1.15 11.1 L0.8 10.35 M13.05 0.1 L23.9 0.1 23.9 0.05 84.8 0.05 85.7 0.05 85.85 0.05 85.85 0.3 86.75 0.55 90.1 1.3 90.1 1.0 90.7 0.9 90.95 0.8 90.75 0.1 95.85 0.1 95.95 0.45 Q95.95 2.8 93.25 3.5 L90.6 4.0 90.1 4.15 90.1 4.25 88.25 4.25 86.75 4.25 85.85 4.2 85.85 4.15 85.2 4.15 84.55 4.15 77.55 4.15 18.8 4.15 18.3 4.0 15.7 3.5 Q12.95 2.8 12.95 0.45 L13.05 0.1 M88.25 0.05 L90.7 0.1 89.55 0.35 89.2 0.3 88.25 0.05 M105.7 10.8 L105.8 10.6 105.85 10.2 105.7 10.05 105.15 9.5 Q104.5 9.6 104.35 9.8 104.25 9.5 104.25 10.1 L104.3 10.6 104.35 10.8 105.7 10.8 M90.1 2.65 L90.35 2.15 90.3 1.8 90.1 1.65 90.1 2.65 M11.15 4.15 L11.05 3.7 10.25 3.7 9.95 3.75 9.75 4.1 9.9 4.45 10.25 4.5 11.05 4.5 11.1 4.55 11.15 4.15 M4.6 10.6 L4.65 10.1 4.6 9.8 Q4.4 9.6 3.8 9.5 L3.2 10.05 3.05 10.2 3.1 10.6 3.2 10.8 4.5 10.8 4.6 10.6 M7.9 7.45 L7.8 7.0 7.75 6.9 7.1 6.85 6.25 7.15 Q5.55 7.45 5.45 7.65 L5.6 8.0 7.1 7.95 7.9 7.45" fill="#5b6a53" fill-rule="evenodd" stroke="none"/>
      <path d="M108.15 10.35 L108.6 10.8 108.6 10.95 108.7 11.35 108.8 12.05 108.8 12.75 Q107.75 13.35 107.0 13.85 105.1 15.1 104.7 15.95 L104.5 16.4 104.5 21.15 104.5 22.05 104.5 28.75 104.45 28.75 102.35 28.75 102.35 22.05 102.35 21.15 102.3 15.45 102.25 15.45 101.85 14.7 100.5 13.2 99.9 12.6 98.9 11.6 97.6 10.2 97.3 9.9 96.6 9.25 Q94.8 7.6 93.0 6.7 L91.7 6.15 90.1 6.0 90.1 6.05 23.9 6.05 23.9 6.0 21.3 6.0 17.2 6.15 15.9 6.7 Q13.8 7.75 11.6 9.9 L11.55 9.95 11.3 10.2 10.25 11.35 10.05 11.6 9.05 12.6 8.4 13.2 7.05 14.7 6.6 15.45 6.6 84.55 6.6 86.3 6.6 90.55 Q6.1 91.4 4.5 92.15 L4.25 92.1 Q2.55 92.1 1.15 94.85 L0.8 95.6 0.35 95.15 0.3 95.0 0.2 94.65 0.1 93.9 0.1 93.2 1.9 92.1 Q3.8 90.9 4.15 90.0 L4.4 89.55 4.4 16.4 4.15 15.95 Q3.8 15.1 1.9 13.85 L0.1 12.75 0.1 12.05 0.2 11.35 0.3 10.95 0.35 10.8 0.8 10.35 1.15 11.1 Q2.55 13.85 4.25 13.85 L4.5 13.8 4.7 13.7 5.8 13.15 Q7.05 12.3 7.65 11.25 L7.8 11.15 9.05 9.95 9.25 9.8 10.25 8.9 11.95 7.05 12.0 7.0 12.35 6.25 12.5 4.75 12.6 4.2 12.5 3.8 12.15 2.3 Q11.55 1.15 10.35 1.05 L11.45 0.2 11.75 0.2 12.5 0.1 13.05 0.1 12.95 0.45 Q12.95 2.8 15.7 3.5 L18.3 4.0 18.8 4.15 77.55 4.15 84.55 4.15 85.2 4.15 85.85 4.15 85.85 4.2 86.75 4.25 88.25 4.25 90.1 4.25 90.1 4.15 90.6 4.0 93.25 3.5 Q95.95 2.8 95.95 0.45 L95.85 0.1 96.4 0.1 96.6 0.15 97.15 0.2 97.45 0.2 98.55 1.05 Q97.35 1.15 96.8 2.3 L96.6 2.75 96.4 3.8 96.3 4.2 96.45 4.75 96.55 6.25 96.6 6.35 96.9 7.0 97.0 7.05 Q97.55 8.05 99.7 9.8 L99.85 9.95 101.1 11.15 101.25 11.25 Q101.9 12.3 103.15 13.15 103.8 13.6 104.25 13.7 L104.45 13.8 104.7 13.85 Q106.35 13.85 107.8 11.1 L108.15 10.35" fill="#a8b69e" fill-rule="evenodd" stroke="none"/>
      <path d="M0.1 93.2 L0.1 86.7 0.0 86.7 0.0 55.75 0.1 55.75 0.1 12.75 1.9 13.85 Q3.8 15.1 4.15 15.95 L4.4 16.4 4.4 89.55 4.15 90.0 Q3.8 90.9 1.9 92.1 L0.1 93.2 M85.85 0.05 L88.15 0.0 88.25 0.05 89.2 0.3 88.5 0.6 88.6 0.8 90.05 1.0 90.1 1.0 90.1 1.3 86.75 0.55 85.85 0.3 85.85 0.05 M105.7 10.8 L104.35 10.8 104.3 10.6 104.25 10.1 Q104.25 9.5 104.35 9.8 104.5 9.6 105.15 9.5 L105.7 10.05 105.85 10.2 105.8 10.6 105.7 10.8 M6.6 90.55 L6.6 86.3 6.6 84.55 6.6 15.45 7.05 14.7 8.4 13.2 9.05 12.6 10.05 11.6 10.25 11.35 11.3 10.2 11.55 9.95 11.6 9.9 Q13.8 7.75 15.9 6.7 L17.2 6.15 21.3 6.0 23.9 6.0 23.9 6.05 90.1 6.05 90.1 6.0 91.7 6.15 93.0 6.7 Q94.8 7.6 96.6 9.25 L97.3 9.9 97.6 10.2 98.9 11.6 99.9 12.6 100.5 13.2 101.85 14.7 102.25 15.45 102.3 15.45 102.35 21.15 102.35 22.05 102.35 28.75 102.35 55.75 102.3 55.75 102.3 90.5 102.25 90.55 101.85 91.3 100.5 92.75 99.9 93.35 98.9 94.35 97.6 95.7 97.35 95.95 97.3 96.05 Q95.1 98.15 93.0 99.2 L91.7 99.8 87.65 100.0 86.7 100.0 86.7 99.9 23.9 99.9 23.9 100.0 21.3 100.0 17.2 99.8 15.9 99.2 Q13.8 98.15 11.6 96.05 L11.55 95.95 11.3 95.7 10.05 94.35 9.05 93.35 8.4 92.75 7.05 91.3 6.6 90.55 M90.1 2.65 L90.1 1.65 90.3 1.8 90.35 2.15 90.1 2.65 M90.1 16.35 L92.9 16.35 92.7 16.15 92.5 16.0 90.1 15.55 90.1 16.35 M94.45 83.95 L94.1 84.15 93.3 84.75 93.4 84.9 Q93.8 85.15 94.8 84.9 L96.2 84.3 96.05 83.95 94.45 83.95 M4.6 10.6 L4.5 10.8 3.2 10.8 3.1 10.6 3.05 10.2 3.2 10.05 3.8 9.5 Q4.4 9.6 4.6 9.8 L4.65 10.1 4.6 10.6 M11.15 4.15 L11.1 4.55 11.05 4.5 10.25 4.5 9.9 4.45 9.75 4.1 9.95 3.75 10.25 3.7 11.05 3.7 11.15 4.15 M7.9 7.45 L7.1 7.95 5.6 8.0 5.45 7.65 Q5.55 7.45 6.25 7.15 L7.1 6.85 7.75 6.9 7.8 7.0 7.9 7.45 M16.5 12.65 Q16.15 12.65 16.05 12.85 L15.95 13.15 Q16.25 14.15 16.95 14.2 17.6 14.3 18.05 13.6 L17.35 13.1 16.5 12.65 M15.0 20.2 L16.55 20.2 15.95 20.1 14.35 20.0 15.0 20.2 M14.35 85.95 L15.95 85.85 17.35 85.5 17.35 85.15 15.75 85.5 14.35 85.95 M18.05 92.35 Q17.6 91.65 16.95 91.75 16.25 91.85 15.95 92.8 L16.05 93.1 Q16.15 93.3 16.5 93.3 L17.35 92.85 18.05 92.35" fill="#849878" fill-rule="evenodd" stroke="none"/>
      <path d="M108.8 12.75 L108.85 28.75 108.9 28.75 108.9 87.55 108.85 87.55 108.8 93.2 107.0 92.1 Q105.1 90.9 104.7 90.0 L104.5 89.55 104.5 82.45 104.5 82.0 104.5 81.3 104.5 79.95 104.5 79.85 104.45 79.85 104.45 76.45 104.45 76.0 104.45 55.75 104.45 45.3 104.45 30.55 104.45 28.75 104.5 28.75 104.5 22.05 104.5 21.15 104.5 16.4 104.7 15.95 Q105.1 15.1 107.0 13.85 107.75 13.35 108.8 12.75" fill="#829677" fill-rule="evenodd" stroke="none"/>
      <path d="M90.7 0.1 L90.7 0.05 90.75 0.1 90.95 0.8 90.7 0.9 90.1 1.0 90.05 1.0 88.6 0.8 88.5 0.6 89.2 0.3 89.55 0.35 90.7 0.1" fill="#77896c" fill-rule="evenodd" stroke="none"/>
      <path d="M108.15 95.6 L103.55 100.25 102.6 101.05 101.8 101.9 101.7 96.7 101.55 96.7 100.85 102.7 98.55 104.9 Q97.35 104.8 96.8 103.65 96.4 102.85 96.4 102.15 L96.3 101.75 96.45 101.2 96.55 99.7 96.9 99.0 97.0 98.9 Q97.55 97.95 99.7 96.15 L99.85 96.0 101.1 94.8 101.25 94.65 Q101.9 93.65 103.15 92.8 103.8 92.35 104.25 92.3 L104.45 92.15 104.7 92.1 Q106.35 92.1 107.8 94.85 L108.15 95.6 M95.85 105.85 L86.7 105.9 86.7 105.45 85.85 105.65 85.85 105.9 23.9 105.9 23.9 105.85 13.05 105.85 12.95 105.5 Q12.95 103.15 15.7 102.45 L18.3 101.95 18.8 101.8 77.55 101.8 84.55 101.8 85.85 101.8 85.85 101.75 86.7 101.75 86.7 101.8 90.1 101.8 90.6 101.95 93.25 102.45 Q95.95 103.15 95.95 105.5 L95.85 105.85 M10.35 104.9 L6.3 101.05 5.4 100.25 0.8 95.6 1.15 94.85 Q2.55 92.1 4.25 92.1 L4.5 92.15 4.7 92.3 5.8 92.8 Q7.05 93.65 7.65 94.65 L7.8 94.8 9.05 96.0 9.25 96.15 Q11.4 97.95 11.95 98.9 L12.0 99.0 12.35 99.7 12.5 101.2 12.6 101.75 12.5 102.15 12.15 103.65 Q11.55 104.8 10.35 104.9 M90.1 16.35 L90.1 15.55 92.5 16.0 92.7 16.15 92.9 16.35 90.1 16.35 M94.45 83.95 L96.05 83.95 96.2 84.3 94.8 84.9 Q93.8 85.15 93.4 84.9 L93.3 84.75 94.1 84.15 94.45 83.95 M105.85 95.7 L105.8 95.35 105.7 95.2 Q105.15 95.05 104.35 95.2 L104.3 95.35 104.25 95.85 Q104.25 96.45 104.35 96.15 104.5 96.35 105.15 96.45 L105.7 95.9 105.85 95.7 M16.5 12.65 L17.35 13.1 18.05 13.6 Q17.6 14.3 16.95 14.2 16.25 14.15 15.95 13.15 L16.05 12.85 Q16.15 12.65 16.5 12.65 M14.35 85.95 L15.75 85.5 17.35 85.15 17.35 85.5 15.95 85.85 14.35 85.95 M15.0 20.2 L14.35 20.0 15.95 20.1 16.55 20.2 15.0 20.2 M3.1 95.35 L3.05 95.7 3.2 95.9 3.8 96.45 Q4.4 96.35 4.6 96.15 L4.65 95.85 4.6 95.35 4.5 95.2 Q3.8 95.05 3.2 95.2 L3.1 95.35 M7.1 98.0 L5.6 97.95 5.45 98.35 6.25 98.8 7.1 99.1 7.75 99.05 7.8 99.0 7.9 98.5 Q7.9 98.2 7.1 98.0 M18.05 92.35 L17.35 92.85 16.5 93.3 Q16.15 93.3 16.05 93.1 L15.95 92.8 Q16.25 91.85 16.95 91.75 17.6 91.65 18.05 92.35 M11.05 101.45 L9.9 101.5 9.75 101.9 9.95 102.2 11.05 102.25 11.15 101.8 11.1 101.4 11.05 101.45 M90.75 104.1 L89.45 104.0 88.95 104.2 89.65 105.1 Q90.7 104.75 90.9 104.45 L90.75 104.1" fill="#a4b39c" fill-rule="evenodd" stroke="none"/>
      <path d="M108.8 93.2 L108.8 93.9 108.7 94.65 108.6 95.0 108.6 95.15 108.15 95.6 107.8 94.85 Q106.35 92.1 104.7 92.1 L104.45 92.15 Q102.8 91.4 102.25 90.55 L102.3 90.5 102.3 55.75 102.35 55.75 102.35 28.75 104.45 28.75 104.45 30.55 104.45 45.3 104.45 55.75 104.45 76.0 104.45 76.45 104.45 79.85 104.5 79.85 104.5 79.95 104.5 81.3 104.5 82.0 104.5 82.45 104.5 89.55 104.7 90.0 Q105.1 90.9 107.0 92.1 L108.8 93.2" fill="#a2b098" fill-rule="evenodd" stroke="none"/>
      <path d="M101.8 101.9 L100.85 102.7 101.55 96.7 101.7 96.7 101.8 101.9 M98.55 104.9 L97.45 105.8 97.15 105.75 96.4 105.85 95.85 105.85 95.95 105.5 Q95.95 103.15 93.25 102.45 L90.6 101.95 90.1 101.8 86.7 101.8 86.7 101.75 85.85 101.75 85.85 101.8 84.55 101.8 77.55 101.8 18.8 101.8 18.3 101.95 15.7 102.45 Q12.95 103.15 12.95 105.5 L13.05 105.85 12.5 105.85 11.75 105.75 11.45 105.8 10.35 104.9 Q11.55 104.8 12.15 103.65 L12.5 102.15 12.6 101.75 12.5 101.2 12.35 99.7 12.0 99.0 11.95 98.9 Q11.4 97.95 9.25 96.15 L9.05 96.0 7.8 94.8 7.65 94.65 Q7.05 93.65 5.8 92.8 L4.7 92.3 4.5 92.15 Q6.1 91.4 6.6 90.55 L7.05 91.3 8.4 92.75 9.05 93.35 10.05 94.35 11.3 95.7 11.55 95.95 11.6 96.05 Q13.8 98.15 15.9 99.2 L17.2 99.8 21.3 100.0 23.9 100.0 23.9 99.9 86.7 99.9 86.7 100.0 87.65 100.0 91.7 99.8 93.0 99.2 Q95.1 98.15 97.3 96.05 L97.35 95.95 97.6 95.7 98.9 94.35 99.9 93.35 100.5 92.75 101.85 91.3 102.25 90.55 Q102.8 91.4 104.45 92.15 L104.25 92.3 Q103.8 92.35 103.15 92.8 101.9 93.65 101.25 94.65 L101.1 94.8 99.85 96.0 99.7 96.15 Q97.55 97.95 97.0 98.9 L96.9 99.0 96.55 99.7 96.45 101.2 96.3 101.75 96.4 102.15 Q96.4 102.85 96.8 103.65 97.35 104.8 98.55 104.9 M86.7 105.9 L85.85 105.9 85.85 105.65 86.7 105.45 86.7 105.9 M105.85 95.7 L105.7 95.9 105.15 96.45 Q104.5 96.35 104.35 96.15 104.25 96.45 104.25 95.85 L104.3 95.35 104.35 95.2 Q105.15 95.05 105.7 95.2 L105.8 95.35 105.85 95.7 M3.1 95.35 L3.2 95.2 Q3.8 95.05 4.5 95.2 L4.6 95.35 4.65 95.85 4.6 96.15 Q4.4 96.35 3.8 96.45 L3.2 95.9 3.05 95.7 3.1 95.35 M7.1 98.0 Q7.9 98.2 7.9 98.5 L7.8 99.0 7.75 99.05 7.1 99.1 6.25 98.8 5.45 98.35 5.6 97.95 7.1 98.0 M11.05 101.45 L11.1 101.4 11.15 101.8 11.05 102.25 9.95 102.2 9.75 101.9 9.9 101.5 11.05 101.45" fill="#c2ccbd" fill-rule="evenodd" stroke="none"/>
      <path d="M90.75 104.1 L90.9 104.45 Q90.7 104.75 89.65 105.1 L88.95 104.2 89.45 104.0 90.75 104.1" fill="#bac5b4" fill-rule="evenodd" stroke="none"/>
    </g>
  </defs>
</svg>
