<?xml version="1.0" encoding="UTF-8" standalone="no"?>
<svg xmlns:ffdec="https://www.free-decompiler.com/flash" xmlns:xlink="http://www.w3.org/1999/xlink" ffdec:objectType="frame" height="183.75px" width="217.0px" xmlns="http://www.w3.org/2000/svg">
  <g transform="matrix(1.0, 0.0, 0.0, 1.0, 0.0, 0.0)">
    <use ffdec:characterId="120" height="26.25" transform="matrix(7.0, 0.0, 0.0, 7.0, 0.0, 0.0)" width="31.0" xlink:href="#shape0"/>
  </g>
  <defs>
    <g id="shape0" transform="matrix(1.0, 0.0, 0.0, 1.0, 0.0, 0.0)">
      <path d="M25.95 1.45 L26.1 1.3 26.2 1.35 26.25 1.5 26.25 2.0 26.3 1.4 26.3 1.2 Q27.05 1.85 26.2 3.35 L24.95 3.9 25.15 3.45 25.85 2.85 25.95 3.0 25.95 2.75 Q26.2 2.55 26.2 2.25 L26.2 2.05 26.05 2.1 26.05 1.6 25.6 2.2 25.85 2.25 25.35 2.75 24.75 3.3 24.3 3.65 22.5 5.1 21.1 5.95 20.3 6.55 19.6 7.05 19.55 7.1 19.7 7.05 18.9 7.75 19.9 6.5 21.35 5.1 21.25 5.15 21.4 5.0 22.8 3.9 21.45 4.7 22.3 3.9 24.4 2.8 25.05 2.4 25.1 2.25 25.15 2.35 25.45 2.05 25.5 1.4 24.45 2.2 22.55 3.35 22.55 3.2 23.3 2.65 23.4 2.55 25.3 1.2 25.5 1.1 25.5 0.9 25.3 0.2 25.15 0.2 24.05 1.3 23.4 1.85 20.75 4.0 16.75 7.05 16.9 6.9 16.85 6.7 17.75 6.0 21.55 3.15 25.2 0.0 25.45 0.05 25.65 0.9 25.65 1.0 25.75 0.95 25.95 1.0 Q26.05 1.05 26.15 1.1 L26.05 1.1 25.7 1.25 25.65 1.3 25.65 1.85 25.95 1.45 M25.35 2.75 L25.4 2.6 25.25 2.65 25.05 2.85 25.35 2.75 M25.65 3.45 L25.65 3.25 25.55 3.55 25.65 3.45 M25.25 4.3 L25.35 4.45 25.45 4.15 26.15 3.75 25.85 4.8 26.0 4.8 25.25 6.1 25.4 5.8 Q25.35 5.65 25.3 5.5 L25.1 5.25 24.95 5.3 25.05 5.75 24.95 5.95 24.8 5.45 24.9 5.3 24.45 5.45 24.65 5.45 24.65 5.55 24.0 5.55 23.9 5.65 23.9 5.8 23.65 6.0 23.5 6.15 23.35 6.15 23.45 6.05 22.95 6.15 23.0 5.75 22.8 5.65 22.4 6.5 22.35 6.5 22.3 6.65 21.85 6.85 22.0 6.75 Q20.3 7.9 18.95 9.45 L18.4 9.4 Q19.8 8.05 21.3 6.75 L21.55 6.5 21.9 6.25 Q22.95 5.45 24.15 4.8 L24.7 4.5 24.55 4.8 24.6 4.85 24.55 5.05 24.8 4.45 25.3 4.25 25.35 4.15 25.25 4.3 M18.7 9.75 L18.55 9.9 18.75 9.75 18.85 9.75 18.4 10.2 20.35 10.3 20.8 10.1 20.55 10.1 20.65 10.0 20.3 10.0 20.2 10.1 19.75 10.1 19.85 10.05 19.35 10.05 19.7 9.8 21.2 9.95 21.15 10.05 20.95 10.0 20.95 10.1 21.6 10.0 23.15 10.25 Q21.85 10.1 20.6 10.3 21.9 10.15 23.2 10.35 25.4 10.7 27.15 11.4 L26.6 11.3 28.0 12.1 27.45 11.9 27.5 11.95 Q25.95 11.05 24.2 10.85 L20.25 10.5 20.05 10.45 19.75 10.4 19.5 10.4 17.85 10.1 18.05 9.85 18.15 9.7 18.7 9.75 M18.95 9.55 L19.15 9.4 19.1 9.45 18.95 9.55 M20.3 9.6 L20.8 9.1 Q21.1 9.0 21.35 8.8 L21.7 8.45 21.35 9.0 20.75 9.6 20.3 9.6 M21.6 9.45 Q21.6 9.55 21.5 9.6 L21.3 9.65 Q21.3 9.55 21.4 9.5 21.45 9.45 21.6 9.45 M21.85 9.75 L21.85 9.75 M23.6 7.75 L24.15 6.7 24.1 6.9 24.2 6.8 23.6 7.75 M25.05 6.5 L24.75 7.2 Q24.05 8.7 22.9 9.9 L22.5 9.8 22.85 9.35 23.55 8.55 Q24.35 7.75 24.9 6.8 L25.05 6.5 M23.4 9.95 L24.85 9.95 24.4 10.05 24.1 10.1 23.4 9.95 M24.3 10.1 L24.4 10.1 24.45 10.15 24.3 10.1 M24.5 10.15 L25.6 10.25 25.0 10.25 24.5 10.15 M27.85 10.95 L26.7 10.35 26.85 10.35 Q27.6 10.45 28.05 11.0 L27.85 10.95 M30.0 11.9 L30.2 12.0 Q30.8 12.4 31.0 13.05 L30.85 13.25 30.65 13.15 30.8 13.0 30.6 12.8 Q29.9 11.95 28.9 11.6 L30.0 11.9 M30.05 13.45 L29.85 13.45 30.0 13.4 30.05 13.45 M25.1 10.6 L25.0 10.6 25.1 10.6 M28.25 12.3 L28.4 12.45 28.0 12.35 27.9 12.25 28.25 12.3 M28.7 13.05 L28.6 13.2 28.8 13.2 Q29.45 13.2 29.9 13.65 L28.0 13.1 28.3 13.15 28.5 13.05 28.5 13.0 28.7 13.05 M29.8 13.95 Q29.4 14.25 28.9 14.25 L28.55 14.2 29.45 13.85 29.8 13.95 M28.15 13.5 L27.5 13.7 27.45 13.95 27.2 13.9 27.05 13.9 26.6 13.75 26.3 13.65 26.35 13.55 Q26.5 13.35 26.5 13.15 L27.25 13.3 26.95 13.55 26.95 13.65 27.05 13.65 27.75 13.4 28.15 13.5 M27.0 14.35 L26.55 14.6 Q26.95 14.7 27.3 14.8 27.45 14.85 27.55 14.95 L27.55 15.05 27.45 15.05 27.35 15.0 27.25 15.0 27.3 15.15 27.15 15.25 Q26.7 15.5 26.2 15.6 L25.7 15.45 27.05 15.05 26.95 15.0 27.0 14.95 26.35 14.85 25.3 15.3 24.8 15.15 26.0 14.75 25.75 14.7 25.7 14.75 25.3 14.65 25.15 14.7 24.95 14.8 25.05 14.8 24.75 14.9 24.65 14.75 25.1 14.55 25.05 14.5 24.95 14.45 24.7 14.35 24.65 14.4 24.0 14.4 24.4 14.2 24.6 14.15 24.6 14.1 23.6 14.0 23.55 13.95 23.35 13.95 23.55 13.85 23.9 13.85 23.5 13.8 23.9 13.7 24.4 13.7 25.05 13.8 25.25 13.85 25.15 14.0 25.2 14.0 26.25 14.1 26.1 14.15 26.1 14.2 26.3 14.1 26.6 14.2 26.25 14.45 26.4 14.5 26.8 14.25 27.0 14.35 M25.4 15.8 L25.3 15.85 Q24.5 16.2 23.65 16.4 L23.5 16.4 25.3 15.8 25.35 15.8 25.4 15.8 M23.1 16.15 L23.05 16.05 23.3 16.0 23.1 16.15 M22.7 15.35 L22.55 15.25 22.95 15.15 22.7 15.35 M23.85 14.45 L23.75 14.4 23.85 14.35 24.0 14.4 23.85 14.45 M22.15 14.2 L19.9 14.0 17.2 13.55 17.35 13.55 17.5 13.4 17.9 13.45 17.75 13.55 21.8 13.95 21.35 13.75 23.3 14.05 22.45 14.0 23.3 14.2 22.15 14.2 M17.35 14.0 L15.35 14.05 15.1 14.25 15.3 14.05 15.0 14.05 14.7 14.35 15.0 14.35 18.55 14.45 18.35 14.45 20.75 14.65 20.25 14.7 18.55 14.5 15.0 14.45 13.9 15.3 14.4 14.5 14.5 14.5 14.55 14.4 14.45 14.4 14.5 14.35 14.6 14.35 14.9 14.1 14.65 14.1 14.9 13.7 16.1 13.8 15.95 13.85 16.15 13.8 16.2 13.85 16.4 13.85 17.35 14.0 M13.8 15.4 L13.7 15.5 13.6 15.5 12.9 16.15 12.95 16.25 12.0 17.1 12.45 16.4 13.7 14.95 13.6 14.95 14.05 14.4 13.85 14.4 13.9 14.35 14.2 14.35 13.9 14.85 13.9 15.0 13.8 15.15 13.9 15.05 13.85 15.15 Q13.75 15.3 13.8 15.4 M13.8 14.45 L13.95 14.5 13.8 14.55 13.8 14.45 M10.9 18.1 L10.7 18.3 10.6 18.3 10.05 18.75 Q10.65 17.85 11.4 17.05 L11.9 16.5 11.6 17.0 11.35 17.25 11.55 17.1 10.9 18.1 M9.8 19.2 L9.9 19.05 9.75 19.2 9.8 19.2 M9.75 19.25 L10.35 18.8 9.35 19.85 9.75 19.25 M9.0 20.55 L9.35 20.5 11.3 18.55 10.9 18.8 11.4 18.05 12.1 17.5 Q11.5 18.75 10.45 19.65 L10.9 19.5 10.65 19.8 9.9 20.1 9.95 20.05 9.5 20.65 8.8 21.15 8.6 21.2 9.0 20.55 M9.65 20.55 L9.7 20.4 9.95 20.35 9.65 20.55 M8.1 22.6 L8.1 22.75 8.2 22.7 8.25 22.55 8.55 22.45 8.3 22.55 8.5 22.7 8.55 22.7 9.8 22.4 Q9.7 22.4 9.65 22.45 9.15 22.8 8.55 22.95 L8.45 23.15 7.55 23.35 7.45 23.3 Q7.95 22.3 8.85 21.55 L9.05 21.35 9.0 21.5 9.25 21.4 9.25 21.3 9.6 21.2 9.25 21.2 9.7 20.9 9.9 20.9 10.0 20.8 9.8 20.85 10.25 20.55 10.4 20.45 10.3 20.5 10.8 20.1 10.9 20.15 11.4 19.7 11.2 20.05 11.2 19.95 Q10.95 20.15 10.9 20.45 L10.9 20.65 10.2 21.05 9.8 21.25 Q9.05 21.65 8.4 22.1 L8.1 22.45 8.1 22.6 M7.3 23.65 L7.4 23.85 Q7.95 24.4 8.6 23.9 L9.4 23.3 9.1 23.7 9.55 23.35 Q10.3 22.75 10.95 22.0 L11.05 21.95 11.1 21.8 Q11.1 21.75 11.15 21.7 11.2 21.65 11.25 21.65 L10.6 22.75 9.7 23.5 9.9 23.3 8.8 24.1 7.15 24.75 6.9 24.85 6.65 24.9 6.65 24.85 6.2 24.9 6.25 24.65 6.15 24.7 6.6 24.6 6.5 24.15 6.25 24.35 6.3 24.1 6.45 23.95 6.45 23.8 6.4 23.8 6.8 22.55 6.85 22.5 7.05 22.5 7.05 22.25 6.85 22.4 7.8 20.9 8.35 20.55 7.95 21.4 7.75 21.55 7.4 21.95 7.2 22.85 7.3 22.8 6.9 23.9 6.85 23.8 6.75 23.9 6.85 24.5 6.85 24.6 7.35 24.5 7.25 24.5 8.05 24.35 7.95 24.35 Q7.45 24.3 7.2 23.9 L7.3 23.65 M8.4 25.6 L7.85 25.75 7.65 25.8 Q7.1 25.8 6.6 26.0 L6.25 26.15 6.25 25.9 6.4 25.9 6.25 25.85 6.2 25.6 6.75 25.7 6.75 25.65 6.2 25.45 6.2 25.35 7.05 25.25 7.25 25.25 7.35 25.2 7.45 25.25 Q8.0 25.3 8.4 24.85 L9.15 24.5 8.75 24.9 Q8.3 25.3 7.75 25.55 L8.4 25.6 M5.85 26.2 L5.55 26.15 5.55 25.95 5.8 26.0 5.85 26.2 M5.15 25.95 L4.65 25.55 5.1 26.2 5.0 26.25 4.9 26.25 4.7 25.95 Q3.95 24.5 4.4 22.9 L4.5 22.25 Q4.8 20.9 5.45 19.75 L6.3 18.5 6.45 18.6 5.5 20.15 6.35 19.25 6.05 19.65 Q5.5 20.3 5.15 21.15 L6.15 19.7 5.5 21.15 5.35 21.35 5.1 21.85 4.7 22.65 4.55 22.7 4.4 22.9 4.35 23.65 4.4 23.85 4.5 24.95 4.6 25.1 4.5 25.25 4.65 25.35 4.7 25.3 5.1 25.75 5.15 25.95 M4.4 17.45 L2.35 16.7 3.45 17.05 1.75 16.15 1.85 16.1 1.15 15.5 1.05 15.4 0.9 15.15 0.25 15.55 0.25 15.6 1.55 16.7 Q0.7 16.35 0.0 15.75 L0.05 15.6 Q0.25 15.1 0.75 14.8 L0.95 14.85 1.0 14.9 1.05 14.55 Q1.1 14.5 1.0 14.45 L0.95 14.5 0.7 14.25 0.65 14.0 0.75 13.85 0.9 13.7 0.7 13.65 0.7 13.5 1.25 13.15 1.0 13.55 1.85 12.9 1.5 13.0 3.0 12.2 3.85 12.05 4.9 11.85 5.1 11.75 5.3 11.65 6.1 11.4 6.6 11.2 6.7 11.2 8.15 10.85 Q10.15 10.45 12.1 10.25 L12.8 10.2 11.8 10.45 10.7 10.6 10.65 10.6 10.35 10.65 10.95 10.7 10.7 10.8 10.1 10.85 Q8.9 10.9 7.7 11.15 L7.6 11.15 7.45 11.2 7.1 11.3 6.75 11.4 6.05 11.65 5.5 11.85 7.7 11.7 8.35 11.65 7.1 12.1 6.65 12.15 6.9 12.2 6.4 12.35 5.85 12.35 5.2 12.5 4.6 12.55 4.3 12.55 4.2 12.65 3.35 13.5 3.2 14.0 3.25 14.0 3.3 13.9 3.85 13.45 4.5 13.25 Q5.85 12.8 7.2 12.45 L5.9 13.0 5.3 13.15 Q4.2 13.45 3.4 14.2 L4.2 14.0 4.4 13.95 4.5 13.95 4.15 14.4 4.25 14.35 3.7 14.45 3.3 14.5 3.25 14.6 3.35 14.9 4.1 14.55 4.15 14.8 3.55 15.15 3.4 15.3 3.35 15.25 2.85 15.5 2.85 15.55 2.6 15.65 2.4 15.8 2.35 15.95 2.55 15.85 2.6 15.85 2.75 15.8 2.7 15.9 2.85 15.8 2.9 15.75 3.05 15.7 3.1 15.85 3.2 15.85 3.8 15.4 4.3 15.25 4.8 15.15 4.5 15.45 4.55 15.6 4.2 15.7 4.6 15.9 Q6.15 16.7 7.85 17.2 L5.95 16.7 4.75 16.3 3.9 15.75 3.4 15.95 3.3 15.85 3.1 15.95 3.05 16.0 3.35 16.05 3.4 15.95 3.8 15.9 4.45 16.3 4.4 16.35 4.45 16.45 3.7 16.05 3.4 16.2 4.45 16.85 2.85 16.3 2.7 16.1 2.7 15.9 2.65 15.9 2.45 16.15 2.3 16.15 2.65 16.35 2.6 16.5 3.05 16.75 Q3.7 17.15 4.4 17.45 M1.0 13.0 L1.05 13.0 1.0 13.0 M21.9 6.25 L21.9 6.25 M23.2 8.9 L23.05 9.1 23.1 8.95 23.2 8.9 M23.6 12.0 L23.35 11.95 23.45 11.95 23.05 11.85 24.0 11.9 27.35 12.7 27.4 12.95 27.15 12.9 26.95 12.85 27.1 12.75 26.7 12.6 26.75 12.85 26.55 12.75 26.4 12.55 26.35 12.55 26.25 12.5 26.0 12.45 26.25 12.65 26.4 12.75 25.9 12.65 25.5 12.45 24.95 12.3 24.55 12.25 Q24.05 12.2 23.6 12.0 M27.15 12.9 L27.15 12.9 M21.85 12.0 L23.65 12.3 23.5 12.3 23.75 12.35 22.65 12.2 21.85 12.0 M24.65 13.1 L24.4 13.0 23.6 12.8 22.35 12.7 21.6 12.6 21.85 12.55 Q23.8 12.7 25.75 13.05 L26.5 13.15 26.05 13.1 25.9 13.05 25.35 13.0 24.85 12.95 25.1 13.05 25.3 13.25 24.8 13.2 24.65 13.1 M23.05 13.65 L22.8 13.7 19.55 13.3 19.05 13.25 19.2 13.25 Q17.45 13.05 15.7 13.2 L15.7 13.3 15.15 13.35 15.35 13.05 Q18.2 12.95 21.05 13.25 L22.85 13.45 22.8 13.5 23.5 13.6 23.05 13.65 M24.55 13.95 L24.3 14.0 24.6 14.1 24.85 13.95 25.0 13.85 24.6 13.95 24.55 13.95 M25.0 13.85 L25.0 13.85 M24.8 10.8 L24.45 10.7 Q23.55 10.5 22.6 10.4 L21.35 10.4 24.8 10.8 M20.95 11.2 L21.0 11.25 19.05 11.4 18.15 11.35 18.05 11.5 17.8 11.45 17.9 11.4 17.3 11.35 17.1 11.35 17.0 11.4 16.65 11.4 17.15 10.8 17.25 10.8 17.35 10.7 17.45 10.6 17.85 10.65 17.4 11.1 17.6 11.2 17.75 11.1 18.2 11.1 18.55 10.75 18.6 10.8 18.35 11.1 20.95 11.2 M27.15 12.05 L27.15 12.1 26.9 12.0 26.8 12.0 27.15 12.05 M27.75 12.8 L27.8 12.8 28.1 12.9 27.85 13.05 27.55 13.0 27.75 12.8 M26.6 13.75 L26.6 13.75 M25.35 14.3 L25.5 14.35 25.8 14.1 25.1 14.3 25.35 14.3 M25.0 14.95 L25.25 14.95 24.75 15.15 24.65 15.15 24.65 15.05 24.7 14.95 25.0 14.95 M25.6 15.4 L25.45 15.35 25.4 15.4 25.85 15.25 25.6 15.4 M24.55 15.55 L24.9 15.65 24.0 15.9 24.3 15.5 24.55 15.55 M24.55 14.75 L24.3 14.8 24.15 15.0 23.95 14.9 24.0 14.9 23.85 14.85 24.4 14.7 24.55 14.75 M23.5 15.8 L23.2 15.8 23.65 15.65 23.5 15.8 M15.55 9.3 L16.15 8.65 Q16.95 7.7 17.8 6.85 L17.4 7.25 19.0 5.8 18.45 6.25 18.9 5.85 Q20.4 4.55 22.05 3.6 L18.55 6.5 17.8 7.2 17.9 7.15 17.55 7.5 15.9 9.3 15.55 9.3 M18.6 6.7 L18.7 6.6 18.95 6.45 16.65 8.65 16.6 8.75 16.2 9.1 16.25 9.05 18.2 6.95 18.6 6.7 M19.0 6.95 L18.45 7.65 18.85 7.3 17.4 8.9 17.4 8.65 17.55 8.45 17.5 8.5 17.8 8.2 17.75 8.25 19.0 6.95 M15.2 9.65 L15.6 9.65 15.55 9.7 15.05 9.8 15.2 9.65 M14.35 11.05 L14.05 11.35 13.9 11.4 13.5 11.45 13.55 11.4 13.1 11.4 13.3 11.15 13.8 11.1 14.55 10.3 14.95 10.3 14.9 10.4 14.35 10.95 14.25 11.05 14.35 11.05 M13.4 12.0 L13.0 12.4 12.35 12.5 12.2 12.45 12.5 12.1 12.95 12.05 13.1 11.85 13.5 11.85 13.4 12.0 M10.6 12.85 L9.5 13.15 8.4 13.4 7.5 13.6 Q6.3 13.9 5.2 14.35 L4.5 14.65 4.35 14.7 4.45 14.4 4.6 14.3 4.5 14.35 4.75 14.15 Q5.2 13.85 5.75 13.7 L6.15 13.6 5.8 13.65 5.55 13.65 6.05 13.55 7.6 13.3 8.1 13.2 8.1 13.1 Q9.35 13.1 10.6 12.85 M6.45 14.25 L6.65 14.2 5.55 14.6 5.7 14.65 5.7 14.7 5.45 14.85 5.5 14.65 4.9 14.75 4.7 14.85 4.5 14.7 6.2 14.3 6.45 14.25 M5.8 14.95 L5.9 14.9 6.05 14.9 6.15 14.85 5.95 14.9 6.6 14.65 6.85 14.55 6.7 14.65 6.6 14.7 6.75 14.65 7.75 14.4 6.75 14.55 7.1 14.4 Q7.85 14.1 8.65 14.0 L6.1 15.3 5.85 15.3 5.95 15.35 6.15 15.3 6.4 15.35 6.15 15.6 Q6.35 15.55 6.5 15.5 L7.1 15.25 9.4 15.15 9.2 15.45 7.85 15.45 6.8 15.45 6.55 15.5 7.8 15.65 7.75 15.65 8.6 15.7 9.05 15.6 8.75 15.95 8.35 16.05 8.6 16.15 6.65 16.1 6.8 16.1 6.25 15.95 7.2 16.0 6.3 15.75 5.85 15.6 5.4 15.4 5.15 15.45 5.7 15.0 5.8 14.95 M7.0 15.1 L7.9 14.6 10.1 14.3 10.05 14.4 9.4 14.55 9.25 14.7 7.0 15.1 M8.45 14.3 L10.6 13.75 10.3 14.1 10.8 14.05 11.1 13.75 11.5 13.7 11.55 13.65 11.85 13.65 10.5 15.3 10.45 15.05 9.65 15.8 9.3 15.85 9.6 15.45 10.0 15.4 9.5 15.4 9.65 15.4 9.9 15.15 10.3 15.15 11.05 14.25 10.6 14.3 10.65 14.25 11.05 14.2 11.25 14.0 8.45 14.3 M7.5 17.65 L7.35 17.9 7.3 17.85 6.4 17.6 4.9 16.65 5.4 16.8 6.2 17.15 6.0 17.15 6.65 17.3 6.7 17.35 Q7.0 17.55 7.3 17.6 L7.5 17.65 M7.25 17.9 L7.2 18.05 7.15 18.1 6.9 18.05 6.85 18.0 7.05 17.9 7.25 17.9 M7.1 18.1 L7.05 18.15 7.0 18.1 7.1 18.1 M6.4 18.0 L6.9 18.3 7.0 18.3 6.95 18.35 6.8 18.35 6.0 17.9 6.4 18.0 M5.75 21.4 Q5.3 22.7 5.15 24.05 L5.05 23.95 5.1 23.65 5.2 23.3 5.3 22.65 5.35 22.45 5.3 22.55 5.15 22.8 5.1 23.3 5.15 23.2 5.15 23.3 4.95 23.6 4.85 23.8 4.7 23.55 4.65 22.95 4.7 22.85 4.7 23.1 4.8 22.9 5.15 22.4 5.4 22.0 5.55 21.75 5.75 21.4 M5.05 24.45 L5.1 24.5 5.1 25.15 4.85 25.0 Q4.7 24.7 4.7 24.4 L4.7 24.25 4.95 24.4 5.05 24.55 5.05 24.45 M5.55 25.45 L5.6 24.75 Q5.6 23.6 5.85 22.5 L5.95 22.2 6.05 21.85 6.15 21.85 6.1 21.95 6.2 21.8 Q6.25 21.65 6.35 21.65 L6.7 21.25 8.0 19.25 7.65 19.9 7.55 20.05 7.45 20.15 6.95 21.1 7.0 21.0 6.4 22.25 6.35 22.25 6.3 22.25 6.3 22.2 6.15 22.7 6.05 23.0 Q5.85 24.0 5.8 25.1 L5.65 25.25 5.85 25.4 5.8 25.35 5.8 25.6 5.55 25.45 M6.4 21.0 L7.1 19.7 Q8.25 17.7 9.9 16.15 L9.65 16.5 8.6 17.55 8.65 17.55 9.45 16.8 9.05 17.45 8.85 17.65 8.9 17.65 8.8 17.85 8.7 17.8 8.55 17.95 8.65 18.0 8.7 18.0 8.6 18.2 8.5 18.15 8.4 18.15 8.35 18.2 8.45 18.25 8.55 18.25 8.5 18.35 8.45 18.35 8.35 18.35 8.3 18.35 6.4 21.0 M10.2 16.05 L10.45 15.75 10.9 15.35 10.9 15.2 10.95 15.1 11.2 15.05 11.3 15.05 11.75 14.5 11.55 14.5 11.45 14.5 11.55 14.45 11.75 14.45 12.0 14.15 11.7 14.2 11.7 14.15 12.0 14.15 12.15 13.95 11.9 13.95 12.15 13.65 12.25 13.65 12.35 13.65 12.4 13.65 12.9 13.65 12.15 14.4 11.55 15.05 Q10.3 16.5 9.2 18.0 L9.1 18.1 9.05 18.2 8.85 18.35 8.95 18.4 8.8 18.4 8.35 19.0 9.55 17.1 9.7 16.85 9.6 16.95 9.95 16.4 10.7 15.8 10.2 16.05 M15.6 10.65 L15.8 10.4 15.9 10.4 15.6 10.65 M15.35 11.1 L15.1 11.35 15.05 11.35 15.25 11.1 15.35 11.1 M14.55 11.9 L14.3 12.15 14.15 12.2 14.0 12.15 13.9 12.25 13.35 12.35 13.95 11.8 14.5 11.8 14.35 11.9 14.55 11.9 M16.25 9.9 L16.65 9.75 16.45 9.95 16.25 9.9 M13.0 10.35 L13.7 10.25 13.65 10.3 13.0 10.35 M11.1 11.3 L12.9 11.2 12.7 11.4 10.65 11.55 10.9 11.55 8.25 12.1 7.65 12.15 7.6 12.2 7.45 12.15 Q8.85 11.6 10.3 11.4 L11.1 11.3 M10.9 12.15 L10.85 12.15 10.9 12.15 M9.3 12.7 L12.05 12.15 11.8 12.45 9.9 12.65 9.85 12.65 9.6 12.7 9.3 12.7 M14.05 13.15 L14.9 13.05 14.75 13.3 13.95 13.25 14.05 13.15 M13.3 14.0 L13.35 14.0 13.45 13.9 13.4 13.9 13.3 14.0 M14.25 14.05 L14.1 14.05 14.15 14.05 14.25 14.05 14.25 14.05 M14.3 13.85 L14.4 13.7 14.5 13.7 14.4 13.85 14.3 13.85 M12.8 14.5 L13.5 13.65 13.8 13.65 12.8 15.15 12.75 15.2 12.55 15.5 12.5 15.55 11.1 17.1 11.45 16.6 Q12.05 15.65 12.8 14.75 L12.8 14.5 M17.95 12.1 L16.1 12.1 16.15 12.0 18.15 11.8 17.8 11.85 19.85 11.95 20.2 11.95 20.5 12.0 20.55 12.0 21.7 12.2 18.25 12.1 17.95 12.1 M19.55 11.85 L20.2 11.8 20.2 11.85 19.55 11.85 M16.35 11.75 L16.35 11.75 M16.9 13.4 L17.0 13.4 16.85 13.55 16.8 13.5 16.9 13.4 M17.15 12.75 L16.85 12.75 17.15 12.75 M20.55 12.95 L20.5 12.95 20.55 12.95 M16.45 13.5 L16.5 13.4 16.6 13.4 16.55 13.45 16.45 13.5 M19.25 9.45 Q20.1 8.65 21.05 7.85 21.35 7.6 21.7 7.35 L20.45 8.65 19.55 9.5 19.25 9.45 M19.2 9.75 L18.7 10.1 19.0 9.75 19.2 9.75 M20.65 11.65 L19.6 11.65 21.15 11.6 20.7 11.6 20.65 11.65 M1.2 14.2 Q1.5 13.7 1.9 13.35 L2.2 13.1 Q1.65 13.3 1.25 13.75 L1.0 14.0 0.95 14.05 Q1.0 14.25 1.15 14.25 L1.2 14.2 M1.55 14.05 L1.4 14.3 1.35 14.4 1.25 14.7 1.6 14.6 1.85 14.5 1.8 14.4 2.1 14.25 2.95 14.0 3.15 13.55 3.8 12.65 3.45 12.75 Q2.45 13.0 1.75 13.75 L1.55 14.05 M2.35 14.1 L2.1 13.85 2.45 13.8 2.65 13.95 2.35 14.1 M2.8 13.7 L2.95 13.65 2.85 13.8 2.8 13.7 M3.25 14.0 L3.1 14.05 2.95 14.3 2.9 14.15 2.7 14.25 2.7 14.35 Q2.8 14.4 2.85 14.45 L3.05 14.35 3.25 14.0 M7.1 12.25 L7.6 12.35 7.0 12.3 6.95 12.35 6.8 12.35 7.1 12.25 M10.35 17.4 L10.4 17.3 8.8 19.65 8.55 19.85 8.45 20.35 8.4 20.4 7.85 20.8 8.0 20.6 8.15 20.5 8.25 20.3 10.35 17.4 M7.6 17.45 L7.65 17.45 7.6 17.45 M6.15 17.85 L5.9 17.85 5.4 17.55 6.15 17.85 M8.85 20.95 L9.0 20.95 9.05 20.85 8.95 20.85 8.85 20.95 M5.0 15.1 L4.8 15.15 4.5 15.05 4.8 14.95 5.0 15.1 M2.55 15.3 L2.65 15.25 2.6 15.2 2.7 15.15 2.7 15.25 3.1 15.05 3.15 14.9 3.05 14.7 3.0 14.5 2.85 14.55 1.85 14.7 1.75 14.75 1.4 14.85 1.3 14.9 1.2 14.85 1.25 15.05 1.5 15.45 2.0 15.85 2.1 15.7 2.15 15.65 2.3 15.5 2.5 15.35 2.55 15.3 M5.15 21.15 L5.1 21.0 4.85 21.75 5.15 21.15 M5.0 24.0 L4.9 23.85 5.05 23.75 5.05 23.9 5.0 24.0 M10.7 23.45 L10.9 23.1 11.1 22.9 11.15 23.0 10.7 23.45 M6.35 22.1 L6.35 22.1 M6.85 23.55 L6.95 23.4 6.75 23.5 6.7 23.5 6.75 23.65 6.85 23.55 M6.55 24.9 L6.2 25.0 6.2 24.95 6.55 24.9" fill="#cccccc" fill-rule="evenodd" stroke="none"/>
      <path d="M26.3 1.4 L26.25 2.0 26.25 1.5 26.2 1.35 26.1 1.3 25.95 1.45 25.7 1.25 26.05 1.1 26.3 1.4 M25.75 0.95 L25.65 1.0 25.65 0.9 25.75 0.95 M21.55 3.15 L17.75 6.0 Q16.55 6.85 15.4 7.8 14.05 8.95 12.8 10.2 L14.8 10.05 15.05 9.8 15.55 9.7 15.15 10.1 16.2 9.1 16.6 8.75 16.5 8.85 17.35 8.2 15.7 9.95 16.3 9.45 16.15 9.6 16.2 9.65 15.65 10.05 15.8 10.1 17.5 8.5 17.55 8.45 17.4 8.65 17.4 8.9 18.85 7.3 19.9 6.5 18.9 7.75 18.55 8.05 18.8 7.9 17.8 8.95 17.55 9.2 18.1 8.7 16.8 10.15 17.1 10.15 Q18.4 8.8 19.8 7.5 L20.2 7.15 20.05 7.2 22.4 5.3 21.05 6.55 22.65 5.55 21.6 6.15 Q22.9 5.05 24.3 4.2 L24.3 4.1 24.75 4.1 24.95 3.9 26.2 3.35 26.15 3.75 25.45 4.15 25.35 4.45 25.25 4.3 25.6 3.7 25.45 3.85 25.35 4.15 25.3 4.25 24.8 4.45 24.75 4.45 24.7 4.5 24.15 4.8 Q22.95 5.45 21.9 6.25 L21.55 6.5 21.65 6.4 21.15 6.7 21.1 6.8 Q20.7 7.0 20.4 7.45 L21.3 6.75 Q19.8 8.05 18.4 9.4 L18.95 9.45 18.7 9.75 18.15 9.7 17.65 10.15 17.75 10.15 18.05 9.85 17.85 10.1 19.5 10.4 19.0 10.35 18.9 10.45 20.05 10.45 20.25 10.5 18.8 10.55 18.6 10.8 18.55 10.75 18.7 10.6 18.1 10.6 17.9 10.75 18.0 10.55 17.85 10.65 17.45 10.6 17.35 10.7 17.0 10.75 16.7 11.1 16.85 11.1 17.15 10.8 16.65 11.4 17.0 11.4 16.7 11.75 17.65 11.65 17.8 11.45 18.05 11.5 17.95 11.65 18.1 11.7 18.15 11.6 20.35 11.45 19.05 11.4 21.0 11.25 20.95 11.2 Q23.7 11.3 26.25 12.15 L26.15 12.2 26.25 12.25 26.45 12.2 26.55 12.3 26.8 12.25 26.8 12.15 26.9 12.0 27.15 12.1 26.95 12.4 27.1 12.45 27.25 12.3 27.75 12.4 27.65 12.4 27.75 12.8 27.55 13.0 27.85 13.05 28.0 13.1 29.9 13.65 29.8 13.95 29.45 13.85 29.65 13.7 28.3 13.45 28.15 13.5 27.75 13.4 27.85 13.35 27.5 13.3 27.05 13.65 26.95 13.65 26.95 13.55 27.25 13.3 26.5 13.15 25.75 13.05 Q23.8 12.7 21.85 12.55 L22.9 12.5 Q21.8 12.3 20.7 12.4 L17.15 12.75 16.85 12.75 16.75 12.85 18.7 12.95 18.35 12.95 21.6 13.15 21.7 13.05 22.2 13.0 22.35 12.9 21.4 12.85 22.0 12.95 20.55 13.0 20.55 12.95 20.5 12.95 20.5 12.9 18.9 12.7 21.6 12.6 22.35 12.7 23.6 12.8 23.35 12.9 23.65 13.05 23.4 13.25 Q24.25 13.25 25.05 13.55 L25.15 13.45 24.8 13.2 25.3 13.25 25.9 13.05 26.05 13.1 25.55 13.4 25.35 13.35 25.4 13.45 25.5 13.4 25.4 13.5 25.35 13.7 25.8 13.85 26.3 13.65 26.6 13.75 27.05 13.9 26.85 13.9 26.6 14.2 26.3 14.1 26.25 14.1 25.2 14.0 25.15 14.0 25.25 13.85 25.05 13.8 24.4 13.7 23.9 13.7 23.45 13.75 23.6 13.65 23.05 13.65 23.5 13.6 22.8 13.5 22.85 13.45 21.05 13.25 Q18.2 12.95 15.35 13.05 L15.15 13.35 15.7 13.3 15.7 13.2 Q17.45 13.05 19.2 13.25 L19.05 13.25 19.55 13.3 22.8 13.7 23.55 13.85 23.35 13.95 23.55 13.95 23.6 14.0 24.6 14.1 24.6 14.15 24.4 14.2 23.35 14.25 23.85 14.35 23.75 14.4 23.15 14.35 Q22.65 14.35 22.15 14.2 L23.3 14.2 22.45 14.0 23.3 14.05 21.35 13.75 Q19.85 13.55 18.3 13.5 L18.55 13.45 17.9 13.45 17.5 13.4 17.0 13.4 16.9 13.4 15.15 13.4 15.05 13.45 15.65 13.5 15.75 13.4 15.9 13.45 16.1 13.45 16.0 13.55 16.35 13.55 16.45 13.5 16.55 13.45 16.5 13.55 16.8 13.5 16.85 13.55 17.2 13.55 19.9 14.0 19.05 13.95 Q18.2 13.95 17.35 14.0 L16.4 13.85 16.2 13.85 16.15 13.8 16.1 13.8 14.9 13.7 14.65 14.1 14.55 14.1 14.35 14.35 14.5 14.35 14.45 14.4 14.35 14.4 14.1 14.75 14.4 14.5 13.9 15.3 13.8 15.4 Q13.75 15.3 13.85 15.15 L13.9 15.05 14.05 14.9 13.9 15.0 13.9 14.85 14.2 14.35 13.9 14.35 13.85 14.4 13.8 14.45 13.8 14.55 13.05 15.35 12.2 16.35 12.3 16.35 12.5 16.2 12.1 16.7 Q11.55 17.4 10.9 18.1 L11.55 17.1 11.85 16.8 11.6 17.0 11.9 16.5 11.4 17.05 Q10.65 17.85 10.05 18.75 L9.75 19.05 9.45 19.45 9.8 19.2 9.75 19.2 9.75 19.25 9.35 19.85 8.9 20.55 9.0 20.55 8.6 21.2 8.8 21.15 9.5 20.65 9.3 20.9 9.5 20.9 9.5 20.8 9.4 20.75 9.55 20.75 9.65 20.55 9.95 20.35 10.75 20.1 10.95 19.85 11.2 19.6 11.45 19.45 11.5 19.8 11.35 20.0 11.4 20.15 11.3 20.2 11.55 20.0 Q11.5 20.2 11.45 20.4 L11.25 21.05 10.5 21.5 Q9.35 22.1 8.1 22.6 L8.1 22.45 8.4 22.1 10.2 21.05 10.9 20.65 10.9 20.45 Q10.95 20.15 11.2 19.95 L11.2 20.05 11.4 19.7 10.9 20.15 10.8 20.1 10.3 20.5 10.25 20.55 9.8 20.85 10.0 20.8 9.9 20.9 9.7 20.9 9.25 21.2 9.1 21.2 8.95 21.35 9.05 21.35 8.85 21.55 Q7.95 22.3 7.45 23.3 7.4 23.3 7.35 23.4 7.3 23.5 7.3 23.65 L7.2 23.9 7.1 24.05 6.9 23.9 7.3 22.8 7.4 22.9 7.85 22.35 7.45 22.05 7.4 21.95 7.75 21.55 7.75 21.6 7.6 21.75 7.8 21.8 7.85 21.85 8.05 21.8 8.05 21.45 7.95 21.45 7.95 21.4 8.35 20.55 8.4 20.4 8.45 20.35 8.8 19.65 10.4 17.3 11.4 16.15 Q10.7 16.6 10.15 17.25 9.55 17.95 9.05 18.8 L10.35 17.4 8.25 20.3 8.3 20.1 7.9 20.7 8.0 20.6 7.85 20.8 7.8 20.9 6.85 22.4 6.7 22.6 6.7 22.7 6.8 22.55 6.4 23.8 5.95 23.75 5.9 24.4 6.3 24.1 6.25 24.35 5.95 24.65 6.15 24.7 6.25 24.65 6.2 24.9 6.15 24.9 6.2 24.95 6.2 25.0 6.55 24.9 6.65 24.9 6.9 24.85 7.4 24.7 7.15 24.75 8.8 24.1 8.7 24.15 9.0 24.05 Q10.05 23.65 10.6 22.75 L11.25 21.65 11.1 22.15 10.8 22.65 11.1 22.25 11.2 22.25 11.4 22.4 Q11.65 22.6 11.65 22.9 L11.5 23.15 Q10.45 24.95 8.4 25.6 L7.75 25.55 Q8.3 25.3 8.75 24.9 L9.15 24.5 8.4 24.85 8.7 24.6 Q7.9 25.0 6.95 25.1 L6.9 25.2 7.05 25.25 6.2 25.35 6.2 25.45 5.9 25.25 5.65 25.25 5.8 25.1 Q5.85 24.0 6.05 23.0 L6.4 23.1 6.45 22.2 6.4 22.7 6.35 22.65 6.15 22.7 6.3 22.2 6.3 22.25 6.35 22.25 6.4 22.4 6.4 22.25 7.0 21.0 7.35 20.45 7.5 20.55 8.1 19.7 7.45 20.15 7.55 20.05 8.35 19.45 8.45 19.15 Q8.65 18.75 8.95 18.4 L9.1 18.2 9.05 18.2 9.1 18.1 9.4 17.9 9.3 17.9 9.2 18.0 Q10.3 16.5 11.55 15.05 L12.15 14.4 12.9 13.65 12.4 13.65 12.5 13.5 12.35 13.65 12.25 13.65 12.35 13.5 12.1 13.55 12.0 13.65 12.15 13.65 11.9 13.95 11.7 14.15 11.7 14.2 11.35 14.45 11.6 14.4 11.55 14.45 11.45 14.5 11.55 14.5 11.45 14.65 11.35 14.6 10.9 14.9 11.5 14.2 10.7 15.1 10.95 15.1 10.9 15.2 10.75 15.1 10.35 15.65 10.25 15.7 9.85 16.1 10.45 15.75 10.2 16.05 9.65 16.5 9.9 16.15 Q8.25 17.7 7.1 19.7 L6.4 21.0 6.25 21.25 6.35 21.25 6.3 21.45 6.4 21.2 6.35 21.65 Q6.25 21.65 6.2 21.8 L6.1 21.95 6.15 21.85 6.05 21.85 5.95 22.2 5.85 22.2 5.75 22.65 5.85 22.5 Q5.6 23.6 5.6 24.75 L5.55 25.45 Q5.4 25.3 5.25 25.2 L5.1 25.15 5.1 24.5 5.05 24.45 5.05 23.95 5.15 24.05 Q5.3 22.7 5.75 21.4 L6.0 20.9 5.9 20.9 Q6.85 19.6 7.4 18.15 6.4 19.65 5.5 21.15 L6.15 19.7 5.15 21.15 Q5.5 20.3 6.05 19.65 L6.35 19.25 6.95 18.35 7.0 18.3 6.9 18.3 6.4 18.0 7.0 18.1 7.05 18.15 7.1 18.1 7.15 18.1 7.2 18.05 7.25 17.9 7.3 17.85 7.35 17.9 7.5 17.65 7.6 17.65 8.1 17.85 8.2 17.65 6.85 17.15 6.9 17.05 5.95 16.7 7.85 17.2 8.05 17.3 8.4 17.45 Q9.2 16.7 9.8 15.75 L9.65 15.8 10.45 15.05 10.5 15.3 11.85 13.65 11.55 13.65 11.0 13.75 11.05 13.65 10.65 13.7 10.6 13.75 8.45 14.3 7.85 14.4 8.0 14.4 7.3 14.7 7.9 14.6 7.0 15.1 6.65 15.15 7.1 15.25 6.5 15.5 Q6.35 15.55 6.15 15.6 L6.4 15.35 6.15 15.3 6.1 15.3 8.65 14.0 Q7.85 14.1 7.1 14.4 L6.75 14.55 6.5 14.6 6.6 14.65 5.95 14.9 5.9 14.9 5.8 14.95 5.75 14.7 5.7 14.65 5.55 14.6 6.65 14.2 6.45 14.25 9.2 13.75 9.35 13.6 10.8 13.3 9.7 13.4 7.2 13.75 7.5 13.6 8.4 13.4 11.35 13.05 10.45 13.05 9.85 13.1 9.5 13.15 10.6 12.85 12.35 12.7 12.35 12.5 13.0 12.4 13.4 12.0 13.8 11.95 14.25 11.35 14.05 11.35 14.35 11.05 14.2 11.25 14.4 11.4 15.65 10.25 15.0 10.25 14.95 10.3 14.55 10.3 13.65 10.3 13.7 10.25 13.0 10.35 11.8 10.45 12.8 10.2 12.1 10.25 Q13.55 8.75 15.15 7.4 16.6 6.2 18.2 5.15 19.85 4.05 21.55 3.15 M16.85 6.7 L16.9 6.9 16.75 7.05 15.95 7.6 16.85 6.7 M20.75 4.0 L23.4 1.85 24.05 1.3 24.3 1.15 Q24.85 0.9 25.5 0.9 L25.5 1.1 25.3 1.2 Q24.15 1.45 23.35 2.2 L23.1 2.4 23.4 2.55 23.3 2.65 Q22.3 3.1 21.3 3.7 L20.75 4.0 M22.55 3.2 L22.55 3.35 24.45 2.2 22.0 3.95 Q20.25 5.15 18.7 6.6 L18.6 6.7 17.9 7.15 17.8 7.2 18.55 6.5 22.05 3.6 22.55 3.2 M25.15 2.35 L25.1 2.25 25.05 2.4 24.4 2.8 25.1 2.25 25.25 2.2 25.15 2.35 M22.3 3.9 L21.45 4.7 Q20.35 5.45 19.45 6.45 L19.0 6.95 17.75 8.25 17.8 8.2 18.8 6.9 16.65 8.65 18.95 6.45 22.3 3.9 M21.4 5.0 L21.25 5.15 20.9 5.4 21.4 5.0 M19.55 7.1 L19.6 7.05 19.55 7.1 M20.3 6.55 L21.1 5.95 20.25 6.65 20.3 6.55 M22.5 5.1 L24.3 3.65 24.6 3.75 24.4 3.8 24.25 3.7 24.15 3.75 24.2 3.85 24.1 4.05 Q23.95 4.15 23.8 4.25 L23.75 4.25 23.6 4.3 22.5 5.1 M24.75 3.3 L25.35 2.75 25.85 2.25 25.85 2.85 25.15 3.45 25.2 3.35 25.25 3.35 25.3 3.1 24.75 3.3 M26.05 2.1 L26.2 2.05 26.2 2.25 Q26.2 2.55 25.95 2.75 L26.05 2.1 M24.1 6.1 L24.0 6.1 24.1 5.9 24.15 6.0 24.1 6.1 M23.9 5.8 L23.85 6.1 23.6 6.1 23.65 6.0 23.9 5.8 M22.95 6.15 L22.4 6.5 22.8 5.65 23.0 5.75 22.95 6.15 M18.75 9.75 L18.95 9.55 19.1 9.45 18.85 9.75 18.75 9.75 M19.7 9.8 L19.8 9.75 20.1 9.75 20.3 9.6 20.75 9.6 20.6 9.75 20.85 9.75 21.6 8.8 21.35 9.0 21.7 8.45 21.35 8.8 Q21.1 9.0 20.8 9.1 L22.5 7.85 Q22.2 8.5 21.7 9.05 L21.9 8.95 21.6 9.45 Q21.45 9.45 21.4 9.5 21.3 9.55 21.3 9.65 L21.2 9.75 21.35 9.75 21.2 9.95 19.7 9.8 M21.6 10.0 L21.85 9.75 21.65 10.0 22.0 10.0 22.4 9.45 Q23.05 8.65 23.6 7.75 L24.2 6.8 24.7 6.15 24.35 6.45 24.8 5.55 24.65 5.55 24.65 5.45 24.8 5.45 24.95 5.95 25.05 5.75 24.95 5.3 25.1 5.25 25.3 5.5 Q25.35 5.65 25.4 5.8 L25.25 6.1 25.05 6.5 24.9 6.8 Q24.35 7.75 23.55 8.55 L23.85 8.2 Q24.4 7.4 24.8 6.55 L24.5 6.95 Q23.8 7.85 23.2 8.9 L23.1 8.95 23.05 9.1 22.85 9.35 22.5 9.8 22.9 9.9 23.4 9.95 24.1 10.1 24.3 10.1 24.45 10.15 24.5 10.15 25.0 10.25 25.2 10.3 24.8 10.35 Q26.5 10.5 28.05 11.1 L27.85 10.95 28.05 11.0 28.1 11.1 30.0 11.9 28.9 11.6 28.25 11.35 Q26.7 10.75 25.1 10.6 L25.0 10.6 25.25 10.55 23.15 10.25 21.6 10.0 M30.85 13.25 L30.05 13.45 30.0 13.4 30.65 13.15 30.85 13.25 M28.0 12.1 L28.25 12.3 27.9 12.25 27.5 11.95 27.45 11.9 28.0 12.1 M28.4 12.45 L28.5 12.55 Q28.65 12.75 28.7 13.05 L28.5 13.0 Q28.5 12.85 28.4 12.75 L28.2 12.65 28.1 12.9 27.8 12.8 27.85 12.7 Q28.0 12.55 28.0 12.35 L28.4 12.45 M27.45 13.95 L27.0 14.35 26.8 14.25 27.2 13.9 27.45 13.95 M26.2 15.6 L25.4 15.8 25.35 15.8 25.6 15.7 25.35 15.7 25.3 15.8 23.5 16.4 23.65 16.4 Q24.5 16.2 25.3 15.85 L25.1 16.0 Q24.2 16.6 23.15 16.45 L23.1 16.15 23.3 16.0 23.05 16.05 22.7 15.35 22.95 15.15 22.55 15.25 23.35 15.0 23.0 14.95 22.95 14.9 22.3 15.0 22.05 14.85 22.9 14.65 22.5 14.6 23.4 14.55 23.85 14.45 24.0 14.4 24.65 14.4 23.85 14.7 24.4 14.7 23.85 14.85 23.0 14.9 23.45 14.95 23.45 15.0 23.95 14.9 24.15 15.0 24.3 14.8 24.55 14.75 24.65 14.75 24.75 14.9 25.05 14.8 24.95 14.8 25.15 14.7 25.55 14.7 25.0 14.95 24.7 14.95 24.65 15.05 24.3 15.15 24.6 15.2 24.65 15.15 24.75 15.15 24.2 15.3 24.8 15.15 25.3 15.3 24.55 15.55 25.4 15.4 25.45 15.35 25.6 15.4 25.45 15.45 25.7 15.45 26.2 15.6 M15.1 14.25 L15.0 14.35 14.7 14.35 15.0 14.05 15.3 14.05 15.1 14.25 M20.75 14.65 L20.95 14.65 20.25 14.7 20.75 14.65 M12.0 17.1 L11.25 17.8 12.45 16.4 12.0 17.1 M10.9 18.8 L10.7 18.9 11.4 18.05 10.9 18.8 M10.9 19.5 L11.15 19.4 11.15 19.5 10.65 19.8 10.9 19.5 M8.55 22.45 L8.55 22.5 Q8.6 22.6 8.7 22.5 8.75 22.45 8.8 22.45 L8.85 22.55 8.5 22.7 8.3 22.55 8.55 22.45 M8.55 22.7 Q9.95 22.25 11.05 21.35 11.0 21.55 10.85 21.7 10.6 21.95 10.25 22.15 L10.35 22.15 10.25 22.3 Q9.5 23.0 8.45 23.15 L8.55 22.95 Q9.15 22.8 9.65 22.45 9.7 22.4 9.8 22.4 L8.55 22.7 M8.6 23.9 L9.55 22.95 9.4 23.3 8.6 23.9 M10.95 22.0 L11.1 21.8 11.05 21.95 10.95 22.0 M7.85 25.75 L6.6 26.0 Q7.1 25.8 7.65 25.8 L7.85 25.75 M6.25 26.15 L5.85 26.2 5.8 26.0 6.25 25.9 6.25 26.15 M5.55 26.15 L5.15 25.95 5.1 25.75 5.55 25.95 5.55 26.15 M5.45 19.75 L6.2 18.25 6.25 18.25 5.75 18.1 5.6 17.8 5.35 17.75 5.4 17.8 4.4 17.45 Q3.7 17.15 3.05 16.75 L2.6 16.5 2.65 16.35 3.6 16.8 2.3 16.15 2.45 16.15 2.65 15.9 2.7 15.9 2.7 16.1 2.85 16.3 4.45 16.85 3.4 16.2 3.7 16.05 4.45 16.45 4.4 16.35 4.45 16.3 5.1 16.55 5.15 16.55 5.4 16.6 5.35 16.65 5.3 16.75 5.4 16.8 4.9 16.65 6.4 17.6 6.25 17.65 7.05 17.9 6.85 18.0 6.9 18.05 6.15 17.85 5.4 17.55 5.9 17.85 6.0 17.9 6.8 18.35 6.6 18.35 6.45 18.6 6.3 18.5 5.45 19.75 M1.15 15.5 L1.1 15.5 1.05 15.4 1.15 15.5 M0.95 14.85 L0.8 14.75 Q0.6 14.6 0.6 14.3 L0.7 14.25 0.95 14.5 1.05 14.55 1.0 14.9 0.95 14.85 M0.75 13.85 L0.7 13.8 0.45 13.6 0.4 13.5 0.35 13.45 0.3 13.15 0.7 12.75 0.85 12.75 0.6 13.05 0.6 13.1 0.55 13.25 0.7 13.5 0.8 13.35 Q0.9 13.15 1.0 13.0 L1.05 13.0 1.1 12.9 1.6 12.6 2.45 12.3 2.5 12.1 1.5 12.5 2.1 12.2 Q4.0 11.35 6.1 11.4 L5.3 11.65 4.95 11.75 5.1 11.75 4.9 11.85 Q3.75 11.8 2.7 12.25 L3.0 12.2 1.5 13.0 1.25 13.15 0.7 13.5 0.7 13.65 0.9 13.7 0.75 13.85 M6.6 11.2 L6.7 11.2 6.6 11.2 M23.05 11.85 L23.45 11.95 23.35 11.95 23.6 12.0 22.05 11.8 23.05 11.85 M24.95 12.3 L25.5 12.45 25.0 12.55 24.55 12.4 24.95 12.3 M25.9 12.65 L26.4 12.75 26.55 12.75 26.75 12.85 26.75 12.9 26.85 12.95 26.9 12.95 26.95 12.85 27.15 12.9 27.4 12.95 27.5 12.9 27.5 12.65 27.3 12.55 27.25 12.6 27.35 12.7 24.0 11.9 25.1 12.0 Q22.7 11.25 20.3 11.9 L20.2 11.85 20.2 11.8 19.55 11.85 19.45 11.85 19.85 11.95 17.8 11.85 18.15 11.8 16.15 12.0 16.1 12.1 17.95 12.1 18.2 12.15 18.25 12.1 21.7 12.2 20.55 12.0 21.1 12.1 21.2 11.95 21.85 12.0 22.65 12.2 23.75 12.35 24.25 12.5 23.5 12.45 24.0 12.5 25.9 12.65 M26.25 12.65 L26.0 12.45 26.25 12.5 26.25 12.55 26.35 12.55 26.4 12.55 26.25 12.65 M24.65 13.1 L24.2 13.15 24.2 13.1 24.4 13.0 24.65 13.1 M24.95 14.45 L25.05 14.5 24.45 14.6 24.95 14.45 M24.55 13.95 L24.6 13.95 25.0 13.85 25.0 13.85 24.85 13.95 24.55 13.95 M25.1 13.05 L24.85 12.95 25.35 13.0 25.1 13.05 M26.4 11.9 L26.55 12.05 24.9 11.7 26.4 11.9 M26.8 12.0 Q26.3 11.9 25.95 11.5 26.15 11.55 26.3 11.65 26.55 11.75 26.8 11.7 L27.05 11.8 26.85 11.9 26.85 11.95 27.15 12.05 26.8 12.0 M27.15 12.9 L27.15 12.9 M26.1 14.15 L26.1 14.2 26.1 14.15 M25.8 14.1 L25.5 14.35 25.35 14.3 25.8 14.1 M24.55 15.55 L24.3 15.5 24.0 15.9 24.9 15.65 24.55 15.55 M23.5 15.8 L23.65 15.65 23.2 15.8 23.5 15.8 M15.55 9.3 L15.9 9.3 17.55 7.5 18.2 6.95 16.25 9.05 15.6 9.65 15.2 9.65 15.55 9.3 M14.9 10.4 L15.25 10.4 14.65 10.95 14.35 10.95 14.9 10.4 M15.9 10.4 L15.8 10.4 15.6 10.65 15.2 11.1 15.25 11.1 15.05 11.35 14.9 11.35 14.5 11.8 13.95 11.8 13.35 12.35 13.9 12.25 13.85 12.3 13.95 12.3 13.7 12.55 13.6 12.6 13.4 12.85 13.6 13.0 14.2 12.35 14.15 12.2 14.3 12.15 14.55 11.9 14.65 11.9 15.25 11.4 15.1 11.35 15.35 11.1 15.6 11.1 15.85 10.85 15.75 10.85 16.0 10.65 15.85 10.85 16.05 10.7 15.95 10.75 16.5 10.25 16.4 10.25 15.9 10.65 16.2 10.25 16.05 10.25 15.9 10.4 M16.25 9.9 L16.45 9.95 16.65 9.75 16.25 9.9 M16.6 10.1 L17.35 9.4 16.65 10.0 17.4 9.15 16.7 9.85 16.5 10.1 16.6 10.1 M16.65 10.25 L15.15 11.9 15.4 11.9 16.15 11.2 16.2 11.2 17.05 10.25 16.65 10.25 M13.3 11.15 L13.1 11.4 12.7 11.4 12.9 11.2 13.3 11.15 M13.5 11.45 L13.9 11.4 13.5 11.85 13.1 11.85 13.5 11.45 M13.75 10.6 L13.9 10.4 14.25 10.4 14.1 10.6 13.75 10.6 M10.7 10.6 L13.5 10.4 13.35 10.6 10.65 10.6 10.7 10.6 M10.95 10.7 L11.15 10.8 10.7 10.8 10.95 10.7 M7.7 11.15 L10.85 11.2 10.9 11.1 11.1 11.1 10.85 11.0 12.05 10.8 13.25 10.7 12.9 11.05 11.1 11.3 10.3 11.4 Q8.85 11.6 7.45 12.15 L7.1 12.1 8.35 11.65 7.7 11.7 8.4 11.6 8.75 11.5 9.1 11.45 9.55 11.3 7.0 11.45 7.5 11.55 6.05 11.65 6.75 11.4 6.9 11.4 6.95 11.35 7.6 11.4 7.1 11.3 7.45 11.2 7.5 11.25 Q7.65 11.3 7.6 11.15 L7.7 11.15 M13.35 11.0 L13.7 10.65 14.05 10.65 13.75 11.0 13.35 11.0 M12.5 12.1 L12.2 12.45 11.8 12.45 12.05 12.15 12.5 12.1 M13.85 11.6 L14.0 11.55 13.75 11.8 13.85 11.6 M10.9 11.55 L12.75 11.55 10.9 11.7 11.25 11.8 11.6 11.8 12.3 11.75 12.15 11.95 10.35 11.85 11.3 12.1 10.9 12.15 10.85 12.15 Q9.55 12.4 8.25 12.55 L7.75 12.6 8.25 12.5 5.9 13.0 7.2 12.45 Q8.1 12.3 9.0 12.25 L9.7 12.15 8.25 12.1 10.9 11.55 M4.2 14.0 L4.35 13.95 4.2 13.8 Q5.6 13.1 7.15 12.8 L7.25 12.9 9.3 12.7 9.6 12.7 4.45 13.75 4.65 13.85 6.2 13.5 6.05 13.55 5.55 13.65 5.8 13.65 5.75 13.7 Q5.2 13.85 4.75 14.15 L4.5 14.35 4.25 14.35 4.15 14.4 4.5 13.95 4.4 13.95 4.2 14.0 M12.55 11.9 L12.7 11.7 13.15 11.65 12.8 11.65 13.25 11.55 13.0 11.85 12.55 11.9 M12.6 12.85 L13.05 12.8 13.3 12.55 13.15 12.55 13.1 12.65 12.8 12.65 12.6 12.85 M9.9 12.65 L9.85 12.65 9.9 12.65 M12.95 13.9 L12.8 13.9 12.45 14.4 12.55 14.4 12.95 13.9 M12.2 12.9 L12.35 12.7 11.35 12.85 12.2 12.9 M14.05 13.15 L13.95 13.25 14.75 13.3 14.9 13.05 14.05 13.15 M14.45 13.45 L14.5 13.4 14.25 13.45 14.2 13.55 14.3 13.45 14.45 13.45 M13.9 13.4 L13.8 13.4 13.65 13.55 13.75 13.5 13.9 13.4 M14.1 14.05 L14.05 14.05 13.95 14.1 13.85 14.1 13.65 14.25 13.85 14.05 13.7 14.05 13.45 14.35 13.85 14.35 14.25 14.05 14.5 13.85 14.4 13.85 14.5 13.7 14.4 13.7 14.3 13.85 14.05 14.05 14.15 14.05 14.1 14.05 M14.25 14.05 L14.25 14.05 M13.75 14.0 L13.8 14.05 13.85 14.05 14.1 13.85 13.85 13.85 Q13.65 14.0 13.75 14.05 L13.75 14.0 M12.8 15.15 L13.8 13.65 13.5 13.65 12.8 14.5 12.65 14.45 12.15 15.05 12.15 15.15 11.35 15.95 11.5 16.0 12.8 14.75 Q12.05 15.65 11.45 16.6 L11.1 17.1 12.5 15.55 12.5 15.65 13.65 14.4 13.4 14.4 12.55 15.5 12.75 15.2 12.8 15.15 M13.4 13.25 L13.2 13.3 13.0 13.6 13.15 13.6 13.4 13.25 M17.9 11.4 L17.15 11.45 17.3 11.35 17.9 11.4 M16.35 11.75 L16.35 11.75 M17.05 12.2 L16.2 12.2 15.75 12.55 16.35 12.45 16.3 12.5 16.55 12.45 16.8 12.45 17.05 12.2 M15.3 12.1 L15.6 12.05 15.5 12.0 15.3 12.1 M15.9 11.85 L16.05 11.6 15.8 11.85 15.9 11.85 M14.75 12.35 L14.45 12.65 14.65 12.65 14.8 12.7 15.25 12.6 14.95 12.55 15.2 12.35 14.75 12.35 M15.9 12.85 L15.65 12.9 16.05 12.9 16.35 12.85 16.4 12.8 15.45 12.85 15.9 12.85 M14.7 13.55 L14.75 13.4 14.6 13.55 14.7 13.55 M19.55 9.5 L19.2 9.75 19.0 9.75 19.25 9.45 19.55 9.5 M19.25 8.0 L19.05 8.2 18.25 9.15 19.25 8.0 M19.95 7.65 L18.55 8.9 18.7 8.8 Q19.35 8.45 19.85 7.8 L19.95 7.65 M20.2 7.35 L19.05 8.35 20.05 7.5 20.2 7.35 M18.25 10.3 L18.15 10.4 18.9 10.45 18.95 10.35 18.25 10.3 M17.75 10.3 L17.5 10.25 17.4 10.4 17.65 10.4 17.75 10.3 M19.1 12.2 L19.05 12.25 19.75 12.2 19.1 12.2 M20.2 11.95 L20.55 11.95 20.5 12.0 20.2 11.95 M18.35 11.1 L18.35 11.1 M17.75 11.1 L17.55 11.1 17.75 10.95 17.75 11.1 M18.55 12.3 L18.7 12.2 17.45 12.2 17.2 12.45 18.55 12.3 M21.05 11.1 L20.4 11.15 20.5 11.0 21.15 11.0 21.05 11.1 M20.65 11.65 L20.7 11.6 21.15 11.6 19.6 11.65 20.65 11.65 M22.7 13.15 L22.8 13.05 22.95 13.25 23.1 13.2 23.3 13.0 22.5 12.9 22.45 13.05 22.05 13.15 22.7 13.15 M1.0 12.4 L1.3 12.25 0.95 12.6 1.0 12.4 M1.0 14.0 L1.25 13.75 Q1.65 13.3 2.2 13.1 L1.9 13.35 Q1.5 13.7 1.2 14.2 L1.0 14.0 M2.1 13.85 L1.55 14.05 1.75 13.75 3.15 13.55 2.95 14.0 2.1 14.25 2.35 14.1 2.65 13.95 2.85 13.8 2.95 13.65 2.8 13.7 2.45 13.8 2.1 13.85 M1.4 14.3 L1.65 14.55 1.8 14.4 1.85 14.5 1.6 14.6 1.35 14.4 1.4 14.3 M4.2 12.65 L4.3 12.55 4.6 12.55 5.2 12.5 4.35 12.65 4.6 12.55 4.2 12.65 M6.4 12.35 L6.9 12.2 7.1 12.25 6.8 12.35 6.4 12.35 M3.3 13.9 L3.2 14.0 3.35 13.5 3.85 13.45 3.3 13.9 M4.45 14.4 L4.35 14.7 4.5 14.65 6.2 14.3 4.5 14.7 4.7 14.85 4.9 14.75 5.45 14.95 5.45 14.85 5.7 14.7 5.6 14.95 5.7 15.0 5.15 15.45 4.55 15.6 4.5 15.45 4.8 15.15 4.3 15.25 3.85 15.0 3.55 15.15 4.15 14.8 4.1 14.55 4.45 14.4 M11.1 13.75 L10.8 14.05 10.3 14.1 10.6 13.75 11.1 13.75 M11.25 13.35 L11.35 13.3 11.0 13.3 10.75 13.55 11.1 13.6 11.3 13.35 11.25 13.35 M7.1 10.45 L9.5 10.3 11.95 10.25 9.5 10.5 Q7.55 10.8 5.55 10.9 6.25 10.55 7.1 10.45 M10.65 14.25 L10.6 14.3 10.05 14.4 10.1 14.3 10.65 14.25 M9.9 15.15 L9.65 15.4 9.5 15.4 9.2 15.45 9.4 15.15 9.9 15.15 M9.6 15.45 L9.3 15.85 8.75 15.95 9.05 15.6 9.6 15.45 M11.2 15.05 Q11.3 15.05 11.2 15.05 M11.15 15.6 L11.05 15.8 11.35 15.55 11.15 15.6 M7.85 15.45 L8.45 15.6 8.4 15.65 8.6 15.7 7.75 15.65 6.8 15.45 7.85 15.45 M8.9 17.65 L9.55 17.1 8.35 19.0 7.65 19.9 8.0 19.25 8.6 18.4 8.5 18.35 8.55 18.25 8.65 18.3 8.7 18.2 8.6 18.2 8.55 18.25 8.45 18.25 8.5 18.15 8.6 18.2 8.7 18.0 8.65 18.0 8.8 17.85 8.9 17.65 M9.6 16.95 L9.05 17.45 9.45 16.8 9.95 16.4 9.6 16.95 M6.75 14.65 L6.6 14.7 6.7 14.65 6.75 14.65 M5.9 17.6 L6.05 17.5 5.25 17.4 5.9 17.6 M7.65 17.45 L7.6 17.55 7.45 17.45 7.6 17.45 7.65 17.45 M8.35 18.35 L8.45 18.35 8.2 18.55 8.35 18.35 M7.65 18.2 L7.3 18.9 7.8 18.25 7.65 18.2 7.55 18.2 7.5 18.4 7.65 18.2 M8.2 18.95 L7.7 19.7 7.65 19.6 7.75 19.2 8.2 18.95 M6.7 21.25 Q6.85 20.55 7.2 19.95 L7.35 19.7 6.95 20.5 7.2 20.3 7.0 20.6 6.7 21.25 M7.95 20.15 L7.8 20.2 7.7 20.6 7.95 20.15 M9.35 17.85 L9.4 17.9 9.65 17.55 9.35 17.85 M4.8 14.95 L4.5 15.05 4.8 15.15 5.0 15.1 5.3 15.1 4.8 14.95 M3.25 14.6 L3.3 14.5 3.7 14.45 3.25 14.6 M2.55 15.3 L2.5 15.35 2.25 15.15 2.3 15.1 2.55 15.3 M2.3 15.5 L2.15 15.65 1.25 15.05 1.2 14.85 1.3 14.9 1.4 14.85 1.8 15.15 1.7 15.15 2.3 15.5 M2.1 15.7 L2.0 15.85 1.5 15.45 2.1 15.7 M1.75 14.75 L1.85 14.7 1.95 14.9 1.75 14.75 M2.85 14.55 L3.0 14.5 3.05 14.7 2.3 15.0 2.35 14.8 2.85 14.55 M2.85 15.5 L3.2 15.6 3.6 15.5 3.4 15.3 3.55 15.15 3.8 15.4 3.2 15.85 3.1 15.85 3.05 15.7 2.85 15.55 2.85 15.5 M3.1 15.95 L3.35 16.05 3.05 16.0 3.1 15.95 M3.6 16.1 L3.55 16.2 4.0 16.35 3.6 16.1 M2.4 15.8 L2.6 15.65 2.85 15.8 2.7 15.9 2.75 15.8 2.6 15.85 2.4 15.8 2.55 15.85 2.35 15.95 2.4 15.8 M5.55 21.75 L5.4 22.0 5.4 21.9 5.55 21.75 M5.15 22.4 L4.8 22.9 5.1 22.35 5.1 21.85 5.35 21.35 5.3 21.55 Q5.15 21.95 5.15 22.4 M4.7 22.85 L4.65 22.95 4.7 23.55 4.85 23.8 4.9 23.9 4.9 23.85 5.0 24.0 4.95 24.05 4.85 24.05 4.95 24.4 4.7 24.25 4.5 23.4 4.4 23.85 4.35 23.65 4.4 22.9 4.55 22.7 4.7 22.65 4.7 22.85 M4.95 23.6 L5.15 23.3 5.2 23.3 5.1 23.65 4.95 23.6 M5.3 22.55 L5.35 22.45 5.3 22.65 5.3 22.55 M5.55 24.65 L5.35 23.65 5.4 24.75 5.55 24.65 M4.6 25.1 L4.7 25.3 4.65 25.35 4.5 25.25 4.6 25.1 M6.25 25.85 L5.8 25.6 5.8 25.35 5.85 25.4 6.2 25.6 6.25 25.85 M10.7 23.45 Q10.3 23.7 9.95 23.95 9.5 24.3 9.05 24.7 9.75 24.35 10.35 23.95 10.95 23.45 11.25 22.8 L11.15 22.5 10.35 23.5 10.9 23.1 10.7 23.45 M9.1 22.25 L9.45 22.3 8.9 22.5 8.9 22.35 9.1 22.25 M8.65 21.4 L8.5 21.35 8.35 21.65 8.45 21.65 8.65 21.4 M7.0 21.5 L6.9 21.5 6.75 21.85 6.75 22.05 6.7 22.25 7.0 21.5 M6.75 23.5 L6.95 23.4 6.85 23.55 6.75 23.5 M6.45 23.55 L6.15 23.55 6.45 23.6 6.45 23.55 M12.5 14.45 L12.4 14.45 12.15 14.9 12.5 14.45 M12.1 14.45 L11.4 15.4 12.2 14.45 12.1 14.45 M11.65 15.35 L11.4 15.4 11.6 15.5 11.65 15.35" fill="#797373" fill-rule="evenodd" stroke="none"/>
    </g>
  </defs>
</svg>
