<?xml version="1.0" encoding="UTF-8" standalone="no"?>
<svg xmlns:ffdec="https://www.free-decompiler.com/flash" xmlns:xlink="http://www.w3.org/1999/xlink" ffdec:objectType="frame" height="77.35px" width="231.0px" xmlns="http://www.w3.org/2000/svg">
  <g transform="matrix(1.0, 0.0, 0.0, 1.0, 99.75, 51.45)">
    <use ffdec:characterId="581" height="3.75" transform="matrix(7.0, 0.0, 0.0, 7.0, 23.1, -21.0)" width="9.45" xlink:href="#shape0"/>
  </g>
  <defs>
    <g id="shape0" transform="matrix(1.0, 0.0, 0.0, 1.0, -3.3, 3.0)">
      <path d="M5.25 -2.1 Q5.25 -1.55 4.55 -1.55 L4.2 -1.55 Q4.05 -1.6 3.95 -1.8 L3.75 -2.05 3.55 -2.05 Q3.45 -2.2 3.4 -2.3 3.3 -2.45 3.3 -2.5 3.3 -2.65 3.45 -2.75 L3.8 -3.0 4.0 -3.0 Q4.05 -3.0 4.1 -2.9 L4.45 -2.95 Q4.75 -2.85 4.9 -2.5 5.0 -2.5 5.1 -2.45 5.25 -2.3 5.25 -2.1 M5.15 -1.3 Q5.15 -1.6 5.35 -1.8 L5.95 -2.2 Q6.45 -2.5 7.0 -2.0 7.1 -1.9 7.15 -1.75 L7.15 -1.3 Q7.1 -1.15 6.95 -1.05 6.5 -1.15 6.35 -1.05 L6.35 -1.0 6.25 -0.85 Q5.95 -0.8 5.8 -0.8 5.25 -0.8 5.15 -1.0 5.1 -1.15 5.15 -1.3 M7.45 -2.25 Q7.45 -2.55 7.75 -2.7 8.0 -2.85 8.35 -2.8 9.3 -2.7 9.3 -1.8 L9.45 -1.9 9.95 -1.85 10.8 -1.8 Q11.25 -1.6 11.4 -1.5 11.65 -1.3 11.65 -1.0 L11.65 -0.95 Q12.3 -0.85 12.5 -0.65 12.75 -0.5 12.75 -0.05 12.75 0.3 12.55 0.45 12.3 0.75 11.5 0.75 L10.45 0.7 Q10.4 0.7 10.1 0.35 L9.9 0.05 9.85 -0.15 9.9 -0.35 9.0 -0.3 Q8.3 -0.3 8.1 -0.55 8.0 -0.65 7.95 -0.8 7.85 -1.05 7.95 -1.35 7.7 -1.4 7.6 -1.55 7.5 -1.65 7.5 -1.8 L7.5 -2.0 7.45 -2.25" fill="#111111" fill-rule="evenodd" stroke="none"/>
      <path d="M4.35 -2.4 Q4.15 -2.6 4.1 -2.75 L4.55 -2.8 4.8 -2.5 5.0 -2.45 5.2 -2.25 5.15 -2.05 5.05 -2.05 4.95 -2.0 4.75 -2.05 4.35 -2.4 M5.4 -1.4 L5.4 -1.45 5.35 -1.55 Q5.35 -1.7 5.5 -1.8 5.65 -1.95 5.85 -1.95 5.95 -1.95 6.05 -2.05 L6.2 -2.2 6.55 -2.2 Q6.75 -1.9 6.75 -1.75 L6.75 -1.6 6.65 -1.55 Q6.4 -1.7 6.2 -1.7 6.1 -1.7 5.85 -1.55 L5.55 -1.35 5.4 -1.35 5.4 -1.4 M8.1 -2.05 Q8.05 -2.1 8.05 -2.3 L7.75 -2.3 7.75 -2.4 Q7.75 -2.8 8.35 -2.75 9.0 -2.75 9.0 -2.25 9.0 -2.1 8.9 -2.1 L8.45 -2.0 8.1 -2.05 M9.3 -1.05 Q9.15 -1.1 9.05 -1.2 8.95 -1.35 9.0 -1.45 9.35 -1.45 9.8 -1.65 10.2 -1.85 10.7 -1.7 L10.85 -1.6 11.0 -1.55 Q11.1 -1.5 11.1 -1.35 L11.1 -1.3 11.0 -1.2 10.45 -1.2 10.3 -1.25 10.2 -1.25 Q9.65 -1.2 9.5 -1.05 L9.3 -1.05" fill="#6d6b6b" fill-rule="evenodd" stroke="none"/>
    </g>
  </defs>
</svg>
