<?xml version="1.0" encoding="UTF-8" standalone="no"?>
<svg xmlns:ffdec="https://www.free-decompiler.com/flash" xmlns:xlink="http://www.w3.org/1999/xlink" ffdec:objectType="frame" height="177.1px" width="280.2px" xmlns="http://www.w3.org/2000/svg">
  <g transform="matrix(1.0, 0.0, 0.0, 1.0, -0.05, 30.5)">
    <use ffdec:characterId="1099" height="177.1" transform="matrix(1.0, 0.0, 0.0, 1.0, 0.05, -30.5)" width="280.2" xlink:href="#shape0"/>
  </g>
  <defs>
    <g id="shape0" transform="matrix(1.0, 0.0, 0.0, 1.0, -0.05, 30.5)">
      <path d="M3.5 46.15 L1.0 42.3 2.5 41.55 30.7 10.35 39.4 1.45 Q40.1 -0.25 45.05 -5.35 51.85 -12.25 53.6 -15.15 56.4 -19.6 60.5 -23.75 L64.4 -27.95 Q66.9 -30.35 69.25 -30.5 L68.85 -30.0 68.75 -30.25 Q66.5 -28.65 63.85 -25.6 L59.1 -20.0 Q57.75 -18.55 55.65 -15.0 L54.35 -13.4 Q52.5 -10.95 46.75 -5.4 L45.55 -4.2 45.35 -3.95 43.05 -1.55 Q41.1 0.7 40.5 2.0 L40.3 2.7 40.75 2.75 41.35 3.0 40.75 3.15 40.35 3.15 40.6 3.6 9.6 35.85 3.25 41.7 3.25 43.4 43.4 45.75 4.7 46.2 3.5 46.15 M120.95 -14.25 L121.65 -15.0 Q122.65 -15.95 122.65 -14.5 122.65 -13.45 117.6 -6.25 L117.4 -5.95 111.4 2.6 106.65 10.95 103.0 16.75 103.55 16.1 Q101.8 19.9 100.35 21.9 99.4 22.35 98.75 23.35 L95.15 28.55 95.15 28.7 87.5 35.95 84.75 38.6 83.25 40.1 82.65 40.65 81.65 41.7 79.6 43.85 Q76.4 46.0 73.55 48.8 72.2 50.15 71.35 51.35 70.15 52.4 68.75 54.2 L66.95 56.75 Q61.95 60.1 58.75 65.3 L58.45 65.95 Q56.6 61.65 56.6 55.75 56.6 53.1 54.9 51.2 52.95 49.15 50.7 47.9 53.6 49.05 55.8 51.05 57.1 52.2 57.65 53.8 58.25 55.4 58.15 57.05 58.0 60.0 58.85 62.9 L89.9 30.2 92.85 27.75 96.25 24.4 99.05 20.9 Q102.0 16.85 102.0 16.25 L101.95 15.9 Q103.5 13.95 104.75 11.6 L107.15 6.95 110.75 1.1 116.5 -7.65 119.25 -12.0 120.95 -14.25 M167.8 13.0 L168.0 12.9 168.1 13.05 168.15 13.5 168.15 13.6 168.15 13.65 166.85 15.7 166.75 15.15 166.5 15.25 163.5 19.35 162.95 20.4 162.4 21.6 161.75 22.0 Q160.95 22.2 160.0 23.75 L158.5 26.15 154.95 30.65 Q153.6 32.55 153.15 33.9 L153.0 34.1 145.9 44.35 144.65 46.05 144.45 46.35 Q142.65 49.3 140.45 51.6 L140.8 51.85 123.25 70.35 112.85 81.2 117.2 73.05 135.45 54.0 135.75 54.15 137.0 53.0 136.8 53.25 137.25 53.65 137.5 53.4 137.25 52.95 139.75 50.25 140.45 49.5 140.5 49.45 140.5 49.4 140.5 49.25 140.55 49.1 143.95 44.5 Q149.6 36.05 150.75 34.65 L152.55 32.55 Q155.05 28.65 158.0 24.65 L158.0 24.5 Q158.0 24.0 160.5 20.85 L161.2 19.9 Q164.25 16.0 166.25 14.0 L166.45 14.05 Q167.1 13.5 167.75 13.1 L167.8 13.0 M180.4 55.0 L182.0 52.4 Q183.5 49.7 186.6 45.6 L191.5 39.25 191.65 39.25 194.6 35.5 197.7 31.65 199.35 29.5 200.65 27.4 202.75 23.65 Q203.45 22.35 204.25 21.35 L204.0 21.85 200.75 29.8 199.15 31.85 Q196.7 34.5 194.15 38.2 L189.75 44.75 187.75 47.75 187.25 48.35 Q184.2 51.85 181.1 56.65 L176.15 64.65 171.7 70.8 171.85 70.4 171.75 70.05 171.5 70.0 171.35 70.1 166.8 75.3 163.0 80.5 Q161.2 82.75 156.3 87.1 151.75 91.0 151.75 91.05 151.75 91.8 150.7 92.75 149.8 93.6 149.65 94.2 L149.3 94.35 154.1 109.45 152.85 109.4 144.4 90.4 125.0 89.45 144.2 88.95 145.15 89.85 Q145.45 89.55 147.15 88.65 L152.05 87.0 154.9 85.65 Q153.0 88.1 153.0 88.5 153.0 89.15 153.1 88.75 L153.25 88.75 164.55 75.9 164.85 75.6 164.8 75.6 169.25 70.55 170.4 69.25 170.5 69.1 Q170.95 68.1 173.05 65.6 175.0 63.3 175.4 63.45 L176.7 61.9 182.25 53.3 181.6 54.1 179.55 56.6 180.4 55.0 M217.4 36.8 L217.5 36.9 217.5 37.4 Q217.5 39.3 209.25 49.5 L200.4 61.25 200.35 61.25 Q193.55 69.6 191.25 73.0 L191.05 73.35 186.2 79.7 185.25 81.0 188.4 77.05 189.7 75.35 185.25 81.85 185.35 81.95 183.3 84.1 183.1 84.75 182.55 84.9 172.85 95.05 164.0 104.15 166.0 101.55 163.9 101.0 185.8 77.9 188.75 73.9 190.7 71.35 190.9 71.0 191.1 70.7 194.15 65.55 194.25 65.6 195.45 64.35 Q195.65 63.8 196.4 62.9 L197.9 61.25 198.85 59.8 Q199.5 58.8 200.1 58.75 L200.25 58.7 200.35 58.75 208.1 49.5 Q217.4 38.25 217.4 37.0 L217.4 36.8 M232.85 84.65 Q238.25 76.5 247.8 65.1 L265.25 44.5 265.7 44.9 265.85 45.5 265.75 45.9 265.75 45.75 265.65 45.25 265.5 45.1 Q263.75 45.25 262.4 50.5 L257.6 55.9 Q255.55 57.8 253.45 60.75 L249.5 66.0 242.8 74.0 243.75 73.0 243.95 73.15 244.1 73.0 244.4 73.1 244.5 73.5 244.4 73.6 244.0 73.65 243.85 74.45 239.05 79.85 238.6 80.35 236.0 83.6 233.9 85.75 234.6 86.55 218.2 104.4 217.6 104.95 209.75 112.7 207.4 114.85 206.7 114.0 208.7 111.65 231.35 86.95 231.8 86.25 231.75 86.25 232.85 84.65 M279.3 52.9 Q280.25 52.05 280.25 53.25 280.25 54.4 267.1 71.0 L260.7 79.8 257.25 84.5 257.6 84.55 257.75 85.0 Q257.75 86.85 245.4 99.4 L245.65 99.7 212.1 136.4 212.4 134.2 220.85 126.1 217.35 126.7 243.75 98.55 244.25 98.0 244.3 98.05 248.5 93.6 253.35 88.8 253.55 88.55 253.5 88.55 253.4 88.15 Q253.4 87.75 255.55 84.6 L258.55 80.2 Q263.65 72.85 266.25 69.75 L270.1 65.15 273.65 60.7 278.6 54.75 278.5 54.25 278.4 54.1 278.35 54.15 279.4 53.15 279.3 52.9 M56.25 36.8 L66.1 26.85 Q68.9 24.1 73.55 18.5 L76.75 15.2 Q79.35 12.75 81.85 11.25 81.35 13.25 79.1 15.55 L75.0 19.75 66.75 28.4 Q59.55 35.2 51.75 43.7 L51.0 44.5 50.9 44.4 52.6 42.2 Q54.95 38.95 56.5 37.35 55.7 37.7 54.5 38.6 L56.25 36.8 M94.95 -7.2 L94.7 -7.45 95.25 -8.2 94.95 -7.2 M61.45 36.2 L56.85 40.65 57.2 40.25 61.45 36.2 M190.5 74.2 L190.65 74.0 190.5 74.2 M193.7 73.2 L193.95 72.65 194.1 72.75 193.7 73.2 M156.4 113.75 Q154.4 112.2 158.65 112.75 L163.55 112.9 Q181.25 111.9 198.8 112.3 L201.6 112.55 Q209.5 119.05 209.35 129.8 209.3 131.7 210.4 133.4 L208.9 139.35 203.95 142.15 166.4 144.5 172.4 137.0 174.2 135.25 193.8 135.55 Q198.7 132.15 199.3 126.15 L200.6 114.75 198.8 114.7 194.75 113.55 184.8 113.45 164.7 113.75 156.4 113.75 M164.85 144.5 L159.6 144.55 158.05 143.2 Q156.9 140.4 156.45 141.05 L156.35 141.45 154.15 135.95 156.3 135.9 157.4 137.75 158.0 135.85 158.45 135.85 158.75 136.4 Q160.0 137.8 160.3 135.8 L166.8 135.6 Q169.35 128.9 176.05 127.35 179.45 126.55 177.95 128.05 L173.4 131.5 170.1 135.45 169.95 138.1 164.85 144.5 M124.2 41.1 Q122.4 43.8 122.4 44.5 122.4 44.9 122.55 45.1 L122.8 45.3 Q120.55 46.5 117.55 50.4 L112.0 57.25 105.75 63.05 102.85 66.3 100.65 66.65 103.8 63.05 103.9 62.9 124.2 41.1 M124.15 43.7 L123.05 45.5 122.9 45.3 124.15 43.7 M149.35 34.75 L149.95 34.15 148.85 35.65 149.35 34.75 M99.5 18.55 L99.9 18.2 99.35 18.85 99.5 18.55 M90.8 71.95 L84.0 70.5 59.65 69.25 59.15 68.95 60.4 68.3 90.1 69.4 Q93.4 69.4 96.55 70.95 102.25 73.9 100.6 80.6 L100.35 81.8 100.75 84.5 100.9 89.2 Q100.9 90.3 99.9 92.75 L99.55 93.55 98.1 95.5 97.75 95.65 97.45 96.4 82.25 98.0 52.9 97.45 52.8 97.35 Q51.5 97.25 50.85 96.4 L50.4 95.45 50.4 95.15 50.45 95.0 50.15 94.7 50.0 90.6 50.35 90.35 73.1 88.8 81.85 74.8 Q82.8 73.4 83.5 74.3 L83.6 74.8 83.6 75.5 Q77.6 80.5 76.9 88.0 L76.95 88.2 78.3 86.95 Q84.75 85.1 90.05 88.8 L90.2 88.9 Q94.3 85.7 93.2 79.9 92.8 77.85 92.95 75.7 L93.2 72.75 91.6 72.2 90.8 71.95 M141.7 96.8 L142.0 95.4 143.4 93.55 145.0 95.2 Q145.9 102.8 149.75 109.3 150.9 111.15 152.8 112.05 L153.2 112.55 152.95 118.0 152.2 118.75 148.2 119.55 129.6 119.45 108.0 113.75 105.9 112.05 107.15 109.2 Q108.3 109.9 109.45 110.2 L125.3 112.8 Q133.25 113.55 140.2 110.1 L141.1 109.2 Q143.65 103.45 141.7 96.8 M141.65 92.45 Q127.4 94.65 113.15 92.95 L109.9 92.7 106.9 92.5 Q124.45 92.1 141.95 92.45 L141.65 92.45 M103.2 108.4 L104.85 108.2 104.95 111.3 104.55 111.0 103.2 108.4 M151.65 90.0 L151.35 90.25 151.3 90.45 151.65 90.0 M146.5 91.0 L146.45 91.1 146.55 91.2 146.5 91.0 M143.15 92.45 L143.2 92.45 Q143.65 92.45 144.15 93.2 L143.15 92.45 M51.55 45.0 L51.6 45.55 49.95 46.65 51.55 45.0 M50.4 43.55 L50.35 43.15 50.9 42.4 50.8 42.95 50.55 43.9 50.4 43.55 M73.0 51.55 L73.05 51.55 73.15 52.0 Q73.15 52.45 71.35 55.4 L68.4 59.6 65.35 63.3 62.2 66.4 61.5 66.85 Q60.85 66.7 60.85 66.05 L67.85 58.5 70.0 54.8 Q71.35 52.3 72.85 51.4 L73.0 51.55 M7.65 49.35 L7.75 49.25 8.1 49.3 8.25 49.75 7.85 52.9 7.4 57.15 7.1 59.75 Q6.75 62.1 6.75 63.0 L7.0 68.55 6.65 71.3 6.25 73.75 Q6.25 74.4 7.2 78.2 L7.4 78.85 Q24.55 77.6 40.3 71.05 42.8 70.0 45.15 68.45 49.7 65.35 55.0 63.6 L54.05 56.7 Q56.85 62.85 55.4 69.35 L54.75 71.75 Q53.05 74.95 50.7 77.5 47.45 81.0 43.0 83.4 L40.45 84.65 7.5 87.0 6.9 83.75 Q5.9 82.35 5.3 77.55 L4.75 70.8 5.15 59.9 Q5.15 59.25 5.8 57.3 L5.9 57.1 6.35 54.95 6.35 54.5 6.3 51.6 Q6.4 50.5 7.1 49.8 7.3 49.5 7.65 49.35 M124.0 106.45 L124.65 101.8 130.3 101.9 Q130.3 103.8 128.45 105.15 126.6 106.45 124.0 106.45 M135.9 114.25 Q134.05 115.1 135.8 114.35 L135.9 114.25" fill="#696750" fill-rule="evenodd" stroke="none"/>
      <path d="M9.6 35.85 L40.6 3.6 40.85 3.9 41.05 4.15 23.85 22.35 Q17.6 28.3 12.2 34.85 10.05 37.5 9.6 35.85 M255.55 84.6 Q253.4 87.75 253.4 88.15 L253.5 88.55 253.55 88.55 253.35 88.8 248.5 93.6 244.3 98.05 244.25 98.0 243.75 98.55 235.35 104.6 243.1 96.55 241.5 94.55 239.85 95.5 239.7 95.0 241.8 93.25 243.1 92.5 Q246.9 90.35 248.0 89.1 249.0 87.9 251.85 86.35 253.75 85.3 255.55 84.6" fill="#807657" fill-rule="evenodd" stroke="none"/>
      <path d="M68.85 -30.0 L68.85 -29.45 68.75 -29.1 Q68.7 -29.6 68.25 -29.3 67.95 -29.1 67.4 -26.95 L67.4 -26.85 62.0 -19.65 56.3 -12.45 54.55 -10.3 53.25 -8.75 Q48.85 -3.5 46.0 -0.6 L45.45 -0.7 44.9 0.35 44.1 1.9 45.75 2.75 18.2 32.35 Q20.3 32.75 22.25 32.35 30.85 30.7 37.35 24.6 41.8 20.45 46.8 22.35 L37.25 29.4 39.55 30.25 39.0 32.3 43.6 35.75 54.0 35.8 54.3 35.9 54.25 36.15 Q54.25 36.75 54.4 36.75 L55.25 36.9 55.95 36.5 56.1 36.75 56.25 36.8 54.5 38.6 53.75 39.15 53.2 39.65 53.05 39.6 53.05 39.65 52.85 39.85 52.9 39.85 Q51.75 40.85 51.25 41.6 L51.1 41.9 50.7 41.8 50.25 42.15 49.75 41.85 49.85 41.6 40.95 40.95 Q37.5 41.5 36.0 38.95 L33.2 38.75 15.55 39.25 14.7 38.2 14.75 37.55 Q14.75 35.95 13.7 35.8 L23.85 22.35 41.05 4.15 40.85 3.9 40.6 3.6 40.35 3.15 40.75 3.15 41.35 3.0 40.75 2.75 40.3 2.7 40.5 2.0 Q41.1 0.7 43.05 -1.55 L45.35 -3.95 45.55 -4.2 46.75 -5.4 Q52.5 -10.95 54.35 -13.4 L55.65 -15.0 Q57.75 -18.55 59.1 -20.0 L63.85 -25.6 Q66.5 -28.65 68.75 -30.25 L68.85 -30.0 M117.0 -21.5 L117.1 -20.7 Q117.1 -15.95 117.4 -15.25 L118.75 -15.25 Q118.9 -15.4 119.9 -15.75 L121.25 -16.15 121.9 -15.5 120.85 -14.5 117.55 -11.3 Q113.15 -6.9 113.15 -5.9 113.15 -4.95 107.25 4.55 106.25 5.45 105.2 7.0 L102.9 10.85 102.4 11.75 95.2 17.95 94.25 18.7 94.25 18.8 93.55 20.0 92.75 21.0 92.55 21.3 91.95 21.9 91.0 22.75 90.5 22.4 90.55 22.3 88.4 22.85 82.85 27.0 Q75.1 36.85 66.9 46.15 65.2 48.0 62.6 48.0 L52.2 47.8 52.1 45.7 56.85 40.65 61.45 36.2 63.75 34.3 64.55 33.7 65.8 32.95 65.7 35.5 65.85 35.55 65.95 35.55 Q72.6 33.6 77.7 28.0 L84.85 20.35 Q87.05 19.25 87.75 19.25 88.1 19.25 88.5 19.9 L89.15 20.5 92.55 17.45 92.75 17.5 96.35 13.95 Q100.35 10.1 102.25 8.75 L102.35 8.7 103.15 8.25 Q105.2 3.7 113.15 -9.4 114.05 -11.0 114.4 -14.1 114.8 -17.9 115.25 -19.3 116.6 -23.25 117.0 -21.5 M163.75 14.8 Q165.55 13.25 168.0 11.25 L168.3 11.35 168.4 11.75 167.8 13.0 167.75 13.1 Q167.1 13.5 166.45 14.05 L166.25 14.0 Q164.25 16.0 161.2 19.9 L160.5 20.85 157.9 23.75 153.8 28.85 150.25 33.75 149.95 34.15 149.35 34.75 147.1 36.6 145.5 39.0 Q139.55 48.55 131.0 55.0 L124.6 61.4 121.75 63.65 121.75 63.2 Q121.75 61.85 122.85 60.0 L123.9 58.0 123.8 57.55 123.6 57.4 123.15 57.75 124.45 56.25 104.4 73.15 103.4 73.4 Q103.45 68.8 104.4 67.05 105.6 64.85 111.5 59.85 115.0 56.85 118.2 52.7 L123.15 45.65 123.05 45.5 124.15 43.7 Q127.8 37.95 134.9 29.4 135.95 28.15 140.75 19.95 144.0 14.35 146.0 14.4 L146.1 14.4 146.25 14.75 Q142.4 21.25 133.8 33.2 L127.2 42.1 128.15 42.8 124.85 47.75 116.85 57.8 118.6 57.95 130.65 46.45 Q130.7 45.85 131.2 45.05 132.4 42.9 136.25 39.0 L142.75 32.85 149.5 26.35 152.15 23.3 152.35 23.2 152.4 23.25 153.35 23.4 Q153.8 23.4 155.25 22.3 L155.25 22.35 155.25 22.45 155.8 21.9 163.75 14.8 M166.85 15.7 L166.9 15.9 Q166.9 16.6 163.45 22.35 L159.25 29.1 Q158.45 30.2 155.2 35.8 L153.9 37.85 152.7 39.5 151.85 42.6 147.05 48.8 Q144.95 51.6 143.75 53.7 L143.6 53.95 142.75 55.5 142.4 55.5 135.15 65.0 134.65 65.5 132.75 68.1 132.05 69.0 129.15 71.4 128.8 76.15 132.4 76.85 Q132.45 77.55 132.85 78.0 132.3 78.2 131.85 79.0 131.3 80.05 131.3 81.55 L131.1 81.55 131.35 81.65 131.85 83.0 122.8 81.75 118.0 83.75 123.25 70.35 140.8 51.85 140.45 51.6 Q142.65 49.3 144.45 46.35 L144.65 46.05 145.9 44.35 153.0 34.1 153.15 33.9 Q153.6 32.55 154.95 30.65 L158.5 26.15 160.0 23.75 Q160.95 22.2 161.75 22.0 L162.4 21.6 162.95 20.4 163.5 19.35 166.5 15.25 166.75 15.15 166.85 15.7 M204.25 21.35 Q206.9 15.85 210.1 16.4 L210.35 16.75 208.15 19.05 208.15 19.0 208.1 18.6 208.0 18.5 Q206.6 17.75 206.05 21.55 L205.9 22.7 205.0 25.0 Q203.9 28.55 201.0 33.1 198.3 37.3 195.05 41.35 L192.05 45.05 188.35 49.4 Q185.55 52.7 182.3 57.75 L177.1 65.75 171.0 73.7 165.55 80.9 166.2 80.95 182.2 67.85 Q182.4 68.1 182.75 68.15 L186.5 62.0 188.8 58.95 190.8 56.0 Q193.1 53.6 195.1 53.6 L195.95 53.7 Q197.75 52.4 203.0 49.6 L205.4 47.15 207.0 44.35 Q208.2 41.95 211.15 39.25 L214.45 36.75 216.2 35.75 217.0 35.4 217.15 35.55 217.25 36.0 216.65 36.5 213.85 38.95 Q210.4 42.15 208.05 45.25 L207.4 46.15 207.35 46.25 Q206.0 48.95 204.3 51.25 201.8 54.8 199.75 55.6 L199.4 56.0 199.0 55.85 Q195.25 56.2 193.75 57.55 192.45 59.65 191.35 60.65 190.75 61.2 189.0 64.2 L187.4 67.25 Q187.4 67.6 187.9 68.35 L188.4 69.3 188.35 69.7 187.95 70.05 186.9 70.6 185.0 70.6 183.5 70.0 182.75 70.1 182.75 70.65 183.25 71.0 Q182.4 71.05 182.35 71.55 L182.35 71.75 159.55 87.55 158.8 89.1 158.2 89.75 155.3 90.5 156.15 89.35 Q156.8 88.15 158.95 86.1 L162.25 83.1 164.35 80.85 164.55 80.85 165.0 80.05 169.45 73.8 171.7 70.8 176.15 64.65 181.1 56.65 Q184.2 51.85 187.25 48.35 L187.75 47.75 195.05 38.6 199.4 32.25 200.25 30.8 200.75 29.8 204.0 21.85 204.25 21.35 M200.4 61.25 L196.75 74.2 196.65 74.5 Q196.75 74.75 196.1 74.75 186.65 83.7 179.55 94.3 179.15 94.8 179.25 95.65 L199.2 93.35 199.9 93.85 Q202.3 95.15 205.05 96.15 205.85 96.35 206.25 96.65 L205.9 96.55 205.75 98.85 211.2 98.95 213.9 102.35 232.4 84.2 232.85 84.65 231.75 86.25 231.8 86.25 231.35 86.95 208.7 111.65 201.95 103.55 196.35 101.7 196.35 100.05 Q194.15 97.4 190.35 98.0 187.55 97.75 186.45 100.15 L170.6 101.1 172.85 95.05 182.55 84.9 183.1 84.75 183.3 84.1 185.35 81.95 185.25 81.85 189.7 75.35 190.5 74.2 190.65 74.0 191.05 73.35 191.25 73.0 Q193.55 69.6 200.35 61.25 L200.4 61.25 M265.75 45.9 Q265.65 48.2 262.8 54.5 L259.65 60.85 247.75 75.4 235.4 90.1 Q228.05 98.5 221.6 104.65 L221.5 104.75 221.25 104.7 220.85 105.2 218.2 104.4 234.6 86.55 233.9 85.75 236.0 83.6 238.6 80.35 239.05 79.85 243.85 74.45 244.0 73.65 244.4 73.6 244.5 73.5 244.4 73.1 244.1 73.0 243.95 73.15 243.75 73.0 242.8 74.0 249.5 66.0 253.45 60.75 Q255.55 57.8 257.6 55.9 L262.4 50.5 Q263.75 45.25 265.5 45.1 L265.65 45.25 265.75 45.75 265.75 45.9 M278.35 54.15 L278.4 54.1 278.5 54.25 278.6 54.75 273.65 60.7 270.1 65.15 266.25 69.75 Q263.65 72.85 258.55 80.2 L255.55 84.6 Q253.75 85.3 251.85 86.35 249.0 87.9 248.0 89.1 246.9 90.35 243.1 92.5 L241.8 93.25 239.7 95.0 236.9 97.25 229.0 104.6 228.6 105.0 223.75 109.5 223.2 109.35 223.0 109.1 Q227.45 104.1 237.2 95.65 247.95 86.35 252.5 81.65 L258.5 74.8 Q262.6 69.8 264.85 67.5 L272.05 59.55 Q276.25 54.95 278.35 54.15 M193.7 73.2 L194.1 72.75 193.95 72.65 193.7 73.2 M157.15 82.5 L155.3 83.85 151.35 85.75 Q146.9 87.35 145.6 88.05 L133.65 83.45 Q143.95 84.2 153.6 80.15 154.35 79.8 155.2 79.75 L153.65 80.25 153.75 82.6 157.25 80.75 157.15 82.5 M209.75 112.7 L217.6 104.95 218.2 109.15 Q214.65 111.0 211.8 113.5 210.45 114.7 209.75 112.7 M224.85 99.8 L228.3 94.6 224.3 100.35 224.85 99.8 M198.7 117.45 Q199.95 117.8 200.1 118.15 200.25 118.45 199.8 118.75 L198.5 119.05 197.6 119.05 196.9 119.0 Q183.8 117.85 170.55 120.1 L164.2 120.75 160.3 135.35 158.55 135.65 158.5 135.4 Q157.3 126.7 161.9 119.4 L162.4 118.9 162.8 118.55 166.45 118.0 Q178.95 115.3 191.6 116.65 L196.55 116.9 198.7 117.45 M103.25 61.75 L102.9 62.3 102.95 62.7 102.9 62.8 102.0 63.0 Q101.6 63.0 99.55 60.8 97.3 58.45 96.25 58.0 L95.6 57.6 95.55 57.55 95.25 57.1 Q94.9 56.6 93.9 56.3 90.75 55.4 75.0 54.55 L74.1 54.25 Q73.8 54.0 73.8 53.15 73.8 51.2 74.45 50.25 L75.6 48.75 77.25 47.15 Q78.15 47.8 78.55 50.35 78.55 51.05 78.2 51.25 L77.55 51.75 77.5 52.05 Q89.2 50.75 97.15 55.0 103.25 58.25 103.25 61.1 L103.25 61.75 M87.5 35.95 L119.6 36.4 120.9 37.4 109.7 39.45 108.15 39.65 108.1 39.4 107.95 38.8 Q101.7 38.0 94.75 38.75 L84.75 38.6 87.5 35.95 M82.65 40.65 L82.35 41.4 81.65 41.7 82.65 40.65 M90.8 71.95 L90.6 73.3 64.0 75.15 54.45 85.0 53.2 85.75 51.3 85.45 52.4 84.1 52.8 83.75 56.35 80.85 Q60.7 77.25 62.8 72.15 L84.0 70.5 90.8 71.95 M107.6 99.25 L108.65 97.55 109.9 97.15 Q115.0 95.0 121.0 95.05 L128.45 94.45 Q134.15 93.3 139.45 95.8 L136.95 97.1 123.55 98.55 110.9 99.4 109.9 99.4 107.15 109.2 105.9 112.05 105.55 112.1 105.05 111.6 104.95 111.3 104.85 108.2 104.9 107.4 107.6 99.25 M151.65 90.0 L151.3 90.45 151.35 90.25 151.65 90.0 M51.2 39.55 L50.75 39.55 51.15 39.6 51.2 39.55 M10.0 73.4 L10.75 56.75 11.05 56.15 Q11.05 54.75 12.6 53.75 14.15 52.75 16.3 52.75 L19.6 52.35 21.1 52.15 40.75 51.35 42.8 51.75 44.25 52.85 45.2 53.75 15.4 55.15 Q11.2 59.3 11.65 65.3 12.1 71.35 11.95 76.7 L11.6 76.8 Q9.95 76.35 10.0 73.4" fill="#818d65" fill-rule="evenodd" stroke="none"/>
      <path d="M105.75 -23.45 L106.75 -24.0 106.9 -23.35 106.0 -22.4 105.85 -22.15 105.6 -21.8 103.35 -18.7 102.0 -16.5 102.15 -16.3 99.65 -13.75 Q97.95 -12.1 95.8 -9.0 L95.25 -8.2 94.7 -7.45 94.95 -7.2 95.0 -6.7 94.5 -5.45 89.25 2.95 Q83.75 11.2 81.65 13.65 L81.3 14.1 76.9 18.85 Q73.7 22.25 72.35 24.0 L68.7 29.55 Q67.05 31.9 65.8 32.95 L64.55 33.7 63.75 34.3 61.45 36.2 57.2 40.25 56.85 40.65 52.1 45.7 52.2 47.8 62.6 48.0 Q65.2 48.0 66.9 46.15 75.1 36.85 82.85 27.0 L88.4 22.85 90.55 22.3 90.5 22.4 91.0 22.75 91.95 21.9 92.05 21.95 92.55 21.3 92.75 21.0 93.55 20.0 95.2 17.95 102.4 11.75 102.9 10.85 105.2 7.0 Q106.25 5.45 107.25 4.55 113.15 -4.95 113.15 -5.9 113.15 -6.9 117.55 -11.3 L120.85 -14.5 120.95 -14.25 119.25 -12.0 116.5 -7.65 110.75 1.1 107.15 6.95 104.75 11.6 Q103.5 13.95 101.95 15.9 L102.0 16.25 Q102.0 16.85 99.05 20.9 L96.25 24.4 92.85 27.75 89.9 30.2 58.85 62.9 Q58.0 60.0 58.15 57.05 58.25 55.4 57.65 53.8 57.1 52.2 55.8 51.05 53.6 49.05 50.7 47.9 49.95 47.5 49.55 46.9 L49.95 46.65 51.6 45.55 51.55 45.0 51.55 44.75 51.75 43.7 Q59.55 35.2 66.75 28.4 L75.0 19.75 79.1 15.55 Q81.35 13.25 81.85 11.25 79.35 12.75 76.75 15.2 L77.5 14.35 80.8 9.55 83.75 6.1 Q85.6 2.85 86.75 1.5 L87.25 0.9 Q87.3 0.2 88.3 -1.45 89.85 -3.05 91.4 -5.35 L94.65 -10.3 95.9 -11.9 96.5 -12.65 100.8 -17.0 104.95 -21.8 105.9 -23.25 105.75 -23.45 M117.4 -5.95 L113.05 1.4 Q106.45 12.3 103.55 16.1 L103.0 16.75 106.65 10.95 111.4 2.6 117.4 -5.95 M143.75 13.5 L146.75 10.0 Q148.8 7.85 153.45 1.45 157.25 -3.8 158.75 -4.65 L158.9 -4.1 158.8 -3.65 158.5 -4.15 Q157.6 -3.6 157.6 -2.25 L157.55 -1.4 Q155.2 2.1 148.8 9.75 L148.8 9.8 147.85 10.85 147.6 11.2 147.15 12.3 146.95 13.05 146.0 14.4 Q144.0 14.35 140.75 19.95 135.95 28.15 134.9 29.4 127.8 37.95 124.15 43.7 L122.9 45.3 123.05 45.5 123.15 45.65 118.2 52.7 Q115.0 56.85 111.5 59.85 105.6 64.85 104.4 67.05 103.45 68.8 103.4 73.4 L104.4 73.15 124.45 56.25 123.15 57.75 123.6 57.4 123.8 57.55 123.9 58.0 122.85 60.0 Q121.75 61.85 121.75 63.2 L121.75 63.65 124.6 61.4 131.0 55.0 Q139.55 48.55 145.5 39.0 L147.1 36.6 149.35 34.75 148.85 35.65 149.95 34.15 150.25 33.75 153.8 28.85 157.9 23.75 160.5 20.85 Q158.0 24.0 158.0 24.5 L158.0 24.65 Q155.05 28.65 152.55 32.55 L150.75 34.65 Q149.6 36.05 143.95 44.5 L140.55 49.1 140.5 49.25 140.5 49.4 140.45 49.5 139.75 50.25 137.25 52.95 137.5 53.4 137.25 53.65 136.8 53.25 137.0 53.0 135.75 54.15 135.45 54.0 117.2 73.05 102.45 87.65 102.6 81.55 101.1 70.45 101.25 70.4 101.15 69.95 Q101.15 68.55 102.85 66.3 L105.75 63.05 112.0 57.25 117.55 50.4 Q120.55 46.5 122.8 45.3 L122.55 45.1 Q122.4 44.9 122.4 44.5 122.4 43.8 124.2 41.1 L124.75 40.25 125.75 38.85 126.1 38.4 Q128.05 36.2 130.5 32.3 L130.95 31.6 134.65 26.25 136.45 23.7 136.55 23.6 136.8 23.1 139.5 19.7 Q143.75 14.3 143.75 13.75 L143.75 13.5 M197.7 31.65 L200.65 27.4 199.35 29.5 197.7 31.65 M216.65 36.5 L217.25 36.4 217.35 36.55 217.4 36.8 217.4 37.0 Q217.4 38.25 208.1 49.5 L200.35 58.75 200.25 58.7 200.1 58.75 Q199.5 58.8 198.85 59.8 L197.9 61.25 196.4 62.9 Q195.65 63.8 195.45 64.35 L194.25 65.6 194.15 65.55 191.1 70.7 190.9 71.0 190.7 71.35 188.75 73.9 185.8 77.9 163.9 101.0 158.4 107.25 Q158.4 108.15 157.15 108.8 L154.1 109.45 149.3 94.35 149.65 94.2 Q149.8 93.6 150.7 92.75 151.75 91.8 151.75 91.05 151.75 91.0 156.3 87.1 161.2 82.75 163.0 80.5 L166.8 75.3 171.35 70.1 171.5 70.0 171.75 70.05 171.85 70.4 171.7 70.8 169.45 73.8 165.0 80.05 164.35 80.85 162.25 83.1 158.95 86.1 Q156.8 88.15 156.15 89.35 L155.3 90.5 158.2 89.75 158.8 89.1 159.55 87.55 182.35 71.75 182.35 71.55 Q182.4 71.05 183.25 71.0 L182.75 70.65 182.75 70.1 183.5 70.0 185.0 70.6 186.9 70.6 187.95 70.05 188.35 69.7 188.4 69.3 187.9 68.35 Q187.4 67.6 187.4 67.25 L189.0 64.2 Q190.75 61.2 191.35 60.65 192.45 59.65 193.75 57.55 195.25 56.2 199.0 55.85 L199.4 56.0 199.75 55.6 Q201.8 54.8 204.3 51.25 206.0 48.95 207.35 46.25 L207.4 46.15 208.05 45.25 Q210.4 42.15 213.85 38.95 L216.65 36.5 M151.85 123.65 L148.45 121.75 152.05 121.75 151.85 123.65 M100.2 98.75 L98.7 98.7 101.1 94.9 100.2 98.75 M48.0 89.4 L46.15 86.75 48.0 85.4 48.0 89.4 M3.55 86.6 L1.6 85.95 Q1.6 79.95 2.2 74.8 L3.2 74.75 3.55 86.6 M3.5 46.2 L3.5 46.15 4.7 46.2 3.5 46.2 M43.4 45.75 L3.25 43.4 3.25 41.7 9.6 35.85 Q10.05 37.5 12.2 34.85 17.6 28.3 23.85 22.35 L13.7 35.8 Q14.75 35.95 14.75 37.55 L14.7 38.2 15.55 39.25 33.2 38.75 36.0 38.95 Q37.5 41.5 40.95 40.95 L49.85 41.6 49.75 41.85 50.25 42.15 50.7 41.8 51.1 41.9 50.9 42.4 50.35 43.15 50.4 43.55 48.85 44.65 Q46.6 45.75 43.4 45.75 M243.75 98.55 L217.35 126.7 211.45 132.05 210.75 129.75 Q211.5 122.65 208.4 116.45 L207.4 114.85 209.75 112.7 Q210.45 114.7 211.8 113.5 214.65 111.0 218.2 109.15 L217.6 104.95 218.2 104.4 220.85 105.2 221.1 105.4 222.75 109.75 223.8 109.75 228.6 105.0 229.0 104.6 236.9 97.25 239.7 95.0 239.85 95.5 241.5 94.55 243.1 96.55 235.35 104.6 243.75 98.55 M164.0 104.15 L172.85 95.05 170.6 101.1 186.45 100.15 Q187.55 97.75 190.35 98.0 194.15 97.4 196.35 100.05 L196.35 101.7 201.95 103.55 208.7 111.65 206.7 114.0 203.0 110.55 192.15 109.75 159.15 110.15 164.0 104.15 M189.7 75.35 L188.4 77.05 185.25 81.0 186.2 79.7 191.05 73.35 190.65 74.0 190.5 74.2 189.7 75.35 M112.85 81.2 L123.25 70.35 118.0 83.75 122.8 81.75 131.85 83.0 133.65 83.45 145.6 88.05 Q146.9 87.35 151.35 85.75 L155.3 83.85 157.15 82.5 157.25 82.35 160.75 78.3 161.95 77.2 163.2 75.7 164.55 74.1 179.55 56.6 181.6 54.1 182.25 53.3 176.7 61.9 175.4 63.45 Q175.0 63.3 173.05 65.6 170.95 68.1 170.5 69.1 L169.25 70.55 164.8 75.6 164.85 75.6 164.55 75.9 153.25 88.75 153.1 88.75 Q153.0 89.15 153.0 88.5 153.0 88.1 154.9 85.65 L152.05 87.0 147.15 88.65 Q145.45 89.55 145.15 89.85 L144.2 88.95 125.0 89.45 106.0 89.2 112.85 81.2 M200.75 29.8 L200.25 30.8 195.05 38.6 187.75 47.75 189.75 44.75 194.15 38.2 Q196.7 34.5 199.15 31.85 L200.75 29.8 M208.9 139.35 L208.3 141.65 203.95 142.15 208.9 139.35 M166.4 144.5 L164.85 144.5 169.95 138.1 172.4 137.0 166.4 144.5 M158.05 143.2 L156.35 141.45 156.45 141.05 Q156.9 140.4 158.05 143.2 M154.15 135.95 L156.1 118.2 156.3 135.9 154.15 135.95 M156.4 115.15 L156.4 113.75 164.7 113.75 156.4 115.15 M184.8 113.45 L194.75 113.55 189.6 115.55 183.2 115.75 187.6 113.55 184.8 113.45 M198.8 114.7 L200.6 114.75 199.3 126.15 Q198.7 132.15 193.8 135.55 L174.2 135.25 181.2 127.95 177.95 128.05 Q179.45 126.55 176.05 127.35 169.35 128.9 166.8 135.6 L160.3 135.8 160.3 135.35 164.2 120.75 170.55 120.1 197.6 119.05 198.5 119.05 199.8 118.75 Q200.25 118.45 200.1 118.15 199.95 117.8 198.7 117.45 L198.8 114.7 M162.4 118.9 L161.9 119.4 Q161.95 118.85 162.2 118.6 L162.4 118.9 M155.25 22.35 L155.5 22.15 155.65 22.0 155.8 21.9 155.25 22.45 155.25 22.35 M102.95 62.7 L103.05 62.85 103.5 63.0 103.65 62.85 103.8 63.05 100.65 66.65 99.3 68.2 93.95 67.95 89.25 66.95 83.35 66.5 62.4 66.4 62.2 66.4 65.35 63.3 68.4 59.6 71.35 55.4 Q73.15 52.45 73.15 52.0 L73.05 51.55 73.0 51.55 74.5 49.75 75.6 48.75 74.45 50.25 Q73.8 51.2 73.8 53.15 73.8 54.0 74.1 54.25 L75.0 54.55 Q90.75 55.4 93.9 56.3 94.9 56.6 95.25 57.1 L95.55 57.55 95.55 57.6 95.6 57.6 96.25 58.0 Q97.3 58.45 99.55 60.8 101.6 63.0 102.0 63.0 L102.9 62.8 102.95 62.7 M99.5 18.55 L99.35 18.85 99.9 18.2 99.5 18.55 M109.7 39.45 L109.15 39.95 Q104.4 41.65 99.05 41.15 L83.25 40.1 84.75 38.6 94.75 38.75 Q101.7 38.0 107.95 38.8 L108.1 39.4 108.15 39.65 109.7 39.45 M52.8 83.75 L52.4 84.1 54.4 81.95 52.8 83.75 M54.45 85.0 L64.0 75.15 81.85 74.8 73.1 88.8 50.35 90.35 54.45 85.0 M83.6 74.8 L90.15 75.3 91.6 72.2 93.2 72.75 92.95 75.7 Q92.8 77.85 93.2 79.9 94.3 85.7 90.2 88.9 L90.05 88.8 Q84.75 85.1 78.3 86.95 83.95 82.2 83.95 75.35 83.95 75.15 83.6 75.5 L83.6 74.8 M59.15 68.95 L59.65 69.25 58.0 69.65 58.95 69.05 59.15 68.95 M97.45 96.4 L97.75 95.65 98.1 95.5 97.45 96.4 M50.4 95.15 L50.15 94.7 50.45 95.0 50.4 95.15 M107.6 99.25 L107.6 97.55 108.65 97.55 107.6 99.25 M136.95 97.1 L141.7 96.8 Q143.65 103.45 141.1 109.2 L140.2 110.1 Q133.25 113.55 125.3 112.8 L109.45 110.2 Q108.3 109.9 107.15 109.2 L109.9 99.4 110.9 99.4 123.55 98.55 136.95 97.1 M142.0 95.4 L141.65 92.45 141.95 92.45 143.0 92.35 143.15 92.45 144.15 93.2 145.0 95.2 143.4 93.55 142.0 95.4 M109.9 92.7 Q102.6 95.1 103.6 103.1 103.9 105.25 104.9 107.4 L104.85 108.2 103.2 108.4 Q100.55 101.6 103.6 95.15 L104.05 94.15 104.4 94.55 105.2 94.05 106.9 92.5 109.9 92.7 M121.75 63.65 L121.75 63.7 121.75 63.65 M146.5 91.0 L146.55 91.2 146.45 91.1 146.5 91.0 M152.95 118.0 L152.0 118.95 148.2 119.55 152.2 118.75 152.95 118.0 M108.0 113.75 L105.55 112.1 105.9 112.05 108.0 113.75 M105.05 111.6 L104.55 111.0 104.95 111.3 105.05 111.6 M53.05 39.65 L53.05 39.6 53.2 39.65 53.15 39.7 53.05 39.65 M8.0 48.55 L7.65 49.35 Q7.3 49.5 7.1 49.8 L6.55 49.25 7.75 48.55 8.0 48.55 M7.2 78.2 L7.9 69.8 9.8 77.35 10.0 73.4 Q9.95 76.35 11.6 76.8 L11.95 76.7 Q12.1 71.35 11.65 65.3 11.2 59.3 15.4 55.15 L45.2 53.75 44.25 52.85 53.5 60.65 52.8 54.45 54.05 56.7 55.0 63.6 Q49.7 65.35 45.15 68.45 42.8 70.0 40.3 71.05 24.55 77.6 7.4 78.85 L7.2 78.2 M38.95 49.25 L35.8 49.65 30.0 49.35 39.2 48.55 Q40.85 48.75 38.95 49.25 M10.8 51.15 L17.95 51.65 10.15 52.95 10.8 51.15 M50.7 77.5 L45.8 84.35 40.45 84.65 43.0 83.4 Q47.45 81.0 50.7 77.5 M130.3 101.9 L124.65 101.8 124.0 106.45 Q122.15 107.65 124.9 108.1 L125.95 108.2 128.5 108.35 133.2 102.35 130.3 101.9 M135.9 114.25 L135.8 114.35 Q134.05 115.1 135.9 114.25 M158.45 135.85 L158.0 135.85 158.1 135.45 Q158.3 134.1 158.45 135.85" fill="#7d744f" fill-rule="evenodd" stroke="none"/>
      <path d="M68.75 -29.1 L68.75 -29.0 68.4 -26.55 68.0 -24.35 Q68.0 -23.05 68.9 -22.3 70.6 -20.9 75.5 -20.5 L86.0 -19.25 90.1 -18.8 Q97.7 -18.8 101.45 -21.1 L99.0 -18.65 94.25 -12.5 Q87.75 -4.3 86.25 -1.65 83.35 1.7 79.75 6.65 71.0 18.75 70.15 18.75 67.05 18.75 67.05 22.6 L67.1 23.05 64.45 25.5 Q62.05 27.8 60.0 28.9 59.05 29.4 56.65 32.45 54.6 35.05 54.3 35.9 L54.0 35.8 43.6 35.75 39.0 32.3 39.55 30.25 37.25 29.4 46.8 22.35 Q41.8 20.45 37.35 24.6 30.85 30.7 22.25 32.35 20.3 32.75 18.2 32.35 L45.75 2.75 44.1 1.9 44.9 0.35 45.45 -0.7 46.0 -0.6 Q48.85 -3.5 53.25 -8.75 L54.55 -10.3 56.3 -12.45 62.0 -19.65 67.4 -26.85 67.4 -26.95 Q67.95 -29.1 68.25 -29.3 68.7 -29.6 68.75 -29.1 M102.45 -21.9 L103.65 -23.0 Q104.5 -23.75 105.1 -23.75 L105.6 -23.65 105.75 -23.45 105.9 -23.25 104.95 -21.8 105.35 -22.7 105.25 -23.5 Q103.85 -22.95 102.45 -21.9 M106.9 -23.35 Q107.55 -23.65 107.7 -22.15 L107.65 -19.35 107.65 -18.9 106.15 -17.15 104.5 -15.55 Q104.25 -15.55 104.1 -15.7 L103.2 -14.55 100.25 -10.75 Q96.95 -6.95 95.55 -3.7 L95.35 -3.25 Q94.45 -0.9 94.3 2.25 L93.7 3.0 Q93.3 3.75 93.3 4.5 93.25 5.05 92.45 6.0 L91.0 7.8 89.35 10.75 Q87.2 10.75 82.95 13.15 L81.3 14.1 81.65 13.65 Q83.75 11.2 89.25 2.95 L94.5 -5.45 95.0 -6.7 94.95 -7.2 95.25 -8.2 95.8 -9.0 Q97.95 -12.1 99.65 -13.75 L102.15 -16.3 102.0 -16.5 103.35 -18.7 105.6 -21.8 105.85 -22.15 106.0 -22.4 106.9 -23.35 M100.35 21.9 Q100.75 21.65 101.25 21.5 L102.95 21.4 104.65 21.85 Q106.35 22.45 107.65 23.2 L112.5 23.4 Q122.0 23.4 128.25 21.25 130.3 20.5 133.5 18.6 137.75 16.15 140.4 15.05 L139.95 15.55 Q138.65 17.9 137.65 19.0 L135.05 21.95 Q133.5 23.7 132.65 25.0 L128.85 31.45 Q126.65 35.3 124.85 37.5 L119.9 43.6 116.9 46.6 113.65 49.75 107.55 56.55 103.25 61.75 103.25 61.1 Q103.25 58.25 97.15 55.0 89.2 50.75 77.5 52.05 L77.55 51.75 78.2 51.25 Q78.55 51.05 78.55 50.35 78.15 47.8 77.25 47.15 79.7 44.65 80.25 43.4 L79.6 43.85 81.65 41.7 82.35 41.4 82.65 40.65 83.25 40.1 99.05 41.15 Q104.4 41.65 109.15 39.95 L109.7 39.45 120.9 37.4 119.6 36.4 87.5 35.95 95.15 28.7 95.15 28.55 98.75 23.35 Q99.4 22.35 100.35 21.9 M153.9 37.85 L152.7 42.9 151.5 48.55 Q151.5 51.7 155.2 54.6 160.15 58.5 169.15 58.5 173.8 58.5 177.1 56.35 L180.0 53.9 180.35 53.95 180.5 54.4 180.4 54.9 180.4 55.0 179.55 56.6 164.55 74.1 163.2 75.7 148.0 76.95 148.05 78.05 140.45 78.95 136.7 78.45 136.7 78.4 136.75 77.9 Q138.75 77.85 139.05 77.45 L139.35 76.9 Q138.4 76.0 137.85 75.95 L136.0 76.0 Q136.15 74.6 136.85 72.05 L137.5 68.65 137.1 67.7 136.65 66.75 137.05 65.95 137.4 65.0 Q137.4 62.6 135.15 65.0 L142.4 55.5 142.75 55.5 143.6 53.95 143.75 53.7 Q144.95 51.6 147.05 48.8 L151.85 42.6 152.7 39.5 153.9 37.85 M196.75 74.2 L203.5 77.8 205.75 77.3 205.9 73.15 218.05 77.75 218.25 75.25 Q221.15 74.3 224.65 77.05 228.85 80.35 232.4 84.2 L213.9 102.35 211.2 98.95 205.75 98.85 205.9 96.55 206.25 96.65 Q205.85 96.35 205.05 96.15 202.3 95.15 199.9 93.85 L199.2 93.35 179.25 95.65 Q179.15 94.8 179.55 94.3 186.65 83.7 196.1 74.75 196.75 74.75 196.65 74.5 L196.75 74.2 M94.65 -10.3 L95.4 -11.5 96.5 -12.65 95.9 -11.9 94.65 -10.3 M65.95 35.55 L65.85 35.55 65.7 35.5 65.95 35.55 M221.6 104.65 L221.1 105.4 220.85 105.2 221.25 104.7 221.5 104.75 221.6 104.65 M170.5 69.1 L170.4 69.25 169.25 70.55 170.5 69.1 M224.85 99.8 L224.3 100.35 228.3 94.6 224.85 99.8 M136.8 23.1 L136.55 23.6 136.45 23.7 134.65 26.25 130.95 31.6 134.5 26.0 136.8 23.1 M125.75 38.85 L124.75 40.25 124.2 41.1 103.9 62.9 103.75 62.75 Q112.35 53.95 125.75 38.85 M121.75 63.65 L121.75 63.7 121.75 63.65 M132.75 68.1 L132.35 68.95 132.05 69.0 132.75 68.1 M131.3 81.55 L131.35 81.65 131.1 81.55 131.3 81.55 M79.4 21.7 L78.25 22.55 79.65 21.3 79.4 21.7 M52.9 39.85 L52.85 39.85 53.05 39.65 53.15 39.7 52.9 39.85 M55.6 27.85 Q55.6 26.65 54.15 25.8 52.65 24.95 50.6 24.95 48.55 24.95 47.1 25.8 45.6 26.65 45.6 27.85 45.6 29.05 47.1 29.9 48.55 30.75 50.6 30.75 52.65 30.75 54.15 29.9 55.6 29.05 55.6 27.85 M51.2 39.55 L51.15 39.6 50.75 39.55 51.2 39.55 M68.15 32.5 L70.8 30.6 68.5 32.55 68.15 32.5" fill="#a5a289" fill-rule="evenodd" stroke="none"/>
      <path d="M101.45 -21.1 L102.45 -21.9 Q103.85 -22.95 105.25 -23.5 L105.35 -22.7 104.95 -21.8 100.8 -17.0 96.5 -12.65 95.4 -11.5 94.65 -10.3 91.4 -5.35 Q89.85 -3.05 88.3 -1.45 87.3 0.2 87.25 0.9 L86.75 1.5 Q85.6 2.85 83.75 6.1 L80.8 9.55 77.5 14.35 76.75 15.2 73.55 18.5 Q68.9 24.1 66.1 26.85 L56.25 36.8 56.1 36.75 55.95 36.5 55.25 36.9 54.4 36.75 Q54.25 36.75 54.25 36.15 L54.3 35.9 Q54.6 35.05 56.65 32.45 59.05 29.4 60.0 28.9 62.05 27.8 64.45 25.5 L67.1 23.05 67.05 22.6 Q67.05 18.75 70.15 18.75 71.0 18.75 79.75 6.65 83.35 1.7 86.25 -1.65 87.75 -4.3 94.25 -12.5 L99.0 -18.65 101.45 -21.1 M107.65 -19.35 L108.9 -19.9 111.75 -21.0 113.9 -22.4 116.0 -23.5 Q116.8 -23.5 117.0 -22.6 L117.0 -21.5 Q116.6 -23.25 115.25 -19.3 114.8 -17.9 114.4 -14.1 114.05 -11.0 113.15 -9.4 105.2 3.7 103.15 8.25 L102.35 8.7 102.25 8.75 Q100.35 10.1 96.35 13.95 L92.75 17.5 92.55 17.45 89.15 20.5 88.5 19.9 Q88.1 19.25 87.75 19.25 87.05 19.25 84.85 20.35 L77.7 28.0 Q72.6 33.6 65.95 35.55 L65.7 35.5 65.8 32.95 Q67.05 31.9 68.7 29.55 L72.35 24.0 Q73.7 22.25 76.9 18.85 L81.3 14.1 82.95 13.15 Q87.2 10.75 89.35 10.75 L91.0 7.8 92.45 6.0 Q93.25 5.05 93.3 4.5 93.3 3.75 93.7 3.0 L94.3 2.25 Q94.45 -0.9 95.35 -3.25 L95.55 -3.7 Q96.95 -6.95 100.25 -10.75 L103.2 -14.55 104.1 -15.7 Q104.25 -15.55 104.5 -15.55 L106.15 -17.15 107.65 -18.9 107.65 -19.35 M140.4 15.05 Q141.7 13.6 143.6 13.15 L143.7 13.3 143.75 13.5 143.75 13.75 Q143.75 14.3 139.5 19.7 L136.8 23.1 134.5 26.0 130.95 31.6 130.5 32.3 Q128.05 36.2 126.1 38.4 L125.75 38.85 Q112.35 53.95 103.75 62.75 L103.65 62.85 103.5 63.0 103.05 62.85 102.95 62.7 102.9 62.3 103.25 61.75 107.55 56.55 113.65 49.75 116.9 46.6 119.9 43.6 124.85 37.5 Q126.65 35.3 128.85 31.45 L132.65 25.0 Q133.5 23.7 135.05 21.95 L137.65 19.0 Q138.65 17.9 139.95 15.55 L140.4 15.05 M158.8 -3.65 L159.25 -1.9 Q159.25 -0.7 158.65 1.2 158.0 3.05 158.0 4.15 158.0 5.85 159.1 8.05 160.4 10.6 162.25 11.4 164.6 11.35 165.35 12.15 165.75 12.55 165.65 13.0 L163.75 14.8 155.8 21.9 155.65 22.0 155.5 22.15 155.25 22.3 Q153.8 23.4 153.35 23.4 L152.4 23.25 152.35 23.2 152.15 23.3 149.5 26.35 142.75 32.85 136.25 39.0 Q132.4 42.9 131.2 45.05 130.7 45.85 130.65 46.45 L118.6 57.95 116.85 57.8 124.85 47.75 128.15 42.8 127.2 42.1 133.8 33.2 Q142.4 21.25 146.25 14.75 L146.1 14.4 146.0 14.4 146.95 13.05 147.15 12.3 147.6 11.2 147.85 10.85 148.8 9.8 148.8 9.75 Q155.2 2.1 157.55 -1.4 L157.6 -2.25 Q157.6 -3.6 158.5 -4.15 L158.8 -3.65 M208.15 19.05 L207.65 21.1 Q207.1 22.6 207.1 23.25 207.1 26.35 207.75 29.95 208.85 35.75 211.05 35.75 L213.4 35.25 215.1 34.75 216.0 34.9 216.15 35.05 216.25 35.5 216.2 35.75 214.45 36.75 211.15 39.25 Q208.2 41.95 207.0 44.35 L205.4 47.15 203.0 49.6 Q197.75 52.4 195.95 53.7 L195.1 53.6 Q193.1 53.6 190.8 56.0 L188.8 58.95 186.5 62.0 182.75 68.15 Q182.4 68.1 182.2 67.85 L166.2 80.95 165.55 80.9 171.0 73.7 177.1 65.75 182.3 57.75 Q185.55 52.7 188.35 49.4 L192.05 45.05 195.05 41.35 Q198.3 37.3 201.0 33.1 203.9 28.55 205.0 25.0 L205.9 22.7 206.05 21.55 Q206.6 17.75 208.0 18.5 L208.1 18.6 208.15 19.0 208.15 19.05 M262.8 54.5 L262.15 56.5 Q262.15 56.85 263.1 57.45 264.45 58.25 266.75 58.25 L271.6 55.9 278.75 52.25 279.3 52.9 279.4 53.15 278.35 54.15 Q276.25 54.95 272.05 59.55 L264.85 67.5 Q262.6 69.8 258.5 74.8 L252.5 81.65 Q247.95 86.35 237.2 95.65 227.45 104.1 223.0 109.1 L223.2 109.35 223.75 109.5 228.6 105.0 223.8 109.75 222.75 109.75 221.1 105.4 221.6 104.65 Q228.05 98.5 235.4 90.1 L247.75 75.4 259.65 60.85 262.8 54.5 M91.95 21.9 L92.55 21.3 92.05 21.95 91.95 21.9 M93.55 20.0 L94.25 18.8 94.25 18.7 95.2 17.95 93.55 20.0 M164.35 80.85 L165.0 80.05 164.55 80.85 164.35 80.85 M163.2 75.7 L161.95 77.2 160.75 78.3 157.25 82.35 157.15 82.5 157.25 80.75 153.75 82.6 153.65 80.25 155.2 79.75 Q154.35 79.8 153.6 80.15 143.95 84.2 133.65 83.45 L131.85 83.0 131.35 81.65 131.3 81.55 Q131.3 80.05 131.85 79.0 132.3 78.2 132.85 78.0 132.45 77.55 132.4 76.85 L128.8 76.15 129.15 71.4 132.05 69.0 132.35 68.95 132.75 68.1 134.65 65.5 135.15 65.0 Q137.4 62.6 137.4 65.0 L137.05 65.95 136.65 66.75 137.1 67.7 137.5 68.65 136.85 72.05 Q136.15 74.6 136.0 76.0 L137.85 75.95 Q138.4 76.0 139.35 76.9 L139.05 77.45 Q138.75 77.85 136.75 77.9 L136.7 78.4 136.7 78.45 140.45 78.95 148.05 78.05 148.0 76.95 163.2 75.7 M79.4 21.7 L79.65 21.3 78.25 22.55 79.4 21.7 M55.6 27.85 Q55.6 29.05 54.15 29.9 52.65 30.75 50.6 30.75 48.55 30.75 47.1 29.9 45.6 29.05 45.6 27.85 45.6 26.65 47.1 25.8 48.55 24.95 50.6 24.95 52.65 24.95 54.15 25.8 55.6 26.65 55.6 27.85 M68.15 32.5 L68.5 32.55 70.8 30.6 68.15 32.5" fill="#949172" fill-rule="evenodd" stroke="none"/>
      <path d="M212.1 136.4 L209.4 144.15 183.9 146.0 162.2 146.6 Q158.1 146.6 155.2 144.35 152.25 142.1 152.25 138.9 L152.1 137.3 151.85 123.65 152.05 121.75 148.45 121.75 128.4 121.75 112.0 117.35 109.7 117.7 Q108.65 117.45 107.85 116.9 98.85 110.4 100.2 98.75 L101.1 94.9 98.7 98.7 93.0 99.55 90.95 100.05 69.75 100.6 Q58.2 100.8 48.0 96.55 L48.0 89.4 48.0 85.4 46.15 86.75 4.15 89.25 3.55 86.6 3.2 74.75 4.0 49.5 3.85 48.75 0.75 48.95 0.4 48.95 0.3 49.1 0.2 49.1 0.15 49.0 0.05 48.75 0.05 48.35 Q0.25 45.7 3.5 46.2 L4.7 46.2 43.4 45.75 Q46.6 45.75 48.85 44.65 L50.4 43.55 50.55 43.9 50.8 42.95 50.9 42.4 51.1 41.9 51.25 41.6 Q51.75 40.85 52.9 39.85 L53.15 39.7 53.2 39.65 53.75 39.15 54.5 38.6 Q55.7 37.7 56.5 37.35 54.95 38.95 52.6 42.2 L50.9 44.4 51.0 44.5 51.75 43.7 51.55 44.75 51.55 45.0 49.95 46.65 49.55 46.9 Q49.95 47.5 50.7 47.9 52.95 49.15 54.9 51.2 56.6 53.1 56.6 55.75 56.6 61.65 58.45 65.95 L58.75 65.3 Q61.95 60.1 66.95 56.75 L68.75 54.2 Q70.15 52.4 71.35 51.35 72.2 50.15 73.55 48.8 76.4 46.0 79.6 43.85 L80.25 43.4 Q79.7 44.65 77.25 47.15 L75.6 48.75 74.5 49.75 73.0 51.55 72.85 51.4 Q71.35 52.3 70.0 54.8 L67.85 58.5 60.85 66.05 Q60.85 66.7 61.5 66.85 L62.2 66.4 62.4 66.4 83.35 66.5 89.25 66.95 93.95 67.95 99.3 68.2 100.65 66.65 102.85 66.3 Q101.15 68.55 101.15 69.95 L101.25 70.4 101.1 70.45 102.6 81.55 102.45 87.65 117.2 73.05 112.85 81.2 106.0 89.2 125.0 89.45 144.4 90.4 152.85 109.4 154.1 109.45 157.15 108.8 Q158.4 108.15 158.4 107.25 L163.9 101.0 166.0 101.55 164.0 104.15 159.15 110.15 192.15 109.75 203.0 110.55 206.7 114.0 207.4 114.85 208.4 116.45 Q211.5 122.65 210.75 129.75 L211.45 132.05 217.35 126.7 220.85 126.1 212.4 134.2 212.1 136.4 M208.9 139.35 L210.4 133.4 Q209.3 131.7 209.35 129.8 209.5 119.05 201.6 112.55 L198.8 112.3 Q181.25 111.9 163.55 112.9 L158.65 112.75 Q154.4 112.2 156.4 113.75 L156.4 115.15 156.1 118.2 154.15 135.95 156.35 141.45 158.05 143.2 159.6 144.55 164.85 144.5 166.4 144.5 203.95 142.15 208.3 141.65 208.9 139.35 M98.1 95.5 L99.55 93.55 99.9 92.75 Q100.9 90.3 100.9 89.2 L100.75 84.5 100.35 81.8 100.6 80.6 Q102.25 73.9 96.55 70.95 93.4 69.4 90.1 69.4 L60.4 68.3 59.15 68.95 58.95 69.05 58.0 69.65 57.95 70.95 Q57.65 77.2 52.45 81.1 L49.55 84.9 50.0 90.6 50.15 94.7 50.4 95.15 50.4 95.45 50.85 96.4 Q51.5 97.25 52.8 97.35 L52.9 97.45 82.25 98.0 97.45 96.4 98.1 95.5 M106.9 92.5 L105.2 94.05 104.4 94.55 104.05 94.15 103.6 95.15 Q100.55 101.6 103.2 108.4 L104.55 111.0 105.05 111.6 105.55 112.1 108.0 113.75 129.6 119.45 148.2 119.55 152.0 118.95 152.95 118.0 153.2 112.55 152.8 112.05 Q150.9 111.15 149.75 109.3 145.9 102.8 145.0 95.2 L144.15 93.2 Q143.65 92.45 143.2 92.45 L143.15 92.45 143.0 92.35 141.95 92.45 Q124.45 92.1 106.9 92.5 M52.8 54.45 L45.1 48.0 8.0 48.55 7.75 48.55 6.55 49.25 7.1 49.8 Q6.4 50.5 6.3 51.6 L6.35 54.5 6.35 54.95 5.9 57.1 5.8 57.3 Q5.15 59.25 5.15 59.9 L4.75 70.8 5.3 77.55 Q5.9 82.35 6.9 83.75 L7.5 87.0 40.45 84.65 45.8 84.35 50.7 77.5 Q53.05 74.95 54.75 71.75 L55.4 69.35 Q56.85 62.85 54.05 56.7 L52.8 54.45" fill="#333333" fill-rule="evenodd" stroke="none"/>
      <path d="M156.1 118.2 L156.4 115.15 164.7 113.75 184.8 113.45 187.6 113.55 183.2 115.75 189.6 115.55 194.75 113.55 198.8 114.7 198.7 117.45 196.55 116.9 191.6 116.65 Q178.95 115.3 166.45 118.0 L162.8 118.55 162.4 118.9 162.2 118.6 Q161.95 118.85 161.9 119.4 157.3 126.7 158.5 135.4 L158.55 135.65 160.3 135.35 160.3 135.8 Q160.0 137.8 158.75 136.4 L158.45 135.85 Q158.3 134.1 158.1 135.45 L158.0 135.85 157.4 137.75 156.3 135.9 156.1 118.2 M174.2 135.25 L172.4 137.0 169.95 138.1 170.1 135.45 173.4 131.5 177.95 128.05 181.2 127.95 174.2 135.25 M197.6 119.05 L170.55 120.1 Q183.8 117.85 196.9 119.0 L197.6 119.05 M64.0 75.15 L90.6 73.3 90.8 71.95 91.6 72.2 90.15 75.3 83.6 74.8 83.5 74.3 Q82.8 73.4 81.85 74.8 L64.0 75.15 M84.0 70.5 L62.8 72.15 Q60.7 77.25 56.35 80.85 L52.8 83.75 54.4 81.95 52.4 84.1 51.3 85.45 53.2 85.75 54.45 85.0 50.35 90.35 50.0 90.6 49.55 84.9 52.45 81.1 Q57.65 77.2 57.95 70.95 L58.0 69.65 59.65 69.25 84.0 70.5 M78.3 86.95 L76.95 88.2 76.9 88.0 Q77.6 80.5 83.6 75.5 83.95 75.15 83.95 75.35 83.95 82.2 78.3 86.95 M108.65 97.55 L107.6 97.55 107.6 99.25 104.9 107.4 Q103.9 105.25 103.6 103.1 102.6 95.1 109.9 92.7 L113.15 92.95 Q127.4 94.65 141.65 92.45 L142.0 95.4 141.7 96.8 136.95 97.1 139.45 95.8 Q134.15 93.3 128.45 94.45 L121.0 95.05 Q115.0 95.0 109.9 97.15 L108.65 97.55 M7.65 49.35 L8.0 48.55 45.1 48.0 52.8 54.45 53.5 60.65 44.25 52.85 42.8 51.75 40.75 51.35 21.1 52.15 19.6 52.35 16.3 52.75 Q14.15 52.75 12.6 53.75 11.05 54.75 11.05 56.15 L10.75 56.75 10.0 73.4 9.8 77.35 7.9 69.8 7.2 78.2 Q6.25 74.4 6.25 73.75 L6.65 71.3 7.0 68.55 6.75 63.0 Q6.75 62.1 7.1 59.75 L7.4 57.15 7.85 52.9 8.25 49.75 8.1 49.3 7.75 49.25 7.65 49.35 M10.8 51.15 L10.15 52.95 17.95 51.65 10.8 51.15 M38.95 49.25 Q40.85 48.75 39.2 48.55 L30.0 49.35 35.8 49.65 38.95 49.25 M124.0 106.45 Q126.6 106.45 128.45 105.15 130.3 103.8 130.3 101.9 L133.2 102.35 128.5 108.35 125.95 108.2 124.9 108.1 Q122.15 107.65 124.0 106.45" fill="#747e5a" fill-rule="evenodd" stroke="none"/>
    </g>
  </defs>
</svg>
