<?xml version="1.0" encoding="UTF-8" standalone="no"?>
<svg xmlns:ffdec="https://www.free-decompiler.com/flash" xmlns:xlink="http://www.w3.org/1999/xlink" ffdec:objectType="frame" height="123.55px" width="98.7px" xmlns="http://www.w3.org/2000/svg">
  <g transform="matrix(1.0, 0.0, 0.0, 1.0, 40.6, 123.9)">
    <use ffdec:characterId="780" height="8.4" transform="matrix(7.0, 0.0, 0.0, 7.0, -25.55, -68.25)" width="10.65" xlink:href="#shape0"/>
  </g>
  <defs>
    <g id="shape0" transform="matrix(1.0, 0.0, 0.0, 1.0, 3.65, 9.75)">
      <path d="M6.35 -9.4 L6.4 -9.25 6.4 -9.15 6.45 -9.05 6.4 -9.0 6.4 -8.95 Q6.4 -8.9 6.55 -8.8 L6.8 -8.7 Q6.9 -8.5 6.95 -8.2 L7.0 -7.9 7.0 -7.35 Q6.95 -7.2 6.8 -7.05 6.8 -7.0 6.75 -7.0 6.65 -7.0 6.6 -7.05 L6.45 -7.05 6.05 -6.95 Q5.9 -6.9 5.8 -6.8 L5.7 -6.4 Q5.6 -6.05 5.35 -5.9 5.2 -5.75 5.2 -5.6 L5.25 -5.5 Q5.25 -5.35 5.0 -5.05 L4.9 -4.85 Q4.85 -4.7 4.75 -4.65 L4.7 -4.6 4.65 -4.6 Q4.55 -4.5 4.45 -4.5 L4.45 -4.4 Q4.4 -4.4 4.35 -4.35 L4.2 -4.05 4.15 -4.0 4.15 -3.9 4.05 -3.65 3.75 -3.5 3.65 -3.4 3.6 -3.4 3.55 -3.35 3.5 -3.35 3.1 -2.95 3.05 -2.95 3.05 -2.9 2.95 -2.75 2.9 -2.7 2.75 -2.7 Q2.65 -2.75 2.65 -2.85 2.65 -2.95 2.75 -3.0 L2.75 -3.1 2.8 -3.1 Q2.85 -3.25 2.95 -3.3 L3.05 -3.4 3.2 -3.6 3.25 -3.6 3.35 -3.65 3.3 -3.65 3.35 -3.7 3.45 -3.7 3.55 -3.8 3.65 -4.0 3.45 -4.2 3.4 -4.2 3.2 -4.15 2.95 -4.1 2.9 -4.05 2.85 -3.9 Q2.75 -3.8 2.5 -3.8 2.3 -3.8 2.3 -3.95 L2.4 -4.05 2.5 -4.05 2.55 -4.1 2.6 -4.1 2.6 -4.2 2.65 -4.25 Q2.65 -4.35 2.8 -4.4 L2.85 -4.4 Q2.85 -4.45 2.95 -4.45 L3.05 -4.4 3.3 -4.5 3.6 -4.5 3.8 -4.3 3.9 -4.5 3.9 -4.8 3.95 -4.9 3.8 -4.9 Q3.65 -4.9 3.6 -4.95 L3.55 -5.05 Q3.4 -5.05 3.4 -5.1 L3.35 -5.1 3.3 -5.05 3.15 -4.85 Q3.05 -4.6 2.6 -4.6 L2.4 -4.65 2.35 -4.65 2.3 -4.55 2.0 -4.55 1.95 -4.5 Q1.95 -4.45 1.9 -4.45 L1.85 -4.45 1.8 -4.4 1.75 -4.4 1.7 -4.3 1.65 -4.15 1.6 -4.1 1.15 -3.75 1.0 -3.7 0.8 -3.7 0.7 -3.65 0.35 -3.6 0.1 -3.5 0.0 -3.45 Q-0.1 -3.4 -0.2 -3.4 L-0.7 -3.4 -0.8 -3.45 -0.9 -3.55 -0.85 -3.65 -0.8 -3.7 -0.7 -3.7 Q-0.55 -3.7 -0.45 -3.65 L-0.25 -3.7 -0.2 -3.75 -0.25 -3.8 Q-0.25 -4.0 -0.15 -4.05 L-0.15 -4.1 -0.2 -4.1 -0.2 -4.15 -0.15 -4.25 Q-0.05 -4.4 0.0 -4.35 L0.1 -4.35 0.15 -4.25 0.15 -4.15 0.05 -4.0 0.05 -3.8 0.1 -3.8 Q0.25 -3.9 0.4 -3.9 L0.45 -4.0 0.55 -4.05 0.7 -4.05 1.0 -4.0 Q1.05 -4.0 1.15 -4.1 L1.25 -4.25 1.4 -4.35 1.45 -4.45 1.4 -4.55 Q1.35 -4.55 1.35 -4.6 L1.25 -4.55 1.1 -4.55 Q1.05 -4.55 1.05 -4.6 L1.0 -4.6 1.0 -4.65 0.9 -4.65 0.9 -4.55 0.85 -4.45 0.75 -4.4 0.7 -4.45 0.65 -4.45 0.55 -4.4 0.45 -4.4 Q0.35 -4.3 0.2 -4.3 0.15 -4.35 0.15 -4.4 L0.15 -4.45 Q0.15 -4.5 0.2 -4.55 L0.3 -4.7 0.35 -4.7 0.4 -4.75 Q0.3 -4.75 0.3 -4.85 L0.45 -5.0 0.5 -5.1 0.6 -5.2 0.95 -5.2 1.1 -5.1 1.1 -4.9 1.15 -4.9 1.15 -4.85 1.25 -4.85 1.25 -4.8 1.35 -4.8 1.35 -4.75 1.4 -4.8 1.6 -5.05 1.7 -5.3 1.7 -5.4 1.75 -5.45 Q1.75 -5.5 1.95 -5.65 L2.05 -5.75 2.1 -5.75 2.25 -5.9 2.55 -6.0 2.9 -6.05 2.95 -6.0 3.0 -6.0 3.05 -6.05 3.2 -6.05 Q3.45 -6.05 3.55 -6.0 L3.65 -6.0 3.7 -6.05 3.75 -6.15 3.65 -6.3 Q3.65 -6.4 3.95 -6.6 L4.05 -6.7 3.95 -6.8 3.8 -6.9 Q3.65 -7.0 3.65 -7.2 L3.5 -7.05 Q3.45 -7.0 3.15 -7.0 L3.05 -7.0 3.0 -7.05 2.9 -7.25 2.95 -7.35 Q2.95 -7.4 3.0 -7.45 3.15 -7.45 3.15 -7.35 L3.15 -7.3 3.2 -7.3 Q3.25 -7.3 3.3 -7.35 L3.4 -7.45 3.6 -7.55 3.65 -7.55 3.7 -7.85 3.6 -8.15 3.6 -8.1 3.55 -8.1 3.55 -8.15 3.35 -8.1 3.15 -8.1 3.0 -8.0 Q2.95 -7.9 2.8 -7.9 L2.75 -8.0 2.75 -8.1 Q2.75 -8.15 2.85 -8.3 L2.95 -8.4 Q3.05 -8.55 3.25 -8.5 3.4 -8.5 3.5 -8.45 L3.7 -8.45 3.8 -8.5 3.9 -8.5 Q4.0 -8.45 4.05 -8.35 L4.15 -8.2 4.25 -7.9 4.2 -7.7 4.1 -7.5 4.05 -7.15 Q4.2 -7.1 4.4 -7.05 4.55 -7.0 4.55 -6.95 L4.65 -6.95 4.65 -7.25 Q4.65 -7.3 4.85 -7.55 5.05 -7.8 5.15 -7.8 L5.25 -7.8 5.25 -7.85 5.3 -7.8 5.3 -7.9 5.2 -8.05 5.15 -8.15 5.1 -8.15 5.1 -8.2 5.05 -8.2 4.95 -8.3 4.95 -8.4 5.0 -8.65 5.05 -8.75 5.0 -8.85 4.8 -9.05 4.65 -9.25 Q4.55 -9.35 4.55 -9.45 4.55 -9.5 4.6 -9.5 L4.9 -9.7 Q5.3 -9.6 5.55 -9.35 L5.65 -9.45 5.7 -9.6 Q5.75 -9.75 5.95 -9.75 6.05 -9.75 6.15 -9.65 6.35 -9.55 6.35 -9.4 M6.0 -9.4 Q5.95 -9.3 5.75 -9.15 L5.8 -9.1 6.1 -9.1 6.05 -9.2 6.1 -9.3 6.1 -9.35 6.05 -9.35 6.0 -9.4 M6.6 -7.95 L6.55 -7.9 6.4 -7.8 6.35 -7.8 6.35 -7.75 6.3 -7.75 Q6.45 -7.8 6.6 -7.95 M6.05 -8.45 Q6.0 -8.35 5.95 -8.3 L5.75 -8.15 Q5.75 -8.1 5.8 -8.0 L5.85 -7.9 6.25 -7.9 6.45 -8.0 Q6.5 -8.05 6.5 -8.1 L6.5 -8.2 6.25 -8.45 Q6.15 -8.55 6.05 -8.5 L6.05 -8.45 M6.5 -8.05 L6.5 -8.05 M6.25 -7.75 L6.1 -7.8 5.85 -7.75 5.9 -7.7 Q5.95 -7.75 6.05 -7.75 L6.25 -7.75 M6.3 -7.6 L6.0 -7.6 5.95 -7.5 5.9 -7.45 6.0 -7.35 6.35 -7.4 Q6.5 -7.4 6.5 -7.5 6.75 -7.6 6.7 -7.8 6.6 -7.75 6.45 -7.65 6.35 -7.6 6.3 -7.6 M4.9 -8.95 L4.9 -8.95 M3.7 -7.85 L3.7 -7.85 M4.9 -7.15 L4.9 -7.0 Q5.05 -7.0 5.1 -6.95 L5.15 -6.85 5.3 -6.95 Q5.4 -7.0 5.4 -7.05 L5.45 -7.2 5.5 -7.3 5.4 -7.5 5.3 -7.45 5.2 -7.5 5.15 -7.45 5.15 -7.5 4.95 -7.3 4.95 -7.25 Q4.9 -7.25 4.9 -7.15 M4.75 -7.25 L4.75 -7.25 M5.25 -7.6 L5.3 -7.6 5.25 -7.65 5.25 -7.6 M5.25 -6.45 L5.05 -6.4 4.6 -6.45 Q4.6 -6.4 4.75 -6.35 L4.85 -6.2 4.85 -6.0 Q5.0 -6.1 5.15 -6.2 5.3 -6.35 5.3 -6.45 L5.25 -6.45 M5.7 -6.5 L5.7 -6.5 M4.35 -6.15 L4.35 -6.25 4.3 -6.2 4.3 -6.15 4.35 -6.15 M4.9 -5.5 L4.75 -5.4 4.55 -5.15 4.5 -5.1 Q4.4 -5.0 4.35 -4.8 L4.3 -4.65 4.4 -4.75 4.55 -4.8 4.7 -4.95 Q4.9 -5.3 4.9 -5.45 L4.9 -5.5 M3.85 -6.85 L3.85 -6.85 M3.1 -5.4 L3.15 -5.5 3.35 -5.6 3.4 -5.65 3.45 -5.65 2.8 -5.6 2.6 -5.6 2.6 -5.65 2.55 -5.6 2.55 -5.65 2.35 -5.6 2.2 -5.45 Q1.95 -5.4 2.0 -5.25 L1.95 -5.1 1.85 -5.0 1.75 -4.75 1.9 -4.75 Q1.9 -4.9 2.1 -4.9 L2.25 -4.85 2.3 -4.85 2.3 -4.8 2.35 -4.75 Q2.35 -4.85 2.55 -4.9 2.8 -4.9 2.85 -4.95 L3.0 -5.1 3.0 -5.25 Q3.0 -5.3 3.1 -5.35 L3.1 -5.4 M3.55 -5.35 L3.75 -5.35 3.85 -5.3 4.0 -5.3 4.05 -5.4 4.05 -5.45 Q4.05 -5.6 4.2 -5.6 L4.2 -5.65 4.25 -5.65 4.15 -5.85 4.1 -5.9 4.1 -5.85 4.05 -5.85 Q4.1 -5.8 4.0 -5.7 L3.8 -5.55 3.55 -5.35 M3.9 -4.55 L3.9 -4.55 M3.9 -4.6 L3.9 -4.6 M1.7 -5.35 L1.7 -5.35 M2.2 -5.85 L2.2 -5.85 M2.6 -5.65 L2.6 -5.65 M0.75 -4.9 L0.7 -4.8 0.6 -4.75 0.65 -4.7 Q0.7 -4.75 0.75 -4.75 L0.75 -4.9 0.75 -4.9 M0.05 -4.7 Q0.05 -4.5 -0.2 -4.4 L-0.25 -4.3 Q-0.3 -4.2 -0.4 -4.15 L-0.45 -4.1 Q-0.55 -4.05 -0.75 -4.0 L-0.75 -4.0 Q-0.85 -3.9 -1.1 -3.9 -1.2 -3.9 -1.25 -3.95 L-1.25 -4.1 -1.0 -4.15 -0.9 -4.2 Q-0.75 -4.3 -0.6 -4.3 L-0.5 -4.4 -0.5 -4.45 -0.45 -4.45 -0.5 -4.5 Q-0.5 -4.6 -0.25 -4.75 -0.05 -4.85 0.0 -4.8 L0.05 -4.7 M2.5 -4.6 L2.5 -4.6 M6.05 -6.9 L6.05 -6.9 M-2.25 -7.2 L-2.2 -7.3 -2.1 -7.4 -2.05 -7.4 -1.95 -7.35 -1.9 -7.3 -1.9 -7.25 -1.85 -7.2 -1.95 -7.1 -1.95 -7.05 Q-2.0 -7.05 -2.05 -7.05 L-2.1 -7.05 Q-2.15 -7.05 -2.15 -7.1 L-2.25 -7.2 M-2.75 -6.5 Q-2.8 -6.45 -2.85 -6.45 L-3.0 -6.45 -3.05 -6.55 -3.05 -6.6 Q-3.05 -6.8 -2.9 -6.85 L-2.8 -6.85 -2.7 -6.8 -2.7 -6.55 -2.75 -6.5 M-2.7 -5.45 L-2.65 -5.45 -2.55 -5.35 -2.55 -5.3 Q-2.55 -5.1 -2.65 -5.05 L-2.75 -4.95 -2.95 -4.95 Q-3.0 -5.0 -3.0 -5.1 -3.0 -5.25 -2.85 -5.3 L-2.8 -5.4 -2.7 -5.45 M-2.8 -4.65 Q-2.8 -4.55 -2.85 -4.5 L-2.85 -4.45 -3.0 -4.45 -3.15 -4.5 -3.15 -4.55 -3.2 -4.55 -3.35 -4.4 -3.5 -4.45 -3.5 -4.55 Q-3.5 -4.65 -3.4 -4.75 L-3.4 -4.85 -3.35 -4.85 -3.25 -4.9 -3.1 -4.9 -3.1 -4.85 -3.05 -4.85 -3.0 -4.75 -2.95 -4.75 -2.9 -4.8 -2.85 -4.8 Q-2.8 -4.7 -2.8 -4.65 M-2.2 -4.2 L-2.15 -4.2 Q-2.1 -4.25 -1.9 -4.2 L-1.8 -4.15 -1.8 -4.05 Q-1.8 -4.0 -1.85 -3.95 -1.9 -3.9 -1.95 -3.9 L-2.1 -3.9 -2.15 -3.95 Q-2.2 -3.9 -2.25 -3.9 L-2.4 -3.9 -2.45 -3.85 -2.55 -3.8 Q-2.6 -3.8 -2.65 -3.85 L-2.7 -3.95 -2.7 -4.1 -2.65 -4.15 -2.2 -4.2 M-1.6 -4.15 Q-1.5 -4.2 -1.4 -4.1 L-1.35 -4.1 -1.3 -4.05 -1.25 -3.9 -1.25 -3.85 -1.15 -3.75 -1.15 -3.7 -1.1 -3.65 -1.05 -3.55 -1.15 -3.45 -1.3 -3.45 Q-1.35 -3.45 -1.35 -3.5 L-1.4 -3.6 Q-1.55 -3.65 -1.55 -3.85 L-1.6 -3.85 -1.7 -3.9 -1.7 -4.1 -1.6 -4.15 M-1.05 -4.15 L-1.0 -4.2 -0.95 -4.2 -1.05 -4.15 M-3.2 -3.15 L-3.25 -3.05 -3.3 -3.0 -3.3 -2.95 -3.35 -2.9 -3.4 -2.8 -3.6 -2.8 -3.65 -2.9 -3.65 -3.05 -3.6 -3.05 Q-3.6 -3.2 -3.55 -3.25 -3.5 -3.35 -3.35 -3.35 -3.25 -3.3 -3.2 -3.25 L-3.2 -3.15 M-3.2 -2.25 L-3.15 -2.3 -3.1 -2.4 -3.0 -2.4 -2.9 -2.3 -2.85 -2.2 -2.9 -2.15 -2.9 -2.1 Q-2.95 -2.05 -3.0 -2.05 L-3.1 -2.05 Q-3.15 -2.1 -3.15 -2.15 L-3.2 -2.25 M-1.35 -3.15 Q-1.35 -3.1 -1.35 -3.05 -1.4 -3.0 -1.45 -3.0 L-1.75 -3.0 -1.85 -3.05 -2.0 -3.05 -2.05 -3.1 -2.15 -3.15 -2.15 -3.3 -2.1 -3.35 -2.0 -3.4 -1.7 -3.4 -1.6 -3.3 -1.45 -3.3 Q-1.4 -3.3 -1.35 -3.25 L-1.35 -3.15 M-2.4 -3.4 Q-2.35 -3.4 -2.3 -3.35 L-2.2 -3.25 -2.2 -3.15 -2.25 -3.1 Q-2.3 -3.05 -2.35 -3.05 L-2.45 -3.05 -2.55 -3.15 -2.55 -3.25 -2.5 -3.35 -2.4 -3.4 M-2.55 -2.05 L-2.5 -2.1 -2.4 -2.1 Q-2.3 -2.15 -2.25 -2.0 L-2.25 -1.85 -2.3 -1.8 -2.25 -1.7 -2.2 -1.7 -2.2 -1.65 -2.1 -1.6 -2.05 -1.55 -2.05 -1.45 -2.1 -1.35 -2.3 -1.35 -2.3 -1.4 Q-2.45 -1.4 -2.5 -1.6 L-2.5 -1.7 -2.55 -1.75 -2.55 -1.85 -2.6 -1.9 -2.6 -2.05 -2.55 -2.05" fill="#437edb" fill-opacity="0.6" fill-rule="evenodd" stroke="none"/>
      <path d="M6.2 -9.45 L6.15 -9.5 6.0 -9.55 5.9 -9.55 5.8 -9.35 Q5.7 -9.2 5.55 -9.15 L5.6 -9.05 5.7 -8.9 6.05 -8.95 6.2 -8.95 6.2 -9.0 6.25 -9.1 6.2 -9.2 6.25 -9.25 6.2 -9.35 6.2 -9.45 M6.25 -9.3 L6.25 -9.15 6.3 -9.1 6.25 -9.0 Q6.25 -8.7 6.65 -8.65 L6.8 -8.1 6.8 -7.95 6.85 -7.75 6.85 -7.55 6.8 -7.3 6.7 -7.15 6.65 -7.15 6.55 -7.2 6.45 -7.2 6.05 -7.05 Q5.9 -7.05 5.75 -6.9 5.7 -6.85 5.65 -6.75 L5.55 -6.5 Q5.5 -6.2 5.4 -6.1 5.35 -6.0 5.15 -5.85 L5.05 -5.8 5.05 -5.65 5.1 -5.4 5.0 -5.25 4.75 -4.75 4.7 -4.75 Q4.8 -4.8 4.9 -5.1 L5.0 -5.2 5.05 -5.4 5.05 -5.8 4.85 -5.7 4.45 -5.25 4.4 -5.2 Q4.2 -5.0 4.1 -4.7 L4.05 -4.55 4.05 -4.25 4.1 -4.3 Q4.15 -4.45 4.3 -4.5 L4.35 -4.5 4.2 -4.4 4.1 -4.25 4.0 -3.95 3.9 -3.7 3.7 -3.6 3.55 -3.55 3.5 -3.5 3.25 -3.3 2.95 -3.0 2.85 -2.8 2.8 -2.85 2.85 -2.95 2.9 -3.0 Q2.95 -3.15 3.05 -3.15 L3.2 -3.35 3.3 -3.5 Q3.35 -3.5 3.4 -3.55 L3.5 -3.55 3.55 -3.6 3.65 -3.75 3.8 -3.95 3.85 -4.0 3.9 -4.15 3.9 -4.2 3.85 -4.1 3.75 -4.1 3.55 -4.35 3.4 -4.35 3.15 -4.3 3.0 -4.3 2.8 -4.2 2.7 -4.0 Q2.65 -3.9 2.5 -3.9 2.45 -3.9 2.45 -3.95 L2.65 -3.95 Q2.75 -4.05 2.75 -4.15 L2.8 -4.25 2.85 -4.25 2.95 -4.3 3.0 -4.3 Q3.35 -4.35 3.4 -4.4 L3.45 -4.35 3.55 -4.35 Q3.6 -4.3 3.65 -4.25 L3.75 -4.15 3.85 -4.15 3.85 -4.2 3.9 -4.2 3.95 -4.4 4.0 -4.5 4.0 -4.6 Q4.05 -4.8 4.1 -4.9 L4.25 -5.1 4.45 -5.3 4.55 -5.55 4.65 -5.75 4.65 -6.15 Q4.6 -6.25 4.45 -6.25 4.4 -6.25 4.4 -6.3 L4.4 -6.4 4.45 -6.5 4.15 -6.3 Q4.1 -6.15 4.2 -6.05 L4.3 -6.0 4.45 -6.0 4.45 -5.8 4.4 -5.6 4.35 -5.6 4.35 -5.7 4.3 -5.9 4.2 -6.0 3.95 -6.0 3.95 -5.8 3.65 -5.65 3.55 -5.55 3.4 -5.45 3.35 -5.35 3.45 -5.25 3.65 -5.25 Q3.7 -5.2 3.8 -5.2 L3.9 -5.1 Q4.0 -5.1 4.05 -5.15 L4.2 -5.25 4.15 -5.2 4.1 -5.1 3.9 -5.0 3.75 -5.0 Q3.7 -5.1 3.45 -5.15 L3.45 -5.2 3.35 -5.25 3.25 -5.15 3.2 -5.15 3.1 -5.0 3.0 -4.8 Q2.9 -4.8 2.8 -4.75 L2.65 -4.7 2.5 -4.7 2.5 -4.75 Q2.95 -4.75 3.0 -4.95 L3.15 -5.1 3.1 -5.1 3.2 -5.2 3.15 -5.25 3.3 -5.4 3.45 -5.5 3.55 -5.55 3.6 -5.65 Q3.6 -5.7 3.6 -5.75 L3.45 -5.75 2.8 -5.7 2.65 -5.75 2.45 -5.75 2.3 -5.7 2.1 -5.6 Q1.95 -5.5 1.9 -5.45 1.85 -5.4 1.85 -5.3 1.85 -5.2 1.75 -4.95 1.55 -4.7 1.55 -4.65 L1.55 -4.6 1.6 -4.55 1.7 -4.55 1.75 -4.6 1.9 -4.65 1.9 -4.6 1.7 -4.5 1.65 -4.45 1.6 -4.45 1.6 -4.35 Q1.55 -4.25 1.45 -4.15 L1.1 -3.85 0.7 -3.85 0.6 -3.75 0.05 -3.6 Q0.1 -3.7 0.3 -3.75 L0.55 -3.8 0.65 -3.9 0.85 -3.9 Q1.1 -3.85 1.2 -3.95 L1.25 -4.05 1.45 -4.15 1.5 -4.3 1.6 -4.5 1.55 -4.6 1.5 -4.65 Q1.5 -4.75 1.6 -4.85 L1.7 -5.0 Q1.8 -5.15 1.85 -5.35 1.8 -5.45 1.9 -5.5 L2.15 -5.65 2.2 -5.7 2.2 -5.75 2.3 -5.75 2.4 -5.85 2.6 -5.9 2.85 -5.9 2.9 -5.85 3.05 -5.85 3.1 -5.95 3.35 -5.95 3.35 -5.9 3.45 -5.9 3.45 -5.85 3.7 -5.9 3.75 -6.0 3.85 -6.05 3.9 -6.15 3.85 -6.25 3.8 -6.3 3.9 -6.4 4.05 -6.5 4.15 -6.6 4.45 -6.75 4.35 -6.75 Q4.2 -6.75 4.0 -6.9 L3.9 -7.0 Q3.85 -7.05 3.8 -7.1 3.8 -7.15 3.8 -7.3 L3.7 -7.4 3.5 -7.3 3.45 -7.2 3.35 -7.1 3.05 -7.1 3.05 -7.2 3.0 -7.25 3.05 -7.25 Q3.05 -7.2 3.1 -7.15 3.25 -7.1 3.35 -7.15 L3.5 -7.35 3.7 -7.4 3.8 -7.35 3.8 -7.6 3.85 -7.85 Q3.85 -8.0 3.65 -8.25 L3.25 -8.25 Q3.1 -8.2 3.0 -8.15 L2.9 -8.05 2.85 -8.05 2.85 -8.1 2.95 -8.1 2.9 -8.15 3.0 -8.25 3.15 -8.35 3.35 -8.35 3.4 -8.3 3.75 -8.3 3.8 -8.35 3.85 -8.35 3.9 -8.3 3.95 -8.3 4.0 -8.2 4.0 -8.1 4.1 -7.85 4.0 -7.65 3.95 -7.45 Q3.9 -7.35 3.9 -7.1 L3.9 -7.05 4.05 -7.0 Q4.15 -6.9 4.35 -6.9 4.4 -6.85 4.45 -6.85 L4.55 -6.8 4.65 -6.8 Q4.75 -6.9 4.75 -7.15 L4.75 -7.25 4.85 -7.35 4.95 -7.5 Q5.1 -7.65 5.2 -7.7 L5.25 -7.65 5.25 -7.6 5.2 -7.6 5.2 -7.65 4.95 -7.4 4.8 -7.3 4.8 -7.15 Q4.8 -6.95 4.65 -6.8 L4.8 -6.85 5.0 -6.85 5.05 -6.75 5.05 -6.7 5.1 -6.7 5.1 -6.65 5.3 -6.75 Q5.45 -6.85 5.5 -6.95 L5.55 -7.15 5.55 -7.35 Q5.55 -7.45 5.45 -7.7 L5.4 -7.65 5.4 -7.7 5.45 -7.75 5.25 -8.15 Q5.15 -8.35 5.1 -8.3 L5.05 -8.35 Q5.05 -8.45 5.1 -8.55 L5.15 -8.6 5.25 -8.7 4.95 -9.05 4.8 -9.2 Q4.7 -9.35 4.7 -9.4 L4.75 -9.45 4.95 -9.55 Q5.25 -9.45 5.4 -9.3 L5.5 -9.2 Q5.7 -9.2 5.75 -9.35 L5.8 -9.5 5.85 -9.6 Q5.95 -9.6 6.1 -9.55 6.25 -9.5 6.25 -9.4 L6.25 -9.3 M6.65 -8.1 L6.65 -8.25 6.45 -8.4 Q6.2 -8.6 6.1 -8.6 L5.9 -8.6 5.9 -8.55 Q5.9 -8.4 5.65 -8.25 L5.65 -8.05 5.7 -7.75 5.75 -7.6 5.8 -7.65 Q5.9 -7.75 6.1 -7.75 L6.25 -7.75 6.45 -7.85 6.6 -8.0 6.65 -8.1 6.65 -7.95 6.5 -7.85 6.4 -7.8 Q6.35 -7.75 6.2 -7.7 L6.15 -7.75 Q5.9 -7.75 5.85 -7.65 L5.8 -7.55 5.8 -7.5 5.75 -7.4 5.9 -7.2 6.25 -7.2 6.3 -7.25 6.55 -7.3 6.65 -7.35 6.65 -7.4 6.7 -7.4 6.8 -7.55 6.8 -7.95 6.65 -8.1 M6.65 -8.15 L6.65 -8.15 M3.4 -8.25 L3.4 -8.25 M5.6 -6.65 L5.7 -6.9 5.6 -6.8 5.6 -6.65 M5.55 -6.8 L5.45 -6.75 5.4 -6.65 5.3 -6.6 5.15 -6.55 5.1 -6.55 5.1 -6.6 5.05 -6.65 4.9 -6.65 Q4.7 -6.65 4.5 -6.55 L4.45 -6.4 4.45 -6.3 4.6 -6.25 Q4.65 -6.2 4.7 -6.1 L4.7 -5.8 4.95 -5.95 5.0 -6.0 5.1 -6.05 Q5.4 -6.25 5.45 -6.35 L5.5 -6.5 5.55 -6.7 5.55 -6.8 M4.5 -6.75 L4.5 -6.75 M4.25 -5.5 L4.25 -5.45 4.2 -5.45 4.2 -5.5 4.25 -5.5 M4.05 -5.1 L4.05 -5.1 M4.55 -4.65 L4.45 -4.6 4.4 -4.6 4.5 -4.7 4.65 -4.75 4.55 -4.65 M2.45 -5.8 L2.45 -5.8 M0.8 -5.1 L0.7 -5.05 0.65 -5.0 0.6 -4.9 0.6 -4.85 0.5 -4.8 0.45 -4.8 0.4 -4.85 0.55 -4.9 0.6 -5.05 Q0.65 -5.1 0.8 -5.1 L0.85 -5.1 0.85 -5.05 0.9 -5.05 0.95 -4.95 0.95 -4.85 1.0 -4.85 1.0 -4.8 Q0.9 -4.8 0.9 -4.85 L0.95 -4.95 0.9 -5.0 Q0.8 -5.05 0.8 -5.1 M0.8 -4.6 L0.75 -4.55 0.7 -4.6 0.8 -4.6 M1.25 -4.7 L1.2 -4.65 1.15 -4.7 1.1 -4.7 1.1 -4.75 1.2 -4.7 1.25 -4.7 M0.35 -4.45 L0.25 -4.4 0.3 -4.45 0.3 -4.5 0.4 -4.6 0.45 -4.6 0.45 -4.55 0.5 -4.55 0.65 -4.6 0.65 -4.55 0.45 -4.55 0.45 -4.6 0.35 -4.55 0.3 -4.5 0.35 -4.45 M2.25 -4.7 L2.05 -4.7 2.05 -4.65 2.0 -4.65 2.0 -4.7 2.05 -4.75 2.2 -4.75 2.15 -4.7 2.25 -4.7 M-2.0 -7.2 L-2.05 -7.15 -2.1 -7.25 -2.0 -7.25 -2.0 -7.2 M-2.9 -6.6 L-2.85 -6.75 -2.85 -6.6 -2.9 -6.6 M-2.85 -5.05 L-2.85 -5.1 -2.8 -5.2 -2.85 -5.05 M-2.7 -5.3 Q-2.7 -5.2 -2.75 -5.2 L-2.7 -5.3 M-2.25 -4.05 L-2.55 -4.05 -2.55 -3.95 Q-2.55 -4.0 -2.6 -4.05 L-2.25 -4.05 M-1.95 -4.05 L-2.05 -4.05 -2.1 -4.1 -1.95 -4.05 M-1.5 -4.0 L-1.45 -3.95 -1.4 -3.85 Q-1.4 -3.75 -1.3 -3.7 -1.4 -3.75 -1.4 -3.85 -1.45 -4.0 -1.6 -4.0 L-1.5 -4.0 M-0.35 -4.5 Q-0.35 -4.55 -0.25 -4.6 L0.0 -4.7 Q-0.05 -4.6 -0.25 -4.6 L-0.35 -4.5 M-1.05 -4.0 L-1.15 -4.0 -0.95 -4.05 Q-0.8 -4.15 -0.55 -4.2 L-0.55 -4.15 Q-0.8 -4.15 -0.85 -4.1 L-0.9 -4.0 -1.05 -4.0 M-1.25 -3.6 L-1.25 -3.6 M-0.05 -4.15 L-0.05 -4.15 M-0.35 -4.35 L-0.35 -4.35 M-0.15 -3.8 L-0.1 -3.9 -0.1 -3.8 -0.15 -3.8 M-0.1 -3.65 L-0.05 -3.65 -0.05 -3.6 -0.1 -3.6 -0.15 -3.55 -0.2 -3.55 -0.25 -3.5 -0.4 -3.5 -0.25 -3.55 -0.15 -3.6 -0.1 -3.65 M-0.7 -3.55 L-0.6 -3.55 -0.6 -3.5 -0.7 -3.55 M-3.4 -4.5 L-3.4 -4.65 -3.35 -4.7 -3.3 -4.7 -3.3 -4.75 -3.25 -4.8 -3.15 -4.7 Q-3.2 -4.7 -3.25 -4.75 L-3.35 -4.65 -3.4 -4.5 M-3.05 -4.65 L-3.05 -4.6 -3.0 -4.6 -3.0 -4.55 -3.1 -4.6 -3.1 -4.7 -3.05 -4.7 -3.05 -4.65 M-2.9 -4.65 L-2.95 -4.6 -2.9 -4.7 -2.9 -4.65 M-3.35 -3.15 L-3.45 -3.05 Q-3.45 -3.2 -3.4 -3.2 L-3.35 -3.15 M-3.5 -2.9 L-3.5 -3.0 -3.45 -2.95 -3.5 -2.9 M-3.0 -2.2 L-3.05 -2.25 -3.0 -2.25 -3.0 -2.2 M-1.8 -3.2 L-2.0 -3.2 -2.0 -3.25 -1.75 -3.25 Q-1.75 -3.2 -1.65 -3.2 L-1.6 -3.15 -1.7 -3.15 -1.8 -3.2 M-1.45 -3.15 L-1.6 -3.15 -1.55 -3.2 -1.45 -3.15 M-2.35 -3.2 L-2.4 -3.2 -2.4 -3.25 -2.35 -3.2 M-2.4 -1.9 L-2.5 -1.95 -2.4 -1.95 -2.4 -1.9 M-2.35 -1.8 L-2.4 -1.75 -2.4 -1.85 -2.35 -1.85 -2.35 -1.8 M-2.15 -1.45 L-2.2 -1.45 -2.2 -1.5 -2.15 -1.45 M-2.35 -1.65 L-2.35 -1.55 -2.25 -1.55 -2.2 -1.5 -2.35 -1.5 -2.4 -1.55 -2.4 -1.65 -2.35 -1.65" fill="#ffffff" fill-rule="evenodd" stroke="none"/>
    </g>
  </defs>
</svg>
