<?xml version="1.0" encoding="UTF-8" standalone="no"?>
<svg xmlns:ffdec="https://www.free-decompiler.com/flash" xmlns:xlink="http://www.w3.org/1999/xlink" ffdec:objectType="frame" height="506.1px" width="626.15px" xmlns="http://www.w3.org/2000/svg">
  <g transform="matrix(1.0, 0.0, 0.0, 1.0, 366.45, 500.85)">
    <use ffdec:characterId="57" height="25.65" transform="matrix(7.0, 0.0, 0.0, 7.0, -366.45, -178.85)" width="88.7" xlink:href="#shape0"/>
  </g>
  <defs>
    <g id="shape0" transform="matrix(1.0, 0.0, 0.0, 1.0, 52.35, 25.55)">
      <path d="M21.0 -24.8 Q21.75 -24.45 21.75 -24.0 21.75 -23.85 21.7 -23.7 21.7 -23.25 21.35 -22.9 21.05 -22.7 20.85 -22.7 20.4 -22.7 20.25 -23.25 L20.2 -23.55 Q20.0 -23.7 19.75 -23.95 L19.4 -24.3 19.4 -24.35 Q18.95 -24.45 18.75 -24.65 18.85 -25.4 19.3 -25.5 19.7 -25.65 20.3 -25.3 20.7 -25.1 21.0 -24.8 M16.3 -1.5 L16.25 -1.7 Q16.15 -1.85 16.15 -2.2 16.15 -2.6 16.3 -2.75 16.5 -3.05 17.25 -3.05 17.95 -3.05 18.4 -2.7 18.75 -2.4 18.75 -2.05 18.75 -1.3 17.25 -1.3 L16.3 -1.5 M36.2 -19.55 Q36.35 -19.3 36.35 -18.9 36.35 -17.55 35.15 -17.55 34.8 -17.55 34.7 -18.1 34.65 -18.3 34.65 -18.85 34.5 -18.95 33.85 -19.1 33.1 -19.3 33.0 -19.35 L32.8 -19.5 Q32.8 -19.65 32.95 -19.85 33.1 -20.05 33.3 -20.15 L34.65 -20.25 Q35.2 -20.25 35.75 -20.05 36.1 -19.75 36.2 -19.55 M-52.3 -20.15 L-52.35 -20.75 Q-52.35 -21.6 -51.35 -21.75 -50.3 -21.9 -49.15 -21.1 -49.45 -20.75 -50.4 -20.2 -51.35 -19.7 -51.6 -19.7 -51.95 -19.7 -52.05 -19.75 L-52.3 -19.95 -52.3 -20.15 M-34.3 -19.5 Q-34.15 -19.35 -33.9 -19.25 L-33.9 -18.9 -34.6 -18.85 Q-34.8 -18.85 -34.95 -19.05 L-35.85 -18.95 -36.8 -18.15 -37.15 -18.45 Q-37.35 -18.6 -37.35 -19.0 -37.35 -19.15 -36.95 -19.55 -36.65 -19.85 -36.35 -20.1 -34.95 -20.15 -34.55 -19.8 L-34.3 -19.5 M-38.4 -0.8 L-38.5 -0.85 -38.55 -0.95 Q-38.6 -1.05 -38.6 -1.4 L-38.6 -1.75 Q-38.55 -1.8 -38.5 -1.9 -38.1 -1.9 -37.35 -1.7 -36.7 -1.5 -36.45 -1.3 L-37.1 -0.95 Q-37.5 -0.75 -37.85 -0.75 L-38.4 -0.8 M-18.6 -0.25 L-18.75 -0.45 Q-18.55 -0.7 -17.1 -0.8 L-16.65 -1.3 Q-16.45 -1.6 -16.15 -1.7 L-14.65 -2.1 -13.05 -2.5 Q-11.65 -3.05 -10.6 -2.35 -10.25 -2.15 -9.85 -1.75 L-9.25 -1.15 -7.9 -0.95 -4.55 -0.75 Q-4.4 -0.55 -4.35 -0.4 L-4.4 -0.3 Q-4.55 -0.2 -4.7 -0.1 L-8.65 0.1 -11.1 -0.05 -17.7 -0.15 -18.6 -0.25" fill="#ffffff" fill-opacity="0.5019608" fill-rule="evenodd" stroke="none"/>
    </g>
  </defs>
</svg>
