<?xml version="1.0" encoding="UTF-8" standalone="no"?>
<svg xmlns:ffdec="https://www.free-decompiler.com/flash" xmlns:xlink="http://www.w3.org/1999/xlink" ffdec:objectType="frame" height="166.4px" width="217.45px" xmlns="http://www.w3.org/2000/svg">
  <g transform="matrix(1.0, 0.0, 0.0, 1.0, 130.15, 174.95)">
    <use ffdec:characterId="2232" height="5.15" transform="matrix(7.0, 0.0, 0.0, 7.0, -65.8, -116.55)" width="14.65" xlink:href="#shape0"/>
  </g>
  <defs>
    <g id="shape0" transform="matrix(1.0, 0.0, 0.0, 1.0, 9.4, 16.65)">
      <path d="M4.95 -16.25 Q5.2 -15.85 5.25 -15.4 5.25 -15.05 5.0 -14.8 4.45 -14.6 4.1 -15.15 3.85 -15.6 3.8 -16.2 3.8 -16.6 4.2 -16.65 4.65 -16.6 4.95 -16.25 M-1.35 -12.45 Q-1.45 -12.25 -1.65 -12.25 L-1.8 -12.25 Q-1.9 -12.3 -2.0 -12.35 -2.1 -12.4 -2.15 -12.55 L-2.15 -12.85 Q-2.15 -13.0 -2.1 -13.15 -2.05 -13.4 -1.8 -13.35 L-1.8 -13.4 Q-1.45 -13.4 -1.35 -13.1 -1.3 -12.75 -1.35 -12.45 M-8.15 -12.4 Q-8.2 -12.1 -8.3 -11.85 -8.45 -11.55 -8.8 -11.5 -9.35 -11.55 -9.4 -12.1 -9.4 -12.6 -9.0 -12.85 -8.8 -13.0 -8.65 -13.0 L-8.45 -12.9 -8.3 -12.8 -8.25 -12.7 Q-8.15 -12.55 -8.15 -12.4" fill="#ccfffe" fill-opacity="0.7529412" fill-rule="evenodd" stroke="none"/>
    </g>
  </defs>
</svg>
