<?xml version="1.0" encoding="UTF-8" standalone="no"?>
<svg xmlns:ffdec="https://www.free-decompiler.com/flash" xmlns:xlink="http://www.w3.org/1999/xlink" ffdec:objectType="frame" height="200.85px" width="353.5px" xmlns="http://www.w3.org/2000/svg">
  <g transform="matrix(1.0, 0.0, 0.0, 1.0, 0.0, 0.0)">
    <use ffdec:characterId="1731" height="200.85" transform="matrix(1.0, 0.0, 0.0, 1.0, 0.0, 0.0)" width="353.5" xlink:href="#shape0"/>
  </g>
  <defs>
    <g id="shape0" transform="matrix(1.0, 0.0, 0.0, 1.0, 0.0, 0.0)">
      <path d="M353.25 4.15 L353.3 5.4 Q353.3 8.35 352.15 11.55 L351.3 13.6 Q348.95 18.75 345.55 18.65 L344.55 26.1 344.35 27.55 346.1 28.45 346.2 28.5 346.8 28.95 Q348.75 30.45 348.75 31.5 348.75 35.4 347.2 40.45 345.15 47.05 341.5 48.8 L341.5 48.9 341.05 49.15 341.0 49.1 339.9 53.9 339.75 54.45 338.95 56.8 339.2 56.85 341.75 57.15 341.35 58.45 340.95 59.65 339.05 65.15 336.05 74.0 335.6 74.65 336.05 74.75 336.05 75.5 334.05 75.75 332.2 75.6 332.1 75.6 329.7 81.1 329.0 82.55 Q330.75 83.1 330.75 84.35 330.75 86.25 329.45 89.25 L327.05 94.25 Q326.5 97.85 325.9 99.4 325.4 100.6 324.05 101.65 L324.25 101.65 Q323.5 103.0 322.05 103.4 L320.6 103.35 319.3 103.75 319.0 103.15 318.95 103.1 318.75 103.05 317.5 105.7 316.4 108.15 315.75 109.5 315.75 109.75 317.9 111.05 Q319.25 112.1 319.25 112.6 319.25 114.5 314.45 121.6 L309.05 129.25 307.1 129.15 305.15 128.9 303.05 131.5 300.8 134.2 301.75 134.25 301.75 138.4 297.6 143.35 297.45 143.5 295.5 145.5 294.6 146.45 Q289.65 151.25 287.55 151.25 284.3 150.7 283.1 149.6 L281.55 151.3 281.55 151.75 Q281.55 152.55 278.05 155.2 L277.25 155.8 277.25 156.6 Q277.25 157.95 271.05 163.5 264.55 169.3 261.8 169.3 L259.5 168.65 257.55 167.75 257.6 167.35 256.4 168.25 252.65 170.95 252.65 171.4 Q252.65 174.5 248.05 178.6 242.7 183.35 236.3 183.35 232.0 183.35 231.05 182.2 L230.9 181.3 228.5 182.85 228.75 185.0 Q228.75 187.1 228.55 187.55 228.05 188.7 225.75 189.75 225.5 190.25 225.5 189.1 223.15 190.65 218.4 192.5 211.4 195.25 208.05 195.25 205.95 195.25 205.05 193.7 L204.95 193.55 204.3 191.8 203.85 192.0 203.55 192.1 199.15 193.6 197.05 194.05 197.05 194.1 197.05 194.25 Q196.95 194.95 195.9 196.1 L195.0 196.95 194.8 197.1 186.05 197.85 185.8 197.85 Q177.85 197.85 176.15 196.55 175.6 196.15 175.3 195.25 L175.05 194.55 173.55 194.85 173.3 194.85 172.6 194.85 Q173.45 195.55 174.1 197.3 L174.9 198.0 Q177.05 199.5 182.25 199.5 L185.85 199.5 192.05 198.95 197.2 198.05 197.55 198.0 197.65 197.7 198.25 195.45 Q198.5 194.65 198.9 194.25 L198.95 194.2 Q199.5 193.7 200.3 193.85 199.6 194.9 198.3 199.1 194.05 199.35 191.5 200.15 L189.55 200.85 Q175.4 200.85 172.5 198.45 171.55 197.7 171.6 196.45 L171.55 194.75 171.6 194.7 171.3 194.6 171.1 194.35 162.15 194.3 162.15 194.75 Q162.15 196.5 160.65 198.15 158.45 200.5 154.05 200.5 145.6 200.5 141.0 198.5 138.3 197.3 137.3 195.65 L136.8 194.5 136.7 194.2 134.9 194.0 133.0 193.85 130.9 193.5 128.05 193.15 126.75 194.55 124.8 196.35 117.15 196.35 114.9 196.35 111.05 196.35 110.65 196.35 102.65 193.7 Q101.25 192.95 101.25 190.9 101.25 189.85 101.4 189.45 98.65 188.8 94.2 186.75 L91.55 185.4 90.65 186.75 Q89.55 188.15 88.5 188.5 75.45 187.75 71.1 185.7 68.25 184.35 68.25 181.35 L68.3 180.0 62.55 176.25 60.3 174.7 59.4 175.35 Q57.9 176.35 57.5 176.35 L54.15 176.25 52.9 175.1 48.9 171.2 47.0 169.25 46.25 168.45 39.5 161.25 39.5 156.75 36.1 152.45 33.3 148.75 33.15 148.75 Q28.85 148.75 24.25 140.4 20.5 131.95 20.5 131.75 L20.5 130.55 20.4 129.95 20.25 127.35 Q20.3 126.65 20.5 126.15 L18.5 120.45 Q14.6 119.85 11.4 109.85 9.75 104.55 8.9 99.2 8.9 96.95 9.55 96.0 L11.55 93.7 11.25 91.15 10.6 85.65 Q5.9 85.45 4.9 80.85 4.4 78.3 4.5 74.15 L3.0 68.6 Q1.85 64.25 1.85 62.15 1.85 60.0 2.05 59.55 2.55 58.5 4.95 57.1 L4.75 54.4 4.9 50.85 Q3.0 49.4 2.4 47.6 2.2 47.1 1.75 43.0 L0.85 37.95 0.25 34.2 0.3 32.25 Q0.35 30.0 0.55 28.3 L0.6 27.9 Q1.15 24.35 2.25 23.95 L1.85 16.25 1.85 9.7 Q3.95 7.1 5.45 9.0 6.6 10.45 6.6 12.25 L6.55 13.1 7.25 18.0 8.0 23.35 Q9.0 24.8 10.1 27.85 L11.9 33.7 13.4 39.85 Q14.25 43.85 14.25 46.0 L14.1 48.55 11.75 52.4 10.95 52.4 11.1 54.2 11.15 54.15 11.1 54.3 11.5 57.65 Q15.2 60.3 17.3 70.25 18.75 77.1 18.75 81.0 L18.5 83.25 Q18.05 84.45 16.6 85.45 L17.1 87.75 Q17.7 89.2 18.5 92.5 L18.75 93.5 19.45 97.35 21.5 103.65 23.85 112.3 24.25 114.85 24.5 114.5 25.75 112.65 Q22.45 99.05 19.85 94.0 19.1 92.5 18.4 91.75 L18.5 91.4 Q21.55 93.4 24.15 100.7 L25.15 103.95 25.55 105.4 26.9 110.95 27.25 112.65 Q27.25 114.4 27.05 114.85 26.6 115.85 25.0 116.85 L28.05 122.4 30.2 126.55 Q34.15 125.8 37.9 133.85 41.15 140.9 41.15 144.1 L41.05 146.0 40.25 146.8 40.05 146.9 41.0 147.95 Q42.05 149.25 43.9 152.4 L44.0 152.25 44.05 152.25 44.35 152.25 49.75 152.3 52.5 154.75 55.55 157.6 Q62.15 164.1 62.15 167.0 L62.05 168.5 62.0 168.75 64.9 170.3 65.45 170.6 65.85 170.85 68.85 172.5 69.1 172.35 Q72.9 169.8 77.3 170.0 L79.0 170.2 Q80.9 170.45 82.95 171.3 L83.25 171.4 Q86.65 172.8 88.85 175.15 90.75 177.15 91.1 179.1 L93.3 179.8 102.4 182.9 Q102.4 180.45 103.2 179.65 104.05 178.9 106.45 179.25 L124.8 183.25 126.1 185.0 127.1 187.45 127.1 187.55 132.0 188.3 136.05 188.5 Q136.05 188.25 136.7 187.4 L136.9 187.15 137.35 186.65 138.05 186.1 149.5 185.9 151.75 185.9 153.05 185.85 153.55 185.6 159.8 185.75 160.4 186.6 160.95 188.0 161.2 188.65 161.3 188.85 161.25 188.9 161.3 189.05 169.4 189.55 171.0 189.65 171.0 189.6 171.95 189.45 172.8 187.65 Q173.85 185.95 175.05 185.6 L188.05 185.35 188.55 185.1 191.25 185.2 194.25 185.6 194.1 185.9 195.25 186.1 195.7 186.7 196.3 187.25 Q196.6 187.65 196.25 187.8 L197.3 187.45 200.65 186.45 201.55 186.2 201.6 185.4 201.7 184.75 Q202.4 181.15 205.65 179.8 207.4 179.05 212.35 177.5 L216.4 174.85 216.85 174.65 Q218.6 173.85 220.15 173.7 223.35 173.3 225.75 175.5 L228.4 173.95 Q228.8 173.7 229.25 173.55 229.9 170.55 233.3 168.7 237.3 166.45 249.15 163.75 L249.5 164.5 253.65 161.55 254.2 161.25 Q256.3 156.95 262.8 152.15 265.6 150.05 267.8 149.3 L267.9 149.25 Q271.3 148.05 273.3 149.95 L273.6 150.3 273.7 150.4 276.75 147.85 278.2 146.6 281.45 144.1 Q281.05 142.55 281.05 140.7 281.05 138.5 286.65 133.75 291.95 129.3 295.35 130.6 L296.4 129.65 298.45 127.85 299.8 126.65 300.5 126.0 301.25 124.7 Q300.8 124.25 300.6 123.4 L300.5 121.35 Q300.5 118.3 304.05 112.45 306.45 108.5 308.8 107.7 L309.5 107.5 310.45 107.5 Q311.9 103.2 313.7 100.3 L312.4 99.05 311.0 97.2 Q311.0 96.85 313.3 93.25 L316.55 87.65 318.55 82.7 Q320.2 80.0 323.2 80.15 L323.5 79.45 325.2 76.15 Q324.6 75.55 324.3 74.25 L324.0 71.85 Q324.0 68.05 325.95 62.1 328.65 53.9 333.2 54.3 L334.45 50.0 335.25 47.45 335.25 47.1 335.5 45.8 334.2 44.55 Q334.0 44.2 334.0 42.5 334.0 38.6 336.15 31.75 337.8 26.55 339.55 25.35 339.6 23.0 340.5 19.2 L340.6 18.9 Q338.65 18.6 338.0 16.15 337.7 14.75 337.8 13.15 337.8 10.15 338.9 6.15 340.05 1.9 341.55 0.0 L345.3 0.15 345.7 0.55 345.8 1.65 345.75 3.15 345.45 3.35 345.2 3.55 343.75 10.45 343.45 11.85 Q344.6 11.95 345.0 12.45 L345.25 14.4 345.35 14.4 345.4 14.6 345.8 12.25 Q346.6 7.75 347.0 6.65 347.8 4.2 348.75 2.9 349.85 1.35 351.15 1.5 352.9 1.7 353.25 4.15 M348.75 3.35 Q348.75 5.6 348.05 9.3 L346.75 15.65 346.8 15.9 Q348.5 15.4 350.25 11.1 351.8 7.35 351.8 5.5 351.8 4.25 351.5 3.8 350.95 2.8 349.05 2.9 L348.75 2.9 348.75 3.35 M340.9 17.5 L341.05 16.7 Q341.1 13.85 341.7 10.2 342.65 4.35 344.35 2.25 L344.3 1.75 342.4 1.75 342.05 1.75 341.7 2.5 Q341.1 3.85 340.35 6.95 339.3 11.1 339.3 13.0 L339.35 14.15 Q339.35 15.0 339.5 15.4 339.85 16.6 340.85 17.55 L340.9 17.5 M342.65 31.1 Q342.75 28.95 343.6 22.8 L343.75 21.65 343.35 21.65 343.1 21.3 343.0 20.35 Q343.0 18.65 344.0 15.65 L344.0 13.5 Q342.8 15.9 342.05 19.7 L341.65 21.9 341.45 23.35 341.55 24.4 341.5 25.25 341.55 25.25 341.5 25.35 341.35 26.65 341.3 26.95 Q340.75 30.35 340.75 30.85 L340.95 31.45 341.2 31.5 341.95 31.65 342.0 31.65 342.6 31.85 342.6 31.75 342.65 31.1 M335.35 43.0 L335.8 43.8 336.0 44.0 336.05 43.35 Q336.05 42.1 337.55 36.6 L339.05 30.75 339.15 30.75 339.65 28.75 Q339.0 30.2 338.3 32.2 L337.6 34.1 Q335.25 40.85 335.25 42.5 L335.35 43.0 M339.35 43.15 L340.05 43.15 341.65 37.15 342.8 33.5 342.75 33.25 342.55 33.25 341.3 33.05 341.05 32.9 340.2 32.8 340.1 32.8 337.35 42.6 337.85 41.8 338.35 41.25 338.7 41.5 338.75 42.4 338.7 43.35 339.35 43.15 M345.25 29.15 L344.25 28.15 343.9 30.2 344.3 29.4 Q344.55 28.9 344.55 30.15 L344.25 32.15 344.2 32.25 344.15 32.6 342.6 39.3 342.2 41.1 341.4 44.3 Q341.2 46.1 341.35 47.55 L341.45 47.5 342.05 47.0 343.9 42.6 344.5 40.0 Q344.55 39.6 345.95 35.75 L347.25 31.8 347.3 31.4 347.25 31.3 345.35 29.25 345.25 29.15 M336.9 59.9 L338.25 54.55 339.65 48.5 Q339.5 47.7 339.5 46.4 L339.65 45.15 339.6 45.1 339.25 44.8 338.6 43.85 Q338.1 46.8 335.8 53.0 L332.95 59.8 336.1 59.9 336.85 59.95 336.9 59.95 336.9 59.9 M334.6 74.3 L334.55 73.85 Q334.55 70.15 336.45 65.8 337.45 63.5 340.55 58.0 L339.6 57.85 338.7 57.55 338.1 59.15 338.25 60.0 338.25 60.2 338.35 60.4 338.1 61.2 337.9 61.3 336.1 65.75 335.7 66.65 335.45 67.25 332.6 74.35 332.55 74.5 332.4 74.9 332.65 74.85 333.95 74.65 334.45 74.6 334.75 74.6 334.6 74.3 M328.45 60.65 L327.5 62.9 Q325.45 68.35 325.25 71.2 L325.25 71.55 325.25 71.65 325.95 74.05 326.15 74.6 326.8 73.75 326.75 73.4 327.15 71.65 327.55 69.85 Q327.55 69.2 329.55 64.9 L331.0 61.5 331.05 61.4 330.6 61.25 331.1 60.75 331.25 60.75 331.4 60.3 331.35 60.25 331.4 60.25 331.55 59.75 331.55 59.4 331.65 59.4 332.95 55.1 Q331.0 56.0 329.25 59.1 L328.45 60.65 M333.1 61.55 L332.45 61.55 331.05 65.85 330.2 67.85 328.75 71.05 329.6 70.15 332.25 70.25 333.05 66.85 Q334.05 63.65 335.6 61.55 L334.1 61.55 333.1 61.55 M330.35 71.65 Q329.4 71.85 329.15 72.4 L329.1 72.85 Q328.85 73.75 328.35 74.25 326.25 79.3 322.9 85.3 L323.2 85.5 323.25 86.4 323.25 86.65 324.3 87.0 325.65 87.55 325.6 86.75 Q325.6 85.75 328.25 79.95 L331.1 73.9 331.45 73.25 332.0 72.15 332.0 71.5 331.95 71.5 330.35 71.65 M328.35 85.35 L328.5 83.6 328.25 84.2 326.45 87.85 326.75 88.0 326.85 88.4 Q327.3 88.75 326.25 88.75 326.2 89.95 323.75 94.95 321.3 99.95 320.3 101.0 L320.3 101.2 320.25 100.45 Q320.25 99.95 320.7 98.6 L319.15 102.15 321.75 101.75 323.25 101.6 Q323.75 99.8 324.8 96.8 L326.45 92.35 327.15 90.4 327.55 89.05 327.65 88.7 328.35 85.35 M324.5 89.4 L325.1 88.55 324.8 88.45 324.7 88.45 323.25 87.95 322.9 87.8 322.8 88.1 Q321.85 90.1 319.3 93.75 L317.75 95.85 317.85 95.75 318.25 96.15 318.2 96.25 318.7 96.3 318.95 96.35 Q319.85 96.55 321.15 97.1 L322.0 94.8 Q323.3 91.3 324.5 89.4 M322.5 81.75 L322.75 81.15 322.3 81.55 Q320.05 83.75 316.9 88.95 312.8 95.7 312.75 97.0 L312.75 97.05 Q312.75 97.5 313.5 98.55 L313.75 98.9 314.2 99.55 314.3 99.4 314.55 98.95 Q316.3 95.2 318.3 91.65 L321.15 87.2 321.1 86.6 320.85 86.25 321.1 86.3 Q321.15 84.95 322.5 81.75 M318.35 96.6 L318.1 96.35 317.45 97.55 314.05 104.35 312.15 108.15 312.25 108.25 312.0 108.45 311.25 109.7 311.25 110.45 Q311.25 111.1 310.85 112.15 L312.15 113.35 312.4 112.4 Q313.3 110.2 314.95 109.3 L319.6 98.2 318.35 96.6 M170.3 190.8 L169.6 190.75 164.0 190.5 161.65 190.3 Q161.5 190.6 160.65 190.75 L160.6 190.7 160.5 190.65 160.15 190.15 159.15 190.0 159.1 190.0 159.1 190.1 159.25 191.8 159.25 192.3 159.25 193.0 159.4 193.0 166.35 192.75 170.2 192.6 173.65 192.45 175.9 190.8 175.2 190.8 175.05 190.85 170.3 190.8 M177.75 186.85 L174.75 186.85 173.55 189.2 173.5 189.3 175.4 189.2 180.55 189.1 181.1 189.1 180.55 188.75 183.55 188.7 187.05 188.9 187.85 188.95 189.2 189.15 193.15 189.7 190.9 190.7 191.05 191.05 191.55 192.85 192.15 193.0 192.25 193.0 193.3 193.1 194.55 192.95 198.6 191.6 202.05 190.25 205.2 188.95 206.05 188.6 207.75 188.7 208.0 188.75 208.85 188.85 208.5 188.3 208.4 188.15 208.05 187.55 Q207.4 186.6 206.4 186.15 204.5 187.25 202.05 188.15 198.05 189.55 192.55 190.45 L192.55 190.25 196.4 187.9 196.25 187.8 194.55 186.35 193.8 187.5 193.5 187.35 193.4 187.1 193.25 186.75 193.15 186.4 192.25 186.45 191.25 186.5 188.55 186.85 179.55 186.85 177.75 186.85 M190.55 192.9 Q190.05 192.15 190.05 191.0 L190.05 190.6 189.3 190.35 189.45 190.25 186.85 190.25 186.55 190.35 180.55 190.85 179.55 190.85 Q179.05 191.8 177.55 193.0 L175.95 194.15 177.55 195.35 Q179.55 196.6 182.05 196.6 L194.05 196.0 195.65 194.45 195.8 194.25 194.05 194.35 Q191.5 194.35 190.6 193.0 L190.55 192.9 M239.65 167.15 Q236.1 168.4 234.3 169.75 232.3 171.2 231.4 172.55 L232.8 172.15 Q235.55 170.9 241.25 168.85 L245.15 167.45 245.65 167.25 246.0 167.0 246.7 166.5 248.45 165.25 248.35 165.2 247.9 165.0 247.15 165.05 241.95 166.35 239.65 167.15 M236.1 172.3 Q237.75 173.15 237.75 176.25 L237.45 176.5 Q240.75 175.9 243.95 174.1 L246.65 172.75 Q246.1 172.1 245.5 170.75 L244.55 168.5 244.55 168.45 244.4 168.55 240.1 170.55 238.65 171.1 235.9 172.2 236.1 172.3 M220.25 178.75 L221.75 178.4 221.9 178.3 221.95 178.2 224.4 176.4 Q222.8 176.45 222.0 175.9 L220.65 175.1 Q218.1 176.25 216.05 177.25 210.85 179.65 208.35 180.95 204.2 183.05 202.9 185.25 L202.55 185.9 203.95 185.5 204.55 185.15 207.3 183.6 207.65 183.45 212.65 181.25 216.9 179.7 220.25 178.75 M222.05 179.95 L221.75 180.05 222.05 181.05 222.15 181.45 222.25 182.65 222.25 183.05 222.45 183.6 223.35 183.8 229.4 180.0 Q230.8 179.1 231.9 178.45 L232.7 177.95 235.75 176.0 236.0 175.75 236.0 175.45 235.5 174.35 235.0 173.5 233.8 173.85 234.3 174.8 233.0 174.15 Q231.35 174.85 228.8 176.3 L228.55 176.45 222.05 179.95 M219.0 180.6 L219.4 180.2 214.35 182.2 206.55 185.1 Q208.4 185.3 210.25 188.4 210.25 189.65 210.05 189.35 L210.0 189.55 212.55 188.8 217.75 187.25 221.4 185.05 221.75 184.9 Q221.1 184.4 221.0 183.25 220.75 181.25 219.25 181.25 219.0 181.85 219.0 180.6 M208.5 190.05 L209.4 189.75 209.2 189.45 207.95 190.15 205.1 191.45 205.65 192.85 Q206.15 193.95 206.85 194.1 L207.05 194.1 207.25 194.1 Q210.15 194.0 217.85 190.7 L220.65 189.5 224.7 187.9 224.9 187.85 225.7 187.55 Q226.05 186.05 226.95 183.75 L225.05 184.7 225.05 184.75 Q222.9 186.7 220.6 188.05 L219.9 188.45 Q215.55 190.65 207.3 191.1 L207.05 190.75 Q207.5 190.45 208.5 190.05 M243.9 175.85 Q240.6 177.75 238.55 177.75 L235.95 177.65 232.2 180.45 231.85 180.65 232.3 181.15 232.85 181.6 235.55 182.1 Q239.85 182.1 245.1 178.7 L245.4 178.5 Q250.1 175.45 251.05 171.9 248.95 173.1 247.8 173.25 L244.65 175.4 243.9 175.85 M315.75 110.75 L315.6 110.55 315.55 110.85 Q314.75 113.9 311.85 118.6 L311.8 118.7 Q307.5 125.7 306.3 128.1 309.4 127.65 312.75 122.1 L313.3 121.2 Q315.7 117.1 317.05 112.65 L315.75 110.75 M306.3 110.9 L305.95 111.45 304.35 114.25 Q302.8 117.4 302.25 120.2 301.9 121.9 301.95 123.5 L302.55 122.35 302.85 121.8 303.9 120.25 306.0 117.1 308.7 112.7 308.5 112.5 Q308.65 111.85 309.25 111.3 L310.15 108.4 309.65 108.4 Q308.1 108.4 306.3 110.9 M311.65 114.8 L310.05 113.85 307.3 118.05 306.1 119.75 307.25 121.15 307.8 121.95 310.5 117.5 311.65 114.8 M306.05 122.2 L305.55 121.2 305.1 122.35 Q303.85 124.8 300.5 128.35 L300.1 128.75 293.95 134.85 293.85 134.9 293.9 134.9 Q294.95 134.75 296.05 135.7 L296.85 136.55 296.9 136.6 298.0 135.75 298.25 135.45 300.75 132.4 301.7 131.25 304.15 128.35 304.65 127.65 304.65 127.6 304.55 127.25 305.55 125.55 306.6 123.85 306.3 122.65 306.15 122.35 306.05 122.2 M294.55 131.5 L294.6 131.4 294.45 131.35 294.0 131.0 Q292.9 131.0 291.6 131.65 290.8 132.0 289.95 132.6 L286.75 135.3 Q282.15 139.8 282.0 143.65 L283.45 142.7 285.75 139.4 286.4 138.45 287.6 136.9 Q289.35 134.9 291.1 133.8 292.4 132.95 293.7 132.55 L294.55 131.5 M300.15 139.35 L300.75 138.0 300.05 135.0 299.9 135.25 299.75 135.35 299.75 135.5 Q299.75 137.2 295.6 140.8 L293.75 142.3 289.65 145.3 287.25 147.0 285.8 148.0 285.25 147.25 285.75 146.8 292.35 140.65 295.8 137.6 294.8 136.85 292.85 135.25 293.15 135.1 293.1 135.05 293.05 134.8 288.85 138.6 285.9 141.45 286.6 141.25 286.0 141.9 286.35 141.9 286.65 142.2 286.75 143.2 Q286.75 144.2 286.25 145.45 L287.1 145.25 285.75 146.7 283.35 149.3 284.15 149.55 284.6 149.7 286.5 150.25 286.8 150.25 Q287.15 150.25 291.5 147.2 L297.25 142.8 297.5 142.5 300.15 139.35 M285.55 143.1 L285.6 142.35 285.5 142.5 282.1 145.65 282.05 145.65 281.3 146.3 279.1 148.05 278.8 148.25 274.35 151.4 Q274.65 151.8 273.7 151.8 L272.65 152.4 271.3 153.5 271.25 153.55 271.0 153.7 Q270.9 154.4 271.35 155.75 L271.65 156.55 271.75 156.8 271.8 156.9 Q272.65 156.45 273.3 156.25 L273.45 156.35 275.8 154.7 276.1 154.5 276.1 154.45 276.0 154.3 276.4 154.3 277.8 153.3 279.1 151.9 280.2 150.6 Q283.05 147.15 285.25 145.95 L285.1 145.75 285.5 143.9 285.55 143.1 M275.95 156.75 L275.95 156.7 275.9 156.75 Q273.85 158.0 272.6 158.05 L272.55 158.05 272.45 158.05 272.6 158.25 272.35 158.55 271.85 158.45 268.85 160.45 Q266.05 162.1 261.75 164.2 L258.65 166.5 258.3 166.8 258.55 166.75 Q259.2 166.75 259.95 167.4 260.7 168.0 261.3 168.0 L263.4 167.35 266.5 165.2 271.05 161.55 Q273.5 160.1 275.05 158.1 L275.55 157.4 275.95 156.75 M267.1 154.3 L272.1 151.35 271.25 150.4 270.8 149.5 270.2 149.85 268.5 150.85 Q261.05 155.05 260.85 155.2 L259.1 156.5 Q257.3 157.9 256.3 159.35 L255.6 160.5 Q257.85 159.35 259.4 159.1 261.75 157.5 266.15 154.85 266.65 154.55 267.1 154.3 M270.25 156.55 L269.8 154.55 267.6 155.95 261.55 159.3 Q262.75 159.9 262.75 162.0 L262.75 162.25 267.15 159.5 Q269.15 158.25 270.65 157.5 L270.25 156.55 M253.4 163.6 L252.8 163.95 250.3 165.5 Q250.55 165.85 249.95 165.7 246.9 167.65 246.4 168.35 L246.25 168.55 246.25 168.7 246.25 168.75 246.5 169.9 246.75 171.25 246.85 171.4 247.65 171.55 249.55 171.2 251.3 169.6 251.3 169.5 251.65 169.35 Q253.0 168.3 255.1 167.05 L255.5 166.8 258.3 165.15 258.5 165.05 260.3 163.95 260.05 163.75 260.85 163.35 261.5 161.3 Q261.1 160.95 260.4 160.9 259.45 160.8 258.0 161.35 256.7 161.75 255.05 162.65 L255.05 162.8 254.55 163.25 254.2 163.15 253.4 163.6 M5.2 13.05 L4.95 12.3 4.75 11.55 4.3 10.1 4.25 9.95 3.1 9.95 3.1 10.0 3.35 20.0 3.6 26.8 3.6 28.15 4.1 29.0 5.05 28.75 5.7 28.65 5.9 28.6 6.65 28.5 6.95 28.45 6.65 26.8 6.6 26.5 Q5.4 19.65 5.35 14.15 L5.35 13.65 5.2 13.05 M8.05 27.2 L8.3 28.3 8.5 28.3 8.35 28.65 9.7 34.95 Q11.75 44.6 11.75 46.7 L11.65 47.9 11.25 48.75 10.55 46.55 10.75 50.3 10.75 50.15 12.6 47.7 12.75 45.65 11.85 39.4 Q10.9 34.4 10.9 33.85 L9.25 28.35 8.1 25.25 8.05 27.2 M7.55 32.55 L7.15 29.7 6.8 29.85 5.35 30.15 4.6 30.25 4.85 31.2 5.0 32.85 Q5.0 34.9 6.0 37.9 L6.0 45.4 Q7.25 43.15 9.55 42.5 L8.85 39.25 7.55 32.55 M2.35 29.05 L2.45 27.9 2.45 27.4 2.35 27.6 2.05 28.65 1.6 30.45 Q1.6 32.15 3.35 39.7 L5.15 46.45 Q5.0 43.65 5.0 39.75 5.0 37.9 3.7 34.25 2.6 31.25 2.4 29.95 L2.1 29.7 2.35 29.6 2.35 29.45 2.35 29.05 M9.4 44.0 L9.35 43.8 Q7.6 45.45 6.75 47.7 L6.8 49.8 6.8 50.55 7.25 51.25 6.85 51.75 6.95 53.5 7.4 60.25 6.9 59.9 6.95 62.7 7.05 63.05 9.1 63.2 10.05 63.3 10.45 63.35 10.4 62.65 10.0 57.9 9.95 56.15 Q10.05 55.35 10.35 54.85 L10.35 54.35 10.3 54.05 10.05 50.65 9.75 46.9 9.4 44.1 9.4 44.0 M14.0 65.3 Q12.7 60.9 11.65 58.85 L11.9 60.45 12.35 63.3 12.0 63.55 11.5 61.95 Q12.25 66.75 13.95 74.55 L16.15 83.6 16.6 82.9 Q17.25 81.95 17.25 81.25 17.25 77.15 14.9 68.45 L14.0 65.3 M5.1 59.25 L5.0 57.45 Q3.75 59.8 3.35 61.1 L3.1 62.15 4.4 67.9 5.9 73.75 Q6.0 77.95 6.45 79.95 7.15 82.95 10.45 84.25 L10.35 83.25 10.35 82.95 Q6.45 69.0 5.7 63.95 L5.25 63.95 5.1 59.25 M8.25 64.4 L7.45 64.35 Q8.3 67.15 9.35 71.7 L9.75 73.25 9.8 73.6 11.15 79.45 Q11.7 78.85 12.75 79.65 L13.3 80.1 Q12.45 76.55 11.7 71.9 L10.6 64.45 9.3 64.4 8.25 64.4 M14.45 84.4 L13.65 81.6 13.2 81.65 Q12.1 81.8 11.7 82.35 L12.0 84.5 11.95 85.7 Q13.75 97.5 13.75 99.65 L13.75 100.45 14.35 100.45 16.15 99.8 16.5 99.6 18.35 98.45 18.4 98.4 18.4 98.3 16.5 91.0 16.9 91.0 17.1 90.95 16.9 90.2 16.7 89.35 16.65 89.4 Q15.45 87.75 14.45 84.4 M12.85 101.9 L12.75 101.45 12.6 101.45 12.35 99.75 11.55 95.8 11.35 96.05 Q10.15 97.85 10.15 99.25 10.15 101.5 13.45 109.25 15.4 113.85 17.1 116.5 15.8 113.6 14.2 107.4 L14.15 107.2 14.1 107.1 12.85 101.9 M21.3 112.6 L21.85 112.35 19.75 103.95 18.9 100.45 18.65 100.75 Q17.85 101.7 14.5 101.7 L14.1 101.7 Q16.0 108.55 18.25 114.55 18.75 113.95 19.8 113.35 L21.3 112.6 M28.85 132.2 L30.15 131.45 29.9 130.25 29.9 130.1 26.0 122.15 23.75 117.4 23.4 117.3 23.3 116.9 23.15 116.9 22.5 114.7 22.15 113.95 19.6 115.9 19.3 116.15 19.0 116.5 19.25 117.2 19.75 118.4 Q20.15 118.9 19.45 119.0 L19.25 119.0 19.4 119.3 19.55 119.45 19.65 119.5 19.75 119.9 19.85 120.35 19.8 120.35 20.2 121.25 21.6 124.6 21.75 124.9 21.8 125.05 24.55 131.75 25.25 131.75 25.8 133.65 27.9 132.65 28.85 132.2 M39.75 143.55 Q34.35 130.75 30.65 127.55 32.0 130.4 32.0 131.2 L31.95 131.3 33.15 133.7 Q34.5 136.4 34.5 138.45 34.5 139.45 37.4 143.9 L37.3 144.1 38.9 145.65 39.15 145.2 39.75 144.25 39.9 143.9 39.75 143.55 M29.85 144.2 L27.65 140.8 Q25.25 136.95 24.65 134.8 23.75 133.85 22.55 131.25 L21.75 129.4 Q22.2 132.1 23.65 135.35 L24.1 136.35 Q25.3 138.9 26.9 141.45 L29.95 144.45 30.1 144.55 29.85 144.2 M27.15 134.85 L26.4 135.15 27.05 136.55 28.6 139.45 31.45 144.45 Q31.85 140.0 35.3 142.45 L35.6 142.65 Q34.4 140.95 32.75 137.55 L30.5 132.55 30.35 132.7 Q29.7 133.2 29.15 133.65 L28.7 133.95 27.15 134.85 M23.45 137.2 Q21.75 133.75 21.0 131.9 21.5 134.6 23.65 137.65 L23.45 137.2 M33.0 145.2 L32.65 145.45 37.25 151.85 Q39.5 154.85 41.4 156.85 L42.05 157.5 42.8 158.05 43.35 158.05 46.0 157.7 46.4 157.55 46.0 156.95 40.9 150.35 35.65 143.8 Q34.55 144.2 33.55 144.85 L33.0 145.2 M60.8 168.15 L60.95 168.2 60.95 167.7 60.9 166.85 Q60.9 165.45 56.3 160.6 L55.05 159.3 48.9 153.3 46.3 153.15 44.9 153.05 44.75 153.0 44.3 152.95 44.8 153.6 45.55 154.4 45.85 154.75 46.0 154.55 Q50.55 156.8 54.25 161.2 L55.05 162.2 58.95 167.3 59.9 167.7 60.8 168.15 M69.9 173.0 L69.8 173.05 70.0 173.15 71.15 173.8 71.15 173.55 76.05 174.5 81.05 175.75 88.35 177.85 89.15 178.1 89.2 178.5 89.45 178.6 89.25 178.05 Q88.7 176.1 87.75 175.0 L87.1 174.3 Q86.1 173.35 85.15 173.0 L83.95 172.8 80.9 173.05 80.1 172.65 78.75 172.0 71.85 171.5 71.4 171.5 70.9 172.05 69.9 173.0 M50.4 168.8 L49.15 167.4 42.9 159.3 41.65 159.3 40.8 158.35 Q41.95 162.1 45.35 166.5 L45.5 166.65 46.9 168.4 49.1 170.85 Q53.1 175.0 55.15 175.0 L58.0 174.5 Q55.95 174.25 52.9 171.45 L51.0 169.5 50.4 168.8 M44.45 159.35 L44.35 159.35 44.5 159.5 49.35 164.15 56.0 170.85 56.65 169.4 57.4 167.25 52.5 162.55 48.3 158.4 46.5 159.35 44.45 159.35 M58.55 169.55 L57.65 171.1 60.45 173.1 60.5 173.05 60.75 173.35 64.6 176.15 66.65 177.6 68.8 178.95 68.75 178.6 69.15 178.6 69.75 179.3 69.95 179.6 71.4 180.35 71.7 179.95 Q73.15 177.75 74.25 176.7 L74.35 176.6 74.15 176.5 66.2 172.15 Q62.6 170.35 59.3 169.05 L59.15 169.05 59.05 168.95 58.9 168.9 58.8 168.85 58.55 169.55 M59.15 173.85 L59.15 173.9 59.2 173.9 59.15 173.85 M76.75 182.4 L83.45 183.0 87.55 183.4 86.4 182.8 86.4 179.1 Q79.85 178.85 75.7 177.15 L74.35 179.45 73.6 180.45 73.5 180.55 73.2 180.85 73.25 180.85 Q74.55 181.1 76.5 182.35 L76.75 182.4 M80.7 184.2 L78.9 184.0 72.0 181.8 71.55 182.1 70.65 181.65 72.4 183.6 Q74.4 185.35 76.95 186.2 L79.25 186.7 81.65 186.85 88.0 186.75 Q89.0 186.55 89.7 185.6 L89.95 185.3 90.35 184.8 88.55 183.9 88.55 183.95 88.5 184.0 88.0 184.35 83.55 184.25 80.7 184.2 M70.3 180.95 L70.15 180.85 70.6 181.55 70.8 181.25 70.3 180.95 M98.05 163.85 L99.65 165.2 98.25 164.1 98.05 163.85 M98.1 183.05 L93.75 181.65 88.4 179.5 87.75 179.65 87.65 180.65 Q87.65 182.55 95.3 185.45 L98.55 186.7 102.7 188.3 102.75 188.25 102.75 188.3 103.3 188.5 103.55 187.45 Q104.2 185.55 105.3 184.75 L105.5 184.6 104.9 184.15 104.9 184.25 104.8 184.3 104.15 184.55 98.1 183.05 M120.0 184.05 L117.7 183.65 113.25 182.6 105.9 180.6 104.7 182.7 107.15 183.0 107.9 183.15 111.65 183.85 117.95 185.3 121.4 186.15 121.4 185.85 Q121.75 185.75 123.6 186.45 L124.6 186.8 124.4 186.4 124.25 186.1 124.25 186.05 123.9 184.75 123.9 184.6 123.9 184.5 120.0 184.05 M104.1 183.45 L104.05 183.45 104.15 183.5 104.35 183.6 104.2 183.35 104.1 183.4 104.1 183.45 M106.15 189.7 L107.8 189.75 114.55 190.75 121.9 191.5 Q121.75 190.55 121.4 190.0 L121.4 188.0 Q110.3 187.8 105.9 184.9 L105.9 184.95 105.9 185.35 Q105.9 186.3 105.35 188.05 L105.3 188.3 105.1 188.9 104.85 189.65 106.15 189.7 M111.6 191.85 L103.65 191.25 Q103.4 191.85 103.4 190.85 L103.3 190.85 Q103.05 191.55 103.05 190.3 L103.1 189.75 102.65 189.7 102.3 190.5 Q102.15 191.45 104.75 192.1 106.0 192.4 111.65 194.85 L116.15 194.85 121.1 194.8 122.2 194.75 124.05 194.75 125.2 193.9 125.7 193.45 126.25 193.0 126.35 192.9 126.3 192.9 124.65 192.65 124.55 193.2 124.15 193.45 123.55 193.5 119.85 193.15 117.55 192.75 116.8 192.5 113.85 192.1 111.6 191.85 M132.9 190.5 L128.45 189.4 123.95 187.9 123.05 188.0 122.7 188.0 Q122.95 190.1 124.0 190.7 125.85 191.7 132.8 192.65 L135.65 193.0 139.7 192.9 140.05 192.85 140.05 192.6 139.8 191.45 138.35 191.05 132.9 190.5 M137.45 189.65 L140.3 189.85 140.4 190.0 Q143.75 188.85 150.85 188.35 L152.6 188.25 159.5 188.1 Q159.25 187.2 158.9 187.0 L156.15 187.1 153.05 187.35 152.3 187.35 137.8 187.6 Q137.4 188.05 137.4 188.9 L137.4 189.1 137.4 189.5 137.2 189.55 137.15 189.6 137.45 189.65 M141.05 191.5 L141.05 192.3 141.0 193.05 145.15 193.35 158.05 193.8 158.05 190.15 158.1 190.0 150.8 190.9 141.55 191.5 141.05 191.5 M137.55 194.25 L137.3 194.25 Q138.5 196.25 142.55 197.55 146.6 198.85 151.65 198.85 L153.8 198.85 153.85 195.1 143.9 194.6 139.1 194.35 137.55 194.25 M160.75 194.3 L159.9 194.25 160.0 194.5 160.65 194.85 160.9 194.5 161.05 194.3 160.75 194.3 M159.9 197.85 L159.75 198.0 160.25 197.55 159.9 197.85" fill="#3b3b3b" fill-rule="evenodd" stroke="none"/>
      <path d="M353.25 4.15 L353.5 5.95 Q353.5 9.0 352.15 11.55 353.3 8.35 353.3 5.4 L353.25 4.15 M346.1 28.45 L346.1 28.4 346.2 28.5 346.1 28.45 M339.75 54.45 L339.4 56.25 339.2 56.85 338.95 56.8 339.75 54.45 M341.35 58.45 L341.5 58.65 340.95 59.65 341.35 58.45 M297.6 143.35 L297.45 143.5 297.6 143.35 M117.15 196.35 L114.55 196.75 114.9 196.35 117.15 196.35 M52.9 175.1 Q50.75 174.1 48.65 171.55 L48.9 171.2 52.9 175.1 M10.1 27.85 L11.5 31.3 Q13.35 36.7 13.4 39.85 L11.9 33.7 10.1 27.85 M18.75 93.5 Q19.3 93.65 19.85 94.0 22.45 99.05 25.75 112.65 L24.5 114.5 24.25 114.85 23.85 112.3 Q23.65 108.95 21.85 104.55 L21.5 103.65 19.45 97.35 18.75 93.5 M25.55 105.4 Q26.75 105.45 26.95 107.7 L26.9 110.15 26.9 110.95 25.55 105.4 M40.25 146.8 L41.4 148.15 44.05 151.8 44.05 152.25 44.0 152.25 43.9 152.4 Q42.05 149.25 41.0 147.95 L40.05 146.9 40.25 146.8 M65.8 170.75 L66.15 170.9 Q67.7 171.55 69.1 172.35 L68.85 172.5 65.85 170.85 65.8 170.75 M78.9 170.05 Q81.05 170.2 82.9 171.25 L82.95 171.3 Q80.9 170.45 79.0 170.2 L78.9 170.05 M151.6 185.5 Q159.9 184.15 160.4 186.6 L159.8 185.75 153.55 185.6 153.05 185.85 151.75 185.9 151.6 185.5 M201.45 185.05 L201.7 184.75 201.6 185.4 201.45 185.05 M216.85 174.65 L217.2 174.3 Q218.6 173.4 220.15 173.7 218.6 173.85 216.85 174.65 M267.8 149.3 L267.8 149.25 267.9 149.25 267.8 149.3 M273.3 149.95 L273.55 149.8 273.6 150.25 273.6 150.3 273.3 149.95 M299.7 126.25 L301.25 124.7 300.5 126.0 299.8 126.65 299.7 126.25 M349.05 2.9 Q350.95 2.8 351.5 3.8 351.8 4.25 351.8 5.5 351.8 7.35 350.25 11.1 348.5 15.4 346.8 15.9 L346.75 15.65 348.05 9.3 Q348.75 5.6 348.75 3.35 L349.05 2.9 M342.05 19.7 Q342.8 15.9 344.0 13.5 L344.0 15.65 Q343.0 18.65 343.0 20.35 L343.1 21.3 343.35 21.65 343.75 21.65 343.6 22.8 Q342.75 28.95 342.65 31.1 L342.6 31.1 342.0 31.65 341.95 31.65 341.2 31.5 341.2 30.7 341.35 26.65 341.5 25.35 341.55 25.25 341.5 25.25 341.55 24.4 342.05 19.7 M344.15 32.6 L344.2 32.25 344.25 32.15 344.55 30.15 Q344.55 28.9 344.3 29.4 L343.9 30.2 344.25 28.15 345.25 29.15 345.3 29.25 345.35 29.25 347.25 31.3 347.25 31.8 345.95 35.75 Q344.55 39.6 344.5 40.0 L343.9 42.6 342.05 47.0 341.45 47.5 341.35 47.55 Q341.2 46.1 341.4 44.3 L342.2 41.1 342.5 40.15 343.7 36.3 Q344.25 34.2 344.25 33.0 L344.15 32.6 M339.6 45.1 L339.65 45.15 339.5 46.4 Q339.5 47.7 339.65 48.5 L338.25 54.55 336.9 59.9 336.85 59.95 336.1 59.9 336.1 57.2 Q338.25 51.3 339.6 45.1 M336.1 65.75 L337.9 61.3 338.1 61.2 338.35 60.4 338.25 60.2 338.25 60.0 338.1 59.15 338.7 57.55 339.6 57.85 340.55 58.0 Q337.45 63.5 336.45 65.8 334.55 70.15 334.55 73.85 L334.6 74.3 334.45 74.6 333.95 74.65 332.65 74.85 332.6 74.35 335.45 67.25 336.1 66.25 336.1 65.75 M331.45 73.25 L331.1 73.9 331.1 73.75 331.45 73.25 M159.15 190.0 L159.1 190.1 159.1 190.0 159.15 190.0 M159.25 191.8 L159.4 193.0 159.25 193.0 159.25 192.3 159.25 191.8 M170.2 192.6 L170.3 190.8 175.05 190.85 175.2 190.8 175.9 190.8 173.65 192.45 170.2 192.6 M187.05 188.9 L183.55 188.7 180.55 188.75 181.1 189.1 180.55 189.1 175.4 189.2 173.5 189.3 173.55 189.2 174.75 186.85 177.75 186.85 178.1 187.15 179.55 186.85 188.55 186.85 191.25 186.5 192.25 186.45 Q192.85 186.65 193.4 187.1 L193.5 187.35 193.8 187.5 194.55 186.35 196.25 187.8 196.4 187.9 192.55 190.25 192.55 190.45 192.15 193.0 191.55 192.85 191.05 191.05 190.9 190.7 193.15 189.7 189.2 189.15 187.85 188.95 187.25 188.85 187.05 188.9 M190.6 193.0 L190.55 193.0 190.55 192.9 190.6 193.0 M185.8 197.85 L186.05 197.85 194.8 197.1 195.0 196.95 195.8 196.7 195.9 196.1 Q196.95 194.95 197.05 194.25 L198.9 194.25 Q198.5 194.65 198.25 195.45 L197.65 197.7 197.2 198.05 192.05 198.95 185.85 199.5 185.8 197.85 M202.05 190.25 L202.05 188.15 Q204.5 187.25 206.4 186.15 207.4 186.6 208.05 187.55 L208.4 188.15 206.55 187.75 205.2 188.95 202.05 190.25 M241.25 168.85 L239.65 167.15 241.95 166.35 247.15 165.05 247.6 165.1 Q247.05 165.65 246.7 166.5 L246.0 167.0 Q245.3 167.05 245.15 167.45 L241.25 168.85 M244.55 168.5 L244.4 168.55 244.55 168.45 244.55 168.5 M221.9 178.3 L221.5 178.3 221.5 178.35 220.25 178.75 216.9 179.7 217.05 179.25 Q216.4 178.25 216.05 177.25 218.1 176.25 220.65 175.1 L222.0 175.9 Q222.8 176.45 224.4 176.4 L221.95 178.2 221.9 178.3 M222.05 181.05 L221.75 180.05 222.05 179.95 222.05 181.05 M228.55 176.45 L228.8 176.3 Q231.35 174.85 233.0 174.15 L234.3 174.8 233.8 173.85 235.0 173.5 235.5 174.35 236.0 175.45 235.75 176.0 232.7 177.95 232.05 178.25 231.9 178.45 Q230.8 179.1 229.4 180.0 229.45 177.6 228.55 176.45 M204.55 185.15 L203.95 185.5 202.55 185.9 202.9 185.25 204.55 185.15 M220.65 189.5 L219.9 188.45 220.6 188.05 Q222.9 186.7 225.05 184.75 L225.05 184.7 226.95 183.75 Q226.05 186.05 225.7 187.55 L224.9 187.85 224.85 187.8 224.85 187.75 224.7 187.9 220.65 189.5 M245.1 178.7 L245.1 178.25 Q244.75 176.75 243.9 175.85 L244.65 175.4 247.8 173.25 Q248.95 173.1 251.05 171.9 250.1 175.45 245.4 178.5 L245.1 178.7 M315.55 110.85 L315.6 110.75 315.75 110.75 317.05 112.65 Q315.7 117.1 313.3 121.2 312.85 119.6 311.8 118.7 L311.85 118.6 Q314.75 113.9 315.55 110.85 M305.1 122.35 L306.05 122.2 306.15 122.35 306.3 122.65 Q305.8 124.0 305.55 125.55 L304.55 127.25 304.65 127.6 304.15 128.35 301.7 131.25 300.75 132.4 300.1 128.75 300.5 128.35 Q303.85 124.8 305.1 122.35 M291.6 131.65 L294.55 131.5 293.7 132.55 Q292.4 132.95 291.1 133.8 L291.1 133.75 289.95 132.6 Q290.8 132.0 291.6 131.65 M298.25 135.45 L298.0 135.75 296.9 136.6 296.85 136.55 298.25 135.45 M299.9 135.25 L300.0 135.4 Q300.5 136.2 300.5 137.6 L300.15 139.35 297.5 142.5 297.25 142.8 Q296.7 141.6 295.6 140.8 299.75 137.2 299.75 135.5 L299.75 135.35 299.9 135.25 M285.55 143.1 L285.5 143.9 285.1 145.75 285.25 145.95 Q283.05 147.15 280.2 150.6 L279.1 151.9 279.1 148.05 281.3 146.3 281.3 146.4 281.45 146.35 281.55 146.2 282.05 145.65 282.1 145.65 285.5 142.5 285.55 143.1 M275.9 156.75 L275.95 156.75 275.55 157.4 270.3 161.95 Q269.75 161.05 268.85 160.45 L271.85 158.45 272.35 158.55 272.6 158.25 272.45 158.05 272.55 158.05 272.6 158.05 Q273.85 158.0 275.9 156.75 M271.25 150.4 L272.1 151.35 267.1 154.3 267.1 154.25 266.15 152.3 Q267.55 151.55 268.75 151.1 L268.5 150.85 270.2 149.85 270.8 150.2 271.1 150.4 271.25 150.4 M255.1 167.05 L255.1 166.75 254.8 166.2 Q254.4 164.55 253.4 163.6 L254.2 163.15 254.55 163.25 255.05 162.8 255.05 162.65 Q256.7 161.75 258.0 161.35 L260.35 160.9 260.4 160.9 Q261.1 160.95 261.5 161.3 L260.85 163.35 260.05 163.75 260.3 163.95 258.5 165.05 258.5 164.95 258.3 165.15 255.5 166.8 255.1 167.05 M4.75 11.55 L4.95 12.3 5.2 13.05 5.35 14.15 Q5.4 19.65 6.6 26.5 L6.25 27.55 6.25 27.6 6.2 28.35 6.15 28.15 6.05 28.2 5.9 28.6 5.7 28.65 4.75 11.55 M8.05 27.2 L8.1 25.25 9.25 28.35 10.9 33.85 Q10.9 34.4 11.85 39.4 L12.75 45.65 12.6 47.7 10.75 50.15 10.75 50.3 10.55 46.55 11.25 48.75 11.65 47.9 11.75 46.7 Q11.75 44.6 9.7 34.95 L8.35 28.65 8.5 28.3 8.3 28.3 8.05 27.2 M6.8 29.85 L7.15 29.7 7.55 32.55 6.8 29.85 M6.65 26.8 L6.95 28.45 6.65 28.5 6.65 26.8 M8.65 44.8 L8.9 44.45 9.75 46.9 10.05 50.65 9.85 50.6 9.6 50.5 10.35 54.35 10.35 54.85 Q10.05 55.35 9.95 56.15 L10.0 57.9 10.4 62.65 10.05 63.3 9.1 63.2 8.95 61.2 Q9.15 52.05 8.65 44.8 M9.35 44.0 L9.4 44.0 9.4 44.1 9.35 44.0 M11.9 60.45 L14.0 65.3 14.9 68.45 Q17.25 77.15 17.25 81.25 17.25 81.95 16.6 82.9 L16.15 83.6 13.95 74.55 Q12.25 66.75 11.5 61.95 L12.0 63.55 12.35 63.3 11.9 60.45 M14.45 84.4 L14.4 84.65 16.4 89.65 16.9 91.0 16.5 91.0 18.4 98.3 18.35 98.45 16.5 99.6 16.15 99.8 16.0 99.75 14.9 94.15 Q13.85 87.95 13.2 81.65 L13.65 81.6 14.45 84.4 M22.15 113.95 L22.5 114.7 23.15 116.9 23.3 116.9 23.4 117.3 23.75 117.4 26.0 122.15 29.9 130.1 29.9 130.25 30.15 131.45 28.85 132.2 Q26.7 123.4 22.0 114.75 L22.15 113.95 M39.75 144.25 L39.15 145.2 38.9 145.65 37.3 144.1 37.4 143.9 Q34.5 139.45 34.5 138.45 34.5 136.4 33.15 133.7 L31.95 131.3 32.0 131.2 Q32.0 130.4 30.65 127.55 34.35 130.75 39.75 143.55 L39.75 144.25 M30.35 132.7 L30.15 133.25 29.15 133.8 29.15 133.65 Q29.7 133.2 30.35 132.7 M43.35 158.05 L43.05 157.65 Q38.95 152.35 35.55 146.25 L33.55 145.25 33.55 144.85 Q34.55 144.2 35.65 143.8 L40.9 150.35 46.0 156.95 46.0 157.7 43.35 158.05 M60.95 167.7 L60.9 167.75 60.9 167.85 59.9 167.7 58.95 167.3 55.05 162.2 56.3 160.6 Q60.9 165.45 60.9 166.85 L60.95 167.7 M45.55 154.4 L44.8 153.6 44.95 153.65 Q45.4 153.8 45.55 154.4 M69.9 173.0 L70.0 173.15 69.8 173.05 69.9 173.0 M81.05 175.75 L80.1 172.65 80.9 173.05 83.95 172.8 85.15 173.0 85.45 173.2 87.1 174.3 87.75 175.0 Q88.7 176.1 89.25 178.05 L88.35 177.85 81.05 175.75 M49.1 170.85 L50.4 168.8 51.0 169.5 50.85 169.5 52.9 171.45 Q55.95 174.25 58.0 174.5 L55.15 175.0 Q53.1 175.0 49.1 170.85 M66.65 177.6 Q66.75 174.75 66.2 172.15 L74.15 176.5 74.25 176.7 Q73.15 177.75 71.7 179.95 L69.75 179.3 69.15 178.6 68.75 178.6 68.8 178.95 66.65 177.6 M73.5 180.55 L73.6 180.45 74.05 180.75 73.5 180.55 M78.3 186.5 L80.7 184.2 83.55 184.25 88.0 184.35 88.5 184.0 89.45 184.85 89.95 185.3 89.7 185.6 Q89.0 186.55 88.0 186.75 L81.65 186.85 79.25 186.7 78.3 186.5 M98.55 186.7 L98.1 183.05 104.15 184.55 104.8 184.3 105.3 184.75 Q104.2 185.55 103.55 187.45 L103.3 188.5 102.75 188.3 102.75 188.25 102.7 188.3 98.55 186.7 M117.7 183.65 L120.0 184.05 120.1 184.1 123.9 184.75 124.25 186.05 123.6 186.45 Q121.75 185.75 121.4 185.85 L121.4 186.15 117.95 185.3 117.7 183.65 M104.1 183.4 L104.15 183.5 104.05 183.45 104.1 183.45 104.1 183.4 M105.3 188.3 L105.25 188.85 105.1 188.9 105.3 188.3 M116.15 194.85 L117.55 192.75 119.85 193.15 123.55 193.5 124.15 193.45 125.2 193.9 124.05 194.75 122.2 194.75 121.55 194.75 121.3 194.7 121.1 194.8 116.15 194.85 M132.8 192.65 L132.9 190.5 138.35 191.05 139.8 191.45 140.05 192.6 139.7 192.9 135.65 193.0 132.8 192.65 M152.6 188.25 L152.3 187.35 153.05 187.35 156.15 187.1 158.9 187.0 Q159.25 187.2 159.5 188.1 L152.6 188.25" fill="#717171" fill-rule="evenodd" stroke="none"/>
      <path d="M319.0 103.15 L318.95 103.15 317.9 105.4 316.4 108.15 317.5 105.7 318.75 103.05 318.95 103.1 319.0 103.15 M297.45 143.5 L296.55 144.5 294.6 146.45 295.5 145.5 297.45 143.5 M205.05 193.7 Q204.15 193.3 203.85 192.55 L203.85 192.0 204.3 191.8 204.95 193.55 205.05 193.7 M199.15 193.6 L198.95 194.2 198.9 194.25 197.05 194.25 197.05 194.1 197.05 194.05 199.15 193.6 M137.3 195.65 L136.55 194.75 136.8 194.5 137.3 195.65 M114.55 196.75 L111.05 196.35 114.9 196.35 114.55 196.75 M48.65 171.55 L47.0 169.25 48.9 171.2 48.65 171.55 M0.3 32.25 L0.0 30.9 0.0 28.65 0.15 28.45 Q0.2 28.3 0.55 28.3 0.35 30.0 0.3 32.25 M44.05 151.8 L44.35 152.25 44.05 152.25 44.05 151.8 M65.45 170.6 L65.8 170.75 65.85 170.85 65.45 170.6 M77.3 170.0 L78.9 170.05 79.0 170.2 77.3 170.0 M127.1 187.45 L130.9 187.95 132.0 188.3 127.1 187.55 127.1 187.45 M149.5 185.9 L150.9 185.6 151.6 185.5 151.75 185.9 149.5 185.9 M200.65 186.45 Q200.85 185.8 201.45 185.05 L201.6 185.4 201.55 186.2 200.65 186.45 M273.55 149.8 L276.75 147.85 273.7 150.4 273.6 150.3 273.6 150.25 273.55 149.8 M298.45 127.85 L299.15 126.9 299.7 126.25 299.8 126.65 298.45 127.85 M308.8 107.7 L309.05 107.5 309.5 107.5 308.8 107.7 M342.4 1.75 L344.3 1.75 344.35 2.25 Q342.65 4.35 341.7 10.2 341.1 13.85 341.05 16.7 L340.9 17.5 Q339.6 16.4 339.35 14.15 L339.3 13.0 Q339.3 11.1 340.35 6.95 341.1 3.85 341.7 2.5 L342.4 1.75 M342.05 19.7 L341.55 24.4 341.45 23.35 341.65 21.9 342.05 19.7 M341.35 26.65 L341.2 30.7 341.2 31.5 340.95 31.45 340.75 30.85 Q340.75 30.35 341.3 26.95 L341.35 26.65 M338.3 32.2 Q339.0 30.2 339.65 28.75 L339.15 30.75 339.05 30.75 337.55 36.6 Q336.05 42.1 336.05 43.35 L336.0 44.0 335.8 43.8 335.35 43.0 Q335.65 40.55 337.05 36.05 L338.3 32.2 M340.2 32.8 Q339.15 38.25 337.85 41.8 L337.35 42.6 340.1 32.8 340.2 32.8 M338.7 43.35 L339.1 42.9 339.35 43.15 338.7 43.35 M339.6 45.1 Q338.25 51.3 336.1 57.2 L336.1 59.9 332.95 59.8 335.8 53.0 Q338.1 46.8 338.6 43.85 L339.25 44.8 339.6 45.1 M336.1 65.75 L336.1 66.25 335.45 67.25 335.7 66.65 336.1 65.75 M329.25 59.1 Q331.0 56.0 332.95 55.1 L331.65 59.4 331.55 59.4 331.55 59.75 331.4 60.25 331.35 60.25 331.4 60.3 331.25 60.75 331.1 60.75 330.6 61.25 331.05 61.4 331.0 61.5 329.55 64.9 Q327.55 69.2 327.55 69.85 L327.15 71.65 326.75 73.4 326.8 73.75 326.15 74.6 325.95 74.05 325.25 71.65 325.25 71.55 325.25 71.2 Q325.45 68.35 327.5 62.9 L328.45 60.65 329.3 59.4 329.25 59.1 M333.1 61.55 L332.85 61.6 331.05 65.85 332.45 61.55 333.1 61.55 M329.1 72.85 L330.35 71.65 331.95 71.5 332.0 72.15 331.45 73.25 331.1 73.75 331.1 73.9 328.25 79.95 Q325.6 85.75 325.6 86.75 L325.65 87.55 324.3 87.0 323.25 86.65 323.25 86.4 323.2 85.5 322.9 85.3 Q326.25 79.3 328.35 74.25 328.85 73.75 329.1 72.85 M328.25 84.2 L328.35 85.35 327.65 88.7 327.55 89.05 327.15 90.4 326.45 92.35 324.8 96.8 Q323.3 100.15 321.75 101.75 L319.15 102.15 320.7 98.6 Q320.25 99.95 320.25 100.45 L320.3 101.2 320.3 101.0 Q321.3 99.95 323.75 94.95 326.2 89.95 326.25 88.75 327.3 88.75 326.85 88.4 L326.75 88.0 326.45 87.85 328.25 84.2 M324.5 89.4 L324.8 88.45 325.1 88.55 324.5 89.4 M324.7 88.45 L324.1 89.15 323.45 88.95 Q323.25 88.75 323.25 87.95 L323.1 88.15 322.8 88.1 322.9 87.8 323.25 87.95 324.7 88.45 M318.7 96.3 L318.85 96.15 318.95 96.35 318.7 96.3 M322.3 81.55 L322.5 81.75 Q321.15 84.95 321.1 86.3 L320.85 86.25 321.1 86.6 321.15 87.2 318.3 91.65 Q316.3 95.2 314.55 98.95 L314.5 98.9 313.75 98.9 313.5 98.55 Q312.75 97.5 312.75 97.05 L312.75 97.0 Q312.8 95.7 316.9 88.95 320.05 83.75 322.3 81.55 M317.45 97.55 L318.35 96.6 319.6 98.2 314.95 109.3 Q313.3 110.2 312.4 112.4 L312.15 113.35 310.85 112.15 Q311.25 111.1 311.25 110.45 L311.25 109.7 312.0 108.45 312.25 108.25 312.15 108.15 314.05 104.35 317.45 97.55 M160.6 190.7 L160.65 190.75 Q161.5 190.6 161.65 190.3 L164.0 190.5 169.6 190.75 170.3 190.8 170.2 192.6 166.35 192.75 159.4 193.0 159.25 191.8 159.1 190.1 159.15 190.0 160.15 190.15 160.5 190.65 160.5 190.75 160.6 190.7 M192.15 193.0 L192.55 190.45 Q198.05 189.55 202.05 188.15 L202.05 190.25 198.6 191.6 194.55 192.95 193.3 193.1 192.25 193.0 192.15 193.0 M173.3 194.85 L173.55 194.85 175.05 194.55 175.3 195.25 Q175.6 196.15 176.15 196.55 177.85 197.85 185.8 197.85 L185.85 199.5 182.25 199.5 Q177.05 199.5 174.9 198.0 174.1 197.0 173.65 195.9 L173.3 194.85 M194.55 192.95 L194.55 192.8 194.55 192.95 M241.25 168.85 Q235.55 170.9 232.8 172.15 L231.4 172.55 Q232.3 171.2 234.3 169.75 236.1 168.4 239.65 167.15 L241.25 168.85 M248.35 165.2 L248.45 165.25 246.7 166.5 Q247.05 165.65 247.6 165.1 L248.35 165.2 M246.0 167.0 L245.65 167.25 245.15 167.45 Q245.3 167.05 246.0 167.0 M238.65 171.1 L236.1 172.3 235.9 172.2 238.65 171.1 M216.05 177.25 Q216.4 178.25 217.05 179.25 L216.9 179.7 212.65 181.25 207.65 183.45 207.35 183.55 207.3 183.6 204.55 185.15 202.9 185.25 Q204.2 183.05 208.35 180.95 210.85 179.65 216.05 177.25 M222.05 181.05 L222.05 179.95 228.55 176.45 Q229.45 177.6 229.4 180.0 L223.35 183.8 222.45 183.6 222.25 183.05 222.25 182.65 222.3 182.05 222.15 181.45 222.05 181.05 M232.7 177.95 L231.9 178.45 232.05 178.25 232.7 177.95 M208.4 188.15 L208.5 188.3 208.0 188.75 207.75 188.7 206.05 188.6 205.2 188.95 206.55 187.75 208.4 188.15 M207.95 190.15 L208.5 190.05 Q207.5 190.45 207.05 190.75 L207.3 191.1 Q215.55 190.65 219.9 188.45 L220.65 189.5 217.85 190.7 Q210.15 194.0 207.25 194.1 L206.85 194.1 Q206.15 193.95 205.65 192.85 L205.1 191.45 207.95 190.15 M232.2 180.45 L235.95 177.65 238.55 177.75 Q240.6 177.75 243.9 175.85 244.75 176.75 245.1 178.25 L245.1 178.7 Q239.85 182.1 235.55 182.1 L232.85 181.6 232.25 180.8 232.2 180.45 M315.55 110.85 L315.6 110.55 315.75 110.75 315.6 110.75 315.55 110.85 M313.3 121.2 L312.75 122.1 Q309.4 127.65 306.3 128.1 307.5 125.7 311.8 118.7 312.85 119.6 313.3 121.2 M305.95 111.45 L306.3 111.05 306.3 110.9 Q308.1 108.4 309.65 108.4 L310.15 108.4 309.25 111.3 Q308.65 111.85 308.5 112.5 L308.7 112.7 306.0 117.1 303.9 120.25 302.85 121.8 302.55 122.35 302.25 120.2 Q302.8 117.4 304.35 114.25 L305.95 111.45 M300.1 128.75 L300.75 132.4 298.25 135.45 296.85 136.55 296.05 135.7 Q294.95 134.75 293.9 134.9 L293.95 134.85 300.1 128.75 M305.55 125.55 Q305.8 124.0 306.3 122.65 L306.6 123.85 305.55 125.55 M291.1 133.8 Q289.35 134.9 287.6 136.9 L286.4 138.45 286.0 138.9 285.75 139.4 283.45 142.7 282.0 143.65 Q282.15 139.8 286.75 135.3 L289.95 132.6 291.1 133.75 291.1 133.8 M297.25 142.8 L291.5 147.2 Q287.15 150.25 286.8 150.25 L286.5 150.25 285.4 149.55 284.55 149.55 284.15 149.55 283.35 149.3 285.75 146.7 285.75 146.8 285.25 147.25 285.8 148.0 287.25 147.0 288.3 146.65 289.65 145.3 293.75 142.3 295.6 140.8 Q296.7 141.6 297.25 142.8 M279.1 151.9 L277.8 153.3 276.4 154.3 276.0 154.3 276.1 154.45 275.8 154.7 273.45 156.35 273.3 156.25 Q272.65 156.45 271.8 156.9 L271.75 156.8 271.75 156.75 271.85 156.65 271.65 156.55 271.35 155.75 Q270.9 154.4 271.0 153.7 L271.25 153.55 271.3 153.5 272.65 152.4 273.7 151.8 Q274.65 151.8 274.35 151.4 L278.8 148.25 279.1 148.05 279.1 151.9 M275.9 156.75 L275.95 156.7 275.95 156.75 275.9 156.75 M263.4 167.35 L261.3 168.0 Q260.7 168.0 259.95 167.4 259.2 166.75 258.55 166.75 L258.3 166.8 258.65 166.5 261.75 164.2 Q266.05 162.1 268.85 160.45 269.75 161.05 270.3 161.95 265.85 165.75 263.4 167.35 M266.15 152.3 L267.1 154.25 267.1 154.3 Q266.65 154.55 266.15 154.85 261.75 157.5 259.4 159.1 257.85 159.35 255.6 160.5 L256.35 159.55 256.3 159.35 Q257.3 157.9 259.1 156.5 L262.55 154.3 266.15 152.3 M246.4 168.35 Q246.9 167.65 249.95 165.7 250.55 165.85 250.3 165.5 L252.8 163.95 253.4 163.6 Q254.4 164.55 254.8 166.2 L255.1 166.75 255.1 167.05 Q253.0 168.3 251.65 169.35 L251.3 169.5 251.3 169.6 249.55 171.2 247.65 171.55 246.85 171.4 246.75 171.25 246.5 169.9 246.25 168.75 246.25 168.7 Q246.25 168.5 246.4 168.35 M4.75 11.55 L5.7 28.65 5.05 28.75 4.1 29.0 3.6 28.15 3.6 26.8 3.35 20.0 3.1 10.0 4.3 10.1 4.75 11.55 M4.85 31.2 L4.6 30.25 5.35 30.15 5.0 31.15 4.85 31.2 M2.05 28.65 L2.15 28.75 2.35 29.05 2.35 29.45 2.35 29.6 2.1 29.7 2.4 29.95 Q2.6 31.25 3.7 34.25 5.0 37.9 5.0 39.75 5.0 43.65 5.15 46.45 L3.35 39.7 Q1.6 32.15 1.6 30.45 L2.05 28.65 M6.8 49.8 Q7.45 46.3 8.65 44.8 9.15 52.05 8.95 61.2 L9.1 63.2 7.05 63.05 6.95 62.7 6.9 59.9 7.4 60.25 6.95 53.5 6.85 51.75 7.25 51.25 6.8 50.55 6.8 49.8 M8.9 44.45 L9.3 44.05 9.35 44.0 9.4 44.1 9.75 46.9 8.9 44.45 M3.35 61.1 Q4.0 59.8 5.1 59.25 L5.25 63.95 5.7 63.95 Q6.45 69.0 10.35 82.95 L10.35 83.25 10.45 84.25 Q7.15 82.95 6.45 79.95 6.0 77.95 5.9 73.75 L4.4 67.9 3.1 62.15 3.35 61.1 M9.3 64.4 L9.0 64.75 8.25 64.4 9.3 64.4 M13.2 81.65 Q13.85 87.95 14.9 94.15 L16.0 99.75 16.15 99.8 14.35 100.45 13.75 100.45 13.75 99.65 Q13.75 97.5 11.95 85.7 L12.0 84.5 11.7 82.35 Q12.1 81.8 13.2 81.65 M14.1 107.1 L14.15 107.2 14.2 107.4 Q15.8 113.6 17.1 116.5 15.4 113.85 13.45 109.25 10.15 101.5 10.15 99.25 10.15 97.85 11.35 96.05 L11.55 95.8 12.35 99.75 12.6 101.45 12.75 101.45 12.85 101.9 Q13.2 104.1 13.9 106.4 L14.1 107.1 M19.8 113.35 Q20.3 112.0 21.3 112.6 L19.8 113.35 M22.15 113.95 L22.0 114.75 Q26.7 123.4 28.85 132.2 L27.9 132.65 25.8 133.65 25.25 131.75 24.55 131.75 21.8 125.05 21.75 124.9 21.6 124.6 20.2 121.25 19.85 120.35 19.75 119.9 19.65 119.5 19.55 119.45 19.45 119.0 Q20.15 118.9 19.75 118.4 L19.25 117.2 19.3 116.15 19.6 115.9 22.15 113.95 M22.55 131.25 Q23.75 133.85 24.65 134.8 25.25 136.95 27.65 140.8 L29.85 144.2 29.95 144.45 26.9 141.45 Q25.3 138.9 24.1 136.35 23.1 133.65 22.55 131.25 M27.15 134.85 L27.25 135.95 27.05 136.55 26.4 135.15 27.15 134.85 M29.15 133.8 L28.7 133.95 29.15 133.65 29.15 133.8 M41.4 156.85 L41.15 156.0 37.95 152.1 33.0 145.4 33.0 145.2 33.55 144.85 33.55 145.25 35.55 146.25 Q38.95 152.35 43.05 157.65 L43.35 158.05 42.8 158.05 42.05 157.5 41.4 156.85 M60.9 167.85 L60.8 168.15 59.9 167.7 60.9 167.85 M55.05 162.2 L54.25 161.2 Q50.55 156.8 46.0 154.55 L45.85 154.75 45.55 154.4 Q45.4 153.8 44.95 153.65 L44.8 153.6 44.3 152.95 44.75 153.0 44.8 153.1 44.9 153.05 46.3 153.15 48.9 153.3 55.05 159.3 56.3 160.6 55.05 162.2 M70.0 173.15 L69.9 173.0 70.9 172.05 Q71.3 171.75 71.85 171.5 L78.75 172.0 80.1 172.65 81.05 175.75 76.05 174.5 71.15 173.55 71.15 173.8 70.0 173.15 M89.25 178.05 L89.45 178.6 89.2 178.5 89.15 178.1 88.35 177.85 89.25 178.05 M45.35 166.5 Q41.95 162.1 40.8 158.35 L41.65 159.3 42.9 159.3 49.15 167.4 50.4 168.8 49.1 170.85 46.9 168.4 45.5 166.65 45.4 166.5 45.35 166.5 M44.5 159.5 L44.35 159.35 44.45 159.35 44.5 159.5 M58.55 169.55 L59.2 169.35 58.9 168.9 59.05 168.95 59.15 169.05 59.3 169.05 Q62.6 170.35 66.2 172.15 66.75 174.75 66.65 177.6 L64.6 176.15 60.75 173.35 60.5 173.05 60.45 173.1 57.65 171.1 58.55 169.55 M71.7 179.95 L71.4 180.35 69.95 179.6 69.75 179.3 71.7 179.95 M76.75 182.4 L76.5 182.35 Q74.55 181.1 73.25 180.85 L73.2 180.85 73.5 180.55 74.05 180.75 75.05 181.4 76.75 182.4 M76.95 186.2 Q74.4 185.35 72.4 183.6 L70.65 181.65 71.55 182.1 72.0 181.8 78.9 184.0 80.7 184.2 78.3 186.5 76.95 186.2 M88.55 183.95 L88.55 183.9 90.35 184.8 89.95 185.3 89.45 184.85 88.5 184.0 88.55 183.95 M70.3 180.95 L70.8 181.25 70.6 181.55 70.15 180.85 70.3 180.95 M98.55 186.7 L95.3 185.45 Q87.65 182.55 87.65 180.65 L87.75 179.65 88.4 179.5 93.75 181.65 98.1 183.05 98.55 186.7 M104.8 184.3 L104.9 184.25 104.9 184.15 105.5 184.6 105.3 184.75 104.8 184.3 M117.7 183.65 L117.95 185.3 111.65 183.85 107.9 183.15 107.4 182.85 107.15 183.0 104.7 182.7 105.9 180.6 113.25 182.6 117.7 183.65 M123.6 186.45 L124.25 186.05 124.25 186.1 124.1 186.2 124.4 186.4 124.6 186.8 123.6 186.45 M104.15 183.5 L104.1 183.4 104.2 183.35 104.35 183.6 104.15 183.5 M105.25 188.85 L105.1 189.05 106.15 189.7 104.85 189.65 105.1 188.9 105.25 188.85 M116.15 194.85 L111.65 194.85 Q106.0 192.4 104.75 192.1 102.15 191.45 102.3 190.5 L102.65 189.7 103.1 189.75 103.05 190.3 Q103.05 191.55 103.3 190.85 L103.4 190.85 Q103.4 191.85 103.65 191.25 L111.6 191.85 112.2 191.95 113.85 192.1 116.8 192.5 117.55 192.75 116.15 194.85 M125.2 193.9 L124.15 193.45 124.55 193.2 124.65 192.65 126.3 192.9 126.25 193.0 125.7 193.45 125.2 193.9 M132.8 192.65 Q125.85 191.7 124.0 190.7 122.95 190.1 122.7 188.0 L123.05 188.0 123.95 187.9 128.45 189.4 132.9 190.5 132.8 192.65 M140.05 192.6 L140.05 192.85 139.7 192.9 140.05 192.6 M137.45 189.65 L137.4 189.5 137.4 189.1 137.4 188.9 Q137.4 188.05 137.8 187.6 L152.3 187.35 152.6 188.25 150.85 188.35 Q143.75 188.85 140.4 190.0 L140.3 189.85 137.45 189.65 M137.55 194.25 L139.1 194.35 143.9 194.6 153.85 195.1 153.8 198.85 151.65 198.85 Q146.6 198.85 142.55 197.55 138.5 196.25 137.3 194.25 L137.55 194.25 M160.9 194.5 L160.65 194.85 160.0 194.5 159.9 194.25 160.75 194.3 160.9 194.5" fill="#8a8a8a" fill-rule="evenodd" stroke="none"/>
    </g>
  </defs>
</svg>
