<?xml version="1.0" encoding="UTF-8" standalone="no"?>
<svg xmlns:ffdec="https://www.free-decompiler.com/flash" xmlns:xlink="http://www.w3.org/1999/xlink" ffdec:objectType="frame" height="44.3px" width="156.8px" xmlns="http://www.w3.org/2000/svg">
  <g transform="matrix(1.0, 0.0, 0.0, 1.0, 63.0, 16.55)">
    <use ffdec:characterId="1663" height="44.3" transform="matrix(1.0, 0.0, 0.0, 1.0, -63.0, -16.55)" width="156.8" xlink:href="#shape0"/>
    <filter id="filter9">
      <feColorMatrix in="SourceGraphic" result="filterResult0" type="matrix" values="0 0 0 0 0.19215687,0 0 0 0 0.15686275,0 0 0 0 0.050980393,0 0 0 1 0"/>
      <feConvolveMatrix divisor="16.0" in="filterResult0" kernelMatrix="1 1 1 1 1 1 1 1 1 1 1 1 1 1 1 1" order="4 4" result="filterResult1"/>
      <feComposite in="SourceGraphic" in2="filterResult1" operator="over" result="filterResult2"/>
    </filter>
    <use ffdec:characterId="1679" filter="url(#filter9)" height="32.25" id="am_Text" transform="matrix(1.0, 0.0, 0.0, 1.0, -54.45, -11.3)" width="139.5" xlink:href="#text0"/>
  </g>
  <defs>
    <g id="shape0" transform="matrix(1.0, 0.0, 0.0, 1.0, 63.0, 16.55)">
      <path d="M87.6 -10.05 Q93.8 -3.5 93.8 5.6 L93.8 5.7 Q93.8 14.7 87.6 21.15 L87.6 21.2 Q81.35 27.75 72.5 27.75 L-41.7 27.75 Q-46.75 27.75 -50.95 25.55 L-50.8 25.6 Q-54.2 24.0 -56.85 21.15 -62.75 14.95 -63.0 6.35 L-63.0 6.2 -63.0 5.15 -63.0 5.05 Q-62.75 -3.75 -56.85 -10.0 L-56.8 -10.05 Q-50.75 -16.4 -42.15 -16.55 L72.5 -16.55 Q81.35 -16.55 87.6 -10.05" fill="#b28e2d" fill-rule="evenodd" stroke="none"/>
      <path d="M72.5 -12.55 Q79.65 -12.55 84.7 -7.3 89.8 -1.9 89.8 5.6 L89.8 5.7 Q89.8 13.1 84.7 18.4 79.65 23.75 72.5 23.75 L-41.7 23.75 Q-45.75 23.75 -49.1 22.0 -51.8 20.7 -53.95 18.4 -58.8 13.3 -59.0 6.2 L-59.0 5.15 Q-58.8 -2.1 -53.95 -7.3 -49.05 -12.4 -42.1 -12.55 L72.5 -12.55" fill="#333333" fill-rule="evenodd" stroke="none"/>
    </g>
    <g id="text0" transform="matrix(1.0, 0.0, 0.0, 1.0, 2.0, 2.0)">
      <g transform="matrix(1.0, 0.0, 0.0, 1.0, -2.0, -2.0)">
        <use fill="#eee2bc" height="32.25" transform="matrix(0.0234, 0.0, 0.0, 0.0234, 4.3, 20.1)" width="139.5" xlink:href="#font_HelveticaRounded_LT_Std_Bd_M0"/>
        <use fill="#eee2bc" height="32.25" transform="matrix(0.0234, 0.0, 0.0, 0.0234, 25.6, 20.1)" width="139.5" xlink:href="#font_HelveticaRounded_LT_Std_Bd_e0"/>
        <use fill="#eee2bc" height="32.25" transform="matrix(0.0234, 0.0, 0.0, 0.0234, 40.3, 20.1)" width="139.5" xlink:href="#font_HelveticaRounded_LT_Std_Bd_n0"/>
        <use fill="#eee2bc" height="32.25" transform="matrix(0.0234, 0.0, 0.0, 0.0234, 54.95, 20.1)" width="139.5" xlink:href="#font_HelveticaRounded_LT_Std_Bd_u0"/>
      </g>
      <g transform="matrix(1.0, 0.0, 0.0, 1.0, -2.0, -2.0)">
        <use fill="#eee2bc" height="32.25" transform="matrix(0.0234, 0.0, 0.0, 0.0234, 76.95, 20.1)" width="139.5" xlink:href="#font_HelveticaRounded_LT_Std_Bd__1"/>
        <use fill="#eee2bc" height="32.25" transform="matrix(0.0234, 0.0, 0.0, 0.0234, 84.95, 20.1)" width="139.5" xlink:href="#font_HelveticaRounded_LT_Std_Bd_E0"/>
        <use fill="#eee2bc" height="32.25" transform="matrix(0.0234, 0.0, 0.0, 0.0234, 101.4, 20.1)" width="139.5" xlink:href="#font_HelveticaRounded_LT_Std_Bd_s0"/>
        <use fill="#eee2bc" height="32.25" transform="matrix(0.0234, 0.0, 0.0, 0.0234, 114.3, 20.1)" width="139.5" xlink:href="#font_HelveticaRounded_LT_Std_Bd_c0"/>
        <use fill="#eee2bc" height="32.25" transform="matrix(0.0234, 0.0, 0.0, 0.0234, 127.2, 20.1)" width="139.5" xlink:href="#font_HelveticaRounded_LT_Std_Bd__2"/>
      </g>
    </g>
    <g id="font_HelveticaRounded_LT_Std_Bd_M0">
      <path d="M75.0 -68.5 L75.0 -668.0 Q75.5 -701.5 88.5 -719.5 102.0 -737.5 122.5 -744.5 143.0 -751.5 166.0 -751.0 L215.5 -751.0 Q254.0 -751.5 275.5 -733.5 297.0 -716.0 309.5 -674.0 L456.0 -200.5 458.0 -200.5 602.0 -674.0 Q614.5 -716.0 636.0 -733.5 658.0 -751.5 696.5 -751.0 L743.5 -751.0 Q766.5 -751.5 787.0 -744.5 807.5 -737.5 821.0 -719.5 834.0 -701.5 834.5 -668.0 L834.5 -68.5 Q835.0 -36.0 817.5 -12.0 800.0 12.5 760.0 13.5 719.5 12.5 702.0 -12.0 684.5 -36.0 685.0 -68.5 L685.0 -525.5 683.0 -525.5 526.5 -35.5 Q518.0 -10.0 499.5 2.0 481.0 13.5 455.0 13.5 428.5 13.5 410.0 2.0 391.5 -10.0 383.0 -35.5 L226.5 -525.5 224.5 -525.5 224.5 -68.5 Q225.0 -36.0 207.5 -12.0 190.0 12.5 150.0 13.5 109.5 12.5 92.0 -12.0 74.5 -36.0 75.0 -68.5" fill-rule="evenodd" stroke="none"/>
    </g>
    <g id="font_HelveticaRounded_LT_Std_Bd_e0">
      <path d="M186.5 -325.5 L448.5 -325.5 Q441.5 -378.0 407.5 -411.0 373.5 -443.5 322.5 -444.5 266.5 -444.0 232.5 -412.5 198.5 -380.5 186.5 -325.5 M524.5 -239.5 L186.5 -239.5 Q187.0 -179.0 223.0 -141.5 259.0 -104.0 324.5 -103.0 366.0 -103.5 390.5 -114.5 415.0 -125.5 431.0 -140.0 446.5 -154.5 461.0 -165.5 476.0 -176.5 497.5 -177.0 525.0 -176.0 542.0 -158.0 558.5 -140.0 559.0 -118.5 558.5 -84.5 535.0 -60.0 512.0 -35.0 475.5 -18.5 439.5 -2.5 399.5 5.5 359.5 13.5 324.5 13.5 246.5 13.0 191.5 -10.5 136.5 -34.0 102.5 -73.5 68.5 -112.5 52.5 -160.5 37.0 -208.5 37.0 -258.0 37.5 -345.5 71.0 -411.0 104.5 -476.0 167.5 -512.0 230.5 -548.5 319.5 -549.0 406.0 -548.0 466.0 -513.0 526.5 -478.0 558.0 -422.0 589.5 -366.5 590.0 -304.0 590.5 -266.5 576.0 -252.5 561.5 -239.0 524.5 -239.5" fill-rule="evenodd" stroke="none"/>
    </g>
    <g id="font_HelveticaRounded_LT_Std_Bd_n0">
      <path d="M59.5 -61.5 L59.5 -474.0 Q59.5 -508.5 75.5 -528.5 92.0 -548.5 127.0 -549.0 162.0 -548.5 178.5 -528.5 195.0 -508.5 194.5 -474.0 L194.5 -454.5 196.5 -454.5 Q227.5 -497.0 271.0 -522.5 315.0 -548.0 378.0 -549.0 424.0 -549.5 467.0 -531.5 510.0 -514.0 537.5 -470.5 565.5 -427.5 566.5 -352.5 L566.5 -61.5 Q567.5 -30.5 551.0 -9.0 534.5 12.5 492.0 13.5 449.0 12.5 432.5 -9.0 416.0 -30.5 417.0 -61.5 L417.0 -322.5 Q417.0 -368.5 394.0 -397.0 371.0 -425.5 322.5 -426.0 296.0 -426.0 270.0 -412.0 244.0 -398.5 227.0 -372.0 209.5 -345.5 209.0 -308.0 L209.0 -61.5 Q210.0 -30.5 193.5 -9.0 177.0 12.5 134.5 13.5 91.5 12.5 75.0 -9.0 58.5 -30.5 59.5 -61.5" fill-rule="evenodd" stroke="none"/>
    </g>
    <g id="font_HelveticaRounded_LT_Std_Bd_u0">
      <path d="M566.5 -474.0 L566.5 -61.5 Q566.5 -27.0 550.5 -7.0 534.0 13.0 499.0 13.5 464.0 13.0 447.5 -7.0 431.0 -27.0 431.5 -61.5 L431.5 -81.0 429.5 -81.0 Q398.5 -38.5 355.0 -13.0 311.0 12.5 248.0 13.5 202.0 14.0 159.0 -4.0 116.0 -21.5 88.5 -65.0 60.5 -108.0 59.5 -183.0 L59.5 -474.0 Q58.5 -505.0 75.0 -526.5 91.5 -548.0 134.5 -549.0 177.0 -548.0 193.5 -526.5 210.0 -505.0 209.0 -474.0 L209.0 -213.0 Q209.0 -167.0 232.0 -138.5 255.0 -110.0 303.5 -109.5 330.0 -109.5 356.0 -123.5 382.0 -137.0 399.0 -163.5 416.5 -190.0 417.0 -227.5 L417.0 -474.0 Q416.0 -505.0 432.5 -526.5 449.0 -548.0 492.0 -549.0 534.5 -548.0 551.0 -526.5 567.5 -505.0 566.5 -474.0" fill-rule="evenodd" stroke="none"/>
    </g>
    <g id="font_HelveticaRounded_LT_Std_Bd__1">
      <path d="M68.5 -274.5 Q69.0 -353.5 87.5 -436.0 106.5 -519.0 141.5 -601.5 170.5 -670.5 188.0 -703.5 206.0 -736.5 219.5 -746.5 233.5 -756.0 251.0 -755.0 274.5 -754.5 289.0 -741.0 303.5 -727.5 304.0 -708.0 303.5 -688.5 289.5 -650.0 276.0 -611.0 258.0 -555.5 240.0 -499.5 226.5 -429.0 212.5 -358.0 212.0 -274.5 212.5 -191.0 226.5 -120.5 240.0 -50.0 258.0 6.0 276.0 62.0 289.5 100.5 303.5 139.0 304.0 158.5 303.5 178.0 289.0 191.5 274.5 205.0 251.0 205.5 233.5 206.5 219.5 197.0 206.0 187.0 188.0 154.0 170.5 121.0 141.5 52.0 106.5 -30.5 87.5 -113.5 69.0 -196.0 68.5 -274.5" fill-rule="evenodd" stroke="none"/>
    </g>
    <g id="font_HelveticaRounded_LT_Std_Bd_E0">
      <path d="M82.0 -98.0 L82.0 -639.5 Q82.5 -694.5 109.0 -716.5 135.0 -738.5 180.5 -737.5 L574.5 -737.5 Q612.0 -738.0 635.5 -723.5 659.0 -709.0 659.5 -670.0 659.0 -631.0 635.5 -616.5 612.0 -602.0 574.5 -602.5 L250.0 -602.5 250.0 -442.5 534.5 -442.5 Q568.5 -443.5 590.5 -430.0 612.5 -416.5 613.5 -378.0 612.5 -339.5 590.5 -326.0 568.5 -312.5 534.5 -313.5 L250.0 -313.5 250.0 -135.0 583.0 -135.0 Q620.5 -135.5 643.5 -121.0 667.0 -106.5 668.0 -67.5 667.0 -28.5 643.5 -14.0 620.5 0.5 583.0 0.0 L180.5 0.0 Q135.0 1.0 109.0 -21.0 82.5 -43.0 82.0 -98.0" fill-rule="evenodd" stroke="none"/>
    </g>
    <g id="font_HelveticaRounded_LT_Std_Bd_s0">
      <path d="M36.0 -382.0 Q36.5 -427.5 56.5 -459.5 76.5 -491.5 109.5 -511.0 142.0 -531.0 181.5 -540.0 221.0 -549.0 260.0 -549.0 318.0 -549.0 370.0 -535.0 421.5 -521.0 454.5 -495.5 487.5 -470.0 488.5 -435.5 488.0 -408.5 471.5 -389.5 455.5 -370.5 426.0 -370.0 404.5 -370.5 390.5 -380.5 376.0 -391.0 362.0 -404.0 348.0 -417.5 327.0 -428.0 306.0 -438.0 271.5 -438.5 232.0 -438.5 209.0 -427.5 186.0 -416.0 185.5 -392.5 186.0 -367.0 208.0 -356.5 230.0 -346.0 265.5 -339.0 L327.5 -324.5 Q371.5 -315.5 413.5 -298.0 456.0 -280.0 484.5 -248.5 513.0 -216.5 514.0 -165.0 513.0 -104.0 479.5 -64.5 445.5 -25.0 393.5 -5.5 341.0 13.5 283.5 13.5 215.5 13.0 159.5 -5.0 103.5 -23.0 70.0 -53.0 37.0 -83.5 36.0 -120.5 36.0 -146.0 50.5 -164.5 65.0 -182.5 96.5 -183.0 120.0 -182.5 136.5 -169.0 153.0 -155.0 169.5 -137.0 186.5 -119.0 211.5 -105.5 237.0 -91.5 277.5 -91.0 318.0 -91.5 341.0 -106.5 364.0 -121.5 364.5 -145.5 364.0 -172.5 341.5 -183.0 319.0 -194.0 278.5 -202.5 L190.5 -224.5 Q146.5 -234.5 112.0 -252.5 77.0 -270.5 57.0 -301.5 36.5 -332.5 36.0 -382.0" fill-rule="evenodd" stroke="none"/>
    </g>
    <g id="font_HelveticaRounded_LT_Std_Bd_c0">
      <path d="M30.5 -257.0 Q30.5 -344.0 62.5 -409.5 94.5 -475.0 157.0 -511.5 219.5 -548.5 311.0 -549.0 374.0 -548.5 423.0 -528.0 472.0 -508.0 500.5 -476.0 528.5 -444.5 529.0 -409.0 528.5 -376.5 508.5 -360.5 488.5 -344.0 459.5 -344.0 434.0 -345.0 421.0 -358.0 408.0 -371.0 397.0 -388.5 386.0 -405.5 366.0 -418.5 346.5 -432.0 307.0 -432.5 277.0 -433.0 248.0 -417.0 219.0 -401.0 200.0 -362.5 180.5 -324.0 180.0 -257.0 180.0 -186.0 212.0 -145.0 244.5 -104.0 306.0 -103.0 344.0 -103.5 364.0 -118.0 384.0 -132.5 396.0 -151.0 408.0 -170.0 423.0 -184.5 438.0 -198.5 466.5 -199.5 495.5 -198.5 512.0 -182.0 529.0 -165.0 529.0 -142.0 529.0 -108.0 504.5 -72.5 479.5 -37.0 429.0 -12.5 378.5 12.5 302.0 13.5 210.0 13.0 149.5 -21.5 89.5 -56.5 60.0 -117.0 30.5 -178.0 30.5 -257.0" fill-rule="evenodd" stroke="none"/>
    </g>
    <g id="font_HelveticaRounded_LT_Std_Bd__2">
      <path d="M272.5 -274.5 Q272.0 -196.0 253.5 -113.5 234.5 -30.5 199.5 52.0 170.5 121.0 153.0 154.0 135.0 187.0 121.5 197.0 107.5 206.5 90.0 205.5 66.5 205.0 52.0 191.5 37.5 178.0 37.0 158.5 37.5 139.0 51.5 100.5 65.0 62.0 83.0 6.0 101.0 -50.0 114.5 -120.5 128.5 -191.0 129.0 -274.5 128.5 -358.0 114.5 -429.0 101.0 -499.5 83.0 -555.5 65.0 -611.0 51.5 -650.0 37.5 -688.5 37.0 -708.0 37.5 -727.5 52.0 -741.0 66.5 -754.5 90.0 -755.0 107.5 -756.0 121.5 -746.5 135.0 -736.5 153.0 -703.5 170.5 -670.5 199.5 -601.5 234.5 -519.0 253.5 -436.0 272.0 -353.5 272.5 -274.5" fill-rule="evenodd" stroke="none"/>
    </g>
  </defs>
</svg>
