<?xml version="1.0" encoding="UTF-8" standalone="no"?>
<svg xmlns:ffdec="https://www.free-decompiler.com/flash" xmlns:xlink="http://www.w3.org/1999/xlink" ffdec:objectType="frame" height="268.8px" width="336.7px" xmlns="http://www.w3.org/2000/svg">
  <g transform="matrix(1.0, 0.0, 0.0, 1.0, 99.75, 190.75)">
    <use ffdec:characterId="1115" height="38.4" transform="matrix(7.0, 0.0, 0.0, 7.0, -99.75, -190.75)" width="48.1" xlink:href="#shape0"/>
  </g>
  <defs>
    <g id="shape0" transform="matrix(1.0, 0.0, 0.0, 1.0, 14.25, 27.25)">
      <path d="M1.9 -20.8 Q8.4 -17.5 11.65 -17.0 10.65 -16.3 10.15 -15.6 11.3 -15.9 12.35 -16.4 12.95 -16.75 13.45 -17.1 13.55 -17.1 13.65 -17.2 L13.75 -17.25 14.15 -17.35 Q15.3 -17.6 16.2 -17.3 L16.6 -17.3 Q17.35 -17.1 17.9 -16.75 18.45 -16.4 19.2 -15.7 L19.7 -14.9 Q20.15 -14.3 20.55 -13.85 21.35 -13.15 23.9 -11.95 25.25 -11.25 27.6 -10.15 28.8 -9.5 29.75 -8.6 29.4 -8.55 29.15 -8.1 28.65 -7.25 28.65 -5.4 28.55 -4.8 28.8 -4.2 29.25 -3.0 30.8 -3.0 31.55 -3.0 31.8 -3.9 L31.85 -4.4 Q32.15 -3.75 32.45 -3.25 L31.8 -2.85 Q31.2 -2.5 30.75 -2.25 30.5 -2.15 30.25 -2.05 L30.1 -2.15 30.05 -2.2 29.75 -2.35 Q29.15 -2.6 28.3 -2.85 27.45 -3.1 26.55 -3.2 L26.45 -3.2 26.15 -3.25 25.95 -3.25 21.95 -3.35 Q20.75 -3.55 20.35 -3.8 L20.15 -3.9 20.0 -3.95 Q19.85 -3.95 19.8 -4.1 19.7 -4.8 18.9 -5.45 18.2 -6.2 17.1 -5.35 16.75 -5.1 16.55 -4.75 L16.35 -4.6 15.35 -4.75 15.25 -5.5 Q15.0 -6.5 14.65 -7.0 L14.55 -7.15 Q14.35 -7.35 14.1 -7.4 L14.05 -7.35 13.05 -6.55 11.45 -5.35 Q11.3 -5.2 11.25 -5.1 L11.15 -5.1 10.75 -5.2 10.8 -5.4 Q9.25 -7.45 8.95 -7.75 L8.55 -8.1 Q8.8 -8.15 9.0 -8.5 9.15 -8.8 9.15 -9.1 9.15 -9.35 9.05 -9.6 L9.2 -9.5 Q9.55 -9.35 10.25 -8.95 10.35 -8.95 10.35 -9.1 9.55 -10.1 8.6 -10.35 L8.4 -10.6 Q7.8 -11.45 7.25 -11.85 6.2 -13.05 5.7 -13.55 5.2 -13.95 5.1 -13.85 L5.05 -13.5 Q5.0 -13.25 4.75 -13.25 4.2 -13.25 3.95 -13.05 L3.8 -12.85 Q3.7 -12.65 3.7 -12.4 L4.25 -10.5 Q4.25 -10.2 4.5 -9.45 4.8 -8.6 5.1 -8.35 L5.75 -8.3 Q5.0 -7.85 4.0 -6.85 L3.1 -5.3 2.4 -4.25 Q1.15 -3.9 0.9 -3.45 L0.6 -3.3 0.6 -3.25 Q0.5 -3.25 0.4 -3.15 0.2 -3.1 0.05 -2.95 0.05 -3.15 0.25 -3.45 0.6 -4.25 1.7 -5.55 L2.85 -6.85 2.95 -6.9 3.25 -7.25 3.4 -7.55 Q3.4 -7.8 3.3 -7.8 L3.25 -7.8 Q1.95 -6.4 1.1 -5.5 -0.3 -3.8 -0.35 -2.9 L-0.4 -2.75 -0.4 -2.7 -0.55 -2.55 Q-1.25 -2.05 -1.75 -1.55 -2.2 -1.1 -2.4 -0.65 -2.8 -1.25 -3.15 -1.85 -3.85 -3.05 -3.85 -3.75 L-3.85 -4.05 -3.45 -5.35 -3.35 -5.7 Q-2.95 -6.55 -2.2 -7.45 L-0.75 -9.2 Q0.1 -10.3 0.6 -11.2 -2.1 -8.45 -2.8 -7.55 L-2.75 -7.8 Q-2.65 -8.15 -2.65 -8.3 -2.65 -9.15 -3.3 -9.1 -3.95 -9.0 -4.85 -8.3 -5.75 -7.55 -6.35 -6.6 -7.05 -5.55 -7.05 -4.75 -6.95 -3.6 -6.55 -2.55 -5.7 -0.3 -4.1 -0.3 -3.75 -0.3 -3.55 -0.65 -3.4 -0.9 -3.4 -1.2 -3.4 -1.4 -3.65 -2.05 -3.2 -1.05 -2.55 -0.15 L-2.55 0.05 -2.1 1.25 -2.05 1.5 -1.95 1.6 Q-1.75 2.3 -1.65 2.45 L-1.65 2.5 -1.75 3.25 -1.85 3.8 -1.95 4.5 Q-2.3 6.55 -2.3 7.5 L-2.3 7.55 Q-2.3 8.9 -2.0 9.55 L-2.0 9.6 Q-2.3 9.25 -2.7 8.95 L-3.7 8.05 -5.85 6.1 Q-6.8 5.2 -7.3 4.45 -7.6 3.75 -7.75 3.0 -7.9 2.2 -8.0 1.15 L-8.0 0.0 Q-7.95 -2.7 -8.0 -3.45 -8.1 -4.25 -8.7 -5.2 -9.05 -5.8 -9.9 -6.85 L-11.05 -8.25 Q-10.55 -8.05 -9.85 -8.05 -8.65 -8.05 -8.15 -9.3 -7.9 -9.9 -7.9 -10.75 -7.9 -11.3 -8.8 -12.95 -9.45 -14.2 -10.2 -15.15 L-10.25 -15.25 -9.15 -14.3 Q-4.7 -10.35 -2.85 -10.35 -2.6 -10.35 -2.6 -10.4 L-2.65 -10.5 -3.05 -10.8 -2.1 -10.4 Q-2.8 -10.75 -3.5 -11.2 L-6.05 -13.1 Q-5.4 -13.4 -4.85 -13.8 L-4.45 -14.05 Q-2.65 -11.55 -2.15 -11.55 -1.9 -11.55 -1.9 -11.6 L-1.85 -11.8 Q-2.75 -12.85 -3.55 -13.9 -4.0 -14.75 -4.45 -15.8 L-4.9 -17.05 -6.0 -19.0 Q-8.5 -23.45 -8.8 -24.4 -8.75 -24.4 -8.7 -24.45 L-8.7 -24.55 Q-8.7 -24.9 -8.4 -25.6 L-8.2 -26.2 Q-7.65 -25.8 -6.45 -25.1 -6.75 -24.95 -6.75 -24.25 -6.45 -23.0 -5.85 -21.8 -4.7 -19.4 -3.65 -19.4 -3.35 -19.4 -2.95 -19.55 L-2.05 -19.9 Q-0.7 -20.45 0.7 -20.45 1.45 -20.45 1.75 -20.6 1.8 -20.65 1.9 -20.8 M1.65 -15.55 Q1.65 -16.25 0.85 -17.0 0.15 -17.8 -0.8 -18.1 -1.85 -18.45 -2.55 -18.0 -3.25 -17.45 -3.25 -15.9 -3.25 -15.1 -3.05 -14.35 -2.6 -12.8 -1.75 -12.8 -0.3 -12.8 0.75 -13.7 1.65 -14.55 1.65 -15.55 M5.0 -16.45 Q5.1 -16.1 5.55 -16.1 5.95 -16.1 6.15 -16.4 6.4 -16.65 6.4 -16.9 6.4 -17.2 6.15 -17.35 5.95 -17.55 5.65 -17.5 5.35 -17.5 5.1 -17.35 4.9 -17.15 4.9 -16.85 4.9 -16.6 5.0 -16.45 M11.25 -11.4 Q11.05 -11.4 11.0 -11.35 11.15 -9.55 12.5 -8.6 L13.15 -8.2 13.55 -7.95 Q13.7 -7.9 13.9 -7.85 L13.95 -7.9 14.2 -7.85 Q14.25 -7.85 14.25 -7.7 L14.65 -7.6 12.35 -9.7 Q11.6 -10.55 11.25 -11.4 M14.1 -7.05 L14.15 -7.05 14.1 -7.05 M21.55 -9.45 L21.95 -9.9 Q22.55 -10.7 22.55 -11.2 22.55 -11.55 22.25 -11.95 22.2 -11.9 21.8 -10.85 21.4 -9.85 20.35 -9.35 L19.7 -9.35 Q19.45 -9.45 19.25 -9.6 L19.05 -9.75 18.8 -10.05 18.45 -10.35 Q17.3 -11.4 16.4 -12.05 14.05 -13.95 11.85 -13.4 L11.65 -13.45 11.45 -13.35 11.6 -13.35 11.2 -13.2 Q11.5 -12.95 11.85 -12.95 L12.2 -12.95 12.1 -12.9 Q11.65 -12.35 11.65 -11.75 11.65 -11.1 12.1 -10.3 12.75 -9.0 14.1 -8.95 15.0 -8.15 16.35 -8.15 L17.05 -8.2 17.55 -8.25 Q17.5 -8.35 17.2 -8.4 15.85 -8.45 14.95 -8.95 15.75 -8.6 17.0 -8.6 L17.9 -8.65 Q18.2 -8.55 18.45 -8.55 L18.65 -8.6 19.25 -8.5 Q19.6 -8.5 19.85 -8.6 L19.85 -8.45 19.8 -8.05 Q19.7 -7.7 18.55 -7.9 17.4 -8.05 20.0 -7.5 22.6 -6.9 23.1 -7.0 23.55 -7.05 23.55 -7.45 23.55 -7.8 22.95 -8.45 22.4 -9.1 21.7 -9.5 L21.6 -9.5 Q21.6 -9.45 21.55 -9.45 M18.05 -7.25 Q17.95 -7.25 17.8 -7.15 17.3 -6.8 16.05 -6.8 15.5 -6.8 15.45 -6.65 L15.5 -6.55 Q15.65 -6.4 16.15 -6.3 16.65 -6.2 16.9 -6.2 17.25 -6.2 17.65 -6.4 17.95 -6.6 18.55 -7.05 18.2 -7.25 18.05 -7.25 M13.7 -10.0 Q13.35 -10.5 13.35 -11.05 L13.45 -11.35 13.4 -11.0 Q13.4 -10.4 13.7 -10.0 M25.3 -8.5 Q25.1 -8.35 24.85 -8.1 24.65 -7.8 24.65 -7.6 24.65 -7.45 25.05 -6.9 25.55 -6.2 26.1 -6.2 L26.3 -6.2 Q26.45 -6.7 26.65 -7.5 26.55 -7.7 26.45 -7.9 L25.95 -8.65 25.85 -8.7 Q25.6 -8.7 25.45 -8.55 25.4 -8.55 25.3 -8.5 M-12.35 -17.35 L-12.7 -17.35 Q-13.0 -17.35 -13.2 -17.15 L-13.2 -17.45 Q-13.2 -17.6 -13.05 -17.95 L-13.05 -18.05 -12.35 -17.35 M-5.2 1.65 Q-5.2 2.3 -4.25 2.3 -3.75 2.3 -3.55 2.05 -3.4 1.85 -3.4 1.6 -3.4 1.3 -3.65 1.1 -3.95 0.9 -4.3 0.9 -4.65 0.9 -4.9 1.1 -5.2 1.3 -5.2 1.65" fill="#d3b14b" fill-rule="evenodd" stroke="none"/>
      <path d="M29.75 -8.6 Q28.8 -9.5 27.6 -10.15 25.25 -11.25 23.9 -11.95 21.35 -13.15 20.55 -13.85 20.15 -14.3 19.7 -14.9 L19.2 -15.7 Q18.45 -16.4 17.9 -16.75 17.35 -17.1 16.6 -17.3 L16.2 -17.3 Q15.3 -17.6 14.15 -17.35 L13.75 -17.25 13.65 -17.2 Q13.55 -17.1 13.45 -17.1 12.95 -16.75 12.35 -16.4 11.3 -15.9 10.15 -15.6 10.65 -16.3 11.65 -17.0 8.4 -17.5 1.9 -20.8 1.6 -20.95 1.35 -21.1 -0.45 -21.95 -2.1 -22.75 -3.8 -23.55 -5.0 -24.25 L-6.45 -25.1 Q-7.65 -25.8 -8.2 -26.2 L-8.4 -25.6 Q-8.7 -24.9 -8.7 -24.55 L-8.7 -24.45 Q-8.75 -24.4 -8.8 -24.4 -8.5 -23.45 -6.0 -19.0 L-4.9 -17.05 -4.45 -15.8 Q-4.0 -14.75 -3.55 -13.9 -2.75 -12.85 -1.85 -11.8 L-1.9 -11.6 Q-1.9 -11.55 -2.15 -11.55 -2.65 -11.55 -4.45 -14.05 L-4.85 -13.8 Q-5.4 -13.4 -6.05 -13.1 L-3.5 -11.2 Q-2.8 -10.75 -2.1 -10.4 L-3.05 -10.8 -2.65 -10.5 -2.6 -10.4 Q-2.6 -10.35 -2.85 -10.35 -4.7 -10.35 -9.15 -14.3 L-10.25 -15.25 -11.3 -16.25 -12.25 -17.2 -12.35 -17.35 -13.05 -18.05 -13.05 -17.95 Q-13.2 -17.6 -13.2 -17.45 L-13.2 -17.15 Q-13.2 -14.95 -13.05 -14.05 -12.9 -12.5 -12.2 -10.3 -11.95 -9.5 -11.25 -8.5 L-11.05 -8.25 -9.9 -6.85 Q-9.05 -5.8 -8.7 -5.2 -8.1 -4.25 -8.0 -3.45 -7.95 -2.7 -8.0 0.0 L-8.0 1.15 Q-7.9 2.2 -7.75 3.0 -7.6 3.75 -7.3 4.45 -6.8 5.2 -5.85 6.1 L-3.7 8.05 -2.7 8.95 Q-2.3 9.25 -2.0 9.6 L-1.75 9.8 -1.0 10.05 Q-0.1 10.3 0.8 10.3 L1.0 10.3 2.5 10.2 Q3.2 9.6 4.4 8.75 L7.25 6.8 Q7.8 6.2 8.7 5.6 L7.5 5.85 3.5 5.85 Q1.8 5.65 0.55 5.15 -0.7 4.6 -1.15 3.9 L-1.25 3.6 -1.2 3.15 -0.95 3.15 Q-0.85 3.9 0.6 4.5 2.05 5.15 3.65 5.2 L7.7 5.2 8.75 5.1 9.35 5.05 9.5 4.9 Q9.85 4.7 10.85 4.35 12.35 3.6 13.9 3.15 L15.35 2.8 16.15 2.5 21.85 0.75 23.25 0.1 Q26.45 -1.3 29.05 -1.8 L28.35 -2.0 28.3 -2.0 27.65 -2.15 27.5 -2.15 26.7 -2.4 26.6 -2.4 25.0 -2.8 21.2 -2.8 19.7 -2.65 18.1 -2.55 Q16.55 -2.55 14.8 -2.95 L15.0 -2.95 13.95 -3.25 12.75 -3.55 Q13.4 -3.3 14.6 -2.95 13.25 -3.25 11.8 -3.7 L11.65 -3.75 Q11.3 -4.0 10.8 -4.25 10.0 -4.6 9.0 -4.95 L8.9 -4.95 8.35 -5.2 7.75 -5.2 Q5.25 -5.2 4.1 -5.0 L3.5 -4.85 2.95 -4.6 2.75 -4.35 2.4 -4.25 3.1 -5.3 4.0 -6.85 Q5.0 -7.85 5.75 -8.3 L5.85 -8.4 Q7.15 -9.15 8.55 -8.1 L8.95 -7.75 Q9.25 -7.45 10.8 -5.4 L10.75 -5.2 11.15 -5.1 11.25 -5.1 Q11.3 -5.2 11.45 -5.35 L13.05 -6.55 14.05 -7.35 14.1 -7.4 Q14.35 -7.35 14.55 -7.15 L14.65 -7.0 Q15.0 -6.5 15.25 -5.5 L15.35 -4.75 16.35 -4.6 16.55 -4.75 Q16.75 -5.1 17.1 -5.35 18.2 -6.2 18.9 -5.45 19.7 -4.8 19.8 -4.1 19.85 -3.95 20.0 -3.95 L20.15 -3.9 20.35 -3.8 Q20.75 -3.55 21.95 -3.35 L25.95 -3.25 26.15 -3.25 26.45 -3.2 26.55 -3.2 Q27.45 -3.1 28.3 -2.85 29.15 -2.6 29.75 -2.35 L30.05 -2.2 30.1 -2.15 30.25 -2.05 Q30.5 -2.15 30.75 -2.25 31.2 -2.5 31.8 -2.85 L32.45 -3.25 Q32.15 -3.75 31.85 -4.4 L31.85 -4.5 Q31.65 -4.95 31.5 -5.35 L31.45 -5.5 30.6 -7.7 Q30.2 -8.2 29.75 -8.6 M-2.55 -0.15 Q-3.2 -1.05 -3.65 -2.05 -3.75 -2.2 -3.8 -2.35 -4.35 -3.55 -4.35 -3.75 -4.35 -5.55 -2.9 -7.5 L-2.8 -7.55 Q-2.1 -8.45 0.6 -11.2 0.1 -10.3 -0.75 -9.2 L-2.2 -7.45 Q-2.95 -6.55 -3.35 -5.7 -3.8 -4.85 -3.85 -4.05 L-3.85 -3.75 Q-3.85 -3.05 -3.15 -1.85 -2.8 -1.25 -2.4 -0.65 -1.85 0.0 -1.15 0.65 0.35 2.1 2.1 3.0 3.2 3.5 4.4 3.75 L4.3 3.75 4.6 3.85 5.9 4.05 6.15 4.1 6.15 4.2 Q6.15 4.25 5.8 4.35 L5.1 4.4 Q2.25 4.4 0.0 2.65 -0.8 2.0 -1.5 1.2 -1.85 0.85 -2.15 0.45 L-2.2 0.4 -2.5 -0.05 -2.55 -0.15 M-0.4 -2.7 L-0.4 -2.75 -0.35 -2.9 Q-0.3 -3.8 1.1 -5.5 1.95 -6.4 3.25 -7.8 L3.3 -7.8 Q3.4 -7.8 3.4 -7.55 L3.25 -7.25 2.95 -6.9 2.85 -6.85 1.7 -5.55 Q0.6 -4.25 0.25 -3.45 0.05 -3.15 0.05 -2.95 L0.0 -2.8 0.05 -2.6 0.05 -2.5 Q0.15 -2.4 0.35 -2.4 L0.85 -2.35 2.05 -2.15 2.2 -2.15 2.35 -2.15 Q2.85 -2.05 2.95 -1.95 L2.95 -1.85 Q2.9 -1.75 2.5 -1.7 L1.8 -1.65 Q0.25 -1.65 -0.2 -2.2 -0.45 -2.4 -0.4 -2.7 M8.6 -10.35 Q9.55 -10.1 10.35 -9.1 10.35 -8.95 10.25 -8.95 9.55 -9.35 9.2 -9.5 L9.05 -9.6 Q8.4 -9.9 8.05 -9.9 7.4 -9.9 6.35 -9.7 L5.1 -9.55 Q4.75 -9.55 4.65 -9.7 7.0 -10.6 8.35 -10.4 L8.6 -10.35 M12.65 -17.95 L14.25 -18.05 15.95 -18.25 Q17.4 -18.25 18.75 -17.55 19.15 -17.2 19.65 -16.6 L21.25 -14.8 Q21.95 -14.05 24.5 -12.85 24.7 -12.75 28.25 -11.15 29.75 -10.5 31.8 -7.5 33.75 -4.65 33.85 -3.3 33.45 -2.75 32.6 -2.2 31.6 -1.6 30.2 -1.2 28.45 -0.65 23.15 1.5 L21.55 2.2 18.35 3.1 Q15.6 3.9 14.95 4.0 12.9 4.4 10.65 5.65 L9.75 6.3 8.9 6.95 Q8.2 7.4 7.5 8.0 L5.9 8.8 5.75 8.85 5.55 8.95 2.4 10.65 1.65 11.1 1.0 11.15 Q0.0 11.15 -0.9 10.95 L-0.95 10.95 -1.85 10.65 -2.2 10.6 Q-3.05 10.25 -3.8 9.8 -4.6 9.35 -5.4 8.6 L-5.5 8.5 -5.85 8.2 Q-7.0 7.05 -7.7 5.85 L-7.75 5.75 Q-8.35 4.85 -8.35 4.55 L-8.55 3.75 Q-9.05 2.2 -9.0 0.05 L-8.9 -3.55 Q-8.9 -3.7 -9.0 -4.1 L-9.6 -4.6 Q-10.45 -5.4 -11.45 -6.6 -12.3 -8.05 -12.75 -9.35 -13.3 -10.8 -13.75 -12.45 -14.25 -14.5 -14.25 -15.75 -14.25 -16.25 -14.0 -17.2 -13.8 -18.15 -13.5 -18.55 -13.45 -18.7 -13.35 -18.75 L-13.3 -18.7 Q-13.2 -18.65 -13.15 -18.65 -13.05 -18.55 -13.05 -18.4 -11.35 -17.25 -8.35 -14.9 L-6.9 -13.8 -6.05 -14.65 Q-5.55 -15.1 -5.25 -15.2 L-7.15 -18.2 Q-7.65 -19.05 -8.4 -20.95 L-9.0 -23.05 Q-9.35 -24.4 -9.5 -25.25 L-9.45 -25.6 -9.35 -25.7 Q-9.25 -26.65 -8.85 -26.85 L-8.7 -26.85 Q-8.15 -27.7 -6.75 -26.85 -6.3 -26.6 -5.55 -26.0 -4.75 -25.45 -4.5 -25.3 -3.8 -24.75 -2.55 -24.05 L-0.15 -22.75 Q2.4 -21.4 6.6 -19.75 9.65 -18.55 11.25 -18.15 11.65 -17.95 12.65 -17.95 M11.25 -11.4 Q11.6 -10.55 12.35 -9.7 L14.65 -7.6 14.25 -7.7 Q14.25 -7.85 14.2 -7.85 L13.95 -7.9 13.9 -7.85 Q13.7 -7.9 13.55 -7.95 L13.15 -8.2 12.5 -8.6 Q11.15 -9.55 11.0 -11.35 11.05 -11.4 11.25 -11.4 M8.5 -7.45 Q8.3 -7.95 7.5 -8.15 6.6 -8.25 6.45 -7.9 5.9 -7.75 5.9 -7.1 L6.25 -6.3 Q6.45 -6.0 6.6 -5.75 L7.7 -5.8 8.0 -6.05 Q8.75 -6.65 8.75 -6.9 L8.7 -7.35 8.5 -7.45 M9.0 -5.55 L10.25 -5.35 Q9.75 -6.0 9.2 -6.5 L8.55 -6.0 8.35 -5.8 8.75 -5.8 9.0 -5.55 M14.1 -7.05 Q13.8 -7.0 13.6 -6.85 L12.65 -5.8 Q12.3 -5.45 12.0 -5.15 L11.65 -4.8 Q11.35 -4.6 11.35 -4.45 L11.4 -4.3 11.7 -4.25 11.85 -4.2 13.55 -3.75 15.1 -3.45 Q14.9 -4.05 14.7 -4.95 14.55 -5.95 14.3 -6.55 L14.15 -7.05 14.1 -7.05 M19.7 -9.35 L20.35 -9.35 Q21.4 -9.85 21.8 -10.85 22.2 -11.9 22.25 -11.95 22.55 -11.55 22.55 -11.2 22.55 -10.7 21.95 -9.9 L21.55 -9.45 Q21.0 -8.95 20.35 -8.95 L19.95 -8.95 19.95 -8.95 20.2 -8.65 20.2 -8.55 Q20.15 -8.55 19.9 -8.75 L19.7 -8.85 19.6 -9.0 19.15 -9.1 18.95 -9.2 18.75 -9.35 Q18.65 -9.85 17.65 -10.65 L17.7 -10.4 Q17.7 -9.9 17.4 -9.35 L17.15 -9.45 17.45 -10.85 Q17.4 -10.85 17.35 -10.9 16.7 -11.4 16.35 -11.45 15.3 -12.15 14.3 -12.5 L14.15 -12.4 14.1 -12.3 13.9 -12.15 13.75 -11.85 Q13.55 -11.55 13.45 -11.35 L13.35 -11.05 Q13.35 -10.5 13.7 -10.0 13.85 -9.7 14.2 -9.4 14.55 -9.1 14.95 -8.95 15.85 -8.45 17.2 -8.4 17.5 -8.35 17.55 -8.25 L17.05 -8.2 16.35 -8.15 Q15.0 -8.15 14.1 -8.95 L14.0 -8.95 13.75 -9.25 13.7 -9.3 Q12.9 -10.2 12.9 -11.1 12.9 -11.7 13.25 -12.3 L13.3 -12.4 Q13.45 -12.6 13.6 -12.75 12.9 -12.95 12.2 -12.95 L11.85 -12.95 Q11.5 -12.95 11.2 -13.2 L11.6 -13.35 11.45 -13.35 11.65 -13.45 11.85 -13.4 Q14.05 -13.95 16.4 -12.05 17.3 -11.4 18.45 -10.35 L18.8 -10.05 19.05 -9.75 19.25 -9.6 Q19.3 -9.5 19.45 -9.35 L19.7 -9.35 M17.05 -9.35 L17.35 -9.1 Q17.1 -9.15 17.05 -9.3 L17.05 -9.35 M18.05 -7.25 Q18.2 -7.25 18.55 -7.05 17.95 -6.6 17.65 -6.4 17.25 -6.2 16.9 -6.2 16.65 -6.2 16.15 -6.3 15.65 -6.4 15.5 -6.55 L15.45 -6.65 Q15.5 -6.8 16.05 -6.8 17.3 -6.8 17.8 -7.15 17.95 -7.25 18.05 -7.25 M15.6 -3.75 L15.5 -3.8 15.55 -3.75 15.6 -3.75 M15.6 -3.35 L16.75 -3.15 18.05 -3.1 19.45 -3.1 19.5 -3.25 19.5 -3.55 Q19.5 -6.15 17.55 -5.05 16.9 -4.65 16.2 -4.0 L15.6 -3.4 15.6 -3.35 M25.3 -8.5 Q25.4 -8.55 25.45 -8.55 25.6 -8.7 25.85 -8.7 L25.95 -8.65 26.45 -7.9 Q26.55 -7.7 26.65 -7.5 26.45 -6.7 26.3 -6.2 L26.1 -6.2 Q25.55 -6.2 25.05 -6.9 24.65 -7.45 24.65 -7.6 24.65 -7.8 24.85 -8.1 25.1 -8.35 25.3 -8.5 M0.55 -0.25 Q0.2 -0.4 0.0 -0.55 -0.35 -0.75 -0.45 -0.9 L-0.45 -1.0 -0.2 -0.9 Q0.05 -0.75 0.5 -0.55 1.25 -0.15 1.55 0.1 1.3 0.1 0.55 -0.25" fill="#000000" fill-rule="evenodd" stroke="none"/>
      <path d="M1.9 -20.8 Q1.8 -20.65 1.75 -20.6 1.45 -20.45 0.7 -20.45 -0.7 -20.45 -2.05 -19.9 L-2.95 -19.55 Q-3.35 -19.4 -3.65 -19.4 -4.7 -19.4 -5.85 -21.8 -6.45 -23.0 -6.75 -24.25 -6.75 -24.95 -6.45 -25.1 L-5.0 -24.25 Q-3.8 -23.55 -2.1 -22.75 -0.45 -21.95 1.35 -21.1 1.6 -20.95 1.9 -20.8 M-10.25 -15.25 L-10.2 -15.15 Q-9.45 -14.2 -8.8 -12.95 -7.9 -11.3 -7.9 -10.75 -7.9 -9.9 -8.15 -9.3 -8.65 -8.05 -9.85 -8.05 -10.55 -8.05 -11.05 -8.25 L-11.25 -8.5 Q-11.95 -9.5 -12.2 -10.3 -12.9 -12.5 -13.05 -14.05 -13.2 -14.95 -13.2 -17.15 -13.0 -17.35 -12.7 -17.35 L-12.35 -17.35 -12.25 -17.2 -11.3 -16.25 -10.25 -15.25 M-3.65 -2.05 Q-3.4 -1.4 -3.4 -1.2 -3.4 -0.9 -3.55 -0.65 -3.75 -0.3 -4.1 -0.3 -5.7 -0.3 -6.55 -2.55 -6.95 -3.6 -7.05 -4.75 -7.05 -5.55 -6.35 -6.6 -5.75 -7.55 -4.85 -8.3 -3.95 -9.0 -3.3 -9.1 -2.65 -9.15 -2.65 -8.3 -2.65 -8.15 -2.75 -7.8 L-2.8 -7.55 -2.9 -7.5 Q-4.35 -5.55 -4.35 -3.75 -4.35 -3.55 -3.8 -2.35 -3.75 -2.2 -3.65 -2.05 M-3.35 -5.7 L-3.45 -5.35 -3.85 -4.05 Q-3.8 -4.85 -3.35 -5.7 M5.75 -8.3 L5.1 -8.35 Q4.8 -8.6 4.5 -9.45 4.25 -10.2 4.25 -10.5 L3.7 -12.4 Q3.7 -12.65 3.8 -12.85 L3.95 -13.05 Q4.2 -13.25 4.75 -13.25 5.0 -13.25 5.05 -13.5 L5.1 -13.85 Q5.2 -13.95 5.7 -13.55 6.2 -13.05 7.25 -11.85 7.8 -11.45 8.4 -10.6 L8.6 -10.35 8.35 -10.4 Q7.0 -10.6 4.65 -9.7 4.75 -9.55 5.1 -9.55 L6.35 -9.7 Q7.4 -9.9 8.05 -9.9 8.4 -9.9 9.05 -9.6 9.15 -9.35 9.15 -9.1 9.15 -8.8 9.0 -8.5 8.8 -8.15 8.55 -8.1 7.15 -9.15 5.85 -8.4 L5.75 -8.3 M31.85 -4.4 L31.8 -3.9 Q31.55 -3.0 30.8 -3.0 29.25 -3.0 28.8 -4.2 28.55 -4.8 28.65 -5.4 28.65 -7.25 29.15 -8.1 29.4 -8.55 29.75 -8.6 30.2 -8.2 30.6 -7.7 L31.45 -5.5 31.5 -5.35 Q31.65 -4.95 31.85 -4.5 L31.85 -4.4 M5.0 -16.45 Q4.9 -16.6 4.9 -16.85 4.9 -17.15 5.1 -17.35 5.35 -17.5 5.65 -17.5 5.95 -17.55 6.15 -17.35 6.4 -17.2 6.4 -16.9 6.4 -16.65 6.15 -16.4 5.95 -16.1 5.55 -16.1 5.1 -16.1 5.0 -16.45 M1.65 -15.55 Q1.65 -14.55 0.75 -13.7 -0.3 -12.8 -1.75 -12.8 -2.6 -12.8 -3.05 -14.35 -3.25 -15.1 -3.25 -15.9 -3.25 -17.45 -2.55 -18.0 -1.85 -18.45 -0.8 -18.1 0.15 -17.8 0.85 -17.0 1.65 -16.25 1.65 -15.55 M21.55 -9.45 Q21.6 -9.45 21.6 -9.5 L21.7 -9.5 Q22.4 -9.1 22.95 -8.45 23.55 -7.8 23.55 -7.45 23.55 -7.05 23.1 -7.0 22.6 -6.9 20.0 -7.5 17.4 -8.05 18.55 -7.9 19.7 -7.7 19.8 -8.05 L19.85 -8.45 19.85 -8.6 19.9 -8.75 Q20.15 -8.55 20.2 -8.55 L20.2 -8.65 19.95 -8.95 20.35 -8.95 Q21.0 -8.95 21.55 -9.45 M-5.2 1.65 Q-5.2 1.3 -4.9 1.1 -4.65 0.9 -4.3 0.9 -3.95 0.9 -3.65 1.1 -3.4 1.3 -3.4 1.6 -3.4 1.85 -3.55 2.05 -3.75 2.3 -4.25 2.3 -5.2 2.3 -5.2 1.65" fill="#ad8230" fill-rule="evenodd" stroke="none"/>
      <path d="M19.25 -9.6 Q19.45 -9.45 19.7 -9.35 L19.45 -9.35 Q19.3 -9.5 19.25 -9.6 M19.95 -8.95 L19.95 -8.95 M19.15 -9.1 L19.6 -9.0 19.7 -8.85 Q19.35 -8.9 19.15 -9.1" fill="#bda05e" fill-rule="evenodd" stroke="none"/>
      <path d="M17.9 -8.65 L17.0 -8.6 Q15.75 -8.6 14.95 -8.95 14.55 -9.1 14.2 -9.4 13.85 -9.7 13.7 -10.0 13.4 -10.4 13.4 -11.0 L13.45 -11.35 Q13.55 -11.55 13.75 -11.85 L13.9 -12.15 14.4 -11.75 14.35 -11.75 Q14.2 -11.7 14.15 -11.65 L14.1 -11.65 14.05 -11.6 14.05 -11.55 Q13.75 -11.35 13.75 -10.9 13.7 -10.7 13.8 -10.4 14.05 -10.0 14.95 -10.0 L15.25 -10.05 15.6 -10.4 15.65 -10.75 15.95 -10.55 16.3 -10.3 16.75 -9.7 17.05 -9.35 17.05 -9.3 Q17.1 -9.15 17.35 -9.1 17.6 -8.8 17.9 -8.65" fill="#ccaac7" fill-rule="evenodd" stroke="none"/>
      <path d="M8.5 -7.45 L8.7 -7.35 8.75 -6.9 Q8.75 -6.65 8.0 -6.05 L7.7 -5.8 6.6 -5.75 Q6.45 -6.0 6.25 -6.3 L5.9 -7.1 Q5.9 -7.75 6.45 -7.9 6.6 -8.25 7.5 -8.15 8.3 -7.95 8.5 -7.45 M9.0 -5.55 L8.75 -5.8 8.35 -5.8 8.55 -6.0 9.2 -6.5 Q9.75 -6.0 10.25 -5.35 L9.0 -5.55 M14.15 -7.05 L14.3 -6.55 Q14.55 -5.95 14.7 -4.95 14.9 -4.05 15.1 -3.45 L13.55 -3.75 11.85 -4.2 11.7 -4.25 11.4 -4.3 11.35 -4.45 Q11.35 -4.6 11.65 -4.8 L12.0 -5.15 Q12.3 -5.45 12.65 -5.8 L13.6 -6.85 Q13.8 -7.0 14.1 -7.05 L14.15 -7.05 M15.6 -3.75 L15.55 -3.75 15.5 -3.8 15.6 -3.75 M14.6 -2.95 Q13.4 -3.3 12.75 -3.55 L13.95 -3.25 15.0 -2.95 14.8 -2.95 14.75 -2.9 14.6 -2.95 M15.6 -3.35 L15.6 -3.4 16.2 -4.0 Q16.9 -4.65 17.55 -5.05 19.5 -6.15 19.5 -3.55 L19.5 -3.25 19.45 -3.1 18.05 -3.1 16.75 -3.15 15.6 -3.35" fill="#ffffff" fill-rule="evenodd" stroke="none"/>
      <path d="M18.65 -8.6 L18.45 -8.55 Q18.2 -8.55 17.9 -8.65 17.6 -8.8 17.35 -9.1 L17.05 -9.35 16.75 -9.7 16.3 -10.3 15.95 -10.55 15.65 -10.75 15.5 -10.85 14.6 -11.55 14.4 -11.75 13.9 -12.15 14.1 -12.3 14.15 -12.4 14.3 -12.5 Q15.3 -12.15 16.35 -11.45 16.7 -11.4 17.35 -10.9 17.4 -10.85 17.45 -10.85 L17.15 -9.45 17.4 -9.35 Q17.7 -9.9 17.7 -10.4 L17.65 -10.65 Q18.65 -9.85 18.75 -9.35 L18.95 -9.2 18.75 -9.0 18.7 -8.7 Q18.75 -8.6 18.65 -8.6" fill="#8a5b79" fill-rule="evenodd" stroke="none"/>
      <path d="M14.4 -11.75 L14.6 -11.55 15.5 -10.85 15.65 -10.75 15.6 -10.4 15.25 -10.05 14.95 -10.0 Q14.05 -10.0 13.8 -10.4 13.7 -10.7 13.75 -10.9 13.75 -11.35 14.05 -11.55 L14.05 -11.6 14.1 -11.65 14.15 -11.65 Q14.2 -11.7 14.35 -11.75 L14.4 -11.75" fill="#e6dbe3" fill-rule="evenodd" stroke="none"/>
      <path d="M-2.0 9.6 L-2.0 9.55 Q-2.3 8.9 -2.3 7.55 L-2.3 7.5 Q-2.3 6.55 -1.95 4.5 L-1.85 3.8 -1.75 3.25 Q-1.55 3.55 -1.15 3.9 -0.7 4.6 0.55 5.15 1.8 5.65 3.5 5.85 2.1 6.6 0.75 7.55 -1.05 8.95 -1.05 9.75 L-1.0 10.05 -1.75 9.8 -2.0 9.6 M-2.05 1.5 L-2.1 1.25 -2.55 0.05 -2.55 -0.15 -2.5 -0.05 -2.2 0.4 -2.15 0.45 Q-1.85 0.85 -1.5 1.2 -1.85 1.25 -2.05 1.5 M-2.4 -0.65 Q-2.2 -1.1 -1.75 -1.55 -1.25 -2.05 -0.55 -2.55 L-0.4 -2.7 Q-0.45 -2.4 -0.2 -2.2 0.25 -1.65 1.8 -1.65 L2.5 -1.7 Q2.9 -1.75 2.95 -1.85 L2.95 -1.95 Q2.85 -2.05 2.35 -2.15 L2.2 -2.15 2.35 -2.15 Q2.7 -2.15 4.05 -2.65 5.55 -3.2 5.55 -3.55 5.55 -3.95 3.2 -3.3 3.0 -3.3 2.9 -3.25 1.7 -2.7 1.4 -2.7 L1.1 -2.75 Q0.8 -2.6 0.8 -2.55 0.8 -2.4 0.85 -2.35 L0.35 -2.4 Q0.15 -2.4 0.05 -2.5 L0.05 -2.6 0.0 -2.8 0.05 -2.95 Q0.2 -3.1 0.4 -3.15 0.5 -3.25 0.6 -3.25 L0.6 -3.3 0.9 -3.45 Q1.15 -3.9 2.4 -4.25 L2.75 -4.35 2.95 -4.6 3.5 -4.85 4.1 -5.0 Q5.25 -5.2 7.75 -5.2 L8.35 -5.2 8.9 -4.95 9.0 -4.95 Q10.0 -4.6 10.8 -4.25 11.3 -4.0 11.65 -3.75 L11.8 -3.7 Q13.25 -3.25 14.6 -2.95 L14.75 -2.9 14.8 -2.95 Q16.55 -2.55 18.1 -2.55 L19.7 -2.65 21.2 -2.8 25.0 -2.8 26.6 -2.4 26.35 -2.35 Q24.0 -1.85 19.15 -0.15 L11.3 2.6 Q7.3 3.95 6.15 3.95 L4.6 3.85 4.3 3.75 4.4 3.75 Q3.2 3.5 2.1 3.0 0.35 2.1 -1.15 0.65 -1.85 0.0 -2.4 -0.65 M14.1 -8.95 Q12.75 -9.0 12.1 -10.3 11.65 -11.1 11.65 -11.75 11.65 -12.35 12.1 -12.9 L12.2 -12.75 Q12.45 -12.4 13.3 -12.4 L13.25 -12.3 Q12.9 -11.7 12.9 -11.1 12.9 -10.2 13.7 -9.3 L13.75 -9.25 14.0 -8.95 14.1 -8.95 M0.55 -0.25 Q1.3 0.1 1.55 0.1 1.25 -0.15 0.5 -0.55 0.05 -0.75 -0.2 -0.9 L-0.45 -1.0 -0.45 -0.9 Q-0.35 -0.75 0.0 -0.55 0.2 -0.4 0.55 -0.25" fill="#c0b79a" fill-rule="evenodd" stroke="none"/>
      <path d="M-1.75 3.25 L-1.65 2.5 -1.65 2.45 Q-1.75 2.3 -1.95 1.6 L-2.05 1.5 Q-1.85 1.25 -1.5 1.2 -0.8 2.0 0.0 2.65 2.25 4.4 5.1 4.4 L5.8 4.35 Q6.15 4.25 6.15 4.2 L6.15 4.1 5.9 4.05 4.6 3.85 6.15 3.95 Q7.3 3.95 11.3 2.6 L19.15 -0.15 Q24.0 -1.85 26.35 -2.35 L26.6 -2.4 26.7 -2.4 27.5 -2.15 27.65 -2.15 28.3 -2.0 28.35 -2.0 29.05 -1.8 Q26.45 -1.3 23.25 0.1 L21.85 0.75 16.15 2.5 15.35 2.8 13.9 3.15 Q12.35 3.6 10.85 4.35 9.85 4.7 9.5 4.9 L9.35 5.05 8.75 5.1 7.7 5.2 3.65 5.2 Q2.05 5.15 0.6 4.5 -0.85 3.9 -0.95 3.15 L-1.2 3.15 -1.25 3.6 -1.15 3.9 Q-1.55 3.55 -1.75 3.25 M2.2 -2.15 L2.05 -2.15 0.85 -2.35 Q0.8 -2.4 0.8 -2.55 0.8 -2.6 1.1 -2.75 L1.4 -2.7 Q1.7 -2.7 2.9 -3.25 3.0 -3.3 3.2 -3.3 5.55 -3.95 5.55 -3.55 5.55 -3.2 4.05 -2.65 2.7 -2.15 2.35 -2.15 L2.2 -2.15 M19.85 -8.6 Q19.6 -8.5 19.25 -8.5 L18.65 -8.6 Q18.75 -8.6 18.7 -8.7 L18.75 -9.0 18.95 -9.2 19.15 -9.1 Q19.35 -8.9 19.7 -8.85 L19.9 -8.75 19.85 -8.6 M12.1 -12.9 L12.2 -12.95 Q12.9 -12.95 13.6 -12.75 13.45 -12.6 13.3 -12.4 12.45 -12.4 12.2 -12.75 L12.1 -12.9 M3.5 5.85 L7.5 5.85 8.7 5.6 Q7.8 6.2 7.25 6.8 L4.4 8.75 Q3.2 9.6 2.5 10.2 L1.0 10.3 0.8 10.3 Q-0.1 10.3 -1.0 10.05 L-1.05 9.75 Q-1.05 8.95 0.75 7.55 2.1 6.6 3.5 5.85" fill="#746a47" fill-rule="evenodd" stroke="none"/>
    </g>
  </defs>
</svg>
