<?xml version="1.0" encoding="UTF-8" standalone="no"?>
<svg xmlns:ffdec="https://www.free-decompiler.com/flash" xmlns:xlink="http://www.w3.org/1999/xlink" ffdec:objectType="frame" height="48.0px" width="48.0px" xmlns="http://www.w3.org/2000/svg">
  <g transform="matrix(1.0, 0.0, 0.0, 1.0, 0.0, 0.0)">
    <filter id="filter0">
      <feColorMatrix in="SourceGraphic" result="filterResult0" type="matrix" values="0.47475845 -0.428583 0.9538245 0.0 -0.13725491 0.20570175 1.0523174 -0.2580191 0.0 -0.1372549 -0.7249462 1.0024133 0.72253287 0.0 -0.1372549 0.0 0.0 0.0 1.0 0.0"/>
    </filter>
    <use ffdec:characterId="2020" filter="url(#filter0)" height="48.0" transform="matrix(0.0, 1.0, -1.0, 0.0, 48.0, 0.0)" width="48.0" xlink:href="#sprite0"/>
    <use ffdec:characterId="2460" height="48.0" transform="matrix(1.0, 0.0, 0.0, 1.0, 0.0, 0.0)" width="48.0" xlink:href="#shape1"/>
  </g>
  <defs>
    <g id="sprite0" transform="matrix(1.0, 0.0, 0.0, 1.0, 0.0, 0.0)">
      <use ffdec:characterId="2019" height="48.0" transform="matrix(1.0, 0.0, 0.0, 1.0, 0.0, 0.0)" width="48.0" xlink:href="#shape0"/>
    </g>
    <g id="shape0" transform="matrix(1.0, 0.0, 0.0, 1.0, 0.0, 0.0)">
      <path d="M38.25 20.3 L38.25 21.55 38.05 22.65 38.25 20.3 M35.85 30.2 L35.85 30.3 35.65 30.6 35.65 30.45 35.85 30.2 M24.05 37.35 L20.65 37.6 19.1 37.5 19.35 37.25 25.1 36.3 25.45 36.3 23.95 37.0 24.05 37.35 M9.75 34.1 L8.6 32.9 8.6 32.3 9.75 34.1" fill="#8ec2d7" fill-rule="evenodd" stroke="none"/>
      <path d="M31.4 10.25 L33.1 10.9 Q34.6 11.6 35.1 14.15 L35.25 17.85 Q35.25 21.5 34.35 24.6 34.95 22.25 35.15 19.95 L35.15 19.5 35.05 16.35 33.0 12.05 31.4 10.25 M29.85 32.0 Q25.6 35.75 18.3 35.75 L17.25 35.75 Q12.3 32.8 10.8 31.35 9.25 29.9 8.6 26.85 L8.6 22.65 Q9.8 17.65 11.35 15.0 12.7 12.8 15.25 11.3 L12.75 13.9 12.2 15.7 10.9 18.3 10.6 19.25 Q10.45 19.95 10.45 22.55 10.45 25.4 12.7 29.25 14.75 32.8 17.95 34.25 L22.15 34.35 Q24.65 34.35 27.2 33.2 L29.75 32.0 29.85 32.0 M19.15 9.55 L22.2 8.7 Q24.6 8.1 27.5 8.8 L19.15 9.55 M21.75 32.95 L21.9 32.95 Q25.75 32.95 29.2 29.25 32.95 25.3 32.95 20.1 32.95 14.7 29.6 12.05 29.05 11.5 28.35 11.15 L28.45 10.9 Q31.3 12.85 32.35 15.15 33.1 16.8 33.1 19.4 L32.95 21.8 Q32.6 24.35 31.75 26.45 29.25 33.05 22.9 33.05 L21.75 32.95 M35.65 30.6 L35.6 30.6 35.65 30.45 35.65 30.6 M25.1 36.3 L26.15 35.95 25.45 36.3 25.1 36.3" fill="#afd3e2" fill-rule="evenodd" stroke="none"/>
      <path d="M28.25 15.5 Q29.9 17.8 29.9 20.2 L28.7 25.0 26.8 27.65 25.55 28.6 Q23.9 29.55 21.8 29.55 17.3 29.55 15.4 25.7 14.35 23.45 14.35 21.0 14.35 18.7 14.8 17.4 17.2 12.9 23.55 12.9 25.1 12.9 26.1 13.55 L27.0 14.1 28.25 15.5" fill="#d8eaf1" fill-rule="evenodd" stroke="none"/>
      <path d="M28.35 11.15 Q29.05 11.5 29.6 12.05 32.95 14.7 32.95 20.1 32.95 25.3 29.2 29.25 25.75 32.95 21.9 32.95 L21.75 32.95 21.4 32.95 20.35 32.95 Q14.85 32.95 12.7 28.0 11.55 25.45 11.55 22.4 11.55 20.55 12.0 18.85 L11.85 18.5 11.85 18.0 Q11.85 14.7 15.15 12.4 18.25 10.1 22.4 9.95 25.8 9.75 28.35 11.15 M28.25 15.5 L27.0 14.1 26.1 13.55 Q25.1 12.9 23.55 12.9 17.2 12.9 14.8 17.4 14.35 18.7 14.35 21.0 14.35 23.45 15.4 25.7 17.3 29.55 21.8 29.55 23.9 29.55 25.55 28.6 L26.8 27.65 28.7 25.0 29.9 20.2 Q29.9 17.8 28.25 15.5" fill="#c4dfea" fill-rule="evenodd" stroke="none"/>
      <path d="M31.4 10.25 L33.0 12.05 35.05 16.35 35.15 19.5 35.15 19.95 Q34.95 22.25 34.35 24.6 L33.1 27.6 Q31.75 30.25 29.85 32.0 L29.75 32.0 27.2 33.2 Q24.65 34.35 22.15 34.35 L17.95 34.25 Q14.75 32.8 12.7 29.25 10.45 25.4 10.45 22.55 10.45 19.95 10.6 19.25 L10.9 18.3 12.2 15.7 12.75 13.9 15.25 11.3 Q16.95 10.3 19.15 9.55 L27.5 8.8 27.9 8.9 31.4 10.25 M21.75 32.95 L22.9 33.05 Q29.25 33.05 31.75 26.45 32.6 24.35 32.95 21.8 L33.1 19.4 Q33.1 16.8 32.35 15.15 31.3 12.85 28.45 10.9 L28.35 11.15 Q25.8 9.75 22.4 9.95 18.25 10.1 15.15 12.4 11.85 14.7 11.85 18.0 L11.85 18.5 12.0 18.85 Q11.55 20.55 11.55 22.4 11.55 25.45 12.7 28.0 14.85 32.95 20.35 32.95 L21.4 32.95 21.75 32.95" fill="#b3d5e3" fill-rule="evenodd" stroke="none"/>
      <path d="M34.35 24.6 Q35.25 21.5 35.25 17.85 L35.1 14.15 Q34.6 11.6 33.1 10.9 L31.4 10.25 27.9 8.9 27.5 8.8 Q24.6 8.1 22.2 8.7 L19.15 9.55 Q16.95 10.3 15.25 11.3 12.7 12.8 11.35 15.0 9.8 17.65 8.6 22.65 L8.6 26.85 Q9.25 29.9 10.8 31.35 12.3 32.8 17.25 35.75 L18.3 35.75 Q25.6 35.75 29.85 32.0 31.75 30.25 33.1 27.6 L34.35 24.6 M38.25 20.3 L38.05 22.65 35.8 30.0 35.85 30.2 35.65 30.45 35.6 30.6 34.0 32.5 Q30.15 36.55 24.05 37.35 L23.95 37.0 25.45 36.3 26.15 35.95 25.1 36.3 19.35 37.25 19.1 37.5 Q13.1 37.15 9.75 34.1 L8.6 32.3 8.6 32.9 8.5 32.75 7.55 28.6 6.85 25.3 7.0 25.1 Q7.2 17.75 10.7 12.7 15.15 6.35 23.45 6.35 33.4 6.35 36.7 12.8 38.05 15.4 38.25 20.3" fill="#95c5d9" fill-rule="evenodd" stroke="none"/>
      <path d="M38.05 22.65 L38.25 21.55 38.25 20.3 Q38.05 15.4 36.7 12.8 33.4 6.35 23.45 6.35 15.15 6.35 10.7 12.7 7.2 17.75 7.0 25.1 L6.85 25.3 7.55 28.6 8.5 32.75 8.6 32.9 9.75 34.1 Q13.1 37.15 19.1 37.5 L20.65 37.6 24.05 37.35 Q30.15 36.55 34.0 32.5 L35.6 30.6 35.65 30.6 35.85 30.3 35.85 30.2 35.8 30.0 38.05 22.65 M36.85 9.3 Q40.1 13.1 40.1 20.1 40.1 21.9 39.1 25.05 37.95 28.9 37.75 30.0 36.85 35.25 32.0 37.45 28.4 39.15 22.2 39.15 10.8 39.15 7.15 34.45 5.45 32.15 5.45 27.2 5.45 22.25 7.35 16.35 9.75 8.9 13.65 7.05 30.55 2.0 36.85 9.3" fill="#7eb9d1" fill-rule="evenodd" stroke="none"/>
      <path d="M41.55 15.75 L41.7 20.1 Q41.7 25.9 39.65 30.95 37.15 37.1 31.85 40.65 L31.15 40.6 30.0 41.0 29.3 41.2 26.45 40.85 24.4 40.6 Q21.1 40.6 19.75 41.25 L16.55 40.6 11.55 39.55 Q9.6 39.2 8.15 37.95 7.35 37.25 6.3 35.75 L4.2 31.85 3.8 30.05 Q3.8 28.8 5.05 22.0 L6.3 15.35 Q6.4 13.9 7.7 11.65 L10.15 7.85 Q12.1 5.0 15.9 4.3 23.65 2.7 29.15 3.1 L30.6 3.25 34.55 5.35 Q37.5 6.7 39.0 8.3 L40.35 10.45 40.4 10.7 41.55 15.75 M36.85 9.3 Q30.55 2.0 13.65 7.05 9.75 8.9 7.35 16.35 5.45 22.25 5.45 27.2 5.45 32.15 7.15 34.45 10.8 39.15 22.2 39.15 28.4 39.15 32.0 37.45 36.85 35.25 37.75 30.0 37.95 28.9 39.1 25.05 40.1 21.9 40.1 20.1 40.1 13.1 36.85 9.3" fill="#64aac8" fill-rule="evenodd" stroke="none"/>
      <path d="M41.55 15.75 L40.4 10.7 40.35 10.45 39.0 8.3 Q37.5 6.7 34.55 5.35 L30.6 3.25 29.15 3.1 Q23.65 2.7 15.9 4.3 12.1 5.0 10.15 7.85 L7.7 11.65 Q6.4 13.9 6.3 15.35 L5.05 22.0 Q3.8 28.8 3.8 30.05 L4.2 31.85 6.3 35.75 Q7.35 37.25 8.15 37.95 9.6 39.2 11.55 39.55 L16.55 40.6 19.75 41.25 Q21.1 40.6 24.4 40.6 L26.45 40.85 29.3 41.2 30.0 41.0 31.15 40.6 31.85 40.65 Q37.15 37.1 39.65 30.95 41.7 25.9 41.7 20.1 L41.55 15.75 M42.25 10.75 Q43.5 13.8 43.5 21.6 43.5 24.8 41.4 31.35 L39.4 36.95 37.35 39.4 Q33.15 42.35 25.9 43.6 L22.45 44.0 Q22.15 43.55 21.55 43.35 20.9 43.2 18.6 43.35 13.0 43.8 9.5 41.5 L5.45 38.5 Q4.25 37.4 3.7 36.05 L2.3 30.7 Q1.1 25.8 1.1 24.85 L2.75 18.15 3.85 14.3 4.85 12.7 Q6.65 9.3 7.75 7.85 13.25 0.8 24.75 0.8 L28.85 1.0 29.5 1.25 Q39.4 3.75 42.25 10.75" fill="#4d9dbf" fill-rule="evenodd" stroke="none"/>
      <path d="M0.0 30.15 L0.0 22.3 Q1.0 16.9 5.4 9.7 L9.3 3.7 Q10.0 3.6 12.75 1.6 L15.15 0.75 15.9 0.9 19.25 0.2 20.25 0.0 31.4 0.0 Q33.75 0.55 36.0 1.6 L37.25 2.2 Q39.05 3.35 40.45 5.05 45.2 10.65 45.2 20.85 L45.2 26.15 Q45.0 27.8 43.6 32.6 41.9 38.15 37.75 41.85 37.0 41.95 35.75 42.7 L35.15 42.5 32.25 44.15 Q28.25 45.85 22.65 45.85 11.85 45.85 6.85 42.6 1.15 38.9 0.0 30.15 M42.25 10.75 Q39.4 3.75 29.5 1.25 L28.85 1.0 24.75 0.8 Q13.25 0.8 7.75 7.85 6.65 9.3 4.85 12.7 L3.85 14.3 2.75 18.15 1.1 24.85 Q1.1 25.8 2.3 30.7 L3.7 36.05 Q4.25 37.4 5.45 38.5 L9.5 41.5 Q13.0 43.8 18.6 43.35 20.9 43.2 21.55 43.35 22.15 43.55 22.45 44.0 L25.9 43.6 Q33.15 42.35 37.35 39.4 L39.4 36.95 41.4 31.35 Q43.5 24.8 43.5 21.6 43.5 13.8 42.25 10.75" fill="#3e8bac" fill-rule="evenodd" stroke="none"/>
      <path d="M23.35 48.0 L22.9 48.0 22.5 48.0 20.65 47.95 Q6.5 47.2 1.05 38.4 L0.0 36.45 0.0 30.15 Q1.15 38.9 6.85 42.6 11.85 45.85 22.65 45.85 28.25 45.85 32.25 44.15 L35.15 42.5 35.75 42.7 Q37.0 41.95 37.75 41.85 41.9 38.15 43.6 32.6 45.0 27.8 45.2 26.15 L45.2 20.85 Q45.2 10.65 40.45 5.05 39.05 3.35 37.25 2.2 L36.0 1.6 Q33.75 0.55 31.4 0.0 L35.75 0.0 Q37.95 1.05 39.8 2.65 L43.0 5.7 44.95 10.25 Q46.85 14.45 46.85 19.15 46.85 28.15 44.95 34.6 44.5 36.25 42.9 38.5 L39.95 42.5 37.65 44.3 Q35.6 45.65 34.4 45.85 L33.75 46.05 Q33.45 45.75 33.0 45.75 L32.25 46.25 25.0 47.45 Q23.85 47.6 23.35 48.0 M0.0 22.3 L0.0 17.7 Q1.45 14.2 3.9 9.85 L6.5 5.4 7.15 4.85 Q8.6 3.65 8.7 3.05 L10.2 2.3 12.9 0.5 13.85 0.0 20.25 0.0 19.25 0.2 15.9 0.9 15.15 0.75 12.75 1.6 Q10.0 3.6 9.3 3.7 L5.4 9.7 Q1.0 16.9 0.0 22.3" fill="#347692" fill-rule="evenodd" stroke="none"/>
      <path d="M48.0 12.6 L48.0 30.2 46.95 33.9 47.1 34.0 47.1 34.65 47.0 35.6 45.4 38.4 Q43.7 41.55 41.95 43.4 L40.2 45.0 38.95 45.7 Q36.35 47.1 33.8 48.0 L23.35 48.0 Q23.85 47.6 25.0 47.45 L32.25 46.25 33.0 45.75 Q33.45 45.75 33.75 46.05 L34.4 45.85 Q35.6 45.65 37.65 44.3 L39.95 42.5 42.9 38.5 Q44.5 36.25 44.95 34.6 46.85 28.15 46.85 19.15 46.85 14.45 44.95 10.25 L43.0 5.7 39.8 2.65 Q37.95 1.05 35.75 0.0 L38.15 0.0 38.65 0.3 Q42.4 2.75 43.15 3.55 44.3 4.6 45.25 6.6 L48.0 12.6 M22.5 48.0 L12.15 48.0 Q4.05 46.0 0.0 38.5 L0.0 36.45 1.05 38.4 Q6.5 47.2 20.65 47.95 L22.5 48.0 M0.0 17.7 L0.0 13.45 2.05 9.9 5.65 4.45 7.1 2.05 Q8.3 1.05 10.15 0.0 L13.85 0.0 12.9 0.5 10.2 2.3 8.7 3.05 Q8.6 3.65 7.15 4.85 L6.5 5.4 3.9 9.85 Q1.45 14.2 0.0 17.7" fill="#295f76" fill-rule="evenodd" stroke="none"/>
      <path d="M40.55 0.0 L41.85 0.9 Q44.0 2.4 44.9 3.7 L48.0 9.3 48.0 12.6 45.25 6.6 Q44.3 4.6 43.15 3.55 42.4 2.75 38.65 0.3 L38.15 0.0 40.1 0.0 40.55 0.0 M48.0 30.2 L48.0 36.7 46.6 40.45 Q46.1 41.8 44.35 43.45 42.8 45.05 40.75 46.25 39.15 47.2 36.8 47.95 L36.7 48.0 33.8 48.0 Q36.35 47.1 38.95 45.7 L40.2 45.0 41.95 43.4 Q43.7 41.55 45.4 38.4 L47.0 35.6 47.1 34.65 47.1 34.0 46.95 33.9 48.0 30.2 M12.15 48.0 L7.9 48.0 7.3 48.0 3.2 44.0 0.0 40.35 0.0 38.5 Q4.05 46.0 12.15 48.0 M0.0 13.45 L0.0 11.25 1.45 8.55 Q1.45 5.4 8.15 0.2 L8.4 0.0 10.15 0.0 Q8.3 1.05 7.1 2.05 L5.65 4.45 2.05 9.9 0.0 13.45" fill="#214d5f" fill-rule="evenodd" stroke="none"/>
      <path d="M47.2 3.45 L47.7 4.9 48.0 7.5 48.0 9.3 44.9 3.7 Q44.0 2.4 41.85 0.9 L40.55 0.0 42.75 0.25 44.75 0.95 47.2 3.45 M48.0 36.7 L48.0 40.5 47.95 41.65 46.65 43.65 41.45 47.85 41.35 47.95 40.1 48.0 36.7 48.0 36.8 47.95 Q39.15 47.2 40.75 46.25 42.8 45.05 44.35 43.45 46.1 41.8 46.6 40.45 L48.0 36.7 M7.3 48.0 L5.35 47.75 4.15 47.45 0.15 42.25 0.05 41.7 0.0 40.5 0.0 40.35 3.2 44.0 7.3 48.0 M0.0 11.25 L0.0 7.5 0.0 7.15 1.0 5.85 Q3.45 2.7 6.45 0.1 L7.9 0.0 8.4 0.0 8.15 0.2 Q1.45 5.4 1.45 8.55 L0.0 11.25" fill="#173542" fill-rule="evenodd" stroke="none"/>
      <path d="M47.2 3.45 L44.75 0.95 Q46.35 1.8 47.2 3.45 M47.95 41.65 L47.85 42.4 Q47.05 47.25 41.8 47.9 L41.35 47.95 41.45 47.85 46.65 43.65 47.95 41.65 M4.15 47.45 Q0.7 46.2 0.15 42.25 L4.15 47.45 M0.0 7.15 Q0.1 3.6 2.05 1.8 L2.35 1.6 Q3.9 0.35 6.45 0.1 3.45 2.7 1.0 5.85 L0.0 7.15" fill="#0e2129" fill-rule="evenodd" stroke="none"/>
    </g>
    <g id="shape1" transform="matrix(1.0, 0.0, 0.0, 1.0, 0.0, 0.0)">
      <path d="M45.4 19.75 L43.5 19.25 43.1 19.4 42.75 19.65 43.45 20.5 43.5 21.3 43.2 23.0 Q42.55 24.5 41.05 24.5 39.8 24.5 39.45 24.15 L39.15 23.5 39.15 23.45 39.0 23.35 38.9 22.6 40.8 21.8 Q41.25 21.5 41.25 21.0 L40.5 18.5 Q40.5 18.15 42.5 17.0 L41.75 16.25 Q40.8 16.25 40.05 16.8 L39.25 17.5 37.0 17.5 Q35.8 17.35 34.6 16.1 33.55 15.05 33.5 14.5 L33.3 14.15 32.5 12.1 32.5 11.85 Q32.9 12.4 33.9 13.2 35.65 14.6 36.75 14.6 38.7 14.6 39.95 13.7 41.2 12.75 42.15 12.75 43.55 12.75 44.85 14.9 L43.4 14.0 42.85 14.1 42.85 14.25 Q44.2 15.15 45.05 16.35 45.9 17.55 45.9 18.5 L45.65 19.0 Q45.4 19.3 45.4 19.75 M0.0 16.45 L4.8 20.0 4.85 19.9 Q4.65 19.05 2.8 17.2 5.15 18.2 6.2 20.05 L8.0 23.3 Q8.45 22.15 10.85 22.15 11.7 22.15 12.55 22.6 L13.6 23.55 15.2 24.45 16.6 25.95 17.65 26.95 18.65 26.5 Q19.85 26.0 20.7 26.0 22.15 26.0 22.6 26.35 L24.5 26.55 26.25 27.0 Q26.25 27.4 27.4 28.45 L27.35 28.45 25.2 27.85 24.4 27.85 24.35 27.8 24.3 27.95 28.3 30.35 30.75 31.85 32.65 32.95 33.25 33.35 35.45 33.8 35.7 33.9 36.35 34.0 36.5 33.9 36.5 33.7 Q36.5 33.3 35.45 32.95 L35.65 32.9 Q38.0 32.85 39.15 32.15 L40.7 30.85 42.05 29.85 Q43.25 29.0 44.35 29.05 L45.1 28.95 45.0 28.75 43.55 28.25 45.3 28.25 Q45.8 28.35 47.05 29.0 L48.0 29.45 48.0 33.7 Q46.6 32.95 44.7 32.95 39.85 32.95 37.85 33.85 L36.0 35.2 30.35 37.25 29.85 37.25 23.2 36.5 22.0 36.25 Q18.4 35.0 14.95 32.75 L10.05 29.2 Q7.7 27.5 5.15 26.25 L4.75 25.85 5.7 26.4 7.2 27.15 Q6.5 26.35 4.25 25.45 L2.15 23.8 Q0.55 22.65 0.0 22.65 L0.0 16.45 M48.0 35.9 L47.9 35.85 Q45.55 34.45 44.15 34.7 L41.25 34.7 35.95 36.2 34.85 36.55 36.0 35.95 Q39.1 34.25 41.75 33.6 L41.8 33.5 44.4 33.35 45.75 33.5 45.85 33.6 48.0 34.35 48.0 35.9 M17.8 35.15 L17.6 35.1 Q12.9 33.55 10.2 31.5 8.95 30.55 7.65 28.95 L6.55 27.6 6.7 27.7 12.5 31.45 Q16.1 34.25 17.8 35.15 M26.75 28.95 L25.9 28.5 26.15 28.5 26.75 28.95" fill="#48367e" fill-rule="evenodd" stroke="none"/>
      <path d="M0.0 22.65 Q0.55 22.65 2.15 23.8 L4.25 25.45 Q6.5 26.35 7.2 27.15 L5.7 26.4 4.75 25.85 5.15 26.25 Q7.7 27.5 10.05 29.2 L14.95 32.75 Q18.4 35.0 22.0 36.25 L23.2 36.5 29.85 37.25 30.35 37.25 36.0 35.2 37.85 33.85 Q39.85 32.95 44.7 32.95 46.6 32.95 48.0 33.7 L48.0 34.35 45.85 33.6 45.75 33.5 44.4 33.35 41.8 33.5 41.75 33.6 Q39.1 34.25 36.0 35.95 L34.85 36.55 35.95 36.2 41.25 34.7 44.15 34.7 Q45.55 34.45 47.9 35.85 L48.0 35.9 48.0 40.5 Q48.0 42.05 47.65 43.35 L47.3 44.35 47.2 44.6 46.75 45.35 46.1 46.1 Q44.1 48.0 40.1 48.0 L7.9 48.0 Q5.1 48.0 3.3 47.05 L2.45 46.55 1.7 45.85 1.4 45.5 0.65 44.15 Q0.0 42.65 0.0 40.6 L0.0 40.5 0.0 22.65 M17.8 35.15 Q16.1 34.25 12.5 31.45 L6.7 27.7 6.55 27.6 7.65 28.95 Q8.95 30.55 10.2 31.5 12.9 33.55 17.6 35.1 L17.8 35.15" fill="#35246b" fill-rule="evenodd" stroke="none"/>
      <path d="M32.5 11.85 L32.5 11.0 32.6 11.05 32.6 10.9 32.75 10.9 32.85 11.1 33.75 12.35 33.9 12.55 34.4 13.0 Q36.0 14.4 37.55 14.4 38.9 14.4 39.8 13.05 L40.0 12.65 Q41.0 10.9 42.0 10.9 44.55 10.9 45.9 14.15 46.6 15.8 46.75 17.45 47.05 19.65 46.1 19.75 L46.0 19.75 45.4 19.75 Q45.4 19.3 45.65 19.0 L45.9 18.5 Q45.9 17.55 45.05 16.35 44.2 15.15 42.85 14.25 L42.85 14.1 43.4 14.0 44.85 14.9 Q43.55 12.75 42.15 12.75 41.2 12.75 39.95 13.7 38.7 14.6 36.75 14.6 35.65 14.6 33.9 13.2 32.9 12.4 32.5 11.85 M48.0 29.45 L47.05 29.0 Q45.8 28.35 45.3 28.25 L43.55 28.25 45.0 28.75 45.1 28.95 44.35 29.05 Q43.25 29.0 42.05 29.85 L40.7 30.85 39.15 32.15 Q38.0 32.85 35.65 32.9 L35.45 32.95 Q36.5 33.3 36.5 33.7 L36.5 33.9 36.35 34.0 35.7 33.9 35.45 33.8 33.25 33.35 32.65 32.95 30.75 31.85 28.3 30.35 24.3 27.95 24.35 27.8 24.4 27.85 25.2 27.85 27.35 28.45 27.4 28.45 Q26.25 27.4 26.25 27.0 L24.5 26.55 22.6 26.35 Q22.15 26.0 20.7 26.0 19.85 26.0 18.65 26.5 L17.65 26.95 16.6 25.95 15.2 24.45 13.6 23.55 12.55 22.6 Q11.7 22.15 10.85 22.15 8.45 22.15 8.0 23.3 L6.2 20.05 Q5.15 18.2 2.8 17.2 4.65 19.05 4.85 19.9 L4.8 20.0 0.0 16.45 0.0 13.5 Q1.05 13.75 2.55 14.55 6.25 16.55 7.25 18.6 8.6 20.1 8.65 21.35 L9.35 21.0 Q10.05 20.65 11.1 20.65 14.1 20.65 16.15 23.55 16.95 24.65 17.4 25.8 L17.55 25.65 18.1 25.25 Q19.0 24.05 22.15 23.6 26.65 22.95 28.1 26.15 L31.5 29.65 Q33.7 31.65 35.65 32.2 L36.5 32.4 37.0 32.4 Q38.3 32.4 38.85 31.5 L38.95 31.35 39.55 29.6 Q40.45 26.75 44.1 26.75 47.0 26.75 47.75 27.75 L47.85 27.85 48.0 28.15 48.0 29.45 M26.75 28.95 L26.15 28.5 25.9 28.5 26.75 28.95" fill="#b19cf9" fill-rule="evenodd" stroke="none"/>
      <path d="M36.35 3.15 L35.85 2.85 34.35 1.3 35.45 0.0 38.5 0.0 36.35 3.15 M32.05 0.0 L32.7 0.7 33.0 1.05 Q31.85 1.95 30.65 3.65 L29.7 5.1 Q28.7 4.3 28.1 3.35 L30.35 0.2 30.55 0.0 32.05 0.0 M33.8 2.0 L34.85 3.25 35.6 3.9 35.25 3.65 Q33.0 5.7 32.35 6.75 L31.75 6.45 31.45 6.3 32.95 4.25 34.1 2.4 33.8 2.0 M31.9 7.75 L31.45 8.3 Q29.3 11.4 29.05 12.8 L28.85 13.0 27.25 11.55 26.6 10.7 Q27.85 9.95 29.1 8.4 L30.25 6.7 30.3 6.75 31.9 7.75 M25.75 9.1 L25.05 6.8 27.1 4.65 27.8 3.8 Q28.3 5.0 29.5 6.1 28.35 6.5 27.05 7.75 L25.75 9.1 M27.4 15.25 L24.7 13.1 Q22.2 10.7 22.2 9.75 L21.95 9.25 22.1 9.05 24.95 6.95 25.35 8.65 25.65 9.65 25.25 9.85 Q23.8 10.75 23.8 11.45 23.8 12.2 24.05 12.2 L25.0 12.15 26.2 10.95 26.4 11.3 Q27.1 12.4 28.35 13.2 27.25 13.9 26.95 14.95 L27.4 15.25 M20.9 10.75 L21.55 10.35 21.55 10.85 21.65 11.2 20.9 10.75 M25.0 15.15 L25.95 15.9 25.8 16.75 26.0 17.75 24.25 18.1 24.25 18.0 24.4 17.5 24.6 17.0 24.65 16.8 25.0 15.4 25.0 15.15 M23.6 18.3 L20.4 19.45 19.25 20.0 16.15 15.75 15.9 15.45 16.7 14.4 Q18.1 12.75 19.85 11.5 L19.8 12.2 21.8 15.1 23.6 18.3 M24.2 19.2 Q24.05 19.45 24.05 20.0 24.05 20.85 24.25 21.1 L25.0 21.4 25.6 21.15 26.0 21.75 Q23.15 22.0 21.15 23.4 L20.8 23.1 Q20.8 22.1 20.1 20.95 L19.95 20.75 Q21.8 19.65 24.2 19.2 M28.8 21.8 L26.95 21.7 26.6 21.75 27.05 21.0 26.5 19.1 28.8 21.8 M22.1 24.4 Q24.1 23.35 27.75 22.95 L27.75 24.65 27.2 23.45 27.0 23.05 25.85 23.25 25.75 24.35 Q25.75 25.1 26.15 25.95 L26.75 27.15 27.25 27.0 27.6 26.15 27.8 24.95 27.75 24.65 Q28.25 25.4 28.5 27.15 L28.75 26.55 28.75 25.95 Q28.75 24.85 28.2 22.9 L28.8 22.85 30.85 24.2 30.9 24.6 30.5 28.4 Q27.95 26.4 23.55 27.7 23.5 26.05 22.1 24.4 M18.9 29.75 L18.6 29.85 18.6 29.75 18.6 29.4 18.9 29.75" fill="#e3e3ae" fill-rule="evenodd" stroke="none"/>
      <path d="M46.05 1.95 L46.85 2.9 47.15 3.35 45.65 4.75 47.6 4.5 47.65 4.7 Q46.15 5.5 44.8 6.35 L44.95 6.35 45.8 6.45 44.6 6.45 41.45 8.5 41.3 9.35 40.3 9.4 40.2 9.4 38.7 10.6 38.8 11.0 35.75 13.5 35.45 13.8 35.3 14.0 35.2 14.15 35.1 14.1 35.05 14.15 35.1 14.85 34.9 15.15 34.2 15.05 Q33.55 15.9 33.55 16.5 L33.1 22.6 32.85 25.05 32.75 25.65 32.75 25.7 32.4 28.75 32.15 29.9 32.15 30.05 32.0 31.55 35.4 34.25 36.0 34.9 Q39.05 35.9 40.5 37.1 42.4 38.7 42.4 41.85 42.4 42.75 41.7 42.9 L39.4 42.9 37.9 42.8 37.6 42.9 37.5 42.95 34.0 43.15 33.1 43.15 31.5 43.15 30.15 43.15 29.3 42.75 26.45 41.3 23.1 39.25 23.05 39.2 22.9 39.1 22.8 39.0 21.75 37.75 20.45 36.25 17.9 33.3 17.55 31.25 17.4 30.65 17.3 30.35 16.45 27.85 Q15.45 25.4 13.9 22.65 L11.8 18.9 Q10.1 15.9 9.85 14.95 L9.75 14.65 9.75 14.6 Q9.75 13.35 10.85 12.3 L10.95 12.2 11.15 12.15 11.5 12.1 11.45 12.15 12.2 12.05 12.9 11.9 Q14.75 11.0 17.65 10.15 L17.45 10.1 19.15 9.25 22.6 6.55 25.45 3.3 25.55 3.2 25.65 3.1 26.6 1.95 28.35 0.0 30.55 0.0 30.35 0.2 28.1 3.35 Q28.7 4.3 29.7 5.1 L31.45 6.3 31.75 6.45 32.35 6.75 35.55 7.75 38.55 8.05 Q39.8 6.9 41.35 6.15 L41.0 6.1 38.4 5.4 38.25 5.35 38.15 5.3 38.0 5.25 35.9 4.1 35.6 3.9 34.85 3.25 33.8 2.0 33.4 1.5 33.0 1.05 32.7 0.7 32.05 0.0 33.35 0.0 34.0 0.85 34.35 1.3 35.85 2.85 36.35 3.15 38.7 5.0 Q39.75 5.6 41.75 5.95 L42.5 5.65 45.35 2.65 46.05 1.95 M38.8 40.7 L38.75 41.25 39.85 41.3 40.75 41.2 41.0 40.85 40.35 40.05 Q39.65 39.3 38.4 38.4 38.8 39.4 38.8 40.4 L38.8 40.7 M28.85 13.0 Q30.15 13.8 31.75 14.0 L33.35 12.15 Q34.7 10.8 37.0 9.2 L36.85 9.2 34.35 8.7 31.9 7.75 30.3 6.75 30.25 6.7 29.9 6.45 29.5 6.1 Q28.3 5.0 27.8 3.8 L27.1 4.65 25.05 6.8 25.75 9.1 26.6 10.7 27.25 11.55 28.85 13.0 M25.65 9.65 L25.35 8.65 24.95 6.95 22.1 9.05 21.95 9.25 22.2 9.75 Q22.2 10.7 24.7 13.1 L27.4 15.25 27.85 15.45 28.0 15.5 28.4 15.6 29.0 15.75 29.25 15.75 Q29.95 15.75 30.25 15.4 L30.4 15.2 30.9 15.4 31.4 14.5 Q29.6 14.0 28.35 13.2 27.1 12.4 26.4 11.3 L26.2 10.95 25.65 9.65 M20.75 10.25 L21.55 9.95 21.55 9.65 20.75 10.25 M21.65 11.2 L21.55 10.85 21.55 10.35 20.9 10.75 19.85 11.5 Q18.1 12.75 16.7 14.4 L15.9 15.45 Q14.25 17.75 14.75 19.45 L14.75 19.5 15.9 21.85 16.05 22.25 Q16.6 21.3 19.25 20.0 L20.4 19.45 23.6 18.3 24.25 18.1 26.0 17.75 27.65 17.55 27.7 17.55 27.85 17.55 28.85 17.6 28.8 17.55 27.65 17.0 26.5 16.3 25.95 15.9 25.0 15.15 Q22.25 12.8 21.65 11.2 M25.65 18.9 L24.9 19.0 24.65 19.05 24.6 19.1 24.3 19.15 24.2 19.15 24.2 19.2 Q21.8 19.65 19.95 20.75 L19.1 21.3 18.85 21.6 16.8 23.8 Q18.45 27.6 18.6 29.4 L18.6 29.75 18.6 29.85 18.9 29.75 23.45 27.7 23.55 27.7 Q27.95 26.4 30.5 28.4 L30.9 24.6 30.85 24.2 28.8 22.85 28.2 22.9 27.75 22.95 Q24.1 23.35 22.1 24.4 L21.4 24.8 Q19.75 26.65 18.6 27.3 L18.2 26.7 Q19.35 24.6 21.15 23.4 23.15 22.0 26.0 21.75 L26.0 21.8 26.35 21.75 26.55 21.75 26.6 21.75 26.95 21.7 28.8 21.8 28.85 21.85 29.65 22.0 30.45 22.25 30.7 22.35 30.45 19.2 30.15 19.05 28.35 18.7 26.3 18.8 25.65 18.9 M15.7 15.05 L16.65 13.75 Q17.8 12.4 18.9 11.5 L16.9 12.45 15.9 12.95 14.25 13.85 13.4 14.25 12.95 16.3 12.9 16.35 13.4 17.15 14.05 18.25 14.35 17.4 14.9 16.25 15.7 15.05 M22.1 29.1 L22.0 29.1 Q19.7 29.75 18.85 30.45 L19.7 31.9 Q21.15 34.4 22.55 35.95 25.75 39.5 31.1 41.2 L32.85 41.2 33.95 41.2 34.65 41.0 36.7 41.15 37.15 41.1 37.2 40.2 Q37.2 38.8 36.5 37.7 L36.35 37.45 Q35.45 36.2 34.2 36.2 32.7 36.2 31.8 35.5 L31.75 35.5 29.7 35.95 26.3 36.7 25.6 36.8 25.75 36.75 26.1 36.6 Q27.6 35.95 29.45 34.2 L29.75 33.95 29.8 33.9 30.05 33.75 30.35 33.6 30.6 33.45 30.4 31.75 30.45 29.95 Q29.85 29.75 27.1 28.4 L26.85 28.3 26.75 28.3 Q24.65 28.3 22.1 29.1" fill="#000000" fill-opacity="0.8745098" fill-rule="evenodd" stroke="none"/>
      <path d="M34.35 1.3 L34.0 0.85 33.35 0.0 35.45 0.0 34.35 1.3 M33.0 1.05 L33.4 1.5 33.8 2.0 34.1 2.4 32.95 4.25 31.45 6.3 29.7 5.1 30.65 3.65 Q31.85 1.95 33.0 1.05 M26.6 10.7 L25.75 9.1 27.05 7.75 Q28.35 6.5 29.5 6.1 L29.9 6.45 30.25 6.7 29.1 8.4 Q27.85 9.95 26.6 10.7 M26.2 10.95 L25.0 12.15 24.05 12.2 Q23.8 12.2 23.8 11.45 23.8 10.75 25.25 9.85 L25.65 9.65 26.2 10.95 M20.9 10.75 L21.65 11.2 Q22.25 12.8 25.0 15.15 L25.0 15.4 24.65 16.8 24.6 17.0 24.4 17.5 24.25 18.0 22.25 15.1 19.85 11.5 20.9 10.75 M25.6 21.15 L25.8 20.1 25.65 18.9 26.3 18.8 26.35 18.9 26.5 19.1 27.05 21.0 26.6 21.75 26.55 21.75 26.35 21.75 26.0 21.8 26.0 21.75 25.6 21.15 M27.75 22.95 L28.2 22.9 Q28.75 24.85 28.75 25.95 L28.75 26.55 28.5 27.15 Q28.25 25.4 27.75 24.65 L27.8 24.95 27.6 26.15 27.25 27.0 26.75 27.15 26.15 25.95 Q25.75 25.1 25.75 24.35 L25.85 23.25 27.0 23.05 27.2 23.45 27.75 24.65 27.75 22.95" fill="#f8f8e9" fill-rule="evenodd" stroke="none"/>
      <path d="M46.05 1.95 L45.35 2.65 42.5 5.65 41.75 5.95 Q39.75 5.6 38.7 5.0 L36.35 3.15 38.5 0.0 40.1 0.0 40.55 0.0 41.85 0.1 42.25 0.2 43.7 0.55 45.35 1.35 45.8 1.7 46.05 1.95 M35.6 3.9 L35.9 4.1 38.0 5.25 38.15 5.3 38.25 5.35 38.4 5.4 41.0 6.1 41.35 6.15 Q39.8 6.9 38.55 8.05 L35.55 7.75 32.35 6.75 Q33.0 5.7 35.25 3.65 L35.6 3.9 M31.9 7.75 L34.35 8.7 36.85 9.2 37.0 9.2 Q34.7 10.8 33.35 12.15 L31.75 14.0 Q30.15 13.8 28.85 13.0 L29.05 12.8 Q29.3 11.4 31.45 8.3 L31.9 7.75 M27.4 15.25 L26.95 14.95 Q27.25 13.9 28.35 13.2 29.6 14.0 31.4 14.5 L30.9 15.4 30.4 15.2 30.25 15.4 Q29.95 15.75 29.25 15.75 L29.0 15.75 28.4 15.6 28.0 15.5 27.85 15.45 27.4 15.25 M25.95 15.9 L26.5 16.3 27.65 17.0 28.8 17.55 28.85 17.6 27.85 17.55 27.7 17.55 27.65 17.55 26.0 17.75 25.8 16.75 25.95 15.9 M19.25 20.0 Q16.6 21.3 16.05 22.25 L15.9 21.85 14.75 19.5 14.75 19.45 Q14.25 17.75 15.9 15.45 L16.15 15.75 19.25 20.0 M26.3 18.8 L28.35 18.7 30.15 19.05 30.45 19.2 30.7 22.35 30.45 22.25 29.65 22.0 28.85 21.85 28.8 21.8 26.5 19.1 26.35 18.9 26.3 18.8 M21.15 23.4 Q19.35 24.6 18.2 26.7 L18.6 27.3 Q19.75 26.65 21.4 24.8 L22.1 24.4 Q23.5 26.05 23.55 27.7 L23.45 27.7 18.9 29.75 18.6 29.4 Q18.45 27.6 16.8 23.8 L18.85 21.6 19.1 21.3 19.95 20.75 20.1 20.95 Q20.8 22.1 20.8 23.1 L21.15 23.4" fill="#bec754" fill-rule="evenodd" stroke="none"/>
      <path d="M30.05 33.75 L29.8 33.9 29.8 33.7 30.05 33.75" fill="#7a5bbb" fill-rule="evenodd" stroke="none"/>
      <path d="M24.25 18.1 L23.6 18.3 21.8 15.1 19.8 12.2 19.85 11.5 22.25 15.1 24.25 18.0 24.25 18.1 M24.2 19.2 L24.2 19.15 24.3 19.15 24.6 19.1 24.65 19.05 24.9 19.0 25.65 18.9 25.8 20.1 25.6 21.15 25.0 21.4 24.25 21.1 Q24.05 20.85 24.05 20.0 24.05 19.45 24.2 19.2" fill="#efefcf" fill-rule="evenodd" stroke="none"/>
      <path d="M26.75 28.3 L26.85 28.3 27.1 28.4 Q29.85 29.75 30.45 29.95 L30.4 31.75 30.6 33.45 30.35 33.6 30.05 33.75 29.8 33.7 29.8 33.9 29.75 33.95 29.75 33.9 29.0 34.4 Q28.35 34.2 27.55 33.05 26.75 31.95 26.75 31.35 L26.6 29.3 26.75 28.3 M36.5 37.7 L35.25 37.75 Q33.3 37.75 32.3 36.65 L31.75 35.5 31.8 35.5 Q32.7 36.2 34.2 36.2 35.45 36.2 36.35 37.45 L36.5 37.7" fill="#768075" fill-rule="evenodd" stroke="none"/>
      <path d="M40.35 40.05 L38.8 40.7 38.8 40.4 Q38.8 39.4 38.4 38.4 39.65 39.3 40.35 40.05 M14.25 13.85 L15.9 12.95 16.9 12.45 18.9 11.5 Q17.8 12.4 16.65 13.75 L15.7 15.05 Q15.35 14.2 14.25 13.85 M14.35 17.4 L14.05 18.25 13.4 17.15 14.35 17.4 M37.15 41.1 L37.15 40.9 35.5 40.3 Q29.4 38.3 26.3 36.7 L29.7 35.95 31.75 35.5 32.3 36.65 Q33.3 37.75 35.25 37.75 L36.5 37.7 Q37.2 38.8 37.2 40.2 L37.15 41.1 M26.1 36.6 L24.3 35.5 Q23.3 34.8 22.9 32.6 L22.3 29.5 22.1 29.1 Q24.65 28.3 26.75 28.3 L26.6 29.3 26.75 31.35 Q26.75 31.95 27.55 33.05 28.35 34.2 29.0 34.4 L29.75 33.9 29.75 33.95 29.45 34.2 Q27.6 35.95 26.1 36.6" fill="#586057" fill-rule="evenodd" stroke="none"/>
      <path d="M40.35 40.05 L41.0 40.85 40.75 41.2 39.85 41.3 38.75 41.25 38.8 40.7 40.35 40.05 M14.25 13.85 Q15.35 14.2 15.7 15.05 L14.9 16.25 14.35 17.4 13.4 17.15 12.9 16.35 12.95 16.3 13.4 14.25 14.25 13.85 M37.15 41.1 L36.7 41.15 34.65 41.0 33.95 41.2 32.85 41.2 31.1 41.2 Q25.75 39.5 22.55 35.95 21.15 34.4 19.7 31.9 L18.85 30.45 Q19.7 29.75 22.0 29.1 L22.1 29.1 22.3 29.5 22.9 32.6 Q23.3 34.8 24.3 35.5 L26.1 36.6 25.75 36.75 25.6 36.8 26.3 36.7 Q29.4 38.3 35.5 40.3 L37.15 40.9 37.15 41.1" fill="#3a4039" fill-rule="evenodd" stroke="none"/>
      <path d="M23.45 8.6 L23.7 8.45 23.7 8.5 23.45 8.6" fill="#ffffff" fill-rule="evenodd" stroke="none"/>
      <path d="M44.6 43.05 L44.55 43.25 44.5 43.7 44.55 44.1 45.15 43.3 45.4 42.5 45.75 41.6 46.55 40.8 46.55 40.85 Q46.0 42.1 46.0 42.4 L46.0 42.55 46.3 42.7 46.9 42.3 47.2 41.7 47.95 40.6 48.0 40.5 Q48.0 42.05 47.65 43.35 L47.3 44.35 47.2 44.6 46.75 45.35 46.1 46.1 Q44.1 48.0 40.1 48.0 L7.9 48.0 Q5.1 48.0 3.3 47.05 L2.45 46.55 1.7 45.85 1.4 45.5 0.65 44.15 Q0.0 42.65 0.0 40.6 L0.0 40.5 0.0 31.35 0.6 31.9 0.95 32.2 2.1 34.65 Q2.9 36.8 3.2 36.8 L3.55 36.15 3.7 35.2 4.0 36.1 4.2 36.8 4.2 39.35 Q4.65 41.7 6.85 41.7 7.4 41.7 7.5 41.5 L6.5 40.55 6.35 40.35 6.45 40.45 7.0 40.75 8.15 40.6 8.2 40.6 8.5 40.5 8.35 40.8 8.4 40.95 Q9.7 40.75 10.2 39.7 10.7 38.6 11.7 38.4 L11.6 38.5 10.9 39.6 Q10.45 40.3 10.45 40.8 L10.9 41.3 Q12.3 39.35 15.6 38.85 L15.7 38.75 17.5 38.6 17.6 38.4 17.6 38.35 16.15 37.75 16.55 37.7 16.65 37.8 18.15 38.0 18.85 38.25 19.5 38.35 19.7 38.0 Q19.7 37.25 18.2 36.5 17.0 35.95 15.65 35.8 L16.05 35.5 16.2 35.2 Q15.35 34.7 14.05 32.7 L13.9 32.4 13.1 32.25 Q12.85 32.25 12.65 32.7 12.45 33.15 11.25 33.15 10.2 33.15 9.5 32.1 9.1 31.55 9.05 31.15 L8.9 30.9 8.65 29.25 Q8.65 27.9 10.15 24.9 L11.05 23.1 11.2 22.8 Q12.05 21.2 12.85 20.45 L13.7 20.2 14.45 20.55 15.35 20.9 16.8 21.0 Q17.55 21.1 18.1 21.45 L18.9 22.4 18.95 22.55 19.2 23.1 19.45 22.85 19.55 22.75 19.9 22.25 20.2 21.7 20.2 21.65 20.45 20.5 20.5 20.2 20.5 19.85 20.5 19.75 20.45 17.65 20.35 17.0 20.05 15.85 19.45 15.3 19.45 15.25 19.2 15.25 19.15 15.25 18.75 14.85 Q18.05 14.3 15.75 13.3 L14.8 12.8 Q18.2 13.6 19.55 14.8 21.0 16.1 21.0 18.8 21.0 22.15 18.85 23.75 L15.55 26.1 Q14.65 27.5 14.25 29.6 L14.0 29.75 14.0 29.85 Q14.0 30.85 14.25 31.55 L14.3 31.65 14.35 31.75 14.65 31.95 Q15.2 32.2 15.75 32.7 L15.8 32.75 15.35 32.75 15.35 33.1 Q15.7 33.35 17.5 34.0 L19.5 34.7 Q18.8 34.75 18.8 34.95 19.5 35.2 20.55 36.0 L22.3 37.35 22.4 37.15 21.85 36.1 22.95 37.2 23.75 38.1 24.3 40.6 24.55 41.85 24.8 42.35 26.45 42.85 26.65 42.85 26.6 42.9 Q25.85 43.5 23.75 43.8 22.95 43.9 22.35 44.25 L20.15 45.65 20.55 45.35 20.5 45.35 19.45 45.75 Q18.55 46.25 18.55 46.6 L18.6 46.8 19.55 46.55 21.4 46.25 22.8 46.3 23.0 46.5 23.55 46.0 22.65 45.75 22.55 45.7 21.8 45.35 22.0 45.3 Q24.05 44.2 26.85 44.2 L27.7 44.45 27.4 44.85 27.1 45.25 Q27.1 45.5 27.25 45.45 L28.4 44.9 Q29.1 44.5 30.4 44.5 L35.35 45.05 36.45 44.95 36.95 44.55 36.0 44.0 34.55 43.4 34.6 43.35 34.9 43.3 37.15 43.6 37.45 43.7 38.25 43.9 38.7 43.75 39.3 44.75 39.35 44.7 39.55 44.55 39.85 44.4 39.75 44.45 Q39.0 44.9 39.0 45.2 L39.1 45.35 39.15 45.3 39.6 45.1 39.7 45.05 40.05 44.95 40.9 44.85 42.35 45.25 42.95 45.5 43.2 45.6 43.35 45.55 43.35 45.2 43.05 44.85 Q43.95 44.5 44.4 43.65 L44.6 43.05 M7.5 14.05 L8.2 13.5 8.1 13.6 7.5 14.1 7.5 14.05 M11.7 15.75 L12.1 15.4 11.85 15.75 11.7 15.75 M14.55 15.2 L14.95 15.1 15.15 14.9 15.05 15.1 14.55 15.2 M18.4 20.3 L18.35 20.45 18.3 20.4 18.4 20.3 M18.4 21.8 L18.1 21.75 18.15 22.1 18.35 22.1 18.4 21.8" fill="#160a3c" fill-rule="evenodd" stroke="none"/>
      <path d="M48.0 40.5 L47.95 40.6 47.2 41.7 46.9 42.3 46.3 42.7 46.0 42.55 46.0 42.4 Q46.0 42.1 46.55 40.85 L46.55 40.8 45.75 41.6 45.4 42.5 45.15 43.3 44.55 44.1 44.5 43.7 44.55 43.25 44.6 43.05 44.65 42.65 44.65 42.25 44.65 42.0 44.7 40.85 44.95 39.65 45.0 39.5 45.2 39.25 45.25 39.2 45.7 38.65 Q46.85 37.4 48.0 37.05 L48.0 40.5 M43.05 44.85 L43.35 45.2 43.35 45.55 43.2 45.6 42.95 45.5 42.35 45.25 40.9 44.85 40.05 44.95 39.7 45.05 39.6 45.1 39.15 45.3 39.1 45.35 39.0 45.2 Q39.0 44.9 39.75 44.45 L39.85 44.4 40.15 44.25 41.1 44.05 41.15 44.05 Q42.1 44.05 42.9 44.9 L43.05 44.85 M38.7 43.75 L38.25 43.9 37.45 43.7 37.15 43.6 34.9 43.3 34.6 43.35 34.55 43.4 36.0 44.0 36.95 44.55 36.45 44.95 35.35 45.05 30.4 44.5 Q29.1 44.5 28.4 44.9 L27.25 45.45 Q27.1 45.5 27.1 45.25 L27.4 44.85 27.7 44.45 26.85 44.2 Q24.05 44.2 22.0 45.3 L21.8 45.35 22.55 45.7 22.65 45.75 23.55 46.0 23.0 46.5 22.8 46.3 21.4 46.25 19.55 46.55 18.6 46.8 18.55 46.6 Q18.55 46.25 19.45 45.75 L20.5 45.35 20.55 45.35 20.15 45.65 22.35 44.25 Q22.95 43.9 23.75 43.8 25.85 43.5 26.6 42.9 L26.65 42.85 26.8 42.9 27.5 42.5 28.15 42.15 Q30.5 40.95 31.35 40.85 L31.4 40.85 31.55 40.85 32.55 40.85 Q33.9 40.85 34.6 41.45 35.4 42.1 36.45 42.5 L37.85 42.9 38.0 42.9 38.1 42.95 38.35 43.0 38.5 43.4 38.5 43.5 38.5 43.6 38.7 43.75 M23.75 38.1 L22.95 37.2 21.85 36.1 22.4 37.15 22.3 37.35 20.55 36.0 Q19.5 35.2 18.8 34.95 18.8 34.75 19.5 34.7 L17.5 34.0 Q15.7 33.35 15.35 33.1 L15.35 32.75 15.8 32.75 15.85 32.75 15.9 32.85 17.4 33.0 17.45 33.0 17.55 33.0 Q21.7 33.2 23.4 37.2 L23.5 37.4 23.75 38.1 M15.65 35.8 Q17.0 35.95 18.2 36.5 19.7 37.25 19.7 38.0 L19.5 38.35 18.85 38.25 18.15 38.0 16.65 37.8 16.55 37.7 16.15 37.75 17.6 38.35 17.6 38.4 17.5 38.6 15.7 38.75 15.6 38.85 Q12.3 39.35 10.9 41.3 L10.45 40.8 Q10.45 40.3 10.9 39.6 L11.6 38.5 11.7 38.4 Q10.7 38.6 10.2 39.7 9.7 40.75 8.4 40.95 L8.35 40.8 8.5 40.5 8.55 40.45 8.75 40.35 8.75 40.1 8.75 39.9 8.9 39.15 Q9.1 38.2 9.65 37.6 L9.7 37.5 Q11.2 35.9 15.15 35.9 L15.25 35.9 15.65 35.8 M6.35 40.35 L6.5 40.55 7.5 41.5 Q7.4 41.7 6.85 41.7 4.65 41.7 4.2 39.35 L4.2 36.8 4.0 36.1 3.7 35.2 3.55 36.15 3.2 36.8 Q2.9 36.8 2.1 34.65 L0.95 32.2 0.6 31.9 0.0 31.35 0.0 27.25 1.15 27.25 2.9 27.7 3.1 27.8 Q3.6 28.05 4.05 28.45 L4.6 29.0 4.85 29.3 4.85 29.35 5.8 31.0 Q6.8 33.35 6.85 35.8 L6.85 36.0 6.45 37.9 6.0 39.65 6.15 40.1 6.35 40.35 M2.5 29.0 L3.15 29.5 Q3.1 29.15 2.5 28.9 L2.5 29.0" fill="#8567e3" fill-rule="evenodd" stroke="none"/>
      <path d="M14.8 12.8 L15.75 13.3 Q18.05 14.3 18.75 14.85 L19.15 15.25 19.2 15.25 19.45 15.25 19.45 15.3 20.05 15.85 20.35 17.0 20.45 17.65 20.5 19.75 20.5 19.85 20.5 20.2 20.45 20.5 20.2 21.65 20.2 21.7 19.9 22.25 19.55 22.75 19.45 22.85 19.2 23.1 18.95 22.55 18.9 22.4 18.1 21.45 Q17.55 21.1 16.8 21.0 L15.35 20.9 14.45 20.55 13.7 20.2 12.85 20.45 Q14.2 19.1 15.3 20.35 L17.85 20.7 17.95 20.65 18.05 20.6 18.3 20.4 18.35 20.45 18.4 20.3 18.95 19.65 19.05 19.45 19.05 19.4 19.1 19.25 19.15 19.15 19.0 19.25 19.0 19.2 18.8 18.2 18.4 17.1 Q17.7 15.5 17.0 15.0 L15.05 15.1 15.15 14.9 14.95 15.1 14.55 15.2 14.15 15.3 12.25 15.75 11.85 15.75 12.1 15.4 11.7 15.75 9.3 15.35 9.3 15.3 9.45 15.0 8.95 13.9 Q8.95 13.35 9.6 12.05 L10.75 10.15 10.5 10.0 Q9.6 10.25 9.0 10.95 L8.4 11.95 Q8.35 11.05 9.2 9.9 L10.85 7.7 11.7 5.65 Q11.85 5.15 12.3 4.6 12.4 4.45 13.1 4.05 L13.9 3.6 Q12.0 3.8 11.3 5.25 L10.15 7.7 8.7 8.65 8.05 9.25 8.45 8.4 9.75 5.9 9.7 5.7 8.55 4.8 7.55 3.85 7.65 3.55 Q8.05 3.55 8.55 2.55 L9.15 1.45 9.7 1.1 9.7 1.2 Q9.25 1.5 9.25 2.0 L9.5 2.35 11.55 1.0 Q12.9 0.45 17.0 0.2 L19.9 0.15 20.1 0.0 21.1 0.0 21.15 0.85 21.15 1.35 21.15 1.4 21.0 1.95 21.0 2.0 19.85 2.5 18.15 2.55 19.55 3.25 Q21.05 4.05 21.55 4.8 L22.4 6.3 22.55 6.6 21.15 7.6 20.9 7.4 19.6 6.1 19.75 6.0 19.05 5.4 Q17.05 3.75 15.9 3.75 L14.45 3.95 13.55 4.35 13.45 4.4 12.9 4.8 12.8 4.85 12.75 4.9 12.65 5.0 12.55 5.1 12.5 5.15 12.45 5.2 12.25 5.45 11.95 5.9 Q11.7 6.55 11.6 7.35 L11.5 8.2 11.5 8.4 Q11.9 11.15 14.8 12.8 M19.25 4.7 L19.25 4.6 19.1 4.5 19.25 4.7 M7.75 9.9 L7.7 10.0 7.15 12.2 7.15 12.0 Q7.15 11.25 7.75 9.9 M15.15 14.2 L15.8 14.2 15.0 14.1 15.15 14.2 M18.4 21.8 L18.35 22.1 18.15 22.1 18.1 21.75 18.4 21.8" fill="#48367e" fill-rule="evenodd" stroke="none"/>
      <path d="M19.85 2.5 L19.8 2.5 Q21.9 3.45 22.7 5.35 L23.05 6.25 22.7 6.5 22.55 6.6 22.4 6.3 21.55 4.8 Q21.05 4.05 19.55 3.25 L18.15 2.55 19.85 2.5 M7.55 3.85 L7.45 3.55 7.4 3.5 7.35 3.15 Q7.35 2.05 8.75 0.75 L9.7 0.0 18.3 0.0 18.6 0.0 20.1 0.0 19.9 0.15 17.0 0.2 Q12.9 0.45 11.55 1.0 L9.5 2.35 9.25 2.0 Q9.25 1.5 9.7 1.2 L9.7 1.1 9.15 1.45 8.55 2.55 Q8.05 3.55 7.65 3.55 L7.55 3.85 M8.05 9.25 L8.7 8.65 10.15 7.7 11.3 5.25 Q12.0 3.8 13.9 3.6 L13.1 4.05 Q12.4 4.45 12.3 4.6 11.85 5.15 11.7 5.65 L10.85 7.7 9.2 9.9 Q8.35 11.05 8.4 11.95 L9.0 10.95 Q9.6 10.25 10.5 10.0 L10.75 10.15 9.6 12.05 Q8.95 13.35 8.95 13.9 L9.45 15.0 9.3 15.3 9.3 15.35 Q8.25 15.0 7.7 14.35 L7.65 14.3 7.5 14.1 8.1 13.6 8.2 13.5 7.5 14.05 7.45 14.0 7.4 13.85 7.35 13.7 7.15 12.2 7.7 10.0 7.75 9.9 8.0 9.3 8.05 9.25" fill="#b19cf9" fill-rule="evenodd" stroke="none"/>
    </g>
  </defs>
</svg>
