<?xml version="1.0" encoding="UTF-8" standalone="no"?>
<svg xmlns:ffdec="https://www.free-decompiler.com/flash" xmlns:xlink="http://www.w3.org/1999/xlink" ffdec:objectType="frame" height="624.35px" width="684.85px" xmlns="http://www.w3.org/2000/svg">
  <g transform="matrix(1.0, 0.0, 0.0, 1.0, 1316.7, 535.05)">
    <use ffdec:characterId="2051" height="615.7" transform="matrix(1.0, 0.0, 0.0, 1.0, -1316.7, -526.4)" width="656.7" xlink:href="#shape0"/>
    <use ffdec:characterId="2053" height="82.5" transform="matrix(-0.7859, -0.2666, 0.3983, -1.1744, -870.4286, -269.0693)" width="363.15" xlink:href="#sprite0"/>
    <use ffdec:characterId="2053" height="82.5" transform="matrix(-0.8333, -0.0599, -0.054, -1.239, -631.8526, -264.3641)" width="363.15" xlink:href="#sprite0"/>
    <use ffdec:characterId="2054" height="68.05" transform="matrix(1.0, 0.0, 0.0, 1.0, -1264.4, -535.05)" width="246.4" xlink:href="#shape2"/>
  </g>
  <defs>
    <g id="shape0" transform="matrix(1.0, 0.0, 0.0, 1.0, 1316.7, 526.4)">
      <path d="M-884.5 -351.75 Q-889.05 -352.8 -889.05 -350.6 -889.05 -348.8 -888.65 -348.15 L-888.3 -347.5 -882.7 -345.75 Q-882.15 -345.7 -879.85 -347.0 -877.65 -348.15 -876.35 -349.2 L-884.5 -351.75 M-1021.2 -462.9 L-1028.7 -467.75 Q-1033.35 -470.5 -1034.7 -471.0 -1035.3 -470.4 -1035.3 -469.5 -1034.65 -468.5 -1029.55 -465.0 -1024.25 -461.4 -1023.0 -461.4 -1022.05 -461.75 -1021.55 -462.35 L-1021.2 -462.9 M-1047.15 -479.25 L-1046.3 -478.35 -1043.1 -475.8 -1040.15 -476.5 -1039.2 -477.0 -1045.65 -480.75 -1046.3 -480.2 -1047.15 -479.25 M-1096.1 -510.95 L-1095.1 -510.55 -1091.65 -510.7 -1092.8 -510.8 -1096.1 -510.95 M-960.15 -405.45 Q-959.1 -404.8 -955.15 -403.05 -950.95 -401.25 -950.25 -401.25 L-950.05 -401.25 Q-948.5 -400.8 -947.75 -401.25 -947.3 -401.55 -947.05 -402.4 L-950.05 -404.55 -952.25 -405.05 -960.15 -405.45 M-971.9 -407.15 Q-969.55 -405.15 -964.65 -405.15 -962.75 -405.15 -961.7 -405.8 L-961.05 -406.5 Q-963.4 -408.5 -967.4 -410.35 -971.4 -412.2 -973.35 -412.2 -973.5 -413.25 -973.5 -410.25 -973.5 -408.5 -971.9 -407.15 M-964.35 -423.0 L-964.35 -423.1 -962.5 -421.85 -950.05 -413.65 -948.2 -411.65 -950.05 -412.7 Q-955.8 -414.0 -960.55 -415.9 L-961.1 -416.1 -958.05 -417.0 Q-960.65 -418.5 -965.55 -420.0 -971.35 -421.8 -975.3 -421.8 -972.5 -419.0 -964.7 -416.55 -962.7 -415.25 -956.55 -413.8 L-950.05 -412.45 -948.1 -411.6 -944.4 -407.95 -936.45 -401.4 -939.95 -402.6 -940.2 -399.05 Q-938.6 -397.35 -936.3 -395.8 -933.9 -394.1 -932.05 -393.5 L-929.85 -393.65 -928.9 -394.9 -929.0 -395.35 -913.1 -383.0 Q-920.0 -384.75 -924.1 -385.0 -924.1 -384.15 -923.45 -382.9 L-922.8 -381.3 Q-919.7 -379.7 -911.7 -376.85 L-902.35 -373.7 -899.45 -372.95 -891.45 -367.35 Q-895.9 -369.05 -900.15 -371.15 L-901.0 -371.2 -902.35 -370.1 Q-901.45 -367.7 -900.2 -366.7 -898.65 -365.45 -894.25 -364.1 L-890.5 -363.65 Q-888.75 -363.75 -888.3 -364.15 L-889.1 -365.55 -889.3 -365.9 Q-885.15 -363.05 -881.0 -360.35 -878.1 -361.0 -875.5 -360.4 L-876.85 -361.05 -877.25 -361.35 Q-877.6 -361.7 -877.6 -363.5 -877.6 -366.5 -877.35 -366.15 -875.6 -365.4 -869.75 -364.1 -864.95 -363.0 -863.3 -361.7 -864.65 -360.55 -868.0 -359.8 L-873.05 -359.55 -873.45 -359.65 -872.7 -359.3 Q-867.05 -359.25 -864.3 -356.2 -864.9 -354.65 -866.75 -353.55 L-863.25 -349.1 -861.4 -348.05 -860.35 -347.4 Q-861.25 -346.95 -861.25 -346.4 L-861.25 -345.75 -861.4 -345.75 -861.5 -345.75 Q-865.5 -346.2 -868.1 -344.5 -867.5 -343.6 -865.65 -342.7 -868.35 -342.2 -868.35 -341.4 -868.35 -339.5 -868.1 -339.55 L-867.85 -339.9 -864.55 -337.65 -841.7 -335.2 -836.3 -335.05 -835.05 -335.05 -834.5 -334.5 -833.9 -333.4 -834.65 -332.9 Q-824.85 -327.7 -814.65 -322.7 L-812.6 -322.55 Q-801.15 -321.85 -791.3 -320.05 -789.35 -318.85 -788.95 -318.2 -792.2 -318.5 -804.9 -318.05 L-793.15 -312.65 -789.8 -311.55 -784.75 -312.0 Q-770.2 -312.6 -763.75 -307.0 -767.45 -307.35 -776.25 -307.15 L-765.35 -303.65 Q-764.45 -302.55 -763.15 -301.5 -761.15 -302.15 -758.1 -302.45 L-741.5 -303.05 Q-744.75 -300.55 -754.4 -297.85 L-756.0 -297.4 Q-749.7 -294.65 -738.6 -291.15 L-736.5 -290.5 -740.8 -289.2 -740.15 -288.15 -740.1 -287.75 Q-738.95 -286.95 -736.6 -286.25 L-736.15 -286.1 Q-731.75 -284.95 -721.75 -286.2 -707.4 -282.4 -693.55 -279.8 -682.85 -277.85 -672.4 -276.65 -675.15 -275.7 -676.1 -274.85 L-675.1 -273.55 -674.45 -272.95 -660.0 -271.1 -660.0 -237.7 -661.8 -238.2 Q-665.2 -239.3 -666.75 -241.35 L-668.3 -243.45 -673.1 -243.25 Q-675.0 -242.15 -675.45 -242.3 -677.65 -243.0 -678.35 -245.05 -678.75 -246.1 -678.65 -247.15 -678.65 -250.35 -672.65 -252.2 L-680.75 -252.85 -693.55 -253.8 Q-719.0 -255.8 -722.2 -256.8 -728.7 -258.85 -729.6 -262.25 -730.0 -263.95 -729.15 -265.9 L-733.35 -267.55 -736.15 -267.85 -773.95 -271.45 Q-776.8 -272.35 -777.25 -273.9 -777.75 -275.45 -778.75 -275.75 L-803.3 -277.9 -824.6 -279.8 -835.45 -288.65 -835.25 -289.5 -836.6 -289.55 Q-855.25 -303.7 -904.15 -333.6 L-950.05 -362.2 Q-972.4 -368.4 -985.45 -372.75 -1031.85 -388.15 -1048.6 -404.4 L-1095.0 -435.8 Q-1143.0 -467.2 -1181.2 -486.7 -1209.85 -501.35 -1231.8 -508.7 L-1208.75 -509.85 Q-1210.75 -510.8 -1212.65 -512.2 L-1213.15 -511.75 -1213.75 -511.35 -1215.0 -510.95 -1216.4 -511.2 Q-1221.8 -511.4 -1226.1 -514.3 -1232.65 -518.75 -1227.5 -522.65 -1225.5 -522.3 -1224.35 -520.5 -1223.85 -519.7 -1223.1 -519.55 L-1223.1 -520.0 Q-1220.6 -520.8 -1220.8 -524.25 L-1221.1 -526.2 -1220.6 -526.35 -1220.0 -526.4 Q-1217.45 -525.9 -1216.0 -523.25 -1213.1 -518.0 -1207.5 -522.2 L-1206.0 -521.6 Q-1203.15 -520.2 -1200.15 -521.1 L-1200.15 -521.55 Q-1200.35 -522.85 -1199.7 -523.95 -1199.0 -525.15 -1197.5 -525.15 L-1196.3 -524.7 Q-1194.45 -523.7 -1194.7 -521.55 L-1194.85 -519.7 -1194.65 -519.45 -1191.1 -519.2 Q-1190.1 -520.7 -1188.65 -521.8 -1186.1 -523.7 -1183.9 -521.4 -1183.55 -520.7 -1183.55 -520.0 L-1183.55 -519.05 -1183.4 -518.6 -1183.1 -518.15 Q-1179.4 -515.65 -1174.7 -515.55 -1169.45 -515.4 -1164.6 -516.95 -1155.5 -519.8 -1150.6 -514.55 -1149.8 -515.85 -1148.45 -516.65 -1146.4 -517.8 -1144.5 -516.4 -1143.95 -515.8 -1143.95 -515.0 L-1143.85 -514.05 -1143.7 -513.65 -1143.45 -513.3 Q-1141.3 -513.85 -1139.25 -514.95 L-1136.55 -515.15 Q-1135.55 -514.65 -1135.35 -513.5 L-1135.35 -511.8 -1127.4 -511.85 -1127.35 -512.2 -1127.15 -512.65 Q-1126.6 -513.6 -1125.6 -513.75 L-1123.75 -513.9 -1122.6 -513.7 Q-1121.05 -513.4 -1120.1 -512.25 L-1120.0 -511.9 -1115.6 -511.95 -1112.5 -513.3 Q-1105.45 -516.35 -1099.35 -520.15 L-1099.35 -520.1 Q-1097.15 -519.95 -1097.55 -517.7 -1097.8 -516.2 -1098.4 -514.75 -1099.1 -513.05 -1097.95 -512.2 L-1097.55 -511.9 -1089.9 -511.85 -1087.25 -510.75 -1086.3 -510.4 -1080.05 -507.9 Q-1074.65 -505.8 -1073.8 -503.7 L-1073.8 -503.1 -1073.7 -502.9 -1074.9 -502.75 -1078.65 -503.25 Q-1074.3 -500.25 -1068.95 -500.15 L-1066.35 -498.6 -1067.55 -498.55 -1067.25 -497.85 -1054.2 -496.8 Q-1054.2 -496.45 -1053.55 -495.95 L-1053.55 -494.35 -1057.35 -493.9 -1056.6 -493.85 Q-1051.3 -493.35 -1048.25 -491.9 L-1048.05 -492.0 -1046.85 -492.2 -1046.85 -492.1 -1044.65 -491.6 Q-1043.25 -490.4 -1041.2 -489.65 L-1036.8 -487.85 -1036.55 -487.75 -1036.45 -487.5 Q-1040.45 -486.5 -1045.65 -488.3 L-1047.2 -488.6 -1046.25 -487.55 -1048.0 -487.8 Q-1044.8 -486.25 -1040.7 -483.15 L-1037.9 -481.7 Q-1027.3 -469.35 -997.25 -446.7 L-1002.2 -449.15 Q-1012.05 -453.6 -1014.75 -452.85 -1010.95 -448.75 -1004.95 -447.05 L-1003.75 -446.8 Q-1006.45 -446.65 -1008.15 -444.15 L-992.65 -435.3 Q-990.05 -433.8 -987.85 -432.75 L-987.9 -432.75 Q-986.65 -429.65 -977.9 -426.35 -970.05 -423.4 -964.35 -423.0" fill="#aec53f" fill-rule="evenodd" stroke="none"/>
      <path d="M-689.75 -323.5 L-693.55 -324.25 -694.75 -324.55 Q-702.15 -325.95 -736.15 -334.4 L-750.9 -338.1 -799.55 -350.3 -813.0 -354.65 Q-828.4 -357.05 -843.65 -361.8 -852.85 -364.7 -861.4 -367.95 -876.45 -373.65 -889.65 -380.55 L-889.8 -380.5 -889.9 -380.45 -890.0 -380.45 -893.3 -380.6 -893.85 -380.7 -893.7 -380.9 -893.7 -380.95 -894.0 -382.15 -894.05 -382.15 -894.85 -382.5 -905.05 -386.3 -905.5 -386.35 -905.55 -386.5 -905.7 -387.0 -904.15 -387.05 Q-913.0 -392.0 -923.1 -399.85 L-924.5 -400.1 -924.2 -400.35 Q-927.75 -404.0 -934.0 -408.6 L-934.25 -408.55 -934.75 -408.95 -935.35 -409.65 -935.9 -410.0 -935.9 -410.1 -934.6 -410.35 -934.15 -410.45 Q-932.9 -411.1 -932.5 -411.5 L-932.35 -411.5 -932.3 -411.65 -932.35 -411.8 Q-935.35 -412.75 -938.8 -415.15 L-939.9 -415.95 -943.65 -417.45 -950.05 -423.0 -951.2 -423.45 -950.05 -423.15 -949.35 -422.75 -948.75 -422.3 -950.05 -423.6 -956.8 -427.7 Q-960.5 -430.95 -965.0 -433.8 L-968.25 -435.75 Q-973.65 -439.6 -982.4 -445.15 L-982.8 -445.0 -984.75 -446.3 -983.55 -446.75 -983.75 -447.3 Q-984.95 -447.6 -994.75 -452.2 -993.6 -452.4 -992.9 -452.7 -991.35 -453.35 -991.35 -454.9 -991.35 -456.0 -991.6 -456.0 L-991.9 -455.75 Q-996.15 -455.3 -1002.95 -457.4 L-1009.1 -461.0 -1009.55 -461.65 -1009.5 -462.0 -1010.35 -462.6 -1010.6 -462.65 -1010.1 -462.7 -1007.45 -463.05 -1007.65 -463.4 Q-1011.4 -464.25 -1018.0 -467.0 -1022.4 -470.8 -1025.5 -474.7 L-1026.65 -476.2 -1018.05 -469.75 -1016.5 -469.1 -1011.0 -466.95 Q-1005.0 -463.25 -1000.7 -461.5 L-1001.4 -461.45 -1005.1 -461.65 Q-1002.5 -460.65 -999.35 -458.8 -998.6 -458.6 -997.55 -457.85 L-987.85 -454.9 Q-989.1 -453.65 -991.1 -453.0 L-989.5 -451.9 -988.15 -451.4 Q-987.45 -451.15 -980.05 -447.1 L-981.5 -445.8 -971.95 -440.3 -971.65 -440.1 Q-968.05 -437.05 -963.75 -434.05 -956.9 -429.3 -950.05 -425.8 L-944.7 -421.25 -943.55 -419.95 -941.7 -419.0 -940.85 -418.6 -940.45 -418.25 -937.5 -416.4 Q-931.25 -412.35 -930.4 -410.85 L-932.15 -409.65 -932.75 -409.25 -931.95 -408.5 -929.45 -407.1 Q-922.05 -402.65 -920.8 -401.2 -921.1 -400.25 -921.9 -399.95 -912.4 -392.6 -901.25 -386.55 L-896.05 -385.25 -891.95 -383.5 -888.05 -381.7 Q-888.5 -381.05 -889.25 -380.65 -883.4 -378.1 -877.2 -375.8 L-872.55 -373.5 -861.4 -368.15 -860.05 -367.5 -855.5 -366.05 -854.5 -365.75 -844.25 -362.55 Q-835.25 -361.4 -825.1 -359.1 L-811.45 -355.9 -806.15 -355.05 -800.35 -353.2 -800.4 -353.2 -790.0 -349.95 Q-767.45 -344.35 -756.2 -342.0 L-738.95 -336.55 -736.15 -336.1 -726.0 -334.7 Q-716.75 -332.1 -708.45 -330.35 L-693.6 -327.6 -693.55 -327.55 Q-682.8 -324.05 -668.45 -321.85 L-660.0 -320.75 -660.0 -320.25 -685.15 -323.0 -689.75 -323.5" fill="#84a628" fill-rule="evenodd" stroke="none"/>
      <path d="M-1018.0 -467.0 Q-1011.4 -464.25 -1007.65 -463.4 L-1007.45 -463.05 -1010.1 -462.7 -1010.6 -462.65 -1010.35 -462.6 -1009.5 -462.0 -1009.55 -461.65 -1009.1 -461.0 -1002.95 -457.4 Q-996.15 -455.3 -991.9 -455.75 L-991.6 -456.0 Q-991.35 -456.0 -991.35 -454.9 -991.35 -453.35 -992.9 -452.7 -993.6 -452.4 -994.75 -452.2 -984.95 -447.6 -983.75 -447.3 L-983.55 -446.75 -984.75 -446.3 -982.8 -445.0 -982.4 -445.15 Q-973.65 -439.6 -968.25 -435.75 L-965.0 -433.8 Q-960.5 -430.95 -956.8 -427.7 L-950.05 -423.6 -948.75 -422.3 -949.35 -422.75 -950.05 -423.15 -951.2 -423.45 -950.05 -423.0 -943.65 -417.45 -939.9 -415.95 -938.8 -415.15 Q-935.35 -412.75 -932.35 -411.8 L-932.3 -411.65 -932.35 -411.5 -932.5 -411.5 Q-932.9 -411.1 -934.15 -410.45 L-934.6 -410.35 -935.9 -410.1 -935.9 -410.0 -935.35 -409.65 -934.75 -408.95 -934.25 -408.55 -934.0 -408.6 Q-927.75 -404.0 -924.2 -400.35 L-924.5 -400.1 -923.1 -399.85 Q-913.0 -392.0 -904.15 -387.05 L-905.7 -387.0 -905.55 -386.5 -905.5 -386.35 -905.05 -386.3 -894.85 -382.5 -894.05 -382.15 -894.0 -382.15 -893.7 -380.95 -893.7 -380.9 -893.85 -380.7 -893.3 -380.6 -890.0 -380.45 -889.9 -380.45 -889.8 -380.5 -889.65 -380.55 Q-876.45 -373.65 -861.4 -367.95 -852.85 -364.7 -843.65 -361.8 -828.4 -357.05 -813.0 -354.65 L-799.55 -350.3 -750.9 -338.1 -736.15 -334.4 Q-702.15 -325.95 -694.75 -324.55 L-693.55 -324.25 -689.75 -323.5 Q-679.6 -321.45 -660.0 -318.1 L-660.0 -271.1 -674.45 -272.95 -675.1 -273.55 -676.1 -274.85 Q-675.15 -275.7 -672.4 -276.65 -682.85 -277.85 -693.55 -279.8 -707.4 -282.4 -721.75 -286.2 -731.75 -284.95 -736.15 -286.1 L-736.6 -286.25 Q-738.95 -286.95 -740.1 -287.75 L-740.15 -288.15 -740.8 -289.2 -736.5 -290.5 -738.6 -291.15 Q-749.7 -294.65 -756.0 -297.4 L-754.4 -297.85 Q-744.75 -300.55 -741.5 -303.05 L-758.1 -302.45 Q-761.15 -302.15 -763.15 -301.5 -764.45 -302.55 -765.35 -303.65 L-776.25 -307.15 Q-767.45 -307.35 -763.75 -307.0 -770.2 -312.6 -784.75 -312.0 L-789.8 -311.55 -793.15 -312.65 -804.9 -318.05 Q-792.2 -318.5 -788.95 -318.2 -789.35 -318.85 -791.3 -320.05 -801.15 -321.85 -812.6 -322.55 L-814.65 -322.7 Q-824.85 -327.7 -834.65 -332.9 L-833.9 -333.4 -834.5 -334.5 -835.05 -335.05 -836.3 -335.05 -841.7 -335.2 -864.55 -337.65 -867.85 -339.9 -868.1 -339.55 Q-868.35 -339.5 -868.35 -341.4 -868.35 -342.2 -865.65 -342.7 -867.5 -343.6 -868.1 -344.5 -865.5 -346.2 -861.5 -345.75 L-861.4 -345.75 -861.25 -345.75 -861.25 -346.4 Q-861.25 -346.95 -860.35 -347.4 L-861.4 -348.05 -863.25 -349.1 -866.75 -353.55 Q-864.9 -354.65 -864.3 -356.2 -867.05 -359.25 -872.7 -359.3 L-873.45 -359.65 -873.05 -359.55 -868.0 -359.8 Q-864.65 -360.55 -863.3 -361.7 -864.95 -363.0 -869.75 -364.1 -875.6 -365.4 -877.35 -366.15 -877.6 -366.5 -877.6 -363.5 -877.6 -361.7 -877.25 -361.35 L-876.85 -361.05 -875.5 -360.4 Q-878.1 -361.0 -881.0 -360.35 -885.15 -363.05 -889.3 -365.9 L-889.1 -365.55 -888.3 -364.15 Q-888.75 -363.75 -890.5 -363.65 L-894.25 -364.1 Q-898.65 -365.45 -900.2 -366.7 -901.45 -367.7 -902.35 -370.1 L-901.0 -371.2 -900.15 -371.15 Q-895.9 -369.05 -891.45 -367.35 L-899.45 -372.95 -902.35 -373.7 Q-905.9 -374.8 -911.7 -376.85 -919.7 -379.7 -922.8 -381.3 L-923.45 -382.9 Q-924.1 -384.15 -924.1 -385.0 -920.0 -384.75 -913.1 -383.0 L-929.0 -395.35 -928.9 -394.9 -929.85 -393.65 -932.05 -393.5 Q-933.9 -394.1 -936.3 -395.8 -938.6 -397.35 -940.2 -399.05 L-939.95 -402.6 -936.45 -401.4 -944.4 -407.95 -948.1 -411.6 -950.05 -412.45 -956.55 -413.8 Q-962.7 -415.25 -964.7 -416.55 -972.5 -419.0 -975.3 -421.8 -971.35 -421.8 -965.55 -420.0 -960.65 -418.5 -958.05 -417.0 L-961.1 -416.1 -960.55 -415.9 Q-955.8 -414.0 -950.05 -412.7 L-948.2 -411.65 -950.05 -413.65 -962.5 -421.85 -964.35 -423.1 -964.35 -423.0 Q-970.05 -423.4 -977.9 -426.35 -986.65 -429.65 -987.9 -432.75 L-987.85 -432.75 Q-990.05 -433.8 -992.65 -435.3 L-1008.15 -444.15 Q-1006.45 -446.65 -1003.75 -446.8 L-1004.95 -447.05 Q-1010.95 -448.75 -1014.75 -452.85 -1012.05 -453.6 -1002.2 -449.15 L-997.25 -446.7 Q-1027.3 -469.35 -1037.9 -481.7 -1034.45 -479.7 -1031.2 -476.65 L-1030.9 -476.65 -1030.7 -476.35 -1028.6 -474.95 -1025.75 -472.85 -1025.95 -472.7 -1026.0 -471.75 -1020.8 -468.2 -1019.2 -467.5 -1018.0 -467.0 M-854.5 -365.75 L-855.5 -366.05 -856.25 -366.6 Q-857.15 -367.35 -854.35 -366.9 L-854.15 -366.7 Q-854.1 -365.85 -854.5 -365.75 M-971.9 -407.15 Q-973.5 -408.5 -973.5 -410.25 -973.5 -413.25 -973.35 -412.2 -971.4 -412.2 -967.4 -410.35 -963.4 -408.5 -961.05 -406.5 L-961.7 -405.8 Q-962.75 -405.15 -964.65 -405.15 -969.55 -405.15 -971.9 -407.15 M-960.15 -405.45 L-952.25 -405.05 -950.05 -404.55 -947.05 -402.4 Q-947.3 -401.55 -947.75 -401.25 -948.5 -400.8 -950.05 -401.25 L-950.25 -401.25 Q-950.95 -401.25 -955.15 -403.05 -959.1 -404.8 -960.15 -405.45 M-1201.2 -512.6 L-1201.1 -512.65 -1194.35 -514.05 -1193.9 -513.9 -1196.95 -511.7 -1201.2 -512.6 M-1203.45 -519.4 L-1202.85 -519.05 Q-1201.65 -516.8 -1203.1 -517.5 -1204.4 -518.15 -1203.45 -519.4 M-1186.25 -520.3 L-1186.2 -520.2 -1185.4 -519.45 -1185.2 -519.05 Q-1185.15 -518.25 -1184.6 -517.6 -1184.15 -516.95 -1184.2 -516.25 L-1184.4 -515.8 Q-1185.3 -514.45 -1186.75 -513.8 -1189.3 -512.7 -1191.85 -512.95 L-1192.15 -513.15 -1192.45 -513.45 -1192.65 -514.4 -1192.5 -515.3 -1191.35 -516.2 Q-1189.65 -517.5 -1192.2 -516.35 -1195.1 -515.1 -1197.65 -516.1 L-1196.3 -516.85 Q-1193.7 -517.8 -1191.25 -519.05 -1188.95 -520.25 -1186.25 -520.3 M-1192.75 -510.75 Q-1186.95 -512.8 -1180.85 -514.05 L-1166.85 -516.55 -1166.85 -516.45 -1166.15 -516.0 -1165.95 -515.6 -1166.0 -515.2 Q-1166.55 -513.95 -1165.25 -514.4 L-1164.65 -514.55 -1161.7 -516.4 Q-1156.1 -519.2 -1152.35 -515.95 L-1152.3 -515.5 -1152.2 -514.75 -1150.0 -514.55 -1149.55 -515.05 -1148.25 -516.75 Q-1147.5 -517.8 -1146.25 -518.15 -1144.05 -517.8 -1143.0 -516.2 -1141.4 -513.75 -1137.0 -515.3 -1136.35 -514.8 -1136.05 -513.95 L-1135.7 -512.95 -1135.6 -512.5 -1134.35 -512.85 Q-1132.7 -513.25 -1131.15 -513.75 -1129.4 -514.25 -1129.05 -512.65 -1128.15 -512.25 -1126.7 -512.9 L-1121.25 -514.85 -1120.75 -514.0 -1120.6 -513.15 -1120.6 -512.85 -1120.45 -512.85 -1119.6 -513.2 -1119.5 -512.65 Q-1118.2 -510.55 -1115.75 -511.55 -1110.9 -513.5 -1109.85 -516.3 -1104.35 -517.9 -1099.35 -520.15 -1098.4 -520.15 -1098.1 -519.05 -1097.9 -518.3 -1098.2 -517.55 -1098.7 -516.3 -1098.85 -514.9 -1099.0 -513.3 -1100.1 -512.35 L-1100.35 -512.0 -1083.1 -509.85 -1082.35 -509.0 Q-1081.65 -507.8 -1079.8 -507.35 -1077.2 -506.7 -1075.15 -505.3 L-1075.15 -504.4 -1075.1 -503.0 -1074.9 -502.05 -1074.85 -501.55 Q-1076.7 -500.9 -1078.75 -501.0 -1081.6 -501.1 -1082.95 -502.8 L-1083.05 -503.3 -1082.8 -504.1 -1082.0 -505.1 -1082.0 -505.3 -1085.8 -506.0 -1086.05 -506.0 -1085.6 -505.45 -1087.0 -505.7 -1092.5 -506.15 -1094.95 -506.1 Q-1100.15 -506.35 -1102.95 -508.45 L-1102.45 -509.3 -1102.35 -509.4 -1102.9 -509.6 -1103.2 -509.4 Q-1104.8 -508.55 -1106.55 -508.75 -1106.2 -509.4 -1106.15 -509.75 -1106.15 -510.2 -1106.7 -510.2 L-1107.15 -509.8 Q-1109.25 -508.15 -1114.35 -509.0 L-1114.95 -508.95 Q-1115.55 -508.75 -1115.8 -508.95 -1116.1 -509.15 -1116.1 -509.7 L-1115.9 -510.0 Q-1119.35 -509.6 -1122.75 -510.15 -1126.65 -507.4 -1132.25 -504.8 -1137.55 -502.3 -1141.4 -504.2 -1141.2 -505.0 -1140.6 -505.35 -1137.95 -507.0 -1135.1 -508.5 L-1137.4 -508.8 -1147.8 -510.0 -1147.6 -509.75 Q-1147.25 -508.2 -1149.2 -509.15 -1150.35 -509.75 -1148.8 -510.0 L-1157.95 -509.7 Q-1158.2 -513.0 -1162.1 -511.05 -1165.65 -509.25 -1168.75 -510.0 L-1168.3 -510.85 -1167.55 -511.8 -1168.95 -511.25 Q-1170.55 -510.5 -1172.2 -510.45 L-1172.6 -511.0 -1172.75 -511.4 -1172.75 -511.85 -1172.65 -512.35 Q-1169.25 -514.2 -1172.65 -513.55 L-1188.3 -510.05 -1188.85 -509.9 -1192.75 -510.75 M-1116.45 -504.55 L-1119.05 -504.3 Q-1120.95 -504.4 -1122.65 -505.45 L-1122.4 -505.85 Q-1121.4 -506.85 -1119.95 -507.0 -1118.5 -507.1 -1117.0 -507.8 L-1116.85 -507.85 -1116.2 -507.85 Q-1114.55 -507.8 -1113.6 -506.7 L-1113.25 -505.95 Q-1113.8 -505.55 -1114.4 -505.3 L-1116.45 -504.55 M-1125.75 -506.05 L-1126.6 -506.2 Q-1129.4 -506.75 -1126.25 -507.5 -1125.95 -507.45 -1125.7 -507.25 L-1124.75 -506.45 Q-1124.25 -505.85 -1125.75 -506.05 M-1150.55 -501.4 L-1150.7 -501.5 Q-1151.9 -502.55 -1151.05 -503.75 -1150.4 -504.75 -1149.05 -504.7 L-1148.75 -504.6 Q-1148.1 -504.65 -1147.8 -504.1 L-1147.2 -503.15 -1146.85 -502.65 Q-1146.85 -501.55 -1148.1 -501.4 L-1149.55 -501.15 -1150.55 -501.4 M-1116.25 -493.8 L-1114.65 -494.3 -1112.65 -494.55 -1112.4 -494.55 Q-1112.4 -493.7 -1112.95 -493.05 L-1116.25 -493.8 M-1046.2 -478.25 L-1046.3 -478.35 -1047.15 -479.25 -1046.3 -480.2 -1045.65 -480.75 -1039.2 -477.0 -1039.6 -476.8 -1046.2 -478.25 M-1214.35 -516.05 L-1214.7 -516.1 -1214.5 -516.25 -1210.0 -516.55 -1209.95 -516.45 Q-1209.9 -516.4 -1209.85 -516.4 L-1214.35 -516.05 M-1102.1 -514.9 L-1101.7 -516.1 -1102.6 -515.7 -1103.65 -514.6 -1102.1 -514.9 M-1129.35 -499.4 L-1129.0 -499.15 Q-1128.6 -498.7 -1129.15 -498.55 L-1131.25 -498.3 -1131.8 -498.5 Q-1132.6 -499.0 -1131.25 -499.15 L-1129.35 -499.4 M-1087.3 -500.5 L-1086.2 -501.25 -1085.0 -501.4 -1080.05 -500.0 Q-1079.35 -499.85 -1079.5 -499.05 -1081.45 -497.35 -1084.4 -497.8 -1086.55 -498.15 -1087.65 -499.7 L-1087.3 -500.5 M-1099.45 -501.7 Q-1098.0 -501.05 -1099.45 -500.9 -1101.3 -500.65 -1100.3 -501.9 L-1099.45 -501.7 M-1104.7 -498.2 Q-1103.4 -497.1 -1106.85 -497.65 -1110.9 -498.25 -1106.25 -498.75 -1105.3 -498.7 -1104.7 -498.2 M-1110.55 -510.75 L-1110.6 -510.95 -1110.6 -511.1 -1111.6 -510.8 -1110.55 -510.75 M-1076.85 -491.1 L-1075.6 -490.75 -1075.15 -490.65 -1074.4 -490.4 -1073.9 -490.15 Q-1074.5 -489.75 -1075.2 -489.55 L-1080.4 -487.7 Q-1082.2 -487.0 -1082.5 -488.9 L-1081.8 -489.8 Q-1080.95 -490.8 -1079.55 -490.95 L-1077.5 -491.25 -1076.85 -491.1 M-1064.35 -490.95 L-1064.45 -490.5 Q-1065.65 -487.55 -1069.45 -488.75 -1071.65 -489.45 -1072.2 -491.4 L-1071.55 -492.15 Q-1070.85 -492.75 -1069.95 -493.0 L-1068.75 -493.15 -1067.65 -492.9 Q-1066.0 -492.75 -1064.95 -491.75 L-1064.35 -490.95 M-1059.7 -483.75 L-1059.4 -483.7 Q-1056.5 -482.45 -1059.0 -481.9 -1061.7 -481.3 -1059.7 -483.75 M-1063.5 -495.2 L-1070.75 -496.45 -1071.1 -496.75 Q-1070.55 -498.65 -1068.1 -498.5 L-1055.6 -498.15 -1055.6 -498.05 -1055.0 -497.9 -1054.5 -497.7 -1053.6 -497.2 -1053.25 -496.7 Q-1053.1 -496.25 -1053.25 -495.85 L-1053.35 -495.5 -1052.5 -495.0 -1049.4 -494.25 Q-1046.55 -493.35 -1043.8 -492.25 L-1042.0 -491.5 Q-1039.3 -490.35 -1037.75 -488.2 L-1037.65 -487.8 Q-1040.55 -486.6 -1043.8 -486.55 L-1042.5 -485.45 Q-1041.75 -484.45 -1041.55 -483.6 L-1038.8 -482.15 Q-1036.6 -480.95 -1036.0 -478.45 L-1035.95 -478.0 -1037.1 -478.3 -1041.9 -480.55 Q-1045.8 -482.45 -1049.8 -484.15 -1053.0 -485.5 -1055.4 -487.3 L-1055.6 -487.65 Q-1054.1 -489.4 -1051.9 -490.05 -1053.45 -490.75 -1056.0 -491.35 L-1067.2 -494.25 -1067.0 -494.4 -1065.0 -495.0 -1063.5 -495.2 M-1047.0 -490.25 L-1046.25 -490.15 -1046.6 -490.4 -1047.15 -490.6 -1047.0 -490.25 M-1036.55 -487.75 L-1036.0 -487.65 -1036.05 -487.6 -1036.45 -487.5 -1036.55 -487.75 M-1035.95 -488.85 L-1035.8 -488.8 -1035.5 -488.7 -1035.35 -488.65 -1035.55 -488.4 -1036.05 -488.9 Q-1036.0 -488.9 -1035.95 -488.85 M-1023.0 -461.4 Q-1024.25 -461.4 -1029.55 -465.0 -1034.65 -468.5 -1035.3 -469.5 -1035.3 -470.4 -1034.7 -471.0 -1033.35 -470.5 -1028.7 -467.75 L-1021.2 -462.9 -1021.55 -462.35 Q-1022.05 -461.75 -1023.0 -461.4 M-983.4 -436.45 L-994.95 -444.95 -999.85 -446.0 Q-997.6 -445.1 -994.95 -443.15 -992.4 -441.3 -987.0 -436.55 L-982.05 -432.3 -981.9 -432.25 -983.1 -433.95 -983.25 -434.6 -983.4 -436.45 M-974.15 -429.6 L-973.15 -429.2 -973.75 -429.6 -974.15 -429.6 M-1006.85 -418.6 L-1004.55 -418.15 -1002.8 -417.5 Q-1004.35 -416.4 -1006.35 -416.05 -1008.25 -415.7 -1006.25 -415.0 L-1006.15 -414.6 Q-1006.8 -412.6 -1009.0 -414.45 -1009.75 -415.05 -1009.7 -415.95 L-1009.25 -416.75 -1008.1 -417.8 -1006.85 -418.6 M-693.95 -297.2 Q-697.55 -299.15 -702.75 -298.75 -707.9 -298.4 -707.9 -296.2 L-707.75 -294.75 -707.65 -294.5 -707.55 -294.65 -707.5 -294.65 -707.45 -294.55 Q-707.2 -294.2 -705.8 -293.75 L-703.75 -293.45 -700.4 -293.4 Q-695.85 -293.45 -693.55 -294.4 L-693.0 -294.7 -693.5 -296.05 -693.55 -296.1 -693.95 -297.2 M-736.6 -293.85 L-736.15 -293.0 -735.8 -292.6 Q-735.3 -292.0 -733.85 -291.55 L-733.65 -291.55 Q-733.4 -291.2 -732.1 -290.75 -710.7 -289.65 -707.65 -290.5 -710.9 -293.6 -721.9 -293.55 L-722.2 -293.55 Q-720.1 -294.1 -719.15 -294.65 -721.2 -295.7 -728.4 -295.2 -734.4 -294.85 -736.15 -294.1 L-736.6 -293.85 M-669.0 -282.55 L-669.1 -282.6 Q-670.4 -283.75 -670.4 -284.3 L-677.35 -285.2 -683.6 -285.2 -693.0 -284.25 Q-692.75 -283.65 -691.5 -282.8 L-690.3 -282.05 -678.7 -281.95 -669.0 -282.55 M-685.95 -293.85 L-683.55 -295.6 Q-685.85 -296.8 -687.85 -296.9 -690.2 -296.95 -690.2 -295.1 -690.2 -293.45 -689.85 -293.2 -689.05 -293.15 -688.45 -292.7 -687.75 -292.7 -685.95 -293.85 M-889.05 -350.6 Q-889.05 -352.8 -884.5 -351.75 L-876.35 -349.2 Q-877.65 -348.15 -879.85 -347.0 -882.15 -345.7 -882.7 -345.75 L-888.3 -347.5 -888.65 -348.15 Q-889.05 -348.8 -889.05 -350.6 M-858.4 -347.95 L-858.4 -348.0 -858.35 -347.95 -853.1 -348.1 Q-848.75 -347.65 -844.3 -346.15 -842.2 -346.3 -841.0 -346.95 -845.75 -350.05 -852.25 -351.0 -858.9 -352.05 -858.9 -349.35 L-858.8 -347.9 -858.4 -347.95 M-913.55 -374.8 Q-915.4 -375.35 -913.1 -375.8 L-912.75 -375.55 Q-911.75 -374.25 -913.55 -374.8" fill="#c8d87a" fill-rule="evenodd" stroke="none"/>
      <path d="M-1201.2 -512.6 L-1196.95 -511.7 -1192.75 -510.75 -1188.85 -509.9 -1150.55 -501.4 -1149.55 -501.15 -1116.25 -493.8 -1112.95 -493.05 -1046.2 -478.25 -1039.6 -476.8 -1031.95 -475.1 Q-1040.0 -467.75 -1049.8 -460.05 L-1054.6 -456.1 -1059.45 -452.45 Q-1061.4 -448.75 -1066.3 -442.9 -1071.5 -436.85 -1076.8 -432.15 L-1073.3 -432.35 -1072.4 -432.25 Q-1073.9 -429.95 -1081.05 -426.3 L-1082.3 -425.7 Q-1091.7 -421.1 -1096.85 -422.25 -1098.1 -422.55 -1098.2 -424.0 L-1104.65 -424.95 Q-1106.25 -420.25 -1110.45 -417.6 -1113.8 -415.45 -1117.85 -415.15 -1117.05 -414.35 -1117.5 -412.25 -1118.2 -408.95 -1122.55 -407.1 -1126.5 -405.35 -1131.6 -405.4 -1136.75 -405.5 -1139.85 -407.35 -1143.3 -409.5 -1142.5 -413.05 -1142.1 -414.9 -1139.85 -414.85 -1133.35 -414.65 -1130.2 -415.0 L-1123.85 -415.7 Q-1126.7 -416.4 -1128.7 -418.15 L-1130.2 -419.95 Q-1139.0 -418.6 -1144.4 -420.7 L-1148.7 -419.5 -1151.75 -420.15 -1151.9 -420.45 -1151.75 -421.95 Q-1151.6 -422.6 -1144.0 -426.25 L-1138.35 -429.0 Q-1145.6 -430.65 -1150.45 -434.55 L-1151.6 -434.45 Q-1153.9 -431.85 -1159.8 -429.55 L-1162.75 -428.55 -1162.05 -428.55 -1155.4 -429.4 Q-1155.05 -430.25 -1154.2 -430.7 -1153.15 -431.4 -1151.8 -431.1 L-1150.2 -430.5 -1150.1 -430.45 -1149.25 -430.85 Q-1148.45 -430.2 -1148.4 -429.0 L-1148.7 -427.4 Q-1149.9 -422.1 -1160.55 -422.05 -1169.9 -421.9 -1172.6 -425.35 L-1175.1 -424.7 -1175.75 -424.35 Q-1178.6 -423.15 -1184.7 -421.7 -1188.9 -420.65 -1192.0 -421.2 -1196.75 -422.05 -1196.55 -426.75 L-1194.45 -428.35 Q-1196.25 -429.75 -1197.5 -431.6 -1198.2 -431.3 -1199.4 -430.95 -1201.55 -430.3 -1202.35 -430.5 L-1202.55 -431.8 -1200.15 -433.45 -1198.25 -434.4 Q-1197.15 -433.95 -1196.75 -433.25 L-1196.55 -433.25 -1194.4 -433.25 -1190.8 -432.5 -1191.25 -433.15 Q-1184.2 -432.9 -1178.6 -435.3 -1175.45 -436.6 -1171.2 -439.65 L-1172.7 -439.9 Q-1173.4 -440.05 -1174.7 -441.3 L-1175.15 -441.7 Q-1172.35 -442.15 -1171.3 -443.1 L-1167.15 -443.45 Q-1159.55 -444.5 -1157.6 -447.3 L-1158.1 -448.1 -1158.5 -448.5 -1168.25 -447.15 Q-1174.5 -446.15 -1177.45 -444.85 L-1177.5 -444.25 -1176.85 -443.9 Q-1178.6 -443.2 -1179.95 -441.7 L-1179.25 -441.55 -1179.85 -440.65 -1180.75 -440.85 Q-1181.55 -439.9 -1182.8 -439.3 -1185.4 -438.0 -1188.65 -438.55 -1191.85 -439.0 -1193.9 -440.75 L-1194.05 -440.95 Q-1200.3 -439.05 -1206.3 -437.7 -1212.7 -436.35 -1214.35 -436.6 L-1214.6 -437.4 -1214.85 -438.4 Q-1209.9 -441.8 -1203.8 -443.25 L-1202.95 -443.5 Q-1201.1 -442.45 -1198.2 -442.6 L-1195.45 -443.05 Q-1195.75 -444.05 -1195.5 -445.2 -1192.8 -447.2 -1189.65 -448.05 L-1189.45 -448.8 Q-1189.15 -450.2 -1189.25 -450.75 L-1189.85 -451.65 Q-1194.15 -448.85 -1200.0 -448.7 -1204.2 -448.65 -1204.7 -446.45 L-1204.8 -446.1 -1206.55 -446.45 -1206.3 -446.65 -1207.0 -446.5 -1207.5 -445.9 Q-1211.4 -441.65 -1217.1 -442.5 L-1218.6 -442.5 Q-1219.35 -440.5 -1226.85 -438.75 -1230.8 -437.8 -1234.75 -437.3 L-1235.7 -437.65 -1236.8 -438.1 -1237.0 -438.85 -1237.3 -439.75 Q-1239.15 -438.15 -1241.35 -437.35 -1243.95 -436.35 -1246.1 -436.6 L-1246.25 -435.75 Q-1247.05 -432.25 -1250.55 -432.15 -1254.3 -432.1 -1257.65 -436.15 -1256.65 -436.7 -1252.45 -437.35 L-1250.15 -437.7 -1253.3 -438.35 Q-1254.5 -439.7 -1254.45 -440.35 L-1252.5 -441.6 -1253.0 -442.6 Q-1252.3 -444.0 -1250.9 -443.95 L-1241.95 -444.4 Q-1239.45 -444.75 -1237.0 -446.05 L-1234.8 -447.05 -1233.6 -446.6 -1233.35 -446.3 -1233.3 -445.85 -1233.55 -444.35 Q-1233.9 -442.8 -1236.15 -440.75 L-1236.3 -440.55 Q-1233.15 -442.85 -1229.4 -443.7 L-1224.7 -444.8 Q-1225.7 -446.4 -1225.25 -448.5 L-1224.5 -450.4 -1229.05 -450.5 -1230.05 -450.8 -1230.9 -451.35 -1230.95 -452.4 -1231.2 -453.4 -1230.85 -453.65 Q-1232.75 -452.85 -1235.25 -452.05 -1244.2 -449.35 -1247.55 -450.1 -1249.25 -450.45 -1250.25 -452.55 -1257.45 -449.35 -1259.65 -451.25 L-1251.6 -456.55 -1253.1 -456.5 -1268.7 -459.95 Q-1270.75 -455.5 -1278.65 -454.3 -1285.1 -453.3 -1291.2 -454.35 L-1291.4 -455.1 Q-1289.65 -456.85 -1281.35 -461.35 L-1279.7 -462.3 -1290.15 -464.5 Q-1284.05 -467.3 -1277.45 -470.75 L-1277.15 -470.55 Q-1274.2 -468.25 -1269.0 -471.15 -1264.55 -473.65 -1264.3 -474.75 -1264.15 -475.45 -1264.5 -476.45 L-1265.0 -477.9 Q-1266.1 -477.75 -1267.75 -476.15 -1270.05 -474.95 -1275.6 -476.2 L-1277.65 -478.0 -1279.75 -479.9 -1281.0 -479.95 -1281.65 -479.75 Q-1282.2 -475.0 -1279.4 -472.2 L-1283.75 -471.55 -1291.45 -470.55 -1294.55 -471.15 -1301.65 -472.0 -1296.75 -475.5 -1293.8 -477.85 -1290.55 -480.45 Q-1286.9 -483.4 -1283.95 -485.35 -1285.15 -485.1 -1292.2 -481.15 L-1293.55 -480.4 Q-1298.5 -477.8 -1300.95 -478.35 L-1303.3 -478.8 -1302.7 -480.35 -1301.8 -482.1 Q-1301.25 -484.55 -1299.9 -487.5 L-1305.2 -485.5 Q-1310.75 -483.7 -1311.8 -484.4 -1301.4 -495.3 -1295.4 -500.65 -1291.9 -503.9 -1288.35 -506.4 L-1280.45 -516.8 -1274.3 -524.25 -1270.1 -523.3 Q-1259.85 -521.5 -1249.35 -521.7 L-1247.8 -521.9 Q-1246.65 -520.45 -1245.15 -520.25 -1244.15 -519.4 -1242.8 -520.0 -1242.15 -520.45 -1242.1 -521.15 L-1241.7 -521.6 -1235.1 -520.15 Q-1233.7 -518.15 -1231.25 -518.0 L-1230.3 -518.15 -1229.85 -519.0 -1201.2 -512.6 M-1094.95 -506.1 L-1116.45 -504.55 -1114.4 -505.3 Q-1113.8 -505.55 -1113.25 -505.95 L-1113.6 -506.7 Q-1114.55 -507.8 -1116.2 -507.85 L-1116.85 -507.85 -1117.0 -507.8 Q-1118.5 -507.1 -1119.95 -507.0 -1121.4 -506.85 -1122.4 -505.85 L-1122.65 -505.45 Q-1120.95 -504.4 -1119.05 -504.3 L-1121.35 -504.05 Q-1125.0 -503.65 -1128.25 -504.2 -1127.35 -505.3 -1125.75 -506.05 -1124.25 -505.85 -1124.75 -506.45 -1120.4 -508.1 -1115.8 -508.95 -1115.55 -508.75 -1114.95 -508.95 L-1114.35 -509.0 Q-1109.25 -508.15 -1107.15 -509.8 L-1106.15 -509.75 Q-1106.2 -509.4 -1106.55 -508.75 -1104.8 -508.55 -1103.2 -509.4 L-1102.45 -509.3 -1102.95 -508.45 Q-1100.15 -506.35 -1094.95 -506.1 M-1298.35 -453.75 L-1298.65 -453.75 Q-1299.65 -453.9 -1302.45 -456.05 -1301.55 -456.2 -1300.15 -457.05 -1298.85 -457.85 -1297.1 -458.15 L-1296.8 -458.2 -1296.55 -457.75 -1296.8 -456.25 Q-1297.3 -454.0 -1298.35 -453.75 M-1260.6 -506.2 L-1260.8 -506.4 -1261.1 -506.15 -1260.6 -506.2 M-1251.8 -466.35 Q-1251.5 -467.8 -1251.85 -468.1 -1252.05 -468.35 -1252.8 -468.5 -1256.55 -468.15 -1258.8 -466.9 -1260.8 -465.75 -1261.15 -464.1 L-1261.35 -462.55 -1261.05 -462.7 Q-1259.75 -462.2 -1255.9 -463.7 -1252.05 -465.2 -1251.8 -466.35 M-1244.25 -460.6 Q-1244.0 -461.85 -1244.1 -462.25 L-1244.75 -462.75 -1250.6 -462.35 Q-1254.35 -462.45 -1256.8 -460.45 L-1256.7 -459.2 Q-1252.95 -456.25 -1248.7 -457.15 -1244.85 -458.05 -1244.25 -460.6 M-1235.6 -469.55 L-1235.85 -470.05 -1238.1 -468.55 -1240.95 -466.75 -1240.75 -465.95 -1239.1 -465.55 -1243.4 -464.55 Q-1240.5 -458.85 -1234.0 -460.05 -1231.35 -460.5 -1229.35 -462.0 -1227.35 -463.45 -1227.0 -465.15 -1226.75 -466.35 -1226.85 -466.35 L-1227.0 -466.05 -1227.95 -466.9 -1235.15 -466.05 -1237.95 -465.75 Q-1236.25 -466.15 -1235.85 -467.95 -1235.55 -469.3 -1235.6 -469.55 M-1240.6 -447.8 Q-1240.85 -448.0 -1240.55 -449.35 -1240.25 -450.7 -1238.45 -451.1 -1234.25 -452.0 -1232.9 -452.55 L-1232.4 -452.7 Q-1231.9 -452.6 -1232.15 -451.25 -1232.5 -449.8 -1235.3 -448.65 -1237.95 -447.55 -1240.25 -447.85 L-1240.6 -447.8 M-1227.6 -455.35 Q-1223.7 -456.8 -1216.55 -457.95 L-1213.5 -459.1 -1213.5 -459.8 Q-1219.45 -458.0 -1225.7 -456.85 L-1227.6 -455.35 M-1266.1 -454.0 L-1265.45 -453.45 Q-1265.25 -453.1 -1265.5 -451.8 -1265.9 -450.1 -1268.8 -448.85 -1272.2 -447.4 -1275.35 -449.45 L-1275.55 -449.4 -1275.4 -450.8 Q-1275.0 -452.55 -1272.4 -452.95 L-1266.1 -454.0 M-1255.9 -447.9 L-1256.2 -445.85 -1257.55 -444.75 -1260.85 -444.95 -1260.85 -445.35 -1261.45 -446.25 -1259.9 -448.05 Q-1258.65 -449.25 -1257.6 -448.8 L-1255.9 -447.9 M-1225.65 -422.95 Q-1225.3 -424.45 -1222.45 -424.9 L-1216.0 -425.2 Q-1206.3 -425.6 -1204.3 -429.45 -1203.1 -428.05 -1203.65 -425.6 -1204.05 -423.95 -1204.7 -422.6 L-1201.1 -422.15 -1199.3 -421.45 -1197.25 -420.6 -1197.6 -418.2 Q-1199.15 -416.6 -1204.3 -417.1 -1207.4 -417.5 -1209.15 -418.4 L-1210.45 -417.95 Q-1216.25 -416.6 -1225.6 -421.55 L-1225.8 -421.5 -1225.65 -422.95 M-1221.35 -432.4 L-1221.2 -432.6 -1221.3 -431.4 Q-1222.0 -428.3 -1227.25 -427.55 -1232.65 -426.85 -1235.8 -430.05 -1233.75 -431.65 -1227.85 -432.5 L-1222.15 -433.0 Q-1221.4 -432.8 -1221.3 -432.6 L-1221.35 -432.4 M-1171.4 -457.95 L-1172.05 -458.65 -1176.15 -457.3 Q-1179.3 -456.3 -1180.7 -454.6 -1177.1 -451.0 -1174.15 -452.65 -1172.05 -453.95 -1171.55 -456.2 -1171.25 -457.45 -1171.4 -457.95 M-1159.2 -464.4 L-1159.1 -463.15 Q-1155.4 -462.9 -1152.1 -463.95 -1148.55 -465.05 -1148.1 -467.0 -1147.85 -468.25 -1148.1 -468.5 L-1148.8 -468.9 -1153.8 -467.45 Q-1158.5 -465.85 -1159.2 -464.4 M-1172.45 -453.2 L-1172.5 -452.95 -1172.45 -453.05 -1172.45 -453.2 M-1204.85 -462.75 Q-1204.6 -463.95 -1204.75 -463.95 L-1204.95 -463.75 Q-1206.15 -464.85 -1207.45 -465.1 -1207.95 -465.25 -1209.55 -464.4 L-1211.8 -462.7 -1211.7 -461.95 -1211.5 -461.55 Q-1209.5 -460.65 -1207.3 -461.1 -1205.15 -461.55 -1204.85 -462.75 M-1137.65 -445.65 L-1140.65 -445.85 -1139.75 -443.7 Q-1139.3 -442.45 -1138.5 -441.65 -1132.8 -440.1 -1130.45 -440.75 -1128.85 -441.25 -1128.4 -443.15 -1128.15 -444.4 -1128.55 -444.5 L-1128.95 -444.3 -1137.65 -445.65 M-1186.6 -431.65 L-1184.25 -432.25 Q-1176.35 -434.0 -1171.15 -432.85 L-1170.75 -432.65 Q-1166.15 -435.5 -1162.7 -437.0 L-1168.45 -437.15 -1177.35 -434.8 Q-1185.7 -432.55 -1189.65 -432.25 L-1186.6 -431.65 M-1178.15 -416.65 L-1174.85 -417.5 Q-1173.4 -417.2 -1174.15 -413.8 -1174.7 -411.4 -1179.9 -410.7 -1185.8 -409.9 -1189.6 -414.45 L-1187.9 -415.95 Q-1186.4 -416.9 -1184.55 -416.5 -1181.85 -415.9 -1178.15 -416.65 M-1140.15 -443.55 L-1143.65 -442.85 -1142.75 -442.2 -1142.6 -442.2 -1141.75 -441.6 -1141.7 -441.5 -1141.3 -441.2 Q-1140.2 -441.95 -1140.05 -442.45 -1139.75 -443.95 -1139.9 -443.85 L-1140.15 -443.55 M-1139.35 -422.25 L-1143.15 -421.05 Q-1136.35 -420.4 -1131.8 -422.65 -1131.6 -422.75 -1131.35 -422.9 L-1131.35 -424.65 Q-1128.05 -423.9 -1123.25 -426.25 -1122.05 -426.85 -1121.1 -427.5 L-1120.15 -427.85 -1120.45 -427.9 Q-1117.2 -430.05 -1116.65 -432.65 -1116.35 -434.0 -1116.6 -434.65 L-1117.2 -435.55 -1125.8 -432.1 Q-1130.55 -429.85 -1132.0 -428.15 L-1133.25 -428.2 -1133.25 -427.9 Q-1134.05 -424.35 -1139.35 -422.25 M-1138.0 -438.2 L-1138.65 -438.35 Q-1139.05 -438.15 -1144.0 -438.4 -1147.55 -438.55 -1150.25 -437.05 L-1150.3 -436.85 Q-1150.45 -436.1 -1151.0 -435.3 -1148.8 -432.7 -1144.05 -433.35 -1138.7 -434.0 -1138.05 -436.85 -1137.8 -438.1 -1138.0 -438.2 M-1159.35 -412.75 L-1159.65 -414.15 Q-1159.3 -415.85 -1158.1 -416.45 -1156.4 -417.3 -1152.45 -416.45 L-1149.95 -415.45 -1149.85 -415.15 Q-1149.7 -414.9 -1149.95 -413.7 -1150.25 -412.45 -1152.4 -410.95 -1155.35 -408.9 -1158.4 -411.05 L-1159.35 -412.75 M-1163.5 -407.4 L-1163.8 -405.7 Q-1164.45 -402.7 -1170.85 -402.1 -1177.15 -401.45 -1178.1 -403.95 L-1172.1 -407.2 Q-1167.4 -409.5 -1164.65 -408.9 -1163.95 -408.75 -1163.9 -408.4 L-1163.55 -407.55 -1163.5 -407.4 M-1150.2 -399.55 Q-1152.7 -399.6 -1154.15 -400.8 -1155.7 -402.15 -1155.2 -404.5 -1154.65 -407.0 -1152.35 -407.6 L-1145.6 -407.05 Q-1144.7 -406.85 -1143.0 -405.85 L-1143.0 -405.4 Q-1142.9 -405.1 -1143.15 -403.9 -1143.6 -401.9 -1145.8 -400.7 -1147.75 -399.5 -1150.2 -399.55 M-1082.2 -496.25 Q-1081.8 -496.25 -1081.6 -496.05 -1080.55 -495.15 -1081.8 -495.2 -1083.1 -495.3 -1082.2 -496.25 M-1097.05 -421.35 Q-1096.75 -421.05 -1097.1 -419.55 -1097.6 -417.2 -1101.15 -415.9 L-1106.95 -416.1 -1107.1 -416.8 Q-1107.2 -417.5 -1106.9 -418.75 -1106.55 -420.35 -1104.05 -420.95 L-1098.0 -421.85 Q-1097.25 -421.6 -1097.05 -421.35 M-1091.55 -433.45 L-1098.6 -430.75 -1098.65 -430.15 Q-1095.95 -428.35 -1092.75 -429.35 -1090.2 -430.15 -1089.4 -432.0 L-1089.2 -432.65 Q-1088.95 -433.8 -1089.05 -433.95 L-1089.35 -434.35 -1091.55 -433.45 M-1115.9 -438.2 L-1114.7 -438.6 -1114.75 -439.05 Q-1114.95 -439.5 -1115.75 -439.65 L-1115.8 -439.7 -1115.9 -438.2 M-1101.7 -407.35 Q-1103.7 -404.4 -1108.9 -402.9 -1114.35 -401.25 -1116.1 -403.9 -1104.5 -408.3 -1102.55 -409.25 -1101.7 -408.55 -1101.7 -407.35 M-974.15 -429.6 L-973.75 -429.6 -973.15 -429.2 -974.15 -429.6 M-983.4 -436.45 L-983.25 -434.6 -983.1 -433.95 -981.9 -432.25 -982.05 -432.3 -987.0 -436.55 Q-992.4 -441.3 -994.95 -443.15 -997.6 -445.1 -999.85 -446.0 L-994.95 -444.95 -983.4 -436.45 M-1117.2 -322.15 Q-1113.1 -322.15 -1111.25 -319.35 -1112.3 -317.25 -1112.8 -316.8 -1113.8 -315.85 -1116.15 -315.85 -1119.65 -315.85 -1121.9 -316.55 L-1122.25 -316.65 Q-1122.6 -316.75 -1122.6 -318.85 -1122.6 -321.05 -1122.4 -321.45 -1122.35 -321.65 -1122.25 -321.45 L-1120.85 -321.8 -1117.2 -322.15 M-1098.45 -318.3 Q-1094.45 -318.3 -1090.95 -316.55 L-1090.25 -314.65 -1091.1 -313.2 Q-1091.85 -312.55 -1094.1 -312.55 -1097.6 -312.55 -1098.1 -313.25 L-1098.6 -313.8 Q-1099.15 -314.15 -1099.15 -316.2 L-1099.05 -318.15 Q-1098.65 -317.95 -1098.45 -318.3 M-1076.4 -306.25 L-1076.4 -308.0 -1073.6 -308.3 Q-1071.7 -308.25 -1068.55 -307.3 L-1068.55 -306.25 -1069.15 -305.0 Q-1069.6 -304.5 -1071.85 -304.5 -1074.2 -304.5 -1075.15 -305.0 -1075.75 -305.25 -1076.4 -306.25 M-1047.85 -275.75 Q-1048.4 -277.75 -1048.4 -279.65 L-1041.45 -280.0 -1034.25 -279.3 -1033.9 -279.8 Q-1033.55 -279.9 -1033.55 -277.7 -1033.55 -275.5 -1033.7 -275.25 L-1033.9 -275.45 -1040.1 -274.7 -1047.35 -273.85 -1047.85 -275.75 M-1155.5 -320.4 Q-1152.45 -322.9 -1147.0 -323.15 -1141.3 -323.4 -1138.55 -320.75 L-1139.85 -318.15 Q-1141.1 -317.25 -1146.6 -317.25 L-1154.1 -317.6 Q-1154.1 -317.95 -1154.65 -318.85 L-1155.5 -320.4 M-693.95 -297.2 L-693.55 -296.1 -693.5 -296.05 -693.0 -294.7 -693.55 -294.4 Q-695.85 -293.45 -700.4 -293.4 L-703.75 -293.45 -705.8 -293.75 Q-707.2 -294.2 -707.45 -294.55 L-707.5 -294.65 -707.55 -294.65 -707.65 -294.5 -707.75 -294.75 -707.9 -296.2 Q-707.9 -298.4 -702.75 -298.75 -697.55 -299.15 -693.95 -297.2 M-736.6 -293.85 L-736.15 -294.1 Q-734.4 -294.85 -728.4 -295.2 -721.2 -295.7 -719.15 -294.65 -720.1 -294.1 -722.2 -293.55 L-721.9 -293.55 Q-710.9 -293.6 -707.65 -290.5 -710.7 -289.65 -732.1 -290.75 -733.4 -291.2 -733.65 -291.55 L-733.85 -291.55 Q-735.3 -292.0 -735.8 -292.6 L-736.15 -293.0 -736.6 -293.85 M-790.75 -220.35 L-802.65 -216.25 Q-811.4 -213.4 -814.1 -214.25 -816.0 -214.85 -816.3 -215.3 L-816.2 -215.6 -816.6 -215.5 Q-817.1 -215.8 -817.1 -218.0 -817.1 -220.65 -805.65 -221.7 -794.9 -222.75 -791.0 -221.5 L-790.75 -220.35 M-685.95 -293.85 Q-687.75 -292.7 -688.45 -292.7 -689.05 -293.15 -689.85 -293.2 -690.2 -293.45 -690.2 -295.1 -690.2 -296.95 -687.85 -296.9 -685.85 -296.8 -683.55 -295.6 L-685.95 -293.85 M-669.0 -282.55 L-678.7 -281.95 -690.3 -282.05 -691.5 -282.8 Q-692.75 -283.65 -693.0 -284.25 L-683.6 -285.2 -677.35 -285.2 -670.4 -284.3 Q-670.4 -283.75 -669.1 -282.6 L-669.0 -282.55 M-858.4 -347.95 L-858.8 -347.9 -858.9 -349.35 Q-858.9 -352.05 -852.25 -351.0 -845.75 -350.05 -841.0 -346.95 -842.2 -346.3 -844.3 -346.15 -848.75 -347.65 -853.1 -348.1 L-858.35 -347.95 -858.4 -348.0 -858.4 -347.95 M-950.05 -341.2 L-947.9 -339.8 Q-949.15 -340.35 -949.75 -340.75 L-950.05 -340.95 Q-950.6 -341.15 -950.9 -341.45 L-950.05 -341.2 M-942.5 -249.95 Q-942.05 -249.5 -942.05 -247.4 -942.05 -244.85 -945.05 -244.65 L-948.55 -245.05 -950.05 -245.5 -953.4 -245.85 -953.55 -246.35 -954.45 -247.6 Q-952.9 -249.5 -950.05 -250.8 L-948.1 -251.1 Q-944.75 -251.4 -942.95 -250.45 L-942.5 -249.95 M-908.9 -237.7 Q-910.55 -236.8 -911.15 -237.0 -913.0 -237.55 -913.4 -238.05 -913.65 -238.25 -913.5 -238.45 -913.9 -239.05 -914.45 -239.35 L-914.7 -241.95 Q-914.7 -244.35 -911.2 -244.55 -907.9 -244.75 -906.4 -243.2 L-905.05 -241.05 Q-906.75 -238.8 -908.9 -237.7 M-865.25 -221.55 Q-863.3 -222.7 -860.9 -222.9 -858.0 -223.1 -856.2 -221.5 L-855.6 -220.25 Q-856.15 -219.45 -857.65 -219.0 L-861.5 -219.1 Q-863.55 -219.75 -864.25 -220.3 L-865.25 -221.55 M-838.9 -214.5 L-840.2 -216.15 Q-840.1 -218.6 -837.8 -219.5 L-834.55 -220.3 Q-832.4 -218.65 -831.9 -216.7 L-834.75 -215.1 Q-836.35 -214.25 -838.1 -213.75 L-838.9 -214.5 M-694.2 -178.2 L-693.55 -178.2 -690.5 -177.9 -689.05 -175.35 Q-689.7 -173.1 -690.65 -172.4 -691.7 -171.65 -693.55 -171.95 L-694.95 -172.3 Q-697.9 -173.25 -698.5 -174.15 L-699.2 -176.95 Q-697.5 -178.1 -694.2 -178.2 M-707.8 -186.15 L-709.45 -185.95 -714.8 -187.65 Q-715.1 -187.75 -715.1 -189.85 -715.1 -192.05 -714.9 -192.25 L-714.8 -192.0 Q-713.0 -191.8 -708.0 -189.85 L-707.5 -188.15 -707.8 -186.15 M-739.35 -187.3 Q-741.3 -187.9 -741.85 -188.6 L-742.65 -190.05 Q-741.55 -190.8 -735.9 -191.7 -729.7 -192.65 -727.95 -191.75 -728.65 -190.75 -733.3 -188.8 -738.1 -186.9 -739.35 -187.3 M-754.75 -190.05 Q-754.75 -188.6 -757.3 -187.75 -760.15 -186.7 -763.05 -188.25 -763.65 -188.85 -764.3 -189.1 -764.65 -189.55 -764.65 -191.75 -764.65 -194.25 -761.9 -194.5 -759.4 -194.85 -755.95 -193.2 L-755.35 -192.65 Q-754.75 -192.15 -754.75 -190.05 M-1311.6 -473.5 Q-1312.25 -471.7 -1313.4 -470.9 L-1316.4 -470.85 -1316.65 -470.65 -1316.5 -472.2 Q-1315.75 -475.5 -1312.45 -474.75 -1311.65 -474.6 -1311.6 -474.3 L-1311.6 -473.5 M-1308.55 -460.4 L-1307.45 -458.65 -1307.3 -459.0 -1307.55 -457.7 Q-1308.05 -455.5 -1310.75 -456.3 -1312.3 -456.7 -1314.65 -457.8 L-1314.8 -458.1 -1314.65 -459.55 Q-1314.4 -460.65 -1312.9 -461.15 L-1310.05 -461.4 Q-1309.25 -461.2 -1308.55 -460.4" fill="#aec53f" fill-rule="evenodd" stroke="none"/>
      <path d="M-1081.05 -426.3 L-1048.6 -404.4 Q-1031.85 -388.15 -985.45 -372.75 -972.4 -368.4 -950.05 -362.2 L-904.15 -333.6 Q-855.25 -303.7 -836.6 -289.55 L-835.25 -289.5 -835.45 -288.65 -824.6 -279.8 -803.3 -277.9 -778.75 -275.75 Q-777.75 -275.45 -777.25 -273.9 -776.8 -272.35 -773.95 -271.45 L-736.15 -267.85 -733.35 -267.55 -729.15 -265.9 Q-730.0 -263.95 -729.6 -262.25 -728.7 -258.85 -722.2 -256.8 -719.0 -255.8 -693.55 -253.8 L-680.75 -252.85 -672.65 -252.2 Q-678.65 -250.35 -678.65 -247.15 -678.75 -246.1 -678.35 -245.05 -677.65 -243.0 -675.45 -242.3 -675.0 -242.15 -673.1 -243.25 L-668.3 -243.45 -666.75 -241.35 Q-665.2 -239.3 -661.8 -238.2 L-660.0 -237.7 -660.0 89.3 -863.95 25.3 Q-868.1 24.85 -874.85 22.15 L-913.85 9.9 -915.55 10.0 Q-916.9 9.55 -917.9 8.65 L-950.05 -1.45 -1293.55 -1.45 Q-1298.15 -1.85 -1299.7 -4.2 -1300.5 -5.45 -1300.5 -7.85 L-1300.35 -9.2 Q-1301.3 -14.7 -1301.6 -25.7 L-1301.95 -61.8 -1301.95 -340.85 Q-1302.35 -346.75 -1301.95 -353.7 L-1301.95 -391.3 -1302.05 -390.8 Q-1302.2 -390.6 -1302.2 -391.95 L-1302.1 -443.65 Q-1300.0 -448.45 -1298.35 -453.75 -1297.3 -454.0 -1296.8 -456.25 L-1296.55 -457.75 -1296.8 -458.2 -1297.1 -458.15 Q-1295.55 -464.3 -1294.55 -471.15 L-1291.45 -470.55 -1283.75 -471.55 -1279.4 -472.2 Q-1282.2 -475.0 -1281.65 -479.75 L-1281.0 -479.95 -1279.75 -479.9 -1277.65 -478.0 -1275.6 -476.2 Q-1270.05 -474.95 -1267.75 -476.15 -1266.1 -477.75 -1265.0 -477.9 L-1264.5 -476.45 Q-1264.15 -475.45 -1264.3 -474.75 -1264.55 -473.65 -1269.0 -471.15 -1274.2 -468.25 -1277.15 -470.55 L-1277.45 -470.75 Q-1284.05 -467.3 -1290.15 -464.5 L-1279.7 -462.3 -1281.35 -461.35 Q-1289.65 -456.85 -1291.4 -455.1 L-1291.2 -454.35 Q-1285.1 -453.3 -1278.65 -454.3 -1270.75 -455.5 -1268.7 -459.95 L-1253.1 -456.5 -1251.6 -456.55 -1259.65 -451.25 Q-1257.45 -449.35 -1250.25 -452.55 -1249.25 -450.45 -1247.55 -450.1 -1244.2 -449.35 -1235.25 -452.05 -1232.75 -452.85 -1230.85 -453.65 L-1231.2 -453.4 -1230.95 -452.4 -1230.9 -451.35 -1230.05 -450.8 -1229.05 -450.5 -1224.5 -450.4 -1225.25 -448.5 Q-1225.7 -446.4 -1224.7 -444.8 L-1229.4 -443.7 Q-1233.15 -442.85 -1236.3 -440.55 L-1236.15 -440.75 Q-1233.9 -442.8 -1233.55 -444.35 L-1233.3 -445.85 -1233.35 -446.3 -1233.6 -446.6 -1234.8 -447.05 -1237.0 -446.05 Q-1239.45 -444.75 -1241.95 -444.4 L-1250.9 -443.95 Q-1252.3 -444.0 -1253.0 -442.6 L-1252.5 -441.6 -1254.45 -440.35 Q-1254.5 -439.7 -1253.3 -438.35 L-1250.15 -437.7 -1252.45 -437.35 Q-1256.65 -436.7 -1257.65 -436.15 -1254.3 -432.1 -1250.55 -432.15 -1247.05 -432.25 -1246.25 -435.75 L-1246.1 -436.6 Q-1243.95 -436.35 -1241.35 -437.35 -1239.15 -438.15 -1237.3 -439.75 L-1237.0 -438.85 -1236.8 -438.1 -1235.7 -437.65 -1234.75 -437.3 Q-1230.8 -437.8 -1226.85 -438.75 -1219.35 -440.5 -1218.6 -442.5 L-1217.1 -442.5 Q-1211.4 -441.65 -1207.5 -445.9 L-1207.0 -446.5 -1206.3 -446.65 -1206.55 -446.45 -1204.8 -446.1 -1204.7 -446.45 Q-1204.2 -448.65 -1200.0 -448.7 -1194.15 -448.85 -1189.85 -451.65 L-1189.25 -450.75 Q-1189.15 -450.2 -1189.45 -448.8 L-1189.65 -448.05 Q-1192.8 -447.2 -1195.5 -445.2 -1195.75 -444.05 -1195.45 -443.05 L-1198.2 -442.6 Q-1201.1 -442.45 -1202.95 -443.5 L-1203.8 -443.25 Q-1209.9 -441.8 -1214.85 -438.4 L-1214.6 -437.4 -1214.35 -436.6 Q-1212.7 -436.35 -1206.3 -437.7 -1200.3 -439.05 -1194.05 -440.95 L-1193.9 -440.75 Q-1191.85 -439.0 -1188.65 -438.55 -1185.4 -438.0 -1182.8 -439.3 -1181.55 -439.9 -1180.75 -440.85 L-1179.85 -440.65 -1179.25 -441.55 -1179.95 -441.7 Q-1178.6 -443.2 -1176.85 -443.9 L-1177.5 -444.25 -1177.45 -444.85 Q-1174.5 -446.15 -1168.25 -447.15 L-1158.5 -448.5 -1158.1 -448.1 -1157.6 -447.3 Q-1159.55 -444.5 -1167.15 -443.45 L-1171.3 -443.1 Q-1172.35 -442.15 -1175.15 -441.7 L-1174.7 -441.3 Q-1173.4 -440.05 -1172.7 -439.9 L-1171.2 -439.65 Q-1175.45 -436.6 -1178.6 -435.3 -1184.2 -432.9 -1191.25 -433.15 L-1190.8 -432.5 -1194.4 -433.25 -1196.55 -433.25 -1196.75 -433.25 Q-1197.15 -433.95 -1198.25 -434.4 L-1200.15 -433.45 -1202.55 -431.8 -1202.35 -430.5 Q-1201.55 -430.3 -1199.4 -430.95 -1198.2 -431.3 -1197.5 -431.6 -1196.25 -429.75 -1194.45 -428.35 L-1196.55 -426.75 Q-1196.75 -422.05 -1192.0 -421.2 -1188.9 -420.65 -1184.7 -421.7 -1178.6 -423.15 -1175.75 -424.35 L-1175.1 -424.7 -1172.6 -425.35 Q-1169.9 -421.9 -1160.55 -422.05 -1149.9 -422.1 -1148.7 -427.4 L-1148.4 -429.0 Q-1148.45 -430.2 -1149.25 -430.85 L-1150.1 -430.45 -1150.2 -430.5 -1151.8 -431.1 Q-1153.15 -431.4 -1154.2 -430.7 -1155.05 -430.25 -1155.4 -429.4 L-1162.05 -428.55 -1162.75 -428.55 -1159.8 -429.55 Q-1153.9 -431.85 -1151.6 -434.45 L-1150.45 -434.55 Q-1145.6 -430.65 -1138.35 -429.0 L-1144.0 -426.25 Q-1151.6 -422.6 -1151.75 -421.95 L-1151.9 -420.45 -1151.75 -420.15 -1148.7 -419.5 -1144.4 -420.7 Q-1139.0 -418.6 -1130.2 -419.95 L-1128.7 -418.15 Q-1126.7 -416.4 -1123.85 -415.7 L-1130.2 -415.0 Q-1133.35 -414.65 -1139.85 -414.85 -1142.1 -414.9 -1142.5 -413.05 -1143.3 -409.5 -1139.85 -407.35 -1136.75 -405.5 -1131.6 -405.4 -1126.5 -405.35 -1122.55 -407.1 -1118.2 -408.95 -1117.5 -412.25 -1117.05 -414.35 -1117.85 -415.15 -1113.8 -415.45 -1110.45 -417.6 -1106.25 -420.25 -1104.65 -424.95 L-1098.2 -424.0 Q-1098.1 -422.55 -1096.85 -422.25 -1091.7 -421.1 -1082.3 -425.7 L-1081.05 -426.3 M-1293.8 -477.85 L-1293.55 -480.4 -1292.2 -481.15 Q-1285.15 -485.1 -1283.95 -485.35 -1286.9 -483.4 -1290.55 -480.45 L-1293.8 -477.85 M-1260.6 -506.2 L-1261.1 -506.15 -1260.8 -506.4 -1260.6 -506.2 M-1235.6 -469.55 Q-1235.55 -469.3 -1235.85 -467.95 -1236.25 -466.15 -1237.95 -465.75 L-1235.15 -466.05 -1227.95 -466.9 -1227.0 -466.05 -1226.85 -466.35 Q-1226.75 -466.35 -1227.0 -465.15 -1227.35 -463.45 -1229.35 -462.0 -1231.35 -460.5 -1234.0 -460.05 -1240.5 -458.85 -1243.4 -464.55 L-1239.1 -465.55 -1240.75 -465.95 -1240.95 -466.75 -1238.1 -468.55 -1235.85 -470.05 -1235.6 -469.55 M-1244.25 -460.6 Q-1244.85 -458.05 -1248.7 -457.15 -1252.95 -456.25 -1256.7 -459.2 L-1256.8 -460.45 Q-1254.35 -462.45 -1250.6 -462.35 L-1244.75 -462.75 -1244.1 -462.25 Q-1244.0 -461.85 -1244.25 -460.6 M-1251.8 -466.35 Q-1252.05 -465.2 -1255.9 -463.7 -1259.75 -462.2 -1261.05 -462.7 L-1261.35 -462.55 -1261.15 -464.1 Q-1260.8 -465.75 -1258.8 -466.9 -1256.55 -468.15 -1252.8 -468.5 -1252.05 -468.35 -1251.85 -468.1 -1251.5 -467.8 -1251.8 -466.35 M-1227.6 -455.35 L-1225.7 -456.85 Q-1219.45 -458.0 -1213.5 -459.8 L-1213.5 -459.1 -1216.55 -457.95 Q-1223.7 -456.8 -1227.6 -455.35 M-1240.6 -447.8 L-1240.25 -447.85 Q-1237.95 -447.55 -1235.3 -448.65 -1232.5 -449.8 -1232.15 -451.25 -1231.9 -452.6 -1232.4 -452.7 L-1232.9 -452.55 Q-1234.25 -452.0 -1238.45 -451.1 -1240.25 -450.7 -1240.55 -449.35 -1240.85 -448.0 -1240.6 -447.8 M-1221.35 -432.4 L-1221.3 -432.6 Q-1221.4 -432.8 -1222.15 -433.0 L-1227.85 -432.5 Q-1233.75 -431.65 -1235.8 -430.05 -1232.65 -426.85 -1227.25 -427.55 -1222.0 -428.3 -1221.3 -431.4 L-1221.2 -432.6 -1221.35 -432.4 M-1225.65 -422.95 L-1225.8 -421.5 -1225.6 -421.55 Q-1216.25 -416.6 -1210.45 -417.95 L-1209.15 -418.4 Q-1207.4 -417.5 -1204.3 -417.1 -1199.15 -416.6 -1197.6 -418.2 L-1197.25 -420.6 -1199.3 -421.45 -1201.1 -422.15 -1204.7 -422.6 Q-1204.05 -423.95 -1203.65 -425.6 -1203.1 -428.05 -1204.3 -429.45 -1206.3 -425.6 -1216.0 -425.2 L-1222.45 -424.9 Q-1225.3 -424.45 -1225.65 -422.95 M-1255.9 -447.9 L-1257.6 -448.8 Q-1258.65 -449.25 -1259.9 -448.05 L-1261.45 -446.25 -1260.85 -445.35 -1260.85 -444.95 -1257.55 -444.75 -1256.2 -445.85 -1255.9 -447.9 M-1266.1 -454.0 L-1272.4 -452.95 Q-1275.0 -452.55 -1275.4 -450.8 L-1275.55 -449.4 -1275.35 -449.45 Q-1272.2 -447.4 -1268.8 -448.85 -1265.9 -450.1 -1265.5 -451.8 -1265.25 -453.1 -1265.45 -453.45 L-1266.1 -454.0 M-1159.2 -464.4 Q-1158.5 -465.85 -1153.8 -467.45 L-1148.8 -468.9 -1148.1 -468.5 Q-1147.85 -468.25 -1148.1 -467.0 -1148.55 -465.05 -1152.1 -463.95 -1155.4 -462.9 -1159.1 -463.15 L-1159.2 -464.4 M-1171.4 -457.95 Q-1171.25 -457.45 -1171.55 -456.2 -1172.05 -453.95 -1174.15 -452.65 -1177.1 -451.0 -1180.7 -454.6 -1179.3 -456.3 -1176.15 -457.3 L-1172.05 -458.65 -1171.4 -457.95 M-1172.45 -453.2 L-1172.45 -453.05 -1172.5 -452.95 -1172.45 -453.2 M-1137.65 -445.65 L-1128.95 -444.3 -1128.55 -444.5 Q-1128.15 -444.4 -1128.4 -443.15 -1128.85 -441.25 -1130.45 -440.75 -1132.8 -440.1 -1138.5 -441.65 -1139.3 -442.45 -1139.75 -443.7 L-1140.65 -445.85 -1137.65 -445.65 M-1204.85 -462.75 Q-1205.15 -461.55 -1207.3 -461.1 -1209.5 -460.65 -1211.5 -461.55 L-1211.7 -461.95 -1211.8 -462.7 -1209.55 -464.4 Q-1207.95 -465.25 -1207.45 -465.1 -1206.15 -464.85 -1204.95 -463.75 L-1204.75 -463.95 Q-1204.6 -463.95 -1204.85 -462.75 M-1140.15 -443.55 L-1139.9 -443.85 Q-1139.75 -443.95 -1140.05 -442.45 -1140.2 -441.95 -1141.3 -441.2 L-1141.7 -441.5 -1141.75 -441.6 -1142.6 -442.2 -1142.75 -442.2 -1143.65 -442.85 -1140.15 -443.55 M-1178.15 -416.65 Q-1181.85 -415.9 -1184.55 -416.5 -1186.4 -416.9 -1187.9 -415.95 L-1189.6 -414.45 Q-1185.8 -409.9 -1179.9 -410.7 -1174.7 -411.4 -1174.15 -413.8 -1173.4 -417.2 -1174.85 -417.5 L-1178.15 -416.65 M-1186.6 -431.65 L-1189.65 -432.25 Q-1185.7 -432.55 -1177.35 -434.8 L-1168.45 -437.15 -1162.7 -437.0 Q-1166.15 -435.5 -1170.75 -432.65 L-1171.15 -432.85 Q-1176.35 -434.0 -1184.25 -432.25 L-1186.6 -431.65 M-1138.0 -438.2 Q-1137.8 -438.1 -1138.05 -436.85 -1138.7 -434.0 -1144.05 -433.35 -1148.8 -432.7 -1151.0 -435.3 -1150.45 -436.1 -1150.3 -436.85 L-1150.25 -437.05 Q-1147.55 -438.55 -1144.0 -438.4 -1139.05 -438.15 -1138.65 -438.35 L-1138.0 -438.2 M-1139.35 -422.25 Q-1134.05 -424.35 -1133.25 -427.9 L-1133.25 -428.2 -1132.0 -428.15 Q-1130.55 -429.85 -1125.8 -432.1 L-1117.2 -435.55 -1116.6 -434.65 Q-1116.35 -434.0 -1116.65 -432.65 -1117.2 -430.05 -1120.45 -427.9 L-1120.15 -427.85 -1121.1 -427.5 Q-1122.05 -426.85 -1123.25 -426.25 -1128.05 -423.9 -1131.35 -424.65 L-1131.35 -422.9 Q-1131.6 -422.75 -1131.8 -422.65 -1136.35 -420.4 -1143.15 -421.05 L-1139.35 -422.25 M-1150.2 -399.55 Q-1147.75 -399.5 -1145.8 -400.7 -1143.6 -401.9 -1143.15 -403.9 -1142.9 -405.1 -1143.0 -405.4 L-1143.0 -405.85 Q-1144.7 -406.85 -1145.6 -407.05 L-1152.35 -407.6 Q-1154.65 -407.0 -1155.2 -404.5 -1155.7 -402.15 -1154.15 -400.8 -1152.7 -399.6 -1150.2 -399.55 M-1163.5 -407.4 L-1163.55 -407.55 -1163.9 -408.4 Q-1163.95 -408.75 -1164.65 -408.9 -1167.4 -409.5 -1172.1 -407.2 L-1178.1 -403.95 Q-1177.15 -401.45 -1170.85 -402.1 -1164.45 -402.7 -1163.8 -405.7 L-1163.5 -407.4 M-1159.35 -412.75 L-1158.4 -411.05 Q-1155.35 -408.9 -1152.4 -410.95 -1150.25 -412.45 -1149.95 -413.7 -1149.7 -414.9 -1149.85 -415.15 L-1149.95 -415.45 -1152.45 -416.45 Q-1156.4 -417.3 -1158.1 -416.45 -1159.3 -415.85 -1159.65 -414.15 L-1159.35 -412.75 M-1097.05 -421.35 Q-1097.25 -421.6 -1098.0 -421.85 L-1104.05 -420.95 Q-1106.55 -420.35 -1106.9 -418.75 -1107.2 -417.5 -1107.1 -416.8 L-1106.95 -416.1 -1101.15 -415.9 Q-1097.6 -417.2 -1097.1 -419.55 -1096.75 -421.05 -1097.05 -421.35 M-1089.4 -432.0 Q-1090.2 -430.15 -1092.75 -429.35 -1095.95 -428.35 -1098.65 -430.15 L-1098.6 -430.75 -1091.55 -433.45 -1089.4 -432.0 M-1101.7 -407.35 Q-1101.7 -408.55 -1102.55 -409.25 -1104.5 -408.3 -1116.1 -403.9 -1114.35 -401.25 -1108.9 -402.9 -1103.7 -404.4 -1101.7 -407.35 M-1115.9 -438.2 L-1115.8 -439.7 -1115.75 -439.65 Q-1114.95 -439.5 -1114.75 -439.05 L-1114.7 -438.6 -1115.9 -438.2 M-1155.5 -320.4 L-1154.65 -318.85 Q-1154.1 -317.95 -1154.1 -317.6 L-1146.6 -317.25 Q-1141.1 -317.25 -1139.85 -318.15 L-1138.55 -320.75 Q-1141.3 -323.4 -1147.0 -323.15 -1152.45 -322.9 -1155.5 -320.4 M-1047.85 -275.75 L-1047.35 -273.85 -1040.1 -274.7 -1033.9 -275.45 -1033.7 -275.25 Q-1033.55 -275.5 -1033.55 -277.7 -1033.55 -279.9 -1033.9 -279.8 L-1034.25 -279.3 -1041.45 -280.0 -1048.4 -279.65 Q-1048.4 -277.75 -1047.85 -275.75 M-1076.4 -306.25 Q-1075.75 -305.25 -1075.15 -305.0 -1074.2 -304.5 -1071.85 -304.5 -1069.6 -304.5 -1069.15 -305.0 L-1068.55 -306.25 -1068.55 -307.3 Q-1071.7 -308.25 -1073.6 -308.3 L-1076.4 -308.0 -1076.4 -306.25 M-1098.45 -318.3 Q-1098.65 -317.95 -1099.05 -318.15 L-1099.15 -316.2 Q-1099.15 -314.15 -1098.6 -313.8 L-1098.1 -313.25 Q-1097.6 -312.55 -1094.1 -312.55 -1091.85 -312.55 -1091.1 -313.2 L-1090.25 -314.65 -1090.95 -316.55 Q-1094.45 -318.3 -1098.45 -318.3 M-1117.2 -322.15 L-1120.85 -321.8 -1122.25 -321.45 Q-1122.35 -321.65 -1122.4 -321.45 -1122.6 -321.05 -1122.6 -318.85 -1122.6 -316.75 -1122.25 -316.65 L-1121.9 -316.55 Q-1119.65 -315.85 -1116.15 -315.85 -1113.8 -315.85 -1112.8 -316.8 -1112.3 -317.25 -1111.25 -319.35 -1113.1 -322.15 -1117.2 -322.15 M-790.75 -220.35 L-791.0 -221.5 Q-794.9 -222.75 -805.65 -221.7 -817.1 -220.65 -817.1 -218.0 -817.1 -215.8 -816.6 -215.5 L-816.2 -215.6 -816.3 -215.3 Q-816.0 -214.85 -814.1 -214.25 -811.4 -213.4 -802.65 -216.25 L-790.75 -220.35 M-754.75 -190.05 Q-754.75 -192.15 -755.35 -192.65 L-755.95 -193.2 Q-759.4 -194.85 -761.9 -194.5 -764.65 -194.25 -764.65 -191.75 -764.65 -189.55 -764.3 -189.1 -763.65 -188.85 -763.05 -188.25 -760.15 -186.7 -757.3 -187.75 -754.75 -188.6 -754.75 -190.05 M-739.35 -187.3 Q-738.1 -186.9 -733.3 -188.8 -728.65 -190.75 -727.95 -191.75 -729.7 -192.65 -735.9 -191.7 -741.55 -190.8 -742.65 -190.05 L-741.85 -188.6 Q-741.3 -187.9 -739.35 -187.3 M-707.8 -186.15 L-707.5 -188.15 -708.0 -189.85 Q-713.0 -191.8 -714.8 -192.0 L-714.9 -192.25 Q-715.1 -192.05 -715.1 -189.85 -715.1 -187.75 -714.8 -187.65 L-709.45 -185.95 -707.8 -186.15 M-694.2 -178.2 Q-697.5 -178.1 -699.2 -176.95 L-698.5 -174.15 Q-697.9 -173.25 -694.95 -172.3 L-693.55 -171.95 Q-691.7 -171.65 -690.65 -172.4 -689.7 -173.1 -689.05 -175.35 L-690.5 -177.9 -693.55 -178.2 -694.2 -178.2 M-838.9 -214.5 L-838.1 -213.75 Q-836.35 -214.25 -834.75 -215.1 L-831.9 -216.7 Q-832.4 -218.65 -834.55 -220.3 L-837.8 -219.5 Q-840.1 -218.6 -840.2 -216.15 L-838.9 -214.5 M-865.25 -221.55 L-864.25 -220.3 Q-863.55 -219.75 -861.5 -219.1 L-857.65 -219.0 Q-856.15 -219.45 -855.6 -220.25 L-856.2 -221.5 Q-858.0 -223.1 -860.9 -222.9 -863.3 -222.7 -865.25 -221.55 M-908.9 -237.7 Q-906.75 -238.8 -905.05 -241.05 L-906.4 -243.2 Q-907.9 -244.75 -911.2 -244.55 -914.7 -244.35 -914.7 -241.95 L-914.45 -239.35 Q-913.9 -239.05 -913.5 -238.45 -913.65 -238.25 -913.4 -238.05 -913.0 -237.55 -911.15 -237.0 -910.55 -236.8 -908.9 -237.7 M-942.5 -249.95 L-942.95 -250.45 Q-944.75 -251.4 -948.1 -251.1 L-950.05 -250.8 Q-952.9 -249.5 -954.45 -247.6 L-953.55 -246.35 -953.4 -245.85 -950.05 -245.5 -948.55 -245.05 -945.05 -244.65 Q-942.05 -244.85 -942.05 -247.4 -942.05 -249.5 -942.5 -249.95 M-950.05 -341.2 L-950.9 -341.45 Q-950.6 -341.15 -950.05 -340.95 L-949.75 -340.75 Q-949.15 -340.35 -947.9 -339.8 L-950.05 -341.2" fill="#91b52c" fill-rule="evenodd" stroke="none"/>
      <path d="M-689.75 -323.5 L-685.15 -323.0 -660.0 -320.25 -660.0 -318.1 Q-679.6 -321.45 -689.75 -323.5" fill="#a1c240" fill-rule="evenodd" stroke="none"/>
    </g>
    <g id="sprite0" transform="matrix(1.0, 0.0, 0.0, 1.0, -62.75, 52.5)">
      <use ffdec:characterId="2052" height="82.5" transform="matrix(1.0, 0.0, 0.0, 1.0, 62.75, -52.5)" width="363.15" xlink:href="#shape1"/>
    </g>
    <g id="shape1" transform="matrix(1.0, 0.0, 0.0, 1.0, -62.75, 52.5)">
      <path d="M102.3 -10.8 Q103.65 -13.05 113.15 -17.7 123.9 -22.95 130.75 -22.95 132.45 -22.95 133.0 -21.8 L141.55 -22.2 Q142.2 -26.2 146.8 -29.0 150.5 -31.25 155.6 -32.2 154.35 -32.7 154.35 -34.45 154.35 -37.15 159.4 -39.4 163.95 -41.45 170.45 -42.3 177.05 -43.1 181.5 -42.2 186.55 -41.1 186.55 -38.15 186.55 -36.65 183.65 -36.3 L171.4 -34.5 163.45 -32.85 Q167.3 -32.8 170.35 -31.75 L172.8 -30.6 Q183.65 -33.2 191.15 -32.5 L196.3 -34.2 200.4 -34.2 200.65 -34.0 200.9 -32.8 Q200.9 -32.25 192.2 -28.05 L185.75 -24.9 Q195.55 -24.85 202.8 -22.65 L204.25 -22.9 Q206.45 -25.35 213.4 -28.2 L216.85 -29.5 215.95 -29.35 207.65 -27.55 Q207.45 -26.8 206.55 -26.3 205.4 -25.6 203.6 -25.6 L201.4 -25.75 201.25 -25.8 200.25 -25.35 Q199.0 -25.7 198.65 -26.65 L198.55 -27.95 Q198.55 -32.35 212.15 -34.25 224.1 -35.95 228.55 -33.75 L231.55 -34.7 232.3 -35.05 Q235.6 -36.5 243.0 -38.75 248.1 -40.3 252.2 -40.4 258.5 -40.55 259.55 -36.85 258.65 -36.0 257.35 -35.2 260.05 -34.4 262.2 -33.15 L264.35 -34.0 268.05 -34.9 268.65 -33.9 Q267.9 -33.15 266.05 -32.15 L263.9 -31.1 Q262.4 -31.25 261.7 -31.75 L261.4 -31.7 258.7 -31.35 253.85 -31.3 254.6 -30.85 Q245.5 -29.8 239.0 -26.95 235.4 -25.4 230.8 -22.25 L232.8 -22.3 235.75 -21.55 236.45 -21.3 Q233.0 -20.5 231.9 -19.55 L226.7 -18.55 Q217.3 -16.4 215.6 -13.85 L216.45 -13.3 217.1 -13.05 229.15 -15.8 Q236.85 -17.7 240.3 -19.25 L240.15 -19.7 239.2 -19.85 Q241.3 -20.75 242.55 -22.15 L241.65 -22.15 242.2 -22.95 243.35 -22.95 Q244.15 -23.85 245.55 -24.55 248.45 -26.0 252.85 -26.15 257.05 -26.35 260.15 -25.3 L260.45 -25.2 Q267.9 -27.8 275.2 -29.9 283.0 -32.1 285.15 -32.15 L285.65 -31.6 286.25 -30.85 Q280.9 -27.3 273.5 -25.1 L272.5 -24.75 266.2 -24.6 262.75 -23.8 Q263.45 -23.05 263.45 -22.1 260.55 -20.05 256.8 -18.85 L256.75 -18.2 Q256.75 -17.05 257.1 -16.65 L258.1 -16.05 Q262.8 -19.0 270.25 -20.15 275.6 -20.95 275.6 -22.75 L275.6 -23.05 277.95 -23.05 277.7 -22.85 278.55 -23.1 279.0 -23.65 Q282.85 -27.65 290.35 -28.0 L292.25 -28.3 Q292.65 -30.0 301.75 -32.65 306.55 -34.1 311.45 -35.2 L312.75 -35.05 314.3 -34.9 314.75 -34.35 315.35 -33.7 Q317.35 -35.25 319.9 -36.3 322.9 -37.55 325.8 -37.7 L325.7 -38.4 Q325.7 -41.3 330.2 -42.0 334.95 -42.7 340.4 -40.1 339.25 -39.5 334.1 -38.25 L331.2 -37.55 335.45 -37.6 Q337.4 -36.75 337.55 -36.2 L335.35 -34.9 336.25 -34.2 Q335.8 -32.95 333.95 -32.75 328.55 -32.25 322.6 -30.85 319.55 -30.15 316.8 -28.7 L314.25 -27.5 312.65 -27.65 312.2 -27.85 312.05 -28.2 Q311.9 -28.45 311.9 -29.4 311.9 -30.7 314.15 -32.7 L314.45 -32.95 Q311.0 -30.5 306.4 -29.2 L300.7 -27.5 Q302.45 -26.45 302.45 -24.7 302.45 -23.8 302.05 -23.1 L307.85 -23.8 309.3 -23.75 310.5 -23.45 310.85 -22.65 311.4 -21.9 311.1 -21.65 316.25 -23.65 Q326.95 -27.35 331.4 -27.35 333.7 -27.35 335.55 -25.9 343.9 -29.65 347.25 -28.55 L338.45 -22.95 340.35 -23.25 361.3 -23.3 Q362.6 -27.15 372.45 -29.5 380.35 -31.4 388.45 -31.6 L388.95 -31.05 Q387.2 -29.35 377.85 -24.35 L376.05 -23.35 390.0 -23.4 Q383.0 -20.15 375.6 -16.3 L375.1 -16.4 Q370.65 -17.7 364.85 -14.5 359.9 -11.75 359.9 -10.85 359.9 -10.3 360.6 -9.55 L361.6 -8.5 Q363.0 -8.8 364.65 -10.35 367.25 -11.7 374.7 -11.7 L377.85 -10.6 381.1 -9.5 382.7 -9.65 383.5 -9.95 Q382.8 -13.8 378.45 -15.5 L383.8 -16.75 393.4 -18.9 406.85 -19.55 401.55 -15.95 395.05 -10.95 388.0 -5.95 Q389.45 -6.35 397.35 -10.7 404.05 -14.4 407.75 -14.4 L410.9 -14.5 410.55 -13.15 409.9 -11.6 Q409.85 -9.6 409.0 -7.0 L415.25 -9.55 Q421.8 -11.95 423.35 -11.55 413.15 -1.15 406.95 4.15 L399.6 9.85 392.4 19.45 383.5 30.0 62.75 30.0 Q70.95 22.8 81.3 15.0 83.4 13.2 86.3 11.05 L91.45 7.35 Q92.95 4.1 97.6 -1.35 102.45 -7.0 107.9 -11.65 L103.45 -10.9 102.3 -10.8 M142.3 -29.05 Q142.65 -28.5 142.65 -27.45 142.65 -26.15 139.55 -25.25 L132.15 -23.5 130.8 -23.7 Q130.3 -23.85 130.3 -25.1 130.3 -27.05 134.45 -28.7 138.65 -30.25 141.9 -29.55 L142.3 -29.05 M132.75 -35.55 Q134.5 -38.2 140.7 -40.3 147.25 -42.55 150.2 -40.75 L134.35 -34.2 Q133.05 -34.6 132.75 -35.55 M135.4 -16.55 L135.25 -17.05 Q131.35 -18.0 127.55 -16.65 123.95 -15.4 123.95 -13.45 123.95 -12.5 124.1 -12.4 124.2 -12.3 124.6 -12.15 L135.4 -16.55 M158.4 -12.85 Q158.8 -12.55 159.9 -12.55 L160.0 -12.55 159.65 -13.7 158.25 -13.2 158.4 -12.85 M159.55 -16.65 L160.6 -16.05 170.55 -20.25 Q176.0 -22.85 177.4 -24.45 L179.0 -24.6 178.95 -24.85 Q178.95 -27.8 185.15 -30.4 185.95 -30.8 189.65 -32.0 180.8 -31.3 175.6 -28.75 L175.05 -28.45 175.6 -27.1 Q171.15 -27.1 165.7 -24.4 L163.25 -23.05 162.1 -22.65 162.55 -22.65 Q159.05 -20.35 159.05 -18.2 159.05 -17.1 159.55 -16.65 M229.5 -51.55 L222.8 -47.95 Q217.4 -45.3 213.75 -45.3 212.75 -45.3 212.55 -45.55 L211.9 -46.15 211.8 -46.3 211.7 -47.65 Q211.7 -50.15 219.7 -51.75 227.6 -53.35 229.5 -51.55 M197.95 -49.85 Q200.4 -49.05 200.4 -47.1 200.4 -45.05 197.6 -44.2 L188.8 -43.45 185.15 -43.95 185.0 -44.25 Q184.8 -44.5 184.8 -45.5 184.8 -47.15 187.25 -48.5 189.45 -49.75 192.6 -50.15 L197.95 -49.85 M196.55 -37.8 Q196.3 -38.0 196.3 -39.0 196.3 -40.0 198.6 -41.55 201.75 -43.7 206.35 -42.55 L208.05 -41.35 Q208.85 -40.7 208.85 -40.3 208.85 -38.9 207.5 -38.25 205.55 -37.25 200.25 -37.25 L196.75 -37.6 196.55 -37.8 M177.1 -12.0 Q177.1 -11.0 177.6 -11.0 L178.1 -11.2 189.55 -11.65 193.5 -12.0 Q192.85 -12.4 191.7 -13.55 190.75 -14.45 189.55 -14.95 181.8 -15.2 179.0 -14.25 177.1 -13.6 177.1 -12.0 M194.9 -15.25 L193.75 -15.55 193.6 -15.65 193.0 -15.8 Q191.75 -15.05 191.75 -14.6 191.75 -13.4 192.0 -13.45 L192.2 -13.75 Q193.55 -13.9 196.45 -14.9 L195.1 -15.3 194.9 -15.25 M187.65 -18.65 Q187.65 -17.65 187.95 -17.6 L188.8 -17.6 195.65 -18.45 Q200.2 -18.95 203.25 -20.65 L203.25 -20.8 Q203.25 -21.45 203.7 -22.15 L194.25 -22.45 Q187.65 -21.0 187.65 -18.65 M233.15 -41.55 L229.2 -40.3 Q227.3 -40.3 227.3 -43.1 227.3 -45.1 233.75 -46.55 241.05 -48.2 247.2 -45.3 L245.45 -43.8 Q243.8 -42.8 241.3 -42.8 237.7 -42.8 233.15 -41.55 M228.3 -27.65 Q223.15 -24.6 219.15 -22.85 L226.6 -23.75 237.25 -27.15 Q247.35 -30.35 252.3 -31.3 L248.25 -31.2 245.4 -30.35 Q235.8 -27.6 228.85 -27.6 L228.3 -27.65 M222.5 -0.65 L221.95 -1.6 Q217.2 -1.2 213.25 0.2 209.05 1.7 209.05 3.3 209.05 4.35 209.4 4.5 L210.4 4.7 216.4 2.7 Q222.0 0.6 222.5 -0.65 M236.2 -11.9 L236.3 -11.8 236.3 -12.0 236.2 -11.9 M237.25 -7.45 L242.2 -9.2 Q245.85 -10.55 247.2 -12.15 241.55 -14.35 238.3 -12.5 235.95 -11.15 235.95 -9.3 235.95 -8.25 236.3 -7.9 L237.25 -7.45 M268.8 -41.5 L264.1 -41.25 261.6 -41.45 258.75 -41.8 258.45 -43.75 Q260.0 -45.25 266.75 -45.75 270.85 -46.0 273.3 -45.6 L274.85 -46.15 Q281.9 -48.25 295.25 -45.95 L295.5 -46.05 Q295.75 -45.95 295.75 -44.9 295.75 -43.65 292.15 -42.8 L284.05 -41.4 Q271.7 -39.45 270.2 -36.05 268.35 -36.95 268.35 -39.0 268.35 -40.35 268.8 -41.5 M280.65 -8.95 L280.8 -9.15 Q282.65 -8.5 284.35 -8.5 285.05 -8.5 286.85 -9.45 288.7 -10.45 289.3 -11.2 L288.95 -11.75 Q288.6 -11.95 288.6 -12.0 L283.05 -11.65 Q280.45 -10.95 280.45 -9.95 280.45 -8.95 280.65 -8.95 M320.05 -24.95 L313.4 -22.85 312.75 -22.65 Q312.1 -22.65 312.1 -23.75 312.1 -24.95 315.35 -26.35 318.5 -27.65 321.5 -27.85 L321.9 -27.95 Q322.3 -27.85 322.3 -26.7 322.3 -25.6 320.05 -24.95 M292.75 -36.5 Q292.55 -36.5 292.55 -37.5 292.55 -40.05 299.05 -41.55 305.8 -43.05 310.7 -41.1 308.55 -39.45 301.2 -37.75 295.25 -36.4 294.1 -36.4 L292.9 -36.55 292.9 -36.7 292.75 -36.5 M290.4 -14.3 L290.65 -13.75 Q297.7 -16.25 305.35 -18.2 L307.4 -19.75 Q302.8 -17.9 294.0 -15.75 L290.4 -14.3 M320.05 -12.6 L323.55 -13.35 Q321.55 -12.7 321.55 -11.25 321.55 -10.1 321.7 -9.95 321.75 -9.8 322.1 -9.6 322.8 -9.9 324.6 -11.15 L327.7 -13.1 327.25 -13.65 325.0 -13.7 Q328.75 -14.6 330.2 -15.25 324.9 -19.2 316.9 -17.15 313.7 -16.3 311.55 -14.8 309.4 -13.3 309.4 -11.9 309.4 -10.9 309.55 -10.95 L309.7 -11.2 311.15 -10.7 320.05 -12.6 M356.25 -27.5 Q355.5 -27.65 355.3 -27.85 354.9 -28.1 354.9 -29.15 354.9 -30.55 358.25 -32.05 362.25 -33.8 366.8 -32.7 L367.05 -32.8 Q367.25 -32.7 367.25 -31.65 367.25 -30.2 364.0 -29.45 L356.25 -27.5 M346.65 -31.1 Q345.4 -29.95 343.9 -30.1 L341.5 -30.5 341.25 -32.15 342.7 -33.3 347.0 -33.7 347.15 -33.4 Q347.4 -33.05 348.15 -32.8 L346.65 -31.1 M330.2 -18.5 Q330.2 -17.45 330.45 -17.2 L331.4 -16.9 338.8 -18.2 Q343.65 -18.8 346.2 -20.8 L345.7 -21.75 Q340.1 -23.45 334.9 -21.95 330.2 -20.6 330.2 -18.5 M342.0 -13.9 L343.35 -13.75 Q348.05 -14.7 350.6 -16.05 352.85 -17.35 352.85 -18.7 L352.6 -19.95 352.3 -19.8 Q350.5 -19.95 346.0 -18.1 341.5 -16.25 341.5 -15.3 341.5 -14.1 342.0 -13.9 M396.3 -29.85 Q396.15 -29.95 396.15 -31.1 396.15 -33.2 397.85 -33.35 399.1 -33.45 403.35 -32.25 L400.65 -31.05 Q399.1 -30.1 396.7 -29.55 L396.3 -29.85 M414.05 -33.5 L419.45 -33.0 419.7 -32.8 Q419.9 -32.7 419.9 -31.6 419.9 -30.7 418.2 -30.05 416.5 -29.35 414.55 -29.35 413.45 -29.35 412.4 -29.9 L410.45 -31.05 410.4 -30.75 410.35 -31.85 Q410.35 -33.65 414.05 -33.5 M420.25 -19.45 L420.0 -20.1 Q420.3 -21.65 421.55 -22.45 423.0 -23.35 425.4 -23.0 L425.65 -23.2 425.9 -21.95 Q425.9 -19.25 421.45 -19.25 L420.25 -19.45 M364.35 14.65 L364.6 14.4 364.05 14.55 364.35 14.65" fill="#aec53f" fill-rule="evenodd" stroke="none"/>
    </g>
    <g id="shape2" transform="matrix(1.0, 0.0, 0.0, 1.0, 1264.4, 535.05)">
      <path d="M-1083.8 -511.75 L-1072.3 -505.35 -1068.7 -503.75 -1071.4 -503.35 -1070.95 -502.2 -1070.55 -501.35 -1065.8 -500.85 -1064.9 -500.95 -1061.45 -498.9 -1057.7 -498.95 Q-1054.6 -498.8 -1050.75 -495.75 L-1052.0 -494.45 -1052.15 -494.4 Q-1048.45 -493.9 -1043.2 -492.25 -1034.4 -489.45 -1033.6 -486.65 -1033.8 -486.2 -1035.1 -486.0 -1036.4 -484.7 -1038.8 -484.9 L-1036.25 -482.9 -1030.65 -479.35 -1026.65 -476.2 -1025.5 -474.7 Q-1022.4 -470.8 -1018.0 -467.0 L-1019.2 -467.5 -1020.8 -468.2 -1026.0 -471.75 -1025.95 -472.7 -1025.75 -472.85 -1028.6 -474.95 -1030.7 -476.35 -1030.9 -476.65 -1031.2 -476.65 Q-1034.45 -479.7 -1037.9 -481.7 L-1040.7 -483.15 Q-1044.8 -486.25 -1048.0 -487.8 L-1046.25 -487.55 -1047.2 -488.6 -1045.65 -488.3 Q-1040.45 -486.5 -1036.45 -487.5 L-1036.05 -487.6 -1036.0 -487.65 -1036.55 -487.75 -1036.8 -487.85 -1041.2 -489.65 Q-1043.25 -490.4 -1044.65 -491.6 L-1046.85 -492.1 -1046.85 -492.2 -1048.05 -492.0 -1048.25 -491.9 Q-1051.3 -493.35 -1056.6 -493.85 L-1057.35 -493.9 -1053.55 -494.35 -1053.55 -495.95 Q-1054.2 -496.45 -1054.2 -496.8 L-1067.25 -497.85 -1067.55 -498.55 -1066.35 -498.6 -1068.95 -500.15 Q-1074.3 -500.25 -1078.65 -503.25 L-1074.9 -502.75 -1073.7 -502.9 -1073.8 -503.1 -1073.8 -503.7 Q-1074.65 -505.8 -1080.05 -507.9 L-1086.3 -510.4 -1087.25 -510.75 -1089.9 -511.85 -1083.8 -511.75 M-1036.05 -488.9 L-1035.55 -488.4 -1035.35 -488.65 -1035.5 -488.7 -1035.8 -488.8 -1035.95 -488.85 Q-1036.0 -488.9 -1036.05 -488.9" fill="#749323" fill-rule="evenodd" stroke="none"/>
      <path d="M-1185.5 -524.15 L-1182.7 -521.7 -1182.45 -521.25 Q-1181.85 -520.15 -1180.9 -519.5 -1180.15 -518.1 -1178.95 -517.6 -1175.1 -518.65 -1171.95 -518.1 L-1172.0 -517.5 Q-1167.75 -516.05 -1163.6 -520.15 L-1163.5 -520.25 Q-1162.95 -519.95 -1162.75 -519.05 L-1162.65 -517.9 -1162.65 -517.7 -1162.75 -517.25 -1162.15 -517.45 Q-1158.15 -517.2 -1156.0 -521.6 -1154.8 -521.2 -1153.7 -519.95 -1151.9 -517.95 -1151.15 -515.7 -1147.75 -518.7 -1146.55 -523.15 -1146.2 -524.55 -1145.65 -525.4 -1145.65 -520.45 -1142.4 -517.1 L-1142.35 -515.4 -1140.3 -515.5 Q-1140.05 -515.55 -1140.05 -516.0 L-1140.25 -517.9 -1140.5 -518.85 Q-1139.8 -521.25 -1138.8 -521.3 L-1138.0 -519.8 -1133.3 -512.85 -1132.5 -512.2 Q-1130.15 -513.7 -1130.75 -515.95 L-1130.5 -516.0 -1130.2 -514.7 Q-1129.6 -515.7 -1128.0 -516.35 L-1125.2 -517.6 -1125.15 -517.4 Q-1123.05 -516.85 -1124.25 -515.35 L-1121.75 -516.05 Q-1117.85 -518.5 -1113.95 -518.2 -1114.25 -515.9 -1116.55 -514.65 -1119.4 -513.05 -1116.45 -512.6 L-1108.25 -517.35 Q-1099.2 -522.3 -1095.25 -519.4 -1095.75 -517.5 -1095.5 -515.6 L-1095.9 -514.05 -1095.95 -513.6 -1094.8 -513.15 -1094.35 -512.8 -1094.2 -512.95 Q-1089.35 -511.45 -1085.15 -512.3 L-1084.25 -511.65 Q-1086.55 -510.45 -1088.25 -509.85 -1090.15 -510.7 -1092.8 -510.8 L-1097.9 -511.15 Q-1099.45 -512.4 -1099.25 -514.45 -1096.65 -517.45 -1098.7 -517.1 L-1098.55 -517.4 Q-1098.1 -518.35 -1099.35 -518.45 L-1101.25 -517.8 Q-1103.1 -516.8 -1105.05 -515.9 -1108.7 -514.15 -1112.6 -512.7 L-1115.35 -511.5 -1119.85 -511.35 Q-1120.9 -513.0 -1123.45 -513.1 L-1124.05 -512.8 Q-1126.85 -511.3 -1129.55 -511.9 L-1131.75 -511.1 Q-1135.15 -509.7 -1137.05 -514.15 L-1137.35 -514.6 Q-1139.85 -512.15 -1143.8 -513.15 -1145.7 -513.65 -1145.5 -516.35 L-1146.15 -516.75 Q-1147.85 -514.7 -1149.6 -513.15 -1150.65 -512.25 -1152.7 -512.6 L-1153.65 -514.25 Q-1154.75 -517.25 -1156.9 -516.5 -1157.75 -516.25 -1157.95 -515.25 L-1158.1 -515.3 -1159.45 -514.85 Q-1160.25 -514.45 -1160.55 -513.65 L-1160.75 -513.3 Q-1162.85 -513.35 -1164.3 -514.8 -1165.2 -515.7 -1166.3 -514.95 -1168.45 -515.85 -1171.0 -514.95 -1172.55 -514.35 -1174.45 -515.0 L-1181.25 -516.55 -1182.8 -516.5 -1183.4 -517.55 -1185.1 -520.45 -1185.8 -521.95 -1188.55 -519.05 Q-1190.75 -516.5 -1193.3 -518.5 L-1194.85 -520.6 Q-1195.7 -522.2 -1195.7 -524.15 L-1195.8 -526.0 -1199.0 -520.75 Q-1201.2 -517.2 -1204.9 -517.6 L-1205.65 -519.05 Q-1207.1 -521.25 -1209.15 -518.9 -1211.05 -516.6 -1211.75 -519.45 L-1212.55 -519.85 Q-1213.95 -519.45 -1215.05 -518.45 -1215.8 -517.75 -1217.1 -517.6 L-1218.0 -519.45 Q-1218.95 -521.25 -1219.2 -523.25 -1219.45 -524.75 -1220.85 -525.7 -1221.65 -524.3 -1220.9 -523.05 -1219.85 -521.35 -1219.7 -519.15 -1219.55 -517.55 -1220.5 -516.35 -1223.9 -516.3 -1224.95 -519.2 -1225.35 -520.4 -1226.45 -521.35 -1227.9 -523.15 -1227.8 -520.7 L-1227.7 -517.9 -1227.7 -516.0 Q-1229.5 -512.2 -1233.8 -516.15 -1235.95 -518.15 -1237.7 -520.7 -1239.75 -520.5 -1241.6 -519.0 -1245.55 -515.7 -1247.7 -519.15 L-1249.7 -520.7 -1263.9 -523.15 -1264.25 -524.35 -1264.4 -524.65 -1260.0 -524.3 Q-1257.65 -524.1 -1255.45 -523.35 -1251.65 -521.95 -1249.6 -523.05 -1247.4 -521.65 -1245.4 -522.2 L-1244.9 -521.65 Q-1242.8 -519.35 -1240.9 -523.7 -1240.4 -524.85 -1239.6 -525.45 -1236.7 -523.25 -1234.25 -520.6 L-1233.75 -520.3 -1233.55 -520.45 -1233.45 -520.3 Q-1231.9 -518.3 -1230.2 -518.2 L-1230.2 -520.1 Q-1230.2 -521.95 -1230.85 -523.6 -1231.25 -524.65 -1230.8 -525.45 L-1229.35 -524.5 Q-1226.05 -522.5 -1222.8 -521.9 -1221.65 -524.2 -1222.5 -527.0 L-1222.8 -528.45 Q-1219.7 -525.95 -1216.05 -525.35 L-1214.9 -523.2 -1214.25 -525.1 Q-1213.0 -528.55 -1212.1 -531.75 -1211.55 -533.75 -1210.4 -535.05 -1211.4 -529.05 -1210.5 -523.2 L-1210.0 -522.8 -1209.6 -523.45 Q-1209.45 -522.65 -1208.95 -521.95 L-1208.95 -522.9 Q-1209.0 -527.35 -1205.85 -524.6 L-1202.7 -521.35 Q-1202.25 -521.5 -1201.9 -521.8 -1199.65 -524.05 -1198.85 -527.15 -1198.3 -529.15 -1197.15 -529.85 -1195.85 -524.35 -1191.0 -521.55 L-1190.5 -521.0 Q-1187.4 -521.6 -1187.35 -524.75 L-1187.15 -526.05 -1185.5 -524.15" fill="#749323" fill-rule="evenodd" stroke="none"/>
    </g>
  </defs>
</svg>
