<?xml version="1.0" encoding="UTF-8" standalone="no"?>
<svg xmlns:ffdec="https://www.free-decompiler.com/flash" xmlns:xlink="http://www.w3.org/1999/xlink" ffdec:objectType="frame" height="668.8px" width="1154.9px" xmlns="http://www.w3.org/2000/svg">
  <g transform="matrix(1.0, 0.0, 0.0, 1.0, -4.4, -46.2)">
    <use ffdec:characterId="4052" height="668.8" transform="matrix(1.0, 0.0, 0.0, 1.0, 4.4, 46.2)" width="1154.9" xlink:href="#shape0"/>
  </g>
  <defs>
    <g id="shape0" transform="matrix(1.0, 0.0, 0.0, 1.0, -4.4, -46.2)">
      <path d="M846.95 370.7 L846.95 363.2 846.85 356.7 846.95 356.7 846.95 302.4 Q846.95 283.9 828.45 283.9 L431.5 283.9 Q413.0 283.9 413.0 302.4 L413.0 356.7 413.15 356.7 413.0 363.2 413.0 370.7 413.05 370.7 Q413.65 387.9 431.5 387.9 L828.45 387.9 Q846.3 387.9 846.95 370.7 M828.45 390.9 L431.5 390.9 Q412.85 390.9 410.4 374.7 L410.0 374.7 410.0 302.4 Q410.0 280.9 431.5 280.9 L828.45 280.9 Q849.95 280.9 849.95 302.4 L849.95 374.7 849.6 374.7 Q847.1 390.9 828.45 390.9 M828.45 422.85 L701.5 422.85 Q683.85 422.85 683.05 439.7 L683.05 441.65 Q683.65 458.85 701.5 458.85 L828.45 458.85 Q846.15 458.85 846.95 441.95 L846.9 439.7 Q846.1 422.85 828.45 422.85 M849.15 433.7 L849.95 433.7 849.95 446.7 849.45 446.7 Q846.5 461.85 828.45 461.85 L701.5 461.85 Q683.45 461.85 680.6 446.7 L680.0 446.7 680.0 433.7 680.85 433.7 Q684.25 419.85 701.5 419.85 L828.45 419.85 Q845.7 419.85 849.15 433.7 M649.95 420.4 L649.95 446.65 649.6 446.65 Q647.1 462.85 628.45 462.85 L431.5 462.85 Q412.85 462.85 410.4 446.65 L410.0 446.65 410.0 420.4 410.05 415.7 Q410.85 395.85 431.5 395.85 L628.45 395.85 Q649.1 395.85 649.95 415.7 L649.95 420.4 M382.95 282.5 Q399.95 282.5 403.5 295.9 404.45 299.5 404.45 304.0 L404.45 442.95 Q404.45 447.45 403.5 451.05 399.95 464.45 382.95 464.45 L304.95 464.45 Q294.85 464.45 289.5 459.7 283.45 454.35 283.45 442.95 L283.45 304.0 Q283.45 292.6 289.5 287.25 294.85 282.5 304.95 282.5 L382.95 282.5 M401.45 304.0 Q401.45 285.5 382.95 285.5 L304.95 285.5 Q293.95 285.5 289.5 292.05 286.45 296.5 286.45 304.0 L286.45 442.95 Q286.45 450.45 289.5 454.95 293.95 461.45 304.95 461.45 L382.95 461.45 Q401.45 461.45 401.45 442.95 L401.45 304.0 M646.95 420.4 L646.9 415.7 Q646.1 398.85 628.45 398.85 L431.5 398.85 Q413.85 398.85 413.05 415.7 L413.0 420.4 413.0 442.65 413.05 442.65 Q413.65 459.85 431.5 459.85 L628.45 459.85 Q646.3 459.85 646.95 442.65 L646.95 420.4" fill="#b28e2d" fill-rule="evenodd" stroke="none"/>
      <path d="M1135.2 46.2 L1135.7 46.7 Q1138.15 49.1 1140.55 50.0 L1139.8 50.0 1139.6 50.0 1139.25 50.0 1139.55 50.4 1143.9 54.95 1143.85 54.95 1147.1 58.45 1148.7 60.25 1156.7 68.1 Q1157.75 67.75 1158.25 69.3 L1158.35 69.75 1158.75 70.15 1158.45 70.2 1158.6 71.7 1158.6 71.75 1158.65 72.3 1157.95 101.95 1157.95 131.95 1157.95 132.15 1157.75 138.95 1157.85 261.2 1157.8 261.2 1157.75 276.4 1157.95 283.4 1158.3 341.55 1157.95 376.05 1157.75 383.05 1157.75 401.7 1158.3 402.2 1158.3 409.35 1157.9 409.65 1157.75 409.75 1157.8 431.85 1158.3 432.65 1157.95 480.55 1157.85 484.95 1157.75 487.55 1157.75 506.2 1157.8 506.25 1158.3 506.7 1158.3 513.85 1157.9 514.15 1157.8 514.25 1157.75 514.25 1157.75 520.5 1157.75 520.85 1157.85 609.8 1157.8 609.8 1157.75 625.0 1157.95 632.0 1157.95 636.0 1158.3 636.05 1158.3 641.75 1157.95 641.85 1158.65 686.25 1158.65 686.4 1158.6 686.85 1158.6 686.9 1158.45 688.55 1159.3 688.75 1159.3 690.25 1157.85 690.4 Q1157.4 691.05 1156.7 690.8 L1150.55 696.45 1150.55 696.4 1147.05 699.65 1145.25 701.25 1135.2 711.45 1135.15 711.7 1135.1 712.05 1134.95 712.45 1134.9 713.45 Q1133.6 713.55 1132.95 715.0 L1130.95 715.0 1130.95 714.5 1130.4 714.55 1102.3 713.85 1071.4 713.85 1062.4 713.65 1042.85 713.7 1042.85 713.75 885.55 713.65 876.8 713.85 876.55 713.85 837.95 713.85 799.75 714.55 799.05 714.5 799.0 714.5 797.05 714.35 796.35 714.25 760.8 713.85 753.8 713.65 735.15 713.65 734.35 714.55 733.9 715.0 728.4 715.0 727.2 713.8 727.1 713.65 631.55 713.75 631.55 713.7 616.35 713.65 609.35 713.85 605.35 713.85 605.25 715.0 599.95 715.0 599.5 713.85 555.1 714.55 554.5 714.5 554.45 714.5 552.8 714.35 552.65 714.35 552.5 714.35 551.0 714.5 550.95 714.5 550.4 714.55 520.75 713.85 490.75 713.85 490.55 713.85 483.75 713.65 361.5 713.75 361.5 713.7 350.2 713.65 349.65 713.65 346.3 713.65 339.3 713.85 315.3 713.85 293.45 714.55 293.05 714.5 293.0 714.5 291.9 714.35 Q291.0 714.15 290.6 713.7 L228.5 713.75 228.5 713.7 213.3 713.65 206.3 713.85 182.3 713.85 160.45 714.55 160.05 714.5 160.0 714.5 158.9 714.35 157.75 713.85 157.6 713.7 96.85 713.75 96.85 713.7 82.2 713.65 75.5 713.85 52.4 713.85 31.35 714.55 31.0 714.5 30.95 714.5 30.65 714.5 Q30.05 713.75 28.95 713.65 L28.0 713.55 28.0 713.3 21.9 706.6 21.95 706.6 18.7 703.1 17.1 701.3 6.9 691.25 6.85 691.25 6.65 691.2 5.9 691.0 5.15 691.0 4.4 690.4 4.8 640.5 5.0 633.5 4.95 618.3 4.9 618.3 5.0 517.6 5.0 513.4 5.0 506.2 5.0 505.0 5.0 496.05 4.9 493.2 4.8 489.25 4.8 489.05 4.4 426.8 Q4.6 425.95 5.0 425.55 L5.0 381.55 4.8 374.75 4.8 374.55 4.45 329.35 4.4 329.15 4.75 281.75 4.4 281.65 4.4 275.95 4.75 275.9 4.75 271.9 4.95 264.9 4.9 249.7 4.85 249.7 4.95 154.15 4.8 154.05 4.4 153.75 4.4 146.6 4.95 146.1 4.95 127.45 4.75 120.45 4.4 68.85 13.1 60.25 14.7 58.45 22.5 50.15 22.5 50.1 22.85 49.65 22.05 49.4 22.0 49.4 Q22.75 48.65 23.15 47.4 L23.25 47.05 917.35 47.05 917.35 46.7 943.4 46.7 943.6 46.7 950.4 46.9 1072.65 46.8 1072.65 46.85 1087.85 46.9 1094.85 46.7 1118.85 46.7 1135.2 46.2 M828.45 390.9 Q847.1 390.9 849.6 374.7 L849.95 374.7 849.95 302.4 Q849.95 280.9 828.45 280.9 L431.5 280.9 Q410.0 280.9 410.0 302.4 L410.0 374.7 410.4 374.7 Q412.85 390.9 431.5 390.9 L828.45 390.9 M849.15 433.7 Q845.7 419.85 828.45 419.85 L701.5 419.85 Q684.25 419.85 680.85 433.7 L680.0 433.7 680.0 446.7 680.6 446.7 Q683.45 461.85 701.5 461.85 L828.45 461.85 Q846.5 461.85 849.45 446.7 L849.95 446.7 849.95 433.7 849.15 433.7 M649.95 420.4 L649.95 415.7 Q649.1 395.85 628.45 395.85 L431.5 395.85 Q410.85 395.85 410.05 415.7 L410.0 420.4 410.0 446.65 410.4 446.65 Q412.85 462.85 431.5 462.85 L628.45 462.85 Q647.1 462.85 649.6 446.65 L649.95 446.65 649.95 420.4 M382.95 282.5 L304.95 282.5 Q294.85 282.5 289.5 287.25 283.45 292.6 283.45 304.0 L283.45 442.95 Q283.45 454.35 289.5 459.7 294.85 464.45 304.95 464.45 L382.95 464.45 Q399.95 464.45 403.5 451.05 404.45 447.45 404.45 442.95 L404.45 304.0 Q404.45 299.5 403.5 295.9 399.95 282.5 382.95 282.5" fill="#252525" fill-opacity="0.7490196" fill-rule="evenodd" stroke="none"/>
    </g>
  </defs>
</svg>
