<?xml version="1.0" encoding="UTF-8" standalone="no"?>
<svg xmlns:ffdec="https://www.free-decompiler.com/flash" xmlns:xlink="http://www.w3.org/1999/xlink" ffdec:objectType="frame" height="52.5px" width="20.3px" xmlns="http://www.w3.org/2000/svg">
  <g transform="matrix(1.0, 0.0, 0.0, 1.0, 0.0, 50.4)">
    <use ffdec:characterId="119" height="7.5" transform="matrix(7.0, 0.0, 0.0, 7.0, 0.0, -50.4)" width="2.9" xlink:href="#shape0"/>
  </g>
  <defs>
    <g id="shape0" transform="matrix(1.0, 0.0, 0.0, 1.0, 0.0, 7.2)">
      <path d="M2.2 -7.1 Q2.2 -7.2 2.2 -7.15 L2.3 -7.15 Q2.9 -6.15 2.9 -6.05 L2.85 -5.15 Q2.85 -5.2 2.85 -5.05 2.85 -4.6 2.7 -3.75 2.55 -2.9 2.55 -2.0 L2.5 -1.6 2.45 -1.25 2.45 -1.0 2.4 -0.95 2.45 -0.45 Q2.45 -0.25 2.3 0.05 2.1 0.2 1.85 0.2 L1.45 0.25 1.4 0.25 1.45 0.2 1.6 0.15 1.65 0.15 Q1.8 0.05 1.9 -0.15 L1.9 -0.4 Q1.9 -0.85 2.2 -1.6 2.55 -2.35 2.55 -3.0 2.55 -3.2 2.45 -3.45 2.35 -3.65 2.35 -3.85 L2.3 -3.85 Q2.15 -3.85 2.1 -3.95 L2.05 -4.1 2.35 -4.6 Q2.4 -4.9 2.55 -5.05 2.65 -5.25 2.65 -5.45 L2.6 -5.5 2.6 -5.55 2.4 -6.2 2.4 -6.35 2.2 -7.05 2.2 -7.1 M1.0 0.15 Q0.85 0.15 0.8 0.2 0.75 0.15 0.7 0.05 L0.7 -0.05 0.65 -0.1 0.65 -0.25 0.6 -0.55 0.6 -0.7 Q0.55 -1.05 0.5 -1.55 L0.5 -1.6 0.4 -3.0 0.5 -4.25 0.4 -4.6 0.3 -4.9 Q0.0 -5.45 0.0 -5.85 0.0 -6.05 0.1 -6.05 L0.3 -5.45 Q0.4 -5.25 0.55 -5.0 L0.8 -4.75 Q0.9 -4.65 1.15 -4.5 L1.15 -4.35 Q1.15 -3.95 1.3 -3.6 L1.35 -3.55 1.35 -3.45 1.4 -3.35 1.55 -3.15 1.6 -3.1 1.65 -3.05 1.55 -3.05 Q1.35 -3.05 1.2 -3.3 L1.05 -3.55 Q0.95 -3.8 0.85 -4.15 L0.8 -4.2 0.8 -4.05 0.75 -3.75 0.7 -3.55 Q0.55 -3.1 0.55 -3.0 0.55 -2.55 0.75 -1.75 L0.85 -1.3 0.95 -0.95 1.05 -1.1 1.1 -1.2 Q1.35 -1.45 1.45 -1.45 1.55 -1.5 1.55 -1.35 L1.35 -1.0 1.2 -0.8 1.15 -0.5 1.1 -0.4 Q1.0 -0.15 1.0 0.1 L1.0 0.15 M0.5 -7.1 Q0.55 -7.2 0.65 -7.2 0.85 -7.15 1.1 -6.95 L1.15 -6.9 Q1.7 -6.3 1.65 -5.55 L1.7 -5.35 1.9 -5.0 1.85 -4.9 1.8 -4.85 1.75 -4.9 1.65 -5.05 1.35 -5.35 1.5 -5.7 1.55 -5.95 Q1.55 -6.35 1.05 -6.6 L1.0 -6.65 0.8 -6.75 0.65 -6.8 0.6 -6.9 0.55 -6.9 0.5 -7.0 0.5 -7.1" fill="#111111" fill-rule="evenodd" stroke="none"/>
      <path d="M2.2 -7.1 L2.2 -7.05 2.4 -6.35 2.4 -6.2 2.6 -5.55 2.6 -5.5 2.55 -5.4 Q2.35 -5.0 1.85 -4.9 L1.9 -5.0 1.7 -5.35 1.65 -5.55 Q1.7 -6.3 1.15 -6.9 1.6 -7.2 1.95 -7.2 L2.2 -7.1 M1.6 0.15 L1.45 0.2 1.4 0.25 1.2 0.3 Q1.05 0.3 1.0 0.2 L1.0 0.15 1.0 0.1 Q1.0 -0.15 1.1 -0.4 L1.15 -0.5 1.2 -0.8 1.35 -1.0 1.55 -1.35 Q1.55 -1.5 1.45 -1.45 1.35 -1.45 1.1 -1.2 L1.05 -1.1 0.95 -0.95 0.85 -1.3 0.75 -1.75 Q0.55 -2.55 0.55 -3.0 0.55 -3.1 0.7 -3.55 L0.75 -3.75 Q0.9 -3.45 1.2 -3.3 1.35 -3.05 1.55 -3.05 L1.65 -3.05 1.6 -3.1 1.7 -3.05 1.75 -3.2 1.5 -3.7 1.75 -3.75 1.9 -3.75 Q1.95 -3.6 2.1 -3.4 2.35 -3.1 2.35 -3.0 2.35 -2.9 2.05 -2.2 L1.7 -1.45 Q1.7 -1.15 1.65 -0.85 1.7 -0.65 1.7 -0.2 1.7 -0.1 1.6 0.05 L1.6 0.15 M0.1 -6.7 Q0.15 -7.1 0.45 -7.1 L0.5 -7.1 0.5 -7.0 0.55 -6.9 0.6 -6.9 0.65 -6.8 0.8 -6.75 1.0 -6.65 1.05 -6.6 Q1.55 -6.35 1.55 -5.95 L1.5 -5.7 1.35 -5.35 1.65 -5.05 1.75 -4.9 Q1.65 -4.8 1.6 -4.8 L1.35 -4.85 1.4 -4.85 1.35 -4.9 Q0.7 -5.0 0.35 -5.6 0.15 -6.0 0.1 -6.4 L0.1 -6.7" fill="#4e5952" fill-rule="evenodd" stroke="none"/>
      <path d="M2.6 -5.5 L2.65 -5.45 Q2.65 -5.25 2.55 -5.05 2.4 -4.9 2.35 -4.6 L2.05 -4.1 2.1 -3.95 Q2.15 -3.85 2.3 -3.85 L2.35 -3.85 Q2.35 -3.65 2.45 -3.45 2.55 -3.2 2.55 -3.0 2.55 -2.35 2.2 -1.6 1.9 -0.85 1.9 -0.4 L1.9 -0.15 Q1.8 0.05 1.65 0.15 L1.6 0.15 1.6 0.05 Q1.7 -0.1 1.7 -0.2 1.7 -0.65 1.65 -0.85 1.7 -1.15 1.7 -1.45 L2.05 -2.2 Q2.35 -2.9 2.35 -3.0 2.35 -3.1 2.1 -3.4 1.95 -3.6 1.9 -3.75 L1.75 -3.75 1.5 -3.7 1.75 -3.2 1.7 -3.05 1.6 -3.1 1.55 -3.15 1.4 -3.35 1.35 -3.45 1.35 -3.55 1.3 -3.6 Q1.15 -3.95 1.15 -4.35 L1.15 -4.5 Q0.9 -4.65 0.8 -4.75 L0.55 -5.0 Q0.4 -5.25 0.3 -5.45 L0.1 -6.05 0.05 -6.4 0.05 -6.45 0.1 -6.7 0.1 -6.4 Q0.15 -6.0 0.35 -5.6 0.7 -5.0 1.35 -4.9 L1.4 -4.85 1.35 -4.85 1.6 -4.8 Q1.65 -4.8 1.75 -4.9 L1.8 -4.85 1.85 -4.9 Q2.35 -5.0 2.55 -5.4 L2.6 -5.5 M0.75 -3.75 L0.8 -4.05 0.8 -4.2 0.85 -4.15 Q0.95 -3.8 1.05 -3.55 L1.2 -3.3 Q0.9 -3.45 0.75 -3.75" fill="#2c332f" fill-rule="evenodd" stroke="none"/>
    </g>
  </defs>
</svg>
