<?xml version="1.0" encoding="UTF-8" standalone="no"?>
<svg xmlns:ffdec="https://www.free-decompiler.com/flash" xmlns:xlink="http://www.w3.org/1999/xlink" ffdec:objectType="frame" height="9.65px" width="147.35px" xmlns="http://www.w3.org/2000/svg">
  <g transform="matrix(1.0, 0.0, 0.0, 1.0, 35.45, 4.8)">
    <use ffdec:characterId="3549" height="9.65" transform="matrix(1.0, 0.0, 0.0, 1.0, -35.45, -4.8)" width="147.35" xlink:href="#shape0"/>
  </g>
  <defs>
    <g id="shape0" transform="matrix(1.0, 0.0, 0.0, 1.0, 35.45, 4.8)">
      <path d="M75.15 -4.8 L76.6 -4.8 76.6 4.85 75.15 4.85 75.15 -4.8" fill="url(#gradient0)" fill-rule="evenodd" stroke="none"/>
      <path d="M53.3 -4.8 L75.15 -4.8 75.15 4.85 53.3 4.85 53.3 -4.8" fill="url(#gradient1)" fill-rule="evenodd" stroke="none"/>
      <path d="M92.9 -4.8 L111.9 -4.8 111.9 -1.3 111.8 0.4 Q110.75 4.85 104.2 4.85 L92.9 4.85 92.9 -4.8" fill="url(#gradient2)" fill-rule="evenodd" stroke="none"/>
      <path d="M91.35 -4.8 L92.9 -4.8 92.9 4.85 91.35 4.85 91.35 -4.8" fill="url(#gradient3)" fill-rule="evenodd" stroke="none"/>
      <path d="M76.6 -4.8 L91.35 -4.8 91.35 4.85 76.6 4.85 76.6 -4.8" fill="url(#gradient4)" fill-rule="evenodd" stroke="none"/>
      <path d="M14.2 -4.8 L38.0 -4.8 38.0 4.85 14.2 4.85 14.2 -4.8" fill="url(#gradient5)" fill-rule="evenodd" stroke="none"/>
      <path d="M46.85 -4.8 L53.3 -4.8 53.3 4.85 46.85 4.85 46.85 -4.8" fill="url(#gradient6)" fill-rule="evenodd" stroke="none"/>
      <path d="M38.0 -4.8 L46.85 -4.8 46.85 4.85 38.0 4.85 38.0 -4.8" fill="url(#gradient7)" fill-rule="evenodd" stroke="none"/>
      <path d="M14.2 4.85 L-19.8 4.85 -19.8 -4.8 14.2 -4.8 14.2 4.85" fill="url(#gradient8)" fill-rule="evenodd" stroke="none"/>
      <path d="M-19.8 4.85 L-27.75 4.85 Q-34.3 4.85 -35.3 0.3 L-35.45 -1.3 -35.45 -4.8 -19.8 -4.8 -19.8 4.85" fill="url(#gradient9)" fill-rule="evenodd" stroke="none"/>
    </g>
    <linearGradient gradientTransform="matrix(0.0, -0.0036, 0.1257, 0.0, 118.1, 1.8)" gradientUnits="userSpaceOnUse" id="gradient0" spreadMethod="pad" x1="-819.2" x2="819.2">
      <stop offset="0.0" stop-color="#0f78aa"/>
      <stop offset="0.8274509803921568" stop-color="#0f78aa" stop-opacity="0.0"/>
    </linearGradient>
    <linearGradient gradientTransform="matrix(0.0, -0.0036, 0.8401, 0.0, 362.25, 1.8)" gradientUnits="userSpaceOnUse" id="gradient1" spreadMethod="pad" x1="-819.2" x2="819.2">
      <stop offset="0.0" stop-color="#0f78aa"/>
      <stop offset="0.8274509803921568" stop-color="#0f78aa" stop-opacity="0.0"/>
    </linearGradient>
    <linearGradient gradientTransform="matrix(0.0, -0.0036, 0.0059, 0.0, 56.6, 1.8)" gradientUnits="userSpaceOnUse" id="gradient2" spreadMethod="pad" x1="-819.2" x2="819.2">
      <stop offset="0.0" stop-color="#0f78aa"/>
      <stop offset="0.8274509803921568" stop-color="#0f78aa" stop-opacity="0.0"/>
    </linearGradient>
    <linearGradient gradientTransform="matrix(0.0, -0.0036, 0.0059, 0.0, 87.8, 1.8)" gradientUnits="userSpaceOnUse" id="gradient3" spreadMethod="pad" x1="-819.2" x2="819.2">
      <stop offset="0.0" stop-color="#0f78aa"/>
      <stop offset="0.8274509803921568" stop-color="#0f78aa" stop-opacity="0.0"/>
    </linearGradient>
    <linearGradient gradientTransform="matrix(0.0, -0.0036, 0.0291, 0.0, 84.7, 1.8)" gradientUnits="userSpaceOnUse" id="gradient4" spreadMethod="pad" x1="-819.2" x2="819.2">
      <stop offset="0.0" stop-color="#0f78aa"/>
      <stop offset="0.8274509803921568" stop-color="#0f78aa" stop-opacity="0.0"/>
    </linearGradient>
    <linearGradient gradientTransform="matrix(0.0, -0.0036, 0.0059, 0.0, 43.15, 1.8)" gradientUnits="userSpaceOnUse" id="gradient5" spreadMethod="pad" x1="-819.2" x2="819.2">
      <stop offset="0.0" stop-color="#0f78aa"/>
      <stop offset="0.8274509803921568" stop-color="#0f78aa" stop-opacity="0.0"/>
    </linearGradient>
    <linearGradient gradientTransform="matrix(0.0, -0.0036, 0.1257, 0.0, 118.6, 1.8)" gradientUnits="userSpaceOnUse" id="gradient6" spreadMethod="pad" x1="-819.2" x2="819.2">
      <stop offset="0.0" stop-color="#0f78aa"/>
      <stop offset="0.8274509803921568" stop-color="#0f78aa" stop-opacity="0.0"/>
    </linearGradient>
    <linearGradient gradientTransform="matrix(0.0, -0.0036, 0.0291, 0.0, 63.45, 1.8)" gradientUnits="userSpaceOnUse" id="gradient7" spreadMethod="pad" x1="-819.2" x2="819.2">
      <stop offset="0.0" stop-color="#0f78aa"/>
      <stop offset="0.8274509803921568" stop-color="#0f78aa" stop-opacity="0.0"/>
    </linearGradient>
    <linearGradient gradientTransform="matrix(0.0, -0.0036, 0.0219, 0.0, 121.75, 1.8)" gradientUnits="userSpaceOnUse" id="gradient8" spreadMethod="pad" x1="-819.2" x2="819.2">
      <stop offset="0.0" stop-color="#0f78aa"/>
      <stop offset="0.8274509803921568" stop-color="#0f78aa" stop-opacity="0.0"/>
    </linearGradient>
    <linearGradient gradientTransform="matrix(0.0, -0.0036, 0.0059, 0.0, 19.75, 1.8)" gradientUnits="userSpaceOnUse" id="gradient9" spreadMethod="pad" x1="-819.2" x2="819.2">
      <stop offset="0.0" stop-color="#0f78aa"/>
      <stop offset="0.8274509803921568" stop-color="#0f78aa" stop-opacity="0.0"/>
    </linearGradient>
  </defs>
</svg>
