<?xml version="1.0" encoding="UTF-8" standalone="no"?>
<svg xmlns:ffdec="https://www.free-decompiler.com/flash" xmlns:xlink="http://www.w3.org/1999/xlink" ffdec:objectType="frame" height="105.35px" width="125.65px" xmlns="http://www.w3.org/2000/svg">
  <g transform="matrix(1.0, 0.0, 0.0, 1.0, 54.6, 45.15)">
    <use ffdec:characterId="14" height="15.05" transform="matrix(7.0, 0.0, 0.0, 7.0, -54.6, -45.15)" width="17.95" xlink:href="#shape0"/>
  </g>
  <defs>
    <g id="shape0" transform="matrix(1.0, 0.0, 0.0, 1.0, 7.8, 6.45)">
      <path d="M-2.45 -4.2 Q0.15 -4.3 2.3 -4.65 L3.7 -4.95 3.55 -4.95 3.5 -5.0 2.5 -5.1 0.55 -5.35 -3.1 -5.95 -5.55 -5.95 Q-6.85 -5.65 -6.95 -5.1 L-6.9 -4.75 Q-6.9 -4.55 -6.95 -4.45 L-6.7 -4.35 Q-5.85 -4.15 -4.3 -4.15 L-4.15 -4.15 -2.45 -4.2 M7.2 -0.9 L5.5 -0.9 2.9 -1.0 Q2.2 -1.15 1.4 -1.15 L-1.6 -1.15 -1.5 -1.05 -1.35 -1.1 -1.25 -1.1 Q-1.25 -1.05 -1.25 -0.95 L-1.25 -0.9 -1.0 -0.85 Q0.45 -0.2 0.75 -0.1 1.75 0.3 2.4 0.3 3.75 0.3 6.0 -0.4 L7.45 -0.8 7.65 -0.9 7.2 -0.9 M8.85 -2.2 L8.5 -3.3 8.0 -4.95 Q7.3 -4.9 6.25 -4.65 L4.1 -4.15 Q2.8 -3.9 1.2 -3.75 -1.65 -3.35 -5.1 -3.35 L-6.75 -3.45 -6.65 -3.05 -6.6 -2.85 Q-6.4 -2.4 -5.75 -2.2 -4.35 -1.75 2.05 -1.85 L4.95 -1.9 Q6.65 -1.9 8.65 -1.6 L9.1 -1.6 9.1 -1.65 8.95 -2.0 8.85 -2.2 M5.1 -5.35 Q6.2 -5.55 7.05 -5.6 L7.15 -5.6 8.1 -6.0 8.15 -5.95 8.2 -5.8 Q8.2 -5.75 7.85 -5.55 8.6 -5.4 8.75 -4.95 8.8 -4.45 9.4 -2.95 9.95 -1.55 9.95 -1.4 9.95 -1.15 9.9 -1.1 9.9 -1.05 9.7 -1.0 L9.65 -1.0 10.05 -0.05 Q10.15 0.25 10.15 1.0 10.15 1.65 9.7 2.0 9.3 2.35 8.35 2.55 L7.6 2.7 Q7.5 3.6 5.5 5.0 3.5 6.35 2.55 6.4 L2.4 6.6 Q2.1 7.15 1.75 7.5 0.65 8.6 -1.05 8.6 -3.75 8.6 -4.95 5.1 -5.65 3.1 -5.65 1.1 -5.65 0.85 -5.55 0.7 L-5.9 -0.2 Q-6.3 -1.3 -6.35 -1.55 L-6.55 -1.6 Q-7.15 -1.85 -7.4 -2.35 -7.65 -2.8 -7.65 -3.8 -7.8 -3.9 -7.8 -4.0 -7.8 -4.2 -7.75 -4.3 L-7.7 -4.3 -7.65 -4.35 -7.6 -4.45 -7.55 -4.5 Q-7.5 -4.55 -7.35 -4.55 L-7.35 -4.65 Q-7.35 -5.25 -7.1 -5.7 -6.65 -6.45 -5.55 -6.4 L-5.55 -6.45 -3.15 -6.45 -0.75 -6.05 1.45 -5.65 Q3.2 -5.35 5.1 -5.35 M8.35 -0.55 L7.0 0.05 6.7 0.15 Q4.55 0.95 2.35 0.95 L2.0 0.9 1.95 0.95 1.3 1.5 0.5 2.0 Q-0.95 2.95 -1.7 2.95 -1.9 2.95 -2.9 2.25 L-3.05 2.15 -4.0 1.4 -4.3 1.1 -4.25 0.95 -4.4 1.0 Q-4.25 1.15 -4.1 1.4 L-4.05 1.45 -3.4 2.75 Q-2.95 3.65 -2.5 4.05 -1.95 4.65 -1.15 4.65 -0.55 4.65 0.1 4.5 2.25 4.05 5.15 2.1 L5.45 1.85 5.6 1.8 5.7 1.7 5.75 1.7 5.85 1.6 6.05 1.45 6.15 1.4 8.5 -0.5 8.55 -0.55 8.9 -0.8 Q8.6 -0.7 8.35 -0.55 M9.35 -1.0 L9.35 -1.0 M9.5 0.9 L9.55 0.6 9.4 0.1 Q9.3 -0.25 9.3 -0.35 9.3 -0.55 9.3 -0.75 9.1 -0.35 8.05 0.5 L6.85 1.4 6.25 1.75 5.45 2.25 5.25 2.4 4.95 2.6 5.3 2.45 5.4 2.45 Q6.2 2.2 7.55 2.05 L8.6 1.85 9.0 1.7 9.15 1.6 Q9.45 1.35 9.5 0.9 M-5.1 -1.4 L-5.55 -1.45 -5.4 -1.2 -5.3 -0.95 -5.1 -0.3 -4.9 0.4 Q-4.3 0.25 -3.4 -0.2 L-3.3 -0.2 -3.1 -0.3 -2.45 -0.65 Q-3.35 -1.05 -3.8 -1.3 L-5.0 -1.4 -5.1 -1.4 M1.3 0.75 Q0.3 0.5 -1.25 -0.15 L-1.85 -0.35 Q-2.2 -0.15 -2.7 0.2 -3.4 0.6 -3.9 0.8 L-3.85 0.85 -3.5 1.1 -2.8 1.55 -2.5 1.8 -1.55 2.4 Q-1.15 2.4 -0.25 1.85 L0.7 1.3 1.3 1.0 1.4 0.95 Q1.55 0.9 1.65 0.85 L1.3 0.75 M-3.05 4.65 L-3.15 4.55 -3.25 4.4 Q-3.85 3.7 -3.95 3.25 -4.15 2.4 -4.7 1.7 L-5.35 1.05 Q-5.1 2.7 -4.8 3.85 -4.5 4.95 -4.2 5.7 -3.15 8.25 -1.4 8.25 0.75 8.25 2.85 5.45 L3.15 5.0 4.2 3.5 4.25 3.45 4.3 3.35 4.25 3.35 3.15 3.65 2.45 4.4 1.65 5.05 Q0.05 6.3 -1.15 6.3 -1.9 6.3 -2.3 5.8 -2.6 5.45 -2.6 5.15 L-2.6 5.05 Q-2.8 4.9 -3.05 4.65 M2.95 3.7 Q-0.15 5.3 -1.75 5.3 L-2.0 5.3 Q-1.75 5.75 -0.9 5.75 -0.15 5.75 1.55 4.65 L3.0 3.7 3.0 3.65 2.95 3.7 M6.65 3.15 L6.9 2.8 6.45 2.9 5.7 3.05 5.2 3.15 5.1 3.4 5.05 3.4 4.95 3.55 4.2 4.45 4.15 4.55 3.25 5.5 3.8 5.25 3.95 5.2 3.95 5.15 4.05 5.15 4.1 5.1 5.25 4.6 5.35 4.55 5.55 4.45 5.95 4.05 5.95 4.0 6.1 3.9 6.5 3.35 6.6 3.25 6.65 3.15" fill="#111111" fill-rule="evenodd" stroke="none"/>
      <path d="M-4.15 -4.15 L-3.55 -4.2 -2.45 -4.2 -4.15 -4.15 M7.45 -0.8 L7.2 -0.9 7.65 -0.9 7.45 -0.8 M8.55 -0.55 Q8.5 -0.6 8.45 -0.6 L8.35 -0.55 Q8.6 -0.7 8.9 -0.8 L8.55 -0.55 M-4.0 1.4 L-4.05 1.45 -4.1 1.4 Q-4.25 1.15 -4.4 1.0 L-4.25 0.95 -4.3 1.1 -4.0 1.4 M9.15 1.6 L9.0 1.7 8.6 1.85 9.15 1.6 M5.3 2.45 L4.95 2.6 5.25 2.4 5.3 2.45 M4.25 3.35 L4.3 3.35 4.25 3.45 4.25 3.35 M3.0 3.7 L2.95 3.7 3.0 3.65 3.0 3.7 M5.95 4.05 L5.55 4.45 5.35 4.55 5.95 4.05" fill="#ffffff" fill-rule="evenodd" stroke="none"/>
      <path d="M2.5 -5.1 L3.5 -5.0 3.55 -4.95 3.7 -4.95 2.3 -4.65 Q0.15 -4.3 -2.45 -4.2 L-3.55 -4.2 -4.15 -4.15 -4.3 -4.15 Q-5.85 -4.15 -6.7 -4.35 L-6.95 -4.45 Q-6.9 -4.55 -6.9 -4.75 -6.5 -5.05 -5.75 -5.25 -3.9 -5.75 -1.4 -5.15 L2.35 -5.1 2.5 -5.1 M7.45 -0.8 L6.0 -0.4 Q3.75 0.3 2.4 0.3 1.75 0.3 0.75 -0.1 0.45 -0.2 -1.0 -0.85 L-1.25 -0.9 -1.25 -0.95 Q-1.25 -1.05 -1.25 -1.1 L-1.35 -1.1 -1.5 -1.05 -1.6 -1.15 1.4 -1.15 Q2.2 -1.15 2.9 -1.0 L5.5 -0.9 7.2 -0.9 7.45 -0.8 M8.85 -2.2 L8.95 -2.0 9.1 -1.65 9.1 -1.6 8.65 -1.6 Q6.65 -1.9 4.95 -1.9 L2.05 -1.85 Q-4.35 -1.75 -5.75 -2.2 -6.4 -2.4 -6.6 -2.85 L-6.65 -3.05 Q-6.05 -3.25 -4.6 -3.05 L-3.35 -3.05 -1.95 -3.0 0.95 -2.95 8.2 -2.3 8.85 -2.2 M8.35 -0.55 L8.45 -0.6 Q8.5 -0.6 8.55 -0.55 L8.5 -0.5 6.15 1.4 6.05 1.45 5.85 1.6 5.75 1.7 5.7 1.7 5.6 1.8 5.45 1.85 5.15 2.1 Q2.25 4.05 0.1 4.5 -0.55 4.65 -1.15 4.65 -1.95 4.65 -2.5 4.05 -2.95 3.65 -3.4 2.75 L-4.05 1.45 -4.0 1.4 -3.05 2.15 -2.9 2.25 -2.75 2.6 Q-2.15 4.0 -1.65 4.0 0.25 4.0 2.0 3.05 2.7 2.65 3.8 1.8 L3.85 1.65 2.4 2.35 Q1.05 2.95 0.85 2.95 0.45 2.95 0.45 2.6 0.45 2.45 0.8 2.25 L1.8 1.8 1.95 1.75 Q1.4 1.7 1.2 1.6 L1.15 1.55 1.3 1.5 1.95 0.95 2.0 0.9 2.35 0.95 Q4.55 0.95 6.7 0.15 L7.0 0.05 8.35 -0.55 M6.85 1.4 L6.9 1.35 7.4 1.15 Q9.15 0.5 9.5 0.9 9.45 1.35 9.15 1.6 L8.6 1.85 7.55 2.05 Q6.2 2.2 5.4 2.45 L5.3 2.45 5.25 2.4 5.45 2.25 6.25 1.75 6.85 1.4 M-5.4 -1.2 Q-5.3 -1.35 -5.1 -1.4 L-5.0 -1.4 -3.8 -1.3 Q-3.35 -1.05 -2.45 -0.65 L-3.1 -0.3 -3.3 -0.2 -3.4 -0.2 -5.1 -0.3 -5.3 -0.95 -5.4 -1.2 M-3.5 1.1 L-3.85 0.85 -3.9 0.8 Q-3.4 0.6 -2.7 0.2 -2.2 -0.15 -1.85 -0.35 L-1.25 -0.15 Q0.3 0.5 1.3 0.75 L1.25 0.95 1.2 1.0 1.3 1.0 0.7 1.3 -0.25 1.85 Q-1.15 2.4 -1.55 2.4 L-2.5 1.8 -2.25 1.7 -1.0 1.25 -1.95 1.25 Q-2.25 1.15 -3.35 1.1 L-3.5 1.1 M-4.8 3.85 Q-5.1 2.7 -5.35 1.05 L-4.7 1.7 Q-4.15 2.4 -3.95 3.25 -3.85 3.7 -3.25 4.4 L-3.15 4.55 -3.05 4.65 -2.95 5.0 -2.9 5.3 -2.55 5.65 Q-1.95 6.25 -0.8 7.15 L-0.9 7.3 Q-0.95 7.35 -1.1 7.35 -1.35 7.35 -1.7 7.15 L-1.95 7.2 Q-2.25 7.2 -2.6 7.05 -3.65 6.55 -4.6 4.35 L-4.8 3.85 M2.45 4.4 L3.15 3.65 4.25 3.35 4.25 3.45 4.2 3.5 3.15 5.0 2.55 5.5 Q0.85 6.9 0.05 6.9 L-0.35 6.9 -0.5 6.75 Q-0.2 6.45 1.0 5.7 2.05 5.05 2.25 4.65 L2.3 4.5 2.45 4.4 M3.0 3.7 L1.55 4.65 Q-0.15 5.75 -0.9 5.75 -1.75 5.75 -2.0 5.3 L-1.75 5.3 Q-0.15 5.3 2.95 3.7 L3.0 3.7 M6.45 2.9 Q6.6 2.95 6.65 3.15 L6.6 3.25 6.5 3.35 6.1 3.9 5.95 4.0 5.95 4.05 5.35 4.55 5.25 4.6 4.1 5.1 4.05 5.15 3.95 5.15 3.95 5.2 3.8 5.25 3.25 5.5 4.15 4.55 4.2 4.45 4.95 3.55 5.05 3.4 5.1 3.4 Q5.4 3.15 5.7 3.05 L6.45 2.9" fill="#c7c7c7" fill-rule="evenodd" stroke="none"/>
      <path d="M2.5 -5.1 L2.35 -5.1 -1.4 -5.15 Q-3.9 -5.75 -5.75 -5.25 -6.5 -5.05 -6.9 -4.75 L-6.95 -5.1 Q-6.85 -5.65 -5.55 -5.95 L-3.1 -5.95 0.55 -5.35 2.5 -5.1 M-6.65 -3.05 L-6.75 -3.45 -5.1 -3.35 Q-1.65 -3.35 1.2 -3.75 2.8 -3.9 4.1 -4.15 L6.25 -4.65 Q7.3 -4.9 8.0 -4.95 L8.5 -3.3 8.85 -2.2 8.2 -2.3 0.95 -2.95 -1.95 -3.0 -3.35 -3.05 -4.6 -3.05 Q-6.05 -3.25 -6.65 -3.05 M1.3 1.5 L1.15 1.55 1.2 1.6 Q1.4 1.7 1.95 1.75 L1.8 1.8 0.8 2.25 Q0.45 2.45 0.45 2.6 0.45 2.95 0.85 2.95 1.05 2.95 2.4 2.35 L3.85 1.65 3.8 1.8 Q2.7 2.65 2.0 3.05 0.25 4.0 -1.65 4.0 -2.15 4.0 -2.75 2.6 L-2.9 2.25 Q-1.9 2.95 -1.7 2.95 -0.95 2.95 0.5 2.0 L1.3 1.5 M6.85 1.4 L8.05 0.5 Q9.1 -0.35 9.3 -0.75 9.3 -0.55 9.3 -0.35 9.3 -0.25 9.4 0.1 L9.55 0.6 9.5 0.9 Q9.15 0.5 7.4 1.15 L6.9 1.35 6.85 1.4 M-5.4 -1.2 L-5.55 -1.45 -5.1 -1.4 Q-5.3 -1.35 -5.4 -1.2 M-3.4 -0.2 Q-4.3 0.25 -4.9 0.4 L-5.1 -0.3 -3.4 -0.2 M-3.5 1.1 L-3.35 1.1 Q-2.25 1.15 -1.95 1.25 L-1.0 1.25 -2.25 1.7 -2.5 1.8 -2.8 1.55 -3.5 1.1 M1.3 1.0 L1.2 1.0 1.25 0.95 1.3 0.75 1.65 0.85 Q1.55 0.9 1.4 0.95 L1.3 1.0 M-4.8 3.85 L-4.6 4.35 Q-3.65 6.55 -2.6 7.05 -2.25 7.2 -1.95 7.2 L-1.7 7.15 Q-1.35 7.35 -1.1 7.35 -0.95 7.35 -0.9 7.3 L-0.8 7.15 Q-1.95 6.25 -2.55 5.65 L-2.9 5.3 -2.95 5.0 -3.05 4.65 Q-2.8 4.9 -2.6 5.05 L-2.6 5.15 Q-2.6 5.45 -2.3 5.8 -1.9 6.3 -1.15 6.3 0.05 6.3 1.65 5.05 L2.45 4.4 2.3 4.5 2.25 4.65 Q2.05 5.05 1.0 5.7 -0.2 6.45 -0.5 6.75 L-0.35 6.9 0.05 6.9 Q0.85 6.9 2.55 5.5 L3.15 5.0 2.85 5.45 Q0.75 8.25 -1.4 8.25 -3.15 8.25 -4.2 5.7 -4.5 4.95 -4.8 3.85 M6.45 2.9 L6.9 2.8 6.65 3.15 Q6.6 2.95 6.45 2.9 M5.1 3.4 L5.2 3.15 5.7 3.05 Q5.4 3.15 5.1 3.4" fill="#f7f7f7" fill-rule="evenodd" stroke="none"/>
    </g>
  </defs>
</svg>
