<?xml version="1.0" encoding="UTF-8" standalone="no"?>
<svg xmlns:ffdec="https://www.free-decompiler.com/flash" xmlns:xlink="http://www.w3.org/1999/xlink" ffdec:objectType="frame" height="241.85px" width="139.3px" xmlns="http://www.w3.org/2000/svg">
  <g transform="matrix(1.0, 0.0, 0.0, 1.0, 69.65, 241.85)">
    <use ffdec:characterId="119" height="34.55" transform="matrix(7.0, 0.0, 0.0, 7.0, -69.65, -241.85)" width="19.9" xlink:href="#shape0"/>
  </g>
  <defs>
    <g id="shape0" transform="matrix(1.0, 0.0, 0.0, 1.0, 9.95, 34.55)">
      <path d="M3.45 -29.55 L2.05 -28.95 4.5 -30.1 3.45 -29.55 M-5.15 -25.6 Q-1.25 -28.3 3.2 -29.75 -0.9 -28.1 -4.3 -25.45 -5.7 -24.6 -6.4 -23.1 L-6.5 -23.05 -6.9 -22.7 -7.4 -22.3 -7.5 -22.25 -8.25 -21.95 Q-8.35 -17.25 -8.0 -12.55 L-7.5 -11.5 -7.5 -11.45 -7.55 -11.45 -7.5 -11.35 -7.3 -11.3 -6.05 -9.1 -6.35 -9.35 Q-7.75 -10.6 -8.2 -12.3 L-8.3 -12.4 -8.25 -12.55 Q-8.85 -17.5 -9.3 -22.55 -9.25 -22.6 -9.2 -22.65 L-9.25 -22.7 -9.15 -23.05 -9.05 -23.7 -8.9 -23.9 Q-9.05 -23.15 -8.55 -22.6 -7.9 -22.65 -7.5 -23.2 L-7.5 -23.3 -7.35 -23.5 -6.9 -24.25 -6.1 -24.85 -6.05 -24.9 -5.95 -24.95 -5.5 -25.35 -5.15 -25.6 M-6.05 -8.55 L-5.25 -6.5 -6.1 -8.4 -6.05 -8.55 M7.45 -31.2 L7.5 -31.2 7.45 -31.2" fill="#993399" fill-rule="evenodd" stroke="none"/>
      <path d="M3.45 -29.55 L4.5 -30.1 2.05 -28.95 3.45 -29.55 M-5.15 -25.6 Q-3.65 -26.8 -2.05 -27.75 2.7 -30.6 7.95 -32.1 L7.95 -32.0 Q7.95 -31.7 7.8 -31.5 7.7 -31.35 7.5 -31.2 L7.45 -31.2 7.3 -31.1 Q3.6 -29.45 0.05 -27.4 -2.7 -25.8 -4.8 -23.35 L-4.8 -23.2 -6.15 -21.45 -5.7 -20.45 Q-0.85 -18.05 4.25 -16.35 -0.25 -17.6 -4.75 -18.5 -6.85 -17.65 -6.9 -15.25 -6.9 -14.85 -6.85 -14.45 L-6.65 -13.8 -6.45 -12.95 Q-4.45 -11.1 -2.0 -9.7 -1.55 -9.4 -1.15 -9.1 -3.1 -9.85 -5.1 -10.35 L-5.2 -10.2 -5.2 -9.75 -5.05 -9.65 Q-3.85 -6.35 -2.3 -3.15 L-2.3 -3.2 -2.25 -3.2 -2.2 -3.15 -2.15 -3.05 -1.3 -2.6 -1.15 -2.6 -1.05 -2.35 -1.05 -2.25 -0.95 -1.75 -0.55 -1.35 -0.6 -1.2 Q-1.35 -1.3 -1.95 -0.95 L-3.05 -1.05 Q-3.1 -1.05 -3.1 -1.1 -3.25 -1.35 -3.45 -1.55 L-3.45 -1.65 -3.35 -1.75 Q-3.25 -2.3 -3.6 -2.7 L-3.25 -3.0 -3.25 -3.05 -3.3 -3.1 -3.5 -2.95 -3.5 -3.1 -3.9 -3.4 Q-4.7 -4.9 -5.25 -6.5 L-6.05 -8.55 -6.35 -9.35 -6.05 -9.1 -7.3 -11.3 -7.5 -11.35 -7.55 -11.45 -7.5 -11.45 -7.5 -11.5 -8.0 -12.55 Q-8.35 -17.25 -8.25 -21.95 L-7.5 -22.25 -7.4 -22.3 -6.9 -22.7 -6.5 -23.05 -6.4 -23.1 Q-5.7 -24.6 -4.3 -25.45 -0.9 -28.1 3.2 -29.75 -1.25 -28.3 -5.15 -25.6 M3.25 -28.5 L5.85 -29.9 6.15 -30.05 6.2 -30.1 6.3 -30.15 Q2.0 -26.55 0.55 -21.15 L0.95 -19.15 Q2.05 -17.9 3.5 -17.05 4.0 -16.8 4.45 -16.5 L2.55 -17.1 -0.6 -18.9 -0.45 -18.7 Q-2.35 -19.5 -4.15 -20.6 L-4.65 -20.95 -4.7 -21.15 -3.6 -21.85 Q-1.85 -24.85 1.15 -27.0 L1.15 -27.05 3.25 -28.5 M-3.0 -17.85 Q0.3 -17.2 3.5 -16.15 L3.9 -16.0 3.4 -16.0 Q-0.8 -15.8 -1.6 -11.75 -1.85 -10.45 -0.95 -9.4 -1.75 -9.6 -2.4 -10.15 -3.4 -10.9 -4.35 -11.7 L-4.3 -12.05 Q-7.95 -15.4 -3.95 -17.65 -3.55 -17.9 -3.0 -17.85 M-8.25 -26.1 Q-8.6 -25.2 -8.2 -24.25 L-7.95 -23.75 -8.05 -23.75 -8.05 -23.7 -7.9 -23.6 -7.95 -23.5 -7.85 -23.5 -7.75 -23.6 -7.6 -23.7 -7.5 -23.7 -7.45 -23.85 -6.9 -24.25 -7.35 -23.5 -7.5 -23.3 -7.5 -23.2 Q-7.9 -22.65 -8.55 -22.6 -9.05 -23.15 -8.9 -23.9 L-9.05 -23.7 Q-8.9 -25.0 -8.3 -26.1 L-8.25 -26.1 M-1.9 -3.9 Q-2.95 -6.55 -3.65 -9.35 L-3.65 -9.6 -3.8 -9.65 -3.8 -9.75 -1.05 -8.7 -0.8 -8.7 -1.7 -7.75 Q-2.05 -5.8 -1.8 -3.75 L-1.9 -3.9 M-6.85 -13.4 Q-6.75 -13.4 -6.85 -13.4 M-1.95 -2.2 L-2.8 -2.05 -1.45 -2.15 -1.95 -2.2" fill="#663366" fill-rule="evenodd" stroke="none"/>
      <path d="M9.8 -34.55 L9.95 -34.05 Q7.9 -29.45 3.9 -26.0 2.9 -25.15 2.4 -23.95 -0.1 -18.15 6.3 -15.85 6.95 -15.6 7.6 -15.3 L7.6 -15.25 Q1.95 -17.2 -0.6 -12.75 -1.75 -10.85 -0.45 -9.05 L-0.4 -9.05 0.05 -8.7 Q-1.4 -7.75 -1.45 -6.05 -1.45 -5.85 -1.55 -5.8 L-1.55 -5.55 -1.45 -4.2 -1.4 -4.2 -1.35 -4.15 -1.45 -4.0 -1.4 -3.95 -1.45 -3.85 -1.25 -3.05 Q-0.85 -2.85 -0.5 -2.55 -0.2 -2.25 -0.05 -1.85 -0.05 -1.7 -0.1 -1.55 -0.3 0.75 -3.05 -0.35 -3.25 -0.45 -3.35 -0.6 L-3.6 -0.65 -3.65 -0.75 -3.85 -0.8 Q-5.5 -6.4 -8.55 -11.6 L-8.4 -11.55 -8.9 -12.6 -8.95 -12.65 Q-11.25 -20.0 -8.3 -26.7 -8.2 -26.9 -7.95 -27.15 L-7.25 -24.65 Q-0.15 -31.8 9.75 -34.55 L9.8 -34.55 M7.0 -31.95 L5.9 -31.6 6.8 -31.95 7.0 -31.95 M-6.35 -9.35 L-6.05 -8.55 -6.1 -8.4 -5.25 -6.5 Q-4.7 -4.9 -3.9 -3.4 L-3.5 -3.1 -3.5 -2.95 -3.3 -3.1 -3.25 -3.05 -3.25 -3.0 -3.6 -2.7 Q-3.25 -2.3 -3.35 -1.75 L-3.45 -1.65 -3.45 -1.55 Q-3.25 -1.35 -3.1 -1.1 -3.1 -1.05 -3.05 -1.05 L-1.95 -0.95 Q-1.35 -1.3 -0.6 -1.2 L-0.55 -1.35 -0.95 -1.75 -1.05 -2.25 -1.05 -2.35 -1.15 -2.6 -1.3 -2.6 -2.15 -3.05 -2.2 -3.15 -2.25 -3.2 -2.3 -3.2 -2.3 -3.15 Q-3.85 -6.35 -5.05 -9.65 L-5.2 -9.75 -5.2 -10.2 -5.1 -10.35 Q-3.1 -9.85 -1.15 -9.1 -1.55 -9.4 -2.0 -9.7 -4.45 -11.1 -6.45 -12.95 L-6.65 -13.8 -6.85 -14.45 Q-6.9 -14.85 -6.9 -15.25 -6.85 -17.65 -4.75 -18.5 -0.25 -17.6 4.25 -16.35 -0.85 -18.05 -5.7 -20.45 L-6.15 -21.45 -4.8 -23.2 -4.8 -23.35 Q-2.7 -25.8 0.05 -27.4 3.6 -29.45 7.3 -31.1 L7.5 -31.2 Q7.7 -31.35 7.8 -31.5 L8.0 -31.7 Q8.35 -32.15 8.65 -32.6 8.85 -33.0 8.6 -33.35 L1.5 -30.05 Q-2.3 -28.3 -5.5 -25.35 L-5.95 -24.95 -6.05 -24.9 -6.1 -24.85 -6.9 -24.25 -7.45 -23.85 -7.5 -23.7 -7.6 -23.7 -7.75 -23.6 -7.85 -23.5 -7.95 -23.5 -7.9 -23.6 Q-7.85 -24.75 -7.95 -26.0 L-8.05 -26.0 -8.25 -26.1 -8.3 -26.1 Q-8.9 -25.0 -9.05 -23.7 L-9.15 -23.05 -9.25 -22.7 -9.2 -22.65 Q-9.25 -22.6 -9.3 -22.55 -8.85 -17.5 -8.25 -12.55 L-8.3 -12.4 -8.2 -12.3 Q-7.75 -10.6 -6.35 -9.35 M2.55 -17.1 L4.45 -16.5 Q4.0 -16.8 3.5 -17.05 2.05 -17.9 0.95 -19.15 L0.55 -21.15 Q2.0 -26.55 6.3 -30.15 L6.2 -30.1 6.15 -30.05 5.85 -29.9 3.25 -28.5 Q-0.45 -26.85 -3.45 -23.95 -4.8 -22.65 -5.7 -21.1 L-5.3 -20.8 -5.45 -20.7 2.55 -17.1 M-4.35 -11.7 Q-3.4 -10.9 -2.4 -10.15 -1.75 -9.6 -0.95 -9.4 -1.85 -10.45 -1.6 -11.75 -0.8 -15.8 3.4 -16.0 L3.9 -16.0 3.5 -16.15 Q0.3 -17.2 -3.0 -17.85 -7.75 -18.1 -6.05 -13.35 L-6.0 -13.15 Q-5.3 -12.35 -4.35 -11.7 M-3.8 -9.75 L-4.45 -10.05 -4.55 -9.85 -2.05 -3.6 -2.05 -3.4 -1.8 -3.3 -1.9 -3.9 -1.8 -3.75 Q-2.05 -5.8 -1.7 -7.75 L-0.8 -8.7 -1.05 -8.7 -3.8 -9.75 M-6.85 -13.4 Q-6.75 -13.4 -6.85 -13.4 M-1.75 -3.2 L-1.75 -3.2 M-1.95 -2.2 L-1.45 -2.15 -2.8 -2.05 -1.95 -2.2 M-1.4 -0.65 L-0.85 -0.6 -0.8 -0.75 -1.4 -0.65" fill="#000000" fill-rule="evenodd" stroke="none"/>
      <path d="M7.0 -31.95 L6.8 -31.95 5.9 -31.6 7.0 -31.95 M7.8 -31.5 Q7.95 -31.7 7.95 -32.0 L7.95 -32.1 Q2.7 -30.6 -2.05 -27.75 -3.65 -26.8 -5.15 -25.6 L-5.5 -25.35 Q-2.3 -28.3 1.5 -30.05 L8.6 -33.35 Q8.85 -33.0 8.65 -32.6 8.35 -32.15 8.0 -31.7 L7.8 -31.5 M7.3 -31.1 L7.45 -31.2 7.5 -31.2 7.3 -31.1 M2.55 -17.1 L-5.45 -20.7 -5.3 -20.8 -5.7 -21.1 Q-4.8 -22.65 -3.45 -23.95 -0.45 -26.85 3.25 -28.5 L1.15 -27.05 1.15 -27.0 Q-1.85 -24.85 -3.6 -21.85 L-4.7 -21.15 -4.65 -20.95 -4.15 -20.6 Q-2.35 -19.5 -0.45 -18.7 L-0.6 -18.9 2.55 -17.1 M-4.35 -11.7 Q-5.3 -12.35 -6.0 -13.15 L-6.05 -13.35 Q-7.75 -18.1 -3.0 -17.85 -3.55 -17.9 -3.95 -17.65 -7.95 -15.4 -4.3 -12.05 L-4.35 -11.7 M-8.25 -26.1 L-8.05 -26.0 -7.95 -26.0 Q-7.85 -24.75 -7.9 -23.6 L-8.05 -23.7 -8.05 -23.75 -7.95 -23.75 -8.2 -24.25 Q-8.6 -25.2 -8.25 -26.1 M-3.8 -9.75 L-3.8 -9.65 -3.65 -9.6 -3.65 -9.35 Q-2.95 -6.55 -1.9 -3.9 L-1.8 -3.3 -2.05 -3.4 -2.05 -3.6 -4.55 -9.85 -4.45 -10.05 -3.8 -9.75 M-1.75 -3.2 L-1.75 -3.2" fill="#660033" fill-rule="evenodd" stroke="none"/>
    </g>
  </defs>
</svg>
