<?xml version="1.0" encoding="UTF-8" standalone="no"?>
<svg xmlns:ffdec="https://www.free-decompiler.com/flash" xmlns:xlink="http://www.w3.org/1999/xlink" ffdec:objectType="frame" height="319.9px" width="294.0px" xmlns="http://www.w3.org/2000/svg">
  <g transform="matrix(1.0, 0.0, 0.0, 1.0, 155.4, 171.85)">
    <use ffdec:characterId="494" height="45.7" transform="matrix(7.0, 0.0, 0.0, 7.0, -155.4, -171.85)" width="42.0" xlink:href="#shape0"/>
  </g>
  <defs>
    <g id="shape0" transform="matrix(1.0, 0.0, 0.0, 1.0, 22.2, 24.55)">
      <path d="M18.55 -14.55 L18.4 -14.55 Q17.7 -14.55 16.45 -14.2 L14.4 -13.6 Q13.9 -13.4 12.5 -12.75 11.3 -12.15 11.15 -12.15 L10.9 -12.2 10.85 -12.25 10.85 -12.5 11.55 -13.65 Q12.35 -15.0 12.75 -15.8 L12.65 -15.85 Q11.4 -15.8 10.3 -15.4 L8.65 -14.7 Q8.2 -14.55 7.05 -13.85 L6.35 -13.4 6.15 -13.1 Q5.85 -12.8 5.65 -12.8 L5.45 -12.8 5.4 -12.9 6.1 -15.6 6.35 -16.65 6.3 -16.85 Q6.3 -17.5 6.3 -17.85 6.35 -17.9 6.3 -17.95 5.35 -17.6 3.9 -15.95 L2.6 -14.4 2.35 -14.4 2.35 -14.5 Q2.3 -14.5 2.3 -14.65 2.3 -14.75 2.4 -15.25 L2.5 -15.8 Q2.5 -16.5 2.35 -17.5 L2.2 -18.5 Q2.2 -18.6 2.05 -19.0 L1.85 -19.4 Q1.25 -18.6 0.5 -17.0 L-0.15 -15.65 Q-0.35 -15.65 -0.75 -16.4 L-1.65 -18.25 Q-3.25 -21.25 -5.25 -22.55 -5.35 -21.65 -5.35 -21.1 -5.35 -20.4 -5.4 -19.7 -5.5 -18.45 -5.75 -18.45 L-7.35 -20.8 Q-9.1 -23.25 -9.7 -23.75 -10.8 -18.8 -10.8 -16.0 -10.8 -15.7 -10.45 -13.8 L-10.25 -12.8 -10.0 -11.6 Q-9.85 -10.85 -9.2 -8.9 -8.55 -7.15 -8.55 -6.95 L-8.05 -5.8 -7.5 -4.65 Q-7.5 -4.55 -7.15 -3.75 L-6.75 -2.9 -6.3 -1.95 -5.9 -1.15 -5.9 -1.4 Q-5.8 -2.15 -5.8 -2.3 L-5.95 -2.9 -6.05 -3.35 -6.05 -3.65 -6.0 -4.5 -5.95 -5.05 -5.95 -5.4 Q-5.95 -6.45 -5.6 -8.0 L-5.3 -9.4 Q-5.3 -10.25 -4.35 -11.65 -3.3 -13.1 -2.35 -13.15 0.8 -13.4 2.6 -11.5 3.3 -10.8 3.65 -9.95 4.0 -9.2 4.0 -8.65 4.0 -8.35 3.85 -7.9 3.65 -7.45 3.65 -7.2 3.65 -6.7 2.75 -5.55 1.8 -4.35 0.4 -3.15 L0.15 -2.9 Q-0.65 -2.2 -1.4 -1.7 L-1.2 -1.75 0.3 -2.1 1.5 -2.4 3.2 -2.85 Q8.9 -4.35 11.5 -5.65 14.55 -7.2 16.45 -9.6 18.3 -11.85 18.85 -14.55 L18.7 -14.5 18.55 -14.55 M13.4 -16.4 Q13.65 -16.3 13.65 -16.05 13.65 -15.9 13.1 -14.9 12.5 -13.8 12.2 -13.45 16.15 -14.8 17.1 -15.05 19.8 -15.75 19.8 -14.8 19.8 -14.3 18.55 -12.1 17.5 -10.2 17.25 -9.9 16.1 -8.4 15.4 -7.65 14.25 -6.4 12.85 -5.6 11.7 -4.95 10.1 -4.35 L9.85 -2.5 Q9.6 -0.55 9.6 -0.35 L9.6 0.45 9.5 1.05 Q9.4 1.7 9.3 2.1 L9.2 2.3 Q8.9 4.2 8.45 5.2 8.05 6.2 7.4 6.9 6.95 7.55 5.1 9.6 L4.05 10.7 4.0 10.75 3.15 11.7 2.95 11.95 Q1.9 12.75 0.55 14.6 -0.45 16.0 -1.2 17.4 -1.6 18.05 -1.9 18.75 -2.45 20.05 -2.75 21.15 -3.05 21.15 -3.4 20.9 -5.8 20.3 -8.8 17.75 -10.75 16.15 -12.15 14.5 L-12.85 14.7 Q-13.5 14.9 -14.0 14.9 -15.2 14.9 -17.95 14.15 -20.7 13.4 -21.6 13.4 L-22.2 13.3 -21.25 11.15 -19.9 8.2 -19.55 7.25 Q-19.3 6.7 -19.05 6.2 L-18.75 5.3 -18.7 5.1 -18.7 5.0 -18.4 4.05 -18.3 3.6 -18.25 3.15 -18.15 3.15 -18.1 2.85 -17.95 2.35 Q-17.3 0.1 -17.3 -0.05 -17.3 -0.45 -16.3 -2.95 L-15.85 -4.2 -15.7 -4.5 -15.15 -6.0 Q-15.1 -6.25 -14.9 -6.5 -14.65 -6.9 -14.15 -7.3 L-13.1 -8.05 -13.05 -8.05 -11.9 -9.0 Q-10.8 -9.85 -10.2 -10.05 -10.9 -12.5 -10.9 -13.05 -10.9 -13.4 -11.15 -14.55 -11.4 -15.7 -11.4 -16.15 L-11.3 -17.75 Q-11.25 -18.25 -11.35 -19.35 -11.35 -19.75 -10.75 -22.05 -10.1 -24.55 -9.8 -24.55 -9.2 -24.55 -7.8 -22.6 -6.55 -20.95 -6.0 -19.8 -6.0 -20.2 -6.0 -20.6 L-5.85 -23.25 Q-5.85 -23.95 -4.1 -22.4 -2.65 -21.2 -2.15 -20.55 -1.65 -19.8 -1.1 -18.8 L-0.2 -17.0 Q0.1 -17.75 0.85 -18.95 1.65 -20.2 1.8 -20.2 2.45 -20.2 2.75 -18.8 L3.0 -17.35 3.05 -16.05 4.25 -17.35 Q5.25 -18.3 6.1 -18.5 L6.2 -18.6 Q7.2 -19.25 7.2 -18.15 7.2 -17.95 7.05 -17.25 6.9 -16.6 6.9 -16.4 6.9 -16.25 6.75 -15.75 L6.6 -15.1 6.35 -14.45 6.15 -13.8 6.55 -14.1 Q7.3 -14.65 8.3 -15.15 10.85 -16.4 12.9 -16.4 L13.4 -16.4 M3.15 -8.9 Q3.15 -10.05 2.1 -11.0 1.1 -11.85 -0.3 -12.2 -1.75 -12.55 -2.8 -12.1 -4.05 -11.6 -4.3 -10.25 -5.0 -8.2 -5.15 -6.9 -5.25 -6.25 -5.25 -4.8 L-5.25 -3.05 -5.2 -2.55 Q-5.2 -1.45 -5.15 -0.9 -3.85 -1.1 -2.4 -2.05 -1.6 -2.55 -0.75 -3.25 -0.35 -3.55 0.1 -3.95 1.25 -5.0 2.05 -6.0 2.85 -7.0 2.85 -7.4 L3.0 -8.1 Q3.15 -8.75 3.15 -8.9 M-4.15 -0.25 L-4.35 -0.25 Q-4.9 -0.1 -5.4 -0.1 L-5.55 -0.1 -5.8 0.3 -6.3 1.05 Q-7.05 2.25 -7.55 3.3 -7.25 2.95 -6.75 2.55 L-6.55 2.45 Q-5.5 1.7 -3.8 1.0 -1.55 0.1 0.8 -0.3 2.65 -0.6 4.55 -0.6 L6.7 -0.45 Q7.8 -0.45 8.65 0.0 L8.7 0.0 8.75 -0.2 8.75 -0.3 8.85 -0.25 8.85 -0.8 Q8.85 -1.2 8.9 -1.3 L9.0 -1.55 9.1 -3.45 Q9.1 -3.75 9.15 -4.0 7.2 -3.3 4.65 -2.7 L2.65 -2.0 1.4 -1.6 0.65 -1.35 0.05 -1.2 -1.5 -0.7 -1.55 -0.7 -2.0 -0.6 -2.2 -0.55 Q-3.45 -0.25 -4.1 -0.25 L-4.15 -0.25 M4.4 -0.1 L4.35 -0.1 4.05 -0.15 3.6 -0.15 3.25 -0.15 0.75 0.0 Q-1.7 0.4 -4.25 1.5 -5.8 2.2 -6.8 2.95 -7.4 3.4 -7.65 3.75 -7.75 3.9 -7.8 4.0 L-7.8 4.15 -7.85 4.15 -7.95 4.45 Q-7.65 4.15 -7.15 3.85 -6.3 3.4 -4.4 2.9 -3.25 2.6 -1.8 2.3 -0.6 2.05 0.35 1.95 L2.55 1.8 Q4.15 1.85 5.75 2.05 7.6 2.35 8.35 2.75 8.45 2.25 8.5 1.8 L8.55 1.35 8.55 0.85 8.25 0.65 Q7.3 0.15 6.45 0.05 L4.55 -0.1 4.4 -0.1 M-1.35 5.65 L0.3 5.75 Q1.75 5.75 3.95 6.6 5.3 7.15 5.75 7.5 L6.7 6.55 7.35 5.35 Q7.85 4.45 8.1 3.6 7.3 3.3 6.35 3.0 3.85 2.25 2.5 2.25 L0.2 2.35 Q-2.1 2.6 -4.4 3.25 -5.95 3.7 -6.85 4.2 -7.9 4.75 -8.2 5.3 L-8.35 5.75 -8.45 6.0 -8.5 6.2 -8.45 6.2 -8.05 6.1 -7.4 5.95 -6.75 5.85 Q-4.75 5.55 -2.65 5.55 L-2.5 5.55 -1.4 5.65 -1.35 5.65 M0.1 6.2 L0.05 6.15 -0.8 6.1 -1.5 6.0 -2.0 5.95 -3.05 5.9 -3.85 5.85 Q-7.2 5.85 -8.65 6.8 L-8.85 7.45 -8.9 7.55 -8.9 7.65 -8.95 7.75 -8.9 7.7 -8.9 7.75 -8.7 7.65 -8.05 7.4 -8.0 7.4 Q-7.0 7.15 -5.6 7.15 L-5.35 7.15 -5.3 7.15 -2.3 7.6 -1.35 7.75 Q-0.35 7.75 1.6 8.7 2.9 9.35 3.4 9.9 4.1 9.1 5.0 8.25 L5.3 7.95 5.15 7.8 Q4.65 7.4 3.95 7.25 L2.8 6.8 Q1.6 6.35 1.25 6.35 L0.65 6.25 0.6 6.25 0.4 6.2 0.1 6.2 M-5.6 15.15 L-5.55 15.3 -4.65 14.35 -4.15 13.75 -3.4 12.9 -2.75 12.15 Q-2.55 12.35 -2.55 12.6 -2.55 12.75 -2.6 13.0 L-2.45 14.15 -2.25 15.45 -2.25 15.65 -2.15 15.75 Q-1.3 14.55 -0.9 14.1 -0.35 13.45 0.25 13.05 L0.65 12.75 0.65 12.85 0.7 13.05 0.7 13.2 0.65 13.35 1.0 12.9 Q1.5 12.15 2.15 11.35 L2.25 11.25 2.35 11.1 2.4 11.05 2.85 10.5 2.75 10.45 2.4 9.9 Q1.75 9.35 -0.5 8.6 -1.55 8.2 -2.45 8.0 -3.25 7.8 -4.0 7.7 L-5.35 7.55 -5.6 7.55 Q-6.4 7.55 -7.5 7.8 -8.0 7.9 -8.3 8.05 -8.9 8.2 -9.1 8.45 L-9.1 8.55 Q-9.1 8.85 -9.55 10.0 L-9.65 10.25 -9.65 10.4 Q-9.65 10.7 -9.75 10.95 L-9.9 11.35 -9.8 12.35 -9.75 13.4 -9.75 13.55 -9.75 13.65 -9.7 13.8 Q-9.25 13.0 -8.25 11.85 L-8.1 11.7 Q-7.05 10.6 -6.9 10.6 L-6.85 10.8 Q-6.7 11.15 -6.4 12.25 L-6.25 12.9 -6.0 13.9 -5.75 14.8 -5.6 15.15 M-11.95 -7.9 L-12.6 -7.45 -12.95 -7.25 -13.2 -7.0 -13.35 -6.8 -13.5 -6.65 -13.55 -6.6 -13.4 -6.5 -13.35 -6.5 Q-12.1 -5.95 -11.75 -5.05 -11.5 -4.4 -10.95 -3.6 L-10.2 -2.35 Q-9.6 -1.4 -8.8 0.15 -7.95 1.8 -7.65 2.6 L-7.6 2.45 Q-7.4 1.9 -7.15 1.5 L-6.0 -0.35 Q-6.1 -0.4 -6.7 -1.6 L-6.75 -1.65 -7.25 -2.7 -7.35 -2.85 -7.9 -4.0 -8.85 -6.1 -9.25 -7.0 Q-9.45 -7.45 -10.0 -9.35 L-11.35 -8.35 -11.35 -8.3 -11.95 -7.9 M-9.1 0.25 Q-9.65 -0.95 -10.2 -1.95 -12.3 -5.85 -14.05 -6.05 -14.55 -5.45 -14.95 -4.85 L-14.95 -4.8 -15.0 -4.55 -15.05 -4.5 -15.05 -4.45 -14.9 -4.4 -14.6 -4.2 Q-13.55 -3.45 -11.95 -1.65 -10.4 0.15 -9.3 1.95 -8.45 3.3 -8.2 4.2 L-7.95 3.35 Q-8.15 2.5 -8.65 1.3 L-9.1 0.25 M-8.85 4.05 L-9.25 3.2 Q-10.25 1.0 -10.55 0.55 -12.55 -2.35 -14.4 -3.5 -14.85 -3.75 -15.2 -3.95 L-15.8 -2.2 -16.45 -0.05 -16.45 0.0 -16.5 0.2 -16.15 0.3 -12.2 3.1 Q-9.8 5.2 -8.9 6.3 L-8.85 6.15 -8.95 6.1 -8.9 5.95 -8.8 5.75 -8.45 4.9 -8.45 4.85 -8.8 4.1 -8.85 4.05 M-16.75 2.95 L-16.3 3.1 Q-15.15 3.45 -13.45 4.45 -11.8 5.45 -10.6 6.45 -9.8 7.15 -9.5 7.65 L-9.5 7.6 -9.45 7.55 -9.4 7.35 -9.15 6.85 -9.2 6.75 Q-9.2 6.65 -9.05 6.5 L-10.4 4.95 Q-10.75 4.55 -11.1 4.2 -11.85 3.45 -12.7 2.8 -13.95 1.85 -15.8 1.1 L-16.65 0.75 -17.05 2.25 -17.1 2.55 -17.15 2.75 -17.2 2.95 -16.75 2.95 M-13.05 12.6 L-13.05 12.75 Q-11.3 11.1 -10.55 10.5 L-10.0 8.95 -9.65 8.05 -10.0 7.7 -10.25 7.5 Q-11.15 6.65 -12.1 5.9 -15.0 3.6 -16.8 3.6 L-17.35 3.55 -17.5 3.95 -17.6 4.35 -18.05 6.05 -18.2 6.5 Q-18.35 6.95 -18.6 7.5 L-18.65 7.9 Q-18.65 8.05 -18.9 8.65 L-18.6 8.5 Q-16.75 7.75 -16.5 7.6 L-16.35 7.55 -16.35 7.7 Q-16.35 8.15 -16.8 8.95 L-17.55 10.0 -17.55 10.05 Q-16.75 9.85 -14.9 9.1 -13.2 8.4 -13.05 8.4 L-12.85 8.4 -12.75 8.5 -12.75 8.65 -13.05 9.9 Q-13.4 11.2 -13.4 11.5 -13.4 11.8 -13.3 12.05 -13.15 12.35 -13.05 12.6 M-11.1 11.85 L-12.85 13.3 -13.15 13.5 -13.4 13.1 -13.7 12.65 Q-13.95 12.35 -13.95 11.9 L-13.65 10.6 -13.25 8.9 Q-14.2 9.4 -15.55 10.0 -17.2 10.7 -17.6 10.7 -18.1 10.7 -18.1 10.35 -18.1 10.2 -17.5 9.3 -16.8 8.35 -16.7 8.05 L-16.7 8.0 Q-17.35 8.5 -18.3 9.05 -18.85 9.35 -19.45 9.65 L-19.85 10.8 -20.0 11.25 Q-20.5 12.5 -20.85 12.95 -20.15 13.2 -19.25 13.4 -18.05 13.7 -17.65 13.7 L-13.95 14.1 Q-12.6 14.1 -12.05 13.55 L-12.0 13.5 Q-11.75 13.3 -11.6 12.95 L-11.35 12.3 -11.1 11.85 M-11.15 13.9 Q-11.25 14.2 -11.25 14.35 -10.35 15.8 -8.75 17.25 -6.2 19.55 -3.4 20.0 L-3.35 19.9 Q-3.05 19.5 -3.05 19.35 -3.05 18.55 -2.15 17.1 -1.7 16.35 -1.05 15.45 L-0.05 14.2 -0.05 13.85 Q-0.2 14.05 -1.2 15.4 -2.05 16.55 -2.25 16.55 -2.45 16.55 -2.5 15.95 L-2.55 15.3 Q-2.55 15.2 -2.6 14.8 L-2.7 14.35 Q-2.7 14.2 -2.8 13.65 -2.9 13.15 -2.95 12.95 L-2.95 12.9 Q-3.35 13.6 -4.35 14.85 -5.0 15.7 -5.3 15.95 L-5.5 16.1 Q-5.75 16.1 -5.8 15.95 L-5.85 15.75 Q-5.85 15.65 -6.0 15.15 -6.15 14.7 -6.15 14.6 -6.15 14.0 -6.55 12.8 L-7.1 11.1 Q-7.65 11.55 -8.7 13.05 L-9.65 14.4 -9.65 14.45 Q-9.75 14.45 -9.85 14.35 -10.05 14.1 -10.05 13.1 -10.05 11.85 -10.1 11.3 L-10.6 12.45 Q-11.0 13.4 -11.15 13.9" fill="#111111" fill-rule="evenodd" stroke="none"/>
      <path d="M-10.25 -12.8 L-8.55 -8.65 -7.05 -5.6 Q-7.25 -6.5 -7.25 -6.75 -7.25 -9.45 -6.35 -11.5 -5.0 -14.65 -2.05 -14.65 L-0.95 -14.6 Q-0.35 -14.5 0.85 -14.25 3.75 -14.1 5.05 -11.5 5.8 -10.0 5.8 -8.4 5.8 -7.65 4.8 -6.35 3.8 -4.95 2.3 -3.65 L1.85 -3.25 Q3.65 -3.95 5.0 -4.25 6.5 -4.55 8.85 -5.5 11.25 -6.45 12.8 -7.4 14.35 -8.4 15.6 -9.75 16.35 -10.6 17.4 -12.15 L17.9 -13.25 Q18.25 -14.0 18.55 -14.55 L18.7 -14.5 18.85 -14.55 Q18.3 -11.85 16.45 -9.6 14.55 -7.2 11.5 -5.65 8.9 -4.35 3.2 -2.85 L1.5 -2.4 0.3 -2.1 -1.2 -1.75 -1.4 -1.7 Q-0.65 -2.2 0.15 -2.9 L0.4 -3.15 Q1.8 -4.35 2.75 -5.55 3.65 -6.7 3.65 -7.2 3.65 -7.45 3.85 -7.9 4.0 -8.35 4.0 -8.65 4.0 -9.2 3.65 -9.95 3.3 -10.8 2.6 -11.5 0.8 -13.4 -2.35 -13.15 -3.3 -13.1 -4.35 -11.65 -5.3 -10.25 -5.3 -9.4 L-5.6 -8.0 Q-5.95 -6.45 -5.95 -5.4 L-5.95 -5.05 -6.0 -4.5 -6.05 -3.65 -6.05 -3.35 -5.95 -2.9 -5.8 -2.3 Q-5.8 -2.15 -5.9 -1.4 L-5.9 -1.15 -6.3 -1.95 -6.75 -2.9 -7.15 -3.75 Q-7.5 -4.55 -7.5 -4.65 L-8.05 -5.8 -8.55 -6.95 Q-8.55 -7.15 -9.2 -8.9 -9.85 -10.85 -10.0 -11.6 L-10.25 -12.8 M-4.15 -0.25 L-4.6 -0.15 -5.7 1.35 -6.0 1.7 -5.9 1.65 Q-5.05 1.05 -4.5 0.9 -3.8 0.45 -2.3 0.05 -0.75 -0.35 0.8 -0.45 L0.85 -0.6 0.95 -0.6 -0.1 -0.65 -1.45 -0.6 -2.2 -0.55 -2.0 -0.6 -1.55 -0.7 -1.5 -0.7 0.05 -1.2 0.65 -1.35 1.4 -1.6 2.65 -2.0 4.65 -2.7 Q7.2 -3.3 9.15 -4.0 9.1 -3.75 9.1 -3.45 L9.0 -1.55 8.9 -1.3 Q8.85 -1.2 8.85 -0.8 L8.85 -0.25 8.75 -0.3 8.75 -0.2 8.7 0.0 8.65 0.0 Q7.8 -0.45 6.7 -0.45 L4.55 -0.6 Q2.65 -0.6 0.8 -0.3 -1.55 0.1 -3.8 1.0 -5.5 1.7 -6.55 2.45 L-6.75 2.55 Q-7.25 2.95 -7.55 3.3 -7.05 2.25 -6.3 1.05 L-5.8 0.3 -5.45 -0.05 -5.55 -0.1 -5.4 -0.1 Q-4.9 -0.1 -4.35 -0.25 L-4.15 -0.25 M0.2 2.35 L2.5 2.25 Q3.85 2.25 6.35 3.0 7.3 3.3 8.1 3.6 7.85 4.45 7.35 5.35 L6.7 6.55 5.75 7.5 Q5.3 7.15 3.95 6.6 1.75 5.75 0.3 5.75 L-1.35 5.65 -0.6 4.1 Q-0.15 3.1 0.2 2.35 M-1.4 5.65 L-2.5 5.55 -2.65 5.55 Q-4.75 5.55 -6.75 5.85 L-7.4 5.95 -7.85 6.0 -7.8 5.85 -7.9 6.05 -8.05 6.1 -8.45 6.2 -8.45 6.0 -8.35 5.75 -8.2 5.3 Q-7.9 4.75 -6.85 4.2 -7.15 4.6 -7.45 5.2 L-7.55 5.45 Q-6.35 5.15 -4.2 5.25 -2.55 5.35 -1.4 5.65 M-5.3 7.15 L-5.35 7.15 -5.3 7.0 -5.25 7.05 -5.3 7.15 M-2.45 8.0 Q-1.55 8.2 -0.5 8.6 1.75 9.35 2.4 9.9 L2.75 10.45 2.85 10.5 2.4 11.05 2.35 11.1 2.25 11.25 2.15 11.35 Q1.5 12.15 1.0 12.9 L0.65 13.35 0.7 13.2 0.7 13.05 0.65 12.85 0.65 12.75 0.25 13.05 Q-0.35 13.45 -0.9 14.1 -1.3 14.55 -2.15 15.75 L-2.25 15.65 -2.25 15.45 -2.45 14.15 -2.6 13.0 Q-2.55 12.75 -2.55 12.6 -2.55 12.35 -2.75 12.15 L-3.4 12.9 -4.15 13.75 -4.65 14.35 -5.55 15.3 -5.6 15.15 Q-5.15 13.8 -4.0 11.25 L-2.45 8.0 M-6.25 12.9 L-6.4 12.25 Q-6.7 11.15 -6.85 10.8 L-6.9 10.6 Q-7.05 10.6 -8.1 11.7 L-8.25 11.85 Q-9.25 13.0 -9.7 13.8 L-9.75 13.65 -9.75 13.55 Q-9.2 12.55 -8.45 11.45 -7.6 10.2 -6.45 8.7 L-5.6 7.55 -5.35 7.55 Q-5.5 8.45 -5.8 9.3 -6.05 10.15 -6.05 11.25 L-6.15 12.0 -6.2 12.75 -6.25 12.9 M-9.8 12.35 L-9.9 11.35 -9.75 10.95 Q-9.65 10.7 -9.65 10.4 L-9.65 10.25 -9.55 10.0 Q-9.1 8.85 -9.1 8.55 L-9.1 8.45 Q-8.9 8.2 -8.3 8.05 -9.0 10.5 -9.8 12.35 M-13.35 -6.8 Q-12.15 -6.65 -9.8 -2.2 -9.1 -0.8 -8.35 0.8 L-8.25 0.75 -8.25 0.65 Q-8.2 0.6 -8.1 0.55 L-8.05 0.6 -7.75 0.4 -7.2 0.1 Q-7.05 -0.25 -6.95 -0.7 -6.85 -1.2 -6.7 -1.6 -6.1 -0.4 -6.0 -0.35 L-7.15 1.5 Q-7.4 1.9 -7.6 2.45 L-7.65 2.6 Q-7.95 1.8 -8.8 0.15 -9.6 -1.4 -10.2 -2.35 L-10.95 -3.6 Q-11.5 -4.4 -11.75 -5.05 -12.1 -5.95 -13.35 -6.5 L-13.5 -6.65 -13.35 -6.8 M-6.75 -1.65 Q-7.1 -2.05 -7.6 -2.7 L-8.75 -4.3 -9.3 -5.05 Q-10.0 -6.0 -10.75 -6.75 -11.35 -7.4 -11.95 -7.9 L-11.35 -8.3 -11.35 -8.35 -10.0 -9.35 Q-9.45 -7.45 -9.25 -7.0 L-8.85 -6.1 -7.9 -4.0 -7.35 -2.85 -7.25 -2.7 -6.75 -1.65 M-16.15 0.3 L-16.25 0.25 -16.5 0.15 -16.45 0.1 Q-14.25 0.6 -11.8 2.75 -10.1 4.25 -8.9 5.95 L-8.95 6.1 -8.85 6.15 -8.9 6.3 Q-9.8 5.2 -12.2 3.1 L-16.15 0.3 M-8.8 5.75 L-8.8 5.8 -8.9 5.9 Q-9.4 5.25 -9.95 4.6 L-9.85 4.6 Q-9.75 4.6 -9.65 4.65 -9.55 4.75 -9.45 4.75 -9.4 4.75 -9.2 4.45 L-8.85 4.05 -8.8 4.1 -8.45 4.85 -8.45 4.9 -8.8 5.75 M-5.0 1.4 Q-5.3 1.45 -5.45 1.6 -5.05 1.45 -4.95 1.4 L-5.0 1.4 M-7.75 1.25 L-7.75 1.25 M-10.0 7.7 L-9.65 8.05 -10.0 8.95 -10.55 10.5 Q-11.3 11.1 -13.05 12.75 L-13.05 12.6 -12.55 12.05 Q-11.5 10.9 -11.25 10.45 -11.05 10.1 -10.55 8.75 -10.3 8.15 -10.0 7.7 M-11.15 13.9 Q-11.0 13.4 -10.6 12.45 L-10.1 11.3 Q-10.05 11.85 -10.05 13.1 -10.05 14.1 -9.85 14.35 -9.75 14.45 -9.65 14.45 L-9.65 14.4 -8.7 13.05 Q-7.65 11.55 -7.1 11.1 L-6.55 12.8 Q-6.15 14.0 -6.15 14.6 -6.15 14.7 -6.0 15.15 -5.85 15.65 -5.85 15.75 L-5.8 15.95 Q-5.75 16.1 -5.5 16.1 L-5.3 15.95 Q-5.0 15.7 -4.35 14.85 -3.35 13.6 -2.95 12.9 L-2.95 12.95 Q-2.9 13.15 -2.8 13.65 -2.7 14.2 -2.7 14.35 L-2.6 14.8 Q-2.55 15.2 -2.55 15.3 L-2.5 15.95 Q-2.45 16.55 -2.25 16.55 -2.05 16.55 -1.2 15.4 -0.2 14.05 -0.05 13.85 L-0.05 14.2 -1.05 15.45 Q-1.7 16.35 -2.15 17.1 -3.05 18.55 -3.05 19.35 -3.05 19.5 -3.35 19.9 L-3.4 20.0 Q-6.2 19.55 -8.75 17.25 -10.35 15.8 -11.25 14.35 -11.25 14.2 -11.15 13.9 M-11.1 11.85 L-11.35 12.3 -11.6 12.95 Q-11.75 13.3 -12.0 13.5 L-12.05 13.55 Q-12.6 14.1 -13.95 14.1 L-17.65 13.7 Q-18.05 13.7 -19.25 13.4 -20.15 13.2 -20.85 12.95 -20.5 12.5 -20.0 11.25 L-19.85 10.8 -19.45 9.65 Q-18.85 9.35 -18.3 9.05 -17.35 8.5 -16.7 8.0 L-16.7 8.05 Q-16.8 8.35 -17.5 9.3 -18.1 10.2 -18.1 10.35 -18.1 10.7 -17.6 10.7 -17.2 10.7 -15.55 10.0 -14.2 9.4 -13.25 8.9 L-13.65 10.6 -13.95 11.9 Q-13.95 12.35 -13.7 12.65 L-13.4 13.1 -13.15 13.5 -12.85 13.3 -11.1 11.85" fill="#0070e0" fill-rule="evenodd" stroke="none"/>
      <path d="M-10.25 -12.8 L-10.45 -13.8 Q-10.8 -15.7 -10.8 -16.0 -10.8 -18.8 -9.7 -23.75 -9.1 -23.25 -7.35 -20.8 L-5.75 -18.45 Q-5.5 -18.45 -5.4 -19.7 -5.35 -20.4 -5.35 -21.1 -5.35 -21.65 -5.25 -22.55 -3.25 -21.25 -1.65 -18.25 L-0.75 -16.4 Q-0.35 -15.65 -0.15 -15.65 L0.5 -17.0 Q1.25 -18.6 1.85 -19.4 L2.05 -19.0 Q2.2 -18.6 2.2 -18.5 L2.35 -17.5 Q2.5 -16.5 2.5 -15.8 L2.4 -15.25 Q2.3 -14.75 2.3 -14.65 2.3 -14.5 2.35 -14.5 L2.35 -14.4 2.6 -14.4 3.9 -15.95 Q5.35 -17.6 6.3 -17.95 6.35 -17.9 6.3 -17.85 6.3 -17.5 6.3 -16.85 L6.35 -16.65 6.1 -15.6 5.4 -12.9 5.45 -12.8 5.65 -12.8 Q5.85 -12.8 6.15 -13.1 L6.35 -13.4 7.05 -13.85 Q8.2 -14.55 8.65 -14.7 L10.3 -15.4 Q11.4 -15.8 12.65 -15.85 L12.75 -15.8 Q12.35 -15.0 11.55 -13.65 L10.85 -12.5 10.85 -12.25 10.9 -12.2 11.15 -12.15 Q11.3 -12.15 12.5 -12.75 13.9 -13.4 14.4 -13.6 L16.45 -14.2 Q17.7 -14.55 18.4 -14.55 L18.55 -14.55 Q18.25 -14.0 17.9 -13.25 L17.4 -12.15 Q16.35 -10.6 15.6 -9.75 14.35 -8.4 12.8 -7.4 11.25 -6.45 8.85 -5.5 6.5 -4.55 5.0 -4.25 3.65 -3.95 1.85 -3.25 L2.3 -3.65 Q3.8 -4.95 4.8 -6.35 5.8 -7.65 5.8 -8.4 5.8 -10.0 5.05 -11.5 3.75 -14.1 0.85 -14.25 -0.35 -14.5 -0.95 -14.6 L-2.05 -14.65 Q-5.0 -14.65 -6.35 -11.5 -7.25 -9.45 -7.25 -6.75 -7.25 -6.5 -7.05 -5.6 L-8.55 -8.65 -10.25 -12.8 M-2.2 -0.55 L-1.45 -0.6 -0.1 -0.65 0.95 -0.6 0.85 -0.6 0.8 -0.45 Q-0.75 -0.35 -2.3 0.05 -3.8 0.45 -4.5 0.9 -5.05 1.05 -5.9 1.65 L-6.0 1.7 -5.7 1.35 -4.6 -0.15 -4.15 -0.25 -4.1 -0.25 Q-3.45 -0.25 -2.2 -0.55 M-5.55 -0.1 L-5.45 -0.05 -5.8 0.3 -5.55 -0.1 M0.2 2.35 Q-0.15 3.1 -0.6 4.1 L-1.35 5.65 -1.4 5.65 Q-2.55 5.35 -4.2 5.25 -6.35 5.15 -7.55 5.45 L-7.45 5.2 Q-7.15 4.6 -6.85 4.2 -5.95 3.7 -4.4 3.25 -2.1 2.6 0.2 2.35 M-7.4 5.95 L-8.05 6.1 -7.9 6.05 -7.8 5.85 -7.85 6.0 -7.4 5.95 M-8.45 6.2 L-8.5 6.2 -8.45 6.0 -8.45 6.2 M-2.45 8.0 L-4.0 11.25 Q-5.15 13.8 -5.6 15.15 L-5.75 14.8 -6.0 13.9 -6.25 12.9 -6.2 12.75 -6.15 12.0 -6.05 11.25 Q-6.05 10.15 -5.8 9.3 -5.5 8.45 -5.35 7.55 L-4.0 7.7 Q-3.25 7.8 -2.45 8.0 M-9.75 13.55 L-9.75 13.4 -9.8 12.35 Q-9.0 10.5 -8.3 8.05 -8.0 7.9 -7.5 7.8 -6.4 7.55 -5.6 7.55 L-6.45 8.7 Q-7.6 10.2 -8.45 11.45 -9.2 12.55 -9.75 13.55 M-13.35 -6.8 L-13.2 -7.0 -12.95 -7.25 -12.6 -7.45 -11.95 -7.9 Q-11.35 -7.4 -10.75 -6.75 -10.0 -6.0 -9.3 -5.05 L-8.75 -4.3 -7.6 -2.7 Q-7.1 -2.05 -6.75 -1.65 L-6.7 -1.6 Q-6.85 -1.2 -6.95 -0.7 -7.05 -0.25 -7.2 0.1 L-7.75 0.4 -8.05 0.6 -8.1 0.55 Q-8.2 0.6 -8.25 0.65 L-8.25 0.75 -8.35 0.8 Q-9.1 -0.8 -9.8 -2.2 -12.15 -6.65 -13.35 -6.8 M-13.5 -6.65 L-13.35 -6.5 -13.4 -6.5 -13.55 -6.6 -13.5 -6.65 M-16.15 0.3 L-16.5 0.2 -16.45 0.0 -16.45 -0.05 -15.8 -2.2 -15.2 -3.95 Q-14.85 -3.75 -14.4 -3.5 -12.55 -2.35 -10.55 0.55 -10.25 1.0 -9.25 3.2 L-8.85 4.05 -9.2 4.45 Q-9.4 4.75 -9.45 4.75 -9.55 4.75 -9.65 4.65 -9.75 4.6 -9.85 4.6 L-9.95 4.6 Q-9.4 5.25 -8.9 5.9 L-8.8 5.8 -8.8 5.75 -8.9 5.95 Q-10.1 4.25 -11.8 2.75 -14.25 0.6 -16.45 0.1 L-16.5 0.15 -16.25 0.25 -16.15 0.3 M-5.0 1.4 L-4.95 1.4 Q-5.05 1.45 -5.45 1.6 -5.3 1.45 -5.0 1.4 M-7.75 1.25 L-7.75 1.25 M-10.0 7.7 Q-10.3 8.15 -10.55 8.75 -11.05 10.1 -11.25 10.45 -11.5 10.9 -12.55 12.05 L-13.05 12.6 Q-13.15 12.35 -13.3 12.05 -13.4 11.8 -13.4 11.5 -13.4 11.2 -13.05 9.9 L-12.75 8.65 -12.75 8.5 -12.85 8.4 -13.05 8.4 Q-13.2 8.4 -14.9 9.1 -16.75 9.85 -17.55 10.05 L-17.55 10.0 -16.8 8.95 Q-16.35 8.15 -16.35 7.7 L-16.35 7.55 -16.5 7.6 Q-16.75 7.75 -18.6 8.5 L-18.9 8.65 Q-18.65 8.05 -18.65 7.9 L-18.6 7.5 Q-18.35 6.95 -18.2 6.5 L-18.05 6.05 -17.6 4.35 -17.5 3.95 -17.35 3.55 -16.8 3.6 Q-15.0 3.6 -12.1 5.9 -11.15 6.65 -10.25 7.5 L-10.0 7.7" fill="#80c0f0" fill-rule="evenodd" stroke="none"/>
      <path d="M3.6 -0.15 L1.6 0.7 Q-0.3 1.45 -1.45 1.75 -4.7 2.65 -5.2 2.8 -6.95 3.35 -7.65 3.75 -7.4 3.4 -6.8 2.95 -5.8 2.2 -4.25 1.5 -1.7 0.4 0.75 0.0 L3.25 -0.15 3.6 -0.15 M4.55 -0.1 L4.4 -0.1 4.55 -0.1 M-8.85 7.45 L-8.65 6.8 Q-7.2 5.85 -3.85 5.85 L-3.05 5.9 -2.0 5.95 -1.5 6.0 -0.8 6.1 0.05 6.15 0.1 6.2 -2.6 7.0 -3.8 6.85 Q-4.8 6.7 -6.1 6.7 -7.25 6.7 -8.1 7.0 -8.7 7.2 -8.85 7.45 M-8.9 7.7 L-8.95 7.75 -8.9 7.65 -8.9 7.7 M-14.95 -4.8 L-14.95 -4.85 Q-14.55 -5.45 -14.05 -6.05 -12.3 -5.85 -10.2 -1.95 -9.65 -0.95 -9.1 0.25 -9.2 0.4 -9.25 0.6 L-9.25 0.95 Q-9.75 0.45 -10.45 -0.6 -11.35 -1.85 -11.7 -2.3 -13.2 -4.1 -14.95 -4.8 M-14.9 -4.4 L-15.05 -4.45 -15.05 -4.5 -14.95 -4.45 -14.9 -4.4 M-11.1 4.2 L-11.1 4.35 Q-11.0 5.1 -10.85 5.85 L-12.15 4.35 Q-13.15 3.7 -14.85 2.9 -16.45 2.15 -17.05 2.25 L-16.65 0.75 -15.8 1.1 Q-13.95 1.85 -12.7 2.8 -11.85 3.45 -11.1 4.2 M-17.15 2.75 L-16.75 2.95 -17.2 2.95 -17.15 2.75" fill="#e6e6e6" fill-rule="evenodd" stroke="none"/>
      <path d="M3.15 -8.9 Q3.15 -8.75 3.0 -8.1 L2.85 -7.4 Q2.85 -7.0 2.05 -6.0 1.25 -5.0 0.1 -3.95 -0.35 -3.55 -0.75 -3.25 -1.6 -2.55 -2.4 -2.05 -3.85 -1.1 -5.15 -0.9 -5.2 -1.45 -5.2 -2.55 L-5.25 -3.05 -5.25 -4.8 Q-5.25 -6.25 -5.15 -6.9 -5.0 -8.2 -4.3 -10.25 -4.05 -11.6 -2.8 -12.1 -1.75 -12.55 -0.3 -12.2 1.1 -11.85 2.1 -11.0 3.15 -10.05 3.15 -8.9" fill="#506060" fill-rule="evenodd" stroke="none"/>
      <path d="M3.6 -0.15 L4.05 -0.15 4.35 -0.1 4.4 -0.1 4.55 -0.1 6.45 0.05 Q7.3 0.15 8.25 0.65 L8.55 0.85 8.55 1.35 8.5 1.8 Q8.45 2.25 8.35 2.75 7.6 2.35 5.75 2.05 4.15 1.85 2.55 1.8 L0.35 1.95 Q-0.6 2.05 -1.8 2.3 -3.25 2.6 -4.4 2.9 -6.3 3.4 -7.15 3.85 -7.65 4.15 -7.95 4.45 L-7.85 4.15 -7.8 4.15 -7.8 4.0 Q-7.75 3.9 -7.65 3.75 -6.95 3.35 -5.2 2.8 -4.7 2.65 -1.45 1.75 -0.3 1.45 1.6 0.7 L3.6 -0.15 M-8.85 7.45 Q-8.7 7.2 -8.1 7.0 -7.25 6.7 -6.1 6.7 -4.8 6.7 -3.8 6.85 L-2.6 7.0 0.1 6.2 0.4 6.2 0.6 6.25 0.65 6.25 1.25 6.35 Q1.6 6.35 2.8 6.8 L3.95 7.25 Q4.65 7.4 5.15 7.8 L5.3 7.95 5.0 8.25 Q4.1 9.1 3.4 9.9 2.9 9.35 1.6 8.7 -0.35 7.75 -1.35 7.75 L-2.3 7.6 -5.3 7.15 -5.25 7.05 -5.3 7.0 -5.35 7.15 -5.6 7.15 Q-7.0 7.15 -8.0 7.4 L-8.05 7.4 -8.7 7.65 -8.9 7.75 -8.9 7.7 -8.9 7.65 -8.9 7.55 -8.85 7.45 M-9.1 0.25 L-8.65 1.3 Q-8.15 2.5 -7.95 3.35 L-8.2 4.2 Q-8.45 3.3 -9.3 1.95 -10.4 0.15 -11.95 -1.65 -13.55 -3.45 -14.6 -4.2 L-14.9 -4.4 -14.95 -4.45 -15.05 -4.5 -15.0 -4.55 -14.95 -4.8 Q-13.2 -4.1 -11.7 -2.3 -11.35 -1.85 -10.45 -0.6 -9.75 0.45 -9.25 0.95 L-9.25 0.6 Q-9.2 0.4 -9.1 0.25 M-11.1 4.2 Q-10.75 4.55 -10.4 4.95 L-9.05 6.5 Q-9.2 6.65 -9.2 6.75 L-9.15 6.85 -9.4 7.35 -9.45 7.55 -9.5 7.6 -9.5 7.65 Q-9.8 7.15 -10.6 6.45 -11.8 5.45 -13.45 4.45 -15.15 3.45 -16.3 3.1 L-16.75 2.95 -17.15 2.75 -17.1 2.55 -17.05 2.25 Q-16.45 2.15 -14.85 2.9 -13.15 3.7 -12.15 4.35 L-10.85 5.85 Q-11.0 5.1 -11.1 4.35 L-11.1 4.2" fill="#bfbfbf" fill-rule="evenodd" stroke="none"/>
    </g>
  </defs>
</svg>
