<?xml version="1.0" encoding="UTF-8" standalone="no"?>
<svg xmlns:ffdec="https://www.free-decompiler.com/flash" xmlns:xlink="http://www.w3.org/1999/xlink" ffdec:objectType="frame" height="282.45px" width="217.0px" xmlns="http://www.w3.org/2000/svg">
  <g transform="matrix(1.0, 0.0, 0.0, 1.0, 117.6, 171.85)">
    <use ffdec:characterId="980" height="40.35" transform="matrix(7.0, 0.0, 0.0, 7.0, -117.6, -171.85)" width="31.0" xlink:href="#shape0"/>
  </g>
  <defs>
    <g id="shape0" transform="matrix(1.0, 0.0, 0.0, 1.0, 16.8, 24.55)">
      <path d="M12.45 -18.15 L12.3 -18.5 10.0 -16.8 9.95 -16.75 7.75 -14.9 Q5.8 -13.15 4.85 -11.7 4.55 -11.25 4.35 -10.8 L4.35 -10.75 Q5.1 -11.15 6.8 -12.2 L8.25 -13.1 Q8.9 -13.6 9.7 -14.05 11.9 -15.15 12.35 -15.35 L13.3 -15.7 13.3 -15.8 13.2 -16.05 13.2 -16.2 13.1 -16.85 12.85 -17.35 12.45 -18.15 M13.65 -17.8 L13.95 -17.1 Q14.1 -16.4 14.1 -15.9 14.1 -15.4 14.15 -15.2 L14.2 -15.05 Q14.0 -14.9 13.7 -14.8 L12.05 -14.25 10.8 -13.8 10.2 -13.35 Q9.1 -12.6 9.1 -12.15 9.1 -11.95 9.3 -11.8 L9.55 -11.65 9.8 -11.7 Q12.0 -12.25 13.65 -12.2 13.75 -12.25 13.75 -12.05 13.75 -11.95 13.65 -11.9 L13.7 -11.85 13.7 -11.65 Q13.7 -11.2 12.8 -9.5 L12.45 -8.85 Q12.35 -8.55 12.05 -8.15 11.6 -7.45 11.3 -7.45 L10.95 -7.5 10.85 -7.5 10.3 -7.55 9.95 -7.6 9.7 -7.6 9.75 -7.3 10.2 -7.3 Q10.35 -7.2 10.35 -7.0 10.35 -6.85 9.75 -6.25 L9.75 -5.75 Q9.4 -3.1 9.1 -1.2 L9.0 -0.65 Q8.6 1.55 8.15 2.55 7.65 3.85 6.95 5.05 L6.25 6.3 5.7 7.15 Q5.4 7.7 5.05 8.05 4.65 8.5 4.15 8.75 L3.85 9.05 Q3.6 9.35 3.6 9.9 3.55 10.2 3.6 10.8 L3.6 11.1 3.7 11.7 Q3.7 11.85 2.45 12.65 L2.2 12.8 1.85 13.1 1.65 13.25 Q1.4 13.4 1.3 13.4 L0.85 13.4 0.85 13.35 0.65 13.3 0.1 13.8 -0.6 14.7 -0.9 15.05 -1.6 15.8 Q-1.95 15.75 -2.1 15.55 L-2.2 15.45 -2.25 15.45 Q-3.05 14.95 -4.9 13.45 -6.35 12.25 -7.05 11.55 L-7.65 11.05 Q-8.05 10.7 -8.05 10.65 L-7.6 9.9 -7.6 9.85 Q-7.3 9.2 -7.3 8.8 -7.3 8.45 -7.7 8.1 -8.15 7.6 -8.8 7.6 -9.35 7.6 -9.7 7.9 L-9.7 7.95 Q-9.8 8.15 -9.9 8.4 L-10.05 8.8 -10.25 9.35 Q-10.35 9.65 -10.35 9.85 L-10.8 9.95 -11.35 9.95 -12.0 10.0 -13.9 9.75 -14.8 9.65 Q-15.2 9.6 -15.4 9.45 L-15.7 9.35 -15.5 8.9 -15.35 8.65 -15.25 8.05 Q-15.3 7.65 -15.3 6.85 L-15.4 6.75 Q-15.7 6.5 -15.8 6.25 L-15.8 6.2 -15.95 6.0 -16.25 5.55 Q-16.8 4.65 -16.8 4.0 -16.8 3.95 -15.45 3.2 -15.2 2.95 -15.2 2.65 L-15.3 2.2 -15.6 1.85 Q-16.15 1.05 -16.45 0.1 -16.7 -0.6 -16.7 -1.0 -16.7 -2.4 -15.95 -3.45 -15.4 -4.2 -14.25 -4.95 L-12.5 -6.2 Q-11.85 -6.75 -11.6 -7.35 L-12.1 -8.7 Q-12.6 -9.95 -13.2 -11.15 L-13.35 -11.35 Q-13.65 -12.0 -14.05 -12.5 L-14.15 -12.65 Q-13.9 -13.55 -13.25 -15.2 L-13.0 -15.75 -12.4 -16.55 -12.35 -16.55 -12.3 -16.6 -12.3 -16.55 -12.25 -16.45 -12.0 -16.15 -12.0 -16.05 Q-11.75 -15.7 -11.45 -15.1 -11.15 -14.65 -11.1 -14.5 L-11.05 -14.4 -10.85 -13.95 Q-10.3 -13.15 -9.7 -12.1 L-9.65 -12.15 -9.6 -12.35 Q-9.65 -12.95 -10.45 -15.35 L-10.5 -15.4 -10.8 -16.05 -11.5 -17.3 Q-11.7 -17.75 -11.75 -18.0 -10.95 -19.7 -9.75 -20.95 L-9.0 -21.65 -8.9 -21.65 Q-8.65 -21.65 -8.35 -20.85 -7.55 -19.7 -7.0 -18.05 L-6.65 -16.85 -6.6 -16.85 Q-6.45 -16.85 -6.35 -16.9 L-6.2 -17.35 Q-6.05 -18.05 -6.05 -18.45 L-6.15 -19.65 Q-6.15 -19.8 -6.25 -20.15 -6.55 -21.1 -7.05 -22.4 L-7.2 -22.7 -7.25 -22.9 -7.25 -23.0 -7.0 -23.15 -5.8 -23.85 -5.65 -23.85 Q-5.4 -23.95 -5.0 -24.05 L-4.8 -24.15 -3.3 -24.25 -2.8 -24.3 -2.75 -24.25 Q-2.65 -24.15 -2.65 -24.05 -2.65 -23.95 -2.65 -23.7 L-2.65 -23.35 Q-2.6 -23.05 -2.6 -21.85 -2.5 -21.0 -2.45 -19.95 L-2.45 -18.95 -2.15 -18.35 -2.45 -18.45 -2.2 -18.35 Q-2.0 -18.0 -1.7 -18.0 -1.4 -18.0 -0.75 -21.1 L-0.65 -21.6 Q-0.4 -22.9 -0.2 -24.2 -0.2 -24.5 0.15 -24.55 L0.4 -24.55 Q1.6 -24.5 3.6 -24.2 L4.0 -24.1 4.1 -24.05 Q4.3 -23.9 4.3 -23.75 L3.45 -21.0 Q2.55 -18.25 2.55 -17.35 2.55 -17.3 2.6 -17.2 2.65 -17.1 2.8 -17.0 3.3 -17.4 3.8 -18.0 L4.15 -18.55 Q4.5 -19.35 5.2 -20.35 5.45 -20.85 6.05 -21.65 L6.3 -22.0 Q6.65 -22.7 7.2 -22.9 7.5 -23.0 7.65 -22.9 8.05 -22.85 8.7 -22.4 9.35 -22.0 9.95 -21.4 10.0 -21.35 10.05 -21.35 L10.45 -20.95 10.5 -20.85 Q10.5 -20.65 8.5 -18.45 6.35 -16.05 5.85 -15.1 6.9 -15.6 9.75 -17.55 12.4 -19.4 12.45 -19.4 13.05 -19.4 13.65 -17.8 M8.7 -21.45 L8.35 -21.7 7.7 -22.1 7.6 -22.15 Q7.1 -21.45 5.5 -19.3 L5.1 -18.8 5.05 -18.7 4.5 -17.75 Q2.15 -13.9 2.15 -12.9 2.15 -12.85 2.2 -12.8 L2.35 -12.65 Q2.6 -12.45 2.8 -12.45 2.9 -12.45 3.85 -13.6 4.75 -15.1 5.85 -16.55 7.5 -18.75 9.4 -20.5 L9.6 -20.8 9.25 -21.05 8.85 -21.3 8.7 -21.45 M3.25 -23.5 L2.9 -23.55 2.65 -23.6 2.2 -23.65 2.15 -23.65 1.4 -23.8 0.8 -23.85 0.75 -23.9 0.7 -23.85 0.65 -23.7 0.6 -23.2 0.6 -23.15 Q0.5 -22.95 0.45 -22.7 L0.4 -22.4 0.4 -22.2 0.3 -21.85 0.25 -21.45 Q0.25 -21.0 0.05 -20.1 L-0.2 -19.15 Q-0.2 -18.7 -0.9 -15.95 L-1.25 -14.6 -1.25 -14.4 -1.2 -14.2 -1.2 -14.05 -0.75 -13.85 -0.45 -13.85 Q-0.05 -13.9 0.4 -14.5 0.7 -15.7 1.05 -16.85 L1.2 -17.3 Q1.9 -19.6 2.75 -21.65 3.1 -22.9 3.3 -23.5 L3.25 -23.5 M2.15 -16.55 Q2.0 -16.7 1.9 -16.9 L1.85 -17.05 1.75 -16.65 1.5 -16.0 1.3 -15.5 0.95 -14.7 0.75 -14.25 1.0 -14.2 1.2 -14.15 Q1.6 -14.05 1.8 -13.85 2.1 -14.45 2.55 -15.3 L2.7 -15.55 2.75 -15.65 2.95 -16.0 2.95 -16.25 3.0 -16.35 3.05 -16.4 Q2.9 -16.3 2.85 -16.3 L2.3 -16.45 2.15 -16.55 M5.8 -13.75 L6.1 -14.05 7.0 -14.8 Q6.2 -14.45 5.85 -14.45 L5.65 -14.45 5.3 -14.6 5.25 -14.6 5.0 -14.35 4.8 -14.1 4.75 -14.05 4.2 -13.2 3.8 -12.75 Q4.2 -12.65 4.3 -12.25 4.65 -12.7 5.25 -13.25 L5.8 -13.75 M12.75 -11.15 L12.75 -11.25 12.2 -11.25 10.1 -11.1 8.9 -10.85 Q6.75 -10.4 5.85 -9.85 L3.4 -8.5 Q2.75 -8.15 2.3 -7.8 1.75 -7.35 1.3 -6.8 L1.35 -6.8 1.4 -6.8 2.7 -7.0 2.8 -7.05 2.95 -7.05 Q4.4 -7.65 6.2 -8.05 9.1 -8.65 11.15 -8.35 L11.7 -9.15 12.4 -10.3 Q12.65 -10.8 12.75 -11.15 M7.0 -11.6 L6.9 -11.5 6.35 -11.15 6.2 -11.0 6.1 -10.95 5.45 -10.6 5.15 -10.45 5.2 -10.35 Q5.2 -10.25 5.1 -10.1 5.45 -10.3 5.7 -10.4 L6.0 -10.55 7.1 -11.0 7.85 -11.25 8.5 -11.4 8.65 -11.45 Q8.6 -11.55 8.55 -11.6 8.4 -11.9 8.4 -12.15 8.4 -12.45 8.55 -12.75 8.15 -12.55 7.75 -12.25 L7.5 -12.05 7.0 -11.6 M8.4 -7.45 L6.75 -7.25 Q6.25 -6.95 6.25 -6.8 L6.4 -6.7 6.95 -6.8 8.55 -7.15 8.5 -7.5 8.4 -7.45 M3.85 -11.25 L3.85 -11.3 3.45 -11.75 3.2 -12.0 Q2.9 -11.75 2.75 -11.75 2.2 -11.75 1.8 -12.25 1.5 -12.6 1.5 -12.75 1.5 -12.9 1.55 -13.1 L0.55 -13.45 0.45 -13.5 0.45 -13.45 0.15 -13.4 Q-0.3 -13.25 -0.5 -13.15 L-0.65 -13.15 Q-1.2 -13.15 -1.45 -13.3 -1.6 -13.5 -1.75 -13.55 L-2.55 -13.1 -2.6 -12.85 Q-2.6 -12.8 -2.65 -12.75 L-2.65 -12.7 -2.95 -12.35 -3.0 -12.45 -3.05 -12.45 Q-3.45 -12.15 -3.75 -12.15 L-3.8 -12.15 -4.05 -11.5 Q-4.4 -10.65 -4.45 -10.15 -4.3 -9.65 -4.3 -9.35 -4.3 -8.8 -4.4 -8.1 -4.6 -7.2 -4.9 -7.1 L-4.95 -7.0 Q-5.15 -6.6 -5.25 -6.3 L-5.3 -6.0 -5.4 -5.0 -5.4 -4.25 -5.5 -3.8 Q-5.25 -3.15 -5.25 -2.5 -5.25 -2.15 -5.3 -1.8 -5.2 -1.65 -5.15 -1.35 -5.15 -1.05 -5.1 -0.3 -5.0 -0.35 -4.35 -0.8 -3.75 -1.2 -3.4 -1.25 L-3.4 -1.3 -2.9 -1.95 -2.15 -2.6 -1.05 -3.35 -1.1 -3.4 Q-0.6 -3.9 -0.2 -4.5 0.0 -4.85 0.2 -5.2 L0.2 -5.25 0.6 -6.05 Q0.5 -6.1 0.45 -6.2 L0.4 -6.4 Q0.4 -7.05 1.55 -8.0 L2.1 -8.3 2.3 -8.35 3.15 -8.9 3.2 -8.95 4.0 -9.9 Q3.9 -10.0 3.8 -10.25 3.7 -10.5 3.7 -10.65 L3.8 -10.95 3.85 -11.25 M5.6 -7.2 L5.2 -7.15 4.45 -6.95 3.95 -6.85 Q2.75 -6.55 2.3 -6.3 1.75 -6.2 1.35 -5.75 0.8 -4.8 0.35 -4.35 L0.8 -4.4 0.7 -4.3 1.4 -4.65 1.55 -4.75 2.25 -5.05 Q3.8 -5.75 5.2 -6.2 5.45 -6.4 5.45 -6.55 L5.5 -6.55 5.5 -6.65 Q5.5 -6.95 5.7 -7.25 L5.6 -7.2 M-2.4 -1.5 L-2.65 -1.25 -2.75 -1.1 Q-1.75 -1.45 1.7 -2.7 L3.3 -3.25 Q4.65 -3.75 5.25 -3.9 L5.75 -4.3 6.6 -4.95 6.85 -5.15 7.75 -5.8 7.8 -5.85 7.9 -5.9 Q8.4 -6.3 8.8 -6.55 L7.9 -6.45 7.55 -6.4 4.75 -5.45 Q2.45 -4.65 1.15 -4.05 L1.1 -4.0 Q0.35 -3.65 -0.3 -3.3 -1.25 -2.75 -1.65 -2.4 L-2.4 -1.5 M-6.6 2.45 Q-6.7 2.8 -6.7 3.15 -6.7 3.25 -6.85 3.6 -6.2 3.6 -3.65 2.1 -1.4 0.75 -0.05 -0.25 0.85 -0.9 2.6 -2.35 L2.15 -2.2 1.7 -2.1 1.5 -2.0 -0.65 -1.15 -1.6 -0.8 -1.65 -0.75 -1.7 -0.75 -2.7 -0.45 -2.8 -0.45 -3.2 -0.4 -3.4 -0.45 -3.5 -0.4 -3.55 -0.4 -4.85 0.4 Q-6.25 1.4 -6.6 2.45 M2.4 -1.1 L2.3 -1.0 0.35 0.35 -0.05 0.6 -0.85 1.15 Q-3.1 2.65 -4.6 3.5 -4.55 4.35 -3.85 5.5 L-3.75 5.65 -3.4 6.0 -2.4 6.7 -1.85 6.95 Q-1.25 7.25 -0.65 7.35 L0.15 7.4 Q2.55 7.4 4.15 5.85 L4.8 5.2 Q5.15 4.75 5.35 4.25 L5.4 4.15 Q5.55 3.85 5.6 3.5 L5.65 3.5 5.55 4.0 5.55 4.05 5.45 4.55 5.4 4.7 Q5.1 5.85 4.55 6.6 L4.3 6.9 1.6 8.35 1.05 8.45 0.8 8.45 0.05 8.5 Q-2.45 8.5 -4.05 6.7 L-4.05 6.65 Q-4.55 6.3 -5.0 5.4 -5.25 4.95 -5.4 4.4 L-5.5 4.05 -5.55 4.0 -5.55 4.05 -6.35 4.4 Q-5.9 4.8 -5.7 5.4 -5.5 5.75 -5.05 6.3 L-4.0 7.45 Q-3.3 8.1 -1.85 9.15 L-1.25 9.55 Q1.05 11.1 2.3 11.3 L2.6 11.15 2.55 10.35 2.5 9.7 Q2.5 9.5 2.6 9.25 L1.85 9.35 0.0 9.15 -1.45 8.95 Q-1.45 8.9 -1.6 8.9 L0.9 9.0 Q2.05 9.0 3.3 8.35 L3.3 8.3 3.45 8.2 4.65 6.6 Q5.4 5.55 6.0 4.5 L6.05 4.45 6.4 3.75 Q6.9 2.85 7.2 2.0 L7.25 1.85 7.3 1.75 7.5 0.95 7.75 -0.2 8.1 -1.85 8.1 -1.9 8.15 -2.6 Q8.15 -3.15 8.35 -3.8 L8.35 -3.9 Q8.35 -4.6 8.7 -5.35 L8.1 -4.9 Q5.85 -3.05 5.35 -3.05 L5.15 -3.1 4.75 -2.95 4.6 -2.8 Q3.7 -2.05 2.4 -1.1 M1.65 11.6 L1.7 11.6 Q-1.15 10.05 -3.25 8.3 -5.4 6.5 -6.6 4.6 L-6.8 4.65 -6.85 4.65 -6.95 4.75 -7.3 5.55 -6.75 6.05 -5.75 7.2 Q-5.15 7.95 -4.65 8.3 -3.45 9.7 -2.8 10.25 -1.9 10.95 -1.15 11.45 -0.15 11.95 0.8 12.25 L0.85 12.25 0.95 12.2 1.0 12.25 1.3 12.0 Q1.55 11.8 1.85 11.7 L1.65 11.6 M-3.3 -20.05 L-3.35 -20.5 -3.4 -21.7 -3.45 -23.3 -3.85 -23.35 -4.0 -23.35 -4.8 -23.15 -5.45 -22.95 -5.45 -23.0 -5.55 -23.0 -5.85 -22.8 Q-5.9 -22.7 -5.9 -22.5 -5.9 -22.15 -5.6 -20.85 L-5.5 -20.2 Q-5.25 -18.95 -5.25 -18.35 L-5.15 -17.7 -5.1 -17.55 Q-4.95 -17.1 -4.95 -16.9 L-4.85 -16.2 -4.85 -15.95 -4.7 -15.1 Q-4.55 -14.4 -4.55 -14.2 L-4.3 -13.45 -4.1 -12.8 -4.05 -12.8 Q-3.55 -12.8 -3.25 -13.05 -3.15 -13.15 -3.1 -13.25 -3.2 -14.1 -3.2 -14.4 L-3.1 -17.25 -3.1 -17.7 -3.1 -17.85 -3.2 -18.6 -3.15 -18.7 -3.15 -19.15 -3.2 -19.45 -3.2 -19.6 -3.25 -19.65 -3.25 -19.85 -3.3 -20.0 -3.3 -20.05 M-9.55 -19.85 L-10.0 -19.3 -10.7 -18.4 -10.8 -18.2 -10.25 -16.75 Q-9.85 -16.2 -9.4 -15.25 L-8.2 -12.65 Q-7.65 -11.75 -6.25 -9.9 -5.7 -9.1 -5.35 -8.5 L-5.3 -8.4 -5.0 -8.05 Q-4.9 -8.8 -4.9 -9.25 L-4.95 -9.8 -5.05 -10.4 -5.05 -10.65 Q-5.55 -11.75 -6.8 -15.0 L-7.3 -16.3 -7.4 -16.4 -7.7 -17.5 -8.4 -19.25 Q-8.7 -19.75 -9.0 -20.1 L-9.0 -20.2 -9.05 -20.35 -9.15 -20.3 -9.2 -20.3 -9.2 -20.25 -9.3 -20.15 -9.55 -19.85 M-5.6 -16.1 L-5.7 -16.65 Q-5.85 -16.35 -6.1 -16.3 -6.25 -16.15 -6.45 -16.1 L-6.2 -15.3 -6.15 -15.15 -5.85 -14.45 Q-5.45 -13.4 -5.2 -12.55 L-4.9 -11.35 -4.85 -11.2 -4.85 -11.35 Q-4.85 -11.65 -4.6 -12.1 L-4.45 -12.4 -4.55 -12.75 -4.75 -13.35 -5.0 -14.1 -5.3 -15.1 -5.55 -16.0 -5.6 -16.1 M-1.4 -16.45 L-1.35 -17.05 -1.3 -17.2 -1.25 -17.4 Q-1.45 -17.25 -1.65 -17.25 -2.1 -17.25 -2.4 -17.5 L-2.45 -16.85 -2.45 -16.15 -2.5 -15.05 -2.55 -14.7 -2.5 -14.6 -2.45 -14.2 Q-2.3 -14.35 -2.05 -14.4 L-1.7 -14.45 -1.65 -14.45 -1.65 -14.55 -1.55 -15.0 -1.5 -15.1 -1.45 -15.65 -1.4 -16.35 -1.4 -16.45 M-7.05 -5.75 L-7.15 -5.95 Q-8.0 -7.75 -9.0 -9.25 -9.4 -9.9 -10.35 -11.65 L-10.55 -11.8 -10.85 -12.35 Q-11.35 -13.25 -11.75 -13.75 L-12.5 -15.2 -12.65 -14.85 -12.7 -14.75 Q-12.9 -14.25 -13.05 -13.6 L-13.05 -13.55 -13.15 -13.2 -13.2 -12.9 Q-12.5 -12.0 -12.15 -11.25 -11.85 -10.75 -11.7 -10.25 L-11.6 -10.1 -11.6 -10.05 -11.55 -10.0 -9.85 -6.95 -7.5 -3.75 -7.0 -3.05 -6.7 -2.7 -6.7 -2.65 -6.0 -1.8 -5.9 -2.55 -5.85 -2.95 Q-5.85 -3.05 -5.95 -3.4 L-6.2 -4.0 -7.05 -5.75 M-11.5 -6.4 Q-11.65 -5.8 -12.05 -5.35 -12.45 -4.8 -13.5 -4.1 L-13.85 -3.85 -14.25 -3.6 Q-14.75 -3.2 -15.0 -2.95 L-15.1 -2.75 -15.15 -2.75 -15.15 -2.7 -15.25 -2.55 -15.3 -2.5 -15.3 -2.45 -15.5 -2.0 -15.55 -1.9 -15.55 -1.8 -15.6 -1.5 -15.65 -1.0 Q-15.65 -0.25 -15.15 0.55 -14.7 1.35 -13.95 1.95 L-13.8 2.1 -13.3 2.45 -13.25 2.5 -11.6 3.3 Q-11.1 3.45 -10.6 3.55 L-9.5 3.45 -8.8 3.3 -8.35 3.15 -8.0 3.05 -8.45 2.25 Q-9.05 1.05 -9.55 -0.3 L-9.8 -1.1 -10.05 -1.95 -10.25 -2.55 -10.25 -2.6 -10.35 -2.9 -10.5 -3.4 -10.5 -3.45 -10.75 -4.45 -10.85 -4.65 -10.85 -4.8 -10.9 -4.9 -11.3 -6.35 -11.4 -6.7 -11.5 -6.4 M-8.25 -11.65 L-8.4 -11.9 -8.85 -12.6 -8.85 -12.2 Q-8.9 -11.9 -8.95 -11.7 -9.05 -11.5 -9.25 -11.4 L-9.1 -11.1 -8.5 -10.1 -7.9 -8.95 Q-7.3 -7.85 -6.9 -6.95 L-6.85 -6.85 -6.2 -5.2 -5.9 -4.6 -5.95 -4.8 -6.0 -5.5 -5.9 -6.7 -5.75 -7.75 Q-5.75 -7.85 -5.85 -8.1 -5.95 -8.3 -5.95 -8.4 L-5.95 -8.45 -6.65 -9.35 -7.5 -10.5 -8.25 -11.65 M-6.8 -1.75 L-6.95 -1.95 -7.05 -2.15 -7.15 -2.25 -7.9 -3.3 -8.3 -3.95 -8.35 -4.0 -8.6 -4.3 -9.45 -5.45 -9.45 -5.5 -9.55 -5.6 -10.2 -6.6 -10.25 -6.7 Q-10.0 -5.75 -10.0 -5.4 -10.0 -5.05 -9.8 -4.2 -9.65 -3.4 -9.65 -3.1 -9.65 -2.9 -9.2 -1.55 -8.75 -0.2 -8.5 0.2 -8.3 0.55 -8.05 1.15 L-7.8 1.6 -7.6 2.4 -7.4 2.8 -7.15 3.3 -7.05 3.1 -6.9 2.65 -6.65 2.05 -6.6 2.05 -6.55 1.9 Q-6.2 0.9 -5.95 -0.05 L-5.8 -0.7 -5.8 -0.75 Q-5.95 -0.75 -6.25 -1.1 L-6.8 -1.75 M-9.65 4.15 L-9.85 4.15 -10.4 4.2 -11.25 4.1 Q-13.1 4.1 -14.4 3.1 -14.5 3.5 -14.95 3.85 L-15.3 4.15 Q-15.15 4.25 -14.3 4.6 -13.35 5.0 -13.05 5.0 L-11.25 4.85 Q-10.45 4.85 -9.15 4.35 L-9.0 4.25 Q-8.15 3.9 -7.65 3.75 L-7.65 3.7 -7.75 3.5 -8.45 3.8 -9.05 4.0 -9.65 4.15 M-9.25 4.6 L-10.7 4.85 Q-12.4 5.15 -13.55 5.15 -14.0 5.15 -14.95 4.9 L-15.5 4.75 Q-15.4 5.1 -15.2 5.4 -14.6 6.15 -13.35 6.15 -11.35 6.15 -9.7 5.8 L-9.35 5.75 -8.1 5.45 Q-8.0 5.35 -7.85 5.35 L-7.6 5.0 -7.25 4.6 -7.45 4.3 -7.9 4.45 -9.1 4.55 -9.25 4.6 M-6.0 8.25 Q-6.25 8.0 -6.5 7.85 L-7.45 6.75 Q-7.75 6.5 -7.95 6.45 L-8.1 6.5 -8.45 6.6 -8.65 6.6 -8.8 6.65 -10.05 6.75 -10.15 6.8 -11.4 6.95 -12.4 7.15 -12.45 7.15 -13.65 7.2 -14.15 7.2 -14.1 7.45 Q-14.1 7.6 -14.2 7.9 L-14.2 8.05 Q-14.2 8.3 -14.25 8.8 L-13.95 8.85 -13.8 8.85 -13.6 8.95 -12.85 9.05 -12.55 9.1 -12.5 9.1 -12.2 9.05 -11.6 9.05 -11.15 9.0 -11.05 9.0 -10.85 8.95 -10.85 8.6 -10.75 8.35 -10.8 8.3 -10.8 8.25 -10.7 8.05 Q-10.6 7.8 -10.35 7.5 L-10.25 7.35 Q-10.05 7.15 -9.85 7.05 -8.25 6.45 -7.2 7.3 -6.8 7.6 -6.6 8.1 -6.4 8.5 -6.4 8.8 L-6.45 9.4 -6.45 9.6 -6.75 10.35 Q-6.75 10.45 -6.75 10.5 L-6.7 10.55 -6.55 10.6 -6.4 10.7 -6.2 10.9 -4.65 12.25 -4.6 12.3 -4.0 12.85 -3.3 13.45 Q-3.15 13.55 -3.0 13.7 L-2.95 13.75 -1.9 14.4 Q-1.6 14.05 -1.05 13.5 L-0.95 13.4 Q-0.65 13.1 -0.45 12.95 L-0.35 12.9 Q-0.8 12.7 -1.35 12.35 L-1.85 12.05 -2.25 11.6 Q-3.15 10.7 -4.1 9.85 L-5.25 8.85 -6.0 8.25 M-6.35 8.75 L-6.35 8.75" fill="#000004" fill-rule="evenodd" stroke="none"/>
      <path d="M2.85 -16.3 Q2.9 -16.3 3.05 -16.4 L3.0 -16.35 2.95 -16.25 2.85 -16.3 M0.4 3.15 L0.35 3.15 0.35 3.1 0.4 3.15 M-1.65 -14.55 L-1.65 -14.45 -1.7 -14.45 -1.65 -14.5 -1.65 -14.55 M-7.05 3.1 L-7.15 3.3 -7.4 2.8 -7.1 3.2 -7.05 3.1" fill="#ced896" fill-rule="evenodd" stroke="none"/>
      <path d="M-11.3 -6.35 L-11.35 -6.45 -11.5 -6.4 -11.4 -6.7 -11.3 -6.35" fill="#9dac64" fill-rule="evenodd" stroke="none"/>
      <path d="M1.2 -17.3 Q1.2 -17.4 2.5 -21.25 L3.25 -23.5 3.3 -23.5 Q3.1 -22.9 2.75 -21.65 1.9 -19.6 1.2 -17.3 M-2.8 -0.45 L-2.7 -0.45 -1.7 -0.75 -1.65 -0.75 -1.6 -0.8 -0.65 -1.15 1.5 -2.0 1.7 -2.1 0.9 -1.65 Q0.1 -1.25 -2.2 -0.25 -4.2 0.65 -5.2 1.2 L-5.2 1.15 -2.8 -0.45 M-4.0 -23.35 L-3.85 -23.35 -3.45 -23.3 -3.4 -21.7 -3.35 -20.5 -3.3 -20.05 -3.4 -20.5 -3.5 -21.1 Q-3.65 -21.8 -4.0 -23.35" fill="#e7f3cb" fill-rule="evenodd" stroke="none"/>
      <path d="M3.85 -11.25 L3.8 -10.95 3.7 -10.65 Q3.7 -10.5 3.8 -10.25 3.9 -10.0 4.0 -9.9 L3.2 -8.95 3.15 -8.9 2.3 -8.35 2.1 -8.3 1.55 -8.0 Q0.4 -7.05 0.4 -6.4 L0.45 -6.2 Q0.5 -6.1 0.6 -6.05 L0.2 -5.25 0.2 -5.2 Q0.0 -4.85 -0.2 -4.5 -0.6 -3.9 -1.1 -3.4 L-1.05 -3.35 -2.15 -2.6 -2.9 -1.95 -3.4 -1.3 -3.4 -1.25 Q-3.75 -1.2 -4.35 -0.8 -5.0 -0.35 -5.1 -0.3 -5.15 -1.05 -5.15 -1.35 -5.2 -1.65 -5.3 -1.8 -5.25 -2.15 -5.25 -2.5 -5.25 -3.15 -5.5 -3.8 L-5.4 -4.25 -5.4 -5.0 -5.3 -6.0 -5.25 -6.3 Q-5.15 -6.6 -4.95 -7.0 L-4.9 -7.1 Q-4.6 -7.2 -4.4 -8.1 -4.3 -8.8 -4.3 -9.35 -4.3 -9.65 -4.45 -10.15 -4.4 -10.65 -4.05 -11.5 L-3.8 -12.15 -3.75 -12.15 Q-3.45 -12.15 -3.05 -12.45 L-3.0 -12.45 -2.95 -12.35 -2.65 -12.7 -2.65 -12.75 Q-2.6 -12.8 -2.6 -12.85 L-2.55 -13.1 -1.75 -13.55 Q-1.6 -13.5 -1.45 -13.3 -1.2 -13.15 -0.65 -13.15 L-0.5 -13.15 Q-0.3 -13.25 0.15 -13.4 L0.45 -13.45 0.45 -13.5 0.55 -13.45 1.55 -13.1 Q1.5 -12.9 1.5 -12.75 1.5 -12.6 1.8 -12.25 2.2 -11.75 2.75 -11.75 2.9 -11.75 3.2 -12.0 L3.45 -11.75 3.85 -11.3 3.85 -11.25 M0.35 0.35 L2.3 -1.0 2.4 -1.1 2.1 -0.3 1.9 0.05 1.0 1.8 0.75 2.2 0.65 2.45 0.55 2.7 0.35 3.1 0.35 3.15 0.4 3.15 1.3 3.3 1.4 3.3 2.35 3.2 Q3.3 3.0 4.2 2.4 4.85 1.95 5.95 1.0 6.7 0.3 7.75 -0.2 L7.5 0.95 Q7.2 1.15 6.95 1.5 L6.1 2.35 Q5.45 2.9 4.15 3.65 2.1 4.8 0.8 4.8 0.2 4.8 -0.2 4.65 L-0.3 5.0 -0.35 5.15 -0.4 5.3 -0.35 5.25 -0.4 5.35 -0.5 5.75 Q-0.65 6.55 -0.65 7.35 -1.25 7.25 -1.85 6.95 L-1.9 6.6 Q-1.9 5.95 -1.2 4.0 -0.55 2.2 0.35 0.35 M1.65 11.6 L1.85 11.7 Q1.55 11.8 1.3 12.0 L1.0 12.25 0.95 12.2 0.85 12.25 0.8 12.25 Q-0.15 11.95 -1.15 11.45 -1.9 10.95 -2.8 10.25 -3.45 9.7 -4.65 8.3 -5.15 7.95 -5.75 7.2 L-6.75 6.05 -7.3 5.55 -6.95 4.75 -6.85 4.65 -6.8 4.65 -6.6 4.6 Q-5.4 6.5 -3.25 8.3 -1.15 10.05 1.7 11.6 L1.65 11.6 M-14.25 -3.6 L-14.3 -3.5 -14.5 -3.2 Q-14.65 -2.9 -14.65 -2.8 L-14.65 -2.75 Q-14.6 -1.95 -13.45 -1.25 L-13.2 -1.75 -13.05 -2.05 -13.05 -2.1 -13.0 -2.2 Q-12.3 -3.4 -11.65 -3.9 -11.25 -4.2 -10.85 -4.65 L-10.75 -4.45 -10.5 -3.45 Q-11.5 -2.5 -11.95 -1.9 -12.65 -0.95 -12.65 0.0 L-12.55 0.85 Q-12.4 2.35 -11.45 3.3 L-11.6 3.3 -13.25 2.5 -13.3 2.45 Q-13.65 1.45 -13.75 0.45 L-13.75 0.0 Q-14.4 -0.25 -14.9 -0.95 -15.35 -1.45 -15.55 -1.9 L-15.5 -2.0 -15.3 -2.45 -15.3 -2.5 -15.25 -2.55 -15.15 -2.7 -15.15 -2.75 -15.1 -2.75 -15.0 -2.95 Q-14.75 -3.2 -14.25 -3.6 M-9.25 4.6 L-9.1 4.55 -7.9 4.45 -7.45 4.3 -7.25 4.6 -7.6 5.0 -7.85 5.35 Q-8.0 5.35 -8.1 5.45 L-9.35 5.75 -9.7 5.8 Q-11.35 6.15 -13.35 6.15 -14.6 6.15 -15.2 5.4 -15.4 5.1 -15.5 4.75 L-14.95 4.9 Q-14.0 5.15 -13.55 5.15 -12.4 5.15 -10.7 4.85 L-9.25 4.6" fill="#600000" fill-rule="evenodd" stroke="none"/>
      <path d="M13.2 -16.05 L13.3 -15.8 13.3 -15.7 12.35 -15.35 Q11.9 -15.15 9.7 -14.05 8.9 -13.6 8.25 -13.1 L6.8 -12.2 Q5.1 -11.15 4.35 -10.75 L4.35 -10.8 Q4.55 -11.25 4.85 -11.7 7.0 -13.25 10.1 -14.75 11.8 -15.55 13.2 -16.05 M9.25 -21.05 L9.6 -20.8 9.4 -20.5 Q7.5 -18.75 5.85 -16.55 4.75 -15.1 3.85 -13.6 2.9 -12.45 2.8 -12.45 2.6 -12.45 2.35 -12.65 L2.2 -12.8 Q2.65 -13.8 3.8 -15.05 L5.35 -16.65 Q6.3 -17.55 6.55 -17.9 8.2 -19.9 9.25 -21.05 M-0.45 -13.85 L-0.75 -13.85 -1.2 -14.05 -1.2 -14.2 -1.25 -14.4 -1.25 -14.6 -0.9 -15.95 Q-0.2 -18.7 -0.2 -19.15 L0.05 -20.1 Q0.25 -21.0 0.25 -21.45 L0.3 -21.85 0.4 -22.2 0.4 -22.4 0.45 -22.7 Q0.5 -22.95 0.6 -23.15 L0.6 -23.2 0.65 -23.7 0.7 -23.85 0.75 -23.9 0.8 -23.85 1.4 -23.8 Q0.9 -21.2 0.8 -20.65 0.7 -19.7 0.1 -16.65 L-0.45 -13.85 M2.55 -15.3 Q2.1 -14.45 1.8 -13.85 1.6 -14.05 1.2 -14.15 L1.0 -14.2 0.75 -14.25 0.95 -14.7 1.3 -15.5 2.5 -15.3 2.55 -15.3 M4.8 -14.1 L5.1 -13.65 5.25 -13.25 Q4.65 -12.7 4.3 -12.25 4.2 -12.65 3.8 -12.75 L4.2 -13.2 4.75 -14.05 4.8 -14.1 M1.35 -6.8 Q1.7 -7.25 3.95 -8.0 6.55 -8.85 7.6 -8.85 L10.3 -8.95 Q11.0 -8.95 12.35 -10.25 L12.4 -10.3 11.7 -9.15 11.15 -8.35 Q9.1 -8.65 6.2 -8.05 4.4 -7.65 2.95 -7.05 L2.8 -7.05 2.7 -7.0 1.4 -6.8 1.35 -6.8 M6.2 -11.0 L6.1 -10.55 6.0 -10.55 5.7 -10.4 Q5.45 -10.3 5.1 -10.1 5.2 -10.25 5.2 -10.35 L5.15 -10.45 5.45 -10.6 6.1 -10.95 6.2 -11.0 M2.25 -5.05 L1.55 -4.75 1.4 -4.65 0.7 -4.3 0.8 -4.4 0.35 -4.35 Q0.8 -4.8 1.35 -5.75 1.75 -6.2 2.3 -6.3 2.75 -6.55 3.95 -6.85 L3.4 -6.3 2.25 -5.05 M5.75 -4.3 L5.25 -3.9 Q4.65 -3.75 3.3 -3.25 L1.7 -2.7 Q-1.75 -1.45 -2.75 -1.1 L-2.65 -1.25 -2.4 -1.5 -1.65 -2.0 Q-0.55 -2.6 1.25 -3.15 L2.45 -3.55 Q4.25 -4.05 5.75 -4.3 M2.15 -2.2 L2.6 -2.35 Q0.85 -0.9 -0.05 -0.25 -1.4 0.75 -3.65 2.1 -6.2 3.6 -6.85 3.6 -6.7 3.25 -6.7 3.15 -6.7 2.8 -6.6 2.45 -5.9 1.9 -4.45 1.35 -2.65 0.75 -2.2 0.45 -1.8 0.25 -0.05 -0.75 1.2 -1.4 1.8 -1.9 L2.15 -2.2 M-3.25 -13.05 Q-3.55 -12.8 -4.05 -12.8 L-4.1 -12.8 -4.3 -13.45 -4.55 -14.2 Q-4.55 -14.4 -4.7 -15.1 L-4.85 -15.95 -4.85 -16.2 -4.95 -16.9 Q-4.95 -17.1 -5.1 -17.55 L-5.15 -17.7 -5.25 -18.35 Q-5.25 -18.95 -5.5 -20.2 L-5.6 -20.85 Q-5.9 -22.15 -5.9 -22.5 -5.9 -22.7 -5.85 -22.8 L-5.55 -23.0 -5.45 -23.0 -5.45 -22.95 -5.45 -22.9 -5.35 -22.8 -5.3 -22.7 -5.4 -22.65 Q-5.35 -21.85 -5.35 -21.4 L-5.0 -20.05 Q-4.85 -19.3 -4.75 -18.8 -4.65 -18.35 -4.65 -18.1 L-4.25 -16.9 Q-3.9 -15.65 -3.9 -15.5 -3.9 -15.15 -3.45 -13.7 L-3.25 -13.05 M-10.7 -18.4 L-10.6 -18.2 Q-8.75 -14.85 -7.85 -13.3 -6.45 -11.45 -5.25 -9.75 L-4.9 -9.25 Q-4.9 -8.8 -5.0 -8.05 L-5.3 -8.4 -5.35 -8.5 Q-5.7 -9.1 -6.25 -9.9 -7.65 -11.75 -8.2 -12.65 L-9.4 -15.25 Q-9.85 -16.2 -10.25 -16.75 L-10.8 -18.2 -10.7 -18.4 M-4.75 -13.35 L-4.55 -12.75 -4.45 -12.4 -4.6 -12.1 Q-4.85 -11.65 -4.85 -11.35 L-4.85 -11.2 -4.9 -11.35 -5.2 -12.55 -5.25 -12.7 -5.0 -13.1 -4.75 -13.35 M-1.45 -15.65 L-1.5 -15.1 -1.55 -15.0 -1.65 -14.55 -1.65 -14.5 -1.7 -14.45 -2.05 -14.4 Q-2.3 -14.35 -2.45 -14.2 L-2.5 -14.6 -2.55 -14.7 -2.5 -15.05 -2.5 -15.1 Q-2.0 -15.5 -1.45 -15.65 M-5.9 -2.55 L-6.0 -1.8 -6.7 -2.65 -6.7 -2.7 -7.0 -3.05 -7.5 -3.75 -9.85 -6.95 -11.55 -10.0 -11.6 -10.05 -11.6 -10.1 -11.7 -10.25 Q-11.85 -10.75 -12.15 -11.25 -12.5 -12.0 -13.2 -12.9 L-13.15 -13.2 -13.05 -13.55 Q-11.85 -11.75 -10.2 -8.3 L-7.3 -4.45 -6.45 -3.3 -5.9 -2.55 M-6.65 -9.35 L-5.95 -8.45 -5.95 -8.4 Q-5.95 -8.3 -5.85 -8.1 -5.75 -7.85 -5.75 -7.75 L-5.9 -6.7 -6.0 -5.5 -5.95 -4.8 -5.9 -4.6 -6.2 -5.2 -6.85 -6.85 -6.9 -6.95 -6.8 -8.3 Q-6.8 -8.8 -6.65 -9.35 M-6.25 -1.1 Q-5.95 -0.75 -5.8 -0.75 L-5.8 -0.7 -5.95 -0.05 -6.0 0.2 Q-6.05 -0.25 -6.2 -0.95 L-6.25 -1.1 M-6.9 2.65 L-7.05 3.1 -7.1 3.2 -7.4 2.8 -7.6 2.4 -7.8 1.6 -8.05 1.15 Q-8.3 0.55 -8.5 0.2 -8.75 -0.2 -9.2 -1.55 -9.65 -2.9 -9.65 -3.1 -9.65 -3.4 -9.8 -4.2 -10.0 -5.05 -10.0 -5.4 -10.0 -5.75 -10.25 -6.7 L-10.2 -6.6 -9.55 -5.6 -9.45 -5.5 -9.45 -5.45 -9.25 -4.5 Q-9.1 -3.45 -8.9 -2.85 -8.45 -1.4 -7.65 0.0 L-7.4 0.45 Q-7.05 1.6 -6.9 2.7 L-6.9 2.65 M-13.8 8.85 L-13.95 8.85 -14.25 8.8 Q-14.2 8.3 -14.2 8.05 L-14.2 7.9 Q-14.1 7.6 -14.1 7.45 L-14.15 7.2 -13.65 7.2 -12.45 7.15 -12.4 7.15 -11.4 6.95 -10.15 6.8 -10.05 6.75 -8.8 6.65 -8.65 6.6 -8.45 6.6 -8.1 6.5 -7.95 6.45 Q-7.75 6.5 -7.45 6.75 L-6.5 7.85 Q-6.25 8.0 -6.0 8.25 -5.95 8.6 -5.95 9.15 -5.95 9.5 -6.3 10.4 L-6.4 10.7 -6.55 10.6 -6.7 10.55 -6.75 10.5 Q-6.75 10.45 -6.75 10.35 L-6.45 9.6 -6.45 9.4 -6.4 8.8 Q-6.4 8.5 -6.6 8.1 -6.8 7.6 -7.2 7.3 -8.25 6.45 -9.85 7.05 -10.05 7.15 -10.25 7.35 L-10.35 7.5 Q-10.6 7.8 -10.7 8.05 L-10.8 8.25 -10.8 8.3 -10.75 8.35 -10.85 8.6 -10.85 8.95 -11.05 9.0 -11.15 9.0 -11.2 8.8 Q-11.2 8.05 -10.65 7.3 L-10.25 6.85 -11.95 7.35 -12.05 7.4 -12.1 7.4 -12.75 7.6 -13.7 7.85 -13.7 8.4 Q-13.75 8.7 -13.8 8.85 M-5.25 8.85 L-4.1 9.85 Q-3.15 10.7 -2.25 11.6 L-1.85 12.05 -1.35 12.35 Q-0.8 12.7 -0.35 12.9 L-0.45 12.95 Q-0.65 13.1 -0.95 13.4 L-1.05 13.5 Q-1.6 14.05 -1.9 14.4 L-2.95 13.75 -3.0 13.7 Q-3.15 13.55 -3.3 13.45 L-2.95 12.7 -2.6 12.1 -2.65 12.15 -3.25 11.1 Q-3.4 10.85 -3.85 10.35 L-4.05 10.15 -4.9 9.25 -5.2 8.9 -5.25 8.85 M-6.35 8.75 L-6.35 8.75" fill="#0070e0" fill-rule="evenodd" stroke="none"/>
      <path d="M4.85 -11.7 Q5.8 -13.15 7.75 -14.9 L9.95 -16.75 10.0 -16.8 12.3 -18.5 12.45 -18.15 Q11.9 -17.85 11.45 -17.55 10.45 -16.9 9.2 -15.55 L7.25 -13.55 7.3 -13.55 Q7.45 -13.65 9.4 -15.3 10.75 -16.4 11.9 -16.95 L12.85 -17.35 13.1 -16.85 13.2 -16.2 13.2 -16.05 Q11.8 -15.55 10.1 -14.75 7.0 -13.25 4.85 -11.7 M8.7 -21.45 L8.85 -21.3 9.25 -21.05 Q8.2 -19.9 6.55 -17.9 6.3 -17.55 5.35 -16.65 L3.8 -15.05 Q2.65 -13.8 2.2 -12.8 2.15 -12.85 2.15 -12.9 2.15 -13.9 4.5 -17.75 L5.05 -18.7 5.1 -18.8 5.5 -19.3 Q7.1 -21.45 7.6 -22.15 L7.7 -22.1 Q7.3 -21.6 6.95 -21.0 6.5 -20.35 5.45 -18.55 4.55 -16.95 3.95 -16.1 L4.0 -16.1 Q4.8 -16.8 5.85 -18.2 6.95 -19.75 7.55 -20.35 L8.7 -21.45 M2.15 -23.65 Q1.9 -22.6 1.9 -22.45 L1.8 -21.85 1.75 -21.3 0.7 -17.45 0.6 -16.75 0.45 -15.9 0.5 -15.9 0.9 -16.55 1.05 -16.85 Q0.7 -15.7 0.4 -14.5 -0.05 -13.9 -0.45 -13.85 L0.1 -16.65 Q0.7 -19.7 0.8 -20.65 0.9 -21.2 1.4 -23.8 L2.15 -23.65 M1.75 -16.65 L1.85 -17.05 1.9 -16.9 Q2.0 -16.7 2.15 -16.55 L1.75 -16.65 M2.7 -15.55 L2.55 -15.3 2.5 -15.3 1.3 -15.5 1.5 -16.0 Q1.6 -15.9 2.4 -15.65 L2.7 -15.55 M5.0 -14.35 L5.0 -14.3 5.35 -13.95 5.7 -13.7 5.8 -13.75 5.25 -13.25 5.1 -13.65 4.8 -14.1 5.0 -14.35 M6.1 -14.05 L5.7 -14.45 5.65 -14.45 5.85 -14.45 Q6.2 -14.45 7.0 -14.8 L6.1 -14.05 M1.35 -6.8 L1.3 -6.8 Q1.75 -7.35 2.3 -7.8 2.75 -8.15 3.4 -8.5 L5.85 -9.85 Q6.75 -10.4 8.9 -10.85 L10.1 -11.1 12.2 -11.25 12.75 -11.25 12.75 -11.15 11.8 -11.2 Q9.9 -11.2 7.05 -9.95 6.15 -9.6 5.15 -9.1 L4.25 -8.6 Q4.45 -8.65 5.7 -9.2 6.95 -9.65 7.3 -9.65 L9.2 -9.95 Q10.9 -10.3 11.75 -10.3 L12.35 -10.25 Q11.0 -8.95 10.3 -8.95 L7.6 -8.85 Q6.55 -8.85 3.95 -8.0 1.7 -7.25 1.35 -6.8 M7.0 -11.6 L7.05 -11.0 7.1 -11.0 6.0 -10.55 6.1 -10.55 6.2 -11.0 6.35 -11.15 6.9 -11.5 7.0 -11.6 M7.85 -11.25 L7.9 -11.25 7.85 -11.5 Q7.8 -11.9 7.8 -12.0 L7.75 -12.25 Q8.15 -12.55 8.55 -12.75 8.4 -12.45 8.4 -12.15 8.4 -11.9 8.55 -11.6 8.6 -11.55 8.65 -11.45 L8.5 -11.4 7.85 -11.25 M4.45 -6.95 Q3.9 -6.25 3.6 -5.65 L5.05 -6.15 5.6 -7.2 5.7 -7.25 Q5.5 -6.95 5.5 -6.65 L5.5 -6.55 5.45 -6.55 Q5.45 -6.4 5.2 -6.2 3.8 -5.75 2.25 -5.05 L3.4 -6.3 3.95 -6.85 4.45 -6.95 M-2.4 -1.5 L-1.65 -2.4 Q-1.25 -2.75 -0.3 -3.3 0.35 -3.65 1.1 -4.0 L1.15 -4.05 Q2.45 -4.65 4.75 -5.45 L7.55 -6.4 7.9 -6.45 8.8 -6.55 Q8.4 -6.3 7.9 -5.9 6.3 -5.7 4.5 -5.2 2.3 -4.55 1.35 -3.95 1.05 -3.75 0.9 -3.5 L0.95 -3.5 Q1.15 -3.65 1.7 -3.8 2.5 -4.1 4.0 -4.5 5.8 -4.95 6.85 -5.15 L6.6 -4.95 5.75 -4.3 Q4.25 -4.05 2.45 -3.55 L1.25 -3.15 Q-0.55 -2.6 -1.65 -2.0 L-2.4 -1.5 M2.15 -2.2 L1.8 -1.9 Q1.2 -1.4 -0.05 -0.75 -1.8 0.25 -2.2 0.45 -2.65 0.75 -4.45 1.35 -5.9 1.9 -6.6 2.45 -6.25 1.4 -4.85 0.4 L-3.55 -0.4 -3.5 -0.4 -3.4 -0.45 -3.2 -0.4 -2.8 -0.45 -5.2 1.15 -5.2 1.2 Q-4.2 0.65 -2.2 -0.25 0.1 -1.25 0.9 -1.65 L1.7 -2.1 2.15 -2.2 M-3.1 -17.7 L-3.1 -17.25 -3.2 -14.4 Q-3.2 -14.1 -3.1 -13.25 -3.15 -13.15 -3.25 -13.05 L-3.45 -13.7 Q-3.9 -15.15 -3.9 -15.5 -3.9 -15.65 -4.25 -16.9 L-4.65 -18.1 Q-4.65 -18.35 -4.75 -18.8 -4.85 -19.3 -5.0 -20.05 L-5.35 -21.4 Q-5.35 -21.85 -5.4 -22.65 L-5.3 -22.7 -5.35 -22.8 -5.45 -22.9 -5.45 -22.95 -4.8 -23.15 -4.9 -23.1 -4.85 -22.9 Q-4.45 -21.6 -4.25 -20.8 L-4.1 -20.15 -3.75 -18.9 -3.75 -18.9 -3.65 -18.15 -3.35 -15.4 -3.3 -15.4 -3.15 -16.9 -3.1 -17.7 M-9.55 -19.85 L-9.65 -19.7 -9.65 -19.65 Q-9.45 -18.6 -9.35 -18.3 -8.95 -17.05 -7.95 -15.3 -7.25 -14.0 -6.45 -12.85 L-6.45 -12.9 Q-6.45 -13.8 -7.15 -15.4 L-7.1 -15.5 -7.4 -16.4 -7.3 -16.3 -6.8 -15.0 Q-5.55 -11.75 -5.05 -10.65 L-5.05 -10.4 -4.95 -9.8 -4.9 -9.25 -5.25 -9.75 Q-6.45 -11.45 -7.85 -13.3 -8.75 -14.85 -10.6 -18.2 L-10.7 -18.4 -10.0 -19.3 -9.55 -19.85 M-6.2 -15.3 L-6.45 -16.1 Q-6.25 -16.15 -6.1 -16.3 -5.85 -16.35 -5.7 -16.65 L-5.6 -16.1 -5.8 -15.9 Q-6.05 -15.6 -6.2 -15.3 M-5.3 -15.1 L-5.0 -14.1 -4.75 -13.35 -5.0 -13.1 -5.25 -12.7 -5.2 -12.55 Q-5.45 -13.4 -5.85 -14.45 L-5.3 -15.1 M-1.4 -16.45 L-1.4 -16.35 -1.45 -15.65 Q-2.0 -15.5 -2.5 -15.1 L-2.5 -15.05 -2.45 -16.15 Q-2.15 -16.2 -1.9 -16.3 -1.65 -16.4 -1.4 -16.45 M-2.45 -16.85 L-2.4 -17.5 Q-2.1 -17.25 -1.65 -17.25 -1.45 -17.25 -1.25 -17.4 L-1.3 -17.2 Q-1.7 -17.15 -2.25 -16.9 L-2.45 -16.85 M-12.7 -14.75 Q-11.25 -12.3 -9.75 -9.9 -8.15 -7.4 -7.05 -5.75 L-6.2 -4.0 -5.95 -3.4 Q-5.85 -3.05 -5.85 -2.95 L-5.9 -2.55 -6.45 -3.3 -7.3 -4.45 -10.2 -8.3 Q-11.85 -11.75 -13.05 -13.55 L-13.05 -13.6 Q-12.9 -14.25 -12.7 -14.75 M-8.5 -10.1 L-9.1 -11.1 -9.25 -11.4 Q-9.05 -11.5 -8.95 -11.7 -8.9 -11.9 -8.85 -12.2 L-8.85 -12.6 -8.4 -11.9 -8.25 -11.65 Q-8.5 -10.85 -8.5 -10.35 L-8.5 -10.1 M-7.5 -10.5 L-6.65 -9.35 Q-6.8 -8.8 -6.8 -8.3 L-6.9 -6.95 Q-7.3 -7.85 -7.9 -8.95 -7.8 -9.2 -7.65 -9.85 L-7.5 -10.5 M-6.8 -1.75 L-6.25 -1.1 -6.2 -0.95 Q-6.05 -0.25 -6.0 0.2 L-5.95 -0.05 Q-6.2 0.9 -6.55 1.9 L-6.6 2.05 -6.65 2.05 -6.9 2.65 -6.9 2.7 Q-7.05 1.6 -7.4 0.45 L-7.65 0.0 Q-8.45 -1.4 -8.9 -2.85 -9.1 -3.45 -9.25 -4.5 L-9.45 -5.45 -8.6 -4.3 Q-8.6 -3.45 -8.0 -2.55 L-7.55 -1.65 -7.25 -1.1 -6.85 -0.35 -6.85 -0.25 -6.75 0.25 Q-6.7 0.6 -6.7 0.7 L-6.7 0.8 -6.6 0.8 -6.6 0.35 -6.5 0.25 -6.55 -0.15 -6.55 -0.45 Q-6.55 -1.0 -6.8 -1.75 M-6.0 8.25 L-5.25 8.85 -5.2 8.9 -4.9 9.25 -5.35 10.2 Q-5.6 10.55 -6.2 10.9 L-6.4 10.7 -6.3 10.4 Q-5.95 9.5 -5.95 9.15 -5.95 8.6 -6.0 8.25 M-3.3 13.45 L-4.0 12.85 -4.6 12.3 -4.7 11.9 Q-4.7 10.95 -3.85 10.35 -3.4 10.85 -3.25 11.1 L-2.65 12.15 -2.6 12.1 -2.95 12.7 -3.3 13.45 M-11.15 9.0 L-11.6 9.05 -12.2 9.05 -12.1 9.05 Q-12.05 8.85 -12.05 8.75 L-11.95 7.85 Q-11.95 7.65 -11.85 7.35 L-11.95 7.35 -10.25 6.85 -10.65 7.3 Q-11.2 8.05 -11.2 8.8 L-11.15 9.0 M-12.85 9.05 L-13.6 8.95 -13.8 8.85 Q-13.75 8.7 -13.7 8.4 L-13.7 7.85 -12.75 7.6 Q-12.95 8.05 -12.95 8.5 L-12.85 9.05" fill="#80c0f0" fill-rule="evenodd" stroke="none"/>
      <path d="M8.4 -7.45 L8.5 -7.5 8.55 -7.15 6.95 -6.8 6.4 -6.7 6.25 -6.8 Q6.25 -6.95 6.75 -7.25 L8.4 -7.45 M-0.65 7.35 Q-0.65 6.55 -0.5 5.75 L-0.4 5.35 -0.35 5.25 -0.4 5.3 -0.35 5.15 Q0.2 5.35 0.9 5.35 1.7 5.35 3.1 4.6 L3.55 4.45 Q3.95 4.25 4.65 3.75 5.3 3.3 7.2 2.0 6.9 2.85 6.4 3.75 L6.05 4.45 6.0 4.5 Q5.4 5.55 4.65 6.6 L3.45 8.2 3.3 8.3 3.3 8.35 Q2.05 9.0 0.9 9.0 L-1.6 8.9 Q-1.45 8.9 -1.45 8.95 L0.0 9.15 1.85 9.35 2.6 9.25 Q2.5 9.5 2.5 9.7 L2.55 10.35 2.6 11.15 2.3 11.3 Q1.05 11.1 -1.25 9.55 L-1.85 9.15 Q-3.3 8.1 -4.0 7.45 L-5.05 6.3 Q-5.5 5.75 -5.7 5.4 -5.9 4.8 -6.35 4.4 L-5.55 4.05 -5.55 4.0 -5.5 4.05 -5.4 4.4 Q-5.25 4.95 -5.0 5.4 -4.55 6.3 -4.05 6.65 L-4.05 6.7 Q-2.45 8.5 0.05 8.5 L0.8 8.45 1.05 8.45 1.6 8.35 4.3 6.9 4.55 6.6 Q5.1 5.85 5.4 4.7 L5.45 4.55 5.55 4.05 5.55 4.0 5.65 3.5 5.6 3.5 Q5.55 3.85 5.4 4.15 L5.35 4.25 Q5.15 4.75 4.8 5.2 L4.15 5.85 Q2.55 7.4 0.15 7.4 L-0.65 7.35 M2.35 3.2 L1.4 3.3 1.3 3.3 0.4 3.15 0.35 3.1 0.55 2.7 0.65 2.45 1.05 2.65 Q1.7 3.0 2.35 3.2 M1.9 0.05 L2.1 -0.3 2.4 -1.1 Q3.7 -2.05 4.6 -2.8 L4.75 -2.95 5.15 -3.1 5.35 -3.05 Q5.85 -3.05 8.1 -4.9 L8.7 -5.35 Q8.35 -4.6 8.35 -3.9 L8.35 -3.8 Q8.15 -3.15 8.15 -2.6 L8.1 -1.9 7.9 -1.6 7.85 -1.5 Q4.8 -1.5 2.2 0.0 L1.85 0.2 1.9 0.05 M-14.65 -2.75 Q-14.25 -2.4 -13.75 -2.1 L-13.2 -1.75 -13.45 -1.25 Q-14.6 -1.95 -14.65 -2.75 M-11.6 3.3 L-11.45 3.3 Q-12.4 2.35 -12.55 0.85 L-12.55 1.0 -12.5 0.75 Q-12.2 -0.8 -11.9 -1.4 L-12.0 -1.15 Q-11.35 -1.05 -10.6 -1.05 L-9.8 -1.1 -9.55 -0.3 Q-9.05 1.05 -8.45 2.25 L-8.0 3.05 -8.35 3.15 -8.8 3.3 -9.5 3.45 -10.6 3.55 Q-11.1 3.45 -11.6 3.3 M-15.6 -1.5 L-15.65 -1.4 Q-15.5 -1.15 -15.3 -0.8 -14.8 0.05 -14.15 0.35 -14.05 1.0 -14.05 1.1 L-13.95 1.95 Q-14.7 1.35 -15.15 0.55 -15.65 -0.25 -15.65 -1.0 L-15.6 -1.5 M-0.05 0.6 L-0.15 0.7 -0.7 1.7 Q-2.4 5.05 -2.4 6.35 L-2.4 6.7 -3.4 6.0 -3.75 5.65 -3.85 5.5 Q-4.55 4.35 -4.6 3.5 -3.1 2.65 -0.85 1.15 L-0.05 0.6 M-9.65 4.15 L-9.05 4.0 -8.45 3.8 -7.75 3.5 -7.65 3.7 -7.65 3.75 Q-8.15 3.9 -9.0 4.25 L-9.15 4.35 Q-10.45 4.85 -11.25 4.85 L-13.05 5.0 Q-13.35 5.0 -14.3 4.6 -15.15 4.25 -15.3 4.15 L-14.95 3.85 Q-14.5 3.5 -14.4 3.1 -13.1 4.1 -11.25 4.1 L-10.4 4.2 -9.85 4.15 -9.65 4.15" fill="#b00000" fill-rule="evenodd" stroke="none"/>
      <path d="M0.35 0.35 Q-0.55 2.2 -1.2 4.0 -1.9 5.95 -1.9 6.6 L-1.85 6.95 -2.4 6.7 -2.4 6.35 Q-2.4 5.05 -0.7 1.7 L-0.15 0.7 -0.05 0.6 0.35 0.35 M-0.35 5.15 L-0.3 5.0 -0.2 4.65 Q0.2 4.8 0.8 4.8 2.1 4.8 4.15 3.65 5.45 2.9 6.1 2.35 L6.95 1.5 Q7.2 1.15 7.5 0.95 L7.3 1.75 7.25 1.85 7.2 2.0 Q5.3 3.3 4.65 3.75 3.95 4.25 3.55 4.45 L3.1 4.6 Q1.7 5.35 0.9 5.35 0.2 5.35 -0.35 5.15 M7.75 -0.2 Q6.7 0.3 5.95 1.0 4.85 1.95 4.2 2.4 3.3 3.0 2.35 3.2 1.7 3.0 1.05 2.65 L0.65 2.45 0.75 2.2 1.0 1.8 1.9 0.05 1.85 0.2 2.2 0.0 Q4.8 -1.5 7.85 -1.5 L7.9 -1.6 8.1 -1.9 8.1 -1.85 7.75 -0.2 M-14.25 -3.6 L-13.85 -3.85 -13.5 -4.1 Q-12.45 -4.8 -12.05 -5.35 -11.65 -5.8 -11.5 -6.4 L-11.35 -6.45 -11.3 -6.35 -10.9 -4.9 -10.85 -4.8 -10.85 -4.65 Q-11.25 -4.2 -11.65 -3.9 -12.3 -3.4 -13.0 -2.2 L-13.05 -2.1 -13.05 -2.05 -13.2 -1.75 -13.75 -2.1 Q-14.25 -2.4 -14.65 -2.75 L-14.65 -2.8 Q-14.65 -2.9 -14.5 -3.2 L-14.3 -3.5 -14.25 -3.6 M-15.5 -2.0 L-15.55 -1.9 Q-15.35 -1.45 -14.9 -0.95 -14.4 -0.25 -13.75 0.0 L-13.75 0.45 Q-13.65 1.45 -13.3 2.45 L-13.8 2.1 -13.95 1.95 -14.05 1.1 Q-14.05 1.0 -14.15 0.35 -14.8 0.05 -15.3 -0.8 -15.5 -1.15 -15.65 -1.4 L-15.6 -1.5 -15.55 -1.8 -15.55 -1.9 -15.5 -2.0 M-12.55 0.85 L-12.65 0.0 Q-12.65 -0.95 -11.95 -1.9 -11.5 -2.5 -10.5 -3.45 L-10.5 -3.4 -10.35 -2.9 -10.25 -2.6 -10.25 -2.55 -10.05 -1.95 -9.8 -1.1 -10.6 -1.05 Q-11.35 -1.05 -12.0 -1.15 L-11.9 -1.4 Q-12.2 -0.8 -12.5 0.75 L-12.55 1.0 -12.55 0.85" fill="#ff9999" fill-rule="evenodd" stroke="none"/>
      <path d="M12.45 -18.15 L12.85 -17.35 11.9 -16.95 Q10.75 -16.4 9.4 -15.3 7.45 -13.65 7.3 -13.55 L7.25 -13.55 9.2 -15.55 Q10.45 -16.9 11.45 -17.55 11.9 -17.85 12.45 -18.15 M7.7 -22.1 L8.35 -21.7 8.7 -21.45 7.55 -20.35 Q6.95 -19.75 5.85 -18.2 4.8 -16.8 4.0 -16.1 L3.95 -16.1 Q4.55 -16.95 5.45 -18.55 6.5 -20.35 6.95 -21.0 7.3 -21.6 7.7 -22.1 M2.15 -23.65 L2.2 -23.65 2.65 -23.6 2.9 -23.55 3.25 -23.5 2.5 -21.25 Q1.2 -17.4 1.2 -17.3 L1.05 -16.85 0.9 -16.55 0.5 -15.9 0.45 -15.9 0.6 -16.75 0.7 -17.45 1.75 -21.3 1.8 -21.85 1.9 -22.45 Q1.9 -22.6 2.15 -23.65 M1.75 -16.65 L2.15 -16.55 2.3 -16.45 2.85 -16.3 2.95 -16.25 2.95 -16.0 2.75 -15.65 2.7 -15.55 2.4 -15.65 Q1.6 -15.9 1.5 -16.0 L1.75 -16.65 M5.8 -13.75 L5.7 -13.7 5.35 -13.95 5.0 -14.3 5.0 -14.35 5.25 -14.6 5.3 -14.6 5.65 -14.45 5.7 -14.45 6.1 -14.05 5.8 -13.75 M12.35 -10.25 L11.75 -10.3 Q10.9 -10.3 9.2 -9.95 L7.3 -9.65 Q6.95 -9.65 5.7 -9.2 4.45 -8.65 4.25 -8.6 L5.15 -9.1 Q6.15 -9.6 7.05 -9.95 9.9 -11.2 11.8 -11.2 L12.75 -11.15 Q12.65 -10.8 12.4 -10.3 L12.35 -10.25 M7.1 -11.0 L7.05 -11.0 7.0 -11.6 7.5 -12.05 7.75 -12.25 7.8 -12.0 Q7.8 -11.9 7.85 -11.5 L7.9 -11.25 7.85 -11.25 7.1 -11.0 M4.45 -6.95 L5.2 -7.15 5.6 -7.2 5.05 -6.15 3.6 -5.65 Q3.9 -6.25 4.45 -6.95 M7.9 -5.9 L7.8 -5.85 7.75 -5.8 6.85 -5.15 Q5.8 -4.95 4.0 -4.5 2.5 -4.1 1.7 -3.8 1.15 -3.65 0.95 -3.5 L0.9 -3.5 Q1.05 -3.75 1.35 -3.95 2.3 -4.55 4.5 -5.2 6.3 -5.7 7.9 -5.9 M-4.0 -23.35 Q-3.65 -21.8 -3.5 -21.1 L-3.4 -20.5 -3.3 -20.05 -3.3 -20.0 -3.25 -19.85 -3.25 -19.65 -3.2 -19.6 -3.2 -19.45 -3.15 -19.15 -3.15 -18.7 -3.2 -18.6 -3.1 -17.85 -3.1 -17.7 -3.15 -16.9 -3.3 -15.4 -3.35 -15.4 -3.65 -18.15 -3.75 -18.9 -4.1 -20.15 -4.25 -20.8 Q-4.45 -21.6 -4.85 -22.9 L-4.9 -23.1 -4.8 -23.15 -4.0 -23.35 M-3.15 -18.7 L-3.75 -18.9 -3.15 -18.7 M-7.4 -16.4 L-7.1 -15.5 -7.15 -15.4 Q-6.45 -13.8 -6.45 -12.9 L-6.45 -12.85 Q-7.25 -14.0 -7.95 -15.3 -8.95 -17.05 -9.35 -18.3 -9.45 -18.6 -9.65 -19.65 L-9.65 -19.7 -9.55 -19.85 -9.3 -20.15 -9.2 -20.25 -9.2 -20.3 -9.15 -20.3 -9.05 -20.35 -9.0 -20.2 -9.0 -20.1 Q-8.7 -19.75 -8.4 -19.25 L-7.7 -17.5 -7.4 -16.4 M-6.2 -15.3 Q-6.05 -15.6 -5.8 -15.9 L-5.6 -16.1 -5.55 -16.0 -5.3 -15.1 -5.85 -14.45 -6.15 -15.15 -6.2 -15.3 M-1.3 -17.2 L-1.35 -17.05 -1.4 -16.45 Q-1.65 -16.4 -1.9 -16.3 -2.15 -16.2 -2.45 -16.15 L-2.45 -16.85 -2.25 -16.9 Q-1.7 -17.15 -1.3 -17.2 M-12.7 -14.75 L-12.65 -14.85 -12.5 -15.2 -11.75 -13.75 Q-11.35 -13.25 -10.85 -12.35 L-10.55 -11.8 -10.35 -11.65 Q-9.4 -9.9 -9.0 -9.25 -8.0 -7.75 -7.15 -5.95 L-7.05 -5.75 Q-8.15 -7.4 -9.75 -9.9 -11.25 -12.3 -12.7 -14.75 M-8.5 -10.1 L-8.5 -10.35 Q-8.5 -10.85 -8.25 -11.65 L-7.5 -10.5 -7.65 -9.85 Q-7.8 -9.2 -7.9 -8.95 L-8.5 -10.1 M-8.6 -4.3 L-8.35 -4.0 -8.3 -3.95 -7.9 -3.3 -7.15 -2.25 -7.05 -2.15 -6.95 -1.95 -6.8 -1.75 Q-6.55 -1.0 -6.55 -0.45 L-6.55 -0.15 -6.5 0.25 -6.6 0.35 -6.6 0.8 -6.7 0.8 -6.7 0.7 Q-6.7 0.6 -6.75 0.25 L-6.85 -0.25 -6.85 -0.35 -7.25 -1.1 -7.55 -1.65 -8.0 -2.55 Q-8.6 -3.45 -8.6 -4.3 M-4.6 12.3 L-4.65 12.25 -6.2 10.9 Q-5.6 10.55 -5.35 10.2 L-4.9 9.25 -4.05 10.15 -3.85 10.35 Q-4.7 10.95 -4.7 11.9 L-4.6 12.3 M-12.2 9.05 L-12.5 9.1 -12.55 9.1 -12.85 9.05 -12.95 8.5 Q-12.95 8.05 -12.75 7.6 L-12.1 7.4 -12.05 7.4 -11.95 7.35 -11.85 7.35 Q-11.95 7.65 -11.95 7.85 L-12.05 8.75 Q-12.05 8.85 -12.1 9.05 L-12.2 9.05" fill="#d0f0f0" fill-rule="evenodd" stroke="none"/>
    </g>
  </defs>
</svg>
