<?xml version="1.0" encoding="UTF-8" standalone="no"?>
<svg xmlns:ffdec="https://www.free-decompiler.com/flash" xmlns:xlink="http://www.w3.org/1999/xlink" ffdec:objectType="frame" height="14.45px" width="922.25px" xmlns="http://www.w3.org/2000/svg">
  <g transform="matrix(1.0, 0.0, 0.0, 1.0, 2.5, 0.0)">
    <use ffdec:characterId="133" height="14.45" transform="matrix(1.0, 0.0, 0.0, 1.0, -2.5, 0.0)" width="922.25" xlink:href="#shape0"/>
  </g>
  <defs>
    <g id="shape0" transform="matrix(1.0, 0.0, 0.0, 1.0, 2.5, 0.0)">
      <path d="M9.0 7.25 L0.0 5.2 Q1.05 4.25 5.3 2.95 10.4 1.45 14.8 1.45 L23.0 1.9 Q26.25 2.2 46.1 1.65 L69.3 1.65 Q72.55 2.3 96.25 1.65 L128.0 0.8 150.85 1.9 Q170.55 3.2 176.4 4.55 L297.95 4.55 307.8 3.35 320.05 2.1 336.65 1.95 Q337.5 1.75 345.2 1.75 352.9 1.75 353.85 1.95 L464.3 1.95 469.9 1.4 476.0 0.8 495.0 0.65 496.3 0.4 497.25 0.15 561.8 0.15 563.8 0.65 608.8 0.8 609.5 0.9 608.85 0.8 633.95 0.0 635.9 0.5 661.65 0.5 684.1 1.7 695.75 2.95 740.2 2.95 746.8 2.35 753.75 1.8 802.75 1.8 811.15 3.0 833.05 3.0 Q839.95 1.3 858.15 0.6 868.8 0.15 878.15 0.15 895.45 0.15 896.5 0.4 L900.1 0.65 907.55 1.6 Q915.65 2.8 919.75 4.45 916.9 5.65 911.85 6.95 L909.6 6.9 895.2 6.4 867.15 6.15 860.85 6.05 777.75 6.25 Q776.95 6.55 748.1 6.9 L739.3 7.45 735.8 7.6 730.3 7.9 698.6 7.9 691.15 7.6 690.55 7.6 682.7 7.25 641.25 6.55 634.2 6.35 616.75 6.1 615.7 6.1 615.65 6.1 592.4 5.9 Q591.55 5.6 556.65 5.4 L540.15 4.75 536.6 4.75 534.1 5.25 516.05 5.25 514.95 5.0 509.25 5.75 493.2 6.4 493.4 6.65 491.0 6.55 476.7 5.6 443.35 5.6 Q443.1 5.4 432.0 5.3 L409.7 5.15 409.05 5.4 382.55 5.75 363.7 6.55 349.1 6.9 318.1 7.1 Q317.3 7.4 259.45 7.75 L244.0 8.25 197.45 7.9 Q196.0 7.5 187.3 7.75 L165.35 7.75 Q152.7 6.8 139.95 7.25 L135.3 7.0 98.5 7.1 94.55 7.4 94.35 7.4 80.65 7.1 77.2 7.05 76.2 6.9 69.2 6.4 69.05 6.4 68.9 6.4 60.35 5.95 52.3 5.95 Q47.7 5.65 42.95 5.95 L39.7 6.2 Q37.9 5.5 32.9 6.2 L26.35 7.05 23.2 7.1 20.75 6.55 20.7 6.35 Q20.6 6.3 20.6 6.75 L20.8 7.1 9.0 7.25 M902.8 8.95 L890.45 11.05 Q868.7 14.45 856.25 14.45 L818.95 12.85 791.9 10.8 754.4 10.95 748.25 11.5 741.5 12.1 695.1 12.1 688.8 11.2 685.5 11.8 621.65 11.8 615.15 11.2 608.9 10.65 569.7 10.55 568.15 10.65 563.65 11.05 546.9 11.05 539.1 10.45 533.85 10.0 497.6 10.0 495.3 10.5 488.4 10.55 477.6 11.6 468.6 11.45 465.0 11.8 353.55 11.8 345.8 11.55 338.1 11.8 320.85 11.95 298.75 14.3 175.7 14.3 Q169.7 13.2 149.8 11.85 L128.25 10.65 91.85 12.45 67.85 11.15 46.1 10.95 37.5 11.2 34.45 11.45 Q28.3 11.45 19.35 9.65 L52.55 9.4 53.95 9.3 62.1 9.3 61.6 9.05 66.6 9.05 70.6 9.35 73.25 9.55 97.75 9.55 107.5 9.25 116.7 9.2 116.75 9.2 124.2 8.55 124.2 8.4 155.7 8.4 161.85 9.35 165.35 9.7 187.3 9.7 198.3 10.5 244.0 10.5 248.75 10.15 256.3 9.7 316.9 9.7 Q317.4 9.5 333.3 9.3 L349.1 9.2 372.15 8.7 382.55 8.05 409.05 7.75 Q409.45 7.55 425.95 7.35 L442.35 7.25 446.5 7.7 450.3 7.9 476.5 8.25 478.65 8.05 516.05 7.75 517.25 7.8 517.25 7.7 530.25 6.9 538.75 7.5 556.65 8.05 591.75 8.25 Q592.4 8.45 616.4 8.7 L640.3 8.9 641.1 9.2 682.2 9.2 690.15 9.85 690.65 9.9 698.45 10.4 730.05 10.4 739.1 10.0 747.45 9.75 762.6 9.4 777.1 9.2 Q777.6 9.0 810.6 8.85 L843.5 8.7 858.9 8.7 858.9 9.15 861.8 8.75 872.6 9.0 893.15 9.0 902.8 8.95" fill="#d5dfbb" fill-rule="evenodd" stroke="none"/>
      <path d="M911.85 6.95 Q917.4 7.1 919.15 7.85 L902.8 8.95 893.15 9.0 872.6 9.0 861.8 8.75 858.9 9.15 858.9 8.7 843.5 8.7 810.6 8.85 Q777.6 9.0 777.1 9.2 L762.6 9.4 747.45 9.75 739.1 10.0 730.05 10.4 698.45 10.4 690.65 9.9 690.15 9.85 682.2 9.2 641.1 9.2 640.3 8.9 616.4 8.7 Q592.4 8.45 591.75 8.25 L556.65 8.05 538.75 7.5 530.25 6.9 517.25 7.7 517.25 7.8 516.05 7.75 478.65 8.05 476.5 8.25 450.3 7.9 446.5 7.7 442.35 7.25 425.95 7.35 Q409.45 7.55 409.05 7.75 L382.55 8.05 372.15 8.7 349.1 9.2 333.3 9.3 Q317.4 9.5 316.9 9.7 L256.3 9.7 248.75 10.15 244.0 10.5 198.3 10.5 187.3 9.7 165.35 9.7 161.85 9.35 155.7 8.4 124.2 8.4 124.2 8.55 116.75 9.2 116.7 9.2 107.5 9.25 97.75 9.55 73.25 9.55 70.6 9.35 66.6 9.05 61.6 9.05 62.1 9.3 53.95 9.3 52.55 9.4 19.35 9.65 13.45 9.65 2.35 9.25 Q-2.2 9.0 -2.5 8.5 L-2.15 7.55 9.0 7.25 20.8 7.1 20.6 6.75 Q20.6 6.3 20.7 6.35 L20.75 6.55 23.2 7.1 26.35 7.05 32.9 6.2 Q37.9 5.5 39.7 6.2 L42.95 5.95 Q47.7 5.65 52.3 5.95 L60.35 5.95 68.9 6.4 69.05 6.4 69.2 6.4 76.2 6.9 77.2 7.05 80.65 7.1 94.35 7.4 94.55 7.4 98.5 7.1 135.3 7.0 139.95 7.25 Q152.7 6.8 165.35 7.75 L187.3 7.75 Q196.0 7.5 197.45 7.9 L244.0 8.25 259.45 7.75 Q317.3 7.4 318.1 7.1 L349.1 6.9 363.7 6.55 382.55 5.75 409.05 5.4 409.7 5.15 432.0 5.3 Q443.1 5.4 443.35 5.6 L476.7 5.6 491.0 6.55 493.4 6.65 493.2 6.4 509.25 5.75 514.95 5.0 516.05 5.25 534.1 5.25 536.6 4.75 540.15 4.75 556.65 5.4 Q591.55 5.6 592.4 5.9 L615.65 6.1 615.7 6.1 616.75 6.1 634.2 6.35 641.25 6.55 682.7 7.25 690.55 7.6 691.15 7.6 698.6 7.9 730.3 7.9 735.8 7.6 739.3 7.45 748.1 6.9 Q776.95 6.55 777.75 6.25 L860.85 6.05 867.15 6.15 895.2 6.4 909.6 6.9 911.85 6.95" fill="#89a34e" fill-rule="evenodd" stroke="none"/>
    </g>
  </defs>
</svg>
