<?xml version="1.0" encoding="UTF-8" standalone="no"?>
<svg xmlns:ffdec="https://www.free-decompiler.com/flash" xmlns:xlink="http://www.w3.org/1999/xlink" ffdec:objectType="frame" height="643.95px" width="650.0px" xmlns="http://www.w3.org/2000/svg">
  <g transform="matrix(1.0, 0.0, 0.0, 1.0, 342.2, 391.7)">
    <use ffdec:characterId="336" ffdec:characterName="a_WingFall4" height="248.5" transform="matrix(-0.0219, -0.9998, 0.9998, -0.0219, -209.4678, -38.8076)" width="84.0" xlink:href="#sprite0"/>
    <use ffdec:characterId="334" ffdec:characterName="a_WingFall5" height="203.7" transform="matrix(-0.0219, -0.9998, 0.9998, -0.0219, -157.7403, 24.6089)" width="87.5" xlink:href="#sprite1"/>
    <use ffdec:characterId="347" ffdec:characterName="a_Body04" height="129.15" transform="matrix(0.959, -0.2833, 0.2833, 0.959, 4.8391, -98.0433)" width="106.05" xlink:href="#sprite2"/>
  </g>
  <defs>
    <g id="sprite0" transform="matrix(1.0, 0.0, 0.0, 1.0, 42.0, 248.5)">
      <use ffdec:characterId="335" height="35.5" transform="matrix(7.0, 0.0, 0.0, 7.0, -42.0, -248.5)" width="12.0" xlink:href="#shape0"/>
    </g>
    <g id="shape0" transform="matrix(1.0, 0.0, 0.0, 1.0, 6.0, 35.5)">
      <path d="M0.9 -28.9 L1.3 -28.55 Q1.55 -28.3 1.65 -27.9 L0.9 -28.9 M2.35 -25.3 L2.2 -25.4 1.9 -25.95 Q0.75 -28.0 -0.8 -29.7 -1.9 -31.2 -2.95 -32.6 L-2.25 -32.05 Q1.15 -29.25 2.35 -25.3 M3.75 -12.8 Q5.1 -18.0 4.75 -23.3 L4.6 -23.45 4.6 -23.7 5.0 -23.65 4.9 -22.8 Q5.9 -17.8 3.75 -12.8 M5.35 -24.75 L5.35 -27.1 5.5 -27.2 5.55 -27.05 Q5.9 -25.9 5.35 -24.75 M4.6 -25.65 L4.6 -25.4 4.55 -25.45 4.55 -25.5 4.6 -25.65 M4.4 -25.55 Q4.15 -25.75 4.0 -26.1 2.85 -29.4 0.35 -31.75 0.1 -31.8 -0.15 -31.95 -1.75 -32.8 -3.3 -33.8 L-3.45 -33.9 -3.85 -34.1 -5.05 -34.7 -5.35 -35.05 -5.2 -35.15 Q-2.35 -34.1 0.0 -32.15 3.2 -29.5 4.4 -25.55 M-2.2 -32.25 L-1.3 -31.3 -3.5 -33.35 -3.55 -33.4 -2.7 -32.7 -2.2 -32.25" fill="#660033" fill-rule="evenodd" stroke="none"/>
      <path d="M1.65 -27.9 Q1.55 -28.3 1.3 -28.55 L0.9 -28.9 -1.3 -31.3 -2.2 -32.25 Q0.9 -29.95 2.9 -26.6 3.15 -26.2 3.4 -25.85 1.95 -29.7 -1.25 -32.3 -2.25 -33.1 -3.3 -33.8 -1.75 -32.8 -0.15 -31.95 0.1 -31.8 0.35 -31.75 2.85 -29.4 4.0 -26.1 4.15 -25.75 4.4 -25.55 L4.45 -25.45 4.5 -25.4 4.55 -25.4 4.55 -25.5 4.55 -25.45 4.6 -25.4 4.6 -25.65 5.35 -27.1 5.35 -24.75 Q5.15 -23.95 4.4 -23.95 L4.15 -23.95 Q3.75 -24.4 3.85 -25.1 L3.4 -25.8 Q3.3 -23.95 4.6 -23.7 L4.6 -23.45 4.75 -23.3 Q5.1 -18.0 3.75 -12.8 L3.55 -12.35 3.65 -12.3 2.25 -9.1 2.3 -8.8 Q0.15 -5.0 -1.9 -1.2 L-2.05 -1.1 Q-2.05 -0.95 -2.15 -0.8 -2.25 -0.75 -2.35 -0.7 L-2.55 -0.65 -2.95 -0.6 -3.25 -0.7 -3.65 -0.8 -3.95 -0.75 -4.05 -0.75 -4.2 -1.05 -4.1 -1.15 -4.3 -1.25 Q-4.45 -1.85 -4.05 -2.35 L-3.8 -2.6 Q-3.6 -2.7 -3.35 -2.7 L-3.2 -2.55 -3.25 -2.35 Q-0.3 -6.25 1.8 -10.95 L1.0 -10.05 Q0.0 -7.95 -1.25 -6.05 L-1.3 -6.05 Q-0.35 -7.55 0.1 -9.2 L0.15 -9.3 0.1 -9.4 Q-0.05 -9.7 -0.3 -9.9 L-0.7 -10.05 Q-1.05 -10.2 -1.35 -10.15 1.7 -11.7 2.5 -14.95 3.45 -18.65 0.2 -19.35 L0.35 -19.75 Q0.25 -19.5 -0.05 -19.4 L-0.1 -19.35 -0.2 -19.35 -0.5 -19.25 0.7 -20.95 Q0.4 -20.55 0.0 -20.2 1.7 -23.45 0.55 -26.95 0.05 -28.4 -0.8 -29.7 0.75 -28.0 1.9 -25.95 L2.2 -25.4 2.35 -25.3 2.45 -25.25 2.6 -25.0 Q2.55 -26.45 1.65 -27.9 M5.05 -26.15 Q4.75 -25.7 4.7 -25.1 L4.6 -24.45 Q4.9 -24.6 5.0 -24.9 5.15 -25.5 5.05 -26.15 M2.25 -24.3 Q2.05 -23.25 1.6 -22.35 L2.05 -23.05 Q2.45 -23.65 2.25 -24.3 M2.75 -23.4 L2.45 -22.65 Q1.95 -21.6 1.2 -20.75 L1.55 -21.05 Q1.9 -21.4 2.1 -21.85 2.35 -22.5 2.9 -22.95 L2.95 -22.9 Q3.55 -21.75 3.4 -20.05 3.35 -19.55 3.5 -19.05 L3.6 -19.0 Q3.75 -21.05 3.55 -23.05 L3.2 -23.35 2.75 -23.4 M3.5 -15.55 Q3.05 -12.45 1.95 -9.5 3.55 -11.75 4.1 -14.45 4.95 -18.7 4.35 -22.9 4.05 -19.2 3.5 -15.55 M-5.05 -34.7 L-3.85 -34.1 -2.7 -32.7 -3.55 -33.4 -3.5 -33.35 -5.05 -34.7" fill="#663366" fill-rule="evenodd" stroke="none"/>
      <path d="M0.9 -28.9 L1.65 -27.9 Q2.55 -26.45 2.6 -25.0 L2.45 -25.25 2.35 -25.3 Q1.15 -29.25 -2.25 -32.05 L-2.95 -32.6 Q-1.9 -31.2 -0.8 -29.7 0.05 -28.4 0.55 -26.95 1.7 -23.45 0.0 -20.2 0.4 -20.55 0.7 -20.95 L-0.5 -19.25 -0.2 -19.35 -0.1 -19.35 -0.05 -19.4 Q0.25 -19.5 0.35 -19.75 L0.2 -19.35 Q3.45 -18.65 2.5 -14.95 1.7 -11.7 -1.35 -10.15 -1.05 -10.2 -0.7 -10.05 L-0.3 -9.9 Q-0.05 -9.7 0.1 -9.4 L0.15 -9.3 0.1 -9.2 Q-0.35 -7.55 -1.3 -6.05 L-1.25 -6.05 Q0.0 -7.95 1.0 -10.05 L1.8 -10.95 Q-0.3 -6.25 -3.25 -2.35 L-3.2 -2.55 -3.35 -2.7 Q-3.6 -2.7 -3.8 -2.6 L-4.05 -2.35 Q-4.45 -1.85 -4.3 -1.25 L-4.1 -1.15 -4.2 -1.05 -4.05 -0.75 -3.95 -0.75 -3.65 -0.8 -3.25 -0.7 -2.95 -0.6 -2.55 -0.65 -2.35 -0.7 Q-2.25 -0.75 -2.15 -0.8 -2.05 -0.95 -2.05 -1.1 L-1.9 -1.2 Q0.15 -5.0 2.3 -8.8 L2.25 -9.1 3.65 -12.3 3.55 -12.35 3.75 -12.8 Q5.9 -17.8 4.9 -22.8 L5.0 -23.65 4.6 -23.7 Q3.3 -23.95 3.4 -25.8 L3.85 -25.1 Q3.75 -24.4 4.15 -23.95 L4.4 -23.95 Q5.15 -23.95 5.35 -24.75 5.9 -25.9 5.55 -27.05 L5.5 -27.2 5.35 -27.1 4.6 -25.65 4.55 -25.5 4.55 -25.4 4.5 -25.4 4.45 -25.45 4.4 -25.55 Q3.2 -29.5 0.0 -32.15 -2.35 -34.1 -5.2 -35.15 L-5.35 -35.05 -5.05 -34.7 -3.5 -33.35 -1.3 -31.3 0.9 -28.9 M5.6 -27.85 Q6.25 -26.4 5.8 -24.9 5.65 -24.4 5.4 -23.95 6.45 -11.85 -0.8 -1.95 L-1.8 -0.6 Q-2.05 -0.2 -2.45 0.0 L-2.45 -0.1 -2.7 0.0 -2.65 -0.05 -2.9 -0.05 -3.15 -0.3 -3.6 -0.45 Q-3.75 -0.45 -3.85 -0.5 L-4.1 -0.65 -4.2 -0.7 -4.4 -0.75 -4.5 -0.9 -4.5 -1.0 -4.6 -0.95 -4.55 -1.05 -4.9 -1.7 Q-4.95 -1.8 -4.9 -1.85 -4.85 -2.05 -4.65 -2.3 -4.25 -2.9 -3.6 -3.15 -1.3 -5.75 -0.15 -9.05 -0.2 -9.15 -0.25 -9.2 -0.35 -9.4 -0.6 -9.55 -1.05 -9.8 -1.6 -9.75 L-1.95 -9.8 Q3.1 -13.35 0.95 -18.6 0.75 -19.05 0.15 -19.0 -0.7 -18.95 -1.3 -18.45 L-1.0 -19.0 Q3.2 -28.05 -5.35 -34.5 -5.8 -34.8 -6.0 -35.35 L-5.9 -35.45 -5.65 -35.5 Q-1.6 -34.35 1.4 -31.55 3.4 -29.4 4.55 -26.7 L4.7 -26.35 Q4.75 -26.6 4.9 -26.85 4.95 -27.25 5.2 -27.55 5.35 -27.75 5.6 -27.85 M2.25 -24.3 Q2.45 -23.65 2.05 -23.05 L1.6 -22.35 Q2.05 -23.25 2.25 -24.3 M2.75 -23.4 L3.2 -23.35 3.55 -23.05 Q3.75 -21.05 3.6 -19.0 L3.5 -19.05 Q3.35 -19.55 3.4 -20.05 3.55 -21.75 2.95 -22.9 L2.9 -22.95 Q2.35 -22.5 2.1 -21.85 1.9 -21.4 1.55 -21.05 L1.2 -20.75 Q1.95 -21.6 2.45 -22.65 L2.75 -23.4" fill="#000000" fill-rule="evenodd" stroke="none"/>
      <path d="M-3.3 -33.8 Q-2.25 -33.1 -1.25 -32.3 1.95 -29.7 3.4 -25.85 3.15 -26.2 2.9 -26.6 0.9 -29.95 -2.2 -32.25 L-2.7 -32.7 -3.85 -34.1 -3.45 -33.9 -3.3 -33.8 M5.05 -26.15 Q5.15 -25.5 5.0 -24.9 4.9 -24.6 4.6 -24.45 L4.7 -25.1 Q4.75 -25.7 5.05 -26.15 M3.5 -15.55 Q4.05 -19.2 4.35 -22.9 4.95 -18.7 4.1 -14.45 3.55 -11.75 1.95 -9.5 3.05 -12.45 3.5 -15.55" fill="#993399" fill-rule="evenodd" stroke="none"/>
    </g>
    <g id="sprite1" transform="matrix(1.0, 0.0, 0.0, 1.0, 43.75, 203.7)">
      <use ffdec:characterId="333" height="29.1" transform="matrix(7.0, 0.0, 0.0, 7.0, -43.75, -203.7)" width="12.5" xlink:href="#shape1"/>
    </g>
    <g id="shape1" transform="matrix(1.0, 0.0, 0.0, 1.0, 6.25, 29.1)">
      <path d="M4.75 -25.05 L5.05 -24.85 Q5.1 -23.6 4.9 -22.35 4.65 -21.2 4.05 -20.25 1.0 -15.45 0.15 -10.2 L0.5 -9.95 0.55 -9.8 0.75 -9.85 Q2.25 -9.1 3.7 -10.05 1.85 -6.95 4.0 -4.25 5.45 -3.95 6.25 -2.6 L5.85 -2.55 5.7 -2.65 5.55 -2.55 5.55 -2.45 Q3.85 -1.85 3.3 -0.1 L2.35 -0.1 2.35 0.0 2.1 -0.15 1.85 -1.4 2.05 -1.75 1.95 -2.3 1.25 -2.5 1.15 -2.6 1.05 -2.55 Q-2.45 -4.45 -5.15 -7.15 L-5.15 -7.25 Q-6.75 -8.95 -5.7 -11.15 -4.2 -14.35 -2.05 -17.3 1.6 -22.25 -3.35 -26.05 L-3.45 -26.05 -3.5 -26.15 -5.45 -27.45 -6.05 -27.6 -6.25 -28.1 Q-5.85 -28.8 -5.05 -28.7 L-4.45 -28.9 -3.35 -29.1 Q0.5 -26.65 3.7 -23.3 3.95 -24.4 4.75 -25.05 M-4.15 -27.25 L-2.35 -26.4 Q-1.65 -26.1 -1.15 -25.55 L-0.8 -25.1 Q-0.35 -24.75 0.05 -24.4 3.0 -21.4 0.15 -18.05 -1.05 -16.7 -2.25 -15.4 -3.3 -14.75 -4.05 -13.55 -4.65 -12.5 -5.2 -11.4 -6.05 -9.65 -5.15 -8.0 L-4.95 -7.7 -4.95 -7.45 -4.7 -7.35 -4.45 -7.1 -4.3 -6.85 -4.25 -6.8 -4.1 -6.7 -3.8 -6.55 -3.55 -6.25 -3.45 -6.25 Q-1.2 -4.25 1.6 -3.1 L2.15 -2.9 2.1 -2.9 Q2.05 -2.6 2.35 -2.5 L2.4 -1.95 2.75 -1.9 Q2.3 -1.05 2.55 -0.25 L2.9 -0.8 3.1 -0.8 Q3.8 -1.85 4.8 -2.6 L4.8 -2.85 Q4.9 -3.95 3.7 -3.75 L3.6 -3.6 3.05 -3.8 Q-1.55 -6.0 -3.2 -10.35 L-2.5 -11.3 Q-1.85 -11.6 -1.45 -12.1 L-2.7 -10.35 -2.8 -10.35 Q-2.85 -8.45 -1.1 -7.3 L-0.7 -7.0 1.15 -5.55 Q2.2 -4.65 3.45 -4.3 L3.6 -4.3 Q2.05 -6.4 2.75 -8.8 L3.0 -9.1 3.0 -9.25 Q1.5 -8.85 0.2 -9.65 -0.7 -11.1 -0.1 -12.85 1.0 -14.25 1.5 -15.9 L1.55 -16.0 0.85 -15.2 0.25 -14.65 0.5 -14.95 Q2.35 -17.15 3.65 -19.65 L3.7 -19.8 Q4.95 -21.95 4.7 -24.3 L4.65 -24.5 Q3.6 -22.95 2.9 -20.7 2.9 -20.6 2.9 -20.5 L3.0 -20.2 2.8 -19.9 Q2.25 -21.0 3.2 -22.05 L3.4 -22.55 3.4 -22.6 3.4 -22.85 Q0.7 -26.25 -3.25 -28.7 -3.35 -28.8 -3.5 -28.8 -4.3 -28.5 -5.2 -28.45 L-5.85 -28.25 -5.9 -27.95 -4.15 -27.25 M0.75 -20.7 L0.8 -20.8 0.7 -21.1 Q0.65 -21.65 0.4 -22.25 0.2 -22.8 -0.1 -23.4 L-0.6 -24.15 Q-2.0 -26.15 -4.35 -27.15 L-1.65 -25.2 -1.6 -25.15 Q-0.95 -24.55 -0.55 -23.75 L-0.35 -23.25 Q0.15 -21.15 -0.3 -19.1 L-0.25 -19.0 -0.85 -17.9 -2.45 -15.75 Q0.85 -17.9 0.75 -20.7 M2.4 -8.65 L2.5 -8.7 1.55 -6.2 Q1.65 -7.55 2.4 -8.65 M-4.35 -27.15 L-4.1 -27.05 -4.45 -27.25 -4.35 -27.15 M-3.3 -6.8 L-3.4 -6.8 -3.45 -6.95 -3.3 -6.8" fill="#000000" fill-rule="evenodd" stroke="none"/>
      <path d="M-4.15 -27.25 L-4.25 -27.3 -4.4 -27.45 -4.45 -27.55 -4.5 -27.6 -4.5 -27.65 -4.45 -27.7 Q-0.3 -26.25 2.4 -22.45 2.35 -22.45 2.3 -22.45 1.15 -23.4 0.05 -24.4 -0.35 -24.75 -0.8 -25.1 L-1.15 -25.55 Q-1.65 -26.1 -2.35 -26.4 L-4.15 -27.25 M-5.2 -11.4 Q-5.45 -9.9 -4.5 -8.6 -2.0 -5.25 1.6 -3.1 -1.2 -4.25 -3.45 -6.25 L-3.55 -6.25 -3.8 -6.55 -4.1 -6.7 -4.25 -6.8 -4.3 -6.85 -4.45 -7.1 -4.7 -7.35 -4.95 -7.45 -4.95 -7.7 -5.15 -8.0 Q-6.05 -9.65 -5.2 -11.4 M-1.45 -12.1 L-1.45 -12.2 -1.25 -12.3 Q-1.05 -12.05 -1.3 -11.8 L-1.75 -11.35 Q-2.2 -10.9 -2.35 -10.3 L-2.3 -10.05 -2.2 -9.95 -2.2 -9.8 -2.0 -9.7 -1.95 -9.6 -1.85 -9.5 -1.85 -9.35 -1.35 -8.6 Q-0.2 -7.05 1.15 -5.55 L-0.7 -7.0 -1.0 -7.3 -1.1 -7.3 Q-2.85 -8.45 -2.8 -10.35 L-2.7 -10.35 -1.45 -12.1 M4.65 -24.5 Q3.55 -22.6 2.95 -20.45 L2.9 -20.5 Q2.9 -20.6 2.9 -20.7 3.6 -22.95 4.65 -24.5 M0.7 -21.1 L0.7 -20.5 0.75 -20.7 Q0.85 -17.9 -2.45 -15.75 L-0.85 -17.9 -0.7 -18.05 Q0.9 -20.25 0.4 -22.25 0.65 -21.65 0.7 -21.1 M-1.6 -25.15 L-1.65 -25.2 -4.35 -27.15 Q-2.0 -26.15 -0.6 -24.15 -1.05 -24.7 -1.6 -25.15 M-3.3 -6.8 L-3.45 -6.95 -3.4 -6.8 -3.3 -6.8" fill="#660033" fill-rule="evenodd" stroke="none"/>
      <path d="M0.05 -24.4 Q1.15 -23.4 2.3 -22.45 2.35 -22.45 2.4 -22.45 -0.3 -26.25 -4.45 -27.7 L-4.5 -27.65 -4.5 -27.6 -4.45 -27.55 -4.4 -27.45 -4.25 -27.3 -4.15 -27.25 -5.9 -27.95 -5.85 -28.25 -5.2 -28.45 Q-4.55 -28.2 -3.75 -28.3 L-3.45 -28.35 Q0.2 -26.1 3.25 -22.9 L3.25 -22.75 3.4 -22.6 3.4 -22.55 3.2 -22.05 Q2.25 -21.0 2.8 -19.9 L3.0 -20.2 2.9 -20.5 2.95 -20.45 Q3.55 -22.6 4.65 -24.5 L4.7 -24.3 Q4.95 -21.95 3.7 -19.8 1.6 -17.5 0.15 -14.85 L0.5 -14.95 0.25 -14.65 0.85 -15.2 1.55 -16.0 1.5 -15.9 Q1.0 -14.25 -0.1 -12.85 -0.7 -11.1 0.2 -9.65 1.5 -8.85 3.0 -9.25 L3.0 -9.1 2.75 -8.8 Q2.05 -6.4 3.6 -4.3 L3.45 -4.3 Q2.2 -4.65 1.15 -5.55 -0.2 -7.05 -1.35 -8.6 L-1.85 -9.35 -1.85 -9.5 -1.95 -9.6 -2.0 -9.7 -2.2 -9.8 -2.2 -9.95 -2.3 -10.05 -2.35 -10.3 Q-2.2 -10.9 -1.75 -11.35 L-1.3 -11.8 Q-1.05 -12.05 -1.25 -12.3 L-1.45 -12.2 -1.45 -12.1 Q-1.85 -11.6 -2.5 -11.3 L-3.2 -10.35 Q-1.55 -6.0 3.05 -3.8 L3.6 -3.6 3.7 -3.75 Q4.9 -3.95 4.8 -2.85 L4.8 -2.6 Q3.8 -1.85 3.1 -0.8 L2.9 -0.8 2.55 -0.25 Q2.3 -1.05 2.75 -1.9 L2.4 -1.95 2.35 -2.5 Q2.05 -2.6 2.1 -2.9 L2.15 -2.9 1.6 -3.1 Q-2.0 -5.25 -4.5 -8.6 -5.45 -9.9 -5.2 -11.4 -4.65 -12.5 -4.05 -13.55 -3.3 -14.75 -2.25 -15.4 -1.05 -16.7 0.15 -18.05 3.0 -21.4 0.05 -24.4 M3.9 -22.7 L3.35 -21.2 3.2 -21.15 3.15 -21.05 Q3.05 -20.65 3.35 -20.35 L3.6 -20.35 Q4.35 -21.7 4.2 -23.25 L3.9 -22.7 M0.75 -20.7 L0.7 -20.5 0.7 -21.1 0.8 -20.8 0.75 -20.7 M0.4 -22.25 Q0.9 -20.25 -0.7 -18.05 L-0.85 -17.9 -0.25 -19.0 -0.3 -19.1 Q0.15 -21.15 -0.35 -23.25 L-0.55 -23.75 Q-0.95 -24.55 -1.6 -25.15 -1.05 -24.7 -0.6 -24.15 L-0.1 -23.4 Q0.2 -22.8 0.4 -22.25 M2.4 -8.65 Q1.65 -7.55 1.55 -6.2 L2.5 -8.7 2.4 -8.65 M-4.35 -27.15 L-4.45 -27.25 -4.1 -27.05 -4.35 -27.15 M-5.05 -10.35 Q-4.95 -10.4 -5.05 -10.4 L-5.05 -10.35 M-1.1 -7.3 L-1.0 -7.3 -0.7 -7.0 -1.1 -7.3 M-0.15 -5.75 L0.1 -5.6 Q-2.15 -7.45 -3.6 -9.9 -2.6 -7.3 -0.15 -5.75" fill="#663366" fill-rule="evenodd" stroke="none"/>
      <path d="M0.5 -14.95 L0.15 -14.85 Q1.6 -17.5 3.7 -19.8 L3.65 -19.65 Q2.35 -17.15 0.5 -14.95 M3.4 -22.6 L3.25 -22.75 3.25 -22.9 Q0.2 -26.1 -3.45 -28.35 L-3.75 -28.3 Q-4.55 -28.2 -5.2 -28.45 -4.3 -28.5 -3.5 -28.8 -3.35 -28.8 -3.25 -28.7 0.7 -26.25 3.4 -22.85 L3.4 -22.6 M3.9 -22.7 L4.2 -23.25 Q4.35 -21.7 3.6 -20.35 L3.35 -20.35 Q3.05 -20.65 3.15 -21.05 L3.2 -21.15 3.35 -21.2 3.9 -22.7 M-5.05 -10.35 L-5.05 -10.4 Q-4.95 -10.4 -5.05 -10.35 M-0.15 -5.75 Q-2.6 -7.3 -3.6 -9.9 -2.15 -7.45 0.1 -5.6 L-0.15 -5.75" fill="#993399" fill-rule="evenodd" stroke="none"/>
    </g>
    <g id="sprite2" transform="matrix(1.0, 0.0, 0.0, 1.0, 12.6, 9.45)">
      <use ffdec:characterId="346" height="18.45" transform="matrix(7.0, 0.0, 0.0, 7.0, -12.6, -9.45)" width="15.15" xlink:href="#shape2"/>
    </g>
    <g id="shape2" transform="matrix(1.0, 0.0, 0.0, 1.0, 1.8, 1.35)">
      <path d="M7.6 6.3 L8.0 6.25 8.0 6.5 7.7 6.95 Q7.4 7.25 7.4 7.35 7.35 7.5 7.45 7.65 7.5 7.75 7.7 7.8 L9.05 7.7 11.0 7.75 Q11.65 7.95 11.9 8.25 12.0 8.35 12.05 8.45 L12.25 8.4 12.3 8.35 12.4 8.3 12.7 8.1 12.8 8.0 12.85 8.0 Q12.9 7.7 12.65 7.35 L12.65 7.3 12.5 7.15 Q12.05 6.7 12.15 6.35 L12.15 6.3 12.15 6.25 Q12.1 6.15 12.15 6.05 L12.1 5.85 Q12.1 5.4 12.15 5.15 12.25 4.8 12.45 4.85 12.6 4.95 12.45 5.45 12.4 5.6 12.4 5.95 12.45 5.9 12.5 5.85 12.65 5.55 12.75 5.3 12.85 4.9 12.7 4.3 L12.6 3.95 Q12.4 3.35 12.05 2.8 11.6 2.0 10.9 1.4 10.35 0.95 9.65 0.6 L9.5 0.5 9.4 0.5 Q9.35 0.5 9.2 0.35 L8.9 0.2 8.65 0.1 8.55 0.05 Q6.55 -0.7 4.45 -0.7 3.45 -0.65 2.1 -0.1 L2.05 -0.05 1.95 0.0 1.25 0.6 1.2 0.7 1.2 0.75 1.05 1.0 Q0.9 1.3 0.8 1.7 0.6 3.1 0.45 3.8 0.75 3.4 0.85 3.1 L0.85 2.45 Q1.0 2.55 1.05 2.8 1.15 3.1 1.1 3.2 1.0 3.75 0.45 4.3 -0.1 4.9 -0.15 5.25 -0.25 5.6 -0.05 5.75 0.05 5.85 0.35 5.95 L0.6 5.9 1.75 5.85 1.8 5.9 1.9 5.9 2.35 6.0 2.55 6.1 2.55 6.05 2.75 6.1 3.0 6.15 Q4.15 6.7 4.6 7.05 L5.4 7.4 Q5.9 7.6 6.1 7.2 6.2 7.0 6.25 6.55 L6.35 6.25 6.35 6.2 Q6.4 6.15 6.45 6.1 L6.45 6.05 6.5 6.05 Q6.6 6.2 6.6 6.55 L6.6 6.7 Q6.6 7.05 6.55 7.2 6.5 7.5 6.2 7.75 5.85 8.1 5.3 7.9 L4.85 7.75 4.85 7.8 4.75 8.05 Q4.45 8.65 3.7 9.2 2.55 9.95 1.25 9.5 0.5 9.2 0.35 8.05 0.35 7.8 0.35 7.5 L0.35 7.35 0.4 6.8 0.5 6.5 0.5 6.4 0.4 6.4 Q0.35 6.75 -0.1 7.35 -0.45 7.8 -0.75 7.9 L-0.9 8.15 Q-1.15 8.55 -1.25 8.85 -1.35 9.45 -1.0 10.65 L-0.65 11.45 -0.55 11.6 -0.4 11.85 Q-0.1 12.25 0.35 12.4 0.55 12.45 0.85 12.25 0.95 11.95 1.25 11.95 1.3 11.8 1.45 11.7 1.65 11.6 1.8 11.6 2.0 11.45 2.15 11.5 2.25 11.55 2.25 11.6 2.45 11.6 2.5 11.7 L2.55 11.7 2.55 11.75 2.6 12.0 2.6 12.15 2.5 12.4 2.5 12.45 2.4 12.45 2.25 12.3 2.25 12.05 2.15 12.0 1.85 12.05 1.8 12.1 1.85 12.2 1.8 12.55 1.6 13.05 1.45 13.3 Q1.6 13.15 1.75 13.2 L2.1 13.2 Q2.15 13.2 2.25 13.25 2.4 13.45 2.45 13.6 2.55 13.8 2.55 14.0 2.7 13.9 2.9 13.9 3.25 13.85 3.45 14.05 3.55 14.15 3.6 14.4 L3.65 14.3 Q3.7 14.2 3.75 14.2 L4.05 14.15 4.5 14.4 4.8 14.35 4.85 14.35 Q5.05 14.35 5.15 14.45 L5.2 14.55 Q5.3 14.6 5.3 14.75 5.35 14.7 5.45 14.7 L5.75 14.7 Q5.8 14.7 5.9 14.75 6.2 14.9 6.3 15.15 6.5 14.6 7.05 14.7 7.35 14.7 7.45 14.9 7.55 15.0 7.55 15.15 L7.6 15.3 7.6 14.95 Q7.55 14.7 7.65 14.4 7.7 14.2 7.75 14.15 7.8 14.05 7.85 14.05 L7.65 13.75 7.5 13.9 7.1 14.15 Q7.0 14.05 7.05 13.8 7.15 13.45 7.35 13.3 7.65 13.0 8.0 13.2 8.0 13.25 8.0 13.3 L8.35 13.7 8.35 13.75 8.5 14.0 8.8 14.6 Q8.95 14.8 9.1 14.9 9.85 15.1 11.1 13.7 12.1 12.5 12.25 12.05 L12.3 11.85 12.15 11.3 12.1 11.2 12.1 11.15 11.95 10.5 11.9 10.3 11.9 10.1 11.9 9.95 Q11.85 10.0 11.85 10.1 11.8 10.1 11.75 10.2 11.7 10.25 11.65 10.35 L11.55 10.5 11.4 10.7 Q10.7 11.4 9.95 11.35 L9.0 11.3 Q8.2 11.1 7.65 9.75 L7.6 9.55 7.55 9.45 7.5 9.25 Q7.3 8.9 7.25 8.65 L7.25 8.5 Q7.2 8.5 7.25 8.45 L7.25 8.35 Q7.2 8.3 7.25 8.3 6.8 8.15 6.75 7.8 6.7 7.6 6.8 7.4 6.85 7.05 7.2 6.7 7.2 6.65 7.25 6.65 7.45 6.4 7.6 6.3 M8.9 -0.25 L9.5 -0.1 Q11.3 0.5 12.4 2.35 12.9 3.2 13.1 4.1 13.3 4.9 13.15 5.4 13.1 5.65 12.95 5.9 L12.9 6.05 Q12.85 6.1 12.8 6.15 12.75 6.2 12.75 6.3 12.7 6.4 13.1 7.05 13.45 7.65 13.3 8.2 13.25 8.4 12.9 8.75 L12.55 9.05 12.5 9.15 12.5 9.35 Q12.4 9.75 12.4 10.0 L12.4 10.4 12.6 11.3 12.65 11.55 Q12.9 12.1 12.85 12.3 L12.4 13.05 Q11.95 13.7 11.45 14.3 10.05 15.95 9.25 15.7 8.95 15.6 8.6 15.05 L8.55 14.9 8.2 14.45 Q8.1 14.45 8.1 14.5 L8.1 14.65 Q8.1 15.05 8.0 15.35 7.7 16.5 6.4 17.1 L6.35 17.0 6.3 17.0 Q6.2 16.9 6.3 16.65 L6.35 16.3 Q6.3 16.05 6.2 15.8 L6.15 15.65 Q6.1 15.85 5.8 16.05 5.4 16.35 5.1 16.25 L4.95 16.2 4.95 16.15 4.9 16.15 4.9 16.1 4.85 16.0 4.8 16.0 4.75 16.05 Q4.5 16.15 4.3 16.1 L3.8 15.9 3.45 15.9 Q3.25 15.85 3.15 15.7 L3.05 15.5 2.9 15.5 2.7 15.55 2.6 15.6 Q2.3 15.5 2.2 15.0 2.15 14.7 2.2 14.5 L2.25 14.45 Q2.15 14.5 2.05 14.55 1.55 14.9 1.45 15.25 L1.35 15.4 1.45 15.5 1.35 15.55 1.2 15.55 Q0.85 15.45 0.85 14.9 0.8 14.75 0.8 14.55 L0.85 13.95 1.15 13.2 1.4 12.55 1.45 12.4 1.2 12.6 Q0.65 13.0 0.15 12.9 -0.45 12.7 -0.85 12.25 L-0.9 12.25 Q-1.0 12.2 -1.15 11.9 -1.45 11.35 -1.6 10.75 L-1.7 10.25 -1.8 9.55 -1.7 8.8 Q-1.55 8.25 -1.2 7.8 -0.95 7.45 -0.55 6.9 L-0.3 6.65 Q-0.7 6.4 -0.75 5.85 -0.8 5.55 -0.7 5.15 -0.6 4.7 -0.3 4.15 0.05 3.6 0.2 2.55 L0.25 2.35 0.3 1.9 0.35 1.5 Q0.35 1.4 0.4 1.3 L0.4 1.2 Q0.75 -1.2 4.15 -1.35 5.3 -1.35 6.55 -1.1 L7.85 -0.8 8.9 -0.25 M12.2 9.0 L12.15 9.0 Q12.15 9.15 12.15 9.25 12.15 9.15 12.2 9.1 12.15 9.1 12.2 9.0 M7.8 8.8 Q7.85 9.05 7.95 9.35 L8.15 9.75 Q8.35 10.2 8.65 10.5 8.95 10.7 9.25 10.85 L9.3 10.85 Q10.2 11.1 10.95 10.35 L11.4 9.75 11.6 9.05 Q11.6 9.0 11.65 8.95 11.6 8.8 11.65 8.65 11.6 8.65 11.5 8.6 L11.45 8.55 11.25 8.55 11.05 8.5 11.0 8.5 10.0 8.35 9.85 8.35 9.6 8.3 9.05 8.3 8.0 8.25 7.6 8.25 7.8 8.8 M11.55 11.05 Q11.6 10.95 11.65 10.95 L11.7 10.95 11.7 11.0 11.65 11.15 11.5 11.4 11.4 11.5 10.95 11.85 Q10.3 12.25 9.8 12.0 L9.85 11.95 11.4 11.1 11.55 11.05 M7.6 15.3 L7.6 15.3 M5.65 8.45 L5.7 8.45 Q5.75 8.5 5.7 8.5 L5.7 8.6 5.45 8.85 5.2 9.2 Q5.0 9.5 4.7 9.6 4.65 9.65 4.7 9.55 L4.7 9.45 4.55 9.5 4.55 9.4 4.55 9.35 Q4.6 9.25 5.0 8.85 5.45 8.45 5.65 8.45 M0.35 3.85 L0.3 3.95 0.4 3.85 0.35 3.85 M1.15 6.7 L0.95 6.7 0.9 6.65 0.8 6.65 0.75 6.75 0.7 7.2 0.65 7.6 Q0.65 8.7 1.5 9.0 2.7 9.4 3.75 8.6 L3.9 8.5 Q4.35 8.15 4.7 7.75 L4.75 7.65 4.55 7.55 4.35 7.45 4.25 7.35 2.75 7.05 2.6 7.05 Q1.7 6.8 1.15 6.7 M4.95 9.8 L4.95 9.75 Q5.2 9.6 5.3 9.55 5.55 9.55 5.55 9.75 L5.5 9.85 5.5 9.9 5.5 9.95 5.45 10.15 5.1 10.95 Q4.85 11.45 4.75 11.55 L4.75 11.5 4.6 11.6 4.55 11.35 4.3 11.05 Q4.05 10.7 4.05 10.55 4.55 10.1 4.9 9.8 L4.95 9.8 M5.8 10.05 L5.8 9.9 Q5.9 9.6 6.05 9.65 6.2 9.65 6.4 9.95 6.85 10.65 6.65 11.25 6.65 11.3 6.4 11.5 6.15 11.7 5.9 11.8 5.85 11.8 5.85 11.85 L5.75 11.85 Q5.5 11.8 5.6 10.95 L5.75 10.1 5.8 10.05 M0.05 7.85 Q0.1 8.0 0.05 8.15 0.05 8.45 0.05 8.6 L0.2 8.85 0.25 8.95 0.35 9.1 0.35 9.15 Q0.55 9.4 0.5 9.55 L0.45 9.7 0.4 9.7 Q0.1 9.3 -0.05 8.9 -0.3 8.45 -0.25 8.15 L-0.1 7.85 0.0 7.75 0.05 7.85 M2.15 14.0 L2.0 13.6 1.95 13.6 Q1.6 13.6 1.45 14.05 L1.4 14.15 1.4 14.2 1.35 14.5 1.35 14.65 1.95 14.25 2.1 14.15 Q2.15 14.1 2.2 14.1 L2.15 14.0 M4.45 10.65 L4.5 10.55 Q4.45 10.55 4.4 10.65 L4.45 10.65 M4.8 10.95 Q4.95 10.55 5.0 10.3 L4.6 10.75 4.65 10.85 4.8 10.95 M6.0 11.1 Q6.15 11.0 6.25 11.0 6.15 10.6 6.05 10.4 L5.95 11.15 6.0 11.1 M7.25 15.65 L7.25 15.55 7.2 15.55 7.25 15.4 Q7.3 15.3 7.25 15.15 7.15 15.0 7.1 14.95 L6.85 14.95 Q6.8 14.95 6.7 15.0 L6.55 15.2 Q6.5 15.35 6.45 15.55 L6.6 15.75 Q6.75 16.05 6.65 16.45 6.7 16.4 6.75 16.4 7.15 16.05 7.25 15.8 L7.25 15.65 M5.2 15.1 L5.1 15.1 5.05 15.0 Q4.9 14.95 4.9 14.8 L4.9 14.75 4.55 14.75 4.4 14.8 4.3 14.75 4.3 14.7 Q4.3 14.65 4.25 14.6 4.15 14.55 4.1 14.5 L4.0 14.5 3.7 14.65 3.6 14.6 3.6 14.55 3.5 14.55 3.25 14.35 Q3.15 14.2 3.05 14.2 L3.0 14.15 2.9 14.15 2.9 14.2 Q2.8 14.2 2.7 14.25 L2.6 14.4 2.5 14.6 Q2.45 14.8 2.55 15.05 L2.7 15.3 2.8 15.2 Q3.0 15.1 3.15 15.15 3.3 15.2 3.4 15.4 L3.5 15.6 4.0 15.6 4.3 15.75 4.45 15.8 4.5 15.8 4.75 15.65 Q4.9 15.45 5.05 15.55 L5.05 15.65 Q5.15 15.7 5.15 15.85 L5.15 15.95 Q5.2 15.95 5.25 15.95 L5.65 15.75 Q5.85 15.5 5.9 15.45 6.0 15.4 6.05 15.35 L6.0 15.2 Q5.95 15.05 5.75 15.0 5.6 14.95 5.5 15.05 L5.35 15.1 5.3 15.05 5.25 15.1 Q5.3 15.15 5.2 15.1" fill="#111111" fill-rule="evenodd" stroke="none"/>
      <path d="M3.85 2.1 L3.1 1.85 Q2.55 1.6 2.25 1.0 2.0 0.45 2.05 -0.05 L2.1 -0.1 Q3.45 -0.65 4.45 -0.7 6.55 -0.7 8.55 0.05 L8.65 0.1 8.45 0.25 7.7 1.0 Q7.8 1.6 7.95 1.8 7.75 1.9 7.5 2.1 6.55 2.7 6.5 3.0 L6.5 3.1 6.6 3.1 Q7.15 2.9 8.15 2.0 9.15 1.35 10.9 1.4 11.6 2.0 12.05 2.8 12.4 3.35 12.6 3.95 12.5 3.95 12.4 4.05 12.15 4.25 12.05 4.55 L11.95 4.6 Q11.4 4.8 11.45 4.65 L11.5 4.65 Q10.6 4.25 10.5 4.25 10.05 4.1 9.65 4.4 9.1 4.75 9.0 4.75 L9.2 5.0 9.8 5.0 10.6 5.1 Q11.2 5.3 11.6 5.55 L11.95 5.85 12.0 5.85 Q12.05 6.0 12.15 6.1 12.1 6.1 12.15 6.05 12.1 6.15 12.15 6.25 L12.15 6.3 Q12.05 6.4 12.05 6.55 12.0 6.6 12.1 6.8 L12.15 7.05 12.1 7.15 11.85 7.15 Q11.5 7.05 11.25 6.9 11.0 6.7 10.6 6.6 9.9 6.4 9.15 6.65 8.3 6.9 7.95 7.0 L7.95 6.95 8.35 6.55 Q8.55 6.35 8.6 6.25 L8.6 6.05 8.5 6.0 Q8.35 5.95 8.0 6.25 L7.6 6.3 7.65 6.3 Q8.0 5.9 8.05 5.7 8.15 5.35 7.8 5.25 L7.45 5.2 Q7.55 4.75 7.15 4.45 6.75 4.1 6.6 4.6 6.55 4.8 6.65 5.05 L6.6 5.05 Q6.45 5.05 6.3 4.9 6.2 4.85 6.1 5.1 L6.1 5.15 Q5.95 5.15 5.95 5.35 L5.95 5.7 Q6.0 6.05 5.95 6.15 5.95 6.3 5.8 6.4 5.6 6.65 5.3 6.5 L4.7 6.2 Q4.15 5.85 3.1 5.4 L2.35 5.15 Q2.25 4.9 2.25 4.75 2.35 4.5 2.55 4.25 L3.5 3.3 4.4 3.95 Q4.9 4.2 5.3 4.1 5.7 4.05 5.8 3.75 5.8 3.6 5.55 3.25 5.2 2.7 4.45 2.35 L4.1 2.2 Q4.25 1.8 4.35 1.4 4.35 1.3 4.35 1.25 L4.35 1.2 Q4.15 1.35 3.85 2.05 L3.85 2.1 M1.45 5.1 Q1.35 5.0 1.25 4.65 1.0 4.15 1.0 4.1 L1.15 3.6 1.3 2.95 1.25 2.9 1.35 2.5 Q1.7 2.3 2.9 2.8 L3.0 2.9 2.55 3.3 Q1.5 4.25 1.4 4.6 1.4 4.7 1.45 5.1 M12.65 7.3 L12.65 7.35 12.65 7.3 M12.2 9.0 Q12.15 9.1 12.2 9.1 12.15 9.15 12.15 9.25 12.15 9.15 12.15 9.0 L12.2 9.0 M11.9 10.1 Q11.85 10.05 11.85 10.1 11.85 10.0 11.9 9.95 L11.9 10.1 M11.75 10.2 Q11.7 10.25 11.7 10.4 L11.55 11.05 11.4 11.1 9.85 11.95 9.45 11.85 Q9.35 11.8 9.3 12.0 9.3 12.1 9.3 12.2 9.35 12.3 9.7 12.4 10.45 12.65 11.25 12.1 11.95 11.7 12.05 11.35 L12.1 11.15 12.1 11.2 12.15 11.3 Q12.1 11.35 12.1 11.4 11.55 13.2 10.05 13.8 L9.35 13.7 Q9.15 13.65 8.9 13.25 8.65 12.9 8.05 12.75 L8.1 12.65 Q8.15 12.4 7.9 12.45 7.7 12.45 7.4 12.65 L7.2 12.65 Q6.9 12.7 6.5 13.05 5.9 13.4 5.6 13.85 L5.6 13.25 Q5.55 12.55 5.4 13.1 5.35 13.2 5.25 14.2 L5.15 14.45 Q5.05 14.35 4.85 14.35 L4.8 14.35 Q4.9 13.8 4.6 13.75 4.25 13.7 4.05 14.15 L3.75 14.2 4.2 12.7 Q4.25 12.55 4.15 12.5 3.8 12.8 3.7 13.1 3.65 13.2 3.5 13.75 L3.45 14.05 Q3.25 13.85 2.9 13.9 2.7 13.9 2.55 14.0 L2.85 13.65 Q3.55 12.8 3.65 12.45 3.7 12.1 3.55 12.1 3.45 12.1 3.25 12.45 3.05 12.9 2.85 13.2 L2.45 13.6 Q2.4 13.45 2.25 13.25 2.15 13.2 2.1 13.2 L2.2 13.05 2.45 12.65 2.55 12.6 2.35 13.0 2.45 13.15 Q2.6 13.15 2.7 13.1 L2.75 13.15 Q2.8 13.15 2.95 12.85 3.05 12.7 3.05 12.6 L3.05 12.5 Q3.3 12.0 3.35 11.75 3.4 11.55 3.15 11.0 2.95 10.4 2.65 10.3 L2.6 10.45 2.75 10.9 2.6 10.8 2.2 10.75 1.95 10.75 1.2 11.05 Q0.45 11.4 -0.1 11.2 -0.8 10.95 -1.0 10.1 -1.2 9.5 -1.05 8.9 -0.95 8.45 -0.75 8.25 L-0.7 8.2 Q-0.7 8.5 -0.7 8.75 -0.5 9.6 0.45 9.9 1.0 10.1 1.05 9.85 1.1 9.75 0.45 9.2 L0.25 8.9 0.25 8.95 0.2 8.85 0.05 8.6 Q0.05 8.45 0.05 8.15 0.1 8.0 0.05 7.85 L0.35 7.5 Q0.35 7.8 0.35 8.05 0.5 9.2 1.25 9.5 2.55 9.95 3.7 9.2 4.45 8.65 4.75 8.05 4.6 8.45 4.35 8.75 L3.6 9.45 3.1 9.9 3.1 10.0 Q3.15 10.0 3.2 10.05 3.65 9.9 4.45 9.45 L4.55 9.4 4.55 9.5 4.7 9.45 4.7 9.55 Q4.65 9.65 4.7 9.6 5.0 9.5 5.2 9.2 L5.45 8.85 5.7 8.6 5.7 8.5 Q5.75 8.5 5.7 8.45 L5.65 8.45 5.7 8.4 5.7 8.25 5.95 8.25 Q6.05 8.6 6.75 9.95 7.65 11.65 8.15 11.75 L8.25 11.75 8.25 11.7 Q7.5 10.7 7.15 9.35 L6.95 8.6 7.25 8.65 Q7.3 8.9 7.5 9.25 L7.55 9.45 7.6 9.55 7.65 9.75 Q8.2 11.1 9.0 11.3 L9.95 11.35 Q10.7 11.4 11.4 10.7 L11.55 10.5 11.65 10.35 Q11.7 10.25 11.75 10.2 M8.35 13.75 L8.35 13.7 8.45 13.75 8.35 13.75 M7.6 15.3 L7.6 15.3 Q7.6 15.25 7.6 15.3 M7.05 14.7 Q6.5 14.6 6.3 15.15 6.2 14.9 5.9 14.75 5.8 14.7 5.75 14.7 5.9 14.4 6.1 14.1 L6.1 14.15 Q6.1 14.4 6.2 14.45 L6.55 14.15 6.9 13.75 6.95 13.7 Q6.75 14.05 6.75 14.25 L6.7 14.4 Q6.7 14.5 6.85 14.55 6.95 14.55 7.05 14.65 L7.05 14.7 M2.55 11.7 L2.5 11.7 2.55 11.7 M8.9 0.2 L9.2 0.35 Q9.35 0.5 9.4 0.5 L9.5 0.5 9.65 0.6 Q9.5 0.65 9.25 0.9 8.85 1.25 8.65 1.35 8.45 1.45 8.3 1.55 L8.45 1.3 Q8.8 0.75 8.85 0.6 L8.9 0.2 M9.25 2.95 L9.25 3.0 Q9.8 3.1 10.0 3.1 L10.1 3.0 Q10.15 2.9 10.2 2.9 10.25 2.95 10.25 2.85 L10.3 2.75 10.3 2.7 Q9.9 2.45 9.6 2.5 9.3 2.6 9.25 2.8 9.25 2.9 9.25 2.95 M1.8 5.1 Q1.65 4.8 1.65 4.7 L1.9 4.5 Q2.05 4.35 2.1 4.3 L2.1 4.35 2.05 4.5 2.0 4.75 Q1.95 4.9 2.0 5.1 L1.8 5.1 M5.3 9.55 Q5.2 9.6 4.95 9.75 L4.95 9.8 Q4.85 9.8 4.75 9.85 4.05 10.3 4.0 10.55 3.95 10.8 4.4 11.45 4.95 12.15 5.5 12.3 5.6 12.35 6.15 11.85 6.7 11.35 6.75 11.2 6.75 10.8 6.6 10.4 6.35 9.6 5.85 9.45 5.65 9.4 5.3 9.55 M5.5 9.9 L5.5 9.85 5.55 9.85 5.5 9.9 M2.15 14.0 L2.15 14.05 2.1 14.15 1.95 14.25 1.85 14.25 1.75 14.2 1.75 13.95 Q1.85 13.7 1.95 13.6 L2.0 13.6 2.15 14.0 M6.6 15.75 L6.45 15.55 Q6.5 15.35 6.55 15.2 L6.7 15.0 Q6.8 14.95 6.85 14.95 L7.1 14.95 Q7.15 15.0 7.25 15.15 7.3 15.3 7.25 15.4 L7.2 15.55 7.25 15.55 7.25 15.65 7.2 15.7 Q6.9 15.9 6.7 15.85 L6.6 15.75 M6.0 15.2 L5.8 15.45 Q5.55 15.65 5.35 15.6 5.1 15.5 5.15 15.35 L5.2 15.15 5.2 15.1 Q5.3 15.15 5.25 15.1 L5.3 15.05 5.35 15.1 5.5 15.05 Q5.6 14.95 5.75 15.0 5.95 15.05 6.0 15.2 M5.1 15.1 Q5.0 15.3 4.75 15.35 4.35 15.35 3.65 15.15 3.05 14.95 2.9 14.8 2.75 14.6 2.85 14.3 L2.9 14.2 2.9 14.15 3.0 14.15 3.05 14.2 Q3.15 14.2 3.25 14.35 L3.5 14.55 3.6 14.55 3.6 14.6 3.7 14.65 4.0 14.5 4.1 14.5 Q4.15 14.55 4.25 14.6 4.3 14.65 4.3 14.7 L4.3 14.75 4.4 14.8 4.55 14.75 4.9 14.75 4.9 14.8 Q4.9 14.95 5.05 15.0 L5.1 15.1" fill="#ccb884" fill-rule="evenodd" stroke="none"/>
      <path d="M2.05 -0.05 Q2.0 0.45 2.25 1.0 2.55 1.6 3.1 1.85 L3.85 2.1 3.8 2.2 3.0 2.9 2.9 2.8 Q1.7 2.3 1.35 2.5 L1.25 2.9 1.3 2.95 1.15 3.6 1.0 4.1 Q1.0 4.15 1.25 4.65 1.35 5.0 1.45 5.1 1.55 5.45 1.65 5.55 L1.7 5.7 Q1.7 5.8 1.75 5.85 L0.6 5.9 0.35 5.95 Q0.05 5.85 -0.05 5.75 -0.25 5.6 -0.15 5.25 -0.1 4.9 0.45 4.3 1.0 3.75 1.1 3.2 1.15 3.1 1.05 2.8 1.0 2.55 0.85 2.45 L0.85 3.1 Q0.75 3.4 0.45 3.8 0.6 3.1 0.8 1.7 0.9 1.3 1.05 1.0 L1.2 0.75 1.2 0.7 1.25 0.6 1.95 0.0 2.05 -0.05 M4.1 2.2 L4.45 2.35 Q5.2 2.7 5.55 3.25 5.8 3.6 5.8 3.75 5.7 4.05 5.3 4.1 4.9 4.2 4.4 3.95 L3.5 3.3 Q3.85 2.8 4.1 2.2 M2.35 5.15 L3.1 5.4 Q4.15 5.85 4.7 6.2 L5.3 6.5 Q5.6 6.65 5.8 6.4 5.95 6.3 5.95 6.15 6.0 6.05 5.95 5.7 L5.95 5.35 Q5.95 5.15 6.1 5.15 L6.1 5.1 Q6.2 4.85 6.3 4.9 6.45 5.05 6.6 5.05 L6.65 5.05 Q6.55 4.8 6.6 4.6 6.75 4.1 7.15 4.45 7.55 4.75 7.45 5.2 L7.8 5.25 Q8.15 5.35 8.05 5.7 8.0 5.9 7.65 6.3 L7.6 6.3 Q7.45 6.4 7.25 6.65 7.2 6.65 7.2 6.7 6.85 7.05 6.8 7.4 6.7 7.6 6.75 7.8 6.8 8.15 7.25 8.3 7.2 8.3 7.25 8.35 L7.25 8.45 Q7.2 8.5 7.25 8.5 L7.25 8.65 6.95 8.6 7.15 9.35 Q7.5 10.7 8.25 11.7 L8.25 11.75 8.15 11.75 Q7.65 11.65 6.75 9.95 6.05 8.6 5.95 8.25 L5.7 8.25 5.7 8.4 5.65 8.45 Q5.45 8.45 5.0 8.85 4.6 9.25 4.55 9.35 L4.55 9.4 4.45 9.45 Q3.65 9.9 3.2 10.05 3.15 10.0 3.1 10.0 L3.1 9.9 3.6 9.45 4.35 8.75 Q4.6 8.45 4.75 8.05 L4.85 7.8 4.85 7.75 5.3 7.9 Q5.85 8.1 6.2 7.75 6.5 7.5 6.55 7.2 6.6 7.05 6.6 6.7 L6.6 6.55 Q6.6 6.2 6.5 6.05 L6.45 6.05 6.45 6.1 Q6.4 6.15 6.35 6.2 L6.35 6.25 6.25 6.55 Q6.2 7.0 6.1 7.2 5.9 7.6 5.4 7.4 L4.6 7.05 Q4.15 6.7 3.0 6.15 L2.75 6.1 2.55 6.05 2.6 5.95 2.6 5.75 2.5 5.7 2.35 5.2 2.35 5.15 M8.0 6.25 Q8.35 5.95 8.5 6.0 L8.6 6.05 8.6 6.25 Q8.55 6.35 8.35 6.55 L7.95 6.95 7.95 7.0 Q8.3 6.9 9.15 6.65 9.9 6.4 10.6 6.6 11.0 6.7 11.25 6.9 11.5 7.05 11.85 7.15 L12.1 7.15 12.15 7.05 12.1 6.8 Q12.0 6.6 12.05 6.55 12.05 6.4 12.15 6.3 L12.15 6.35 Q12.05 6.7 12.5 7.15 L12.65 7.3 12.65 7.35 Q12.9 7.7 12.85 8.0 L12.8 8.0 12.7 8.1 12.4 8.3 12.3 8.35 12.25 8.4 12.05 8.45 Q12.0 8.35 11.9 8.25 11.65 7.95 11.0 7.75 L9.05 7.7 7.7 7.8 Q7.5 7.75 7.45 7.65 7.35 7.5 7.4 7.35 7.4 7.25 7.7 6.95 L8.0 6.5 8.0 6.25 M12.15 6.05 Q12.1 6.1 12.15 6.1 12.05 6.0 12.0 5.85 L11.95 5.85 11.6 5.55 Q11.2 5.3 10.6 5.1 L9.8 5.0 9.2 5.0 9.0 4.75 Q9.1 4.75 9.65 4.4 10.05 4.1 10.5 4.25 10.6 4.25 11.5 4.65 L11.45 4.65 Q11.4 4.8 11.95 4.6 L12.05 4.55 Q12.15 4.25 12.4 4.05 12.5 3.95 12.6 3.95 L12.7 4.3 Q12.85 4.9 12.75 5.3 12.65 5.55 12.5 5.85 12.45 5.9 12.4 5.95 12.4 5.6 12.45 5.45 12.6 4.95 12.45 4.85 12.25 4.8 12.15 5.15 12.1 5.4 12.1 5.85 L12.15 6.05 M11.9 10.1 L11.9 10.3 11.95 10.5 12.1 11.15 12.05 11.35 Q11.95 11.7 11.25 12.1 10.45 12.65 9.7 12.4 9.35 12.3 9.3 12.2 9.3 12.1 9.3 12.0 9.35 11.8 9.45 11.85 L9.85 11.95 9.8 12.0 Q10.3 12.25 10.95 11.85 L11.4 11.5 11.5 11.4 11.65 11.15 11.7 11.0 11.7 10.95 11.65 10.95 Q11.6 10.95 11.55 11.05 L11.7 10.4 Q11.7 10.25 11.75 10.2 11.8 10.1 11.85 10.1 11.85 10.05 11.9 10.1 M12.15 11.3 L12.3 11.85 12.25 12.05 Q12.1 12.5 11.1 13.7 9.85 15.1 9.1 14.9 8.95 14.8 8.8 14.6 L8.5 14.0 8.35 13.75 8.45 13.75 8.35 13.7 8.0 13.3 Q8.0 13.25 8.0 13.2 7.65 13.0 7.35 13.3 7.15 13.45 7.05 13.8 7.0 14.05 7.1 14.15 L7.5 13.9 7.65 13.75 7.85 14.05 Q7.8 14.05 7.75 14.15 7.7 14.2 7.65 14.4 7.55 14.7 7.6 14.95 L7.6 15.3 7.55 15.15 Q7.55 15.0 7.45 14.9 7.35 14.7 7.05 14.7 L7.05 14.65 Q6.95 14.55 6.85 14.55 6.7 14.5 6.7 14.4 L6.75 14.25 Q6.75 14.05 6.95 13.7 L6.9 13.75 6.55 14.15 6.2 14.45 Q6.1 14.4 6.1 14.15 L6.1 14.1 Q5.9 14.4 5.75 14.7 L5.45 14.7 Q5.35 14.7 5.3 14.75 5.3 14.6 5.2 14.55 L5.15 14.45 5.25 14.2 Q5.35 13.2 5.4 13.1 5.55 12.55 5.6 13.25 L5.6 13.85 Q5.9 13.4 6.5 13.05 6.9 12.7 7.2 12.65 L7.4 12.65 Q7.7 12.45 7.9 12.45 8.15 12.4 8.1 12.65 L8.05 12.75 Q8.65 12.9 8.9 13.25 9.15 13.65 9.35 13.7 L10.05 13.8 Q11.55 13.2 12.1 11.4 12.1 11.35 12.15 11.3 M4.8 14.35 L4.5 14.4 4.05 14.15 Q4.25 13.7 4.6 13.75 4.9 13.8 4.8 14.35 M3.75 14.2 Q3.7 14.2 3.65 14.3 L3.6 14.4 Q3.55 14.15 3.45 14.05 L3.5 13.75 Q3.65 13.2 3.7 13.1 3.8 12.8 4.15 12.5 4.25 12.55 4.2 12.7 L3.75 14.2 M2.55 14.0 Q2.55 13.8 2.45 13.6 L2.85 13.2 Q3.05 12.9 3.25 12.45 3.45 12.1 3.55 12.1 3.7 12.1 3.65 12.45 3.55 12.8 2.85 13.65 L2.55 14.0 M2.1 13.2 L1.75 13.2 Q1.6 13.15 1.45 13.3 L1.6 13.05 1.8 12.55 1.85 12.2 1.8 12.1 1.85 12.05 2.15 12.0 2.25 12.05 2.25 12.3 2.4 12.45 2.5 12.45 2.5 12.4 2.6 12.15 2.6 12.0 2.55 11.75 2.55 11.7 2.5 11.7 Q2.45 11.6 2.25 11.6 2.25 11.55 2.15 11.5 2.0 11.45 1.8 11.6 1.65 11.6 1.45 11.7 1.3 11.8 1.25 11.95 0.95 11.95 0.85 12.25 0.55 12.45 0.35 12.4 -0.1 12.25 -0.4 11.85 L-0.55 11.6 -0.65 11.45 -1.0 10.65 Q-1.35 9.45 -1.25 8.85 -1.15 8.55 -0.9 8.15 L-0.75 7.9 Q-0.45 7.8 -0.1 7.35 0.35 6.75 0.4 6.4 L0.5 6.4 0.5 6.5 0.4 6.8 0.35 7.35 0.35 7.5 0.05 7.85 0.0 7.75 -0.1 7.85 -0.25 8.15 Q-0.3 8.45 -0.05 8.9 0.1 9.3 0.4 9.7 L0.45 9.7 0.5 9.55 Q0.55 9.4 0.35 9.15 L0.35 9.1 0.25 8.95 0.25 8.9 0.45 9.2 Q1.1 9.75 1.05 9.85 1.0 10.1 0.45 9.9 -0.5 9.6 -0.7 8.75 -0.7 8.5 -0.7 8.2 L-0.75 8.25 Q-0.95 8.45 -1.05 8.9 -1.2 9.5 -1.0 10.1 -0.8 10.95 -0.1 11.2 0.45 11.4 1.2 11.05 L1.95 10.75 2.2 10.75 2.6 10.8 2.75 10.9 2.6 10.45 2.65 10.3 Q2.95 10.4 3.15 11.0 3.4 11.55 3.35 11.75 3.3 12.0 3.05 12.5 L3.05 12.6 Q3.05 12.7 2.95 12.85 2.8 13.15 2.75 13.15 L2.7 13.1 Q2.6 13.15 2.45 13.15 L2.35 13.0 2.55 12.6 2.45 12.65 2.2 13.05 2.1 13.2 M2.35 6.0 L1.9 5.9 1.9 5.85 Q2.0 5.85 2.0 5.75 L2.0 5.6 1.95 5.55 1.8 5.2 Q1.75 5.15 1.8 5.1 L2.0 5.1 2.0 5.25 Q2.1 5.75 2.3 5.85 L2.35 6.0 M4.95 9.8 L4.9 9.8 Q4.55 10.1 4.05 10.55 4.05 10.7 4.3 11.05 L4.55 11.35 4.6 11.6 4.75 11.5 4.75 11.55 Q4.85 11.45 5.1 10.95 L5.45 10.15 5.5 9.95 5.5 9.9 5.55 9.85 5.5 9.85 5.55 9.75 Q5.55 9.55 5.3 9.55 5.65 9.4 5.85 9.45 6.35 9.6 6.6 10.4 6.75 10.8 6.75 11.2 6.7 11.35 6.15 11.85 5.6 12.35 5.5 12.3 4.95 12.15 4.4 11.45 3.95 10.8 4.0 10.55 4.05 10.3 4.75 9.85 4.85 9.8 4.95 9.8 M5.8 10.05 L5.75 10.1 5.6 10.95 Q5.5 11.8 5.75 11.85 L5.85 11.85 Q5.85 11.8 5.9 11.8 6.15 11.7 6.4 11.5 6.65 11.3 6.65 11.25 6.85 10.65 6.4 9.95 6.2 9.65 6.05 9.65 5.9 9.6 5.8 9.9 L5.8 10.05 M2.1 14.15 L2.15 14.05 2.15 14.0 2.2 14.1 Q2.15 14.1 2.1 14.15 M1.95 13.6 Q1.85 13.7 1.75 13.95 L1.75 14.2 1.85 14.25 1.95 14.25 1.35 14.65 1.35 14.5 1.4 14.2 1.4 14.15 1.45 14.05 Q1.6 13.6 1.95 13.6 M6.6 15.75 L6.7 15.85 Q6.9 15.9 7.2 15.7 L7.25 15.65 7.25 15.8 Q7.15 16.05 6.75 16.4 6.7 16.4 6.65 16.45 6.75 16.05 6.6 15.75 M7.6 15.3 Q7.6 15.25 7.6 15.3 M5.2 15.1 L5.2 15.15 5.15 15.35 Q5.1 15.5 5.35 15.6 5.55 15.65 5.8 15.45 L6.0 15.2 6.05 15.35 Q6.0 15.4 5.9 15.45 5.85 15.5 5.65 15.75 L5.25 15.95 Q5.2 15.95 5.15 15.95 L5.15 15.85 Q5.15 15.7 5.05 15.65 L5.05 15.55 Q4.9 15.45 4.75 15.65 L4.5 15.8 4.45 15.8 4.3 15.75 4.0 15.6 3.5 15.6 3.4 15.4 Q3.3 15.2 3.15 15.15 3.0 15.1 2.8 15.2 L2.7 15.3 2.55 15.05 Q2.45 14.8 2.5 14.6 L2.6 14.4 2.7 14.25 Q2.8 14.2 2.9 14.2 L2.85 14.3 Q2.75 14.6 2.9 14.8 3.05 14.95 3.65 15.15 4.35 15.35 4.75 15.35 5.0 15.3 5.1 15.1 L5.2 15.1" fill="#807353" fill-rule="evenodd" stroke="none"/>
      <path d="M4.8 10.95 L4.65 10.85 4.6 10.75 5.0 10.3 Q4.95 10.55 4.8 10.95 M6.0 11.1 L5.95 11.15 6.05 10.4 Q6.15 10.6 6.25 11.0 6.15 11.0 6.0 11.1" fill="#403929" fill-rule="evenodd" stroke="none"/>
      <path d="M3.85 2.1 L3.85 2.05 Q4.15 1.35 4.35 1.2 L4.35 1.25 Q4.35 1.3 4.35 1.4 4.25 1.8 4.1 2.2 3.85 2.8 3.5 3.3 L2.55 4.25 Q2.35 4.5 2.25 4.75 2.25 4.9 2.35 5.15 L2.35 5.2 2.5 5.7 2.6 5.75 2.6 5.95 2.55 6.05 2.55 6.1 2.35 6.0 2.3 5.85 Q2.1 5.75 2.0 5.25 L2.0 5.1 Q1.95 4.9 2.0 4.75 L2.05 4.5 2.1 4.35 2.1 4.3 Q2.05 4.35 1.9 4.5 L1.65 4.7 Q1.65 4.8 1.8 5.1 1.75 5.15 1.8 5.2 L1.95 5.55 2.0 5.6 2.0 5.75 Q2.0 5.85 1.9 5.85 L1.9 5.9 1.8 5.9 1.75 5.85 Q1.7 5.8 1.7 5.7 L1.65 5.55 Q1.55 5.45 1.45 5.1 1.4 4.7 1.4 4.6 1.5 4.25 2.55 3.3 L3.0 2.9 3.8 2.2 3.85 2.1 M10.9 1.4 Q9.15 1.35 8.15 2.0 7.15 2.9 6.6 3.1 L6.5 3.1 6.5 3.0 Q6.55 2.7 7.5 2.1 7.75 1.9 7.95 1.8 7.8 1.6 7.7 1.0 L8.45 0.25 8.65 0.1 8.9 0.2 8.85 0.6 Q8.8 0.75 8.45 1.3 L8.3 1.55 Q8.45 1.45 8.65 1.35 8.85 1.25 9.25 0.9 9.5 0.65 9.65 0.6 10.35 0.95 10.9 1.4 M9.25 2.95 Q9.25 2.9 9.25 2.8 9.3 2.6 9.6 2.5 9.9 2.45 10.3 2.7 L10.3 2.75 10.25 2.85 Q10.25 2.95 10.2 2.9 10.15 2.9 10.1 3.0 L10.0 3.1 Q9.8 3.1 9.25 3.0 L9.25 2.95" fill="#665a41" fill-rule="evenodd" stroke="none"/>
      <path d="M11.5 8.6 Q11.55 8.9 11.5 9.2 11.3 9.7 11.15 9.9 10.95 10.2 10.3 10.45 L10.25 10.4 Q10.2 10.35 10.25 10.3 10.25 10.15 10.65 9.85 L11.05 9.45 11.15 8.95 11.25 8.55 11.45 8.55 11.5 8.6 M11.05 8.5 L11.1 8.5 11.0 8.85 Q10.85 9.4 10.65 9.55 10.25 10.0 9.45 9.8 8.75 9.55 8.1 8.4 L8.25 9.0 Q8.55 9.4 9.1 9.85 9.6 10.35 9.75 10.55 L9.7 10.6 9.65 10.6 Q9.25 10.6 8.35 9.55 8.0 9.1 7.8 8.8 L7.6 8.25 8.0 8.25 9.05 8.3 9.6 8.3 9.85 8.35 10.0 8.35 11.0 8.5 11.05 8.5 M0.8 6.65 L0.9 6.65 0.95 6.7 1.15 6.7 Q1.7 6.8 2.6 7.05 L2.75 7.05 4.25 7.35 4.35 7.45 Q4.3 7.7 3.3 8.0 2.35 8.3 1.85 8.15 1.3 7.95 1.15 7.35 1.1 7.05 1.15 6.75 L1.05 6.95 Q1.0 7.4 1.05 7.75 1.15 8.05 1.4 8.45 L1.35 8.5 1.2 8.55 Q0.7 8.3 0.65 7.6 L0.7 7.2 0.75 6.85 0.8 6.65 M4.55 7.55 L4.75 7.65 4.7 7.75 Q4.35 8.15 3.9 8.5 L3.75 8.6 Q2.6 9.15 2.0 8.9 L1.9 8.85 1.9 8.8 Q3.35 8.2 4.55 7.55 M1.15 6.7 L1.15 6.7" fill="#403828" fill-rule="evenodd" stroke="none"/>
      <path d="M11.5 8.6 Q11.6 8.65 11.65 8.65 11.6 8.8 11.65 8.95 11.6 9.0 11.6 9.05 L11.4 9.75 10.95 10.35 Q10.2 11.1 9.3 10.85 L9.25 10.85 Q8.95 10.7 8.65 10.5 8.35 10.2 8.15 9.75 L7.95 9.35 Q7.85 9.05 7.8 8.8 8.0 9.1 8.35 9.55 9.25 10.6 9.65 10.6 L9.7 10.6 9.75 10.55 Q9.6 10.35 9.1 9.85 8.55 9.4 8.25 9.0 L8.1 8.4 Q8.75 9.55 9.45 9.8 10.25 10.0 10.65 9.55 10.85 9.4 11.0 8.85 L11.1 8.5 11.05 8.5 11.25 8.55 11.15 8.95 11.05 9.45 10.65 9.85 Q10.25 10.15 10.25 10.3 10.2 10.35 10.25 10.4 L10.3 10.45 Q10.95 10.2 11.15 9.9 11.3 9.7 11.5 9.2 11.55 8.9 11.5 8.6 M4.35 7.45 L4.55 7.55 Q3.35 8.2 1.9 8.8 L1.9 8.85 2.0 8.9 Q2.6 9.15 3.75 8.6 2.7 9.4 1.5 9.0 0.65 8.7 0.65 7.6 0.7 8.3 1.2 8.55 L1.35 8.5 1.4 8.45 Q1.15 8.05 1.05 7.75 1.0 7.4 1.05 6.95 L1.15 6.75 Q1.1 7.05 1.15 7.35 1.3 7.95 1.85 8.15 2.35 8.3 3.3 8.0 4.3 7.7 4.35 7.45 M0.7 7.2 L0.75 6.75 0.8 6.65 0.75 6.85 0.7 7.2 M1.15 6.7 L1.15 6.7" fill="#594e38" fill-rule="evenodd" stroke="none"/>
    </g>
  </defs>
</svg>
