<?xml version="1.0" encoding="UTF-8" standalone="no"?>
<svg xmlns:ffdec="https://www.free-decompiler.com/flash" xmlns:xlink="http://www.w3.org/1999/xlink" ffdec:objectType="frame" height="163.1px" width="180.8px" xmlns="http://www.w3.org/2000/svg">
  <g transform="matrix(1.0, 0.0, 0.0, 1.0, 102.95, 146.2)">
    <use ffdec:characterId="287" height="163.1" transform="matrix(1.0, 0.0, 0.0, 1.0, -102.95, -146.2)" width="180.8" xlink:href="#shape0"/>
  </g>
  <defs>
    <g id="shape0" transform="matrix(1.0, 0.0, 0.0, 1.0, 102.95, 146.2)">
      <path d="M36.25 -137.7 Q42.2 -138.85 47.7 -136.9 51.85 -135.5 58.85 -131.35 61.35 -129.15 64.55 -125.1 67.35 -121.55 68.95 -118.9 L68.75 -117.8 Q69.2 -117.45 67.85 -117.45 67.15 -117.45 66.3 -118.15 L64.5 -119.65 Q61.4 -121.85 55.3 -121.85 L51.35 -121.4 49.3 -121.1 Q53.85 -120.15 58.0 -116.9 63.45 -112.6 65.35 -107.15 L65.35 -106.9 64.45 -106.7 59.15 -108.05 53.1 -109.35 53.2 -109.3 Q58.3 -106.8 58.4 -103.6 L58.6 -103.1 58.35 -103.05 58.3 -101.85 57.9 -101.65 57.3 -101.45 56.55 -102.4 Q56.25 -102.85 55.45 -102.85 52.45 -102.85 51.35 -100.2 50.7 -97.25 50.3 -96.55 49.5 -95.25 47.65 -93.3 L46.0 -91.7 Q47.55 -88.55 47.55 -86.65 47.55 -85.65 46.95 -84.7 L46.85 -84.5 Q55.85 -79.9 56.3 -74.45 56.7 -73.65 56.7 -72.6 56.7 -69.05 54.95 -64.85 L54.15 -63.2 Q55.0 -62.4 55.3 -61.5 L56.3 -58.8 Q56.95 -56.9 56.95 -55.65 L56.9 -54.8 62.25 -54.55 Q64.3 -53.15 66.45 -48.65 68.4 -44.45 68.4 -42.4 L68.25 -40.45 68.25 -40.25 67.3 -40.05 65.5 -42.45 Q63.75 -44.85 60.05 -44.85 58.25 -44.85 56.5 -42.75 L55.7 -41.6 Q58.1 -38.25 62.6 -38.25 68.65 -38.25 69.7 -39.6 L70.15 -40.55 Q70.5 -41.0 71.5 -41.0 L72.6 -40.75 Q72.8 -40.55 73.1 -40.5 L73.25 -39.5 73.25 -39.05 73.4 -39.1 Q75.0 -38.2 76.5 -35.8 77.85 -33.65 77.85 -32.65 L77.75 -29.45 77.65 -29.25 76.75 -29.05 Q75.8 -29.05 74.9 -30.1 L73.15 -32.2 68.85 -32.2 67.05 -31.35 66.45 -30.85 63.9 -28.05 Q61.9 -26.5 58.35 -26.5 55.35 -26.5 53.1 -27.25 L51.8 -27.05 Q48.4 -27.05 46.55 -32.7 45.3 -36.35 45.3 -38.75 45.3 -41.0 45.95 -43.85 L46.5 -45.7 44.6 -46.25 43.95 -44.35 Q43.05 -42.1 41.85 -40.7 L44.0 -38.55 Q45.4 -36.45 45.4 -34.15 45.4 -30.45 43.8 -26.85 41.5 -21.75 37.15 -21.75 L35.65 -21.8 35.25 -21.75 33.85 -22.05 33.65 -22.2 Q30.9 -23.0 29.85 -25.35 29.35 -26.45 29.15 -27.85 27.95 -28.05 27.05 -28.7 24.85 -26.3 24.8 -21.8 24.7 -15.75 24.2 -14.3 21.65 -6.95 12.45 -4.3 8.7 -3.2 2.8 -2.75 L-1.65 -2.45 -7.2 -2.45 -7.35 -2.5 -8.6 -2.7 Q-9.0 -2.4 -9.45 -2.3 L-11.95 -2.45 Q-13.95 -1.65 -17.6 -1.05 -22.25 -0.35 -24.45 1.4 L-27.75 4.9 -30.45 8.0 -35.75 13.4 Q-40.3 16.9 -46.45 16.9 L-50.5 16.6 -50.55 16.5 -51.2 16.5 -51.95 16.25 Q-52.15 16.05 -52.15 15.15 -52.15 14.35 -49.35 12.35 L-47.6 11.1 Q-51.35 12.1 -57.05 12.1 L-66.75 11.15 Q-73.6 9.65 -74.7 6.1 L-74.35 5.05 -74.0 5.35 -69.4 3.35 Q-67.0 2.15 -65.2 0.05 -63.9 -1.5 -63.2 -3.65 L-62.2 -7.35 Q-62.25 -7.3 -63.8 -6.35 -64.8 -5.7 -65.65 -5.7 L-66.4 -6.15 -66.65 -7.4 Q-66.65 -11.35 -63.8 -14.7 -60.5 -18.55 -54.8 -18.85 L-55.0 -21.45 -54.85 -23.6 Q-56.0 -24.55 -57.0 -26.15 L-57.9 -27.65 Q-59.5 -29.7 -59.5 -30.55 L-59.95 -30.45 -60.15 -30.25 Q-60.35 -30.25 -60.35 -31.1 -60.35 -33.45 -57.2 -34.65 L-56.0 -34.95 -64.85 -40.1 -75.9 -46.65 Q-79.0 -37.5 -83.5 -37.5 L-85.0 -37.7 Q-86.4 -37.75 -91.8 -39.7 L-98.75 -42.4 Q-100.75 -43.2 -102.0 -45.55 -102.95 -47.35 -102.95 -48.6 -102.95 -49.7 -100.3 -54.6 -97.95 -59.0 -97.1 -60.05 -94.55 -63.6 -93.05 -67.2 L-92.5 -67.75 Q-92.25 -69.85 -85.15 -69.85 -80.3 -69.85 -76.25 -67.1 -72.6 -64.65 -72.6 -62.6 L-72.6 -61.65 -72.6 -61.25 -72.7 -60.6 Q-73.0 -57.6 -74.05 -53.2 -70.6 -51.65 -65.05 -48.4 L-65.65 -50.55 Q-66.0 -52.4 -66.0 -58.95 -66.0 -67.5 -62.4 -72.1 -59.55 -75.75 -54.5 -77.35 L-55.9 -79.25 -57.4 -79.5 -57.25 -81.95 -57.25 -82.0 Q-57.45 -82.7 -57.45 -86.1 L-57.4 -88.9 -57.3 -89.0 -57.2 -89.05 -58.0 -98.15 Q-58.0 -102.95 -55.6 -104.5 L-53.65 -104.3 -53.65 -104.8 Q-53.65 -107.2 -50.15 -108.65 L-48.75 -109.65 -44.55 -112.4 Q-43.15 -113.45 -41.75 -115.6 -40.4 -117.65 -39.45 -118.25 L-37.95 -118.05 -33.75 -118.15 -31.4 -120.3 -25.55 -125.4 -24.05 -125.75 -22.75 -125.95 Q-20.95 -125.95 -19.4 -124.85 L-18.45 -124.2 Q-17.85 -125.5 -15.05 -126.45 -12.75 -127.2 -9.45 -127.4 L-9.3 -127.5 -8.5 -127.45 -0.55 -127.15 0.8 -126.7 0.9 -126.6 2.75 -126.5 4.4 -125.9 7.65 -129.4 Q12.1 -134.0 12.75 -135.85 L13.3 -138.55 Q13.6 -140.45 14.0 -141.25 15.5 -144.2 16.8 -144.5 18.05 -144.85 18.05 -142.55 18.05 -137.65 17.6 -135.25 L17.5 -134.7 19.5 -136.75 Q23.8 -140.95 24.75 -141.25 28.4 -142.7 33.55 -145.2 38.25 -146.75 45.65 -145.85 L46.75 -144.7 Q45.9 -143.9 42.95 -142.3 40.2 -140.85 38.9 -140.35 37.65 -139.9 36.25 -137.75 L36.25 -137.7 M52.9 -106.3 L50.9 -107.25 48.15 -108.45 47.4 -108.8 Q47.65 -109.9 48.5 -110.25 L48.1 -110.55 47.95 -110.85 Q50.4 -113.1 53.95 -112.25 L59.65 -111.1 60.05 -111.1 Q57.3 -113.5 52.35 -116.05 46.5 -119.0 44.6 -120.35 L44.6 -121.45 46.8 -121.4 46.75 -121.85 Q46.75 -123.0 49.05 -123.95 52.45 -125.4 59.1 -124.6 L62.0 -124.6 58.55 -128.5 Q56.85 -130.4 54.8 -131.5 50.0 -134.1 34.95 -136.45 34.1 -135.95 33.05 -135.95 L32.8 -136.1 32.75 -136.75 32.65 -136.8 32.75 -136.8 32.75 -137.0 Q32.75 -138.15 35.35 -140.6 37.9 -142.95 39.15 -143.2 L39.45 -143.45 Q32.25 -142.5 25.4 -137.65 L15.5 -129.8 14.15 -128.15 13.85 -128.2 Q13.5 -128.3 13.3 -128.55 L14.55 -132.3 Q12.95 -131.15 9.75 -127.65 L7.0 -124.85 10.15 -123.5 13.3 -122.1 Q20.5 -118.7 29.45 -112.2 32.75 -109.8 35.85 -106.6 39.4 -102.95 41.35 -99.6 L44.55 -94.45 45.3 -95.4 Q47.9 -98.7 48.1 -99.85 48.5 -102.0 50.05 -103.45 L50.45 -103.75 50.7 -104.05 Q52.15 -105.5 54.0 -105.7 L52.9 -106.3 M41.35 -92.8 Q39.9 -96.25 38.5 -97.8 L32.8 -105.05 Q29.35 -109.35 25.85 -111.4 L18.2 -116.55 Q12.7 -120.0 6.05 -122.1 L-1.7 -124.45 Q-3.35 -124.8 -6.4 -124.45 L-8.15 -123.8 Q-9.75 -123.1 -12.75 -122.8 L-13.55 -122.7 -7.9 -118.35 12.95 -103.1 Q15.55 -101.15 20.45 -97.75 L27.55 -92.8 33.2 -90.3 43.35 -86.1 43.0 -87.1 42.1 -90.75 42.05 -90.9 41.35 -92.8 M45.3 -76.95 L42.0 -79.05 Q25.1 -85.05 4.85 -94.85 -13.65 -103.8 -26.6 -112.1 L-26.65 -112.1 -27.75 -112.35 -28.65 -112.1 Q-29.25 -112.1 -32.6 -113.8 L-36.3 -115.5 Q-37.45 -115.5 -40.95 -112.05 L-45.1 -108.05 -47.35 -106.75 -48.65 -105.75 -49.6 -104.6 -49.75 -103.7 Q-44.45 -102.75 -39.35 -100.75 -28.8 -96.65 -26.65 -96.1 -25.4 -95.8 -25.3 -95.55 L-25.35 -95.5 Q-9.55 -90.75 0.65 -88.05 L0.55 -87.75 14.15 -84.05 Q29.55 -80.2 51.25 -72.8 L53.4 -73.2 53.4 -73.55 53.1 -77.0 53.4 -76.85 Q51.5 -78.9 42.7 -83.5 38.8 -85.55 35.55 -87.3 L48.6 -78.05 52.9 -75.8 52.8 -75.55 51.3 -76.0 53.1 -74.55 Q53.45 -74.0 52.85 -73.85 L52.25 -73.8 Q50.5 -73.8 45.3 -76.95 M52.15 -67.55 L52.15 -67.75 Q52.15 -68.5 50.85 -69.3 49.5 -70.05 49.5 -71.0 L49.5 -71.1 40.25 -73.95 27.75 -77.85 Q22.15 -79.35 11.2 -82.8 L-6.75 -87.75 -9.5 -88.55 -17.3 -90.35 -28.45 -93.5 -38.9 -96.8 -47.55 -98.75 Q-51.55 -99.45 -52.85 -100.65 L-53.45 -100.85 Q-54.7 -99.55 -54.5 -97.95 -54.05 -96.15 -54.1 -95.25 L-54.1 -90.05 -53.15 -90.35 Q-53.9 -88.75 -53.9 -86.95 L-53.8 -85.1 Q-53.55 -82.55 -52.45 -81.55 L-52.4 -81.5 -52.35 -81.45 Q-51.9 -81.1 -51.25 -81.0 L-45.1 -81.65 -38.9 -81.5 -32.2 -81.65 -22.7 -81.3 -22.55 -81.1 -16.95 -80.85 -16.25 -80.85 -15.9 -80.6 -15.6 -80.4 -9.1 -80.0 Q0.0 -79.75 6.85 -78.1 L18.8 -75.4 Q29.95 -73.7 37.3 -70.8 L48.1 -65.45 48.1 -63.1 50.1 -64.85 Q51.95 -66.75 52.15 -67.55 M44.2 -64.55 Q40.0 -66.4 37.8 -67.1 L31.8 -69.1 28.95 -70.0 32.6 -67.65 Q38.65 -63.5 42.1 -59.8 L41.9 -59.25 42.3 -58.8 44.15 -60.3 45.95 -61.25 Q45.0 -61.75 45.15 -62.6 45.4 -63.95 44.2 -64.55 M50.45 -59.4 L48.9 -59.0 48.95 -57.75 48.95 -57.4 50.1 -55.45 51.3 -52.3 51.5 -51.55 52.45 -52.85 52.6 -53.1 52.65 -53.2 Q54.2 -55.65 54.2 -56.95 L54.0 -58.15 53.0 -60.55 52.75 -61.15 Q51.65 -60.0 50.45 -59.4 M36.15 -41.95 L37.25 -42.35 Q39.15 -42.1 40.7 -41.4 L41.6 -45.25 42.65 -50.15 Q42.65 -52.7 40.9 -55.45 38.7 -58.85 34.75 -60.25 L29.15 -60.25 26.4 -57.5 25.85 -56.95 Q23.95 -54.85 23.95 -53.75 23.95 -53.3 25.15 -51.1 L26.65 -48.4 26.45 -47.7 Q26.15 -47.3 25.35 -47.3 L22.75 -45.65 24.6 -43.5 Q25.7 -42.0 25.7 -41.0 25.7 -40.3 24.9 -39.65 23.5 -38.55 20.25 -38.6 20.1 -37.85 20.1 -36.2 20.1 -33.85 20.25 -33.4 L20.6 -32.8 20.95 -33.1 Q23.0 -34.4 24.6 -33.95 L25.45 -34.1 Q26.3 -33.1 27.2 -32.7 30.85 -31.7 32.35 -31.85 L35.15 -32.6 36.4 -33.6 36.25 -33.9 35.0 -36.6 34.65 -36.55 Q34.15 -37.35 33.95 -38.35 L33.85 -39.5 Q33.85 -40.65 34.6 -41.2 L36.15 -41.95 M31.8 -51.6 Q35.75 -52.8 38.75 -48.05 L38.5 -47.0 38.65 -46.8 37.85 -46.6 37.7 -46.6 Q37.15 -46.6 35.7 -48.0 L34.1 -49.4 Q31.15 -49.4 30.0 -46.3 L29.45 -43.0 Q29.45 -40.8 29.9 -40.45 L32.75 -38.5 32.75 -38.45 32.55 -37.85 31.65 -37.25 28.9 -37.25 Q26.75 -38.2 26.25 -39.65 26.1 -40.1 26.1 -42.1 26.1 -48.95 30.7 -51.2 L31.8 -51.6 M45.15 -50.25 L45.1 -49.0 49.2 -49.25 49.5 -49.45 48.7 -52.0 47.35 -55.45 Q46.65 -55.1 46.2 -55.1 L44.35 -55.25 Q45.15 -53.0 45.15 -50.25 M63.3 -46.8 L64.95 -46.3 63.7 -48.9 Q62.7 -50.85 61.6 -52.0 L56.4 -53.1 55.95 -52.25 54.35 -49.95 53.25 -48.7 Q53.55 -46.15 54.45 -44.0 L55.9 -45.5 Q58.15 -47.4 59.5 -47.4 L62.35 -47.0 63.3 -46.8 M28.7 -86.8 L33.8 -84.75 10.5 -101.75 Q-4.6 -112.55 -16.4 -122.15 L-16.25 -122.25 -17.15 -122.0 -17.45 -122.3 Q-18.45 -122.6 -19.95 -123.4 L-22.65 -123.95 -25.0 -123.65 -27.65 -121.0 -28.3 -120.4 Q-30.15 -118.8 -31.95 -117.8 L-29.35 -115.95 -25.3 -113.35 -25.35 -113.25 Q-22.3 -111.45 -19.55 -110.3 -15.8 -108.25 -7.65 -104.15 L3.55 -98.35 Q14.9 -92.1 28.7 -86.8 M7.8 -51.2 L7.7 -51.2 0.25 -51.6 Q-2.2 -52.05 -3.85 -53.65 -5.45 -52.3 -5.3 -51.35 -4.85 -50.3 -4.95 -49.4 L-5.25 -49.1 Q-5.65 -48.8 -6.5 -48.8 -7.9 -48.8 -7.9 -52.55 -7.9 -54.35 -7.35 -55.1 -6.35 -56.5 -3.3 -56.5 L0.8 -55.6 7.95 -54.75 Q12.95 -54.75 16.05 -59.8 18.25 -63.3 18.25 -65.45 L17.85 -68.0 17.65 -69.0 17.05 -72.6 17.05 -72.8 -1.75 -75.85 -4.85 -76.3 -7.2 -76.6 -7.2 -76.45 Q-7.2 -73.7 -10.35 -71.55 L-11.15 -71.05 Q-12.95 -70.0 -14.9 -69.5 L-18.9 -69.0 Q-23.1 -69.0 -25.85 -73.25 L-26.35 -74.05 -25.95 -71.8 Q-25.5 -69.85 -23.1 -67.85 -19.95 -65.2 -15.5 -65.2 -13.55 -65.2 -11.0 -66.35 -8.55 -67.45 -7.6 -67.4 -9.55 -62.75 -17.25 -62.75 -24.9 -62.75 -27.95 -68.6 -29.6 -71.7 -29.6 -75.45 -29.6 -76.7 -29.2 -77.9 L-28.75 -78.9 -28.7 -79.0 -28.95 -79.0 -37.9 -79.75 -39.0 -79.5 -40.15 -79.35 -40.2 -79.35 -39.7 -79.25 -39.2 -79.15 -36.8 -78.5 Q-34.0 -77.6 -33.3 -77.0 L-33.55 -75.65 -33.55 -75.5 -33.6 -75.45 -34.5 -75.25 -37.3 -76.1 -37.95 -76.25 -42.25 -77.05 -42.3 -77.1 -49.65 -75.8 Q-59.4 -73.4 -60.9 -69.95 -62.9 -65.5 -63.1 -64.15 L-63.15 -59.1 -63.15 -58.35 Q-63.1 -53.25 -62.5 -50.3 -61.85 -46.75 -60.35 -46.2 L-59.55 -46.2 -47.0 -46.2 Q-34.35 -48.4 -30.7 -49.45 -25.15 -51.05 -25.15 -55.3 -25.15 -56.35 -25.8 -57.75 L-27.2 -60.2 Q-29.4 -63.4 -31.4 -64.0 L-31.75 -64.0 -34.35 -64.0 -34.4 -63.95 -34.6 -63.85 Q-36.3 -63.0 -38.05 -60.3 -39.9 -57.35 -42.0 -56.35 L-42.1 -57.6 -42.0 -58.8 Q-41.65 -60.85 -40.2 -63.05 -37.55 -67.1 -32.85 -67.1 L-32.7 -67.1 -32.2 -67.05 -31.4 -67.0 Q-26.7 -66.4 -24.3 -61.75 L-24.25 -61.65 -23.95 -61.05 Q-22.65 -58.25 -22.65 -55.75 -22.65 -51.8 -25.3 -49.4 L-27.4 -48.0 Q-28.85 -47.25 -31.35 -46.5 L-31.75 -46.35 Q-36.7 -44.9 -45.4 -43.3 -44.2 -41.15 -44.2 -39.1 L-44.2 -38.95 -44.2 -38.15 -44.2 -37.75 -44.25 -37.45 -44.1 -37.5 -42.7 -37.7 -35.2 -38.9 -34.3 -39.1 Q-26.55 -40.65 -20.5 -40.05 L-7.2 -38.8 Q-3.2 -38.8 -1.4 -40.35 -0.7 -41.0 -0.35 -41.85 -0.05 -42.55 0.3 -43.8 L-1.25 -43.35 -3.0 -42.9 -3.6 -42.9 -3.85 -42.9 -4.0 -43.05 -4.15 -43.0 Q-4.4 -43.1 -4.4 -44.0 -4.4 -45.15 -2.4 -46.45 -0.4 -47.75 1.95 -47.95 8.3 -48.4 8.3 -40.35 8.3 -38.65 7.3 -36.55 6.25 -34.45 4.95 -33.55 L4.8 -33.6 4.2 -33.75 Q3.95 -33.95 3.95 -34.85 L5.0 -37.35 6.05 -39.85 Q6.05 -40.8 4.65 -41.9 L2.95 -43.4 3.0 -42.75 3.0 -42.65 3.0 -42.6 3.0 -42.45 3.0 -42.35 Q2.95 -41.35 2.55 -40.5 L1.9 -39.45 Q-0.65 -36.4 -8.8 -36.0 L-20.65 -36.7 Q-30.65 -36.7 -43.8 -34.05 L-52.2 -32.25 -54.45 -31.75 Q-53.95 -31.2 -53.9 -30.45 -53.8 -28.5 -53.4 -27.8 -52.75 -26.7 -51.45 -25.85 L-49.05 -24.05 -49.15 -23.85 -49.35 -23.6 -49.8 -23.2 -50.1 -23.0 -50.05 -22.8 -50.1 -22.45 Q-50.3 -22.1 -51.2 -22.1 L-52.6 -22.3 -52.45 -21.75 Q-52.45 -21.05 -52.75 -19.9 L-53.05 -18.2 -47.3 -18.35 -44.65 -18.0 -39.5 -17.25 -38.7 -17.05 Q-38.4 -16.95 -38.4 -16.05 -38.4 -15.65 -40.7 -12.8 L-43.2 -9.9 Q-36.15 -10.15 -33.0 -11.15 -28.9 -12.5 -25.55 -12.9 L-22.8 -12.9 -21.25 -12.1 -21.05 -12.0 -20.55 -11.45 Q-20.55 -10.55 -21.7 -9.55 -22.75 -8.55 -23.9 -8.3 L-13.1 -7.4 -8.0 -6.8 -6.85 -5.6 -2.5 -6.3 Q0.05 -6.45 4.95 -6.2 L6.75 -6.25 Q16.65 -7.1 19.7 -15.95 20.5 -18.2 21.35 -24.95 22.6 -30.35 26.1 -29.45 L25.8 -29.0 26.7 -29.0 24.3 -30.85 22.85 -30.85 22.15 -29.95 22.05 -29.6 21.7 -29.5 Q19.9 -27.5 18.25 -26.25 L17.05 -26.15 16.85 -26.3 Q16.6 -26.45 16.6 -27.25 16.6 -27.8 18.0 -29.75 L17.35 -30.45 17.15 -30.45 17.0 -30.45 16.45 -30.55 15.8 -30.8 Q14.8 -31.35 13.9 -32.7 12.75 -34.5 12.75 -35.4 12.75 -37.5 13.6 -40.65 14.55 -44.3 14.7 -45.65 L15.4 -50.3 15.8 -55.0 Q13.65 -52.7 11.1 -51.75 9.5 -51.2 7.8 -51.2 M18.65 -72.5 Q20.55 -69.75 20.55 -64.8 20.55 -61.65 17.4 -57.05 L16.25 -55.55 16.9 -55.55 Q17.6 -53.0 17.6 -49.8 17.6 -48.1 16.35 -43.0 15.1 -37.9 15.1 -35.85 15.1 -35.4 16.2 -34.45 L17.6 -34.2 Q17.9 -35.0 17.45 -37.5 17.35 -39.9 19.35 -41.15 L22.55 -41.45 18.8 -45.2 Q19.45 -46.75 21.9 -47.95 L22.8 -48.3 21.8 -49.5 Q20.55 -51.25 20.55 -52.45 20.55 -57.55 24.4 -60.6 27.9 -63.3 32.85 -63.15 L33.8 -63.05 Q23.2 -69.25 19.2 -72.4 L18.65 -72.5 M39.6 -39.35 L38.05 -39.7 Q36.9 -39.7 36.3 -38.5 L36.1 -37.95 38.15 -35.9 38.15 -35.85 38.6 -35.05 38.7 -34.8 39.4 -31.55 39.45 -29.75 Q39.45 -28.2 38.05 -25.15 L37.55 -24.05 Q39.75 -24.25 41.85 -27.8 43.65 -30.85 43.65 -31.75 L43.65 -31.8 43.65 -31.85 43.65 -32.0 43.4 -33.7 42.4 -36.25 42.0 -37.05 Q40.95 -38.8 39.6 -39.35 M36.25 -31.2 L36.0 -30.9 35.3 -30.45 34.9 -30.3 35.65 -29.55 Q36.15 -29.2 37.15 -28.8 L37.25 -30.25 37.0 -31.9 36.7 -31.6 36.25 -31.2 M32.8 -29.7 L31.65 -29.6 31.25 -29.6 32.15 -28.0 34.15 -24.45 35.2 -24.35 36.3 -26.1 36.4 -26.35 36.55 -26.7 36.15 -26.7 36.05 -26.7 Q34.3 -26.7 33.5 -28.45 L33.15 -29.45 33.1 -29.75 32.8 -29.7 M58.5 -29.35 L59.8 -29.35 Q62.1 -30.3 65.35 -33.75 L66.6 -35.0 64.45 -34.9 Q56.85 -34.9 53.1 -39.4 50.7 -42.3 50.7 -45.2 L50.8 -46.45 50.3 -46.35 48.85 -45.55 48.45 -44.5 48.35 -44.1 48.4 -39.65 Q48.4 -35.95 49.25 -34.35 50.85 -31.4 55.8 -29.7 L56.85 -29.35 58.5 -29.35 M74.1 -35.1 L73.0 -36.4 71.65 -36.05 70.5 -34.65 Q72.45 -34.7 74.9 -33.95 L74.1 -35.1 M-54.6 -108.2 L-54.5 -108.2 -54.65 -108.0 -54.6 -108.2 M-80.0 -65.45 Q-81.4 -66.2 -82.75 -66.55 L-84.3 -66.8 -84.6 -66.85 -87.9 -66.75 -88.0 -66.7 -88.8 -66.6 -89.55 -66.45 -89.85 -66.4 -91.7 -66.0 -96.35 -58.0 -99.6 -51.9 Q-100.75 -49.45 -100.75 -48.4 -100.75 -46.15 -94.95 -43.9 L-84.7 -40.6 -84.1 -40.95 -81.8 -42.3 Q-81.0 -43.2 -80.45 -44.3 L-79.9 -45.6 -78.4 -50.9 -76.4 -56.15 -75.65 -58.2 -75.25 -60.95 Q-75.25 -61.9 -75.8 -62.8 -77.0 -63.8 -79.5 -65.2 L-80.0 -65.45 M-85.0 -44.4 L-84.6 -43.45 -85.45 -43.05 -87.35 -42.65 Q-91.0 -42.65 -92.4 -44.1 -93.1 -44.8 -93.05 -45.55 L-92.95 -46.85 -92.15 -47.1 -90.75 -47.4 -89.7 -47.3 -89.4 -46.85 -90.1 -45.7 Q-90.5 -45.25 -91.3 -45.35 -91.0 -45.05 -90.05 -44.7 L-88.85 -44.25 -87.35 -44.1 -86.65 -44.15 -87.05 -45.25 -90.3 -47.95 -95.7 -47.95 Q-97.2 -48.35 -97.55 -48.8 -92.55 -51.55 -89.3 -49.8 -88.15 -49.2 -87.15 -48.0 L-86.95 -47.8 Q-85.0 -45.8 -85.0 -45.1 L-85.0 -44.4 M-15.7 -76.9 L-17.5 -75.0 -18.9 -74.7 Q-20.35 -75.35 -21.1 -76.4 -21.7 -77.3 -21.7 -78.15 L-21.7 -78.3 -25.05 -78.65 -24.35 -77.0 Q-23.2 -74.7 -21.2 -73.25 L-19.05 -73.05 -17.6 -72.9 -14.7 -73.55 -11.4 -74.45 -10.15 -76.65 -9.95 -76.95 -15.05 -77.55 -15.1 -77.55 -15.6 -77.0 -15.7 -76.9 M-50.05 -78.3 L-42.4 -78.55 -41.3 -79.35 -41.4 -79.35 -49.35 -78.9 -50.05 -78.3 M-74.85 -50.05 L-75.0 -49.6 -75.2 -48.9 -68.65 -45.2 Q-66.05 -44.0 -63.5 -42.4 -57.15 -38.0 -53.25 -35.75 L-51.25 -36.4 -51.15 -36.4 -48.25 -36.9 Q-56.4 -40.55 -63.65 -44.7 -70.9 -48.85 -74.4 -51.85 L-74.85 -50.05 M-48.05 -43.1 L-56.3 -43.1 -46.75 -37.45 Q-47.5 -39.05 -48.05 -43.1 M-57.0 -31.15 L-56.75 -30.8 -56.45 -31.25 -57.0 -31.15 M-47.05 -8.45 L-47.4 -8.8 -42.25 -14.85 Q-43.2 -14.9 -45.0 -15.45 L-47.3 -16.05 -54.75 -16.45 -57.35 -16.5 Q-59.4 -15.55 -60.05 -14.7 L-62.2 -12.05 -64.1 -9.45 -64.1 -9.1 -61.9 -10.3 Q-60.3 -11.1 -58.7 -10.75 L-58.15 -9.9 Q-59.85 -7.0 -61.75 -0.4 -63.0 2.55 -65.25 4.55 L-69.0 6.85 -70.1 7.25 -71.05 7.25 -70.7 7.45 -70.55 7.5 -68.85 8.25 -66.95 8.85 -66.85 8.85 -57.65 9.8 -57.3 9.8 Q-49.8 9.8 -47.0 7.9 L-46.7 7.65 -45.1 6.15 Q-44.2 5.5 -42.55 5.5 L-42.1 5.5 Q-40.4 3.6 -39.35 3.15 L-39.15 3.3 -39.15 4.15 Q-39.15 5.85 -42.8 9.75 L-47.15 14.0 -47.35 14.25 -47.55 14.4 -47.3 14.4 Q-42.0 13.85 -38.05 10.65 L-33.0 5.8 Q-31.35 4.6 -30.35 2.8 L-28.75 0.05 Q-26.35 -2.9 -16.6 -3.95 L-9.7 -4.3 -23.45 -5.6 Q-29.6 -6.4 -31.4 -7.05 -27.95 -8.35 -27.05 -8.9 L-26.75 -9.2 -26.4 -9.55 -26.25 -9.65 -33.55 -8.8 -37.3 -7.65 -38.95 -7.05 -40.9 -7.05 -42.85 -7.05 -45.1 -7.05 -47.05 -8.45 M-22.3 -17.65 L-22.45 -17.05 Q-22.55 -16.8 -23.35 -16.8 -24.7 -16.8 -31.35 -19.3 -37.25 -21.5 -39.65 -22.65 -35.0 -24.65 -30.15 -22.55 -28.8 -21.95 -22.3 -17.65" fill="#111111" fill-rule="evenodd" stroke="none"/>
      <path d="M20.45 -97.75 Q15.55 -101.15 12.95 -103.1 L-7.9 -118.35 -13.55 -122.7 -12.75 -122.8 Q-9.75 -123.1 -8.15 -123.8 L-6.4 -124.45 Q-3.35 -124.8 -1.7 -124.45 L6.05 -122.1 Q12.7 -120.0 18.2 -116.55 L25.85 -111.4 Q29.35 -109.35 32.8 -105.05 L38.5 -97.8 Q39.9 -96.25 41.35 -92.8 L35.75 -93.8 Q34.35 -93.95 28.75 -96.05 L23.0 -98.1 20.75 -97.8 20.45 -97.75 M26.4 -57.5 L29.15 -60.25 34.75 -60.25 Q38.7 -58.85 40.9 -55.45 42.65 -52.7 42.65 -50.15 L41.6 -45.25 40.7 -41.4 Q39.15 -42.1 37.25 -42.35 L36.15 -41.95 37.0 -42.25 Q37.85 -44.1 37.85 -45.35 L37.85 -46.6 38.65 -46.8 38.5 -47.0 38.75 -48.05 Q35.75 -52.8 31.8 -51.6 30.6 -52.45 28.8 -52.4 L28.25 -52.45 Q27.9 -52.6 27.9 -53.55 L28.1 -55.4 Q28.0 -56.65 26.7 -57.45 L26.4 -57.5 M-23.95 -61.05 Q-20.15 -59.1 -16.35 -59.1 -8.5 -59.1 -4.4 -65.9 -3.25 -67.8 -2.6 -69.5 -2.05 -69.8 -1.4 -70.25 0.55 -71.55 5.6 -71.55 9.05 -71.55 14.2 -69.55 L14.3 -69.5 14.25 -68.45 Q14.55 -65.65 13.65 -62.7 11.9 -56.7 6.2 -56.7 4.1 -56.7 1.5 -58.05 -1.1 -59.4 -3.3 -59.4 -7.8 -59.4 -8.9 -54.45 -9.2 -53.2 -9.2 -48.45 -9.2 -47.5 -8.6 -46.95 L-7.7 -46.2 Q-5.65 -46.45 -4.4 -48.45 -3.2 -50.3 -0.6 -50.3 L6.4 -50.95 7.8 -51.2 Q9.5 -51.2 11.1 -51.75 L11.15 -50.45 10.65 -43.2 10.25 -37.95 Q10.25 -37.15 10.6 -35.5 L11.0 -33.15 Q11.0 -32.75 13.35 -30.7 L14.25 -29.95 Q12.25 -27.9 11.6 -25.1 11.25 -23.6 11.1 -21.1 L10.85 -17.4 Q10.5 -12.2 7.9 -10.95 5.75 -9.95 -3.15 -9.95 -12.55 -9.95 -15.1 -11.05 -17.35 -12.0 -21.25 -12.1 L-22.8 -12.9 -25.55 -12.9 Q-28.9 -12.5 -33.0 -11.15 -36.15 -10.15 -43.2 -9.9 L-40.7 -12.8 Q-38.4 -15.65 -38.4 -16.05 -38.4 -16.95 -38.7 -17.05 L-39.5 -17.25 -44.65 -18.0 -47.3 -18.35 -53.05 -18.2 -52.75 -19.9 Q-52.45 -21.05 -52.45 -21.75 L-52.6 -22.3 -51.2 -22.1 Q-50.3 -22.1 -50.1 -22.45 L-50.05 -22.8 -50.1 -23.0 -49.8 -23.2 -49.35 -23.6 -49.6 -23.3 -48.45 -23.0 -40.8 -21.75 Q-35.15 -20.9 -32.4 -19.65 L-26.0 -16.25 Q-22.75 -14.7 -18.2 -14.7 -9.4 -14.7 -6.15 -16.2 -4.05 -17.2 -4.05 -19.1 -4.05 -22.05 -9.0 -22.7 L-17.25 -23.9 Q-20.25 -25.15 -23.3 -27.35 -26.85 -28.95 -36.65 -29.4 L-45.1 -30.35 Q-50.35 -31.2 -52.2 -32.25 L-43.8 -34.05 Q-30.65 -36.7 -20.65 -36.7 L-8.8 -36.0 Q-0.65 -36.4 1.9 -39.45 L1.0 -38.55 1.3 -37.8 Q1.75 -34.2 2.1 -33.45 1.8 -33.15 3.3 -33.15 4.2 -33.15 4.8 -33.6 L4.95 -33.55 Q6.25 -34.45 7.3 -36.55 8.3 -38.65 8.3 -40.35 8.3 -48.4 1.95 -47.95 -0.4 -47.75 -2.4 -46.45 -4.4 -45.15 -4.4 -44.0 -4.4 -43.1 -4.15 -43.0 L-4.0 -43.05 -3.85 -42.9 -4.05 -42.05 -3.9 -40.9 -3.75 -40.5 -1.4 -40.35 Q-3.2 -38.8 -7.2 -38.8 L-20.5 -40.05 Q-26.55 -40.65 -34.3 -39.1 L-30.75 -42.0 Q-25.25 -46.8 -25.25 -48.75 L-25.3 -49.4 Q-22.65 -51.8 -22.65 -55.75 -22.65 -58.25 -23.95 -61.05 M-10.35 -71.55 Q-12.05 -69.8 -14.9 -69.5 -12.95 -70.0 -11.15 -71.05 L-10.35 -71.55 M-28.75 -78.9 L-28.95 -79.0 -28.7 -79.0 -28.75 -78.9 M-40.15 -79.35 L-39.7 -79.25 -40.2 -79.35 -40.15 -79.35 M-59.55 -46.2 L-60.35 -46.2 Q-61.85 -46.75 -62.5 -50.3 L-61.2 -48.45 Q-60.75 -47.3 -59.55 -46.2 M-42.7 -37.7 L-44.1 -37.5 -44.25 -37.45 -44.2 -37.75 -43.45 -37.6 -42.7 -37.7 M-31.75 -46.35 L-31.35 -46.5 -31.65 -46.2 -31.75 -46.35" fill="#b39062" fill-rule="evenodd" stroke="none"/>
      <path d="M10.15 -123.5 L7.0 -124.85 9.75 -127.65 Q12.95 -131.15 14.55 -132.3 L13.3 -128.55 Q13.5 -128.3 13.85 -128.2 L14.15 -128.15 15.5 -129.8 25.4 -137.65 Q32.25 -142.5 39.45 -143.45 L39.15 -143.2 Q37.9 -142.95 35.35 -140.6 32.75 -138.15 32.75 -137.0 L32.75 -136.8 32.65 -136.8 32.75 -136.75 32.8 -136.1 33.05 -135.95 Q34.1 -135.95 34.95 -136.45 50.0 -134.1 54.8 -131.5 56.85 -130.4 58.55 -128.5 L62.0 -124.6 59.1 -124.6 Q52.45 -125.4 49.05 -123.95 46.75 -123.0 46.75 -121.85 L46.8 -121.4 44.6 -121.45 44.6 -120.35 Q46.5 -119.0 52.35 -116.05 57.3 -113.5 60.05 -111.1 L59.65 -111.1 53.95 -112.25 Q50.4 -113.1 47.95 -110.85 L48.1 -110.55 48.5 -110.25 Q47.65 -109.9 47.4 -108.8 L48.15 -108.45 50.9 -107.25 52.9 -106.3 51.0 -106.6 41.25 -107.45 Q39.2 -108.35 39.2 -110.1 39.2 -111.0 40.3 -111.9 L43.65 -114.75 43.95 -115.2 40.9 -115.5 38.15 -115.95 Q36.2 -118.1 36.2 -119.25 36.2 -120.55 37.25 -121.85 37.9 -124.0 40.15 -126.15 42.5 -128.45 45.15 -129.45 36.15 -130.5 31.15 -128.35 28.4 -127.15 25.45 -123.8 L21.8 -122.9 21.15 -123.0 21.45 -123.5 21.35 -123.5 20.9 -123.95 20.85 -125.15 Q20.85 -126.85 22.65 -128.15 L23.6 -128.7 21.8 -128.85 13.55 -124.8 Q11.55 -124.2 10.15 -123.5 M38.6 -126.9 L37.55 -127.0 40.65 -127.95 39.95 -127.65 38.6 -126.9 M19.95 -124.2 L20.1 -123.25 19.35 -123.65 19.65 -124.1 19.95 -124.2 M18.65 -72.5 L19.2 -72.4 Q23.2 -69.25 33.8 -63.05 L32.85 -63.15 Q27.9 -63.3 24.4 -60.6 20.55 -57.55 20.55 -52.45 20.55 -51.25 21.8 -49.5 L22.8 -48.3 21.9 -47.95 Q19.45 -46.75 18.8 -45.2 L22.55 -41.45 19.35 -41.15 Q17.35 -39.9 17.45 -37.5 17.9 -35.0 17.6 -34.2 L16.2 -34.45 Q15.1 -35.4 15.1 -35.85 15.1 -37.9 16.35 -43.0 17.6 -48.1 17.6 -49.8 17.6 -53.0 16.9 -55.55 L16.25 -55.55 17.4 -57.05 Q20.55 -61.65 20.55 -64.8 20.55 -69.75 18.65 -72.5 M-65.25 4.55 Q-63.0 2.55 -61.75 -0.4 -59.85 -7.0 -58.15 -9.9 L-58.7 -10.75 Q-60.3 -11.1 -61.9 -10.3 L-64.1 -9.1 -64.1 -9.45 -62.2 -12.05 -60.05 -14.7 Q-59.4 -15.55 -57.35 -16.5 L-54.75 -16.45 -47.3 -16.05 -45.0 -15.45 Q-43.2 -14.9 -42.25 -14.85 L-47.4 -8.8 -47.05 -8.45 -49.1 -7.0 Q-52.5 -4.5 -53.65 -2.5 -49.3 -3.2 -44.5 -2.6 L-38.15 -3.15 -35.0 -3.15 -35.0 -3.0 Q-39.05 -0.55 -42.15 0.6 -45.9 1.95 -62.4 3.6 L-64.25 3.55 -65.25 4.55 M-42.85 -7.05 L-40.9 -7.05 -41.45 -6.95 -43.05 -6.9 -42.85 -7.05 M-37.3 -7.65 L-33.55 -8.8 -26.25 -9.65 -26.4 -9.55 -26.75 -9.2 -26.5 -9.45 -28.6 -9.5 -32.85 -8.75 -36.75 -7.85 -37.3 -7.65 M-47.3 14.4 L-47.55 14.4 -47.35 14.25 -47.3 14.4 M-47.0 7.9 Q-49.8 9.8 -57.3 9.8 L-56.2 9.8 Q-52.4 9.65 -49.65 8.7 L-47.0 7.9 M-57.65 9.8 L-66.85 8.85 -65.3 9.0 -57.65 9.8" fill="#663060" fill-rule="evenodd" stroke="none"/>
      <path d="M-15.7 -76.9 L-15.6 -77.0 -15.1 -77.55 -15.05 -77.55 -9.95 -76.95 -10.15 -76.65 -11.4 -74.45 -14.7 -73.55 -17.6 -72.9 -19.05 -73.05 -21.2 -73.25 Q-23.2 -74.7 -24.35 -77.0 L-25.05 -78.65 -21.7 -78.3 -21.7 -78.15 Q-21.7 -77.3 -21.1 -76.4 -20.35 -75.35 -18.9 -74.7 L-17.5 -75.0 -15.7 -76.9" fill="#ffffff" fill-rule="evenodd" stroke="none"/>
      <path d="M38.15 -35.9 L36.1 -37.95 36.3 -38.5 Q36.9 -39.7 38.05 -39.7 L39.6 -39.35 Q38.0 -39.2 38.0 -37.35 38.0 -36.4 38.15 -35.9 M42.0 -37.05 L42.4 -36.25 43.4 -33.7 43.2 -34.35 Q42.3 -34.3 41.2 -33.4 L39.4 -31.55 38.7 -34.8 38.6 -35.05 Q39.1 -34.5 39.95 -34.5 40.95 -34.5 41.55 -35.65 L42.0 -37.05 M36.4 -26.35 L36.15 -26.7 36.55 -26.7 36.4 -26.35 M33.15 -29.45 L32.8 -29.7 33.1 -29.75 33.15 -29.45" fill="#e6c272" fill-rule="evenodd" stroke="none"/>
      <path d="M-80.45 -44.3 Q-80.9 -45.65 -82.45 -47.0 L-81.55 -49.35 -80.25 -52.1 -78.4 -57.05 Q-76.75 -61.8 -76.75 -63.05 -76.75 -63.55 -76.85 -63.35 -77.75 -62.15 -78.75 -59.45 L-80.25 -54.95 -82.25 -50.3 -83.35 -47.75 -83.75 -48.05 Q-85.35 -49.25 -87.25 -50.1 L-86.0 -52.45 -86.0 -52.35 -86.85 -50.25 -86.8 -49.95 -86.75 -50.0 -86.45 -50.0 Q-85.6 -51.45 -84.75 -53.75 L-83.3 -57.7 -81.55 -61.5 Q-80.1 -64.85 -80.0 -65.45 L-79.5 -65.2 Q-77.0 -63.8 -75.8 -62.8 -75.25 -61.9 -75.25 -60.95 L-75.65 -58.2 -76.4 -56.15 -78.4 -50.9 -79.9 -45.6 -80.45 -44.3 M-87.75 -50.95 L-87.95 -50.45 -88.1 -50.5 -87.75 -51.05 -87.75 -50.95 M-51.15 -36.4 L-54.4 -38.6 Q-60.55 -42.65 -62.4 -43.45 -63.95 -44.1 -66.45 -45.55 -69.05 -47.05 -70.35 -47.65 -71.5 -48.05 -74.0 -49.65 L-74.85 -50.05 -74.4 -51.85 Q-70.9 -48.85 -63.65 -44.7 -56.4 -40.55 -48.25 -36.9 L-51.15 -36.4" fill="#40363d" fill-rule="evenodd" stroke="none"/>
      <path d="M-89.85 -66.4 L-89.55 -66.45 -88.8 -66.6 -88.0 -66.7 -87.9 -66.75 -84.6 -66.85 -84.3 -66.8 -82.75 -66.55 Q-81.4 -66.2 -80.0 -65.45 -80.1 -64.85 -81.55 -61.5 L-83.3 -57.7 -84.75 -53.75 Q-85.6 -51.45 -86.45 -50.0 L-86.75 -50.0 -86.8 -49.95 -86.85 -50.25 -86.0 -52.35 -86.0 -52.45 -87.25 -50.1 Q-85.35 -49.25 -83.75 -48.05 L-83.35 -47.75 -82.25 -50.3 -80.25 -54.95 -78.75 -59.45 Q-77.75 -62.15 -76.85 -63.35 -76.75 -63.55 -76.75 -63.05 -76.75 -61.8 -78.4 -57.05 L-80.25 -52.1 -81.55 -49.35 -82.45 -47.0 Q-80.9 -45.65 -80.45 -44.3 -81.0 -43.2 -81.8 -42.3 L-84.1 -40.95 -84.7 -40.6 -94.95 -43.9 Q-100.75 -46.15 -100.75 -48.4 -100.75 -49.45 -99.6 -51.9 L-99.2 -52.05 -96.0 -52.45 -92.1 -61.75 -89.85 -66.4 M-87.75 -50.95 L-87.75 -51.05 -88.1 -50.5 -87.95 -50.45 -87.75 -50.95 M-89.1 -52.4 L-88.5 -52.4 Q-86.75 -55.3 -85.7 -58.45 -84.65 -61.45 -84.6 -63.75 -85.7 -62.5 -87.25 -58.85 L-89.85 -52.85 Q-89.7 -52.45 -89.1 -52.4 M-85.0 -44.4 L-85.0 -45.1 Q-85.0 -45.8 -86.95 -47.8 L-87.15 -48.0 Q-88.15 -49.2 -89.3 -49.8 -92.55 -51.55 -97.55 -48.8 -97.2 -48.35 -95.7 -47.95 L-90.3 -47.95 -87.05 -45.25 -86.65 -44.15 -87.35 -44.1 -88.85 -44.25 -90.05 -44.7 Q-91.0 -45.05 -91.3 -45.35 -90.5 -45.25 -90.1 -45.7 L-89.4 -46.85 -89.7 -47.3 -90.75 -47.4 -92.15 -47.1 -92.95 -46.85 -93.05 -45.55 Q-93.1 -44.8 -92.4 -44.1 -91.0 -42.65 -87.35 -42.65 L-85.45 -43.05 -84.6 -43.45 -85.0 -44.4 M-51.15 -36.4 L-51.25 -36.4 -53.25 -35.75 Q-57.15 -38.0 -63.5 -42.4 -66.05 -44.0 -68.65 -45.2 L-75.2 -48.9 -75.0 -49.6 -74.85 -50.05 -74.0 -49.65 Q-71.5 -48.05 -70.35 -47.65 -69.05 -47.05 -66.45 -45.55 -63.95 -44.1 -62.4 -43.45 -60.55 -42.65 -54.4 -38.6 L-51.15 -36.4" fill="#262024" fill-rule="evenodd" stroke="none"/>
      <path d="M-89.85 -66.4 L-92.1 -61.75 -96.0 -52.45 -99.2 -52.05 -99.6 -51.9 -96.35 -58.0 -91.7 -66.0 -89.85 -66.4" fill="#806c79" fill-rule="evenodd" stroke="none"/>
      <path d="M-89.1 -52.4 Q-89.7 -52.45 -89.85 -52.85 L-87.25 -58.85 Q-85.7 -62.5 -84.6 -63.75 -84.65 -61.45 -85.7 -58.45 -86.75 -55.3 -88.5 -52.4 L-89.1 -52.4" fill="#b398aa" fill-rule="evenodd" stroke="none"/>
      <path d="M-48.65 -105.75 L-47.35 -106.75 -45.1 -108.05 -40.95 -112.05 Q-37.45 -115.5 -36.3 -115.5 L-32.6 -113.8 Q-29.25 -112.1 -28.65 -112.1 L-27.75 -112.35 -26.65 -112.1 -26.6 -112.1 Q-13.65 -103.8 4.85 -94.85 25.1 -85.05 42.0 -79.05 L45.3 -76.95 39.55 -78.95 16.35 -86.55 Q4.8 -91.1 -1.8 -95.6 -4.8 -97.65 -12.35 -100.5 -21.45 -103.95 -26.7 -103.95 -27.65 -103.95 -27.9 -103.6 L-28.2 -102.9 Q-28.2 -101.75 -27.3 -101.1 -26.2 -100.8 -20.5 -98.3 L-13.35 -95.3 -35.0 -102.6 Q-43.85 -105.25 -48.65 -105.75 M52.85 -73.85 Q53.45 -74.0 53.1 -74.55 L51.3 -76.0 52.8 -75.55 52.9 -75.8 48.6 -78.05 35.55 -87.3 Q38.8 -85.55 42.7 -83.5 51.5 -78.9 53.4 -76.85 L53.1 -77.0 53.4 -73.55 52.85 -73.85 M-53.8 -85.1 L-53.9 -86.95 Q-53.9 -88.75 -53.15 -90.35 L-54.1 -90.05 -54.1 -95.25 Q-54.05 -96.15 -54.5 -97.95 -54.7 -99.55 -53.45 -100.85 L-52.85 -100.65 Q-51.55 -99.45 -47.55 -98.75 L-38.9 -96.8 -28.45 -93.5 -17.3 -90.35 -9.5 -88.55 -6.75 -87.75 11.2 -82.8 Q22.15 -79.35 27.75 -77.85 L40.25 -73.95 49.5 -71.1 49.5 -71.0 Q49.5 -70.05 50.85 -69.3 52.15 -68.5 52.15 -67.75 L52.15 -67.55 Q48.6 -70.4 38.15 -73.4 L14.55 -79.55 Q2.85 -82.3 -18.65 -88.15 -34.35 -91.9 -34.35 -88.4 L-34.2 -87.5 -34.05 -87.75 -27.0 -85.05 -53.8 -85.1 M51.3 -52.3 L52.25 -52.55 52.45 -52.85 51.5 -51.55 51.3 -52.3 M54.0 -58.15 L53.4 -58.6 Q52.05 -59.5 50.45 -59.4 51.65 -60.0 52.75 -61.15 L53.0 -60.55 54.0 -58.15 M55.95 -52.25 L56.4 -53.1 61.6 -52.0 Q62.7 -50.85 63.7 -48.9 L64.95 -46.3 63.3 -46.8 64.05 -46.6 63.65 -47.05 57.6 -52.1 55.95 -52.25 M28.7 -86.8 L28.8 -86.75 28.45 -87.75 Q28.0 -88.6 27.15 -89.1 11.2 -96.05 -4.2 -106.75 L-5.55 -108.05 -12.1 -114.8 Q-16.35 -118.8 -18.6 -117.75 L-15.9 -114.15 -24.5 -118.8 -28.3 -120.4 -27.65 -121.0 -25.0 -123.65 -22.65 -123.95 -19.95 -123.4 Q-18.45 -122.6 -17.45 -122.3 L-17.15 -122.0 -16.25 -122.25 -16.4 -122.15 Q-4.6 -112.55 10.5 -101.75 L33.8 -84.75 28.7 -86.8 M55.8 -29.7 L58.5 -29.35 56.85 -29.35 55.8 -29.7 M74.1 -35.1 L74.9 -33.95 Q72.45 -34.7 70.5 -34.65 L71.65 -36.05 73.0 -36.4 74.1 -35.1 M-10.85 -93.95 L-12.9 -94.85 -13.05 -95.0 -10.55 -94.1 -10.85 -93.95" fill="#8c0000" fill-rule="evenodd" stroke="none"/>
      <path d="M-48.65 -105.75 Q-43.85 -105.25 -35.0 -102.6 L-13.35 -95.3 -20.5 -98.3 Q-26.2 -100.8 -27.3 -101.1 -28.2 -101.75 -28.2 -102.9 L-27.9 -103.6 Q-27.65 -103.95 -26.7 -103.95 -21.45 -103.95 -12.35 -100.5 -4.8 -97.65 -1.8 -95.6 4.8 -91.1 16.35 -86.55 L39.55 -78.95 45.3 -76.95 Q50.5 -73.8 52.25 -73.8 L52.85 -73.85 53.4 -73.55 53.4 -73.2 51.25 -72.8 Q29.55 -80.2 14.15 -84.05 L0.55 -87.75 0.65 -88.05 Q-9.55 -90.75 -25.35 -95.5 L-25.3 -95.55 Q-25.4 -95.8 -26.65 -96.1 -28.8 -96.65 -39.35 -100.75 -44.45 -102.75 -49.75 -103.7 L-49.6 -104.6 -48.65 -105.75 M-53.8 -85.1 L-27.0 -85.05 -34.05 -87.75 -34.2 -87.5 -34.35 -88.4 Q-34.35 -91.9 -18.65 -88.15 2.85 -82.3 14.55 -79.55 L38.15 -73.4 Q48.6 -70.4 52.15 -67.55 51.95 -66.75 50.1 -64.85 L48.1 -63.1 48.1 -65.45 37.3 -70.8 Q29.95 -73.7 18.8 -75.4 L6.85 -78.1 Q0.0 -79.75 -9.1 -80.0 L-15.6 -80.4 -15.9 -80.6 -16.25 -80.85 -16.95 -80.85 -22.55 -81.1 -22.7 -81.3 -32.2 -81.65 -38.9 -81.5 -45.1 -81.65 -51.25 -81.0 Q-51.9 -81.1 -52.35 -81.45 L-52.4 -81.5 -52.45 -81.55 Q-53.55 -82.55 -53.8 -85.1 M51.3 -52.3 L50.1 -55.45 48.95 -57.4 48.95 -57.75 48.9 -59.0 50.45 -59.4 Q52.05 -59.5 53.4 -58.6 L54.0 -58.15 54.2 -56.95 Q54.2 -55.65 52.65 -53.2 L52.6 -53.1 52.45 -52.85 52.25 -52.55 51.3 -52.3 M44.2 -64.55 Q45.4 -63.95 45.15 -62.6 45.0 -61.75 45.95 -61.25 L44.15 -60.3 42.3 -58.8 41.9 -59.25 42.1 -59.8 Q38.65 -63.5 32.6 -67.65 L28.95 -70.0 31.8 -69.1 37.8 -67.1 Q40.0 -66.4 44.2 -64.55 M45.15 -50.25 Q45.15 -53.0 44.35 -55.25 L46.2 -55.1 Q46.65 -55.1 47.35 -55.45 L48.7 -52.0 49.5 -49.45 49.2 -49.25 45.1 -49.0 45.15 -50.25 M55.95 -52.25 L57.6 -52.1 63.65 -47.05 64.05 -46.6 63.3 -46.8 62.35 -47.0 59.5 -47.4 Q58.15 -47.4 55.9 -45.5 L54.45 -44.0 Q53.55 -46.15 53.25 -48.7 L54.35 -49.95 55.95 -52.25 M-28.3 -120.4 L-24.5 -118.8 -15.9 -114.15 -18.6 -117.75 Q-16.35 -118.8 -12.1 -114.8 L-5.55 -108.05 -4.2 -106.75 Q11.2 -96.05 27.15 -89.1 28.0 -88.6 28.45 -87.75 L28.8 -86.75 28.7 -86.8 Q14.9 -92.1 3.55 -98.35 L-7.65 -104.15 Q-15.8 -108.25 -19.55 -110.3 -22.3 -111.45 -25.35 -113.25 L-25.3 -113.35 -29.35 -115.95 -31.95 -117.8 Q-30.15 -118.8 -28.3 -120.4 M55.8 -29.7 Q50.85 -31.4 49.25 -34.35 48.4 -35.95 48.4 -39.65 L48.35 -44.1 48.45 -44.5 48.85 -45.55 50.3 -46.35 50.8 -46.45 50.7 -45.2 Q50.7 -42.3 53.1 -39.4 56.85 -34.9 64.45 -34.9 L66.6 -35.0 65.35 -33.75 Q62.1 -30.3 59.8 -29.35 L58.5 -29.35 55.8 -29.7 M-10.85 -93.95 L-10.55 -94.1 -13.05 -95.0 -12.9 -94.85 -10.85 -93.95 M-50.05 -78.3 L-49.35 -78.9 -41.4 -79.35 -41.3 -79.35 -42.4 -78.55 -50.05 -78.3" fill="#590000" fill-rule="evenodd" stroke="none"/>
      <path d="M-37.95 -76.25 Q-37.75 -75.45 -37.25 -74.75 -36.35 -73.45 -36.35 -72.75 -36.35 -72.0 -37.1 -70.65 -43.2 -68.15 -43.2 -61.95 -43.4 -61.1 -43.2 -60.3 -42.95 -59.2 -42.0 -58.8 L-42.1 -57.6 -42.0 -56.35 Q-39.9 -57.35 -38.05 -60.3 -36.3 -63.0 -34.6 -63.85 L-33.3 -62.7 Q-32.45 -63.05 -31.75 -64.0 L-31.4 -64.0 Q-29.4 -63.4 -27.2 -60.2 L-25.8 -57.75 -27.6 -56.25 Q-30.05 -54.85 -35.25 -53.4 -44.2 -50.9 -54.0 -50.9 -61.9 -50.9 -62.15 -54.7 L-62.15 -57.3 Q-62.3 -58.1 -63.15 -58.35 L-63.15 -59.1 -63.1 -64.15 Q-62.9 -65.5 -60.9 -69.95 -59.4 -73.4 -49.65 -75.8 L-42.3 -77.1 -42.25 -77.05 -37.95 -76.25 M-31.65 -61.45 L-32.4 -61.55 Q-34.85 -61.7 -34.85 -59.0 L-34.65 -57.9 Q-34.1 -56.7 -32.4 -56.7 -31.6 -56.7 -30.9 -57.15 -30.0 -57.75 -30.0 -58.95 L-30.05 -59.8 -30.0 -60.3 Q-30.55 -61.1 -31.5 -61.5 L-31.65 -61.45 M-48.1 -72.95 Q-49.45 -73.2 -51.45 -72.95 -53.9 -72.65 -55.7 -71.5 -57.6 -70.25 -57.6 -68.6 -57.6 -67.2 -57.15 -66.5 -56.05 -64.7 -52.5 -64.7 -49.35 -64.7 -47.25 -66.2 -46.1 -67.05 -45.6 -68.1 L-45.1 -68.55 Q-44.7 -69.05 -44.7 -70.35 -44.7 -73.55 -47.85 -73.0 L-48.1 -72.95" fill="#cc7064" fill-rule="evenodd" stroke="none"/>
      <path d="M-33.55 -75.5 Q-32.85 -74.1 -32.25 -71.3 L-32.05 -70.1 -31.4 -67.0 -32.2 -67.05 -32.7 -67.1 -32.85 -67.1 Q-37.55 -67.1 -40.2 -63.05 -41.65 -60.85 -42.0 -58.8 -42.95 -59.2 -43.2 -60.3 -43.4 -61.1 -43.2 -61.95 -43.2 -68.15 -37.1 -70.65 -36.35 -72.0 -36.35 -72.75 -36.35 -73.45 -37.25 -74.75 -37.75 -75.45 -37.95 -76.25 L-37.3 -76.1 -34.5 -75.25 -33.6 -75.45 -33.55 -75.5 M-34.6 -63.85 L-34.4 -63.95 -34.35 -64.0 -31.75 -64.0 Q-32.45 -63.05 -33.3 -62.7 L-34.6 -63.85 M-25.8 -57.75 Q-25.15 -56.35 -25.15 -55.3 -25.15 -51.05 -30.7 -49.45 -34.35 -48.4 -47.0 -46.2 L-59.55 -46.2 Q-60.75 -47.3 -61.2 -48.45 L-62.5 -50.3 Q-63.1 -53.25 -63.15 -58.35 -62.3 -58.1 -62.15 -57.3 L-62.15 -54.7 Q-61.9 -50.9 -54.0 -50.9 -44.2 -50.9 -35.25 -53.4 -30.05 -54.85 -27.6 -56.25 L-25.8 -57.75" fill="#b3554b" fill-rule="evenodd" stroke="none"/>
      <path d="M-31.65 -61.45 L-32.6 -61.1 Q-33.0 -60.85 -33.0 -59.85 -33.0 -58.8 -32.7 -58.55 L-31.5 -58.2 Q-30.35 -59.0 -30.05 -59.8 L-30.0 -58.95 Q-30.0 -57.75 -30.9 -57.15 -31.6 -56.7 -32.4 -56.7 -34.1 -56.7 -34.65 -57.9 L-34.85 -59.0 Q-34.85 -61.7 -32.4 -61.55 L-31.65 -61.45 M-48.1 -72.95 Q-51.05 -72.4 -51.05 -70.1 -51.05 -69.05 -50.6 -68.55 -49.9 -67.7 -47.9 -67.7 L-45.6 -68.1 Q-46.1 -67.05 -47.25 -66.2 -49.35 -64.7 -52.5 -64.7 -56.05 -64.7 -57.15 -66.5 -57.6 -67.2 -57.6 -68.6 -57.6 -70.25 -55.7 -71.5 -53.9 -72.65 -51.45 -72.95 -49.45 -73.2 -48.1 -72.95" fill="#ff8a7d" fill-rule="evenodd" stroke="none"/>
      <path d="M-30.05 -59.8 Q-30.35 -59.0 -31.5 -58.2 L-32.7 -58.55 Q-33.0 -58.8 -33.0 -59.85 -33.0 -60.85 -32.6 -61.1 L-31.65 -61.45 -31.5 -61.5 Q-30.55 -61.1 -30.0 -60.3 L-30.05 -59.8 M-45.6 -68.1 L-47.9 -67.7 Q-49.9 -67.7 -50.6 -68.55 -51.05 -69.05 -51.05 -70.1 -51.05 -72.4 -48.1 -72.95 L-47.85 -73.0 Q-44.7 -73.55 -44.7 -70.35 -44.7 -69.05 -45.1 -68.55 L-45.6 -68.1" fill="#ffc3ba" fill-rule="evenodd" stroke="none"/>
      <path d="M20.45 -97.75 L20.75 -97.8 23.0 -98.1 28.75 -96.05 Q34.35 -93.95 35.75 -93.8 L41.35 -92.8 42.05 -90.9 42.1 -90.75 43.0 -87.1 43.35 -86.1 33.2 -90.3 27.55 -92.8 20.45 -97.75 M26.4 -57.5 L26.7 -57.45 Q28.0 -56.65 28.1 -55.4 L27.9 -53.55 Q27.9 -52.6 28.25 -52.45 L28.8 -52.4 Q30.6 -52.45 31.8 -51.6 L30.7 -51.2 Q26.1 -48.95 26.1 -42.1 26.1 -40.1 26.25 -39.65 26.75 -38.2 28.9 -37.25 L31.65 -37.25 32.55 -37.85 32.75 -38.45 32.75 -38.5 29.9 -40.45 Q29.45 -40.8 29.45 -43.0 L30.0 -46.3 Q31.15 -49.4 34.1 -49.4 L35.7 -48.0 Q37.15 -46.6 37.7 -46.6 L37.85 -46.6 37.85 -45.35 Q37.85 -44.1 37.0 -42.25 L36.15 -41.95 34.6 -41.2 Q33.85 -40.65 33.85 -39.5 L33.95 -38.35 Q34.15 -37.35 34.65 -36.55 L35.0 -36.6 36.25 -33.9 36.4 -33.6 35.15 -32.6 32.35 -31.85 Q30.85 -31.7 27.2 -32.7 26.3 -33.1 25.45 -34.1 L24.6 -33.95 Q23.0 -34.4 20.95 -33.1 L20.6 -32.8 20.25 -33.4 Q20.1 -33.85 20.1 -36.2 20.1 -37.85 20.25 -38.6 23.5 -38.55 24.9 -39.65 25.7 -40.3 25.7 -41.0 25.7 -42.0 24.6 -43.5 L22.75 -45.65 25.35 -47.3 Q26.15 -47.3 26.45 -47.7 L26.65 -48.4 25.15 -51.1 Q23.95 -53.3 23.95 -53.75 23.95 -54.85 25.85 -56.95 L26.4 -57.5 M7.8 -51.2 L6.4 -50.95 -0.6 -50.3 Q-3.2 -50.3 -4.4 -48.45 -5.65 -46.45 -7.7 -46.2 L-8.6 -46.95 Q-9.2 -47.5 -9.2 -48.45 -9.2 -53.2 -8.9 -54.45 -7.8 -59.4 -3.3 -59.4 -1.1 -59.4 1.5 -58.05 4.1 -56.7 6.2 -56.7 11.9 -56.7 13.65 -62.7 14.55 -65.65 14.25 -68.45 L14.3 -69.5 14.2 -69.55 Q9.05 -71.55 5.6 -71.55 0.55 -71.55 -1.4 -70.25 -2.05 -69.8 -2.6 -69.5 -3.25 -67.8 -4.4 -65.9 -8.5 -59.1 -16.35 -59.1 -20.15 -59.1 -23.95 -61.05 L-24.25 -61.65 -24.3 -61.75 Q-26.7 -66.4 -31.4 -67.0 L-32.05 -70.1 -32.25 -71.3 Q-32.85 -74.1 -33.55 -75.5 L-33.55 -75.65 -33.3 -77.0 Q-34.0 -77.6 -36.8 -78.5 L-39.2 -79.15 -39.7 -79.25 -40.15 -79.35 -39.0 -79.5 -37.9 -79.75 -28.95 -79.0 -28.75 -78.9 -29.2 -77.9 Q-29.6 -76.7 -29.6 -75.45 -29.6 -71.7 -27.95 -68.6 -24.9 -62.75 -17.25 -62.75 -9.55 -62.75 -7.6 -67.4 -8.55 -67.45 -11.0 -66.35 -13.55 -65.2 -15.5 -65.2 -19.95 -65.2 -23.1 -67.85 -25.5 -69.85 -25.95 -71.8 L-26.35 -74.05 -25.85 -73.25 Q-23.1 -69.0 -18.9 -69.0 L-14.9 -69.5 Q-12.05 -69.8 -10.35 -71.55 -7.2 -73.7 -7.2 -76.45 L-7.2 -76.6 -4.85 -76.3 -1.75 -75.85 17.05 -72.8 17.05 -72.6 17.65 -69.0 17.85 -68.0 18.25 -65.45 Q18.25 -63.3 16.05 -59.8 12.95 -54.75 7.95 -54.75 L0.8 -55.6 -3.3 -56.5 Q-6.35 -56.5 -7.35 -55.1 -7.9 -54.35 -7.9 -52.55 -7.9 -48.8 -6.5 -48.8 -5.65 -48.8 -5.25 -49.1 L-4.95 -49.4 Q-4.85 -50.3 -5.3 -51.35 -5.45 -52.3 -3.85 -53.65 -2.2 -52.05 0.25 -51.6 L7.7 -51.2 7.8 -51.2 M-25.3 -49.4 L-25.25 -48.75 Q-25.25 -46.8 -30.75 -42.0 L-34.3 -39.1 -35.2 -38.9 -42.7 -37.7 -43.45 -37.6 -44.2 -37.75 -44.2 -38.15 -44.2 -38.95 -44.2 -39.1 Q-44.2 -41.15 -45.4 -43.3 -36.7 -44.9 -31.75 -46.35 L-31.65 -46.2 -31.35 -46.5 Q-28.85 -47.25 -27.4 -48.0 L-25.3 -49.4 M-1.4 -40.35 L-3.75 -40.5 -3.9 -40.9 -4.05 -42.05 -3.85 -42.9 -3.6 -42.9 -3.0 -42.9 -1.25 -43.35 0.3 -43.8 Q-0.05 -42.55 -0.35 -41.85 -0.7 -41.0 -1.4 -40.35 M4.8 -33.6 Q4.2 -33.15 3.3 -33.15 1.8 -33.15 2.1 -33.45 1.75 -34.2 1.3 -37.8 L1.0 -38.55 1.9 -39.45 2.55 -40.5 Q2.95 -41.35 3.0 -42.35 L3.0 -42.45 3.0 -42.6 3.0 -42.65 3.0 -42.75 2.95 -43.4 4.65 -41.9 Q6.05 -40.8 6.05 -39.85 L5.0 -37.35 3.95 -34.85 Q3.95 -33.95 4.2 -33.75 L4.8 -33.6 M-52.2 -32.25 Q-50.35 -31.2 -45.1 -30.35 L-36.65 -29.4 Q-26.85 -28.95 -23.3 -27.35 -20.25 -25.15 -17.25 -23.9 L-9.0 -22.7 Q-4.05 -22.05 -4.05 -19.1 -4.05 -17.2 -6.15 -16.2 -9.4 -14.7 -18.2 -14.7 -22.75 -14.7 -26.0 -16.25 L-32.4 -19.65 Q-35.15 -20.9 -40.8 -21.75 L-48.45 -23.0 -49.6 -23.3 -49.35 -23.6 -49.15 -23.85 -49.05 -24.05 -51.45 -25.85 Q-52.75 -26.7 -53.4 -27.8 -53.8 -28.5 -53.9 -30.45 -53.95 -31.2 -54.45 -31.75 L-52.2 -32.25 M-21.25 -12.1 Q-17.35 -12.0 -15.1 -11.05 -12.55 -9.95 -3.15 -9.95 5.75 -9.95 7.9 -10.95 10.5 -12.2 10.85 -17.4 L11.1 -21.1 Q11.25 -23.6 11.6 -25.1 12.25 -27.9 14.25 -29.95 L13.35 -30.7 Q11.0 -32.75 11.0 -33.15 L10.6 -35.5 Q10.25 -37.15 10.25 -37.95 L10.65 -43.2 11.15 -50.45 11.1 -51.75 Q13.65 -52.7 15.8 -55.0 L15.4 -50.3 14.7 -45.65 Q14.55 -44.3 13.6 -40.65 12.75 -37.5 12.75 -35.4 12.75 -34.5 13.9 -32.7 14.8 -31.35 15.8 -30.8 L16.45 -30.55 17.0 -30.45 17.15 -30.45 17.35 -30.45 18.0 -29.75 Q16.6 -27.8 16.6 -27.25 16.6 -26.45 16.85 -26.3 L17.05 -26.15 18.25 -26.25 Q19.9 -27.5 21.7 -29.5 L22.05 -29.6 22.15 -29.95 22.85 -30.85 24.3 -30.85 26.7 -29.0 25.8 -29.0 26.1 -29.45 Q22.6 -30.35 21.35 -24.95 20.5 -18.2 19.7 -15.95 16.65 -7.1 6.75 -6.25 L4.95 -6.2 Q0.05 -6.45 -2.5 -6.3 L-6.85 -5.6 -8.0 -6.8 -13.1 -7.4 -23.9 -8.3 Q-22.75 -8.55 -21.7 -9.55 -20.55 -10.55 -20.55 -11.45 L-21.05 -12.0 -21.25 -12.1 M-22.3 -17.65 Q-28.8 -21.95 -30.15 -22.55 -35.0 -24.65 -39.65 -22.65 -37.25 -21.5 -31.35 -19.3 -24.7 -16.8 -23.35 -16.8 -22.55 -16.8 -22.45 -17.05 L-22.3 -17.65" fill="#8c714c" fill-rule="evenodd" stroke="none"/>
      <path d="M43.4 -33.7 L43.65 -32.0 43.65 -31.85 43.65 -31.8 43.65 -31.75 Q43.65 -30.85 41.85 -27.8 39.75 -24.25 37.55 -24.05 L38.05 -25.15 Q39.45 -28.2 39.45 -29.75 L39.4 -31.55 41.2 -33.4 Q42.3 -34.3 43.2 -34.35 L43.4 -33.7 M36.4 -26.35 L36.3 -26.1 35.2 -24.35 34.15 -24.45 32.15 -28.0 31.25 -29.6 31.65 -29.6 32.8 -29.7 33.15 -29.45 33.5 -28.45 Q34.3 -26.7 36.05 -26.7 L36.15 -26.7 36.4 -26.35" fill="#a68c52" fill-rule="evenodd" stroke="none"/>
      <path d="M38.15 -35.9 Q38.0 -36.4 38.0 -37.35 38.0 -39.2 39.6 -39.35 40.95 -38.8 42.0 -37.05 L41.55 -35.65 Q40.95 -34.5 39.95 -34.5 39.1 -34.5 38.6 -35.05 L38.15 -35.85 38.15 -35.9" fill="#ffe6b2" fill-rule="evenodd" stroke="none"/>
      <path d="M10.15 -123.5 Q11.55 -124.2 13.55 -124.8 L21.8 -128.85 23.6 -128.7 22.65 -128.15 Q20.85 -126.85 20.85 -125.15 L20.9 -123.95 21.35 -123.5 21.45 -123.5 21.15 -123.0 21.8 -122.9 25.45 -123.8 Q28.4 -127.15 31.15 -128.35 36.15 -130.5 45.15 -129.45 42.5 -128.45 40.15 -126.15 37.9 -124.0 37.25 -121.85 36.2 -120.55 36.2 -119.25 36.2 -118.1 38.15 -115.95 L40.9 -115.5 43.95 -115.2 43.65 -114.75 40.3 -111.9 Q39.2 -111.0 39.2 -110.1 39.2 -108.35 41.25 -107.45 L51.0 -106.6 52.9 -106.3 54.0 -105.7 Q52.15 -105.5 50.7 -104.05 L50.45 -103.75 50.05 -103.45 Q48.5 -102.0 48.1 -99.85 47.9 -98.7 45.3 -95.4 L44.55 -94.45 41.35 -99.6 Q39.4 -102.95 35.85 -106.6 32.75 -109.8 29.45 -112.2 20.5 -118.7 13.3 -122.1 L10.15 -123.5 M38.6 -126.9 L39.95 -127.65 40.65 -127.95 37.55 -127.0 38.6 -126.9 M19.95 -124.2 L19.65 -124.1 19.35 -123.65 20.1 -123.25 19.95 -124.2 M-65.25 4.55 L-64.25 3.55 -62.4 3.6 Q-45.9 1.95 -42.15 0.6 -39.05 -0.55 -35.0 -3.0 L-35.0 -3.15 -38.15 -3.15 -44.5 -2.6 Q-49.3 -3.2 -53.65 -2.5 -52.5 -4.5 -49.1 -7.0 L-47.05 -8.45 -45.1 -7.05 -42.85 -7.05 -43.05 -6.9 -41.45 -6.95 -40.9 -7.05 -38.95 -7.05 -37.3 -7.65 -36.75 -7.85 -32.85 -8.75 -28.6 -9.5 -26.5 -9.45 -26.75 -9.2 -27.05 -8.9 Q-27.95 -8.35 -31.4 -7.05 -29.6 -6.4 -23.45 -5.6 L-9.7 -4.3 -16.6 -3.95 Q-26.35 -2.9 -28.75 0.05 L-30.35 2.8 Q-31.35 4.6 -33.0 5.8 L-38.05 10.65 Q-42.0 13.85 -47.3 14.4 L-47.35 14.25 -47.15 14.0 -42.8 9.75 Q-39.15 5.85 -39.15 4.15 L-39.15 3.3 -39.35 3.15 Q-40.4 3.6 -42.1 5.5 L-42.55 5.5 Q-44.2 5.5 -45.1 6.15 L-46.7 7.65 -47.0 7.9 -49.65 8.7 Q-52.4 9.65 -56.2 9.8 L-57.3 9.8 -57.65 9.8 -65.3 9.0 -66.85 8.85 -66.95 8.85 -68.85 8.25 -70.55 7.5 -70.7 7.45 -71.05 7.25 -70.1 7.25 -69.0 6.85 -65.25 4.55" fill="#331830" fill-rule="evenodd" stroke="none"/>
    </g>
  </defs>
</svg>
