<?xml version="1.0" encoding="UTF-8" standalone="no"?>
<svg xmlns:ffdec="https://www.free-decompiler.com/flash" xmlns:xlink="http://www.w3.org/1999/xlink" ffdec:objectType="frame" height="518.6px" width="568.85px" xmlns="http://www.w3.org/2000/svg">
  <g transform="matrix(1.0, 0.0, 0.0, 1.0, -256.1, 0.35)">
    <use ffdec:characterId="1095" height="518.6" transform="matrix(1.0, 0.0, 0.0, 1.0, 256.1, -0.35)" width="568.85" xlink:href="#shape0"/>
  </g>
  <defs>
    <g id="shape0" transform="matrix(1.0, 0.0, 0.0, 1.0, -256.1, 0.35)">
      <path d="M806.35 -0.25 L807.1 -0.25 807.4 -0.15 808.2 -0.1 808.6 -0.1 810.15 1.15 Q808.45 1.3 807.65 2.95 L807.4 3.55 Q807.1 4.35 807.1 5.1 L806.95 5.65 807.15 6.4 807.3 8.55 807.4 8.7 807.85 9.65 807.95 9.7 Q808.75 11.15 811.8 13.65 L812.05 13.9 813.85 15.6 814.05 15.75 Q814.95 17.2 816.75 18.45 817.7 19.1 818.3 19.2 L818.6 19.35 818.95 19.45 Q821.35 19.45 823.4 15.5 L823.9 14.45 824.55 15.1 824.55 15.3 824.7 15.85 Q824.7 16.6 824.85 16.85 L824.85 17.85 822.25 19.45 Q819.55 21.2 819.0 22.45 L818.7 23.1 818.7 28.55 818.65 28.55 818.65 29.9 818.65 31.2 818.65 40.75 818.6 40.75 815.6 40.75 815.6 31.2 815.6 29.9 815.55 21.75 815.5 21.7 814.9 20.65 812.95 18.5 812.1 17.65 810.65 16.2 808.85 14.25 808.45 13.9 808.4 13.8 807.4 12.85 Q804.8 10.5 802.25 9.25 L800.4 8.4 798.1 8.2 798.1 8.3 638.15 8.3 458.9 8.25 405.35 8.25 404.9 8.25 286.5 8.2 280.65 8.4 278.8 9.25 Q275.8 10.75 272.65 13.8 L272.6 13.9 272.25 14.25 270.7 15.85 270.45 16.2 269.0 17.65 268.1 18.5 266.15 20.65 265.55 21.7 265.5 21.75 265.5 487.7 265.5 490.25 265.5 496.2 265.55 496.3 Q264.8 497.5 262.5 498.6 L262.15 498.5 Q259.7 498.5 257.7 502.45 L257.2 503.5 256.55 502.85 256.5 502.65 256.35 502.15 256.2 501.1 256.2 500.1 258.8 498.5 Q261.5 496.8 262.05 495.55 L262.4 494.85 262.4 483.5 262.4 483.1 262.4 23.1 262.05 22.45 Q261.5 21.2 258.8 19.45 L256.2 17.85 256.2 16.85 256.35 15.85 256.5 15.3 256.55 15.1 257.2 14.45 257.7 15.5 Q259.7 19.45 262.15 19.45 L262.5 19.35 262.8 19.2 Q263.4 19.1 264.35 18.45 266.15 17.2 267.0 15.75 L267.2 15.6 269.0 13.9 269.3 13.65 270.7 12.4 Q272.55 10.8 273.15 9.7 L273.2 9.65 273.75 8.55 273.95 6.4 Q273.95 6.0 274.1 5.65 L273.95 5.1 Q273.95 4.05 273.45 2.95 272.6 1.3 270.9 1.15 L272.45 -0.1 272.85 -0.1 273.95 -0.25 274.7 -0.25 274.6 0.3 Q274.6 3.65 278.5 4.65 L282.2 5.35 282.95 5.55 720.65 5.55 790.15 5.6 791.1 5.6 792.0 5.6 792.0 5.65 793.3 5.7 795.45 5.75 798.1 5.75 798.1 5.55 798.85 5.35 802.6 4.65 Q806.5 3.65 806.5 0.3 L806.35 -0.25" fill="#a8b69e" fill-rule="evenodd" stroke="none"/>
      <path d="M795.45 -0.3 L798.95 -0.25 797.3 0.15 796.8 0.1 Q796.05 0.05 795.45 -0.3 M799.05 -0.25 L806.35 -0.25 806.5 0.3 Q806.5 3.65 802.6 4.65 L798.85 5.35 798.1 5.55 798.1 5.75 795.45 5.75 793.3 5.7 792.0 5.65 792.0 5.6 791.1 5.6 790.15 5.6 720.65 5.55 282.95 5.55 282.2 5.35 278.5 4.65 Q274.6 3.65 274.6 0.3 L274.7 -0.25 403.6 -0.25 790.55 -0.3 791.85 -0.3 792.0 -0.3 792.0 0.1 793.3 0.4 798.1 1.5 798.1 1.05 799.0 0.95 Q799.3 0.8 799.35 0.8 799.35 0.05 799.05 -0.25 M810.15 1.15 L816.0 6.6 817.3 7.75 823.9 14.45 823.4 15.5 Q821.35 19.45 818.95 19.45 L818.6 19.35 818.3 19.2 Q817.7 19.1 816.75 18.45 814.95 17.2 814.05 15.75 L813.85 15.6 812.05 13.9 811.8 13.65 Q808.75 11.15 807.95 9.7 L807.85 9.65 807.4 8.7 807.3 8.55 807.15 6.4 806.95 5.65 807.1 5.1 Q807.1 4.35 807.4 3.55 L807.65 2.95 Q808.45 1.3 810.15 1.15 M257.2 14.45 L263.8 7.75 265.1 6.6 270.7 1.3 270.9 1.15 Q272.6 1.3 273.45 2.95 273.95 4.05 273.95 5.1 L274.1 5.65 Q273.95 6.0 273.95 6.4 L273.75 8.55 273.2 9.65 273.15 9.7 Q272.55 10.8 270.7 12.4 L269.3 13.65 269.0 13.9 267.2 15.6 267.0 15.75 Q266.15 17.2 264.35 18.45 263.4 19.1 262.8 19.2 L262.5 19.35 262.15 19.45 Q259.7 19.45 257.7 15.5 L257.2 14.45 M270.7 6.05 L271.9 6.1 271.95 6.15 272.0 5.55 271.9 4.95 270.7 4.95 270.3 5.0 270.05 5.5 270.2 6.0 270.7 6.05 M263.9 10.55 L264.1 11.05 266.2 11.0 Q267.4 10.7 267.4 10.3 L267.25 9.65 267.15 9.5 266.2 9.45 Q265.85 9.45 265.0 9.85 264.05 10.3 263.9 10.55 M262.75 14.1 L262.65 13.65 261.5 13.25 260.65 14.0 260.45 14.25 260.5 14.8 260.65 15.05 262.55 15.05 262.65 14.8 262.75 14.1 M819.6 13.25 Q818.7 13.4 818.45 13.65 818.35 13.2 818.35 14.1 L818.4 14.8 818.5 15.05 820.4 15.05 820.55 14.8 820.6 14.25 820.4 14.0 819.6 13.25 M798.4 2.25 L798.1 2.0 798.1 3.45 Q798.5 3.2 798.5 2.75 L798.4 2.25" fill="#5b6a53" fill-rule="evenodd" stroke="none"/>
      <path d="M792.0 -0.3 L795.35 -0.35 795.45 -0.3 Q796.05 0.05 796.8 0.1 L795.85 0.5 796.0 0.8 798.05 1.05 798.1 1.05 798.1 1.5 793.3 0.4 792.0 0.1 792.0 -0.3 M256.2 500.1 L256.2 490.8 256.1 490.8 256.1 208.1 256.15 208.1 256.2 17.85 258.8 19.45 Q261.5 21.2 262.05 22.45 L262.4 23.1 262.4 483.1 262.4 483.5 262.4 494.85 262.05 495.55 Q261.5 496.8 258.8 498.5 L256.2 500.1 M265.55 496.3 L265.5 496.2 265.5 490.25 265.5 487.7 265.5 21.75 265.55 21.7 266.15 20.65 268.1 18.5 269.0 17.65 270.45 16.2 270.7 15.85 272.25 14.25 272.6 13.9 272.65 13.8 Q275.8 10.75 278.8 9.25 L280.65 8.4 286.5 8.2 404.9 8.25 405.35 8.25 458.9 8.25 638.15 8.3 798.1 8.3 798.1 8.2 800.4 8.4 802.25 9.25 Q804.8 10.5 807.4 12.85 L808.4 13.8 808.45 13.9 808.85 14.25 810.65 16.2 812.1 17.65 812.95 18.5 814.9 20.65 815.5 21.7 815.55 21.75 815.6 29.9 815.6 31.2 815.6 40.75 815.6 131.0 815.6 208.1 815.55 208.1 815.55 496.2 815.5 496.3 814.9 497.35 812.95 499.45 812.1 500.3 810.65 501.75 808.85 503.7 808.45 504.05 808.4 504.15 Q805.25 507.2 802.25 508.7 L800.4 509.55 794.6 509.8 793.25 509.8 793.25 509.7 458.9 509.75 458.9 509.8 286.5 509.8 280.65 509.55 278.8 508.7 Q275.8 507.2 272.65 504.15 L272.6 504.05 272.25 503.7 270.45 501.75 269.0 500.3 268.1 499.45 266.15 497.35 265.55 496.3 M270.7 6.05 L270.2 6.0 270.05 5.5 270.3 5.0 270.7 4.95 271.9 4.95 272.0 5.55 271.95 6.15 271.9 6.1 270.7 6.05 M263.9 10.55 Q264.05 10.3 265.0 9.85 265.85 9.45 266.2 9.45 L267.15 9.5 267.25 9.65 267.4 10.3 Q267.4 10.7 266.2 11.0 L264.1 11.05 263.9 10.55 M279.0 18.0 L278.9 18.45 Q279.3 19.85 280.3 19.95 281.2 20.1 281.85 19.1 281.75 18.95 280.9 18.35 L279.65 17.75 Q279.15 17.75 279.0 18.0 M262.75 14.1 L262.65 14.8 262.55 15.05 260.65 15.05 260.5 14.8 260.45 14.25 260.65 14.0 261.5 13.25 262.65 13.65 262.75 14.1 M277.5 28.55 L279.75 28.55 278.85 28.4 276.6 28.2 277.5 28.55 M257.35 483.5 L257.45 483.95 257.85 484.35 258.3 483.95 258.55 483.5 257.35 483.5 M276.6 489.75 L278.85 489.55 280.85 489.05 280.85 488.6 278.6 489.05 276.6 489.75 M281.85 498.9 Q281.2 497.9 280.3 498.0 279.3 498.15 278.9 499.5 L279.0 499.95 279.65 500.2 280.9 499.6 281.85 498.9 M819.6 13.25 L820.4 14.0 820.6 14.25 820.55 14.8 820.4 15.05 818.5 15.05 818.4 14.8 818.35 14.1 Q818.35 13.2 818.45 13.65 818.7 13.4 819.6 13.25 M798.4 2.25 L798.5 2.75 Q798.5 3.2 798.1 3.45 L798.1 2.0 798.4 2.25 M798.1 23.0 L802.1 23.05 801.8 22.75 801.55 22.5 798.1 21.9 798.1 23.0 M802.8 488.25 Q803.4 488.6 804.85 488.25 806.1 487.9 806.8 487.35 L806.7 487.15 806.4 486.6 805.2 486.55 Q804.75 486.55 803.8 487.15 L802.65 488.0 802.8 488.25 M796.4 485.3 L796.3 484.65 796.0 484.45 795.8 484.35 794.95 484.25 Q794.1 484.25 793.25 484.7 L793.25 485.65 Q794.3 486.2 795.25 486.1 796.4 486.05 796.4 485.3" fill="#849878" fill-rule="evenodd" stroke="none"/>
      <path d="M824.85 17.85 L824.9 40.75 824.95 40.75 824.95 492.0 824.9 492.0 824.85 500.1 822.25 498.5 Q819.55 496.8 819.0 495.55 L818.7 494.85 818.65 484.75 818.65 484.1 818.65 483.1 818.6 483.1 818.6 481.5 818.6 480.9 818.6 477.2 818.6 475.95 818.6 473.3 818.6 472.05 818.6 464.7 818.6 464.5 818.6 462.0 818.6 461.65 818.6 459.9 818.6 279.45 818.6 259.05 818.6 248.6 818.6 230.1 818.6 229.95 818.6 208.1 818.6 202.5 818.6 192.85 818.6 169.1 818.6 131.0 818.6 40.75 818.65 40.75 818.65 31.2 818.65 29.9 818.65 28.55 818.7 28.55 818.7 23.1 819.0 22.45 Q819.55 21.2 822.25 19.45 L824.85 17.85 M822.75 483.95 L823.2 484.35 823.65 483.9 823.75 483.35 822.6 483.1 822.4 483.1 Q822.4 483.5 822.75 483.95" fill="#829677" fill-rule="evenodd" stroke="none"/>
      <path d="M823.9 503.5 L817.3 510.2 816.0 511.35 814.8 512.5 814.7 505.1 814.45 505.1 Q814.4 507.55 813.45 513.7 L810.15 516.8 Q808.45 516.7 807.65 515.0 807.1 513.9 807.1 512.9 L806.95 512.3 807.15 511.55 807.3 509.4 807.85 508.35 807.95 508.25 Q808.75 506.85 811.8 504.3 L812.05 504.1 813.85 502.35 814.05 502.2 Q814.95 500.75 816.75 499.5 817.7 498.85 818.3 498.8 L818.6 498.6 818.95 498.5 Q821.35 498.5 823.4 502.45 L823.9 503.5 M806.35 518.2 L793.25 518.25 793.25 517.6 792.05 517.9 792.0 517.9 792.0 518.25 403.6 518.25 403.6 518.2 274.7 518.2 274.6 517.65 Q274.6 514.3 278.5 513.3 L282.2 512.6 282.95 512.4 720.65 512.4 790.15 512.4 792.0 512.4 792.0 512.35 792.05 512.35 793.25 512.3 793.25 512.4 798.1 512.4 798.85 512.6 802.6 513.3 Q806.5 514.3 806.5 517.65 L806.35 518.2 M270.9 516.8 L265.1 511.35 263.8 510.2 257.2 503.5 257.7 502.45 Q259.7 498.5 262.15 498.5 L262.5 498.6 262.8 498.8 Q263.4 498.85 264.35 499.5 266.15 500.75 267.0 502.2 L267.2 502.35 269.0 504.1 269.3 504.3 Q272.35 506.85 273.15 508.25 L273.2 508.35 273.75 509.4 273.95 511.55 274.1 512.3 273.95 512.9 Q273.95 513.9 273.45 515.0 272.6 516.7 270.9 516.8 M279.0 18.0 Q279.15 17.75 279.65 17.75 L280.9 18.35 Q281.75 18.95 281.85 19.1 281.2 20.1 280.3 19.95 279.3 19.85 278.9 18.45 L279.0 18.0 M277.5 28.55 L276.6 28.2 278.85 28.4 279.75 28.55 277.5 28.55 M257.35 483.5 L258.55 483.5 258.3 483.95 257.85 484.35 257.45 483.95 257.35 483.5 M281.85 498.9 L280.9 499.6 279.65 500.2 279.0 499.95 278.9 499.5 Q279.3 498.15 280.3 498.0 281.2 497.9 281.85 498.9 M276.6 489.75 L278.6 489.05 280.85 488.6 280.85 489.05 278.85 489.55 276.6 489.75 M264.1 506.9 L263.9 507.45 Q264.05 507.7 265.0 508.1 265.85 508.5 266.2 508.5 L267.15 508.45 267.25 508.35 267.4 507.7 Q267.4 507.25 266.2 506.95 L264.1 506.9 M270.05 512.5 L270.3 512.95 271.85 513.05 271.9 513.0 272.0 512.4 271.95 511.8 271.9 511.9 270.2 511.95 270.05 512.5 M262.65 503.2 L262.55 502.95 Q261.5 502.75 260.65 502.95 L260.5 503.2 260.45 503.7 260.65 503.95 261.5 504.75 262.65 504.3 262.75 503.85 262.65 503.2 M798.1 23.0 L798.1 21.9 801.55 22.5 801.8 22.75 802.1 23.05 798.1 23.0 M822.75 483.95 Q822.4 483.5 822.4 483.1 L822.6 483.1 823.75 483.35 823.65 483.9 823.2 484.35 822.75 483.95 M820.4 502.95 Q819.6 502.75 818.5 502.95 L818.4 503.2 818.35 503.85 Q818.35 504.75 818.45 504.3 L819.6 504.75 820.4 503.95 820.6 503.7 820.55 503.2 820.4 502.95 M796.4 485.3 Q796.4 486.05 795.25 486.1 794.3 486.2 793.25 485.65 L793.25 484.7 Q794.1 484.25 794.95 484.25 L795.8 484.35 796.0 484.45 796.3 484.65 796.4 485.3 M802.8 488.25 L802.65 488.0 803.8 487.15 Q804.75 486.55 805.2 486.55 L806.4 486.6 806.7 487.15 806.8 487.35 Q806.1 487.9 804.85 488.25 803.4 488.6 802.8 488.25 M797.45 517.1 Q799.0 516.6 799.25 516.2 L799.05 515.65 797.15 515.55 Q796.7 515.6 796.45 515.85 796.6 516.4 797.45 517.1" fill="#a4b39c" fill-rule="evenodd" stroke="none"/>
      <path d="M798.95 -0.25 L799.0 -0.3 799.05 -0.25 Q799.35 0.05 799.35 0.8 799.3 0.8 799.0 0.95 L798.1 1.05 798.05 1.05 796.0 0.8 795.85 0.5 796.8 0.1 797.3 0.15 798.95 -0.25" fill="#77896c" fill-rule="evenodd" stroke="none"/>
      <path d="M814.8 512.5 L813.45 513.7 Q814.4 507.55 814.45 505.1 L814.7 505.1 814.8 512.5 M810.15 516.8 L808.6 518.1 808.2 518.05 807.1 518.2 806.35 518.2 806.5 517.65 Q806.5 514.3 802.6 513.3 L798.85 512.6 798.1 512.4 793.25 512.4 793.25 512.3 792.05 512.35 792.0 512.35 792.0 512.4 790.15 512.4 720.65 512.4 282.95 512.4 282.2 512.6 278.5 513.3 Q274.6 514.3 274.6 517.65 L274.7 518.2 273.95 518.2 272.85 518.05 272.45 518.1 270.9 516.8 Q272.6 516.7 273.45 515.0 273.95 513.9 273.95 512.9 L274.1 512.3 273.95 511.55 273.75 509.4 273.2 508.35 273.15 508.25 Q272.35 506.85 269.3 504.3 L269.0 504.1 267.2 502.35 267.0 502.2 Q266.15 500.75 264.35 499.5 263.4 498.85 262.8 498.8 L262.5 498.6 Q264.8 497.5 265.55 496.3 L266.15 497.35 268.1 499.45 269.0 500.3 270.45 501.75 272.25 503.7 272.6 504.05 272.65 504.15 Q275.8 507.2 278.8 508.7 L280.65 509.55 286.5 509.8 458.9 509.8 458.9 509.75 793.25 509.7 793.25 509.8 794.6 509.8 800.4 509.55 802.25 508.7 Q805.25 507.2 808.4 504.15 L808.45 504.05 808.85 503.7 810.65 501.75 812.1 500.3 812.95 499.45 814.9 497.35 815.5 496.3 Q816.25 497.5 818.6 498.6 L818.3 498.8 Q817.7 498.85 816.75 499.5 814.95 500.75 814.05 502.2 L813.85 502.35 812.05 504.1 811.8 504.3 Q808.75 506.85 807.95 508.25 L807.85 508.35 807.3 509.4 807.15 511.55 806.95 512.3 807.1 512.9 Q807.1 513.9 807.65 515.0 808.45 516.7 810.15 516.8 M793.25 518.25 L792.0 518.25 792.0 517.9 792.05 517.9 793.25 517.6 793.25 518.25 M270.05 512.5 L270.2 511.95 271.9 511.9 271.95 511.8 272.0 512.4 271.9 513.0 271.85 513.05 270.3 512.95 270.05 512.5 M264.1 506.9 L266.2 506.95 Q267.4 507.25 267.4 507.7 L267.25 508.35 267.15 508.45 266.2 508.5 Q265.85 508.5 265.0 508.1 264.05 507.7 263.9 507.45 L264.1 506.9 M262.65 503.2 L262.75 503.85 262.65 504.3 261.5 504.75 260.65 503.95 260.45 503.7 260.5 503.2 260.65 502.95 Q261.5 502.75 262.55 502.95 L262.65 503.2 M820.4 502.95 L820.55 503.2 820.6 503.7 820.4 503.95 819.6 504.75 818.45 504.3 Q818.35 504.75 818.35 503.85 L818.4 503.2 818.5 502.95 Q819.6 502.75 820.4 502.95" fill="#c2ccbd" fill-rule="evenodd" stroke="none"/>
      <path d="M824.85 500.1 L824.85 501.1 Q824.7 501.4 824.7 502.15 L824.55 502.65 824.55 502.85 823.9 503.5 823.4 502.45 Q821.35 498.5 818.95 498.5 L818.6 498.6 Q816.25 497.5 815.5 496.3 L815.55 496.2 815.55 208.1 815.6 208.1 815.6 131.0 815.6 40.75 818.6 40.75 818.6 131.0 818.6 169.1 818.6 192.85 818.6 202.5 818.6 208.1 818.6 229.95 818.6 230.1 818.6 248.6 818.6 259.05 818.6 279.45 818.6 459.9 818.6 461.65 818.6 462.0 818.6 464.5 818.6 464.7 818.6 472.05 818.6 473.3 818.6 475.95 818.6 477.2 818.6 480.9 818.6 481.5 818.6 483.1 818.65 483.1 818.65 484.1 818.65 484.75 818.7 494.85 819.0 495.55 Q819.55 496.8 822.25 498.5 L824.85 500.1" fill="#a2b098" fill-rule="evenodd" stroke="none"/>
      <path d="M797.45 517.1 Q796.6 516.4 796.45 515.85 796.7 515.6 797.15 515.55 L799.05 515.65 799.25 516.2 Q799.0 516.6 797.45 517.1" fill="#bac5b4" fill-rule="evenodd" stroke="none"/>
    </g>
  </defs>
</svg>
