<?xml version="1.0" encoding="UTF-8" standalone="no"?>
<svg xmlns:ffdec="https://www.free-decompiler.com/flash" xmlns:xlink="http://www.w3.org/1999/xlink" ffdec:objectType="frame" height="245.6px" width="380.9px" xmlns="http://www.w3.org/2000/svg">
  <g transform="matrix(1.0, 0.0, 0.0, 1.0, 156.75, 242.85)">
    <use ffdec:characterId="2970" height="16.65" transform="matrix(5.1324, 0.0, 0.0, 5.2298, 21.1226, -99.3307)" width="17.75" xlink:href="#shape0"/>
  </g>
  <defs>
    <g id="shape0" transform="matrix(1.0, 0.0, 0.0, 1.0, 6.25, 20.15)">
      <path d="M1.9 -18.75 L2.9 -18.7 Q3.25 -19.1 3.7 -19.4 4.9 -20.15 6.45 -20.15 8.3 -20.15 8.9 -18.15 9.0 -17.8 9.1 -17.3 L9.4 -16.75 Q9.7 -16.15 9.85 -15.35 L9.9 -14.7 9.9 -14.55 Q10.2 -14.35 10.45 -14.2 11.1 -13.9 11.2 -13.75 11.5 -13.4 11.5 -12.65 11.5 -11.65 10.9 -10.55 10.1 -9.1 8.75 -9.1 L6.9 -9.15 6.8 -9.2 6.55 -9.15 6.05 -9.0 6.05 -8.8 Q6.05 -8.05 5.5 -7.7 4.95 -7.35 3.95 -7.2 3.4 -6.6 2.5 -6.6 L-1.95 -7.25 Q-4.1 -8.0 -4.25 -9.35 -4.3 -10.05 -4.6 -10.7 -4.95 -11.05 -5.3 -11.6 -5.75 -12.05 -5.9 -12.3 -6.15 -12.7 -6.15 -13.25 L-6.25 -13.55 Q-6.25 -14.35 -5.8 -14.7 L-5.4 -14.9 Q-5.15 -15.05 -4.8 -15.15 L-4.45 -15.2 Q-3.95 -15.4 -3.6 -15.7 -2.95 -16.3 -2.65 -17.6 -2.15 -19.7 0.3 -19.2 0.8 -19.1 1.9 -18.75 M1.55 -16.8 Q1.1 -17.0 0.45 -17.3 L-1.75 -14.65 1.55 -16.8" fill="#819e79" fill-rule="evenodd" stroke="none"/>
      <path d="M1.05 -17.15 L1.45 -16.8 Q4.3 -17.95 5.85 -17.7 7.0 -17.5 7.0 -16.65 7.0 -16.45 6.45 -15.65 L5.95 -14.8 Q5.95 -14.7 6.3 -14.5 L7.1 -14.05 Q8.3 -13.3 8.3 -12.25 8.3 -11.2 7.55 -10.9 7.25 -10.8 6.0 -10.7 4.9 -10.65 4.4 -10.25 3.7 -9.65 3.7 -8.15 3.7 -7.55 3.5 -7.1 3.2 -6.25 2.35 -6.25 1.7 -6.25 1.3 -6.45 0.85 -6.6 0.75 -6.6 -0.05 -6.6 -0.7 -5.8 -1.2 -5.2 -1.2 -4.85 -1.2 -4.75 -1.1 -4.35 -1.0 -4.0 -1.0 -3.9 -1.0 -3.5 -1.55 -3.5 -3.15 -3.5 -4.05 -5.2 -4.35 -5.75 -4.55 -6.4 -4.7 -6.9 -4.7 -7.1 -4.7 -8.35 -3.85 -9.25 L-3.3 -9.8 Q-3.05 -10.15 -3.05 -10.5 -3.05 -11.25 -4.0 -12.0 L-4.7 -12.6 Q-5.0 -12.9 -5.0 -13.2 -5.0 -13.95 -4.65 -14.25 -4.45 -14.45 -3.85 -14.55 -3.1 -14.65 -2.9 -14.7 -2.4 -14.9 -2.15 -15.4 L-1.55 -16.6 Q-1.05 -17.4 -0.15 -17.6 L0.5 -17.6 1.05 -17.15" fill="#657a5e" fill-rule="evenodd" stroke="none"/>
    </g>
  </defs>
</svg>
