<?xml version="1.0" encoding="UTF-8" standalone="no"?>
<svg xmlns:ffdec="https://www.free-decompiler.com/flash" xmlns:xlink="http://www.w3.org/1999/xlink" ffdec:objectType="frame" height="275.45px" width="215.3px" xmlns="http://www.w3.org/2000/svg">
  <g transform="matrix(1.0, 0.0, 0.0, 1.0, 64.8, 138.45)">
    <use ffdec:characterId="1358" height="275.45" transform="matrix(1.0, 0.0, 0.0, 1.0, -64.8, -138.45)" width="215.3" xlink:href="#shape0"/>
  </g>
  <defs>
    <g id="shape0" transform="matrix(1.0, 0.0, 0.0, 1.0, 64.8, 138.45)">
      <path d="M-61.9 6.85 L-62.25 6.8 -63.0 3.85 Q-62.65 3.9 -61.9 6.85" fill="#367677" fill-rule="evenodd" stroke="none"/>
      <path d="M-56.35 7.2 L-58.3 3.15 -59.05 1.35 Q-63.5 -10.05 -64.6 -26.05 -65.9 -44.85 -59.05 -62.55 L-58.05 -65.05 Q-50.65 -82.65 -35.85 -97.6 -21.8 -111.8 -3.05 -121.85 L4.4 -125.5 Q15.65 -130.65 27.5 -133.8 L35.7 -135.75 Q56.2 -140.0 75.2 -137.6 95.1 -135.15 110.6 -125.5 116.0 -122.15 120.65 -118.05 146.35 -95.55 149.45 -51.6 L150.4 -39.1 Q150.65 -34.9 150.15 -32.0 L150.0 -31.25 149.85 -33.35 149.8 -34.8 Q149.45 -39.0 148.7 -43.0 L147.55 -48.35 Q146.1 -53.85 143.85 -58.95 L143.4 -59.9 140.55 -65.7 140.1 -66.55 Q132.8 -79.4 120.65 -88.5 108.55 -97.65 91.7 -103.15 56.25 -109.7 27.5 -103.4 -1.8 -97.0 -24.1 -77.25 -40.15 -62.95 -50.95 -43.15 -54.15 -37.4 -56.55 -31.75 L-57.45 -24.25 -58.05 -19.3 -58.95 -7.9 -58.95 -7.75 -58.95 -7.55 -59.0 -7.45 Q-58.4 -0.05 -56.35 7.2" fill="#23656a" fill-rule="evenodd" stroke="none"/>
      <path d="M-56.35 7.2 Q-58.4 -0.05 -59.0 -7.45 L-58.95 -7.55 -58.95 -7.75 -58.95 -7.9 -58.05 -19.3 -57.45 -24.25 -56.55 -31.75 Q-54.15 -37.4 -50.95 -43.15 -40.15 -62.95 -24.1 -77.25 -1.8 -97.0 27.5 -103.4 56.25 -109.7 91.7 -103.15 108.55 -97.65 120.65 -88.5 132.8 -79.4 140.1 -66.55 L140.55 -65.7 143.4 -59.9 143.85 -58.95 Q146.1 -53.85 147.55 -48.35 L148.7 -43.0 Q149.45 -39.0 149.8 -34.8 L149.85 -33.35 150.0 -31.25 Q150.4 -21.3 148.3 -12.8 144.85 1.8 134.25 15.0 L134.2 15.05 134.7 14.15 140.05 -0.4 140.25 -1.4 140.35 -1.7 140.65 -2.9 Q149.5 -42.4 126.6 -65.05 L120.65 -70.25 Q112.1 -76.7 100.75 -80.55 86.0 -85.6 68.3 -85.75 50.8 -85.95 33.35 -81.3 L27.5 -79.6 Q13.1 -75.1 0.65 -67.7 -32.85 -47.6 -40.65 -14.75 -42.55 -6.95 -41.4 3.95 -40.1 16.25 -35.3 27.45 L-31.85 34.3 -29.25 38.65 -28.25 40.0 -28.3 40.0 Q-25.8 43.4 -23.1 46.4 -16.5 53.25 -7.95 57.45 L-8.4 57.35 Q-29.85 48.05 -38.55 41.05 -43.4 35.0 -47.2 28.6 L-50.75 21.85 Q-54.3 14.6 -56.35 7.2" fill="#2a767c" fill-rule="evenodd" stroke="none"/>
      <path d="M134.25 15.0 Q122.3 37.85 93.95 51.25 78.85 58.45 62.45 60.85 52.2 62.45 44.15 62.0 33.75 63.35 22.05 62.05 L21.95 61.65 21.95 62.75 Q21.55 64.3 19.35 64.4 16.35 64.4 6.65 62.45 -1.25 60.8 -7.95 57.45 -16.5 53.25 -23.1 46.4 -25.8 43.4 -28.3 40.0 L-28.25 40.0 -29.25 38.65 -31.85 34.3 -35.3 27.45 Q-40.1 16.25 -41.4 3.95 -42.55 -6.95 -40.65 -14.75 -32.85 -47.6 0.65 -67.7 13.1 -75.1 27.5 -79.6 L33.35 -81.3 Q50.8 -85.95 68.3 -85.75 86.0 -85.6 100.75 -80.55 112.1 -76.7 120.65 -70.25 L126.6 -65.05 Q149.5 -42.4 140.65 -2.9 L140.35 -1.7 140.25 -1.4 140.05 -0.4 134.7 14.15 134.2 15.05 134.25 15.0" fill="#3a838c" fill-rule="evenodd" stroke="none"/>
      <path d="M115.85 1.55 Q115.15 -4.75 112.85 -11.4 109.25 -21.95 103.05 -29.45 L102.2 -29.65 Q102.2 -28.5 102.9 -26.4 L103.6 -23.5 Q103.6 -10.7 100.2 -0.6 97.0 8.95 90.4 17.4 84.4 23.1 75.45 36.25 69.0 45.85 64.7 54.25 L62.55 58.75 Q60.1 64.3 60.1 67.0 L60.1 67.35 60.15 68.15 60.6 68.3 60.6 68.5 61.95 68.65 Q62.55 68.65 63.7 67.9 L66.9 65.15 Q69.75 63.7 73.95 61.6 92.85 51.45 101.85 40.05 108.4 31.7 112.15 23.45 L112.3 23.15 115.05 15.55 115.3 14.5 115.3 14.55 Q116.2 10.7 116.2 7.25 L116.2 6.0 116.15 5.45 116.1 4.25 116.0 2.9 115.9 1.55 115.85 1.55 M99.75 -34.05 Q103.1 -31.65 107.45 -25.05 118.65 -8.05 118.65 7.05 118.65 24.95 105.2 42.9 88.65 65.0 59.4 72.85 L58.25 71.8 Q47.6 89.55 45.7 94.4 L41.0 101.25 Q36.3 108.15 33.0 114.15 L29.2 123.85 25.65 133.8 25.75 134.5 24.35 137.0 20.85 124.65 Q16.3 108.9 14.4 100.65 18.4 115.65 21.7 126.55 15.05 98.65 10.65 77.7 -11.6 75.8 -32.4 53.45 -40.9 44.3 -46.2 34.55 -51.35 25.0 -51.35 18.7 -51.35 10.95 -50.65 6.15 -49.8 0.15 -47.25 -7.0 -41.55 -22.95 -32.55 -29.6 L-32.55 -32.35 -32.0 -32.35 -31.75 -30.15 -30.8 -30.8 Q-30.8 -28.65 -30.25 -24.25 L-29.75 -19.25 -29.25 -15.65 Q-27.4 -7.6 -24.7 -2.1 -17.25 13.2 -0.95 21.05 -0.35 20.4 0.6 20.2 L0.0 12.0 2.85 11.55 3.05 11.4 Q13.9 10.1 43.1 4.0 L56.25 2.8 76.75 0.55 91.0 0.3 94.4 0.0 Q95.6 0.1 96.7 1.35 L96.4 1.95 95.75 2.4 93.7 7.1 92.85 8.85 92.7 9.85 91.55 12.25 91.35 12.7 92.55 11.45 Q99.65 3.15 99.65 -2.5 99.65 -3.35 100.4 -5.75 101.15 -8.1 101.15 -9.0 101.15 -11.8 98.7 -22.95 96.3 -33.9 96.25 -32.65 96.25 -36.55 99.75 -34.05 M91.75 2.8 L76.1 3.05 57.05 4.9 38.35 8.05 7.6 12.6 8.05 12.85 Q10.7 13.35 14.3 14.75 21.2 17.4 31.75 22.75 37.8 26.15 49.85 31.2 63.15 36.75 66.5 36.75 L68.35 36.35 69.15 36.05 Q71.3 32.7 78.2 23.35 L93.5 2.95 91.75 2.8 M86.6 5.8 Q82.7 9.15 72.85 20.35 L63.75 30.8 Q60.8 30.8 46.05 24.7 31.25 18.55 22.0 13.5 23.3 12.8 41.9 9.65 61.25 6.35 72.25 5.05 L72.25 4.8 Q85.75 4.8 86.35 5.05 L86.6 5.8 M73.65 36.65 Q80.35 25.35 84.25 21.65 L85.0 20.05 85.5 19.05 85.45 18.8 85.8 18.4 89.55 11.25 89.6 10.8 89.85 10.5 Q85.0 14.7 79.3 24.6 74.2 33.45 70.7 37.7 L70.7 37.8 69.15 41.45 68.4 42.85 64.2 50.0 Q57.05 61.7 56.6 62.8 53.1 71.9 44.85 88.3 L44.4 89.2 42.25 87.5 43.0 86.0 Q51.1 70.05 67.75 38.25 53.5 33.45 36.25 27.05 L3.5 14.8 3.3 15.15 3.25 16.1 3.65 20.1 3.75 20.55 Q6.4 21.45 10.3 24.3 16.1 28.55 19.4 32.2 L20.6 33.7 21.6 35.05 Q24.45 42.6 25.55 48.55 24.85 46.05 23.1 42.25 L21.65 39.3 Q20.55 36.5 19.3 34.25 L18.65 33.2 Q13.3 24.6 4.45 23.9 L4.35 24.1 2.85 24.0 Q0.7 24.15 -0.4 25.45 -10.25 24.2 -20.0 11.75 -23.85 6.8 -26.65 1.45 -29.1 -3.2 -29.1 -4.8 -29.1 -6.25 -32.35 -27.15 -39.5 -19.15 -43.3 -9.85 L-47.25 5.95 -47.45 8.4 -47.45 8.65 -47.6 12.85 Q-47.6 14.85 -46.85 17.75 L-46.9 20.55 Q-46.9 27.05 -42.85 35.55 -38.55 44.5 -31.3 52.25 -16.3 68.2 2.75 70.9 L5.45 72.05 9.9 74.1 9.8 73.6 11.45 74.6 11.5 74.85 11.65 74.7 Q13.15 75.3 14.95 75.3 L15.05 75.3 15.2 75.3 15.35 75.3 15.4 75.3 15.45 75.3 17.1 74.8 17.2 74.75 17.35 74.65 17.45 74.6 17.55 74.55 17.65 74.45 17.75 74.4 Q19.85 72.9 21.65 69.05 L21.9 68.5 22.85 65.95 23.45 65.1 24.2 63.85 Q25.35 61.6 25.35 59.15 L25.3 57.05 Q25.95 53.95 26.05 51.8 L26.25 55.35 Q26.25 58.95 25.05 63.9 L24.65 65.45 23.8 68.35 23.55 69.2 23.05 70.55 23.0 70.7 21.2 74.65 Q18.05 80.1 13.65 80.15 L13.55 80.15 12.65 80.1 13.1 81.95 15.8 92.7 19.25 106.05 Q23.35 121.85 24.85 129.25 29.6 112.95 40.9 90.2 42.1 91.05 42.5 91.05 L43.55 90.9 38.05 102.45 44.05 92.75 Q53.0 78.35 58.1 69.2 58.35 63.65 70.15 42.7 L70.9 41.4 73.65 36.65 M63.75 28.5 L71.45 20.05 Q79.5 11.0 82.6 6.8 L48.55 10.65 28.0 13.3 26.75 13.75 Q37.3 19.2 46.5 23.15 59.05 28.5 63.75 28.5 M2.2 13.6 L2.0 13.55 2.0 13.8 2.2 13.6" fill="#243e37" fill-rule="evenodd" stroke="none"/>
      <path d="M70.7 37.8 L70.7 37.7 Q74.2 33.45 79.3 24.6 85.0 14.7 89.85 10.5 L89.6 10.8 89.55 11.25 85.8 18.4 85.45 18.8 85.5 19.05 85.0 20.05 84.25 21.65 Q80.35 25.35 73.65 36.65 72.6 36.95 70.7 37.8 M70.9 41.4 L70.15 42.7 Q58.35 63.65 58.1 69.2 53.0 78.35 44.05 92.75 L38.05 102.45 43.55 90.9 44.05 90.55 44.5 89.3 44.4 89.2 44.85 88.3 Q53.1 71.9 56.6 62.8 57.05 61.7 64.2 50.0 L68.4 42.85 70.8 41.45 70.9 41.4" fill="#407a7c" fill-rule="evenodd" stroke="none"/>
      <path d="M86.6 5.8 L86.35 5.05 Q85.75 4.8 72.25 4.8 L72.25 5.05 Q61.25 6.35 41.9 9.65 23.3 12.8 22.0 13.5 31.25 18.55 46.05 24.7 60.8 30.8 63.75 30.8 L72.85 20.35 Q82.7 9.15 86.6 5.8 M91.75 2.8 L93.5 2.95 78.2 23.35 Q71.3 32.7 69.15 36.05 L68.35 36.35 66.5 36.75 Q63.15 36.75 49.85 31.2 37.8 26.15 31.75 22.75 21.2 17.4 14.3 14.75 10.7 13.35 8.05 12.85 L7.6 12.6 38.35 8.05 57.05 4.9 76.1 3.05 91.75 2.8" fill="#194847" fill-rule="evenodd" stroke="none"/>
      <path d="M63.75 28.5 Q59.05 28.5 46.5 23.15 37.3 19.2 26.75 13.75 L28.0 13.3 48.55 10.65 82.6 6.8 Q79.5 11.0 71.45 20.05 L63.75 28.5" fill="#ffffff" fill-rule="evenodd" stroke="none"/>
      <path d="M62.55 58.75 L64.7 54.25 Q69.0 45.85 75.45 36.25 84.4 23.1 90.4 17.4 97.0 8.95 100.2 -0.6 103.6 -10.7 103.6 -23.5 L102.9 -26.4 Q102.2 -28.5 102.2 -29.65 L103.05 -29.45 Q109.25 -21.95 112.85 -11.4 115.15 -4.75 115.85 1.55 L109.2 3.3 109.55 3.9 Q112.45 5.65 114.3 5.9 L116.2 6.0 116.2 7.25 Q116.2 10.7 115.3 14.55 L109.65 26.0 Q105.4 34.75 100.5 39.2 97.45 42.0 93.15 44.9 L82.3 52.05 Q78.65 54.55 66.1 57.7 L62.55 58.75 M40.9 90.2 Q29.6 112.95 24.85 129.25 23.35 121.85 19.25 106.05 L15.8 92.7 16.65 91.0 Q24.15 76.1 24.15 73.65 24.15 70.45 23.55 69.2 L23.8 68.35 24.65 65.45 27.1 65.85 Q28.2 65.85 28.25 65.55 L28.05 65.25 27.9 64.75 Q26.65 64.05 25.05 63.9 26.25 58.95 26.25 55.35 L26.05 51.8 Q25.95 53.95 25.3 57.05 L25.35 59.15 Q25.35 61.6 24.2 63.85 L23.5 63.9 23.15 65.0 23.45 65.1 22.85 65.95 21.9 68.5 21.3 68.8 Q20.35 68.2 19.0 67.55 L7.95 63.0 Q-11.95 54.85 -25.95 43.65 -30.4 40.15 -34.2 34.95 -37.35 30.75 -39.0 27.0 -40.0 24.65 -42.05 17.7 -44.15 10.65 -44.15 9.5 -44.15 -0.75 -42.75 -11.1 L-43.3 -9.85 Q-39.5 -19.15 -32.35 -27.15 -29.1 -6.25 -29.1 -4.8 -29.1 -3.2 -26.65 1.45 -23.85 6.8 -20.0 11.75 -10.25 24.2 -0.4 25.45 0.7 24.15 2.85 24.0 L4.35 24.1 4.45 23.9 Q13.3 24.6 18.65 33.2 L18.05 34.15 18.5 34.65 19.3 34.25 Q20.55 36.5 21.65 39.3 L23.1 42.25 Q24.85 46.05 25.55 48.55 24.45 42.6 21.6 35.05 L20.6 33.7 21.4 33.35 Q23.45 32.5 24.65 31.65 L24.5 31.15 Q22.15 29.45 20.25 31.1 L19.4 32.2 Q16.1 28.55 10.3 24.3 6.4 21.45 3.75 20.55 L3.65 20.1 3.25 16.1 3.3 15.15 3.5 14.8 36.25 27.05 Q53.5 33.45 67.75 38.25 51.1 70.05 43.0 86.0 L42.25 87.5 Q38.25 84.65 28.95 79.25 L28.25 79.45 35.6 85.85 40.9 90.2 M13.1 81.95 L12.65 80.1 13.55 80.15 13.65 80.15 13.0 81.4 13.1 81.95 M88.9 34.1 Q87.6 34.25 86.25 35.15 84.9 36.05 84.4 37.1 L85.9 37.85 88.05 36.4 89.3 35.25 88.9 34.1 M99.65 19.05 L98.15 19.65 Q96.75 20.5 96.75 22.05 96.75 23.15 96.9 23.45 L97.35 23.8 Q97.75 23.4 99.15 22.95 100.0 22.7 100.0 21.5 L99.9 19.85 99.65 19.05 M6.35 42.75 Q5.05 39.15 2.45 39.2 0.0 39.25 0.0 41.65 0.0 42.8 1.7 43.3 L5.3 44.5 Q5.9 44.35 6.35 42.75 M34.7 45.85 L34.0 45.2 Q31.55 45.3 30.8 47.25 L33.2 46.85 34.7 45.85 M39.5 62.15 Q39.55 62.9 38.3 63.15 41.15 64.4 43.05 64.4 44.8 64.4 44.15 64.2 L44.15 63.35 Q39.9 61.85 39.5 62.15 M63.7 67.9 Q62.55 68.65 61.95 68.65 L60.6 68.5 60.6 68.3 60.15 68.15 60.1 67.35 63.7 67.9 M-31.25 16.8 L-31.3 17.85 -30.9 18.35 -29.4 19.85 Q-27.95 18.85 -27.2 17.85 -27.4 17.1 -28.25 16.25 L-29.9 16.1 -30.95 16.25 -31.25 16.8 M-18.95 22.4 L-19.35 21.6 -19.65 21.25 Q-20.35 21.25 -21.25 22.1 -22.3 23.15 -23.25 23.45 L-22.9 23.95 Q-22.05 24.5 -20.35 24.5 L-18.95 22.4" fill="#2c7070" fill-rule="evenodd" stroke="none"/>
      <path d="M70.7 37.8 Q72.6 36.95 73.65 36.65 L70.9 41.4 70.8 41.45 68.4 42.85 69.15 41.45 70.7 37.8 M43.55 90.9 L42.5 91.05 Q42.1 91.05 40.9 90.2 L35.6 85.85 28.25 79.45 28.95 79.25 Q38.25 84.65 42.25 87.5 L44.4 89.2 44.5 89.3 44.05 90.55 43.55 90.9 M24.65 65.45 L25.05 63.9 Q26.65 64.05 27.9 64.75 L28.05 65.25 28.25 65.55 Q28.2 65.85 27.1 65.85 L24.65 65.45 M24.2 63.85 L23.45 65.1 23.15 65.0 23.5 63.9 24.2 63.85 M18.65 33.2 L19.3 34.25 18.5 34.65 18.05 34.15 18.65 33.2 M20.6 33.7 L19.4 32.2 20.25 31.1 Q22.15 29.45 24.5 31.15 L24.65 31.65 Q23.45 32.5 21.4 33.35 L20.6 33.7 M34.7 45.85 L33.2 46.85 30.8 47.25 Q31.55 45.3 34.0 45.2 L34.7 45.85 M39.5 62.15 Q39.9 61.85 44.15 63.35 L44.15 64.2 Q44.8 64.4 43.05 64.4 41.15 64.4 38.3 63.15 39.55 62.9 39.5 62.15" fill="#245d5e" fill-rule="evenodd" stroke="none"/>
      <path d="M62.55 58.75 L66.1 57.7 Q78.65 54.55 82.3 52.05 L93.15 44.9 Q97.45 42.0 100.5 39.2 105.4 34.75 109.65 26.0 L115.3 14.55 115.3 14.5 115.05 15.55 112.3 23.15 112.15 23.45 Q108.4 31.7 101.85 40.05 92.85 51.45 73.95 61.6 69.75 63.7 66.9 65.15 L63.7 67.9 60.1 67.35 60.1 67.0 Q60.1 64.3 62.55 58.75 M116.2 6.0 L114.3 5.9 Q112.45 5.65 109.55 3.9 L109.2 3.3 115.85 1.55 115.9 1.55 116.0 2.9 116.1 4.25 116.15 5.45 116.2 6.0 M15.8 92.7 L13.1 81.95 13.0 81.4 13.65 80.15 Q18.05 80.1 21.2 74.65 L23.0 70.7 23.05 70.55 23.55 69.2 Q24.15 70.45 24.15 73.65 24.15 76.1 16.65 91.0 L15.8 92.7 M21.9 68.5 L21.65 69.05 Q19.85 72.9 17.75 74.4 L17.65 74.45 17.55 74.55 17.45 74.6 17.35 74.65 17.2 74.75 17.1 74.8 15.45 75.3 15.4 75.3 15.35 75.3 15.2 75.3 15.05 75.3 14.95 75.3 Q13.15 75.3 11.65 74.7 L11.5 74.85 11.45 74.6 9.8 73.6 9.9 74.1 5.45 72.05 2.75 70.9 Q-16.3 68.2 -31.3 52.25 -38.55 44.5 -42.85 35.55 -46.9 27.05 -46.9 20.55 L-46.85 17.75 Q-47.6 14.85 -47.6 12.85 L-47.45 8.65 -47.45 8.4 -47.25 5.95 -43.3 -9.85 -42.75 -11.1 Q-44.15 -0.75 -44.15 9.5 -44.15 10.65 -42.05 17.7 -40.0 24.65 -39.0 27.0 -37.35 30.75 -34.2 34.95 -30.4 40.15 -25.95 43.65 -11.95 54.85 7.95 63.0 L19.0 67.55 Q20.35 68.2 21.3 68.8 L21.9 68.5 M99.65 19.05 L99.9 19.85 100.0 21.5 Q100.0 22.7 99.15 22.95 97.75 23.4 97.35 23.8 L96.9 23.45 Q96.75 23.15 96.75 22.05 96.75 20.5 98.15 19.65 L99.65 19.05 M88.9 34.1 L89.3 35.25 88.05 36.4 85.9 37.85 84.4 37.1 Q84.9 36.05 86.25 35.15 87.6 34.25 88.9 34.1 M6.35 42.75 Q5.9 44.35 5.3 44.5 L1.7 43.3 Q0.0 42.8 0.0 41.65 0.0 39.25 2.45 39.2 5.05 39.15 6.35 42.75 M-18.95 22.4 L-20.35 24.5 Q-22.05 24.5 -22.9 23.95 L-23.25 23.45 Q-22.3 23.15 -21.25 22.1 -20.35 21.25 -19.65 21.25 L-19.35 21.6 -18.95 22.4 M-31.25 16.8 L-30.95 16.25 -29.9 16.1 -28.25 16.25 Q-27.4 17.1 -27.2 17.85 -27.95 18.85 -29.4 19.85 L-30.9 18.35 -31.3 17.85 -31.25 16.8" fill="#225757" fill-rule="evenodd" stroke="none"/>
      <path d="M69.7 -13.15 Q79.15 -16.15 86.5 -9.9 92.3 -4.85 92.3 -1.0 92.3 2.15 90.1 8.7 87.35 16.7 83.1 23.6 70.95 43.2 52.95 43.2 38.8 43.2 27.0 31.15 22.55 26.6 19.65 21.55 17.05 16.95 17.05 14.5 17.05 4.65 29.25 -2.35 42.85 -10.15 69.7 -13.15 M63.7 12.3 L50.0 14.1 Q46.9 14.8 46.9 17.2 46.9 17.95 52.75 20.5 59.0 23.15 62.3 23.15 63.6 23.15 65.9 19.8 L69.35 14.25 Q64.65 12.4 63.7 12.3" fill="#00fff3" fill-opacity="0.4" fill-rule="evenodd" stroke="none"/>
      <path d="M55.55 -30.1 Q75.6 -33.35 89.15 -24.5 104.45 -14.55 104.45 7.5 104.45 12.1 103.05 18.9 100.9 29.55 96.4 38.2 82.8 64.35 52.65 64.35 27.75 64.35 15.05 44.05 10.7 37.05 8.4 28.55 6.65 22.3 6.65 18.3 6.65 -0.2 21.9 -14.15 35.85 -26.8 55.55 -30.1 M69.7 -13.15 Q42.85 -10.15 29.25 -2.35 17.05 4.65 17.05 14.5 17.05 16.95 19.65 21.55 22.55 26.6 27.0 31.15 38.8 43.2 52.95 43.2 70.95 43.2 83.1 23.6 87.35 16.7 90.1 8.7 92.3 2.15 92.3 -1.0 92.3 -4.85 86.5 -9.9 79.15 -16.15 69.7 -13.15" fill="#5cfff6" fill-opacity="0.2" fill-rule="evenodd" stroke="none"/>
      <path d="M55.55 -30.1 Q35.85 -26.8 21.9 -14.15 6.65 -0.2 6.65 18.3 6.65 22.3 8.4 28.55 10.7 37.05 15.05 44.05 27.75 64.35 52.65 64.35 82.8 64.35 96.4 38.2 100.9 29.55 103.05 18.9 104.45 12.1 104.45 7.5 104.45 -14.55 89.15 -24.5 75.6 -33.35 55.55 -30.1 M44.85 -46.4 Q85.8 -57.9 104.55 -31.4 111.15 -22.0 114.35 -8.65 116.6 1.0 116.6 9.85 116.6 36.1 108.8 52.85 93.55 85.25 51.8 85.25 21.4 85.25 3.25 55.6 -3.15 45.2 -6.85 32.9 -9.85 23.15 -9.85 17.85 -9.85 -4.65 2.55 -20.5 16.45 -38.3 44.85 -46.4" fill="#5cfff6" fill-opacity="0.09803922" fill-rule="evenodd" stroke="none"/>
    </g>
  </defs>
</svg>
