<?xml version="1.0" encoding="UTF-8" standalone="no"?>
<svg xmlns:ffdec="https://www.free-decompiler.com/flash" xmlns:xlink="http://www.w3.org/1999/xlink" ffdec:objectType="frame" height="109.2px" width="125.65px" xmlns="http://www.w3.org/2000/svg">
  <g transform="matrix(1.0, 0.0, 0.0, 1.0, 56.35, 99.4)">
    <use ffdec:characterId="629" height="5.35" transform="matrix(7.0, 0.0, 0.0, 7.0, -45.85, -94.85)" width="14.4" xlink:href="#shape0"/>
  </g>
  <defs>
    <g id="shape0" transform="matrix(1.0, 0.0, 0.0, 1.0, 6.55, 13.55)">
      <path d="M7.3 -12.75 L7.3 -12.65 Q7.15 -12.3 6.95 -11.7 L6.6 -10.75 6.55 -10.7 6.2 -10.7 Q6.15 -10.7 6.1 -10.7 6.05 -10.75 6.05 -10.8 L6.05 -11.25 5.65 -10.8 5.6 -10.75 5.5 -10.75 5.45 -10.8 5.15 -11.15 5.1 -11.2 5.05 -11.1 4.75 -10.65 4.7 -10.6 4.45 -10.6 Q4.2 -10.65 4.15 -10.8 L4.15 -10.9 Q4.45 -11.8 4.85 -11.95 4.95 -12.05 5.05 -12.0 L5.05 -11.95 Q5.15 -11.95 5.15 -11.7 5.3 -12.0 5.7 -12.35 6.0 -12.7 6.3 -12.85 L6.3 -12.9 Q6.3 -12.95 6.35 -13.0 6.4 -13.05 6.45 -13.05 L6.55 -13.05 6.8 -13.1 6.9 -13.0 7.0 -13.0 7.05 -12.9 7.05 -12.8 Q7.1 -12.85 7.15 -12.85 L7.25 -12.85 7.3 -12.75 M7.55 -11.7 L7.6 -11.85 7.65 -11.95 7.75 -11.95 7.8 -11.9 7.85 -11.8 7.85 -11.75 7.8 -11.6 7.75 -11.5 7.6 -11.5 7.55 -11.6 Q7.5 -11.65 7.55 -11.7 M4.05 -13.25 Q4.15 -13.2 4.15 -12.85 4.15 -12.6 3.8 -12.0 3.4 -11.35 3.3 -11.05 L3.25 -10.95 3.1 -10.95 2.95 -10.9 2.85 -10.9 2.75 -11.0 2.5 -10.65 2.55 -10.65 Q2.4 -10.55 2.35 -10.55 L2.3 -10.55 Q2.15 -10.55 2.1 -10.65 2.05 -10.75 2.05 -10.9 2.05 -11.1 2.15 -11.35 L2.1 -11.3 1.7 -11.3 Q1.65 -11.35 1.6 -11.35 L1.6 -11.4 1.45 -11.2 1.2 -10.7 Q1.05 -10.4 0.8 -10.25 L0.7 -10.2 0.6 -10.2 Q0.5 -10.2 0.45 -10.5 0.0 -10.15 -0.05 -9.9 L-0.1 -9.85 Q-0.1 -9.8 -0.15 -9.8 -0.35 -9.75 -0.45 -9.9 L-0.5 -9.9 Q-0.75 -9.75 -0.85 -9.6 L-1.15 -9.3 -1.2 -9.3 -1.3 -9.1 -1.4 -9.05 -1.55 -9.05 Q-1.7 -9.0 -1.7 -9.4 -1.7 -9.55 -1.45 -10.25 L-1.4 -10.25 -1.45 -10.5 -1.25 -11.35 Q-1.15 -11.8 -0.95 -12.1 L-0.95 -12.3 -0.85 -12.35 -0.65 -12.5 -0.55 -12.55 -0.25 -12.5 -0.2 -12.45 -0.15 -12.35 -0.15 -12.0 -0.1 -12.05 0.25 -12.5 Q0.05 -12.55 0.05 -12.7 L0.05 -12.75 0.1 -12.85 Q0.15 -12.9 0.25 -13.1 L0.25 -13.15 0.45 -13.45 0.5 -13.5 1.0 -13.5 1.05 -13.55 Q1.2 -13.6 1.25 -13.35 L1.25 -13.2 Q1.25 -13.05 1.0 -12.8 L0.7 -12.5 0.65 -12.5 0.65 -12.3 0.8 -12.45 Q0.85 -12.55 0.9 -12.55 L0.95 -12.55 1.05 -12.6 Q1.3 -13.05 1.6 -13.1 L1.8 -13.0 1.85 -12.65 1.9 -12.6 2.25 -12.6 Q2.3 -12.6 2.4 -12.8 2.55 -13.2 2.85 -13.3 3.15 -13.4 3.45 -13.05 L3.5 -13.0 Q3.7 -13.2 3.85 -13.2 3.95 -13.35 4.05 -13.25 M3.05 -11.95 L3.15 -12.05 2.95 -12.2 3.05 -11.95 M-1.85 -11.45 Q-1.75 -11.25 -1.75 -11.0 -1.75 -10.5 -2.05 -10.35 L-2.1 -10.35 -2.5 -10.2 -2.8 -10.2 Q-2.95 -10.2 -2.95 -10.55 -2.95 -10.8 -2.7 -11.2 -2.4 -11.7 -2.15 -11.75 L-2.05 -11.8 -2.0 -11.7 -1.85 -11.45 M-5.5 -10.65 L-5.4 -10.65 -5.45 -10.6 -5.35 -10.5 -5.3 -10.5 -5.35 -10.7 Q-5.25 -10.75 -5.2 -10.5 L-5.2 -10.35 Q-5.15 -9.95 -5.6 -9.7 L-5.75 -9.55 -5.85 -9.4 -5.85 -8.6 -5.8 -8.55 -5.75 -8.45 -5.8 -8.35 -5.8 -8.35 Q-5.9 -8.25 -6.05 -8.2 L-6.15 -8.2 -6.2 -8.3 Q-6.55 -8.9 -6.55 -9.35 -6.55 -9.75 -6.3 -10.2 -6.0 -10.75 -5.6 -10.8 -5.5 -10.9 -5.45 -10.8 L-5.4 -10.8 -5.35 -10.7 Q-5.45 -10.7 -5.5 -10.65 M-5.35 -10.7 L-5.35 -10.7 M-4.55 -10.7 Q-4.3 -10.85 -3.75 -11.1 L-3.65 -11.1 Q-3.45 -10.95 -3.35 -10.8 L-3.35 -10.85 Q-3.3 -10.7 -3.3 -10.4 L-3.3 -10.15 -3.35 -10.1 -3.3 -10.0 -3.35 -9.95 -3.35 -9.85 Q-3.4 -9.8 -3.45 -9.8 -3.5 -9.7 -3.7 -9.9 L-3.75 -9.95 -4.1 -9.8 Q-4.3 -9.75 -4.5 -9.6 L-4.65 -9.6 Q-4.75 -9.55 -4.8 -9.6 -4.95 -9.65 -4.95 -10.0 -4.95 -10.4 -4.55 -10.7 M-3.45 -10.05 L-3.45 -10.1 -3.5 -10.1 -3.5 -10.05 -3.45 -10.05 M-0.6 -10.35 L-0.75 -10.4 -0.8 -10.35 -0.6 -10.3 -0.6 -10.35" fill="#cdffb4" fill-opacity="0.5019608" fill-rule="evenodd" stroke="none"/>
      <path d="M6.8 -12.95 L6.85 -12.85 6.9 -12.85 6.95 -12.7 6.85 -12.6 6.85 -12.25 7.2 -12.75 Q7.0 -12.35 6.8 -11.75 L6.45 -10.8 6.2 -10.8 6.2 -11.45 6.5 -11.8 6.4 -11.8 6.35 -11.85 Q5.95 -11.25 5.55 -10.9 L5.25 -11.25 Q5.2 -11.3 5.2 -11.4 5.2 -11.65 5.8 -12.25 6.15 -12.6 6.45 -12.75 L6.45 -12.9 6.55 -12.9 6.8 -12.95 M7.65 -11.65 L7.65 -11.65 M3.95 -13.1 Q4.0 -13.1 4.0 -12.85 4.0 -12.6 3.7 -12.05 3.3 -11.4 3.2 -11.05 L3.05 -11.05 3.05 -11.1 2.95 -11.05 Q2.85 -11.15 2.85 -11.45 L2.65 -11.05 Q2.45 -10.8 2.45 -10.75 2.35 -10.7 2.3 -10.7 2.2 -10.65 2.2 -10.9 2.2 -11.1 2.3 -11.35 L2.5 -11.75 2.45 -11.8 2.0 -11.45 1.7 -11.45 1.7 -11.7 Q1.45 -11.5 1.3 -11.3 L1.05 -10.75 Q0.95 -10.5 0.7 -10.35 L0.6 -10.35 0.6 -10.85 0.35 -10.65 Q-0.1 -10.25 -0.2 -9.95 -0.3 -9.9 -0.35 -10.0 -0.45 -10.05 -0.45 -10.1 -0.8 -9.9 -0.95 -9.7 L-1.45 -9.2 -1.55 -9.2 -1.55 -9.4 Q-1.55 -9.55 -1.3 -10.2 L-1.25 -10.25 -1.3 -10.25 -1.3 -10.5 -1.1 -11.3 Q-1.0 -11.8 -0.85 -12.05 L-0.8 -12.2 -0.75 -12.2 -0.55 -12.4 -0.3 -12.35 -0.25 -12.0 Q-0.15 -11.9 -0.15 -11.7 L0.0 -11.95 Q0.35 -12.45 0.5 -12.5 L0.55 -12.0 0.95 -12.35 0.95 -12.45 Q1.0 -12.45 1.0 -12.2 1.3 -12.85 1.65 -12.95 L1.75 -12.55 1.75 -12.5 1.9 -12.5 2.25 -12.45 Q2.4 -12.45 2.55 -12.75 2.65 -13.1 2.9 -13.15 3.1 -13.25 3.35 -12.95 L3.45 -12.8 Q3.75 -13.1 3.95 -13.1 M3.4 -12.1 L3.45 -12.25 3.45 -12.2 3.4 -12.2 3.4 -12.1 3.4 -12.1 M3.0 -12.1 L3.0 -12.05 3.05 -12.1 3.0 -12.1 M4.9 -11.15 L4.65 -10.75 4.5 -10.75 Q4.35 -10.8 4.3 -10.85 4.55 -11.7 4.95 -11.8 L4.95 -11.85 5.0 -11.6 Q5.0 -11.35 4.9 -11.15 M1.05 -13.4 Q1.1 -13.4 1.1 -13.2 1.1 -13.1 0.9 -12.95 0.65 -12.75 0.6 -12.6 L0.4 -12.65 Q0.2 -12.65 0.2 -12.75 L0.4 -13.05 0.55 -13.35 1.05 -13.35 1.05 -13.4 M0.85 -11.8 L0.75 -11.65 0.8 -11.7 0.85 -11.8 M0.3 -11.75 L0.25 -11.6 0.3 -11.65 0.3 -11.75 M-2.1 -11.65 L-1.95 -11.35 Q-1.9 -11.25 -1.9 -11.0 -1.9 -10.6 -2.1 -10.5 L-2.55 -10.3 -2.8 -10.35 -2.8 -10.55 Q-2.8 -10.75 -2.6 -11.15 -2.3 -11.55 -2.1 -11.65 M-0.25 -11.0 L-0.15 -11.15 -0.25 -11.1 -0.25 -11.0 M-3.5 -10.75 Q-3.45 -10.65 -3.45 -10.4 L-3.45 -10.2 -3.5 -10.2 -3.5 -10.15 -3.45 -10.0 -3.5 -9.95 -3.6 -10.0 -3.7 -10.1 -4.15 -9.95 -4.55 -9.75 -4.6 -9.75 -4.7 -9.7 Q-4.75 -9.7 -4.75 -9.75 L-4.8 -9.75 -4.8 -10.0 Q-4.8 -10.35 -4.45 -10.6 -4.25 -10.7 -3.7 -10.95 -3.55 -10.85 -3.5 -10.75 M-5.5 -10.65 Q-5.45 -10.65 -5.45 -10.5 L-5.4 -10.5 -5.35 -10.55 Q-5.3 -10.55 -5.3 -10.35 -5.3 -10.05 -5.7 -9.85 L-5.75 -9.8 -5.75 -9.75 -5.85 -9.65 -6.0 -9.45 -6.0 -8.45 -5.95 -8.45 Q-6.0 -8.4 -6.05 -8.35 -6.4 -8.95 -6.4 -9.35 -6.4 -9.7 -6.15 -10.15 -5.9 -10.65 -5.55 -10.65 L-5.5 -10.65 M-0.7 -10.4 L-0.75 -10.35 -0.7 -10.35 -0.7 -10.4" fill="#ffffff" fill-rule="evenodd" stroke="none"/>
      <path d="M3.2 -12.8 L3.3 -12.85 Q3.25 -12.15 2.95 -11.8 L2.85 -11.8 2.85 -11.95 2.95 -12.25 3.0 -12.3 Q3.0 -12.4 2.75 -12.45 L2.75 -12.55 Q2.9 -12.9 3.1 -13.0 L3.2 -12.8 M3.45 -12.35 Q3.55 -12.5 3.75 -12.5 L3.65 -12.2 Q3.55 -12.0 3.45 -11.9 L3.4 -11.95 3.35 -12.1 Q3.35 -12.25 3.45 -12.35 M3.05 -11.8 L3.1 -11.85 3.05 -11.65 3.0 -11.75 3.05 -11.8 M0.15 -11.3 Q-0.2 -11.15 -0.35 -11.0 L-0.4 -11.1 Q-0.4 -11.2 -0.5 -11.2 L-0.75 -11.1 -0.95 -11.0 -1.0 -11.0 -1.0 -11.1 Q-1.0 -11.3 -0.45 -12.2 L-0.4 -12.0 -0.4 -11.8 -0.35 -11.65 Q-0.25 -11.6 -0.2 -11.55 -0.05 -11.55 0.1 -11.75 0.25 -12.0 0.4 -12.0 L0.45 -12.0 0.45 -11.85 Q0.45 -11.45 0.15 -11.3 M2.8 -11.9 L2.8 -11.9" fill="#cdffb4" fill-rule="evenodd" stroke="none"/>
    </g>
  </defs>
</svg>
