<?xml version="1.0" encoding="UTF-8" standalone="no"?>
<svg xmlns:ffdec="https://www.free-decompiler.com/flash" xmlns:xlink="http://www.w3.org/1999/xlink" ffdec:objectType="frame" height="109.2px" width="125.65px" xmlns="http://www.w3.org/2000/svg">
  <g transform="matrix(1.0, 0.0, 0.0, 1.0, 56.35, 99.4)">
    <use ffdec:characterId="632" height="1.75" transform="matrix(7.0, 0.0, 0.0, 7.0, -53.9, -2.45)" width="15.8" xlink:href="#shape0"/>
  </g>
  <defs>
    <g id="shape0" transform="matrix(1.0, 0.0, 0.0, 1.0, 7.7, 0.35)">
      <path d="M1.6 -0.15 Q1.65 -0.1 1.65 0.0 1.65 0.15 1.5 0.3 L1.6 0.3 1.65 0.4 Q1.7 0.55 1.7 0.7 L1.85 0.7 1.85 0.55 1.75 0.4 1.7 0.35 1.75 0.25 1.75 0.2 Q1.8 0.15 1.9 0.15 L2.1 0.15 2.2 0.2 Q2.35 0.3 2.5 0.85 L2.5 1.2 Q2.55 1.3 2.45 1.4 L2.25 1.4 1.95 1.35 1.8 1.3 1.15 1.25 Q1.1 1.25 1.05 1.2 L0.9 1.0 0.85 0.9 0.6 0.85 0.55 0.85 Q0.4 0.8 0.2 0.9 L0.15 0.95 Q-0.15 0.9 -0.2 0.8 L-0.2 0.65 Q0.15 0.15 0.25 0.1 0.6 -0.2 1.4 -0.2 1.45 -0.25 1.45 -0.2 1.55 -0.25 1.6 -0.15 M3.85 -0.3 Q3.9 -0.3 3.95 -0.35 4.15 -0.35 4.45 -0.1 L4.65 0.1 4.7 0.0 4.75 -0.05 4.85 -0.05 4.9 0.0 Q5.05 0.1 5.1 0.3 L5.1 0.35 Q5.15 0.1 5.3 -0.1 L5.4 -0.2 5.45 -0.2 5.55 -0.15 5.7 0.3 Q5.75 0.55 5.95 0.65 L6.0 0.75 6.0 0.85 5.95 0.9 5.65 1.05 5.25 1.05 5.15 1.0 5.1 0.95 5.0 1.1 4.9 1.2 4.5 1.1 Q4.45 1.1 4.4 1.05 L4.4 1.0 4.3 1.0 4.2 0.9 Q4.05 0.45 3.8 -0.05 L3.8 -0.2 3.85 -0.3 M6.6 0.0 L6.65 0.0 6.7 0.1 Q6.8 0.4 7.0 0.75 L7.0 0.9 Q6.9 1.05 6.85 1.05 L6.5 1.05 Q6.35 1.15 6.3 0.95 6.3 0.9 6.3 0.8 L6.4 0.1 6.45 0.0 6.6 0.0 M7.35 0.15 L7.4 0.15 Q7.65 0.3 7.8 0.45 L8.1 0.85 8.1 0.9 Q8.1 1.05 8.0 1.1 L7.95 1.15 7.9 1.15 7.4 1.05 7.3 1.0 7.25 0.95 7.2 0.65 7.15 0.4 7.15 0.3 Q7.15 0.25 7.2 0.25 L7.25 0.2 Q7.3 0.15 7.35 0.15 M-6.55 -0.25 L-6.5 -0.15 -6.3 0.1 Q-6.15 0.35 -6.15 0.5 -6.15 0.7 -6.2 0.75 L-6.35 0.8 Q-6.65 0.85 -6.8 0.45 L-6.85 0.35 -6.9 0.3 Q-6.95 0.2 -6.95 0.05 -6.95 -0.15 -6.8 -0.2 L-6.6 -0.25 -6.55 -0.25 M-5.8 -0.05 Q-5.65 0.1 -5.45 0.5 L-5.45 0.7 -5.55 0.75 -5.75 0.75 Q-6.05 0.75 -6.1 0.6 L-6.2 0.2 -6.2 0.15 Q-6.2 0.0 -5.9 -0.05 L-5.8 -0.05 M-7.5 -0.35 L-7.35 -0.35 Q-7.2 -0.25 -7.1 0.05 L-6.95 0.45 -6.95 0.6 -7.05 0.65 -7.1 0.7 -7.2 0.75 -7.25 0.7 Q-7.3 0.65 -7.65 0.5 L-7.7 0.4 Q-7.75 0.35 -7.7 0.3 L-7.65 0.0 -7.55 -0.25 -7.5 -0.35 M-1.95 -0.15 Q-1.95 -0.1 -1.95 -0.05 L-2.0 0.1 -2.05 0.2 -1.95 0.15 Q-1.8 0.0 -1.7 0.0 L-1.5 0.05 -1.45 0.05 -1.45 0.1 -1.4 0.15 Q-1.35 0.15 -1.35 0.2 L-1.35 0.5 Q-1.35 0.75 -1.5 1.15 L-1.55 1.2 -1.65 1.2 Q-1.75 1.25 -1.95 1.1 L-2.0 1.05 Q-2.1 1.2 -2.3 1.2 L-2.7 0.95 Q-2.8 0.95 -3.05 1.05 L-3.05 1.1 -3.15 1.15 Q-3.25 1.2 -3.3 1.1 L-3.35 0.9 Q-3.35 0.8 -2.9 0.25 L-2.4 -0.3 -2.35 -0.35 -2.25 -0.35 Q-2.0 -0.3 -1.95 -0.25 L-1.95 -0.15 M-4.3 0.85 Q-4.4 0.95 -4.5 1.0 L-4.6 0.95 -4.65 0.95 -5.0 0.9 -5.05 0.9 -5.1 0.8 Q-5.15 0.65 -5.15 0.45 L-5.15 0.25 -5.1 0.2 Q-5.0 0.15 -4.95 0.15 -4.8 0.15 -4.6 0.3 -4.35 0.5 -4.25 0.65 L-4.25 0.8 -4.3 0.85" fill="#cdffb4" fill-opacity="0.5019608" fill-rule="evenodd" stroke="none"/>
      <path d="M3.95 -0.2 Q4.1 -0.2 4.35 0.0 L4.7 0.35 4.8 0.1 Q4.9 0.2 4.95 0.35 L5.0 0.55 Q5.0 0.85 4.9 1.05 L4.75 1.05 4.55 1.0 4.5 0.85 4.3 0.85 Q4.15 0.4 3.95 -0.1 L3.95 -0.2 M7.7 0.55 L8.0 0.9 Q8.0 0.95 7.95 1.0 L7.4 0.9 7.35 0.65 7.3 0.35 7.35 0.3 Q7.55 0.4 7.7 0.55 M5.8 0.85 L5.55 0.95 5.25 0.9 5.2 0.9 5.2 0.75 Q5.2 0.25 5.45 -0.05 L5.55 0.35 Q5.6 0.6 5.85 0.8 L5.8 0.85 M6.85 0.8 L6.8 0.95 6.45 0.9 Q6.45 1.0 6.45 0.8 6.45 0.7 6.55 0.1 L6.6 0.1 Q6.7 0.45 6.85 0.8 M1.85 0.3 Q1.9 0.3 1.95 0.3 L2.1 0.3 Q2.2 0.4 2.35 0.9 L2.35 1.2 Q2.45 1.25 2.25 1.25 L2.0 1.2 1.85 1.15 1.15 1.1 1.0 0.95 0.95 0.8 0.6 0.7 Q0.4 0.65 0.15 0.8 -0.05 0.75 -0.05 0.7 0.25 0.3 0.3 0.2 0.7 -0.05 1.45 -0.05 1.5 -0.15 1.5 0.0 1.5 0.15 1.3 0.3 1.05 0.45 1.0 0.55 L1.05 0.6 1.3 0.55 Q1.45 0.45 1.55 0.45 1.6 0.6 1.55 0.75 L1.5 0.8 2.0 0.8 2.0 0.7 Q2.0 0.6 1.95 0.5 L1.85 0.35 1.85 0.3 M-6.6 -0.1 L-6.45 0.2 Q-6.3 0.4 -6.3 0.5 L-6.3 0.65 -6.35 0.65 Q-6.55 0.7 -6.7 0.4 L-6.75 0.25 -6.8 0.05 Q-6.8 -0.05 -6.7 -0.1 L-6.6 -0.1 M-2.05 -0.15 L-2.15 0.05 -2.2 0.3 -2.2 0.35 Q-2.0 0.35 -1.85 0.25 -1.75 0.15 -1.7 0.15 L-1.6 0.15 -1.5 0.2 -1.5 0.5 Q-1.5 0.75 -1.65 1.05 -1.7 1.1 -1.85 0.95 L-2.0 0.85 Q-2.1 0.85 -2.15 0.95 -2.2 1.05 -2.3 1.05 L-2.65 0.8 Q-2.85 0.8 -3.15 0.95 -3.2 1.1 -3.2 0.9 -3.2 0.8 -2.8 0.35 L-2.3 -0.2 Q-2.1 -0.2 -2.05 -0.15 M-4.45 0.8 L-4.55 0.85 -4.6 0.8 -4.95 0.75 -5.0 0.45 -5.0 0.3 Q-4.85 0.3 -4.65 0.45 -4.45 0.55 -4.4 0.7 L-4.45 0.8 M-5.6 0.6 L-5.75 0.6 Q-5.95 0.6 -5.95 0.55 L-6.05 0.15 Q-6.05 0.1 -5.9 0.1 -5.75 0.2 -5.55 0.55 L-5.6 0.6 M-7.15 0.6 Q-7.2 0.5 -7.55 0.35 L-7.5 0.05 -7.45 -0.2 Q-7.35 -0.15 -7.25 0.1 L-7.1 0.5 -7.15 0.6" fill="#ffffff" fill-rule="evenodd" stroke="none"/>
    </g>
  </defs>
</svg>
