<?xml version="1.0" encoding="UTF-8" standalone="no"?>
<svg xmlns:ffdec="https://www.free-decompiler.com/flash" xmlns:xlink="http://www.w3.org/1999/xlink" ffdec:objectType="frame" height="56.7px" width="106.4px" xmlns="http://www.w3.org/2000/svg">
  <g transform="matrix(1.0, 0.0, 0.0, 1.0, 0.0, 0.0)">
    <use ffdec:characterId="1475" height="8.1" transform="matrix(7.0, 0.0, 0.0, 7.0, 0.0, 0.0)" width="15.2" xlink:href="#shape0"/>
  </g>
  <defs>
    <g id="shape0" transform="matrix(1.0, 0.0, 0.0, 1.0, 0.0, 0.0)">
      <path d="M11.7 5.85 L13.65 7.15 Q12.6 6.85 11.8 6.25 11.4 5.9 11.05 5.5 10.1 4.15 9.5 3.55 9.9 3.6 10.25 3.7 10.55 3.8 10.75 3.95 10.45 3.9 10.35 4.05 10.3 4.05 10.3 4.15 10.3 4.85 11.7 5.85 M8.6 5.5 Q8.55 5.0 8.55 3.65 8.85 4.05 9.1 5.25 L9.25 6.25 9.4 7.4 9.35 7.4 Q8.95 6.9 8.75 6.25 8.65 5.9 8.6 5.5 M13.85 5.35 L13.05 4.4 Q12.7 4.0 11.65 3.4 10.9 2.95 10.9 2.55 10.9 2.45 10.95 2.45 L10.95 2.4 Q13.05 3.85 13.6 4.3 14.75 5.35 14.75 6.25 L14.75 6.4 14.6 6.25 Q14.25 5.9 13.85 5.35 M2.95 1.55 L2.9 1.5 Q2.4 1.1 2.2 1.15 1.95 1.15 1.7 1.35 L1.55 1.05 1.1 0.4 Q1.35 0.4 1.85 0.7 2.35 1.05 2.6 1.05 L2.65 1.05 2.8 1.25 2.95 1.55 M3.2 2.2 Q3.1 2.1 2.95 2.05 L2.85 2.0 Q2.6 1.8 2.4 1.8 2.15 1.8 1.35 2.95 L0.7 4.05 0.35 4.8 0.35 3.9 Q0.45 3.55 0.7 3.15 0.9 2.8 1.2 2.4 1.9 1.5 2.2 1.5 2.35 1.5 2.8 1.8 L3.15 2.0 3.2 2.2 M2.9 2.45 L3.0 2.6 3.15 2.9 Q2.95 2.85 2.65 2.45 L2.55 2.3 2.9 2.45" fill="#489ea0" fill-rule="evenodd" stroke="none"/>
      <path d="M11.7 5.85 Q10.3 4.85 10.3 4.15 10.3 4.05 10.35 4.05 10.45 3.9 10.75 3.95 10.55 3.8 10.25 3.7 9.9 3.6 9.5 3.55 10.1 4.15 11.05 5.5 11.4 5.9 11.8 6.25 12.6 6.85 13.65 7.15 L11.7 5.85 M12.85 4.65 Q12.3 4.1 11.2 3.55 10.85 3.4 10.75 3.25 10.6 3.0 10.6 2.55 10.6 2.05 11.35 2.25 12.05 2.4 12.9 3.1 13.9 3.85 14.5 4.8 15.0 5.5 15.15 6.25 15.2 6.55 15.2 6.9 L15.2 7.05 15.15 7.1 15.05 7.1 Q14.85 7.1 14.15 6.25 L14.0 6.05 Q13.0 4.8 12.85 4.65 M13.25 6.4 Q14.8 7.5 14.8 7.6 14.8 7.8 14.55 7.8 13.1 7.8 11.35 6.25 L10.9 5.85 Q10.15 5.1 9.65 4.35 9.15 3.7 9.15 3.45 9.15 2.75 10.4 3.3 10.85 3.5 11.2 3.8 11.6 4.05 11.6 4.25 11.6 4.3 11.5 4.35 L10.9 4.35 Q11.45 5.1 13.0 6.25 L13.25 6.4 M13.85 5.35 Q14.25 5.9 14.6 6.25 L14.75 6.4 14.75 6.25 Q14.75 5.35 13.6 4.3 13.05 3.85 10.95 2.4 L10.95 2.45 Q10.9 2.45 10.9 2.55 10.9 2.95 11.65 3.4 12.7 4.0 13.05 4.4 L13.85 5.35 M8.6 5.5 Q8.65 5.9 8.75 6.25 8.95 6.9 9.35 7.4 L9.4 7.4 9.25 6.25 9.1 5.25 Q8.85 4.05 8.55 3.65 8.55 5.0 8.6 5.5 M8.2 4.45 Q8.2 3.3 8.25 3.15 8.55 2.75 9.6 4.55 9.55 4.6 9.45 4.6 9.4 4.55 9.35 4.45 9.4 4.85 9.65 6.05 L9.7 6.25 Q9.9 7.25 9.9 7.75 9.9 8.1 9.65 8.1 8.75 8.1 8.4 6.3 L8.35 6.25 Q8.25 5.7 8.2 5.05 L8.2 4.45 M2.95 1.55 L2.8 1.25 2.65 1.05 2.6 1.05 Q2.35 1.05 1.85 0.7 1.35 0.4 1.1 0.4 L1.55 1.05 1.7 1.35 Q1.95 1.15 2.2 1.15 2.4 1.1 2.9 1.5 L2.95 1.55 M4.0 2.6 L3.95 2.7 Q3.9 2.75 3.8 2.75 L3.6 2.7 Q3.75 3.05 3.75 3.25 3.75 3.5 3.5 3.5 3.05 3.5 2.55 2.9 L2.25 2.45 Q1.95 2.8 1.3 3.85 L0.7 4.95 0.4 5.45 Q0.05 5.45 0.0 4.95 L0.0 4.4 Q0.0 3.65 0.1 3.35 0.25 2.9 0.7 2.4 L0.95 2.15 1.45 1.6 Q1.2 1.3 0.7 0.35 L0.65 0.25 Q0.65 0.15 0.7 0.1 0.8 0.0 1.0 0.0 1.25 0.0 1.45 0.05 L1.9 0.05 Q2.15 0.2 2.6 0.8 L2.7 0.9 2.7 0.95 2.9 1.25 3.2 1.75 3.5 2.0 3.45 2.05 3.35 2.1 3.45 2.3 3.7 2.35 Q4.0 2.5 4.0 2.6 M2.9 2.45 L2.55 2.3 2.65 2.45 Q2.95 2.85 3.15 2.9 L3.0 2.6 2.9 2.45 M3.2 2.2 L3.15 2.0 2.8 1.8 Q2.35 1.5 2.2 1.5 1.9 1.5 1.2 2.4 0.9 2.8 0.7 3.15 0.45 3.55 0.35 3.9 L0.35 4.8 0.7 4.05 1.35 2.95 Q2.15 1.8 2.4 1.8 2.6 1.8 2.85 2.0 L2.95 2.05 Q3.1 2.1 3.2 2.2" fill="#265455" fill-rule="evenodd" stroke="none"/>
    </g>
  </defs>
</svg>
