<?xml version="1.0" encoding="UTF-8" standalone="no"?>
<svg xmlns:ffdec="https://www.free-decompiler.com/flash" xmlns:xlink="http://www.w3.org/1999/xlink" ffdec:objectType="frame" height="591.2px" width="788.95px" xmlns="http://www.w3.org/2000/svg">
  <g transform="matrix(1.0, 0.0, 0.0, 1.0, 368.95, 780.0)">
    <clipPath id="clipPath0" transform="matrix(1.0, 0.0, 0.0, 1.0, 0.0, 0.0)">
      <path d="M244.45 -323.7 L244.4 -323.65 Q244.95 -324.5 244.95 -325.45 244.95 -334.8 202.55 -344.8 180.9 -349.9 146.25 -355.5 L145.9 -355.5 115.75 -359.15 107.95 -359.65 94.85 -361.0 80.45 -361.85 73.45 -362.35 67.1 -362.9 Q65.6 -363.7 52.55 -364.15 L38.0 -364.5 30.75 -364.9 23.35 -365.3 16.95 -365.3 13.85 -365.65 3.7 -365.95 3.1 -365.65 2.6 -365.45 -14.5 -365.45 -17.35 -365.45 -20.25 -365.45 -20.75 -365.65 Q-21.3 -365.85 -21.35 -365.95 L-31.5 -365.65 -34.55 -365.3 -41.0 -365.3 -48.4 -364.9 -50.95 -364.8 -51.0 -366.6 -50.6 -369.75 Q-49.5 -384.9 -41.0 -393.25 -38.0 -397.55 -34.55 -400.65 L-29.9 -404.15 Q-23.0 -408.55 -14.4 -409.15 L-14.65 -409.7 Q-20.45 -414.7 -30.75 -412.9 -40.35 -411.25 -50.45 -404.4 -58.05 -399.2 -63.55 -392.7 L-63.8 -392.6 Q-65.8 -390.8 -67.6 -387.3 -71.25 -381.75 -72.8 -376.3 -74.35 -374.2 -75.15 -369.0 L-75.7 -363.9 Q-83.6 -363.5 -84.75 -362.9 L-91.1 -362.35 -98.1 -361.85 -112.5 -361.0 -125.6 -359.65 -133.4 -359.15 -145.35 -357.75 Q-146.95 -359.4 -148.4 -360.25 L-149.3 -360.75 -149.2 -360.15 -148.85 -357.3 -154.55 -356.6 -155.6 -359.3 Q-164.45 -382.25 -171.25 -381.85 L-171.25 -377.0 -170.4 -373.45 -170.45 -370.3 Q-170.45 -368.3 -169.4 -361.2 L-168.55 -354.75 -173.1 -354.0 Q-176.8 -363.55 -179.4 -369.05 -188.15 -387.75 -201.3 -398.25 -200.7 -392.05 -197.5 -382.45 L-192.4 -366.6 -189.5 -358.8 -189.2 -358.1 -189.85 -358.2 Q-190.35 -358.2 -192.25 -359.7 L-194.4 -361.75 Q-197.3 -369.6 -205.15 -379.25 -207.9 -383.75 -209.9 -386.05 -216.85 -394.25 -229.85 -396.95 L-228.65 -396.5 -231.45 -396.95 -232.2 -396.75 Q-232.5 -396.5 -232.5 -395.4 -232.5 -394.15 -225.9 -382.8 -220.95 -374.25 -216.25 -366.75 -221.3 -368.9 -225.75 -372.4 L-233.3 -378.9 -234.95 -380.45 Q-242.5 -387.2 -255.9 -390.4 L-255.05 -390.3 -261.05 -391.95 -261.7 -391.85 Q-262.4 -391.7 -262.4 -390.7 -262.4 -389.35 -253.7 -380.4 L-253.45 -380.15 -250.2 -376.5 -242.4 -367.95 -243.3 -366.3 Q-243.7 -365.65 -244.55 -365.35 L-244.7 -365.45 -244.9 -365.25 -246.35 -365.1 -247.1 -365.1 Q-248.15 -365.9 -251.7 -367.2 -254.1 -368.3 -257.6 -369.25 L-258.75 -369.85 -260.9 -370.05 -268.1 -371.45 Q-280.15 -373.35 -285.2 -370.65 L-285.65 -371.1 -287.45 -370.3 -288.15 -368.75 Q-281.95 -365.4 -277.25 -363.1 -272.7 -360.8 -268.75 -359.35 -268.75 -356.0 -275.15 -355.7 L-289.35 -354.85 -291.0 -354.75 -300.15 -351.45 -305.8 -349.5 -306.35 -348.5 Q-307.4 -346.25 -308.0 -345.6 -306.7 -344.4 -304.95 -343.95 L-291.65 -343.25 Q-291.15 -342.6 -291.25 -341.95 -293.9 -340.55 -295.55 -338.9 L-303.85 -334.35 Q-312.2 -329.25 -312.2 -326.5 L-312.05 -325.35 -311.9 -325.45 Q-306.95 -325.8 -303.6 -327.4 L-303.55 -327.4 -308.1 -321.1 Q-313.75 -312.5 -313.75 -308.9 L-313.7 -308.15 -319.3 -304.9 Q-324.05 -301.75 -327.2 -298.3 -330.35 -294.9 -330.35 -292.95 -330.35 -291.9 -329.95 -291.8 L-328.15 -291.75 -316.65 -295.55 Q-322.8 -289.3 -325.4 -281.35 -327.65 -274.4 -327.65 -263.25 -327.65 -261.5 -327.3 -260.45 L-326.1 -257.45 Q-323.15 -262.3 -320.5 -267.05 L-319.75 -268.4 -319.9 -267.8 Q-321.65 -260.65 -321.65 -257.15 -321.65 -253.9 -319.3 -245.5 -318.7 -242.7 -317.65 -239.95 -315.3 -232.3 -314.0 -229.35 L-313.25 -229.85 -313.05 -230.15 -313.95 -237.7 -313.55 -239.25 -313.5 -239.35 -312.35 -236.65 -310.65 -232.9 -310.25 -231.65 -310.1 -231.3 -307.75 -225.0 -307.55 -224.5 -307.3 -223.95 -307.2 -223.65 Q-305.7 -220.15 -304.1 -217.4 L-303.85 -217.0 -303.25 -215.95 -301.5 -213.45 -301.35 -213.25 -301.25 -213.15 -301.15 -212.95 -300.95 -212.75 -300.75 -212.5 -300.6 -212.3 -300.5 -212.15 -300.4 -212.05 -300.3 -211.9 -290.4 -200.95 Q-284.1 -194.25 -278.25 -188.8 L-368.95 -188.8 -368.95 -780.0 420.0 -780.0 420.0 -188.8 180.85 -188.8 184.65 -194.0 Q188.15 -197.45 190.6 -202.45 L191.0 -203.25 192.15 -205.15 Q193.6 -206.75 195.1 -209.3 198.65 -215.15 198.65 -218.45 198.65 -219.6 198.3 -220.0 198.05 -220.3 197.25 -220.55 L195.9 -218.6 197.2 -224.5 197.25 -224.95 Q198.95 -234.45 198.95 -240.55 198.95 -246.35 198.45 -248.7 197.5 -253.0 194.35 -254.8 194.1 -253.3 194.1 -251.55 L193.55 -247.65 193.4 -246.9 191.95 -252.65 192.05 -252.9 191.3 -255.95 190.6 -255.5 Q188.0 -262.3 187.05 -272.0 L186.65 -276.3 189.85 -280.45 190.05 -280.7 199.15 -289.05 Q206.9 -295.45 220.3 -305.1 L231.05 -312.85 231.15 -312.85 Q231.9 -312.85 237.55 -316.85 241.55 -319.6 243.25 -321.6 L243.6 -322.0 243.8 -322.2 243.8 -322.3 244.3 -323.25 244.45 -323.7" fill="#666666" fill-rule="evenodd" stroke="none"/>
    </clipPath>
    <g clip-path="url(#clipPath0)">
      <use ffdec:characterId="1261" height="292.8" transform="matrix(1.0, 0.0, 0.0, 1.0, -230.6, -558.15)" width="467.9" xlink:href="#shape1"/>
    </g>
  </g>
  <defs>
    <g id="shape1" transform="matrix(1.0, 0.0, 0.0, 1.0, 230.6, 558.15)">
      <path d="M109.8 -529.5 L110.5 -528.55 Q110.5 -528.15 109.5 -526.7 L109.25 -526.6 108.0 -526.7 108.25 -527.2 108.45 -527.15 108.9 -527.6 109.25 -529.65 109.8 -529.5 M106.65 -526.6 L107.05 -526.6 Q106.95 -526.35 105.95 -526.2 L105.65 -525.9 Q104.95 -524.75 104.35 -524.75 102.7 -524.75 101.05 -526.95 L100.35 -528.05 Q98.5 -529.15 96.95 -530.8 L96.0 -531.85 Q93.95 -532.85 91.15 -533.3 L89.65 -532.85 89.3 -531.6 88.9 -531.6 88.2 -533.55 Q87.5 -535.0 87.5 -536.0 L87.7 -536.2 88.5 -536.1 88.55 -536.45 88.7 -536.2 90.6 -536.6 92.75 -536.7 96.8 -531.85 99.95 -529.45 100.1 -529.5 100.25 -529.15 101.2 -528.4 101.1 -528.1 Q102.95 -527.15 105.2 -526.75 L105.8 -527.2 Q107.45 -527.05 107.45 -526.7 L106.65 -526.6 M95.1 -508.25 L95.1 -499.2 Q94.85 -498.9 91.3 -498.0 88.15 -497.25 86.7 -494.0 L86.5 -493.75 Q86.2 -493.75 86.2 -495.45 L88.7 -497.55 Q91.15 -500.05 91.15 -501.8 L90.7 -504.8 Q90.1 -507.45 89.35 -508.5 87.3 -510.45 84.65 -510.65 82.95 -510.8 82.25 -510.15 L81.8 -510.8 81.4 -511.7 85.55 -512.2 89.35 -512.9 Q90.5 -512.9 91.95 -511.2 93.8 -508.95 95.1 -508.25 M150.4 -533.8 Q149.7 -533.8 148.9 -534.5 148.0 -535.15 147.45 -536.2 L147.65 -536.7 147.85 -537.0 Q148.95 -536.45 149.7 -535.5 150.7 -534.3 151.05 -534.15 151.65 -533.8 150.4 -533.8 M150.9 -532.05 L151.4 -532.05 152.45 -530.95 151.8 -530.6 151.1 -531.1 Q150.9 -531.4 150.9 -532.05 M157.6 -524.95 L158.55 -524.4 159.1 -523.75 159.25 -523.7 161.1 -523.75 162.45 -524.5 162.7 -524.7 163.65 -525.8 163.7 -525.4 163.7 -524.95 163.7 -524.55 163.25 -523.9 162.95 -523.25 162.0 -521.7 Q160.65 -522.1 159.6 -522.55 L158.6 -522.9 Q153.65 -525.05 153.45 -527.65 L155.65 -525.8 157.3 -524.5 157.6 -524.95 M161.0 -502.65 L162.55 -502.6 162.55 -502.65 173.45 -502.2 175.25 -495.55 175.65 -494.05 178.6 -490.8 186.2 -490.2 191.95 -480.0 Q192.25 -479.15 192.25 -472.05 L192.1 -466.55 Q191.55 -463.5 188.9 -460.55 188.05 -461.55 189.15 -462.9 L188.4 -464.65 Q187.95 -464.8 187.45 -465.1 186.5 -465.6 186.5 -466.0 170.9 -464.05 160.05 -453.3 150.2 -443.65 150.2 -434.0 150.2 -433.05 150.5 -432.5 L149.65 -433.3 149.5 -430.95 Q149.5 -429.05 151.8 -422.2 154.1 -415.1 155.4 -413.6 161.4 -413.95 164.95 -418.6 165.9 -419.75 168.65 -425.6 L169.95 -429.1 Q170.85 -431.8 171.9 -433.4 175.15 -438.7 182.05 -438.7 184.95 -438.7 185.7 -437.8 193.95 -437.2 196.5 -435.75 198.0 -434.85 199.1 -433.2 199.3 -432.95 201.55 -432.0 203.45 -431.1 205.35 -429.3 198.7 -431.15 196.0 -429.6 L195.4 -429.05 195.25 -429.05 Q194.6 -428.65 194.1 -427.85 L194.05 -427.75 193.8 -425.6 Q193.4 -422.95 193.35 -421.55 L193.35 -421.3 Q193.4 -419.7 194.3 -413.7 195.25 -407.5 195.25 -406.0 L195.2 -403.3 Q195.05 -402.85 193.35 -402.85 183.45 -402.85 179.55 -391.1 178.35 -387.35 177.85 -382.8 L177.65 -378.4 Q177.65 -372.45 185.55 -367.85 190.3 -365.15 203.05 -359.95 209.15 -357.1 212.9 -349.55 216.05 -341.6 217.8 -339.6 L219.65 -339.85 Q221.65 -340.15 222.1 -340.5 223.25 -339.9 223.65 -339.0 221.25 -335.3 204.25 -328.4 185.65 -320.85 184.7 -320.15 L174.05 -312.2 Q166.8 -306.65 162.55 -302.3 145.45 -284.75 118.25 -273.95 96.45 -265.35 82.35 -265.35 L75.15 -265.6 Q69.7 -265.85 69.4 -266.25 68.45 -266.8 63.4 -267.95 60.85 -268.2 60.15 -268.6 L35.75 -269.35 31.0 -270.2 Q26.65 -270.8 26.4 -271.15 L23.65 -271.5 Q20.85 -271.95 20.5 -272.3 -6.2 -273.9 -28.75 -269.85 L-44.8 -266.8 Q-53.6 -265.35 -61.1 -265.35 L-71.8 -265.6 -81.0 -266.25 -85.65 -266.6 Q-90.4 -267.1 -90.7 -267.45 L-109.55 -269.95 Q-127.2 -272.55 -127.95 -273.5 -136.95 -274.1 -137.65 -275.0 L-144.2 -275.55 -144.6 -275.35 -147.0 -275.0 Q-178.8 -280.6 -205.95 -304.7 -217.25 -314.7 -224.0 -325.05 -230.6 -335.2 -230.6 -342.1 -230.6 -352.85 -227.8 -362.7 -225.75 -369.8 -225.15 -375.5 L-224.95 -379.8 -224.75 -381.5 Q-222.65 -400.7 -209.5 -416.0 -202.9 -423.6 -195.25 -427.95 -187.7 -432.3 -181.45 -432.3 -172.6 -432.3 -170.55 -428.2 L-168.55 -427.1 Q-168.0 -427.0 -167.85 -426.8 L-167.75 -426.65 -165.8 -425.6 Q-152.3 -426.55 -143.85 -437.05 -137.25 -445.15 -136.95 -452.7 L-137.1 -454.4 -138.2 -458.3 -141.8 -464.5 -141.6 -464.7 Q-141.35 -464.8 -141.35 -465.1 L-140.65 -464.65 -140.5 -464.75 -140.85 -465.65 -140.05 -466.0 -139.5 -464.95 -138.15 -464.65 -135.5 -460.9 -134.8 -462.95 Q-134.3 -464.5 -134.3 -465.55 -134.3 -468.55 -128.55 -473.55 -122.0 -479.25 -115.95 -478.0 L-115.95 -478.75 Q-107.0 -477.5 -103.15 -469.95 -100.55 -464.95 -100.55 -457.95 -100.55 -455.6 -100.95 -453.5 -101.45 -451.2 -102.2 -450.25 L-106.1 -446.3 Q-107.35 -445.15 -107.35 -444.3 -107.35 -442.05 -106.35 -440.4 -105.45 -438.95 -104.35 -438.95 -102.0 -438.95 -100.45 -442.65 L-98.4 -447.1 -97.9 -446.85 Q-95.9 -455.6 -89.65 -462.5 -79.45 -473.6 -57.3 -480.8 L-48.3 -480.5 Q-47.85 -478.6 -44.1 -476.25 -30.3 -477.1 -16.35 -488.6 -10.4 -493.65 -6.75 -498.9 -3.05 -504.35 -3.05 -508.45 -3.05 -513.0 -4.05 -515.25 -5.75 -519.05 -11.8 -522.85 -8.85 -523.8 -6.6 -521.65 L-6.5 -521.95 Q-5.35 -521.3 -3.45 -518.55 L-0.85 -514.65 0.75 -513.2 Q3.15 -511.1 4.2 -511.1 L11.6 -511.25 13.95 -513.95 22.25 -514.35 26.1 -514.25 29.2 -513.85 Q33.5 -513.2 36.15 -511.25 42.8 -508.95 47.3 -498.9 51.75 -489.0 51.75 -480.4 51.75 -476.15 49.4 -469.85 45.85 -470.55 43.55 -466.45 41.8 -463.25 41.8 -460.9 L42.0 -459.0 Q43.2 -457.65 44.9 -456.25 45.85 -455.45 47.4 -454.4 L48.35 -454.1 Q51.2 -453.2 52.5 -453.2 73.6 -453.2 82.85 -462.5 85.4 -465.15 87.65 -469.4 89.6 -472.85 90.45 -473.3 L89.4 -470.7 89.85 -468.8 91.05 -469.95 Q92.05 -470.8 92.85 -471.1 L94.2 -472.2 Q100.7 -477.3 108.8 -475.5 116.9 -472.7 119.4 -469.15 120.4 -467.65 120.8 -465.0 121.55 -463.75 122.05 -463.6 L122.15 -463.5 123.05 -464.05 122.75 -463.25 123.55 -462.95 125.85 -463.8 126.95 -464.85 130.1 -468.2 133.5 -470.65 Q141.45 -475.95 155.15 -480.7 L155.15 -481.7 158.15 -481.4 162.05 -481.1 Q163.8 -482.65 165.75 -485.95 168.95 -491.45 168.95 -493.2 168.95 -494.0 167.05 -496.4 L164.3 -500.1 161.0 -500.45 161.0 -502.65 M26.3 -554.05 L26.6 -554.05 26.35 -554.0 26.3 -554.05 M18.9 -551.0 L16.45 -549.7 Q17.75 -551.4 18.75 -553.4 19.75 -554.55 23.5 -555.8 22.85 -555.45 22.25 -554.95 20.25 -553.45 18.9 -551.0 M40.5 -555.15 L40.65 -554.4 Q41.8 -551.75 41.8 -550.4 L41.8 -549.5 42.8 -548.5 Q39.55 -545.45 39.75 -540.2 L40.65 -534.55 39.75 -537.3 39.5 -538.05 Q39.5 -555.9 33.0 -555.05 27.9 -558.35 23.5 -555.8 23.3 -556.15 23.3 -556.85 L23.65 -556.85 25.45 -557.9 32.05 -557.4 32.25 -557.65 32.45 -558.0 36.2 -557.8 36.4 -558.15 38.1 -558.0 38.35 -557.7 38.6 -557.7 Q39.2 -557.2 40.2 -555.3 L40.5 -555.15 M40.15 -532.35 L40.3 -532.1 40.3 -531.1 40.3 -529.95 40.15 -529.65 39.65 -529.65 39.4 -529.95 39.35 -531.1 39.35 -532.1 39.5 -532.35 40.15 -532.35 M70.05 -522.85 L76.3 -522.55 Q76.5 -520.8 78.0 -518.6 L80.35 -515.3 79.85 -514.65 78.45 -516.15 76.05 -516.15 75.05 -517.6 Q70.1 -517.95 66.65 -516.6 L66.75 -517.65 Q66.75 -519.5 65.75 -519.1 L64.8 -518.4 65.75 -520.1 Q69.5 -521.9 70.05 -522.85 M60.35 -508.5 L59.9 -508.6 Q59.9 -511.2 61.8 -514.1 L63.15 -514.5 Q60.35 -512.05 60.35 -508.9 L60.35 -508.5 M168.45 -527.05 L165.7 -527.9 Q165.7 -528.6 166.4 -529.65 L168.0 -529.5 170.05 -527.3 169.85 -526.6 168.45 -527.05 M198.65 -506.55 L201.6 -506.55 Q203.75 -506.0 204.0 -505.3 L198.15 -503.85 197.9 -505.2 198.35 -506.1 198.65 -506.55 M221.35 -520.5 Q222.9 -519.3 222.9 -518.1 222.3 -517.2 221.15 -517.2 L220.65 -520.5 221.35 -520.5 M210.15 -526.5 L210.35 -526.9 Q212.65 -526.6 212.85 -525.95 L212.35 -525.7 209.85 -525.95 Q209.85 -526.35 210.15 -526.5 M221.35 -498.65 Q224.1 -501.85 224.35 -505.4 224.55 -508.25 223.25 -512.0 L223.75 -512.3 224.0 -512.65 Q226.05 -510.4 226.35 -509.05 226.5 -508.15 228.2 -507.15 L228.45 -505.8 Q226.2 -501.7 223.05 -497.45 222.7 -497.5 222.3 -497.7 221.55 -498.1 221.35 -498.65 M216.2 -453.2 Q217.8 -453.4 219.6 -454.15 220.55 -454.5 222.1 -455.35 L225.8 -454.25 Q228.9 -453.25 232.15 -452.6 232.7 -450.4 233.75 -448.05 235.35 -444.6 237.3 -442.65 L237.3 -435.4 236.8 -434.75 222.6 -434.95 Q225.9 -436.45 227.3 -438.35 228.45 -439.9 228.45 -441.9 228.45 -445.15 224.25 -447.8 220.05 -450.7 212.85 -452.05 L211.5 -455.15 Q210.8 -457.2 210.8 -458.4 L211.55 -458.7 213.3 -456.3 Q214.35 -454.65 216.2 -453.2 M216.2 -430.8 Q213.85 -430.2 213.3 -429.6 L211.55 -429.85 Q209.75 -430.25 209.65 -430.8 215.65 -433.2 217.5 -433.2 216.75 -431.35 216.2 -430.8 M-162.3 -423.2 L-161.85 -423.45 -164.9 -423.2 -162.3 -423.2" fill="#ff9a2b" fill-rule="evenodd" stroke="none"/>
      <path d="M10.2 -462.1 L11.25 -463.15 10.85 -461.3 Q10.85 -459.35 12.7 -458.65 L18.4 -457.25 19.35 -454.7 Q20.4 -451.8 21.0 -448.3 L21.45 -445.15 Q21.45 -439.0 18.85 -435.35 17.1 -432.8 13.15 -430.6 L11.35 -429.6 10.5 -428.85 Q8.35 -426.75 8.35 -425.25 8.35 -424.35 8.85 -423.25 L9.45 -421.7 9.95 -421.25 12.55 -418.75 14.85 -417.95 16.75 -418.05 Q19.85 -419.0 21.85 -420.05 L22.9 -421.15 24.0 -422.2 24.15 -422.35 25.9 -423.7 Q25.8 -422.9 24.85 -421.55 24.7 -421.0 24.7 -420.05 24.7 -418.75 25.35 -418.45 L26.4 -418.1 28.75 -417.65 30.3 -416.25 33.25 -416.4 37.9 -415.8 Q54.1 -415.8 64.6 -420.2 68.05 -421.65 71.25 -423.7 L75.25 -426.5 Q77.65 -427.9 80.7 -430.2 84.8 -430.35 88.15 -428.6 91.35 -426.9 93.2 -423.55 94.8 -420.7 94.8 -417.8 94.8 -415.8 93.9 -415.4 L92.25 -415.35 90.6 -412.8 90.45 -411.55 Q90.25 -411.4 90.4 -411.2 90.65 -410.9 92.15 -410.9 93.35 -410.9 95.0 -411.9 97.5 -415.4 103.5 -419.95 108.85 -423.95 116.55 -428.35 L117.1 -428.35 Q117.2 -429.1 117.5 -429.25 119.7 -429.0 120.05 -428.45 L119.65 -428.35 Q125.75 -427.95 128.95 -430.55 130.7 -431.95 131.65 -434.55 L132.5 -434.55 Q133.45 -431.8 134.65 -429.25 L134.65 -422.55 134.2 -422.45 Q133.7 -422.45 133.7 -422.7 L129.95 -422.55 126.3 -415.65 Q123.9 -410.85 123.9 -408.85 123.9 -402.8 126.7 -397.15 129.35 -391.65 133.7 -389.45 L133.55 -389.8 Q134.25 -389.3 135.6 -389.15 L135.85 -388.85 139.3 -388.85 143.65 -392.9 146.05 -393.2 151.8 -393.75 Q154.7 -394.35 157.2 -396.1 160.85 -398.7 162.7 -399.6 166.45 -401.4 169.3 -406.85 L172.5 -412.95 172.85 -412.45 173.0 -411.9 Q173.85 -414.95 175.5 -415.55 174.15 -412.75 173.35 -406.5 172.6 -400.6 170.85 -397.6 L165.55 -388.15 Q164.95 -386.5 164.95 -380.25 164.95 -373.75 168.25 -368.5 170.55 -364.75 175.45 -360.6 L182.6 -354.35 Q185.9 -350.9 185.9 -347.45 185.9 -342.8 181.3 -336.45 176.75 -330.25 168.95 -324.2 155.85 -313.95 141.25 -309.1 139.6 -307.15 135.1 -305.55 L118.45 -300.5 Q111.3 -298.25 99.4 -296.15 78.55 -292.55 55.95 -292.55 L46.85 -292.7 39.1 -293.2 Q30.25 -293.8 26.75 -295.25 L21.45 -297.0 18.25 -296.8 Q17.5 -296.8 10.05 -298.55 L1.95 -300.3 Q-27.6 -299.45 -37.2 -297.9 -42.7 -297.05 -49.5 -295.15 L-69.0 -295.15 -85.95 -295.85 -102.55 -296.8 -107.1 -297.05 -112.05 -297.7 -119.8 -297.05 Q-157.8 -297.25 -158.25 -297.7 -170.35 -299.55 -179.35 -304.85 -185.35 -308.4 -188.25 -312.25 -201.9 -315.5 -210.8 -327.4 -215.0 -332.95 -217.35 -339.45 -219.35 -345.0 -219.35 -349.2 -219.35 -355.6 -214.4 -362.65 -208.65 -370.9 -207.35 -377.1 -205.5 -385.7 -194.85 -393.95 -185.05 -401.6 -178.5 -401.6 L-175.05 -401.2 -168.4 -400.55 Q-166.3 -398.95 -166.3 -398.25 -143.6 -400.65 -134.85 -408.85 -129.95 -413.35 -128.2 -422.7 L-127.45 -422.7 -127.25 -422.05 -126.7 -422.15 -126.65 -420.8 Q-126.65 -419.5 -126.0 -418.75 L-125.2 -417.9 -121.45 -417.45 -116.05 -410.8 -111.3 -405.7 -110.55 -405.2 Q-109.55 -404.7 -108.05 -404.7 -96.4 -404.7 -88.9 -408.2 -83.15 -410.95 -73.2 -419.65 -70.85 -421.7 -68.5 -429.05 -66.3 -435.85 -62.45 -438.25 -60.45 -439.5 -57.0 -442.5 -54.55 -444.6 -51.65 -445.75 L-50.6 -446.1 -28.9 -446.1 Q-14.9 -446.55 0.0 -454.85 6.3 -458.35 10.2 -462.1 M119.1 -428.1 L119.05 -428.15 119.0 -428.1 119.1 -428.1" fill="#fef36b" fill-rule="evenodd" stroke="none"/>
    </g>
  </defs>
</svg>
