<?xml version="1.0" encoding="UTF-8" standalone="no"?>
<svg xmlns:ffdec="https://www.free-decompiler.com/flash" xmlns:xlink="http://www.w3.org/1999/xlink" ffdec:objectType="frame" height="222.5px" width="60.05px" xmlns="http://www.w3.org/2000/svg">
  <g transform="matrix(1.0, 0.0, 0.0, 1.0, 30.0, 223.3)">
    <use ffdec:characterId="906" height="222.5" transform="matrix(1.0, 0.0, 0.0, 1.0, -30.0, -223.3)" width="60.05" xlink:href="#shape0"/>
  </g>
  <defs>
    <g id="shape0" transform="matrix(1.0, 0.0, 0.0, 1.0, 30.0, 223.3)">
      <path d="M-2.25 -213.15 L0.7 -218.4 1.95 -210.45 Q2.9 -204.0 2.65 -201.8 L2.45 -201.15 1.85 -201.35 1.8 -201.7 Q0.95 -207.0 -0.3 -211.8 L-0.9 -211.8 Q-0.9 -210.1 -1.55 -204.1 L-1.1 -214.2 -2.25 -213.15 M-7.2 -202.05 L-7.3 -202.05 -6.85 -203.35 -7.2 -202.05 M-17.4 -1.6 L-17.45 -1.35 -18.8 -1.3 -19.1 -1.25 -20.7 -1.1 Q-22.05 -2.9 -23.15 -5.45 L-23.0 -6.85 -23.0 -7.15 -21.65 -19.6 -21.6 -19.9 -21.6 -20.0 -19.35 -16.65 -18.25 -15.0 -16.5 -29.1 -16.2 -31.25 Q-17.3 -33.5 -18.7 -35.6 L-19.95 -37.5 -19.95 -37.75 -19.4 -44.45 -19.3 -45.2 -19.3 -45.4 -19.25 -46.05 -19.2 -46.55 -19.1 -46.65 -18.4 -54.05 -18.1 -56.8 -16.45 -72.95 -16.35 -73.8 -16.3 -74.25 -15.8 -73.0 Q-14.0 -68.7 -12.3 -66.3 L-12.75 -67.0 -12.05 -70.85 -11.05 -76.05 Q-12.65 -81.1 -15.4 -82.9 L-14.05 -95.85 Q-13.65 -93.95 -12.8 -92.5 -11.85 -90.95 -10.45 -89.9 -10.05 -94.3 -9.1 -99.2 -7.4 -107.8 -7.4 -117.7 -7.4 -121.35 -4.95 -134.1 L-4.6 -135.8 -3.35 -135.75 -3.55 -134.7 -5.05 -125.05 -5.15 -124.05 -5.2 -123.85 -5.25 -123.35 -5.5 -120.35 Q-6.75 -103.2 -7.5 -98.75 L-8.85 -88.25 -9.7 -78.15 -10.1 -72.4 -10.7 -64.5 -11.35 -57.8 -11.4 -57.5 -11.65 -54.05 -12.35 -45.9 -12.45 -45.9 -12.8 -45.85 -14.85 -28.25 -16.15 -15.5 -16.45 -12.25 -17.4 -1.6 M-24.4 -3.05 L-24.5 -2.45 -24.65 -1.5 -24.85 -1.7 -25.6 -2.8 -25.7 -2.9 -26.35 -3.55 -26.6 -3.75 -27.6 -4.2 -26.3 -17.2 -26.2 -16.5 Q-26.65 -14.6 -26.4 -12.9 -25.95 -10.15 -23.55 -9.6 L-24.4 -3.05 M-12.95 -136.4 L-12.8 -136.55 -12.5 -135.85 -12.95 -136.4 M-12.3 -118.65 Q-12.85 -112.75 -14.05 -105.6 L-14.15 -104.85 -14.85 -97.55 Q-17.25 -100.1 -17.5 -103.0 L-18.05 -108.1 -18.15 -107.35 -17.0 -120.95 -17.1 -122.15 -16.75 -124.4 Q-13.9 -121.65 -12.3 -118.65 M-21.4 -30.8 L-22.45 -22.65 -22.5 -20.35 -22.55 -19.15 -25.0 -32.7 -25.1 -33.25 -23.9 -43.85 -23.6 -46.2 -22.95 -52.85 Q-21.1 -46.95 -21.1 -40.2 L-21.4 -30.8 M-20.1 -92.5 Q-17.1 -87.05 -17.1 -83.0 L-17.7 -75.3 -18.1 -75.3 -20.35 -82.0 -20.1 -85.0 -20.0 -85.8 -20.3 -89.45 -20.1 -92.5" fill="#cccccc" fill-rule="evenodd" stroke="none"/>
      <path d="M1.85 -201.35 L2.45 -201.15 2.65 -201.8 Q2.9 -204.0 1.95 -210.45 L0.7 -218.4 -2.25 -213.15 -2.3 -213.1 -2.7 -212.35 -4.9 -208.1 -5.0 -207.9 -5.1 -207.75 -6.85 -203.35 -7.3 -202.05 -7.2 -202.05 -2.95 -202.2 -2.05 -202.15 -1.75 -202.1 1.85 -201.35 M-10.5 -201.7 L-7.55 -208.6 Q-2.35 -219.95 1.05 -223.3 L2.25 -217.0 Q3.2 -212.05 4.1 -208.25 L4.05 -207.65 Q4.05 -206.7 4.7 -204.4 L4.85 -202.0 5.25 -199.8 4.2 -199.7 0.05 -200.3 -1.8 -201.15 -1.85 -201.15 -2.3 -201.15 -3.8 -201.0 -3.9 -200.95 -4.05 -200.95 -4.1 -200.95 -8.8 -201.5 -10.5 -201.7 M-1.2 -134.1 L-1.4 -129.2 -1.45 -128.05 -1.5 -127.6 -1.55 -126.35 Q-3.85 -116.6 -5.35 -103.55 -8.05 -70.2 -10.2 -54.85 L-10.25 -54.05 -12.1 -37.0 -14.15 -10.0 -14.8 -0.85 -17.4 -1.6 -16.45 -12.25 -16.15 -15.5 -14.85 -28.25 -12.8 -45.85 -12.45 -45.9 -12.35 -45.9 -11.65 -54.05 -11.4 -57.5 -11.35 -57.8 -10.7 -64.5 -10.1 -72.4 -9.7 -78.15 -8.85 -88.25 -7.5 -98.75 Q-6.75 -103.2 -5.5 -120.35 L-5.25 -123.35 -5.2 -123.85 -5.15 -124.05 -5.05 -125.05 -3.55 -134.7 -3.45 -135.15 -2.3 -134.65 -1.2 -134.1 M-23.4 -3.2 L-24.15 -3.35 -24.35 -3.4 -24.4 -3.05 -23.55 -9.6 -23.45 -10.3 -22.55 -18.8 -22.55 -19.15 -22.5 -20.35 -22.45 -22.65 -21.4 -30.8 Q-20.7 -36.45 -20.7 -37.55 L-20.65 -38.45 Q-19.55 -47.35 -19.3 -54.05 L-19.3 -54.25 -18.5 -61.35 Q-16.95 -76.15 -16.7 -81.65 L-15.5 -91.55 -14.85 -97.55 -14.15 -104.85 -14.05 -105.6 Q-12.85 -112.75 -12.3 -118.65 L-12.0 -122.35 -11.8 -128.25 Q-11.8 -129.3 -11.95 -130.0 L-11.8 -132.35 -11.8 -132.55 -11.9 -133.0 -12.0 -134.2 -12.5 -135.85 -12.8 -136.55 -12.95 -136.4 -13.65 -135.15 -13.75 -136.9 -15.6 -137.35 -16.35 -128.7 -16.65 -125.05 -16.65 -124.9 -16.75 -124.4 -17.1 -122.15 -17.0 -120.95 -18.15 -107.35 -18.4 -104.4 Q-19.75 -96.75 -20.1 -92.5 L-20.3 -89.45 -20.0 -85.8 -20.1 -85.0 -20.35 -82.0 -20.4 -81.3 -22.35 -59.55 -22.85 -54.05 -22.95 -52.9 -22.95 -52.85 -23.6 -46.2 -23.9 -43.85 -25.1 -33.25 Q-25.85 -25.9 -26.05 -19.95 L-26.3 -17.2 -27.6 -4.2 -26.6 -3.75 Q-28.65 -4.05 -29.9 -3.8 L-30.0 -3.25 Q-28.9 -13.0 -28.35 -22.2 -27.5 -29.45 -27.0 -43.45 L-26.4 -49.2 -25.65 -54.05 Q-24.65 -60.8 -23.8 -68.7 -20.9 -94.55 -20.9 -105.0 L-20.95 -111.45 Q-19.7 -123.1 -18.4 -137.35 -15.35 -137.9 -11.05 -137.2 L-5.45 -135.9 -5.4 -135.85 -6.45 -135.95 -8.2 -136.15 -8.35 -136.15 -8.75 -135.15 Q-9.45 -133.45 -10.4 -132.55 -11.1 -124.35 -13.95 -97.1 L-16.35 -73.8 -16.45 -72.95 -18.1 -56.8 -18.4 -54.05 -19.1 -46.65 -19.2 -46.55 -19.25 -46.05 -19.3 -45.4 -19.3 -45.2 -19.4 -44.45 -19.95 -37.75 -19.95 -37.5 -20.1 -36.05 -20.15 -36.05 -21.6 -19.9 -21.65 -19.6 -23.0 -7.15 -23.0 -6.85 -23.15 -5.45 -23.4 -3.2" fill="#667479" fill-rule="evenodd" stroke="none"/>
      <path d="M-1.55 -204.1 Q-0.9 -210.1 -0.9 -211.8 L-0.3 -211.8 Q0.95 -207.0 1.8 -201.7 L1.85 -201.35 -1.75 -202.1 -1.55 -204.1 M-20.7 -1.1 L-21.75 -1.0 -23.4 -1.05 -23.65 -0.8 -23.7 -0.8 -23.4 -3.2 -23.15 -5.45 Q-22.05 -2.9 -20.7 -1.1 M-16.35 -73.8 L-13.95 -97.1 Q-11.1 -124.35 -10.4 -132.55 -9.45 -133.45 -8.75 -135.15 L-8.35 -136.15 -8.2 -136.15 -6.45 -135.95 -5.4 -135.85 -5.45 -135.9 -4.6 -135.8 -4.95 -134.1 Q-7.4 -121.35 -7.4 -117.7 -7.4 -107.8 -9.1 -99.2 -10.05 -94.3 -10.45 -89.9 -11.85 -90.95 -12.8 -92.5 -13.65 -93.95 -14.05 -95.85 L-15.4 -82.9 Q-12.65 -81.1 -11.05 -76.05 L-12.05 -70.85 -12.75 -67.0 -12.3 -66.3 Q-14.0 -68.7 -15.8 -73.0 L-16.3 -74.25 -16.35 -73.8 M-12.95 -136.4 L-12.5 -135.85 -12.0 -134.2 -11.9 -133.0 -11.8 -132.55 -11.8 -132.35 -11.95 -130.0 Q-11.8 -129.3 -11.8 -128.25 L-12.0 -122.35 Q-14.1 -124.8 -16.35 -128.7 L-15.6 -137.35 -13.75 -136.9 -13.65 -135.15 -12.95 -136.4 M-19.95 -37.5 L-18.7 -35.6 Q-17.3 -33.5 -16.2 -31.25 L-16.5 -29.1 -18.25 -15.0 -19.35 -16.65 -21.6 -20.0 -21.6 -19.9 -20.15 -36.05 -20.1 -36.05 -19.95 -37.5" fill="#a2acb0" fill-rule="evenodd" stroke="none"/>
      <path d="M5.25 -199.8 L5.4 -199.2 5.45 -199.15 5.4 -198.95 5.35 -198.55 5.4 -197.9 5.5 -196.65 5.7 -195.95 5.55 -195.4 8.2 -194.65 9.2 -194.35 Q15.75 -192.1 21.05 -187.8 25.5 -184.25 27.9 -180.05 30.1 -176.3 30.05 -173.55 L30.0 -172.5 29.9 -170.75 Q29.55 -159.55 26.7 -153.3 24.15 -147.7 19.3 -143.95 L18.15 -142.6 Q15.65 -140.0 12.55 -139.75 L11.45 -139.7 7.45 -138.45 0.95 -138.75 0.85 -138.85 0.7 -138.5 0.25 -137.8 0.2 -137.75 0.1 -137.65 0.2 -137.4 0.2 -137.35 Q-0.15 -136.35 -1.15 -135.95 L-1.2 -134.1 -2.3 -134.65 -3.45 -135.15 -3.55 -134.7 -3.35 -135.75 -4.6 -135.8 -5.45 -135.9 -11.05 -137.2 Q-15.35 -137.9 -18.4 -137.35 L-18.4 -137.4 -18.35 -137.8 -18.45 -138.0 Q-19.1 -139.9 -19.1 -141.05 L-19.05 -141.85 -19.45 -143.35 -19.5 -144.35 -17.85 -143.4 -19.55 -144.5 -19.55 -144.95 -21.4 -146.55 Q-23.05 -148.05 -23.0 -149.85 L-22.9 -150.95 Q-22.7 -150.85 -22.55 -151.05 L-18.3 -150.7 -18.25 -150.85 -18.2 -150.85 Q-16.45 -149.4 -13.2 -149.4 -3.9 -149.4 -0.25 -155.5 1.55 -158.55 1.7 -162.7 3.25 -167.95 3.6 -175.05 L3.7 -175.25 3.9 -177.2 3.75 -178.05 3.85 -180.0 Q3.85 -181.25 3.1 -182.1 L2.6 -182.65 2.45 -183.0 1.8 -182.65 Q1.1 -183.95 0.0 -185.15 -2.0 -187.3 -4.8 -188.5 L-7.3 -190.45 -7.35 -189.85 -7.0 -189.3 Q-9.9 -190.2 -12.15 -189.85 L-12.15 -189.9 -12.45 -189.95 -12.4 -190.15 Q-12.4 -190.95 -13.05 -191.6 L-13.2 -191.6 -14.7 -191.75 -14.9 -191.65 -18.4 -192.3 -19.0 -194.1 -18.95 -194.4 -18.9 -194.4 -18.7 -194.6 -17.9 -195.4 Q-16.6 -196.0 -12.25 -196.6 L-11.95 -198.2 -10.5 -201.7 -8.8 -201.5 -4.1 -200.95 -7.65 -200.6 -7.8 -199.9 -8.45 -199.95 Q-8.55 -199.55 -8.8 -199.35 L-8.85 -198.15 Q-8.85 -196.95 -8.65 -196.7 L-8.4 -196.35 -4.1 -195.65 -3.6 -195.6 -1.4 -195.25 -0.65 -195.15 0.0 -195.15 0.1 -195.15 1.1 -195.25 1.15 -194.6 Q1.3 -194.7 1.5 -194.4 L2.5 -194.6 3.2 -196.7 3.0 -197.3 2.95 -197.0 3.1 -197.55 2.8 -197.6 2.15 -197.55 1.55 -197.9 1.6 -198.55 1.85 -199.35 -1.8 -201.15 0.05 -200.3 4.2 -199.7 5.25 -199.8 M26.6 -177.3 L26.45 -177.75 26.35 -177.95 26.3 -178.1 26.15 -178.45 26.05 -178.6 25.95 -178.85 25.85 -179.0 25.8 -179.15 25.65 -179.45 25.1 -180.4 25.0 -180.55 23.0 -183.45 22.35 -184.25 Q16.4 -191.5 6.45 -193.6 L6.4 -193.65 5.6 -193.8 3.85 -194.1 3.6 -194.15 3.2 -194.15 -0.65 -194.55 -9.0 -194.3 -10.55 -194.1 -10.45 -193.75 -6.55 -193.3 Q5.7 -184.15 5.65 -182.7 5.15 -167.8 2.4 -159.85 0.45 -154.15 -2.55 -150.95 L-2.55 -150.75 -2.95 -150.55 Q-4.1 -149.95 -4.65 -149.1 -9.85 -145.45 -17.4 -147.8 L-17.7 -146.35 -17.6 -146.15 -17.25 -145.85 Q-15.75 -144.85 -13.8 -143.8 L-12.55 -144.1 -11.2 -143.55 -11.05 -143.5 Q-7.1 -142.1 -1.8 -141.85 L-1.55 -141.85 -0.75 -141.55 -0.75 -141.8 1.7 -141.75 4.0 -141.6 Q14.05 -141.2 19.0 -147.65 L19.05 -147.7 Q21.6 -149.05 23.65 -152.7 L24.65 -154.7 25.9 -158.25 Q27.7 -163.65 27.85 -167.7 L27.65 -169.7 Q27.7 -172.6 26.85 -174.4 26.9 -175.55 27.1 -174.65 L27.4 -174.7 27.4 -174.85 27.3 -175.1 27.3 -175.25 26.75 -176.9 26.7 -177.1 26.6 -177.3 M4.7 -140.85 L3.2 -140.75 2.25 -140.35 2.4 -140.25 2.55 -140.2 4.7 -140.85 M-11.8 -193.85 L-11.4 -193.85 -11.4 -193.95 -11.8 -193.85 M-3.8 -140.8 L-3.85 -140.8 -3.95 -140.8 -7.0 -140.95 -7.55 -141.1 -7.8 -141.15 Q-10.0 -141.75 -11.6 -142.45 L-12.2 -142.7 -13.2 -143.25 -15.25 -143.25 -17.25 -143.3 -17.2 -142.95 -17.1 -142.9 -16.8 -142.35 -16.75 -142.3 -16.2 -142.25 -16.0 -141.05 -16.05 -140.25 -12.6 -139.4 -9.5 -138.7 -8.8 -139.05 -8.25 -138.9 -8.1 -138.5 -4.85 -138.2 -4.65 -138.2 -2.9 -137.95 -2.4 -137.95 -1.55 -138.2 -1.6 -138.6 -1.7 -139.75 -1.55 -140.7 -3.1 -140.75 -3.1 -140.7 -3.8 -140.8" fill="#827840" fill-rule="evenodd" stroke="none"/>
      <path d="M-2.3 -201.15 L-1.85 -201.15 -1.8 -201.15 1.85 -199.35 1.6 -198.55 1.55 -197.9 2.15 -197.55 2.65 -197.15 2.25 -196.35 0.3 -198.9 Q-1.5 -198.45 -1.5 -196.3 L-1.4 -195.25 -3.6 -195.6 -4.1 -195.65 -4.1 -195.9 Q-4.1 -199.2 -2.3 -201.15 M23.0 -183.45 L25.0 -180.55 25.1 -180.4 25.65 -179.45 25.8 -179.15 25.85 -179.0 25.95 -178.85 26.05 -178.6 26.15 -178.45 26.3 -178.1 26.35 -177.95 26.45 -177.75 26.6 -177.3 26.2 -172.7 Q25.8 -168.7 22.6 -163.7 19.1 -158.2 13.9 -154.3 9.4 -150.85 1.15 -148.5 2.5 -150.05 3.2 -151.7 5.9 -157.8 6.55 -161.55 7.0 -164.05 7.0 -170.1 7.0 -177.25 11.2 -180.9 14.9 -184.15 20.45 -183.8 L23.0 -183.45 M-12.2 -142.7 L-11.6 -142.45 Q-10.0 -141.75 -7.8 -141.15 L-7.55 -141.1 -7.0 -140.95 -3.95 -140.8 -3.85 -140.8 -3.8 -140.8 Q-4.9 -139.35 -4.9 -138.8 L-4.85 -138.2 -8.1 -138.5 -8.25 -138.9 -8.8 -139.05 -9.5 -138.7 -12.6 -139.4 -12.8 -140.6 Q-12.8 -141.9 -12.2 -142.7" fill="#ada61f" fill-rule="evenodd" stroke="none"/>
      <path d="M-4.1 -200.95 L-4.05 -200.95 -3.9 -200.95 -3.8 -201.0 -2.3 -201.15 Q-4.1 -199.2 -4.1 -195.9 L-4.1 -195.65 -8.4 -196.35 -8.65 -196.7 Q-8.85 -196.95 -8.85 -198.15 L-8.8 -199.35 Q-8.55 -199.55 -8.45 -199.95 L-7.8 -199.9 -7.65 -200.6 -4.1 -200.95 M-11.2 -143.55 L-12.55 -144.1 -13.8 -143.8 Q-15.75 -144.85 -17.25 -145.85 L-17.6 -146.15 -17.7 -146.35 -17.4 -147.8 Q-9.85 -145.45 -4.65 -149.1 -4.1 -149.95 -2.95 -150.55 L-2.55 -150.75 -2.55 -150.95 Q0.45 -154.15 2.4 -159.85 5.15 -167.8 5.65 -182.7 5.7 -184.15 -6.55 -193.3 L-10.45 -193.75 -10.55 -194.1 -9.0 -194.3 0.9 -191.15 Q7.65 -188.55 9.4 -185.4 10.2 -185.6 10.6 -186.8 9.6 -190.4 6.45 -193.6 16.4 -191.5 22.35 -184.25 L23.0 -183.45 20.45 -183.8 Q14.9 -184.15 11.2 -180.9 7.0 -177.25 7.0 -170.1 7.0 -164.05 6.55 -161.55 5.9 -157.8 3.2 -151.7 2.5 -150.05 1.15 -148.5 L0.0 -147.4 Q-2.75 -144.9 -6.0 -144.2 L-11.2 -143.55 M-12.6 -139.4 L-16.05 -140.25 -16.0 -141.05 -16.2 -142.25 -16.75 -142.3 -16.8 -142.35 -17.1 -142.9 -17.2 -142.95 -17.25 -143.3 -15.25 -143.25 -13.2 -143.25 -12.2 -142.7 Q-12.8 -141.9 -12.8 -140.6 L-12.6 -139.4" fill="#fecc56" fill-rule="evenodd" stroke="none"/>
      <path d="M2.15 -197.55 L2.8 -197.6 2.9 -196.4 2.7 -196.1 2.9 -196.05 2.9 -196.3 2.9 -196.4 2.9 -196.5 2.95 -196.95 2.95 -197.0 3.0 -197.3 3.2 -196.7 2.5 -194.6 1.5 -194.4 Q1.3 -194.7 1.15 -194.6 L1.1 -195.25 0.1 -195.15 0.0 -195.15 -0.65 -195.15 -1.4 -195.25 -1.5 -196.3 Q-1.5 -198.45 0.3 -198.9 L2.25 -196.35 2.65 -197.15 2.15 -197.55 M26.6 -177.3 L26.7 -177.1 26.75 -176.9 27.3 -175.25 27.3 -175.1 27.4 -174.85 27.4 -174.7 27.1 -174.65 Q26.9 -175.55 26.85 -174.4 27.7 -172.6 27.65 -169.7 L27.85 -167.7 Q27.7 -163.65 25.9 -158.25 L24.65 -154.7 23.65 -152.7 Q21.6 -149.05 19.05 -147.7 L19.0 -147.65 Q14.05 -141.2 4.0 -141.6 L1.7 -141.75 -0.75 -141.8 -0.75 -141.55 -1.55 -141.85 -1.8 -141.85 Q-7.1 -142.1 -11.05 -143.5 L-11.2 -143.55 -6.0 -144.2 Q-2.75 -144.9 0.0 -147.4 L1.15 -148.5 Q9.4 -150.85 13.9 -154.3 19.1 -158.2 22.6 -163.7 25.8 -168.7 26.2 -172.7 L26.6 -177.3 M-3.8 -140.8 L-3.1 -140.7 -3.1 -140.75 -1.55 -140.7 -1.7 -139.75 -1.6 -138.6 -2.4 -137.95 -2.9 -137.95 -4.65 -138.2 -4.85 -138.2 -4.9 -138.8 Q-4.9 -139.35 -3.8 -140.8" fill="#c7be23" fill-rule="evenodd" stroke="none"/>
      <path d="M-9.0 -194.3 L-0.65 -194.55 3.2 -194.15 3.6 -194.15 3.85 -194.1 5.6 -193.8 6.4 -193.65 6.45 -193.6 Q9.6 -190.4 10.6 -186.8 10.2 -185.6 9.4 -185.4 7.65 -188.55 0.9 -191.15 L-9.0 -194.3" fill="#fff3ca" fill-rule="evenodd" stroke="none"/>
      <path d="M-18.2 -150.85 L-16.55 -151.0 -16.25 -152.1 Q-15.55 -152.2 -15.25 -152.5 L-14.95 -152.9 -14.85 -154.4 Q-14.25 -154.5 -14.15 -154.7 L-14.05 -155.35 -13.95 -155.1 Q-13.85 -155.05 -13.85 -156.1 L-13.4 -165.85 Q-12.95 -165.95 -12.8 -166.15 L-12.55 -166.8 -12.45 -166.55 -12.4 -167.55 Q-12.4 -169.15 -13.05 -171.95 L-12.5 -177.35 Q-12.1 -178.05 -12.1 -179.25 L-12.25 -180.05 -11.8 -186.6 Q-12.15 -188.0 -12.15 -189.85 -9.9 -190.2 -7.0 -189.3 L-7.35 -189.85 -7.3 -190.45 -4.8 -188.5 Q-2.0 -187.3 0.0 -185.15 1.1 -183.95 1.8 -182.65 1.1 -182.0 1.1 -180.15 L1.5 -177.75 0.95 -174.3 0.25 -169.5 0.3 -168.45 0.5 -168.25 0.7 -168.3 0.55 -167.6 0.45 -167.4 0.5 -167.05 0.45 -166.4 0.5 -163.5 0.85 -163.5 -0.1 -158.1 1.4 -161.85 1.55 -162.25 1.7 -162.75 1.7 -162.7 Q1.55 -158.55 -0.25 -155.5 -3.9 -149.4 -13.2 -149.4 -16.45 -149.4 -18.2 -150.85 M1.95 -168.75 L1.85 -168.7 1.9 -168.8 1.95 -168.75 M-9.65 -189.35 L-9.75 -189.4 -9.85 -188.9 -9.65 -188.9 -9.65 -189.35 M-5.55 -186.0 L-7.65 -188.25 -8.0 -187.45 -8.4 -186.05 -9.2 -183.6 -9.5 -183.5 -9.5 -179.45 -8.8 -179.4 -7.1 -179.7 -6.6 -180.0 -6.55 -180.0 -6.3 -180.15 -5.4 -180.8 -2.0 -182.85 -3.55 -184.2 -5.55 -186.0 M-5.4 -175.4 L-3.15 -173.05 -2.65 -172.55 -1.4 -173.25 -1.2 -173.55 Q-1.0 -173.6 -1.0 -172.35 -1.0 -171.85 -1.35 -171.35 L-0.95 -170.95 -0.55 -173.7 -0.15 -176.6 -0.35 -178.35 0.05 -181.2 -1.35 -182.3 -2.9 -180.5 Q-4.45 -179.05 -6.95 -177.6 L-5.4 -175.4 M-6.45 -174.5 Q-7.6 -175.75 -7.85 -176.55 L-7.75 -177.15 -9.55 -176.25 -9.8 -176.3 -9.8 -176.0 -9.85 -175.65 -9.9 -175.5 -10.5 -171.0 -10.7 -169.95 -10.3 -168.8 Q-7.75 -169.7 -5.2 -171.15 L-3.75 -171.95 -4.2 -172.35 -6.45 -174.5 M-8.75 -164.25 L-8.05 -162.6 Q-6.2 -159.1 -2.8 -157.2 L-2.15 -158.95 -2.2 -156.85 -2.15 -156.8 -2.05 -157.6 -2.05 -158.05 Q-2.1 -161.7 -1.1 -169.75 L-2.1 -170.55 -4.05 -169.35 -4.35 -169.2 -5.35 -168.75 -5.65 -168.65 -9.05 -167.45 -9.8 -167.25 -9.55 -166.5 -8.75 -164.25 M-10.65 -165.6 L-10.95 -166.95 -11.1 -165.05 -11.65 -158.8 -11.95 -155.55 -9.8 -156.95 Q-7.6 -158.2 -6.3 -158.65 L-8.3 -160.75 -9.65 -162.85 -10.45 -164.85 -10.65 -165.6 M-6.4 -156.9 L-7.3 -156.3 Q-8.55 -155.55 -11.75 -154.35 L-12.15 -153.9 -12.45 -150.3 -14.05 -150.2 -14.05 -150.15 -12.8 -150.05 -12.05 -150.0 -11.15 -150.05 -10.45 -150.15 -10.0 -150.2 Q-6.9 -150.65 -4.4 -152.55 L-4.2 -154.15 -4.2 -154.2 -3.15 -156.45 Q-4.45 -157.15 -5.5 -158.0 -5.8 -157.4 -6.4 -156.9 M-1.55 -155.7 L-1.65 -155.5 -1.5 -155.65 -1.55 -155.7" fill="#1d3847" fill-rule="evenodd" stroke="none"/>
      <path d="M-2.25 -213.15 L-1.1 -214.2 -1.55 -204.1 -1.75 -202.1 -2.05 -202.15 -2.95 -202.2 -7.2 -202.05 -6.85 -203.35 -5.1 -207.75 -5.0 -207.9 -4.9 -208.1 -2.7 -212.35 -2.3 -213.1 -2.25 -213.15 M-12.0 -122.35 L-12.3 -118.65 Q-13.9 -121.65 -16.75 -124.4 L-16.65 -124.9 -16.65 -125.05 -16.35 -128.7 Q-14.1 -124.8 -12.0 -122.35 M-14.85 -97.55 L-15.5 -91.55 -16.7 -81.65 Q-16.95 -76.15 -18.5 -61.35 L-19.3 -54.25 -19.3 -54.05 Q-19.55 -47.35 -20.65 -38.45 L-20.7 -37.55 Q-20.7 -36.45 -21.4 -30.8 L-21.1 -40.2 Q-21.1 -46.95 -22.95 -52.85 L-22.95 -52.9 -22.85 -54.05 -22.35 -59.55 -20.4 -81.3 -20.35 -82.0 -18.1 -75.3 -17.7 -75.3 -17.1 -83.0 Q-17.1 -87.05 -20.1 -92.5 -19.75 -96.75 -18.4 -104.4 L-18.15 -107.35 -18.05 -108.1 -17.5 -103.0 Q-17.25 -100.1 -14.85 -97.55 M-22.55 -19.15 L-22.55 -18.8 -23.45 -10.3 -23.55 -9.6 Q-25.95 -10.15 -26.4 -12.9 -26.65 -14.6 -26.2 -16.5 L-26.3 -17.2 -26.05 -19.95 Q-25.85 -25.9 -25.1 -33.25 L-25.0 -32.7 -22.55 -19.15" fill="#ffffff" fill-rule="evenodd" stroke="none"/>
      <path d="M-6.3 -180.15 L-6.55 -180.0 -6.6 -180.0 -7.1 -179.7 -8.8 -179.4 -9.5 -179.45 -9.5 -183.5 -9.2 -183.6 -8.4 -186.05 -8.0 -187.45 -7.65 -188.25 -5.55 -186.0 -5.75 -184.9 -6.2 -181.5 -6.3 -180.15 M-2.9 -180.5 L-2.7 -179.1 Q-2.7 -177.95 -3.5 -177.0 L-5.3 -175.4 -5.4 -175.4 -6.95 -177.6 Q-4.45 -179.05 -2.9 -180.5 M-10.5 -171.0 L-9.9 -175.5 -9.85 -175.65 -9.8 -176.0 -9.8 -176.3 -9.55 -176.25 -7.75 -177.15 -7.85 -176.55 Q-7.6 -175.75 -6.45 -174.5 L-6.6 -173.85 Q-7.15 -172.5 -10.0 -170.1 L-10.6 -170.35 -10.5 -171.0 M-8.75 -164.25 L-9.55 -166.5 -9.05 -167.45 -5.65 -168.65 -5.35 -168.75 -4.35 -169.2 -4.05 -169.35 -5.25 -166.9 Q-6.6 -164.55 -7.6 -163.8 L-8.75 -164.25 M-11.1 -165.05 L-10.65 -165.6 -10.45 -164.85 -9.65 -162.85 -8.3 -160.75 -10.8 -158.5 Q-11.3 -158.6 -11.65 -158.8 L-11.1 -165.05 M-12.45 -150.3 L-12.15 -153.9 -11.75 -154.35 Q-8.55 -155.55 -7.3 -156.3 L-6.4 -156.9 Q-6.55 -155.4 -8.15 -152.7 -9.25 -150.85 -10.0 -150.2 L-10.45 -150.15 -11.15 -150.05 -12.05 -150.0 -12.45 -150.3" fill="#486f71" fill-rule="evenodd" stroke="none"/>
      <path d="M-6.3 -180.15 L-6.2 -181.5 -5.75 -184.9 -5.55 -186.0 -3.55 -184.2 -2.0 -182.85 -5.4 -180.8 -6.3 -180.15 M-2.9 -180.5 L-1.35 -182.3 0.05 -181.2 -0.35 -178.35 -0.15 -176.6 -0.55 -173.7 -0.95 -170.95 -1.35 -171.35 Q-1.0 -171.85 -1.0 -172.35 -1.0 -173.6 -1.2 -173.55 L-1.4 -173.25 -2.65 -172.55 -3.15 -173.05 -5.4 -175.4 -5.3 -175.4 -3.5 -177.0 Q-2.7 -177.95 -2.7 -179.1 L-2.9 -180.5 M-10.5 -171.0 L-10.6 -170.35 -10.0 -170.1 Q-7.15 -172.5 -6.6 -173.85 L-6.45 -174.5 -4.2 -172.35 -3.75 -171.95 -5.2 -171.15 Q-7.75 -169.7 -10.3 -168.8 L-10.7 -169.95 -10.5 -171.0 M-4.05 -169.35 L-2.1 -170.55 -1.1 -169.75 Q-2.1 -161.7 -2.05 -158.05 L-2.05 -157.6 -2.15 -156.8 -2.2 -156.85 -2.15 -158.95 -2.8 -157.2 Q-6.2 -159.1 -8.05 -162.6 L-8.75 -164.25 -7.6 -163.8 Q-6.6 -164.55 -5.25 -166.9 L-4.05 -169.35 M-11.65 -158.8 Q-11.3 -158.6 -10.8 -158.5 L-8.3 -160.75 -6.3 -158.65 Q-7.6 -158.2 -9.8 -156.95 L-11.95 -155.55 -11.65 -158.8 M-6.4 -156.9 Q-5.8 -157.4 -5.5 -158.0 -4.45 -157.15 -3.15 -156.45 L-4.2 -154.2 -4.2 -154.15 -4.4 -152.55 Q-6.9 -150.65 -10.0 -150.2 -9.25 -150.85 -8.15 -152.7 -6.55 -155.4 -6.4 -156.9" fill="#274d61" fill-rule="evenodd" stroke="none"/>
      <path d="M-9.55 -166.5 L-9.8 -167.25 -9.05 -167.45 -9.55 -166.5 M-10.65 -165.6 L-11.1 -165.05 -10.95 -166.95 -10.65 -165.6 M-12.05 -150.0 L-12.8 -150.05 -14.05 -150.15 -14.05 -150.2 -12.45 -150.3 -12.05 -150.0" fill="#4a5568" fill-rule="evenodd" stroke="none"/>
      <path d="M-1.6 -138.6 L-1.55 -138.2 -2.4 -137.95 -1.6 -138.6" fill="#aeb04f" fill-rule="evenodd" stroke="none"/>
    </g>
  </defs>
</svg>
