<?xml version="1.0" encoding="UTF-8" standalone="no"?>
<svg xmlns:ffdec="https://www.free-decompiler.com/flash" xmlns:xlink="http://www.w3.org/1999/xlink" ffdec:objectType="frame" height="43.05px" width="99.4px" xmlns="http://www.w3.org/2000/svg">
  <g transform="matrix(1.0, 0.0, 0.0, 1.0, 60.8, 32.95)">
    <use ffdec:characterId="214" height="4.25" transform="matrix(7.0, 0.0, 0.0, 7.0, -56.25, -22.45)" width="8.45" xlink:href="#shape0"/>
    <use ffdec:characterId="213" height="3.0" transform="matrix(7.0, 0.0, 0.0, 7.0, -35.95, -13.7)" width="5.55" xlink:href="#shape1"/>
    <use ffdec:characterId="215" height="4.8" transform="matrix(7.0, 0.0, 0.0, 7.0, -59.75, -24.55)" width="7.3" xlink:href="#shape2"/>
  </g>
  <defs>
    <g id="shape0" transform="matrix(1.0, 0.0, 0.0, 1.0, 11.15, 1.85)">
      <path d="M-7.2 -0.3 Q-7.2 -0.45 -7.0 -0.55 -6.8 -0.65 -6.65 -0.5 -6.6 -0.4 -6.6 -0.25 L-6.55 0.05 -5.95 0.15 -5.3 0.25 -5.6 0.3 -5.35 0.25 -5.3 0.3 -5.25 0.3 -5.45 0.35 -5.8 0.35 -6.05 0.4 Q-6.25 0.5 -6.4 0.6 L-7.25 0.45 Q-7.35 0.4 -7.35 0.3 L-7.3 0.2 Q-7.3 0.15 -7.2 0.15 -7.15 0.1 -7.1 0.1 L-7.05 0.05 Q-7.05 0.0 -7.15 -0.15 L-7.2 -0.3 M-4.05 1.6 Q-4.05 1.8 -4.15 2.0 L-4.65 2.3 -4.5 2.3 -4.45 2.35 -3.9 2.35 -3.75 2.25 -3.6 2.2 -3.5 2.05 Q-3.15 1.95 -2.7 2.0 -2.9 2.05 -3.05 2.1 L-3.25 2.2 -3.4 2.25 -3.6 2.3 -3.65 2.3 -3.75 2.35 Q-4.15 2.45 -4.55 2.35 L-4.8 2.3 Q-4.8 2.25 -4.75 2.2 L-4.7 2.0 Q-4.65 1.95 -4.55 1.85 L-4.4 1.65 -4.3 1.5 Q-4.15 1.45 -4.1 1.5 -4.05 1.5 -4.05 1.6 M-4.1 1.65 L-4.1 1.55 -4.15 1.55 -4.3 1.6 Q-4.4 1.7 -4.35 1.75 L-4.2 1.8 -4.15 1.75 Q-4.1 1.7 -4.1 1.65 M-6.15 0.9 L-6.5 1.1 Q-6.65 1.2 -6.85 1.25 L-6.9 1.25 -7.0 1.3 -6.55 1.2 -6.7 1.35 Q-6.8 1.4 -6.85 1.4 L-7.4 1.45 Q-7.5 1.45 -7.45 1.4 L-7.6 1.35 -7.6 1.2 Q-7.85 1.25 -7.95 1.3 L-8.15 1.45 -8.2 1.45 Q-8.25 1.4 -8.25 1.35 L-8.2 1.25 Q-8.2 1.15 -8.1 1.1 L-7.85 1.05 Q-7.85 0.85 -7.8 0.8 L-7.5 0.8 -7.4 1.2 -7.25 1.25 Q-6.85 1.25 -6.55 1.1 L-6.3 0.9 -6.15 0.9 M-7.25 0.3 L-7.2 0.35 -7.2 0.25 -7.25 0.3 M-7.75 0.9 L-7.65 0.85 -7.75 0.85 -7.75 0.9" fill="#ebf7fc" fill-opacity="0.03529412" fill-rule="evenodd" stroke="none"/>
      <path d="M-9.45 -1.5 Q-9.45 -1.6 -9.3 -1.7 -9.1 -1.85 -8.95 -1.85 -8.85 -1.8 -8.75 -1.65 -8.7 -1.5 -8.5 -1.45 -8.45 -1.45 -8.4 -1.3 L-8.4 -1.15 -8.5 -1.05 -8.55 -1.15 -8.55 -1.25 Q-8.6 -1.25 -8.6 -1.3 L-8.75 -1.25 Q-8.85 -1.1 -8.95 -0.75 L-9.05 -0.25 -9.55 -0.05 Q-9.75 0.05 -9.8 0.15 L-9.75 0.25 -9.45 0.35 -9.3 0.5 Q-9.25 0.55 -9.25 0.6 L-9.3 0.8 -9.4 1.0 Q-9.3 1.1 -8.9 1.2 -8.55 1.35 -8.5 1.4 L-6.85 1.4 -6.5 1.45 Q-6.45 1.55 -6.5 1.65 L-5.9 1.75 -4.2 1.85 -3.9 1.9 -3.6 1.9 Q-3.65 2.05 -3.85 2.15 -4.05 2.2 -4.5 2.3 L-8.5 2.3 -8.65 2.25 -9.1 2.2 -10.05 2.0 -10.1 1.7 -10.1 1.45 Q-10.75 1.25 -10.95 1.1 -11.15 1.0 -11.15 0.75 -11.15 0.45 -11.0 0.15 -10.85 -0.2 -10.6 -0.3 -10.2 -0.45 -9.95 -0.45 -9.7 -0.4 -9.6 -0.5 -9.5 -0.5 -9.4 -0.65 L-9.25 -1.15 Q-9.25 -1.2 -9.35 -1.3 L-9.45 -1.5 M-4.8 -0.8 Q-4.8 -1.35 -4.1 -0.6 -4.1 -0.45 -4.4 -0.45 -4.6 -0.45 -4.7 -0.55 -4.8 -0.65 -4.8 -0.8" fill="#ebf7fc" fill-opacity="0.03529412" fill-rule="evenodd" stroke="none"/>
    </g>
    <g id="shape1" transform="matrix(1.0, 0.0, 0.0, 1.0, 8.25, 0.6)">
      <path d="M-7.2 -0.3 Q-7.2 -0.45 -7.0 -0.55 -6.8 -0.65 -6.65 -0.5 -6.6 -0.4 -6.6 -0.25 L-6.55 0.05 -5.95 0.15 -5.3 0.25 -5.6 0.3 -5.35 0.25 -5.3 0.3 -5.25 0.3 -5.45 0.35 -5.8 0.35 -6.05 0.4 Q-6.25 0.5 -6.4 0.6 L-7.25 0.45 Q-7.35 0.4 -7.35 0.3 L-7.3 0.2 Q-7.3 0.15 -7.2 0.15 -7.15 0.1 -7.1 0.1 L-7.05 0.05 Q-7.05 0.0 -7.15 -0.15 L-7.2 -0.3 M-4.05 1.6 Q-4.05 1.8 -4.15 2.0 -4.25 2.1 -4.3 2.15 -4.35 2.2 -4.5 2.25 L-4.65 2.3 -4.5 2.3 -4.45 2.35 -3.9 2.35 -3.75 2.25 -3.6 2.2 -3.5 2.05 Q-3.15 1.95 -2.7 2.0 -2.9 2.05 -3.05 2.1 L-3.25 2.2 -3.4 2.25 -3.6 2.3 -3.65 2.3 -3.75 2.35 Q-4.15 2.45 -4.55 2.35 L-4.8 2.3 Q-4.8 2.25 -4.75 2.2 L-4.7 2.2 -4.55 2.15 -4.6 2.1 -4.7 2.1 -4.85 2.15 -4.95 2.15 Q-5.1 2.2 -5.3 2.2 L-5.9 2.15 -5.95 2.15 -6.0 2.1 -6.0 2.0 -5.9 2.1 -5.35 2.15 -5.4 2.1 -5.15 2.1 -4.85 2.0 -4.7 2.0 Q-4.65 1.95 -4.55 1.85 L-4.4 1.65 -4.3 1.5 Q-4.15 1.45 -4.1 1.5 -4.05 1.5 -4.05 1.6 M-4.1 1.65 L-4.1 1.55 -4.15 1.55 -4.3 1.6 Q-4.4 1.7 -4.35 1.75 L-4.2 1.8 -4.15 1.75 Q-4.1 1.7 -4.1 1.65 M-6.15 0.9 L-6.5 1.1 Q-6.65 1.2 -6.85 1.25 L-6.9 1.25 -7.0 1.3 -6.55 1.2 -6.7 1.35 Q-6.8 1.4 -6.85 1.4 L-7.4 1.45 Q-7.5 1.45 -7.45 1.4 L-7.6 1.35 -7.6 1.2 Q-7.85 1.25 -7.95 1.3 L-8.15 1.45 -8.2 1.45 Q-8.25 1.4 -8.25 1.35 L-8.2 1.25 Q-8.2 1.15 -8.1 1.1 L-7.85 1.05 Q-7.85 0.85 -7.8 0.8 L-7.5 0.8 -7.4 1.2 -7.25 1.25 Q-6.85 1.25 -6.55 1.1 L-6.3 0.9 -6.15 0.9 M-7.25 0.3 L-7.2 0.35 -7.2 0.25 -7.25 0.3 M-7.75 0.9 L-7.65 0.85 -7.75 0.85 -7.75 0.9" fill="#c9e9f6" fill-opacity="0.02745098" fill-rule="evenodd" stroke="none"/>
    </g>
    <g id="shape2" transform="matrix(1.0, 0.0, 0.0, 1.0, 11.65, 2.15)">
      <path d="M-11.65 -0.15 L-11.6 -0.25 -11.55 -0.45 Q-11.4 -0.65 -11.3 -0.7 L-10.95 -0.75 -10.55 -0.7 Q-10.05 -0.7 -9.95 -1.2 -9.95 -1.45 -9.9 -1.7 -9.75 -2.1 -9.5 -2.15 -9.1 -2.1 -9.05 -1.9 -9.0 -1.6 -8.85 -1.5 L-8.75 -1.55 -8.8 -1.5 -8.75 -1.5 -8.6 -1.6 -8.55 -1.6 Q-8.7 -1.45 -8.75 -1.4 L-8.8 -1.4 Q-8.85 -1.35 -8.9 -1.3 L-9.4 -1.25 -9.6 -1.25 Q-9.75 -1.05 -9.75 -1.0 L-9.75 -0.75 Q-9.75 -0.55 -10.0 -0.4 -10.35 -0.15 -11.15 -0.2 L-11.3 0.0 -11.35 0.15 -11.3 0.25 Q-11.25 0.35 -11.25 0.4 L-11.3 0.45 -11.45 0.45 -11.65 0.2 -11.65 -0.15 M-4.95 -0.8 L-4.55 -0.65 Q-4.35 -0.55 -4.35 -0.4 L-4.35 -0.3 -4.45 -0.25 -4.6 -0.25 -4.8 -0.45 Q-4.95 -0.6 -4.95 -0.7 L-4.95 -0.8 M-5.45 2.45 L-5.7 2.5 -6.05 2.45 -6.3 2.4 -7.45 2.45 -7.95 2.5 -8.6 2.45 Q-8.9 2.4 -9.1 2.5 L-9.2 2.5 -9.15 2.45 -9.3 2.5 -10.05 2.65 Q-10.65 2.6 -10.75 2.35 -10.85 2.2 -10.9 2.0 -10.95 1.95 -11.2 1.8 -11.45 1.7 -11.5 1.65 -11.55 1.55 -11.55 1.3 -11.55 1.15 -11.5 1.05 L-11.25 0.65 -11.15 0.35 Q-11.1 0.2 -11.05 0.2 L-10.95 0.05 Q-10.75 -0.25 -10.4 -0.1 L-10.25 0.0 Q-10.25 0.1 -10.45 0.15 -10.6 0.25 -10.6 0.4 -10.6 0.45 -10.55 0.55 L-10.5 0.65 -10.15 0.7 -9.95 0.75 Q-9.65 0.9 -9.65 1.15 -9.6 1.3 -9.65 1.6 -9.45 1.7 -9.05 1.75 -8.75 1.8 -8.6 1.9 -8.35 2.1 -8.2 2.1 L-7.6 2.15 -6.5 2.15 -6.3 2.1 -6.05 2.05 -4.95 2.15 -4.95 2.3 Q-5.2 2.3 -5.4 2.45 L-5.45 2.45 M-7.5 1.4 Q-7.45 1.45 -7.05 1.5 -7.0 1.5 -7.0 1.55 L-7.0 1.7 -7.1 1.8 -7.3 1.8 -7.9 1.75 -7.95 1.7 Q-8.0 1.65 -8.0 1.6 -8.0 1.5 -7.85 1.45 -7.7 1.4 -7.5 1.4 M-7.2 1.65 Q-7.2 1.6 -7.3 1.6 L-7.35 1.65 -7.2 1.65 M-9.9 0.5 Q-9.9 0.45 -9.8 0.45 -9.75 0.45 -9.75 0.35 L-9.6 0.5 Q-9.6 0.6 -9.7 0.6 L-9.8 0.6 -9.9 0.5" fill="#c9e9f6" fill-opacity="0.019607844" fill-rule="evenodd" stroke="none"/>
    </g>
  </defs>
</svg>
