<?xml version="1.0" encoding="UTF-8" standalone="no"?>
<svg xmlns:ffdec="https://www.free-decompiler.com/flash" xmlns:xlink="http://www.w3.org/1999/xlink" ffdec:objectType="frame" height="14.0px" width="14.0px" xmlns="http://www.w3.org/2000/svg">
  <g transform="matrix(1.0, 0.0, 0.0, 1.0, 7.0, 7.0)">
    <use ffdec:characterId="72" height="2.0" transform="matrix(7.0, 0.0, 0.0, 7.0, -7.0, -7.0)" width="2.0" xlink:href="#shape0"/>
  </g>
  <defs>
    <g id="shape0" transform="matrix(1.0, 0.0, 0.0, 1.0, 1.0, 1.0)">
      <path d="M0.2 -0.35 L0.2 -0.2 0.05 -0.4 Q0.0 -0.5 0.0 -0.6 0.05 -0.6 0.1 -0.65 0.2 -0.6 0.2 -0.35 M0.9 -0.4 Q1.0 -0.2 1.0 0.0 1.0 0.4 0.7 0.7 0.4 1.0 0.0 1.0 -0.4 1.0 -0.7 0.7 -1.0 0.4 -1.0 0.0 -1.0 -0.4 -0.7 -0.7 -0.4 -1.0 0.0 -1.0 0.4 -1.0 0.7 -0.7 L0.8 -0.65 0.8 -0.6 0.9 -0.4 M-0.45 -0.6 Q-0.65 -0.9 -0.65 -0.4 -0.5 0.65 -0.45 0.65 -0.3 0.65 -0.3 0.45 L-0.3 0.15 Q-0.3 -0.3 -0.45 -0.6 M0.15 0.15 L0.2 0.1 Q0.4 0.2 0.4 0.35 L0.4 0.45 0.15 0.45 0.15 0.15 M0.35 -0.45 Q0.35 -0.85 0.1 -0.95 -0.15 -1.0 -0.15 -0.6 L0.05 -0.05 -0.05 0.3 Q-0.1 0.55 0.05 0.65 L0.4 0.65 Q0.55 0.55 0.6 0.5 L0.6 0.35 Q0.6 0.15 0.5 0.05 0.35 -0.1 0.35 -0.45" fill="#ff0000" fill-rule="evenodd" stroke="none"/>
      <path d="M0.2 -0.35 Q0.2 -0.6 0.1 -0.65 0.05 -0.6 0.0 -0.6 0.0 -0.5 0.05 -0.4 L0.2 -0.2 0.2 -0.35 M0.35 -0.45 Q0.35 -0.1 0.5 0.05 0.6 0.15 0.6 0.35 L0.6 0.5 Q0.55 0.55 0.4 0.65 L0.05 0.65 Q-0.1 0.55 -0.05 0.3 L0.05 -0.05 -0.15 -0.6 Q-0.15 -1.0 0.1 -0.95 0.35 -0.85 0.35 -0.45 M0.15 0.15 L0.15 0.45 0.4 0.45 0.4 0.35 Q0.4 0.2 0.2 0.1 L0.15 0.15 M-0.45 -0.6 Q-0.3 -0.3 -0.3 0.15 L-0.3 0.45 Q-0.3 0.65 -0.45 0.65 -0.5 0.65 -0.65 -0.4 -0.65 -0.9 -0.45 -0.6" fill="#000000" fill-rule="evenodd" stroke="none"/>
    </g>
  </defs>
</svg>
