<?xml version="1.0" encoding="UTF-8" standalone="no"?>
<svg xmlns:ffdec="https://www.free-decompiler.com/flash" xmlns:xlink="http://www.w3.org/1999/xlink" ffdec:objectType="frame" height="96.25px" width="76.2px" xmlns="http://www.w3.org/2000/svg">
  <g transform="matrix(1.0, 0.0, 0.0, 1.0, 54.75, 72.7)">
    <use ffdec:characterId="74" height="1.9" transform="matrix(3.712, -0.115, 0.0, 7.0, -39.1688, -3.7177)" width="7.55" xlink:href="#shape0"/>
    <use ffdec:characterId="75" height="2.15" transform="matrix(2.158, -0.5668, 1.6405, 3.4992, -28.4469, -20.9531)" width="2.05" xlink:href="#shape1"/>
    <use ffdec:characterId="76" height="2.85" transform="matrix(1.5039, -1.8918, 1.7992, 3.3683, -37.4029, -13.3584)" width="2.15" xlink:href="#shape2"/>
    <use ffdec:characterId="75" height="2.15" transform="matrix(2.0094, -0.9103, 1.6553, 3.5067, -40.8204, -25.7576)" width="2.05" xlink:href="#shape1"/>
    <use ffdec:characterId="75" height="2.15" transform="matrix(2.2781, -0.3204, 1.5477, 3.5367, -39.1874, -27.637)" width="2.05" xlink:href="#shape1"/>
    <use ffdec:characterId="76" height="2.85" transform="matrix(1.3938, -2.1135, 1.8329, 3.3421, -36.6467, -27.2336)" width="2.15" xlink:href="#shape2"/>
    <use ffdec:characterId="75" height="2.15" transform="matrix(2.2781, -0.3204, 1.5477, 3.5367, -30.2374, -31.537)" width="2.05" xlink:href="#shape1"/>
    <use ffdec:characterId="76" height="2.85" transform="matrix(1.9565, -1.0221, 1.6744, 3.4964, -34.4152, -30.8404)" width="2.15" xlink:href="#shape2"/>
    <use ffdec:characterId="76" height="2.85" transform="matrix(2.5445, 0.3294, 1.4105, 3.5272, -33.6271, -36.5815)" width="2.15" xlink:href="#shape2"/>
    <use ffdec:characterId="76" height="2.85" transform="matrix(0.1932, -4.0176, 1.9754, 2.7524, -41.3265, -27.4217)" width="2.15" xlink:href="#shape2"/>
    <use ffdec:characterId="76" height="2.85" transform="matrix(1.3946, -2.1142, 1.8334, 3.3421, -38.5986, -28.6827)" width="2.15" xlink:href="#shape2"/>
    <use ffdec:characterId="75" height="2.15" transform="matrix(2.5824, 0.4151, 1.3954, 3.5316, -36.0022, -33.4992)" width="2.05" xlink:href="#shape1"/>
    <use ffdec:characterId="76" height="2.85" transform="matrix(2.5445, 0.3294, 1.411, 3.528, -37.178, -40.2834)" width="2.15" xlink:href="#shape2"/>
    <use ffdec:characterId="75" height="2.15" transform="matrix(1.5203, -1.8777, 1.8021, 3.3831, -38.9005, -34.0947)" width="2.05" xlink:href="#shape1"/>
    <use ffdec:characterId="75" height="2.15" transform="matrix(1.1252, -2.5793, 1.8835, 3.2346, -41.4486, -33.661)" width="2.05" xlink:href="#shape1"/>
    <use ffdec:characterId="75" height="2.15" transform="matrix(3.3656, 2.9205, 0.7186, 3.1401, -42.021, -43.8967)" width="2.05" xlink:href="#shape1"/>
  </g>
  <defs>
    <g id="shape0" transform="matrix(1.0, 0.0, 0.0, 1.0, 1.15, 0.75)">
      <path d="M2.0 -0.5 Q2.7 -0.85 3.6 -0.65 4.15 -0.65 4.7 -0.5 4.9 -0.5 5.1 -0.4 5.3 -0.35 5.9 0.0 6.5 0.35 6.35 0.45 L6.3 0.55 Q5.85 1.0 5.2 0.95 4.65 0.95 4.1 0.95 3.5 1.1 2.9 1.1 2.35 1.1 2.0 1.15 1.6 1.2 1.4 1.05 L1.3 1.05 Q0.3 1.25 -0.65 0.8 -0.75 0.7 -0.8 0.65 L-0.95 0.6 Q-1.35 0.45 -1.0 0.15 0.2 -0.95 1.85 -0.5 1.9 -0.5 2.0 -0.5" fill="#444444" fill-opacity="0.32941177" fill-rule="evenodd" stroke="none"/>
    </g>
    <g id="shape1" transform="matrix(1.0, 0.0, 0.0, 1.0, 1.05, 2.0)">
      <path d="M0.5 -1.5 L0.45 -1.55 0.45 -1.5 Q0.35 -1.5 0.25 -1.4 0.05 -1.3 -0.1 -1.1 -0.2 -0.95 -0.25 -0.8 L-0.2 -0.75 Q-0.1 -0.7 0.05 -0.7 0.3 -0.75 0.5 -0.95 0.65 -1.1 0.65 -1.2 0.65 -1.35 0.6 -1.45 0.55 -1.5 0.5 -1.5 M0.85 -1.25 L0.8 -1.2 Q0.5 -0.7 -0.05 -0.65 -0.6 -0.6 -0.8 -0.75 -0.9 -0.85 -0.95 -1.0 -0.9 -1.2 -0.8 -1.35 -0.6 -1.7 -0.1 -1.75 0.45 -1.8 0.75 -1.5 0.8 -1.4 0.85 -1.25 M-0.8 -0.9 L-0.8 -0.85 Q-0.8 -0.8 -0.75 -0.8 -0.65 -0.8 -0.35 -1.1 -0.05 -1.4 -0.05 -1.5 -0.05 -1.55 -0.05 -1.6 L-0.15 -1.6 -0.2 -1.65 -0.4 -1.6 Q-0.55 -1.55 -0.65 -1.45 -0.85 -1.25 -0.85 -1.15 -0.85 -1.0 -0.8 -0.9" fill="#ffffff" fill-rule="evenodd" stroke="none"/>
      <path d="M0.5 -1.5 Q0.55 -1.5 0.6 -1.45 0.65 -1.35 0.65 -1.2 0.65 -1.1 0.5 -0.95 0.3 -0.75 0.05 -0.7 -0.1 -0.7 -0.2 -0.75 L-0.25 -0.8 Q-0.2 -0.95 -0.1 -1.1 0.05 -1.3 0.25 -1.4 0.35 -1.5 0.45 -1.5 L0.45 -1.55 0.5 -1.5 M-0.8 -0.9 Q-0.85 -1.0 -0.85 -1.15 -0.85 -1.25 -0.65 -1.45 -0.55 -1.55 -0.4 -1.6 L-0.2 -1.65 -0.15 -1.6 -0.05 -1.6 Q-0.05 -1.55 -0.05 -1.5 -0.05 -1.4 -0.35 -1.1 -0.65 -0.8 -0.75 -0.8 -0.8 -0.8 -0.8 -0.85 L-0.8 -0.9" fill="#fff25b" fill-rule="evenodd" stroke="none"/>
      <path d="M0.85 -1.25 L0.9 -1.2 Q0.9 -1.1 0.9 -1.05 L0.9 -1.0 0.85 -0.8 0.85 -0.7 0.8 -0.6 Q0.75 -0.5 0.7 -0.45 0.5 -0.2 0.05 -0.2 -0.65 -0.1 -0.9 -0.5 -0.95 -0.6 -0.95 -0.7 L-0.95 -0.85 Q-0.95 -0.95 -0.95 -1.0 -0.9 -0.85 -0.8 -0.75 -0.6 -0.6 -0.05 -0.65 0.5 -0.7 0.8 -1.2 L0.85 -1.25" fill="#ffc53c" fill-rule="evenodd" stroke="none"/>
      <path d="M-0.95 -1.0 Q-0.95 -0.95 -0.95 -0.85 L-0.95 -0.7 Q-0.95 -0.6 -0.9 -0.5 -0.65 -0.1 0.05 -0.2 0.5 -0.2 0.7 -0.45 0.75 -0.5 0.8 -0.6 L0.85 -0.7 0.85 -0.8 0.9 -1.0 0.9 -1.05 Q0.9 -1.1 0.9 -1.2 L0.85 -1.25 Q0.8 -1.4 0.75 -1.5 0.45 -1.8 -0.1 -1.75 -0.6 -1.7 -0.8 -1.35 -0.9 -1.2 -0.95 -1.0 M1.0 -1.25 L1.0 -0.85 Q1.0 -0.75 1.0 -0.65 L1.0 -0.6 Q1.0 -0.5 0.9 -0.35 0.9 -0.3 0.85 -0.25 L0.75 -0.2 Q0.55 0.05 0.35 0.1 L-0.2 0.15 Q-0.7 0.0 -0.85 -0.2 -1.0 -0.3 -1.05 -0.55 L-1.05 -0.65 Q-1.05 -0.7 -1.05 -0.75 -1.05 -0.8 -1.05 -1.0 -1.1 -1.3 -0.8 -1.6 -0.45 -1.85 0.15 -2.0 0.75 -1.9 0.9 -1.55 1.0 -1.45 1.0 -1.25" fill="#ffbb3c" fill-rule="evenodd" stroke="none"/>
    </g>
    <g id="shape2" transform="matrix(1.0, 0.0, 0.0, 1.0, 1.2, 2.25)">
      <path d="M0.4 -1.7 L0.4 -1.75 Q0.2 -1.65 0.0 -1.55 -0.65 -1.2 -0.7 -0.85 L-0.6 -0.65 -0.65 -0.6 Q-0.6 -0.55 -0.5 -0.5 L-0.35 -0.45 Q-0.2 -0.45 0.15 -0.95 0.25 -1.15 0.35 -1.3 0.45 -1.5 0.45 -1.55 L0.4 -1.7 M0.65 -0.9 Q0.4 -0.7 0.25 -0.35 L0.25 -0.3 Q0.45 -0.4 0.6 -0.6 0.65 -0.75 0.7 -0.95 L0.65 -0.9 M0.8 -1.05 L0.75 -0.85 Q0.65 -0.5 0.5 -0.3 0.3 -0.1 -0.1 -0.15 -0.7 -0.25 -0.9 -0.75 -1.0 -1.0 -1.0 -1.4 L-0.95 -1.5 -0.9 -1.7 -0.8 -1.75 Q-0.6 -1.95 -0.4 -2.0 L0.0 -2.0 Q0.1 -1.95 0.25 -1.9 0.55 -1.8 0.65 -1.5 0.7 -1.4 0.75 -1.25 L0.75 -1.15 0.8 -1.05 M-0.05 -1.9 Q-0.35 -1.95 -0.6 -1.75 -0.8 -1.55 -0.85 -1.2 L-0.85 -1.25 Q-0.85 -1.15 -0.8 -1.15 -0.65 -1.1 -0.35 -1.5 -0.15 -1.7 -0.05 -1.9" fill="#ffffff" fill-rule="evenodd" stroke="none"/>
      <path d="M0.65 -0.9 L0.7 -0.95 Q0.65 -0.75 0.6 -0.6 0.45 -0.4 0.25 -0.3 L0.25 -0.35 Q0.4 -0.7 0.65 -0.9 M0.4 -1.7 L0.45 -1.55 Q0.45 -1.5 0.35 -1.3 0.25 -1.15 0.15 -0.95 -0.2 -0.45 -0.35 -0.45 L-0.5 -0.5 Q-0.6 -0.55 -0.65 -0.6 L-0.6 -0.65 -0.7 -0.85 Q-0.65 -1.2 0.0 -1.55 0.2 -1.65 0.4 -1.75 L0.4 -1.7 M-0.05 -1.9 Q-0.15 -1.7 -0.35 -1.5 -0.65 -1.1 -0.8 -1.15 -0.85 -1.15 -0.85 -1.25 L-0.85 -1.2 Q-0.8 -1.55 -0.6 -1.75 -0.35 -1.95 -0.05 -1.9" fill="#fff25b" fill-rule="evenodd" stroke="none"/>
      <path d="M0.8 -1.05 L0.8 -0.95 Q0.8 -0.85 0.8 -0.7 L0.8 -0.5 Q0.8 -0.4 0.75 -0.3 0.7 -0.15 0.55 -0.05 0.3 0.3 -0.15 0.25 -0.55 0.15 -0.75 -0.05 -0.95 -0.25 -1.0 -0.6 -1.05 -0.85 -1.05 -1.05 -1.05 -1.25 -1.0 -1.4 L-1.0 -1.5 -0.95 -1.5 -1.0 -1.4 Q-1.0 -1.0 -0.9 -0.75 -0.7 -0.25 -0.1 -0.15 0.3 -0.1 0.5 -0.3 0.65 -0.5 0.75 -0.85 L0.8 -1.05" fill="#ffc53c" fill-rule="evenodd" stroke="none"/>
      <path d="M-0.95 -1.5 L-1.0 -1.5 -1.0 -1.4 Q-1.05 -1.25 -1.05 -1.05 -1.05 -0.85 -1.0 -0.6 -0.95 -0.25 -0.75 -0.05 -0.55 0.15 -0.15 0.25 0.3 0.3 0.55 -0.05 0.7 -0.15 0.75 -0.3 0.8 -0.4 0.8 -0.5 L0.8 -0.7 Q0.8 -0.85 0.8 -0.95 L0.8 -1.05 0.75 -1.15 0.75 -1.25 Q0.7 -1.4 0.65 -1.5 0.55 -1.8 0.25 -1.9 0.1 -1.95 0.0 -2.0 L-0.4 -2.0 Q-0.6 -1.95 -0.8 -1.75 L-0.9 -1.7 -0.95 -1.5 M0.95 -0.7 L0.9 -0.55 Q0.9 -0.2 0.8 0.05 L0.75 0.1 Q0.7 0.25 0.55 0.35 0.25 0.65 -0.15 0.6 -0.65 0.5 -0.95 -0.05 -1.05 -0.25 -1.15 -0.5 -1.2 -0.7 -1.2 -0.8 L-1.15 -0.9 Q-1.2 -0.95 -1.15 -1.05 -1.15 -1.4 -1.1 -1.6 -1.05 -1.75 -0.95 -1.85 -0.9 -1.9 -0.8 -2.0 -0.55 -2.25 -0.15 -2.25 0.4 -2.1 0.65 -1.85 L0.9 -1.45 Q0.95 -1.3 0.95 -1.05 0.95 -0.9 0.95 -0.7" fill="#ffbb3c" fill-rule="evenodd" stroke="none"/>
    </g>
  </defs>
</svg>
