<?xml version="1.0" encoding="UTF-8" standalone="no"?>
<svg xmlns:ffdec="https://www.free-decompiler.com/flash" xmlns:xlink="http://www.w3.org/1999/xlink" ffdec:objectType="frame" height="415.9px" width="483.4px" xmlns="http://www.w3.org/2000/svg">
  <g transform="matrix(1.0, 0.0, 0.0, 1.0, 0.05, 0.0)">
    <use ffdec:characterId="1155" height="779.3" transform="matrix(-0.4994, -0.0173, -0.0178, 0.5128, 483.3724, 16.2588)" width="940.15" xlink:href="#sprite0"/>
  </g>
  <defs>
    <g id="sprite0" transform="matrix(1.0, 0.0, 0.0, 1.0, -17.35, -0.7)">
      <use ffdec:characterId="1154" height="779.3" transform="matrix(1.0, 0.0, 0.0, 1.0, 17.35, 0.7)" width="940.15" xlink:href="#shape0"/>
    </g>
    <g id="shape0" transform="matrix(1.0, 0.0, 0.0, 1.0, -17.35, -0.7)">
      <path d="M642.2 2.2 L633.35 6.65 Q633.35 4.8 635.95 3.5 638.55 2.2 642.2 2.2 M583.05 51.6 Q591.4 41.3 616.4 23.95 636.75 9.8 643.5 6.65 633.05 19.45 627.05 39.95 622.85 54.1 622.85 60.6 622.85 61.35 623.2 63.4 623.55 65.45 623.85 66.5 623.15 73.55 626.7 77.45 L629.95 80.35 Q632.0 82.1 633.0 83.55 L635.6 90.05 Q638.4 97.45 641.5 104.2 L631.0 131.85 612.2 161.1 610.85 162.0 Q593.6 173.1 586.15 184.1 L584.45 186.9 569.95 201.6 568.9 202.55 Q566.75 195.1 575.65 184.4 579.1 180.25 596.45 163.65 611.15 149.6 617.5 139.85 626.75 125.6 625.0 112.45 622.25 124.5 619.8 128.75 L614.0 136.45 577.75 176.5 Q568.85 179.95 565.3 180.9 558.6 182.7 551.1 182.7 L538.15 180.75 Q537.65 180.75 536.75 182.05 535.8 183.35 535.3 183.35 534.7 183.35 532.9 182.65 L531.25 181.9 Q546.3 154.6 574.9 118.1 L591.85 96.5 Q598.65 87.55 598.65 85.45 L598.5 83.35 597.55 83.25 Q594.85 83.25 568.0 110.85 541.2 138.4 537.7 138.4 534.1 138.4 527.05 133.6 520.15 128.85 520.15 126.75 520.15 121.85 522.4 118.6 L532.65 104.9 Q539.35 95.35 563.3 74.0 573.45 65.0 577.35 60.85 583.2 54.6 583.05 51.6 M625.6 69.4 L628.9 74.65 Q627.55 74.65 626.6 73.1 625.6 71.55 625.6 69.4 M638.6 93.65 L639.1 94.75 638.75 94.45 638.6 93.65 M633.1 106.15 Q633.6 101.85 632.9 99.8 L632.5 110.05 633.1 106.15 M608.3 106.1 L608.4 106.35 609.15 106.45 609.85 105.75 610.25 104.4 608.3 106.1 M474.95 111.5 Q476.65 110.55 477.4 110.75 L477.8 112.1 477.65 112.2 478.2 112.3 479.05 111.7 Q479.8 111.1 480.45 110.95 482.75 111.4 484.85 115.25 487.1 119.45 487.1 124.55 487.1 127.65 478.95 141.15 469.6 156.55 461.3 163.1 L421.8 194.35 Q418.25 197.0 416.9 197.45 L414.05 197.55 Q413.4 197.55 412.95 197.15 L412.1 196.15 Q413.8 193.0 414.25 190.15 L414.4 187.15 Q414.4 181.2 418.9 173.65 425.2 162.95 440.9 147.75 456.3 132.85 465.4 122.05 L473.25 112.65 474.95 111.5 M593.25 207.55 L595.75 208.3 Q600.5 215.95 600.5 216.95 600.5 217.95 599.9 220.5 L562.15 255.9 Q570.6 226.55 575.75 220.05 578.05 217.2 582.65 214.35 L593.25 207.55" fill="#797979" fill-rule="evenodd" stroke="none"/>
      <path d="M851.9 112.3 L855.3 120.15 858.3 128.15 Q859.05 132.45 859.0 134.2 L858.75 138.45 Q858.5 147.9 862.45 181.05 857.05 202.7 864.2 230.75 867.9 245.35 874.0 260.5 877.45 273.85 887.6 286.95 896.5 298.45 906.6 305.1 L925.15 324.7 942.5 378.3 Q949.05 398.45 951.15 408.05 953.85 420.45 953.85 433.85 953.85 440.1 953.1 453.0 L951.45 486.9 951.3 492.4 945.25 547.35 945.05 581.15 937.1 688.55 938.45 716.3 Q940.3 748.4 943.0 770.4 936.65 765.5 934.6 751.05 932.3 735.25 932.3 691.3 932.3 681.9 941.5 578.1 950.65 474.3 950.65 437.8 950.65 417.8 945.4 400.55 937.35 377.65 931.8 356.7 929.0 346.15 921.9 330.25 L923.0 331.2 923.5 331.25 Q923.7 331.25 923.7 330.65 923.7 327.85 919.3 321.2 916.0 316.2 912.15 311.8 L910.7 310.2 883.65 286.3 878.35 278.55 Q878.35 274.7 876.35 272.0 874.3 269.25 871.4 269.25 866.8 263.1 862.5 258.55 859.15 255.05 858.05 253.2 856.8 251.1 856.9 248.35 857.25 245.4 857.1 244.0 856.55 239.15 845.45 235.6 L842.05 234.95 841.4 224.7 841.25 220.5 826.6 222.0 802.25 194.25 795.0 193.45 777.5 192.85 Q779.2 191.7 787.95 191.2 L796.35 190.9 803.5 193.2 809.3 197.4 818.1 209.45 824.9 216.2 835.0 217.6 841.5 218.1 Q843.05 219.4 843.45 222.45 L843.5 225.2 843.0 232.25 846.2 232.85 Q853.9 234.05 856.7 235.9 858.85 237.35 859.2 240.3 L859.95 246.5 Q861.15 250.9 865.3 255.15 866.3 250.1 866.3 249.1 L861.8 241.3 Q857.3 233.15 857.3 227.65 L858.2 220.2 Q859.1 212.9 859.1 205.9 L859.05 200.7 852.95 138.85 Q854.25 132.95 847.8 119.95 L839.75 105.25 Q836.25 109.4 826.55 117.95 814.9 128.2 802.85 137.15 768.75 162.25 750.75 162.25 747.0 162.25 735.85 151.85 724.4 141.2 715.75 129.3 715.3 128.7 713.55 123.65 L711.4 117.55 Q710.5 115.55 703.75 104.3 698.5 95.55 698.25 92.0 L696.6 77.0 Q692.65 67.8 687.4 65.0 685.9 64.25 683.7 63.75 L681.1 62.9 Q674.85 58.6 670.4 52.35 665.2 34.65 661.65 24.9 L659.2 18.7 Q659.2 13.7 654.6 10.2 650.0 6.65 643.5 6.65 636.75 9.8 616.4 23.95 591.4 41.3 583.05 51.6 L562.85 68.8 532.2 92.15 Q521.9 99.1 511.1 104.55 495.9 112.2 488.0 112.2 L485.7 111.3 Q482.9 110.1 477.95 109.15 478.25 105.35 477.6 104.0 477.3 103.35 476.8 103.35 476.15 103.35 465.3 113.9 L447.25 131.65 423.95 154.6 Q402.9 174.65 380.7 192.05 L376.05 195.05 369.15 197.25 385.0 204.2 453.9 238.7 Q465.65 242.5 483.45 250.5 504.8 260.1 518.35 268.7 L538.9 287.7 Q540.45 288.8 543.95 290.1 547.2 291.35 548.1 291.35 549.1 291.35 551.5 290.2 L552.3 290.35 554.9 288.4 557.45 286.85 Q569.35 279.65 585.1 265.2 588.8 263.75 590.35 263.75 L596.9 265.55 Q596.8 266.05 595.5 266.55 L598.25 268.35 Q601.1 270.15 601.7 270.15 609.35 270.15 632.45 259.1 652.8 249.4 660.9 243.65 L730.55 198.05 738.9 194.3 Q745.2 191.55 752.65 190.45 L766.7 189.55 776.15 190.4 Q761.05 190.2 743.85 197.25 730.2 202.85 709.4 215.75 L668.85 241.5 Q641.95 258.25 618.2 270.15 L609.55 272.7 Q604.45 273.6 597.95 272.85 592.5 272.2 590.35 271.15 L591.0 270.75 592.05 270.35 593.05 270.1 593.65 269.95 593.65 269.85 591.65 269.9 555.2 293.75 549.7 294.15 546.5 294.25 548.5 292.95 548.3 292.7 536.2 286.25 Q527.05 281.05 525.55 278.65 L520.6 272.8 Q494.85 258.05 441.45 233.25 L357.15 194.9 356.4 194.65 349.15 194.05 343.55 193.75 Q330.3 193.5 327.6 193.6 L310.1 195.2 296.85 195.95 Q292.35 196.1 290.85 196.75 289.05 197.5 286.05 200.85 L276.5 211.75 258.0 229.55 216.0 272.85 192.0 303.75 170.4 328.95 Q164.55 335.55 161.75 336.55 158.0 347.75 156.1 352.3 L154.9 354.55 Q153.9 354.35 153.65 353.9 143.4 367.8 127.7 399.6 110.8 433.75 101.2 448.1 L86.85 469.7 Q79.9 480.8 75.95 490.8 66.55 514.6 64.85 558.95 64.4 558.85 63.8 557.15 62.65 567.2 55.6 582.5 48.55 597.9 41.7 605.2 33.0 619.0 29.35 627.65 L28.0 631.1 27.95 631.25 Q24.55 641.15 24.55 656.2 24.55 657.2 25.4 662.35 L30.2 646.55 39.0 642.35 36.55 646.15 Q31.15 657.05 27.2 677.8 25.2 688.2 24.3 696.4 L23.45 698.05 23.25 696.9 23.3 695.3 24.2 687.95 26.1 674.7 26.45 672.35 26.4 672.15 23.95 671.65 22.3 675.2 18.25 769.25 Q19.95 769.3 21.7 770.85 L23.8 773.15 23.9 773.55 Q23.15 773.8 21.5 772.75 L19.9 771.65 Q19.4 771.65 19.25 772.05 L18.55 772.45 17.85 772.35 17.7 772.25 Q17.35 769.55 17.35 768.4 17.35 699.8 22.4 657.5 25.4 632.1 28.55 625.0 31.2 618.95 38.3 608.1 46.8 595.05 50.1 588.9 64.2 562.9 63.5 532.75 L62.45 534.2 62.0 534.25 61.4 534.2 61.5 534.1 Q64.75 517.1 73.75 492.9 81.55 471.95 86.6 463.2 99.2 450.75 119.15 411.0 130.75 387.5 137.1 374.9 148.3 352.65 157.5 336.7 165.95 320.05 183.25 301.25 198.1 285.1 209.95 277.0 L210.15 276.75 Q210.15 276.45 209.55 276.05 212.5 272.65 215.25 268.7 L217.35 265.45 242.55 238.35 Q256.7 222.9 267.35 212.65 287.55 193.3 296.2 192.7 L315.0 193.9 333.9 192.75 349.5 191.2 Q353.25 191.2 356.75 192.6 L361.8 194.55 Q367.15 195.65 377.5 186.3 391.7 176.75 414.75 155.85 436.75 135.9 462.0 110.1 L467.6 105.25 Q474.55 99.45 481.0 95.0 L481.7 102.25 Q486.1 105.9 491.1 105.9 501.3 105.9 520.0 95.5 542.75 82.85 568.1 59.45 L615.4 18.65 633.35 6.65 642.2 2.2 649.15 0.7 Q658.0 0.7 662.85 9.0 667.65 17.2 670.5 37.15 670.5 47.9 675.6 55.5 680.7 63.05 687.9 63.05 695.45 65.05 698.25 68.3 700.3 70.7 701.35 76.65 702.9 85.55 704.25 89.8 707.35 99.3 714.1 109.55 716.1 114.1 717.9 120.75 719.4 126.2 721.05 128.95 725.9 136.95 749.9 153.15 L752.55 155.25 755.15 155.4 Q759.45 154.95 768.2 152.2 786.5 145.2 803.35 132.75 818.8 121.3 831.45 106.6 L838.5 99.3 845.3 104.7 851.9 112.3 M594.2 203.15 L599.55 208.25 Q605.35 213.9 607.6 216.45 L604.9 213.85 596.25 207.7 593.05 205.8 Q588.95 203.85 585.9 200.8 582.05 197.0 582.05 193.3 582.1 192.4 582.65 190.85 583.3 188.95 584.45 186.9 L586.15 184.1 Q593.6 173.1 610.85 162.0 L612.2 161.1 631.0 131.85 Q635.6 126.25 638.7 117.35 641.35 109.65 641.5 104.2 638.4 97.45 635.6 90.05 L633.0 83.55 Q632.0 82.1 629.95 80.35 L626.7 77.45 Q623.15 73.55 623.85 66.5 L647.75 10.25 625.6 69.4 Q625.6 71.55 626.6 73.1 627.55 74.65 628.9 74.65 632.9 74.65 635.75 80.25 638.6 85.8 638.6 93.65 L638.75 94.45 639.1 94.75 642.2 97.6 Q643.5 99.85 643.5 107.4 643.5 128.95 613.8 160.05 L593.4 180.45 Q584.1 190.0 584.1 193.45 584.1 194.1 589.15 198.7 L594.2 203.15 M793.85 225.55 Q805.35 256.45 820.6 307.25 834.65 354.2 834.65 358.65 834.65 366.9 831.5 372.1 829.45 375.45 823.25 380.95 816.0 387.35 811.95 392.45 L811.2 393.45 Q816.85 384.9 822.95 377.1 828.45 369.95 829.9 367.4 832.25 363.25 832.25 358.8 832.25 354.55 831.1 351.75 L828.5 347.2 Q824.35 340.65 823.45 328.9 823.05 323.95 819.4 313.4 L810.95 290.65 Q797.7 254.65 792.6 226.3 L793.85 225.55 M843.0 475.5 L813.65 509.7 Q805.35 526.5 804.35 528.95 800.6 538.65 795.05 562.3 794.2 565.95 792.55 579.95 789.8 595.9 783.1 613.0 L782.2 613.85 781.15 614.5 Q779.8 615.2 779.8 614.2 779.8 605.05 792.4 561.7 L806.6 514.6 Q809.35 505.1 821.35 492.05 833.55 478.75 843.0 475.5 M840.85 547.0 L842.25 543.75 840.05 614.35 Q839.1 611.65 837.85 600.85 L836.75 590.45 837.35 575.2 837.9 575.2 Q840.7 556.05 840.75 549.1 L840.85 547.0 M792.05 439.6 Q779.65 460.25 772.0 489.85 766.65 510.6 762.3 542.9 756.65 584.3 755.6 590.15 751.4 613.1 744.7 623.0 746.4 612.9 748.0 607.3 L750.45 599.45 Q753.25 589.4 757.2 549.85 759.15 529.95 767.9 498.3 776.7 466.4 783.8 453.75 L795.0 420.65 Q799.2 412.75 803.65 405.35 801.5 409.4 799.55 414.0 L792.05 439.6 M861.5 660.0 L860.75 662.6 841.45 617.2 Q849.1 628.25 856.15 643.45 861.95 655.95 861.95 657.85 L861.5 660.0 M293.95 568.55 Q301.5 552.2 305.95 527.15 308.55 512.5 310.7 489.55 312.25 472.9 333.2 445.0 L348.7 425.5 Q356.6 415.75 358.25 412.6 356.6 420.55 354.75 424.7 352.25 430.35 346.75 436.3 L320.95 471.15 Q315.75 481.35 313.1 494.75 310.65 506.9 311.1 516.95 311.75 526.0 309.2 535.9 306.85 544.95 302.45 552.65 299.95 557.05 297.9 568.4 296.1 578.45 293.0 581.75 L293.95 568.55 M454.0 355.1 Q431.3 358.75 395.45 381.85 382.45 390.2 371.45 398.75 361.7 406.35 359.95 408.9 361.55 402.5 372.05 393.6 382.0 385.1 397.45 376.4 432.0 357.0 463.0 351.5 455.9 354.6 454.0 355.1 M475.0 346.25 Q478.35 340.35 486.05 335.1 491.6 331.25 502.85 325.8 L523.1 315.85 Q535.3 309.4 544.35 302.6 555.95 295.1 556.0 295.65 L549.2 302.15 541.15 307.55 Q515.2 323.75 474.5 351.6 L473.5 352.25 473.55 352.1 475.0 346.25 M616.5 241.9 L614.75 248.75 611.4 221.75 Q613.15 224.6 615.1 230.7 616.95 236.45 616.95 238.35 L616.5 241.9 M574.25 277.15 L575.8 275.7 573.75 277.5 574.25 277.15 M234.9 506.25 Q242.05 499.2 242.8 489.75 243.05 486.55 242.7 480.65 L242.3 470.15 Q242.3 452.0 252.3 417.5 260.7 388.4 267.6 374.2 300.7 306.1 306.7 292.7 309.95 285.5 310.5 283.0 L310.65 279.45 Q310.65 268.65 303.6 252.6 L298.7 241.9 Q296.5 236.85 296.5 234.85 296.5 233.15 297.15 231.7 298.45 228.7 302.75 223.65 L304.05 222.5 305.05 221.85 Q305.7 221.85 305.85 222.1 L306.0 222.6 302.55 227.85 Q299.1 233.25 299.1 233.85 312.3 266.1 312.9 268.45 L313.45 272.15 313.65 275.25 Q313.65 284.75 297.9 319.35 286.8 343.65 273.8 368.35 265.55 384.0 254.65 420.35 244.35 454.75 244.35 463.35 L245.05 468.1 Q245.75 473.3 245.75 476.25 245.75 488.75 236.05 512.8 231.0 525.45 223.5 542.35 222.4 545.5 221.75 554.9 221.0 565.0 218.75 572.9 L211.65 591.6 Q209.75 596.45 208.5 600.15 L211.4 588.45 Q218.5 560.4 218.65 555.2 222.55 537.05 224.35 531.5 226.5 524.8 234.9 506.25 M206.65 627.95 Q206.65 631.9 205.25 643.6 203.6 657.05 201.35 669.35 195.05 704.05 188.65 704.05 L187.75 703.9 187.55 703.75 Q188.0 698.75 190.85 691.2 L196.55 675.9 Q204.35 652.3 204.35 619.55 204.35 618.0 205.9 611.15 L206.65 627.95" fill="#333333" fill-rule="evenodd" stroke="none"/>
      <path d="M851.9 112.3 L845.3 104.7 848.4 107.65 Q851.0 110.5 851.9 112.3 M831.45 106.6 Q818.8 121.3 803.35 132.75 786.5 145.2 768.2 152.2 782.3 144.35 803.75 128.0 L831.45 106.6 M749.9 153.15 Q725.9 136.95 721.05 128.95 719.4 126.2 717.9 120.75 716.1 114.1 714.1 109.55 725.95 128.55 729.85 133.3 733.8 138.1 749.9 153.15 M687.9 63.05 Q680.7 63.05 675.6 55.5 670.5 47.9 670.5 37.15 673.3 48.75 678.1 54.75 680.7 58.0 687.9 63.05 M568.1 59.45 Q542.75 82.85 520.0 95.5 501.3 105.9 491.1 105.9 486.1 105.9 481.7 102.25 L497.8 101.65 Q504.2 101.8 508.85 100.0 515.15 97.55 527.9 88.8 539.95 80.55 568.1 59.45 M462.0 110.1 Q436.75 135.9 414.75 155.85 391.7 176.75 377.5 186.3 L462.0 110.1 M315.0 193.9 L296.2 192.7 Q297.8 192.05 304.85 190.6 307.05 190.6 310.9 192.1 313.6 193.1 315.0 193.9 M209.55 276.05 Q210.15 276.45 210.15 276.75 L209.95 277.0 209.55 276.05 M157.5 336.7 Q148.3 352.65 137.1 374.9 130.75 387.5 119.15 411.0 99.2 450.75 86.6 463.2 117.4 400.5 128.2 381.8 133.45 372.75 140.65 361.9 L157.5 336.7 M23.8 773.15 L21.7 770.85 Q19.95 769.3 18.25 769.25 L22.3 675.2 24.4 679.1 26.1 674.7 24.2 687.95 23.3 695.3 23.25 696.9 23.45 698.05 24.3 696.4 24.75 698.75 Q26.95 696.35 33.1 679.55 40.15 660.4 40.85 650.0 L40.85 646.9 36.55 646.15 39.0 642.35 30.2 646.55 27.65 641.9 27.45 642.95 Q27.1 640.0 27.1 639.0 27.1 634.5 27.95 631.25 L28.0 631.1 29.35 627.65 29.6 627.2 Q31.1 624.85 37.65 618.85 37.7 625.8 40.7 627.85 42.25 628.85 43.85 628.5 53.05 628.5 58.75 620.2 79.3 590.3 92.4 565.35 101.1 547.0 101.45 547.0 102.45 547.0 105.55 548.85 125.45 514.6 146.6 489.75 L156.6 477.5 Q159.85 472.6 159.85 467.8 159.85 464.7 158.15 459.35 156.4 453.95 156.4 451.1 L157.25 442.5 Q157.25 440.35 149.3 438.4 L141.2 436.85 Q134.95 436.85 130.65 439.5 126.05 442.25 119.05 450.6 L119.2 450.35 Q122.7 444.25 127.7 438.7 137.25 428.1 145.95 428.1 146.45 428.1 151.85 430.45 157.3 432.8 160.15 432.8 L163.6 432.55 168.35 431.8 168.95 458.4 Q173.15 454.15 178.25 444.2 L188.55 422.55 Q204.55 388.1 220.3 366.15 222.5 363.1 236.0 346.55 250.95 328.2 260.1 316.2 291.9 274.3 291.9 259.7 291.9 255.7 289.7 250.8 L287.45 246.6 291.45 237.75 Q295.75 228.4 296.8 223.65 297.8 219.3 300.75 214.5 303.2 210.5 303.2 207.7 303.2 205.45 302.4 204.3 301.3 202.65 298.3 202.65 295.5 202.65 288.6 205.25 280.65 208.2 276.5 211.75 L286.05 200.85 Q289.05 197.5 290.85 196.75 292.35 196.1 296.85 195.95 L310.1 195.2 327.6 193.6 Q330.3 193.5 343.55 193.75 L349.15 194.05 356.4 194.65 Q356.3 195.45 355.55 196.45 354.0 198.45 350.55 199.5 L337.7 214.7 381.5 256.1 Q378.5 261.25 369.75 264.35 359.4 267.25 354.8 269.25 347.85 272.25 341.95 275.6 L336.35 278.95 Q333.9 280.4 331.0 285.2 327.35 291.1 328.0 295.75 336.25 284.0 339.3 281.25 347.35 274.15 359.9 274.15 L362.8 274.25 434.25 326.0 Q416.2 333.95 398.25 342.55 362.5 359.6 356.7 366.45 354.55 369.0 348.8 385.3 342.9 402.0 341.95 403.35 L330.45 419.85 Q321.85 432.6 315.65 444.25 297.4 478.3 297.4 506.0 L297.75 513.35 298.65 527.15 299.2 535.85 Q299.2 542.05 296.75 553.8 294.3 565.65 291.55 572.35 L293.95 568.55 293.0 581.75 Q296.1 578.45 297.9 568.4 299.95 557.05 302.45 552.65 306.85 544.95 309.2 535.9 311.75 526.0 311.1 516.95 314.5 508.05 317.0 498.5 319.3 489.75 321.3 485.0 327.85 469.3 360.65 420.4 358.0 431.05 352.2 439.6 L341.2 453.5 Q334.3 462.1 330.5 470.65 325.25 482.55 323.1 499.65 321.3 513.65 318.8 527.3 316.35 540.75 314.9 544.45 L302.7 575.6 Q299.35 585.8 299.35 598.3 L299.5 603.8 302.6 603.85 Q313.1 603.85 327.7 561.7 331.25 551.6 338.2 529.05 L340.5 521.65 Q336.9 535.9 333.7 560.25 329.5 592.0 329.5 600.85 L334.8 600.85 Q340.6 599.9 343.35 598.95 347.1 597.65 349.75 595.15 355.05 590.1 361.8 572.9 369.35 553.7 391.55 512.65 400.7 495.75 404.15 488.35 409.35 477.3 409.35 472.8 L408.2 469.25 Q407.0 465.0 407.0 461.05 407.0 456.7 411.65 450.1 416.25 443.5 416.25 439.75 L414.8 433.5 Q413.3 427.75 413.3 427.25 413.3 421.6 425.15 415.05 432.35 411.05 439.95 408.5 444.3 407.0 454.8 400.75 465.05 394.65 468.75 391.5 L532.55 336.55 Q578.95 296.0 580.3 292.25 L580.15 291.1 Q532.95 321.5 507.7 334.15 488.45 343.8 474.5 351.6 515.2 323.75 541.15 307.55 L549.2 302.15 556.0 295.65 Q555.95 295.1 544.35 302.6 546.0 301.0 546.0 300.4 544.3 300.45 540.05 299.15 531.5 296.5 518.75 289.25 515.85 287.6 514.55 284.6 512.25 279.3 508.2 273.95 L509.1 278.55 Q506.6 272.4 502.15 268.85 500.15 267.25 494.3 264.3 L440.35 241.6 432.7 237.1 Q424.4 232.3 418.05 229.55 L402.1 224.6 384.3 219.15 Q376.5 216.25 366.4 209.8 359.9 205.65 356.5 206.75 356.35 204.95 354.4 203.3 L352.5 202.0 Q356.55 198.25 358.2 197.8 L358.75 197.4 Q358.75 196.75 357.15 194.9 L441.45 233.25 Q494.85 258.05 520.6 272.8 520.6 275.2 522.05 276.95 523.5 278.65 525.55 278.65 527.05 281.05 536.2 286.25 L548.3 292.7 548.5 292.95 546.5 294.25 549.7 294.15 555.2 293.75 591.65 269.9 592.05 270.35 591.0 270.75 590.35 271.15 Q592.5 272.2 597.95 272.85 604.45 273.6 609.55 272.7 L611.6 272.65 Q614.4 272.15 618.2 270.15 641.95 258.25 668.85 241.5 L709.4 215.75 Q730.2 202.85 743.85 197.25 761.05 190.2 776.15 190.4 L766.7 189.55 752.65 190.45 Q745.2 191.55 738.9 194.3 L753.45 183.05 Q751.0 179.85 750.0 179.85 L748.3 180.05 747.1 180.1 Q749.0 176.1 744.3 168.1 739.15 159.25 730.25 154.55 719.5 148.85 717.2 146.5 713.45 142.65 711.35 132.6 709.95 125.75 706.95 116.65 L704.15 108.35 Q703.8 106.65 702.0 105.5 699.85 104.4 698.85 103.65 695.25 100.8 698.25 92.0 698.5 95.55 703.75 104.3 710.5 115.55 711.4 117.55 L713.55 123.65 Q715.3 128.7 715.75 129.3 724.4 141.2 735.85 151.85 747.0 162.25 750.75 162.25 768.75 162.25 802.85 137.15 814.9 128.2 826.55 117.95 836.25 109.4 839.75 105.25 L847.8 119.95 Q854.25 132.95 852.95 138.85 852.6 134.35 849.15 131.0 846.1 128.0 843.25 128.0 840.15 128.0 839.55 128.95 838.45 131.9 836.55 135.85 827.45 154.65 796.35 190.9 L787.95 191.2 Q779.2 191.7 777.5 192.85 L795.0 193.45 796.85 194.65 Q799.3 195.6 802.25 194.25 L826.6 222.0 841.25 220.5 841.4 224.7 Q838.05 220.5 834.55 223.5 831.4 226.25 831.4 230.85 831.4 231.9 832.7 233.2 834.8 235.35 841.45 240.0 L842.05 234.95 845.45 235.6 844.95 245.6 Q844.95 272.2 853.8 295.5 857.6 305.5 862.1 311.8 866.55 318.05 870.45 318.95 L868.0 311.85 Q875.3 316.1 880.75 317.65 884.95 318.85 889.85 318.85 894.3 318.85 898.2 317.9 L905.25 315.7 921.9 330.25 Q929.0 346.15 931.8 356.7 937.35 377.65 945.4 400.55 950.65 417.8 950.65 437.8 950.65 474.3 941.5 578.1 932.3 681.9 932.3 691.3 932.3 735.25 934.6 751.05 936.65 765.5 943.0 770.4 L928.25 771.0 919.0 771.25 834.4 769.75 Q820.6 769.55 777.7 769.3 L736.65 769.05 Q686.25 769.05 550.0 774.55 L387.15 780.0 Q359.45 780.0 339.95 778.65 L310.65 775.65 Q275.05 771.25 230.1 771.25 L206.3 772.05 186.8 772.85 183.7 772.3 181.3 771.75 23.8 773.15 M41.7 605.2 Q48.55 597.9 55.6 582.5 62.65 567.2 63.8 557.15 64.4 558.85 64.85 558.95 66.55 514.6 75.95 490.8 79.9 480.8 86.85 469.7 L101.2 448.1 Q110.8 433.75 127.7 399.6 143.4 367.8 153.65 353.9 153.9 354.35 154.9 354.55 L156.1 352.3 Q158.0 347.75 161.75 336.55 164.55 335.55 170.4 328.95 L192.0 303.75 167.9 337.4 Q136.8 383.95 116.35 428.35 108.2 446.0 103.85 458.95 99.85 471.0 100.45 474.65 L95.7 483.75 Q91.25 492.55 87.7 500.75 76.55 526.65 73.95 547.8 72.75 557.45 63.0 576.2 54.7 592.15 41.95 611.55 L41.7 605.2 M585.1 265.2 Q569.35 279.65 557.45 286.85 L554.9 288.4 585.1 265.2 M551.5 290.2 Q549.1 291.35 548.1 291.35 547.2 291.35 543.95 290.1 540.45 288.8 538.9 287.7 L551.5 290.2 M518.35 268.7 Q504.8 260.1 483.45 250.5 465.65 242.5 453.9 238.7 475.55 244.95 495.3 254.3 514.35 263.3 518.35 268.7 M385.0 204.2 L369.15 197.25 376.05 195.05 Q376.4 196.95 380.75 200.75 L385.0 204.2 M380.7 192.05 Q402.9 174.65 423.95 154.6 L447.25 131.65 465.3 113.9 Q476.15 103.35 476.8 103.35 477.3 103.35 477.6 104.0 478.25 105.35 477.95 109.15 482.9 110.1 485.7 111.3 L488.0 112.2 Q495.9 112.2 511.1 104.55 521.9 99.1 532.2 92.15 L562.85 68.8 583.05 51.6 Q583.2 54.6 577.35 60.85 573.45 65.0 563.3 74.0 539.35 95.35 532.65 104.9 L522.4 118.6 Q520.15 121.85 520.15 126.75 520.15 128.85 527.05 133.6 534.1 138.4 537.7 138.4 541.2 138.4 568.0 110.85 594.85 83.25 597.55 83.25 L598.5 83.35 598.65 85.45 Q598.65 87.55 591.85 96.5 L574.9 118.1 Q546.3 154.6 531.25 181.9 L532.9 182.65 Q534.7 183.35 535.3 183.35 535.8 183.35 536.75 182.05 537.65 180.75 538.15 180.75 L551.1 182.7 Q558.6 182.7 565.3 180.9 568.85 179.95 577.75 176.5 L614.0 136.45 619.8 128.75 Q622.25 124.5 625.0 112.45 626.75 125.6 617.5 139.85 611.15 149.6 596.45 163.65 579.1 180.25 575.65 184.4 566.75 195.1 568.9 202.55 L569.95 201.6 584.45 186.9 Q583.3 188.95 582.65 190.85 582.1 192.4 582.05 193.3 582.05 197.0 585.9 200.8 588.95 203.85 593.05 205.8 L593.25 207.55 582.65 214.35 Q578.05 217.2 575.75 220.05 570.6 226.55 562.15 255.9 L599.9 220.5 Q600.5 217.95 600.5 216.95 600.5 215.95 595.75 208.3 L596.25 207.7 604.9 213.85 Q605.75 217.05 605.55 218.85 L605.15 220.7 605.55 223.15 605.9 225.55 Q605.9 231.65 600.1 238.25 595.65 243.35 586.15 250.35 574.75 258.35 569.2 262.45 559.5 269.7 554.55 275.35 L552.95 271.8 Q551.35 268.4 551.35 267.8 551.35 266.8 559.0 234.65 555.8 233.05 541.2 231.4 L527.25 230.1 Q509.15 240.05 493.15 240.05 485.55 240.05 473.55 233.8 462.4 227.95 458.75 223.1 455.8 219.15 440.7 215.9 425.1 213.15 422.7 212.3 400.2 204.35 380.7 192.05 M643.5 6.65 Q650.0 6.65 654.6 10.2 659.2 13.7 659.2 18.7 L658.6 18.0 Q656.45 19.45 653.15 25.55 649.95 31.4 649.15 34.9 648.65 37.0 646.75 40.8 L643.05 48.1 Q638.1 58.3 638.1 66.05 638.1 68.8 638.8 78.85 L644.55 78.65 Q646.1 78.65 647.15 86.95 L648.1 97.45 Q648.4 101.35 649.65 104.2 L652.95 110.65 Q659.15 122.95 665.5 148.75 662.95 156.3 657.2 164.05 653.85 168.6 646.5 176.65 639.65 184.15 637.2 187.7 633.25 193.5 633.25 198.35 633.25 198.9 642.35 228.5 L628.85 241.15 Q627.4 235.5 625.75 230.25 622.5 219.9 619.3 215.6 L614.7 209.6 Q612.1 206.35 609.5 204.1 L597.0 193.3 Q593.1 190.05 592.6 190.05 592.05 190.05 591.75 192.55 L591.55 195.2 Q591.55 200.5 594.2 203.15 L589.15 198.7 Q584.1 194.1 584.1 193.45 584.1 190.0 593.4 180.45 L613.8 160.05 Q643.5 128.95 643.5 107.4 643.5 99.85 642.2 97.6 L639.1 94.75 638.6 93.65 Q638.6 85.8 635.75 80.25 632.9 74.65 628.9 74.65 L625.6 69.4 647.75 10.25 623.85 66.5 Q623.55 65.45 623.2 63.4 622.85 61.35 622.85 60.6 622.85 54.1 627.05 39.95 633.05 19.45 643.5 6.65 M670.4 52.35 Q674.85 58.6 681.1 62.9 L683.7 63.75 Q685.9 64.25 687.4 65.0 692.65 67.8 696.6 77.0 695.0 79.7 693.3 81.55 691.75 83.25 691.15 84.4 689.05 88.3 684.0 109.1 682.7 107.6 680.15 94.95 677.4 81.35 676.7 79.75 672.05 69.4 671.15 67.1 670.05 64.45 670.05 60.9 L670.4 52.35 M846.2 232.85 L843.0 232.25 843.5 225.2 846.2 232.85 M841.5 218.1 L835.0 217.6 839.05 213.5 841.5 218.1 M824.9 216.2 L818.1 209.45 Q821.55 211.8 823.6 214.25 L824.9 216.2 M809.3 197.4 L803.5 193.2 Q806.3 193.55 808.1 195.5 809.0 196.5 809.3 197.4 M871.4 269.25 Q874.3 269.25 876.35 272.0 878.35 274.7 878.35 278.55 L871.4 269.25 M951.45 486.9 L953.1 453.0 Q953.85 440.1 953.85 433.85 953.85 420.45 951.15 408.05 949.05 398.45 942.5 378.3 957.5 402.75 957.5 430.35 957.5 432.3 954.8 455.55 951.9 480.25 951.45 486.9 M906.6 305.1 Q896.5 298.45 887.6 286.95 877.45 273.85 874.0 260.5 L906.6 305.1 M862.45 181.05 Q858.5 147.9 858.75 138.45 L859.0 134.2 Q859.05 132.45 858.3 128.15 859.65 133.0 861.25 140.9 863.8 153.55 863.8 160.65 L863.45 168.65 862.45 181.05 M708.9 167.05 L710.55 170.0 706.55 172.9 705.85 171.75 708.9 167.05 M793.85 225.55 L792.6 226.3 Q797.7 254.65 810.95 290.65 L819.4 313.4 Q823.05 323.95 823.45 328.9 824.35 340.65 828.5 347.2 L831.1 351.75 Q832.25 354.55 832.25 358.8 832.25 363.25 829.9 367.4 828.45 369.95 822.95 377.1 816.85 384.9 811.2 393.45 L811.95 392.45 Q816.0 387.35 823.25 380.95 829.45 375.45 831.5 372.1 834.65 366.9 834.65 358.65 834.65 354.2 820.6 307.25 805.35 256.45 793.85 225.55 M776.45 205.1 Q772.4 202.5 767.55 200.95 763.75 199.75 761.75 199.75 755.05 199.75 748.9 202.6 744.05 204.85 735.0 211.3 718.2 223.2 714.2 225.9 698.6 236.4 680.7 246.6 L635.25 273.4 Q629.9 276.55 627.3 277.45 624.8 278.3 621.2 278.3 620.7 278.3 620.25 277.85 619.75 277.4 619.25 277.4 610.6 277.4 587.95 305.95 L569.3 330.0 Q558.5 343.85 552.35 350.25 558.25 356.45 574.8 362.2 590.85 367.75 601.6 367.75 619.3 367.75 629.35 363.4 637.5 359.9 647.9 349.5 L673.0 324.8 Q693.2 306.35 720.3 287.9 L682.25 329.85 Q688.5 341.15 700.65 341.15 L703.95 340.35 707.85 339.1 716.6 333.9 733.55 323.35 Q769.6 300.35 803.25 273.5 L788.25 225.45 Q788.2 212.6 776.45 205.1 M809.75 293.9 Q808.4 288.3 805.2 288.3 797.75 288.3 762.8 311.4 727.75 334.55 716.35 347.1 719.1 351.8 723.85 354.35 727.65 356.35 730.95 356.35 736.6 356.35 745.45 353.1 761.2 347.4 779.5 333.5 L773.95 346.25 791.75 347.25 Q798.2 347.25 809.75 334.85 815.55 328.65 820.05 322.3 820.05 317.55 818.2 314.5 815.7 310.35 810.2 310.35 L802.05 311.55 Q801.75 311.55 805.65 307.6 809.9 303.25 810.2 301.9 L810.45 299.6 Q810.45 296.7 809.75 293.9 M723.2 208.6 L706.95 218.75 712.0 215.95 Q718.1 212.4 723.2 208.6 M760.8 363.25 Q756.7 363.85 746.85 371.2 736.65 378.75 726.55 388.95 700.25 415.4 700.25 432.05 700.25 433.05 700.95 434.65 L709.35 426.25 709.95 431.65 Q717.3 428.5 741.3 402.15 L768.6 371.7 Q798.35 354.85 801.65 352.25 803.2 351.05 803.25 350.0 803.3 348.4 804.05 347.1 803.55 343.95 783.3 356.3 764.2 367.9 758.45 373.3 L760.8 363.25 M776.65 378.05 Q772.35 385.3 774.05 391.05 L748.25 434.6 Q752.9 444.6 763.4 444.6 769.6 444.6 776.6 436.95 786.05 426.6 798.5 401.25 802.7 392.65 816.85 374.2 828.95 358.45 828.95 355.55 828.95 351.75 826.4 349.1 824.0 346.6 820.95 346.6 819.65 346.6 814.25 348.9 807.45 351.75 800.65 355.95 L784.15 368.9 Q779.4 373.45 776.65 378.05 M860.8 356.95 Q850.15 365.1 831.8 383.4 807.25 407.85 807.25 416.0 L807.65 418.75 808.05 421.5 Q808.05 426.8 805.6 430.2 L798.95 439.65 Q787.1 460.55 776.55 522.05 769.85 565.0 768.35 570.0 765.55 579.25 756.75 604.45 750.8 621.4 750.8 625.0 750.8 630.4 755.25 635.3 758.35 638.75 765.8 643.9 775.6 650.6 778.4 652.85 785.35 658.5 788.85 664.4 796.8 677.8 805.7 687.1 816.0 697.8 823.1 697.8 827.1 697.8 844.4 692.25 853.1 689.5 861.4 686.55 L890.1 708.1 Q893.95 707.8 896.7 704.95 899.4 702.15 900.1 697.8 901.05 691.75 903.65 680.1 906.5 667.35 907.75 664.5 908.85 662.1 913.65 658.4 918.1 654.95 918.75 652.5 921.8 643.35 922.65 639.35 923.9 633.45 924.05 616.65 924.1 610.65 929.3 579.15 935.4 542.1 936.95 528.4 940.2 500.0 942.75 471.8 944.65 450.7 944.65 447.35 944.65 432.65 935.65 407.55 L928.35 387.25 Q924.45 375.55 922.8 366.65 918.05 340.65 911.9 331.25 907.6 324.65 900.7 324.65 897.5 324.65 894.85 326.5 892.9 327.8 888.6 332.2 875.15 346.0 860.8 356.95 M838.85 487.3 Q839.25 487.75 839.25 488.6 L837.9 492.2 Q836.5 495.3 836.5 495.8 836.5 496.8 837.25 497.7 821.85 526.3 817.15 572.35 814.4 598.8 814.4 656.3 814.4 659.75 814.0 661.15 812.85 665.1 808.7 666.95 806.7 663.35 805.75 662.5 805.25 662.05 804.25 662.05 799.75 662.05 792.9 646.25 786.2 630.75 786.2 621.45 L789.2 606.3 795.6 575.15 804.25 530.25 Q806.3 529.2 807.95 529.65 814.15 514.3 824.85 499.9 834.55 486.85 837.95 486.85 838.5 486.85 838.85 487.3 M792.05 439.6 L803.8 422.85 802.85 420.2 802.15 418.4 803.25 414.55 803.15 413.0 802.55 412.75 801.7 412.65 Q801.05 412.65 800.5 413.05 L799.55 414.0 Q801.5 409.4 803.65 405.35 799.2 412.75 795.0 420.65 L774.8 451.8 Q769.7 452.85 761.75 461.4 752.5 472.05 747.5 476.75 L747.8 471.0 745.8 470.7 Q744.35 470.7 742.15 472.8 L733.2 481.45 Q733.0 481.0 731.4 480.05 730.0 479.25 730.0 477.75 L732.2 469.75 Q734.35 461.2 734.35 458.2 L734.35 454.3 Q734.65 450.45 736.0 445.2 L735.75 444.75 Q733.85 445.15 730.7 448.45 727.25 452.0 727.25 454.5 727.25 460.7 727.4 466.05 727.35 468.65 726.5 470.85 L722.5 480.1 Q718.55 489.85 713.45 504.95 L715.4 505.3 717.1 504.35 717.8 502.7 Q719.75 497.7 727.2 486.7 728.85 490.85 731.1 495.05 732.15 497.0 732.15 499.2 732.15 504.9 728.25 516.9 724.3 528.95 724.3 534.6 724.3 535.6 725.95 536.95 L722.95 567.25 723.45 567.8 724.45 568.1 Q726.15 568.15 727.15 565.2 L729.7 573.0 Q730.15 574.6 730.15 577.35 730.15 579.05 723.55 598.9 716.95 618.75 716.95 619.5 716.95 620.15 719.0 620.85 L721.0 621.45 720.15 624.85 Q719.25 628.4 719.25 629.0 719.25 629.8 723.15 634.45 727.0 639.1 727.75 639.1 729.35 639.1 730.25 637.8 731.05 636.65 731.05 635.0 731.05 625.75 734.35 612.75 739.15 593.8 742.5 569.25 743.95 558.75 759.1 514.15 775.6 465.55 783.8 453.75 776.7 466.4 767.9 498.3 759.15 529.95 757.2 549.85 753.25 589.4 750.45 599.45 L748.0 607.3 Q746.4 612.9 744.7 623.0 751.4 613.1 755.6 590.15 756.65 584.3 762.3 542.9 766.65 510.6 772.0 489.85 779.65 460.25 792.05 439.6 M631.0 131.85 L641.5 104.2 Q641.35 109.65 638.7 117.35 635.6 126.25 631.0 131.85 M608.3 106.1 L610.25 104.4 609.85 105.75 609.15 106.45 608.4 106.35 608.3 106.1 M633.1 106.15 L632.5 110.05 632.9 99.8 Q633.6 101.85 633.1 106.15 M346.75 436.3 L319.45 474.95 320.95 471.15 346.75 436.3 M367.95 409.9 Q376.45 398.75 393.1 386.3 411.7 372.45 428.8 366.3 L367.95 409.9 M447.45 358.25 L454.0 355.1 Q455.9 354.6 463.0 351.5 L475.0 346.25 473.55 352.1 464.6 357.2 Q460.5 359.6 459.35 360.0 L455.4 360.35 Q452.9 360.35 450.05 359.35 L447.45 358.25 M474.95 111.5 L473.25 112.65 465.4 122.05 Q456.3 132.85 440.9 147.75 425.2 162.95 418.9 173.65 414.4 181.2 414.4 187.15 L414.25 190.15 Q413.8 193.0 412.1 196.15 L412.95 197.15 Q413.4 197.55 414.05 197.55 L416.9 197.45 Q418.25 197.0 421.8 194.35 L461.3 163.1 Q469.6 156.55 478.95 141.15 487.1 127.65 487.1 124.55 487.1 119.45 484.85 115.25 482.75 111.4 480.45 110.95 479.8 111.1 479.05 111.7 L478.2 112.3 477.65 112.2 477.8 112.1 477.4 110.75 Q476.65 110.55 474.95 111.5 M349.05 290.65 L359.35 281.5 Q355.1 283.4 342.3 293.7 331.95 301.95 329.3 304.5 333.05 297.5 343.55 289.1 354.1 280.7 362.0 278.5 342.7 278.85 330.9 299.8 327.55 305.8 323.1 316.95 318.9 327.5 317.0 330.55 312.5 337.85 295.15 356.5 279.8 375.1 278.7 390.1 281.25 386.35 292.25 366.5 300.7 351.2 305.15 347.75 312.95 341.7 320.15 328.3 326.75 314.5 329.25 310.75 337.15 301.65 349.05 290.65 M607.85 239.25 L609.8 237.7 608.8 238.7 607.7 239.35 607.85 239.25 M574.25 277.15 L573.75 277.5 575.8 275.7 574.25 277.15 M615.65 248.95 Q615.85 248.2 616.5 248.75 617.25 248.85 618.85 249.8 L616.45 253.35 Q615.6 250.8 615.6 249.9 L615.65 248.95 M500.95 375.0 L486.25 392.2 473.6 407.25 Q471.15 410.5 468.0 413.35 465.4 415.75 464.35 416.1 464.1 415.65 462.65 415.0 L461.2 414.4 441.5 435.2 Q442.8 437.55 442.8 439.3 442.8 441.15 440.8 444.6 L436.4 451.65 Q430.0 462.05 430.0 469.75 430.0 473.7 422.95 498.65 L450.5 456.05 449.4 464.35 Q449.4 464.85 455.5 470.55 461.6 476.2 461.6 476.7 L460.7 479.95 Q459.8 482.7 459.8 483.2 459.8 486.35 464.15 492.9 L473.7 507.45 Q487.6 530.7 487.6 557.1 487.6 567.9 482.55 591.5 476.15 621.15 473.95 639.5 477.5 639.2 481.4 631.7 490.35 614.4 493.1 609.95 499.0 600.35 502.2 586.85 505.25 574.15 505.25 561.05 505.25 554.45 504.85 551.85 504.55 550.05 503.2 546.2 498.9 533.95 493.9 508.5 L540.25 441.0 540.35 440.65 540.25 440.5 Q533.25 443.85 521.7 455.6 509.0 468.55 504.8 478.4 L486.1 483.65 Q484.95 482.3 484.95 481.2 484.95 480.05 485.15 479.9 L487.0 479.45 485.8 474.05 478.15 483.8 461.95 465.1 Q460.4 467.7 459.75 469.65 459.6 470.15 458.7 470.15 L457.85 469.6 456.3 468.2 461.8 447.25 456.25 449.5 Q494.7 397.45 503.95 384.05 510.15 375.05 510.15 372.6 510.15 371.5 509.45 369.9 503.9 372.55 503.7 372.7 L500.95 375.0 M540.3 302.7 L540.7 301.65 Q540.85 301.7 541.05 301.9 L541.2 302.15 540.3 302.7 M513.6 372.65 L512.85 373.6 Q508.2 379.85 502.8 389.2 L494.85 403.1 484.9 417.6 Q477.7 428.3 474.9 435.05 474.5 436.05 473.75 440.6 L473.05 445.1 473.45 448.1 Q473.95 450.35 474.4 450.25 473.55 448.3 473.55 447.3 473.55 440.35 480.85 429.85 487.1 420.85 493.3 416.05 498.75 411.85 501.55 406.1 504.8 399.4 513.9 372.55 514.25 372.05 513.6 372.65 M218.65 555.2 Q218.5 560.4 211.4 588.45 L208.5 600.15 Q209.75 596.45 211.65 591.6 L218.75 572.9 Q221.0 565.0 221.75 554.9 222.4 545.5 223.5 542.35 231.0 525.45 236.05 512.8 245.75 488.75 245.75 476.25 245.75 473.3 245.05 468.1 L244.35 463.35 Q244.35 454.75 254.65 420.35 265.55 384.0 273.8 368.35 286.8 343.65 297.9 319.35 313.65 284.75 313.65 275.25 L313.45 272.15 312.9 268.45 Q312.3 266.1 299.1 233.85 299.1 233.25 302.55 227.85 L306.0 222.6 305.85 222.1 Q305.7 221.85 305.05 221.85 L304.05 222.5 302.75 223.65 Q298.45 228.7 297.15 231.7 296.5 233.15 296.5 234.85 296.5 236.85 298.7 241.9 L303.6 252.6 Q310.65 268.65 310.65 279.45 L310.5 283.0 Q309.95 285.5 306.7 292.7 300.7 306.1 267.6 374.2 260.7 388.4 252.3 417.5 242.3 452.0 242.3 470.15 L242.7 480.65 Q243.05 486.55 242.8 489.75 242.05 499.2 234.9 506.25 L235.9 494.0 Q221.5 505.5 209.1 519.65 202.9 526.75 199.6 531.5 L203.95 529.95 202.7 537.1 207.75 532.75 Q213.0 537.05 216.3 544.95 219.05 551.6 218.65 555.2 M322.0 299.0 Q320.75 296.0 316.7 301.0 310.05 309.3 295.6 338.8 L307.9 328.35 Q307.6 326.5 307.95 326.2 308.5 326.1 308.85 325.8 309.25 326.35 322.0 299.0 M288.85 306.3 Q288.85 303.75 287.15 302.4 284.35 300.15 277.95 303.6 274.05 305.7 266.1 314.85 L246.65 338.45 Q224.7 365.25 194.9 426.1 182.4 451.65 174.5 471.7 166.25 492.5 166.25 499.1 166.25 500.85 173.1 504.7 181.35 509.3 189.85 509.3 196.65 509.3 207.15 492.65 218.7 472.55 224.0 465.75 L222.7 491.3 224.55 491.3 Q230.4 489.3 235.9 465.2 241.5 435.9 243.9 424.65 248.95 401.05 257.3 381.2 262.7 368.45 272.05 352.05 281.4 335.75 283.95 329.6 288.85 318.0 288.85 306.3 M249.5 490.0 L251.75 492.45 Q253.95 495.05 253.95 495.65 L253.0 512.75 Q261.65 502.6 265.45 488.9 268.9 476.5 268.25 461.75 265.1 468.15 257.0 479.7 L249.5 490.0 M259.2 487.8 L260.05 486.0 259.25 487.85 259.2 487.8 M159.4 493.6 Q158.65 494.1 157.4 494.2 156.3 494.55 155.6 496.55 153.65 501.85 151.1 527.05 150.85 529.55 146.65 535.85 140.8 544.55 139.9 546.2 124.65 574.65 117.55 600.75 119.2 599.05 120.35 598.5 121.3 598.05 122.0 597.05 123.75 594.6 136.7 569.95 158.55 521.55 158.55 514.3 L158.1 509.9 157.6 505.5 158.35 501.2 159.4 493.6 M206.65 627.95 L205.9 611.15 Q204.35 618.0 204.35 619.55 204.35 652.3 196.55 675.9 L190.85 691.2 Q188.0 698.75 187.55 703.75 L187.75 703.9 188.65 704.05 Q195.05 704.05 201.35 669.35 203.6 657.05 205.25 643.6 206.65 631.9 206.65 627.95 M485.3 430.55 L485.3 430.45 483.75 432.35 484.1 432.1 485.3 430.55 M462.0 453.3 Q461.25 454.3 461.25 455.75 461.25 457.2 462.0 458.25 462.7 459.25 463.75 459.25 464.8 459.25 465.55 458.25 466.25 457.2 466.25 455.75 466.25 454.3 465.55 453.3 464.8 452.25 463.75 452.25 462.7 452.25 462.0 453.3 M442.6 449.3 L442.7 449.2 Q442.9 449.0 442.8 449.15 L442.6 449.3 M446.1 488.85 Q451.45 478.75 450.85 474.6 437.45 496.35 435.45 499.1 429.55 507.3 422.0 511.7 415.75 515.4 399.7 535.9 384.55 555.35 383.65 558.9 383.9 559.05 384.75 573.6 398.85 558.95 416.4 530.9 L427.3 513.2 Q432.0 505.55 433.4 504.6 440.25 499.95 446.1 488.85 M483.35 493.65 L485.15 494.8 Q486.0 495.95 484.2 498.85 L482.85 494.3 482.95 493.6 483.05 493.6 483.35 493.65" fill="#666666" fill-rule="evenodd" stroke="none"/>
      <path d="M22.3 675.2 L23.95 671.65 26.4 672.15 26.45 672.35 26.1 674.7 24.4 679.1 22.3 675.2 M24.3 696.4 Q25.2 688.2 27.2 677.8 31.15 657.05 36.55 646.15 L40.85 646.9 40.85 650.0 Q40.15 660.4 33.1 679.55 26.95 696.35 24.75 698.75 L24.3 696.4 M30.2 646.55 L25.4 662.35 Q24.55 657.2 24.55 656.2 24.55 641.15 27.95 631.25 27.1 634.5 27.1 639.0 27.1 640.0 27.45 642.95 L27.65 641.9 30.2 646.55 M29.35 627.65 Q33.0 619.0 41.7 605.2 L41.95 611.55 37.65 618.85 Q31.1 624.85 29.6 627.2 L29.35 627.65 M356.4 194.65 L357.15 194.9 Q358.75 196.75 358.75 197.4 L358.2 197.8 Q356.55 198.25 352.5 202.0 L354.4 203.3 Q356.35 204.95 356.5 206.75 359.9 205.65 366.4 209.8 376.5 216.25 384.3 219.15 L402.1 224.6 418.05 229.55 Q424.4 232.3 432.7 237.1 L440.35 241.6 494.3 264.3 Q500.15 267.25 502.15 268.85 506.6 272.4 509.1 278.55 L508.2 273.95 Q512.25 279.3 514.55 284.6 515.85 287.6 518.75 289.25 531.5 296.5 540.05 299.15 544.3 300.45 546.0 300.4 546.0 301.0 544.35 302.6 535.3 309.4 523.1 315.85 L502.85 325.8 Q491.6 331.25 486.05 335.1 478.35 340.35 475.0 346.25 L463.0 351.5 Q432.0 357.0 397.45 376.4 382.0 385.1 372.05 393.6 361.55 402.5 359.95 408.9 361.7 406.35 371.45 398.75 382.45 390.2 395.45 381.85 431.3 358.75 454.0 355.1 L447.45 358.25 Q438.15 362.3 428.8 366.3 411.7 372.45 393.1 386.3 376.45 398.75 367.95 409.9 L360.65 420.4 Q327.85 469.3 321.3 485.0 319.3 489.75 317.0 498.5 314.5 508.05 311.1 516.95 310.65 506.9 313.1 494.75 315.75 481.35 320.95 471.15 L319.45 474.95 346.75 436.3 Q352.25 430.35 354.75 424.7 356.6 420.55 358.25 412.6 356.6 415.75 348.7 425.5 L333.2 445.0 Q312.25 472.9 310.7 489.55 308.55 512.5 305.95 527.15 301.5 552.2 293.95 568.55 L291.55 572.35 Q294.3 565.65 296.75 553.8 299.2 542.05 299.2 535.85 L298.65 527.15 297.75 513.35 297.4 506.0 Q297.4 478.3 315.65 444.25 321.85 432.6 330.45 419.85 L341.95 403.35 Q342.9 402.0 348.8 385.3 354.55 369.0 356.7 366.45 362.5 359.6 398.25 342.55 416.2 333.95 434.25 326.0 L362.8 274.25 359.9 274.15 Q347.35 274.15 339.3 281.25 336.25 284.0 328.0 295.75 327.35 291.1 331.0 285.2 333.9 280.4 336.35 278.95 L341.95 275.6 Q347.85 272.25 354.8 269.25 359.4 267.25 369.75 264.35 378.5 261.25 381.5 256.1 L337.7 214.7 350.55 199.5 Q354.0 198.45 355.55 196.45 356.3 195.45 356.4 194.65 M520.6 272.8 L525.55 278.65 Q523.5 278.65 522.05 276.95 520.6 275.2 520.6 272.8 M591.65 269.9 L593.65 269.85 593.65 269.95 593.05 270.1 592.05 270.35 591.65 269.9 M609.55 272.7 L618.2 270.15 Q614.4 272.15 611.6 272.65 L609.55 272.7 M738.9 194.3 L730.55 198.05 660.9 243.65 Q652.8 249.4 632.45 259.1 609.35 270.15 601.7 270.15 601.1 270.15 598.25 268.35 L595.5 266.55 Q596.8 266.05 596.9 265.55 L590.35 263.75 Q588.8 263.75 585.1 265.2 L554.9 288.4 552.3 290.35 551.5 290.2 538.9 287.7 518.35 268.7 Q514.35 263.3 495.3 254.3 475.55 244.95 453.9 238.7 L385.0 204.2 380.75 200.75 Q376.4 196.95 376.05 195.05 L380.7 192.05 Q400.2 204.35 422.7 212.3 425.1 213.15 440.7 215.9 455.8 219.15 458.75 223.1 462.4 227.95 473.55 233.8 485.55 240.05 493.15 240.05 509.15 240.05 527.25 230.1 L541.2 231.4 Q555.8 233.05 559.0 234.65 551.35 266.8 551.35 267.8 551.35 268.4 552.95 271.8 L554.55 275.35 Q559.5 269.7 569.2 262.45 574.75 258.35 586.15 250.35 595.65 243.35 600.1 238.25 605.9 231.65 605.9 225.55 L605.55 223.15 605.15 220.7 605.55 218.85 Q605.75 217.05 604.9 213.85 L607.6 216.45 Q605.35 213.9 599.55 208.25 L594.2 203.15 Q591.55 200.5 591.55 195.2 L591.75 192.55 Q592.05 190.05 592.6 190.05 593.1 190.05 597.0 193.3 L609.5 204.1 Q612.1 206.35 614.7 209.6 L619.3 215.6 Q622.5 219.9 625.75 230.25 627.4 235.5 628.85 241.15 L642.35 228.5 Q633.25 198.9 633.25 198.35 633.25 193.5 637.2 187.7 639.65 184.15 646.5 176.65 653.85 168.6 657.2 164.05 662.95 156.3 665.5 148.75 659.15 122.95 652.95 110.65 L649.65 104.2 Q648.4 101.35 648.1 97.45 L647.15 86.95 Q646.1 78.65 644.55 78.65 L638.8 78.85 Q638.1 68.8 638.1 66.05 638.1 58.3 643.05 48.1 L646.75 40.8 Q648.65 37.0 649.15 34.9 649.95 31.4 653.15 25.55 656.45 19.45 658.6 18.0 L659.2 18.7 661.65 24.9 Q665.2 34.65 670.4 52.35 L670.05 60.9 Q670.05 64.45 671.15 67.1 672.05 69.4 676.7 79.75 677.4 81.35 680.15 94.95 682.7 107.6 684.0 109.1 689.05 88.3 691.15 84.4 691.75 83.25 693.3 81.55 695.0 79.7 696.6 77.0 L698.25 92.0 Q695.25 100.8 698.85 103.65 699.85 104.4 702.0 105.5 703.8 106.65 704.15 108.35 L706.95 116.65 Q709.95 125.75 711.35 132.6 713.45 142.65 717.2 146.5 719.5 148.85 730.25 154.55 739.15 159.25 744.3 168.1 749.0 176.1 747.1 180.1 L748.3 180.05 750.0 179.85 Q751.0 179.85 753.45 183.05 L738.9 194.3 M852.95 138.85 L859.05 200.7 859.1 205.9 Q859.1 212.9 858.2 220.2 L857.3 227.65 Q857.3 233.15 861.8 241.3 L866.3 249.1 Q866.3 250.1 865.3 255.15 861.15 250.9 859.95 246.5 L859.2 240.3 Q858.85 237.35 856.7 235.9 853.9 234.05 846.2 232.85 L843.5 225.2 843.45 222.45 Q843.05 219.4 841.5 218.1 L839.05 213.5 835.0 217.6 824.9 216.2 823.6 214.25 Q821.55 211.8 818.1 209.45 L809.3 197.4 Q809.0 196.5 808.1 195.5 806.3 193.55 803.5 193.2 L796.35 190.9 Q827.45 154.65 836.55 135.85 838.45 131.9 839.55 128.95 840.15 128.0 843.25 128.0 846.1 128.0 849.15 131.0 852.6 134.35 852.95 138.85 M795.0 193.45 L802.25 194.25 Q799.3 195.6 796.85 194.65 L795.0 193.45 M841.4 224.7 L842.05 234.95 841.45 240.0 Q834.8 235.35 832.7 233.2 831.4 231.9 831.4 230.85 831.4 226.25 834.55 223.5 838.05 220.5 841.4 224.7 M845.45 235.6 Q856.55 239.15 857.1 244.0 857.25 245.4 856.9 248.35 856.8 251.1 858.05 253.2 859.15 255.05 862.5 258.55 866.8 263.1 871.4 269.25 L878.35 278.55 883.65 286.3 910.7 310.2 912.15 311.8 Q916.0 316.2 919.3 321.2 923.7 327.85 923.7 330.65 923.7 331.25 923.5 331.25 L923.0 331.2 921.9 330.25 905.25 315.7 898.2 317.9 Q894.3 318.85 889.85 318.85 884.95 318.85 880.75 317.65 875.3 316.1 868.0 311.85 L870.45 318.95 Q866.55 318.05 862.1 311.8 857.6 305.5 853.8 295.5 844.95 272.2 844.95 245.6 L845.45 235.6 M708.9 167.05 L705.85 171.75 706.55 172.9 710.55 170.0 708.9 167.05 M760.8 363.25 L758.45 373.3 Q764.2 367.9 783.3 356.3 803.55 343.95 804.05 347.1 803.3 348.4 803.25 350.0 803.2 351.05 801.65 352.25 798.35 354.85 768.6 371.7 L741.3 402.15 Q717.3 428.5 709.95 431.65 L709.35 426.25 700.95 434.65 Q700.25 433.05 700.25 432.05 700.25 415.4 726.55 388.95 736.65 378.75 746.85 371.2 756.7 363.85 760.8 363.25 M860.8 356.95 Q875.15 346.0 888.6 332.2 892.9 327.8 894.85 326.5 897.5 324.65 900.7 324.65 907.6 324.65 911.9 331.25 918.05 340.65 922.8 366.65 924.45 375.55 928.35 387.25 L935.65 407.55 Q944.65 432.65 944.65 447.35 944.65 450.7 942.75 471.8 940.2 500.0 936.95 528.4 935.4 542.1 929.3 579.15 924.1 610.65 924.05 616.65 923.9 633.45 922.65 639.35 921.8 643.35 918.75 652.5 918.1 654.95 913.65 658.4 908.85 662.1 907.75 664.5 906.5 667.35 903.65 680.1 901.05 691.75 900.1 697.8 899.4 702.15 896.7 704.95 893.95 707.8 890.1 708.1 L861.4 686.55 Q853.1 689.5 844.4 692.25 827.1 697.8 823.1 697.8 816.0 697.8 805.7 687.1 796.8 677.8 788.85 664.4 785.35 658.5 778.4 652.85 775.6 650.6 765.8 643.9 758.35 638.75 755.25 635.3 750.8 630.4 750.8 625.0 750.8 621.4 756.75 604.45 765.55 579.25 768.35 570.0 769.85 565.0 776.55 522.05 787.1 460.55 798.95 439.65 L805.6 430.2 Q808.05 426.8 808.05 421.5 L807.65 418.75 807.25 416.0 Q807.25 407.85 831.8 383.4 850.15 365.1 860.8 356.95 M838.85 487.3 Q838.5 486.85 837.95 486.85 834.55 486.85 824.85 499.9 814.15 514.3 807.95 529.65 806.3 529.2 804.25 530.25 L795.6 575.15 789.2 606.3 786.2 621.45 Q786.2 630.75 792.9 646.25 799.75 662.05 804.25 662.05 805.25 662.05 805.75 662.5 806.7 663.35 808.7 666.95 812.85 665.1 814.0 661.15 814.4 659.75 814.4 656.3 814.4 598.8 817.15 572.35 821.85 526.3 837.25 497.7 836.5 496.8 836.5 495.8 836.5 495.3 837.9 492.2 L839.25 488.6 Q839.25 487.75 838.85 487.3 M840.85 547.0 L840.75 549.1 Q840.7 556.05 837.9 575.2 L837.35 575.2 836.75 590.45 837.85 600.85 Q839.1 611.65 840.05 614.35 L842.25 543.75 840.85 547.0 M843.0 475.5 Q833.55 478.75 821.35 492.05 809.35 505.1 806.6 514.6 L792.4 561.7 Q779.8 605.05 779.8 614.2 779.8 615.2 781.15 614.5 L782.2 613.85 783.1 613.0 Q789.8 595.9 792.55 579.95 794.2 565.95 795.05 562.3 800.6 538.65 804.35 528.95 805.35 526.5 813.65 509.7 L843.0 475.5 M799.55 414.0 L800.5 413.05 Q801.05 412.65 801.7 412.65 L802.55 412.75 803.15 413.0 803.25 414.55 802.15 418.4 802.85 420.2 803.8 422.85 792.05 439.6 799.55 414.0 M783.8 453.75 Q775.6 465.55 759.1 514.15 743.95 558.75 742.5 569.25 739.15 593.8 734.35 612.75 731.05 625.75 731.05 635.0 731.05 636.65 730.25 637.8 729.35 639.1 727.75 639.1 727.0 639.1 723.15 634.45 719.25 629.8 719.25 629.0 719.25 628.4 720.15 624.85 L721.0 621.45 719.0 620.85 Q716.95 620.15 716.95 619.5 716.95 618.75 723.55 598.9 730.15 579.05 730.15 577.35 730.15 574.6 729.7 573.0 L727.15 565.2 Q726.15 568.15 724.45 568.1 L723.45 567.8 722.95 567.25 725.95 536.95 Q724.3 535.6 724.3 534.6 724.3 528.95 728.25 516.9 732.15 504.9 732.15 499.2 732.15 497.0 731.1 495.05 728.85 490.85 727.2 486.7 719.75 497.7 717.8 502.7 L717.1 504.35 715.4 505.3 713.45 504.95 Q718.55 489.85 722.5 480.1 L726.5 470.85 Q727.35 468.65 727.4 466.05 727.25 460.7 727.25 454.5 727.25 452.0 730.7 448.45 733.85 445.15 735.75 444.75 L736.0 445.2 Q734.65 450.45 734.35 454.3 L734.35 458.2 Q734.35 461.2 732.2 469.75 L730.0 477.75 Q730.0 479.25 731.4 480.05 733.0 481.0 733.2 481.45 L742.15 472.8 Q744.35 470.7 745.8 470.7 L747.8 471.0 747.5 476.75 Q752.5 472.05 761.75 461.4 769.7 452.85 774.8 451.8 L795.0 420.65 783.8 453.75 M861.5 660.0 L861.95 657.85 Q861.95 655.95 856.15 643.45 849.1 628.25 841.45 617.2 L860.75 662.6 861.5 660.0 M593.05 205.8 L596.25 207.7 595.75 208.3 593.25 207.55 593.05 205.8 M616.5 241.9 L616.95 238.35 Q616.95 236.45 615.1 230.7 613.15 224.6 611.4 221.75 L614.75 248.75 616.5 241.9 M607.85 239.25 L607.7 239.35 608.8 238.7 609.8 237.7 607.85 239.25 M615.65 248.95 L615.6 249.9 Q615.6 250.8 616.45 253.35 L618.85 249.8 Q617.25 248.85 616.5 248.75 615.85 248.2 615.65 248.95 M540.3 302.7 L541.2 302.15 541.05 301.9 Q540.85 301.7 540.7 301.65 L540.3 302.7 M500.95 375.0 L503.7 372.7 Q503.9 372.55 509.45 369.9 510.15 371.5 510.15 372.6 510.15 375.05 503.95 384.05 494.7 397.45 456.25 449.5 L461.8 447.25 456.3 468.2 457.85 469.6 458.7 470.15 Q459.6 470.15 459.75 469.65 460.4 467.7 461.95 465.1 L478.15 483.8 485.8 474.05 487.0 479.45 485.15 479.9 Q484.95 480.05 484.95 481.2 484.95 482.3 486.1 483.65 L504.8 478.4 Q509.0 468.55 521.7 455.6 533.25 443.85 540.25 440.5 L540.35 440.65 540.25 441.0 493.9 508.5 Q498.9 533.95 503.2 546.2 504.55 550.05 504.85 551.85 505.25 554.45 505.25 561.05 505.25 574.15 502.2 586.85 499.0 600.35 493.1 609.95 490.35 614.4 481.4 631.7 477.5 639.2 473.95 639.5 476.15 621.15 482.55 591.5 487.6 567.9 487.6 557.1 487.6 530.7 473.7 507.45 L464.15 492.9 Q459.8 486.35 459.8 483.2 459.8 482.7 460.7 479.95 L461.6 476.7 Q461.6 476.2 455.5 470.55 449.4 464.85 449.4 464.35 L450.5 456.05 422.95 498.65 Q430.0 473.7 430.0 469.75 430.0 462.05 436.4 451.65 L440.8 444.6 Q442.8 441.15 442.8 439.3 442.8 437.55 441.5 435.2 L461.2 414.4 462.65 415.0 Q464.1 415.65 464.35 416.1 465.4 415.75 468.0 413.35 471.15 410.5 473.6 407.25 L486.25 392.2 500.95 375.0 M218.65 555.2 Q219.05 551.6 216.3 544.95 213.0 537.05 207.75 532.75 L202.7 537.1 203.95 529.95 199.6 531.5 Q202.9 526.75 209.1 519.65 221.5 505.5 235.9 494.0 L234.9 506.25 Q226.5 524.8 224.35 531.5 222.55 537.05 218.65 555.2 M322.0 299.0 Q309.25 326.35 308.85 325.8 308.5 326.1 307.95 326.2 307.6 326.5 307.9 328.35 L295.6 338.8 Q310.05 309.3 316.7 301.0 320.75 296.0 322.0 299.0 M259.2 487.8 L259.25 487.85 260.05 486.0 259.2 487.8 M249.5 490.0 L257.0 479.7 Q265.1 468.15 268.25 461.75 268.9 476.5 265.45 488.9 261.65 502.6 253.0 512.75 L253.95 495.65 Q253.95 495.05 251.75 492.45 L249.5 490.0 M159.4 493.6 L158.35 501.2 157.6 505.5 158.1 509.9 158.55 514.3 Q158.55 521.55 136.7 569.95 123.75 594.6 122.0 597.05 121.3 598.05 120.35 598.5 119.2 599.05 117.55 600.75 124.65 574.65 139.9 546.2 140.8 544.55 146.65 535.85 150.85 529.55 151.1 527.05 153.65 501.85 155.6 496.55 156.3 494.55 157.4 494.2 158.65 494.1 159.4 493.6 M442.6 449.3 L442.8 449.15 Q442.9 449.0 442.7 449.2 L442.6 449.3 M462.0 453.3 Q462.7 452.25 463.75 452.25 464.8 452.25 465.55 453.3 466.25 454.3 466.25 455.75 466.25 457.2 465.55 458.25 464.8 459.25 463.75 459.25 462.7 459.25 462.0 458.25 461.25 457.2 461.25 455.75 461.25 454.3 462.0 453.3 M483.35 493.65 L483.05 493.6 482.95 493.6 482.85 494.3 484.2 498.85 Q486.0 495.95 485.15 494.8 L483.35 493.65" fill="#665a53" fill-rule="evenodd" stroke="none"/>
      <path d="M192.0 303.75 L216.0 272.85 258.0 229.55 276.5 211.75 Q280.65 208.2 288.6 205.25 295.5 202.65 298.3 202.65 301.3 202.65 302.4 204.3 303.2 205.45 303.2 207.7 303.2 210.5 300.75 214.5 297.8 219.3 296.8 223.65 295.75 228.4 291.45 237.75 L287.45 246.6 289.7 250.8 Q291.9 255.7 291.9 259.7 291.9 274.3 260.1 316.2 250.95 328.2 236.0 346.55 222.5 363.1 220.3 366.15 204.55 388.1 188.55 422.55 L178.25 444.2 Q173.15 454.15 168.95 458.4 L168.35 431.8 163.6 432.55 160.15 432.8 Q157.3 432.8 151.85 430.45 146.45 428.1 145.95 428.1 137.25 428.1 127.7 438.7 122.7 444.25 119.2 450.35 L119.05 450.6 Q126.05 442.25 130.65 439.5 134.95 436.85 141.2 436.85 L149.3 438.4 Q157.25 440.35 157.25 442.5 L156.4 451.1 Q156.4 453.95 158.15 459.35 159.85 464.7 159.85 467.8 159.85 472.6 156.6 477.5 L146.6 489.75 Q125.45 514.6 105.55 548.85 102.45 547.0 101.45 547.0 101.1 547.0 92.4 565.35 79.3 590.3 58.75 620.2 53.05 628.5 43.85 628.5 42.25 628.85 40.7 627.85 37.7 625.8 37.65 618.85 L41.95 611.55 Q54.7 592.15 63.0 576.2 72.75 557.45 73.95 547.8 76.55 526.65 87.7 500.75 91.25 492.55 95.7 483.75 L100.45 474.65 Q99.85 471.0 103.85 458.95 108.2 446.0 116.35 428.35 136.8 383.95 167.9 337.4 L192.0 303.75 M776.45 205.1 Q788.2 212.6 788.25 225.45 L803.25 273.5 Q769.6 300.35 733.55 323.35 L716.6 333.9 707.85 339.1 703.95 340.35 700.65 341.15 Q688.5 341.15 682.25 329.85 L720.3 287.9 Q693.2 306.35 673.0 324.8 L647.9 349.5 Q637.5 359.9 629.35 363.4 619.3 367.75 601.6 367.75 590.85 367.75 574.8 362.2 558.25 356.45 552.35 350.25 558.5 343.85 569.3 330.0 L587.95 305.95 Q610.6 277.4 619.25 277.4 619.75 277.4 620.25 277.85 620.7 278.3 621.2 278.3 624.8 278.3 627.3 277.45 629.9 276.55 635.25 273.4 L680.7 246.6 Q698.6 236.4 714.2 225.9 718.2 223.2 735.0 211.3 744.05 204.85 748.9 202.6 755.05 199.75 761.75 199.75 763.75 199.75 767.55 200.95 772.4 202.5 776.45 205.1 M809.75 293.9 Q810.45 296.7 810.45 299.6 L810.2 301.9 Q809.9 303.25 805.65 307.6 801.75 311.55 802.05 311.55 L810.2 310.35 Q815.7 310.35 818.2 314.5 820.05 317.55 820.05 322.3 815.55 328.65 809.75 334.85 798.2 347.25 791.75 347.25 L773.95 346.25 779.5 333.5 Q761.2 347.4 745.45 353.1 736.6 356.35 730.95 356.35 727.65 356.35 723.85 354.35 719.1 351.8 716.35 347.1 727.75 334.55 762.8 311.4 797.75 288.3 805.2 288.3 808.4 288.3 809.75 293.9 M723.2 208.6 Q718.1 212.4 712.0 215.95 L706.95 218.75 723.2 208.6 M776.65 378.05 Q779.4 373.45 784.15 368.9 L800.65 355.95 Q807.45 351.75 814.25 348.9 819.65 346.6 820.95 346.6 824.0 346.6 826.4 349.1 828.95 351.75 828.95 355.55 828.95 358.45 816.85 374.2 802.7 392.65 798.5 401.25 786.05 426.6 776.6 436.95 769.6 444.6 763.4 444.6 752.9 444.6 748.25 434.6 L774.05 391.05 Q772.35 385.3 776.65 378.05 M360.65 420.4 L367.95 409.9 428.8 366.3 Q438.15 362.3 447.45 358.25 L450.05 359.35 Q452.9 360.35 455.4 360.35 L459.35 360.0 Q460.5 359.6 464.6 357.2 L473.55 352.1 473.5 352.25 474.5 351.6 Q488.45 343.8 507.7 334.15 532.95 321.5 580.15 291.1 L580.3 292.25 Q578.95 296.0 532.55 336.55 L468.75 391.5 Q465.05 394.65 454.8 400.75 444.3 407.0 439.95 408.5 432.35 411.05 425.15 415.05 413.3 421.6 413.3 427.25 413.3 427.75 414.8 433.5 L416.25 439.75 Q416.25 443.5 411.65 450.1 407.0 456.7 407.0 461.05 407.0 465.0 408.2 469.25 L409.35 472.8 Q409.35 477.3 404.15 488.35 400.7 495.75 391.55 512.65 369.35 553.7 361.8 572.9 355.05 590.1 349.75 595.15 347.1 597.65 343.35 598.95 340.6 599.9 334.8 600.85 L329.5 600.85 Q329.5 592.0 333.7 560.25 336.9 535.9 340.5 521.65 L338.2 529.05 Q331.25 551.6 327.7 561.7 313.1 603.85 302.6 603.85 L299.5 603.8 299.35 598.3 Q299.35 585.8 302.7 575.6 L314.9 544.45 Q316.35 540.75 318.8 527.3 321.3 513.65 323.1 499.65 325.25 482.55 330.5 470.65 334.3 462.1 341.2 453.5 L352.2 439.6 Q358.0 431.05 360.65 420.4 M349.05 290.65 Q337.15 301.65 329.25 310.75 326.75 314.5 320.15 328.3 312.95 341.7 305.15 347.75 300.7 351.2 292.25 366.5 281.25 386.35 278.7 390.1 279.8 375.1 295.15 356.5 312.5 337.85 317.0 330.55 318.9 327.5 323.1 316.95 327.55 305.8 330.9 299.8 342.7 278.85 362.0 278.5 354.1 280.7 343.55 289.1 333.05 297.5 329.3 304.5 331.95 301.95 342.3 293.7 355.1 283.4 359.35 281.5 L349.05 290.65 M513.6 372.65 Q514.25 372.05 513.9 372.55 504.8 399.4 501.55 406.1 498.75 411.85 493.3 416.05 487.1 420.85 480.85 429.85 473.55 440.35 473.55 447.3 473.55 448.3 474.4 450.25 473.95 450.35 473.45 448.1 L473.05 445.1 473.75 440.6 Q474.5 436.05 474.9 435.05 477.7 428.3 484.9 417.6 L494.85 403.1 502.8 389.2 Q508.2 379.85 512.85 373.6 L513.6 372.65 M288.85 306.3 Q288.85 318.0 283.95 329.6 281.4 335.75 272.05 352.05 262.7 368.45 257.3 381.2 248.95 401.05 243.9 424.65 241.5 435.9 235.9 465.2 230.4 489.3 224.55 491.3 L222.7 491.3 224.0 465.75 Q218.7 472.55 207.15 492.65 196.65 509.3 189.85 509.3 181.35 509.3 173.1 504.7 166.25 500.85 166.25 499.1 166.25 492.5 174.5 471.7 182.4 451.65 194.9 426.1 224.7 365.25 246.65 338.45 L266.1 314.85 Q274.05 305.7 277.95 303.6 284.35 300.15 287.15 302.4 288.85 303.75 288.85 306.3 M485.3 430.55 L484.1 432.1 483.75 432.35 485.3 430.45 485.3 430.55 M446.1 488.85 Q440.25 499.95 433.4 504.6 432.0 505.55 427.3 513.2 L416.4 530.9 Q398.85 558.95 384.75 573.6 383.9 559.05 383.65 558.9 384.55 555.35 399.7 535.9 415.75 515.4 422.0 511.7 429.55 507.3 435.45 499.1 437.45 496.35 450.85 474.6 451.45 478.75 446.1 488.85" fill="#737373" fill-rule="evenodd" stroke="none"/>
    </g>
  </defs>
</svg>
