<?xml version="1.0" encoding="UTF-8" standalone="no"?>
<svg xmlns:ffdec="https://www.free-decompiler.com/flash" xmlns:xlink="http://www.w3.org/1999/xlink" ffdec:objectType="frame" height="619.9px" width="468.45px" xmlns="http://www.w3.org/2000/svg">
  <g transform="matrix(1.0, 0.0, 0.0, 1.0, 244.2, 678.2)">
    <clipPath id="clipPath0" transform="matrix(1.0, 0.0, 0.0, 1.0, 0.0, 0.0)">
      <path d="M69.65 -674.1 L70.85 -671.45 70.85 -280.8 71.55 -246.2 71.55 -245.1 79.4 -243.0 87.9 -240.35 Q82.5 -238.8 78.4 -235.9 L76.65 -234.5 Q72.7 -233.4 63.65 -232.95 63.65 -231.8 65.1 -230.85 L69.0 -228.75 68.45 -228.6 Q62.55 -227.1 58.9 -223.3 56.15 -220.4 56.3 -218.05 50.4 -212.4 50.4 -208.25 L50.4 -208.05 49.35 -205.3 49.45 -203.15 50.25 -203.0 51.4 -203.3 51.45 -203.4 51.55 -203.4 53.9 -204.85 53.65 -204.45 Q47.7 -194.4 47.7 -186.35 47.7 -185.25 48.0 -183.9 L48.25 -183.1 Q46.85 -178.4 46.85 -173.75 46.85 -170.45 47.0 -169.4 47.35 -166.45 48.75 -165.1 50.55 -166.0 51.15 -167.6 L51.15 -165.5 51.6 -165.5 51.85 -168.4 52.1 -166.95 Q52.35 -164.15 53.0 -161.7 53.7 -159.1 54.75 -157.4 56.3 -153.45 57.9 -153.45 58.8 -153.45 59.0 -153.75 L59.05 -154.05 59.15 -155.6 Q61.6 -150.0 65.35 -147.0 L65.6 -146.8 65.8 -146.8 67.6 -147.05 68.25 -147.35 Q68.5 -148.7 67.4 -152.5 66.15 -156.5 66.15 -157.05 66.15 -157.9 66.85 -161.75 L66.95 -162.25 67.3 -159.95 Q69.0 -150.55 73.6 -150.55 74.7 -150.55 74.8 -151.0 L74.65 -151.45 Q74.65 -159.4 75.75 -165.45 L76.1 -165.45 Q74.95 -163.45 77.0 -160.5 L79.6 -157.6 Q79.65 -156.9 80.05 -156.65 L80.6 -156.5 80.9 -156.15 81.25 -156.45 81.25 -156.5 Q81.85 -158.15 82.9 -160.0 L85.25 -158.5 87.7 -155.0 Q89.25 -150.45 91.0 -147.15 92.5 -144.5 94.1 -142.65 L93.35 -142.15 Q89.1 -138.75 89.1 -134.85 L89.15 -133.65 89.4 -133.35 89.35 -133.2 90.3 -133.05 92.1 -134.7 92.2 -134.7 91.85 -134.3 Q87.65 -129.45 87.65 -125.3 87.65 -124.3 87.9 -124.15 L88.95 -124.1 97.75 -130.3 99.15 -131.1 102.1 -131.0 105.35 -131.25 110.0 -130.0 Q106.65 -126.25 106.65 -122.6 106.65 -121.45 106.8 -121.15 L107.75 -120.35 114.2 -123.6 119.15 -125.85 119.55 -125.6 Q118.05 -123.25 117.7 -120.9 L117.75 -120.75 117.55 -120.45 Q115.2 -116.25 115.2 -110.9 L115.25 -109.95 115.5 -109.85 121.95 -113.95 123.0 -113.6 123.6 -113.75 122.95 -113.2 128.05 -114.45 128.5 -114.0 Q126.2 -111.8 126.2 -109.5 L126.4 -108.45 125.95 -107.8 Q124.35 -105.45 124.35 -104.0 L124.55 -103.35 125.9 -102.95 Q126.6 -103.2 128.95 -104.65 L130.75 -105.2 130.65 -105.0 127.2 -102.85 125.25 -101.05 123.1 -100.5 Q117.9 -99.05 114.05 -97.0 L111.4 -95.2 111.05 -95.1 Q110.15 -94.8 109.05 -93.7 L113.05 -93.3 113.3 -93.1 115.3 -93.35 115.15 -93.25 113.75 -92.6 113.85 -92.45 112.6 -92.05 111.6 -91.65 110.65 -91.2 Q101.15 -91.2 96.25 -85.8 L96.5 -85.65 91.35 -83.85 86.9 -82.4 83.55 -81.35 Q78.85 -81.55 74.7 -78.7 L71.95 -77.9 69.85 -77.3 68.45 -77.25 Q63.05 -76.95 58.0 -74.75 56.2 -74.0 55.15 -73.3 L52.85 -72.7 Q47.75 -73.0 45.25 -72.55 43.2 -72.2 40.4 -70.3 37.85 -70.05 34.35 -69.0 L29.45 -67.15 27.1 -66.65 22.1 -65.55 19.55 -65.45 18.65 -64.8 15.25 -64.1 Q13.55 -64.35 7.45 -64.1 2.6 -64.2 -2.05 -62.55 -4.25 -61.75 -5.4 -60.9 L-21.2 -60.65 -21.65 -60.55 -26.4 -60.05 -27.95 -59.8 -33.4 -59.35 -41.0 -58.85 Q-48.2 -60.15 -52.35 -59.05 L-54.2 -58.35 -55.05 -58.35 -58.7 -58.3 -62.15 -58.9 -64.3 -59.05 -67.1 -59.35 Q-69.35 -59.4 -71.15 -58.65 L-71.35 -59.1 Q-79.8 -60.9 -87.1 -59.4 L-90.8 -58.4 -91.65 -58.45 Q-92.95 -59.85 -95.85 -60.8 L-99.1 -61.65 -100.15 -61.8 Q-104.25 -62.45 -107.05 -61.85 L-109.2 -61.65 Q-113.0 -64.35 -117.15 -64.75 -120.8 -65.15 -124.35 -63.75 -127.75 -65.3 -132.8 -65.75 L-139.05 -65.5 Q-143.0 -66.8 -146.9 -67.2 L-149.25 -67.35 -153.05 -68.55 -158.4 -69.8 Q-162.4 -72.2 -168.2 -72.7 L-169.7 -72.75 -170.85 -73.75 Q-173.75 -76.2 -177.3 -77.25 -184.7 -79.85 -190.5 -79.35 L-192.5 -79.1 -195.2 -79.9 -195.4 -79.95 -202.9 -82.55 Q-205.75 -85.85 -212.2 -88.15 -217.25 -90.0 -223.5 -90.7 L-224.75 -92.35 Q-226.7 -94.7 -229.6 -97.15 -231.45 -98.7 -233.25 -99.85 -231.1 -99.05 -228.65 -97.4 -225.7 -95.35 -224.1 -95.3 -223.45 -95.55 -223.35 -95.65 -223.2 -95.9 -223.2 -96.95 -223.2 -98.15 -225.9 -100.8 L-229.65 -104.0 Q-229.7 -105.4 -230.4 -106.8 -231.9 -110.25 -236.75 -113.8 L-239.5 -115.6 -239.45 -116.55 -239.5 -117.75 -239.6 -118.6 -239.2 -119.2 -238.95 -119.35 Q-237.85 -122.5 -237.85 -125.8 L-238.0 -128.4 -232.9 -130.75 -230.7 -129.8 -230.15 -129.55 -222.75 -125.6 -222.65 -125.8 -221.25 -125.0 -220.8 -125.65 -220.65 -126.15 -220.55 -128.0 Q-220.55 -128.4 -221.25 -129.75 L-220.8 -129.35 Q-220.95 -130.5 -221.5 -131.65 L-220.2 -130.8 -219.7 -131.4 -219.65 -131.55 -219.45 -131.5 -219.0 -131.8 -218.75 -132.0 -218.65 -132.2 -218.6 -133.7 -218.6 -134.0 -213.95 -135.8 Q-212.85 -135.0 -212.35 -135.0 L-211.4 -135.2 -211.55 -135.45 -211.4 -136.85 -206.9 -138.75 Q-205.8 -139.25 -203.9 -140.5 -198.8 -136.1 -198.1 -136.1 L-196.65 -136.4 -196.35 -136.7 -196.2 -141.1 -196.05 -141.0 -195.35 -141.0 Q-194.7 -141.35 -193.95 -143.05 L-193.25 -144.7 Q-190.9 -145.1 -182.9 -152.1 L-182.8 -152.15 -180.7 -144.75 Q-178.15 -148.85 -177.25 -150.9 -176.8 -151.95 -176.5 -152.95 L-175.7 -153.1 Q-172.85 -153.75 -171.35 -158.25 L-170.5 -159.75 -170.1 -154.5 -170.35 -152.35 -170.25 -151.5 Q-169.8 -148.2 -169.8 -146.65 -169.8 -145.2 -170.65 -142.25 L-170.45 -142.25 Q-166.25 -142.25 -163.8 -149.25 -162.15 -154.2 -162.15 -157.9 L-162.15 -158.8 Q-154.9 -149.2 -152.55 -145.35 -151.05 -146.75 -150.65 -149.0 -150.45 -150.05 -150.45 -153.0 L-150.55 -154.5 Q-149.35 -155.15 -148.95 -156.75 -148.75 -157.55 -148.75 -160.35 -148.75 -162.85 -149.7 -165.65 L-149.5 -165.75 Q-149.35 -167.1 -149.35 -169.65 -149.35 -173.5 -149.55 -174.3 -149.85 -175.65 -152.1 -180.0 -150.7 -179.8 -148.25 -177.65 -145.9 -175.65 -145.5 -175.65 -144.55 -175.65 -144.5 -176.0 L-144.6 -176.4 -144.6 -178.95 Q-145.85 -180.5 -148.35 -184.85 -148.0 -185.15 -148.0 -185.55 -148.35 -187.75 -149.3 -189.45 L-150.3 -190.85 Q-151.25 -192.8 -153.4 -194.75 -156.45 -197.5 -161.3 -199.65 L-156.05 -200.4 -155.35 -200.7 Q-155.15 -200.95 -155.15 -201.95 -155.15 -203.4 -156.85 -204.65 -158.6 -206.0 -161.25 -206.45 L-162.35 -206.6 -162.35 -206.7 Q-164.3 -208.65 -165.4 -209.15 L-175.85 -208.55 -178.75 -208.05 -178.6 -208.35 Q-177.95 -210.05 -177.95 -212.35 -177.95 -215.0 -178.9 -216.5 -180.55 -214.0 -182.85 -211.85 -187.45 -207.6 -193.25 -207.6 -193.65 -207.6 -196.7 -210.15 -200.15 -213.05 -202.25 -214.05 -203.3 -214.75 -204.95 -215.3 -208.0 -219.3 -209.35 -220.35 -210.85 -221.5 -212.95 -222.35 -195.5 -230.6 -176.15 -236.95 L-176.35 -237.4 Q-176.9 -239.0 -176.65 -240.95 L-176.1 -263.7 -175.3 -298.15 -175.3 -405.65 -174.95 -406.65 -174.95 -668.65 -176.0 -669.75 -176.0 -671.85 Q-175.35 -673.75 -171.25 -674.45 L46.7 -675.15 Q59.0 -677.05 64.55 -675.5 65.7 -677.4 66.95 -678.2 68.4 -676.55 69.65 -674.1" fill="#666666" fill-rule="evenodd" stroke="none"/>
      <path d="M222.35 -234.25 L222.15 -234.35 220.9 -235.75 221.55 -235.25 222.35 -234.25" fill="#ff0000" fill-rule="evenodd" stroke="none"/>
    </clipPath>
    <g clip-path="url(#clipPath0)">
      <use ffdec:characterId="1554" height="584.65" transform="matrix(1.0, 0.0, 0.0, 1.0, -243.75, -672.25)" width="384.8" xlink:href="#shape1"/>
    </g>
    <use ffdec:characterId="1555" height="110.8" transform="matrix(1.0, 0.0, 0.0, 1.0, 193.35, -362.85)" width="22.5" xlink:href="#shape2"/>
    <use ffdec:characterId="1553" height="109.95" transform="matrix(1.0, 0.0, 0.0, 1.0, 160.6, -506.3)" width="19.45" xlink:href="#shape3"/>
  </g>
  <defs>
    <g id="shape1" transform="matrix(1.0, 0.0, 0.0, 1.0, 243.75, 672.25)">
      <path d="M-81.7 -424.25 Q-80.0 -422.55 -78.2 -421.95 -75.5 -420.95 -74.3 -420.25 -73.25 -421.4 -72.8 -427.1 -72.35 -432.4 -70.85 -433.3 -68.45 -434.7 -67.3 -438.5 L-66.6 -441.05 Q-65.85 -443.2 -64.7 -443.85 L-57.8 -425.95 -57.25 -428.9 Q-56.45 -430.85 -53.55 -431.4 L-53.3 -431.55 Q-53.1 -431.45 -53.05 -430.5 L-50.45 -431.65 -49.4 -433.95 Q-48.6 -435.35 -47.6 -435.65 -46.9 -433.55 -46.9 -428.55 L-46.55 -428.65 Q-46.05 -428.8 -45.2 -429.25 -42.95 -425.65 -41.95 -420.35 -41.05 -415.6 -41.55 -411.55 L-41.3 -411.55 -40.45 -416.2 Q-39.6 -419.55 -37.75 -420.85 L-34.75 -418.4 -32.3 -416.55 -31.65 -418.85 Q-31.05 -420.5 -29.65 -421.2 L-27.15 -414.75 -25.15 -409.65 -23.0 -409.2 Q-21.4 -406.05 -20.75 -404.0 -19.55 -400.3 -20.5 -396.85 -20.05 -396.5 -19.0 -397.05 -17.7 -397.8 -16.5 -397.8 -9.25 -387.95 -9.1 -382.45 L-9.0 -378.95 Q-8.65 -376.25 -7.45 -375.35 -5.3 -373.8 -5.3 -368.1 L-6.15 -357.85 Q-7.1 -347.9 -7.2 -342.55 L-7.65 -342.3 -8.4 -341.85 Q-9.45 -342.0 -9.9 -342.25 -10.45 -340.6 -12.0 -339.55 -14.5 -337.85 -14.8 -333.55 L-15.05 -333.15 -16.0 -332.35 Q-18.95 -332.65 -19.2 -333.8 -19.95 -332.45 -21.75 -331.0 L-22.15 -330.7 -22.05 -328.1 -22.45 -322.55 -23.0 -315.6 Q-23.0 -314.9 -23.5 -314.45 L-24.5 -321.85 -24.9 -328.05 -25.45 -327.1 -26.6 -324.4 Q-27.75 -321.6 -29.65 -319.75 -32.25 -317.2 -33.45 -315.4 L-33.7 -315.4 Q-33.7 -314.45 -38.8 -310.6 -44.2 -306.5 -44.85 -305.15 -47.15 -305.7 -47.65 -307.25 -47.95 -308.25 -52.1 -308.0 L-51.85 -316.9 -51.95 -319.6 Q-52.05 -320.55 -52.6 -321.55 L-52.8 -321.55 -53.55 -311.6 Q-53.55 -308.05 -54.75 -306.6 -56.15 -304.95 -59.95 -304.95 L-60.8 -303.6 Q-61.6 -302.3 -62.45 -302.3 -64.8 -302.3 -65.15 -303.1 L-66.1 -305.5 -66.65 -306.4 Q-67.2 -307.0 -68.4 -307.3 -68.75 -307.4 -69.1 -308.65 -69.45 -309.75 -70.05 -309.7 -70.7 -309.6 -71.4 -310.1 L-72.4 -311.1 -72.7 -310.2 -73.15 -308.25 -74.55 -308.25 Q-74.55 -309.3 -74.85 -310.65 L-75.5 -312.55 -77.15 -313.0 -77.6 -311.75 Q-77.9 -311.0 -78.35 -310.85 -81.4 -312.95 -81.3 -316.7 -81.25 -318.85 -80.25 -323.2 -79.65 -329.4 -80.95 -335.2 L-82.55 -335.55 -85.0 -335.7 -85.6 -329.3 -86.2 -323.0 -86.9 -322.5 Q-88.9 -324.95 -89.05 -331.1 -89.15 -337.95 -89.75 -339.25 L-90.9 -343.35 Q-91.3 -345.2 -92.5 -346.0 -94.9 -347.65 -95.3 -349.35 -95.85 -351.5 -97.25 -352.9 -97.75 -349.9 -99.15 -347.7 L-101.05 -347.9 Q-101.95 -353.4 -101.5 -362.15 -101.5 -364.3 -102.45 -368.95 -103.4 -373.55 -103.4 -375.6 L-104.1 -376.2 -104.95 -374.7 Q-105.4 -373.75 -105.8 -373.55 L-106.65 -374.85 -106.75 -377.15 -106.7 -379.55 -106.95 -381.3 -106.65 -381.25 -106.5 -384.15 -105.55 -384.15 Q-105.25 -383.5 -105.05 -380.8 L-104.35 -380.55 -102.2 -384.85 Q-101.05 -387.3 -101.05 -388.15 -101.05 -389.55 -102.0 -390.1 -102.95 -390.65 -102.95 -390.8 L-102.95 -397.55 -102.9 -402.5 Q-102.65 -405.75 -101.5 -407.05 L-100.55 -407.05 -100.05 -404.55 Q-99.7 -402.9 -99.15 -402.05 L-98.65 -401.85 Q-98.25 -403.6 -96.3 -405.65 -94.95 -403.95 -94.6 -402.75 L-94.15 -401.1 Q-92.0 -406.75 -91.1 -415.45 L-89.75 -430.45 -88.35 -430.7 Q-87.15 -425.45 -86.9 -422.15 L-86.65 -421.8 Q-84.35 -422.3 -83.95 -422.55 L-81.7 -424.25" fill="#0fb8f0" fill-rule="evenodd" stroke="none"/>
      <path d="M54.5 -670.25 Q54.95 -669.25 54.95 -667.45 54.95 -663.0 53.9 -660.85 55.2 -655.15 55.25 -647.8 55.3 -640.55 53.65 -625.8 52.7 -616.45 52.85 -604.65 52.95 -597.55 53.65 -583.3 55.05 -556.25 55.55 -540.15 56.35 -516.0 56.05 -496.85 55.6 -461.55 56.0 -391.95 L56.5 -326.05 55.65 -276.1 56.3 -272.05 Q56.3 -262.2 57.1 -257.9 L57.8 -230.95 58.0 -217.15 58.5 -203.3 59.2 -196.6 60.2 -189.85 Q60.35 -188.85 61.05 -186.35 63.75 -181.9 69.2 -178.6 70.85 -177.65 81.6 -175.1 L94.6 -171.95 Q111.2 -166.85 114.35 -164.9 127.2 -157.05 134.35 -146.55 141.05 -136.65 141.05 -126.9 141.05 -120.3 135.05 -108.2 128.05 -94.1 120.4 -92.35 L126.1 -101.75 Q129.1 -106.55 130.15 -110.05 130.45 -111.05 131.9 -114.3 124.0 -108.05 105.8 -102.95 95.8 -100.15 84.4 -98.1 76.2 -95.9 59.9 -93.15 38.5 -89.5 29.65 -89.5 L25.75 -89.95 16.3 -88.55 Q5.4 -87.15 -10.3 -88.55 L-4.4 -87.85 -11.9 -88.05 -19.2 -88.55 -17.85 -89.4 -14.6 -89.05 Q-12.6 -89.05 -10.0 -90.35 L-8.4 -90.0 Q22.35 -92.35 42.5 -94.95 L51.85 -96.95 Q66.15 -100.1 75.25 -102.35 L83.6 -105.85 Q92.25 -109.3 104.3 -113.45 L106.9 -115.5 Q112.45 -119.7 112.45 -121.6 112.45 -123.25 107.0 -125.4 99.85 -128.25 88.8 -128.25 L87.4 -128.25 Q82.95 -127.0 67.4 -125.0 L30.15 -120.65 Q3.75 -117.55 -21.6 -116.75 L-55.2 -115.5 -56.6 -115.15 -87.85 -115.15 -89.5 -115.35 -98.2 -114.8 Q-115.45 -114.8 -150.4 -122.5 L-175.95 -128.35 -179.75 -129.15 -196.5 -130.35 Q-207.5 -130.35 -213.55 -126.6 -217.75 -123.95 -217.75 -121.6 -217.75 -120.25 -214.95 -115.65 -212.25 -111.2 -210.65 -109.6 L-210.7 -109.1 Q-211.05 -108.65 -212.55 -108.65 -213.95 -108.65 -215.6 -109.6 L-217.3 -110.55 -223.45 -111.8 -227.5 -112.45 -230.75 -112.05 -234.75 -111.5 Q-235.95 -110.65 -237.05 -108.0 L-237.8 -105.9 Q-236.85 -103.4 -234.05 -98.9 -230.05 -92.45 -227.25 -89.5 L-227.35 -89.1 Q-227.6 -88.7 -228.2 -88.55 -237.85 -96.25 -241.25 -104.15 -243.75 -110.0 -243.75 -119.45 -243.75 -129.75 -237.75 -139.05 -230.85 -149.75 -218.0 -155.65 -208.75 -161.0 -203.55 -163.3 -194.7 -167.2 -177.4 -169.55 -166.75 -171.0 -163.15 -176.4 L-162.65 -181.8 Q-161.95 -188.85 -161.95 -192.6 L-160.15 -215.8 Q-159.1 -230.0 -159.1 -232.95 L-161.25 -324.05 -163.4 -415.15 -161.5 -513.0 Q-161.0 -544.1 -161.95 -609.4 -161.95 -625.1 -160.85 -639.85 L-160.1 -648.05 Q-160.55 -650.6 -160.55 -657.6 -160.55 -667.7 -156.45 -669.8 -154.8 -670.65 -153.65 -669.1 -152.35 -667.4 -152.35 -663.65 -152.35 -662.9 -153.3 -658.35 L-153.9 -654.85 Q-150.45 -636.65 -150.1 -620.75 L-149.6 -619.4 -147.6 -612.55 Q-145.05 -603.8 -138.7 -598.7 -135.2 -595.9 -127.25 -594.0 L-112.6 -591.1 Q-103.9 -589.35 -99.95 -587.3 L-98.2 -586.25 -96.35 -585.25 -86.65 -578.4 -80.25 -575.9 -63.0 -573.0 Q-51.8 -571.0 -50.45 -570.1 L-48.7 -569.05 Q-42.7 -567.85 -37.7 -564.8 L-33.5 -561.8 Q-21.6 -558.6 -13.85 -558.6 L-9.35 -559.1 Q0.8 -561.8 10.1 -568.25 15.8 -572.2 22.45 -578.45 L33.0 -588.75 Q39.65 -595.05 43.05 -606.95 L45.5 -616.6 46.35 -619.6 45.55 -629.15 Q44.3 -649.0 47.6 -661.05 L47.2 -661.95 Q46.75 -663.2 46.75 -663.9 46.75 -668.25 47.55 -669.9 48.85 -672.55 52.8 -672.2 54.05 -671.25 54.5 -670.25 M36.35 -538.15 Q33.9 -536.05 31.45 -533.05 L23.95 -522.35 21.0 -518.35 Q18.4 -515.05 15.4 -512.65 6.3 -505.4 -7.1 -505.4 -18.1 -505.4 -25.6 -508.35 -30.65 -510.35 -36.85 -515.2 -44.1 -520.9 -47.7 -522.85 -55.05 -526.85 -65.15 -528.3 -78.35 -530.2 -84.75 -529.8 L-88.8 -529.25 -91.75 -530.65 -96.15 -533.75 Q-98.9 -535.7 -105.55 -541.5 -108.05 -543.8 -115.2 -546.95 -125.4 -551.45 -134.65 -551.45 -140.75 -551.45 -148.4 -547.35 -150.05 -544.7 -151.05 -541.75 -152.25 -538.1 -153.05 -532.15 L-153.2 -530.8 -152.0 -486.0 -150.1 -414.4 -151.05 -373.7 -149.85 -367.55 -147.35 -355.05 -144.7 -347.75 -142.95 -345.85 Q-136.85 -339.15 -127.5 -336.65 -120.75 -334.45 -113.65 -326.25 -110.25 -322.35 -108.35 -319.0 L-99.85 -307.8 Q-93.05 -298.75 -90.25 -293.75 -88.7 -290.95 -85.0 -286.9 -81.25 -282.8 -77.4 -279.65 -74.75 -277.45 -66.25 -272.05 L-65.5 -271.55 -55.25 -266.6 Q-38.75 -259.1 -28.25 -259.1 -5.25 -259.1 9.85 -274.9 15.35 -280.65 21.15 -289.9 L30.4 -305.4 Q35.15 -313.15 41.1 -333.75 43.35 -341.45 45.3 -346.45 L45.7 -392.35 Q46.2 -463.0 45.6 -499.2 45.45 -513.3 45.9 -531.1 45.6 -532.05 45.6 -532.55 L45.6 -532.8 45.5 -533.0 45.25 -533.8 43.7 -536.65 42.9 -537.85 41.3 -539.1 38.65 -539.15 36.35 -538.15 M38.2 -232.0 Q30.6 -228.15 26.9 -221.15 25.75 -218.95 23.95 -214.2 22.3 -209.85 21.1 -207.8 19.95 -205.8 16.55 -201.5 13.15 -197.2 11.95 -195.1 10.1 -191.95 5.85 -189.5 2.0 -187.3 -3.05 -186.25 -6.4 -184.05 -10.3 -184.05 -15.5 -184.05 -20.35 -186.15 -26.5 -187.9 -30.85 -193.15 -33.65 -196.55 -40.35 -210.15 -44.35 -218.1 -50.95 -223.2 -58.15 -228.8 -67.95 -230.5 L-69.1 -230.25 Q-71.5 -229.95 -74.95 -230.85 L-75.0 -230.85 -75.1 -230.9 -78.1 -231.9 -78.3 -231.95 -80.0 -232.6 Q-91.9 -235.55 -98.8 -251.95 L-101.25 -257.7 Q-108.45 -266.1 -112.9 -270.0 -118.2 -274.55 -123.55 -276.4 -128.8 -278.2 -136.55 -278.2 L-137.9 -278.15 -140.35 -276.65 -146.75 -272.7 -147.05 -272.15 Q-149.0 -268.45 -150.75 -263.3 L-152.35 -258.2 -151.85 -226.4 -151.4 -201.65 Q-149.45 -195.85 -147.4 -192.0 -145.2 -187.9 -142.05 -184.65 L-141.4 -184.2 Q-131.3 -177.55 -113.75 -174.05 -96.2 -170.55 -64.8 -161.4 -43.45 -155.2 -30.15 -155.2 -3.65 -155.2 17.45 -163.85 21.55 -165.55 24.95 -167.25 L25.6 -167.85 33.95 -175.0 Q35.9 -177.55 38.2 -184.7 39.25 -186.8 40.95 -187.9 L43.55 -199.5 Q44.05 -201.75 44.7 -203.65 L44.75 -206.35 45.6 -223.9 44.8 -226.15 43.8 -229.2 40.45 -230.9 Q39.1 -231.5 38.2 -232.0 M23.65 -129.55 L23.2 -129.35 22.7 -129.45 16.55 -128.75 -1.4 -126.95 -1.75 -126.75 -7.85 -126.65 Q-13.9 -125.15 -16.0 -125.15 L-17.75 -125.2 -17.95 -124.95 -25.65 -124.65 -44.1 -123.75 -44.05 -123.95 Q-44.85 -124.65 -49.95 -124.9 L-51.9 -124.25 -53.7 -124.05 Q-54.65 -124.7 -58.5 -125.15 L-106.3 -125.15 -109.25 -125.65 -122.45 -128.2 -122.75 -128.25 -123.1 -128.5 -123.2 -128.4 -123.4 -128.45 Q-128.65 -129.95 -133.6 -130.45 L-133.9 -130.95 -134.9 -131.55 -135.25 -131.7 -149.25 -134.7 Q-163.55 -138.25 -172.15 -138.5 L-173.6 -137.5 -173.1 -137.05 Q-173.6 -136.4 -173.6 -135.35 -172.95 -134.7 -170.45 -133.6 -168.6 -132.75 -167.65 -132.55 L-166.4 -131.5 -164.0 -131.1 Q-139.25 -126.95 -135.1 -126.55 L-135.05 -126.55 -134.95 -126.65 -134.9 -126.55 -126.25 -125.15 -119.45 -124.45 -117.7 -124.65 -110.4 -123.8 -89.25 -121.55 -88.7 -121.95 -83.35 -121.6 -73.7 -121.2 -63.35 -121.6 -57.45 -121.95 -55.2 -121.6 -54.05 -121.65 -51.0 -121.7 -49.95 -121.6 -47.35 -121.9 -34.1 -122.75 -24.45 -122.75 -10.8 -123.6 -10.8 -123.5 -7.45 -123.25 -0.75 -124.3 -0.5 -124.35 12.4 -125.45 25.05 -127.0 26.2 -127.5 Q29.1 -127.55 35.85 -129.0 L40.8 -130.15 42.6 -130.3 51.2 -132.4 Q67.2 -136.55 69.45 -139.15 L70.15 -140.6 64.75 -139.6 Q63.1 -138.6 60.7 -137.85 52.6 -135.75 45.85 -133.65 L39.7 -133.1 Q35.05 -131.55 29.35 -131.55 25.55 -130.7 23.65 -129.55 M-153.4 -544.45 L-153.55 -544.35 -153.55 -544.05 -153.4 -544.45 M-207.65 -108.15 L-206.7 -108.15 Q-194.95 -101.0 -139.4 -93.8 L-138.8 -93.55 -137.0 -93.5 -135.45 -93.3 -132.8 -92.45 Q-130.05 -91.2 -124.65 -90.95 L-119.8 -90.95 -115.9 -90.0 -115.85 -89.9 -122.1 -89.6 -128.0 -89.65 -131.55 -90.25 -143.15 -91.0 -153.3 -91.9 Q-161.05 -92.7 -165.05 -94.25 L-169.25 -95.0 Q-173.2 -95.7 -173.35 -95.95 -182.8 -97.65 -192.5 -100.65 -202.45 -103.75 -207.8 -106.75 L-207.65 -108.15 M-81.7 -90.25 Q-72.4 -90.25 -71.7 -89.5 L-59.75 -90.0 -45.75 -90.25 Q-41.0 -89.05 -39.15 -89.05 L-36.6 -89.15 -35.85 -89.3 Q-35.15 -89.45 -34.55 -89.7 L-34.4 -89.5 -39.95 -88.4 -46.15 -87.6 -58.05 -88.15 Q-68.9 -88.65 -77.25 -88.55 -78.65 -89.4 -81.15 -89.65 L-81.7 -90.25" fill="#a0f7fe" fill-rule="evenodd" stroke="none"/>
    </g>
    <g id="shape2" transform="matrix(1.0, 0.0, 0.0, 1.0, -193.35, 362.85)">
      <path d="M206.6 -354.65 L206.7 -354.65 208.05 -353.0 Q209.35 -353.15 209.35 -350.35 L209.05 -348.15 208.5 -347.25 207.9 -346.1 206.95 -345.45 206.25 -343.4 206.3 -343.25 206.2 -342.95 206.1 -342.85 205.9 -342.0 205.9 -340.25 205.9 -338.8 Q206.5 -336.25 206.65 -332.6 L206.85 -325.65 207.7 -318.8 208.2 -312.0 208.4 -310.05 Q208.95 -306.8 209.3 -302.5 L209.6 -298.8 210.6 -288.7 Q211.85 -284.9 213.7 -276.95 215.85 -267.65 215.85 -266.5 L215.55 -260.0 215.7 -259.25 215.25 -257.7 215.2 -257.55 214.95 -257.3 Q214.15 -256.3 213.2 -256.3 L210.2 -256.4 209.95 -255.35 209.95 -255.15 209.2 -253.45 208.2 -252.05 207.95 -252.3 207.75 -252.25 207.7 -253.0 207.7 -253.25 207.75 -253.6 208.05 -255.35 208.3 -258.35 208.3 -259.75 207.55 -259.5 Q204.15 -270.85 203.55 -278.9 L202.2 -288.15 Q201.1 -295.15 201.1 -298.3 L201.1 -298.5 Q199.8 -305.85 199.75 -310.55 L199.7 -310.95 199.75 -311.45 199.75 -312.45 199.6 -313.35 199.9 -321.3 200.5 -330.05 201.3 -338.7 201.65 -342.75 200.25 -343.8 Q198.95 -344.95 198.4 -345.85 L197.85 -346.35 195.6 -348.25 193.85 -348.6 193.4 -349.05 193.35 -349.65 193.45 -350.4 193.35 -350.7 193.6 -351.65 193.5 -352.5 Q193.5 -354.45 194.95 -356.65 L196.7 -359.1 197.0 -360.25 Q197.55 -361.5 198.6 -361.45 199.35 -361.4 199.55 -360.85 L200.35 -360.15 201.85 -357.85 Q203.9 -357.05 205.05 -356.25 L206.1 -355.3 206.6 -354.65 M203.9 -354.65 Q202.9 -355.25 202.45 -355.85 L202.4 -355.85 202.1 -355.85 205.15 -348.15 205.55 -347.05 205.65 -346.75 205.85 -346.6 206.1 -346.55 206.2 -346.75 207.75 -349.8 Q207.75 -351.95 204.95 -354.1 L203.9 -354.65 M195.75 -354.55 L195.4 -352.5 195.35 -351.9 195.85 -350.85 196.0 -350.6 196.45 -350.2 Q198.45 -347.8 199.25 -347.25 L200.05 -346.4 201.7 -345.0 202.65 -344.15 202.75 -344.1 Q203.55 -343.6 204.3 -343.3 L204.5 -343.25 204.5 -343.45 204.55 -343.8 204.7 -344.0 203.7 -345.55 202.5 -347.5 201.25 -349.5 201.5 -349.5 203.25 -347.85 203.4 -347.75 204.8 -346.15 204.9 -345.95 204.9 -346.0 204.35 -348.1 202.65 -352.3 Q200.5 -356.9 198.4 -359.55 L198.35 -359.55 197.75 -358.35 198.1 -358.35 Q198.55 -357.3 198.9 -357.0 197.8 -357.25 197.25 -357.65 L196.9 -357.15 195.85 -354.85 195.75 -354.55 M208.0 -349.25 L208.05 -349.4 208.05 -349.7 208.0 -349.25 M197.85 -362.55 L197.7 -362.85 197.9 -362.65 198.0 -362.6 197.85 -362.55 M194.5 -349.75 L194.45 -349.75 194.4 -349.75 194.5 -349.75 M201.75 -331.95 Q201.0 -323.85 201.0 -318.45 201.0 -306.8 204.55 -288.85 L207.35 -272.6 209.2 -259.3 209.15 -257.3 209.25 -257.3 209.5 -257.95 209.7 -259.5 209.8 -259.6 210.0 -263.35 210.05 -265.0 210.15 -264.45 210.5 -264.45 210.75 -259.25 210.45 -257.35 213.45 -257.85 213.5 -258.1 214.2 -258.9 214.35 -259.2 214.35 -259.15 214.45 -259.35 214.55 -259.65 214.2 -265.55 213.7 -268.65 213.1 -272.45 212.2 -276.25 211.7 -278.7 Q210.75 -282.5 210.25 -285.75 L209.85 -287.45 209.6 -290.9 208.8 -297.6 207.2 -310.95 206.4 -320.8 206.35 -320.95 206.2 -322.95 206.15 -323.65 206.05 -325.0 206.0 -325.6 205.45 -332.25 Q205.15 -324.8 203.75 -315.35 L203.7 -313.05 203.7 -309.4 203.7 -306.25 203.15 -312.25 203.4 -316.7 203.3 -317.2 Q203.3 -321.05 203.6 -323.5 L203.8 -325.35 203.85 -329.1 204.35 -334.35 204.65 -341.8 204.5 -341.8 203.4 -341.95 203.1 -341.45 Q202.75 -340.75 202.55 -339.85 L202.3 -338.75 201.75 -331.95 M202.9 -289.9 L204.05 -280.25 205.7 -270.15 Q206.95 -263.5 208.05 -261.05 L207.55 -265.05 207.55 -265.1 Q207.55 -266.3 207.15 -267.35 L207.1 -267.55 207.0 -267.8 206.3 -270.55 205.9 -272.85 205.95 -273.15 205.45 -275.3 204.45 -280.75 Q203.8 -283.3 203.65 -285.15 L203.4 -287.4 202.9 -289.9" fill="#480000" fill-rule="evenodd" stroke="none"/>
      <path d="M203.9 -354.65 L204.95 -354.1 Q207.75 -351.95 207.75 -349.8 L206.2 -346.75 206.1 -346.55 205.85 -346.6 205.65 -346.75 205.55 -347.05 205.15 -348.15 202.1 -355.85 202.4 -355.85 202.45 -355.85 Q202.9 -355.25 203.9 -354.65 M203.4 -347.75 L203.3 -347.85 203.25 -347.9 Q199.05 -352.2 195.75 -354.55 L195.85 -354.85 196.9 -357.15 197.25 -357.65 Q197.8 -357.25 198.9 -357.0 198.55 -357.3 198.1 -358.35 L197.75 -358.35 198.35 -359.55 198.4 -359.55 Q200.5 -356.9 202.65 -352.3 L204.35 -348.1 204.9 -346.0 204.8 -346.15 203.4 -347.75 M201.75 -331.95 L202.3 -338.75 202.55 -339.85 Q202.75 -340.75 203.1 -341.45 L203.4 -341.95 204.5 -341.8 204.65 -341.8 204.35 -334.35 203.85 -329.1 203.8 -325.35 203.6 -323.5 Q203.3 -321.05 203.3 -317.2 L203.4 -316.7 203.15 -312.25 203.7 -306.25 203.7 -309.4 203.7 -313.05 203.75 -315.35 Q205.15 -324.8 205.45 -332.25 L206.0 -325.6 206.05 -325.0 206.15 -323.65 206.2 -322.95 206.35 -320.95 206.4 -320.8 207.2 -310.95 208.8 -297.6 209.6 -290.9 209.85 -287.45 210.25 -285.75 Q210.75 -282.5 211.7 -278.7 L212.2 -276.25 213.1 -272.45 213.7 -268.65 214.2 -265.55 214.55 -259.65 214.45 -259.35 214.35 -259.15 214.35 -259.2 214.2 -258.9 213.5 -258.1 213.45 -257.85 210.45 -257.35 210.75 -259.25 210.5 -264.45 210.15 -264.45 210.05 -265.0 210.0 -263.35 209.8 -259.6 209.7 -259.5 209.5 -257.95 209.25 -257.3 209.15 -257.3 209.2 -259.3 207.35 -272.6 204.55 -288.85 Q201.0 -306.8 201.0 -318.45 201.0 -323.85 201.75 -331.95" fill="#990000" fill-rule="evenodd" stroke="none"/>
      <path d="M203.4 -347.75 L203.25 -347.85 201.5 -349.5 201.25 -349.5 202.5 -347.5 203.7 -345.55 204.7 -344.0 204.55 -343.8 204.5 -343.45 204.5 -343.25 204.3 -343.3 Q203.55 -343.6 202.75 -344.1 L202.65 -344.15 201.7 -345.0 200.05 -346.4 199.25 -347.25 Q198.45 -347.8 196.45 -350.2 L196.0 -350.6 195.85 -350.85 195.35 -351.9 195.4 -352.5 195.75 -354.55 Q199.05 -352.2 203.25 -347.9 L203.3 -347.85 203.4 -347.75 M204.9 -346.0 L204.9 -345.95 204.8 -346.15 204.9 -346.0 M202.9 -289.9 L203.4 -287.4 203.65 -285.15 Q203.8 -283.3 204.45 -280.75 L205.45 -275.3 205.95 -273.15 205.9 -272.85 206.3 -270.55 207.0 -267.8 207.1 -267.55 207.15 -267.35 Q207.55 -266.3 207.55 -265.1 L207.55 -265.05 208.05 -261.05 Q206.95 -263.5 205.7 -270.15 L204.05 -280.25 202.9 -289.9" fill="#720e3e" fill-rule="evenodd" stroke="none"/>
    </g>
    <g id="shape3" transform="matrix(1.0, 0.0, 0.0, 1.0, -160.6, 506.3)">
      <path d="M161.85 -499.55 L161.75 -499.35 163.25 -503.0 164.0 -503.75 166.55 -506.3 167.2 -505.65 Q169.65 -503.35 172.65 -503.35 L173.15 -503.35 174.85 -503.75 Q176.65 -504.0 177.3 -504.35 L177.3 -504.5 177.6 -504.5 177.85 -504.65 177.7 -504.35 177.75 -503.65 177.75 -503.55 177.9 -503.5 177.9 -503.0 Q177.8 -500.95 176.95 -498.75 176.3 -497.0 177.05 -492.35 176.7 -491.8 175.9 -491.25 L176.0 -490.9 175.4 -487.5 174.75 -483.55 174.9 -478.9 Q175.1 -474.8 175.65 -469.3 L177.1 -455.35 177.45 -448.25 177.75 -441.1 178.4 -434.05 178.85 -427.2 Q178.85 -422.1 178.35 -415.35 L178.35 -414.3 178.3 -413.75 178.5 -413.9 179.05 -407.5 Q180.05 -402.25 180.05 -401.0 L179.0 -399.9 178.05 -399.25 177.6 -399.3 175.6 -397.75 175.3 -397.75 175.15 -397.2 174.8 -396.55 174.75 -396.4 174.7 -396.35 174.6 -397.0 174.75 -397.3 174.55 -397.15 Q173.85 -398.25 173.6 -399.9 L173.0 -400.3 172.35 -401.55 171.3 -402.5 170.35 -403.1 Q169.65 -404.0 169.3 -405.3 L168.75 -407.5 Q167.95 -410.1 167.75 -411.8 L167.65 -416.05 168.4 -425.7 169.5 -438.95 170.15 -450.4 170.7 -458.9 170.65 -463.7 170.85 -478.9 171.0 -488.35 170.6 -488.85 169.3 -489.0 168.9 -489.05 168.7 -489.05 165.75 -488.15 165.0 -488.1 164.9 -487.85 164.65 -487.8 164.75 -487.65 164.35 -487.6 162.35 -487.65 160.95 -488.3 160.6 -491.15 161.1 -492.35 Q161.1 -492.65 161.4 -493.15 161.25 -493.45 161.25 -494.45 161.25 -497.25 161.95 -499.65 L161.85 -499.55 M165.3 -498.6 L167.45 -500.35 Q169.25 -501.55 171.2 -502.35 L171.0 -502.35 Q169.55 -502.35 167.8 -503.4 L167.5 -503.6 Q166.75 -503.8 166.3 -504.25 L165.0 -503.45 165.05 -503.3 Q163.95 -502.45 163.3 -499.65 L163.15 -499.1 162.4 -494.6 163.0 -495.15 163.05 -495.25 163.05 -495.3 163.35 -496.05 163.55 -496.35 164.2 -497.4 164.7 -498.0 165.3 -498.6 M177.3 -503.85 L177.05 -503.7 177.25 -503.65 177.3 -503.85 M164.2 -493.2 L164.15 -492.8 164.1 -492.5 163.8 -492.45 163.25 -490.85 163.3 -490.65 166.3 -492.95 Q172.15 -497.35 173.9 -498.0 174.6 -497.7 174.75 -497.4 172.6 -496.4 167.35 -492.2 L164.25 -489.65 164.5 -489.65 165.65 -489.8 167.5 -490.2 Q175.8 -491.55 175.8 -494.25 L175.4 -496.05 175.15 -496.7 Q176.3 -498.85 176.75 -500.75 L177.0 -502.9 Q171.8 -502.2 168.1 -499.15 164.7 -496.35 164.2 -493.2 M173.3 -484.0 L173.2 -483.7 173.3 -483.7 173.3 -484.0 M163.25 -492.35 L163.1 -491.8 163.3 -492.35 163.25 -492.35 M172.0 -485.25 L171.95 -484.65 172.0 -485.0 172.0 -485.25 M171.85 -478.9 L171.5 -463.7 Q171.5 -459.35 172.05 -450.9 L172.85 -438.7 173.55 -426.3 174.25 -413.85 174.25 -402.75 174.55 -401.85 174.65 -401.0 174.5 -400.15 Q174.45 -399.85 174.55 -399.6 174.75 -399.2 175.25 -399.1 L175.95 -400.0 Q176.7 -400.7 177.5 -400.35 178.5 -400.65 178.85 -401.0 L179.0 -402.1 178.5 -406.5 177.85 -411.4 177.65 -414.8 177.15 -418.7 176.55 -425.25 Q176.55 -426.7 177.0 -427.4 L177.55 -423.15 177.75 -427.25 177.0 -438.3 175.8 -453.1 174.2 -466.2 Q173.15 -473.95 173.15 -478.9 L173.15 -479.05 173.2 -481.7 172.85 -481.75 171.85 -479.65 171.85 -478.9 M171.0 -448.85 L170.15 -436.9 169.3 -426.15 168.6 -415.9 Q168.6 -414.85 169.1 -411.25 L169.6 -407.4 Q169.6 -406.95 170.15 -405.4 L170.8 -403.7 Q172.5 -403.2 173.25 -401.8 L173.25 -413.4 Q172.95 -421.75 171.65 -439.4 L171.05 -449.4 171.0 -448.85" fill="#480000" fill-rule="evenodd" stroke="none"/>
      <path d="M163.3 -499.65 Q163.95 -502.45 165.05 -503.3 L165.0 -503.45 166.3 -504.25 Q166.75 -503.8 167.5 -503.6 L167.8 -503.4 Q169.55 -502.35 171.0 -502.35 L171.2 -502.35 Q169.25 -501.55 167.45 -500.35 L165.3 -498.6 165.3 -499.25 165.1 -500.3 164.85 -500.55 163.3 -499.65 M165.65 -489.8 L167.35 -490.8 175.4 -496.05 175.8 -494.25 Q175.8 -491.55 167.5 -490.2 L165.65 -489.8 M176.75 -500.75 Q171.35 -498.3 165.4 -494.85 L164.5 -494.3 164.2 -493.2 Q164.7 -496.35 168.1 -499.15 171.8 -502.2 177.0 -502.9 L176.75 -500.75 M171.85 -478.9 L171.85 -479.65 172.85 -481.75 173.2 -481.7 173.15 -479.05 173.15 -478.9 Q173.15 -473.95 174.2 -466.2 L175.8 -453.1 177.0 -438.3 177.75 -427.25 177.55 -423.15 177.0 -427.4 Q176.55 -426.7 176.55 -425.25 L177.15 -418.7 177.65 -414.8 177.85 -411.4 178.5 -406.5 179.0 -402.1 178.85 -401.0 Q178.5 -400.65 177.5 -400.35 176.7 -400.7 175.95 -400.0 L175.25 -399.1 Q174.75 -399.2 174.55 -399.6 174.45 -399.85 174.5 -400.15 L174.65 -401.0 174.55 -401.85 174.25 -402.75 174.25 -413.85 173.55 -426.3 172.85 -438.7 172.05 -450.9 Q171.5 -459.35 171.5 -463.7 L171.85 -478.9" fill="#990000" fill-rule="evenodd" stroke="none"/>
      <path d="M163.3 -499.65 L164.85 -500.55 165.1 -500.3 165.3 -499.25 165.3 -498.6 164.7 -498.0 164.2 -497.4 163.55 -496.35 163.35 -496.05 163.05 -495.3 163.05 -495.25 163.0 -495.15 162.4 -494.6 163.15 -499.1 163.3 -499.65 M165.65 -489.8 L164.5 -489.65 164.25 -489.65 167.35 -492.2 Q172.6 -496.4 174.75 -497.4 174.6 -497.7 173.9 -498.0 172.15 -497.35 166.3 -492.95 L163.3 -490.65 163.25 -490.85 163.8 -492.45 164.1 -492.5 164.15 -492.8 164.2 -493.2 164.5 -494.3 165.4 -494.85 Q171.35 -498.3 176.75 -500.75 176.3 -498.85 175.15 -496.7 L175.4 -496.05 167.35 -490.8 165.65 -489.8 M163.25 -492.35 L163.3 -492.35 163.1 -491.8 163.25 -492.35 M171.0 -448.85 L171.05 -449.4 171.65 -439.4 Q172.95 -421.75 173.25 -413.4 L173.25 -401.8 Q172.5 -403.2 170.8 -403.7 L170.15 -405.4 Q169.6 -406.95 169.6 -407.4 L169.1 -411.25 Q168.6 -414.85 168.6 -415.9 L169.3 -426.15 170.15 -436.9 171.0 -448.85" fill="#720e3e" fill-rule="evenodd" stroke="none"/>
    </g>
  </defs>
</svg>
