<?xml version="1.0" encoding="UTF-8" standalone="no"?>
<svg xmlns:ffdec="https://www.free-decompiler.com/flash" xmlns:xlink="http://www.w3.org/1999/xlink" ffdec:objectType="frame" height="138.25px" width="127.75px" xmlns="http://www.w3.org/2000/svg">
  <g transform="matrix(1.0, 0.0, 0.0, 1.0, 63.0, 150.15)">
    <use ffdec:characterId="286" height="19.75" transform="matrix(7.0, 0.0, 0.0, 7.0, -63.0, -150.15)" width="18.25" xlink:href="#shape0"/>
  </g>
  <defs>
    <g id="shape0" transform="matrix(1.0, 0.0, 0.0, 1.0, 9.0, 21.45)">
      <path d="M6.95 -21.4 L7.15 -21.45 7.25 -21.35 8.25 -20.75 Q9.0 -20.25 9.25 -20.05 6.75 -18.45 6.25 -15.75 6.05 -14.9 6.0 -13.45 5.9 -11.8 5.8 -11.2 L5.55 -8.95 Q5.35 -7.55 5.15 -6.65 4.95 -5.8 4.0 -4.6 2.65 -2.9 1.0 -2.9 0.8 -2.9 0.85 -2.95 L0.8 -3.0 0.75 -3.1 1.0 -3.35 Q1.35 -3.65 1.6 -4.0 2.5 -5.15 2.75 -6.8 2.9 -7.45 2.85 -8.65 L2.85 -11.25 2.75 -12.95 Q2.75 -15.25 3.0 -16.55 3.3 -18.0 4.05 -19.15 4.45 -20.1 5.45 -20.55 5.55 -20.6 5.7 -20.7 L6.95 -21.4 M4.35 -18.7 Q4.15 -18.4 4.0 -18.05 3.55 -17.25 3.4 -16.15 L3.35 -15.8 Q3.15 -14.5 3.15 -13.05 3.15 -12.8 3.2 -12.3 3.15 -11.6 3.15 -10.7 L3.25 -8.3 Q3.2 -5.5 1.8 -3.65 2.55 -4.2 3.0 -4.95 L3.25 -5.5 Q3.45 -6.3 3.75 -6.9 L3.85 -7.35 Q4.0 -8.05 4.0 -8.35 4.0 -9.25 4.2 -11.25 L4.15 -11.25 4.4 -14.6 Q4.5 -15.65 4.7 -16.5 4.9 -17.8 5.05 -18.35 5.45 -19.75 6.25 -20.6 L5.55 -20.15 Q4.75 -19.65 4.45 -19.0 L4.35 -18.7 M2.1 -20.0 Q1.5 -20.3 1.15 -20.2 L0.95 -20.0 0.85 -19.85 Q0.45 -19.35 0.2 -18.25 0.0 -17.4 -0.05 -16.8 -0.15 -16.15 -0.15 -15.45 -0.15 -14.75 -0.1 -14.0 0.0 -12.9 0.25 -10.95 L0.4 -9.95 Q0.65 -8.25 0.7 -7.05 L0.7 -6.5 0.65 -6.5 0.65 -6.3 Q0.7 -6.0 0.45 -5.25 L0.4 -5.15 0.4 -5.1 0.2 -4.65 0.05 -4.3 Q1.55 -5.85 1.7 -7.65 1.8 -8.4 1.65 -9.65 1.55 -11.05 1.55 -11.6 1.35 -13.0 1.3 -13.5 1.15 -14.55 1.15 -15.45 1.15 -17.35 1.9 -18.6 2.1 -18.95 2.4 -19.3 2.65 -19.55 2.6 -19.6 2.6 -19.75 2.1 -20.0 M1.3 -20.65 L2.4 -20.3 Q3.2 -20.05 3.5 -19.9 1.4 -17.95 1.35 -15.4 1.35 -14.6 1.55 -13.3 1.75 -11.8 1.8 -11.25 L1.95 -9.2 Q2.05 -7.85 2.0 -7.05 1.95 -6.25 1.25 -4.95 0.2 -3.15 -1.35 -2.85 -1.6 -2.8 -1.55 -2.85 L-1.6 -2.85 -1.65 -2.95 -1.45 -3.25 Q-1.2 -3.55 -1.0 -3.9 -0.35 -5.15 -0.4 -6.7 -0.4 -7.3 -0.6 -8.35 L-0.8 -9.3 Q-1.95 -12.45 -1.95 -15.3 -1.95 -16.3 -1.6 -17.45 L-1.4 -18.1 Q-1.15 -18.95 -0.3 -19.55 L-0.05 -19.75 1.0 -20.65 1.2 -20.75 1.3 -20.65 M4.75 -16.1 Q4.6 -15.35 4.5 -14.55 4.4 -13.35 4.25 -11.25 L4.2 -10.1 Q4.1 -8.25 3.9 -6.95 L3.9 -6.85 3.8 -6.65 3.75 -6.4 3.75 -6.35 3.7 -6.25 3.7 -6.15 Q3.7 -5.8 3.25 -5.05 L3.25 -4.95 3.2 -4.95 2.7 -4.2 Q4.5 -5.45 5.0 -7.4 5.25 -8.15 5.35 -9.5 5.5 -11.0 5.65 -11.6 L5.8 -13.7 Q5.9 -14.85 6.05 -15.8 6.4 -17.85 7.4 -19.05 7.65 -19.35 8.05 -19.65 8.3 -19.85 8.3 -19.95 8.3 -20.1 7.85 -20.5 7.35 -20.9 7.0 -20.9 L6.85 -20.8 6.75 -20.7 6.65 -20.55 Q6.15 -20.15 5.65 -19.05 5.3 -18.2 5.15 -17.5 4.9 -16.85 4.75 -16.1 M0.15 -10.95 L-0.25 -14.0 Q-0.3 -14.95 -0.25 -15.8 -0.35 -16.95 -0.3 -17.55 -0.15 -18.85 0.5 -19.75 L-0.1 -19.25 Q-0.8 -18.65 -1.0 -17.95 -1.2 -17.55 -1.3 -17.0 -1.6 -15.95 -1.6 -14.9 -1.6 -13.5 -1.3 -12.4 -1.15 -11.8 -0.9 -11.15 L-0.7 -10.25 -0.2 -8.1 Q0.3 -5.6 -0.75 -3.7 -0.1 -4.3 0.2 -5.1 L0.35 -5.6 Q0.35 -6.35 0.55 -6.95 L0.6 -7.4 Q0.6 -8.05 0.55 -8.35 0.4 -9.1 0.2 -10.95 L0.15 -10.95 M-6.15 -14.6 Q-6.2 -14.95 -6.2 -15.2 -6.2 -16.1 -5.5 -16.9 L-5.35 -17.1 -4.6 -18.15 -4.45 -18.25 -4.35 -18.2 -3.35 -18.2 -2.3 -18.15 Q-3.75 -15.95 -3.3 -13.8 -3.15 -13.1 -2.75 -12.0 -2.25 -10.85 -2.15 -10.35 L-1.65 -8.65 Q-1.3 -7.55 -1.2 -6.85 -1.1 -6.1 -1.45 -4.9 -1.95 -3.1 -3.25 -2.4 -3.45 -2.3 -3.4 -2.35 L-3.45 -2.35 -3.5 -2.45 -3.4 -2.7 Q-3.25 -3.05 -3.15 -3.4 -2.85 -4.6 -3.15 -5.95 -3.25 -6.45 -3.65 -7.3 L-3.95 -7.85 Q-4.8 -9.35 -5.25 -10.45 -6.15 -12.55 -6.15 -14.25 L-6.15 -14.6 M-4.4 -17.8 L-4.5 -17.65 -4.55 -17.55 -4.6 -17.4 Q-4.85 -16.9 -4.85 -15.9 -4.85 -15.15 -4.75 -14.6 -4.75 -14.0 -4.6 -13.4 -4.5 -12.85 -4.3 -12.2 -4.0 -11.3 -3.4 -9.7 L-3.1 -8.9 Q-2.55 -7.5 -2.3 -6.5 L-2.25 -6.4 -2.25 -6.25 -2.2 -6.05 -2.25 -6.0 -2.2 -5.9 -2.2 -5.85 Q-2.05 -5.6 -2.15 -4.9 L-2.15 -4.8 -2.2 -4.8 -2.25 -4.35 -2.3 -4.0 Q-1.3 -5.7 -1.55 -7.3 -1.6 -7.9 -1.95 -8.95 -2.35 -10.1 -2.45 -10.6 L-3.0 -12.15 Q-3.3 -13.0 -3.5 -13.75 -3.9 -15.35 -3.45 -16.65 -3.35 -16.95 -3.15 -17.35 -3.0 -17.6 -3.0 -17.65 -3.1 -17.8 -3.55 -17.85 -4.1 -17.95 -4.4 -17.8 M-5.65 -15.95 Q-5.85 -15.5 -5.85 -14.55 -5.85 -12.35 -4.7 -10.25 L-4.55 -9.9 -3.9 -8.5 -3.25 -7.2 Q-2.35 -5.15 -2.9 -3.25 -2.45 -4.0 -2.35 -4.7 L-2.3 -5.2 Q-2.45 -5.85 -2.4 -6.4 L-2.45 -6.8 Q-2.55 -7.3 -2.65 -7.55 -2.95 -8.2 -3.45 -9.7 L-3.5 -9.7 -4.4 -12.2 Q-4.65 -13.0 -4.75 -13.7 -5.05 -14.65 -5.1 -15.15 -5.25 -16.3 -4.85 -17.25 L-5.3 -16.65 -5.6 -16.1 -5.65 -15.95 M-4.95 -7.8 Q-4.25 -6.95 -3.95 -6.5 -3.4 -5.7 -3.4 -4.95 -3.4 -4.7 -3.5 -4.25 L-3.5 -4.15 Q-3.6 -2.65 -4.5 -1.8 L-4.6 -1.7 -4.65 -1.7 -4.75 -1.75 -4.7 -2.0 Q-4.6 -2.3 -4.6 -2.55 -4.6 -3.1 -4.7 -3.6 -5.05 -4.25 -5.8 -5.1 L-7.2 -6.7 Q-7.55 -7.15 -7.8 -7.55 L-7.9 -7.65 -8.05 -7.85 -8.4 -8.5 -8.6 -8.8 -8.65 -8.9 -8.95 -9.8 -8.95 -10.15 -9.0 -11.05 -8.95 -11.7 -8.9 -11.75 -8.8 -12.0 -8.65 -12.3 -8.65 -12.45 -8.6 -12.45 -8.55 -12.6 -8.4 -12.95 -8.3 -13.05 -8.2 -13.1 -7.4 -13.35 -7.1 -13.45 -7.1 -13.5 -6.95 -13.5 -6.55 -13.6 Q-6.85 -12.8 -6.95 -12.05 -6.75 -10.45 -5.85 -9.0 L-5.8 -9.0 -5.05 -7.95 -4.95 -7.8 M-8.2 -12.65 L-8.25 -12.55 -8.25 -12.4 Q-8.35 -11.95 -8.2 -11.2 -8.1 -10.65 -7.9 -10.3 -7.75 -9.9 -7.55 -9.5 L-7.1 -8.7 -5.95 -7.1 -5.55 -6.6 Q-4.85 -5.75 -4.45 -5.05 L-4.45 -5.0 -4.4 -4.9 -4.3 -4.75 -4.35 -4.75 -4.3 -4.65 -4.25 -4.6 Q-4.15 -4.45 -4.1 -3.9 L-4.05 -3.85 -4.1 -3.85 -4.05 -3.5 -4.05 -3.25 Q-3.75 -4.1 -3.8 -4.8 -4.15 -5.85 -4.65 -6.75 -5.0 -7.35 -5.85 -8.5 -6.55 -9.45 -6.85 -10.1 -7.0 -10.5 -7.1 -10.95 -7.25 -11.4 -7.25 -11.85 L-7.25 -12.25 Q-7.25 -12.7 -7.2 -13.05 L-7.55 -13.05 Q-7.95 -12.95 -8.2 -12.75 L-8.2 -12.65 M-8.65 -10.9 Q-8.65 -10.45 -8.55 -9.85 L-8.4 -9.4 -7.95 -8.6 -7.2 -7.35 Q-6.95 -6.9 -6.35 -6.3 L-6.05 -6.05 -5.5 -5.3 Q-4.95 -4.75 -4.7 -4.2 L-4.65 -4.2 -4.55 -3.95 -4.4 -3.6 -4.4 -3.5 Q-4.3 -3.15 -4.3 -2.8 -4.15 -3.3 -4.2 -3.75 L-4.25 -4.1 Q-4.5 -4.55 -4.55 -4.95 L-4.65 -5.25 Q-4.8 -5.6 -4.95 -5.75 -5.3 -6.15 -6.0 -7.1 L-6.0 -7.05 -7.2 -8.65 Q-7.5 -9.15 -7.75 -9.65 -8.15 -10.3 -8.3 -10.6 -8.5 -11.2 -8.5 -11.75 -8.65 -11.15 -8.65 -10.9" fill="#111111" fill-rule="evenodd" stroke="none"/>
      <path d="M4.35 -18.7 L4.45 -19.0 Q4.75 -19.65 5.55 -20.15 L6.25 -20.6 Q5.45 -19.75 5.05 -18.35 4.9 -17.8 4.7 -16.5 4.5 -15.65 4.4 -14.6 L4.15 -11.25 4.2 -11.25 Q4.0 -9.25 4.0 -8.35 4.0 -8.05 3.85 -7.35 L3.75 -6.9 Q3.45 -6.3 3.25 -5.5 L3.0 -4.95 Q2.55 -4.2 1.8 -3.65 3.2 -5.5 3.25 -8.3 L3.15 -10.7 Q3.15 -11.6 3.2 -12.3 3.15 -12.8 3.15 -13.05 3.15 -14.5 3.35 -15.8 L3.4 -16.15 Q3.55 -17.25 4.0 -18.05 4.15 -18.4 4.35 -18.7 M2.1 -20.0 Q2.6 -19.75 2.6 -19.6 2.65 -19.55 2.4 -19.3 2.1 -18.95 1.9 -18.6 1.15 -17.35 1.15 -15.45 1.15 -14.55 1.3 -13.5 1.35 -13.0 1.55 -11.6 1.55 -11.05 1.65 -9.65 1.8 -8.4 1.7 -7.65 1.55 -5.85 0.05 -4.3 L0.2 -4.65 0.4 -5.1 0.4 -5.15 0.45 -5.25 Q0.7 -6.0 0.65 -6.3 L0.65 -6.5 0.7 -6.5 0.7 -7.05 Q0.65 -8.25 0.4 -9.95 L0.25 -10.95 Q0.0 -12.9 -0.1 -14.0 -0.15 -14.75 -0.15 -15.45 -0.15 -16.15 -0.05 -16.8 0.0 -17.4 0.2 -18.25 0.45 -19.35 0.85 -19.85 L0.95 -20.0 1.15 -20.2 Q1.5 -20.3 2.1 -20.0 M-4.4 -17.8 Q-4.1 -17.95 -3.55 -17.85 -3.1 -17.8 -3.0 -17.65 -3.0 -17.6 -3.15 -17.35 -3.35 -16.95 -3.45 -16.65 -3.9 -15.35 -3.5 -13.75 -3.3 -13.0 -3.0 -12.15 L-2.45 -10.6 Q-2.35 -10.1 -1.95 -8.95 -1.6 -7.9 -1.55 -7.3 -1.3 -5.7 -2.3 -4.0 L-2.25 -4.35 -2.2 -4.8 -2.15 -4.8 -2.15 -4.9 Q-2.05 -5.6 -2.2 -5.85 L-2.2 -5.9 -2.25 -6.0 -2.2 -6.05 -2.25 -6.25 -2.25 -6.4 -2.3 -6.5 Q-2.55 -7.5 -3.1 -8.9 L-3.4 -9.7 Q-4.0 -11.3 -4.3 -12.2 -4.5 -12.85 -4.6 -13.4 -4.75 -14.0 -4.75 -14.6 -4.85 -15.15 -4.85 -15.9 -4.85 -16.9 -4.6 -17.4 L-4.55 -17.55 -4.5 -17.65 -4.4 -17.8 M-8.2 -12.65 L-8.2 -12.75 Q-7.95 -12.95 -7.55 -13.05 L-7.2 -13.05 Q-7.25 -12.7 -7.25 -12.25 L-7.25 -11.85 Q-7.25 -11.4 -7.1 -10.95 -7.0 -10.5 -6.85 -10.1 -6.55 -9.45 -5.85 -8.5 -5.0 -7.35 -4.65 -6.75 -4.15 -5.85 -3.8 -4.8 -3.75 -4.1 -4.05 -3.25 L-4.05 -3.5 -4.1 -3.85 -4.05 -3.85 -4.1 -3.9 Q-4.15 -4.45 -4.25 -4.6 L-4.3 -4.65 -4.35 -4.75 -4.3 -4.75 -4.4 -4.9 -4.45 -5.0 -4.45 -5.05 Q-4.85 -5.75 -5.55 -6.6 L-5.95 -7.1 -7.1 -8.7 -7.55 -9.5 Q-7.75 -9.9 -7.9 -10.3 -8.1 -10.65 -8.2 -11.2 -8.35 -11.95 -8.25 -12.4 L-8.25 -12.55 -8.2 -12.65" fill="#a2b2bf" fill-rule="evenodd" stroke="none"/>
      <path d="M0.15 -10.95 L0.2 -10.95 Q0.4 -9.1 0.55 -8.35 0.6 -8.05 0.6 -7.4 L0.55 -6.95 Q0.35 -6.35 0.35 -5.6 L0.2 -5.1 Q-0.1 -4.3 -0.75 -3.7 0.3 -5.6 -0.2 -8.1 L-0.7 -10.25 -0.9 -11.15 Q-1.15 -11.8 -1.3 -12.4 -1.6 -13.5 -1.6 -14.9 -1.6 -15.95 -1.3 -17.0 -1.2 -17.55 -1.0 -17.95 -0.8 -18.65 -0.1 -19.25 L0.5 -19.75 Q-0.15 -18.85 -0.3 -17.55 -0.35 -16.95 -0.25 -15.8 -0.3 -14.95 -0.25 -14.0 L0.15 -10.95 M4.75 -16.1 Q4.9 -16.85 5.15 -17.5 5.3 -18.2 5.65 -19.05 6.15 -20.15 6.65 -20.55 L6.75 -20.7 6.85 -20.8 7.0 -20.9 Q7.35 -20.9 7.85 -20.5 8.3 -20.1 8.3 -19.95 8.3 -19.85 8.05 -19.65 7.65 -19.35 7.4 -19.05 6.4 -17.85 6.05 -15.8 5.9 -14.85 5.8 -13.7 L5.65 -11.6 Q5.5 -11.0 5.35 -9.5 5.25 -8.15 5.0 -7.4 4.5 -5.45 2.7 -4.2 L3.2 -4.95 3.25 -4.95 3.25 -5.05 Q3.7 -5.8 3.7 -6.15 L3.7 -6.25 3.75 -6.35 3.75 -6.4 3.8 -6.65 3.9 -6.85 3.9 -6.95 Q4.1 -8.25 4.2 -10.1 L4.25 -11.25 Q4.4 -13.35 4.5 -14.55 4.6 -15.35 4.75 -16.1 M-5.65 -15.95 L-5.6 -16.1 -5.3 -16.65 -4.85 -17.25 Q-5.25 -16.3 -5.1 -15.15 -5.05 -14.65 -4.75 -13.7 -4.65 -13.0 -4.4 -12.2 L-3.5 -9.7 -3.45 -9.7 Q-2.95 -8.2 -2.65 -7.55 -2.55 -7.3 -2.45 -6.8 L-2.4 -6.4 Q-2.45 -5.85 -2.3 -5.2 L-2.35 -4.7 Q-2.45 -4.0 -2.9 -3.25 -2.35 -5.15 -3.25 -7.2 L-3.9 -8.5 -4.55 -9.9 -4.7 -10.25 Q-5.85 -12.35 -5.85 -14.55 -5.85 -15.5 -5.65 -15.95 M-8.65 -10.9 Q-8.65 -11.15 -8.5 -11.75 -8.5 -11.2 -8.3 -10.6 -8.15 -10.3 -7.75 -9.65 -7.5 -9.15 -7.2 -8.65 L-6.0 -7.05 -6.0 -7.1 Q-5.3 -6.15 -4.95 -5.75 -4.8 -5.6 -4.65 -5.25 L-4.55 -4.95 Q-4.5 -4.55 -4.25 -4.1 L-4.2 -3.75 Q-4.15 -3.3 -4.3 -2.8 -4.3 -3.15 -4.4 -3.5 L-4.4 -3.6 -4.55 -3.95 -4.65 -4.2 -4.7 -4.2 Q-4.95 -4.75 -5.5 -5.3 L-6.05 -6.05 -6.35 -6.3 Q-6.95 -6.9 -7.2 -7.35 L-7.95 -8.6 -8.4 -9.4 -8.55 -9.85 Q-8.65 -10.45 -8.65 -10.9" fill="#6c7680" fill-rule="evenodd" stroke="none"/>
    </g>
  </defs>
</svg>
