<?xml version="1.0" encoding="UTF-8" standalone="no"?>
<svg xmlns:ffdec="https://www.free-decompiler.com/flash" xmlns:xlink="http://www.w3.org/1999/xlink" ffdec:objectType="frame" height="540.05px" width="540.05px" xmlns="http://www.w3.org/2000/svg">
  <g transform="matrix(1.0, 0.0, 0.0, 1.0, 270.2, 269.85)">
    <use ffdec:characterId="387" height="19.9" transform="matrix(4.3878, 3.4083, -3.2798, 4.2224, -32.8328, -132.1771)" width="17.15" xlink:href="#shape0"/>
    <use ffdec:characterId="391" height="16.1" transform="matrix(3.6843, 1.9666, -1.944, 3.642, -16.0658, -92.9903)" width="17.85" xlink:href="#shape1"/>
    <use ffdec:characterId="1451" ffdec:characterName="a_DustPuff02" height="77.9" transform="matrix(-1.5708, 0.9118, 1.0638, 1.2768, 47.7234, -131.6577)" width="87.4" xlink:href="#sprite0"/>
    <use ffdec:characterId="1271" height="23.05" transform="matrix(3.187, -2.9085, 2.9085, 3.187, -60.7856, 12.946)" width="21.1" xlink:href="#shape2"/>
    <use ffdec:characterId="1256" height="13.4" transform="matrix(1.8154, -1.6568, 1.6568, 1.8154, -30.1399, 7.0258)" width="13.15" xlink:href="#shape3"/>
    <use ffdec:characterId="1266" height="18.2" transform="matrix(3.1665, -2.8899, 2.8899, 3.1665, -87.1581, 23.7242)" width="17.35" xlink:href="#shape4"/>
    <use ffdec:characterId="1272" height="17.05" transform="matrix(2.4547, -2.2403, 2.2403, 2.4547, 13.8743, 34.658)" width="16.4" xlink:href="#shape5"/>
    <use ffdec:characterId="1274" height="20.1" transform="matrix(1.4129, -2.6234, 2.6234, 1.4129, 9.6948, -48.9958)" width="19.1" xlink:href="#shape6"/>
    <use ffdec:characterId="1272" height="17.05" transform="matrix(2.0464, -3.7998, 3.7998, 2.0464, -51.1107, 10.463)" width="16.4" xlink:href="#shape5"/>
    <use ffdec:characterId="1264" height="19.95" transform="matrix(0.8367, -1.5535, 1.5535, 0.8367, -25.4993, -63.8087)" width="19.5" xlink:href="#shape7"/>
    <use ffdec:characterId="1281" height="15.2" transform="matrix(1.9758, -3.6685, 3.6685, 1.9758, -23.3921, -36.0843)" width="16.95" xlink:href="#shape8"/>
  </g>
  <defs>
    <g id="shape0" transform="matrix(1.0, 0.0, 0.0, 1.0, 17.15, 19.9)">
      <path d="M-17.0 -18.65 Q-16.9 -19.0 -16.65 -19.25 -16.3 -19.7 -15.8 -19.8 -15.25 -19.95 -14.9 -19.7 -14.5 -19.45 -14.5 -18.8 -14.5 -18.45 -14.8 -17.9 -14.85 -18.4 -15.15 -18.7 -15.55 -19.0 -16.05 -19.0 -16.55 -19.0 -16.95 -18.7 L-17.0 -18.65 M-17.1 -9.0 Q-16.9 -11.2 -15.05 -13.15 -13.0 -15.25 -10.4 -15.7 -7.6 -16.25 -5.8 -14.35 -3.8 -12.25 -3.7 -7.6 -2.25 -7.7 -1.15 -6.95 0.0 -6.1 0.0 -4.75 0.0 -3.95 -1.0 -2.65 -1.15 -3.25 -1.55 -3.8 -2.65 -5.25 -5.4 -4.95 -4.9 -7.15 -6.85 -8.95 -8.7 -10.65 -11.45 -10.95 -14.4 -11.25 -16.35 -9.75 -16.8 -9.4 -17.1 -9.0" fill="#646556" fill-opacity="0.29803923" fill-rule="evenodd" stroke="none"/>
      <path d="M-14.8 -17.9 L-15.0 -17.55 Q-15.5 -16.7 -16.0 -16.7 -16.65 -16.7 -16.95 -17.4 -17.1 -17.8 -17.1 -18.15 L-17.0 -18.65 -16.95 -18.7 Q-16.55 -19.0 -16.05 -19.0 -15.55 -19.0 -15.15 -18.7 -14.85 -18.4 -14.8 -17.9 M-1.0 -2.65 L-1.55 -2.0 Q-3.3 0.0 -5.05 0.0 -6.65 0.0 -7.2 -1.0 -8.8 -0.15 -11.05 -0.15 -14.7 -0.15 -16.25 -4.45 -16.75 -5.75 -17.0 -7.3 L-17.15 -8.55 -17.1 -9.0 Q-16.8 -9.4 -16.35 -9.75 -14.4 -11.25 -11.45 -10.95 -8.7 -10.65 -6.85 -8.95 -4.9 -7.15 -5.4 -4.95 -2.65 -5.25 -1.55 -3.8 -1.15 -3.25 -1.0 -2.65" fill="#545640" fill-opacity="0.29803923" fill-rule="evenodd" stroke="none"/>
    </g>
    <g id="shape1" transform="matrix(1.0, 0.0, 0.0, 1.0, 17.85, 16.1)">
      <path d="M-16.7 -11.7 Q-17.3 -11.7 -17.65 -12.5 -17.85 -13.05 -17.85 -13.4 L-17.8 -13.6 Q-17.65 -13.75 -17.4 -13.75 -16.95 -13.85 -16.65 -13.6 -16.3 -13.35 -16.3 -12.75 -16.3 -12.15 -16.65 -11.7 L-16.7 -11.7 M-15.6 -5.9 L-15.5 -6.0 Q-14.65 -6.8 -13.7 -8.05 -13.4 -8.45 -12.95 -8.5 L-12.2 -8.45 Q-11.35 -8.4 -11.25 -9.6 -11.25 -10.0 -11.05 -10.5 -10.8 -11.05 -10.45 -11.3 -7.1 -13.9 -4.1 -12.6 -2.85 -12.05 -2.1 -10.95 -1.35 -9.8 -1.35 -8.45 L-1.35 -8.2 -1.4 -8.1 -2.2 -6.6 -2.35 -6.45 Q-2.85 -5.7 -3.4 -5.2 -4.35 -4.5 -5.35 -3.8 L-5.65 -3.7 Q-6.3 -3.5 -7.0 -3.5 -7.45 -3.5 -7.85 -3.7 L-8.0 -3.45 Q-8.3 -3.05 -8.6 -2.75 -9.95 -1.5 -12.0 -1.5 -14.0 -1.5 -15.0 -3.75 -15.35 -4.5 -15.5 -5.35 L-15.5 -5.4 -15.55 -5.6 -15.6 -5.85 -15.6 -5.9 M-1.4 -0.35 Q-1.95 0.0 -2.5 0.0 -3.55 0.0 -3.8 -0.7 L-3.9 -1.5 -3.8 -2.1 -3.75 -2.3 -3.55 -2.5 Q-3.1 -3.0 -2.4 -3.1 -1.75 -3.15 -1.25 -2.8 -0.7 -2.45 -0.7 -1.75 -0.7 -1.15 -1.4 -0.4 L-1.4 -0.35" fill="#545640" fill-opacity="0.29803923" fill-rule="evenodd" stroke="none"/>
      <path d="M-16.7 -11.7 L-16.65 -11.7 Q-16.3 -12.15 -16.3 -12.75 -16.3 -13.35 -16.65 -13.6 -16.95 -13.85 -17.4 -13.75 -17.65 -13.75 -17.8 -13.6 -17.75 -13.9 -17.5 -14.2 -17.15 -14.55 -16.7 -14.7 -15.55 -14.95 -15.55 -13.5 -15.55 -12.95 -15.75 -12.4 -16.1 -11.7 -16.65 -11.7 L-16.7 -11.7 M-1.4 -8.1 L-1.35 -8.2 -1.35 -8.45 Q-1.35 -9.8 -2.1 -10.95 -2.85 -12.05 -4.1 -12.6 -7.1 -13.9 -10.45 -11.3 -10.8 -11.05 -11.05 -10.5 -11.25 -10.0 -11.25 -9.6 -11.35 -8.4 -12.2 -8.45 L-12.95 -8.5 Q-13.4 -8.45 -13.7 -8.05 -14.65 -6.8 -15.5 -6.0 L-15.6 -5.9 -15.65 -6.1 Q-15.65 -7.6 -14.8 -8.75 -13.85 -10.15 -12.0 -10.55 -11.8 -13.0 -10.3 -14.5 -8.7 -16.1 -6.4 -16.1 -4.1 -16.15 -2.5 -14.6 -0.7 -12.9 -0.7 -10.1 -0.7 -9.65 -1.15 -8.65 L-1.4 -8.1 M-3.75 -2.3 Q-3.6 -2.65 -3.3 -3.0 -2.75 -3.6 -1.95 -3.8 -1.15 -4.05 -0.6 -3.8 0.0 -3.55 0.0 -2.8 0.0 -2.15 -0.65 -1.2 -1.0 -0.65 -1.4 -0.35 L-1.4 -0.4 Q-0.7 -1.15 -0.7 -1.75 -0.7 -2.45 -1.25 -2.8 -1.75 -3.15 -2.4 -3.1 -3.1 -3.0 -3.55 -2.5 L-3.75 -2.3" fill="#646556" fill-opacity="0.29803923" fill-rule="evenodd" stroke="none"/>
    </g>
    <g id="sprite0" transform="matrix(1.0, 0.0, 0.0, 1.0, 87.4, 77.9)">
      <use ffdec:characterId="391" height="16.1" transform="matrix(4.895, 0.0, 0.0, 4.8387, -87.3753, -77.9038)" width="17.85" xlink:href="#shape1"/>
    </g>
    <g id="shape2" transform="matrix(1.0, 0.0, 0.0, 1.0, 11.6, 18.95)">
      <path d="M0.1 -1.3 L0.35 -1.3 Q0.15 -1.1 0.1 -1.3 M4.25 -12.15 L4.1 -12.15 4.0 -12.2 Q2.75 -13.35 0.35 -14.05 -2.0 -13.9 -3.55 -12.15 -7.75 -7.5 -2.35 -4.35 -3.15 -4.4 -3.95 -4.95 L-4.4 -5.45 Q-5.35 -6.75 -6.15 -8.15 -5.8 -9.8 -5.15 -11.35 -4.1 -13.7 -1.65 -14.35 2.6 -15.45 4.25 -12.15 M9.4 -6.3 Q9.2 -2.75 7.4 -0.4 5.15 2.95 0.55 3.9 -3.0 4.65 -6.2 2.65 -13.1 -1.6 -11.2 -10.0 -10.05 -15.05 -5.05 -17.0 -2.1 -18.15 0.55 -18.95 10.3 -15.65 9.4 -6.7 L9.4 -6.3 M-1.8 -15.7 Q-3.6 -15.35 -4.9 -13.9 -9.35 -8.8 -6.4 -3.2 -5.1 -0.75 -5.3 -1.3 -5.1 -1.75 -4.0 -1.3 4.5 1.95 6.05 -6.6 7.65 -15.85 -1.8 -15.7" fill="#ffff33" fill-rule="evenodd" stroke="none"/>
    </g>
    <g id="shape3" transform="matrix(1.0, 0.0, 0.0, 1.0, 6.1, 13.65)">
      <path d="M2.05 -13.25 Q2.75 -12.8 3.2 -12.15 8.6 -11.6 6.45 -5.75 4.1 0.45 -1.85 -0.3 -4.0 -0.6 -5.0 -2.55 -8.65 -9.85 -0.6 -13.3 L0.4 -13.6 Q1.3 -13.75 2.05 -13.25" fill="#fed71f" fill-rule="evenodd" stroke="none"/>
    </g>
    <g id="shape4" transform="matrix(1.0, 0.0, 0.0, 1.0, 8.8, 15.05)">
      <path d="M8.55 -6.65 Q8.65 -0.05 2.45 2.55 -0.5 3.8 -3.65 2.6 -10.45 -0.05 -8.25 -7.45 -6.3 -14.05 0.55 -15.05 8.45 -14.85 8.55 -6.65" fill="#fefe82" fill-rule="evenodd" stroke="none"/>
    </g>
    <g id="shape5" transform="matrix(1.0, 0.0, 0.0, 1.0, 8.5, 16.9)">
      <path d="M0.5 -15.5 L2.2 -15.55 0.9 -16.05 Q0.1 -16.3 -0.75 -16.25 -7.9 -14.4 -7.55 -6.9 -7.5 -5.95 -7.3 -5.2 L-8.2 -5.45 Q-8.95 -8.6 -7.85 -11.6 -6.2 -16.15 -1.25 -16.85 1.75 -17.15 4.2 -15.5 8.95 -12.2 7.6 -6.45 6.55 -1.95 2.1 -0.55 -5.65 1.95 -8.0 -4.8 L-7.2 -4.85 Q-6.25 -1.55 -2.4 -1.4 -3.9 -2.25 -4.8 -3.4 L-4.2 -3.0 Q0.05 -0.75 2.55 -2.55 3.9 -3.35 4.85 -5.3 7.75 -9.9 4.85 -12.65 L4.8 -12.75 Q3.65 -14.6 0.95 -15.1 L0.5 -15.05 0.7 -15.1 Q0.9 -15.35 0.5 -15.5" fill="#fefe91" fill-rule="evenodd" stroke="none"/>
    </g>
    <g id="shape6" transform="matrix(1.0, 0.0, 0.0, 1.0, 9.75, 16.65)">
      <path d="M6.2 -14.2 Q9.0 -11.8 9.3 -7.45 9.75 -1.15 5.65 1.35 3.3 3.15 -0.6 3.45 -4.15 3.7 -6.9 1.5 -7.4 1.1 -7.75 0.7 -8.65 0.05 -9.2 -1.5 -10.7 -6.2 -8.2 -10.45 -5.2 -15.45 0.55 -16.6 3.2 -16.8 5.2 -15.2 5.75 -14.75 6.2 -14.2 M3.8 -4.1 Q7.4 -9.7 0.7 -12.05 -4.7 -11.25 -4.85 -5.95 -4.95 -1.7 -0.75 -1.6 2.15 -1.5 3.8 -4.1" fill="#fefe4b" fill-rule="evenodd" stroke="none"/>
    </g>
    <g id="shape7" transform="matrix(1.0, 0.0, 0.0, 1.0, 10.15, 17.9)">
      <path d="M3.45 -11.15 Q-0.6 -11.2 -2.2 -7.55 -3.0 -5.65 -2.6 -3.6 0.05 -1.25 2.9 -5.3 5.5 -8.95 3.65 -11.35 L3.45 -11.15 M9.3 -9.25 Q9.9 1.0 -0.6 2.0 -2.75 2.2 -4.75 1.15 -12.35 -2.75 -9.2 -11.15 -6.85 -17.55 0.6 -17.9 8.8 -17.6 9.3 -9.25 M-6.95 -1.5 L-7.1 -1.75 -7.05 -1.55 -6.95 -1.5 M-1.25 -12.35 Q-6.7 -10.5 -4.45 -6.1 -3.4 -10.75 0.4 -12.8 L-1.25 -12.35" fill="#fefe6f" fill-rule="evenodd" stroke="none"/>
    </g>
    <g id="shape8" transform="matrix(1.0, 0.0, 0.0, 1.0, 8.95, 13.7)">
      <path d="M7.7 -10.7 L7.8 -10.45 7.8 -10.3 Q7.9 -9.95 7.95 -10.25 8.2 -6.55 5.75 -2.7 1.7 3.75 -6.1 0.2 L-7.2 -0.3 Q-8.25 -1.45 -8.6 -3.2 -8.95 -5.1 -8.95 -6.75 -8.85 -5.25 -8.4 -3.6 -7.4 0.35 -3.3 0.7 -1.95 0.8 -0.75 0.7 2.85 0.75 4.9 -1.7 7.1 -3.95 7.55 -8.25 7.7 -9.65 7.6 -10.85 L7.7 -10.7 M6.95 -13.7 L7.45 -12.85 Q7.8 -11.85 7.9 -10.85 L7.75 -11.1 7.6 -11.25 Q7.4 -12.6 6.95 -13.7" fill="#fed224" fill-rule="evenodd" stroke="none"/>
    </g>
  </defs>
</svg>
