<?xml version="1.0" encoding="UTF-8" standalone="no"?>
<svg xmlns:ffdec="https://www.free-decompiler.com/flash" xmlns:xlink="http://www.w3.org/1999/xlink" ffdec:objectType="frame" height="540.05px" width="540.05px" xmlns="http://www.w3.org/2000/svg">
  <g transform="matrix(1.0, 0.0, 0.0, 1.0, 270.2, 269.85)">
    <use ffdec:characterId="1449" height="77.15" transform="matrix(7.0, 0.0, 0.0, 7.0, -270.2, -269.85)" width="77.15" xlink:href="#morphshape0"/>
    <use ffdec:characterId="1259" height="18.55" transform="matrix(-1.0481, -4.1793, 4.1793, -1.0481, -76.1094, 126.988)" width="17.2" xlink:href="#shape0"/>
    <use ffdec:characterId="1253" height="12.0" transform="matrix(1.561, -2.8985, 2.8985, 1.561, -41.7013, 10.6938)" width="11.3" xlink:href="#shape1"/>
    <use ffdec:characterId="1260" height="17.55" transform="matrix(-0.8073, -3.2191, 3.2191, -0.8073, -26.7234, 82.3759)" width="17.85" xlink:href="#shape2"/>
    <use ffdec:characterId="1279" height="19.7" transform="matrix(4.3217, 0.0, 0.0, 4.3217, -23.7795, -63.1429)" width="17.3" xlink:href="#shape3"/>
    <use ffdec:characterId="1264" height="19.95" transform="matrix(2.4618, 0.0, 0.0, 2.4618, -18.5377, -62.0169)" width="19.5" xlink:href="#shape4"/>
    <use ffdec:characterId="1274" height="20.1" transform="matrix(4.294, 0.0, 0.0, 4.294, -66.1169, -84.5957)" width="19.1" xlink:href="#shape5"/>
    <use ffdec:characterId="1253" height="12.0" transform="matrix(4.1725, 0.0, 0.0, 4.1725, 20.7754, -51.67)" width="11.3" xlink:href="#shape1"/>
  </g>
  <defs>
    <g id="morphshape0" transform="matrix(1.0, 0.0, 0.0, 1.0, 38.6, 38.55)">
      <path d="M-33.6 0.0 Q-33.6 13.9 -23.75 23.7 -13.95 33.55 -0.05 33.55 13.85 33.55 23.65 23.7 33.5 13.9 33.5 0.0 33.5 -13.9 23.65 -23.7 13.85 -33.55 -0.05 -33.55 -13.95 -33.55 -23.75 -23.7 -33.6 -13.9 -33.6 0.0 M-35.0 0.0 Q-35.0 14.5 -24.75 24.7 -14.5 35.0 0.0 35.0 14.45 35.0 24.7 24.7 34.95 14.5 34.95 0.0 34.95 -14.45 24.7 -24.7 14.45 -34.95 0.0 -34.95 -14.5 -34.95 -24.75 -24.7 -35.0 -14.45 -35.0 0.0" fill="#ffff33" fill-opacity="0.16470589" fill-rule="evenodd" stroke="none"/>
      <path d="M-35.0 0.0 Q-35.0 -14.45 -24.75 -24.7 -14.5 -34.95 0.0 -34.95 14.45 -34.95 24.7 -24.7 34.95 -14.45 34.95 0.0 34.95 14.5 24.7 24.7 14.45 35.0 0.0 35.0 -14.5 35.0 -24.75 24.7 -35.0 14.5 -35.0 0.0 M-33.6 0.0 Q-33.6 -13.9 -23.75 -23.7 -13.95 -33.55 -0.05 -33.55 13.85 -33.55 23.65 -23.7 33.5 -13.9 33.5 0.0 33.5 13.9 23.65 23.7 13.85 33.55 -0.05 33.55 -13.95 33.55 -23.75 23.7 -33.6 13.9 -33.6 0.0 Z" fill="none" stroke="#000000" stroke-linecap="round" stroke-linejoin="round" stroke-opacity="0.0" stroke-width="0.0"/>
    </g>
    <g id="shape0" transform="matrix(1.0, 0.0, 0.0, 1.0, 9.7, 16.6)">
      <path d="M4.25 -0.15 Q-2.9 4.7 -8.4 -1.65 -9.85 -3.3 -9.65 -5.6 -8.95 -14.4 -0.55 -16.6 8.85 -13.95 7.25 -4.7 6.75 -1.8 4.25 -0.15 M-7.6 -1.9 Q-7.4 -1.45 -7.25 -1.5 -7.3 -1.9 -7.55 -2.2 -7.75 -2.45 -7.95 -2.55 L-7.6 -1.9" fill="#ffff33" fill-rule="evenodd" stroke="none"/>
    </g>
    <g id="shape1" transform="matrix(1.0, 0.0, 0.0, 1.0, 5.65, 12.0)">
      <path d="M-0.1 -12.0 Q10.55 -8.35 1.55 -1.05 -1.35 1.3 -3.6 -1.65 -9.0 -8.6 -0.1 -12.0" fill="#fefe82" fill-rule="evenodd" stroke="none"/>
    </g>
    <g id="shape2" transform="matrix(1.0, 0.0, 0.0, 1.0, 8.8, 16.1)">
      <path d="M8.2 -5.15 Q5.1 3.0 -3.45 1.1 -5.4 0.65 -6.6 -1.05 -11.75 -8.1 -4.9 -13.5 -1.8 -15.95 2.1 -16.1 11.55 -14.0 8.2 -5.15" fill="#fefe91" fill-rule="evenodd" stroke="none"/>
    </g>
    <g id="shape3" transform="matrix(1.0, 0.0, 0.0, 1.0, 8.95, 17.85)">
      <path d="M7.55 -11.3 L7.45 -11.35 Q6.55 -16.5 -0.25 -17.55 L0.9 -17.85 Q11.1 -14.05 7.3 -4.45 4.25 3.45 -3.95 1.45 -7.9 0.5 -8.6 -3.2 -10.05 -10.95 -5.7 -14.8 -8.5 -12.2 -8.6 -8.1 -8.65 -7.1 -8.55 -6.0 -8.5 -5.05 -8.15 -4.2 L-8.05 -3.85 Q-7.25 -0.65 -4.05 0.2 5.15 2.65 7.2 -6.85 7.7 -9.15 7.5 -11.0 L7.7 -10.7 7.8 -10.45 7.8 -10.3 Q7.9 -9.95 7.95 -10.25 L7.95 -10.55 Q8.0 -10.85 7.75 -11.1 L7.55 -11.3" fill="#ffff33" fill-rule="evenodd" stroke="none"/>
    </g>
    <g id="shape4" transform="matrix(1.0, 0.0, 0.0, 1.0, 10.15, 17.9)">
      <path d="M3.45 -11.15 Q-0.6 -11.2 -2.2 -7.55 -3.0 -5.65 -2.6 -3.6 0.05 -1.25 2.9 -5.3 5.5 -8.95 3.65 -11.35 L3.45 -11.15 M9.3 -9.25 Q9.9 1.0 -0.6 2.0 -2.75 2.2 -4.75 1.15 -12.35 -2.75 -9.2 -11.15 -6.85 -17.55 0.6 -17.9 8.8 -17.6 9.3 -9.25 M-6.95 -1.5 L-7.1 -1.75 -7.05 -1.55 -6.95 -1.5 M-1.25 -12.35 Q-6.7 -10.5 -4.45 -6.1 -3.4 -10.75 0.4 -12.8 L-1.25 -12.35" fill="#fed71f" fill-rule="evenodd" stroke="none"/>
    </g>
    <g id="shape5" transform="matrix(1.0, 0.0, 0.0, 1.0, 9.75, 16.65)">
      <path d="M6.2 -14.2 Q9.0 -11.8 9.3 -7.45 9.75 -1.15 5.65 1.35 3.3 3.15 -0.6 3.45 -4.15 3.7 -6.9 1.5 -7.4 1.1 -7.75 0.7 -8.65 0.05 -9.2 -1.5 -10.7 -6.2 -8.2 -10.45 -5.2 -15.45 0.55 -16.6 3.2 -16.8 5.2 -15.2 5.75 -14.75 6.2 -14.2 M3.8 -4.1 Q7.4 -9.7 0.7 -12.05 -4.7 -11.25 -4.85 -5.95 -4.95 -1.7 -0.75 -1.6 2.15 -1.5 3.8 -4.1" fill="#fefe82" fill-rule="evenodd" stroke="none"/>
    </g>
  </defs>
</svg>
