<?xml version="1.0" encoding="UTF-8" standalone="no"?>
<svg xmlns:ffdec="https://www.free-decompiler.com/flash" xmlns:xlink="http://www.w3.org/1999/xlink" ffdec:objectType="frame" height="105.35px" width="61.25px" xmlns="http://www.w3.org/2000/svg">
  <g transform="matrix(1.0, 0.0, 0.0, 1.0, 38.5, 109.9)">
    <use ffdec:characterId="167" height="15.05" transform="matrix(7.0, 0.0, 0.0, 7.0, -38.5, -109.9)" width="8.75" xlink:href="#shape0"/>
  </g>
  <defs>
    <g id="shape0" transform="matrix(1.0, 0.0, 0.0, 1.0, 5.5, 15.7)">
      <path d="M-1.85 -1.15 L-1.75 -1.1 Q-1.15 -0.7 -0.7 -0.75 L-0.65 -0.75 Q-0.6 -0.95 -0.45 -1.15 L-0.45 -1.2 Q-0.35 -1.55 0.05 -1.75 L0.4 -1.85 0.8 -1.9 1.25 -1.85 1.8 -1.8 Q2.45 -1.85 2.75 -2.3 2.95 -2.7 2.9 -3.1 2.85 -3.5 2.6 -3.7 2.45 -3.8 2.1 -3.9 L1.95 -3.95 Q1.9 -3.95 1.8 -4.05 1.7 -4.1 1.6 -4.15 L1.55 -4.25 1.4 -4.4 Q0.95 -4.85 0.9 -5.1 0.85 -5.55 0.95 -6.0 1.1 -6.45 1.05 -6.75 1.05 -7.05 0.75 -7.65 0.45 -8.4 0.35 -8.65 L0.05 -9.65 -0.2 -10.65 -0.25 -10.65 -0.35 -10.45 -0.4 -10.25 Q-0.5 -10.0 -0.45 -9.8 -0.45 -9.7 -0.5 -9.55 L-0.5 -9.25 Q-0.45 -9.0 -0.65 -8.7 -0.85 -8.4 -1.05 -8.15 -0.75 -8.75 -0.6 -9.35 -0.45 -9.85 -0.5 -10.3 L-0.55 -10.4 -0.6 -11.0 -0.6 -11.05 Q-0.5 -11.15 -0.4 -11.3 L-0.35 -11.35 Q0.05 -11.5 0.45 -11.75 1.0 -12.15 1.05 -12.6 L1.3 -12.9 Q1.2 -13.6 0.45 -14.4 L0.15 -14.75 Q-0.45 -15.35 -1.05 -15.25 L-1.75 -15.1 Q-2.25 -14.95 -2.35 -14.85 -2.4 -14.75 -2.45 -13.9 -2.5 -13.45 -2.6 -13.3 -2.7 -13.2 -2.75 -13.15 L-2.8 -13.15 Q-2.9 -13.15 -3.0 -13.05 -3.15 -12.95 -3.25 -12.95 L-3.4 -13.0 -3.5 -13.0 -3.75 -13.05 -3.85 -13.1 -4.05 -13.25 -4.1 -13.3 -4.4 -13.55 Q-4.6 -13.7 -4.75 -13.65 -5.1 -13.55 -5.1 -13.35 -5.05 -12.95 -4.65 -12.6 -4.45 -12.5 -3.75 -12.0 L-3.2 -11.6 -2.9 -11.3 -2.5 -10.7 Q-2.35 -10.45 -2.35 -10.2 -2.1 -8.55 -1.8 -8.05 L-1.75 -8.0 -1.75 -7.9 Q-1.5 -7.4 -1.3 -6.35 L-1.25 -6.0 Q-1.2 -5.5 -1.3 -5.0 -1.35 -4.75 -1.45 -4.55 -1.4 -3.9 -1.95 -3.3 -2.55 -2.6 -2.45 -2.05 -2.4 -1.6 -1.85 -1.15 M0.35 -11.05 Q0.3 -10.9 0.35 -10.85 L0.35 -10.05 Q0.4 -9.45 0.8 -8.7 L1.15 -8.0 Q1.45 -6.65 1.5 -5.9 1.35 -5.65 1.4 -5.55 1.45 -5.1 1.75 -4.7 2.05 -4.45 2.25 -4.4 2.5 -4.25 2.6 -4.1 2.95 -3.6 3.05 -3.35 3.15 -3.05 3.25 -2.45 L3.25 -2.4 3.15 -2.15 Q3.0 -1.85 2.7 -1.65 2.3 -1.5 1.8 -1.5 0.95 -1.75 0.7 -1.75 0.1 -1.75 -0.2 -1.3 -0.4 -1.05 -0.45 -0.8 -0.8 -0.65 -1.15 -0.65 -1.7 -0.65 -2.8 -1.45 L-2.9 -1.55 Q-3.0 -1.75 -3.05 -1.9 L-3.0 -2.05 Q-2.95 -2.8 -2.5 -3.55 L-2.0 -4.45 Q-1.9 -4.65 -1.9 -4.8 -1.65 -5.5 -1.75 -6.1 -1.85 -6.95 -2.25 -7.7 -2.45 -8.9 -2.85 -9.8 -2.8 -10.15 -2.9 -10.45 -2.95 -10.8 -3.75 -11.5 L-3.95 -11.65 -4.05 -11.75 Q-4.4 -12.1 -5.0 -12.55 -5.45 -12.85 -5.5 -13.05 -5.55 -13.4 -5.3 -13.75 -5.1 -14.05 -4.95 -14.05 -3.65 -13.7 -3.3 -13.35 -2.8 -13.45 -2.9 -13.9 -3.05 -15.0 -2.4 -15.35 -2.1 -15.55 -0.95 -15.7 -0.15 -15.75 0.7 -14.65 1.45 -13.75 1.7 -12.85 1.25 -11.65 0.7 -11.25 L0.35 -11.05 M-1.2 -7.6 L-1.15 -7.8 -1.05 -7.8 -1.1 -7.6 Q-1.15 -7.55 -1.2 -7.6" fill="#111111" fill-rule="evenodd" stroke="none"/>
      <path d="M-1.85 -1.15 Q-2.4 -1.6 -2.45 -2.05 -2.55 -2.6 -1.95 -3.3 -1.4 -3.9 -1.45 -4.55 -1.35 -4.75 -1.3 -5.0 -1.2 -5.5 -1.25 -6.0 L-1.3 -6.35 -1.3 -6.2 -1.05 -6.3 Q-0.6 -6.25 -0.05 -5.75 L-0.05 -5.7 Q-0.55 -5.35 -0.65 -5.1 L-0.6 -4.95 -0.45 -4.95 -0.15 -5.0 Q-0.05 -4.25 1.0 -3.85 1.2 -3.8 1.75 -3.65 2.1 -3.55 2.1 -3.45 2.15 -2.95 1.4 -2.45 L1.15 -2.3 1.05 -2.35 Q0.8 -2.5 0.8 -2.55 0.8 -2.7 0.85 -2.9 L0.95 -3.2 0.9 -3.25 0.8 -3.3 0.4 -3.2 0.0 -3.05 Q-0.3 -3.05 -0.5 -2.75 -0.55 -2.65 -0.7 -2.1 -0.8 -1.8 -0.95 -1.6 -0.9 -1.8 -0.95 -1.95 -0.95 -2.05 -1.1 -2.2 -1.2 -2.3 -1.3 -2.3 L-1.35 -1.9 Q-1.4 -1.6 -1.55 -1.45 L-1.85 -1.15 M0.55 -3.3 L0.5 -3.4 Q0.35 -3.4 0.45 -3.2 L0.55 -3.3 M-0.8 -3.6 L-0.9 -3.6 -1.05 -3.5 Q-1.2 -3.4 -1.3 -3.25 L-1.2 -3.0 -1.05 -3.0 Q-0.9 -3.0 -0.8 -3.05 -0.65 -3.15 -0.65 -3.35 L-0.7 -3.5 -0.75 -3.6 -0.8 -3.6" fill="#8c5b6c" fill-rule="evenodd" stroke="none"/>
      <path d="M-1.3 -6.35 Q-1.5 -7.4 -1.75 -7.9 L-1.75 -8.0 -1.8 -8.05 Q-2.1 -8.55 -2.35 -10.2 -2.35 -10.45 -2.5 -10.7 L-2.9 -11.3 -3.2 -11.6 -3.75 -12.0 Q-4.45 -12.5 -4.65 -12.6 -5.05 -12.95 -5.1 -13.35 -5.1 -13.55 -4.75 -13.65 -4.6 -13.7 -4.4 -13.55 L-4.1 -13.3 -4.05 -13.25 -3.85 -13.1 -3.75 -13.05 -3.5 -13.0 -3.4 -13.0 -3.25 -12.95 Q-3.15 -12.95 -3.0 -13.05 -2.9 -13.15 -2.8 -13.15 L-2.75 -13.15 Q-2.7 -13.2 -2.6 -13.3 -2.5 -13.45 -2.45 -13.9 -2.4 -14.75 -2.35 -14.85 -2.25 -14.95 -1.75 -15.1 L-1.05 -15.25 Q-0.45 -15.35 0.15 -14.75 L0.45 -14.4 Q1.2 -13.6 1.3 -12.9 L1.05 -12.6 Q1.0 -12.15 0.45 -11.75 0.05 -11.5 -0.35 -11.35 L-0.4 -11.3 Q-0.5 -11.15 -0.6 -11.05 L-0.6 -11.0 -0.55 -10.4 -0.5 -10.3 Q-0.45 -9.85 -0.6 -9.35 -0.75 -8.75 -1.05 -8.15 -0.85 -8.4 -0.65 -8.7 -0.45 -9.0 -0.5 -9.25 L-0.5 -9.55 Q-0.45 -9.7 -0.45 -9.8 -0.5 -10.0 -0.4 -10.25 L-0.35 -10.45 -0.25 -10.65 -0.2 -10.65 0.05 -9.65 0.35 -8.65 Q0.45 -8.4 0.75 -7.65 1.05 -7.05 1.05 -6.75 1.1 -6.45 0.95 -6.0 0.85 -5.55 0.9 -5.1 0.95 -4.85 1.4 -4.4 L1.55 -4.25 1.6 -4.15 Q1.7 -4.1 1.8 -4.05 1.9 -3.95 1.95 -3.95 L2.1 -3.9 Q2.45 -3.8 2.6 -3.7 2.85 -3.5 2.9 -3.1 2.95 -2.7 2.75 -2.3 2.45 -1.85 1.8 -1.8 L1.25 -1.85 0.8 -1.9 0.4 -1.85 0.05 -1.75 Q-0.35 -1.55 -0.45 -1.2 L-0.45 -1.15 Q-0.6 -0.95 -0.65 -0.75 L-0.7 -0.75 Q-1.15 -0.7 -1.75 -1.1 L-1.85 -1.15 -1.55 -1.45 Q-1.4 -1.6 -1.35 -1.9 L-1.3 -2.3 Q-1.2 -2.3 -1.1 -2.2 -0.95 -2.05 -0.95 -1.95 -0.9 -1.8 -0.95 -1.6 -0.8 -1.8 -0.7 -2.1 -0.55 -2.65 -0.5 -2.75 -0.3 -3.05 0.0 -3.05 L0.4 -3.2 0.8 -3.3 0.9 -3.25 0.95 -3.2 0.85 -2.9 Q0.8 -2.7 0.8 -2.55 0.8 -2.5 1.05 -2.35 L1.15 -2.3 1.4 -2.45 Q2.15 -2.95 2.1 -3.45 2.1 -3.55 1.75 -3.65 1.2 -3.8 1.0 -3.85 -0.05 -4.25 -0.15 -5.0 L-0.45 -4.95 -0.6 -4.95 -0.65 -5.1 Q-0.55 -5.35 -0.05 -5.7 L-0.05 -5.75 Q-0.6 -6.25 -1.05 -6.3 L-1.3 -6.2 -1.3 -6.35 M0.55 -3.3 L0.45 -3.2 Q0.35 -3.4 0.5 -3.4 L0.55 -3.3 M-1.2 -7.6 Q-1.15 -7.55 -1.1 -7.6 L-1.05 -7.8 -1.15 -7.8 -1.2 -7.6 M-0.8 -3.6 L-0.75 -3.6 -0.7 -3.5 -0.65 -3.35 Q-0.65 -3.15 -0.8 -3.05 -0.9 -3.0 -1.05 -3.0 L-1.2 -3.0 -1.3 -3.25 Q-1.2 -3.4 -1.05 -3.5 L-0.9 -3.6 -0.8 -3.6" fill="#4d313a" fill-rule="evenodd" stroke="none"/>
    </g>
  </defs>
</svg>
