<?xml version="1.0" encoding="UTF-8" standalone="no"?>
<svg xmlns:ffdec="https://www.free-decompiler.com/flash" xmlns:xlink="http://www.w3.org/1999/xlink" ffdec:objectType="frame" height="308.25px" width="329.45px" xmlns="http://www.w3.org/2000/svg">
  <g transform="matrix(1.0, 0.0, 0.0, 1.0, 110.15, 209.85)">
    <use ffdec:characterId="259" height="23.7" id="am_Realm" transform="matrix(1.8185, 0.0, 0.0, 1.8185, -15.9, -197.4869)" width="22.2" xlink:href="#sprite0"/>
    <use ffdec:characterId="361" height="71.7" transform="matrix(1.0, 0.0, 0.0, 1.0, -32.75, -209.85)" width="71.7" xlink:href="#morphshape0"/>
    <use ffdec:characterId="337" height="40.0" transform="matrix(0.1658, 0.0, 0.0, 0.1658, -19.6833, -179.6853)" width="40.0" xlink:href="#sprite1"/>
    <use ffdec:characterId="337" height="40.0" transform="matrix(0.1068, 0.0, 0.0, 0.1068, -10.7286, -174.8223)" width="40.0" xlink:href="#sprite1"/>
    <use ffdec:characterId="337" height="40.0" transform="matrix(0.1299, 0.0, 0.0, 0.1299, -9.9005, -170.5887)" width="40.0" xlink:href="#sprite1"/>
    <use ffdec:characterId="337" height="40.0" transform="matrix(0.1259, 0.0, 0.0, 0.1259, -8.8693, -179.367)" width="40.0" xlink:href="#sprite1"/>
    <use ffdec:characterId="337" height="40.0" transform="matrix(0.1263, 0.0, 0.0, 0.1263, -10.7755, -181.2225)" width="40.0" xlink:href="#sprite1"/>
    <use ffdec:characterId="337" height="40.0" transform="matrix(0.0883, 0.0, 0.0, 0.0883, -5.3504, -173.6886)" width="40.0" xlink:href="#sprite1"/>
    <use ffdec:characterId="337" height="40.0" transform="matrix(0.0741, 0.0, 0.0, 0.0741, -7.1113, -182.8335)" width="40.0" xlink:href="#sprite1"/>
    <use ffdec:characterId="337" height="40.0" transform="matrix(0.077, 0.0, 0.0, 0.077, -10.3204, -174.1357)" width="40.0" xlink:href="#sprite1"/>
    <use ffdec:characterId="337" height="40.0" transform="matrix(0.1161, 0.0, 0.0, 0.1161, 22.4809, -175.7404)" width="40.0" xlink:href="#sprite1"/>
    <use ffdec:characterId="337" height="40.0" transform="matrix(0.0827, 0.0, 0.0, 0.0827, 12.9129, -172.5886)" width="40.0" xlink:href="#sprite1"/>
    <use ffdec:characterId="337" height="40.0" transform="matrix(0.0609, 0.0, 0.0, 0.0609, 15.6568, -170.247)" width="40.0" xlink:href="#sprite1"/>
    <use ffdec:characterId="337" height="40.0" transform="matrix(0.0609, 0.0, 0.0, 0.0627, 13.0574, -172.7291)" width="40.0" xlink:href="#sprite1"/>
    <use ffdec:characterId="337" height="40.0" transform="matrix(0.1062, 0.0, 0.0, 0.1062, 8.5332, -161.9119)" width="40.0" xlink:href="#sprite1"/>
    <use ffdec:characterId="337" height="40.0" transform="matrix(0.0827, 0.0, 0.0, 0.0827, 12.4129, -175.4386)" width="40.0" xlink:href="#sprite1"/>
    <use ffdec:characterId="337" height="40.0" transform="matrix(0.108, 0.0, 0.0, 0.108, 10.1474, -176.9435)" width="40.0" xlink:href="#sprite1"/>
    <use ffdec:characterId="337" height="40.0" transform="matrix(0.1312, 0.0, 0.0, 0.1312, 0.973, -164.4121)" width="40.0" xlink:href="#sprite1"/>
  </g>
  <defs>
    <g id="morphshape0" transform="matrix(1.0, 0.0, 0.0, 1.0, 32.75, 209.85)">
      <path d="M-19.05 -174.0 Q-19.05 -183.4 -12.9 -189.55 -6.3 -196.05 3.1 -196.05 12.1 -196.05 18.7 -189.55 25.3 -183.4 25.3 -174.0 25.3 -165.05 18.7 -158.5 12.1 -151.85 3.1 -151.85 -6.3 -151.85 -12.9 -158.5 -19.05 -165.05 -19.05 -174.0 -19.05 -183.4 -12.9 -189.55 -6.3 -196.05 3.1 -196.05 12.1 -196.05 18.7 -189.55 25.3 -183.4 25.3 -174.0 25.3 -165.05 18.7 -158.5 12.1 -151.85 3.1 -151.85 -6.3 -151.85 -12.9 -158.5 -19.05 -165.05 -19.05 -174.0 Z" fill="none" stroke="#eafaff" stroke-linecap="round" stroke-linejoin="round" stroke-opacity="0.6039216" stroke-width="8.9"/>
    </g>
    <g id="sprite1" transform="matrix(1.0, 0.0, 0.0, 1.0, 20.4, 18.0)">
      <use ffdec:characterId="336" height="40.0" transform="matrix(1.0, 0.0, 0.0, 1.0, -20.4, -18.0)" width="40.0" xlink:href="#shape0"/>
    </g>
    <g id="shape0" transform="matrix(1.0, 0.0, 0.0, 1.0, 20.4, 18.0)">
      <path d="M13.75 -12.1 Q19.6 -6.25 19.6 2.0 19.6 10.2 13.8 16.0 L13.65 16.1 Q7.85 22.0 -0.4 22.0 -8.6 22.05 -14.6 16.05 -20.4 10.25 -20.4 2.0 -20.4 -6.25 -14.6 -12.1 L-14.55 -12.2 Q-8.6 -18.0 -0.4 -18.0 7.9 -18.0 13.7 -12.15 L13.75 -12.1" fill="#ffffff" fill-opacity="0.24705882" fill-rule="evenodd" stroke="none"/>
      <path d="M-0.4 -16.0 Q7.05 -16.0 12.3 -10.7 17.6 -5.45 17.6 2.0 17.6 9.2 12.55 14.35 L12.35 14.6 Q7.1 20.0 -0.4 20.0 -7.8 20.05 -13.2 14.65 -18.4 9.4 -18.4 2.0 -18.4 -5.45 -13.2 -10.7 L-13.15 -10.75 Q-7.75 -16.0 -0.4 -16.0" fill="#ffffff" fill-opacity="0.49803922" fill-rule="evenodd" stroke="none"/>
      <path d="M10.9 -9.3 Q15.6 -4.6 15.6 2.0 15.6 8.55 10.9 13.2 L10.85 13.25 Q6.2 18.0 -0.4 18.0 -6.95 18.0 -11.75 13.25 -16.4 8.6 -16.4 2.0 -16.4 -4.6 -11.75 -9.3 -6.95 -14.0 -0.4 -14.0 6.2 -14.0 10.85 -9.3 L10.9 -9.3" fill="#ffffff" fill-opacity="0.6627451" fill-rule="evenodd" stroke="none"/>
      <path d="M-0.4 -12.0 Q5.4 -12.0 9.45 -7.9 13.6 -3.8 13.6 2.0 13.6 7.75 9.45 11.8 5.4 16.0 -0.4 16.0 -6.15 16.0 -10.35 11.8 -14.4 7.75 -14.4 2.0 -14.4 -3.8 -10.35 -7.9 -6.15 -12.0 -0.4 -12.0" fill="#ffffff" fill-opacity="0.83137256" fill-rule="evenodd" stroke="none"/>
    </g>
  </defs>
</svg>
