<?xml version="1.0" encoding="UTF-8" standalone="no"?>
<svg xmlns:ffdec="https://www.free-decompiler.com/flash" xmlns:xlink="http://www.w3.org/1999/xlink" ffdec:objectType="frame" height="184.45px" width="118.3px" xmlns="http://www.w3.org/2000/svg">
  <g transform="matrix(1.0, 0.0, 0.0, 1.0, 58.45, 93.1)">
    <use ffdec:characterId="389" height="26.25" transform="matrix(7.0, 0.0, 0.0, 7.0, -58.45, -93.1)" width="16.9" xlink:href="#morphshape0"/>
  </g>
  <defs>
    <g id="morphshape0" transform="matrix(1.0, 0.0, 0.0, 1.0, 8.35, 13.3)">
      <path d="M-8.3 -1.1 L-8.3 -1.1 Q-8.3 -0.55 -7.85 0.85 L-7.85 0.9 Q-7.65 1.6 -7.45 2.25 -7.5 2.45 -7.5 2.65 -7.55 2.85 -7.55 3.05 L-7.6 3.2 -7.65 3.4 Q-7.85 3.85 -7.85 4.15 L-7.85 4.2 Q-7.85 4.3 -7.8 4.45 -7.65 4.7 -7.55 4.9 L-7.45 5.0 -7.4 5.1 -7.35 5.2 Q-7.2 5.55 -7.1 5.85 L-7.1 5.85 -7.0 5.95 -6.95 6.1 -6.85 6.3 Q-6.7 6.55 -6.6 6.8 L-6.5 7.05 Q-6.15 7.9 -6.15 8.45 L-6.15 8.5 Q-6.1 8.75 -5.85 9.1 L-5.85 9.15 -5.85 9.25 -5.85 9.35 Q-5.8 9.7 -5.8 10.0 L-5.8 10.1 -5.75 10.2 -5.7 10.25 Q-5.6 10.55 -5.45 10.75 L-5.35 10.85 -5.05 11.05 -4.75 11.1 -4.65 11.1 -4.6 11.1 -4.5 11.15 -4.25 11.25 -4.15 11.25 -4.15 11.25 -4.0 11.3 -3.4 11.75 -3.15 11.85 -3.1 11.9 Q-2.8 12.05 -2.55 12.15 L-2.45 12.2 -2.45 12.2 Q-2.35 12.25 -2.25 12.25 L-2.1 12.35 -1.95 12.35 -1.6 12.45 -1.55 12.5 -1.45 12.5 -1.25 12.55 -1.2 12.55 -0.95 12.65 -0.25 12.75 -0.2 12.8 Q0.5 12.9 1.2 12.95 L1.3 12.95 Q1.7 12.9 2.05 12.8 L2.2 12.75 Q2.5 12.6 2.75 12.4 L2.9 12.3 3.1 12.1 3.2 11.95 3.2 11.95 3.35 11.9 Q3.55 11.8 3.75 11.7 L4.0 11.5 Q4.2 11.3 4.4 11.1 L4.4 11.1 4.45 11.05 4.8 10.75 Q5.1 10.45 5.3 10.05 5.45 9.6 5.7 9.25 L5.85 9.05 Q6.0 8.9 6.15 8.75 6.45 8.45 6.75 8.2 L6.9 8.05 7.3 7.75 7.35 7.7 7.5 7.55 7.5 7.55 7.5 7.45 7.55 7.35 7.65 7.2 Q7.7 6.95 7.7 6.75 L7.7 6.6 7.7 6.5 Q7.65 6.2 7.65 5.9 L7.6 5.55 7.55 5.35 7.55 5.1 Q7.5 4.9 7.5 4.75 L7.45 4.4 7.45 4.2 Q7.45 3.95 7.5 3.7 L7.6 3.3 Q7.65 3.2 7.7 3.1 7.8 2.95 7.85 2.8 L7.95 2.65 7.95 2.55 7.95 2.55 8.0 2.45 8.05 2.45 8.05 2.35 8.2 2.0 8.25 1.8 8.25 1.7 8.3 1.6 8.3 1.45 8.3 1.4 Q8.2 1.05 8.15 0.75 L8.0 0.4 8.0 0.35 7.95 0.15 Q7.85 -0.1 7.75 -0.35 L7.75 -0.5 7.75 -0.55 Q7.8 -0.75 7.8 -0.95 L7.85 -1.2 7.85 -1.3 Q7.9 -1.55 7.95 -1.75 L7.95 -1.9 8.0 -2.05 8.0 -2.2 8.0 -2.45 8.0 -2.5 8.1 -2.75 8.15 -2.95 8.15 -3.05 Q8.1 -3.25 8.1 -3.4 L8.1 -3.45 8.1 -3.5 8.0 -3.75 Q7.85 -4.15 7.75 -4.5 7.65 -4.7 7.55 -4.9 L7.45 -5.15 7.45 -5.2 7.35 -5.45 7.3 -5.55 Q7.1 -6.0 7.05 -6.35 L7.05 -6.4 7.0 -6.55 7.0 -6.55 7.0 -6.55 7.0 -6.6 7.0 -6.75 7.0 -6.8 7.0 -6.95 Q6.95 -7.25 6.75 -7.6 6.5 -8.0 6.0 -8.55 5.9 -8.65 5.85 -8.7 5.4 -9.1 5.0 -9.5 4.6 -9.9 4.2 -10.3 L4.1 -10.4 4.0 -10.55 4.0 -10.65 3.9 -10.8 3.7 -11.1 3.45 -11.4 3.35 -11.45 3.3 -11.5 3.15 -11.6 3.05 -11.65 2.7 -11.8 Q2.6 -11.85 2.45 -11.95 2.1 -12.15 1.8 -12.35 L1.45 -12.55 1.3 -12.6 1.2 -12.65 Q0.8 -12.8 0.4 -12.85 -0.5 -13.05 -1.35 -12.7 L-1.7 -12.55 -1.85 -12.45 Q-2.1 -12.25 -2.3 -12.1 L-2.55 -11.9 -2.65 -11.75 Q-3.25 -11.2 -3.85 -10.85 L-4.3 -10.6 -4.6 -10.45 -4.7 -10.4 -4.9 -10.25 -5.0 -10.2 -5.05 -10.15 -5.15 -10.1 -5.35 -9.95 -5.5 -9.75 -5.55 -9.7 -5.55 -9.65 -5.6 -9.6 Q-5.65 -9.4 -5.7 -9.1 L-5.7 -9.05 -5.7 -9.0 -5.7 -8.95 -5.7 -8.75 -5.7 -8.7 -5.7 -8.5 -5.7 -8.45 Q-5.75 -8.15 -5.75 -7.85 L-5.75 -7.65 -5.75 -7.6 Q-5.8 -7.35 -5.85 -7.15 L-5.95 -6.85 -5.95 -6.8 -6.0 -6.7 -6.0 -6.7 -6.05 -6.6 -6.2 -6.4 -6.25 -6.3 -6.6 -5.8 -6.6 -5.75 -6.65 -5.65 -6.9 -5.15 -7.0 -4.9 -7.05 -4.85 Q-7.15 -4.6 -7.2 -4.4 -7.35 -4.05 -7.5 -3.7 L-7.7 -3.3 -7.85 -2.85 -7.95 -2.65 -8.05 -2.25 -8.05 -2.05 -8.2 -1.7 -8.3 -1.15 -8.3 -1.1" fill="#ff0000" fill-rule="evenodd" stroke="none"/>
      <path d="M-8.3 -1.1 L-8.3 -1.15 -8.2 -1.7 -8.05 -2.05 -8.05 -2.25 -7.95 -2.65 -7.85 -2.85 -7.7 -3.3 -7.5 -3.7 Q-7.35 -4.05 -7.2 -4.4 -7.15 -4.6 -7.05 -4.85 L-7.0 -4.9 -6.9 -5.15 -6.65 -5.65 -6.6 -5.75 -6.6 -5.8 -6.25 -6.3 -6.2 -6.4 -6.05 -6.6 -6.0 -6.7 -6.0 -6.7 -5.95 -6.8 -5.95 -6.85 -5.85 -7.15 Q-5.8 -7.35 -5.75 -7.6 L-5.75 -7.65 -5.75 -7.85 Q-5.75 -8.15 -5.7 -8.45 L-5.7 -8.5 -5.7 -8.7 -5.7 -8.75 -5.7 -8.95 -5.7 -9.0 -5.7 -9.05 -5.7 -9.1 Q-5.65 -9.4 -5.6 -9.6 L-5.55 -9.65 -5.55 -9.7 -5.5 -9.75 -5.35 -9.95 -5.15 -10.1 -5.05 -10.15 -5.0 -10.2 -4.9 -10.25 -4.7 -10.4 -4.6 -10.45 -4.3 -10.6 -3.85 -10.85 Q-3.25 -11.2 -2.65 -11.75 L-2.55 -11.9 -2.3 -12.1 Q-2.1 -12.25 -1.85 -12.45 L-1.7 -12.55 -1.35 -12.7 Q-0.5 -13.05 0.4 -12.85 0.8 -12.8 1.2 -12.65 L1.3 -12.6 1.45 -12.55 1.8 -12.35 Q2.1 -12.15 2.45 -11.95 2.6 -11.85 2.7 -11.8 L3.05 -11.65 3.15 -11.6 3.3 -11.5 3.35 -11.45 3.45 -11.4 3.7 -11.1 3.9 -10.8 4.0 -10.65 4.0 -10.55 4.1 -10.4 4.2 -10.3 Q4.6 -9.9 5.0 -9.5 5.4 -9.1 5.85 -8.7 5.9 -8.65 6.0 -8.55 6.5 -8.0 6.75 -7.6 6.95 -7.25 7.0 -6.95 L7.0 -6.8 7.0 -6.75 7.0 -6.6 7.0 -6.55 7.0 -6.55 7.0 -6.55 7.05 -6.4 7.05 -6.35 Q7.1 -6.0 7.3 -5.55 L7.35 -5.45 7.45 -5.2 7.45 -5.15 7.55 -4.9 Q7.65 -4.7 7.75 -4.5 7.85 -4.15 8.0 -3.75 L8.1 -3.5 8.1 -3.45 8.1 -3.4 Q8.1 -3.25 8.15 -3.05 L8.15 -2.95 8.1 -2.75 8.0 -2.5 8.0 -2.45 8.0 -2.2 8.0 -2.05 7.95 -1.9 7.95 -1.75 Q7.9 -1.55 7.85 -1.3 L7.85 -1.2 7.8 -0.95 Q7.8 -0.75 7.75 -0.55 L7.75 -0.5 7.75 -0.35 Q7.85 -0.1 7.95 0.15 L8.0 0.35 8.0 0.4 8.15 0.75 Q8.2 1.05 8.3 1.4 L8.3 1.45 8.3 1.6 8.25 1.7 8.25 1.8 8.2 2.0 8.05 2.35 8.05 2.45 8.0 2.45 7.95 2.55 7.95 2.55 7.95 2.65 7.85 2.8 Q7.8 2.95 7.7 3.1 7.65 3.2 7.6 3.3 L7.5 3.7 Q7.45 3.95 7.45 4.2 L7.45 4.4 7.5 4.75 Q7.5 4.9 7.55 5.1 L7.55 5.35 7.6 5.55 7.65 5.9 Q7.65 6.2 7.7 6.5 L7.7 6.6 7.7 6.75 Q7.7 6.95 7.65 7.2 L7.55 7.35 7.5 7.45 7.5 7.55 7.5 7.55 7.35 7.7 7.3 7.75 6.9 8.05 6.75 8.2 Q6.45 8.45 6.15 8.75 6.0 8.9 5.85 9.05 L5.7 9.25 Q5.45 9.6 5.3 10.05 5.1 10.45 4.8 10.75 L4.45 11.05 4.4 11.1 4.4 11.1 Q4.2 11.3 4.0 11.5 L3.75 11.7 Q3.55 11.8 3.35 11.9 L3.2 11.95 3.2 11.95 3.1 12.1 2.9 12.3 2.75 12.4 Q2.5 12.6 2.2 12.75 L2.05 12.8 Q1.7 12.9 1.3 12.95 L1.2 12.95 Q0.5 12.9 -0.2 12.8 L-0.25 12.75 -0.95 12.65 -1.2 12.55 -1.25 12.55 -1.45 12.5 -1.55 12.5 -1.6 12.45 -1.95 12.35 -2.1 12.35 -2.25 12.25 Q-2.35 12.25 -2.45 12.2 L-2.45 12.2 -2.55 12.15 Q-2.8 12.05 -3.1 11.9 L-3.15 11.85 -3.4 11.75 -4.0 11.3 -4.15 11.25 -4.15 11.25 -4.25 11.25 -4.5 11.15 -4.6 11.1 -4.65 11.1 -4.75 11.1 -5.05 11.05 -5.35 10.85 -5.45 10.75 Q-5.6 10.55 -5.7 10.25 L-5.75 10.2 -5.8 10.1 -5.8 10.0 Q-5.8 9.7 -5.85 9.35 L-5.85 9.25 -5.85 9.15 -5.85 9.1 Q-6.1 8.75 -6.15 8.5 L-6.15 8.45 Q-6.15 7.9 -6.5 7.05 L-6.6 6.8 Q-6.7 6.55 -6.85 6.3 L-6.95 6.1 -7.0 5.95 -7.1 5.85 -7.1 5.85 Q-7.2 5.55 -7.35 5.2 L-7.4 5.1 -7.45 5.0 -7.55 4.9 Q-7.65 4.7 -7.8 4.45 -7.85 4.3 -7.85 4.2 L-7.85 4.15 Q-7.85 3.85 -7.65 3.4 L-7.6 3.2 -7.55 3.05 Q-7.55 2.85 -7.5 2.65 -7.5 2.45 -7.45 2.25 -7.65 1.6 -7.85 0.9 L-7.85 0.85 Q-8.3 -0.55 -8.3 -1.1 L-8.3 -1.1 Z" fill="none" stroke="#000000" stroke-linecap="round" stroke-linejoin="round" stroke-opacity="0.0" stroke-width="0.0"/>
    </g>
  </defs>
</svg>
