<?xml version="1.0" encoding="UTF-8" standalone="no"?>
<svg xmlns:ffdec="https://www.free-decompiler.com/flash" xmlns:xlink="http://www.w3.org/1999/xlink" ffdec:objectType="frame" height="588.9px" width="592.85px" xmlns="http://www.w3.org/2000/svg">
  <g transform="matrix(1.0, 0.0, 0.0, 1.0, 54.0, 60.3)">
    <use ffdec:characterId="551" ffdec:characterName="a_EB_PyramidCog3" height="149.8" transform="matrix(2.3246, 0.3703, -0.3703, 2.3246, 119.65, -38.45)" width="149.8" xlink:href="#sprite0"/>
    <use ffdec:characterId="553" ffdec:characterName="a_EB_PyramidCog4" height="80.5" transform="matrix(2.3515, -0.1245, 0.1245, 2.3515, 62.05, 303.4)" width="80.5" xlink:href="#sprite1"/>
    <use ffdec:characterId="555" ffdec:characterName="a_EB_PyramidCog1" height="227.5" transform="matrix(0.9968, 0.0706, -0.0706, 0.9968, 0.45, 133.95)" width="227.5" xlink:href="#sprite2"/>
    <use ffdec:characterId="557" ffdec:characterName="a_EB_PyramidCog2" height="224.7" transform="matrix(0.7149, 0.6931, -0.6931, 0.7149, 270.8282, -11.835)" width="224.7" xlink:href="#sprite3"/>
    <use ffdec:characterId="553" ffdec:characterName="a_EB_PyramidCog4" height="80.5" transform="matrix(1.2112, 0.1767, -0.1767, 1.2112, 198.6, 311.35)" width="80.5" xlink:href="#sprite1"/>
    <use ffdec:characterId="551" ffdec:characterName="a_EB_PyramidCog3" height="149.8" transform="matrix(1.2048, 0.2185, -0.2185, 1.2048, 292.25, 223.75)" width="149.8" xlink:href="#sprite0"/>
    <use ffdec:characterId="553" ffdec:characterName="a_EB_PyramidCog4" height="80.5" transform="matrix(1.2042, 0.2185, -0.2185, 1.2042, 429.35, 191.2)" width="80.5" xlink:href="#sprite1"/>
  </g>
  <defs>
    <g id="sprite0" transform="matrix(1.0, 0.0, 0.0, 1.0, 0.0, 0.0)">
      <use ffdec:characterId="550" height="21.4" transform="matrix(7.0, 0.0, 0.0, 7.0, 0.0, 0.0)" width="21.4" xlink:href="#shape0"/>
    </g>
    <g id="shape0" transform="matrix(1.0, 0.0, 0.0, 1.0, 0.0, 0.0)">
      <path d="M18.55 3.45 L17.55 4.45 17.65 4.6 18.2 5.25 19.4 4.45 19.85 5.1 18.65 5.9 19.05 6.65 20.35 6.1 20.65 6.8 19.35 7.35 19.65 8.3 19.7 8.35 21.05 8.05 21.25 8.8 19.85 9.15 Q19.95 9.7 19.95 10.3 L19.95 10.35 21.4 10.35 21.4 11.1 19.95 11.1 19.9 11.8 19.9 12.0 19.85 12.15 21.25 12.45 21.1 13.2 19.7 12.95 19.45 13.75 20.8 14.25 20.5 15.0 19.15 14.45 18.65 15.4 19.9 16.15 19.45 16.8 18.25 16.05 17.8 16.35 17.55 16.9 17.5 16.95 17.5 17.0 18.55 18.0 18.0 18.55 16.95 17.55 Q16.55 17.9 16.15 18.2 L16.95 19.4 16.3 19.85 15.5 18.65 14.75 19.05 15.3 20.35 14.6 20.65 14.05 19.35 Q13.55 19.55 13.05 19.7 L13.35 21.05 12.6 21.25 12.3 19.85 11.05 19.95 11.05 21.4 10.3 21.4 10.3 19.95 9.6 19.9 9.45 19.9 9.25 19.85 8.95 21.25 8.2 21.1 8.5 19.7 7.65 19.45 7.15 20.8 6.4 20.5 6.95 19.15 6.75 19.05 6.6 19.05 6.1 18.75 6.0 18.7 5.25 19.9 4.6 19.45 5.35 18.25 5.3 18.2 5.05 18.05 4.85 17.9 4.6 17.7 4.5 17.55 4.45 17.5 3.4 18.55 2.85 18.0 3.85 16.95 3.7 16.75 3.3 16.25 3.2 16.15 2.0 16.95 1.55 16.3 2.75 15.5 2.65 15.25 2.5 15.0 2.4 14.8 2.4 14.75 1.05 15.3 0.75 14.6 2.1 14.05 2.0 13.75 1.85 13.45 1.75 13.05 0.35 13.35 0.15 12.6 1.6 12.3 1.5 11.75 1.5 11.65 1.45 11.05 0.0 11.05 0.0 10.3 1.45 10.3 1.45 10.0 1.55 9.25 0.15 8.95 0.3 8.2 1.7 8.5 1.75 8.35 1.75 8.25 1.8 8.2 1.95 7.65 0.6 7.15 0.9 6.4 2.25 6.95 Q2.35 6.65 2.5 6.4 L2.55 6.3 2.7 6.1 2.75 6.0 1.5 5.25 1.95 4.6 3.15 5.35 3.5 4.85 3.85 4.5 3.9 4.4 2.9 3.4 3.45 2.85 4.45 3.85 4.65 3.7 4.7 3.65 5.15 3.35 5.2 3.3 5.2 3.25 5.3 3.2 4.45 2.0 5.1 1.55 5.9 2.75 Q6.0 2.7 6.15 2.65 6.15 2.6 6.2 2.6 L6.35 2.55 6.55 2.45 6.6 2.4 6.65 2.4 6.1 1.05 6.8 0.75 7.35 2.1 7.55 2.0 Q7.95 1.85 8.4 1.75 L8.05 0.35 8.8 0.15 9.15 1.6 9.3 1.55 9.35 1.55 10.35 1.45 10.35 0.0 11.1 0.0 11.1 1.45 12.15 1.55 12.45 0.15 13.2 0.3 12.95 1.7 Q13.35 1.8 13.75 1.95 L14.25 0.6 15.0 0.9 14.45 2.25 15.4 2.75 16.15 1.5 16.8 1.9 16.05 3.15 Q16.5 3.5 16.95 3.9 L17.0 3.85 17.0 3.9 18.0 2.9 18.55 3.45 M6.15 7.0 L5.9 7.3 5.15 6.85 4.85 7.25 4.1 9.1 4.0 9.6 4.9 9.8 4.85 10.3 8.05 10.3 Q8.15 9.6 8.55 9.05 L6.35 6.8 6.15 7.0 M8.6 5.25 L7.15 4.9 6.75 5.2 7.25 5.95 7.25 6.0 7.2 6.0 6.9 6.25 6.85 6.3 9.1 8.55 Q9.65 8.1 10.35 8.05 L10.35 4.85 9.85 4.9 9.7 4.9 9.5 4.05 9.05 4.15 8.6 5.25 M13.3 11.05 L12.8 12.25 15.1 14.55 15.2 14.3 15.5 14.1 16.25 14.6 16.55 14.15 15.75 13.65 16.05 13.1 16.25 12.65 16.4 12.1 17.3 12.3 17.4 11.8 16.5 11.65 16.55 11.55 16.55 11.4 16.6 11.05 13.3 11.05 M15.1 6.85 L15.1 6.8 12.8 9.1 13.3 10.3 16.6 10.3 16.5 9.7 17.4 9.5 17.3 9.05 16.5 7.15 16.25 6.75 15.45 7.25 15.1 6.85 M11.8 4.0 L11.65 4.9 11.1 4.85 11.1 8.05 Q11.75 8.15 12.3 8.55 L14.55 6.3 14.1 5.9 14.6 5.15 14.15 4.85 12.3 4.1 11.8 4.0 M4.9 11.7 L4.0 11.9 4.15 12.4 5.1 12.45 5.2 12.65 5.45 13.25 5.45 13.3 5.5 13.45 5.6 13.6 5.65 13.75 4.9 14.25 5.2 14.65 5.95 14.15 6.0 14.2 6.15 14.4 6.25 14.55 6.3 14.6 8.55 12.3 Q8.15 11.75 8.05 11.05 L4.85 11.05 4.85 11.35 4.9 11.7 M9.1 12.8 L6.8 15.1 6.85 15.15 7.0 15.25 7.1 15.4 7.3 15.45 7.3 15.5 6.8 16.25 7.25 16.55 7.75 15.75 7.8 15.8 8.1 16.0 8.2 16.0 8.8 16.25 9.3 16.4 9.1 17.3 9.6 17.4 9.8 16.5 9.9 16.55 10.0 16.55 10.35 16.6 10.35 13.3 9.1 12.8 M12.35 17.3 L12.2 16.4 12.8 16.2 14.25 16.5 14.65 16.25 14.15 15.45 14.6 15.1 12.3 12.8 11.1 13.3 11.1 16.6 11.7 16.5 11.9 17.4 12.35 17.3" fill="#5ecbb5" fill-rule="evenodd" stroke="none"/>
      <path d="M6.65 6.5 L6.0 5.85 5.65 6.2 6.3 6.85 6.1 7.1 6.05 7.2 6.0 7.25 5.2 6.75 4.95 7.15 5.7 7.65 5.45 8.1 5.45 8.15 8.4 9.35 Q8.75 8.75 9.35 8.4 L8.15 5.45 8.1 5.5 7.95 5.55 7.9 5.6 7.55 5.8 7.05 5.05 6.65 5.3 7.2 6.05 7.15 6.1 7.0 6.2 6.95 6.25 6.65 6.5 M12.15 12.9 L12.05 12.95 13.3 15.95 13.5 15.75 13.8 15.7 14.35 16.45 14.75 16.15 14.25 15.4 14.75 15.0 15.4 15.65 15.75 15.3 15.1 14.65 15.45 14.25 16.2 14.75 16.45 14.35 15.7 13.8 15.75 13.75 15.8 13.6 16.0 13.3 12.95 12.05 Q12.65 12.6 12.15 12.9 M16.6 10.4 L16.5 9.85 17.4 9.7 17.3 9.2 16.4 9.4 16.25 8.85 16.25 8.8 13.25 10.05 Q13.45 10.7 13.25 11.35 L16.3 12.6 16.45 12.05 17.3 12.2 17.4 11.7 16.55 11.55 16.55 11.5 16.6 10.9 17.5 10.85 17.5 10.35 16.6 10.4 M12.45 3.2 Q14.6 3.15 16.15 4.55 17.4 5.65 18.05 7.2 19.15 9.8 18.6 12.65 18.05 15.35 15.85 16.95 13.9 18.4 11.5 18.35 9.5 18.3 7.6 17.85 5.35 17.25 4.25 15.1 3.35 13.35 3.2 11.35 3.0 8.7 4.05 6.3 L4.45 5.65 6.05 4.05 6.4 4.0 5.85 4.5 Q6.4 4.2 6.95 4.05 9.65 3.2 12.45 3.2 M14.3 5.0 L13.8 5.75 13.3 5.5 12.05 8.45 Q12.65 8.75 13.0 9.35 L15.95 8.15 Q15.85 7.85 15.65 7.6 L16.4 7.1 16.15 6.7 15.4 7.2 14.95 6.7 15.6 6.05 15.25 5.7 14.6 6.35 14.2 6.0 14.7 5.25 14.3 5.0 M12.6 5.2 Q12.4 5.1 12.15 5.05 L12.1 5.05 12.0 5.0 12.15 4.1 11.7 4.05 11.5 4.95 11.0 4.9 10.85 4.9 10.85 3.95 10.35 3.95 10.35 4.9 10.0 4.9 9.85 4.95 9.65 4.05 9.15 4.15 9.35 5.05 9.3 5.05 8.9 5.15 8.85 5.15 10.05 8.1 Q10.7 7.95 11.4 8.15 L12.6 5.2 M4.0 9.75 L4.9 9.95 4.85 10.2 4.9 10.4 4.85 10.5 4.85 10.6 3.9 10.6 3.95 11.1 4.85 11.1 4.85 11.25 4.9 11.45 4.9 11.6 4.0 11.8 4.1 12.3 5.0 12.1 5.05 12.2 5.1 12.4 5.1 12.6 5.15 12.6 8.15 11.4 Q7.95 10.7 8.15 10.05 L5.15 8.8 5.1 9.05 5.05 9.05 5.05 9.1 5.0 9.45 4.1 9.3 4.0 9.75 M5.75 13.8 L5.75 13.85 5.0 14.4 5.3 14.8 6.0 14.25 6.05 14.35 6.35 14.65 6.45 14.8 5.8 15.45 6.15 15.8 6.8 15.15 7.2 15.45 6.7 16.2 7.1 16.5 7.65 15.75 8.15 16.0 9.4 13.0 Q8.75 12.65 8.4 12.05 L5.45 13.3 5.45 13.35 5.55 13.55 5.6 13.7 5.75 13.8 M10.05 13.25 L8.8 16.3 9.4 16.5 9.25 17.35 9.75 17.45 9.9 16.55 10.55 16.6 10.55 17.5 11.05 17.5 11.05 16.6 11.6 16.55 11.75 17.45 12.25 17.35 12.05 16.45 12.65 16.3 11.4 13.25 Q10.75 13.45 10.05 13.25 M18.05 14.9 Q18.1 15.0 18.15 15.1 L18.25 15.05 18.45 15.1 18.5 15.25 Q18.35 15.8 18.15 16.2 17.85 16.7 17.6 16.85 L17.4 16.95 Q16.9 17.05 16.8 17.05 L16.65 17.05 16.65 17.0 Q16.6 16.95 16.6 16.85 16.6 16.75 17.0 16.3 17.35 15.85 17.5 15.8 L17.8 15.4 Q17.95 15.05 17.95 14.95 17.95 14.85 18.0 14.85 L18.05 14.9" fill="#5ecbb5" fill-rule="evenodd" stroke="none"/>
    </g>
    <g id="sprite1" transform="matrix(1.0, 0.0, 0.0, 1.0, 0.0, 0.0)">
      <use ffdec:characterId="552" height="11.5" transform="matrix(7.0, 0.0, 0.0, 7.0, 0.0, 0.0)" width="11.5" xlink:href="#shape1"/>
    </g>
    <g id="shape1" transform="matrix(1.0, 0.0, 0.0, 1.0, 0.0, 0.0)">
      <path d="M10.15 2.05 L9.1 3.1 Q9.4 3.45 9.6 3.85 L10.9 3.3 11.2 4.05 9.85 4.6 9.9 4.85 10.0 5.45 11.5 5.45 11.5 6.2 10.0 6.2 Q9.95 6.7 9.8 7.1 L11.15 7.7 10.85 8.4 9.45 7.85 9.35 7.95 9.15 8.3 8.95 8.55 10.0 9.6 9.45 10.15 8.4 9.1 Q8.1 9.3 7.8 9.5 L7.6 9.55 8.15 10.95 7.45 11.25 6.9 9.85 6.35 9.95 6.3 9.95 6.05 10.0 6.05 11.5 5.25 11.5 5.25 10.0 Q4.8 9.95 4.35 9.8 L3.75 11.15 3.05 10.85 3.65 9.45 2.95 8.95 1.9 10.0 1.35 9.45 2.4 8.4 2.3 8.25 2.15 8.1 2.05 7.85 1.9 7.6 0.5 8.15 0.25 7.45 1.65 6.9 1.6 6.85 1.6 6.8 1.55 6.5 1.5 6.05 0.0 6.05 0.0 5.25 1.5 5.25 Q1.55 4.8 1.7 4.35 1.0 4.05 0.35 3.75 L0.65 3.05 2.05 3.65 2.05 3.6 2.2 3.4 Q2.35 3.15 2.5 2.95 L1.45 1.9 2.0 1.35 3.1 2.4 3.2 2.35 3.3 2.25 3.4 2.2 Q3.6 2.05 3.85 1.9 L3.3 0.55 4.0 0.25 4.6 1.65 4.95 1.55 5.0 1.55 5.45 1.5 5.45 0.0 6.2 0.0 6.2 1.5 6.45 1.55 6.65 1.55 7.1 1.7 7.7 0.35 8.4 0.65 7.85 2.0 7.85 2.05 8.2 2.25 8.35 2.35 8.55 2.5 9.55 1.45 10.15 2.05 M6.65 3.3 L6.35 3.9 6.15 3.85 6.0 3.85 6.0 4.15 Q6.4 4.2 6.75 4.45 L6.95 4.25 6.85 4.15 6.7 4.05 6.95 3.45 6.65 3.3 M7.3 4.55 L7.05 4.8 Q7.3 5.1 7.35 5.55 L7.65 5.55 7.65 5.35 7.6 5.2 8.2 4.95 8.1 4.65 7.5 4.9 7.3 4.55 M7.65 5.95 L7.35 5.95 Q7.3 6.4 7.05 6.7 L7.25 6.95 7.3 6.9 7.4 6.75 7.4 6.7 8.05 6.95 8.2 6.65 7.55 6.35 7.65 5.95 M4.65 3.4 L4.9 4.0 4.65 4.1 4.65 4.15 4.55 4.2 4.8 4.45 Q5.1 4.2 5.55 4.15 L5.55 3.8 5.4 3.85 5.2 3.9 4.95 3.25 4.65 3.4 M3.9 5.1 Q3.85 5.3 3.8 5.5 L3.7 5.5 3.7 5.55 4.15 5.55 Q4.2 5.1 4.45 4.75 L4.25 4.5 4.1 4.65 4.05 4.75 4.05 4.8 3.4 4.5 3.3 4.85 3.9 5.1 M3.85 6.1 L3.85 6.25 3.25 6.5 3.35 6.85 4.0 6.6 4.15 6.9 4.2 6.95 4.2 7.0 4.5 6.75 Q4.2 6.4 4.15 5.95 L3.8 5.95 3.85 6.1 M6.95 7.25 L6.75 7.0 Q6.4 7.3 6.0 7.35 L6.0 7.65 6.25 7.6 6.5 8.25 6.85 8.1 6.6 7.5 6.65 7.45 6.95 7.25 M4.5 8.05 L4.85 8.2 5.1 7.6 5.5 7.65 5.5 7.7 5.55 7.7 5.55 7.35 Q5.1 7.3 4.8 7.05 L4.55 7.3 Q4.65 7.35 4.8 7.45 L4.5 8.05" fill="#5ecbb5" fill-rule="evenodd" stroke="none"/>
    </g>
    <g id="sprite2" transform="matrix(1.0, 0.0, 0.0, 1.0, 0.0, 0.0)">
      <use ffdec:characterId="554" height="32.5" transform="matrix(7.0, 0.0, 0.0, 7.0, 0.0, 0.0)" width="32.5" xlink:href="#shape2"/>
    </g>
    <g id="shape2" transform="matrix(1.0, 0.0, 0.0, 1.0, 0.0, 0.0)">
      <path d="M27.55 12.8 L27.7 12.8 28.4 12.95 Q29.85 13.4 32.5 14.0 L32.5 18.45 Q29.85 19.05 28.4 19.5 L27.6 19.65 27.55 19.65 27.45 19.9 26.65 21.8 26.75 21.9 27.15 22.5 Q27.9 23.85 29.35 26.15 L26.2 29.3 Q23.9 27.85 22.55 27.1 L21.9 26.65 21.85 26.65 Q20.85 27.2 19.7 27.55 L19.7 27.7 19.55 28.4 Q19.1 29.85 18.55 32.5 L14.05 32.5 Q13.5 29.85 13.05 28.4 12.9 27.75 12.9 27.6 L12.9 27.55 Q11.75 27.25 10.75 26.65 L10.7 26.7 10.6 26.75 10.05 27.15 Q8.65 27.9 6.35 29.35 L3.2 26.2 Q4.7 23.9 5.4 22.55 5.75 22.0 5.9 21.9 L5.9 21.85 5.8 21.75 5.15 20.2 5.0 19.7 4.85 19.7 4.15 19.55 Q2.7 19.1 0.0 18.55 L0.0 14.05 Q2.7 13.45 4.15 13.05 L4.95 12.9 Q5.3 11.75 5.85 10.7 L5.75 10.6 Q5.65 10.45 5.35 10.0 4.65 8.65 3.15 6.35 L6.3 3.2 Q8.65 4.7 10.0 5.4 10.55 5.75 10.65 5.85 L10.65 5.9 10.8 5.8 12.85 5.0 12.8 4.95 12.85 4.85 Q12.85 4.65 12.95 4.15 L13.05 3.8 Q13.5 2.4 14.0 0.0 L18.45 0.0 Q19.0 2.4 19.4 3.8 L19.5 4.15 19.65 4.95 20.05 5.1 Q20.95 5.4 21.8 5.85 L21.85 5.85 21.9 5.75 Q22.05 5.65 22.5 5.35 23.85 4.65 26.15 3.15 L29.3 6.3 Q27.85 8.65 27.1 10.0 26.75 10.55 26.65 10.65 27.2 11.7 27.55 12.8 M10.2 17.9 L10.35 17.95 12.3 16.9 12.85 16.6 12.95 16.55 13.0 16.5 12.95 16.35 13.0 16.3 12.95 16.25 12.95 16.15 12.9 16.05 12.9 16.0 12.25 15.7 10.15 14.65 8.1 15.15 8.1 17.4 Q9.45 17.65 10.2 17.9 M19.4 10.8 L19.15 10.95 Q18.75 12.15 18.55 13.0 L18.3 13.65 18.3 13.7 18.35 13.8 18.45 13.85 18.65 14.05 18.7 14.05 Q18.75 14.05 18.8 14.0 18.95 13.95 19.35 13.8 L21.75 13.0 Q22.1 12.35 22.8 11.3 L21.2 9.7 19.4 10.8 M14.0 13.75 L13.75 13.05 13.0 10.75 11.3 9.7 9.7 11.3 Q10.45 12.45 10.8 13.15 L10.9 13.3 12.95 13.9 13.55 14.1 13.65 14.15 13.7 14.15 13.95 13.85 14.0 13.75 M14.6 10.2 L14.55 10.5 15.55 12.3 15.8 12.85 15.85 12.95 15.9 13.0 Q16.15 12.95 16.4 13.0 L16.45 12.95 16.45 12.9 16.5 12.85 16.75 12.25 17.85 10.1 Q17.65 9.35 17.35 8.1 L15.1 8.1 Q14.8 9.45 14.6 10.2 M24.4 17.35 L24.4 15.1 22.3 14.6 22.05 14.55 Q20.9 15.15 20.15 15.6 L19.5 15.9 19.45 16.05 19.45 16.45 19.5 16.45 19.6 16.5 20.15 16.75 Q21.0 17.2 22.35 17.85 23.1 17.65 24.4 17.35 M11.3 22.8 Q12.45 22.05 13.15 21.7 L13.25 21.65 13.9 19.45 14.1 18.85 14.15 18.8 14.15 18.7 13.85 18.45 13.75 18.4 13.7 18.4 13.05 18.65 10.8 19.4 Q10.45 20.1 9.7 21.25 L11.3 22.8 M18.6 19.4 L19.35 21.65 19.4 21.7 Q20.05 22.05 21.25 22.8 L22.8 21.2 Q22.05 20.05 21.7 19.35 L21.6 19.2 19.45 18.55 18.75 18.35 18.75 18.3 18.6 18.4 18.35 18.65 18.35 18.7 18.4 18.8 18.6 19.4 M16.15 19.45 L16.0 19.5 15.7 20.15 14.65 22.3 Q14.85 23.05 15.15 24.4 L17.4 24.4 Q17.7 23.05 17.9 22.3 L17.95 22.2 16.85 20.15 16.5 19.5 16.4 19.45 16.15 19.45" fill="#00ae8b" fill-rule="evenodd" stroke="none"/>
    </g>
    <g id="sprite3" transform="matrix(1.0, 0.0, 0.0, 1.0, 5.6, 5.6)">
      <use ffdec:characterId="556" height="32.1" transform="matrix(7.0, 0.0, 0.0, 7.0, -5.6, -5.6)" width="32.1" xlink:href="#shape3"/>
    </g>
    <g id="shape3" transform="matrix(1.0, 0.0, 0.0, 1.0, 0.8, 0.8)">
      <path d="M16.7 -0.8 Q17.1 4.25 17.4 7.0 L17.45 8.55 17.45 8.6 17.65 8.8 17.85 8.85 18.4 9.1 18.45 9.1 18.65 8.9 19.65 8.0 Q21.8 6.25 25.65 2.95 L27.65 4.95 Q24.35 8.8 22.6 10.95 L21.55 12.1 21.55 12.4 21.6 12.55 21.65 12.65 21.8 13.05 21.85 13.15 22.15 13.15 23.5 13.25 31.3 13.9 31.3 16.7 23.5 17.4 21.95 17.45 21.9 17.45 21.75 17.7 21.4 18.4 21.4 18.45 21.5 18.5 21.6 18.65 22.5 19.65 Q24.25 21.8 27.55 25.65 L25.55 27.65 Q21.75 24.35 19.6 22.6 L18.45 21.55 18.15 21.55 17.7 21.75 17.45 21.9 17.45 21.95 17.4 23.5 Q17.1 26.25 16.7 31.3 L13.9 31.3 Q13.55 26.25 13.25 23.5 L13.15 22.15 13.15 21.9 13.1 21.85 12.4 21.55 12.1 21.55 10.95 22.6 Q8.8 24.35 4.95 27.65 L2.95 25.65 Q6.3 21.8 8.0 19.65 L8.9 18.65 9.1 18.45 9.1 18.4 8.95 18.0 8.95 17.95 8.85 17.85 8.8 17.7 8.6 17.45 8.55 17.45 7.0 17.4 -0.8 16.7 -0.8 13.9 7.0 13.25 8.35 13.15 8.7 13.15 Q8.8 12.75 8.95 12.4 L9.0 12.1 8.95 12.1 7.95 10.95 Q6.2 8.8 2.85 4.95 L4.85 2.95 Q8.7 6.3 10.85 8.0 L11.85 8.9 12.05 9.1 12.1 9.1 Q12.6 8.85 13.1 8.7 L13.15 8.65 13.15 8.35 13.25 7.0 Q13.55 4.25 13.9 -0.8 L16.7 -0.8 M15.7 10.45 L14.85 10.45 14.7 12.45 13.8 10.65 13.0 11.0 13.6 12.8 12.15 11.55 11.55 12.15 12.8 13.65 10.95 13.05 10.65 13.85 12.35 14.7 10.45 14.85 10.45 15.7 12.4 15.85 10.65 16.75 11.0 17.5 Q12.1 17.15 12.8 16.95 L11.55 18.35 12.15 18.95 13.65 17.7 13.05 19.55 13.85 19.85 14.7 18.15 14.85 20.05 15.7 20.05 15.85 18.2 16.7 19.85 17.5 19.55 16.9 17.75 18.35 18.95 18.95 18.35 17.7 16.9 19.55 17.5 19.85 16.7 18.15 15.85 20.05 15.7 20.05 14.85 18.15 14.7 19.85 13.8 19.55 13.05 17.75 13.6 18.95 12.15 18.35 11.55 16.9 12.85 17.45 11.0 16.7 10.65 15.85 12.35 15.7 10.45" fill="#00ae8b" fill-rule="evenodd" stroke="none"/>
    </g>
  </defs>
</svg>
