<?xml version="1.0" encoding="UTF-8" standalone="no"?>
<svg xmlns:ffdec="https://www.free-decompiler.com/flash" xmlns:xlink="http://www.w3.org/1999/xlink" ffdec:objectType="frame" height="21.0px" width="44.45px" xmlns="http://www.w3.org/2000/svg">
  <g transform="matrix(1.0, 0.0, 0.0, 1.0, 21.7, 12.6)">
    <use ffdec:characterId="463" height="3.0" transform="matrix(7.0, 0.0, 0.0, 7.0, -21.7, -12.6)" width="6.35" xlink:href="#shape0"/>
  </g>
  <defs>
    <g id="shape0" transform="matrix(1.0, 0.0, 0.0, 1.0, 3.1, 1.8)">
      <path d="M-1.95 -0.35 L-2.05 -0.4 -2.0 -0.4 -1.95 -0.35 M-2.65 -0.3 L-2.55 -0.35 -2.65 -0.3 M-1.45 0.1 L-1.5 0.1 -1.6 0.05 Q-1.85 -0.1 -2.15 -0.2 L-2.25 -0.2 -2.0 -0.15 -1.7 -0.05 -1.5 0.1 -1.45 0.1 M-2.9 0.35 L-2.85 0.35 -2.85 0.4 -2.9 0.35 M-2.55 0.65 L-2.55 0.7 -2.6 0.65 -2.55 0.65" fill="#262626" fill-rule="evenodd" stroke="none"/>
      <path d="M1.45 -1.05 L1.35 -1.25 1.35 -1.3 1.2 -1.4 0.9 -1.5 Q0.25 -1.6 -0.35 -1.5 L-0.6 -1.45 -0.7 -1.4 -0.75 -1.4 -0.9 -1.3 -0.3 -0.7 -0.25 -0.65 -0.15 -0.5 0.25 -0.2 0.55 -0.1 0.65 -0.1 0.9 0.0 1.05 0.0 1.35 0.1 1.3 0.1 Q1.05 0.15 0.85 0.1 L0.75 0.05 0.6 0.05 Q0.4 0.0 0.15 -0.15 -0.05 -0.25 -0.2 -0.45 -0.45 -0.65 -0.6 -0.85 L-0.6 -0.8 -0.95 -1.15 -1.15 -1.2 -1.2 -1.2 -1.25 -1.15 -1.35 -0.95 -1.35 -0.9 -1.4 -0.8 -1.35 -0.8 -1.25 -0.65 -1.2 -0.65 -0.9 -0.4 -0.5 -0.15 -0.1 0.05 -0.05 0.05 0.55 0.2 0.65 0.2 0.85 0.25 1.0 0.25 1.4 0.25 1.15 0.3 Q0.6 0.3 0.05 0.15 L-0.1 0.15 -0.6 -0.05 -0.65 -0.05 Q-0.9 -0.15 -1.1 -0.35 -1.35 -0.5 -1.4 -0.7 -1.45 -0.7 -1.5 -0.75 L-1.6 -0.8 Q-1.65 -0.9 -1.7 -0.85 L-1.8 -0.85 -2.1 -0.45 -2.05 -0.4 -1.95 -0.35 -1.9 -0.3 -1.0 0.25 -0.7 0.45 -0.6 0.5 Q0.35 1.0 1.45 1.0 L1.5 1.0 2.05 0.8 2.1 0.75 2.4 0.6 2.8 0.3 Q3.05 0.1 3.0 -0.2 L2.9 -0.35 Q2.85 -0.4 2.8 -0.55 2.7 -0.85 2.5 -0.85 L2.4 -0.85 2.45 -0.7 2.45 -0.6 Q2.5 -0.15 2.3 0.1 L2.15 0.15 Q1.9 0.35 1.6 0.35 L1.55 0.35 1.5 0.35 1.9 0.2 2.2 0.05 Q2.25 -0.05 2.25 -0.15 L2.3 -0.85 2.25 -0.95 2.2 -1.0 Q2.15 -1.05 2.05 -1.05 1.8 -1.0 1.65 -1.1 1.6 -0.95 1.6 -0.8 L1.6 -0.75 Q1.65 -0.6 1.6 -0.45 L1.6 -0.4 Q1.6 -0.35 1.45 -0.3 L1.4 -0.25 1.3 -0.2 0.9 -0.2 1.15 -0.25 1.35 -0.35 1.5 -0.45 1.5 -0.55 1.45 -1.05 M-0.1 -0.5 L-0.15 -0.5 -0.1 -0.5 M1.1 -1.7 L1.3 -1.55 1.45 -1.5 1.65 -1.25 2.15 -1.25 2.25 -1.2 2.45 -1.05 2.5 -1.0 2.6 -1.05 Q2.7 -1.05 2.8 -0.95 L3.1 -0.5 3.2 -0.25 3.25 -0.1 3.25 -0.05 3.2 0.0 3.2 0.05 3.15 0.1 3.15 0.15 2.85 0.4 2.75 0.5 2.65 0.55 2.1 0.9 1.75 1.05 1.45 1.1 1.4 1.15 1.35 1.15 1.15 1.2 1.05 1.15 0.75 1.15 0.45 1.1 Q0.0 1.15 -0.4 0.95 L-1.15 0.95 Q-1.75 0.9 -2.25 0.7 L-2.25 0.65 -2.35 0.65 Q-2.5 0.65 -2.6 0.75 L-2.65 0.8 -2.85 0.7 Q-3.0 0.6 -3.05 0.45 L-3.1 0.25 -3.05 0.15 -3.0 0.0 Q-3.0 -0.25 -2.8 -0.3 L-2.75 -0.45 Q-2.65 -0.7 -2.35 -0.6 L-2.25 -0.55 -2.15 -0.8 Q-2.0 -1.05 -1.7 -1.05 L-1.55 -1.05 -1.45 -1.25 -1.35 -1.4 -1.15 -1.4 -1.15 -1.35 -0.75 -1.55 Q-0.5 -1.65 -0.2 -1.7 L-0.15 -1.7 -0.1 -1.75 Q0.4 -1.85 0.9 -1.75 L1.0 -1.75 1.0 -1.7 1.1 -1.7 M-2.65 -0.3 L-2.2 -0.3 -2.0 -0.2 -2.2 -0.4 Q-2.25 -0.4 -2.25 -0.45 L-2.45 -0.45 -2.55 -0.35 -2.65 -0.3 M-2.25 -0.2 L-2.45 -0.2 Q-2.7 -0.15 -2.85 0.1 -2.9 0.25 -2.9 0.35 L-2.85 0.4 -2.7 0.55 -2.65 0.55 Q-2.45 0.45 -2.25 0.45 L-1.5 0.55 -1.3 0.6 -1.25 0.6 -0.6 0.75 -0.5 0.75 -0.35 0.8 -0.3 0.8 0.05 0.9 -0.25 0.8 -0.4 0.7 Q-0.95 0.45 -1.45 0.1 L-1.5 0.1 -1.7 -0.05 -2.0 -0.15 -2.25 -0.2 M-0.6 -0.9 L-0.6 -0.9 M-1.25 -1.3 L-1.25 -1.3 M-0.3 -0.5 L-0.2 -0.45 -0.25 -0.5 -0.3 -0.5 M-1.0 0.85 L-0.8 0.85 Q-1.4 0.65 -2.05 0.65 -1.55 0.85 -1.0 0.85 M-2.55 0.65 L-2.6 0.65 -2.55 0.7 -2.55 0.65" fill="#111111" fill-rule="evenodd" stroke="none"/>
      <path d="M1.0 0.25 L0.85 0.25 0.65 0.2 0.55 0.2 0.6 0.2 1.0 0.25 M1.3 0.05 L1.3 0.05" fill="#333333" fill-rule="evenodd" stroke="none"/>
      <path d="M0.65 -0.1 L0.55 -0.1 0.65 -0.1 M-0.1 -0.5 L-0.15 -0.5 -0.05 -0.45 -0.1 -0.5" fill="#363636" fill-rule="evenodd" stroke="none"/>
      <path d="M1.45 -1.05 L1.5 -0.55 1.5 -0.45 1.35 -0.35 1.15 -0.25 0.9 -0.2 1.3 -0.2 1.4 -0.25 1.45 -0.3 Q1.6 -0.35 1.6 -0.4 L1.6 -0.45 1.6 -0.35 1.45 -0.2 1.45 -0.1 1.4 -0.05 1.4 0.0 Q1.75 -0.05 1.85 -0.35 L2.15 -0.85 2.3 -0.85 2.25 -0.15 Q2.25 -0.05 2.2 0.05 L1.9 0.2 1.5 0.35 1.55 0.35 1.4 0.45 0.75 0.45 0.0 0.5 1.15 0.6 1.4 0.55 Q2.1 0.55 2.55 -0.05 2.7 -0.25 2.7 -0.45 2.75 -0.45 2.8 -0.4 2.85 -0.35 2.9 -0.35 L3.0 -0.2 Q3.05 0.1 2.8 0.3 L2.4 0.6 2.1 0.75 2.05 0.8 1.5 1.0 1.45 1.0 Q0.35 1.0 -0.6 0.5 -1.2 0.15 -1.7 -0.3 -1.8 -0.4 -1.8 -0.55 -1.35 -0.25 -0.85 0.0 -0.35 0.3 0.25 0.4 L1.35 0.35 1.15 0.3 1.4 0.25 1.0 0.25 0.6 0.2 0.55 0.2 -0.05 0.05 -0.1 0.05 -0.5 -0.15 -0.9 -0.4 -1.2 -0.65 -1.25 -0.65 -1.15 -0.9 Q-0.5 -0.4 0.25 0.0 0.65 0.2 1.15 0.2 1.25 0.15 1.3 0.1 L1.35 0.1 1.05 0.0 0.9 0.0 0.65 -0.1 0.55 -0.1 0.25 -0.2 -0.15 -0.5 -0.1 -0.5 -0.05 -0.45 -0.15 -0.5 -0.25 -0.65 -0.3 -0.7 0.15 -0.4 Q0.55 -0.15 0.55 -0.5 L0.55 -0.75 Q0.65 -0.6 0.75 -0.55 L0.65 -1.0 0.55 -1.25 0.55 -1.3 1.1 -1.3 Q1.35 -1.25 1.35 -1.0 L1.4 -1.0 1.45 -1.05 M1.3 0.05 L1.3 0.05 M-2.65 0.55 L-2.65 0.5 -2.7 0.4 -2.7 0.35 -1.95 0.35 Q-2.2 0.15 -2.55 0.05 L-2.65 0.1 -2.45 0.05 -2.2 0.1 Q-1.35 0.3 -0.6 0.75 L-1.25 0.6 -1.3 0.6 -1.5 0.55 -2.25 0.45 Q-2.45 0.45 -2.65 0.55 M-0.3 0.8 L-0.25 0.8 -0.4 0.7 -0.25 0.8 0.05 0.9 -0.3 0.8 M-1.0 0.85 Q-1.55 0.85 -2.05 0.65 -1.4 0.65 -0.8 0.85 L-1.0 0.85" fill="#600000" fill-rule="evenodd" stroke="none"/>
      <path d="M-0.3 -0.7 L-0.9 -1.3 -0.75 -1.4 -0.7 -1.4 -0.6 -1.45 -0.35 -1.5 Q0.25 -1.6 0.9 -1.5 L1.2 -1.4 1.35 -1.3 1.35 -1.25 1.45 -1.05 1.4 -1.0 1.35 -1.0 Q1.35 -1.25 1.1 -1.3 L0.55 -1.3 0.55 -1.25 0.65 -1.0 0.75 -0.55 Q0.65 -0.6 0.55 -0.75 L0.55 -0.5 Q0.55 -0.15 0.15 -0.4 L-0.3 -0.7 M1.6 -0.45 Q1.65 -0.6 1.6 -0.75 L1.6 -0.8 Q1.6 -0.95 1.65 -1.1 1.8 -1.0 2.05 -1.05 2.15 -1.05 2.2 -1.0 L2.25 -0.95 2.3 -0.85 2.15 -0.85 1.85 -0.35 Q1.75 -0.05 1.4 0.0 L1.4 -0.05 1.45 -0.1 1.45 -0.2 1.6 -0.35 1.6 -0.45 M1.55 0.35 L1.6 0.35 Q1.9 0.35 2.15 0.15 L2.3 0.1 Q2.5 -0.15 2.45 -0.6 L2.45 -0.7 2.4 -0.85 2.5 -0.85 Q2.7 -0.85 2.8 -0.55 2.85 -0.4 2.9 -0.35 2.85 -0.35 2.8 -0.4 2.75 -0.45 2.7 -0.45 2.7 -0.25 2.55 -0.05 2.1 0.55 1.4 0.55 L1.15 0.6 0.0 0.5 0.75 0.45 1.4 0.45 1.55 0.35 M-0.6 0.5 L-0.7 0.45 -1.0 0.25 -1.9 -0.3 -1.95 -0.35 -2.0 -0.4 -2.05 -0.4 -2.1 -0.45 -1.8 -0.85 -1.7 -0.85 Q-1.65 -0.9 -1.6 -0.8 L-1.5 -0.75 Q-1.45 -0.7 -1.4 -0.7 -1.35 -0.5 -1.1 -0.35 -0.9 -0.15 -0.65 -0.05 L-0.6 -0.05 -0.1 0.15 0.05 0.15 Q0.6 0.3 1.15 0.3 L1.35 0.35 0.25 0.4 Q-0.35 0.3 -0.85 0.0 -1.35 -0.25 -1.8 -0.55 -1.8 -0.4 -1.7 -0.3 -1.2 0.15 -0.6 0.5 M-1.25 -0.65 L-1.35 -0.8 -1.4 -0.8 -1.35 -0.9 -1.35 -0.95 -1.25 -1.15 -1.2 -1.2 -1.15 -1.2 -0.95 -1.15 -0.6 -0.8 -0.6 -0.85 Q-0.45 -0.65 -0.2 -0.45 -0.05 -0.25 0.15 -0.15 0.4 0.0 0.6 0.05 L0.75 0.05 0.85 0.1 Q1.05 0.15 1.3 0.1 1.25 0.15 1.15 0.2 0.65 0.2 0.25 0.0 -0.5 -0.4 -1.15 -0.9 L-1.25 -0.65 M-2.55 -0.35 L-2.45 -0.45 -2.25 -0.45 Q-2.25 -0.4 -2.2 -0.4 L-2.0 -0.2 -2.2 -0.3 -2.65 -0.3 -2.55 -0.35 M-2.25 -0.2 L-2.15 -0.2 Q-1.85 -0.1 -1.6 0.05 L-1.5 0.1 -1.45 0.1 Q-0.95 0.45 -0.4 0.7 L-0.25 0.8 -0.3 0.8 -0.35 0.8 -0.5 0.75 -0.6 0.75 Q-1.35 0.3 -2.2 0.1 L-2.45 0.05 -2.65 0.1 -2.55 0.05 Q-2.2 0.15 -1.95 0.35 L-2.7 0.35 -2.7 0.4 -2.65 0.5 -2.65 0.55 -2.7 0.55 -2.85 0.4 -2.85 0.35 -2.9 0.35 Q-2.9 0.25 -2.85 0.1 -2.7 -0.15 -2.45 -0.2 L-2.25 -0.2 M-0.3 -0.5 L-0.25 -0.5 -0.2 -0.45 -0.3 -0.5" fill="#b00000" fill-rule="evenodd" stroke="none"/>
    </g>
  </defs>
</svg>
