<?xml version="1.0" encoding="UTF-8" standalone="no"?>
<svg xmlns:ffdec="https://www.free-decompiler.com/flash" xmlns:xlink="http://www.w3.org/1999/xlink" ffdec:objectType="frame" height="120.75px" width="93.1px" xmlns="http://www.w3.org/2000/svg">
  <g transform="matrix(1.0, 0.0, 0.0, 1.0, 58.8, 122.15)">
    <use ffdec:characterId="148" height="17.25" transform="matrix(7.0, 0.0, 0.0, 7.0, -58.8, -122.15)" width="13.3" xlink:href="#shape0"/>
  </g>
  <defs>
    <g id="shape0" transform="matrix(1.0, 0.0, 0.0, 1.0, 8.4, 17.45)">
      <path d="M-0.25 -11.65 L0.25 -11.7 Q0.05 -11.6 -0.1 -11.45 L-0.25 -11.25 Q-0.4 -11.1 -1.35 -11.1 L-1.7 -11.1 Q-2.45 -11.1 -2.7 -11.25 L-2.7 -11.3 Q-3.0 -11.35 -3.45 -11.55 L-4.4 -11.9 Q-3.75 -11.25 -3.3 -10.9 L-2.75 -10.55 Q-2.15 -10.25 -1.3 -10.05 L-1.6 -10.0 -3.5 -8.85 -1.95 -8.25 -3.35 -6.95 -6.25 -10.35 Q-6.5 -10.1 -6.9 -9.9 L-7.35 -9.75 Q-7.5 -9.2 -7.6 -8.25 -7.9 -7.3 -7.8 -5.5 L-7.7 -4.65 Q-7.55 -3.55 -7.05 -2.45 L-7.0 -2.3 Q-6.75 -1.7 -6.55 -1.45 L-6.0 -1.6 Q-5.75 -1.75 -5.4 -1.9 -4.85 -2.15 -4.3 -2.3 L-4.15 -2.35 Q-3.7 -2.6 -3.45 -2.75 L-3.3 -3.1 -3.0 -3.7 Q-2.9 -3.95 -2.75 -4.15 L-3.35 -4.85 -1.75 -4.35 -2.3 -2.7 0.25 -7.15 Q0.4 -7.35 0.65 -7.6 L1.1 -8.1 1.8 -8.7 2.3 -9.05 2.5 -9.15 2.5 -9.2 2.6 -9.2 2.7 -9.3 2.8 -9.35 2.95 -9.4 3.2 -9.5 3.55 -9.65 3.65 -9.7 3.7 -9.75 3.85 -9.9 3.85 -9.95 Q4.15 -10.35 4.2 -10.9 4.2 -11.2 3.9 -11.5 L3.85 -11.55 3.8 -11.7 Q3.65 -12.0 3.65 -12.25 L3.65 -12.4 3.7 -12.6 3.7 -12.65 3.65 -12.9 3.65 -13.55 Q3.65 -13.95 3.95 -14.85 L4.25 -15.75 Q4.25 -16.2 4.15 -16.45 4.05 -16.75 3.75 -16.95 L3.4 -16.95 2.9 -17.05 Q2.4 -17.05 2.05 -16.9 1.7 -16.75 1.4 -16.45 L1.35 -16.35 Q1.15 -16.0 0.95 -15.5 L0.55 -14.5 0.45 -14.15 Q0.35 -13.8 0.2 -13.5 L-0.1 -13.05 -0.3 -12.7 -0.45 -12.55 -0.8 -12.1 -1.25 -11.85 -1.5 -11.7 -1.1 -11.65 -0.65 -11.65 -0.5 -11.6 -0.3 -11.65 -0.25 -11.65 M-2.75 -6.45 L-2.25 -6.2 -2.2 -5.45 -2.8 -5.3 -2.5 -6.2 -3.0 -6.15 -3.05 -6.2 -2.8 -6.4 -2.75 -6.45 M1.3 -16.9 Q1.65 -17.15 2.1 -17.25 2.95 -17.55 3.75 -17.4 L4.25 -17.25 Q4.45 -17.25 4.65 -17.05 L4.75 -17.0 Q4.95 -16.45 4.9 -16.05 4.9 -15.65 4.7 -14.9 4.5 -14.25 4.45 -13.5 L4.4 -13.25 4.4 -13.15 4.45 -13.15 4.45 -13.0 Q4.45 -12.75 4.55 -12.45 L4.55 -12.3 4.85 -11.5 4.55 -9.65 Q4.5 -9.35 4.05 -9.05 L3.7 -8.8 Q3.55 -8.7 3.4 -8.6 L3.05 -8.45 Q1.9 -7.8 1.7 -7.6 1.45 -7.35 1.25 -7.05 L0.95 -6.65 Q0.75 -6.3 0.3 -5.5 L0.1 -4.85 Q-0.05 -4.3 -0.25 -3.95 L-0.3 -3.65 Q-0.5 -2.95 -0.75 -2.45 -1.55 -0.9 -3.2 -0.9 L-3.4 -0.95 -3.5 -1.05 -2.95 -1.7 -3.85 -1.75 Q-4.1 -1.65 -4.65 -1.35 -5.4 -1.0 -5.7 -0.95 -5.8 -0.9 -5.9 -0.85 -6.4 -0.55 -6.95 -0.2 -7.2 -0.35 -7.6 -1.35 L-7.65 -1.5 Q-8.1 -3.0 -8.3 -4.65 L-8.4 -5.75 Q-8.45 -6.85 -8.25 -8.15 L-7.8 -10.15 -7.75 -10.55 -7.4 -10.5 Q-7.1 -10.55 -6.9 -10.9 L-6.85 -11.0 -6.55 -11.1 -6.55 -11.7 -6.45 -12.05 Q-6.15 -12.0 -5.55 -11.75 L-4.85 -11.4 -5.05 -11.6 Q-5.35 -11.95 -5.5 -12.0 -5.25 -12.45 -3.8 -12.15 L-2.4 -11.85 -1.35 -12.65 -0.9 -13.0 -0.85 -13.05 -0.6 -13.35 Q-0.4 -13.65 0.1 -14.7 L0.15 -15.1 Q0.2 -15.65 0.3 -15.95 0.5 -16.65 1.3 -16.9" fill="#111111" fill-rule="evenodd" stroke="none"/>
      <path d="M-0.25 -11.65 Q0.65 -12.35 1.35 -14.4 1.7 -15.45 2.0 -16.6 L2.05 -16.9 Q2.4 -17.05 2.9 -17.05 L3.4 -16.95 3.75 -16.95 Q4.05 -16.75 4.15 -16.45 4.25 -16.2 4.25 -15.75 L3.95 -14.85 Q3.65 -13.95 3.65 -13.55 L3.65 -12.9 3.7 -12.65 1.8 -12.75 1.65 -12.75 Q1.2 -11.8 1.2 -11.35 1.2 -10.7 1.8 -9.9 2.4 -9.75 3.3 -9.75 L3.7 -9.75 3.65 -9.7 3.55 -9.65 3.2 -9.5 2.95 -9.4 2.8 -9.35 2.7 -9.3 2.6 -9.2 2.5 -9.2 2.5 -9.15 2.3 -9.05 1.8 -8.7 1.1 -8.1 0.65 -7.6 Q0.4 -7.35 0.25 -7.15 L-2.3 -2.7 -1.75 -4.35 -3.35 -4.85 -3.15 -5.0 -2.2 -5.45 -2.25 -6.2 -2.75 -6.45 -2.65 -6.55 -1.95 -8.25 -3.5 -8.85 -1.05 -10.0 Q-1.15 -10.05 -1.15 -10.1 L-2.75 -10.55 -3.3 -10.9 -2.7 -10.9 Q-1.9 -10.9 -1.35 -11.1 -0.4 -11.1 -0.25 -11.25 L-0.1 -11.45 Q0.05 -11.6 0.25 -11.7 L-0.25 -11.65" fill="#665542" fill-rule="evenodd" stroke="none"/>
      <path d="M3.7 -9.75 L3.3 -9.75 Q2.4 -9.75 1.8 -9.9 1.2 -10.7 1.2 -11.35 1.2 -11.8 1.65 -12.75 L1.8 -12.75 3.7 -12.65 3.7 -12.6 3.65 -12.4 3.65 -12.25 Q3.65 -12.0 3.8 -11.7 L3.85 -11.55 3.9 -11.5 Q4.2 -11.2 4.2 -10.9 4.15 -10.35 3.85 -9.95 L3.85 -9.9 3.7 -9.75" fill="#a68a6c" fill-rule="evenodd" stroke="none"/>
      <path d="M-3.15 -5.0 L-3.35 -4.85 -2.75 -4.15 Q-2.9 -3.95 -3.0 -3.7 L-3.3 -3.1 -3.45 -2.75 Q-3.7 -2.6 -4.15 -2.35 L-4.3 -2.3 Q-4.85 -2.15 -5.4 -1.9 -5.75 -1.75 -6.0 -1.6 L-6.55 -1.45 Q-6.75 -1.7 -7.0 -2.3 L-6.7 -2.5 Q-6.0 -2.8 -5.85 -2.95 -5.6 -3.15 -5.0 -3.45 -4.15 -3.8 -4.1 -3.85 L-4.25 -3.8 -5.25 -3.85 -6.5 -4.15 Q-6.3 -4.35 -6.15 -4.35 L-5.95 -4.35 -5.2 -4.85 -4.5 -5.2 -4.4 -5.35 -3.9 -5.65 Q-3.65 -5.75 -3.4 -5.9 L-3.05 -6.2 -3.0 -6.15 -2.5 -6.2 -2.8 -5.3 -3.15 -5.0" fill="#404040" fill-rule="evenodd" stroke="none"/>
      <path d="M2.05 -16.9 L2.0 -16.6 Q1.7 -15.45 1.35 -14.4 0.65 -12.35 -0.25 -11.65 L-0.3 -11.65 -0.5 -11.6 -0.65 -11.65 -1.1 -11.65 -1.5 -11.7 -1.25 -11.85 -0.8 -12.1 -0.45 -12.55 -0.3 -12.7 -0.1 -13.05 0.2 -13.5 Q0.35 -13.8 0.45 -14.15 L0.55 -14.5 0.95 -15.5 Q1.15 -16.0 1.35 -16.35 L1.4 -16.45 Q1.7 -16.75 2.05 -16.9 M-1.35 -11.1 Q-1.9 -10.9 -2.7 -10.9 L-3.3 -10.9 Q-3.75 -11.25 -4.4 -11.9 L-3.45 -11.55 Q-3.0 -11.35 -2.7 -11.3 L-2.7 -11.25 Q-2.45 -11.1 -1.7 -11.1 L-1.35 -11.1 M-2.75 -10.55 L-1.15 -10.1 Q-1.15 -10.05 -1.05 -10.0 L-3.5 -8.85 -1.6 -10.0 -1.3 -10.05 Q-2.15 -10.25 -2.75 -10.55 M-1.95 -8.25 L-2.65 -6.55 -3.35 -6.95 -1.95 -8.25 M-2.2 -5.45 L-3.15 -5.0 -2.8 -5.3 -2.2 -5.45 M-1.75 -4.35 L-2.3 -2.7 -1.75 -4.35" fill="#806b53" fill-rule="evenodd" stroke="none"/>
      <path d="M-2.65 -6.55 L-2.75 -6.45 -2.8 -6.4 -3.05 -6.2 -3.4 -5.9 Q-3.65 -5.75 -3.9 -5.65 L-4.4 -5.35 -4.5 -5.2 -5.2 -4.85 -5.95 -4.35 -6.15 -4.35 Q-6.3 -4.35 -6.5 -4.15 L-5.25 -3.85 -4.25 -3.8 -4.1 -3.85 Q-4.15 -3.8 -5.0 -3.45 -5.6 -3.15 -5.85 -2.95 -6.0 -2.8 -6.7 -2.5 L-7.0 -2.3 -7.05 -2.45 Q-7.55 -3.55 -7.7 -4.65 L-7.8 -5.5 Q-7.9 -7.3 -7.6 -8.25 -7.5 -9.2 -7.35 -9.75 L-6.9 -9.9 Q-6.5 -10.1 -6.25 -10.35 L-3.35 -6.95 -2.65 -6.55" fill="#2e2e2e" fill-rule="evenodd" stroke="none"/>
      <path d="M-0.85 -8.35 L-1.05 -8.5 Q-0.6 -8.75 -0.25 -9.05 L0.0 -9.35 0.05 -9.4 0.6 -10.1 0.45 -10.0 Q0.25 -9.85 -0.15 -9.8 L-1.1 -9.75 -1.95 -9.8 -2.0 -9.9 Q-2.05 -10.0 -2.15 -10.1 L-1.65 -10.3 Q-1.25 -10.45 -1.0 -10.65 L-0.95 -10.7 -1.0 -10.7 -1.15 -10.65 -1.3 -10.65 -1.9 -10.75 Q-3.15 -10.9 -3.5 -10.8 -3.7 -10.7 -4.95 -11.05 -6.05 -11.35 -6.25 -11.45 L-6.3 -11.35 Q-6.25 -11.1 -6.0 -10.8 L-5.85 -10.8 Q-5.75 -10.45 -5.2 -10.2 L-4.9 -10.1 Q-5.55 -9.85 -6.0 -9.8 L-6.5 -9.85 -6.65 -9.7 -6.6 -9.65 -6.55 -9.55 -6.15 -9.3 Q-5.85 -9.2 -5.5 -9.15 L-5.45 -9.15 -5.4 -9.1 -5.05 -9.1 -4.9 -9.2 -4.75 -9.25 -4.6 -9.35 -4.5 -9.35 -3.95 -9.45 -3.85 -9.45 -4.45 -9.1 Q-5.1 -8.65 -5.25 -8.2 L-5.35 -8.05 -5.65 -7.55 -5.55 -7.6 -5.45 -7.7 Q-5.7 -7.3 -5.85 -7.2 L-4.85 -7.5 -5.1 -7.35 -4.5 -7.4 -4.35 -7.35 -4.25 -7.3 -3.9 -7.2 Q-3.25 -6.75 -2.15 -6.65 L-1.55 -6.6 -1.5 -6.55 -1.6 -6.4 -1.7 -6.4 Q-1.85 -6.3 -2.05 -6.2 L-2.3 -6.1 -2.5 -6.05 Q-2.65 -6.0 -2.9 -5.65 L-3.4 -5.05 Q-4.0 -4.25 -4.1 -3.9 L-3.8 -3.95 -3.45 -4.05 -3.1 -4.25 -3.05 -4.25 -2.65 -4.5 -2.6 -4.5 Q-2.0 -4.7 -1.4 -5.3 L-1.2 -5.55 -1.6 -4.85 -1.7 -4.7 Q-1.85 -4.55 -2.0 -4.4 L-2.4 -3.75 Q-3.15 -2.55 -3.25 -1.95 L-3.35 -1.8 Q-2.5 -2.05 -1.9 -2.6 L-1.95 -2.55 Q-2.4 -1.85 -2.75 -1.6 L-2.75 -1.55 Q-2.95 -1.45 -3.15 -1.35 -3.35 -1.3 -3.6 -1.3 -4.15 -1.2 -4.3 -1.4 -4.0 -1.75 -2.9 -3.35 L-2.45 -4.05 Q-2.7 -3.9 -3.0 -3.8 -3.2 -3.75 -3.75 -3.7 -4.3 -3.65 -4.65 -3.5 -4.75 -3.55 -4.8 -3.75 -4.5 -4.1 -3.7 -5.25 L-3.35 -5.65 -2.85 -6.2 -3.2 -6.25 -3.45 -6.5 Q-3.85 -6.75 -4.5 -6.9 L-5.55 -6.85 Q-5.9 -6.7 -6.25 -6.45 L-6.25 -6.5 Q-6.35 -6.55 -6.35 -6.75 L-6.35 -6.9 Q-6.45 -7.65 -5.4 -8.65 L-5.65 -8.65 Q-5.8 -8.55 -6.5 -8.95 -7.2 -9.3 -7.25 -9.55 L-7.25 -9.75 -7.35 -10.3 -7.4 -10.3 Q-7.4 -10.35 -7.25 -10.4 L-6.7 -10.35 -6.35 -10.25 -6.2 -10.25 Q-6.65 -10.6 -6.75 -11.15 -6.8 -11.55 -6.65 -11.85 -6.6 -12.0 -6.5 -12.05 -5.8 -11.5 -4.95 -11.3 -4.35 -11.15 -3.4 -11.15 L-1.9 -11.1 -1.85 -11.1 -1.85 -11.2 Q-1.4 -10.95 -0.95 -10.95 L-0.7 -11.0 -0.35 -10.9 Q-0.65 -10.2 -1.6 -10.05 L-1.15 -10.0 Q-0.7 -10.0 -0.1 -10.15 L0.1 -10.2 Q0.65 -10.4 0.8 -10.35 L0.75 -10.35 0.8 -10.4 Q0.85 -9.9 0.6 -9.5 L0.6 -9.45 Q0.6 -9.25 0.35 -8.35 0.1 -7.4 0.05 -7.25 L0.05 -7.2 Q0.3 -7.25 0.75 -7.65 1.15 -8.0 1.35 -7.9 L0.5 -6.1 0.3 -5.65 -0.25 -4.6 -0.35 -4.05 Q-0.55 -2.6 -1.3 -2.1 -1.45 -2.0 -1.6 -1.95 L-1.75 -1.95 Q-1.35 -2.35 -1.1 -3.0 -0.8 -3.55 -0.7 -4.25 -0.6 -4.85 -0.6 -5.4 L-0.6 -5.55 -0.55 -5.65 Q-0.45 -5.95 -0.15 -6.1 L0.35 -6.9 0.35 -6.95 0.2 -6.8 Q0.1 -6.7 -0.05 -6.7 L-0.35 -6.75 -0.5 -6.8 -0.2 -7.7 -0.05 -8.45 0.05 -8.9 -0.3 -8.65 Q-0.55 -8.5 -0.85 -8.35 M-0.15 -6.35 L-0.35 -6.65 -0.35 -6.7 -0.15 -6.35 M-1.0 -5.75 L-1.0 -5.75" fill="#111111" fill-rule="evenodd" stroke="none"/>
      <path d="M-0.85 -8.35 Q-0.55 -8.5 -0.3 -8.65 L0.05 -8.9 -0.05 -8.45 -0.2 -7.7 -0.25 -7.7 Q-1.35 -7.3 -1.9 -7.3 -2.05 -7.3 -3.0 -7.7 -2.25 -7.9 -1.4 -8.25 L-1.55 -8.1 Q-1.4 -8.25 -1.15 -8.3 L-0.9 -8.35 -0.85 -8.35 M-2.3 -6.1 L-2.05 -6.2 Q-1.85 -6.3 -1.7 -6.4 L-1.6 -6.4 -1.5 -6.55 Q-1.3 -6.6 -1.1 -6.7 L-1.3 -6.55 Q-2.15 -5.85 -2.65 -5.65 L-2.3 -6.1 M-4.9 -9.2 L-5.05 -9.1 -5.4 -9.1 -4.95 -9.15 -4.9 -9.2 M-2.0 -9.9 L-1.95 -9.8 -1.1 -9.75 -0.15 -9.8 Q0.25 -9.85 0.45 -10.0 L0.6 -10.1 0.05 -9.4 Q-1.1 -8.6 -2.4 -8.6 -2.65 -8.6 -3.35 -8.8 L-4.05 -9.05 -4.4 -9.0 -4.3 -9.05 -4.25 -9.1 -4.1 -9.15 Q-3.6 -9.35 -3.3 -9.35 L-3.15 -9.45 -3.1 -9.5 Q-2.55 -9.65 -2.0 -9.9" fill="#d9d1b8" fill-rule="evenodd" stroke="none"/>
      <path d="M0.05 -9.4 L0.0 -9.35 -0.25 -9.05 Q-0.6 -8.75 -1.05 -8.5 L-0.85 -8.35 -0.9 -8.35 -1.15 -8.3 Q-1.4 -8.25 -1.55 -8.1 L-1.4 -8.25 Q-2.25 -7.9 -3.0 -7.7 -2.05 -7.3 -1.9 -7.3 -1.35 -7.3 -0.25 -7.7 L-0.2 -7.7 -0.5 -6.8 -0.35 -6.75 -0.05 -6.7 Q0.1 -6.7 0.2 -6.8 L0.35 -6.95 0.35 -6.9 -0.15 -6.1 Q-0.45 -5.95 -0.55 -5.65 L-0.6 -5.55 -0.6 -5.4 Q-0.6 -4.85 -0.7 -4.25 -0.8 -3.55 -1.1 -3.0 -1.35 -2.35 -1.75 -1.95 -2.15 -1.55 -2.65 -1.5 L-2.7 -1.45 Q-2.75 -1.45 -2.75 -1.55 L-2.75 -1.6 Q-2.4 -1.85 -1.95 -2.55 L-1.9 -2.6 Q-2.5 -2.05 -3.35 -1.8 L-3.25 -1.95 Q-3.15 -2.55 -2.4 -3.75 L-2.0 -4.4 Q-1.85 -4.55 -1.7 -4.7 L-1.6 -4.85 -1.2 -5.55 -1.4 -5.3 Q-2.0 -4.7 -2.6 -4.5 L-2.65 -4.5 -3.05 -4.25 -3.1 -4.25 -3.45 -4.05 -3.8 -3.95 -4.1 -3.9 Q-4.0 -4.25 -3.4 -5.05 L-2.9 -5.65 Q-2.65 -6.0 -2.5 -6.05 L-2.3 -6.1 -2.65 -5.65 Q-2.15 -5.85 -1.3 -6.55 L-1.1 -6.7 Q-1.3 -6.6 -1.5 -6.55 L-1.55 -6.6 -2.15 -6.65 Q-3.25 -6.75 -3.9 -7.2 L-4.25 -7.3 -4.35 -7.35 -4.5 -7.4 -5.1 -7.35 -4.85 -7.5 -5.85 -7.2 Q-5.7 -7.3 -5.45 -7.7 L-5.55 -7.6 -5.65 -7.55 -5.35 -8.05 -5.25 -8.2 Q-5.1 -8.65 -4.45 -9.1 L-3.85 -9.45 -3.95 -9.45 -4.5 -9.35 -4.6 -9.35 -4.75 -9.25 -4.9 -9.2 -4.95 -9.15 -5.4 -9.1 -5.45 -9.15 -5.5 -9.15 Q-5.85 -9.2 -6.15 -9.3 L-6.55 -9.55 -6.6 -9.65 -6.65 -9.7 -6.5 -9.85 -6.0 -9.8 Q-5.55 -9.85 -4.9 -10.1 L-5.2 -10.2 Q-5.75 -10.45 -5.85 -10.8 L-6.0 -10.8 Q-6.25 -11.1 -6.3 -11.35 L-6.25 -11.45 Q-6.05 -11.35 -4.95 -11.05 -3.7 -10.7 -3.5 -10.8 -3.15 -10.9 -1.9 -10.75 L-1.3 -10.65 -1.15 -10.65 -1.0 -10.7 -0.95 -10.7 -1.0 -10.65 Q-1.25 -10.45 -1.65 -10.3 L-2.15 -10.1 Q-2.05 -10.0 -2.0 -9.9 -2.55 -9.65 -3.1 -9.5 L-3.15 -9.45 -3.3 -9.35 Q-3.6 -9.35 -4.1 -9.15 L-4.25 -9.1 -4.3 -9.05 -4.4 -9.0 -4.05 -9.05 -3.35 -8.8 Q-2.65 -8.6 -2.4 -8.6 -1.1 -8.6 0.05 -9.4 M-0.15 -6.35 L-0.35 -6.7 -0.35 -6.65 -0.15 -6.35 M-1.0 -5.75 L-1.0 -5.75" fill="#999382" fill-rule="evenodd" stroke="none"/>
    </g>
  </defs>
</svg>
