<?xml version="1.0" encoding="UTF-8" standalone="no"?>
<svg xmlns:ffdec="https://www.free-decompiler.com/flash" xmlns:xlink="http://www.w3.org/1999/xlink" ffdec:objectType="frame" height="131.0px" width="269.65px" xmlns="http://www.w3.org/2000/svg">
  <g transform="matrix(1.0, 0.0, 0.0, 1.0, 129.25, 108.25)">
    <use ffdec:characterId="3518" height="7.2" transform="matrix(7.0, 0.0, 0.0, 7.0, -41.95, -78.3)" width="15.65" xlink:href="#shape0"/>
    <use ffdec:characterId="3517" height="7.6" transform="matrix(-7.0, 0.0, 0.0, 7.0, 47.1, -70.65)" width="16.5" xlink:href="#shape1"/>
  </g>
  <defs>
    <g id="shape0" transform="matrix(1.0, 0.0, 0.0, 1.0, 7.4, 10.65)">
      <path d="M4.75 -9.55 Q4.35 -9.55 4.25 -9.8 4.2 -9.9 4.2 -10.05 4.2 -10.65 4.8 -10.65 5.35 -10.65 5.35 -10.1 5.35 -9.55 4.75 -9.55 M2.0 -7.55 Q2.55 -7.55 2.55 -7.1 2.55 -6.95 2.4 -6.8 2.25 -6.65 2.0 -6.65 1.6 -6.65 1.5 -6.85 1.5 -6.9 1.5 -7.1 1.5 -7.55 2.0 -7.55 M8.1 -4.4 Q7.9 -4.2 7.6 -4.2 7.3 -4.2 7.2 -4.4 7.15 -4.5 7.15 -4.65 7.15 -5.05 7.7 -5.15 8.25 -5.25 8.25 -4.8 8.25 -4.55 8.1 -4.4 M-2.5 -7.75 Q-2.75 -7.55 -2.9 -7.55 -3.35 -7.55 -3.45 -7.75 -3.5 -7.85 -3.5 -8.0 -3.5 -8.65 -2.85 -8.65 -2.6 -8.65 -2.45 -8.55 -2.25 -8.4 -2.25 -8.15 -2.25 -7.95 -2.5 -7.75 M-6.4 -4.3 L-6.35 -4.05 Q-6.35 -4.0 -6.55 -3.8 -6.75 -3.55 -6.95 -3.45 L-7.3 -3.75 Q-7.4 -3.8 -7.4 -3.9 -7.4 -4.1 -7.1 -4.35 -6.75 -4.6 -6.45 -4.45 L-6.4 -4.3" fill="#a45cba" fill-rule="evenodd" stroke="none"/>
    </g>
    <g id="shape1" transform="matrix(1.0, 0.0, 0.0, 1.0, 9.6, 7.25)">
      <path d="M-9.05 0.0 L-9.0 -0.05 -9.0 0.15 -9.05 0.0" fill="#ffffff" fill-rule="evenodd" stroke="none"/>
      <path d="M4.4 0.05 L4.75 -0.5 Q5.55 -1.75 5.55 -3.0 5.55 -4.35 4.6 -5.1 3.8 -5.75 2.55 -5.75 1.35 -5.75 0.45 -5.2 -0.05 -4.95 -0.25 -4.6 L-0.2 -4.5 -0.35 -4.65 Q-0.05 -5.4 0.55 -6.0 1.6 -7.1 3.1 -7.25 4.65 -7.4 5.7 -6.5 6.9 -5.45 6.9 -3.4 6.9 -2.15 6.4 -1.45 5.85 -0.6 4.4 0.05 M-0.4 -4.7 L-0.65 -4.95 Q-1.35 -5.45 -2.4 -5.5 -3.4 -5.6 -4.1 -5.2 L-4.35 -5.0 Q-4.2 -5.35 -3.95 -5.55 -3.8 -5.7 -3.6 -5.8 L-3.3 -6.0 Q-2.9 -6.2 -2.45 -6.05 L-2.4 -6.05 Q-0.95 -6.05 -0.55 -5.1 L-0.4 -4.7 M-4.95 -4.0 Q-5.75 -4.15 -6.8 -3.8 -8.0 -3.45 -8.8 -2.75 -9.35 -2.25 -9.55 -1.65 L-9.6 -1.5 Q-9.55 -1.95 -9.3 -2.6 -8.95 -3.45 -8.4 -4.0 -8.15 -4.2 -7.9 -4.35 -7.75 -4.8 -6.95 -4.65 -6.6 -4.9 -6.2 -4.9 -5.55 -4.85 -4.95 -4.0" fill="#d68dec" fill-rule="evenodd" stroke="none"/>
      <path d="M4.4 0.05 L4.25 0.1 3.85 0.25 3.8 0.25 3.75 0.3 2.8 0.3 2.55 0.35 2.25 0.3 2.4 0.1 Q2.75 -0.45 2.85 -0.9 3.1 -1.35 3.1 -1.9 3.1 -2.9 2.45 -3.35 1.9 -3.75 1.1 -3.55 0.55 -3.45 0.1 -3.2 L-0.15 -3.0 Q-0.15 -3.2 -0.15 -3.65 -0.15 -3.95 -0.7 -4.35 -1.35 -4.8 -2.1 -4.8 -3.3 -4.8 -3.9 -3.75 L-4.05 -3.5 -4.15 -3.3 -4.2 -3.05 -4.2 -3.0 Q-4.4 -3.15 -4.65 -3.2 -5.4 -3.4 -6.45 -2.95 -7.5 -2.55 -8.2 -1.75 -9.0 -0.95 -9.0 -0.05 L-9.05 0.0 -9.05 -0.05 -9.3 -0.25 Q-9.35 -0.35 -9.35 -0.45 L-9.45 -0.75 Q-9.55 -1.05 -9.6 -1.35 L-9.6 -1.5 -9.55 -1.65 Q-9.35 -2.25 -8.8 -2.75 -8.0 -3.45 -6.8 -3.8 -5.75 -4.15 -4.95 -4.0 L-4.6 -3.35 -4.5 -3.3 -4.5 -4.1 Q-4.5 -4.6 -4.35 -5.0 L-4.1 -5.2 Q-3.4 -5.6 -2.4 -5.5 -1.35 -5.45 -0.65 -4.95 L-0.4 -4.7 -0.35 -4.6 -0.35 -4.65 -0.2 -4.5 -0.25 -4.6 Q-0.05 -4.95 0.45 -5.2 1.35 -5.75 2.55 -5.75 3.8 -5.75 4.6 -5.1 5.55 -4.35 5.55 -3.0 5.55 -1.75 4.75 -0.5 L4.4 0.05 M-1.7 -5.05 L-1.6 -5.0 -1.9 -5.1 -1.7 -5.05 M-4.95 -3.45 L-5.05 -3.4 -4.95 -3.35 -4.8 -3.35 -4.95 -3.45" fill="#946fa0" fill-rule="evenodd" stroke="none"/>
    </g>
  </defs>
</svg>
