<?xml version="1.0" encoding="UTF-8" standalone="no"?>
<svg xmlns:ffdec="https://www.free-decompiler.com/flash" xmlns:xlink="http://www.w3.org/1999/xlink" ffdec:objectType="frame" height="104.3px" width="99.75px" xmlns="http://www.w3.org/2000/svg">
  <g transform="matrix(1.0, 0.0, 0.0, 1.0, 47.95, 53.55)">
    <use ffdec:characterId="696" height="14.9" transform="matrix(7.0, 0.0, 0.0, 7.0, -47.95, -53.55)" width="14.25" xlink:href="#shape0"/>
  </g>
  <defs>
    <g id="shape0" transform="matrix(1.0, 0.0, 0.0, 1.0, 6.85, 7.65)">
      <path d="M4.9 0.7 Q5.45 0.3 6.0 0.0 4.75 -0.25 3.5 -1.4 2.05 -2.85 0.8 -4.45 -0.25 -5.75 -1.4 -6.85 -1.8 -6.2 -2.3 -5.55 L-3.05 -4.75 -3.1 -4.75 Q-4.2 -3.6 -4.95 -2.15 L-5.2 -1.6 Q-3.3 -0.05 -1.25 1.3 0.15 2.25 1.2 3.35 2.8 2.35 4.3 1.15 L4.8 0.75 4.9 0.7 M3.4 -0.1 Q2.95 0.3 3.5 0.55 3.75 0.65 3.95 0.4 L4.0 0.25 3.95 0.15 Q3.85 0.0 3.7 -0.1 L3.4 -0.1 M6.8 -0.1 L7.0 0.05 6.75 0.05 Q6.45 0.55 6.05 1.05 6.55 1.4 6.9 1.85 7.2 2.2 7.4 2.6 5.2 3.75 2.9 4.25 L0.95 4.9 0.25 4.5 Q-0.95 5.45 -2.45 6.35 -3.4 6.9 -4.35 7.15 L-4.3 7.25 -4.5 7.2 -4.95 7.25 -4.75 7.05 Q-5.95 6.55 -6.45 4.95 -6.6 4.45 -6.85 4.05 -6.65 2.65 -6.35 1.3 -6.1 0.4 -5.7 -0.2 -5.95 -0.35 -5.95 -0.55 L-5.95 -0.55 Q-6.0 -0.8 -5.8 -1.1 -5.65 -1.3 -5.5 -1.35 L-5.6 -1.45 Q-5.75 -1.45 -5.85 -1.6 L-5.9 -1.65 -5.85 -1.8 Q-5.95 -1.95 -5.8 -1.95 -5.05 -3.9 -3.7 -5.35 L-3.55 -5.55 Q-2.7 -6.5 -1.7 -7.3 L-1.7 -7.35 -1.65 -7.45 Q-1.65 -7.6 -1.5 -7.6 L-1.3 -7.6 -1.2 -7.55 -1.05 -7.55 -1.1 -7.5 Q1.5 -5.65 3.6 -3.15 5.05 -1.45 6.75 -0.15 L6.9 -0.25 6.8 -0.1 M-5.5 -0.2 L-1.8 2.5 Q-0.6 3.35 0.65 4.15 L0.9 4.3 Q2.45 3.6 4.0 3.15 5.2 2.75 6.35 2.15 6.2 1.85 5.85 1.6 L5.65 1.45 5.0 2.0 Q4.2 2.75 3.1 3.35 2.3 3.8 1.55 3.75 L1.7 3.9 1.3 3.75 1.2 3.75 Q1.05 3.7 1.0 3.6 -1.5 2.4 -3.85 0.4 -4.6 -0.25 -5.25 -1.0 -5.25 -0.85 -5.35 -0.65 -5.4 -0.5 -5.5 -0.4 L-5.5 -0.2 M-0.7 3.9 Q-3.0 2.4 -5.05 0.5 L-5.5 0.05 Q-5.45 0.85 -5.55 1.65 -5.65 2.3 -5.8 2.95 -6.2 4.55 -5.15 5.95 L-4.55 6.8 Q-3.95 6.1 -3.2 5.5 L-2.2 4.8 Q-1.3 4.2 -0.3 4.15 L-0.7 3.9 M6.3 0.05 L6.2 0.2 6.45 0.05 6.3 0.05 M6.8 2.55 L6.75 2.5 6.55 2.65 6.8 2.55 M3.0 0.5 Q2.8 -0.3 3.6 -0.4 4.8 0.4 3.45 0.8 3.05 0.9 3.0 0.5 M1.6 1.55 L1.55 1.55 1.35 1.5 1.15 1.55 Q0.7 2.05 1.35 2.1 1.55 2.1 1.65 1.9 1.7 1.8 1.75 1.65 L1.7 1.6 1.6 1.55 M0.8 1.9 Q0.8 1.15 1.6 1.3 2.35 1.85 1.4 2.3 0.85 2.55 0.8 1.9" fill="#111111" fill-rule="evenodd" stroke="none"/>
      <path d="M-2.3 -5.55 L-2.1 -5.55 Q-2.0 -5.45 -1.95 -5.3 -1.5 -4.95 -1.1 -4.55 -0.65 -4.1 -0.55 -3.6 -0.6 -3.4 -0.75 -3.3 L-1.1 -2.95 Q-1.25 -2.8 -1.5 -2.75 -1.0 -1.95 -0.2 -1.35 L1.15 -0.2 Q1.3 -0.2 1.4 -0.3 L1.7 -0.6 1.95 -0.8 Q2.0 -0.9 1.95 -1.05 1.9 -1.2 1.85 -1.35 1.85 -1.45 1.9 -1.6 3.15 -1.2 4.2 -0.15 4.6 0.25 4.9 0.7 L4.8 0.75 4.3 1.15 Q2.8 2.35 1.2 3.35 0.15 2.25 -1.25 1.3 -3.3 -0.05 -5.2 -1.6 L-4.95 -2.15 Q-4.2 -3.6 -3.1 -4.75 L-3.05 -4.75 -2.3 -5.55 M3.0 0.5 Q3.05 0.9 3.45 0.8 4.8 0.4 3.6 -0.4 2.8 -0.3 3.0 0.5 M0.8 1.9 Q0.85 2.55 1.4 2.3 2.35 1.85 1.6 1.3 0.8 1.15 0.8 1.9" fill="#0070e0" fill-rule="evenodd" stroke="none"/>
      <path d="M4.9 0.7 Q4.6 0.25 4.2 -0.15 3.15 -1.2 1.9 -1.6 1.85 -1.45 1.85 -1.35 1.9 -1.2 1.95 -1.05 2.0 -0.9 1.95 -0.8 L1.7 -0.6 1.4 -0.3 Q1.3 -0.2 1.15 -0.2 L-0.2 -1.35 Q-1.0 -1.95 -1.5 -2.75 -1.25 -2.8 -1.1 -2.95 L-0.75 -3.3 Q-0.6 -3.4 -0.55 -3.6 -0.65 -4.1 -1.1 -4.55 -1.5 -4.95 -1.95 -5.3 -2.0 -5.45 -2.1 -5.55 L-2.3 -5.55 Q-1.8 -6.2 -1.4 -6.85 -0.25 -5.75 0.8 -4.45 2.05 -2.85 3.5 -1.4 4.75 -0.25 6.0 0.0 5.45 0.3 4.9 0.7" fill="#80c0f0" fill-rule="evenodd" stroke="none"/>
      <path d="M-3.2 5.5 Q-3.95 6.1 -4.55 6.8 L-5.15 5.95 Q-6.2 4.55 -5.8 2.95 -5.65 2.3 -5.55 1.65 -5.45 0.85 -5.5 0.05 L-5.05 0.5 Q-3.0 2.4 -0.7 3.9 L-0.45 4.15 -0.75 4.2 Q-2.95 3.45 -5.0 2.05 L-4.95 2.1 Q-4.65 2.75 -4.35 3.4 -3.95 4.1 -4.0 4.85 L-3.35 5.3 Q-3.25 5.4 -3.2 5.45 L-3.2 5.5" fill="#600000" fill-rule="evenodd" stroke="none"/>
      <path d="M-3.2 5.5 L-3.2 5.45 Q-3.25 5.4 -3.35 5.3 L-4.0 4.85 Q-3.95 4.1 -4.35 3.4 -4.65 2.75 -4.95 2.1 L-5.0 2.05 Q-2.95 3.45 -0.75 4.2 L-0.45 4.15 -0.7 3.9 -0.3 4.15 Q-1.3 4.2 -2.2 4.8 L-3.2 5.5" fill="#b00000" fill-rule="evenodd" stroke="none"/>
      <path d="M3.4 -0.1 L3.7 -0.1 Q3.85 0.0 3.95 0.15 L4.0 0.25 3.95 0.4 Q3.75 0.65 3.5 0.55 2.95 0.3 3.4 -0.1 M-5.5 -0.2 L-5.5 -0.4 Q-5.4 -0.5 -5.35 -0.65 -5.25 -0.85 -5.25 -1.0 -4.6 -0.25 -3.85 0.4 -1.5 2.4 1.0 3.6 1.05 3.7 1.2 3.75 L1.3 3.75 1.7 3.9 1.55 3.75 Q2.3 3.8 3.1 3.35 4.2 2.75 5.0 2.0 L5.65 1.45 5.85 1.6 Q6.2 1.85 6.35 2.15 5.2 2.75 4.0 3.15 2.45 3.6 0.9 4.3 L0.65 4.15 Q-0.6 3.35 -1.8 2.5 L-5.5 -0.2 M1.6 1.55 L1.7 1.6 1.75 1.65 Q1.7 1.8 1.65 1.9 1.55 2.1 1.35 2.1 0.7 2.05 1.15 1.55 L1.35 1.5 1.55 1.55 1.6 1.55" fill="#262626" fill-rule="evenodd" stroke="none"/>
    </g>
  </defs>
</svg>
