<?xml version="1.0" encoding="UTF-8" standalone="no"?>
<svg xmlns:ffdec="https://www.free-decompiler.com/flash" xmlns:xlink="http://www.w3.org/1999/xlink" ffdec:objectType="frame" height="142.3px" width="137.05px" xmlns="http://www.w3.org/2000/svg">
  <g transform="matrix(1.0, 0.0, 0.0, 1.0, 67.9, 153.35)">
    <use ffdec:characterId="225" height="142.3" transform="matrix(1.0, 0.0, 0.0, 1.0, -67.9, -153.35)" width="137.05" xlink:href="#shape0"/>
  </g>
  <defs>
    <g id="shape0" transform="matrix(1.0, 0.0, 0.0, 1.0, 67.9, 153.35)">
      <path d="M27.75 -151.55 Q28.3 -150.65 29.6 -145.8 30.45 -142.5 31.95 -140.6 L38.75 -139.35 44.7 -137.5 Q48.8 -136.6 50.9 -135.1 L51.8 -134.75 51.15 -134.9 51.7 -134.4 52.85 -135.95 52.5 -133.75 Q53.0 -134.25 53.55 -134.45 52.55 -132.25 50.95 -123.3 50.05 -116.9 50.05 -114.65 50.05 -106.15 51.6 -97.25 L51.75 -97.25 51.75 -96.45 Q53.2 -88.6 56.1 -78.85 L57.95 -70.0 58.75 -66.55 58.9 -66.1 Q60.95 -62.2 65.15 -54.95 L66.9 -51.55 66.95 -51.5 Q69.15 -48.3 69.15 -43.5 L69.15 -42.95 69.15 -41.9 68.0 -37.4 Q66.5 -32.7 64.7 -28.55 59.35 -16.7 53.65 -16.05 51.45 -15.1 49.05 -15.1 L48.0 -15.3 47.6 -15.8 48.45 -16.55 48.4 -16.75 49.05 -18.2 49.5 -19.9 Q49.5 -21.15 48.65 -21.6 46.9 -22.55 40.8 -22.55 33.7 -22.55 15.2 -17.05 L13.25 -16.45 8.0 -14.25 Q0.3 -11.05 -5.0 -11.05 L-13.6 -11.75 -14.0 -11.75 Q-36.9 -11.75 -54.15 -42.05 -60.3 -52.9 -64.3 -65.3 -67.75 -75.85 -67.75 -80.85 L-67.7 -82.7 Q-67.9 -82.7 -67.9 -83.6 L-67.85 -83.6 -67.9 -84.05 Q-67.9 -84.6 -67.3 -85.45 L-66.95 -86.4 Q-66.35 -87.35 -65.2 -87.9 L-63.4 -89.6 Q-60.1 -92.55 -57.95 -93.55 L-56.85 -94.7 -51.65 -100.05 -51.9 -100.5 -52.2 -102.0 -52.5 -103.5 -52.25 -104.15 -52.2 -104.2 -52.25 -106.15 Q-52.25 -113.35 -49.45 -116.75 -45.95 -120.95 -40.0 -112.7 L-37.7 -115.5 Q-28.2 -127.15 -21.55 -131.35 L-19.05 -132.8 -18.95 -133.05 -19.2 -133.5 -19.1 -133.7 -19.05 -133.85 -19.0 -133.9 -19.0 -134.0 -18.95 -134.1 -18.9 -134.55 -18.65 -134.75 Q-18.5 -138.9 -16.35 -142.6 -13.6 -147.3 -8.9 -148.35 L-7.7 -148.2 -7.95 -145.25 Q-7.95 -144.35 -6.65 -142.15 L-4.6 -138.5 -4.6 -138.4 Q2.35 -140.45 11.1 -142.0 L17.95 -141.75 17.9 -142.2 18.0 -143.4 17.9 -144.1 Q17.9 -147.35 21.8 -151.2 25.9 -155.3 27.75 -151.55 M21.55 -143.65 L20.35 -141.65 27.05 -141.15 Q25.6 -143.35 25.6 -148.05 23.9 -147.35 22.6 -145.95 L21.55 -143.65 M21.85 -109.95 Q22.3 -113.95 24.3 -118.0 28.2 -126.05 36.0 -126.05 41.85 -126.05 44.85 -120.55 45.9 -118.55 46.4 -116.6 46.75 -118.4 47.35 -119.9 L48.3 -124.3 Q49.8 -130.6 51.3 -133.65 L42.45 -136.15 35.75 -138.2 19.55 -139.45 18.6 -139.45 18.45 -139.35 18.3 -139.45 Q1.45 -139.25 -10.85 -133.5 -21.0 -128.75 -30.5 -118.8 L-46.55 -100.2 Q-51.35 -94.75 -56.1 -90.4 L-56.4 -87.75 Q-56.4 -82.1 -52.55 -72.1 L-51.1 -68.6 Q-52.25 -72.6 -52.25 -77.2 -52.25 -95.55 -35.5 -97.8 -25.6 -96.8 -21.2 -90.5 -18.3 -86.35 -18.2 -80.7 L-18.2 -80.35 Q-18.2 -76.4 -19.45 -73.45 -21.8 -67.95 -28.0 -67.95 -34.25 -67.95 -37.3 -72.7 -39.25 -75.75 -39.25 -78.75 L-38.7 -81.4 -38.45 -82.05 -38.45 -82.1 -37.65 -83.7 Q-35.55 -87.5 -32.4 -87.5 -30.15 -87.5 -28.75 -85.45 -27.65 -83.95 -27.65 -82.7 -27.65 -81.7 -28.05 -80.25 L-28.4 -79.15 -28.5 -78.95 -28.55 -78.95 -28.6 -78.55 -28.9 -78.1 -29.25 -78.15 -29.15 -78.75 -29.15 -79.1 -29.45 -79.2 -29.8 -79.8 Q-29.55 -79.85 -29.3 -80.05 L-29.8 -81.25 Q-30.6 -82.7 -31.65 -82.7 -33.25 -82.7 -35.0 -78.95 L-34.85 -78.15 -34.0 -76.2 Q-32.75 -73.9 -31.15 -73.9 -28.4 -73.9 -26.65 -74.85 -25.1 -75.75 -24.4 -77.45 -23.95 -78.6 -23.95 -82.15 -23.95 -91.45 -30.95 -91.45 -35.0 -91.45 -38.2 -86.7 -40.8 -82.85 -40.8 -80.45 -40.8 -78.25 -39.9 -75.45 L-38.5 -71.9 -37.3 -69.6 Q-34.2 -64.5 -29.35 -64.5 -22.45 -64.5 -12.8 -66.8 -3.1 -69.15 5.1 -69.15 16.1 -69.15 25.4 -66.2 30.25 -64.65 33.05 -63.0 L35.15 -61.45 Q39.8 -57.0 42.35 -53.85 L39.75 -60.4 Q35.8 -68.15 28.4 -73.15 L28.25 -73.25 28.15 -73.3 27.9 -73.45 27.85 -73.5 27.55 -73.7 12.55 -77.7 8.8 -78.15 -0.6 -79.3 -5.95 -80.55 -5.0 -79.85 -5.1 -79.7 Q-13.85 -83.05 -18.3 -91.1 -20.35 -94.8 -21.15 -98.65 L-21.7 -103.0 -21.75 -104.05 -21.75 -104.35 -21.75 -105.0 -21.75 -105.95 -20.5 -117.8 -20.35 -118.35 -20.35 -118.3 -20.35 -118.4 Q-17.55 -126.8 -8.45 -130.1 10.7 -137.05 17.25 -127.75 20.45 -123.25 20.45 -113.1 20.45 -110.0 18.65 -106.5 L16.95 -103.75 Q12.0 -96.5 3.05 -96.5 -2.45 -96.5 -4.25 -100.65 -5.1 -102.55 -5.1 -105.85 L-5.1 -106.15 Q-5.05 -109.4 -3.9 -111.9 -2.7 -114.55 -0.35 -115.55 2.3 -118.25 5.4 -117.25 9.2 -116.0 9.2 -112.6 L9.55 -111.2 9.25 -109.25 8.65 -108.8 8.75 -109.7 8.7 -109.55 8.65 -109.45 8.6 -108.85 8.5 -108.7 8.35 -108.6 7.8 -108.6 8.0 -108.8 8.1 -109.4 6.9 -111.35 6.85 -111.45 Q6.05 -112.15 5.25 -112.15 3.7 -112.15 2.7 -111.1 L2.4 -110.4 2.2 -109.8 Q1.75 -108.35 1.75 -107.45 1.75 -103.0 7.45 -103.0 12.05 -103.0 14.75 -107.7 L14.95 -108.15 Q16.85 -112.05 16.85 -115.0 L16.85 -116.3 16.8 -117.05 16.7 -118.75 15.1 -121.45 Q13.65 -123.25 11.85 -124.15 L8.75 -124.5 Q-2.15 -124.5 -6.3 -115.55 L-6.35 -115.4 -7.0 -113.8 -7.55 -111.95 Q-8.45 -108.7 -8.45 -104.85 -8.45 -94.7 -4.1 -89.65 -0.55 -85.6 6.7 -84.2 L20.55 -82.9 Q29.3 -82.2 34.0 -80.15 41.85 -76.7 46.05 -73.75 L48.7 -71.6 Q50.5 -69.95 51.7 -68.15 L51.1 -70.4 50.25 -73.65 Q47.75 -78.5 44.1 -82.35 40.65 -85.9 33.85 -90.55 27.45 -94.9 25.3 -97.4 21.7 -101.6 21.7 -107.6 L21.85 -109.95 M8.35 -126.65 Q11.3 -126.65 13.75 -125.4 18.15 -123.2 18.25 -118.4 L18.55 -116.05 Q18.55 -112.95 17.0 -109.25 L16.7 -108.4 Q13.85 -100.7 6.55 -100.7 2.2 -100.7 0.6 -103.35 -0.2 -104.65 -0.15 -106.2 -0.15 -107.75 0.6 -109.9 L1.25 -111.35 1.3 -111.45 Q2.6 -114.45 4.85 -114.45 6.5 -114.45 8.05 -111.85 L7.75 -112.95 Q7.1 -114.3 6.05 -115.05 L5.2 -115.15 Q-0.5 -115.15 -2.6 -110.7 -3.25 -109.3 -3.5 -107.55 L-3.6 -105.9 Q-3.6 -102.8 -2.9 -101.35 -1.45 -98.35 3.0 -98.35 13.1 -98.35 17.05 -107.05 19.05 -111.45 19.05 -116.55 19.05 -121.8 17.25 -124.6 13.25 -130.9 1.05 -130.9 -9.15 -130.9 -15.05 -122.3 -19.35 -116.0 -19.35 -110.4 -19.35 -101.25 -16.9 -94.7 -14.55 -88.45 -9.85 -83.8 -8.1 -82.55 -6.0 -81.7 -4.85 -81.2 1.8 -80.5 L14.95 -79.2 Q20.0 -78.65 23.55 -77.45 L28.1 -75.6 Q34.75 -73.2 40.1 -64.7 44.85 -57.1 44.85 -51.65 L44.7 -50.3 Q45.4 -48.9 45.4 -47.95 L45.35 -47.0 44.8 -46.65 Q43.45 -48.0 39.6 -53.1 36.4 -57.4 33.45 -59.7 24.3 -66.95 4.7 -66.95 -2.4 -66.95 -11.9 -64.6 -21.4 -62.3 -29.3 -62.3 -36.9 -62.3 -40.5 -71.05 -42.3 -75.5 -42.6 -80.25 -42.6 -84.95 -39.4 -88.6 -36.45 -92.0 -32.35 -92.8 -28.1 -93.65 -25.3 -91.15 -22.1 -88.25 -22.1 -81.95 -22.1 -77.8 -23.3 -75.65 -25.35 -71.9 -31.25 -71.9 -34.25 -71.9 -35.75 -75.0 -36.75 -77.0 -36.75 -78.85 -36.75 -80.6 -35.55 -82.4 -34.05 -84.6 -31.85 -84.6 -30.05 -84.6 -29.05 -83.0 L-28.65 -82.25 -29.2 -83.95 Q-30.15 -85.8 -32.35 -85.8 -35.1 -85.8 -36.65 -82.3 L-37.65 -78.65 Q-37.65 -76.1 -35.2 -73.25 -32.2 -69.8 -27.85 -69.8 -22.35 -69.8 -20.55 -75.0 -19.65 -77.65 -19.85 -80.35 -19.85 -84.05 -23.1 -89.1 -27.4 -95.8 -34.05 -95.8 -44.15 -95.8 -48.1 -87.2 -50.2 -82.65 -50.2 -77.0 -50.2 -68.85 -45.35 -62.6 -42.4 -58.8 -38.0 -56.6 L-33.6 -55.5 -28.75 -55.2 -27.95 -55.25 -25.75 -55.15 Q-18.85 -55.25 -11.55 -56.9 L0.0 -59.75 11.05 -60.05 Q17.2 -58.9 24.55 -54.15 28.7 -50.9 32.6 -45.25 36.35 -39.85 36.7 -36.45 L39.7 -35.95 37.65 -40.45 Q35.3 -45.9 34.2 -49.35 L35.25 -49.6 41.15 -45.85 Q45.6 -42.95 47.9 -41.65 48.75 -42.1 48.9 -43.65 L48.95 -46.25 Q48.95 -52.8 48.25 -57.05 L47.5 -60.7 Q46.9 -61.55 46.3 -62.9 L45.0 -66.0 45.25 -66.0 44.5 -67.05 44.5 -67.15 45.3 -66.0 46.2 -65.75 46.2 -65.8 46.45 -65.6 47.45 -64.8 48.85 -63.5 Q49.75 -62.65 49.95 -62.55 L49.85 -62.4 Q52.1 -59.75 53.75 -56.15 L56.2 -49.35 56.05 -50.2 Q55.35 -52.35 54.0 -57.25 52.45 -62.95 50.55 -66.35 44.65 -76.85 28.7 -79.3 L9.1 -82.5 Q1.0 -84.1 -2.85 -86.25 -7.15 -88.6 -8.85 -92.9 -10.5 -97.0 -10.5 -104.8 -10.5 -113.65 -6.0 -119.5 -3.15 -123.2 0.85 -125.0 4.4 -127.15 8.35 -126.65 M30.3 -104.15 L30.55 -103.65 Q31.65 -101.65 33.2 -100.5 34.9 -99.55 37.1 -99.55 42.55 -99.55 45.1 -101.05 L45.2 -101.2 45.7 -101.7 45.7 -102.85 45.7 -105.75 Q42.65 -101.9 38.75 -101.9 L36.4 -102.2 Q36.1 -102.35 35.6 -102.85 L35.45 -102.8 35.15 -102.9 34.7 -103.25 35.05 -103.45 34.7 -103.85 34.75 -104.0 34.85 -104.1 34.7 -104.3 34.65 -104.4 35.3 -104.55 35.8 -104.35 36.05 -104.5 36.15 -104.55 Q36.9 -106.2 38.35 -108.55 L38.8 -109.35 38.85 -109.55 39.5 -110.4 39.75 -112.0 Q39.75 -112.65 39.4 -112.9 L39.4 -112.95 Q39.35 -114.15 38.55 -115.65 37.45 -117.7 35.8 -117.7 31.85 -117.7 30.15 -112.3 L29.15 -108.6 28.95 -107.85 28.95 -107.7 29.3 -106.4 29.45 -105.95 29.45 -106.0 29.5 -105.85 29.6 -105.65 29.8 -105.15 30.15 -104.4 30.3 -104.15 M39.25 -119.55 Q41.4 -117.45 41.4 -113.05 41.35 -110.5 40.6 -108.2 39.4 -104.45 36.9 -103.75 37.45 -103.45 37.8 -103.45 42.0 -103.45 44.05 -107.95 45.35 -110.75 45.35 -113.05 45.35 -115.55 43.45 -119.2 40.75 -124.25 36.55 -124.25 29.6 -124.25 25.95 -116.55 23.55 -111.5 23.55 -107.4 23.55 -102.65 28.25 -97.6 31.05 -94.55 38.6 -88.8 45.75 -83.25 48.7 -80.2 47.85 -83.95 47.3 -87.2 45.55 -87.85 42.15 -90.45 38.0 -93.6 37.4 -94.6 L37.4 -95.05 45.95 -96.6 45.75 -99.3 Q44.15 -98.3 41.3 -97.7 37.25 -96.85 37.25 -97.35 31.3 -97.65 28.45 -102.8 26.65 -106.0 26.65 -109.05 26.65 -112.95 28.9 -116.2 L29.2 -116.55 29.7 -117.4 Q31.65 -120.15 34.5 -120.8 37.3 -121.45 39.25 -119.55 M43.95 -105.15 L43.8 -104.95 44.05 -105.15 43.95 -105.15 M46.55 -91.65 L46.25 -94.0 45.75 -93.8 Q43.35 -92.85 41.2 -93.25 L40.7 -93.15 43.75 -91.2 46.95 -89.25 46.55 -91.65 M56.2 -42.65 L56.5 -46.2 53.55 -53.7 Q51.4 -58.45 48.7 -61.9 L48.4 -62.2 48.3 -62.35 48.2 -62.05 Q49.9 -58.15 50.0 -55.9 51.05 -51.75 51.05 -46.15 L51.05 -42.4 Q50.9 -39.7 50.3 -39.0 50.6 -38.7 49.6 -38.7 49.3 -38.7 44.8 -41.95 39.9 -45.45 37.6 -46.3 L38.9 -43.5 Q41.75 -37.05 41.75 -35.65 L41.75 -35.5 45.7 -34.35 Q49.9 -32.9 51.2 -31.65 L54.2 -37.35 55.95 -41.35 56.2 -42.65 M65.0 -45.0 L61.35 -55.2 Q59.3 -59.6 56.5 -66.55 53.45 -74.05 52.05 -78.25 L53.1 -74.0 Q59.15 -50.35 59.15 -47.55 59.15 -44.55 58.55 -41.45 58.0 -34.95 53.1 -29.7 L52.25 -29.6 51.8 -29.15 Q50.4 -30.65 48.7 -31.5 45.6 -33.0 36.7 -33.0 26.55 -33.0 9.95 -28.15 L7.55 -27.4 0.65 -24.9 Q-2.0 -24.1 -4.6 -23.65 L-7.8 -22.65 -11.65 -23.0 -12.15 -22.85 -14.75 -22.4 -17.35 -22.65 -16.05 -22.0 -16.25 -21.7 -17.95 -22.75 Q-26.55 -24.7 -35.45 -36.85 -43.85 -45.45 -48.8 -55.6 -54.55 -67.3 -57.85 -88.85 -61.85 -85.4 -65.8 -82.75 L-65.9 -82.7 -65.95 -82.65 -66.0 -82.65 Q-65.5 -76.0 -62.85 -66.85 -58.95 -53.3 -52.2 -42.15 L-51.9 -41.65 -51.5 -41.05 -50.65 -39.7 -49.2 -37.55 -48.5 -36.55 -17.35 -14.2 -16.2 -13.95 -16.0 -13.9 -14.4 -13.6 -13.45 -13.7 -3.75 -14.8 6.8 -16.65 17.8 -19.9 17.9 -19.95 21.4 -21.0 Q32.25 -24.2 38.35 -24.7 L40.15 -24.8 46.5 -25.35 49.15 -24.65 50.0 -24.05 50.9 -22.8 51.2 -22.0 51.25 -22.0 51.25 -21.95 51.45 -20.0 51.45 -19.25 54.25 -21.75 Q58.8 -25.85 60.55 -28.6 L65.05 -35.65 Q66.05 -37.8 66.05 -42.1 L65.0 -45.0 M28.25 -37.45 L28.55 -37.45 28.95 -37.5 29.8 -37.5 30.65 -37.25 Q30.35 -36.9 29.75 -36.9 L33.65 -36.75 34.85 -36.65 Q32.3 -41.9 28.3 -46.7 18.8 -58.15 6.5 -58.15 -0.85 -58.15 -9.6 -56.0 -18.3 -53.9 -22.6 -53.9 L-22.4 -53.7 -22.45 -53.65 -21.0 -53.7 Q-23.3 -52.55 -24.8 -52.5 L-29.25 -52.65 Q-41.75 -52.65 -47.6 -61.0 L-45.25 -56.5 -42.75 -52.05 Q-36.2 -40.8 -30.05 -33.55 L-30.15 -34.8 -28.1 -32.6 -26.95 -31.0 Q-22.65 -26.05 -11.2 -26.05 -10.0 -26.05 0.5 -29.35 L0.95 -30.7 2.05 -34.75 2.2 -36.05 Q2.2 -37.65 1.1 -40.35 -0.55 -44.35 -3.35 -44.35 -10.0 -44.35 -13.65 -39.15 L-15.3 -35.5 -15.3 -35.45 -15.55 -34.9 -16.8 -31.8 -17.55 -29.25 -17.85 -29.35 -18.1 -28.8 Q-19.3 -28.8 -20.1 -32.15 L-20.5 -34.45 Q-21.2 -36.2 -21.2 -37.7 -21.2 -49.0 -13.7 -52.65 -7.35 -55.75 2.55 -52.9 11.5 -50.35 18.05 -44.75 23.35 -40.25 23.6 -36.5 L28.25 -37.45 M7.7 -40.2 L7.1 -41.95 7.1 -43.85 Q9.8 -43.25 12.25 -39.9 L15.8 -34.25 21.0 -35.8 19.95 -37.0 14.35 -43.2 Q5.2 -52.2 -4.55 -52.2 -13.35 -52.2 -17.35 -45.35 L-18.35 -43.4 -18.4 -43.25 Q-19.6 -39.05 -19.6 -35.95 L-19.15 -34.05 -18.95 -33.45 -18.45 -32.35 -18.35 -32.35 Q-18.45 -34.9 -16.55 -37.5 L-15.5 -38.7 Q-14.4 -40.95 -12.95 -42.7 -9.55 -46.7 -5.2 -47.05 -1.05 -47.35 1.85 -44.35 4.95 -41.2 4.95 -36.15 4.95 -33.35 3.45 -31.25 L2.4 -29.95 6.4 -31.25 6.65 -32.15 7.25 -34.2 7.65 -36.3 7.75 -36.75 7.75 -38.35 7.95 -38.35 7.7 -40.2 M12.3 -33.15 L13.05 -33.4 12.3 -36.0 Q11.35 -38.7 9.45 -40.7 L9.65 -38.5 9.85 -36.55 9.75 -35.05 Q9.65 -33.5 9.1 -32.55 L9.05 -32.45 8.9 -32.05 11.35 -32.85 11.75 -33.0 12.3 -33.15 M13.6 -36.5 L13.55 -36.65 13.55 -36.5 13.6 -36.5 M-46.85 -116.05 Q-48.25 -110.8 -48.5 -108.65 -48.85 -105.9 -48.35 -103.5 L-41.75 -110.7 Q-43.1 -111.4 -44.3 -112.65 L-46.85 -116.05 M-9.95 -140.5 Q-10.25 -142.1 -9.95 -145.1 L-10.2 -145.4 Q-14.0 -143.35 -15.4 -139.15 -16.05 -136.0 -16.6 -134.0 -12.45 -136.0 -7.1 -137.65 -9.5 -138.05 -9.95 -140.5 M-5.2 -125.45 Q-5.2 -124.2 -7.75 -120.3 -10.65 -115.75 -11.65 -111.85 -12.05 -110.35 -12.55 -104.85 -12.9 -100.8 -14.3 -98.4 -15.65 -99.75 -16.5 -103.95 -17.15 -107.15 -17.15 -109.35 -17.15 -114.15 -14.5 -118.5 -11.35 -123.65 -5.5 -125.95 -5.2 -126.45 -5.2 -125.45 M-15.1 -103.35 L-14.95 -102.55 Q-13.4 -109.9 -11.8 -115.1 -10.45 -119.55 -9.1 -122.5 -12.85 -118.5 -14.3 -114.65 -15.55 -111.35 -15.55 -106.7 L-15.1 -103.35 M-38.35 -63.9 L-38.55 -63.55 -39.4 -63.35 Q-43.45 -63.35 -46.0 -68.95 -47.9 -73.05 -47.9 -75.75 -47.9 -79.0 -47.5 -80.3 -46.75 -82.6 -44.1 -84.45 L-44.2 -80.35 Q-44.2 -78.25 -43.0 -73.1 L-41.85 -68.25 -40.15 -66.0 -38.35 -63.9 M-45.55 -80.6 L-45.55 -81.45 -45.65 -81.35 -45.75 -80.8 Q-46.75 -76.9 -46.75 -75.8 -46.75 -71.4 -42.8 -67.15 -43.1 -67.6 -44.4 -72.0 -45.85 -76.7 -45.85 -77.95 L-45.65 -79.7 -45.55 -80.6" fill="#111111" fill-rule="evenodd" stroke="none"/>
      <path d="M-13.45 -13.7 L-14.4 -13.6 -16.0 -13.9 -13.45 -13.7" fill="#636c75" fill-rule="evenodd" stroke="none"/>
      <path d="M38.8 -109.35 L38.8 -109.5 38.85 -109.55 38.8 -109.35 M43.95 -105.15 L44.05 -105.15 43.8 -104.95 43.95 -105.15 M13.6 -36.5 L13.55 -36.5 13.55 -36.65 13.6 -36.5 M-45.75 -80.8 L-45.65 -81.35 -45.55 -81.45 -45.55 -80.6 -45.55 -81.25 -45.75 -80.8" fill="#a2b2bf" fill-rule="evenodd" stroke="none"/>
      <path d="M-15.3 -35.5 L-15.3 -35.45 -15.3 -35.5 M-28.05 -80.25 Q-28.15 -79.7 -28.35 -79.3 L-28.4 -79.15 -28.05 -80.25" fill="#6c7680" fill-rule="evenodd" stroke="none"/>
      <path d="M-18.2 -80.7 L-18.0 -78.75 Q-18.0 -75.3 -20.65 -71.2 -22.2 -68.75 -24.15 -67.45 -22.5 -68.3 -21.1 -69.6 L-18.65 -72.2 -16.6 -73.95 Q-18.35 -70.9 -20.5 -68.75 -24.2 -64.95 -28.05 -64.95 -31.05 -64.95 -33.15 -66.45 L-33.65 -66.85 Q-35.85 -67.75 -37.3 -69.6 L-38.5 -71.9 -39.9 -75.45 Q-40.8 -78.25 -40.8 -80.45 -40.8 -82.85 -38.2 -86.7 -35.0 -91.45 -30.95 -91.45 -23.95 -91.45 -23.95 -82.15 -23.95 -78.6 -24.4 -77.45 -25.1 -75.75 -26.65 -74.85 L-25.8 -76.85 Q-25.65 -77.4 -25.65 -80.1 -25.65 -82.25 -26.55 -85.05 -27.95 -89.3 -30.5 -89.3 -36.3 -89.3 -38.6 -83.25 L-38.45 -82.1 -38.45 -82.05 -38.7 -81.4 -39.25 -78.75 Q-39.25 -75.75 -37.3 -72.7 -34.25 -67.95 -28.0 -67.95 -21.8 -67.95 -19.45 -73.45 -18.2 -76.4 -18.2 -80.35 L-18.2 -80.7 M33.05 -63.0 L32.35 -63.65 28.05 -66.95 Q24.85 -69.0 21.75 -69.9 17.95 -71.0 10.3 -72.0 L3.95 -73.1 Q3.95 -74.1 4.15 -73.3 L11.45 -72.85 17.4 -72.75 Q20.85 -72.75 26.3 -69.5 L32.35 -65.65 Q27.75 -70.7 20.3 -73.45 15.35 -75.3 6.6 -76.7 -3.1 -78.3 -5.95 -79.15 -12.0 -80.95 -14.4 -84.45 -16.7 -87.85 -18.3 -91.1 -13.85 -83.05 -5.1 -79.7 L-5.0 -79.85 -5.95 -80.55 -0.6 -79.3 8.8 -78.15 12.55 -77.7 27.55 -73.7 27.85 -73.5 27.9 -73.45 28.15 -73.3 28.25 -73.25 28.4 -73.15 Q35.8 -68.15 39.75 -60.4 L42.35 -53.85 Q39.8 -57.0 35.15 -61.45 L33.05 -63.0 M-21.15 -98.65 L-21.05 -98.05 Q-22.35 -102.85 -22.35 -108.35 -22.35 -113.05 -20.7 -117.55 L-20.35 -118.3 -20.35 -118.35 -20.5 -117.8 -21.75 -105.95 -21.75 -105.0 -21.75 -104.35 -21.75 -104.05 -21.7 -103.0 -21.15 -98.65 M18.65 -106.5 Q18.35 -103.9 15.05 -99.7 L12.85 -97.2 13.35 -97.7 13.4 -97.75 16.75 -98.95 Q16.15 -97.45 15.05 -96.75 13.3 -95.6 10.0 -95.15 7.8 -94.05 5.45 -94.05 -0.1 -94.05 -3.0 -97.35 L-5.15 -98.95 -3.95 -98.7 -4.1 -98.95 Q-5.6 -101.6 -5.6 -104.35 L-5.5 -106.05 -5.1 -106.5 -5.1 -106.15 -5.1 -105.85 Q-5.1 -102.55 -4.25 -100.65 -2.45 -96.5 3.05 -96.5 12.0 -96.5 16.95 -103.75 L18.65 -106.5 M8.65 -108.8 L8.5 -108.7 8.6 -108.85 8.65 -109.45 8.7 -109.55 8.75 -109.7 8.65 -108.8 M8.35 -108.6 L7.8 -108.15 6.9 -109.35 Q6.1 -110.8 4.9 -110.8 3.35 -110.8 2.2 -109.8 L2.4 -110.4 2.7 -111.1 Q3.7 -112.15 5.25 -112.15 6.05 -112.15 6.85 -111.45 L6.9 -111.35 8.1 -109.4 8.0 -108.8 7.8 -108.6 8.35 -108.6 M16.85 -116.3 L16.05 -118.65 Q14.05 -123.5 9.45 -123.5 -2.85 -123.5 -7.55 -111.95 L-7.0 -113.8 -6.35 -115.4 -6.3 -115.55 Q-2.15 -124.5 8.75 -124.5 L11.85 -124.15 Q13.65 -123.25 15.1 -121.45 L16.7 -118.75 16.8 -117.05 16.85 -116.3 M48.7 -71.6 L48.0 -72.9 Q42.95 -81.5 35.3 -86.1 28.0 -90.5 24.35 -96.35 21.2 -101.45 21.2 -106.85 21.2 -108.45 21.85 -109.95 L21.7 -107.6 Q21.7 -101.6 25.3 -97.4 27.45 -94.9 33.85 -90.55 40.65 -85.9 44.1 -82.35 47.75 -78.5 50.25 -73.65 L51.1 -70.4 51.7 -68.15 Q50.5 -69.95 48.7 -71.6 M36.05 -104.5 L36.05 -104.65 37.1 -108.35 38.1 -112.2 38.0 -111.65 37.4 -113.2 Q36.1 -116.05 34.95 -116.05 32.35 -116.05 30.65 -111.2 L29.45 -106.25 30.3 -104.15 30.15 -104.4 29.8 -105.15 29.6 -105.65 29.5 -105.85 29.45 -106.0 29.45 -105.95 29.3 -106.4 28.95 -107.7 28.95 -107.85 29.15 -108.6 30.15 -112.3 Q31.85 -117.7 35.8 -117.7 37.45 -117.7 38.55 -115.65 39.35 -114.15 39.4 -112.95 L39.4 -112.9 Q39.75 -112.65 39.75 -112.0 L39.5 -110.4 38.85 -109.55 38.8 -109.5 38.8 -109.35 38.35 -108.55 Q36.9 -106.2 36.15 -104.55 L36.05 -104.5 M45.7 -102.85 Q43.5 -100.95 40.9 -100.95 34.65 -100.95 34.65 -103.45 L34.7 -104.0 34.75 -104.0 34.7 -103.85 35.05 -103.45 34.7 -103.25 35.15 -102.9 35.45 -102.8 35.6 -102.85 Q36.1 -102.35 36.4 -102.2 L38.75 -101.9 Q42.65 -101.9 45.7 -105.75 L45.7 -102.85 M43.75 -91.2 L40.7 -93.15 41.2 -93.25 Q43.35 -92.85 45.75 -93.8 L46.25 -94.0 46.55 -91.65 43.75 -91.2 M38.9 -43.5 L37.6 -46.3 Q39.9 -45.45 44.8 -41.95 49.3 -38.7 49.6 -38.7 50.6 -38.7 50.3 -39.0 50.9 -39.7 51.05 -42.4 L51.05 -46.15 Q51.05 -51.75 50.0 -55.9 49.9 -58.15 48.2 -62.05 L48.3 -62.35 48.4 -62.2 48.7 -61.9 Q51.4 -58.45 53.55 -53.7 L56.5 -46.2 56.2 -42.65 51.1 -53.8 51.3 -51.0 51.5 -48.7 Q51.65 -45.55 51.4 -42.7 50.95 -37.1 49.25 -37.1 48.05 -37.1 42.6 -40.75 L38.9 -43.5 M28.25 -37.45 Q27.25 -41.85 25.35 -45.3 22.3 -50.85 16.35 -55.1 19.5 -53.95 22.25 -51.95 L21.75 -52.3 Q15.35 -56.75 6.6 -56.75 3.65 -56.75 -11.7 -53.65 L-27.85 -50.55 Q-36.2 -50.55 -42.9 -54.85 -44.25 -55.7 -45.25 -56.5 L-47.6 -61.0 Q-41.75 -52.65 -29.25 -52.65 L-24.8 -52.5 Q-23.3 -52.55 -21.0 -53.7 L-22.45 -53.65 -22.4 -53.7 -22.6 -53.9 Q-18.3 -53.9 -9.6 -56.0 -0.85 -58.15 6.5 -58.15 18.8 -58.15 28.3 -46.7 32.3 -41.9 34.85 -36.65 L33.65 -36.75 29.75 -36.9 Q30.35 -36.9 30.65 -37.25 L29.8 -37.5 28.95 -37.5 28.55 -37.45 28.25 -37.45 M2.05 -34.75 Q1.55 -35.8 1.1 -37.65 0.1 -41.85 -1.6 -41.85 -10.7 -41.85 -14.4 -36.85 L-15.3 -35.5 -13.65 -39.15 Q-10.0 -44.35 -3.35 -44.35 -0.55 -44.35 1.1 -40.35 2.2 -37.65 2.2 -36.05 L2.05 -34.75 M11.35 -32.85 L8.9 -32.05 9.05 -32.45 9.1 -32.55 Q9.65 -33.5 9.75 -35.05 L9.85 -36.55 9.65 -38.5 9.45 -40.7 Q11.35 -38.7 12.3 -36.0 L13.05 -33.4 12.3 -33.15 11.75 -35.8 Q11.6 -35.55 11.4 -33.15 L11.35 -32.85 M-11.8 -115.1 L-13.45 -111.55 Q-14.55 -108.75 -14.95 -105.45 L-15.1 -103.35 -15.55 -106.7 Q-15.55 -111.35 -14.3 -114.65 -12.85 -118.5 -9.1 -122.5 -10.45 -119.55 -11.8 -115.1 M-29.25 -78.15 L-29.2 -78.15 -29.55 -77.75 Q-30.55 -78.4 -30.6 -79.35 L-30.7 -81.35 -30.55 -81.5 -31.05 -81.65 Q-33.05 -81.65 -34.35 -79.25 L-34.85 -78.15 -35.0 -78.95 Q-33.25 -82.7 -31.65 -82.7 -30.6 -82.7 -29.8 -81.25 L-29.3 -80.05 Q-29.55 -79.85 -29.8 -79.8 L-29.45 -79.2 -29.15 -79.1 -29.15 -78.75 -29.25 -78.15 M-45.55 -80.6 L-45.65 -79.7 -45.85 -77.95 Q-45.85 -76.7 -44.4 -72.0 -43.1 -67.6 -42.8 -67.15 -46.75 -71.4 -46.75 -75.8 -46.75 -76.9 -45.75 -80.8 L-45.55 -81.25 -45.55 -80.6" fill="#330404" fill-rule="evenodd" stroke="none"/>
      <path d="M-18.2 -80.7 Q-18.3 -86.35 -21.2 -90.5 -25.6 -96.8 -35.5 -97.8 -52.25 -95.55 -52.25 -77.2 -52.25 -72.6 -51.1 -68.6 L-52.55 -72.1 Q-56.4 -82.1 -56.4 -87.75 L-56.1 -90.4 Q-51.35 -94.75 -46.55 -100.2 L-30.5 -118.8 Q-21.0 -128.75 -10.85 -133.5 1.45 -139.25 18.3 -139.45 L18.45 -139.35 18.6 -139.45 19.55 -139.45 35.75 -138.2 42.45 -136.15 51.3 -133.65 Q49.8 -130.6 48.3 -124.3 L47.35 -119.9 Q46.75 -118.4 46.4 -116.6 45.9 -118.55 44.85 -120.55 41.85 -126.05 36.0 -126.05 28.2 -126.05 24.3 -118.0 22.3 -113.95 21.85 -109.95 21.2 -108.45 21.2 -106.85 21.2 -101.45 24.35 -96.35 28.0 -90.5 35.3 -86.1 42.95 -81.5 48.0 -72.9 L48.7 -71.6 46.05 -73.75 Q41.85 -76.7 34.0 -80.15 29.3 -82.2 20.55 -82.9 L6.7 -84.2 Q-0.55 -85.6 -4.1 -89.65 -8.45 -94.7 -8.45 -104.85 -8.45 -108.7 -7.55 -111.95 -2.85 -123.5 9.45 -123.5 14.05 -123.5 16.05 -118.65 L16.85 -116.3 16.85 -115.0 Q16.85 -112.05 14.95 -108.15 L14.75 -107.7 Q12.05 -103.0 7.45 -103.0 1.75 -103.0 1.75 -107.45 1.75 -108.35 2.2 -109.8 3.35 -110.8 4.9 -110.8 6.1 -110.8 6.9 -109.35 L7.8 -108.15 8.35 -108.6 8.5 -108.7 8.65 -108.8 9.25 -109.25 9.55 -111.2 9.2 -112.6 Q9.2 -116.0 5.4 -117.25 2.3 -118.25 -0.35 -115.55 -2.7 -114.55 -3.9 -111.9 -5.05 -109.4 -5.1 -106.15 L-5.1 -106.5 -5.5 -106.05 -5.6 -104.35 Q-5.6 -101.6 -4.1 -98.95 L-3.95 -98.7 -5.15 -98.95 -3.0 -97.35 Q-0.1 -94.05 5.45 -94.05 7.8 -94.05 10.0 -95.15 13.3 -95.6 15.05 -96.75 16.15 -97.45 16.75 -98.95 L13.4 -97.75 13.35 -97.7 12.85 -97.2 15.05 -99.7 Q18.35 -103.9 18.65 -106.5 20.45 -110.0 20.45 -113.1 20.45 -123.25 17.25 -127.75 10.7 -137.05 -8.45 -130.1 -17.55 -126.8 -20.35 -118.4 L-20.35 -118.3 -20.7 -117.55 Q-22.35 -113.05 -22.35 -108.35 -22.35 -102.85 -21.05 -98.05 L-21.15 -98.65 Q-20.35 -94.8 -18.3 -91.1 -16.7 -87.85 -14.4 -84.45 -12.0 -80.95 -5.95 -79.15 -3.1 -78.3 6.6 -76.7 15.35 -75.3 20.3 -73.45 27.75 -70.7 32.35 -65.65 L26.3 -69.5 Q20.85 -72.75 17.4 -72.75 L11.45 -72.85 4.15 -73.3 Q3.95 -74.1 3.95 -73.1 L10.3 -72.0 Q17.95 -71.0 21.75 -69.9 24.85 -69.0 28.05 -66.95 L32.35 -63.65 33.05 -63.0 Q30.25 -64.65 25.4 -66.2 16.1 -69.15 5.1 -69.15 -3.1 -69.15 -12.8 -66.8 -22.45 -64.5 -29.35 -64.5 -34.2 -64.5 -37.3 -69.6 -35.85 -67.75 -33.65 -66.85 L-33.15 -66.45 Q-31.05 -64.95 -28.05 -64.95 -24.2 -64.95 -20.5 -68.75 -18.35 -70.9 -16.6 -73.95 L-18.65 -72.2 -21.1 -69.6 Q-22.5 -68.3 -24.15 -67.45 -22.2 -68.75 -20.65 -71.2 -18.0 -75.3 -18.0 -78.75 L-18.2 -80.7 M30.3 -104.15 L29.45 -106.25 30.65 -111.2 Q32.35 -116.05 34.95 -116.05 36.1 -116.05 37.4 -113.2 L38.0 -111.65 38.1 -112.2 37.1 -108.35 36.05 -104.65 36.05 -104.5 35.8 -104.35 35.3 -104.55 34.65 -104.4 34.7 -104.3 34.85 -104.1 34.75 -104.0 34.7 -104.0 34.65 -103.45 Q34.65 -100.95 40.9 -100.95 43.5 -100.95 45.7 -102.85 L45.7 -101.7 45.2 -101.2 45.1 -101.05 Q42.55 -99.55 37.1 -99.55 34.9 -99.55 33.2 -100.5 31.65 -101.65 30.55 -103.65 L30.3 -104.15 M43.75 -91.2 L46.55 -91.65 46.95 -89.25 43.75 -91.2 M38.9 -43.5 L42.6 -40.75 Q48.05 -37.1 49.25 -37.1 50.95 -37.1 51.4 -42.7 51.65 -45.55 51.5 -48.7 L51.3 -51.0 51.1 -53.8 56.2 -42.65 55.95 -41.35 54.2 -37.35 51.2 -31.65 Q49.9 -32.9 45.7 -34.35 L41.75 -35.5 41.75 -35.65 Q41.75 -37.05 38.9 -43.5 M-45.25 -56.5 Q-44.25 -55.7 -42.9 -54.85 -36.2 -50.55 -27.85 -50.55 L-11.7 -53.65 Q3.65 -56.75 6.6 -56.75 15.35 -56.75 21.75 -52.3 L22.25 -51.95 Q19.5 -53.95 16.35 -55.1 22.3 -50.85 25.35 -45.3 27.25 -41.85 28.25 -37.45 L23.6 -36.5 Q23.35 -40.25 18.05 -44.75 11.5 -50.35 2.55 -52.9 -7.35 -55.75 -13.7 -52.65 -21.2 -49.0 -21.2 -37.7 -21.2 -36.2 -20.5 -34.45 L-20.1 -32.15 Q-19.3 -28.8 -18.1 -28.8 L-17.85 -29.35 -17.55 -29.25 -16.8 -31.8 -15.55 -34.9 -15.3 -35.45 -15.3 -35.5 -14.4 -36.85 Q-10.7 -41.85 -1.6 -41.85 0.1 -41.85 1.1 -37.65 1.55 -35.8 2.05 -34.75 L0.95 -30.7 0.5 -29.35 Q-10.0 -26.05 -11.2 -26.05 -22.65 -26.05 -26.95 -31.0 L-28.1 -32.6 -30.15 -34.8 -30.05 -33.55 Q-36.2 -40.8 -42.75 -52.05 L-45.25 -56.5 M11.35 -32.85 L11.4 -33.15 Q11.6 -35.55 11.75 -35.8 L12.3 -33.15 11.75 -33.0 11.35 -32.85 M-15.1 -103.35 L-14.95 -105.45 Q-14.55 -108.75 -13.45 -111.55 L-11.8 -115.1 Q-13.4 -109.9 -14.95 -102.55 L-15.1 -103.35 M-38.45 -82.1 L-38.6 -83.25 Q-36.3 -89.3 -30.5 -89.3 -27.95 -89.3 -26.55 -85.05 -25.65 -82.25 -25.65 -80.1 -25.65 -77.4 -25.8 -76.85 L-26.65 -74.85 Q-28.4 -73.9 -31.15 -73.9 -32.75 -73.9 -34.0 -76.2 L-34.85 -78.15 -34.35 -79.25 Q-33.05 -81.65 -31.05 -81.65 L-30.55 -81.5 -30.7 -81.35 -30.6 -79.35 Q-30.55 -78.4 -29.55 -77.75 L-29.2 -78.15 -29.25 -78.15 -28.9 -78.1 -28.6 -78.55 -28.55 -78.95 -28.5 -78.95 -28.4 -79.15 -28.35 -79.3 Q-28.15 -79.7 -28.05 -80.25 -27.65 -81.7 -27.65 -82.7 -27.65 -83.95 -28.75 -85.45 -30.15 -87.5 -32.4 -87.5 -35.55 -87.5 -37.65 -83.7 L-38.45 -82.1" fill="#4d0606" fill-rule="evenodd" stroke="none"/>
      <path d="M21.55 -143.65 L22.6 -145.95 Q23.9 -147.35 25.6 -148.05 25.6 -143.35 27.05 -141.15 L20.35 -141.65 21.55 -143.65 M-65.8 -82.75 Q-61.85 -85.4 -57.85 -88.85 -54.55 -67.3 -48.8 -55.6 -43.85 -45.45 -35.45 -36.85 -26.55 -24.7 -17.95 -22.75 L-16.25 -21.7 -16.05 -22.0 -17.35 -22.65 -14.75 -22.4 -12.15 -22.85 -11.65 -23.0 -7.8 -22.65 -4.6 -23.65 Q-2.0 -24.1 0.65 -24.9 L7.55 -27.4 9.95 -28.15 Q26.55 -33.0 36.7 -33.0 45.6 -33.0 48.7 -31.5 50.4 -30.65 51.8 -29.15 L52.25 -29.6 53.1 -29.7 Q58.0 -34.95 58.55 -41.45 59.15 -44.55 59.15 -47.55 59.15 -50.35 53.1 -74.0 L52.05 -78.25 Q53.45 -74.05 56.5 -66.55 59.3 -59.6 61.35 -55.2 L65.0 -45.0 Q62.2 -37.0 61.0 -34.75 57.6 -28.25 51.2 -23.05 L50.0 -24.05 49.15 -24.65 Q44.2 -27.9 36.65 -27.9 28.9 -27.9 20.7 -25.9 6.9 -28.05 1.35 -24.4 1.55 -23.85 2.8 -23.85 9.6 -25.3 13.4 -25.3 L17.85 -25.15 12.05 -23.3 2.8 -20.2 Q-2.3 -18.75 -6.95 -18.75 -22.4 -18.75 -31.2 -24.3 -35.95 -27.3 -40.5 -32.4 L-36.15 -30.1 Q-33.35 -28.55 -31.55 -28.0 L-31.5 -28.35 Q-35.55 -31.7 -45.1 -38.6 -52.85 -44.7 -54.05 -48.85 -54.4 -50.1 -58.65 -59.55 -62.55 -68.25 -62.55 -69.55 L-65.1 -80.2 -65.8 -82.75 M-9.95 -140.5 Q-9.5 -138.05 -7.1 -137.65 -12.45 -136.0 -16.6 -134.0 -16.05 -136.0 -15.4 -139.15 -14.0 -143.35 -10.2 -145.4 L-9.95 -145.1 Q-10.25 -142.1 -9.95 -140.5 M-46.85 -116.05 L-44.3 -112.65 Q-43.1 -111.4 -41.75 -110.7 L-48.35 -103.5 Q-48.85 -105.9 -48.5 -108.65 -48.25 -110.8 -46.85 -116.05" fill="#660808" fill-rule="evenodd" stroke="none"/>
      <path d="M-65.8 -82.75 L-65.1 -80.2 -62.55 -69.55 Q-62.55 -68.25 -58.65 -59.55 -54.4 -50.1 -54.05 -48.85 -52.85 -44.7 -45.1 -38.6 -35.55 -31.7 -31.5 -28.35 L-31.55 -28.0 Q-33.35 -28.55 -36.15 -30.1 L-40.5 -32.4 Q-35.95 -27.3 -31.2 -24.3 -22.4 -18.75 -6.95 -18.75 -2.3 -18.75 2.8 -20.2 L12.05 -23.3 17.85 -25.15 13.4 -25.3 Q9.6 -25.3 2.8 -23.85 1.55 -23.85 1.35 -24.4 6.9 -28.05 20.7 -25.9 28.9 -27.9 36.65 -27.9 44.2 -27.9 49.15 -24.65 L46.5 -25.35 40.15 -24.8 38.35 -24.7 Q32.25 -24.2 21.4 -21.0 L17.9 -19.95 17.8 -19.9 6.8 -16.65 -3.75 -14.8 -13.45 -13.7 -16.0 -13.9 -16.2 -13.95 -17.35 -14.2 -48.5 -36.55 -49.2 -37.55 -50.65 -39.7 -51.5 -41.05 -51.9 -41.65 -52.2 -42.15 Q-58.95 -53.3 -62.85 -66.85 -65.5 -76.0 -66.0 -82.65 L-65.95 -82.65 -65.9 -82.7 -65.8 -82.75 M50.0 -24.05 L51.2 -23.05 Q57.6 -28.25 61.0 -34.75 62.2 -37.0 65.0 -45.0 L66.05 -42.1 Q66.05 -37.8 65.05 -35.65 L60.55 -28.6 Q58.8 -25.85 54.25 -21.75 L51.45 -19.25 51.45 -20.0 51.25 -21.95 51.25 -22.0 51.2 -22.0 50.9 -22.8 50.0 -24.05" fill="#800a0a" fill-rule="evenodd" stroke="none"/>
      <path d="M8.35 -126.65 Q4.4 -127.15 0.85 -125.0 -3.15 -123.2 -6.0 -119.5 -10.5 -113.65 -10.5 -104.8 -10.5 -97.0 -8.85 -92.9 -7.15 -88.6 -2.85 -86.25 1.0 -84.1 9.1 -82.5 L28.7 -79.3 Q44.65 -76.85 50.55 -66.35 52.45 -62.95 54.0 -57.25 55.35 -52.35 56.05 -50.2 L56.2 -49.35 53.75 -56.15 Q52.1 -59.75 49.85 -62.4 L49.95 -62.55 Q49.75 -62.65 48.85 -63.5 L47.45 -64.8 46.45 -65.6 46.2 -65.8 46.2 -65.75 45.3 -66.0 44.5 -67.15 44.5 -67.05 45.25 -66.0 45.0 -66.0 46.3 -62.9 Q46.9 -61.55 47.5 -60.7 L48.25 -57.05 Q48.95 -52.8 48.95 -46.25 L48.9 -43.65 Q48.75 -42.1 47.9 -41.65 45.6 -42.95 41.15 -45.85 L35.25 -49.6 34.2 -49.35 Q35.3 -45.9 37.65 -40.45 L39.7 -35.95 36.7 -36.45 Q36.35 -39.85 32.6 -45.25 28.7 -50.9 24.55 -54.15 17.2 -58.9 11.05 -60.05 L0.0 -59.75 -11.55 -56.9 Q-18.85 -55.25 -25.75 -55.15 L-27.95 -55.25 -28.75 -55.2 -33.6 -55.5 -38.0 -56.6 Q-42.4 -58.8 -45.35 -62.6 -50.2 -68.85 -50.2 -77.0 -50.2 -82.65 -48.1 -87.2 -44.15 -95.8 -34.05 -95.8 -27.4 -95.8 -23.1 -89.1 -19.85 -84.05 -19.85 -80.35 -19.65 -77.65 -20.55 -75.0 -22.35 -69.8 -27.85 -69.8 -32.2 -69.8 -35.2 -73.25 -37.65 -76.1 -37.65 -78.65 L-36.65 -82.3 Q-35.1 -85.8 -32.35 -85.8 -30.15 -85.8 -29.2 -83.95 L-28.65 -82.25 -29.05 -83.0 Q-30.05 -84.6 -31.85 -84.6 -34.05 -84.6 -35.55 -82.4 -36.75 -80.6 -36.75 -78.85 -36.75 -77.0 -35.75 -75.0 -34.25 -71.9 -31.25 -71.9 -25.35 -71.9 -23.3 -75.65 -22.1 -77.8 -22.1 -81.95 -22.1 -88.25 -25.3 -91.15 -28.1 -93.65 -32.35 -92.8 -36.45 -92.0 -39.4 -88.6 -42.6 -84.95 -42.6 -80.25 -42.3 -75.5 -40.5 -71.05 -36.9 -62.3 -29.3 -62.3 -21.4 -62.3 -11.9 -64.6 -2.4 -66.95 4.7 -66.95 24.3 -66.95 33.45 -59.7 36.4 -57.4 39.6 -53.1 43.45 -48.0 44.8 -46.65 L45.35 -47.0 45.4 -47.95 Q45.4 -48.9 44.7 -50.3 L44.85 -51.65 Q44.85 -57.1 40.1 -64.7 34.75 -73.2 28.1 -75.6 L23.55 -77.45 Q20.0 -78.65 14.95 -79.2 L1.8 -80.5 Q-4.85 -81.2 -6.0 -81.7 -8.1 -82.55 -9.85 -83.8 -14.55 -88.45 -16.9 -94.7 -19.35 -101.25 -19.35 -110.4 -19.35 -116.0 -15.05 -122.3 -9.15 -130.9 1.05 -130.9 13.25 -130.9 17.25 -124.6 19.05 -121.8 19.05 -116.55 19.05 -111.45 17.05 -107.05 13.1 -98.35 3.0 -98.35 -1.45 -98.35 -2.9 -101.35 -3.6 -102.8 -3.6 -105.9 L-3.5 -107.55 Q-3.25 -109.3 -2.6 -110.7 -0.5 -115.15 5.2 -115.15 L6.05 -115.05 Q7.1 -114.3 7.75 -112.95 L8.05 -111.85 Q6.5 -114.45 4.85 -114.45 2.6 -114.45 1.3 -111.45 L1.25 -111.35 0.6 -109.9 Q-0.15 -107.75 -0.15 -106.2 -0.2 -104.65 0.6 -103.35 2.2 -100.7 6.55 -100.7 13.85 -100.7 16.7 -108.4 L17.0 -109.25 Q18.55 -112.95 18.55 -116.05 L18.25 -118.4 Q18.15 -123.2 13.75 -125.4 11.3 -126.65 8.35 -126.65 M39.25 -119.55 Q37.3 -121.45 34.5 -120.8 31.65 -120.15 29.7 -117.4 L29.2 -116.55 28.9 -116.2 Q26.65 -112.95 26.65 -109.05 26.65 -106.0 28.45 -102.8 31.3 -97.65 37.25 -97.35 37.25 -96.85 41.3 -97.7 44.15 -98.3 45.75 -99.3 L45.95 -96.6 37.4 -95.05 37.4 -94.6 Q38.0 -93.6 42.15 -90.45 45.55 -87.85 47.3 -87.2 47.85 -83.95 48.7 -80.2 45.75 -83.25 38.6 -88.8 31.05 -94.55 28.25 -97.6 23.55 -102.65 23.55 -107.4 23.55 -111.5 25.95 -116.55 29.6 -124.25 36.55 -124.25 40.75 -124.25 43.45 -119.2 45.35 -115.55 45.35 -113.05 45.35 -110.75 44.05 -107.95 42.0 -103.45 37.8 -103.45 37.45 -103.45 36.9 -103.75 39.4 -104.45 40.6 -108.2 41.35 -110.5 41.4 -113.05 41.4 -117.45 39.25 -119.55 M7.7 -40.2 L7.95 -38.35 7.75 -38.35 7.75 -36.75 7.65 -36.3 7.25 -34.2 6.65 -32.15 6.4 -31.25 2.4 -29.95 3.45 -31.25 Q4.95 -33.35 4.95 -36.15 4.95 -41.2 1.85 -44.35 -1.05 -47.35 -5.2 -47.05 -9.55 -46.7 -12.95 -42.7 -14.4 -40.95 -15.5 -38.7 L-16.55 -37.5 Q-18.45 -34.9 -18.35 -32.35 L-18.45 -32.35 -18.95 -33.45 -19.15 -34.05 -19.6 -35.95 Q-19.6 -39.05 -18.4 -43.25 L-18.35 -43.4 -17.35 -45.35 Q-13.35 -52.2 -4.55 -52.2 5.2 -52.2 14.35 -43.2 L19.95 -37.0 21.0 -35.8 15.8 -34.25 12.25 -39.9 Q9.8 -43.25 7.1 -43.85 L7.1 -41.95 7.7 -40.2 M-5.2 -125.45 Q-5.2 -126.45 -5.5 -125.95 -11.35 -123.65 -14.5 -118.5 -17.15 -114.15 -17.15 -109.35 -17.15 -107.15 -16.5 -103.95 -15.65 -99.75 -14.3 -98.4 -12.9 -100.8 -12.55 -104.85 -12.05 -110.35 -11.65 -111.85 -10.65 -115.75 -7.75 -120.3 -5.2 -124.2 -5.2 -125.45 M-38.35 -63.9 L-40.15 -66.0 -41.85 -68.25 -43.0 -73.1 Q-44.2 -78.25 -44.2 -80.35 L-44.1 -84.45 Q-46.75 -82.6 -47.5 -80.3 -47.9 -79.0 -47.9 -75.75 -47.9 -73.05 -46.0 -68.95 -43.45 -63.35 -39.4 -63.35 L-38.55 -63.55 -38.35 -63.9" fill="#a60d0d" fill-rule="evenodd" stroke="none"/>
    </g>
  </defs>
</svg>
