<?xml version="1.0" encoding="UTF-8" standalone="no"?>
<svg xmlns:ffdec="https://www.free-decompiler.com/flash" xmlns:xlink="http://www.w3.org/1999/xlink" ffdec:objectType="frame" height="194.05px" width="108.55px" xmlns="http://www.w3.org/2000/svg">
  <g transform="matrix(1.0, 0.0, 0.0, 1.0, 51.05, 188.8)">
    <use ffdec:characterId="182" height="194.05" transform="matrix(1.0, 0.0, 0.0, 1.0, -51.05, -188.8)" width="108.55" xlink:href="#shape0"/>
  </g>
  <defs>
    <g id="shape0" transform="matrix(1.0, 0.0, 0.0, 1.0, 51.05, 188.8)">
      <path d="M5.8 -185.65 L6.45 -186.65 6.5 -186.45 6.8 -184.95 6.8 -184.9 6.45 -185.4 5.8 -185.65 M22.0 -2.65 L21.8 -2.35 21.6 -2.35 22.0 -2.65 M5.3 -3.15 Q4.85 -3.4 4.65 -3.65 L5.1 -3.4 5.3 -3.15 M1.9 -9.25 L0.85 -11.3 1.05 -11.05 1.1 -10.9 1.75 -9.55 1.9 -9.25 M-4.85 -17.4 L-5.1 -17.55 -5.3 -17.8 -4.85 -17.4 M-5.3 -35.15 L-5.95 -37.15 Q-5.3 -36.4 -5.05 -36.4 L-4.9 -37.45 -5.3 -35.15 M-5.8 -46.25 L-6.1 -47.1 -6.4 -47.85 -5.9 -46.55 -5.8 -46.25 M15.45 -103.25 L15.45 -103.55 15.55 -103.6 15.45 -103.25 M8.3 -13.9 L8.2 -13.6 8.15 -13.65 8.3 -13.9 M41.7 -49.2 L42.6 -49.55 Q42.25 -49.05 41.75 -49.05 L41.7 -49.2 M-7.55 -20.35 L-7.55 -20.45 -7.05 -19.85 -7.55 -20.35" fill="#a68a6c" fill-rule="evenodd" stroke="none"/>
      <path d="M12.4 -140.75 L18.4 -138.2 19.8 -137.55 20.05 -137.9 Q22.1 -140.4 30.15 -142.0 L38.65 -143.6 Q43.1 -144.65 44.7 -146.1 47.25 -148.35 50.45 -153.85 L52.7 -157.2 51.0 -156.4 Q49.05 -155.5 46.7 -154.7 L40.35 -152.85 36.8 -151.85 30.8 -150.3 Q21.2 -147.95 17.15 -146.25 12.6 -144.35 10.45 -142.0 L10.35 -141.8 10.25 -141.7 12.4 -140.75 M-18.6 -144.55 L-18.6 -144.6 -18.45 -145.8 -18.75 -146.55 Q-18.55 -155.95 -10.25 -169.05 -2.95 -180.35 5.75 -187.8 L5.65 -187.95 Q5.75 -188.2 6.15 -188.25 L6.2 -188.2 6.75 -188.65 6.9 -188.8 7.05 -187.95 6.7 -187.05 Q7.4 -184.7 8.3 -178.1 9.65 -168.75 9.65 -164.55 9.65 -159.75 7.35 -155.85 6.1 -153.9 2.25 -149.7 L-0.15 -146.85 0.15 -146.65 -0.2 -146.05 7.9 -142.8 7.85 -142.65 8.55 -142.4 Q9.75 -144.85 15.6 -148.05 22.95 -152.1 28.45 -152.3 L32.45 -152.65 44.8 -156.0 Q51.35 -158.05 56.3 -161.5 57.35 -160.9 57.5 -160.55 L55.15 -158.65 52.35 -153.3 Q49.9 -148.7 47.25 -145.5 44.8 -142.55 34.5 -139.8 L26.1 -137.4 22.75 -136.15 23.65 -135.7 24.85 -135.0 Q27.8 -133.1 29.3 -130.95 31.4 -128.0 31.4 -123.5 31.4 -122.5 32.9 -119.2 33.9 -116.4 35.65 -112.3 L38.4 -106.0 Q39.4 -105.0 40.4 -102.6 41.75 -99.35 41.75 -97.75 41.75 -94.0 39.2 -89.85 L36.7 -86.55 36.65 -85.95 37.55 -79.6 37.95 -75.45 38.15 -74.15 39.45 -60.75 39.6 -62.45 40.0 -59.9 40.9 -54.65 40.7 -51.0 40.6 -47.3 40.55 -44.95 40.3 -34.55 41.45 -32.05 Q42.75 -28.6 42.75 -27.35 L42.5 -25.1 Q42.05 -20.8 39.25 -16.9 36.95 -13.7 31.45 -8.75 L27.25 -2.85 26.75 -2.55 Q21.85 0.6 10.0 0.6 7.05 0.6 4.4 -1.0 L2.5 -2.1 2.45 -2.15 1.4 -3.4 1.05 -3.15 Q-3.4 -5.2 -6.8 -10.85 L-8.15 -12.8 Q-9.9 -15.5 -10.25 -18.5 L-10.6 -19.0 -10.75 -18.7 -10.9 -18.95 -11.1 -21.75 -11.4 -23.75 -11.75 -25.8 -12.0 -28.45 -12.3 -29.95 Q-13.15 -33.25 -15.1 -37.4 L-16.65 -40.3 -16.8 -40.65 -18.05 -43.45 Q-21.1 -50.25 -21.1 -51.15 L-23.05 -54.1 -25.55 -53.45 -30.25 -52.25 Q-37.1 -52.25 -43.75 -64.95 -45.95 -69.2 -47.7 -74.0 -49.1 -77.95 -49.1 -78.75 L-49.75 -82.1 -50.4 -86.15 Q-50.4 -94.6 -45.1 -102.15 L-43.95 -103.75 -43.8 -103.75 -41.0 -108.75 -35.75 -116.75 -35.2 -116.6 Q-35.0 -116.55 -35.0 -115.9 -35.0 -114.8 -36.85 -111.45 L-36.7 -111.7 Q-36.2 -111.7 -35.0 -112.35 L-36.95 -108.7 -37.0 -108.6 -37.3 -108.05 -38.8 -105.65 -41.8 -101.1 -42.85 -99.6 Q-47.5 -92.95 -48.65 -87.3 L-49.0 -83.85 Q-49.0 -82.1 -46.6 -76.35 L-43.45 -69.15 -43.35 -68.9 -43.25 -68.75 -43.2 -68.55 -41.95 -66.05 -41.05 -64.3 -40.05 -62.55 -40.0 -62.5 Q-35.7 -55.25 -32.25 -55.25 L-26.2 -56.5 -20.3 -57.8 Q-17.1 -57.8 -14.45 -56.65 L-12.25 -55.45 Q-10.65 -54.4 -9.35 -52.8 L-8.9 -52.25 Q-7.55 -50.5 -6.6 -48.35 L-6.45 -47.95 -6.4 -47.85 -6.1 -47.1 -5.8 -46.25 -6.15 -46.3 Q-9.2 -46.85 -12.35 -50.75 -14.6 -53.55 -17.25 -54.35 L-17.2 -54.25 Q-12.5 -50.05 -9.6 -44.75 L-8.55 -42.85 Q-7.1 -40.15 -6.05 -37.4 L-6.0 -37.3 -5.95 -37.15 -5.3 -35.15 -5.0 -34.25 -4.55 -33.8 Q-4.2 -33.3 -4.2 -32.85 -4.2 -30.85 -5.2 -28.05 -6.15 -25.45 -7.4 -23.55 L-7.95 -23.65 -8.1 -24.3 -7.6 -27.55 -7.55 -27.75 -7.3 -29.15 -7.1 -31.1 -7.1 -31.25 -7.35 -32.05 Q-7.5 -33.25 -7.9 -33.7 L-8.15 -34.0 -9.05 -35.95 -10.3 -38.5 -12.75 -43.15 -13.1 -43.8 -13.45 -44.4 Q-16.65 -49.8 -19.8 -54.65 L-22.25 -54.25 Q-20.55 -52.55 -17.8 -48.75 -13.85 -43.2 -13.85 -41.25 L-13.6 -40.5 -12.5 -37.5 -12.6 -37.15 -12.0 -35.05 Q-12.0 -34.25 -11.4 -32.7 -10.8 -31.15 -10.8 -29.85 L-10.5 -28.55 -9.65 -26.15 -9.6 -25.8 -9.35 -24.5 -8.95 -21.4 -8.8 -19.5 -6.95 -14.95 Q-6.2 -13.5 -2.6 -9.45 L-1.15 -7.7 0.3 -6.15 0.35 -6.25 0.35 -6.35 Q-1.4 -7.7 -3.25 -10.95 -5.15 -14.35 -6.25 -17.7 L-5.65 -17.85 -5.4 -17.7 -5.1 -17.55 -4.85 -17.4 -1.7 -14.2 0.85 -11.3 1.9 -9.25 2.25 -8.5 3.5 -6.1 3.65 -4.8 Q3.65 -4.35 4.25 -3.9 L4.65 -3.65 Q4.85 -3.4 5.3 -3.15 L7.55 -2.55 13.1 -1.8 19.0 -2.15 19.95 -2.3 19.9 -2.2 20.2 -2.25 20.75 -2.25 21.6 -2.3 21.6 -2.35 21.8 -2.35 22.0 -2.65 25.55 -7.7 Q33.15 -18.15 34.55 -20.45 L34.9 -20.95 34.9 -21.1 35.85 -36.35 35.85 -37.75 34.8 -35.05 34.85 -35.7 35.95 -48.8 Q35.95 -60.6 34.35 -73.35 L33.9 -77.05 32.9 -87.15 32.75 -87.9 32.8 -88.9 32.8 -89.45 32.75 -91.05 Q32.75 -91.35 33.05 -91.85 L33.3 -95.1 Q33.3 -95.55 34.1 -96.3 L34.4 -96.6 35.15 -97.15 Q36.75 -99.45 39.9 -98.3 L39.9 -99.1 Q39.9 -100.2 38.45 -103.35 L36.7 -105.1 Q34.25 -107.7 34.25 -108.8 L33.9 -110.95 Q31.4 -114.4 29.85 -119.3 L29.8 -119.3 29.8 -119.35 29.7 -119.6 Q28.45 -122.8 26.9 -128.75 L26.4 -129.95 Q24.0 -132.6 12.1 -137.75 2.3 -141.95 -0.85 -145.05 L-0.55 -145.6 -0.6 -145.7 -0.85 -146.0 -2.0 -144.3 -2.9 -142.9 -3.65 -141.2 -4.65 -137.95 Q-5.15 -135.65 -5.2 -133.15 L-6.3 -131.9 -6.5 -131.75 -6.85 -131.65 -7.95 -131.95 -7.95 -132.0 -8.4 -132.15 -8.45 -132.2 -8.6 -133.2 -8.55 -134.1 -8.55 -134.2 -8.55 -134.35 -8.5 -134.75 -7.75 -137.5 Q-6.95 -139.9 -5.2 -142.5 L-3.15 -145.5 -1.75 -147.65 -0.05 -150.1 2.3 -153.65 Q6.7 -161.2 6.7 -165.0 6.7 -167.45 5.8 -174.55 L6.3 -179.75 6.5 -181.65 6.65 -182.8 6.75 -183.85 6.75 -184.0 6.8 -184.9 6.8 -184.95 6.5 -186.45 6.45 -186.65 5.8 -185.65 0.25 -177.9 -9.15 -164.9 Q-11.8 -160.65 -13.95 -153.2 L-16.15 -145.85 -16.3 -145.3 -16.35 -145.1 -16.4 -145.0 -16.65 -144.15 -17.35 -142.0 Q-18.05 -142.3 -18.4 -143.9 L-18.45 -144.0 -18.45 -144.1 -18.6 -144.55 M-8.0 -162.8 Q-7.75 -165.4 -5.15 -168.25 -1.95 -171.7 1.9 -172.2 L2.2 -174.25 Q2.55 -176.05 3.1 -176.85 L4.35 -170.0 4.35 -169.45 Q4.15 -162.6 -0.6 -155.15 L-1.15 -154.2 -1.7 -153.35 -2.05 -152.7 -3.4 -150.6 -6.6 -145.55 -6.8 -145.2 -7.65 -143.8 -9.5 -140.55 -9.65 -140.25 -10.15 -139.3 -10.95 -139.0 -11.0 -139.0 -11.1 -138.95 -11.15 -138.95 -12.45 -139.25 -12.55 -139.9 -12.65 -141.05 -12.65 -141.15 -12.6 -141.9 Q-12.45 -143.2 -11.75 -144.6 L-11.6 -144.9 -11.45 -145.2 -11.0 -146.0 -10.4 -147.0 -5.4 -153.1 Q1.25 -161.35 1.8 -170.05 L1.85 -171.65 Q-1.5 -169.7 -3.9 -166.9 L-4.05 -166.7 -7.7 -161.75 -8.0 -161.75 -8.0 -162.5 -8.0 -162.8 M-13.3 -109.75 Q-12.4 -110.7 -10.9 -111.05 -7.6 -113.35 -0.8 -110.9 L4.65 -108.4 6.4 -107.75 7.6 -107.4 7.9 -107.3 11.7 -106.4 13.8 -106.25 Q14.15 -106.25 14.5 -105.95 L15.4 -104.5 15.4 -104.45 15.45 -103.75 15.7 -103.7 15.8 -103.65 15.55 -103.6 15.45 -103.55 15.45 -103.25 15.45 -101.2 16.05 -94.75 16.15 -93.9 16.55 -90.55 17.45 -86.25 Q18.15 -82.75 18.3 -79.65 L18.75 -73.75 19.05 -70.8 Q19.05 -66.45 18.15 -61.45 L18.1 -61.3 17.7 -59.15 17.4 -54.1 16.6 -52.15 15.65 -44.85 15.25 -44.85 15.15 -45.25 15.15 -45.0 14.7 -42.2 14.55 -42.2 14.4 -43.55 14.3 -42.9 14.1 -42.6 13.9 -42.75 13.8 -43.4 Q13.8 -45.75 15.3 -51.8 L15.85 -55.4 16.0 -57.85 16.2 -59.15 16.25 -59.4 16.55 -59.75 16.65 -60.6 16.4 -62.9 16.45 -64.45 16.4 -65.1 Q16.35 -70.55 15.2 -75.25 L14.7 -77.15 13.65 -82.7 13.65 -82.85 13.55 -83.25 13.2 -85.25 13.2 -85.65 12.95 -86.55 12.55 -88.7 12.1 -90.8 12.05 -91.2 11.25 -95.45 11.2 -95.75 10.75 -95.75 10.6 -95.75 10.5 -95.6 10.0 -94.9 9.9 -94.8 6.1 -91.2 4.95 -90.25 4.95 -90.2 4.85 -90.15 1.8 -89.6 -1.05 -89.75 -0.4 -90.15 Q-4.3 -90.65 -6.45 -92.7 -8.1 -94.35 -8.1 -95.9 -8.1 -98.25 -7.35 -100.15 -6.85 -101.5 -6.0 -102.3 L-6.35 -102.4 -8.25 -103.2 -10.1 -105.2 -3.4 -103.7 -2.85 -103.55 -3.1 -103.65 -3.2 -103.65 -4.6 -104.05 -4.15 -104.1 -4.1 -104.1 0.35 -103.4 6.75 -101.0 4.8 -101.5 5.3 -101.35 10.7 -98.5 11.2 -97.95 11.25 -99.1 11.35 -99.3 11.45 -101.9 11.55 -101.8 11.6 -102.15 12.05 -104.05 6.75 -105.35 2.9 -106.45 Q-5.8 -109.15 -7.75 -109.15 L-10.95 -108.95 -12.4 -108.35 -12.75 -108.8 -13.15 -108.75 -13.25 -108.75 -13.65 -108.8 -13.8 -109.0 -13.85 -109.05 -13.8 -109.1 -13.7 -109.25 -13.3 -109.75 M2.75 -98.75 L3.2 -99.15 1.95 -99.75 1.9 -99.75 1.65 -99.4 Q1.15 -98.65 1.15 -98.05 1.15 -97.5 1.7 -96.65 2.35 -95.65 3.0 -95.65 4.15 -95.65 4.75 -96.75 5.15 -97.55 5.15 -98.2 L4.75 -98.4 4.75 -98.0 4.3 -97.3 Q3.8 -96.85 3.1 -96.7 L2.7 -97.3 2.5 -97.9 2.5 -98.1 Q3.0 -98.15 3.2 -98.45 L2.75 -98.75 M-0.2 -99.5 L0.3 -100.1 0.65 -100.35 Q-2.05 -101.5 -3.75 -101.8 L-3.6 -101.55 -4.05 -101.7 Q-5.5 -97.5 -5.5 -96.5 -5.5 -94.85 -3.25 -93.6 -1.05 -92.45 1.95 -92.35 L2.0 -92.35 2.35 -92.35 3.2 -92.4 3.3 -92.45 7.2 -94.95 7.35 -95.05 7.4 -95.15 8.2 -96.05 8.4 -96.3 8.1 -96.4 8.15 -96.45 8.35 -96.7 6.1 -97.75 5.95 -96.95 5.2 -95.75 Q4.2 -94.4 2.95 -94.4 0.9 -94.4 -0.05 -95.35 -0.75 -96.05 -0.75 -97.1 -0.75 -98.6 -0.2 -99.5 M13.85 -103.8 L13.9 -103.5 13.95 -103.1 13.95 -103.4 14.0 -103.8 13.9 -103.8 13.85 -103.8 M39.3 -95.45 L39.35 -95.55 39.3 -95.55 Q38.25 -95.3 37.0 -94.0 L35.9 -92.65 36.45 -92.75 38.05 -92.5 39.25 -94.7 39.3 -95.1 39.3 -95.45 M36.0 -90.2 L36.35 -89.25 36.75 -90.05 36.65 -90.15 36.0 -90.2 M39.7 -27.0 L39.65 -26.15 Q39.25 -23.6 36.7 -18.45 L35.6 -16.25 38.25 -19.5 Q40.45 -22.7 40.45 -24.6 40.45 -26.35 39.7 -27.55 L39.7 -27.0 M3.75 -17.65 L3.75 -17.6 3.4 -17.1 2.65 -18.25 2.05 -19.4 Q1.3 -21.0 1.3 -21.35 1.3 -26.15 2.4 -28.55 4.6 -33.4 11.0 -32.2 L13.7 -29.75 16.55 -27.25 16.65 -26.85 Q16.6 -26.5 15.7 -26.5 15.15 -26.5 11.65 -28.15 L8.0 -29.8 Q5.4 -29.8 4.4 -24.7 3.95 -22.35 3.75 -17.65 M8.3 -13.9 L8.65 -15.0 Q10.1 -19.3 10.1 -20.1 L10.1 -20.45 8.75 -23.9 9.15 -24.8 9.0 -25.4 7.9 -25.5 7.4 -25.85 8.1 -26.35 8.9 -26.7 10.15 -26.7 11.3 -26.3 11.45 -26.3 12.4 -25.35 Q14.05 -23.15 14.05 -21.0 14.05 -18.8 12.0 -15.45 L9.1 -11.2 8.25 -9.9 7.45 -9.9 7.3 -9.7 Q7.15 -9.7 7.15 -10.55 L8.2 -13.6 8.3 -13.9 M26.45 -3.85 L25.65 -2.55 25.7 -2.55 26.45 -3.85 M-1.35 -35.9 L-1.3 -35.9 -1.35 -35.85 -1.35 -35.9 M18.4 5.15 L18.5 5.15 18.35 5.25 18.4 5.15 M-0.25 -0.95 L-0.3 -0.45 -0.45 -0.95 -0.25 -0.95" fill="#111111" fill-rule="evenodd" stroke="none"/>
      <path d="M-21.25 -139.7 L-18.85 -143.25 -19.15 -142.3 -18.95 -141.65 -19.15 -142.25 -19.9 -139.9 -20.0 -139.9 -20.35 -139.85 -21.25 -139.7 M-18.7 -143.9 L-18.6 -144.55 -18.45 -144.1 -18.7 -143.9 M-37.0 -108.6 L-36.95 -108.7 -36.75 -109.05 -36.9 -108.8 -36.85 -108.55 -37.0 -108.6 M5.3 -101.35 L4.8 -101.5 5.3 -101.35 M-3.2 -103.65 L-3.1 -103.65 -2.85 -103.55 -3.4 -103.7 -3.2 -103.65 M13.85 -103.8 L13.9 -103.8 14.0 -103.8 13.95 -103.4 13.95 -103.1 13.9 -103.5 13.85 -103.8 M39.3 -95.45 L39.3 -95.55 39.35 -95.55 39.3 -95.45 M-18.3 -106.45 L-15.8 -107.2 -15.8 -107.15 Q-16.25 -106.85 -17.0 -106.65 L-18.3 -106.45 M-47.25 -79.5 L-47.35 -80.0 Q-47.75 -81.15 -47.75 -82.2 L-47.4 -80.3 -47.25 -79.5" fill="#806b53" fill-rule="evenodd" stroke="none"/>
      <path d="M-13.3 -109.75 L-13.7 -109.25 -13.8 -109.1 -13.65 -109.7 -13.3 -109.75 M8.1 -26.35 L8.25 -26.55 8.9 -26.7 8.1 -26.35 M-28.55 -118.15 L-28.65 -117.65 -28.75 -117.15 -28.9 -117.15 -28.55 -118.15 M-14.95 -102.6 L-14.95 -102.75 -14.85 -102.45 -14.95 -102.6" fill="#665542" fill-rule="evenodd" stroke="none"/>
      <path d="M2.0 -92.35 L1.95 -92.35 Q-1.05 -92.45 -3.25 -93.6 -5.5 -94.85 -5.5 -96.5 -5.5 -97.5 -4.05 -101.7 L-3.6 -101.55 -3.75 -101.8 Q-2.05 -101.5 0.65 -100.35 L0.3 -100.1 -0.2 -99.5 -0.45 -99.05 -1.65 -99.35 Q-4.5 -99.8 -4.5 -97.2 -4.5 -95.9 -3.55 -94.8 -2.05 -93.15 1.1 -93.15 3.35 -93.15 5.1 -94.3 6.55 -95.2 7.25 -96.5 L5.95 -96.95 6.1 -97.75 8.35 -96.7 8.15 -96.45 8.1 -96.4 8.4 -96.3 8.2 -96.05 8.15 -96.05 7.2 -94.95 3.3 -92.45 2.0 -92.35" fill="#bfbcab" fill-rule="evenodd" stroke="none"/>
      <path d="M2.5 -98.1 L2.5 -97.9 2.7 -97.3 3.1 -96.7 Q3.8 -96.85 4.3 -97.3 L4.75 -98.0 4.75 -98.4 5.15 -98.2 Q5.15 -97.55 4.75 -96.75 4.15 -95.65 3.0 -95.65 2.35 -95.65 1.7 -96.65 1.15 -97.5 1.15 -98.05 1.15 -98.65 1.65 -99.4 L1.9 -99.75 1.95 -99.75 3.2 -99.15 2.75 -98.75 2.05 -98.85 Q1.5 -98.75 1.5 -98.35 L1.8 -98.05 2.45 -98.1 2.5 -98.1" fill="#2e6614" fill-rule="evenodd" stroke="none"/>
      <path d="M2.0 -92.35 L3.3 -92.45 3.2 -92.4 2.35 -92.35 2.0 -92.35 M7.2 -94.95 L8.15 -96.05 8.2 -96.05 7.4 -95.15 7.35 -95.05 7.2 -94.95 M5.95 -96.95 L7.25 -96.5 Q6.55 -95.2 5.1 -94.3 3.35 -93.15 1.1 -93.15 -2.05 -93.15 -3.55 -94.8 -4.5 -95.9 -4.5 -97.2 -4.5 -99.8 -1.65 -99.35 L-0.45 -99.05 -0.2 -99.5 Q-0.75 -98.6 -0.75 -97.1 -0.75 -96.05 -0.05 -95.35 0.9 -94.4 2.95 -94.4 4.2 -94.4 5.2 -95.75 L5.95 -96.95" fill="#e6e3ce" fill-rule="evenodd" stroke="none"/>
      <path d="M2.75 -98.75 L3.2 -98.45 Q3.0 -98.15 2.5 -98.1 L2.45 -98.1 1.8 -98.05 1.5 -98.35 Q1.5 -98.75 2.05 -98.85 L2.75 -98.75" fill="#ffffff" fill-rule="evenodd" stroke="none"/>
      <path d="M34.1 -96.3 Q33.3 -95.55 33.3 -95.1 L33.05 -91.85 Q32.75 -91.35 32.75 -91.05 L32.8 -89.45 32.8 -88.9 32.75 -87.9 32.9 -87.15 33.9 -77.05 34.35 -73.35 Q35.95 -60.6 35.95 -48.8 L34.85 -35.7 Q32.7 -28.8 28.45 -28.8 22.05 -28.8 18.9 -35.75 16.85 -40.3 16.85 -44.75 L17.65 -57.05 18.1 -61.2 18.15 -61.45 Q19.05 -66.45 19.05 -70.8 L18.75 -73.75 18.3 -79.65 Q18.15 -82.75 17.45 -86.25 L16.55 -90.55 16.15 -93.9 16.05 -94.75 15.45 -101.2 15.45 -103.25 15.55 -103.6 15.8 -103.65 15.7 -103.7 15.6 -103.7 Q16.2 -105.75 17.3 -107.35 19.8 -111.05 23.45 -110.7 27.25 -110.35 30.25 -105.85 32.75 -102.1 34.1 -96.3" fill="#d9d1b8" fill-rule="evenodd" stroke="none"/>
      <path d="M51.0 -156.4 L48.15 -153.9 Q42.55 -148.15 41.1 -147.4 39.8 -146.65 34.8 -146.05 L24.95 -144.9 Q14.1 -143.4 12.4 -140.75 L10.25 -141.7 10.35 -141.8 10.45 -142.0 Q12.6 -144.35 17.15 -146.25 21.2 -147.95 30.8 -150.3 L36.8 -151.85 40.35 -152.85 46.7 -154.7 Q49.05 -155.5 51.0 -156.4 M-35.0 -115.9 L-31.55 -122.95 -30.55 -124.7 -30.45 -124.9 -30.3 -125.15 Q-26.85 -131.35 -21.25 -139.7 L-20.35 -139.85 -21.3 -138.15 Q-22.6 -135.65 -22.6 -134.65 -22.6 -133.25 -20.25 -131.7 -17.25 -129.7 -12.55 -129.7 -10.6 -129.7 -8.75 -131.25 L-7.95 -131.95 -6.85 -131.65 -6.5 -131.75 -6.3 -131.9 -5.2 -133.15 Q-5.15 -135.65 -4.65 -137.95 L-3.65 -141.2 -2.9 -142.9 -2.0 -144.3 -0.85 -146.0 -0.6 -145.7 -0.55 -145.6 -0.85 -145.05 Q2.3 -141.95 12.1 -137.75 24.0 -132.6 26.4 -129.95 L26.9 -128.75 Q28.45 -122.8 29.7 -119.6 L29.8 -119.35 29.8 -119.3 29.85 -119.3 Q31.4 -114.4 33.9 -110.95 L34.25 -108.8 Q34.25 -107.7 36.7 -105.1 L38.45 -103.35 Q39.9 -100.2 39.9 -99.1 L39.9 -98.3 Q36.75 -99.45 35.15 -97.15 L34.4 -96.6 34.1 -96.3 Q32.75 -102.1 30.25 -105.85 27.25 -110.35 23.45 -110.7 19.8 -111.05 17.3 -107.35 16.2 -105.75 15.6 -103.7 L15.7 -103.7 15.45 -103.75 15.4 -104.45 15.4 -104.5 14.5 -105.95 Q14.15 -106.25 13.8 -106.25 L11.7 -106.4 7.9 -107.3 7.6 -107.4 6.4 -107.75 4.65 -108.4 -0.8 -110.9 Q-7.6 -113.35 -10.9 -111.05 -12.4 -110.7 -13.3 -109.75 L-13.65 -109.7 -13.8 -109.1 -13.85 -109.05 -13.8 -109.0 -14.0 -108.4 -13.6 -108.0 -13.4 -108.25 -13.65 -107.95 -13.5 -107.85 -12.1 -106.65 Q-11.0 -105.7 -11.0 -104.8 -11.0 -104.1 -10.45 -103.85 -9.95 -103.55 -9.95 -102.9 L-10.45 -98.5 -11.0 -94.1 Q-11.0 -91.8 -7.1 -88.9 -2.35 -85.35 4.1 -85.35 L5.25 -85.45 6.5 -84.5 6.6 -84.4 Q6.6 -85.7 6.7 -84.95 12.15 -85.15 14.7 -77.15 L15.2 -75.25 Q16.35 -70.55 16.4 -65.1 L16.45 -64.45 16.4 -62.9 16.65 -60.6 16.55 -59.75 16.25 -59.4 16.2 -59.15 16.0 -57.85 15.85 -55.4 15.3 -51.8 Q13.8 -45.75 13.8 -43.4 L13.9 -42.75 14.1 -42.6 14.3 -42.9 14.4 -43.55 14.55 -42.2 14.7 -42.2 15.15 -45.0 15.15 -45.25 15.25 -44.85 15.65 -44.85 16.6 -52.15 17.4 -54.1 17.7 -59.15 18.1 -61.3 18.15 -61.45 18.1 -61.2 17.65 -57.05 16.85 -44.75 Q16.85 -40.3 18.9 -35.75 22.05 -28.8 28.45 -28.8 32.7 -28.8 34.85 -35.7 L34.8 -35.05 35.85 -37.75 35.85 -36.35 34.9 -21.1 34.75 -21.15 Q33.65 -20.45 31.1 -17.35 L26.1 -11.2 Q19.05 -3.05 14.35 -3.05 7.7 -3.05 7.7 -5.55 7.7 -5.95 8.45 -7.8 L9.2 -9.95 9.1 -11.2 12.0 -15.45 Q14.05 -18.8 14.05 -21.0 14.05 -23.15 12.4 -25.35 L11.45 -26.3 11.3 -26.3 10.15 -26.7 8.9 -26.7 8.25 -26.55 8.1 -26.35 7.4 -25.85 7.9 -25.5 7.7 -25.65 7.55 -25.45 Q5.95 -25.0 4.85 -22.05 4.0 -19.7 3.8 -17.6 L3.75 -17.65 Q3.95 -22.35 4.4 -24.7 5.4 -29.8 8.0 -29.8 L11.65 -28.15 Q15.15 -26.5 15.7 -26.5 16.6 -26.5 16.65 -26.85 L16.55 -27.25 13.7 -29.75 11.0 -32.2 Q4.6 -33.4 2.4 -28.55 1.3 -26.15 1.3 -21.35 1.3 -21.0 2.05 -19.4 L2.65 -18.25 2.3 -18.45 Q-1.3 -20.25 -2.45 -21.2 -4.6 -23.0 -4.6 -25.55 -4.6 -26.45 -3.7 -28.1 -2.85 -29.75 -2.85 -30.35 -2.85 -32.35 -3.5 -32.85 -1.3 -33.15 -0.4 -35.55 0.2 -37.2 0.2 -40.2 0.2 -43.65 -1.75 -46.4 -2.9 -48.05 -4.35 -48.9 -6.0 -52.0 -9.15 -55.45 -15.95 -62.9 -24.25 -66.0 -28.9 -67.75 -34.9 -77.85 -40.75 -87.75 -40.75 -93.05 -40.75 -96.15 -38.75 -103.1 L-37.3 -108.05 -37.0 -108.6 -36.85 -108.55 -36.9 -108.8 -36.75 -109.05 -36.95 -108.7 -35.0 -112.35 Q-36.2 -111.7 -36.7 -111.7 L-36.85 -111.45 Q-35.0 -114.8 -35.0 -115.9 M6.5 -181.65 L6.3 -179.75 5.8 -174.55 Q6.7 -167.45 6.7 -165.0 6.7 -161.2 2.3 -153.65 L-0.05 -150.1 1.15 -154.35 -0.7 -154.3 -1.3 -153.75 -0.85 -154.7 -1.15 -154.2 -0.6 -155.15 Q4.15 -162.6 4.35 -169.45 5.4 -173.95 5.4 -177.95 5.4 -178.8 6.2 -180.85 L6.5 -181.65 M39.3 -95.55 L39.3 -95.45 39.3 -95.1 39.25 -94.7 38.05 -92.5 36.45 -92.75 35.9 -92.65 37.0 -94.0 Q38.25 -95.3 39.3 -95.55 M36.0 -90.2 L36.65 -90.15 36.75 -90.05 36.35 -89.25 36.0 -90.2 M39.7 -27.0 L39.7 -27.55 Q40.45 -26.35 40.45 -24.6 40.45 -22.7 38.25 -19.5 L35.6 -16.25 36.7 -18.45 Q39.25 -23.6 39.65 -26.15 L39.7 -27.0 M-28.55 -118.15 L-28.9 -117.15 -28.75 -117.15 -28.65 -117.65 -28.55 -118.15 M-18.3 -106.45 L-17.0 -106.65 Q-16.25 -106.85 -15.8 -107.15 L-15.8 -107.2 -18.3 -106.45 M-14.95 -102.6 L-14.85 -102.45 -14.95 -102.75 -14.95 -102.6" fill="#353740" fill-rule="evenodd" stroke="none"/>
      <path d="M51.0 -156.4 L52.7 -157.2 50.45 -153.85 Q47.25 -148.35 44.7 -146.1 43.1 -144.65 38.65 -143.6 L30.15 -142.0 Q22.1 -140.4 20.05 -137.9 L19.8 -137.55 18.4 -138.2 12.4 -140.75 Q14.1 -143.4 24.95 -144.9 L34.8 -146.05 Q39.8 -146.65 41.1 -147.4 42.55 -148.15 48.15 -153.9 L51.0 -156.4 M-16.4 -145.0 L-16.35 -145.1 -16.3 -145.3 -16.15 -145.85 -13.95 -153.2 Q-11.8 -160.65 -9.15 -164.9 L0.25 -177.9 5.8 -185.65 6.45 -185.4 6.8 -184.9 6.75 -184.0 6.75 -183.85 6.65 -182.8 6.5 -181.65 6.2 -180.85 Q5.4 -178.8 5.4 -177.95 5.4 -173.95 4.35 -169.45 L4.35 -170.0 3.1 -176.85 Q2.55 -176.05 2.2 -174.25 L1.9 -172.2 Q-1.95 -171.7 -5.15 -168.25 -7.75 -165.4 -8.0 -162.8 L-10.15 -159.6 Q-14.15 -152.75 -14.15 -144.95 L-13.9 -143.85 Q-14.95 -145.1 -16.4 -145.0 M-0.05 -150.1 L-1.75 -147.65 -3.15 -145.5 -2.8 -146.1 -2.9 -146.25 Q-5.05 -146.4 -6.8 -145.2 L-6.6 -145.55 -3.4 -150.6 -2.05 -152.7 -1.7 -153.35 -1.15 -154.2 -0.85 -154.7 -1.3 -153.75 -0.7 -154.3 1.15 -154.35 -0.05 -150.1 M-4.05 -166.7 L-3.9 -166.9 Q-1.5 -169.7 1.85 -171.65 L1.8 -170.05 Q-1.45 -168.9 -4.05 -166.7" fill="#2a2c33" fill-rule="evenodd" stroke="none"/>
      <path d="M-18.85 -143.25 L-18.7 -143.9 -18.45 -144.1 -18.45 -144.0 -18.4 -143.9 Q-18.05 -142.3 -17.35 -142.0 L-16.65 -144.15 -16.4 -145.0 Q-14.95 -145.1 -13.9 -143.85 L-14.15 -144.95 Q-14.15 -152.75 -10.15 -159.6 L-8.0 -162.8 -8.0 -162.5 -8.0 -161.75 -7.7 -161.75 -4.05 -166.7 Q-1.45 -168.9 1.8 -170.05 1.25 -161.35 -5.4 -153.1 L-10.4 -147.0 -11.0 -146.0 -11.45 -145.2 -11.6 -144.9 -11.75 -144.6 Q-12.45 -143.2 -12.6 -141.9 L-12.65 -141.15 -12.65 -141.05 -12.55 -139.9 -12.45 -139.25 -11.15 -138.95 -11.1 -138.95 -11.0 -139.0 -10.95 -139.0 -10.15 -139.3 -9.65 -140.25 -9.5 -140.55 -7.65 -143.8 -6.8 -145.2 Q-5.05 -146.4 -2.9 -146.25 L-2.8 -146.1 -3.15 -145.5 -5.2 -142.5 Q-6.95 -139.9 -7.75 -137.5 L-8.5 -134.75 -8.55 -134.35 -8.55 -134.2 -8.55 -134.1 -8.6 -133.2 -8.45 -132.2 -8.4 -132.15 -7.95 -132.0 -7.95 -131.95 -8.75 -131.25 Q-10.6 -129.7 -12.55 -129.7 -17.25 -129.7 -20.25 -131.7 -22.6 -133.25 -22.6 -134.65 -22.6 -135.65 -21.3 -138.15 L-20.35 -139.85 -20.0 -139.9 -19.9 -139.9 -19.15 -142.25 -18.95 -141.65 -19.15 -142.3 -18.85 -143.25 M34.9 -21.1 L34.9 -20.95 34.55 -20.45 Q33.15 -18.15 25.55 -7.7 L22.0 -2.65 21.6 -2.35 21.6 -2.3 20.75 -2.25 20.2 -2.25 19.9 -2.2 19.95 -2.3 19.0 -2.15 13.1 -1.8 7.55 -2.55 5.3 -3.15 5.1 -3.4 4.65 -3.65 4.25 -3.9 Q3.65 -4.35 3.65 -4.8 L3.5 -6.1 2.25 -8.5 1.9 -9.25 1.75 -9.55 1.1 -10.9 1.05 -11.05 0.85 -11.3 -1.7 -14.2 -4.85 -17.4 -5.3 -17.8 -5.1 -17.55 -5.4 -17.7 -5.65 -17.85 -6.25 -17.7 Q-5.15 -14.35 -3.25 -10.95 -1.4 -7.7 0.35 -6.35 L0.35 -6.25 0.3 -6.15 -1.15 -7.7 -2.6 -9.45 Q-6.2 -13.5 -6.95 -14.95 L-8.8 -19.5 -8.95 -21.4 -9.35 -24.5 -9.6 -25.8 -9.65 -26.15 -10.5 -28.55 -10.8 -29.85 Q-10.8 -31.15 -11.4 -32.7 -12.0 -34.25 -12.0 -35.05 L-12.6 -37.15 -12.5 -37.5 -13.6 -40.5 -13.85 -41.25 Q-13.85 -43.2 -17.8 -48.75 -20.55 -52.55 -22.25 -54.25 L-19.8 -54.65 Q-16.65 -49.8 -13.45 -44.4 L-13.1 -43.8 -12.75 -43.15 -10.3 -38.5 -9.05 -35.95 -8.15 -34.0 -7.9 -33.7 Q-7.5 -33.25 -7.35 -32.05 L-7.1 -31.25 -7.1 -31.1 -7.3 -29.15 -7.55 -27.75 -7.6 -27.55 -8.1 -24.3 -7.95 -23.65 -7.4 -23.55 Q-6.15 -25.45 -5.2 -28.05 -4.2 -30.85 -4.2 -32.85 -4.2 -33.3 -4.55 -33.8 L-5.0 -34.25 -5.3 -35.15 -4.9 -37.45 -5.05 -36.4 Q-5.3 -36.4 -5.95 -37.15 L-6.0 -37.3 -6.05 -37.4 Q-7.1 -40.15 -8.55 -42.85 L-9.6 -44.75 Q-12.5 -50.05 -17.2 -54.25 L-17.25 -54.35 Q-14.6 -53.55 -12.35 -50.75 -9.2 -46.85 -6.15 -46.3 L-5.8 -46.25 -5.9 -46.55 -6.4 -47.85 -6.45 -47.95 -6.6 -48.35 Q-7.55 -50.5 -8.9 -52.25 L-9.35 -52.8 Q-10.65 -54.4 -12.25 -55.45 L-14.45 -56.65 Q-17.1 -57.8 -20.3 -57.8 L-26.2 -56.5 -32.25 -55.25 Q-35.7 -55.25 -40.0 -62.5 L-40.05 -62.55 -41.05 -64.3 -41.95 -66.05 -43.2 -68.55 -43.25 -68.75 -43.35 -68.9 -43.45 -69.15 -46.6 -76.35 Q-49.0 -82.1 -49.0 -83.85 L-48.65 -87.3 Q-47.5 -92.95 -42.85 -99.6 L-41.8 -101.1 -38.8 -105.65 -37.3 -108.05 -38.75 -103.1 Q-40.75 -96.15 -40.75 -93.05 -40.75 -87.75 -34.9 -77.85 -28.9 -67.75 -24.25 -66.0 -15.95 -62.9 -9.15 -55.45 -6.0 -52.0 -4.35 -48.9 -2.9 -48.05 -1.75 -46.4 0.2 -43.65 0.2 -40.2 0.2 -37.2 -0.4 -35.55 -1.3 -33.15 -3.5 -32.85 -2.85 -32.35 -2.85 -30.35 -2.85 -29.75 -3.7 -28.1 -4.6 -26.45 -4.6 -25.55 -4.6 -23.0 -2.45 -21.2 -1.3 -20.25 2.3 -18.45 L2.65 -18.25 3.4 -17.1 3.75 -17.6 3.75 -17.65 3.8 -17.6 Q4.0 -19.7 4.85 -22.05 5.95 -25.0 7.55 -25.45 L7.7 -25.65 7.9 -25.5 9.0 -25.4 9.15 -24.8 8.75 -23.9 10.1 -20.45 10.1 -20.1 Q10.1 -19.3 8.65 -15.0 L8.3 -13.9 8.15 -13.65 8.2 -13.6 7.15 -10.55 Q7.15 -9.7 7.3 -9.7 L7.45 -9.9 8.25 -9.9 9.1 -11.2 9.2 -9.95 8.45 -7.8 Q7.7 -5.95 7.7 -5.55 7.7 -3.05 14.35 -3.05 19.05 -3.05 26.1 -11.2 L31.1 -17.35 Q33.65 -20.45 34.75 -21.15 L34.9 -21.1 M-13.8 -109.0 L-13.65 -108.8 -13.25 -108.75 -13.15 -108.75 -12.75 -108.8 -12.4 -108.35 -10.95 -108.95 -7.75 -109.15 Q-5.8 -109.15 2.9 -106.45 L6.75 -105.35 12.05 -104.05 11.6 -102.15 11.55 -101.8 11.45 -101.9 11.35 -99.3 11.25 -99.1 11.2 -97.95 10.7 -98.5 5.3 -101.35 4.8 -101.5 6.75 -101.0 0.35 -103.4 -4.1 -104.1 -4.15 -104.1 -4.6 -104.05 -3.2 -103.65 -3.4 -103.7 -10.1 -105.2 -8.25 -103.2 -6.35 -102.4 -6.0 -102.3 Q-6.85 -101.5 -7.35 -100.15 -8.1 -98.25 -8.1 -95.9 -8.1 -94.35 -6.45 -92.7 -4.3 -90.65 -0.4 -90.15 L-1.05 -89.75 1.8 -89.6 4.85 -90.15 4.95 -90.2 4.95 -90.25 6.1 -91.2 9.9 -94.8 10.0 -94.9 10.5 -95.6 10.6 -95.75 10.75 -95.75 11.2 -95.75 11.25 -95.45 12.05 -91.2 12.1 -90.8 12.55 -88.7 12.95 -86.55 13.2 -85.65 13.2 -85.25 13.55 -83.25 13.65 -82.85 13.65 -82.7 14.7 -77.15 Q12.15 -85.15 6.7 -84.95 6.6 -85.7 6.6 -84.4 L6.5 -84.5 5.25 -85.45 4.1 -85.35 Q-2.35 -85.35 -7.1 -88.9 -11.0 -91.8 -11.0 -94.1 L-10.45 -98.5 -9.95 -102.9 Q-9.95 -103.55 -10.45 -103.85 -11.0 -104.1 -11.0 -104.8 -11.0 -105.7 -12.1 -106.65 L-13.5 -107.85 -13.65 -107.95 -13.4 -108.25 -13.6 -108.0 -14.0 -108.4 -13.8 -109.0 M-47.25 -79.5 L-47.4 -80.3 -47.75 -82.2 Q-47.75 -81.15 -47.35 -80.0 L-47.25 -79.5 M-1.35 -35.9 L-1.35 -35.85 -1.3 -35.9 -1.35 -35.9 M-7.55 -20.35 L-7.05 -19.85 -7.55 -20.45 -7.55 -20.35" fill="#1f2026" fill-rule="evenodd" stroke="none"/>
      <path d="M3.55 -124.85 L34.25 -117.45 34.55 -117.4 34.6 -117.4 Q37.8 -116.8 39.5 -111.35 L40.65 -104.85 40.55 -104.25 Q40.5 -104.05 40.0 -104.0 L39.6 -104.45 39.0 -104.3 25.0 -108.25 15.15 -110.2 Q4.8 -112.0 -1.0 -112.0 -8.25 -112.0 -12.35 -106.3 L-14.85 -102.4 Q-15.6 -101.35 -16.35 -100.9 L-16.65 -100.65 -18.2 -98.7 Q-18.6 -96.2 -20.1 -93.3 L-20.65 -92.25 Q-19.1 -88.1 -16.25 -76.45 L-13.7 -65.45 Q-10.6 -65.0 -9.2 -62.25 -8.25 -60.4 -8.25 -57.75 -8.25 -54.9 -9.9 -51.65 -10.55 -50.4 -11.35 -49.5 L-11.4 -49.25 -11.5 -49.1 -8.35 -40.45 -7.45 -39.85 -7.3 -39.8 -6.35 -39.7 Q-4.6 -42.85 -0.7 -44.95 L-0.6 -44.6 1.7 -46.1 10.1 -51.15 Q11.2 -51.95 12.65 -52.5 L12.65 -52.55 12.85 -52.6 Q17.55 -54.35 26.15 -53.65 35.35 -52.9 40.85 -50.7 L40.85 -50.65 Q42.9 -50.2 42.9 -49.2 42.6 -46.25 42.1 -44.6 L42.15 -44.45 42.1 -44.2 41.95 -44.1 Q41.3 -42.45 40.35 -42.45 L36.8 -42.95 35.9 -43.1 32.85 -43.35 32.7 -43.35 32.15 -43.35 29.5 -43.4 28.05 -43.45 28.05 -43.35 22.15 -42.85 15.65 -42.9 Q12.9 -42.9 4.45 -37.3 L-3.95 -31.35 -4.2 -31.3 Q-4.5 -31.35 -4.5 -31.8 L-4.5 -31.95 -5.15 -31.25 -5.1 -31.3 -5.1 -31.25 -5.05 -31.25 -4.95 -30.7 -5.0 -31.35 -4.6 -31.4 Q-4.2 -29.85 -3.75 -24.65 L-3.35 -19.25 -3.45 -17.05 Q-3.0 -16.95 -2.6 -16.55 -1.95 -15.9 -1.95 -15.25 L-1.55 -13.45 -1.15 -11.25 Q-1.15 -9.55 -2.3 -7.0 -3.9 -3.45 -6.4 -3.45 -9.55 -3.45 -10.95 -6.65 -11.75 -8.45 -11.75 -10.15 -11.75 -12.1 -11.4 -13.2 -10.95 -14.7 -9.8 -15.65 L-9.8 -15.9 -9.75 -16.45 -10.25 -18.75 -11.1 -23.75 -11.2 -23.7 -12.55 -22.4 Q-13.0 -23.0 -14.25 -26.5 L-15.15 -29.2 -15.25 -28.9 -15.4 -28.9 -15.65 -29.8 -15.85 -30.75 -15.6 -31.3 -14.95 -32.05 -15.2 -32.85 -14.9 -33.05 -15.65 -34.75 -15.5 -36.1 -15.3 -36.3 Q-15.3 -36.6 -14.7 -36.8 L-14.35 -36.9 -17.55 -46.5 -18.1 -46.5 Q-21.35 -46.5 -22.5 -49.95 -23.05 -51.7 -23.0 -53.5 -23.0 -56.4 -22.3 -58.55 -22.65 -59.1 -22.65 -60.1 L-22.65 -60.15 -23.4 -62.5 Q-26.0 -68.7 -29.25 -80.35 L-29.4 -80.95 Q-30.75 -85.25 -31.1 -87.05 L-34.75 -83.1 Q-37.5 -79.5 -39.0 -75.85 L-41.45 -70.5 -42.05 -68.55 -42.65 -66.35 -43.0 -65.0 -43.0 -64.9 -43.05 -64.75 -43.3 -64.65 -43.35 -63.85 -43.45 -63.55 -43.25 -63.25 -43.35 -62.85 -43.8 -62.75 -44.0 -62.85 -44.15 -62.75 -44.5 -62.9 -44.6 -63.2 -45.7 -63.8 Q-46.8 -64.5 -46.9 -65.3 L-46.95 -65.45 Q-47.35 -65.75 -47.4 -66.15 L-47.4 -66.7 -47.85 -68.05 Q-48.9 -71.3 -48.9 -72.25 L-49.35 -73.75 -49.8 -75.75 -49.9 -76.9 -50.25 -78.1 -51.05 -81.3 -50.75 -82.95 -50.45 -83.25 Q-49.65 -86.75 -44.2 -93.7 L-38.8 -100.05 -37.35 -101.6 -36.85 -103.3 -36.75 -103.45 -37.1 -103.95 -36.15 -104.8 -36.1 -104.85 -35.9 -105.65 -34.75 -115.8 Q-33.5 -125.25 -32.55 -127.8 L-30.9 -133.2 Q-29.75 -136.5 -27.5 -138.75 L-21.1 -145.05 Q-18.75 -147.0 -17.6 -146.95 L-17.55 -147.05 -17.45 -146.95 Q-16.55 -146.8 -16.55 -145.15 -16.55 -145.5 -17.7 -144.8 L-19.4 -140.3 -21.2 -133.45 -21.2 -133.4 -21.25 -132.15 Q-21.25 -130.95 -22.0 -124.95 -22.55 -120.45 -22.7 -114.95 L-22.1 -115.85 Q-19.4 -119.75 -16.65 -121.7 -14.55 -123.15 -11.85 -123.95 -9.65 -125.05 -7.55 -125.35 L-6.15 -125.7 -5.25 -125.5 0.65 -124.9 3.55 -124.85 M0.3 -115.15 Q-7.25 -115.15 -10.75 -111.6 -13.9 -107.05 -17.1 -103.75 L-16.85 -103.3 -16.5 -103.75 -13.3 -107.4 -9.65 -111.35 Q-7.15 -113.5 -3.35 -113.85 3.2 -114.45 21.3 -111.15 33.9 -108.85 38.05 -107.0 L37.85 -107.5 Q36.15 -107.9 32.55 -109.15 L24.25 -111.75 13.25 -113.65 0.3 -115.15 M34.3 -116.45 L33.35 -116.4 Q31.55 -116.4 15.65 -120.35 -0.25 -124.3 -3.5 -124.3 L-6.8 -124.0 -8.9 -123.75 Q-12.25 -122.55 -15.85 -119.6 L-17.6 -117.9 -22.05 -112.5 -21.45 -111.4 -22.95 -110.6 -23.0 -110.6 -23.0 -110.5 -21.65 -109.5 -21.2 -109.05 -20.95 -108.75 Q-19.1 -106.7 -18.4 -103.8 L-17.7 -104.8 -16.35 -106.5 -14.25 -110.4 Q-10.55 -115.35 -3.1 -116.05 7.4 -117.05 19.35 -114.2 L25.0 -112.65 Q31.8 -111.0 37.2 -109.05 L36.75 -110.2 Q35.25 -114.45 35.25 -115.5 L34.85 -116.15 34.3 -116.45 M33.95 -50.3 L29.55 -50.55 23.75 -51.35 18.1 -52.05 Q15.35 -51.1 7.65 -46.5 L0.0 -41.85 -0.25 -41.7 -3.65 -39.45 -3.9 -39.2 -4.95 -38.0 -4.35 -36.5 -4.1 -35.8 Q4.2 -44.05 13.95 -46.15 L14.75 -46.65 18.6 -47.1 21.25 -46.9 29.4 -46.4 39.3 -45.6 40.7 -45.35 40.85 -46.3 41.1 -48.0 41.1 -48.7 Q40.55 -49.2 39.15 -49.5 L37.5 -49.9 33.95 -50.3 M32.6 -45.15 L24.85 -46.1 19.65 -46.2 15.4 -45.8 10.85 -44.25 10.8 -44.25 5.55 -41.3 Q-0.2 -37.8 -3.85 -34.9 L-3.75 -34.55 Q-2.35 -35.95 1.0 -37.65 L1.4 -37.9 Q10.75 -45.35 23.0 -45.35 L32.6 -45.15 M-22.0 -141.3 Q-28.0 -135.3 -30.8 -126.4 -32.8 -120.1 -33.3 -116.0 L-33.55 -108.85 Q-32.25 -110.05 -30.75 -110.45 -30.2 -110.85 -29.65 -111.05 L-29.05 -111.65 -28.7 -111.65 -28.5 -111.7 -28.45 -111.7 -27.9 -111.8 -27.8 -111.65 -26.0 -111.6 -26.5 -114.0 -27.0 -117.4 Q-27.0 -126.05 -24.6 -134.05 -23.25 -138.6 -21.35 -141.95 L-22.0 -141.3 M-22.9 -131.9 L-21.8 -137.15 -23.9 -131.3 Q-24.65 -128.55 -25.25 -124.0 -25.9 -119.4 -25.9 -116.25 L-25.5 -113.5 -25.1 -111.6 -25.05 -111.7 Q-25.0 -118.05 -23.85 -125.6 L-23.2 -129.9 -23.2 -130.05 -22.9 -131.9 M-37.6 -100.05 L-43.55 -91.95 -49.45 -83.2 -49.4 -82.75 -49.5 -82.15 Q-48.35 -76.75 -48.35 -75.3 L-48.35 -75.25 -48.3 -75.1 -48.1 -74.0 -48.1 -73.95 -47.05 -70.8 -46.65 -69.7 -45.95 -68.6 -45.75 -69.15 -45.5 -70.0 -45.6 -70.3 -45.5 -70.25 -45.35 -70.5 -44.65 -72.55 -44.7 -72.65 Q-42.65 -79.0 -38.6 -84.75 L-35.65 -88.3 -34.4 -89.5 -34.95 -90.15 Q-36.9 -92.3 -36.9 -93.25 L-37.35 -95.85 -37.85 -98.5 -37.8 -99.05 -37.75 -99.1 -37.6 -100.05 M-24.25 -109.3 L-23.85 -109.15 -23.55 -109.15 -24.2 -109.5 -25.3 -110.0 -24.25 -109.3 M-23.5 -107.5 L-23.3 -107.25 -23.45 -107.45 -23.5 -107.5 M-20.1 -99.3 L-19.85 -100.55 -19.85 -100.65 -19.85 -100.9 -20.0 -102.5 -20.05 -103.0 -20.4 -103.8 -20.7 -103.8 -20.7 -103.6 Q-21.1 -105.15 -22.2 -106.35 L-22.05 -105.9 -21.8 -104.7 -21.5 -103.65 Q-21.5 -102.25 -21.65 -101.1 L-21.65 -100.6 Q-21.65 -99.8 -22.2 -98.5 L-22.2 -98.4 -22.35 -97.35 Q-22.35 -96.55 -25.1 -93.1 L-26.45 -91.4 -27.45 -90.3 -27.8 -89.9 -27.6 -89.75 -27.5 -89.8 -25.65 -90.85 Q-24.0 -91.9 -22.6 -93.4 L-22.45 -93.55 -22.25 -93.85 Q-21.15 -95.15 -20.5 -96.35 -20.0 -97.65 -20.0 -98.9 L-20.0 -99.1 -20.1 -99.3 M-28.1 -108.65 Q-31.3 -108.3 -33.35 -105.45 -35.75 -102.15 -35.75 -96.4 -35.75 -94.1 -35.2 -92.85 -34.05 -90.3 -30.75 -90.0 L-30.7 -90.0 Q-27.85 -91.5 -26.05 -93.3 L-24.9 -95.05 -23.45 -97.8 Q-23.05 -99.55 -23.05 -101.75 -23.05 -107.9 -27.2 -108.7 L-28.1 -108.65 M-29.05 -101.8 Q-30.9 -101.0 -30.9 -99.1 L-30.65 -98.1 Q-30.3 -97.35 -29.5 -97.35 -28.4 -97.35 -27.7 -99.1 L-27.25 -100.65 Q-27.25 -102.6 -29.05 -101.8 M-26.1 -100.05 Q-26.1 -99.2 -26.65 -98.0 -27.3 -96.55 -28.1 -96.25 L-29.75 -96.25 Q-31.5 -97.0 -31.85 -97.8 L-32.0 -99.15 Q-32.0 -102.85 -29.05 -102.95 -26.1 -103.0 -26.1 -100.05 M-18.1 -101.7 L-17.3 -102.75 -18.15 -102.05 -18.1 -101.7 M-19.2 -76.3 L-18.0 -72.75 -16.6 -69.4 -16.75 -70.0 -18.8 -77.95 -20.55 -85.95 -21.2 -89.2 -21.6 -90.95 -21.9 -90.6 -21.05 -86.3 Q-20.15 -81.55 -20.15 -80.15 -20.15 -79.4 -19.2 -76.3 M-18.65 -58.15 Q-17.9 -59.7 -16.15 -60.2 L-15.6 -60.35 -15.15 -60.4 -15.25 -61.0 -15.3 -61.35 -15.2 -62.05 -15.3 -63.5 -15.3 -63.65 -15.25 -65.2 -15.35 -64.85 -15.6 -64.5 Q-16.6 -66.2 -19.5 -76.15 -22.45 -86.3 -22.65 -89.85 L-23.05 -89.45 Q-25.55 -87.35 -29.05 -87.25 L-29.5 -87.25 -30.3 -87.25 -29.35 -84.15 -27.45 -78.45 -25.3 -72.2 -22.15 -62.95 -22.0 -63.25 -21.35 -60.8 -21.05 -61.3 -21.05 -61.25 Q-20.8 -60.1 -20.4 -59.65 L-20.6 -59.15 -20.15 -58.7 Q-19.65 -58.3 -18.95 -58.15 L-18.65 -58.1 -18.65 -58.15 M-32.3 -87.75 L-33.55 -88.4 -35.35 -86.35 Q-38.5 -82.45 -41.35 -77.5 -42.3 -75.8 -43.6 -71.7 L-43.85 -70.95 -44.3 -70.25 -44.4 -69.15 -44.85 -67.1 -45.25 -65.1 -45.25 -65.05 -44.85 -64.75 -44.5 -64.5 -44.15 -66.65 Q-44.15 -69.2 -42.5 -72.95 L-42.4 -73.55 Q-42.4 -74.3 -40.9 -76.65 L-38.6 -80.55 Q-36.2 -84.25 -34.0 -86.25 L-32.45 -87.65 -32.3 -87.75 M-21.05 -57.0 L-21.0 -56.8 -21.05 -56.35 -21.15 -56.25 -21.35 -56.15 -21.5 -54.15 Q-21.5 -52.0 -21.1 -50.95 -20.4 -49.1 -18.4 -48.65 L-18.5 -50.0 -18.25 -52.0 -17.9 -52.6 Q-18.65 -53.0 -18.95 -53.85 -19.15 -54.35 -19.15 -55.55 L-19.05 -56.65 -20.5 -56.65 -21.0 -57.15 -21.1 -57.25 -21.05 -57.0 M-15.35 -68.6 L-15.4 -68.75 -15.2 -67.95 -15.1 -67.45 -15.0 -67.4 -15.35 -68.6 M-12.55 -53.25 L-11.55 -52.65 -11.45 -52.55 -11.25 -53.0 Q-10.25 -55.25 -10.0 -57.4 -10.0 -60.55 -11.8 -62.25 -12.55 -62.95 -13.4 -63.3 L-13.4 -63.25 -13.6 -61.15 -13.6 -60.25 -13.3 -60.1 Q-12.1 -59.35 -12.1 -56.9 L-12.25 -55.85 -13.0 -54.35 -13.4 -53.75 -13.05 -53.55 -12.55 -53.25 M-17.15 -53.4 L-16.65 -53.85 Q-16.2 -53.75 -16.05 -53.45 L-15.4 -53.5 Q-14.05 -54.4 -13.7 -55.05 -13.35 -55.55 -13.35 -56.6 -13.35 -59.15 -14.6 -59.35 L-15.85 -58.35 -17.95 -56.8 -18.15 -56.8 -18.25 -55.95 -17.75 -54.55 -17.5 -53.95 -17.25 -53.4 -17.15 -53.4 M-17.2 -49.25 L-17.15 -49.15 -16.75 -48.65 -16.6 -48.3 -16.0 -46.7 -16.65 -46.55 Q-15.15 -42.95 -12.95 -36.6 L-12.65 -35.65 -12.3 -35.8 -12.1 -35.85 -12.1 -35.95 -11.0 -36.85 -9.85 -37.25 -9.35 -37.3 -9.25 -37.5 -9.05 -37.8 -8.95 -37.95 -9.3 -38.95 -12.35 -48.45 -12.4 -48.45 -12.75 -49.8 -13.05 -50.3 -12.95 -50.4 -13.5 -52.75 -13.45 -52.95 -13.7 -53.4 Q-14.85 -52.3 -16.4 -52.3 L-16.45 -52.3 -16.6 -52.3 -16.7 -52.3 -16.95 -51.7 -17.35 -49.85 -17.2 -49.25 M-46.35 -72.45 L-46.05 -71.95 -46.1 -71.8 -46.35 -72.45 M-48.2 -71.75 L-48.25 -71.8 -48.15 -71.5 -48.2 -71.75 M-7.5 -37.95 L-7.4 -38.2 -7.75 -38.75 -7.5 -38.05 -7.65 -38.0 -7.45 -37.55 -7.5 -37.95 M-14.1 -36.0 L-13.8 -35.15 -13.8 -35.3 -14.1 -36.15 -14.1 -36.0 M-13.65 -34.8 L-12.25 -31.9 -10.35 -28.25 -9.8 -29.5 -9.9 -30.0 Q-9.9 -30.35 -8.2 -31.3 L-6.15 -32.25 -6.1 -31.85 -5.1 -31.85 -5.65 -34.05 -6.45 -36.45 -6.9 -36.0 -6.95 -36.1 -7.5 -35.7 -7.7 -35.7 -7.55 -36.55 Q-8.05 -36.05 -9.75 -35.1 L-12.2 -33.8 Q-12.75 -33.8 -13.15 -34.25 L-13.55 -34.7 -13.55 -34.65 -13.6 -34.75 -13.65 -34.8 M-12.4 -25.25 L-12.25 -25.7 -11.6 -26.85 -13.5 -30.3 -13.65 -30.6 -14.15 -31.6 -14.4 -31.2 -13.4 -27.95 -12.75 -26.15 -12.25 -24.8 -12.4 -25.25 M-9.0 -27.1 L-9.65 -26.25 -9.0 -22.55 -8.4 -17.25 -8.3 -16.75 -8.25 -16.8 -8.2 -16.0 -7.95 -15.35 -8.0 -15.3 -7.9 -14.9 -8.2 -14.75 -7.9 -13.4 Q-7.6 -13.1 -7.1 -13.1 -6.3 -13.1 -5.45 -14.7 L-5.15 -15.25 -5.1 -15.95 -5.25 -15.9 -5.15 -17.4 -5.3 -17.95 -6.0 -28.15 -6.25 -30.1 -6.6 -29.8 -6.75 -29.6 -7.95 -28.55 -9.1 -27.35 -9.0 -27.1 M-9.85 -13.95 Q-10.9 -12.15 -10.9 -10.9 L-10.5 -9.2 -10.15 -7.45 Q-10.15 -6.75 -8.8 -5.75 -7.5 -4.75 -6.7 -4.75 -4.6 -4.75 -3.25 -7.65 -2.3 -9.7 -2.3 -10.9 -2.3 -12.2 -2.85 -13.75 -3.3 -15.0 -3.9 -15.75 L-4.4 -14.0 Q-4.75 -13.1 -5.3 -12.5 -4.6 -11.6 -4.6 -10.45 -4.6 -9.4 -5.15 -8.2 -5.9 -6.45 -7.4 -6.45 -8.7 -6.45 -9.35 -7.85 -9.75 -8.7 -9.75 -9.35 -9.75 -10.95 -9.4 -11.75 L-9.55 -12.25 -9.55 -13.5 -9.55 -13.75 -9.8 -13.55 -9.7 -14.15 -9.85 -13.95 M-6.15 -11.8 Q-7.05 -11.35 -8.15 -11.35 L-8.8 -10.3 Q-8.85 -7.55 -7.1 -7.55 -6.55 -7.55 -6.0 -8.75 -5.7 -9.3 -5.55 -9.95 L-6.15 -11.8" fill="#111111" fill-rule="evenodd" stroke="none"/>
      <path d="M-24.2 -109.5 L-23.55 -109.15 -23.85 -109.15 -24.25 -109.3 -24.2 -109.5 M-18.1 -101.7 L-18.15 -102.05 -17.3 -102.75 -18.1 -101.7 M-15.2 -67.95 L-15.4 -68.75 -15.35 -68.6 -15.2 -67.95 M-13.05 -53.55 L-12.6 -53.6 -12.55 -53.25 -13.05 -53.55 M-6.75 -29.6 L-9.0 -27.1 -9.1 -27.35 -7.95 -28.55 -6.75 -29.6" fill="#403636" fill-rule="evenodd" stroke="none"/>
      <path d="M-23.5 -107.5 L-23.45 -107.45 -23.3 -107.25 -23.5 -107.5 M-18.95 -58.15 L-18.65 -58.15 -18.65 -58.1 -18.95 -58.15 M-17.5 -53.95 L-17.25 -53.6 -17.15 -53.4 -17.25 -53.4 -17.5 -53.95 M-16.6 -52.3 Q-17.25 -51.45 -17.25 -49.8 L-17.2 -49.25 -17.35 -49.85 -16.95 -51.7 -16.7 -52.3 -16.6 -52.3 M-7.5 -37.95 L-7.45 -37.55 -7.65 -38.0 -7.5 -38.05 -7.75 -38.75 -7.4 -38.2 -7.5 -37.95" fill="#a2b2bf" fill-rule="evenodd" stroke="none"/>
      <path d="M-29.05 -101.8 Q-27.25 -102.6 -27.25 -100.65 L-27.7 -99.1 Q-28.4 -97.35 -29.5 -97.35 -30.3 -97.35 -30.65 -98.1 L-30.9 -99.1 Q-30.9 -101.0 -29.05 -101.8" fill="#730b0b" fill-rule="evenodd" stroke="none"/>
      <path d="M-37.6 -100.05 L-37.75 -99.1 -37.8 -99.05 -37.85 -98.5 -37.35 -95.85 -36.9 -93.25 Q-36.9 -92.3 -34.95 -90.15 L-34.4 -89.5 -35.65 -88.3 -38.6 -84.75 Q-42.65 -79.0 -44.7 -72.65 L-44.65 -72.55 -45.35 -70.5 -45.5 -70.25 -45.6 -70.3 -45.5 -70.0 -45.75 -69.15 -45.95 -68.6 -46.65 -69.7 -47.05 -70.8 -48.1 -73.95 -48.1 -74.0 -48.3 -75.1 -48.35 -75.25 -48.35 -75.3 Q-48.35 -76.75 -49.5 -82.15 L-49.4 -82.75 -49.45 -83.2 -43.55 -91.95 -37.6 -100.05 M-22.9 -131.9 L-23.2 -130.05 -23.2 -129.9 -23.85 -125.6 Q-25.0 -118.05 -25.05 -111.7 L-25.1 -111.6 -25.5 -113.5 -25.9 -116.25 Q-25.9 -119.4 -25.25 -124.0 -24.65 -128.55 -23.9 -131.3 L-21.8 -137.15 -22.9 -131.9 M-22.0 -141.3 L-21.35 -141.95 Q-23.25 -138.6 -24.6 -134.05 -27.0 -126.05 -27.0 -117.4 L-26.5 -114.0 -26.0 -111.6 -27.8 -111.65 -27.9 -111.8 -28.45 -111.7 -28.5 -111.7 -28.7 -111.65 -29.05 -111.65 -29.65 -111.05 Q-30.2 -110.85 -30.75 -110.45 -32.25 -110.05 -33.55 -108.85 L-33.3 -116.0 Q-32.8 -120.1 -30.8 -126.4 -28.0 -135.3 -22.0 -141.3 M32.6 -45.15 L23.0 -45.35 Q10.75 -45.35 1.4 -37.9 L1.0 -37.65 Q-2.35 -35.95 -3.75 -34.55 L-3.85 -34.9 Q-0.2 -37.8 5.55 -41.3 L10.8 -44.25 10.85 -44.25 15.4 -45.8 19.65 -46.2 24.85 -46.1 32.6 -45.15 M33.95 -50.3 L37.5 -49.9 39.15 -49.5 Q40.55 -49.2 41.1 -48.7 L41.1 -48.0 40.85 -46.3 40.7 -45.35 39.3 -45.6 29.4 -46.4 21.25 -46.9 18.6 -47.1 14.75 -46.65 13.95 -46.15 Q4.2 -44.05 -4.1 -35.8 L-4.35 -36.5 -4.95 -38.0 -3.9 -39.2 -3.65 -39.45 -0.25 -41.7 0.0 -41.85 7.65 -46.5 Q15.35 -51.1 18.1 -52.05 L23.75 -51.35 29.55 -50.55 33.95 -50.3 M34.3 -116.45 L34.85 -116.15 35.25 -115.5 Q35.25 -114.45 36.75 -110.2 L37.2 -109.05 Q31.8 -111.0 25.0 -112.65 L19.35 -114.2 Q7.4 -117.05 -3.1 -116.05 -10.55 -115.35 -14.25 -110.4 L-16.35 -106.5 -17.7 -104.8 -18.4 -103.8 Q-19.1 -106.7 -20.95 -108.75 L-21.2 -109.05 -21.65 -109.5 -23.0 -110.5 -23.0 -110.6 -22.95 -110.6 -21.45 -111.4 -22.05 -112.5 -17.6 -117.9 -15.85 -119.6 Q-12.25 -122.55 -8.9 -123.75 L-6.8 -124.0 -3.5 -124.3 Q-0.25 -124.3 15.65 -120.35 31.55 -116.4 33.35 -116.4 L34.3 -116.45 M0.3 -115.15 L13.25 -113.65 24.25 -111.75 32.55 -109.15 Q36.15 -107.9 37.85 -107.5 L38.05 -107.0 Q33.9 -108.85 21.3 -111.15 3.2 -114.45 -3.35 -113.85 -7.15 -113.5 -9.65 -111.35 L-13.3 -107.4 -16.5 -103.75 -16.85 -103.3 -17.1 -103.75 Q-13.9 -107.05 -10.75 -111.6 -7.25 -115.15 0.3 -115.15 M-18.95 -58.15 Q-19.65 -58.3 -20.15 -58.7 L-20.6 -59.15 -20.4 -59.65 Q-20.8 -60.1 -21.05 -61.25 L-21.05 -61.3 -21.35 -60.8 -22.0 -63.25 -22.15 -62.95 -25.3 -72.2 -27.45 -78.45 -29.35 -84.15 -30.3 -87.25 -29.5 -87.25 -29.05 -87.25 Q-25.55 -87.35 -23.05 -89.45 L-22.65 -89.85 Q-22.45 -86.3 -19.5 -76.15 -16.6 -66.2 -15.6 -64.5 L-15.35 -64.85 -15.25 -65.2 -15.3 -63.65 -15.3 -63.5 -15.2 -62.05 -15.3 -61.35 -15.25 -61.0 -15.15 -60.4 -15.6 -60.35 -16.15 -60.2 Q-17.9 -59.7 -18.65 -58.15 L-18.95 -58.15 M-19.2 -76.3 Q-20.15 -79.4 -20.15 -80.15 -20.15 -81.55 -21.05 -86.3 L-21.9 -90.6 -21.6 -90.95 -21.2 -89.2 -20.55 -85.95 -18.8 -77.95 -16.75 -70.0 -16.6 -69.4 -18.0 -72.75 -19.2 -76.3 M-32.3 -87.75 L-32.45 -87.65 -34.0 -86.25 Q-36.2 -84.25 -38.6 -80.55 L-40.9 -76.65 Q-42.4 -74.3 -42.4 -73.55 L-42.5 -72.95 Q-44.15 -69.2 -44.15 -66.65 L-44.5 -64.5 -44.85 -64.75 -45.25 -65.05 -45.25 -65.1 -44.85 -67.1 -44.4 -69.15 -44.3 -70.25 -43.85 -70.95 -43.6 -71.7 Q-42.3 -75.8 -41.35 -77.5 -38.5 -82.45 -35.35 -86.35 L-33.55 -88.4 -32.3 -87.75 M-17.2 -49.25 L-17.25 -49.8 Q-17.25 -51.45 -16.6 -52.3 L-16.45 -52.3 -16.4 -52.3 Q-14.85 -52.3 -13.7 -53.4 L-13.45 -52.95 -13.5 -52.75 -12.95 -50.4 -13.05 -50.3 -12.75 -49.8 -12.4 -48.45 -12.35 -48.45 -9.3 -38.95 -8.95 -37.95 -9.05 -37.8 -9.25 -37.5 -9.85 -37.25 -11.0 -36.85 -12.1 -35.95 -12.3 -35.8 -12.65 -35.65 -12.95 -36.6 Q-15.15 -42.95 -16.65 -46.55 L-16.0 -46.7 -16.6 -48.3 -16.75 -48.65 -17.15 -49.15 -17.2 -49.25 M-46.35 -72.45 L-46.1 -71.8 -46.05 -71.95 -46.35 -72.45 M-12.75 -26.15 L-13.4 -27.95 -14.4 -31.2 -14.15 -31.6 -13.65 -30.6 -13.5 -30.3 -11.6 -26.85 -12.25 -25.7 -12.4 -25.25 -12.75 -26.15 M-6.75 -29.6 L-6.6 -29.8 -6.25 -30.1 -6.0 -28.15 -5.3 -17.95 -5.15 -17.4 -5.25 -15.9 -5.1 -15.95 -5.15 -15.25 -5.45 -14.7 Q-6.3 -13.1 -7.1 -13.1 -7.6 -13.1 -7.9 -13.4 L-8.2 -14.75 -7.9 -14.9 -8.0 -15.3 -7.95 -15.35 -8.2 -16.0 -8.25 -16.8 -8.3 -16.75 -8.4 -17.25 -9.0 -22.55 -9.65 -26.25 -9.0 -27.1 -6.75 -29.6" fill="#262626" fill-rule="evenodd" stroke="none"/>
      <path d="M-22.2 -98.4 L-22.2 -98.5 Q-21.65 -99.8 -21.65 -100.6 L-21.65 -101.1 Q-21.5 -102.25 -21.5 -103.65 L-21.8 -104.7 -22.05 -105.9 -22.2 -106.35 Q-21.1 -105.15 -20.7 -103.6 L-20.7 -103.8 -20.4 -103.8 -20.05 -103.0 -20.0 -102.5 -19.85 -100.9 -19.85 -100.65 -19.85 -100.55 -20.1 -99.3 -20.15 -99.4 -20.25 -99.45 -20.7 -99.45 -21.0 -99.35 -21.3 -99.2 -21.25 -99.65 -21.9 -99.0 -22.2 -98.4 M-28.1 -108.65 L-27.2 -108.7 Q-23.05 -107.9 -23.05 -101.75 -23.05 -99.55 -23.45 -97.8 L-24.9 -95.05 -26.05 -93.3 Q-27.85 -91.5 -30.7 -90.0 L-30.75 -90.0 Q-34.05 -90.3 -35.2 -92.85 -35.75 -94.1 -35.75 -96.4 -35.75 -102.15 -33.35 -105.45 -31.3 -108.3 -28.1 -108.65 M-26.1 -100.05 Q-26.1 -103.0 -29.05 -102.95 -32.0 -102.85 -32.0 -99.15 L-31.85 -97.8 Q-31.5 -97.0 -29.75 -96.25 L-28.1 -96.25 Q-27.3 -96.55 -26.65 -98.0 -26.1 -99.2 -26.1 -100.05 M-21.0 -57.15 L-20.5 -56.65 -19.05 -56.65 -19.15 -55.55 Q-19.15 -54.35 -18.95 -53.85 -18.65 -53.0 -17.9 -52.6 L-18.25 -52.0 -18.5 -50.0 -18.4 -48.65 Q-20.4 -49.1 -21.1 -50.95 -21.5 -52.0 -21.5 -54.15 L-21.35 -56.15 -21.15 -56.25 -21.05 -56.35 -21.0 -56.8 -21.05 -57.0 -21.0 -57.15 M-13.6 -61.15 L-13.4 -63.25 -13.4 -63.3 Q-12.55 -62.95 -11.8 -62.25 -10.0 -60.55 -10.0 -57.4 -10.25 -55.25 -11.25 -53.0 L-11.45 -52.55 -11.55 -52.65 -12.55 -53.25 -12.6 -53.6 -13.05 -53.55 -12.15 -54.3 -12.25 -55.85 -12.1 -56.9 Q-12.1 -59.35 -13.3 -60.1 L-13.6 -61.15 M-13.65 -34.8 L-13.6 -34.75 -13.55 -34.65 -13.55 -34.7 -13.15 -34.25 Q-12.75 -33.8 -12.2 -33.8 L-9.75 -35.1 Q-8.05 -36.05 -7.55 -36.55 L-7.7 -35.7 -7.5 -35.7 -6.95 -36.1 -6.9 -36.0 -6.45 -36.45 -5.65 -34.05 -5.1 -31.85 -6.1 -31.85 -6.15 -32.25 -8.2 -31.3 Q-9.9 -30.35 -9.9 -30.0 L-9.8 -29.5 -10.35 -28.25 -12.25 -31.9 -13.65 -34.8 M-9.85 -13.95 L-9.7 -14.15 -9.8 -13.55 -9.55 -13.75 -9.55 -13.5 -9.55 -12.25 -9.4 -11.75 Q-9.75 -10.95 -9.75 -9.35 -9.75 -8.7 -9.35 -7.85 -8.7 -6.45 -7.4 -6.45 -5.9 -6.45 -5.15 -8.2 -4.6 -9.4 -4.6 -10.45 -4.6 -11.6 -5.3 -12.5 -4.75 -13.1 -4.4 -14.0 L-3.9 -15.75 Q-3.3 -15.0 -2.85 -13.75 -2.3 -12.2 -2.3 -10.9 -2.3 -9.7 -3.25 -7.65 -4.6 -4.75 -6.7 -4.75 -7.5 -4.75 -8.8 -5.75 -10.15 -6.75 -10.15 -7.45 L-10.5 -9.2 -10.9 -10.9 Q-10.9 -12.15 -9.85 -13.95" fill="#3a5675" fill-rule="evenodd" stroke="none"/>
      <path d="M-22.2 -98.4 L-21.9 -99.0 -21.25 -99.65 -21.3 -99.2 -21.0 -99.35 -20.7 -99.45 -20.25 -99.45 -20.15 -99.4 -20.1 -99.3 -20.0 -99.1 -20.0 -98.9 Q-20.0 -97.65 -20.5 -96.35 -21.15 -95.15 -22.25 -93.85 L-22.45 -93.55 -22.6 -93.4 Q-24.0 -91.9 -25.65 -90.85 L-27.5 -89.8 -27.6 -89.75 -27.8 -89.9 -27.45 -90.3 -26.45 -91.4 -25.1 -93.1 Q-22.35 -96.55 -22.35 -97.35 L-22.2 -98.4" fill="#2c3759" fill-rule="evenodd" stroke="none"/>
      <path d="M5.55 -149.65 Q5.55 -149.0 3.8 -147.85 L1.9 -146.8 0.8 -146.85 -0.25 -145.95 Q4.65 -143.8 11.0 -136.5 L17.65 -127.8 16.65 -130.85 14.6 -137.3 12.4 -143.45 Q10.65 -148.6 10.65 -149.15 L11.1 -151.95 11.55 -154.75 11.6 -155.05 9.75 -154.6 8.95 -153.9 8.6 -153.55 8.25 -153.2 5.55 -149.65 M13.4 -155.7 L13.05 -155.55 13.05 -155.25 13.4 -155.7 M13.5 -159.3 L13.6 -159.15 13.75 -159.3 14.5 -158.7 Q16.65 -158.3 18.75 -156.5 L21.8 -153.25 25.0 -150.55 24.8 -150.25 23.7 -150.85 23.55 -150.5 24.6 -150.0 23.85 -149.75 23.9 -149.7 24.0 -149.65 24.2 -149.4 24.75 -148.7 Q25.25 -148.55 24.35 -148.55 L24.0 -148.6 23.35 -147.05 Q22.45 -145.25 22.45 -144.7 22.45 -143.1 23.15 -138.9 L23.85 -134.4 23.25 -131.05 22.65 -128.5 22.05 -127.1 21.4 -125.85 20.65 -124.65 19.55 -123.6 18.95 -123.6 Q18.8 -123.6 18.75 -123.7 L18.7 -123.7 15.65 -127.35 8.15 -134.65 -2.5 -145.9 -2.3 -146.65 -1.7 -146.5 -1.5 -146.7 -1.5 -146.75 0.2 -148.15 Q0.45 -149.4 5.3 -153.85 9.7 -157.8 11.3 -158.55 12.4 -159.2 13.5 -159.3 M13.7 -149.8 L15.2 -144.5 17.9 -138.8 Q20.55 -133.3 20.55 -130.55 L20.4 -127.6 Q21.65 -130.75 21.65 -133.9 L20.9 -141.3 Q20.9 -144.65 21.15 -145.85 21.55 -147.65 22.75 -149.0 L20.45 -150.2 Q17.6 -151.8 17.6 -152.45 L17.45 -152.75 14.75 -154.95 14.4 -153.7 Q13.7 -151.75 13.7 -149.8" fill="#111111" fill-rule="evenodd" stroke="none"/>
      <path d="M13.4 -155.7 L13.05 -155.25 13.05 -155.55 13.4 -155.7" fill="#332a21" fill-rule="evenodd" stroke="none"/>
      <path d="M5.55 -149.65 L8.25 -153.2 8.6 -153.55 8.95 -153.9 9.75 -154.6 11.6 -155.05 11.55 -154.75 11.1 -151.95 10.65 -149.15 Q10.65 -148.6 12.4 -143.45 L14.6 -137.3 16.65 -130.85 17.65 -127.8 11.0 -136.5 Q4.65 -143.8 -0.25 -145.95 L0.8 -146.85 1.9 -146.8 3.8 -147.85 Q5.55 -149.0 5.55 -149.65 M13.7 -149.8 Q13.7 -151.75 14.4 -153.7 L14.75 -154.95 17.45 -152.75 17.6 -152.45 Q17.6 -151.8 20.45 -150.2 L22.75 -149.0 Q21.55 -147.65 21.15 -145.85 20.9 -144.65 20.9 -141.3 L21.65 -133.9 Q21.65 -130.75 20.4 -127.6 L20.55 -130.55 Q20.55 -133.3 17.9 -138.8 L15.2 -144.5 13.7 -149.8" fill="#15151a" fill-rule="evenodd" stroke="none"/>
    </g>
  </defs>
</svg>
