<?xml version="1.0" encoding="UTF-8" standalone="no"?>
<svg xmlns:ffdec="https://www.free-decompiler.com/flash" xmlns:xlink="http://www.w3.org/1999/xlink" ffdec:objectType="frame" height="39.3px" width="285.1px" xmlns="http://www.w3.org/2000/svg">
  <g transform="matrix(1.0, 0.0, 0.0, 1.0, 5.6, 6.6)">
    <filter id="filter21">
      <feColorMatrix in="SourceGraphic" result="filterResult3" type="matrix" values="1.0 0.0 0.0 0.0 0.0 0.0 1.0 0.0 0.0 0.0 0.0 0.0 1.0 0.0 0.0 0.0 0.0 0.0 1.0 0.0"/>
    </filter>
    <use ffdec:characterId="2284" filter="url(#filter21)" height="22.45" id="am_Notice" transform="matrix(1.0, 0.0, 0.0, 1.0, -0.5, -1.0)" width="280.0" xlink:href="#sprite0"/>
    <use ffdec:characterId="127" height="41.95" transform="matrix(0.7144, 0.0, 0.0, 0.7144, -1.8, -3.2)" width="41.95" xlink:href="#sprite1"/>
  </g>
  <defs>
    <g id="sprite0" transform="matrix(1.0, 0.0, 0.0, 1.0, -3.5, -2.55)">
      <use ffdec:characterId="2282" height="22.0" transform="matrix(1.0, 0.0, 0.0, 1.0, 3.5, 3.0)" width="280.0" xlink:href="#shape0"/>
      <filter id="filter20">
        <feColorMatrix in="SourceGraphic" result="filterResult0" type="matrix" values="0 0 0 0 0.0,0 0 0 0 0.24313726,0 0 0 0 0.2901961,0 0 0 1 0"/>
        <feConvolveMatrix divisor="16.0" in="filterResult0" kernelMatrix="1 1 1 1 1 1 1 1 1 1 1 1 1 1 1 1" order="4 4" result="filterResult1"/>
        <feComposite in="SourceGraphic" in2="filterResult1" operator="over" result="filterResult2"/>
      </filter>
      <use ffdec:characterId="2283" filter="url(#filter20)" height="21.65" id="am_Text" transform="matrix(1.0, 0.0, 0.0, 1.0, 28.35, 2.55)" width="253.6" xlink:href="#text0"/>
    </g>
    <g id="shape0" transform="matrix(1.0, 0.0, 0.0, 1.0, -3.5, -3.0)">
      <path d="M283.5 10.9 L283.5 15.6 Q283.4 22.95 277.35 24.55 L277.35 25.0 13.5 25.0 Q3.65 25.0 3.5 15.6 L3.5 10.9 3.6 10.9 Q4.45 3.0 13.5 3.0 L277.35 3.0 277.35 3.45 Q282.75 4.9 283.4 10.9 L283.5 10.9" fill="#5c4d2c" fill-opacity="0.4627451" fill-rule="evenodd" stroke="none"/>
    </g>
    <g id="text0" transform="matrix(1.0, 0.0, 0.0, 1.0, 2.0, 2.0)">
      <g transform="matrix(1.0, 0.0, 0.0, 1.0, -2.0, -2.0)">
        <use fill="#00ccff" fill-opacity="0.61960787" height="21.65" transform="matrix(0.0146, 0.0, 0.0, 0.0146, 0.0, 14.45)" width="253.6" xlink:href="#font_HelveticaRounded_LT_Std_Bd_R0"/>
        <use fill="#00ccff" fill-opacity="0.61960787" height="21.65" transform="matrix(0.0146, 0.0, 0.0, 0.0146, 11.1, 14.45)" width="253.6" xlink:href="#font_HelveticaRounded_LT_Std_Bd_e0"/>
        <use fill="#00ccff" fill-opacity="0.61960787" height="21.65" transform="matrix(0.0146, 0.0, 0.0, 0.0146, 20.3, 14.45)" width="253.6" xlink:href="#font_HelveticaRounded_LT_Std_Bd_q0"/>
        <use fill="#00ccff" fill-opacity="0.61960787" height="21.65" transform="matrix(0.0146, 0.0, 0.0, 0.0146, 29.45, 14.45)" width="253.6" xlink:href="#font_HelveticaRounded_LT_Std_Bd_u0"/>
        <use fill="#00ccff" fill-opacity="0.61960787" height="21.65" transform="matrix(0.0146, 0.0, 0.0, 0.0146, 38.6, 14.45)" width="253.6" xlink:href="#font_HelveticaRounded_LT_Std_Bd_i0"/>
        <use fill="#00ccff" fill-opacity="0.61960787" height="21.65" transform="matrix(0.0146, 0.0, 0.0, 0.0146, 42.75, 14.45)" width="253.6" xlink:href="#font_HelveticaRounded_LT_Std_Bd_r0"/>
        <use fill="#00ccff" fill-opacity="0.61960787" height="21.65" transform="matrix(0.0146, 0.0, 0.0, 0.0146, 48.85, 14.45)" width="253.6" xlink:href="#font_HelveticaRounded_LT_Std_Bd_e0"/>
        <use fill="#00ccff" fill-opacity="0.61960787" height="21.65" transform="matrix(0.0146, 0.0, 0.0, 0.0146, 58.05, 14.45)" width="253.6" xlink:href="#font_HelveticaRounded_LT_Std_Bd_s0"/>
        <use fill="#00ccff" fill-opacity="0.61960787" height="21.65" transform="matrix(0.0146, 0.0, 0.0, 0.0146, 66.1, 14.45)" width="253.6" xlink:href="#font_HelveticaRounded_LT_Std_Bd_:0"/>
      </g>
      <g transform="matrix(1.0, 0.0, 0.0, 1.0, -2.0, -2.0)">
        <use fill="#00ccff" fill-opacity="0.61960787" height="21.65" transform="matrix(0.0146, 0.0, 0.0, 0.0146, 75.3, 14.45)" width="253.6" xlink:href="#font_HelveticaRounded_LT_Std_Bd_T0"/>
        <use fill="#00ccff" fill-opacity="0.61960787" height="21.65" transform="matrix(0.0146, 0.0, 0.0, 0.0146, 85.3, 14.45)" width="253.6" xlink:href="#font_HelveticaRounded_LT_Std_Bd_o0"/>
        <use fill="#00ccff" fill-opacity="0.61960787" height="21.65" transform="matrix(0.0146, 0.0, 0.0, 0.0146, 94.5, 14.45)" width="253.6" xlink:href="#font_HelveticaRounded_LT_Std_Bd_m0"/>
        <use fill="#00ccff" fill-opacity="0.61960787" height="21.65" transform="matrix(0.0146, 0.0, 0.0, 0.0146, 108.4, 14.45)" width="253.6" xlink:href="#font_HelveticaRounded_LT_Std_Bd_e0"/>
      </g>
      <g transform="matrix(1.0, 0.0, 0.0, 1.0, -2.0, -2.0)">
        <use fill="#00ccff" fill-opacity="0.61960787" height="21.65" transform="matrix(0.0146, 0.0, 0.0, 0.0146, 122.2, 14.45)" width="253.6" xlink:href="#font_HelveticaRounded_LT_Std_Bd_L0"/>
        <use fill="#00ccff" fill-opacity="0.61960787" height="21.65" transform="matrix(0.0146, 0.0, 0.0, 0.0146, 131.35, 14.45)" width="253.6" xlink:href="#font_HelveticaRounded_LT_Std_Bd_e0"/>
        <use fill="#00ccff" fill-opacity="0.61960787" height="21.65" transform="matrix(0.0146, 0.0, 0.0, 0.0146, 140.55, 14.45)" width="253.6" xlink:href="#font_HelveticaRounded_LT_Std_Bd_v0"/>
        <use fill="#00ccff" fill-opacity="0.61960787" height="21.65" transform="matrix(0.0146, 0.0, 0.0, 0.0146, 148.05, 14.45)" width="253.6" xlink:href="#font_HelveticaRounded_LT_Std_Bd_e0"/>
        <use fill="#00ccff" fill-opacity="0.61960787" height="21.65" transform="matrix(0.0146, 0.0, 0.0, 0.0146, 157.25, 14.45)" width="253.6" xlink:href="#font_HelveticaRounded_LT_Std_Bd_l0"/>
      </g>
      <g transform="matrix(1.0, 0.0, 0.0, 1.0, -2.0, -2.0)">
        <use fill="#00ccff" fill-opacity="0.61960787" height="21.65" transform="matrix(0.0146, 0.0, 0.0, 0.0146, 166.0, 14.45)" width="253.6" xlink:href="#font_HelveticaRounded_LT_Std_Bd_10"/>
        <use fill="#00ccff" fill-opacity="0.61960787" height="21.65" transform="matrix(0.0146, 0.0, 0.0, 0.0146, 172.1, 14.45)" width="253.6" xlink:href="#font_HelveticaRounded_LT_Std_Bd_00"/>
      </g>
    </g>
    <g id="font_HelveticaRounded_LT_Std_Bd_R0">
      <path d="M246.0 -608.5 L246.0 -410.0 413.5 -410.0 Q446.0 -409.5 475.0 -417.5 503.5 -425.0 521.5 -446.5 540.0 -468.0 540.5 -509.0 540.0 -567.0 507.5 -588.5 475.0 -609.5 419.0 -608.5 L246.0 -608.5 M78.0 -70.5 L78.0 -639.0 Q78.5 -694.5 105.0 -716.5 131.0 -738.5 176.5 -737.5 L455.5 -737.5 Q554.5 -736.5 610.0 -705.5 665.0 -675.0 687.5 -628.0 709.5 -581.5 708.5 -533.0 708.5 -492.5 693.5 -455.5 678.5 -418.5 650.0 -392.0 621.5 -365.5 581.5 -355.5 L581.5 -353.5 Q624.0 -347.0 646.0 -326.0 668.0 -305.0 676.0 -273.5 683.5 -242.0 683.0 -204.0 683.5 -162.0 689.0 -134.5 694.0 -107.0 699.5 -88.0 705.0 -69.0 705.5 -52.0 705.0 -32.5 693.5 -18.0 682.5 -3.0 664.5 5.0 646.5 13.5 626.5 13.5 592.5 13.0 572.5 -1.0 552.5 -15.0 542.5 -35.0 533.0 -55.0 530.0 -74.5 527.0 -94.0 527.5 -105.5 528.0 -170.0 518.0 -210.0 508.0 -250.0 482.5 -268.5 457.5 -287.5 411.5 -287.0 L246.0 -287.0 246.0 -70.5 Q245.5 -32.5 223.0 -9.5 201.0 13.0 162.0 13.5 123.0 13.0 101.0 -9.5 78.5 -32.5 78.0 -70.5" fill-rule="evenodd" stroke="none"/>
    </g>
    <g id="font_HelveticaRounded_LT_Std_Bd_e0">
      <path d="M186.5 -325.5 L448.5 -325.5 Q441.5 -378.0 407.5 -411.0 373.5 -443.5 322.5 -444.5 266.5 -444.0 232.5 -412.5 198.5 -380.5 186.5 -325.5 M524.5 -239.5 L186.5 -239.5 Q187.0 -179.0 223.0 -141.5 259.0 -104.0 324.5 -103.0 366.0 -103.5 390.5 -114.5 415.0 -125.5 431.0 -140.0 446.5 -154.5 461.0 -165.5 476.0 -176.5 497.5 -177.0 525.0 -176.0 542.0 -158.0 558.5 -140.0 559.0 -118.5 558.5 -84.5 535.0 -60.0 512.0 -35.0 475.5 -18.5 439.5 -2.5 399.5 5.5 359.5 13.5 324.5 13.5 246.5 13.0 191.5 -10.5 136.5 -34.0 102.5 -73.5 68.5 -112.5 52.5 -160.5 37.0 -208.5 37.0 -258.0 37.5 -345.5 71.0 -411.0 104.5 -476.0 167.5 -512.0 230.5 -548.5 319.5 -549.0 406.0 -548.0 466.0 -513.0 526.5 -478.0 558.0 -422.0 589.5 -366.5 590.0 -304.0 590.5 -266.5 576.0 -252.5 561.5 -239.0 524.5 -239.5" fill-rule="evenodd" stroke="none"/>
    </g>
    <g id="font_HelveticaRounded_LT_Std_Bd_q0">
      <path d="M186.5 -269.5 Q186.0 -233.0 196.0 -195.0 206.0 -157.0 232.0 -130.5 258.0 -104.0 305.5 -103.0 350.5 -103.5 377.0 -128.5 403.5 -153.5 414.5 -191.5 425.5 -230.0 425.0 -269.5 425.5 -312.5 413.5 -349.5 401.5 -386.5 375.0 -409.0 348.5 -432.0 305.5 -432.5 265.5 -431.0 239.0 -409.0 212.5 -387.0 199.5 -350.5 186.5 -314.0 186.5 -269.5 M566.5 -478.5 L566.5 137.5 Q566.0 174.0 546.0 193.0 526.0 212.0 492.0 212.0 457.5 212.0 437.5 193.0 417.5 174.0 417.0 137.5 L417.0 -62.0 415.0 -62.0 Q394.0 -26.0 356.5 -6.5 319.0 13.0 267.5 13.5 188.5 12.5 137.5 -26.5 86.5 -65.5 61.5 -128.5 37.0 -191.0 37.0 -264.0 38.0 -361.0 70.0 -424.0 102.0 -487.5 155.0 -518.0 208.0 -549.0 271.5 -549.0 327.0 -549.0 368.5 -525.5 410.0 -502.5 429.5 -455.0 L431.5 -455.0 431.5 -478.5 Q431.5 -513.0 448.5 -531.0 466.0 -549.0 499.0 -549.0 533.5 -549.0 550.0 -531.0 566.5 -513.0 566.5 -478.5" fill-rule="evenodd" stroke="none"/>
    </g>
    <g id="font_HelveticaRounded_LT_Std_Bd_u0">
      <path d="M566.5 -474.0 L566.5 -61.5 Q566.5 -27.0 550.5 -7.0 534.0 13.0 499.0 13.5 464.0 13.0 447.5 -7.0 431.0 -27.0 431.5 -61.5 L431.5 -81.0 429.5 -81.0 Q398.5 -38.5 355.0 -13.0 311.0 12.5 248.0 13.5 202.0 14.0 159.0 -4.0 116.0 -21.5 88.5 -65.0 60.5 -108.0 59.5 -183.0 L59.5 -474.0 Q58.5 -505.0 75.0 -526.5 91.5 -548.0 134.5 -549.0 177.0 -548.0 193.5 -526.5 210.0 -505.0 209.0 -474.0 L209.0 -213.0 Q209.0 -167.0 232.0 -138.5 255.0 -110.0 303.5 -109.5 330.0 -109.5 356.0 -123.5 382.0 -137.0 399.0 -163.5 416.5 -190.0 417.0 -227.5 L417.0 -474.0 Q416.0 -505.0 432.5 -526.5 449.0 -548.0 492.0 -549.0 534.5 -548.0 551.0 -526.5 567.5 -505.0 566.5 -474.0" fill-rule="evenodd" stroke="none"/>
    </g>
    <g id="font_HelveticaRounded_LT_Std_Bd_i0">
      <path d="M64.5 -677.5 Q65.5 -710.5 87.5 -732.0 109.0 -754.0 142.0 -755.0 175.5 -754.0 197.0 -732.0 219.0 -710.5 220.0 -677.5 219.0 -644.0 197.0 -622.5 175.5 -600.5 142.0 -599.5 109.0 -600.5 87.5 -622.5 65.5 -644.0 64.5 -677.5 M67.5 -61.5 L67.5 -474.0 Q66.5 -505.0 83.0 -526.5 99.5 -548.0 142.5 -549.0 185.0 -548.0 201.5 -526.5 218.0 -505.0 217.0 -474.0 L217.0 -61.5 Q218.0 -30.5 201.5 -9.0 185.0 12.5 142.5 13.5 99.5 12.5 83.0 -9.0 66.5 -30.5 67.5 -61.5" fill-rule="evenodd" stroke="none"/>
    </g>
    <g id="font_HelveticaRounded_LT_Std_Bd_r0">
      <path d="M67.5 -61.5 L67.5 -479.5 Q68.0 -513.5 87.0 -531.0 106.0 -549.0 135.0 -549.0 164.0 -549.0 183.0 -531.0 202.0 -513.5 202.5 -479.5 L202.5 -422.0 204.5 -422.0 Q213.0 -454.0 228.5 -482.5 243.5 -511.5 268.0 -530.0 292.5 -548.5 328.5 -549.0 364.5 -548.5 387.0 -528.5 410.0 -508.5 410.5 -476.5 409.5 -435.5 387.5 -418.0 365.5 -401.0 337.0 -401.5 L310.0 -401.5 Q264.5 -403.0 241.0 -365.0 217.0 -327.5 217.0 -235.5 L217.0 -61.5 Q218.0 -30.5 201.5 -9.0 185.0 12.5 142.5 13.5 99.5 12.5 83.0 -9.0 66.5 -30.5 67.5 -61.5" fill-rule="evenodd" stroke="none"/>
    </g>
    <g id="font_HelveticaRounded_LT_Std_Bd_s0">
      <path d="M36.0 -382.0 Q36.5 -427.5 56.5 -459.5 76.5 -491.5 109.5 -511.0 142.0 -531.0 181.5 -540.0 221.0 -549.0 260.0 -549.0 318.0 -549.0 370.0 -535.0 421.5 -521.0 454.5 -495.5 487.5 -470.0 488.5 -435.5 488.0 -408.5 471.5 -389.5 455.5 -370.5 426.0 -370.0 404.5 -370.5 390.5 -380.5 376.0 -391.0 362.0 -404.0 348.0 -417.5 327.0 -428.0 306.0 -438.0 271.5 -438.5 232.0 -438.5 209.0 -427.5 186.0 -416.0 185.5 -392.5 186.0 -367.0 208.0 -356.5 230.0 -346.0 265.5 -339.0 L327.5 -324.5 Q371.5 -315.5 413.5 -298.0 456.0 -280.0 484.5 -248.5 513.0 -216.5 514.0 -165.0 513.0 -104.0 479.5 -64.5 445.5 -25.0 393.5 -5.5 341.0 13.5 283.5 13.5 215.5 13.0 159.5 -5.0 103.5 -23.0 70.0 -53.0 37.0 -83.5 36.0 -120.5 36.0 -146.0 50.5 -164.5 65.0 -182.5 96.5 -183.0 120.0 -182.5 136.5 -169.0 153.0 -155.0 169.5 -137.0 186.5 -119.0 211.5 -105.5 237.0 -91.5 277.5 -91.0 318.0 -91.5 341.0 -106.5 364.0 -121.5 364.5 -145.5 364.0 -172.5 341.5 -183.0 319.0 -194.0 278.5 -202.5 L190.5 -224.5 Q146.5 -234.5 112.0 -252.5 77.0 -270.5 57.0 -301.5 36.5 -332.5 36.0 -382.0" fill-rule="evenodd" stroke="none"/>
    </g>
    <g id="font_HelveticaRounded_LT_Std_Bd_:0">
      <path d="M72.5 -76.5 Q73.5 -112.0 97.0 -136.0 121.0 -159.5 156.5 -160.5 192.0 -159.5 216.0 -136.0 239.5 -112.0 240.5 -76.5 239.5 -41.0 216.0 -17.0 192.0 6.5 156.5 7.5 121.0 6.5 97.0 -17.0 73.5 -41.0 72.5 -76.5 M72.5 -451.5 Q73.5 -487.0 97.0 -511.0 121.0 -534.5 156.5 -535.5 192.0 -534.5 216.0 -511.0 239.5 -487.0 240.5 -451.5 239.5 -416.0 216.0 -392.0 192.0 -368.5 156.5 -367.5 121.0 -368.5 97.0 -392.0 73.5 -416.0 72.5 -451.5" fill-rule="evenodd" stroke="none"/>
    </g>
    <g id="font_HelveticaRounded_LT_Std_Bd_T0">
      <path d="M258.0 -70.5 L258.0 -596.0 99.5 -596.0 Q62.5 -596.0 37.5 -614.0 13.0 -632.0 12.5 -667.0 13.0 -701.5 37.5 -719.5 62.5 -737.5 99.5 -737.5 L584.5 -737.5 Q621.5 -737.5 646.5 -719.5 671.0 -701.5 671.5 -667.0 671.0 -632.0 646.5 -614.0 621.5 -596.0 584.5 -596.0 L426.0 -596.0 426.0 -70.5 Q425.5 -32.5 403.0 -9.5 381.0 13.0 342.0 13.5 303.0 13.0 281.0 -9.5 258.5 -32.5 258.0 -70.5" fill-rule="evenodd" stroke="none"/>
    </g>
    <g id="font_HelveticaRounded_LT_Std_Bd_o0">
      <path d="M37.0 -268.5 Q37.0 -348.0 68.5 -411.0 100.0 -474.5 161.5 -511.5 223.5 -548.0 313.5 -549.0 403.5 -548.0 465.5 -511.5 527.0 -474.5 558.5 -411.0 590.0 -348.0 590.0 -268.5 590.5 -192.5 563.5 -128.5 536.5 -65.0 476.0 -26.5 415.0 12.5 313.5 13.5 212.0 12.5 151.0 -26.5 90.5 -65.0 63.5 -128.5 36.5 -192.5 37.0 -268.5 M186.5 -268.5 Q186.5 -222.0 199.5 -183.5 213.0 -144.5 241.0 -121.0 269.0 -97.5 313.5 -97.0 358.0 -97.5 386.0 -121.0 414.0 -144.5 427.5 -183.5 440.5 -222.0 440.5 -268.5 440.5 -317.5 427.0 -355.5 413.5 -394.0 385.0 -416.0 357.0 -438.0 313.5 -438.5 270.0 -438.0 242.0 -416.0 213.5 -394.0 200.0 -355.5 186.5 -317.5 186.5 -268.5" fill-rule="evenodd" stroke="none"/>
    </g>
    <g id="font_HelveticaRounded_LT_Std_Bd_m0">
      <path d="M59.5 -61.5 L59.5 -474.0 Q60.0 -508.5 78.5 -528.5 97.0 -548.5 130.0 -549.0 163.5 -548.5 182.0 -528.5 200.5 -508.5 201.0 -474.0 L201.0 -454.5 203.0 -454.5 Q232.5 -499.5 279.0 -524.0 326.0 -548.5 383.0 -549.0 409.0 -549.0 437.0 -540.0 464.5 -531.5 488.5 -510.5 512.0 -490.0 526.5 -454.5 557.5 -499.0 600.0 -523.5 642.5 -548.5 702.5 -549.0 755.0 -549.5 797.0 -532.0 839.0 -514.0 863.5 -474.5 888.5 -434.5 889.0 -367.5 L889.0 -61.5 Q890.0 -30.5 873.5 -9.0 857.0 12.5 814.5 13.5 771.5 12.5 755.0 -9.0 738.5 -30.5 739.5 -61.5 L739.5 -330.0 Q740.0 -370.5 720.5 -398.0 701.0 -425.0 657.5 -426.0 628.5 -426.0 604.0 -411.5 579.5 -397.0 564.5 -371.5 549.5 -345.5 549.0 -310.5 L549.0 -61.5 Q550.0 -30.5 533.5 -9.0 517.0 12.5 474.5 13.5 431.5 12.5 415.0 -9.0 398.5 -30.5 399.5 -61.5 L399.5 -330.0 Q400.0 -370.5 380.5 -398.0 361.0 -425.0 317.5 -426.0 288.5 -426.0 264.0 -411.5 239.5 -397.0 224.5 -371.5 209.5 -345.5 209.0 -310.5 L209.0 -61.5 Q210.0 -30.5 193.5 -9.0 177.0 12.5 134.5 13.5 91.5 12.5 75.0 -9.0 58.5 -30.5 59.5 -61.5" fill-rule="evenodd" stroke="none"/>
    </g>
    <g id="font_HelveticaRounded_LT_Std_Bd_L0">
      <path d="M78.0 -98.5 L78.0 -667.0 Q78.5 -705.0 101.0 -728.0 123.0 -750.5 162.0 -751.0 201.0 -750.5 223.0 -728.0 245.5 -705.0 246.0 -667.0 L246.0 -141.5 526.5 -141.5 Q563.5 -141.5 588.0 -123.5 612.5 -105.5 613.5 -71.0 612.5 -36.0 588.0 -18.0 563.5 0.0 526.5 0.0 L176.5 0.0 Q131.0 1.0 105.0 -21.0 78.5 -43.0 78.0 -98.5" fill-rule="evenodd" stroke="none"/>
    </g>
    <g id="font_HelveticaRounded_LT_Std_Bd_v0">
      <path d="M158.0 -40.0 L16.5 -433.0 Q13.5 -443.0 10.5 -453.5 7.5 -464.0 7.5 -471.0 8.5 -511.0 30.5 -530.0 52.0 -549.0 80.0 -549.0 108.0 -548.0 123.5 -536.0 139.5 -524.0 146.0 -509.5 153.0 -495.0 155.0 -486.5 L255.0 -148.5 257.5 -148.5 357.5 -486.5 Q359.5 -495.0 366.5 -509.5 373.0 -524.0 389.0 -536.0 404.5 -548.0 432.5 -549.0 460.5 -549.0 482.0 -530.0 504.0 -511.0 505.0 -471.0 505.0 -464.0 502.0 -453.5 499.0 -443.0 496.0 -433.0 L354.5 -40.0 Q348.0 -20.0 339.5 -8.0 330.5 3.5 311.5 8.5 293.0 13.5 256.0 13.5 219.5 13.5 201.0 8.5 182.0 3.5 173.0 -8.0 164.5 -20.0 158.0 -40.0" fill-rule="evenodd" stroke="none"/>
    </g>
    <g id="font_HelveticaRounded_LT_Std_Bd_l0">
      <path d="M67.5 -61.5 L67.5 -676.0 Q68.0 -713.0 88.0 -732.0 108.0 -751.0 142.5 -751.0 176.5 -751.0 196.5 -732.0 216.5 -713.0 217.0 -676.0 L217.0 -61.5 Q216.5 -24.5 196.5 -5.5 176.5 13.5 142.5 13.5 108.0 13.5 88.0 -5.5 68.0 -24.5 67.5 -61.5" fill-rule="evenodd" stroke="none"/>
    </g>
    <g id="font_HelveticaRounded_LT_Std_Bd_10">
      <path d="M175.0 -76.5 L175.0 -466.0 43.0 -466.0 Q17.5 -465.5 4.0 -477.5 -9.0 -489.5 -9.5 -520.5 -9.5 -548.0 7.5 -560.0 25.0 -572.0 64.5 -579.0 L102.5 -587.0 Q144.0 -597.0 164.5 -619.5 185.0 -642.0 196.5 -667.0 208.5 -692.0 224.0 -710.0 239.5 -727.5 271.0 -728.5 296.5 -729.5 313.0 -714.5 330.0 -699.5 330.5 -659.0 L330.5 -76.5 Q331.0 -36.0 313.0 -11.5 295.0 13.0 253.0 13.5 210.5 13.0 192.5 -11.5 174.5 -36.0 175.0 -76.5" fill-rule="evenodd" stroke="none"/>
    </g>
    <g id="font_HelveticaRounded_LT_Std_Bd_00">
      <path d="M40.0 -366.5 Q40.5 -487.5 74.0 -568.0 107.5 -648.5 169.0 -688.5 230.0 -728.5 313.5 -728.5 397.0 -728.5 458.0 -688.5 519.5 -648.5 553.0 -568.0 586.5 -487.5 587.0 -366.5 587.5 -298.0 574.5 -231.0 562.0 -163.5 531.5 -108.5 500.5 -53.5 447.5 -20.5 394.0 12.5 313.5 13.5 233.0 12.5 179.5 -20.5 126.5 -53.5 95.5 -108.5 65.0 -163.5 52.5 -231.0 39.5 -298.0 40.0 -366.5 M189.5 -357.5 Q189.5 -266.5 204.0 -211.5 218.5 -157.0 246.5 -133.0 274.0 -109.0 313.5 -109.5 353.0 -109.0 380.5 -133.0 408.5 -157.0 423.0 -211.5 437.5 -266.5 437.5 -357.5 438.0 -474.0 409.5 -539.0 380.5 -604.5 313.5 -605.5 246.5 -604.5 217.5 -539.0 189.0 -474.0 189.5 -357.5" fill-rule="evenodd" stroke="none"/>
    </g>
    <g id="sprite1" transform="matrix(1.0, 0.0, 0.0, 1.0, 0.0, 0.0)">
      <use ffdec:characterId="126" height="41.95" transform="matrix(1.0, 0.0, 0.0, 1.0, 0.0, 0.0)" width="41.95" xlink:href="#shape1"/>
    </g>
    <g id="shape1" transform="matrix(1.0, 0.0, 0.0, 1.0, 0.0, 0.0)">
      <path d="M35.8 6.1 Q41.95 12.25 41.95 20.95 41.95 29.7 35.8 35.8 29.7 41.95 20.95 41.95 12.25 41.95 6.1 35.8 0.0 29.7 0.0 20.95 0.0 12.25 6.1 6.1 12.25 0.0 20.95 0.0 29.7 0.0 35.8 6.1 M33.7 8.25 Q28.45 3.0 20.95 3.0 13.5 3.0 8.25 8.2 L8.2 8.25 Q3.0 13.5 3.0 20.95 3.0 28.45 8.25 33.7 13.5 38.95 20.95 38.95 28.45 38.95 33.7 33.7 38.95 28.45 38.95 20.95 38.95 13.5 33.7 8.25" fill="#00647d" fill-opacity="0.49803922" fill-rule="evenodd" stroke="none"/>
      <path d="M33.7 8.25 Q38.95 13.5 38.95 20.95 38.95 28.45 33.7 33.7 28.45 38.95 20.95 38.95 13.5 38.95 8.25 33.7 3.0 28.45 3.0 20.95 3.0 13.5 8.2 8.25 L8.25 8.2 Q13.5 3.0 20.95 3.0 28.45 3.0 33.7 8.25 M31.9 10.0 Q27.4 5.5 20.95 5.5 14.6 5.5 10.1 9.9 L10.0 10.0 9.9 10.1 Q5.5 14.6 5.5 20.95 5.5 27.4 10.0 31.9 14.55 36.45 20.95 36.45 27.35 36.45 31.8 32.05 L31.9 31.95 31.95 31.9 32.05 31.8 Q36.45 27.35 36.45 20.95 36.45 14.55 31.9 10.0" fill="url(#gradient0)" fill-rule="evenodd" stroke="none"/>
      <path d="M31.9 10.0 Q36.45 14.55 36.45 20.95 36.45 27.35 32.05 31.8 L31.95 31.9 31.9 31.95 31.8 32.05 Q27.35 36.45 20.95 36.45 14.55 36.45 10.0 31.9 5.5 27.4 5.5 20.95 5.5 14.6 9.9 10.1 L10.0 10.0 10.1 9.9 Q14.6 5.5 20.95 5.5 27.4 5.5 31.9 10.0" fill="url(#gradient1)" fill-rule="evenodd" stroke="none"/>
      <path d="M18.55 33.3 Q17.65 32.5 17.55 31.25 17.65 29.9 18.55 29.15 19.6 28.25 20.9 28.25 22.35 28.25 23.35 29.15 24.15 29.9 24.15 31.25 24.15 32.5 23.35 33.3 22.35 34.25 20.9 34.25 19.6 34.25 18.55 33.3 M20.9 7.45 Q22.5 7.45 23.35 8.05 24.1 8.75 24.1 10.1 L24.1 14.35 24.1 15.2 23.95 16.1 22.7 24.6 22.1 25.65 20.9 25.95 19.7 25.65 Q19.25 25.35 19.15 24.6 L17.85 16.1 17.85 15.2 17.65 14.35 17.65 10.1 Q17.65 8.75 18.55 8.05 19.4 7.45 20.9 7.45" fill="#ffffff" fill-opacity="0.49803922" fill-rule="evenodd" stroke="none"/>
    </g>
    <linearGradient gradientTransform="matrix(0.0, 0.0219, -0.0219, 0.0, 20.95, 20.95)" gradientUnits="userSpaceOnUse" id="gradient0" spreadMethod="pad" x1="-819.2" x2="819.2">
      <stop offset="0.0" stop-color="#00ccff" stop-opacity="0.49803922"/>
      <stop offset="1.0" stop-color="#00809f" stop-opacity="0.49803922"/>
    </linearGradient>
    <linearGradient gradientTransform="matrix(1.0E-4, -0.0189, 0.0189, 1.0E-4, 20.95, 20.95)" gradientUnits="userSpaceOnUse" id="gradient1" spreadMethod="pad" x1="-819.2" x2="819.2">
      <stop offset="0.0" stop-color="#00ccff" stop-opacity="0.49803922"/>
      <stop offset="1.0" stop-color="#00809f" stop-opacity="0.49803922"/>
    </linearGradient>
  </defs>
</svg>
