<?xml version="1.0" encoding="UTF-8" standalone="no"?>
<svg xmlns:ffdec="https://www.free-decompiler.com/flash" xmlns:xlink="http://www.w3.org/1999/xlink" ffdec:objectType="frame" height="744.5px" width="2145.5px" xmlns="http://www.w3.org/2000/svg">
  <g transform="matrix(1.0, 0.0, 0.0, 1.0, 3.0, 122.5)">
    <use ffdec:characterId="1423" height="744.5" transform="matrix(1.0, 0.0, 0.0, 1.0, -3.0, -122.5)" width="2145.5" xlink:href="#shape0"/>
  </g>
  <defs>
    <g id="shape0" transform="matrix(1.0, 0.0, 0.0, 1.0, 3.0, 122.5)">
      <path d="M1980.0 540.0 L1980.0 -120.0 160.0 -120.0 160.0 320.0 0.0 320.0 M300.0 540.0 L660.0 500.0 1300.0 520.0 1640.0 500.0 1840.0 540.0" fill="none" stroke="#00ffff" stroke-linecap="round" stroke-linejoin="round" stroke-width="5.0"/>
      <path d="M2139.5 540.0 L2140.0 540.0 M1980.0 540.0 L2139.5 540.0 M1840.0 540.0 L1980.0 540.0 M300.0 540.0 L0.0 540.0" fill="none" stroke="#0000ff" stroke-linecap="round" stroke-linejoin="round" stroke-width="5.0"/>
      <path d="M0.0 320.0 L-0.5 619.5 M2139.5 540.0 L2139.5 619.5 M2139.5 540.0 L2140.0 -120.0 M0.0 320.0 L0.0 0.0" fill="none" stroke="#ffff00" stroke-linecap="round" stroke-linejoin="round" stroke-width="5.0"/>
      <path d="M1840.0 540.0 L300.0 540.0" fill="none" stroke="#00ff00" stroke-linecap="round" stroke-linejoin="round" stroke-width="5.0"/>
    </g>
  </defs>
</svg>
