<?xml version="1.0" encoding="UTF-8" standalone="no"?>
<svg xmlns:ffdec="https://www.free-decompiler.com/flash" xmlns:xlink="http://www.w3.org/1999/xlink" ffdec:objectType="frame" height="908.5px" width="2881.45px" xmlns="http://www.w3.org/2000/svg">
  <g transform="matrix(1.0, 0.0, 0.0, 1.0, 1417.85, 712.65)">
    <use ffdec:characterId="3091" height="50.85" transform="matrix(7.0, 0.0, 0.0, 7.0, -411.05, -250.75)" width="119.4" xlink:href="#shape0"/>
    <use ffdec:characterId="3082" height="20.15" transform="matrix(6.7427, 0.0, 0.0, 6.5176, -360.634, 26.8554)" width="106.05" xlink:href="#shape1"/>
  </g>
  <defs>
    <g id="shape0" transform="matrix(1.0, 0.0, 0.0, 1.0, 50.5, 51.25)">
      <path d="M36.8 -29.65 L36.8 -29.65" fill="#0099ff" fill-rule="evenodd" stroke="none"/>
      <path d="M48.3 -5.3 L48.7 -5.1 Q48.0 -4.95 47.45 -4.75 L47.8 -5.6 Q48.05 -5.45 48.3 -5.3" fill="#b5fffe" fill-rule="evenodd" stroke="none"/>
      <path d="M37.6 -48.15 Q37.8 -47.7 38.2 -47.25 40.65 -44.0 44.25 -42.95 L43.6 -42.6 43.15 -42.45 Q42.5 -41.5 42.3 -40.15 42.15 -38.75 42.05 -37.4 L40.9 -37.1 37.45 -35.7 37.4 -36.15 Q37.7 -37.1 37.7 -38.2 37.7 -38.6 37.6 -38.9 L37.6 -38.95 Q37.45 -39.3 37.1 -39.55 34.9 -41.0 32.45 -41.7 L31.9 -41.6 Q35.05 -44.7 37.6 -48.15 M38.3 -49.9 L38.55 -49.8 Q41.35 -48.6 43.4 -46.3 44.8 -44.7 46.45 -44.15 L45.6 -43.65 45.6 -43.85 Q44.05 -44.8 42.45 -45.95 40.1 -47.7 38.3 -49.9 M37.9 -49.7 L37.8 -49.65 Q37.6 -49.7 37.55 -49.85 37.4 -50.1 37.15 -50.05 37.1 -49.75 37.15 -49.4 35.15 -48.9 33.1 -48.85 34.45 -49.3 35.85 -49.85 37.05 -50.35 38.25 -49.9 L38.0 -49.8 37.9 -49.7 M31.85 -29.7 Q31.9 -30.8 31.65 -31.8 33.8 -32.3 36.05 -33.25 40.8 -35.35 45.65 -36.85 45.5 -35.7 45.6 -34.25 45.75 -32.1 46.1 -30.05 L44.55 -30.1 40.05 -30.05 39.5 -30.0 39.35 -30.0 39.25 -29.95 39.15 -29.8 39.1 -29.75 39.1 -29.65 39.45 -29.55 Q39.3 -28.5 39.1 -27.45 39.0 -26.8 38.9 -26.2 36.2 -27.35 33.3 -28.2 L32.25 -28.55 32.2 -28.55 32.15 -28.6 32.1 -28.6 Q31.9 -28.7 31.7 -28.8 L31.7 -28.75 Q31.85 -29.15 31.85 -29.7 M23.05 -36.7 Q24.3 -35.15 25.05 -33.35 L25.2 -32.9 Q25.65 -31.15 26.55 -29.95 24.05 -30.45 21.55 -30.8 21.55 -30.95 21.4 -31.05 L20.7 -31.0 20.85 -30.9 20.2 -30.95 18.7 -30.9 Q18.55 -30.75 18.55 -30.55 L18.2 -30.2 Q18.05 -30.05 18.05 -29.8 L18.05 -29.6 18.55 -29.55 18.55 -25.65 Q16.0 -26.2 13.05 -26.45 L15.2 -30.05 Q18.05 -34.75 23.05 -36.7 M25.85 -35.1 L25.7 -35.3 26.6 -36.35 Q28.0 -37.65 29.4 -38.85 32.7 -41.6 36.5 -38.5 L36.55 -37.9 36.5 -36.9 36.4 -35.7 Q36.35 -35.5 36.4 -35.3 L33.7 -34.2 Q33.1 -33.95 32.55 -33.85 31.4 -33.35 30.3 -32.75 30.2 -32.6 30.25 -32.45 L30.35 -32.35 Q30.1 -31.8 30.1 -31.05 30.1 -30.1 29.95 -29.15 L27.5 -29.75 Q27.5 -30.7 27.3 -31.7 26.65 -32.45 26.3 -33.75 L25.85 -35.1 M22.35 -46.65 Q22.6 -46.0 23.05 -45.65 22.35 -45.1 21.7 -44.45 L21.55 -44.65 Q20.8 -46.0 19.05 -47.05 L18.1 -47.65 Q19.35 -47.45 20.7 -47.55 21.95 -47.7 22.35 -46.65 M23.9 -45.0 Q25.1 -46.1 26.45 -46.55 31.6 -48.4 36.15 -48.0 33.45 -45.55 30.7 -43.2 28.25 -41.1 26.75 -38.75 L26.15 -38.2 Q25.15 -37.25 24.9 -36.3 L24.6 -36.6 23.85 -37.2 23.3 -37.6 23.45 -37.65 23.4 -37.65 23.15 -37.7 23.0 -37.8 22.85 -37.75 Q21.65 -38.0 20.5 -38.5 L20.5 -38.55 20.45 -38.75 Q19.9 -38.85 19.3 -39.05 18.7 -39.1 18.3 -39.45 20.9 -42.2 23.9 -45.0 M43.8 -38.2 L43.75 -38.2 Q44.1 -39.4 44.35 -40.65 44.5 -41.6 44.85 -42.45 46.7 -42.7 48.45 -43.15 50.4 -41.25 49.8 -38.65 49.5 -37.4 49.9 -36.3 47.9 -37.4 45.85 -38.55 45.65 -38.45 45.6 -38.3 L45.55 -38.3 43.65 -37.85 43.75 -38.1 43.8 -38.2 M36.8 -29.65 L36.8 -29.65 M11.85 -40.75 L12.65 -40.7 Q14.5 -40.7 15.85 -39.5 18.45 -37.25 21.35 -37.3 19.1 -36.1 17.2 -34.3 15.05 -36.2 13.55 -38.6 12.75 -39.8 11.85 -40.75 M12.7 -48.7 L12.75 -48.6 15.7 -46.9 15.75 -47.0 17.35 -45.7 Q18.95 -44.45 20.25 -44.4 L20.35 -44.35 Q20.4 -44.05 20.6 -43.85 L20.75 -43.8 20.8 -43.9 20.8 -44.05 20.9 -44.0 21.1 -44.2 Q21.25 -44.15 21.35 -44.15 19.4 -42.2 18.15 -39.55 L18.1 -39.6 18.1 -39.55 Q17.65 -39.8 17.15 -40.15 L15.95 -41.05 Q13.6 -42.0 10.95 -41.95 L10.75 -41.85 Q9.4 -41.45 8.2 -40.7 5.7 -39.1 3.15 -37.65 2.55 -38.4 1.8 -39.05 4.0 -41.3 6.25 -43.4 9.45 -46.3 12.7 -48.7 M6.35 -45.6 L5.55 -45.0 Q5.2 -45.3 4.75 -45.5 L5.5 -46.15 Q6.65 -47.25 8.15 -47.0 L6.35 -45.6 M10.65 -40.85 Q10.65 -40.5 10.8 -40.25 12.3 -37.75 14.35 -35.65 15.7 -34.25 16.95 -34.05 L16.65 -33.75 Q13.55 -30.65 12.0 -26.9 L11.0 -26.9 Q10.95 -26.75 10.95 -26.55 L10.9 -26.55 9.45 -26.6 9.55 -26.85 9.3 -26.85 8.65 -26.8 8.7 -26.65 8.15 -26.65 Q8.6 -27.9 8.8 -29.3 9.1 -31.4 8.9 -33.55 L8.5 -33.65 8.25 -33.7 8.2 -33.65 Q5.15 -34.6 1.9 -35.3 2.65 -35.6 3.35 -36.2 6.95 -39.05 10.65 -40.85 M3.4 -44.65 Q4.3 -44.7 5.2 -44.65 2.65 -42.4 1.2 -39.5 0.5 -40.05 -0.3 -40.45 -1.05 -40.9 -1.9 -41.3 L-1.4 -41.9 -1.2 -42.0 Q-0.95 -42.25 -0.8 -42.55 L0.5 -44.05 Q0.85 -44.45 1.3 -44.5 L3.2 -44.65 3.25 -44.6 3.4 -44.65 M1.4 -36.45 L1.55 -36.3 Q0.85 -35.95 0.15 -35.85 L0.85 -35.75 0.7 -35.55 -0.35 -35.75 Q-1.4 -35.7 -2.5 -36.05 L-3.3 -36.15 -4.65 -36.05 Q-4.5 -37.15 -4.6 -38.3 -4.7 -39.4 -5.05 -40.3 -2.6 -39.7 -0.5 -38.35 0.95 -37.4 2.4 -37.2 L1.9 -36.9 1.4 -36.45 M3.95 -26.7 Q4.0 -27.3 3.95 -28.0 3.85 -28.7 3.85 -29.45 L4.3 -29.7 Q6.25 -30.75 7.95 -31.75 7.8 -30.5 7.45 -29.3 7.0 -27.7 7.5 -26.65 L4.75 -26.7 3.95 -26.7 M2.4 -29.45 L2.4 -29.4 Q2.6 -29.2 2.85 -29.15 L2.85 -29.1 Q2.85 -28.35 2.9 -27.6 2.95 -27.1 3.05 -26.65 L1.8 -26.6 1.6 -26.25 Q1.4 -26.05 1.35 -25.7 1.1 -25.05 1.0 -24.2 L0.85 -23.05 0.85 -23.1 0.7 -22.7 Q-0.45 -23.25 -1.8 -23.6 -4.05 -24.15 -6.4 -24.1 -6.7 -24.8 -7.15 -25.45 L-6.9 -25.55 -7.3 -25.85 -7.35 -25.75 -7.6 -26.05 -7.85 -26.3 Q-8.55 -26.95 -9.25 -27.65 -9.55 -27.95 -9.7 -28.25 L-9.85 -28.4 -7.3 -28.65 -3.1 -28.9 Q-0.1 -28.9 2.4 -29.45 M0.3 -34.4 L0.95 -34.25 Q4.6 -33.2 7.9 -33.5 L6.8 -32.85 Q4.8 -31.65 3.2 -30.35 1.9 -30.85 0.35 -30.75 -1.95 -30.7 -4.25 -30.75 L-4.25 -30.7 Q-6.25 -30.55 -8.25 -30.15 L-8.95 -30.05 -9.2 -30.0 Q-10.15 -29.6 -10.9 -29.05 L-11.2 -29.25 -11.4 -29.7 Q-11.9 -30.65 -12.5 -31.45 -12.3 -31.55 -12.15 -31.8 L-12.0 -31.9 Q-11.65 -32.15 -11.3 -32.6 -9.6 -34.85 -7.15 -35.25 L0.3 -34.4 M47.75 -30.15 Q48.05 -31.0 47.8 -32.3 47.4 -34.25 47.1 -36.15 48.45 -34.8 50.25 -33.7 53.3 -31.8 56.1 -32.05 L56.1 -32.15 56.0 -32.3 56.15 -32.25 Q56.45 -32.2 56.55 -32.1 56.5 -30.1 56.7 -28.1 56.85 -26.85 57.0 -25.6 L55.9 -26.5 Q55.15 -26.85 54.4 -27.4 54.2 -27.9 53.9 -28.3 53.25 -29.2 52.3 -29.8 L52.15 -29.65 52.1 -29.65 Q50.05 -30.15 47.75 -30.15 M36.25 -5.85 L37.9 -6.0 Q40.3 -6.4 42.1 -7.35 42.4 -6.35 42.95 -5.45 43.55 -4.35 44.3 -3.5 L42.75 -3.15 Q40.55 -2.55 38.8 -1.6 38.4 -2.1 37.75 -2.55 36.5 -3.5 35.25 -4.3 35.4 -4.45 35.55 -4.65 L36.25 -5.85 M43.6 -17.2 Q43.7 -18.65 43.45 -19.85 45.8 -17.35 47.55 -14.4 48.3 -13.2 49.15 -12.65 L48.7 -12.5 Q47.3 -10.6 46.8 -8.35 46.35 -6.15 46.1 -4.05 L45.9 -3.9 Q45.7 -4.45 45.3 -5.0 L43.2 -8.0 43.2 -8.05 43.25 -8.1 43.2 -8.15 Q43.15 -12.7 43.6 -17.2 M39.35 -19.95 L40.3 -20.0 Q41.25 -20.2 42.05 -20.65 L42.0 -20.45 41.75 -10.65 Q41.7 -9.5 41.85 -8.5 39.9 -8.2 37.95 -7.65 L37.15 -7.4 Q38.3 -9.4 39.4 -11.4 39.9 -12.3 40.05 -13.1 40.25 -13.45 40.4 -13.85 L40.9 -13.75 40.45 -14.15 Q40.65 -15.1 40.35 -16.3 39.9 -18.15 39.35 -19.95 M40.1 -23.85 L40.4 -23.5 Q41.15 -22.65 41.6 -21.65 L40.55 -21.45 Q39.7 -21.3 39.05 -20.9 L39.0 -21.05 Q38.75 -21.1 38.7 -20.85 L38.65 -20.55 38.35 -20.3 38.55 -20.15 Q38.4 -19.05 38.55 -17.9 38.8 -16.45 39.2 -15.2 37.2 -16.7 34.7 -17.9 29.6 -20.3 26.0 -24.2 L25.95 -24.2 Q25.2 -25.35 24.2 -26.45 22.65 -28.05 21.0 -29.35 25.3 -28.8 29.9 -27.55 34.45 -26.25 38.85 -25.35 L38.8 -25.2 Q38.9 -25.1 39.05 -25.05 39.25 -24.95 39.45 -24.9 39.45 -24.45 39.7 -24.05 39.8 -23.9 40.05 -23.8 L40.1 -23.85 M40.7 -24.65 Q41.1 -25.4 41.25 -26.25 41.6 -28.1 40.7 -29.3 46.15 -28.25 52.2 -28.7 L52.25 -28.65 Q51.7 -28.25 51.25 -27.8 50.55 -27.05 49.9 -26.3 L49.8 -26.3 48.15 -26.4 44.6 -25.75 Q42.45 -25.4 40.7 -24.65 M41.25 -23.95 L41.05 -24.2 Q45.1 -24.3 49.45 -24.7 L49.6 -24.65 Q49.8 -24.4 49.9 -24.1 50.25 -22.95 50.5 -21.75 50.25 -20.8 48.85 -19.9 48.35 -19.55 47.8 -19.35 47.0 -18.5 46.75 -17.45 L46.25 -18.0 Q44.65 -19.65 43.2 -21.45 42.5 -21.9 41.85 -22.85 41.5 -23.4 41.25 -23.95 M17.8 -7.15 L17.7 -6.6 Q17.65 -6.3 17.65 -6.0 L15.4 -5.9 Q15.5 -6.3 15.7 -6.6 L16.0 -7.3 Q16.4 -7.05 17.1 -7.1 L17.8 -7.15 M18.8 -7.35 Q19.7 -7.6 20.45 -8.05 21.35 -8.55 21.3 -9.7 21.15 -11.25 21.15 -12.8 23.55 -12.15 25.85 -12.9 25.65 -15.0 26.15 -17.15 26.75 -19.65 26.6 -21.85 L26.65 -21.8 Q30.8 -18.5 35.5 -15.9 37.5 -14.8 39.3 -14.2 L37.25 -10.65 Q35.4 -7.6 34.55 -4.65 31.6 -5.3 28.2 -5.2 23.55 -5.15 19.0 -5.55 L18.9 -5.7 18.8 -5.8 18.9 -6.3 Q19.05 -6.95 18.8 -7.35 M7.9 -6.6 Q8.7 -8.0 8.9 -9.1 9.9 -8.7 11.15 -8.5 13.55 -8.05 15.4 -8.55 15.1 -8.1 14.95 -7.55 L14.5 -5.7 Q13.9 -5.55 13.4 -5.3 L13.45 -5.15 Q13.55 -4.9 13.7 -4.9 9.6 -4.35 5.75 -3.7 7.0 -5.05 7.9 -6.6 M0.1 -19.15 Q-0.05 -16.6 0.2 -14.1 L-2.8 -11.15 Q-4.45 -12.4 -6.75 -13.15 -9.7 -14.15 -12.75 -14.45 L-12.2 -15.95 -13.25 -17.3 -13.6 -17.65 Q-11.55 -17.25 -9.2 -17.45 -8.5 -17.5 -8.15 -18.0 -8.15 -18.15 -8.15 -18.2 L-8.1 -18.4 -7.7 -19.65 -7.15 -21.1 Q-6.9 -21.75 -6.8 -22.4 -6.75 -22.8 -6.6 -23.1 -4.1 -23.3 -1.7 -22.35 -0.45 -21.85 0.5 -22.05 0.15 -20.75 0.1 -19.15 M3.3 -15.9 Q2.1 -14.1 1.15 -11.9 -0.45 -8.3 -1.25 -4.6 0.3 -4.25 1.8 -3.65 L1.45 -3.55 Q-3.25 -4.25 -8.1 -4.1 -5.45 -7.45 -2.35 -10.4 -0.55 -12.15 1.35 -13.85 2.4 -14.8 2.8 -15.6 L3.3 -15.9 M3.4 -13.3 Q4.0 -14.45 4.05 -15.35 5.25 -14.45 6.0 -13.15 7.1 -11.2 8.55 -9.8 L8.4 -9.65 8.3 -9.6 8.25 -9.45 Q7.55 -8.55 6.95 -7.5 5.85 -5.6 5.0 -3.85 2.55 -4.55 0.0 -5.5 L0.45 -6.7 Q1.65 -10.1 3.4 -13.3 M12.75 -15.65 L13.85 -16.1 Q17.1 -16.85 20.45 -17.4 20.55 -15.0 20.1 -12.8 19.7 -10.7 20.2 -8.7 L16.2 -7.95 Q16.3 -8.45 16.25 -8.9 16.45 -8.95 16.65 -9.1 L16.15 -9.35 16.1 -9.45 16.05 -9.4 Q14.95 -9.85 13.45 -9.75 11.4 -9.6 9.4 -9.75 8.7 -11.25 7.75 -12.7 7.35 -13.35 6.85 -13.95 9.8 -14.45 12.75 -15.65 M18.55 -25.1 L18.6 -21.45 Q18.6 -19.45 19.55 -18.5 L17.3 -18.05 15.95 -17.8 16.0 -17.95 Q15.45 -17.8 14.9 -17.7 L14.95 -17.55 Q12.65 -17.0 10.45 -16.15 8.7 -15.5 7.3 -14.65 L6.55 -14.25 Q5.4 -15.55 3.9 -16.55 L3.85 -16.65 3.85 -16.6 3.6 -16.75 3.2 -16.4 Q2.45 -15.75 1.6 -15.8 1.35 -16.55 1.4 -17.5 L1.45 -19.3 Q1.45 -19.4 1.5 -19.5 L1.5 -20.1 1.6 -20.75 Q1.7 -21.2 1.65 -21.65 L1.65 -21.85 1.7 -22.15 1.75 -22.2 Q1.9 -22.6 1.85 -23.05 L1.85 -23.35 Q1.9 -23.45 1.9 -23.55 1.9 -23.75 1.95 -23.95 2.1 -24.3 2.05 -24.7 L2.2 -25.15 2.2 -25.45 2.25 -25.55 Q4.7 -25.8 7.8 -25.2 12.55 -24.3 17.35 -24.7 18.05 -24.75 18.4 -25.1 L18.55 -25.1 M19.6 -29.5 Q20.45 -28.15 21.6 -26.9 23.35 -24.9 25.2 -23.55 25.55 -22.9 26.05 -22.35 25.35 -20.9 25.15 -19.1 24.85 -16.45 24.9 -13.7 23.05 -13.5 21.15 -13.1 21.2 -15.4 21.5 -17.75 21.3 -18.2 20.8 -18.35 L20.55 -18.4 20.35 -23.2 Q20.25 -26.55 19.5 -29.5 L19.6 -29.5 M51.8 -20.1 Q52.1 -19.9 52.35 -20.05 L53.45 -19.3 Q57.4 -16.55 61.1 -13.65 62.6 -12.45 63.9 -12.3 63.9 -12.05 63.9 -11.75 62.15 -10.3 60.7 -8.5 58.75 -6.05 57.95 -3.25 56.25 -3.9 54.35 -4.5 51.1 -5.45 48.45 -7.4 49.3 -10.0 49.75 -12.3 L50.2 -12.15 Q49.1 -14.6 47.35 -16.75 L47.5 -16.8 47.7 -16.95 Q48.5 -17.4 49.15 -18.4 49.85 -19.6 50.85 -20.6 L51.0 -20.55 Q51.15 -20.4 51.35 -20.25 L51.5 -20.3 51.8 -20.1 M65.8 -14.6 Q66.15 -15.4 66.3 -16.2 66.6 -15.6 67.1 -14.9 67.5 -14.05 67.6 -13.2 L67.55 -13.0 Q66.75 -10.35 66.15 -7.75 65.9 -7.5 65.6 -7.3 63.05 -5.8 60.3 -4.7 60.65 -5.2 61.0 -5.75 62.85 -8.75 65.05 -11.4 L65.35 -11.55 65.35 -11.75 65.5 -11.95 Q65.55 -12.2 65.45 -12.4 L65.35 -12.5 Q65.4 -13.55 65.8 -14.6 M51.95 -26.45 Q52.45 -26.8 52.75 -27.15 53.1 -26.7 53.55 -26.35 57.8 -23.05 62.3 -20.0 63.75 -19.0 64.95 -19.0 64.75 -17.35 64.35 -15.75 64.0 -14.3 63.95 -12.9 L59.05 -16.55 Q55.5 -19.25 51.75 -21.4 51.75 -22.8 51.1 -24.2 L50.6 -25.25 Q51.25 -25.9 51.95 -26.45 M-20.6 -33.85 Q-21.15 -32.4 -21.9 -31.05 L-22.9 -31.15 -22.9 -31.2 -23.5 -31.15 -23.95 -31.05 Q-24.05 -32.5 -23.7 -34.05 -23.05 -36.8 -23.9 -39.0 -23.8 -39.25 -23.6 -39.45 -23.25 -39.75 -23.0 -39.65 -22.55 -38.2 -22.35 -36.75 -21.95 -34.5 -20.6 -33.85 M-16.75 -27.85 Q-15.6 -27.6 -14.5 -27.15 -15.45 -26.55 -16.5 -26.05 -17.05 -25.75 -17.4 -25.4 L-17.5 -25.15 Q-17.7 -24.2 -18.25 -23.65 -18.3 -23.2 -18.15 -22.75 -18.0 -22.15 -17.75 -21.75 -20.25 -21.75 -22.25 -20.85 -23.05 -20.85 -23.85 -20.9 -24.1 -20.75 -24.1 -20.5 -24.1 -20.1 -24.1 -19.8 L-24.4 -19.55 -24.4 -19.45 -24.25 -19.25 -24.2 -19.2 Q-24.25 -18.8 -24.4 -18.45 L-24.45 -18.2 Q-25.55 -18.8 -26.6 -19.45 -26.45 -19.65 -26.4 -19.9 L-26.25 -20.2 Q-26.25 -20.25 -26.3 -20.3 L-26.3 -20.4 Q-27.55 -21.25 -29.55 -21.05 L-32.4 -20.9 Q-30.5 -22.9 -28.65 -24.95 L-28.45 -25.15 Q-27.45 -25.6 -26.65 -26.65 -25.45 -28.2 -25.3 -29.65 -21.1 -28.95 -16.75 -27.85 M-11.5 -27.85 L-11.45 -27.75 -11.3 -28.0 Q-10.25 -27.4 -9.5 -26.55 L-9.3 -26.25 Q-9.0 -25.7 -8.6 -25.3 -7.95 -24.35 -7.15 -23.8 -7.4 -23.6 -7.5 -23.2 -7.6 -22.75 -7.7 -22.3 L-7.8 -22.5 -8.05 -21.55 -7.95 -21.5 Q-8.1 -21.05 -8.2 -20.6 -8.35 -19.65 -8.7 -18.8 L-8.8 -18.5 -9.25 -18.5 Q-11.55 -18.5 -13.9 -18.55 L-13.95 -18.55 -13.95 -18.65 -14.7 -18.8 -14.75 -18.5 Q-14.75 -19.2 -14.95 -19.85 -15.3 -20.85 -16.05 -21.3 -16.15 -21.75 -16.45 -22.15 -16.95 -22.85 -17.0 -23.6 -15.95 -24.5 -14.85 -25.35 L-11.5 -27.85 M-6.9 -41.05 L-6.5 -40.8 Q-6.6 -40.2 -6.45 -39.4 -6.25 -37.75 -5.8 -36.2 L-6.8 -36.4 -8.4 -36.7 Q-8.7 -36.6 -9.0 -36.35 -9.85 -35.45 -10.65 -34.7 L-11.6 -33.75 Q-12.2 -33.2 -12.8 -32.7 -13.55 -32.1 -13.55 -31.3 L-13.35 -31.25 Q-13.4 -30.75 -13.1 -30.1 -12.7 -29.25 -12.2 -28.6 -12.75 -28.25 -13.25 -27.9 -14.0 -28.7 -15.0 -29.2 -15.85 -29.85 -17.15 -30.2 -18.95 -30.65 -20.75 -30.95 -19.65 -31.25 -19.0 -32.8 -18.1 -34.95 -18.3 -36.85 -15.8 -37.4 -13.35 -38.7 -10.05 -40.45 -6.9 -41.05 M-7.5 -42.8 L-8.0 -42.9 Q-10.15 -41.75 -12.5 -40.75 -15.6 -39.4 -18.55 -37.95 L-18.6 -38.1 -18.8 -37.85 -19.3 -37.6 Q-19.3 -36.6 -19.95 -35.4 -20.35 -36.6 -20.75 -37.8 -21.1 -39.05 -21.85 -40.0 -19.25 -40.3 -16.9 -42.2 L-16.85 -42.2 Q-15.75 -42.7 -14.65 -43.35 -13.85 -43.8 -13.05 -43.95 -11.6 -44.15 -10.1 -43.75 -6.5 -42.75 -3.25 -42.75 -2.8 -42.5 -2.45 -42.2 L-2.95 -41.7 Q-5.1 -42.55 -7.45 -42.8 L-7.5 -42.8 M-46.2 -8.3 Q-44.9 -10.2 -44.7 -11.85 -44.2 -10.8 -43.35 -9.7 -42.5 -8.5 -41.45 -7.7 -43.05 -7.2 -44.65 -6.45 -44.8 -5.65 -44.75 -4.85 -44.7 -4.05 -45.05 -3.35 -45.55 -3.35 -46.0 -3.5 -47.45 -4.05 -48.75 -4.9 -47.4 -6.6 -46.2 -8.3 M-15.65 -2.4 Q-15.6 -2.55 -15.7 -2.7 -14.4 -5.35 -14.05 -8.5 -13.75 -10.95 -13.1 -13.35 L-7.45 -11.75 Q-4.95 -11.05 -3.0 -11.0 -4.85 -9.2 -6.75 -7.45 -9.0 -5.4 -8.9 -3.25 L-7.1 -3.1 -7.4 -2.95 Q-8.25 -2.6 -9.1 -2.6 L-15.65 -2.4 M-15.25 -17.3 Q-14.7 -17.0 -14.2 -16.7 -13.75 -16.4 -13.5 -15.95 L-13.5 -15.85 -13.9 -14.35 -13.95 -14.35 Q-14.05 -14.25 -14.0 -14.05 -14.85 -10.7 -15.7 -7.4 -16.3 -5.05 -16.3 -3.1 -19.25 -3.95 -21.9 -5.15 -20.5 -7.9 -18.8 -10.45 -16.5 -13.8 -15.25 -17.3 M-35.15 -2.4 Q-34.55 -2.7 -33.95 -3.15 -33.45 -3.5 -33.15 -3.85 -32.15 -3.35 -30.95 -2.8 -30.6 -2.65 -30.2 -2.5 L-30.3 -2.5 Q-32.95 -2.35 -35.15 -2.4 M-43.45 -3.5 L-43.45 -3.6 Q-43.4 -4.5 -43.3 -5.4 -39.45 -6.2 -36.05 -7.5 -35.75 -5.75 -34.95 -4.75 L-35.6 -4.1 Q-36.0 -3.7 -36.2 -3.2 -37.25 -3.8 -39.1 -3.55 -41.25 -3.25 -43.45 -3.5 M-33.7 -7.05 Q-33.9 -8.55 -34.6 -9.9 -31.1 -8.05 -27.7 -5.85 -27.4 -5.65 -27.25 -5.7 L-27.15 -5.7 -27.15 -5.5 Q-26.9 -5.55 -26.85 -5.65 L-26.85 -5.8 Q-23.45 -6.6 -20.95 -8.9 -22.1 -6.8 -23.0 -4.6 L-22.8 -4.4 Q-25.2 -4.1 -27.3 -3.4 -27.7 -4.05 -28.85 -4.3 -31.0 -4.8 -33.05 -5.7 L-33.35 -5.65 -33.55 -5.75 Q-33.6 -6.4 -33.7 -7.05 M-27.25 -18.95 Q-26.3 -18.5 -25.3 -17.8 -21.65 -15.15 -17.8 -14.15 L-18.65 -12.85 Q-19.6 -11.4 -20.4 -9.95 -21.9 -9.5 -23.4 -8.3 -24.9 -7.05 -26.65 -6.15 L-26.7 -6.2 Q-26.0 -8.65 -25.85 -11.25 -25.6 -15.55 -27.25 -18.95 M-23.05 -18.75 L-22.8 -19.1 Q-19.6 -19.7 -16.5 -20.0 -16.25 -19.2 -16.05 -18.45 -16.0 -18.1 -15.8 -17.9 L-15.85 -17.9 -16.0 -18.0 -16.15 -17.7 Q-16.3 -17.25 -16.55 -16.85 -16.9 -16.35 -17.2 -15.75 -17.45 -15.15 -17.65 -14.55 -19.35 -15.65 -21.2 -16.5 L-21.15 -16.55 Q-21.6 -16.65 -22.15 -17.0 L-22.2 -16.85 -22.7 -16.95 Q-22.9 -17.1 -22.95 -17.4 L-23.3 -17.6 Q-23.3 -17.65 -23.3 -17.8 -23.3 -18.3 -23.05 -18.75 M-31.8 -14.5 Q-28.95 -16.7 -27.85 -19.25 L-27.6 -19.15 Q-27.15 -16.9 -27.1 -14.05 -27.05 -10.2 -27.15 -6.5 L-30.0 -8.55 Q-32.3 -10.2 -35.05 -10.85 -33.75 -12.95 -31.8 -14.5 M-28.35 -19.45 L-28.2 -19.4 -28.9 -18.8 Q-32.1 -15.5 -35.15 -12.1 -36.15 -11.0 -35.95 -10.25 -36.25 -9.45 -36.15 -8.4 -37.85 -8.45 -39.65 -8.1 -39.75 -9.15 -40.45 -10.2 -41.7 -12.1 -43.75 -12.95 L-42.45 -14.0 Q-41.5 -14.5 -40.6 -15.3 -40.1 -15.8 -39.45 -15.75 -36.7 -15.75 -34.6 -16.7 L-34.6 -16.6 Q-34.55 -16.4 -34.4 -16.3 -33.85 -16.1 -33.6 -16.65 L-33.5 -17.05 -33.4 -17.4 -33.25 -17.5 Q-33.25 -17.6 -33.35 -17.65 -33.15 -18.5 -32.85 -19.35 L-32.8 -19.45 -32.75 -19.6 -32.75 -19.7 -28.35 -19.45 M-29.95 -25.3 L-30.35 -24.85 Q-32.5 -22.6 -33.95 -20.25 L-33.7 -20.15 -33.75 -20.15 -33.8 -19.9 -33.75 -19.8 -33.8 -19.6 -33.85 -19.65 -34.1 -18.65 -34.05 -18.65 -34.3 -17.7 -34.85 -17.6 -35.95 -17.65 Q-37.4 -17.6 -38.85 -17.65 -38.75 -18.15 -38.85 -18.7 -38.95 -19.55 -39.45 -20.15 -38.3 -20.4 -37.25 -21.15 -33.75 -23.5 -29.95 -25.3 M-25.4 -35.0 L-25.3 -35.05 Q-25.9 -32.6 -24.8 -30.9 L-25.35 -30.85 Q-26.1 -30.75 -26.35 -30.15 L-26.4 -30.05 -25.1 -30.25 -25.25 -30.2 Q-26.25 -29.85 -27.1 -29.3 L-27.35 -28.9 -27.5 -29.15 Q-27.65 -30.15 -28.3 -31.15 -29.4 -32.8 -30.9 -34.1 L-27.2 -34.65 -25.85 -34.8 Q-25.55 -34.8 -25.4 -35.0 M-37.25 -28.25 Q-36.85 -28.5 -36.5 -28.75 L-36.15 -29.05 Q-35.55 -29.3 -34.95 -29.7 -32.75 -31.15 -32.15 -33.55 -31.9 -32.55 -31.0 -31.4 L-30.6 -30.95 -30.75 -30.8 Q-30.1 -29.9 -29.45 -28.95 L-29.15 -28.45 Q-28.65 -27.75 -28.05 -27.5 L-28.8 -27.15 -28.8 -27.3 Q-30.95 -25.55 -33.45 -24.35 -34.55 -23.8 -35.6 -23.3 L-35.55 -23.2 -36.0 -22.9 -36.15 -22.9 Q-35.95 -23.0 -35.85 -23.15 -35.8 -24.7 -36.3 -26.2 -36.65 -27.3 -37.25 -28.25" fill="#ccfffe" fill-opacity="0.7529412" fill-rule="evenodd" stroke="none"/>
      <path d="M37.9 -49.7 L38.0 -49.8 38.25 -49.9 Q37.05 -50.35 35.85 -49.85 34.45 -49.3 33.1 -48.85 35.15 -48.9 37.15 -49.4 37.1 -49.75 37.15 -50.05 37.4 -50.1 37.55 -49.85 37.6 -49.7 37.8 -49.65 L37.9 -49.7 M38.3 -49.9 Q40.1 -47.7 42.45 -45.95 44.05 -44.8 45.6 -43.85 L45.6 -43.65 46.45 -44.15 Q44.8 -44.7 43.4 -46.3 41.35 -48.6 38.55 -49.8 L38.3 -49.9 M37.6 -48.15 Q35.05 -44.7 31.9 -41.6 L32.45 -41.7 Q34.9 -41.0 37.1 -39.55 37.45 -39.3 37.6 -38.95 L37.6 -38.9 Q37.7 -38.6 37.7 -38.2 37.7 -37.1 37.4 -36.15 L37.45 -35.7 40.9 -37.1 42.05 -37.4 Q42.15 -38.75 42.3 -40.15 42.5 -41.5 43.15 -42.45 L43.6 -42.6 44.25 -42.95 Q40.65 -44.0 38.2 -47.25 37.8 -47.7 37.6 -48.15 M36.35 -51.2 Q41.15 -51.45 43.8 -47.65 45.1 -45.75 47.1 -44.5 L47.9 -44.55 Q48.4 -44.7 48.8 -44.5 49.2 -44.3 49.25 -43.85 L49.15 -43.8 Q51.75 -42.9 51.95 -39.6 52.05 -37.1 50.7 -35.9 L51.5 -35.5 51.55 -35.5 Q52.25 -35.2 52.95 -34.85 L55.95 -33.45 56.15 -33.45 56.15 -33.5 Q56.65 -33.5 57.05 -33.3 57.45 -33.15 57.85 -32.95 57.95 -30.6 58.3 -28.3 58.65 -26.25 58.45 -24.5 L60.45 -23.1 Q63.4 -21.1 66.5 -19.5 L66.15 -19.3 66.15 -19.25 Q66.25 -18.95 66.2 -18.65 L66.4 -18.55 66.6 -18.35 66.55 -17.6 Q69.8 -14.65 68.5 -10.7 68.25 -9.8 67.85 -9.0 67.4 -7.9 66.6 -6.75 65.25 -4.65 62.3 -4.1 60.95 -3.8 59.75 -4.0 59.3 -3.45 58.75 -2.95 L59.05 -2.85 58.6 -2.85 Q58.15 -2.4 57.65 -2.1 L57.8 -2.8 Q54.15 -2.8 50.6 -4.2 50.2 -3.95 49.15 -3.8 L46.85 -3.65 46.2 -2.6 46.15 -2.6 46.05 -1.95 Q45.65 -2.2 45.3 -2.5 43.3 -1.45 40.65 -0.9 L39.3 -0.8 39.45 -0.55 Q37.5 -0.65 35.5 -2.5 L34.1 -3.7 34.1 -3.9 Q27.55 -3.55 21.05 -3.9 18.8 -4.05 18.3 -4.9 18.15 -5.0 18.05 -5.1 16.65 -4.85 15.15 -4.8 L15.1 -4.4 Q10.25 -3.1 5.5 -3.4 L5.15 -3.0 Q4.9 -2.75 4.65 -3.05 3.65 -2.65 2.65 -2.75 0.05 -1.45 -3.5 -2.45 -4.45 -2.7 -5.35 -2.85 -5.35 -1.85 -7.6 -1.1 -11.3 0.1 -14.9 -1.45 L-15.05 -1.5 -15.7 -1.65 Q-15.95 -1.75 -16.2 -1.85 L-16.25 -1.75 -16.25 -1.9 -16.4 -1.95 Q-18.75 -2.35 -20.85 -3.35 -23.65 -2.2 -27.15 -2.3 L-27.2 -2.05 -28.0 -2.05 Q-28.3 -0.1 -32.5 -0.45 -34.55 -0.55 -35.7 -1.8 -38.1 -0.9 -41.35 -1.35 -43.0 -1.6 -43.65 -2.45 -43.8 -2.1 -43.95 -1.8 -47.15 -1.65 -50.1 -3.9 L-50.5 -4.25 Q-49.25 -7.25 -47.4 -10.15 -46.4 -11.75 -45.25 -13.15 L-45.3 -13.25 Q-45.35 -13.3 -45.15 -13.35 L-45.1 -13.35 -44.85 -13.65 -44.8 -13.3 -44.7 -13.25 Q-43.75 -14.5 -42.4 -15.55 L-42.3 -15.65 Q-41.55 -16.5 -40.6 -17.25 L-40.45 -17.35 -40.55 -17.55 -40.3 -17.6 -40.35 -17.65 Q-40.25 -18.45 -40.5 -19.2 -40.7 -19.85 -40.5 -20.3 L-41.0 -20.35 Q-39.7 -21.5 -37.95 -22.3 L-37.15 -22.6 Q-37.3 -22.8 -37.35 -23.05 -38.0 -23.95 -38.35 -25.3 -38.7 -26.55 -38.9 -27.75 L-39.45 -28.95 Q-39.25 -29.2 -39.2 -29.35 L-39.2 -29.5 -39.1 -29.55 Q-38.95 -29.85 -38.55 -29.9 L-38.45 -29.8 Q-37.3 -30.2 -36.25 -30.8 L-34.5 -32.0 Q-33.95 -32.75 -33.55 -33.6 L-33.25 -34.2 Q-33.3 -34.7 -32.95 -34.85 L-32.75 -35.3 Q-32.6 -35.35 -32.5 -35.45 L-32.4 -35.45 -32.2 -35.5 -31.0 -35.45 Q-29.65 -35.95 -27.8 -35.9 -26.3 -35.85 -24.9 -36.25 -24.7 -37.15 -24.9 -38.05 -25.0 -38.6 -24.95 -39.05 L-25.1 -39.3 Q-25.0 -40.0 -24.3 -40.45 L-23.1 -41.15 -23.0 -41.05 -19.15 -42.5 Q-17.2 -43.25 -15.3 -44.1 -14.45 -44.65 -13.7 -45.3 -13.4 -45.55 -13.1 -45.55 L-12.45 -45.4 -12.4 -45.45 Q-8.85 -45.05 -5.35 -44.35 -3.25 -43.9 -1.45 -43.25 -0.7 -44.05 -0.15 -44.95 0.4 -45.85 1.25 -46.2 2.4 -46.1 3.45 -45.9 3.65 -46.15 3.95 -46.35 4.85 -47.05 5.65 -47.9 5.95 -48.2 6.35 -48.3 7.35 -48.25 8.3 -47.95 8.7 -47.8 8.9 -47.55 10.45 -48.7 12.05 -49.85 L12.0 -50.0 12.1 -50.05 12.4 -50.1 12.5 -50.2 12.7 -50.1 12.8 -50.15 14.7 -49.35 Q15.55 -49.0 16.3 -48.6 L17.5 -48.7 Q20.1 -49.1 22.35 -48.0 23.75 -47.35 23.85 -46.2 26.0 -47.7 28.7 -48.6 29.4 -48.85 30.15 -48.9 L31.45 -49.45 Q33.75 -50.5 36.15 -51.2 L36.35 -51.2 M23.9 -45.0 Q20.9 -42.2 18.3 -39.45 18.7 -39.1 19.3 -39.05 19.9 -38.85 20.45 -38.75 L20.5 -38.55 20.5 -38.5 Q21.65 -38.0 22.85 -37.75 L23.0 -37.8 23.15 -37.7 23.4 -37.65 23.45 -37.65 23.3 -37.6 23.85 -37.2 24.6 -36.6 24.9 -36.3 Q25.15 -37.25 26.15 -38.2 L26.75 -38.75 Q28.25 -41.1 30.7 -43.2 33.45 -45.55 36.15 -48.0 31.6 -48.4 26.45 -46.55 25.1 -46.1 23.9 -45.0 M22.35 -46.65 Q21.95 -47.7 20.7 -47.55 19.35 -47.45 18.1 -47.65 L19.05 -47.05 Q20.8 -46.0 21.55 -44.65 L21.7 -44.45 Q22.35 -45.1 23.05 -45.65 22.6 -46.0 22.35 -46.65 M25.85 -35.1 L26.3 -33.75 Q26.65 -32.45 27.3 -31.7 27.5 -30.7 27.5 -29.75 L29.95 -29.15 Q30.1 -30.1 30.1 -31.05 30.1 -31.8 30.35 -32.35 L30.25 -32.45 Q30.2 -32.6 30.3 -32.75 31.4 -33.35 32.55 -33.85 33.1 -33.95 33.7 -34.2 L36.4 -35.3 Q36.35 -35.5 36.4 -35.7 L36.5 -36.9 36.55 -37.9 36.5 -38.5 Q32.7 -41.6 29.4 -38.85 28.0 -37.65 26.6 -36.35 L25.7 -35.3 25.85 -35.1 M23.05 -36.7 Q18.05 -34.75 15.2 -30.05 L13.05 -26.45 Q16.0 -26.2 18.55 -25.65 L18.55 -29.55 18.05 -29.6 18.05 -29.8 Q18.05 -30.05 18.2 -30.2 L18.55 -30.55 Q18.55 -30.75 18.7 -30.9 L20.2 -30.95 20.85 -30.9 20.7 -31.0 21.4 -31.05 Q21.55 -30.95 21.55 -30.8 24.05 -30.45 26.55 -29.95 25.65 -31.15 25.2 -32.9 L25.05 -33.35 Q24.3 -35.15 23.05 -36.7 M31.85 -29.7 Q31.85 -29.15 31.7 -28.75 L31.7 -28.8 Q31.9 -28.7 32.1 -28.6 L32.15 -28.6 32.2 -28.55 32.25 -28.55 33.3 -28.2 Q36.2 -27.35 38.9 -26.2 39.0 -26.8 39.1 -27.45 39.3 -28.5 39.45 -29.55 L39.1 -29.65 39.1 -29.75 39.15 -29.8 39.25 -29.95 39.35 -30.0 39.5 -30.0 40.05 -30.05 44.55 -30.1 46.1 -30.05 Q45.75 -32.1 45.6 -34.25 45.5 -35.7 45.65 -36.85 40.8 -35.35 36.05 -33.25 33.8 -32.3 31.65 -31.8 31.9 -30.8 31.85 -29.7 M43.8 -38.2 L43.75 -38.1 43.65 -37.85 45.55 -38.3 45.6 -38.3 Q45.65 -38.45 45.85 -38.55 47.9 -37.4 49.9 -36.3 49.5 -37.4 49.8 -38.65 50.4 -41.25 48.45 -43.15 46.7 -42.7 44.85 -42.45 44.5 -41.6 44.35 -40.65 44.1 -39.4 43.75 -38.2 L43.8 -38.2 M12.7 -48.7 Q9.45 -46.3 6.25 -43.4 4.0 -41.3 1.8 -39.05 2.55 -38.4 3.15 -37.65 5.7 -39.1 8.2 -40.7 9.4 -41.45 10.75 -41.85 L10.95 -41.95 Q13.6 -42.0 15.95 -41.05 L17.15 -40.15 Q17.65 -39.8 18.1 -39.55 L18.1 -39.6 18.15 -39.55 Q19.4 -42.2 21.35 -44.15 21.25 -44.15 21.1 -44.2 L20.9 -44.0 20.8 -44.05 20.8 -43.9 20.75 -43.8 20.6 -43.85 Q20.4 -44.05 20.35 -44.35 L20.25 -44.4 Q18.95 -44.45 17.35 -45.7 L15.75 -47.0 15.7 -46.9 12.75 -48.6 12.7 -48.7 M11.85 -40.75 Q12.75 -39.8 13.55 -38.6 15.05 -36.2 17.2 -34.3 19.1 -36.1 21.35 -37.3 18.45 -37.25 15.85 -39.5 14.5 -40.7 12.65 -40.7 L11.85 -40.75 M3.4 -44.65 L3.25 -44.6 3.2 -44.65 1.3 -44.5 Q0.85 -44.45 0.5 -44.05 L-0.8 -42.55 Q-0.95 -42.25 -1.2 -42.0 L-1.4 -41.9 -1.9 -41.3 Q-1.05 -40.9 -0.3 -40.45 0.5 -40.05 1.2 -39.5 2.65 -42.4 5.2 -44.65 4.3 -44.7 3.4 -44.65 M10.65 -40.85 Q6.95 -39.05 3.35 -36.2 2.65 -35.6 1.9 -35.3 5.15 -34.6 8.2 -33.65 L8.25 -33.7 8.5 -33.65 8.9 -33.55 Q9.1 -31.4 8.8 -29.3 8.6 -27.9 8.15 -26.65 L8.7 -26.65 8.65 -26.8 9.3 -26.85 9.55 -26.85 9.45 -26.6 10.9 -26.55 10.95 -26.55 Q10.95 -26.75 11.0 -26.9 L12.0 -26.9 Q13.55 -30.65 16.65 -33.75 L16.95 -34.05 Q15.7 -34.25 14.35 -35.65 12.3 -37.75 10.8 -40.25 10.65 -40.5 10.65 -40.85 M6.35 -45.6 L8.15 -47.0 Q6.65 -47.25 5.5 -46.15 L4.75 -45.5 Q5.2 -45.3 5.55 -45.0 L6.35 -45.6 M1.4 -36.45 L1.9 -36.9 2.4 -37.2 Q0.95 -37.4 -0.5 -38.35 -2.6 -39.7 -5.05 -40.3 -4.7 -39.4 -4.6 -38.3 -4.5 -37.15 -4.65 -36.05 L-3.3 -36.15 -2.5 -36.05 Q-1.4 -35.7 -0.35 -35.75 L0.7 -35.55 0.85 -35.75 0.15 -35.85 Q0.85 -35.95 1.55 -36.3 L1.4 -36.45 M0.3 -34.4 L-7.15 -35.25 Q-9.6 -34.85 -11.3 -32.6 -11.65 -32.15 -12.0 -31.9 L-12.15 -31.8 Q-12.3 -31.55 -12.5 -31.45 -11.9 -30.65 -11.4 -29.7 L-11.2 -29.25 -10.9 -29.05 Q-10.15 -29.6 -9.2 -30.0 L-8.95 -30.05 -8.25 -30.15 Q-6.25 -30.55 -4.25 -30.7 L-4.25 -30.75 Q-1.95 -30.7 0.35 -30.75 1.9 -30.85 3.2 -30.35 4.8 -31.65 6.8 -32.85 L7.9 -33.5 Q4.6 -33.2 0.95 -34.25 L0.3 -34.4 M2.4 -29.45 Q-0.1 -28.9 -3.1 -28.9 L-7.3 -28.65 -9.85 -28.4 -9.7 -28.25 Q-9.55 -27.95 -9.25 -27.65 -8.55 -26.95 -7.85 -26.3 L-7.6 -26.05 -7.35 -25.75 -7.3 -25.85 -6.9 -25.55 -7.15 -25.45 Q-6.7 -24.8 -6.4 -24.1 -4.05 -24.15 -1.8 -23.6 -0.45 -23.25 0.7 -22.7 L0.85 -23.1 0.85 -23.05 1.0 -24.2 Q1.1 -25.05 1.35 -25.7 1.4 -26.05 1.6 -26.25 L1.8 -26.6 3.05 -26.65 Q2.95 -27.1 2.9 -27.6 2.85 -28.35 2.85 -29.1 L2.85 -29.15 Q2.6 -29.2 2.4 -29.4 L2.4 -29.45 M3.95 -26.7 L4.75 -26.7 7.5 -26.65 Q7.0 -27.7 7.45 -29.3 7.8 -30.5 7.95 -31.75 6.25 -30.75 4.3 -29.7 L3.85 -29.45 Q3.85 -28.7 3.95 -28.0 4.0 -27.3 3.95 -26.7 M11.7 -26.55 L11.9 -26.5 11.95 -26.75 11.7 -26.55 M12.7 -26.45 L12.7 -26.55 12.65 -26.5 12.7 -26.45 M19.6 -29.5 L19.5 -29.5 Q20.25 -26.55 20.35 -23.2 L20.55 -18.4 20.8 -18.35 Q21.3 -18.2 21.5 -17.75 21.2 -15.4 21.15 -13.1 23.05 -13.5 24.9 -13.7 24.85 -16.45 25.15 -19.1 25.35 -20.9 26.05 -22.35 25.55 -22.9 25.2 -23.55 23.35 -24.9 21.6 -26.9 20.45 -28.15 19.6 -29.5 M18.55 -25.1 L18.4 -25.1 Q18.05 -24.75 17.35 -24.7 12.55 -24.3 7.8 -25.2 4.7 -25.8 2.25 -25.55 L2.2 -25.45 2.2 -25.15 2.05 -24.7 Q2.1 -24.3 1.95 -23.95 1.9 -23.75 1.9 -23.55 1.9 -23.45 1.85 -23.35 L1.85 -23.05 Q1.9 -22.6 1.75 -22.2 L1.7 -22.15 1.65 -21.85 1.65 -21.65 Q1.7 -21.2 1.6 -20.75 L1.5 -20.1 1.5 -19.5 Q1.45 -19.4 1.45 -19.3 L1.4 -17.5 Q1.35 -16.55 1.6 -15.8 2.45 -15.75 3.2 -16.4 L3.6 -16.75 3.85 -16.6 3.85 -16.65 3.9 -16.55 Q5.4 -15.55 6.55 -14.25 L7.3 -14.65 Q8.7 -15.5 10.45 -16.15 12.65 -17.0 14.95 -17.55 L14.9 -17.7 Q15.45 -17.8 16.0 -17.95 L15.95 -17.8 17.3 -18.05 19.55 -18.5 Q18.6 -19.45 18.6 -21.45 L18.55 -25.1 M12.75 -15.65 Q9.8 -14.45 6.85 -13.95 7.35 -13.35 7.75 -12.7 8.7 -11.25 9.4 -9.75 11.4 -9.6 13.45 -9.75 14.95 -9.85 16.05 -9.4 L16.1 -9.45 16.15 -9.35 16.65 -9.1 Q16.45 -8.95 16.25 -8.9 16.3 -8.45 16.2 -7.95 L20.2 -8.7 Q19.7 -10.7 20.1 -12.8 20.55 -15.0 20.45 -17.4 17.1 -16.85 13.85 -16.1 L12.75 -15.65 M3.4 -13.3 Q1.65 -10.1 0.45 -6.7 L0.0 -5.5 Q2.55 -4.55 5.0 -3.85 5.85 -5.6 6.95 -7.5 7.55 -8.55 8.25 -9.45 L8.3 -9.6 8.4 -9.65 8.55 -9.8 Q7.1 -11.2 6.0 -13.15 5.25 -14.45 4.05 -15.35 4.0 -14.45 3.4 -13.3 M3.3 -15.9 L2.8 -15.6 Q2.4 -14.8 1.35 -13.85 -0.55 -12.15 -2.35 -10.4 -5.45 -7.45 -8.1 -4.1 -3.25 -4.25 1.45 -3.55 L1.8 -3.65 Q0.3 -4.25 -1.25 -4.6 -0.45 -8.3 1.15 -11.9 2.1 -14.1 3.3 -15.9 M0.1 -19.15 Q0.15 -20.75 0.5 -22.05 -0.45 -21.85 -1.7 -22.35 -4.1 -23.3 -6.6 -23.1 -6.75 -22.8 -6.8 -22.4 -6.9 -21.75 -7.15 -21.1 L-7.7 -19.65 -8.1 -18.4 -8.15 -18.2 Q-8.15 -18.15 -8.15 -18.0 -8.5 -17.5 -9.2 -17.45 -11.55 -17.25 -13.6 -17.65 L-13.25 -17.3 -12.2 -15.95 -12.75 -14.45 Q-9.7 -14.15 -6.75 -13.15 -4.45 -12.4 -2.8 -11.15 L0.2 -14.1 Q-0.05 -16.6 0.1 -19.15 M7.9 -6.6 Q7.0 -5.05 5.75 -3.7 9.6 -4.35 13.7 -4.9 13.55 -4.9 13.45 -5.15 L13.4 -5.3 Q13.9 -5.55 14.5 -5.7 L14.95 -7.55 Q15.1 -8.1 15.4 -8.55 13.55 -8.05 11.15 -8.5 9.9 -8.7 8.9 -9.1 8.7 -8.0 7.9 -6.6 M18.8 -7.35 Q19.05 -6.95 18.9 -6.3 L18.8 -5.8 18.9 -5.7 19.0 -5.55 Q23.55 -5.15 28.2 -5.2 31.6 -5.3 34.55 -4.65 35.4 -7.6 37.25 -10.65 L39.3 -14.2 Q37.5 -14.8 35.5 -15.9 30.8 -18.5 26.65 -21.8 L26.6 -21.85 Q26.75 -19.65 26.15 -17.15 25.65 -15.0 25.85 -12.9 23.55 -12.15 21.15 -12.8 21.15 -11.25 21.3 -9.7 21.35 -8.55 20.45 -8.05 19.7 -7.6 18.8 -7.35 M17.8 -7.15 L17.1 -7.1 Q16.4 -7.05 16.0 -7.3 L15.7 -6.6 Q15.5 -6.3 15.4 -5.9 L17.65 -6.0 Q17.65 -6.3 17.7 -6.6 L17.8 -7.15 M41.25 -23.95 Q41.5 -23.4 41.85 -22.85 42.5 -21.9 43.2 -21.45 44.65 -19.65 46.25 -18.0 L46.75 -17.45 Q47.0 -18.5 47.8 -19.35 48.35 -19.55 48.85 -19.9 50.25 -20.8 50.5 -21.75 50.25 -22.95 49.9 -24.1 49.8 -24.4 49.6 -24.65 L49.45 -24.7 Q45.1 -24.3 41.05 -24.2 L41.25 -23.95 M40.7 -24.65 Q42.45 -25.4 44.6 -25.75 L48.15 -26.4 49.8 -26.3 49.9 -26.3 Q50.55 -27.05 51.25 -27.8 51.7 -28.25 52.25 -28.65 L52.2 -28.7 Q46.15 -28.25 40.7 -29.3 41.6 -28.1 41.25 -26.25 41.1 -25.4 40.7 -24.65 M40.1 -23.85 L40.05 -23.8 Q39.8 -23.9 39.7 -24.05 39.45 -24.45 39.45 -24.9 39.25 -24.95 39.05 -25.05 38.9 -25.1 38.8 -25.2 L38.85 -25.35 Q34.45 -26.25 29.9 -27.55 25.3 -28.8 21.0 -29.35 22.65 -28.05 24.2 -26.45 25.2 -25.35 25.95 -24.2 L26.0 -24.2 Q29.6 -20.3 34.7 -17.9 37.2 -16.7 39.2 -15.2 38.8 -16.45 38.55 -17.9 38.4 -19.05 38.55 -20.15 L38.35 -20.3 38.65 -20.55 38.7 -20.85 Q38.75 -21.1 39.0 -21.05 L39.05 -20.9 Q39.7 -21.3 40.55 -21.45 L41.6 -21.65 Q41.15 -22.65 40.4 -23.5 L40.1 -23.85 M39.35 -19.95 Q39.9 -18.15 40.35 -16.3 40.65 -15.1 40.45 -14.15 L40.9 -13.75 40.4 -13.85 Q40.25 -13.45 40.05 -13.1 39.9 -12.3 39.4 -11.4 38.3 -9.4 37.15 -7.4 L37.95 -7.65 Q39.9 -8.2 41.85 -8.5 41.7 -9.5 41.75 -10.65 L42.0 -20.45 42.05 -20.65 Q41.25 -20.2 40.3 -20.0 L39.35 -19.95 M43.6 -17.2 Q43.15 -12.7 43.2 -8.15 L43.25 -8.1 43.2 -8.05 43.2 -8.0 45.3 -5.0 Q45.7 -4.45 45.9 -3.9 L46.1 -4.05 Q46.35 -6.15 46.8 -8.35 47.3 -10.6 48.7 -12.5 L49.15 -12.65 Q48.3 -13.2 47.55 -14.4 45.8 -17.35 43.45 -19.85 43.7 -18.65 43.6 -17.2 M36.25 -5.85 L35.55 -4.65 Q35.4 -4.45 35.25 -4.3 36.5 -3.5 37.75 -2.55 38.4 -2.1 38.8 -1.6 40.55 -2.55 42.75 -3.15 L44.3 -3.5 Q43.55 -4.35 42.95 -5.45 42.4 -6.35 42.1 -7.35 40.3 -6.4 37.9 -6.0 L36.25 -5.85 M47.75 -30.15 Q50.05 -30.15 52.1 -29.65 L52.15 -29.65 52.3 -29.8 Q53.25 -29.2 53.9 -28.3 54.2 -27.9 54.4 -27.4 55.15 -26.85 55.9 -26.5 L57.0 -25.6 Q56.85 -26.85 56.7 -28.1 56.5 -30.1 56.55 -32.1 56.45 -32.2 56.15 -32.25 L56.0 -32.3 56.1 -32.15 56.1 -32.05 Q53.3 -31.8 50.25 -33.7 48.45 -34.8 47.1 -36.15 47.4 -34.25 47.8 -32.3 48.05 -31.0 47.75 -30.15 M55.6 -32.5 Q55.5 -32.5 55.7 -32.45 L55.6 -32.5 M51.95 -26.45 Q51.25 -25.9 50.6 -25.25 L51.1 -24.2 Q51.75 -22.8 51.75 -21.4 55.5 -19.25 59.05 -16.55 L63.95 -12.9 Q64.0 -14.3 64.35 -15.75 64.75 -17.35 64.95 -19.0 63.75 -19.0 62.3 -20.0 57.8 -23.05 53.55 -26.35 53.1 -26.7 52.75 -27.15 52.45 -26.8 51.95 -26.45 M65.8 -14.6 Q65.4 -13.55 65.35 -12.5 L65.45 -12.4 Q65.55 -12.2 65.5 -11.95 L65.35 -11.75 65.35 -11.55 65.05 -11.4 Q62.85 -8.75 61.0 -5.75 60.65 -5.2 60.3 -4.7 63.05 -5.8 65.6 -7.3 65.9 -7.5 66.15 -7.75 66.75 -10.35 67.55 -13.0 L67.6 -13.2 Q67.5 -14.05 67.1 -14.9 66.6 -15.6 66.3 -16.2 66.15 -15.4 65.8 -14.6 M51.8 -20.1 L51.5 -20.3 51.35 -20.25 Q51.15 -20.4 51.0 -20.55 L50.85 -20.6 Q49.85 -19.6 49.15 -18.4 48.5 -17.4 47.7 -16.95 L47.5 -16.8 47.35 -16.75 Q49.1 -14.6 50.2 -12.15 L49.75 -12.3 Q49.3 -10.0 48.45 -7.4 51.1 -5.45 54.35 -4.5 56.25 -3.9 57.95 -3.25 58.75 -6.05 60.7 -8.5 62.15 -10.3 63.9 -11.75 63.9 -12.05 63.9 -12.3 62.6 -12.45 61.1 -13.65 57.4 -16.55 53.45 -19.3 L52.35 -20.05 Q52.1 -19.9 51.8 -20.1 M48.1 -6.45 Q48.55 -6.15 49.0 -6.0 48.55 -6.25 48.15 -6.6 L48.1 -6.45 M48.3 -5.3 Q48.05 -5.45 47.8 -5.6 L47.45 -4.75 Q48.0 -4.95 48.7 -5.1 L48.3 -5.3 M-46.2 -8.3 Q-47.4 -6.6 -48.75 -4.9 -47.45 -4.05 -46.0 -3.5 -45.55 -3.35 -45.05 -3.35 -44.7 -4.05 -44.75 -4.85 -44.8 -5.65 -44.65 -6.45 -43.05 -7.2 -41.45 -7.7 -42.5 -8.5 -43.35 -9.7 -44.2 -10.8 -44.7 -11.85 -44.9 -10.2 -46.2 -8.3 M-7.5 -42.8 L-7.45 -42.8 Q-5.1 -42.55 -2.95 -41.7 L-2.45 -42.2 Q-2.8 -42.5 -3.25 -42.75 -6.5 -42.75 -10.1 -43.75 -11.6 -44.15 -13.05 -43.95 -13.85 -43.8 -14.65 -43.35 -15.75 -42.7 -16.85 -42.2 L-16.9 -42.2 Q-19.25 -40.3 -21.85 -40.0 -21.1 -39.05 -20.75 -37.8 -20.35 -36.6 -19.95 -35.4 -19.3 -36.6 -19.3 -37.6 L-18.8 -37.85 -18.6 -38.1 -18.55 -37.95 Q-15.6 -39.4 -12.5 -40.75 -10.15 -41.75 -8.0 -42.9 L-7.5 -42.8 M-6.9 -41.05 Q-10.05 -40.45 -13.35 -38.7 -15.8 -37.4 -18.3 -36.85 -18.1 -34.95 -19.0 -32.8 -19.65 -31.25 -20.75 -30.95 -18.95 -30.65 -17.15 -30.2 -15.85 -29.85 -15.0 -29.2 -14.0 -28.7 -13.25 -27.9 -12.75 -28.25 -12.2 -28.6 -12.7 -29.25 -13.1 -30.1 -13.4 -30.75 -13.35 -31.25 L-13.55 -31.3 Q-13.55 -32.1 -12.8 -32.7 -12.2 -33.2 -11.6 -33.75 L-10.65 -34.7 Q-9.85 -35.45 -9.0 -36.35 -8.7 -36.6 -8.4 -36.7 L-6.8 -36.4 -5.8 -36.2 Q-6.25 -37.75 -6.45 -39.4 -6.6 -40.2 -6.5 -40.8 L-6.9 -41.05 M-11.5 -27.85 L-14.85 -25.35 Q-15.95 -24.5 -17.0 -23.6 -16.95 -22.85 -16.45 -22.15 -16.15 -21.75 -16.05 -21.3 -15.3 -20.85 -14.95 -19.85 -14.75 -19.2 -14.75 -18.5 L-14.7 -18.8 -13.95 -18.65 -13.95 -18.55 -13.9 -18.55 Q-11.55 -18.5 -9.25 -18.5 L-8.8 -18.5 -8.7 -18.8 Q-8.35 -19.65 -8.2 -20.6 -8.1 -21.05 -7.95 -21.5 L-8.05 -21.55 -7.8 -22.5 -7.7 -22.3 Q-7.6 -22.75 -7.5 -23.2 -7.4 -23.6 -7.15 -23.8 -7.95 -24.35 -8.6 -25.3 -9.0 -25.7 -9.3 -26.25 L-9.5 -26.55 Q-10.25 -27.4 -11.3 -28.0 L-11.45 -27.75 -11.5 -27.85 M-16.75 -27.85 Q-21.1 -28.95 -25.3 -29.65 -25.45 -28.2 -26.65 -26.65 -27.45 -25.6 -28.45 -25.15 L-28.65 -24.95 Q-30.5 -22.9 -32.4 -20.9 L-29.55 -21.05 Q-27.55 -21.25 -26.3 -20.4 L-26.3 -20.3 Q-26.25 -20.25 -26.25 -20.2 L-26.4 -19.9 Q-26.45 -19.65 -26.6 -19.45 -25.55 -18.8 -24.45 -18.2 L-24.4 -18.45 Q-24.25 -18.8 -24.2 -19.2 L-24.25 -19.25 -24.4 -19.45 -24.4 -19.55 -24.1 -19.8 Q-24.1 -20.1 -24.1 -20.5 -24.1 -20.75 -23.85 -20.9 -23.05 -20.85 -22.25 -20.85 -20.25 -21.75 -17.75 -21.75 -18.0 -22.15 -18.15 -22.75 -18.3 -23.2 -18.25 -23.65 -17.7 -24.2 -17.5 -25.15 L-17.4 -25.4 Q-17.05 -25.75 -16.5 -26.05 -15.45 -26.55 -14.5 -27.15 -15.6 -27.6 -16.75 -27.85 M-20.6 -33.85 Q-21.95 -34.5 -22.35 -36.75 -22.55 -38.2 -23.0 -39.65 -23.25 -39.75 -23.6 -39.45 -23.8 -39.25 -23.9 -39.0 -23.05 -36.8 -23.7 -34.05 -24.05 -32.5 -23.95 -31.05 L-23.5 -31.15 -22.9 -31.2 -22.9 -31.15 -21.9 -31.05 Q-21.15 -32.4 -20.6 -33.85 M-6.05 -29.6 L-6.55 -29.6 -6.6 -29.55 Q-6.4 -29.55 -6.15 -29.55 L-6.05 -29.6 M-22.5 -40.65 L-22.25 -40.75 -22.55 -40.7 -22.5 -40.65 M-37.25 -28.25 Q-36.65 -27.3 -36.3 -26.2 -35.8 -24.7 -35.85 -23.15 -35.95 -23.0 -36.15 -22.9 L-36.0 -22.9 -35.55 -23.2 -35.6 -23.3 Q-34.55 -23.8 -33.45 -24.35 -30.95 -25.55 -28.8 -27.3 L-28.8 -27.15 -28.05 -27.5 Q-28.65 -27.75 -29.15 -28.45 L-29.45 -28.95 Q-30.1 -29.9 -30.75 -30.8 L-30.6 -30.95 -31.0 -31.4 Q-31.9 -32.55 -32.15 -33.55 -32.75 -31.15 -34.95 -29.7 -35.55 -29.3 -36.15 -29.05 L-36.5 -28.75 Q-36.85 -28.5 -37.25 -28.25 M-25.4 -35.0 Q-25.55 -34.8 -25.85 -34.8 L-27.2 -34.65 -30.9 -34.1 Q-29.4 -32.8 -28.3 -31.15 -27.65 -30.15 -27.5 -29.15 L-27.35 -28.9 -27.1 -29.3 Q-26.25 -29.85 -25.25 -30.2 L-25.1 -30.25 -26.4 -30.05 -26.35 -30.15 Q-26.1 -30.75 -25.35 -30.85 L-24.8 -30.9 Q-25.9 -32.6 -25.3 -35.05 L-25.4 -35.0 M-29.95 -25.3 Q-33.75 -23.5 -37.25 -21.15 -38.3 -20.4 -39.45 -20.15 -38.95 -19.55 -38.85 -18.7 -38.75 -18.15 -38.85 -17.65 -37.4 -17.6 -35.95 -17.65 L-34.85 -17.6 -34.3 -17.7 -34.05 -18.65 -34.1 -18.65 -33.85 -19.65 -33.8 -19.6 -33.75 -19.8 -33.8 -19.9 -33.75 -20.15 -33.7 -20.15 -33.95 -20.25 Q-32.5 -22.6 -30.35 -24.85 L-29.95 -25.3 M-28.35 -19.45 L-32.75 -19.7 -32.75 -19.6 -32.8 -19.45 -32.85 -19.35 Q-33.15 -18.5 -33.35 -17.65 -33.25 -17.6 -33.25 -17.5 L-33.4 -17.4 -33.5 -17.05 -33.6 -16.65 Q-33.85 -16.1 -34.4 -16.3 -34.55 -16.4 -34.6 -16.6 L-34.6 -16.7 Q-36.7 -15.75 -39.45 -15.75 -40.1 -15.8 -40.6 -15.3 -41.5 -14.5 -42.45 -14.0 L-43.75 -12.95 Q-41.7 -12.1 -40.45 -10.2 -39.75 -9.15 -39.65 -8.1 -37.85 -8.45 -36.15 -8.4 -36.25 -9.45 -35.95 -10.25 -36.15 -11.0 -35.15 -12.1 -32.1 -15.5 -28.9 -18.8 L-28.2 -19.4 -28.35 -19.45 M-31.8 -14.5 Q-33.75 -12.95 -35.05 -10.85 -32.3 -10.2 -30.0 -8.55 L-27.15 -6.5 Q-27.05 -10.2 -27.1 -14.05 -27.15 -16.9 -27.6 -19.15 L-27.85 -19.25 Q-28.95 -16.7 -31.8 -14.5 M-23.05 -18.75 Q-23.3 -18.3 -23.3 -17.8 -23.3 -17.65 -23.3 -17.6 L-22.95 -17.4 Q-22.9 -17.1 -22.7 -16.95 L-22.2 -16.85 -22.15 -17.0 Q-21.6 -16.65 -21.15 -16.55 L-21.2 -16.5 Q-19.35 -15.65 -17.65 -14.55 -17.45 -15.15 -17.2 -15.75 -16.9 -16.35 -16.55 -16.85 -16.3 -17.25 -16.15 -17.7 L-16.0 -18.0 -15.85 -17.9 -15.8 -17.9 Q-16.0 -18.1 -16.05 -18.45 -16.25 -19.2 -16.5 -20.0 -19.6 -19.7 -22.8 -19.1 L-23.05 -18.75 M-27.25 -18.95 Q-25.6 -15.55 -25.85 -11.25 -26.0 -8.65 -26.7 -6.2 L-26.65 -6.15 Q-24.9 -7.05 -23.4 -8.3 -21.9 -9.5 -20.4 -9.95 -19.6 -11.4 -18.65 -12.85 L-17.8 -14.15 Q-21.65 -15.15 -25.3 -17.8 -26.3 -18.5 -27.25 -18.95 M-33.7 -7.05 Q-33.6 -6.4 -33.55 -5.75 L-33.35 -5.65 -33.05 -5.7 Q-31.0 -4.8 -28.85 -4.3 -27.7 -4.05 -27.3 -3.4 -25.2 -4.1 -22.8 -4.4 L-23.0 -4.6 Q-22.1 -6.8 -20.95 -8.9 -23.45 -6.6 -26.85 -5.8 L-26.85 -5.65 Q-26.9 -5.55 -27.15 -5.5 L-27.15 -5.7 -27.25 -5.7 Q-27.4 -5.65 -27.7 -5.85 -31.1 -8.05 -34.6 -9.9 -33.9 -8.55 -33.7 -7.05 M-43.45 -3.5 Q-41.25 -3.25 -39.1 -3.55 -37.25 -3.8 -36.2 -3.2 -36.0 -3.7 -35.6 -4.1 L-34.95 -4.75 Q-35.75 -5.75 -36.05 -7.5 -39.45 -6.2 -43.3 -5.4 -43.4 -4.5 -43.45 -3.6 L-43.45 -3.5 M-35.15 -2.4 Q-32.95 -2.35 -30.3 -2.5 L-30.2 -2.5 Q-30.6 -2.65 -30.95 -2.8 -32.15 -3.35 -33.15 -3.85 -33.45 -3.5 -33.95 -3.15 -34.55 -2.7 -35.15 -2.4 M-15.25 -17.3 Q-16.5 -13.8 -18.8 -10.45 -20.5 -7.9 -21.9 -5.15 -19.25 -3.95 -16.3 -3.1 -16.3 -5.05 -15.7 -7.4 -14.85 -10.7 -14.0 -14.05 -14.05 -14.25 -13.95 -14.35 L-13.9 -14.35 -13.5 -15.85 -13.5 -15.95 Q-13.75 -16.4 -14.2 -16.7 -14.7 -17.0 -15.25 -17.3 M-15.65 -2.4 L-9.1 -2.6 Q-8.25 -2.6 -7.4 -2.95 L-7.1 -3.1 -8.9 -3.25 Q-9.0 -5.4 -6.75 -7.45 -4.85 -9.2 -3.0 -11.0 -4.95 -11.05 -7.45 -11.75 L-13.1 -13.35 Q-13.75 -10.95 -14.05 -8.5 -14.4 -5.35 -15.7 -2.7 -15.6 -2.55 -15.65 -2.4" fill="#ccfffe" fill-rule="evenodd" stroke="none"/>
    </g>
    <g id="shape1" transform="matrix(1.0, 0.0, 0.0, 1.0, 44.95, 12.45)">
      <path d="M-18.45 -0.5 L-18.4 -0.8 Q-17.55 -0.8 -16.75 -0.35 -14.85 0.85 -13.95 2.7 -15.7 3.35 -17.4 4.15 -19.0 4.9 -20.6 4.95 -20.55 4.85 -20.6 4.7 -21.0 3.4 -20.25 2.45 -18.85 0.7 -18.15 -0.65 L-18.45 -0.5" fill="#b5fffe" fill-rule="evenodd" stroke="none"/>
      <path d="M17.25 -10.45 L17.1 -10.1 Q16.5 -8.5 16.3 -6.9 16.5 -6.6 16.8 -6.7 17.1 -4.45 18.55 -2.95 L18.75 -2.5 Q18.8 -2.4 18.9 -2.35 15.65 -1.9 12.35 -3.45 12.1 -4.5 12.1 -5.6 L12.1 -7.0 Q12.1 -7.75 12.15 -8.45 13.5 -8.95 14.85 -9.5 L17.25 -10.45 M18.95 -11.0 Q19.3 -10.85 19.55 -10.55 21.45 -8.15 24.85 -8.8 25.0 -8.65 24.95 -8.45 24.95 -7.85 25.05 -7.25 25.2 -6.7 25.35 -6.15 25.55 -5.45 25.3 -4.75 23.6 -3.95 21.8 -3.2 20.8 -2.75 19.8 -2.5 19.5 -4.65 18.9 -6.85 18.35 -8.9 18.95 -11.0 M8.45 -2.1 Q9.55 -2.9 11.05 -3.3 12.85 -1.7 13.4 0.55 13.9 2.55 14.85 4.4 10.45 5.85 6.1 6.35 7.65 4.7 8.95 2.85 10.75 0.2 8.45 -2.1 M0.55 -0.05 L2.45 -0.2 Q3.25 0.6 3.9 1.5 4.75 2.6 5.75 2.05 L5.55 1.7 Q6.25 1.4 6.7 0.25 7.0 -0.4 7.35 -0.9 7.55 -0.45 7.95 0.05 8.25 0.45 8.1 0.7 6.65 3.05 5.35 5.5 L5.25 5.4 0.4 5.2 -3.4 5.05 Q-2.3 4.3 -1.4 2.95 -0.6 1.85 -0.05 0.55 0.3 0.25 0.55 -0.05 M48.1 -0.85 Q48.55 -1.9 49.45 -2.85 50.55 -4.1 51.6 -5.45 52.3 -5.15 53.0 -4.65 54.15 -3.7 54.35 -2.6 54.8 -2.15 55.1 -1.65 55.45 -1.1 55.8 -0.6 L53.9 0.6 Q50.9 2.45 48.1 -0.85 M27.5 -2.45 Q29.1 -2.95 30.45 -2.95 29.5 -1.95 28.85 -0.65 27.75 1.55 27.65 3.85 25.45 3.35 23.5 3.35 L23.0 2.95 Q23.65 -1.25 27.5 -2.45 M32.4 -2.7 L32.6 -2.6 Q33.35 -2.3 33.95 -1.75 34.7 -1.1 35.25 -0.05 35.3 0.4 35.45 0.85 L35.6 1.15 Q35.5 1.35 35.45 1.55 L35.25 2.0 Q33.6 2.7 31.9 3.7 30.85 4.35 29.8 4.3 30.3 2.05 31.45 0.05 32.25 -1.45 32.4 -2.7 M57.3 -4.45 L57.4 -4.35 Q58.25 -3.6 58.7 -2.6 58.95 -2.1 59.35 -1.65 58.5 -1.1 57.5 -0.8 L57.1 -0.7 Q57.2 -1.0 57.2 -1.35 56.35 -2.2 55.6 -3.15 L55.9 -3.45 Q56.5 -4.15 57.3 -4.45 M-36.35 -1.55 L-36.5 -2.2 Q-36.25 -2.65 -36.3 -3.25 L-36.3 -3.3 Q-35.5 -3.9 -34.6 -4.4 L-33.8 -4.9 -29.95 -5.95 Q-30.15 -5.55 -30.3 -5.1 -30.85 -3.5 -31.9 -2.25 -34.2 -3.05 -36.25 -2.4 L-31.55 -0.95 -29.95 -3.25 Q-29.1 -4.55 -29.05 -5.65 -28.2 -4.4 -27.6 -3.0 -27.0 -1.75 -26.25 -0.9 L-25.85 -0.25 Q-25.95 0.3 -25.3 0.75 L-25.15 0.7 -25.1 0.75 -25.1 0.7 Q-25.05 0.65 -25.0 0.6 L-24.85 0.3 -24.4 0.5 -24.5 0.2 Q-24.2 0.15 -23.9 -0.15 -23.3 -0.75 -22.65 -0.8 L-20.65 -0.8 Q-20.25 -0.45 -19.9 -0.55 L-19.5 -0.7 Q-20.7 0.35 -21.65 1.75 -23.45 4.45 -21.35 4.95 -22.55 4.85 -23.8 4.4 -25.25 3.85 -26.55 3.75 -26.0 3.45 -25.5 3.1 -25.6 3.0 -25.7 2.95 L-27.55 2.6 Q-28.05 2.5 -28.6 2.6 L-31.8 3.0 -32.8 3.15 Q-33.0 2.7 -33.55 2.5 L-33.6 2.5 Q-34.2 1.35 -35.4 0.6 -36.35 1.1 -35.1 1.95 -34.5 2.35 -34.05 3.05 L-34.1 3.2 -34.1 3.35 Q-34.15 3.45 -34.15 3.6 -34.3 3.7 -34.35 3.85 -36.2 4.15 -38.0 3.85 -40.85 3.35 -43.05 3.75 L-43.0 3.6 Q-42.75 1.55 -41.35 0.35 -39.55 -1.2 -37.35 -1.15 -37.2 -1.0 -37.0 -0.95 L-36.6 -0.95 Q-36.55 -0.95 -36.5 -1.0 -36.25 -1.25 -36.35 -1.55 M-11.7 -0.4 L-11.65 -0.45 Q-11.5 -0.7 -11.6 -1.0 -12.0 -1.9 -12.15 -2.85 -12.25 -3.45 -12.05 -4.0 -11.25 -4.45 -10.5 -5.1 -9.2 -6.2 -7.75 -6.95 -7.95 -5.95 -8.3 -5.0 -8.8 -3.55 -8.85 -2.0 -8.4 -1.6 -8.15 -1.1 -7.3 0.55 -6.1 1.1 L-5.95 1.25 Q-8.85 0.7 -11.7 -0.4 M-5.95 -5.1 L-5.9 -5.1 Q-5.55 -4.75 -5.0 -4.65 L-4.8 -4.85 Q-3.95 -4.75 -3.1 -4.95 L-2.2 -4.2 -1.15 -2.25 Q-0.8 -1.6 -0.55 -0.85 L-0.7 -0.55 -1.65 0.35 Q-2.8 0.45 -4.05 1.1 -4.65 1.4 -5.2 1.35 L-4.95 1.35 Q-5.3 0.55 -5.7 -0.1 L-5.9 -0.4 Q-6.15 -0.85 -6.4 -1.3 -6.7 -1.75 -6.75 -2.15 -6.95 -4.75 -6.9 -7.3 L-6.25 -5.65 -6.05 -5.3 Q-6.05 -5.15 -5.95 -5.1" fill="#ccfffe" fill-opacity="0.7529412" fill-rule="evenodd" stroke="none"/>
      <path d="M1.05 -1.5 Q3.0 -1.65 4.15 -0.25 4.5 0.15 4.8 0.6 5.1 0.05 5.5 -0.45 6.35 -1.65 6.95 -3.0 8.7 -3.35 10.25 -4.2 10.65 -4.4 11.0 -4.5 10.65 -5.6 10.6 -6.9 10.5 -9.55 12.95 -10.25 15.65 -11.05 18.25 -12.1 L18.6 -12.45 18.9 -12.4 Q19.1 -12.35 19.3 -12.25 L19.4 -12.15 19.35 -12.0 Q20.5 -11.3 21.7 -10.4 22.05 -10.1 22.75 -10.15 24.25 -10.2 25.6 -9.8 26.25 -8.75 26.2 -7.5 26.2 -7.15 26.3 -6.8 26.5 -6.1 26.6 -5.35 26.65 -4.85 26.8 -4.3 22.6 -1.4 17.7 -1.4 15.1 -1.4 12.95 -2.55 15.15 0.2 15.65 4.1 15.85 5.8 14.05 6.6 8.9 8.8 4.0 6.6 2.7 6.7 1.3 6.55 -1.75 6.2 -4.45 5.55 L-4.5 5.6 -4.5 5.55 -4.8 5.45 -4.9 5.4 Q-4.85 5.25 -4.75 5.2 L-4.6 5.1 -4.45 5.05 Q-4.2 3.75 -3.35 2.45 -6.25 3.4 -9.4 2.0 -11.5 1.1 -12.4 -0.25 -12.55 -0.3 -12.7 -0.5 -13.95 -2.8 -12.7 -4.7 -12.25 -5.35 -11.5 -5.95 -9.45 -7.5 -7.35 -8.75 -6.25 -8.7 -5.6 -7.75 -5.15 -7.15 -4.95 -6.35 -4.85 -6.4 -4.75 -6.45 -4.35 -6.75 -3.8 -6.75 L-3.55 -6.7 -2.7 -6.1 Q-0.7 -5.7 0.2 -3.65 0.45 -3.1 0.55 -2.6 L0.7 -2.35 Q1.0 -1.9 1.05 -1.5 M0.55 -0.05 Q0.3 0.25 -0.05 0.55 -0.6 1.85 -1.4 2.95 -2.3 4.3 -3.4 5.05 L0.4 5.2 5.25 5.4 5.35 5.5 Q6.65 3.05 8.1 0.7 8.25 0.45 7.95 0.05 7.55 -0.45 7.35 -0.9 7.0 -0.4 6.7 0.25 6.25 1.4 5.55 1.7 L5.75 2.05 Q4.75 2.6 3.9 1.5 3.25 0.6 2.45 -0.2 L0.55 -0.05 M8.45 -2.1 Q10.75 0.2 8.95 2.85 7.65 4.7 6.1 6.35 10.45 5.85 14.85 4.4 13.9 2.55 13.4 0.55 12.85 -1.7 11.05 -3.3 9.55 -2.9 8.45 -2.1 M18.95 -11.0 Q18.35 -8.9 18.9 -6.85 19.5 -4.65 19.8 -2.5 20.8 -2.75 21.8 -3.2 23.6 -3.95 25.3 -4.75 25.55 -5.45 25.35 -6.15 25.2 -6.7 25.05 -7.25 24.95 -7.85 24.95 -8.45 25.0 -8.65 24.85 -8.8 21.45 -8.15 19.55 -10.55 19.3 -10.85 18.95 -11.0 M17.25 -10.45 L14.85 -9.5 Q13.5 -8.95 12.15 -8.45 12.1 -7.75 12.1 -7.0 L12.1 -5.6 Q12.1 -4.5 12.35 -3.45 15.65 -1.9 18.9 -2.35 18.8 -2.4 18.75 -2.5 L18.55 -2.95 Q17.1 -4.45 16.8 -6.7 16.5 -6.6 16.3 -6.9 16.5 -8.5 17.1 -10.1 L17.25 -10.45 M28.0 -4.05 L28.2 -4.05 29.8 -4.3 30.75 -4.5 Q31.35 -4.4 31.95 -4.2 L32.15 -4.35 32.2 -4.15 Q35.2 -3.45 36.45 -0.4 37.45 2.15 35.8 3.15 35.45 3.8 33.9 4.5 31.6 5.45 29.35 6.55 28.6 6.95 28.55 6.5 27.65 6.65 26.45 6.15 23.85 5.15 21.45 3.8 L21.5 3.5 21.4 3.45 21.25 3.2 Q21.8 0.75 23.3 -1.45 24.9 -3.75 28.0 -4.05 M32.4 -2.7 Q32.25 -1.45 31.45 0.05 30.3 2.05 29.8 4.3 30.85 4.35 31.9 3.7 33.6 2.7 35.25 2.0 L35.45 1.55 Q35.5 1.35 35.6 1.15 L35.45 0.85 Q35.3 0.4 35.25 -0.05 34.7 -1.1 33.95 -1.75 33.35 -2.3 32.6 -2.6 L32.4 -2.7 M27.5 -2.45 Q23.65 -1.25 23.0 2.95 L23.5 3.35 Q25.45 3.35 27.65 3.85 27.75 1.55 28.85 -0.65 29.5 -1.95 30.45 -2.95 29.1 -2.95 27.5 -2.45 M48.1 -0.85 Q50.9 2.45 53.9 0.6 L55.8 -0.6 Q55.45 -1.1 55.1 -1.65 54.8 -2.15 54.35 -2.6 54.15 -3.7 53.0 -4.65 52.3 -5.15 51.6 -5.45 50.55 -4.1 49.45 -2.85 48.55 -1.9 48.1 -0.85 M51.45 -6.8 Q53.4 -5.95 54.75 -4.25 L55.05 -4.5 Q55.95 -5.2 56.85 -5.8 58.8 -5.45 59.75 -3.45 60.35 -2.2 61.1 -1.1 59.7 0.25 57.8 0.8 57.0 1.05 56.35 0.9 55.95 1.35 55.35 1.8 53.85 2.85 52.25 3.6 52.0 3.7 51.65 3.65 50.5 2.3 48.8 1.25 47.35 0.35 46.1 -0.85 46.85 -2.35 48.15 -3.8 49.7 -5.45 51.45 -6.8 M57.3 -4.45 Q56.5 -4.15 55.9 -3.45 L55.6 -3.15 Q56.35 -2.2 57.2 -1.35 57.2 -1.0 57.1 -0.7 L57.5 -0.8 Q58.5 -1.1 59.35 -1.65 58.95 -2.1 58.7 -2.6 58.25 -3.6 57.4 -4.35 L57.3 -4.45 M-42.35 -1.65 Q-41.85 -2.3 -41.15 -2.5 L-39.15 -2.3 Q-38.75 -2.25 -38.45 -2.1 L-37.95 -1.95 -37.65 -1.8 Q-37.85 -4.05 -36.45 -5.1 -35.55 -6.0 -33.9 -6.55 -32.0 -7.2 -30.15 -7.95 -28.4 -7.1 -27.15 -5.45 -26.4 -4.6 -25.85 -3.3 L-25.7 -2.9 Q-25.3 -2.1 -25.0 -1.3 L-23.2 -2.9 Q-22.8 -3.25 -22.35 -3.3 -21.45 -3.15 -20.7 -2.55 -20.1 -2.05 -19.5 -1.5 -16.35 -3.2 -13.65 0.05 -10.65 3.6 -16.05 5.2 -18.85 6.0 -21.65 6.45 -23.55 6.7 -25.4 6.05 -27.0 5.45 -27.75 4.25 -29.65 4.85 -32.3 4.75 -32.7 4.75 -33.15 4.75 L-33.5 5.1 Q-39.25 5.95 -44.45 4.15 L-44.0 4.0 Q-44.1 3.85 -44.2 3.6 L-44.6 2.1 Q-44.7 1.8 -44.85 1.5 -45.05 1.25 -44.9 0.95 -44.45 0.4 -43.85 -0.05 -42.95 -0.7 -42.35 -1.65 M-36.35 -1.55 Q-36.25 -1.25 -36.5 -1.0 -36.55 -0.95 -36.6 -0.95 L-37.0 -0.95 Q-37.2 -1.0 -37.35 -1.15 -39.55 -1.2 -41.35 0.35 -42.75 1.55 -43.0 3.6 L-43.05 3.75 Q-40.85 3.35 -38.0 3.85 -36.2 4.15 -34.35 3.85 -34.3 3.7 -34.15 3.6 -34.15 3.45 -34.1 3.35 L-34.1 3.2 -34.05 3.05 Q-34.5 2.35 -35.1 1.95 -36.35 1.1 -35.4 0.6 -34.2 1.35 -33.6 2.5 L-33.55 2.5 Q-33.0 2.7 -32.8 3.15 L-31.8 3.0 -28.6 2.6 Q-28.05 2.5 -27.55 2.6 L-25.7 2.95 Q-25.6 3.0 -25.5 3.1 -26.0 3.45 -26.55 3.75 -25.25 3.85 -23.8 4.4 -22.55 4.85 -21.35 4.95 -23.45 4.45 -21.65 1.75 -20.7 0.35 -19.5 -0.7 L-19.9 -0.55 Q-20.25 -0.45 -20.65 -0.8 L-22.65 -0.8 Q-23.3 -0.75 -23.9 -0.15 -24.2 0.15 -24.5 0.2 L-24.4 0.5 -24.85 0.3 -25.0 0.6 Q-25.05 0.65 -25.1 0.7 L-25.1 0.75 -25.15 0.7 -25.3 0.75 Q-25.95 0.3 -25.85 -0.25 L-26.25 -0.9 Q-27.0 -1.75 -27.6 -3.0 -28.2 -4.4 -29.05 -5.65 -29.1 -4.55 -29.95 -3.25 L-31.55 -0.95 -36.25 -2.4 Q-34.2 -3.05 -31.9 -2.25 -30.85 -3.5 -30.3 -5.1 -30.15 -5.55 -29.95 -5.95 L-33.8 -4.9 -34.6 -4.4 Q-35.5 -3.9 -36.3 -3.3 L-36.3 -3.25 Q-36.25 -2.65 -36.5 -2.2 L-36.35 -1.55 M-18.45 -0.5 L-18.15 -0.65 Q-18.85 0.7 -20.25 2.45 -21.0 3.4 -20.6 4.7 -20.55 4.85 -20.6 4.95 -19.0 4.9 -17.4 4.15 -15.7 3.35 -13.95 2.7 -14.85 0.85 -16.75 -0.35 -17.55 -0.8 -18.4 -0.8 L-18.45 -0.5 M-11.7 -0.4 Q-8.85 0.7 -5.95 1.25 L-6.1 1.1 Q-7.3 0.55 -8.15 -1.1 -8.4 -1.6 -8.85 -2.0 -8.8 -3.55 -8.3 -5.0 -7.95 -5.95 -7.75 -6.95 -9.2 -6.2 -10.5 -5.1 -11.25 -4.45 -12.05 -4.0 -12.25 -3.45 -12.15 -2.85 -12.0 -1.9 -11.6 -1.0 -11.5 -0.7 -11.65 -0.45 L-11.7 -0.4 M-6.9 -7.75 L-6.9 -7.75 M-5.95 -5.1 Q-6.05 -5.15 -6.05 -5.3 L-6.25 -5.65 -6.9 -7.3 Q-6.95 -4.75 -6.75 -2.15 -6.7 -1.75 -6.4 -1.3 -6.15 -0.85 -5.9 -0.4 L-5.7 -0.1 Q-5.3 0.55 -4.95 1.35 L-5.2 1.35 Q-4.65 1.4 -4.05 1.1 -2.8 0.45 -1.65 0.35 L-0.7 -0.55 -0.55 -0.85 Q-0.8 -1.6 -1.15 -2.25 L-2.2 -4.2 -3.1 -4.95 Q-3.95 -4.75 -4.8 -4.85 L-5.0 -4.65 Q-5.55 -4.75 -5.9 -5.1 L-5.95 -5.1" fill="#ccfffe" fill-rule="evenodd" stroke="none"/>
    </g>
  </defs>
</svg>
