<?xml version="1.0" encoding="UTF-8" standalone="no"?>
<svg xmlns:ffdec="https://www.free-decompiler.com/flash" xmlns:xlink="http://www.w3.org/1999/xlink" ffdec:objectType="frame" height="117.8px" width="499.35px" xmlns="http://www.w3.org/2000/svg">
  <g transform="matrix(1.0, 0.0, 0.0, 1.0, 0.6, 2.8)">
    <use ffdec:characterId="1496" height="117.8" transform="matrix(1.0, 0.0, 0.0, 1.0, -0.6, -2.8)" width="499.35" xlink:href="#shape0"/>
  </g>
  <defs>
    <g id="shape0" transform="matrix(1.0, 0.0, 0.0, 1.0, 0.6, 2.8)">
      <path d="M305.9 1.9 Q315.55 4.3 319.7 5.9 321.8 6.7 321.95 7.05 L324.25 6.45 323.75 2.65 344.6 1.95 365.55 3.05 389.8 8.0 391.1 8.7 402.85 11.95 Q403.25 10.6 409.95 9.85 L416.6 9.35 473.55 12.25 492.45 12.05 Q493.05 14.8 495.15 32.7 497.4 51.35 497.4 54.65 L496.4 64.95 497.8 72.05 497.5 72.55 Q497.15 73.25 497.1 74.2 L495.35 74.45 495.2 72.75 492.25 72.75 436.2 75.3 419.85 75.1 419.85 72.2 Q469.35 71.2 493.9 71.0 L489.6 24.85 481.05 20.85 471.4 19.1 444.65 16.55 434.85 15.65 433.05 15.55 433.05 14.3 433.05 12.25 424.5 12.0 417.65 11.9 414.55 12.0 407.95 13.6 404.25 14.6 398.85 14.35 Q399.5 14.35 399.9 25.1 399.9 30.05 398.45 35.0 397.0 39.8 395.15 41.7 L396.9 13.95 388.6 10.45 372.85 8.25 335.2 9.5 335.15 9.5 324.3 10.6 324.0 10.55 321.3 9.8 321.1 14.1 Q321.1 15.6 322.55 20.75 324.05 26.1 325.25 28.35 L323.85 29.05 Q324.3 25.0 319.85 17.45 315.4 9.95 311.05 7.3 L309.6 6.8 Q300.65 5.35 280.4 4.45 256.7 3.35 241.25 4.45 242.35 3.65 238.15 3.25 L228.7 3.55 Q214.05 5.55 214.2 13.45 L214.25 13.55 214.1 16.45 209.95 14.95 Q207.7 12.65 201.6 11.65 L195.95 11.05 197.15 11.7 Q166.25 10.65 141.15 15.0 L126.3 17.85 Q117.45 19.95 112.75 24.5 L111.75 24.95 111.7 25.6 110.35 27.3 Q108.9 29.4 108.35 31.65 108.05 32.8 108.05 33.5 L107.15 33.7 106.7 33.55 106.65 33.5 100.4 18.05 Q95.0 21.7 94.0 21.7 L90.9 21.5 91.0 20.0 85.2 19.05 82.9 18.85 38.7 17.75 9.7 19.25 14.0 23.5 10.2 23.55 5.85 69.25 7.0 66.2 9.2 67.15 9.2 67.8 9.25 70.1 9.25 70.45 9.3 70.45 Q9.8 74.25 12.4 78.3 L16.25 84.2 35.5 80.9 33.95 82.3 17.55 90.45 4.6 84.5 0.85 89.95 0.7 85.45 Q1.9 81.0 2.55 71.7 L2.9 63.2 2.5 58.45 1.6 51.55 Q-0.6 34.9 -0.6 31.0 -0.6 25.3 0.0 18.75 0.8 10.35 2.0 10.35 L24.75 11.3 47.55 12.2 120.55 9.05 191.15 5.9 Q199.85 7.35 209.0 5.8 213.55 5.0 216.4 3.9 236.1 0.9 275.15 0.9 L287.1 1.2 305.9 1.9 M498.1 72.9 L498.65 75.05 Q499.0 77.9 498.1 81.35 L497.85 78.5 Q490.3 82.1 457.0 83.0 L395.9 85.7 395.8 85.0 388.95 85.2 389.3 80.15 353.05 87.15 349.55 87.35 310.3 86.7 Q309.35 86.7 306.65 87.75 303.2 89.1 299.25 89.85 L297.8 90.1 Q267.2 89.8 220.65 91.5 L211.65 91.85 216.25 91.55 263.95 88.5 271.45 88.4 306.8 86.1 306.25 78.95 311.25 79.2 308.95 81.7 Q310.45 83.3 312.25 83.95 L313.75 84.3 314.6 84.3 319.1 84.3 321.0 84.3 355.75 82.85 Q362.65 82.05 389.75 76.7 L389.75 75.45 392.3 75.4 392.35 81.5 392.65 81.35 396.2 81.35 409.7 81.25 418.4 81.15 426.2 81.1 425.45 82.8 418.35 83.1 429.3 83.0 490.6 76.5 491.9 76.85 Q493.2 77.45 493.5 78.65 497.85 74.6 498.1 72.9 M167.8 96.6 L167.3 96.7 144.65 95.95 119.0 93.5 104.3 92.3 78.3 93.9 61.7 95.8 58.2 96.2 Q52.2 97.0 47.6 96.15 L44.15 95.1 68.95 91.8 70.45 91.65 114.8 89.2 111.75 86.7 Q121.45 90.7 136.9 92.9 148.6 94.55 157.2 94.55 L163.25 94.45 162.55 94.5 168.15 95.2 167.8 96.6 M210.55 74.0 L210.7 78.4 217.55 77.4 251.25 79.2 247.35 81.35 270.65 79.55 288.8 80.1 246.3 83.15 245.75 81.7 197.0 85.9 196.85 83.9 175.0 85.05 176.1 85.6 158.95 86.8 158.75 85.75 149.95 85.8 149.75 84.7 97.95 82.8 97.75 81.2 66.8 83.5 66.15 82.1 82.4 79.3 88.7 78.9 96.9 78.55 100.85 78.45 107.8 77.7 105.1 72.45 109.15 72.1 109.0 64.45 110.15 64.45 Q110.15 66.95 111.35 68.75 112.5 70.5 114.15 70.5 L115.4 71.05 114.75 76.25 135.3 77.85 132.65 79.8 135.2 80.4 Q137.8 81.2 137.9 82.25 L152.2 83.6 159.55 83.95 170.95 83.35 178.5 82.6 183.05 82.2 198.95 80.7 205.5 74.8 205.15 51.55 205.0 42.45 208.2 65.1 208.65 71.6 Q208.65 72.05 208.95 72.4 209.2 72.7 209.55 72.7 L210.35 72.3 210.55 74.0 M298.7 75.85 L299.7 75.5 301.75 76.1 304.4 76.1 Q306.7 76.1 308.35 74.55 310.0 72.95 310.0 70.75 L316.25 63.7 310.95 73.05 Q309.8 75.35 306.95 77.4 304.05 79.45 302.0 79.45 L297.95 78.75 298.7 75.85 M210.5 18.15 Q210.5 21.4 208.0 21.4 207.4 21.4 204.65 17.8 L202.0 14.2 Q206.05 15.6 208.25 15.85 L209.65 15.85 210.5 18.15 M135.95 11.25 Q129.25 11.7 120.05 13.6 L104.45 17.0 108.1 18.7 172.5 8.8 135.95 10.4 135.95 11.25" fill="#61421d" fill-rule="evenodd" stroke="none"/>
      <path d="M305.9 1.9 L328.8 -0.5 350.0 -2.8 Q360.75 -2.8 371.25 0.0 381.95 2.85 389.8 8.0 L365.55 3.05 344.6 1.95 323.75 2.65 324.25 6.45 321.95 7.05 Q321.8 6.7 319.7 5.9 315.55 4.3 305.9 1.9 M391.1 8.7 L416.6 9.35 409.95 9.85 Q403.25 10.6 402.85 11.95 L391.1 8.7 M497.8 72.05 L498.1 72.9 Q497.85 74.6 493.5 78.65 493.2 77.45 491.9 76.85 L490.6 76.5 493.35 74.7 492.25 72.75 495.2 72.75 495.35 74.45 497.1 74.2 Q497.15 73.25 497.5 72.55 L497.8 72.05 M0.7 85.45 L1.6 51.55 2.5 58.45 2.9 63.2 2.55 71.7 Q1.9 81.0 0.7 85.45 M191.15 5.9 L216.4 3.9 Q213.55 5.0 209.0 5.8 199.85 7.35 191.15 5.9 M479.85 52.9 L482.75 55.8 Q484.3 53.9 485.9 49.7 487.35 45.75 487.35 44.25 L486.95 38.9 483.0 42.85 482.15 34.45 476.55 34.25 472.2 34.85 468.6 35.45 Q469.9 37.6 474.45 38.8 477.6 39.65 479.85 52.9 M481.05 20.85 L489.6 24.85 493.9 71.0 Q469.35 71.2 419.85 72.2 L419.85 75.1 436.2 75.3 399.25 75.7 Q397.5 71.75 395.15 71.1 L391.1 71.15 Q390.5 71.15 389.25 69.2 L388.15 67.2 Q379.65 73.45 371.8 76.55 360.0 81.25 345.6 81.25 339.25 81.25 329.45 79.75 314.4 77.4 310.95 73.05 L316.25 63.7 310.0 70.75 299.7 75.5 298.7 75.85 289.6 77.7 298.1 75.1 263.85 71.15 248.55 70.5 230.2 71.55 215.85 73.4 217.55 77.4 210.7 78.4 210.55 74.0 211.6 75.15 Q212.8 76.15 213.25 75.7 211.6 69.7 210.85 59.05 210.4 52.5 210.4 46.7 210.4 38.25 211.6 30.35 L214.1 16.45 214.25 13.55 214.2 13.45 Q214.05 5.55 228.7 3.55 L238.15 3.25 Q242.35 3.65 241.25 4.45 256.7 3.35 280.4 4.45 300.65 5.35 309.6 6.8 L229.75 7.7 Q221.45 8.15 219.05 9.55 217.25 10.55 216.9 13.85 219.35 15.2 221.5 13.65 224.9 11.25 228.85 10.7 L267.1 8.5 Q303.15 6.85 311.05 7.3 315.4 9.95 319.85 17.45 324.3 25.0 323.85 29.05 L325.25 28.35 Q324.05 26.1 322.55 20.75 321.1 15.6 321.1 14.1 L321.3 9.8 324.0 10.55 Q324.45 17.0 325.6 21.3 326.95 26.25 330.4 32.85 L328.7 33.5 316.95 69.8 Q320.55 68.0 325.75 53.6 328.5 45.9 332.25 33.7 L331.5 27.45 Q335.9 27.7 339.95 21.65 343.85 15.85 342.65 12.6 L362.4 11.55 Q359.35 13.3 355.15 18.1 352.1 21.5 350.85 23.5 352.5 23.45 355.15 21.0 L357.5 18.5 Q363.05 17.7 365.6 15.5 366.85 14.4 367.0 13.45 L359.75 14.95 Q362.65 13.95 362.65 12.95 L362.5 10.75 388.6 10.45 396.9 13.95 395.15 41.7 Q397.0 39.8 398.45 35.0 399.9 30.05 399.9 25.1 399.5 14.35 398.85 14.35 L404.25 14.6 407.95 13.6 414.55 12.0 417.65 11.9 424.5 12.0 Q406.1 12.0 405.85 16.95 405.85 17.95 409.8 18.4 404.25 21.45 400.9 37.85 397.95 52.2 397.95 68.9 397.95 69.55 399.8 70.75 L401.6 71.85 Q401.75 70.3 406.3 48.0 409.85 30.45 408.75 20.05 L427.55 19.95 448.95 20.9 483.55 23.25 481.05 20.85 M471.4 19.1 L446.2 18.05 444.65 16.55 471.4 19.1 M434.85 15.65 L421.1 15.45 433.05 14.3 433.05 15.55 434.85 15.65 M455.0 39.65 L452.45 38.05 450.65 43.55 447.2 45.55 446.65 37.4 Q444.9 39.15 443.4 42.6 442.05 45.7 442.05 47.1 442.05 48.95 442.8 51.3 443.65 53.85 444.75 54.75 L446.4 53.0 Q448.45 53.0 449.9 51.75 451.3 50.5 451.3 48.7 451.4 50.7 452.1 51.9 452.75 53.05 453.65 52.9 454.5 52.75 455.1 51.4 455.65 50.0 455.55 48.35 L458.25 48.25 459.15 39.0 Q459.1 39.95 455.0 39.65 M420.0 42.25 L421.35 41.45 Q423.45 40.55 427.25 39.9 L427.35 36.7 Q415.75 37.5 412.95 44.75 410.65 50.8 414.75 55.9 L436.75 59.45 437.55 56.55 438.15 52.7 420.85 51.95 422.15 42.1 420.0 42.25 M418.3 52.15 L417.85 53.1 417.7 53.15 Q417.25 52.85 417.2 51.1 L418.3 52.15 M409.7 81.25 Q414.2 79.9 416.75 80.4 418.05 80.65 418.4 81.15 L409.7 81.25 M425.45 82.8 L429.3 83.0 418.35 83.1 425.45 82.8 M396.2 81.35 L392.65 81.35 Q393.9 80.8 395.1 81.0 L396.2 81.35 M321.0 84.3 L319.1 84.3 Q319.85 83.6 321.0 84.3 M314.6 84.3 L313.75 84.3 312.4 82.2 314.6 84.3 M271.45 88.4 L263.95 88.5 273.1 87.95 271.45 88.4 M457.65 56.25 Q457.95 58.55 464.0 59.7 L470.95 60.4 477.35 60.15 477.5 55.3 473.1 54.6 469.7 54.3 469.1 54.4 457.45 53.1 457.65 56.25 M372.85 8.25 L333.35 12.0 335.2 9.5 372.85 8.25 M335.15 9.5 Q329.25 11.4 326.9 11.4 325.95 11.4 324.3 10.6 L335.15 9.5 M331.75 16.15 L329.55 23.4 327.4 16.15 331.75 16.15 M329.6 53.5 Q329.15 55.25 329.25 57.1 329.25 59.1 330.95 62.2 332.55 65.0 333.5 65.45 L334.25 64.7 333.25 50.45 Q330.5 50.1 329.6 53.5 M328.0 61.75 L324.9 60.55 Q322.85 62.55 322.85 65.7 322.85 67.65 324.2 69.6 325.75 71.8 327.9 71.8 L330.1 71.45 328.2 67.85 Q326.25 64.1 326.25 63.45 326.25 62.85 327.15 62.25 L328.0 61.75 M307.25 29.05 Q307.05 28.45 305.5 27.8 302.35 26.45 295.5 26.15 295.5 27.75 299.0 30.4 302.5 33.1 302.5 33.9 302.5 36.05 298.65 40.4 293.4 46.35 285.5 47.7 L285.75 44.4 Q285.75 43.2 284.75 39.6 L283.0 34.6 Q281.8 37.75 280.4 47.2 280.4 50.65 282.65 52.1 L287.9 52.7 303.5 52.35 311.25 27.7 307.25 29.05 M263.5 29.75 L261.75 28.55 Q261.4 29.55 260.6 32.95 259.75 36.65 259.75 37.7 259.75 38.7 260.4 42.25 261.0 45.8 261.35 46.8 L258.9 47.4 Q258.0 41.95 256.6 39.5 L255.35 38.2 Q253.45 37.2 251.55 39.6 249.45 42.25 249.0 47.2 L241.3 47.75 Q233.4 48.1 232.35 47.05 233.8 39.6 233.85 35.2 L233.55 32.3 235.95 31.05 237.05 33.1 235.65 34.95 245.25 34.4 241.5 31.35 Q241.3 27.9 238.2 27.6 234.9 27.25 227.5 30.4 L227.4 34.75 Q227.15 38.75 227.2 41.95 226.25 44.7 227.45 47.4 L227.65 48.9 Q228.05 51.3 228.55 51.8 L228.75 52.8 228.5 54.8 Q239.45 54.6 244.05 55.05 L246.5 55.6 253.45 52.1 249.8 50.55 250.25 47.7 254.4 48.6 254.55 47.15 Q255.45 48.15 265.85 49.2 L276.05 50.05 Q276.2 48.3 275.8 47.2 L275.35 46.45 275.45 44.6 Q276.15 44.45 277.05 42.25 278.9 37.9 280.1 27.75 L275.9 29.1 Q272.4 26.7 269.7 26.7 L266.1 27.05 264.5 27.7 Q263.9 28.0 263.75 28.75 263.65 29.1 263.7 29.4 L263.5 29.75 M267.5 31.4 Q269.9 32.65 268.65 37.95 267.4 43.2 264.4 43.4 L264.5 40.65 265.85 39.2 Q267.3 36.7 267.5 31.4 M82.4 79.3 L33.95 82.3 35.5 80.9 16.25 84.2 12.4 78.3 Q9.8 74.25 9.3 70.45 L11.0 70.2 15.15 25.2 9.2 67.15 7.0 66.2 5.85 69.25 10.2 23.55 14.0 23.5 9.7 19.25 38.7 17.75 22.75 21.7 30.75 22.7 23.5 23.25 Q16.2 24.1 15.85 25.55 L46.5 25.7 46.95 24.1 43.0 23.7 Q64.2 24.15 76.3 22.85 82.9 22.1 91.0 20.0 L90.9 21.5 94.0 21.7 Q95.0 21.7 100.4 18.05 L106.65 33.5 106.7 33.55 Q107.15 33.75 106.2 33.75 106.15 33.3 104.0 32.45 L100.75 54.95 Q103.05 55.85 103.25 50.05 L103.4 53.55 Q103.4 61.25 99.55 68.6 95.3 76.75 88.7 78.9 L82.4 79.3 M302.45 51.5 L302.4 51.55 302.15 51.65 302.45 51.5 M301.75 76.1 L306.75 74.95 304.4 76.1 301.75 76.1 M209.65 15.85 L208.25 15.85 Q206.05 15.6 202.0 14.2 L204.65 17.8 Q207.4 21.4 208.0 21.4 210.5 21.4 210.5 18.15 L212.1 18.5 208.2 65.1 205.0 42.45 205.15 51.55 Q204.95 64.2 197.35 73.3 191.2 80.6 183.05 82.2 L178.5 82.6 170.95 83.35 159.55 83.95 152.2 83.6 137.9 82.25 Q137.8 81.2 135.2 80.4 L132.65 79.8 135.3 77.85 114.75 76.25 115.4 71.05 Q114.8 63.75 114.25 53.1 L113.8 42.85 Q113.8 32.65 114.7 29.75 117.25 21.55 126.8 23.0 126.9 23.55 135.75 21.95 144.6 20.35 145.4 19.5 L180.6 17.5 160.7 16.35 Q180.95 15.85 192.7 14.15 L201.1 12.6 187.45 12.55 Q166.35 12.55 156.4 15.15 L149.2 17.0 137.55 17.85 145.05 15.45 141.15 15.0 Q166.25 10.65 197.15 11.7 L195.95 11.05 201.6 11.65 Q207.7 12.65 209.95 14.95 L209.65 15.85 M70.45 91.65 L68.95 91.8 70.15 91.25 70.45 91.65 M209.55 72.7 Q209.2 72.7 208.95 72.4 208.65 72.05 208.65 71.6 L209.55 72.7 M135.95 11.25 L135.95 10.4 172.5 8.8 108.1 18.7 104.45 17.0 120.05 13.6 Q129.25 11.7 135.95 11.25 M126.3 17.85 L112.75 24.5 Q117.45 19.95 126.3 17.85 M111.7 25.6 Q111.15 30.35 110.7 36.05 L110.25 42.25 Q110.25 50.6 111.0 56.8 111.95 64.2 114.15 70.5 112.5 70.5 111.35 68.75 110.15 66.95 110.15 64.45 L108.05 33.5 Q108.05 32.8 108.35 31.65 108.9 29.4 110.35 27.3 L111.7 25.6 M85.2 19.05 L81.85 19.25 82.9 18.85 85.2 19.05 M87.85 42.55 Q86.45 40.7 84.6 39.75 83.45 39.2 82.85 39.2 79.75 40.15 78.1 41.35 80.7 43.25 82.8 46.95 84.6 50.25 84.6 52.05 L84.5 54.0 63.95 54.2 63.4 43.35 Q58.95 48.15 58.95 52.4 58.95 55.25 59.6 56.9 60.85 60.1 64.5 60.95 L62.75 62.4 84.5 61.75 Q84.2 60.45 80.4 59.6 L76.65 59.0 86.5 57.45 91.85 59.55 Q94.55 55.85 94.55 53.3 94.55 49.65 93.15 46.9 91.4 43.45 87.85 42.55 M96.9 78.55 Q97.0 77.0 97.9 74.7 99.3 71.0 101.85 69.1 L100.85 78.45 96.9 78.55 M53.25 44.0 L52.1 42.05 46.75 56.35 24.6 57.9 25.45 49.4 25.45 50.85 38.05 49.15 38.05 45.7 26.05 45.5 Q25.55 45.5 25.4 45.95 25.2 46.4 24.7 46.4 22.55 46.4 21.35 49.05 20.4 51.25 20.4 54.2 20.4 57.0 20.9 58.85 21.35 60.65 22.45 62.45 L16.5 67.2 18.25 69.15 Q20.8 64.85 33.4 63.2 L46.85 62.35 50.45 62.4 Q50.1 61.2 46.95 60.35 L43.85 59.75 Q47.7 59.75 50.45 58.35 53.2 56.9 53.2 54.9 55.55 53.5 55.85 50.8 55.85 48.8 55.4 47.4 54.75 45.55 53.25 44.0" fill="#896835" fill-rule="evenodd" stroke="none"/>
      <path d="M353.05 87.15 Q355.25 90.75 355.9 101.8 L356.05 112.15 349.55 87.35 353.05 87.15 M310.3 86.7 Q307.2 88.15 307.8 91.35 308.0 92.65 310.25 97.4 312.05 101.2 311.5 103.05 310.7 105.7 305.25 106.45 L305.75 93.5 298.8 94.8 299.25 89.85 Q303.2 89.1 306.65 87.75 309.35 86.7 310.3 86.7 M297.8 90.1 L266.7 93.1 243.45 94.75 231.45 94.55 214.0 93.85 202.95 93.55 Q202.2 93.55 197.85 97.6 193.5 101.65 193.5 102.4 193.5 103.05 194.8 109.1 L196.1 115.0 189.45 97.8 Q189.0 99.7 188.0 99.7 185.75 99.7 179.05 97.55 173.2 95.7 167.8 96.6 L168.15 95.2 162.55 94.5 163.25 94.45 157.2 94.55 Q148.6 94.55 136.9 92.9 121.45 90.7 111.75 86.7 L114.8 89.2 70.45 91.65 70.15 91.25 68.95 91.8 44.15 95.1 17.55 90.45 33.95 82.3 82.4 79.3 66.15 82.1 66.8 83.5 97.75 81.2 97.95 82.8 149.75 84.7 149.95 85.8 158.75 85.75 158.95 86.8 176.1 85.6 175.0 85.05 196.85 83.9 197.0 85.9 245.75 81.7 246.3 83.15 288.8 80.1 270.65 79.55 247.35 81.35 251.25 79.2 217.55 77.4 215.85 73.4 230.2 71.55 248.55 70.5 263.85 71.15 298.1 75.1 289.6 77.7 298.7 75.85 297.95 78.75 302.0 79.45 Q304.05 79.45 306.95 77.4 309.8 75.35 310.95 73.05 314.4 77.4 329.45 79.75 339.25 81.25 345.6 81.25 360.0 81.25 371.8 76.55 379.65 73.45 388.15 67.2 L389.25 69.2 Q390.5 71.15 391.1 71.15 L395.15 71.1 Q397.5 71.75 399.25 75.7 L436.2 75.3 492.25 72.75 493.35 74.7 490.6 76.5 429.3 83.0 425.45 82.8 426.2 81.1 418.4 81.15 Q418.05 80.65 416.75 80.4 414.2 79.9 409.7 81.25 L396.2 81.35 395.1 81.0 Q393.9 80.8 392.65 81.35 L392.35 81.5 392.3 75.4 389.75 75.45 389.75 76.7 Q362.65 82.05 355.75 82.85 L321.0 84.3 Q319.85 83.6 319.1 84.3 L314.6 84.3 312.4 82.2 313.75 84.3 312.25 83.95 Q310.45 83.3 308.95 81.7 L311.25 79.2 306.25 78.95 306.8 86.1 271.45 88.4 273.1 87.95 263.95 88.5 216.25 91.55 211.65 91.85 220.65 91.5 Q267.2 89.8 297.8 90.1 M167.3 96.7 Q159.55 99.95 154.75 106.6 151.25 112.8 150.0 113.45 L144.65 95.95 167.3 96.7 M61.7 95.8 L55.4 111.2 53.1 109.6 58.2 96.2 61.7 95.8 M299.7 75.5 L310.0 70.75 Q310.0 72.95 308.35 74.55 306.7 76.1 304.4 76.1 L306.75 74.95 301.75 76.1 299.7 75.5 M442.1 85.95 L456.35 84.2 Q454.35 88.3 449.55 92.25 445.1 95.9 442.9 95.95 L442.1 85.95 M183.05 82.2 Q191.2 80.6 197.35 73.3 204.95 64.2 205.15 51.55 L205.5 74.8 198.95 80.7 183.05 82.2 M106.7 33.55 L107.15 33.7 108.05 33.5 110.15 64.45 109.0 64.45 109.15 72.1 105.1 72.45 107.8 77.7 100.85 78.45 101.85 69.1 Q99.3 71.0 97.9 74.7 97.0 77.0 96.9 78.55 L88.7 78.9 Q95.3 76.75 99.55 68.6 103.4 61.25 103.4 53.55 L103.25 50.05 Q103.05 55.85 100.75 54.95 L104.0 32.45 Q106.15 33.3 106.2 33.75 107.15 33.75 106.7 33.55" fill="#6c522b" fill-rule="evenodd" stroke="none"/>
      <path d="M481.05 20.85 L483.55 23.25 448.95 20.9 427.55 19.95 408.75 20.05 Q409.85 30.45 406.3 48.0 401.75 70.3 401.6 71.85 L399.8 70.75 Q397.95 69.55 397.95 68.9 397.95 52.2 400.9 37.85 404.25 21.45 409.8 18.4 405.85 17.95 405.85 16.95 406.1 12.0 424.5 12.0 L433.05 12.25 433.05 14.3 421.1 15.45 434.85 15.65 444.65 16.55 446.2 18.05 471.4 19.1 481.05 20.85 M388.6 10.45 L362.5 10.75 362.65 12.95 Q362.65 13.95 359.75 14.95 L367.0 13.45 Q366.85 14.4 365.6 15.5 363.05 17.7 357.5 18.5 L355.15 21.0 Q352.5 23.45 350.85 23.5 352.1 21.5 355.15 18.1 359.35 13.3 362.4 11.55 L342.65 12.6 Q343.85 15.85 339.95 21.65 335.9 27.7 331.5 27.45 L332.25 33.7 Q328.5 45.9 325.75 53.6 320.55 68.0 316.95 69.8 L328.7 33.5 330.4 32.85 Q326.95 26.25 325.6 21.3 324.45 17.0 324.0 10.55 L324.3 10.6 Q325.95 11.4 326.9 11.4 329.25 11.4 335.15 9.5 L335.2 9.5 333.35 12.0 372.85 8.25 388.6 10.45 M311.05 7.3 Q303.15 6.85 267.1 8.5 L228.85 10.7 Q224.9 11.25 221.5 13.65 219.35 15.2 216.9 13.85 217.25 10.55 219.05 9.55 221.45 8.15 229.75 7.7 L309.6 6.8 311.05 7.3 M214.1 16.45 L211.6 30.35 Q210.4 38.25 210.4 46.7 210.4 52.5 210.85 59.05 211.6 69.7 213.25 75.7 212.8 76.15 211.6 75.15 L210.55 74.0 210.35 72.3 209.55 72.7 208.65 71.6 208.2 65.1 212.1 18.5 210.5 18.15 209.65 15.85 209.95 14.95 214.1 16.45 M331.75 16.15 L327.4 16.15 329.55 23.4 331.75 16.15 M328.0 61.75 L327.15 62.25 Q326.25 62.85 326.25 63.45 326.25 64.1 328.2 67.85 L330.1 71.45 327.9 71.8 Q325.75 71.8 324.2 69.6 322.85 67.65 322.85 65.7 322.85 62.55 324.9 60.55 L328.0 61.75 M329.6 53.5 Q330.5 50.1 333.25 50.45 L334.25 64.7 333.5 65.45 Q332.55 65.0 330.95 62.2 329.25 59.1 329.25 57.1 329.15 55.25 329.6 53.5 M282.65 52.1 Q283.35 51.5 285.0 50.65 287.5 49.3 289.25 49.1 L287.9 52.7 282.65 52.1 M228.75 52.8 L228.55 51.8 229.4 50.35 230.75 50.25 231.8 50.2 230.55 51.5 Q229.8 51.5 229.3 51.9 228.75 52.25 228.75 52.8 M141.15 15.0 L145.05 15.45 137.55 17.85 149.2 17.0 156.4 15.15 Q166.35 12.55 187.45 12.55 L201.1 12.6 192.7 14.15 Q180.95 15.85 160.7 16.35 L180.6 17.5 145.4 19.5 Q144.6 20.35 135.75 21.95 126.9 23.55 126.8 23.0 117.25 21.55 114.7 29.75 113.8 32.65 113.8 42.85 L114.25 53.1 Q114.8 63.75 115.4 71.05 L114.15 70.5 Q111.95 64.2 111.0 56.8 110.25 50.6 110.25 42.25 L110.7 36.05 Q111.15 30.35 111.7 25.6 L111.75 24.95 112.75 24.5 126.3 17.85 141.15 15.0 M85.2 19.05 L91.0 20.0 Q82.9 22.1 76.3 22.85 64.2 24.15 43.0 23.7 L46.95 24.1 46.5 25.7 15.85 25.55 Q16.2 24.1 23.5 23.25 L30.75 22.7 22.75 21.7 38.7 17.75 82.9 18.85 81.85 19.25 85.2 19.05 M87.85 42.55 Q91.4 43.45 93.15 46.9 94.55 49.65 94.55 53.3 94.55 55.85 91.85 59.55 L86.5 57.45 87.85 42.55 M76.65 59.0 L80.4 59.6 Q84.2 60.45 84.5 61.75 L62.75 62.4 64.5 60.95 76.65 59.0 M53.2 54.9 L51.65 52.15 50.85 50.25 Q50.85 49.0 51.7 46.95 52.45 45.2 53.25 44.0 54.75 45.55 55.4 47.4 55.85 48.8 55.85 50.8 55.55 53.5 53.2 54.9 M22.45 62.45 Q26.8 60.5 35.5 59.9 41.15 59.55 43.85 59.75 L46.95 60.35 Q50.1 61.2 50.45 62.4 L46.85 62.35 33.4 63.2 Q20.8 64.85 18.25 69.15 L16.5 67.2 22.45 62.45 M9.2 67.15 L15.15 25.2 11.0 70.2 9.3 70.45 9.25 70.45 9.25 70.1 9.2 67.8 9.2 67.15" fill="#a67d40" fill-rule="evenodd" stroke="none"/>
      <path d="M479.85 52.9 Q477.6 39.65 474.45 38.8 469.9 37.6 468.6 35.45 L472.2 34.85 476.55 34.25 482.15 34.45 483.0 42.85 479.85 52.9 M450.65 43.55 L452.45 38.05 455.0 39.65 Q454.05 42.3 454.05 43.25 454.05 45.75 455.55 48.35 455.65 50.0 455.1 51.4 454.5 52.75 453.65 52.9 452.75 53.05 452.1 51.9 451.4 50.7 451.3 48.7 L450.65 43.55 M446.4 53.0 L444.75 54.75 Q443.65 53.85 442.8 51.3 442.05 48.95 442.05 47.1 442.05 45.7 443.4 42.6 444.9 39.15 446.65 37.4 L447.2 45.55 446.4 53.0 M414.75 55.9 Q410.65 50.8 412.95 44.75 415.75 37.5 427.35 36.7 L427.25 39.9 Q423.45 40.55 421.35 41.45 L420.0 42.25 Q417.15 45.15 417.15 50.05 L417.2 51.1 Q417.25 52.85 417.7 53.15 L417.85 53.1 418.3 52.15 Q419.1 52.95 420.85 51.95 L438.15 52.7 437.55 56.55 Q431.4 53.95 423.4 53.95 L419.95 53.7 Q416.3 53.85 414.75 55.9 M469.1 54.4 Q460.45 55.45 457.65 56.25 L457.45 53.1 469.1 54.4 M282.65 52.1 Q280.4 50.65 280.4 47.2 281.8 37.75 283.0 34.6 L284.75 39.6 Q285.75 43.2 285.75 44.4 L285.5 47.7 Q293.4 46.35 298.65 40.4 302.5 36.05 302.5 33.9 302.5 33.1 299.0 30.4 295.5 27.75 295.5 26.15 302.35 26.45 305.5 27.8 307.05 28.45 307.25 29.05 307.85 32.85 306.3 41.15 304.4 50.95 301.0 50.95 L295.65 49.75 Q290.7 48.7 289.25 49.1 287.5 49.3 285.0 50.65 283.35 51.5 282.65 52.1 M261.35 46.8 Q261.0 45.8 260.4 42.25 259.75 38.7 259.75 37.7 259.75 36.65 260.6 32.95 261.4 29.55 261.75 28.55 L263.5 29.75 Q262.75 32.2 262.75 34.2 262.75 38.7 264.5 40.65 L264.4 43.4 Q267.4 43.2 268.65 37.95 269.9 32.65 267.5 31.4 L266.1 27.05 269.7 26.7 Q272.4 26.7 275.9 29.1 274.9 31.3 273.75 38.45 273.75 39.6 274.15 41.4 274.65 43.7 275.45 44.6 L275.35 46.45 261.35 46.8 M263.7 29.4 Q263.65 29.1 263.75 28.75 263.9 28.0 264.5 27.7 L263.7 29.4 M254.55 47.15 L254.4 48.6 250.25 47.7 249.8 50.55 230.55 51.5 231.8 50.2 230.75 50.25 232.35 47.05 Q233.4 48.1 241.3 47.75 L249.0 47.2 Q249.45 42.25 251.55 39.6 253.45 37.2 255.35 38.2 254.7 39.55 254.25 41.55 L253.85 44.2 Q253.85 45.2 254.55 47.15 M228.55 51.8 Q228.05 51.3 227.65 48.9 L227.45 47.4 Q228.1 48.9 229.4 50.35 L228.55 51.8 M227.2 41.95 Q227.15 38.75 227.4 34.75 228.35 31.65 227.5 30.4 234.9 27.25 238.2 27.6 241.3 27.9 241.5 31.35 L237.05 33.1 235.95 31.05 233.55 32.3 Q229.3 37.55 227.8 40.45 L227.2 41.95 M64.5 60.95 Q60.85 60.1 59.6 56.9 58.95 55.25 58.95 52.4 58.95 48.15 63.4 43.35 L63.95 54.2 84.5 54.0 84.6 52.05 Q84.6 50.25 82.8 46.95 80.7 43.25 78.1 41.35 79.75 40.15 82.85 39.2 83.45 39.2 84.6 39.75 86.45 40.7 87.85 42.55 L86.5 57.45 76.65 59.0 64.5 60.95 M53.25 44.0 Q52.45 45.2 51.7 46.95 50.85 49.0 50.85 50.25 L51.65 52.15 53.2 54.9 Q53.2 56.9 50.45 58.35 47.7 59.75 43.85 59.75 41.15 59.55 35.5 59.9 26.8 60.5 22.45 62.45 21.35 60.65 20.9 58.85 20.4 57.0 20.4 54.2 20.4 51.25 21.35 49.05 22.55 46.4 24.7 46.4 25.2 46.4 25.4 45.95 25.55 45.5 26.05 45.5 L38.05 45.7 38.05 49.15 25.45 50.85 25.45 49.4 24.6 57.9 46.75 56.35 52.1 42.05 53.25 44.0" fill="#625b4d" fill-rule="evenodd" stroke="none"/>
      <path d="M483.0 42.85 L486.95 38.9 487.35 44.25 Q487.35 45.75 485.9 49.7 484.3 53.9 482.75 55.8 L479.85 52.9 483.0 42.85 M450.65 43.55 L451.3 48.7 Q451.3 50.5 449.9 51.75 448.45 53.0 446.4 53.0 L447.2 45.55 450.65 43.55 M455.55 48.35 Q454.05 45.75 454.05 43.25 454.05 42.3 455.0 39.65 459.1 39.95 459.15 39.0 L458.25 48.25 455.55 48.35 M420.0 42.25 L422.15 42.1 420.85 51.95 Q419.1 52.95 418.3 52.15 L417.2 51.1 417.15 50.05 Q417.15 45.15 420.0 42.25 M437.55 56.55 L436.75 59.45 414.75 55.9 Q416.3 53.85 419.95 53.7 L423.4 53.95 Q431.4 53.95 437.55 56.55 M469.1 54.4 L469.7 54.3 473.1 54.6 477.5 55.3 477.35 60.15 470.95 60.4 464.0 59.7 Q457.95 58.55 457.65 56.25 460.45 55.45 469.1 54.4 M289.25 49.1 Q290.7 48.7 295.65 49.75 L301.0 50.95 Q304.4 50.95 306.3 41.15 307.85 32.85 307.25 29.05 L311.25 27.7 303.5 52.35 287.9 52.7 289.25 49.1 M263.5 29.75 L263.7 29.4 264.5 27.7 266.1 27.05 267.5 31.4 Q267.3 36.7 265.85 39.2 L264.5 40.65 Q262.75 38.7 262.75 34.2 262.75 32.2 263.5 29.75 M275.9 29.1 L280.1 27.75 Q278.9 37.9 277.05 42.25 276.15 44.45 275.45 44.6 274.65 43.7 274.15 41.4 273.75 39.6 273.75 38.45 274.9 31.3 275.9 29.1 M275.35 46.45 L275.8 47.2 Q276.2 48.3 276.05 50.05 L265.85 49.2 Q255.45 48.15 254.55 47.15 253.85 45.2 253.85 44.2 L254.25 41.55 Q254.7 39.55 255.35 38.2 L256.6 39.5 Q258.0 41.95 258.9 47.4 L261.35 46.8 275.35 46.45 M249.8 50.55 L253.45 52.1 246.5 55.6 244.05 55.05 Q239.45 54.6 228.5 54.8 L228.75 52.8 Q228.75 52.25 229.3 51.9 229.8 51.5 230.55 51.5 L249.8 50.55 M227.45 47.4 Q226.25 44.7 227.2 41.95 L227.8 40.45 Q229.3 37.55 233.55 32.3 L233.85 35.2 Q233.8 39.6 232.35 47.05 L230.75 50.25 229.4 50.35 Q228.1 48.9 227.45 47.4 M227.4 34.75 L227.5 30.4 Q228.35 31.65 227.4 34.75 M241.5 31.35 L245.25 34.4 235.65 34.95 237.05 33.1 241.5 31.35 M302.45 51.5 L302.15 51.65 302.4 51.55 302.45 51.5" fill="#9b753c" fill-rule="evenodd" stroke="none"/>
    </g>
  </defs>
</svg>
