<?xml version="1.0" encoding="UTF-8" standalone="no"?>
<svg xmlns:ffdec="https://www.free-decompiler.com/flash" xmlns:xlink="http://www.w3.org/1999/xlink" ffdec:objectType="frame" height="1113.75px" width="1094.5px" xmlns="http://www.w3.org/2000/svg">
  <g transform="matrix(1.0, 0.0, 0.0, 1.0, 590.15, 1037.25)">
    <use ffdec:characterId="652" height="8.75" transform="matrix(2.0853, 0.0, 0.0, 2.0853, -50.7254, -41.0211)" width="8.8" xlink:href="#sprite0"/>
    <use ffdec:characterId="652" height="8.75" transform="matrix(2.095, 0.0, 0.0, 2.095, -83.118, -39.6633)" width="8.8" xlink:href="#sprite0"/>
    <use ffdec:characterId="652" height="8.75" transform="matrix(2.0909, 0.0, 0.0, 2.0909, -80.6999, -50.1954)" width="8.8" xlink:href="#sprite0"/>
    <use ffdec:characterId="652" height="8.75" transform="matrix(2.0923, 0.0, 0.0, 2.0923, -64.7063, -37.3017)" width="8.8" xlink:href="#sprite0"/>
    <use ffdec:characterId="652" height="8.75" transform="matrix(2.094, 0.0, 0.0, 2.094, -81.5137, -32.509)" width="8.8" xlink:href="#sprite0"/>
    <use ffdec:characterId="652" height="8.75" transform="matrix(2.097, 0.0, 0.0, 2.097, -80.7767, -34.1218)" width="8.8" xlink:href="#sprite0"/>
    <use ffdec:characterId="652" height="8.75" transform="matrix(2.0714, 0.0, 0.0, 2.0714, -73.0641, -39.0106)" width="8.8" xlink:href="#sprite0"/>
    <use ffdec:characterId="652" height="8.75" transform="matrix(2.0853, 0.0, 0.0, 2.0853, 129.0246, -41.0211)" width="8.8" xlink:href="#sprite0"/>
    <use ffdec:characterId="652" height="8.75" transform="matrix(2.095, 0.0, 0.0, 2.095, 96.632, -39.6633)" width="8.8" xlink:href="#sprite0"/>
    <use ffdec:characterId="652" height="8.75" transform="matrix(2.0909, 0.0, 0.0, 2.0909, 99.0501, -50.1954)" width="8.8" xlink:href="#sprite0"/>
    <use ffdec:characterId="652" height="8.75" transform="matrix(2.0923, 0.0, 0.0, 2.0923, 115.0437, -37.3017)" width="8.8" xlink:href="#sprite0"/>
    <use ffdec:characterId="652" height="8.75" transform="matrix(2.094, 0.0, 0.0, 2.094, 98.2363, -32.509)" width="8.8" xlink:href="#sprite0"/>
    <use ffdec:characterId="652" height="8.75" transform="matrix(2.097, 0.0, 0.0, 2.097, 98.9733, -34.1218)" width="8.8" xlink:href="#sprite0"/>
    <use ffdec:characterId="652" height="8.75" transform="matrix(2.0714, 0.0, 0.0, 2.0714, 106.6859, -39.0106)" width="8.8" xlink:href="#sprite0"/>
  </g>
  <defs>
    <g id="sprite0" transform="matrix(1.0, 0.0, 0.0, 1.0, 4.4, 4.35)">
      <use ffdec:characterId="651" height="1.25" transform="matrix(0.4444, 0.0, 0.0, 7.0, -4.3778, -4.35)" width="19.7" xlink:href="#shape0"/>
    </g>
    <g id="shape0" transform="matrix(1.0, 0.0, 0.0, 1.0, 9.85, 1.25)">
      <path d="M6.95 -0.2 L0.0 0.0 -6.95 -0.2 Q-9.85 -0.35 -9.85 -0.65 -9.85 -0.9 -6.95 -1.05 L0.0 -1.25 6.95 -1.05 Q9.85 -0.9 9.85 -0.65 9.85 -0.35 6.95 -0.2" fill="#ffffff" fill-opacity="0.28235295" fill-rule="evenodd" stroke="none"/>
    </g>
  </defs>
</svg>
