<?xml version="1.0" encoding="UTF-8" standalone="no"?>
<svg xmlns:ffdec="https://www.free-decompiler.com/flash" xmlns:xlink="http://www.w3.org/1999/xlink" ffdec:objectType="frame" height="29.05px" width="102.2px" xmlns="http://www.w3.org/2000/svg">
  <g transform="matrix(1.0, 0.0, 0.0, 1.0, 44.8, 13.65)">
    <use ffdec:characterId="159" height="4.15" transform="matrix(7.0, 0.0, 0.0, 7.0, -44.8, -13.65)" width="14.6" xlink:href="#shape0"/>
  </g>
  <defs>
    <g id="shape0" transform="matrix(1.0, 0.0, 0.0, 1.0, 6.4, 1.95)">
      <path d="M-6.05 -1.45 L-6.0 -1.4 Q-5.85 -1.6 -5.45 -1.7 -4.9 -1.85 -4.1 -1.8 L-3.9 -1.85 -2.1 -1.85 -1.6 -1.9 -1.25 -1.95 Q3.65 -1.8 5.8 -1.2 8.2 -0.5 8.2 0.95 8.2 1.4 8.05 1.7 7.75 2.2 7.05 2.2 6.6 2.2 5.35 1.65 4.1 1.0 3.95 0.95 2.85 0.55 2.2 0.35 1.05 0.0 -0.9 -0.2 L-1.95 -0.25 -4.4 -0.35 Q-6.4 -0.45 -6.4 -1.0 -6.4 -1.1 -6.1 -1.45 L-6.05 -1.45" fill="#333333" fill-opacity="0.54901963" fill-rule="evenodd" stroke="none"/>
    </g>
  </defs>
</svg>
