<?xml version="1.0" encoding="UTF-8" standalone="no"?>
<svg xmlns:ffdec="https://www.free-decompiler.com/flash" xmlns:xlink="http://www.w3.org/1999/xlink" ffdec:objectType="frame" height="57.4px" width="50.05px" xmlns="http://www.w3.org/2000/svg">
  <g transform="matrix(1.0, 0.0, 0.0, 1.0, 24.85, 57.4)">
    <use ffdec:characterId="311" height="8.2" transform="matrix(7.0, 0.0, 0.0, 7.0, -24.85, -57.4)" width="7.15" xlink:href="#shape0"/>
  </g>
  <defs>
    <g id="shape0" transform="matrix(1.0, 0.0, 0.0, 1.0, 3.55, 8.2)">
      <path d="M0.95 -6.65 Q0.4 -7.45 -0.3 -7.45 0.6 -7.65 1.25 -6.6 L1.5 -6.15 Q1.35 -6.65 1.2 -6.95 0.9 -7.45 0.4 -7.7 L0.4 -7.65 0.0 -7.8 -0.3 -7.8 -0.4 -7.75 -0.35 -7.8 -0.55 -7.8 -0.55 -7.95 Q-0.55 -8.0 -0.45 -8.1 -0.35 -8.15 -0.2 -8.2 0.05 -8.25 0.15 -8.1 0.35 -8.05 0.7 -7.85 1.15 -7.5 1.3 -7.25 1.5 -7.0 1.7 -6.6 1.85 -6.15 1.85 -5.85 L1.8 -5.25 Q2.6 -4.95 2.9 -4.4 3.2 -3.9 3.2 -3.2 L3.15 -2.45 Q3.15 -2.4 3.2 -2.15 L3.3 -1.9 3.6 -1.25 3.55 -0.75 3.55 -0.7 Q3.55 -0.5 3.4 -0.3 L3.3 -0.2 Q3.15 0.0 2.75 0.0 L2.6 0.0 Q1.55 0.0 0.95 -0.8 0.75 -1.05 0.6 -1.35 L0.15 -1.75 Q-1.0 -1.75 -1.65 -2.95 -2.15 -3.85 -2.15 -4.65 -2.85 -4.75 -3.15 -5.1 L-3.2 -5.2 Q-3.45 -5.4 -3.55 -5.65 L-3.55 -5.7 -3.5 -5.8 -3.5 -5.85 -3.45 -5.85 -3.2 -5.6 -3.05 -5.5 -3.0 -5.45 -2.75 -5.3 Q-2.45 -5.15 -2.25 -5.05 L-1.45 -4.95 -0.3 -4.95 Q0.35 -4.85 0.7 -4.65 L0.95 -4.5 1.1 -4.6 1.15 -4.65 1.25 -4.5 Q1.1 -5.35 0.9 -5.7 L0.65 -6.1 Q0.45 -6.35 0.2 -6.55 -0.65 -7.1 -1.05 -7.1 L-1.65 -6.95 -2.0 -6.9 -2.75 -6.85 -2.8 -6.85 -2.9 -6.9 -2.55 -6.9 -2.45 -6.95 -2.4 -6.95 -2.6 -7.0 -2.75 -7.0 -2.95 -7.1 -2.4 -7.1 -2.25 -7.15 -2.0 -7.2 -1.9 -7.25 -1.3 -7.4 Q-0.7 -7.4 -0.5 -7.25 L-0.45 -7.2 Q0.05 -7.1 0.6 -6.35 L0.7 -6.2 0.75 -6.15 Q1.25 -5.4 1.4 -4.95 L1.45 -4.7 1.4 -4.6 1.45 -4.8 1.5 -4.95 1.5 -5.15 1.5 -5.5 Q1.4 -5.95 1.05 -6.5 L0.95 -6.65 M1.65 -5.75 L1.7 -5.6 1.7 -5.85 1.65 -5.75 M1.45 -4.35 L1.4 -4.5 1.4 -4.35 1.45 -4.3 1.45 -4.35 M1.85 -3.35 L1.9 -3.0 Q1.9 -2.7 1.85 -2.55 L1.8 -2.35 1.65 -2.0 1.65 -2.25 1.7 -2.3 1.7 -2.45 1.65 -3.05 Q1.6 -3.55 1.35 -3.95 L1.3 -4.1 1.15 -4.25 Q1.05 -4.25 0.95 -4.35 L0.85 -4.4 0.55 -4.5 -0.05 -4.6 -0.65 -4.65 -2.05 -4.65 Q-1.95 -4.05 -1.65 -3.4 L-1.4 -3.05 Q-0.75 -2.0 0.4 -2.0 L0.7 -2.05 Q0.85 -2.1 1.2 -2.2 L1.2 -2.15 1.05 -2.05 1.0 -2.05 0.75 -1.85 Q0.65 -1.8 0.45 -1.75 L0.65 -1.6 0.7 -1.55 1.1 -1.0 1.35 -0.7 Q1.7 -0.45 2.1 -0.35 L2.5 -0.25 2.6 -0.25 Q3.0 -0.25 3.2 -0.45 L3.3 -0.6 Q3.4 -0.8 3.4 -1.0 3.4 -1.35 3.2 -1.7 2.9 -2.1 2.7 -2.45 2.5 -2.85 2.4 -3.35 L2.3 -3.65 2.15 -4.0 2.1 -4.05 2.1 -4.1 2.25 -3.9 2.25 -3.95 2.3 -3.95 2.45 -3.65 2.5 -3.5 2.55 -3.4 2.9 -2.75 2.95 -2.65 2.95 -2.7 3.0 -3.2 3.0 -3.35 Q2.95 -3.85 2.7 -4.25 2.45 -4.65 1.8 -5.2 L1.7 -4.55 1.6 -4.25 1.6 -4.05 Q1.8 -3.7 1.85 -3.35 M2.15 -4.0 L2.3 -3.7 2.3 -3.75 2.15 -4.0" fill="#111111" fill-rule="evenodd" stroke="none"/>
      <path d="M-0.45 -8.1 Q-0.55 -8.0 -0.55 -7.95 L-0.55 -7.8 -0.35 -7.8 -0.4 -7.75 -0.3 -7.8 0.0 -7.8 0.4 -7.65 0.4 -7.7 Q0.9 -7.45 1.2 -6.95 1.35 -6.65 1.5 -6.15 L1.25 -6.6 Q0.6 -7.65 -0.3 -7.45 0.4 -7.45 0.95 -6.65 0.9 -6.6 0.9 -6.55 L0.9 -6.45 0.65 -6.45 0.55 -6.4 0.6 -6.35 Q0.05 -7.1 -0.45 -7.2 L-0.5 -7.25 Q-0.7 -7.4 -1.3 -7.4 L-1.9 -7.25 -2.0 -7.2 -2.25 -7.15 -2.4 -7.1 -2.95 -7.1 -2.75 -7.0 -2.6 -7.0 -2.4 -6.95 -2.45 -6.95 -2.55 -6.9 -2.9 -6.9 -2.8 -6.85 -2.75 -6.85 -2.0 -6.9 -1.65 -6.95 -1.05 -7.1 Q-0.65 -7.1 0.2 -6.55 0.45 -6.35 0.65 -6.1 L0.6 -5.9 Q0.5 -5.5 0.1 -5.4 L-0.6 -5.3 -1.4 -5.2 Q-2.15 -5.2 -2.8 -5.45 L-3.25 -5.65 -3.2 -5.6 -3.45 -5.85 -3.5 -5.85 -3.5 -5.8 -3.55 -6.1 -3.5 -6.4 Q-3.45 -6.85 -2.9 -7.35 -2.1 -8.1 -0.8 -8.1 L-0.45 -8.1 M1.5 -5.15 L1.5 -4.95 1.5 -5.15 M1.65 -5.75 L1.7 -5.85 1.7 -5.6 1.65 -5.75 M1.45 -4.35 L1.45 -4.3 1.4 -4.35 1.4 -4.5 1.45 -4.35 M-0.05 -4.6 L0.7 -4.3 Q1.5 -3.85 1.5 -3.05 1.5 -2.8 1.3 -2.8 L0.9 -2.8 0.4 -2.6 Q-0.1 -2.45 -0.2 -2.45 -0.65 -2.45 -1.05 -2.75 L-1.4 -3.05 -1.65 -3.4 Q-1.95 -4.05 -2.05 -4.65 L-0.65 -4.65 -0.05 -4.6 M0.65 -1.6 L0.9 -1.6 Q1.25 -1.6 1.55 -1.85 1.85 -2.1 1.9 -2.45 L1.85 -2.4 Q2.0 -2.6 2.0 -2.9 2.0 -3.1 1.85 -3.35 1.8 -3.7 1.6 -4.05 L1.6 -4.25 2.15 -3.2 Q2.85 -1.75 2.85 -0.85 2.85 -0.45 2.45 -0.4 L2.0 -0.35 2.1 -0.35 Q1.7 -0.45 1.35 -0.7 L1.1 -1.0 0.7 -1.55 0.65 -1.6 M1.7 -4.55 L1.8 -5.2 Q2.45 -4.65 2.7 -4.25 2.95 -3.85 3.0 -3.35 L2.95 -3.5 2.9 -3.45 Q2.85 -3.4 2.8 -3.4 L2.35 -4.15 Q1.95 -4.7 1.75 -4.85 L1.7 -4.45 1.7 -4.55 M2.95 -2.7 L2.95 -2.65 2.9 -2.75 2.9 -2.65 2.95 -2.7" fill="#61736a" fill-rule="evenodd" stroke="none"/>
      <path d="M-3.2 -5.6 L-3.25 -5.65 -2.8 -5.45 Q-2.15 -5.2 -1.4 -5.2 L-0.6 -5.3 0.1 -5.4 Q0.5 -5.5 0.6 -5.9 L0.65 -6.1 0.9 -5.7 Q1.1 -5.35 1.25 -4.5 L1.15 -4.65 1.1 -4.6 0.95 -4.5 0.7 -4.65 Q0.35 -4.85 -0.3 -4.95 L-1.45 -4.95 -2.25 -5.05 Q-2.45 -5.15 -2.75 -5.3 L-3.0 -5.45 -3.05 -5.5 -3.2 -5.6 M0.6 -6.35 L0.55 -6.4 0.65 -6.45 0.9 -6.45 0.9 -6.55 Q0.9 -6.6 0.95 -6.65 L1.05 -6.5 Q1.4 -5.95 1.5 -5.5 L1.5 -5.15 1.5 -4.95 1.45 -4.8 1.4 -4.6 1.45 -4.7 1.4 -4.95 Q1.25 -5.4 0.75 -6.15 L0.7 -6.2 0.6 -6.35 M-0.05 -4.6 L0.55 -4.5 0.85 -4.4 0.95 -4.35 Q1.05 -4.25 1.15 -4.25 L1.3 -4.1 1.35 -3.95 Q1.6 -3.55 1.65 -3.05 L1.7 -2.45 1.7 -2.3 1.65 -2.25 1.65 -2.0 1.8 -2.35 1.85 -2.55 Q1.9 -2.7 1.9 -3.0 L1.85 -3.35 Q2.0 -3.1 2.0 -2.9 2.0 -2.6 1.85 -2.4 L1.9 -2.45 Q1.85 -2.1 1.55 -1.85 1.25 -1.6 0.9 -1.6 L0.65 -1.6 0.45 -1.75 Q0.65 -1.8 0.75 -1.85 L1.0 -2.05 1.05 -2.05 1.2 -2.15 1.2 -2.2 Q0.85 -2.1 0.7 -2.05 L0.4 -2.0 Q-0.75 -2.0 -1.4 -3.05 L-1.05 -2.75 Q-0.65 -2.45 -0.2 -2.45 -0.1 -2.45 0.4 -2.6 L0.9 -2.8 1.3 -2.8 Q1.5 -2.8 1.5 -3.05 1.5 -3.85 0.7 -4.3 L-0.05 -4.6 M1.6 -4.25 L1.7 -4.55 1.7 -4.45 1.75 -4.85 Q1.95 -4.7 2.35 -4.15 L2.8 -3.4 Q2.85 -3.4 2.9 -3.45 L2.95 -3.5 3.0 -3.35 3.0 -3.2 2.95 -2.7 2.9 -2.65 2.9 -2.75 2.55 -3.4 2.5 -3.5 2.45 -3.65 2.3 -3.95 2.25 -3.95 2.25 -3.9 2.1 -4.1 2.1 -4.05 2.15 -4.0 2.3 -3.65 2.4 -3.35 Q2.5 -2.85 2.7 -2.45 2.9 -2.1 3.2 -1.7 3.4 -1.35 3.4 -1.0 3.4 -0.8 3.3 -0.6 L3.2 -0.45 Q3.0 -0.25 2.6 -0.25 L2.5 -0.25 2.1 -0.35 2.0 -0.35 2.45 -0.4 Q2.85 -0.45 2.85 -0.85 2.85 -1.75 2.15 -3.2 L1.6 -4.25" fill="#4b5952" fill-rule="evenodd" stroke="none"/>
    </g>
  </defs>
</svg>
