<?xml version="1.0" encoding="UTF-8" standalone="no"?>
<svg xmlns:ffdec="https://www.free-decompiler.com/flash" xmlns:xlink="http://www.w3.org/1999/xlink" ffdec:objectType="frame" height="177.35px" width="157.8px" xmlns="http://www.w3.org/2000/svg">
  <g transform="matrix(1.0, 0.0, 0.0, 1.0, 24.75, 21.0)">
    <use ffdec:characterId="301" height="177.35" transform="matrix(1.0, 0.0, 0.0, 1.0, -24.75, -21.0)" width="157.8" xlink:href="#shape0"/>
  </g>
  <defs>
    <g id="shape0" transform="matrix(1.0, 0.0, 0.0, 1.0, 24.75, 21.0)">
      <path d="M92.65 43.45 L90.35 44.55 90.8 46.15 Q94.35 59.5 99.2 101.05 L99.1 104.35 Q98.55 120.85 100.7 136.55 101.55 142.85 101.9 149.3 L101.2 149.3 100.85 149.3 90.45 149.25 Q89.75 141.95 89.0 127.85 L87.7 105.25 89.3 103.7 89.15 103.4 88.7 104.05 87.7 104.95 87.7 104.9 87.5 102.3 87.1 96.8 Q84.9 88.1 82.35 71.55 L81.0 61.15 79.9 69.7 78.15 80.5 Q78.15 90.15 76.0 102.95 L75.95 103.45 Q75.8 108.25 75.35 110.8 L75.0 112.7 75.2 112.55 74.35 120.85 Q72.45 139.5 71.85 142.95 L71.35 142.95 71.15 140.3 Q71.15 134.1 71.9 118.95 L71.7 116.35 Q71.7 113.3 72.45 104.95 L72.1 98.0 Q71.1 75.9 71.1 66.9 72.0 49.7 72.1 41.3 67.85 36.1 62.4 34.05 L62.4 34.9 62.2 57.7 62.0 79.05 Q62.0 89.55 61.35 101.25 L60.85 112.45 60.85 112.3 60.9 113.45 60.8 113.45 60.8 114.4 61.05 114.4 61.75 120.8 Q63.2 132.9 63.2 143.35 L62.85 148.3 62.75 150.85 62.65 149.8 60.25 130.3 Q58.95 118.45 58.95 110.0 L58.95 109.65 58.95 108.5 58.85 105.95 58.7 102.45 58.6 100.35 58.6 100.15 58.6 99.75 57.7 86.4 57.7 55.35 57.85 51.65 57.9 47.2 57.9 46.65 57.9 46.15 57.5 34.5 57.4 32.95 57.15 29.15 56.75 23.5 56.7 19.5 56.65 14.9 56.5 10.2 56.3 5.8 Q62.1 5.2 68.65 6.7 L70.8 7.2 Q76.75 9.5 81.05 14.6 89.45 24.4 91.7 37.65 L92.65 43.45 M54.7 6.0 L54.65 14.9 54.4 29.15 54.3 32.8 Q40.45 33.15 33.45 45.4 L33.05 46.15 Q32.15 47.8 31.4 49.6 L31.4 49.65 Q31.15 49.7 30.95 49.85 L30.6 51.7 30.65 51.65 30.45 52.25 30.25 53.35 27.8 65.7 26.2 75.4 26.1 75.05 26.05 74.8 25.8 76.3 25.95 76.75 25.1 81.35 24.0 87.5 Q22.9 96.55 21.75 113.3 20.85 121.2 19.05 127.75 L17.95 142.45 17.4 147.8 8.95 147.5 8.6 147.5 Q9.9 135.5 10.45 123.05 10.9 112.2 11.95 101.6 L15.05 66.55 Q15.7 57.9 17.95 49.5 L20.3 38.95 Q20.95 37.2 22.0 35.65 22.6 34.75 22.55 33.45 L23.65 29.15 Q25.5 23.05 28.95 18.05 L30.05 19.0 Q31.75 19.0 35.9 15.65 L36.8 14.9 Q41.6 10.95 44.95 9.2 49.5 6.75 54.7 6.0 M53.85 47.0 L53.7 51.35 53.65 52.25 53.65 52.45 53.6 53.05 53.35 61.5 53.35 61.85 53.35 62.6 53.3 64.65 53.3 65.7 53.2 68.65 53.0 85.6 53.0 85.85 53.0 86.05 52.8 100.45 52.7 102.75 52.5 106.2 52.45 107.5 52.35 108.7 52.35 108.85 52.3 109.2 52.25 109.4 52.25 109.7 51.9 113.55 51.9 113.8 51.8 115.0 Q50.4 129.25 49.7 150.4 L46.15 152.3 46.1 152.35 43.3 152.7 42.9 152.7 Q43.15 146.65 47.05 116.65 L48.05 104.25 Q49.9 95.05 50.7 83.3 51.3 74.1 51.3 61.85 51.3 60.55 52.8 52.25 L53.85 47.0 M36.25 150.25 Q36.1 150.1 35.95 150.05 L35.9 150.05 27.15 148.15 26.75 148.15 24.0 148.05 27.5 134.45 32.35 113.5 33.75 99.3 Q36.65 69.05 37.3 51.25 L37.35 50.05 37.4 47.95 37.25 48.0 37.4 46.5 37.4 46.15 37.45 45.95 37.45 42.7 37.8 42.7 37.85 43.85 38.0 43.85 38.15 46.15 38.2 47.75 38.0 47.8 38.15 50.2 38.7 59.55 39.25 69.45 40.55 90.6 40.05 97.4 40.1 99.1 40.0 99.3 40.1 101.0 40.15 101.3 40.3 106.75 40.3 107.7 40.35 112.2 40.1 113.65 40.25 113.65 Q39.8 128.55 37.2 144.8 L36.25 150.25" fill="#b9c040" fill-rule="evenodd" stroke="none"/>
      <path d="M99.2 101.05 Q94.35 59.5 90.8 46.15 L90.35 44.55 92.65 43.45 94.45 56.15 98.3 86.9 Q99.2 93.95 99.2 101.05 M70.8 7.2 L68.65 6.7 Q62.1 5.2 56.3 5.8 L56.3 5.15 64.45 5.55 68.65 6.45 70.8 7.2 M54.7 5.2 L54.7 6.0 Q49.5 6.75 44.95 9.2 41.6 10.95 36.8 14.9 L35.9 15.65 Q31.75 19.0 30.05 19.0 L28.95 18.05 Q31.45 14.4 34.8 11.35 L35.1 11.05 36.1 11.05 Q44.9 5.9 54.7 5.2" fill="#e2df65" fill-rule="evenodd" stroke="none"/>
      <path d="M62.75 150.85 L62.85 148.3 63.2 143.35 Q63.2 132.9 61.75 120.8 L61.05 114.4 60.8 114.4 60.8 113.45 60.9 113.45 60.85 112.3 60.85 112.45 61.35 101.25 Q62.0 89.55 62.0 79.05 L62.2 57.7 62.4 34.9 62.4 34.05 Q67.85 36.1 72.1 41.3 72.0 49.7 71.1 66.9 71.1 75.9 72.1 98.0 L72.45 104.95 Q71.7 113.3 71.7 116.35 L71.9 118.95 Q71.15 134.1 71.15 140.3 L71.35 142.95 71.85 142.95 Q72.45 139.5 74.35 120.85 L75.2 112.55 75.0 112.7 75.35 110.8 Q75.8 108.25 75.95 103.45 L76.0 102.95 Q78.15 90.15 78.15 80.5 L79.9 69.7 81.0 61.15 82.35 71.55 Q84.9 88.1 87.1 96.8 L87.5 102.3 87.7 104.9 87.7 104.95 88.7 104.05 89.15 103.4 89.3 103.7 87.7 105.25 89.0 127.85 Q89.75 141.95 90.45 149.25 L87.5 149.2 Q71.9 148.95 67.95 150.3 L66.1 151.25 Q65.3 151.75 63.45 151.75 L62.7 151.65 62.75 150.95 62.75 150.85 M54.3 32.8 L54.0 41.45 53.85 46.0 53.85 46.15 53.85 47.0 52.8 52.25 Q51.3 60.55 51.3 61.85 51.3 74.1 50.7 83.3 49.9 95.05 48.05 104.25 L47.05 116.65 Q43.15 146.65 42.9 152.7 L41.55 152.7 Q39.8 152.7 38.6 152.0 L36.55 150.45 Q36.4 150.3 36.25 150.25 L37.2 144.8 Q39.8 128.55 40.25 113.65 L40.1 113.65 40.35 112.2 40.3 107.7 40.3 106.75 40.15 101.3 40.1 101.0 40.0 99.3 40.1 99.1 40.05 97.4 40.55 90.6 39.25 69.45 38.7 59.55 38.3 50.2 38.15 50.2 38.0 47.8 38.2 47.75 38.15 46.15 38.0 43.85 37.85 43.85 37.8 42.7 37.45 42.7 37.45 45.95 37.4 46.15 37.4 46.5 37.25 48.0 37.4 47.95 37.35 50.05 37.2 50.0 37.3 51.25 Q36.65 69.05 33.75 99.3 L32.35 113.5 27.5 134.45 24.0 148.05 23.95 148.05 17.4 147.8 17.95 142.45 19.05 127.75 Q20.85 121.2 21.75 113.3 22.9 96.55 24.0 87.5 L25.1 81.35 25.95 76.75 25.8 76.3 26.05 74.8 26.1 75.05 26.2 75.4 27.8 65.7 30.25 53.35 30.45 52.25 30.65 51.65 30.6 51.7 30.95 49.85 Q31.15 49.7 31.4 49.65 L31.4 49.6 Q32.15 47.8 33.05 46.15 L33.45 45.4 Q40.45 33.15 54.3 32.8" fill="#d7d564" fill-rule="evenodd" stroke="none"/>
      <path d="M56.3 5.8 L56.5 10.2 56.65 14.9 56.7 19.5 56.75 23.5 57.15 29.15 57.4 32.95 57.5 34.5 57.9 46.15 57.9 46.65 57.9 47.2 57.85 51.65 57.7 55.35 57.7 86.4 58.6 99.75 58.6 100.15 58.6 100.35 58.7 102.45 58.85 105.95 58.95 108.5 58.95 109.65 58.95 110.0 Q58.95 118.45 60.25 130.3 L62.65 149.8 62.75 150.85 62.75 150.95 62.6 151.3 62.7 151.65 63.45 151.75 Q65.3 151.75 66.1 151.25 L67.95 150.3 Q71.9 148.95 87.5 149.2 L90.45 149.25 100.85 149.3 101.2 149.3 101.9 149.3 102.0 150.45 99.6 151.0 99.25 151.1 98.0 151.25 97.85 151.3 97.65 151.3 87.95 151.3 87.3 151.5 76.05 151.5 Q74.2 151.1 70.3 152.3 65.65 153.7 61.85 153.7 L60.8 153.5 60.8 152.35 60.2 147.7 59.6 143.1 Q59.6 139.4 57.75 116.6 L57.05 107.3 57.2 104.5 56.5 90.3 55.8 78.8 56.45 55.0 56.15 47.65 55.8 47.65 55.3 65.65 Q54.75 77.45 54.75 83.3 L54.8 86.3 54.6 86.3 54.6 86.7 54.8 87.4 55.1 93.85 53.1 127.8 Q52.05 134.85 52.1 141.65 L52.25 150.35 51.8 150.85 51.45 151.2 51.35 151.3 51.25 151.35 Q48.4 153.9 43.5 153.9 39.5 153.9 35.65 152.1 32.3 150.2 31.55 149.85 L17.7 149.85 Q15.25 149.7 12.65 151.35 L11.3 152.4 Q10.35 153.25 10.35 153.85 L10.35 153.95 9.95 153.95 7.4 153.5 7.7 150.9 8.35 149.8 8.6 147.5 8.95 147.5 17.4 147.8 23.95 148.05 24.0 148.05 26.75 148.15 27.15 148.15 35.9 150.05 35.95 150.05 Q36.1 150.1 36.25 150.25 36.4 150.3 36.55 150.45 L38.6 152.0 Q39.8 152.7 41.55 152.7 L42.9 152.7 43.3 152.7 46.1 152.35 46.15 152.3 49.7 150.4 Q50.4 129.25 51.8 115.0 L51.9 113.8 51.9 113.55 52.25 109.7 52.25 109.4 52.3 109.2 52.35 108.85 52.35 108.7 52.45 107.5 52.5 106.2 52.7 102.75 52.8 100.45 53.0 86.05 53.0 85.85 53.0 85.6 53.2 68.65 53.3 65.7 53.3 64.65 53.35 62.6 53.35 61.85 53.35 61.5 53.6 53.05 53.65 52.45 53.65 52.25 53.7 51.35 53.85 47.0 53.85 46.15 53.85 46.0 54.0 41.45 54.3 32.8 54.4 29.15 54.65 14.9 54.7 6.0 54.7 5.2 56.3 5.15 56.3 5.8" fill="#a09f46" fill-rule="evenodd" stroke="none"/>
      <path d="M11.3 152.4 L12.65 151.35 Q15.25 149.7 17.7 149.85 L31.55 149.85 Q32.3 150.2 35.65 152.1 39.5 153.9 43.5 153.9 48.4 153.9 51.25 151.35 L51.35 151.3 51.45 151.2 51.8 150.85 52.25 150.35 52.1 141.65 Q52.05 134.85 53.1 127.8 L55.1 93.85 54.8 87.4 54.6 86.7 54.6 86.3 54.8 86.3 54.75 83.3 Q54.75 77.45 55.3 65.65 L55.8 47.65 56.15 47.65 56.45 55.0 55.8 78.8 56.5 90.3 57.2 104.5 57.05 107.3 57.75 116.6 Q59.6 139.4 59.6 143.1 L60.2 147.7 60.8 152.35 60.8 153.5 61.85 153.7 Q65.65 153.7 70.3 152.3 74.2 151.1 76.05 151.5 L87.3 151.5 87.95 151.3 97.65 151.3 97.85 151.3 98.0 151.25 99.25 151.1 99.6 151.0 99.65 154.35 99.65 155.45 99.6 155.45 98.85 155.15 98.75 155.45 98.6 155.35 98.4 155.45 11.05 155.45 11.05 155.25 11.15 153.6 11.3 152.4" fill="#baba4b" fill-rule="evenodd" stroke="none"/>
      <path d="M98.4 155.45 L98.6 155.35 98.75 155.45 98.85 155.15 99.6 155.45 98.75 155.45 98.4 155.45" fill="#cece79" fill-rule="evenodd" stroke="none"/>
      <path d="M-12.8 152.8 Q-14.6 153.7 -17.05 153.7 L-20.3 153.35 -24.75 152.9 Q-18.05 149.6 -16.15 147.9 -14.1 146.0 -14.1 143.05 -14.1 133.75 -10.1 95.85 -6.2 58.8 -6.25 57.5 -6.6 48.45 -4.25 35.65 L0.05 14.45 Q1.55 6.45 13.15 -6.7 L19.95 -12.3 20.3 -12.6 Q25.45 -16.6 30.8 -18.55 45.4 -23.95 68.65 -17.55 L72.15 -16.55 Q91.6 -10.6 101.2 2.7 104.8 7.7 107.5 14.35 108.4 16.4 111.3 25.0 L111.8 24.55 Q113.5 23.2 114.6 23.15 114.8 23.3 114.8 24.05 114.8 24.5 111.9 26.85 114.2 34.35 115.4 46.55 117.15 64.95 117.65 67.9 120.0 82.15 121.75 110.7 124.4 136.25 133.05 153.55 L129.25 153.7 Q127.2 153.7 125.4 153.0 123.45 145.15 121.45 136.2 117.0 116.25 117.0 104.7 117.0 99.35 114.1 78.05 L112.65 67.5 112.4 65.5 111.15 55.65 Q111.15 47.7 109.2 37.75 L107.85 31.65 107.75 31.1 Q105.45 22.25 102.0 14.8 91.0 -8.85 71.15 -12.5 L68.65 -13.45 Q64.55 -14.8 58.55 -15.4 L41.65 -15.1 Q38.95 -15.0 32.3 -12.15 25.35 -9.15 23.6 -7.05 L23.6 -6.55 19.95 -3.6 Q10.3 5.35 4.95 22.25 1.3 33.85 -0.3 49.45 -1.15 57.85 -1.7 69.2 -2.25 77.1 -3.9 91.0 L-6.25 112.75 Q-6.55 116.75 -9.9 134.5 -12.25 147.2 -12.8 152.8" fill="#dcdca5" fill-rule="evenodd" stroke="none"/>
      <path d="M-12.8 152.8 Q-12.25 147.2 -9.9 134.5 -6.55 116.75 -6.25 112.75 L-3.9 91.0 Q-2.25 77.1 -1.7 69.2 -1.15 57.85 -0.3 49.45 1.3 33.85 4.95 22.25 10.3 5.35 19.95 -3.6 L23.6 -6.55 23.6 -7.05 Q25.35 -9.15 32.3 -12.15 38.95 -15.0 41.65 -15.1 L58.55 -15.4 Q64.55 -14.8 68.65 -13.45 L71.15 -12.5 Q91.0 -8.85 102.0 14.8 105.45 22.25 107.75 31.1 L107.85 31.65 109.2 37.75 Q111.15 47.7 111.15 55.65 L112.4 65.5 112.65 67.5 114.1 78.05 Q117.0 99.35 117.0 104.7 117.0 116.25 121.45 136.2 123.45 145.15 125.4 153.0 L125.85 154.75 125.85 155.3 126.45 155.4 124.2 156.15 113.65 155.9 100.15 155.5 100.2 155.45 101.85 154.95 103.4 154.7 107.65 154.5 108.5 154.5 123.45 154.95 123.75 155.0 Q119.55 139.2 117.2 111.9 114.55 80.35 112.0 67.7 L112.0 67.65 111.6 65.35 107.9 45.5 105.7 34.1 105.5 33.15 103.35 23.6 Q101.9 17.6 99.05 12.2 L96.3 7.75 Q95.0 3.9 85.7 -2.55 L81.35 -5.75 Q78.1 -7.85 74.9 -9.3 L72.35 -10.6 68.65 -11.75 59.15 -13.95 42.3 -14.1 39.6 -12.95 Q34.45 -11.65 28.95 -8.45 23.8 -5.45 19.95 -1.6 L18.05 0.4 Q15.3 3.55 14.35 5.95 7.75 13.4 6.25 22.15 L2.5 41.95 Q0.35 53.4 -0.7 61.3 0.45 74.0 -3.3 100.0 -7.55 129.1 -7.55 139.75 L-8.55 148.7 -8.9 150.85 -9.1 151.95 -9.75 154.7 0.9 154.4 5.2 154.35 7.1 154.35 9.55 154.45 9.95 154.5 9.3 154.6 7.95 154.85 4.85 155.3 2.0 155.65 -3.55 156.15 -10.15 155.9 -10.35 156.35 -10.8 156.2 Q-12.3 155.7 -13.1 154.8 L-12.95 154.8 -12.8 152.8" fill="#537842" fill-rule="evenodd" stroke="none"/>
      <path d="M5.2 154.35 L0.9 154.4 -9.75 154.7 -9.1 151.95 -8.9 150.85 -8.55 148.7 -7.55 139.75 Q-7.55 129.1 -3.3 100.0 0.45 74.0 -0.7 61.3 0.35 53.4 2.5 41.95 L6.25 22.15 Q7.75 13.4 14.35 5.95 15.3 3.55 18.05 0.4 L19.95 -1.6 Q23.8 -5.45 28.95 -8.45 34.45 -11.65 39.6 -12.95 L42.3 -14.1 59.15 -13.95 68.65 -11.75 72.35 -10.6 74.9 -9.3 Q78.1 -7.85 81.35 -5.75 L85.7 -2.55 Q95.0 3.9 96.3 7.75 L99.05 12.2 Q101.9 17.6 103.35 23.6 L105.5 33.15 105.7 34.1 107.9 45.5 111.6 65.35 112.0 67.65 112.0 67.7 Q114.55 80.35 117.2 111.9 119.55 139.2 123.75 155.0 L123.45 154.95 108.5 154.5 108.25 154.2 107.2 154.4 Q106.55 154.4 105.95 153.55 104.1 150.85 102.8 139.7 L102.0 130.35 Q101.95 127.1 101.3 122.25 L101.3 122.15 101.25 121.85 100.8 117.1 100.9 119.35 100.3 115.25 100.4 115.9 99.05 103.1 98.9 98.6 99.6 107.35 100.45 112.95 98.45 86.9 Q97.95 79.4 97.95 77.2 L97.3 72.85 95.85 63.0 95.8 54.05 95.8 53.7 95.05 49.9 93.8 42.6 94.15 46.75 92.55 38.15 92.3 36.8 92.0 32.25 92.35 33.65 92.1 32.25 Q90.3 24.2 84.25 14.75 82.2 11.55 79.7 9.25 74.8 5.4 68.65 3.65 65.8 2.8 62.65 2.4 L50.55 2.4 Q45.4 3.05 41.0 4.85 36.95 6.55 33.5 9.25 31.0 11.55 28.95 14.75 24.05 22.4 21.95 29.15 L21.1 32.25 20.9 33.65 19.55 41.95 19.5 42.1 18.7 46.8 18.15 49.9 17.4 53.7 17.4 54.05 17.35 61.85 17.1 64.95 16.95 66.3 16.0 72.25 15.9 72.85 Q14.5 82.0 14.5 83.35 L14.25 86.9 13.45 92.65 12.25 101.2 11.75 110.05 11.05 119.15 10.25 127.95 9.45 137.0 8.55 146.0 8.45 146.75 7.75 149.4 7.55 149.9 7.55 150.3 7.55 150.45 7.35 151.5 6.25 153.35 5.2 154.35 M68.65 -7.15 L56.7 -9.8 39.3 -9.95 Q27.6 -2.9 19.95 5.45 L16.6 9.45 16.8 9.65 Q17.7 10.6 17.7 14.3 L17.05 14.1 Q16.4 12.2 15.25 11.25 9.35 19.55 7.1 28.95 5.8 34.5 5.1 44.3 L6.65 44.45 Q7.35 44.75 7.35 45.95 L7.3 47.2 Q7.05 48.1 5.75 48.4 L4.9 48.05 4.85 48.0 4.8 48.55 Q4.05 61.8 2.65 68.15 1.0 75.85 0.45 87.75 -0.3 103.75 -0.7 107.3 -1.6 114.8 -4.5 127.9 -6.7 137.6 -6.7 146.7 -6.7 148.9 -4.6 150.45 L-3.35 150.4 Q1.3 150.35 3.05 148.8 L3.7 148.1 4.1 147.25 Q6.0 143.25 6.2 140.2 L6.2 128.6 Q11.1 99.35 11.1 91.5 L10.75 89.05 10.45 86.9 10.4 86.55 Q10.4 80.4 12.5 61.35 15.0 38.15 17.7 32.25 L19.95 26.0 20.1 25.5 Q21.4 21.2 22.5 18.95 23.8 16.25 25.95 13.75 27.6 11.05 30.25 8.15 39.45 -1.9 53.45 -3.3 L68.65 -2.8 Q81.4 -0.2 87.65 10.8 90.85 16.45 92.1 24.0 L92.55 25.2 Q95.1 31.65 96.7 38.75 L97.1 40.5 96.9 39.6 97.35 39.4 102.1 37.1 Q99.95 33.35 99.4 28.4 99.25 18.9 98.2 14.25 96.35 6.15 88.45 0.9 81.45 -3.8 68.65 -7.15 M95.05 13.95 L94.7 14.45 94.35 15.05 93.1 15.25 Q92.05 15.25 91.85 14.95 L91.65 14.3 91.95 13.3 93.65 13.2 Q94.3 13.35 95.05 13.95 M98.05 45.8 Q99.45 54.7 99.95 66.05 L101.2 84.15 101.55 86.9 101.95 90.05 103.95 111.1 105.3 131.9 Q105.35 133.5 105.9 137.1 L106.55 142.3 Q106.8 146.55 108.9 149.8 L110.2 151.6 112.25 151.15 Q119.65 149.7 119.65 147.45 119.65 136.8 114.7 105.2 110.9 80.9 108.1 67.15 L104.85 44.85 103.5 36.7 Q100.65 40.2 99.6 42.3 98.65 44.2 98.3 47.25 L98.05 45.8 M105.15 64.65 L105.95 63.95 Q106.2 63.6 106.4 63.65 L107.4 64.25 106.9 65.05 106.25 65.25 105.65 65.15 105.3 64.85 105.15 64.65 M10.6 35.25 L10.45 34.5 10.7 33.8 11.9 33.95 11.55 34.75 10.85 35.55 10.6 35.25 M107.15 92.3 L107.45 91.3 109.05 91.4 Q110.05 91.7 110.05 92.75 L109.8 93.95 109.5 94.25 107.15 92.3 M0.85 122.25 Q0.85 123.3 0.4 123.65 L-0.65 124.05 -2.15 123.5 -2.65 122.25 Q-1.75 120.95 0.45 120.95 L0.8 121.3 0.85 122.25 M1.2 89.05 L1.7 88.7 Q3.25 89.8 4.75 91.8 4.3 92.3 3.15 92.6 L1.85 91.75 Q0.85 90.85 0.85 90.15 0.85 89.2 1.2 89.05 M104.55 117.45 Q104.55 116.45 104.8 116.35 L105.7 116.15 Q106.4 116.35 108.3 118.35 110.15 120.35 110.55 121.3 L108.85 121.75 Q107.05 121.9 105.65 119.95 104.55 118.4 104.55 117.45" fill="#68ba6b" fill-rule="evenodd" stroke="none"/>
      <path d="M68.65 -7.15 Q81.45 -3.8 88.45 0.9 96.35 6.15 98.2 14.25 99.25 18.9 99.4 28.4 99.95 33.35 102.1 37.1 L97.35 39.4 96.9 39.6 97.1 40.5 96.7 38.75 Q95.1 31.65 92.55 25.2 L92.1 24.0 Q90.85 16.45 87.65 10.8 81.4 -0.2 68.65 -2.8 L53.45 -3.3 Q39.45 -1.9 30.25 8.15 27.6 11.05 25.95 13.75 23.8 16.25 22.5 18.95 21.4 21.2 20.1 25.5 L19.95 26.0 17.7 32.25 Q15.0 38.15 12.5 61.35 10.4 80.4 10.4 86.55 L10.45 86.9 10.75 89.05 11.1 91.5 Q11.1 99.35 6.2 128.6 L6.2 140.2 Q6.0 143.25 4.1 147.25 L3.7 148.1 3.05 148.8 Q1.3 150.35 -3.35 150.4 L-4.6 150.45 Q-6.7 148.9 -6.7 146.7 -6.7 137.6 -4.5 127.9 -1.6 114.8 -0.7 107.3 -0.3 103.75 0.45 87.75 1.0 75.85 2.65 68.15 4.05 61.8 4.8 48.55 L4.85 48.0 4.9 48.05 5.75 48.4 Q7.05 48.1 7.3 47.2 L7.35 45.95 Q7.35 44.75 6.65 44.45 L5.1 44.3 Q5.8 34.5 7.1 28.95 9.35 19.55 15.25 11.25 16.4 12.2 17.05 14.1 L17.7 14.3 Q17.7 10.6 16.8 9.65 L16.6 9.45 19.95 5.45 Q27.6 -2.9 39.3 -9.95 L56.7 -9.8 68.65 -7.15 M95.05 13.95 Q94.3 13.35 93.65 13.2 L91.95 13.3 91.65 14.3 91.85 14.95 Q92.05 15.25 93.1 15.25 L94.35 15.05 94.7 14.45 95.05 13.95 M105.15 64.65 L105.3 64.85 105.65 65.15 106.25 65.25 106.9 65.05 107.4 64.25 106.4 63.65 Q106.2 63.6 105.95 63.95 L105.15 64.65 M98.05 45.8 L98.3 47.25 Q98.65 44.2 99.6 42.3 100.65 40.2 103.5 36.7 L104.85 44.85 108.1 67.15 Q110.9 80.9 114.7 105.2 119.65 136.8 119.65 147.45 119.65 149.7 112.25 151.15 L110.2 151.6 108.9 149.8 Q106.8 146.55 106.55 142.3 L105.9 137.1 Q105.35 133.5 105.3 131.9 L103.95 111.1 101.95 90.05 101.55 86.9 101.2 84.15 99.95 66.05 Q99.45 54.7 98.05 45.8 M107.15 92.3 L109.5 94.25 109.8 93.95 110.05 92.75 Q110.05 91.7 109.05 91.4 L107.45 91.3 107.15 92.3 M10.6 35.25 L10.85 35.55 11.55 34.75 11.9 33.95 10.7 33.8 10.45 34.5 10.6 35.25 M1.2 89.05 Q0.85 89.2 0.85 90.15 0.85 90.85 1.85 91.75 L3.15 92.6 Q4.3 92.3 4.75 91.8 3.25 89.8 1.7 88.7 L1.2 89.05 M0.85 122.25 L0.8 121.3 0.45 120.95 Q-1.75 120.95 -2.65 122.25 L-2.15 123.5 -0.65 124.05 0.4 123.65 Q0.85 123.3 0.85 122.25 M104.55 117.45 Q104.55 118.4 105.65 119.95 107.05 121.9 108.85 121.75 L110.55 121.3 Q110.15 120.35 108.3 118.35 106.4 116.35 105.7 116.15 L104.8 116.35 Q104.55 116.45 104.55 117.45" fill="#64aa61" fill-rule="evenodd" stroke="none"/>
      <path d="M100.2 155.45 L96.9 155.45 96.5 153.9 96.2 147.05 96.3 147.05 96.15 146.0 95.75 141.75 95.2 138.55 95.1 134.95 93.8 113.0 91.65 86.9 91.25 83.5 88.3 57.9 86.5 44.65 85.1 36.5 84.15 33.85 Q82.25 28.1 80.9 25.65 77.65 19.65 70.3 15.5 L68.65 14.4 Q65.7 12.55 62.25 11.9 L59.45 10.95 49.2 10.95 Q44.65 12.35 41.0 14.1 L38.5 15.4 37.15 16.6 Q32.1 21.2 29.3 25.1 27.95 27.0 26.9 29.15 24.8 33.4 23.9 38.6 L21.7 52.2 19.75 63.05 17.4 83.5 17.0 86.9 Q16.1 95.5 14.85 113.0 13.55 132.05 13.55 134.95 13.55 139.6 12.8 144.35 L12.1 148.75 12.4 148.95 12.45 149.0 11.3 155.45 4.95 155.45 4.85 155.3 7.95 154.85 8.35 154.85 9.3 154.6 9.95 154.5 9.55 154.45 Q10.2 153.85 10.2 152.3 L9.85 149.25 Q9.45 147.25 8.75 146.15 L8.45 146.75 8.55 146.0 9.45 137.0 10.25 127.95 11.05 119.15 11.75 110.05 12.25 101.2 13.45 92.65 14.25 86.9 14.5 83.35 Q14.5 82.0 15.9 72.85 L16.0 72.25 16.95 66.3 17.35 63.0 17.35 61.85 17.4 54.05 17.4 53.7 18.15 49.9 18.7 46.8 19.5 42.1 19.55 41.95 20.9 33.65 21.1 32.25 21.95 29.15 Q24.05 22.4 28.95 14.75 31.0 11.55 33.5 9.25 36.95 6.55 41.0 4.85 45.4 3.05 50.55 2.4 L62.65 2.4 Q65.8 2.8 68.65 3.65 74.8 5.4 79.7 9.25 82.2 11.55 84.25 14.75 90.3 24.2 92.1 32.25 L92.35 33.65 92.0 32.25 Q91.0 28.6 89.7 25.6 L88.85 23.8 88.85 23.75 Q85.0 16.1 78.65 11.35 74.1 6.65 68.65 5.05 65.8 4.2 62.7 4.2 L60.45 4.2 55.2 3.65 Q47.85 2.95 41.0 6.5 38.05 8.05 35.2 10.35 32.9 12.2 31.1 14.25 27.0 18.05 25.8 21.95 L23.4 29.15 22.3 32.55 Q20.15 39.55 20.15 43.85 L19.9 45.1 19.65 46.3 Q19.65 49.85 17.9 61.75 L17.9 62.35 17.7 63.9 17.45 64.6 Q16.95 65.6 16.95 68.8 L17.1 68.8 15.1 86.9 12.85 110.1 Q9.75 143.45 9.75 147.55 L10.35 150.35 10.5 150.2 Q12.35 141.3 13.1 128.05 13.7 113.35 14.25 106.25 L16.55 86.9 16.6 86.3 Q18.25 72.05 18.65 65.55 L18.7 65.4 18.5 64.55 19.05 61.0 19.55 57.05 Q19.55 47.05 25.05 31.6 L25.95 29.15 Q31.95 13.55 39.05 12.1 40.0 11.5 41.0 11.0 44.95 8.95 49.5 8.55 L52.55 8.55 53.25 8.75 54.45 8.55 59.8 8.55 Q64.55 9.15 68.65 10.9 72.25 12.45 75.3 14.95 77.55 17.1 79.4 20.05 84.9 28.9 86.55 36.4 L87.85 44.65 89.2 52.85 89.9 56.4 89.9 56.7 89.95 65.05 91.25 74.25 92.55 84.05 92.75 86.9 93.2 90.3 93.5 92.45 93.5 92.7 94.6 100.7 95.05 108.95 Q95.3 114.15 95.65 117.45 L96.4 125.65 97.1 134.1 97.4 136.65 97.55 138.35 97.55 139.9 97.9 142.9 97.8 142.9 Q97.15 146.05 97.15 148.0 97.15 149.0 98.2 151.2 99.4 153.65 100.55 154.2 L104.05 154.2 104.3 153.9 104.55 152.65 104.15 152.65 103.65 150.6 Q103.2 148.8 103.2 147.95 L102.6 142.05 Q102.05 138.5 102.05 137.75 L101.8 133.4 101.8 133.35 101.55 131.6 Q101.0 128.55 101.0 126.35 L101.0 126.2 101.0 125.75 100.9 120.0 100.9 119.5 100.9 119.35 100.8 117.1 101.25 121.85 101.3 122.15 102.0 130.35 102.8 139.7 Q104.1 150.85 105.95 153.55 106.55 154.4 107.2 154.4 L108.25 154.2 108.5 154.5 107.65 154.5 103.4 154.7 101.85 154.95 100.2 155.45 M94.15 46.75 L93.8 42.6 95.05 49.9 95.8 53.7 95.8 54.05 95.85 63.0 97.3 72.85 97.95 77.2 Q97.95 79.4 98.45 86.9 L100.45 112.95 99.6 107.35 98.9 98.6 98.85 98.15 98.1 89.75 98.05 89.55 97.8 86.9 97.3 82.75 96.05 72.25 95.65 67.35 95.7 66.75 Q95.7 64.95 94.8 59.4 L94.8 59.2 94.75 59.05 94.35 54.6 94.35 54.2 94.2 47.75 94.15 46.85 94.15 46.75 M7.35 151.5 L6.9 153.4 7.05 154.3 7.1 154.35 5.2 154.35 6.25 153.35 7.35 151.5" fill="#557f46" fill-rule="evenodd" stroke="none"/>
      <path d="M100.9 119.35 L100.9 119.5 100.9 120.0 101.0 125.75 101.0 126.2 101.0 126.35 Q101.0 128.55 101.55 131.6 L101.8 133.35 101.8 133.4 102.05 137.75 Q102.05 138.5 102.6 142.05 L103.2 147.95 Q103.2 148.8 103.65 150.6 L104.15 152.65 104.55 152.65 104.3 153.9 104.05 154.2 100.55 154.2 Q99.4 153.65 98.2 151.2 97.15 149.0 97.15 148.0 97.15 146.05 97.8 142.9 L97.9 142.9 97.55 139.9 97.55 138.35 97.4 136.65 97.1 134.1 96.4 125.65 95.65 117.45 Q95.3 114.15 95.05 108.95 L94.6 100.7 93.5 92.7 93.5 92.45 93.2 90.3 92.75 86.9 92.55 84.05 91.25 74.25 89.95 65.05 89.9 56.7 89.9 56.4 89.2 52.85 87.85 44.65 86.55 36.4 Q84.9 28.9 79.4 20.05 77.55 17.1 75.3 14.95 72.25 12.45 68.65 10.9 64.55 9.15 59.8 8.55 L54.45 8.55 53.25 8.75 52.55 8.55 49.5 8.55 Q44.95 8.95 41.0 11.0 40.0 11.5 39.05 12.1 31.95 13.55 25.95 29.15 L25.05 31.6 Q19.55 47.05 19.55 57.05 L19.05 61.0 18.5 64.55 18.7 65.4 18.65 65.55 Q18.25 72.05 16.6 86.3 L16.55 86.9 14.25 106.25 Q13.7 113.35 13.1 128.05 12.35 141.3 10.5 150.2 L10.35 150.35 9.75 147.55 Q9.75 143.45 12.85 110.1 L15.1 86.9 17.1 68.8 16.95 68.8 Q16.95 65.6 17.45 64.6 L17.7 63.9 17.9 62.35 17.9 61.75 Q19.65 49.85 19.65 46.3 L19.9 45.1 20.15 43.85 Q20.15 39.55 22.3 32.55 L23.4 29.15 25.8 21.95 Q27.0 18.05 31.1 14.25 32.9 12.2 35.2 10.35 38.05 8.05 41.0 6.5 47.85 2.95 55.2 3.65 L60.45 4.2 62.7 4.2 Q65.8 4.2 68.65 5.05 74.1 6.65 78.65 11.35 85.0 16.1 88.85 23.75 L88.85 23.8 89.7 25.6 Q91.0 28.6 92.0 32.25 L92.3 36.8 92.55 38.15 94.15 46.75 94.15 46.85 94.2 47.75 94.35 54.2 94.35 54.6 94.75 59.05 94.8 59.2 94.8 59.4 Q95.7 64.95 95.7 66.75 L95.65 67.35 96.05 72.25 97.3 82.75 97.8 86.9 98.05 89.55 98.1 89.75 98.85 98.15 98.9 98.6 99.05 103.1 100.4 115.9 100.3 115.25 100.9 119.35 M8.45 146.75 L8.75 146.15 Q9.45 147.25 9.85 149.25 L10.2 152.3 Q10.2 153.85 9.55 154.45 L7.1 154.35 7.05 154.3 6.9 153.4 7.35 151.5 7.55 150.45 7.7 149.5 7.75 149.4 8.45 146.75" fill="#5b9051" fill-rule="evenodd" stroke="none"/>
      <path d="M7.75 149.4 L7.7 149.5 7.55 150.45 7.55 150.3 7.55 149.9 7.75 149.4" fill="#baba4b" fill-rule="evenodd" stroke="none"/>
      <path d="M9.3 154.6 L8.35 154.85 7.95 154.85 9.3 154.6 M101.3 122.15 L101.3 122.25 Q101.95 127.1 102.0 130.35 L101.3 122.15" fill="#cece79" fill-rule="evenodd" stroke="none"/>
    </g>
  </defs>
</svg>
