<?xml version="1.0" encoding="UTF-8" standalone="no"?>
<svg xmlns:ffdec="https://www.free-decompiler.com/flash" xmlns:xlink="http://www.w3.org/1999/xlink" ffdec:objectType="frame" height="510.8px" width="863.15px" xmlns="http://www.w3.org/2000/svg">
  <g transform="matrix(1.0, 0.0, 0.0, 1.0, 352.65, 365.35)">
    <use ffdec:characterId="1860" height="62.3" transform="matrix(-0.2349, -1.9806, 1.9806, -0.2349, -109.3215, 68.8865)" width="173.95" xlink:href="#sprite0"/>
    <use ffdec:characterId="1860" height="62.3" transform="matrix(0.5422, -1.9183, 1.9183, 0.5422, -114.4968, 30.1331)" width="173.95" xlink:href="#sprite0"/>
    <use ffdec:characterId="1860" height="62.3" transform="matrix(1.2892, -1.5185, 1.5185, 1.2892, -102.8746, -12.4167)" width="173.95" xlink:href="#sprite0"/>
    <use ffdec:characterId="541" height="16.4" transform="matrix(-0.3152, -11.859, 9.8352, -0.2613, -144.8551, 49.445)" width="28.05" xlink:href="#shape1"/>
  </g>
  <defs>
    <g id="sprite0" transform="matrix(1.0, 0.0, 0.0, 1.0, 70.0, 32.55)">
      <use ffdec:characterId="1859" height="8.9" transform="matrix(7.0, 0.0, 0.0, 7.0, -70.0, -32.55)" width="24.85" xlink:href="#shape0"/>
    </g>
    <g id="shape0" transform="matrix(1.0, 0.0, 0.0, 1.0, 10.0, 4.65)">
      <path d="M1.35 -2.3 L1.9 -2.45 2.8 -2.6 2.9 -2.6 3.45 -2.7 3.8 -2.75 4.1 -2.8 Q4.25 -2.65 4.25 -2.4 4.25 -2.25 4.1 -2.0 L4.1 -2.1 3.55 -2.0 2.45 -1.85 Q2.0 -1.75 1.75 -1.6 1.4 -1.9 1.4 -2.2 1.4 -2.25 1.4 -2.3 L1.35 -2.3 M8.3 -3.5 L8.35 -3.45 8.35 -3.4 8.45 -3.25 Q8.45 -3.1 8.35 -2.95 L7.3 -2.7 6.3 -2.6 Q6.6 -2.8 7.05 -3.0 7.85 -3.4 8.3 -3.5 M0.1 -2.05 L0.15 -1.85 Q0.15 -1.55 -0.1 -1.25 L-0.9 -1.15 -1.05 -1.15 -0.95 -1.3 Q-0.85 -1.55 -0.9 -1.85 L-0.8 -2.0 -0.2 -2.0 0.0 -2.05 0.1 -2.05 M-1.15 -0.6 L-1.3 -0.6 -1.35 -0.6 -1.3 -0.65 -1.3 -0.6 -1.15 -0.6 M13.3 -3.9 L13.4 -3.9 13.5 -3.95 13.45 -3.9 13.3 -3.9 M12.7 -3.45 L11.9 -2.95 11.65 -2.85 11.65 -2.9 Q11.7 -3.05 12.0 -3.3 L12.7 -3.45 M10.1 -2.15 L9.95 -2.05 9.5 -1.8 Q8.85 -1.45 8.35 -1.3 L8.1 -1.25 7.3 -1.05 Q7.2 -1.1 7.2 -1.2 7.2 -1.3 7.25 -1.45 L8.95 -2.1 Q9.55 -2.35 10.1 -2.45 L10.1 -2.4 10.0 -2.1 10.1 -2.15 M6.4 -0.75 L5.85 -0.5 5.8 -0.5 5.1 -0.05 5.05 -0.05 5.1 -0.15 5.05 -0.4 4.95 -0.65 5.1 -0.7 6.0 -1.05 6.95 -1.35 Q6.8 -1.15 6.5 -0.85 L6.4 -0.75 M4.25 0.35 L3.9 0.5 3.4 0.75 3.35 0.8 3.05 0.9 Q2.75 0.9 2.65 0.8 2.85 0.45 3.05 0.15 3.85 -0.2 4.3 -0.45 4.45 -0.25 4.45 0.1 4.45 0.2 4.25 0.35 M-0.85 2.2 Q-1.4 2.15 -1.85 2.3 L-2.15 2.55 -2.2 2.55 -2.4 2.6 -2.55 2.55 -2.6 2.55 Q-2.7 2.4 -2.7 2.25 L-2.65 2.2 Q-1.8 1.7 -0.9 1.7 -0.7 1.85 -0.65 2.05 -0.7 2.1 -0.75 2.15 L-0.85 2.2 M-4.45 3.7 L-5.05 3.65 -4.6 3.55 -4.45 3.7 M-5.4 3.55 L-7.55 3.0 -7.75 2.8 -7.75 2.75 Q-7.45 2.65 -7.25 2.65 L-7.0 2.65 Q-6.75 2.65 -5.9 2.85 L-4.9 3.1 -4.9 3.25 -5.0 3.35 -5.3 3.3 Q-5.45 3.3 -5.45 3.45 L-5.4 3.55 M-6.65 0.55 L-6.3 0.2 -6.35 0.35 -6.25 0.35 -5.95 0.3 -5.8 0.25 -5.8 0.3 -5.7 0.4 Q-6.85 1.35 -7.7 1.95 L-7.85 1.95 -7.8 1.9 Q-7.7 1.7 -7.7 1.65 L-7.7 1.55 -6.65 0.55 M-6.25 0.1 L-5.95 -0.1 -5.6 -0.4 -5.55 -0.1 -5.8 -0.15 Q-6.0 -0.15 -6.0 0.0 L-6.25 0.1 M-5.05 -0.6 L-4.6 -0.7 -4.55 -0.7 -4.55 -0.6 -4.4 -0.6 Q-4.25 -0.5 -4.15 -0.4 L-4.1 -0.2 -4.65 -0.1 -4.75 -0.05 -4.8 -0.05 -5.05 0.0 -5.2 -0.2 -5.1 -0.3 Q-5.0 -0.45 -5.0 -0.5 -5.0 -0.55 -5.05 -0.6 M-4.25 -0.85 L-4.2 -0.9 -4.25 -0.85 M-3.95 -0.7 L-3.9 -0.65 -3.95 -0.7 M-3.75 -0.9 L-3.75 -0.95 -3.75 -0.9 M-3.15 -0.85 L-3.05 -0.85 -2.8 -0.8 Q-2.7 -0.8 -2.4 -0.9 -2.2 -0.95 -1.95 -1.1 -1.85 -1.0 -1.7 -1.0 L-1.65 -0.8 -1.7 -0.65 Q-2.1 -0.35 -2.25 -0.35 L-3.6 -0.25 -3.6 -0.3 Q-3.15 -0.85 -3.15 -0.8 L-3.15 -0.85 M-0.25 1.55 L-0.2 1.6 1.35 0.85 Q2.0 0.7 2.5 0.4 2.35 0.9 1.65 1.3 L1.05 1.65 0.55 1.8 0.0 1.65 -0.25 1.55 M9.25 -3.2 Q9.3 -3.65 10.1 -3.9 L11.25 -4.0 11.25 -3.9 Q11.2 -3.8 11.0 -3.6 L9.8 -3.35 9.25 -3.2 M12.25 -4.0 L12.25 -4.05 Q12.3 -4.15 12.35 -4.2 L12.55 -4.2 12.75 -4.25 13.95 -4.25 12.75 -3.95 12.25 -4.0 M-3.25 2.65 L-3.25 2.7 -3.15 2.9 -3.3 3.2 -3.25 3.25 -3.9 3.45 -4.15 3.45 -4.2 3.35 -4.3 3.05 -3.85 2.9 -3.25 2.65 M-7.95 1.65 L-8.0 1.75 -8.3 2.05 -8.65 2.35 -8.8 2.35 -8.8 2.4 -8.85 2.45 -9.0 2.5 -7.95 1.65 M-7.95 2.85 Q-7.9 2.95 -7.85 3.0 L-8.15 3.0 -7.95 2.85 M-8.6 2.85 L-9.15 2.65 -8.4 2.6 Q-8.7 2.65 -8.7 2.75 L-8.6 2.85" fill="#90e6ff" fill-opacity="0.19607843" fill-rule="evenodd" stroke="none"/>
      <path d="M1.35 -2.3 L1.4 -2.3 Q1.4 -2.25 1.4 -2.2 1.4 -1.9 1.75 -1.6 L1.9 -1.5 2.05 -1.45 2.05 -1.4 Q2.6 -1.1 2.8 -1.1 3.0 -1.1 3.6 -1.55 L4.1 -2.0 Q4.25 -2.25 4.25 -2.4 4.25 -2.65 4.1 -2.8 L4.45 -2.85 5.3 -2.85 Q5.65 -2.85 6.3 -3.05 L6.4 -3.05 6.7 -3.15 Q6.8 -3.2 7.45 -3.45 L7.5 -3.5 7.7 -3.55 7.75 -3.55 7.95 -3.6 8.15 -3.55 8.3 -3.5 Q7.85 -3.4 7.05 -3.0 6.6 -2.8 6.3 -2.6 L6.2 -2.5 5.8 -1.95 5.8 -1.85 Q5.8 -1.75 6.05 -1.7 L5.85 -1.65 4.95 -1.5 Q4.85 -1.45 4.75 -1.4 L4.7 -1.4 4.45 -1.35 4.0 -1.2 3.7 -1.15 Q3.6 -1.05 3.25 -0.95 L3.05 -0.9 2.95 -0.9 2.75 -0.85 2.3 -0.85 Q2.25 -0.85 1.3 -1.3 1.2 -1.3 1.05 -1.4 L0.9 -1.5 0.8 -1.8 0.8 -1.95 Q0.95 -2.1 0.95 -2.2 L1.15 -2.2 1.25 -2.25 1.3 -2.25 1.3 -2.3 1.35 -2.3 M8.35 -3.4 L8.4 -3.4 8.65 -3.15 8.7 -3.05 8.75 -2.85 8.8 -2.75 7.6 -2.3 7.5 -2.25 8.25 -2.8 8.35 -2.95 Q8.45 -3.1 8.45 -3.25 L8.35 -3.4 M-0.1 -1.25 Q0.15 -1.55 0.15 -1.85 L0.1 -2.05 0.3 -2.1 0.4 -2.15 0.45 -2.15 Q0.5 -2.1 0.55 -2.1 L0.7 -1.95 0.65 -1.85 0.75 -1.75 Q0.8 -1.6 0.8 -1.45 0.8 -1.2 0.45 -0.95 L0.2 -0.75 0.05 -0.6 Q-0.35 -0.1 -0.6 -0.1 L-0.75 -0.05 -0.85 0.0 -1.0 0.0 Q-1.1 0.0 -1.1 -0.05 L-1.15 0.0 -1.45 0.0 -1.45 -0.05 -1.5 -0.1 -1.5 -0.15 Q-1.55 -0.25 -1.4 -0.4 L-1.35 -0.6 -1.3 -0.6 -1.15 -0.6 Q-0.85 -0.65 -0.45 -0.95 L-0.1 -1.25 M-1.3 -0.6 L-1.3 -0.6 M0.65 -0.35 L0.05 -0.2 -0.1 -0.1 -0.2 -0.1 -0.15 -0.15 0.2 -0.7 0.5 -0.9 Q0.55 -1.05 0.7 -1.15 0.85 -1.3 0.95 -1.3 L1.05 -1.3 Q1.15 -1.25 1.25 -1.2 L1.35 -1.2 Q1.7 -1.05 1.75 -1.05 L2.05 -0.9 2.25 -0.75 Q1.8 -0.6 1.65 -0.6 L1.3 -0.5 Q1.45 -0.65 1.6 -0.9 L1.2 -1.0 Q1.0 -1.0 0.7 -0.8 L0.25 -0.45 Q0.3 -0.35 0.45 -0.35 L0.65 -0.35 M0.65 -0.25 L1.55 -0.45 1.8 -0.5 2.0 -0.5 2.1 -0.35 2.35 -0.45 2.65 -0.6 2.7 -0.6 2.9 -0.7 2.95 -0.7 3.0 -0.75 3.6 -0.9 3.85 -1.0 3.9 -0.95 3.9 -1.0 Q4.15 -1.05 4.5 -0.7 L4.35 -0.95 4.25 -1.1 4.3 -1.15 4.4 -1.2 5.6 -1.5 5.5 -1.45 Q4.95 -1.15 4.95 -0.65 L5.05 -0.4 5.1 -0.15 5.05 -0.05 5.0 -0.15 4.8 -0.3 4.75 -0.4 Q4.85 -0.2 4.85 -0.05 4.85 0.0 4.8 0.05 L4.75 0.15 4.65 0.2 4.35 0.3 4.25 0.35 Q4.45 0.2 4.45 0.1 4.45 -0.25 4.3 -0.45 L4.2 -0.55 4.15 -0.55 Q4.1 -0.55 4.05 -0.6 L4.0 -0.65 3.95 -0.65 Q3.65 -0.6 3.25 -0.1 L3.05 0.15 Q2.85 0.45 2.65 0.8 2.75 0.9 3.05 0.9 L3.0 0.95 2.85 1.05 Q2.55 1.2 2.3 1.3 L1.4 1.65 1.25 1.7 Q1.05 1.8 0.7 2.0 L0.2 2.3 -0.2 1.85 -0.5 1.75 Q-0.8 1.6 -0.95 1.4 -1.25 1.3 -1.3 1.15 -1.3 1.1 -1.3 1.0 L-1.7 1.2 Q-1.5 1.2 -1.35 1.3 -1.0 1.5 -0.75 1.7 L0.05 2.3 -0.55 2.25 -0.65 2.3 -0.85 2.2 -0.75 2.15 Q-0.7 2.1 -0.65 2.05 -0.7 1.85 -0.9 1.7 L-1.1 1.55 Q-1.45 1.35 -1.8 1.35 -1.95 1.35 -2.3 1.65 -2.6 1.95 -2.7 2.1 L-2.7 2.25 Q-2.7 2.4 -2.6 2.55 L-2.55 2.55 -2.4 2.6 -2.2 2.55 -2.15 2.55 -2.6 2.95 -2.75 2.7 -2.95 2.5 -2.7 3.05 -4.45 3.7 -4.6 3.55 -5.05 3.65 -5.4 3.55 -5.45 3.45 Q-5.45 3.3 -5.3 3.3 L-5.0 3.35 -4.9 3.25 -4.9 3.1 Q-4.95 2.75 -5.4 2.6 -5.7 2.5 -6.1 2.5 L-6.55 2.6 -7.2 2.65 -7.25 2.65 Q-7.45 2.65 -7.75 2.75 L-7.75 2.8 -7.55 3.0 -9.25 2.7 -6.65 0.55 -7.7 1.55 -7.7 1.65 Q-7.7 1.7 -7.8 1.9 L-7.85 1.95 -7.7 1.95 -7.65 2.0 -7.2 1.8 Q-6.3 1.4 -5.8 1.1 -5.55 0.9 -5.55 0.7 -5.55 0.6 -5.7 0.4 L-5.8 0.3 -5.8 0.25 -5.95 0.3 -6.25 0.35 -6.35 0.35 -6.3 0.2 -6.25 0.1 -6.0 0.0 Q-6.0 -0.15 -5.8 -0.15 L-5.55 -0.1 -5.6 -0.4 -5.95 -0.1 -5.45 -0.55 -5.05 -0.6 Q-5.0 -0.55 -5.0 -0.5 -5.0 -0.45 -5.1 -0.3 L-5.2 -0.2 -5.05 0.0 Q-4.9 0.2 -4.75 0.2 L-4.4 0.1 -4.1 -0.05 -4.05 -0.1 -4.1 -0.2 -4.15 -0.4 Q-4.25 -0.5 -4.4 -0.6 L-4.55 -0.6 -4.55 -0.7 -4.6 -0.7 -4.25 -0.85 -4.2 -0.9 Q-4.15 -1.0 -4.05 -0.85 -3.95 -0.85 -3.95 -0.7 L-3.9 -0.65 -3.75 -0.9 -3.75 -0.95 -3.5 -0.95 Q-3.15 -1.0 -3.15 -0.85 L-3.15 -0.8 Q-3.15 -0.85 -3.6 -0.3 L-3.6 -0.25 -3.6 -0.15 -3.55 -0.1 Q-3.45 -0.05 -3.3 0.05 -3.1 0.2 -2.9 0.2 L-2.6 0.2 -2.35 0.15 -2.15 0.0 Q-1.8 -0.3 -1.7 -0.55 L-1.7 -0.65 -1.65 -0.8 -1.7 -1.0 Q-1.85 -1.0 -1.95 -1.1 L-1.9 -1.25 Q-1.8 -1.25 -1.75 -1.2 L-1.55 -1.3 -1.45 -1.4 -1.35 -1.45 -1.1 -1.65 -1.25 -0.95 -1.3 -0.7 Q-1.4 -0.5 -1.6 -0.35 L-1.65 -0.2 Q-1.8 0.0 -2.0 0.05 L-2.05 0.1 -1.95 0.1 -2.2 0.2 -2.15 0.2 -1.95 0.15 -1.8 0.15 -0.75 0.1 -0.4 0.0 0.65 -0.25 M6.95 -1.95 L7.0 -1.95 7.4 -2.1 7.5 -2.15 7.75 -2.25 9.15 -2.7 9.75 -2.85 10.65 -3.1 10.75 -3.15 10.9 -3.2 13.3 -3.9 13.45 -3.9 13.4 -3.85 12.7 -3.45 12.0 -3.3 Q11.7 -3.05 11.65 -2.9 L11.65 -2.85 10.85 -2.45 10.1 -2.15 10.0 -2.1 10.1 -2.4 10.1 -2.45 Q10.1 -2.7 9.8 -2.75 L9.75 -2.7 9.65 -2.7 9.6 -2.65 9.55 -2.65 7.4 -1.55 7.25 -1.45 Q7.2 -1.3 7.2 -1.2 7.2 -1.1 7.3 -1.05 L6.95 -0.95 6.9 -0.95 6.8 -0.9 6.45 -0.75 6.4 -0.75 6.5 -0.85 Q6.8 -1.15 6.95 -1.35 7.05 -1.55 7.05 -1.7 7.05 -1.9 6.95 -1.95 M2.5 0.4 L2.6 0.1 2.6 0.0 2.5 -0.1 2.3 -0.25 2.25 -0.25 Q-0.6 0.6 -0.6 1.0 L-0.55 1.2 -0.45 1.4 -0.25 1.55 0.0 1.65 0.55 1.8 1.05 1.65 1.65 1.3 Q2.35 0.9 2.5 0.4 M9.5 -2.95 Q9.4 -2.85 9.15 -2.85 8.95 -2.85 8.7 -3.15 8.45 -3.4 8.4 -3.55 L8.4 -3.6 Q8.4 -3.7 8.45 -3.7 L8.55 -3.7 9.45 -3.85 9.55 -3.9 10.1 -3.9 Q9.3 -3.65 9.25 -3.2 L9.25 -3.15 Q9.25 -3.0 9.45 -2.95 L9.5 -2.95 M11.25 -4.0 L11.3 -4.0 11.9 -4.1 12.05 -4.15 12.1 -4.1 Q12.2 -4.05 12.2 -3.95 L12.15 -3.8 12.15 -3.75 11.9 -3.65 11.75 -3.55 Q11.25 -3.35 10.95 -3.25 L10.9 -3.25 10.35 -3.1 10.2 -3.05 10.55 -3.25 10.6 -3.3 10.9 -3.55 11.0 -3.6 Q11.2 -3.8 11.25 -3.9 L11.25 -4.0 M12.25 -4.0 L12.75 -3.95 12.6 -3.9 12.2 -3.75 12.25 -4.0 M-0.5 0.65 L-0.5 0.65 M-0.75 0.35 L-0.85 0.3 -1.15 0.3 -1.35 0.35 Q-1.35 0.4 -1.5 0.5 L-1.5 0.55 -1.6 0.7 -0.85 0.45 -0.8 0.4 -0.75 0.4 -0.75 0.35 M-1.9 0.6 L-1.85 0.45 -2.65 0.65 -2.65 0.7 Q-3.5 1.15 -3.5 1.9 L-3.5 1.95 -3.35 1.85 Q-2.85 1.3 -2.5 1.15 L-2.3 1.05 -2.25 1.0 -2.1 0.8 -1.9 0.6 M-2.8 1.7 L-3.0 1.9 -2.9 1.9 -2.85 1.85 Q-2.85 1.75 -2.75 1.7 L-2.8 1.7 M-3.3 0.4 L-3.5 0.3 Q-3.55 0.1 -3.85 0.2 -3.75 0.2 -3.7 0.2 L-3.4 0.4 -3.3 0.45 -3.3 0.4 M-3.35 0.8 L-3.35 0.8 M-4.05 0.9 L-4.15 1.0 Q-4.7 1.6 -4.7 2.05 L-4.65 2.15 -4.5 2.2 -4.3 2.2 -4.05 1.9 Q-3.85 1.8 -3.8 1.65 -3.6 1.15 -3.6 0.95 L-3.65 0.8 -3.75 0.7 Q-3.85 0.7 -4.0 0.85 L-4.05 0.9 M-4.85 0.7 L-4.55 0.45 -4.65 0.45 -4.85 0.7 M-5.5 1.6 L-5.55 1.7 -5.55 1.75 Q-5.55 1.9 -5.15 2.05 -4.95 1.95 -4.85 1.7 -4.65 1.3 -4.55 1.1 L-4.55 1.0 -4.7 1.0 -5.35 1.45 -5.45 1.5 -5.5 1.6 M-4.35 2.5 L-4.85 2.5 Q-4.65 2.65 -4.55 2.9 L-4.55 2.8 Q-4.55 2.65 -4.25 2.5 L-4.35 2.5 M-3.2 2.15 L-3.2 2.25 -3.05 2.3 -3.2 2.15 M-3.25 2.65 Q-3.35 2.6 -3.4 2.6 -3.6 2.6 -3.95 2.75 -4.25 2.9 -4.3 3.05 L-4.2 3.35 -4.15 3.45 -3.9 3.45 -3.25 3.25 -3.3 3.2 -3.15 2.9 -3.25 2.7 -3.25 2.65 M-7.95 1.65 L-9.0 2.5 -8.85 2.45 -8.8 2.4 -8.8 2.35 -8.65 2.35 -8.3 2.05 -8.0 1.75 -7.95 1.65 M-7.5 2.35 L-8.2 2.5 -7.55 2.35 -7.5 2.35 M-8.6 2.85 L-8.7 2.75 Q-8.7 2.65 -8.4 2.6 L-9.15 2.65 -8.6 2.85 M-7.95 2.85 L-8.15 3.0 -7.85 3.0 Q-7.9 2.95 -7.95 2.85" fill="#caf9ff" fill-opacity="0.19607843" fill-rule="evenodd" stroke="none"/>
      <path d="M1.75 -1.6 Q2.0 -1.75 2.45 -1.85 L3.55 -2.0 4.1 -2.1 4.1 -2.0 3.6 -1.55 Q3.0 -1.1 2.8 -1.1 2.6 -1.1 2.05 -1.4 L2.05 -1.45 1.9 -1.5 1.75 -1.6 M7.5 -2.25 L7.2 -2.1 6.65 -1.95 6.05 -1.7 Q5.8 -1.75 5.8 -1.85 L5.8 -1.95 6.2 -2.5 6.3 -2.6 7.3 -2.7 8.35 -2.95 8.25 -2.8 7.5 -2.25 M-1.05 -1.15 L-0.9 -1.15 -0.1 -1.25 -0.45 -0.95 Q-0.85 -0.65 -1.15 -0.6 L-1.3 -0.6 -1.25 -0.75 -1.05 -1.1 -1.05 -1.15 M1.3 -0.5 L1.15 -0.5 0.65 -0.35 0.45 -0.35 Q0.3 -0.35 0.25 -0.45 L0.7 -0.8 Q1.0 -1.0 1.2 -1.0 L1.6 -0.9 Q1.45 -0.65 1.3 -0.5 M0.65 -0.25 L1.55 -0.45 0.65 -0.25 M1.8 -0.5 L2.0 -0.5 1.8 -0.5 M5.6 -1.5 L5.95 -1.55 6.95 -1.95 Q7.05 -1.9 7.05 -1.7 7.05 -1.55 6.95 -1.35 L6.0 -1.05 5.1 -0.7 4.95 -0.65 Q4.95 -1.15 5.5 -1.45 L5.6 -1.5 M-0.75 0.1 L-0.4 0.0 -0.75 0.1 M-0.25 1.55 L-0.45 1.4 -0.55 1.2 -0.6 1.0 Q-0.6 0.6 2.25 -0.25 L2.3 -0.25 2.5 -0.1 2.6 0.0 2.6 0.1 2.5 0.4 Q2.0 0.7 1.35 0.85 L-0.2 1.6 -0.25 1.55 M3.05 0.15 L3.25 -0.1 Q3.65 -0.6 3.95 -0.65 L4.0 -0.65 4.05 -0.6 Q4.1 -0.55 4.15 -0.55 L4.2 -0.55 4.3 -0.45 Q3.85 -0.2 3.05 0.15 M9.5 -2.95 L9.45 -2.95 Q9.25 -3.0 9.25 -3.15 L9.25 -3.2 9.8 -3.35 11.0 -3.6 10.9 -3.55 10.6 -3.3 10.55 -3.25 10.2 -3.05 9.8 -3.0 9.65 -2.95 9.5 -2.95 M7.25 -1.45 L7.4 -1.55 9.55 -2.65 9.6 -2.65 9.65 -2.7 9.75 -2.7 9.8 -2.75 Q10.1 -2.7 10.1 -2.45 9.55 -2.35 8.95 -2.1 L7.25 -1.45 M-4.1 -0.2 L-4.05 -0.1 -4.1 -0.05 -4.4 0.1 -4.75 0.2 Q-4.9 0.2 -5.05 0.0 L-4.8 -0.05 -4.75 -0.05 -4.65 -0.1 -4.1 -0.2 M-1.7 -0.65 L-1.7 -0.55 Q-1.8 -0.3 -2.15 0.0 L-2.35 0.15 -2.6 0.2 -2.9 0.2 Q-3.1 0.2 -3.3 0.05 -3.45 -0.05 -3.55 -0.1 L-3.6 -0.15 -3.6 -0.25 -2.25 -0.35 Q-2.1 -0.35 -1.7 -0.65 M-0.75 0.35 L-0.75 0.4 -0.8 0.4 -0.85 0.45 -1.6 0.7 -1.5 0.55 -1.5 0.5 Q-1.35 0.4 -1.35 0.35 L-1.15 0.3 -0.85 0.3 -0.75 0.35 M-2.7 2.25 L-2.7 2.1 Q-2.6 1.95 -2.3 1.65 -1.95 1.35 -1.8 1.35 -1.45 1.35 -1.1 1.55 L-0.9 1.7 Q-1.8 1.7 -2.65 2.2 L-2.7 2.25 M-1.9 0.6 L-2.1 0.8 -2.25 1.0 -2.3 1.05 -2.5 1.15 Q-2.85 1.3 -3.35 1.85 L-3.5 1.95 -3.5 1.9 Q-3.5 1.15 -2.65 0.7 L-2.65 0.65 -1.85 0.45 -1.9 0.6 M-3.3 0.45 L-3.4 0.4 -3.7 0.2 Q-3.75 0.2 -3.85 0.2 -3.55 0.1 -3.5 0.3 L-3.3 0.4 -3.3 0.45 M-4.05 0.9 L-4.0 0.85 Q-3.85 0.7 -3.75 0.7 L-3.65 0.8 -3.6 0.95 Q-3.6 1.15 -3.8 1.65 -3.85 1.8 -4.05 1.9 L-4.3 2.2 -4.5 2.2 -4.65 2.15 -4.7 2.05 Q-4.7 1.6 -4.15 1.0 L-4.05 0.9 M-3.35 0.8 L-3.35 0.8 M-4.85 0.7 L-4.65 0.45 -4.55 0.45 -4.85 0.7 M-5.7 0.4 Q-5.55 0.6 -5.55 0.7 -5.55 0.9 -5.8 1.1 -6.3 1.4 -7.2 1.8 L-7.65 2.0 -7.7 1.95 Q-6.85 1.35 -5.7 0.4 M-5.5 1.6 L-5.45 1.5 -5.35 1.45 -4.7 1.0 -4.55 1.0 -4.55 1.1 Q-4.65 1.3 -4.85 1.7 -4.95 1.95 -5.15 2.05 -5.55 1.9 -5.55 1.75 L-5.55 1.7 -5.5 1.6 M-4.35 2.5 L-4.25 2.5 Q-4.55 2.65 -4.55 2.8 L-4.55 2.9 Q-4.65 2.65 -4.85 2.5 L-4.35 2.5 M-7.25 2.65 L-7.2 2.65 -6.55 2.6 -6.1 2.5 Q-5.7 2.5 -5.4 2.6 -4.95 2.75 -4.9 3.1 L-5.9 2.85 Q-6.75 2.65 -7.0 2.65 L-7.25 2.65 M-4.3 3.05 Q-4.25 2.9 -3.95 2.75 -3.6 2.6 -3.4 2.6 -3.35 2.6 -3.25 2.65 L-3.85 2.9 -4.3 3.05 M-7.5 2.35 L-7.55 2.35 -8.2 2.5 -7.5 2.35" fill="#28a8d2" fill-opacity="0.19607843" fill-rule="evenodd" stroke="none"/>
      <path d="M1.45 -2.65 L2.7 -2.9 3.25 -3.05 3.85 -3.2 3.95 -3.2 4.15 -3.25 5.0 -3.25 Q5.6 -3.25 6.2 -3.4 L6.6 -3.5 6.75 -3.55 7.3 -3.8 7.45 -3.85 7.5 -3.9 7.9 -4.1 8.55 -4.1 9.25 -4.25 Q9.65 -4.2 10.3 -4.25 11.5 -4.4 12.05 -4.55 L12.3 -4.65 12.35 -4.65 14.0 -4.55 14.85 -4.45 Q14.35 -4.15 13.75 -3.6 L12.95 -3.2 Q12.25 -2.8 11.7 -2.4 L11.4 -2.3 Q10.7 -2.05 10.3 -1.75 L10.15 -1.65 9.45 -1.35 9.2 -1.2 9.15 -1.2 9.1 -1.15 7.5 -0.75 7.05 -0.55 Q6.3 -0.25 5.55 0.2 4.55 0.6 3.6 1.05 3.0 1.35 2.55 1.6 L1.95 1.85 1.8 1.9 1.7 1.95 1.3 2.05 Q1.0 2.15 0.8 2.3 0.6 2.5 0.5 2.7 L-0.2 2.55 -1.15 2.45 -1.5 2.5 Q-1.75 2.6 -1.9 2.7 L-1.95 2.75 -2.05 2.9 Q-2.2 3.1 -2.2 3.2 L-2.2 3.3 -2.25 3.3 Q-2.5 3.3 -3.0 3.45 -3.65 3.65 -3.85 3.85 -4.05 4.0 -4.1 4.15 L-4.25 4.25 -4.3 4.25 -4.35 4.2 Q-4.7 4.0 -5.45 3.75 -6.7 3.3 -7.45 3.3 L-7.6 3.3 -8.15 3.2 -9.0 3.0 -9.2 2.95 -9.75 2.9 -10.0 2.8 -9.9 2.7 Q-9.25 2.4 -9.15 2.25 -8.55 1.8 -7.75 1.15 -7.25 0.8 -6.8 0.35 -6.4 -0.1 -6.2 -0.45 L-5.85 -0.85 -5.75 -0.9 -4.95 -0.85 Q-4.8 -0.85 -4.5 -1.0 -4.3 -1.1 -4.2 -1.2 L-4.05 -1.2 -3.95 -1.25 -3.9 -1.35 -3.75 -1.4 -3.7 -1.4 -3.65 -1.35 -3.3 -1.15 -3.3 -1.1 -3.0 -1.1 Q-2.7 -1.1 -2.4 -1.2 -2.2 -1.25 -1.55 -1.6 -1.25 -1.8 -1.3 -2.25 L-1.15 -2.35 -0.55 -2.3 Q-0.1 -2.35 0.4 -2.5 L0.6 -2.55 1.45 -2.65 M1.9 -2.45 L1.35 -2.3 1.3 -2.3 1.3 -2.25 1.25 -2.25 1.15 -2.2 0.95 -2.2 Q0.95 -2.1 0.8 -1.95 L0.8 -1.8 0.9 -1.5 1.05 -1.4 Q1.2 -1.3 1.3 -1.3 2.25 -0.85 2.3 -0.85 L2.75 -0.85 2.95 -0.9 3.05 -0.9 3.25 -0.95 Q3.6 -1.05 3.7 -1.15 L4.0 -1.2 4.45 -1.35 4.7 -1.4 4.75 -1.4 Q4.85 -1.45 4.95 -1.5 L5.85 -1.65 6.05 -1.7 6.65 -1.95 7.2 -2.1 7.6 -2.3 8.8 -2.75 8.75 -2.85 8.7 -3.05 8.65 -3.15 8.4 -3.4 8.35 -3.4 8.35 -3.45 8.3 -3.5 8.15 -3.55 7.95 -3.6 7.75 -3.55 7.7 -3.55 7.5 -3.5 7.45 -3.45 Q6.8 -3.2 6.7 -3.15 L6.4 -3.05 6.3 -3.05 Q5.65 -2.85 5.3 -2.85 L4.45 -2.85 4.1 -2.8 3.8 -2.75 3.45 -2.7 2.9 -2.6 2.8 -2.6 1.9 -2.45 M2.7 -0.6 L2.65 -0.6 2.35 -0.45 1.85 -0.25 1.25 -0.05 0.25 0.35 -0.25 0.5 -0.75 0.75 -1.05 0.8 Q-1.35 0.95 -1.3 1.15 -1.25 1.3 -0.95 1.4 -0.8 1.6 -0.5 1.75 L-0.2 1.85 0.2 2.3 0.7 2.0 Q1.05 1.8 1.25 1.7 L1.4 1.65 2.3 1.3 Q2.55 1.2 2.85 1.05 L3.0 0.95 3.05 0.9 3.35 0.8 3.4 0.75 3.9 0.5 4.25 0.35 4.35 0.3 4.65 0.2 4.75 0.15 4.8 0.05 Q4.85 0.0 4.85 -0.05 4.85 -0.2 4.75 -0.4 L4.8 -0.3 5.0 -0.15 5.05 -0.05 5.1 -0.05 5.8 -0.5 5.85 -0.5 6.4 -0.75 6.45 -0.75 6.8 -0.9 6.9 -0.95 6.95 -0.95 7.3 -1.05 8.1 -1.25 8.35 -1.3 Q8.85 -1.45 9.5 -1.8 L9.95 -2.05 10.1 -2.15 10.85 -2.45 11.65 -2.85 11.9 -2.95 13.4 -3.85 13.5 -3.95 13.4 -3.9 13.3 -3.9 10.9 -3.2 10.75 -3.15 10.65 -3.1 9.75 -2.85 9.15 -2.7 7.75 -2.25 7.5 -2.15 7.4 -2.1 7.0 -1.95 6.95 -1.95 5.95 -1.55 5.6 -1.5 4.4 -1.2 4.3 -1.15 4.25 -1.1 4.35 -0.95 4.5 -0.7 Q4.15 -1.05 3.9 -1.0 L3.9 -0.95 3.85 -1.0 3.6 -0.9 3.0 -0.75 2.95 -0.7 2.9 -0.7 2.7 -0.6 M1.85 -0.35 Q1.85 -0.4 1.95 -0.45 1.35 -0.5 0.1 -0.05 L-0.5 0.1 -0.75 0.15 -1.6 0.15 -1.7 0.2 -1.9 0.2 -2.1 0.25 -2.2 0.25 -2.4 0.35 -2.45 0.35 -2.55 0.4 -2.55 0.35 -2.6 0.4 -2.85 0.45 -2.95 0.45 -3.3 0.5 -3.45 0.45 Q-3.55 0.25 -3.75 0.25 L-3.8 0.2 -3.85 0.2 -3.95 0.25 -4.1 0.3 -4.45 0.45 -4.65 0.6 -4.8 0.7 -4.9 0.8 -5.55 1.3 -5.55 1.25 Q-5.85 1.5 -5.95 1.55 L-6.0 1.55 Q-6.15 1.7 -6.45 1.85 -7.2 2.2 -7.25 2.25 L-7.0 2.25 -5.95 2.0 -4.65 2.4 -4.6 2.4 -4.45 2.45 -4.4 2.45 -3.55 2.25 -3.2 1.95 -3.05 1.8 -3.05 1.7 -3.0 1.7 -3.0 1.65 -2.95 1.6 -2.55 1.35 -2.3 1.2 -2.0 1.15 Q-1.6 1.0 -1.35 0.9 L-1.15 0.7 -0.85 0.6 1.85 -0.35 M1.05 -1.3 L0.95 -1.3 Q0.85 -1.3 0.7 -1.15 0.55 -1.05 0.5 -0.9 L0.2 -0.7 -0.15 -0.15 -0.2 -0.1 -0.1 -0.1 0.05 -0.2 0.65 -0.35 1.15 -0.5 1.3 -0.5 1.65 -0.6 Q1.8 -0.6 2.25 -0.75 L2.05 -0.9 1.75 -1.05 Q1.7 -1.05 1.35 -1.2 L1.25 -1.2 Q1.15 -1.25 1.05 -1.3 M0.3 -2.1 L0.1 -2.05 0.0 -2.05 -0.2 -2.0 -0.8 -2.0 -0.9 -1.85 Q-0.85 -1.55 -0.95 -1.3 L-1.05 -1.15 -1.05 -1.1 -1.25 -0.75 -1.3 -0.6 -1.3 -0.65 -1.35 -0.6 -1.4 -0.4 Q-1.55 -0.25 -1.5 -0.15 L-1.5 -0.1 -1.45 -0.05 -1.45 0.0 -1.15 0.0 -1.1 -0.05 Q-1.1 0.0 -1.0 0.0 L-0.85 0.0 -0.75 -0.05 -0.6 -0.1 Q-0.35 -0.1 0.05 -0.6 L0.2 -0.75 0.45 -0.95 Q0.8 -1.2 0.8 -1.45 0.8 -1.6 0.75 -1.75 L0.65 -1.85 0.7 -1.95 0.55 -2.1 Q0.5 -2.1 0.45 -2.15 L0.4 -2.15 0.3 -2.1 M9.95 -3.9 L9.55 -3.9 9.45 -3.85 8.55 -3.7 8.45 -3.7 Q8.4 -3.7 8.4 -3.6 L8.4 -3.55 Q8.45 -3.4 8.7 -3.15 8.95 -2.85 9.15 -2.85 9.4 -2.85 9.5 -2.95 L9.65 -2.95 9.8 -3.0 10.2 -3.05 10.35 -3.1 10.9 -3.25 10.95 -3.25 Q11.25 -3.35 11.75 -3.55 L11.9 -3.65 12.15 -3.75 12.15 -3.8 12.2 -3.95 Q12.2 -4.05 12.1 -4.1 L12.05 -4.15 11.9 -4.1 11.3 -4.0 11.25 -4.0 10.1 -3.9 9.95 -3.9 M12.25 -4.0 L12.2 -3.75 12.6 -3.9 12.75 -3.95 13.95 -4.25 12.75 -4.25 12.55 -4.2 12.35 -4.2 Q12.3 -4.15 12.25 -4.05 L12.25 -4.0 M-5.5 -0.05 L-5.55 -0.05 -5.8 -0.25 Q-5.95 0.05 -6.35 0.4 -6.7 0.75 -7.25 1.2 -7.7 1.6 -8.2 1.9 L-8.95 2.45 -8.65 2.45 -7.75 2.3 Q-7.4 2.05 -6.85 1.8 L-5.7 1.25 -5.4 1.1 -5.0 0.55 -5.1 0.45 -5.3 0.2 -5.45 0.05 -5.5 0.05 -5.5 -0.05 M-5.5 -0.25 L-5.45 -0.15 -5.1 0.15 -4.7 0.35 -4.35 0.15 -4.0 0.1 -3.95 0.0 -3.95 -0.35 -4.05 -0.9 -4.2 -0.8 -4.25 -0.75 Q-4.6 -0.6 -4.9 -0.55 L-5.35 -0.45 -5.55 -0.45 Q-5.5 -0.4 -5.5 -0.25 M-3.75 -0.7 L-3.75 -0.65 -3.8 -0.45 -3.8 -0.25 -3.85 -0.15 -3.8 -0.15 -3.8 0.0 -3.7 0.0 -3.65 0.05 -3.4 0.15 -3.4 0.2 -3.35 0.35 -2.85 0.35 -2.7 0.3 -2.6 0.3 -2.2 0.2 -2.1 0.15 -2.0 0.05 -1.85 0.0 Q-1.75 -0.05 -1.65 -0.2 L-1.6 -0.35 Q-1.4 -0.5 -1.3 -0.7 L-1.25 -0.95 -1.1 -1.65 -1.35 -1.45 -1.45 -1.4 -1.55 -1.3 -1.8 -1.15 Q-2.1 -1.0 -2.4 -0.9 -2.7 -0.8 -2.8 -0.8 L-3.05 -0.85 -3.2 -0.85 -3.7 -0.9 -3.7 -0.8 -3.75 -0.7 M-0.75 1.7 Q-1.0 1.5 -1.35 1.3 -1.6 1.1 -1.95 1.2 -2.25 1.3 -2.5 1.45 -2.8 1.65 -2.85 1.85 L-2.9 1.9 -2.95 1.9 -3.05 2.05 -3.1 2.15 -3.1 2.2 -3.15 2.2 -3.05 2.3 -3.05 2.35 -2.9 2.55 -2.7 2.75 -2.65 2.75 -2.55 2.9 -2.2 2.55 -1.85 2.3 Q-1.3 2.15 -0.6 2.2 L-0.55 2.25 0.05 2.3 -0.75 1.7 M-2.85 2.85 L-2.95 2.75 -3.0 2.65 -3.15 2.5 -3.1 2.5 -3.3 2.3 -3.55 2.4 -3.7 2.4 -3.8 2.45 -4.15 2.5 -4.15 2.55 Q-4.25 2.55 -4.35 2.6 L-4.45 2.6 -4.45 2.65 -4.55 2.8 -4.55 2.85 -4.5 3.25 -4.3 3.55 -4.2 3.6 -4.2 3.55 -4.25 3.55 Q-3.85 3.35 -3.3 3.15 L-2.8 3.0 -2.85 2.85 M-4.6 0.45 L-4.65 0.45 -4.65 0.5 -4.6 0.45 M-5.0 2.45 L-5.45 2.3 Q-5.8 2.15 -5.95 2.15 L-6.85 2.3 -7.65 2.45 -7.75 2.4 -7.85 2.45 -8.05 2.5 -8.1 2.5 -8.55 2.65 -8.75 2.7 -8.3 2.85 -7.8 2.9 -7.7 2.85 -7.6 2.85 -7.15 2.9 -6.75 2.95 -4.7 3.55 -4.6 3.3 -4.7 2.85 -4.65 2.8 -4.75 2.65 -4.8 2.5 Q-4.9 2.45 -5.0 2.45 M-3.2 3.2 L-3.2 3.2" fill="#00a5d5" fill-opacity="0.19607843" fill-rule="evenodd" stroke="none"/>
    </g>
    <g id="shape1" transform="matrix(1.0, 0.0, 0.0, 1.0, 2.1, 13.55)">
      <path d="M7.5 -8.2 Q7.85 -7.85 7.85 -7.25 7.85 -6.8 7.65 -6.35 L7.55 -6.15 Q8.0 -6.1 8.5 -4.9 8.75 -4.3 8.95 -3.65 8.95 -3.2 8.75 -2.9 8.45 -2.5 7.65 -2.5 7.15 -2.5 6.9 -3.75 6.8 -4.4 6.75 -5.05 6.75 -5.5 6.85 -5.7 L6.8 -5.7 Q6.4 -5.7 6.15 -6.05 6.0 -5.85 5.75 -5.85 5.3 -5.85 5.2 -6.1 5.15 -6.25 5.2 -6.4 5.2 -7.0 5.7 -7.0 5.65 -7.3 5.6 -7.6 5.6 -8.1 5.95 -8.35 6.25 -8.6 6.7 -8.55 7.15 -8.55 7.5 -8.2 M6.75 -7.45 L6.7 -7.05 6.7 -6.75 Q6.75 -6.65 6.9 -6.4 7.0 -6.5 7.1 -6.8 7.25 -7.15 7.25 -7.25 7.25 -7.45 7.2 -7.6 7.05 -7.75 6.75 -7.9 L6.75 -7.45 M10.75 -7.35 Q10.75 -7.3 11.35 -6.75 12.1 -6.1 12.35 -5.7 12.45 -5.55 12.45 -5.3 L12.45 -4.85 Q12.45 -4.55 12.6 -4.4 12.8 -4.25 12.8 -4.05 12.8 -3.8 12.75 -3.6 L12.65 -3.35 Q12.85 -3.2 12.85 -2.8 12.85 -2.35 12.35 -1.85 L12.05 -1.45 Q12.3 -1.45 12.45 -1.25 12.65 -1.05 12.75 -1.05 12.9 -1.05 13.3 -1.35 13.75 -1.65 14.05 -1.65 L14.6 -2.6 14.7 -2.65 14.8 -2.8 Q14.95 -2.9 15.1 -2.9 15.75 -2.9 16.05 -2.05 16.2 -1.6 16.2 -1.15 16.2 -0.7 16.05 -0.25 15.9 0.1 15.6 0.65 L15.9 0.85 16.6 0.8 Q16.8 0.8 16.95 1.05 17.55 0.6 17.55 0.3 L17.35 -0.15 Q17.15 -0.6 17.15 -0.7 17.15 -0.9 17.25 -1.15 17.5 -1.55 17.85 -1.55 18.15 -1.55 18.25 -1.35 L18.35 -1.15 18.2 -0.95 18.1 -0.75 Q18.1 -0.3 18.5 -0.2 L19.25 -0.25 Q19.85 -0.3 20.05 -0.2 20.45 0.0 20.45 0.65 20.45 0.85 20.2 0.9 19.85 1.05 19.6 1.5 L19.8 1.85 Q20.0 2.15 20.2 2.15 22.0 2.15 22.75 1.4 23.15 1.0 23.25 0.5 23.65 -0.15 24.4 -0.5 24.7 -0.65 24.8 -0.75 24.95 -0.9 24.95 -1.2 24.95 -2.25 24.3 -2.75 23.95 -3.0 23.85 -3.1 23.65 -3.4 23.65 -3.8 23.65 -4.0 23.85 -4.3 24.05 -4.7 24.45 -4.7 24.65 -4.7 24.8 -4.65 L24.95 -4.5 25.05 -4.5 25.05 -4.65 25.0 -4.95 Q24.95 -5.2 24.95 -5.3 L24.95 -5.9 25.0 -6.7 Q25.45 -7.9 25.45 -8.05 25.45 -8.2 25.4 -8.4 L25.2 -8.75 Q25.2 -8.45 25.15 -8.3 25.05 -8.0 24.4 -8.0 23.65 -8.0 23.45 -8.5 23.35 -8.8 23.4 -9.05 23.4 -9.35 23.8 -10.15 L24.15 -10.95 Q24.15 -11.0 23.85 -11.35 23.6 -11.6 23.5 -11.75 23.4 -11.85 23.3 -12.15 23.1 -12.65 22.75 -12.65 22.6 -12.65 22.25 -12.3 22.0 -12.0 21.7 -11.95 21.85 -11.65 22.05 -11.65 22.1 -11.7 22.2 -11.85 22.3 -12.0 22.55 -12.0 22.95 -12.0 23.1 -11.6 L23.15 -11.2 Q23.15 -10.6 22.85 -10.0 22.55 -9.45 22.55 -9.2 22.55 -8.8 23.3 -7.85 24.1 -6.85 24.1 -6.6 24.1 -6.25 23.95 -6.15 23.8 -6.0 23.25 -6.0 23.1 -6.0 23.0 -5.7 L22.85 -5.05 22.8 -4.85 22.85 -4.45 Q22.85 -4.1 22.55 -3.8 22.25 -3.55 21.9 -3.55 21.75 -3.55 21.5 -3.65 L21.2 -3.8 Q20.95 -3.45 20.65 -3.1 20.1 -2.5 19.55 -2.45 L19.55 -2.4 Q19.55 -2.25 19.3 -2.05 19.0 -1.8 18.85 -1.8 18.2 -1.8 17.9 -2.25 L17.75 -2.7 18.6 -4.05 Q18.6 -4.25 18.35 -4.45 18.1 -4.75 17.75 -4.75 17.65 -4.75 17.3 -4.45 16.95 -4.15 16.5 -4.15 15.95 -4.15 15.35 -4.85 14.85 -5.5 14.85 -5.7 14.85 -6.0 15.1 -6.35 L15.3 -6.7 Q15.3 -6.9 15.05 -7.2 14.8 -7.55 14.8 -7.75 15.1 -7.8 15.35 -7.45 15.55 -7.1 15.55 -6.7 15.55 -6.55 15.4 -6.2 L15.2 -5.85 Q15.2 -5.75 15.8 -5.25 L16.4 -4.75 Q16.8 -4.75 17.0 -5.05 17.2 -5.35 17.6 -5.35 18.45 -5.35 18.9 -4.8 19.2 -4.45 19.2 -4.15 L19.05 -3.75 Q18.85 -3.45 18.85 -3.4 L18.85 -3.1 19.65 -3.2 19.75 -3.2 Q20.0 -3.4 20.25 -3.75 20.55 -4.2 20.8 -4.4 20.65 -4.5 20.55 -4.8 20.5 -5.0 20.55 -5.25 20.55 -5.8 20.8 -6.2 21.05 -6.55 21.45 -6.6 21.8 -6.7 22.05 -6.45 22.25 -6.25 22.3 -5.95 L22.4 -6.15 Q22.6 -6.6 23.15 -6.8 L22.25 -8.0 Q21.8 -8.65 21.8 -9.15 21.65 -8.85 21.35 -8.85 20.85 -8.85 20.5 -9.7 20.3 -10.1 20.2 -10.55 20.2 -10.95 20.5 -11.05 20.7 -11.15 21.05 -10.95 21.4 -10.75 21.65 -10.4 21.9 -10.1 21.9 -9.75 L22.05 -10.0 Q22.3 -10.55 22.4 -11.0 L22.45 -11.05 Q22.15 -10.9 21.95 -10.9 21.65 -10.9 21.4 -11.2 21.2 -11.35 21.1 -11.55 20.4 -11.2 20.2 -11.2 19.05 -11.2 18.7 -12.0 18.6 -12.25 18.6 -12.9 L18.55 -13.1 18.45 -13.25 18.5 -13.25 Q18.6 -13.15 18.8 -12.9 L19.2 -12.7 Q19.6 -12.45 19.75 -12.45 19.95 -12.45 20.15 -12.55 L20.4 -12.75 20.9 -12.75 21.15 -12.5 Q21.35 -12.25 21.55 -12.25 21.9 -12.25 22.0 -12.65 22.05 -12.85 22.05 -12.95 22.05 -13.35 22.35 -13.5 22.6 -13.65 23.0 -13.5 23.4 -13.4 23.65 -13.1 23.95 -12.75 23.95 -12.25 L24.0 -12.1 24.55 -11.6 Q24.9 -11.3 24.9 -10.9 24.9 -10.7 24.45 -10.15 24.0 -9.6 24.0 -9.3 24.0 -9.25 24.05 -9.05 L24.1 -8.75 24.2 -8.75 24.45 -8.7 24.45 -8.85 Q24.4 -8.9 24.4 -9.0 24.4 -9.2 24.5 -9.35 24.65 -9.55 24.95 -9.55 25.55 -9.55 25.8 -8.8 L25.95 -8.0 Q25.95 -7.7 25.75 -7.15 25.55 -6.65 25.55 -6.3 25.55 -5.7 25.65 -5.3 25.8 -4.85 25.8 -4.7 25.8 -4.35 25.65 -4.1 25.45 -3.65 24.95 -3.65 24.8 -3.65 24.65 -3.75 24.5 -3.8 24.45 -3.9 L24.4 -3.8 Q24.45 -3.7 24.95 -3.2 25.45 -2.75 25.45 -2.5 25.45 -1.95 25.55 -1.7 25.65 -1.45 25.65 -1.2 25.65 -0.4 24.9 0.1 L24.3 0.45 Q24.0 0.7 23.9 1.0 23.7 1.55 23.05 2.1 22.0 2.85 20.55 2.85 19.65 2.85 19.15 2.2 19.0 1.95 18.9 1.7 L18.85 1.5 Q18.85 1.25 18.85 1.2 18.95 1.0 19.25 0.8 L19.3 0.75 Q19.3 0.65 19.15 0.65 18.5 0.65 17.5 1.5 16.5 2.4 16.05 2.4 14.7 2.4 14.25 1.85 14.05 1.6 14.05 1.25 14.05 0.9 14.75 0.2 15.45 -0.55 15.45 -1.25 15.45 -1.7 15.05 -2.05 L14.85 -2.25 14.75 -2.0 14.5 -1.1 Q14.1 0.2 13.15 0.2 L13.0 0.15 Q12.85 0.25 12.7 0.25 11.65 0.25 11.3 -0.35 11.15 -0.65 11.15 -1.1 10.9 -0.75 10.4 -0.75 10.0 -0.75 9.7 -1.4 9.6 -1.25 9.35 -1.25 8.9 -1.25 8.8 -1.65 8.75 -1.85 8.75 -2.0 8.75 -2.65 9.3 -2.6 L9.35 -2.6 Q9.3 -3.0 9.25 -3.45 9.25 -4.1 9.6 -4.25 9.95 -4.4 10.4 -4.1 10.9 -3.85 11.2 -3.35 11.6 -2.8 11.6 -2.3 L11.65 -2.45 Q11.85 -2.9 11.95 -3.0 11.5 -3.15 11.4 -3.5 11.4 -3.65 11.4 -4.1 L11.4 -4.65 Q11.45 -4.95 11.6 -5.35 11.15 -6.0 10.45 -6.55 10.05 -6.9 10.05 -7.35 10.05 -7.95 10.4 -8.65 10.9 -9.65 11.9 -9.65 12.15 -9.65 12.45 -9.25 12.75 -8.9 12.75 -8.65 L12.8 -8.65 12.8 -8.6 13.05 -8.85 Q13.3 -9.05 13.55 -9.1 13.7 -9.25 13.95 -9.35 14.2 -9.45 14.5 -9.45 L14.8 -9.35 Q15.15 -9.2 15.25 -9.0 15.35 -9.05 15.4 -9.05 15.6 -9.05 15.7 -8.8 L15.7 -8.75 15.65 -8.6 Q15.6 -8.65 15.55 -8.7 15.55 -8.8 15.45 -8.8 L15.35 -8.8 15.35 -8.75 Q15.35 -8.45 15.0 -8.45 14.55 -8.45 14.35 -8.65 L14.35 -8.7 Q14.25 -8.55 14.0 -8.5 14.0 -8.45 13.9 -8.4 13.65 -8.25 13.4 -8.1 13.7 -8.15 13.8 -7.75 13.8 -7.55 13.5 -7.15 13.1 -6.65 12.8 -6.65 12.3 -6.65 12.1 -6.95 11.95 -7.15 11.95 -7.35 11.95 -7.4 12.1 -7.65 L12.3 -7.9 12.25 -8.55 Q12.15 -9.1 11.9 -9.1 11.4 -9.1 11.0 -8.25 L10.75 -7.35 M1.55 -7.9 Q1.9 -7.8 2.1 -7.45 2.35 -7.05 2.35 -6.5 2.35 -6.4 2.15 -6.2 1.95 -6.05 1.75 -6.05 1.2 -6.05 0.95 -6.55 0.75 -6.85 0.75 -7.1 0.75 -7.3 0.8 -7.45 L0.75 -7.45 Q0.5 -7.45 0.45 -7.65 0.4 -7.75 0.4 -7.8 0.4 -8.2 0.75 -8.1 1.05 -8.05 1.1 -7.85 1.3 -8.0 1.55 -7.9 M4.1 -6.15 Q4.4 -6.1 4.65 -5.85 4.9 -5.6 4.9 -5.2 4.9 -4.9 4.7 -4.7 4.45 -4.35 3.85 -4.35 3.65 -4.35 3.5 -4.8 L3.5 -4.6 Q3.5 -4.15 3.15 -4.15 2.9 -4.15 2.8 -4.35 2.8 -4.45 2.8 -4.6 2.8 -5.05 3.15 -5.05 3.35 -5.05 3.45 -4.9 L3.45 -4.95 Q3.35 -5.2 3.3 -5.5 3.3 -5.9 3.55 -6.05 3.75 -6.25 4.1 -6.15 M3.8 -3.9 Q4.05 -3.9 4.2 -3.8 4.25 -4.0 4.4 -4.15 4.6 -4.3 4.85 -4.35 5.55 -4.4 5.55 -3.55 L5.55 -3.1 Q5.45 -2.75 5.0 -2.75 L4.7 -2.8 Q4.9 -2.5 5.35 -2.4 L5.85 -2.3 Q6.05 -2.2 6.05 -1.9 6.05 -1.6 5.8 -1.5 L5.15 -1.4 Q4.15 -1.4 3.55 -2.35 3.1 -3.0 3.1 -3.4 3.1 -3.65 3.3 -3.75 3.5 -3.9 3.8 -3.9 M4.95 -3.95 L5.05 -3.85 5.1 -3.7 5.15 -3.7 5.1 -3.85 4.95 -3.95 M2.0 -5.45 L1.9 -5.15 1.75 -4.9 Q1.75 -4.7 2.05 -4.65 2.3 -4.6 2.3 -4.35 2.3 -4.15 2.2 -4.1 2.1 -4.0 2.0 -4.0 1.45 -4.0 1.2 -4.35 1.1 -4.5 1.1 -4.85 1.1 -5.35 1.55 -5.65 2.0 -5.9 2.0 -5.45 M0.55 -5.85 Q0.65 -5.8 0.65 -5.7 0.65 -5.15 0.25 -5.15 -0.05 -5.15 -0.1 -5.3 L-0.1 -5.75 Q0.0 -5.95 0.3 -5.95 0.5 -5.95 0.55 -5.85 M0.2 -3.95 Q0.0 -3.65 -0.35 -3.65 -0.95 -3.65 -1.1 -4.15 -1.2 -4.35 -1.15 -4.6 -1.15 -5.6 -0.4 -5.25 -0.1 -5.15 0.15 -4.85 0.4 -4.6 0.4 -4.4 0.4 -4.2 0.2 -3.95 M1.2 -2.45 L0.75 -2.05 0.1 -2.05 -0.4 -2.55 Q-0.5 -2.65 -0.5 -2.95 -0.5 -3.2 -0.2 -3.45 0.15 -3.7 0.55 -3.8 1.6 -4.05 1.6 -3.0 1.6 -2.85 1.2 -2.45 M0.3 -2.75 L0.3 -2.6 Q0.75 -2.7 0.95 -2.85 1.15 -3.05 1.05 -3.3 0.85 -3.4 0.7 -3.2 0.45 -2.85 0.3 -2.75 M10.8 -5.6 Q10.8 -5.35 10.7 -5.15 10.5 -4.8 10.1 -4.8 9.55 -4.8 9.15 -5.55 8.95 -5.9 8.9 -6.3 8.9 -6.65 9.2 -6.8 L9.85 -6.8 Q10.25 -6.7 10.5 -6.4 10.8 -6.05 10.8 -5.6 M9.8 -5.85 Q9.85 -5.7 9.95 -5.55 L10.05 -5.55 9.95 -5.7 9.8 -5.85 M8.05 -4.25 L7.5 -5.1 Q7.5 -4.55 7.55 -4.15 7.7 -3.65 8.05 -3.25 L8.2 -3.4 Q8.25 -3.55 8.25 -3.65 8.25 -3.85 8.05 -4.25 M6.85 -1.85 Q7.5 -1.7 7.5 -0.95 7.5 -0.8 7.4 -0.7 7.3 -0.65 7.15 -0.65 6.45 -0.65 6.25 -0.95 6.2 -1.0 6.2 -1.3 6.2 -1.6 6.4 -1.8 6.6 -1.9 6.85 -1.85 M10.55 -2.8 Q10.5 -3.15 10.15 -3.1 L10.2 -2.35 Q10.25 -1.85 10.35 -1.6 10.6 -1.75 10.6 -2.3 L10.55 -2.8 M20.2 -12.3 Q20.05 -12.2 19.8 -12.2 19.45 -12.2 19.2 -12.3 19.6 -11.9 20.2 -11.9 20.45 -11.9 20.75 -12.05 L21.05 -12.15 21.0 -12.2 20.8 -12.45 Q20.35 -12.45 20.2 -12.3 M19.85 -11.1 Q20.2 -11.05 20.2 -10.75 L20.15 -10.5 Q20.05 -10.3 19.9 -10.3 19.65 -10.3 19.55 -10.45 19.45 -10.6 19.45 -10.7 19.45 -11.1 19.85 -11.1 M20.9 -10.3 Q20.9 -9.95 21.3 -9.4 21.35 -9.45 21.35 -9.65 21.35 -9.85 21.25 -10.05 21.15 -10.3 20.9 -10.3 M21.1 -5.75 Q21.05 -5.7 21.05 -5.35 L21.1 -4.95 21.15 -4.85 21.45 -5.15 Q21.65 -5.35 21.65 -5.45 L21.55 -5.95 Q21.2 -5.9 21.1 -5.75 M-1.85 -6.45 L-1.4 -5.8 -1.65 -5.65 Q-1.75 -5.6 -1.8 -5.6 -2.0 -5.6 -2.1 -5.85 L-2.1 -6.05 Q-2.1 -6.7 -1.85 -6.45 M-0.45 -3.2 L-0.55 -3.1 -0.6 -3.15 Q-0.7 -3.15 -0.7 -3.2 L-0.65 -3.25 -0.5 -3.3 -0.45 -3.2" fill="#bbf3f4" fill-opacity="0.6" fill-rule="evenodd" stroke="none"/>
      <path d="M5.95 -7.5 Q5.9 -7.45 5.8 -7.45 5.5 -7.7 5.5 -7.75 5.5 -7.9 5.55 -7.9 L5.95 -7.85 6.0 -7.7 5.95 -7.5 M6.4 -8.1 Q6.95 -8.7 7.25 -8.3 7.5 -8.0 7.5 -7.4 L7.45 -6.85 Q7.35 -6.5 6.85 -6.25 6.5 -6.2 6.4 -6.45 6.35 -6.5 6.35 -6.7 L6.3 -7.15 Q6.25 -7.65 6.4 -8.1 M6.9 -7.85 L7.2 -7.6 7.25 -7.65 7.2 -7.7 6.9 -7.9 6.9 -7.85 M10.75 -8.4 Q11.1 -8.95 11.5 -9.15 11.95 -9.4 12.3 -9.0 12.65 -8.55 12.7 -7.2 L12.8 -7.15 12.85 -7.1 Q12.95 -7.35 13.05 -7.7 12.95 -7.85 12.95 -8.1 12.95 -8.6 13.2 -8.65 L14.2 -8.85 Q14.15 -9.0 14.15 -9.1 14.15 -9.4 14.55 -9.25 14.9 -9.1 14.9 -8.85 L14.75 -8.65 Q14.95 -8.65 15.05 -8.5 15.15 -8.4 15.15 -8.3 15.15 -8.05 14.95 -7.85 14.8 -7.7 14.55 -7.65 L14.95 -7.45 Q15.35 -7.25 15.35 -6.95 15.35 -6.4 15.1 -6.25 14.85 -6.05 14.85 -5.7 14.85 -5.5 15.7 -4.85 16.5 -4.25 16.55 -4.25 17.2 -4.25 17.4 -4.55 17.65 -4.85 18.0 -4.85 18.3 -4.85 18.5 -4.5 18.6 -4.25 18.6 -4.15 18.6 -4.0 18.35 -3.5 18.05 -2.95 18.05 -2.9 18.05 -2.7 18.25 -2.5 18.5 -2.25 18.75 -2.25 19.25 -2.25 20.2 -3.15 21.1 -4.05 21.35 -4.05 L21.8 -3.9 22.3 -3.8 Q22.35 -3.8 22.45 -4.2 L22.65 -5.15 Q23.0 -6.5 23.75 -6.5 L23.8 -6.55 23.8 -7.25 23.5 -7.25 22.85 -8.0 Q22.2 -8.75 22.2 -8.8 22.2 -9.25 22.55 -10.0 22.95 -10.75 22.95 -11.05 22.95 -11.35 22.75 -11.75 22.55 -11.7 22.4 -11.45 22.3 -11.25 21.85 -11.25 21.5 -11.25 21.4 -11.55 21.3 -11.85 20.85 -11.85 20.8 -11.85 20.6 -11.7 20.4 -11.55 20.25 -11.55 19.6 -11.55 19.4 -11.85 L19.35 -11.85 19.3 -11.9 19.3 -11.95 Q19.0 -12.0 18.85 -12.25 18.8 -12.35 18.8 -12.7 L18.75 -12.95 Q18.65 -13.15 18.15 -13.0 18.65 -13.25 18.8 -13.2 18.85 -13.15 18.9 -12.9 18.95 -12.25 19.9 -12.3 L19.9 -12.25 20.3 -12.35 20.45 -12.5 Q20.7 -12.5 20.95 -12.35 L21.15 -12.2 21.55 -12.2 Q22.15 -12.35 22.35 -12.75 22.4 -12.85 22.5 -12.9 L22.65 -12.95 23.25 -12.95 23.45 -12.6 Q23.7 -12.35 23.75 -11.7 23.85 -11.55 24.05 -11.4 24.4 -11.2 24.4 -11.05 24.4 -10.5 23.9 -9.75 23.35 -9.1 23.35 -9.05 23.35 -8.9 23.7 -8.65 24.05 -8.4 24.1 -8.4 24.45 -8.4 24.65 -8.6 L25.0 -8.95 25.45 -8.5 Q25.7 -8.15 25.7 -7.95 L25.3 -6.65 Q25.0 -5.35 25.2 -4.4 L25.15 -4.25 Q25.15 -4.2 25.0 -4.2 24.85 -4.2 24.6 -4.3 L24.2 -4.4 Q24.05 -4.4 23.9 -4.15 23.85 -4.0 23.85 -3.9 23.85 -3.5 24.05 -3.25 24.2 -3.1 24.55 -2.8 25.3 -2.25 25.3 -1.6 25.3 -1.05 24.7 -0.5 23.85 0.15 23.45 0.55 23.2 1.1 22.8 1.55 22.05 2.5 20.95 2.5 19.7 2.5 19.4 1.9 19.3 1.7 19.3 1.45 L19.35 1.25 Q19.35 0.9 19.85 0.65 L19.9 0.5 Q19.9 0.3 19.8 0.2 L19.5 0.2 Q18.95 0.2 18.35 -0.15 17.55 -0.55 17.55 -1.15 17.35 -1.0 17.35 -0.65 17.35 -0.4 17.55 -0.15 17.75 0.15 17.75 0.4 17.75 0.65 17.4 1.05 16.9 1.55 16.1 1.55 L15.25 1.5 Q15.15 1.4 15.1 1.3 15.0 1.15 15.0 1.0 15.0 0.9 15.4 0.25 15.8 -0.4 15.8 -0.9 L15.8 -0.95 Q15.8 -1.0 15.8 -1.15 L15.8 -1.2 15.75 -1.65 15.6 -2.6 15.45 -2.75 Q15.15 -2.6 15.05 -2.55 L14.9 -2.55 Q14.85 -2.55 14.85 -2.6 14.6 -2.35 14.25 -1.8 13.8 -1.0 13.15 -1.0 L12.15 -1.0 Q11.95 -1.1 11.85 -1.4 11.75 -1.6 11.75 -1.8 11.75 -2.15 12.15 -2.55 12.6 -3.0 12.6 -3.3 L12.4 -3.9 Q12.2 -4.5 12.2 -4.6 L12.2 -5.35 12.25 -5.5 Q12.2 -6.05 11.35 -6.55 10.85 -6.85 10.7 -6.95 10.4 -7.2 10.4 -7.45 10.4 -7.85 10.75 -8.4 M1.15 -8.2 L1.2 -8.05 Q1.2 -7.95 1.25 -7.9 1.2 -7.8 1.0 -7.7 L0.85 -7.8 Q0.75 -7.9 0.75 -8.05 0.75 -8.2 0.9 -8.2 L1.15 -8.2 M2.25 -7.05 Q2.25 -6.8 2.1 -6.6 1.95 -6.4 1.75 -6.4 1.45 -6.4 1.4 -6.8 1.35 -7.0 1.35 -7.15 1.35 -7.8 1.8 -7.8 2.25 -7.8 2.25 -7.05 M4.25 -6.05 Q4.7 -6.0 4.7 -5.35 L4.65 -5.05 4.65 -4.8 4.35 -4.75 Q3.9 -4.9 3.8 -5.1 3.8 -5.15 3.8 -5.4 3.8 -6.1 4.25 -6.05 M5.4 -3.9 L5.35 -3.55 5.3 -3.25 5.2 -3.15 Q4.8 -3.35 4.8 -3.55 4.8 -3.8 4.85 -3.9 4.95 -4.1 5.35 -4.1 L5.35 -4.05 5.4 -3.9 M2.25 -5.3 Q2.4 -5.15 2.4 -4.95 L2.35 -4.65 Q2.25 -4.4 2.1 -4.4 1.8 -4.4 1.65 -4.6 1.55 -4.7 1.55 -4.85 1.55 -5.6 1.95 -5.5 2.15 -5.45 2.25 -5.3 M0.75 -5.65 Q0.65 -5.5 0.5 -5.4 L0.25 -5.65 0.25 -5.8 Q0.3 -5.95 0.5 -5.95 L0.7 -5.75 0.75 -5.65 M0.5 -2.3 Q0.25 -2.3 0.2 -2.35 L0.2 -2.9 1.0 -3.65 Q1.55 -4.1 1.55 -3.2 1.55 -2.8 1.3 -2.55 1.0 -2.3 0.5 -2.3 M4.45 -2.8 L5.05 -2.55 Q5.65 -2.35 5.75 -2.1 L5.6 -1.9 Q5.45 -1.75 5.1 -1.75 4.75 -1.75 4.3 -2.1 3.95 -2.4 3.8 -2.6 L3.8 -3.3 Q4.0 -3.3 4.2 -3.1 L4.45 -2.8 M9.35 -6.0 Q9.35 -6.85 9.95 -6.5 10.55 -6.1 10.55 -5.55 L9.95 -5.15 Q9.7 -5.15 9.5 -5.6 9.4 -5.85 9.35 -6.0 M8.15 -5.3 Q8.05 -4.95 8.05 -4.7 8.05 -4.5 8.2 -4.3 8.35 -4.05 8.35 -3.8 L8.3 -3.35 Q8.2 -3.1 7.75 -2.95 7.55 -3.2 7.35 -3.8 7.1 -4.4 7.1 -4.7 L7.15 -5.25 Q7.25 -5.65 7.3 -5.85 8.1 -5.6 8.15 -5.3 M6.8 -1.65 Q7.25 -1.9 7.4 -1.7 7.45 -1.6 7.45 -1.4 L7.4 -0.85 7.25 -0.8 Q7.0 -0.85 6.9 -1.15 6.85 -1.3 6.8 -1.65 M11.0 -2.4 Q11.0 -2.05 10.9 -1.75 10.75 -1.25 10.4 -1.25 10.35 -1.25 9.95 -2.15 L9.55 -3.0 Q9.55 -3.4 9.6 -3.5 9.7 -3.75 10.05 -3.75 10.45 -3.75 10.75 -3.15 11.0 -2.65 11.0 -2.4 M9.2 -2.15 Q9.35 -2.2 9.35 -2.4 L9.55 -2.2 9.6 -2.05 9.6 -1.9 9.55 -1.8 9.5 -1.8 9.35 -1.7 Q9.15 -1.75 9.1 -1.9 9.05 -1.95 9.05 -2.1 L9.2 -2.15 M21.55 -11.95 L21.45 -12.0 21.55 -11.9 21.55 -11.95 M20.9 -12.15 L20.8 -12.15 20.75 -12.1 20.9 -12.15 M20.65 -9.9 Q20.5 -10.35 20.5 -10.9 21.1 -10.9 21.5 -10.4 21.8 -10.0 21.8 -9.7 L21.75 -9.4 Q21.7 -9.2 21.35 -9.1 20.85 -9.35 20.65 -9.9 M22.05 -5.75 Q22.05 -5.45 21.85 -5.1 21.65 -4.6 21.3 -4.6 21.0 -4.6 20.85 -4.8 20.75 -4.95 20.75 -5.1 20.75 -5.45 20.95 -5.8 21.15 -6.15 21.4 -6.35 21.65 -6.5 21.85 -6.4 22.05 -6.25 22.05 -5.75 M-1.65 -6.45 L-1.5 -6.2 -1.5 -5.95 -1.55 -5.9 -1.65 -5.85 -1.8 -5.9 Q-1.85 -5.95 -1.85 -6.15 -1.85 -6.4 -1.65 -6.45 M-0.2 -5.15 Q0.25 -4.85 0.25 -4.45 0.25 -4.15 -0.1 -4.15 -0.45 -4.15 -0.6 -4.5 -0.7 -4.7 -0.7 -4.85 -0.7 -5.45 -0.2 -5.15" fill="#cefefe" fill-opacity="0.7529412" fill-rule="evenodd" stroke="none"/>
    </g>
  </defs>
</svg>
