<?xml version="1.0" encoding="UTF-8" standalone="no"?>
<svg xmlns:ffdec="https://www.free-decompiler.com/flash" xmlns:xlink="http://www.w3.org/1999/xlink" ffdec:objectType="frame" height="111.3px" width="124.25px" xmlns="http://www.w3.org/2000/svg">
  <g transform="matrix(1.0, 0.0, 0.0, 1.0, 58.1, 54.95)">
    <use ffdec:characterId="3467" height="7.6" transform="matrix(7.0, 0.0, 0.0, 7.0, -25.55, -25.9)" width="7.35" xlink:href="#shape0"/>
  </g>
  <defs>
    <g id="shape0" transform="matrix(1.0, 0.0, 0.0, 1.0, 3.65, 3.7)">
      <path d="M2.45 -3.0 Q2.75 -2.85 2.9 -2.6 L3.1 -2.25 Q3.25 -1.85 3.3 -1.5 3.3 -1.3 3.5 -1.0 L3.7 -0.75 3.65 0.05 Q3.65 1.15 3.1 2.1 2.65 2.85 1.85 3.3 L1.8 3.35 Q1.2 3.9 0.6 3.9 L-0.2 3.8 -0.4 3.8 -1.05 3.75 Q-1.1 3.75 -1.15 3.55 L-1.1 3.55 Q-1.3 3.5 -1.4 3.4 L-2.0 3.0 Q-2.45 2.8 -2.55 2.65 -3.0 2.1 -3.35 1.8 L-3.4 1.6 Q-3.6 1.35 -3.6 0.9 L-3.6 0.45 -3.65 0.1 -3.6 -0.55 Q-3.6 -1.1 -3.5 -1.4 L-2.8 -2.5 Q-2.15 -3.55 -0.7 -3.7 0.05 -3.75 1.35 -3.65 L1.8 -3.35 2.45 -3.0 M1.85 -3.2 Q1.25 -3.5 0.5 -3.5 L-0.25 -3.5 -1.0 -3.35 -1.6 -3.1 Q-2.15 -2.85 -2.45 -2.55 -2.7 -2.35 -2.85 -1.85 -3.0 -1.45 -3.25 -1.25 L-3.25 -1.1 Q-3.45 -0.05 -3.45 0.1 L-3.4 0.5 Q-3.35 0.85 -3.35 1.1 -3.35 1.15 -3.2 1.5 -3.0 1.8 -2.95 1.85 -2.95 2.05 -2.8 2.25 L-2.5 2.6 Q-2.35 2.8 -2.0 2.95 -1.55 3.05 -1.3 3.15 -1.1 3.3 -0.8 3.4 L-0.3 3.5 Q1.75 3.3 2.65 2.25 3.15 1.75 3.2 1.4 3.25 1.3 3.4 0.95 L3.55 0.6 Q3.55 -0.15 3.5 -0.35 3.35 -0.75 3.1 -1.6 L2.95 -2.15 Q2.85 -2.5 2.5 -2.7 L1.85 -3.2" fill="#ffb74c" fill-rule="evenodd" stroke="none"/>
    </g>
  </defs>
</svg>
