<?xml version="1.0" encoding="UTF-8" standalone="no"?>
<svg xmlns:ffdec="https://www.free-decompiler.com/flash" xmlns:xlink="http://www.w3.org/1999/xlink" ffdec:objectType="frame" height="255.15px" width="145.6px" xmlns="http://www.w3.org/2000/svg">
  <g transform="matrix(1.0, 0.0, 0.0, 1.0, 105.0, 35.35)">
    <use ffdec:characterId="408" height="36.45" transform="matrix(7.0, 0.0, 0.0, 7.0, -105.0, -35.35)" width="20.8" xlink:href="#shape0"/>
  </g>
  <defs>
    <g id="shape0" transform="matrix(1.0, 0.0, 0.0, 1.0, 15.0, 5.05)">
      <path d="M-4.95 -5.05 Q-4.15 -5.1 -3.0 -3.4 L-2.0 -1.9 Q-1.35 -0.9 -0.95 -0.4 0.5 1.55 2.95 3.35 L4.5 4.4 Q5.1 4.8 5.1 4.9 5.1 5.1 4.95 5.2 5.0 5.5 5.0 5.8 5.05 6.6 4.85 7.5 L4.55 16.65 Q4.55 21.4 5.2 26.1 L5.6 29.0 Q5.8 30.25 5.8 30.55 5.8 31.0 5.7 31.15 5.55 31.4 4.95 31.4 4.65 31.4 1.4 30.75 L-1.0 30.2 Q-1.05 30.6 -1.1 30.75 -1.4 31.35 -2.45 31.35 -4.8 31.35 -5.85 27.95 L-6.2 26.75 -6.0 28.7 Q-6.0 29.8 -6.1 30.15 -6.4 31.1 -7.65 31.1 -9.1 31.1 -9.95 28.35 -10.25 27.5 -10.4 26.45 L-10.45 26.0 Q-11.3 27.8 -12.35 27.8 -14.2 27.8 -14.75 26.65 -15.0 26.2 -15.0 25.25 -15.0 23.4 -12.9 16.9 -11.8 13.6 -10.55 10.05 -9.7 7.6 -8.1 2.4 -6.65 -1.95 -5.05 -4.55 L-4.95 -5.05 M3.25 5.15 Q1.25 4.4 -1.25 1.3 -2.25 0.1 -3.5 -1.7 L-4.6 -3.35 Q-4.75 -2.65 -5.35 0.0 L-5.35 0.05 Q-5.6 2.1 -5.6 2.8 -5.6 4.95 -4.15 8.0 -3.15 10.1 -1.0 13.5 L-0.3 14.6 Q1.3 17.1 1.9 18.1 L2.15 18.5 Q3.55 21.05 3.55 22.4 L4.1 24.1 4.05 24.0 4.05 23.85 Q3.75 21.2 3.7 18.8 3.65 17.65 3.65 16.55 L3.85 5.35 Q3.55 5.25 3.25 5.15 M4.65 29.2 L4.55 28.4 4.55 28.1 Q3.95 24.4 2.6 21.05 2.05 19.7 1.25 18.2 0.25 16.3 -1.1 14.15 L-2.0 12.75 -2.1 12.6 -2.75 11.65 -2.85 11.5 -2.95 11.3 -3.4 10.6 Q-4.1 9.5 -4.55 8.6 -5.55 6.55 -5.9 4.6 L-5.95 5.3 -5.9 7.25 Q-5.75 10.2 -5.2 13.55 -4.75 16.45 -3.95 19.65 L-3.5 21.35 -3.45 21.55 -3.45 21.7 -3.1 22.9 -3.05 23.0 -2.05 26.3 -1.8 27.25 -1.7 27.4 -1.35 28.55 -1.2 29.1 -1.2 29.15 -0.85 29.3 -0.65 29.4 -0.15 29.6 1.0 29.8 1.35 29.85 1.75 29.9 4.7 29.9 4.65 29.2 M-8.2 8.3 Q-7.9 6.3 -7.65 5.15 L-7.7 5.15 -11.05 15.15 Q-14.0 23.85 -14.0 25.3 -14.0 25.9 -13.75 26.35 L-13.7 26.4 Q-13.4 26.85 -12.8 26.95 L-12.75 27.0 -12.4 27.0 Q-11.05 27.0 -9.75 19.05 L-9.35 16.1 -9.25 15.35 -8.8 12.3 -8.65 11.35 -8.55 10.55 -8.2 8.45 -8.2 8.3 M-7.55 17.95 L-7.5 15.25 -7.4 10.9 Q-7.4 9.9 -7.3 8.5 -7.8 10.85 -7.95 12.1 L-8.0 13.1 -8.55 17.15 -8.8 19.15 -8.9 19.75 Q-9.6 25.2 -9.6 25.5 -9.6 26.15 -9.1 27.9 -8.85 28.95 -8.55 29.5 -8.15 30.15 -7.8 30.15 -7.0 30.15 -6.85 29.45 -6.8 29.2 -6.8 28.9 L-6.85 28.65 -7.2 25.05 Q-7.6 21.4 -7.6 20.65 L-7.6 20.5 -7.55 17.95 M-1.95 29.7 L-1.85 29.55 Q-1.95 29.1 -2.3 28.25 L-3.4 25.1 Q-5.05 20.3 -5.05 17.8 -5.05 16.9 -5.3 15.55 L-5.85 12.85 Q-6.15 11.1 -6.35 9.45 L-6.7 15.95 -6.8 18.0 Q-6.5 20.4 -6.1 22.4 -4.6 30.5 -2.4 30.5 -1.85 30.5 -1.75 30.25 L-1.75 30.0 -1.95 29.9 -1.95 29.7" fill="#111111" fill-rule="evenodd" stroke="none"/>
      <path d="M-1.95 10.35 L-1.85 10.15 -1.9 10.4 -1.95 10.35" fill="#dffeff" fill-rule="evenodd" stroke="none"/>
      <path d="M-5.35 0.0 Q-4.75 -2.65 -4.6 -3.35 L-3.5 -1.7 Q-2.25 0.1 -1.25 1.3 1.25 4.4 3.25 5.15 L3.1 5.85 2.55 8.6 Q2.15 10.45 2.0 11.45 L1.5 15.3 0.2 13.45 -1.45 11.15 -1.05 9.7 Q-0.35 7.15 -0.05 6.1 L-0.15 6.25 0.5 4.7 0.35 4.35 0.05 4.8 0.05 4.7 -0.1 4.7 -0.3 5.35 -1.65 7.65 -2.6 9.3 Q-3.25 8.25 -3.6 7.45 -5.35 3.85 -5.35 0.0 M-13.7 26.4 L-13.75 26.35 Q-14.0 25.9 -14.0 25.3 -14.0 23.85 -11.05 15.15 L-7.7 5.15 -7.65 5.15 Q-7.9 6.3 -8.2 8.3 L-8.5 9.85 -8.95 12.85 Q-9.25 14.7 -9.45 15.8 -10.15 19.2 -10.95 21.6 -11.75 24.0 -13.35 25.95 L-13.7 26.4 M-8.55 29.5 Q-8.85 28.95 -9.1 27.9 -9.6 26.15 -9.6 25.5 -9.6 25.2 -8.9 19.75 L-8.8 19.15 -8.55 17.15 -8.0 13.1 -7.95 12.1 Q-7.8 10.85 -7.3 8.5 -7.4 9.9 -7.4 10.9 L-7.5 15.25 -7.55 17.95 -7.7 19.25 Q-7.9 21.05 -8.05 21.95 L-8.05 28.7 Q-8.15 29.1 -8.55 29.5 M-6.7 15.95 L-6.35 9.45 Q-6.15 11.1 -5.85 12.85 L-5.3 15.55 Q-5.05 16.9 -5.05 17.8 -5.05 20.3 -3.4 25.1 L-2.3 28.25 Q-1.95 29.1 -1.85 29.55 L-1.95 29.7 -2.55 29.0 Q-4.6 26.6 -5.1 23.7 -5.3 22.6 -5.9 20.0 -6.45 17.55 -6.65 16.4 L-6.7 15.95" fill="#80c0f0" fill-rule="evenodd" stroke="none"/>
      <path d="M-5.35 0.0 Q-5.35 3.85 -3.6 7.45 -3.25 8.25 -2.6 9.3 L-1.65 7.65 -0.3 5.35 -0.1 4.7 0.05 4.7 0.05 4.8 0.35 4.35 0.5 4.7 -0.15 6.25 -0.05 6.1 Q-0.35 7.15 -1.05 9.7 L-1.45 11.15 0.2 13.45 1.5 15.3 2.0 11.45 Q2.15 10.45 2.55 8.6 L3.1 5.85 3.25 5.15 Q3.55 5.25 3.85 5.35 L3.65 16.55 Q3.65 17.65 3.7 18.8 3.75 21.2 4.05 23.85 L4.05 24.0 4.1 24.1 3.55 22.4 Q3.55 21.05 2.15 18.5 L1.9 18.1 Q1.3 17.1 -0.3 14.6 L-1.0 13.5 Q-3.15 10.1 -4.15 8.0 -5.6 4.95 -5.6 2.8 -5.6 2.1 -5.35 0.05 L-5.35 0.0 M-13.7 26.4 L-13.35 25.95 Q-11.75 24.0 -10.95 21.6 -10.15 19.2 -9.45 15.8 -9.25 14.7 -8.95 12.85 L-8.5 9.85 -8.2 8.3 -8.2 8.45 -8.55 10.55 -8.65 11.35 -8.8 12.3 -9.25 15.35 -9.35 16.1 -9.75 19.05 Q-11.05 27.0 -12.4 27.0 L-12.75 27.0 -12.8 26.95 Q-13.4 26.85 -13.7 26.4 M-8.55 29.5 Q-8.15 29.1 -8.05 28.7 L-8.05 21.95 Q-7.9 21.05 -7.7 19.25 L-7.55 17.95 -7.6 20.5 -7.6 20.65 Q-7.6 21.4 -7.2 25.05 L-6.85 28.65 -6.8 28.9 Q-6.8 29.2 -6.85 29.45 -7.0 30.15 -7.8 30.15 -8.15 30.15 -8.55 29.5 M-6.7 15.95 L-6.65 16.4 Q-6.45 17.55 -5.9 20.0 -5.3 22.6 -5.1 23.7 -4.6 26.6 -2.55 29.0 L-1.95 29.7 -1.95 29.9 -1.75 30.0 -1.75 30.25 Q-1.85 30.5 -2.4 30.5 -4.6 30.5 -6.1 22.4 -6.5 20.4 -6.8 18.0 L-6.7 15.95 M-1.95 10.35 L-1.9 10.4 -1.85 10.15 -1.95 10.35" fill="#0070e0" fill-rule="evenodd" stroke="none"/>
      <path d="M1.25 18.2 Q2.05 19.7 2.6 21.05 3.95 24.4 4.55 28.1 L4.55 28.4 4.65 29.2 4.65 29.3 4.55 29.0 Q4.0 26.5 3.6 25.15 3.3 24.05 1.9 20.8 L1.2 19.05 1.1 20.45 1.4 25.65 Q1.4 27.05 1.1 29.25 L-0.1 28.9 -1.35 28.55 -1.7 27.4 -1.7 27.55 -1.55 27.05 Q-1.4 26.3 -1.4 26.25 -1.4 25.95 -1.45 25.75 -1.5 25.6 -1.6 25.4 -1.75 25.5 -1.95 26.0 L-2.05 26.3 -3.05 23.0 -2.95 21.15 Q-2.85 19.5 -2.7 18.3 -2.55 17.25 -2.1 15.35 L-1.9 14.5 -1.2 15.55 -1.45 16.45 Q-1.8 17.8 -1.8 18.35 -1.8 18.9 -1.55 19.55 -1.3 20.25 -1.3 20.65 L-1.55 22.25 Q-1.75 23.9 -1.75 24.6 L-1.6 24.55 -1.5 24.15 Q-1.45 23.9 -1.45 23.7 -1.45 23.45 -1.15 22.05 L-0.85 20.6 Q-0.85 19.1 -0.6 17.5 L-0.45 16.6 1.2 19.0 1.2 18.75 1.25 18.2 M-5.9 7.25 L-5.35 8.5 Q-4.85 9.6 -3.7 11.05 -4.15 11.8 -4.6 12.6 L-5.2 13.55 Q-5.75 10.2 -5.9 7.25 M-3.65 11.0 L-3.65 10.95 -3.4 10.6 -2.95 11.3 -2.85 11.5 -2.75 11.65 -2.1 12.6 -2.0 12.75 -2.2 13.35 -2.8 12.45 -3.65 11.0 M-2.35 13.85 L-2.2 14.05 Q-2.75 15.55 -3.1 17.75 -3.4 19.55 -3.5 21.35 L-3.95 19.65 -3.4 17.65 -2.35 13.85" fill="#b00000" fill-rule="evenodd" stroke="none"/>
      <path d="M-1.35 28.55 L-0.1 28.9 1.1 29.25 Q1.4 27.05 1.4 25.65 L1.1 20.45 1.2 19.05 1.9 20.8 Q3.3 24.05 3.6 25.15 4.0 26.5 4.55 29.0 L4.65 29.3 4.65 29.2 4.7 29.9 1.75 29.9 1.35 29.85 1.0 29.8 -0.15 29.6 -0.65 29.4 -0.85 29.3 -1.2 29.15 -1.2 29.1 -1.35 28.55 M-3.7 11.05 L-3.65 11.0 -2.8 12.45 -2.2 13.35 -2.3 13.8 -2.35 13.85 -3.4 17.65 -3.95 19.65 Q-4.75 16.45 -5.2 13.55 L-4.6 12.6 Q-4.15 11.8 -3.7 11.05" fill="#600000" fill-rule="evenodd" stroke="none"/>
      <path d="M1.25 18.2 L1.2 18.75 1.2 19.0 -0.45 16.6 -0.6 17.5 Q-0.85 19.1 -0.85 20.6 L-1.15 22.05 Q-1.45 23.45 -1.45 23.7 -1.45 23.9 -1.5 24.15 L-1.6 24.55 -1.75 24.6 Q-1.75 23.9 -1.55 22.25 L-1.3 20.65 Q-1.3 20.25 -1.55 19.55 -1.8 18.9 -1.8 18.35 -1.8 17.8 -1.45 16.45 L-1.2 15.55 -1.9 14.5 -2.1 15.35 Q-2.55 17.25 -2.7 18.3 -2.85 19.5 -2.95 21.15 L-3.05 23.0 -3.1 22.9 -3.45 21.7 -3.45 21.55 -3.5 21.35 Q-3.4 19.55 -3.1 17.75 -2.75 15.55 -2.2 14.05 L-2.35 13.85 -2.3 13.8 -2.2 13.35 -2.0 12.75 -1.1 14.15 Q0.25 16.3 1.25 18.2 M-2.05 26.3 L-1.95 26.0 Q-1.75 25.5 -1.6 25.4 -1.5 25.6 -1.45 25.75 -1.4 25.95 -1.4 26.25 -1.4 26.3 -1.55 27.05 L-1.7 27.55 -1.7 27.4 -1.8 27.25 -2.05 26.3 M-5.9 7.25 L-5.95 5.3 -5.9 4.6 Q-5.55 6.55 -4.55 8.6 -4.1 9.5 -3.4 10.6 L-3.65 10.95 -3.65 11.0 -3.7 11.05 Q-4.85 9.6 -5.35 8.5 L-5.9 7.25" fill="#ff9999" fill-rule="evenodd" stroke="none"/>
    </g>
  </defs>
</svg>
