<?xml version="1.0" encoding="UTF-8" standalone="no"?>
<svg xmlns:ffdec="https://www.free-decompiler.com/flash" xmlns:xlink="http://www.w3.org/1999/xlink" ffdec:objectType="frame" height="103.95px" width="104.65px" xmlns="http://www.w3.org/2000/svg">
  <g transform="matrix(1.0, 0.0, 0.0, 1.0, 98.7, 99.05)">
    <use ffdec:characterId="1260" height="14.85" transform="matrix(7.0, 0.0, 0.0, 7.0, -98.7, -99.05)" width="14.95" xlink:href="#shape0"/>
  </g>
  <defs>
    <g id="shape0" transform="matrix(1.0, 0.0, 0.0, 1.0, 14.1, 14.15)">
      <path d="M-11.85 -9.1 L-11.0 -9.0 -10.9 -9.15 -10.4 -9.6 Q-10.2 -9.8 -10.0 -9.95 L-9.35 -10.5 -8.85 -10.85 -9.6 -10.7 Q-10.35 -10.5 -10.8 -10.5 L-11.45 -10.35 Q-11.5 -10.35 -12.0 -10.15 L-12.5 -9.95 -12.6 -9.9 -12.75 -9.85 Q-12.8 -9.85 -13.2 -9.6 -13.45 -9.4 -13.6 -9.35 L-12.45 -9.15 -11.85 -9.1 M-9.3 -11.25 L-9.4 -11.2 -9.5 -11.25 -10.35 -11.2 -10.5 -11.25 -10.65 -11.15 -10.75 -11.15 Q-10.75 -11.1 -10.8 -11.1 L-10.9 -11.05 -11.05 -11.0 Q-11.2 -11.0 -12.05 -10.45 -12.4 -10.25 -12.6 -10.15 L-12.5 -10.15 -12.05 -10.25 -10.65 -10.6 -10.1 -10.7 -9.6 -10.8 -9.05 -10.9 -8.75 -10.95 -8.7 -10.95 -8.7 -11.0 -8.2 -11.05 -8.15 -11.05 -8.25 -11.1 -8.6 -11.2 -8.7 -11.2 -8.85 -11.25 -9.3 -11.25 M-14.0 -9.35 Q-13.75 -9.8 -12.85 -10.45 -11.9 -11.1 -10.8 -11.6 -10.2 -11.65 -9.75 -11.5 -9.8 -11.7 -10.25 -11.85 -9.4 -12.2 -8.7 -12.25 L-6.15 -12.15 Q-4.4 -11.95 -3.85 -11.15 L-2.1 -8.25 -2.25 -6.85 -2.3 -6.7 Q-2.3 -6.6 -2.3 -6.55 L-2.5 -6.0 -2.6 -5.6 -2.8 -5.6 Q-2.8 -5.45 -2.7 -5.25 L-2.95 -4.4 Q-3.35 -3.55 -4.15 -2.45 L-4.25 -2.6 Q-4.35 -2.6 -4.45 -2.6 -4.45 -2.3 -4.35 -2.05 -4.6 -1.6 -5.35 -0.8 L-6.25 0.25 Q-6.5 0.85 -6.8 0.6 L-6.9 0.45 Q-7.2 -0.05 -7.35 -1.4 -7.5 -2.75 -7.4 -4.15 L-7.4 -4.2 Q-7.25 -4.5 -7.05 -4.75 -7.8 -4.2 -9.05 -3.6 L-9.1 -3.8 Q-9.15 -3.85 -9.2 -3.85 -9.35 -3.65 -9.45 -3.35 -9.85 -3.1 -10.9 -2.75 L-12.15 -2.25 Q-12.85 -1.75 -12.85 -2.4 -12.9 -3.0 -12.35 -4.25 -11.85 -5.5 -11.05 -6.7 -10.5 -7.1 -9.95 -7.25 L-10.65 -7.25 Q-10.15 -8.0 -9.65 -8.4 L-10.75 -8.5 -10.7 -8.65 -10.75 -8.75 Q-10.95 -8.7 -11.15 -8.5 -11.55 -8.55 -12.45 -8.7 L-13.55 -8.95 Q-14.3 -8.9 -14.0 -9.35 M-9.05 -5.9 L-8.85 -6.45 -8.6 -7.15 -9.25 -6.55 Q-9.9 -5.9 -10.3 -5.55 L-10.9 -5.0 -11.3 -4.45 -11.7 -3.95 -11.8 -3.8 -11.9 -3.7 Q-11.95 -3.65 -12.15 -3.1 -12.3 -2.8 -12.4 -2.6 L-11.5 -3.0 Q-11.3 -3.1 -11.15 -3.15 L-10.5 -3.45 Q-9.95 -3.75 -9.65 -3.9 L-9.65 -3.95 -9.6 -3.95 -9.6 -4.15 -9.35 -4.9 Q-9.3 -5.2 -9.2 -5.5 L-9.05 -5.9 M-9.3 -7.25 Q-9.35 -7.2 -9.4 -7.2 L-9.45 -7.15 -10.35 -6.6 -10.5 -6.5 -10.6 -6.35 -10.7 -6.15 -10.95 -5.9 Q-11.05 -5.8 -11.6 -4.7 L-11.95 -4.05 -11.85 -4.15 -11.45 -4.5 -10.75 -5.25 -10.25 -5.75 -9.75 -6.2 -8.85 -7.1 -8.6 -7.3 -8.55 -7.35 -8.55 -7.4 -8.5 -7.4 -8.1 -7.75 -8.0 -7.8 -8.15 -7.8 -8.55 -7.65 -8.7 -7.6 Q-8.8 -7.6 -8.85 -7.55 L-9.3 -7.25 M-5.55 -11.3 L-5.75 -11.5 -6.3 -11.6 -8.6 -11.7 -8.65 -11.7 -8.8 -11.65 -9.1 -11.6 -9.05 -11.6 -8.5 -11.35 -7.9 -11.1 -7.45 -11.1 -6.55 -11.2 -5.55 -11.3 M-4.45 -10.85 L-5.15 -10.85 Q-6.8 -10.95 -7.25 -10.9 L-7.4 -10.9 Q-8.0 -10.2 -8.2 -9.9 -8.35 -9.6 -8.5 -9.25 L-8.55 -9.05 -8.35 -9.05 -8.15 -9.45 -7.1 -10.85 -7.05 -10.8 Q-7.5 -10.05 -7.6 -9.75 L-7.65 -9.7 -7.7 -9.2 -7.25 -9.35 -4.45 -10.85 M-2.9 -6.75 L-2.65 -7.8 -3.15 -10.0 -3.8 -8.9 -4.7 -7.25 Q-4.35 -6.2 -4.1 -5.85 -3.95 -5.65 -3.8 -5.45 L-3.65 -5.3 -3.4 -5.0 -3.35 -5.25 -3.65 -5.65 -3.65 -5.7 -3.75 -5.95 -3.8 -6.0 -3.85 -6.1 -4.45 -7.55 -4.4 -7.55 -3.85 -6.7 -3.85 -6.65 -3.7 -6.5 -3.6 -6.35 -3.15 -6.0 -3.0 -6.55 -2.9 -6.75 M-4.1 -5.1 L-4.25 -5.35 Q-4.7 -6.3 -4.55 -6.6 -4.55 -6.65 -4.6 -6.95 L-4.7 -7.25 -5.05 -6.6 -5.45 -5.85 -5.25 -4.95 -4.75 -3.8 -4.6 -3.5 -4.55 -3.5 -4.35 -3.2 -4.25 -3.3 -4.1 -3.6 -3.95 -3.8 -3.9 -3.95 -3.65 -4.35 -3.65 -4.45 -4.0 -4.9 -4.1 -5.15 -4.1 -5.1 M-4.95 -7.35 L-4.8 -8.8 Q-5.6 -7.8 -6.2 -6.45 L-6.3 -6.3 -6.4 -5.9 -6.35 -5.95 Q-5.65 -6.45 -5.15 -6.85 L-5.15 -6.9 -4.95 -7.35 M-9.65 -8.95 L-9.05 -8.95 Q-9.0 -9.25 -8.6 -9.75 -8.1 -10.5 -7.85 -10.5 -7.8 -10.5 -7.6 -10.7 L-7.4 -10.9 -8.0 -10.9 -8.75 -10.9 -9.35 -10.4 -10.0 -9.55 -10.15 -9.3 -10.25 -8.95 -9.65 -8.95 M-9.05 -8.0 L-9.35 -7.75 -9.3 -7.75 -7.8 -8.0 -7.75 -8.0 -7.35 -8.3 -6.3 -9.1 -6.85 -8.9 -6.95 -8.85 -7.45 -8.75 -7.8 -8.65 -7.8 -8.75 -7.85 -8.8 Q-8.0 -8.75 -8.1 -8.6 L-8.3 -8.55 -8.9 -8.1 -9.05 -8.0 M-7.7 -6.05 L-7.7 -6.2 Q-7.6 -7.25 -7.35 -7.45 -7.3 -7.5 -7.25 -7.8 L-7.2 -8.1 -7.8 -7.7 -8.55 -7.25 -8.8 -6.35 -8.95 -5.1 -8.9 -4.75 -8.85 -4.6 -8.8 -4.4 Q-8.75 -4.4 -8.7 -4.45 -8.45 -4.55 -8.2 -4.7 L-8.1 -4.8 -7.7 -5.05 -7.65 -5.1 Q-7.75 -5.4 -7.7 -6.05 M-6.95 -6.85 L-6.85 -8.25 Q-6.85 -8.3 -6.8 -8.25 L-6.75 -7.25 -6.75 -7.15 -6.7 -7.0 -6.4 -7.55 -6.35 -7.65 Q-5.9 -8.5 -5.35 -9.25 -6.65 -8.45 -7.05 -8.2 L-7.2 -8.1 Q-7.35 -7.0 -7.35 -6.6 L-7.3 -6.25 -7.25 -5.95 -7.25 -5.9 -7.2 -5.7 -7.2 -5.6 -7.0 -6.25 -6.95 -6.85 M-6.2 -5.4 L-6.25 -5.3 Q-6.25 -5.2 -6.7 -4.4 L-6.8 -4.25 -6.85 -4.05 -6.85 -3.95 Q-6.8 -3.9 -6.85 -3.85 L-6.9 -3.7 -6.9 -3.55 Q-7.0 -3.4 -6.9 -2.2 L-6.9 -1.45 -6.85 -1.55 -6.7 -2.05 Q-6.55 -2.8 -6.45 -3.05 L-6.05 -4.35 -5.85 -4.9 -5.65 -5.55 -5.55 -5.9 Q-5.8 -5.8 -6.15 -5.5 L-6.15 -5.45 -6.2 -5.4 M-5.0 -3.15 L-5.05 -3.4 Q-5.15 -3.7 -5.2 -4.0 L-5.4 -5.0 -5.5 -5.75 -5.75 -4.9 Q-6.0 -4.0 -6.2 -3.5 L-6.45 -2.75 Q-6.5 -2.7 -6.55 -2.1 L-6.65 -1.45 -6.65 -1.3 Q-6.65 -1.15 -6.7 -1.1 L-6.65 -0.5 -6.6 -0.2 -6.6 0.05 -5.8 -1.0 -5.35 -1.6 Q-5.0 -2.1 -4.8 -2.45 L-4.9 -2.65 -5.0 -3.15" fill="#111111" fill-rule="evenodd" stroke="none"/>
      <path d="M-8.75 -10.95 L-9.05 -10.9 -9.6 -10.8 -10.1 -10.7 -10.65 -10.6 -12.05 -10.25 -12.5 -10.15 -12.6 -10.15 Q-12.4 -10.25 -12.05 -10.45 -11.2 -11.0 -11.05 -11.0 L-10.9 -11.05 -10.8 -11.1 Q-10.75 -11.1 -10.75 -11.15 L-10.65 -11.15 -10.5 -11.25 -10.35 -11.2 -9.5 -11.25 -9.4 -11.2 -9.3 -11.25 Q-8.95 -11.1 -8.75 -10.95 M-11.85 -9.1 L-12.45 -9.15 -13.6 -9.35 Q-13.45 -9.4 -13.2 -9.6 -12.8 -9.85 -12.75 -9.85 L-12.6 -9.9 -12.5 -9.95 -12.0 -10.15 Q-11.5 -10.35 -11.45 -10.35 L-10.8 -10.5 Q-10.35 -10.5 -9.6 -10.7 L-8.85 -10.85 -9.35 -10.5 -10.0 -9.95 Q-10.2 -9.8 -10.4 -9.6 L-10.9 -9.15 -11.0 -9.0 -11.85 -9.1 M-11.5 -3.0 L-12.4 -2.6 Q-12.3 -2.8 -12.15 -3.1 -11.95 -3.65 -11.9 -3.7 L-11.8 -3.8 -11.7 -3.95 -11.3 -4.45 -10.9 -5.0 -10.3 -5.55 Q-9.9 -5.9 -9.25 -6.55 L-8.6 -7.15 -8.85 -6.45 -9.05 -5.9 Q-9.85 -4.7 -10.05 -4.55 L-10.7 -3.75 -11.1 -3.35 -11.5 -3.0 M-9.65 -3.95 L-9.65 -3.9 -9.65 -3.95 M-8.6 -7.3 L-8.85 -7.1 -9.75 -6.2 -10.25 -5.75 -10.75 -5.25 -11.45 -4.5 -11.85 -4.15 -11.95 -4.05 -11.6 -4.7 Q-11.05 -5.8 -10.95 -5.9 L-10.7 -6.15 -10.6 -6.35 -10.5 -6.5 -10.35 -6.6 -9.45 -7.15 -9.4 -7.2 Q-9.35 -7.2 -9.3 -7.25 -8.85 -7.35 -8.6 -7.3 M-7.45 -11.1 L-7.9 -11.1 -8.5 -11.35 -7.75 -11.3 -7.45 -11.1 M-4.7 -7.25 L-4.6 -6.95 Q-4.55 -6.65 -4.55 -6.6 -4.7 -6.3 -4.25 -5.35 L-4.1 -5.1 -4.35 -4.45 -4.45 -4.65 Q-4.65 -5.05 -4.85 -6.0 L-5.05 -6.6 -4.7 -7.25 M-3.65 -4.45 L-3.65 -4.35 -3.65 -4.45 M-6.3 -6.3 L-5.7 -6.85 Q-5.3 -7.2 -4.95 -7.35 L-5.15 -6.9 -5.15 -6.85 Q-5.65 -6.45 -6.35 -5.95 L-6.4 -5.9 -6.3 -6.3 M-8.0 -10.9 L-7.4 -10.9 -7.6 -10.7 Q-7.8 -10.5 -7.85 -10.5 -8.1 -10.5 -8.6 -9.75 -9.0 -9.25 -9.05 -8.95 L-9.65 -8.95 -9.2 -9.65 Q-9.0 -9.95 -8.45 -10.5 L-8.0 -10.9 M-7.35 -8.3 L-7.75 -8.0 -7.8 -8.0 -9.3 -7.75 -9.35 -7.75 -9.05 -8.0 Q-8.3 -8.2 -8.3 -8.25 L-7.35 -8.3 M-7.8 -7.7 L-7.2 -8.1 -7.25 -7.8 Q-7.3 -7.5 -7.35 -7.45 -7.6 -7.25 -7.7 -6.2 L-7.7 -6.05 -8.25 -5.0 -8.25 -5.7 Q-8.2 -6.05 -8.05 -6.8 L-7.95 -7.05 -7.8 -7.7 M-6.2 -5.4 L-6.15 -5.45 -6.15 -5.5 Q-5.8 -5.8 -5.55 -5.9 L-5.65 -5.55 -5.85 -4.9 -6.05 -4.35 -6.45 -3.05 Q-6.55 -2.8 -6.7 -2.05 L-6.85 -1.55 -6.9 -1.45 -6.9 -2.2 Q-7.0 -3.4 -6.9 -3.55 L-6.9 -3.7 -6.85 -3.85 Q-6.8 -3.9 -6.85 -3.95 L-6.85 -4.05 -6.8 -4.25 -6.7 -4.4 Q-6.25 -5.2 -6.25 -5.3 L-6.2 -5.4 M-6.6 -0.2 L-6.65 -0.5 -6.7 -1.1 Q-6.65 -1.15 -6.65 -1.3 L-6.65 -1.45 -6.55 -2.1 Q-6.5 -2.7 -6.45 -2.75 L-6.2 -3.5 Q-6.0 -4.0 -5.75 -4.9 L-5.5 -5.75 -5.4 -5.0 -5.2 -4.0 Q-5.15 -3.7 -5.05 -3.4 L-5.0 -3.15 -5.45 -2.25 Q-6.1 -0.9 -6.5 -0.35 L-6.6 -0.2" fill="#d0ccc0" fill-rule="evenodd" stroke="none"/>
      <path d="M-11.5 -3.0 L-11.1 -3.35 -10.7 -3.75 -10.05 -4.55 Q-9.85 -4.7 -9.05 -5.9 L-9.2 -5.5 Q-9.3 -5.2 -9.35 -4.9 L-9.6 -4.15 -9.6 -3.95 -9.65 -3.95 -9.65 -3.9 Q-9.95 -3.75 -10.5 -3.45 L-11.15 -3.15 Q-11.3 -3.1 -11.5 -3.0 M-8.5 -11.35 L-9.05 -11.6 -9.1 -11.6 -8.8 -11.65 -8.15 -11.5 -7.75 -11.3 -8.5 -11.35 M-4.1 -5.1 L-4.1 -5.15 -4.0 -4.9 -3.65 -4.45 -3.65 -4.35 -3.9 -3.95 -3.95 -3.8 -4.0 -3.85 -4.0 -3.9 -4.15 -4.1 -4.15 -4.15 -4.3 -4.4 -4.35 -4.45 -4.1 -5.1 M-8.25 -5.0 L-7.7 -6.05 Q-7.75 -5.4 -7.65 -5.1 L-7.7 -5.05 -8.1 -4.8 -8.2 -4.7 -8.25 -4.85 -8.25 -5.0 M-6.6 -0.2 L-6.5 -0.35 Q-6.1 -0.9 -5.45 -2.25 L-5.0 -3.15 -4.9 -2.65 -4.8 -2.45 Q-5.0 -2.1 -5.35 -1.6 L-5.8 -1.0 -6.6 0.05 -6.6 -0.2" fill="#b3b0a6" fill-rule="evenodd" stroke="none"/>
      <path d="M-5.75 -11.5 L-5.55 -11.3 -6.55 -11.2 -7.0 -11.3 -8.6 -11.7 -6.3 -11.6 -5.75 -11.5 M-3.15 -10.0 L-2.95 -7.6 Q-2.85 -7.5 -2.9 -6.75 L-3.0 -6.55 -3.15 -6.0 -3.6 -6.35 -3.7 -6.5 -3.85 -6.65 -3.85 -6.7 Q-3.85 -7.2 -3.8 -7.85 L-3.8 -8.9 -3.15 -10.0 M-3.85 -6.1 L-3.8 -6.0 -3.75 -5.95 -3.65 -5.7 -3.65 -5.65 -3.35 -5.25 -3.4 -5.0 -3.65 -5.3 -3.8 -5.45 -3.8 -5.75 -3.85 -6.1 M-4.1 -3.6 L-4.25 -3.3 -4.35 -3.2 -4.55 -3.5 -4.4 -4.1 -4.3 -4.4 -4.15 -4.15 -4.15 -4.1 -4.0 -3.9 -4.0 -3.85 -4.1 -3.6 M-8.05 -6.8 Q-8.2 -6.05 -8.25 -5.7 L-8.25 -5.0 -8.25 -4.85 -8.2 -4.7 Q-8.45 -4.55 -8.7 -4.45 -8.75 -4.4 -8.8 -4.4 L-8.85 -4.6 Q-8.6 -5.2 -8.5 -5.5 L-8.1 -6.7 -8.05 -6.8 M-6.75 -7.25 Q-6.55 -7.55 -6.4 -7.65 L-6.35 -7.65 -6.4 -7.55 -6.7 -7.0 -6.75 -7.15 -6.75 -7.25 M-7.3 -6.25 L-6.95 -6.85 -7.0 -6.25 -7.2 -5.6 -7.2 -5.7 -7.25 -5.9 -7.25 -5.95 -7.3 -6.25" fill="#600000" fill-rule="evenodd" stroke="none"/>
      <path d="M-8.75 -10.95 Q-8.95 -11.1 -9.3 -11.25 L-8.85 -11.25 -8.7 -11.2 -8.6 -11.2 -8.25 -11.1 -8.15 -11.05 -8.2 -11.05 -8.7 -11.0 -8.7 -10.95 -8.75 -10.95 M-8.6 -7.3 Q-8.85 -7.35 -9.3 -7.25 L-8.85 -7.55 Q-8.8 -7.6 -8.7 -7.6 L-8.55 -7.65 -8.15 -7.8 -8.0 -7.8 -8.1 -7.75 -8.5 -7.4 -8.55 -7.4 -8.55 -7.35 -8.6 -7.3 M-5.75 -11.5 L-5.55 -11.3 -5.75 -11.5 M-6.55 -11.2 L-7.45 -11.1 -7.75 -11.3 -8.15 -11.5 -8.8 -11.65 -8.65 -11.7 -8.6 -11.7 -7.0 -11.3 -6.55 -11.2 M-3.15 -10.0 L-2.65 -7.8 -2.9 -6.75 Q-2.85 -7.5 -2.95 -7.6 L-3.15 -10.0 M-4.45 -10.85 L-7.25 -9.35 -7.7 -9.2 -7.65 -9.7 -7.6 -9.75 Q-7.5 -10.05 -7.05 -10.8 L-7.1 -10.85 -8.15 -9.45 -8.35 -9.05 -8.55 -9.05 -8.5 -9.25 Q-8.35 -9.6 -8.2 -9.9 -8.0 -10.2 -7.4 -10.9 L-7.25 -10.9 Q-6.8 -10.95 -5.15 -10.85 L-4.45 -10.85 M-3.85 -6.7 L-4.4 -7.55 -4.45 -7.55 -3.85 -6.1 -3.8 -5.75 -3.8 -5.45 Q-3.95 -5.65 -4.1 -5.85 -4.35 -6.2 -4.7 -7.25 L-3.8 -8.9 -3.8 -7.85 Q-3.85 -7.2 -3.85 -6.7 M-3.95 -3.8 L-4.1 -3.6 -4.0 -3.85 -3.95 -3.8 M-4.55 -3.5 L-4.6 -3.5 -4.75 -3.8 -5.25 -4.95 -5.45 -5.85 -5.05 -6.6 -4.85 -6.0 Q-4.65 -5.05 -4.45 -4.65 L-4.35 -4.45 -4.3 -4.4 -4.4 -4.1 -4.55 -3.5 M-6.3 -6.3 L-6.2 -6.45 Q-5.6 -7.8 -4.8 -8.8 L-4.95 -7.35 Q-5.3 -7.2 -5.7 -6.85 L-6.3 -6.3 M-8.0 -10.9 L-8.45 -10.5 Q-9.0 -9.95 -9.2 -9.65 L-9.65 -8.95 -10.25 -8.95 -10.15 -9.3 -10.0 -9.55 -9.35 -10.4 -8.75 -10.9 -8.0 -10.9 M-7.35 -8.3 L-8.3 -8.25 Q-8.3 -8.2 -9.05 -8.0 L-8.9 -8.1 -8.3 -8.55 -8.1 -8.6 Q-8.0 -8.75 -7.85 -8.8 L-7.8 -8.75 -7.8 -8.65 -7.45 -8.75 -6.95 -8.85 -6.85 -8.9 -6.3 -9.1 -7.35 -8.3 M-7.8 -7.7 L-7.95 -7.05 -8.05 -6.8 -8.1 -6.7 -8.5 -5.5 Q-8.6 -5.2 -8.85 -4.6 L-8.9 -4.75 -8.95 -5.1 -8.8 -6.35 -8.55 -7.25 -7.8 -7.7 M-6.75 -7.25 L-6.8 -8.25 Q-6.85 -8.3 -6.85 -8.25 L-6.95 -6.85 -7.3 -6.25 -7.35 -6.6 Q-7.35 -7.0 -7.2 -8.1 L-7.05 -8.2 Q-6.65 -8.45 -5.35 -9.25 -5.9 -8.5 -6.35 -7.65 L-6.4 -7.65 Q-6.55 -7.55 -6.75 -7.25" fill="#b00000" fill-rule="evenodd" stroke="none"/>
      <path d="M0.1 -9.15 Q-0.2 -9.15 -0.45 -9.25 L-0.45 -9.15 Q-0.4 -8.65 -0.6 -8.15 -0.85 -7.55 -1.4 -7.25 L-1.5 -7.3 -1.55 -7.35 -1.5 -7.6 -1.5 -7.85 -1.55 -8.1 -1.6 -8.3 Q-1.75 -7.3 -2.9 -7.25 L-3.25 -7.3 -3.6 -7.25 -3.8 -7.3 Q-4.15 -7.15 -4.55 -7.15 -5.2 -7.1 -5.8 -7.4 -6.3 -7.6 -6.3 -7.8 L-5.9 -8.0 Q-6.45 -8.2 -6.85 -8.75 -7.4 -9.4 -7.4 -9.8 -7.45 -10.1 -7.35 -10.5 L-7.15 -11.1 Q-7.05 -11.05 -7.05 -10.95 L-7.05 -10.8 -6.9 -10.7 Q-6.95 -11.2 -6.75 -11.75 -6.5 -12.5 -6.05 -12.7 L-6.0 -12.65 -6.0 -12.55 Q-6.0 -12.5 -6.05 -12.45 L-6.05 -12.4 -5.95 -12.0 -5.85 -12.2 Q-5.5 -12.65 -4.75 -12.95 L-4.0 -13.25 -3.95 -13.3 Q-3.7 -13.45 -3.55 -13.6 L-3.0 -14.15 Q-2.85 -13.9 -2.8 -13.6 -2.8 -13.3 -2.85 -13.05 -1.95 -13.35 -1.35 -12.8 L-1.4 -12.9 -1.0 -12.6 Q-0.85 -12.5 -0.75 -12.3 L-0.65 -12.15 Q-0.5 -11.85 -0.5 -11.4 L-0.4 -11.1 -0.35 -10.75 -0.35 -10.65 0.25 -10.05 0.85 -9.5 Q0.9 -9.3 0.1 -9.15 M-1.8 -11.7 Q-2.0 -11.85 -2.25 -11.95 -1.7 -11.9 -1.4 -11.7 -1.05 -11.5 -1.0 -11.25 L-0.95 -11.25 -0.95 -11.35 Q-1.0 -11.6 -1.1 -11.75 -1.25 -12.1 -1.4 -12.3 -2.0 -12.95 -3.05 -12.5 L-3.15 -12.5 Q-3.3 -12.4 -3.45 -12.3 L-3.85 -12.2 -3.95 -12.15 Q-3.95 -12.35 -3.7 -12.55 L-3.4 -12.75 -3.4 -12.95 -3.35 -13.05 -3.4 -13.15 -3.4 -13.2 Q-4.65 -12.65 -5.2 -12.0 -5.4 -11.75 -5.5 -11.5 -5.6 -11.25 -5.6 -11.0 L-5.6 -10.55 -5.55 -10.4 -5.6 -10.4 -5.65 -10.45 -5.85 -10.65 -5.85 -10.75 -6.0 -10.9 -6.15 -11.1 -6.3 -11.7 Q-6.4 -11.65 -6.45 -11.5 L-6.5 -11.2 -6.5 -11.1 -6.5 -10.7 -6.4 -10.5 -6.4 -10.25 Q-6.35 -10.15 -6.15 -9.85 L-5.75 -9.45 Q-5.5 -9.25 -5.1 -9.0 L-5.15 -9.0 -6.0 -9.2 -6.1 -9.25 Q-6.35 -9.4 -6.55 -9.55 L-6.65 -9.65 Q-6.85 -9.85 -6.9 -10.15 L-6.9 -9.9 Q-6.85 -9.6 -6.7 -9.35 L-6.55 -9.15 Q-6.05 -8.55 -4.9 -8.6 L-4.8 -8.5 -4.8 -8.45 -4.95 -8.15 Q-5.05 -8.0 -5.15 -8.0 L-5.2 -8.0 -5.4 -7.8 -5.05 -7.7 Q-4.8 -7.65 -4.6 -7.65 -3.7 -7.7 -3.25 -8.35 -3.0 -8.65 -2.9 -9.1 -2.85 -9.0 -2.85 -8.9 L-2.85 -8.7 Q-2.85 -8.35 -3.05 -7.95 L-3.25 -7.7 Q-2.5 -7.95 -2.2 -8.15 L-2.05 -8.3 Q-2.0 -8.5 -2.0 -8.7 -2.0 -8.9 -2.1 -9.1 L-2.1 -9.15 -2.2 -9.6 Q-2.05 -9.55 -1.9 -9.35 L-1.75 -9.2 Q-1.65 -9.1 -1.5 -8.85 L-1.3 -8.55 -1.25 -8.4 Q-1.25 -8.3 -1.2 -8.25 L-1.1 -8.5 -1.0 -8.6 Q-0.9 -8.85 -0.9 -9.3 -0.95 -9.65 -1.0 -9.8 L-1.05 -10.0 -1.1 -10.05 -1.3 -10.3 -1.35 -10.35 -1.3 -10.45 -1.15 -10.3 -0.9 -10.1 -0.65 -9.75 -0.5 -9.7 -0.15 -9.65 -0.05 -9.7 -0.15 -9.8 Q-0.4 -9.95 -0.6 -10.1 L-0.8 -10.3 -0.8 -10.35 -1.0 -10.7 Q-1.25 -11.15 -1.4 -11.35 -1.55 -11.55 -1.8 -11.7" fill="#111111" fill-rule="evenodd" stroke="none"/>
      <path d="M-1.8 -11.7 Q-1.55 -11.55 -1.4 -11.35 -1.25 -11.15 -1.0 -10.7 L-0.8 -10.35 -1.3 -10.65 Q-1.65 -10.85 -1.95 -10.9 L-1.05 -10.0 -1.0 -9.8 Q-0.95 -9.65 -0.9 -9.3 -0.9 -8.85 -1.0 -8.6 L-1.1 -8.5 -1.1 -8.75 Q-1.15 -9.2 -1.7 -9.8 -2.3 -10.4 -2.25 -10.0 L-2.2 -9.9 -2.2 -9.6 -2.25 -9.3 Q-2.3 -9.1 -2.5 -8.7 L-2.5 -9.05 Q-2.55 -9.15 -2.6 -9.2 L-2.6 -9.3 Q-2.6 -9.4 -2.75 -9.8 L-2.8 -9.8 Q-2.8 -9.2 -4.15 -8.5 L-4.6 -8.5 Q-4.05 -8.7 -3.75 -9.2 -3.75 -9.25 -3.85 -9.25 L-4.4 -9.1 -4.35 -9.1 Q-5.3 -9.4 -5.95 -10.15 -6.35 -10.6 -6.5 -11.1 L-6.5 -11.2 -6.45 -11.5 Q-6.4 -11.65 -6.3 -11.7 L-6.15 -11.1 -6.0 -10.9 -5.85 -10.65 -5.65 -10.45 -5.6 -10.35 Q-5.35 -10.1 -5.1 -9.95 -4.75 -9.6 -4.2 -9.65 L-4.15 -9.65 -4.05 -9.7 -3.7 -9.8 Q-3.35 -9.95 -3.3 -10.0 -4.4 -10.15 -4.85 -10.65 -5.15 -11.0 -5.2 -11.65 L-5.2 -12.0 Q-4.65 -12.65 -3.4 -13.2 L-3.4 -13.15 -3.35 -13.05 -3.4 -12.95 -4.05 -12.4 Q-4.4 -12.05 -4.4 -11.7 L-4.35 -11.65 Q-4.3 -11.8 -3.85 -12.05 L-3.15 -12.5 -3.05 -12.5 Q-2.0 -12.95 -1.4 -12.3 -2.3 -12.6 -3.0 -11.8 -2.6 -11.9 -1.95 -11.75 L-1.8 -11.7 M-6.7 -9.35 Q-6.85 -9.6 -6.9 -9.9 L-6.65 -9.65 -6.55 -9.55 Q-6.35 -9.4 -6.1 -9.25 L-5.85 -9.15 -5.7 -9.05 -5.75 -9.05 -6.6 -9.3 -6.7 -9.35 M-4.1 -11.0 Q-4.1 -10.9 -3.95 -10.8 L-3.55 -10.75 Q-3.5 -10.8 -3.45 -10.8 L-3.45 -10.9 -3.9 -11.2 Q-4.15 -11.3 -4.1 -11.0 M-2.4 -11.0 Q-2.4 -11.1 -2.6 -11.2 -2.8 -11.35 -3.0 -11.25 L-2.8 -11.0 Q-2.65 -10.8 -2.55 -10.8 L-2.45 -10.85 Q-2.4 -10.95 -2.4 -11.0" fill="#d0f0f0" fill-rule="evenodd" stroke="none"/>
      <path d="M-1.4 -12.3 Q-1.25 -12.1 -1.1 -11.75 -1.0 -11.6 -0.95 -11.35 L-0.95 -11.25 -1.0 -11.25 Q-1.05 -11.5 -1.4 -11.7 -1.7 -11.9 -2.25 -11.95 -2.0 -11.85 -1.8 -11.7 L-1.95 -11.75 Q-2.6 -11.9 -3.0 -11.8 -2.3 -12.6 -1.4 -12.3 M-0.8 -10.35 L-0.8 -10.3 -0.6 -10.1 Q-0.4 -9.95 -0.15 -9.8 L-0.05 -9.7 -0.15 -9.65 -0.5 -9.7 -0.65 -9.75 -0.9 -10.1 -1.15 -10.3 -1.3 -10.45 -1.35 -10.35 -1.3 -10.3 -1.1 -10.05 -1.05 -10.0 -1.95 -10.9 Q-1.65 -10.85 -1.3 -10.65 L-0.8 -10.35 M-1.1 -8.5 L-1.2 -8.25 Q-1.25 -8.3 -1.25 -8.4 L-1.3 -8.55 -1.5 -8.85 Q-1.65 -9.1 -1.75 -9.2 L-1.9 -9.35 Q-2.05 -9.55 -2.2 -9.6 L-2.1 -9.15 -2.1 -9.1 Q-2.0 -8.9 -2.0 -8.7 -2.0 -8.5 -2.05 -8.3 L-2.2 -8.15 Q-2.5 -7.95 -3.25 -7.7 L-3.05 -7.95 Q-2.85 -8.35 -2.85 -8.7 L-2.85 -8.9 Q-2.85 -9.0 -2.9 -9.1 -3.0 -8.65 -3.25 -8.35 -3.7 -7.7 -4.6 -7.65 -4.8 -7.65 -5.05 -7.7 L-5.4 -7.8 -5.2 -8.0 -5.15 -8.0 Q-5.05 -8.0 -4.95 -8.15 L-4.8 -8.45 -4.8 -8.5 -4.9 -8.6 Q-6.05 -8.55 -6.55 -9.15 L-6.7 -9.35 -6.6 -9.3 -5.75 -9.05 -5.7 -9.05 -5.85 -9.15 -6.1 -9.25 -6.0 -9.2 -5.15 -9.0 -5.1 -9.0 Q-5.5 -9.25 -5.75 -9.45 L-6.15 -9.85 Q-6.35 -10.15 -6.4 -10.25 L-6.4 -10.5 -6.5 -10.7 -6.5 -11.1 Q-6.35 -10.6 -5.95 -10.15 -5.3 -9.4 -4.35 -9.1 L-4.4 -9.1 -3.85 -9.25 Q-3.75 -9.25 -3.75 -9.2 -4.05 -8.7 -4.6 -8.5 L-4.15 -8.5 Q-2.8 -9.2 -2.8 -9.8 L-2.75 -9.8 Q-2.6 -9.4 -2.6 -9.3 L-2.6 -9.2 Q-2.55 -9.15 -2.5 -9.05 L-2.5 -8.7 Q-2.3 -9.1 -2.25 -9.3 L-2.2 -9.6 -2.2 -9.9 -2.25 -10.0 Q-2.3 -10.4 -1.7 -9.8 -1.15 -9.2 -1.1 -8.75 L-1.1 -8.5 M-6.9 -9.9 L-6.9 -10.15 Q-6.85 -9.85 -6.65 -9.65 L-6.9 -9.9 M-6.0 -10.9 L-5.85 -10.75 -5.85 -10.65 -6.0 -10.9 M-5.65 -10.45 L-5.6 -10.4 -5.55 -10.4 -5.6 -10.55 -5.6 -11.0 Q-5.6 -11.25 -5.5 -11.5 -5.4 -11.75 -5.2 -12.0 L-5.2 -11.65 Q-5.15 -11.0 -4.85 -10.65 -4.4 -10.15 -3.3 -10.0 -3.35 -9.95 -3.7 -9.8 L-4.05 -9.7 -4.15 -9.65 -4.2 -9.65 Q-4.75 -9.6 -5.1 -9.95 -5.35 -10.1 -5.6 -10.35 L-5.65 -10.45 M-3.4 -12.95 L-3.4 -12.75 -3.7 -12.55 Q-3.95 -12.35 -3.95 -12.15 L-3.85 -12.2 -3.45 -12.3 Q-3.3 -12.4 -3.15 -12.5 L-3.85 -12.05 Q-4.3 -11.8 -4.35 -11.65 L-4.4 -11.7 Q-4.4 -12.05 -4.05 -12.4 L-3.4 -12.95 M-2.4 -11.0 Q-2.4 -10.95 -2.45 -10.85 L-2.55 -10.8 Q-2.65 -10.8 -2.8 -11.0 L-3.0 -11.25 Q-2.8 -11.35 -2.6 -11.2 -2.4 -11.1 -2.4 -11.0 M-4.1 -11.0 Q-4.15 -11.3 -3.9 -11.2 L-3.45 -10.9 -3.45 -10.8 Q-3.5 -10.8 -3.55 -10.75 L-3.95 -10.8 Q-4.1 -10.9 -4.1 -11.0" fill="#80c0f0" fill-rule="evenodd" stroke="none"/>
    </g>
  </defs>
</svg>
