<?xml version="1.0" encoding="UTF-8" standalone="no"?>
<svg xmlns:ffdec="https://www.free-decompiler.com/flash" xmlns:xlink="http://www.w3.org/1999/xlink" ffdec:objectType="frame" height="81.55px" width="93.45px" xmlns="http://www.w3.org/2000/svg">
  <g transform="matrix(1.0, 0.0, 0.0, 1.0, 7.35, 108.85)">
    <use ffdec:characterId="1254" height="11.65" transform="matrix(7.0, 0.0, 0.0, 7.0, -7.35, -108.85)" width="13.35" xlink:href="#shape0"/>
  </g>
  <defs>
    <g id="shape0" transform="matrix(1.0, 0.0, 0.0, 1.0, 1.05, 15.55)">
      <path d="M7.15 -7.9 L7.45 -8.2 7.85 -7.55 7.6 -7.2 7.15 -7.9 M7.7 -8.45 L7.75 -8.45 8.05 -8.05 7.7 -8.45 M6.65 -6.8 L6.75 -7.3 6.65 -6.8 M6.85 -7.3 L7.25 -6.85 6.85 -7.3 M8.9 -7.9 Q10.45 -7.7 11.4 -7.7 L11.6 -7.5 Q11.4 -7.6 10.9 -7.7 L9.25 -7.85 8.9 -7.9 M11.8 -7.1 L11.8 -6.9 Q11.8 -6.75 11.8 -6.55 L11.75 -6.45 11.45 -6.1 11.45 -6.05 11.1 -6.0 Q11.55 -6.05 11.6 -6.35 11.65 -6.55 11.2 -6.65 L10.1 -6.9 7.95 -7.1 7.8 -6.75 Q8.7 -6.4 9.5 -6.2 L10.4 -6.05 8.85 -6.25 8.4 -8.0 9.2 -7.2 11.0 -7.1 11.25 -7.0 Q11.45 -6.9 11.5 -6.9 11.55 -6.9 11.7 -7.0 L11.8 -7.1 M1.25 -6.95 L1.6 -7.0 3.3 -7.1 4.75 -7.0 4.5 -7.8 Q3.9 -7.75 2.4 -7.85 L1.4 -7.75 Q0.35 -7.7 0.1 -7.85 -0.05 -7.9 -0.05 -8.3 -0.1 -8.65 -0.2 -8.75 L-0.3 -8.75 -0.25 -8.9 -0.25 -9.0 Q0.25 -9.05 1.8 -8.8 3.2 -8.6 3.75 -8.7 L3.8 -8.65 Q4.1 -8.55 4.25 -8.4 L4.85 -6.9 2.3 -7.0 1.25 -6.95 M-0.5 -7.85 Q-0.45 -7.3 -0.15 -7.1 0.0 -7.0 0.45 -6.95 L-0.25 -7.0 Q-0.5 -7.15 -0.55 -7.75 L-0.5 -7.85 M0.2 -8.6 Q0.2 -8.55 0.2 -8.45 0.2 -8.3 0.35 -8.2 0.9 -7.85 2.55 -8.0 3.45 -8.1 4.05 -8.25 L4.0 -8.4 2.15 -8.65 Q0.4 -8.9 0.2 -8.6 M4.5 -9.45 L4.55 -9.45 4.65 -9.4 5.1 -8.6 4.8 -7.85 4.45 -8.35 4.4 -8.4 4.5 -9.45" fill="#80c0f0" fill-rule="evenodd" stroke="none"/>
      <path d="M6.9 -7.55 L7.15 -7.9 7.6 -7.2 7.25 -6.85 6.85 -7.3 6.9 -7.55 M8.4 -8.0 L8.9 -7.9 9.25 -7.85 10.9 -7.7 Q11.4 -7.6 11.6 -7.5 L11.8 -7.3 11.8 -7.1 11.7 -7.0 Q11.55 -6.9 11.5 -6.9 11.45 -6.9 11.25 -7.0 L11.0 -7.1 9.2 -7.2 8.4 -8.0 M0.2 -8.6 Q0.4 -8.9 2.15 -8.65 L4.0 -8.4 4.05 -8.25 Q3.45 -8.1 2.55 -8.0 0.9 -7.85 0.35 -8.2 0.2 -8.3 0.2 -8.45 0.2 -8.55 0.2 -8.6 M4.45 -8.35 L4.4 -8.4 4.45 -8.35" fill="#d0f0f0" fill-rule="evenodd" stroke="none"/>
      <path d="M7.75 -8.45 L9.2 -8.4 10.35 -8.1 11.3 -8.15 11.6 -8.2 11.85 -8.0 Q12.15 -7.7 12.3 -7.3 L12.3 -6.95 Q12.25 -6.4 12.15 -5.8 L12.1 -5.7 12.0 -5.55 Q11.75 -5.45 11.15 -5.45 L10.2 -5.5 Q9.85 -5.55 9.6 -5.65 L8.95 -5.8 6.65 -6.8 6.75 -7.3 6.9 -7.55 6.85 -7.3 7.25 -6.85 7.6 -7.2 7.85 -7.55 8.05 -8.05 7.75 -8.45 M8.9 -7.9 L8.4 -8.0 8.85 -6.25 10.4 -6.05 10.45 -6.05 11.05 -6.0 11.1 -6.0 11.45 -6.05 11.45 -6.1 11.75 -6.45 11.8 -6.55 Q11.8 -6.75 11.8 -6.9 L11.8 -7.1 11.8 -7.3 11.6 -7.5 11.4 -7.7 Q10.45 -7.7 8.9 -7.9 M-0.3 -8.75 L-0.35 -8.65 Q-0.4 -8.55 -0.45 -8.2 -0.45 -8.0 -0.5 -7.85 L-0.55 -7.75 Q-0.5 -7.15 -0.25 -7.0 L0.45 -6.95 1.25 -6.95 2.3 -7.0 4.85 -6.9 4.25 -8.4 Q4.1 -8.55 3.8 -8.65 L3.75 -8.7 Q3.2 -8.6 1.8 -8.8 0.25 -9.05 -0.25 -9.0 L-0.25 -8.9 -0.3 -8.75 M5.1 -8.45 L4.0 -6.3 3.1 -6.3 1.85 -6.45 0.5 -6.4 Q-0.55 -6.35 -0.65 -6.4 -1.05 -6.7 -1.05 -7.3 L-1.05 -8.05 Q-0.85 -9.1 -0.6 -9.6 L-0.6 -9.65 Q-0.5 -9.75 -0.35 -9.65 L-0.05 -9.65 Q0.35 -9.6 1.4 -9.4 2.4 -9.1 2.85 -9.1 3.55 -9.05 3.8 -9.45 L3.9 -9.65 4.5 -9.45 4.4 -8.4 4.45 -8.35 4.8 -7.85 5.1 -8.45" fill="#111111" fill-rule="evenodd" stroke="none"/>
      <path d="M7.45 -8.2 L7.7 -8.45 8.05 -8.05 7.85 -7.55 7.45 -8.2 M11.1 -6.0 L11.05 -6.0 10.45 -6.05 10.4 -6.05 9.5 -6.2 Q8.7 -6.4 7.8 -6.75 L7.95 -7.1 10.1 -6.9 11.2 -6.65 Q11.65 -6.55 11.6 -6.35 11.55 -6.05 11.1 -6.0 M-0.3 -8.75 L-0.2 -8.75 Q-0.1 -8.65 -0.05 -8.3 -0.05 -7.9 0.1 -7.85 0.35 -7.7 1.4 -7.75 L2.4 -7.85 Q3.9 -7.75 4.5 -7.8 L4.75 -7.0 3.3 -7.1 1.6 -7.0 1.25 -6.95 0.45 -6.95 Q0.0 -7.0 -0.15 -7.1 -0.45 -7.3 -0.5 -7.85 -0.45 -8.0 -0.45 -8.2 -0.4 -8.55 -0.35 -8.65 L-0.3 -8.75 M4.55 -9.45 L4.65 -9.4 4.55 -9.45 M5.1 -8.6 L5.1 -8.45 4.8 -7.85 5.1 -8.6" fill="#0070e0" fill-rule="evenodd" stroke="none"/>
      <path d="M3.9 -6.9 L3.55 -6.9 3.35 -6.95 3.3 -6.95 3.25 -7.0 3.7 -7.05 3.9 -7.1 Q4.1 -7.15 4.25 -7.0 4.15 -6.95 4.05 -6.9 L3.9 -6.9 M3.8 -7.75 L3.7 -7.8 Q3.45 -7.95 3.45 -8.0 3.45 -8.05 3.5 -8.1 L3.65 -8.15 3.9 -8.2 Q3.55 -8.4 3.3 -8.5 3.35 -8.75 3.75 -8.65 L3.9 -8.6 4.1 -8.5 Q4.3 -8.4 4.4 -8.25 L4.5 -8.05 4.5 -8.0 Q4.5 -7.85 4.4 -7.75 4.3 -7.7 4.15 -7.7 L3.8 -7.75 M4.45 -7.15 L4.45 -7.25 4.45 -7.15 M3.6 -13.8 Q3.45 -14.4 3.45 -14.45 3.55 -14.75 4.1 -14.95 L4.2 -14.95 Q3.65 -14.75 3.55 -14.4 3.5 -14.2 3.6 -13.8 M5.1 -15.0 L5.3 -15.0 5.4 -14.95 Q5.6 -14.5 5.75 -13.0 5.9 -11.55 6.1 -11.05 L6.1 -11.0 Q6.1 -10.65 6.0 -10.5 L5.95 -10.5 5.9 -10.4 Q5.7 -10.1 5.5 -9.9 5.2 -9.6 4.95 -9.55 L4.8 -9.5 4.65 -9.5 Q4.65 -10.2 4.1 -12.0 L3.8 -13.0 3.95 -12.65 4.45 -11.1 Q4.6 -10.15 4.75 -9.65 4.9 -9.7 5.1 -9.75 L5.45 -10.1 Q5.25 -10.65 4.95 -12.15 4.75 -12.6 4.6 -13.1 4.25 -14.05 4.35 -14.35 4.4 -14.5 4.75 -14.6 5.1 -14.75 5.15 -14.85 L5.1 -15.0 M4.95 -14.4 Q4.8 -14.35 4.75 -14.2 4.6 -13.55 5.15 -12.05 5.45 -11.15 5.75 -10.6 L5.9 -10.75 Q5.8 -11.35 5.65 -12.6 5.45 -14.35 5.1 -14.45 L4.95 -14.4 M8.05 -11.7 Q8.5 -13.35 8.6 -14.35 8.65 -14.55 8.85 -14.65 L9.3 -14.7 10.0 -14.55 Q10.25 -14.45 10.35 -14.25 10.4 -14.1 10.35 -13.8 10.35 -14.25 10.05 -14.35 9.85 -14.4 9.65 -13.95 9.55 -13.75 9.3 -12.8 9.05 -11.95 8.75 -10.55 L8.75 -10.5 8.85 -10.4 Q9.0 -10.3 9.1 -10.05 L9.15 -10.35 Q9.6 -11.3 9.9 -12.1 10.1 -12.6 10.2 -13.0 10.1 -12.35 9.8 -11.4 9.55 -10.6 9.2 -9.6 9.2 -9.7 9.15 -9.7 L9.05 -9.85 8.65 -10.3 7.95 -10.9 7.8 -11.0 7.85 -11.15 8.15 -11.05 8.45 -10.8 8.4 -10.7 Q8.65 -11.05 8.85 -11.9 9.15 -13.6 9.2 -13.8 L9.3 -14.05 9.45 -14.3 9.35 -14.5 9.2 -14.7 Q8.85 -14.8 8.55 -13.8 L8.15 -12.0 8.05 -11.7 M6.0 -10.3 Q6.15 -10.55 6.2 -10.75 L6.2 -10.9 Q6.25 -10.8 6.35 -10.8 L6.45 -10.75 Q6.55 -10.65 6.6 -10.65 L7.05 -10.5 7.3 -10.5 Q7.45 -10.55 7.55 -10.65 L7.7 -10.8 7.75 -10.8 7.75 -10.7 Q7.6 -10.6 7.4 -10.5 L7.35 -10.5 7.1 -10.45 7.05 -10.45 Q6.75 -10.45 6.5 -10.5 6.5 -10.45 6.5 -10.4 L7.05 -10.35 7.15 -10.3 7.25 -10.3 7.5 -10.2 7.5 -10.15 Q7.75 -10.05 7.9 -10.1 8.2 -10.1 8.3 -10.5 L8.6 -10.2 Q8.5 -9.95 8.45 -9.9 8.35 -9.85 8.15 -9.85 7.95 -9.85 7.85 -9.8 7.55 -9.65 7.25 -9.75 L6.8 -9.9 6.8 -9.85 7.25 -9.65 7.1 -9.7 6.55 -9.7 6.35 -9.75 6.05 -9.75 5.6 -9.8 5.55 -9.8 5.95 -10.3 6.05 -10.15 6.0 -10.3 M8.4 -9.4 L8.55 -9.45 Q8.8 -9.55 8.95 -9.75 9.1 -9.55 9.1 -9.35 L9.1 -9.2 9.0 -9.25 8.4 -9.4 M6.8 -9.5 L7.05 -9.5 7.7 -9.45 Q7.9 -9.5 8.4 -9.3 L8.55 -9.25 8.9 -9.1 9.1 -9.0 9.05 -8.95 8.95 -8.95 Q8.85 -8.9 8.8 -8.75 L8.85 -8.35 Q8.7 -8.65 8.45 -8.85 7.85 -9.35 6.9 -9.2 6.4 -9.15 6.0 -8.7 5.5 -8.2 5.45 -7.45 5.45 -7.1 5.5 -6.6 5.55 -6.35 5.65 -6.15 L5.9 -5.9 Q6.2 -5.55 6.8 -5.35 7.35 -5.2 7.9 -5.35 L8.05 -5.4 8.0 -5.35 7.25 -4.85 7.1 -4.85 7.15 -4.8 7.35 -4.7 7.6 -4.65 7.15 -4.45 Q6.4 -4.4 5.85 -4.65 4.8 -5.2 4.45 -7.1 L4.45 -7.05 Q4.55 -6.4 4.95 -5.8 5.45 -5.0 6.15 -4.8 L6.4 -4.8 6.7 -4.85 6.7 -4.9 6.65 -4.95 Q6.25 -5.05 5.75 -5.8 5.05 -6.9 5.4 -8.1 5.55 -8.55 6.15 -9.0 L6.8 -9.45 6.8 -9.5 M4.9 -9.05 Q4.7 -8.85 4.65 -8.6 L4.55 -8.65 4.6 -8.8 Q4.7 -8.95 4.9 -9.05" fill="#80c0f0" fill-rule="evenodd" stroke="none"/>
      <path d="M7.95 -7.45 L7.9 -7.6 Q7.75 -8.0 7.3 -8.1 7.05 -8.2 6.7 -7.95 6.35 -7.75 6.25 -7.35 6.1 -6.85 6.35 -6.5 6.4 -6.4 6.5 -6.35 6.5 -6.3 6.5 -6.25 6.55 -6.1 6.7 -6.05 7.0 -6.0 7.1 -6.2 7.3 -6.2 7.45 -6.35 L7.5 -6.4 Q7.65 -6.25 7.9 -6.15 8.3 -6.05 8.5 -6.7 8.7 -7.35 8.15 -7.5 L7.95 -7.45 M6.15 -8.25 Q6.5 -8.7 6.8 -8.75 7.45 -8.85 7.7 -8.65 7.95 -8.55 8.15 -8.35 8.45 -8.0 8.55 -7.4 L8.6 -7.2 Q8.7 -6.9 8.5 -6.55 8.35 -6.25 8.0 -5.95 L7.75 -5.8 Q7.65 -5.7 7.5 -5.7 L7.25 -5.65 7.0 -5.65 6.65 -5.7 Q6.05 -5.85 5.75 -6.65 5.7 -7.25 5.85 -7.65 5.95 -8.0 6.15 -8.25" fill="#b00000" fill-rule="evenodd" stroke="none"/>
      <path d="M3.7 -7.05 L3.65 -7.1 Q3.65 -7.2 3.75 -7.3 L3.7 -7.4 Q3.7 -7.55 3.8 -7.75 L4.15 -7.7 Q4.3 -7.7 4.4 -7.75 4.5 -7.85 4.5 -8.0 L4.5 -8.05 Q4.6 -7.85 4.6 -7.5 4.6 -7.35 4.55 -7.3 L4.45 -7.15 4.45 -7.25 Q4.35 -7.05 4.25 -7.0 4.1 -7.15 3.9 -7.1 L3.7 -7.05 M3.75 -8.65 L3.8 -8.6 4.05 -8.5 4.1 -8.5 3.9 -8.6 3.75 -8.65 M3.6 -13.8 Q3.5 -14.2 3.55 -14.4 3.65 -14.75 4.2 -14.95 L4.55 -15.0 5.1 -15.0 5.15 -14.85 Q5.1 -14.75 4.75 -14.6 4.4 -14.5 4.35 -14.35 4.25 -14.05 4.6 -13.1 4.75 -12.6 4.95 -12.15 5.25 -10.65 5.45 -10.1 L5.1 -9.75 Q4.9 -9.7 4.75 -9.65 4.6 -10.15 4.45 -11.1 L3.95 -12.65 3.8 -13.0 3.6 -13.8 M8.05 -11.7 L8.15 -12.0 8.55 -13.8 Q8.85 -14.8 9.2 -14.7 L9.35 -14.5 9.45 -14.3 9.3 -14.05 9.2 -13.8 Q9.15 -13.6 8.85 -11.9 8.65 -11.05 8.4 -10.7 L8.45 -10.8 8.15 -11.05 7.85 -11.15 7.9 -11.3 8.05 -11.7 M5.55 -9.8 L5.6 -9.8 6.05 -9.75 6.35 -9.75 6.55 -9.7 6.25 -9.7 5.85 -9.65 5.15 -9.5 Q5.4 -9.65 5.55 -9.8 M8.3 -10.5 Q8.2 -10.1 7.9 -10.1 7.75 -10.05 7.5 -10.15 L7.5 -10.2 7.25 -10.3 7.15 -10.3 7.05 -10.35 6.5 -10.4 Q6.5 -10.45 6.5 -10.5 6.75 -10.45 7.05 -10.45 L7.1 -10.45 7.35 -10.5 7.4 -10.5 Q7.6 -10.6 7.75 -10.7 L7.75 -10.8 8.05 -10.7 8.3 -10.5 M6.8 -9.5 L6.8 -9.45 6.15 -9.0 Q5.55 -8.55 5.4 -8.1 5.05 -6.9 5.75 -5.8 6.25 -5.05 6.65 -4.95 L6.7 -4.9 6.7 -4.85 6.4 -4.8 6.15 -4.8 Q5.45 -5.0 4.95 -5.8 4.55 -6.4 4.45 -7.05 L4.5 -7.05 Q4.6 -7.25 4.7 -7.65 4.75 -8.0 4.75 -8.25 4.75 -8.4 4.65 -8.55 L4.65 -8.6 Q4.7 -8.85 4.9 -9.05 5.25 -9.35 6.0 -9.45 L6.8 -9.5" fill="#0070e0" fill-rule="evenodd" stroke="none"/>
      <path d="M7.95 -7.45 L8.15 -7.5 Q8.7 -7.35 8.5 -6.7 8.3 -6.05 7.9 -6.15 7.65 -6.25 7.5 -6.4 7.35 -6.6 7.45 -7.0 7.55 -7.3 7.85 -7.45 L7.95 -7.45 M7.1 -6.2 Q7.0 -6.0 6.7 -6.05 6.55 -6.1 6.5 -6.25 6.5 -6.3 6.5 -6.35 L6.5 -6.4 Q6.55 -6.55 6.75 -6.6 L6.9 -6.6 Q7.2 -6.5 7.1 -6.25 L7.1 -6.2" fill="#ffffff" fill-rule="evenodd" stroke="none"/>
      <path d="M6.5 -6.35 Q6.4 -6.4 6.35 -6.5 6.1 -6.85 6.25 -7.35 6.35 -7.75 6.7 -7.95 7.05 -8.2 7.3 -8.1 7.75 -8.0 7.9 -7.6 L7.95 -7.45 7.85 -7.45 Q7.55 -7.3 7.45 -7.0 7.35 -6.6 7.5 -6.4 L7.45 -6.35 Q7.3 -6.2 7.1 -6.2 L7.1 -6.25 Q7.2 -6.5 6.9 -6.6 L6.75 -6.6 Q6.55 -6.55 6.5 -6.4 L6.5 -6.35" fill="#600000" fill-rule="evenodd" stroke="none"/>
      <path d="M3.5 -8.1 L3.35 -8.1 Q3.0 -8.1 2.85 -8.2 L2.65 -8.3 Q2.8 -8.65 3.3 -8.5 3.55 -8.4 3.9 -8.2 L3.65 -8.15 3.5 -8.1 M4.95 -14.4 L5.1 -14.45 Q5.45 -14.35 5.65 -12.6 5.8 -11.35 5.9 -10.75 L5.75 -10.6 Q5.45 -11.15 5.15 -12.05 4.6 -13.55 4.75 -14.2 4.8 -14.35 4.95 -14.4 M10.2 -13.0 Q10.1 -12.6 9.9 -12.1 9.6 -11.3 9.15 -10.35 L9.1 -10.05 Q9.0 -10.3 8.85 -10.4 L8.75 -10.5 8.75 -10.55 Q9.05 -11.95 9.3 -12.8 9.55 -13.75 9.65 -13.95 9.85 -14.4 10.05 -14.35 10.35 -14.25 10.35 -13.8 L10.35 -13.7 10.2 -13.05 10.2 -13.0 M6.0 -10.3 L6.05 -10.15 5.95 -10.3 6.0 -10.3 M7.25 -9.65 L6.8 -9.85 6.8 -9.9 7.25 -9.75 Q7.55 -9.65 7.85 -9.8 7.95 -9.85 8.15 -9.85 8.35 -9.85 8.45 -9.9 8.5 -9.95 8.6 -10.2 L8.8 -10.05 8.95 -9.75 Q8.8 -9.55 8.55 -9.45 L8.4 -9.4 8.35 -9.45 7.35 -9.65 7.25 -9.65 M7.6 -4.65 L7.35 -4.7 7.15 -4.8 7.1 -4.85 7.25 -4.85 8.0 -5.35 8.05 -5.4 8.2 -5.45 8.6 -5.8 8.6 -5.85 Q8.8 -6.0 8.95 -6.3 L9.0 -6.4 8.75 -5.7 Q8.6 -5.4 8.15 -5.0 L8.1 -4.95 Q8.0 -4.9 7.8 -4.8 L7.6 -4.65 M8.85 -8.35 L8.8 -8.75 Q8.85 -8.9 8.95 -8.95 L9.05 -8.95 9.1 -9.0 9.1 -8.95 Q9.2 -8.95 9.25 -8.8 9.4 -8.75 9.4 -8.6 L9.45 -8.45 9.45 -8.1 9.2 -7.15 9.15 -7.0 Q9.2 -7.3 9.15 -7.65 9.05 -8.05 8.85 -8.35" fill="#d0f0f0" fill-rule="evenodd" stroke="none"/>
      <path d="M3.8 -8.6 Q3.85 -8.85 3.9 -8.9 3.95 -9.0 4.1 -9.1 4.0 -9.2 3.9 -9.4 3.85 -9.7 3.85 -10.15 3.75 -10.45 3.65 -11.05 L3.5 -12.3 Q3.35 -12.65 3.05 -13.55 2.75 -14.6 2.8 -14.7 2.9 -15.15 3.5 -15.35 L3.95 -15.4 4.2 -15.5 4.25 -15.5 Q5.3 -15.55 5.9 -15.5 L5.9 -15.45 Q6.05 -15.4 6.0 -15.25 6.1 -15.15 6.05 -15.0 6.15 -14.6 6.15 -13.5 6.15 -12.45 6.25 -12.05 6.45 -11.3 6.9 -11.2 L6.95 -11.15 7.1 -11.15 Q7.15 -11.15 7.2 -11.2 7.4 -11.35 7.55 -12.05 L8.0 -13.25 Q8.15 -13.65 8.1 -14.25 8.05 -14.85 8.1 -15.0 8.2 -15.4 9.5 -15.15 10.15 -15.05 10.85 -14.8 11.05 -14.7 10.95 -13.7 L10.75 -12.7 10.8 -12.7 10.55 -12.1 Q10.4 -11.75 10.3 -11.45 10.0 -10.55 9.7 -9.55 L9.65 -9.35 Q9.6 -9.15 9.6 -9.05 L9.6 -9.0 Q9.65 -8.95 9.7 -8.9 10.4 -8.4 9.75 -7.35 9.7 -6.9 9.5 -6.25 8.8 -4.25 7.75 -4.05 L7.65 -4.0 7.35 -3.95 Q6.45 -3.8 5.7 -4.05 4.3 -4.55 4.0 -6.25 3.95 -6.55 3.9 -6.9 L4.05 -6.9 Q4.15 -6.95 4.25 -7.0 4.35 -7.05 4.45 -7.25 L4.45 -7.15 4.55 -7.3 Q4.6 -7.35 4.6 -7.5 4.6 -7.85 4.5 -8.05 L4.4 -8.25 Q4.3 -8.4 4.1 -8.5 L4.05 -8.5 3.8 -8.6 M4.2 -14.95 L4.1 -14.95 Q3.55 -14.75 3.45 -14.45 3.45 -14.4 3.6 -13.8 L3.8 -13.0 4.1 -12.0 Q4.65 -10.2 4.65 -9.5 L4.8 -9.5 4.95 -9.55 Q5.2 -9.6 5.5 -9.9 5.7 -10.1 5.9 -10.4 L5.95 -10.5 6.0 -10.5 Q6.1 -10.65 6.1 -11.0 L6.1 -11.05 Q5.9 -11.55 5.75 -13.0 5.6 -14.5 5.4 -14.95 L5.3 -15.0 5.1 -15.0 4.55 -15.0 4.2 -14.95 M10.35 -13.8 Q10.4 -14.1 10.35 -14.25 10.25 -14.45 10.0 -14.55 L9.3 -14.7 8.85 -14.65 Q8.65 -14.55 8.6 -14.35 8.5 -13.35 8.05 -11.7 L7.9 -11.3 7.85 -11.15 7.8 -11.0 7.95 -10.9 8.65 -10.3 9.05 -9.85 9.15 -9.7 Q9.2 -9.7 9.2 -9.6 9.55 -10.6 9.8 -11.4 10.1 -12.35 10.2 -13.0 L10.2 -13.05 10.35 -13.7 10.35 -13.8 M7.75 -10.8 L7.7 -10.8 7.55 -10.65 Q7.45 -10.55 7.3 -10.5 L7.05 -10.5 6.6 -10.65 Q6.55 -10.65 6.45 -10.75 L6.35 -10.8 Q6.25 -10.8 6.2 -10.9 L6.2 -10.75 Q6.15 -10.55 6.0 -10.3 L5.95 -10.3 5.55 -9.8 Q5.4 -9.65 5.15 -9.5 L5.85 -9.65 6.25 -9.7 6.55 -9.7 7.1 -9.7 7.25 -9.65 7.35 -9.65 8.35 -9.45 8.4 -9.4 9.0 -9.25 9.1 -9.2 9.1 -9.35 Q9.1 -9.55 8.95 -9.75 L8.8 -10.05 8.6 -10.2 8.3 -10.5 8.05 -10.7 7.75 -10.8 M9.1 -9.0 L8.9 -9.1 8.55 -9.25 8.4 -9.3 Q7.9 -9.5 7.7 -9.45 L7.05 -9.5 6.8 -9.5 6.0 -9.45 Q5.25 -9.35 4.9 -9.05 4.7 -8.95 4.6 -8.8 L4.55 -8.65 4.65 -8.6 4.65 -8.55 Q4.75 -8.4 4.75 -8.25 4.75 -8.0 4.7 -7.65 4.6 -7.25 4.5 -7.05 L4.45 -7.05 4.45 -7.1 Q4.8 -5.2 5.85 -4.65 6.4 -4.4 7.15 -4.45 L7.6 -4.65 7.8 -4.8 Q8.0 -4.9 8.1 -4.95 L8.15 -5.0 Q8.6 -5.4 8.75 -5.7 L9.0 -6.4 8.95 -6.3 Q8.8 -6.0 8.6 -5.85 L8.6 -5.8 8.2 -5.45 8.05 -5.4 7.9 -5.35 Q7.35 -5.2 6.8 -5.35 6.2 -5.55 5.9 -5.9 L5.65 -6.15 Q5.55 -6.35 5.5 -6.6 5.45 -7.1 5.45 -7.45 5.5 -8.2 6.0 -8.7 6.4 -9.15 6.9 -9.2 7.85 -9.35 8.45 -8.85 8.7 -8.65 8.85 -8.35 9.05 -8.05 9.15 -7.65 9.2 -7.3 9.15 -7.0 L9.2 -7.15 9.45 -8.1 9.45 -8.45 9.4 -8.6 Q9.4 -8.75 9.25 -8.8 9.2 -8.95 9.1 -8.95 L9.1 -9.0 M6.15 -8.25 Q5.95 -8.0 5.85 -7.65 5.7 -7.25 5.75 -6.65 6.05 -5.85 6.65 -5.7 L7.0 -5.65 7.25 -5.65 7.5 -5.7 Q7.65 -5.7 7.75 -5.8 L8.0 -5.95 Q8.35 -6.25 8.5 -6.55 8.7 -6.9 8.6 -7.2 L8.55 -7.4 Q8.45 -8.0 8.15 -8.35 7.95 -8.55 7.7 -8.65 7.45 -8.85 6.8 -8.75 6.5 -8.7 6.15 -8.25" fill="#111111" fill-rule="evenodd" stroke="none"/>
    </g>
  </defs>
</svg>
