<?xml version="1.0" encoding="UTF-8" standalone="no"?>
<svg xmlns:ffdec="https://www.free-decompiler.com/flash" xmlns:xlink="http://www.w3.org/1999/xlink" ffdec:objectType="frame" height="87.15px" width="128.8px" xmlns="http://www.w3.org/2000/svg">
  <g transform="matrix(1.0, 0.0, 0.0, 1.0, 42.0, 99.75)">
    <use ffdec:characterId="1200" height="12.45" transform="matrix(7.0, 0.0, 0.0, 7.0, -42.0, -99.75)" width="18.4" xlink:href="#shape0"/>
  </g>
  <defs>
    <g id="shape0" transform="matrix(1.0, 0.0, 0.0, 1.0, 6.0, 14.25)">
      <path d="M7.2 -14.2 L7.35 -14.05 7.3 -14.05 7.35 -13.95 Q8.05 -13.3 8.9 -12.05 9.65 -10.9 10.1 -9.9 L10.1 -10.4 Q10.15 -10.8 10.55 -10.65 10.9 -10.5 11.35 -10.0 12.5 -8.75 12.4 -7.7 12.35 -7.5 12.25 -7.2 L12.15 -6.9 11.45 -6.25 11.3 -6.25 Q11.0 -6.25 10.75 -6.6 L10.5 -6.25 10.4 -6.05 10.3 -5.8 9.45 -4.25 Q7.95 -1.7 7.2 -1.8 6.9 -1.85 6.9 -2.1 L7.1 -2.65 7.25 -3.2 7.25 -3.45 Q7.2 -3.65 6.95 -3.65 6.45 -3.7 6.3 -3.05 L6.2 -2.35 Q6.2 -1.95 5.85 -1.95 5.35 -2.0 4.3 -3.15 3.5 -4.0 2.95 -4.85 L2.1 -6.1 1.75 -6.75 Q1.45 -7.35 1.45 -7.6 1.6 -8.8 3.6 -11.05 4.85 -12.5 5.9 -13.3 L6.0 -13.45 7.1 -14.25 7.2 -14.2 M9.85 -9.0 L8.95 -10.8 8.7 -11.25 Q8.1 -12.25 7.6 -12.85 L7.5 -13.0 7.3 -13.15 Q7.65 -12.55 7.9 -11.55 8.25 -10.05 8.15 -9.05 L8.05 -8.95 7.95 -8.75 7.85 -8.7 Q7.6 -8.35 7.5 -7.85 8.0 -7.8 8.35 -7.4 L8.35 -7.35 8.55 -7.0 8.65 -6.6 8.65 -6.5 8.6 -6.05 8.6 -6.0 Q8.55 -5.5 8.45 -5.3 8.15 -4.7 7.35 -4.8 6.3 -4.9 5.95 -5.65 5.75 -5.95 5.8 -6.3 L5.8 -6.35 Q5.8 -6.55 5.85 -6.7 5.95 -7.0 6.1 -7.2 L6.1 -7.25 6.35 -7.5 Q6.8 -7.85 7.3 -7.85 7.3 -7.95 7.3 -8.1 7.35 -8.45 7.65 -8.8 L7.85 -9.05 7.9 -9.05 7.95 -9.1 Q8.0 -9.8 7.55 -11.5 L7.55 -11.65 7.0 -13.4 Q6.85 -13.45 6.8 -13.25 4.85 -11.3 4.15 -10.55 L4.05 -10.4 Q3.8 -9.95 3.75 -9.6 L3.75 -9.5 3.75 -9.35 Q3.8 -9.25 4.05 -9.0 L4.6 -8.9 Q4.8 -8.95 5.3 -9.25 5.7 -9.45 6.05 -9.4 6.85 -9.35 6.8 -9.0 L6.8 -8.9 6.6 -8.7 6.5 -8.65 5.9 -8.2 Q5.0 -7.55 4.9 -6.7 L4.9 -6.4 Q4.9 -6.05 5.05 -5.8 L5.2 -5.6 5.2 -5.55 5.25 -5.5 5.55 -5.25 5.6 -5.25 5.6 -5.2 5.8 -5.1 5.85 -5.05 6.7 -4.65 Q6.95 -4.5 7.05 -4.25 7.35 -4.2 7.55 -4.1 L7.6 -4.1 Q7.7 -4.35 7.85 -4.45 7.95 -4.55 8.35 -4.75 L8.4 -4.75 8.7 -4.95 Q8.9 -5.15 9.05 -5.45 L9.1 -5.55 9.25 -6.25 9.35 -6.75 Q9.4 -7.2 9.35 -7.45 9.3 -7.8 8.95 -8.25 L8.6 -8.6 8.65 -8.75 8.75 -8.85 Q8.85 -8.95 8.95 -8.95 9.4 -8.9 9.55 -8.7 9.65 -8.45 9.75 -8.4 9.9 -8.4 9.9 -8.5 L9.95 -8.65 9.95 -8.7 9.85 -9.0 M4.75 -6.05 L4.65 -6.45 4.65 -6.7 Q4.7 -7.25 5.2 -7.75 L6.45 -9.0 6.45 -9.05 6.35 -9.05 6.1 -9.15 6.05 -9.15 Q5.85 -9.15 5.25 -8.9 4.7 -8.6 4.35 -8.65 3.75 -8.7 3.55 -9.15 3.45 -9.4 3.5 -9.6 L3.5 -9.8 3.3 -9.5 3.25 -9.45 Q2.35 -8.25 2.2 -7.45 L2.2 -7.4 Q2.2 -7.3 2.6 -6.65 L2.7 -6.45 Q3.2 -5.6 3.5 -5.2 3.95 -4.45 4.25 -4.1 4.75 -3.45 5.6 -3.0 L5.9 -3.75 Q6.15 -4.15 6.55 -4.25 L6.45 -4.3 5.85 -4.65 Q5.55 -4.8 5.45 -4.9 5.25 -5.05 5.1 -5.3 4.95 -5.55 4.8 -5.95 L4.75 -6.05 M8.1 -6.85 Q8.0 -7.1 7.8 -7.15 7.7 -7.15 7.7 -7.1 L7.65 -7.05 Q7.65 -7.1 7.7 -7.15 7.25 -7.35 7.05 -7.25 6.8 -7.15 6.7 -7.15 6.6 -7.15 6.5 -7.0 L6.4 -6.75 6.25 -6.3 6.25 -6.25 Q6.3 -6.05 6.45 -5.85 6.7 -5.4 7.1 -5.35 L7.75 -5.3 Q7.95 -5.4 8.05 -5.7 L8.1 -6.05 8.1 -6.2 8.15 -6.25 8.15 -6.3 Q8.15 -6.65 8.1 -6.85 M10.5 -9.95 L10.45 -9.1 Q10.85 -8.0 10.85 -7.15 L11.25 -6.85 11.3 -6.9 11.35 -6.75 Q11.5 -6.8 11.75 -7.15 L11.8 -7.2 11.9 -7.4 12.0 -7.65 12.0 -7.8 11.95 -7.8 11.95 -7.9 Q11.95 -8.35 11.65 -9.05 11.2 -10.05 10.6 -10.2 L10.45 -10.2 10.5 -9.95 M10.15 -7.85 L10.1 -8.15 10.0 -8.1 9.6 -8.15 9.3 -8.5 Q9.05 -8.7 8.85 -8.7 L8.8 -8.65 8.85 -8.65 9.25 -8.15 Q9.45 -7.85 9.5 -7.4 L9.5 -7.1 9.55 -7.05 9.55 -7.05 9.45 -6.2 9.4 -5.9 9.4 -5.8 9.35 -5.4 9.35 -5.35 9.4 -5.45 9.7 -5.9 9.85 -6.15 Q10.1 -6.65 10.15 -6.85 L10.15 -6.9 10.2 -7.05 10.2 -7.1 Q10.25 -7.45 10.15 -7.85 M0.15 -8.55 L0.65 -9.05 0.8 -9.25 1.5 -10.2 1.85 -10.65 1.6 -10.65 1.5 -10.65 0.6 -10.6 Q0.1 -10.5 -0.45 -10.25 L-0.6 -10.2 -1.0 -9.95 -1.1 -9.95 Q-2.3 -9.2 -2.55 -8.5 -2.6 -8.3 -2.6 -8.15 L-2.6 -8.1 -2.3 -8.05 Q-0.9 -8.05 -0.25 -8.3 -0.1 -8.4 0.05 -8.45 L0.15 -8.55 M1.65 -11.3 Q2.5 -11.25 2.5 -10.55 L1.5 -9.35 1.1 -8.85 0.75 -8.4 Q0.5 -8.1 0.25 -8.0 L0.0 -7.8 Q-0.25 -7.65 -0.45 -7.65 L-1.7 -7.6 Q-2.6 -7.6 -2.6 -7.5 -3.0 -7.5 -3.1 -7.7 L-3.1 -8.05 Q-3.1 -8.8 -2.2 -9.65 -1.45 -10.35 -0.3 -10.85 0.75 -11.3 1.5 -11.3 L1.65 -11.3 M8.95 -4.7 L9.0 -4.75 9.0 -4.8 8.9 -4.7 Q8.8 -4.6 8.5 -4.5 8.2 -4.4 8.0 -4.3 L7.9 -4.15 7.8 -4.0 7.75 -3.9 Q7.85 -3.8 7.9 -3.6 7.9 -3.4 7.85 -3.2 L7.75 -2.9 Q7.95 -3.1 8.95 -4.7 M-4.05 -8.6 L-4.0 -8.7 Q-4.0 -8.85 -4.15 -9.0 L-4.2 -9.05 Q-4.45 -9.25 -4.85 -9.2 L-5.1 -9.05 -5.3 -8.8 -5.4 -8.65 Q-5.5 -8.5 -5.5 -8.35 -5.5 -8.25 -5.4 -8.15 -5.25 -8.05 -4.95 -8.05 -4.35 -8.05 -4.1 -8.35 L-4.05 -8.6 M-4.75 -9.75 Q-4.25 -9.8 -3.9 -9.55 -3.5 -9.25 -3.5 -8.7 -3.5 -8.3 -3.7 -8.05 -4.05 -7.5 -4.95 -7.5 -5.6 -7.55 -5.9 -7.95 -6.0 -8.15 -6.0 -8.35 -6.0 -9.0 -5.6 -9.4 -5.25 -9.75 -4.75 -9.75" fill="#111111" fill-rule="evenodd" stroke="none"/>
      <path d="M6.45 -9.05 L6.45 -9.0 5.2 -7.75 Q4.7 -7.25 4.65 -6.7 L4.65 -6.45 4.75 -6.05 4.8 -5.95 Q4.95 -5.55 5.1 -5.3 5.25 -5.05 5.45 -4.9 5.55 -4.8 5.85 -4.65 L6.45 -4.3 6.4 -4.3 Q5.4 -4.45 4.8 -5.4 4.55 -5.85 4.45 -6.15 L4.15 -6.25 Q3.9 -6.4 3.7 -6.45 L3.4 -6.55 3.3 -6.6 3.75 -7.15 Q4.3 -7.85 4.65 -8.15 L5.1 -8.55 5.3 -8.65 Q6.05 -9.05 6.45 -9.05 M4.75 -6.05 L4.75 -6.05 M3.25 -9.45 L3.25 -9.2 Q3.2 -9.05 3.4 -8.75 L3.5 -8.6 Q2.6 -7.95 2.25 -7.4 L2.2 -7.45 Q2.35 -8.25 3.25 -9.45 M2.6 -7.0 L3.2 -7.6 Q3.65 -8.0 4.05 -8.3 L4.5 -8.35 Q3.4 -7.35 3.0 -6.75 2.75 -6.9 2.6 -7.0 M6.5 -7.0 L6.55 -6.9 Q6.75 -6.65 7.3 -6.6 7.65 -6.55 7.95 -6.75 L8.1 -6.85 Q8.15 -6.65 8.15 -6.3 L8.15 -6.35 Q7.95 -6.2 7.75 -6.1 7.4 -5.95 7.05 -6.0 6.8 -6.0 6.65 -6.2 6.5 -6.35 6.45 -6.6 L6.4 -6.75 6.5 -7.0 M10.15 -7.85 Q10.25 -7.45 10.2 -7.1 L10.2 -7.05 10.15 -6.9 10.15 -6.85 Q10.1 -6.65 9.85 -6.15 L9.5 -5.9 9.4 -5.8 9.4 -5.9 9.45 -6.2 9.55 -7.05 10.15 -7.85 M8.95 -4.7 Q8.35 -4.1 7.9 -4.15 L8.0 -4.3 Q8.2 -4.4 8.5 -4.5 8.8 -4.6 8.9 -4.7 L9.0 -4.8 9.0 -4.75 8.95 -4.7 M-4.2 -9.05 L-4.15 -9.0 Q-4.0 -8.85 -4.0 -8.7 L-4.05 -8.6 -4.05 -8.65 Q-4.4 -8.5 -4.85 -8.5 -5.05 -8.5 -5.3 -8.6 L-5.4 -8.65 -5.3 -8.8 -5.1 -9.05 Q-4.95 -8.9 -4.6 -8.9 -4.35 -8.9 -4.2 -9.05" fill="#e2bf00" fill-rule="evenodd" stroke="none"/>
      <path d="M3.3 -6.6 L3.4 -6.55 3.7 -6.45 Q3.9 -6.4 4.15 -6.25 L4.45 -6.15 Q4.55 -5.85 4.8 -5.4 5.4 -4.45 6.4 -4.3 L6.45 -4.3 6.55 -4.25 Q6.15 -4.15 5.9 -3.75 L5.6 -3.0 Q4.75 -3.45 4.25 -4.1 3.95 -4.45 3.5 -5.2 3.2 -5.6 2.7 -6.45 L2.6 -6.65 Q2.2 -7.3 2.2 -7.4 L2.2 -7.45 2.25 -7.4 Q2.35 -7.25 2.55 -7.05 L2.6 -7.0 Q2.75 -6.9 3.0 -6.75 L3.3 -6.6 M4.75 -6.05 L4.75 -6.05 M8.15 -6.3 L8.15 -6.25 8.1 -6.2 8.1 -6.05 8.05 -5.7 Q7.95 -5.4 7.75 -5.3 L7.1 -5.35 Q6.7 -5.4 6.45 -5.85 6.3 -6.05 6.25 -6.25 L6.25 -6.3 6.4 -6.75 6.45 -6.6 Q6.5 -6.35 6.65 -6.2 6.8 -6.0 7.05 -6.0 7.4 -5.95 7.75 -6.1 7.95 -6.2 8.15 -6.35 L8.15 -6.3 M9.85 -6.15 L9.7 -5.9 9.4 -5.45 9.35 -5.35 9.35 -5.4 9.4 -5.8 9.5 -5.9 9.85 -6.15 M7.9 -4.15 Q8.35 -4.1 8.95 -4.7 7.95 -3.1 7.75 -2.9 L7.85 -3.2 Q7.9 -3.4 7.9 -3.6 7.85 -3.8 7.75 -3.9 L7.8 -4.0 7.9 -4.15 M-5.4 -8.65 L-5.3 -8.6 Q-5.05 -8.5 -4.85 -8.5 -4.4 -8.5 -4.05 -8.65 L-4.05 -8.6 -4.1 -8.35 Q-4.35 -8.05 -4.95 -8.05 -5.25 -8.05 -5.4 -8.15 -5.5 -8.25 -5.5 -8.35 -5.5 -8.5 -5.4 -8.65" fill="#b37500" fill-rule="evenodd" stroke="none"/>
      <path d="M6.45 -9.05 Q6.05 -9.05 5.3 -8.65 L5.1 -8.55 4.65 -8.15 Q4.3 -7.85 3.75 -7.15 L3.3 -6.6 3.0 -6.75 Q3.4 -7.35 4.5 -8.35 L4.05 -8.3 Q3.65 -8.0 3.2 -7.6 L2.6 -7.0 2.55 -7.05 Q2.35 -7.25 2.25 -7.4 2.6 -7.95 3.5 -8.6 L3.4 -8.75 Q3.2 -9.05 3.25 -9.2 L3.25 -9.45 3.3 -9.5 3.5 -9.8 3.5 -9.6 Q3.45 -9.4 3.55 -9.15 3.75 -8.7 4.35 -8.65 4.7 -8.6 5.25 -8.9 5.85 -9.15 6.05 -9.15 L6.1 -9.15 6.35 -9.05 6.45 -9.05 M6.5 -7.0 Q6.6 -7.15 6.7 -7.15 6.8 -7.15 7.05 -7.25 7.25 -7.35 7.7 -7.15 7.65 -7.1 7.65 -7.05 L7.7 -7.1 Q7.7 -7.15 7.8 -7.15 8.0 -7.1 8.1 -6.85 L7.95 -6.75 Q7.65 -6.55 7.3 -6.6 6.75 -6.65 6.55 -6.9 L6.5 -7.0 M8.8 -8.65 L8.85 -8.7 Q9.05 -8.7 9.3 -8.5 L9.6 -8.15 10.0 -8.1 10.1 -8.15 10.15 -7.85 9.55 -7.05 9.55 -7.05 9.5 -7.1 9.5 -7.4 Q9.45 -7.85 9.25 -8.15 L8.85 -8.65 8.8 -8.65 M-4.2 -9.05 Q-4.35 -8.9 -4.6 -8.9 -4.95 -8.9 -5.1 -9.05 L-4.85 -9.2 Q-4.45 -9.25 -4.2 -9.05" fill="#fff7cb" fill-rule="evenodd" stroke="none"/>
      <path d="M7.6 -4.1 L7.55 -4.1 7.6 -4.1 M-0.25 -8.3 L0.15 -8.55 0.05 -8.45 Q-0.1 -8.4 -0.25 -8.3 M0.6 -10.6 L-0.45 -10.25 Q0.1 -10.5 0.6 -10.6" fill="#7c6c6c" fill-rule="evenodd" stroke="none"/>
      <path d="M8.05 -8.95 L8.15 -9.05 8.2 -9.0 8.35 -9.0 8.75 -8.85 8.65 -8.75 8.6 -8.6 8.95 -8.25 Q9.3 -7.8 9.35 -7.45 9.4 -7.2 9.35 -6.75 L9.25 -6.25 9.1 -5.55 9.05 -5.45 8.95 -5.95 8.95 -6.0 Q8.85 -6.3 8.65 -6.5 L8.65 -6.6 8.55 -7.0 8.35 -7.35 8.35 -7.4 Q8.0 -7.8 7.5 -7.85 7.6 -8.35 7.85 -8.7 L7.95 -8.75 8.05 -8.95 M5.05 -5.8 Q4.9 -6.05 4.9 -6.4 L4.9 -6.7 Q5.0 -7.55 5.9 -8.2 L6.5 -8.65 6.6 -8.7 6.8 -8.9 7.4 -9.0 7.9 -9.05 7.85 -9.05 7.65 -8.8 Q7.35 -8.45 7.3 -8.1 7.3 -7.95 7.3 -7.85 6.8 -7.85 6.35 -7.5 L6.1 -7.25 6.1 -7.2 Q5.95 -7.0 5.85 -6.7 5.6 -6.55 5.4 -6.35 5.25 -6.15 5.1 -5.9 L5.05 -5.8 M11.9 -7.4 L11.8 -7.2 11.75 -7.15 Q11.5 -6.8 11.35 -6.75 L11.3 -6.9 11.25 -6.85 10.85 -7.15 Q10.85 -8.0 10.45 -9.1 L10.5 -9.95 10.5 -9.8 10.55 -9.75 10.65 -9.4 10.8 -8.95 Q11.1 -8.35 11.6 -7.7 L11.9 -7.4 M1.6 -10.65 L1.85 -10.65 1.5 -10.2 0.8 -9.25 0.65 -9.05 0.15 -8.55 -0.25 -8.3 Q-0.9 -8.05 -2.3 -8.05 L-2.6 -8.1 -2.6 -8.15 Q-2.3 -8.4 -1.6 -8.65 0.0 -9.2 0.45 -9.6 1.0 -10.15 1.5 -10.55 L1.6 -10.65" fill="#0070e0" fill-rule="evenodd" stroke="none"/>
      <path d="M8.35 -9.0 L8.35 -9.1 8.4 -9.55 Q8.5 -10.1 8.1 -11.45 L8.1 -11.4 Q8.5 -11.1 8.8 -10.7 L9.25 -10.0 9.85 -8.9 9.85 -9.0 9.95 -8.7 9.95 -8.65 9.9 -8.5 Q9.9 -8.4 9.75 -8.4 9.65 -8.45 9.55 -8.7 9.4 -8.9 8.95 -8.95 8.85 -8.95 8.75 -8.85 L8.35 -9.0 M9.05 -5.45 Q8.9 -5.15 8.7 -4.95 L8.55 -4.9 Q7.7 -4.65 7.3 -4.65 6.6 -4.75 5.55 -5.35 L5.2 -5.6 5.05 -5.8 5.1 -5.9 Q5.25 -6.15 5.4 -6.35 5.6 -6.55 5.85 -6.7 5.8 -6.55 5.8 -6.35 L5.8 -6.3 Q5.75 -5.95 5.95 -5.65 6.3 -4.9 7.35 -4.8 8.15 -4.7 8.45 -5.3 8.55 -5.5 8.6 -6.0 L8.6 -6.05 8.65 -6.5 Q8.85 -6.3 8.95 -6.0 L8.95 -5.95 9.05 -5.45 M6.8 -8.9 L6.8 -9.0 Q6.85 -9.35 6.05 -9.4 5.7 -9.45 5.3 -9.25 4.8 -8.95 4.6 -8.9 L4.05 -9.0 Q3.8 -9.25 3.75 -9.35 L3.75 -9.5 4.3 -10.25 Q5.7 -11.9 7.05 -11.8 7.35 -11.75 7.55 -11.65 L7.55 -11.5 Q8.0 -9.8 7.95 -9.1 L7.9 -9.05 7.4 -9.0 6.8 -8.9 M11.95 -7.9 L11.95 -7.8 12.0 -7.8 12.0 -7.65 11.9 -7.4 11.6 -7.7 Q11.1 -8.35 10.8 -8.95 L10.65 -9.4 10.55 -9.75 Q11.4 -8.95 11.9 -8.05 L11.95 -7.9 M1.5 -10.55 Q1.0 -10.15 0.45 -9.6 0.0 -9.2 -1.6 -8.65 -2.3 -8.4 -2.6 -8.15 -2.6 -8.3 -2.55 -8.5 L-2.0 -9.05 Q-1.4 -9.6 -0.75 -9.85 0.0 -10.2 1.5 -10.55" fill="#80c0f0" fill-rule="evenodd" stroke="none"/>
      <path d="M8.05 -8.95 L8.15 -9.05 Q8.25 -10.05 7.9 -11.55 7.65 -12.55 7.3 -13.15 L7.5 -13.0 7.6 -12.85 Q8.1 -12.25 8.7 -11.25 L8.95 -10.8 9.85 -9.0 9.85 -8.9 9.25 -10.0 8.8 -10.7 Q8.5 -11.1 8.1 -11.4 L8.1 -11.45 Q8.5 -10.1 8.4 -9.55 L8.35 -9.1 8.35 -9.0 8.2 -9.0 8.15 -9.05 8.05 -8.95 M8.7 -4.95 L8.4 -4.75 8.35 -4.75 Q7.95 -4.55 7.85 -4.45 7.7 -4.35 7.6 -4.1 L7.55 -4.1 Q7.35 -4.2 7.05 -4.25 6.95 -4.5 6.7 -4.65 L5.85 -5.05 5.8 -5.1 5.6 -5.2 5.6 -5.25 5.55 -5.25 5.25 -5.5 5.2 -5.55 5.2 -5.6 5.55 -5.35 Q6.6 -4.75 7.3 -4.65 7.7 -4.65 8.55 -4.9 L8.7 -4.95 M3.75 -9.5 L3.75 -9.6 Q3.8 -9.95 4.05 -10.4 L4.15 -10.55 Q4.85 -11.3 6.8 -13.25 6.85 -13.45 7.0 -13.4 L7.55 -11.65 Q7.35 -11.75 7.05 -11.8 5.7 -11.9 4.3 -10.25 L3.75 -9.5 M10.5 -9.95 L10.45 -10.2 10.6 -10.2 Q11.2 -10.05 11.65 -9.05 11.95 -8.35 11.95 -7.9 L11.9 -8.05 Q11.4 -8.95 10.55 -9.75 L10.5 -9.8 10.5 -9.95 M1.6 -10.65 L1.5 -10.55 Q0.0 -10.2 -0.75 -9.85 -1.4 -9.6 -2.0 -9.05 L-2.55 -8.5 Q-2.3 -9.2 -1.1 -9.95 L-1.0 -9.95 -0.6 -10.2 -0.45 -10.25 0.6 -10.6 1.5 -10.65 1.6 -10.65" fill="#d0f0f0" fill-rule="evenodd" stroke="none"/>
    </g>
  </defs>
</svg>
