<?xml version="1.0" encoding="UTF-8" standalone="no"?>
<svg xmlns:ffdec="https://www.free-decompiler.com/flash" xmlns:xlink="http://www.w3.org/1999/xlink" ffdec:objectType="frame" height="108.5px" width="124.6px" xmlns="http://www.w3.org/2000/svg">
  <g transform="matrix(1.0, 0.0, 0.0, 1.0, 38.85, 119.7)">
    <use ffdec:characterId="1244" height="15.5" transform="matrix(7.0, 0.0, 0.0, 7.0, -38.85, -119.7)" width="17.8" xlink:href="#shape0"/>
  </g>
  <defs>
    <g id="shape0" transform="matrix(1.0, 0.0, 0.0, 1.0, 5.55, 17.1)">
      <path d="M8.3 -10.9 L8.45 -11.8 Q8.6 -12.8 8.6 -13.4 L9.65 -13.15 9.65 -12.9 Q9.65 -11.45 9.35 -10.0 L8.65 -10.8 8.35 -11.1 8.3 -10.9 M3.05 -13.6 L3.5 -13.6 5.45 -13.75 Q6.1 -11.85 6.1 -11.8 6.1 -11.55 6.25 -10.85 L6.25 -10.95 6.05 -10.85 5.2 -10.25 Q5.1 -10.25 5.0 -10.4 L4.9 -10.45 Q4.35 -11.55 3.7 -12.6 L3.05 -13.6 M5.35 -9.6 Q5.55 -9.75 5.95 -10.05 L6.25 -10.2 6.25 -10.15 6.4 -10.1 6.45 -10.1 6.7 -9.0 Q6.7 -8.7 6.9 -8.0 7.15 -7.25 7.15 -6.5 L7.15 -6.3 7.1 -6.2 Q7.7 -6.95 8.0 -8.65 8.15 -9.4 8.2 -10.15 L8.3 -10.15 Q8.3 -10.1 8.35 -10.1 L8.4 -10.1 8.8 -9.65 9.0 -9.4 9.1 -9.05 Q8.75 -7.8 8.15 -6.5 L7.15 -4.55 7.1 -4.65 6.55 -6.15 Q6.55 -6.5 5.95 -8.05 5.35 -9.55 5.35 -9.4 L5.35 -9.6" fill="#80c0f0" fill-rule="evenodd" stroke="none"/>
      <path d="M10.2 -10.65 L10.3 -11.35 Q10.4 -11.25 10.5 -11.2 11.0 -10.9 11.0 -10.7 11.0 -10.55 10.4 -9.4 L10.4 -9.45 Q10.4 -10.0 10.25 -10.85 L10.2 -10.65 M9.8 -8.5 L9.75 -8.5 9.75 -8.6 9.8 -8.5 M1.85 -11.4 L2.4 -11.65 2.7 -11.8 Q3.8 -10.3 3.8 -9.45 3.8 -9.35 3.9 -9.15 L3.95 -8.85 3.95 -8.6 3.9 -8.65 Q3.7 -9.45 2.95 -10.4 2.4 -11.1 1.85 -11.4" fill="#b00000" fill-rule="evenodd" stroke="none"/>
      <path d="M8.3 -10.9 L8.35 -11.1 8.65 -10.8 9.35 -10.0 9.3 -9.75 Q9.2 -9.7 9.2 -9.6 L8.75 -9.9 8.4 -10.25 8.25 -10.6 8.3 -10.8 8.3 -10.9 M3.05 -13.6 L3.7 -12.6 Q4.35 -11.55 4.9 -10.45 L5.0 -10.4 Q5.1 -10.25 5.2 -10.25 L6.05 -10.85 6.25 -10.95 6.25 -10.85 6.3 -10.55 5.85 -10.25 Q5.5 -9.95 5.2 -9.85 4.95 -9.75 4.75 -9.75 L4.7 -9.75 Q4.25 -10.7 3.7 -11.6 L3.6 -11.75 Q3.0 -13.0 2.55 -13.55 L3.05 -13.6 M5.35 -9.6 L5.35 -9.4 Q5.35 -9.55 5.95 -8.05 6.55 -6.5 6.55 -6.15 L7.1 -4.65 7.15 -4.55 7.1 -4.5 6.9 -4.05 Q6.7 -4.9 6.0 -6.7 L5.15 -8.85 5.15 -9.05 5.2 -9.3 Q5.2 -9.4 5.35 -9.6" fill="#0070e0" fill-rule="evenodd" stroke="none"/>
      <path d="M10.2 -10.65 L10.25 -10.85 Q10.4 -10.0 10.4 -9.45 L10.4 -9.4 10.35 -9.3 9.9 -8.5 9.8 -8.5 9.75 -8.6 9.8 -8.65 9.8 -8.7 9.85 -8.85 10.2 -10.65 M1.85 -11.4 Q2.4 -11.1 2.95 -10.4 3.7 -9.45 3.9 -8.65 L3.95 -8.6 3.95 -8.85 3.9 -9.15 Q3.8 -9.35 3.8 -9.45 3.8 -10.3 2.7 -11.8 L2.75 -11.85 Q3.65 -10.35 4.0 -9.6 L5.1 -7.15 5.5 -6.25 Q4.9 -6.85 4.3 -7.1 L4.3 -7.15 4.25 -7.35 4.2 -7.4 4.15 -7.4 4.15 -7.5 Q4.2 -7.45 4.2 -7.6 L4.2 -7.7 4.2 -7.8 4.15 -8.1 3.95 -8.4 3.9 -8.5 Q3.65 -9.05 3.35 -9.45 3.1 -9.5 2.8 -9.8 L2.45 -10.15 2.45 -10.2 2.2 -10.55 Q1.6 -11.15 1.55 -11.25 L1.85 -11.4" fill="#600000" fill-rule="evenodd" stroke="none"/>
      <path d="M11.25 -6.75 Q11.55 -6.3 11.55 -5.85 L11.55 -5.8 11.45 -5.9 Q10.8 -6.65 10.05 -6.85 L9.9 -6.9 9.85 -6.9 9.6 -7.15 9.6 -7.45 Q9.6 -7.55 9.65 -7.65 9.85 -7.4 10.5 -7.1 10.8 -6.95 11.25 -6.75 M10.7 -3.15 Q10.5 -2.85 10.2 -2.6 L10.15 -2.65 10.3 -2.85 Q10.35 -2.95 10.35 -3.1 10.35 -3.25 10.5 -3.6 10.65 -3.95 10.65 -4.4 10.7 -4.7 10.65 -4.95 L10.65 -4.9 Q11.0 -4.45 11.0 -4.0 11.0 -3.6 10.7 -3.15 M9.15 -6.25 L9.05 -6.25 9.1 -6.3 9.15 -6.25 M4.15 -7.4 Q3.95 -7.3 3.8 -7.2 L3.75 -7.25 3.75 -7.2 3.7 -7.15 3.55 -7.1 Q3.25 -7.05 3.1 -7.0 L2.45 -7.0 Q3.2 -7.25 3.6 -7.5 L4.05 -7.8 Q4.1 -7.6 4.1 -7.45 L4.15 -7.45 4.15 -7.5 4.15 -7.4 M-4.05 -4.55 L-4.3 -4.3 -4.25 -4.45 -3.8 -5.5 -3.2 -6.2 -2.55 -6.85 -1.5 -7.6 Q-0.3 -8.3 1.05 -8.9 L1.0 -8.85 0.75 -8.7 Q-0.35 -8.0 -1.55 -7.05 -2.6 -6.25 -2.8 -5.95 L-2.75 -5.95 Q-1.9 -6.7 0.05 -7.75 1.75 -8.6 1.9 -8.6 2.5 -8.6 3.2 -8.9 L3.35 -8.95 3.5 -8.8 Q3.2 -8.5 2.4 -8.1 L-0.35 -6.85 Q-2.25 -6.0 -3.15 -5.35 -3.75 -4.95 -4.05 -4.55 M4.2 -7.7 Q4.15 -7.95 3.95 -8.4 L4.15 -8.1 4.2 -7.8 4.2 -7.7" fill="#e2bf00" fill-rule="evenodd" stroke="none"/>
      <path d="M9.1 -6.3 L9.15 -6.35 9.1 -6.4 Q9.1 -6.5 9.1 -6.6 9.1 -7.0 9.3 -7.25 L9.3 -7.3 Q9.35 -7.4 9.45 -7.55 L9.5 -7.55 9.65 -7.7 9.65 -7.65 Q9.6 -7.55 9.6 -7.45 L9.6 -7.15 9.85 -6.9 9.9 -6.9 10.05 -6.85 Q10.8 -6.65 11.45 -5.9 L11.55 -5.8 Q11.55 -4.8 11.35 -4.25 11.2 -3.8 10.95 -3.45 L10.7 -3.15 Q11.0 -3.6 11.0 -4.0 11.0 -4.45 10.65 -4.9 L10.65 -4.95 10.6 -5.2 11.0 -4.95 11.05 -4.9 Q11.1 -4.75 11.15 -4.85 11.2 -4.95 11.2 -5.05 11.2 -5.3 10.6 -5.8 L10.15 -6.0 10.1 -6.0 9.55 -6.05 Q9.5 -6.05 9.45 -6.2 L9.4 -6.2 Q9.25 -6.2 9.15 -6.3 L9.15 -6.25 9.1 -6.3 M2.45 -7.0 L1.85 -7.0 1.05 -6.8 -0.2 -6.55 Q-1.35 -6.2 -2.35 -5.65 -3.3 -5.15 -4.05 -4.55 -3.75 -4.95 -3.15 -5.35 -2.25 -6.0 -0.35 -6.85 L2.4 -8.1 Q3.2 -8.5 3.5 -8.8 3.65 -8.65 3.75 -8.4 L3.75 -8.35 Q3.95 -8.05 4.05 -7.8 L3.6 -7.5 Q3.2 -7.25 2.45 -7.0" fill="#b37500" fill-rule="evenodd" stroke="none"/>
      <path d="M9.65 -7.7 L9.75 -7.75 Q9.95 -8.0 10.2 -7.7 L10.25 -7.7 10.4 -7.6 10.45 -7.55 10.6 -7.5 10.7 -7.4 Q10.75 -7.35 10.8 -7.3 L10.95 -7.15 11.15 -6.9 11.25 -6.75 Q10.8 -6.95 10.5 -7.1 9.85 -7.4 9.65 -7.65 L9.65 -7.7 M1.05 -8.9 L1.25 -8.95 1.25 -8.8 1.3 -9.0 1.8 -9.15 2.0 -9.2 2.4 -9.2 Q3.0 -9.2 3.35 -8.95 L3.2 -8.9 Q2.5 -8.6 1.9 -8.6 1.75 -8.6 0.05 -7.75 -1.9 -6.7 -2.75 -5.95 L-2.8 -5.95 Q-2.6 -6.25 -1.55 -7.05 -0.35 -8.0 0.75 -8.7 L1.0 -8.85 1.05 -8.9" fill="#fff7cb" fill-rule="evenodd" stroke="none"/>
      <path d="M5.75 -16.45 L7.8 -16.2 7.85 -16.05 7.95 -15.45 7.95 -15.15 8.0 -14.5 7.95 -13.95 8.0 -13.7 Q8.0 -12.95 7.9 -12.4 L7.85 -12.05 7.6 -10.15 7.45 -8.95 7.5 -10.45 Q7.5 -11.45 7.0 -12.95 6.55 -14.45 6.55 -14.6 6.55 -15.25 5.75 -16.45" fill="#fff4cc" fill-rule="evenodd" stroke="none"/>
      <path d="M7.45 -8.95 L7.35 -7.95 7.3 -7.95 7.2 -9.4 7.15 -9.8 7.0 -10.55 Q6.75 -11.75 6.75 -12.15 L6.0 -14.45 5.45 -15.6 5.35 -15.95 Q5.35 -16.05 5.25 -16.2 L5.25 -16.25 5.2 -16.4 5.55 -16.45 5.75 -16.45 Q6.55 -15.25 6.55 -14.6 6.55 -14.45 7.0 -12.95 7.5 -11.45 7.5 -10.45 L7.45 -8.95" fill="#c3b78b" fill-rule="evenodd" stroke="none"/>
      <path d="M5.75 -16.45 L5.55 -16.45 5.2 -16.4 5.25 -16.25 5.25 -16.2 Q5.35 -16.05 5.35 -15.95 L5.45 -15.6 6.0 -14.45 6.75 -12.15 Q6.75 -11.75 7.0 -10.55 L7.15 -9.8 7.2 -9.4 7.3 -7.95 7.35 -7.95 7.45 -8.95 7.6 -10.15 7.85 -12.05 7.9 -12.4 Q8.0 -12.95 8.0 -13.7 L7.95 -13.95 8.0 -14.5 7.95 -15.15 7.95 -15.45 7.85 -16.05 7.8 -16.2 5.75 -16.45 M4.65 -16.25 Q4.3 -16.85 4.3 -16.9 4.3 -17.05 4.5 -17.1 L4.6 -17.1 Q6.7 -17.1 8.45 -16.6 L8.5 -16.35 8.55 -16.35 8.5 -16.3 8.55 -15.85 Q8.6 -15.4 8.65 -15.0 L8.65 -14.15 9.7 -13.9 10.1 -13.8 10.4 -13.7 10.4 -12.35 Q10.5 -12.1 11.2 -11.65 11.8 -11.2 11.8 -10.9 11.8 -10.65 10.5 -8.5 L10.65 -8.35 Q10.9 -8.25 11.2 -8.05 12.25 -7.15 12.25 -6.15 12.25 -4.65 11.85 -3.7 11.2 -2.35 9.55 -1.6 L9.3 -1.7 Q9.25 -1.7 9.25 -1.8 L9.75 -2.65 Q10.2 -3.45 10.2 -4.1 10.2 -4.5 9.8 -5.1 9.55 -5.45 9.3 -5.65 L8.95 -5.6 8.9 -5.55 8.8 -5.55 Q8.5 -5.45 8.35 -5.3 7.7 -4.15 6.8 -3.2 L6.7 -3.2 6.6 -3.1 Q6.05 -4.4 6.05 -4.65 L6.05 -4.75 5.25 -5.65 5.05 -5.85 4.6 -6.05 Q3.55 -6.45 2.65 -6.45 L1.5 -6.4 1.0 -6.3 Q0.0 -6.0 -0.95 -5.6 -2.4 -5.0 -3.5 -4.1 -4.1 -3.65 -4.5 -3.1 L-5.2 -2.55 Q-5.45 -2.5 -5.55 -2.65 -5.5 -3.45 -4.95 -4.6 -4.7 -5.3 -4.15 -6.2 L-3.95 -6.45 -3.85 -6.65 -3.55 -6.95 Q-3.15 -7.4 -2.75 -7.65 -1.05 -9.0 0.95 -9.65 L1.35 -9.8 1.4 -9.85 1.65 -9.9 1.6 -10.05 1.5 -10.4 0.75 -11.3 Q0.75 -11.45 1.0 -11.6 L1.5 -11.8 Q2.25 -12.1 2.25 -12.65 L2.25 -12.7 2.05 -13.05 Q2.0 -13.4 1.55 -13.7 L1.55 -13.8 1.5 -13.9 1.75 -14.0 2.1 -14.15 3.0 -14.3 5.2 -14.45 Q4.85 -15.6 4.7 -16.2 L4.65 -16.25 M9.35 -10.0 Q9.65 -11.45 9.65 -12.9 L9.65 -13.15 8.6 -13.4 Q8.6 -12.8 8.45 -11.8 L8.3 -10.9 8.3 -10.8 8.25 -10.6 8.4 -10.25 8.75 -9.9 9.2 -9.6 Q9.2 -9.7 9.3 -9.75 L9.35 -10.0 M10.4 -9.4 Q11.0 -10.55 11.0 -10.7 11.0 -10.9 10.5 -11.2 10.4 -11.25 10.3 -11.35 L10.2 -10.65 9.85 -8.85 9.8 -8.7 9.8 -8.65 9.75 -8.6 9.75 -8.5 9.8 -8.5 9.9 -8.5 10.35 -9.3 10.4 -9.4 M6.25 -10.85 Q6.1 -11.55 6.1 -11.8 6.1 -11.85 5.45 -13.75 L3.5 -13.6 3.05 -13.6 2.55 -13.55 Q3.0 -13.0 3.6 -11.75 L3.7 -11.6 Q4.25 -10.7 4.7 -9.75 L4.75 -9.75 Q4.95 -9.75 5.2 -9.85 5.5 -9.95 5.85 -10.25 L6.3 -10.55 6.25 -10.85 M8.2 -11.85 L8.2 -11.85 M7.15 -4.55 L8.15 -6.5 Q8.75 -7.8 9.1 -9.05 L9.0 -9.4 8.8 -9.65 8.4 -10.1 8.35 -10.1 Q8.3 -10.1 8.3 -10.15 L8.2 -10.15 Q8.15 -9.4 8.0 -8.65 7.7 -6.95 7.1 -6.2 L7.15 -6.3 7.15 -6.5 Q7.15 -7.25 6.9 -8.0 6.7 -8.7 6.7 -9.0 L6.45 -10.1 6.4 -10.1 6.25 -10.15 6.25 -10.2 5.95 -10.05 Q5.55 -9.75 5.35 -9.6 5.2 -9.4 5.2 -9.3 L5.15 -9.05 5.15 -8.85 6.0 -6.7 Q6.7 -4.9 6.9 -4.05 L7.1 -4.5 7.15 -4.55 M9.65 -7.7 L9.5 -7.55 9.45 -7.55 Q9.35 -7.4 9.3 -7.3 L9.3 -7.25 Q9.1 -7.0 9.1 -6.6 9.1 -6.5 9.1 -6.4 L9.15 -6.35 9.1 -6.3 9.05 -6.25 9.15 -6.25 9.15 -6.3 Q9.25 -6.2 9.4 -6.2 L9.45 -6.2 Q9.5 -6.05 9.55 -6.05 L10.1 -6.0 10.15 -6.0 10.6 -5.8 Q11.2 -5.3 11.2 -5.05 11.2 -4.95 11.15 -4.85 11.1 -4.75 11.05 -4.9 L11.0 -4.95 10.6 -5.2 10.65 -4.95 Q10.7 -4.7 10.65 -4.4 10.65 -3.95 10.5 -3.6 10.35 -3.25 10.35 -3.1 10.35 -2.95 10.3 -2.85 L10.15 -2.65 10.2 -2.6 Q10.5 -2.85 10.7 -3.15 L10.95 -3.45 Q11.2 -3.8 11.35 -4.25 11.55 -4.8 11.55 -5.8 L11.55 -5.85 Q11.55 -6.3 11.25 -6.75 L11.15 -6.9 10.95 -7.15 10.8 -7.3 Q10.75 -7.35 10.7 -7.4 L10.6 -7.5 10.45 -7.55 10.4 -7.6 10.25 -7.7 10.2 -7.7 Q9.95 -8.0 9.75 -7.75 L9.65 -7.7 M2.7 -11.8 L2.4 -11.65 1.85 -11.4 1.55 -11.25 Q1.6 -11.15 2.2 -10.55 L2.45 -10.2 2.45 -10.15 2.8 -9.8 Q3.1 -9.5 3.35 -9.45 3.65 -9.05 3.9 -8.5 L3.95 -8.4 Q4.15 -7.95 4.2 -7.7 L4.2 -7.6 Q4.2 -7.45 4.15 -7.5 L4.15 -7.45 4.1 -7.45 Q4.1 -7.6 4.05 -7.8 3.95 -8.05 3.75 -8.35 L3.75 -8.4 Q3.65 -8.65 3.5 -8.8 L3.35 -8.95 Q3.0 -9.2 2.4 -9.2 L2.0 -9.2 1.8 -9.15 1.3 -9.0 1.35 -9.65 1.25 -8.95 1.05 -8.9 Q-0.3 -8.3 -1.5 -7.6 L-2.55 -6.85 -3.2 -6.2 -3.8 -5.5 -4.25 -4.45 -4.3 -4.3 -4.05 -4.55 Q-3.3 -5.15 -2.35 -5.65 -1.35 -6.2 -0.2 -6.55 L1.05 -6.8 1.85 -7.0 2.45 -7.0 3.1 -7.0 Q3.25 -7.05 3.55 -7.1 L3.7 -7.15 3.75 -7.2 3.75 -7.25 3.8 -7.2 Q3.95 -7.3 4.15 -7.4 L4.2 -7.4 4.25 -7.35 4.3 -7.15 4.3 -7.1 Q4.9 -6.85 5.5 -6.25 L5.1 -7.15 4.0 -9.6 Q3.65 -10.35 2.75 -11.85 L2.7 -11.8" fill="#111111" fill-rule="evenodd" stroke="none"/>
    </g>
  </defs>
</svg>
