<?xml version="1.0" encoding="UTF-8" standalone="no"?>
<svg xmlns:ffdec="https://www.free-decompiler.com/flash" xmlns:xlink="http://www.w3.org/1999/xlink" ffdec:objectType="frame" height="539.35px" width="113.75px" xmlns="http://www.w3.org/2000/svg">
  <g transform="matrix(1.0, 0.0, 0.0, 1.0, 0.0, 0.0)">
    <use ffdec:characterId="1002" height="539.35" transform="matrix(1.0, 0.0, 0.0, 1.0, 0.0, 0.0)" width="113.75" xlink:href="#shape0"/>
  </g>
  <defs>
    <g id="shape0" transform="matrix(1.0, 0.0, 0.0, 1.0, 0.0, 0.0)">
      <path d="M39.7 1.95 L78.5 1.9 82.05 2.0 113.75 2.0 113.75 3.85 44.25 3.8 42.6 3.0 Q41.2 2.4 39.7 1.95 M113.75 135.15 L113.75 136.55 100.15 131.6 Q99.45 131.05 98.55 130.6 L92.8 128.35 89.5 127.0 82.95 124.05 82.3 123.7 81.15 123.2 82.65 124.05 85.35 125.7 93.35 130.7 93.35 130.9 92.9 130.75 94.2 131.9 Q100.3 137.5 104.85 139.35 L113.75 142.55 113.75 143.45 108.0 141.25 107.65 141.1 105.5 140.3 105.3 140.2 102.05 138.75 Q98.3 136.7 94.55 133.2 L93.6 132.3 Q91.1 130.1 88.75 128.65 L88.4 128.45 88.35 128.4 86.2 127.05 86.15 127.0 78.2 121.95 78.25 121.95 76.65 121.25 Q68.4 117.85 59.4 115.3 54.0 113.1 51.1 112.45 L43.85 110.15 39.5 107.7 Q36.65 105.95 31.65 103.8 L26.4 101.6 23.0 100.2 Q17.6 97.9 7.35 94.15 L7.35 92.65 16.0 96.15 20.5 98.0 25.1 99.95 28.55 101.6 37.95 106.1 38.35 106.3 39.45 106.8 40.5 107.3 Q48.75 111.2 59.85 114.35 68.05 116.65 77.8 120.7 L92.1 126.8 92.8 127.05 99.25 129.7 103.95 131.5 104.6 131.75 113.75 135.15 M113.75 158.5 L113.75 159.1 113.5 158.95 104.55 155.95 98.1 155.85 Q95.9 154.55 91.7 152.65 L84.45 149.2 87.2 149.95 Q89.15 150.6 91.65 151.75 L92.2 152.0 94.1 152.95 Q94.9 153.15 95.9 153.85 L97.65 154.8 98.35 155.2 99.65 155.25 104.7 155.35 Q102.6 155.25 99.4 154.15 94.4 152.5 92.2 152.0 92.95 151.85 98.15 153.3 L105.3 155.35 104.95 155.35 107.8 156.35 110.5 157.3 112.75 158.15 113.65 158.45 113.75 158.5 M113.75 171.55 L113.75 172.6 100.95 168.75 98.65 168.0 89.15 164.75 87.3 164.1 78.9 161.5 78.85 161.5 78.6 161.4 78.55 161.4 76.2 160.75 Q68.45 158.8 64.05 157.15 61.5 156.15 54.2 152.75 50.45 151.0 44.1 148.6 L34.65 145.1 11.75 136.95 7.35 135.35 7.35 134.45 12.2 136.0 Q21.0 138.75 34.25 143.75 L36.35 144.55 54.6 151.65 Q56.9 152.6 61.85 154.35 L62.85 154.4 67.2 154.35 67.5 154.15 67.35 154.65 63.05 154.75 70.75 157.4 70.85 157.2 74.7 157.65 71.55 157.65 76.55 159.35 102.1 167.9 113.75 171.55 M113.75 246.3 L113.75 248.1 110.6 248.05 Q94.65 255.5 86.55 265.9 79.9 274.55 77.85 286.4 76.7 293.35 76.75 307.65 76.8 316.8 76.3 322.8 L76.5 418.45 76.5 420.55 76.5 440.8 76.2 472.85 76.3 472.85 76.3 476.15 Q80.1 475.6 83.3 472.6 85.45 470.6 86.35 468.1 L86.35 468.05 Q86.35 464.55 86.15 463.8 L86.1 463.65 86.15 462.35 86.1 460.4 86.3 459.65 86.3 457.85 86.1 455.8 86.15 451.3 86.3 445.5 86.25 432.65 86.25 423.65 86.35 422.9 86.2 422.05 86.25 422.05 86.25 420.55 86.2 411.1 86.2 404.65 86.15 404.65 86.15 403.9 86.2 403.85 86.25 396.05 86.1 395.8 86.25 395.7 86.25 379.1 86.45 378.3 86.55 377.45 86.3 373.2 86.25 372.9 86.25 369.5 86.15 369.55 86.15 368.35 86.25 368.3 86.25 349.4 85.95 349.2 86.25 348.85 86.25 347.25 86.1 347.15 86.25 346.9 86.45 300.7 86.65 298.4 86.8 298.4 86.75 296.75 Q86.75 285.7 91.7 276.5 95.05 270.25 100.35 265.8 101.8 263.95 104.6 262.1 108.65 259.5 112.65 258.8 L112.7 258.8 112.75 258.75 113.65 258.45 113.65 258.75 113.75 258.75 113.75 260.75 112.55 260.35 112.7 260.35 111.55 260.3 109.35 261.9 105.25 264.55 Q100.65 267.35 99.4 268.3 L99.35 268.05 99.35 268.0 99.25 268.15 Q92.8 274.85 91.25 279.7 89.95 283.6 88.9 290.25 L88.15 295.0 87.25 300.95 87.15 300.8 87.25 302.45 87.25 331.45 87.35 331.65 87.35 331.75 87.25 331.55 87.25 332.7 87.25 333.8 87.25 336.75 87.25 344.7 87.1 344.7 87.1 350.5 87.25 350.65 87.3 368.2 87.45 368.2 87.4 369.35 87.3 369.35 87.3 371.7 87.15 378.9 87.1 398.9 87.1 418.35 87.15 420.55 87.05 428.25 Q87.05 432.15 87.3 435.15 L87.3 437.7 89.4 437.65 89.4 438.45 87.65 438.35 87.55 438.35 87.3 438.35 87.3 439.95 87.3 440.05 89.4 438.75 89.4 440.2 89.1 440.35 89.1 440.45 88.9 440.45 87.55 441.05 87.3 441.3 87.25 443.95 87.4 455.1 87.35 455.85 87.5 457.1 87.45 457.1 87.45 459.2 87.35 464.55 88.35 463.75 88.35 467.75 87.35 468.5 87.25 468.55 87.3 468.75 87.3 469.05 Q87.3 470.2 82.6 474.15 77.8 478.25 76.05 478.25 L75.5 478.1 75.35 478.45 74.5 478.6 74.45 478.6 69.55 483.7 Q62.7 490.7 59.15 493.35 56.0 495.7 50.6 501.25 45.2 506.75 41.55 509.5 34.05 515.1 23.8 525.85 20.1 529.7 14.7 533.95 L8.1 538.8 7.35 539.35 7.35 536.9 13.1 532.2 22.9 524.9 31.45 516.35 Q36.4 511.55 40.45 508.65 44.5 505.8 49.4 500.8 L52.35 497.85 52.35 497.75 53.75 496.5 58.2 492.35 62.3 488.25 63.0 486.95 66.05 483.65 69.05 480.25 Q71.0 478.0 72.3 477.05 71.25 476.65 70.35 476.0 L71.75 475.45 71.65 339.7 71.85 298.6 71.85 297.2 71.85 297.1 71.85 295.9 71.9 294.0 71.95 291.25 72.15 291.25 Q72.7 287.35 74.0 282.8 74.8 279.95 75.85 277.25 76.75 274.85 77.8 272.6 L80.65 267.2 Q90.5 250.45 105.2 247.95 L109.8 246.35 113.75 246.3 M7.35 119.3 L7.35 118.5 31.3 128.6 39.9 132.1 31.75 127.55 34.45 129.25 34.35 129.45 Q31.9 128.5 26.25 124.55 20.9 120.8 17.25 119.6 L17.25 119.5 Q22.0 120.85 26.6 123.95 L28.65 125.4 Q31.1 126.45 34.75 128.5 L42.25 133.0 42.25 133.05 49.4 135.75 Q57.15 139.05 65.1 142.0 L68.35 143.15 68.2 143.0 68.35 143.0 68.65 143.25 78.7 146.6 78.85 146.65 78.85 146.6 78.75 145.5 Q78.75 144.6 80.15 142.15 81.4 139.95 80.95 137.1 L81.1 137.0 81.15 137.15 81.2 134.0 81.35 134.0 81.45 138.35 81.6 140.5 81.5 141.2 81.55 143.75 Q81.85 143.9 81.85 144.7 L81.6 146.45 81.55 146.9 81.4 147.25 81.6 147.25 81.3 147.55 82.05 147.85 82.1 147.85 82.95 147.9 82.45 148.0 82.4 148.0 83.1 148.25 Q85.95 149.3 87.45 149.9 L86.2 149.55 81.5 148.1 80.2 148.3 78.35 147.55 78.7 147.2 69.55 144.05 Q71.15 145.65 73.55 148.85 77.25 153.8 77.25 155.7 L77.2 157.4 Q76.9 157.4 76.6 157.7 75.95 158.2 75.95 157.6 76.85 156.35 76.85 155.7 76.85 154.0 73.15 149.0 L69.05 143.9 62.6 141.55 62.5 141.5 61.85 141.3 60.55 140.8 41.35 133.5 35.85 133.95 31.55 134.35 24.25 134.15 21.7 134.25 18.55 135.0 Q17.65 135.3 15.8 136.35 L13.55 136.1 13.7 135.9 18.15 134.7 19.45 134.35 9.55 134.75 8.7 134.65 8.7 134.45 17.05 133.6 31.55 133.7 Q33.45 132.75 35.25 132.6 L39.45 132.75 34.55 130.75 26.9 127.55 16.7 123.2 7.35 119.3 M7.35 3.2 L7.35 1.95 10.75 1.95 Q9.3 2.4 7.95 2.95 L7.35 3.2 M66.65 118.5 L68.45 119.15 67.9 119.05 66.65 118.5 M64.6 142.5 Q66.65 143.75 68.15 145.6 69.7 147.5 69.95 149.25 L69.85 149.4 Q67.95 146.0 64.45 142.6 L64.6 142.5 M80.8 142.95 L80.25 144.05 79.85 144.85 80.1 144.55 Q80.75 143.85 80.8 142.95 M80.3 147.9 L80.1 148.0 80.9 147.9 80.7 147.85 80.3 147.9 M64.1 123.25 Q53.75 120.35 40.25 114.55 22.35 106.85 18.2 105.35 L18.3 105.2 Q28.1 108.25 40.95 113.55 55.85 119.9 64.1 123.25 M39.85 116.1 L15.45 107.1 15.45 107.0 Q19.1 107.8 39.25 115.75 L39.85 116.1 M69.1 152.1 L70.1 150.75 70.2 151.15 69.1 152.1 M110.45 162.75 L111.1 163.1 110.1 162.85 110.45 162.75 M52.5 285.65 L52.45 285.55 52.5 282.25 52.5 285.65 M74.2 476.25 L75.4 476.25 75.4 468.9 75.3 468.8 75.2 440.75 75.15 420.55 75.15 418.55 Q75.25 361.7 75.5 328.15 L75.3 328.15 Q74.8 324.55 74.8 316.9 74.8 306.25 75.4 299.3 76.4 287.45 79.3 278.3 84.45 261.9 95.6 253.4 84.2 260.25 79.15 271.3 76.4 277.2 74.8 285.95 73.95 290.5 72.65 298.85 L72.65 299.4 72.65 299.6 72.65 475.9 73.6 476.0 73.65 476.0 73.95 476.25 74.2 476.25" fill="#4a3728" fill-rule="evenodd" stroke="none"/>
      <path d="M113.75 3.85 L113.75 135.15 104.6 131.75 103.95 131.5 99.25 129.7 92.8 127.05 92.1 126.8 77.8 120.7 Q68.05 116.65 59.85 114.35 48.75 111.2 40.5 107.3 L39.45 106.8 39.45 106.75 38.35 106.3 37.95 106.1 28.55 101.6 25.1 99.95 20.5 98.0 17.8 96.75 16.0 96.15 7.35 92.65 7.35 22.15 Q4.4 20.75 2.55 18.7 -0.4 15.4 0.05 11.65 0.05 6.4 7.35 3.2 L7.95 2.95 Q9.3 2.4 10.75 1.95 16.95 0.0 25.25 0.0 33.5 0.0 39.7 1.95 41.2 2.4 42.6 3.0 L44.25 3.8 113.75 3.85" fill="#816b4f" fill-rule="evenodd" stroke="none"/>
      <path d="M113.75 136.55 L113.75 141.15 109.1 139.1 Q104.0 136.85 99.35 133.7 L90.5 127.9 89.8 127.45 89.5 127.0 92.8 128.35 98.55 130.6 Q99.45 131.05 100.15 131.6 L113.75 136.55 M113.75 143.45 L113.75 158.5 113.65 158.45 109.8 156.95 107.8 156.35 104.95 155.35 105.3 155.35 98.15 153.3 Q92.95 151.85 92.2 152.0 94.4 152.5 99.4 154.15 102.6 155.25 104.7 155.35 L99.65 155.25 97.65 154.8 95.9 153.85 Q94.9 153.15 94.1 152.95 L92.2 152.0 91.65 151.75 Q89.15 150.6 87.2 149.95 L86.2 149.55 87.45 149.9 Q85.95 149.3 83.1 148.25 L82.45 148.0 82.95 147.9 82.1 147.85 81.3 147.55 81.6 147.25 81.4 147.25 81.55 146.9 81.6 146.45 81.85 144.7 Q81.85 143.9 81.55 143.75 L81.5 141.2 81.6 140.5 81.45 138.35 81.35 134.0 81.2 134.0 81.15 137.15 81.1 137.0 80.95 137.1 Q81.4 139.95 80.15 142.15 78.75 144.6 78.75 145.5 L78.85 146.6 76.95 145.9 Q68.15 142.7 65.1 142.0 57.15 139.05 49.4 135.75 L42.25 133.05 42.25 133.0 34.75 128.5 Q31.1 126.45 28.65 125.4 L26.6 123.95 Q22.0 120.85 17.25 119.5 L17.25 119.6 Q20.9 120.8 26.25 124.55 31.9 128.5 34.35 129.45 L34.45 129.25 31.75 127.55 39.9 132.1 31.3 128.6 7.35 118.5 7.35 94.15 Q17.6 97.9 23.0 100.2 L26.4 101.6 31.65 103.8 Q36.65 105.95 39.5 107.7 L43.85 110.15 51.1 112.45 Q54.0 113.1 59.4 115.3 68.4 117.85 76.65 121.25 L78.25 121.95 78.2 121.95 86.15 127.0 86.2 127.05 88.25 128.6 93.6 132.3 94.55 133.2 Q98.3 136.7 102.05 138.75 102.75 139.5 103.8 139.8 L105.5 140.3 107.65 141.1 107.7 141.2 108.0 141.25 113.75 143.45 M113.75 248.1 L113.75 258.75 113.65 258.75 113.65 258.45 112.75 258.75 112.7 258.8 112.65 258.8 Q108.65 259.5 104.6 262.1 101.8 263.95 100.35 265.8 95.05 270.25 91.7 276.5 86.75 285.7 86.75 296.75 L86.8 298.4 86.65 298.4 86.45 300.7 86.25 346.9 86.1 347.15 86.25 347.25 86.25 348.85 85.95 349.2 86.25 349.4 86.25 368.3 86.15 368.35 86.15 369.55 86.25 369.5 86.25 372.9 86.3 373.2 86.55 377.45 86.45 378.3 86.25 379.1 86.25 395.7 86.1 395.8 86.25 396.05 86.2 403.85 86.15 403.9 86.15 404.65 86.2 404.65 86.2 411.1 86.25 420.55 86.25 422.05 86.2 422.05 86.35 422.9 86.25 423.65 86.25 432.65 86.3 445.5 86.15 451.3 86.1 455.8 86.3 457.85 86.3 459.65 86.1 460.4 86.15 462.35 86.1 463.65 86.15 463.8 Q86.35 464.55 86.35 468.05 L86.35 468.1 Q85.45 470.6 83.3 472.6 80.1 475.6 76.3 476.15 L76.3 472.85 76.2 472.85 76.5 440.8 76.5 420.55 76.5 418.45 76.3 322.8 Q76.8 316.8 76.75 307.65 76.7 293.35 77.85 286.4 79.9 274.55 86.55 265.9 94.65 255.5 110.6 248.05 L113.75 248.1 M87.35 468.5 L87.3 468.75 87.25 468.55 87.35 468.5 M20.5 98.0 L16.0 96.15 17.8 96.75 20.5 98.0 M66.65 118.5 L67.9 119.05 68.45 119.15 66.65 118.5 M61.85 141.3 L62.5 141.5 62.4 141.5 61.85 141.3 M80.8 142.95 Q80.75 143.85 80.1 144.55 L79.85 144.85 80.25 144.05 80.8 142.95 M64.1 123.25 Q55.85 119.9 40.95 113.55 28.1 108.25 18.3 105.2 L18.2 105.35 Q22.35 106.85 40.25 114.55 53.75 120.35 64.1 123.25 M38.35 106.3 L39.45 106.75 39.45 106.8 38.35 106.3 M39.85 116.1 L39.25 115.75 Q19.1 107.8 15.45 107.0 L15.45 107.1 39.85 116.1 M82.65 124.05 L81.15 123.2 82.3 123.7 82.95 124.05 82.65 124.05 M77.8 272.6 Q76.75 274.85 75.85 277.25 L75.85 276.75 Q75.85 276.2 77.8 272.6 M71.85 297.2 L71.85 298.6 71.7 298.4 71.85 297.2 M72.65 299.4 L72.65 298.85 Q73.95 290.5 74.8 285.95 76.4 277.2 79.15 271.3 84.2 260.25 95.6 253.4 84.45 261.9 79.3 278.3 76.4 287.45 75.4 299.3 74.8 306.25 74.8 316.9 74.8 324.55 75.3 328.15 L75.5 328.15 Q75.25 361.7 75.15 418.55 L75.15 420.55 75.2 440.75 75.3 468.8 75.4 468.9 75.4 476.25 74.2 476.25 74.0 476.05 73.6 475.95 73.6 476.0 72.65 475.9 72.65 299.6 72.7 299.45 72.65 299.4 M87.55 438.5 L87.35 438.65 87.5 438.85 87.3 439.95 87.3 438.35 87.55 438.35 87.55 438.5" fill="#63452b" fill-rule="evenodd" stroke="none"/>
      <path d="M113.75 159.1 L113.75 171.55 102.1 167.9 76.55 159.35 71.55 157.65 74.7 157.65 70.85 157.2 70.75 157.4 63.05 154.75 67.35 154.65 67.5 154.15 67.2 154.35 62.85 154.4 61.85 154.35 Q56.9 152.6 54.6 151.65 L36.35 144.55 35.6 144.2 34.75 143.9 34.25 143.75 Q21.0 138.75 12.2 136.0 L7.35 134.45 7.35 119.3 16.7 123.2 26.9 127.55 34.55 130.75 39.45 132.75 35.25 132.6 Q33.45 132.75 31.55 133.7 L17.05 133.6 8.7 134.45 8.7 134.65 9.55 134.75 19.45 134.35 18.15 134.7 13.7 135.9 13.55 136.1 15.8 136.35 Q17.65 135.3 18.55 135.0 L21.7 134.25 24.25 134.15 31.55 134.35 35.85 133.95 41.35 133.5 60.55 140.8 61.85 141.3 62.4 141.5 62.5 141.5 62.6 141.55 69.05 143.9 73.15 149.0 Q76.85 154.0 76.85 155.7 76.85 156.35 75.95 157.6 75.95 158.2 76.6 157.7 76.9 157.4 77.2 157.4 L77.25 155.7 Q77.25 153.8 73.55 148.85 71.15 145.65 69.55 144.05 L78.7 147.2 78.35 147.55 80.2 148.3 81.5 148.1 86.2 149.55 87.2 149.95 84.45 149.2 91.7 152.65 Q95.9 154.55 98.1 155.85 L104.55 155.95 113.5 158.95 113.75 159.1 M83.1 148.25 L82.4 148.0 82.45 148.0 83.1 148.25 M82.1 147.85 L82.05 147.85 81.3 147.55 82.1 147.85 M78.85 146.6 L78.85 146.65 78.7 146.6 68.65 143.25 68.35 143.0 68.2 143.0 68.35 143.15 65.1 142.0 Q68.15 142.7 76.95 145.9 L78.85 146.6 M64.6 142.5 L64.45 142.6 Q67.95 146.0 69.85 149.4 L69.95 149.25 Q69.7 147.5 68.15 145.6 66.65 143.75 64.6 142.5 M80.3 147.9 L80.7 147.85 80.9 147.9 80.1 148.0 80.3 147.9 M69.1 152.1 L70.2 151.15 70.1 150.75 69.1 152.1 M113.65 158.45 L112.75 158.15 110.5 157.3 107.8 156.35 109.8 156.95 113.65 158.45 M99.65 155.25 L98.35 155.2 97.65 154.8 99.65 155.25 M110.45 162.75 L110.1 162.85 111.1 163.1 110.45 162.75" fill="#5a3e27" fill-rule="evenodd" stroke="none"/>
      <path d="M7.35 188.4 L7.35 135.35 11.75 136.95 34.65 145.1 44.1 148.6 37.35 148.4 Q33.25 149.95 29.55 152.3 27.3 155.35 24.4 157.45 23.95 161.55 20.9 163.4 L19.7 164.65 Q15.15 175.1 9.55 184.75 L7.35 188.4" fill="#c9c6b8" fill-rule="evenodd" stroke="none"/>
      <path d="M113.75 172.6 L113.75 246.3 109.8 246.35 105.2 247.95 Q90.5 250.45 80.65 267.2 L77.8 272.6 Q75.85 276.2 75.85 276.75 L75.85 277.25 Q74.8 279.95 74.0 282.8 72.7 287.35 72.15 291.25 L71.95 291.25 71.9 294.0 71.85 295.9 71.85 297.1 71.85 297.2 71.7 298.4 71.85 298.6 71.65 339.7 71.75 475.45 70.35 476.0 Q71.25 476.65 72.3 477.05 71.0 478.0 69.05 480.25 L66.05 483.65 63.0 486.95 62.3 488.25 58.2 492.35 53.75 496.5 52.35 497.75 52.35 497.85 49.4 500.8 Q44.5 505.8 40.45 508.65 36.4 511.55 31.45 516.35 L22.9 524.9 13.1 532.2 7.35 536.9 7.35 188.4 9.55 184.75 Q15.15 175.1 19.7 164.65 L20.9 163.4 Q23.95 161.55 24.4 157.45 27.3 155.35 29.55 152.3 33.25 149.95 37.35 148.4 L44.1 148.6 Q50.45 151.0 54.2 152.75 61.5 156.15 64.05 157.15 68.45 158.8 76.2 160.75 L78.55 161.4 78.6 161.4 78.7 161.45 78.85 161.5 78.9 161.5 87.3 164.1 91.1 165.7 98.65 168.0 100.95 168.75 113.75 172.6 M52.5 285.65 L52.5 282.25 52.45 285.55 52.5 285.65 M74.2 476.25 L73.95 476.25 73.65 476.0 73.6 476.0 73.6 475.95 74.0 476.05 74.2 476.25 M72.65 299.6 L72.65 299.4 72.7 299.45 72.65 299.6" fill="#dddac8" fill-rule="evenodd" stroke="none"/>
      <path d="M113.75 141.15 L113.75 142.55 104.85 139.35 Q100.3 137.5 94.2 131.9 L92.9 130.75 93.35 130.9 93.35 130.7 85.35 125.7 82.65 124.05 82.95 124.05 89.5 127.0 89.8 127.45 90.5 127.9 99.35 133.7 Q104.0 136.85 109.1 139.1 L113.75 141.15 M86.2 127.05 L88.35 128.4 88.4 128.45 88.75 128.65 Q91.1 130.1 93.6 132.3 L88.25 128.6 86.2 127.05 M102.05 138.75 L105.3 140.2 105.5 140.3 103.8 139.8 Q102.75 139.5 102.05 138.75 M107.65 141.1 L108.0 141.25 107.7 141.2 107.65 141.1" fill="#745032" fill-rule="evenodd" stroke="none"/>
      <path d="M99.35 268.05 L99.25 268.15 99.35 268.0 99.35 268.05" fill="#aaa99c" fill-rule="evenodd" stroke="none"/>
      <path d="M89.4 438.45 L89.4 438.75 87.3 440.05 87.3 439.95 87.5 438.85 87.35 438.65 87.55 438.5 87.65 438.4 87.65 438.35 89.4 438.45" fill="#917a5e" fill-rule="evenodd" stroke="none"/>
    </g>
  </defs>
</svg>
