<?xml version="1.0" encoding="UTF-8" standalone="no"?>
<svg xmlns:ffdec="https://www.free-decompiler.com/flash" xmlns:xlink="http://www.w3.org/1999/xlink" ffdec:objectType="frame" height="443.65px" width="221.05px" xmlns="http://www.w3.org/2000/svg">
  <g transform="matrix(1.0, 0.0, 0.0, 1.0, 103.3, 268.4)">
    <use ffdec:characterId="2350" height="443.65" transform="matrix(1.0, 0.0, 0.0, 1.0, -103.3, -268.4)" width="221.05" xlink:href="#shape0"/>
  </g>
  <defs>
    <g id="shape0" transform="matrix(1.0, 0.0, 0.0, 1.0, 103.3, 268.4)">
      <path d="M-75.0 131.05 L-75.0 109.25 Q-74.55 108.1 -74.55 106.3 L-74.75 104.8 -74.9 104.8 -74.7 103.95 Q-73.85 100.05 -73.85 97.35 -73.85 96.4 -75.0 95.0 L-75.0 51.95 Q-92.1 57.55 -103.3 59.9 L-75.0 49.95 -75.0 -195.6 Q-76.1 -196.0 -76.1 -196.7 -76.1 -198.4 -75.0 -199.45 L-75.0 -203.95 -76.1 -203.9 Q-76.15 -205.25 -76.55 -206.6 L-75.0 -206.45 -75.0 -268.3 -62.75 -267.55 Q-57.3 -266.8 -48.05 -264.85 -39.25 -264.1 -26.6 -257.25 -12.1 -249.3 5.65 -234.5 L5.65 -234.55 5.85 -234.55 Q6.5 -233.65 7.85 -232.4 L8.1 -232.45 8.55 -232.1 8.9 -232.05 9.6 -231.5 9.5 -231.25 Q24.2 -218.6 36.35 -205.55 L45.55 -192.05 46.3 -191.0 46.25 -188.25 Q46.6 -167.35 48.3 -146.65 L48.3 -146.55 48.25 -141.0 Q48.25 -134.75 49.55 -106.65 48.7 -105.4 48.7 -104.3 48.7 -103.7 49.75 -101.8 L50.2 -92.25 52.35 -48.8 52.35 -21.75 52.65 -21.75 Q52.2 -21.05 52.2 -20.1 L52.6 -18.8 52.35 -18.7 52.35 -17.45 Q52.6 -11.05 53.5 -1.15 L54.9 15.0 54.9 22.5 Q65.05 26.4 74.1 28.9 76.25 29.8 77.15 31.1 L77.3 31.3 77.4 31.5 77.85 32.7 77.95 32.7 78.15 33.2 78.5 34.95 78.35 34.35 76.5 32.6 Q76.05 32.8 75.9 33.0 75.6 33.35 75.6 34.75 L75.85 36.6 76.15 37.55 74.7 33.4 Q72.8 28.0 63.1 27.4 L56.8 27.0 Q54.75 26.7 54.25 25.8 L53.95 26.7 53.2 27.55 53.1 27.15 Q46.5 30.0 40.95 30.95 L41.5 32.0 Q40.65 32.85 40.65 34.3 L43.55 46.05 Q46.85 57.65 48.65 57.65 L49.15 57.65 49.7 58.0 Q51.45 59.1 53.7 59.55 L57.45 61.3 51.8 60.55 Q51.1 59.4 49.25 59.75 L48.6 59.95 Q47.9 60.15 47.45 60.5 L46.35 59.05 43.65 61.4 Q37.5 62.1 21.05 70.55 12.35 75.05 4.55 79.95 -1.6 82.8 -8.7 86.45 -19.5 92.0 -25.1 95.4 L-31.15 97.15 Q-36.4 99.1 -36.7 102.2 -37.8 102.45 -37.8 104.1 L-34.0 111.7 -31.1 120.05 -27.55 129.55 -28.75 130.15 -29.95 126.95 Q-32.0 121.2 -32.0 119.75 -32.0 117.85 -35.25 111.1 -37.6 106.25 -39.6 104.3 L-39.6 103.4 Q-44.65 99.9 -58.75 102.5 L-60.6 102.9 -63.85 102.2 Q-68.05 101.65 -70.75 102.8 -73.4 103.85 -73.75 106.35 L-73.85 107.25 -73.65 108.6 Q-73.1 110.1 -71.65 110.5 L-71.65 130.85 -75.0 131.05 M-7.8 -201.8 L-6.65 -201.15 -1.0 -194.55 Q6.8 -185.75 11.55 -181.85 L12.45 -179.8 Q14.2 -176.55 17.2 -176.55 18.85 -176.55 21.15 -177.8 L21.25 -177.8 Q27.8 -177.8 34.5 -183.95 38.25 -187.4 39.6 -189.65 L42.1 -192.35 Q38.1 -197.65 31.1 -205.9 15.85 -224.0 12.05 -227.2 L8.4 -230.2 8.0 -230.0 7.85 -229.95 Q7.8 -221.25 4.95 -216.35 2.65 -212.5 -2.25 -208.6 0.0 -211.1 2.25 -214.95 4.25 -218.45 5.85 -222.45 7.15 -225.7 7.15 -226.35 7.15 -229.4 6.3 -230.0 L6.3 -230.3 5.0 -231.8 Q4.1 -232.95 3.7 -234.0 L-3.5 -239.65 Q-10.9 -245.2 -16.55 -248.65 -19.4 -250.4 -35.8 -256.0 -44.3 -258.9 -49.35 -261.0 L-60.25 -261.9 -72.15 -263.15 -72.15 -261.95 -72.15 -222.25 -72.15 -215.05 Q-67.15 -217.25 -61.25 -217.95 L-60.85 -218.0 -59.45 -217.7 -56.85 -217.2 -37.0 -215.75 Q-31.95 -214.35 -26.7 -212.25 L-26.2 -212.05 -20.9 -209.75 -20.45 -209.45 -12.6 -204.6 -10.85 -204.35 -10.7 -204.5 -10.05 -204.45 -7.75 -204.8 -10.3 -203.25 -8.8 -202.35 -7.8 -201.8 M45.0 -158.65 L44.8 -163.8 44.75 -164.75 44.25 -178.65 Q44.25 -181.75 43.4 -187.55 43.3 -189.15 43.45 -190.55 L42.7 -191.6 Q40.3 -187.85 34.9 -183.55 26.75 -177.0 18.45 -176.1 L16.7 -176.4 Q15.7 -176.2 15.45 -174.9 15.3 -174.35 15.3 -173.65 L16.0 -170.6 15.8 -168.5 Q15.8 -163.25 17.65 -140.55 L17.85 -138.05 17.75 -135.25 17.5 -112.05 17.95 -106.6 18.7 -100.7 18.85 -99.8 18.9 -99.55 18.9 -98.5 19.95 -98.5 Q21.3 -97.65 24.05 -97.65 31.05 -97.65 36.65 -99.65 38.95 -100.45 40.5 -101.4 L41.0 -101.55 Q43.65 -102.3 45.6 -105.3 46.85 -107.25 47.7 -107.9 L46.9 -138.65 Q46.6 -146.95 45.05 -157.6 L45.0 -158.65 M10.2 -179.85 Q5.15 -187.65 -1.85 -194.55 -6.75 -199.4 -11.85 -203.05 L-13.3 -202.9 -24.85 -199.3 -27.0 -198.6 -44.45 -192.8 Q-33.65 -190.2 -29.1 -188.0 L-27.0 -186.4 -24.85 -184.75 -21.0 -181.9 -9.5 -169.9 -9.5 -169.6 2.75 -172.65 13.15 -174.9 10.2 -179.85 M4.35 -171.2 L0.95 -171.35 Q-2.3 -171.15 -4.5 -169.9 L-6.05 -168.7 -8.2 -168.6 -9.5 -168.7 Q-9.4 -155.45 -8.35 -139.85 L-7.3 -127.35 -7.05 -119.75 -7.0 -99.4 9.2 -98.8 17.4 -98.2 17.2 -98.5 17.8 -98.5 17.35 -107.05 17.0 -112.25 17.0 -116.85 15.85 -143.9 14.55 -171.0 Q14.5 -172.1 13.5 -174.25 L4.35 -171.2 M47.75 -105.85 L47.75 -106.05 47.7 -105.85 47.75 -105.85 M49.85 -43.2 L49.85 -48.25 48.25 -76.25 48.3 -85.45 47.85 -102.0 46.0 -101.2 44.7 -101.1 44.6 -101.1 Q41.05 -98.95 30.3 -97.45 L24.1 -96.65 20.1 -96.3 18.9 -96.9 18.9 -63.85 Q20.25 -35.95 21.3 -18.3 L22.5 -18.55 22.5 -18.5 Q23.8 -16.85 28.4 -16.85 34.8 -16.85 41.25 -19.55 L42.75 -19.75 Q44.5 -20.05 47.45 -21.4 L50.6 -22.75 49.95 -33.5 49.85 -35.05 49.85 -43.2 M4.25 -97.3 L-3.05 -97.8 -5.3 -98.05 -7.0 -98.3 -7.0 -88.8 Q-7.0 -72.1 -6.35 -63.45 L-6.35 -61.05 -6.3 -60.85 -6.3 -46.65 -6.65 -45.3 -6.65 -18.95 -6.45 -18.9 20.4 -18.35 20.15 -24.35 19.05 -52.75 18.5 -55.8 18.55 -66.05 Q18.55 -81.9 17.85 -97.4 13.1 -97.6 4.25 -97.3 M-5.6 26.2 L-1.2 26.3 6.8 26.65 20.1 25.5 20.1 25.1 20.35 13.1 20.9 -4.95 20.95 -4.95 20.45 -16.8 19.75 -16.85 19.7 -17.05 -6.65 -17.2 -6.65 -2.1 Q-6.2 -0.25 -6.05 4.5 L-5.9 8.3 -6.0 12.3 Q-5.65 19.65 -5.65 25.2 L-5.65 25.6 -5.75 26.2 -5.6 26.2 M21.4 -16.75 L21.65 -12.75 Q21.25 -5.05 21.25 7.0 21.25 12.55 21.8 17.85 L22.35 21.6 22.3 22.8 22.3 25.55 Q22.75 27.9 24.9 28.05 L25.7 28.4 Q26.25 28.85 27.2 29.1 L36.4 29.8 Q42.2 29.8 46.1 27.9 47.55 27.2 48.5 26.35 L49.65 25.8 Q51.3 25.0 52.6 24.5 L51.95 19.8 52.05 18.9 52.05 11.9 50.8 -18.8 49.6 -19.45 48.45 -20.15 Q47.0 -19.4 44.9 -18.65 38.55 -16.35 29.8 -16.35 L21.4 -16.75 M50.65 -21.7 L50.65 -21.75 50.6 -21.7 50.65 -21.7 M83.75 68.25 L84.05 67.8 84.2 67.55 83.9 67.55 Q82.5 67.55 74.65 65.5 L84.35 66.65 84.35 66.35 85.0 65.85 84.6 66.15 85.05 67.5 83.75 68.25 M-19.2 90.05 L1.25 79.85 45.65 57.6 Q44.6 55.2 44.2 51.8 L43.9 49.1 42.25 44.4 Q39.2 35.15 39.2 32.7 39.2 31.6 39.5 31.15 L36.0 31.35 30.25 31.1 25.85 30.85 24.8 30.15 23.65 30.5 Q23.15 30.7 22.85 30.85 L22.8 31.15 Q22.3 31.5 21.6 31.65 L21.0 31.05 10.3 34.85 Q17.95 31.4 18.8 28.6 L18.9 27.9 Q18.9 26.85 18.55 26.65 L18.2 26.4 13.7 27.8 13.6 27.8 13.25 27.75 12.3 27.6 7.85 27.1 0.0 27.95 -7.85 28.75 -8.4 28.75 -8.9 28.75 Q-9.85 28.75 -15.2 30.55 L-23.4 33.35 -25.7 34.2 Q-33.8 37.1 -45.75 41.55 L-53.55 44.45 -55.65 45.2 -71.65 50.8 -71.65 56.35 -71.65 58.25 Q-73.15 59.45 -73.15 60.35 -73.3 61.35 -72.85 62.15 L-71.8 63.2 -69.1 63.75 Q-65.65 63.75 -56.15 59.95 -59.5 62.25 -65.4 64.7 -68.95 66.15 -71.65 67.0 L-71.65 73.0 -71.65 98.65 -71.65 102.05 -61.6 101.2 Q-44.9 101.1 -38.95 98.85 -38.0 98.5 -37.3 98.05 L-36.4 98.0 -35.9 98.4 -35.75 98.3 -35.15 98.05 -24.3 92.6 -19.2 90.05 M-69.8 -198.7 L-69.85 -198.7 -69.15 -198.3 -68.45 -197.95 Q-65.95 -196.85 -59.2 -196.15 L-58.55 -196.05 -57.45 -195.75 -52.95 -194.7 -47.05 -193.4 Q-39.7 -196.2 -27.0 -200.15 L-24.85 -200.85 -13.55 -204.25 Q-19.7 -208.4 -26.0 -210.85 L-27.0 -211.2 Q-31.8 -212.95 -36.75 -213.75 -44.15 -215.7 -59.4 -215.95 L-61.2 -216.0 -64.1 -216.0 Q-67.2 -216.0 -69.0 -214.25 L-72.15 -213.05 -72.15 -212.5 -72.15 -208.1 Q-72.85 -207.3 -72.85 -205.15 -72.85 -203.05 -72.15 -201.5 L-72.15 -200.9 -71.85 -200.95 Q-71.15 -199.65 -69.8 -198.7 M-13.45 28.5 L-9.95 27.25 -9.95 26.8 Q-8.25 26.05 -7.4 23.45 -6.65 21.25 -6.65 18.2 L-6.85 16.2 -7.35 14.75 -7.35 -47.3 -7.8 -95.1 Q-8.2 -122.85 -9.6 -142.95 L-10.1 -155.15 Q-10.3 -162.85 -10.75 -167.35 L-11.2 -167.3 -11.1 -167.5 -11.1 -168.4 Q-11.1 -171.05 -16.05 -176.5 L-19.45 -179.1 Q-22.4 -181.35 -24.85 -183.0 L-27.0 -184.4 Q-29.65 -186.05 -31.65 -186.8 -44.75 -191.75 -57.45 -193.75 L-59.2 -194.0 -64.95 -194.65 -72.15 -195.15 -72.15 -188.45 -72.15 -145.6 -72.0 -144.95 -72.0 -118.0 -71.8 -117.4 -71.8 40.3 -71.65 40.85 -71.65 45.35 -71.65 48.8 -55.8 43.25 -53.6 42.45 -25.7 32.75 -23.35 31.95 -13.45 28.5 M-25.55 46.5 L-23.65 45.7 -22.65 45.3 -7.3 41.05 -23.7 46.95 -25.5 47.6 -41.4 53.55 -25.55 46.5 M-42.75 101.45 L-42.0 101.5 -41.2 101.1 -42.75 101.45" fill="#919b6a" fill-rule="evenodd" stroke="none"/>
      <path d="M-73.75 106.35 Q-73.4 103.85 -70.75 102.8 -68.05 101.65 -63.85 102.2 L-60.6 102.9 -58.75 102.5 Q-44.65 99.9 -39.6 103.4 L-39.6 104.3 Q-37.6 106.25 -35.25 111.1 -32.0 117.85 -32.0 119.75 -32.0 121.2 -29.95 126.95 L-28.75 130.15 -28.35 131.0 -28.3 131.1 -29.65 131.95 -71.65 134.8 -71.65 133.75 -71.65 132.0 Q-63.6 130.6 -54.5 130.6 -51.75 130.6 -44.45 129.1 L-33.75 126.5 Q-36.8 106.1 -48.2 106.1 L-69.8 107.5 Q-72.45 107.5 -73.75 106.35 M-27.55 129.55 L-31.1 120.05 -34.0 111.7 -37.8 104.1 Q-37.8 102.45 -36.7 102.2 -36.4 99.1 -31.15 97.15 L-25.1 95.4 Q-19.5 92.0 -8.7 86.45 -1.6 82.8 4.55 79.95 12.35 75.05 21.05 70.55 37.5 62.1 43.65 61.4 L46.35 59.05 47.45 60.5 Q47.9 60.15 48.6 59.95 L49.25 59.75 Q51.1 59.4 51.8 60.55 L57.45 61.3 53.7 59.55 Q51.45 59.1 49.7 58.0 L49.15 57.65 48.65 57.65 Q46.85 57.65 43.55 46.05 L40.65 34.3 Q40.65 32.85 41.5 32.0 L40.95 30.95 Q46.5 30.0 53.1 27.15 L53.2 27.55 53.95 26.7 54.25 25.8 Q54.75 26.7 56.8 27.0 L63.1 27.4 Q72.8 28.0 74.7 33.4 L76.15 37.55 77.4 41.0 78.05 42.7 78.4 43.75 82.1 54.6 Q84.6 61.9 85.1 64.25 85.55 64.55 85.55 65.15 L85.55 65.25 85.3 65.6 85.0 65.85 84.35 66.35 84.35 66.65 74.65 65.5 Q82.5 67.55 83.9 67.55 L84.2 67.55 84.05 67.8 83.75 68.25 81.9 70.05 Q74.0 76.65 40.65 94.5 30.15 101.85 23.1 104.25 L23.05 104.25 Q12.2 110.7 1.45 115.9 L-3.0 118.2 Q1.75 115.3 7.5 111.3 L23.1 100.15 Q31.25 94.4 34.35 92.9 51.1 85.05 65.15 77.75 70.1 75.2 71.5 68.8 65.65 67.55 59.25 65.2 L54.05 63.05 40.85 68.15 Q20.3 75.85 9.35 81.45 L-15.9 93.7 Q-35.4 103.25 -35.4 104.55 -25.7 126.0 -21.4 126.0 -16.3 126.0 -5.25 119.55 L-6.0 120.05 -23.15 130.25 -23.3 130.3 -23.55 130.45 -23.65 130.5 -24.35 130.8 -24.5 130.9 -25.15 131.2 -25.75 131.45 -25.85 131.5 -26.15 131.6 -26.35 131.65 -26.7 131.75 -27.55 129.55 M-3.5 -239.65 L3.7 -234.0 Q4.1 -232.95 5.0 -231.8 L6.3 -230.3 6.3 -230.0 Q7.15 -229.4 7.15 -226.35 7.15 -225.7 5.85 -222.45 4.25 -218.45 2.25 -214.95 0.0 -211.1 -2.25 -208.6 2.65 -212.5 4.95 -216.35 7.8 -221.25 7.85 -229.95 L8.0 -230.0 8.4 -230.2 12.05 -227.2 Q15.85 -224.0 31.1 -205.9 38.1 -197.65 42.1 -192.35 L39.6 -189.65 Q38.25 -187.4 34.5 -183.95 27.8 -177.8 21.25 -177.8 L21.15 -177.8 Q18.85 -176.55 17.2 -176.55 14.2 -176.55 12.45 -179.8 L11.55 -181.85 Q6.8 -185.75 -1.0 -194.55 L-6.65 -201.15 -7.8 -201.8 -7.9 -202.65 -6.75 -203.1 -8.8 -202.35 -10.3 -203.25 -7.75 -204.8 -10.05 -204.45 -10.7 -204.5 -10.85 -204.35 -12.6 -204.6 -20.45 -209.45 -20.9 -209.75 -26.2 -212.05 -26.7 -212.25 Q-31.95 -214.35 -37.0 -215.75 L-56.85 -217.2 -59.45 -217.7 -60.85 -218.0 -61.25 -217.95 Q-67.15 -217.25 -72.15 -215.05 L-72.15 -222.25 -62.65 -222.85 -61.35 -222.85 -59.55 -222.8 Q-44.2 -222.2 -28.85 -215.95 L-17.85 -211.25 Q-12.55 -209.1 -9.5 -209.1 -4.15 -209.1 -0.7 -217.4 1.75 -223.35 1.75 -226.6 1.75 -233.8 -3.5 -239.65 M9.85 -225.65 Q9.85 -219.2 4.05 -211.5 -1.75 -204.95 -1.75 -204.05 -1.75 -202.25 8.25 -190.75 18.6 -178.85 21.6 -178.85 26.25 -178.85 32.7 -184.1 38.55 -188.9 38.55 -190.8 38.55 -195.35 24.5 -212.05 17.45 -220.5 9.7 -228.8 L9.7 -228.6 9.85 -225.65 M45.05 -157.6 Q46.6 -146.95 46.9 -138.65 L47.7 -107.9 Q46.85 -107.25 45.6 -105.3 43.65 -102.3 41.0 -101.55 L40.5 -101.4 Q38.95 -100.45 36.65 -99.65 31.05 -97.65 24.05 -97.65 21.3 -97.65 19.95 -98.5 L18.9 -98.5 18.9 -99.55 18.85 -99.8 18.7 -100.7 17.95 -106.6 17.5 -112.05 17.75 -135.25 17.85 -138.05 17.65 -140.55 Q15.8 -163.25 15.8 -168.5 L16.0 -170.6 15.3 -173.65 Q15.3 -174.35 15.45 -174.9 15.7 -176.2 16.7 -176.4 L18.45 -176.1 Q26.75 -177.0 34.9 -183.55 40.3 -187.85 42.7 -191.6 L43.45 -190.55 Q43.3 -189.15 43.4 -187.55 44.25 -181.75 44.25 -178.65 L44.75 -164.75 44.8 -163.8 45.0 -158.65 45.05 -157.95 Q43.75 -177.7 42.0 -186.25 26.25 -179.25 22.25 -169.85 20.7 -166.25 20.45 -161.25 L20.45 -152.25 21.6 -125.7 Q20.65 -117.05 21.2 -111.5 22.25 -100.95 30.25 -100.95 39.85 -100.95 44.25 -109.15 46.5 -113.3 46.8 -117.6 46.8 -125.7 45.7 -146.6 L45.05 -157.6 M49.95 -33.5 L50.6 -22.75 47.45 -21.4 Q44.5 -20.05 42.75 -19.75 L41.25 -19.55 Q34.8 -16.85 28.4 -16.85 23.8 -16.85 22.5 -18.5 L22.5 -18.55 21.3 -18.3 Q20.25 -35.95 18.9 -63.85 L18.9 -96.9 20.1 -96.3 24.1 -96.65 30.3 -97.45 Q41.05 -98.95 44.6 -101.1 L44.7 -101.1 46.0 -101.2 47.85 -102.0 48.3 -85.45 48.25 -76.25 49.85 -48.25 49.85 -43.2 48.9 -54.6 Q47.85 -65.45 48.1 -71.65 48.35 -77.05 47.95 -88.35 47.95 -94.3 45.35 -95.8 40.4 -98.65 24.5 -93.45 23.75 -91.75 23.2 -85.25 L22.8 -78.3 23.4 -52.9 23.95 -23.45 Q23.95 -22.15 25.85 -20.45 28.4 -18.25 32.25 -18.25 44.45 -18.25 48.45 -27.8 49.6 -30.55 49.95 -33.5 M21.4 -16.75 L29.8 -16.35 Q38.55 -16.35 44.9 -18.65 47.0 -19.4 48.45 -20.15 L49.6 -19.45 50.8 -18.8 52.05 11.9 52.05 18.9 51.95 19.8 52.6 24.5 Q51.3 25.0 49.65 25.8 L48.5 26.35 Q47.55 27.2 46.1 27.9 42.2 29.8 36.4 29.8 L27.2 29.1 Q26.25 28.85 25.7 28.4 L24.9 28.05 Q22.75 27.9 22.3 25.55 L22.3 22.8 22.35 21.6 21.8 17.85 Q21.25 12.55 21.25 7.0 21.25 -5.05 21.65 -12.75 L21.4 -16.75 M44.7 -15.6 Q38.45 -13.8 25.9 -12.95 L24.3 15.65 Q24.3 18.45 25.55 21.8 27.2 26.15 30.1 28.05 43.85 32.0 48.8 19.75 51.15 14.0 51.15 5.3 L50.5 -4.0 Q49.8 -13.25 49.7 -17.55 47.9 -16.55 44.7 -15.6 M18.8 28.6 Q17.95 31.4 10.3 34.85 L21.0 31.05 21.6 31.65 Q22.3 31.5 22.8 31.15 L22.85 30.85 Q23.15 30.7 23.65 30.5 L24.8 30.15 25.85 30.85 30.25 31.1 36.0 31.35 39.5 31.15 Q39.2 31.6 39.2 32.7 39.2 35.15 42.25 44.4 L43.9 49.1 44.2 51.8 Q44.6 55.2 45.65 57.6 L1.25 79.85 -19.2 90.05 -15.6 86.6 Q-12.1 83.0 -4.45 79.95 9.45 74.45 23.8 67.45 43.2 58.05 43.2 55.0 43.2 37.55 26.65 35.95 9.65 34.35 -23.8 49.55 L-25.35 50.3 -29.45 52.2 Q-42.8 56.5 -52.85 61.35 L-55.15 62.45 Q-65.1 67.45 -71.65 73.0 L-71.65 67.0 Q-68.95 66.15 -65.4 64.7 -59.5 62.25 -56.15 59.95 -65.65 63.75 -69.1 63.75 L-71.8 63.2 Q-67.65 60.85 -62.35 58.45 L-55.1 55.35 -53.1 54.55 -46.05 51.75 -32.35 46.45 -25.65 44.05 -23.6 43.35 -3.2 35.8 Q2.5 33.6 6.8 31.2 L1.0 30.55 -2.55 30.15 14.05 29.0 18.8 28.6 M-24.3 92.6 L-35.15 98.05 -35.75 98.3 -35.9 98.4 -36.4 98.0 -37.3 98.05 Q-38.0 98.5 -38.95 98.85 -44.9 101.1 -61.6 101.2 L-71.65 102.05 -71.65 98.65 Q-35.4 95.75 -24.3 92.6 M47.35 49.0 Q52.8 62.3 76.35 62.3 L80.3 62.1 80.5 61.65 80.5 60.1 Q80.5 57.65 79.0 52.05 76.95 44.3 73.55 38.85 63.2 22.15 44.95 33.5 45.4 34.0 45.55 39.25 45.75 45.15 47.35 49.0 M-15.2 30.55 L-14.4 31.25 -8.3 30.65 -23.4 35.1 -25.7 35.75 Q-43.3 41.05 -50.55 43.9 L-53.5 45.25 -55.5 46.3 Q-60.45 49.0 -67.95 53.95 L-71.65 56.35 -71.65 50.8 -55.65 45.2 -53.55 44.45 -45.75 41.55 Q-33.8 37.1 -25.7 34.2 L-23.4 33.35 -15.2 30.55 M-72.15 -261.95 L-72.15 -263.15 -60.25 -261.9 -49.35 -261.0 Q-44.3 -258.9 -35.8 -256.0 -19.4 -250.4 -16.55 -248.65 -26.2 -253.2 -40.9 -256.35 -51.55 -258.7 -70.2 -261.6 L-72.15 -261.95 M-25.55 46.5 L-41.4 53.55 -25.5 47.6 -23.7 46.95 -7.3 41.05 -22.65 45.3 -23.65 45.7 -25.55 46.5" fill="#fbfbf4" fill-rule="evenodd" stroke="none"/>
      <path d="M-71.65 130.85 L-71.65 110.5 Q-73.1 110.1 -73.65 108.6 L-73.85 107.25 -73.75 106.35 Q-72.45 107.5 -69.8 107.5 L-48.2 106.1 Q-36.8 106.1 -33.75 126.5 L-44.45 129.1 Q-51.75 130.6 -54.5 130.6 -63.6 130.6 -71.65 132.0 L-71.65 130.85 M-3.5 -239.65 Q1.75 -233.8 1.75 -226.6 1.75 -223.35 -0.7 -217.4 -4.15 -209.1 -9.5 -209.1 -12.55 -209.1 -17.85 -211.25 L-28.85 -215.95 Q-44.2 -222.2 -59.55 -222.8 L-61.35 -222.85 -62.65 -222.85 -72.15 -222.25 -72.15 -261.95 -70.2 -261.6 Q-51.55 -258.7 -40.9 -256.35 -26.2 -253.2 -16.55 -248.65 -10.9 -245.2 -3.5 -239.65 M-8.8 -202.35 L-6.75 -203.1 -7.9 -202.65 -7.8 -201.8 -8.8 -202.35 M9.85 -225.65 L9.7 -228.6 9.7 -228.8 Q17.45 -220.5 24.5 -212.05 38.55 -195.35 38.55 -190.8 38.55 -188.9 32.7 -184.1 26.25 -178.85 21.6 -178.85 18.6 -178.85 8.25 -190.75 -1.75 -202.25 -1.75 -204.05 -1.75 -204.95 4.05 -211.5 9.85 -219.2 9.85 -225.65 M45.05 -157.6 L45.7 -146.6 Q46.8 -125.7 46.8 -117.6 46.5 -113.3 44.25 -109.15 39.85 -100.95 30.25 -100.95 22.25 -100.95 21.2 -111.5 20.65 -117.05 21.6 -125.7 L20.45 -152.25 20.45 -161.25 Q20.7 -166.25 22.25 -169.85 26.25 -179.25 42.0 -186.25 43.75 -177.7 45.05 -157.95 L45.0 -158.65 45.05 -157.6 M49.95 -33.5 Q49.6 -30.55 48.45 -27.8 44.45 -18.25 32.25 -18.25 28.4 -18.25 25.85 -20.45 23.95 -22.15 23.95 -23.45 L23.4 -52.9 22.8 -78.3 23.2 -85.25 Q23.75 -91.75 24.5 -93.45 40.4 -98.65 45.35 -95.8 47.95 -94.3 47.95 -88.35 48.35 -77.05 48.1 -71.65 47.85 -65.45 48.9 -54.6 L49.85 -43.2 49.85 -35.05 49.95 -33.5 M44.7 -15.6 Q47.9 -16.55 49.7 -17.55 49.8 -13.25 50.5 -4.0 L51.15 5.3 Q51.15 14.0 48.8 19.75 43.85 32.0 30.1 28.05 27.2 26.15 25.55 21.8 24.3 18.45 24.3 15.65 L25.9 -12.95 Q38.45 -13.8 44.7 -15.6 M-3.0 118.2 L-3.65 118.55 -6.0 120.05 -5.25 119.55 Q-16.3 126.0 -21.4 126.0 -25.7 126.0 -35.4 104.55 -35.4 103.25 -15.9 93.7 L9.35 81.45 Q20.3 75.85 40.85 68.15 L54.05 63.05 59.25 65.2 Q65.65 67.55 71.5 68.8 70.1 75.2 65.15 77.75 51.1 85.05 34.35 92.9 31.25 94.4 23.1 100.15 L7.5 111.3 Q1.75 115.3 -3.0 118.2 M-2.55 30.15 L1.0 30.55 6.8 31.2 Q2.5 33.6 -3.2 35.8 L-23.6 43.35 -25.65 44.05 -32.35 46.45 -46.05 51.75 -53.1 54.55 -55.1 55.35 -62.35 58.45 Q-67.65 60.85 -71.8 63.2 L-72.85 62.15 Q-73.3 61.35 -73.15 60.35 -73.15 59.45 -71.65 58.25 L-71.65 56.35 -67.95 53.95 Q-60.45 49.0 -55.5 46.3 L-53.5 45.25 -50.55 43.9 Q-43.3 41.05 -25.7 35.75 L-23.4 35.1 -8.3 30.65 -8.25 30.65 -7.6 30.45 -5.65 29.9 -5.55 29.9 -5.5 29.9 -5.4 29.9 -5.0 29.95 -4.95 29.95 -4.35 30.0 -2.8 30.15 -2.55 30.15 M-71.65 73.0 Q-65.1 67.45 -55.15 62.45 L-52.85 61.35 Q-42.8 56.5 -29.45 52.2 L-25.35 50.3 -23.8 49.55 Q9.65 34.35 26.65 35.95 43.2 37.55 43.2 55.0 43.2 58.05 23.8 67.45 9.45 74.45 -4.45 79.95 -12.1 83.0 -15.6 86.6 L-19.2 90.05 -24.3 92.6 Q-35.4 95.75 -71.65 98.65 L-71.65 73.0 M47.35 49.0 Q45.75 45.15 45.55 39.25 45.4 34.0 44.95 33.5 63.2 22.15 73.55 38.85 76.95 44.3 79.0 52.05 80.5 57.65 80.5 60.1 L80.5 61.65 80.3 62.1 76.35 62.3 Q52.8 62.3 47.35 49.0 M13.25 27.75 L12.3 27.65 12.3 27.6 13.25 27.75 M-28.3 131.1 L-27.95 131.85 -29.65 131.95 -28.3 131.1" fill="#e8e7ca" fill-rule="evenodd" stroke="none"/>
      <path d="M-28.75 130.15 L-27.55 129.55 -26.7 131.75 -26.35 131.65 -26.15 131.6 -25.85 131.5 -25.75 131.45 -25.15 131.2 -24.5 130.9 -24.35 130.8 -23.65 130.5 -23.55 130.45 -23.3 130.3 -23.15 130.25 -6.0 120.05 -3.65 118.55 -3.0 118.2 1.45 115.9 Q12.2 110.7 23.05 104.25 L23.1 104.25 Q30.15 101.85 40.65 94.5 74.0 76.65 81.9 70.05 L83.75 68.25 85.05 67.5 84.6 66.15 85.0 65.85 85.3 65.6 85.55 65.25 85.55 65.15 Q85.55 64.55 85.1 64.25 84.6 61.9 82.1 54.6 L78.4 43.75 78.05 42.7 77.4 41.0 76.15 37.55 75.85 36.6 75.6 34.75 Q75.6 33.35 75.9 33.0 76.05 32.8 76.5 32.6 L78.35 34.35 78.5 34.95 Q79.45 39.8 81.25 45.65 L81.5 46.4 81.55 46.6 81.6 46.6 Q84.1 50.8 86.1 57.0 L89.25 66.45 90.2 67.3 91.4 69.55 90.9 69.55 88.6 69.8 89.15 70.6 89.4 73.85 Q89.15 74.2 89.15 74.8 L89.2 75.75 87.6 75.5 86.95 75.4 86.85 72.0 86.35 71.6 85.95 70.85 Q42.75 100.3 18.0 111.45 11.05 114.55 -2.1 121.8 L-20.9 132.15 Q-25.2 134.5 -34.1 135.05 L-49.6 135.65 Q-58.35 136.25 -62.55 138.65 -67.95 141.75 -67.95 148.7 L-67.9 149.35 Q-71.05 148.65 -71.55 147.1 L-71.3 143.05 Q-71.2 141.85 -71.45 140.7 -71.1 139.45 -71.55 137.3 L-71.5 137.3 -71.2 137.25 -71.75 137.25 -74.1 137.6 Q-73.35 135.4 -71.65 133.75 L-71.65 134.8 -29.65 131.95 -27.95 131.85 -28.3 131.1 -28.35 131.0 -28.75 130.15 M10.2 -179.85 L13.15 -174.9 2.75 -172.65 -9.5 -169.6 -9.5 -169.9 -21.0 -181.9 -24.85 -184.75 -27.0 -186.4 -29.1 -188.0 Q-33.65 -190.2 -44.45 -192.8 L-27.0 -198.6 -24.85 -199.3 -13.3 -202.9 -11.85 -203.05 Q-6.75 -199.4 -1.85 -194.55 5.15 -187.65 10.2 -179.85 M0.4 -188.35 L-10.2 -198.15 -24.85 -197.35 -27.0 -196.8 -28.1 -196.45 Q-31.0 -195.35 -34.7 -192.9 -32.2 -191.4 -27.0 -187.8 L-24.85 -186.3 -18.65 -181.95 -7.7 -174.2 Q-7.35 -174.2 -1.0 -176.1 5.6 -178.15 6.45 -178.65 6.25 -182.65 0.4 -188.35 M4.35 -171.2 L13.5 -174.25 Q14.5 -172.1 14.55 -171.0 L15.85 -143.9 17.0 -116.85 17.0 -112.25 17.35 -107.05 17.8 -98.5 17.2 -98.5 17.4 -98.2 9.2 -98.8 -7.0 -99.4 -7.05 -119.75 -7.3 -127.35 -8.35 -139.85 Q-9.4 -155.45 -9.5 -168.7 L-8.2 -168.6 -6.05 -168.7 -4.5 -169.9 Q-2.3 -171.15 0.95 -171.35 L4.35 -171.2 M11.9 -159.75 Q11.5 -165.3 9.55 -167.25 5.25 -171.55 -6.65 -165.9 L-6.65 -158.2 Q-5.55 -136.3 -4.45 -123.9 -2.4 -100.95 1.65 -100.95 L5.4 -101.55 12.05 -102.45 Q12.5 -103.2 13.3 -108.6 14.05 -113.85 14.05 -115.5 L13.85 -127.35 13.3 -145.15 12.7 -152.45 11.9 -159.75 M15.95 -84.25 Q15.35 -87.6 12.25 -94.15 0.8 -94.75 -3.0 -90.15 -4.95 -87.8 -4.95 -82.65 L-4.6 -73.2 -3.65 -59.4 -3.65 -25.9 Q-3.15 -25.1 -3.4 -23.75 L-3.55 -21.7 Q-2.95 -19.6 5.65 -19.6 14.95 -19.6 16.8 -26.25 17.75 -29.6 16.8 -32.95 L16.15 -76.0 Q16.15 -82.9 15.95 -84.25 M4.25 -97.3 Q13.1 -97.6 17.85 -97.4 18.55 -81.9 18.55 -66.05 L18.5 -55.8 19.05 -52.75 20.15 -24.35 20.4 -18.35 -6.45 -18.9 -6.65 -18.95 -6.65 -45.3 -6.3 -46.65 -6.3 -60.85 -6.35 -61.05 -6.35 -63.45 Q-7.0 -72.1 -7.0 -88.8 L-7.0 -98.3 -5.3 -98.05 -3.05 -97.8 4.25 -97.3 M14.25 -14.65 Q10.1 -17.65 4.25 -15.4 0.75 -14.7 -1.3 -10.95 -2.8 -8.25 -2.8 -6.35 -2.8 -0.65 -0.85 9.55 1.7 23.1 5.3 23.1 L16.5 22.8 Q17.25 20.3 17.8 16.55 L18.2 11.8 Q17.55 -2.45 17.5 -9.5 17.5 -12.25 14.25 -14.65 M-5.65 25.6 L-5.65 25.2 Q-5.65 19.65 -6.0 12.3 L-5.9 8.3 -6.05 4.5 Q-6.2 -0.25 -6.65 -2.1 L-6.65 -17.2 19.7 -17.05 19.75 -16.85 20.45 -16.8 20.95 -4.95 20.9 -4.95 20.35 13.1 20.1 25.1 20.1 25.5 6.8 26.65 -1.2 26.3 -5.6 26.2 -5.7 25.95 -5.65 25.6 M-24.7 144.15 L-25.65 142.35 -29.55 134.65 Q-25.45 134.05 -22.65 133.0 -21.55 134.75 -21.15 136.65 -21.0 139.15 -19.75 142.8 -22.3 143.65 -24.7 144.15 M18.8 28.6 L14.05 29.0 -2.55 30.15 -2.8 30.15 -4.35 30.0 -4.95 29.95 -5.0 29.95 -5.4 29.9 -5.5 29.9 -5.55 29.9 -5.65 29.9 -7.6 30.45 -8.25 30.65 -8.3 30.65 -14.4 31.25 -15.2 30.55 Q-9.85 28.75 -8.9 28.75 L-8.4 28.75 -7.85 28.75 0.0 27.95 7.85 27.1 12.3 27.6 12.3 27.65 13.25 27.75 13.6 27.8 13.7 27.8 18.2 26.4 18.55 26.65 Q18.9 26.85 18.9 27.9 L18.8 28.6 M-72.15 -212.5 L-72.15 -213.05 -69.0 -214.25 Q-67.2 -216.0 -64.1 -216.0 L-61.2 -216.0 -59.4 -215.95 Q-44.15 -215.7 -36.75 -213.75 -31.8 -212.95 -27.0 -211.2 L-26.0 -210.85 Q-19.7 -208.4 -13.55 -204.25 L-24.85 -200.85 -27.0 -200.15 Q-39.7 -196.2 -47.05 -193.4 L-52.95 -194.7 -57.45 -195.75 -58.55 -196.05 -59.2 -196.15 Q-65.95 -196.85 -68.45 -197.95 L-69.15 -198.3 -69.85 -198.7 -69.8 -198.7 -68.2 -198.45 -59.2 -196.95 -57.45 -196.7 -54.4 -196.35 Q-43.35 -196.35 -31.5 -201.1 L-27.45 -202.8 -25.05 -203.9 -20.8 -206.2 -20.45 -206.85 Q-22.55 -207.75 -25.7 -208.5 L-27.4 -208.95 -36.8 -210.65 -49.0 -212.0 -71.65 -212.5 -72.15 -212.5" fill="#dbe0c5" fill-rule="evenodd" stroke="none"/>
      <path d="M0.4 -188.35 Q6.25 -182.65 6.45 -178.65 5.6 -178.15 -1.0 -176.1 -7.35 -174.2 -7.7 -174.2 L-18.65 -181.95 -24.85 -186.3 -27.0 -187.8 Q-32.2 -191.4 -34.7 -192.9 -31.0 -195.35 -28.1 -196.45 L-27.0 -196.8 -24.85 -197.35 -10.2 -198.15 0.4 -188.35 M11.9 -159.75 L12.7 -152.45 13.3 -145.15 13.85 -127.35 14.05 -115.5 Q14.05 -113.85 13.3 -108.6 12.5 -103.2 12.05 -102.45 L5.4 -101.55 1.65 -100.95 Q-2.4 -100.95 -4.45 -123.9 -5.55 -136.3 -6.65 -158.2 L-6.65 -165.9 Q5.25 -171.55 9.55 -167.25 11.5 -165.3 11.9 -159.75 M15.95 -84.25 Q16.15 -82.9 16.15 -76.0 L16.8 -32.95 Q17.75 -29.6 16.8 -26.25 14.95 -19.6 5.65 -19.6 -2.95 -19.6 -3.55 -21.7 L-3.4 -23.75 Q-3.15 -25.1 -3.65 -25.9 L-3.65 -59.4 -4.6 -73.2 -4.95 -82.65 Q-4.95 -87.8 -3.0 -90.15 0.8 -94.75 12.25 -94.15 15.35 -87.6 15.95 -84.25 M14.25 -14.65 Q17.5 -12.25 17.5 -9.5 17.55 -2.45 18.2 11.8 L17.8 16.55 Q17.25 20.3 16.5 22.8 L5.3 23.1 Q1.7 23.1 -0.85 9.55 -2.8 -0.65 -2.8 -6.35 -2.8 -8.25 -1.3 -10.95 0.75 -14.7 4.25 -15.4 10.1 -17.65 14.25 -14.65 M-67.9 149.35 L-67.95 148.7 Q-67.95 141.75 -62.55 138.65 -58.35 136.25 -49.6 135.65 L-34.1 135.05 Q-25.2 134.5 -20.9 132.15 L-2.1 121.8 Q11.05 114.55 18.0 111.45 42.75 100.3 85.95 70.85 L86.35 71.6 86.85 72.0 86.95 75.4 Q85.7 75.25 84.7 75.4 L84.7 79.6 82.05 77.6 81.0 78.35 81.0 78.75 80.95 79.0 Q78.15 78.5 73.75 83.05 L66.0 91.0 55.0 97.9 Q48.45 102.0 47.45 103.95 46.4 105.3 45.4 105.5 44.2 105.25 43.8 104.35 L36.05 110.4 36.0 110.45 34.1 112.8 33.25 113.1 29.5 116.7 Q23.35 122.25 20.35 122.5 L17.85 123.9 Q13.65 125.9 11.1 125.9 L10.75 125.9 7.9 127.25 4.05 126.55 Q0.6 126.0 -1.2 128.15 L-1.05 128.95 0.85 130.3 -1.75 130.85 Q-5.8 131.75 -7.05 132.55 -6.65 132.7 -6.4 133.15 L-6.05 133.3 -4.1 133.35 -3.75 133.55 Q-3.4 133.7 -3.4 134.75 -3.4 136.2 -5.7 137.3 -7.55 138.15 -9.75 138.3 -11.65 139.4 -14.55 140.7 L-19.75 142.8 Q-21.0 139.15 -21.15 136.65 -21.55 134.75 -22.65 133.0 -25.45 134.05 -29.55 134.65 L-25.65 142.35 -24.7 144.15 -29.3 144.75 Q-30.65 145.3 -31.3 145.3 L-33.2 144.95 -39.25 145.3 -41.15 145.25 -41.2 145.75 -40.95 147.0 -40.3 147.35 -48.95 148.95 Q-51.3 149.6 -52.6 150.4 L-66.95 149.55 -67.9 149.35 M-69.8 -198.7 Q-71.15 -199.65 -71.85 -200.95 L-72.15 -200.9 -72.15 -201.5 Q-72.85 -203.05 -72.85 -205.15 -72.85 -207.3 -72.15 -208.1 L-72.15 -212.5 -71.65 -212.5 -49.0 -212.0 -36.8 -210.65 -27.4 -208.95 -25.7 -208.5 Q-22.55 -207.75 -20.45 -206.85 L-20.8 -206.2 -25.05 -203.9 -27.45 -202.8 -31.5 -201.1 Q-43.35 -196.35 -54.4 -196.35 L-57.45 -196.7 -59.2 -196.95 -68.2 -198.45 -69.8 -198.7" fill="#bac193" fill-rule="evenodd" stroke="none"/>
      <path d="M78.5 34.95 L78.15 33.2 84.2 46.9 85.8 50.55 87.3 54.05 Q90.25 60.95 92.05 66.15 L93.4 67.3 94.7 68.75 93.85 70.25 92.2 71.35 90.95 71.55 91.25 72.1 Q91.7 72.95 91.7 74.1 L91.65 75.15 90.05 78.05 89.9 78.1 89.65 78.2 89.4 78.25 Q88.25 78.4 86.6 77.75 L86.6 79.0 86.45 81.55 85.95 81.8 84.5 82.05 Q83.45 82.05 83.15 81.5 L82.65 80.65 Q80.35 82.35 77.9 84.85 L74.35 87.15 Q76.6 84.0 77.95 83.1 77.15 82.85 76.0 83.75 L76.8 81.75 Q75.65 82.9 73.6 85.55 L70.3 89.9 64.35 94.05 63.9 94.4 Q59.75 97.35 56.9 99.75 L53.0 103.2 53.55 101.35 Q53.55 99.95 53.1 99.85 L52.65 100.0 Q51.35 100.5 47.25 106.45 46.25 107.2 45.3 108.3 L44.6 109.15 43.7 108.8 42.5 107.35 42.4 107.45 42.35 107.5 42.3 107.6 42.25 107.6 42.2 107.65 42.15 107.7 42.1 107.8 42.0 107.9 41.9 107.95 41.9 108.0 41.8 108.05 41.8 108.1 41.65 108.25 41.6 108.25 41.5 108.35 41.4 108.45 41.25 108.6 41.15 108.75 40.95 108.9 40.8 109.05 40.75 109.1 40.7 109.15 40.65 109.2 40.6 109.25 40.5 109.35 39.45 110.45 38.2 111.65 Q35.65 114.25 33.45 115.7 L33.25 116.0 Q27.3 119.0 21.2 123.0 15.3 125.65 12.0 127.45 L10.35 128.4 9.15 128.2 3.2 127.45 Q2.1 127.45 1.9 127.85 L1.9 128.25 2.1 128.8 Q3.55 129.15 6.95 130.65 L7.75 130.9 7.2 131.15 Q5.65 130.9 3.9 131.1 0.2 131.4 -1.75 133.4 L1.15 134.1 0.85 134.25 -0.85 135.1 Q-11.9 140.8 -20.1 144.6 L-20.7 145.05 -23.75 146.95 -27.35 147.05 -38.5 147.85 -41.5 148.5 Q-43.7 149.1 -46.25 150.2 L-54.75 153.4 -64.45 153.45 -74.15 152.95 Q-76.55 152.25 -76.55 149.25 -76.55 145.8 -76.05 144.35 L-75.0 141.95 -75.0 137.95 -74.1 137.6 -71.75 137.25 -71.2 137.25 -71.5 137.3 -71.55 137.3 Q-71.1 139.45 -71.45 140.7 -71.2 141.85 -71.3 143.05 L-71.55 147.1 Q-71.05 148.65 -67.9 149.35 L-66.95 149.55 -52.6 150.4 Q-51.3 149.6 -48.95 148.95 L-40.3 147.35 -40.95 147.0 -41.2 145.75 -41.15 145.25 -39.25 145.3 -33.2 144.95 -31.3 145.3 Q-30.65 145.3 -29.3 144.75 L-24.7 144.15 Q-22.3 143.65 -19.75 142.8 L-14.55 140.7 Q-11.65 139.4 -9.75 138.3 -7.55 138.15 -5.7 137.3 -3.4 136.2 -3.4 134.75 -3.4 133.7 -3.75 133.55 L-4.1 133.35 -6.05 133.3 -6.4 133.15 Q-6.65 132.7 -7.05 132.55 -5.8 131.75 -1.75 130.85 L0.85 130.3 -1.05 128.95 -1.2 128.15 Q0.6 126.0 4.05 126.55 L7.9 127.25 10.75 125.9 11.1 125.9 Q13.65 125.9 17.85 123.9 L20.35 122.5 Q23.35 122.25 29.5 116.7 L33.25 113.1 34.1 112.8 36.0 110.45 36.05 110.4 43.8 104.35 Q44.2 105.25 45.4 105.5 46.4 105.3 47.45 103.95 48.45 102.0 55.0 97.9 L66.0 91.0 73.75 83.05 Q78.15 78.5 80.95 79.0 L81.0 78.75 81.0 78.35 82.05 77.6 84.7 79.6 84.7 75.4 Q85.7 75.25 86.95 75.4 L87.6 75.5 89.2 75.75 89.15 74.8 Q89.15 74.2 89.4 73.85 L89.15 70.6 88.6 69.8 90.9 69.55 91.4 69.55 90.2 67.3 89.25 66.45 86.1 57.0 Q84.1 50.8 81.6 46.6 L81.55 46.6 81.5 46.4 81.25 45.65 Q79.45 39.8 78.5 34.95 M92.6 68.65 L92.4 69.3 92.3 69.35 92.9 69.1 93.1 68.75 92.6 68.65 M89.5 75.6 L89.45 75.75 89.65 75.75 89.65 75.6 89.5 75.6" fill="#688420" fill-rule="evenodd" stroke="none"/>
      <path d="M78.15 33.2 L77.95 32.7 77.85 32.7 77.4 31.5 77.3 31.3 77.15 31.1 Q80.9 32.9 84.65 36.3 89.0 40.35 91.2 44.75 L90.5 44.9 88.5 44.75 Q90.35 46.1 92.0 48.65 L91.15 47.95 Q95.0 51.25 96.4 51.75 L96.6 52.4 Q95.85 53.2 94.6 53.75 L96.3 59.05 97.35 59.15 102.9 60.05 103.35 61.4 Q102.95 62.0 101.9 62.45 100.65 63.0 99.1 63.0 L96.8 62.7 96.85 64.1 Q96.85 65.6 99.35 67.0 100.95 67.9 105.85 70.2 104.55 70.95 101.5 71.9 L98.65 72.65 Q95.35 72.65 92.2 71.35 L93.85 70.25 94.7 68.75 93.4 67.3 92.05 66.15 Q90.25 60.95 87.3 54.05 L85.8 50.55 84.2 46.9 78.15 33.2 M91.65 75.15 L91.7 74.55 99.3 77.15 99.75 78.5 Q99.25 79.2 97.4 80.0 95.25 80.85 93.25 80.85 89.95 80.85 86.6 79.0 L86.6 77.75 Q88.25 78.4 89.4 78.25 L89.65 78.2 89.9 78.1 90.05 78.05 91.65 75.15 M73.6 85.55 Q72.55 89.2 72.55 92.0 72.55 92.7 74.0 94.7 L75.25 96.7 80.2 96.4 80.15 96.55 80.55 96.6 Q81.0 96.8 81.0 98.2 81.0 99.8 79.2 100.9 77.45 102.0 75.15 102.0 L72.8 101.65 Q68.05 103.95 63.0 105.6 L61.35 105.25 Q60.75 104.95 60.75 103.5 L57.1 105.65 Q47.7 110.8 41.4 110.8 L39.5 110.5 39.45 110.45 40.5 109.35 40.6 109.25 40.65 109.2 40.7 109.15 40.75 109.1 40.8 109.05 40.95 108.9 41.15 108.75 41.25 108.6 41.4 108.45 41.5 108.35 41.6 108.25 41.65 108.25 41.8 108.1 41.8 108.05 41.9 108.0 41.9 107.95 42.0 107.9 42.1 107.8 42.15 107.7 42.2 107.65 42.25 107.6 42.3 107.6 42.35 107.5 42.4 107.45 42.5 107.35 43.7 108.8 44.6 109.15 45.3 108.3 Q46.25 107.2 47.25 106.45 51.35 100.5 52.65 100.0 L53.1 99.85 Q53.55 99.95 53.55 101.35 L53.0 103.2 56.9 99.75 Q59.75 97.35 63.9 94.4 L64.35 94.45 64.35 94.05 70.3 89.9 73.6 85.55 M12.0 127.45 L18.45 131.5 Q24.9 135.45 28.35 136.2 L27.45 137.1 Q26.6 137.8 25.2 137.8 L5.4 137.15 Q1.45 136.5 -0.85 135.1 L0.85 134.25 1.15 134.1 -1.75 133.4 Q0.2 131.4 3.9 131.1 5.65 130.9 7.2 131.15 L7.75 130.9 6.95 130.65 Q3.55 129.15 2.1 128.8 L1.9 128.25 1.9 127.85 Q2.1 127.45 3.2 127.45 L9.15 128.2 10.35 128.4 12.0 127.45 M-20.7 145.05 L-20.7 145.9 Q-20.7 148.15 -22.5 149.95 -24.95 152.4 -29.7 152.4 -35.3 152.4 -40.3 149.3 L-41.5 148.5 -38.5 147.85 -27.35 147.05 -23.75 146.95 -20.7 145.05 M100.0 46.55 Q104.7 49.3 106.95 51.95 L106.1 53.55 Q105.15 54.45 102.7 54.45 100.1 54.45 96.0 50.0 92.4 46.1 91.9 44.3 94.6 43.45 100.0 46.55 M112.15 56.7 L112.15 55.35 Q115.1 55.35 117.3 56.45 L117.75 57.8 117.2 58.75 Q116.75 59.15 115.3 59.15 113.65 59.15 112.9 58.1 L112.15 56.7 M105.3 65.8 L105.4 65.9 Q107.35 65.9 110.4 67.4 113.3 68.8 114.6 70.2 114.45 71.35 113.9 71.85 113.25 72.45 111.7 72.45 108.4 72.45 106.5 70.05 105.15 68.4 105.15 67.35 105.15 65.95 105.3 65.8 M110.1 79.2 Q109.6 81.0 107.2 81.0 L105.0 80.8 104.5 80.55 104.05 79.95 Q103.6 79.5 103.6 78.15 103.6 76.75 103.85 76.6 103.95 76.5 104.05 76.7 107.0 76.7 109.9 78.5 L110.1 79.2 M66.3 98.95 L66.75 98.3 65.85 99.4 66.5 99.15 66.3 98.95 M80.75 101.55 Q84.65 100.45 85.8 100.65 L86.05 101.1 82.4 102.45 77.5 104.25 Q76.15 104.05 75.9 103.35 77.0 102.6 80.75 101.55 M46.35 144.3 Q44.15 144.3 43.0 142.7 L42.3 141.05 Q42.3 139.65 42.6 139.3 L43.2 138.9 Q44.25 138.5 46.45 139.7 48.25 140.75 49.95 142.3 49.7 143.0 48.9 143.55 47.85 144.3 46.35 144.3 M15.95 140.4 Q15.95 139.0 16.1 138.8 L16.2 138.9 Q18.6 138.9 23.2 140.2 27.55 141.35 31.25 142.95 L28.55 144.65 Q27.05 145.45 25.65 145.45 19.85 145.45 17.35 143.05 15.95 141.7 15.95 140.4 M30.85 133.65 L28.35 133.95 26.05 133.75 25.4 133.5 25.15 132.5 24.75 131.5 Q25.7 129.9 26.9 130.05 27.75 130.15 31.95 131.95 L31.95 133.3 30.85 133.65 M37.1 149.05 Q38.45 147.15 40.05 147.1 41.95 147.0 44.1 149.5 L44.0 150.8 44.0 150.55 Q45.55 149.95 47.35 149.8 50.3 149.5 51.5 150.85 L49.55 152.75 Q48.25 153.75 46.8 154.35 L44.1 153.55 43.65 152.2 43.5 151.75 42.3 151.95 38.5 151.55 37.1 149.05 M13.5 163.8 L11.5 161.9 11.0 161.3 11.05 160.05 Q11.3 160.1 11.45 159.85 14.2 159.85 16.65 162.1 16.3 163.25 13.5 163.8 M3.15 172.45 Q4.3 172.55 6.75 173.7 L5.85 174.65 4.5 175.25 Q2.85 175.1 1.75 174.3 0.9 173.7 0.65 173.0 2.15 172.35 3.15 172.45 M89.2 103.35 Q88.3 102.9 87.85 102.25 89.1 101.15 91.15 100.7 L95.25 100.45 93.4 102.15 Q91.75 103.35 89.2 103.35 M-13.3 156.8 L-8.5 155.85 Q-2.95 155.25 0.0 159.75 -0.4 160.25 -2.0 160.9 L-4.05 161.55 -0.55 162.0 -0.1 163.35 Q-0.45 163.8 -2.05 164.3 L-5.4 164.8 Q-6.9 164.8 -8.55 164.05 L-10.55 162.9 -10.55 161.55 Q-14.9 161.35 -15.75 160.75 -15.85 159.55 -18.0 158.85 L-18.0 157.5 -13.3 156.8 M-16.2 155.25 Q-19.25 155.25 -19.95 154.35 -20.25 153.15 -20.7 152.65 -20.6 150.35 -18.55 150.55 L-11.45 151.95 -11.0 153.3 Q-11.5 154.15 -13.0 154.7 L-16.2 155.25 M-26.1 159.3 Q-27.65 159.3 -29.35 158.55 -30.85 157.85 -31.25 157.15 -30.4 155.1 -29.0 155.05 -27.4 155.0 -22.05 157.15 -22.05 157.8 -23.25 158.55 -24.55 159.3 -26.1 159.3" fill="#aec53f" fill-rule="evenodd" stroke="none"/>
      <path d="M-14.45 24.75 L-10.25 19.8 Q-8.55 15.85 -8.55 12.75 -8.55 6.55 -9.7 -9.85 -10.9 -26.3 -10.9 -46.9 L-11.7 -63.3 Q-12.65 -78.35 -13.3 -82.3 L-13.3 -142.85 Q-12.1 -153.95 -12.95 -161.1 L-13.15 -162.5 Q-14.35 -170.4 -18.05 -175.1 L-18.85 -176.05 -18.85 -176.0 -20.1 -177.25 Q-21.3 -171.65 -21.75 -167.55 L-21.75 -135.0 Q-23.9 -136.0 -25.35 -137.3 L-25.35 -137.65 -25.0 -149.35 Q-25.35 -156.85 -25.35 -172.1 -25.35 -174.3 -24.9 -176.35 L-24.85 -176.6 -24.85 -183.0 Q-22.4 -181.35 -19.45 -179.1 L-16.05 -176.5 Q-11.1 -171.05 -11.1 -168.4 L-11.1 -167.5 -11.2 -167.3 -10.75 -167.35 Q-10.3 -162.85 -10.1 -155.15 L-9.6 -142.95 Q-8.2 -122.85 -7.8 -95.1 L-7.35 -47.3 -7.35 14.75 -6.85 16.2 -6.65 18.2 Q-6.65 21.25 -7.4 23.45 -8.25 26.05 -9.95 26.8 L-9.95 27.25 -13.45 28.5 -14.65 28.9 -14.65 28.4 -14.5 26.3 -14.45 24.75 M-29.05 -140.25 L-29.7 -150.7 -29.75 -151.8 -30.0 -157.35 -30.45 -166.65 -33.2 -169.25 Q-36.65 -173.2 -37.1 -176.75 L-31.0 -174.45 -30.95 -173.95 -31.15 -176.05 Q-31.35 -178.4 -33.55 -181.2 -35.75 -183.95 -38.9 -185.8 -46.75 -190.45 -52.05 -185.75 -55.75 -179.3 -55.4 -175.9 -54.25 -171.7 -54.25 -167.1 L-53.65 -155.35 -53.65 -154.9 -53.6 -154.05 -52.85 -144.05 -52.85 -143.95 Q-55.35 -144.1 -56.9 -144.9 -57.45 -150.3 -57.45 -153.35 L-57.45 -154.5 -57.45 -155.55 -57.45 -193.75 Q-44.75 -191.75 -31.65 -186.8 -29.65 -186.05 -27.0 -184.4 L-27.0 -161.95 -26.7 -161.1 -26.25 -160.35 -26.25 -138.25 Q-27.9 -138.45 -28.95 -139.0 L-29.05 -140.25 M-40.0 -156.4 Q-40.85 -156.25 -43.4 -156.35 L-43.65 -157.3 -43.9 -158.35 -41.7 -158.45 Q-40.2 -158.35 -39.25 -157.85 -38.55 -156.7 -40.0 -156.4 M-59.9 -145.6 L-59.2 -154.5 -59.2 -154.6 Q-59.2 -160.85 -60.7 -172.6 -62.85 -189.5 -66.2 -189.5 L-70.0 -188.85 -72.15 -188.45 -72.15 -195.15 -64.95 -194.65 -59.2 -194.0 -59.2 -169.35 Q-59.05 -168.35 -59.05 -167.35 L-58.75 -154.85 -58.65 -152.7 -58.5 -152.4 -58.5 -144.9 -59.95 -145.05 -59.95 -145.15 -59.9 -145.6 M-17.2 -146.45 Q-16.25 -146.05 -15.65 -144.95 L-16.15 -143.55 -17.2 -143.2 -18.5 -143.55 Q-18.9 -143.8 -18.9 -144.95 -18.9 -146.05 -18.35 -146.3 L-17.2 -146.45" fill="#9f6335" fill-rule="evenodd" stroke="none"/>
      <path d="M-21.75 -135.0 L-21.75 -167.55 Q-21.3 -171.65 -20.1 -177.25 L-18.85 -176.0 -18.85 -176.05 -18.05 -175.1 Q-14.35 -170.4 -13.15 -162.5 L-12.95 -161.1 Q-12.1 -153.95 -13.3 -142.85 L-13.3 -82.3 Q-12.65 -78.35 -11.7 -63.3 L-10.9 -46.9 Q-10.9 -26.3 -9.7 -9.85 -8.55 6.55 -8.55 12.75 -8.55 15.85 -10.25 19.8 L-14.45 24.75 -15.1 25.55 -15.55 25.7 -15.9 18.75 Q-16.95 -6.4 -16.15 -29.45 L-16.15 -60.25 Q-16.35 -67.3 -17.65 -81.4 -18.45 -94.0 -17.2 -102.55 -17.2 -106.4 -17.55 -113.05 L-18.0 -123.55 Q-18.2 -129.95 -21.75 -133.75 L-21.75 -135.0 M-52.85 -144.05 L-53.6 -154.05 -53.65 -154.9 -53.65 -155.35 -54.25 -167.1 Q-54.25 -171.7 -55.4 -175.9 -55.75 -179.3 -52.05 -185.75 -46.75 -190.45 -38.9 -185.8 -35.75 -183.95 -33.55 -181.2 -31.35 -178.4 -31.15 -176.05 L-30.95 -173.95 -31.0 -174.45 -37.1 -176.75 Q-36.65 -173.2 -33.2 -169.25 L-30.45 -166.65 -30.0 -157.35 -29.75 -151.8 -29.7 -150.7 -29.05 -140.25 -29.0 -139.45 Q-36.85 -142.9 -52.85 -144.05 M-40.0 -156.4 Q-38.55 -156.7 -39.25 -157.85 -40.2 -158.35 -41.7 -158.45 L-43.9 -158.35 -43.65 -157.3 -43.4 -156.35 Q-40.85 -156.25 -40.0 -156.4 M-72.15 -188.45 L-70.0 -188.85 -66.2 -189.5 Q-62.85 -189.5 -60.7 -172.6 -59.2 -160.85 -59.2 -154.6 L-59.2 -154.5 -59.9 -145.6 -60.9 -145.6 -72.1 -145.4 -72.15 -145.6 -72.15 -188.45 M-17.2 -146.45 L-18.35 -146.3 Q-18.9 -146.05 -18.9 -144.95 -18.9 -143.8 -18.5 -143.55 L-17.2 -143.2 -16.15 -143.55 -15.65 -144.95 Q-16.25 -146.05 -17.2 -146.45" fill="#83512c" fill-rule="evenodd" stroke="none"/>
      <path d="M-24.85 -183.0 L-24.85 -176.6 -24.9 -176.35 Q-25.35 -174.3 -25.35 -172.1 -25.35 -156.85 -25.0 -149.35 L-25.35 -137.65 -25.35 -137.3 Q-25.3 -133.05 -24.15 -129.85 L-24.15 -86.45 -23.85 -85.9 -23.85 -71.8 Q-24.35 -57.95 -24.1 -49.1 -23.95 -43.85 -23.45 -39.6 -23.15 -25.45 -23.15 -3.75 L-23.35 31.95 -25.7 32.75 -25.7 -48.35 -26.4 -50.05 -26.4 -86.25 -26.25 -86.8 -26.25 -138.25 -26.25 -160.35 -26.7 -161.1 -27.0 -161.95 -27.0 -184.4 -24.85 -183.0 M-57.45 -193.75 L-57.45 -155.55 -57.45 -154.5 -57.45 -153.35 Q-57.45 -150.3 -56.9 -144.9 L-56.65 -142.6 -56.7 -103.75 Q-56.85 -92.05 -55.8 -71.85 -54.55 -47.35 -54.4 -39.35 L-54.4 -5.65 Q-54.75 -2.7 -54.8 2.45 L-54.75 8.3 Q-54.9 14.05 -54.4 20.1 -54.1 23.95 -53.6 26.6 L-53.6 42.45 -55.8 43.25 -55.8 11.25 -56.35 9.05 Q-56.35 -5.85 -56.5 -8.0 L-56.5 -39.95 Q-56.35 -43.75 -56.35 -51.6 -56.35 -57.55 -57.4 -79.65 L-58.5 -103.25 -58.5 -144.9 -58.5 -152.4 -58.65 -152.7 -58.75 -154.85 -59.05 -167.35 Q-59.05 -168.35 -59.2 -169.35 L-59.2 -194.0 -57.45 -193.75" fill="#563c1f" fill-rule="evenodd" stroke="none"/>
      <path d="M-14.45 24.75 L-14.5 26.3 -14.65 28.4 -14.65 28.9 -13.45 28.5 -23.35 31.95 -23.15 -3.75 Q-23.15 -25.45 -23.45 -39.6 -23.95 -43.85 -24.1 -49.1 -24.35 -57.95 -23.85 -71.8 L-23.85 -85.9 -24.15 -86.45 -24.15 -129.85 Q-25.3 -133.05 -25.35 -137.3 -23.9 -136.0 -21.75 -135.0 L-21.75 -133.75 -21.75 -100.5 Q-22.2 -94.05 -22.35 -81.95 L-22.45 -69.7 -22.4 -58.25 Q-20.2 -57.15 -19.25 -56.85 -19.35 -56.45 -20.9 -55.9 L-22.4 -55.45 -22.1 -34.05 -21.85 -15.05 -18.7 -12.25 Q-18.9 -11.9 -20.55 -11.8 L-21.8 -11.75 -21.75 11.55 -21.8 19.95 Q-21.3 26.25 -18.55 26.25 -16.7 26.25 -15.1 25.55 L-14.45 24.75 M-28.95 -139.0 Q-27.9 -138.45 -26.25 -138.25 L-26.25 -86.8 -26.4 -86.25 -26.4 -50.05 -25.7 -48.35 -25.7 32.75 -53.6 42.45 -53.6 26.6 Q-54.1 23.95 -54.4 20.1 -54.9 14.05 -54.75 8.3 L-54.8 2.45 Q-54.75 -2.7 -54.4 -5.65 L-54.4 -39.35 Q-54.55 -47.35 -55.8 -71.85 -56.85 -92.05 -56.7 -103.75 L-56.65 -142.6 -56.9 -144.9 Q-55.35 -144.1 -52.85 -143.95 L-52.75 -142.45 -51.6 -127.8 -48.0 -128.45 -47.3 -127.4 Q-48.05 -126.25 -50.1 -124.85 L-51.3 -124.05 -51.25 -123.0 Q-51.25 -114.45 -50.2 -101.0 -49.15 -87.5 -49.15 -80.05 L-49.6 -64.9 Q-50.1 -49.8 -50.55 -41.35 L-50.55 -5.15 Q-51.25 -1.4 -51.25 6.9 L-51.1 19.9 -48.45 37.25 Q-37.4 35.1 -32.5 31.1 L-33.15 31.55 -33.5 29.95 Q-35.6 16.6 -36.55 12.05 L-35.75 11.9 Q-34.75 15.0 -29.25 26.6 L-29.2 26.7 Q-28.25 24.25 -28.45 20.9 L-28.95 14.75 Q-29.1 7.15 -29.8 -9.0 L-29.35 -14.5 -28.4 -21.95 -28.4 -49.0 Q-27.7 -50.55 -27.7 -54.95 L-27.7 -56.1 -29.45 -56.75 Q-32.2 -57.9 -32.55 -59.05 -32.2 -59.9 -29.55 -59.9 L-27.8 -59.7 -27.8 -59.05 -28.25 -75.9 -28.95 -108.9 -28.95 -138.65 -28.95 -139.0 M-59.95 -145.05 L-58.5 -144.9 -58.5 -103.25 -57.4 -79.65 Q-56.35 -57.55 -56.35 -51.6 -56.35 -43.75 -56.5 -39.95 L-56.5 -8.0 Q-56.35 -5.85 -56.35 9.05 L-55.8 11.25 -55.8 43.25 -71.65 48.8 -71.65 45.35 Q-65.45 46.45 -63.15 42.0 -62.15 40.1 -61.3 36.85 -60.4 33.65 -60.35 31.65 -59.2 12.85 -59.2 11.1 L-60.9 -31.2 -59.4 -67.2 -60.7 -135.85 -59.95 -145.05 M-31.35 -107.85 Q-30.95 -107.75 -30.95 -106.65 -30.95 -105.6 -32.4 -104.2 L-35.35 -101.9 -36.6 -102.4 Q-37.1 -102.8 -37.1 -103.95 -37.1 -104.8 -35.05 -106.4 -33.2 -107.85 -32.35 -108.05 L-31.35 -107.85 M-41.0 -83.55 Q-42.35 -82.3 -43.9 -81.6 L-45.1 -82.05 Q-45.55 -82.4 -45.55 -83.55 L-45.5 -84.6 -45.2 -85.05 -42.6 -85.3 Q-41.9 -85.35 -41.0 -83.55 M-39.15 -14.75 L-37.95 -14.5 -37.6 -13.45 Q-38.2 -12.6 -38.9 -12.4 L-39.85 -12.45 Q-40.15 -12.5 -40.15 -13.55 -40.15 -15.3 -39.95 -14.7 L-39.15 -14.75" fill="#ac823c" fill-rule="evenodd" stroke="none"/>
      <path d="M-21.75 -133.75 Q-18.2 -129.95 -18.0 -123.55 L-17.55 -113.05 Q-17.2 -106.4 -17.2 -102.55 -18.45 -94.0 -17.65 -81.4 -16.35 -67.3 -16.15 -60.25 L-16.15 -29.45 Q-16.95 -6.4 -15.9 18.75 L-15.55 25.7 -15.1 25.55 Q-16.7 26.25 -18.55 26.25 -21.3 26.25 -21.8 19.95 L-21.75 11.55 -21.8 -11.75 -20.55 -11.8 Q-18.9 -11.9 -18.7 -12.25 L-21.85 -15.05 -22.1 -34.05 -22.4 -55.45 -20.9 -55.9 Q-19.35 -56.45 -19.25 -56.85 -20.2 -57.15 -22.4 -58.25 L-22.45 -69.7 -22.35 -81.95 Q-22.2 -94.05 -21.75 -100.5 L-21.75 -133.75 M-52.85 -144.05 Q-36.85 -142.9 -29.0 -139.45 L-29.05 -140.25 -28.95 -139.0 -28.95 -138.65 -28.95 -108.9 -28.25 -75.9 -27.8 -59.05 -27.8 -59.7 -29.55 -59.9 Q-32.2 -59.9 -32.55 -59.05 -32.2 -57.9 -29.45 -56.75 L-27.7 -56.1 -27.7 -54.95 Q-27.7 -50.55 -28.4 -49.0 L-28.4 -21.95 -29.35 -14.5 -29.8 -9.0 Q-29.1 7.15 -28.95 14.75 L-28.45 20.9 Q-28.25 24.25 -29.2 26.7 L-29.25 26.6 Q-34.75 15.0 -35.75 11.9 L-36.55 12.05 Q-35.6 16.6 -33.5 29.95 L-33.15 31.55 -32.5 31.1 Q-37.4 35.1 -48.45 37.25 L-51.1 19.9 -51.25 6.9 Q-51.25 -1.4 -50.55 -5.15 L-50.55 -41.35 Q-50.1 -49.8 -49.6 -64.9 L-49.15 -80.05 Q-49.15 -87.5 -50.2 -101.0 -51.25 -114.45 -51.25 -123.0 L-51.3 -124.05 -50.1 -124.85 Q-48.05 -126.25 -47.3 -127.4 L-48.0 -128.45 -51.6 -127.8 -52.75 -142.45 -52.85 -143.95 -52.85 -144.05 M-59.9 -145.6 L-59.95 -145.15 -59.95 -145.05 -60.7 -135.85 -59.4 -67.2 -60.9 -31.2 -59.2 11.1 Q-59.2 12.85 -60.35 31.65 -60.4 33.65 -61.3 36.85 -62.15 40.1 -63.15 42.0 -65.45 46.45 -71.65 45.35 L-71.65 40.85 -71.8 40.3 -71.8 -117.4 -72.0 -118.0 -72.0 -144.95 -72.15 -145.6 -72.1 -145.4 -60.9 -145.6 -59.9 -145.6 M-39.15 -14.75 L-39.95 -14.7 Q-40.15 -15.3 -40.15 -13.55 -40.15 -12.5 -39.85 -12.45 L-38.9 -12.4 Q-38.2 -12.6 -37.6 -13.45 L-37.95 -14.5 -39.15 -14.75 M-41.0 -83.55 Q-41.9 -85.35 -42.6 -85.3 L-45.2 -85.05 -45.5 -84.6 -45.55 -83.55 Q-45.55 -82.4 -45.1 -82.05 L-43.9 -81.6 Q-42.35 -82.3 -41.0 -83.55 M-31.35 -107.85 L-32.35 -108.05 Q-33.2 -107.85 -35.05 -106.4 -37.1 -104.8 -37.1 -103.95 -37.1 -102.8 -36.6 -102.4 L-35.35 -101.9 -32.4 -104.2 Q-30.95 -105.6 -30.95 -106.65 -30.95 -107.75 -31.35 -107.85" fill="#8b6930" fill-rule="evenodd" stroke="none"/>
      <path d="M-75.0 131.05 L-71.65 130.85 -71.65 132.0 -71.65 133.75 Q-73.35 135.4 -74.1 137.6 L-75.0 137.95 -75.0 131.05 M-5.65 25.6 L-5.7 25.95 -5.6 26.2 -5.75 26.2 -5.65 25.6" fill="#c6ce9f" fill-rule="evenodd" stroke="none"/>
    </g>
  </defs>
</svg>
