<?xml version="1.0" encoding="UTF-8" standalone="no"?>
<svg xmlns:ffdec="https://www.free-decompiler.com/flash" xmlns:xlink="http://www.w3.org/1999/xlink" ffdec:objectType="frame" height="390.1px" width="237.4px" xmlns="http://www.w3.org/2000/svg">
  <g transform="matrix(1.0, 0.0, 0.0, 1.0, 116.85, 346.75)">
    <use ffdec:characterId="652" height="8.75" transform="matrix(0.4361, 0.0, 0.0, 0.4361, 11.5311, -287.2971)" width="8.8" xlink:href="#sprite0"/>
    <use ffdec:characterId="652" height="8.75" transform="matrix(0.5005, 0.0, 0.0, 0.5005, -66.3522, -261.7272)" width="8.8" xlink:href="#sprite0"/>
    <use ffdec:characterId="652" height="8.75" transform="matrix(0.5024, 0.0, 0.0, 0.5024, -45.0107, -287.8856)" width="8.8" xlink:href="#sprite0"/>
    <use ffdec:characterId="652" height="8.75" transform="matrix(0.471, 0.0, 0.0, 0.471, -71.3226, -256.899)" width="8.8" xlink:href="#sprite0"/>
    <use ffdec:characterId="652" height="8.75" transform="matrix(0.4875, 0.0, 0.0, 0.4875, -69.445, -284.8206)" width="8.8" xlink:href="#sprite0"/>
    <use ffdec:characterId="652" height="8.75" transform="matrix(0.4993, 0.0, 0.0, 0.4993, -7.3968, -282.7219)" width="8.8" xlink:href="#sprite0"/>
    <use ffdec:characterId="652" height="8.75" transform="matrix(0.5222, 0.0, 0.0, 0.5222, 0.3022, -295.3716)" width="8.8" xlink:href="#sprite0"/>
    <use ffdec:characterId="652" height="8.75" transform="matrix(0.5606, 0.0, 0.0, 0.5606, -42.0667, -299.9887)" width="8.8" xlink:href="#sprite0"/>
    <use ffdec:characterId="652" height="8.75" transform="matrix(0.5512, 0.0, 0.0, 0.5512, 10.4749, -256.1476)" width="8.8" xlink:href="#sprite0"/>
    <use ffdec:characterId="652" height="8.75" transform="matrix(0.3089, 0.0, 0.0, 0.3089, 28.591, -256.9436)" width="8.8" xlink:href="#sprite0"/>
    <use ffdec:characterId="652" height="8.75" transform="matrix(0.2125, 0.4125, -0.3487, 0.3363, 109.7318, -206.5276)" width="8.8" xlink:href="#sprite0"/>
    <use ffdec:characterId="652" height="8.75" transform="matrix(0.2533, 0.4915, -0.4156, 0.4007, 52.2433, -252.7057)" width="8.8" xlink:href="#sprite0"/>
    <use ffdec:characterId="652" height="8.75" transform="matrix(0.2471, 0.4795, -0.4054, 0.3909, 84.1764, -266.1104)" width="8.8" xlink:href="#sprite0"/>
    <use ffdec:characterId="652" height="8.75" transform="matrix(0.2316, 0.4495, -0.38, 0.3664, 56.684, -249.0716)" width="8.8" xlink:href="#sprite0"/>
    <use ffdec:characterId="652" height="8.75" transform="matrix(0.2373, 0.4605, -0.3893, 0.3754, 77.6495, -270.0591)" width="8.8" xlink:href="#sprite0"/>
    <use ffdec:characterId="652" height="8.75" transform="matrix(0.2433, 0.4721, -0.3992, 0.3849, 98.1659, -223.0016)" width="8.8" xlink:href="#sprite0"/>
    <use ffdec:characterId="652" height="8.75" transform="matrix(0.2542, 0.4934, -0.4171, 0.4022, 109.5459, -219.1707)" width="8.8" xlink:href="#sprite0"/>
    <use ffdec:characterId="652" height="8.75" transform="matrix(0.2684, 0.521, -0.4405, 0.4247, 93.1349, -263.79)" width="8.8" xlink:href="#sprite0"/>
    <use ffdec:characterId="652" height="8.75" transform="matrix(0.2744, 0.5325, -0.4502, 0.4341, 81.5011, -187.1313)" width="8.8" xlink:href="#sprite0"/>
    <use ffdec:characterId="652" height="8.75" transform="matrix(0.1596, 0.3098, -0.2619, 0.2525, 96.9369, -176.5614)" width="8.8" xlink:href="#sprite0"/>
    <use ffdec:characterId="652" height="8.75" transform="matrix(0.0383, -0.447, 0.4585, -0.0957, -51.3132, -144.4667)" width="8.8" xlink:href="#sprite0"/>
    <use ffdec:characterId="652" height="8.75" transform="matrix(0.0449, -0.5233, 0.5367, -0.1121, -29.8822, -72.9102)" width="8.8" xlink:href="#sprite0"/>
    <use ffdec:characterId="652" height="8.75" transform="matrix(0.0444, -0.5182, 0.5315, -0.111, -59.7578, -83.587)" width="8.8" xlink:href="#sprite0"/>
    <use ffdec:characterId="652" height="8.75" transform="matrix(0.0416, -0.4855, 0.498, -0.104, -27.2996, -73.2112)" width="8.8" xlink:href="#sprite0"/>
    <use ffdec:characterId="652" height="8.75" transform="matrix(0.0429, -0.4998, 0.5127, -0.1071, -56.8189, -68.035)" width="8.8" xlink:href="#sprite0"/>
    <use ffdec:characterId="652" height="8.75" transform="matrix(0.0439, -0.5123, 0.5255, -0.1097, -49.4293, -124.9684)" width="8.8" xlink:href="#sprite0"/>
    <use ffdec:characterId="652" height="8.75" transform="matrix(0.046, -0.5358, 0.5496, -0.1148, -59.2929, -132.4932)" width="8.8" xlink:href="#sprite0"/>
    <use ffdec:characterId="652" height="8.75" transform="matrix(0.0489, -0.57, 0.5846, -0.1221, -68.9582, -86.961)" width="8.8" xlink:href="#sprite0"/>
    <use ffdec:characterId="652" height="8.75" transform="matrix(0.0491, -0.5719, 0.5866, -0.1225, -19.1174, -146.751)" width="8.8" xlink:href="#sprite0"/>
    <use ffdec:characterId="652" height="8.75" transform="matrix(0.028, -0.3259, 0.3343, -0.0698, -21.7774, -165.1622)" width="8.8" xlink:href="#sprite0"/>
    <use ffdec:characterId="652" height="8.75" transform="matrix(-0.5453, 0.1447, -0.2619, -0.3403, -10.1112, -9.7566)" width="8.8" xlink:href="#sprite0"/>
    <use ffdec:characterId="652" height="8.75" transform="matrix(-0.6551, 0.1739, -0.3147, -0.4088, 59.8015, -55.6867)" width="8.8" xlink:href="#sprite0"/>
    <use ffdec:characterId="652" height="8.75" transform="matrix(-0.6341, 0.1683, -0.3046, -0.3957, 66.9648, -26.1194)" width="8.8" xlink:href="#sprite0"/>
    <use ffdec:characterId="652" height="8.75" transform="matrix(-0.5947, 0.1579, -0.2857, -0.3711, 51.4094, -49.1802)" width="8.8" xlink:href="#sprite0"/>
    <use ffdec:characterId="652" height="8.75" transform="matrix(-0.6079, 0.1614, -0.292, -0.3794, 68.4951, -29.2598)" width="8.8" xlink:href="#sprite0"/>
    <use ffdec:characterId="652" height="8.75" transform="matrix(-0.6233, 0.1654, -0.2994, -0.3889, 12.2448, -18.036)" width="8.8" xlink:href="#sprite0"/>
    <use ffdec:characterId="652" height="8.75" transform="matrix(-0.651, 0.1728, -0.3127, -0.4062, 3.5246, -9.0931)" width="8.8" xlink:href="#sprite0"/>
    <use ffdec:characterId="652" height="8.75" transform="matrix(-0.6852, 0.1819, -0.3292, -0.4276, 58.1469, -19.1902)" width="8.8" xlink:href="#sprite0"/>
    <use ffdec:characterId="652" height="8.75" transform="matrix(-0.7064, 0.1875, -0.3394, -0.4408, -23.5155, -37.2074)" width="8.8" xlink:href="#sprite0"/>
    <use ffdec:characterId="652" height="8.75" transform="matrix(-0.4156, 0.1103, -0.1996, -0.2593, -37.9531, -23.2072)" width="8.8" xlink:href="#sprite0"/>
    <use ffdec:characterId="652" height="8.75" transform="matrix(0.2343, -0.3912, 0.4615, 0.1169, -72.488, -192.6373)" width="8.8" xlink:href="#sprite0"/>
    <use ffdec:characterId="652" height="8.75" transform="matrix(0.2767, -0.4621, 0.5451, 0.1381, -83.089, -119.0674)" width="8.8" xlink:href="#sprite0"/>
    <use ffdec:characterId="652" height="8.75" transform="matrix(0.2721, -0.4544, 0.5359, 0.1358, -108.5285, -140.4415)" width="8.8" xlink:href="#sprite0"/>
    <use ffdec:characterId="652" height="8.75" transform="matrix(0.2549, -0.4257, 0.5022, 0.1272, -81.4062, -121.3303)" width="8.8" xlink:href="#sprite0"/>
    <use ffdec:characterId="652" height="8.75" transform="matrix(0.2618, -0.4372, 0.5157, 0.1307, -110.3453, -128.9447)" width="8.8" xlink:href="#sprite0"/>
    <use ffdec:characterId="652" height="8.75" transform="matrix(0.2684, -0.4482, 0.5287, 0.134, -79.9308, -174.1106)" width="8.8" xlink:href="#sprite0"/>
    <use ffdec:characterId="652" height="8.75" transform="matrix(0.2806, -0.4686, 0.5527, 0.14, -83.9891, -185.5974)" width="8.8" xlink:href="#sprite0"/>
    <use ffdec:characterId="652" height="8.75" transform="matrix(0.2973, -0.4966, 0.5857, 0.1484, -113.3562, -148.2107)" width="8.8" xlink:href="#sprite0"/>
    <use ffdec:characterId="652" height="8.75" transform="matrix(0.3012, -0.5029, 0.5933, 0.1503, -42.2058, -179.591)" width="8.8" xlink:href="#sprite0"/>
    <use ffdec:characterId="652" height="8.75" transform="matrix(0.1733, -0.2895, 0.3415, 0.0865, -38.6981, -197.8026)" width="8.8" xlink:href="#sprite0"/>
    <use ffdec:characterId="652" height="8.75" transform="matrix(0.6872, 0.0, 0.0, 0.6872, 6.2263, -251.6393)" width="8.8" xlink:href="#sprite0"/>
    <use ffdec:characterId="652" height="8.75" transform="matrix(0.8859, 0.0, 0.0, 0.8859, -51.948, -214.2037)" width="8.8" xlink:href="#sprite0"/>
    <use ffdec:characterId="652" height="8.75" transform="matrix(0.7517, 0.0, 0.0, 0.7517, -74.1076, -239.47)" width="8.8" xlink:href="#sprite0"/>
    <use ffdec:characterId="652" height="8.75" transform="matrix(0.7255, 0.0, 0.0, 0.7255, -45.0421, -235.8558)" width="8.8" xlink:href="#sprite0"/>
    <use ffdec:characterId="652" height="8.75" transform="matrix(0.7273, 0.0, 0.0, 0.7273, -35.45, -259.9636)" width="8.8" xlink:href="#sprite0"/>
    <use ffdec:characterId="652" height="8.75" transform="matrix(0.7381, 0.0, 0.0, 0.7381, -22.2476, -245.4607)" width="8.8" xlink:href="#sprite0"/>
    <use ffdec:characterId="652" height="8.75" transform="matrix(0.7556, 0.0, 0.0, 0.7556, -24.6246, -252.0369)" width="8.8" xlink:href="#sprite0"/>
    <use ffdec:characterId="652" height="8.75" transform="matrix(0.7899, 0.0, 0.0, 0.7899, -17.6754, -249.7359)" width="8.8" xlink:href="#sprite0"/>
    <use ffdec:characterId="652" height="8.75" transform="matrix(0.8817, 0.0, 0.0, 0.8817, -20.7796, -225.6855)" width="8.8" xlink:href="#sprite0"/>
    <use ffdec:characterId="652" height="8.75" transform="matrix(0.6287, 0.0, 0.0, 0.6287, -3.3664, -250.9349)" width="8.8" xlink:href="#sprite0"/>
    <use ffdec:characterId="652" height="8.75" transform="matrix(0.3531, 0.6853, -0.5794, 0.5586, 76.2166, -168.7953)" width="8.8" xlink:href="#sprite0"/>
    <use ffdec:characterId="652" height="8.75" transform="matrix(0.458, 0.8889, -0.7515, 0.7247, 33.8038, -189.5136)" width="8.8" xlink:href="#sprite0"/>
    <use ffdec:characterId="652" height="8.75" transform="matrix(0.376, 0.7297, -0.6169, 0.5949, 24.7793, -238.5984)" width="8.8" xlink:href="#sprite0"/>
    <use ffdec:characterId="652" height="8.75" transform="matrix(0.3668, 0.7118, -0.6018, 0.5803, 34.654, -208.5064)" width="8.8" xlink:href="#sprite0"/>
    <use ffdec:characterId="652" height="8.75" transform="matrix(0.3671, 0.7124, -0.6023, 0.5807, 59.2548, -222.7606)" width="8.8" xlink:href="#sprite0"/>
    <use ffdec:characterId="652" height="8.75" transform="matrix(0.3709, 0.7198, -0.6085, 0.5868, 59.4653, -194.8195)" width="8.8" xlink:href="#sprite0"/>
    <use ffdec:characterId="652" height="8.75" transform="matrix(0.377, 0.7316, -0.6185, 0.5964, 62.9819, -198.6135)" width="8.8" xlink:href="#sprite0"/>
    <use ffdec:characterId="652" height="8.75" transform="matrix(0.3968, 0.7701, -0.651, 0.6278, 54.4361, -212.019)" width="8.8" xlink:href="#sprite0"/>
    <use ffdec:characterId="652" height="8.75" transform="matrix(0.4467, 0.8669, -0.7329, 0.7067, 36.7727, -192.2385)" width="8.8" xlink:href="#sprite0"/>
    <use ffdec:characterId="652" height="8.75" transform="matrix(0.334, 0.6483, -0.5481, 0.5285, 68.5644, -181.5512)" width="8.8" xlink:href="#sprite0"/>
    <use ffdec:characterId="652" height="8.75" transform="matrix(0.0622, -0.725, 0.7436, -0.1553, -10.2083, -154.2847)" width="8.8" xlink:href="#sprite0"/>
    <use ffdec:characterId="652" height="8.75" transform="matrix(0.0805, -0.938, 0.9621, -0.2009, 17.1109, -107.599)" width="8.8" xlink:href="#sprite0"/>
    <use ffdec:characterId="652" height="8.75" transform="matrix(0.0671, -0.7826, 0.8027, -0.1676, -3.8873, -67.9773)" width="8.8" xlink:href="#sprite0"/>
    <use ffdec:characterId="652" height="8.75" transform="matrix(0.0651, -0.7593, 0.7788, -0.1626, 4.1254, -102.7515)" width="8.8" xlink:href="#sprite0"/>
    <use ffdec:characterId="652" height="8.75" transform="matrix(0.0652, -0.7604, 0.78, -0.1629, -22.8799, -102.0455)" width="8.8" xlink:href="#sprite0"/>
    <use ffdec:characterId="652" height="8.75" transform="matrix(0.0661, -0.7701, 0.7899, -0.1649, -7.4266, -123.9941)" width="8.8" xlink:href="#sprite0"/>
    <use ffdec:characterId="652" height="8.75" transform="matrix(0.0674, -0.7856, 0.8058, -0.1683, -13.2515, -120.7116)" width="8.8" xlink:href="#sprite0"/>
    <use ffdec:characterId="652" height="8.75" transform="matrix(0.0707, -0.8238, 0.845, -0.1765, -9.9365, -118.7078)" width="8.8" xlink:href="#sprite0"/>
    <use ffdec:characterId="652" height="8.75" transform="matrix(0.0793, -0.9239, 0.9477, -0.1979, 9.7788, -116.7738)" width="8.8" xlink:href="#sprite0"/>
    <use ffdec:characterId="652" height="8.75" transform="matrix(0.0579, -0.675, 0.6924, -0.1446, -9.7665, -141.5511)" width="8.8" xlink:href="#sprite0"/>
    <use ffdec:characterId="652" height="8.75" transform="matrix(-0.9154, 0.243, -0.4397, -0.5712, -42.8597, -45.0342)" width="8.8" xlink:href="#sprite0"/>
    <use ffdec:characterId="652" height="8.75" transform="matrix(-0.968, 0.2569, -0.465, -0.6041, 47.7819, -80.0029)" width="8.8" xlink:href="#sprite0"/>
    <use ffdec:characterId="652" height="8.75" transform="matrix(-0.9469, 0.2513, -0.4548, -0.5909, 22.1449, -75.3355)" width="8.8" xlink:href="#sprite0"/>
    <use ffdec:characterId="652" height="8.75" transform="matrix(-0.9473, 0.2514, -0.4551, -0.5912, 21.4478, -53.5348)" width="8.8" xlink:href="#sprite0"/>
    <use ffdec:characterId="652" height="8.75" transform="matrix(-0.9561, 0.2538, -0.4593, -0.5966, -9.3952, -55.6212)" width="8.8" xlink:href="#sprite0"/>
    <use ffdec:characterId="652" height="8.75" transform="matrix(-0.97, 0.2575, -0.466, -0.6053, -6.5547, -52.5997)" width="8.8" xlink:href="#sprite0"/>
    <use ffdec:characterId="652" height="8.75" transform="matrix(-1.0231, 0.2716, -0.4915, -0.6385, 19.1397, -59.6176)" width="8.8" xlink:href="#sprite0"/>
    <use ffdec:characterId="652" height="8.75" transform="matrix(-1.1535, 0.3062, -0.5541, -0.7198, -7.6642, -76.0159)" width="8.8" xlink:href="#sprite0"/>
    <use ffdec:characterId="652" height="8.75" transform="matrix(-0.8724, 0.2316, -0.4191, -0.5444, -24.4386, -50.3007)" width="8.8" xlink:href="#sprite0"/>
    <use ffdec:characterId="652" height="8.75" transform="matrix(0.3848, -0.6425, 0.7579, 0.192, -27.0399, -184.0582)" width="8.8" xlink:href="#sprite0"/>
    <use ffdec:characterId="652" height="8.75" transform="matrix(0.4985, -0.8325, 0.982, 0.2488, -23.1651, -134.1694)" width="8.8" xlink:href="#sprite0"/>
    <use ffdec:characterId="652" height="8.75" transform="matrix(0.4125, -0.6889, 0.8127, 0.2059, -59.6001, -102.6144)" width="8.8" xlink:href="#sprite0"/>
    <use ffdec:characterId="652" height="8.75" transform="matrix(0.4013, -0.6702, 0.7906, 0.2003, -37.0049, -129.9724)" width="8.8" xlink:href="#sprite0"/>
    <use ffdec:characterId="652" height="8.75" transform="matrix(0.4017, -0.6709, 0.7914, 0.2005, -63.2604, -140.7702)" width="8.8" xlink:href="#sprite0"/>
    <use ffdec:characterId="652" height="8.75" transform="matrix(0.4064, -0.6787, 0.8006, 0.2028, -39.1706, -155.3961)" width="8.8" xlink:href="#sprite0"/>
    <use ffdec:characterId="652" height="8.75" transform="matrix(0.4138, -0.6911, 0.8152, 0.2065, -44.9169, -156.2577)" width="8.8" xlink:href="#sprite0"/>
    <use ffdec:characterId="652" height="8.75" transform="matrix(0.4347, -0.726, 0.8564, 0.217, -47.4382, -146.8994)" width="8.8" xlink:href="#sprite0"/>
    <use ffdec:characterId="652" height="8.75" transform="matrix(0.4885, -0.8159, 0.9624, 0.2438, -26.986, -138.5208)" width="8.8" xlink:href="#sprite0"/>
    <use ffdec:characterId="652" height="8.75" transform="matrix(0.3611, -0.6031, 0.7114, 0.1803, -32.5337, -171.7304)" width="8.8" xlink:href="#sprite0"/>
    <use ffdec:characterId="648" height="280.0" transform="matrix(1.0, 0.0, 0.0, 1.0, -86.0, -282.05)" width="168.0" xlink:href="#sprite1"/>
    <use ffdec:characterId="650" height="308.7" transform="matrix(0.9416, 0.0, 0.0, 0.9739, -92.6379, -301.9773)" width="197.75" xlink:href="#sprite2"/>
    <use ffdec:characterId="650" height="308.7" transform="matrix(1.04, -0.1559, 0.0, 1.0954, -102.3443, -305.343)" width="197.75" xlink:href="#sprite2"/>
  </g>
  <defs>
    <g id="sprite0" transform="matrix(1.0, 0.0, 0.0, 1.0, 4.4, 4.35)">
      <use ffdec:characterId="651" height="1.25" transform="matrix(0.4444, 0.0, 0.0, 7.0, -4.3778, -4.35)" width="19.7" xlink:href="#shape0"/>
    </g>
    <g id="shape0" transform="matrix(1.0, 0.0, 0.0, 1.0, 9.85, 1.25)">
      <path d="M6.95 -0.2 L0.0 0.0 -6.95 -0.2 Q-9.85 -0.35 -9.85 -0.65 -9.85 -0.9 -6.95 -1.05 L0.0 -1.25 6.95 -1.05 Q9.85 -0.9 9.85 -0.65 9.85 -0.35 6.95 -0.2" fill="#ffffff" fill-opacity="0.03529412" fill-rule="evenodd" stroke="none"/>
    </g>
    <g id="sprite1" transform="matrix(1.0, 0.0, 0.0, 1.0, 84.0, 140.0)">
      <use ffdec:characterId="647" height="40.0" transform="matrix(7.0, 0.0, 0.0, 7.0, -84.0, -140.0)" width="24.0" xlink:href="#shape1"/>
    </g>
    <g id="shape1" transform="matrix(1.0, 0.0, 0.0, 1.0, 12.0, 20.0)">
      <path d="M0.0 -20.0 Q5.0 -20.0 8.5 -14.15 12.0 -8.3 12.0 0.0 12.0 8.3 8.5 14.15 5.0 20.0 0.0 20.0 -5.0 20.0 -8.5 14.15 -12.0 8.3 -12.0 0.0 -12.0 -8.3 -8.5 -14.15 -5.0 -20.0 0.0 -20.0" fill="#86b4ea" fill-opacity="0.34117648" fill-rule="evenodd" stroke="none"/>
    </g>
    <g id="sprite2" transform="matrix(1.0, 0.0, 0.0, 1.0, 98.7, 154.35)">
      <use ffdec:characterId="649" height="44.1" transform="matrix(7.0, 0.0, 0.0, 7.0, -98.7, -154.35)" width="28.25" xlink:href="#shape2"/>
    </g>
    <g id="shape2" transform="matrix(1.0, 0.0, 0.0, 1.0, 14.1, 22.05)">
      <path d="M3.7 -20.05 L3.0 -20.85 Q4.6 -19.85 5.4 -19.25 6.5 -18.5 6.8 -17.9 6.5 -18.15 6.2 -18.3 5.9 -18.55 5.4 -18.9 L3.7 -20.05 M0.15 -20.8 Q0.55 -20.5 1.0 -20.0 L1.25 -19.65 Q0.75 -19.95 0.25 -20.0 L-0.4 -20.0 Q-0.85 -19.5 -1.75 -19.15 -2.25 -18.95 -3.3 -18.7 L-3.15 -18.85 Q-2.7 -19.6 -2.15 -19.65 -1.65 -19.7 -0.6 -20.35 L0.15 -20.8 M-6.55 19.45 Q-6.75 19.25 -6.9 18.9 -6.9 18.65 -7.1 17.95 L-7.35 17.15 Q-7.35 16.55 -8.2 15.4 -9.1 14.25 -9.15 13.75 -9.3 12.4 -10.1 11.45 L-10.65 10.85 Q-10.9 10.55 -10.9 10.4 -10.9 10.15 -10.7 9.75 -10.55 9.3 -10.55 9.25 -10.55 8.85 -10.7 8.65 L-11.55 7.75 Q-11.7 7.55 -11.7 7.0 -11.7 6.7 -11.9 6.5 L-12.2 6.25 Q-11.55 4.9 -11.6 4.25 -11.65 3.55 -11.15 3.15 -10.6 2.7 -10.6 2.25 -10.6 1.6 -11.55 0.85 -11.95 0.55 -12.15 0.35 -12.0 0.35 -11.8 0.25 -11.8 0.05 -11.9 -0.15 -11.6 -0.6 -11.55 -1.5 L-11.55 -1.85 Q-11.45 -2.05 -11.45 -2.1 -11.45 -2.35 -11.55 -2.7 L-11.3 -3.25 -11.3 -3.9 -11.4 -3.9 -11.5 -3.55 -11.5 -3.6 Q-11.4 -4.25 -10.75 -5.7 -10.1 -7.0 -10.1 -7.8 -10.1 -8.0 -10.35 -8.6 -10.05 -9.2 -9.9 -9.7 -9.8 -10.15 -9.0 -11.85 -8.45 -13.05 -8.35 -13.8 -8.05 -14.35 -7.55 -14.5 -7.0 -14.65 -6.2 -15.15 -5.4 -15.75 -5.25 -16.05 -5.4 -16.4 -5.15 -16.8 -4.9 -16.85 -4.7 -16.95 -4.1 -17.15 -3.75 -17.75 L-3.45 -18.4 Q-2.95 -18.65 -2.0 -18.65 -1.6 -18.65 -0.85 -19.0 L-0.05 -19.4 Q0.7 -19.4 1.7 -18.7 2.45 -18.2 2.75 -17.8 3.25 -17.15 4.25 -17.0 4.55 -16.6 4.9 -15.95 5.35 -15.1 5.55 -14.85 6.0 -14.2 6.85 -13.95 7.25 -13.4 7.85 -13.05 8.25 -12.65 8.95 -12.3 9.7 -11.95 9.95 -11.55 10.0 -11.45 10.25 -10.55 10.5 -9.65 10.5 -9.55 10.5 -9.25 10.3 -8.35 10.1 -7.5 10.1 -7.2 10.1 -6.6 10.3 -6.1 L10.4 -5.9 10.55 -4.9 10.4 -4.85 Q10.05 -4.5 9.85 -3.65 9.7 -2.9 9.7 -2.3 L9.7 -1.15 Q9.75 -0.8 9.9 -0.5 10.0 -0.25 10.4 0.2 L11.45 1.55 11.55 1.55 10.7 0.05 Q10.1 -1.05 10.1 -1.1 10.1 -2.1 10.2 -3.1 10.3 -4.45 10.55 -4.9 L11.0 -2.35 11.25 -1.1 11.25 -1.05 11.1 0.25 Q11.1 0.65 11.75 1.75 L12.2 2.55 12.4 3.0 12.4 3.15 Q12.4 3.9 12.0 4.75 11.25 6.4 11.1 6.75 10.85 7.45 10.45 7.9 L9.8 8.55 Q9.45 8.9 9.35 9.25 9.15 9.7 9.15 10.45 9.15 11.1 9.15 11.4 L9.25 11.45 Q9.1 11.75 9.05 12.05 8.95 12.35 8.9 13.0 L8.75 13.8 Q8.55 14.55 8.0 15.7 L7.85 16.0 7.65 16.2 Q7.05 16.6 6.75 17.15 6.55 17.5 6.35 18.2 6.2 18.85 6.05 19.2 5.9 19.5 5.65 19.75 5.05 20.1 4.3 20.35 4.35 20.4 4.75 20.45 L4.1 20.75 Q2.75 21.25 1.1 21.6 L0.2 21.6 Q0.0 22.35 -1.6 21.85 -3.35 21.3 -6.55 19.45 M6.2 19.65 L6.35 19.5 6.65 19.1 7.0 18.8 7.35 18.45 Q6.95 19.1 6.2 19.65 M10.05 14.45 L10.5 13.15 Q11.0 11.75 11.75 10.8 L11.6 11.05 Q10.65 12.9 10.5 13.5 10.4 13.85 10.05 14.45 M4.45 -16.95 L5.5 -16.95 5.65 -16.8 5.55 -16.95 Q6.05 -16.25 6.7 -15.05 L6.85 -14.65 6.75 -14.75 6.6 -15.1 6.1 -16.05 6.3 -15.3 6.35 -15.05 6.2 -15.15 Q5.1 -16.0 4.45 -16.95 M5.1 -17.1 L4.8 -17.15 Q4.5 -17.25 4.15 -17.4 4.6 -17.2 5.1 -17.1 M0.55 -17.05 L-0.55 -16.9 Q-2.6 -16.6 -3.05 -15.3 -3.55 -14.0 -3.9 -13.9 -4.2 -13.75 -5.65 -13.9 -6.8 -13.9 -6.9 -11.25 -6.95 -10.85 -7.6 -9.95 -8.35 -8.9 -8.45 -8.6 -8.6 -8.2 -8.8 -7.25 -9.0 -6.3 -9.15 -5.8 -9.55 -4.75 -10.2 -4.35 -10.45 -4.15 -10.5 -4.05 -10.65 -3.9 -10.65 -3.5 -10.65 -3.05 -9.95 -2.1 -9.3 -1.1 -9.3 -0.9 -9.3 -0.7 -9.45 -0.4 -9.6 -0.05 -9.6 0.15 -9.6 0.6 -9.05 1.45 -8.5 2.3 -8.5 2.65 -8.5 4.35 -9.65 4.95 -9.9 5.1 -10.4 5.3 -10.75 5.5 -10.75 5.85 -10.75 6.15 -10.6 6.45 L-10.25 7.15 -9.4 7.2 Q-9.0 7.35 -8.9 7.65 -8.85 7.75 -8.85 8.15 -8.85 8.5 -9.6 10.3 -9.6 11.3 -9.25 12.05 -9.0 12.55 -8.4 13.25 -7.75 13.95 -7.55 14.3 -7.2 14.95 -7.2 15.7 -7.2 16.55 -6.55 17.05 L-5.95 17.5 Q-5.6 17.8 -5.4 18.1 -5.2 18.4 -4.75 19.25 -4.3 20.1 -3.8 20.65 -2.95 20.9 -1.45 21.05 -1.3 21.35 -0.8 21.35 -0.4 21.35 0.0 21.25 0.05 21.2 0.1 21.2 0.2 21.2 0.2 21.3 1.55 20.9 2.65 20.5 L4.2 19.4 Q5.5 18.3 5.65 17.45 5.8 16.45 6.7 15.5 7.15 15.1 7.3 14.85 7.55 14.4 7.55 13.9 L7.25 12.55 Q7.0 11.2 7.0 10.45 7.0 10.2 7.45 10.0 8.1 9.65 8.6 9.2 8.5 8.25 8.85 7.7 L9.9 6.15 Q10.55 5.15 10.55 4.7 10.55 4.0 10.2 3.5 9.55 2.85 9.15 2.15 8.55 1.3 8.7 0.9 L8.95 0.45 Q9.05 0.15 9.05 -0.25 8.8 -0.45 8.55 -0.75 8.1 -1.35 8.1 -2.4 8.1 -3.35 7.9 -3.7 7.75 -4.0 7.75 -4.5 L8.25 -5.95 Q8.75 -7.35 8.75 -8.05 8.75 -9.05 8.6 -9.75 8.45 -10.35 7.9 -11.65 L7.55 -11.3 Q7.2 -11.05 6.95 -11.05 6.15 -11.05 5.65 -12.55 L5.25 -13.75 Q5.0 -14.35 4.7 -14.55 3.55 -15.4 0.55 -17.05 M2.6 -9.15 Q2.55 -9.3 2.3 -9.5 1.95 -9.8 1.9 -10.0 L1.85 -10.05 2.05 -10.05 Q2.6 -10.05 2.9 -9.55 3.15 -9.2 3.15 -9.0 L3.1 -8.9 Q3.05 -9.0 2.8 -9.25 L2.6 -9.15 M2.5 -8.3 Q2.3 -8.15 2.3 -8.0 2.3 -7.6 2.85 -7.15 3.35 -6.7 3.35 -6.0 L3.9 -5.9 4.15 -5.7 4.2 -5.7 4.25 -5.65 Q4.35 -5.55 4.35 -5.35 4.35 -5.1 4.25 -4.95 4.15 -4.8 4.05 -4.8 3.85 -5.0 3.5 -5.45 3.15 -5.95 3.0 -6.3 2.85 -6.55 2.3 -6.95 1.8 -7.25 1.8 -7.6 1.8 -7.8 2.2 -8.35 L2.5 -8.75 2.45 -8.45 2.5 -8.3 M4.85 -9.15 L4.7 -9.05 4.65 -9.0 4.7 -8.9 4.6 -8.85 4.45 -8.7 4.4 -9.0 Q4.3 -10.75 4.05 -11.55 4.3 -11.1 4.75 -9.4 L4.85 -9.15 M4.9 -8.1 Q4.95 -8.0 5.0 -7.95 L5.25 -7.95 Q5.5 -7.4 5.8 -7.0 L5.75 -6.8 Q4.8 -7.4 4.5 -8.6 L4.6 -8.4 4.9 -8.1 M2.6 -2.55 L2.8 -2.75 2.95 -2.75 Q3.05 -2.75 3.05 -2.55 3.05 -2.0 2.8 -1.75 2.65 -1.8 2.6 -1.9 L2.6 -2.55 M6.3 0.25 Q6.75 0.65 6.75 0.95 L6.75 1.2 6.7 1.25 6.6 1.25 Q5.85 0.9 5.55 0.65 5.15 0.3 5.15 0.0 5.15 -0.25 5.35 -1.4 L5.55 -2.55 Q5.55 -2.75 5.4 -2.85 5.2 -2.95 5.2 -3.15 5.2 -3.5 5.4 -4.15 5.65 -4.85 5.85 -5.05 5.9 -4.8 5.85 -4.35 L5.75 -3.75 5.8 -3.35 Q5.6 -3.35 5.55 -3.25 L5.45 -3.1 Q5.45 -3.0 5.65 -2.75 5.8 -2.55 5.8 -2.35 L5.75 -1.95 Q5.75 -1.8 5.75 -1.7 5.95 -1.7 6.1 -1.85 6.2 -1.75 6.2 -1.6 6.2 -1.55 5.95 -1.1 L5.9 -0.95 Q5.7 -1.25 5.7 -1.5 L5.65 -1.5 5.55 -1.0 Q5.5 -0.65 5.5 -0.45 5.5 -0.15 5.7 0.05 5.8 0.15 5.95 0.2 5.95 0.4 5.95 0.45 L6.05 0.45 6.2 0.25 6.3 0.25 M11.4 -2.55 L11.35 -2.65 10.95 -4.7 Q11.35 -3.7 11.4 -2.55 M13.9 1.45 L14.0 1.25 13.85 1.7 13.9 1.45 M4.4 1.0 L4.45 1.05 Q4.45 1.65 4.2 1.8 4.0 1.95 3.7 1.8 3.45 1.65 3.2 1.35 3.0 1.0 3.0 0.7 3.0 0.15 3.45 0.15 3.85 0.15 4.2 0.65 L4.4 0.9 Q4.25 0.8 4.05 0.65 L3.8 0.5 Q3.75 0.55 3.7 0.65 3.8 0.85 4.15 1.2 4.2 1.2 4.3 1.1 L4.4 1.0 M3.05 6.35 Q2.85 6.85 2.55 7.0 2.45 6.85 2.3 6.45 2.1 6.05 2.1 5.9 2.15 5.55 2.25 5.2 2.45 4.5 2.8 4.35 L3.2 4.45 3.2 4.5 3.25 4.85 Q3.25 5.35 3.15 5.8 L3.1 5.7 2.8 6.2 Q2.85 6.3 3.05 6.35 M4.35 6.25 L4.4 6.0 Q4.45 5.95 4.65 5.9 L5.1 6.0 5.15 6.25 5.15 6.65 Q4.6 6.65 4.35 6.25 M5.1 10.45 Q4.95 10.55 4.85 10.7 4.7 10.9 4.7 11.15 L4.7 11.2 Q4.55 11.55 4.55 11.7 4.55 12.35 4.8 12.8 L5.65 14.25 Q5.8 14.2 5.85 14.1 5.9 14.0 5.9 13.75 L5.9 13.8 Q5.9 14.4 5.7 14.75 5.45 15.2 5.35 16.0 L5.2 16.05 Q4.8 15.8 5.0 15.05 5.2 14.25 5.1 14.05 L4.5 13.1 Q4.15 12.55 4.15 12.2 4.15 11.45 5.05 9.95 L6.15 8.25 6.2 8.15 Q6.2 8.3 6.3 8.6 6.4 8.95 6.4 9.15 L5.7 10.4 5.55 10.65 5.5 10.45 5.7 9.7 5.65 9.7 Q5.5 9.85 5.1 10.45 M5.75 13.25 L5.75 13.2 Q5.75 13.15 5.55 12.95 L5.5 12.8 5.45 12.7 Q5.85 13.15 5.9 13.65 L5.75 13.25 M2.85 13.0 L2.6 12.95 2.45 13.0 2.9 14.0 3.1 14.0 Q3.05 14.2 2.9 14.25 2.7 14.25 2.45 14.1 1.85 13.65 1.85 12.95 1.85 12.65 2.05 12.55 2.15 12.5 2.3 12.5 2.8 12.5 2.95 13.05 L2.85 13.0 M9.6 11.7 L9.95 11.85 Q10.25 12.0 10.25 12.25 10.25 12.65 9.1 14.35 L8.2 15.55 Q8.8 14.5 9.05 13.9 8.85 13.25 9.35 12.2 L9.6 11.7 M9.55 14.75 L9.6 14.65 9.6 14.75 9.55 14.75 M9.35 15.15 L9.3 15.3 9.3 15.25 9.35 15.15 M7.2 17.35 L6.95 17.85 Q7.05 17.55 7.2 17.35 M7.45 17.0 L7.45 16.95 7.4 17.1 7.45 17.0 M-8.15 -14.95 Q-8.0 -15.6 -7.75 -16.0 -7.45 -16.45 -6.9 -16.6 L-5.85 -16.7 -5.45 -16.75 -5.55 -16.3 Q-5.6 -15.75 -6.15 -15.35 -6.4 -15.15 -7.3 -14.75 -8.0 -14.4 -8.35 -14.1 -8.3 -14.45 -8.15 -14.95 M-12.0 -0.3 Q-12.2 -0.6 -12.2 -0.7 L-12.2 -0.85 -11.95 -1.2 -11.65 -1.7 Q-11.7 -0.85 -12.0 -0.25 L-12.0 -0.3 M-11.8 -3.7 L-11.9 -3.95 Q-12.3 -5.2 -12.3 -5.85 -11.8 -6.4 -11.3 -7.15 -11.0 -7.55 -10.75 -7.95 L-10.7 -7.8 Q-10.55 -7.05 -10.55 -6.85 -10.55 -6.7 -11.15 -5.4 -11.8 -4.05 -11.8 -3.85 L-11.8 -3.7 M-1.6 -13.65 Q-1.4 -13.9 -1.3 -14.0 L-1.05 -13.9 Q-0.95 -13.8 -0.95 -13.6 -0.95 -13.4 -1.2 -12.95 -1.45 -12.35 -1.8 -12.25 -1.95 -12.35 -1.95 -12.4 -2.05 -12.5 -2.05 -12.7 -2.05 -12.95 -1.75 -13.4 L-1.55 -13.6 -1.6 -13.65 M-5.6 -10.0 L-5.55 -10.1 Q-5.35 -10.45 -5.4 -10.7 L-5.45 -10.9 -5.25 -11.25 Q-5.1 -11.45 -3.95 -12.5 -4.45 -12.05 -4.65 -11.35 -4.75 -10.95 -4.9 -9.95 -5.0 -9.1 -5.2 -8.7 -5.5 -8.1 -6.3 -7.8 -5.4 -8.45 -5.4 -9.0 L-5.6 -10.0 M-3.6 -9.3 L-3.1 -9.6 -2.95 -9.55 Q-2.9 -9.5 -2.9 -9.3 -2.9 -9.15 -3.15 -8.65 -3.45 -8.15 -3.75 -7.8 -4.55 -6.7 -4.55 -7.85 -4.05 -7.75 -3.65 -8.25 -3.3 -8.7 -3.3 -9.0 L-3.6 -9.3 M-7.4 -4.4 L-7.4 -4.55 -7.3 -5.65 -7.25 -5.75 Q-7.2 -5.8 -6.95 -5.8 -6.9 -5.8 -6.55 -4.9 -6.25 -3.95 -6.25 -3.9 -6.25 -3.55 -6.9 -2.25 -7.6 -1.0 -7.6 -0.45 L-7.7 -0.45 Q-7.75 -0.85 -7.75 -1.2 -7.75 -1.75 -7.65 -2.25 L-7.55 -2.1 Q-7.25 -2.3 -7.05 -3.1 -6.85 -3.75 -6.85 -4.2 -6.85 -4.45 -6.95 -4.6 L-7.15 -4.9 Q-7.25 -4.8 -7.4 -4.4 M-5.2 -3.6 L-5.55 -3.65 -5.65 -3.85 Q-5.6 -4.15 -5.4 -4.25 L-4.95 -4.05 -4.9 -4.1 Q-4.85 -4.1 -4.85 -3.9 -4.85 -3.55 -4.9 -3.65 L-5.2 -3.6 M-4.85 -0.6 Q-4.8 -0.55 -4.6 -0.05 -4.35 0.5 -4.35 0.6 -4.35 0.85 -4.45 1.05 -4.5 1.2 -4.7 1.35 L-5.05 0.8 Q-5.15 0.6 -5.15 0.25 -5.15 0.0 -5.1 -0.2 -5.0 -0.4 -4.85 -0.6 M-6.75 2.1 L-7.05 1.75 Q-6.95 1.75 -6.9 1.7 L-6.55 1.65 Q-5.8 1.65 -5.55 2.8 -5.4 3.35 -5.4 3.95 -5.4 4.35 -5.9 5.1 -6.35 5.85 -6.35 6.45 -6.35 6.65 -5.8 7.3 -5.25 7.95 -5.25 8.25 L-5.4 9.1 Q-5.7 9.95 -6.3 9.85 L-6.25 9.8 -6.3 9.8 Q-6.2 9.35 -6.15 8.95 L-5.95 8.95 Q-5.8 8.9 -5.75 8.75 -5.7 8.6 -5.7 8.35 -5.7 8.1 -5.75 8.05 L-5.95 7.95 Q-6.05 8.05 -6.15 8.15 L-6.35 8.2 Q-6.45 7.9 -6.65 7.65 -6.35 7.8 -6.15 7.95 L-6.45 6.95 Q-6.65 6.25 -6.65 5.9 L-6.65 5.65 -6.6 5.6 -6.7 5.6 -6.9 5.85 -6.7 5.2 -6.2 3.9 Q-6.2 3.65 -6.45 3.05 L-6.35 3.05 Q-6.15 3.3 -6.15 3.75 -6.15 3.95 -6.25 4.1 L-6.3 4.25 Q-6.05 4.1 -5.95 3.55 -5.85 3.15 -5.85 2.8 -5.85 2.5 -5.9 2.25 -6.0 1.75 -6.4 1.75 -6.45 1.75 -6.6 1.9 L-6.75 2.1 M-7.05 3.25 L-7.0 3.15 -6.8 3.05 -6.6 3.25 Q-6.55 3.35 -6.55 3.6 -6.55 3.85 -6.6 3.9 L-6.75 3.95 Q-7.1 3.95 -7.1 3.6 L-7.1 3.35 Q-7.05 3.3 -7.05 3.25 M-5.95 3.9 L-5.95 3.9 M-10.75 12.75 L-10.75 12.85 Q-10.5 13.55 -10.5 14.0 L-10.55 13.9 -10.7 13.3 -10.75 12.75 M-5.2 11.25 L-5.2 11.15 -5.05 11.05 -4.85 10.95 Q-4.55 11.05 -4.45 11.25 -4.45 11.3 -4.45 11.5 -4.45 11.65 -4.55 11.9 -4.7 12.15 -4.85 12.25 -4.95 12.1 -5.1 11.85 -5.0 11.7 -5.0 11.6 -5.0 11.4 -5.05 11.35 L-5.2 11.25 M-3.5 14.45 L-3.4 14.35 Q-3.35 14.3 -3.1 14.3 -2.8 14.3 -2.7 14.55 -2.7 14.65 -2.75 14.85 -2.75 15.7 -3.1 15.7 -3.45 15.7 -3.5 15.05 L-3.4 15.1 -3.2 15.0 Q-3.1 14.95 -3.1 14.7 -3.1 14.5 -3.2 14.45 L-3.5 14.45 M-5.9 14.85 L-6.3 13.85 Q-6.2 13.9 -5.95 14.15 -5.75 14.35 -5.55 14.35 -5.2 14.35 -4.95 14.95 -4.75 15.45 -4.75 15.6 -4.75 17.6 -5.45 16.1 L-5.5 15.9 -5.25 16.1 -5.05 16.0 Q-4.95 15.95 -4.95 15.7 -4.95 15.5 -5.05 15.25 -5.25 14.8 -5.6 14.8 -5.8 14.8 -5.9 14.85" fill="#59a5ff" fill-opacity="0.2509804" fill-rule="evenodd" stroke="none"/>
      <path d="M9.45 -14.75 Q9.2 -15.1 9.05 -15.3 8.45 -16.45 7.55 -17.25 6.75 -17.95 5.2 -18.8 4.45 -19.25 3.85 -19.85 L3.7 -20.05 5.4 -18.9 Q5.9 -18.55 6.2 -18.3 6.5 -18.15 6.8 -17.9 7.35 -17.55 7.85 -17.0 8.7 -16.2 9.05 -15.45 9.2 -15.15 9.45 -14.75 M11.55 10.8 Q11.8 10.6 12.0 10.2 12.3 9.6 12.3 9.05 12.3 8.55 12.5 7.65 L12.5 7.6 12.5 8.15 Q12.55 8.95 12.45 9.4 12.35 10.1 11.9 10.6 L11.75 10.8 Q11.0 11.75 10.5 13.15 L10.05 14.45 Q9.7 15.3 9.45 15.7 9.2 16.15 8.35 17.0 L8.05 17.3 Q7.85 17.65 7.65 18.05 7.6 18.2 7.35 18.45 L7.0 18.8 6.65 19.1 6.35 19.5 6.2 19.65 Q5.55 20.35 4.95 20.45 L4.75 20.45 Q4.35 20.4 4.3 20.35 5.05 20.1 5.65 19.75 5.9 19.5 6.05 19.2 6.2 18.85 6.35 18.2 6.55 17.5 6.75 17.15 7.05 16.6 7.65 16.2 L7.85 16.0 8.0 15.7 Q8.55 14.55 8.75 13.8 L8.9 13.0 Q8.95 12.35 9.05 12.05 9.1 11.75 9.25 11.45 L9.15 11.4 Q9.15 11.1 9.15 10.45 9.15 9.7 9.35 9.25 9.45 8.9 9.8 8.55 L10.45 7.9 Q10.85 7.45 11.1 6.75 11.25 6.4 12.0 4.75 12.4 3.9 12.4 3.15 L12.4 3.0 12.2 2.55 11.75 1.75 Q11.1 0.65 11.1 0.25 L11.25 -1.05 11.25 -1.1 11.0 -2.35 10.55 -4.9 Q10.3 -4.45 10.2 -3.1 10.1 -2.1 10.1 -1.1 10.1 -1.05 10.7 0.05 L11.55 1.55 11.45 1.55 10.4 0.2 Q10.0 -0.25 9.9 -0.5 9.75 -0.8 9.7 -1.15 L9.7 -2.3 Q9.7 -2.9 9.85 -3.65 10.05 -4.5 10.4 -4.85 L10.55 -4.9 10.4 -5.9 10.3 -6.1 Q10.1 -6.6 10.1 -7.2 10.1 -7.5 10.3 -8.35 10.5 -9.25 10.5 -9.55 10.5 -9.65 10.25 -10.55 10.0 -11.45 9.95 -11.55 9.7 -11.95 8.95 -12.3 8.25 -12.65 7.85 -13.05 7.25 -13.4 6.85 -13.95 6.0 -14.2 5.55 -14.85 5.35 -15.1 4.9 -15.95 4.55 -16.6 4.25 -17.0 3.25 -17.15 2.75 -17.8 2.45 -18.2 1.7 -18.7 0.7 -19.4 -0.05 -19.4 L-0.85 -19.0 Q-1.6 -18.65 -2.0 -18.65 -2.95 -18.65 -3.45 -18.4 L-3.75 -17.75 Q-4.1 -17.15 -4.7 -16.95 -4.9 -16.85 -5.15 -16.8 -5.4 -16.4 -5.25 -16.05 -5.4 -15.75 -6.2 -15.15 -7.0 -14.65 -7.55 -14.5 -8.05 -14.35 -8.35 -13.8 -8.45 -13.05 -9.0 -11.85 -9.8 -10.15 -9.9 -9.7 -10.05 -9.2 -10.35 -8.6 -10.1 -8.0 -10.1 -7.8 -10.1 -7.0 -10.75 -5.7 -11.4 -4.25 -11.5 -3.6 L-11.5 -3.55 -11.4 -3.9 -11.3 -3.9 -11.3 -3.25 -11.55 -2.7 Q-11.45 -2.35 -11.45 -2.1 -11.45 -2.05 -11.55 -1.85 L-11.55 -1.5 Q-11.6 -0.6 -11.9 -0.15 -11.8 0.05 -11.8 0.25 -12.0 0.35 -12.15 0.35 -11.95 0.55 -11.55 0.85 -10.6 1.6 -10.6 2.25 -10.6 2.7 -11.15 3.15 -11.65 3.55 -11.6 4.25 -11.55 4.9 -12.2 6.25 L-11.9 6.5 Q-11.7 6.7 -11.7 7.0 -11.7 7.55 -11.55 7.75 L-10.7 8.65 Q-10.55 8.85 -10.55 9.25 -10.55 9.3 -10.7 9.75 -10.9 10.15 -10.9 10.4 -10.9 10.55 -10.65 10.85 L-10.1 11.45 Q-9.3 12.4 -9.15 13.75 -9.1 14.25 -8.2 15.4 -7.35 16.55 -7.35 17.15 L-7.1 17.95 Q-6.9 18.65 -6.9 18.9 -6.75 19.25 -6.55 19.45 L-6.45 19.55 Q-7.2 19.3 -7.9 18.1 -8.7 16.65 -9.35 16.15 L-9.3 15.9 -9.3 15.85 -9.3 15.9 Q-8.8 16.25 -8.3 16.75 -8.45 16.2 -9.35 14.9 -10.2 13.55 -10.4 13.0 -10.5 12.7 -10.6 12.05 -10.7 11.4 -10.8 11.1 -10.9 10.8 -11.45 10.05 -11.9 9.35 -11.9 9.2 -11.9 8.95 -12.3 8.05 -12.6 7.35 -12.9 7.1 L-12.75 6.1 Q-12.5 4.8 -12.5 4.5 L-12.4 3.45 Q-12.3 2.6 -12.3 2.3 -12.35 1.85 -12.55 1.4 -12.85 0.7 -13.3 0.55 L-13.05 0.1 Q-12.65 -0.65 -12.65 -1.0 L-12.6 -2.7 -12.55 -4.7 Q-12.55 -4.85 -12.75 -5.2 -12.9 -5.55 -12.9 -5.7 -12.9 -6.0 -12.5 -6.6 -12.1 -7.25 -12.1 -7.95 -12.3 -8.35 -11.7 -9.15 -10.85 -10.2 -10.8 -10.3 -10.4 -11.35 -9.9 -12.8 -9.25 -14.65 -9.25 -14.9 -9.25 -15.1 -9.25 -15.25 -8.8 -16.0 -8.45 -16.45 -7.7 -17.4 -6.8 -17.65 L-5.35 -18.1 Q-4.65 -18.35 -4.6 -18.8 -4.55 -19.05 -4.1 -19.55 -3.95 -19.8 -3.85 -20.0 L-3.35 -20.35 Q-2.55 -20.95 -0.9 -20.95 0.55 -20.95 1.15 -20.75 1.55 -20.6 1.75 -20.15 2.1 -19.5 2.45 -19.15 3.1 -18.5 4.55 -17.9 8.45 -16.2 8.65 -13.85 8.65 -13.55 9.55 -12.8 10.55 -12.0 10.6 -11.85 10.75 -11.45 10.9 -10.75 L11.1 -9.7 Q11.25 -9.2 11.55 -7.45 11.9 -5.65 11.9 -5.4 L11.85 -4.9 Q11.85 -4.6 11.85 -4.4 L11.95 -4.4 12.0 -4.7 Q12.05 -3.45 12.05 -2.8 12.05 -2.35 12.55 -0.45 13.05 1.45 13.05 1.55 L12.8 2.4 Q12.55 3.25 12.55 3.5 12.55 4.6 11.9 6.2 11.85 6.35 11.8 6.8 11.7 7.25 11.45 7.6 11.2 7.85 11.0 8.35 10.85 8.75 10.85 8.95 10.85 10.3 10.45 11.85 10.1 13.25 9.45 14.6 9.8 14.25 10.2 13.2 10.7 12.05 10.9 11.75 L11.55 10.8 M12.9 5.75 L12.95 5.5 Q13.4 4.55 13.4 3.95 L13.4 3.85 13.4 3.8 13.4 4.35 Q13.3 5.15 13.0 5.6 L12.9 5.75 M13.95 0.55 L13.95 0.35 13.6 -0.9 14.05 0.1 Q14.15 0.25 14.15 0.45 14.15 0.85 14.0 1.25 L13.9 1.45 Q13.95 1.1 13.95 0.7 L13.95 0.55 M12.95 -4.4 Q12.95 -5.3 13.05 -6.25 L13.15 -5.7 Q13.15 -5.5 13.0 -4.6 L12.95 -4.4 M-10.55 -14.75 Q-10.55 -14.6 -10.65 -14.35 L-10.65 -14.4 -10.55 -14.75 M-13.45 -4.55 Q-13.25 -4.0 -13.25 -3.7 L-13.35 -3.2 -13.35 -3.55 Q-13.35 -3.9 -13.45 -4.5 L-13.45 -4.55 M-13.95 0.3 L-13.95 0.95 -13.95 1.1 -14.1 0.25 -14.05 0.05 -14.0 0.2 -13.95 0.3 M-11.05 12.1 Q-10.25 13.7 -10.25 14.4 L-10.25 14.35 Q-10.4 14.1 -10.5 14.0 -10.5 13.55 -10.75 12.85 L-10.75 12.75 -11.05 12.1 M0.15 -20.8 L-0.6 -20.35 Q-1.65 -19.7 -2.15 -19.65 -2.7 -19.6 -3.15 -18.85 L-3.3 -18.7 Q-2.25 -18.95 -1.75 -19.15 -0.85 -19.5 -0.4 -20.0 L0.25 -20.0 Q0.75 -19.95 1.25 -19.65 L1.0 -20.0 Q0.55 -20.5 0.15 -20.8 M5.1 -17.1 Q4.6 -17.2 4.15 -17.4 4.5 -17.25 4.8 -17.15 L5.1 -17.1 M4.45 -16.95 Q5.1 -16.0 6.2 -15.15 L6.35 -15.05 6.3 -15.3 6.1 -16.05 6.6 -15.1 6.75 -14.75 6.85 -14.65 6.7 -15.05 Q6.05 -16.25 5.55 -16.95 L5.65 -16.8 5.5 -16.95 4.45 -16.95 M2.6 -9.15 L2.8 -9.25 Q3.05 -9.0 3.1 -8.9 L3.1 -8.7 2.95 -8.8 Q2.85 -8.75 2.8 -8.6 2.85 -8.5 3.0 -8.35 2.95 -8.2 2.8 -8.15 L2.55 -8.2 Q2.5 -8.2 2.5 -8.3 L2.45 -8.45 2.5 -8.75 2.5 -8.8 2.55 -9.1 2.6 -9.15 M3.9 -5.9 Q3.8 -5.95 3.75 -6.05 L3.75 -6.2 Q3.7 -6.2 3.75 -6.2 L4.0 -6.25 Q4.25 -6.25 4.4 -6.15 L4.65 -5.95 4.6 -5.55 Q4.45 -5.55 4.25 -5.65 L4.2 -5.7 Q4.35 -5.7 4.45 -5.8 4.45 -6.1 4.25 -6.2 4.1 -6.15 4.05 -6.05 L4.0 -6.0 Q4.0 -5.85 4.15 -5.7 L3.9 -5.9 M4.7 -8.9 L4.65 -9.0 4.7 -9.05 4.85 -9.15 4.9 -9.15 Q5.05 -9.05 5.2 -8.75 5.3 -8.45 5.3 -8.2 L5.3 -8.0 5.25 -7.95 5.0 -7.95 Q4.95 -8.0 4.9 -8.1 5.1 -8.15 5.15 -8.25 L5.05 -8.55 Q5.0 -8.7 4.8 -9.0 L4.7 -8.9 M5.8 -3.35 L5.85 -3.35 Q6.15 -3.35 6.35 -3.05 6.45 -2.85 6.45 -2.65 6.45 -2.3 6.3 -2.05 L6.1 -1.85 Q5.95 -1.7 5.75 -1.7 5.75 -1.8 5.75 -1.95 L5.8 -2.35 Q5.8 -2.55 5.65 -2.75 5.45 -3.0 5.45 -3.1 L5.55 -3.25 Q5.6 -3.35 5.8 -3.35 M5.9 -0.95 L6.05 -0.7 6.3 -0.3 6.2 -0.35 6.05 -0.15 Q5.95 0.0 5.95 0.2 5.8 0.15 5.7 0.05 5.5 -0.15 5.5 -0.45 5.5 -0.65 5.55 -1.0 L5.65 -1.5 5.7 -1.5 Q5.7 -1.25 5.9 -0.95 M6.4 -0.05 L6.45 0.2 6.3 0.25 6.2 0.25 6.4 -0.05 M5.6 -3.25 L5.75 -2.75 Q5.85 -2.45 6.05 -2.25 6.15 -2.25 6.25 -2.4 6.35 -2.55 6.35 -2.75 6.35 -3.05 6.15 -3.15 L5.6 -3.25 M11.4 -2.55 Q11.35 -3.7 10.95 -4.7 L11.35 -2.65 11.4 -2.55 M5.5 10.45 L5.45 10.4 Q5.25 10.4 5.1 10.45 5.5 9.85 5.65 9.7 L5.7 9.7 5.5 10.45 M4.7 11.2 Q4.75 11.4 5.15 12.25 L5.55 13.25 Q5.55 13.45 5.5 13.55 5.45 13.6 5.5 13.65 5.6 13.6 5.65 13.55 5.75 13.45 5.75 13.25 L5.9 13.65 5.9 13.75 Q5.9 14.0 5.85 14.1 5.8 14.2 5.65 14.25 L4.8 12.8 Q4.55 12.35 4.55 11.7 4.55 11.55 4.7 11.2 M5.55 12.95 L5.45 12.8 Q5.15 12.5 5.15 12.25 L5.2 12.15 Q5.25 12.35 5.45 12.7 L5.5 12.8 5.55 12.95 M3.1 14.0 L2.9 14.0 2.45 13.0 2.6 12.95 2.85 13.0 2.8 13.0 Q2.7 13.05 2.65 13.2 L2.9 13.5 3.1 13.5 3.15 13.25 3.15 13.2 3.2 13.45 3.15 14.0 3.1 14.0 M9.6 11.7 L9.35 12.2 Q8.85 13.25 9.05 13.9 8.8 14.5 8.2 15.55 L9.1 14.35 Q10.25 12.65 10.25 12.25 10.25 12.0 9.95 11.85 L9.6 11.7 M9.55 14.75 L9.55 14.7 8.15 16.05 Q7.55 16.7 7.55 17.4 L7.6 17.65 7.6 17.75 7.7 17.75 Q7.7 17.35 8.35 16.45 L8.45 16.65 Q8.75 16.45 9.05 16.1 9.4 15.7 9.5 15.45 9.45 15.35 9.3 15.3 L9.35 15.15 9.6 14.85 9.6 14.75 9.6 14.65 9.55 14.75 M9.25 15.3 L9.3 15.25 9.3 15.3 9.25 15.3 M7.45 17.0 L7.4 17.1 7.45 16.95 7.45 17.0 M7.2 17.35 Q7.05 17.55 6.95 17.85 L7.2 17.35 M-8.15 -14.95 Q-8.3 -14.45 -8.35 -14.1 -8.0 -14.4 -7.3 -14.75 -6.4 -15.15 -6.15 -15.35 -5.6 -15.75 -5.55 -16.3 L-5.45 -16.75 -5.85 -16.7 -6.9 -16.6 Q-7.45 -16.45 -7.75 -16.0 -8.0 -15.6 -8.15 -14.95 M-11.8 -3.7 L-11.8 -3.85 Q-11.8 -4.05 -11.15 -5.4 -10.55 -6.7 -10.55 -6.85 -10.55 -7.05 -10.7 -7.8 L-10.75 -7.95 Q-11.0 -7.55 -11.3 -7.15 -11.8 -6.4 -12.3 -5.85 -12.3 -5.2 -11.9 -3.95 L-11.8 -3.7 M-12.0 -0.3 L-12.0 -0.25 Q-11.7 -0.85 -11.65 -1.7 L-11.95 -1.2 -12.2 -0.85 -12.2 -0.7 Q-12.2 -0.6 -12.0 -0.3 M-1.75 -13.4 L-1.9 -13.25 Q-2.0 -13.2 -2.2 -13.2 -2.35 -13.3 -2.35 -13.5 L-2.3 -13.45 -1.9 -13.45 Q-1.9 -13.3 -1.9 -13.7 L-1.9 -13.8 -1.85 -13.8 -1.75 -13.75 -1.6 -13.65 -1.55 -13.6 -1.75 -13.4 M-4.05 -9.15 L-3.7 -9.35 -3.6 -9.3 -3.3 -9.0 Q-3.3 -8.7 -3.65 -8.25 -4.05 -7.75 -4.55 -7.85 L-4.6 -7.85 -4.6 -7.95 -4.65 -8.15 Q-4.2 -8.05 -3.95 -8.35 -3.7 -8.6 -3.7 -8.85 -3.7 -9.05 -3.75 -9.1 L-3.8 -9.05 -4.05 -9.15 M-7.65 -2.25 L-7.65 -2.9 Q-7.5 -3.15 -7.4 -3.5 -7.3 -3.85 -7.3 -4.15 -7.3 -4.4 -7.4 -4.4 -7.25 -4.8 -7.15 -4.9 L-6.95 -4.6 Q-6.85 -4.45 -6.85 -4.2 -6.85 -3.75 -7.05 -3.1 -7.25 -2.3 -7.55 -2.1 L-7.65 -2.25 M-6.15 8.95 L-6.2 8.95 Q-6.3 8.95 -6.3 8.75 L-6.0 8.75 -5.95 8.7 -5.9 8.5 Q-5.9 8.3 -5.95 8.25 L-6.0 8.15 -6.15 8.15 Q-6.05 8.05 -5.95 7.95 L-5.75 8.05 Q-5.7 8.1 -5.7 8.35 -5.7 8.6 -5.75 8.75 -5.8 8.9 -5.95 8.95 L-6.15 8.95 M-6.65 7.65 L-7.05 7.45 Q-7.4 7.35 -7.4 6.9 L-7.3 7.0 -7.15 7.0 -7.05 6.5 -7.0 5.9 -6.9 5.85 -6.7 5.6 -6.6 5.6 -6.65 5.65 -6.65 5.9 Q-6.65 6.25 -6.45 6.95 L-6.15 7.95 Q-6.35 7.8 -6.65 7.65 M-6.75 2.1 L-6.6 1.9 Q-6.45 1.75 -6.4 1.75 -6.0 1.75 -5.9 2.25 -5.85 2.5 -5.85 2.8 -5.85 3.15 -5.95 3.55 -6.05 4.1 -6.3 4.25 L-6.25 4.1 Q-6.15 3.95 -6.15 3.75 -6.15 3.3 -6.35 3.05 L-6.15 2.95 Q-6.15 3.0 -6.15 2.65 -6.15 2.5 -6.3 2.3 -6.45 2.15 -6.65 2.0 L-6.75 2.1 M-10.45 14.4 L-10.3 14.8 -10.2 15.05 Q-10.4 14.75 -10.45 14.4 M-5.1 11.85 L-5.15 11.85 Q-5.3 12.05 -5.4 12.0 L-5.6 11.95 Q-5.65 11.9 -5.65 11.7 -5.65 11.65 -5.5 11.45 -5.35 11.3 -5.2 11.25 L-5.05 11.35 Q-5.0 11.4 -5.0 11.6 -5.0 11.7 -5.1 11.85 M-13.25 1.7 L-13.1 1.7 -12.95 1.9 Q-12.9 2.0 -12.9 2.25 -12.9 2.45 -12.95 2.5 L-12.95 2.55 -13.05 2.2 -13.25 1.7 M-3.5 15.05 Q-3.7 14.95 -3.75 14.8 -3.7 14.6 -3.5 14.45 L-3.2 14.45 Q-3.1 14.5 -3.1 14.7 -3.1 14.95 -3.2 15.0 L-3.4 15.1 -3.5 15.05 M-5.5 15.9 L-5.55 15.85 -5.7 15.65 -5.6 15.5 Q-5.55 15.35 -5.55 15.2 L-5.6 15.05 Q-5.6 15.0 -5.8 15.0 L-6.0 15.0 -5.9 14.9 -5.9 14.85 Q-5.8 14.8 -5.6 14.8 -5.25 14.8 -5.05 15.25 -4.95 15.5 -4.95 15.7 -4.95 15.95 -5.05 16.0 L-5.25 16.1 -5.5 15.9" fill="#8cc1ff" fill-opacity="0.3764706" fill-rule="evenodd" stroke="none"/>
      <path d="M0.75 -21.95 Q1.5 -21.85 2.0 -21.65 2.55 -21.4 3.0 -20.85 L3.7 -20.05 3.85 -19.85 Q4.45 -19.25 5.2 -18.8 6.75 -17.95 7.55 -17.25 8.45 -16.45 9.05 -15.3 9.2 -15.1 9.45 -14.75 L10.05 -14.0 Q9.15 -14.75 9.0 -15.05 8.65 -15.75 8.35 -16.15 7.85 -16.8 7.15 -17.25 5.7 -18.2 4.2 -19.5 2.65 -20.95 1.8 -21.65 L1.5 -21.6 1.5 -21.45 Q1.25 -21.55 1.15 -21.6 1.05 -21.65 0.75 -21.95 M-12.7 9.15 L-12.25 9.65 Q-12.15 9.65 -12.1 9.5 -12.4 9.1 -12.9 7.55 -13.35 6.05 -13.35 5.55 -13.35 5.15 -13.2 4.3 -13.0 3.45 -13.0 3.0 -13.0 2.7 -13.3 2.05 -13.6 1.45 -13.6 0.9 -13.6 0.2 -13.2 -1.85 -12.8 -3.9 -12.8 -4.1 -12.8 -4.3 -13.05 -5.2 L-13.35 -6.05 Q-13.35 -7.95 -12.55 -9.6 L-11.65 -11.3 Q-11.05 -12.5 -10.55 -13.7 -10.0 -15.2 -9.75 -15.6 -9.15 -16.65 -8.1 -17.35 -7.85 -17.55 -6.7 -18.15 -5.7 -18.6 -5.4 -18.9 L-4.9 -19.85 Q-4.45 -20.6 -3.8 -20.6 L-3.6 -20.6 -3.75 -20.85 -3.9 -20.95 -3.5 -21.15 Q-2.2 -21.65 -0.75 -21.65 L0.3 -21.5 1.4 -21.35 1.6 -21.35 Q1.95 -21.05 2.8 -20.15 3.65 -19.15 4.1 -18.85 L6.2 -17.45 Q7.55 -16.55 7.9 -16.1 8.2 -15.6 8.65 -14.7 9.1 -13.9 9.95 -13.35 10.8 -12.8 11.25 -11.95 11.5 -11.5 11.85 -10.45 12.3 -9.45 12.45 -7.75 12.55 -6.85 12.55 -4.95 L12.55 -3.5 Q12.55 -2.7 12.6 -2.15 12.65 -1.95 13.1 -0.8 13.55 0.25 13.55 0.75 L12.85 4.65 Q12.7 5.55 12.1 6.85 11.55 7.9 11.55 8.7 11.55 9.3 11.75 9.6 11.8 9.9 11.3 10.9 L11.55 10.8 10.9 11.75 Q10.7 12.05 10.2 13.2 9.8 14.25 9.45 14.6 10.1 13.25 10.45 11.85 10.85 10.3 10.85 8.95 10.85 8.75 11.0 8.35 11.2 7.85 11.45 7.6 11.7 7.25 11.8 6.8 11.85 6.35 11.9 6.2 12.55 4.6 12.55 3.5 12.55 3.25 12.8 2.4 L13.05 1.55 Q13.05 1.45 12.55 -0.45 12.05 -2.35 12.05 -2.8 12.05 -3.45 12.0 -4.7 L11.95 -4.4 11.85 -4.4 Q11.85 -4.6 11.85 -4.9 L11.9 -5.4 Q11.9 -5.65 11.55 -7.45 11.25 -9.2 11.1 -9.7 L10.9 -10.75 Q10.75 -11.45 10.6 -11.85 10.55 -12.0 9.55 -12.8 8.65 -13.55 8.65 -13.85 8.45 -16.2 4.55 -17.9 3.1 -18.5 2.45 -19.15 2.1 -19.5 1.75 -20.15 1.55 -20.6 1.15 -20.75 0.55 -20.95 -0.9 -20.95 -2.55 -20.95 -3.35 -20.35 L-3.85 -20.0 Q-3.95 -19.8 -4.1 -19.55 -4.55 -19.05 -4.6 -18.8 -4.65 -18.35 -5.35 -18.1 L-6.8 -17.65 Q-7.7 -17.4 -8.45 -16.45 -8.8 -16.0 -9.25 -15.25 -9.25 -15.1 -9.25 -14.9 -9.25 -14.65 -9.9 -12.8 -10.4 -11.35 -10.8 -10.3 -10.85 -10.2 -11.7 -9.15 -12.3 -8.35 -12.1 -7.95 -12.1 -7.25 -12.5 -6.6 -12.9 -6.0 -12.9 -5.7 -12.9 -5.55 -12.75 -5.2 -12.55 -4.85 -12.55 -4.7 L-12.6 -2.7 -12.65 -1.0 Q-12.65 -0.65 -13.05 0.1 L-13.3 0.55 Q-12.85 0.7 -12.55 1.4 -12.35 1.85 -12.3 2.3 -12.3 2.6 -12.4 3.45 L-12.5 4.5 Q-12.5 4.8 -12.75 6.1 L-12.9 7.1 Q-12.6 7.35 -12.3 8.05 -11.9 8.95 -11.9 9.2 -11.9 9.35 -11.45 10.05 -10.9 10.8 -10.8 11.1 -10.7 11.4 -10.6 12.05 -10.5 12.7 -10.4 13.0 -10.2 13.55 -9.35 14.9 -8.45 16.2 -8.3 16.75 -8.8 16.25 -9.3 15.9 L-9.3 15.85 -9.7 15.6 -9.95 14.9 Q-10.1 14.6 -10.25 14.4 -10.25 13.7 -11.05 12.1 L-11.65 11.0 -12.7 9.15 M12.5 7.65 L12.55 7.4 12.5 7.6 12.5 7.65 M12.95 5.5 L13.15 4.8 13.4 3.85 13.4 3.95 Q13.4 4.55 12.95 5.5 M13.8 1.75 Q13.95 1.05 13.95 0.55 L13.95 0.7 Q13.95 1.1 13.9 1.45 L13.85 1.7 13.8 1.75 M-5.05 -20.65 L-5.05 -20.6 -5.0 -20.6 -5.15 -20.45 -5.05 -20.65 M-5.4 -20.0 L-5.65 -19.55 Q-5.8 -19.35 -6.7 -18.95 L-6.75 -18.95 -5.4 -20.0 M-13.3 -8.0 Q-13.3 -7.7 -13.3 -7.5 L-13.35 -7.15 -13.3 -8.0 M-13.25 -3.7 Q-13.25 -3.35 -13.6 -1.9 -13.9 -0.65 -13.95 0.3 L-14.0 0.2 -14.05 0.05 Q-14.1 -0.25 -14.1 -0.5 L-13.35 -3.2 -13.25 -3.7 M-13.95 0.95 Q-13.9 2.0 -13.7 3.15 -14.0 2.45 -14.0 1.75 L-13.95 1.1 -13.95 0.95 M-13.45 5.45 L-13.45 5.65 Q-13.45 6.0 -13.5 6.7 L-13.5 6.75 -13.6 6.3 Q-13.6 6.15 -13.45 5.45 M-13.55 7.55 L-13.45 7.95 -13.55 7.8 -13.55 7.55 M3.1 -8.7 Q3.25 -8.6 3.25 -8.5 L3.2 -8.3 3.0 -8.3 3.0 -8.35 Q2.85 -8.5 2.8 -8.6 2.85 -8.75 2.95 -8.8 L3.1 -8.7 M4.45 -8.7 L4.6 -8.85 4.7 -8.9 4.8 -9.0 Q5.0 -8.7 5.05 -8.55 L5.15 -8.25 Q5.1 -8.15 4.9 -8.1 L4.6 -8.4 4.5 -8.6 4.45 -8.65 4.45 -8.7 M4.15 -5.7 Q4.0 -5.85 4.0 -6.0 L4.05 -6.05 Q4.1 -6.15 4.25 -6.2 4.45 -6.1 4.45 -5.8 4.35 -5.7 4.2 -5.7 L4.15 -5.7 M6.3 -0.3 L6.5 -0.2 6.4 -0.05 6.2 0.25 6.05 0.45 5.95 0.45 Q5.95 0.4 5.95 0.2 5.95 0.0 6.05 -0.15 L6.2 -0.35 6.3 -0.3 M5.6 -3.25 L6.15 -3.15 Q6.35 -3.05 6.35 -2.75 6.35 -2.55 6.25 -2.4 6.15 -2.25 6.05 -2.25 5.85 -2.45 5.75 -2.75 L5.6 -3.25 M4.4 0.9 L4.4 1.0 4.3 1.1 Q4.2 1.2 4.15 1.2 3.8 0.85 3.7 0.65 3.75 0.55 3.8 0.5 L4.05 0.65 Q4.25 0.8 4.4 0.9 M3.15 5.8 L3.2 5.9 3.25 6.1 3.25 6.35 3.05 6.35 Q2.85 6.3 2.8 6.2 L3.1 5.7 3.15 5.8 M5.1 10.45 Q5.25 10.4 5.45 10.4 L5.5 10.45 5.55 10.65 5.65 10.9 5.6 10.9 5.4 10.85 Q5.15 10.95 5.15 11.15 5.2 11.3 5.45 11.4 L5.5 11.4 5.4 11.7 Q5.25 12.0 5.2 12.15 L5.15 12.25 Q5.15 12.5 5.45 12.8 L5.55 12.95 Q5.75 13.15 5.75 13.2 L5.75 13.25 Q5.75 13.45 5.65 13.55 5.6 13.6 5.5 13.65 5.45 13.6 5.5 13.55 5.55 13.45 5.55 13.25 L5.15 12.25 Q4.75 11.4 4.7 11.2 L4.7 11.15 Q4.7 10.9 4.85 10.7 4.95 10.55 5.1 10.45 M2.85 13.0 L2.95 13.05 Q3.1 13.1 3.15 13.2 L3.15 13.25 3.1 13.5 2.9 13.5 2.65 13.2 Q2.7 13.05 2.8 13.0 L2.85 13.0 M8.35 16.45 Q7.7 17.35 7.7 17.75 L7.6 17.75 7.6 17.65 7.55 17.4 Q7.55 16.7 8.15 16.05 L9.55 14.7 9.55 14.75 9.6 14.75 9.6 14.85 9.35 15.15 9.3 15.25 9.25 15.3 9.2 15.25 Q8.9 15.4 8.7 15.75 L8.35 16.4 8.35 16.45 M-2.35 -13.5 L-2.45 -13.65 Q-2.4 -13.85 -2.15 -13.9 L-1.95 -13.9 Q-1.9 -13.9 -1.9 -13.8 L-1.9 -13.7 Q-1.9 -13.3 -1.9 -13.45 L-2.3 -13.45 -2.35 -13.5 M-5.45 -10.9 L-5.4 -10.7 Q-5.35 -10.45 -5.55 -10.1 L-5.6 -10.0 Q-5.75 -9.75 -5.9 -9.7 L-6.0 -9.95 Q-5.7 -10.55 -5.55 -11.0 L-5.45 -11.0 -5.45 -10.9 M-4.65 -8.15 L-4.75 -8.15 -4.8 -8.35 -4.8 -8.5 -4.55 -8.4 -4.4 -8.45 Q-4.25 -8.45 -4.25 -8.7 -4.25 -8.9 -4.3 -8.95 L-4.35 -9.0 -4.55 -8.95 Q-4.4 -9.15 -4.1 -9.15 L-4.05 -9.15 -3.8 -9.05 -3.75 -9.1 Q-3.7 -9.05 -3.7 -8.85 -3.7 -8.6 -3.95 -8.35 -4.2 -8.05 -4.65 -8.15 M-7.65 -2.9 L-7.9 -2.95 Q-8.0 -2.95 -8.0 -3.2 -8.0 -3.35 -7.9 -3.6 -7.85 -3.65 -7.8 -3.75 -7.7 -3.9 -7.7 -4.1 L-7.4 -4.4 Q-7.3 -4.4 -7.3 -4.15 -7.3 -3.85 -7.4 -3.5 -7.5 -3.15 -7.65 -2.9 M-6.3 8.75 L-6.65 8.7 Q-6.65 8.65 -6.7 8.5 L-6.65 8.25 -6.35 8.2 -6.15 8.15 -6.0 8.15 -5.95 8.25 Q-5.9 8.3 -5.9 8.5 L-5.95 8.7 -6.0 8.75 -6.3 8.75 M-7.4 6.9 L-7.4 6.5 Q-7.4 6.25 -7.35 6.05 -7.3 5.9 -7.15 5.75 L-7.05 5.75 -7.0 5.9 -7.05 6.5 -7.15 7.0 -7.3 7.0 -7.4 6.9 M-6.45 3.05 Q-6.7 3.1 -6.85 2.9 -7.1 2.7 -7.1 2.5 -7.1 2.45 -6.95 2.25 L-6.75 2.1 -6.65 2.0 Q-6.45 2.15 -6.3 2.3 -6.15 2.5 -6.15 2.65 -6.15 3.0 -6.15 2.95 L-6.35 3.05 -6.45 3.05 M-13.25 1.7 L-13.05 2.2 -12.95 2.55 -12.95 2.5 Q-12.9 2.45 -12.9 2.25 -12.9 2.0 -12.95 1.9 L-13.1 1.7 -13.25 1.7 M-5.7 15.65 L-5.8 15.7 Q-5.95 15.65 -6.0 15.55 L-6.1 15.4 -6.05 15.1 -6.05 15.05 -6.0 15.0 -5.8 15.0 Q-5.6 15.0 -5.6 15.05 L-5.55 15.2 Q-5.55 15.35 -5.6 15.5 L-5.7 15.65" fill="#bfdcff" fill-opacity="0.3764706" fill-rule="evenodd" stroke="none"/>
      <path d="M0.75 -21.95 Q1.05 -21.65 1.15 -21.6 1.25 -21.55 1.5 -21.45 L1.5 -21.6 1.8 -21.65 Q2.65 -20.95 4.2 -19.5 5.7 -18.2 7.15 -17.25 7.85 -16.8 8.35 -16.15 8.65 -15.75 9.0 -15.05 9.15 -14.75 10.05 -14.0 L10.1 -13.95 Q11.05 -13.2 11.25 -12.8 13.0 -8.95 13.1 -7.85 13.15 -7.4 13.05 -6.4 L13.05 -6.25 Q12.95 -5.3 12.95 -4.4 L12.95 -4.0 Q12.95 -3.2 13.45 -1.5 L13.6 -0.9 13.95 0.35 13.95 0.55 Q13.95 1.05 13.8 1.75 13.65 2.65 13.4 3.8 L13.4 3.85 13.15 4.8 12.95 5.5 12.9 5.75 Q12.65 6.65 12.55 7.4 L12.5 7.65 Q12.3 8.55 12.3 9.05 12.3 9.6 12.0 10.2 11.8 10.6 11.55 10.8 L11.3 10.9 Q11.8 9.9 11.75 9.6 11.55 9.3 11.55 8.7 11.55 7.9 12.1 6.85 12.7 5.55 12.85 4.65 L13.55 0.75 Q13.55 0.25 13.1 -0.8 12.65 -1.95 12.6 -2.15 12.55 -2.7 12.55 -3.5 L12.55 -4.95 Q12.55 -6.85 12.45 -7.75 12.3 -9.45 11.85 -10.45 11.5 -11.5 11.25 -11.95 10.8 -12.8 9.95 -13.35 9.1 -13.9 8.65 -14.7 8.2 -15.6 7.9 -16.1 7.55 -16.55 6.2 -17.45 L4.1 -18.85 Q3.65 -19.15 2.8 -20.15 1.95 -21.05 1.6 -21.35 L1.4 -21.35 0.3 -21.5 -0.75 -21.65 Q-2.2 -21.65 -3.5 -21.15 L-3.9 -20.95 -3.75 -20.85 -3.6 -20.6 -3.8 -20.6 Q-4.45 -20.6 -4.9 -19.85 L-5.4 -18.9 Q-5.7 -18.6 -6.7 -18.15 -7.85 -17.55 -8.1 -17.35 -9.15 -16.65 -9.75 -15.6 -10.0 -15.2 -10.55 -13.7 -11.05 -12.5 -11.65 -11.3 L-12.55 -9.6 Q-13.35 -7.95 -13.35 -6.05 L-13.05 -5.2 Q-12.8 -4.3 -12.8 -4.1 -12.8 -3.9 -13.2 -1.85 -13.6 0.2 -13.6 0.9 -13.6 1.45 -13.3 2.05 -13.0 2.7 -13.0 3.0 -13.0 3.45 -13.2 4.3 -13.35 5.15 -13.35 5.55 -13.35 6.05 -12.9 7.55 -12.4 9.1 -12.1 9.5 -12.15 9.65 -12.25 9.65 L-12.7 9.15 Q-13.3 8.5 -13.45 7.95 L-13.55 7.55 Q-13.6 7.25 -13.5 6.75 L-13.5 6.7 Q-13.45 6.0 -13.45 5.65 L-13.45 5.45 Q-13.45 4.45 -13.7 3.2 L-13.7 3.15 Q-13.9 2.0 -13.95 0.95 L-13.95 0.3 Q-13.9 -0.65 -13.6 -1.9 -13.25 -3.35 -13.25 -3.7 -13.25 -4.0 -13.45 -4.55 L-13.45 -4.6 Q-13.7 -5.25 -13.7 -5.5 -13.7 -5.95 -13.5 -6.5 L-13.35 -7.15 -13.3 -7.5 Q-13.3 -7.7 -13.3 -8.0 L-13.4 -8.6 -13.55 -9.45 Q-13.55 -9.85 -12.05 -12.1 L-11.5 -12.95 -10.7 -14.35 -10.65 -14.35 Q-10.55 -14.6 -10.55 -14.75 L-10.55 -14.8 Q-10.55 -15.3 -9.45 -16.7 -8.45 -18.05 -8.0 -18.35 -7.75 -18.5 -6.75 -18.95 L-6.7 -18.95 Q-5.8 -19.35 -5.65 -19.55 L-5.4 -20.0 -5.2 -20.4 -5.15 -20.45 -5.0 -20.6 -5.05 -20.6 -5.05 -20.65 Q-5.05 -21.5 -3.75 -21.85 -2.8 -22.05 -0.65 -22.05 L0.65 -22.0 0.75 -21.95 M-10.25 14.4 Q-10.1 14.6 -9.95 14.9 L-9.7 15.6 -9.65 15.7 -9.7 15.8 -9.75 15.8 Q-9.75 16.05 -9.8 15.75 -10.0 15.6 -10.2 15.05 L-10.3 14.8 -10.45 14.4 -10.65 13.8 -10.55 13.9 -10.5 14.0 Q-10.4 14.1 -10.25 14.35 L-10.25 14.4 M5.5 11.4 L5.45 11.4 Q5.2 11.3 5.15 11.15 5.15 10.95 5.4 10.85 L5.6 10.9 5.65 10.9 Q5.7 10.95 5.7 11.2 5.7 11.55 5.65 11.4 L5.5 11.4 M9.3 15.3 Q9.45 15.35 9.5 15.45 9.4 15.7 9.05 16.1 8.75 16.45 8.45 16.65 L8.35 16.45 8.35 16.4 8.7 15.75 Q8.9 15.4 9.2 15.25 L9.25 15.3 9.3 15.3 M-4.8 -8.5 L-4.85 -8.5 -4.95 -8.75 -4.85 -8.95 -4.55 -8.95 -4.35 -9.0 -4.3 -8.95 Q-4.25 -8.9 -4.25 -8.7 -4.25 -8.45 -4.4 -8.45 L-4.55 -8.4 -4.8 -8.5 M-7.9 -3.6 Q-7.95 -3.55 -8.0 -3.55 L-8.05 -3.8 -7.95 -4.1 -7.8 -4.35 -7.7 -4.35 -7.7 -4.1 Q-7.7 -3.9 -7.8 -3.75 -7.85 -3.65 -7.9 -3.6" fill="#ffffff" fill-opacity="0.49803922" fill-rule="evenodd" stroke="none"/>
    </g>
  </defs>
</svg>
