<?xml version="1.0" encoding="UTF-8" standalone="no"?>
<svg xmlns:ffdec="https://www.free-decompiler.com/flash" xmlns:xlink="http://www.w3.org/1999/xlink" ffdec:objectType="frame" height="214.5px" width="155.3px" xmlns="http://www.w3.org/2000/svg">
  <g transform="matrix(1.0, 0.0, 0.0, 1.0, 73.65, 214.5)">
    <use ffdec:characterId="289" height="214.5" transform="matrix(1.0, 0.0, 0.0, 1.0, -73.65, -214.5)" width="155.3" xlink:href="#shape0"/>
  </g>
  <defs>
    <g id="shape0" transform="matrix(1.0, 0.0, 0.0, 1.0, 73.65, 214.5)">
      <path d="M30.05 -198.4 L33.4 -195.2 Q35.65 -193.3 37.85 -190.3 41.2 -185.65 42.35 -181.95 L43.15 -180.3 49.05 -175.2 Q53.45 -170.25 53.45 -161.15 L53.3 -159.0 53.3 -158.8 52.85 -148.05 52.9 -146.95 Q56.9 -139.0 56.9 -133.85 L56.9 -132.85 58.25 -129.65 58.35 -129.7 Q61.25 -124.95 64.8 -119.85 66.9 -116.25 66.9 -111.35 L66.65 -109.75 66.65 -108.75 Q66.65 -106.15 61.95 -101.8 58.8 -98.85 56.55 -97.85 L57.15 -97.3 Q59.3 -95.9 60.9 -93.3 63.2 -89.45 63.65 -84.85 66.2 -82.0 68.0 -77.5 70.15 -72.05 70.15 -66.95 L69.95 -63.65 70.05 -63.25 71.15 -61.45 Q72.0 -60.8 72.7 -59.5 L73.65 -56.75 Q73.65 -53.85 72.8 -51.45 72.6 -48.85 71.65 -47.55 70.7 -46.35 68.05 -45.35 L64.5 -44.0 60.75 -41.95 Q60.65 -38.95 57.05 -34.35 L55.2 -32.3 54.95 -32.05 55.15 -31.7 Q57.25 -28.45 57.25 -26.3 L57.1 -25.05 Q56.45 -22.1 52.4 -18.7 47.2 -14.35 41.55 -14.35 L39.35 -14.55 Q36.95 -11.1 32.95 -8.0 25.2 -1.95 14.75 -0.55 L9.1 0.0 2.45 -0.1 2.0 -0.4 1.95 -0.5 Q-0.1 -0.75 -1.2 -1.2 -1.5 -0.45 -1.5 -1.85 -1.5 -3.2 2.55 -4.45 L8.85 -6.45 -4.45 -6.6 Q-4.95 -6.8 -5.25 -7.05 L-5.75 -7.05 Q-5.6 -6.9 -6.35 -6.9 L-7.2 -7.05 Q-7.4 -7.1 -7.4 -7.85 -7.4 -8.45 -5.35 -10.1 L-3.9 -11.1 -2.3 -12.95 -1.3 -15.55 Q0.15 -19.95 0.15 -23.15 L0.15 -23.8 Q-0.4 -26.15 -1.45 -29.05 L-1.7 -29.65 -4.3 -34.85 Q-10.7 -37.45 -12.5 -42.65 L-15.35 -50.6 -15.55 -51.3 Q-18.55 -54.65 -23.75 -61.45 -31.5 -71.75 -35.95 -76.9 L-40.8 -79.05 Q-48.5 -78.5 -52.55 -77.05 -56.25 -75.2 -58.5 -74.55 L-62.45 -73.5 -65.3 -72.3 -66.0 -72.6 -65.05 -72.9 -67.15 -72.4 -63.3 -75.4 Q-59.6 -78.25 -57.6 -79.95 L-60.15 -79.1 -60.7 -78.85 -61.25 -78.6 -61.85 -78.35 -64.2 -77.4 -72.35 -74.1 Q-72.9 -73.75 -72.9 -74.5 L-72.9 -74.55 -73.0 -74.55 -72.6 -75.9 -73.1 -76.2 -72.3 -77.15 Q-71.2 -81.8 -70.35 -87.75 L-68.5 -100.85 Q-68.45 -105.85 -63.35 -112.5 L-69.25 -107.0 -70.85 -105.25 -71.45 -105.15 Q-71.75 -104.4 -71.75 -105.8 L-71.7 -107.2 Q-72.3 -109.25 -72.3 -111.5 -72.3 -118.4 -63.1 -130.55 -57.75 -137.6 -53.0 -141.25 L-53.95 -140.85 -54.45 -140.75 Q-57.85 -138.6 -61.5 -135.4 -69.3 -128.0 -71.9 -125.95 -72.95 -131.1 -64.15 -138.3 L-61.7 -140.15 -63.05 -140.3 -61.7 -140.7 -63.65 -140.7 -63.7 -140.85 -63.7 -140.7 -68.6 -140.8 Q-70.15 -140.0 -71.6 -139.7 L-73.55 -141.25 Q-73.55 -142.3 -68.65 -144.8 L-68.5 -144.85 -69.35 -144.85 -73.1 -144.95 Q-73.1 -145.2 -73.65 -145.65 L-73.65 -146.75 -73.2 -146.7 -66.15 -150.3 -64.45 -151.15 Q-59.55 -153.45 -56.9 -154.3 L-59.0 -154.95 -61.3 -155.95 -62.0 -155.95 Q-62.65 -156.2 -62.9 -156.65 L-62.6 -157.0 -62.65 -157.05 -62.4 -157.75 -62.0 -157.75 Q-58.4 -161.45 -50.8 -160.3 L-52.25 -162.8 Q-55.3 -168.4 -56.0 -172.15 -56.75 -174.2 -56.75 -175.3 -56.75 -178.25 -56.25 -178.45 -52.45 -172.85 -46.45 -166.4 L-47.35 -171.05 -48.05 -176.8 Q-49.85 -183.5 -49.85 -189.45 -49.85 -197.3 -48.9 -201.3 L-47.65 -205.05 -47.3 -206.4 Q-46.3 -209.9 -45.15 -212.0 -44.3 -213.65 -43.4 -214.5 L-43.1 -214.0 Q-30.75 -210.5 -22.75 -199.9 L-22.5 -199.6 -22.4 -199.65 Q-21.8 -199.15 -19.45 -197.85 -9.8 -195.6 -3.4 -189.2 -0.95 -187.6 0.15 -186.45 1.9 -184.55 3.1 -180.8 L7.4 -180.2 Q12.75 -179.9 18.4 -176.8 L18.4 -177.0 18.65 -181.8 18.6 -182.45 Q18.6 -195.4 22.1 -199.1 25.1 -202.2 30.05 -198.4 M49.15 -162.15 L49.05 -162.85 Q47.8 -167.0 45.1 -170.95 L43.5 -173.1 Q34.55 -180.55 29.95 -186.85 L31.05 -186.35 30.95 -186.65 30.6 -187.0 30.8 -187.15 30.7 -187.6 29.85 -188.95 30.1 -189.0 30.55 -188.45 30.5 -189.4 Q30.5 -190.75 30.65 -190.3 L30.8 -190.4 39.5 -183.3 37.6 -187.7 36.15 -190.35 Q33.6 -193.65 30.05 -195.85 28.15 -196.65 26.05 -196.65 24.55 -194.8 23.35 -189.5 L21.0 -180.4 20.95 -180.25 20.95 -180.2 20.85 -179.55 20.35 -177.3 20.25 -177.05 19.75 -176.0 Q25.5 -173.25 30.05 -169.8 L34.25 -166.25 34.3 -166.2 34.8 -165.7 34.9 -165.65 35.1 -165.6 36.15 -165.05 36.1 -165.1 Q40.0 -164.5 43.9 -160.5 46.7 -157.65 49.55 -153.05 L49.4 -158.5 49.15 -162.15 M63.35 -110.35 L63.4 -111.35 Q63.4 -113.8 61.1 -120.05 L60.6 -121.4 Q58.65 -121.95 56.65 -125.7 54.5 -127.95 53.8 -129.9 53.4 -130.95 53.3 -133.2 L51.9 -136.9 50.4 -141.8 Q46.4 -149.15 41.7 -156.55 46.15 -148.35 46.1 -138.5 L47.2 -132.55 47.05 -132.1 Q44.1 -136.55 41.7 -147.35 L40.95 -150.45 Q39.3 -154.7 37.6 -157.7 34.75 -162.8 29.9 -167.2 25.4 -170.15 21.25 -172.25 14.0 -175.9 3.6 -179.15 L3.7 -178.75 7.05 -170.8 8.3 -169.5 7.5 -169.65 7.5 -169.6 7.4 -169.4 7.1 -169.75 Q2.25 -171.0 0.4 -175.45 -1.2 -181.75 -3.05 -184.85 -4.35 -187.1 -12.55 -191.95 -17.45 -194.85 -20.1 -196.9 L-21.3 -197.85 Q-17.5 -191.95 -12.6 -180.4 L-12.9 -179.45 -12.7 -178.5 -12.6 -177.1 -12.65 -175.95 -12.7 -175.8 -12.6 -174.9 Q-12.6 -174.25 -13.1 -173.65 L-17.3 -183.6 -17.65 -184.3 -19.85 -187.35 -23.95 -193.25 -23.95 -193.35 -24.75 -194.5 -26.25 -196.6 -26.3 -196.7 -26.4 -196.85 -26.45 -196.9 -28.65 -199.75 -38.05 -206.95 -43.0 -210.65 -43.9 -207.45 Q-45.45 -201.85 -45.8 -198.7 L-45.9 -197.3 Q-45.9 -182.65 -45.05 -178.15 L-44.95 -177.75 -44.75 -176.8 -37.7 -158.5 -37.2 -157.5 -36.25 -156.1 -36.2 -156.0 -35.85 -155.7 -34.85 -154.75 -33.5 -154.1 -33.6 -154.1 -33.75 -154.15 -34.6 -154.25 -34.7 -154.2 Q-34.7 -153.9 -35.0 -153.9 L-35.45 -154.2 Q-35.8 -154.3 -36.15 -154.55 L-36.85 -154.65 -36.95 -154.6 -37.3 -154.7 -40.8 -155.3 -43.4 -155.7 -46.55 -156.1 -45.95 -154.9 -40.1 -153.85 -56.1 -151.5 -56.5 -151.45 -57.75 -151.2 -59.3 -150.9 -61.15 -149.6 -64.75 -147.3 -63.7 -147.1 -62.9 -147.4 Q-62.8 -145.9 -64.55 -144.0 L-60.2 -144.35 Q-56.7 -144.5 -53.7 -144.25 -50.35 -145.25 -47.2 -144.85 L-47.05 -144.55 -46.3 -144.8 -46.05 -144.85 -46.55 -144.45 -48.0 -143.3 -47.6 -143.2 -47.2 -143.1 -47.05 -142.75 -48.15 -142.5 -49.3 -142.25 -49.85 -141.8 Q-58.8 -131.2 -62.15 -126.35 -64.8 -122.6 -66.65 -119.2 -68.35 -115.3 -69.6 -110.95 -67.75 -114.2 -62.85 -118.9 -55.95 -125.55 -52.1 -126.5 L-52.4 -125.9 -51.65 -126.25 -52.95 -124.75 -51.75 -125.8 -51.65 -125.7 -53.3 -123.95 Q-54.55 -120.9 -58.75 -115.2 L-61.4 -111.3 Q-63.3 -106.85 -64.35 -101.8 L-65.75 -93.35 -65.4 -90.1 Q-65.4 -85.4 -66.8 -81.0 L-67.35 -79.4 -64.7 -80.25 -61.1 -81.25 Q-55.8 -83.4 -53.8 -83.6 L-53.65 -83.8 -53.55 -83.25 -53.15 -83.5 -53.55 -83.0 -53.55 -82.95 Q-53.55 -82.15 -55.0 -80.65 L-54.95 -80.4 -57.65 -77.4 -55.45 -78.35 -52.45 -80.1 Q-47.3 -82.6 -41.85 -82.8 L-40.55 -82.95 -38.7 -83.1 -33.5 -82.45 Q-32.15 -82.25 -30.85 -81.7 L-30.7 -81.65 -30.6 -81.6 Q-29.3 -81.15 -28.85 -80.7 L-28.85 -80.55 Q-30.15 -81.4 -33.4 -81.55 L-37.15 -81.55 -38.9 -81.2 -37.7 -80.8 Q-35.05 -80.2 -33.05 -78.6 -28.3 -75.95 -25.7 -73.0 -27.25 -73.3 -29.9 -74.3 -25.8 -70.6 -22.3 -65.75 L-17.6 -59.05 -17.3 -59.05 -16.6 -57.5 -13.35 -52.6 -12.95 -52.3 -14.3 -57.1 -15.45 -59.7 -15.35 -59.95 -14.95 -59.4 -15.05 -59.8 -14.75 -59.85 -13.35 -57.1 -11.3 -53.0 Q-10.35 -50.65 -9.85 -48.55 -7.95 -45.4 -6.15 -40.3 L-5.9 -39.6 -4.85 -39.2 -4.15 -39.0 -3.95 -38.95 3.35 -38.0 Q7.9 -37.45 10.4 -35.95 10.95 -35.6 11.45 -35.2 L11.7 -35.0 11.75 -34.95 11.8 -34.9 12.0 -34.7 Q13.35 -33.4 14.3 -31.55 L15.45 -28.85 12.45 -30.25 13.35 -28.9 9.7 -31.05 Q5.15 -33.45 3.25 -33.3 L3.2 -33.45 Q2.95 -34.25 0.9 -33.9 L1.45 -32.0 Q2.55 -28.0 2.55 -26.55 L2.5 -25.4 2.55 -24.15 Q2.55 -19.8 1.05 -15.35 L-0.5 -10.5 -0.45 -9.95 Q-0.25 -9.45 0.55 -9.45 L0.8 -9.55 6.45 -9.65 7.85 -9.7 9.7 -9.6 17.7 -10.4 Q16.0 -8.85 11.9 -6.6 L11.85 -6.55 Q9.7 -4.5 9.7 -3.8 L9.7 -3.6 Q21.9 -5.4 27.3 -8.4 L27.75 -8.65 27.9 -8.75 30.0 -10.1 31.5 -11.15 36.6 -15.25 Q34.0 -15.8 31.05 -18.5 L28.8 -20.9 28.15 -21.55 Q25.25 -24.4 22.55 -27.9 L22.2 -28.2 Q20.3 -30.0 18.25 -31.0 L18.45 -31.35 21.0 -29.95 21.35 -30.35 29.45 -24.5 Q37.8 -18.8 40.6 -18.8 44.45 -18.8 50.2 -21.85 L53.45 -23.7 Q54.8 -25.2 54.9 -26.95 L54.9 -27.3 54.1 -29.45 53.85 -29.8 52.65 -29.2 Q51.0 -28.6 48.95 -28.45 L48.05 -28.45 47.85 -28.45 45.05 -28.6 42.85 -29.0 Q35.8 -30.0 28.8 -34.25 L27.8 -34.9 25.2 -36.65 22.65 -38.6 19.0 -40.2 6.6 -41.1 3.2 -41.75 Q0.5 -42.1 -1.75 -43.75 L-2.25 -44.15 Q-3.85 -45.5 -4.0 -46.4 L-4.15 -46.6 Q-5.1 -48.05 -5.1 -49.85 -5.1 -52.1 -4.65 -53.9 -4.1 -56.4 -2.8 -56.55 L-2.45 -56.55 -2.75 -55.5 -2.55 -55.6 -1.85 -51.85 Q-0.9 -54.05 1.0 -56.0 4.6 -59.8 10.8 -61.9 L11.2 -62.0 11.9 -65.2 Q10.05 -65.3 9.0 -68.65 8.45 -70.4 8.25 -72.3 L8.3 -74.55 8.85 -74.7 10.1 -73.25 10.45 -73.8 10.5 -73.6 10.55 -73.55 10.55 -73.5 10.65 -73.2 11.2 -71.65 11.8 -70.6 12.65 -69.1 12.85 -70.05 12.25 -73.1 Q11.65 -75.35 11.65 -76.9 L11.7 -77.35 11.7 -77.4 12.35 -77.15 11.75 -79.5 12.7 -79.65 13.4 -78.0 Q15.45 -72.9 15.45 -69.0 15.45 -68.0 14.35 -64.5 L13.95 -63.3 Q12.95 -60.35 12.15 -59.15 L12.8 -53.25 13.6 -45.95 Q14.0 -46.8 15.05 -47.5 L15.9 -48.05 16.7 -48.45 Q17.95 -49.3 19.4 -49.35 L19.7 -49.4 19.85 -49.35 20.9 -49.1 21.1 -48.45 21.8 -51.55 Q23.75 -60.2 23.75 -62.2 23.75 -63.25 24.2 -64.45 L24.85 -64.45 25.55 -62.65 25.6 -62.65 25.6 -62.4 26.25 -59.5 26.2 -58.4 26.55 -55.5 24.9 -49.15 Q23.25 -43.1 23.25 -41.6 L23.55 -40.4 Q26.15 -39.4 29.3 -37.35 L31.65 -35.8 33.05 -35.05 Q34.8 -34.2 36.45 -33.5 L40.75 -33.1 43.5 -32.5 43.85 -32.4 46.25 -31.9 Q50.5 -31.9 54.65 -37.45 L54.95 -37.8 54.7 -37.8 54.1 -37.5 53.85 -37.85 Q52.3 -37.95 51.2 -38.4 49.15 -38.9 48.6 -39.45 L49.05 -39.8 Q48.1 -40.75 48.1 -41.6 L48.15 -42.7 48.6 -42.75 50.9 -41.05 Q51.7 -40.55 52.85 -40.15 L54.1 -39.8 54.75 -40.55 54.95 -40.75 Q56.6 -42.45 60.5 -44.7 L64.65 -46.95 64.75 -47.05 64.5 -47.1 Q62.55 -47.7 60.55 -49.25 58.95 -50.5 55.0 -54.6 48.9 -60.85 44.2 -61.1 L43.85 -60.8 41.45 -58.35 41.2 -57.9 44.1 -51.3 44.1 -51.0 44.1 -50.9 44.1 -50.7 44.05 -50.65 44.05 -50.55 44.0 -50.5 43.8 -49.95 Q42.35 -50.75 40.5 -54.25 38.85 -57.25 38.8 -58.1 L38.8 -58.2 38.8 -58.4 38.8 -58.9 Q38.65 -61.35 37.0 -64.75 L35.3 -67.85 Q33.05 -69.6 29.3 -71.4 22.9 -74.4 21.7 -75.25 18.2 -77.65 18.2 -80.9 L18.8 -87.25 19.35 -93.6 Q19.35 -95.35 18.4 -96.6 L17.4 -97.8 Q16.05 -98.5 14.95 -99.3 L15.5 -100.0 15.3 -100.2 15.85 -100.3 Q17.25 -101.3 19.55 -100.05 L19.7 -99.95 Q21.65 -99.2 22.55 -96.9 23.25 -95.2 23.4 -91.8 L23.4 -90.1 22.75 -86.6 22.15 -83.3 22.1 -83.1 22.3 -82.1 22.75 -81.3 24.55 -79.3 30.2 -74.55 31.15 -73.7 Q35.3 -71.5 37.05 -69.9 40.15 -67.15 40.15 -63.5 L39.9 -62.05 39.4 -61.0 39.3 -61.3 39.15 -59.35 39.65 -60.05 39.5 -61.0 39.75 -60.2 41.35 -61.7 41.8 -62.1 42.75 -62.7 Q44.4 -63.8 45.65 -64.1 L45.4 -64.15 45.4 -64.85 45.55 -65.75 Q45.55 -68.8 43.65 -71.35 L39.5 -75.8 37.7 -77.95 Q34.7 -79.65 33.7 -80.85 31.45 -83.4 31.45 -88.0 L32.15 -92.9 32.85 -97.4 Q32.55 -97.8 31.7 -98.0 29.85 -98.5 29.85 -99.1 29.85 -99.85 30.6 -100.05 L30.85 -100.65 30.25 -100.95 Q35.55 -105.0 35.95 -97.5 L35.3 -87.9 Q35.3 -86.6 35.7 -85.45 36.15 -84.2 37.05 -83.15 L37.2 -83.0 Q38.2 -81.9 41.0 -79.85 46.65 -75.65 46.65 -70.8 L46.6 -69.65 Q47.0 -68.0 47.05 -66.0 L47.1 -65.8 47.25 -67.65 47.55 -67.65 47.8 -66.0 47.4 -64.0 47.45 -64.0 49.6 -64.3 51.2 -63.7 52.15 -63.0 Q56.15 -59.7 62.05 -59.7 63.6 -59.7 65.6 -60.5 L65.85 -60.6 65.25 -65.7 65.5 -66.5 65.8 -67.85 64.45 -72.0 63.9 -73.6 63.2 -77.65 62.95 -76.45 62.65 -77.25 61.95 -79.1 61.7 -77.9 Q61.15 -75.2 60.5 -74.4 L60.45 -74.2 59.95 -74.1 59.6 -82.6 59.45 -82.8 Q59.45 -86.95 57.0 -91.8 54.45 -96.8 50.8 -98.55 L49.8 -98.95 49.65 -99.0 49.7 -99.0 49.85 -99.0 51.3 -99.0 51.35 -99.0 52.4 -98.95 52.4 -99.0 Q52.4 -99.6 54.1 -100.75 L57.9 -103.25 58.45 -103.65 58.75 -103.85 58.95 -104.0 59.1 -104.1 59.25 -104.25 59.4 -104.35 59.5 -104.45 59.6 -104.5 Q61.6 -106.25 62.55 -108.05 L63.1 -109.3 63.2 -109.7 63.2 -109.75 63.35 -110.35 M-22.5 -161.2 L-23.4 -160.7 Q-24.2 -159.6 -25.25 -159.6 L-26.55 -159.65 -26.3 -159.25 Q-26.45 -158.95 -27.45 -158.7 L-27.75 -159.05 Q-28.45 -159.2 -29.05 -159.65 L-30.25 -160.9 -30.65 -161.25 -30.15 -158.65 -30.1 -158.5 -30.2 -158.15 -30.0 -157.35 -30.2 -156.95 -30.4 -157.1 -30.65 -157.35 -31.05 -157.9 -32.45 -160.4 Q-33.5 -162.85 -33.5 -163.95 L-33.2 -166.0 -33.2 -166.05 -33.35 -166.6 -33.35 -167.4 Q-34.05 -169.4 -34.3 -171.65 L-34.3 -171.95 Q-34.15 -172.25 -33.3 -172.25 -32.15 -172.25 -29.55 -167.6 -26.95 -163.0 -25.6 -163.0 L-24.75 -163.05 -24.6 -163.35 -24.0 -164.8 -23.65 -167.1 -23.6 -168.05 Q-30.25 -192.55 -35.25 -197.05 -36.75 -195.4 -37.3 -193.2 L-37.65 -188.55 Q-37.65 -186.75 -36.65 -184.15 L-37.95 -185.85 -38.15 -184.35 -38.55 -184.35 Q-39.7 -188.75 -39.7 -191.15 -39.7 -194.25 -39.5 -194.8 L-39.25 -195.4 -39.0 -196.5 -38.45 -196.55 -37.05 -198.0 -37.45 -198.05 Q-38.5 -198.05 -39.3 -197.5 -40.75 -196.5 -41.0 -196.4 L-41.5 -196.6 -42.35 -197.1 Q-40.8 -200.35 -39.0 -201.25 L-38.4 -201.45 Q-37.05 -201.9 -35.55 -200.95 L-35.55 -201.3 Q-35.55 -201.7 -35.9 -202.2 -31.8 -200.2 -28.25 -193.7 -25.15 -188.05 -24.1 -183.15 L-24.0 -182.6 -23.75 -180.85 -23.7 -180.45 -22.75 -176.65 -22.55 -175.75 -22.2 -174.05 Q-20.6 -168.3 -20.6 -165.95 -20.6 -163.7 -21.55 -162.25 L-22.5 -161.2 M-29.25 -101.45 Q-29.25 -106.3 -25.3 -111.9 -20.9 -118.2 -19.9 -124.4 L-19.5 -124.4 -19.35 -123.25 -19.25 -123.25 -18.9 -122.05 -18.8 -121.7 -18.8 -121.6 -18.65 -121.6 -18.6 -120.9 Q-18.6 -116.6 -22.05 -111.15 -25.55 -105.65 -25.55 -102.75 L-25.55 -102.55 -23.45 -97.85 -23.4 -97.75 -23.05 -97.05 -21.15 -95.1 -18.5 -93.4 -16.95 -92.6 -16.0 -92.2 -15.15 -91.85 -14.4 -91.55 -14.1 -91.45 -13.5 -91.2 -12.85 -91.0 -9.4 -89.8 -8.0 -89.35 -7.65 -89.2 -6.65 -88.85 -2.7 -88.05 Q1.15 -86.6 1.85 -82.95 2.2 -82.0 2.2 -80.9 L1.95 -78.0 1.65 -78.0 Q1.2 -78.45 0.55 -80.3 -0.95 -81.75 -2.75 -83.0 L-9.85 -86.15 -14.4 -87.75 -21.15 -89.1 Q-22.65 -90.05 -24.1 -92.1 L-25.8 -93.7 -26.05 -94.0 -26.15 -94.1 Q-29.25 -96.85 -29.25 -101.4 L-29.25 -101.45 M40.65 -119.1 L40.75 -121.65 40.3 -125.35 40.5 -125.35 40.85 -124.1 40.9 -125.5 40.9 -125.7 41.0 -127.1 40.8 -128.4 41.05 -128.4 41.15 -128.05 41.25 -128.4 41.55 -128.45 Q42.2 -126.65 44.8 -120.85 L45.15 -120.1 Q45.85 -118.5 45.85 -114.1 L45.7 -111.1 45.3 -109.95 Q44.75 -109.1 42.65 -107.85 42.25 -106.75 38.05 -105.3 L37.8 -105.1 Q36.6 -104.3 34.05 -104.05 L32.2 -103.55 32.75 -103.45 31.85 -103.45 31.2 -103.45 31.2 -103.5 Q24.8 -103.9 20.25 -107.55 L18.4 -106.2 Q14.3 -103.5 9.55 -103.5 L-5.9 -103.95 Q-2.3 -106.05 -1.75 -106.05 L9.55 -105.75 Q11.45 -105.75 13.7 -106.5 L12.95 -106.5 12.8 -106.5 Q9.1 -106.5 6.65 -108.2 L5.9 -108.75 Q4.45 -109.95 3.55 -111.75 2.65 -112.5 2.25 -114.85 L2.15 -116.6 2.1 -117.25 Q1.75 -118.2 1.75 -118.8 L1.9 -119.8 1.8 -122.05 Q1.9 -123.3 3.15 -123.95 L3.45 -124.65 7.3 -124.65 7.7 -124.65 8.65 -124.65 8.35 -125.0 8.15 -125.25 7.0 -126.5 7.45 -126.15 7.4 -126.2 5.1 -128.95 -0.1 -132.8 -3.2 -134.65 Q-6.35 -136.2 -9.75 -136.95 L-10.05 -137.05 -10.4 -137.1 Q-10.95 -136.75 -12.5 -136.7 L-15.3 -136.65 -16.0 -136.6 -15.75 -137.0 Q-15.2 -137.75 -14.25 -138.3 -14.15 -141.2 -11.0 -140.85 -8.85 -140.6 -5.25 -138.9 L-3.1 -137.8 Q2.1 -135.7 7.4 -130.9 L7.75 -130.55 8.4 -129.95 11.55 -126.65 11.6 -126.6 Q15.4 -123.8 19.9 -115.5 25.25 -108.75 36.75 -109.2 L38.75 -109.2 39.75 -109.75 40.2 -110.0 40.3 -110.0 40.65 -119.1 M55.0 -108.25 L55.5 -109.75 Q55.5 -114.6 53.9 -117.9 51.4 -122.45 49.45 -127.3 L50.95 -126.15 55.05 -120.85 55.15 -120.7 55.3 -120.4 56.15 -118.6 Q58.2 -114.0 58.45 -109.85 L58.45 -108.8 Q58.45 -106.5 55.25 -102.85 52.9 -100.2 50.95 -99.35 L49.9 -99.05 49.3 -99.0 48.85 -99.15 Q48.75 -99.2 48.75 -100.0 48.75 -101.45 52.15 -104.85 L52.4 -105.1 53.8 -106.6 55.0 -108.25 M38.6 -161.35 L38.15 -162.05 37.75 -162.45 38.6 -161.35 M11.3 -117.9 Q10.75 -116.75 10.75 -115.35 L10.75 -115.05 11.1 -114.05 11.25 -113.7 Q12.1 -112.35 14.05 -112.35 L14.9 -112.7 14.95 -112.7 15.35 -113.3 14.8 -114.25 13.9 -114.1 Q12.85 -114.1 12.85 -115.35 12.85 -116.65 13.25 -117.25 L13.1 -117.6 12.35 -119.2 Q11.75 -118.75 11.3 -117.9 M10.9 -121.75 L10.3 -121.75 7.75 -121.65 4.65 -121.8 4.6 -121.5 4.3 -119.45 Q4.3 -116.1 6.1 -112.85 8.25 -108.95 12.15 -108.35 14.2 -108.65 17.25 -110.55 L16.5 -111.5 16.2 -111.95 Q15.1 -110.85 13.45 -110.85 9.9 -110.85 8.9 -112.85 8.5 -113.55 8.5 -115.15 8.5 -116.6 9.35 -118.25 10.3 -120.05 11.8 -120.35 L11.05 -121.55 10.9 -121.75 M42.0 -98.8 L39.9 -100.15 39.85 -100.75 45.15 -98.55 45.8 -98.1 Q48.85 -96.0 50.75 -92.55 53.2 -88.0 53.2 -82.55 L52.7 -79.6 52.05 -76.8 51.9 -76.5 51.4 -81.15 Q50.85 -85.6 50.05 -88.3 49.15 -91.35 47.2 -93.9 45.15 -96.6 42.0 -98.8 M46.3 -63.0 L46.25 -62.95 46.4 -62.95 47.1 -62.85 46.3 -63.0 M46.65 -48.65 L46.6 -48.9 46.7 -49.0 46.5 -49.55 Q46.5 -50.1 46.75 -50.5 L47.5 -49.5 Q48.35 -49.5 48.8 -48.3 L49.2 -46.65 49.7 -48.15 50.05 -49.9 Q50.05 -53.4 45.7 -55.65 L45.75 -55.45 45.9 -54.3 45.6 -54.25 45.3 -54.6 45.0 -53.5 Q44.4 -53.75 44.25 -54.25 L44.2 -55.2 44.25 -56.15 44.4 -56.4 44.35 -56.55 44.55 -56.65 44.65 -57.0 Q47.8 -57.35 49.8 -54.95 51.4 -53.0 51.4 -50.95 L51.35 -49.75 51.4 -48.3 50.7 -45.9 49.7 -44.0 49.3 -43.65 49.15 -43.75 49.1 -43.75 48.55 -44.35 48.0 -45.05 48.0 -45.0 47.85 -45.25 Q47.05 -46.6 46.65 -48.65 M54.45 -58.5 L53.75 -58.85 54.2 -58.35 55.8 -56.55 Q57.6 -54.55 62.15 -51.5 66.4 -48.7 67.15 -48.7 69.85 -48.7 71.1 -52.2 L71.8 -55.55 71.8 -55.95 71.8 -56.4 Q71.45 -57.6 69.75 -59.15 L68.65 -60.15 67.5 -59.0 67.0 -58.15 66.3 -58.7 65.95 -58.85 Q65.7 -58.95 65.5 -58.7 L65.25 -58.0 59.9 -57.4 55.1 -58.25 54.5 -58.5 54.45 -58.5 M69.85 -62.95 L69.85 -63.15 69.65 -62.6 69.4 -62.2 70.0 -62.05 69.85 -62.95 M9.1 -58.05 Q5.15 -56.25 2.3 -52.05 L1.0 -49.75 Q0.55 -47.7 0.55 -45.6 L0.55 -45.5 Q2.1 -44.95 4.15 -44.55 L12.8 -43.1 12.95 -43.05 12.7 -43.8 12.2 -45.3 11.1 -48.4 Q9.7 -52.45 9.7 -54.35 L9.8 -56.55 9.1 -58.05 M38.35 -67.5 L37.15 -68.15 37.7 -67.5 Q38.95 -65.95 39.25 -64.35 L39.25 -64.45 Q39.45 -66.75 38.35 -67.5 M19.15 -47.05 Q18.35 -46.95 16.55 -45.5 L15.3 -44.5 14.4 -42.8 19.2 -41.6 18.8 -42.0 19.65 -41.8 Q19.35 -43.05 19.15 -46.65 L19.15 -47.05 M13.5 -44.05 L13.35 -44.25 13.45 -43.75 13.5 -44.05 M13.65 -42.95 L13.55 -43.1 13.3 -43.05 13.3 -43.0 13.65 -42.95 M-42.05 -202.7 L-42.15 -202.6 -42.25 -202.7 -42.05 -202.7 M-40.15 -210.8 L-39.65 -210.55 -40.1 -210.9 -40.15 -210.8 M-53.1 -170.2 Q-51.9 -167.05 -49.75 -162.65 -48.8 -161.05 -47.65 -159.65 L-43.5 -158.4 -44.4 -160.0 -47.25 -162.85 -53.0 -170.2 -53.1 -170.2 M-54.3 -155.1 L-54.3 -154.25 -54.2 -154.2 -47.0 -154.95 -46.85 -154.95 -48.0 -156.2 Q-51.4 -156.45 -55.15 -156.2 L-54.3 -155.1 M-65.05 -72.9 L-64.1 -73.2 -63.9 -73.55 -64.2 -73.45 -65.05 -72.9" fill="#111111" fill-rule="evenodd" stroke="none"/>
      <path d="M51.3 -99.0 L49.85 -99.0 49.9 -99.05 50.95 -99.35 51.05 -99.15 Q51.2 -99.1 51.3 -99.0 M37.2 -83.0 L37.05 -83.15 Q36.15 -84.2 35.7 -85.45 L35.6 -86.3 35.65 -86.6 37.2 -83.0 M7.7 -124.65 L8.15 -125.25 8.35 -125.0 8.65 -124.65 7.7 -124.65 M64.65 -46.95 L64.5 -47.1 64.75 -47.05 64.65 -46.95 M54.45 -58.5 L54.2 -58.35 53.75 -58.85 54.45 -58.5 M10.5 -73.6 L10.5 -73.85 10.55 -73.55 10.5 -73.6 M-37.7 -158.5 L-37.3 -157.75 -35.85 -155.7 -36.2 -156.0 -36.25 -156.1 -37.2 -157.5 -37.7 -158.5 M-46.55 -144.45 L-47.6 -143.2 -48.0 -143.3 -46.55 -144.45 M-6.15 -40.3 L-5.5 -39.45 -4.85 -39.2 -5.9 -39.6 -6.15 -40.3 M-31.05 -157.9 L-30.65 -157.35 -31.5 -157.55 -31.05 -157.9 M-39.0 -201.25 L-39.3 -201.85 -38.4 -201.45 -39.0 -201.25 M-23.45 -97.85 Q-21.65 -95.5 -18.5 -93.4 L-21.15 -95.1 -23.05 -97.05 -23.4 -97.75 -23.45 -97.85" fill="#666666" fill-rule="evenodd" stroke="none"/>
      <path d="M21.0 -180.4 L23.35 -189.5 Q24.55 -194.8 26.05 -196.65 28.15 -196.65 30.05 -195.85 33.6 -193.65 36.15 -190.35 L37.6 -187.7 39.5 -183.3 30.8 -190.4 30.65 -190.3 Q30.5 -190.75 30.5 -189.4 L30.55 -188.45 30.1 -189.0 29.85 -188.95 30.7 -187.6 30.8 -187.15 30.6 -187.0 30.95 -186.65 31.05 -186.35 29.95 -186.85 Q34.55 -180.55 43.5 -173.1 L45.1 -170.95 Q47.8 -167.0 49.05 -162.85 L49.15 -162.15 Q48.25 -162.05 47.6 -161.15 46.9 -160.2 45.95 -160.2 L43.9 -160.5 Q40.0 -164.5 36.1 -165.1 L36.15 -165.05 35.1 -165.6 34.3 -166.2 34.25 -166.25 30.05 -169.8 Q24.0 -175.3 21.0 -180.4 M-20.1 -196.9 Q-17.45 -194.85 -12.55 -191.95 -4.35 -187.1 -3.05 -184.85 -1.2 -181.75 0.4 -175.45 2.25 -171.0 7.1 -169.75 L7.4 -169.4 7.5 -169.6 7.5 -169.65 8.3 -169.5 7.05 -170.8 3.7 -178.75 3.6 -179.15 Q14.0 -175.9 21.25 -172.25 25.4 -170.15 29.9 -167.2 34.75 -162.8 37.6 -157.7 39.3 -154.7 40.95 -150.45 L41.7 -147.35 Q44.1 -136.55 47.05 -132.1 L47.2 -132.55 46.1 -138.5 Q46.15 -148.35 41.7 -156.55 46.4 -149.15 50.4 -141.8 L51.9 -136.9 53.3 -133.2 Q53.4 -130.95 53.8 -129.9 54.5 -127.95 56.65 -125.7 58.65 -121.95 60.6 -121.4 L61.1 -120.05 Q63.4 -113.8 63.4 -111.35 L63.35 -110.35 62.95 -110.8 Q62.65 -111.5 62.15 -111.7 59.45 -114.8 57.05 -119.55 L50.9 -131.4 Q49.65 -131.4 49.65 -129.05 49.65 -128.3 50.25 -126.7 L50.95 -126.15 49.45 -127.3 Q51.4 -122.45 53.9 -117.9 55.5 -114.6 55.5 -109.75 L55.0 -108.25 Q49.25 -106.05 46.85 -108.9 46.15 -109.7 45.7 -111.1 L45.85 -114.1 Q45.85 -118.5 45.15 -120.1 L44.8 -120.85 44.3 -122.55 44.1 -123.25 43.65 -128.05 Q42.6 -134.05 39.5 -136.2 L39.1 -135.8 39.0 -134.55 40.3 -128.55 40.9 -125.7 40.9 -125.5 40.85 -124.1 40.5 -125.35 40.3 -125.35 40.75 -121.65 40.65 -119.1 Q38.8 -113.1 31.7 -113.1 28.15 -113.1 23.25 -117.95 L13.9 -128.6 Q7.65 -135.85 2.8 -139.3 -4.0 -144.15 -10.8 -144.15 -15.1 -144.15 -17.25 -143.3 -20.25 -142.15 -20.25 -139.1 -20.25 -137.2 -17.95 -136.65 L-14.95 -136.35 -9.45 -132.3 -4.1 -128.05 -8.55 -126.65 Q-10.95 -125.9 -10.95 -124.1 L-10.8 -123.15 -10.35 -123.0 Q-8.35 -122.9 -7.65 -123.65 L-5.55 -125.25 -8.55 -120.45 Q-10.35 -117.5 -10.35 -115.55 L-10.1 -114.25 -9.3 -113.85 Q-7.5 -114.5 -6.5 -116.1 L-5.1 -118.35 Q-5.9 -114.35 -5.9 -112.2 -5.9 -109.9 -4.65 -108.9 L-4.2 -109.05 -6.65 -108.2 Q-7.75 -107.6 -7.95 -106.65 L-9.0 -106.85 -14.55 -108.0 Q-11.65 -103.1 0.0 -102.3 5.95 -101.9 13.5 -102.4 13.05 -101.55 13.05 -100.35 L13.05 -99.3 Q13.35 -98.4 14.75 -98.4 17.1 -98.4 17.1 -93.6 L16.45 -89.2 Q15.75 -85.55 15.75 -84.8 15.75 -79.3 17.9 -76.85 19.25 -75.3 23.4 -73.6 28.2 -71.6 30.85 -69.45 35.4 -65.8 38.8 -58.9 L38.8 -58.4 38.8 -58.2 38.8 -58.1 Q38.25 -57.6 38.25 -56.45 38.25 -55.05 41.45 -47.5 44.6 -39.9 44.6 -37.7 44.6 -36.8 43.8 -33.55 L43.85 -32.4 43.5 -32.5 40.75 -33.1 36.45 -33.5 Q34.8 -34.2 33.05 -35.05 L31.65 -35.8 31.7 -35.8 31.8 -36.5 29.1 -40.45 Q27.3 -43.05 27.3 -44.4 L28.45 -49.35 Q29.6 -54.6 29.6 -57.15 29.6 -58.65 28.55 -61.25 27.15 -64.85 24.95 -65.6 L24.95 -65.45 25.55 -62.65 24.85 -64.45 24.2 -64.45 Q23.75 -63.25 23.75 -62.2 23.75 -60.2 21.8 -51.55 L21.1 -48.45 20.9 -49.1 19.85 -49.35 19.7 -49.4 19.4 -49.35 Q17.95 -49.3 16.7 -48.45 L15.9 -48.05 15.05 -47.5 14.45 -49.05 Q14.0 -50.3 14.0 -51.6 14.0 -55.0 15.35 -57.45 16.65 -59.9 16.65 -65.75 L16.4 -73.0 Q15.8 -76.65 13.4 -78.0 L12.7 -79.65 11.75 -79.5 12.35 -77.15 11.7 -77.4 11.7 -77.35 10.95 -77.55 Q11.45 -79.25 10.6 -79.4 L10.65 -80.15 Q10.65 -87.35 5.95 -90.5 3.2 -92.4 -4.35 -93.95 -11.8 -95.5 -14.65 -97.55 -19.35 -100.95 -19.35 -108.45 L-17.45 -113.95 Q-15.6 -119.1 -15.6 -123.5 L-15.7 -124.65 Q-16.05 -125.5 -17.25 -125.85 L-18.95 -122.3 -18.9 -122.05 -19.25 -123.25 -19.35 -123.25 -19.5 -124.4 -19.9 -124.4 Q-20.9 -118.2 -25.3 -111.9 -29.25 -106.3 -29.25 -101.45 L-42.8 -95.75 -39.3 -100.8 -30.65 -113.85 Q-35.25 -111.5 -40.65 -105.2 -37.95 -110.95 -37.95 -111.65 -37.95 -112.55 -38.1 -112.75 L-38.3 -113.1 -38.55 -113.25 -39.9 -113.4 Q-41.5 -113.4 -46.1 -109.65 L-50.6 -106.1 -45.85 -113.1 Q-39.05 -123.75 -35.0 -128.0 -39.45 -126.05 -43.25 -122.35 -37.0 -133.95 -36.25 -138.85 L-36.45 -137.9 -44.25 -133.4 -44.4 -133.2 Q-44.6 -133.2 -44.6 -134.15 -44.6 -137.45 -35.25 -142.6 L-28.65 -148.1 -28.8 -148.4 Q-32.5 -149.05 -42.35 -142.45 L-44.7 -140.8 -40.5 -145.05 Q-36.8 -148.5 -34.15 -151.95 L-33.95 -151.95 Q-33.2 -151.95 -32.05 -152.7 -31.45 -153.05 -30.6 -153.65 L-30.95 -154.55 Q-30.3 -155.1 -30.3 -156.3 L-30.4 -157.1 -30.2 -156.95 -30.0 -157.35 -30.2 -158.15 -30.1 -158.5 -30.15 -158.65 -29.05 -159.65 Q-28.45 -159.2 -27.75 -159.05 L-27.45 -158.7 Q-26.45 -158.95 -26.3 -159.25 L-26.55 -159.65 -25.25 -159.6 Q-24.2 -159.6 -23.4 -160.7 L-22.5 -161.2 -22.2 -158.9 Q-21.65 -159.4 -20.65 -161.7 -19.65 -164.1 -19.65 -165.15 -19.65 -168.5 -20.55 -177.2 -21.7 -188.4 -23.15 -191.55 L-23.95 -193.25 -19.85 -187.35 -17.65 -184.3 -17.3 -183.6 -13.1 -173.65 Q-12.6 -174.25 -12.6 -174.9 L-12.7 -175.8 -12.65 -175.95 -12.6 -177.1 -12.7 -178.5 -12.65 -178.2 -9.0 -172.2 -8.1 -173.4 Q-7.85 -174.0 -7.85 -175.05 -7.85 -179.6 -14.8 -189.7 L-20.1 -196.9 M50.8 -98.55 Q54.45 -96.8 57.0 -91.8 59.45 -86.95 59.45 -82.8 L59.6 -82.6 59.95 -74.1 60.45 -74.2 60.5 -74.4 Q61.15 -75.2 61.7 -77.9 L61.95 -79.1 62.65 -77.25 62.95 -76.45 63.2 -77.65 63.9 -73.6 64.45 -72.0 65.8 -67.85 65.5 -66.5 65.25 -65.7 65.85 -60.6 65.6 -60.5 Q63.6 -59.7 62.05 -59.7 56.15 -59.7 52.15 -63.0 L51.2 -63.7 51.6 -63.4 51.6 -63.5 Q51.6 -69.65 45.3 -79.4 39.0 -89.2 39.0 -92.45 39.0 -95.35 41.5 -98.25 L42.0 -98.8 Q45.15 -96.6 47.2 -93.9 L48.95 -89.1 51.4 -81.15 51.9 -76.5 52.05 -76.8 51.85 -76.1 Q51.8 -75.9 51.9 -75.8 52.9 -77.2 54.05 -81.4 L55.1 -86.1 Q55.1 -91.1 52.55 -95.95 L50.8 -98.55 M22.75 -81.3 L22.3 -82.1 22.15 -83.3 22.75 -86.6 23.4 -90.1 23.4 -91.8 23.9 -95.3 23.45 -97.2 22.2 -99.9 Q24.45 -102.05 27.3 -100.05 29.9 -98.25 29.9 -96.05 L28.45 -92.95 Q27.0 -90.15 27.0 -87.45 27.0 -84.5 27.2 -83.85 27.55 -82.35 29.75 -79.05 24.3 -79.45 22.75 -81.3 M1.1 -151.5 L1.2 -151.8 Q-3.25 -157.8 -8.45 -157.95 -10.5 -158.05 -11.9 -157.1 -13.2 -156.15 -13.2 -154.8 -13.2 -153.45 -10.9 -152.9 L-2.65 -152.35 Q-0.9 -152.35 1.1 -151.5 M54.9 -26.95 L54.6 -27.0 Q53.35 -27.0 48.85 -23.55 44.35 -20.1 43.5 -20.1 39.5 -20.1 33.05 -25.6 L26.55 -31.8 20.5 -35.0 Q15.75 -37.25 14.75 -37.5 L5.55 -39.65 Q-2.45 -41.65 -3.5 -42.75 L-11.0 -59.3 -11.0 -59.4 Q-11.0 -60.55 -10.2 -64.5 -9.45 -68.45 -9.45 -71.65 L-9.5 -74.15 -10.35 -77.4 Q-11.35 -72.5 -13.15 -67.95 L-13.55 -66.6 -13.85 -68.1 Q-13.85 -73.1 -17.2 -83.7 -17.35 -85.25 -17.1 -87.6 -11.8 -86.75 -7.15 -84.3 -2.65 -81.95 -1.65 -79.65 L-0.2 -73.8 Q0.45 -71.0 1.15 -70.1 L1.5 -68.9 Q2.75 -64.9 4.6 -64.9 5.95 -64.9 5.6 -65.45 4.8 -66.45 4.3 -68.1 L4.55 -68.4 4.65 -69.3 Q5.0 -68.3 8.0 -65.7 10.8 -63.35 10.8 -61.95 L10.8 -61.9 Q4.6 -59.8 1.0 -56.0 -0.9 -54.05 -1.85 -51.85 L-2.55 -55.6 -2.75 -55.5 -2.45 -56.55 -2.8 -56.55 Q-4.1 -56.4 -4.65 -53.9 -5.1 -52.1 -5.1 -49.85 -5.1 -48.05 -4.15 -46.6 L-4.0 -46.4 Q-3.85 -45.5 -2.25 -44.15 L-1.75 -43.75 Q0.5 -42.1 3.2 -41.75 L6.6 -41.1 19.0 -40.2 22.65 -38.6 25.2 -36.65 Q26.8 -34.5 28.8 -34.25 35.8 -30.0 42.85 -29.0 L45.05 -28.6 45.35 -27.9 45.45 -27.75 46.65 -27.6 48.95 -28.45 Q51.0 -28.6 52.65 -29.2 L53.85 -29.8 54.1 -29.45 54.9 -27.3 54.9 -26.95 M11.65 -27.6 Q13.95 -26.25 15.05 -26.25 17.25 -26.25 24.1 -20.2 L31.5 -13.25 Q28.1 -12.0 22.75 -9.0 17.95 -6.35 15.6 -5.7 L15.9 -6.0 19.7 -9.4 Q21.9 -11.55 21.9 -12.95 21.9 -15.15 19.4 -15.15 L16.3 -14.25 Q12.3 -13.15 1.95 -12.45 6.85 -21.2 7.5 -29.15 9.35 -29.05 11.65 -27.6" fill="#cccccc" fill-rule="evenodd" stroke="none"/>
      <path d="M11.3 -117.9 Q11.75 -118.75 12.35 -119.2 L13.1 -117.6 13.25 -117.25 Q12.85 -116.65 12.85 -115.35 12.85 -114.1 13.9 -114.1 L14.8 -114.25 15.35 -113.3 14.95 -112.7 14.9 -112.7 14.05 -112.35 Q12.1 -112.35 11.25 -113.7 L11.1 -114.05 10.75 -115.05 10.75 -115.35 Q10.75 -116.75 11.3 -117.9" fill="#800000" fill-rule="evenodd" stroke="none"/>
      <path d="M34.3 -166.2 L35.1 -165.6 34.9 -165.65 34.8 -165.7 34.3 -166.2 M-29.05 -159.65 L-30.15 -158.65 -30.65 -161.25 -30.25 -160.9 -29.05 -159.65 M47.2 -93.9 Q49.15 -91.35 50.05 -88.3 50.85 -85.6 51.4 -81.15 L48.95 -89.1 47.2 -93.9 M44.1 -50.9 L44.1 -51.0 44.1 -51.3 41.2 -57.9 41.45 -58.35 43.85 -60.8 44.2 -61.1 Q48.9 -60.85 55.0 -54.6 58.95 -50.5 60.55 -49.25 62.55 -47.7 64.5 -47.1 L64.65 -46.95 60.5 -44.7 Q56.6 -42.45 54.95 -40.75 L54.75 -40.55 54.1 -39.8 52.85 -40.15 Q51.7 -40.55 50.9 -41.05 L48.6 -42.75 48.15 -42.7 48.15 -42.35 Q47.9 -43.65 48.0 -45.0 L48.0 -45.05 48.55 -44.35 49.1 -43.75 49.15 -43.75 49.3 -43.65 49.7 -44.0 50.7 -45.9 51.4 -48.3 51.35 -49.75 51.4 -50.95 Q51.4 -53.0 49.8 -54.95 47.8 -57.35 44.65 -57.0 L44.55 -56.65 44.35 -56.55 44.4 -56.4 44.25 -56.15 44.2 -55.2 44.25 -54.25 Q44.4 -53.75 45.0 -53.5 L45.3 -54.6 45.6 -54.25 45.9 -54.3 45.75 -55.45 45.7 -55.65 Q50.05 -53.4 50.05 -49.9 L49.7 -48.15 49.2 -46.65 48.8 -48.3 Q48.35 -49.5 47.5 -49.5 L46.75 -50.5 Q46.5 -50.1 46.5 -49.55 L46.7 -49.0 46.6 -48.9 46.65 -48.65 46.8 -48.05 44.75 -50.25 44.1 -50.9 M48.95 -28.45 L46.65 -27.6 45.45 -27.75 45.35 -27.9 45.05 -28.6 47.85 -28.45 48.05 -28.45 48.95 -28.45 M28.8 -34.25 Q26.8 -34.5 25.2 -36.65 L27.8 -34.9 28.8 -34.25 M-54.3 -155.1 L-55.15 -156.2 Q-51.4 -156.45 -48.0 -156.2 L-46.85 -154.95 -47.0 -154.95 -54.2 -154.2 -54.3 -154.25 -54.3 -155.1 M-53.1 -170.2 L-53.0 -170.2 -47.25 -162.85 -44.4 -160.0 -43.5 -158.4 -47.65 -159.65 Q-48.8 -161.05 -49.75 -162.65 -51.9 -167.05 -53.1 -170.2" fill="#333333" fill-rule="evenodd" stroke="none"/>
      <path d="M21.0 -180.4 Q24.0 -175.3 30.05 -169.8 25.5 -173.25 19.75 -176.0 L20.25 -177.05 20.35 -177.3 20.85 -179.55 20.95 -180.2 20.95 -180.25 21.0 -180.4 M43.9 -160.5 L45.95 -160.2 Q46.9 -160.2 47.6 -161.15 48.25 -162.05 49.15 -162.15 L49.4 -158.5 49.55 -153.05 Q46.7 -157.65 43.9 -160.5 M-20.1 -196.9 L-14.8 -189.7 Q-7.85 -179.6 -7.85 -175.05 -7.85 -174.0 -8.1 -173.4 L-9.0 -172.2 -12.65 -178.2 -12.7 -178.5 -12.9 -179.45 -12.6 -180.4 Q-17.5 -191.95 -21.3 -197.85 L-20.1 -196.9 M-23.95 -193.25 L-23.15 -191.55 Q-21.7 -188.4 -20.55 -177.2 -19.65 -168.5 -19.65 -165.15 -19.65 -164.1 -20.65 -161.7 -21.65 -159.4 -22.2 -158.9 L-22.5 -161.2 -21.55 -162.25 Q-20.6 -163.7 -20.6 -165.95 -20.6 -168.3 -22.2 -174.05 L-22.55 -175.75 -22.75 -176.65 -23.7 -180.45 -23.75 -180.85 -24.0 -182.6 -24.1 -183.15 Q-25.15 -188.05 -28.25 -193.7 -31.8 -200.2 -35.9 -202.2 -35.55 -201.7 -35.55 -201.3 L-35.55 -200.95 Q-37.05 -201.9 -38.4 -201.45 L-39.3 -201.85 -39.0 -201.25 Q-40.8 -200.35 -42.35 -197.1 L-41.5 -196.6 -41.0 -196.4 Q-40.75 -196.5 -39.3 -197.5 -38.5 -198.05 -37.45 -198.05 L-37.05 -198.0 -38.45 -196.55 -39.0 -196.5 -39.25 -195.4 -39.5 -194.8 Q-39.7 -194.25 -39.7 -191.15 -39.7 -188.75 -38.55 -184.35 L-38.15 -184.35 -37.95 -185.85 -36.65 -184.15 Q-37.65 -186.75 -37.65 -188.55 L-37.3 -193.2 Q-36.75 -195.4 -35.25 -197.05 -30.25 -192.55 -23.6 -168.05 L-23.65 -167.1 -24.0 -164.8 -24.6 -163.35 -24.75 -163.05 -25.6 -163.0 Q-26.95 -163.0 -29.55 -167.6 -32.15 -172.25 -33.3 -172.25 -34.15 -172.25 -34.3 -171.95 L-34.3 -171.65 Q-34.05 -169.4 -33.35 -167.4 L-33.35 -166.6 -33.2 -166.05 -33.2 -166.0 -33.5 -163.95 Q-33.5 -162.85 -32.45 -160.4 L-31.05 -157.9 -31.5 -157.55 -30.65 -157.35 -30.4 -157.1 -30.3 -156.3 Q-30.3 -155.1 -30.95 -154.55 L-30.6 -153.65 Q-31.45 -153.05 -32.05 -152.7 -33.2 -151.95 -33.95 -151.95 L-34.15 -151.95 Q-36.8 -148.5 -40.5 -145.05 L-44.7 -140.8 -42.35 -142.45 Q-32.5 -149.05 -28.8 -148.4 L-28.65 -148.1 -35.25 -142.6 Q-44.6 -137.45 -44.6 -134.15 -44.6 -133.2 -44.4 -133.2 L-44.25 -133.4 -36.45 -137.9 -36.25 -138.85 Q-37.0 -133.95 -43.25 -122.35 -39.45 -126.05 -35.0 -128.0 -39.05 -123.75 -45.85 -113.1 L-50.6 -106.1 -46.1 -109.65 Q-41.5 -113.4 -39.9 -113.4 L-38.55 -113.25 -38.3 -113.1 -38.1 -112.75 Q-37.95 -112.55 -37.95 -111.65 -37.95 -110.95 -40.65 -105.2 -35.25 -111.5 -30.65 -113.85 L-39.3 -100.8 -42.8 -95.75 -29.25 -101.45 -29.25 -101.4 Q-29.25 -96.85 -26.15 -94.1 L-26.05 -94.0 -25.8 -93.7 -24.1 -92.1 Q-22.65 -90.05 -21.15 -89.1 L-14.4 -87.75 -9.85 -86.15 -2.75 -83.0 Q-0.95 -81.75 0.55 -80.3 1.2 -78.45 1.65 -78.0 L1.95 -78.0 2.2 -80.9 Q2.2 -82.0 1.85 -82.95 1.15 -86.6 -2.7 -88.05 L-6.65 -88.85 -7.65 -89.2 -8.0 -89.35 -9.4 -89.8 -12.85 -91.0 -13.5 -91.2 -14.1 -91.45 -14.4 -91.55 -15.15 -91.85 -16.0 -92.2 -16.95 -92.6 -18.5 -93.4 Q-21.65 -95.5 -23.45 -97.85 L-25.55 -102.55 -25.55 -102.75 Q-25.55 -105.65 -22.05 -111.15 -18.6 -116.6 -18.6 -120.9 L-18.65 -121.6 -18.8 -121.6 -18.8 -121.7 -18.9 -122.05 -18.95 -122.3 -17.25 -125.85 Q-16.05 -125.5 -15.7 -124.65 L-15.6 -123.5 Q-15.6 -119.1 -17.45 -113.95 L-19.35 -108.45 Q-19.35 -100.95 -14.65 -97.55 -11.8 -95.5 -4.35 -93.95 3.2 -92.4 5.95 -90.5 10.65 -87.35 10.65 -80.15 L10.6 -79.4 Q11.45 -79.25 10.95 -77.55 L11.7 -77.35 11.65 -76.9 Q11.65 -75.35 12.25 -73.1 L12.85 -70.05 12.65 -69.1 11.8 -70.6 11.2 -71.65 10.65 -73.2 10.55 -73.5 10.55 -73.55 10.5 -73.85 10.5 -73.6 10.45 -73.8 10.1 -73.25 8.85 -74.7 8.3 -74.55 8.25 -72.3 Q8.45 -70.4 9.0 -68.65 10.05 -65.3 11.9 -65.2 L11.2 -62.0 10.8 -61.9 10.8 -61.95 Q10.8 -63.35 8.0 -65.7 5.0 -68.3 4.65 -69.3 L4.55 -68.4 4.3 -68.1 Q4.8 -66.45 5.6 -65.45 5.95 -64.9 4.6 -64.9 2.75 -64.9 1.5 -68.9 L1.15 -70.1 Q0.45 -71.0 -0.2 -73.8 L-1.65 -79.65 Q-2.65 -81.95 -7.15 -84.3 -11.8 -86.75 -17.1 -87.6 -17.35 -85.25 -17.2 -83.7 -13.85 -73.1 -13.85 -68.1 L-13.55 -66.6 -13.15 -67.95 Q-11.35 -72.5 -10.35 -77.4 L-9.5 -74.15 -9.45 -71.65 Q-9.45 -68.45 -10.2 -64.5 -11.0 -60.55 -11.0 -59.4 L-11.0 -59.3 -3.5 -42.75 Q-2.45 -41.65 5.55 -39.65 L14.75 -37.5 Q15.75 -37.25 20.5 -35.0 L26.55 -31.8 33.05 -25.6 Q39.5 -20.1 43.5 -20.1 44.35 -20.1 48.85 -23.55 53.35 -27.0 54.6 -27.0 L54.9 -26.95 Q54.8 -25.2 53.45 -23.7 L50.2 -21.85 Q44.45 -18.8 40.6 -18.8 37.8 -18.8 29.45 -24.5 L21.35 -30.35 21.0 -29.95 18.45 -31.35 18.25 -31.0 Q20.3 -30.0 22.2 -28.2 L22.55 -27.9 Q25.25 -24.4 28.15 -21.55 L28.8 -20.9 31.05 -18.5 Q34.0 -15.8 36.6 -15.25 L31.5 -11.15 30.0 -10.1 27.9 -8.75 27.75 -8.65 27.3 -8.4 Q21.9 -5.4 9.7 -3.6 L9.7 -3.8 Q9.7 -4.5 11.85 -6.55 L11.9 -6.6 Q16.0 -8.85 17.7 -10.4 L9.7 -9.6 7.85 -9.7 6.45 -9.65 0.8 -9.55 0.55 -9.45 Q-0.25 -9.45 -0.45 -9.95 L-0.5 -10.5 1.05 -15.35 Q2.55 -19.8 2.55 -24.15 L2.5 -25.4 2.55 -26.55 Q2.55 -28.0 1.45 -32.0 L0.9 -33.9 Q2.95 -34.25 3.2 -33.45 L3.25 -33.3 Q5.15 -33.45 9.7 -31.05 L13.35 -28.9 12.45 -30.25 15.45 -28.85 14.3 -31.55 Q13.35 -33.4 12.0 -34.7 L11.8 -34.9 11.75 -34.95 11.7 -35.0 11.45 -35.2 Q10.95 -35.6 10.4 -35.95 7.9 -37.45 3.35 -38.0 L-3.95 -38.95 -4.15 -39.0 -4.85 -39.2 -5.5 -39.45 -6.15 -40.3 Q-7.95 -45.4 -9.85 -48.55 -10.35 -50.65 -11.3 -53.0 L-13.35 -57.1 -14.75 -59.85 -15.05 -59.8 -14.95 -59.4 -15.35 -59.95 -15.45 -59.7 -14.3 -57.1 -12.95 -52.3 -13.35 -52.6 -16.6 -57.5 -17.3 -59.05 -17.6 -59.05 -22.3 -65.75 Q-25.8 -70.6 -29.9 -74.3 -27.25 -73.3 -25.7 -73.0 -28.3 -75.95 -33.05 -78.6 -35.05 -80.2 -37.7 -80.8 L-38.9 -81.2 -37.15 -81.55 -33.4 -81.55 Q-30.15 -81.4 -28.85 -80.55 L-28.85 -80.7 Q-29.3 -81.15 -30.6 -81.6 L-30.7 -81.65 -30.85 -81.7 Q-32.15 -82.25 -33.5 -82.45 L-38.7 -83.1 -40.55 -82.95 -41.85 -82.8 Q-47.3 -82.6 -52.45 -80.1 L-55.45 -78.35 -57.65 -77.4 -54.95 -80.4 -55.0 -80.65 Q-53.55 -82.15 -53.55 -82.95 L-53.55 -83.0 -53.15 -83.5 -53.55 -83.25 -53.65 -83.8 -53.8 -83.6 Q-55.8 -83.4 -61.1 -81.25 L-64.7 -80.25 -67.35 -79.4 -66.8 -81.0 Q-65.4 -85.4 -65.4 -90.1 L-65.75 -93.35 -64.35 -101.8 Q-63.3 -106.85 -61.4 -111.3 L-58.75 -115.2 Q-54.55 -120.9 -53.3 -123.95 L-51.65 -125.7 -51.75 -125.8 -52.95 -124.75 -51.65 -126.25 -52.4 -125.9 -52.1 -126.5 Q-55.95 -125.55 -62.85 -118.9 -67.75 -114.2 -69.6 -110.95 -68.35 -115.3 -66.65 -119.2 -64.8 -122.6 -62.15 -126.35 -58.8 -131.2 -49.85 -141.8 L-49.3 -142.25 -48.15 -142.5 -47.05 -142.75 -47.2 -143.1 -47.6 -143.2 -46.55 -144.45 -46.05 -144.85 -46.3 -144.8 -47.05 -144.55 -47.2 -144.85 Q-50.35 -145.25 -53.7 -144.25 -56.7 -144.5 -60.2 -144.35 L-64.55 -144.0 Q-62.8 -145.9 -62.9 -147.4 L-63.7 -147.1 -64.75 -147.3 -61.15 -149.6 -59.3 -150.9 -57.75 -151.2 -56.5 -151.45 -56.1 -151.5 -40.1 -153.85 -45.95 -154.9 -46.55 -156.1 -43.4 -155.7 -40.8 -155.3 -37.3 -154.7 -36.95 -154.6 -36.85 -154.65 -36.15 -154.55 Q-35.8 -154.3 -35.45 -154.2 L-35.0 -153.9 Q-34.7 -153.9 -34.7 -154.2 L-34.6 -154.25 -33.75 -154.15 -33.6 -154.1 -33.5 -154.1 -34.85 -154.75 -35.85 -155.7 -37.3 -157.75 -37.7 -158.5 -44.75 -176.8 -44.95 -177.75 -45.05 -178.15 Q-45.9 -182.65 -45.9 -197.3 L-45.8 -198.7 Q-45.45 -201.85 -43.9 -207.45 L-43.0 -210.65 -38.05 -206.95 -28.65 -199.75 -26.45 -196.9 -26.4 -196.85 -26.3 -196.7 -26.25 -196.6 -24.75 -194.5 -23.95 -193.35 -23.95 -193.25 M13.4 -78.0 Q15.8 -76.65 16.4 -73.0 L16.65 -65.75 Q16.65 -59.9 15.35 -57.45 14.0 -55.0 14.0 -51.6 14.0 -50.3 14.45 -49.05 L15.05 -47.5 Q14.0 -46.8 13.6 -45.95 L12.8 -53.25 12.15 -59.15 Q12.95 -60.35 13.95 -63.3 L14.35 -64.5 Q15.45 -68.0 15.45 -69.0 15.45 -72.9 13.4 -78.0 M25.55 -62.65 L24.95 -65.45 24.95 -65.6 Q27.15 -64.85 28.55 -61.25 29.6 -58.65 29.6 -57.15 29.6 -54.6 28.45 -49.35 L27.3 -44.4 Q27.3 -43.05 29.1 -40.45 L31.8 -36.5 31.7 -35.8 31.65 -35.8 29.3 -37.35 Q26.15 -39.4 23.55 -40.4 L23.25 -41.6 Q23.25 -43.1 24.9 -49.15 L26.55 -55.5 26.2 -58.4 26.25 -59.5 25.6 -62.4 25.6 -62.65 25.55 -62.65 M43.85 -32.4 L43.8 -33.55 Q44.6 -36.8 44.6 -37.7 44.6 -39.9 41.45 -47.5 38.25 -55.05 38.25 -56.45 38.25 -57.6 38.8 -58.1 38.85 -57.25 40.5 -54.25 42.35 -50.75 43.8 -49.95 L44.0 -50.5 44.05 -50.55 44.05 -50.65 44.1 -50.7 44.1 -50.9 44.75 -50.25 46.8 -48.05 46.65 -48.65 Q47.05 -46.6 47.85 -45.25 L48.0 -45.0 Q47.9 -43.65 48.15 -42.35 L48.15 -42.7 48.1 -41.6 Q48.1 -40.75 49.05 -39.8 L48.6 -39.45 Q49.15 -38.9 51.2 -38.4 52.3 -37.95 53.85 -37.85 L54.1 -37.5 54.7 -37.8 54.95 -37.8 54.65 -37.45 Q50.5 -31.9 46.25 -31.9 L43.85 -32.4 M38.8 -58.9 Q35.4 -65.8 30.85 -69.45 28.2 -71.6 23.4 -73.6 19.25 -75.3 17.9 -76.85 15.75 -79.3 15.75 -84.8 15.75 -85.55 16.45 -89.2 L17.1 -93.6 Q17.1 -98.4 14.75 -98.4 13.35 -98.4 13.05 -99.3 L13.05 -100.35 Q13.05 -101.55 13.5 -102.4 5.95 -101.9 0.0 -102.3 -11.65 -103.1 -14.55 -108.0 L-9.0 -106.85 -7.95 -106.65 Q-7.75 -107.6 -6.65 -108.2 L-4.2 -109.05 -4.65 -108.9 Q-5.9 -109.9 -5.9 -112.2 -5.9 -114.35 -5.1 -118.35 L-6.5 -116.1 Q-7.5 -114.5 -9.3 -113.85 L-10.1 -114.25 -10.35 -115.55 Q-10.35 -117.5 -8.55 -120.45 L-5.55 -125.25 -7.65 -123.65 Q-8.35 -122.9 -10.35 -123.0 L-10.8 -123.15 -10.95 -124.1 Q-10.95 -125.9 -8.55 -126.65 L-4.1 -128.05 -9.45 -132.3 -14.95 -136.35 -17.95 -136.65 Q-20.25 -137.2 -20.25 -139.1 -20.25 -142.15 -17.25 -143.3 -15.1 -144.15 -10.8 -144.15 -4.0 -144.15 2.8 -139.3 7.65 -135.85 13.9 -128.6 L23.25 -117.95 Q28.15 -113.1 31.7 -113.1 38.8 -113.1 40.65 -119.1 L40.3 -110.0 40.2 -110.0 39.75 -109.75 38.75 -109.2 36.75 -109.2 Q25.25 -108.75 19.9 -115.5 15.4 -123.8 11.6 -126.6 L11.55 -126.65 8.4 -129.95 7.75 -130.55 7.4 -130.9 Q2.1 -135.7 -3.1 -137.8 L-5.25 -138.9 Q-8.85 -140.6 -11.0 -140.85 -14.15 -141.2 -14.25 -138.3 -15.2 -137.75 -15.75 -137.0 L-16.0 -136.6 -15.3 -136.65 -12.5 -136.7 Q-10.95 -136.75 -10.4 -137.1 L-10.05 -137.05 -9.75 -136.95 Q-6.35 -136.2 -3.2 -134.65 L-0.1 -132.8 5.1 -128.95 7.4 -126.2 7.45 -126.15 7.0 -126.5 8.15 -125.25 7.7 -124.65 7.3 -124.65 3.45 -124.65 3.15 -123.95 Q1.9 -123.3 1.8 -122.05 L1.9 -119.8 1.75 -118.8 Q1.75 -118.2 2.1 -117.25 L2.15 -116.6 2.25 -114.85 Q2.65 -112.5 3.55 -111.75 4.45 -109.95 5.9 -108.75 L6.65 -108.2 Q9.1 -106.5 12.8 -106.5 L12.95 -106.5 13.7 -106.5 Q11.45 -105.75 9.55 -105.75 L-1.75 -106.05 Q-2.3 -106.05 -5.9 -103.95 L9.55 -103.5 Q14.3 -103.5 18.4 -106.2 L20.25 -107.55 Q24.8 -103.9 31.2 -103.5 L31.2 -103.45 31.85 -103.45 32.75 -103.45 32.2 -103.55 34.05 -104.05 Q36.6 -104.3 37.8 -105.1 L38.05 -105.3 Q42.25 -106.75 42.65 -107.85 44.75 -109.1 45.3 -109.95 L45.7 -111.1 Q46.15 -109.7 46.85 -108.9 49.25 -106.05 55.0 -108.25 L53.8 -106.6 52.4 -105.1 52.15 -104.85 Q48.75 -101.45 48.75 -100.0 48.75 -99.2 48.85 -99.15 L49.3 -99.0 49.9 -99.05 49.85 -99.0 49.7 -99.0 49.65 -99.0 49.8 -98.95 50.8 -98.55 52.55 -95.95 Q55.1 -91.1 55.1 -86.1 L54.05 -81.4 Q52.9 -77.2 51.9 -75.8 51.8 -75.9 51.85 -76.1 L52.05 -76.8 52.7 -79.6 53.2 -82.55 Q53.2 -88.0 50.75 -92.55 48.85 -96.0 45.8 -98.1 L45.15 -98.55 39.85 -100.75 39.9 -100.15 42.0 -98.8 41.5 -98.25 Q39.0 -95.35 39.0 -92.45 39.0 -89.2 45.3 -79.4 51.6 -69.65 51.6 -63.5 L51.6 -63.4 51.2 -63.7 49.6 -64.3 47.45 -64.0 47.4 -64.0 47.8 -66.0 47.55 -67.65 47.25 -67.65 47.1 -65.8 47.05 -66.0 Q47.0 -68.0 46.6 -69.65 L46.65 -70.8 Q46.65 -75.65 41.0 -79.85 38.2 -81.9 37.2 -83.0 L35.65 -86.6 35.6 -86.3 35.7 -85.45 Q35.3 -86.6 35.3 -87.9 L35.95 -97.5 Q35.55 -105.0 30.25 -100.95 L30.85 -100.65 30.6 -100.05 Q29.85 -99.85 29.85 -99.1 29.85 -98.5 31.7 -98.0 32.55 -97.8 32.85 -97.4 L32.15 -92.9 31.45 -88.0 Q31.45 -83.4 33.7 -80.85 34.7 -79.65 37.7 -77.95 L39.5 -75.8 43.65 -71.35 Q45.55 -68.8 45.55 -65.75 L45.4 -64.85 45.4 -64.15 45.65 -64.1 Q44.4 -63.8 42.75 -62.7 L41.8 -62.1 41.35 -61.7 39.75 -60.2 39.5 -61.0 39.65 -60.05 39.15 -59.35 39.3 -61.3 39.4 -61.0 39.9 -62.05 40.15 -63.5 Q40.15 -67.15 37.05 -69.9 35.3 -71.5 31.15 -73.7 L30.2 -74.55 24.55 -79.3 22.75 -81.3 Q24.3 -79.45 29.75 -79.05 27.55 -82.35 27.2 -83.85 27.0 -84.5 27.0 -87.45 27.0 -90.15 28.45 -92.95 L29.9 -96.05 Q29.9 -98.25 27.3 -100.05 24.45 -102.05 22.2 -99.9 L23.45 -97.2 23.9 -95.3 23.4 -91.8 Q23.25 -95.2 22.55 -96.9 21.65 -99.2 19.7 -99.95 L19.55 -100.05 Q17.25 -101.3 15.85 -100.3 L15.3 -100.2 15.5 -100.0 14.95 -99.3 Q16.05 -98.5 17.4 -97.8 L18.4 -96.6 Q19.35 -95.35 19.35 -93.6 L18.8 -87.25 18.2 -80.9 Q18.2 -77.65 21.7 -75.25 22.9 -74.4 29.3 -71.4 33.05 -69.6 35.3 -67.85 L37.0 -64.75 Q38.65 -61.35 38.8 -58.9 M40.9 -125.7 L40.3 -128.55 39.0 -134.55 39.1 -135.8 39.5 -136.2 Q42.6 -134.05 43.65 -128.05 L44.1 -123.25 44.3 -122.55 44.8 -120.85 Q42.2 -126.65 41.55 -128.45 L41.25 -128.4 41.15 -128.05 41.05 -128.4 40.8 -128.4 41.0 -127.1 40.9 -125.7 M50.95 -126.15 L50.25 -126.7 Q49.65 -128.3 49.65 -129.05 49.65 -131.4 50.9 -131.4 L57.05 -119.55 Q59.45 -114.8 62.15 -111.7 62.65 -111.5 62.95 -110.8 L63.35 -110.35 63.2 -109.75 63.2 -109.7 63.1 -109.3 62.55 -108.05 Q61.6 -106.25 59.6 -104.5 L59.5 -104.45 59.4 -104.35 59.25 -104.25 59.1 -104.1 58.95 -104.0 58.75 -103.85 58.45 -103.65 57.9 -103.25 54.1 -100.75 Q52.4 -99.6 52.4 -99.0 L52.4 -98.95 51.35 -99.0 51.3 -99.0 Q51.2 -99.1 51.05 -99.15 L50.95 -99.35 Q52.9 -100.2 55.25 -102.85 58.45 -106.5 58.45 -108.8 L58.45 -109.85 Q58.2 -114.0 56.15 -118.6 L55.3 -120.4 55.15 -120.7 55.05 -120.85 50.95 -126.15 M22.3 -82.1 L22.1 -83.1 22.15 -83.3 22.3 -82.1 M1.1 -151.5 Q-0.9 -152.35 -2.65 -152.35 L-10.9 -152.9 Q-13.2 -153.45 -13.2 -154.8 -13.2 -156.15 -11.9 -157.1 -10.5 -158.05 -8.45 -157.95 -3.25 -157.8 1.2 -151.8 L1.1 -151.5 M38.35 -67.5 Q39.45 -66.75 39.25 -64.45 L39.25 -64.35 Q38.95 -65.95 37.7 -67.5 L37.15 -68.15 38.35 -67.5 M11.65 -27.6 Q9.35 -29.05 7.5 -29.15 6.85 -21.2 1.95 -12.45 12.3 -13.15 16.3 -14.25 L19.4 -15.15 Q21.9 -15.15 21.9 -12.95 21.9 -11.55 19.7 -9.4 L15.9 -6.0 15.6 -5.7 Q17.95 -6.35 22.75 -9.0 28.1 -12.0 31.5 -13.25 L24.1 -20.2 Q17.25 -26.25 15.05 -26.25 13.95 -26.25 11.65 -27.6 M-42.05 -202.7 L-42.25 -202.7 -42.15 -202.6 -42.05 -202.7" fill="#8c8c8c" fill-rule="evenodd" stroke="none"/>
      <path d="M54.2 -58.35 L54.45 -58.5 54.5 -58.5 55.1 -58.25 59.9 -57.4 65.25 -58.0 65.5 -58.7 Q65.7 -58.95 65.95 -58.85 L66.3 -58.7 67.0 -58.15 67.5 -59.0 68.65 -60.15 69.75 -59.15 Q71.45 -57.6 71.8 -56.4 L71.8 -55.95 71.8 -55.55 71.1 -52.2 Q69.85 -48.7 67.15 -48.7 66.4 -48.7 62.15 -51.5 57.6 -54.55 55.8 -56.55 L54.2 -58.35 M69.35 -57.45 L68.7 -57.45 Q69.0 -56.65 67.85 -55.05 L66.3 -52.5 66.55 -52.25 67.2 -52.2 Q68.15 -52.2 69.05 -53.25 69.9 -54.3 69.9 -55.3 69.9 -56.15 69.35 -57.45" fill="#595959" fill-rule="evenodd" stroke="none"/>
      <path d="M10.9 -121.75 L11.05 -121.55 11.8 -120.35 Q10.3 -120.05 9.35 -118.25 8.5 -116.6 8.5 -115.15 8.5 -113.55 8.9 -112.85 9.9 -110.85 13.45 -110.85 15.1 -110.85 16.2 -111.95 L16.5 -111.5 17.25 -110.55 Q14.2 -108.65 12.15 -108.35 8.25 -108.95 6.1 -112.85 4.3 -116.1 4.3 -119.45 L4.6 -121.5 4.65 -121.8 7.75 -121.65 10.3 -121.75 10.9 -121.75 M69.35 -57.45 Q69.9 -56.15 69.9 -55.3 69.9 -54.3 69.05 -53.25 68.15 -52.2 67.2 -52.2 L66.55 -52.25 66.3 -52.5 67.85 -55.05 Q69.0 -56.65 68.7 -57.45 L69.35 -57.45 M9.1 -58.05 L9.8 -56.55 9.7 -54.35 Q9.7 -52.45 11.1 -48.4 L12.2 -45.3 12.7 -43.8 12.95 -43.05 12.8 -43.1 4.15 -44.55 Q2.1 -44.95 0.55 -45.5 L0.55 -45.6 Q0.55 -47.7 1.0 -49.75 L2.3 -52.05 Q5.15 -56.25 9.1 -58.05 M19.15 -47.05 L19.15 -46.65 Q19.35 -43.05 19.65 -41.8 L18.8 -42.0 19.2 -41.6 14.4 -42.8 15.3 -44.5 16.55 -45.5 Q18.35 -46.95 19.15 -47.05" fill="#ffffff" fill-rule="evenodd" stroke="none"/>
      <path d="M3.25 -89.0 L25.7 -95.65 25.45 -97.2 24.65 -98.1 25.25 -98.55 25.45 -99.7 25.95 -99.7 25.9 -99.9 26.35 -100.0 26.55 -99.45 26.65 -100.15 27.35 -100.15 27.4 -99.9 29.4 -101.15 Q33.3 -103.5 34.45 -104.9 35.8 -106.5 37.0 -109.0 L37.7 -110.35 37.7 -110.5 24.1 -116.15 Q6.95 -122.95 -5.1 -125.1 L-6.2 -123.25 -13.2 -106.3 Q-15.9 -98.85 -17.2 -92.6 L-17.6 -90.2 -17.9 -88.5 -18.1 -86.9 -15.45 -83.85 -15.55 -83.7 -18.15 -86.75 -18.25 -85.65 -17.7 -84.85 -17.7 -84.6 -18.25 -85.2 -19.6 -87.0 -22.95 -91.15 -18.15 -84.75 -18.25 -84.6 -19.3 -85.9 -18.15 -84.3 -18.25 -84.15 -18.55 -84.5 -17.55 -82.8 -17.4 -82.7 -18.15 -82.65 Q-19.65 -82.65 -26.55 -92.75 L-31.65 -100.4 -34.7 -104.05 Q-40.8 -111.8 -44.25 -117.8 L-43.6 -119.65 -42.2 -124.05 Q-34.4 -142.3 -17.1 -164.15 L-16.45 -164.6 -14.25 -166.2 -5.8 -168.0 -0.65 -169.0 8.0 -170.1 5.75 -175.35 Q3.85 -180.15 2.4 -182.55 L2.25 -182.55 Q1.85 -182.55 1.85 -183.25 1.85 -185.3 10.1 -185.75 18.6 -186.25 26.9 -184.35 L28.6 -183.6 30.45 -182.9 32.0 -182.35 Q34.9 -181.25 37.5 -179.7 41.3 -177.4 43.8 -173.85 L48.3 -167.65 48.3 -167.4 52.35 -165.0 61.35 -159.6 64.05 -155.45 61.2 -156.85 Q64.55 -147.6 73.0 -130.6 L73.1 -130.45 73.3 -130.0 80.9 -115.2 81.3 -113.2 81.65 -111.75 81.25 -111.45 Q79.15 -109.7 78.65 -108.5 L77.9 -107.95 74.75 -105.25 Q68.55 -100.15 64.55 -99.35 L69.55 -90.6 72.6 -84.0 Q75.15 -78.45 75.25 -74.6 L75.5 -72.35 Q75.5 -67.15 71.9 -67.15 L71.5 -67.15 70.45 -66.7 Q70.25 -67.15 69.35 -70.75 68.65 -73.6 68.5 -74.95 L65.25 -75.15 Q59.75 -75.15 53.1 -73.35 L47.25 -71.55 32.9 -68.15 32.6 -68.15 32.45 -68.05 32.4 -68.15 32.35 -68.15 32.25 -67.7 31.8 -67.6 31.75 -67.8 31.25 -67.7 Q30.15 -70.7 29.5 -75.4 L28.85 -77.75 5.45 -64.9 Q-6.3 -58.45 -11.95 -55.5 -13.3 -54.5 -15.05 -53.65 L-16.0 -53.15 -16.45 -52.9 Q-16.85 -51.9 -18.7 -51.9 -20.75 -51.9 -22.5 -55.15 -22.5 -56.7 -19.35 -59.15 -17.25 -62.2 -10.05 -66.25 -6.0 -68.95 -0.25 -71.65 6.15 -74.7 15.5 -78.1 17.15 -79.1 20.6 -80.6 25.05 -82.5 27.7 -83.15 L26.65 -89.6 20.3 -86.85 Q13.7 -83.95 9.95 -83.4 L15.9 -86.05 -1.35 -79.1 Q-17.05 -72.6 -29.4 -69.15 L-32.5 -69.15 Q-33.25 -69.8 -33.85 -71.6 L-33.9 -71.85 -34.2 -72.1 -34.65 -72.5 -35.6 -72.15 -36.25 -72.3 -36.5 -73.05 Q-36.5 -73.75 -35.0 -74.75 L-35.1 -74.95 -34.5 -75.1 Q-28.85 -78.7 -7.1 -85.75 L-3.95 -86.75 3.25 -89.0 M29.25 -171.95 L30.7 -171.9 34.5 -172.35 35.9 -172.35 35.65 -172.55 37.6 -172.95 42.5 -170.95 42.25 -171.2 37.2 -176.3 Q30.1 -182.35 17.2 -184.25 L11.45 -184.1 5.3 -183.65 4.45 -183.45 Q4.35 -183.05 3.7 -182.85 L3.7 -182.8 4.05 -182.8 7.25 -176.7 Q9.35 -172.35 9.8 -170.3 L13.95 -170.7 18.25 -171.1 22.3 -171.45 26.65 -171.9 27.9 -172.05 28.95 -171.95 29.25 -171.95 M75.55 -121.05 L71.15 -128.05 68.5 -132.7 67.5 -134.7 66.25 -137.2 Q64.0 -142.1 62.3 -147.3 L61.95 -148.45 60.35 -154.1 55.6 -157.9 49.45 -163.25 48.75 -163.65 48.5 -163.4 48.15 -164.05 40.25 -169.15 Q41.5 -162.55 42.7 -157.1 L42.8 -156.7 48.75 -134.2 48.5 -134.0 Q46.85 -137.35 44.2 -144.4 L43.05 -147.55 Q40.6 -154.25 40.6 -156.65 L40.0 -160.35 39.4 -163.65 38.85 -167.1 38.4 -169.7 Q28.45 -167.0 7.95 -163.75 -3.9 -161.85 -9.75 -160.05 L-12.7 -159.0 -12.75 -159.0 -12.95 -158.9 -13.35 -158.2 -13.25 -158.3 -13.65 -157.65 Q-17.65 -150.1 -23.25 -140.55 L-34.45 -121.6 -32.65 -122.3 -25.7 -124.45 -26.5 -123.7 Q-25.5 -124.4 -25.2 -124.2 L-29.0 -119.45 Q-31.15 -116.95 -33.25 -116.15 L-31.0 -112.8 -30.9 -112.65 -30.8 -112.5 -27.3 -108.2 -25.25 -105.3 -25.25 -105.65 -25.0 -111.3 Q-24.7 -112.7 -22.8 -116.95 L-22.95 -117.7 Q-22.95 -118.85 -22.7 -117.75 L-22.7 -117.9 -22.5 -117.6 -22.5 -117.65 -22.0 -116.85 -21.7 -117.75 -21.45 -116.9 -21.55 -116.45 -21.25 -116.55 Q-20.5 -115.25 -19.8 -112.35 L-19.5 -111.05 -13.85 -122.2 -10.05 -128.2 -6.4 -132.9 -6.1 -133.45 Q-5.95 -133.9 -5.85 -133.5 L-4.75 -134.7 -4.65 -134.2 -5.1 -133.45 -5.1 -133.4 Q-3.85 -134.35 -1.9 -135.2 L1.4 -136.55 Q7.85 -138.85 10.7 -138.05 L11.5 -138.6 11.8 -138.5 14.3 -139.6 Q13.0 -137.45 8.25 -134.35 L3.85 -131.75 7.15 -131.25 8.75 -130.95 Q17.9 -130.2 29.45 -124.65 37.4 -120.8 43.55 -116.45 48.5 -113.7 52.5 -111.75 L53.6 -111.25 53.0 -112.85 52.5 -114.25 50.9 -118.85 50.5 -120.2 Q49.5 -123.25 49.5 -123.95 L49.6 -124.65 49.65 -124.75 49.65 -124.85 49.95 -124.85 49.95 -124.8 51.85 -119.05 50.3 -124.85 50.2 -125.15 50.05 -125.75 50.4 -125.75 50.8 -124.9 51.4 -123.5 51.4 -123.55 51.75 -123.55 52.95 -119.95 Q55.2 -114.7 56.5 -110.75 59.05 -113.2 64.85 -115.6 71.55 -118.35 76.45 -118.3 L77.25 -118.35 77.0 -118.9 75.55 -121.05 M60.0 -155.65 L59.55 -157.7 Q57.1 -158.9 54.75 -160.2 L56.6 -158.7 60.0 -155.65 M60.2 -157.35 L60.4 -156.8 60.3 -157.3 60.2 -157.35 M2.6 -182.7 L2.5 -182.6 3.45 -181.75 2.9 -182.7 2.6 -182.7 M-37.8 -117.65 L-37.85 -118.15 -37.8 -118.3 -37.95 -118.3 -38.1 -119.05 Q-38.1 -119.65 -37.0 -120.35 L-32.95 -127.6 -30.5 -131.6 -24.95 -143.35 Q-20.1 -152.75 -14.55 -159.05 -14.4 -160.4 -12.05 -161.7 L-11.9 -161.85 -11.95 -161.75 Q-7.0 -164.45 7.5 -167.15 L5.35 -167.0 -7.0 -165.85 -9.3 -165.3 -15.85 -163.55 -29.35 -141.1 -40.8 -121.7 -42.45 -118.85 -39.05 -114.2 -31.7 -105.25 Q-25.0 -96.7 -21.0 -90.25 L-20.55 -89.75 Q-20.25 -98.3 -15.05 -109.75 -11.55 -117.6 -6.9 -124.4 L-6.3 -125.3 -7.3 -125.45 -6.85 -126.25 -5.7 -126.15 -5.65 -126.2 -5.65 -126.25 -5.9 -126.3 -6.75 -126.5 -6.7 -126.55 -6.15 -126.5 -5.9 -126.5 -6.0 -126.65 -5.4 -126.6 -5.1 -127.0 -4.5 -127.0 -2.2 -127.0 2.7 -126.15 15.0 -123.65 Q24.9 -120.95 34.55 -115.45 42.4 -111.9 48.55 -107.85 L54.5 -104.55 56.2 -103.75 55.55 -106.0 54.85 -107.8 Q52.4 -108.85 49.8 -110.5 L49.3 -110.8 Q46.6 -112.3 43.55 -114.25 L44.6 -113.5 26.55 -123.65 24.7 -124.5 Q15.75 -127.55 1.7 -130.05 L1.15 -130.15 1.05 -130.15 0.8 -130.05 0.05 -129.95 -0.1 -130.35 Q-0.7 -130.4 -0.3 -130.65 L-0.3 -131.2 0.1 -131.2 0.7 -131.8 0.6 -131.85 0.75 -131.9 Q1.95 -133.0 4.75 -134.65 L2.1 -133.65 Q-4.35 -131.2 -6.4 -131.0 L-6.85 -130.3 -7.65 -128.65 -8.2 -127.65 Q-10.4 -122.3 -12.1 -118.75 L-12.6 -117.65 -15.15 -112.75 Q-16.8 -109.85 -18.45 -107.6 L-18.7 -107.25 -18.8 -107.4 -19.0 -107.2 -18.9 -106.7 -19.2 -106.9 -19.35 -106.8 -19.4 -107.1 -19.6 -106.8 -21.5 -112.4 -21.95 -113.9 -22.4 -108.45 -22.5 -107.45 -22.95 -100.7 -23.4 -100.6 -23.45 -102.55 -23.65 -102.0 -23.5 -101.25 -23.5 -101.05 -23.85 -101.4 -24.05 -100.15 -24.3 -101.6 -24.55 -102.05 -24.85 -102.35 -24.75 -102.05 -27.25 -104.85 -29.6 -107.7 Q-33.0 -111.95 -33.95 -114.95 L-33.8 -115.2 -34.15 -115.85 -34.3 -115.85 -34.2 -116.0 -34.65 -116.85 -34.05 -116.3 -34.0 -116.4 -34.2 -116.85 -33.85 -117.05 -33.7 -116.85 Q-32.6 -118.5 -29.7 -121.15 L-27.75 -122.8 -30.8 -120.8 Q-34.9 -118.2 -36.45 -117.95 L-36.8 -117.95 -37.4 -117.05 -37.7 -117.3 -37.8 -117.65 M3.45 -131.25 L3.1 -131.35 3.05 -131.3 3.45 -131.25 M16.0 -122.5 Q11.0 -124.1 -0.1 -126.2 L-4.0 -126.9 -4.25 -126.5 -1.5 -126.2 Q7.35 -125.15 17.15 -122.1 L16.0 -122.5 M36.3 -100.4 L37.0 -101.95 Q38.45 -105.35 38.95 -108.05 L38.5 -107.3 38.35 -106.35 Q38.35 -104.5 34.5 -100.75 31.05 -97.4 28.1 -96.7 L28.2 -96.25 Q29.0 -95.95 29.15 -95.65 L28.4 -95.35 29.1 -91.3 29.9 -91.45 30.0 -91.1 29.2 -90.75 30.2 -85.1 31.1 -79.8 31.25 -79.85 31.35 -79.65 31.15 -79.5 32.35 -71.55 32.4 -70.6 32.4 -70.55 32.4 -70.4 32.4 -69.75 32.5 -69.3 33.0 -69.4 Q41.2 -72.55 47.8 -74.55 L48.15 -74.65 Q68.8 -80.9 73.0 -76.0 L72.95 -76.25 72.7 -77.65 72.35 -79.15 72.3 -79.15 72.1 -79.95 70.65 -80.7 Q69.15 -81.45 62.8 -81.45 58.25 -81.45 52.9 -80.25 L48.55 -79.05 46.9 -78.45 39.55 -75.85 39.4 -75.6 38.8 -75.6 38.65 -75.55 38.6 -75.65 38.55 -75.65 38.5 -75.7 38.4 -75.95 38.05 -76.05 38.35 -76.15 38.35 -76.3 Q38.35 -76.7 38.65 -77.1 L38.95 -78.2 Q39.0 -79.2 39.75 -81.3 L40.1 -82.25 35.6 -77.4 35.15 -76.95 34.9 -77.75 34.7 -77.95 34.8 -78.1 Q34.2 -80.2 33.65 -84.0 L33.25 -87.5 Q32.7 -91.05 32.7 -93.0 32.7 -94.05 32.85 -94.55 L33.55 -94.55 36.3 -100.4 M61.85 -98.9 L61.65 -99.1 61.65 -99.0 61.6 -99.1 61.7 -99.15 61.55 -99.4 61.45 -99.45 61.4 -99.45 61.3 -99.45 60.9 -99.6 60.3 -100.0 61.2 -100.25 59.9 -103.65 58.6 -102.55 58.55 -102.45 58.25 -102.3 58.05 -102.15 60.2 -100.35 60.1 -100.15 57.95 -101.7 58.1 -101.15 57.65 -101.0 57.5 -101.25 57.0 -101.25 56.95 -101.4 56.7 -101.55 56.85 -101.65 56.8 -101.8 56.55 -101.8 56.7 -101.45 43.45 -108.05 41.05 -109.05 41.05 -108.75 40.95 -106.9 40.7 -106.2 40.7 -105.65 Q40.7 -104.65 38.95 -100.75 L37.9 -98.25 36.2 -94.95 35.45 -93.6 Q34.65 -92.05 34.65 -91.25 34.65 -87.6 35.8 -82.1 L35.9 -81.95 38.7 -85.05 Q40.9 -87.25 42.85 -87.9 L42.95 -86.4 42.9 -85.45 42.95 -84.85 42.65 -84.25 41.65 -81.2 40.6 -78.55 Q43.8 -80.25 51.7 -81.95 63.4 -84.45 64.8 -83.95 L64.15 -83.75 65.0 -83.75 69.55 -83.65 70.9 -83.45 70.2 -85.2 68.15 -89.65 67.55 -90.85 Q64.8 -95.85 61.85 -98.9 M57.5 -107.4 L57.65 -106.8 57.75 -106.35 57.75 -105.45 57.95 -104.95 58.0 -105.0 58.2 -105.15 59.15 -106.3 59.05 -106.85 59.95 -107.5 60.05 -107.25 60.4 -107.6 60.35 -107.8 60.8 -108.15 60.85 -108.0 62.95 -109.65 Q69.3 -114.1 77.95 -113.7 L78.05 -112.35 78.05 -112.2 78.4 -112.15 78.6 -111.85 79.75 -112.7 77.9 -117.0 77.6 -117.7 76.5 -117.5 69.65 -115.7 69.35 -115.6 69.0 -115.5 66.7 -114.4 64.7 -113.4 57.05 -108.95 57.5 -107.4 M53.75 -110.85 L50.45 -112.3 53.8 -110.65 53.75 -110.85 M54.3 -109.35 L53.7 -109.55 54.35 -109.15 54.3 -109.35 M75.95 -111.65 L75.8 -111.65 70.85 -110.9 65.2 -107.95 63.4 -106.95 61.9 -105.5 63.45 -101.7 68.55 -104.45 68.8 -104.55 73.95 -108.4 74.8 -109.3 74.7 -109.35 Q74.9 -110.1 76.05 -111.5 L75.95 -111.65 M77.95 -111.8 L77.4 -110.95 78.55 -111.85 77.95 -111.8 M61.25 -98.8 L61.2 -98.8 61.25 -98.8 M72.0 -70.75 Q72.9 -72.3 72.9 -72.95 72.9 -73.5 71.3 -74.2 L70.15 -74.6 70.35 -74.0 Q70.95 -72.05 71.15 -70.2 L71.55 -69.9 72.0 -70.75 M25.9 -94.4 L16.35 -90.85 -5.5 -83.05 -16.95 -78.95 -32.15 -73.45 -31.85 -73.05 -30.2 -70.95 Q-27.95 -70.95 -4.05 -80.15 17.5 -88.5 26.45 -90.65 L25.9 -94.4 M28.05 -81.15 L27.4 -80.9 27.35 -81.0 26.9 -81.2 Q18.1 -77.55 11.45 -74.3 L2.45 -70.05 Q-7.45 -65.05 -14.7 -60.15 L-19.2 -56.25 -17.25 -54.5 -16.7 -54.1 -12.8 -56.7 Q-10.3 -58.05 -4.75 -61.75 L5.15 -68.25 Q17.25 -74.05 22.85 -77.05 L28.25 -78.75 28.55 -78.85 28.05 -81.15 M1.05 -87.75 L-0.45 -87.2 0.9 -87.5 Q1.95 -87.8 2.15 -88.0 L1.05 -87.75 M-15.25 -164.55 L-15.55 -164.0 -11.35 -165.35 -14.85 -164.9 -15.05 -164.9 -15.25 -164.55 M-4.55 -125.95 L-4.25 -125.9 -4.55 -126.0 -4.55 -125.95 M-18.4 -109.7 Q-18.55 -110.4 -18.95 -110.65 L-18.35 -111.95 -19.35 -110.6 -18.8 -108.85 -18.4 -109.7 M-1.35 -87.0 L-2.4 -86.4 Q-1.05 -86.6 -0.45 -87.1 L-1.35 -87.0 M-11.2 -83.35 L-11.55 -83.25 -12.35 -82.95 -11.65 -83.05 -10.45 -83.4 -11.2 -83.35 M-20.55 -89.55 L-20.55 -89.65 -20.75 -89.9 -20.55 -89.55 M-0.15 -70.05 L0.35 -70.3 -7.15 -66.55 -0.15 -70.05 M-19.35 -56.85 L-19.6 -56.7 -19.5 -56.55 -19.35 -56.85" fill="#111111" fill-rule="evenodd" stroke="none"/>
      <path d="M3.25 -89.0 L-3.95 -86.75 Q-2.95 -87.2 -1.8 -87.75 L3.25 -89.0 M1.05 -87.75 L2.15 -88.0 Q1.95 -87.8 0.9 -87.5 L-0.45 -87.2 1.05 -87.75 M-1.35 -87.0 L-0.45 -87.1 Q-1.05 -86.6 -2.4 -86.4 L-1.35 -87.0 M-11.65 -83.05 L-11.2 -83.35 -10.45 -83.4 -11.65 -83.05" fill="#403c2f" fill-rule="evenodd" stroke="none"/>
      <path d="M25.9 -94.4 L26.45 -90.65 Q17.5 -88.5 -4.05 -80.15 -27.95 -70.95 -30.2 -70.95 L-31.85 -73.05 -32.15 -73.45 -16.95 -78.95 -5.5 -83.05 16.35 -90.85 25.9 -94.4 M28.05 -81.15 L28.55 -78.85 28.25 -78.75 22.85 -77.05 Q17.25 -74.05 5.15 -68.25 L-4.75 -61.75 Q-10.3 -58.05 -12.8 -56.7 L-16.7 -54.1 -17.25 -54.5 -19.2 -56.25 -14.7 -60.15 Q-7.45 -65.05 2.45 -70.05 L11.45 -74.3 Q18.1 -77.55 26.9 -81.2 L27.35 -81.0 27.4 -80.9 28.05 -81.15" fill="#262626" fill-rule="evenodd" stroke="none"/>
      <path d="M77.9 -117.0 L77.6 -117.7 77.5 -117.7 76.5 -117.5 77.6 -117.7 77.9 -117.0" fill="#636c75" fill-rule="evenodd" stroke="none"/>
      <path d="M50.3 -124.85 L51.85 -119.05 49.95 -124.8 50.3 -124.85 M49.65 -124.75 L49.6 -124.65 49.5 -123.95 Q49.5 -123.25 50.5 -120.2 49.05 -121.95 49.05 -123.3 49.05 -124.8 49.2 -124.65 L49.65 -124.75" fill="#6c7680" fill-rule="evenodd" stroke="none"/>
      <path d="M11.45 -184.1 L17.2 -184.25 Q30.1 -182.35 37.2 -176.3 L42.25 -171.2 42.5 -170.95 37.6 -172.95 35.65 -172.55 35.9 -172.35 34.5 -172.35 30.7 -171.9 29.25 -171.95 Q24.5 -176.45 15.65 -181.75 L11.45 -184.1 M26.65 -171.9 L22.3 -171.45 18.25 -171.1 Q17.3 -173.2 8.4 -182.1 14.45 -179.4 22.8 -174.3 L26.65 -171.9 M42.7 -157.1 Q41.5 -162.55 40.25 -169.15 L48.15 -164.05 48.5 -163.4 48.75 -163.65 49.45 -163.25 55.6 -157.9 60.35 -154.1 61.95 -148.45 62.3 -147.3 Q64.0 -142.1 66.25 -137.2 L67.5 -134.7 68.5 -132.7 71.15 -128.05 75.55 -121.05 75.1 -121.75 70.55 -120.3 69.1 -119.85 54.05 -139.4 Q45.85 -150.4 42.7 -157.1 M50.2 -125.15 L50.3 -124.85 49.95 -124.8 49.95 -124.85 49.65 -124.85 49.65 -124.75 49.2 -124.65 Q49.05 -124.8 49.05 -123.3 49.05 -121.95 50.5 -120.2 L50.9 -118.85 Q46.0 -120.65 35.8 -125.0 17.35 -132.8 11.7 -133.8 14.0 -134.5 16.55 -136.2 20.55 -138.85 20.55 -140.3 20.55 -141.2 20.35 -141.5 L20.1 -141.9 17.15 -142.2 13.1 -141.6 9.0 -141.0 Q2.1 -141.0 -3.45 -145.7 -7.5 -149.15 -8.3 -151.95 -9.6 -155.95 -9.6 -159.0 L-9.75 -160.05 Q-3.9 -161.85 7.95 -163.75 28.45 -167.0 38.4 -169.7 L38.85 -167.1 39.4 -163.65 40.0 -160.35 40.6 -156.65 Q40.6 -154.25 43.05 -147.55 44.3 -141.8 46.05 -136.1 48.05 -129.6 50.2 -125.15 M-1.9 -135.2 Q-3.85 -134.35 -5.1 -133.4 L-5.1 -133.45 -4.65 -134.2 -4.75 -134.7 -5.85 -133.5 Q-5.95 -133.9 -6.1 -133.45 L-6.4 -132.9 -10.05 -128.2 -11.5 -131.85 Q-14.15 -138.55 -14.15 -142.1 L-13.75 -147.95 -13.6 -147.3 Q-10.4 -136.15 -1.9 -135.2 M56.85 -125.1 Q50.35 -134.0 48.05 -141.3 59.55 -126.6 68.75 -119.75 L63.55 -118.5 63.1 -118.7 61.65 -119.1 56.85 -125.1 M70.2 -85.2 L69.45 -85.5 Q64.55 -87.5 57.45 -85.65 56.9 -88.85 53.9 -93.65 L48.9 -100.95 50.1 -101.1 51.9 -99.2 Q52.8 -98.3 57.2 -98.3 L61.85 -98.9 Q64.8 -95.85 67.55 -90.85 L68.15 -89.65 70.2 -85.2 M43.6 -82.8 L43.65 -83.1 Q42.45 -91.0 42.45 -93.65 42.45 -95.8 43.65 -100.2 L48.75 -93.05 Q52.2 -87.7 52.7 -84.9 L48.05 -83.3 44.55 -82.5 Q43.65 -82.5 43.6 -82.8" fill="#b39b59" fill-rule="evenodd" stroke="none"/>
      <path d="M11.45 -184.1 L15.65 -181.75 Q24.5 -176.45 29.25 -171.95 L28.95 -171.95 27.9 -172.05 26.65 -171.9 22.8 -174.3 Q14.45 -179.4 8.4 -182.1 17.3 -173.2 18.25 -171.1 L13.95 -170.7 9.8 -170.3 Q9.35 -172.35 7.25 -176.7 L4.05 -182.8 3.7 -182.8 3.7 -182.85 Q4.35 -183.05 4.45 -183.45 L5.3 -183.65 11.45 -184.1 M42.7 -157.1 Q45.85 -150.4 54.05 -139.4 L69.1 -119.85 70.55 -120.3 75.1 -121.75 75.55 -121.05 77.0 -118.9 77.25 -118.35 76.45 -118.3 Q71.55 -118.35 64.85 -115.6 59.05 -113.2 56.5 -110.75 55.2 -114.7 52.95 -119.95 L51.75 -123.55 51.4 -123.55 51.4 -123.5 50.8 -124.9 50.4 -125.75 50.05 -125.75 50.2 -125.15 Q48.05 -129.6 46.05 -136.1 44.3 -141.8 43.05 -147.55 L44.2 -144.4 Q46.85 -137.35 48.5 -134.0 L48.75 -134.2 42.8 -156.7 42.7 -157.1 M50.9 -118.85 L52.5 -114.25 53.0 -112.85 53.6 -111.25 52.5 -111.75 Q48.5 -113.7 43.55 -116.45 37.4 -120.8 29.45 -124.65 17.9 -130.2 8.75 -130.95 L7.15 -131.25 3.85 -131.75 8.25 -134.35 Q13.0 -137.45 14.3 -139.6 L11.8 -138.5 11.5 -138.6 10.7 -138.05 Q7.85 -138.85 1.4 -136.55 L-1.9 -135.2 Q-10.4 -136.15 -13.6 -147.3 L-13.75 -147.95 -14.15 -142.1 Q-14.15 -138.55 -11.5 -131.85 L-10.05 -128.2 -13.85 -122.2 -19.5 -111.05 -19.8 -112.35 Q-20.5 -115.25 -21.25 -116.55 L-21.55 -116.45 -21.45 -116.9 -21.7 -117.75 -22.0 -116.85 -22.5 -117.65 -22.5 -117.6 -22.7 -117.9 -22.7 -117.75 Q-22.95 -118.85 -22.95 -117.7 L-22.8 -116.95 Q-24.7 -112.7 -25.0 -111.3 L-25.25 -105.65 -25.25 -105.3 -27.3 -108.2 -30.8 -112.5 -30.9 -112.65 -31.0 -112.8 -33.25 -116.15 Q-31.15 -116.95 -29.0 -119.45 L-25.2 -124.2 Q-25.5 -124.4 -26.5 -123.7 L-25.7 -124.45 -32.65 -122.3 -34.45 -121.6 -23.25 -140.55 Q-17.65 -150.1 -13.65 -157.65 L-13.25 -158.3 -13.35 -158.2 -12.95 -158.9 -12.75 -159.0 -12.7 -159.0 -9.75 -160.05 -9.6 -159.0 Q-9.6 -155.95 -8.3 -151.95 -7.5 -149.15 -3.45 -145.7 2.1 -141.0 9.0 -141.0 L13.1 -141.6 17.15 -142.2 20.1 -141.9 20.35 -141.5 Q20.55 -141.2 20.55 -140.3 20.55 -138.85 16.55 -136.2 14.0 -134.5 11.7 -133.8 17.35 -132.8 35.8 -125.0 46.0 -120.65 50.9 -118.85 M56.85 -125.1 L61.65 -119.1 63.1 -118.7 63.55 -118.5 68.75 -119.75 Q59.55 -126.6 48.05 -141.3 50.35 -134.0 56.85 -125.1 M70.2 -85.2 L70.9 -83.45 69.55 -83.65 65.0 -83.75 64.15 -83.75 64.8 -83.95 Q63.4 -84.45 51.7 -81.95 43.8 -80.25 40.6 -78.55 L41.65 -81.2 42.65 -84.25 42.95 -84.85 42.9 -85.45 42.95 -86.4 42.85 -87.9 Q40.9 -87.25 38.7 -85.05 L35.9 -81.95 35.8 -82.1 Q34.65 -87.6 34.65 -91.25 34.65 -92.05 35.45 -93.6 L36.2 -94.95 37.9 -98.25 38.95 -100.75 Q40.7 -104.65 40.7 -105.65 L40.7 -106.2 40.95 -106.9 41.05 -108.75 41.05 -109.05 43.45 -108.05 56.7 -101.45 56.55 -101.8 56.8 -101.8 56.85 -101.65 56.7 -101.55 56.95 -101.4 57.0 -101.25 57.5 -101.25 57.65 -101.0 58.1 -101.15 57.95 -101.7 60.1 -100.15 60.2 -100.35 58.05 -102.15 58.25 -102.3 58.55 -102.45 58.6 -102.55 59.9 -103.65 61.2 -100.25 60.3 -100.0 60.9 -99.6 61.3 -99.45 61.4 -99.45 61.45 -99.45 61.55 -99.4 61.7 -99.15 61.6 -99.1 61.65 -99.0 61.65 -99.1 61.85 -98.9 57.2 -98.3 Q52.8 -98.3 51.9 -99.2 L50.1 -101.1 48.9 -100.95 53.9 -93.65 Q56.9 -88.85 57.45 -85.65 64.55 -87.5 69.45 -85.5 L70.2 -85.2 M61.25 -98.8 L61.2 -98.8 61.25 -98.8 M43.6 -82.8 Q43.65 -82.5 44.55 -82.5 L48.05 -83.3 52.7 -84.9 Q52.2 -87.7 48.75 -93.05 L43.65 -100.2 Q42.45 -95.8 42.45 -93.65 42.45 -91.0 43.65 -83.1 L43.6 -82.8" fill="#736439" fill-rule="evenodd" stroke="none"/>
      <path d="M-40.8 -121.7 L-29.35 -141.1 -15.85 -163.55 -9.3 -165.3 -7.0 -165.85 5.35 -167.0 7.5 -167.15 Q-7.0 -164.45 -11.95 -161.75 L-11.9 -161.85 -12.05 -161.7 Q-14.4 -160.4 -14.55 -159.05 -20.1 -152.75 -24.95 -143.35 L-30.5 -131.6 -32.95 -127.6 -37.0 -120.35 Q-38.1 -119.65 -38.1 -119.05 L-37.95 -118.3 -37.8 -118.3 -37.85 -118.15 -37.8 -117.65 -40.8 -121.7 M-37.4 -117.05 L-36.8 -117.95 -36.45 -117.95 Q-34.9 -118.2 -30.8 -120.8 L-27.75 -122.8 -29.7 -121.15 Q-32.6 -118.5 -33.7 -116.85 L-33.85 -117.05 -34.2 -116.85 -34.0 -116.4 -34.05 -116.3 -34.65 -116.85 -34.2 -116.0 -34.3 -115.85 -34.15 -115.85 -33.8 -115.2 -33.95 -114.95 Q-33.0 -111.95 -29.6 -107.7 L-27.25 -104.85 -24.75 -102.05 -24.85 -102.35 -24.55 -102.05 -24.3 -101.6 -24.05 -100.15 -23.85 -101.4 -23.5 -101.05 -23.5 -101.25 -23.65 -102.0 -23.45 -102.55 -23.4 -100.6 -22.95 -100.7 -22.5 -107.45 -22.4 -108.45 -21.95 -113.9 -21.5 -112.4 -19.6 -106.8 -19.4 -107.1 -19.35 -106.8 -19.2 -106.9 -18.9 -106.7 -19.0 -107.2 -18.8 -107.4 -18.7 -107.25 -18.45 -107.6 Q-16.8 -109.85 -15.15 -112.75 -19.85 -99.9 -21.6 -95.85 L-37.35 -117.05 -37.4 -117.05 M-7.65 -128.65 L-6.85 -130.3 -6.4 -131.0 Q-4.35 -131.2 2.1 -133.65 L4.75 -134.65 Q1.95 -133.0 0.75 -131.9 L0.6 -131.85 0.7 -131.8 0.1 -131.2 -0.3 -131.2 -0.3 -130.65 Q-0.7 -130.4 -0.1 -130.35 L0.05 -129.95 0.8 -130.05 1.05 -130.15 1.15 -130.15 1.7 -130.05 Q15.75 -127.55 24.7 -124.5 L26.55 -123.65 44.6 -113.5 43.55 -114.25 Q46.6 -112.3 49.3 -110.8 L49.8 -110.5 Q52.4 -108.85 54.85 -107.8 L55.55 -106.0 56.2 -103.75 54.5 -104.55 48.55 -107.85 Q42.4 -111.9 34.55 -115.45 24.9 -120.95 15.0 -123.65 L2.7 -126.15 -2.2 -127.0 -4.5 -127.0 Q-3.65 -128.25 -3.05 -128.25 L-1.3 -128.1 0.15 -128.25 -2.8 -129.5 -5.25 -130.35 Q-6.3 -130.35 -7.65 -128.65 M47.8 -74.55 Q43.95 -74.2 35.3 -71.8 L33.75 -71.35 Q35.3 -72.4 37.6 -73.0 41.3 -74.05 48.15 -74.65 L47.8 -74.55 M72.3 -79.15 L70.1 -79.95 54.9 -79.95 Q51.65 -79.75 46.9 -78.45 L48.55 -79.05 52.9 -80.25 Q58.25 -81.45 62.8 -81.45 69.15 -81.45 70.65 -80.7 L72.1 -79.95 72.3 -79.15 M38.5 -75.7 L33.85 -73.85 32.35 -82.85 30.2 -92.9 35.85 -99.7 36.05 -99.9 36.3 -100.4 33.55 -94.55 32.85 -94.55 Q32.7 -94.05 32.7 -93.0 32.7 -91.05 33.25 -87.5 L33.65 -84.0 Q34.2 -80.2 34.8 -78.1 L34.7 -77.95 34.9 -77.75 35.15 -76.95 35.6 -77.4 40.1 -82.25 39.75 -81.3 Q39.0 -79.2 38.95 -78.2 L38.65 -77.1 Q38.35 -76.7 38.35 -76.3 L38.35 -76.15 38.05 -76.05 38.4 -75.95 38.5 -75.7 M66.7 -114.4 Q63.7 -112.75 60.85 -110.45 L57.5 -107.4 57.05 -108.95 64.7 -113.4 66.7 -114.4" fill="#730b0b" fill-rule="evenodd" stroke="none"/>
      <path d="M60.0 -155.65 L56.6 -158.7 54.75 -160.2 Q57.1 -158.9 59.55 -157.7 L60.0 -155.65 M-40.8 -121.7 L-37.8 -117.65 -37.7 -117.3 -37.4 -117.05 -37.35 -117.05 -21.6 -95.85 Q-19.85 -99.9 -15.15 -112.75 L-12.6 -117.65 -12.1 -118.75 Q-10.4 -122.3 -8.2 -127.65 L-7.65 -128.65 Q-6.3 -130.35 -5.25 -130.35 L-2.8 -129.5 0.15 -128.25 -1.3 -128.1 -3.05 -128.25 Q-3.65 -128.25 -4.5 -127.0 L-5.1 -127.0 -5.4 -126.6 -6.0 -126.65 -5.9 -126.5 -6.15 -126.5 -6.7 -126.55 -6.75 -126.5 -5.9 -126.3 -5.65 -126.25 -5.65 -126.2 -5.7 -126.15 -6.85 -126.25 -7.3 -125.45 -6.3 -125.3 -6.9 -124.4 Q-11.55 -117.6 -15.05 -109.75 -20.25 -98.3 -20.55 -89.75 L-21.0 -90.25 Q-25.0 -96.7 -31.7 -105.25 L-39.05 -114.2 -42.45 -118.85 -40.8 -121.7 M47.8 -74.55 Q41.2 -72.55 33.0 -69.4 L32.5 -69.3 32.4 -69.75 32.4 -70.4 32.4 -70.55 32.4 -70.6 32.35 -71.55 31.15 -79.5 31.35 -79.65 31.25 -79.85 31.1 -79.8 30.2 -85.1 29.2 -90.75 30.0 -91.1 29.9 -91.45 29.1 -91.3 28.4 -95.35 29.15 -95.65 Q29.0 -95.95 28.2 -96.25 L28.1 -96.7 Q31.05 -97.4 34.5 -100.75 38.35 -104.5 38.35 -106.35 L38.5 -107.3 38.95 -108.05 Q38.45 -105.35 37.0 -101.95 L36.3 -100.4 36.05 -99.9 35.85 -99.7 30.2 -92.9 32.35 -82.85 33.85 -73.85 38.5 -75.7 38.55 -75.65 38.6 -75.65 38.65 -75.55 38.8 -75.6 39.4 -75.6 39.55 -75.85 46.9 -78.45 Q51.65 -79.75 54.9 -79.95 L70.1 -79.95 72.3 -79.15 72.35 -79.15 72.7 -77.65 72.95 -76.25 73.0 -76.0 Q68.8 -80.9 48.15 -74.65 41.3 -74.05 37.6 -73.0 35.3 -72.4 33.75 -71.35 L35.3 -71.8 Q43.95 -74.2 47.8 -74.55 M16.0 -122.5 L17.15 -122.1 Q7.35 -125.15 -1.5 -126.2 L-4.25 -126.5 -4.0 -126.9 -0.1 -126.2 Q11.0 -124.1 16.0 -122.5 M77.9 -117.0 L79.75 -112.7 78.6 -111.85 78.4 -112.15 78.05 -112.2 78.05 -112.35 77.95 -113.7 Q69.3 -114.1 62.95 -109.65 L60.85 -108.0 60.8 -108.15 60.35 -107.8 60.4 -107.6 60.05 -107.25 59.95 -107.5 59.05 -106.85 59.15 -106.3 58.2 -105.15 58.0 -105.0 57.95 -104.95 57.75 -105.45 57.75 -106.35 57.65 -106.8 57.5 -107.4 60.85 -110.45 Q63.7 -112.75 66.7 -114.4 L69.0 -115.5 69.35 -115.6 69.65 -115.7 76.5 -117.5 77.5 -117.7 77.6 -117.7 77.9 -117.0 M77.95 -111.8 L78.55 -111.85 77.4 -110.95 77.95 -111.8 M75.95 -111.65 L76.05 -111.5 Q74.9 -110.1 74.7 -109.35 L74.8 -109.3 73.95 -108.4 68.8 -104.55 68.55 -104.45 63.45 -101.7 61.9 -105.5 63.4 -106.95 65.2 -107.95 70.85 -110.9 75.8 -111.65 75.95 -111.65 M72.0 -70.75 L71.55 -69.9 71.15 -70.2 Q70.95 -72.05 70.35 -74.0 L70.15 -74.6 71.3 -74.2 Q72.9 -73.5 72.9 -72.95 72.9 -72.3 72.0 -70.75 M-14.85 -164.9 L-11.35 -165.35 -15.55 -164.0 -15.25 -164.55 -14.85 -164.9 M-18.4 -109.7 L-18.8 -108.85 -19.35 -110.6 -18.35 -111.95 -18.95 -110.65 Q-18.55 -110.4 -18.4 -109.7" fill="#400606" fill-rule="evenodd" stroke="none"/>
    </g>
  </defs>
</svg>
