<?xml version="1.0" encoding="UTF-8" standalone="no"?>
<svg xmlns:ffdec="https://www.free-decompiler.com/flash" xmlns:xlink="http://www.w3.org/1999/xlink" ffdec:objectType="frame" height="31.0px" width="117.15px" xmlns="http://www.w3.org/2000/svg">
  <g transform="matrix(1.0, 0.0, 0.0, 1.0, 0.0, 0.0)">
    <use ffdec:characterId="184" height="31.0" transform="matrix(1.0, 0.0, 0.0, 1.0, 0.0, 0.0)" width="117.15" xlink:href="#shape0"/>
  </g>
  <defs>
    <g id="shape0" transform="matrix(1.0, 0.0, 0.0, 1.0, 0.0, 0.0)">
      <path d="M0.0 2.4 L0.0 0.0 106.5 0.0 106.5 0.2 Q110.35 0.8 113.2 3.25 117.15 6.65 117.15 11.45 L117.15 19.55 Q117.15 24.35 113.2 27.7 L113.2 27.65 Q110.35 30.2 106.5 30.8 L106.5 31.0 0.0 31.0 0.0 28.6 104.25 28.6 106.5 28.35 Q109.4 27.75 111.65 25.85 114.75 23.25 114.75 19.55 L114.75 11.45 Q114.75 7.75 111.65 5.05 L111.65 5.1 Q109.4 3.2 106.5 2.65 L104.25 2.4 0.0 2.4" fill="url(#gradient0)" fill-rule="evenodd" stroke="none"/>
      <path d="M0.0 2.4 L104.25 2.4 106.5 2.65 Q109.4 3.2 111.65 5.1 L111.65 5.05 Q114.75 7.75 114.75 11.45 L114.75 19.55 Q114.75 23.25 111.65 25.85 109.4 27.75 106.5 28.35 L104.25 28.6 0.0 28.6 0.0 2.4" fill="url(#gradient1)" fill-rule="evenodd" stroke="none"/>
    </g>
    <linearGradient gradientTransform="matrix(0.0, -0.0204, 0.0189, 0.0, 50.95, 15.5)" gradientUnits="userSpaceOnUse" id="gradient0" spreadMethod="pad" x1="-819.2" x2="819.2">
      <stop offset="0.0" stop-color="#0156a9"/>
      <stop offset="1.0" stop-color="#ffffff"/>
    </linearGradient>
    <linearGradient gradientTransform="matrix(0.0, 0.0187, -0.016, 0.0, 50.95, 15.5)" gradientUnits="userSpaceOnUse" id="gradient1" spreadMethod="pad" x1="-819.2" x2="819.2">
      <stop offset="0.0" stop-color="#05488b"/>
      <stop offset="1.0" stop-color="#57c0fa"/>
    </linearGradient>
  </defs>
</svg>
