<?xml version="1.0" encoding="UTF-8" standalone="no"?>
<svg xmlns:ffdec="https://www.free-decompiler.com/flash" xmlns:xlink="http://www.w3.org/1999/xlink" ffdec:objectType="frame" height="48.0px" width="48.0px" xmlns="http://www.w3.org/2000/svg">
  <g transform="matrix(1.0, 0.0, 0.0, 1.0, 0.0, 0.0)">
    <use ffdec:characterId="428" height="48.0" transform="matrix(1.0, 0.0, 0.0, 1.0, 0.0, 0.0)" width="48.0" xlink:href="#shape0"/>
  </g>
  <defs>
    <g id="shape0" transform="matrix(1.0, 0.0, 0.0, 1.0, 0.0, 0.0)">
      <path d="M38.15 34.3 L37.75 35.9 37.85 34.9 38.15 34.3" fill="#3b3b3b" fill-rule="evenodd" stroke="none"/>
      <path d="M33.05 8.55 L33.05 8.3 33.1 8.5 33.05 8.55 M19.7 25.4 L19.7 25.3 19.85 25.4 19.7 25.4 M31.1 27.45 L31.05 27.55 30.75 27.75 30.9 27.55 31.1 27.45" fill="#646464" fill-rule="evenodd" stroke="none"/>
      <path d="M27.95 30.6 L27.85 30.7 27.95 30.5 27.95 30.6" fill="#1ad310" fill-rule="evenodd" stroke="none"/>
      <path d="M28.2 30.4 L27.95 30.6 27.95 30.5 28.2 30.4" fill="#15ac0d" fill-rule="evenodd" stroke="none"/>
      <path d="M45.1 1.2 L45.35 1.35 45.4 1.4 45.8 1.7 46.15 2.05 46.4 2.3 46.85 2.9 47.3 3.7 47.4 3.9 47.6 4.5 47.75 4.95 48.0 7.5 48.0 9.8 48.0 9.9 48.0 40.5 Q48.0 42.05 47.65 43.35 L47.3 44.35 46.75 45.35 46.1 46.1 Q45.05 47.1 43.45 47.6 L43.15 47.65 42.8 47.75 42.7 47.75 41.15 48.0 40.9 48.0 40.6 48.0 38.45 48.0 38.45 47.8 38.55 47.7 Q39.2 44.7 40.4 40.0 L41.5 36.05 Q42.35 34.3 43.05 31.95 L43.9 28.5 44.1 27.55 44.4 25.75 44.8 23.3 44.8 22.2 44.95 20.6 45.3 19.4 45.35 18.0 45.3 17.35 45.4 17.1 45.45 11.15 45.5 10.55 45.45 9.25 45.5 8.15 45.55 3.85 Q45.55 2.25 45.1 1.2 M10.3 48.0 L10.15 48.0 9.95 48.0 10.0 48.0 7.7 48.0 7.1 48.0 6.9 48.0 Q4.75 47.8 3.3 47.05 L2.45 46.55 1.7 45.85 1.4 45.5 0.65 44.15 Q0.0 42.65 0.0 40.6 L0.0 40.5 0.0 7.5 0.2 5.35 0.25 5.15 0.45 4.5 0.95 3.3 1.15 2.95 1.4 2.55 1.45 2.6 1.45 2.5 1.55 2.35 1.85 2.1 1.5 3.3 Q0.95 5.7 0.95 9.0 L0.95 13.05 1.1 13.2 1.15 14.45 Q1.45 17.55 2.9 22.05 L3.45 23.65 4.05 25.15 4.0 25.15 Q6.1 30.4 7.65 35.6 L8.05 36.95 8.15 37.9 8.05 38.3 9.05 42.2 10.2 47.3 10.2 47.5 10.3 48.0" fill="#000000" fill-rule="evenodd" stroke="none"/>
      <path d="M16.25 0.0 L18.55 0.0 18.75 0.0 28.7 0.0 29.4 4.7 29.55 5.7 29.55 6.0 29.7 6.1 29.7 7.1 29.45 7.55 Q29.2 8.75 29.35 9.3 L29.0 10.55 Q28.1 14.8 27.95 16.15 L26.4 18.05 Q23.85 20.4 20.8 19.15 18.5 18.15 17.7 16.55 15.35 11.65 15.5 5.55 15.6 2.6 16.25 0.0" fill="#c9fdac" fill-rule="evenodd" stroke="none"/>
      <path d="M14.9 0.0 L16.25 0.0 Q15.6 2.6 15.5 5.55 15.35 11.65 17.7 16.55 18.5 18.15 20.8 19.15 23.85 20.4 26.4 18.05 L27.95 16.15 Q28.1 14.8 29.0 10.55 L29.35 9.3 Q29.2 8.75 29.45 7.55 L29.7 7.1 29.7 6.1 29.55 6.0 29.55 5.7 29.4 4.7 28.7 0.0 30.6 0.0 Q31.4 3.6 31.35 6.35 L30.9 10.2 30.35 14.7 Q30.05 17.5 28.05 20.45 25.2 22.5 23.85 22.75 L21.45 22.25 20.05 21.8 19.95 21.8 Q19.15 21.8 19.25 21.35 L18.0 19.7 Q17.0 18.55 16.55 17.65 14.4 13.15 14.5 5.2 14.5 2.35 14.9 0.0" fill="#b9fd95" fill-rule="evenodd" stroke="none"/>
      <path d="M14.1 0.0 L14.9 0.0 Q14.5 2.35 14.5 5.2 14.4 13.15 16.55 17.65 17.0 18.55 18.0 19.7 L19.25 21.35 Q19.15 21.8 19.95 21.8 L20.05 21.8 21.45 22.25 23.85 22.75 Q25.2 22.5 28.05 20.45 30.05 17.5 30.35 14.7 L30.9 10.2 31.35 6.35 Q31.4 3.6 30.6 0.0 L32.25 0.0 Q33.05 3.5 33.05 7.75 L33.05 8.25 33.05 8.3 33.05 8.55 Q32.65 8.95 32.15 10.3 L31.5 13.9 Q31.95 15.4 31.65 16.9 31.15 19.65 27.6 22.9 L25.6 24.3 21.5 23.4 18.4 23.2 18.25 22.95 Q18.0 22.5 18.1 22.2 L15.3 17.7 Q13.2 13.25 13.6 4.7 13.7 2.2 14.1 0.0" fill="#9ffc6d" fill-rule="evenodd" stroke="none"/>
      <path d="M12.1 0.0 L13.0 0.0 13.0 0.1 13.15 0.05 13.2 0.05 13.75 0.0 14.1 0.0 Q13.7 2.2 13.6 4.7 13.2 13.25 15.3 17.7 L18.1 22.2 Q18.0 22.5 18.25 22.95 L18.4 23.2 21.5 23.4 25.6 24.3 27.6 22.9 Q31.15 19.65 31.65 16.9 31.95 15.4 31.5 13.9 L32.15 10.3 Q32.65 8.95 33.05 8.55 L33.1 8.5 33.05 8.3 33.05 8.25 33.05 7.75 Q33.05 3.5 32.25 0.0 L33.5 0.0 34.2 6.05 Q34.4 8.7 34.2 11.1 L34.1 11.75 34.05 12.05 34.05 12.15 Q33.65 12.7 33.25 14.3 32.35 18.0 32.45 18.6 30.85 22.75 27.65 25.9 L24.55 26.1 21.85 25.9 Q21.1 25.35 19.85 25.4 L19.7 25.3 19.7 25.4 19.35 25.4 18.75 25.55 16.75 22.6 Q14.8 20.1 14.15 18.7 12.75 15.7 12.25 14.05 11.65 11.85 11.3 8.1 10.95 4.35 12.1 0.0" fill="#8bfb4f" fill-rule="evenodd" stroke="none"/>
      <path d="M11.5 0.0 L12.1 0.0 Q10.95 4.35 11.3 8.1 11.65 11.85 12.25 14.05 12.75 15.7 14.15 18.7 14.8 20.1 16.75 22.6 L18.75 25.55 19.35 25.4 19.7 25.4 19.85 25.4 Q21.1 25.35 21.85 25.9 L24.55 26.1 27.65 25.9 Q30.85 22.75 32.45 18.6 32.35 18.0 33.25 14.3 33.65 12.7 34.05 12.15 L34.05 12.05 34.1 11.75 34.2 11.1 Q34.4 8.7 34.2 6.05 L33.5 0.0 34.55 0.0 Q35.75 5.25 35.75 7.5 L35.75 11.85 Q35.55 14.55 34.95 16.55 33.6 20.35 32.35 22.15 L29.0 26.95 27.75 28.05 28.0 28.15 27.85 28.4 27.2 28.9 27.1 29.0 27.05 29.0 Q24.5 29.55 22.25 29.0 20.2 28.45 18.1 26.7 L18.1 26.3 17.05 25.1 Q14.3 21.45 12.45 17.6 11.2 15.05 10.9 14.0 10.35 12.35 10.1 9.05 9.95 7.35 11.2 1.7 L11.5 0.0" fill="#66fa16" fill-rule="evenodd" stroke="none"/>
      <path d="M10.45 0.0 L10.55 0.0 10.55 0.1 10.7 0.05 10.75 0.05 11.5 0.0 11.2 1.7 Q9.95 7.35 10.1 9.05 10.35 12.35 10.9 14.0 11.2 15.05 12.45 17.6 14.3 21.45 17.05 25.1 L18.1 26.3 18.1 26.7 Q20.2 28.45 22.25 29.0 24.5 29.55 27.05 29.0 L27.1 29.0 27.2 28.9 27.85 28.4 28.0 28.15 27.75 28.05 29.0 26.95 32.35 22.15 Q33.6 20.35 34.95 16.55 35.55 14.55 35.75 11.85 L35.75 7.5 Q35.75 5.25 34.55 0.0 L34.65 0.0 36.4 0.0 36.4 0.35 36.55 1.15 Q36.95 4.65 36.9 8.85 L36.65 13.8 Q36.4 16.55 35.55 19.8 35.25 21.1 34.1 22.8 L31.7 26.5 31.15 27.4 31.1 27.45 30.9 27.55 30.75 27.75 30.75 27.8 30.7 27.8 30.55 27.9 30.55 28.05 29.75 29.1 28.3 30.3 28.2 30.4 27.95 30.5 27.85 30.7 27.15 31.55 26.3 31.8 25.25 32.15 21.65 31.5 21.25 31.45 20.1 30.85 18.9 30.6 17.25 28.4 14.85 24.7 11.1 17.8 Q8.8 13.05 9.55 5.55 L10.0 1.65 10.3 0.2 10.4 0.35 10.45 0.0" fill="#4dd204" fill-rule="evenodd" stroke="none"/>
      <path d="M27.6 48.0 L19.25 48.0 19.05 44.45 Q18.4 35.35 16.85 32.05 L11.1 21.65 Q8.35 15.8 7.95 7.85 L7.95 7.4 7.9 7.35 7.8 6.0 7.8 5.95 7.85 5.2 7.7 2.55 8.1 1.15 8.35 0.0 10.45 0.0 10.4 0.35 10.3 0.2 10.0 1.65 9.55 5.55 Q8.8 13.05 11.1 17.8 L14.85 24.7 17.25 28.4 18.9 30.6 20.1 30.85 21.25 31.45 21.65 31.5 25.25 32.15 26.3 31.8 27.15 31.55 27.85 30.7 27.95 30.6 28.2 30.4 28.3 30.3 29.75 29.1 30.55 28.05 30.55 27.9 30.7 27.8 30.75 27.8 30.75 27.75 31.05 27.55 31.1 27.45 31.15 27.4 31.7 26.5 34.1 22.8 Q35.25 21.1 35.55 19.8 36.4 16.55 36.65 13.8 L36.9 8.85 Q36.95 4.65 36.55 1.15 L36.4 0.35 36.4 0.0 37.7 0.0 37.8 0.0 38.1 0.0 38.1 0.15 38.1 0.2 38.05 0.5 38.05 2.6 37.85 3.65 38.25 4.25 38.45 6.4 37.75 16.55 Q37.45 20.15 34.0 26.8 L30.0 34.7 29.85 35.05 29.55 35.8 29.5 35.8 29.25 37.7 Q28.7 39.1 28.2 43.45 L28.0 46.45 27.6 47.8 27.6 48.0" fill="#40af03" fill-rule="evenodd" stroke="none"/>
      <path d="M29.25 48.0 L27.6 48.0 27.6 47.8 28.0 46.45 28.2 43.45 Q28.7 39.1 29.25 37.7 L29.5 35.8 29.55 35.8 29.85 35.05 30.0 34.7 34.0 26.8 Q37.45 20.15 37.75 16.55 L38.45 6.4 38.25 4.25 37.85 3.65 38.05 2.6 38.05 0.5 38.1 0.2 38.1 0.15 38.1 0.0 39.7 0.0 40.0 0.0 40.15 0.0 40.15 0.2 40.0 2.05 40.0 2.1 40.1 2.2 40.0 2.75 39.95 5.25 Q39.6 6.0 39.7 7.0 L39.75 11.0 39.75 12.15 39.55 14.45 Q39.25 15.05 39.05 16.25 L38.95 17.55 34.3 28.35 Q29.85 38.55 30.5 39.95 L30.35 40.75 29.75 44.3 29.4 46.25 29.4 46.5 29.4 46.55 29.35 46.9 29.35 47.6 29.25 47.95 29.25 48.0 M19.25 48.0 L18.4 48.0 17.85 43.75 Q16.35 34.05 14.5 30.15 L10.15 22.05 Q7.45 16.45 7.15 8.6 L6.9 3.25 6.9 3.15 7.0 2.85 7.0 1.8 7.15 1.5 7.25 0.8 7.55 0.0 7.8 0.0 8.35 0.0 8.1 1.15 7.7 2.55 7.85 5.2 7.8 5.95 7.8 6.0 7.9 7.35 7.95 7.4 7.95 7.85 Q8.35 15.8 11.1 21.65 L16.85 32.05 Q18.4 35.35 19.05 44.45 L19.25 48.0" fill="#379902" fill-rule="evenodd" stroke="none"/>
      <path d="M30.55 48.0 L29.95 48.0 29.95 47.9 29.9 47.9 29.85 48.0 29.25 48.0 29.25 47.95 29.35 47.6 29.35 46.9 29.4 46.55 29.4 46.5 29.4 46.25 29.75 44.3 30.35 40.75 30.5 39.95 Q29.85 38.55 34.3 28.35 L38.95 17.55 39.05 16.25 Q39.25 15.05 39.55 14.45 L39.75 12.15 39.75 11.0 39.7 7.0 Q39.6 6.0 39.95 5.25 L40.0 2.75 40.1 2.2 40.0 2.1 40.0 2.05 40.15 0.2 40.15 0.0 40.4 0.0 40.55 0.0 40.95 0.05 41.3 0.05 41.3 0.6 41.0 1.5 40.95 1.65 41.0 1.7 41.0 2.0 Q41.0 2.7 41.15 3.2 L41.1 4.35 Q40.75 6.3 40.55 9.4 L39.7 18.7 39.55 18.95 37.85 23.6 36.0 28.8 35.15 30.9 35.05 31.15 35.0 31.1 33.65 34.35 33.2 35.75 Q32.45 37.8 31.95 40.0 L31.5 42.45 30.9 44.3 30.55 48.0 M18.4 48.0 L17.6 48.0 17.15 42.9 Q16.3 36.65 13.95 31.9 L8.45 20.5 Q6.85 15.8 6.45 7.95 L6.3 3.25 6.3 3.1 6.3 2.85 6.5 2.05 Q6.3 1.75 6.45 1.05 6.6 0.45 6.9 0.05 L6.95 0.05 7.15 0.05 7.55 0.0 7.25 0.8 7.15 1.5 7.0 1.8 7.0 2.85 6.9 3.15 6.9 3.25 7.15 8.6 Q7.45 16.45 10.15 22.05 L14.5 30.15 Q16.35 34.05 17.85 43.75 L18.4 48.0" fill="#2f8202" fill-rule="evenodd" stroke="none"/>
      <path d="M31.9 48.0 L31.9 47.9 31.8 47.9 31.75 48.0 30.9 48.0 30.9 47.9 30.85 48.0 30.55 48.0 30.9 44.3 31.5 42.45 31.95 40.0 Q32.45 37.8 33.2 35.75 L33.65 34.35 35.0 31.1 35.05 31.15 35.15 30.9 36.0 28.8 37.85 23.6 39.55 18.95 39.7 18.7 40.55 9.4 Q40.75 6.3 41.1 4.35 L41.15 3.2 Q41.0 2.7 41.0 2.0 L41.0 1.7 41.0 1.5 41.3 0.6 41.3 0.05 41.65 0.1 42.05 0.2 42.1 0.35 42.1 1.4 42.0 1.85 42.0 2.0 41.95 3.5 41.95 3.55 41.95 6.8 41.95 7.1 41.7 9.1 41.1 15.35 40.15 18.95 Q39.4 21.9 39.4 22.5 L39.4 22.85 Q37.65 27.9 36.5 30.2 L36.3 30.85 35.9 31.4 32.75 41.95 32.85 42.6 32.15 46.5 31.9 48.0 M17.6 48.0 L16.85 48.0 16.75 47.3 Q15.9 39.65 14.35 35.1 L8.65 23.25 8.3 21.95 8.0 21.45 Q7.1 19.5 6.5 14.55 L6.1 12.95 5.95 9.3 5.7 6.55 5.6 5.3 5.55 5.3 5.55 5.1 5.3 4.85 5.35 4.55 5.35 4.5 Q5.65 2.25 6.0 1.3 6.2 0.65 6.7 0.1 L6.9 0.05 Q6.6 0.45 6.45 1.05 6.3 1.75 6.5 2.05 L6.3 2.85 6.3 3.1 6.3 3.25 6.45 7.95 Q6.85 15.8 8.45 20.5 L13.95 31.9 Q16.3 36.65 17.15 42.9 L17.6 48.0" fill="#236101" fill-rule="evenodd" stroke="none"/>
      <path d="M33.55 48.0 L33.1 48.0 33.1 47.9 33.05 47.9 33.0 48.0 32.3 48.0 32.3 47.95 32.3 48.0 31.9 48.0 32.15 46.5 32.85 42.6 32.75 41.95 35.9 31.4 36.3 30.85 36.5 30.2 Q37.65 27.9 39.4 22.85 L39.4 22.5 Q39.4 21.9 40.15 18.95 L41.1 15.35 41.7 9.1 41.95 7.1 41.95 8.6 41.9 8.8 41.85 13.3 41.75 13.5 41.75 14.2 41.85 14.35 41.9 15.25 42.0 15.3 Q41.5 17.75 41.1 21.25 L40.0 25.4 39.95 25.45 39.75 25.9 Q37.65 31.7 36.35 36.2 L35.65 38.65 35.55 38.85 Q35.1 40.2 33.8 45.85 L33.7 46.2 33.7 46.5 33.55 48.0 M16.85 48.0 L15.4 48.0 14.55 41.95 Q14.15 38.7 12.85 35.3 L10.35 29.45 8.0 23.4 Q6.8 19.95 6.15 16.7 L5.5 10.65 5.35 10.65 5.3 10.25 5.05 7.2 5.05 5.65 Q5.05 5.1 5.35 4.55 L5.3 4.85 5.55 5.1 5.55 5.3 5.6 5.3 5.7 6.55 5.95 9.3 6.1 12.95 6.5 14.55 Q7.1 19.5 8.0 21.45 L8.3 21.95 8.65 23.25 14.35 35.1 Q15.9 39.65 16.75 47.3 L16.85 48.0" fill="#1c4e01" fill-rule="evenodd" stroke="none"/>
      <path d="M35.05 48.0 L33.55 48.0 33.7 46.5 33.7 46.2 33.8 45.85 Q35.1 40.2 35.55 38.85 L35.65 38.65 36.35 36.2 Q37.65 31.7 39.75 25.9 L39.95 25.45 40.0 25.4 41.1 21.25 Q41.5 17.75 42.0 15.3 L41.9 15.25 41.85 14.35 41.75 14.2 41.75 13.5 41.85 13.3 41.9 8.8 41.95 8.6 41.95 7.1 41.95 6.8 41.95 3.55 41.95 3.5 42.0 2.0 42.0 1.85 42.1 1.4 42.1 0.35 42.05 0.2 42.1 0.2 43.0 0.35 43.05 0.35 42.75 0.7 42.5 1.15 42.55 1.05 42.7 1.1 42.75 2.25 42.6 4.4 42.45 4.5 42.7 5.3 42.7 6.05 42.75 6.05 42.8 7.15 42.75 7.4 42.8 11.85 42.65 14.4 42.15 20.2 42.05 21.9 40.9 25.1 39.4 30.0 Q38.9 31.2 38.15 34.3 L37.85 34.9 37.75 35.9 37.7 36.1 Q37.45 36.8 37.35 37.6 L37.3 38.05 37.0 38.7 37.0 39.1 36.2 42.0 Q35.4 45.0 35.35 45.6 L35.15 46.55 35.15 46.85 35.1 47.8 35.1 47.95 35.05 48.0 M15.4 48.0 L13.7 48.0 Q13.4 45.0 12.75 41.9 11.75 37.55 9.05 29.75 L5.6 20.05 5.55 20.05 5.45 19.2 5.4 19.2 Q4.65 19.2 4.25 14.55 3.9 9.9 4.25 5.55 5.1 1.6 5.9 0.15 L6.3 0.1 6.65 0.05 6.7 0.05 6.7 0.1 Q6.2 0.65 6.0 1.3 5.65 2.25 5.35 4.5 L5.35 4.55 Q5.05 5.1 5.05 5.65 L5.05 7.2 5.3 10.25 5.35 10.65 5.5 10.65 6.15 16.7 Q6.8 19.95 8.0 23.4 L10.35 29.45 12.85 35.3 Q14.15 38.7 14.55 41.95 L15.4 48.0" fill="#163f01" fill-rule="evenodd" stroke="none"/>
      <path d="M36.9 48.0 L35.05 48.0 35.1 47.95 35.1 47.8 35.15 46.85 35.15 46.55 35.35 45.6 Q35.4 45.0 36.2 42.0 L37.0 39.1 37.0 38.7 37.3 38.05 37.35 37.6 Q37.45 36.8 37.7 36.1 L37.75 35.9 38.15 34.3 Q38.9 31.2 39.4 30.0 L40.9 25.1 42.05 21.9 42.15 20.2 42.65 14.4 42.8 11.85 42.75 7.4 42.8 7.15 42.75 6.05 42.7 6.05 42.7 5.3 42.45 4.5 42.6 4.4 42.75 2.25 42.7 1.1 42.55 1.05 42.5 1.15 42.75 0.7 43.05 0.35 43.7 0.55 44.0 0.65 43.9 2.35 44.0 2.55 44.05 7.0 44.1 7.15 44.1 13.0 44.1 13.3 44.1 13.8 43.7 20.25 Q43.2 25.5 42.55 27.45 L42.55 27.6 42.55 27.7 41.0 31.6 39.95 35.45 39.85 35.55 39.65 36.4 39.35 37.2 39.35 37.25 37.7 44.1 36.8 47.3 36.9 47.8 36.9 48.0 M13.7 48.0 L13.3 48.0 13.2 48.0 12.75 48.0 Q12.75 46.5 11.5 42.9 L10.95 39.8 Q9.8 34.45 8.15 30.85 L5.7 25.1 5.25 24.25 Q4.55 22.75 4.35 21.4 3.9 20.6 3.5 18.9 2.8 15.75 2.75 11.2 L2.75 8.55 Q3.3 2.3 4.6 0.45 L4.75 0.4 5.2 0.3 5.55 0.2 5.9 0.15 Q5.1 1.6 4.25 5.55 3.9 9.9 4.25 14.55 4.65 19.2 5.4 19.2 L5.45 19.2 5.55 20.05 5.6 20.05 9.05 29.75 Q11.75 37.55 12.75 41.9 13.4 45.0 13.7 48.0" fill="#123201" fill-rule="evenodd" stroke="none"/>
      <path d="M38.45 48.0 L37.55 48.0 37.3 48.0 37.1 48.0 36.9 48.0 36.9 47.8 36.8 47.3 37.7 44.1 39.35 37.25 39.35 37.2 39.65 36.4 39.85 35.55 39.95 35.45 41.0 31.6 42.55 27.7 42.55 27.6 42.55 27.45 Q43.2 25.5 43.7 20.25 L44.1 13.8 44.1 13.3 44.1 13.0 44.1 7.15 44.05 7.0 44.0 2.55 43.9 2.35 44.0 0.65 44.05 0.65 44.9 1.05 45.05 1.15 45.1 1.2 Q45.55 2.25 45.55 3.85 L45.5 8.15 45.45 9.25 45.5 10.55 45.45 11.15 45.4 17.1 45.3 17.35 45.35 18.0 45.3 19.4 44.95 20.6 44.8 22.2 44.8 23.3 44.4 25.75 44.1 27.55 43.9 28.5 43.05 31.95 Q42.35 34.3 41.5 36.05 L40.4 40.0 Q39.2 44.7 38.55 47.7 L38.45 47.8 38.45 48.0 M12.75 48.0 L10.9 48.0 10.8 48.0 10.75 48.0 10.3 48.0 10.2 47.5 10.2 47.3 9.05 42.2 8.05 38.3 8.15 37.9 8.05 36.95 7.65 35.6 Q6.1 30.4 4.0 25.15 L4.05 25.15 3.45 23.65 2.9 22.05 Q1.45 17.55 1.15 14.45 L1.1 13.2 0.95 13.05 0.95 9.0 Q0.95 5.7 1.5 3.3 L1.85 2.1 1.55 2.35 2.0 1.9 2.05 1.85 2.2 1.7 2.95 1.15 3.3 0.95 3.95 0.65 Q4.1 0.55 4.35 0.5 L4.6 0.45 Q3.3 2.3 2.75 8.55 L2.75 11.2 Q2.8 15.75 3.5 18.9 3.9 20.6 4.35 21.4 4.55 22.75 5.25 24.25 L5.7 25.1 8.15 30.85 Q9.8 34.45 10.95 39.8 L11.5 42.9 Q12.75 46.5 12.75 48.0 M37.55 48.0 L37.55 47.95 37.55 48.0" fill="#0c1f01" fill-rule="evenodd" stroke="none"/>
    </g>
  </defs>
</svg>
