<?xml version="1.0" encoding="UTF-8" standalone="no"?>
<svg xmlns:ffdec="https://www.free-decompiler.com/flash" xmlns:xlink="http://www.w3.org/1999/xlink" ffdec:objectType="frame" height="249.2px" width="80.15px" xmlns="http://www.w3.org/2000/svg">
  <g transform="matrix(1.0, 0.0, 0.0, 1.0, 0.0, 0.0)">
    <use ffdec:characterId="21" height="35.6" transform="matrix(7.0, 0.0, 0.0, 7.0, 0.0, 0.0)" width="11.45" xlink:href="#shape0"/>
  </g>
  <defs>
    <g id="shape0" transform="matrix(1.0, 0.0, 0.0, 1.0, 0.0, 0.0)">
      <path d="M9.4 2.05 Q9.85 2.45 10.1 2.8 10.3 2.35 10.0 1.95 L9.15 1.25 Q8.85 1.6 9.4 2.05 M9.65 6.05 Q9.65 5.65 9.45 5.2 9.45 5.4 9.4 5.75 9.3 6.2 9.15 6.5 L8.3 6.8 7.75 6.95 7.55 6.95 6.7 6.7 Q6.15 6.55 5.75 6.3 L5.55 6.15 5.55 6.05 5.5 6.05 Q5.3 5.85 5.2 5.65 L5.15 5.6 Q5.1 5.55 5.05 5.55 4.9 5.25 4.85 4.9 4.5 5.35 4.8 5.8 L5.3 6.65 Q5.35 6.95 5.55 7.1 5.9 7.6 6.55 7.85 L6.55 8.1 6.55 8.05 Q2.75 6.9 5.05 2.8 7.3 -1.1 10.8 1.7 L9.65 6.05 M6.55 8.35 L6.8 8.55 Q6.65 8.65 6.6 8.8 L6.55 8.35 M6.6 8.95 L6.6 9.25 6.6 8.95 M6.6 9.95 L6.85 9.65 7.0 9.45 Q7.25 9.35 7.55 9.25 8.25 8.9 8.75 8.45 L8.55 8.45 8.7 8.35 9.1 8.05 8.45 20.55 8.35 20.0 Q8.2 20.05 8.05 20.2 8.15 21.5 7.75 22.95 L8.25 22.35 7.25 26.9 4.2 33.1 4.5 31.15 Q4.2 32.05 3.5 32.8 3.65 33.55 3.15 34.4 L2.9 34.35 3.0 34.15 2.7 34.3 Q2.5 34.2 2.3 34.05 1.65 33.6 1.4 32.9 L1.4 32.85 1.45 32.75 1.5 32.6 Q1.35 32.7 1.3 32.8 1.15 32.4 1.1 32.0 1.0 32.1 0.95 32.2 L0.4 34.0 0.45 33.65 Q0.35 31.8 2.3 29.2 L1.8 29.95 Q2.6 30.1 3.15 29.4 3.7 28.7 3.9 28.0 4.15 27.75 4.3 27.4 4.55 27.1 4.6 26.75 L4.65 26.7 4.6 26.7 4.55 26.6 Q4.3 26.7 4.1 26.9 3.8 27.05 3.45 27.25 L3.2 27.45 Q2.9 27.5 2.6 27.65 L2.3 27.8 3.65 25.65 Q4.3 25.65 4.75 25.1 L5.0 24.75 5.2 24.4 5.5 23.75 5.6 23.6 Q5.8 23.2 5.85 22.7 5.7 22.8 5.55 22.95 L5.55 22.9 5.3 23.15 Q5.05 23.3 4.85 23.5 L4.85 23.55 4.55 23.8 4.3 23.85 Q3.5 24.1 3.05 24.6 L5.3 20.0 5.35 20.0 Q5.3 20.15 5.3 20.3 L5.45 20.2 5.4 20.45 5.35 20.85 Q5.8 20.55 6.2 19.9 L6.55 19.2 Q6.9 18.85 7.1 18.4 L7.25 18.05 7.0 18.15 Q7.0 18.05 6.95 18.0 L6.95 18.0 6.85 17.95 Q6.7 17.95 6.6 18.1 6.15 18.3 5.75 18.6 4.9 19.3 4.35 20.05 6.65 15.35 6.6 9.95 M9.25 7.5 L9.4 6.85 9.25 7.5 M3.15 34.65 L2.5 35.2 2.25 34.8 Q2.5 34.8 2.7 34.55 L3.0 34.45 3.15 34.65 M2.0 35.45 L0.6 34.5 2.0 35.45 M3.7 25.55 L4.05 24.8 3.7 25.55 M3.15 24.8 L3.0 24.75 3.15 24.8 M4.45 20.2 L4.3 20.15 4.45 20.2 M7.95 14.25 Q8.1 15.8 8.35 17.15 L8.25 15.15 8.1 12.3 Q7.9 13.2 7.95 14.25 M6.75 26.4 Q6.9 25.9 6.6 25.65 6.3 25.75 6.15 26.1 5.9 26.55 6.1 27.0 L6.2 27.0 Q6.45 27.15 6.6 26.95 6.65 26.65 6.75 26.4 M3.35 32.7 Q3.0 32.7 2.95 33.1 2.9 33.55 2.9 33.95 3.3 33.95 3.45 33.55 3.55 33.1 3.35 32.7" fill="#a04545" fill-rule="evenodd" stroke="none"/>
      <path d="M9.4 2.05 Q8.85 1.6 9.15 1.25 L10.0 1.95 Q10.3 2.35 10.1 2.8 9.85 2.45 9.4 2.05 M7.95 14.25 Q7.9 13.2 8.1 12.3 L8.25 15.15 8.35 17.15 Q8.1 15.8 7.95 14.25 M6.75 26.4 Q6.65 26.65 6.6 26.95 6.45 27.15 6.2 27.0 L6.1 27.0 Q5.9 26.55 6.15 26.1 6.3 25.75 6.6 25.65 6.9 25.9 6.75 26.4 M3.35 32.7 Q3.55 33.1 3.45 33.55 3.3 33.95 2.9 33.95 2.9 33.55 2.95 33.1 3.0 32.7 3.35 32.7" fill="#e6c4c4" fill-rule="evenodd" stroke="none"/>
      <path d="M6.55 8.1 L6.55 7.85 Q5.9 7.6 5.55 7.1 5.35 6.95 5.3 6.65 L4.8 5.8 Q4.5 5.35 4.85 4.9 4.9 5.25 5.05 5.55 5.1 5.55 5.15 5.6 L5.2 5.65 Q5.3 5.85 5.5 6.05 L5.55 6.05 5.55 6.15 5.75 6.3 Q6.15 6.55 6.7 6.7 L7.55 6.95 7.75 6.95 8.3 6.8 9.15 6.5 Q9.3 6.2 9.4 5.75 9.45 5.4 9.45 5.2 9.65 5.65 9.65 6.05 L9.4 6.85 9.25 7.5 9.1 8.05 8.7 8.35 8.55 8.45 8.75 8.45 Q8.25 8.9 7.55 9.25 7.25 9.35 7.0 9.45 L6.85 9.65 6.6 9.95 6.6 9.25 6.6 8.95 6.6 8.8 Q6.65 8.65 6.8 8.55 L6.55 8.35 6.55 8.1 M8.45 20.55 L8.25 22.35 7.75 22.95 Q8.15 21.5 8.05 20.2 8.2 20.05 8.35 20.0 L8.45 20.55 M4.2 33.1 L3.15 34.65 3.0 34.45 2.7 34.55 Q2.5 34.8 2.25 34.8 L2.5 35.2 2.7 35.5 2.0 35.45 0.6 34.5 0.4 34.0 0.95 32.2 Q1.0 32.1 1.1 32.0 1.15 32.4 1.3 32.8 1.35 32.7 1.5 32.6 L1.45 32.75 1.4 32.85 1.4 32.9 Q1.65 33.6 2.3 34.05 2.5 34.2 2.7 34.3 L3.0 34.15 2.9 34.35 3.15 34.4 Q3.65 33.55 3.5 32.8 4.2 32.05 4.5 31.15 L4.2 33.1 M2.3 29.2 Q2.35 28.9 2.45 28.6 L1.55 28.5 2.3 27.8 2.6 27.65 Q2.9 27.5 3.2 27.45 L3.45 27.25 Q3.8 27.05 4.1 26.9 4.3 26.7 4.55 26.6 L4.6 26.7 4.65 26.7 4.6 26.75 Q4.55 27.1 4.3 27.4 4.15 27.75 3.9 28.0 3.7 28.7 3.15 29.4 2.6 30.1 1.8 29.95 L2.3 29.2 M3.65 25.65 L3.7 25.55 4.05 24.8 3.15 24.8 3.0 24.75 3.05 24.6 Q3.5 24.1 4.3 23.85 L4.55 23.8 4.85 23.55 4.85 23.5 Q5.05 23.3 5.3 23.15 L5.55 22.9 5.55 22.95 Q5.7 22.8 5.85 22.7 5.8 23.2 5.6 23.6 L5.5 23.75 5.2 24.4 5.0 24.75 4.75 25.1 Q4.3 25.65 3.65 25.65 M5.3 20.0 L4.45 20.2 4.3 20.15 4.35 20.05 Q4.9 19.3 5.75 18.6 6.15 18.3 6.6 18.1 6.7 17.95 6.85 17.95 L6.95 18.0 6.95 18.0 Q7.0 18.05 7.0 18.15 L7.25 18.05 7.1 18.4 Q6.9 18.85 6.55 19.2 L6.2 19.9 Q5.8 20.55 5.35 20.85 L5.4 20.45 5.45 20.2 5.3 20.3 Q5.3 20.15 5.35 20.0 L5.3 20.0" fill="#69221e" fill-rule="evenodd" stroke="none"/>
      <path d="M9.05 0.35 L9.15 0.3 Q10.05 0.65 10.8 1.3 11.3 1.75 11.2 2.4 11.7 3.55 11.05 5.05 10.75 5.75 10.35 6.3 L10.25 6.7 10.2 6.8 Q10.1 6.9 10.1 7.05 L9.8 7.4 9.25 8.95 9.15 9.2 Q9.25 11.95 9.15 14.8 L9.0 17.85 Q9.15 20.25 8.7 22.7 L8.5 23.65 Q8.4 24.8 7.95 25.9 7.7 26.6 7.3 27.15 6.65 28.5 5.85 29.8 5.55 30.55 5.1 31.3 L4.4 32.7 Q4.25 32.95 4.2 33.25 L4.15 33.4 Q4.0 34.55 2.85 35.25 2.65 35.35 2.45 35.4 2.15 35.55 1.8 35.5 0.9 35.9 0.3 34.85 0.05 34.4 0.05 33.95 L0.1 33.9 Q-0.15 33.25 0.25 32.25 0.4 31.75 0.6 31.3 L0.65 31.25 Q0.85 30.7 1.25 30.2 1.8 29.35 2.5 28.65 2.2 28.85 1.75 28.95 1.3 29.05 1.05 28.7 1.25 28.5 1.5 28.35 2.25 27.2 3.05 26.0 L3.85 24.85 3.6 24.95 3.2 24.95 2.85 25.0 2.5 25.1 2.6 24.95 2.5 24.85 Q2.6 24.65 2.85 24.5 L3.15 23.9 Q3.55 22.8 4.2 21.7 4.75 20.7 5.4 19.95 5.55 21.35 4.5 22.9 4.05 23.55 3.5 24.1 L3.45 24.2 4.05 24.15 4.0 24.3 4.35 24.2 4.2 24.5 Q4.25 25.75 3.15 27.25 2.7 27.85 2.15 28.25 L2.55 28.15 2.8 28.2 Q2.95 28.2 3.0 28.3 L2.7 28.55 Q2.75 28.7 2.7 28.9 L2.75 28.9 2.7 28.95 Q2.55 29.45 2.0 30.15 L1.7 30.55 Q1.4 30.95 1.25 31.4 L1.15 31.65 Q0.8 32.65 1.0 33.75 1.0 33.95 0.95 34.1 L1.0 34.35 Q1.15 34.7 1.4 35.0 L1.85 34.9 2.6 34.75 Q3.15 34.4 3.6 33.8 L3.75 33.65 Q3.75 31.2 5.25 29.0 5.85 28.15 6.5 27.3 6.8 26.3 7.05 25.25 7.2 24.5 7.45 23.95 L7.85 22.1 8.25 20.05 8.3 18.7 8.35 18.15 Q8.3 17.15 8.4 16.15 L8.45 15.7 8.35 13.25 Q8.2 11.0 8.5 9.0 L8.55 9.2 Q8.65 8.55 8.9 7.85 L8.95 7.7 8.8 7.7 8.55 7.8 9.55 5.85 Q9.85 5.05 10.0 4.1 10.1 3.5 10.25 2.95 10.2 2.55 10.1 2.2 L10.05 2.25 Q9.8 1.75 9.4 1.5 9.15 1.65 9.15 1.35 8.6 1.1 7.85 1.15 L7.75 1.25 7.75 1.2 7.3 1.25 Q7.1 1.45 6.65 1.65 5.4 2.3 4.95 3.55 4.9 3.7 4.8 3.75 L4.8 3.85 Q4.75 4.0 4.75 4.25 4.65 5.45 5.35 6.5 5.9 7.3 6.75 7.4 5.8 7.4 5.25 6.85 L5.45 7.15 Q6.15 7.45 6.95 7.6 7.75 7.7 8.35 8.1 7.75 8.35 7.1 8.3 L6.7 8.35 6.7 8.7 Q6.85 9.15 6.75 9.75 6.75 11.85 6.4 13.9 L6.3 14.55 6.1 15.55 Q6.25 16.7 5.7 17.95 5.4 18.75 4.9 19.3 L4.85 19.4 4.75 19.7 4.75 19.75 Q4.85 19.65 4.95 19.65 5.3 19.45 5.75 19.4 L5.7 19.45 5.75 19.45 Q5.5 19.95 5.0 20.3 4.7 20.55 4.4 20.5 4.2 20.75 3.9 20.8 4.05 20.35 4.25 19.85 4.35 19.3 4.55 18.75 4.7 18.45 4.85 18.15 4.95 17.65 5.15 17.1 L5.2 16.85 5.65 13.95 Q5.75 12.7 5.85 11.35 5.95 9.65 6.15 8.3 5.35 8.1 4.65 7.2 L4.6 7.15 Q3.2 6.1 3.95 3.8 4.15 3.1 4.6 2.55 4.85 1.75 5.5 1.2 6.1 0.75 6.75 0.5 7.35 0.15 8.1 0.0 8.35 0.0 8.55 0.1 L8.75 0.25 9.05 0.35 M4.65 4.3 L4.7 4.2 4.65 4.15 4.65 4.3 M6.55 8.35 L6.6 8.4 6.6 8.35 6.55 8.35" fill="#111111" fill-rule="evenodd" stroke="none"/>
    </g>
  </defs>
</svg>
