<?xml version="1.0" encoding="UTF-8" standalone="no"?>
<svg xmlns:ffdec="https://www.free-decompiler.com/flash" xmlns:xlink="http://www.w3.org/1999/xlink" ffdec:objectType="frame" height="73.15px" width="134.05px" xmlns="http://www.w3.org/2000/svg">
  <g transform="matrix(1.0, 0.0, 0.0, 1.0, 93.8, 57.75)">
    <use ffdec:characterId="4989" height="6.35" transform="matrix(7.0, 0.0, 0.0, 7.0, -63.35, -29.75)" width="14.5" xlink:href="#shape0"/>
    <use ffdec:characterId="5038" height="6.75" transform="matrix(7.0, 0.0, 0.0, 7.0, -53.2, -41.3)" width="10.85" xlink:href="#shape1"/>
  </g>
  <defs>
    <g id="shape0" transform="matrix(1.0, 0.0, 0.0, 1.0, 9.05, 4.25)">
      <path d="M-0.15 0.55 Q-0.7 0.7 -2.0 0.7 L-2.9 0.6 Q-2.85 0.75 -2.85 0.85 L-2.95 1.05 -0.3 1.25 Q0.65 1.25 3.25 0.5 L1.6 0.35 Q0.4 0.35 -0.15 0.55 M1.95 -0.85 Q2.55 -1.0 3.0 -1.0 4.4 -1.0 5.05 -0.5 5.45 -0.15 5.45 0.25 5.45 0.6 4.65 1.1 3.85 1.6 3.05 1.65 1.75 2.1 -0.65 2.1 -4.1 2.1 -5.7 1.05 -6.35 0.65 -6.9 -0.35 -6.95 -0.45 -7.95 -1.65 L-8.55 -2.4 Q-9.05 -2.95 -9.05 -3.35 -9.05 -3.9 -8.2 -4.2 L-8.0 -4.25 Q-7.75 -4.1 -7.6 -3.8 L-7.6 -3.4 Q-7.6 -2.7 -7.4 -2.2 -7.1 -1.25 -6.0 -1.25 L-5.45 -1.3 -5.4 -1.3 -4.55 -1.4 -3.9 -1.5 Q-3.4 -1.5 -2.3 -1.1 -1.2 -0.65 -0.3 -0.65 1.35 -0.65 1.95 -0.85" fill="#ffcc66" fill-opacity="0.3372549" fill-rule="evenodd" stroke="none"/>
    </g>
    <g id="shape1" transform="matrix(1.0, 0.0, 0.0, 1.0, 7.6, 5.9)">
      <path d="M-4.25 -5.35 L-4.35 -5.35 Q-4.35 -5.7 -5.0 -5.7 L-5.2 -5.5 Q-5.3 -5.5 -5.3 -5.55 -5.05 -6.0 -4.6 -5.9 -4.2 -5.75 -4.2 -5.45 L-4.25 -5.35 M-2.75 -5.55 Q-2.75 -5.7 -2.9 -5.85 L-2.8 -5.85 Q-2.7 -5.8 -2.7 -5.55 -2.7 -5.25 -2.7 -5.2 -2.85 -4.9 -3.4 -4.9 -3.55 -4.9 -3.65 -5.05 -3.75 -5.2 -3.75 -5.3 L-3.7 -5.45 Q-3.55 -5.2 -3.3 -5.1 -3.15 -5.15 -3.1 -5.25 -3.05 -5.3 -2.9 -5.3 -2.9 -5.2 -3.0 -5.1 -2.75 -5.2 -2.75 -5.55 M-7.45 -4.6 L-7.6 -4.45 -7.6 -4.5 Q-7.55 -4.65 -7.5 -4.75 -7.4 -4.9 -7.15 -4.85 L-7.15 -4.75 Q-7.35 -4.75 -7.45 -4.6 M-6.25 -5.7 Q-6.15 -5.65 -6.15 -5.55 -6.15 -5.5 -6.2 -5.35 -6.3 -5.2 -6.4 -5.2 L-6.65 -5.2 -6.7 -5.25 -6.65 -5.3 Q-6.3 -5.35 -6.25 -5.5 L-6.25 -5.7 M0.05 -3.85 Q0.15 -3.9 0.15 -3.95 L0.0 -4.35 0.25 -4.35 Q0.35 -4.25 0.35 -4.1 0.35 -3.75 -0.1 -3.55 L-0.3 -3.55 Q-0.45 -3.6 -0.45 -3.8 L-0.45 -3.85 -0.4 -3.85 -0.3 -3.75 0.0 -3.75 0.05 -3.85 M2.05 -0.2 Q2.3 -0.25 2.55 -0.05 2.85 0.15 2.95 0.2 L2.9 0.2 3.05 0.25 Q3.25 0.4 3.25 0.55 3.25 0.65 3.25 0.6 L3.1 0.65 Q3.05 0.65 3.0 0.65 2.95 0.65 2.55 0.45 L2.1 0.15 2.05 0.2 1.85 0.35 1.8 0.35 1.55 0.45 Q1.2 0.55 0.85 0.55 L0.55 0.5 0.6 0.55 0.65 0.65 Q0.7 0.85 0.45 0.85 L-1.45 0.3 -1.75 0.4 -2.15 0.5 Q-2.35 0.5 -2.35 0.3 -2.35 0.25 -2.05 0.0 -1.8 -0.3 -1.8 -0.55 L-1.85 -0.75 -1.9 -0.9 -2.1 -1.25 -2.45 -1.55 Q-2.45 -1.85 -2.0 -1.85 -1.55 -1.85 -1.3 -1.55 L-1.5 -1.3 -1.65 -1.0 Q-1.6 -0.6 -1.1 -0.25 -0.35 0.25 0.85 0.25 L1.4 0.2 Q1.5 0.15 1.8 0.1 1.9 0.05 1.95 0.05 2.05 -0.05 2.05 -0.2" fill="#ffd327" fill-rule="evenodd" stroke="none"/>
      <path d="M-1.45 0.15 L-1.45 0.15 M-1.6 -0.25 Q-1.55 -0.25 -1.45 -0.05 L-1.3 0.2 -0.85 0.4 Q-0.6 0.5 -0.55 0.6 L-0.75 0.65 Q-1.1 0.65 -1.3 0.45 L-1.3 0.55 -1.45 0.6 -1.5 0.55 Q-1.6 0.7 -1.75 0.7 L-1.9 0.65 -1.95 0.55 Q-1.95 0.45 -1.8 0.35 L-1.65 0.15 -1.6 -0.25" fill="#ffffff" fill-rule="evenodd" stroke="none"/>
      <path d="M-1.8 -1.45 Q-1.8 -1.35 -1.9 -1.3 L-1.95 -1.4 -1.9 -1.5 -1.8 -1.45" fill="#ffeda6" fill-rule="evenodd" stroke="none"/>
    </g>
  </defs>
</svg>
