<?xml version="1.0" encoding="UTF-8" standalone="no"?>
<svg xmlns:ffdec="https://www.free-decompiler.com/flash" xmlns:xlink="http://www.w3.org/1999/xlink" ffdec:objectType="frame" height="73.15px" width="134.05px" xmlns="http://www.w3.org/2000/svg">
  <g transform="matrix(1.0, 0.0, 0.0, 1.0, 93.8, 57.75)">
    <use ffdec:characterId="5024" height="8.3" transform="matrix(7.0, 0.0, 0.0, 7.0, -81.9, -43.4)" width="16.55" xlink:href="#shape0"/>
    <use ffdec:characterId="5026" height="6.55" transform="matrix(7.0, 0.0, 0.0, 7.0, -48.3, -40.95)" width="9.75" xlink:href="#shape1"/>
  </g>
  <defs>
    <g id="shape0" transform="matrix(1.0, 0.0, 0.0, 1.0, 11.7, 6.2)">
      <path d="M3.3 -0.6 Q4.85 0.15 4.85 0.5 4.85 1.05 4.2 1.4 3.25 1.9 1.35 1.9 L1.15 1.9 0.3 2.1 -1.55 2.1 Q-3.7 1.75 -5.0 0.8 -5.75 0.3 -7.05 -0.95 L-7.0 -1.05 -6.75 -0.85 -6.7 -0.9 Q-7.0 -1.1 -7.15 -1.2 -5.9 -0.6 -4.3 -0.6 -4.1 -0.6 -3.95 -0.65 L-3.7 -0.65 -2.4 -0.95 Q-0.75 -1.35 0.75 -1.35 1.75 -1.35 3.3 -0.6 M-10.3 -2.95 Q-10.3 -3.1 -10.25 -3.05 L-10.0 -3.0 Q-9.85 -2.95 -9.85 -2.8 -9.85 -2.7 -9.9 -2.7 L-10.0 -2.7 Q-10.1 -2.75 -10.25 -2.85 L-10.3 -2.95 M-10.95 -3.75 Q-10.95 -3.95 -10.95 -3.9 -10.55 -3.55 -10.4 -3.2 L-10.45 -3.15 Q-10.95 -3.4 -10.95 -3.75 M-10.45 -5.5 L-10.35 -5.5 Q-10.25 -5.4 -10.25 -5.3 -10.25 -5.15 -10.25 -5.05 -10.35 -4.85 -10.6 -4.85 L-10.75 -4.85 -10.75 -4.95 Q-10.45 -5.3 -10.45 -5.35 L-10.45 -5.5 M-11.6 -4.9 Q-11.6 -5.1 -11.7 -5.4 -11.7 -5.8 -11.45 -6.05 -11.15 -6.45 -10.65 -5.9 -10.9 -5.85 -11.05 -6.1 -11.45 -5.75 -11.45 -5.4 L-11.4 -5.15 -11.3 -4.9 Q-11.3 -4.85 -11.35 -4.85 -11.4 -4.8 -11.5 -4.85 L-11.6 -4.9 M2.15 0.65 L1.9 0.5 Q1.55 0.2 1.35 0.2 L0.15 0.1 Q-0.8 0.1 -1.35 0.25 L-1.85 0.35 Q-1.85 0.55 -2.05 0.55 L-2.9 0.5 Q-3.05 0.7 -3.35 0.75 -2.05 1.15 -0.55 1.2 L0.3 1.15 2.0 0.7 2.15 0.65 M2.9 0.45 L3.0 0.45 3.6 0.4 3.5 0.35 2.75 0.1 2.8 0.35 2.8 0.5 2.9 0.45" fill="#ffcc66" fill-opacity="0.3372549" fill-rule="evenodd" stroke="none"/>
    </g>
    <g id="shape1" transform="matrix(1.0, 0.0, 0.0, 1.0, 6.9, 5.85)">
      <path d="M-4.4 -4.4 Q-4.55 -4.55 -4.55 -4.75 -4.55 -5.25 -4.0 -5.4 -3.45 -5.55 -3.45 -5.2 L-3.45 -5.15 Q-3.5 -5.05 -3.55 -5.05 L-4.0 -5.0 -4.0 -4.8 Q-4.15 -4.8 -4.15 -4.85 L-4.2 -4.85 Q-4.3 -4.55 -4.4 -4.4 M-2.1 -5.4 Q-2.1 -5.5 -2.3 -5.6 -2.45 -5.75 -2.6 -5.75 L-2.55 -5.85 Q-2.2 -5.9 -2.0 -5.5 -1.9 -5.25 -1.9 -5.0 -1.95 -4.8 -2.05 -4.65 -2.25 -4.3 -2.55 -4.3 -2.85 -4.3 -3.05 -4.4 -3.2 -4.55 -3.2 -4.65 -3.2 -4.75 -3.2 -4.7 L-3.05 -4.75 -2.7 -4.65 Q-2.5 -4.65 -2.35 -4.85 -2.25 -5.3 -2.7 -5.3 L-2.9 -5.25 -2.9 -5.3 Q-2.55 -5.5 -2.3 -5.35 L-2.15 -5.2 -2.1 -5.4 M-6.65 -4.55 L-6.6 -4.55 Q-6.6 -4.45 -6.7 -4.35 L-6.75 -4.25 Q-6.65 -4.1 -6.65 -4.0 L-6.55 -3.55 -6.55 -3.5 -6.6 -3.5 Q-6.65 -3.55 -6.8 -3.75 L-6.9 -4.0 Q-6.9 -4.35 -6.65 -4.55 M-5.85 -4.5 L-5.8 -4.55 Q-5.65 -4.5 -5.55 -4.6 L-5.45 -4.75 Q-5.45 -5.3 -5.75 -5.3 L-5.7 -5.4 Q-5.25 -5.35 -5.25 -5.0 -5.25 -4.9 -5.35 -4.7 -5.5 -4.4 -5.7 -4.4 -5.8 -4.4 -5.85 -4.45 L-5.85 -4.5 M0.8 -0.1 L0.9 -0.1 1.55 -0.15 Q1.75 -0.15 1.8 -0.3 L1.85 -0.5 Q1.95 -0.4 2.45 -0.25 2.85 -0.05 2.85 0.1 L2.85 0.2 2.7 0.2 2.1 0.05 Q2.05 0.2 1.9 0.3 L1.55 0.45 Q1.55 0.55 1.35 0.55 1.15 0.55 1.0 0.45 L0.85 0.45 0.8 0.4 0.7 0.4 0.35 0.5 Q0.0 0.6 -0.4 0.6 -1.1 0.6 -1.5 0.5 L-1.75 0.5 -1.75 0.6 Q-1.75 0.7 -1.9 0.7 L-2.05 0.6 Q-2.25 0.5 -2.75 0.5 -2.8 0.5 -2.95 0.6 -3.1 0.7 -3.2 0.7 -3.3 0.7 -3.35 0.65 -3.25 0.5 -3.2 0.3 -3.15 0.1 -3.1 -0.1 L-3.05 -0.3 -2.8 -0.15 Q-2.45 0.0 -2.1 0.0 L-2.0 0.0 -2.0 -0.05 -1.7 -0.25 Q-1.55 -0.35 -1.55 -0.45 -1.6 -0.55 -1.45 -0.6 -1.2 -0.15 -0.5 -0.15 L-0.3 -0.2 -0.15 -0.2 -0.15 -0.25 Q-0.15 -0.35 -0.1 -0.4 L0.8 -0.1 M0.8 -3.45 L0.8 -3.5 0.75 -3.5 0.8 -3.45 M0.5 -4.15 Q1.0 -4.15 1.05 -3.8 L1.1 -3.7 1.1 -3.6 Q1.05 -3.1 0.7 -3.1 0.65 -3.1 0.5 -3.2 L0.6 -3.25 0.55 -3.25 0.55 -3.3 0.65 -3.3 0.65 -3.4 0.45 -3.65 0.55 -3.8 0.4 -3.9 0.3 -3.9 0.05 -3.85 -0.05 -3.7 -0.1 -3.9 Q-0.1 -4.15 0.5 -4.15" fill="#ffd327" fill-rule="evenodd" stroke="none"/>
      <path d="M-0.55 0.45 Q-0.55 0.6 -0.7 0.6 L-0.95 0.5 Q-1.0 0.45 -1.15 0.4 -1.2 0.5 -1.45 0.6 L-1.5 0.55 -1.4 0.4 -1.3 0.3 -1.35 0.2 -1.25 0.1 -0.85 0.25 Q-0.55 0.4 -0.55 0.45" fill="#ffffff" fill-rule="evenodd" stroke="none"/>
    </g>
  </defs>
</svg>
