<?xml version="1.0" encoding="UTF-8" standalone="no"?>
<svg xmlns:ffdec="https://www.free-decompiler.com/flash" xmlns:xlink="http://www.w3.org/1999/xlink" ffdec:objectType="frame" height="73.15px" width="134.05px" xmlns="http://www.w3.org/2000/svg">
  <g transform="matrix(1.0, 0.0, 0.0, 1.0, 93.8, 57.75)">
    <use ffdec:characterId="5050" height="2.95" transform="matrix(7.0, 0.0, 0.0, 7.0, -37.1, -7.35)" width="10.1" xlink:href="#shape0"/>
    <use ffdec:characterId="5052" height="9.15" transform="matrix(7.0, 0.0, 0.0, 7.0, -66.5, -55.3)" width="12.0" xlink:href="#shape1"/>
  </g>
  <defs>
    <g id="shape0" transform="matrix(1.0, 0.0, 0.0, 1.0, 5.3, 1.05)">
      <path d="M-1.1 0.55 L-1.65 0.65 -1.85 0.8 -1.9 0.85 -0.8 0.9 0.05 0.85 2.7 0.7 2.45 0.6 0.85 0.5 0.35 0.55 -1.1 0.55 M-3.6 -0.7 Q-1.95 -1.25 -1.1 -1.0 4.8 -0.7 4.8 0.65 4.8 1.25 2.2 1.65 L-0.4 1.9 Q-2.5 1.9 -3.9 1.45 -5.3 1.0 -5.3 0.35 -5.3 -0.15 -3.6 -0.7" fill="#ffcc66" fill-opacity="0.3372549" fill-rule="evenodd" stroke="none"/>
    </g>
    <g id="shape1" transform="matrix(1.0, 0.0, 0.0, 1.0, 9.5, 7.9)">
      <path d="M-3.25 -4.75 Q-3.25 -4.55 -3.3 -4.45 -3.4 -4.15 -3.75 -4.15 -4.3 -4.15 -4.3 -4.55 -4.3 -4.65 -4.2 -4.65 L-4.05 -4.55 Q-3.9 -4.45 -3.65 -4.45 -3.35 -4.45 -3.35 -4.75 L-3.4 -5.0 Q-3.25 -5.0 -3.25 -4.75 M-7.2 -6.85 L-7.15 -6.8 -7.15 -6.6 Q-7.15 -6.35 -7.15 -6.25 -7.3 -5.9 -7.75 -5.9 -8.2 -5.9 -8.45 -6.15 -8.65 -6.3 -8.65 -6.5 -8.65 -6.6 -8.55 -6.7 -8.45 -6.85 -8.3 -6.85 -8.3 -6.7 -8.2 -6.55 -8.0 -6.3 -7.55 -6.3 -7.35 -6.3 -7.25 -6.55 -7.2 -6.7 -7.2 -6.85 M-9.5 -7.75 Q-9.15 -8.15 -8.7 -7.45 L-8.7 -7.4 -8.9 -7.55 Q-9.0 -7.65 -9.25 -7.65 -9.3 -7.65 -9.35 -7.6 L-9.45 -7.55 Q-9.5 -7.55 -9.5 -7.6 L-9.5 -7.75 M0.2 -1.15 L0.6 -1.0 0.75 -0.95 Q0.85 -0.9 0.85 -0.75 L0.85 -0.7 0.65 -0.7 0.6 -0.65 Q0.55 -0.65 0.55 -0.6 L0.55 -0.5 Q0.6 -0.35 0.8 -0.3 L0.9 -0.25 Q1.05 -0.25 1.35 -0.1 L1.95 0.05 Q2.5 0.25 2.5 0.4 2.45 0.6 2.25 0.6 1.8 0.6 1.05 0.4 L0.55 0.25 -0.15 0.35 Q-0.4 0.35 -0.4 0.2 L-0.4 0.1 Q-0.5 0.2 -0.75 0.2 L-1.4 0.1 Q-1.3 0.3 -1.35 0.35 -1.45 0.4 -1.75 0.4 L-2.0 0.4 Q-2.05 0.45 -2.3 0.55 L-2.25 0.55 -2.05 0.8 Q-1.95 0.9 -1.95 1.0 L-1.95 1.15 Q-2.0 1.25 -2.15 1.25 -2.45 1.25 -2.6 0.95 -2.7 0.75 -2.7 0.65 L-2.8 -0.15 -2.8 -0.25 Q-2.85 -0.7 -2.7 -0.7 -2.65 -0.7 -2.3 -0.4 -1.95 -0.1 -1.55 -0.1 L-0.75 -0.15 Q-0.5 -0.25 -0.5 -0.35 L-0.6 -0.55 -0.8 -0.5 Q-0.85 -0.45 -0.85 -0.6 L-0.45 -1.15 Q-0.25 -1.3 0.2 -1.15" fill="#ffd327" fill-rule="evenodd" stroke="none"/>
      <path d="M0.2 -0.6 L0.15 -0.35 Q0.15 -0.2 0.25 -0.1 L0.6 0.15 Q0.8 0.25 0.85 0.35 L0.8 0.4 0.4 0.3 Q0.4 0.4 0.3 0.5 0.15 0.65 -0.1 0.65 -0.3 0.65 -0.3 0.45 -0.3 0.4 -0.15 0.25 0.05 0.15 0.05 0.0 0.05 -0.25 -0.15 -0.4 -0.3 -0.55 -0.3 -0.65 -0.3 -0.75 -0.1 -0.75 0.2 -0.75 0.2 -0.6" fill="#ffffff" fill-rule="evenodd" stroke="none"/>
    </g>
  </defs>
</svg>
