<?xml version="1.0" encoding="UTF-8" standalone="no"?>
<svg xmlns:ffdec="https://www.free-decompiler.com/flash" xmlns:xlink="http://www.w3.org/1999/xlink" ffdec:objectType="frame" height="211.8px" width="488.2px" xmlns="http://www.w3.org/2000/svg">
  <g transform="matrix(1.0, 0.0, 0.0, 1.0, 92.25, 9.9)">
    <use ffdec:characterId="793" ffdec:characterName="a_EB_GoblinFlagFrame06" height="206.15" transform="matrix(1.0, 0.0, 0.0, 1.0, -92.25, -9.9)" width="487.9" xlink:href="#sprite0"/>
  </g>
  <defs>
    <g id="sprite0" transform="matrix(1.0, 0.0, 0.0, 1.0, 0.0, 0.0)">
      <use ffdec:characterId="792" height="29.45" transform="matrix(7.0, 0.0, 0.0, 7.0, 0.0, 0.0)" width="69.7" xlink:href="#shape0"/>
    </g>
    <g id="shape0" transform="matrix(1.0, 0.0, 0.0, 1.0, 0.0, 0.0)">
      <path d="M59.7 24.3 L60.25 24.3 61.2 24.5 Q61.7 24.65 61.95 24.6 L62.05 24.65 62.05 24.8 Q62.05 24.9 61.95 25.0 L61.85 25.05 62.55 24.75 Q62.75 24.75 62.9 24.85 63.0 24.9 63.15 24.9 63.35 24.9 63.4 25.05 L63.35 25.3 63.45 25.3 63.65 25.25 Q63.9 25.25 63.95 25.4 L63.95 25.65 Q64.25 25.45 64.5 25.45 L64.8 25.5 64.85 25.55 64.85 25.7 Q64.85 25.75 64.75 25.85 L64.55 26.05 Q64.8 25.9 64.85 25.85 64.95 25.8 65.1 25.8 L65.35 25.85 Q65.4 26.05 65.35 26.25 L65.3 26.25 Q65.5 26.15 65.55 26.1 L65.85 26.05 Q66.0 26.05 67.7 26.9 69.35 27.75 69.65 27.6 L69.7 27.6 69.7 27.75 Q69.7 28.1 69.5 28.2 69.2 28.3 68.25 28.3 67.85 28.3 66.7 27.75 65.5 27.25 65.3 27.25 63.95 26.85 62.8 26.15 62.6 26.0 61.7 25.75 60.65 25.45 59.75 25.4 L59.8 25.35 Q59.85 25.25 59.85 25.1 L59.85 24.9 59.95 24.8 59.95 24.65 59.9 24.6 59.8 24.6 59.7 24.3 M50.65 1.95 Q50.75 1.75 51.05 1.55 51.5 1.25 51.9 1.25 52.05 1.25 52.25 1.35 52.5 1.45 52.6 1.45 52.7 1.45 52.9 1.3 53.05 1.2 53.15 1.2 53.3 1.2 53.35 1.25 53.4 1.35 53.5 1.35 L54.3 1.25 56.3 0.35 Q58.25 -0.35 58.25 0.35 58.25 0.75 55.6 1.65 53.05 2.45 51.35 2.55 L51.3 2.5 51.2 2.3 51.2 2.25 Q51.0 2.1 50.65 1.95 M49.2 2.4 Q49.25 2.35 49.35 2.35 L49.5 2.3 Q50.0 2.3 50.05 2.75 50.55 2.85 50.55 3.25 L50.5 3.7 50.5 3.75 50.3 3.8 50.15 3.75 Q50.15 3.85 50.05 4.0 49.95 4.1 49.8 4.15 L49.55 4.15 Q49.3 4.05 49.3 3.75 L49.35 3.6 Q49.1 3.6 49.0 3.25 L48.95 2.85 Q48.95 2.5 49.2 2.4 M58.35 23.5 L58.35 23.45 Q58.6 23.35 58.65 23.65 L58.65 23.75 Q58.65 24.0 58.6 24.5 L58.6 24.55 58.75 24.75 Q58.85 24.95 58.85 25.05 L58.5 25.3 58.05 25.5 Q57.5 25.5 57.4 25.3 57.3 25.15 57.45 24.9 57.05 24.9 56.9 24.7 56.8 24.65 56.8 24.4 56.8 24.3 56.9 24.25 57.05 24.2 57.6 24.15 57.75 24.1 57.9 23.95 L57.9 23.9 58.05 23.65 Q58.2 23.5 58.35 23.5" fill="#444a28" fill-rule="evenodd" stroke="none"/>
      <path d="M49.8 4.15 Q49.95 4.1 50.05 4.0 50.15 3.85 50.15 3.75 L50.3 3.8 50.5 3.75 50.5 3.7 50.55 3.25 Q50.55 2.85 50.05 2.75 50.0 2.3 49.5 2.3 L49.35 2.35 Q49.25 2.35 49.2 2.4 L49.05 2.15 49.0 2.1 49.25 2.0 49.3 2.05 49.35 2.0 50.05 1.95 Q51.05 2.15 51.05 2.85 51.05 3.5 51.0 3.75 L51.0 6.75 Q50.95 7.4 51.05 8.7 L50.85 10.5 Q50.85 12.1 50.9 12.75 51.0 13.95 51.3 15.15 L51.55 16.05 Q50.8 14.6 50.25 13.1 L50.2 12.85 50.0 12.15 Q49.65 10.9 49.65 10.05 L49.8 7.15 49.85 5.95 Q49.9 4.75 49.8 4.15 M28.95 28.55 L28.9 28.55 28.35 28.7 28.2 28.7 Q28.35 27.75 28.35 26.85 L28.4 26.4 Q28.45 26.05 28.4 25.85 L28.45 25.85 28.75 27.15 Q28.95 28.25 28.95 28.5 L28.95 28.55 M11.35 4.35 Q12.6 4.55 14.15 4.55 L14.3 4.55 Q17.35 5.8 18.5 6.55 L18.45 6.6 Q17.6 6.2 16.15 5.7 L16.0 5.65 15.35 5.45 12.85 4.7 11.35 4.35 M26.3 2.05 L26.4 2.05 27.2 2.3 27.25 2.35 29.5 3.3 30.3 3.6 Q31.1 3.9 31.95 4.15 L32.1 4.2 32.65 4.3 32.75 4.35 32.85 4.35 Q34.65 4.7 36.5 4.7 37.95 4.7 39.95 4.35 L42.2 3.85 42.3 3.8 42.4 3.8 43.95 3.4 44.05 3.4 43.45 3.85 42.85 5.1 Q42.1 6.9 42.1 7.5 42.1 9.05 42.4 9.95 L42.8 11.05 Q43.15 11.95 43.45 12.9 L44.45 15.9 Q45.15 18.05 45.15 18.25 45.15 18.95 46.15 20.9 47.15 22.9 47.15 23.3 47.15 23.55 47.1 23.4 L47.05 23.5 Q45.95 22.1 43.85 19.9 L41.65 17.7 41.1 17.0 Q40.6 16.3 39.95 15.6 L39.95 15.55 40.05 15.05 Q40.05 14.75 39.8 14.3 39.55 13.9 39.55 13.8 39.55 13.7 40.15 13.2 L40.3 13.0 Q40.7 12.55 40.7 12.25 40.7 12.0 40.85 11.75 L41.0 11.65 Q41.15 11.45 41.45 11.35 L41.6 11.3 41.65 11.3 41.65 11.25 42.1 11.15 42.2 11.1 Q42.45 11.05 42.45 10.95 L42.45 10.8 42.4 10.75 42.05 10.6 41.05 10.6 40.6 10.65 40.2 10.7 39.3 10.8 38.65 10.65 38.55 10.5 Q38.5 10.35 38.5 10.25 L38.75 9.85 39.05 9.5 Q39.05 9.1 39.55 8.95 L39.65 8.9 39.8 8.85 40.9 8.75 41.3 8.7 41.4 8.65 Q41.45 8.45 41.4 8.35 41.2 8.05 40.45 8.15 L40.25 8.2 Q39.55 8.4 38.8 8.8 37.95 9.15 37.95 9.35 L37.95 9.4 Q37.55 9.8 37.0 10.1 L36.55 10.35 36.5 10.4 36.4 10.45 36.1 10.65 36.05 10.7 35.75 10.85 35.7 10.85 35.55 10.9 35.1 10.35 Q34.75 9.9 34.2 9.15 L33.3 7.9 Q32.75 7.3 32.3 6.9 L32.25 6.9 Q31.6 6.05 30.9 5.35 29.45 3.85 26.55 2.2 L26.3 2.05" fill="#bfc466" fill-rule="evenodd" stroke="none"/>
      <path d="M59.75 25.4 Q59.55 25.75 58.9 25.9 L57.7 26.0 56.25 26.6 Q54.05 27.45 51.95 27.85 51.8 27.95 51.6 28.05 50.55 28.45 47.45 28.45 43.8 28.45 41.15 27.85 L41.05 27.8 Q39.35 26.9 37.35 26.5 35.6 26.35 34.35 27.45 L33.9 27.9 33.85 27.9 33.8 27.95 32.2 29.45 32.05 29.4 Q32.0 29.35 32.0 29.25 32.0 29.2 32.35 28.7 L32.7 28.1 32.55 28.15 Q32.8 27.85 32.8 27.65 L32.75 27.45 32.65 27.4 31.8 27.9 Q31.15 28.25 30.8 28.45 L29.2 28.95 Q28.55 29.15 28.2 29.3 L27.3 29.4 27.1 29.35 27.05 29.35 27.0 29.3 27.0 29.15 27.3 28.85 Q27.55 28.55 27.55 28.35 27.55 27.95 26.7 27.75 L25.0 27.35 25.3 27.5 24.8 27.4 24.5 27.4 24.3 27.2 23.9 27.1 Q24.1 26.7 24.75 26.85 L25.0 26.9 Q27.2 26.45 27.2 25.55 27.2 23.9 24.4 22.55 23.75 22.25 22.5 21.8 21.6 21.45 21.6 21.4 21.6 21.3 21.7 21.1 L21.8 20.9 21.5 20.15 21.25 19.65 Q20.95 19.3 20.55 18.9 19.45 18.1 17.75 16.95 L18.45 16.95 Q20.4 16.95 20.95 16.5 21.15 16.4 21.2 16.2 L21.15 16.05 Q21.15 15.5 20.25 14.0 19.65 12.95 19.05 12.15 18.6 11.6 17.55 11.0 L17.05 10.65 Q15.8 9.95 14.1 9.35 L13.15 9.1 13.45 8.95 13.55 8.95 13.85 8.85 Q14.8 8.55 14.8 8.25 14.8 8.0 13.5 7.8 L12.15 7.65 Q11.6 7.9 10.85 7.9 9.35 7.85 9.2 7.85 L8.7 8.05 Q8.35 8.2 8.2 8.2 7.95 8.2 8.0 8.15 L7.95 8.15 Q7.9 8.15 7.9 8.0 7.9 7.9 7.95 7.8 L8.1 7.7 Q8.0 7.6 7.8 7.35 7.7 7.15 7.4 7.0 6.6 6.7 3.35 6.7 1.4 6.7 0.7 6.3 0.4 6.15 0.25 5.9 L0.0 5.4 0.0 5.25 0.65 5.25 1.4 5.3 Q3.0 5.3 3.95 4.8 L4.5 4.4 4.75 4.2 Q4.95 4.1 5.1 3.75 L5.3 3.35 Q5.4 3.15 5.85 3.05 6.15 2.95 6.15 2.75 L5.9 2.55 5.55 1.9 Q5.55 1.45 6.45 2.15 L7.45 3.0 Q7.75 3.15 8.95 3.55 L8.95 3.45 9.0 3.5 Q9.65 3.75 10.4 3.85 11.95 4.1 14.5 4.1 16.2 4.1 17.4 3.7 18.15 3.45 19.3 2.8 20.4 2.15 21.1 1.9 22.3 1.5 23.95 1.5 25.65 1.5 27.15 1.95 27.85 2.15 29.65 2.9 31.2 3.6 32.45 3.9 34.35 4.35 36.7 4.35 39.45 4.35 44.3 2.95 L47.85 1.9 48.8 1.65 48.9 1.55 49.5 1.5 Q50.2 1.75 50.65 1.95 51.0 2.1 51.2 2.25 L51.2 2.3 51.3 2.5 51.35 2.55 Q51.5 2.9 51.45 3.05 L51.45 6.8 Q51.55 8.15 51.55 8.75 L51.35 11.6 Q51.35 14.4 52.65 18.0 53.5 19.2 54.65 20.25 55.55 21.0 57.1 22.0 58.6 22.95 59.1 23.4 59.5 23.85 59.7 24.3 L59.8 24.6 59.9 24.6 59.95 24.65 59.95 24.8 59.85 24.9 59.85 25.1 Q59.85 25.25 59.8 25.35 L59.75 25.4 M50.2 12.85 L50.25 13.1 Q50.8 14.6 51.55 16.05 L51.3 15.15 Q51.0 13.95 50.9 12.75 50.85 12.1 50.85 10.5 L51.05 8.7 Q50.95 7.4 51.0 6.75 L51.0 3.75 Q51.05 3.5 51.05 2.85 51.05 2.15 50.05 1.95 L49.35 2.0 49.3 2.05 49.25 2.0 49.0 2.1 44.05 3.4 43.95 3.4 42.4 3.8 42.3 3.8 42.2 3.85 39.95 4.35 Q37.95 4.7 36.5 4.7 34.65 4.7 32.85 4.35 L32.75 4.35 32.65 4.3 32.1 4.2 31.95 4.15 Q31.1 3.9 30.3 3.6 L29.5 3.3 27.25 2.35 27.2 2.3 26.4 2.05 26.3 2.05 Q25.6 1.9 24.95 1.9 22.7 1.9 21.25 2.3 20.3 2.6 19.25 3.25 18.1 3.95 17.5 4.15 16.3 4.55 14.5 4.55 L14.3 4.55 14.15 4.55 Q12.6 4.55 11.35 4.35 L11.2 4.35 Q10.1 4.35 8.25 3.6 7.35 3.2 6.55 2.8 L6.5 2.85 6.55 3.0 6.45 2.95 6.0 3.5 Q5.35 4.1 4.5 4.65 2.3 6.1 0.95 5.7 1.85 6.15 3.2 6.2 L5.45 6.25 Q6.7 6.3 7.35 6.55 8.2 6.85 8.55 7.7 L9.65 7.5 Q10.7 7.3 11.4 7.3 L11.95 7.35 12.2 7.35 Q14.2 7.4 14.8 7.65 15.15 7.8 15.15 8.3 15.15 8.7 14.9 8.85 L14.45 9.05 Q15.25 9.2 15.5 9.45 17.45 9.95 19.25 12.1 20.2 13.2 20.85 14.45 21.45 15.55 21.45 16.1 21.45 16.8 20.4 17.25 L18.95 17.3 Q20.3 18.05 21.15 18.9 22.35 20.1 22.2 21.25 24.8 22.1 26.15 23.05 27.7 24.2 27.7 25.5 27.7 26.35 27.1 26.65 26.8 26.8 26.2 26.95 L25.55 27.1 Q27.6 27.25 27.85 27.8 27.95 27.95 27.9 28.3 27.85 28.6 27.9 28.8 L28.35 28.7 28.9 28.55 28.95 28.55 30.85 27.85 32.95 27.15 33.2 27.2 33.2 27.25 33.25 27.4 33.25 27.5 33.3 27.5 33.15 27.95 33.2 27.95 33.15 28.0 33.05 28.2 33.1 28.2 Q33.15 28.1 33.3 27.95 L33.75 27.45 33.9 27.45 Q34.5 27.0 35.2 26.7 36.2 26.3 36.95 26.15 L37.2 26.1 37.65 26.2 37.9 26.3 38.55 26.4 39.1 26.65 40.8 27.4 41.05 27.6 Q41.3 27.7 41.75 27.8 42.75 28.0 45.1 28.05 L45.75 28.05 46.15 28.1 47.3 28.1 Q48.65 28.05 49.9 27.8 51.05 27.65 52.05 27.4 L52.35 27.3 52.4 27.3 Q52.45 27.3 52.5 27.3 L52.45 27.35 Q53.25 27.2 53.9 27.0 55.0 26.65 55.85 26.25 L56.3 26.15 Q59.6 25.45 59.6 24.75 59.6 24.65 59.2 24.2 L58.65 23.75 58.65 23.65 Q58.6 23.35 58.35 23.45 L58.35 23.5 58.25 23.4 57.65 23.0 Q56.75 22.3 55.85 21.8 L55.75 21.75 54.65 20.7 Q53.4 19.55 52.95 18.9 L51.75 17.4 Q51.35 16.6 50.75 15.2 49.5 12.25 49.5 11.35 49.5 11.1 49.35 10.35 L49.1 9.4 49.1 8.7 49.2 8.7 Q49.4 10.7 50.2 12.85 M18.75 17.4 L18.65 17.3 18.55 17.3 18.75 17.4" fill="#7e811f" fill-rule="evenodd" stroke="none"/>
      <path d="M49.8 4.15 Q49.9 4.75 49.85 5.95 L49.8 7.15 49.65 10.05 Q49.65 10.9 50.0 12.15 L50.2 12.85 Q49.4 10.7 49.2 8.7 L49.1 8.7 49.1 9.4 49.35 10.35 Q49.5 11.1 49.5 11.35 49.5 12.25 50.75 15.2 51.35 16.6 51.75 17.4 L52.95 18.9 Q53.4 19.55 54.65 20.7 L55.75 21.75 55.85 21.8 Q56.75 22.3 57.65 23.0 L58.25 23.4 58.35 23.5 Q58.2 23.5 58.05 23.65 L57.9 23.9 57.9 23.95 Q57.75 24.1 57.6 24.15 57.05 24.2 56.9 24.25 56.8 24.3 56.8 24.4 56.8 24.65 56.9 24.7 57.05 24.9 57.45 24.9 57.3 25.15 57.4 25.3 57.5 25.5 58.05 25.5 L58.5 25.3 58.85 25.05 Q58.85 24.95 58.75 24.75 L58.6 24.55 58.6 24.5 Q58.65 24.0 58.65 23.75 L59.2 24.2 Q59.6 24.65 59.6 24.75 59.6 25.45 56.3 26.15 L55.85 26.25 Q55.0 26.65 53.9 27.0 53.25 27.2 52.45 27.35 L52.5 27.3 Q52.45 27.3 52.4 27.3 L52.35 27.3 52.05 27.4 Q51.05 27.65 49.9 27.8 48.65 28.05 47.3 28.1 L46.15 28.1 45.75 28.05 45.1 28.05 Q42.75 28.0 41.75 27.8 41.3 27.7 41.05 27.6 L40.8 27.4 39.1 26.65 38.55 26.4 37.9 26.3 37.65 26.2 37.2 26.1 36.95 26.15 Q36.2 26.3 35.2 26.7 34.5 27.0 33.9 27.45 L33.75 27.45 33.3 27.95 Q33.15 28.1 33.1 28.2 L33.05 28.2 33.15 28.0 33.2 27.95 33.15 27.95 33.3 27.5 33.25 27.5 33.25 27.4 33.2 27.25 33.2 27.2 32.95 27.15 30.85 27.85 28.95 28.55 28.95 28.5 Q28.95 28.25 28.75 27.15 L28.45 25.85 28.4 25.85 Q28.45 26.05 28.4 26.4 L28.35 26.85 Q28.35 27.75 28.2 28.7 L28.35 28.7 27.9 28.8 Q27.85 28.6 27.9 28.3 27.95 27.95 27.85 27.8 27.6 27.25 25.55 27.1 L26.2 26.95 Q26.8 26.8 27.1 26.65 27.7 26.35 27.7 25.5 27.7 24.2 26.15 23.05 24.8 22.1 22.2 21.25 22.35 20.1 21.15 18.9 20.3 18.05 18.95 17.3 L20.4 17.25 Q21.45 16.8 21.45 16.1 21.45 15.55 20.85 14.45 20.2 13.2 19.25 12.1 17.45 9.95 15.5 9.45 15.25 9.2 14.45 9.05 L14.9 8.85 Q15.15 8.7 15.15 8.3 15.15 7.8 14.8 7.65 14.2 7.4 12.2 7.35 L11.95 7.35 11.4 7.3 Q10.7 7.3 9.65 7.5 L8.55 7.7 Q8.2 6.85 7.35 6.55 6.7 6.3 5.45 6.25 L3.2 6.2 Q1.85 6.15 0.95 5.7 2.3 6.1 4.5 4.65 5.35 4.1 6.0 3.5 L6.45 2.95 6.55 3.0 6.5 2.85 6.55 2.8 Q7.35 3.2 8.25 3.6 10.1 4.35 11.2 4.35 L11.35 4.35 12.85 4.7 15.35 5.45 16.0 5.65 16.15 5.7 Q17.6 6.2 18.45 6.6 L18.5 6.55 Q17.35 5.8 14.3 4.55 L14.5 4.55 Q16.3 4.55 17.5 4.15 18.1 3.95 19.25 3.25 20.3 2.6 21.25 2.3 22.7 1.9 24.95 1.9 25.6 1.9 26.3 2.05 L26.55 2.2 Q29.45 3.85 30.9 5.35 31.6 6.05 32.25 6.9 L32.3 6.9 Q32.75 7.3 33.3 7.9 L34.2 9.15 Q34.75 9.9 35.1 10.35 L35.55 10.9 35.05 11.0 34.9 11.0 Q33.35 10.95 32.2 10.3 31.45 9.9 30.45 8.95 29.4 7.95 28.85 7.6 27.85 6.95 26.55 6.9 L26.45 6.95 28.45 8.15 Q29.5 8.8 29.85 9.45 30.1 9.9 30.45 10.25 L30.85 10.55 Q29.95 10.5 29.35 10.55 L28.1 10.65 27.35 10.55 26.9 10.4 26.6 10.35 Q26.4 10.3 26.3 10.4 26.2 10.45 26.2 10.65 26.2 10.75 26.8 11.2 27.5 11.7 28.05 11.7 28.95 11.75 29.25 12.0 29.4 12.1 29.45 12.55 29.55 13.0 29.85 13.25 30.35 13.65 31.5 13.95 L32.3 15.75 Q32.95 17.0 33.4 17.0 L33.6 17.0 33.65 16.9 33.7 16.75 Q33.7 16.7 33.55 16.45 L33.4 16.2 Q33.45 15.55 34.1 15.05 34.55 15.35 35.6 16.35 L36.4 17.15 36.5 17.2 36.55 17.3 36.7 17.3 36.7 17.25 36.75 16.5 Q36.6 16.0 36.7 15.65 36.8 15.25 37.1 15.0 37.55 15.4 38.35 16.5 L39.1 17.45 39.2 17.45 39.35 17.25 39.45 17.15 39.5 16.95 39.55 16.95 39.55 16.85 39.65 16.7 39.65 16.6 39.7 16.45 39.95 15.6 Q40.6 16.3 41.1 17.0 L41.65 17.7 43.85 19.9 Q45.95 22.1 47.05 23.5 L47.1 23.4 Q47.15 23.55 47.15 23.3 47.15 22.9 46.15 20.9 45.15 18.95 45.15 18.25 45.15 18.05 44.45 15.9 L43.45 12.9 Q43.15 11.95 42.8 11.05 L42.4 9.95 Q42.1 9.05 42.1 7.5 42.1 6.9 42.85 5.1 L43.45 3.85 44.05 3.4 49.0 2.1 49.05 2.15 49.2 2.4 Q48.95 2.5 48.95 2.85 L49.0 3.25 Q49.1 3.6 49.35 3.6 L49.3 3.75 Q49.3 4.05 49.55 4.15 L49.8 4.15 M47.6 4.8 Q47.75 4.6 47.75 4.45 L47.75 4.2 Q46.95 4.1 46.6 4.25 46.25 4.45 46.25 4.75 46.25 4.8 46.4 4.9 L46.55 5.05 47.2 5.05 Q47.4 5.0 47.6 4.8 M49.45 22.5 L49.65 22.35 49.65 22.4 Q49.65 22.5 49.85 22.7 50.35 22.7 50.55 22.55 50.7 22.5 50.7 22.35 50.7 22.1 50.15 22.0 49.85 22.0 49.7 22.15 L49.7 22.1 Q49.7 21.6 48.9 21.75 48.15 21.95 48.15 22.35 L48.15 22.55 Q48.25 22.7 48.7 22.7 49.2 22.7 49.45 22.5 M46.1 7.0 L45.3 7.05 Q45.0 7.15 45.0 7.3 L45.05 7.5 45.05 7.6 45.2 7.6 45.5 7.65 Q45.95 7.65 46.05 7.5 46.15 7.4 46.15 7.2 L46.15 7.05 46.1 7.0 M34.4 13.05 Q34.1 13.15 33.95 13.25 33.85 13.3 33.7 13.3 L32.55 12.5 31.2 11.6 Q32.2 11.75 32.95 12.2 L34.4 13.05 M29.4 17.4 Q29.7 17.15 29.7 16.95 29.7 16.6 29.05 16.6 28.4 16.55 28.4 17.0 L28.45 17.25 Q28.55 17.4 28.8 17.4 L29.4 17.4 M41.45 21.0 L41.55 21.2 41.6 21.2 41.45 21.0 M41.4 19.15 Q41.25 18.95 41.3 19.05 L41.4 19.2 41.6 19.4 41.4 19.15 M35.05 17.25 L35.0 17.3 Q34.95 17.45 34.85 17.65 35.45 19.15 36.1 20.1 37.15 21.75 38.4 22.0 38.7 22.05 38.75 21.75 L38.8 21.25 Q38.8 21.0 38.75 20.3 38.65 19.65 38.65 19.25 L38.7 18.7 38.7 18.2 Q38.65 17.75 38.3 17.7 38.0 17.6 38.0 17.9 L37.95 18.3 37.9 18.5 Q37.75 19.6 37.6 19.85 36.55 19.2 35.95 18.5 35.5 18.0 35.15 17.2 L35.05 17.25 M42.8 23.0 L42.85 23.0 42.45 22.4 42.8 23.0 M19.65 4.65 L19.6 4.65 Q19.2 5.0 19.2 5.1 19.2 5.3 19.2 5.2 L19.55 5.25 19.8 5.3 20.05 5.25 20.1 5.25 Q20.7 5.2 21.3 4.9 21.9 4.6 21.9 4.45 21.9 4.2 21.5 4.1 21.15 4.0 20.7 4.1 19.85 4.25 19.65 4.65" fill="#dee184" fill-rule="evenodd" stroke="none"/>
      <path d="M47.6 4.8 Q47.4 5.0 47.2 5.05 L46.55 5.05 46.4 4.9 Q46.25 4.8 46.25 4.75 46.25 4.45 46.6 4.25 46.95 4.1 47.75 4.2 L47.75 4.45 Q47.75 4.6 47.6 4.8 M49.45 22.5 Q49.2 22.7 48.7 22.7 48.25 22.7 48.15 22.55 L48.15 22.35 Q48.15 21.95 48.9 21.75 49.7 21.6 49.7 22.1 L49.7 22.15 Q49.85 22.0 50.15 22.0 50.7 22.1 50.7 22.35 50.7 22.5 50.55 22.55 50.35 22.7 49.85 22.7 49.65 22.5 49.65 22.4 L49.65 22.35 49.45 22.5 M46.1 7.0 L46.15 7.05 46.15 7.2 Q46.15 7.4 46.05 7.5 45.95 7.65 45.5 7.65 L45.2 7.6 45.05 7.6 45.05 7.5 45.0 7.3 Q45.0 7.15 45.3 7.05 L46.1 7.0 M39.95 15.55 L39.95 15.6 39.7 16.45 39.65 16.6 39.65 16.7 39.55 16.85 39.55 16.95 39.5 16.95 39.45 17.15 39.35 17.25 39.2 17.45 39.1 17.45 38.35 16.5 Q37.55 15.4 37.1 15.0 36.8 15.25 36.7 15.65 36.6 16.0 36.75 16.5 L36.7 17.25 36.7 17.3 36.55 17.3 36.5 17.2 36.4 17.15 35.6 16.35 Q34.55 15.35 34.1 15.05 33.45 15.55 33.4 16.2 L33.55 16.45 Q33.7 16.7 33.7 16.75 L33.65 16.9 33.6 17.0 33.4 17.0 Q32.95 17.0 32.3 15.75 L31.5 13.95 Q30.35 13.65 29.85 13.25 29.55 13.0 29.45 12.55 29.4 12.1 29.25 12.0 28.95 11.75 28.05 11.7 27.5 11.7 26.8 11.2 26.2 10.75 26.2 10.65 26.2 10.45 26.3 10.4 26.4 10.3 26.6 10.35 L26.9 10.4 27.35 10.55 28.1 10.65 29.35 10.55 Q29.95 10.5 30.85 10.55 L30.45 10.25 Q30.1 9.9 29.85 9.45 29.5 8.8 28.45 8.15 L26.45 6.95 26.55 6.9 Q27.85 6.95 28.85 7.6 29.4 7.95 30.45 8.95 31.45 9.9 32.2 10.3 33.35 10.95 34.9 11.0 L35.05 11.0 35.55 10.9 35.7 10.85 35.75 10.85 Q36.45 11.4 37.25 12.3 L37.1 12.5 36.9 13.0 36.95 12.95 37.2 12.75 37.2 12.7 37.35 12.6 37.45 12.55 38.3 13.45 Q39.2 14.55 39.95 15.55 M34.4 13.05 L32.95 12.2 Q32.2 11.75 31.2 11.6 L32.55 12.5 33.7 13.3 Q33.85 13.3 33.95 13.25 34.1 13.15 34.4 13.05 M29.4 17.4 L28.8 17.4 Q28.55 17.4 28.45 17.25 L28.4 17.0 Q28.4 16.55 29.05 16.6 29.7 16.6 29.7 16.95 29.7 17.15 29.4 17.4 M35.05 17.25 L35.15 17.2 Q35.5 18.0 35.95 18.5 36.55 19.2 37.6 19.85 37.75 19.6 37.9 18.5 L37.95 18.3 38.0 17.9 Q38.0 17.6 38.3 17.7 38.65 17.75 38.7 18.2 L38.7 18.7 38.65 19.25 Q38.65 19.65 38.75 20.3 38.8 21.0 38.8 21.25 L38.75 21.75 Q38.7 22.05 38.4 22.0 37.15 21.75 36.1 20.1 35.45 19.15 34.85 17.65 34.95 17.45 35.0 17.3 L35.05 17.25 M19.65 4.65 Q19.85 4.25 20.7 4.1 21.15 4.0 21.5 4.1 21.9 4.2 21.9 4.45 21.9 4.6 21.3 4.9 20.7 5.2 20.1 5.25 L20.05 5.25 19.8 5.3 19.55 5.25 19.2 5.2 Q19.2 5.3 19.2 5.1 19.2 5.0 19.6 4.65 L19.65 4.65" fill="#a8631e" fill-rule="evenodd" stroke="none"/>
      <path d="M35.75 10.85 L36.05 10.7 36.1 10.65 36.4 10.45 36.5 10.4 36.55 10.35 37.0 10.1 Q37.55 9.8 37.95 9.4 L37.95 9.35 Q37.95 9.15 38.8 8.8 39.55 8.4 40.25 8.2 L40.45 8.15 Q41.2 8.05 41.4 8.35 41.45 8.45 41.4 8.65 L41.3 8.7 40.9 8.75 39.8 8.85 39.65 8.9 39.55 8.95 Q39.05 9.1 39.05 9.5 L38.75 9.85 38.5 10.25 Q38.5 10.35 38.55 10.5 L38.65 10.65 39.3 10.8 40.2 10.7 40.6 10.65 41.05 10.6 42.05 10.6 42.4 10.75 42.45 10.8 42.45 10.95 Q42.45 11.05 42.2 11.1 L42.1 11.15 41.65 11.25 41.65 11.3 41.6 11.3 41.45 11.35 Q41.15 11.45 41.0 11.65 L40.85 11.75 Q40.7 12.0 40.7 12.25 40.7 12.55 40.3 13.0 L40.15 13.2 Q39.55 13.7 39.55 13.8 39.55 13.9 39.8 14.3 40.05 14.75 40.05 15.05 L39.95 15.55 Q39.2 14.55 38.3 13.45 L37.45 12.55 37.35 12.6 37.7 12.35 Q38.5 11.75 38.95 11.55 L38.95 11.5 Q38.05 11.35 37.5 11.95 L37.25 12.3 Q36.45 11.4 35.75 10.85" fill="#8f4610" fill-rule="evenodd" stroke="none"/>
      <path d="M37.25 12.3 L37.5 11.95 Q38.05 11.35 38.95 11.5 L38.95 11.55 Q38.5 11.75 37.7 12.35 L37.35 12.6 37.2 12.7 37.2 12.75 36.95 12.95 36.9 13.0 37.1 12.5 37.25 12.3 M41.4 19.15 L41.6 19.4 41.4 19.2 41.3 19.05 Q41.25 18.95 41.4 19.15 M41.45 21.0 L41.6 21.2 41.55 21.2 41.45 21.0 M42.8 23.0 L42.45 22.4 42.85 23.0 42.8 23.0" fill="#aeb05a" fill-rule="evenodd" stroke="none"/>
    </g>
  </defs>
</svg>
