<?xml version="1.0" encoding="UTF-8" standalone="no"?>
<svg xmlns:ffdec="https://www.free-decompiler.com/flash" xmlns:xlink="http://www.w3.org/1999/xlink" ffdec:objectType="frame" height="442.35px" width="157.1px" xmlns="http://www.w3.org/2000/svg">
  <g transform="matrix(1.0, 0.0, 0.0, 1.0, 15.1, 523.4)">
    <use ffdec:characterId="1668" height="442.35" transform="matrix(1.0, 0.0, 0.0, 1.0, -15.1, -523.4)" width="157.1" xlink:href="#shape0"/>
  </g>
  <defs>
    <g id="shape0" transform="matrix(1.0, 0.0, 0.0, 1.0, 15.1, 523.4)">
      <path d="M101.35 -523.3 L103.8 -523.3 106.6 -523.3 114.5 -523.3 123.25 -523.3 130.3 -523.35 Q131.45 -523.35 131.6 -522.6 139.95 -515.5 140.45 -513.0 L141.05 -512.55 141.4 -511.75 141.5 -511.7 141.85 -509.15 141.85 -508.05 141.85 -506.85 141.85 -506.7 141.85 -503.0 141.9 -503.0 141.9 -501.7 141.9 -500.45 141.9 -498.5 142.0 -498.5 142.0 -498.2 141.9 -498.2 141.9 -485.4 141.9 -459.45 141.9 -430.5 141.9 -408.25 141.9 -401.4 141.9 -400.4 141.9 -399.25 141.9 -394.95 141.9 -329.25 Q141.7 -312.25 141.65 -294.45 L141.65 -286.5 141.65 -264.0 141.65 -180.35 142.0 -180.35 142.0 -92.05 Q141.85 -91.0 141.45 -90.75 L141.2 -90.65 Q140.75 -89.75 136.55 -86.05 L131.9 -82.0 131.25 -82.0 131.0 -81.85 130.6 -81.7 129.65 -81.75 127.85 -81.55 123.3 -81.4 123.3 -81.15 123.25 -81.15 117.0 -81.2 114.5 -81.15 106.6 -81.15 98.65 -81.15 95.85 -81.15 89.65 -81.15 83.75 -81.15 83.4 -81.15 51.3 -81.15 43.55 -81.15 36.75 -81.15 23.65 -81.15 9.15 -81.15 3.5 -81.15 3.5 -81.2 2.35 -81.05 0.65 -81.15 0.65 -81.2 -0.1 -81.2 -0.85 -81.25 -1.6 -81.2 -3.2 -81.3 -4.15 -81.6 -4.65 -81.55 Q-5.2 -81.55 -5.65 -82.05 L-6.15 -82.75 Q-7.4 -83.6 -11.55 -88.55 -14.75 -92.35 -14.6 -93.75 L-14.65 -94.45 -14.9 -96.35 -14.9 -112.95 -14.85 -113.2 -14.85 -119.35 -15.05 -120.6 Q-14.85 -121.35 -15.1 -121.9 L-14.9 -122.6 -14.9 -125.05 -14.85 -125.05 -14.85 -498.2 -14.9 -498.2 -14.9 -498.5 -14.85 -498.5 -14.85 -509.4 -14.9 -509.4 -14.85 -509.75 -14.85 -510.9 -14.75 -511.2 Q-15.3 -511.6 -13.7 -513.2 L-11.9 -515.3 -10.2 -516.75 -10.0 -517.0 Q-5.3 -522.55 -4.0 -522.6 L-3.95 -522.6 -3.15 -522.55 -3.1 -522.6 -1.6 -522.65 -0.1 -522.75 -0.1 -523.2 1.9 -523.2 3.5 -523.2 3.7 -523.2 5.1 -523.2 6.5 -523.2 9.15 -523.2 23.65 -523.2 36.75 -523.2 43.55 -523.2 51.3 -523.2 83.4 -523.2 83.75 -523.2 83.75 -523.25 95.85 -523.25 98.65 -523.25 98.65 -523.3 100.25 -523.3 101.35 -523.3 M131.2 -519.0 L130.25 -520.3 130.05 -520.25 128.15 -520.25 126.35 -520.55 123.3 -520.35 123.3 -520.15 123.25 -520.15 114.5 -520.15 106.6 -520.15 103.8 -520.15 101.35 -520.15 101.35 -519.9 99.25 -519.9 98.65 -519.9 95.85 -519.9 89.65 -519.9 83.75 -519.9 83.4 -519.9 51.3 -519.9 43.55 -519.9 36.75 -519.9 23.65 -519.9 9.15 -519.9 6.5 -519.9 3.7 -519.9 -0.1 -519.9 -1.6 -519.9 -1.85 -519.9 -3.3 -519.95 -6.1 -516.8 Q-8.35 -514.5 -10.3 -512.95 L-11.65 -511.15 -12.1 -510.55 -12.25 -510.45 -12.25 -510.35 -12.2 -509.15 -12.35 -509.15 -12.35 -506.85 -12.45 -505.9 -12.45 -505.8 -12.45 -502.2 -12.45 -498.2 -12.45 -485.4 -12.4 -212.8 -12.45 -212.8 -12.5 -96.9 -12.45 -96.85 Q-12.2 -96.65 -12.2 -96.15 L-12.25 -94.9 -12.25 -94.8 -12.2 -94.75 Q-11.75 -94.5 -11.75 -93.7 L-11.75 -93.0 -11.75 -92.95 -10.25 -91.4 Q-4.9 -86.0 -4.55 -84.65 L-1.6 -84.35 -0.1 -84.15 -0.1 -83.8 3.5 -83.75 3.5 -83.7 6.5 -83.7 9.15 -83.7 23.65 -83.7 36.75 -83.7 43.55 -83.7 51.3 -83.7 83.4 -83.7 83.75 -83.7 89.65 -83.7 95.85 -83.7 98.65 -83.7 99.25 -83.7 101.35 -83.7 101.35 -84.0 103.8 -84.0 106.6 -84.0 114.5 -84.0 123.25 -84.05 123.3 -84.05 123.3 -84.4 126.3 -84.5 128.75 -84.5 130.05 -84.15 131.0 -85.4 132.7 -87.15 Q137.35 -91.5 139.1 -92.15 L139.05 -104.15 138.95 -106.4 139.15 -125.05 139.25 -125.05 139.25 -180.35 139.2 -180.35 139.2 -212.8 139.1 -212.8 139.1 -443.95 139.1 -454.4 139.1 -502.2 139.1 -508.5 139.1 -509.7 139.1 -510.0 139.05 -510.05 Q138.1 -510.65 137.15 -511.95 136.4 -512.95 136.25 -513.7 L132.85 -517.1 131.2 -519.0" fill="#92a387" fill-rule="evenodd" stroke="none"/>
      <path d="M-12.1 -510.55 L-11.65 -511.15 -10.3 -512.95 Q-8.35 -514.5 -6.1 -516.8 L-3.3 -519.95 -1.85 -519.9 -1.6 -519.9 -0.1 -519.9 3.7 -519.9 6.5 -519.9 9.15 -519.9 23.65 -519.9 36.75 -519.9 43.55 -519.9 51.3 -519.9 83.4 -519.9 83.75 -519.9 89.65 -519.9 95.85 -519.9 98.65 -519.9 99.25 -519.9 101.35 -519.9 101.35 -520.15 103.8 -520.15 106.6 -520.15 114.5 -520.15 123.25 -520.15 123.3 -520.15 123.3 -520.35 126.35 -520.55 128.15 -520.25 130.05 -520.25 130.25 -520.3 131.2 -519.0 131.0 -518.85 131.0 -518.75 Q131.0 -518.05 129.5 -516.35 L128.8 -515.55 128.9 -515.4 128.2 -514.85 127.6 -514.7 126.35 -514.65 123.3 -514.65 123.3 -514.55 123.25 -514.55 114.5 -514.5 106.6 -514.45 103.8 -514.45 103.8 -514.4 100.0 -514.4 99.25 -514.4 98.65 -514.4 95.85 -514.4 89.65 -514.4 83.4 -514.4 51.3 -514.4 43.55 -514.4 36.75 -514.4 23.65 -514.4 9.15 -514.4 5.1 -514.4 3.7 -514.4 1.85 -514.35 -1.05 -514.4 -1.35 -513.95 -1.6 -513.75 -2.75 -512.8 -3.9 -511.4 -5.85 -509.0 -6.05 -506.8 -6.05 -503.0 -6.0 -503.0 -6.0 -502.2 -5.95 -502.2 -5.9 -498.5 -5.75 -498.5 -5.75 -498.2 -5.95 -498.2 -5.9 -180.35 -5.8 -180.35 -5.8 -163.55 -5.8 -151.9 -5.8 -151.75 -5.8 -146.25 -5.75 -125.05 -5.65 -125.05 -5.85 -95.4 -4.4 -94.0 Q-2.5 -92.1 -1.6 -90.65 L-1.35 -90.25 -0.8 -90.25 -0.1 -90.25 0.65 -90.25 1.25 -90.35 1.5 -90.35 2.05 -90.25 2.95 -90.3 3.7 -90.25 6.5 -90.2 9.15 -90.2 23.65 -90.2 36.75 -90.2 43.55 -90.2 51.3 -90.2 83.4 -90.2 83.75 -90.2 89.65 -90.2 95.85 -90.2 120.15 -90.2 122.6 -90.2 123.25 -90.3 123.3 -90.35 125.1 -90.35 127.3 -90.65 128.0 -90.65 128.75 -90.4 Q128.75 -89.0 129.55 -87.55 L130.4 -86.35 130.55 -85.85 131.0 -85.4 130.05 -84.15 128.75 -84.5 126.3 -84.5 123.3 -84.4 123.3 -84.05 123.25 -84.05 114.5 -84.0 106.6 -84.0 103.8 -84.0 101.35 -84.0 101.35 -83.7 99.25 -83.7 98.65 -83.7 95.85 -83.7 89.65 -83.7 83.75 -83.7 83.4 -83.7 51.3 -83.7 43.55 -83.7 36.75 -83.7 23.65 -83.7 9.15 -83.7 6.5 -83.7 3.5 -83.7 3.5 -83.75 -0.1 -83.8 -0.1 -84.15 -1.6 -84.35 -4.55 -84.65 Q-4.9 -86.0 -10.25 -91.4 L-11.75 -93.0 -11.75 -93.7 Q-11.75 -94.5 -12.2 -94.75 L-12.25 -94.9 -12.2 -96.15 Q-12.2 -96.65 -12.45 -96.85 L-12.5 -96.9 -12.45 -212.8 -12.4 -212.8 -12.45 -485.4 -12.45 -498.2 -12.45 -502.2 -12.35 -502.2 -12.35 -506.85 -12.35 -509.15 -12.2 -509.15 -12.25 -510.35 -12.1 -510.55" fill="#6a7c5f" fill-rule="evenodd" stroke="none"/>
      <path d="M131.2 -519.0 L132.85 -517.1 136.25 -513.7 Q136.4 -512.95 137.15 -511.95 138.1 -510.65 139.05 -510.05 L139.1 -509.7 139.1 -508.5 139.0 -505.8 139.0 -503.0 139.05 -503.0 139.05 -502.2 139.1 -502.2 139.1 -454.4 139.1 -443.95 139.1 -212.8 139.2 -212.8 139.2 -180.35 139.25 -180.35 139.25 -125.05 139.15 -125.05 138.95 -106.4 139.05 -104.15 139.1 -92.15 Q137.35 -91.5 132.7 -87.15 L131.0 -85.4 130.55 -85.85 130.4 -86.35 129.55 -87.55 Q128.75 -89.0 128.75 -90.4 L128.75 -91.0 128.9 -91.05 129.2 -91.1 130.6 -92.7 133.25 -95.05 133.05 -95.75 133.1 -95.95 133.1 -99.1 132.95 -99.4 133.1 -125.05 133.25 -125.05 133.3 -146.25 133.3 -151.75 133.3 -151.9 133.3 -163.55 133.3 -180.35 133.35 -180.35 133.4 -498.2 133.0 -498.2 133.0 -498.5 133.4 -498.5 133.4 -502.2 133.65 -502.2 133.65 -503.0 133.75 -503.0 133.75 -507.75 133.4 -508.0 133.4 -508.25 128.65 -513.95 128.2 -514.85 128.9 -515.4 128.8 -515.55 129.5 -516.35 Q131.0 -518.05 131.0 -518.75 L131.0 -518.85 131.2 -519.0" fill="#a4b39c" fill-rule="evenodd" stroke="none"/>
    </g>
  </defs>
</svg>
