<?xml version="1.0" encoding="UTF-8" standalone="no"?>
<svg xmlns:ffdec="https://www.free-decompiler.com/flash" xmlns:xlink="http://www.w3.org/1999/xlink" ffdec:objectType="frame" height="36.95px" width="111.0px" xmlns="http://www.w3.org/2000/svg">
  <g transform="matrix(1.0, 0.0, 0.0, 1.0, 0.0, 0.0)">
    <filter id="filter5">
      <feColorMatrix in="SourceGraphic" result="filterResult0" type="matrix" values="0 0 0 0 0.2,0 0 0 0 0.2,0 0 0 0 0.2,0 0 0 1 0"/>
      <feConvolveMatrix divisor="4.0" in="filterResult0" kernelMatrix="1 1 1 1" order="2 2" result="filterResult1"/>
      <feConvolveMatrix divisor="4.0" in="filterResult1" kernelMatrix="1 1 1 1" order="2 2" result="filterResult2"/>
      <feConvolveMatrix divisor="4.0" in="filterResult2" kernelMatrix="1 1 1 1" order="2 2" result="filterResult3"/>
      <feComposite in="SourceGraphic" in2="filterResult3" operator="over" result="filterResult4"/>
    </filter>
    <use ffdec:characterId="235" filter="url(#filter5)" height="36.95" id="am_FloatText" transform="matrix(1.0, 0.0, 0.0, 1.0, 0.0, 0.0)" width="111.0" xlink:href="#text0"/>
  </g>
  <defs>
    <g id="text0" transform="matrix(1.0, 0.0, 0.0, 1.0, 2.0, 2.0)">
      <g transform="matrix(1.0, 0.0, 0.0, 1.0, -2.0, -2.0)">
        <use fill="#ffff00" height="36.95" transform="matrix(0.0273, 0.0, 0.0, 0.0273, 15.65, 26.95)" width="111.0" xlink:href="#font_HelveticaRounded_LT_Std_Bd__0"/>
        <use fill="#ffff00" height="36.95" transform="matrix(0.0273, 0.0, 0.0, 0.0273, 32.45, 26.95)" width="111.0" xlink:href="#font_HelveticaRounded_LT_Std_Bd_10"/>
        <use fill="#ffff00" height="36.95" transform="matrix(0.0273, 0.0, 0.0, 0.0273, 43.85, 26.95)" width="111.0" xlink:href="#font_HelveticaRounded_LT_Std_Bd_00"/>
        <use fill="#ffff00" height="36.95" transform="matrix(0.0273, 0.0, 0.0, 0.0273, 61.0, 26.95)" width="111.0" xlink:href="#font_HelveticaRounded_LT_Std_Bd_00"/>
        <use fill="#ffff00" height="36.95" transform="matrix(0.0273, 0.0, 0.0, 0.0273, 78.15, 26.95)" width="111.0" xlink:href="#font_HelveticaRounded_LT_Std_Bd_00"/>
      </g>
    </g>
    <g id="font_HelveticaRounded_LT_Std_Bd__0">
      <path d="M245.5 -351.5 L245.5 -508.0 Q246.0 -540.0 262.0 -559.5 278.5 -579.0 307.0 -580.0 335.5 -579.0 352.0 -559.5 368.0 -540.0 368.5 -508.0 L368.5 -351.5 525.0 -351.5 Q558.0 -351.0 577.0 -334.5 596.5 -318.0 597.0 -290.0 596.5 -262.0 577.0 -245.5 558.0 -229.0 525.0 -228.5 L368.5 -228.5 368.5 -72.0 Q368.0 -39.5 352.0 -20.0 335.5 -0.5 307.0 0.0 278.5 -0.5 262.0 -20.0 246.0 -39.5 245.5 -72.0 L245.5 -228.5 89.0 -228.5 Q56.0 -229.5 37.0 -248.0 17.5 -266.0 17.0 -290.0 17.5 -318.0 37.0 -334.5 56.0 -351.0 89.0 -351.5 L245.5 -351.5" fill-rule="evenodd" stroke="none"/>
    </g>
    <g id="font_HelveticaRounded_LT_Std_Bd_10">
      <path d="M175.0 -76.5 L175.0 -466.0 43.0 -466.0 Q17.5 -465.5 4.0 -477.5 -9.0 -489.5 -9.5 -520.5 -9.5 -548.0 7.5 -560.0 25.0 -572.0 64.5 -579.0 L102.5 -587.0 Q144.0 -597.0 164.5 -619.5 185.0 -642.0 196.5 -667.0 208.5 -692.0 224.0 -710.0 239.5 -727.5 271.0 -728.5 296.5 -729.5 313.0 -714.5 330.0 -699.5 330.5 -659.0 L330.5 -76.5 Q331.0 -36.0 313.0 -11.5 295.0 13.0 253.0 13.5 210.5 13.0 192.5 -11.5 174.5 -36.0 175.0 -76.5" fill-rule="evenodd" stroke="none"/>
    </g>
    <g id="font_HelveticaRounded_LT_Std_Bd_00">
      <path d="M40.0 -366.5 Q40.5 -487.5 74.0 -568.0 107.5 -648.5 169.0 -688.5 230.0 -728.5 313.5 -728.5 397.0 -728.5 458.0 -688.5 519.5 -648.5 553.0 -568.0 586.5 -487.5 587.0 -366.5 587.5 -298.0 574.5 -231.0 562.0 -163.5 531.5 -108.5 500.5 -53.5 447.5 -20.5 394.0 12.5 313.5 13.5 233.0 12.5 179.5 -20.5 126.5 -53.5 95.5 -108.5 65.0 -163.5 52.5 -231.0 39.5 -298.0 40.0 -366.5 M189.5 -357.5 Q189.5 -266.5 204.0 -211.5 218.5 -157.0 246.5 -133.0 274.0 -109.0 313.5 -109.5 353.0 -109.0 380.5 -133.0 408.5 -157.0 423.0 -211.5 437.5 -266.5 437.5 -357.5 438.0 -474.0 409.5 -539.0 380.5 -604.5 313.5 -605.5 246.5 -604.5 217.5 -539.0 189.0 -474.0 189.5 -357.5" fill-rule="evenodd" stroke="none"/>
    </g>
  </defs>
</svg>
