<?xml version="1.0" encoding="UTF-8" standalone="no"?>
<svg xmlns:ffdec="https://www.free-decompiler.com/flash" xmlns:xlink="http://www.w3.org/1999/xlink" ffdec:objectType="frame" height="18.9px" width="53.9px" xmlns="http://www.w3.org/2000/svg">
  <g transform="matrix(1.0, 0.0, 0.0, 1.0, 26.95, 9.45)">
    <use ffdec:characterId="647" height="2.7" transform="matrix(7.0, 0.0, 0.0, 7.0, -26.95, -9.45)" width="7.7" xlink:href="#shape0"/>
  </g>
  <defs>
    <g id="shape0" transform="matrix(1.0, 0.0, 0.0, 1.0, 3.85, 1.35)">
      <path d="M2.95 -0.9 Q3.85 -0.55 3.85 -0.1 3.85 0.4 3.1 0.75 2.4 1.15 1.4 1.25 L0.0 1.35 -1.65 1.3 Q-2.95 1.05 -3.45 0.7 -3.85 0.35 -3.85 -0.2 -3.85 -0.5 -3.3 -0.85 -3.0 -1.0 -2.6 -1.1 -1.75 -1.35 -0.7 -1.35 L-0.55 -1.35 Q1.7 -1.35 2.95 -0.9 M0.55 -0.9 Q-1.35 -0.9 -1.9 -0.7 -2.2 -0.6 -2.2 -0.2 -2.2 0.05 -1.55 0.25 -1.05 0.4 -0.35 0.45 L0.75 0.45 Q1.4 0.5 1.9 0.2 2.35 -0.1 2.35 -0.35 2.35 -0.55 1.65 -0.75 L0.55 -0.9" fill="#ff6000" fill-opacity="0.7019608" fill-rule="evenodd" stroke="none"/>
      <path d="M0.25 -0.6 Q-0.5 -0.6 -0.5 -0.45 -0.5 -0.3 -0.3 -0.25 L0.45 -0.15 Q0.85 -0.15 0.95 -0.25 L0.95 -0.3 Q0.95 -0.55 0.25 -0.6 M0.55 -0.9 L1.65 -0.75 Q2.35 -0.55 2.35 -0.35 2.35 -0.1 1.9 0.2 1.4 0.5 0.75 0.45 L-0.35 0.45 Q-1.05 0.4 -1.55 0.25 -2.2 0.05 -2.2 -0.2 -2.2 -0.6 -1.9 -0.7 -1.35 -0.9 0.55 -0.9" fill="#ffac00" fill-opacity="0.68235296" fill-rule="evenodd" stroke="none"/>
      <path d="M0.25 -0.6 Q0.95 -0.55 0.95 -0.3 L0.95 -0.25 Q0.85 -0.15 0.45 -0.15 L-0.3 -0.25 Q-0.5 -0.3 -0.5 -0.45 -0.5 -0.6 0.25 -0.6" fill="#ffe479" fill-opacity="0.8235294" fill-rule="evenodd" stroke="none"/>
    </g>
  </defs>
</svg>
