<?xml version="1.0" encoding="UTF-8" standalone="no"?>
<svg xmlns:ffdec="https://www.free-decompiler.com/flash" xmlns:xlink="http://www.w3.org/1999/xlink" ffdec:objectType="frame" height="52.0px" width="52.0px" xmlns="http://www.w3.org/2000/svg">
  <g transform="matrix(1.0, 0.0, 0.0, 1.0, 2.0, 2.0)">
    <use ffdec:characterId="1271" height="52.0" transform="matrix(1.0, 0.0, 0.0, 1.0, -2.0, -2.0)" width="52.0" xlink:href="#shape0"/>
    <use ffdec:characterId="1274" height="51.0" transform="matrix(0.9512, 0.0, 0.0, 0.8799, 2.8366, 1.41)" width="44.75" xlink:href="#sprite0"/>
    <filter id="filter1">
      <feColorMatrix in="SourceGraphic" result="filterResult0" type="matrix" values="0 0 0 0 0.2901961,0 0 0 0 0.3137255,0 0 0 0 0.27058825,0 0 0 1 0"/>
      <feConvolveMatrix divisor="16.0" in="filterResult0" kernelMatrix="1 1 1 1 1 1 1 1 1 1 1 1 1 1 1 1" order="4 4" result="filterResult1"/>
      <feComposite in="SourceGraphic" in2="filterResult1" operator="over" result="filterResult2"/>
    </filter>
    <use ffdec:characterId="1275" filter="url(#filter1)" height="25.2" id="am_Count" transform="matrix(1.0, 0.0, 0.0, 1.0, 0.55, 24.0)" width="18.45" xlink:href="#text0"/>
  </g>
  <defs>
    <g id="shape0" transform="matrix(1.0, 0.0, 0.0, 1.0, 2.0, 2.0)">
      <path d="M40.1 -2.0 Q50.05 -2.0 50.0 7.5 L50.0 40.5 Q50.05 50.0 40.1 50.0 L7.9 50.0 Q1.0 50.0 -1.1 45.4 -2.0 43.4 -2.0 40.5 L-2.0 7.5 Q-2.05 -2.0 7.9 -2.0 L40.1 -2.0 M48.0 40.5 L48.0 7.5 Q48.0 0.0 40.1 0.0 L7.9 0.0 Q0.0 0.0 0.0 7.5 L0.0 40.5 Q0.0 43.6 1.35 45.4 3.25 48.0 7.9 48.0 L40.1 48.0 Q48.0 48.0 48.0 40.5" fill="#003c64" fill-rule="evenodd" stroke="none"/>
    </g>
    <g id="sprite0" transform="matrix(1.0, 0.0, 0.0, 1.0, 0.75, 0.5)">
      <use ffdec:characterId="1273" height="51.0" transform="matrix(1.0, 0.0, 0.0, 1.0, -0.75, -0.5)" width="44.75" xlink:href="#shape1"/>
    </g>
    <g id="shape1" transform="matrix(1.0, 0.0, 0.0, 1.0, 0.75, 0.5)">
      <path d="M11.4 29.3 L11.8 30.25 11.2 29.45 11.35 29.35 11.4 29.3 M11.0 29.1 L11.05 29.1 11.0 29.1" fill="#00b9b9" fill-rule="evenodd" stroke="none"/>
      <path d="M21.55 0.55 L21.9 0.8 21.9 1.2 21.85 1.25 21.75 1.35 21.55 1.3 21.55 1.25 19.5 2.65 18.15 3.45 Q18.65 2.55 19.6 1.85 L21.4 0.6 21.55 0.55 M22.1 43.05 L22.4 43.25 22.6 42.9 22.65 42.9 22.8 42.95 22.85 43.0 22.4 43.45 21.8 43.7 21.6 43.65 Q21.55 43.4 21.75 43.3 L22.1 43.05 M30.15 34.3 L31.55 32.3 33.65 28.05 35.5 23.8 Q37.15 19.1 37.9 14.35 L37.95 14.05 37.9 15.85 36.7 20.25 36.2 22.6 36.2 22.65 36.25 22.7 36.3 22.85 36.35 22.9 33.6 29.25 Q32.4 32.2 30.15 34.3 M4.6 7.5 Q4.95 7.75 4.6 7.75 4.3 7.8 4.55 7.55 L4.6 7.5 M4.35 7.55 L4.55 7.85 4.6 7.85 4.6 8.0 4.6 8.15 4.5 8.3 4.4 8.3 4.25 8.2 4.25 8.1 3.85 8.1 3.3 8.6 2.9 8.55 Q2.85 8.3 3.05 8.25 L3.45 7.95 Q3.2 7.65 3.65 7.45 L4.15 7.2 Q4.35 7.3 4.35 7.55 M1.45 10.35 L1.45 10.6 1.45 10.95 1.45 11.0 1.55 11.05 1.65 11.15 Q1.5 12.35 1.75 13.6 L2.25 16.25 2.15 16.65 Q1.8 16.65 1.8 16.2 L1.6 15.65 1.5 15.5 1.45 15.25 1.45 15.05 1.35 14.9 1.35 15.05 1.4 15.25 1.3 15.4 Q0.75 14.35 0.55 12.9 L0.4 9.9 Q0.4 9.7 0.55 9.65 L0.85 9.9 1.25 10.0 1.35 10.0 1.45 10.35 M17.15 45.1 L18.55 46.45 18.55 46.55 18.4 46.65 18.05 46.7 17.95 46.75 16.6 45.55 15.5 44.4 Q15.4 44.25 15.6 44.2 16.45 44.45 17.15 45.1 M20.0 47.3 L20.55 47.95 20.55 48.05 Q20.15 48.15 19.65 47.7 19.2 47.3 19.25 46.9 L19.3 46.8 20.0 47.3" fill="#cccccc" fill-rule="evenodd" stroke="none"/>
      <path d="M9.5 26.0 Q8.95 25.0 8.55 23.8 L8.2 22.75 Q7.45 21.1 7.25 19.7 L6.85 18.8 Q6.35 17.45 6.65 16.15 L5.95 14.85 5.5 13.5 8.1 13.15 Q11.2 12.7 12.9 10.5 L14.55 10.05 16.35 8.5 Q18.9 7.95 20.3 6.2 L21.5 5.45 22.05 5.5 Q22.7 6.7 24.8 7.8 L31.85 11.45 Q35.1 13.05 38.05 13.15 L38.0 13.45 37.95 13.75 37.95 14.05 37.9 14.35 Q37.15 19.1 35.5 23.8 L33.65 28.05 31.55 32.3 30.15 34.3 30.15 34.35 Q28.45 36.55 26.35 38.35 23.9 40.5 22.6 42.9 L22.4 43.25 22.1 43.05 Q17.15 39.7 13.75 34.05 L11.8 30.25 11.4 29.3 Q11.75 28.9 11.5 28.4 L11.3 28.1 11.2 27.85 Q10.95 27.1 10.4 27.2 L10.35 27.1 9.95 26.55 9.6 25.95 9.5 26.0" fill="url(#gradient0)" fill-rule="evenodd" stroke="none"/>
      <path d="M9.5 26.0 L9.6 25.95 9.95 26.55 10.35 27.1 10.4 27.2 Q10.95 27.1 11.2 27.85 L11.3 28.1 11.5 28.4 Q11.75 28.9 11.4 29.3 L11.35 29.35 11.2 29.45 10.9 29.25 Q10.65 29.0 11.0 29.1 10.45 28.75 10.2 27.9 L9.5 26.1 9.5 26.0 M11.0 29.1 L11.05 29.1 11.0 29.1" fill="#00acac" fill-rule="evenodd" stroke="none"/>
      <path d="M38.75 13.3 Q39.2 14.05 39.15 14.65 L39.15 14.75 Q38.95 15.5 37.7 15.9 L38.2 16.4 38.35 16.6 Q37.45 20.65 35.95 24.6 36.2 27.0 34.3 30.2 31.1 35.5 27.15 40.4 L24.65 43.15 24.15 43.05 23.05 42.7 22.4 42.9 22.2 42.9 22.1 43.0 20.25 41.95 Q18.65 41.65 16.7 38.7 L16.2 37.95 Q14.4 35.6 13.55 33.35 L13.15 34.05 Q12.55 35.25 11.55 34.45 L11.75 33.9 10.6 35.75 10.85 33.35 Q10.2 30.75 12.4 28.0 17.25 21.85 24.2 17.9 29.35 15.0 35.15 13.9 L36.15 13.95 38.75 13.3 M28.95 30.25 L29.2 29.95 Q29.15 29.9 29.05 30.0 L28.95 30.25" fill="#009595" fill-rule="evenodd" stroke="none"/>
      <path d="M11.45 28.9 L11.45 28.95 11.25 29.0 11.0 28.85 10.85 28.7 Q10.65 28.4 10.75 28.2 L10.75 28.05 10.85 28.0 11.0 27.95 11.4 28.3 11.45 28.9" fill="#00acac" fill-rule="evenodd" stroke="none"/>
      <path d="M36.65 12.85 L36.95 12.85 36.9 13.35 37.1 13.3 Q37.4 21.55 33.05 29.9 29.35 36.95 23.3 41.05 L20.9 42.7 Q20.45 43.0 20.15 42.55 L20.4 42.35 20.15 42.25 Q26.75 35.3 31.0 26.45 L31.25 25.95 Q33.05 22.05 33.9 17.9 L34.55 12.5 Q34.6 11.9 35.15 11.8 35.85 11.8 35.85 12.45 35.9 13.15 36.65 12.85" fill="#007575" fill-opacity="0.6" fill-rule="evenodd" stroke="none"/>
      <path d="M31.5 11.05 Q31.55 10.7 31.9 10.6 L31.9 11.9 31.95 12.1 31.9 12.2 Q31.75 19.25 28.0 26.45 25.4 31.4 21.7 35.35 L19.25 37.7 17.25 39.35 16.8 39.25 17.15 38.85 16.5 39.05 17.4 38.05 17.35 37.95 16.9 38.15 Q16.3 38.05 16.2 37.55 L16.05 36.85 15.95 36.85 15.9 36.8 16.0 36.6 15.95 36.45 15.65 36.35 15.05 37.0 Q14.75 37.35 14.4 37.15 L14.2 37.25 13.8 37.15 15.0 35.65 15.0 35.4 13.05 36.55 12.9 36.35 Q16.2 32.85 18.65 28.6 20.25 24.6 21.3 20.25 L21.4 19.85 21.5 18.35 21.85 5.0 21.85 4.95 Q21.85 4.65 22.15 4.65 L22.45 5.5 22.4 4.7 Q22.35 4.4 22.7 4.35 L22.75 4.55 23.05 4.35 23.7 7.2 Q24.15 6.55 24.9 6.8 25.4 6.9 25.8 6.55 L26.0 6.45 Q27.0 8.0 28.7 9.2 30.15 10.2 31.45 11.4 L31.5 11.05" fill="#007171" fill-opacity="0.6" fill-rule="evenodd" stroke="none"/>
      <path d="M36.2 13.65 L36.3 13.55 Q35.15 21.15 31.85 28.2 28.55 35.2 22.85 40.7 L22.2 40.85 25.7 37.05 Q29.2 31.9 31.95 25.95 34.5 20.3 35.25 14.15 L35.3 14.05 35.3 13.6 Q35.35 13.3 35.6 13.35 35.65 13.8 35.8 13.6 36.0 13.25 36.15 13.5 L36.2 13.6 36.2 13.65" fill="url(#gradient1)" fill-rule="evenodd" stroke="none"/>
      <path d="M22.1 10.7 L21.9 10.8 22.05 10.75 22.1 10.7 M25.8 8.85 L26.55 8.5 26.9 8.55 27.05 8.6 Q29.05 10.25 31.65 11.15 L36.65 12.9 37.0 13.2 Q37.35 13.6 36.6 13.7 28.55 14.85 21.9 19.25 15.55 23.5 11.0 29.65 10.4 29.2 10.8 28.6 9.0 26.65 9.0 24.6 L9.55 26.0 9.0 24.35 8.8 23.8 9.0 23.35 9.1 23.25 8.6 23.4 Q8.75 22.9 8.45 22.7 L8.1 22.4 7.85 22.15 7.5 22.1 8.05 21.4 Q10.65 17.75 14.4 14.95 19.25 11.35 24.75 8.65 25.25 8.4 25.8 8.25 L26.0 8.15 26.0 8.2 26.55 8.1 25.95 8.45 25.8 8.85" fill="url(#gradient2)" fill-rule="evenodd" stroke="none"/>
      <path d="M21.1 39.75 L21.45 40.15 20.0 38.85 21.1 39.75 M8.3 13.0 L8.3 13.1 8.2 13.15 8.2 13.1 8.3 13.0 M11.9 27.0 L12.2 27.55 12.35 27.95 12.05 27.35 11.9 27.0 M10.05 22.1 L10.1 22.45 9.65 20.9 10.05 22.1" fill="#ccffff" fill-opacity="0.49803922" fill-rule="evenodd" stroke="none"/>
      <path d="M20.0 38.85 L19.25 38.15 19.0 37.9 18.95 37.9 Q13.95 33.1 11.2 26.1 8.75 19.95 7.6 13.5 L7.6 13.35 Q7.6 13.1 7.75 13.05 L7.65 12.4 7.9 12.35 7.95 12.5 8.85 12.15 10.0 11.65 10.35 12.8 10.4 12.6 Q10.55 12.2 10.8 12.1 L11.0 12.15 11.1 12.05 11.1 11.9 Q11.15 11.6 11.45 11.6 L11.45 11.8 11.7 11.6 11.75 11.8 12.0 11.7 12.1 11.65 12.25 11.7 12.65 10.85 12.75 10.75 12.85 11.45 13.0 11.2 13.05 11.2 13.05 10.9 Q13.1 10.65 13.35 10.7 L13.4 11.4 13.4 12.1 Q13.6 16.85 14.25 21.4 15.0 26.5 16.9 31.35 L16.95 31.8 16.7 31.35 Q18.5 35.35 20.95 39.0 L21.05 39.15 21.25 39.4 21.45 39.8 21.35 39.75 21.35 39.85 21.25 39.8 21.3 39.9 21.1 39.75 20.0 38.85 M8.3 13.0 L8.35 12.9 8.0 12.7 8.1 13.2 8.15 13.25 8.15 12.9 8.2 13.1 8.2 13.15 8.3 13.1 8.3 13.0 M10.05 22.1 L9.65 20.9 10.1 22.45 10.05 22.1 M11.9 27.0 L12.05 27.35 12.35 27.95 12.2 27.55 11.9 27.0" fill="url(#gradient3)" fill-rule="evenodd" stroke="none"/>
      <path d="M21.3 4.8 L21.7 5.15 22.1 4.8 22.4 4.9 Q22.75 5.05 22.6 5.3 L22.5 5.4 Q23.3 5.55 22.9 6.25 L22.8 6.4 25.9 8.4 Q29.9 11.15 34.7 12.15 37.85 12.85 37.2 14.85 L36.85 14.85 37.35 15.25 37.2 15.35 Q34.35 15.1 31.5 13.95 26.8 12.1 22.65 9.15 L21.7 8.35 20.75 9.15 Q16.6 12.1 11.9 13.95 9.05 15.1 6.2 15.35 L6.05 15.25 6.55 14.85 6.2 14.85 Q5.55 12.85 8.7 12.15 13.5 11.15 17.5 8.4 L20.6 6.4 20.5 6.25 Q20.1 5.55 20.9 5.4 L20.8 5.3 Q20.65 5.05 21.0 4.9 L21.3 4.8" fill="#007e7e" fill-opacity="0.6" fill-rule="evenodd" stroke="none"/>
      <path d="M41.0 8.35 L41.8 8.8 Q43.1 9.6 43.05 11.25 L42.6 11.6 42.55 11.5 42.5 11.4 42.65 11.3 42.9 11.1 42.95 10.85 43.0 10.75 42.85 10.55 42.8 10.55 42.45 10.25 42.2 10.2 42.2 10.15 42.2 10.2 37.9 8.75 39.2 8.95 39.8 9.25 Q41.1 9.8 41.85 9.05 L41.65 8.85 41.1 8.6 41.0 8.35 M42.5 13.65 Q42.95 18.15 40.9 23.5 37.6 32.25 32.65 40.45 L29.35 45.25 29.05 45.3 28.8 45.3 28.15 45.15 23.8 48.45 23.2 48.8 26.1 46.25 Q31.3 42.45 34.75 36.6 40.5 26.8 42.25 15.5 L42.4 14.7 42.45 14.0 42.5 13.65 M21.95 48.95 L21.4 49.05 21.35 49.05 21.65 46.85 21.35 44.95 21.15 44.9 20.9 44.9 20.75 44.9 20.5 45.0 20.45 45.0 14.6 38.2 Q8.55 30.85 6.3 21.65 L6.3 21.55 6.3 21.5 6.4 21.45 6.95 23.75 Q7.35 25.4 8.3 26.25 L8.4 26.5 8.3 26.6 8.25 26.8 8.5 26.75 9.7 29.5 Q11.2 32.9 13.25 35.85 13.4 36.9 14.5 38.0 L16.1 39.55 17.8 41.5 Q19.2 43.0 20.7 43.9 21.0 44.45 21.55 44.6 L21.6 44.45 21.65 44.1 21.7 44.05 21.7 43.95 21.65 43.6 21.55 43.45 Q21.7 43.25 21.3 43.2 L21.05 42.85 19.65 41.9 19.55 41.95 19.65 42.1 Q16.7 39.15 14.25 35.45 12.55 32.8 11.2 30.05 9.6 26.8 8.3 23.45 L8.1 22.65 8.0 22.2 8.2 22.75 8.55 23.8 Q9.45 26.45 11.0 28.3 12.1 31.3 13.75 34.05 17.25 39.85 22.4 43.25 23.7 40.65 26.35 38.35 29.4 35.7 31.55 32.3 L33.65 28.05 35.2 24.45 35.3 24.5 35.8 24.55 35.55 25.2 Q31.9 36.45 23.1 44.2 L22.35 45.0 21.6 45.65 21.75 46.45 21.8 47.5 21.65 48.6 21.65 48.7 21.9 48.9 21.95 48.95 M20.55 48.95 Q19.1 48.65 18.0 46.8 L17.95 46.7 Q19.05 47.4 20.3 48.0 20.3 48.6 20.55 48.95 M15.55 45.0 L15.3 45.0 14.35 43.95 15.55 45.0 M6.9 6.6 Q7.35 6.3 7.75 6.15 L7.9 6.25 6.9 6.6 M9.95 5.65 Q12.5 4.7 15.35 4.0 L16.4 3.75 16.05 3.9 10.9 6.6 9.85 7.0 9.25 7.25 10.6 5.95 10.5 5.85 9.95 5.65 M21.3 1.15 L21.35 1.1 21.35 1.25 21.3 1.15 M22.6 0.8 L22.7 0.75 25.2 2.0 26.15 2.8 31.9 4.8 35.0 6.05 32.75 5.25 32.75 5.3 32.45 5.35 32.4 5.35 31.65 5.1 31.65 5.15 31.45 5.15 31.4 5.2 31.2 5.3 31.1 5.5 31.2 5.85 27.25 3.8 Q25.45 2.65 23.8 1.85 L22.8 1.25 22.6 0.8 M33.5 12.2 L31.85 11.45 24.8 7.8 Q22.7 6.7 22.05 5.5 L21.5 5.45 20.3 6.2 Q19.25 7.5 17.5 8.15 L18.8 7.35 Q20.25 6.4 20.75 5.4 L20.9 5.4 21.6 4.5 22.0 5.05 22.95 5.95 23.8 6.55 23.95 6.65 26.1 8.15 27.5 9.05 29.3 10.05 33.5 12.2 M15.95 9.0 L14.55 10.05 12.9 10.5 Q11.2 12.7 8.1 13.15 L5.5 13.5 5.95 14.85 6.65 16.15 Q6.35 17.45 6.85 18.8 L7.25 19.7 7.45 20.7 6.8 19.2 6.65 18.65 6.3 16.8 6.2 16.2 6.15 16.05 Q5.95 14.8 5.4 13.8 L5.35 13.95 5.3 13.5 5.25 13.8 5.1 13.5 5.05 13.55 5.1 14.65 5.1 14.9 5.15 15.3 5.35 16.9 5.4 17.25 5.85 18.95 5.9 19.2 6.0 19.5 6.2 20.5 6.3 20.8 6.1 20.85 3.85 13.0 Q7.05 13.3 10.2 11.75 L13.2 10.25 13.85 10.0 15.95 9.0 M20.4 2.75 L20.5 2.7 20.5 3.5 20.55 4.35 Q18.3 6.25 15.75 7.75 L15.55 7.8 15.3 7.75 15.35 7.5 15.6 7.05 16.25 6.1 16.4 5.9 17.05 4.95 17.6 4.6 18.15 4.3 Q19.25 3.75 19.9 3.05 L20.4 2.75 M38.3 16.2 L38.2 13.85 38.15 13.75 38.0 13.75 38.0 13.65 38.0 13.45 38.05 13.35 39.0 13.25 39.05 13.3 38.3 16.2 M37.4 19.3 L35.95 24.1 Q36.0 23.1 36.4 22.1 L37.05 19.9 37.15 19.7 37.4 19.3 M11.95 8.05 L11.95 8.45 11.95 8.65 11.85 8.75 10.9 10.2 9.65 10.75 9.5 10.6 9.25 10.55 9.55 9.95 Q10.1 8.9 10.95 8.25 L11.95 8.05 M1.9 11.1 L1.9 11.05 Q4.0 10.95 6.2 10.15 L6.8 9.95 6.85 10.05 Q7.5 10.2 7.05 10.65 L5.85 12.05 5.85 12.1 3.4 12.8 3.45 12.95 3.85 13.0 Q3.45 13.05 3.5 13.4 3.95 18.7 5.45 23.7 L4.9 24.6 Q3.45 19.95 2.8 15.05 L1.9 11.1 M6.15 20.9 L6.3 20.9 6.15 21.0 6.15 20.9 M6.15 21.05 L6.35 21.05 6.35 21.2 6.4 21.3 6.25 21.4 6.15 21.05 M11.35 36.25 L11.1 36.6 10.9 37.5 9.7 35.55 7.65 31.65 8.25 30.9 Q9.6 33.75 11.35 36.25 M13.95 41.6 L14.35 40.4 15.15 41.35 Q17.35 43.7 19.65 45.35 L20.25 46.1 20.3 47.65 Q16.75 44.95 13.95 41.6 M7.05 28.65 L6.7 29.5 6.05 27.9 6.6 27.0 7.1 28.35 7.2 28.55 7.05 28.65" fill="#cccccc" fill-rule="evenodd" stroke="none"/>
      <path d="M37.9 8.75 L42.2 10.2 42.2 10.15 42.2 10.2 42.45 10.25 42.8 10.55 42.3 10.7 42.5 12.2 42.5 13.65 42.45 14.0 42.4 14.7 42.25 15.5 Q40.5 26.8 34.75 36.6 31.3 42.45 26.1 46.25 L22.5 48.5 22.4 48.85 22.25 48.65 22.0 48.75 21.85 48.5 21.8 48.05 21.85 47.85 21.9 47.85 21.8 47.5 21.75 46.45 Q21.85 45.7 22.35 45.0 L23.1 44.2 Q31.9 36.45 35.55 25.2 L35.8 24.55 35.95 24.1 37.4 19.3 38.3 16.2 39.05 13.3 39.1 13.25 39.0 13.25 38.05 13.35 37.95 13.35 Q36.25 13.35 34.35 12.55 L33.5 12.2 29.3 10.05 26.1 8.15 23.95 6.65 23.8 6.55 Q22.4 5.45 21.75 4.05 L21.7 3.95 21.4 2.5 21.35 1.25 21.35 1.1 21.35 0.95 21.45 0.8 21.6 0.75 21.85 0.65 22.8 1.25 23.8 1.85 Q25.45 2.65 27.25 3.8 L31.2 5.85 31.8 6.15 Q34.75 7.6 37.9 8.75 M41.85 10.8 L41.95 11.0 42.0 10.75 41.85 10.8 M41.35 11.5 L41.15 11.45 Q40.45 11.25 40.3 10.9 38.35 10.85 36.2 10.0 L32.4 8.25 32.15 8.7 31.45 9.5 Q34.95 11.15 38.6 12.4 L38.85 12.3 39.3 12.45 39.3 12.3 39.4 12.25 39.5 12.45 39.9 12.55 40.05 12.6 40.25 13.4 39.95 15.1 39.85 15.35 39.45 17.25 38.05 21.95 37.45 24.0 39.15 22.35 41.7 12.35 41.35 11.5 M31.3 9.4 L31.3 9.2 31.1 9.3 31.3 9.4 M22.75 2.95 L22.75 3.3 22.75 3.5 22.8 3.85 Q25.1 5.8 27.65 7.4 L27.8 7.25 28.6 6.3 28.65 6.25 28.5 6.15 22.75 2.6 22.75 2.95 M39.7 13.1 L39.8 13.45 39.75 13.05 39.7 13.05 39.7 13.1 M6.65 18.65 L6.8 19.2 6.7 18.95 6.65 18.65 M8.3 26.25 L8.55 26.45 8.65 26.4 8.95 26.3 8.85 26.15 8.3 23.45 Q9.6 26.8 11.2 30.05 12.55 32.8 14.25 35.45 16.7 39.15 19.65 42.1 L19.55 41.95 19.65 41.9 21.05 42.85 21.3 43.2 Q21.7 43.25 21.55 43.45 L21.65 43.6 21.7 43.95 21.7 44.05 21.65 44.1 21.6 44.45 21.55 44.6 Q21.0 44.45 20.7 43.9 19.2 43.0 17.8 41.5 L16.1 39.55 14.5 38.0 Q13.4 36.9 13.25 35.85 11.2 32.9 9.7 29.5 L8.5 26.75 8.25 26.8 8.3 26.6 8.4 26.5 8.3 26.25 M8.95 26.45 L8.75 26.6 9.0 26.95 8.95 26.7 9.0 26.7 9.0 26.4 8.95 26.45 M28.65 40.15 Q26.2 43.25 23.05 45.85 L22.75 46.5 22.7 47.3 Q30.25 41.95 34.55 34.25 32.6 36.75 29.9 38.55 L28.65 40.15" fill="#959595" fill-rule="evenodd" stroke="none"/>
      <path d="M7.45 20.7 L8.0 22.2 8.1 22.65 8.3 23.45 8.85 26.15 8.95 26.3 8.65 26.4 8.55 26.45 8.3 26.25 Q7.35 25.4 6.95 23.75 L6.4 21.45 6.8 21.25 Q7.25 21.1 7.1 20.7 L7.05 20.7 7.05 20.6 6.9 20.15 6.85 20.0 6.7 18.95 6.8 19.2 7.45 20.7 M35.2 24.45 L35.1 24.3 36.9 18.95 37.05 18.45 Q36.95 17.45 37.2 16.25 L37.75 13.45 37.95 13.35 38.0 13.65 38.0 13.75 38.15 13.75 38.2 13.85 38.3 16.2 37.4 19.3 37.15 19.7 37.05 19.9 36.4 22.1 Q36.0 23.1 35.95 24.1 L35.8 24.55 35.3 24.5 35.2 24.45 M6.3 20.8 L6.2 20.5 6.0 19.5 5.9 19.2 5.85 18.95 6.05 19.4 6.05 19.45 6.05 19.55 6.1 19.65 6.1 19.75 6.25 20.2 6.35 20.35 6.35 20.55 6.4 20.75 6.3 20.8 M5.25 13.8 L5.3 13.5 5.35 13.95 5.4 13.8 Q5.95 14.8 6.15 16.05 L6.2 16.2 5.65 14.6 5.6 14.5 5.4 14.0 5.35 13.95 5.25 13.8 M6.35 21.05 L6.5 21.05 Q6.3 21.15 6.6 21.15 L6.4 21.3 6.35 21.2 6.35 21.05 M8.95 26.45 L9.0 26.4 9.0 26.7 8.95 26.7 9.0 26.95 8.75 26.6 8.95 26.45" fill="#7e7e7e" fill-rule="evenodd" stroke="none"/>
      <path d="M6.1 20.85 L6.3 20.8 6.4 20.75 6.35 20.55 6.35 20.35 6.25 20.2 6.1 19.75 6.1 19.65 6.05 19.55 6.05 19.45 6.05 19.4 5.85 18.95 5.4 17.25 5.35 16.9 5.15 15.3 Q5.25 15.65 5.7 15.7 L5.75 15.6 5.65 14.65 5.65 14.6 6.2 16.2 6.3 16.8 6.65 18.65 6.7 18.95 6.85 20.0 6.9 20.15 7.05 20.6 7.05 20.7 7.1 20.7 Q7.25 21.1 6.8 21.25 L6.4 21.45 6.3 21.5 6.3 21.55 6.25 21.4 6.4 21.3 6.6 21.15 Q6.3 21.15 6.5 21.05 L6.35 21.05 6.15 21.05 6.15 21.0 6.3 20.9 6.15 20.9 6.1 20.85 M5.1 14.65 L5.05 13.55 5.1 13.5 5.25 13.8 5.35 13.95 5.4 14.0 5.3 13.9 Q5.15 13.85 5.1 14.0 L5.1 14.65" fill="#5d5d5d" fill-rule="evenodd" stroke="none"/>
      <path d="M5.15 15.3 L5.1 14.9 5.1 14.65 5.1 14.0 Q5.15 13.85 5.3 13.9 L5.4 14.0 5.6 14.5 5.65 14.6 5.65 14.65 5.75 15.6 5.7 15.7 Q5.25 15.65 5.15 15.3" fill="#525252" fill-rule="evenodd" stroke="none"/>
      <path d="M35.0 6.05 L37.1 6.45 Q38.55 6.65 39.7 7.4 38.2 6.9 36.7 6.55 L32.4 5.35 32.45 5.35 32.75 5.3 32.75 5.25 35.0 6.05" fill="#717171" fill-rule="evenodd" stroke="none"/>
      <path d="M41.0 8.35 L41.1 8.6 41.65 8.85 41.85 9.05 Q41.1 9.8 39.8 9.25 L39.2 8.95 37.9 8.75 Q34.75 7.6 31.8 6.15 L31.2 5.85 31.1 5.5 31.2 5.3 31.4 5.2 31.45 5.15 31.65 5.15 31.65 5.1 32.4 5.35 36.7 6.55 Q38.2 6.9 39.7 7.4 L39.75 7.4 Q40.6 7.7 41.0 8.35" fill="#4d4d4d" fill-rule="evenodd" stroke="none"/>
      <path d="M42.8 10.55 L42.85 10.55 43.0 10.75 42.95 10.85 42.9 11.1 42.65 11.3 42.5 11.4 42.55 11.5 42.6 11.6 42.6 11.85 42.6 11.95 42.55 12.05 42.5 12.2 42.3 10.7 42.8 10.55 M23.2 48.8 L22.25 49.5 21.95 48.95 21.9 48.9 21.65 48.7 21.65 48.6 21.8 47.5 21.9 47.85 21.85 47.85 21.8 48.05 21.85 48.5 22.0 48.75 22.25 48.65 22.4 48.85 22.5 48.5 26.1 46.25 23.2 48.8 M21.6 0.75 L21.7 0.7 21.85 0.6 21.95 0.6 22.15 0.5 Q22.45 0.55 22.6 0.8 L22.8 1.25 21.85 0.65 21.6 0.75 M41.35 11.5 L41.7 12.35 39.15 22.35 37.45 24.0 38.05 21.95 39.45 17.25 39.85 15.35 39.95 15.1 40.25 13.4 40.05 12.6 39.9 12.55 39.5 12.45 39.4 12.25 39.3 12.3 39.3 12.45 38.85 12.3 38.6 12.4 Q34.95 11.15 31.45 9.5 L32.15 8.7 32.4 8.25 36.2 10.0 Q38.35 10.85 40.3 10.9 40.45 11.25 41.15 11.45 L41.35 11.5 M41.85 10.8 L42.0 10.75 41.95 11.0 41.85 10.8 M29.3 10.05 L27.5 9.05 26.1 8.15 29.3 10.05 M23.8 6.55 L22.95 5.95 22.0 5.05 21.6 4.5 21.75 4.05 Q22.4 5.45 23.8 6.55 M31.3 9.4 L31.1 9.3 31.3 9.2 31.3 9.4 M22.75 2.95 L22.75 2.6 28.5 6.15 28.65 6.25 28.6 6.3 27.8 7.25 27.65 7.4 Q25.1 5.8 22.8 3.85 L22.75 3.5 22.75 3.3 22.75 2.95 M39.7 13.1 L39.7 13.05 39.75 13.05 39.8 13.45 39.7 13.1 M39.05 13.3 L39.0 13.25 39.1 13.25 39.05 13.3 M22.35 45.0 Q21.85 45.7 21.75 46.45 L21.6 45.65 22.35 45.0 M28.65 40.15 L29.9 38.55 Q32.6 36.75 34.55 34.25 30.25 41.95 22.7 47.3 L22.75 46.5 23.05 45.85 Q26.2 43.25 28.65 40.15" fill="#868686" fill-rule="evenodd" stroke="none"/>
      <path d="M21.35 49.05 L21.3 49.1 Q21.2 49.35 20.9 49.35 L20.55 48.95 Q20.3 48.6 20.3 48.0 19.05 47.4 17.95 46.7 L15.55 45.0 14.35 43.95 Q11.7 41.5 9.65 38.25 3.7 28.9 1.4 18.0 0.7 14.6 0.65 11.05 L0.0 11.0 Q0.3 9.6 2.2 9.1 2.1 7.35 4.4 7.1 L6.9 6.6 7.9 6.25 8.75 5.9 9.25 5.65 9.85 5.65 9.95 5.65 10.5 5.85 10.6 5.95 9.25 7.25 9.85 7.0 10.9 6.6 16.05 3.9 16.4 3.75 Q18.45 2.65 20.2 1.2 L20.3 1.15 20.3 0.8 20.35 0.7 20.5 0.6 20.75 0.55 20.75 0.5 21.3 1.15 21.35 1.25 21.4 2.5 21.7 3.95 21.75 4.05 21.6 4.5 20.9 5.4 20.75 5.4 Q20.25 6.4 18.8 7.35 L17.5 8.15 15.95 9.0 13.85 10.0 13.2 10.25 10.2 11.75 Q7.05 13.3 3.85 13.0 L6.1 20.85 6.15 20.9 6.15 21.0 6.15 21.05 6.25 21.4 6.3 21.55 6.3 21.65 Q8.55 30.85 14.6 38.2 L20.45 45.0 20.5 45.0 20.75 44.9 20.9 44.9 21.15 44.9 21.35 44.95 21.65 46.85 21.35 49.05 M20.4 2.75 L19.9 3.05 Q19.25 3.75 18.15 4.3 L17.6 4.6 17.05 4.95 16.4 5.9 16.25 6.1 15.6 7.05 15.35 7.5 15.3 7.75 15.55 7.8 15.75 7.75 Q18.3 6.25 20.55 4.35 L20.5 3.5 20.5 2.7 20.4 2.75 M11.95 8.05 L10.95 8.25 Q10.1 8.9 9.55 9.95 L9.25 10.55 9.5 10.6 9.65 10.75 10.9 10.2 11.85 8.75 11.95 8.65 11.95 8.45 11.95 8.05 M1.9 11.1 L2.8 15.05 Q3.45 19.95 4.9 24.6 L5.45 23.7 Q3.95 18.7 3.5 13.4 3.45 13.05 3.85 13.0 L3.45 12.95 3.4 12.8 5.85 12.1 5.85 12.05 7.05 10.65 Q7.5 10.2 6.85 10.05 L6.8 9.95 6.2 10.15 Q4.0 10.95 1.9 11.05 L1.9 11.1 M11.35 36.25 Q9.6 33.75 8.25 30.9 L7.65 31.65 9.7 35.55 10.9 37.5 11.1 36.6 11.35 36.25 M7.05 28.65 L7.2 28.55 7.1 28.35 6.6 27.0 6.05 27.9 6.7 29.5 7.05 28.65 M13.95 41.6 Q16.75 44.95 20.3 47.65 L20.25 46.1 19.65 45.35 Q17.35 43.7 15.15 41.35 L14.35 40.4 13.95 41.6" fill="#e5e5e5" fill-rule="evenodd" stroke="none"/>
      <path d="M43.25 9.75 Q41.9 23.55 36.25 34.2 30.7 44.55 22.15 49.55 L21.85 49.75 M43.25 9.7 L41.45 8.45 39.9 7.05 M39.4 6.65 L35.25 6.2 Q31.6 5.3 25.9 2.35 L22.25 0.25 M0.0 9.75 Q1.35 23.55 7.0 34.2 12.55 44.55 21.1 49.55 L21.6 49.75 M0.0 9.7 Q0.5 9.3 1.8 8.45 L3.35 7.05 M21.0 0.25 L17.35 2.35 Q11.65 5.3 8.0 6.2 4.4 7.1 3.85 6.65" fill="none" stroke="#3a3a3a" stroke-linecap="round" stroke-linejoin="round" stroke-width="1.5"/>
      <path d="M43.25 9.7 L43.25 9.75 M22.25 0.25 Q24.6 2.7 29.75 5.4 35.45 8.35 39.1 9.25 42.7 10.15 43.25 9.7 M21.85 0.0 L22.15 0.2 22.25 0.25 M21.4 0.0 L21.1 0.2 21.0 0.25 Q18.65 2.7 13.5 5.4 7.8 8.35 4.15 9.25 L0.0 9.7 0.0 9.75 M21.6 45.15 L21.1 44.95 Q15.75 41.1 11.8 34.55 6.3 25.45 4.45 13.5 L4.45 13.45 Q4.7 13.65 5.7 13.45 L8.05 12.85 Q11.2 11.9 16.0 9.0 19.2 7.15 21.1 5.45 L21.6 5.15 M21.85 5.15 L22.15 5.45 Q24.05 7.15 27.25 9.0 32.05 11.9 35.2 12.85 L37.55 13.45 Q38.55 13.65 38.8 13.45 L38.8 13.5 Q36.95 25.45 31.45 34.55 27.5 41.1 22.15 44.95 L21.85 45.15 M21.6 42.9 L21.1 42.7 Q16.35 38.95 12.8 33.05 7.65 24.5 5.7 13.45 M37.55 13.45 Q35.6 24.5 30.45 33.05 26.9 38.95 22.15 42.7 L21.85 42.9" fill="none" stroke="#3a3a3a" stroke-linecap="round" stroke-linejoin="round" stroke-width="1.0"/>
      <path d="M21.6 49.75 L21.6 45.15 21.6 42.9 M21.6 5.15 L21.6 0.2" fill="none" stroke="#3a3a3a" stroke-linecap="round" stroke-linejoin="round" stroke-width="0.5"/>
    </g>
    <linearGradient gradientTransform="matrix(0.0, -0.0228, 0.0231, 0.0, 21.75, 24.35)" gradientUnits="userSpaceOnUse" id="gradient0" spreadMethod="pad" x1="-819.2" x2="819.2">
      <stop offset="0.0" stop-color="#00cccc"/>
      <stop offset="1.0" stop-color="#009595"/>
    </linearGradient>
    <linearGradient gradientTransform="matrix(0.0, 0.0, 0.0, 0.0, 0.0, 0.0)" gradientUnits="userSpaceOnUse" id="gradient1" spreadMethod="pad" x1="-819.2" x2="819.2">
      <stop offset="0.0" stop-color="#f0fbfb" stop-opacity="0.7490196"/>
      <stop offset="1.0" stop-color="#d6d6d6" stop-opacity="0.0"/>
    </linearGradient>
    <linearGradient gradientTransform="matrix(-0.0028, -0.0048, 0.0113, -0.0066, 21.4, 16.85)" gradientUnits="userSpaceOnUse" id="gradient2" spreadMethod="pad" x1="-819.2" x2="819.2">
      <stop offset="0.0" stop-color="#66d0d0" stop-opacity="0.6"/>
      <stop offset="1.0" stop-color="#d6d6d6" stop-opacity="0.0"/>
    </linearGradient>
    <linearGradient gradientTransform="matrix(0.0042, -0.0016, 0.0046, 0.0123, 16.4, 29.85)" gradientUnits="userSpaceOnUse" id="gradient3" spreadMethod="pad" x1="-819.2" x2="819.2">
      <stop offset="0.0" stop-color="#f0fbfb" stop-opacity="0.7490196"/>
      <stop offset="1.0" stop-color="#d6d6d6" stop-opacity="0.0"/>
    </linearGradient>
    <g id="text0" transform="matrix(1.0, 0.0, 0.0, 1.0, 2.0, 2.0)">
      <g transform="matrix(1.0, 0.0, 0.0, 1.0, -2.0, -2.0)">
        <use fill="#eee2bc" height="25.2" transform="matrix(0.0176, 0.0, 0.0, 0.0176, 3.7, 17.35)" width="18.45" xlink:href="#font_HelveticaRounded_LT_Std_Bd_60"/>
      </g>
    </g>
    <g id="font_HelveticaRounded_LT_Std_Bd_60">
      <path d="M198.5 -230.5 Q199.5 -170.5 231.0 -137.0 262.5 -103.5 318.5 -103.0 374.5 -103.5 406.0 -137.0 437.0 -170.5 437.5 -230.5 436.5 -295.5 403.5 -326.0 370.5 -357.0 318.5 -356.5 267.5 -356.0 233.5 -324.0 200.0 -291.5 198.5 -230.5 M189.5 -420.0 L189.5 -401.5 Q222.0 -433.0 260.0 -450.0 298.5 -467.0 349.5 -467.0 426.5 -466.0 479.5 -436.0 532.0 -405.5 559.5 -354.5 587.0 -303.5 587.0 -240.5 586.0 -156.0 551.5 -99.5 516.5 -43.0 457.0 -15.0 397.5 13.5 321.5 13.5 240.5 13.0 186.0 -15.5 131.5 -43.5 99.5 -91.0 67.5 -138.5 53.5 -197.5 39.5 -256.0 40.0 -317.5 40.5 -468.5 77.5 -559.0 115.0 -649.5 183.5 -689.5 252.5 -729.5 348.5 -728.5 409.5 -728.0 455.5 -708.0 501.5 -688.5 527.0 -658.5 553.0 -628.5 553.0 -596.5 552.5 -568.0 534.5 -549.0 516.0 -530.5 488.5 -529.5 464.0 -530.5 448.0 -543.5 432.0 -556.5 417.5 -574.0 403.5 -591.0 384.5 -604.0 365.5 -617.5 335.0 -618.0 282.0 -617.0 250.0 -587.5 218.0 -558.5 203.5 -513.0 189.0 -468.0 189.5 -420.0" fill-rule="evenodd" stroke="none"/>
    </g>
  </defs>
</svg>
