<?xml version="1.0" encoding="UTF-8" standalone="no"?>
<svg xmlns:ffdec="https://www.free-decompiler.com/flash" xmlns:xlink="http://www.w3.org/1999/xlink" ffdec:objectType="frame" height="404.95px" width="576.85px" xmlns="http://www.w3.org/2000/svg">
  <g transform="matrix(1.0, 0.0, 0.0, 1.0, 220.55, 324.4)">
    <use ffdec:characterId="578" height="55.2" transform="matrix(7.0, 0.0, 0.0, 7.0, -217.7, -314.1)" width="82.0" xlink:href="#shape0"/>
  </g>
  <defs>
    <g id="shape0" transform="matrix(1.0, 0.0, 0.0, 1.0, 40.65, 47.15)">
      <path d="M37.55 -38.7 L37.6 -38.75 Q37.75 -38.7 37.95 -38.4 38.15 -38.1 38.2 -37.95 37.9 -38.1 37.8 -38.25 37.7 -38.4 37.55 -38.65 L37.55 -38.7 M36.8 -36.95 L37.0 -36.75 37.0 -36.7 36.8 -36.65 Q36.2 -36.65 36.2 -36.95 L36.25 -37.15 36.25 -37.3 Q36.45 -37.3 36.5 -37.25 L36.6 -37.1 36.8 -36.95 M40.2 -28.3 L40.4 -28.45 Q40.6 -28.6 40.7 -28.65 L40.6 -28.4 Q40.45 -28.25 40.3 -28.15 L40.1 -28.25 40.2 -28.3 M40.75 -32.75 L40.75 -32.85 Q41.2 -32.8 41.2 -32.3 L41.15 -32.1 41.15 -32.0 41.1 -31.95 41.1 -31.9 Q41.05 -31.95 40.9 -32.25 40.8 -32.5 40.7 -32.7 L40.75 -32.75 M16.35 -46.5 Q16.1 -46.5 16.05 -46.55 L16.0 -46.6 Q16.0 -46.65 16.05 -46.75 16.35 -46.95 16.75 -46.9 L16.85 -46.85 16.95 -46.75 Q16.9 -46.75 16.7 -46.65 16.45 -46.55 16.45 -46.5 L16.35 -46.5 M5.65 -45.1 L5.65 -45.25 6.1 -45.3 6.15 -45.2 Q5.9 -44.95 5.7 -44.9 5.65 -45.0 5.65 -45.1 M7.7 -32.05 L7.9 -31.8 Q7.9 -31.7 7.8 -31.65 7.45 -31.7 7.45 -31.8 7.4 -31.9 7.45 -32.1 7.6 -32.1 7.7 -32.05 M0.65 -11.3 Q0.7 -11.3 0.8 -11.35 L1.0 -11.3 1.05 -11.2 0.85 -10.6 Q0.7 -10.7 0.65 -10.75 0.6 -10.85 0.6 -11.05 0.6 -11.2 0.65 -11.3 M6.85 -0.7 L6.7 -0.75 6.7 -1.1 Q7.1 -1.2 7.3 -1.0 L7.2 -0.8 6.85 -0.7 M39.0 -26.65 L39.0 -26.55 Q38.85 -26.6 38.6 -26.95 38.3 -27.3 38.3 -27.45 38.3 -27.7 38.35 -27.65 38.7 -27.6 38.9 -27.3 39.0 -27.05 39.0 -26.85 L39.0 -26.65 M37.25 -25.35 L37.4 -25.35 Q37.5 -25.2 37.5 -24.9 L37.5 -24.8 37.25 -24.8 37.25 -25.35 M40.45 -20.9 Q40.6 -20.75 40.6 -20.5 L40.55 -20.25 40.5 -20.15 Q40.25 -20.65 39.9 -21.0 40.25 -21.1 40.45 -20.9 M40.35 -17.85 L40.4 -17.9 40.5 -17.8 40.55 -17.7 Q40.6 -17.6 40.6 -17.45 L40.55 -17.15 40.5 -16.95 Q40.25 -17.35 40.25 -17.7 L40.25 -17.85 40.35 -17.85 M38.65 -14.2 L38.8 -14.15 38.85 -14.0 Q38.55 -13.5 38.2 -13.15 L38.2 -13.2 Q38.15 -13.2 38.15 -13.35 38.15 -13.5 38.3 -13.8 38.4 -14.15 38.55 -14.25 L38.65 -14.2 M26.45 -9.2 L26.2 -8.85 25.85 -8.45 25.8 -8.5 Q25.75 -8.5 25.75 -8.65 25.75 -8.95 25.9 -9.2 26.1 -9.5 26.45 -9.2 M25.15 -5.95 L25.1 -5.95 25.05 -6.0 Q24.95 -6.15 24.95 -6.3 L24.9 -6.45 Q24.9 -6.7 24.95 -6.85 L25.0 -6.85 25.1 -6.85 25.2 -6.65 25.2 -6.15 25.15 -5.95 M38.9 -7.55 L38.8 -7.55 38.8 -7.65 Q38.8 -7.95 38.6 -8.3 L38.55 -8.4 38.6 -8.45 38.7 -8.4 38.85 -8.25 Q38.95 -8.1 38.95 -8.05 L38.95 -7.75 38.9 -7.55 M39.15 -6.25 Q39.2 -6.2 39.2 -6.05 L39.2 -5.95 Q39.1 -5.75 38.75 -5.45 L38.5 -5.45 Q38.55 -5.7 38.75 -5.95 38.85 -6.15 38.95 -6.25 L39.15 -6.25 M17.45 7.1 L17.5 7.1 Q17.35 7.3 17.25 7.55 L17.2 7.55 17.1 7.55 Q17.1 7.65 17.1 7.4 17.1 7.2 17.2 7.15 17.3 7.05 17.45 7.1 M16.25 0.9 Q16.5 0.75 16.85 0.8 16.85 1.1 16.6 1.2 L16.2 1.4 16.05 1.4 Q16.0 1.35 16.0 1.2 16.0 1.0 16.25 0.9 M21.35 8.0 L21.25 8.05 20.85 8.05 Q20.8 8.0 20.8 7.9 L20.8 7.75 21.05 7.75 Q21.2 7.75 21.35 7.85 L21.35 8.0 M5.95 4.35 L6.15 4.35 6.3 4.6 Q6.25 4.7 6.15 4.75 5.95 4.7 5.95 4.55 L5.95 4.35 M10.65 6.5 Q10.5 6.5 10.25 6.3 L10.05 6.05 10.5 6.05 Q10.65 6.15 10.7 6.4 L10.65 6.5 M-25.45 -17.9 L-25.3 -17.65 -25.15 -17.45 -25.3 -17.3 -25.6 -17.5 Q-25.65 -17.55 -25.65 -17.65 -25.65 -17.8 -25.6 -17.85 L-25.45 -17.9 M-25.8 -20.65 L-26.3 -20.55 -26.45 -20.6 Q-26.5 -20.65 -26.5 -20.8 -26.5 -21.05 -26.25 -21.05 -26.05 -21.05 -25.8 -20.95 L-25.75 -20.8 -25.8 -20.65 M-35.1 -24.15 L-35.0 -24.2 -34.8 -24.15 Q-34.75 -24.1 -34.75 -24.0 L-34.7 -24.0 -34.85 -23.95 -35.05 -23.95 -35.1 -24.05 -35.1 -24.15 M-38.8 -16.35 L-38.8 -16.25 -38.9 -16.25 -38.95 -16.3 -38.95 -16.5 Q-38.95 -16.7 -38.85 -16.95 -38.7 -17.2 -38.55 -17.25 L-38.45 -17.1 Q-38.8 -16.65 -38.8 -16.35 M-36.95 -15.25 Q-36.9 -15.3 -36.9 -15.1 -36.9 -14.8 -37.45 -14.75 L-37.5 -14.8 -37.5 -14.95 Q-37.5 -15.1 -37.4 -15.2 -37.2 -15.3 -36.95 -15.25 M-40.15 -10.9 L-40.2 -10.75 Q-40.5 -11.0 -40.5 -11.1 -40.5 -11.3 -40.4 -11.4 -40.35 -11.55 -40.25 -11.55 -40.25 -11.1 -40.15 -10.9 M-30.1 -5.55 L-30.2 -5.65 Q-30.25 -5.75 -30.25 -5.9 -30.25 -6.2 -30.05 -6.2 L-29.95 -6.05 Q-29.9 -5.9 -29.9 -5.7 L-29.95 -5.65 -30.1 -5.55 M-29.8 -0.9 L-29.75 -0.95 Q-29.65 -0.9 -29.55 -0.65 L-29.4 -0.3 -29.45 -0.2 Q-29.85 -0.5 -29.85 -0.65 L-29.8 -0.9 M-19.65 -3.35 L-19.6 -3.3 Q-19.65 -3.2 -19.8 -3.1 L-19.9 -3.15 Q-20.0 -3.15 -20.05 -3.2 L-20.05 -3.4 Q-19.95 -3.5 -19.65 -3.35 M-15.8 7.5 L-15.9 7.5 Q-16.35 7.25 -16.35 6.9 L-16.35 6.75 Q-16.3 6.55 -16.15 6.45 -16.0 6.6 -15.9 6.9 -15.8 7.15 -15.8 7.3 L-15.8 7.5 M-22.05 1.5 L-22.05 1.4 -21.8 1.4 Q-21.7 1.4 -21.7 1.55 -21.7 1.65 -21.6 1.7 L-21.05 1.85 Q-21.05 1.9 -21.1 2.0 -21.2 2.1 -21.4 2.1 -21.75 2.1 -21.95 1.95 -22.1 1.8 -22.1 1.7 L-22.05 1.5 M-30.5 2.35 Q-30.35 2.6 -30.4 2.8 L-30.4 2.85 -30.75 2.6 Q-30.95 2.45 -30.95 2.35 L-30.95 2.1 -30.9 1.95 -30.7 1.95 Q-30.6 2.1 -30.5 2.35" fill="#ffff93" fill-opacity="0.6" fill-rule="evenodd" stroke="none"/>
      <path d="M36.6 -37.1 L36.5 -37.25 Q36.45 -37.3 36.25 -37.3 L36.25 -37.15 36.2 -36.95 Q36.2 -36.65 36.8 -36.65 L37.0 -36.7 37.0 -36.75 36.8 -36.95 37.15 -36.95 37.15 -36.8 Q37.15 -36.7 37.05 -36.6 36.95 -36.45 36.8 -36.45 36.25 -36.45 36.1 -36.85 36.0 -37.1 36.0 -37.35 L36.05 -37.6 Q36.35 -37.7 36.55 -37.25 L36.6 -37.1 M37.55 -38.7 L37.55 -38.65 Q37.7 -38.4 37.8 -38.25 37.9 -38.1 38.2 -37.95 38.15 -38.1 37.95 -38.4 37.75 -38.7 37.6 -38.75 L37.55 -38.7 M37.8 -38.25 L37.45 -38.8 Q37.7 -39.2 38.1 -38.9 38.45 -38.65 38.45 -38.25 L38.4 -37.85 38.4 -37.8 Q38.4 -37.75 38.3 -37.75 L38.1 -37.75 37.95 -37.85 Q37.95 -38.0 37.8 -38.25 M40.6 -28.4 L40.7 -28.65 Q40.6 -28.6 40.4 -28.45 L40.2 -28.3 40.0 -28.5 Q40.0 -28.65 40.2 -28.75 40.4 -28.9 40.7 -28.9 L40.7 -28.95 40.75 -28.8 Q40.75 -28.6 40.7 -28.5 L40.6 -28.4 M41.15 -32.0 L41.15 -32.1 41.2 -32.3 Q41.2 -32.8 40.75 -32.85 L40.75 -32.75 40.6 -33.1 Q40.95 -33.2 41.15 -32.85 41.35 -32.6 41.35 -32.45 41.35 -32.25 41.2 -31.95 L41.15 -32.0 M16.05 -46.55 L15.9 -46.55 15.85 -46.6 Q15.85 -46.65 15.85 -46.75 15.85 -47.05 16.4 -47.15 17.0 -47.2 17.0 -46.8 17.0 -46.6 16.9 -46.5 16.85 -46.4 16.7 -46.4 16.65 -46.4 16.5 -46.45 L16.35 -46.5 16.45 -46.5 Q16.45 -46.55 16.7 -46.65 16.9 -46.75 16.95 -46.75 L16.85 -46.85 16.75 -46.9 Q16.35 -46.95 16.05 -46.75 16.0 -46.65 16.0 -46.6 L16.05 -46.55 M5.65 -45.1 Q5.65 -45.0 5.7 -44.9 5.9 -44.95 6.15 -45.2 L6.1 -45.3 5.65 -45.25 5.65 -45.1 M5.4 -45.0 L5.4 -45.15 Q5.4 -45.65 5.85 -45.6 6.3 -45.55 6.3 -45.25 6.3 -44.9 5.8 -44.9 5.6 -44.9 5.4 -44.95 L5.4 -45.0 M7.6 -32.4 Q8.0 -32.15 8.0 -31.75 8.0 -31.65 7.95 -31.6 7.9 -31.45 7.75 -31.45 7.55 -31.45 7.35 -31.8 7.2 -32.1 7.2 -32.2 7.2 -32.65 7.6 -32.4 M0.65 -11.3 Q0.6 -11.2 0.6 -11.05 0.6 -10.85 0.65 -10.75 0.7 -10.7 0.85 -10.6 L1.05 -11.2 1.0 -11.3 0.8 -11.35 Q0.7 -11.3 0.65 -11.3 M7.7 -32.05 Q7.6 -32.1 7.45 -32.1 7.4 -31.9 7.45 -31.8 7.45 -31.7 7.8 -31.65 7.9 -31.7 7.9 -31.8 L7.7 -32.05 M0.4 -11.15 Q0.4 -11.5 0.75 -11.5 1.1 -11.5 1.1 -11.1 1.1 -10.9 1.0 -10.7 0.9 -10.5 0.7 -10.5 0.55 -10.5 0.5 -10.55 L0.45 -10.8 0.4 -11.15 M6.85 -0.7 L7.2 -0.8 7.3 -1.0 Q7.1 -1.2 6.7 -1.1 L6.7 -0.75 6.85 -0.7 M6.4 -0.8 Q6.35 -0.9 6.35 -1.05 6.35 -1.4 6.85 -1.3 L7.6 -1.15 Q7.7 -1.25 7.7 -1.1 L7.65 -0.95 Q7.55 -0.8 7.35 -0.65 L6.75 -0.65 Q6.45 -0.65 6.4 -0.8 M39.15 -26.6 Q39.1 -26.4 38.9 -26.4 38.8 -26.4 38.55 -26.85 38.3 -27.35 38.25 -27.65 38.7 -27.75 38.95 -27.5 39.15 -27.25 39.15 -26.9 L39.15 -26.6 M37.25 -25.35 L37.25 -24.8 37.5 -24.8 37.5 -24.9 Q37.5 -25.2 37.4 -25.35 L37.25 -25.35 M39.0 -26.65 L39.0 -26.85 Q39.0 -27.05 38.9 -27.3 38.7 -27.6 38.35 -27.65 38.3 -27.7 38.3 -27.45 38.3 -27.3 38.6 -26.95 38.85 -26.6 39.0 -26.55 L39.0 -26.65 M37.2 -25.5 L37.3 -25.55 Q37.7 -25.25 37.65 -24.85 L37.6 -24.75 Q37.55 -24.7 37.45 -24.7 37.25 -24.7 37.15 -25.0 37.15 -25.15 37.15 -25.35 37.15 -25.45 37.2 -25.5 M40.45 -20.9 Q40.25 -21.1 39.9 -21.0 40.25 -20.65 40.5 -20.15 L40.55 -20.25 40.6 -20.5 Q40.6 -20.75 40.45 -20.9 M39.85 -21.05 Q39.85 -21.45 40.3 -21.2 40.75 -20.9 40.75 -20.5 40.75 -20.2 40.55 -20.0 40.3 -20.1 40.05 -20.55 39.85 -20.9 39.85 -21.05 M40.5 -17.8 L40.65 -17.65 Q40.7 -17.55 40.7 -17.15 40.7 -16.95 40.65 -16.75 40.55 -16.4 40.4 -16.4 L40.2 -16.45 40.1 -16.5 40.05 -16.7 Q40.05 -16.8 40.15 -16.95 40.25 -17.1 40.25 -17.15 L40.15 -17.5 Q40.0 -17.7 40.0 -17.8 L40.05 -17.9 40.05 -17.95 40.35 -17.85 40.25 -17.85 40.25 -17.7 Q40.25 -17.35 40.5 -16.95 L40.55 -17.15 40.6 -17.45 Q40.6 -17.6 40.55 -17.7 L40.5 -17.8 M26.45 -9.2 Q26.1 -9.5 25.9 -9.2 25.75 -8.95 25.75 -8.65 25.75 -8.5 25.8 -8.5 L25.85 -8.45 26.2 -8.85 26.45 -9.2 26.25 -8.8 Q26.05 -8.4 25.8 -8.4 L25.6 -8.45 25.5 -8.45 25.5 -8.5 Q25.45 -8.55 25.45 -8.65 25.45 -9.0 26.0 -9.5 26.5 -10.0 26.5 -9.35 L26.45 -9.2 M38.65 -14.2 L38.55 -14.25 Q38.4 -14.15 38.3 -13.8 38.15 -13.5 38.15 -13.35 38.15 -13.2 38.2 -13.2 L38.2 -13.15 Q38.55 -13.5 38.85 -14.0 L38.8 -14.15 38.65 -14.2 M25.0 -6.85 L25.0 -7.05 Q25.45 -7.2 25.55 -6.95 L25.6 -6.6 25.6 -6.3 Q25.5 -6.15 25.2 -5.9 L25.15 -5.95 25.2 -6.15 25.2 -6.65 25.1 -6.85 25.0 -6.85 M25.05 -6.0 Q24.9 -6.1 24.9 -6.15 L24.95 -6.3 Q24.95 -6.15 25.05 -6.0 M38.05 -13.75 Q38.25 -14.05 38.5 -14.3 39.1 -14.9 39.1 -14.0 39.1 -13.8 38.9 -13.5 38.6 -13.05 38.15 -13.05 L37.95 -13.1 37.9 -13.15 37.9 -13.2 37.85 -13.3 Q37.85 -13.4 38.05 -13.75 M38.7 -8.4 L38.7 -8.6 Q39.1 -8.55 39.25 -8.3 39.35 -8.1 39.35 -7.95 L39.3 -7.7 Q39.25 -7.55 39.05 -7.55 L39.0 -7.45 38.9 -7.55 38.95 -7.75 38.95 -8.05 Q38.95 -8.1 38.85 -8.25 L38.7 -8.4 M38.8 -7.65 L38.7 -7.8 Q38.55 -8.05 38.55 -8.15 38.55 -8.25 38.6 -8.3 38.8 -7.95 38.8 -7.65 M39.2 -5.95 Q39.2 -5.65 39.15 -5.6 39.05 -5.35 38.5 -5.05 L38.25 -5.3 Q38.25 -5.45 38.45 -5.6 38.65 -5.8 38.65 -6.0 38.7 -6.25 38.75 -6.35 38.8 -6.5 39.0 -6.65 L39.15 -6.25 38.95 -6.25 Q38.85 -6.15 38.75 -5.95 38.55 -5.7 38.5 -5.45 L38.75 -5.45 Q39.1 -5.75 39.2 -5.95 M17.2 7.55 L16.95 7.75 16.8 7.6 16.75 7.5 Q16.75 7.3 17.0 7.0 17.25 6.7 17.5 6.7 L17.55 6.7 17.55 6.8 Q17.55 6.9 17.45 7.1 17.3 7.05 17.2 7.15 17.1 7.2 17.1 7.4 17.1 7.65 17.1 7.55 L17.2 7.55 M15.95 1.45 Q15.85 1.35 15.85 1.25 15.85 0.8 16.4 0.55 16.95 0.3 16.95 0.85 16.95 1.05 16.8 1.3 16.55 1.6 16.25 1.6 16.05 1.6 15.95 1.45 M16.25 0.9 Q16.0 1.0 16.0 1.2 16.0 1.35 16.05 1.4 L16.2 1.4 16.6 1.2 Q16.85 1.1 16.85 0.8 16.5 0.75 16.25 0.9 M20.85 8.05 L20.5 8.0 20.4 7.85 20.4 7.6 20.95 7.55 Q21.45 7.55 21.65 7.65 21.6 7.85 21.5 7.9 L21.35 8.0 21.35 7.85 Q21.2 7.75 21.05 7.75 L20.8 7.75 20.8 7.9 Q20.8 8.0 20.85 8.05 M5.85 4.7 Q5.6 4.55 5.6 4.4 5.6 3.95 6.1 4.2 L6.95 4.7 Q6.8 4.95 6.55 4.95 6.15 4.95 5.85 4.7 M5.95 4.35 L5.95 4.55 Q5.95 4.7 6.15 4.75 6.25 4.7 6.3 4.6 L6.15 4.35 5.95 4.35 M10.0 6.05 Q10.0 5.6 10.5 5.7 10.95 5.8 10.95 6.15 10.95 6.6 10.7 6.6 10.25 6.6 10.1 6.35 L10.0 6.05 M10.65 6.5 L10.7 6.4 Q10.65 6.15 10.5 6.05 L10.05 6.05 10.25 6.3 Q10.5 6.5 10.65 6.5 M-34.7 -23.8 Q-34.8 -23.75 -34.95 -23.75 L-35.25 -23.8 -35.3 -23.85 -35.3 -24.0 Q-35.3 -24.25 -34.9 -24.3 -34.55 -24.35 -34.55 -24.05 -34.55 -23.9 -34.7 -23.8 M-25.8 -20.65 L-25.75 -20.8 -25.8 -20.95 Q-26.05 -21.05 -26.25 -21.05 -26.5 -21.05 -26.5 -20.8 -26.5 -20.65 -26.45 -20.6 L-26.3 -20.55 -25.8 -20.65 M-25.45 -17.9 L-25.6 -17.85 Q-25.65 -17.8 -25.65 -17.65 -25.65 -17.55 -25.6 -17.5 L-25.3 -17.3 -25.15 -17.45 -25.3 -17.65 -25.45 -17.9 M-25.8 -20.6 Q-26.1 -20.4 -26.25 -20.4 -26.6 -20.4 -26.75 -20.6 -26.85 -20.7 -26.85 -20.8 -26.85 -21.35 -26.2 -21.35 -25.55 -21.35 -25.55 -20.9 -25.55 -20.8 -25.8 -20.6 M-25.55 -18.1 Q-25.1 -17.95 -25.1 -17.45 L-25.1 -17.25 Q-25.15 -17.2 -25.25 -17.2 -25.6 -17.2 -25.8 -17.5 -25.95 -17.75 -25.95 -17.9 -25.95 -18.25 -25.55 -18.1 M-35.1 -24.15 L-35.1 -24.05 -35.05 -23.95 -34.85 -23.95 -34.7 -24.0 -34.75 -24.0 Q-34.75 -24.1 -34.8 -24.15 L-35.0 -24.2 -35.1 -24.15 M-38.95 -16.3 L-39.0 -16.25 Q-39.2 -16.45 -39.2 -16.5 -39.2 -16.7 -38.8 -17.3 -38.35 -17.9 -38.35 -17.1 -38.35 -16.85 -38.45 -16.65 -38.55 -16.45 -38.8 -16.35 -38.8 -16.65 -38.45 -17.1 L-38.55 -17.25 Q-38.7 -17.2 -38.85 -16.95 -38.95 -16.7 -38.95 -16.5 L-38.95 -16.3 M-37.8 -14.9 Q-37.8 -15.45 -37.3 -15.45 -37.1 -15.45 -36.95 -15.35 -36.8 -15.25 -36.8 -15.15 -36.8 -15.0 -36.95 -14.75 -37.15 -14.45 -37.35 -14.45 -37.7 -14.45 -37.8 -14.65 -37.8 -14.75 -37.8 -14.9 M-40.15 -10.9 Q-40.25 -11.1 -40.25 -11.55 -40.35 -11.55 -40.4 -11.4 -40.5 -11.3 -40.5 -11.1 -40.5 -11.0 -40.2 -10.75 L-40.15 -10.9 M-36.95 -15.25 Q-37.2 -15.3 -37.4 -15.2 -37.5 -15.1 -37.5 -14.95 L-37.5 -14.8 -37.45 -14.75 Q-36.9 -14.8 -36.9 -15.1 -36.9 -15.3 -36.95 -15.25 M-40.1 -10.9 Q-40.2 -10.7 -40.25 -10.7 -40.4 -10.7 -40.6 -10.8 L-40.65 -11.4 Q-40.65 -11.7 -40.3 -11.65 -40.0 -11.55 -40.0 -11.15 -40.0 -11.1 -40.1 -10.9 M-30.1 -5.55 L-30.2 -5.55 Q-30.4 -5.55 -30.55 -5.65 -30.55 -6.2 -30.25 -6.55 -29.95 -6.85 -29.95 -6.1 L-29.95 -6.05 -30.05 -6.2 Q-30.25 -6.2 -30.25 -5.9 -30.25 -5.75 -30.2 -5.65 L-30.1 -5.55 M-29.8 -0.9 L-29.85 -0.65 Q-29.85 -0.5 -29.45 -0.2 L-29.4 -0.3 -29.55 -0.65 Q-29.65 -0.9 -29.75 -0.95 L-29.8 -0.9 M-29.85 -0.75 Q-29.85 -1.25 -29.55 -1.25 -29.2 -1.25 -29.2 -0.65 -29.2 -0.45 -29.25 -0.25 L-29.3 -0.2 Q-29.4 -0.15 -29.5 -0.15 -29.8 -0.15 -29.85 -0.45 -29.9 -0.6 -29.85 -0.75 M-19.65 -3.35 Q-19.95 -3.5 -20.05 -3.4 L-20.05 -3.2 Q-20.0 -3.15 -19.9 -3.15 L-19.8 -3.1 Q-19.65 -3.2 -19.6 -3.3 L-19.65 -3.35 M-20.2 -3.1 L-20.3 -3.25 Q-20.3 -3.8 -19.9 -3.8 -19.5 -3.85 -19.5 -3.5 -19.5 -3.35 -19.6 -3.2 -19.75 -2.95 -19.9 -2.95 -20.05 -2.95 -20.2 -3.1 M-15.8 7.3 Q-15.8 7.15 -15.9 6.9 -16.0 6.6 -16.15 6.45 -16.3 6.55 -16.35 6.75 L-16.35 6.9 Q-16.35 7.25 -15.9 7.5 L-15.8 7.5 -15.8 7.85 -15.85 7.85 Q-15.85 7.9 -15.9 7.9 -16.0 7.85 -16.25 7.4 -16.5 7.0 -16.5 6.85 -16.5 6.2 -16.15 6.25 -15.75 6.25 -15.75 6.75 L-15.8 7.25 -15.8 7.3 M-22.05 1.5 L-22.1 1.7 Q-22.1 1.8 -21.95 1.95 -21.75 2.1 -21.4 2.1 -21.2 2.1 -21.1 2.0 -21.05 1.9 -21.05 1.85 L-21.6 1.7 Q-21.7 1.65 -21.7 1.55 -21.7 1.4 -21.8 1.4 L-22.05 1.4 -22.05 1.5 M-20.85 2.2 Q-20.95 2.3 -21.2 2.3 -21.75 2.3 -22.05 1.95 -22.2 1.75 -22.25 1.55 -22.25 1.1 -21.5 1.25 -20.8 1.35 -20.8 1.9 -20.8 2.1 -20.85 2.2 M-30.5 2.35 Q-30.6 2.1 -30.7 1.95 L-30.9 1.95 -30.95 2.1 -30.95 2.35 Q-30.95 2.45 -30.75 2.6 L-30.4 2.85 -30.4 2.8 Q-30.35 2.6 -30.5 2.35 M-30.5 1.8 Q-29.95 2.0 -29.95 2.6 -29.95 3.15 -30.25 3.15 -30.55 3.15 -30.8 2.7 -31.05 2.3 -31.05 2.2 -31.05 1.95 -30.85 1.85 L-30.5 1.8" fill="#ffdc45" fill-opacity="0.6" fill-rule="evenodd" stroke="none"/>
    </g>
  </defs>
</svg>
