<?xml version="1.0" encoding="UTF-8" standalone="no"?>
<svg xmlns:ffdec="https://www.free-decompiler.com/flash" xmlns:xlink="http://www.w3.org/1999/xlink" ffdec:objectType="frame" height="965.0px" width="2545.0px" xmlns="http://www.w3.org/2000/svg">
  <g transform="matrix(1.0, 0.0, 0.0, 1.0, -97.5, 1522.5)">
    <use ffdec:characterId="1169" height="965.0" transform="matrix(1.0, 0.0, 0.0, 1.0, 97.5, -1522.5)" width="2545.0" xlink:href="#shape0"/>
  </g>
  <defs>
    <g id="shape0" transform="matrix(1.0, 0.0, 0.0, 1.0, -97.5, 1522.5)">
      <path d="M2480.0 -1040.05 L2560.0 -1040.0 2640.0 -1080.0 2639.95 -1280.05 2559.95 -1280.05 2559.95 -1420.05 M2419.9 -1420.05 L2419.9 -1280.05 2319.9 -1280.05 2319.9 -1200.05 2279.9 -1140.05 2279.9 -1080.05 2359.9 -1040.05 2480.0 -1040.05 M2480.0 -800.0 L280.0 -800.0" fill="none" stroke="#00ffff" stroke-linecap="round" stroke-linejoin="round" stroke-width="5.0"/>
      <path d="M2480.0 -1040.05 L2480.0 -1420.0 M2480.0 -800.0 L2480.0 -1040.05 M100.0 -560.0 L100.0 -640.0 100.0 -1520.0 M2480.0 -800.0 L2480.0 -640.0 2480.0 -560.0" fill="none" stroke="#ffff00" stroke-linecap="round" stroke-linejoin="round" stroke-width="5.0"/>
      <path d="M100.0 -640.0 L2480.0 -640.0" fill="none" stroke="#666666" stroke-linecap="round" stroke-linejoin="round" stroke-width="5.0"/>
    </g>
  </defs>
</svg>
