<?xml version="1.0" encoding="UTF-8" standalone="no"?>
<svg xmlns:ffdec="https://www.free-decompiler.com/flash" xmlns:xlink="http://www.w3.org/1999/xlink" ffdec:objectType="frame" height="210.7px" width="224.0px" xmlns="http://www.w3.org/2000/svg">
  <g transform="matrix(1.0, 0.0, 0.0, 1.0, 147.0, 229.6)">
    <use ffdec:characterId="56" height="30.1" transform="matrix(7.0, 0.0, 0.0, 7.0, -147.0, -229.6)" width="32.0" xlink:href="#shape0"/>
  </g>
  <defs>
    <g id="shape0" transform="matrix(1.0, 0.0, 0.0, 1.0, 21.0, 32.8)">
      <path d="M-9.3 -19.95 L-9.4 -20.95 -9.4 -21.6 Q-9.2 -22.5 -8.75 -23.65 L-7.5 -25.7 Q-6.75 -26.6 -6.2 -27.1 L-6.15 -26.35 -6.0 -25.4 -5.9 -24.55 -5.75 -23.65 Q-5.4 -24.35 -4.4 -25.5 L-2.6 -27.3 -2.4 -27.45 -2.35 -27.45 -1.85 -27.2 -1.85 -26.4 Q-1.85 -25.05 -1.3 -24.05 L-0.25 -22.45 0.45 -21.4 2.7 -20.9 4.95 -17.75 5.1 -16.05 5.95 -14.4 9.15 -9.6 8.85 -8.15 8.6 -7.0 8.6 -6.8 8.8 -6.8 8.8 -6.85 8.85 -6.8 8.95 -6.8 9.0 -6.75 Q8.55 -5.25 6.6 -3.7 L5.25 -2.7 Q4.05 -2.75 3.35 -3.25 2.9 -3.55 2.1 -4.3 L1.3 -5.0 1.15 -5.15 Q0.35 -6.05 -0.25 -6.55 L-0.65 -6.65 Q-1.65 -6.9 -1.9 -6.9 L-2.25 -6.95 -2.65 -7.0 -3.1 -7.0 -3.2 -7.05 -3.35 -7.05 -4.3 -7.2 -3.7 -7.35 -2.3 -7.3 -1.1 -7.25 -1.2 -7.35 Q-2.45 -7.85 -4.15 -8.1 L-4.45 -8.1 -4.9 -8.15 -4.8 -8.15 Q-3.6 -8.15 -2.2 -7.85 L-1.05 -7.6 -0.4 -7.1 0.1 -6.7 0.15 -6.65 Q0.95 -5.8 1.95 -5.0 L2.4 -4.65 Q2.9 -4.2 3.3 -4.0 L3.5 -3.8 Q3.95 -3.45 4.5 -3.4 L4.5 -3.35 4.6 -3.3 5.15 -3.3 Q5.65 -3.4 6.15 -3.65 L6.45 -3.85 Q7.05 -4.3 7.15 -4.6 L7.5 -4.95 7.9 -5.6 7.7 -5.45 7.95 -5.85 8.0 -6.0 Q8.0 -6.1 7.95 -6.15 L8.1 -6.3 8.0 -6.3 7.8 -6.35 7.3 -6.35 Q5.0 -6.45 3.15 -7.35 2.45 -7.7 1.8 -8.2 L1.65 -8.25 Q1.1 -8.7 0.5 -9.2 L0.3 -9.4 -0.6 -10.25 -0.75 -10.4 -1.3 -10.85 -1.55 -11.0 -1.75 -11.2 -1.95 -11.35 Q-2.25 -11.55 -2.8 -11.7 L-3.0 -11.75 -3.55 -11.85 -3.95 -11.85 Q-4.2 -11.8 -4.55 -11.8 L-4.75 -11.85 -4.8 -11.85 Q-5.25 -12.05 -5.95 -12.8 L-6.05 -12.9 -6.4 -13.3 -6.65 -13.55 -6.6 -13.6 -6.9 -13.8 -6.9 -13.9 -7.3 -14.35 -7.35 -14.4 -7.45 -14.4 -7.5 -14.45 -7.75 -14.4 -7.9 -14.45 -7.95 -14.45 -8.25 -14.6 Q-8.7 -14.75 -8.95 -15.25 L-9.05 -15.5 Q-9.15 -15.8 -9.15 -15.95 L-9.1 -16.15 Q-8.9 -16.7 -8.4 -17.05 L-8.1 -17.25 Q-8.2 -17.45 -8.25 -17.8 L-8.3 -18.4 Q-8.5 -18.55 -8.8 -19.15 L-10.7 -18.1 -10.75 -17.65 -10.65 -17.25 -10.5 -16.3 -10.45 -16.0 -10.45 -15.3 -10.55 -15.2 -10.8 -15.45 -11.15 -15.75 -11.5 -15.95 -12.2 -16.3 -12.7 -16.5 -9.6 -8.5 -13.25 -16.9 -13.25 -17.1 -10.9 -16.1 -10.8 -16.15 -10.8 -16.35 Q-10.95 -17.7 -11.3 -18.55 L-9.35 -18.9 -9.25 -19.1 -9.25 -19.25 -9.25 -19.3 -9.3 -19.95 M-7.1 -6.85 Q-7.1 -6.8 -7.15 -6.8 L-7.2 -6.85 -7.1 -6.85 M3.05 -20.15 L2.75 -20.4 1.95 -20.85 1.85 -20.85 1.6 -20.9 Q1.3 -20.95 1.2 -20.65 L1.2 -20.45 Q2.55 -19.75 3.55 -18.45 L3.8 -18.45 3.8 -18.35 3.85 -18.3 Q3.75 -18.3 3.7 -18.2 L4.25 -17.35 4.55 -16.8 4.6 -16.7 4.8 -16.35 Q4.85 -16.4 4.9 -16.45 5.0 -16.5 5.0 -16.65 L4.85 -17.05 Q4.85 -17.6 4.3 -18.1 4.1 -18.25 3.95 -18.3 L3.85 -18.3 3.9 -18.45 3.95 -18.65 3.95 -18.8 3.9 -18.85 Q3.85 -19.15 3.55 -19.55 3.35 -19.85 3.05 -20.15 M8.25 -7.3 L7.6 -11.8 Q7.0 -12.2 6.35 -13.25 5.8 -13.85 5.5 -14.25 L5.25 -14.55 Q4.9 -15.15 4.75 -15.6 L4.75 -15.65 3.9 -17.05 3.4 -18.0 Q3.1 -18.5 2.85 -18.8 L1.8 -19.55 1.65 -19.7 1.5 -19.8 Q1.2 -20.0 1.0 -20.15 L0.8 -20.3 0.65 -20.4 0.4 -20.6 0.3 -20.65 0.25 -20.7 0.0 -20.7 -0.85 -20.9 -0.65 -20.95 -0.6 -20.9 -0.45 -20.9 -0.4 -20.95 Q-0.35 -20.95 -0.25 -21.0 -0.15 -21.05 -0.1 -21.2 -0.55 -21.7 -1.0 -22.6 -1.3 -22.8 -1.55 -22.8 L-1.85 -22.6 -1.9 -22.55 -2.05 -22.35 -2.25 -21.95 -2.2 -21.7 -2.2 -21.35 -1.55 -21.1 -3.3 -21.45 -4.4 -21.4 -4.0 -20.3 -4.65 -18.8 Q-5.05 -18.35 -5.45 -18.25 L-5.85 -18.35 -5.9 -18.35 Q-6.25 -18.5 -6.75 -19.05 -6.75 -18.95 -6.75 -18.9 L-6.7 -18.8 -6.65 -18.75 -6.55 -18.6 -6.6 -18.6 -6.4 -18.2 Q-6.3 -17.9 -6.35 -17.65 L-6.45 -17.35 -6.1 -17.2 Q-5.65 -16.85 -5.8 -16.3 -5.9 -15.7 -6.2 -15.3 L-6.35 -15.1 -6.45 -14.5 Q-6.55 -13.95 -6.35 -13.75 L-6.3 -13.7 -5.95 -13.3 -5.7 -13.0 -5.15 -12.5 Q-5.05 -12.45 -5.0 -12.45 L-4.95 -12.4 Q-5.0 -12.55 -4.95 -12.7 -4.75 -13.2 -4.25 -13.75 -3.65 -14.4 -3.2 -14.4 -2.65 -14.4 -2.4 -13.6 -2.15 -12.85 -2.3 -12.4 L-2.4 -12.3 -2.5 -12.15 -2.55 -12.1 Q-2.05 -11.9 -1.55 -11.5 -0.9 -11.05 0.15 -10.0 L0.95 -9.2 Q1.35 -8.8 1.65 -8.6 L1.7 -8.55 2.25 -9.35 2.3 -9.4 Q2.9 -10.25 3.15 -10.5 3.7 -11.05 3.85 -10.1 L3.85 -9.0 3.8 -8.8 3.75 -8.15 3.8 -8.2 4.05 -8.4 4.1 -8.4 Q4.35 -8.55 4.5 -8.5 4.6 -8.4 4.6 -8.15 L4.6 -8.05 Q4.6 -7.95 4.65 -7.6 L4.75 -7.25 Q5.7 -7.0 6.9 -6.85 L7.0 -6.8 Q7.5 -6.8 7.85 -6.8 L8.15 -6.85 8.25 -7.3 M-2.35 -20.1 L-1.2 -20.5 0.0 -20.3 1.05 -19.25 Q2.3 -18.45 3.1 -17.25 L3.45 -16.7 4.35 -14.95 4.8 -14.45 4.6 -14.6 4.45 -14.65 Q4.15 -14.85 3.95 -14.8 L4.1 -14.95 Q4.1 -15.05 4.05 -15.15 L3.75 -15.8 Q3.6 -16.1 3.5 -16.1 L3.4 -16.1 3.4 -16.25 3.0 -15.75 3.0 -15.7 Q2.9 -15.7 2.8 -15.6 L2.75 -15.6 2.9 -15.75 Q3.15 -16.1 3.3 -16.45 L3.3 -16.6 Q3.15 -17.0 2.95 -17.2 2.8 -17.5 2.55 -17.85 2.0 -18.75 1.2 -18.75 L1.15 -18.75 1.0 -18.9 0.8 -19.05 0.7 -19.1 0.7 -19.05 0.45 -18.6 0.5 -18.75 0.6 -18.85 0.7 -19.05 Q0.8 -19.8 -0.4 -20.15 -0.9 -20.35 -1.3 -20.35 -1.55 -20.3 -1.7 -20.2 L-1.9 -20.1 -2.25 -19.95 -2.5 -19.65 Q-2.75 -19.45 -2.85 -19.0 L-2.85 -18.9 Q-2.9 -18.7 -2.9 -18.5 L-2.9 -18.3 Q-2.85 -18.15 -2.8 -17.95 L-3.0 -18.1 -3.1 -18.25 -3.05 -18.35 -3.1 -18.35 -3.05 -18.55 -3.05 -18.8 -3.0 -18.8 -2.95 -19.1 -3.05 -19.15 -3.4 -18.7 -3.5 -18.6 -3.65 -18.35 -3.7 -18.3 -3.65 -18.3 -3.55 -18.3 Q-3.8 -18.3 -4.0 -18.1 L-4.05 -18.1 -4.4 -17.8 -2.6 -16.85 -2.4 -17.1 -2.4 -17.25 Q-2.55 -17.4 -2.65 -17.6 L-2.7 -17.65 -2.75 -17.85 Q-2.55 -17.45 -2.0 -17.3 L-0.7 -17.3 -0.6 -17.35 -0.45 -17.65 -0.15 -17.9 -0.1 -17.95 -0.15 -17.9 -0.3 -17.6 -0.5 -17.4 -0.4 -17.25 -0.45 -17.25 -0.25 -17.05 -0.25 -17.0 Q-0.1 -16.85 0.05 -16.7 L2.35 -15.35 Q2.45 -15.35 2.55 -15.35 L2.65 -14.7 2.3 -14.8 Q2.25 -14.85 2.3 -14.95 L2.05 -14.95 -0.5 -16.9 -1.2 -16.85 -1.35 -16.6 Q-1.55 -16.3 -1.45 -16.0 L-1.5 -15.95 -1.6 -15.9 -1.6 -16.15 -1.65 -16.4 Q-1.6 -16.65 -1.5 -16.9 L-1.95 -17.0 -2.1 -17.05 -2.2 -17.05 Q-2.3 -16.7 -2.65 -16.4 L-2.7 -16.35 Q-3.15 -16.05 -3.7 -16.2 -3.9 -16.2 -4.0 -16.3 -4.35 -16.45 -4.55 -16.9 -4.75 -17.35 -4.7 -17.6 L-2.35 -20.1 M0.0 -18.05 L0.15 -18.25 0.15 -18.05 0.1 -18.05 0.0 -18.0 0.0 -18.05 M3.7 -14.5 L3.7 -14.15 3.8 -13.7 4.05 -13.45 4.5 -13.25 4.7 -13.15 4.75 -13.1 4.8 -13.1 5.0 -13.15 5.0 -13.1 4.9 -13.0 5.2 -12.55 5.5 -12.5 5.55 -12.55 5.65 -12.9 5.15 -13.4 5.1 -13.4 Q5.25 -13.55 5.25 -13.75 L5.75 -12.35 Q5.7 -12.3 5.65 -12.3 L5.5 -12.3 5.05 -12.45 5.0 -12.55 4.95 -12.6 4.9 -12.6 4.9 -12.65 4.55 -12.95 3.6 -14.15 3.65 -14.5 3.7 -14.5 M5.25 -10.0 L5.1 -10.25 5.25 -10.0 M1.05 -13.9 L0.95 -13.75 0.9 -13.75 0.5 -13.65 Q0.05 -13.6 -0.5 -13.65 L-0.5 -13.7 -0.55 -13.7 0.05 -13.85 0.35 -13.9 Q0.65 -13.95 0.9 -14.0 L1.15 -14.1 1.05 -13.9 M-0.55 -14.05 L-0.8 -14.05 Q-1.15 -14.15 -1.4 -14.45 -1.6 -14.7 -1.6 -14.8 L-1.55 -14.9 -1.5 -14.9 -1.5 -14.85 -1.35 -14.6 -1.3 -14.6 -1.0 -14.3 -0.95 -14.3 Q-0.85 -14.25 -0.75 -14.2 -0.35 -14.1 0.3 -14.3 0.65 -14.4 1.1 -14.6 0.95 -14.45 0.45 -14.2 0.15 -14.1 -0.05 -14.05 L-0.4 -14.0 -0.55 -14.05 M-1.65 -12.95 L-1.6 -13.0 Q-1.3 -13.15 -1.0 -13.1 -0.7 -13.05 -0.55 -12.8 -0.4 -12.6 -0.5 -12.35 L-0.5 -12.3 Q-0.6 -12.1 -0.85 -11.9 L-0.9 -11.9 -0.95 -11.85 Q-1.35 -11.6 -1.75 -11.75 -2.05 -11.85 -2.05 -12.15 L-2.0 -12.45 -1.7 -12.9 -1.65 -12.95 M0.7 -15.6 L1.1 -14.95 1.2 -14.85 1.15 -14.8 0.75 -14.55 1.0 -14.85 1.0 -14.9 0.7 -15.6 M0.5 -14.5 L0.55 -15.75 0.5 -14.5 M6.9 -9.35 Q6.8 -9.15 6.6 -9.15 6.2 -9.2 6.05 -9.6 6.0 -9.85 5.95 -10.25 7.05 -10.7 6.95 -9.6 L6.9 -9.35 M3.4 -8.05 L3.45 -8.45 3.5 -8.55 3.55 -8.8 3.55 -9.6 Q3.45 -10.15 3.35 -10.3 L2.6 -9.2 2.55 -9.1 2.35 -8.85 1.95 -8.45 Q2.5 -8.05 3.2 -7.75 L3.35 -7.75 3.45 -7.7 3.45 -7.8 Q3.4 -7.95 3.4 -8.05 M1.4 -10.2 Q1.25 -10.15 1.15 -10.05 1.0 -10.0 0.8 -10.05 L0.55 -10.25 0.65 -10.25 0.75 -10.2 1.2 -10.2 Q1.1 -10.35 0.95 -10.45 L0.85 -10.5 0.6 -10.5 0.4 -10.45 0.35 -10.45 0.15 -10.55 Q0.8 -10.75 0.8 -10.7 0.8 -10.8 1.15 -10.6 1.45 -10.4 1.4 -10.2 M4.35 -7.85 L4.35 -8.15 4.3 -8.2 4.15 -8.05 Q4.05 -8.0 3.9 -7.9 L3.85 -7.85 3.7 -7.8 3.7 -7.6 4.35 -7.35 4.45 -7.35 Q4.4 -7.45 4.4 -7.55 L4.35 -7.85 M-3.2 -23.9 L-3.1 -24.1 -3.0 -24.45 Q-2.85 -24.95 -2.75 -25.05 L-2.55 -25.2 -2.4 -25.3 -2.4 -25.4 -2.35 -25.4 -2.3 -25.55 -2.35 -25.75 -2.3 -26.0 Q-2.35 -26.35 -2.3 -26.7 L-2.4 -26.8 -3.95 -25.3 -4.65 -24.5 -4.7 -24.4 Q-4.7 -24.25 -4.65 -24.2 L-4.55 -24.2 -4.05 -24.0 -3.85 -23.85 -4.2 -24.0 -4.2 -24.05 Q-4.55 -24.2 -4.8 -24.05 L-4.95 -23.85 -5.15 -23.0 -5.2 -22.85 -4.6 -21.75 -4.15 -21.7 -3.7 -21.8 -3.3 -22.15 Q-3.25 -22.55 -3.45 -23.05 -3.5 -23.3 -3.65 -23.55 L-3.85 -23.8 -3.45 -23.45 -3.4 -23.25 -3.35 -23.25 -3.35 -23.3 -3.3 -23.45 -3.25 -23.5 -3.25 -23.7 -3.2 -23.9 M-2.25 -26.9 L-2.25 -26.9 M-2.4 -22.05 Q-2.3 -22.4 -2.0 -22.7 L-1.95 -22.75 -1.95 -22.8 Q-1.7 -23.0 -1.4 -22.95 -1.35 -23.0 -1.35 -23.1 -1.35 -23.15 -1.35 -23.25 L-1.4 -23.3 -1.4 -23.35 Q-1.75 -24.1 -2.05 -24.9 L-2.1 -25.0 -2.2 -25.0 -2.25 -25.05 -2.4 -25.0 -2.4 -24.95 Q-3.1 -24.8 -3.15 -23.55 L-3.15 -23.15 -3.2 -22.85 -3.25 -22.75 -2.7 -21.65 -2.3 -21.4 -2.25 -21.45 -2.35 -21.5 Q-2.35 -21.6 -2.4 -21.75 L-2.4 -22.05 M-4.35 -20.15 L-6.85 -22.4 -6.95 -22.3 Q-7.05 -22.1 -7.1 -21.85 L-6.8 -20.4 Q-6.65 -19.95 -6.65 -19.5 L-6.7 -19.3 -6.3 -18.95 Q-6.05 -18.7 -5.8 -18.6 L-5.7 -18.55 -5.45 -18.55 -5.35 -18.6 -4.85 -19.1 -4.7 -19.45 -4.5 -19.85 Q-4.45 -19.95 -4.45 -20.05 L-4.35 -20.15 M-7.3 -24.8 L-7.45 -24.85 Q-7.5 -24.9 -7.6 -24.8 L-7.65 -24.7 -8.5 -23.15 -8.75 -22.2 -8.8 -19.6 -8.35 -19.0 -8.3 -18.95 -8.3 -18.9 -8.25 -18.85 -8.2 -18.85 -8.05 -19.0 -7.9 -19.2 Q-7.85 -19.5 -7.55 -19.5 L-7.5 -19.5 Q-7.25 -19.5 -7.0 -19.25 L-6.95 -19.3 -6.95 -19.35 -6.9 -19.4 Q-6.85 -19.55 -6.95 -19.9 -6.9 -20.05 -6.95 -20.15 L-8.6 -22.15 -8.65 -22.1 -8.7 -22.1 -8.55 -22.3 -8.45 -22.3 -8.4 -22.35 -8.4 -22.5 -8.2 -22.3 Q-7.85 -22.05 -7.55 -21.75 L-7.4 -21.5 -7.15 -22.0 -7.1 -22.15 -7.0 -22.35 Q-6.75 -22.8 -6.5 -22.85 L-6.2 -23.0 Q-6.75 -24.5 -7.25 -24.8 L-7.3 -24.8 M-8.2 -18.8 L-8.2 -18.85 -8.2 -18.8 M-6.5 -26.05 L-6.45 -26.25 -6.5 -26.25 -7.45 -25.05 Q-7.35 -25.05 -7.2 -24.95 -6.9 -24.8 -6.55 -24.2 -6.65 -25.0 -6.55 -25.8 L-6.5 -26.05 M-6.65 -17.85 L-6.7 -17.9 -6.65 -17.95 Q-6.65 -18.8 -7.25 -19.15 L-7.4 -19.2 Q-7.65 -19.25 -7.75 -19.15 L-7.85 -19.05 Q-7.95 -18.9 -7.95 -18.65 L-7.95 -18.55 -8.0 -18.5 -8.05 -18.05 -7.95 -17.8 -7.9 -17.5 -7.85 -17.4 -7.85 -17.35 Q-7.55 -17.45 -7.2 -17.45 L-6.7 -17.45 -6.65 -17.5 -6.6 -17.6 -6.65 -17.85 M-8.1 -16.9 L-8.15 -16.9 -8.35 -16.7 -8.85 -16.0 -8.85 -15.6 Q-8.8 -15.45 -8.65 -15.25 -8.45 -14.95 -8.15 -14.75 -7.9 -14.65 -7.55 -14.6 -7.45 -14.55 -7.25 -14.6 -7.1 -14.7 -7.1 -14.8 -6.8 -14.95 -6.5 -15.25 L-6.2 -15.65 Q-6.05 -15.85 -6.0 -16.0 -5.95 -16.4 -6.1 -16.7 L-7.65 -17.15 -7.8 -17.1 -7.9 -17.0 -8.0 -17.0 -8.1 -16.9 M-6.8 -14.8 L-6.55 -15.1 -6.5 -15.2 -6.5 -15.25 -6.7 -14.95 -6.85 -14.8 -7.15 -14.6 -6.8 -14.8 M-6.6 -14.6 L-6.5 -14.95 -6.7 -14.75 -7.0 -14.5 -6.85 -14.4 -6.7 -14.1 -6.6 -14.5 -6.6 -14.6 M-1.1 -12.0 L-1.0 -12.1 -0.95 -12.1 Q-0.7 -12.3 -0.65 -12.45 -0.6 -12.55 -0.7 -12.65 -0.7 -12.8 -0.8 -12.85 -0.9 -13.0 -1.1 -13.0 -1.6 -13.05 -1.75 -12.65 L-1.8 -12.55 -1.8 -12.5 -1.85 -12.25 Q-1.8 -12.1 -1.7 -12.0 -1.65 -11.9 -1.55 -11.9 -1.45 -11.85 -1.3 -11.9 -1.2 -11.9 -1.1 -12.0 M-2.7 -12.3 Q-2.55 -12.35 -2.5 -12.45 -2.45 -12.5 -2.35 -12.75 -2.2 -13.2 -2.4 -13.6 -2.6 -14.0 -3.0 -14.15 -3.4 -14.3 -3.8 -14.05 -4.2 -13.8 -4.45 -13.25 L-4.55 -13.0 -4.55 -12.95 Q-4.75 -12.75 -4.8 -12.6 L-4.8 -12.4 -4.2 -12.35 -3.35 -12.25 -3.3 -12.25 -2.8 -12.2 -2.7 -12.3" fill="#000000" fill-rule="evenodd" stroke="none"/>
      <path d="M7.0 -6.8 L6.9 -6.85 7.0 -6.8" fill="#fde695" fill-rule="evenodd" stroke="none"/>
      <path d="M4.95 -12.6 L5.0 -12.55 5.05 -12.45 4.95 -12.6 M-10.6 -14.85 L-10.6 -14.8 -10.6 -14.85 M4.05 -8.4 L3.8 -8.2 4.05 -8.4 M-5.45 -18.55 L-5.7 -18.55 -5.8 -18.6 -5.45 -18.55 M-2.2 -17.05 L-2.1 -17.05 -2.2 -17.05" fill="#ae4d42" fill-rule="evenodd" stroke="none"/>
      <path d="M1.15 -18.75 L1.0 -18.75 1.0 -18.9 1.15 -18.75 M0.8 -19.05 L0.7 -19.05 0.7 -19.1 0.8 -19.05" fill="#bc4d3d" fill-rule="evenodd" stroke="none"/>
      <path d="M3.8 -13.7 L4.05 -13.45 3.8 -13.7 M-3.35 -23.25 L-3.4 -23.25 -3.35 -23.25 M-3.85 -23.8 L-3.65 -23.55 Q-3.5 -23.3 -3.45 -23.05 -3.25 -22.55 -3.3 -22.15 L-3.5 -22.3 Q-3.5 -22.8 -3.7 -23.25 -3.9 -23.75 -4.2 -24.0 L-3.85 -23.85 -3.85 -23.8 M-2.25 -21.45 L-2.3 -21.4 -2.25 -21.45 M-7.65 -24.7 L-7.6 -24.8 Q-7.5 -24.9 -7.45 -24.85 L-7.3 -24.8 -7.55 -24.85 -7.65 -24.7 M-8.2 -18.8 L-8.2 -18.85 -8.2 -18.8 M-6.85 -14.8 L-6.7 -14.95 -6.5 -15.25 -6.5 -15.2 -6.55 -15.1 -6.8 -14.8 -6.85 -14.8 M-6.6 -14.6 L-6.7 -14.75 -6.5 -14.95 -6.6 -14.6 M-3.65 -18.35 L-3.65 -18.3 -3.7 -18.3 -3.65 -18.35" fill="#c64233" fill-rule="evenodd" stroke="none"/>
      <path d="M-9.35 -18.9 L-9.3 -19.2 -9.25 -19.25 -9.25 -19.1 -9.35 -18.9 M-9.25 -19.3 L-9.25 -19.35 -9.3 -19.95 -9.25 -19.3 M-0.6 -17.35 L-0.55 -17.6 -0.45 -17.65 -0.6 -17.35 M-3.3 -22.15 L-3.7 -21.8 -4.15 -21.7 -4.6 -21.75 -5.2 -22.85 -5.15 -23.0 -4.95 -23.85 -4.8 -24.05 Q-4.55 -24.2 -4.2 -24.05 L-4.2 -24.0 Q-3.9 -23.75 -3.7 -23.25 -3.5 -22.8 -3.5 -22.3 L-3.3 -22.15 M-2.4 -22.05 L-2.4 -21.75 Q-2.35 -21.6 -2.35 -21.5 L-2.25 -21.45 -2.3 -21.4 -2.7 -21.65 -3.25 -22.75 -3.2 -22.85 -2.7 -22.5 -2.4 -22.05 M-6.85 -14.8 L-6.8 -14.8 -7.15 -14.6 -6.85 -14.8" fill="#9f3633" fill-rule="evenodd" stroke="none"/>
      <path d="M0.95 -13.75 L0.9 -13.75 0.95 -13.75 M-2.25 -15.6 L-2.05 -15.3 -2.5 -15.95 -2.25 -15.6 M-2.0 -15.25 L-2.05 -15.25 -2.05 -15.3 -2.0 -15.25" fill="#993c4b" fill-rule="evenodd" stroke="none"/>
      <path d="M1.0 -14.9 L1.0 -14.85 1.0 -14.9" fill="#66cc33" fill-rule="evenodd" stroke="none"/>
      <path d="M2.35 -8.85 L2.55 -9.1 2.6 -9.2 3.35 -10.3 Q3.45 -10.15 3.55 -9.6 L3.55 -8.8 3.5 -8.55 3.45 -8.45 3.4 -8.05 Q3.2 -7.95 3.05 -8.0 2.65 -8.0 2.45 -8.35 2.35 -8.6 2.35 -8.85 M3.85 -7.85 L3.9 -7.9 Q4.05 -8.0 4.15 -8.05 L4.3 -8.2 4.35 -8.15 4.35 -7.85 Q4.3 -7.75 4.15 -7.75 3.95 -7.75 3.9 -7.85 L3.85 -7.85" fill="#f7e3b7" fill-rule="evenodd" stroke="none"/>
      <path d="M2.35 -8.85 Q2.35 -8.6 2.45 -8.35 2.65 -8.0 3.05 -8.0 3.2 -7.95 3.4 -8.05 3.4 -7.95 3.45 -7.8 L3.45 -7.7 3.35 -7.75 3.2 -7.75 Q2.5 -8.05 1.95 -8.45 L2.35 -8.85 M3.85 -7.85 L3.9 -7.85 Q3.95 -7.75 4.15 -7.75 4.3 -7.75 4.35 -7.85 L4.4 -7.55 Q4.4 -7.45 4.45 -7.35 L4.35 -7.35 3.7 -7.6 3.7 -7.8 3.85 -7.85" fill="#ebb647" fill-rule="evenodd" stroke="none"/>
      <path d="M-2.4 -17.1 L-2.65 -17.6 Q-2.55 -17.4 -2.4 -17.25 L-2.4 -17.1" fill="#999382" fill-rule="evenodd" stroke="none"/>
      <path d="M0.7 -15.6 L1.0 -14.9 1.0 -14.85 0.75 -14.55 0.5 -14.5 0.55 -15.75 0.7 -15.6" fill="#ff0000" fill-rule="evenodd" stroke="none"/>
      <path d="M-3.05 -20.8 L-3.35 -20.65 -3.4 -20.7 -3.4 -20.85 Q-3.4 -20.95 -3.2 -20.95 L-3.05 -20.8" fill="#b6eff3" fill-rule="evenodd" stroke="none"/>
      <path d="M3.7 -14.15 L4.5 -13.25 4.05 -13.45 3.8 -13.7 3.7 -14.15 M4.7 -13.15 L4.8 -13.1 4.75 -13.1 4.7 -13.15 M5.0 -13.15 L5.15 -13.25 5.65 -12.9 5.55 -12.55 5.5 -12.5 5.2 -12.55 4.9 -13.0 5.0 -13.1 5.0 -13.15 M-4.4 -17.8 L-2.6 -16.85 -4.4 -17.8" fill="#2ea2cd" fill-rule="evenodd" stroke="none"/>
      <path d="M5.15 -13.25 L5.15 -13.4 5.65 -12.9 5.15 -13.25" fill="#caf0f4" fill-rule="evenodd" stroke="none"/>
      <path d="M4.8 -14.45 L4.6 -14.6 4.8 -14.45 M-7.1 -21.85 Q-7.05 -22.1 -6.95 -22.3 L-6.85 -22.4 -4.35 -20.15 -7.1 -21.85 M-8.65 -22.1 L-8.6 -22.15 -6.95 -20.15 -8.5 -21.9 -8.65 -22.1 M-7.85 -19.05 L-7.75 -19.15 Q-7.65 -19.25 -7.4 -19.2 L-7.25 -19.15 Q-6.65 -18.8 -6.65 -17.95 L-6.7 -17.9 -6.65 -17.85 -6.7 -17.85 Q-6.75 -17.55 -7.15 -17.6 L-7.5 -18.3 Q-7.5 -18.8 -7.8 -19.05 L-7.85 -19.05 M-8.1 -16.9 L-8.0 -17.0 -7.9 -17.0 -7.8 -17.1 -7.65 -17.15 -6.1 -16.7 Q-5.95 -16.4 -6.0 -16.0 -6.05 -15.85 -6.2 -15.65 L-6.5 -15.25 -7.4 -17.05 Q-7.95 -17.1 -8.3 -16.7 L-8.1 -16.9" fill="#6bd5e7" fill-rule="evenodd" stroke="none"/>
      <path d="M-7.2 -6.85 L-7.3 -6.8 Q-7.55 -6.8 -8.15 -7.4 -8.5 -7.55 -9.25 -8.2 L-9.6 -8.5 -12.7 -16.5 -12.2 -16.3 -11.5 -15.95 -11.15 -15.75 -10.8 -15.45 -10.55 -15.2 -10.6 -14.85 -10.6 -14.8 -7.8 -7.5 Q-7.45 -7.2 -7.15 -7.05 L-7.15 -7.0 -7.1 -6.85 -7.2 -6.85 M-1.55 -21.1 L-1.75 -20.75 Q-1.75 -20.65 -1.85 -20.55 -1.95 -20.45 -2.05 -20.45 -2.25 -20.5 -2.35 -20.65 L-2.35 -20.8 Q-2.8 -20.7 -2.8 -20.5 L-2.8 -20.3 Q-2.7 -20.15 -2.45 -20.1 L-2.35 -20.1 -4.7 -17.6 Q-4.75 -17.35 -4.55 -16.9 -4.35 -16.45 -4.0 -16.3 L-4.15 -15.0 Q-4.05 -14.75 -3.75 -14.7 -3.6 -14.7 -3.5 -14.8 -3.4 -14.85 -3.35 -14.95 -3.05 -14.7 -2.55 -14.45 -2.15 -14.2 -1.85 -13.6 -1.7 -13.25 -1.65 -12.95 L-1.7 -12.9 -2.0 -12.45 -2.05 -12.15 Q-2.05 -11.85 -1.75 -11.75 -1.35 -11.6 -0.95 -11.85 L-0.9 -11.9 -0.85 -11.9 Q-0.6 -12.1 -0.5 -12.3 L0.4 -11.45 1.9 -9.85 2.2 -9.45 2.25 -9.35 1.7 -8.55 1.65 -8.6 Q1.35 -8.8 0.95 -9.2 L0.15 -10.0 Q-0.9 -11.05 -1.55 -11.5 -2.05 -11.9 -2.55 -12.1 L-2.5 -12.15 -2.4 -12.3 -2.3 -12.4 Q-2.15 -12.85 -2.4 -13.6 -2.65 -14.4 -3.2 -14.4 -3.65 -14.4 -4.25 -13.75 -4.75 -13.2 -4.95 -12.7 -5.0 -12.55 -4.95 -12.4 L-5.0 -12.45 Q-5.05 -12.45 -5.15 -12.5 L-5.7 -13.0 -5.95 -13.3 -6.3 -13.7 -6.35 -13.75 Q-6.55 -13.95 -6.45 -14.5 L-6.35 -15.1 -6.2 -15.3 Q-5.9 -15.7 -5.8 -16.3 -5.65 -16.85 -6.1 -17.2 L-6.45 -17.35 -6.35 -17.65 Q-6.3 -17.9 -6.4 -18.2 L-6.6 -18.6 -6.55 -18.6 -6.65 -18.75 -6.7 -18.8 -6.75 -18.9 Q-6.75 -18.95 -6.75 -19.05 -6.25 -18.5 -5.9 -18.35 L-5.85 -18.35 -5.45 -18.25 Q-5.05 -18.35 -4.65 -18.8 L-4.0 -20.3 -4.4 -21.4 -3.3 -21.45 -1.55 -21.1 M-2.25 -19.95 L-2.15 -19.9 Q-2.45 -19.8 -2.55 -19.45 L-2.5 -19.45 Q-2.2 -19.45 -1.75 -19.15 -1.3 -18.85 -1.0 -18.4 -0.65 -17.95 -0.65 -17.6 L-0.7 -17.3 -2.0 -17.3 Q-2.55 -17.45 -2.75 -17.85 L-2.7 -17.65 -2.8 -17.85 -2.95 -18.05 -3.0 -18.1 -2.8 -17.95 Q-2.85 -18.15 -2.9 -18.3 L-2.9 -18.5 Q-2.9 -18.7 -2.85 -18.9 L-2.85 -19.0 Q-2.75 -19.45 -2.5 -19.65 L-2.25 -19.95 M-0.1 -17.95 L0.0 -18.1 0.05 -18.1 0.0 -18.05 0.0 -18.0 0.1 -18.05 0.15 -18.0 0.15 -17.85 Q0.2 -17.65 0.45 -17.6 L0.95 -16.95 1.85 -16.1 2.45 -15.45 Q2.8 -15.65 3.85 -14.75 3.75 -14.7 3.7 -14.5 L3.65 -14.5 3.6 -14.15 4.55 -12.95 4.9 -12.65 4.9 -12.6 4.95 -12.6 5.05 -12.45 5.25 -10.0 5.1 -10.25 1.7 -13.4 2.0 -14.05 Q2.05 -14.35 1.9 -14.4 1.75 -14.45 1.5 -14.3 1.2 -14.1 1.05 -13.9 L1.15 -14.1 0.9 -14.0 Q0.65 -13.95 0.35 -13.9 L0.05 -13.85 Q-0.25 -13.9 -0.55 -14.05 L-0.4 -14.0 -0.05 -14.05 Q0.15 -14.1 0.45 -14.2 0.95 -14.45 1.1 -14.6 0.65 -14.4 0.3 -14.3 -0.35 -14.1 -0.75 -14.2 -0.85 -14.25 -0.95 -14.3 L-1.0 -14.3 -1.3 -14.6 -1.35 -14.6 -1.5 -14.85 -1.5 -14.9 -1.55 -14.9 -1.6 -14.8 -1.85 -15.05 Q-1.75 -15.05 -1.65 -15.15 L-1.6 -15.25 -1.6 -15.2 -1.45 -15.1 -1.3 -15.1 -1.3 -15.25 Q-1.3 -15.35 -1.45 -15.4 L-1.55 -15.4 Q-1.55 -15.8 -2.05 -16.2 -2.25 -16.35 -2.4 -16.35 -2.6 -16.4 -2.65 -16.15 L-2.65 -16.2 -2.7 -16.35 -2.65 -16.4 Q-2.3 -16.7 -2.2 -17.05 L-2.1 -17.05 -1.95 -17.0 -1.5 -16.9 Q-1.6 -16.65 -1.65 -16.4 L-1.6 -16.15 -1.6 -15.9 -1.5 -15.95 -1.45 -16.0 Q-1.55 -16.3 -1.35 -16.6 L-1.2 -16.85 -0.5 -16.9 2.05 -14.95 2.3 -14.95 Q2.25 -14.85 2.3 -14.8 L2.65 -14.7 2.55 -15.35 Q2.45 -15.35 2.35 -15.35 L0.05 -16.7 Q-0.1 -16.85 -0.25 -17.0 L-0.25 -17.05 -0.45 -17.25 -0.4 -17.25 -0.5 -17.4 -0.3 -17.6 -0.15 -17.9 -0.1 -17.95 M3.8 -8.8 L4.05 -8.75 4.5 -8.6 4.5 -8.5 Q4.35 -8.55 4.1 -8.4 L4.05 -8.4 3.8 -8.2 3.75 -8.15 3.8 -8.8 M4.6 -8.05 Q4.65 -8.0 4.8 -8.0 5.1 -8.0 5.15 -8.35 L5.15 -8.4 5.35 -8.3 Q5.7 -8.1 5.8 -7.8 5.8 -7.85 5.85 -7.85 L6.45 -7.8 8.0 -7.55 8.25 -7.3 8.15 -6.85 7.85 -6.8 Q7.5 -6.8 7.0 -6.8 L6.9 -6.85 Q5.7 -7.0 4.75 -7.25 L4.65 -7.6 Q4.6 -7.95 4.6 -8.05 M0.75 -14.55 L1.15 -14.8 1.2 -14.85 1.1 -14.95 0.7 -15.6 0.55 -15.75 0.5 -14.5 0.75 -14.55 M1.4 -10.2 Q1.45 -10.4 1.15 -10.6 0.8 -10.8 0.8 -10.7 0.8 -10.75 0.15 -10.55 L0.35 -10.45 0.4 -10.45 0.6 -10.5 0.85 -10.5 0.95 -10.45 Q1.1 -10.35 1.2 -10.2 L0.75 -10.2 0.65 -10.25 0.55 -10.25 0.8 -10.05 Q1.0 -10.0 1.15 -10.05 1.25 -10.15 1.4 -10.2 M-9.05 -15.5 Q-9.15 -15.4 -9.35 -15.35 L-10.45 -15.3 -10.45 -16.0 -10.5 -16.3 -10.65 -17.25 -10.75 -17.65 -10.7 -18.1 -8.8 -19.15 Q-8.5 -18.55 -8.3 -18.4 L-8.25 -17.8 Q-8.2 -17.45 -8.1 -17.25 L-8.4 -17.05 Q-8.9 -16.7 -9.1 -16.15 L-9.15 -15.95 Q-9.15 -15.8 -9.05 -15.5 M-3.2 -23.9 L-3.25 -23.7 -3.25 -23.5 -3.3 -23.45 -3.35 -23.3 -3.35 -23.25 -3.4 -23.25 -3.45 -23.45 -3.85 -23.8 -3.85 -23.85 -4.05 -24.0 -4.55 -24.2 -4.65 -24.2 Q-4.7 -24.25 -4.7 -24.4 L-4.65 -24.5 -3.95 -25.3 -3.8 -25.0 -3.4 -24.3 -3.2 -23.9 M-7.1 -21.85 L-4.35 -20.15 -4.45 -20.05 Q-4.45 -19.95 -4.5 -19.85 L-4.7 -19.45 -4.85 -19.1 -5.35 -18.6 -5.45 -18.55 -5.8 -18.6 Q-6.05 -18.7 -6.3 -18.95 L-6.7 -19.3 -6.65 -19.5 Q-6.65 -19.95 -6.8 -20.4 L-7.1 -21.85 M-7.65 -24.7 L-7.55 -24.85 -7.3 -24.8 -7.25 -24.8 Q-7.2 -24.7 -7.2 -24.6 L-7.85 -22.6 -7.9 -22.6 Q-7.75 -22.55 -7.55 -22.45 -7.3 -22.3 -7.1 -22.15 L-7.15 -22.0 -7.4 -21.5 -7.55 -21.75 Q-7.85 -22.05 -8.2 -22.3 L-8.4 -22.5 -8.4 -22.35 -8.45 -22.3 -8.55 -22.3 -8.7 -22.1 -8.65 -22.1 -8.5 -21.9 -6.95 -20.15 Q-6.9 -20.05 -6.95 -19.9 -6.85 -19.55 -6.9 -19.4 L-6.95 -19.35 -6.95 -19.3 -7.0 -19.25 Q-7.25 -19.5 -7.5 -19.5 L-7.55 -19.5 Q-7.85 -19.5 -7.9 -19.2 L-8.05 -19.0 -8.2 -18.85 -8.2 -18.8 -8.2 -18.85 -8.25 -18.85 -8.3 -18.9 -8.3 -18.95 -8.35 -19.0 -8.8 -19.6 -8.75 -22.2 -8.5 -23.15 -7.65 -24.7 M-6.65 -17.85 L-6.6 -17.6 -6.65 -17.5 -6.7 -17.45 -7.2 -17.45 Q-7.55 -17.45 -7.85 -17.35 L-7.85 -17.4 -7.9 -17.5 -7.95 -17.8 -8.05 -18.05 -8.0 -18.5 -7.95 -18.55 -7.95 -18.65 Q-7.95 -18.9 -7.85 -19.05 L-7.8 -19.05 Q-7.5 -18.8 -7.5 -18.3 L-7.15 -17.6 Q-6.75 -17.55 -6.7 -17.85 L-6.65 -17.85 M-6.5 -15.25 Q-6.8 -14.95 -7.1 -14.8 -7.1 -14.7 -7.25 -14.6 -7.45 -14.55 -7.55 -14.6 -7.9 -14.65 -8.15 -14.75 -8.45 -14.95 -8.65 -15.25 -8.8 -15.45 -8.85 -15.6 L-8.85 -16.0 -8.35 -16.7 -8.15 -16.9 -8.1 -16.9 -8.3 -16.7 Q-7.95 -17.1 -7.4 -17.05 L-6.5 -15.25 M-6.7 -14.75 L-6.6 -14.6 -6.6 -14.5 -6.7 -14.1 -6.85 -14.4 -7.0 -14.5 -6.7 -14.75 M-3.05 -20.8 L-3.2 -20.95 Q-3.4 -20.95 -3.4 -20.85 L-3.4 -20.7 -3.35 -20.65 -3.05 -20.8 M-1.7 -16.4 L-1.65 -16.5 Q-1.6 -16.6 -1.8 -16.65 -2.05 -16.75 -2.05 -16.55 L-2.05 -16.45 Q-1.95 -16.35 -1.85 -16.3 L-1.7 -16.4 M-1.75 -12.65 Q-1.6 -12.6 -1.45 -12.4 -1.2 -12.15 -1.1 -12.0 -1.2 -11.9 -1.3 -11.9 -1.45 -11.85 -1.55 -11.9 -1.65 -11.9 -1.7 -12.0 -1.8 -12.1 -1.85 -12.25 L-1.8 -12.5 -1.8 -12.55 -1.75 -12.65 M-2.7 -12.3 L-2.8 -12.2 -3.3 -12.25 -3.35 -12.25 -4.2 -12.35 -4.8 -12.4 -4.8 -12.6 Q-4.75 -12.75 -4.55 -12.95 L-4.55 -13.0 -4.45 -13.25 Q-4.25 -13.15 -4.05 -12.9 L-3.15 -12.6 Q-2.75 -12.5 -2.65 -12.3 L-2.7 -12.3 M-6.9 -9.8 Q-7.35 -9.8 -7.35 -10.55 -7.35 -10.95 -6.85 -10.85 -6.35 -10.7 -6.35 -10.4 -6.35 -10.15 -6.45 -10.05 -6.55 -9.8 -6.9 -9.8" fill="#665542" fill-rule="evenodd" stroke="none"/>
      <path d="M-2.25 -6.95 L-2.15 -6.95 -4.45 -7.1 -4.55 -7.15 Q-5.5 -6.85 -6.2 -6.7 L-6.85 -6.7 Q-7.05 -6.75 -7.1 -6.85 L-7.15 -7.0 -7.15 -7.05 Q-7.45 -7.2 -7.8 -7.5 L-10.6 -14.8 -10.6 -14.85 -10.55 -15.2 -10.45 -15.3 -9.35 -15.35 Q-9.15 -15.4 -9.05 -15.5 L-8.95 -15.25 Q-8.7 -14.75 -8.25 -14.6 L-7.95 -14.45 -7.9 -14.45 -7.75 -14.4 -7.5 -14.45 -7.45 -14.4 -7.35 -14.4 -7.3 -14.35 -6.9 -13.9 -6.9 -13.8 -6.6 -13.6 -6.65 -13.55 -6.4 -13.3 -6.05 -12.9 -5.95 -12.8 Q-5.25 -12.05 -4.8 -11.85 L-4.75 -11.85 -4.55 -11.8 Q-4.2 -11.8 -3.95 -11.85 L-3.55 -11.85 -3.0 -11.75 -2.8 -11.7 Q-2.25 -11.55 -1.95 -11.35 L-1.75 -11.2 -1.55 -11.0 -1.3 -10.85 -0.75 -10.4 -0.6 -10.25 0.3 -9.4 0.5 -9.2 Q1.1 -8.7 1.65 -8.25 L1.8 -8.2 Q2.45 -7.7 3.15 -7.35 5.0 -6.45 7.3 -6.35 L7.8 -6.35 8.0 -6.3 8.1 -6.3 7.95 -6.15 Q8.0 -6.1 8.0 -6.0 L7.95 -5.85 7.7 -5.45 7.9 -5.6 7.5 -4.95 7.15 -4.6 Q7.05 -4.3 6.45 -3.85 L6.15 -3.65 Q5.65 -3.4 5.15 -3.3 L4.6 -3.3 4.5 -3.35 4.5 -3.4 Q3.95 -3.45 3.5 -3.8 L3.3 -4.0 Q2.9 -4.2 2.4 -4.65 L1.95 -5.0 Q0.95 -5.8 0.15 -6.65 L0.1 -6.7 -0.4 -7.1 -1.05 -7.6 -2.2 -7.85 Q-3.6 -8.15 -4.8 -8.15 L-4.9 -8.15 -4.45 -8.1 -4.15 -8.1 Q-2.45 -7.85 -1.2 -7.35 L-1.1 -7.25 -2.3 -7.3 -3.7 -7.35 -4.3 -7.2 -3.35 -7.05 -3.2 -7.05 -3.1 -7.0 -2.65 -7.0 -2.25 -6.95 M-1.55 -21.1 L-2.2 -21.35 -2.2 -21.7 -2.25 -21.95 -2.05 -22.35 -1.9 -22.55 -1.85 -22.6 -1.55 -22.8 Q-1.3 -22.8 -1.0 -22.6 -0.55 -21.7 -0.1 -21.2 -0.15 -21.05 -0.25 -21.0 -0.35 -20.95 -0.4 -20.95 L-0.45 -20.9 -0.6 -20.9 -0.65 -20.95 -0.85 -20.9 0.0 -20.7 0.25 -20.7 0.3 -20.65 0.4 -20.6 0.65 -20.4 0.8 -20.3 1.0 -20.15 Q1.2 -20.0 1.5 -19.8 L1.65 -19.7 1.8 -19.55 2.85 -18.8 Q3.1 -18.5 3.4 -18.0 L3.9 -17.05 4.75 -15.65 4.75 -15.6 Q4.9 -15.15 5.25 -14.55 L5.5 -14.25 Q5.8 -13.85 6.35 -13.25 7.0 -12.2 7.6 -11.8 L8.25 -7.3 8.0 -7.55 6.45 -7.8 5.85 -7.85 Q5.8 -7.85 5.8 -7.8 5.7 -8.1 5.35 -8.3 L5.15 -8.4 5.15 -8.35 Q5.1 -8.0 4.8 -8.0 4.65 -8.0 4.6 -8.05 L4.6 -8.15 Q4.6 -8.4 4.5 -8.5 L4.5 -8.6 4.05 -8.75 3.8 -8.8 3.85 -9.0 3.85 -10.1 Q3.7 -11.05 3.15 -10.5 2.9 -10.25 2.3 -9.4 L2.25 -9.35 2.2 -9.45 1.9 -9.85 0.4 -11.45 -0.5 -12.3 -0.5 -12.35 Q-0.4 -12.6 -0.55 -12.8 -0.7 -13.05 -1.0 -13.1 -1.3 -13.15 -1.6 -13.0 L-1.65 -12.95 Q-1.7 -13.25 -1.85 -13.6 -2.15 -14.2 -2.55 -14.45 -3.05 -14.7 -3.35 -14.95 -3.4 -14.85 -3.5 -14.8 -3.6 -14.7 -3.75 -14.7 -4.05 -14.75 -4.15 -15.0 L-4.0 -16.3 Q-3.9 -16.2 -3.7 -16.2 -3.15 -16.05 -2.7 -16.35 L-2.65 -16.2 -2.65 -16.15 Q-2.6 -16.4 -2.4 -16.35 -2.25 -16.35 -2.05 -16.2 -1.55 -15.8 -1.55 -15.4 L-1.45 -15.4 Q-1.3 -15.35 -1.3 -15.25 L-1.3 -15.1 -1.45 -15.1 -1.6 -15.2 -1.6 -15.25 -1.65 -15.15 Q-1.75 -15.05 -1.85 -15.05 L-1.6 -14.8 Q-1.6 -14.7 -1.4 -14.45 -1.15 -14.15 -0.8 -14.05 L-0.55 -14.05 Q-0.25 -13.9 0.05 -13.85 L-0.55 -13.7 -0.5 -13.7 -0.5 -13.65 Q0.05 -13.6 0.5 -13.65 L0.9 -13.75 0.95 -13.75 1.05 -13.9 Q1.2 -14.1 1.5 -14.3 1.75 -14.45 1.9 -14.4 2.05 -14.35 2.0 -14.05 L1.7 -13.4 5.1 -10.25 5.25 -10.0 5.05 -12.45 5.5 -12.3 5.65 -12.3 Q5.7 -12.3 5.75 -12.35 L5.25 -13.75 Q5.25 -13.55 5.1 -13.4 L5.15 -13.4 5.15 -13.25 5.0 -13.15 4.8 -13.1 4.7 -13.15 4.5 -13.25 3.7 -14.15 3.7 -14.5 Q3.75 -14.7 3.85 -14.75 2.8 -15.65 2.45 -15.45 L1.85 -16.1 0.95 -16.95 0.45 -17.6 Q0.2 -17.65 0.15 -17.85 L0.15 -18.0 0.1 -18.05 0.15 -18.05 0.15 -18.25 0.0 -18.05 0.05 -18.1 0.0 -18.1 -0.1 -17.95 -0.15 -17.9 -0.45 -17.65 -0.55 -17.6 -0.6 -17.35 -0.7 -17.3 -0.65 -17.6 Q-0.65 -17.95 -1.0 -18.4 -1.3 -18.85 -1.75 -19.15 -2.2 -19.45 -2.5 -19.45 L-2.55 -19.45 Q-2.45 -19.8 -2.15 -19.9 L-2.25 -19.95 -1.9 -20.1 -1.7 -20.2 Q-1.55 -20.3 -1.3 -20.35 -0.9 -20.35 -0.4 -20.15 0.8 -19.8 0.7 -19.05 L0.6 -18.85 0.5 -18.75 0.45 -18.6 0.7 -19.05 0.8 -19.05 1.0 -18.9 1.0 -18.75 1.15 -18.75 1.2 -18.75 Q2.0 -18.75 2.55 -17.85 2.8 -17.5 2.95 -17.2 3.15 -17.0 3.3 -16.6 L3.3 -16.45 Q3.15 -16.1 2.9 -15.75 L2.75 -15.6 2.8 -15.6 Q2.9 -15.7 3.0 -15.7 L3.0 -15.75 3.4 -16.25 3.4 -16.1 3.5 -16.1 Q3.6 -16.1 3.75 -15.8 L4.05 -15.15 Q4.1 -15.05 4.1 -14.95 L3.95 -14.8 Q4.15 -14.85 4.45 -14.65 L4.6 -14.6 4.8 -14.45 4.35 -14.95 3.45 -16.7 3.1 -17.25 Q2.3 -18.45 1.05 -19.25 L0.0 -20.3 -1.2 -20.5 -2.35 -20.1 -2.45 -20.1 Q-2.7 -20.15 -2.8 -20.3 L-2.8 -20.5 Q-2.8 -20.7 -2.35 -20.8 L-2.35 -20.65 Q-2.25 -20.5 -2.05 -20.45 -1.95 -20.45 -1.85 -20.55 -1.75 -20.65 -1.75 -20.75 L-1.55 -21.1 M3.05 -20.15 Q3.35 -19.85 3.55 -19.55 3.85 -19.15 3.9 -18.85 L3.95 -18.8 3.95 -18.65 3.9 -18.45 3.85 -18.3 3.95 -18.3 Q4.1 -18.25 4.3 -18.1 4.85 -17.6 4.85 -17.05 L5.0 -16.65 Q5.0 -16.5 4.9 -16.45 4.85 -16.4 4.8 -16.35 L4.6 -16.7 4.55 -16.8 4.25 -17.35 3.7 -18.2 Q3.75 -18.3 3.85 -18.3 L3.8 -18.35 3.8 -18.45 3.55 -18.45 Q2.55 -19.75 1.2 -20.45 L1.2 -20.65 Q1.3 -20.95 1.6 -20.9 L1.85 -20.85 1.95 -20.85 2.75 -20.4 3.05 -20.15 M6.9 -9.35 L6.95 -9.6 Q7.05 -10.7 5.95 -10.25 6.0 -9.85 6.05 -9.6 6.2 -9.2 6.6 -9.15 6.8 -9.15 6.9 -9.35 M-3.95 -25.3 L-2.4 -26.8 -2.3 -26.7 Q-2.35 -26.35 -2.3 -26.0 L-2.35 -25.75 -2.3 -25.55 -2.35 -25.4 -2.4 -25.4 -2.4 -25.3 -2.55 -25.2 -2.75 -25.05 Q-2.85 -24.95 -3.0 -24.45 L-3.1 -24.1 -3.2 -23.9 -3.4 -24.3 -3.8 -25.0 -3.95 -25.3 M-3.2 -22.85 L-3.15 -23.15 -3.15 -23.55 Q-3.1 -24.8 -2.4 -24.95 L-2.4 -25.0 -2.25 -25.05 -2.2 -25.0 -2.1 -25.0 -2.05 -24.9 Q-1.75 -24.1 -1.4 -23.35 L-1.4 -23.3 -1.35 -23.25 Q-1.35 -23.15 -1.35 -23.1 -1.35 -23.0 -1.4 -22.95 -1.7 -23.0 -1.95 -22.8 L-1.95 -22.75 -2.0 -22.7 Q-2.3 -22.4 -2.4 -22.05 L-2.7 -22.5 -3.2 -22.85 M-7.25 -24.8 Q-6.75 -24.5 -6.2 -23.0 L-6.5 -22.85 Q-6.75 -22.8 -7.0 -22.35 L-7.1 -22.15 Q-7.3 -22.3 -7.55 -22.45 -7.75 -22.55 -7.9 -22.6 L-7.85 -22.6 -7.2 -24.6 Q-7.2 -24.7 -7.25 -24.8 M-6.5 -26.05 L-6.55 -25.8 Q-6.65 -25.0 -6.55 -24.2 -6.9 -24.8 -7.2 -24.95 -7.35 -25.05 -7.45 -25.05 L-6.5 -26.25 -6.45 -26.25 -6.5 -26.05 M-3.65 -18.35 L-3.5 -18.6 -3.4 -18.7 -3.05 -19.15 -2.95 -19.1 -3.0 -18.8 -3.05 -18.8 -3.05 -18.55 -3.1 -18.35 -3.05 -18.35 -3.1 -18.25 -3.0 -18.1 -2.95 -18.05 -2.8 -17.85 -2.7 -17.65 -2.65 -17.6 -2.4 -17.1 -2.6 -16.85 -4.4 -17.8 -4.05 -18.1 -4.0 -18.1 Q-3.8 -18.3 -3.55 -18.3 L-3.65 -18.3 -3.65 -18.35 M-1.7 -16.4 L-1.85 -16.3 Q-1.95 -16.35 -2.05 -16.45 L-2.05 -16.55 Q-2.05 -16.75 -1.8 -16.65 -1.6 -16.6 -1.65 -16.5 L-1.7 -16.4 M-2.0 -15.25 L-2.05 -15.3 -2.05 -15.25 -2.0 -15.25 M-2.25 -15.6 L-2.5 -15.95 -2.05 -15.3 -2.25 -15.6 M-1.75 -12.65 Q-1.6 -13.05 -1.1 -13.0 -0.9 -13.0 -0.8 -12.85 -0.7 -12.8 -0.7 -12.65 -0.6 -12.55 -0.65 -12.45 -0.7 -12.3 -0.95 -12.1 L-1.0 -12.1 -1.1 -12.0 Q-1.2 -12.15 -1.45 -12.4 -1.6 -12.6 -1.75 -12.65 M-4.45 -13.25 Q-4.2 -13.8 -3.8 -14.05 -3.4 -14.3 -3.0 -14.15 -2.6 -14.0 -2.4 -13.6 -2.2 -13.2 -2.35 -12.75 -2.45 -12.5 -2.5 -12.45 -2.55 -12.35 -2.7 -12.3 L-2.65 -12.3 Q-2.75 -12.5 -3.15 -12.6 L-4.05 -12.9 Q-4.25 -13.15 -4.45 -13.25 M-6.9 -9.8 Q-6.55 -9.8 -6.45 -10.05 -6.35 -10.15 -6.35 -10.4 -6.35 -10.7 -6.85 -10.85 -7.35 -10.95 -7.35 -10.55 -7.35 -9.8 -6.9 -9.8" fill="#a68a6c" fill-rule="evenodd" stroke="none"/>
      <path d="M9.8 -14.65 L9.9 -14.6 10.05 -14.45 8.8 -9.35 8.25 -8.75 7.95 -8.7 8.85 -12.2 9.7 -13.3 9.8 -14.65 M-8.7 -23.4 L-8.85 -23.55 -9.95 -23.95 -13.15 -25.35 -15.25 -29.65 -14.05 -27.05 -9.55 -24.55 -9.4 -24.5 -8.5 -23.95 -8.4 -23.1 Q-8.4 -23.05 -8.65 -21.95 L-9.15 -18.95 -9.15 -19.6 -9.3 -20.55 -8.7 -23.4 M-16.05 -25.0 L-15.15 -23.25 -13.15 -20.75 -10.8 -20.0 -9.55 -18.75 -9.95 -18.65 -10.0 -18.85 -10.3 -19.2 -11.9 -20.1 -16.4 -20.95 -16.05 -25.0 M-9.65 -24.7 L-11.6 -28.95 -11.15 -30.55 -11.2 -30.2 -11.3 -29.35 -11.3 -29.05 -11.3 -28.15 -9.7 -24.85 -9.65 -24.7 M-10.65 -31.5 L-10.25 -30.95 Q-9.75 -29.55 -9.45 -29.25 L-9.2 -28.8 -7.3 -25.9 -9.75 -28.9 -10.65 -31.5 M-5.9 -24.9 L-6.5 -25.3 -6.3 -25.55 -5.35 -24.95 -3.95 -24.0 Q-1.2 -22.15 -0.4 -20.95 L-0.4 -20.75 -0.45 -20.7 -0.55 -20.7 Q-0.65 -20.7 -1.05 -21.05 L-1.85 -21.75 -2.7 -22.4 -5.25 -24.45 -5.7 -24.75 -5.9 -24.9 M-3.75 -21.35 Q-3.35 -20.95 -3.35 -20.6 L-3.7 -20.8 -4.5 -21.1 -5.75 -22.85 Q-6.35 -23.45 -6.35 -23.5 L-6.3 -23.75 -6.25 -23.75 Q-6.15 -23.6 -5.7 -23.15 L-5.35 -22.75 -4.95 -22.3 Q-4.5 -22.05 -4.15 -21.75 L-3.75 -21.35 M-16.85 -20.45 L-14.2 -17.6 -13.2 -16.4 -13.15 -16.35 -13.35 -15.8 -13.35 -15.85 -16.85 -20.45 M-11.15 -17.6 L-11.15 -17.65 -11.15 -17.6 M-5.9 -16.75 Q-5.8 -16.35 -5.8 -16.2 -5.8 -15.95 -6.3 -15.3 L-6.35 -15.25 -6.3 -15.25 -6.3 -15.1 Q-6.3 -15.0 -6.35 -14.85 -6.45 -14.7 -6.45 -14.6 L-6.5 -14.6 Q-6.55 -14.55 -6.65 -14.55 L-6.7 -14.55 Q-6.75 -14.6 -6.75 -14.7 L-6.7 -14.75 -6.7 -14.8 Q-6.9 -14.6 -7.05 -14.5 L-7.1 -14.5 -7.2 -14.55 Q-6.8 -14.8 -6.55 -15.05 L-6.6 -15.1 Q-6.6 -15.2 -6.5 -15.15 L-6.4 -15.25 -6.4 -15.3 Q-6.25 -15.45 -6.15 -15.6 -6.0 -15.95 -6.0 -16.6 L-6.0 -16.75 -5.9 -16.75 M-5.95 -13.1 L-5.95 -13.0 -6.0 -12.95 -6.05 -12.95 -6.1 -13.15 Q-6.15 -13.35 -6.25 -13.4 L-6.2 -13.4 -6.2 -13.45 -5.95 -13.1" fill="#000000" fill-rule="evenodd" stroke="none"/>
      <path d="M-15.25 -29.65 L-13.15 -25.35 -9.95 -23.95 -8.85 -23.55 -8.7 -23.4 -9.3 -20.55 -9.15 -19.6 -9.25 -19.55 -9.4 -19.6 -10.55 -20.8 Q-11.65 -21.8 -11.65 -21.4 -11.65 -21.3 -11.4 -20.95 -13.25 -22.25 -14.1 -23.1 L-15.15 -23.25 -16.05 -25.0 -15.25 -29.65 M-9.4 -24.5 L-9.55 -24.55 -9.65 -24.7 -9.7 -24.85 -9.4 -24.5 M-11.15 -30.55 L-10.65 -31.5 -9.75 -28.9 -7.3 -25.9 -8.25 -24.65 -8.4 -24.4 -10.4 -27.0 Q-10.85 -27.85 -11.2 -28.85 L-11.3 -29.05 -11.3 -29.35 -11.2 -30.2 -11.15 -30.55 M-1.05 -21.05 L-2.25 -20.85 -3.8 -22.15 Q-5.1 -23.05 -5.35 -22.75 L-5.7 -23.15 -5.9 -24.9 -5.7 -24.75 -5.25 -24.45 -2.7 -22.4 -1.85 -21.75 -1.05 -21.05 M-10.5 -21.85 Q-10.5 -21.75 -10.45 -21.6 -10.4 -21.35 -10.1 -21.35 -10.0 -21.35 -9.9 -21.45 -9.85 -21.55 -9.85 -21.65 -9.85 -21.9 -10.15 -22.0 -10.5 -22.15 -10.5 -21.85 M-10.95 -22.25 L-10.85 -22.35 Q-10.95 -22.6 -11.1 -22.6 -11.25 -22.55 -11.25 -22.4 L-11.25 -22.2 -11.15 -22.2 -11.05 -22.15 Q-11.0 -22.15 -10.95 -22.25 M-9.95 -18.65 L-11.1 -18.5 -10.75 -16.55 Q-11.6 -16.85 -13.45 -18.25 -15.4 -19.7 -15.65 -20.05 -15.7 -19.95 -15.7 -19.75 -15.7 -19.6 -14.55 -18.0 L-14.2 -17.6 -16.85 -20.45 -16.4 -20.95 -11.9 -20.1 -10.3 -19.2 -10.0 -18.85 -9.95 -18.65 M-13.1 -16.5 L-13.15 -16.35 -13.2 -16.4 -13.1 -16.5 M-13.35 -15.8 L-13.35 -15.85 -13.35 -15.8 M-11.15 -17.6 L-11.15 -17.65 -11.15 -17.6" fill="#ffffcc" fill-rule="evenodd" stroke="none"/>
      <path d="M-9.15 -19.6 L-9.15 -18.95 -9.55 -18.75 -10.8 -20.0 -13.15 -20.75 -15.15 -23.25 -14.1 -23.1 Q-13.25 -22.25 -11.4 -20.95 -11.65 -21.3 -11.65 -21.4 -11.65 -21.8 -10.55 -20.8 L-9.4 -19.6 -9.25 -19.55 -9.15 -19.6 M-8.5 -23.95 L-9.4 -24.5 -9.7 -24.85 -11.3 -28.15 -11.3 -29.05 -11.2 -28.85 Q-10.85 -27.85 -10.4 -27.0 L-8.4 -24.4 -8.5 -23.95 M-2.25 -20.85 L-3.75 -21.35 -4.15 -21.75 Q-4.5 -22.05 -4.95 -22.3 L-5.35 -22.75 Q-5.1 -23.05 -3.8 -22.15 L-2.25 -20.85 M-10.95 -22.25 Q-11.0 -22.15 -11.05 -22.15 L-11.15 -22.2 -11.25 -22.2 -11.25 -22.4 Q-11.25 -22.55 -11.1 -22.6 -10.95 -22.6 -10.85 -22.35 L-10.95 -22.25 M-10.5 -21.85 Q-10.5 -22.15 -10.15 -22.0 -9.85 -21.9 -9.85 -21.65 -9.85 -21.55 -9.9 -21.45 -10.0 -21.35 -10.1 -21.35 -10.4 -21.35 -10.45 -21.6 -10.5 -21.75 -10.5 -21.85 M-14.2 -17.6 L-14.55 -18.0 Q-15.7 -19.6 -15.7 -19.75 -15.7 -19.95 -15.65 -20.05 -15.4 -19.7 -13.45 -18.25 -11.6 -16.85 -10.75 -16.55 -10.75 -16.45 -10.85 -16.35 -10.9 -16.2 -11.05 -16.2 L-13.0 -16.95 -13.1 -16.5 -13.2 -16.4 -14.2 -17.6" fill="#a88d55" fill-rule="evenodd" stroke="none"/>
      <path d="M-3.7 -20.8 Q-3.6 -20.65 -3.6 -20.6 L-3.6 -20.4 -3.65 -20.35 Q-3.7 -20.3 -3.75 -20.3 L-4.5 -21.1 -3.7 -20.8" fill="#665542" fill-rule="evenodd" stroke="none"/>
      <path d="M-9.1 -8.15 L-9.1 -8.1 -9.15 -8.05 -9.1 -8.0 -9.1 -7.8 -9.2 -7.85 -9.3 -7.8 -9.5 -8.0 Q-10.3 -8.55 -11.65 -10.1 -13.2 -11.95 -13.35 -12.85 L-15.25 -12.2 -16.5 -11.75 -17.05 -11.55 -17.9 -11.2 -17.95 -11.25 -18.05 -11.25 -17.45 -12.15 Q-16.6 -13.45 -16.6 -13.6 -16.6 -14.2 -16.9 -13.9 -17.25 -14.0 -18.35 -13.95 L-19.0 -13.85 -19.0 -13.9 -19.05 -13.9 -19.2 -13.95 -19.25 -14.1 -18.7 -14.65 Q-17.65 -15.65 -17.5 -15.9 L-17.45 -15.95 -17.3 -16.0 -17.3 -16.05 -17.25 -16.1 Q-17.8 -16.35 -18.4 -16.75 -19.95 -17.65 -19.95 -18.0 L-19.9 -18.15 -19.9 -18.2 -19.35 -18.1 -19.05 -18.05 -18.9 -18.05 -18.9 -18.1 -18.8 -18.1 -18.9 -18.15 -18.9 -18.2 -19.4 -18.8 -19.65 -19.05 -19.9 -19.35 Q-20.45 -20.05 -20.7 -20.65 -21.0 -21.25 -21.0 -21.65 L-21.0 -21.9 -20.4 -21.45 Q-19.35 -20.75 -18.45 -20.75 -18.25 -20.75 -18.2 -20.8 L-18.1 -20.95 -18.05 -21.0 -18.05 -21.2 Q-18.05 -21.25 -18.05 -21.3 L-17.95 -21.3 Q-18.25 -21.5 -18.6 -22.2 -19.05 -23.0 -19.25 -23.75 -19.55 -24.6 -19.65 -25.0 -19.75 -25.55 -19.75 -26.25 -19.75 -27.75 -19.55 -28.25 L-19.05 -27.45 Q-18.25 -26.25 -17.7 -25.9 -17.45 -25.6 -17.25 -25.5 L-17.25 -25.45 -17.05 -25.4 Q-16.9 -25.4 -16.85 -25.45 L-16.8 -25.55 Q-16.9 -25.9 -16.85 -26.4 L-16.8 -26.8 Q-16.65 -27.55 -16.2 -28.5 -15.9 -29.2 -15.05 -30.4 L-14.85 -30.65 -14.8 -30.6 Q-14.75 -29.9 -14.6 -29.2 -14.35 -27.8 -14.0 -27.75 L-13.95 -27.7 Q-13.95 -27.55 -13.8 -27.4 L-13.6 -27.45 -13.6 -27.6 -13.55 -27.6 -13.55 -27.95 -13.45 -28.45 -13.3 -29.35 Q-13.25 -29.65 -12.95 -30.4 L-12.85 -30.75 -12.7 -30.3 Q-12.35 -29.25 -11.95 -29.25 L-11.9 -29.25 -11.8 -29.25 -11.8 -29.3 -11.75 -29.45 -11.8 -29.5 Q-11.0 -32.65 -10.6 -32.8 -10.45 -31.95 -10.2 -31.05 -9.75 -29.5 -9.3 -29.25 L-9.3 -29.1 -9.25 -29.05 -9.2 -29.05 -9.2 -29.0 -9.1 -28.9 -9.05 -29.05 Q-8.75 -29.15 -8.25 -30.75 -7.85 -31.95 -7.75 -32.4 -7.45 -32.2 -7.15 -31.0 -6.9 -30.05 -6.85 -29.35 L-6.85 -29.15 -6.8 -28.9 Q-6.8 -28.55 -7.0 -27.6 L-7.1 -27.1 Q-7.1 -26.9 -7.05 -26.75 L-6.95 -26.6 Q-6.9 -26.75 -6.55 -26.9 L-6.4 -27.0 Q-6.25 -27.1 -6.15 -27.1 L-5.95 -27.15 Q-5.9 -27.2 -5.9 -27.1 -5.75 -27.15 -5.75 -26.95 L-5.8 -26.35 -5.9 -25.7 -5.9 -25.6 Q-5.6 -25.4 -5.2 -24.9 -5.1 -25.15 -4.5 -25.75 -4.25 -26.05 -4.15 -26.1 L-4.05 -26.15 Q-3.2 -27.0 -2.6 -27.35 -2.35 -27.5 -2.2 -27.5 L-2.1 -27.5 -2.05 -27.55 -2.05 -27.5 Q-1.7 -27.45 -1.75 -26.8 -1.8 -25.9 -1.75 -25.55 -1.6 -24.65 -1.0 -23.35 L0.05 -21.35 Q1.8 -22.15 3.7 -19.95 4.4 -19.2 4.9 -18.2 5.35 -17.35 5.35 -17.0 L5.3 -16.5 5.3 -16.05 Q5.5 -15.2 6.3 -14.1 L7.85 -12.3 8.0 -12.25 Q8.65 -12.25 9.25 -13.1 9.75 -13.8 9.75 -14.1 9.75 -14.25 9.7 -14.4 L9.75 -14.65 Q10.35 -14.35 10.7 -13.5 11.0 -12.7 11.0 -11.95 11.0 -10.9 10.5 -10.0 9.95 -9.1 8.95 -8.4 L8.75 -7.6 Q8.5 -6.95 8.4 -6.65 L8.25 -6.6 Q8.15 -6.75 8.1 -7.0 8.25 -7.05 8.35 -7.3 8.4 -7.55 8.4 -7.75 8.4 -8.5 7.6 -9.95 7.15 -10.75 6.75 -11.1 6.75 -11.4 7.0 -11.75 L7.3 -12.0 7.4 -12.1 Q6.9 -12.6 6.2 -13.75 5.25 -15.3 5.1 -15.7 L5.1 -15.75 5.05 -15.8 5.05 -15.85 Q4.85 -17.4 4.2 -18.6 2.9 -21.1 0.25 -21.1 L0.05 -21.15 -0.05 -21.05 Q-1.25 -22.95 -1.7 -23.95 -2.4 -25.7 -2.15 -27.15 -2.7 -26.75 -3.45 -26.0 -4.4 -25.15 -4.65 -24.6 L-4.8 -24.55 -4.85 -24.6 -4.85 -24.75 -5.05 -24.75 -5.05 -24.8 -5.1 -24.75 -4.95 -24.55 -4.25 -24.0 Q-3.8 -23.6 -3.4 -23.35 -1.7 -22.35 -0.45 -20.95 L-0.45 -20.85 Q-0.5 -20.8 -0.6 -20.8 L-0.95 -21.05 Q-0.95 -21.15 -1.15 -21.2 L-1.25 -21.3 -1.25 -21.25 -1.3 -21.2 Q-1.45 -21.2 -2.95 -21.2 L-3.4 -21.2 Q-3.8 -21.25 -4.1 -21.35 L-3.45 -20.85 -3.4 -20.55 -3.45 -20.55 Q-3.65 -20.55 -3.95 -20.75 L-3.7 -20.25 -3.4 -19.85 -3.4 -19.75 Q-3.4 -19.7 -3.5 -19.7 -3.6 -19.7 -3.7 -19.85 L-4.05 -19.45 Q-4.55 -18.8 -5.0 -18.45 L-5.1 -18.45 Q-5.2 -18.5 -5.2 -18.6 L-4.35 -19.9 -4.4 -20.1 -4.35 -20.25 Q-4.35 -20.65 -4.7 -21.4 L-4.9 -21.85 -5.25 -22.15 Q-5.4 -22.35 -5.55 -22.6 L-5.75 -22.8 -5.9 -23.05 -6.0 -22.95 -6.1 -22.9 Q-6.4 -22.95 -6.7 -22.65 L-6.75 -22.6 -7.05 -22.25 -7.05 -22.35 -7.0 -22.55 -6.85 -22.75 Q-6.8 -22.95 -6.55 -23.05 -6.3 -23.2 -6.0 -23.15 -6.35 -23.75 -6.4 -24.8 L-6.4 -26.3 -7.6 -24.85 -7.65 -24.85 -8.0 -24.15 -8.5 -23.1 -8.55 -22.8 -8.55 -22.6 -8.45 -22.6 -8.3 -22.55 Q-8.1 -22.4 -7.8 -22.15 -7.45 -21.8 -7.2 -21.5 L-7.2 -21.3 Q-7.2 -20.85 -6.85 -20.35 L-6.7 -20.15 -6.75 -19.95 -6.85 -19.85 -6.95 -20.1 -6.95 -20.15 -7.05 -20.3 Q-7.1 -20.7 -7.3 -21.2 -7.5 -21.55 -7.75 -21.85 -8.05 -22.35 -8.3 -22.35 -8.5 -22.35 -8.6 -22.3 L-8.6 -22.15 -8.65 -22.05 Q-8.85 -21.95 -8.95 -21.6 L-9.0 -21.2 -9.05 -21.1 Q-9.0 -20.55 -8.9 -20.3 -8.7 -19.8 -8.55 -19.15 L-8.5 -19.0 -8.55 -18.85 -8.55 -18.8 -8.6 -18.8 -8.75 -18.7 -8.75 -18.6 -9.6 -18.55 -10.2 -18.4 -10.45 -18.45 -10.65 -18.5 -10.85 -18.45 -10.75 -18.2 Q-10.8 -18.1 -10.8 -18.05 L-10.7 -17.55 -10.7 -17.3 -10.55 -16.7 -10.5 -16.3 -10.45 -16.25 Q-10.5 -15.95 -10.6 -15.6 L-10.65 -15.7 -10.9 -15.9 Q-11.3 -16.1 -12.0 -16.55 L-12.55 -16.7 -12.6 -16.55 Q-12.7 -16.55 -12.75 -16.4 L-12.8 -16.3 Q-12.85 -16.0 -12.9 -15.4 L-12.95 -13.75 Q-12.95 -12.95 -12.75 -12.45 -12.55 -11.95 -11.85 -10.95 -11.35 -10.3 -10.35 -9.25 -9.3 -8.15 -9.1 -8.15 M4.25 -13.1 Q4.0 -13.25 3.7 -13.45 2.65 -13.9 1.6 -14.8 L1.15 -15.2 1.2 -14.95 1.15 -14.85 1.25 -14.7 Q1.2 -14.6 1.1 -14.6 L1.1 -14.65 1.0 -14.55 Q0.75 -14.3 0.3 -14.3 -0.55 -14.3 -0.95 -15.0 -1.15 -15.35 -1.2 -15.7 -1.2 -16.5 -0.85 -16.7 L-1.05 -16.85 -1.35 -16.8 -1.9 -16.8 -2.15 -16.65 Q-2.3 -16.55 -2.4 -16.55 L-2.5 -16.55 Q-2.9 -16.35 -3.3 -16.3 L-3.85 -16.3 -4.25 -16.65 Q-4.45 -16.75 -4.6 -16.95 -4.9 -17.25 -4.9 -17.45 L-4.85 -17.65 Q-4.75 -18.1 -4.05 -18.85 -3.65 -19.35 -3.3 -19.6 L-3.05 -19.75 Q-2.55 -20.15 -2.15 -20.4 -1.9 -20.55 -1.65 -20.6 L-1.25 -20.7 Q-0.5 -20.75 0.3 -20.25 0.8 -19.9 1.7 -18.95 2.2 -18.75 2.85 -17.85 3.65 -16.8 3.65 -16.4 L3.6 -16.3 Q4.0 -15.9 5.2 -14.1 L5.2 -14.05 5.3 -13.95 Q5.95 -13.1 5.95 -12.8 L5.95 -12.6 Q5.9 -12.45 5.7 -12.3 L5.55 -12.3 Q5.5 -12.3 5.5 -12.4 L5.55 -12.5 Q5.7 -12.5 5.7 -12.7 L5.75 -12.75 5.75 -12.85 Q5.75 -13.05 5.6 -13.25 5.45 -13.45 5.25 -13.45 4.95 -13.5 4.95 -13.05 4.95 -13.1 4.95 -13.15 4.95 -13.2 5.0 -13.35 L5.05 -13.4 5.05 -13.45 5.15 -13.55 5.25 -13.55 4.85 -14.15 4.6 -14.4 Q4.25 -14.65 4.15 -14.9 L3.95 -14.75 Q3.9 -14.75 3.9 -14.85 3.9 -15.0 4.1 -15.0 L4.05 -15.05 3.75 -15.65 Q3.55 -16.05 3.5 -16.25 L3.45 -16.35 3.4 -16.25 Q3.35 -16.1 3.1 -15.9 L3.05 -15.9 Q3.0 -15.9 3.0 -16.0 3.0 -16.1 3.1 -16.3 L3.15 -16.6 Q3.15 -16.75 3.1 -16.95 L2.85 -17.4 2.75 -17.5 Q2.4 -17.9 2.2 -18.2 1.65 -18.7 0.95 -18.85 L0.7 -18.55 Q0.4 -18.25 0.2 -18.1 L0.55 -18.85 Q0.75 -19.15 0.9 -19.3 L0.75 -19.5 Q-0.2 -20.4 -1.2 -20.4 -1.8 -20.4 -2.45 -19.9 L-2.6 -19.8 -2.6 -19.75 -3.6 -18.6 -4.1 -18.05 -4.15 -18.05 Q-4.35 -17.95 -4.4 -17.8 -4.5 -17.75 -4.55 -17.6 L-4.55 -17.55 -4.65 -17.6 -4.7 -17.5 -4.55 -17.35 Q-4.55 -17.05 -4.25 -16.8 -3.85 -16.45 -3.15 -16.45 -2.9 -16.45 -2.7 -16.65 -2.6 -16.8 -2.55 -16.9 L-2.5 -16.95 -2.55 -17.05 -2.5 -17.15 Q-2.5 -17.35 -2.6 -17.5 L-2.55 -17.55 -2.6 -17.7 Q-2.8 -18.05 -3.55 -18.2 L-3.6 -18.3 Q-3.05 -18.4 -2.7 -18.05 -2.65 -17.85 -2.55 -17.7 -2.45 -17.5 -2.3 -17.35 L-2.0 -17.05 -1.75 -17.1 -1.5 -17.1 -0.95 -17.15 -0.55 -17.15 -0.7 -17.3 -0.6 -17.35 -0.1 -16.8 0.1 -16.65 0.35 -16.45 0.9 -15.85 Q1.5 -15.35 1.85 -15.2 L2.05 -15.1 2.45 -14.8 2.8 -14.5 Q3.25 -14.1 3.45 -14.05 L4.05 -13.65 Q4.35 -13.2 4.65 -13.2 L4.7 -13.2 4.95 -13.0 5.05 -12.95 5.0 -12.85 Q5.05 -12.8 5.0 -12.8 L4.9 -12.8 Q4.75 -12.8 4.55 -12.95 4.4 -13.0 4.25 -13.1 M6.6 -11.9 L6.5 -11.9 6.6 -11.95 6.65 -11.9 6.6 -11.9 M1.15 -19.05 L1.15 -19.05 M-0.5 -14.75 Q-0.3 -14.45 0.15 -14.45 0.5 -14.45 0.7 -14.75 0.8 -14.95 0.8 -15.2 0.8 -15.45 0.6 -15.7 L0.5 -15.8 -0.05 -16.15 -0.25 -16.3 Q-0.5 -16.3 -0.65 -16.1 -0.85 -15.9 -0.85 -15.45 -0.8 -15.25 -0.75 -15.05 -0.65 -14.85 -0.5 -14.75 M8.35 -8.9 L8.6 -9.0 Q9.2 -9.4 9.75 -10.2 10.5 -11.35 10.5 -12.1 10.5 -12.55 10.3 -13.1 L10.15 -13.65 10.1 -13.75 Q10.05 -13.15 9.25 -12.4 8.4 -11.6 7.2 -11.35 7.1 -11.25 7.1 -11.15 L7.1 -11.1 7.65 -10.1 7.8 -9.8 7.95 -9.55 Q8.1 -9.2 8.15 -8.95 L8.2 -8.9 8.2 -8.75 8.35 -8.9 M-15.1 -28.4 Q-15.25 -28.9 -15.25 -29.4 L-15.2 -29.55 -15.3 -29.45 -15.6 -28.85 Q-16.25 -27.5 -16.25 -26.35 L-16.25 -26.2 Q-16.15 -25.9 -16.05 -25.4 L-15.95 -24.95 -15.35 -24.75 -15.0 -24.6 -15.0 -24.55 -14.7 -24.45 Q-13.7 -24.1 -12.75 -23.4 L-12.45 -23.2 Q-11.8 -22.75 -11.3 -22.25 L-11.1 -22.1 -10.45 -21.55 -10.6 -21.6 -10.05 -21.1 -10.05 -21.0 -10.15 -21.0 Q-10.45 -21.0 -11.0 -21.4 L-12.15 -22.3 -12.35 -22.5 -12.85 -22.75 -13.4 -23.0 Q-15.05 -23.85 -16.45 -24.3 -17.2 -24.55 -18.45 -26.0 L-18.9 -26.6 -19.3 -27.2 -19.35 -26.95 Q-19.35 -26.25 -19.2 -25.6 -19.1 -25.1 -18.9 -24.6 -18.75 -24.4 -18.65 -24.1 L-18.5 -23.65 -18.4 -23.45 -17.7 -22.25 Q-17.25 -21.65 -16.75 -21.3 -15.1 -21.4 -13.05 -20.9 L-12.9 -20.85 Q-10.3 -20.25 -9.25 -19.25 L-9.35 -19.85 Q-9.45 -20.55 -9.45 -20.9 L-9.4 -21.25 -9.35 -21.85 Q-9.75 -22.0 -11.1 -23.25 -12.55 -24.55 -13.35 -25.45 -14.25 -26.5 -14.7 -27.35 -15.0 -27.9 -15.1 -28.4 M-12.65 -28.9 L-12.85 -29.05 -12.9 -29.05 -12.9 -29.1 -12.95 -28.8 -13.05 -28.5 -13.1 -28.1 -13.15 -27.8 -13.05 -26.7 -13.0 -26.45 -12.3 -25.6 -11.55 -24.75 -11.1 -24.35 -10.6 -23.9 -10.35 -23.65 Q-9.55 -22.95 -9.2 -22.5 L-9.15 -22.65 -8.85 -23.4 -8.65 -23.85 -8.65 -24.0 Q-8.65 -24.1 -8.75 -24.2 L-9.05 -24.6 -9.65 -25.25 -10.3 -26.05 -10.45 -26.25 -10.7 -26.5 Q-11.05 -26.9 -11.65 -27.75 -11.95 -28.15 -12.25 -28.4 -12.45 -28.7 -12.65 -28.9 M-8.5 -24.9 L-8.35 -24.7 -8.35 -24.65 -8.3 -24.6 Q-8.05 -25.05 -7.4 -25.85 L-7.75 -26.1 Q-8.05 -26.25 -8.3 -26.6 -8.75 -26.95 -9.25 -27.95 L-9.7 -28.65 Q-10.15 -29.55 -10.4 -30.45 L-10.65 -31.1 -10.65 -31.05 -11.1 -30.4 Q-11.3 -30.0 -11.4 -29.55 L-11.4 -28.55 -10.25 -27.0 -8.95 -25.45 -8.5 -24.9 M-8.65 -28.75 L-8.7 -28.7 -8.7 -28.6 Q-8.7 -28.55 -8.8 -28.3 L-8.4 -27.65 -7.75 -26.9 -7.8 -27.0 -7.7 -27.25 -7.7 -27.4 -7.65 -27.75 Q-7.65 -27.85 -7.35 -28.6 L-7.25 -28.8 -7.25 -29.1 -7.3 -29.7 -7.4 -30.05 -7.7 -31.05 Q-7.85 -29.9 -8.65 -28.75 M-5.05 -24.2 Q-5.55 -24.65 -5.8 -24.95 -5.6 -23.75 -4.8 -22.2 -4.05 -21.6 -1.55 -21.5 L-1.9 -21.75 -3.8 -23.2 Q-4.1 -23.4 -5.05 -24.2 M-8.6 -24.05 L-8.6 -24.05 M-15.55 -19.35 L-14.8 -18.6 Q-13.95 -17.65 -13.35 -16.8 L-13.3 -16.7 -13.25 -17.65 Q-12.7 -17.4 -11.9 -16.9 L-10.8 -16.2 -11.0 -16.95 Q-11.3 -18.3 -11.3 -18.7 -11.3 -18.85 -11.25 -18.9 -11.2 -18.95 -11.0 -18.95 L-10.5 -18.85 -10.05 -18.8 -10.05 -18.9 -9.95 -18.9 -10.4 -19.25 -11.15 -19.55 -11.45 -19.7 Q-12.55 -20.1 -13.7 -20.4 L-14.05 -20.45 -14.35 -20.5 -14.95 -20.55 -15.15 -20.55 -15.75 -20.65 -16.5 -20.7 -16.55 -20.7 -16.65 -20.75 -17.1 -20.75 -16.65 -20.4 Q-16.25 -20.1 -15.85 -19.65 L-15.55 -19.35 M-0.4 -16.95 L-0.45 -17.05 -0.55 -17.0 -0.4 -16.95 M-2.35 -17.2 L-2.35 -17.2 M-17.45 -20.2 L-17.5 -20.25 -18.5 -20.45 -19.2 -20.6 -19.4 -20.65 -19.95 -20.8 -20.25 -20.75 -20.3 -20.75 -20.35 -20.7 -20.3 -20.65 Q-20.3 -20.5 -20.1 -20.25 -19.9 -19.95 -19.45 -19.4 L-19.4 -19.3 -18.45 -18.5 Q-18.2 -18.4 -17.95 -18.35 L-17.95 -18.3 -17.55 -18.2 -16.95 -18.3 -16.0 -18.6 -15.8 -18.65 -16.15 -19.0 -17.45 -20.2 M-14.05 -16.5 L-14.5 -17.25 -14.55 -17.4 -15.35 -18.2 -15.4 -18.2 -16.05 -18.05 -16.15 -18.05 Q-16.5 -17.9 -17.5 -17.8 L-17.55 -17.8 -18.85 -17.65 -18.65 -17.55 Q-17.9 -17.0 -16.1 -16.3 -15.0 -15.9 -14.4 -15.75 L-13.7 -15.7 Q-13.55 -15.75 -13.5 -15.8 L-13.35 -15.8 -13.6 -16.2 -13.6 -16.05 -13.7 -15.95 -14.05 -16.5 M-18.4 -14.4 L-17.9 -14.45 -17.55 -14.5 -16.25 -14.35 -15.95 -14.75 -15.45 -15.4 Q-16.2 -15.55 -16.95 -15.8 L-17.55 -15.2 -18.45 -14.4 -18.4 -14.4 M-13.85 -15.25 L-14.8 -15.3 -15.65 -14.15 -17.1 -12.15 -17.15 -12.1 Q-16.5 -12.25 -15.9 -12.45 -15.2 -12.7 -14.6 -12.95 -13.95 -13.25 -13.35 -13.35 L-13.35 -13.65 -13.4 -14.7 -13.35 -15.3 -13.85 -15.25" fill="#000000" fill-rule="evenodd" stroke="none"/>
      <path d="M7.1 -11.15 Q7.1 -11.25 7.2 -11.35 8.4 -11.6 9.25 -12.4 10.05 -13.15 10.1 -13.75 L10.15 -13.65 10.3 -13.1 Q10.5 -12.55 10.5 -12.1 10.5 -11.35 9.75 -10.2 9.2 -9.4 8.6 -9.0 L8.35 -8.9 8.2 -8.9 8.15 -8.95 Q8.85 -9.15 9.7 -10.55 L9.65 -10.75 9.1 -10.2 Q8.4 -9.6 7.95 -9.55 L7.8 -9.8 Q7.7 -10.15 7.5 -10.55 L7.1 -11.15 M9.85 -11.65 Q9.85 -11.85 9.6 -11.9 9.35 -11.95 9.35 -11.65 9.35 -11.55 9.35 -11.5 L9.35 -11.45 9.65 -11.4 Q9.85 -11.5 9.85 -11.65 M-18.9 -26.6 L-18.45 -26.0 Q-17.2 -24.55 -16.45 -24.3 -15.05 -23.85 -13.4 -23.0 L-12.85 -22.75 -12.75 -22.65 -12.8 -22.45 -12.85 -22.45 -13.0 -22.4 Q-12.8 -22.0 -12.8 -21.6 L-12.8 -21.4 -12.85 -21.2 -13.8 -21.5 -15.85 -22.1 Q-16.5 -22.4 -16.9 -22.95 L-17.55 -23.95 Q-18.0 -24.6 -18.9 -26.55 L-18.9 -26.6 M-10.35 -23.9 L-10.7 -24.25 Q-12.6 -26.5 -12.6 -27.8 -12.6 -28.55 -12.65 -28.9 -12.45 -28.7 -12.25 -28.4 -11.95 -28.15 -11.65 -27.75 -11.05 -26.9 -10.7 -26.5 L-10.45 -26.25 -10.3 -26.05 -9.65 -25.25 -9.05 -24.6 -8.75 -24.2 Q-8.65 -24.1 -8.65 -24.0 L-8.65 -23.85 -8.85 -23.4 Q-8.95 -23.35 -9.1 -23.35 -9.4 -23.35 -9.75 -23.9 L-10.35 -23.9 M-7.7 -27.4 L-7.9 -27.75 Q-8.35 -28.6 -8.65 -28.75 -7.85 -29.9 -7.7 -31.05 L-7.4 -30.05 -7.3 -29.7 -7.25 -29.1 -7.25 -28.8 -7.35 -28.6 Q-7.65 -27.85 -7.65 -27.75 L-7.7 -27.4 M-15.55 -23.2 L-15.7 -23.05 -15.65 -22.85 -15.55 -22.8 -15.45 -22.8 Q-15.3 -22.8 -15.25 -22.9 -15.15 -22.95 -15.15 -23.1 -15.15 -23.2 -15.2 -23.2 L-15.2 -23.25 -15.55 -23.2 M-17.5 -20.25 L-17.45 -20.2 -16.15 -19.0 Q-16.8 -19.05 -17.0 -19.2 L-17.35 -19.55 Q-17.65 -19.85 -18.15 -20.15 L-18.5 -20.45 -17.5 -20.25 M-20.3 -20.65 L-20.35 -20.7 -20.3 -20.75 -20.25 -20.75 -20.3 -20.75 -20.3 -20.65 M-17.55 -17.8 L-17.5 -17.8 Q-16.5 -17.9 -16.15 -18.05 L-16.05 -18.05 -15.4 -18.2 -15.35 -18.2 -14.55 -17.4 -14.5 -17.25 -14.05 -16.5 Q-15.25 -16.75 -16.0 -17.15 L-17.55 -17.8 M-15.9 -12.45 Q-15.45 -12.9 -14.95 -13.6 -14.1 -14.75 -13.85 -15.25 L-13.35 -15.3 -13.4 -14.7 -13.35 -13.65 -13.35 -13.35 Q-13.95 -13.25 -14.6 -12.95 -15.2 -12.7 -15.9 -12.45 M-14.15 -13.85 L-14.05 -13.9 Q-14.05 -14.05 -14.1 -14.1 L-14.25 -14.05 -14.25 -13.9 -14.2 -13.85 -14.15 -13.85" fill="#ffffcc" fill-rule="evenodd" stroke="none"/>
      <path d="M7.95 -9.55 Q8.4 -9.6 9.1 -10.2 L9.65 -10.75 9.7 -10.55 Q8.85 -9.15 8.15 -8.95 8.1 -9.2 7.95 -9.55 M9.85 -11.65 Q9.85 -11.5 9.65 -11.4 L9.35 -11.45 9.35 -11.5 Q9.35 -11.55 9.35 -11.65 9.35 -11.95 9.6 -11.9 9.85 -11.85 9.85 -11.65 M-14.7 -24.45 L-15.0 -24.55 -15.0 -24.6 -15.35 -24.75 -15.95 -24.95 -16.05 -25.4 Q-16.15 -25.9 -16.25 -26.2 L-16.25 -26.35 Q-16.25 -27.5 -15.6 -28.85 L-15.3 -29.45 -15.2 -29.55 -15.25 -29.4 Q-15.25 -28.9 -15.1 -28.4 L-15.15 -28.25 Q-15.3 -27.2 -15.3 -27.0 L-15.25 -26.5 -15.2 -25.95 Q-15.2 -25.9 -14.9 -25.1 L-14.7 -24.45 M-13.05 -20.9 Q-15.1 -21.4 -16.75 -21.3 -17.25 -21.65 -17.7 -22.25 L-18.4 -23.45 -18.5 -23.65 -18.65 -24.1 Q-18.75 -24.4 -18.9 -24.6 -19.1 -25.1 -19.2 -25.6 -19.35 -26.25 -19.35 -26.95 L-19.3 -27.2 -18.9 -26.6 -18.9 -26.55 Q-18.0 -24.6 -17.55 -23.95 L-16.9 -22.95 Q-16.5 -22.4 -15.85 -22.1 L-13.8 -21.5 -12.85 -21.2 -12.9 -21.1 Q-12.95 -20.95 -13.05 -20.9 M-12.9 -29.05 L-12.85 -29.05 -12.65 -28.9 Q-12.6 -28.55 -12.6 -27.8 -12.6 -26.5 -10.7 -24.25 L-10.35 -23.9 -10.6 -23.9 -11.1 -24.35 -11.55 -24.75 -12.3 -25.6 -13.0 -26.45 -13.05 -26.7 -13.15 -27.8 -13.1 -28.1 -13.05 -28.5 -12.95 -28.8 -12.9 -28.8 -12.9 -29.05 M-9.15 -22.65 L-9.2 -22.5 Q-9.55 -22.95 -10.35 -23.65 -10.15 -23.6 -9.85 -23.35 -9.4 -22.95 -9.15 -22.65 M-8.95 -25.45 L-9.15 -25.9 Q-8.95 -26.0 -8.65 -25.55 L-8.25 -24.9 -8.25 -24.85 -8.3 -24.8 -8.5 -24.9 -8.95 -25.45 M-7.7 -27.4 L-7.7 -27.25 -7.8 -27.0 -7.75 -26.9 -8.4 -27.65 -8.8 -28.3 Q-8.7 -28.55 -8.7 -28.6 L-8.7 -28.7 -8.65 -28.75 Q-8.35 -28.6 -7.9 -27.75 L-7.7 -27.4 M-15.15 -20.55 Q-14.7 -20.4 -14.65 -20.3 L-14.65 -20.15 -14.7 -20.15 -14.8 -20.1 Q-15.05 -20.1 -15.6 -20.25 L-16.2 -20.4 Q-15.75 -20.0 -15.35 -19.5 L-15.35 -19.4 Q-15.4 -19.35 -15.5 -19.35 L-15.55 -19.35 -15.85 -19.65 Q-16.25 -20.1 -16.65 -20.4 L-17.1 -20.75 -16.65 -20.75 -16.55 -20.7 -16.5 -20.7 -15.75 -20.65 -15.15 -20.55 M-15.55 -23.2 L-15.2 -23.25 -15.2 -23.2 Q-15.15 -23.2 -15.15 -23.1 -15.15 -22.95 -15.25 -22.9 -15.3 -22.8 -15.45 -22.8 L-15.55 -22.8 -15.65 -22.85 -15.7 -23.05 -15.55 -23.2 M-13.1 -24.5 L-13.15 -24.45 -13.2 -24.45 -13.35 -24.4 -13.45 -24.45 -13.55 -24.45 -13.6 -24.6 Q-13.6 -24.8 -13.35 -24.8 -13.1 -24.85 -13.1 -24.6 L-13.1 -24.5 M-16.15 -19.0 L-15.8 -18.65 -16.0 -18.6 -16.95 -18.3 -17.55 -18.2 -17.95 -18.3 -17.95 -18.35 Q-18.2 -18.4 -18.45 -18.5 L-19.4 -19.3 -19.45 -19.4 Q-19.9 -19.95 -20.1 -20.25 -20.3 -20.5 -20.3 -20.65 L-20.3 -20.75 -20.25 -20.75 -19.95 -20.8 -19.4 -20.65 -19.2 -20.6 -18.5 -20.45 -18.15 -20.15 Q-17.65 -19.85 -17.35 -19.55 L-17.0 -19.2 Q-16.8 -19.05 -16.15 -19.0 M-17.55 -17.8 L-16.0 -17.15 Q-15.25 -16.75 -14.05 -16.5 L-13.7 -15.95 -13.6 -16.05 -13.6 -16.2 -13.35 -15.8 -13.5 -15.8 Q-13.55 -15.75 -13.7 -15.7 L-14.4 -15.75 Q-15.0 -15.9 -16.1 -16.3 -17.9 -17.0 -18.65 -17.55 L-18.85 -17.65 -17.55 -17.8 M-18.4 -14.4 L-18.45 -14.4 -17.55 -15.2 -16.95 -15.8 Q-16.2 -15.55 -15.45 -15.4 L-15.95 -14.75 -16.25 -14.35 -17.55 -14.5 -17.9 -14.45 -18.4 -14.4 M-11.85 -18.85 L-11.95 -18.8 Q-12.05 -18.8 -12.85 -19.15 -13.75 -19.6 -13.95 -19.8 -13.75 -20.0 -12.9 -19.6 -12.15 -19.2 -11.85 -18.85 M-15.9 -12.45 Q-16.5 -12.25 -17.15 -12.1 L-17.1 -12.15 -15.65 -14.15 -14.8 -15.3 -13.85 -15.25 Q-14.1 -14.75 -14.95 -13.6 -15.45 -12.9 -15.9 -12.45 M-14.15 -13.85 L-14.2 -13.85 -14.25 -13.9 -14.25 -14.05 -14.1 -14.1 Q-14.05 -14.05 -14.05 -13.9 L-14.15 -13.85" fill="#a88d55" fill-rule="evenodd" stroke="none"/>
      <path d="M7.1 -11.15 L7.5 -10.55 Q7.7 -10.15 7.8 -9.8 L7.65 -10.1 7.1 -11.1 7.1 -11.15" fill="#b6eff3" fill-rule="evenodd" stroke="none"/>
      <path d="M3.25 -11.45 L3.15 -11.45 Q2.85 -11.45 2.85 -11.7 2.85 -12.0 3.15 -11.95 3.4 -11.95 3.4 -11.7 3.4 -11.6 3.3 -11.5 L3.25 -11.45 M2.15 -13.5 L2.4 -13.5 Q3.2 -13.6 3.2 -13.05 3.2 -12.8 3.0 -12.65 2.75 -12.5 2.25 -12.5 1.75 -12.5 1.6 -12.7 1.55 -12.8 1.55 -12.95 1.55 -13.35 2.15 -13.5 M-1.65 -20.6 L-3.0 -20.7 -3.0 -20.55 -3.2 -20.6 -3.35 -20.6 -3.35 -20.55 -3.4 -20.55 -3.45 -20.85 -3.5 -21.1 Q-3.5 -21.15 -3.4 -21.2 L-2.95 -21.2 Q-1.45 -21.2 -1.3 -21.2 L-1.25 -21.25 -1.15 -21.2 Q-0.95 -21.15 -0.95 -21.05 -0.95 -20.8 -1.15 -20.7 L-1.25 -20.7 -1.65 -20.6 M-8.0 -19.65 Q-8.05 -19.6 -8.1 -19.55 -8.15 -19.5 -8.2 -19.5 L-7.95 -19.2 -7.95 -19.05 -8.0 -19.0 -8.15 -19.0 Q-8.35 -19.0 -8.55 -19.15 -8.7 -19.8 -8.9 -20.3 -9.0 -20.55 -9.05 -21.1 L-9.0 -21.2 -8.95 -21.6 Q-8.85 -21.95 -8.65 -22.05 -8.8 -21.8 -8.8 -21.2 -8.8 -20.85 -8.7 -20.45 -8.45 -19.8 -8.0 -19.65 M-8.75 -18.6 Q-8.45 -18.6 -8.45 -18.5 -8.45 -18.25 -8.85 -18.1 -9.35 -17.85 -10.25 -17.85 -10.05 -17.45 -10.0 -17.05 L-9.95 -16.35 Q-9.1 -16.3 -9.15 -15.3 L-9.15 -15.1 Q-9.15 -14.9 -9.15 -14.6 -9.2 -14.05 -9.1 -13.5 -9.05 -13.7 -8.9 -13.7 -8.65 -13.75 -8.25 -13.35 -7.9 -13.0 -7.6 -12.45 -7.3 -11.95 -7.3 -11.65 -7.3 -11.1 -7.8 -11.1 -8.25 -11.1 -8.6 -11.55 -8.3 -10.95 -7.8 -10.1 -8.25 -10.15 -8.25 -9.7 -8.25 -9.6 -8.2 -9.5 -8.05 -9.25 -7.75 -9.25 L-7.7 -9.25 Q-7.75 -9.15 -7.75 -8.95 -7.8 -8.75 -7.65 -8.5 -7.45 -7.95 -6.85 -7.95 -6.6 -7.95 -6.45 -8.15 L-6.25 -7.8 Q-6.25 -7.7 -6.3 -7.6 L-6.2 -7.5 Q-6.2 -7.25 -6.4 -7.15 -6.55 -7.05 -6.75 -7.05 L-7.25 -7.1 -7.55 -7.2 Q-7.9 -7.2 -8.3 -7.9 L-8.4 -8.1 Q-8.8 -8.3 -9.1 -8.75 -9.3 -8.8 -9.45 -8.9 L-9.0 -8.2 -9.0 -8.15 -9.1 -8.15 Q-9.3 -8.15 -10.35 -9.25 -11.35 -10.3 -11.85 -10.95 -12.55 -11.95 -12.75 -12.45 -12.95 -12.95 -12.95 -13.75 L-12.9 -15.4 Q-12.85 -16.0 -12.8 -16.3 L-12.75 -16.4 Q-12.7 -16.55 -12.6 -16.55 L-12.55 -16.55 Q-12.3 -16.55 -12.2 -16.3 L-11.7 -16.05 Q-11.05 -15.65 -10.65 -15.35 L-10.6 -15.6 Q-10.5 -15.95 -10.45 -16.25 L-10.45 -16.35 Q-10.45 -16.65 -10.65 -17.3 L-10.7 -17.55 -10.8 -18.05 Q-10.8 -18.1 -10.75 -18.2 -10.6 -18.3 -10.2 -18.4 L-9.6 -18.55 -8.75 -18.6 M5.4 -12.5 L5.3 -12.5 Q5.05 -12.5 5.0 -12.8 5.05 -12.8 5.0 -12.85 L5.05 -12.95 4.95 -13.0 4.95 -13.05 Q4.95 -13.5 5.25 -13.45 L5.2 -13.4 5.2 -13.25 Q5.15 -13.2 5.15 -13.0 5.15 -12.95 5.2 -12.8 5.25 -12.55 5.4 -12.5 M-2.7 -18.05 L-2.75 -18.35 Q-2.75 -18.55 -2.65 -18.6 L-2.05 -18.7 Q-2.05 -18.4 -1.95 -18.15 -1.8 -17.7 -1.35 -17.7 -1.25 -17.7 -1.15 -17.8 -1.0 -17.9 -0.9 -17.9 -0.65 -17.9 -0.55 -17.7 L-0.5 -17.55 Q-0.5 -17.45 -0.6 -17.35 L-0.7 -17.3 -0.8 -17.25 -0.95 -17.15 -1.5 -17.1 -1.75 -17.1 Q-2.05 -17.15 -2.3 -17.35 -2.45 -17.5 -2.55 -17.7 -2.65 -17.85 -2.7 -18.05 M0.1 -16.65 Q-0.1 -16.9 -0.1 -16.95 -0.1 -17.3 0.05 -17.4 0.45 -16.8 1.5 -16.0 L2.45 -15.35 2.4 -15.25 Q2.45 -15.25 2.5 -15.3 2.5 -15.55 2.75 -15.45 3.05 -15.35 3.05 -15.05 L3.05 -15.0 3.7 -14.25 3.7 -14.2 3.75 -14.2 Q3.8 -14.05 4.0 -13.7 L4.05 -13.65 3.45 -14.05 Q3.25 -14.1 2.8 -14.5 L2.45 -14.8 Q2.35 -14.9 2.35 -14.95 2.35 -15.15 2.4 -15.2 2.3 -15.15 2.15 -15.15 L1.85 -15.2 Q1.5 -15.35 0.9 -15.85 L0.35 -16.45 0.1 -16.65 M4.9 -13.3 Q4.85 -13.2 4.7 -13.2 L4.8 -13.25 4.85 -13.3 4.9 -13.3 M3.8 -12.1 Q3.7 -12.0 3.55 -12.0 3.25 -12.0 3.15 -12.15 3.15 -12.25 3.15 -12.35 3.15 -12.65 3.55 -12.7 3.9 -12.7 3.9 -12.35 3.9 -12.2 3.8 -12.1 M4.95 -3.95 Q4.9 -4.05 4.9 -4.2 4.9 -4.65 5.4 -4.65 5.85 -4.7 5.85 -4.25 5.85 -4.05 5.7 -3.95 5.55 -3.8 5.4 -3.8 5.05 -3.8 4.95 -3.95 M6.05 -5.4 L6.25 -5.25 6.2 -5.15 6.05 -5.05 Q5.95 -5.05 5.9 -5.1 L5.9 -5.25 Q5.9 -5.35 5.95 -5.35 L6.05 -5.4 M6.85 -4.75 Q6.75 -4.6 6.6 -4.6 6.5 -4.6 6.4 -4.65 L6.3 -4.75 6.3 -4.85 Q6.3 -5.05 6.6 -5.15 6.95 -5.25 6.95 -5.0 6.95 -4.85 6.85 -4.75 M-7.6 -24.85 L-7.5 -24.8 -7.45 -24.75 -7.5 -24.75 Q-8.1 -24.3 -8.1 -23.2 L-8.1 -23.05 Q-8.2 -22.7 -8.3 -22.55 L-8.45 -22.6 Q-8.55 -22.7 -8.55 -22.8 L-8.5 -23.1 -8.0 -24.15 -7.65 -24.85 -7.6 -24.85 M-4.4 -17.8 L-4.45 -17.7 Q-4.3 -17.45 -4.1 -17.2 -3.6 -16.7 -3.05 -16.7 -2.75 -16.7 -2.6 -16.9 L-2.55 -17.05 -2.55 -16.9 Q-2.6 -16.8 -2.7 -16.65 -2.9 -16.45 -3.15 -16.45 -3.85 -16.45 -4.25 -16.8 -4.55 -17.05 -4.55 -17.35 L-4.55 -17.6 Q-4.5 -17.75 -4.4 -17.8 M-5.7 -11.0 Q-5.85 -10.85 -6.0 -10.85 -6.2 -10.85 -6.3 -11.0 L-6.3 -11.2 Q-6.3 -11.55 -5.95 -11.5 -5.6 -11.5 -5.6 -11.2 -5.6 -11.1 -5.7 -11.0 M-3.15 -9.75 Q-3.15 -9.65 -3.25 -9.6 -3.35 -9.5 -3.45 -9.5 -3.6 -9.5 -3.7 -9.65 L-3.7 -9.75 Q-3.7 -10.05 -3.4 -10.05 -3.15 -10.05 -3.15 -9.75 M-4.2 -10.0 Q-4.05 -10.1 -3.8 -9.8 L-3.85 -9.6 -3.9 -9.6 Q-3.95 -9.55 -4.05 -9.55 L-4.2 -9.55 -4.3 -9.6 -4.3 -9.8 Q-4.3 -9.95 -4.2 -10.0 M-3.5 -9.0 L-3.45 -9.1 -3.45 -9.15 -3.3 -9.15 -3.05 -9.1 -3.05 -9.0 Q-3.15 -8.85 -3.3 -8.8 L-3.5 -9.0 M-5.15 -9.7 Q-5.25 -9.45 -5.55 -9.45 -5.85 -9.45 -6.0 -9.65 -6.05 -9.75 -6.05 -9.85 -6.05 -10.35 -5.55 -10.45 -5.1 -10.55 -5.1 -10.05 -5.1 -9.8 -5.15 -9.7 M-6.8 -12.65 Q-6.8 -12.5 -6.95 -12.4 -7.05 -12.3 -7.2 -12.3 -7.45 -12.3 -7.5 -12.5 L-7.55 -12.65 Q-7.55 -12.95 -7.2 -12.95 -6.8 -12.95 -6.8 -12.65 M-9.45 -9.3 Q-9.45 -9.2 -9.4 -9.05 -9.25 -8.8 -8.95 -8.8 -8.75 -8.8 -8.6 -9.0 -8.5 -9.15 -8.5 -9.3 -8.5 -9.8 -9.0 -9.9 -9.45 -10.0 -9.45 -9.3 M-8.8 -10.2 L-8.9 -10.1 -8.95 -10.0 -8.95 -9.9 -8.85 -9.85 -8.8 -9.8 Q-8.6 -9.9 -8.6 -10.05 -8.7 -10.15 -8.8 -10.2 M-10.0 -12.4 Q-9.85 -12.5 -9.85 -12.65 -9.85 -12.9 -10.15 -12.9 -10.5 -12.9 -10.5 -12.6 L-10.45 -12.5 Q-10.4 -12.35 -10.2 -12.35 L-10.0 -12.4 M-10.1 -13.5 Q-10.1 -13.4 -10.05 -13.3 -9.95 -13.15 -9.7 -13.15 -9.55 -13.15 -9.45 -13.3 -9.35 -13.4 -9.35 -13.5 -9.35 -13.95 -9.75 -13.9 -10.1 -13.85 -10.1 -13.5 M-8.6 -11.95 Q-8.5 -12.1 -8.5 -12.35 -8.5 -13.0 -9.1 -13.1 -9.7 -13.25 -9.7 -12.6 -9.7 -12.35 -9.6 -12.15 -9.45 -11.75 -9.0 -11.75 -8.7 -11.75 -8.6 -11.95" fill="#665542" fill-rule="evenodd" stroke="none"/>
      <path d="M8.1 -7.0 L8.0 -7.0 Q7.8 -7.0 7.75 -7.15 7.7 -7.25 7.7 -7.35 7.7 -7.4 7.8 -7.55 7.85 -7.7 7.85 -7.8 7.85 -7.95 7.75 -8.25 L7.65 -8.2 Q7.45 -8.35 7.0 -9.45 L6.75 -10.1 6.05 -11.15 6.1 -10.75 Q6.1 -10.05 6.0 -9.75 5.8 -9.05 5.2 -9.05 4.75 -9.05 4.6 -9.25 4.55 -9.35 4.55 -9.55 4.55 -9.65 4.6 -9.8 L4.7 -10.05 Q4.7 -10.25 3.7 -11.05 L3.25 -11.45 3.3 -11.5 Q3.4 -11.6 3.4 -11.7 3.4 -11.95 3.15 -11.95 2.85 -12.0 2.85 -11.7 2.15 -11.75 1.7 -11.9 L0.85 -11.75 Q0.45 -11.75 0.3 -12.0 0.25 -12.1 0.25 -12.2 0.25 -12.6 1.2 -12.85 L1.2 -13.05 Q1.2 -13.95 2.15 -13.5 1.55 -13.35 1.55 -12.95 1.55 -12.8 1.6 -12.7 1.75 -12.5 2.25 -12.5 2.75 -12.5 3.0 -12.65 3.2 -12.8 3.2 -13.05 L4.2 -13.1 4.25 -13.1 Q4.4 -13.0 4.55 -12.95 L4.55 -12.9 5.45 -12.2 Q5.95 -11.65 6.05 -11.4 L6.05 -11.45 Q6.25 -11.45 6.45 -11.35 L6.4 -11.5 Q6.4 -11.55 6.45 -11.7 L6.6 -11.9 6.65 -11.9 6.6 -11.95 6.35 -12.15 Q6.15 -12.2 6.15 -12.3 6.15 -12.4 6.2 -12.45 L6.2 -12.55 Q6.2 -13.0 6.75 -12.65 7.15 -12.35 7.3 -12.0 L7.0 -11.75 Q6.75 -11.4 6.75 -11.1 7.15 -10.75 7.6 -9.95 8.4 -8.5 8.4 -7.75 8.4 -7.55 8.35 -7.3 8.25 -7.05 8.1 -7.0 M-3.0 -20.55 L-2.9 -20.5 -2.9 -20.15 -2.95 -20.1 Q-3.0 -20.05 -3.1 -20.05 -3.35 -20.05 -3.35 -20.2 L-3.35 -20.55 -3.35 -20.6 -3.2 -20.6 -3.0 -20.55 M-4.4 -20.1 L-4.55 -19.8 Q-4.75 -19.5 -5.2 -19.5 -6.2 -19.5 -6.7 -20.15 L-6.85 -20.35 Q-7.2 -20.85 -7.2 -21.3 L-7.2 -21.5 Q-7.15 -22.1 -6.75 -22.6 L-6.7 -22.65 Q-6.4 -22.95 -6.1 -22.9 -5.95 -22.9 -5.75 -22.8 L-5.55 -22.6 Q-5.4 -22.35 -5.25 -22.15 L-4.9 -21.85 -4.7 -21.4 Q-4.35 -20.65 -4.35 -20.25 L-4.4 -20.1 M-6.95 -20.1 L-7.0 -20.05 -6.95 -20.05 -7.05 -20.0 Q-7.1 -19.85 -7.2 -19.75 -7.35 -19.6 -7.7 -19.6 L-8.0 -19.65 Q-8.45 -19.8 -8.7 -20.45 -8.8 -20.85 -8.8 -21.2 -8.8 -21.8 -8.65 -22.05 L-8.6 -22.15 -8.55 -22.2 Q-8.3 -22.35 -7.95 -22.05 L-7.75 -21.85 Q-7.5 -21.55 -7.3 -21.2 -7.1 -20.7 -7.05 -20.3 L-6.95 -20.15 -6.95 -20.1 M-7.8 -10.1 Q-7.3 -10.05 -7.3 -9.65 -7.3 -9.55 -7.35 -9.45 L-7.05 -9.4 Q-6.35 -9.2 -6.35 -8.55 -6.35 -8.3 -6.45 -8.15 -6.6 -7.95 -6.85 -7.95 -7.45 -7.95 -7.65 -8.5 -7.8 -8.75 -7.75 -8.95 -7.75 -9.15 -7.7 -9.25 L-7.75 -9.25 Q-8.05 -9.25 -8.2 -9.5 -8.25 -9.6 -8.25 -9.7 -8.25 -10.15 -7.8 -10.1 M5.55 -12.5 L5.4 -12.5 Q5.25 -12.55 5.2 -12.8 5.15 -12.95 5.15 -13.0 5.15 -13.2 5.2 -13.25 L5.2 -13.4 5.25 -13.45 Q5.45 -13.45 5.6 -13.25 5.75 -13.05 5.75 -12.85 L5.75 -12.75 5.7 -12.7 Q5.7 -12.5 5.55 -12.5 M-4.1 -18.05 Q-3.85 -18.15 -3.5 -18.05 -2.75 -17.9 -2.6 -17.5 -2.5 -17.35 -2.5 -17.15 L-2.55 -17.05 -2.6 -16.9 Q-2.75 -16.7 -3.05 -16.7 -3.6 -16.7 -4.1 -17.2 -4.3 -17.45 -4.45 -17.7 L-4.4 -17.8 Q-4.35 -17.95 -4.15 -18.05 L-4.1 -18.05 M3.7 -14.25 Q3.75 -14.5 4.0 -14.55 4.35 -14.65 4.55 -14.2 L4.65 -14.1 Q5.05 -13.75 5.05 -13.55 L5.05 -13.45 5.05 -13.4 5.0 -13.35 Q4.95 -13.3 4.9 -13.3 L4.85 -13.3 4.8 -13.25 4.7 -13.2 4.65 -13.2 Q4.35 -13.2 4.05 -13.65 L4.0 -13.7 Q3.8 -14.05 3.75 -14.2 L3.7 -14.25 M3.8 -12.1 Q3.9 -12.2 3.9 -12.35 3.9 -12.7 3.55 -12.7 3.15 -12.65 3.15 -12.35 3.15 -12.25 3.15 -12.15 3.25 -12.0 3.55 -12.0 3.7 -12.0 3.8 -12.1 M4.1 -8.35 Q3.95 -8.15 3.8 -8.1 L3.75 -8.1 3.75 -8.25 Q3.75 -8.3 3.9 -8.4 4.0 -8.55 4.2 -8.5 L4.1 -8.35 M-7.45 -24.75 L-7.1 -24.8 Q-6.9 -24.65 -6.9 -24.15 -6.9 -23.45 -6.95 -23.2 -7.05 -22.4 -7.4 -22.4 -8.05 -22.4 -8.1 -23.05 L-8.1 -23.2 Q-8.1 -24.3 -7.5 -24.75 L-7.45 -24.75 M-7.3 -19.35 Q-6.7 -19.35 -6.7 -18.3 -6.7 -17.95 -6.7 -17.85 -6.8 -17.55 -7.15 -17.55 -7.55 -17.55 -7.75 -18.05 -7.85 -18.3 -7.9 -18.6 -7.9 -18.95 -7.7 -19.15 -7.55 -19.4 -7.3 -19.35 M-6.05 -16.1 L-6.0 -15.85 Q-6.0 -15.7 -6.4 -15.35 -6.7 -15.1 -6.85 -15.0 -7.1 -14.9 -7.35 -14.9 -7.9 -14.9 -8.15 -15.5 -8.3 -15.75 -8.35 -16.1 -8.35 -16.55 -7.95 -16.95 -7.65 -17.3 -7.15 -17.35 -6.7 -17.45 -6.4 -17.2 -6.0 -16.9 -6.0 -16.25 L-6.05 -16.1 M-3.75 -16.15 L-3.2 -16.2 Q-2.15 -16.15 -2.15 -15.5 -2.15 -15.35 -2.25 -15.2 -2.4 -14.95 -2.65 -14.95 -2.95 -14.95 -3.55 -15.25 -3.6 -15.05 -3.7 -14.8 -3.95 -14.35 -4.3 -14.35 -4.95 -14.35 -5.3 -15.0 -5.45 -15.35 -5.5 -15.7 -5.5 -16.15 -5.2 -16.35 -4.95 -16.6 -4.55 -16.55 -4.15 -16.55 -3.85 -16.25 L-3.75 -16.15 M-2.6 -12.45 Q-2.7 -12.35 -3.1 -12.35 -3.7 -12.35 -4.0 -12.6 -4.25 -12.8 -4.25 -13.05 -4.25 -13.5 -3.95 -13.65 L-3.4 -13.7 Q-3.05 -13.6 -2.8 -13.35 -2.55 -13.05 -2.55 -12.8 -2.55 -12.5 -2.6 -12.45 M-8.6 -11.95 Q-8.7 -11.75 -9.0 -11.75 -9.45 -11.75 -9.6 -12.15 -9.7 -12.35 -9.7 -12.6 -9.7 -13.25 -9.1 -13.1 -8.5 -13.0 -8.5 -12.35 -8.5 -12.1 -8.6 -11.95 M-10.1 -13.5 Q-10.1 -13.85 -9.75 -13.9 -9.35 -13.95 -9.35 -13.5 -9.35 -13.4 -9.45 -13.3 -9.55 -13.15 -9.7 -13.15 -9.95 -13.15 -10.05 -13.3 -10.1 -13.4 -10.1 -13.5 M-10.0 -12.4 L-10.2 -12.35 Q-10.4 -12.35 -10.45 -12.5 L-10.5 -12.6 Q-10.5 -12.9 -10.15 -12.9 -9.85 -12.9 -9.85 -12.65 -9.85 -12.5 -10.0 -12.4 M-8.8 -10.2 Q-8.7 -10.15 -8.6 -10.05 -8.6 -9.9 -8.8 -9.8 L-8.85 -9.85 -8.95 -9.9 -8.95 -10.0 -8.9 -10.1 -8.8 -10.2 M-9.45 -9.3 Q-9.45 -10.0 -9.0 -9.9 -8.5 -9.8 -8.5 -9.3 -8.5 -9.15 -8.6 -9.0 -8.75 -8.8 -8.95 -8.8 -9.25 -8.8 -9.4 -9.05 -9.45 -9.2 -9.45 -9.3" fill="#a68a6c" fill-rule="evenodd" stroke="none"/>
      <path d="M0.7 -15.25 Q0.7 -15.7 0.25 -15.7 -0.2 -15.7 -0.2 -15.35 L-0.15 -15.05 Q-0.05 -14.85 0.3 -14.85 0.5 -14.85 0.6 -15.0 0.7 -15.1 0.7 -15.25 M-0.05 -16.15 L0.5 -15.8 0.6 -15.7 Q0.8 -15.45 0.8 -15.2 0.8 -14.95 0.7 -14.75 0.5 -14.45 0.15 -14.45 -0.3 -14.45 -0.5 -14.75 L-0.6 -14.95 Q-0.65 -15.15 -0.65 -15.35 -0.65 -15.85 -0.45 -16.05 -0.3 -16.2 -0.05 -16.15" fill="#66cc33" fill-rule="evenodd" stroke="none"/>
      <path d="M0.7 -15.25 Q0.7 -15.1 0.6 -15.0 0.5 -14.85 0.3 -14.85 -0.05 -14.85 -0.15 -15.05 L-0.2 -15.35 Q-0.2 -15.7 0.25 -15.7 0.7 -15.7 0.7 -15.25 M-0.05 -16.15 Q-0.3 -16.2 -0.45 -16.05 -0.65 -15.85 -0.65 -15.35 -0.65 -15.15 -0.6 -14.95 L-0.5 -14.75 Q-0.65 -14.85 -0.75 -15.05 -0.8 -15.25 -0.85 -15.45 -0.85 -15.9 -0.65 -16.1 -0.5 -16.3 -0.25 -16.3 L-0.05 -16.15" fill="#00ff99" fill-rule="evenodd" stroke="none"/>
    </g>
  </defs>
</svg>
