<?xml version="1.0" encoding="UTF-8" standalone="no"?>
<svg xmlns:ffdec="https://www.free-decompiler.com/flash" xmlns:xlink="http://www.w3.org/1999/xlink" ffdec:objectType="frame" height="19.5px" width="20.35px" xmlns="http://www.w3.org/2000/svg">
  <g transform="matrix(1.0, 0.0, 0.0, 1.0, -8.15, -7.75)">
    <use ffdec:characterId="1284" height="19.5" transform="matrix(1.0, 0.0, 0.0, 1.0, 8.15, 7.75)" width="20.35" xlink:href="#shape0"/>
  </g>
  <defs>
    <g id="shape0" transform="matrix(1.0, 0.0, 0.0, 1.0, -8.15, -7.75)">
      <path d="M23.2 8.05 Q24.2 8.25 25.05 8.65 28.5 10.25 28.5 14.85 L28.5 20.2 Q28.55 23.7 26.6 25.5 24.55 27.25 20.45 27.25 L16.1 27.25 Q10.3 27.2 8.8 23.45 L8.75 23.45 Q8.15 22.05 8.15 20.2 L8.15 14.85 Q8.1 11.35 10.05 9.55 12.05 7.8 16.1 7.75 L16.2 7.75 20.45 7.75 23.2 8.05 M24.8 14.85 Q24.8 13.6 24.35 12.8 L24.3 12.75 Q23.3 11.25 20.45 11.25 L16.2 11.25 16.15 11.25 16.1 11.25 14.0 11.55 13.8 11.6 13.65 11.7 13.7 11.7 13.6 11.7 13.55 11.75 13.4 11.8 Q11.85 12.65 11.85 14.85 L11.85 20.2 Q11.85 21.45 12.35 22.3 L12.4 22.35 Q13.4 23.7 16.1 23.75 L20.45 23.75 Q24.7 23.75 24.8 20.25 L24.8 14.85" fill="#000000" fill-rule="evenodd" stroke="none"/>
      <path d="M9.8 22.75 L9.85 22.75 9.6 21.6 9.45 19.75 9.5 19.65 9.5 19.45 9.45 16.95 Q9.45 14.3 9.9 12.5 10.45 10.25 13.15 9.45 L18.95 8.95 20.55 8.9 22.5 9.1 22.8 9.05 23.0 9.0 24.6 9.55 25.65 10.8 Q26.75 12.4 26.85 14.4 L27.05 19.35 27.0 21.6 26.95 21.8 26.9 21.85 26.75 22.4 26.3 23.3 Q25.25 25.35 24.0 25.35 L23.95 25.35 21.55 25.7 21.55 25.75 16.25 25.75 15.15 25.7 15.1 25.65 14.7 25.65 Q12.75 25.65 11.1 24.15 L11.05 24.15 10.8 23.85 10.25 23.25 Q10.0 23.25 9.85 22.8 L9.8 22.75 M25.35 12.05 Q25.05 11.15 24.15 10.8 L23.05 10.15 22.25 10.0 21.2 9.8 15.8 9.8 15.0 9.9 14.55 9.95 14.05 10.0 Q12.0 10.45 11.3 11.65 L10.65 13.7 10.55 16.05 10.45 17.8 10.5 19.9 10.6 20.35 10.7 21.35 10.9 22.25 11.05 22.85 11.2 22.95 Q11.3 23.55 12.35 24.15 L12.85 24.4 Q14.3 25.1 17.05 25.1 L18.85 25.1 19.3 25.0 21.2 25.0 24.0 24.4 24.45 24.0 Q26.25 22.6 26.25 18.75 L26.05 15.2 25.95 13.35 Q25.85 12.5 25.35 12.05" fill="#c5a807" fill-rule="evenodd" stroke="none"/>
      <path d="M9.8 22.75 L9.85 22.8 Q10.0 23.25 10.25 23.25 L10.8 23.85 11.05 24.15 11.1 24.15 Q12.75 25.65 14.7 25.65 L15.1 25.65 15.15 25.7 16.25 25.75 21.55 25.75 21.55 25.7 23.95 25.35 24.0 25.35 Q25.25 25.35 26.3 23.3 L26.75 22.4 26.9 21.85 26.95 21.8 27.0 21.6 27.05 19.35 26.85 14.4 Q26.75 12.4 25.65 10.8 L24.6 9.55 Q27.5 10.95 27.5 14.85 L27.5 20.2 Q27.5 26.25 20.45 26.25 L16.1 26.25 Q11.05 26.2 9.7 23.05 L9.7 23.0 9.65 22.8 9.7 22.8 9.75 22.8 9.8 22.75 M11.2 22.95 L11.05 22.85 10.9 22.25 10.7 21.35 10.6 20.35 10.5 19.9 10.45 17.8 10.55 16.05 10.65 13.7 11.3 11.65 Q12.0 10.45 14.05 10.0 L14.55 9.95 15.0 9.9 15.8 9.8 21.2 9.8 22.25 10.0 23.05 10.15 24.15 10.8 Q25.05 11.15 25.35 12.05 L25.4 12.25 25.2 12.25 Q24.0 10.25 20.45 10.25 L16.2 10.25 16.1 10.25 13.6 10.65 13.5 10.65 13.3 10.75 13.0 10.9 Q10.85 11.95 10.85 14.85 L10.85 20.2 Q10.85 21.8 11.5 22.85 L11.3 22.65 11.15 22.8 11.2 22.95" fill="#947e05" fill-rule="evenodd" stroke="none"/>
      <path d="M23.0 9.0 L22.8 9.05 22.5 9.1 20.55 8.9 18.95 8.95 13.15 9.45 Q10.45 10.25 9.9 12.5 9.45 14.3 9.45 16.95 L9.5 19.45 9.5 19.65 9.45 19.75 9.6 21.6 9.85 22.75 9.8 22.75 9.75 22.8 9.7 22.8 9.65 22.8 9.7 23.0 9.7 23.05 Q9.15 21.85 9.15 20.2 L9.15 14.85 Q9.15 8.8 16.1 8.75 L16.2 8.75 20.45 8.75 23.0 9.0 M25.35 12.05 Q25.85 12.5 25.95 13.35 L26.05 15.2 26.25 18.75 Q26.25 22.6 24.45 24.0 L24.0 24.4 21.2 25.0 19.3 25.0 18.85 25.1 17.05 25.1 Q14.3 25.1 12.85 24.4 L12.35 24.15 Q11.3 23.55 11.2 22.95 L11.15 22.8 11.3 22.65 11.5 22.85 Q12.7 24.7 16.1 24.75 L20.45 24.75 Q25.8 24.75 25.8 20.2 L25.8 14.85 Q25.8 13.3 25.2 12.25 L25.4 12.25 25.35 12.05" fill="#f9e053" fill-rule="evenodd" stroke="none"/>
    </g>
  </defs>
</svg>
