<?xml version="1.0" encoding="UTF-8" standalone="no"?>
<svg xmlns:ffdec="https://www.free-decompiler.com/flash" xmlns:xlink="http://www.w3.org/1999/xlink" ffdec:objectType="frame" height="218.6px" width="481.95px" xmlns="http://www.w3.org/2000/svg">
  <g transform="matrix(1.0, 0.0, 0.0, 1.0, 241.15, 109.3)">
    <use ffdec:characterId="96" height="218.6" transform="matrix(1.0, 0.0, 0.0, 1.0, -241.15, -109.3)" width="481.95" xlink:href="#shape0"/>
  </g>
  <defs>
    <g id="shape0" transform="matrix(1.0, 0.0, 0.0, 1.0, 241.15, 109.3)">
      <path d="M232.5 -81.25 Q229.95 -81.5 226.8 -76.75 223.25 -70.35 221.7 -68.1 220.15 -65.85 217.85 -61.2 215.7 -56.85 214.0 -54.5 L204.0 -40.95 193.9 -27.3 Q192.05 -24.6 190.6 -20.2 L188.35 -13.65 Q187.1 -10.8 183.6 -6.6 L177.7 0.0 Q169.9 8.25 164.7 12.8 158.15 19.3 154.55 21.95 149.9 25.35 144.65 26.2 141.95 24.0 136.3 21.9 131.0 19.95 119.35 16.85 L117.35 15.05 116.05 13.3 113.8 13.3 Q113.2 13.35 112.2 13.95 L111.0 14.55 100.55 13.1 92.15 11.3 85.05 9.7 83.8 9.5 83.4 9.15 82.35 9.0 Q81.05 8.1 79.8 7.55 76.95 6.35 70.65 5.3 L77.85 5.75 Q81.8 5.75 84.0 4.75 85.85 3.9 87.95 1.6 96.35 -7.7 101.95 -12.05 104.2 -13.75 106.3 -16.7 L109.45 -21.35 Q110.45 -22.65 114.7 -26.1 117.8 -28.6 117.8 -30.35 L117.45 -32.15 117.05 -33.95 Q117.05 -38.35 118.2 -40.05 119.25 -41.65 125.75 -47.0 L129.8 -50.2 133.25 -53.0 Q135.0 -54.55 135.8 -56.35 L137.05 -59.7 Q140.85 -68.35 142.0 -73.35 143.2 -78.35 143.2 -85.85 143.2 -89.2 140.5 -90.9 138.15 -92.4 131.85 -93.65 L116.45 -96.4 Q104.6 -98.6 93.5 -101.5 L92.0 -101.4 Q91.35 -101.0 91.35 -100.6 L92.3 -99.55 Q99.5 -97.9 99.5 -90.8 99.5 -89.8 96.4 -81.4 L92.5 -71.45 89.6 -66.45 Q87.8 -63.4 87.55 -61.7 87.3 -59.5 85.0 -55.65 L82.75 -51.75 Q82.75 -51.15 85.15 -48.9 87.55 -46.65 87.55 -44.3 87.55 -41.65 83.1 -38.9 78.25 -35.9 77.75 -34.3 77.15 -32.3 74.45 -28.3 L70.7 -22.3 Q69.9 -20.55 62.8 -9.9 57.15 -1.35 57.15 1.65 57.15 2.15 62.9 3.75 L67.65 4.85 48.2 2.8 44.5 2.75 Q44.3 2.35 43.75 2.1 L39.4 2.3 32.65 2.4 28.55 2.0 14.05 2.0 1.45 3.85 -4.5 4.7 Q-3.5 2.8 -2.65 0.2 -0.4 -6.6 -0.4 -9.75 -0.4 -14.25 -0.85 -15.55 -1.75 -18.15 -4.15 -17.7 L-4.6 -18.25 Q-10.7 -17.75 -14.55 -15.45 L-21.1 -11.45 -24.75 -9.7 -30.25 -7.15 Q-32.7 -6.2 -34.1 -5.8 L-37.2 -5.0 -36.1 -4.7 -42.3 -2.55 Q-50.4 0.45 -50.4 1.3 -60.55 5.35 -60.55 6.55 L-60.5 6.95 -61.95 7.35 -61.15 7.9 -46.95 9.45 -38.5 10.7 -36.2 10.7 -36.35 10.9 -36.45 10.9 -36.45 10.95 -36.85 11.75 -36.75 12.6 -37.8 12.4 -51.25 10.55 -56.95 9.6 -64.6 8.45 Q-66.15 8.4 -66.15 9.5 L-65.2 10.55 Q-59.6 11.8 -55.3 13.3 -52.8 14.1 -48.15 16.0 L-43.35 17.75 Q-40.8 18.8 -40.15 19.65 -39.65 20.3 -39.75 21.25 L-41.85 21.0 -78.05 21.0 Q-74.45 19.7 -73.35 18.35 -72.55 17.35 -72.55 15.2 -72.55 12.1 -73.75 9.85 L-74.55 8.65 -73.5 8.65 -72.6 9.25 -71.15 9.55 Q-68.45 9.55 -63.1 6.1 -57.85 2.35 -56.7 1.75 -56.15 1.45 -48.0 -1.75 -40.7 -4.65 -39.35 -5.8 L-39.55 -6.35 -39.75 -6.45 -40.6 -6.55 -42.2 -5.9 -50.95 -5.25 Q-60.4 -5.25 -74.05 -9.9 L-83.25 -12.95 -83.2 -13.05 Q-87.85 -14.25 -89.6 -15.45 L-92.55 -18.25 -94.35 -19.75 -96.65 -19.45 Q-101.85 -17.95 -107.9 -17.25 L-110.85 -16.95 -111.2 -16.95 -111.75 -16.6 -111.8 -16.4 Q-112.6 -15.7 -113.05 -14.55 -113.45 -13.45 -113.45 -10.1 L-113.45 -6.9 -111.65 -2.55 Q-110.8 -0.6 -109.2 1.25 L-107.25 3.05 -106.4 3.6 Q-105.0 4.4 -104.7 5.05 -104.3 5.9 -104.4 8.35 L-104.2 10.55 -111.1 12.0 -114.95 13.05 -111.45 9.9 Q-114.9 9.95 -119.85 13.4 -126.3 17.95 -127.75 18.55 -132.6 20.55 -139.15 22.55 -147.7 25.1 -156.25 26.65 L-167.85 26.65 Q-170.0 26.0 -182.4 24.25 L-188.95 22.65 -198.35 22.05 -201.25 21.35 -203.7 20.65 -204.8 20.85 -213.55 21.0 -216.75 21.3 -220.2 21.4 Q-222.5 21.4 -224.7 20.3 -226.95 19.15 -227.85 19.15 -228.4 19.15 -228.65 19.45 L-228.9 19.95 Q-228.6 20.95 -228.1 21.6 L-228.5 21.35 -228.75 21.15 -229.8 20.1 Q-230.75 18.75 -231.2 16.65 -231.55 15.0 -231.55 9.15 L-230.8 1.2 Q-230.8 -1.8 -232.05 -0.35 L-231.65 -2.4 Q-230.2 -8.85 -229.25 -11.3 -227.9 -14.65 -225.0 -19.25 L-219.95 -27.15 -217.3 -30.55 -216.95 -31.0 Q-218.05 -27.5 -221.2 -20.45 -223.1 -16.1 -225.0 -9.15 -227.2 -1.15 -227.2 3.2 L-227.2 12.45 Q-226.95 16.05 -225.75 17.6 -223.55 20.3 -210.4 20.3 L-200.35 19.9 Q-199.95 19.75 -199.85 19.2 -199.7 18.5 -199.2 18.0 L-198.0 16.15 -197.25 14.4 -193.7 7.15 Q-192.15 4.35 -190.3 0.15 L-187.15 -7.0 Q-185.2 -11.25 -181.15 -21.75 -176.45 -33.9 -176.45 -35.6 -176.45 -36.5 -176.85 -36.95 -177.5 -37.7 -179.45 -37.7 L-188.2 -36.05 Q-196.85 -34.25 -204.65 -33.8 L-204.95 -34.3 Q-197.9 -35.15 -190.9 -37.0 L-183.15 -38.9 Q-177.05 -39.7 -176.55 -41.0 L-176.6 -42.4 Q-176.8 -43.45 -176.45 -44.2 -175.25 -46.95 -174.35 -50.9 L-173.05 -57.25 Q-172.5 -59.75 -170.85 -63.85 L-168.35 -70.35 Q-167.55 -72.85 -164.15 -78.05 -161.1 -82.8 -161.1 -83.45 -161.1 -84.1 -161.25 -84.4 L-161.85 -85.1 -167.95 -83.8 -176.65 -81.3 -182.85 -80.1 Q-187.05 -79.2 -189.9 -77.7 -190.5 -77.35 -194.35 -75.9 -197.2 -74.85 -198.45 -73.6 -199.5 -72.6 -200.4 -70.75 L-201.8 -67.75 -203.75 -64.0 -203.45 -64.85 Q-200.0 -74.6 -198.7 -75.7 -193.55 -80.3 -180.3 -83.6 -170.55 -86.05 -145.3 -90.2 L-135.1 -90.35 -116.9 -92.05 -105.2 -93.35 Q-101.5 -93.85 -98.8 -94.7 L-91.1 -95.95 -90.4 -96.0 -99.95 -93.45 -110.85 -90.1 Q-114.7 -89.0 -120.7 -84.1 -126.8 -79.05 -126.8 -76.7 -126.8 -75.65 -123.7 -73.9 L-119.0 -71.45 Q-117.7 -70.7 -115.7 -68.35 L-112.7 -64.85 -108.6 -64.85 Q-101.8 -66.15 -94.35 -68.75 L-84.0 -72.2 Q-80.95 -73.0 -76.55 -76.6 -71.7 -80.55 -69.3 -81.55 -59.3 -85.9 -48.85 -91.25 -38.7 -96.5 -32.95 -100.25 -20.7 -100.9 -11.65 -103.0 3.15 -106.45 19.6 -107.1 L25.05 -106.8 25.95 -106.25 26.2 -106.4 Q31.65 -108.65 49.75 -108.05 66.65 -107.35 78.35 -105.05 91.2 -102.5 107.95 -101.5 L135.85 -96.15 Q162.1 -91.0 166.1 -91.0 L171.95 -91.15 180.25 -91.2 190.4 -91.2 198.2 -92.1 204.8 -92.15 208.1 -91.95 218.05 -91.75 Q229.15 -89.0 231.35 -83.65 L232.5 -81.25 M154.95 -7.1 Q152.45 -5.05 146.9 -2.25 L137.9 2.15 Q133.0 4.05 128.65 6.05 120.05 10.0 120.05 12.1 120.05 14.3 126.0 15.75 L135.7 18.2 146.45 18.2 Q150.8 16.2 156.05 12.75 162.5 8.45 164.15 5.75 166.0 2.7 170.25 -1.95 L176.75 -8.85 Q179.3 -11.55 182.15 -16.45 185.45 -22.1 186.65 -23.6 L192.7 -31.55 Q197.5 -37.95 197.5 -38.5 L197.4 -39.35 196.85 -39.95 191.35 -35.85 Q187.2 -32.6 185.65 -31.6 L179.45 -31.4 168.3 -19.4 Q162.0 -12.9 154.95 -7.1 M121.35 -39.95 Q119.25 -40.1 119.25 -37.25 119.25 -36.8 120.55 -35.4 121.8 -34.0 121.8 -32.85 121.8 -30.25 115.7 -22.15 L108.05 -12.3 104.55 -6.85 100.8 -1.75 94.8 2.6 Q91.65 4.85 90.45 6.25 L93.1 7.35 Q97.2 9.05 98.0 9.15 L109.0 9.15 110.8 9.35 Q114.3 9.35 121.05 7.15 L127.5 5.1 131.8 2.35 144.65 -1.65 Q146.8 -2.35 148.7 -4.15 L151.45 -7.0 159.8 -13.45 Q164.75 -17.15 165.9 -19.15 167.9 -22.55 172.7 -25.3 176.2 -27.3 176.2 -30.6 L175.95 -31.4 175.35 -31.6 166.85 -32.35 156.9 -32.55 138.0 -35.1 Q134.35 -36.45 128.8 -37.7 L121.35 -39.95 M161.7 -89.05 Q160.65 -89.5 160.65 -87.85 160.65 -87.1 161.1 -85.75 L161.55 -83.85 Q161.55 -82.8 156.4 -73.7 151.3 -64.6 149.1 -61.7 143.35 -54.05 140.2 -50.6 137.9 -48.1 129.85 -45.95 123.0 -44.15 123.0 -42.0 123.0 -40.6 124.55 -39.85 125.7 -39.3 130.65 -37.5 L150.25 -35.4 174.65 -33.25 184.65 -33.25 Q187.0 -34.05 188.85 -36.05 L191.1 -39.1 Q191.95 -40.45 194.6 -42.2 L198.15 -44.85 203.4 -51.0 208.75 -57.1 Q211.25 -59.85 218.05 -68.95 226.15 -79.8 226.15 -81.75 226.15 -84.15 223.6 -85.7 220.85 -87.4 214.3 -88.6 L192.85 -88.55 191.3 -88.25 189.75 -87.95 175.8 -87.95 170.45 -88.15 162.85 -87.6 Q162.7 -88.65 161.7 -89.05 M1.75 -28.05 L1.6 -28.7 1.05 -28.8 Q-1.2 -27.9 -3.7 -24.65 -5.95 -21.75 -5.95 -20.7 -5.95 -20.3 -4.75 -19.35 -3.4 -18.25 -2.2 -18.25 L-2.0 -18.0 Q-2.05 -17.6 -0.15 -17.15 L0.5 -17.3 Q0.6 -19.15 1.2 -22.95 1.75 -26.45 1.75 -28.05 M13.3 -77.4 L12.65 -76.2 13.2 -77.35 13.3 -77.4 M29.9 -101.6 L29.85 -102.25 29.75 -102.4 26.5 -103.45 Q22.35 -104.9 17.0 -104.45 L-3.3 -100.95 -14.25 -98.6 -21.1 -97.15 Q-28.85 -95.9 -36.9 -91.85 L-46.7 -86.85 Q-53.4 -84.5 -56.4 -81.4 -58.3 -79.5 -59.3 -76.3 -60.75 -71.75 -60.75 -64.85 -60.75 -62.45 -59.8 -60.95 -58.9 -59.4 -58.9 -57.8 -58.9 -56.4 -59.35 -54.75 L-60.4 -50.95 -60.4 -42.05 -58.9 -41.9 -56.9 -42.35 Q-56.4 -42.55 -56.0 -42.7 L-55.95 -42.2 -55.65 -42.05 -60.05 -41.5 Q-60.75 -41.2 -60.75 -40.5 L-60.55 -40.25 -59.15 -40.0 -57.5 -40.25 -47.4 -40.4 -44.05 -41.15 -40.45 -41.8 -41.05 -40.9 Q-41.1 -40.5 -40.2 -40.5 L-39.2 -40.7 -38.15 -41.05 -37.95 -40.6 -38.15 -39.45 -37.05 -39.3 Q-35.15 -39.3 -32.1 -40.15 L-28.25 -41.15 Q-29.85 -40.55 -33.5 -39.45 L-33.55 -39.4 -38.15 -39.2 Q-44.35 -39.0 -48.9 -37.6 -57.35 -35.0 -63.4 -33.6 -74.0 -31.25 -83.65 -30.85 -84.3 -29.95 -87.8 -26.5 -89.95 -24.4 -89.95 -22.75 -89.95 -16.65 -73.15 -12.1 -68.1 -10.7 -60.35 -9.2 L-51.85 -7.5 -37.1 -7.5 Q-29.6 -9.0 -22.45 -12.85 L-9.95 -19.45 Q-8.65 -20.0 -6.6 -22.35 -4.9 -24.3 -3.95 -25.9 -3.25 -27.1 -0.8 -29.55 1.25 -31.6 1.55 -32.9 L2.0 -36.35 2.55 -39.9 3.15 -43.75 Q3.45 -46.05 4.6 -47.05 7.45 -49.55 10.2 -53.85 13.3 -58.65 13.3 -61.55 L13.2 -62.45 12.6 -63.1 7.65 -58.45 Q3.75 -55.2 0.0 -53.55 -1.0 -53.1 -6.1 -48.7 -10.7 -44.8 -14.6 -43.85 L-19.6 -42.45 -22.2 -41.65 -19.5 -43.05 Q-8.6 -48.85 0.55 -56.55 L1.4 -56.95 Q7.55 -59.95 7.55 -63.8 7.55 -64.7 11.45 -72.05 15.65 -79.95 16.35 -82.6 16.7 -84.1 19.15 -87.3 L22.5 -92.05 Q23.0 -92.95 26.85 -96.0 29.9 -98.35 29.9 -101.6 M236.35 -72.05 L235.6 -75.3 234.75 -78.15 235.65 -77.55 Q236.75 -77.0 236.75 -74.0 236.75 -73.2 236.35 -72.05 M213.55 -40.0 L213.25 -39.75 210.85 -37.75 213.55 -40.0 M193.6 -20.25 L192.5 -18.05 Q192.5 -17.45 193.25 -15.5 194.0 -13.5 194.0 -12.25 L193.95 -11.0 193.3 -12.45 Q191.8 -15.55 191.8 -16.65 191.8 -18.35 194.15 -21.45 L193.6 -20.25 M187.5 0.05 L184.4 4.75 Q181.8 8.6 179.9 10.3 L179.8 10.4 178.7 11.4 Q180.85 7.65 187.5 0.05 M169.15 23.3 L167.9 24.9 Q166.2 26.85 164.35 27.3 L160.3 28.5 Q165.05 26.6 169.15 23.3 M-35.75 24.65 L-35.95 24.85 -42.4 24.3 -43.85 24.3 -44.1 24.25 -42.5 24.25 -39.65 23.65 Q-39.0 24.65 -36.3 24.65 L-35.75 24.65 M205.8 -33.3 L202.8 -29.95 Q199.75 -26.6 197.45 -25.25 L203.6 -31.3 205.8 -33.3 M-168.7 -50.5 L-166.85 -50.5 Q-161.25 -53.15 -156.6 -59.15 -152.0 -65.8 -149.45 -68.4 L-145.55 -73.15 Q-143.2 -76.3 -141.75 -77.5 -137.45 -81.0 -136.75 -81.8 -134.95 -83.8 -134.95 -86.2 -134.95 -86.95 -136.4 -87.85 L-142.35 -87.85 -142.35 -87.7 Q-150.35 -87.05 -155.15 -85.7 -160.55 -84.2 -160.55 -82.2 -160.55 -80.95 -161.85 -79.15 -163.5 -76.95 -164.05 -75.35 L-165.05 -72.0 Q-165.8 -69.65 -166.3 -68.4 -170.45 -56.35 -170.45 -54.35 L-170.35 -52.25 Q-170.05 -50.7 -168.7 -50.5 M-163.95 -18.35 Q-178.65 -16.1 -182.05 -10.55 L-185.3 -5.25 Q-187.6 -1.25 -187.6 0.15 -187.6 3.7 -190.3 8.35 -193.0 13.0 -193.0 16.25 L-192.7 18.2 -186.55 18.3 Q-185.5 17.65 -179.65 14.75 -174.8 12.4 -173.15 11.05 -166.4 5.6 -160.7 3.25 -153.9 0.5 -146.25 -4.25 -138.0 -9.35 -138.0 -11.3 L-139.7 -15.7 Q-141.5 -20.4 -141.9 -22.4 -144.15 -27.35 -150.95 -24.05 L-157.2 -20.75 Q-161.1 -18.75 -163.95 -18.35 M-61.55 -99.95 L-58.45 -100.55 -57.1 -100.55 -56.4 -100.35 -61.55 -99.95 M-32.4 -42.0 Q-32.2 -41.8 -33.95 -41.5 L-33.7 -41.65 -32.4 -42.0 M-28.9 -42.9 Q-28.8 -42.8 -29.55 -42.6 L-31.15 -42.35 -28.9 -42.9 M-116.05 -60.4 L-117.95 -59.05 Q-120.4 -57.95 -123.8 -56.75 L-132.65 -53.75 Q-134.8 -53.0 -134.85 -50.4 -134.45 -47.4 -134.55 -46.35 L-135.2 -38.55 Q-135.2 -36.0 -135.75 -30.65 -136.35 -25.25 -136.35 -22.6 -136.8 -19.75 -136.35 -17.0 -135.45 -11.55 -130.9 -11.55 -127.6 -11.55 -123.95 -13.85 -119.65 -16.65 -113.4 -17.7 -103.8 -19.3 -98.55 -20.9 -94.05 -22.25 -92.05 -23.9 L-88.2 -28.65 Q-85.95 -31.35 -80.7 -32.55 L-64.05 -35.85 Q-62.3 -36.3 -61.85 -37.0 -61.5 -37.6 -61.5 -39.45 L-62.3 -48.05 Q-62.3 -50.05 -61.7 -51.6 -61.15 -53.15 -61.15 -54.45 -61.15 -57.1 -62.6 -61.5 -64.1 -65.9 -64.1 -69.45 -64.1 -71.95 -63.45 -73.65 L-61.35 -78.2 Q-61.0 -78.9 -60.8 -80.65 -60.4 -82.15 -58.8 -82.5 -57.3 -82.8 -55.0 -84.4 L-52.5 -86.55 Q-57.1 -84.85 -61.5 -82.5 -66.1 -80.0 -72.55 -77.55 -76.6 -72.0 -96.85 -64.8 L-102.7 -63.05 Q-107.15 -61.8 -108.7 -61.65 L-116.05 -60.4 M-12.05 9.65 L-12.15 9.7 -12.15 9.75 -14.0 9.8 Q-16.1 10.05 -20.8 11.8 L-21.6 12.1 Q-29.6 12.85 -31.8 13.5 L-32.45 13.75 -32.9 13.75 -32.85 13.9 -33.4 14.25 Q-34.35 13.4 -35.85 12.9 L-35.8 12.85 -35.4 12.35 -32.6 12.5 -25.25 11.55 -21.0 10.55 -15.35 9.9 -12.05 9.65 M3.75 8.85 L4.35 8.85 3.8 8.9 3.75 8.85 M18.1 7.85 L27.85 7.2 30.1 7.35 35.35 7.35 45.15 7.35 Q45.65 7.35 45.7 7.85 L45.75 8.35 42.2 8.1 40.0 7.6 28.1 7.6 27.4 7.6 18.1 7.85 M52.3 9.05 L55.8 9.15 61.95 10.15 62.35 10.25 60.55 10.05 58.4 9.85 52.3 9.05 M98.6 15.75 L106.8 16.45 103.45 16.55 102.8 16.75 102.6 17.35 101.65 17.1 Q100.35 16.6 98.6 15.75 M110.25 19.55 L110.85 19.65 111.45 19.95 110.25 19.55 M117.1 21.25 L118.65 20.85 Q121.05 20.2 122.2 20.3 124.15 20.4 127.9 21.95 L134.85 24.95 137.05 25.8 136.6 25.85 136.7 25.9 136.7 26.35 Q137.5 26.55 138.5 27.15 L134.25 25.75 Q122.55 23.15 120.1 22.1 L117.1 21.25 M-116.45 26.35 L-116.75 26.3 Q-117.8 26.0 -119.95 22.5 -122.0 19.15 -123.05 19.15 L-123.3 19.15 -120.95 17.4 -118.9 20.8 Q-116.2 24.7 -111.0 24.7 L-109.45 24.35 -107.85 24.0 -107.05 24.1 -106.8 24.15 -106.55 25.55 -108.4 26.15 -110.25 26.4 -116.45 26.35 M-78.75 21.25 L-78.2 21.05 -78.2 21.2 -78.75 21.25 M-148.95 30.35 Q-152.05 31.25 -155.8 31.75 L-155.3 31.65 -148.95 30.35 M-191.65 27.05 L-195.1 26.15 -195.25 26.1 -191.65 27.05 M94.65 10.85 L90.3 9.2 Q90.8 9.85 91.9 10.3 93.5 10.95 96.3 11.4 L94.65 10.85 M48.95 4.9 L50.1 5.05 49.0 5.0 48.95 4.9 M10.9 6.1 L10.75 6.2 10.0 6.35 6.7 6.75 6.15 6.7 5.95 6.55 10.9 6.1" fill="#75808a" fill-rule="evenodd" stroke="none"/>
      <path d="M-4.5 4.7 L1.45 3.85 14.05 2.0 28.55 2.0 32.65 2.4 39.4 2.3 43.75 2.1 Q44.3 2.35 44.5 2.75 L48.2 2.8 67.65 4.85 62.9 3.75 Q57.15 2.15 57.15 1.65 57.15 -1.35 62.8 -9.9 69.9 -20.55 70.7 -22.3 L74.45 -28.3 Q77.15 -32.3 77.75 -34.3 78.25 -35.9 83.1 -38.9 87.55 -41.65 87.55 -44.3 87.55 -46.65 85.15 -48.9 82.75 -51.15 82.75 -51.75 L85.0 -55.65 Q87.3 -59.5 87.55 -61.7 87.8 -63.4 89.6 -66.45 L92.5 -71.45 96.4 -81.4 Q99.5 -89.8 99.5 -90.8 99.5 -97.9 92.3 -99.55 L91.35 -100.6 Q91.35 -101.0 92.0 -101.4 L93.5 -101.5 Q104.6 -98.6 116.45 -96.4 L131.85 -93.65 Q138.15 -92.4 140.5 -90.9 143.2 -89.2 143.2 -85.85 143.2 -78.35 142.0 -73.35 140.85 -68.35 137.05 -59.7 L135.8 -56.35 Q135.0 -54.55 133.25 -53.0 L129.8 -50.2 125.75 -47.0 Q119.25 -41.65 118.2 -40.05 117.05 -38.35 117.05 -33.95 L117.45 -32.15 117.8 -30.35 Q117.8 -28.6 114.7 -26.1 110.45 -22.65 109.45 -21.35 L106.3 -16.7 Q104.2 -13.75 101.95 -12.05 96.35 -7.7 87.95 1.6 85.85 3.9 84.0 4.75 81.8 5.75 77.85 5.75 L70.65 5.3 Q76.95 6.35 79.8 7.55 81.05 8.1 82.35 9.0 L83.4 9.15 83.8 9.5 85.05 9.7 92.15 11.3 100.55 13.1 111.0 14.55 112.2 13.95 Q113.2 13.35 113.8 13.3 L116.05 13.3 117.35 15.05 119.35 16.85 Q131.0 19.95 136.3 21.9 141.95 24.0 144.65 26.2 149.9 25.35 154.55 21.95 158.15 19.3 164.7 12.8 169.9 8.25 177.7 0.0 L183.6 -6.6 Q187.1 -10.8 188.35 -13.65 L190.6 -20.2 Q192.05 -24.6 193.9 -27.3 L204.0 -40.95 214.0 -54.5 Q215.7 -56.85 217.85 -61.2 220.15 -65.85 221.7 -68.1 223.25 -70.35 226.8 -76.75 229.95 -81.5 232.5 -81.25 L232.85 -81.2 Q233.9 -80.55 234.75 -78.15 L235.6 -75.3 236.35 -72.05 236.6 -69.3 236.45 -68.4 Q235.4 -64.65 226.8 -54.2 219.2 -45.0 216.35 -42.35 L213.55 -40.0 210.85 -37.75 205.8 -33.3 203.6 -31.3 197.45 -25.25 194.15 -21.45 Q191.8 -18.35 191.8 -16.65 191.8 -15.55 193.3 -12.45 L193.95 -11.0 Q194.75 -9.2 194.75 -8.7 194.75 -8.15 187.85 -0.35 L187.5 0.05 Q180.85 7.65 178.7 11.4 L178.35 12.05 176.7 15.05 Q174.5 18.45 171.0 21.7 L169.15 23.3 Q165.05 26.6 160.3 28.5 154.15 30.9 146.9 30.9 L146.8 30.9 145.7 30.85 144.35 30.65 144.0 30.55 Q142.45 30.1 141.2 29.1 L138.5 27.15 Q137.5 26.55 136.7 26.35 L136.7 25.9 136.6 25.85 137.05 25.8 134.85 24.95 127.9 21.95 Q124.15 20.4 122.2 20.3 121.05 20.2 118.65 20.85 L117.1 21.25 114.65 21.35 112.75 20.5 111.45 19.95 110.85 19.65 110.25 19.55 107.55 19.15 107.15 19.1 103.8 18.6 102.6 17.45 102.6 17.35 102.8 16.75 103.45 16.55 106.8 16.45 98.6 15.75 Q93.45 15.1 89.8 14.15 L88.1 13.6 Q87.4 14.25 86.8 14.25 L85.4 13.75 85.25 13.95 84.6 14.15 81.75 13.3 Q79.6 12.4 79.15 12.4 L77.5 12.75 75.8 13.05 Q72.55 13.05 67.55 11.7 L62.35 10.25 61.95 10.15 55.8 9.15 52.3 9.05 47.95 8.8 47.9 8.8 45.75 8.4 45.75 8.35 45.7 7.85 Q45.65 7.35 45.15 7.35 L35.35 7.35 30.1 7.35 27.85 7.2 18.1 7.85 5.35 8.8 4.35 8.85 3.75 8.85 -9.45 9.45 -10.35 9.5 -12.05 9.65 -15.35 9.9 -21.0 10.55 -25.25 11.55 -32.6 12.5 -35.4 12.35 -35.8 12.85 -35.85 12.9 Q-34.35 13.4 -33.4 14.25 L-32.85 14.85 Q-32.45 15.35 -32.2 15.95 -31.8 16.85 -31.65 18.85 L-31.65 20.3 -31.65 21.7 -31.75 22.85 -31.85 23.1 -32.45 23.8 Q-33.5 24.55 -35.75 24.65 L-36.3 24.65 Q-39.0 24.65 -39.65 23.65 L-42.5 24.25 -44.1 24.25 -55.65 24.35 -58.5 25.0 -69.35 25.1 -70.9 25.7 -80.05 26.1 -91.1 25.55 -100.15 25.0 Q-101.65 25.0 -107.45 26.25 L-108.6 26.5 -109.95 26.8 -116.4 28.0 Q-118.2 28.0 -118.7 27.5 L-118.8 26.95 -116.45 26.35 -110.25 26.4 -108.4 26.15 -106.55 25.55 -106.8 24.15 -107.05 24.1 -106.4 24.0 -96.95 22.4 -78.75 21.25 -78.2 21.2 -78.2 21.05 -78.2 21.0 -78.05 21.0 -41.85 21.0 -39.75 21.25 Q-39.65 20.3 -40.15 19.65 -40.8 18.8 -43.35 17.75 L-48.15 16.0 Q-52.8 14.1 -55.3 13.3 -59.6 11.8 -65.2 10.55 L-66.15 9.5 Q-66.15 8.4 -64.6 8.45 L-56.95 9.6 -51.25 10.55 -37.8 12.4 -36.75 12.6 -36.85 11.75 -36.45 10.95 -36.45 10.9 -36.35 10.9 -36.2 10.7 Q-34.95 9.65 -31.2 8.5 -28.6 7.65 -21.45 5.95 L-17.6 5.85 -13.5 5.45 -12.45 5.7 -12.25 5.7 -4.5 4.7 M-228.1 21.6 Q-228.6 20.95 -228.9 19.95 L-228.65 19.45 Q-228.4 19.15 -227.85 19.15 -226.95 19.15 -224.7 20.3 -222.5 21.4 -220.2 21.4 L-216.75 21.3 -213.55 21.0 -204.8 20.85 -203.7 20.65 -201.25 21.35 -198.35 22.05 -188.95 22.65 -182.4 24.25 Q-170.0 26.0 -167.85 26.65 L-156.25 26.65 Q-147.7 25.1 -139.15 22.55 -132.6 20.55 -127.75 18.55 -126.3 17.95 -119.85 13.4 -114.9 9.95 -111.45 9.9 L-114.95 13.05 -119.1 16.05 -120.95 17.4 -123.3 19.15 -126.65 22.0 -127.5 22.8 Q-129.4 24.75 -131.35 26.0 L-132.1 26.45 Q-134.75 28.0 -137.55 28.35 L-140.65 28.85 -148.95 30.35 -155.3 31.65 -155.8 31.75 Q-162.85 33.15 -168.85 33.15 L-191.65 27.05 -195.25 26.1 -195.4 26.05 -201.4 24.45 -202.0 24.3 -205.15 23.6 -212.45 24.2 -212.6 24.25 -213.25 24.5 -213.9 24.9 -218.05 24.9 -218.3 24.5 -218.45 24.25 -218.65 23.15 Q-224.8 23.85 -227.25 22.4 L-228.1 21.6 M233.8 -67.35 L229.25 -61.15 224.85 -54.75 223.3 -52.35 Q235.05 -64.9 235.05 -69.35 L235.05 -69.4 233.8 -67.35 M48.95 4.9 L49.0 5.0 50.1 5.05 48.95 4.9 M10.9 6.1 L5.95 6.55 6.15 6.7 6.7 6.75 10.0 6.35 10.75 6.2 10.9 6.1" fill="#6b757e" fill-rule="evenodd" stroke="none"/>
      <path d="M-32.95 -100.25 Q-38.7 -96.5 -48.85 -91.25 -59.3 -85.9 -69.3 -81.55 -71.7 -80.55 -76.55 -76.6 -80.95 -73.0 -84.0 -72.2 L-94.35 -68.75 Q-101.8 -66.15 -108.6 -64.85 L-112.7 -64.85 -115.7 -68.35 Q-117.7 -70.7 -119.0 -71.45 L-123.7 -73.9 Q-126.8 -75.65 -126.8 -76.7 -126.8 -79.05 -120.7 -84.1 -114.7 -89.0 -110.85 -90.1 L-99.95 -93.45 -90.4 -96.0 -88.85 -96.35 Q-78.85 -98.45 -61.55 -99.95 L-56.4 -100.35 -46.3 -101.05 -46.3 -101.2 -35.9 -101.2 -32.55 -100.55 -32.95 -100.25 M-203.75 -64.0 L-201.8 -67.75 -200.4 -70.75 Q-199.5 -72.6 -198.45 -73.6 -197.2 -74.85 -194.35 -75.9 -190.5 -77.35 -189.9 -77.7 -187.05 -79.2 -182.85 -80.1 L-176.65 -81.3 -167.95 -83.8 -161.85 -85.1 -161.25 -84.4 Q-161.1 -84.1 -161.1 -83.45 -161.1 -82.8 -164.15 -78.05 -167.55 -72.85 -168.35 -70.35 L-170.85 -63.85 Q-172.5 -59.75 -173.05 -57.25 L-174.35 -50.9 Q-175.25 -46.95 -176.45 -44.2 -176.8 -43.45 -176.6 -42.4 L-176.55 -41.0 Q-177.05 -39.7 -183.15 -38.9 L-190.9 -37.0 Q-197.9 -35.15 -204.95 -34.3 L-204.65 -33.8 Q-196.85 -34.25 -188.2 -36.05 L-179.45 -37.7 Q-177.5 -37.7 -176.85 -36.95 -176.45 -36.5 -176.45 -35.6 -176.45 -33.9 -181.15 -21.75 -185.2 -11.25 -187.15 -7.0 L-190.3 0.15 Q-192.15 4.35 -193.7 7.15 L-197.25 14.4 -198.0 16.15 -199.2 18.0 Q-199.7 18.5 -199.85 19.2 -199.95 19.75 -200.35 19.9 L-210.4 20.3 Q-223.55 20.3 -225.75 17.6 -226.95 16.05 -227.2 12.45 L-227.2 3.2 Q-227.2 -1.15 -225.0 -9.15 -223.1 -16.1 -221.2 -20.45 -218.05 -27.5 -216.95 -31.0 L-216.55 -32.4 Q-216.0 -34.55 -214.15 -38.3 L-211.4 -44.1 Q-209.9 -47.75 -207.1 -55.85 L-203.75 -64.0 M-114.95 13.05 L-111.1 12.0 -104.2 10.55 -104.4 8.35 Q-104.3 5.9 -104.7 5.05 -105.0 4.4 -106.4 3.6 L-107.25 3.05 -109.2 1.25 Q-110.8 -0.6 -111.65 -2.55 L-113.45 -6.9 -113.45 -10.1 Q-113.45 -13.45 -113.05 -14.55 -112.6 -15.7 -111.8 -16.4 L-111.75 -16.6 -111.2 -16.95 -110.85 -16.95 -107.9 -17.25 Q-101.85 -17.95 -96.65 -19.45 L-94.35 -19.75 -92.55 -18.25 -89.6 -15.45 Q-87.85 -14.25 -83.2 -13.05 L-83.25 -12.95 -74.05 -9.9 Q-60.4 -5.25 -50.95 -5.25 L-42.2 -5.9 -40.6 -6.55 -39.75 -6.45 -39.55 -6.35 -39.35 -5.8 Q-40.7 -4.65 -48.0 -1.75 -56.15 1.45 -56.7 1.75 -57.85 2.35 -63.1 6.1 -68.45 9.55 -71.15 9.55 L-72.6 9.25 -73.5 8.65 -74.55 8.65 -73.75 9.85 Q-72.55 12.1 -72.55 15.2 -72.55 17.35 -73.35 18.35 -74.45 19.7 -78.05 21.0 L-78.2 21.0 -78.2 21.05 -78.75 21.25 -96.95 22.4 -106.4 24.0 -107.05 24.1 -107.85 24.0 -109.45 24.35 -111.0 24.7 Q-116.2 24.7 -118.9 20.8 L-120.95 17.4 -119.1 16.05 -114.95 13.05 M-36.2 10.7 L-38.5 10.7 -46.95 9.45 -61.15 7.9 -61.95 7.35 -60.5 6.95 -60.55 6.55 Q-60.55 5.35 -50.4 1.3 -50.4 0.45 -42.3 -2.55 L-36.1 -4.7 -37.2 -5.0 -34.1 -5.8 Q-32.7 -6.2 -30.25 -7.15 L-24.75 -9.7 -21.1 -11.45 -14.55 -15.45 Q-10.7 -17.75 -4.6 -18.25 L-4.15 -17.7 Q-1.75 -18.15 -0.85 -15.55 -0.4 -14.25 -0.4 -9.75 -0.4 -6.6 -2.65 0.2 -3.5 2.8 -4.5 4.7 L-12.25 5.7 -12.45 5.7 -13.5 5.45 -17.6 5.85 -21.45 5.95 Q-28.6 7.65 -31.2 8.5 -34.95 9.65 -36.2 10.7 M29.9 -101.6 Q29.9 -98.35 26.85 -96.0 23.0 -92.95 22.5 -92.05 L19.15 -87.3 Q16.7 -84.1 16.35 -82.6 15.65 -79.95 11.45 -72.05 7.55 -64.7 7.55 -63.8 7.55 -59.95 1.4 -56.95 L0.55 -56.55 Q-8.6 -48.85 -19.5 -43.05 L-22.2 -41.65 -19.6 -42.45 -14.6 -43.85 Q-10.7 -44.8 -6.1 -48.7 -1.0 -53.1 0.0 -53.55 3.75 -55.2 7.65 -58.45 L12.6 -63.1 13.2 -62.45 13.3 -61.55 Q13.3 -58.65 10.2 -53.85 7.45 -49.55 4.6 -47.05 3.45 -46.05 3.15 -43.75 L2.55 -39.9 2.0 -36.35 1.55 -32.9 Q1.25 -31.6 -0.8 -29.55 -3.25 -27.1 -3.95 -25.9 -4.9 -24.3 -6.6 -22.35 -8.65 -20.0 -9.95 -19.45 L-22.45 -12.85 Q-29.6 -9.0 -37.1 -7.5 L-51.85 -7.5 -60.35 -9.2 Q-68.1 -10.7 -73.15 -12.1 -89.95 -16.65 -89.95 -22.75 -89.95 -24.4 -87.8 -26.5 -84.3 -29.95 -83.65 -30.85 -74.0 -31.25 -63.4 -33.6 -57.35 -35.0 -48.9 -37.6 -44.35 -39.0 -38.15 -39.2 L-33.55 -39.4 -33.5 -39.45 Q-29.85 -40.55 -28.25 -41.15 L-32.1 -40.15 Q-35.15 -39.3 -37.05 -39.3 L-38.15 -39.45 -37.95 -40.6 -38.15 -41.05 -39.2 -40.7 -40.2 -40.5 Q-41.1 -40.5 -41.05 -40.9 L-40.45 -41.8 -44.05 -41.15 -47.4 -40.4 -57.5 -40.25 -59.15 -40.0 -60.55 -40.25 -60.75 -40.5 Q-60.75 -41.2 -60.05 -41.5 L-55.65 -42.05 -55.95 -42.2 -56.0 -42.7 Q-56.4 -42.55 -56.9 -42.35 L-58.9 -41.9 -60.4 -42.05 -60.4 -50.95 -59.35 -54.75 Q-58.9 -56.4 -58.9 -57.8 -58.9 -59.4 -59.8 -60.95 -60.75 -62.45 -60.75 -64.85 -60.75 -71.75 -59.3 -76.3 -58.3 -79.5 -56.4 -81.4 -53.4 -84.5 -46.7 -86.85 L-36.9 -91.85 Q-28.85 -95.9 -21.1 -97.15 L-14.25 -98.6 -3.3 -100.95 17.0 -104.45 Q22.35 -104.9 26.5 -103.45 L29.75 -102.4 29.85 -102.25 29.9 -101.6 M13.3 -77.4 L13.2 -77.35 12.65 -76.2 13.3 -77.4 M1.75 -28.05 Q1.75 -26.45 1.2 -22.95 0.6 -19.15 0.5 -17.3 L-0.15 -17.15 Q-2.05 -17.6 -2.0 -18.0 L-2.2 -18.25 Q-3.4 -18.25 -4.75 -19.35 -5.95 -20.3 -5.95 -20.7 -5.95 -21.75 -3.7 -24.65 -1.2 -27.9 1.05 -28.8 L1.6 -28.7 1.75 -28.05 M161.7 -89.05 Q162.7 -88.65 162.85 -87.6 L170.45 -88.15 175.8 -87.95 189.75 -87.95 191.3 -88.25 192.85 -88.55 214.3 -88.6 Q220.85 -87.4 223.6 -85.7 226.15 -84.15 226.15 -81.75 226.15 -79.8 218.05 -68.95 211.25 -59.85 208.75 -57.1 L203.4 -51.0 198.15 -44.85 194.6 -42.2 Q191.95 -40.45 191.1 -39.1 L188.85 -36.05 Q187.0 -34.05 184.65 -33.25 L174.65 -33.25 150.25 -35.4 130.65 -37.5 Q125.7 -39.3 124.55 -39.85 123.0 -40.6 123.0 -42.0 123.0 -44.15 129.85 -45.95 137.9 -48.1 140.2 -50.6 143.35 -54.05 149.1 -61.7 151.3 -64.6 156.4 -73.7 161.55 -82.8 161.55 -83.85 L161.1 -85.75 Q160.65 -87.1 160.65 -87.85 160.65 -89.5 161.7 -89.05 M121.35 -39.95 L128.8 -37.7 Q134.35 -36.45 138.0 -35.1 L156.9 -32.55 166.85 -32.35 175.35 -31.6 175.95 -31.4 176.2 -30.6 Q176.2 -27.3 172.7 -25.3 167.9 -22.55 165.9 -19.15 164.75 -17.15 159.8 -13.45 L151.45 -7.0 148.7 -4.15 Q146.8 -2.35 144.65 -1.65 L131.8 2.35 127.5 5.1 121.05 7.15 Q114.3 9.35 110.8 9.35 L109.0 9.15 98.0 9.15 Q97.2 9.05 93.1 7.35 L90.45 6.25 Q91.65 4.85 94.8 2.6 L100.8 -1.75 104.55 -6.85 108.05 -12.3 115.7 -22.15 Q121.8 -30.25 121.8 -32.85 121.8 -34.0 120.55 -35.4 119.25 -36.8 119.25 -37.25 119.25 -40.1 121.35 -39.95 M154.95 -7.1 Q162.0 -12.9 168.3 -19.4 L179.45 -31.4 185.65 -31.6 Q187.2 -32.6 191.35 -35.85 L196.85 -39.95 197.4 -39.35 197.5 -38.5 Q197.5 -37.95 192.7 -31.55 L186.65 -23.6 Q185.45 -22.1 182.15 -16.45 179.3 -11.55 176.75 -8.85 L170.25 -1.95 Q166.0 2.7 164.15 5.75 162.5 8.45 156.05 12.75 150.8 16.2 146.45 18.2 L135.7 18.2 126.0 15.75 Q120.05 14.3 120.05 12.1 120.05 10.0 128.65 6.05 133.0 4.05 137.9 2.15 L146.9 -2.25 Q152.45 -5.05 154.95 -7.1 M-168.7 -50.5 Q-170.05 -50.7 -170.35 -52.25 L-170.45 -54.35 Q-170.45 -56.35 -166.3 -68.4 -165.8 -69.65 -165.05 -72.0 L-164.05 -75.35 Q-163.5 -76.95 -161.85 -79.15 -160.55 -80.95 -160.55 -82.2 -160.55 -84.2 -155.15 -85.7 -150.35 -87.05 -142.35 -87.7 L-142.35 -87.85 -136.4 -87.85 Q-134.95 -86.95 -134.95 -86.2 -134.95 -83.8 -136.75 -81.8 -137.45 -81.0 -141.75 -77.5 -143.2 -76.3 -145.55 -73.15 L-149.45 -68.4 Q-152.0 -65.8 -156.6 -59.15 -161.25 -53.15 -166.85 -50.5 L-168.7 -50.5 M-163.95 -18.35 Q-161.1 -18.75 -157.2 -20.75 L-150.95 -24.05 Q-144.15 -27.35 -141.9 -22.4 -141.5 -20.4 -139.7 -15.7 L-138.0 -11.3 Q-138.0 -9.35 -146.25 -4.25 -153.9 0.5 -160.7 3.25 -166.4 5.6 -173.15 11.05 -174.8 12.4 -179.65 14.75 -185.5 17.65 -186.55 18.3 L-192.7 18.2 -193.0 16.25 Q-193.0 13.0 -190.3 8.35 -187.6 3.7 -187.6 0.15 -187.6 -1.25 -185.3 -5.25 L-182.05 -10.55 Q-178.65 -16.1 -163.95 -18.35 M-116.05 -60.4 L-108.7 -61.65 Q-107.15 -61.8 -102.7 -63.05 L-96.85 -64.8 Q-76.6 -72.0 -72.55 -77.55 -66.1 -80.0 -61.5 -82.5 -57.1 -84.85 -52.5 -86.55 L-55.0 -84.4 Q-57.3 -82.8 -58.8 -82.5 -60.4 -82.15 -60.8 -80.65 -61.0 -78.9 -61.35 -78.2 L-63.45 -73.65 Q-64.1 -71.95 -64.1 -69.45 -64.1 -65.9 -62.6 -61.5 -61.15 -57.1 -61.15 -54.45 -61.15 -53.15 -61.7 -51.6 -62.3 -50.05 -62.3 -48.05 L-61.5 -39.45 Q-61.5 -37.6 -61.85 -37.0 -62.3 -36.3 -64.05 -35.85 L-80.7 -32.55 Q-85.95 -31.35 -88.2 -28.65 L-92.05 -23.9 Q-94.05 -22.25 -98.55 -20.9 -103.8 -19.3 -113.4 -17.7 -119.65 -16.65 -123.95 -13.85 -127.6 -11.55 -130.9 -11.55 -135.45 -11.55 -136.35 -17.0 -136.8 -19.75 -136.35 -22.6 -136.35 -25.25 -135.75 -30.65 -135.2 -36.0 -135.2 -38.55 L-134.55 -46.35 Q-134.45 -47.4 -134.85 -50.4 -134.8 -53.0 -132.65 -53.75 L-123.8 -56.75 Q-120.4 -57.95 -117.95 -59.05 L-116.05 -60.4 M-28.9 -42.9 L-31.15 -42.35 -29.55 -42.6 Q-28.8 -42.8 -28.9 -42.9 M-32.4 -42.0 L-33.7 -41.65 -33.95 -41.5 Q-32.2 -41.8 -32.4 -42.0 M-9.45 9.45 L-10.15 9.5 -10.35 9.5 -9.45 9.45 M94.65 10.85 L96.3 11.4 Q93.5 10.95 91.9 10.3 90.8 9.85 90.3 9.2 L94.65 10.85" fill="#7e8892" fill-rule="evenodd" stroke="none"/>
      <path d="M236.45 -68.4 L236.95 -69.05 239.9 -61.7 Q240.7 -59.3 240.7 -55.25 240.7 -53.65 239.05 -47.5 237.4 -41.3 237.4 -39.65 237.4 -38.7 238.05 -35.75 238.6 -33.0 238.5 -31.6 238.4 -30.1 238.8 -27.2 L239.25 -24.0 238.75 -14.55 238.15 -7.1 Q237.8 -4.5 233.25 0.3 L224.7 8.45 Q221.65 11.35 217.3 17.05 213.7 21.8 212.0 24.6 L208.8 27.9 Q205.85 30.6 204.95 31.85 L202.3 35.65 199.55 38.75 199.55 52.15 Q200.15 54.85 198.1 58.15 L198.15 58.9 Q198.15 60.25 182.85 74.2 L178.05 78.75 Q173.65 82.25 171.5 84.1 168.2 86.9 164.25 89.15 L157.55 92.75 156.9 92.55 156.85 92.5 Q155.25 93.45 154.75 93.45 150.1 93.45 147.7 92.4 147.35 93.1 145.9 93.1 144.3 93.1 139.8 91.7 L138.0 91.2 138.0 91.6 Q138.35 91.9 137.5 91.9 L136.15 91.6 133.9 91.15 Q133.35 90.75 133.35 90.3 L133.25 90.3 Q132.75 90.3 132.65 90.7 L132.35 91.25 130.1 91.25 Q127.0 90.25 114.3 88.25 L101.15 86.45 95.6 87.15 83.0 86.8 Q81.55 86.75 80.45 86.2 L70.8 87.55 63.9 87.65 56.7 87.9 47.15 88.1 Q43.0 88.2 39.1 89.4 35.4 90.5 30.75 90.5 L24.7 87.35 22.7 86.35 Q19.65 86.15 18.0 85.25 L17.1 84.6 16.65 84.95 13.2 83.4 Q9.3 81.8 4.35 81.8 -0.2 81.8 -8.05 84.1 -8.2 84.7 -8.85 85.15 L-12.45 85.45 Q-15.5 85.75 -17.5 86.45 L-18.3 86.75 Q-21.35 88.0 -22.55 88.0 L-24.35 87.9 Q-25.65 87.55 -26.1 86.45 L-26.6 86.45 -29.6 83.0 -29.3 86.75 -29.15 90.8 -29.4 93.55 Q-29.7 94.85 -30.25 96.15 -32.1 100.3 -36.2 100.35 -45.3 100.5 -52.3 101.75 L-61.8 103.65 -73.3 105.5 -78.55 106.1 -83.1 105.9 -89.9 105.55 -96.75 106.45 -100.55 107.25 -101.55 107.45 -101.85 107.45 -116.4 107.45 Q-120.65 106.0 -124.2 102.25 L-127.4 98.6 -128.8 97.0 -129.2 98.35 -129.45 98.25 -129.55 97.85 -129.45 96.3 -129.4 95.6 -131.1 95.15 -133.7 96.1 Q-138.15 97.6 -140.35 97.55 -140.0 97.2 -139.05 96.8 L-160.15 98.7 -164.55 98.7 -171.3 98.7 Q-174.95 97.55 -178.35 95.65 L-184.1 92.45 Q-187.25 90.85 -191.7 89.6 -198.45 87.65 -208.25 86.35 L-218.05 86.15 -230.2 84.45 Q-234.4 83.5 -236.1 82.3 -237.5 81.3 -237.75 79.85 L-237.75 77.05 -237.5 74.3 -236.7 73.7 Q-235.85 73.5 -234.15 74.2 L-234.45 74.6 -234.05 74.8 -229.65 76.8 Q-221.3 79.85 -203.1 80.95 L-193.55 81.2 Q-189.8 82.1 -183.45 84.3 -177.05 86.55 -175.45 87.5 L-172.6 89.15 Q-171.05 90.05 -169.05 90.8 -162.3 93.55 -147.8 93.55 L-144.95 93.45 Q-144.95 91.65 -144.2 87.6 -143.5 83.45 -143.5 81.3 -143.5 77.1 -144.25 72.9 -145.05 68.7 -145.05 61.7 -145.05 59.9 -144.6 58.7 -144.1 57.35 -144.0 54.95 L-143.75 51.4 Q-143.5 49.1 -142.9 48.4 -142.25 51.25 -140.9 60.7 -139.8 68.3 -138.65 71.2 L-136.35 81.4 -134.6 89.9 -133.7 89.5 -133.85 87.55 -134.55 79.2 -134.75 75.2 -137.45 67.25 Q-138.15 65.3 -139.5 58.1 L-140.8 50.15 -140.3 43.75 -139.85 37.2 Q-139.85 36.85 -140.4 35.45 L-140.95 33.45 -140.8 31.9 -140.75 31.9 -141.05 30.25 Q-141.05 29.45 -140.65 28.85 L-137.55 28.35 Q-134.75 28.0 -132.1 26.45 L-131.65 26.45 -131.35 26.0 Q-129.4 24.75 -127.5 22.8 L-126.65 22.0 -124.95 21.0 -123.45 21.0 -122.85 21.1 Q-122.6 21.15 -122.6 21.7 -122.6 22.5 -123.45 26.05 L-124.6 31.15 Q-125.5 37.6 -125.65 40.6 L-126.45 49.85 -127.15 59.5 -127.4 59.65 -127.7 59.75 -128.15 69.3 -127.5 86.95 -127.5 91.55 -127.6 92.75 -118.3 99.95 -118.5 100.65 -119.0 100.9 -117.5 101.7 -115.55 102.45 -106.5 102.45 -63.35 97.85 -48.3 97.65 Q-39.4 96.6 -34.95 91.5 -31.55 87.65 -31.55 82.95 -31.55 80.3 -32.5 78.6 -33.85 76.1 -34.55 72.7 -35.9 65.65 -36.05 62.7 L-36.85 52.55 -37.5 42.55 -37.45 36.6 Q-37.3 33.4 -36.4 30.15 -36.8 27.8 -36.5 26.3 L-36.65 26.15 Q-36.65 25.7 -36.25 25.45 L-36.15 25.2 -35.95 24.85 -35.75 24.65 Q-33.5 24.55 -32.45 23.8 L-32.25 23.85 -32.05 23.9 -31.85 23.1 -31.75 22.85 -31.5 22.05 -31.0 19.9 -31.65 18.85 Q-31.8 16.85 -32.2 15.95 -32.45 15.35 -32.85 14.85 L-32.4 14.4 -31.75 14.7 -32.1 15.2 Q-31.95 16.55 -29.15 19.45 -26.2 22.6 -25.65 24.15 -25.1 25.8 -25.1 28.4 L-25.2 32.75 Q-25.2 44.05 -24.5 50.25 L-22.45 67.65 Q-21.7 74.6 -21.45 80.1 L-20.45 80.1 -16.2 80.3 -10.95 79.55 -3.0 78.8 -1.75 72.9 Q-0.95 69.05 -1.05 66.3 L-0.35 65.95 0.6 68.45 Q0.95 70.2 0.35 71.15 L0.35 77.7 2.1 77.6 2.4 70.9 2.5 69.5 2.85 64.3 3.4 57.5 Q3.2 52.7 3.3 50.35 3.5 46.25 5.7 43.8 L5.0 51.1 5.6 51.3 5.35 51.85 5.7 53.85 Q6.65 53.45 8.1 54.6 L8.0 53.7 7.55 48.2 Q7.55 42.6 10.6 32.15 L14.95 17.5 Q14.65 19.65 11.35 32.45 8.65 43.1 8.65 48.3 8.65 51.75 9.45 56.0 10.25 60.2 10.25 66.85 L10.25 69.45 Q12.8 76.45 27.85 78.75 L54.3 78.75 Q58.2 77.15 61.4 77.8 64.5 78.4 65.95 77.8 L77.45 77.8 78.05 78.05 93.45 78.2 Q93.95 78.4 103.95 78.1 L119.7 79.95 Q132.8 81.6 138.45 82.85 L138.35 81.95 Q138.35 81.55 138.7 80.65 L139.1 79.2 139.9 79.3 140.8 79.55 Q140.15 77.2 140.15 72.75 140.15 70.0 140.9 67.8 141.6 65.55 141.6 64.4 L141.55 63.35 141.85 63.2 142.0 63.0 Q142.0 59.4 142.75 53.0 143.5 46.6 143.5 43.75 143.5 43.15 143.0 42.5 L143.0 42.0 143.0 40.9 142.6 39.95 141.75 41.35 141.75 41.45 141.7 41.4 141.5 41.7 138.45 46.2 Q138.9 43.65 140.8 40.15 141.95 38.05 143.0 36.75 L144.75 32.5 144.75 32.25 145.05 31.75 Q145.85 31.3 146.9 30.9 154.15 30.9 160.3 28.5 L164.35 27.3 Q166.2 26.85 167.9 24.9 L169.15 23.3 171.0 21.7 Q174.5 18.45 176.7 15.05 L179.8 10.4 179.9 10.3 Q181.8 8.6 184.4 4.75 L187.5 0.05 187.85 -0.35 Q194.75 -8.15 194.75 -8.7 194.75 -9.2 193.95 -11.0 L194.0 -12.25 Q194.0 -13.5 193.25 -15.5 192.5 -17.45 192.5 -18.05 L193.6 -20.25 194.1 -19.7 194.2 -20.05 Q195.85 -24.05 200.3 -27.3 203.4 -29.5 207.65 -33.9 L213.25 -39.75 213.55 -40.0 216.35 -42.35 Q219.2 -45.0 226.8 -54.2 235.4 -64.65 236.45 -68.4 M-5.95 9.5 Q4.4 10.25 8.45 11.5 11.8 12.55 11.8 14.35 11.8 15.95 9.7 21.0 L7.25 26.7 Q6.85 27.95 6.35 32.75 5.9 36.65 4.75 38.6 L4.2 38.7 Q3.3 38.05 3.35 36.75 3.4 35.2 3.0 34.65 L3.0 20.4 Q2.35 18.9 2.35 17.35 2.35 14.05 -1.3 12.35 -3.25 11.45 -6.65 10.75 L-6.7 10.35 Q-6.7 9.8 -6.3 9.6 L-5.95 9.5 M47.9 8.8 L47.95 8.8 48.05 9.85 47.95 10.15 Q47.55 10.3 47.35 10.55 L47.3 10.6 44.9 10.95 39.65 11.6 37.75 12.2 36.2 12.65 34.85 13.0 33.15 13.35 Q34.25 12.75 36.1 11.0 38.75 9.7 45.9 9.65 L46.9 9.65 47.5 9.15 47.9 8.8 M-63.7 31.15 Q-61.55 27.85 -59.8 30.0 -58.95 31.05 -58.1 33.85 -56.1 40.8 -56.0 49.7 L-54.65 65.45 Q-54.65 73.4 -55.0 77.3 -55.65 84.6 -57.8 88.55 -60.8 88.05 -62.05 86.75 L-63.85 84.35 Q-64.6 83.55 -66.9 82.2 -69.15 80.85 -69.65 80.3 -72.0 77.85 -73.4 71.75 L-75.75 61.85 Q-75.95 60.8 -75.95 54.6 -75.95 48.7 -75.55 47.6 -74.85 45.45 -69.65 38.85 -64.8 32.9 -63.7 31.15 M-31.5 60.85 L-31.75 65.6 -31.7 66.65 Q-30.8 60.9 -30.8 56.9 L-31.0 52.95 -31.0 53.8 -31.5 60.85 M-29.1 81.85 L-29.15 81.75 -29.15 82.0 -29.1 81.85 M-22.05 86.45 L-22.6 86.7 -21.3 86.45 -22.05 86.45 M-139.95 33.05 Q-138.85 36.65 -138.85 38.15 L-139.5 50.0 Q-139.5 59.65 -135.7 68.3 L-135.05 69.8 -135.5 62.8 -136.35 46.1 Q-136.4 44.6 -136.9 41.9 L-137.45 37.8 Q-137.6 34.55 -139.35 33.5 L-139.95 33.05 M-170.05 96.8 L-170.0 96.7 -175.1 95.1 -170.8 96.8 -170.05 96.8 M143.4 84.5 L143.2 84.2 143.05 84.35 143.4 84.5" fill="#666666" fill-rule="evenodd" stroke="none"/>
      <path d="M-232.05 -0.35 Q-230.8 -1.8 -230.8 1.2 L-231.55 9.15 Q-231.55 15.0 -231.2 16.65 -230.75 18.75 -229.8 20.1 L-228.5 21.35 -228.1 21.6 -227.25 22.4 Q-224.8 23.85 -218.65 23.15 L-218.45 24.25 -223.85 24.2 -220.25 24.5 -218.3 24.5 -218.05 24.9 -213.9 24.9 -213.25 24.5 Q-205.15 24.55 -201.1 24.75 L-201.4 24.45 -195.4 26.05 -195.25 26.1 -195.1 26.15 -191.65 27.05 -168.85 33.15 Q-162.85 33.15 -155.8 31.75 -152.05 31.25 -148.95 30.35 L-140.65 28.85 Q-141.05 29.45 -141.05 30.25 L-140.75 31.9 -140.8 31.9 -140.95 33.45 -140.4 35.45 Q-139.85 36.85 -139.85 37.2 L-140.3 43.75 -140.8 50.15 -139.5 58.1 Q-138.15 65.3 -137.45 67.25 L-134.75 75.2 -134.55 79.2 -133.85 87.55 -133.7 89.5 -134.6 89.9 -136.35 81.4 -138.65 71.2 Q-139.8 68.3 -140.9 60.7 -142.25 51.25 -142.9 48.4 -143.5 49.1 -143.75 51.4 L-144.0 54.95 Q-144.1 57.35 -144.6 58.7 -145.05 59.9 -145.05 61.7 -145.05 68.7 -144.25 72.9 -143.5 77.1 -143.5 81.3 -143.5 83.45 -144.2 87.6 -144.95 91.65 -144.95 93.45 L-147.8 93.55 Q-162.3 93.55 -169.05 90.8 -171.05 90.05 -172.6 89.15 L-175.45 87.5 Q-177.05 86.55 -183.45 84.3 -189.8 82.1 -193.55 81.2 L-203.1 80.95 Q-221.3 79.85 -229.65 76.8 L-234.05 74.8 -234.45 74.6 -234.15 74.2 Q-235.85 73.5 -236.7 73.7 L-236.75 72.8 -237.15 67.8 -237.5 62.8 Q-237.5 62.2 -238.75 58.05 -240.0 53.9 -240.0 52.75 L-240.55 50.5 Q-241.15 48.45 -241.15 47.6 -241.15 46.1 -240.7 45.25 L-240.7 31.65 -240.1 23.2 Q-239.7 17.95 -238.6 14.4 -236.4 7.4 -233.8 2.35 -232.75 0.35 -232.05 -0.35 M-12.45 85.45 L-15.55 86.45 -17.5 86.45 Q-15.5 85.75 -12.45 85.45 M-26.6 86.45 L-28.35 86.45 -28.35 87.35 Q-28.8 87.0 -29.3 86.75 L-29.6 83.0 -26.6 86.45 M-29.4 93.55 L-29.5 95.75 -30.55 97.1 -32.2 99.6 Q-37.15 101.3 -48.0 102.6 L-70.4 105.45 -73.3 105.5 -61.8 103.65 -52.3 101.75 Q-45.3 100.5 -36.2 100.35 -32.1 100.3 -30.25 96.15 -29.7 94.85 -29.4 93.55 M-83.1 105.9 L-90.45 106.9 -99.25 107.1 -100.55 107.25 -96.75 106.45 -89.9 105.55 -83.1 105.9 M-101.85 107.45 L-103.25 107.7 -108.85 108.05 -116.4 107.45 Q-119.55 106.85 -121.7 105.7 -125.35 103.7 -127.2 99.25 L-127.4 98.6 -124.2 102.25 Q-120.65 106.0 -116.4 107.45 L-101.85 107.45 M-129.45 96.3 Q-135.05 97.35 -139.4 98.7 L-152.35 98.7 -158.9 99.05 -164.55 98.7 -160.15 98.7 -139.05 96.8 Q-140.0 97.2 -140.35 97.55 -138.15 97.6 -133.7 96.1 L-131.1 95.15 -129.4 95.6 -129.45 96.3 M-191.7 89.6 L-200.2 89.4 Q-217.8 87.75 -225.3 86.0 -228.05 85.35 -230.2 84.45 L-218.05 86.15 -208.25 86.35 Q-198.45 87.65 -191.7 89.6 M145.05 31.75 L144.75 32.25 144.75 32.5 143.0 36.75 Q141.95 38.05 140.8 40.15 138.9 43.65 138.45 46.2 L141.5 41.7 141.7 41.4 141.75 41.45 141.75 41.35 142.6 39.95 143.0 40.9 143.0 42.0 143.0 42.5 Q143.5 43.15 143.5 43.75 143.5 46.6 142.75 53.0 142.0 59.4 142.0 63.0 L141.85 63.2 141.55 63.35 141.6 64.4 Q141.6 65.55 140.9 67.8 140.15 70.0 140.15 72.75 140.15 77.2 140.8 79.55 L139.9 79.3 139.1 79.2 138.7 80.65 Q138.35 81.55 138.35 81.95 L138.45 82.85 Q132.8 81.6 119.7 79.95 L103.95 78.1 Q93.95 78.4 93.45 78.2 L78.05 78.05 77.45 77.8 65.95 77.8 Q64.5 78.4 61.4 77.8 58.2 77.15 54.3 78.75 L27.85 78.75 Q12.8 76.45 10.25 69.45 L10.25 66.85 Q10.25 60.2 9.45 56.0 8.65 51.75 8.65 48.3 8.65 43.1 11.35 32.45 14.65 19.65 14.95 17.5 L10.6 32.15 Q7.55 42.6 7.55 48.2 L8.0 53.7 8.1 54.6 Q6.65 53.45 5.7 53.85 L5.35 51.85 5.6 51.3 5.0 51.1 5.7 43.8 Q3.5 46.25 3.3 50.35 3.2 52.7 3.4 57.5 L2.85 64.3 2.5 69.5 2.4 70.9 2.1 77.6 0.35 77.7 0.35 71.15 Q0.95 70.2 0.6 68.45 L-0.35 65.95 -1.05 66.3 Q-0.95 69.05 -1.75 72.9 L-3.0 78.8 -10.95 79.55 -16.2 80.3 -20.45 80.1 -21.45 80.1 Q-21.7 74.6 -22.45 67.65 L-24.5 50.25 Q-25.2 44.05 -25.2 32.75 L-25.1 28.4 Q-25.1 25.8 -25.65 24.15 -26.2 22.6 -29.15 19.45 -31.95 16.55 -32.1 15.2 L-31.75 14.7 -32.4 14.4 -32.85 14.85 -33.4 14.25 -32.85 13.9 -32.45 13.75 -31.8 13.5 Q-29.6 12.85 -21.6 12.1 L-19.8 11.9 Q-13.3 11.3 -12.15 9.75 L-12.15 9.7 -12.05 9.65 -10.35 9.5 -10.15 9.5 -9.45 9.45 3.75 8.85 3.8 8.9 Q4.15 9.2 3.9 10.15 L4.75 9.85 13.85 9.65 20.55 9.0 Q25.3 8.9 27.4 7.6 L28.1 7.6 40.0 7.6 42.2 8.1 Q44.05 8.6 45.55 9.45 L45.9 9.65 Q38.75 9.7 36.1 11.0 34.25 12.75 33.15 13.35 L34.85 13.0 36.2 12.65 37.75 12.2 39.65 11.6 44.9 10.95 47.3 10.6 47.35 10.55 Q47.55 10.3 47.95 10.15 L58.4 9.85 60.55 10.05 62.35 10.25 67.55 11.7 Q72.55 13.05 75.8 13.05 L77.5 12.75 79.15 12.4 Q79.6 12.4 81.75 13.3 L84.6 14.15 85.25 13.95 85.4 13.75 86.8 14.25 Q87.4 14.25 88.1 13.6 L89.8 14.15 Q93.45 15.1 98.6 15.75 100.35 16.6 101.65 17.1 L102.6 17.45 103.8 18.6 107.15 19.1 109.7 20.05 112.75 20.5 114.65 21.35 117.1 21.25 120.1 22.1 Q122.55 23.15 134.25 25.75 L138.5 27.15 141.2 29.1 Q142.45 30.1 144.0 30.55 L144.15 30.75 144.35 30.65 145.7 30.85 145.05 31.75 M-31.65 18.85 L-31.0 19.9 -31.5 22.05 -31.65 21.7 -31.65 20.3 -31.65 18.85 M-36.15 25.2 L-36.25 25.45 Q-36.65 25.7 -36.65 26.15 L-36.5 26.3 Q-36.8 27.8 -36.4 30.15 -37.3 33.4 -37.45 36.6 L-37.5 42.55 -36.85 52.55 -36.05 62.7 Q-35.9 65.65 -34.55 72.7 -33.85 76.1 -32.5 78.6 -31.55 80.3 -31.55 82.95 -31.55 87.65 -34.95 91.5 -39.4 96.6 -48.3 97.65 L-63.35 97.85 -106.5 102.45 -115.55 102.45 -117.5 101.7 -119.0 100.9 -118.5 100.65 -118.3 99.95 -127.6 92.75 -127.5 91.55 -127.5 86.95 -128.15 69.3 -127.7 59.75 -127.4 59.65 -127.15 59.5 -126.45 49.85 -125.65 40.6 Q-125.5 37.6 -124.6 31.15 L-123.45 26.05 Q-122.6 22.5 -122.6 21.7 -122.6 21.15 -122.85 21.1 L-123.45 21.0 -124.95 21.0 -126.65 22.0 -123.3 19.15 -123.05 19.15 Q-122.0 19.15 -119.95 22.5 -117.8 26.0 -116.75 26.3 L-116.45 26.35 -118.8 26.95 -118.7 27.5 Q-118.2 28.0 -116.4 28.0 L-109.95 26.8 -109.0 26.8 -105.2 26.25 -107.45 26.25 Q-101.65 25.0 -100.15 25.0 L-91.1 25.55 -80.05 26.1 -70.9 25.7 -69.35 25.1 -58.5 25.0 -55.65 24.35 -44.1 24.25 -43.85 24.3 -43.3 24.4 -36.15 25.2 M-131.35 26.0 L-131.65 26.45 -132.1 26.45 -131.35 26.0 M-5.95 9.5 L-6.3 9.6 Q-6.7 9.8 -6.7 10.35 L-6.65 10.75 Q-3.25 11.45 -1.3 12.35 2.35 14.05 2.35 17.35 2.35 18.9 3.0 20.4 L3.0 34.65 Q3.4 35.2 3.35 36.75 3.3 38.05 4.2 38.7 L4.75 38.6 Q5.9 36.65 6.35 32.75 6.85 27.95 7.25 26.7 L9.7 21.0 Q11.8 15.95 11.8 14.35 11.8 12.55 8.45 11.5 4.4 10.25 -5.95 9.5 M-31.5 60.85 L-31.0 53.8 -31.0 52.95 -30.8 56.9 Q-30.8 60.9 -31.7 66.65 L-31.75 65.6 -31.5 60.85 M-63.7 31.15 Q-64.8 32.9 -69.65 38.85 -74.85 45.45 -75.55 47.6 -75.95 48.7 -75.95 54.6 -75.95 60.8 -75.75 61.85 L-73.4 71.75 Q-72.0 77.85 -69.65 80.3 -69.15 80.85 -66.9 82.2 -64.6 83.55 -63.85 84.35 L-62.05 86.75 Q-60.8 88.05 -57.8 88.55 -55.65 84.6 -55.0 77.3 -54.65 73.4 -54.65 65.45 L-56.0 49.7 Q-56.1 40.8 -58.1 33.85 -58.95 31.05 -59.8 30.0 -61.55 27.85 -63.7 31.15 M-29.1 81.85 L-29.15 82.0 -29.15 81.75 -29.1 81.85 M-147.05 32.1 L-147.75 32.35 -147.3 32.3 -147.05 32.1 M-139.95 33.05 L-139.35 33.5 Q-137.6 34.55 -137.45 37.8 L-136.9 41.9 Q-136.4 44.6 -136.35 46.1 L-135.5 62.8 -135.05 69.8 -135.7 68.3 Q-139.5 59.65 -139.5 50.0 L-138.85 38.15 Q-138.85 36.65 -139.95 33.05 M-202.0 24.3 L-212.6 24.25 -212.45 24.2 -205.15 23.6 -202.0 24.3 M143.4 84.5 L143.05 84.35 143.2 84.2 143.4 84.5" fill="#747474" fill-rule="evenodd" stroke="none"/>
      <path d="M-107.45 26.25 L-105.2 26.25 -109.0 26.8 -109.95 26.8 -108.6 26.5 -107.45 26.25 M-147.05 32.1 L-147.3 32.3 -147.75 32.35 -147.05 32.1 M-201.4 24.45 L-201.1 24.75 Q-205.15 24.55 -213.25 24.5 L-212.6 24.25 -202.0 24.3 -201.4 24.45 M-218.3 24.5 L-220.25 24.5 -223.85 24.2 -218.45 24.25 -218.3 24.5" fill="#717a84" fill-rule="evenodd" stroke="none"/>
      <path d="M106.85 -100.95 Q86.3 -101.9 84.15 -102.85 82.15 -103.85 70.45 -104.65 L53.15 -106.05 43.15 -107.2 Q35.95 -107.9 26.85 -105.65 L7.15 -105.2 Q2.1 -103.95 -7.0 -102.7 L-20.6 -100.4 -39.7 -100.05 -72.5 -96.85 -107.2 -93.2 -148.15 -88.05 Q-163.05 -86.25 -176.65 -82.65 L-196.55 -76.5 Q-201.4 -69.4 -206.15 -55.8 -211.7 -40.05 -214.15 -35.35 L-224.1 -17.1 -227.95 -9.15 -227.35 -9.45 Q-229.8 -4.8 -230.45 1.9 L-231.35 12.6 -231.1 14.7 -231.1 15.85 -230.9 15.65 -230.95 17.15 -230.6 18.4 Q-229.0 21.0 -225.0 22.75 L-216.85 23.6 -212.65 23.05 Q-203.6 23.05 -199.2 24.3 -197.0 24.95 -195.7 25.7 -192.65 26.15 -190.4 27.3 -188.65 28.25 -179.85 28.85 L-179.3 28.75 Q-176.6 30.1 -171.7 30.9 -169.8 32.35 -168.05 32.35 L-149.15 30.85 -147.35 29.9 Q-143.15 28.15 -134.3 27.4 L-134.35 27.0 -132.9 27.0 -132.65 26.7 -132.7 26.25 -131.2 24.75 -129.2 22.5 Q-126.7 19.65 -125.95 19.5 L-125.45 19.55 -114.6 10.5 -122.7 17.9 -124.6 19.6 -121.85 19.8 Q-120.15 21.75 -117.8 26.8 -113.35 25.35 -108.55 25.8 -104.35 26.15 -101.5 24.75 L-67.65 24.2 -65.5 23.75 -64.9 24.25 -58.9 23.65 -55.2 23.75 -46.3 23.5 -45.0 23.55 -44.7 24.1 -41.2 24.3 -35.05 23.8 Q-32.65 23.55 -32.65 22.2 -32.65 21.35 -33.9 18.0 -35.1 14.75 -35.6 14.15 L-35.4 14.0 -36.6 13.95 -36.8 13.4 -36.9 13.4 Q-41.65 12.55 -42.15 12.1 L-53.35 10.75 -63.25 9.35 -63.05 9.0 -62.85 8.8 -46.0 10.6 -37.8 12.1 -37.4 11.7 -35.85 11.8 -33.4 12.0 -33.35 12.0 -33.3 12.0 -32.95 12.0 -32.6 11.85 Q-10.3 9.75 -7.25 8.25 L19.45 7.85 27.55 7.15 36.5 6.75 44.3 6.95 45.05 7.5 Q60.35 8.95 77.2 11.6 96.6 14.7 104.4 17.35 L118.2 19.85 Q129.7 21.8 132.4 23.6 133.7 24.45 138.5 26.85 144.05 29.6 145.0 29.6 156.45 29.6 163.65 26.0 169.5 23.1 174.25 16.75 L182.55 4.2 Q187.75 -3.6 193.7 -8.85 L193.35 -9.55 194.1 -9.55 Q192.05 -11.65 191.55 -13.3 191.3 -14.05 191.3 -16.3 191.3 -21.95 201.75 -30.8 L209.85 -37.65 Q214.05 -41.5 215.4 -44.25 L225.55 -56.8 Q235.45 -69.4 235.45 -72.65 235.45 -76.65 234.1 -78.25 230.85 -82.15 228.6 -86.55 L221.2 -89.25 Q215.55 -91.3 209.65 -91.3 194.45 -91.3 193.0 -90.2 191.65 -89.2 183.35 -89.35 L172.65 -89.45 161.65 -89.9 140.45 -94.6 113.4 -100.2 110.2 -100.45 106.85 -100.95 M27.4 -107.8 L31.3 -108.55 39.5 -109.3 Q79.65 -107.35 116.05 -100.95 136.1 -97.45 163.55 -91.3 L183.35 -91.5 Q189.85 -92.05 193.4 -93.1 195.0 -93.55 209.65 -93.55 224.2 -93.55 232.25 -84.4 L232.45 -84.45 Q237.45 -81.05 239.15 -71.95 L239.5 -69.65 240.65 -64.4 240.8 -55.7 Q240.8 -48.45 239.75 -45.95 L239.2 -44.25 238.7 -38.05 Q238.75 -36.65 239.35 -31.85 L240.05 -25.3 Q240.05 -11.8 238.75 -6.9 L238.7 -6.65 238.8 -5.65 238.45 -4.6 237.95 -4.6 Q236.5 -1.45 233.35 1.55 L221.35 13.05 Q211.55 23.7 200.4 40.7 L199.9 40.65 199.85 39.45 Q199.85 35.85 209.15 24.0 216.7 14.35 219.9 11.35 L235.7 -3.75 Q237.3 -6.0 237.75 -8.7 L237.9 -9.9 237.9 -19.2 237.25 -27.05 236.4 -37.9 Q236.4 -43.7 237.55 -47.3 238.65 -50.85 238.65 -55.95 238.65 -59.15 237.55 -64.8 L236.85 -68.7 Q233.05 -59.7 215.55 -41.7 L200.15 -26.0 Q193.15 -18.65 193.15 -16.8 193.15 -16.2 195.15 -12.85 L197.1 -9.3 197.1 -9.15 Q198.7 -7.3 199.15 0.8 L199.25 8.0 199.3 22.6 200.0 44.7 Q200.0 53.15 199.55 58.4 L199.85 58.7 199.45 59.15 199.15 61.4 197.95 61.4 197.9 60.85 Q187.55 72.1 175.5 82.1 161.2 93.95 155.05 94.55 L154.45 94.85 150.0 94.5 147.7 94.5 146.0 94.15 145.65 94.1 139.85 93.0 Q136.45 91.85 126.8 91.1 L97.35 87.3 78.05 87.45 71.05 88.05 Q63.25 88.35 53.4 88.05 L41.65 89.4 32.0 90.75 Q30.45 90.75 20.6 86.85 10.8 82.95 7.55 82.95 6.25 82.95 -7.15 85.75 -20.55 88.5 -25.1 88.5 L-26.2 88.5 -26.25 88.2 -27.85 87.65 -29.35 86.7 -29.9 86.25 -29.85 86.35 -29.9 86.35 -30.1 87.9 -29.75 90.35 -29.4 92.75 -29.5 95.75 -30.55 97.1 -33.3 101.3 -35.05 101.95 -37.7 102.0 -42.1 102.2 -42.85 102.6 -43.15 102.45 -45.05 102.5 -52.55 103.65 -67.2 105.15 -68.25 105.9 -87.5 107.55 -106.65 109.3 -110.3 109.15 -112.75 108.75 Q-121.45 109.0 -126.55 102.35 -129.05 99.15 -129.8 96.5 -133.45 97.05 -136.25 98.25 -138.1 99.0 -148.9 99.65 L-164.85 99.85 Q-168.65 99.85 -173.8 97.5 L-181.35 93.75 Q-186.15 91.7 -191.4 90.55 L-201.05 88.85 -209.2 88.1 Q-231.2 87.5 -236.05 84.35 -237.8 83.2 -237.85 81.35 -237.6 79.3 -237.75 78.35 -238.5 72.75 -238.5 67.2 -238.5 64.65 -239.6 56.05 -240.75 47.5 -240.75 44.9 -240.75 30.8 -238.9 16.6 -236.7 -0.05 -232.8 -5.1 L-230.75 -11.0 Q-227.85 -18.1 -222.75 -25.5 -218.6 -31.6 -214.3 -42.55 L-209.0 -55.6 Q-207.65 -57.9 -206.0 -63.05 -204.25 -68.4 -202.95 -70.85 -198.15 -79.85 -185.1 -82.2 L-174.4 -84.75 Q-166.05 -86.9 -161.5 -87.65 L-144.15 -89.55 Q-130.7 -90.85 -125.2 -91.9 -81.65 -100.4 -39.15 -102.3 L-20.1 -102.65 Q-18.15 -103.0 -10.8 -105.1 L8.3 -107.45 27.4 -107.8 M171.7 22.7 Q167.45 27.05 165.55 28.1 159.25 31.6 147.7 31.6 142.35 31.6 136.5 29.05 129.8 25.7 125.65 24.0 121.85 22.5 104.95 19.5 L102.6 18.6 100.1 17.7 Q91.0 16.8 90.4 16.2 L83.75 14.95 77.1 13.8 75.7 13.8 Q71.65 11.9 61.1 11.0 54.35 10.4 49.25 10.7 L46.25 11.05 43.75 8.8 29.15 9.4 19.45 10.1 -7.25 10.5 Q-8.85 11.3 -30.6 13.9 L-31.0 14.15 -32.4 14.1 -32.85 14.15 Q-30.8 17.3 -30.8 22.5 -30.8 23.9 -32.25 25.2 -32.0 25.75 -31.7 27.15 L-31.0 29.6 -31.0 71.8 -30.2 78.2 Q-30.0 78.75 -29.95 79.55 L-29.75 82.1 Q-29.25 84.95 -25.45 86.4 -16.9 84.35 -7.7 82.75 L-3.2 82.05 -3.15 79.9 Q-2.8 76.5 -1.1 75.55 L-0.8 76.4 -1.5 80.75 -1.6 81.8 2.7 81.2 2.6 74.6 Q2.6 67.95 2.75 64.6 L3.35 64.6 Q3.8 72.95 3.45 81.15 L3.9 81.1 Q10.35 81.65 20.15 85.3 29.45 88.8 31.25 88.8 L41.2 87.45 54.5 86.9 68.4 86.7 73.25 86.1 78.05 85.6 Q98.4 85.8 98.75 86.15 L106.35 86.7 128.4 89.7 147.9 92.45 153.7 92.25 Q154.35 91.25 154.65 91.0 L154.85 90.8 Q154.95 87.7 155.6 80.95 156.35 73.35 156.35 69.1 L156.8 69.1 Q157.25 72.95 157.25 81.85 157.25 86.55 156.9 89.85 L157.1 89.8 157.65 90.0 Q157.85 90.1 157.85 91.2 L157.75 91.6 Q167.2 88.05 177.95 78.6 182.8 74.35 190.7 66.2 195.5 61.25 197.85 59.2 L197.85 30.85 Q197.45 28.2 197.05 10.5 196.8 0.7 194.85 -5.75 L189.05 1.15 Q181.35 10.0 178.9 12.1 177.8 13.05 175.25 17.25 L171.7 22.7 M-33.45 26.0 Q-35.05 26.8 -37.05 26.8 -37.8 26.3 -40.6 26.05 L-45.0 25.9 -47.35 25.05 -47.4 25.05 -53.15 25.25 -63.05 25.1 -72.2 26.3 -101.5 26.6 -108.45 27.65 -116.3 28.4 Q-117.6 28.4 -118.6 27.85 -119.75 32.2 -123.4 42.85 -127.05 53.55 -127.9 59.05 L-128.5 59.05 -128.65 56.55 Q-128.65 52.5 -123.9 39.8 -120.35 30.3 -118.9 27.65 -120.2 26.75 -121.0 24.85 -122.5 21.3 -122.95 21.3 -125.95 21.3 -129.55 24.8 L-133.0 28.7 Q-130.15 37.55 -129.35 48.1 -128.95 53.5 -128.95 69.65 L-129.05 82.2 -130.0 82.4 Q-130.75 64.05 -131.4 54.55 -132.3 40.1 -134.0 29.2 -141.5 29.45 -145.0 30.35 L-143.95 30.25 -145.6 31.0 -150.1 33.3 -167.5 34.6 Q-179.95 31.3 -181.0 30.3 -189.85 30.0 -195.45 27.75 -201.4 25.3 -204.05 25.1 L-208.45 25.25 -213.4 25.7 -217.95 25.1 Q-224.0 26.95 -227.9 23.65 L-228.55 23.6 Q-230.05 22.45 -231.05 20.7 -231.5 38.25 -230.7 50.7 L-231.45 50.9 Q-231.95 46.25 -232.2 37.7 L-232.4 28.6 -232.7 22.45 Q-232.65 19.6 -232.2 17.9 L-232.45 17.0 -233.0 14.6 -232.75 12.2 -232.45 2.45 -232.4 0.45 -234.25 3.4 -234.25 3.1 -234.5 4.0 -234.75 4.9 Q-236.45 11.25 -237.5 18.65 -239.25 30.75 -239.25 44.7 -239.25 47.6 -238.1 55.7 -237.0 63.8 -237.0 67.05 L-236.7 72.35 -236.35 78.1 Q-236.2 81.4 -231.05 83.0 -225.6 84.7 -208.1 86.7 L-204.2 86.9 -199.9 87.45 Q-190.85 88.65 -187.05 89.55 -183.65 90.35 -177.15 92.8 L-170.85 96.05 Q-167.3 97.95 -164.85 97.95 L-135.8 96.8 Q-135.8 96.15 -135.4 95.85 -134.65 95.35 -130.1 95.1 L-130.15 94.2 -130.0 92.05 -129.4 92.05 Q-128.75 93.25 -128.0 96.15 -127.35 98.85 -126.4 100.35 -123.35 105.15 -111.7 107.6 L-72.85 104.45 -65.65 103.7 Q-61.75 102.55 -53.85 101.0 L-40.4 100.25 -37.3 100.3 -39.1 101.0 -38.5 100.85 -36.55 100.25 -35.4 100.1 Q-34.3 99.85 -33.95 99.0 -31.15 97.1 -31.15 94.3 L-31.0 85.4 -31.4 85.15 -31.0 85.05 -31.0 84.2 Q-31.0 81.0 -32.5 73.1 L-32.5 29.7 Q-32.95 29.0 -33.2 27.75 L-33.45 26.0 M-42.55 25.05 L-44.3 24.9 -44.1 25.05 -42.6 25.05 -42.55 25.05" fill="#525252" fill-rule="evenodd" stroke="none"/>
      <path d="M163.55 73.5 L163.75 76.2 163.9 79.05 163.55 83.3 Q163.15 86.9 163.15 89.05 L162.45 89.25 161.85 89.6 161.3 89.95 Q160.75 90.05 160.75 88.85 163.0 77.45 163.0 73.5 L163.55 73.5 M-60.3 105.5 L-57.9 105.55 -62.85 105.55 -60.3 105.5 M-54.35 25.6 L-54.3 25.55 -51.45 25.4 -53.05 25.5 -54.35 25.6 M-233.9 11.0 L-234.05 10.45 -234.05 8.45 -233.9 11.0 M-234.05 6.65 L-234.2 6.95 -234.25 6.5 -234.05 6.65" fill="#333333" fill-rule="evenodd" stroke="none"/>
    </g>
  </defs>
</svg>
