<?xml version="1.0" encoding="UTF-8" standalone="no"?>
<svg xmlns:ffdec="https://www.free-decompiler.com/flash" xmlns:xlink="http://www.w3.org/1999/xlink" ffdec:objectType="frame" height="238.2px" width="229.5px" xmlns="http://www.w3.org/2000/svg">
  <g transform="matrix(1.0, 0.0, 0.0, 1.0, 133.0, 207.75)">
    <use ffdec:characterId="905" height="9.7" transform="matrix(7.0, 0.0, 0.0, 7.0, -63.7, -78.75)" width="17.8" xlink:href="#shape0"/>
  </g>
  <defs>
    <g id="shape0" transform="matrix(1.0, 0.0, 0.0, 1.0, 9.1, 11.25)">
      <path d="M7.1 -7.6 Q7.15 -7.6 7.15 -7.35 7.15 -7.05 6.95 -6.85 L6.85 -6.75 6.85 -6.65 Q6.85 -6.55 6.7 -6.4 L6.65 -6.35 6.7 -6.3 6.4 -5.95 6.3 -5.8 6.25 -5.75 6.55 -5.7 7.25 -5.7 7.4 -5.6 7.5 -5.6 7.9 -5.65 8.1 -5.45 8.05 -5.4 8.05 -5.3 8.0 -5.3 Q7.7 -4.95 7.65 -4.95 7.5 -4.95 7.35 -5.05 7.25 -5.15 7.05 -5.2 L6.95 -5.2 7.0 -5.15 6.95 -5.05 Q6.25 -5.0 5.3 -4.45 L4.75 -4.15 5.0 -3.4 5.4 -3.3 5.7 -3.4 Q6.05 -3.55 6.25 -3.55 6.45 -3.55 6.55 -3.45 L6.75 -3.55 Q7.3 -3.75 7.85 -3.8 L8.25 -4.15 Q8.45 -4.25 8.7 -4.15 8.4 -3.5 8.0 -3.2 L7.45 -2.85 7.1 -2.55 Q7.05 -2.45 6.9 -2.4 L6.15 -2.35 5.2 -2.35 5.3 -2.3 4.8 -2.0 4.5 -1.85 Q4.2 -1.85 3.7 -2.05 L3.55 -2.05 3.35 -1.95 3.4 -2.05 Q2.35 -2.1 1.75 -2.4 L1.4 -2.4 1.25 -2.35 0.8 -2.25 0.8 -2.2 0.7 -2.2 0.65 -2.1 Q0.4 -1.7 0.0 -1.7 -0.55 -1.7 -0.8 -2.05 -0.9 -2.15 -0.95 -2.3 L-2.1 -2.5 -2.15 -2.55 -2.5 -2.2 Q-2.75 -2.05 -3.7 -2.05 L-3.75 -2.05 Q-5.25 -1.55 -5.35 -1.55 -5.55 -1.55 -5.8 -1.7 -6.1 -1.85 -6.25 -1.9 L-6.3 -2.05 Q-6.25 -2.25 -5.8 -2.3 L-5.9 -2.35 -6.2 -2.3 -6.75 -2.35 -7.95 -2.45 -7.95 -2.5 -8.15 -2.6 Q-8.5 -2.75 -8.7 -2.8 L-8.7 -3.0 -9.1 -3.05 -9.1 -3.5 Q-7.5 -3.2 -7.15 -3.2 L-6.85 -3.2 -6.7 -3.3 -6.7 -3.35 -6.85 -3.5 -7.7 -3.95 -7.7 -4.15 Q-8.25 -4.4 -8.3 -4.55 -7.75 -5.0 -6.95 -4.3 -6.6 -4.05 -6.4 -3.8 L-5.45 -3.7 -5.4 -3.7 -5.35 -3.9 Q-5.3 -4.1 -5.3 -4.3 -5.3 -4.45 -5.5 -4.65 -5.5 -4.5 -5.6 -4.45 L-5.8 -4.35 -5.95 -4.35 -6.05 -4.2 -6.4 -4.2 Q-6.4 -4.55 -6.55 -5.4 L-6.7 -6.35 -6.7 -6.55 -6.55 -6.7 Q-6.1 -6.55 -6.05 -6.4 -6.05 -6.1 -5.9 -5.8 -5.65 -6.0 -5.55 -6.1 L-5.55 -6.25 Q-5.95 -6.6 -6.0 -6.8 -6.3 -7.15 -6.3 -7.35 -6.3 -7.6 -6.2 -7.6 L-6.25 -7.8 Q-6.25 -8.25 -6.0 -8.4 -5.65 -8.2 -5.25 -7.55 -4.9 -7.1 -4.8 -6.7 L-4.25 -6.35 -4.15 -6.45 -4.05 -6.6 -4.35 -6.95 -5.25 -8.3 -5.05 -8.5 Q-4.65 -8.2 -3.9 -7.05 L-3.25 -6.45 Q-2.75 -5.95 -2.75 -5.6 -2.75 -5.4 -2.85 -5.05 L-2.85 -4.9 Q-1.8 -4.9 -1.35 -5.25 L-1.35 -5.3 -1.25 -5.8 -1.25 -5.85 -1.5 -5.85 -2.4 -5.9 Q-2.65 -6.4 -3.05 -6.75 L-3.85 -7.45 -3.9 -7.5 -3.8 -7.5 -4.0 -7.9 -4.05 -7.95 Q-4.3 -8.1 -4.5 -8.3 -4.8 -8.6 -4.8 -8.95 -4.8 -9.15 -4.75 -9.25 L-4.65 -9.35 Q-4.6 -9.25 -4.05 -8.75 -3.7 -8.45 -3.55 -8.15 L-3.35 -7.95 -2.65 -7.15 Q-2.2 -6.9 -1.85 -6.8 L-1.95 -7.15 Q-2.05 -7.35 -2.1 -7.45 L-2.25 -7.55 Q-2.55 -7.8 -2.55 -8.1 -2.55 -8.35 -2.5 -8.4 -2.55 -8.6 -2.55 -8.8 L-2.4 -8.8 Q-2.25 -8.7 -2.1 -8.2 -1.85 -8.05 -1.75 -7.85 L-1.7 -7.6 -1.55 -7.55 Q-1.5 -7.55 -1.3 -7.75 L-1.25 -7.8 -1.5 -8.7 Q-1.7 -9.65 -2.05 -10.45 L-2.7 -11.2 Q-2.3 -11.15 -1.8 -10.65 L-1.2 -10.0 Q-0.75 -10.4 -0.65 -10.7 L-0.45 -11.25 Q-0.15 -11.1 -0.15 -10.45 -0.2 -9.8 -0.2 -9.6 0.15 -9.5 0.15 -9.45 0.4 -9.55 0.55 -10.0 L0.8 -10.8 0.85 -10.85 Q1.1 -10.55 1.1 -10.3 1.0 -10.05 1.0 -9.9 L1.0 -9.85 1.45 -10.4 Q1.75 -10.75 2.0 -10.85 L2.2 -10.8 2.25 -10.85 Q2.3 -10.9 2.3 -10.65 2.3 -10.4 1.75 -9.75 1.25 -9.1 0.7 -9.0 L0.7 -8.8 1.1 -9.0 Q1.5 -9.15 1.7 -9.15 L1.95 -9.1 Q1.95 -9.05 2.0 -9.0 1.9 -8.5 1.05 -7.9 L1.05 -7.85 1.3 -7.3 Q1.55 -7.55 1.95 -8.3 2.5 -9.15 2.7 -9.45 L2.95 -8.95 3.0 -8.95 Q3.1 -8.85 3.1 -8.65 L3.4 -8.9 3.45 -8.95 3.7 -9.15 3.7 -9.25 Q3.8 -9.4 3.7 -10.0 3.7 -10.2 3.85 -10.25 L4.05 -10.25 4.25 -10.2 Q4.35 -10.2 4.35 -9.95 4.35 -9.75 4.25 -9.45 L4.05 -9.05 Q4.35 -9.15 4.9 -9.6 L5.75 -10.25 5.8 -10.3 Q5.85 -10.3 5.85 -10.1 5.85 -9.85 5.7 -9.75 L5.5 -9.6 5.45 -9.5 5.9 -9.55 6.2 -9.55 6.3 -9.45 6.3 -8.75 Q5.85 -8.5 4.9 -8.4 L4.3 -8.25 Q4.1 -8.2 3.85 -8.05 L2.65 -5.55 Q2.65 -5.3 2.7 -5.25 L2.85 -5.3 Q3.8 -5.3 4.0 -5.15 L4.35 -5.25 4.4 -5.3 Q4.55 -5.6 4.85 -6.25 4.75 -6.55 4.75 -6.7 4.75 -6.95 4.85 -7.25 4.9 -7.55 5.0 -7.7 5.5 -7.5 5.55 -6.95 L5.5 -6.0 Q5.85 -6.05 6.1 -6.4 L6.05 -6.4 Q6.05 -6.55 6.45 -7.0 6.8 -7.45 7.05 -7.55 L7.1 -7.6 M-0.9 -9.25 L-1.0 -9.35 -1.05 -9.3 -0.9 -9.25 M-0.05 -8.25 L0.05 -8.4 -0.05 -8.45 -0.05 -8.25 M-7.1 -2.85 L-7.1 -2.8 -6.85 -2.8 -7.1 -2.85 M-3.85 -6.05 L-3.85 -6.1 -3.9 -6.1 -3.85 -6.05 M-5.15 -3.6 L-5.15 -3.6 M-5.15 -2.6 L-5.15 -2.6 M-3.6 -2.85 L-3.5 -2.85 -3.55 -2.9 Q-3.55 -2.85 -3.6 -2.85" fill="#5e5533" fill-rule="evenodd" stroke="none"/>
    </g>
  </defs>
</svg>
