<?xml version="1.0" encoding="UTF-8" standalone="no"?>
<svg xmlns:ffdec="https://www.free-decompiler.com/flash" xmlns:xlink="http://www.w3.org/1999/xlink" ffdec:objectType="frame" height="169.1px" width="167.0px" xmlns="http://www.w3.org/2000/svg">
  <g transform="matrix(1.0, 0.0, 0.0, 1.0, 0.0, 0.0)">
    <use ffdec:characterId="199" height="169.1" transform="matrix(1.0, 0.0, 0.0, 1.0, 0.0, 0.0)" width="167.0" xlink:href="#shape0"/>
  </g>
  <defs>
    <g id="shape0" transform="matrix(1.0, 0.0, 0.0, 1.0, 0.0, 0.0)">
      <path d="M165.75 76.75 Q164.05 81.3 161.1 85.05 152.4 96.15 136.6 96.15 128.9 96.15 120.15 93.1 L112.8 90.0 110.2 90.5 109.75 90.6 109.1 91.1 108.65 91.5 104.55 96.85 Q98.9 104.5 98.9 107.05 L99.35 109.3 99.8 111.5 Q99.8 112.05 99.4 112.45 100.75 114.15 102.15 116.85 104.3 118.45 104.9 118.45 107.05 118.45 109.95 113.4 111.1 111.45 111.8 111.15 112.85 110.7 114.05 112.7 L115.45 117.75 116.55 123.2 Q116.55 127.55 113.0 132.95 L107.05 140.75 105.35 146.4 Q102.35 156.1 100.35 156.1 L99.75 156.0 99.2 156.8 Q90.15 169.1 68.6 169.1 45.3 169.1 35.45 156.25 31.8 151.45 30.4 145.95 L29.75 143.55 Q29.35 141.95 29.35 140.25 29.35 135.95 30.5 127.35 L31.6 119.5 31.65 118.7 Q30.7 117.6 28.95 114.4 25.9 111.9 23.45 105.05 20.7 97.25 20.7 93.8 L20.75 89.3 Q20.4 86.4 20.4 85.25 20.4 80.15 23.3 73.5 26.6 65.85 29.9 68.75 30.25 72.1 31.15 74.9 33.4 82.3 38.3 84.15 L38.85 84.75 Q41.85 85.9 46.0 86.5 L46.3 86.75 46.75 86.6 Q48.25 84.85 50.9 83.0 48.9 81.95 48.05 78.5 L47.6 73.35 Q47.6 70.75 48.1 68.3 49.0 63.85 51.2 63.85 L54.05 65.95 Q56.45 68.05 58.7 68.05 L64.15 67.85 Q69.8 62.95 78.95 58.7 83.2 56.75 90.45 54.1 99.7 50.75 103.6 47.2 106.95 44.1 106.95 40.0 106.95 37.25 105.65 34.05 103.5 28.85 99.05 28.85 L98.9 28.85 Q93.8 32.4 88.1 37.0 L76.8 46.45 Q64.95 56.05 57.15 56.05 50.65 56.05 44.7 53.3 42.8 54.45 37.15 56.45 29.05 59.35 27.45 59.35 12.5 59.35 4.95 47.85 0.0 40.3 0.0 33.5 0.0 32.2 2.25 26.8 4.25 21.9 4.65 21.35 7.7 16.1 8.25 21.9 8.5 24.8 8.15 29.0 8.15 32.6 11.15 37.55 14.95 43.95 20.45 43.95 L28.05 42.9 Q25.9 41.4 25.5 40.7 23.1 36.4 21.75 31.3 20.4 26.3 20.4 21.95 20.4 14.35 28.0 6.0 31.0 2.7 33.25 1.7 35.6 0.6 35.6 2.9 L33.45 8.0 Q31.3 12.85 31.3 15.95 31.3 21.05 36.9 27.9 41.55 33.6 47.4 35.5 L55.65 33.5 58.55 31.35 Q57.05 29.2 56.0 25.55 L54.6 16.7 Q54.6 9.85 62.65 4.8 65.7 2.9 68.2 2.45 70.7 1.95 70.7 3.35 70.7 4.6 69.6 6.95 68.45 9.3 68.45 10.45 68.45 13.35 70.55 17.3 73.1 22.15 76.7 22.15 L81.0 21.45 81.4 21.1 83.8 19.2 90.9 14.0 Q95.25 9.65 104.9 10.35 L118.4 12.2 Q127.9 14.15 132.9 17.35 L133.25 17.3 Q133.8 17.3 134.8 17.85 135.75 18.4 136.35 18.4 144.6 18.4 145.7 7.2 L146.3 0.95 Q146.8 -1.05 148.95 1.2 152.65 3.55 154.75 10.85 156.35 16.4 156.35 21.4 152.3 36.55 148.05 41.5 146.35 46.6 138.55 58.15 L129.05 71.5 Q129.3 72.65 130.3 74.25 131.75 76.75 133.0 76.75 152.45 76.75 157.6 67.95 159.4 64.95 159.55 60.65 L159.4 54.7 Q159.4 49.95 161.65 53.25 162.95 55.15 165.6 60.95 L166.45 66.3 167.0 71.6 Q167.0 73.4 165.75 76.75 M164.8 65.4 L164.85 63.65 Q164.85 62.4 164.15 60.4 163.4 58.3 162.45 57.15 164.95 65.95 156.85 73.15 L156.4 73.5 155.25 74.4 153.0 75.95 149.9 77.6 149.15 77.95 Q145.6 79.5 143.4 79.5 L143.15 79.5 137.0 78.8 132.85 77.55 132.6 77.45 131.85 77.15 129.3 75.95 128.95 75.8 128.8 75.7 128.7 75.65 128.25 75.4 Q126.85 74.45 126.45 73.55 L126.35 73.35 126.3 73.25 126.3 73.2 126.2 72.7 126.3 72.3 126.2 71.9 126.1 70.05 Q126.1 68.15 132.25 60.75 L139.5 52.2 143.55 43.85 Q142.05 46.8 137.2 49.1 L132.7 50.95 Q126.15 53.65 122.15 56.05 L122.05 55.9 121.95 55.8 125.05 53.85 Q130.15 50.65 135.75 47.45 L136.3 47.1 136.5 46.95 136.75 46.75 139.15 43.8 139.45 43.3 139.4 43.3 Q140.5 40.95 140.5 37.9 L139.6 35.1 138.95 33.5 Q140.7 37.0 142.95 37.2 L143.65 38.55 145.3 36.55 145.3 36.5 145.6 36.15 147.55 33.8 Q153.45 25.25 153.45 16.85 L153.2 15.3 153.1 14.9 153.0 14.6 153.0 14.65 151.55 10.4 Q149.75 5.6 149.1 4.6 148.95 10.2 147.55 14.15 L146.95 15.65 144.8 18.85 143.9 19.65 Q142.45 20.75 140.65 21.3 L139.9 21.3 Q139.4 21.4 139.05 21.6 L137.35 21.7 137.85 22.65 Q136.85 24.05 136.85 26.8 L138.2 31.75 138.0 31.35 Q136.1 27.05 134.65 24.65 L133.5 22.95 Q131.9 20.8 123.65 17.5 L123.15 17.3 122.35 17.0 122.25 16.95 Q112.85 13.25 109.0 13.25 L108.8 13.25 108.05 13.3 107.3 13.3 Q97.55 13.75 89.7 19.6 L84.4 23.9 83.1 24.9 80.75 26.5 Q76.8 28.95 75.2 29.25 L74.8 29.3 75.7 28.15 77.2 26.7 78.4 25.55 Q73.55 25.5 70.6 22.8 69.45 21.8 68.6 20.4 L68.5 20.25 67.65 18.6 Q66.2 15.15 66.2 10.55 66.2 9.55 66.65 8.5 L67.4 5.6 67.3 5.15 Q62.25 6.15 59.9 10.25 58.25 13.2 58.25 17.0 L58.6 20.15 58.95 23.3 Q58.95 26.75 62.3 28.4 64.25 29.35 65.05 30.6 L65.25 30.6 Q67.05 30.9 70.25 31.9 L70.25 31.95 70.2 31.95 69.35 32.45 68.85 32.65 68.95 32.65 67.4 33.3 65.05 34.2 64.5 34.15 63.7 34.3 Q62.3 34.3 61.15 33.7 59.9 34.8 57.15 36.05 56.4 36.4 55.75 36.7 58.4 37.25 62.1 39.05 L63.3 39.65 Q66.55 41.35 67.3 42.3 L67.35 42.4 67.45 42.6 67.5 42.8 Q67.5 43.85 66.95 45.55 66.3 47.4 65.6 47.9 L65.25 47.9 Q66.65 45.85 66.65 45.35 L66.65 45.3 66.65 45.2 66.65 45.1 66.65 45.0 66.5 44.75 65.95 43.7 65.35 42.55 Q64.2 41.55 62.2 40.8 L61.55 40.55 61.1 40.4 53.7 39.35 47.8 41.0 Q42.4 41.0 38.0 34.85 L37.6 34.25 37.0 33.3 35.5 30.5 33.55 26.75 33.0 25.7 30.9 21.75 Q29.95 19.6 30.35 17.9 30.7 16.5 30.45 13.8 L30.05 10.6 Q30.05 8.9 31.05 7.0 L31.05 6.65 Q28.2 8.2 25.85 14.75 L25.4 16.05 Q23.45 22.15 23.45 24.85 23.45 34.95 35.15 44.3 39.65 47.9 44.6 50.25 49.25 52.45 51.9 52.45 65.7 52.45 81.2 39.1 L91.3 29.9 Q96.05 25.7 98.35 25.7 L100.35 26.0 101.7 26.55 102.75 26.6 Q110.15 27.3 110.15 33.8 110.15 39.35 108.0 45.25 L106.75 48.3 106.45 48.9 106.4 48.95 106.4 48.9 Q103.8 53.75 99.95 55.6 L90.4 57.8 Q80.25 60.3 77.05 62.15 L71.6 67.0 66.2 71.55 Q58.1 71.55 55.55 69.75 54.1 67.6 52.8 66.8 52.2 67.25 51.65 68.35 L51.3 69.15 Q50.65 70.65 50.65 71.4 50.65 72.85 53.0 77.1 L55.0 80.6 55.0 80.65 55.05 80.6 Q60.3 78.15 66.4 78.15 L70.45 78.7 74.5 79.25 84.7 72.95 90.75 69.65 91.1 69.5 91.3 69.4 91.25 69.4 Q100.55 64.65 110.05 61.7 107.2 63.45 97.85 67.85 L88.5 72.0 Q86.85 72.0 81.65 77.65 L78.25 81.3 78.2 81.35 78.1 81.45 77.3 82.3 76.35 83.25 73.85 82.2 73.7 82.15 72.55 81.75 71.2 81.45 66.4 81.1 Q60.5 81.1 55.75 83.45 51.65 85.5 51.65 87.2 51.65 87.75 47.95 92.5 44.0 97.7 43.05 101.25 L42.6 101.35 Q44.65 97.35 44.9 95.5 L44.85 90.85 Q41.85 90.75 38.8 88.6 34.4 86.65 31.15 82.2 27.9 77.7 27.4 73.85 L27.1 74.2 25.9 75.65 25.25 78.65 25.15 79.05 25.1 79.2 24.55 81.55 24.5 81.65 Q23.55 85.65 23.2 89.05 L23.3 91.15 Q23.55 95.8 23.9 97.95 24.6 100.25 26.0 102.65 L26.9 105.55 Q29.8 112.6 33.75 112.6 L33.8 112.6 34.2 113.2 34.8 112.6 35.1 112.35 35.3 112.15 35.8 111.75 41.6 106.2 42.05 105.65 35.7 116.8 34.8 118.35 Q34.6 122.05 33.7 125.4 L33.55 126.0 33.65 126.7 Q33.65 129.6 32.85 137.25 L32.55 140.55 Q32.85 147.25 36.35 152.55 L37.8 154.5 38.1 154.85 Q40.05 157.15 42.6 158.95 51.85 165.5 68.85 165.5 87.15 165.5 97.1 154.55 99.55 151.85 101.25 149.0 102.4 146.05 102.4 143.3 L104.0 129.85 Q104.0 126.0 100.9 120.7 98.25 116.2 97.15 113.4 L95.05 114.05 94.05 114.4 93.15 113.65 93.1 113.6 92.7 113.15 Q92.7 112.65 94.9 109.7 97.75 105.8 100.0 99.9 101.6 95.65 103.2 93.55 L103.3 93.4 103.55 93.1 103.2 93.0 102.9 92.9 100.35 92.45 93.85 92.1 87.65 91.85 87.25 91.9 86.75 91.95 79.1 96.15 78.45 96.65 77.5 97.4 Q70.55 103.15 69.55 103.3 63.8 104.3 58.15 107.9 L53.7 111.0 Q51.1 112.7 49.4 113.6 L56.15 107.3 Q60.85 103.05 63.45 103.05 67.15 103.05 71.5 101.0 L73.35 100.0 Q76.05 98.5 77.5 97.25 L78.05 96.75 79.05 95.35 Q80.5 92.1 83.8 91.35 L97.3 90.4 97.2 90.45 98.85 90.4 100.45 90.4 100.55 90.4 104.0 90.35 Q105.2 90.35 107.6 88.75 L110.1 87.25 Q111.8 86.15 113.5 86.15 L120.65 89.35 Q129.05 92.5 136.6 92.5 145.15 92.5 151.35 88.95 L148.4 89.1 Q146.6 89.1 141.7 87.9 L138.25 87.0 142.5 87.1 Q149.35 87.1 155.4 83.75 158.65 81.9 160.0 80.25 L160.35 80.05 160.45 79.85 160.6 79.65 160.7 79.45 160.9 79.1 161.1 78.75 164.8 65.75 164.8 65.4 M121.1 23.8 Q121.1 25.15 120.05 27.05 117.4 25.25 117.15 24.3 L117.35 21.95 117.0 20.6 116.45 19.6 120.05 21.7 Q121.1 22.55 121.1 23.8 M119.85 29.45 Q121.25 29.75 121.05 31.15 121.05 32.3 120.3 33.3 L119.15 33.4 Q118.7 32.35 118.7 31.35 118.7 30.3 119.85 29.45 M113.3 71.0 L115.1 70.9 115.45 71.05 115.55 71.8 Q115.55 72.4 114.75 73.0 L113.5 73.85 112.65 73.5 Q112.35 73.2 112.35 72.45 112.35 71.45 113.3 71.0 M95.3 81.45 L95.25 80.85 Q95.25 80.1 96.5 79.65 L99.2 79.35 99.55 79.4 Q99.7 80.0 99.05 80.95 98.25 82.0 96.95 82.0 L95.6 81.9 95.45 81.7 95.4 81.65 95.35 81.6 95.3 81.45 M45.95 120.15 L44.35 121.4 43.5 121.3 Q43.1 120.0 44.35 118.1 45.65 116.1 47.35 116.65 L47.45 116.8 47.55 117.5 47.3 118.55 45.95 120.15 M108.05 76.35 Q108.05 77.15 107.1 77.7 L105.8 78.15 104.9 78.05 104.85 77.95 Q104.55 78.35 104.55 77.25 104.55 76.4 107.15 75.45 L107.8 75.55 108.05 76.35 M7.85 36.6 Q5.85 31.3 5.85 25.45 L5.65 25.25 Q2.95 31.45 2.95 37.8 L3.05 39.85 Q3.5 44.6 6.15 48.0 11.75 55.15 26.1 55.15 28.45 55.15 35.95 52.8 L41.0 51.15 38.25 49.25 34.85 47.15 32.6 45.75 31.75 45.25 31.45 45.05 31.35 45.0 28.85 46.3 Q26.05 47.25 21.8 47.25 L21.65 47.25 21.55 47.25 19.25 47.05 19.1 47.05 17.55 46.7 Q11.25 44.9 8.15 37.35 L7.85 36.6 M80.8 118.2 L79.2 120.15 78.65 121.5 Q78.45 122.15 77.0 122.45 L74.45 122.6 Q73.1 122.6 69.1 126.35 L63.2 132.2 Q62.85 132.7 62.85 131.6 62.85 129.95 69.0 124.3 75.35 118.45 77.85 118.45 80.05 118.45 82.35 117.0 L80.9 118.1 80.8 118.2 M41.65 124.95 Q39.3 128.25 38.75 128.55 38.25 129.1 38.25 128.0 38.25 127.25 39.05 126.0 40.05 124.45 41.2 124.25 L41.45 124.15 Q41.65 124.25 41.65 124.95 M113.6 119.15 L113.15 116.75 112.35 116.2 Q111.65 118.15 108.45 120.5 L106.5 121.8 104.7 122.65 Q106.95 128.4 107.7 132.7 108.35 132.05 109.15 131.5 111.7 129.7 112.5 128.65 114.05 126.6 114.05 123.25 L113.6 119.15 M88.45 115.2 L87.65 115.5 86.85 115.25 Q86.55 115.0 86.55 114.25 86.55 113.55 86.95 113.4 L87.65 113.25 Q88.6 113.65 88.8 114.15 L88.45 115.2" fill="#75873f" fill-rule="evenodd" stroke="none"/>
      <path d="M156.85 73.15 Q164.95 65.95 162.45 57.15 163.4 58.3 164.15 60.4 164.85 62.4 164.85 63.65 L164.8 65.4 164.4 66.85 Q163.1 71.2 160.65 74.8 153.2 85.7 138.3 85.7 L132.65 84.45 127.8 83.1 127.05 82.85 Q128.0 80.0 132.75 77.6 L132.85 77.55 137.0 78.8 135.5 79.05 Q136.5 79.3 137.15 79.85 L142.1 80.3 Q153.2 78.15 153.2 75.85 L153.0 75.95 155.25 74.4 Q154.45 75.6 153.65 77.8 155.2 77.45 156.5 75.9 157.7 74.55 157.7 73.7 157.7 73.0 157.5 72.95 L157.25 73.1 156.85 73.15 M77.5 97.25 Q76.05 98.5 73.35 100.0 L71.5 101.0 71.6 100.9 77.5 97.25 M53.7 111.0 L58.15 107.9 Q63.8 104.3 69.55 103.3 70.55 103.15 77.5 97.4 L78.45 96.65 80.0 95.7 84.15 93.95 93.3 92.65 Q92.55 93.5 92.0 94.7 L89.5 99.45 Q87.9 102.3 87.45 103.5 86.25 106.85 78.4 112.15 68.15 119.0 65.8 121.25 L55.45 129.55 Q48.3 135.15 46.8 138.4 41.75 149.0 36.35 152.55 32.85 147.25 32.55 140.55 L32.85 137.25 Q33.65 129.6 33.65 126.7 L33.55 126.0 33.7 125.4 Q34.6 122.05 34.8 118.35 L35.7 116.8 42.05 105.65 41.6 106.2 41.85 104.9 Q37.7 100.75 33.55 95.25 25.9 85.2 25.3 78.4 L25.25 78.65 25.9 75.65 27.1 74.2 27.4 73.85 Q27.9 77.7 31.15 82.2 34.4 86.65 38.8 88.6 41.85 90.75 44.85 90.85 L44.9 95.5 Q44.65 97.35 42.6 101.35 L43.05 101.25 Q44.0 97.7 47.95 92.5 51.65 87.75 51.65 87.2 51.65 85.5 55.75 83.45 60.5 81.1 66.4 81.1 L71.2 81.45 Q68.5 82.95 64.95 82.6 61.35 82.25 59.15 83.55 54.8 86.15 53.45 88.65 52.4 91.8 51.2 94.1 L51.65 94.0 52.75 91.9 Q53.3 90.7 54.05 90.05 L54.7 90.6 55.95 90.95 59.05 90.05 Q61.2 89.2 64.35 89.45 66.4 89.65 67.55 87.75 68.8 85.75 71.0 85.75 L75.7 86.0 Q77.4 85.75 77.4 83.2 L77.3 82.3 78.1 81.45 78.05 81.55 78.75 81.2 78.25 81.3 81.65 77.65 Q86.85 72.0 88.5 72.0 L97.85 67.85 Q107.2 63.45 110.05 61.7 100.55 64.65 91.25 69.4 L90.9 69.3 Q88.3 70.2 86.15 71.55 L82.75 73.45 Q78.3 75.3 63.65 75.4 L58.7 75.4 53.0 71.15 51.65 68.35 Q52.2 67.25 52.8 66.8 54.1 67.6 55.55 69.75 58.1 71.55 66.2 71.55 L71.6 67.0 77.05 62.15 Q80.25 60.3 90.4 57.8 L99.95 55.6 Q103.8 53.75 106.4 48.9 L106.4 48.95 106.45 48.9 Q108.9 46.5 111.15 40.95 114.1 33.5 114.1 30.45 114.1 28.1 112.15 25.0 108.95 19.9 102.65 19.9 97.55 19.9 91.65 23.7 88.9 25.5 84.05 29.75 81.95 31.65 73.0 35.25 65.15 38.4 63.3 39.65 L62.1 39.05 Q58.4 37.25 55.75 36.7 56.4 36.4 57.15 36.05 59.9 34.8 61.15 33.7 62.3 34.3 63.7 34.3 L64.5 34.15 65.05 34.2 67.4 33.3 68.95 32.65 72.0 31.35 Q74.3 30.15 75.2 29.25 76.8 28.95 80.75 26.5 L83.1 24.9 84.4 23.9 89.7 19.6 Q97.55 13.75 107.3 13.3 103.1 14.2 100.6 15.7 L109.2 14.8 115.75 16.25 123.65 17.5 Q131.9 20.8 133.5 22.95 L134.65 24.65 134.6 24.75 134.8 31.05 135.0 36.35 134.6 38.5 131.85 43.45 131.4 43.85 124.6 49.95 Q115.2 56.85 109.55 60.35 115.8 58.75 122.05 55.9 L122.15 56.05 Q126.15 53.65 132.7 50.95 L124.05 60.7 Q118.7 66.65 107.85 74.0 L99.2 79.35 96.5 79.65 Q95.25 80.1 95.25 80.85 L95.3 81.45 Q89.0 84.65 83.15 86.4 69.45 90.55 62.35 95.15 56.1 99.15 51.1 106.25 46.75 112.3 43.05 118.0 35.9 129.15 35.9 132.6 L36.0 133.3 36.45 133.3 Q39.45 128.1 45.95 120.15 L47.3 118.55 50.3 114.95 53.7 111.0 M103.2 93.0 L103.55 93.1 103.3 93.4 103.2 93.55 103.2 93.25 103.2 93.0 M93.15 113.65 L94.05 114.4 95.05 114.05 96.5 117.25 Q98.45 120.95 98.45 123.95 98.45 127.6 96.05 131.8 93.15 136.9 88.2 139.3 85.55 140.55 82.1 141.65 L82.35 141.25 Q85.6 136.2 87.9 130.45 89.85 125.6 89.85 123.95 89.85 122.75 90.5 121.55 87.55 123.3 84.05 127.9 L80.15 133.3 Q68.55 141.7 57.3 143.85 L57.45 143.75 Q72.15 126.55 86.55 117.35 L86.85 117.35 Q88.95 117.35 93.0 113.7 L93.05 113.65 93.15 113.65 M55.05 80.6 L55.0 80.65 55.0 80.6 55.05 80.6 M25.85 14.75 Q28.2 8.2 31.05 6.65 L31.05 7.0 Q30.05 8.9 30.05 10.6 L30.45 13.8 Q30.7 16.5 30.35 17.9 29.95 19.6 30.9 21.75 L33.0 25.7 33.55 26.75 33.2 26.15 Q30.75 22.45 28.9 20.25 L28.8 20.8 Q31.6 26.1 35.45 31.25 L37.4 33.95 37.6 34.25 38.0 34.85 38.4 35.65 Q38.4 37.65 40.5 40.05 43.6 43.7 49.35 43.7 L55.55 42.05 61.55 40.55 62.2 40.8 Q64.2 41.55 65.35 42.55 L64.4 41.9 65.1 42.65 65.95 43.7 66.5 44.75 66.6 45.05 63.45 46.0 53.9 46.65 Q37.25 46.65 30.2 34.75 27.9 30.95 26.75 26.1 L25.85 21.15 25.85 14.75 M58.6 20.15 L58.25 17.0 Q58.25 13.2 59.9 10.25 62.25 6.15 67.3 5.15 L67.4 5.6 66.65 8.5 Q66.2 9.55 66.2 10.55 66.2 15.15 67.65 18.6 L68.5 20.25 Q65.85 20.05 65.85 17.2 65.85 16.2 64.9 14.45 L63.9 12.85 Q63.9 12.25 64.35 11.5 L64.8 10.15 64.7 9.2 64.35 8.8 Q62.9 9.55 62.0 12.65 61.3 14.9 61.3 16.0 L64.9 19.95 Q68.6 23.75 69.35 23.75 L71.35 23.45 70.6 22.8 Q73.55 25.5 78.4 25.55 L77.2 26.7 75.7 28.15 75.45 27.2 74.55 26.8 71.5 27.4 68.15 27.85 Q62.3 27.85 58.6 20.1 L58.6 20.15 M138.2 31.75 L136.85 26.8 Q136.85 24.05 137.85 22.65 L137.35 21.7 139.05 21.6 Q139.4 21.4 139.9 21.3 L140.65 21.3 Q142.45 20.75 143.9 19.65 143.7 20.9 142.7 22.0 141.5 23.3 141.5 24.15 141.5 25.25 141.75 24.65 L146.6 22.65 Q148.55 21.6 148.55 20.1 148.55 19.25 147.65 17.2 L146.95 15.65 147.55 14.15 Q148.95 10.2 149.1 4.6 149.75 5.6 151.55 10.4 L153.0 14.65 153.0 15.95 Q151.35 29.35 138.2 31.75 M123.6 35.35 L122.25 33.15 Q118.95 35.7 114.9 42.2 110.65 49.15 106.95 52.4 L107.3 52.4 109.2 50.95 Q110.35 50.05 110.8 50.05 111.35 50.05 111.7 50.5 112.0 50.95 112.6 50.95 114.15 50.95 115.35 47.9 116.55 44.8 117.15 44.8 L120.15 44.65 Q121.35 44.2 121.35 42.05 L121.1 40.75 120.65 39.85 Q122.5 40.05 123.5 39.15 124.3 38.45 124.3 37.35 L123.6 35.35 M124.0 27.1 Q123.3 25.9 122.6 25.4 L122.2 26.1 Q121.95 26.75 121.95 27.5 121.95 28.05 122.6 29.05 L123.5 30.45 124.35 29.7 124.65 28.45 124.0 27.1 M121.1 23.8 Q121.1 22.55 120.05 21.7 L116.45 19.6 117.0 20.6 117.35 21.95 117.15 24.3 Q117.4 25.25 120.05 27.05 121.1 25.15 121.1 23.8 M119.85 29.45 Q118.7 30.3 118.7 31.35 118.7 32.35 119.15 33.4 L120.3 33.3 Q121.05 32.3 121.05 31.15 121.25 29.75 119.85 29.45 M102.75 70.5 Q104.3 68.6 105.6 67.85 107.8 66.6 111.7 63.55 L119.1 58.1 Q107.85 63.0 103.05 65.45 94.9 69.6 92.35 74.95 L92.7 75.2 Q98.15 73.55 100.15 72.7 101.35 72.2 102.75 70.5 M82.95 66.25 Q84.75 65.7 84.75 63.7 84.75 57.8 79.95 61.95 75.95 65.45 74.7 68.25 L74.8 68.75 76.5 67.5 Q77.5 66.6 78.45 66.6 L82.95 66.25 M97.8 61.3 L99.0 61.4 Q99.65 61.4 100.9 60.1 L103.2 57.85 Q101.0 57.3 99.0 58.2 97.2 59.0 97.2 60.15 97.2 60.8 97.35 60.95 L97.45 61.15 97.8 61.3 M94.95 59.15 Q93.4 59.55 92.65 59.9 91.35 60.45 91.35 61.45 91.35 62.55 91.55 61.95 L94.5 61.35 Q95.65 60.9 95.85 60.05 95.7 59.4 94.95 59.15 M84.3 80.75 L84.4 80.95 85.95 81.3 Q87.2 81.2 87.6 79.85 L87.8 78.25 Q86.35 77.95 85.2 78.55 84.2 79.1 84.2 79.95 L84.3 80.75 M7.85 36.6 Q6.15 35.1 5.3 33.6 L4.85 33.6 4.75 34.65 Q4.75 36.4 6.55 38.5 8.95 41.25 9.45 42.35 10.6 44.95 17.55 46.7 L19.1 47.05 19.25 47.05 27.45 48.1 Q29.9 48.1 31.25 47.35 32.3 46.75 32.6 45.75 L34.85 47.15 34.55 47.25 Q28.1 49.9 23.85 49.9 10.6 49.9 4.9 42.75 3.85 41.45 3.05 39.85 L2.95 37.8 Q2.95 31.45 5.65 25.25 L5.85 25.45 Q5.85 31.3 7.85 36.6 M31.15 83.0 L30.8 83.1 Q31.35 84.4 32.1 88.1 33.1 91.15 35.55 91.15 36.6 91.15 37.15 90.55 37.6 90.05 37.6 89.45 37.6 88.2 35.25 86.5 32.15 84.25 31.15 83.0 M39.9 92.55 Q37.5 91.0 37.5 93.0 L38.5 94.7 Q39.8 96.6 41.0 96.6 L41.9 96.4 42.15 96.15 Q42.3 96.4 42.3 95.3 42.3 94.1 39.9 92.55 M67.55 110.2 Q68.1 110.2 69.35 108.95 70.7 107.7 70.7 107.05 70.7 106.35 70.35 106.2 L69.55 106.0 Q68.0 106.85 67.2 107.4 65.7 108.4 65.7 108.95 65.7 109.65 65.85 109.8 L65.95 110.0 66.3 110.1 67.55 110.2 M74.0 103.45 L74.1 104.2 74.3 104.3 Q76.9 103.15 80.45 100.45 84.5 97.4 85.1 95.7 82.5 93.7 78.15 97.45 74.0 100.95 74.0 103.45 M54.45 118.15 L59.5 116.8 Q63.0 116.0 63.0 112.6 63.0 108.55 58.65 111.15 54.35 113.7 54.0 116.1 53.75 117.85 51.85 120.65 L48.95 124.95 49.3 124.95 52.2 121.15 Q53.85 118.7 54.45 118.15 M79.55 124.5 L80.0 124.7 Q81.6 123.95 83.05 122.35 L84.65 120.15 Q83.65 120.35 82.1 121.9 L79.55 124.5 M113.6 119.15 L109.05 125.05 Q107.25 125.05 106.55 122.05 L106.5 121.8 108.45 120.5 Q111.65 118.15 112.35 116.2 L113.15 116.75 113.6 119.15" fill="#f2f1e3" fill-rule="evenodd" stroke="none"/>
      <path d="M132.85 77.55 L132.75 77.6 Q128.0 80.0 127.05 82.85 L127.8 83.1 132.65 84.45 138.3 85.7 Q153.2 85.7 160.65 74.8 163.1 71.2 164.4 66.85 L164.8 65.4 164.8 65.75 161.1 78.75 160.9 79.1 160.7 79.45 160.6 79.65 160.45 79.85 160.35 80.05 160.0 80.25 Q158.65 81.9 155.4 83.75 149.35 87.1 142.5 87.1 L138.25 87.0 141.7 87.9 Q146.6 89.1 148.4 89.1 L151.35 88.95 Q145.15 92.5 136.6 92.5 129.05 92.5 120.65 89.35 L113.5 86.15 Q111.8 86.15 110.1 87.25 L107.6 88.75 Q105.2 90.35 104.0 90.35 L100.55 90.4 100.45 90.4 98.85 90.4 97.2 90.45 97.3 90.4 83.8 91.35 Q80.5 92.1 79.05 95.35 L78.05 96.75 77.5 97.25 71.6 100.9 71.5 101.0 Q67.15 103.05 63.45 103.05 60.85 103.05 56.15 107.3 L49.4 113.6 Q51.1 112.7 53.7 111.0 L50.3 114.95 47.3 118.55 47.55 117.5 47.45 116.8 47.35 116.65 Q45.65 116.1 44.35 118.1 43.1 120.0 43.5 121.3 L44.35 121.4 45.95 120.15 Q39.45 128.1 36.45 133.3 L36.0 133.3 35.9 132.6 Q35.9 129.15 43.05 118.0 46.75 112.3 51.1 106.25 56.1 99.15 62.35 95.15 69.45 90.55 83.15 86.4 89.0 84.65 95.3 81.45 L95.35 81.6 95.4 81.65 95.45 81.7 95.6 81.9 96.95 82.0 Q98.25 82.0 99.05 80.95 99.7 80.0 99.55 79.4 L99.2 79.35 107.85 74.0 Q118.7 66.65 124.05 60.7 L132.7 50.95 137.2 49.1 Q142.05 46.8 143.55 43.85 L139.5 52.2 132.25 60.75 Q126.1 68.15 126.1 70.05 L126.2 71.9 126.3 72.3 126.2 72.7 126.3 73.2 126.3 73.25 126.35 73.35 126.45 73.55 Q126.85 74.45 128.25 75.4 L128.7 75.65 128.8 75.7 128.95 75.8 129.3 75.95 131.85 77.15 132.6 77.45 132.85 77.55 M78.45 96.65 L79.1 96.15 86.75 91.95 87.25 91.9 87.65 91.85 93.85 92.1 100.35 92.45 102.9 92.9 103.2 93.0 103.2 93.25 103.2 93.55 Q101.6 95.65 100.0 99.9 97.75 105.8 94.9 109.7 92.7 112.65 92.7 113.15 L93.1 113.6 93.15 113.65 93.05 113.65 93.0 113.7 Q88.95 117.35 86.85 117.35 L86.55 117.35 Q72.15 126.55 57.45 143.75 L57.3 143.85 Q68.55 141.7 80.15 133.3 L84.05 127.9 Q87.55 123.3 90.5 121.55 89.85 122.75 89.85 123.95 89.85 125.6 87.9 130.45 85.6 136.2 82.35 141.25 L82.1 141.65 Q85.55 140.55 88.2 139.3 93.15 136.9 96.05 131.8 98.45 127.6 98.45 123.95 98.45 120.95 96.5 117.25 L95.05 114.05 97.15 113.4 Q98.25 116.2 100.9 120.7 104.0 126.0 104.0 129.85 L102.4 143.3 Q102.4 146.05 101.25 149.0 99.55 151.85 97.1 154.55 87.15 165.5 68.85 165.5 51.85 165.5 42.6 158.95 40.05 157.15 38.1 154.85 L37.8 154.5 36.35 152.55 Q41.75 149.0 46.8 138.4 48.3 135.15 55.45 129.55 L65.8 121.25 Q68.15 119.0 78.4 112.15 86.25 106.85 87.45 103.5 87.9 102.3 89.5 99.45 L92.0 94.7 Q92.55 93.5 93.3 92.65 L84.15 93.95 80.0 95.7 78.45 96.65 M41.6 106.2 L35.8 111.75 35.3 112.15 35.1 112.35 34.8 112.6 34.2 113.2 33.8 112.6 33.75 112.6 Q29.8 112.6 26.9 105.55 L26.0 102.65 Q24.6 100.25 23.9 97.95 23.55 95.8 23.3 91.15 L23.2 89.05 Q23.55 85.65 24.5 81.65 L24.55 81.55 25.1 79.2 25.15 79.05 25.25 78.65 25.3 78.4 Q25.9 85.2 33.55 95.25 37.7 100.75 41.85 104.9 L41.6 106.2 M91.25 69.4 L91.3 69.4 91.1 69.5 90.75 69.65 84.7 72.95 74.5 79.25 70.45 78.7 66.4 78.15 Q60.3 78.15 55.05 80.6 L55.0 80.6 53.0 77.1 Q50.65 72.85 50.65 71.4 50.65 70.65 51.3 69.15 L51.65 68.35 53.0 71.15 58.7 75.4 63.65 75.4 Q78.3 75.3 82.75 73.45 L86.15 71.55 Q88.3 70.2 90.9 69.3 L91.25 69.4 M106.45 48.9 L106.75 48.3 108.0 45.25 Q110.15 39.35 110.15 33.8 110.15 27.3 102.75 26.6 L101.7 26.55 100.35 26.0 98.35 25.7 Q96.05 25.7 91.3 29.9 L81.2 39.1 Q65.7 52.45 51.9 52.45 49.25 52.45 44.6 50.25 39.65 47.9 35.15 44.3 23.45 34.95 23.45 24.85 23.45 22.15 25.4 16.05 L25.85 14.75 25.85 21.15 26.75 26.1 Q27.9 30.95 30.2 34.75 37.25 46.65 53.9 46.65 L63.45 46.0 66.6 45.05 66.5 44.75 66.65 45.0 66.65 45.1 66.65 45.2 66.65 45.3 66.65 45.35 Q66.65 45.85 65.25 47.9 L65.6 47.9 Q66.3 47.4 66.95 45.55 67.5 43.85 67.5 42.8 L67.45 42.6 67.35 42.4 67.3 42.3 Q66.55 41.35 63.3 39.65 65.15 38.4 73.0 35.25 81.95 31.65 84.05 29.75 88.9 25.5 91.65 23.7 97.55 19.9 102.65 19.9 108.95 19.9 112.15 25.0 114.1 28.1 114.1 30.45 114.1 33.5 111.15 40.95 108.9 46.5 106.45 48.9 M65.35 42.55 L65.95 43.7 65.1 42.65 64.4 41.9 65.35 42.55 M68.95 32.65 L68.85 32.65 69.35 32.45 70.2 31.95 70.25 31.95 70.25 31.9 Q67.05 30.9 65.25 30.6 L65.05 30.6 Q64.25 29.35 62.3 28.4 58.95 26.75 58.95 23.3 L58.6 20.15 58.6 20.1 Q62.3 27.85 68.15 27.85 L71.5 27.4 74.55 26.8 75.45 27.2 75.7 28.15 74.8 29.3 75.2 29.25 Q74.3 30.15 72.0 31.35 L68.95 32.65 M134.65 24.65 Q136.1 27.05 138.0 31.35 L138.2 31.75 Q151.35 29.35 153.0 15.95 L153.0 14.65 153.0 14.6 153.1 14.9 153.2 15.3 153.45 16.85 Q153.45 25.25 147.55 33.8 L145.6 36.15 145.3 36.5 145.3 36.55 143.65 38.55 142.95 37.2 Q140.7 37.0 138.95 33.5 L139.6 35.1 140.5 37.9 Q140.5 40.95 139.4 43.3 L139.45 43.3 139.15 43.8 136.75 46.75 136.5 46.95 136.3 47.1 135.75 47.45 Q130.15 50.65 125.05 53.85 L121.95 55.8 122.05 55.9 Q115.8 58.75 109.55 60.35 115.2 56.85 124.6 49.95 L131.4 43.85 131.85 43.45 134.6 38.5 135.0 36.35 134.8 31.05 134.6 24.75 134.65 24.65 M113.3 71.0 Q112.35 71.45 112.35 72.45 112.35 73.2 112.65 73.5 L113.5 73.85 114.75 73.0 Q115.55 72.4 115.55 71.8 L115.45 71.05 115.1 70.9 113.3 71.0 M108.05 76.35 L107.8 75.55 107.15 75.45 Q104.55 76.4 104.55 77.25 104.55 78.35 104.85 77.95 L104.9 78.05 105.8 78.15 107.1 77.7 Q108.05 77.15 108.05 76.35 M3.05 39.85 Q3.85 41.45 4.9 42.75 10.6 49.9 23.85 49.9 28.1 49.9 34.55 47.25 L34.85 47.15 38.25 49.25 41.0 51.15 35.95 52.8 Q28.45 55.15 26.1 55.15 11.75 55.15 6.15 48.0 3.5 44.6 3.05 39.85 M80.8 118.2 L80.9 118.1 82.35 117.0 Q80.05 118.45 77.85 118.45 75.35 118.45 69.0 124.3 62.85 129.95 62.85 131.6 62.85 132.7 63.2 132.2 L69.1 126.35 Q73.1 122.6 74.45 122.6 L77.0 122.45 Q78.45 122.15 78.65 121.5 L79.2 120.15 80.8 118.2 M41.65 124.95 Q41.65 124.25 41.45 124.15 L41.2 124.25 Q40.05 124.45 39.05 126.0 38.25 127.25 38.25 128.0 38.25 129.1 38.75 128.55 39.3 128.25 41.65 124.95 M106.5 121.8 L106.55 122.05 Q107.25 125.05 109.05 125.05 L113.6 119.15 114.05 123.25 Q114.05 126.6 112.5 128.65 111.7 129.7 109.15 131.5 108.35 132.05 107.7 132.7 106.95 128.4 104.7 122.65 L106.5 121.8 M88.45 115.2 L88.8 114.15 Q88.6 113.65 87.65 113.25 L86.95 113.4 Q86.55 113.55 86.55 114.25 86.55 115.0 86.85 115.25 L87.65 115.5 88.45 115.2" fill="#b7c787" fill-rule="evenodd" stroke="none"/>
      <path d="M156.85 73.15 L157.25 73.1 157.5 72.95 Q157.7 73.0 157.7 73.7 157.7 74.55 156.5 75.9 155.2 77.45 153.65 77.8 154.45 75.6 155.25 74.4 L156.4 73.5 156.85 73.15 M153.0 75.95 L153.2 75.85 Q153.2 78.15 142.1 80.3 L137.15 79.85 Q136.5 79.3 135.5 79.05 L137.0 78.8 143.15 79.5 143.4 79.5 Q145.6 79.5 149.15 77.95 L149.9 77.6 153.0 75.95 M71.2 81.45 L72.55 81.75 73.7 82.15 73.85 82.2 76.35 83.25 77.3 82.3 77.4 83.2 Q77.4 85.75 75.7 86.0 L71.0 85.75 Q68.8 85.75 67.55 87.75 66.4 89.65 64.35 89.45 61.2 89.2 59.05 90.05 L55.95 90.95 54.7 90.6 54.05 90.05 Q53.3 90.7 52.75 91.9 L51.65 94.0 51.2 94.1 Q52.4 91.8 53.45 88.65 54.8 86.15 59.15 83.55 61.35 82.25 64.95 82.6 68.5 82.95 71.2 81.45 M78.1 81.45 L78.2 81.35 78.25 81.3 78.75 81.2 78.05 81.55 78.1 81.45 M33.55 26.75 L35.5 30.5 37.0 33.3 37.6 34.25 37.4 33.95 35.45 31.25 Q31.6 26.1 28.8 20.8 L28.9 20.25 Q30.75 22.45 33.2 26.15 L33.55 26.75 M38.0 34.85 Q42.4 41.0 47.8 41.0 L53.7 39.35 61.1 40.4 61.55 40.55 55.55 42.05 49.35 43.7 Q43.6 43.7 40.5 40.05 38.4 37.65 38.4 35.65 L38.0 34.85 M68.5 20.25 L68.6 20.4 Q69.45 21.8 70.6 22.8 L71.35 23.45 69.35 23.75 Q68.6 23.75 64.9 19.95 L61.3 16.0 Q61.3 14.9 62.0 12.65 62.9 9.55 64.35 8.8 L64.7 9.2 64.8 10.15 64.35 11.5 Q63.9 12.25 63.9 12.85 L64.9 14.45 Q65.85 16.2 65.85 17.2 65.85 20.05 68.5 20.25 M107.3 13.3 L108.05 13.3 108.8 13.25 109.0 13.25 Q112.85 13.25 122.25 16.95 L122.35 17.0 123.15 17.3 123.65 17.5 115.75 16.25 109.2 14.8 100.6 15.7 Q103.1 14.2 107.3 13.3 M143.9 19.65 L144.8 18.85 146.95 15.65 147.65 17.2 Q148.55 19.25 148.55 20.1 148.55 21.6 146.6 22.65 L141.75 24.65 Q141.5 25.25 141.5 24.15 141.5 23.3 142.7 22.0 143.7 20.9 143.9 19.65 M124.0 27.1 L124.65 28.45 124.35 29.7 123.5 30.45 122.6 29.05 Q121.95 28.05 121.95 27.5 121.95 26.75 122.2 26.1 L122.6 25.4 Q123.3 25.9 124.0 27.1 M123.6 35.35 L124.3 37.35 Q124.3 38.45 123.5 39.15 122.5 40.05 120.65 39.85 L121.1 40.75 121.35 42.05 Q121.35 44.2 120.15 44.65 L117.15 44.8 Q116.55 44.8 115.35 47.9 114.15 50.95 112.6 50.95 112.0 50.95 111.7 50.5 111.35 50.05 110.8 50.05 110.35 50.05 109.2 50.95 L107.3 52.4 106.95 52.4 Q110.65 49.15 114.9 42.2 118.95 35.7 122.25 33.15 L123.6 35.35 M102.75 70.5 Q101.35 72.2 100.15 72.7 98.15 73.55 92.7 75.2 L92.35 74.95 Q94.9 69.6 103.05 65.45 107.85 63.0 119.1 58.1 L111.7 63.55 Q107.8 66.6 105.6 67.85 104.3 68.6 102.75 70.5 M94.95 59.15 Q95.7 59.4 95.85 60.05 95.65 60.9 94.5 61.35 L91.55 61.95 Q91.35 62.55 91.35 61.45 91.35 60.45 92.65 59.9 93.4 59.55 94.95 59.15 M97.8 61.3 L97.45 61.15 97.35 60.95 Q97.2 60.8 97.2 60.15 97.2 59.0 99.0 58.2 101.0 57.3 103.2 57.85 L100.9 60.1 Q99.65 61.4 99.0 61.4 L97.8 61.3 M82.95 66.25 L78.45 66.6 Q77.5 66.6 76.5 67.5 L74.8 68.75 74.7 68.25 Q75.95 65.45 79.95 61.95 84.75 57.8 84.75 63.7 84.75 65.7 82.95 66.25 M84.3 80.75 L84.2 79.95 Q84.2 79.1 85.2 78.55 86.35 77.95 87.8 78.25 L87.6 79.85 Q87.2 81.2 85.95 81.3 L84.4 80.95 84.3 80.75 M17.55 46.7 Q10.6 44.95 9.45 42.35 8.95 41.25 6.55 38.5 4.75 36.4 4.75 34.65 L4.85 33.6 5.3 33.6 Q6.15 35.1 7.85 36.6 L8.15 37.35 Q11.25 44.9 17.55 46.7 M32.6 45.75 Q32.3 46.75 31.25 47.35 29.9 48.1 27.45 48.1 L19.25 47.05 21.55 47.25 21.65 47.25 21.8 47.25 Q26.05 47.25 28.85 46.3 L31.35 45.0 31.45 45.05 31.75 45.25 32.6 45.75 M31.15 83.0 Q32.15 84.25 35.25 86.5 37.6 88.2 37.6 89.45 37.6 90.05 37.15 90.55 36.6 91.15 35.55 91.15 33.1 91.15 32.1 88.1 31.35 84.4 30.8 83.1 L31.15 83.0 M39.9 92.55 Q42.3 94.1 42.3 95.3 42.3 96.4 42.15 96.15 L41.9 96.4 41.0 96.6 Q39.8 96.6 38.5 94.7 L37.5 93.0 Q37.5 91.0 39.9 92.55 M74.0 103.45 Q74.0 100.95 78.15 97.45 82.5 93.7 85.1 95.7 84.5 97.4 80.45 100.45 76.9 103.15 74.3 104.3 L74.1 104.2 74.0 103.45 M67.55 110.2 L66.3 110.1 65.95 110.0 65.85 109.8 Q65.7 109.65 65.7 108.95 65.7 108.4 67.2 107.4 68.0 106.85 69.55 106.0 L70.35 106.2 Q70.7 106.35 70.7 107.05 70.7 107.7 69.35 108.95 68.1 110.2 67.55 110.2 M54.45 118.15 Q53.85 118.7 52.2 121.15 L49.3 124.95 48.95 124.95 51.85 120.65 Q53.75 117.85 54.0 116.1 54.35 113.7 58.65 111.15 63.0 108.55 63.0 112.6 63.0 116.0 59.5 116.8 L54.45 118.15 M79.55 124.5 L82.1 121.9 Q83.65 120.35 84.65 120.15 L83.05 122.35 Q81.6 123.95 80.0 124.7 L79.55 124.5" fill="#ffffff" fill-rule="evenodd" stroke="none"/>
    </g>
  </defs>
</svg>
