<?xml version="1.0" encoding="UTF-8" standalone="no"?>
<svg xmlns:ffdec="https://www.free-decompiler.com/flash" xmlns:xlink="http://www.w3.org/1999/xlink" ffdec:objectType="frame" height="943.8px" width="1373.55px" xmlns="http://www.w3.org/2000/svg">
  <g transform="matrix(1.0, 0.0, 0.0, 1.0, 142.9, 0.0)">
    <use ffdec:characterId="894" height="943.8" transform="matrix(1.0, 0.0, 0.0, 1.0, -142.9, 0.0)" width="1373.55" xlink:href="#shape0"/>
  </g>
  <defs>
    <g id="shape0" transform="matrix(1.0, 0.0, 0.0, 1.0, 142.9, 0.0)">
      <path d="M6.7 616.0 L6.4 621.75 6.4 622.0 6.4 622.2 6.4 622.4 6.4 622.6 9.35 633.0 Q22.7 659.45 96.95 692.85 155.65 719.3 261.55 753.15 311.85 769.05 394.6 779.45 479.55 790.15 661.25 803.05 L732.2 803.05 Q843.7 797.9 935.4 768.35 1017.45 741.9 1077.65 698.1 1131.85 658.65 1161.25 610.65 1188.6 565.95 1188.6 524.2 1188.6 519.35 1184.1 494.75 1179.35 468.9 1173.0 440.05 1156.1 362.8 1146.15 345.35 1128.0 313.35 1068.4 238.2 L1030.5 190.6 1024.05 182.25 Q1020.85 182.2 1016.75 174.85 1013.8 169.55 1008.0 155.35 991.65 115.3 980.9 96.15 940.55 24.05 876.5 12.3 864.0 10.0 850.6 10.0 819.75 10.0 789.25 12.9 L773.1 14.25 773.0 14.25 766.85 14.2 762.1 13.5 715.05 13.5 Q683.1 16.95 643.3 33.9 L643.25 33.9 638.5 35.95 638.0 36.2 634.3 37.85 633.2 38.35 633.1 38.4 Q598.4 54.25 562.3 77.95 527.35 100.9 500.75 124.7 475.0 147.7 468.2 161.4 464.3 169.15 440.15 176.45 432.8 178.65 420.35 181.75 L404.05 185.95 384.8 191.1 Q372.15 194.25 366.1 196.05 344.95 202.35 328.8 213.2 L328.35 213.5 328.15 213.6 Q321.6 217.95 316.05 223.4 304.4 234.6 296.8 250.35 290.1 264.1 283.2 291.55 271.5 338.3 254.0 373.2 231.2 418.75 193.9 455.3 166.1 482.65 151.85 494.8 125.3 517.35 95.9 534.1 70.1 548.9 47.95 573.1 L29.7 593.65 25.7 598.05 25.35 598.45 12.6 611.2 11.45 612.25 8.45 614.95 7.6 614.75 6.75 614.5 6.75 614.55 6.7 616.0 M1036.0 181.3 Q1042.15 188.1 1052.1 203.3 1063.15 220.1 1069.4 227.7 1080.6 241.35 1093.95 250.3 1111.8 268.0 1127.6 294.9 1136.7 310.3 1153.55 341.65 1159.3 351.7 1177.6 429.75 1196.05 508.55 1196.05 524.8 1196.05 567.05 1168.9 612.45 1139.5 661.6 1085.0 701.95 1024.15 747.0 940.65 774.1 847.0 804.5 732.2 809.65 L665.35 809.25 Q487.65 797.75 397.9 786.7 310.35 775.9 263.2 760.15 157.7 724.7 102.6 701.15 0.0 657.3 0.0 630.4 0.0 626.85 1.6 619.3 3.75 609.3 6.8 606.7 L6.85 607.45 Q13.2 598.35 43.0 570.85 79.9 536.9 92.6 529.15 119.85 512.75 147.95 488.7 162.35 476.35 193.05 447.05 227.5 414.0 249.55 364.75 260.75 339.75 273.5 296.55 L273.5 296.5 Q283.55 275.6 303.9 224.55 L304.75 222.45 309.55 219.6 Q332.45 206.1 354.35 192.5 363.3 189.4 373.35 186.7 385.1 183.6 407.25 178.55 426.25 173.95 437.8 168.95 453.15 162.3 464.05 151.9 492.2 125.0 528.9 97.6 564.85 70.75 601.1 49.3 638.5 27.2 668.1 15.7 699.8 3.35 717.15 5.45 L760.45 5.45 Q773.15 8.65 791.9 6.25 L812.2 3.0 Q837.3 -2.8 866.05 2.65 891.85 7.6 916.95 20.8 940.3 33.1 957.5 49.45 974.5 65.6 980.1 80.55 989.4 102.7 1002.45 129.25 1010.2 144.95 1023.4 170.5 1030.05 174.8 1036.0 181.3 M753.05 610.6 Q787.45 599.9 816.0 583.1 864.3 554.75 894.3 509.9 918.25 473.95 929.2 429.7 937.2 397.35 937.2 366.2 L935.75 334.95 934.3 303.7 Q934.3 301.65 932.9 289.4 931.45 277.1 931.45 275.05 931.45 272.95 930.0 266.9 928.55 260.8 928.55 258.75 928.55 255.55 923.7 238.65 L920.35 227.5 Q913.8 213.25 901.4 195.15 L893.15 183.5 Q879.3 156.5 872.65 150.65 867.95 141.55 849.5 131.05 831.1 120.5 808.1 113.75 782.9 106.3 762.0 106.45 L758.35 106.55 Q747.2 103.4 736.6 100.6 712.85 94.35 708.45 94.35 692.45 94.35 677.2 96.15 670.85 99.2 665.1 102.5 657.55 104.3 650.05 106.6 646.85 107.6 644.1 108.55 651.0 103.1 658.7 99.05 623.1 106.0 591.8 123.35 576.3 131.95 556.75 146.3 537.75 160.3 532.55 163.05 525.45 166.8 519.15 171.05 534.55 156.65 544.1 151.1 549.1 148.15 579.2 128.05 602.45 112.5 619.95 104.15 673.1 78.9 732.6 90.05 751.55 97.65 778.05 103.8 L820.05 113.05 Q842.25 118.45 854.85 125.15 870.85 133.6 878.85 147.35 L889.5 164.05 Q899.5 179.5 906.15 190.65 925.85 223.75 927.9 237.95 932.95 256.7 937.4 288.15 944.0 335.0 944.0 366.0 944.0 430.0 917.35 483.1 893.8 530.1 851.45 564.95 813.75 596.0 767.1 613.05 724.2 628.75 685.45 628.75 L660.4 630.0 648.85 629.7 639.15 628.75 597.5 627.95 Q570.7 623.4 549.8 613.45 543.3 610.4 533.4 604.8 L532.15 604.1 Q521.25 599.5 510.5 591.35 L510.15 591.1 Q504.25 586.55 498.55 581.1 488.15 571.15 478.45 558.2 L471.5 548.35 Q456.25 525.6 446.1 500.5 440.2 485.95 438.15 476.35 L437.1 468.5 437.05 467.45 Q437.05 435.9 442.35 404.7 445.55 385.7 450.75 366.85 466.7 309.0 496.65 271.95 L501.2 266.65 Q487.45 283.65 480.5 298.9 477.95 301.6 475.45 305.35 466.55 318.8 459.25 344.7 453.2 366.15 449.4 391.55 446.1 413.75 446.1 426.65 L446.1 433.6 Q443.65 451.85 443.65 468.5 443.65 476.6 454.35 500.5 463.55 521.1 475.15 540.05 L482.2 551.05 489.8 561.85 Q498.5 583.85 508.4 583.85 L510.3 585.75 Q515.6 590.9 520.9 594.95 L528.8 600.4 Q531.5 601.5 534.4 602.75 L540.85 605.55 544.15 607.0 544.6 607.2 544.75 607.25 Q554.75 609.7 564.1 607.1 L564.5 608.35 563.7 609.5 Q563.0 610.0 560.4 610.0 L548.7 609.0 550.3 609.7 551.15 610.05 584.25 620.7 585.45 621.0 585.4 621.0 598.35 623.8 598.65 623.8 598.95 623.8 599.9 623.85 600.75 623.85 603.0 623.9 604.3 623.95 606.1 624.0 606.35 624.0 607.75 624.0 608.8 624.05 610.1 624.05 638.5 625.1 640.2 625.25 640.15 625.2 641.65 625.45 644.35 625.75 670.85 627.0 672.65 626.95 676.65 626.85 678.25 626.8 677.95 625.85 678.85 625.75 680.2 625.6 684.6 625.0 704.1 622.15 Q722.35 619.0 739.25 614.55 L744.45 612.4 748.35 610.7 749.5 610.7 752.75 610.6 752.15 610.85 753.05 610.6 M779.2 601.25 Q766.6 606.35 753.2 610.55 765.4 609.45 779.2 601.25 M451.3 243.05 Q468.05 224.2 480.85 210.35 L471.7 222.05 Q461.85 234.1 451.3 243.05 M358.5 363.95 Q346.25 385.45 340.95 407.7 335.8 429.55 335.8 459.0 335.8 471.55 348.7 504.7 355.55 522.25 366.1 547.9 376.65 578.0 422.4 598.35 408.95 593.3 395.6 587.9 378.3 580.9 369.75 565.0 368.35 562.4 363.75 551.9 360.35 544.15 357.25 540.05 353.7 535.45 341.0 494.2 327.75 451.1 327.75 439.85 327.75 395.9 359.65 348.45 387.25 307.4 442.4 258.95 406.9 298.6 391.3 317.7 369.8 344.05 358.5 363.95 M504.05 240.35 Q509.5 231.5 512.55 231.5 L514.05 231.45 509.7 235.9 502.55 242.75 504.05 240.35 M465.85 613.75 Q485.85 619.8 489.45 621.75 L465.5 613.65 465.85 613.75" fill="#5e4c18" fill-rule="evenodd" stroke="none"/>
      <path d="M766.85 14.2 L773.0 14.25 773.1 14.25 789.25 12.9 Q819.75 10.0 850.6 10.0 864.0 10.0 876.5 12.3 940.55 24.05 980.9 96.15 991.65 115.3 1008.0 155.35 1013.8 169.55 1016.75 174.85 1020.85 182.2 1024.05 182.25 L1030.5 190.6 1068.4 238.2 Q1128.0 313.35 1146.15 345.35 1156.1 362.8 1173.0 440.05 1179.35 468.9 1184.1 494.75 1188.6 519.35 1188.6 524.2 1188.6 565.95 1161.25 610.65 1131.85 658.65 1077.65 698.1 1017.45 741.9 935.4 768.35 843.7 797.9 732.2 803.05 L661.25 803.05 Q479.55 790.15 394.6 779.45 311.85 769.05 261.55 753.15 155.65 719.3 96.95 692.85 22.7 659.45 9.35 633.0 L6.4 622.6 6.4 622.4 6.4 622.2 6.4 622.0 6.4 621.75 6.7 616.0 7.6 614.75 8.45 614.95 11.45 612.25 12.6 611.2 25.35 598.45 25.7 598.05 Q36.15 590.05 51.4 580.55 67.8 570.4 91.4 557.4 L115.1 544.55 125.15 535.05 175.1 488.6 Q200.9 463.95 215.6 446.15 L217.0 444.45 217.2 444.15 216.0 446.55 Q202.15 474.0 174.75 506.3 L182.1 500.5 Q192.35 492.3 206.6 479.85 L231.85 457.8 Q249.6 442.45 257.05 417.45 259.15 410.4 262.3 395.4 265.4 380.5 267.7 372.8 273.4 353.9 288.8 331.0 295.1 321.65 301.75 313.65 306.35 305.3 312.9 295.55 319.25 286.1 332.3 267.95 343.15 252.35 347.75 242.65 L349.05 244.15 Q349.4 245.0 349.4 247.8 L339.0 271.0 Q328.55 294.45 328.55 297.75 328.55 298.5 326.1 302.4 324.65 308.35 320.85 316.15 312.15 334.1 309.4 342.3 L309.4 363.1 Q318.4 349.0 345.15 315.9 372.0 282.7 384.05 263.9 388.4 257.1 397.55 241.45 406.5 226.95 415.6 216.6 441.65 186.8 486.55 169.85 503.85 163.4 523.8 145.4 L538.8 131.3 Q547.15 123.35 551.95 119.75 560.05 113.65 590.7 95.4 614.55 81.15 623.7 71.05 635.95 57.55 661.05 46.15 682.0 36.7 715.3 27.25 731.9 22.55 766.1 14.15 L766.85 14.2 M830.15 43.4 L832.2 44.25 833.95 44.45 838.8 44.65 Q842.05 44.65 844.55 42.2 846.55 40.25 847.7 37.25 844.6 36.65 839.0 38.3 832.7 40.2 830.15 43.4 M898.25 90.7 L900.9 87.15 Q897.95 84.45 888.55 84.5 L875.55 85.1 875.55 88.8 Q876.4 89.7 882.4 90.8 L891.4 91.9 Q896.5 91.9 898.25 90.7 M510.15 591.1 L510.5 591.35 Q521.25 599.5 532.15 604.1 L533.4 604.8 Q543.3 610.4 549.8 613.45 570.7 623.4 597.5 627.95 L639.15 628.75 648.85 629.7 660.4 630.0 685.45 628.75 Q724.2 628.75 767.1 613.05 813.75 596.0 851.45 564.95 893.8 530.1 917.35 483.1 944.0 430.0 944.0 366.0 944.0 335.0 937.4 288.15 932.95 256.7 927.9 237.95 925.85 223.75 906.15 190.65 899.5 179.5 889.5 164.05 L878.85 147.35 Q870.85 133.6 854.85 125.15 842.25 118.45 820.05 113.05 L778.05 103.8 Q751.55 97.65 732.6 90.05 673.1 78.9 619.95 104.15 602.45 112.5 579.2 128.05 549.1 148.15 544.1 151.1 534.55 156.65 519.15 171.05 525.45 166.8 532.55 163.05 537.75 160.3 556.75 146.3 576.3 131.95 591.8 123.35 623.1 106.0 658.7 99.05 651.0 103.1 644.1 108.55 646.85 107.6 650.05 106.6 657.55 104.3 665.1 102.5 670.85 99.2 677.2 96.15 692.45 94.35 708.45 94.35 712.85 94.35 736.6 100.6 747.2 103.4 758.35 106.55 L762.0 106.45 Q782.9 106.3 808.1 113.75 831.1 120.5 849.5 131.05 867.95 141.55 872.65 150.65 879.3 156.5 893.15 183.5 L901.4 195.15 Q913.8 213.25 920.35 227.5 L923.7 238.65 Q928.55 255.55 928.55 258.75 928.55 260.8 930.0 266.9 931.45 272.95 931.45 275.05 931.45 277.1 932.9 289.4 934.3 301.65 934.3 303.7 L935.75 334.95 937.2 366.2 Q937.2 397.35 929.2 429.7 918.25 473.95 894.3 509.9 864.3 554.75 816.0 583.1 787.45 599.9 753.05 610.6 L753.6 610.4 758.3 607.9 757.55 608.3 771.65 600.55 771.75 600.45 782.6 594.3 830.35 566.35 Q849.95 554.3 863.0 539.95 870.2 532.0 882.5 513.95 887.8 506.15 899.65 460.95 911.2 416.85 911.2 406.9 L911.4 375.15 Q911.4 355.35 910.4 340.55 907.65 299.05 895.25 267.6 L892.9 261.85 893.9 261.0 Q894.0 261.25 894.1 261.0 894.3 260.5 894.3 257.9 894.15 253.6 892.5 249.55 889.35 241.8 882.2 241.05 856.65 198.45 806.85 169.05 807.25 168.35 807.25 167.6 807.25 165.1 806.65 164.7 806.05 164.7 806.05 164.3 802.0 163.7 798.35 164.2 774.45 151.15 745.35 140.85 L693.6 140.85 693.6 141.25 683.25 143.25 679.4 143.45 678.4 143.55 677.2 144.25 Q679.1 143.3 688.75 135.35 L700.85 125.5 Q689.85 122.65 681.15 129.55 677.8 132.2 675.7 135.6 673.8 138.75 673.8 141.0 673.8 143.35 674.6 143.8 652.2 145.6 628.0 151.45 600.85 158.05 581.0 167.45 549.9 182.2 522.05 207.15 507.4 220.25 481.8 248.7 455.75 277.6 440.45 320.6 424.65 365.1 424.65 413.1 L426.75 446.05 Q427.8 457.1 429.15 464.4 L428.35 463.85 428.0 465.35 427.95 468.35 Q427.95 473.65 434.85 492.4 443.15 514.8 454.35 534.8 468.75 560.45 484.5 575.15 L485.25 575.85 484.6 574.8 Q487.9 580.25 492.0 581.5 501.05 588.25 510.15 591.1 M475.15 540.05 Q463.55 521.1 454.35 500.5 443.65 476.6 443.65 468.5 443.65 451.85 446.1 433.6 L446.1 426.65 Q446.1 413.75 449.4 391.55 453.2 366.15 459.25 344.7 466.55 318.8 475.45 305.35 477.95 301.6 480.5 298.9 487.45 283.65 501.2 266.65 L496.65 271.95 Q466.7 309.0 450.75 366.85 445.55 385.7 442.35 404.7 L442.2 395.55 Q442.2 387.45 447.05 373.65 452.7 358.9 454.35 353.1 L460.35 331.75 Q464.75 317.9 469.6 310.4 491.85 276.3 497.25 268.95 517.4 241.5 539.6 222.4 560.6 204.3 584.95 192.35 L577.75 199.15 Q562.3 214.5 543.95 239.45 L543.05 240.75 542.45 238.95 Q538.35 239.1 533.4 242.45 528.2 246.0 528.2 249.25 528.2 251.35 526.75 252.65 525.3 254.0 525.3 256.05 525.3 258.65 526.2 258.95 L528.6 259.35 529.8 259.0 529.6 259.25 Q521.4 270.5 515.6 277.6 490.9 307.65 485.05 316.2 471.4 336.1 469.6 352.05 L464.25 392.35 Q461.35 414.0 461.35 430.2 461.35 444.65 464.7 467.85 466.65 481.0 470.85 505.9 L473.45 526.8 475.15 540.05 M795.2 31.45 Q781.5 31.9 774.25 40.1 775.1 41.35 777.15 42.2 780.95 41.3 786.3 41.25 L795.8 41.4 Q808.15 41.3 818.0 36.4 807.3 31.05 795.2 31.45 M756.3 74.75 L767.85 72.9 782.95 69.8 Q777.05 63.65 765.95 64.5 761.35 64.85 758.3 66.5 755.1 68.25 755.1 70.65 755.1 73.1 755.7 73.95 L756.3 74.75 M716.7 131.5 L723.1 133.6 Q726.95 134.8 729.5 134.8 730.15 134.8 732.6 133.6 736.05 131.9 738.4 129.45 733.9 121.6 726.3 124.6 722.5 126.1 716.7 131.5 M687.45 65.9 L688.25 66.1 692.2 66.3 Q693.75 66.3 700.55 63.45 708.45 60.1 708.45 57.65 708.45 55.25 707.95 54.75 L707.45 53.95 Q703.75 50.9 695.25 54.75 686.6 58.65 686.6 64.05 686.6 66.6 687.05 66.5 L687.45 65.9 M537.25 296.6 Q524.35 315.4 514.55 332.55 L514.6 332.4 Q522.85 314.95 536.5 297.7 L537.25 296.6 M870.15 203.3 L870.6 201.4 Q860.5 178.95 849.75 189.85 853.15 195.2 855.95 198.15 861.75 204.3 867.3 204.3 869.8 204.3 870.15 203.3 M614.65 126.35 Q623.45 126.35 632.25 124.55 647.8 121.4 650.95 113.95 645.45 113.0 631.7 118.3 620.15 122.75 614.65 126.35 M536.25 186.55 L537.5 186.55 Q539.65 180.25 558.55 167.95 568.35 161.55 571.75 158.9 578.0 154.1 579.15 150.65 564.2 160.4 554.85 167.05 537.25 179.55 536.25 186.55 M451.3 243.05 Q461.85 234.1 471.7 222.05 L480.85 210.35 Q468.05 224.2 451.3 243.05 M378.3 389.55 Q377.45 382.5 377.45 379.0 L376.2 379.0 Q368.5 389.5 358.55 410.3 349.4 429.45 349.4 432.8 349.4 444.05 355.85 475.15 L363.2 511.6 365.7 511.6 365.7 486.65 Q363.8 479.35 365.45 467.55 366.6 459.2 370.3 444.45 L376.2 420.4 Q379.1 407.05 379.1 398.4 379.1 396.6 378.3 389.55 M379.5 374.85 L380.75 374.85 Q411.8 331.6 456.25 259.8 432.1 279.35 410.7 313.9 395.35 338.7 379.5 374.85 M358.5 363.95 Q369.8 344.05 391.3 317.7 406.9 298.6 442.4 258.95 387.25 307.4 359.65 348.45 327.75 395.9 327.75 439.85 327.75 451.1 341.0 494.2 353.7 535.45 357.25 540.05 360.35 544.15 363.75 551.9 368.35 562.4 369.75 565.0 378.3 580.9 395.6 587.9 408.95 593.3 422.4 598.35 376.65 578.0 366.1 547.9 355.55 522.25 348.7 504.7 335.8 471.55 335.8 459.0 335.8 429.55 340.95 407.7 346.25 385.45 358.5 363.95 M424.6 374.15 Q424.15 373.7 422.0 372.8 419.85 374.15 417.4 378.25 415.0 382.3 415.0 384.35 415.0 391.65 422.0 394.45 L423.65 394.65 Q424.05 394.8 424.05 392.4 424.05 390.0 424.9 384.85 425.7 379.7 425.7 377.95 425.7 375.25 424.6 374.15 M279.05 489.95 L281.95 492.0 Q283.6 490.65 287.85 483.4 292.25 475.95 292.25 474.05 292.25 471.5 291.15 471.2 L288.55 470.75 Q285.4 471.7 281.5 478.15 278.05 483.95 278.05 486.05 278.05 488.75 279.05 489.95 M299.05 386.2 Q299.05 388.65 299.5 389.15 L299.9 389.9 305.25 391.15 Q308.25 390.05 313.45 383.4 318.25 377.3 318.25 376.1 318.25 373.6 317.65 373.2 316.7 373.05 316.0 372.4 310.7 372.9 304.45 379.25 299.05 384.65 299.05 386.2 M184.4 534.9 Q192.8 534.65 199.35 526.7 201.9 523.7 207.7 513.25 199.0 513.25 193.4 521.45 188.1 531.4 184.4 534.9 M199.05 618.8 Q201.1 615.95 201.1 614.3 201.1 611.9 200.7 611.7 L200.25 611.25 Q195.7 608.8 193.0 612.45 191.0 615.1 191.0 618.45 191.0 621.1 192.3 621.95 193.05 622.45 195.1 623.0 197.1 621.5 199.05 618.8 M208.5 641.35 Q206.85 641.45 206.25 641.8 205.2 642.4 205.2 645.05 205.2 647.15 203.8 651.55 202.35 656.0 202.35 658.05 202.35 658.7 203.3 660.75 204.65 663.7 206.85 665.9 209.95 663.45 212.35 659.0 214.7 654.55 214.7 651.45 214.7 649.9 212.3 646.45 L208.5 641.35 M318.25 652.05 L318.0 657.8 Q317.9 662.45 318.45 665.7 320.2 675.6 328.55 675.6 331.2 675.6 332.0 674.1 332.5 673.25 332.7 671.65 331.4 669.75 330.6 665.35 L329.1 658.05 Q326.7 649.8 318.25 652.05 M284.4 621.75 Q286.45 620.75 292.65 613.45 299.05 605.95 299.05 604.2 299.05 601.65 297.95 601.35 L295.15 600.9 Q289.35 603.6 287.25 610.15 286.0 613.9 284.4 621.75 M113.45 632.45 Q112.65 632.45 105.85 638.4 98.4 644.95 98.4 647.95 98.4 650.5 99.35 650.8 L101.7 651.25 Q105.65 649.7 111.35 644.1 117.15 638.45 117.15 636.0 117.15 633.4 116.05 633.0 L113.45 632.45 M277.8 514.1 L277.3 516.25 Q276.8 517.9 276.8 520.25 276.8 523.05 277.6 524.25 L280.3 526.65 282.05 525.35 Q282.8 524.6 283.2 524.6 L283.4 523.05 Q283.6 522.55 283.6 520.25 283.6 518.85 282.65 517.25 281.4 515.2 279.05 514.1 L277.8 514.1 M168.05 554.4 L165.2 553.7 Q160.6 556.4 157.9 559.35 155.1 562.45 155.1 565.05 155.1 566.35 157.05 568.15 L160.25 570.8 167.45 564.05 Q169.35 561.6 169.35 557.6 169.35 555.0 168.05 554.4 M395.15 555.75 Q389.8 558.8 389.8 561.1 389.8 563.75 390.75 564.3 L393.55 565.05 Q399.35 562.9 402.6 560.2 405.3 557.95 405.3 556.15 405.3 553.7 404.7 553.3 L404.05 552.85 Q400.45 552.7 395.15 555.75 M396.85 488.7 Q402.45 484.95 404.15 481.8 405.3 479.75 405.3 476.15 405.3 473.55 404.4 473.25 L402.0 472.85 Q398.95 474.25 395.65 478.7 392.7 482.65 392.7 484.2 392.7 486.9 393.85 487.7 L396.85 488.7 M465.85 613.75 L465.5 613.65 489.45 621.75 Q485.85 619.8 465.85 613.75" fill="#916900" fill-rule="evenodd" stroke="none"/>
      <path d="M898.25 90.7 Q896.5 91.9 891.4 91.9 L882.4 90.8 Q876.4 89.7 875.55 88.8 L875.55 85.1 888.55 84.5 Q897.95 84.45 900.9 87.15 L898.25 90.7 M830.15 43.4 Q832.7 40.2 839.0 38.3 844.6 36.65 847.7 37.25 846.55 40.25 844.55 42.2 842.05 44.65 838.8 44.65 L833.95 44.45 832.2 44.25 830.15 43.4 M674.6 143.8 Q673.8 143.35 673.8 141.0 673.8 138.75 675.7 135.6 677.8 132.2 681.15 129.55 689.85 122.65 700.85 125.5 L688.75 135.35 Q679.1 143.3 677.2 144.25 L677.1 144.3 674.7 143.85 674.6 143.8 M798.35 164.2 Q802.0 163.7 806.05 164.3 806.05 164.7 806.65 164.7 807.25 165.1 807.25 167.6 807.25 168.35 806.85 169.05 805.8 170.75 802.05 172.0 798.4 173.15 796.35 173.15 L791.25 172.95 789.3 172.75 788.9 173.35 Q788.5 173.45 788.5 170.9 788.5 166.85 794.5 165.05 796.35 164.45 798.35 164.2 M882.2 241.05 Q889.35 241.8 892.5 249.55 894.15 253.6 894.3 257.9 894.3 260.5 894.1 261.0 894.0 261.25 893.9 261.0 L892.9 261.85 892.65 262.05 Q891.4 263.1 888.95 263.1 882.5 263.1 881.25 256.95 880.9 255.0 881.05 252.55 L881.3 250.3 Q881.3 244.95 881.7 241.0 L882.2 241.05 M795.2 31.45 Q807.3 31.05 818.0 36.4 808.15 41.3 795.8 41.4 L786.3 41.25 Q780.95 41.3 777.15 42.2 775.1 41.35 774.25 40.1 781.5 31.9 795.2 31.45 M756.3 74.75 L755.7 73.95 Q755.1 73.1 755.1 70.65 755.1 68.25 758.3 66.5 761.35 64.85 765.95 64.5 777.05 63.65 782.95 69.8 L767.85 72.9 756.3 74.75 M663.3 29.2 L665.15 29.0 669.5 28.8 676.15 29.45 Q679.85 30.15 681.25 31.45 679.2 34.05 678.0 34.95 676.1 36.4 672.15 36.4 667.15 36.4 665.1 33.95 663.95 32.6 663.3 29.2 M687.45 65.9 L687.05 66.5 Q686.6 66.6 686.6 64.05 686.6 58.65 695.25 54.75 703.75 50.9 707.45 53.95 L707.95 54.75 Q708.45 55.25 708.45 57.65 708.45 60.1 700.55 63.45 693.75 66.3 692.2 66.3 L688.25 66.1 687.45 65.9 M716.7 131.5 Q722.5 126.1 726.3 124.6 733.9 121.6 738.4 129.45 736.05 131.9 732.6 133.6 730.15 134.8 729.5 134.8 726.95 134.8 723.1 133.6 L716.7 131.5 M870.15 203.3 Q869.8 204.3 867.3 204.3 861.75 204.3 855.95 198.15 853.15 195.2 849.75 189.85 860.5 178.95 870.6 201.4 L870.15 203.3 M543.05 240.75 L543.25 241.4 Q539.5 248.0 536.95 251.8 533.0 257.6 529.8 259.0 L528.6 259.35 526.2 258.95 Q525.3 258.65 525.3 256.05 525.3 254.0 526.75 252.65 528.2 251.35 528.2 249.25 528.2 246.0 533.4 242.45 538.35 239.1 542.45 238.95 L543.05 240.75 M424.6 374.15 Q425.7 375.25 425.7 377.95 425.7 379.7 424.9 384.85 424.05 390.0 424.05 392.4 424.05 394.8 423.65 394.65 L422.0 394.45 Q415.0 391.65 415.0 384.35 415.0 382.3 417.4 378.25 419.85 374.15 422.0 372.8 424.15 373.7 424.6 374.15 M299.05 386.2 Q299.05 384.65 304.45 379.25 310.7 372.9 316.0 372.4 316.7 373.05 317.65 373.2 318.25 373.6 318.25 376.1 318.25 377.3 313.45 383.4 308.25 390.05 305.25 391.15 L299.9 389.9 299.5 389.15 Q299.05 388.65 299.05 386.2 M279.05 489.95 Q278.05 488.75 278.05 486.05 278.05 483.95 281.5 478.15 285.4 471.7 288.55 470.75 L291.15 471.2 Q292.25 471.5 292.25 474.05 292.25 475.95 287.85 483.4 283.6 490.65 281.95 492.0 L279.05 489.95 M168.05 554.4 Q169.35 555.0 169.35 557.6 169.35 561.6 167.45 564.05 L160.25 570.8 157.05 568.15 Q155.1 566.35 155.1 565.05 155.1 562.45 157.9 559.35 160.6 556.4 165.2 553.7 L168.05 554.4 M277.8 514.1 L279.05 514.1 Q281.4 515.2 282.65 517.25 283.6 518.85 283.6 520.25 283.6 522.55 283.4 523.05 L283.2 524.6 Q282.8 524.6 282.05 525.35 L280.3 526.65 277.6 524.25 Q276.8 523.05 276.8 520.25 276.8 517.9 277.3 516.25 L277.8 514.1 M113.45 632.45 L116.05 633.0 Q117.15 633.4 117.15 636.0 117.15 638.45 111.35 644.1 105.65 649.7 101.7 651.25 L99.35 650.8 Q98.4 650.5 98.4 647.95 98.4 644.95 105.85 638.4 112.65 632.45 113.45 632.45 M284.4 621.75 Q286.0 613.9 287.25 610.15 289.35 603.6 295.15 600.9 L297.95 601.35 Q299.05 601.65 299.05 604.2 299.05 605.95 292.65 613.45 286.45 620.75 284.4 621.75 M318.25 652.05 Q326.7 649.8 329.1 658.05 L330.6 665.35 Q331.4 669.75 332.7 671.65 332.5 673.25 332.0 674.1 331.2 675.6 328.55 675.6 320.2 675.6 318.45 665.7 317.9 662.45 318.0 657.8 L318.25 652.05 M208.5 641.35 L212.3 646.45 Q214.7 649.9 214.7 651.45 214.7 654.55 212.35 659.0 209.95 663.45 206.85 665.9 204.65 663.7 203.3 660.75 202.35 658.7 202.35 658.05 202.35 656.0 203.8 651.55 205.2 647.15 205.2 645.05 205.2 642.4 206.25 641.8 206.85 641.45 208.5 641.35 M199.05 618.8 Q197.1 621.5 195.1 623.0 193.05 622.45 192.3 621.95 191.0 621.1 191.0 618.45 191.0 615.1 193.0 612.45 195.7 608.8 200.25 611.25 L200.7 611.7 Q201.1 611.9 201.1 614.3 201.1 615.95 199.05 618.8 M543.65 494.85 Q544.5 495.35 544.5 497.8 L544.2 503.0 543.25 507.9 541.0 508.35 538.75 509.15 536.5 509.05 Q535.85 508.95 535.85 506.45 535.85 503.6 537.65 499.5 539.8 494.65 542.45 494.1 L543.65 494.85 M396.85 488.7 L393.85 487.7 Q392.7 486.9 392.7 484.2 392.7 482.65 395.65 478.7 398.95 474.25 402.0 472.85 L404.4 473.25 Q405.3 473.55 405.3 476.15 405.3 479.75 404.15 481.8 402.45 484.95 396.85 488.7 M395.15 555.75 Q400.45 552.7 404.05 552.85 L404.7 553.3 Q405.3 553.7 405.3 556.15 405.3 557.95 402.6 560.2 399.35 562.9 393.55 565.05 L390.75 564.3 Q389.8 563.75 389.8 561.1 389.8 558.8 395.15 555.75" fill="#77611f" fill-rule="evenodd" stroke="none"/>
      <path d="M766.85 14.2 L766.1 14.15 Q731.9 22.55 715.3 27.25 682.0 36.7 661.05 46.15 635.95 57.55 623.7 71.05 614.55 81.15 590.7 95.4 560.05 113.65 551.95 119.75 547.15 123.35 538.8 131.3 L523.8 145.4 Q503.85 163.4 486.55 169.85 441.65 186.8 415.6 216.6 406.5 226.95 397.55 241.45 388.4 257.1 384.05 263.9 372.0 282.7 345.15 315.9 318.4 349.0 309.4 363.1 L309.4 342.3 Q312.15 334.1 320.85 316.15 324.65 308.35 326.1 302.4 328.55 298.5 328.55 297.75 328.55 294.45 339.0 271.0 L349.4 247.8 Q349.4 245.0 349.05 244.15 L347.75 242.65 Q343.15 252.35 332.3 267.95 319.25 286.1 312.9 295.55 306.35 305.3 301.75 313.65 295.1 321.65 288.8 331.0 273.4 353.9 267.7 372.8 265.4 380.5 262.3 395.4 259.15 410.4 257.05 417.45 249.6 442.45 231.85 457.8 L206.6 479.85 Q192.35 492.3 182.1 500.5 L174.75 506.3 Q202.15 474.0 216.0 446.55 L216.25 446.8 220.3 449.95 Q225.15 448.2 231.75 437.95 238.45 427.6 238.45 421.5 238.45 401.7 226.6 420.75 222.8 426.85 218.4 435.9 214.7 443.6 214.7 444.15 214.7 445.05 215.6 446.15 200.9 463.95 175.1 488.6 L125.15 535.05 115.1 544.55 91.4 557.4 Q67.8 570.4 51.4 580.55 36.15 590.05 25.7 598.05 L29.7 593.65 47.95 573.1 Q70.1 548.9 95.9 534.1 125.3 517.35 151.85 494.8 166.1 482.65 193.9 455.3 231.2 418.75 254.0 373.2 271.5 338.3 283.2 291.55 290.1 264.1 296.8 250.35 304.4 234.6 316.05 223.4 309.7 231.45 306.5 244.6 305.25 249.75 303.7 259.55 302.15 269.2 301.15 273.2 L302.8 272.75 Q304.9 263.05 316.05 251.75 L325.7 242.5 Q331.6 236.9 334.75 233.15 373.05 221.25 392.9 208.5 401.25 203.15 409.75 195.6 L425.7 180.6 Q407.05 186.8 387.75 199.75 385.45 201.3 377.0 202.4 L359.05 204.65 Q340.1 207.4 328.8 213.2 344.95 202.35 366.1 196.05 372.15 194.25 384.8 191.1 L404.05 185.95 420.35 181.75 Q432.8 178.65 440.15 176.45 464.3 169.15 468.2 161.4 475.0 147.7 500.75 124.7 527.35 100.9 562.3 77.95 598.4 54.25 633.1 38.4 L626.2 43.0 643.25 33.9 643.3 33.9 Q683.1 16.95 715.05 13.5 L762.1 13.5 766.85 14.2 M7.6 614.75 L6.7 616.0 6.75 614.55 6.75 614.5 7.6 614.75 M663.3 29.2 Q663.95 32.6 665.1 33.95 667.15 36.4 672.15 36.4 676.1 36.4 678.0 34.95 679.2 34.05 681.25 31.45 679.85 30.15 676.15 29.45 L669.5 28.8 665.15 29.0 663.3 29.2 M600.35 71.6 Q612.15 60.7 619.15 47.15 585.55 64.2 552.35 85.75 499.95 119.85 499.95 135.8 499.95 138.45 500.9 139.0 L503.65 139.75 Q516.15 131.45 531.3 120.35 548.15 108.05 563.25 96.0 586.25 84.55 600.35 71.6 M355.6 263.5 Q356.6 264.75 358.65 265.75 367.0 260.15 373.45 251.3 380.55 241.6 379.1 235.65 373.35 236.9 366.1 247.65 358.7 259.9 355.6 263.5" fill="#a37b0c" fill-rule="evenodd" stroke="none"/>
      <path d="M510.15 591.1 Q501.05 588.25 492.0 581.5 487.9 580.25 484.6 574.8 L485.25 575.85 484.5 575.15 Q468.75 560.45 454.35 534.8 443.15 514.8 434.85 492.4 427.95 473.65 427.95 468.35 L428.0 465.35 428.35 463.85 429.15 464.4 Q427.8 457.1 426.75 446.05 L424.65 413.1 Q424.65 365.1 440.45 320.6 455.75 277.6 481.8 248.7 507.4 220.25 522.05 207.15 549.9 182.2 581.0 167.45 600.85 158.05 628.0 151.45 652.2 145.6 674.6 143.8 L674.7 143.85 677.1 144.3 677.2 144.25 678.4 143.55 679.4 143.45 683.25 143.25 693.6 141.25 693.6 140.85 745.35 140.85 Q774.45 151.15 798.35 164.2 796.35 164.45 794.5 165.05 788.5 166.85 788.5 170.9 788.5 173.45 788.9 173.35 L789.3 172.75 791.25 172.95 796.35 173.15 Q798.4 173.15 802.05 172.0 805.8 170.75 806.85 169.05 856.65 198.45 882.2 241.05 L881.7 241.0 Q881.3 244.95 881.3 250.3 L881.05 252.55 Q880.9 255.0 881.25 256.95 882.5 263.1 888.95 263.1 891.4 263.1 892.65 262.05 L892.9 261.85 895.25 267.6 Q907.65 299.05 910.4 340.55 911.4 355.35 911.4 375.15 L911.2 406.9 Q911.2 416.85 899.65 460.95 887.8 506.15 882.5 513.95 870.2 532.0 863.0 539.95 849.95 554.3 830.35 566.35 L782.6 594.3 771.75 600.45 Q791.65 588.4 808.55 571.65 828.65 551.75 841.55 528.45 L842.1 527.45 845.0 521.95 847.6 516.55 Q850.95 509.1 851.65 504.5 L851.8 502.35 Q851.8 500.25 853.25 492.65 854.7 485.0 854.7 482.95 L852.85 453.35 852.05 439.3 Q853.0 429.55 853.6 419.3 854.7 399.9 854.7 368.05 854.7 355.4 849.95 329.15 848.0 318.4 846.9 310.15 L847.7 313.2 Q849.95 311.3 850.85 309.4 851.8 307.35 851.8 304.35 851.8 277.9 833.7 249.9 816.2 222.85 782.95 196.05 775.3 189.9 755.2 184.35 L739.9 180.4 Q731.65 178.3 728.05 176.85 712.1 173.55 701.4 173.8 692.45 174.05 685.25 177.0 681.6 178.55 673.05 183.7 665.0 188.6 658.35 191.1 632.2 200.85 608.0 217.25 586.35 231.9 575.85 244.95 L569.05 253.5 567.75 255.15 565.65 257.85 Q557.0 268.95 549.3 279.55 L537.25 296.6 536.5 297.7 Q522.85 314.95 514.6 332.4 L514.55 332.55 503.0 354.2 502.65 354.95 502.3 355.6 Q475.8 410.6 475.8 463.75 475.8 493.7 484.2 531.05 489.7 555.3 496.65 570.7 L489.8 561.85 482.2 551.05 475.15 540.05 473.45 526.8 470.85 505.9 Q466.65 481.0 464.7 467.85 461.35 444.65 461.35 430.2 461.35 414.0 464.25 392.35 L469.6 352.05 Q471.4 336.1 485.05 316.2 490.9 307.65 515.6 277.6 521.4 270.5 529.6 259.25 L529.8 259.0 Q533.0 257.6 536.95 251.8 539.5 248.0 543.25 241.4 L543.05 240.75 543.95 239.45 Q562.3 214.5 577.75 199.15 L584.95 192.35 Q560.6 204.3 539.6 222.4 517.4 241.5 497.25 268.95 491.85 276.3 469.6 310.4 464.75 317.9 460.35 331.75 L454.35 353.1 Q452.7 358.9 447.05 373.65 442.2 387.45 442.2 395.55 L442.35 404.7 Q437.05 435.9 437.05 467.45 L437.1 468.5 438.15 476.35 Q440.2 485.95 446.1 500.5 456.25 525.6 471.5 548.35 L478.45 558.2 Q488.15 571.15 498.55 581.1 504.25 586.55 510.15 591.1 M757.55 608.3 L758.3 607.9 753.6 610.4 753.05 610.6 752.15 610.85 752.75 610.6 752.8 610.55 757.55 608.3 M504.05 240.35 L502.55 242.75 509.7 235.9 514.05 231.45 512.55 231.5 Q509.5 231.5 504.05 240.35" fill="#a56707" fill-rule="evenodd" stroke="none"/>
      <path d="M771.75 600.45 L771.65 600.55 757.55 608.3 752.8 610.55 752.75 610.6 749.5 610.7 748.35 610.7 Q782.95 594.8 808.3 564.35 828.95 539.5 841.0 508.45 850.15 484.7 850.15 471.8 L849.3 460.8 847.7 469.95 846.45 469.95 Q847.5 463.0 848.5 452.45 846.85 435.7 846.85 433.65 846.85 431.35 848.0 422.9 L849.75 409.1 850.3 409.1 Q849.5 390.95 846.5 348.7 L842.5 295.0 840.25 287.8 Q832.1 262.5 820.75 243.05 786.05 183.6 725.0 181.5 718.6 179.9 710.5 179.95 698.6 180.05 685.3 183.6 673.3 186.85 664.9 191.55 660.3 194.15 658.2 196.4 645.45 202.15 632.1 210.15 603.1 227.55 579.15 249.9 564.2 263.85 550.55 285.0 L539.75 302.05 539.35 302.6 Q532.5 313.05 526.15 321.05 481.6 377.35 481.6 464.8 481.6 488.65 490.3 532.4 496.15 561.9 501.95 576.95 L508.4 583.85 Q498.5 583.85 489.8 561.85 L496.65 570.7 Q489.7 555.3 484.2 531.05 475.8 493.7 475.8 463.75 475.8 410.6 502.3 355.6 L502.65 354.95 503.0 354.2 514.55 332.55 Q524.35 315.4 537.25 296.6 L549.3 279.55 Q557.0 268.95 565.65 257.85 L567.75 255.15 569.05 253.5 575.85 244.95 Q586.35 231.9 608.0 217.25 632.2 200.85 658.35 191.1 665.0 188.6 673.05 183.7 681.6 178.55 685.25 177.0 692.45 174.05 701.4 173.8 712.1 173.55 728.05 176.85 731.65 178.3 739.9 180.4 L755.2 184.35 Q775.3 189.9 782.95 196.05 816.2 222.85 833.7 249.9 851.8 277.9 851.8 304.35 851.8 307.35 850.85 309.4 849.95 311.3 847.7 313.2 L846.9 310.15 Q848.0 318.4 849.95 329.15 854.7 355.4 854.7 368.05 854.7 399.9 853.6 419.3 853.0 429.55 852.05 439.3 L852.85 453.35 854.7 482.95 Q854.7 485.0 853.25 492.65 851.8 500.25 851.8 502.35 L851.65 504.5 Q850.95 509.1 847.6 516.55 L845.0 521.95 842.1 527.45 841.55 528.45 Q828.65 551.75 808.55 571.65 791.65 588.4 771.75 600.45 M754.4 250.85 L750.7 244.7 750.25 244.0 749.85 243.35 Q748.05 243.2 746.65 241.95 L742.6 237.85 Q735.5 231.5 717.95 231.5 647.45 231.5 607.95 263.5 602.15 268.2 596.75 273.75 585.5 285.35 575.75 300.7 563.6 319.9 551.3 349.5 L550.8 350.8 Q549.1 354.8 547.55 359.0 L546.85 358.7 546.7 358.55 558.05 329.75 558.2 329.45 559.55 327.0 Q566.15 316.2 579.4 292.9 589.7 275.7 599.75 263.85 L603.7 259.35 Q607.0 255.8 628.45 247.7 652.05 238.75 676.25 232.9 L680.75 231.85 715.2 226.5 716.6 226.45 719.15 226.35 721.8 226.3 723.05 226.3 725.25 226.35 732.4 226.9 Q744.35 231.85 756.15 239.9 L757.55 242.15 Q767.2 257.75 774.55 276.3 L778.05 285.55 778.15 285.85 781.8 297.05 782.1 298.1 784.6 306.9 786.4 314.05 786.55 314.75 Q782.7 310.85 776.7 302.9 L776.45 302.55 776.35 302.3 776.3 302.15 776.15 301.6 775.1 298.35 774.95 297.95 Q771.85 288.35 768.2 279.4 L767.6 277.95 767.55 277.95 Q764.25 269.95 760.5 262.4 L760.05 261.5 Q759.05 257.05 756.95 254.1 L754.9 251.75 754.4 250.85 M600.7 303.0 Q602.2 300.6 604.85 297.95 608.0 294.75 610.7 293.65 612.8 292.75 614.65 293.2 614.3 296.55 608.8 302.0 603.0 307.7 598.75 307.85 599.1 305.55 600.7 303.0 M653.25 283.85 Q656.0 281.9 661.7 279.0 670.95 274.3 674.25 274.85 L675.9 277.3 Q674.65 281.05 671.7 284.55 667.6 289.5 662.9 289.5 660.3 289.5 657.3 288.2 L651.35 285.35 653.25 283.85 M779.2 601.25 Q765.4 609.45 753.2 610.55 766.6 606.35 779.2 601.25" fill="#7a5d18" fill-rule="evenodd" stroke="none"/>
      <path d="M748.35 610.7 L744.45 612.4 739.25 614.55 Q722.35 619.0 704.1 622.15 L705.05 622.0 Q713.25 617.9 721.3 612.4 750.4 592.4 773.25 556.5 795.55 521.5 808.0 477.65 820.65 433.0 820.65 387.5 820.65 356.55 815.85 331.4 810.15 301.65 796.95 275.1 794.75 270.75 791.75 265.55 787.85 255.05 783.35 245.7 757.3 191.6 718.55 191.6 L701.95 190.9 Q687.35 190.25 682.85 190.75 L682.85 193.05 Q711.35 193.95 721.65 201.25 724.9 203.55 729.4 208.9 734.45 214.9 738.15 218.0 L742.45 221.75 723.35 215.9 Q713.25 212.5 706.65 209.25 L703.9 209.25 Q699.85 209.4 697.45 210.35 L693.6 210.75 Q678.7 208.3 655.8 215.95 645.05 219.5 633.65 224.9 626.6 228.25 619.3 232.25 601.4 249.15 591.1 258.0 581.75 265.95 571.35 277.15 L582.2 268.6 584.45 267.0 Q596.1 258.6 608.6 252.3 640.45 236.2 679.45 232.15 L680.75 231.85 676.25 232.9 Q652.05 238.75 628.45 247.7 607.0 255.8 603.7 259.35 L599.75 263.85 Q599.65 262.25 599.35 262.35 L598.95 262.95 Q573.55 286.65 550.15 318.5 527.25 349.7 514.35 377.6 510.45 386.35 501.95 434.75 493.55 482.5 493.55 494.35 L496.1 514.9 Q499.5 539.6 503.9 560.15 507.0 574.5 510.3 585.75 L508.4 583.85 501.95 576.95 Q496.15 561.9 490.3 532.4 481.6 488.65 481.6 464.8 481.6 377.35 526.15 321.05 532.5 313.05 539.35 302.6 L539.75 302.05 550.55 285.0 Q564.2 263.85 579.15 249.9 603.1 227.55 632.1 210.15 645.45 202.15 658.2 196.4 660.3 194.15 664.9 191.55 673.3 186.85 685.3 183.6 698.6 180.05 710.5 179.95 718.6 179.9 725.0 181.5 786.05 183.6 820.75 243.05 832.1 262.5 840.25 287.8 L842.5 295.0 846.5 348.7 Q849.5 390.95 850.3 409.1 L849.75 409.1 848.0 422.9 Q846.85 431.35 846.85 433.65 846.85 435.7 848.5 452.45 847.5 463.0 846.45 469.95 L847.7 469.95 849.3 460.8 850.15 471.8 Q850.15 484.7 841.0 508.45 828.95 539.5 808.3 564.35 782.95 594.8 748.35 610.7 M547.55 359.0 Q549.1 354.8 550.8 350.8 L551.3 349.5 Q563.6 319.9 575.75 300.7 585.5 285.35 596.75 273.75 602.15 268.2 607.95 263.5 647.45 231.5 717.95 231.5 735.5 231.5 742.6 237.85 L746.65 241.95 Q748.05 243.2 749.85 243.35 L750.25 244.0 750.7 244.7 754.4 250.85 760.05 261.5 760.5 262.4 Q764.25 269.95 767.55 277.95 756.85 271.1 743.35 265.9 721.65 257.55 700.6 256.75 675.75 255.85 655.65 265.85 627.05 280.15 610.7 293.65 608.0 294.75 604.85 297.95 602.2 300.6 600.7 303.0 595.2 308.9 590.35 316.05 587.3 320.6 579.75 333.3 553.8 377.1 547.75 406.3 545.05 419.5 544.45 436.75 544.25 443.0 544.25 473.3 544.25 504.25 549.15 537.15 555.0 576.35 565.1 590.25 553.5 575.55 545.65 561.75 538.85 549.9 534.85 538.7 526.75 516.15 526.75 486.75 526.75 462.2 536.55 406.9 L543.8 369.7 Q545.6 364.25 547.55 359.0 M774.55 276.3 L776.5 280.05 780.05 287.3 778.05 285.55 774.55 276.3 M546.55 358.85 L544.9 363.85 545.3 361.85 546.1 360.15 546.55 358.85 M543.65 494.85 L542.45 494.1 Q539.8 494.65 537.65 499.5 535.85 503.6 535.85 506.45 535.85 508.95 536.5 509.05 L538.75 509.15 541.0 508.35 543.25 507.9 544.2 503.0 544.5 497.8 Q544.5 495.35 543.65 494.85" fill="#c27400" fill-rule="evenodd" stroke="none"/>
      <path d="M704.1 622.15 L684.6 625.0 Q694.15 620.35 703.25 613.55 L709.8 608.3 Q717.8 601.45 725.3 593.05 L728.15 589.75 727.3 590.45 Q740.55 579.65 750.65 563.45 760.65 547.45 766.2 528.1 L768.35 520.05 769.8 516.45 770.15 516.15 770.25 515.25 Q781.45 486.35 788.7 452.9 799.0 405.3 799.0 359.25 799.0 348.55 793.75 322.65 787.85 295.75 786.6 289.15 L785.45 284.1 780.1 271.35 779.0 268.75 Q774.35 259.95 768.65 254.1 L757.0 240.5 756.15 239.9 Q744.35 231.85 732.4 226.9 L725.25 226.35 723.05 226.3 721.8 226.3 719.15 226.35 716.6 226.45 715.2 226.5 680.75 231.85 679.45 232.15 Q640.45 236.2 608.6 252.3 596.1 258.6 584.45 267.0 L582.2 268.6 571.35 277.15 Q581.75 265.95 591.1 258.0 601.4 249.15 619.3 232.25 626.6 228.25 633.65 224.9 645.05 219.5 655.8 215.95 678.7 208.3 693.6 210.75 L697.45 210.35 Q699.85 209.4 703.9 209.25 L706.65 209.25 Q713.25 212.5 723.35 215.9 L742.45 221.75 738.15 218.0 Q734.45 214.9 729.4 208.9 724.9 203.55 721.65 201.25 711.35 193.95 682.85 193.05 L682.85 190.75 Q687.35 190.25 701.95 190.9 L718.55 191.6 Q757.3 191.6 783.35 245.7 787.85 255.05 791.75 265.55 794.75 270.75 796.95 275.1 810.15 301.65 815.85 331.4 820.65 356.55 820.65 387.5 820.65 433.0 808.0 477.65 795.55 521.5 773.25 556.5 750.4 592.4 721.3 612.4 713.25 617.9 705.05 622.0 L704.1 622.15 M599.9 623.85 L598.95 623.8 598.65 623.8 598.35 623.8 585.4 621.0 Q580.65 616.75 576.35 612.1 556.75 591.0 545.65 561.75 553.5 575.55 565.1 590.25 555.0 576.35 549.15 537.15 544.25 504.25 544.25 473.3 544.25 443.0 544.45 436.75 545.05 419.5 547.75 406.3 553.8 377.1 579.75 333.3 587.3 320.6 590.35 316.05 595.2 308.9 600.7 303.0 599.1 305.55 598.75 307.85 603.0 307.7 608.8 302.0 614.3 296.55 614.65 293.2 612.8 292.75 610.7 293.65 627.05 280.15 655.65 265.85 675.75 255.85 700.6 256.75 721.65 257.55 743.35 265.9 756.85 271.1 767.55 277.95 L767.6 277.95 768.2 279.4 Q771.85 288.35 774.95 297.95 764.7 286.9 751.6 279.55 734.05 269.65 717.1 270.25 696.6 270.95 679.35 287.1 670.6 295.35 654.95 306.0 637.2 317.65 629.1 323.3 624.35 326.6 620.45 329.65 L620.15 329.55 Q632.85 315.25 655.65 294.7 630.8 302.6 609.6 324.2 590.9 343.2 576.65 371.05 564.0 395.75 556.85 423.05 550.25 448.3 550.25 467.95 550.25 477.6 558.5 516.3 562.65 535.65 566.75 553.15 569.15 558.05 576.0 575.65 583.15 593.9 587.85 603.8 593.6 615.95 599.35 623.8 L599.9 623.85 M544.15 607.0 L540.85 605.55 534.4 602.75 Q531.5 601.5 528.8 600.4 L520.9 594.95 Q515.6 590.9 510.3 585.75 507.0 574.5 503.9 560.15 499.5 539.6 496.1 514.9 L493.55 494.35 Q493.55 482.5 501.95 434.75 510.45 386.35 514.35 377.6 527.25 349.7 550.15 318.5 573.55 286.65 598.95 262.95 L599.35 262.35 Q599.65 262.25 599.75 263.85 589.7 275.7 579.4 292.9 566.15 316.2 559.55 327.0 L558.2 329.45 558.05 329.75 546.7 358.55 546.65 358.65 546.35 358.25 545.9 358.85 Q536.95 363.15 523.85 413.4 518.55 433.7 515.05 452.85 511.5 472.2 511.5 480.95 511.5 486.75 514.65 507.55 519.1 537.35 526.35 562.25 534.2 589.3 544.15 607.0 M653.25 283.85 L651.35 285.35 657.3 288.2 Q660.3 289.5 662.9 289.5 667.6 289.5 671.7 284.55 674.65 281.05 675.9 277.3 L674.25 274.85 Q670.95 274.3 661.7 279.0 656.0 281.9 653.25 283.85 M584.9 398.7 Q582.8 402.7 580.85 406.85 L582.2 399.3 584.9 398.7 M530.35 403.4 Q531.2 400.95 531.3 399.7 L531.9 399.3 Q532.2 401.5 531.5 403.8 530.8 406.25 529.4 407.1 529.55 405.9 530.35 403.4" fill="#d89100" fill-rule="evenodd" stroke="none"/>
      <path d="M684.6 625.0 L680.2 625.6 678.85 625.75 677.95 625.85 678.25 626.8 676.65 626.85 672.65 626.95 670.85 627.0 644.35 625.75 641.65 625.45 640.15 625.2 640.2 625.25 638.5 625.1 610.1 624.05 608.8 624.05 607.75 624.0 606.35 624.0 606.1 624.0 604.3 623.95 603.0 623.9 600.75 623.85 599.9 623.85 599.35 623.8 Q593.6 615.95 587.85 603.8 583.15 593.9 576.0 575.65 569.15 558.05 566.75 553.15 562.65 535.65 558.5 516.3 550.25 477.6 550.25 467.95 550.25 448.3 556.85 423.05 564.0 395.75 576.65 371.05 590.9 343.2 609.6 324.2 630.8 302.6 655.65 294.7 632.85 315.25 620.15 329.55 L620.45 329.65 Q624.35 326.6 629.1 323.3 637.2 317.65 654.95 306.0 670.6 295.35 679.35 287.1 696.6 270.95 717.1 270.25 734.05 269.65 751.6 279.55 764.7 286.9 774.95 297.95 L775.1 298.35 776.15 301.6 776.3 302.15 776.35 302.3 776.55 302.9 Q772.5 299.8 766.2 296.0 L764.25 294.85 744.85 284.7 742.1 283.5 Q719.05 272.3 705.6 279.25 701.1 281.6 694.9 287.55 687.0 295.15 684.15 297.3 681.1 299.6 678.2 301.85 683.85 298.2 689.3 295.3 707.95 285.35 721.65 285.35 738.1 285.35 758.9 297.55 769.4 303.7 779.1 311.75 L779.15 311.9 Q781.5 320.4 782.85 326.3 L783.6 329.8 Q772.25 312.2 755.5 305.3 734.25 296.55 709.5 308.15 L707.1 309.3 Q698.85 313.45 690.5 319.75 667.7 336.8 643.9 369.6 626.45 393.7 617.5 409.2 607.7 426.2 603.0 441.65 598.45 456.55 596.9 476.05 595.65 491.6 595.65 521.6 595.65 532.1 601.4 544.7 607.45 557.95 618.5 570.5 635.95 590.4 660.1 603.0 L658.75 603.0 Q618.7 603.0 599.1 566.25 593.85 556.4 590.7 544.9 L589.65 543.35 Q575.65 521.55 571.8 496.25 L571.65 494.6 Q570.9 488.0 570.55 481.45 L570.3 478.5 570.3 478.2 570.3 477.8 570.3 477.4 570.3 476.9 570.3 476.35 570.3 475.2 570.3 474.95 Q570.6 452.55 579.3 429.2 583.65 417.6 596.05 392.6 L602.05 380.65 Q608.75 367.45 622.85 350.95 L628.45 344.65 629.25 343.75 633.7 339.05 629.55 343.0 615.45 356.9 612.25 360.3 585.65 397.4 584.95 398.7 584.9 398.7 582.2 399.3 580.85 406.85 580.85 406.9 580.25 408.15 579.65 409.4 578.55 411.9 577.2 415.0 577.0 415.45 Q563.7 447.3 563.7 476.95 563.7 485.2 567.8 503.15 573.3 527.05 582.5 547.1 585.65 553.9 589.05 559.9 608.65 594.65 637.15 603.6 640.4 605.3 646.45 607.6 L647.2 607.9 Q637.1 609.85 628.2 609.85 623.4 609.85 613.2 606.35 603.75 603.1 602.65 603.45 L604.7 605.7 Q606.65 607.8 610.0 609.25 620.6 614.0 645.95 614.0 L674.95 612.85 680.3 611.85 685.15 613.55 703.25 613.55 Q694.15 620.35 684.6 625.0 M585.4 621.0 L585.45 621.0 584.25 620.7 551.15 610.05 550.3 609.7 548.7 609.0 560.4 610.0 Q563.0 610.0 563.7 609.5 L564.5 608.35 564.1 607.1 Q554.75 609.7 544.75 607.25 L544.6 607.2 544.15 607.0 Q534.2 589.3 526.35 562.25 519.1 537.35 514.65 507.55 511.5 486.75 511.5 480.95 511.5 472.2 515.05 452.85 518.55 433.7 523.85 413.4 536.95 363.15 545.9 358.85 L546.35 358.25 546.65 358.65 546.55 358.85 546.1 360.15 545.3 361.85 544.9 363.85 543.55 368.1 Q540.45 377.75 537.05 389.4 522.95 437.75 522.05 458.05 L522.0 460.65 Q522.0 463.75 522.55 470.5 523.05 477.2 523.65 481.7 L524.5 480.9 Q526.9 444.55 531.85 417.05 L532.25 414.8 Q533.2 409.65 534.3 404.6 L534.55 403.55 535.55 399.15 543.2 371.5 543.8 369.65 543.8 369.7 536.55 406.9 Q526.75 462.2 526.75 486.75 526.75 516.15 534.85 538.7 538.85 549.9 545.65 561.75 556.75 591.0 576.35 612.1 580.65 616.75 585.4 621.0 M756.15 239.9 L757.0 240.5 768.65 254.1 Q774.35 259.95 779.0 268.75 L780.1 271.35 785.45 284.1 786.6 289.15 Q787.85 295.75 793.75 322.65 799.0 348.55 799.0 359.25 799.0 405.3 788.7 452.9 781.45 486.35 770.25 515.25 L770.25 515.2 770.7 510.3 770.85 508.65 770.9 508.6 Q772.5 492.3 775.4 471.25 L781.9 426.15 Q789.75 370.55 789.75 337.35 789.75 328.3 786.4 314.05 L784.6 306.9 782.1 298.1 781.8 297.05 778.15 285.85 778.05 285.55 780.05 287.3 776.5 280.05 774.55 276.3 Q767.2 257.75 757.55 242.15 L756.15 239.9 M769.8 516.45 L768.35 520.05 768.3 520.15 768.4 519.75 768.85 517.75 768.9 517.6 768.95 517.3 769.3 516.9 769.4 516.8 769.55 516.7 769.8 516.45 M727.3 590.45 L728.15 589.75 725.3 593.05 722.9 593.05 727.3 590.45 M530.35 403.4 Q529.55 405.9 529.4 407.1 530.8 406.25 531.5 403.8 532.2 401.5 531.9 399.3 L531.3 399.7 Q531.2 400.95 530.35 403.4" fill="#f0c300" fill-rule="evenodd" stroke="none"/>
      <path d="M547.55 359.0 Q545.6 364.25 543.8 369.7 L543.8 369.65 543.2 371.5 535.55 399.15 534.55 403.55 534.3 404.6 Q533.2 409.65 532.25 414.8 L531.85 417.05 Q526.9 444.55 524.5 480.9 L523.65 481.7 Q523.05 477.2 522.55 470.5 522.0 463.75 522.0 460.65 L522.05 458.05 Q522.95 437.75 537.05 389.4 540.45 377.75 543.55 368.1 L544.9 363.85 546.55 358.85 546.65 358.65 546.7 358.55 546.85 358.7 547.55 359.0 M760.05 261.5 L754.4 250.85 754.9 251.75 756.95 254.1 Q759.05 257.05 760.05 261.5 M786.4 314.05 Q789.75 328.3 789.75 337.35 789.75 370.55 781.9 426.15 L775.4 471.25 Q772.5 492.3 770.9 508.6 L770.85 508.65 770.7 510.3 770.25 515.2 770.25 515.25 770.15 516.15 769.8 516.45 769.55 516.7 769.4 516.8 769.3 516.9 768.95 517.3 768.9 517.6 768.85 517.75 768.4 519.75 768.3 520.15 768.35 520.05 766.2 528.1 Q760.65 547.45 750.65 563.45 740.55 579.65 727.3 590.45 L722.9 593.05 704.05 604.2 698.9 606.1 Q694.3 607.65 689.5 608.8 L685.65 609.6 677.55 610.85 680.3 611.85 674.95 612.85 645.95 614.0 Q620.6 614.0 610.0 609.25 606.65 607.8 604.7 605.7 L602.65 603.45 Q603.75 603.1 613.2 606.35 623.4 609.85 628.2 609.85 637.1 609.85 647.2 607.9 L646.45 607.6 Q640.4 605.3 637.15 603.6 608.65 594.65 589.05 559.9 585.65 553.9 582.5 547.1 573.3 527.05 567.8 503.15 563.7 485.2 563.7 476.95 563.7 447.3 577.0 415.45 L577.2 415.0 578.55 411.9 579.65 409.4 580.25 408.15 580.85 406.9 580.85 406.85 Q582.8 402.7 584.9 398.7 L584.95 398.7 585.65 397.4 612.25 360.3 615.45 356.9 629.55 343.0 633.7 339.05 629.25 343.75 628.45 344.65 622.85 350.95 Q608.75 367.45 602.05 380.65 L596.05 392.6 Q583.65 417.6 579.3 429.2 570.6 452.55 570.3 474.95 L570.3 475.2 570.3 476.35 570.3 476.9 570.3 477.4 570.3 477.8 570.3 478.2 570.3 478.5 570.55 481.45 Q570.9 488.0 571.65 494.6 L571.8 496.25 Q575.65 521.55 589.65 543.35 L590.7 544.9 Q593.85 556.4 599.1 566.25 618.7 603.0 658.75 603.0 L660.1 603.0 662.65 602.95 662.45 603.8 669.05 603.6 669.85 603.55 707.9 595.45 712.5 593.35 713.3 592.95 Q715.5 591.85 717.55 590.6 L720.1 589.0 Q738.0 577.3 747.55 555.35 L747.75 554.95 747.9 554.6 748.0 554.35 748.75 552.5 748.8 552.35 754.2 535.0 758.15 518.9 Q760.35 509.2 762.05 504.65 762.85 502.45 763.8 500.7 764.1 488.5 767.0 471.55 L774.2 434.7 Q779.1 409.6 781.7 386.65 L784.55 344.8 784.55 343.45 784.6 337.35 Q784.6 334.9 783.6 329.8 L782.85 326.3 Q781.5 320.4 779.15 311.9 L779.1 311.75 Q769.4 303.7 758.9 297.55 738.1 285.35 721.65 285.35 707.95 285.35 689.3 295.3 683.85 298.2 678.2 301.85 681.1 299.6 684.15 297.3 687.0 295.15 694.9 287.55 701.1 281.6 705.6 279.25 719.05 272.3 742.1 283.5 L744.85 284.7 764.25 294.85 766.2 296.0 Q772.5 299.8 776.55 302.9 L776.35 302.3 776.45 302.55 776.7 302.9 Q782.7 310.85 786.55 314.75 L786.4 314.05" fill="#b38822" fill-rule="evenodd" stroke="none"/>
      <path d="M725.3 593.05 Q717.8 601.45 709.8 608.3 L703.25 613.55 685.15 613.55 680.3 611.85 677.55 610.85 685.65 609.6 689.5 608.8 Q694.3 607.65 698.9 606.1 L704.05 604.2 722.9 593.05 725.3 593.05 M660.1 603.0 Q635.95 590.4 618.5 570.5 607.45 557.95 601.4 544.7 595.65 532.1 595.65 521.6 595.65 491.6 596.9 476.05 598.45 456.55 603.0 441.65 607.7 426.2 617.5 409.2 626.45 393.7 643.9 369.6 667.7 336.8 690.5 319.75 698.85 313.45 707.1 309.3 L709.5 308.15 Q734.25 296.55 755.5 305.3 772.25 312.2 783.6 329.8 784.6 334.9 784.6 337.35 L784.55 343.45 784.55 344.8 781.7 386.65 Q779.1 409.6 774.2 434.7 L767.0 471.55 Q764.1 488.5 763.8 500.7 762.85 502.45 762.05 504.65 760.35 509.2 758.15 518.9 L754.2 535.0 748.8 552.35 748.75 552.5 748.0 554.35 747.9 554.6 747.75 554.95 747.55 555.35 Q738.0 577.3 720.1 589.0 L717.55 590.6 Q715.5 591.85 713.3 592.95 L712.5 593.35 707.9 595.45 669.85 603.55 669.05 603.6 662.45 603.8 662.65 602.95 660.1 603.0" fill="#ffcf00" fill-rule="evenodd" stroke="none"/>
      <path d="M216.0 446.55 L217.2 444.15 217.0 444.45 215.6 446.15 Q214.7 445.05 214.7 444.15 214.7 443.6 218.4 435.9 222.8 426.85 226.6 420.75 238.45 401.7 238.45 421.5 238.45 427.6 231.75 437.95 225.15 448.2 220.3 449.95 L216.25 446.8 216.0 446.55 M643.25 33.9 L626.2 43.0 633.1 38.4 633.2 38.35 634.3 37.85 638.0 36.2 638.5 35.95 643.25 33.9 M328.8 213.2 Q340.1 207.4 359.05 204.65 L377.0 202.4 Q385.45 201.3 387.75 199.75 407.05 186.8 425.7 180.6 L409.75 195.6 Q401.25 203.15 392.9 208.5 373.05 221.25 334.75 233.15 331.6 236.9 325.7 242.5 L316.05 251.75 Q304.9 263.05 302.8 272.75 L301.15 273.2 Q302.15 269.2 303.7 259.55 305.25 249.75 306.5 244.6 309.7 231.45 316.05 223.4 321.6 217.95 328.15 213.6 L328.35 213.5 328.8 213.2 M600.35 71.6 Q586.25 84.55 563.25 96.0 548.15 108.05 531.3 120.35 516.15 131.45 503.65 139.75 L500.9 139.0 Q499.95 138.45 499.95 135.8 499.95 119.85 552.35 85.75 585.55 64.2 619.15 47.15 612.15 60.7 600.35 71.6 M536.25 186.55 Q537.25 179.55 554.85 167.05 564.2 160.4 579.15 150.65 578.0 154.1 571.75 158.9 568.35 161.55 558.55 167.95 539.65 180.25 537.5 186.55 L536.25 186.55 M614.65 126.35 Q620.15 122.75 631.7 118.3 645.45 113.0 650.95 113.95 647.8 121.4 632.25 124.55 623.45 126.35 614.65 126.35 M355.6 263.5 Q358.7 259.9 366.1 247.65 373.35 236.9 379.1 235.65 380.55 241.6 373.45 251.3 367.0 260.15 358.65 265.75 356.6 264.75 355.6 263.5 M379.5 374.85 Q395.35 338.7 410.7 313.9 432.1 279.35 456.25 259.8 411.8 331.6 380.75 374.85 L379.5 374.85 M378.3 389.55 Q379.1 396.6 379.1 398.4 379.1 407.05 376.2 420.4 L370.3 444.45 Q366.6 459.2 365.45 467.55 363.8 479.35 365.7 486.65 L365.7 511.6 363.2 511.6 355.85 475.15 Q349.4 444.05 349.4 432.8 349.4 429.45 358.55 410.3 368.5 389.5 376.2 379.0 L377.45 379.0 Q377.45 382.5 378.3 389.55 M184.4 534.9 Q188.1 531.4 193.4 521.45 199.0 513.25 207.7 513.25 201.9 523.7 199.35 526.7 192.8 534.65 184.4 534.9" fill="#b1860e" fill-rule="evenodd" stroke="none"/>
      <path d="M941.9 727.45 Q942.45 726.9 942.95 725.35 L942.55 724.1 Q937.8 721.15 935.15 721.85 932.85 722.4 931.2 726.2 932.45 727.4 933.55 727.9 935.25 728.65 938.0 728.65 940.7 728.65 941.9 727.45 M868.7 726.2 Q870.85 726.2 872.65 724.9 874.0 723.95 876.15 721.45 872.85 719.3 869.4 719.2 865.6 719.1 862.95 721.45 L863.35 724.1 864.95 725.6 Q866.0 726.2 868.7 726.2 M745.25 723.0 Q749.3 721.6 753.6 718.55 L752.4 716.1 Q747.5 714.8 741.1 715.95 734.45 717.15 734.45 719.8 734.45 722.5 735.6 723.35 L738.55 724.35 Q742.45 723.95 745.25 723.0 M414.55 564.8 Q430.4 564.9 438.85 565.35 L445.25 570.75 447.2 572.2 Q459.9 581.7 466.75 582.9 471.85 587.15 480.15 591.5 497.5 600.7 515.4 613.75 525.55 621.15 543.85 635.25 561.55 648.25 574.5 655.55 593.3 666.05 616.7 673.65 672.8 691.9 782.1 701.25 L830.35 701.45 940.35 707.3 1021.25 710.75 1047.1 711.95 1160.55 711.95 1191.45 709.1 1220.15 705.75 Q1220.8 706.4 1220.9 707.1 L1221.0 710.9 Q1221.0 725.85 1200.95 746.3 1182.05 765.6 1148.35 786.85 1115.25 807.65 1074.3 826.3 1032.25 845.5 990.0 858.6 L945.7 874.95 Q905.75 889.75 869.05 900.1 751.45 933.25 630.5 933.25 498.5 933.25 408.2 922.15 378.9 918.55 352.6 913.5 L322.55 907.5 Q303.35 904.15 282.55 899.65 L250.1 892.7 Q211.35 884.9 148.25 878.8 68.1 871.0 -1.85 840.85 -13.0 836.1 -38.5 821.25 -60.1 808.65 -73.6 804.55 -94.85 798.1 -109.45 789.95 L-117.8 784.75 -118.15 784.5 Q-122.25 781.65 -125.2 778.85 -119.25 773.7 -107.95 765.95 L-80.85 748.25 Q-66.55 736.05 -54.35 728.65 -51.2 726.75 -48.4 725.4 -39.05 718.25 -17.7 704.55 -4.6 696.1 0.35 683.25 4.55 668.15 9.45 659.35 L22.9 637.2 Q30.85 623.8 34.0 614.4 34.5 612.9 35.8 604.05 37.05 595.1 38.85 589.6 40.85 583.55 43.95 579.5 47.25 578.1 48.25 578.1 52.05 578.1 74.75 585.75 L96.55 593.25 Q136.75 607.4 149.9 613.15 L188.3 613.15 200.5 610.2 Q177.55 619.6 162.65 626.25 129.65 641.0 103.3 658.1 L19.55 707.4 -17.15 728.9 Q-21.9 732.15 -27.7 735.45 -14.5 731.4 7.35 725.45 49.7 713.95 73.0 706.2 112.65 692.95 141.25 677.7 159.85 667.8 186.65 652.05 L229.5 627.1 Q269.3 604.6 304.5 591.15 313.7 587.6 322.55 584.7 323.2 585.35 323.85 585.25 324.2 585.45 324.2 588.0 324.2 588.25 304.5 598.85 L299.5 601.5 Q272.1 617.3 259.65 630.3 251.6 638.7 239.8 657.35 L222.95 684.1 222.5 684.5 262.95 665.75 Q289.75 653.3 304.5 647.25 L311.4 644.5 Q325.25 639.25 336.5 626.3 347.7 611.5 354.3 605.3 368.15 592.25 392.7 577.25 403.65 570.5 414.55 564.8 M122.9 627.4 L123.75 623.7 Q123.05 621.4 120.0 620.15 118.3 621.1 116.2 623.5 114.05 625.95 114.05 627.0 114.05 629.55 115.4 629.55 L116.7 629.05 120.9 628.1 122.9 627.4 M68.55 637.6 Q65.75 639.7 65.75 641.4 65.75 644.1 66.9 644.95 67.6 645.5 69.9 646.15 L73.1 644.45 Q76.1 642.55 76.1 640.6 76.1 638.15 75.7 637.65 L75.25 636.9 Q71.9 635.15 68.55 637.6 M75.9 624.9 Q75.9 622.35 74.5 621.7 L71.55 621.0 Q68.8 622.7 66.6 624.95 63.7 628.0 63.7 630.5 63.7 633.0 64.4 633.05 L66.6 633.15 Q70.0 631.35 72.7 629.1 75.9 626.5 75.9 624.9 M29.45 672.95 Q29.45 672.25 28.8 671.1 27.95 669.6 26.6 669.05 L24.55 669.4 Q23.7 669.9 23.7 672.55 23.7 675.25 24.35 675.75 L26.6 676.5 28.65 675.65 29.45 672.95 M139.85 699.55 L139.2 699.8 Q135.0 699.2 131.1 701.45 128.05 703.2 125.8 706.2 L127.3 707.25 130.95 707.4 Q136.8 707.4 138.4 706.65 140.45 705.7 140.45 702.05 140.45 699.55 139.85 699.55 M149.5 711.2 Q149.5 712.1 149.95 712.35 L153.45 712.8 Q155.4 712.8 157.1 711.05 158.75 709.3 159.2 706.8 L158.8 704.95 Q154.3 703.75 151.85 705.0 148.8 706.6 148.05 706.6 L144.55 706.7 Q144.15 706.8 144.15 707.4 149.4 708.9 149.5 711.2 M48.65 749.1 Q54.55 748.0 56.1 745.8 L55.25 743.3 Q52.65 741.9 50.0 743.25 47.4 744.55 47.4 747.2 47.4 749.8 48.05 749.7 L48.65 749.1 M270.2 725.2 L273.9 721.45 272.25 718.95 Q268.25 718.95 265.8 720.75 263.35 722.55 263.35 725.35 263.35 727.95 264.25 728.25 L266.65 728.65 270.2 725.2 M320.5 698.15 L319.05 697.95 318.85 697.7 Q315.6 697.7 312.5 698.7 307.5 700.3 307.5 703.7 307.5 706.3 308.15 706.3 L308.75 705.75 Q314.05 706.65 317.7 702.55 L320.5 698.15 M183.35 785.8 L191.15 783.5 Q193.65 782.45 195.9 779.8 192.0 777.3 186.05 777.5 179.6 777.7 179.6 781.65 179.6 784.35 180.55 784.95 181.15 785.4 183.35 785.8 M593.55 789.1 Q594.4 788.85 594.9 788.15 L595.65 786.6 Q594.35 785.8 589.1 784.15 584.2 782.65 582.2 782.3 L581.8 783.75 Q582.5 784.8 587.7 786.95 592.2 788.85 593.55 789.1 M643.9 716.9 L635.15 717.5 Q633.0 717.9 631.95 718.95 L632.55 721.4 633.15 723.7 635.95 723.9 641.85 724.1 Q644.5 724.1 644.95 723.1 L645.15 720.2 644.45 718.4 Q643.9 717.35 643.9 716.9 M540.55 776.5 Q540.05 775.7 539.85 774.8 L539.75 774.05 533.3 773.55 530.25 774.05 530.05 773.85 Q529.85 774.15 529.85 776.7 529.85 779.2 530.45 779.9 L531.05 780.65 539.75 779.8 540.55 776.5 M522.6 695.65 L521.65 693.95 520.95 693.2 Q517.6 693.2 512.7 696.9 513.95 698.15 516.85 698.95 521.7 697.05 522.6 695.65 M558.9 739.8 Q558.4 739.0 558.2 738.1 L558.1 737.3 Q554.8 736.0 552.4 736.65 549.85 737.35 549.85 740.0 549.85 742.5 550.5 743.3 L551.1 744.15 556.0 743.75 558.1 743.3 558.9 739.8 M551.9 680.2 Q556.15 680.2 556.9 678.0 557.0 675.35 557.7 674.4 553.15 670.1 547.2 669.15 540.55 668.15 540.55 673.8 540.55 676.35 541.0 676.25 L541.4 675.65 Q542.2 676.75 546.8 678.55 L551.9 680.2 M517.5 660.55 L516.0 659.75 509.05 659.5 Q508.7 659.7 506.55 662.65 L508.1 664.25 Q509.2 664.95 511.9 664.95 514.65 664.95 516.85 664.0 518.55 663.25 519.3 662.25 519.05 661.45 517.5 660.55 M444.65 753.6 L443.15 751.75 Q442.2 750.65 442.2 749.9 438.0 748.75 434.2 750.75 433.6 751.05 429.8 754.05 430.6 755.2 431.25 755.55 L435.15 756.1 440.35 755.65 Q442.6 755.1 444.65 753.6 M456.8 700.6 Q461.6 699.05 463.3 698.1 464.95 697.2 467.15 694.85 463.5 690.6 458.25 691.45 453.1 692.25 453.1 696.7 453.1 699.35 454.05 699.9 454.65 700.25 456.8 700.6 M355.45 684.6 Q351.9 685.15 349.15 686.75 346.25 688.45 346.25 690.1 346.25 692.55 346.9 693.3 L347.5 694.0 353.05 694.5 358.45 695.25 Q360.9 695.25 362.65 694.0 364.65 692.55 364.65 690.1 364.65 683.2 355.45 684.6 M475.6 658.95 Q475.35 658.15 474.0 657.25 L472.7 656.45 469.4 656.7 465.9 658.1 466.95 659.35 Q468.8 660.6 471.9 661.0 L475.6 658.95 M483.85 643.9 Q483.85 646.6 484.7 647.1 L488.4 647.8 Q490.15 647.6 492.0 646.1 494.35 644.2 494.35 641.6 494.35 639.2 493.95 639.0 L493.55 638.55 Q488.25 637.95 486.6 638.5 483.85 639.45 483.85 643.9 M412.25 620.15 Q412.25 617.75 411.65 617.25 L411.05 616.45 Q405.1 613.7 398.8 620.25 396.6 622.5 394.95 625.35 393.5 627.8 393.5 628.65 393.5 631.2 394.4 631.5 L396.8 631.95 Q399.15 629.85 406.85 625.6 412.25 622.6 412.25 620.15 M468.6 610.25 Q471.85 610.25 478.25 606.3 484.7 602.35 485.5 599.75 477.4 598.7 470.65 601.5 464.05 604.2 463.4 608.6 464.1 609.65 464.75 609.9 L468.6 610.25" fill="#c6be5f" fill-rule="evenodd" stroke="none"/>
      <path d="M745.25 723.0 Q742.45 723.95 738.55 724.35 L735.6 723.35 Q734.45 722.5 734.45 719.8 734.45 717.15 741.1 715.95 747.5 714.8 752.4 716.1 L753.6 718.55 Q749.3 721.6 745.25 723.0 M868.7 726.2 Q866.0 726.2 864.95 725.6 L863.35 724.1 862.95 721.45 Q865.6 719.1 869.4 719.2 872.85 719.3 876.15 721.45 874.0 723.95 872.65 724.9 870.85 726.2 868.7 726.2 M941.9 727.45 Q940.7 728.65 938.0 728.65 935.25 728.65 933.55 727.9 932.45 727.4 931.2 726.2 932.85 722.4 935.15 721.85 937.8 721.15 942.55 724.1 L942.95 725.35 Q942.45 726.9 941.9 727.45 M928.05 694.15 Q931.8 694.6 948.75 699.35 L990.8 699.8 Q995.45 698.9 1011.3 699.35 L1045.45 701.25 1160.55 701.85 Q1175.15 701.85 1199.95 698.75 L1222.2 695.65 Q1229.05 695.65 1230.35 702.35 1231.0 705.7 1230.25 709.5 1230.25 725.1 1210.55 746.85 1191.65 767.75 1158.4 790.3 1124.95 813.0 1084.35 832.3 1041.55 852.7 998.85 865.4 996.75 866.0 952.15 882.25 909.35 897.9 871.3 908.7 748.1 943.8 630.05 943.8 490.55 943.8 398.4 931.5 369.05 927.6 343.35 922.2 321.4 917.2 315.55 916.15 297.75 912.9 275.65 907.75 L240.45 899.7 Q197.25 890.8 132.0 886.25 106.45 884.45 59.2 869.2 15.05 854.9 -32.0 834.2 -79.85 813.15 -109.9 794.5 -142.9 774.05 -142.9 763.3 -142.9 749.25 -124.1 723.7 -110.9 705.8 -82.65 675.25 -47.05 636.7 -41.25 629.9 -22.45 607.75 -22.45 599.55 -22.45 598.6 -4.6 593.85 15.9 588.4 23.3 584.3 L39.0 574.9 Q47.65 569.85 50.7 569.85 58.45 569.85 101.7 586.85 L152.4 606.95 Q182.05 607.3 213.75 597.2 236.45 589.95 266.65 574.75 282.65 566.55 290.2 562.7 298.25 558.55 304.5 555.6 308.6 553.6 311.9 552.15 335.0 541.8 350.0 541.8 362.3 541.8 365.4 543.95 366.4 544.65 367.2 546.15 368.1 547.95 368.9 548.7 375.9 555.6 432.7 555.6 434.2 555.6 441.0 559.65 446.15 561.6 453.0 565.35 469.55 574.35 472.7 580.15 L472.6 580.55 Q501.25 600.25 550.25 635.65 565.85 646.9 581.25 653.95 598.55 661.9 622.7 667.9 667.2 679.05 782.1 692.75 L828.7 692.75 Q833.65 694.0 904.6 694.0 927.1 694.0 928.05 694.15 M-125.2 778.85 Q-122.25 781.65 -118.15 784.5 L-117.8 784.75 -109.45 789.95 Q-94.85 798.1 -73.6 804.55 -60.1 808.65 -38.5 821.25 -13.0 836.1 -1.85 840.85 68.1 871.0 148.25 878.8 211.35 884.9 250.1 892.7 L282.55 899.65 Q303.35 904.15 322.55 907.5 L352.6 913.5 Q378.9 918.55 408.2 922.15 498.5 933.25 630.5 933.25 751.45 933.25 869.05 900.1 905.75 889.75 945.7 874.95 L990.0 858.6 Q1032.25 845.5 1074.3 826.3 1115.25 807.65 1148.35 786.85 1182.05 765.6 1200.95 746.3 1221.0 725.85 1221.0 710.9 L1220.9 707.1 Q1220.8 706.4 1220.15 705.75 L1191.45 709.1 1160.55 711.95 1047.1 711.95 1021.25 710.75 940.35 707.3 830.35 701.45 782.1 701.25 Q672.8 691.9 616.7 673.65 593.3 666.05 574.5 655.55 561.55 648.25 543.85 635.25 525.55 621.15 515.4 613.75 497.5 600.7 480.15 591.5 471.85 587.15 466.75 582.9 459.9 581.7 447.2 572.2 L445.25 570.75 438.85 565.35 Q430.4 564.9 414.55 564.8 L396.0 564.7 Q379.35 564.7 369.9 560.6 367.65 559.6 363.55 557.2 360.1 555.2 357.8 554.45 350.85 552.25 336.85 555.55 325.2 558.3 304.5 565.7 295.25 568.95 284.2 573.15 276.8 576.1 264.85 582.3 L243.3 593.45 Q221.2 604.4 200.6 610.15 L200.5 610.2 188.3 613.15 149.9 613.15 Q136.75 607.4 96.55 593.25 L74.75 585.75 Q52.05 578.1 48.25 578.1 47.25 578.1 43.95 579.5 38.5 581.75 26.75 587.7 L3.7 599.35 Q-10.0 605.2 -14.4 611.0 -15.5 612.45 -16.65 615.05 -17.6 617.2 -18.55 618.1 -30.3 629.2 -41.55 642.7 L-60.8 667.0 Q-66.0 673.55 -80.2 688.35 -97.65 706.5 -104.35 714.05 -133.65 747.0 -133.65 763.95 -133.65 771.05 -125.2 778.85 M302.55 583.05 Q302.35 583.45 302.15 583.35 301.7 583.15 301.7 580.55 301.7 578.4 303.65 577.1 L304.5 576.65 309.15 576.45 309.85 577.25 310.8 578.9 309.15 581.55 Q308.05 583.45 305.85 583.45 L304.5 583.45 302.65 583.25 302.55 583.05 M122.9 627.4 L120.9 628.1 116.7 629.05 115.4 629.55 Q114.05 629.55 114.05 627.0 114.05 625.95 116.2 623.5 118.3 621.1 120.0 620.15 123.05 621.4 123.75 623.7 L122.9 627.4 M75.9 624.9 Q75.9 626.5 72.7 629.1 70.0 631.35 66.6 633.15 L64.4 633.05 Q63.7 633.0 63.7 630.5 63.7 628.0 66.6 624.95 68.8 622.7 71.55 621.0 L74.5 621.7 Q75.9 622.35 75.9 624.9 M68.55 637.6 Q71.9 635.15 75.25 636.9 L75.7 637.65 Q76.1 638.15 76.1 640.6 76.1 642.55 73.1 644.45 L69.9 646.15 Q67.6 645.5 66.9 644.95 65.75 644.1 65.75 641.4 65.75 639.7 68.55 637.6 M2.7 622.35 Q3.3 622.85 3.3 625.35 3.3 626.3 0.8 629.7 L-3.3 634.8 -5.5 634.7 Q-6.15 634.65 -6.15 632.15 -6.15 629.8 -4.9 627.2 -2.75 622.7 2.05 621.8 L2.7 622.35 M29.45 672.95 L28.65 675.65 26.6 676.5 24.35 675.75 Q23.7 675.25 23.7 672.55 23.7 669.9 24.55 669.4 L26.6 669.05 Q27.95 669.6 28.8 671.1 29.45 672.25 29.45 672.95 M48.65 749.1 L48.05 749.7 Q47.4 749.8 47.4 747.2 47.4 744.55 50.0 743.25 52.65 741.9 55.25 743.3 L56.1 745.8 Q54.55 748.0 48.65 749.1 M149.5 711.2 Q149.4 708.9 144.15 707.4 144.15 706.8 144.55 706.7 L148.05 706.6 Q148.8 706.6 151.85 705.0 154.3 703.75 158.8 704.95 L159.2 706.8 Q158.75 709.3 157.1 711.05 155.4 712.8 153.45 712.8 L149.95 712.35 Q149.5 712.1 149.5 711.2 M139.85 699.55 Q140.45 699.55 140.45 702.05 140.45 705.7 138.4 706.65 136.8 707.4 130.95 707.4 L127.3 707.25 125.8 706.2 Q128.05 703.2 131.1 701.45 135.0 699.2 139.2 699.8 L139.85 699.55 M312.65 617.25 L310.7 616.9 310.2 616.45 309.15 610.25 310.4 610.0 313.6 609.0 Q317.0 607.75 318.45 607.4 L320.65 607.8 Q321.3 608.1 321.3 610.7 321.3 615.0 314.3 617.3 L312.65 617.25 M183.35 785.8 Q181.15 785.4 180.55 784.95 179.6 784.35 179.6 781.65 179.6 777.7 186.05 777.5 192.0 777.3 195.9 779.8 193.65 782.45 191.15 783.5 L183.35 785.8 M320.5 698.15 L317.7 702.55 Q314.05 706.65 308.75 705.75 L308.15 706.3 Q307.5 706.3 307.5 703.7 307.5 700.3 312.5 698.7 315.6 697.7 318.85 697.7 L319.05 697.95 320.5 698.15 M270.2 725.2 L266.65 728.65 264.25 728.25 Q263.35 727.95 263.35 725.35 263.35 722.55 265.8 720.75 268.25 718.95 272.25 718.95 L273.9 721.45 270.2 725.2 M365.05 590.7 Q363.0 589.85 362.55 588.6 363.1 586.5 364.8 586.05 L368.75 585.95 369.35 587.4 Q367.4 589.7 365.05 590.7 M468.6 610.25 L464.75 609.9 Q464.1 609.65 463.4 608.6 464.05 604.2 470.65 601.5 477.4 598.7 485.5 599.75 484.7 602.35 478.25 606.3 471.85 610.25 468.6 610.25 M412.25 620.15 Q412.25 622.6 406.85 625.6 399.15 629.85 396.8 631.95 L394.4 631.5 Q393.5 631.2 393.5 628.65 393.5 627.8 394.95 625.35 396.6 622.5 398.8 620.25 405.1 613.7 411.05 616.45 L411.65 617.25 Q412.25 617.75 412.25 620.15 M483.85 643.9 Q483.85 639.45 486.6 638.5 488.25 637.95 493.55 638.55 L493.95 639.0 Q494.35 639.2 494.35 641.6 494.35 644.2 492.0 646.1 490.15 647.6 488.4 647.8 L484.7 647.1 Q483.85 646.6 483.85 643.9 M475.6 658.95 L471.9 661.0 Q468.8 660.6 466.95 659.35 L465.9 658.1 469.4 656.7 472.7 656.45 474.0 657.25 Q475.35 658.15 475.6 658.95 M355.45 684.6 Q364.65 683.2 364.65 690.1 364.65 692.55 362.65 694.0 360.9 695.25 358.45 695.25 L353.05 694.5 347.5 694.0 346.9 693.3 Q346.25 692.55 346.25 690.1 346.25 688.45 349.15 686.75 351.9 685.15 355.45 684.6 M456.8 700.6 Q454.65 700.25 454.05 699.9 453.1 699.35 453.1 696.7 453.1 692.25 458.25 691.45 463.5 690.6 467.15 694.85 464.95 697.2 463.3 698.1 461.6 699.05 456.8 700.6 M444.65 753.6 Q442.6 755.1 440.35 755.65 L435.15 756.1 431.25 755.55 Q430.6 755.2 429.8 754.05 433.6 751.05 434.2 750.75 438.0 748.75 442.2 749.9 442.2 750.65 443.15 751.75 L444.65 753.6 M517.5 660.55 Q519.05 661.45 519.3 662.25 518.55 663.25 516.85 664.0 514.65 664.95 511.9 664.95 509.2 664.95 508.1 664.25 L506.55 662.65 Q508.7 659.7 509.05 659.5 L516.0 659.75 517.5 660.55 M551.9 680.2 L546.8 678.55 Q542.2 676.75 541.4 675.65 L541.0 676.25 Q540.55 676.35 540.55 673.8 540.55 668.15 547.2 669.15 553.15 670.1 557.7 674.4 557.0 675.35 556.9 678.0 556.15 680.2 551.9 680.2 M558.9 739.8 L558.1 743.3 556.0 743.75 551.1 744.15 550.5 743.3 Q549.85 742.5 549.85 740.0 549.85 737.35 552.4 736.65 554.8 736.0 558.1 737.3 L558.2 738.1 Q558.4 739.0 558.9 739.8 M522.6 695.65 Q521.7 697.05 516.85 698.95 513.95 698.15 512.7 696.9 517.6 693.2 520.95 693.2 L521.65 693.95 522.6 695.65 M540.55 776.5 L539.75 779.8 531.05 780.65 530.45 779.9 Q529.85 779.2 529.85 776.7 529.85 774.15 530.05 773.85 L530.25 774.05 533.3 773.55 539.75 774.05 539.85 774.8 Q540.05 775.7 540.55 776.5 M643.9 716.9 Q643.9 717.35 644.45 718.4 L645.15 720.2 644.95 723.1 Q644.5 724.1 641.85 724.1 L635.95 723.9 633.15 723.7 632.55 721.4 631.95 718.95 Q633.0 717.9 635.15 717.5 L643.9 716.9 M593.55 789.1 Q592.2 788.85 587.7 786.95 582.5 784.8 581.8 783.75 L582.2 782.3 Q584.2 782.65 589.1 784.15 594.35 785.8 595.65 786.6 L594.9 788.15 Q594.4 788.85 593.55 789.1 M-51.95 696.7 Q-51.95 691.15 -45.45 690.8 -39.4 690.5 -35.65 694.0 -37.7 693.8 -43.7 696.45 -49.5 698.95 -51.15 698.55 L-51.55 699.15 Q-51.95 699.25 -51.95 696.7" fill="#9a8f4e" fill-rule="evenodd" stroke="none"/>
      <path d="M414.55 564.8 Q403.65 570.5 392.7 577.25 368.15 592.25 354.3 605.3 347.7 611.5 336.5 626.3 325.25 639.25 311.4 644.5 L304.5 647.25 Q289.75 653.3 262.95 665.75 L222.5 684.5 222.95 684.1 239.8 657.35 Q251.6 638.7 259.65 630.3 272.1 617.3 299.5 601.5 L304.5 598.85 Q324.2 588.25 324.2 588.0 324.2 585.45 323.85 585.25 323.2 585.35 322.55 584.7 313.7 587.6 304.5 591.15 269.3 604.6 229.5 627.1 L186.65 652.05 Q159.85 667.8 141.25 677.7 112.65 692.95 73.0 706.2 49.7 713.95 7.35 725.45 -14.5 731.4 -27.7 735.45 -21.9 732.15 -17.15 728.9 L19.55 707.4 103.3 658.1 Q129.65 641.0 162.65 626.25 177.55 619.6 200.5 610.2 L200.6 610.15 Q221.2 604.4 243.3 593.45 L264.85 582.3 Q276.8 576.1 284.2 573.15 295.25 568.95 304.5 565.7 325.2 558.3 336.85 555.55 350.85 552.25 357.8 554.45 360.1 555.2 363.55 557.2 367.65 559.6 369.9 560.6 379.35 564.7 396.0 564.7 L414.55 564.8 M43.95 579.5 Q40.85 583.55 38.85 589.6 37.05 595.1 35.8 604.05 34.5 612.9 34.0 614.4 30.85 623.8 22.9 637.2 L9.45 659.35 Q4.55 668.15 0.35 683.25 -4.6 696.1 -17.7 704.55 -39.05 718.25 -48.4 725.4 -51.2 726.75 -54.35 728.65 -66.55 736.05 -80.85 748.25 L-107.95 765.95 Q-119.25 773.7 -125.2 778.85 -133.65 771.05 -133.65 763.95 -133.65 747.0 -104.35 714.05 -97.65 706.5 -80.2 688.35 -66.0 673.55 -60.8 667.0 L-41.55 642.7 Q-30.3 629.2 -18.55 618.1 -17.6 617.2 -16.65 615.05 -15.5 612.45 -14.4 611.0 -10.0 605.2 3.7 599.35 L26.75 587.7 Q38.5 581.75 43.95 579.5 M263.75 593.15 Q262.7 592.65 262.3 592.05 L262.1 591.5 Q258.7 591.8 255.5 593.5 252.45 595.15 252.45 596.45 252.45 597.05 256.75 601.0 L260.8 597.9 Q263.75 595.15 263.75 593.15 M302.55 583.05 L302.65 583.25 304.5 583.45 305.85 583.45 Q308.05 583.45 309.15 581.55 L310.8 578.9 309.85 577.25 309.15 576.45 304.5 576.65 303.65 577.1 Q301.7 578.4 301.7 580.55 301.7 583.15 302.15 583.35 302.35 583.45 302.55 583.05 M286.2 589.65 Q299.85 582.05 298.85 576.45 292.0 575.45 279.1 583.75 267.85 591.0 262.95 597.3 L263.75 598.5 Q274.25 596.25 286.2 589.65 M120.65 676.05 Q118.0 677.7 117.55 680.2 L118.2 681.7 Q118.95 682.25 121.65 682.25 124.85 682.25 126.2 681.2 127.65 680.05 128.25 676.9 L127.05 674.4 Q123.35 674.4 120.65 676.05 M103.7 670.5 Q103.7 673.3 104.05 674.3 L104.95 675.65 Q109.3 672.05 122.45 664.15 138.0 654.8 142.3 654.8 157.45 654.8 170.9 648.95 181.15 644.5 193.35 635.0 207.0 623.7 214.1 618.2 226.6 608.65 237.6 603.9 227.55 600.65 203.85 610.0 181.35 618.9 169.5 629.45 163.0 635.2 150.85 641.8 145.0 645.0 129.2 652.7 116.3 658.95 111.2 662.2 103.7 667.0 103.7 670.5 M14.85 601.4 Q13.05 601.85 12.35 602.5 11.1 603.65 11.1 606.35 11.1 608.05 11.9 609.15 L14.85 612.35 16.9 611.55 Q17.85 611.1 18.15 611.1 L18.7 609.55 18.75 606.75 Q18.75 604.05 17.55 602.85 17.0 602.3 14.85 601.4 M2.7 622.35 L2.05 621.8 Q-2.75 622.7 -4.9 627.2 -6.15 629.8 -6.15 632.15 -6.15 634.65 -5.5 634.7 L-3.3 634.8 0.8 629.7 Q3.3 626.3 3.3 625.35 3.3 622.85 2.7 622.35 M6.6 632.35 Q6.6 635.5 4.35 636.65 L2.05 637.5 Q2.05 640.15 2.7 640.7 3.2 641.05 4.95 641.4 6.45 641.15 8.3 637.75 9.85 635.0 10.3 633.15 L6.6 632.35 M75.25 689.9 Q71.2 690.15 66.95 691.65 61.25 693.7 61.25 696.7 61.25 699.35 62.15 699.9 62.8 700.25 64.95 700.6 68.1 700.35 72.15 696.65 74.4 694.6 76.1 692.35 L75.25 689.9 M39.7 707.45 L36.9 707.4 33.4 707.65 32.35 707.85 32.15 707.65 Q31.95 707.95 31.95 710.5 31.95 713.0 32.35 713.1 L32.75 713.2 37.7 712.8 40.4 712.35 40.8 709.7 40.4 707.85 39.7 707.45 M310.4 610.0 Q309.35 609.05 307.8 608.7 306.3 608.35 304.5 608.65 301.05 609.15 296.55 611.95 289.75 616.15 283.75 623.6 277.25 631.7 274.3 640.6 279.5 636.65 287.15 633.35 L299.6 628.6 304.5 626.5 Q307.35 625.15 308.95 623.9 312.45 621.15 312.65 617.25 L314.3 617.3 Q321.3 615.0 321.3 610.7 321.3 608.1 320.65 607.8 L318.45 607.4 Q317.0 607.75 313.6 609.0 L310.4 610.0 M273.25 650.5 L275.4 648.55 275.65 648.35 277.0 647.0 277.05 646.95 277.15 646.85 277.2 646.8 278.3 645.65 278.85 644.9 273.7 645.35 Q269.15 646.5 269.15 649.85 269.15 652.45 269.9 652.65 270.25 652.75 270.6 652.35 L273.25 650.5 M251.6 655.25 Q252.65 655.15 255.75 652.2 L259.25 648.65 Q256.9 643.8 252.55 645.6 248.3 647.3 248.3 651.95 248.3 654.5 249.2 654.8 L251.6 655.25 M345.45 564.7 Q345.45 562.2 344.85 561.8 344.2 561.8 344.2 561.4 338.75 558.85 332.3 562.75 326.25 566.35 326.25 570.25 326.25 570.65 327.15 571.4 L331.65 574.8 342.55 569.45 Q345.45 567.9 345.45 564.7 M335.55 585.3 Q335.55 587.9 335.95 587.9 L336.35 587.4 Q337.4 587.8 339.55 588.95 341.65 589.85 344.2 589.85 345.9 589.85 348.35 588.25 351.85 585.85 351.85 581.8 351.85 579.25 350.95 578.95 L348.35 578.5 Q344.25 579.55 341.25 580.7 335.55 582.85 335.55 585.3 M344.2 591.5 L340.0 591.8 Q337.6 592.55 337.6 595.2 337.6 597.8 338.85 597.8 339.5 597.8 340.1 597.3 345.0 595.25 345.85 594.0 L344.9 592.3 344.2 591.5 M351.0 572.3 L353.3 574.4 Q354.4 575.6 356.8 575.6 362.0 575.6 364.6 574.25 367.1 572.95 369.6 569.0 L368.75 565.7 Q362.45 563.85 356.55 567.1 352.0 569.6 351.0 572.3 M365.05 590.7 Q367.4 589.7 369.35 587.4 L368.75 585.95 364.8 586.05 Q363.1 586.5 362.55 588.6 363.0 589.85 365.05 590.7 M-54.85 679.8 Q-53.15 676.7 -47.35 672.9 L-36.0 666.05 -32.55 663.85 -29.9 663.9 Q-25.75 662.25 -20.45 657.45 -15.25 652.75 -15.25 650.7 -15.25 648.1 -15.9 647.8 L-18.15 647.4 -21.2 648.5 Q-21.4 638.1 -26.85 639.55 -31.9 640.9 -41.05 652.3 -58.2 673.65 -79.2 714.0 -69.35 709.0 -63.45 698.05 -58.05 685.35 -54.85 679.8 M-18.15 661.0 L-14.5 663.9 -11.55 665.75 Q-9.1 665.75 -8.2 664.65 -7.25 663.5 -7.0 663.5 L-6.15 659.75 Q-7.4 657.3 -7.4 656.45 L-14.3 657.25 Q-16.5 657.9 -18.15 661.0 M-104.95 735.1 Q-109.85 737.6 -111.55 741.45 -110.3 742.7 -108.25 743.7 -107.05 743.4 -103.6 739.2 -100.2 735.1 -99.4 733.2 -101.3 733.2 -104.95 735.1 M-8.65 670.1 L-9.05 670.7 Q-11.75 669.6 -16.25 672.55 -20.8 675.55 -20.8 678.75 -20.8 681.3 -20.15 681.2 L-19.55 680.6 Q-13.6 681.3 -10.45 677.6 -8.25 675.05 -8.25 672.55 -8.25 670.0 -8.65 670.1 M-51.95 696.7 Q-51.95 699.25 -51.55 699.15 L-51.15 698.55 Q-49.5 698.95 -43.7 696.45 -37.7 693.8 -35.65 694.0 -39.4 690.5 -45.45 690.8 -51.95 691.15 -51.95 696.7 M-73.2 730.3 Q-73.9 728.05 -76.5 727.0 -79.05 728.1 -80.05 729.0 -81.2 730.0 -83.3 733.2 -82.05 734.45 -80.0 735.25 -78.1 734.3 -75.8 732.55 L-73.2 730.3" fill="#e2dc96" fill-rule="evenodd" stroke="none"/>
      <path d="M263.75 593.15 Q263.75 595.15 260.8 597.9 L256.75 601.0 Q252.45 597.05 252.45 596.45 252.45 595.15 255.5 593.5 258.7 591.8 262.1 591.5 L262.3 592.05 Q262.7 592.65 263.75 593.15 M6.6 632.35 L10.3 633.15 Q9.85 635.0 8.3 637.75 6.45 641.15 4.95 641.4 3.2 641.05 2.7 640.7 2.05 640.15 2.05 637.5 L4.35 636.65 Q6.6 635.5 6.6 632.35 M75.25 689.9 L76.1 692.35 Q74.4 694.6 72.15 696.65 68.1 700.35 64.95 700.6 62.8 700.25 62.15 699.9 61.25 699.35 61.25 696.7 61.25 693.7 66.95 691.65 71.2 690.15 75.25 689.9 M273.25 650.5 L270.6 652.35 Q270.25 652.75 269.9 652.65 269.15 652.45 269.15 649.85 269.15 646.5 273.7 645.35 L278.85 644.9 278.3 645.65 276.9 645.65 272.45 646.15 272.25 649.45 273.25 650.5 M345.45 564.7 Q345.45 567.9 342.55 569.45 L331.65 574.8 327.15 571.4 Q326.25 570.65 326.25 570.25 326.25 566.35 332.3 562.75 338.75 558.85 344.2 561.4 344.2 561.8 344.85 561.8 345.45 562.2 345.45 564.7 M351.0 572.3 Q352.0 569.6 356.55 567.1 362.45 563.85 368.75 565.7 L369.6 569.0 Q367.1 572.95 364.6 574.25 362.0 575.6 356.8 575.6 354.4 575.6 353.3 574.4 L351.0 572.3 M-18.15 661.0 Q-16.5 657.9 -14.3 657.25 L-7.4 656.45 Q-7.4 657.3 -6.15 659.75 L-7.0 663.5 Q-7.25 663.5 -8.2 664.65 -9.1 665.75 -11.55 665.75 L-14.5 663.9 -18.15 661.0" fill="#bedcb8" fill-rule="evenodd" stroke="none"/>
      <path d="M286.2 589.65 Q274.25 596.25 263.75 598.5 L262.95 597.3 Q267.85 591.0 279.1 583.75 292.0 575.45 298.85 576.45 299.85 582.05 286.2 589.65 M103.7 670.5 Q103.7 667.0 111.2 662.2 116.3 658.95 129.2 652.7 145.0 645.0 150.85 641.8 163.0 635.2 169.5 629.45 181.35 618.9 203.85 610.0 227.55 600.65 237.6 603.9 226.6 608.65 214.1 618.2 207.0 623.7 193.35 635.0 181.15 644.5 170.9 648.95 157.45 654.8 142.3 654.8 138.0 654.8 122.45 664.15 109.3 672.05 104.95 675.65 L104.05 674.3 Q103.7 673.3 103.7 670.5 M14.85 601.4 Q17.0 602.3 17.55 602.85 18.75 604.05 18.75 606.75 L18.7 609.55 18.15 611.1 Q17.85 611.1 16.9 611.55 L14.85 612.35 11.9 609.15 Q11.1 608.05 11.1 606.35 11.1 603.65 12.35 602.5 13.05 601.85 14.85 601.4 M310.4 610.0 L309.15 610.25 310.2 616.45 310.7 616.9 312.65 617.25 Q312.45 621.15 308.95 623.9 307.35 625.15 304.5 626.5 L299.6 628.6 287.15 633.35 Q279.5 636.65 274.3 640.6 277.25 631.7 283.75 623.6 289.75 616.15 296.55 611.95 301.05 609.15 304.5 608.65 306.3 608.35 307.8 608.7 309.35 609.05 310.4 610.0 M335.55 585.3 Q335.55 582.85 341.25 580.7 344.25 579.55 348.35 578.5 L350.95 578.95 Q351.85 579.25 351.85 581.8 351.85 585.85 348.35 588.25 345.9 589.85 344.2 589.85 341.65 589.85 339.55 588.95 337.4 587.8 336.35 587.4 L335.95 587.9 Q335.55 587.9 335.55 585.3 M-54.85 679.8 Q-58.05 685.35 -63.45 698.05 -69.35 709.0 -79.2 714.0 -58.2 673.65 -41.05 652.3 -31.9 640.9 -26.85 639.55 -21.4 638.1 -21.2 648.5 L-18.15 647.4 -15.9 647.8 Q-15.25 648.1 -15.25 650.7 -15.25 652.75 -20.45 657.45 -25.75 662.25 -29.9 663.9 L-32.55 663.85 -36.0 666.05 -47.35 672.9 Q-53.15 676.7 -54.85 679.8" fill="#f0ecbb" fill-rule="evenodd" stroke="none"/>
      <path d="M120.65 676.05 Q123.35 674.4 127.05 674.4 L128.25 676.9 Q127.65 680.05 126.2 681.2 124.85 682.25 121.65 682.25 118.95 682.25 118.2 681.7 L117.55 680.2 Q118.0 677.7 120.65 676.05 M39.7 707.45 L40.4 707.85 40.8 709.7 40.4 712.35 37.7 712.8 32.75 713.2 32.35 713.1 Q31.95 713.0 31.95 710.5 31.95 707.95 32.15 707.65 L32.35 707.85 33.4 707.65 36.9 707.4 39.7 707.45 M278.3 645.65 L277.2 646.8 277.15 646.85 277.05 646.95 277.0 647.0 275.65 648.35 275.4 648.55 273.25 650.5 272.25 649.45 272.45 646.15 276.9 645.65 278.3 645.65 M251.6 655.25 L249.2 654.8 Q248.3 654.5 248.3 651.95 248.3 647.3 252.55 645.6 256.9 643.8 259.25 648.65 L255.75 652.2 Q252.65 655.15 251.6 655.25 M344.2 591.5 L344.9 592.3 345.85 594.0 Q345.0 595.25 340.1 597.3 339.5 597.8 338.85 597.8 337.6 597.8 337.6 595.2 337.6 592.55 340.0 591.8 L344.2 591.5 M-8.65 670.1 Q-8.25 670.0 -8.25 672.55 -8.25 675.05 -10.45 677.6 -13.6 681.3 -19.55 680.6 L-20.15 681.2 Q-20.8 681.3 -20.8 678.75 -20.8 675.55 -16.25 672.55 -11.75 669.6 -9.05 670.7 L-8.65 670.1 M-104.95 735.1 Q-101.3 733.2 -99.4 733.2 -100.2 735.1 -103.6 739.2 -107.05 743.4 -108.25 743.7 -110.3 742.7 -111.55 741.45 -109.85 737.6 -104.95 735.1 M-73.2 730.3 L-75.8 732.55 Q-78.1 734.3 -80.0 735.25 -82.05 734.45 -83.3 733.2 -81.2 730.0 -80.05 729.0 -79.05 728.1 -76.5 727.0 -73.9 728.05 -73.2 730.3" fill="#cc976c" fill-rule="evenodd" stroke="none"/>
    </g>
  </defs>
</svg>
