<?xml version="1.0" encoding="UTF-8" standalone="no"?>
<svg xmlns:ffdec="https://www.free-decompiler.com/flash" xmlns:xlink="http://www.w3.org/1999/xlink" ffdec:objectType="frame" height="448.55px" width="257.6px" xmlns="http://www.w3.org/2000/svg">
  <g transform="matrix(1.0, 0.0, 0.0, 1.0, 124.6, -0.15)">
    <use ffdec:characterId="695" height="21.1" transform="matrix(5.6474, 0.0, 0.0, 5.6475, 21.2576, 47.2883)" width="7.7" xlink:href="#shape0"/>
    <use ffdec:characterId="695" height="21.1" transform="matrix(5.6474, 0.0, 0.0, 5.6475, -53.5424, 62.4383)" width="7.7" xlink:href="#shape0"/>
    <use ffdec:characterId="718" height="62.05" transform="matrix(7.0, 0.0, 0.0, 7.0, -124.6, 14.35)" width="35.4" xlink:href="#shape1"/>
    <use ffdec:characterId="697" height="8.35" transform="matrix(0.0, -9.8, 9.8001, 0.0, -32.4805, 160.9098)" width="7.4" xlink:href="#shape2"/>
    <use ffdec:characterId="719" height="6.5" transform="matrix(0.0, -9.8, 9.8001, 0.0, -21.2105, 147.6799)" width="5.2" xlink:href="#shape3"/>
    <use ffdec:characterId="695" height="21.1" transform="matrix(7.0, 0.0, 0.0, 7.0, -23.25, 0.15)" width="7.7" xlink:href="#shape0"/>
    <use ffdec:characterId="720" height="52.7" transform="matrix(7.0, 0.0, 0.0, 7.0, -71.05, 46.55)" width="19.7" xlink:href="#shape4"/>
  </g>
  <defs>
    <g id="shape0" transform="matrix(1.0, 0.0, 0.0, 1.0, 3.85, 21.1)">
      <path d="M-2.2 -11.85 Q-1.55 -15.5 -0.8 -19.05 L-0.7 -19.4 -0.5 -19.95 -0.3 -19.4 Q-0.1 -16.45 0.3 -13.1 0.45 -11.3 0.5 -9.4 L0.7 -3.2 0.35 -4.6 Q-0.15 -6.7 -0.5 -8.85 -0.45 -9.25 -0.4 -9.65 -0.25 -11.75 -0.15 -13.8 L-0.3 -14.0 Q-0.4 -14.05 -0.55 -14.1 -0.8 -14.05 -1.0 -13.8 -1.65 -12.9 -2.2 -11.85 M-0.15 -16.05 Q0.0 -16.75 -0.8 -16.85 -1.3 -16.8 -1.35 -16.25 -1.4 -15.6 -0.8 -15.4 -0.25 -15.55 -0.15 -16.05" fill="#c8d68b" fill-rule="evenodd" stroke="none"/>
      <path d="M2.55 -13.85 Q3.0 -12.3 3.35 -10.75 4.15 -6.8 3.65 -3.35 3.1 -5.9 1.55 -7.65 1.55 -6.15 1.35 -4.7 1.25 -3.05 0.95 -1.5 1.05 -0.75 1.1 0.0 L0.8 -0.7 0.7 -0.45 0.7 -0.85 Q-0.45 -3.45 -1.1 -6.6 -1.25 -7.4 -1.3 -8.1 -2.8 -5.95 -3.1 -3.3 -3.65 -5.65 -3.65 -8.1 L-3.85 -8.2 -3.6 -9.3 -3.6 -9.45 Q-3.8 -12.45 -2.75 -15.65 -2.1 -17.65 -1.2 -19.45 L-1.05 -19.7 -0.75 -20.45 -0.7 -20.55 -0.7 -20.6 -0.45 -21.05 -0.35 -20.85 -0.3 -20.8 -0.15 -21.1 -0.3 -20.75 Q0.75 -18.75 1.6 -16.6 2.15 -15.3 2.55 -13.85 M0.75 -15.75 Q1.3 -12.7 1.5 -9.55 L1.5 -9.2 Q2.1 -8.85 2.45 -8.15 2.7 -7.65 3.0 -7.15 L2.6 -9.4 2.4 -10.0 2.35 -10.1 Q1.65 -12.3 1.0 -14.8 L0.75 -15.75 M-0.5 -8.85 Q-0.15 -6.7 0.35 -4.6 L0.7 -3.2 0.5 -9.4 Q0.45 -11.3 0.3 -13.1 -0.1 -16.45 -0.3 -19.4 L-0.5 -19.95 -0.7 -19.4 -0.8 -19.05 Q-1.55 -15.5 -2.2 -11.85 L-2.25 -11.65 Q-2.6 -9.5 -3.0 -7.5 L-3.0 -7.35 Q-2.3 -9.0 -1.25 -9.5 -1.15 -10.3 -0.85 -11.1 -0.7 -10.0 -0.5 -8.85 M-3.05 -6.0 L-3.1 -5.9 -3.1 -5.6 Q-2.85 -5.95 -3.05 -6.0 M-3.1 -5.6 L-3.15 -5.65 -3.15 -5.55 -3.1 -5.6" fill="#31451b" fill-rule="evenodd" stroke="none"/>
      <path d="M0.75 -15.75 L1.0 -14.8 Q1.65 -12.3 2.35 -10.1 L2.4 -10.0 2.6 -9.4 3.0 -7.15 Q2.7 -7.65 2.45 -8.15 2.1 -8.85 1.5 -9.2 L1.5 -9.55 Q1.3 -12.7 0.75 -15.75 M-2.2 -11.85 Q-1.65 -12.9 -1.0 -13.8 -0.8 -14.05 -0.55 -14.1 -0.4 -14.05 -0.3 -14.0 L-0.15 -13.8 Q-0.25 -11.75 -0.4 -9.65 -0.45 -9.25 -0.5 -8.85 -0.7 -10.0 -0.85 -11.1 -1.15 -10.3 -1.25 -9.5 -2.3 -9.0 -3.0 -7.35 L-3.0 -7.5 Q-2.6 -9.5 -2.25 -11.65 L-2.2 -11.85 M-0.15 -16.05 Q-0.25 -15.55 -0.8 -15.4 -1.4 -15.6 -1.35 -16.25 -1.3 -16.8 -0.8 -16.85 0.0 -16.75 -0.15 -16.05" fill="#a2b072" fill-rule="evenodd" stroke="none"/>
    </g>
    <g id="shape1" transform="matrix(1.0, 0.0, 0.0, 1.0, 17.8, -2.05)">
      <path d="M12.9 8.45 Q13.3 12.15 12.15 14.6 13.9 17.6 15.45 21.1 16.3 23.0 15.6 25.0 14.45 28.4 12.3 27.2 10.85 26.4 9.7 27.75 L9.7 28.0 Q9.8 28.35 10.05 28.25 L10.4 28.3 Q10.7 28.5 10.95 28.85 11.05 29.0 11.1 29.2 L11.15 29.4 11.1 29.75 11.0 30.15 10.8 30.6 Q9.5 31.25 8.3 31.0 8.15 31.1 7.95 31.1 7.6 31.1 7.35 30.7 L6.95 30.5 Q6.85 30.45 6.8 30.15 6.55 26.3 4.75 28.4 3.4 29.9 2.85 27.2 2.05 23.6 3.55 20.75 4.2 19.55 4.15 18.15 L4.05 17.35 Q4.0 16.8 3.8 16.2 L2.45 12.1 2.3 11.5 Q2.1 9.15 2.95 7.4 3.75 5.7 4.9 5.1 5.6 4.75 6.2 5.4 L6.05 5.45 Q5.65 5.3 5.2 5.55 L4.65 5.95 Q5.35 5.6 6.2 5.8 6.55 5.9 6.85 6.05 7.7 6.15 8.6 6.05 10.65 5.8 12.5 7.45 12.85 7.75 12.9 8.45 M6.9 21.9 L6.9 21.7 Q6.65 21.85 6.7 22.6 L6.7 22.55 6.35 22.2 Q6.05 21.95 5.75 22.15 5.45 22.4 5.4 22.95 L5.45 23.2 Q5.5 23.65 5.7 23.9 6.05 24.3 6.5 24.4 6.85 24.5 7.2 24.2 L7.25 23.9 7.3 23.5 7.3 23.4 7.2 23.25 7.1 23.15 7.0 23.1 6.95 23.0 6.9 21.9 M7.3 16.0 Q6.35 16.7 6.05 18.4 6.2 19.85 7.05 19.4 7.8 18.95 8.6 18.55 9.1 18.3 9.6 18.1 9.7 18.35 9.85 18.45 L10.35 18.95 Q10.55 19.15 10.75 19.15 10.95 19.15 11.1 18.95 L11.15 18.6 Q10.7 16.55 9.75 14.65 9.25 13.7 8.6 13.4 L9.2 14.15 Q9.5 14.6 9.75 15.05 10.05 15.65 10.2 16.35 9.7 16.0 9.15 15.75 8.2 15.3 7.3 16.0 M0.25 24.2 L0.35 24.05 0.5 24.05 Q0.65 24.05 0.7 24.3 L0.85 24.7 0.7 25.1 Q0.65 25.25 0.55 25.3 L0.35 25.35 0.3 25.25 0.2 25.1 Q0.15 24.9 0.15 24.75 L0.15 24.55 0.2 24.3 Q0.2 24.2 0.25 24.2 M17.35 21.15 Q17.45 21.25 17.5 21.4 17.65 21.8 17.5 22.3 L17.35 22.5 17.25 22.5 Q17.1 22.45 17.05 22.25 17.0 22.05 17.0 21.75 L17.05 21.5 17.15 21.3 Q17.2 21.15 17.35 21.15 M9.5 46.25 L9.65 45.95 9.8 45.7 Q9.9 45.55 10.0 45.7 10.2 45.95 10.05 46.4 9.9 46.85 9.65 46.65 9.5 46.5 9.5 46.25 M7.65 40.9 Q7.7 40.7 7.85 40.6 7.95 40.45 8.1 40.65 L8.15 40.8 Q8.25 41.2 8.1 41.5 7.95 41.7 7.8 41.65 L7.7 41.65 7.65 41.6 7.6 41.5 7.55 41.25 7.65 40.9 M-1.6 37.1 L-1.5 37.25 Q-1.35 37.55 -1.5 37.85 L-1.6 37.95 -1.7 38.0 -1.9 38.0 Q-2.1 37.95 -2.1 37.6 L-2.0 37.3 -1.85 37.05 -1.6 37.1" fill="#608c38" fill-opacity="0.8" fill-rule="evenodd" stroke="none"/>
      <path d="M0.95 5.5 Q1.4 9.2 -0.05 11.65 2.15 14.65 4.1 18.15 5.15 20.05 4.3 22.05 2.85 25.45 0.15 24.25 -1.6 23.45 -3.1 24.8 L-3.05 25.05 Q-2.95 25.4 -2.65 25.3 L-2.2 25.35 Q-1.85 25.55 -1.55 25.9 -1.4 26.05 -1.3 26.25 L-1.3 26.45 Q-1.3 26.65 -1.35 26.8 L-1.45 27.2 Q-1.55 27.45 -1.7 27.65 -3.3 28.3 -4.8 28.05 -5.0 28.15 -5.25 28.15 -5.7 28.15 -6.0 27.75 L-6.5 27.55 Q-6.65 27.5 -6.7 27.2 -7.0 23.35 -9.25 25.45 -10.9 26.95 -11.65 24.25 -12.65 20.65 -10.75 17.8 -9.95 16.6 -10.0 15.2 -10.0 14.85 -10.1 14.4 -10.2 13.85 -10.45 13.25 L-12.1 9.15 -12.3 8.55 Q-12.55 6.2 -11.5 4.45 -10.5 2.75 -9.1 2.15 -8.15 1.8 -7.45 2.45 L-7.6 2.5 Q-8.1 2.35 -8.65 2.6 -9.0 2.75 -9.35 3.0 -8.45 2.65 -7.45 2.85 L-6.6 3.1 Q-5.55 3.2 -4.45 3.1 -1.9 2.85 0.4 4.5 0.85 4.8 0.95 5.5 M6.0 18.8 L6.1 18.55 6.2 18.35 Q6.3 18.2 6.45 18.2 L6.65 18.45 Q6.85 18.85 6.7 19.35 6.6 19.5 6.5 19.55 L6.35 19.55 Q6.2 19.5 6.1 19.3 6.0 19.1 6.05 18.8 L6.0 18.8 M-6.55 18.75 Q-6.9 18.9 -6.8 19.65 L-6.8 19.6 Q-7.05 19.4 -7.25 19.25 -7.65 19.0 -8.0 19.2 -8.35 19.45 -8.45 20.0 L-8.4 20.25 Q-8.3 20.7 -8.05 20.95 -7.6 21.35 -7.05 21.45 -6.6 21.55 -6.2 21.25 L-6.1 20.95 -6.05 20.55 -6.1 20.45 -6.2 20.3 -6.35 20.2 -6.5 20.05 -6.55 18.95 -6.55 18.75 M-3.7 11.2 Q-3.3 11.65 -3.0 12.1 -2.6 12.7 -2.45 13.4 -3.05 13.05 -3.75 12.8 -4.95 12.35 -6.1 13.05 -7.25 13.75 -7.65 15.45 -7.45 16.9 -6.4 16.45 -5.4 16.0 -4.45 15.6 L-3.15 15.15 Q-3.05 15.4 -2.9 15.5 L-2.3 16.0 Q-2.05 16.2 -1.75 16.2 -1.5 16.2 -1.3 16.0 -1.25 15.8 -1.25 15.65 -1.8 13.6 -3.0 11.7 -3.6 10.75 -4.4 10.45 L-3.7 11.2 M-17.0 34.3 Q-16.9 34.6 -17.05 34.9 L-17.15 35.0 -17.3 35.05 -17.55 35.05 Q-17.8 35.0 -17.8 34.65 L-17.65 34.35 -17.45 34.1 -17.15 34.15 -17.0 34.3 M-14.7 21.1 L-14.55 21.1 Q-14.4 21.1 -14.3 21.35 -14.2 21.55 -14.15 21.75 L-14.25 22.15 Q-14.35 22.3 -14.5 22.35 L-14.7 22.4 -14.8 22.3 -14.9 22.15 -14.95 21.8 -15.0 21.6 -14.9 21.35 -14.85 21.25 -14.7 21.1 M-5.4 37.65 Q-5.25 37.5 -5.1 37.7 L-5.0 37.85 Q-4.9 38.25 -5.1 38.55 -5.25 38.75 -5.45 38.7 L-5.55 38.7 -5.7 38.55 -5.75 38.3 -5.6 37.95 -5.4 37.65 M-3.15 43.0 L-2.95 42.75 Q-2.85 42.6 -2.7 42.75 -2.45 43.0 -2.65 43.45 -2.8 43.9 -3.15 43.7 -3.3 43.55 -3.3 43.3 L-3.15 43.0" fill="#608c38" fill-opacity="0.8" fill-rule="evenodd" stroke="none"/>
      <path d="M4.35 9.4 Q3.8 9.05 3.25 9.25 L3.05 9.2 Q3.85 8.35 4.8 8.8 6.35 9.6 7.4 11.9 8.5 14.2 8.25 17.3 L8.05 18.15 6.3 23.5 Q6.0 24.3 5.9 25.1 5.8 25.65 5.8 26.15 5.75 28.0 6.6 29.6 8.6 33.35 7.55 38.2 6.75 41.75 5.0 39.75 2.6 37.0 2.25 42.1 2.2 42.5 2.05 42.6 L1.55 42.85 Q1.2 43.4 0.75 43.4 L0.25 43.25 Q-1.35 43.55 -3.1 42.7 -3.25 42.45 -3.3 42.1 L-3.45 41.6 -3.5 41.05 -3.5 40.85 Q-3.4 40.55 -3.25 40.4 -2.9 39.95 -2.5 39.65 -2.3 39.5 -2.05 39.6 -1.75 39.7 -1.6 39.25 L-1.6 38.95 Q-3.15 37.1 -5.05 38.15 -7.9 39.75 -9.45 35.25 -10.35 32.6 -9.25 30.05 -7.15 25.4 -4.85 21.45 -6.35 18.2 -5.85 13.25 -5.75 12.3 -5.3 11.9 -2.85 9.75 -0.1 10.05 1.05 10.2 2.15 10.05 2.6 9.85 3.1 9.7 4.15 9.45 5.1 9.9 4.75 9.6 4.35 9.4 M1.65 23.25 Q0.4 22.4 -0.9 22.95 -1.6 23.25 -2.3 23.75 -2.1 22.85 -1.65 22.05 -1.35 21.4 -0.95 20.85 L-0.15 19.85 Q-1.0 20.25 -1.65 21.5 -2.95 24.0 -3.5 26.75 -3.55 26.95 -3.5 27.2 -3.3 27.5 -3.0 27.45 -2.7 27.45 -2.45 27.2 L-1.75 26.55 Q-1.6 26.4 -1.5 26.05 -0.8 26.35 -0.15 26.7 0.9 27.2 1.95 27.8 3.05 28.45 3.3 26.45 2.85 24.2 1.65 23.25 M4.15 32.5 Q4.05 31.75 3.65 31.45 3.3 31.2 2.85 31.5 2.6 31.7 2.4 32.0 L2.35 32.05 Q2.5 31.1 2.1 30.9 L2.15 31.15 2.05 32.6 1.95 32.7 1.9 32.8 1.75 32.9 1.6 33.15 1.6 33.25 1.65 33.8 1.75 34.2 Q2.15 34.55 2.65 34.45 3.25 34.3 3.7 33.75 4.0 33.45 4.1 32.85 L4.15 32.5 M-1.35 63.5 Q-1.35 63.85 -1.5 64.0 -1.85 64.3 -2.05 63.7 -2.25 63.05 -1.95 62.75 -1.85 62.6 -1.75 62.75 L-1.5 63.1 -1.35 63.5 M-11.95 30.5 Q-11.85 30.3 -11.75 30.15 -11.6 30.15 -11.5 30.3 L-11.35 30.6 Q-11.3 30.75 -11.3 30.95 -11.3 31.3 -11.4 31.6 -11.45 31.85 -11.65 31.9 L-11.8 31.9 Q-11.9 31.85 -12.0 31.65 -12.15 31.0 -11.95 30.5 M13.4 51.3 L13.75 51.3 13.95 51.6 14.1 52.0 Q14.1 52.45 13.8 52.55 L13.55 52.55 13.4 52.45 13.35 52.35 Q13.1 51.95 13.25 51.55 L13.4 51.3 M0.55 56.1 Q0.7 55.8 0.9 55.95 1.05 56.15 1.1 56.35 L1.25 56.85 1.2 57.2 1.05 57.35 0.95 57.4 Q0.75 57.45 0.55 57.15 0.35 56.75 0.5 56.25 L0.55 56.1 M10.35 34.35 Q10.45 34.0 10.65 33.95 L10.8 33.95 10.95 34.15 11.05 34.3 11.1 34.65 11.1 34.9 Q11.1 35.15 11.0 35.35 L10.9 35.6 10.8 35.7 10.55 35.65 Q10.4 35.6 10.35 35.35 L10.2 34.85 10.35 34.35" fill="#81de11" fill-opacity="0.3529412" fill-rule="evenodd" stroke="none"/>
    </g>
    <g id="shape2" transform="matrix(1.0, 0.0, 0.0, 1.0, 3.7, 8.35)">
      <path d="M-2.5 -7.05 Q-1.65 -8.0 -0.4 -8.35 6.2 -7.25 2.25 -1.85 -0.5 1.95 -2.95 -2.0 -4.65 -4.7 -2.5 -7.05" fill="#004728" fill-rule="evenodd" stroke="none"/>
    </g>
    <g id="shape3" transform="matrix(1.0, 0.0, 0.0, 1.0, 2.35, 7.2)">
      <path d="M1.1 -6.05 Q0.9 -6.85 1.65 -7.2 2.2 -7.05 2.45 -6.65 3.2 -5.95 2.6 -4.65 2.1 -3.6 1.55 -4.4 1.35 -4.45 1.35 -4.7 L1.35 -4.75 Q1.2 -5.05 1.15 -5.45 L1.15 -5.85 1.1 -6.05 M1.7 -4.3 L1.85 -4.3 1.65 -4.35 1.7 -4.3 M0.65 -3.35 L0.7 -3.3 Q1.7 -2.1 0.35 -1.05 0.0 -0.75 -0.35 -0.75 L-0.65 -0.7 Q-1.15 -0.7 -1.4 -1.2 -1.45 -1.35 -1.45 -1.5 -1.65 -1.9 -1.25 -2.4 -0.85 -2.9 -0.15 -2.7 L0.0 -3.0 Q0.05 -3.15 0.2 -3.2 L0.4 -3.35 0.65 -3.35 M-0.4 -5.45 L-0.3 -5.55 -0.25 -5.55 Q0.75 -5.25 0.25 -4.25 -0.1 -3.5 -0.55 -4.25 -0.65 -4.4 -0.6 -4.65 -0.45 -5.0 -0.4 -5.4 L-0.4 -5.45 M-1.85 -5.6 L-1.75 -5.55 Q-1.65 -5.45 -1.6 -5.3 -1.5 -5.1 -1.6 -4.85 -1.65 -4.65 -1.8 -4.5 -2.2 -4.4 -2.3 -4.75 -2.4 -5.1 -2.25 -5.35 -2.15 -5.55 -2.0 -5.6 L-1.85 -5.6" fill="#608c38" fill-opacity="0.8" fill-rule="evenodd" stroke="none"/>
    </g>
    <g id="shape4" transform="matrix(1.0, 0.0, 0.0, 1.0, 10.15, -6.65)">
      <path d="M1.15 26.8 Q1.5 27.2 1.7 27.7 2.0 28.3 2.15 29.0 1.65 28.6 1.15 28.4 0.15 27.95 -0.75 28.6 -1.7 29.35 -2.0 31.05 -1.85 32.5 -1.0 32.0 -0.2 31.55 0.55 31.2 1.05 30.95 1.6 30.7 1.65 30.95 1.8 31.1 L2.3 31.6 Q2.5 31.75 2.7 31.75 2.95 31.8 3.1 31.55 L3.1 31.25 Q2.7 29.15 1.7 27.3 1.2 26.35 0.6 26.05 L1.15 26.8 M4.1 27.25 Q5.85 30.25 7.4 33.7 8.25 35.6 7.55 37.65 6.4 41.0 4.25 39.8 2.85 39.05 1.65 40.4 L1.65 40.65 Q1.75 41.0 2.0 40.9 L2.35 40.95 Q2.65 41.15 2.9 41.5 3.0 41.65 3.1 41.85 L3.1 42.0 3.05 42.4 2.95 42.8 2.8 43.25 Q1.5 43.85 0.3 43.65 0.1 43.75 -0.1 43.75 -0.45 43.75 -0.7 43.35 L-1.05 43.15 Q-1.2 43.1 -1.25 42.8 -1.5 38.95 -3.3 41.0 -4.65 42.55 -5.2 39.85 -6.0 36.2 -4.5 33.4 -3.85 32.2 -3.9 30.8 L-3.95 30.0 Q-4.05 29.4 -4.25 28.8 L-5.6 24.75 -5.75 24.15 Q-5.9 21.8 -5.1 20.05 -4.3 18.3 -3.15 17.75 -2.4 17.4 -1.85 18.05 L-1.95 18.05 Q-2.4 17.95 -2.8 18.2 L-3.4 18.55 Q-2.65 18.2 -1.85 18.45 -1.5 18.5 -1.15 18.65 -0.3 18.75 0.55 18.65 2.6 18.45 4.45 20.05 4.8 20.4 4.9 21.1 5.25 24.8 4.1 27.25 M9.45 34.05 Q9.6 34.45 9.5 34.9 9.45 35.1 9.35 35.15 L9.2 35.1 Q9.1 35.1 9.0 34.85 8.95 34.65 8.95 34.4 L9.0 34.15 9.1 33.9 Q9.2 33.8 9.3 33.8 9.4 33.9 9.45 34.05 M0.1 53.45 Q0.2 53.8 0.05 54.1 -0.1 54.35 -0.25 54.3 L-0.3 54.25 -0.4 54.2 -0.45 54.15 -0.5 53.9 -0.4 53.5 -0.2 53.2 Q-0.05 53.1 0.05 53.3 L0.1 53.45 M1.6 59.25 Q1.45 59.15 1.5 58.85 L1.6 58.6 1.75 58.3 Q1.85 58.2 1.95 58.3 2.15 58.55 2.0 59.05 1.85 59.5 1.6 59.25 M-1.15 34.55 L-1.1 34.35 Q-1.4 34.5 -1.3 35.2 L-1.35 35.15 Q-1.5 34.95 -1.7 34.85 -2.0 34.55 -2.3 34.8 -2.6 35.0 -2.65 35.55 L-2.6 35.8 Q-2.55 36.25 -2.35 36.5 -1.95 36.9 -1.55 37.05 -1.15 37.1 -0.85 36.85 L-0.75 36.55 -0.75 36.05 -0.85 35.9 -0.95 35.8 -1.0 35.7 -1.1 35.65 -1.15 34.55 M-7.65 36.65 L-7.55 36.65 Q-7.4 36.7 -7.35 36.95 L-7.2 37.35 -7.3 37.7 Q-7.4 37.9 -7.5 37.95 L-7.65 38.0 -7.75 37.9 -7.8 37.7 -7.9 37.35 -7.9 37.2 -7.85 36.9 -7.8 36.8 -7.65 36.65 M-9.6 49.7 L-9.5 49.9 Q-9.4 50.2 -9.55 50.5 L-9.6 50.6 -9.75 50.65 -9.95 50.65 Q-10.15 50.6 -10.15 50.25 L-10.05 49.9 -9.85 49.7 -9.6 49.7" fill="#608c38" fill-opacity="0.8" fill-rule="evenodd" stroke="none"/>
      <path d="M2.6 8.8 Q3.35 8.9 4.25 9.45 5.35 10.05 6.3 11.15 6.85 11.8 7.05 12.9 10.15 13.5 9.45 18.45 9.25 19.65 8.5 20.05 6.55 21.05 6.9 24.25 L8.05 25.5 Q9.05 26.45 8.65 28.2 8.45 28.15 8.3 28.25 8.2 28.35 8.05 28.35 L7.75 28.35 7.7 28.4 Q7.6 29.2 7.65 30.15 7.7 30.5 7.65 30.9 L7.2 31.3 6.8 31.75 Q6.75 31.85 6.7 31.85 6.35 30.3 6.5 28.85 L6.5 28.75 6.4 27.7 Q6.35 26.75 5.9 26.05 5.45 25.3 5.25 24.45 L5.25 23.55 Q5.25 23.0 5.5 22.7 5.6 22.55 5.75 22.5 6.5 20.5 7.0 18.4 7.4 16.7 6.8 15.1 5.55 11.7 3.4 9.85 L3.25 9.75 Q3.15 9.7 3.15 9.65 2.95 9.45 2.75 9.15 L2.45 9.0 Q2.25 8.95 2.1 8.85 L2.1 8.75 2.5 8.75 2.6 8.8 M6.3 25.85 Q6.05 25.2 5.7 24.55 5.8 24.9 6.0 25.25 L6.3 25.85 M-4.35 8.5 Q-4.4 7.05 -3.55 6.75 -2.8 6.5 -2.1 6.9 L-1.9 7.0 -1.65 7.0 -0.8 7.05 -0.8 7.15 Q-0.85 8.0 -1.4 7.85 L-1.6 7.85 -1.95 8.1 Q-4.2 9.75 -4.9 12.5 L-5.15 14.3 -5.2 14.55 Q-5.3 16.6 -4.7 19.1 -4.5 20.15 -4.15 21.05 -3.8 21.95 -3.3 22.7 -3.05 23.1 -2.95 23.6 L-2.95 23.75 -3.05 23.85 -3.15 23.85 -3.3 23.8 -3.45 23.7 -3.6 23.5 -3.65 23.45 -3.7 23.45 -3.7 23.55 Q-3.7 23.9 -3.85 24.1 L-4.0 24.25 Q-4.25 24.3 -4.35 24.0 L-4.35 23.95 -4.4 23.95 Q-4.7 23.9 -4.9 23.45 -5.15 22.9 -5.2 22.25 L-5.35 21.7 -5.35 21.6 -5.5 21.4 -5.6 21.4 Q-5.7 21.4 -5.8 21.5 -6.0 21.75 -6.15 22.05 -6.3 22.35 -6.5 22.35 L-7.15 22.35 -7.25 22.3 -7.4 22.15 -7.6 21.55 Q-7.65 21.3 -7.7 21.1 L-7.75 20.95 Q-7.8 19.75 -7.6 18.7 -7.4 17.5 -6.9 16.65 L-6.65 16.1 -6.55 15.2 Q-6.9 14.3 -6.7 13.2 -6.4 11.35 -5.3 10.3 -4.75 9.8 -4.25 9.15 L-4.15 9.0 -4.35 8.6 -4.35 8.5" fill="#004726" fill-opacity="0.7529412" fill-rule="evenodd" stroke="none"/>
    </g>
  </defs>
</svg>
