<?xml version="1.0" encoding="UTF-8" standalone="no"?>
<svg xmlns:ffdec="https://www.free-decompiler.com/flash" xmlns:xlink="http://www.w3.org/1999/xlink" ffdec:objectType="frame" height="407.75px" width="183.05px" xmlns="http://www.w3.org/2000/svg">
  <g transform="matrix(1.0, 0.0, 0.0, 1.0, 0.8, 4.1)">
    <use ffdec:characterId="575" ffdec:characterName="a_EB_OasisRiver4" height="407.75" transform="matrix(1.0, 0.0, 0.0, 1.0, -0.8, -4.1)" width="179.2" xlink:href="#sprite0"/>
  </g>
  <defs>
    <g id="sprite0" transform="matrix(1.0, 0.0, 0.0, 1.0, 0.0, 0.0)">
      <use ffdec:characterId="574" height="58.25" transform="matrix(7.0, 0.0, 0.0, 7.0, 0.0, 0.0)" width="25.6" xlink:href="#shape0"/>
    </g>
    <g id="shape0" transform="matrix(1.0, 0.0, 0.0, 1.0, 0.0, 0.0)">
      <path d="M24.9 0.9 Q25.6 1.2 25.6 1.75 L25.6 30.05 25.55 30.15 25.55 47.6 25.5 47.75 25.5 54.0 Q25.6 54.15 25.6 54.3 25.6 54.55 18.45 55.2 L16.85 55.35 Q16.5 55.5 16.05 55.65 L14.8 55.95 12.95 56.2 11.6 56.35 8.75 56.35 8.65 52.65 8.65 48.85 8.9 45.75 Q9.15 43.05 9.15 42.35 9.15 41.15 9.15 40.35 L9.2 39.4 9.25 38.8 Q9.25 38.55 9.45 37.05 L9.7 35.45 Q9.65 34.8 9.85 33.65 10.0 32.4 10.0 31.9 L9.95 30.9 9.85 30.9 Q9.5 33.1 9.0 36.45 L9.0 36.25 8.9 36.3 Q8.45 39.65 7.45 46.35 6.65 52.2 6.45 56.35 L3.5 56.35 2.9 56.6 2.9 56.3 2.85 55.6 Q2.85 54.8 2.35 51.95 L2.3 51.85 2.3 47.85 Q2.2 47.25 2.2 46.2 2.2 45.7 2.25 45.5 L2.25 38.85 Q2.3 37.2 2.55 36.05 2.65 35.45 2.95 33.45 3.3 31.05 3.3 30.25 L3.3 30.2 Q3.95 28.4 3.95 27.25 3.95 26.45 3.55 24.4 3.1 22.4 3.1 21.95 L3.15 20.4 Q3.6 17.25 3.8 15.0 L4.65 12.55 Q5.6 9.95 5.6 9.3 5.2 6.05 5.2 5.25 5.2 4.9 5.35 3.85 5.5 2.85 5.5 2.5 L5.75 1.4 Q5.5 1.2 5.15 1.1 5.65 1.1 6.3 1.15 L7.25 1.2 8.65 1.25 Q9.45 1.25 9.75 1.25 L13.95 1.25 Q15.7 1.3 17.05 1.15 L19.0 0.8 19.25 0.75 Q19.75 0.55 19.85 0.6 L19.95 0.7 20.05 0.65 22.0 0.5 22.0 0.6 Q21.8 0.9 21.65 1.4 21.5 1.95 21.45 2.35 L21.15 4.15 Q20.9 5.35 20.8 5.9 20.35 9.0 20.0 13.05 L19.3 19.7 18.8 24.4 18.6 29.9 18.55 31.65 19.0 28.7 Q19.5 25.8 19.6 24.65 L19.65 24.4 Q20.25 19.85 20.65 17.3 21.5 13.2 21.75 12.15 22.2 10.2 23.65 5.25 24.75 1.65 24.9 0.9 M0.25 56.9 L0.2 56.8 Q0.15 56.65 0.15 56.45 0.1 56.1 0.1 55.8 0.15 56.5 0.25 56.9 M24.25 0.65 L24.4 0.7 24.35 0.75 24.25 0.65 M4.8 6.3 Q4.85 6.3 4.85 6.55 4.85 6.35 4.8 6.3 M1.9 36.9 L2.2 32.95 3.05 30.9 3.05 30.85 1.9 36.9" fill="#00ddd1" fill-rule="evenodd" stroke="none"/>
      <path d="M24.4 0.7 Q24.55 0.45 24.65 0.35 24.95 0.1 24.95 0.65 L24.9 0.9 Q24.75 1.65 23.65 5.25 22.2 10.2 21.75 12.15 21.5 13.2 20.65 17.3 20.25 19.85 19.65 24.4 L19.6 24.65 Q19.5 25.8 19.0 28.7 L18.55 31.65 18.6 29.9 18.8 24.4 19.3 19.7 20.0 13.05 Q20.35 9.0 20.8 5.9 20.9 5.35 21.15 4.15 L21.45 2.35 Q21.5 1.95 21.65 1.4 21.8 0.9 22.0 0.6 L22.0 0.5 Q22.45 -0.3 23.5 0.2 23.9 0.35 24.25 0.65 L24.35 0.75 24.4 0.7 M8.75 56.35 L8.75 56.4 8.4 56.4 7.9 56.55 Q7.45 56.7 6.95 56.7 L6.5 56.65 6.45 56.45 6.45 56.35 Q6.65 52.2 7.45 46.35 8.45 39.65 8.9 36.3 L9.0 36.25 9.0 36.45 Q9.5 33.1 9.85 30.9 L9.95 30.9 10.0 31.9 Q10.0 32.4 9.85 33.65 9.65 34.8 9.7 35.45 L9.45 37.05 Q9.25 38.55 9.25 38.8 L9.2 39.4 9.15 40.35 Q9.15 41.15 9.15 42.35 9.15 43.05 8.9 45.75 L8.65 48.85 8.65 52.65 8.75 56.35 M0.75 57.5 L0.6 57.4 0.65 57.4 0.6 57.35 0.65 57.0 0.75 57.5 M3.3 30.2 L3.3 30.25 Q3.3 31.05 2.95 33.45 2.65 35.45 2.55 36.05 2.3 37.2 2.25 38.85 L2.25 45.5 Q2.2 45.7 2.2 46.2 2.2 47.25 2.3 47.85 L2.3 51.85 2.35 51.95 2.3 51.75 Q1.95 49.9 1.8 48.75 L1.8 46.85 1.9 46.3 1.8 45.85 1.8 44.95 Q1.85 44.7 1.9 44.5 L1.9 36.9 3.05 30.85 3.3 30.2" fill="#09edde" fill-rule="evenodd" stroke="none"/>
      <path d="M2.9 56.6 Q2.9 56.85 2.8 57.05 2.6 57.9 1.55 58.0 1.5 58.25 1.05 58.25 0.65 58.25 0.55 58.1 L0.55 57.95 Q0.55 57.85 0.65 57.85 0.75 57.8 0.75 57.7 L0.75 57.5 0.65 57.0 0.6 57.35 0.65 57.4 0.6 57.4 0.5 57.4 Q0.35 57.4 0.25 56.9 0.15 56.5 0.1 55.8 0.05 55.0 0.05 53.85 L0.0 50.25 Q0.0 49.2 0.15 45.85 0.25 42.5 0.25 39.85 0.25 39.0 0.45 36.75 0.6 34.45 0.6 32.35 0.6 31.7 0.9 28.6 L1.05 27.3 1.05 27.2 1.25 25.2 Q1.4 23.3 1.4 22.75 1.4 21.65 1.95 16.75 L2.5 11.6 Q2.5 10.6 2.7 8.8 L2.9 6.05 Q3.0 5.55 3.1 4.5 L3.3 2.85 Q3.6 0.95 4.4 0.75 L4.45 0.8 4.45 1.1 5.15 1.1 Q5.5 1.2 5.75 1.4 L5.5 2.5 Q5.5 2.85 5.35 3.85 5.2 4.9 5.2 5.25 5.2 6.05 5.6 9.3 5.6 9.95 4.65 12.55 L3.8 15.0 Q3.6 17.25 3.15 20.4 L3.1 21.95 Q3.1 22.4 3.55 24.4 3.95 26.45 3.95 27.25 3.95 28.4 3.3 30.2 L3.05 30.85 3.05 30.9 2.2 32.95 1.9 36.9 1.9 44.5 Q1.85 44.7 1.8 44.95 L1.8 45.85 1.9 46.3 1.8 46.85 1.8 48.75 Q1.95 49.9 2.3 51.75 L2.35 51.95 Q2.85 54.8 2.85 55.6 L2.9 56.3 2.9 56.6 M4.8 6.3 Q4.85 6.35 4.85 6.55 4.85 6.3 4.8 6.3" fill="#ffffff" fill-rule="evenodd" stroke="none"/>
    </g>
  </defs>
</svg>
