<?xml version="1.0" encoding="UTF-8" standalone="no"?>
<svg xmlns:ffdec="https://www.free-decompiler.com/flash" xmlns:xlink="http://www.w3.org/1999/xlink" ffdec:objectType="frame" height="135.45px" width="98.7px" xmlns="http://www.w3.org/2000/svg">
  <g transform="matrix(1.0, 0.0, 0.0, 1.0, 51.45, 79.8)">
    <use ffdec:characterId="414" height="19.35" transform="matrix(7.0, 0.0, 0.0, 7.0, -51.45, -79.8)" width="14.1" xlink:href="#shape0"/>
  </g>
  <defs>
    <g id="shape0" transform="matrix(1.0, 0.0, 0.0, 1.0, 7.35, 11.4)">
      <path d="M5.45 5.45 L5.35 5.65 5.45 5.45 M5.3 5.8 L2.55 7.05 Q0.6 7.65 -1.95 5.75 1.7 7.85 5.3 5.8 M-5.05 2.25 L-5.25 -2.9 -4.25 -6.85 -4.2 -3.15 Q-5.45 -0.7 -4.8 0.9 L-4.8 0.95 Q-5.0 1.65 -5.05 2.25" fill="#b00000" fill-rule="evenodd" stroke="none"/>
      <path d="M1.45 -9.2 L1.0 -9.25 Q0.45 -9.1 -0.25 -9.15 -1.0 -9.2 -1.3 -8.55 -1.35 -8.15 -1.05 -7.95 0.6 -6.75 2.05 -7.9 L2.45 -5.45 Q2.6 -0.8 5.35 3.05 L5.5 3.9 5.4 3.85 Q4.8 3.65 4.1 3.8 3.05 3.8 2.0 4.25 1.7 4.4 1.7 4.7 L0.6 4.35 Q-1.8 3.55 -3.6 2.05 -3.6 1.95 -3.5 1.85 -3.4 1.7 -3.7 1.65 L-3.75 1.35 Q-3.5 -0.55 -3.1 -2.45 L-3.0 -3.0 Q-2.8 -3.5 -2.7 -4.15 -2.0 -7.05 -2.95 -9.85 L-3.2 -9.15 -3.45 -10.0 Q-3.7 -9.5 -3.85 -8.9 L-3.7 -9.95 0.35 -10.7 Q1.0 -10.05 1.45 -9.2 M2.15 -3.25 Q1.7 -3.95 0.8 -3.7 0.0 -3.35 -0.95 -3.5 -1.5 -3.6 -1.75 -3.1 -1.8 -2.6 -1.35 -2.45 L-1.2 -2.4 Q-0.95 -2.15 -0.45 -2.15 0.95 -1.75 2.25 -2.15 L2.15 -3.25" fill="#1e4599" fill-rule="evenodd" stroke="none"/>
      <path d="M2.05 -7.9 Q0.6 -6.75 -1.05 -7.95 -1.35 -8.15 -1.3 -8.55 -1.0 -9.2 -0.25 -9.15 0.45 -9.1 1.0 -9.25 L1.45 -9.2 2.05 -7.9 M-3.85 -8.9 Q-3.7 -9.5 -3.45 -10.0 L-3.2 -9.15 -2.95 -9.85 Q-2.0 -7.05 -2.7 -4.15 -2.8 -3.5 -3.0 -3.0 L-3.1 -2.45 Q-3.5 -0.55 -3.75 1.35 L-3.7 1.65 Q-3.4 1.7 -3.5 1.85 -3.6 1.95 -3.6 2.05 -1.8 3.55 0.6 4.35 L1.7 4.7 Q1.7 4.4 2.0 4.25 3.05 3.8 4.1 3.8 4.8 3.65 5.4 3.85 L5.5 3.9 5.45 5.45 5.35 5.65 5.3 5.8 Q1.7 7.85 -1.95 5.75 L-3.8 4.3 -5.05 2.25 Q-5.0 1.65 -4.8 0.95 L-4.8 0.9 Q-5.45 -0.7 -4.2 -3.15 L-4.25 -6.85 -3.95 -9.1 -3.85 -8.9 M2.15 -3.25 L2.25 -2.15 Q0.95 -1.75 -0.45 -2.15 -0.95 -2.15 -1.2 -2.4 L-1.35 -2.45 Q-1.8 -2.6 -1.75 -3.1 -1.5 -3.6 -0.95 -3.5 0.0 -3.35 0.8 -3.7 1.7 -3.95 2.15 -3.25" fill="#112859" fill-rule="evenodd" stroke="none"/>
      <path d="M1.95 -11.2 Q2.65 -11.2 2.8 -10.65 L2.6 -10.55 Q2.8 -9.3 2.85 -8.05 2.95 -6.7 3.0 -5.35 3.05 -3.8 3.0 -2.35 5.05 -0.9 6.2 2.0 7.05 4.1 6.5 5.4 6.5 6.1 5.95 6.85 L5.9 6.85 6.0 6.9 5.8 7.0 Q5.35 7.45 4.95 7.35 L4.75 7.45 Q4.4 7.9 3.6 7.9 1.8 8.0 0.3 7.7 -2.7 7.4 -5.1 5.2 -5.8 4.75 -6.2 4.05 L-6.45 3.7 Q-6.9 3.35 -7.05 2.8 L-7.35 2.2 -7.15 2.25 Q-7.25 1.55 -7.05 0.7 L-6.95 0.5 -6.4 0.35 Q-6.3 -0.5 -6.0 -1.45 -5.8 -2.25 -5.55 -2.95 -5.4 -3.7 -5.25 -4.45 -4.7 -6.7 -5.3 -8.9 -5.45 -9.5 -5.25 -9.8 L-5.45 -10.0 Q-4.55 -10.55 -3.45 -10.8 -1.85 -11.5 0.2 -11.1 0.65 -11.1 1.0 -11.25 L1.4 -11.2 1.55 -11.4 1.6 -11.2 1.95 -11.2 M0.85 -10.05 Q-1.35 -9.5 -3.95 -9.5 -3.5 -6.55 -4.05 -3.55 -4.15 -2.65 -4.35 -1.75 -4.7 -0.25 -5.0 1.3 -4.7 3.75 -2.6 5.2 1.2 7.9 4.8 5.85 5.2 4.6 5.1 3.4 4.25 2.0 3.7 0.9 3.15 -0.3 2.1 -1.55 0.9 -1.7 -0.3 -2.45 0.75 -2.85 1.8 -2.85 0.95 -4.8 0.65 -7.35 0.45 -8.85 0.85 -10.05" fill="#111111" fill-rule="evenodd" stroke="none"/>
    </g>
  </defs>
</svg>
