<?xml version="1.0" encoding="UTF-8" standalone="no"?>
<svg xmlns:ffdec="https://www.free-decompiler.com/flash" xmlns:xlink="http://www.w3.org/1999/xlink" ffdec:objectType="frame" height="113.75px" width="153.65px" xmlns="http://www.w3.org/2000/svg">
  <g transform="matrix(1.0, 0.0, 0.0, 1.0, 5.95, -28.0)">
    <use ffdec:characterId="230" height="16.25" transform="matrix(7.0, 0.0, 0.0, 7.0, -5.95, 28.0)" width="21.95" xlink:href="#shape0"/>
  </g>
  <defs>
    <g id="shape0" transform="matrix(1.0, 0.0, 0.0, 1.0, 0.85, -4.0)">
      <path d="M16.55 12.95 L16.6 12.95 16.6 12.9 Q17.2 12.7 17.55 12.35 L17.45 12.35 Q16.65 12.45 16.15 11.95 15.6 11.6 15.1 10.9 14.8 10.4 14.5 9.8 L14.3 9.25 Q14.2 9.1 13.95 8.45 13.75 7.95 13.4 7.65 L13.2 7.55 Q13.15 7.5 13.05 7.5 L12.55 7.4 11.5 7.4 Q10.2 7.45 10.1 6.8 10.05 6.4 10.1 6.05 L10.35 5.05 10.4 4.95 Q6.8 5.65 5.4 6.05 L5.3 5.95 Q4.85 5.5 4.95 6.5 5.05 7.0 5.3 7.35 L5.35 7.55 Q5.45 7.9 5.85 8.1 6.05 8.3 6.75 8.4 L10.0 8.55 10.0 8.65 10.05 8.8 10.1 8.85 10.1 8.9 10.25 9.3 Q10.55 10.0 10.85 10.6 L10.75 10.55 11.4 11.65 11.95 12.55 Q13.25 13.85 15.0 13.6 16.0 13.45 16.55 12.95 M17.05 11.65 Q17.6 11.6 18.45 11.15 L19.15 10.8 Q20.15 9.45 20.8 9.0 L20.9 9.35 Q21.35 11.8 20.9 14.2 L20.75 14.8 Q20.75 15.1 20.55 15.55 20.55 15.85 20.3 16.2 L19.85 17.05 Q18.2 18.3 16.55 19.65 15.7 19.95 14.7 20.1 L14.5 20.15 14.3 20.15 13.95 20.2 13.85 20.25 Q13.45 20.1 13.4 19.85 L13.5 19.7 Q14.3 18.75 14.3 18.7 L14.3 18.65 Q14.4 18.5 14.4 18.25 14.3 17.75 12.65 17.5 L9.65 17.15 Q8.4 17.05 7.3 16.35 6.2 15.55 5.6 15.25 5.0 15.0 4.15 14.3 3.25 13.45 2.75 13.05 2.1 12.55 1.55 12.35 L0.7 11.75 Q-0.1 11.4 -0.8 11.15 -0.85 10.8 -0.65 10.3 L-0.55 10.05 0.05 9.25 1.15 7.8 2.2 7.0 3.7 6.2 3.8 6.05 Q5.7 5.55 9.4 4.25 L11.05 4.0 11.1 4.05 11.15 4.25 Q11.15 4.35 11.0 5.3 L10.95 5.75 Q10.8 6.05 10.8 6.2 L10.85 6.4 10.8 6.6 10.9 6.6 Q11.0 6.75 11.2 6.8 11.9 7.05 14.0 6.8 L14.7 8.65 Q15.95 11.85 17.05 11.65 M9.7 9.65 Q9.55 9.35 9.5 9.15 L9.1 9.1 8.95 9.15 7.55 9.2 Q6.95 9.3 6.45 9.1 L5.7 9.0 5.55 8.75 4.6 7.1 4.6 7.05 4.2 6.55 3.8 6.65 3.75 6.7 3.75 6.65 Q3.2 6.95 2.8 7.15 2.55 7.35 2.3 7.55 1.4 8.35 0.7 9.2 0.0 10.05 0.05 10.35 -0.1 10.65 -0.15 10.95 L-0.1 10.95 0.4 11.05 0.5 11.1 0.8 11.15 1.75 11.85 Q3.3 12.95 5.05 13.95 L5.6 14.3 5.9 14.45 5.95 14.5 6.55 14.85 6.9 15.1 Q8.85 16.55 11.0 16.65 11.35 16.9 11.9 16.8 L12.1 16.8 Q12.75 16.95 13.35 17.2 L14.85 17.6 14.85 17.5 15.1 17.7 15.15 17.75 15.2 17.85 15.25 18.1 Q15.3 18.35 14.45 19.55 15.8 19.15 16.8 18.7 L17.3 18.35 17.5 18.15 Q17.9 18.0 18.2 17.85 18.65 17.45 18.95 17.05 L19.2 16.65 Q19.85 15.3 20.0 15.1 L20.0 15.05 Q20.2 14.45 20.35 13.75 20.5 12.4 20.6 11.85 L20.4 10.4 20.35 10.35 20.1 10.65 20.0 10.9 19.2 11.7 19.2 11.75 18.55 12.3 18.4 12.4 Q16.4 13.95 13.95 14.35 L12.95 14.45 12.8 14.4 11.15 12.5 10.9 12.2 10.7 11.6 Q10.25 11.0 9.95 10.25 L9.7 9.65" fill="#111111" fill-rule="evenodd" stroke="none"/>
      <path d="M18.55 12.3 L18.35 12.55 Q17.6 13.25 15.65 14.55 15.35 14.7 14.75 14.95 L14.4 15.0 12.7 15.25 12.05 14.5 Q10.5 12.6 10.15 11.95 L9.4 10.85 9.25 10.65 9.15 10.1 Q9.0 8.9 9.7 9.65 L9.95 10.25 Q10.25 11.0 10.7 11.6 L10.9 12.2 11.15 12.5 12.8 14.4 12.95 14.45 13.95 14.35 Q16.4 13.95 18.4 12.4 L18.55 12.3" fill="#009900" fill-rule="evenodd" stroke="none"/>
      <path d="M16.55 12.95 Q16.0 13.45 15.0 13.6 13.25 13.85 11.95 12.55 L11.4 11.65 10.75 10.55 10.85 10.6 Q10.55 10.0 10.25 9.3 L10.1 8.9 10.1 8.85 10.05 8.8 10.0 8.65 10.0 8.55 6.75 8.4 Q6.05 8.3 5.85 8.1 5.45 7.9 5.35 7.55 L5.3 7.35 Q5.05 7.0 4.95 6.5 4.85 5.5 5.3 5.95 L5.4 6.05 Q6.8 5.65 10.4 4.95 L10.35 5.05 10.1 6.05 Q10.05 6.4 10.1 6.8 10.2 7.45 11.5 7.4 L12.55 7.4 13.05 7.5 13.35 8.2 Q14.0 9.75 14.05 10.0 14.65 12.2 15.65 12.7 15.95 12.9 16.55 12.95" fill="#003300" fill-rule="evenodd" stroke="none"/>
      <path d="M13.05 7.5 Q13.15 7.5 13.2 7.55 L13.4 7.65 Q13.75 7.95 13.95 8.45 14.2 9.1 14.3 9.25 L14.5 9.8 Q14.8 10.4 15.1 10.9 15.6 11.6 16.15 11.95 16.65 12.45 17.45 12.35 L17.55 12.35 Q17.2 12.7 16.6 12.9 L16.6 12.95 16.55 12.95 Q15.95 12.9 15.65 12.7 14.65 12.2 14.05 10.0 14.0 9.75 13.35 8.2 L13.05 7.5 M18.55 12.3 L19.2 11.75 19.2 11.7 20.0 10.9 20.1 10.65 20.35 10.35 20.4 10.4 20.6 11.85 Q20.5 12.4 20.35 13.75 20.2 14.45 20.0 15.05 L20.0 15.1 Q19.85 15.3 19.2 16.65 L18.95 17.05 Q18.65 17.45 18.2 17.85 17.9 18.0 17.5 18.15 L17.3 18.35 16.8 18.7 Q15.8 19.15 14.45 19.55 15.3 18.35 15.25 18.1 L15.2 17.85 15.15 17.75 15.1 17.7 14.85 17.5 14.85 17.6 13.35 17.2 Q12.75 16.95 12.1 16.8 L11.9 16.8 Q11.35 16.9 11.0 16.65 8.85 16.55 6.9 15.1 L6.55 14.85 5.95 14.5 5.9 14.45 5.6 14.3 5.05 13.95 Q3.3 12.95 1.75 11.85 L0.8 11.15 0.5 11.1 0.4 11.05 -0.1 10.95 -0.15 10.95 Q-0.1 10.65 0.05 10.35 0.0 10.05 0.7 9.2 1.4 8.35 2.3 7.55 2.55 7.35 2.8 7.15 3.2 6.95 3.75 6.65 L3.75 6.7 3.8 6.65 4.2 6.55 4.6 7.05 4.6 7.1 5.55 8.75 5.7 9.0 6.45 9.1 Q6.95 9.3 7.55 9.2 L8.95 9.15 9.1 9.1 9.5 9.15 Q9.55 9.35 9.7 9.65 9.0 8.9 9.15 10.1 L9.25 10.65 9.4 10.85 10.15 11.95 Q10.5 12.6 12.05 14.5 L12.7 15.25 14.4 15.0 14.75 14.95 Q15.35 14.7 15.65 14.55 17.6 13.25 18.35 12.55 L18.55 12.3" fill="#006600" fill-rule="evenodd" stroke="none"/>
    </g>
  </defs>
</svg>
