<?xml version="1.0" encoding="UTF-8" standalone="no"?>
<svg xmlns:ffdec="https://www.free-decompiler.com/flash" xmlns:xlink="http://www.w3.org/1999/xlink" ffdec:objectType="frame" height="102.2px" width="100.8px" xmlns="http://www.w3.org/2000/svg">
  <g transform="matrix(1.0, 0.0, 0.0, 1.0, -9.1, -30.1)">
    <use ffdec:characterId="228" height="14.6" transform="matrix(7.0, 0.0, 0.0, 7.0, 9.1, 30.1)" width="14.4" xlink:href="#shape0"/>
  </g>
  <defs>
    <g id="shape0" transform="matrix(1.0, 0.0, 0.0, 1.0, -1.3, -4.3)">
      <path d="M2.25 6.9 L2.25 6.85 Q2.25 6.55 3.05 5.85 3.2 5.6 3.45 5.35 4.35 4.55 6.25 4.4 L6.55 4.45 6.55 4.3 Q7.0 4.3 7.4 4.45 L7.45 4.5 Q8.75 5.9 9.05 6.95 9.15 7.3 9.45 9.45 9.8 11.2 10.3 11.4 L10.3 11.45 10.4 11.4 10.55 11.35 11.0 11.25 Q11.9 10.95 12.0 10.95 12.15 10.95 12.2 11.05 L12.25 11.2 11.8 12.75 11.55 13.55 11.65 13.45 Q12.0 13.25 12.25 13.1 L12.2 13.2 12.25 13.2 13.65 12.2 13.65 13.25 14.5 12.95 Q14.65 13.0 14.65 13.15 L14.65 13.35 Q14.6 13.95 14.3 14.65 L15.55 13.7 15.7 13.6 Q15.55 14.7 14.95 15.85 L14.45 16.6 14.25 16.95 14.15 17.25 14.15 17.35 Q14.15 17.8 13.85 18.25 13.5 18.8 12.95 18.8 L12.9 18.85 12.6 18.9 Q12.2 18.9 11.5 18.65 L11.35 18.6 10.95 18.55 Q10.35 18.55 9.75 18.4 L9.65 18.35 9.3 18.35 8.5 18.25 6.85 17.65 Q5.95 17.3 5.1 16.8 4.6 16.55 4.1 16.15 2.75 15.3 2.05 13.85 1.45 12.65 1.3 11.35 L1.35 10.6 1.35 10.35 1.65 8.75 1.8 8.2 2.0 7.45 2.1 7.3 2.1 7.2 1.85 8.15 1.85 8.4 Q1.75 8.95 1.65 9.85 1.65 10.25 1.75 11.05 1.85 12.15 2.1 13.05 L2.15 13.15 Q2.85 14.85 4.45 16.05 L4.55 16.1 Q5.05 16.45 5.75 16.75 L7.0 17.2 Q7.25 17.2 7.6 17.35 L7.85 17.4 8.3 17.6 Q8.7 17.75 9.15 17.8 9.85 18.05 10.6 18.0 L10.65 18.0 10.9 18.05 11.25 18.1 12.15 18.3 13.05 18.3 Q13.3 18.1 13.45 17.85 L13.5 17.8 13.7 17.25 13.65 17.1 Q13.5 17.1 13.3 17.2 L13.25 17.1 12.8 17.2 11.85 17.5 11.25 17.55 10.25 17.5 10.35 17.55 9.85 17.5 9.8 17.45 Q8.7 17.25 7.7 16.65 7.05 16.35 6.65 16.0 L6.25 15.8 Q5.85 15.6 5.6 15.35 4.75 14.75 4.45 14.05 4.0 13.45 3.85 12.9 L3.75 12.35 Q3.65 11.8 3.55 11.0 3.3 9.65 3.35 8.65 3.4 8.4 3.45 8.05 L3.75 6.75 4.1 5.6 4.1 5.45 4.0 5.4 3.9 5.5 3.75 5.6 3.7 5.65 3.6 5.7 Q3.4 5.8 3.2 6.0 L2.95 6.2 2.25 6.9 Q2.25 6.95 2.25 6.9 M9.2 11.85 L9.25 12.45 9.25 12.75 Q9.3 13.15 9.35 13.5 L9.4 13.85 9.45 14.25 9.4 14.4 9.45 14.4 9.55 14.45 Q9.9 14.45 11.1 13.8 L11.3 13.0 11.75 11.5 11.7 11.4 Q11.45 11.55 10.8 11.7 L10.1 11.85 9.95 11.9 9.75 11.9 9.85 11.45 9.85 11.4 Q9.45 10.8 9.25 9.85 L8.85 7.75 Q8.6 6.5 8.2 5.8 7.7 5.1 6.95 4.75 L6.8 4.75 6.65 4.7 5.4 4.7 Q4.9 4.75 4.45 5.0 4.55 5.05 4.5 5.3 L4.15 6.15 4.0 6.5 3.7 8.15 5.0 7.5 5.95 7.0 6.05 7.05 6.1 7.1 6.1 7.2 Q6.15 7.3 6.15 7.6 L6.05 8.15 6.0 8.85 5.9 10.05 5.7 11.55 5.8 11.5 5.75 11.55 5.75 11.6 Q6.9 10.85 7.45 10.45 8.05 10.05 8.6 9.95 L8.75 9.9 Q9.0 10.8 9.15 11.25 L9.2 11.85 M14.25 13.4 L13.6 13.8 Q13.55 14.5 13.35 14.9 13.2 15.15 13.2 15.3 13.2 15.5 13.2 15.4 L13.65 15.1 Q13.95 14.45 14.25 13.45 L14.25 13.4 M12.75 15.1 L12.9 14.7 13.15 14.1 13.35 13.35 13.4 13.0 13.4 12.9 13.0 13.1 Q12.4 13.6 11.35 14.15 L11.0 14.35 10.0 14.85 9.85 14.85 Q9.6 14.9 9.5 14.9 L9.35 14.9 9.25 14.85 Q9.15 14.85 9.05 14.65 9.1 13.9 8.95 12.5 L8.9 11.9 Q8.85 11.2 8.75 10.85 L8.65 10.35 8.55 10.4 8.4 10.45 Q8.05 10.6 7.5 10.95 7.05 11.15 6.5 11.55 L5.7 12.1 5.55 12.1 5.45 12.05 5.4 12.0 5.35 12.0 Q5.3 11.95 5.3 11.85 5.25 11.75 5.25 11.6 L5.45 10.5 Q5.6 9.4 5.7 8.6 5.7 8.1 5.65 7.85 L5.7 7.7 5.7 7.45 Q5.35 7.6 3.85 8.55 L3.8 8.55 3.8 8.6 3.65 8.65 3.65 9.05 3.65 9.5 Q3.65 9.7 3.65 9.9 3.65 10.65 3.8 11.4 3.8 12.0 3.85 12.3 L3.9 12.6 Q4.15 13.45 5.0 14.4 L5.6 14.95 5.95 15.25 6.05 15.25 Q6.55 15.8 7.9 16.4 L7.95 16.4 Q9.65 17.2 11.25 17.15 L11.5 17.15 11.65 17.1 12.05 17.0 12.3 16.95 12.75 16.8 13.1 16.75 13.9 16.6 14.3 15.95 14.55 15.55 14.55 15.5 14.95 14.65 15.0 14.6 14.9 14.65 14.55 14.9 14.0 15.25 13.95 15.3 13.25 15.7 13.15 15.8 13.0 15.8 13.0 15.85 12.7 15.9 Q12.6 15.9 12.55 15.85 L12.5 15.8 12.5 15.65 12.75 15.1 M11.05 4.75 L11.1 4.8 11.1 4.85 11.05 4.75 M11.6 17.05 L11.6 17.0 11.65 17.0 11.6 17.05" fill="#111111" fill-rule="evenodd" stroke="none"/>
      <path d="M9.85 11.4 L9.85 11.45 9.75 11.9 9.95 11.9 10.1 11.85 10.8 11.7 Q11.45 11.55 11.7 11.4 L11.75 11.5 11.3 13.0 11.1 13.8 Q9.9 14.45 9.55 14.45 L9.45 14.4 9.4 14.4 9.45 14.25 9.4 13.85 9.35 13.5 Q9.3 13.15 9.25 12.75 L9.25 12.45 9.2 11.85 9.8 11.75 9.85 11.4 M14.25 13.4 L14.25 13.45 Q13.95 14.45 13.65 15.1 L13.2 15.4 Q13.2 15.5 13.2 15.3 13.2 15.15 13.35 14.9 13.55 14.5 13.6 13.8 L14.25 13.4" fill="#596921" fill-rule="evenodd" stroke="none"/>
      <path d="M9.85 11.4 L9.8 11.75 9.2 11.85 9.15 11.25 Q9.0 10.8 8.75 9.9 L8.6 9.95 Q8.05 10.05 7.45 10.45 6.9 10.85 5.75 11.6 L5.75 11.55 5.8 11.5 5.7 11.55 5.9 10.05 6.0 8.85 6.05 8.15 6.15 7.6 Q6.15 7.3 6.1 7.2 L6.1 7.1 6.05 7.05 5.95 7.0 5.0 7.5 3.7 8.15 4.0 6.5 4.15 6.15 4.5 5.3 Q4.55 5.05 4.45 5.0 4.9 4.75 5.4 4.7 L6.65 4.7 6.8 4.75 6.95 4.75 Q7.7 5.1 8.2 5.8 8.6 6.5 8.85 7.75 L9.25 9.85 Q9.45 10.8 9.85 11.4" fill="#003300" fill-rule="evenodd" stroke="none"/>
      <path d="M3.6 5.7 L3.7 5.65 3.75 5.6 3.75 5.65 3.65 5.7 3.5 5.8 3.6 5.7 M3.65 9.05 L3.65 8.65 3.8 8.6 3.8 8.55 3.85 8.55 Q5.35 7.6 5.7 7.45 L5.7 7.7 5.65 7.85 Q5.7 8.1 5.7 8.6 5.6 9.4 5.45 10.5 L5.25 11.6 Q5.25 11.75 5.3 11.85 5.3 11.95 5.35 12.0 L5.4 12.0 5.45 12.05 5.55 12.1 5.7 12.1 6.5 11.55 Q7.05 11.15 7.5 10.95 8.05 10.6 8.4 10.45 L8.55 10.4 8.65 10.35 8.75 10.85 Q8.85 11.2 8.9 11.9 L8.95 12.5 Q9.1 13.9 9.05 14.65 9.15 14.85 9.25 14.85 L9.35 14.9 9.5 14.9 Q9.6 14.9 9.85 14.85 L10.0 14.85 11.0 14.35 11.35 14.15 Q12.4 13.6 13.0 13.1 L13.4 12.9 13.4 13.0 13.35 13.35 13.15 14.1 12.9 14.7 12.75 15.1 12.75 14.85 Q12.7 14.6 12.55 14.5 L12.3 14.45 Q11.75 14.45 11.1 14.75 L10.9 14.85 10.75 14.9 10.35 15.1 9.65 15.4 8.95 15.35 Q8.8 15.0 8.75 14.25 L8.75 13.0 Q8.75 12.35 8.65 11.95 8.45 11.4 8.0 11.4 7.5 11.4 6.5 12.0 5.5 12.65 5.15 12.65 5.05 12.65 4.95 12.35 4.85 12.1 4.85 11.95 4.9 11.2 5.15 10.25 5.4 9.3 5.4 9.05 5.5 7.95 4.4 8.55 4.0 8.75 3.65 9.05 M12.55 15.85 Q12.6 15.9 12.7 15.9 L13.0 15.85 13.0 15.8 13.15 15.8 13.25 15.7 13.95 15.3 14.0 15.25 14.55 14.9 14.9 14.65 15.0 14.6 14.95 14.65 14.55 15.5 Q13.8 16.35 13.1 16.75 L12.75 16.8 12.3 16.95 12.05 17.0 12.35 16.35 12.55 15.85" fill="#d1e492" fill-rule="evenodd" stroke="none"/>
      <path d="M2.0 7.45 L2.1 7.25 2.25 6.9 Q2.25 6.95 2.25 6.9 L2.95 6.2 3.2 6.0 Q3.0 6.45 2.9 6.85 L2.75 7.45 2.65 8.15 Q2.5 9.0 2.45 9.55 2.35 11.15 2.75 12.6 3.3 14.6 4.75 15.5 L6.85 16.85 7.85 17.4 7.6 17.35 Q7.25 17.2 7.0 17.2 L5.75 16.75 Q5.05 16.45 4.55 16.1 L4.45 16.05 Q2.85 14.85 2.15 13.15 L2.1 13.05 Q1.85 12.15 1.75 11.05 1.65 10.25 1.65 9.85 1.75 8.95 1.85 8.4 L1.85 8.15 2.1 7.2 2.1 7.3 2.0 7.45" fill="#009900" fill-rule="evenodd" stroke="none"/>
      <path d="M3.2 6.0 Q3.4 5.8 3.6 5.7 L3.5 5.8 3.65 5.7 3.75 5.65 3.75 5.6 3.9 5.5 4.0 5.4 4.1 5.45 4.1 5.6 3.75 6.75 3.45 8.05 Q3.4 8.4 3.35 8.65 3.3 9.65 3.55 11.0 3.65 11.8 3.75 12.35 L3.85 12.9 Q4.0 13.45 4.45 14.05 4.75 14.75 5.6 15.35 5.85 15.6 6.25 15.8 L6.65 16.0 Q7.05 16.35 7.7 16.65 8.7 17.25 9.8 17.45 L9.85 17.5 10.35 17.55 10.25 17.5 11.25 17.55 11.85 17.5 12.8 17.2 13.25 17.1 13.3 17.2 Q13.5 17.1 13.65 17.1 L13.7 17.25 13.5 17.8 13.45 17.85 Q13.3 18.1 13.05 18.3 L12.15 18.3 11.25 18.1 10.9 18.05 10.65 18.0 10.6 18.0 Q9.85 18.05 9.15 17.8 8.7 17.75 8.3 17.6 L7.85 17.4 6.85 16.85 4.75 15.5 Q3.3 14.6 2.75 12.6 2.35 11.15 2.45 9.55 2.5 9.0 2.65 8.15 L2.75 7.45 2.9 6.85 Q3.0 6.45 3.2 6.0" fill="#006600" fill-rule="evenodd" stroke="none"/>
      <path d="M3.65 9.05 Q4.0 8.75 4.4 8.55 5.5 7.95 5.4 9.05 5.4 9.3 5.15 10.25 4.9 11.2 4.85 11.95 4.85 12.1 4.95 12.35 5.05 12.65 5.15 12.65 5.5 12.65 6.5 12.0 7.5 11.4 8.0 11.4 8.45 11.4 8.65 11.95 8.75 12.35 8.75 13.0 L8.75 14.25 Q8.8 15.0 8.95 15.35 L9.65 15.4 10.35 15.1 10.75 14.9 10.9 14.85 11.1 14.75 Q11.75 14.45 12.3 14.45 L12.55 14.5 Q12.7 14.6 12.75 14.85 L12.75 15.1 12.5 15.65 12.5 15.8 12.55 15.85 12.35 16.35 12.05 17.0 11.65 17.1 11.5 17.15 11.25 17.15 Q9.65 17.2 7.95 16.4 L7.9 16.4 Q6.55 15.8 6.05 15.25 L5.95 15.25 5.6 14.95 5.0 14.4 Q4.15 13.45 3.9 12.6 L3.85 12.3 Q3.8 12.0 3.8 11.4 3.65 10.65 3.65 9.9 3.65 9.7 3.65 9.5 L3.65 9.05 M14.55 15.5 L14.55 15.55 14.3 15.95 13.9 16.6 13.1 16.75 Q13.8 16.35 14.55 15.5 M11.6 17.05 L11.65 17.0 11.6 17.0 11.6 17.05" fill="#abc74e" fill-rule="evenodd" stroke="none"/>
    </g>
  </defs>
</svg>
