<?xml version="1.0" encoding="UTF-8" standalone="no"?>
<svg xmlns:ffdec="https://www.free-decompiler.com/flash" xmlns:xlink="http://www.w3.org/1999/xlink" ffdec:objectType="frame" height="53.6px" width="49.15px" xmlns="http://www.w3.org/2000/svg">
  <g transform="matrix(1.0, 0.0, 0.0, 1.0, 9.2, 2.45)">
    <clipPath id="clipPath0" transform="matrix(1.0, 0.0, 0.0, 1.0, 0.0, 0.0)">
      <path d="M32.0 7.5 L32.0 40.5 Q32.0 48.0 26.75 48.0 L5.25 48.0 Q0.0 48.0 0.0 40.5 L0.0 7.5 Q0.0 0.0 5.25 0.0 L26.75 0.0 Q32.0 0.0 32.0 7.5" fill="#ff0000" fill-rule="evenodd" stroke="none"/>
    </clipPath>
    <g clip-path="url(#clipPath0)">
      <use ffdec:characterId="528" height="53.6" transform="matrix(1.0, 0.0, 0.0, 1.0, -9.2, -2.45)" width="49.15" xlink:href="#shape1"/>
      <filter id="filter0">
        <feColorMatrix in="SourceGraphic" result="filterResult0" type="matrix" values="0.41223246 1.4423696 -0.8546021 0.0 -0.28627452 0.07373914 0.5700474 0.35621348 0.0 -0.28627452 1.0035975 0.012587428 -0.016184926 0.0 -0.28627452 0.0 0.0 0.0 1.0 0.0"/>
      </filter>
      <use ffdec:characterId="530" filter="url(#filter0)" height="48.0" transform="matrix(0.8937, 0.0028, -0.0032, 1.0229, -5.7, -0.2)" width="48.0" xlink:href="#sprite0"/>
      <use ffdec:characterId="531" height="48.45" transform="matrix(1.0, 0.0, 0.0, 1.0, -0.25, 0.05)" width="32.7" xlink:href="#shape3"/>
    </g>
  </g>
  <defs>
    <g id="shape1" transform="matrix(1.0, 0.0, 0.0, 1.0, 9.2, 2.45)">
      <path d="M37.85 28.95 Q42.05 35.1 37.75 38.05 L20.05 50.2 Q15.7 53.15 11.5 47.0 L-7.1 19.8 Q-11.35 13.6 -7.0 10.65 L10.7 -1.5 Q15.0 -4.45 19.25 1.75 L37.85 28.95" fill="#ff0000" fill-rule="evenodd" stroke="none"/>
    </g>
    <g id="sprite0" transform="matrix(1.0, 0.0, 0.0, 1.0, 0.0, 0.0)">
      <use ffdec:characterId="529" height="48.0" transform="matrix(1.0, 0.0, 0.0, 1.0, 0.0, 0.0)" width="48.0" xlink:href="#shape2"/>
    </g>
    <g id="shape2" transform="matrix(1.0, 0.0, 0.0, 1.0, 0.0, 0.0)">
      <path d="M37.9 22.6 L38.1 22.25 37.9 22.6" fill="#5c5c5c" fill-rule="evenodd" stroke="none"/>
      <path d="M0.0 28.5 L0.0 28.15 0.15 27.85 0.0 28.5 M47.15 22.65 L47.15 22.6 47.25 22.4 47.15 22.65 M47.2 28.95 L47.2 28.9 47.45 28.55 47.4 28.65 47.2 28.95 M46.95 32.05 L46.95 31.9 47.35 31.5 47.5 31.5 46.95 32.05 M29.7 45.8 L29.55 45.9 29.7 45.8" fill="#272727" fill-rule="evenodd" stroke="none"/>
      <path d="M45.7 16.4 L45.9 15.3 45.95 15.45 45.7 16.4 M47.15 22.6 L47.15 22.65 47.05 22.85 47.0 22.95 47.15 22.6 M47.2 28.9 L47.2 28.95 46.7 29.6 46.4 29.8 46.4 29.7 47.2 28.9 M44.55 34.1 L44.6 33.9 46.95 31.9 46.95 32.05 45.45 33.35 44.55 34.1 M29.7 45.8 L30.3 45.15 30.85 44.9 29.7 45.8" fill="#3b3b3b" fill-rule="evenodd" stroke="none"/>
      <path d="M44.6 33.9 L44.55 34.1 40.05 37.35 40.1 37.3 44.6 33.9" fill="#4d4d4d" fill-rule="evenodd" stroke="none"/>
      <path d="M0.2 5.35 Q0.4 4.2 0.95 3.3 L0.55 4.35 0.2 5.35 M3.95 0.65 Q4.1 0.55 4.35 0.5 L4.75 0.4 Q4.35 0.75 4.15 0.75 L3.95 0.65" fill="#161616" fill-rule="evenodd" stroke="none"/>
      <path d="M40.1 37.3 L40.05 37.35 39.25 37.9 40.1 37.3 M40.9 31.85 L39.75 33.0 39.6 33.1 40.9 31.85 M28.1 41.35 L27.9 41.45 27.7 41.55 28.1 41.35" fill="#555555" fill-rule="evenodd" stroke="none"/>
      <path d="M27.25 35.25 L27.1 35.3 26.65 35.25 27.0 35.25 27.25 35.25 M26.5 35.25 L26.35 35.3 26.4 35.25 26.5 35.25 M18.6 23.15 L19.0 23.7 18.6 23.35 18.6 23.25 18.6 23.15 M17.15 26.25 L17.2 26.2 17.3 26.35 17.15 26.25 M37.05 26.1 L37.25 25.85 37.65 25.4 37.1 26.05 37.05 26.1 M37.9 22.6 L37.85 22.65 37.8 22.8 37.75 22.8 37.9 22.6" fill="#646464" fill-rule="evenodd" stroke="none"/>
      <path d="M22.75 35.5 L22.6 35.5 22.75 35.4 22.75 35.5 M22.65 33.75 L22.8 33.75 22.65 33.75 M22.1 40.15 L22.5 39.8 22.65 39.8 22.6 39.9 Q22.2 40.05 22.1 40.15" fill="#1ad310" fill-rule="evenodd" stroke="none"/>
      <path d="M23.2 35.5 L22.75 35.5 22.75 35.4 22.8 35.4 23.0 35.45 23.2 35.5 M22.65 39.8 L22.8 39.8 22.6 39.9 22.65 39.8" fill="#15ac0d" fill-rule="evenodd" stroke="none"/>
      <path d="M48.0 38.4 L48.0 40.5 Q48.0 42.05 47.65 43.35 L47.3 44.35 46.75 45.35 46.1 46.1 Q44.1 48.0 40.1 48.0 L33.7 48.0 37.55 44.95 43.15 40.9 Q46.15 38.9 48.0 38.4 M0.0 28.15 L0.0 7.5 0.2 5.35 0.55 4.35 0.95 3.3 Q1.9 1.45 3.95 0.65 L4.15 0.75 Q4.35 0.75 4.75 0.4 L5.55 0.2 6.75 0.05 6.75 0.8 Q6.75 1.45 5.15 4.3 3.55 7.15 3.5 7.9 L2.85 14.85 2.0 21.85 Q1.35 25.25 0.15 27.85 L0.0 28.15 M35.15 19.35 L35.65 18.45 35.2 19.3 35.15 19.35 M22.55 33.7 L22.65 33.75 22.55 33.7" fill="#000000" fill-rule="evenodd" stroke="none"/>
      <path d="M35.15 19.35 L35.05 19.4 Q33.95 20.3 33.8 20.9 L32.95 21.6 29.35 25.0 27.0 25.35 Q23.45 25.35 21.05 22.4 19.25 20.15 19.25 18.5 19.25 13.4 22.2 9.05 24.85 5.2 28.75 3.4 32.6 1.65 35.3 3.0 38.25 4.45 38.25 9.2 38.25 12.4 36.0 17.6 L35.65 18.45 35.15 19.35" fill="#c9fdac" fill-rule="evenodd" stroke="none"/>
      <path d="M18.6 23.15 L18.15 21.0 Q17.65 19.5 17.65 18.55 17.65 13.85 21.4 8.1 26.0 1.05 32.35 1.05 37.8 1.05 39.5 4.85 40.15 6.35 40.15 9.5 40.15 11.85 39.3 14.95 38.45 18.15 37.15 20.1 L34.95 22.6 32.3 25.5 Q30.75 27.35 27.45 28.2 23.75 27.75 22.35 27.05 L20.3 25.1 19.0 23.7 18.6 23.15 M35.65 18.45 L36.0 17.6 Q38.25 12.4 38.25 9.2 38.25 4.45 35.3 3.0 32.6 1.65 28.75 3.4 24.85 5.2 22.2 9.05 19.25 13.4 19.25 18.5 19.25 20.15 21.05 22.4 23.45 25.35 27.0 25.35 L29.35 25.0 32.95 21.6 33.8 20.9 Q33.95 20.3 35.05 19.4 L35.15 19.35 35.2 19.3 35.65 18.45" fill="#b9fd95" fill-rule="evenodd" stroke="none"/>
      <path d="M31.5 0.0 L33.8 0.0 Q39.0 0.45 40.75 5.05 41.55 7.15 41.55 11.3 41.55 16.6 38.1 22.25 L37.9 22.6 37.75 22.8 Q37.15 22.8 36.1 23.55 L33.75 25.65 Q33.5 27.05 32.55 27.95 30.8 29.65 25.9 29.65 L23.35 29.35 19.8 26.0 Q17.95 24.2 16.95 23.8 L16.9 23.55 Q16.9 23.05 17.05 22.85 16.5 19.1 16.5 17.75 16.5 13.15 20.75 7.15 25.45 0.55 31.5 0.0 M19.0 23.7 L20.3 25.1 22.35 27.05 Q23.75 27.75 27.45 28.2 30.75 27.35 32.3 25.5 L34.95 22.6 37.15 20.1 Q38.45 18.15 39.3 14.95 40.15 11.85 40.15 9.5 40.15 6.35 39.5 4.85 37.8 1.05 32.35 1.05 26.0 1.05 21.4 8.1 17.65 13.85 17.65 18.55 17.65 19.5 18.15 21.0 L18.6 23.15 18.6 23.25 18.6 23.35 19.0 23.7" fill="#9ffc6d" fill-rule="evenodd" stroke="none"/>
      <path d="M25.8 0.0 L31.5 0.0 Q25.45 0.55 20.75 7.15 16.5 13.15 16.5 17.75 16.5 19.1 17.05 22.85 16.9 23.05 16.9 23.55 L16.95 23.8 Q17.95 24.2 19.8 26.0 L23.35 29.35 25.9 29.65 Q30.8 29.65 32.55 27.95 33.5 27.05 33.75 25.65 L36.1 23.55 Q37.15 22.8 37.75 22.8 L37.8 22.8 37.85 22.65 37.9 22.6 38.1 22.25 Q41.55 16.6 41.55 11.3 41.55 7.15 40.75 5.05 39.0 0.45 33.8 0.0 L38.2 0.0 40.4 2.9 Q43.15 7.05 43.15 10.5 43.15 15.7 40.0 21.75 L37.65 25.4 37.25 25.85 37.05 26.1 Q36.4 26.25 35.3 27.15 32.7 29.2 32.55 29.75 29.1 31.65 24.6 31.85 23.65 31.15 21.5 29.95 19.35 28.8 19.0 28.0 18.5 27.15 17.3 26.35 L17.2 26.2 17.15 26.25 16.85 26.05 16.2 25.75 15.6 22.3 Q14.9 19.15 14.9 17.7 14.9 14.6 15.2 13.05 15.6 11.1 17.0 8.1 18.95 4.0 24.15 0.95 L25.8 0.0" fill="#8bfb4f" fill-rule="evenodd" stroke="none"/>
      <path d="M23.25 0.0 L25.8 0.0 24.15 0.95 Q18.95 4.0 17.0 8.1 15.6 11.1 15.2 13.05 14.9 14.6 14.9 17.7 14.9 19.15 15.6 22.3 L16.2 25.75 16.85 26.05 17.15 26.25 17.3 26.35 Q18.5 27.15 19.0 28.0 19.35 28.8 21.5 29.95 23.65 31.15 24.6 31.85 29.1 31.65 32.55 29.75 32.7 29.2 35.3 27.15 36.4 26.25 37.05 26.1 L37.1 26.05 37.65 25.4 40.0 21.75 Q43.15 15.7 43.15 10.5 43.15 7.05 40.4 2.9 L38.2 0.0 39.55 0.0 39.5 0.25 42.05 4.35 Q44.55 9.1 44.55 11.75 42.4 21.35 40.8 23.85 L38.8 27.0 Q37.4 28.85 35.85 29.85 32.85 31.75 30.85 32.25 L25.4 33.55 23.65 33.5 23.9 33.75 23.6 33.8 22.8 33.75 22.65 33.75 22.55 33.7 Q19.85 32.45 17.95 30.55 16.25 28.8 15.0 26.15 L15.15 25.85 14.8 24.3 Q13.75 19.8 13.75 15.8 13.75 13.1 13.9 12.15 14.2 10.6 15.4 8.0 16.05 6.65 19.8 3.4 23.25 0.4 23.25 0.0" fill="#66fa16" fill-rule="evenodd" stroke="none"/>
      <path d="M20.65 0.0 L23.25 0.0 Q23.25 0.4 19.8 3.4 16.05 6.65 15.4 8.0 14.2 10.6 13.9 12.15 13.75 13.1 13.75 15.8 13.75 19.8 14.8 24.3 L15.15 25.85 15.0 26.15 Q16.25 28.8 17.95 30.55 19.85 32.45 22.55 33.7 L22.65 33.75 22.8 33.75 23.6 33.8 23.9 33.75 23.65 33.5 25.4 33.55 30.85 32.25 Q32.85 31.75 35.85 29.85 37.4 28.85 38.8 27.0 L40.8 23.85 Q42.4 21.35 44.55 11.75 44.55 9.1 42.05 4.35 L39.5 0.25 39.55 0.0 40.1 0.0 40.55 0.0 Q44.45 3.45 45.5 8.25 L45.8 13.7 45.9 15.3 45.7 16.4 Q44.5 20.8 41.25 25.55 L38.8 29.0 Q37.3 30.85 35.0 32.65 34.1 33.4 32.25 33.9 L28.25 35.0 27.25 35.25 27.0 35.25 26.65 35.25 26.5 35.25 26.4 35.25 26.35 35.3 25.1 35.55 23.2 35.5 23.0 35.45 22.8 35.4 22.75 35.4 22.6 35.5 21.5 35.6 20.55 35.25 19.4 34.85 16.2 31.95 15.9 31.65 15.05 30.45 14.0 29.5 13.5 26.85 Q12.95 24.5 12.8 22.55 L12.35 15.05 Q12.35 10.1 16.5 5.1 L20.65 0.1 20.65 0.0" fill="#4dd204" fill-rule="evenodd" stroke="none"/>
      <path d="M45.35 1.35 L45.8 1.7 46.85 2.9 47.3 3.7 45.35 1.35 M48.0 9.15 L48.0 13.6 47.5 17.55 46.85 18.7 Q46.25 19.95 46.25 20.4 L46.25 20.45 45.55 21.6 Q44.1 24.05 43.95 24.85 L38.6 31.75 Q36.65 34.15 30.3 36.7 L22.8 39.8 22.65 39.8 22.5 39.8 22.1 40.15 22.05 40.15 Q20.8 41.0 17.45 45.75 L15.9 48.0 7.9 48.0 Q5.1 48.0 3.3 47.05 5.35 44.55 7.8 39.7 11.35 32.65 11.35 29.2 L10.65 17.85 Q10.65 11.75 13.9 5.75 L17.1 0.0 18.3 0.0 18.6 0.0 20.65 0.0 20.65 0.1 16.5 5.1 Q12.35 10.1 12.35 15.05 L12.8 22.55 Q12.95 24.5 13.5 26.85 L14.0 29.5 15.05 30.45 15.9 31.65 16.2 31.95 19.4 34.85 20.55 35.25 21.5 35.6 22.6 35.5 22.75 35.5 23.2 35.5 25.1 35.55 26.35 35.3 26.5 35.25 26.65 35.25 27.1 35.3 27.25 35.25 28.25 35.0 32.25 33.9 Q34.1 33.4 35.0 32.65 37.3 30.85 38.8 29.0 L41.25 25.55 Q44.5 20.8 45.7 16.4 L45.95 15.45 45.9 15.3 45.8 13.7 45.5 8.25 Q44.45 3.45 40.55 0.0 L41.85 0.1 Q44.05 1.95 45.7 4.25 47.6 6.9 48.0 9.15" fill="#40af03" fill-rule="evenodd" stroke="none"/>
      <path d="M47.3 3.7 Q48.0 5.25 48.0 7.5 L48.0 9.15 Q47.6 6.9 45.7 4.25 44.05 1.95 41.85 0.1 L42.25 0.2 43.7 0.55 45.35 1.35 47.3 3.7 M48.0 13.6 L48.0 20.8 47.6 21.6 47.5 21.9 47.25 22.35 47.25 22.4 47.15 22.6 47.0 22.95 44.8 26.55 Q42.9 29.7 40.9 31.85 L39.6 33.1 29.85 38.0 Q20.9 42.5 20.85 43.95 L20.35 44.4 Q18.25 46.4 17.15 48.0 L15.9 48.0 17.45 45.75 Q20.8 41.0 22.05 40.15 L22.1 40.15 Q22.2 40.05 22.6 39.9 L22.8 39.8 30.3 36.7 Q36.65 34.15 38.6 31.75 L43.95 24.85 Q44.1 24.05 45.55 21.6 L46.25 20.45 46.25 20.4 Q46.25 19.95 46.85 18.7 L47.5 17.55 48.0 13.6 M3.3 47.05 L2.45 46.55 Q4.5 44.8 6.95 38.4 10.0 30.35 10.0 26.3 L9.5 17.5 Q9.5 11.65 12.75 5.75 L16.0 0.0 17.1 0.0 13.9 5.75 Q10.65 11.75 10.65 17.85 L11.35 29.2 Q11.35 32.65 7.8 39.7 5.35 44.55 3.3 47.05" fill="#379902" fill-rule="evenodd" stroke="none"/>
      <path d="M48.0 20.8 L48.0 24.25 47.65 24.75 44.25 30.1 Q41.2 33.85 35.5 37.0 L31.3 39.5 Q29.9 40.2 28.1 41.35 L27.7 41.55 Q26.45 41.7 24.55 43.3 L24.2 43.65 Q22.55 44.75 22.05 45.6 L19.2 48.0 17.15 48.0 Q18.25 46.4 20.35 44.4 L20.85 43.95 Q20.9 42.5 29.85 38.0 L39.6 33.1 39.75 33.0 40.9 31.85 Q42.9 29.7 44.8 26.55 L47.0 22.95 47.05 22.85 47.15 22.65 47.25 22.4 47.25 22.35 47.5 21.9 47.6 21.6 48.0 20.8 M2.45 46.55 L1.7 45.85 Q4.95 41.75 6.7 37.3 8.7 32.2 8.6 27.15 L8.6 15.25 Q9.2 10.8 12.4 4.8 13.85 2.05 15.25 0.0 L16.0 0.0 12.75 5.75 Q9.5 11.65 9.5 17.5 L10.0 26.3 Q10.0 30.35 6.95 38.4 4.5 44.8 2.45 46.55" fill="#2f8202" fill-rule="evenodd" stroke="none"/>
      <path d="M48.0 24.25 L48.0 27.75 47.95 27.8 47.45 28.55 47.2 28.9 46.4 29.7 46.4 29.8 Q45.9 31.65 39.05 36.25 33.8 39.75 31.15 40.85 L30.6 41.15 Q29.35 41.5 27.1 42.9 23.65 45.05 22.5 46.5 L20.6 48.0 19.2 48.0 22.05 45.6 Q22.55 44.75 24.2 43.65 L24.55 43.3 Q26.45 41.7 27.7 41.55 L27.9 41.45 28.1 41.35 Q29.9 40.2 31.3 39.5 L35.5 37.0 Q41.2 33.85 44.25 30.1 L47.65 24.75 48.0 24.25 M1.7 45.85 L1.4 45.5 Q2.7 43.9 4.3 40.25 7.0 34.1 7.5 29.75 L7.5 17.4 7.75 16.2 7.75 15.65 Q7.75 13.65 9.4 9.65 L9.8 8.25 11.3 5.45 14.15 0.0 15.25 0.0 Q13.85 2.05 12.4 4.8 9.2 10.8 8.6 15.25 L8.6 27.15 Q8.7 32.2 6.7 37.3 4.95 41.75 1.7 45.85" fill="#236101" fill-rule="evenodd" stroke="none"/>
      <path d="M48.0 27.75 L48.0 31.0 47.5 31.5 47.35 31.5 46.95 31.9 44.6 33.9 40.1 37.3 39.25 37.9 37.15 39.25 Q31.85 42.5 28.25 45.1 25.95 46.7 24.45 48.0 L20.6 48.0 22.5 46.5 Q23.65 45.05 27.1 42.9 29.35 41.5 30.6 41.15 L31.15 40.85 Q33.8 39.75 39.05 36.25 45.9 31.65 46.4 29.8 L46.7 29.6 47.2 28.95 47.4 28.65 47.45 28.55 47.95 27.8 48.0 27.75 M1.4 45.5 L0.65 44.15 1.9 41.6 4.65 34.9 Q5.75 32.3 6.0 28.9 L6.3 23.0 6.8 17.1 Q7.2 13.75 8.15 11.0 L11.15 4.25 13.0 0.0 14.15 0.0 11.3 5.45 9.8 8.25 9.4 9.65 Q7.75 13.65 7.75 15.65 L7.75 16.2 7.5 17.4 7.5 29.75 Q7.0 34.1 4.3 40.25 2.7 43.9 1.4 45.5" fill="#1c4e01" fill-rule="evenodd" stroke="none"/>
      <path d="M48.0 31.0 L48.0 32.85 46.65 33.85 45.9 34.7 Q44.55 35.45 43.05 36.5 L36.0 41.55 34.8 42.4 Q33.95 42.35 30.85 44.9 L30.3 45.15 29.7 45.8 29.55 45.9 28.55 46.75 27.15 48.0 24.45 48.0 Q25.95 46.7 28.25 45.1 31.85 42.5 37.15 39.25 L39.25 37.9 40.05 37.35 44.55 34.1 45.45 33.35 46.95 32.05 47.5 31.5 48.0 31.0 M0.65 44.15 Q0.0 42.65 0.0 40.6 1.75 37.5 2.85 33.65 3.95 29.85 4.9 22.4 5.75 14.5 6.3 11.15 6.8 8.1 9.25 3.8 L11.6 0.0 13.0 0.0 11.15 4.25 8.15 11.0 Q7.2 13.75 6.8 17.1 L6.3 23.0 6.0 28.9 Q5.75 32.3 4.65 34.9 L1.9 41.6 0.65 44.15" fill="#163f01" fill-rule="evenodd" stroke="none"/>
      <path d="M48.0 32.85 L48.0 35.8 Q47.05 36.15 45.85 37.0 44.15 38.2 43.8 38.75 41.9 39.85 39.4 41.5 33.25 45.6 30.7 48.0 L27.15 48.0 28.55 46.75 29.55 45.9 29.7 45.8 30.85 44.9 Q33.95 42.35 34.8 42.4 L36.0 41.55 43.05 36.5 Q44.55 35.45 45.9 34.7 L46.65 33.85 48.0 32.85 M0.0 40.6 L0.0 40.5 0.0 36.25 Q1.15 33.95 2.1 30.95 3.5 26.3 3.5 22.55 3.5 14.8 5.95 6.8 L8.1 0.0 11.6 0.0 9.25 3.8 Q6.8 8.1 6.3 11.15 5.75 14.5 4.9 22.4 3.95 29.85 2.85 33.65 1.75 37.5 0.0 40.6" fill="#123201" fill-rule="evenodd" stroke="none"/>
      <path d="M48.0 35.8 L48.0 38.4 Q46.15 38.9 43.15 40.9 L37.55 44.95 33.7 48.0 30.7 48.0 Q33.25 45.6 39.4 41.5 41.9 39.85 43.8 38.75 44.15 38.2 45.85 37.0 47.05 36.15 48.0 35.8 M0.0 36.25 L0.0 28.5 0.15 27.85 Q1.35 25.25 2.0 21.85 L2.85 14.85 3.5 7.9 Q3.55 7.15 5.15 4.3 6.75 1.45 6.75 0.8 L6.75 0.05 7.8 0.0 7.9 0.0 8.1 0.0 5.95 6.8 Q3.5 14.8 3.5 22.55 3.5 26.3 2.1 30.95 1.15 33.95 0.0 36.25" fill="#0c1f01" fill-rule="evenodd" stroke="none"/>
    </g>
    <g id="shape3" transform="matrix(1.0, 0.0, 0.0, 1.0, 0.25, -0.05)">
      <path d="M32.45 0.8 L32.45 2.3 31.65 3.8 31.55 3.85 31.5 3.9 31.55 3.75 32.35 1.65 32.2 1.8 32.1 1.65 Q32.0 1.4 32.45 0.8 M32.45 7.05 L32.45 8.4 29.75 8.7 29.2 8.8 28.05 8.95 27.9 8.95 27.6 9.0 27.45 9.05 25.85 9.25 25.25 9.3 24.1 9.3 23.35 9.45 22.9 9.7 22.75 9.85 22.5 10.5 22.5 10.55 22.5 11.25 22.35 11.7 22.15 12.05 22.1 12.1 22.05 12.2 21.55 12.6 21.5 12.65 21.4 12.75 20.55 13.55 20.6 13.65 Q19.35 15.55 16.65 16.3 L17.3 16.55 20.7 16.15 20.85 16.1 21.0 16.05 21.75 15.8 23.5 14.95 24.15 14.55 24.65 14.25 24.75 14.2 25.4 13.75 Q26.8 12.9 28.15 12.3 L28.35 12.2 Q28.6 12.05 28.8 12.0 L28.9 12.0 Q29.65 11.65 30.35 11.45 L30.8 11.3 30.9 11.3 31.45 11.15 31.65 11.1 32.45 10.9 32.45 12.55 32.45 13.85 31.9 13.15 31.65 12.85 Q31.25 14.0 29.8 15.55 L28.95 16.35 28.2 17.05 27.8 18.05 26.25 19.5 Q26.15 19.7 25.55 19.95 L25.45 20.05 Q24.85 20.3 24.8 20.65 L24.8 21.85 24.55 23.85 24.35 24.25 23.8 25.4 22.75 26.55 22.55 27.8 22.65 30.35 22.55 30.95 23.3 30.0 24.2 28.35 24.45 27.75 25.45 25.5 25.55 24.55 25.6 24.45 Q25.6 23.75 25.75 23.5 L26.15 23.1 26.25 23.0 26.45 22.9 27.05 22.45 27.6 22.1 28.45 21.65 Q29.6 21.2 29.8 20.5 L29.85 20.25 29.85 20.05 Q30.15 19.05 30.1 17.0 L30.1 16.6 30.05 16.25 30.05 15.9 30.25 15.85 30.35 15.85 30.45 15.8 30.55 15.85 30.9 15.8 30.95 15.75 32.45 15.7 32.45 16.85 31.4 16.95 31.35 19.4 31.1 20.85 Q30.85 21.75 29.85 22.3 L27.15 23.75 26.3 26.4 Q24.45 31.65 21.8 33.1 21.2 34.25 20.8 34.35 L20.25 34.35 19.1 36.35 16.9 38.45 16.9 38.9 17.45 38.45 20.15 36.4 Q20.8 35.8 20.85 35.3 20.8 34.7 20.9 34.6 L21.0 34.5 20.9 34.5 21.3 34.15 Q21.75 33.7 22.5 33.6 L22.65 33.6 Q24.8 32.0 26.4 32.95 L26.5 32.95 Q27.8 33.1 28.35 33.65 29.05 34.15 29.4 35.35 L29.7 37.25 Q29.95 39.7 28.85 40.05 L28.45 39.9 28.4 39.65 28.2 38.3 28.1 38.35 Q27.5 38.5 27.05 37.7 L26.55 36.7 26.05 36.1 26.05 36.15 Q26.85 39.35 26.05 39.6 25.5 39.75 25.0 38.85 L24.55 37.75 24.3 37.55 23.95 37.1 23.55 36.8 23.4 36.7 23.0 36.95 21.65 37.9 20.85 39.1 21.95 39.0 23.1 38.6 24.2 38.65 Q24.35 39.2 23.7 39.95 L22.9 40.7 21.4 41.55 19.3 41.5 18.5 40.55 18.2 40.7 Q14.9 44.55 14.15 44.75 L13.15 44.7 13.05 44.35 12.8 43.15 11.9 43.8 Q11.0 44.05 10.7 43.4 L10.5 42.6 10.45 42.65 Q8.65 45.75 7.35 46.15 6.9 46.25 6.55 45.7 L6.45 46.1 6.0 48.5 2.8 48.5 3.6 46.45 4.65 42.8 4.25 42.1 4.0 41.2 4.0 41.1 3.6 42.7 Q2.85 45.65 1.4 48.5 L-0.25 48.5 -0.25 47.15 1.7 42.15 2.8 37.4 2.9 36.45 -0.25 36.35 -0.25 34.3 -0.05 34.35 Q1.1 35.55 1.9 35.3 L3.05 34.95 5.35 33.75 6.0 33.3 7.4 32.1 7.75 31.6 7.8 31.3 7.9 31.2 8.05 31.45 Q8.25 32.25 6.85 33.85 L5.15 35.4 5.05 36.15 4.95 36.75 4.95 37.4 4.95 37.65 Q4.85 39.25 5.0 40.7 L5.0 40.8 5.1 41.15 5.1 41.25 5.1 41.35 5.3 41.8 5.8 42.45 5.85 42.5 6.25 42.85 6.75 43.2 6.95 43.4 7.15 43.65 7.15 44.4 7.2 44.5 7.15 44.5 7.25 44.85 10.55 40.1 10.7 39.65 10.75 39.45 10.85 39.6 10.9 39.65 11.05 39.85 11.1 41.15 11.5 40.2 11.45 40.0 11.35 39.45 11.35 38.85 Q11.4 38.3 11.6 37.75 L11.65 37.7 11.4 37.35 10.9 36.65 10.65 38.15 10.1 39.8 9.7 40.4 9.7 40.5 9.6 40.65 7.55 43.2 7.3 43.45 7.45 43.2 8.05 41.9 8.15 41.7 8.75 40.45 8.75 40.4 8.8 40.2 8.65 37.7 8.4 37.25 8.15 36.85 Q7.9 35.95 8.15 35.15 L8.3 36.15 8.9 37.3 9.6 38.85 9.95 37.3 9.85 35.8 Q9.85 35.4 10.1 35.05 10.0 34.55 10.5 34.2 11.05 33.75 11.7 34.05 L11.65 33.75 11.55 33.15 Q11.65 32.75 12.4 32.5 13.25 32.25 14.0 33.05 14.15 32.7 14.95 33.25 16.3 34.1 16.75 35.6 L16.95 36.85 17.7 35.7 18.35 34.85 19.0 33.95 19.35 33.25 19.55 32.55 19.8 31.5 19.85 31.35 19.9 31.1 19.95 29.4 19.95 29.1 20.0 29.1 20.05 29.3 19.85 28.05 19.75 27.7 19.8 27.7 20.2 28.6 20.6 31.1 20.8 31.85 20.95 31.45 21.15 29.4 21.0 28.05 20.7 26.45 20.45 25.35 20.3 24.7 20.2 24.35 20.25 24.3 20.4 24.6 20.6 24.95 20.8 25.35 20.95 25.65 21.3 26.5 21.35 26.65 21.45 25.15 21.45 23.95 21.4 23.6 21.45 23.45 Q21.7 22.5 22.4 21.55 L22.6 21.15 22.3 21.4 21.25 22.0 20.6 22.3 18.3 23.15 20.65 21.65 Q20.95 21.4 21.35 21.1 L21.55 20.9 21.85 20.65 21.9 20.55 23.55 19.25 23.8 19.05 24.25 18.65 23.85 18.85 23.8 18.85 22.95 19.15 21.6 19.4 21.45 19.4 20.75 19.35 19.95 19.1 18.35 18.2 16.85 17.3 Q15.95 16.75 14.45 16.9 L14.15 16.8 13.8 16.85 13.0 17.3 12.9 17.3 12.4 17.65 12.35 17.65 12.25 17.55 Q12.1 17.15 13.25 16.65 L14.25 16.25 14.3 16.25 14.85 16.05 15.15 16.1 15.95 15.9 15.95 15.95 17.0 15.7 Q19.35 15.0 20.35 13.4 L20.05 13.6 18.65 14.45 Q17.15 14.9 15.55 13.95 14.25 13.2 14.1 12.55 L14.0 11.9 14.05 11.4 Q14.45 10.8 15.6 10.2 17.1 9.5 18.6 10.2 19.8 10.8 20.0 11.4 L20.1 12.2 20.2 13.0 20.25 13.05 20.4 12.7 Q20.5 12.55 20.7 12.5 21.0 11.7 20.8 11.0 L20.25 10.3 19.75 9.45 19.7 8.95 18.5 8.9 18.1 8.85 17.2 8.95 17.95 9.35 17.95 9.4 17.9 9.4 17.4 9.4 17.0 9.4 14.2 9.85 13.65 10.1 13.5 10.3 13.25 10.4 12.9 10.5 12.4 10.7 12.6 10.7 14.15 10.85 13.5 11.25 11.95 11.55 12.65 11.55 12.75 11.7 12.75 11.75 11.8 12.35 Q11.6 12.4 11.45 12.55 L11.3 12.65 Q10.3 13.25 9.55 13.8 L8.5 14.65 7.65 15.45 7.7 15.45 8.7 14.9 8.8 14.8 9.7 14.3 10.0 14.15 Q10.55 14.05 10.65 14.35 L10.55 14.5 9.95 15.05 Q9.8 15.1 9.65 15.25 L8.3 16.25 8.3 16.3 7.65 17.1 7.45 17.45 7.25 17.85 7.15 18.0 7.05 18.6 7.2 18.75 8.35 19.85 8.45 20.1 8.5 20.2 8.85 20.75 8.05 20.05 8.05 20.1 6.9 19.45 6.5 19.2 5.6 18.5 5.3 18.25 4.55 17.75 4.05 17.35 3.45 16.9 3.25 16.75 2.05 15.65 1.35 15.0 0.7 14.4 0.0 13.7 -0.25 13.5 -0.25 11.05 3.5 15.05 6.1 13.8 8.45 12.3 8.5 12.15 Q8.8 11.6 9.3 11.35 L10.25 10.9 10.6 10.35 Q11.4 9.5 12.65 8.95 L14.75 8.35 15.4 8.3 13.65 7.8 16.3 7.6 18.0 7.7 18.95 7.65 18.95 7.7 21.05 7.8 21.5 7.85 21.6 7.85 22.15 6.55 Q23.3 4.25 23.5 3.35 L24.4 0.05 26.4 0.05 26.3 0.2 25.75 1.55 24.95 3.5 24.0 6.15 23.3 7.75 25.3 7.65 25.5 5.4 26.1 2.8 27.2 0.05 28.2 0.05 27.6 0.9 Q26.95 2.4 26.65 4.1 L26.55 4.4 26.0 7.1 25.95 7.65 26.4 7.6 27.5 7.55 27.95 7.55 28.55 5.4 29.75 0.05 30.45 0.05 29.3 4.75 Q30.05 3.7 30.7 3.7 L30.85 4.0 30.3 6.35 30.1 7.35 32.45 7.05 M-0.25 25.9 L-0.25 25.4 3.05 25.95 2.7 26.15 2.35 26.3 Q1.85 26.8 1.55 27.65 L3.65 27.85 4.55 27.85 6.0 28.05 6.6 28.25 7.2 28.55 7.25 28.65 7.3 28.75 6.5 28.45 6.4 28.4 6.35 28.4 6.1 28.35 6.05 28.35 6.0 28.35 4.6 28.2 4.45 28.2 2.95 28.15 2.85 28.15 1.75 28.2 1.05 28.25 0.95 28.15 0.9 27.9 Q0.85 27.45 1.3 26.9 1.7 26.3 2.3 26.1 L2.35 26.05 -0.25 25.9 M-0.25 16.05 L-0.25 15.15 0.65 16.05 1.5 17.4 1.55 17.5 1.9 18.3 2.45 19.45 2.85 20.2 2.9 20.35 3.7 21.75 4.7 23.05 5.05 23.3 6.3 23.65 7.9 23.65 8.3 23.6 Q9.95 23.55 10.1 23.95 L10.05 24.1 10.05 24.35 10.0 24.3 9.85 24.3 9.55 24.2 8.45 24.1 7.05 24.15 6.25 24.2 5.0 24.05 Q4.45 23.95 4.25 23.7 L3.45 22.85 2.35 21.05 1.8 19.75 1.25 18.55 1.1 18.2 0.8 17.6 -0.05 16.25 -0.25 16.05 M30.2 4.65 Q29.8 4.9 29.35 5.55 L28.8 6.45 28.5 7.5 29.55 7.4 30.2 4.7 30.2 4.65 M22.15 9.25 L20.8 9.2 20.3 9.3 20.7 10.05 21.15 10.7 21.25 11.65 21.25 11.7 21.05 12.5 21.25 12.35 21.45 12.25 21.95 11.95 22.2 11.4 22.25 11.3 22.3 11.1 22.3 11.0 22.25 10.4 22.45 9.8 22.55 9.4 22.75 9.25 22.15 9.25 M28.55 12.75 L27.75 13.1 Q26.55 13.65 25.4 14.45 L25.15 14.6 24.85 14.8 24.65 14.9 24.25 15.1 21.7 16.35 21.45 16.4 20.95 16.55 17.2 16.9 18.3 17.55 Q19.6 18.3 20.8 18.55 L21.5 18.65 23.45 18.5 23.6 18.45 24.0 18.35 24.15 18.3 24.85 17.95 24.95 17.85 26.75 16.5 26.95 16.35 27.35 15.95 28.65 14.65 29.3 13.85 29.65 13.1 29.7 12.95 29.75 12.75 30.0 12.15 28.95 12.55 28.55 12.75 M23.75 21.35 L23.3 22.05 22.75 23.2 22.6 23.55 22.75 26.15 22.8 26.05 23.15 25.55 23.2 25.35 23.9 24.1 24.2 23.15 24.7 20.15 25.5 19.65 26.5 18.7 27.6 17.6 25.0 19.35 23.75 21.35 M9.8 12.55 L9.6 12.6 9.45 12.75 9.8 12.55 M5.95 17.5 L5.8 17.6 5.9 17.65 5.95 17.5 M6.15 16.2 Q6.15 15.65 6.6 15.0 L4.55 16.15 5.1 16.8 6.15 16.2 M20.0 13.2 L19.95 12.5 Q19.3 10.3 16.6 10.55 13.9 10.8 14.35 12.4 L14.65 12.8 Q14.85 13.45 16.3 13.8 L19.0 13.85 20.0 13.2 M12.65 34.75 L13.15 35.45 Q13.75 36.35 14.2 37.75 L14.65 38.5 14.7 38.65 14.8 38.8 14.85 38.4 14.9 37.55 14.8 36.1 Q14.1 33.7 12.65 33.25 12.45 33.6 12.5 34.15 L12.65 34.75 M11.7 36.6 L12.1 37.15 12.15 37.25 12.25 37.4 12.6 38.05 12.9 38.85 13.05 39.15 13.5 39.65 13.55 39.7 13.5 39.6 13.65 39.0 13.7 38.75 13.65 38.15 13.35 37.6 13.25 37.1 Q12.7 35.9 11.8 35.25 10.5 34.25 10.85 35.55 L11.7 36.6 M15.15 35.3 L15.45 36.9 15.85 37.4 16.05 37.95 16.1 38.05 16.15 38.25 16.2 38.0 16.25 37.75 16.2 35.65 15.65 34.65 14.9 33.9 14.75 34.2 14.85 34.55 14.9 34.6 15.15 35.3 M17.9 40.0 L18.0 39.95 18.15 39.8 18.55 39.45 19.1 39.45 19.3 39.75 19.35 40.05 19.35 40.4 Q19.45 40.75 20.15 40.9 L21.2 40.85 22.7 39.9 22.95 39.8 22.5 39.95 21.35 40.25 20.25 40.55 19.95 40.45 19.8 40.35 19.75 40.2 Q19.5 39.4 20.05 38.45 20.5 37.7 21.45 36.8 L22.1 36.3 22.2 36.15 22.65 35.95 22.65 35.8 22.15 35.4 22.15 35.25 21.9 35.85 21.7 36.1 21.25 36.55 21.1 36.65 19.05 38.55 18.85 38.75 18.15 39.4 16.75 40.5 15.9 41.25 15.75 41.35 14.5 42.25 14.5 42.4 13.9 42.3 13.85 42.15 13.95 43.2 14.0 43.3 17.85 40.0 17.9 40.0 M12.8 39.9 L12.45 40.1 11.3 40.95 Q11.05 41.25 11.15 41.65 L11.15 41.8 11.4 42.3 11.6 42.5 12.5 41.0 12.6 40.75 12.65 40.55 12.8 39.95 12.8 39.9 M14.3 39.2 Q14.25 40.55 13.8 41.0 L13.6 41.1 13.5 41.15 13.4 41.15 13.6 41.3 13.75 41.55 13.85 42.05 14.5 40.45 14.8 39.8 14.3 39.2 M12.4 39.0 L12.35 38.8 12.3 38.9 12.3 38.8 12.2 38.7 12.1 39.25 12.05 39.3 12.05 39.4 12.3 39.15 12.4 39.0 M25.1 33.45 L23.65 34.0 Q24.75 33.75 26.15 34.8 L26.3 34.9 26.45 35.05 27.05 35.65 27.55 36.3 27.05 34.85 26.95 34.7 26.9 34.6 26.15 33.9 Q25.75 33.65 25.3 33.55 L25.1 33.45 M22.45 34.55 L21.95 34.7 22.05 34.85 22.1 35.05 Q22.15 34.65 22.85 35.05 L23.65 35.55 23.9 35.8 24.35 36.35 24.5 36.65 24.85 37.15 25.55 38.3 25.65 38.45 25.7 37.55 25.7 37.25 Q25.45 36.4 24.55 35.7 L24.45 35.6 24.2 35.35 Q23.45 34.85 22.6 34.6 L22.45 34.55 M27.8 34.65 L28.2 35.75 28.2 35.85 28.6 36.6 28.65 36.85 28.85 37.85 28.95 38.35 29.0 38.35 29.05 38.0 28.7 36.1 28.05 34.85 27.85 34.6 27.65 34.4 27.8 34.65" fill="#111111" fill-rule="evenodd" stroke="none"/>
      <path d="M20.0 13.2 L19.0 13.85 16.3 13.8 Q14.85 13.45 14.65 12.8 L14.35 12.4 Q13.9 10.8 16.6 10.55 19.3 10.3 19.95 12.5 L20.0 13.2" fill="#ffffff" fill-rule="evenodd" stroke="none"/>
      <path d="M22.15 9.25 L22.75 9.25 22.55 9.4 22.45 9.8 22.25 10.4 22.3 11.0 22.3 11.1 22.25 11.3 22.2 11.4 21.95 11.95 21.45 12.25 21.25 12.35 21.05 12.5 21.25 11.7 21.25 11.65 21.15 10.7 20.7 10.05 20.3 9.3 20.8 9.2 22.15 9.25 M9.8 12.55 L9.45 12.75 9.6 12.6 9.8 12.55 M6.15 16.2 L5.1 16.8 4.55 16.15 6.6 15.0 Q6.15 15.65 6.15 16.2" fill="#46ffd6" fill-rule="evenodd" stroke="none"/>
      <path d="M2.8 48.5 L1.4 48.5 Q2.85 45.65 3.6 42.7 L4.0 41.1 4.0 41.2 4.25 42.1 4.65 42.8 3.6 46.45 2.8 48.5 M-0.25 15.15 L-0.25 13.5 0.0 13.7 0.7 14.4 1.35 15.0 2.05 15.65 3.25 16.75 3.45 16.9 4.05 17.35 4.55 17.75 5.3 18.25 5.6 18.5 6.5 19.2 6.9 19.45 8.05 20.1 8.05 20.05 8.85 20.75 8.5 20.2 8.45 20.1 8.35 19.85 7.2 18.75 7.05 18.6 7.15 18.0 7.25 17.85 7.45 17.45 7.65 17.1 8.3 16.3 8.3 16.25 9.65 15.25 Q9.8 15.1 9.95 15.05 L10.55 14.5 10.65 14.35 Q10.55 14.05 10.0 14.15 L9.7 14.3 8.8 14.8 8.7 14.9 7.7 15.45 7.65 15.45 8.5 14.65 9.55 13.8 Q10.3 13.25 11.3 12.65 L11.45 12.55 Q11.6 12.4 11.8 12.35 L12.75 11.75 12.75 11.7 12.65 11.55 11.95 11.55 13.5 11.25 14.15 10.85 12.6 10.7 12.4 10.7 12.9 10.5 13.25 10.4 13.5 10.3 13.65 10.1 14.2 9.85 17.0 9.4 17.4 9.4 17.9 9.4 17.95 9.4 17.95 9.35 17.2 8.95 18.1 8.85 18.5 8.9 19.7 8.95 19.75 9.45 20.25 10.3 20.8 11.0 Q21.0 11.7 20.7 12.5 20.5 12.55 20.4 12.7 L20.25 13.05 20.2 13.0 20.1 12.2 20.0 11.4 Q19.8 10.8 18.6 10.2 17.1 9.5 15.6 10.2 14.45 10.8 14.05 11.4 L14.0 11.9 14.1 12.55 Q14.25 13.2 15.55 13.95 17.15 14.9 18.65 14.45 L20.05 13.6 20.35 13.4 Q19.35 15.0 17.0 15.7 L15.95 15.95 15.95 15.9 15.15 16.1 14.85 16.05 14.3 16.25 14.25 16.25 13.25 16.65 Q12.1 17.15 12.25 17.55 L12.35 17.65 12.4 17.65 12.9 17.3 13.0 17.3 13.8 16.85 14.15 16.8 14.45 16.9 Q15.95 16.75 16.85 17.3 L18.35 18.2 19.95 19.1 20.75 19.35 21.45 19.4 21.6 19.4 22.95 19.15 23.8 18.85 23.85 18.85 24.25 18.65 23.8 19.05 23.55 19.25 21.9 20.55 21.85 20.65 21.55 20.9 21.35 21.1 Q20.95 21.4 20.65 21.65 L18.3 23.15 20.6 22.3 21.25 22.0 22.3 21.4 22.6 21.15 22.4 21.55 Q21.7 22.5 21.45 23.45 L21.4 23.6 21.45 23.95 21.45 25.15 21.35 26.65 21.3 26.5 20.95 25.65 20.8 25.35 20.6 24.95 20.4 24.6 20.25 24.3 20.2 24.35 20.3 24.7 20.45 25.35 20.7 26.45 21.0 28.05 21.15 29.4 20.95 31.45 20.8 31.85 20.6 31.1 20.2 28.6 19.8 27.7 19.75 27.7 19.85 28.05 20.05 29.3 20.0 29.1 19.95 29.1 19.95 29.4 19.9 31.1 19.85 31.35 19.8 31.5 19.55 32.55 19.35 33.25 19.0 33.95 18.35 34.85 17.7 35.7 16.95 36.85 16.75 35.6 Q16.3 34.1 14.95 33.25 14.15 32.7 14.0 33.05 13.25 32.25 12.4 32.5 11.65 32.75 11.55 33.15 L11.65 33.75 11.7 34.05 Q11.05 33.75 10.5 34.2 10.0 34.55 10.1 35.05 9.85 35.4 9.85 35.8 L9.95 37.3 9.6 38.85 8.9 37.3 8.3 36.15 8.15 35.15 Q7.9 35.95 8.15 36.85 L8.4 37.25 8.65 37.7 8.8 40.2 8.75 40.4 8.75 40.45 8.15 41.7 8.05 41.9 7.95 42.0 7.4 43.15 7.25 43.4 7.15 43.65 6.95 43.4 6.75 43.2 6.25 42.85 5.85 42.5 5.8 42.45 5.3 41.8 5.1 41.35 5.1 41.25 5.1 41.15 5.0 40.8 5.0 40.7 Q4.85 39.25 4.95 37.65 L4.95 37.4 4.95 36.75 5.05 36.15 5.15 35.4 6.85 33.85 Q8.25 32.25 8.05 31.45 L7.9 31.2 7.85 30.95 Q7.5 29.8 6.1 28.35 L6.35 28.4 6.45 28.45 6.4 28.4 6.5 28.45 6.8 28.55 7.3 28.75 8.55 29.0 Q9.0 28.55 8.75 27.35 L7.7 25.65 Q9.55 25.15 10.15 24.25 L10.05 24.1 10.1 23.95 Q9.95 23.55 8.3 23.6 L7.9 23.65 6.3 23.65 5.05 23.3 4.7 23.05 3.7 21.75 2.9 20.35 2.85 20.2 2.45 19.45 1.9 18.3 1.55 17.5 1.5 17.4 0.65 16.05 -0.25 15.15 M26.4 0.05 L27.2 0.05 26.1 2.8 25.5 5.4 25.3 7.65 23.3 7.75 24.0 6.15 24.95 3.5 25.75 1.55 26.3 0.2 26.4 0.05 M14.3 39.2 L14.8 39.8 14.5 40.45 13.85 42.05 13.75 41.55 13.6 41.3 13.4 41.15 13.5 41.15 13.6 41.1 13.8 41.0 Q14.25 40.55 14.3 39.2 M12.4 39.0 L12.3 39.15 12.05 39.4 12.05 39.3 12.1 39.25 12.2 38.7 12.3 38.8 12.3 38.9 12.35 38.8 12.4 39.0" fill="#ff3333" fill-rule="evenodd" stroke="none"/>
      <path d="M30.45 0.05 L32.45 0.05 32.45 0.8 Q32.0 1.4 32.1 1.65 L32.2 1.8 32.35 1.65 31.55 3.75 31.5 3.9 31.55 3.85 31.65 3.8 32.45 2.3 32.45 7.05 30.1 7.35 30.3 6.35 30.85 4.0 30.7 3.7 Q30.05 3.7 29.3 4.75 L30.45 0.05 M32.45 13.85 L32.45 15.7 30.95 15.75 30.9 15.8 30.55 15.85 30.45 15.8 30.35 15.85 30.25 15.85 30.05 15.9 30.05 16.25 30.1 16.6 30.1 17.0 Q30.15 19.05 29.85 20.05 L29.85 20.25 29.8 20.5 Q29.6 21.2 28.45 21.65 L27.6 22.1 27.05 22.45 26.45 22.9 26.25 23.0 26.15 23.1 25.75 23.5 Q25.6 23.75 25.6 24.45 L25.55 24.55 25.45 25.5 24.45 27.75 24.2 28.35 23.3 30.0 22.55 30.95 22.65 30.35 22.55 27.8 22.75 26.55 23.8 25.4 24.35 24.25 24.55 23.85 24.8 21.85 24.8 20.65 Q24.85 20.3 25.45 20.05 L25.55 19.95 Q26.15 19.7 26.25 19.5 L27.8 18.05 28.2 17.05 28.95 16.35 29.8 15.55 Q31.25 14.0 31.65 12.85 L31.9 13.15 32.45 13.85 M-0.25 34.3 L-0.25 25.9 2.35 26.05 2.3 26.1 Q1.7 26.3 1.3 26.9 0.85 27.45 0.9 27.9 L0.95 28.15 1.05 28.25 1.75 28.2 2.85 28.15 2.95 28.15 4.45 28.2 4.6 28.2 6.0 28.35 6.05 28.35 6.1 28.35 Q7.5 29.8 7.85 30.95 L7.9 31.2 7.8 31.3 7.75 31.6 7.4 32.1 6.0 33.3 5.35 33.75 3.05 34.95 1.9 35.3 Q1.1 35.55 -0.05 34.35 L-0.25 34.3 M-0.25 25.4 L-0.25 16.05 -0.05 16.25 0.8 17.6 1.1 18.2 1.25 18.55 1.8 19.75 2.35 21.05 3.45 22.85 4.25 23.7 Q4.45 23.95 5.0 24.05 L6.25 24.2 7.05 24.15 8.45 24.1 9.55 24.2 9.85 24.3 10.0 24.3 10.05 24.35 10.05 24.1 10.15 24.25 Q9.55 25.15 7.7 25.65 L8.75 27.35 Q9.0 28.55 8.55 29.0 L7.3 28.75 6.8 28.55 6.5 28.45 7.3 28.75 7.25 28.65 7.2 28.55 6.6 28.25 6.0 28.05 4.55 27.85 3.65 27.85 1.55 27.65 Q1.85 26.8 2.35 26.3 L2.7 26.15 3.05 25.95 -0.25 25.4 M28.2 0.05 L29.75 0.05 28.55 5.4 27.95 7.55 27.5 7.55 26.4 7.6 25.95 7.65 26.0 7.1 26.55 4.4 26.65 4.1 Q26.95 2.4 27.6 0.9 L28.2 0.05 M30.2 4.65 L30.2 4.7 29.55 7.4 28.5 7.5 28.8 6.45 29.35 5.55 Q29.8 4.9 30.2 4.65 M23.75 21.35 L25.0 19.35 27.6 17.6 26.5 18.7 25.5 19.65 24.7 20.15 24.2 23.15 23.9 24.1 23.2 25.35 23.15 25.55 22.8 26.05 22.75 26.15 22.6 23.55 22.75 23.2 23.3 22.05 23.75 21.35 M6.4 28.4 L6.45 28.45 6.35 28.4 6.4 28.4" fill="#ffd98a" fill-rule="evenodd" stroke="none"/>
      <path d="M32.45 8.4 L32.45 10.9 31.65 11.1 31.45 11.15 30.9 11.3 30.8 11.3 30.35 11.45 Q29.65 11.65 28.9 12.0 L28.8 12.0 Q28.6 12.05 28.35 12.2 L28.15 12.3 Q26.8 12.9 25.4 13.75 L24.75 14.2 24.65 14.25 24.15 14.55 23.5 14.95 21.75 15.8 21.0 16.05 20.85 16.1 20.7 16.15 17.3 16.55 16.65 16.3 Q19.35 15.55 20.6 13.65 L20.55 13.55 21.4 12.75 21.5 12.65 21.55 12.6 22.05 12.2 22.1 12.1 22.15 12.05 22.35 11.7 22.5 11.25 22.5 10.55 22.5 10.5 22.75 9.85 22.9 9.7 23.35 9.45 24.1 9.3 25.25 9.3 25.85 9.25 27.45 9.05 27.6 9.0 27.9 8.95 28.05 8.95 29.2 8.8 29.75 8.7 32.45 8.4 M31.25 9.25 L31.05 9.2 29.75 9.05 29.65 9.05 29.15 8.95 28.35 9.05 28.0 9.35 27.9 9.4 27.85 9.4 27.3 9.55 26.65 9.55 25.8 9.6 25.7 9.6 25.2 9.75 24.1 10.0 24.0 10.05 24.95 10.3 25.15 10.35 25.7 10.5 26.0 10.5 27.0 10.0 27.15 10.0 27.7 10.0 28.05 10.0 28.2 10.0 28.95 9.95 29.5 9.85 29.6 9.8 31.25 9.25 M8.05 41.9 L7.45 43.2 7.3 43.45 7.55 43.2 9.6 40.65 9.7 40.5 9.7 40.4 10.1 39.8 10.65 38.15 10.9 36.65 11.4 37.35 11.65 37.7 11.6 37.75 Q11.4 38.3 11.35 38.85 L11.35 39.45 11.45 40.0 11.5 40.2 11.1 41.15 11.05 39.85 10.9 39.65 10.85 39.6 10.75 39.45 10.7 39.65 10.55 40.1 7.25 44.85 7.15 44.5 7.2 44.5 7.15 44.4 7.15 43.65 7.25 43.4 7.4 43.15 7.95 42.0 8.05 41.9 M28.55 12.75 L28.95 12.55 30.0 12.15 29.75 12.75 29.7 12.95 29.65 13.1 29.3 13.85 28.65 14.65 27.35 15.95 26.95 16.35 26.75 16.5 24.95 17.85 24.85 17.95 24.15 18.3 24.0 18.35 23.6 18.45 23.45 18.5 21.5 18.65 20.8 18.55 Q19.6 18.3 18.3 17.55 L17.2 16.9 20.95 16.55 21.45 16.4 21.7 16.35 24.25 15.1 24.65 14.9 24.85 14.8 25.15 14.6 25.4 14.45 Q26.55 13.65 27.75 13.1 L28.55 12.75 M23.05 13.9 L23.55 13.6 24.0 12.15 23.8 12.5 23.35 12.95 22.7 13.4 22.15 13.7 22.0 13.75 21.25 13.95 21.0 14.05 20.6 15.0 20.7 14.95 21.15 14.9 21.8 14.85 21.9 14.85 22.45 14.15 Q22.6 13.95 23.05 13.9 M15.15 35.3 L14.9 34.6 14.85 34.55 14.75 34.2 14.9 33.9 15.65 34.65 16.2 35.65 16.25 37.75 16.2 38.0 16.15 38.25 16.1 38.05 16.05 37.95 15.85 37.4 15.45 36.9 15.15 35.3 M11.7 36.6 L10.85 35.55 Q10.5 34.25 11.8 35.25 12.7 35.9 13.25 37.1 L13.35 37.6 13.65 38.15 13.7 38.75 13.65 39.0 13.5 39.6 13.55 39.7 13.5 39.65 13.05 39.15 12.9 38.85 12.6 38.05 12.25 37.4 12.15 37.25 12.1 37.15 11.7 36.6 M12.65 34.75 L12.5 34.15 Q12.45 33.6 12.65 33.25 14.1 33.7 14.8 36.1 L14.9 37.55 14.85 38.4 14.8 38.8 14.7 38.65 14.65 38.5 14.2 37.75 Q13.75 36.35 13.15 35.45 L12.65 34.75 M12.8 39.9 L12.8 39.95 12.65 40.55 12.6 40.75 12.5 41.0 11.6 42.5 11.4 42.3 11.15 41.8 11.15 41.65 Q11.05 41.25 11.3 40.95 L12.45 40.1 12.8 39.9 M17.9 40.0 L17.85 40.0 14.0 43.3 13.95 43.2 13.85 42.15 13.9 42.3 14.5 42.4 14.5 42.25 15.75 41.35 15.9 41.25 16.75 40.5 18.15 39.4 18.85 38.75 19.05 38.55 21.1 36.65 21.25 36.55 21.7 36.1 21.9 35.85 22.15 35.25 22.15 35.4 22.65 35.8 22.65 35.95 22.2 36.15 22.1 36.3 21.45 36.8 Q20.5 37.7 20.05 38.45 19.5 39.4 19.75 40.2 L19.8 40.35 19.95 40.45 20.25 40.55 21.35 40.25 22.5 39.95 22.95 39.8 22.7 39.9 21.2 40.85 20.15 40.9 Q19.45 40.75 19.35 40.4 L19.35 40.05 19.3 39.75 19.1 39.45 18.55 39.45 18.15 39.8 18.0 39.95 17.9 40.0 M27.8 34.65 L27.65 34.4 27.85 34.6 28.05 34.85 28.7 36.1 29.05 38.0 29.0 38.35 28.95 38.35 28.85 37.85 28.65 36.85 28.6 36.6 28.2 35.85 28.2 35.75 27.8 34.65 M22.45 34.55 L22.6 34.6 Q23.45 34.85 24.2 35.35 L24.45 35.6 24.55 35.7 Q25.45 36.4 25.7 37.25 L25.7 37.55 25.65 38.45 25.55 38.3 24.85 37.15 24.5 36.65 24.35 36.35 23.9 35.8 23.65 35.55 22.85 35.05 Q22.15 34.65 22.1 35.05 L22.05 34.85 21.95 34.7 22.45 34.55 M25.1 33.45 L25.3 33.55 Q25.75 33.65 26.15 33.9 L26.9 34.6 26.95 34.7 27.05 34.85 27.55 36.3 27.05 35.65 26.45 35.05 26.3 34.9 26.15 34.8 Q24.75 33.75 23.65 34.0 L25.1 33.45" fill="#ffda46" fill-rule="evenodd" stroke="none"/>
      <path d="M31.25 9.25 L29.6 9.8 29.5 9.85 28.95 9.95 28.2 10.0 28.05 10.0 27.7 10.0 27.15 10.0 27.0 10.0 26.0 10.5 25.7 10.5 25.15 10.35 24.95 10.3 24.0 10.05 24.1 10.0 25.2 9.75 25.7 9.6 25.8 9.6 26.65 9.55 27.3 9.55 27.85 9.4 27.9 9.4 28.0 9.35 28.35 9.05 29.15 8.95 29.65 9.05 29.75 9.05 31.05 9.2 31.25 9.25 M23.05 13.9 Q22.6 13.95 22.45 14.15 L21.9 14.85 21.8 14.85 21.15 14.9 20.7 14.95 20.6 15.0 21.0 14.05 21.25 13.95 22.0 13.75 22.15 13.7 22.7 13.4 23.35 12.95 23.8 12.5 24.0 12.15 23.55 13.6 23.05 13.9" fill="#fff9aa" fill-rule="evenodd" stroke="none"/>
    </g>
  </defs>
</svg>
