<?xml version="1.0" encoding="UTF-8" standalone="no"?>
<svg xmlns:ffdec="https://www.free-decompiler.com/flash" xmlns:xlink="http://www.w3.org/1999/xlink" ffdec:objectType="frame" height="27.0px" width="728.25px" xmlns="http://www.w3.org/2000/svg">
  <g transform="matrix(1.0, 0.0, 0.0, 1.0, 37.1, 0.0)">
    <use ffdec:characterId="550" height="27.0" transform="matrix(1.0, 0.0, 0.0, 1.0, -37.1, 0.0)" width="728.25" xlink:href="#shape0"/>
  </g>
  <defs>
    <g id="shape0" transform="matrix(1.0, 0.0, 0.0, 1.0, 37.1, 0.0)">
      <path d="M658.65 0.0 L678.2 0.0 Q683.6 0.0 687.35 3.9 691.15 7.85 691.15 13.45 L691.15 13.5 Q691.15 19.1 687.35 23.05 683.6 27.0 678.2 27.0 L658.65 27.0 658.65 0.0" fill="url(#gradient0)" fill-rule="evenodd" stroke="none"/>
      <path d="M658.65 0.0 L658.65 27.0 53.65 27.0 53.65 0.0 658.65 0.0" fill="url(#gradient1)" fill-rule="evenodd" stroke="none"/>
      <path d="M53.65 27.0 L-30.5 27.0 -30.5 0.0 53.65 0.0 53.65 27.0" fill="url(#gradient2)" fill-rule="evenodd" stroke="none"/>
      <path d="M-30.5 27.0 L-37.1 27.0 -37.1 0.0 -30.5 0.0 -30.5 27.0" fill="url(#gradient3)" fill-rule="evenodd" stroke="none"/>
    </g>
    <linearGradient gradientTransform="matrix(0.0, 0.0168, -0.0159, 0.0, 652.2, 13.45)" gradientUnits="userSpaceOnUse" id="gradient0" spreadMethod="pad" x1="-819.2" x2="819.2">
      <stop offset="0.0" stop-color="#ffffff" stop-opacity="0.8"/>
      <stop offset="0.4549019607843137" stop-color="#f7f7f7" stop-opacity="0.09803922"/>
    </linearGradient>
    <linearGradient gradientTransform="matrix(0.0, 0.0168, -0.905, 0.0, 515.95, 13.45)" gradientUnits="userSpaceOnUse" id="gradient1" spreadMethod="pad" x1="-819.2" x2="819.2">
      <stop offset="0.0" stop-color="#ffffff" stop-opacity="0.8"/>
      <stop offset="0.4549019607843137" stop-color="#f7f7f7" stop-opacity="0.09803922"/>
    </linearGradient>
    <linearGradient gradientTransform="matrix(0.0, 0.0168, -3.3203, 0.0, 1749.7, 13.45)" gradientUnits="userSpaceOnUse" id="gradient2" spreadMethod="pad" x1="-819.2" x2="819.2">
      <stop offset="0.0" stop-color="#ffffff" stop-opacity="0.8"/>
      <stop offset="0.4549019607843137" stop-color="#f7f7f7" stop-opacity="0.09803922"/>
    </linearGradient>
    <linearGradient gradientTransform="matrix(0.0, 0.0168, -0.0582, 0.0, 0.65, 13.45)" gradientUnits="userSpaceOnUse" id="gradient3" spreadMethod="pad" x1="-819.2" x2="819.2">
      <stop offset="0.0" stop-color="#ffffff" stop-opacity="0.8"/>
      <stop offset="0.4549019607843137" stop-color="#f7f7f7" stop-opacity="0.09803922"/>
    </linearGradient>
  </defs>
</svg>
