<?xml version="1.0" encoding="UTF-8" standalone="no"?>
<svg xmlns:ffdec="https://www.free-decompiler.com/flash" xmlns:xlink="http://www.w3.org/1999/xlink" ffdec:objectType="frame" height="239.1px" width="180.75px" xmlns="http://www.w3.org/2000/svg">
  <g transform="matrix(1.0, 0.0, 0.0, 1.0, 73.5, 228.25)">
    <use ffdec:characterId="454" height="24.85" transform="matrix(7.0, 0.0, 0.0, 7.0, -64.05, -163.1)" width="23.7" xlink:href="#shape0"/>
    <use ffdec:characterId="453" ffdec:characterName="a_HHindArmor_Layer06" height="154.35" transform="matrix(1.1003, -0.1685, -0.0783, 1.0703, -61.4178, -202.4457)" width="153.3" xlink:href="#sprite0"/>
  </g>
  <defs>
    <g id="shape0" transform="matrix(1.0, 0.0, 0.0, 1.0, 9.15, 23.3)">
      <path d="M9.7 -10.35 L9.7 -10.4 Q9.95 -10.25 10.15 -10.15 L10.25 -10.05 Q10.6 -9.7 10.8 -9.7 L10.9 -9.65 11.15 -9.5 11.2 -9.45 11.4 -9.2 11.45 -9.1 11.9 -8.25 12.05 -8.55 12.15 -8.95 12.1 -9.35 12.1 -9.5 Q12.0 -9.9 12.0 -10.05 L11.7 -10.7 Q11.35 -11.4 11.4 -11.6 11.45 -12.05 11.7 -12.7 L11.7 -12.75 11.85 -13.05 11.9 -13.25 11.85 -13.35 Q12.0 -13.45 12.15 -13.8 12.3 -14.1 12.3 -14.25 L12.35 -14.3 12.35 -14.35 12.4 -14.4 12.4 -14.45 12.9 -15.25 Q13.8 -16.95 13.8 -17.8 13.8 -18.0 13.95 -19.45 13.95 -20.05 13.4 -20.75 12.95 -21.4 12.25 -21.85 11.6 -22.3 11.1 -22.3 10.8 -22.35 10.7 -22.15 9.2 -22.8 7.5 -22.7 1.55 -22.25 -2.7 -19.3 -3.7 -18.6 -5.35 -17.15 L-5.45 -17.05 -5.55 -16.9 Q-5.9 -16.5 -6.8 -15.6 -7.9 -14.55 -8.25 -14.25 -8.0 -14.25 -7.5 -14.4 -6.9 -14.6 -6.7 -14.85 L-6.5 -14.9 Q-6.3 -14.95 -6.3 -14.75 -6.7 -14.45 -7.1 -14.0 -7.95 -13.15 -8.05 -12.2 L-8.1 -11.75 Q-8.15 -10.95 -8.05 -10.65 L-8.0 -10.45 -7.75 -11.05 -7.35 -11.85 Q-7.55 -11.45 -7.55 -11.15 L-7.55 -11.1 -7.6 -10.5 -7.8 -9.3 -7.8 -8.65 Q-7.75 -8.45 -7.65 -8.3 L-7.65 -8.1 -7.55 -7.15 Q-7.55 -7.0 -7.4 -6.65 L-7.0 -7.45 Q-6.9 -7.8 -6.85 -7.9 L-6.95 -8.55 -6.9 -8.55 -6.95 -8.7 -6.9 -8.95 -6.9 -9.4 Q-6.9 -9.65 -6.7 -10.15 -6.6 -10.5 -6.45 -10.65 -6.35 -10.85 -6.2 -10.9 -6.3 -10.6 -6.4 -10.2 L-6.45 -9.8 -6.45 -9.75 -6.5 -9.65 -6.5 -9.6 -6.4 -9.4 Q-6.25 -8.9 -5.65 -7.35 -5.4 -6.8 -5.25 -6.3 -4.85 -5.05 -4.85 -4.25 -4.85 -4.15 -4.95 -3.9 L-4.9 -3.75 -4.9 -3.2 -4.85 -3.3 -4.7 -3.75 Q-4.55 -3.95 -4.3 -4.55 L-4.25 -4.8 Q-4.1 -5.2 -4.1 -5.25 L-3.95 -6.2 -3.95 -6.25 -3.9 -6.35 -3.8 -7.15 -3.8 -7.2 -3.75 -7.15 -3.75 -7.05 -3.7 -6.65 -3.65 -6.4 -3.65 -6.1 -3.6 -5.85 -3.65 -5.85 -3.7 -5.5 -3.7 -5.45 -3.8 -5.1 -3.85 -5.0 -3.85 -4.95 -3.9 -4.75 -3.9 -4.65 -3.95 -4.4 -4.15 -3.7 -4.15 -3.55 -4.05 -3.6 -3.55 -4.1 Q-3.4 -4.3 -3.1 -4.4 L-3.05 -4.5 Q-2.9 -4.6 -2.85 -4.7 L-2.75 -4.9 -2.55 -5.15 -2.5 -5.2 Q-2.15 -5.75 -1.85 -6.3 L-1.75 -6.55 -1.65 -6.65 Q-1.6 -6.55 -1.65 -6.3 -1.65 -6.2 -1.8 -5.9 -1.85 -5.55 -2.05 -5.1 L-2.05 -4.65 Q-2.1 -4.45 -2.1 -4.25 -2.05 -3.9 -1.95 -3.6 -1.85 -3.2 -1.65 -3.1 L-1.4 -2.8 -0.8 -2.2 -0.75 -2.75 -0.85 -3.2 -0.8 -3.35 -0.9 -3.8 Q-0.75 -4.5 -0.55 -5.4 L-0.45 -5.65 -0.4 -5.85 Q-0.2 -4.75 -0.2 -4.45 -0.2 -4.3 0.2 -3.25 0.5 -2.7 0.5 -2.65 L0.5 -2.6 0.7 -2.05 0.7 -2.0 0.95 -1.35 Q0.9 -1.25 1.0 -0.95 1.2 -0.5 1.2 -0.4 L0.95 0.45 Q1.35 0.15 1.9 -0.2 L2.7 -0.75 3.3 -1.25 3.45 -1.4 3.85 -1.8 4.05 -2.15 4.35 -2.7 4.65 -3.55 4.95 -4.8 5.25 -5.55 5.25 -5.6 5.3 -5.6 5.3 -5.7 5.45 -6.05 5.45 -6.1 5.5 -5.7 Q5.45 -5.2 5.25 -4.25 L5.25 -4.1 Q5.3 -3.7 5.3 -3.45 L5.3 -3.4 5.2 -3.05 5.4 -3.35 6.05 -4.35 6.5 -5.05 Q6.75 -6.1 6.9 -6.6 7.05 -6.2 7.05 -6.0 7.0 -5.85 7.1 -5.65 L7.2 -5.5 7.15 -5.35 7.2 -5.2 7.15 -5.1 7.05 -4.4 7.0 -4.0 6.5 -2.75 6.65 -2.9 Q6.65 -2.8 6.65 -2.75 L6.7 -2.8 Q6.95 -3.0 7.15 -3.2 L7.15 -3.25 Q7.45 -3.55 7.55 -3.85 L7.7 -4.2 Q8.05 -4.85 8.25 -5.6 8.45 -6.5 8.55 -8.65 L8.7 -8.65 8.9 -7.6 Q8.9 -7.25 8.85 -6.75 8.75 -5.65 8.4 -4.65 L8.6 -4.9 9.2 -5.5 Q10.2 -6.6 10.3 -7.2 L10.25 -7.95 Q10.15 -8.55 10.2 -8.7 10.2 -8.9 9.95 -9.55 L9.9 -9.65 9.9 -9.65 Q9.7 -10.2 9.7 -10.3 L9.7 -10.35 M14.1 -16.8 L13.5 -15.35 Q12.65 -13.5 12.65 -13.25 L12.45 -12.7 Q12.25 -12.1 12.25 -11.9 L12.35 -11.1 12.4 -10.75 12.5 -10.4 12.75 -9.2 Q12.75 -9.05 12.35 -8.25 11.9 -7.45 11.6 -7.25 11.35 -7.4 11.25 -7.75 L11.15 -8.35 Q11.05 -8.8 10.7 -9.15 L10.75 -8.95 Q10.9 -8.45 10.85 -7.95 10.7 -6.8 10.05 -5.65 9.2 -4.35 8.05 -3.8 7.25 -2.3 6.1 -2.1 L5.85 -2.15 Q5.8 -2.15 5.8 -2.35 5.8 -2.45 5.95 -2.6 6.05 -2.75 6.05 -2.9 L6.1 -3.15 Q5.6 -2.5 4.95 -2.1 L4.85 -1.85 Q4.05 -1.15 3.35 -0.6 L3.3 -0.55 Q2.6 0.05 1.8 0.4 L1.55 0.55 0.55 1.05 Q0.25 1.45 -0.1 1.55 0.35 0.2 0.35 -0.05 L0.35 -0.85 0.3 -1.4 0.2 -1.75 Q0.2 -1.9 -0.45 -2.9 -0.5 -2.9 -0.55 -2.8 -0.4 -2.65 -0.3 -2.0 L-0.25 -1.75 -0.55 -1.3 -0.55 -1.25 -0.6 -1.2 -0.7 -0.95 Q-1.05 -1.5 -1.75 -2.5 L-1.8 -2.6 -2.1 -2.95 Q-2.65 -3.5 -2.65 -4.35 -2.8 -4.1 -3.5 -3.5 L-3.7 -3.4 Q-4.0 -3.1 -4.3 -2.85 L-4.5 -2.8 -4.7 -2.8 -4.75 -2.7 -5.15 -2.45 -5.4 -2.3 -5.45 -2.5 Q-5.5 -2.7 -5.4 -3.0 -5.4 -3.2 -5.5 -3.8 L-5.55 -4.2 Q-5.7 -5.1 -6.0 -6.55 L-6.0 -6.65 -6.15 -6.85 -6.35 -7.35 -6.45 -7.55 -6.5 -7.75 -6.9 -6.75 Q-7.15 -6.1 -7.15 -5.65 L-7.2 -5.45 -7.25 -5.35 -7.3 -5.35 -7.65 -5.9 -7.75 -6.1 -7.9 -6.9 -8.05 -7.6 Q-8.35 -8.6 -8.35 -8.85 -8.35 -9.15 -8.25 -9.5 -8.35 -9.7 -8.45 -10.1 -8.6 -10.7 -8.6 -10.9 -8.6 -11.25 -8.3 -12.4 -8.0 -13.5 -7.9 -13.7 L-7.8 -13.8 Q-8.15 -13.65 -8.3 -13.65 -8.7 -13.6 -9.15 -13.8 -8.6 -14.4 -7.45 -15.75 L-7.5 -15.8 Q-7.55 -15.85 -7.55 -16.05 -7.55 -16.2 -6.0 -17.55 -4.4 -18.95 -3.45 -19.5 -1.4 -20.8 -0.65 -21.2 1.8 -22.5 3.55 -22.8 5.3 -23.15 6.8 -23.2 11.75 -23.6 13.6 -21.65 14.4 -20.75 14.55 -19.4 14.6 -18.75 14.45 -17.55 14.4 -17.25 14.1 -16.8 M-2.2 -16.8 Q-2.1 -16.4 -2.1 -16.2 -2.15 -15.85 -1.45 -14.75 L-1.3 -14.5 -1.1 -14.3 -1.65 -14.4 -1.75 -14.55 -2.0 -14.95 Q-2.7 -16.15 -2.45 -17.35 -2.4 -17.4 -2.3 -17.4 L-2.2 -16.8" fill="#111111" fill-rule="evenodd" stroke="none"/>
      <path d="M9.7 -10.35 L9.7 -10.3 Q9.7 -10.2 9.9 -9.65 L9.9 -9.65 9.95 -9.55 Q10.2 -8.9 10.2 -8.7 10.15 -8.55 10.25 -7.95 L10.3 -7.2 Q10.2 -6.6 9.2 -5.5 L8.6 -4.9 8.65 -5.15 8.9 -6.35 9.15 -7.6 Q9.25 -8.55 8.75 -9.4 8.35 -10.05 7.35 -10.95 L7.75 -9.6 Q7.95 -8.85 7.9 -8.25 7.8 -7.5 7.5 -6.5 L7.4 -6.95 Q7.3 -7.65 7.35 -7.8 7.35 -7.9 6.75 -8.7 L6.0 -9.55 Q5.5 -10.9 5.4 -11.25 5.3 -11.7 5.3 -12.4 L5.7 -12.45 7.8 -12.8 8.55 -12.95 8.6 -12.9 Q9.3 -12.55 9.7 -12.3 10.7 -11.65 11.05 -10.45 L11.15 -10.35 Q10.05 -11.3 8.55 -11.75 8.45 -11.75 8.4 -11.65 9.15 -11.05 9.7 -10.35 M5.4 -3.35 L5.2 -3.05 5.3 -3.4 5.3 -3.45 5.4 -3.65 5.4 -3.35 M5.3 -5.6 L5.25 -5.6 5.25 -5.55 4.95 -4.8 4.65 -3.55 4.35 -2.7 4.05 -2.15 3.85 -1.8 3.45 -1.4 3.65 -1.85 Q4.25 -3.3 4.35 -4.5 4.35 -4.85 4.25 -7.0 4.1 -6.75 3.95 -6.0 3.8 -5.4 3.75 -4.85 3.7 -3.9 3.1 -2.85 L3.2 -3.25 Q3.25 -4.4 2.45 -6.25 1.65 -8.05 0.65 -8.95 L0.55 -8.8 Q0.6 -8.6 1.15 -6.25 1.4 -5.35 1.5 -4.7 L0.85 -5.65 -0.8 -8.0 Q-1.4 -8.8 -1.7 -9.4 L-2.05 -10.45 -2.05 -11.05 Q-2.05 -11.45 -2.15 -11.65 L-1.15 -11.95 -0.9 -12.0 -0.7 -11.55 Q-0.3 -10.95 -0.3 -10.85 -0.3 -10.7 -0.05 -10.25 0.15 -9.85 0.25 -9.75 0.4 -9.8 0.4 -9.9 0.25 -10.15 0.2 -10.5 0.15 -10.8 0.2 -11.05 0.2 -11.2 0.55 -11.95 L0.7 -12.3 0.95 -12.05 Q2.9 -9.65 3.8 -8.05 L3.9 -8.1 3.95 -8.1 4.0 -8.3 Q4.05 -8.9 3.9 -9.55 L4.55 -8.95 Q5.5 -7.85 5.35 -6.15 L5.3 -5.6 M3.4 -12.5 L3.45 -12.7 Q4.25 -12.65 5.0 -11.1 5.65 -9.85 5.6 -9.3 L5.6 -9.15 Q5.5 -9.2 5.4 -9.2 4.55 -9.75 3.95 -10.7 3.35 -11.65 3.4 -12.5 M-5.15 -10.35 Q-5.15 -10.1 -4.95 -9.05 L-4.75 -8.05 -4.7 -7.9 Q-5.0 -8.55 -5.15 -9.15 -5.3 -9.65 -5.4 -10.15 L-5.35 -10.1 -5.15 -10.35 M-2.85 -9.7 L-2.75 -8.1 -2.75 -7.35 Q-2.75 -7.95 -3.6 -9.6 -4.05 -10.4 -4.25 -11.0 L-2.35 -11.6 Q-2.4 -11.15 -2.6 -10.6 -2.85 -10.0 -2.85 -9.7" fill="#d9d1b8" fill-rule="evenodd" stroke="none"/>
      <path d="M3.45 -1.4 L3.3 -1.25 2.7 -0.75 1.9 -0.2 Q1.35 0.15 0.95 0.45 L1.2 -0.4 Q1.2 -0.5 1.0 -0.95 0.9 -1.25 0.95 -1.35 L0.7 -2.0 0.7 -2.05 0.5 -2.6 0.5 -2.65 Q0.5 -2.7 0.2 -3.25 -0.2 -4.3 -0.2 -4.45 -0.2 -4.75 -0.4 -5.85 L-0.45 -5.65 -0.55 -5.4 Q-0.75 -4.5 -0.9 -3.8 L-0.8 -3.35 -0.85 -3.2 -0.75 -2.75 -0.8 -2.2 -1.4 -2.8 -1.65 -3.1 Q-1.85 -3.2 -1.95 -3.6 -2.05 -3.9 -2.1 -4.25 -2.1 -4.45 -2.05 -4.65 L-2.05 -5.1 Q-1.85 -5.55 -1.8 -5.9 -1.65 -6.2 -1.65 -6.3 -1.6 -6.55 -1.65 -6.65 L-1.75 -6.55 -1.85 -6.3 Q-2.15 -5.75 -2.5 -5.2 L-2.55 -5.15 -2.75 -4.9 -2.85 -4.7 Q-2.9 -4.6 -3.05 -4.5 L-3.1 -4.4 Q-3.4 -4.3 -3.55 -4.1 L-4.05 -3.6 -4.15 -3.55 -4.15 -3.7 -3.95 -4.4 -3.9 -4.65 -3.9 -4.75 -3.85 -4.95 -3.85 -5.0 -3.8 -5.1 -3.7 -5.45 -3.7 -5.5 -3.65 -5.85 -3.6 -5.85 -3.65 -6.1 -3.65 -6.4 -3.7 -6.65 -3.75 -7.05 -3.75 -7.15 -3.8 -7.2 -3.8 -7.15 -3.9 -6.35 -3.95 -6.25 -3.95 -6.2 -4.1 -5.25 Q-4.1 -5.2 -4.25 -4.8 L-4.3 -4.55 Q-4.55 -3.95 -4.7 -3.75 L-4.85 -3.3 -4.9 -3.2 -4.9 -3.75 -4.95 -3.9 Q-4.85 -4.15 -4.85 -4.25 -4.85 -5.05 -5.25 -6.3 -5.4 -6.8 -5.65 -7.35 -6.25 -8.9 -6.4 -9.4 L-6.5 -9.6 -6.5 -9.65 -6.45 -9.75 -6.45 -9.8 -6.4 -10.2 Q-6.3 -10.6 -6.2 -10.9 -6.35 -10.85 -6.45 -10.65 -6.6 -10.5 -6.7 -10.15 -6.9 -9.65 -6.9 -9.4 L-6.9 -8.95 -6.95 -8.7 -6.9 -8.55 -6.95 -8.55 -6.85 -7.9 Q-6.9 -7.8 -7.0 -7.45 L-7.4 -6.65 Q-7.55 -7.0 -7.55 -7.15 L-7.65 -8.1 -7.65 -8.3 Q-7.75 -8.45 -7.8 -8.65 L-7.8 -9.3 -7.6 -10.5 -7.55 -11.1 -7.55 -11.15 Q-7.55 -11.45 -7.35 -11.85 L-7.75 -11.05 -8.0 -10.45 -8.05 -10.65 Q-8.15 -10.95 -8.1 -11.75 L-8.05 -12.2 Q-7.95 -13.15 -7.1 -14.0 -6.7 -14.45 -6.3 -14.75 -6.3 -14.95 -6.5 -14.9 L-6.7 -14.85 Q-6.9 -14.6 -7.5 -14.4 -8.0 -14.25 -8.25 -14.25 -7.9 -14.55 -6.8 -15.6 -5.9 -16.5 -5.55 -16.9 L-5.45 -17.05 -5.35 -17.15 Q-3.7 -18.6 -2.7 -19.3 1.55 -22.25 7.5 -22.7 9.2 -22.8 10.7 -22.15 10.8 -22.35 11.1 -22.3 11.6 -22.3 12.25 -21.85 12.95 -21.4 13.4 -20.75 13.95 -20.05 13.95 -19.45 13.8 -18.0 13.8 -17.8 13.8 -16.95 12.9 -15.25 L12.4 -14.45 12.4 -14.4 12.35 -14.35 12.35 -14.3 12.3 -14.25 Q12.3 -14.1 12.15 -13.8 12.0 -13.45 11.85 -13.35 L11.9 -13.25 11.85 -13.05 11.7 -12.75 11.7 -12.7 Q11.45 -12.05 11.4 -11.6 11.35 -11.4 11.7 -10.7 L12.0 -10.05 Q12.0 -9.9 12.1 -9.5 L12.1 -9.35 12.15 -8.95 12.05 -8.55 11.9 -8.25 11.45 -9.1 11.4 -9.2 11.2 -9.45 11.15 -9.5 10.9 -9.65 10.8 -9.7 Q10.6 -9.7 10.25 -10.05 L10.15 -10.15 Q9.95 -10.25 9.7 -10.4 L9.7 -10.35 Q9.15 -11.05 8.4 -11.65 8.45 -11.75 8.55 -11.75 10.05 -11.3 11.15 -10.35 L11.05 -10.45 Q10.7 -11.65 9.7 -12.3 9.3 -12.55 8.6 -12.9 L8.55 -12.95 7.8 -12.8 5.7 -12.45 5.3 -12.4 Q5.3 -11.7 5.4 -11.25 5.5 -10.9 6.0 -9.55 L6.75 -8.7 Q7.35 -7.9 7.35 -7.8 7.3 -7.65 7.4 -6.95 L7.5 -6.5 Q7.8 -7.5 7.9 -8.25 7.95 -8.85 7.75 -9.6 L7.35 -10.95 Q8.35 -10.05 8.75 -9.4 9.25 -8.55 9.15 -7.6 L8.9 -6.35 8.65 -5.15 8.6 -4.9 8.4 -4.65 Q8.75 -5.65 8.85 -6.75 8.9 -7.25 8.9 -7.6 L8.7 -8.65 8.55 -8.65 Q8.45 -6.5 8.25 -5.6 8.05 -4.85 7.7 -4.2 L7.55 -3.85 Q7.45 -3.55 7.15 -3.25 L7.15 -3.2 Q6.95 -3.0 6.7 -2.8 L6.65 -2.75 Q6.65 -2.8 6.65 -2.9 L6.5 -2.75 7.0 -4.0 7.05 -4.4 7.15 -5.1 7.2 -5.2 7.15 -5.35 7.2 -5.5 7.1 -5.65 Q7.0 -5.85 7.05 -6.0 7.05 -6.2 6.9 -6.6 6.75 -6.1 6.5 -5.05 L6.05 -4.35 5.4 -3.35 5.4 -3.65 5.3 -3.45 Q5.3 -3.7 5.25 -4.1 L5.25 -4.25 Q5.45 -5.2 5.5 -5.7 L5.45 -6.1 5.45 -6.05 5.3 -5.7 5.3 -5.6 5.35 -6.15 Q5.5 -7.85 4.55 -8.95 L3.9 -9.55 Q4.05 -8.9 4.0 -8.3 L3.95 -8.1 3.9 -8.1 3.8 -8.05 Q2.9 -9.65 0.95 -12.05 L0.7 -12.3 0.55 -11.95 Q0.2 -11.2 0.2 -11.05 0.15 -10.8 0.2 -10.5 0.25 -10.15 0.4 -9.9 0.4 -9.8 0.25 -9.75 0.15 -9.85 -0.05 -10.25 -0.3 -10.7 -0.3 -10.85 -0.3 -10.95 -0.7 -11.55 L-0.9 -12.0 -1.15 -11.95 -2.15 -11.65 Q-2.05 -11.45 -2.05 -11.05 L-2.05 -10.45 -1.7 -9.4 Q-1.4 -8.8 -0.8 -8.0 L0.85 -5.65 1.5 -4.7 Q1.4 -5.35 1.15 -6.25 0.6 -8.6 0.55 -8.8 L0.65 -8.95 Q1.65 -8.05 2.45 -6.25 3.25 -4.4 3.2 -3.25 L3.1 -2.85 Q3.7 -3.9 3.75 -4.85 3.8 -5.4 3.95 -6.0 4.1 -6.75 4.25 -7.0 4.35 -4.85 4.35 -4.5 4.25 -3.3 3.65 -1.85 L3.45 -1.4 M3.4 -12.5 Q3.35 -11.65 3.95 -10.7 4.55 -9.75 5.4 -9.2 5.5 -9.2 5.6 -9.15 L5.6 -9.3 Q5.65 -9.85 5.0 -11.1 4.25 -12.65 3.45 -12.7 L3.4 -12.5 M-2.2 -16.8 L-2.3 -17.4 Q-2.4 -17.4 -2.45 -17.35 -2.7 -16.15 -2.0 -14.95 L-1.75 -14.55 -1.65 -14.4 -1.1 -14.3 -1.3 -14.5 -1.45 -14.75 Q-2.15 -15.85 -2.1 -16.2 -2.1 -16.4 -2.2 -16.8 M-5.15 -10.35 L-5.35 -10.1 -5.4 -10.15 Q-5.3 -9.65 -5.15 -9.15 -5.0 -8.55 -4.7 -7.9 L-4.75 -8.05 -4.95 -9.05 Q-5.15 -10.1 -5.15 -10.35 M-2.85 -9.7 Q-2.85 -10.0 -2.6 -10.6 -2.4 -11.15 -2.35 -11.6 L-4.25 -11.0 Q-4.05 -10.4 -3.6 -9.6 -2.75 -7.95 -2.75 -7.35 L-2.75 -8.1 -2.85 -9.7" fill="#999382" fill-rule="evenodd" stroke="none"/>
    </g>
    <g id="sprite0" transform="matrix(1.0, 0.0, 0.0, 1.0, 79.1, 155.4)">
      <use ffdec:characterId="452" height="22.05" transform="matrix(7.0, 0.0, 0.0, 7.0, -79.1, -155.4)" width="21.9" xlink:href="#shape1"/>
    </g>
    <g id="shape1" transform="matrix(1.0, 0.0, 0.0, 1.0, 11.3, 22.2)">
      <path d="M1.0 -21.6 L1.05 -21.45 Q1.2 -20.75 2.25 -20.55 3.0 -20.35 5.0 -20.35 L5.65 -20.45 5.8 -20.45 6.05 -20.6 6.15 -20.65 6.5 -20.8 7.75 -21.3 Q8.3 -21.55 8.45 -21.0 8.55 -20.35 8.6 -20.15 9.85 -17.35 9.85 -16.8 L10.0 -16.3 Q10.15 -15.85 10.15 -15.6 10.15 -15.55 10.25 -15.4 L10.3 -15.15 10.5 -14.0 10.5 -13.85 Q10.5 -13.75 10.6 -13.1 L10.6 -12.95 10.55 -12.35 Q10.55 -11.4 10.4 -10.4 L10.25 -9.35 Q9.55 -6.7 8.2 -3.4 7.75 -2.35 7.05 -0.9 L7.0 -0.9 Q6.65 -1.15 6.25 -1.8 L4.85 -4.05 Q4.25 -4.9 3.7 -5.5 L3.3 -4.85 Q2.7 -3.8 2.7 -2.7 2.7 -2.4 2.4 -2.4 L0.55 -2.55 Q-0.8 -2.55 -1.55 -1.65 -2.0 -1.15 -2.1 -0.65 L-2.1 -0.5 Q-2.1 -0.4 -2.15 -0.35 L-2.15 -0.3 Q-2.15 -0.15 -2.25 -0.15 L-2.45 -0.15 Q-2.55 -0.15 -2.65 -0.2 L-2.75 -0.25 Q-3.0 -0.35 -3.25 -0.85 -3.5 -1.3 -3.5 -1.45 -3.5 -1.55 -3.75 -1.95 -4.0 -2.4 -4.0 -2.45 -4.0 -2.55 -4.05 -2.7 -4.15 -2.8 -4.15 -2.9 L-4.4 -3.6 -4.75 -4.4 -4.85 -4.6 -5.15 -4.45 Q-5.8 -4.05 -5.9 -3.95 -6.0 -3.8 -6.15 -3.25 -6.25 -2.9 -6.4 -2.8 L-8.45 -4.3 -8.5 -4.35 -9.55 -5.8 -9.65 -5.95 -10.2 -7.15 Q-10.7 -8.45 -10.8 -8.8 -10.9 -9.1 -10.9 -9.25 L-10.9 -9.45 -10.95 -9.45 Q-11.05 -9.9 -11.05 -10.05 L-11.2 -10.8 Q-11.3 -11.5 -11.3 -11.8 -11.3 -12.25 -11.25 -12.45 L-11.25 -12.5 Q-11.25 -12.65 -11.2 -12.75 -11.1 -12.8 -10.95 -12.8 L-10.55 -12.75 -10.2 -12.65 -10.05 -12.65 -9.45 -12.75 -9.2 -12.75 Q-8.45 -12.95 -8.1 -13.55 -7.85 -14.15 -7.65 -14.55 L-7.65 -15.45 -7.6 -15.8 -7.5 -17.1 -7.45 -17.45 -7.5 -17.55 -7.25 -18.35 -7.15 -18.7 -7.0 -18.9 -6.85 -19.2 -6.6 -18.95 Q-5.8 -18.05 -5.2 -17.8 -5.05 -17.65 -4.6 -17.65 -3.85 -18.0 -3.3 -18.2 L-2.55 -18.65 -2.35 -18.8 Q-2.2 -19.0 -2.1 -19.3 L-1.85 -19.6 -1.8 -19.65 -1.8 -19.75 Q-1.75 -19.85 -1.65 -19.9 -1.55 -20.2 -0.9 -20.9 -0.5 -21.35 -0.2 -21.55 L0.0 -21.75 Q0.45 -22.2 0.7 -22.2 L0.8 -22.2 Q0.8 -21.95 1.0 -21.6 M-2.8 -14.75 L-2.8 -14.7 -2.85 -14.35 -3.0 -13.75 -3.1 -12.65 -2.95 -10.65 -2.9 -10.45 -2.85 -10.2 Q-2.8 -9.85 -2.8 -9.75 -2.8 -9.65 -2.7 -9.55 -2.65 -9.4 -2.65 -9.3 L-2.45 -8.55 -2.3 -8.2 -2.3 -8.05 -2.1 -8.05 -2.1 -8.0 -2.05 -7.95 -1.9 -7.85 Q-1.45 -7.65 0.65 -7.65 L0.75 -7.65 0.95 -7.6 1.25 -7.45 2.25 -7.1 2.65 -6.85 4.05 -5.45 4.6 -4.95 Q4.95 -4.4 5.6 -3.7 L6.5 -2.65 6.75 -2.4 7.05 -2.05 Q7.75 -3.65 8.4 -5.55 L8.5 -5.8 8.55 -5.9 8.75 -6.8 Q9.25 -7.45 9.6 -9.6 9.95 -11.75 9.95 -12.9 L9.85 -13.85 9.85 -14.25 9.75 -14.85 9.7 -15.3 9.65 -15.45 Q9.65 -15.85 9.35 -16.65 L9.35 -16.75 Q9.2 -17.15 9.1 -17.45 9.05 -17.7 9.05 -17.9 9.05 -18.05 8.65 -19.2 8.15 -20.45 7.9 -20.85 7.75 -20.8 7.2 -20.35 L6.8 -20.1 Q7.0 -19.8 7.0 -19.5 7.0 -19.15 7.15 -18.65 7.3 -18.15 7.3 -17.7 L7.4 -17.1 Q7.55 -16.55 7.55 -16.4 7.55 -16.3 7.65 -15.95 L7.7 -15.55 7.75 -15.2 7.8 -14.45 7.95 -12.25 7.75 -10.7 Q7.65 -9.85 7.6 -8.95 L7.55 -8.65 7.55 -8.45 Q7.45 -9.1 7.15 -9.75 6.95 -10.25 6.6 -10.65 6.4 -10.75 6.1 -11.1 L5.95 -11.15 5.65 -11.5 5.1 -11.95 Q4.35 -12.65 3.05 -13.75 2.9 -13.9 2.2 -14.75 L1.7 -15.5 Q1.05 -16.65 1.05 -17.5 1.05 -18.05 1.2 -18.55 L1.2 -18.6 Q1.5 -19.45 1.6 -19.75 L1.9 -20.15 1.45 -20.55 Q0.7 -21.25 0.65 -21.35 L0.6 -21.35 Q0.3 -21.2 0.0 -20.9 L-0.15 -20.6 Q-0.95 -19.45 -1.35 -18.7 -2.05 -17.45 -2.45 -16.15 L-2.5 -16.05 -2.55 -15.85 -2.55 -15.8 -2.6 -15.75 -2.6 -15.6 -2.65 -15.3 -2.8 -14.75 M7.75 -13.7 L7.75 -13.75 7.65 -14.3 7.55 -14.8 Q7.4 -15.35 7.4 -15.6 L7.35 -15.9 Q7.25 -16.1 7.25 -16.2 L7.05 -17.15 Q6.85 -18.05 6.85 -18.3 6.8 -19.05 6.4 -19.7 L6.2 -20.0 6.15 -20.0 6.0 -20.05 5.15 -20.1 3.1 -19.95 2.35 -19.85 2.3 -19.9 1.95 -19.55 1.55 -18.75 Q1.3 -18.2 1.3 -17.6 1.3 -16.2 2.25 -14.95 L2.55 -14.6 3.3 -13.8 4.45 -12.85 Q6.05 -11.5 6.6 -10.85 7.15 -10.2 7.4 -9.55 7.75 -11.4 7.8 -12.7 L7.8 -13.15 7.75 -13.7 M0.1 -15.5 Q0.2 -15.15 0.4 -14.8 0.65 -14.1 1.35 -13.3 1.95 -12.6 3.7 -11.15 5.35 -9.7 6.0 -8.95 L6.2 -8.7 6.25 -8.7 6.3 -8.6 6.65 -8.1 6.65 -7.9 Q6.85 -7.45 6.85 -7.05 6.85 -6.75 6.75 -6.4 L6.75 -6.25 Q6.65 -5.85 6.65 -5.75 L6.65 -5.7 6.55 -5.45 6.25 -5.05 6.2 -5.05 Q6.1 -5.1 6.05 -5.1 L6.05 -5.2 6.0 -5.25 Q5.1 -6.2 4.3 -6.9 1.5 -9.35 -0.05 -9.35 L-0.9 -9.4 Q-1.25 -9.45 -1.25 -9.55 L-1.15 -9.9 -1.25 -10.25 -1.15 -12.8 Q-1.15 -13.45 -0.8 -14.6 L-0.8 -14.75 Q-0.65 -15.7 -0.35 -16.35 L-0.15 -16.75 -0.1 -16.4 Q0.05 -15.6 0.1 -15.5 M-0.65 -14.65 L-0.7 -14.6 -0.9 -13.6 -0.9 -13.45 -0.95 -12.9 Q-1.0 -12.3 -1.0 -11.6 -1.05 -11.1 -0.95 -10.6 L-0.85 -10.1 -0.85 -9.8 -0.8 -9.75 Q-0.7 -9.65 -0.5 -9.6 L-0.3 -9.55 0.0 -9.55 Q1.7 -9.55 4.2 -7.35 5.0 -6.65 5.95 -5.65 L6.1 -5.5 6.3 -5.8 6.45 -5.95 6.55 -6.4 6.65 -6.95 6.65 -7.0 Q6.55 -7.15 6.55 -7.25 L6.55 -7.45 6.35 -8.05 Q6.1 -8.55 5.5 -9.15 L3.2 -11.25 Q2.1 -12.2 1.4 -12.9 L0.85 -13.55 Q0.45 -14.1 0.2 -14.6 L0.15 -14.7 Q-0.2 -15.45 -0.2 -16.15 -0.45 -15.7 -0.5 -15.45 L-0.65 -14.65 M1.3 -6.35 Q0.9 -5.8 0.9 -5.7 0.9 -5.6 0.85 -5.5 0.75 -5.45 0.75 -5.35 0.7 -5.0 0.75 -4.7 L0.75 -4.65 Q0.7 -4.65 0.6 -4.65 0.45 -4.65 0.15 -4.75 -0.15 -4.85 -0.6 -4.85 -1.1 -4.85 -1.5 -4.7 L-2.0 -4.55 -2.2 -4.5 Q-2.35 -4.5 -2.5 -4.35 L-2.55 -4.4 -2.6 -4.35 -2.7 -4.6 -3.15 -5.5 Q-3.65 -6.5 -3.65 -6.75 -3.65 -6.8 -3.95 -7.6 -4.25 -8.4 -4.25 -8.75 L-4.6 -10.6 Q-5.0 -12.55 -5.0 -12.95 -5.0 -13.55 -5.1 -14.3 -5.2 -15.1 -5.2 -15.85 -5.2 -16.35 -5.05 -17.05 L-5.0 -17.1 -5.05 -17.1 -5.05 -17.2 Q-5.8 -17.25 -6.35 -17.8 L-6.5 -17.95 Q-6.9 -17.5 -7.05 -16.25 L-7.15 -14.95 -7.05 -14.45 -7.05 -14.4 -7.15 -13.7 -7.05 -13.25 -7.0 -12.8 Q-7.0 -12.55 -6.8 -11.7 L-6.65 -10.85 Q-6.65 -10.7 -6.5 -10.25 L-6.35 -9.75 -6.2 -9.15 -6.1 -8.6 Q-6.1 -8.3 -5.5 -6.95 L-4.85 -5.5 -3.95 -3.45 -3.8 -3.15 -3.5 -2.5 -3.0 -1.65 -2.65 -1.1 -2.55 -1.05 -2.25 -1.65 Q-2.0 -2.15 -1.6 -2.45 -0.45 -3.35 2.0 -3.05 2.25 -4.45 2.4 -4.75 2.7 -5.4 3.35 -5.85 L3.05 -6.1 2.85 -6.25 1.75 -6.95 1.3 -6.35 M-4.75 -13.45 L-4.75 -13.4 -4.7 -13.15 -4.6 -12.05 Q-4.6 -11.8 -4.45 -11.25 -4.3 -10.7 -4.3 -10.25 L-4.0 -8.9 Q-4.0 -8.45 -3.2 -6.4 L-2.45 -4.7 -1.4 -4.95 Q-0.55 -5.1 0.45 -4.95 0.6 -5.35 0.9 -6.35 1.15 -6.85 1.5 -7.05 0.65 -7.35 -0.25 -7.35 L-1.3 -7.4 -2.2 -7.45 -2.45 -7.45 -3.0 -8.75 -3.05 -9.25 -3.15 -9.55 Q-3.15 -9.65 -3.2 -10.0 L-3.3 -10.45 -3.45 -12.65 -3.45 -13.5 -3.4 -13.6 -3.3 -14.45 -3.3 -14.55 Q-3.05 -15.8 -2.6 -17.2 L-2.35 -17.95 -2.7 -17.8 Q-2.85 -17.7 -3.1 -17.6 -4.0 -17.2 -4.35 -17.2 L-4.55 -17.2 -4.7 -16.7 Q-4.85 -16.15 -4.85 -15.9 L-4.75 -13.45 M-7.15 -11.4 L-7.2 -11.7 Q-7.45 -12.8 -7.5 -13.6 -7.85 -13.15 -8.25 -12.8 L-8.45 -12.55 -8.75 -12.25 -8.85 -11.8 -8.95 -11.5 -8.85 -9.95 Q-8.85 -9.75 -8.8 -9.5 L-8.65 -9.05 -8.6 -8.95 Q-8.4 -8.3 -8.4 -8.2 -8.4 -7.85 -7.05 -5.5 L-6.25 -6.15 -5.75 -6.55 Q-6.35 -8.05 -6.35 -8.45 L-6.85 -9.9 -6.85 -9.95 -7.1 -11.3 -7.15 -11.4 M-6.25 -5.5 L-6.95 -5.0 Q-7.25 -5.0 -7.4 -5.55 -7.4 -5.65 -7.45 -5.65 -7.55 -5.7 -7.55 -5.8 -7.55 -5.85 -7.95 -6.5 -8.35 -7.15 -8.35 -7.25 L-8.65 -8.25 Q-8.95 -9.3 -8.95 -9.5 L-9.05 -9.85 -9.1 -10.15 Q-9.1 -10.75 -9.3 -11.2 -9.5 -11.65 -9.5 -12.0 -10.05 -11.85 -10.55 -12.15 -10.65 -11.45 -10.65 -11.25 L-10.6 -10.45 -10.5 -9.65 -9.75 -7.45 Q-9.75 -6.55 -8.35 -5.0 -7.1 -3.6 -6.7 -3.6 L-6.0 -4.4 Q-5.4 -5.05 -5.15 -5.2 L-5.35 -5.7 -5.45 -5.85 -5.55 -6.1 -5.6 -6.05 -6.15 -5.6 -6.25 -5.5" fill="#111111" fill-rule="evenodd" stroke="none"/>
      <path d="M2.55 -14.6 L2.25 -14.95 Q1.3 -16.2 1.3 -17.6 1.3 -18.2 1.55 -18.75 L1.95 -19.55 2.3 -19.9 2.35 -19.85 3.1 -19.95 5.15 -20.1 6.0 -20.05 6.15 -20.0 6.2 -20.0 6.4 -19.7 Q6.8 -19.05 6.85 -18.3 6.85 -18.05 7.05 -17.15 L7.25 -16.2 Q7.25 -16.1 7.35 -15.9 L7.4 -15.6 Q7.4 -15.35 7.55 -14.8 L7.65 -14.3 7.75 -13.75 7.75 -13.7 7.05 -13.85 Q4.6 -14.35 2.55 -14.6 M-0.65 -14.65 L-0.5 -15.45 Q-0.45 -15.7 -0.2 -16.15 -0.2 -15.45 0.15 -14.7 L-0.3 -14.65 -0.65 -14.65 M-3.4 -13.6 L-3.4 -13.7 -3.85 -13.65 -4.75 -13.45 -4.85 -15.9 Q-4.85 -16.15 -4.7 -16.7 L-4.55 -17.2 -4.35 -17.2 Q-4.0 -17.2 -3.1 -17.6 -2.85 -17.7 -2.7 -17.8 L-2.35 -17.95 -2.6 -17.2 Q-3.05 -15.8 -3.3 -14.55 L-3.3 -14.45 -3.4 -13.6 M-8.8 -9.5 Q-8.85 -9.75 -8.85 -9.95 L-8.95 -11.5 -8.85 -11.8 -8.75 -12.25 -8.45 -12.55 -8.25 -12.8 Q-7.85 -13.15 -7.5 -13.6 -7.45 -12.8 -7.2 -11.7 L-7.15 -11.4 -7.75 -10.8 -8.7 -9.65 -8.8 -9.5" fill="#636c75" fill-rule="evenodd" stroke="none"/>
      <path d="M0.6 -21.35 L0.65 -21.35 Q0.7 -21.25 1.45 -20.55 L1.9 -20.15 1.6 -19.75 Q1.5 -19.45 1.2 -18.6 L1.2 -18.55 Q1.05 -18.05 1.05 -17.5 1.05 -16.65 1.7 -15.5 L2.2 -14.75 Q2.9 -13.9 3.05 -13.75 4.35 -12.65 5.1 -11.95 L5.65 -11.5 5.95 -11.15 6.1 -11.1 Q6.4 -10.75 6.6 -10.65 6.95 -10.25 7.15 -9.75 7.45 -9.1 7.55 -8.45 L7.55 -8.65 7.6 -8.95 Q7.65 -9.85 7.75 -10.7 L7.95 -12.25 7.8 -14.45 7.75 -15.2 7.7 -15.55 7.65 -15.95 Q7.55 -16.3 7.55 -16.4 7.55 -16.55 7.4 -17.1 L7.3 -17.7 Q7.3 -18.15 7.15 -18.65 7.0 -19.15 7.0 -19.5 7.0 -19.8 6.8 -20.1 L7.2 -20.35 Q7.75 -20.8 7.9 -20.85 8.15 -20.45 8.65 -19.2 9.05 -18.05 9.05 -17.9 9.05 -17.7 9.1 -17.45 9.2 -17.15 9.35 -16.75 L9.35 -16.65 Q9.65 -15.85 9.65 -15.45 L9.7 -15.3 9.75 -14.85 9.85 -14.25 9.85 -13.85 9.95 -12.9 Q9.95 -11.75 9.6 -9.6 9.25 -7.45 8.75 -6.8 L8.55 -5.9 8.5 -5.8 8.4 -5.55 Q7.75 -3.65 7.05 -2.05 L6.75 -2.4 6.5 -2.65 5.6 -3.7 Q4.95 -4.4 4.6 -4.95 L4.05 -5.45 2.65 -6.85 2.25 -7.1 1.25 -7.45 0.95 -7.6 0.75 -7.65 0.65 -7.65 Q-1.45 -7.65 -1.9 -7.85 L-2.05 -7.95 -2.1 -8.0 -2.1 -8.05 -2.3 -8.05 -2.3 -8.2 -2.45 -8.55 -2.65 -9.3 Q-2.65 -9.4 -2.7 -9.55 -2.8 -9.65 -2.8 -9.75 -2.8 -9.85 -2.85 -10.2 L-2.9 -10.45 -2.95 -10.65 -3.1 -12.65 -3.0 -13.75 -2.85 -14.35 -2.8 -14.7 -2.8 -14.75 -2.8 -14.55 -2.9 -13.6 -2.95 -12.65 Q-2.95 -12.4 -2.8 -11.4 L-2.7 -10.45 -2.7 -10.5 -2.5 -9.65 -2.4 -9.25 Q-2.4 -9.15 -2.25 -8.9 -2.05 -8.65 -2.05 -8.45 -2.05 -8.4 -1.95 -8.1 1.3 -8.85 4.8 -5.15 5.85 -4.0 6.9 -2.4 7.0 -2.4 7.05 -2.5 L7.15 -2.6 Q7.65 -3.65 8.6 -6.75 9.8 -10.65 9.8 -12.25 9.8 -13.8 9.35 -15.85 L8.95 -17.8 Q8.95 -18.15 8.45 -19.2 7.95 -20.25 7.75 -20.35 L7.75 -20.3 Q7.75 -20.0 8.3 -18.25 8.75 -16.6 8.75 -15.95 8.75 -15.85 8.85 -15.45 L8.9 -14.95 9.0 -13.75 Q9.0 -11.3 8.3 -8.7 7.75 -6.6 6.55 -3.9 L5.8 -4.75 5.15 -5.45 4.45 -6.3 Q2.25 -8.7 -0.35 -8.7 -1.3 -8.7 -1.65 -8.95 -1.9 -9.1 -1.9 -9.45 -1.9 -9.55 -1.95 -9.75 L-2.0 -10.05 -1.8 -12.4 Q-1.8 -15.5 -0.45 -18.9 L0.45 -21.05 0.6 -21.35 M-2.6 -15.6 L-2.6 -15.75 -2.55 -15.8 -2.55 -15.85 -2.5 -16.05 -2.45 -16.15 -2.65 -15.45 -2.6 -15.6 M0.15 -18.0 Q0.1 -17.5 0.1 -17.4 L0.25 -15.85 Q0.4 -15.15 0.75 -14.5 1.45 -13.25 3.0 -11.85 L6.2 -9.0 Q6.75 -8.45 6.9 -7.7 7.1 -6.7 7.15 -6.6 7.3 -7.1 7.3 -7.7 L7.2 -8.05 Q7.15 -8.3 7.15 -8.4 7.15 -8.85 6.05 -10.3 L6.0 -10.35 4.3 -11.8 Q2.7 -13.15 1.85 -14.3 0.6 -16.0 0.15 -18.05 L0.15 -18.0 M0.1 -15.5 Q0.05 -15.6 -0.1 -16.4 L-0.15 -16.75 -0.35 -16.35 Q-0.65 -15.7 -0.8 -14.75 L-0.8 -14.6 Q-1.15 -13.45 -1.15 -12.8 L-1.25 -10.25 -1.15 -9.9 -1.25 -9.55 Q-1.25 -9.45 -0.9 -9.4 L-0.05 -9.35 Q1.5 -9.35 4.3 -6.9 5.1 -6.2 6.0 -5.25 L6.05 -5.2 6.05 -5.1 Q6.1 -5.1 6.2 -5.05 L6.25 -5.05 6.55 -5.45 6.65 -5.7 6.65 -5.75 Q6.65 -5.85 6.75 -6.25 L6.75 -6.4 Q6.85 -6.75 6.85 -7.05 6.85 -7.45 6.65 -7.9 L6.65 -8.1 6.3 -8.6 6.25 -8.7 6.2 -8.7 6.0 -8.95 Q5.35 -9.7 3.7 -11.15 1.95 -12.6 1.35 -13.3 0.65 -14.1 0.4 -14.8 0.2 -15.15 0.1 -15.5 M1.3 -6.35 L1.95 -6.1 Q1.75 -5.75 1.75 -5.4 L1.6 -4.7 1.45 -3.95 -0.7 -4.1 Q-1.3 -4.1 -2.25 -3.65 -2.8 -3.4 -3.0 -3.2 L-3.65 -4.9 Q-4.55 -7.35 -4.55 -7.6 -4.55 -7.65 -5.1 -9.45 L-5.65 -11.3 Q-5.65 -11.45 -6.0 -13.2 L-6.25 -14.2 Q-6.4 -14.8 -6.4 -15.15 L-6.45 -15.6 -6.55 -16.05 -6.45 -16.7 -6.4 -17.35 -6.4 -17.5 -6.45 -17.55 Q-6.65 -17.3 -6.75 -16.2 -6.85 -15.35 -6.85 -14.55 -6.85 -14.0 -6.7 -12.75 L-6.6 -11.65 -6.5 -11.35 Q-6.45 -11.2 -6.45 -11.1 -6.45 -10.9 -5.95 -9.05 L-5.2 -6.45 Q-4.85 -5.35 -3.8 -3.4 -3.05 -2.05 -2.8 -1.7 L-2.8 -1.65 -2.7 -1.65 -2.65 -1.6 Q-2.5 -1.6 -2.45 -1.65 L-2.4 -1.75 -2.4 -1.75 Q-2.3 -1.9 -2.2 -2.2 -2.05 -2.6 -1.65 -2.75 L-0.55 -3.3 Q-0.05 -3.55 0.55 -3.55 L1.95 -3.45 Q1.9 -3.95 1.9 -4.2 1.95 -4.6 2.05 -4.85 2.25 -5.2 2.7 -5.55 3.05 -5.8 3.05 -6.1 L3.35 -5.85 Q2.7 -5.4 2.4 -4.75 2.25 -4.45 2.0 -3.05 -0.45 -3.35 -1.6 -2.45 -2.0 -2.15 -2.25 -1.65 L-2.55 -1.05 -2.65 -1.1 -3.0 -1.65 -3.5 -2.5 -3.8 -3.15 -3.95 -3.45 -4.85 -5.5 -5.5 -6.95 Q-6.1 -8.3 -6.1 -8.6 L-6.2 -9.15 -6.35 -9.75 -6.5 -10.25 Q-6.65 -10.7 -6.65 -10.85 L-6.8 -11.7 Q-7.0 -12.55 -7.0 -12.8 L-7.05 -13.25 -7.15 -13.7 -7.05 -14.4 -7.05 -14.45 -7.15 -14.95 -7.05 -16.25 Q-6.9 -17.5 -6.5 -17.95 L-6.35 -17.8 Q-5.8 -17.25 -5.05 -17.2 L-5.05 -17.1 -5.0 -17.1 -5.05 -17.05 Q-5.2 -16.35 -5.2 -15.85 -5.2 -15.1 -5.1 -14.3 -5.0 -13.55 -5.0 -12.95 -5.0 -12.55 -4.6 -10.6 L-4.25 -8.75 Q-4.25 -8.4 -3.95 -7.6 -3.65 -6.8 -3.65 -6.75 -3.65 -6.5 -3.15 -5.5 L-2.7 -4.6 -2.6 -4.35 -2.55 -4.4 -2.5 -4.35 Q-2.35 -4.5 -2.2 -4.5 L-2.0 -4.55 -1.5 -4.7 Q-1.1 -4.85 -0.6 -4.85 -0.15 -4.85 0.15 -4.75 0.45 -4.65 0.6 -4.65 0.7 -4.65 0.75 -4.65 L0.75 -4.7 Q0.7 -5.0 0.75 -5.35 0.75 -5.45 0.85 -5.5 0.9 -5.6 0.9 -5.7 0.9 -5.8 1.3 -6.35 M-10.35 -11.6 Q-10.55 -11.5 -10.55 -11.2 -10.55 -10.95 -10.5 -10.7 -10.4 -10.4 -10.25 -10.35 L-10.2 -10.65 -10.2 -10.95 Q-10.2 -11.15 -10.35 -11.6 M-5.15 -5.2 Q-5.4 -5.05 -6.0 -4.4 L-6.7 -3.6 Q-7.1 -3.6 -8.35 -5.0 -9.75 -6.55 -9.75 -7.45 L-10.5 -9.65 -10.6 -10.45 -10.65 -11.25 Q-10.65 -11.45 -10.55 -12.15 -10.05 -11.85 -9.5 -12.0 -9.5 -11.65 -9.3 -11.2 -9.1 -10.75 -9.1 -10.15 L-9.05 -9.85 -8.95 -9.5 Q-8.95 -9.3 -8.65 -8.25 L-8.35 -7.25 Q-8.35 -7.15 -7.95 -6.5 -7.55 -5.85 -7.55 -5.8 -7.55 -5.7 -7.45 -5.65 -7.4 -5.65 -7.4 -5.55 -7.25 -5.0 -6.95 -5.0 L-6.25 -5.5 -6.2 -5.3 -7.05 -4.65 -7.5 -5.2 -7.5 -5.25 -8.75 -7.25 Q-10.05 -9.25 -10.05 -9.45 L-10.1 -9.8 -10.15 -10.1 -10.25 -10.15 -10.25 -9.85 Q-10.25 -9.0 -9.45 -7.1 -8.85 -5.75 -8.3 -5.25 -7.25 -3.9 -6.85 -3.9 L-6.35 -4.35 Q-5.8 -4.9 -5.55 -5.05 L-5.15 -5.2" fill="#a2b2bf" fill-rule="evenodd" stroke="none"/>
      <path d="M2.55 -14.6 Q4.6 -14.35 7.05 -13.85 L7.75 -13.7 7.8 -13.15 7.8 -12.7 Q7.75 -11.4 7.4 -9.55 7.15 -10.2 6.6 -10.85 6.05 -11.5 4.45 -12.85 L3.3 -13.8 2.55 -14.6 M0.15 -14.7 L0.2 -14.6 Q0.45 -14.1 0.85 -13.55 L1.4 -12.9 Q2.1 -12.2 3.2 -11.25 L5.5 -9.15 Q6.1 -8.55 6.35 -8.05 L6.55 -7.45 6.55 -7.25 Q6.55 -7.15 6.65 -7.0 L6.65 -6.95 6.55 -6.4 6.45 -5.95 6.3 -5.8 6.1 -5.5 5.95 -5.65 Q5.0 -6.65 4.2 -7.35 1.7 -9.55 0.0 -9.55 L-0.3 -9.55 -0.5 -9.6 Q-0.7 -9.65 -0.8 -9.75 L-0.85 -9.8 -0.85 -10.1 -0.95 -10.6 Q-1.05 -11.1 -1.0 -11.6 -1.0 -12.3 -0.95 -12.9 L-0.9 -13.45 -0.9 -13.6 -0.7 -14.6 -0.65 -14.65 -0.3 -14.65 0.15 -14.7 M-3.4 -13.6 L-3.45 -13.5 -3.45 -12.65 -3.3 -10.45 -3.2 -10.0 Q-3.15 -9.65 -3.15 -9.55 L-3.05 -9.25 -3.0 -8.75 -2.45 -7.45 -2.2 -7.45 -1.3 -7.4 -0.25 -7.35 Q0.65 -7.35 1.5 -7.05 1.15 -6.85 0.9 -6.35 0.6 -5.35 0.45 -4.95 -0.55 -5.1 -1.4 -4.95 L-2.45 -4.7 -3.2 -6.4 Q-4.0 -8.45 -4.0 -8.9 L-4.3 -10.25 Q-4.3 -10.7 -4.45 -11.25 -4.6 -11.8 -4.6 -12.05 L-4.7 -13.15 -4.75 -13.4 -4.75 -13.45 -3.85 -13.65 -3.4 -13.7 -3.4 -13.6 M-8.8 -9.5 L-8.7 -9.65 -7.75 -10.8 -7.15 -11.4 -7.1 -11.3 -6.85 -9.95 -6.85 -9.9 -6.35 -8.45 Q-6.35 -8.05 -5.75 -6.55 L-6.25 -6.15 -7.05 -5.5 Q-8.4 -7.85 -8.4 -8.2 -8.4 -8.3 -8.6 -8.95 L-8.65 -9.05 -8.8 -9.5" fill="#4b5259" fill-rule="evenodd" stroke="none"/>
      <path d="M0.6 -21.35 L0.45 -21.05 -0.45 -18.9 Q-1.8 -15.5 -1.8 -12.4 L-2.0 -10.05 -1.95 -9.75 Q-1.9 -9.55 -1.9 -9.45 -1.9 -9.1 -1.65 -8.95 -1.3 -8.7 -0.35 -8.7 2.25 -8.7 4.45 -6.3 L5.15 -5.45 5.8 -4.75 6.55 -3.9 Q7.75 -6.6 8.3 -8.7 9.0 -11.3 9.0 -13.75 L8.9 -14.95 8.85 -15.45 Q8.75 -15.85 8.75 -15.95 8.75 -16.6 8.3 -18.25 7.75 -20.0 7.75 -20.3 L7.75 -20.35 Q7.95 -20.25 8.45 -19.2 8.95 -18.15 8.95 -17.8 L9.35 -15.85 Q9.8 -13.8 9.8 -12.25 9.8 -10.65 8.6 -6.75 7.65 -3.65 7.15 -2.6 L7.05 -2.5 Q7.0 -2.4 6.9 -2.4 5.85 -4.0 4.8 -5.15 1.3 -8.85 -1.95 -8.1 -2.05 -8.4 -2.05 -8.45 -2.05 -8.65 -2.25 -8.9 -2.4 -9.15 -2.4 -9.25 L-2.5 -9.65 -2.7 -10.5 -2.7 -10.45 -2.8 -11.4 Q-2.95 -12.4 -2.95 -12.65 L-2.9 -13.6 -2.8 -14.55 -2.8 -14.75 -2.65 -15.3 -2.6 -15.6 -2.65 -15.45 -2.45 -16.15 Q-2.05 -17.45 -1.35 -18.7 -0.95 -19.45 -0.15 -20.6 L0.0 -20.9 Q0.3 -21.2 0.6 -21.35 M0.15 -18.0 L0.15 -18.05 Q0.6 -16.0 1.85 -14.3 2.7 -13.15 4.3 -11.8 L6.0 -10.35 6.05 -10.3 Q7.15 -8.85 7.15 -8.4 7.15 -8.3 7.2 -8.05 L7.3 -7.7 Q7.3 -7.1 7.15 -6.6 7.1 -6.7 6.9 -7.7 6.75 -8.45 6.2 -9.0 L3.0 -11.85 Q1.45 -13.25 0.75 -14.5 0.4 -15.15 0.25 -15.85 L0.1 -17.4 Q0.1 -17.5 0.15 -18.0 M3.05 -6.1 Q3.05 -5.8 2.7 -5.55 2.25 -5.2 2.05 -4.85 1.95 -4.6 1.9 -4.2 1.9 -3.95 1.95 -3.45 L0.55 -3.55 Q-0.05 -3.55 -0.55 -3.3 L-1.65 -2.75 Q-2.05 -2.6 -2.2 -2.2 -2.3 -1.9 -2.4 -1.75 L-2.4 -1.75 -2.45 -1.65 Q-2.5 -1.6 -2.65 -1.6 L-2.7 -1.65 -2.8 -1.65 -2.8 -1.7 Q-3.05 -2.05 -3.8 -3.4 -4.85 -5.35 -5.2 -6.45 L-5.95 -9.05 Q-6.45 -10.9 -6.45 -11.1 -6.45 -11.2 -6.5 -11.35 L-6.6 -11.65 -6.7 -12.75 Q-6.85 -14.0 -6.85 -14.55 -6.85 -15.35 -6.75 -16.2 -6.65 -17.3 -6.45 -17.55 L-6.4 -17.5 -6.4 -17.35 -6.45 -16.7 -6.55 -16.05 -6.45 -15.6 -6.4 -15.15 Q-6.4 -14.8 -6.25 -14.2 L-6.0 -13.2 Q-5.65 -11.45 -5.65 -11.3 L-5.1 -9.45 Q-4.55 -7.65 -4.55 -7.6 -4.55 -7.35 -3.65 -4.9 L-3.0 -3.2 Q-2.8 -3.4 -2.25 -3.65 -1.3 -4.1 -0.7 -4.1 L1.45 -3.95 1.6 -4.7 1.75 -5.4 Q1.75 -5.75 1.95 -6.1 L1.3 -6.35 1.75 -6.95 2.85 -6.25 3.05 -6.1 M-10.35 -11.6 Q-10.2 -11.15 -10.2 -10.95 L-10.2 -10.65 -10.25 -10.35 Q-10.4 -10.4 -10.5 -10.7 -10.55 -10.95 -10.55 -11.2 -10.55 -11.5 -10.35 -11.6 M-5.15 -5.2 L-5.55 -5.05 Q-5.8 -4.9 -6.35 -4.35 L-6.85 -3.9 Q-7.25 -3.9 -8.3 -5.25 -8.85 -5.75 -9.45 -7.1 -10.25 -9.0 -10.25 -9.85 L-10.25 -10.15 -10.15 -10.1 -10.1 -9.8 -10.05 -9.45 Q-10.05 -9.25 -8.75 -7.25 L-7.5 -5.25 -7.5 -5.2 -7.05 -4.65 -6.2 -5.3 -6.25 -5.5 -6.15 -5.6 -5.6 -6.05 -5.55 -6.1 -5.45 -5.85 -5.35 -5.7 -5.15 -5.2" fill="#6c7680" fill-rule="evenodd" stroke="none"/>
    </g>
  </defs>
</svg>
