<?xml version="1.0" encoding="UTF-8" standalone="no"?>
<svg xmlns:ffdec="https://www.free-decompiler.com/flash" xmlns:xlink="http://www.w3.org/1999/xlink" ffdec:objectType="frame" height="205.65px" width="150.25px" xmlns="http://www.w3.org/2000/svg">
  <g transform="matrix(1.0, 0.0, 0.0, 1.0, 79.8, 82.15)">
    <use ffdec:characterId="79" height="2.3" transform="matrix(-2.2581, 0.1789, 0.1789, 2.2581, -15.0589, -26.6525)" width="2.3" xlink:href="#shape0"/>
    <use ffdec:characterId="79" height="2.3" transform="matrix(-2.0716, 0.1642, 0.1642, 2.0716, -9.6065, -78.6711)" width="2.3" xlink:href="#shape0"/>
    <use ffdec:characterId="79" height="2.3" transform="matrix(-2.1909, 0.1736, 0.1736, 2.1909, 7.07, -57.9192)" width="2.3" xlink:href="#shape0"/>
    <use ffdec:characterId="79" height="2.3" transform="matrix(-1.6954, 0.1343, 0.1343, 1.6954, 17.8952, -49.3041)" width="2.3" xlink:href="#shape0"/>
    <use ffdec:characterId="79" height="2.3" transform="matrix(-1.7742, 0.1406, 0.1406, 1.7742, 19.2287, -24.552)" width="2.3" xlink:href="#shape0"/>
    <use ffdec:characterId="79" height="2.3" transform="matrix(-2.0222, 0.9138, 0.9138, 2.0222, -32.4754, -14.3264)" width="2.3" xlink:href="#shape0"/>
    <use ffdec:characterId="79" height="2.3" transform="matrix(-1.8809, 0.85, 0.85, 1.8809, -48.3144, -66.9406)" width="2.3" xlink:href="#shape0"/>
    <use ffdec:characterId="79" height="2.3" transform="matrix(-1.9827, 0.8959, 0.8959, 1.9827, -26.3002, -53.3104)" width="2.3" xlink:href="#shape0"/>
    <use ffdec:characterId="79" height="2.3" transform="matrix(-1.5186, 0.6862, 0.6862, 1.5186, -12.7928, -49.1856)" width="2.3" xlink:href="#shape0"/>
    <use ffdec:characterId="79" height="2.3" transform="matrix(-1.5638, 0.7067, 0.7067, 1.5638, -0.3644, -22.3611)" width="2.3" xlink:href="#shape0"/>
    <use ffdec:characterId="79" height="2.3" transform="matrix(-1.6431, -1.3508, -1.3508, 1.6431, 33.5929, -34.6361)" width="2.3" xlink:href="#shape0"/>
    <use ffdec:characterId="79" height="2.3" transform="matrix(-1.5787, -1.2979, -1.2979, 1.5787, 69.858, -73.5229)" width="2.3" xlink:href="#shape0"/>
    <use ffdec:characterId="79" height="2.3" transform="matrix(-1.6533, -1.3593, -1.3593, 1.6533, 66.9645, -49.3382)" width="2.3" xlink:href="#shape0"/>
    <use ffdec:characterId="79" height="2.3" transform="matrix(-1.2415, -1.0208, -1.0208, 1.2415, 70.4516, -35.2038)" width="2.3" xlink:href="#shape0"/>
    <use ffdec:characterId="79" height="2.3" transform="matrix(-1.2272, -1.009, -1.009, 1.2272, 43.6216, -7.8009)" width="2.3" xlink:href="#shape0"/>
  </g>
  <defs>
    <g id="shape0" transform="matrix(1.0, 0.0, 0.0, 1.0, 1.15, 1.15)">
      <path d="M0.8 -0.85 Q1.15 -0.5 1.15 0.0 1.15 0.5 0.8 0.8 0.5 1.15 0.0 1.15 -0.5 1.15 -0.85 0.8 -1.15 0.5 -1.15 0.0 -1.15 -0.5 -0.85 -0.85 -0.5 -1.15 0.0 -1.15 0.5 -1.15 0.8 -0.85" fill="#e8f6fb" fill-opacity="0.34117648" fill-rule="evenodd" stroke="none"/>
    </g>
  </defs>
</svg>
