<?xml version="1.0" encoding="UTF-8" standalone="no"?>
<svg xmlns:ffdec="https://www.free-decompiler.com/flash" xmlns:xlink="http://www.w3.org/1999/xlink" ffdec:objectType="frame" height="80.4px" width="270.5px" xmlns="http://www.w3.org/2000/svg">
  <g transform="matrix(1.0, 0.0, 0.0, 1.0, 0.0, 0.0)">
    <use ffdec:characterId="855" height="80.4" transform="matrix(1.0, 0.0, 0.0, 1.0, 0.0, 0.0)" width="270.5" xlink:href="#shape0"/>
  </g>
  <defs>
    <g id="shape0" transform="matrix(1.0, 0.0, 0.0, 1.0, 0.0, 0.0)">
      <path d="M241.85 15.35 L243.25 15.4 244.6 16.05 Q245.0 16.5 245.0 18.15 L244.85 18.9 241.85 15.35 M8.75 32.75 Q5.35 31.15 3.65 29.25 L4.3 29.05 Q5.4 30.3 6.2 30.75 7.65 31.6 9.75 32.05 L8.75 32.75 M2.0 25.45 L2.0 25.15 Q2.0 22.5 2.2 21.75 2.55 20.6 3.5 19.85 L2.65 23.25 2.0 25.45 M243.0 26.15 L243.65 27.75 245.3 31.9 245.25 31.9 240.25 31.9 230.25 28.2 228.0 27.1 229.0 27.15 230.9 27.05 231.5 26.4 Q230.05 25.65 229.35 24.15 L228.35 22.6 Q231.75 22.1 237.3 23.95 L243.0 26.15 M102.3 46.7 Q92.95 48.2 90.0 49.15 L86.4 49.25 99.85 47.05 102.3 46.7 M38.3 50.55 L33.5 50.65 30.75 50.05 38.3 50.55 M11.3 33.85 L12.35 32.5 16.0 32.65 27.15 34.05 36.25 34.65 41.15 34.6 49.0 34.9 Q51.5 37.4 57.4 37.8 L76.75 37.9 79.65 37.85 78.55 37.9 59.75 39.15 Q25.6 39.15 11.3 33.85 M100.5 37.3 L119.25 37.15 129.5 34.7 149.9 30.1 Q182.15 23.65 209.75 23.65 219.65 23.65 223.65 25.4 L226.0 26.6 226.25 26.7 225.25 27.4 215.7 27.7 205.25 28.4 180.5 28.9 Q176.95 30.3 165.25 30.9 163.15 34.05 156.4 35.2 L150.95 35.65 145.5 35.9 144.95 36.15 Q128.75 37.55 124.0 38.65 L122.4 39.0 103.25 38.15 Q102.8 38.15 100.75 37.4 L100.5 37.3 M247.45 46.4 Q246.0 46.3 244.95 45.4 L244.2 44.6 242.15 45.5 242.5 45.9 Q242.3 45.95 242.0 46.6 241.75 47.15 241.05 47.5 L238.25 45.9 Q237.1 45.9 235.55 46.6 L233.0 46.9 232.7 48.9 230.6 49.0 228.55 49.95 225.15 51.15 217.65 50.15 Q217.25 49.4 216.55 49.15 L208.25 46.15 202.25 46.15 202.25 46.65 192.55 47.55 185.15 47.8 173.65 48.15 170.3 47.95 162.75 47.65 153.35 46.8 140.65 45.45 173.5 41.65 205.25 41.15 Q221.05 38.8 237.5 39.75 L249.9 40.95 250.4 42.2 Q247.75 42.45 246.5 45.65 L247.45 46.4 M235.4 15.1 Q238.05 16.95 238.5 17.65 L241.05 21.9 227.4 21.9 Q223.1 19.45 201.25 19.15 L201.25 19.65 Q172.75 22.6 151.65 26.4 142.6 28.05 119.25 33.15 L88.25 33.4 77.1 33.9 37.25 30.65 Q24.45 31.3 14.85 30.0 8.15 29.1 5.55 27.7 5.9 23.4 7.3 18.9 L12.25 18.9 Q19.7 20.95 30.8 22.2 L49.25 24.15 55.25 24.15 Q56.15 23.8 56.7 23.0 L57.05 22.5 71.45 22.75 72.3 23.3 Q76.6 25.15 96.75 25.15 L98.05 24.95 102.75 25.4 111.55 24.55 Q124.3 23.65 131.35 22.1 L147.4 20.0 147.65 20.0 Q148.2 20.4 149.25 20.4 L155.55 19.8 168.25 18.15 178.6 16.35 Q189.45 14.65 197.25 14.65 L222.0 15.65 226.15 16.55 231.25 17.4 233.75 16.9 Q235.05 16.3 235.4 15.1 M240.7 44.7 L240.8 43.4 236.75 43.4 239.45 44.2 240.7 44.7 M124.85 47.15 L105.05 50.65 84.1 54.25 Q82.95 53.4 81.0 53.4 L80.6 54.75 67.25 55.9 37.5 54.4 34.25 53.75 31.0 52.9 Q25.2 52.6 21.95 52.7 L18.1 52.9 15.75 52.55 15.0 51.9 15.0 51.85 Q16.8 51.0 17.15 50.05 L21.8 51.0 Q33.1 53.4 50.25 53.4 L62.25 52.65 89.25 52.65 Q95.5 50.4 124.85 47.15" fill="#54748b" fill-rule="evenodd" stroke="none"/>
      <path d="M263.45 56.3 L259.75 56.65 259.95 56.6 263.45 56.3 M249.25 55.15 L246.6 53.5 248.0 53.65 249.25 55.15 M240.6 50.3 L238.25 50.15 237.35 50.2 239.75 48.65 Q239.8 49.35 240.6 50.3 M234.5 50.85 Q231.65 51.75 227.95 53.85 224.3 55.9 221.15 54.7 L220.5 52.9 Q223.25 52.4 224.25 51.9 L228.35 51.55 226.8 51.5 225.15 51.15 228.55 49.95 230.6 49.0 232.7 48.9 Q231.95 51.05 229.3 51.45 L234.5 50.85 M195.05 61.85 L182.75 59.15 179.75 58.8 178.75 56.4 Q184.8 56.85 195.05 61.85 M183.5 72.25 L183.75 73.65 Q183.75 76.15 183.5 75.9 L183.5 72.25 M148.45 56.6 L145.05 55.6 136.85 53.5 143.0 53.4 148.45 56.6 M107.75 56.35 L101.9 58.05 93.7 60.95 Q99.45 58.1 107.75 56.35 M86.85 63.15 L85.75 63.4 82.95 63.15 86.85 63.15 M32.6 58.15 Q31.75 59.05 31.25 59.15 L22.75 60.05 22.5 60.1 24.0 58.4 31.75 58.15 32.6 58.15 M19.1 59.85 L17.3 58.0 16.75 57.4 18.25 57.15 Q18.4 58.05 18.9 59.4 L19.1 59.85 M6.6 53.4 L6.5 52.4 Q7.0 51.9 9.3 51.3 L11.35 50.85 7.4 52.95 6.6 53.4 M37.1 3.6 L44.8 4.6 55.9 6.45 43.6 4.7 37.1 3.6 M85.4 9.6 L94.1 9.05 96.25 9.15 103.1 9.4 Q123.2 9.4 143.15 6.9 155.8 5.3 169.85 2.6 L178.6 1.9 178.2 1.95 Q139.4 8.3 123.75 9.9 L90.5 9.9 85.4 9.6 M209.35 0.1 Q223.75 -0.1 229.9 4.9 L232.0 6.95 Q228.3 4.55 224.25 2.9 218.85 0.6 209.35 0.1 M243.0 26.15 L237.3 23.95 Q231.75 22.1 228.35 22.6 L227.4 21.9 241.05 21.9 243.0 26.15 M228.0 27.1 L230.25 28.2 240.25 31.9 245.25 31.9 245.3 31.9 245.75 32.95 241.5 32.3 215.75 31.15 Q197.25 31.15 197.25 31.4 L196.0 31.65 195.5 31.9 186.85 33.2 171.25 34.15 156.4 35.2 Q163.15 34.05 165.25 30.9 176.95 30.3 180.5 28.9 L205.25 28.4 215.7 27.7 225.25 27.4 226.25 26.7 228.0 27.1 M247.1 36.55 L247.15 36.65 246.85 36.65 247.1 36.55 M215.9 35.4 L205.75 36.65 191.65 36.9 215.9 35.4 M128.5 43.15 L115.3 44.9 102.3 46.7 99.85 47.05 86.4 49.25 74.45 49.45 Q88.85 47.3 128.5 43.15 M44.0 50.35 L38.3 50.55 30.75 50.05 Q15.1 46.65 10.25 45.9 L9.45 45.35 8.5 44.7 8.5 44.3 Q16.2 47.7 34.5 49.55 L44.0 50.35 M8.5 40.3 L8.5 38.15 Q9.05 36.45 10.65 34.6 L11.3 33.85 Q25.6 39.15 59.75 39.15 L78.55 37.9 79.65 37.85 87.75 37.4 100.5 37.3 100.75 37.4 Q102.8 38.15 103.25 38.15 L122.4 39.0 Q114.85 40.55 90.85 43.8 L64.75 47.15 48.0 45.75 28.75 44.15 Q26.4 41.8 20.3 40.6 L14.25 39.9 9.8 40.15 8.5 40.3 M248.05 36.6 L248.05 36.65 247.9 36.65 248.05 36.6 M241.05 47.5 Q241.75 47.15 242.0 46.6 242.3 45.95 242.5 45.9 L242.15 45.5 244.2 44.6 244.95 45.4 Q246.0 46.3 247.45 46.4 254.3 51.8 260.3 53.45 L257.1 53.75 252.75 54.4 245.5 50.15 241.05 47.5 M250.4 42.2 L249.9 40.95 249.95 40.95 251.2 42.2 250.4 42.2 M140.65 45.45 L153.35 46.8 162.75 47.65 Q157.5 47.45 155.25 47.65 L155.25 49.9 Q171.65 53.05 174.3 61.65 175.05 64.05 175.7 68.95 L176.6 71.8 Q170.05 66.35 163.4 62.1 146.35 51.15 129.25 51.15 118.4 51.15 104.75 54.7 92.75 57.85 89.25 60.4 L87.6 60.5 89.5 58.9 Q86.65 57.3 84.7 54.85 L84.1 54.25 105.05 50.65 124.85 47.15 128.95 46.7 140.65 45.45 M173.65 48.15 L185.15 47.8 192.55 47.55 190.05 47.85 182.75 48.65 173.65 48.15 M8.9 14.55 Q12.85 4.9 19.25 4.9 L35.15 6.0 47.5 8.6 Q65.6 12.8 90.25 13.9 L123.25 13.9 170.6 8.05 Q204.3 3.9 215.1 3.9 218.15 3.9 228.25 10.35 L231.3 12.35 215.8 11.85 196.4 10.05 Q172.1 7.8 159.0 11.65 153.2 13.3 140.05 15.35 118.6 18.65 98.25 18.65 L90.4 17.9 83.25 17.15 61.85 15.85 53.75 15.15 Q38.35 15.15 30.55 13.65 22.7 12.15 18.75 12.15 15.9 12.15 12.65 13.05 10.4 13.65 8.9 14.55 M7.3 18.9 L7.75 17.5 12.25 18.9 7.3 18.9 M240.7 44.7 L239.45 44.2 236.75 43.4 240.8 43.4 240.7 44.7 M178.9 53.95 L179.0 53.65 183.95 53.15 190.75 52.65 Q209.2 52.65 217.65 63.05 L222.3 70.15 223.45 71.75 221.9 70.75 218.75 68.15 216.25 67.85 Q214.3 66.0 213.25 65.65 L205.1 63.95 198.4 60.75 Q185.9 54.45 178.9 53.95 M227.3 73.3 Q227.85 73.2 228.1 72.9 L228.3 73.1 228.25 73.15 227.35 73.35 227.3 73.3 M180.45 75.15 L180.5 75.1 180.9 74.75 181.0 75.65 180.45 75.15 M147.65 20.0 L147.4 20.0 131.35 22.1 134.3 21.35 139.8 19.5 Q142.75 18.65 147.0 18.4 147.0 19.45 147.65 20.0 M111.55 24.55 L102.75 25.4 98.05 24.95 98.95 24.3 99.25 23.4 Q99.25 23.8 99.8 24.3 100.35 24.8 101.25 25.15 L111.55 24.55 M71.45 22.75 L57.05 22.5 57.25 21.65 65.25 21.4 Q68.75 21.4 70.05 22.0 L71.45 22.75 M78.45 57.55 Q71.4 55.9 48.25 55.9 L47.3 55.95 37.25 55.9 Q35.1 55.9 34.0 56.7 L32.7 56.7 24.25 56.4 21.25 58.9 Q19.6 56.65 16.95 56.1 L7.8 55.65 7.55 55.45 8.25 54.9 Q11.25 53.4 15.0 51.9 L15.75 52.55 18.1 52.9 21.95 52.7 Q25.2 52.6 31.0 52.9 L34.25 53.75 37.5 54.4 67.25 55.9 80.6 54.75 Q80.05 55.95 79.0 56.95 L78.45 57.55 M144.95 36.15 L145.5 35.9 150.95 35.65 144.95 36.15" fill="#60859f" fill-rule="evenodd" stroke="none"/>
      <path d="M249.15 34.95 L249.25 35.15 249.1 35.15 249.15 34.95 M256.9 44.5 L262.05 47.8 Q265.45 49.8 267.5 49.65 L267.9 50.1 268.5 51.1 Q261.85 49.05 256.9 44.5 M79.3 60.85 L78.0 60.4 77.75 60.8 Q77.55 60.85 77.55 60.1 L79.3 60.85 M6.0 43.0 L5.5 42.65 Q5.5 42.05 6.0 41.35 L6.0 42.15 6.0 43.0 M245.75 32.95 L247.1 36.55 246.85 36.65 237.85 36.05 231.3 35.0 Q226.0 34.4 215.95 35.4 L215.9 35.4 191.65 36.9 173.25 37.15 Q166.75 38.45 129.5 43.0 L128.5 43.15 Q88.85 47.3 74.45 49.45 L62.25 49.65 44.0 50.35 34.5 49.55 Q16.2 47.7 8.5 44.3 L8.5 40.3 9.8 40.15 14.25 39.9 20.3 40.6 Q26.4 41.8 28.75 44.15 L48.0 45.75 64.75 47.15 90.85 43.8 Q114.85 40.55 122.4 39.0 L124.0 38.65 Q128.75 37.55 144.95 36.15 L150.95 35.65 156.4 35.2 171.25 34.15 186.85 33.2 195.5 31.9 196.0 31.65 197.25 31.4 Q197.25 31.15 215.75 31.15 L241.5 32.3 245.75 32.95 M247.45 46.4 L246.5 45.65 Q247.75 42.45 250.4 42.2 L251.2 42.2 Q252.9 43.8 255.55 46.05 263.35 52.7 267.0 53.65 L263.5 53.65 260.3 53.45 Q254.3 51.8 247.45 46.4 M162.75 47.65 L170.3 47.95 173.65 48.15 182.75 48.65 190.05 47.85 192.55 47.55 202.25 46.65 202.25 46.15 208.25 46.15 216.55 49.15 Q217.25 49.4 217.65 50.15 L216.0 50.15 221.65 62.3 Q224.9 69.05 228.1 72.9 227.85 73.2 227.3 73.3 225.25 72.75 223.45 71.75 L222.3 70.15 217.65 63.05 Q209.2 52.65 190.75 52.65 L183.95 53.15 179.0 53.65 178.9 53.95 177.75 53.9 175.65 54.05 175.0 54.15 178.65 65.0 Q180.45 70.9 180.9 74.75 L180.5 75.1 180.45 75.15 176.6 71.8 175.7 68.95 Q175.05 64.05 174.3 61.65 171.65 53.05 155.25 49.9 L155.25 47.65 Q157.5 47.45 162.75 47.65 M8.9 14.55 Q10.4 13.65 12.65 13.05 15.9 12.15 18.75 12.15 22.7 12.15 30.55 13.65 38.35 15.15 53.75 15.15 L61.85 15.85 83.25 17.15 90.4 17.9 98.25 18.65 Q118.6 18.65 140.05 15.35 153.2 13.3 159.0 11.65 172.1 7.8 196.4 10.05 L215.8 11.85 231.3 12.35 235.4 15.1 Q235.05 16.3 233.75 16.9 L231.25 17.4 226.15 16.55 222.0 15.65 197.25 14.65 Q189.45 14.65 178.6 16.35 L168.25 18.15 155.55 19.8 149.25 20.4 Q148.2 20.4 147.65 20.0 147.0 19.45 147.0 18.4 142.75 18.65 139.8 19.5 L134.3 21.35 131.35 22.1 Q124.3 23.65 111.55 24.55 L101.25 25.15 Q100.35 24.8 99.8 24.3 99.25 23.8 99.25 23.4 L98.95 24.3 98.05 24.95 96.75 25.15 Q76.6 25.15 72.3 23.3 L71.45 22.75 70.05 22.0 Q68.75 21.4 65.25 21.4 L57.25 21.65 57.05 22.5 56.7 23.0 Q56.15 23.8 55.25 24.15 L49.25 24.15 30.8 22.2 Q19.7 20.95 12.25 18.9 L7.75 17.5 8.65 15.1 8.9 14.55 M84.1 54.25 L84.7 54.85 Q86.65 57.3 89.5 58.9 L87.6 60.5 84.5 60.65 Q82.0 60.7 81.8 59.95 81.5 58.7 80.85 58.35 80.1 57.9 78.45 57.55 L79.0 56.95 Q80.05 55.95 80.6 54.75 L81.0 53.4 Q82.95 53.4 84.1 54.25" fill="#667aa8" fill-rule="evenodd" stroke="none"/>
      <path d="M244.85 18.9 Q249.5 25.0 249.5 30.15 L249.15 34.95 249.1 35.15 249.25 35.15 249.75 35.15 249.95 35.5 250.0 35.25 Q250.4 33.6 252.25 33.15 253.4 33.6 253.7 34.0 254.25 34.6 254.25 36.3 254.25 37.0 253.15 38.8 L252.65 39.55 Q254.25 41.8 255.8 43.4 L256.9 44.5 Q261.85 49.05 268.5 51.1 L268.75 51.15 269.9 52.2 Q270.5 52.95 270.5 54.55 270.5 57.05 270.25 55.65 L269.25 56.4 Q266.45 56.1 263.45 56.3 L259.95 56.6 259.75 56.65 254.25 57.4 Q251.55 57.4 249.25 55.15 L248.0 53.65 246.6 53.5 243.5 53.15 241.2 50.9 240.6 50.3 Q239.8 49.35 239.75 48.65 L237.35 50.2 236.75 50.4 234.5 50.85 229.3 51.45 Q231.95 51.05 232.7 48.9 L233.0 46.9 235.55 46.6 Q237.1 45.9 238.25 45.9 L241.05 47.5 245.5 50.15 252.75 54.4 257.1 53.75 260.3 53.45 263.5 53.65 267.0 53.65 Q263.35 52.7 255.55 46.05 252.9 43.8 251.2 42.2 L249.95 40.95 249.9 40.95 237.5 39.75 Q221.05 38.8 205.25 41.15 L173.5 41.65 140.65 45.45 128.95 46.7 124.85 47.15 Q95.5 50.4 89.25 52.65 L62.25 52.65 50.25 53.4 Q33.1 53.4 21.8 51.0 L17.15 50.05 Q16.8 51.0 15.0 51.85 L15.0 51.9 Q11.25 53.4 8.25 54.9 L7.55 55.45 7.25 55.65 7.8 55.65 16.95 56.1 Q19.6 56.65 21.25 58.9 L24.25 56.4 32.7 56.7 34.0 56.7 47.0 56.65 46.7 56.3 Q46.7 56.05 47.3 55.95 L48.25 55.9 Q71.4 55.9 78.45 57.55 80.1 57.9 80.85 58.35 81.5 58.7 81.8 59.95 82.0 60.7 84.5 60.65 L87.6 60.5 89.25 60.4 Q92.75 57.85 104.75 54.7 118.4 51.15 129.25 51.15 146.35 51.15 163.4 62.1 170.05 66.35 176.6 71.8 L180.45 75.15 181.0 75.65 180.9 74.75 Q180.45 70.9 178.65 65.0 L175.0 54.15 175.65 54.05 177.75 53.9 178.9 53.95 Q185.9 54.45 198.4 60.75 L205.1 63.95 Q211.85 66.95 216.25 67.85 L218.75 68.15 221.9 70.75 223.45 71.75 Q225.25 72.75 227.3 73.3 L227.35 73.35 228.75 73.65 228.3 73.1 228.1 72.9 Q224.9 69.05 221.65 62.3 L216.0 50.15 217.65 50.15 225.15 51.15 226.8 51.5 228.35 51.55 224.25 51.9 Q223.25 52.4 220.5 52.9 L221.15 54.7 Q222.5 57.95 226.7 64.6 231.7 72.55 231.5 76.15 L231.8 76.8 Q231.8 77.4 230.25 77.4 225.05 77.4 218.25 70.9 209.6 69.25 196.9 62.75 L195.05 61.85 Q184.8 56.85 178.75 56.4 L179.75 58.8 181.15 63.35 183.5 71.4 183.5 72.25 183.5 75.9 183.5 79.65 183.7 80.05 Q183.8 80.4 182.25 80.4 180.45 80.4 173.65 74.0 166.2 66.95 164.5 66.15 163.1 65.5 152.95 59.3 L148.45 56.6 143.0 53.4 136.85 53.5 Q119.65 53.85 107.75 56.35 99.45 58.1 93.7 60.95 91.55 61.95 89.75 63.15 L86.85 63.15 82.95 63.15 82.5 63.15 Q81.05 61.85 79.55 61.0 L79.3 60.85 77.55 60.1 Q75.35 59.3 72.5 59.15 L43.95 58.15 32.6 58.15 31.75 58.15 24.0 58.4 22.5 60.1 Q21.1 61.4 19.75 61.65 L19.1 59.85 18.9 59.4 Q18.4 58.05 18.25 57.15 L16.75 57.4 8.75 58.35 Q3.85 58.85 2.25 59.4 L0.45 59.55 Q0.0 59.6 0.0 58.05 0.0 57.05 6.6 53.4 L7.4 52.95 11.35 50.85 14.15 49.45 6.5 48.15 Q6.05 46.8 6.0 43.0 L6.0 42.15 6.0 41.35 Q6.05 36.65 6.4 35.7 6.95 34.1 8.75 32.75 L9.75 32.05 Q7.65 31.6 6.2 30.75 5.4 30.3 4.3 29.05 L3.65 29.25 2.5 29.4 1.85 28.95 1.75 27.15 2.0 25.45 2.65 23.25 3.5 19.85 3.5 19.3 Q3.5 17.0 8.5 9.15 14.05 0.4 17.75 0.4 L37.1 3.6 43.6 4.7 55.9 6.45 85.4 9.6 90.5 9.9 123.75 9.9 Q139.4 8.3 178.2 1.95 L178.6 1.9 Q197.3 -0.5 209.35 0.1 218.85 0.6 224.25 2.9 228.3 4.55 232.0 6.95 236.95 10.2 241.4 14.85 L241.85 15.35 244.85 18.9 M245.3 31.9 L243.65 27.75 243.0 26.15 241.05 21.9 238.5 17.65 Q238.05 16.95 235.4 15.1 L231.3 12.35 228.25 10.35 Q218.15 3.9 215.1 3.9 204.3 3.9 170.6 8.05 L123.25 13.9 90.25 13.9 Q65.6 12.8 47.5 8.6 L35.15 6.0 19.25 4.9 Q12.85 4.9 8.9 14.55 L8.65 15.1 7.75 17.5 7.3 18.9 Q5.9 23.4 5.55 27.7 8.15 29.1 14.85 30.0 24.45 31.3 37.25 30.65 L77.1 33.9 88.25 33.4 119.25 33.15 Q142.6 28.05 151.65 26.4 172.75 22.6 201.25 19.65 L201.25 19.15 Q223.1 19.45 227.4 21.9 L228.35 22.6 229.35 24.15 Q230.05 25.65 231.5 26.4 L230.9 27.05 229.0 27.15 228.0 27.1 226.25 26.7 226.0 26.6 223.65 25.4 Q219.65 23.65 209.75 23.65 182.15 23.65 149.9 30.1 L129.5 34.7 119.25 37.15 100.5 37.3 87.75 37.4 79.65 37.85 76.75 37.9 57.4 37.8 Q51.5 37.4 49.0 34.9 L41.15 34.6 36.25 34.65 27.15 34.05 16.0 32.65 12.35 32.5 11.3 33.85 10.65 34.6 Q9.05 36.45 8.5 38.15 L8.5 40.3 8.5 44.3 8.5 44.7 8.5 45.65 10.25 45.9 Q15.1 46.65 30.75 50.05 L33.5 50.65 38.3 50.55 44.0 50.35 62.25 49.65 74.45 49.45 86.4 49.25 90.0 49.15 Q92.95 48.2 102.3 46.7 L115.3 44.9 128.5 43.15 129.5 43.0 Q166.75 38.45 173.25 37.15 L191.65 36.9 205.75 36.65 215.9 35.4 215.95 35.4 Q226.0 34.4 231.3 35.0 L237.85 36.05 246.85 36.65 247.15 36.65 247.1 36.55 245.75 32.95 245.3 31.9 M248.05 36.6 L247.9 36.65 248.05 36.65 248.05 36.6" fill="#416083" fill-rule="evenodd" stroke="none"/>
    </g>
  </defs>
</svg>
