<?xml version="1.0" encoding="UTF-8" standalone="no"?>
<svg xmlns:ffdec="https://www.free-decompiler.com/flash" xmlns:xlink="http://www.w3.org/1999/xlink" ffdec:objectType="frame" height="916.65px" width="967.75px" xmlns="http://www.w3.org/2000/svg">
  <g transform="matrix(1.0, 0.0, 0.0, 1.0, 600.95, 892.85)">
    <use ffdec:characterId="4279" height="98.25" transform="matrix(7.0, 0.0, 0.0, 7.0, -243.95, -836.15)" width="54.95" xlink:href="#shape0"/>
  </g>
  <defs>
    <g id="shape0" transform="matrix(1.0, 0.0, 0.0, 1.0, 34.85, 119.45)">
      <path d="M-7.6 -25.9 L-7.55 -25.95 Q-7.35 -26.0 -7.25 -26.1 L-7.05 -26.3 -6.95 -26.3 Q-6.8 -26.3 -6.75 -26.2 L-6.65 -26.15 Q-6.55 -26.2 -6.5 -26.1 L-6.45 -26.05 -6.45 -25.9 Q-6.45 -25.65 -6.65 -25.45 L-6.75 -25.4 -6.8 -25.35 -6.85 -25.35 Q-6.9 -25.35 -6.9 -25.4 L-6.95 -25.4 -6.95 -25.6 Q-6.95 -25.8 -6.9 -25.85 L-6.9 -25.9 -6.95 -25.9 -7.05 -25.8 -7.25 -25.65 Q-7.2 -25.5 -7.25 -25.35 -7.3 -25.1 -7.6 -25.05 L-7.65 -25.05 -7.7 -25.1 -7.75 -25.1 -7.8 -25.2 -7.8 -25.3 -7.75 -25.4 -7.7 -25.45 -7.6 -25.5 -7.55 -25.55 -7.6 -25.55 -7.7 -25.6 -7.75 -25.65 -7.75 -25.75 -7.65 -25.9 -7.6 -25.9 M-6.85 -25.9 L-6.9 -25.9 -6.85 -25.85 -6.85 -25.9 M-9.4 -24.8 L-9.25 -24.8 -9.15 -24.75 Q-9.1 -24.7 -9.1 -24.65 L-9.1 -24.55 -9.05 -24.55 Q-8.85 -24.55 -8.8 -24.4 L-8.8 -24.35 Q-8.85 -24.3 -8.95 -24.2 L-9.05 -24.15 -9.1 -24.1 -9.3 -24.1 Q-9.35 -24.15 -9.4 -24.15 L-9.45 -24.25 -9.45 -24.35 -9.65 -24.25 Q-9.7 -24.2 -9.75 -24.2 L-9.8 -24.2 -9.9 -24.3 -9.9 -24.4 Q-9.85 -24.55 -9.7 -24.65 L-9.5 -24.8 -9.4 -24.8 M-10.1 -23.5 Q-10.1 -23.4 -10.2 -23.25 L-10.25 -23.25 Q-10.35 -23.05 -10.45 -23.05 L-10.45 -23.0 -10.55 -23.0 -10.65 -23.05 -10.7 -23.1 -10.75 -23.1 -10.75 -23.2 -10.7 -23.3 -10.55 -23.5 -10.4 -23.65 -10.4 -23.7 -10.35 -23.75 Q-10.25 -23.8 -10.15 -23.75 -10.1 -23.75 -10.1 -23.65 L-10.1 -23.5 M-11.2 -23.25 L-11.2 -23.05 Q-11.2 -23.0 -11.25 -22.95 L-11.3 -22.95 Q-11.3 -22.9 -11.35 -22.9 L-11.55 -22.9 Q-11.7 -23.0 -11.7 -23.05 L-11.7 -23.1 -11.65 -23.2 Q-11.45 -23.4 -11.3 -23.35 L-11.25 -23.35 -11.2 -23.25" fill="#00ffff" fill-opacity="0.5019608" fill-rule="evenodd" stroke="none"/>
      <path d="M-7.4 -25.4 Q-7.4 -25.25 -7.6 -25.2 L-7.7 -25.3 -7.55 -25.4 Q-7.4 -25.5 -7.4 -25.55 -7.4 -25.65 -7.45 -25.65 L-7.6 -25.7 -7.55 -25.8 Q-7.3 -25.85 -7.15 -26.0 L-7.0 -26.2 Q-6.9 -26.15 -6.9 -26.05 L-6.6 -26.0 -6.6 -25.9 Q-6.6 -25.7 -6.75 -25.55 L-6.8 -25.55 -6.8 -25.5 -6.85 -25.6 -6.8 -25.8 -6.7 -25.9 -6.7 -25.95 -6.75 -26.0 -6.95 -26.05 -7.15 -25.9 Q-7.35 -25.75 -7.45 -25.7 -7.35 -25.55 -7.4 -25.4 M-9.3 -24.6 L-9.55 -24.45 -9.75 -24.35 Q-9.7 -24.45 -9.6 -24.55 L-9.45 -24.7 -9.25 -24.65 -9.25 -24.4 -9.05 -24.45 -8.95 -24.4 Q-8.95 -24.35 -9.05 -24.3 L-9.15 -24.25 -9.3 -24.25 -9.3 -24.6 M-11.55 -23.1 Q-11.4 -23.25 -11.35 -23.25 L-11.35 -23.05 -11.45 -23.0 -11.55 -23.1 M-10.25 -23.6 L-10.25 -23.5 Q-10.25 -23.45 -10.35 -23.3 -10.45 -23.2 -10.5 -23.15 L-10.6 -23.2 -10.45 -23.4 -10.25 -23.6" fill="#ffffff" fill-rule="evenodd" stroke="none"/>
      <path d="M-28.95 -119.3 Q-28.6 -118.65 -28.35 -117.85 -28.1 -116.95 -28.1 -116.5 -28.05 -115.5 -28.7 -114.2 L-29.0 -112.9 Q-29.25 -111.55 -29.25 -111.3 -29.25 -109.95 -28.4 -108.45 -27.4 -106.6 -25.65 -105.9 L-25.55 -105.8 -25.5 -105.7 -25.5 -105.6 -22.25 -105.15 -20.2 -104.9 -20.15 -104.9 Q-19.1 -104.9 -18.4 -105.3 -17.5 -105.8 -17.45 -105.8 -13.8 -105.8 -12.05 -105.3 -10.6 -104.95 -6.9 -103.2 -4.6 -102.1 -4.1 -101.5 -3.7 -101.05 -3.7 -99.65 -3.7 -99.15 -3.3 -98.9 -3.05 -98.7 -2.1 -98.45 0.3 -97.85 1.45 -96.35 3.1 -94.45 3.3 -94.1 3.5 -93.85 3.5 -92.4 3.5 -92.1 3.3 -91.7 3.15 -91.45 3.15 -91.25 3.15 -90.3 3.75 -88.85 4.2 -87.8 4.75 -86.9 4.8 -86.8 4.8 -86.7 L4.7 -86.55 6.0 -85.1 Q6.6 -84.35 6.95 -83.0 7.2 -81.95 7.25 -80.95 L7.4 -78.0 7.5 -77.1 Q7.5 -76.25 7.1 -74.6 6.75 -73.15 6.8 -72.35 L6.8 -72.25 Q6.75 -71.95 6.3 -71.85 L6.1 -71.85 6.0 -72.0 5.95 -72.05 5.95 -72.1 5.9 -72.2 5.75 -72.25 Q5.6 -72.3 5.5 -72.35 L5.3 -72.35 Q5.1 -71.75 5.75 -70.65 6.3 -69.65 7.05 -68.9 9.65 -68.1 11.0 -67.25 12.35 -66.4 13.25 -64.95 13.5 -64.6 15.05 -62.55 15.7 -61.7 15.7 -60.6 L15.7 -60.1 Q15.65 -59.95 15.6 -59.8 L15.5 -59.7 Q15.4 -59.7 15.35 -59.7 L15.15 -59.65 15.15 -59.1 Q15.3 -58.6 15.4 -57.8 15.5 -57.0 15.5 -56.65 15.5 -56.05 15.25 -55.8 15.0 -55.45 14.2 -55.25 L13.95 -55.2 13.8 -54.45 Q13.65 -53.75 13.6 -53.4 13.55 -53.15 13.7 -52.55 13.8 -51.8 13.8 -51.6 L13.8 -51.2 Q13.8 -51.1 13.7 -50.85 L15.0 -46.55 15.15 -46.0 15.4 -45.45 15.45 -45.4 15.55 -44.75 15.55 -44.6 Q15.9 -43.15 16.25 -41.3 16.9 -37.7 17.25 -35.95 17.5 -34.2 17.7 -33.3 18.05 -31.75 18.5 -30.75 L19.6 -28.15 Q19.7 -27.75 19.85 -27.5 L19.9 -27.35 19.9 -27.1 Q20.1 -26.3 20.1 -25.4 20.1 -24.6 19.7 -23.3 19.35 -22.0 19.3 -21.45 19.25 -21.35 19.2 -21.25 19.1 -21.2 19.0 -21.2 L18.8 -21.2 Q18.7 -21.2 18.6 -21.25 18.55 -21.35 18.5 -21.45 18.45 -22.1 18.45 -23.0 L18.45 -24.5 Q18.45 -24.9 18.15 -25.75 L17.5 -27.2 17.5 -27.25 Q17.1 -28.35 16.9 -30.15 L16.9 -30.75 16.7 -31.3 Q16.7 -31.4 16.7 -31.5 16.75 -31.55 16.8 -31.6 L16.85 -31.65 16.9 -32.55 Q16.9 -32.9 16.7 -33.45 L16.7 -33.5 Q16.5 -34.4 15.85 -35.75 14.85 -38.0 14.65 -38.85 14.45 -39.65 13.7 -41.65 L13.6 -42.05 13.55 -42.05 13.5 -42.35 13.35 -42.7 13.25 -42.9 13.15 -43.0 13.05 -43.2 Q13.0 -43.3 13.0 -43.4 L13.0 -43.75 Q12.85 -44.25 12.8 -44.55 12.5 -45.75 12.35 -47.4 L12.15 -50.25 Q12.05 -51.15 11.9 -51.95 11.4 -52.9 11.15 -54.65 L11.1 -54.85 Q10.85 -55.5 10.55 -56.05 8.85 -59.1 5.65 -62.5 4.1 -64.15 2.3 -65.75 2.15 -65.45 2.1 -65.1 2.0 -64.8 2.0 -63.1 2.1 -62.95 2.05 -62.8 2.0 -62.55 1.45 -62.55 0.75 -62.55 -0.6 -63.7 -1.1 -63.9 -1.6 -64.25 L-1.75 -64.3 Q-1.9 -64.3 -1.95 -64.35 L-2.85 -65.25 -3.0 -65.25 Q-3.1 -65.25 -3.15 -65.35 -3.2 -65.45 -3.2 -65.5 L-3.2 -65.65 Q-3.35 -65.85 -3.3 -66.0 L-3.3 -66.55 -3.35 -66.65 Q-3.4 -66.75 -3.35 -66.8 L-3.3 -66.95 Q-3.95 -67.1 -4.3 -67.35 L-4.25 -67.3 -4.85 -67.75 Q-5.1 -67.95 -5.45 -68.1 L-5.55 -68.15 -5.6 -68.25 -6.2 -68.75 Q-6.85 -69.35 -6.8 -70.0 -6.8 -70.4 -6.45 -71.8 L-6.25 -72.5 -6.25 -72.6 Q-6.25 -73.25 -6.2 -73.55 -6.15 -73.85 -6.05 -74.1 L-6.05 -74.6 Q-6.05 -74.7 -5.95 -74.8 -5.25 -75.65 -4.2 -75.0 L-4.2 -74.95 Q-3.25 -74.2 -2.8 -73.9 -2.35 -73.75 -1.25 -72.85 L-1.2 -72.85 Q-0.9 -73.25 -0.65 -73.45 L-0.6 -73.55 -0.6 -73.8 Q-0.6 -75.5 -1.4 -77.6 -2.35 -80.05 -3.75 -80.95 L-4.6 -81.05 Q-4.7 -81.05 -4.8 -81.1 -4.85 -81.2 -4.9 -81.3 -4.95 -81.8 -4.8 -82.95 -4.85 -83.75 -5.5 -84.2 -5.95 -84.5 -7.15 -85.4 L-7.15 -85.45 -7.65 -85.75 -7.75 -85.85 -7.9 -86.05 -7.95 -86.05 -8.3 -86.3 Q-8.4 -86.35 -8.45 -86.45 -8.45 -86.55 -8.45 -86.6 -8.9 -86.85 -9.4 -87.05 -10.5 -87.5 -12.3 -88.05 L-14.1 -88.6 Q-16.2 -87.5 -17.45 -89.35 L-17.85 -90.05 -18.25 -90.55 Q-18.6 -90.7 -19.5 -91.1 L-19.55 -91.15 -20.9 -90.8 Q-20.9 -90.75 -20.95 -90.65 -21.0 -90.5 -21.1 -90.4 L-21.2 -90.3 Q-21.3 -90.3 -21.35 -90.25 L-21.55 -90.2 Q-23.5 -90.5 -25.15 -91.0 L-25.2 -91.0 -26.15 -91.55 Q-26.4 -91.7 -26.6 -91.7 -26.7 -91.7 -26.7 -91.65 L-26.85 -91.55 -27.0 -91.55 Q-27.1 -91.55 -27.15 -91.6 L-27.35 -91.8 Q-28.25 -92.2 -29.05 -92.7 -30.95 -93.85 -32.8 -96.0 -33.05 -96.3 -33.9 -99.1 L-34.35 -100.45 Q-34.45 -100.45 -34.5 -100.5 -34.6 -100.55 -34.65 -100.65 L-34.8 -101.15 -34.85 -101.25 -34.8 -102.3 -34.8 -102.95 -34.7 -103.15 -34.6 -105.15 -34.6 -105.2 Q-34.3 -106.1 -33.8 -107.85 -33.65 -108.9 -33.2 -110.05 -32.5 -111.85 -31.65 -112.4 -31.55 -112.45 -31.45 -112.45 -31.4 -112.4 -31.3 -112.35 L-31.25 -112.3 -31.1 -112.35 Q-30.6 -113.2 -29.65 -114.55 -28.95 -115.7 -28.9 -116.65 -28.9 -116.95 -29.2 -117.7 -29.6 -118.65 -29.65 -119.1 -29.65 -119.2 -29.6 -119.25 L-29.45 -119.4 -29.3 -119.45 -29.1 -119.4 Q-29.0 -119.4 -28.95 -119.3 M2.7 -93.0 Q2.65 -93.95 -0.7 -97.0 -3.4 -97.85 -3.85 -98.25 L-3.9 -98.25 Q-4.5 -98.75 -4.5 -100.4 -4.55 -101.35 -8.0 -102.95 -11.55 -104.6 -14.45 -105.0 -17.0 -105.15 -18.05 -104.65 L-18.65 -104.3 -18.6 -104.3 Q-19.0 -104.05 -19.35 -104.05 L-20.0 -104.1 -20.8 -104.2 -22.6 -104.3 -22.8 -104.3 -22.9 -104.4 -22.9 -104.45 -23.45 -104.5 Q-24.0 -104.5 -24.25 -104.6 L-24.2 -104.6 -25.2 -104.75 -25.8 -104.85 -25.95 -104.9 Q-26.05 -104.9 -26.15 -104.95 -26.2 -105.05 -26.2 -105.15 L-26.2 -105.3 Q-28.05 -106.2 -29.1 -108.1 -30.0 -109.7 -30.0 -111.3 -30.0 -111.8 -29.95 -112.35 -30.65 -111.6 -31.4 -111.45 -32.1 -110.2 -32.5 -109.0 -32.5 -108.9 -32.5 -108.6 -32.5 -108.45 -32.75 -107.2 L-33.05 -106.05 -33.05 -103.35 Q-33.05 -100.95 -33.0 -100.25 -32.85 -98.8 -32.35 -97.7 -31.1 -95.2 -26.45 -92.6 L-26.3 -92.7 -26.1 -92.7 Q-25.45 -92.4 -24.7 -92.4 -23.6 -92.4 -22.95 -92.75 -22.65 -92.9 -22.5 -93.1 -22.45 -93.15 -22.35 -93.15 L-22.2 -93.2 -20.4 -92.85 -15.6 -91.95 -15.5 -91.9 -14.85 -91.9 -13.4 -91.75 -13.25 -91.8 -12.3 -92.05 Q-11.55 -92.25 -11.2 -92.5 L-10.4 -93.15 -10.35 -93.2 Q-9.95 -93.45 -9.45 -93.55 L-9.25 -93.5 Q-9.2 -93.45 -9.15 -93.35 L-9.15 -93.3 -8.9 -93.3 -8.85 -93.4 -8.7 -93.45 -8.6 -93.45 -8.1 -93.55 -8.05 -93.55 -7.5 -93.7 -7.55 -93.7 Q-6.45 -94.1 -4.8 -93.6 -2.95 -93.05 -2.3 -93.1 L-2.2 -93.05 Q-0.35 -92.5 0.85 -91.35 1.6 -90.6 2.6 -89.1 L2.9 -88.7 2.85 -88.85 Q2.25 -90.8 2.25 -91.25 2.25 -91.5 2.5 -92.2 2.7 -92.8 2.7 -93.0 M0.55 -88.75 Q-0.9 -89.6 -5.15 -91.45 -6.4 -91.5 -7.15 -91.45 L-8.05 -91.35 -8.25 -91.2 Q-8.4 -91.1 -8.8 -91.05 -9.1 -90.65 -9.2 -90.4 -9.2 -90.25 -9.3 -90.2 -9.4 -90.15 -9.5 -90.15 L-12.75 -90.7 -14.4 -90.75 -16.45 -90.85 Q-16.55 -90.65 -16.7 -90.4 -16.8 -90.2 -16.6 -89.5 -15.9 -89.05 -13.95 -89.3 L-13.85 -89.25 -12.45 -88.95 Q-10.2 -88.45 -8.9 -87.8 L-8.75 -87.85 -8.4 -87.85 -8.3 -87.8 Q-7.8 -87.5 -7.1 -86.9 L-6.1 -85.95 Q-6.05 -85.9 -6.05 -85.8 -6.0 -85.75 -6.0 -85.65 -5.6 -85.35 -5.1 -84.95 -4.85 -84.8 -4.5 -84.3 -4.2 -83.85 -4.1 -83.55 L-4.15 -83.55 Q-3.85 -82.6 -4.1 -82.35 -4.2 -82.2 -4.25 -82.2 -4.25 -82.05 -4.2 -81.95 L-4.2 -81.9 -4.15 -81.85 -3.45 -81.8 -3.35 -81.75 -3.25 -81.65 -1.6 -79.7 Q-0.45 -78.3 -0.25 -77.7 0.35 -76.2 0.35 -73.8 1.1 -73.6 1.45 -73.3 L2.1 -73.35 Q2.35 -73.6 3.0 -74.4 3.75 -75.4 4.05 -75.35 L4.6 -75.3 5.5 -75.1 Q5.75 -75.1 5.8 -74.85 6.2 -74.95 6.5 -75.9 6.65 -76.45 6.7 -77.1 L6.65 -77.75 6.65 -77.8 6.6 -78.75 Q6.5 -80.4 6.5 -81.2 6.5 -82.0 6.05 -83.1 L5.85 -83.6 5.25 -84.2 Q4.75 -84.75 4.4 -85.3 3.05 -87.3 0.55 -88.75 M4.4 -72.2 Q2.8 -71.95 1.55 -71.15 0.5 -70.5 -0.3 -69.5 -1.15 -68.5 -1.55 -67.5 L-0.15 -67.25 0.0 -67.45 0.1 -67.55 0.95 -67.55 Q1.55 -67.65 2.45 -67.85 3.3 -68.05 3.55 -68.05 L4.4 -67.95 5.3 -67.8 5.45 -67.7 Q5.6 -67.6 5.9 -67.45 6.35 -67.25 6.65 -66.95 L9.45 -64.15 Q10.8 -62.85 11.65 -61.9 L11.75 -61.8 11.85 -61.65 12.35 -61.0 Q12.4 -60.95 12.4 -60.85 12.45 -60.55 12.1 -60.45 L12.1 -60.35 Q12.1 -60.15 11.9 -59.15 L11.8 -58.75 Q11.7 -58.2 11.65 -57.9 L11.65 -57.8 Q11.7 -56.8 11.85 -55.65 12.35 -54.7 12.8 -53.6 12.8 -54.05 12.9 -54.6 13.05 -55.55 13.3 -55.95 L13.4 -56.1 13.55 -56.1 13.85 -56.15 Q14.3 -56.2 14.5 -56.4 14.65 -56.5 14.65 -56.7 14.65 -56.95 14.45 -58.1 14.25 -59.3 14.25 -59.55 14.25 -59.9 14.65 -60.3 14.85 -60.6 14.85 -60.75 14.8 -61.9 13.4 -63.6 12.55 -64.6 10.95 -66.25 9.85 -66.45 9.35 -66.8 9.05 -67.0 8.7 -67.4 8.4 -67.55 7.45 -67.9 6.4 -68.3 6.15 -68.6 5.7 -69.05 5.1 -69.95 4.35 -71.1 4.35 -71.7 4.35 -72.05 4.4 -72.2 M3.0 -66.5 L2.85 -66.35 6.8 -62.35 Q8.05 -61.05 9.05 -59.85 8.65 -60.75 8.35 -61.25 7.25 -63.2 5.35 -64.95 3.8 -66.35 3.0 -66.5 M13.5 -51.4 L13.5 -51.5 13.15 -51.4 13.5 -51.4 M-17.95 -91.75 L-18.0 -91.8 -18.05 -91.8 -18.05 -91.65 -17.95 -91.75 M-13.1 -91.65 L-13.1 -91.65 M-4.75 -74.4 L-4.75 -74.4 M-4.75 -74.3 L-4.75 -74.2 Q-4.8 -74.1 -4.9 -74.05 -5.2 -73.85 -5.3 -73.3 -5.3 -73.1 -5.4 -72.7 L-5.45 -72.1 Q-5.5 -71.95 -5.55 -71.9 L-5.6 -71.85 -5.7 -71.65 Q-6.0 -70.5 -6.0 -70.25 -6.0 -69.7 -5.6 -69.35 L-5.65 -69.4 Q-4.75 -68.8 -3.95 -68.1 -3.75 -68.0 -3.15 -67.8 -3.05 -68.5 -2.85 -69.3 -2.45 -70.9 -1.9 -71.6 L-1.55 -72.3 -2.35 -72.8 Q-3.95 -73.65 -4.6 -74.3 L-4.75 -74.3 M-3.0 -66.9 L-3.25 -67.2 -3.3 -66.95 -3.2 -67.05 -3.25 -66.9 -3.0 -66.9 M-0.6 -66.3 L-0.5 -66.5 -1.3 -66.65 -1.85 -66.7 -1.9 -66.4 -1.85 -66.2 -1.8 -66.2 Q-1.55 -65.8 -0.95 -65.35 L-0.6 -66.3" fill="#00ffff" fill-opacity="0.5019608" fill-rule="evenodd" stroke="none"/>
      <path d="M-29.2 -119.15 Q-28.9 -118.5 -28.65 -117.75 -28.35 -116.95 -28.35 -116.5 -28.35 -115.55 -29.0 -114.3 L-29.25 -113.0 Q-29.55 -111.55 -29.55 -111.3 -29.55 -109.9 -28.7 -108.35 -27.6 -106.4 -25.8 -105.65 L-25.75 -105.35 -22.3 -104.85 -20.2 -104.6 -20.15 -104.6 Q-19.05 -104.6 -18.25 -105.05 L-17.45 -105.5 Q-13.85 -105.5 -12.1 -105.05 -10.65 -104.7 -7.0 -102.95 -4.8 -101.85 -4.35 -101.35 -4.0 -100.9 -4.0 -99.65 -4.0 -98.95 -3.45 -98.65 -3.15 -98.45 -2.2 -98.2 0.1 -97.6 1.2 -96.2 2.85 -94.3 3.1 -93.95 3.2 -93.7 3.2 -92.4 3.2 -92.15 3.05 -91.85 2.85 -91.5 2.85 -91.25 2.85 -90.25 3.5 -88.75 3.95 -87.7 4.5 -86.75 4.25 -86.75 4.05 -86.9 L5.75 -84.9 Q6.35 -84.2 6.65 -82.95 6.95 -81.9 7.0 -80.95 L7.15 -78.0 7.2 -77.55 7.2 -77.1 Q7.2 -76.3 6.8 -74.7 6.45 -73.2 6.5 -72.3 6.5 -72.2 6.25 -72.15 L6.2 -72.2 Q6.1 -72.3 6.1 -72.4 L5.9 -72.5 Q5.65 -72.6 5.6 -72.65 3.2 -72.5 1.4 -71.4 0.3 -70.7 -0.5 -69.7 -1.5 -68.5 -1.95 -67.25 L-1.9 -67.25 0.0 -66.95 0.25 -67.3 0.95 -67.25 1.0 -67.3 2.5 -67.55 Q3.3 -67.75 3.55 -67.75 L4.4 -67.7 5.25 -67.5 Q5.45 -67.35 5.8 -67.2 6.15 -67.05 6.45 -66.75 6.8 -66.4 9.25 -63.95 10.6 -62.6 11.5 -61.6 L11.5 -61.65 11.6 -61.5 12.15 -60.85 Q12.15 -60.75 12.0 -60.7 L11.8 -60.7 11.85 -60.35 Q11.85 -60.2 11.6 -59.2 L11.5 -58.8 Q11.4 -58.2 11.4 -57.9 L11.4 -57.8 Q11.4 -56.75 11.6 -55.55 12.45 -53.9 13.1 -51.8 L13.2 -51.55 13.15 -52.1 Q13.05 -52.9 13.05 -53.1 13.05 -53.75 13.2 -54.55 13.35 -55.45 13.55 -55.85 L13.9 -55.85 Q14.45 -55.9 14.7 -56.2 14.9 -56.4 14.9 -56.7 14.9 -56.95 14.75 -58.1 14.55 -59.3 14.55 -59.55 14.55 -59.8 14.85 -60.15 15.15 -60.5 15.15 -60.75 15.15 -62.0 13.6 -63.8 12.75 -64.8 11.05 -66.55 10.0 -66.7 9.5 -67.05 9.25 -67.25 8.9 -67.6 8.65 -67.75 7.55 -68.2 6.6 -68.55 6.35 -68.8 5.9 -69.25 5.35 -70.1 4.65 -71.2 4.65 -71.7 4.65 -72.0 4.7 -72.15 4.75 -72.4 5.05 -72.5 4.7 -71.8 5.5 -70.5 6.05 -69.45 6.9 -68.65 9.5 -67.85 10.85 -67.0 12.15 -66.2 13.0 -64.8 13.25 -64.45 14.8 -62.4 15.4 -61.6 15.4 -60.6 L15.4 -60.15 15.3 -59.95 14.85 -59.9 14.85 -59.05 Q15.0 -58.55 15.1 -57.75 15.2 -57.0 15.2 -56.65 15.2 -56.2 15.05 -56.0 14.8 -55.7 14.15 -55.55 L13.7 -55.45 13.55 -54.5 Q13.35 -53.8 13.3 -53.45 13.3 -53.15 13.4 -52.5 13.5 -51.8 13.5 -51.6 L13.5 -51.2 13.4 -50.9 14.7 -46.5 14.9 -45.9 15.15 -45.35 15.25 -44.7 15.2 -44.8 Q15.6 -43.25 15.95 -41.25 L16.95 -35.9 17.45 -33.25 Q17.8 -31.65 18.2 -30.6 L19.3 -28.05 Q19.45 -27.65 19.6 -27.35 L19.6 -27.1 Q19.8 -26.3 19.8 -25.4 19.8 -24.65 19.45 -23.4 19.05 -22.0 19.0 -21.5 L18.8 -21.5 Q18.7 -22.1 18.7 -23.0 L18.75 -24.5 Q18.75 -24.95 18.4 -25.85 L17.8 -27.35 Q17.35 -28.4 17.2 -30.2 L17.15 -30.8 17.0 -31.4 17.1 -31.45 Q17.2 -31.9 17.2 -32.55 17.2 -32.95 16.95 -33.55 16.75 -34.45 16.1 -35.9 15.1 -38.1 14.9 -38.9 14.7 -39.7 14.0 -41.75 L13.85 -42.15 13.75 -42.45 13.6 -42.8 13.45 -43.35 13.4 -43.15 13.3 -43.4 13.3 -43.8 13.05 -44.6 Q12.8 -45.8 12.65 -47.45 L12.4 -50.3 Q12.35 -51.2 12.2 -52.05 11.7 -52.95 11.4 -54.7 L11.4 -54.9 Q11.1 -55.6 10.8 -56.2 9.1 -59.3 5.85 -62.7 4.2 -64.45 2.25 -66.15 1.9 -65.75 1.8 -65.15 1.7 -64.8 1.7 -63.0 L1.75 -62.9 Q1.75 -62.85 1.45 -62.85 0.8 -62.85 -0.45 -63.9 -0.95 -64.15 -1.5 -64.55 L-1.75 -64.55 -2.1 -64.9 -2.3 -65.15 -2.8 -65.55 -2.95 -65.5 -2.9 -65.75 Q-3.05 -65.9 -3.05 -66.0 L-3.0 -66.6 -3.1 -66.75 -3.0 -66.8 -2.95 -67.15 Q-3.75 -67.3 -4.15 -67.6 L-4.65 -68.0 Q-4.95 -68.2 -5.35 -68.35 -5.4 -68.4 -6.0 -69.0 -6.55 -69.5 -6.55 -70.0 -6.55 -70.4 -6.2 -71.7 L-6.0 -72.5 -6.0 -72.6 Q-6.0 -73.2 -5.9 -73.5 -5.85 -73.8 -5.75 -74.0 L-5.75 -74.6 Q-5.2 -75.25 -4.35 -74.75 -3.4 -73.95 -2.95 -73.65 -2.5 -73.5 -1.4 -72.65 L-1.15 -72.4 Q-0.75 -73.05 -0.35 -73.3 L-0.35 -73.55 -0.3 -73.8 Q-0.3 -75.55 -1.15 -77.7 -2.15 -80.3 -3.7 -81.25 L-4.6 -81.3 Q-4.65 -81.8 -4.5 -82.9 -4.55 -83.9 -5.35 -84.45 -5.8 -84.75 -7.0 -85.65 L-7.5 -86.0 -7.75 -86.3 -8.15 -86.55 -8.0 -86.5 -7.75 -86.35 -8.05 -86.65 -8.15 -86.8 Q-8.7 -87.05 -9.3 -87.3 -10.4 -87.8 -12.25 -88.35 L-14.1 -88.9 Q-16.05 -87.8 -17.2 -89.5 L-17.6 -90.2 Q-18.0 -90.65 -18.05 -90.8 -18.35 -90.85 -19.4 -91.4 L-19.55 -91.45 -21.3 -91.05 -21.2 -90.75 -21.3 -90.6 -21.5 -90.5 Q-23.45 -90.75 -25.1 -91.25 L-26.0 -91.8 Q-26.7 -92.2 -26.95 -91.8 L-27.2 -92.05 Q-28.1 -92.45 -28.9 -92.9 -30.75 -94.05 -32.6 -96.2 -32.8 -96.45 -33.65 -99.2 -34.1 -100.65 -34.35 -101.55 L-34.35 -100.75 -34.55 -101.25 -34.5 -102.3 -34.55 -102.6 -34.5 -102.9 -34.45 -103.1 -34.3 -105.1 Q-34.0 -106.0 -33.55 -107.8 -33.4 -108.8 -32.95 -109.95 -32.3 -111.65 -31.5 -112.15 L-31.45 -111.95 -31.5 -111.9 Q-31.2 -112.05 -30.95 -112.1 -30.45 -112.95 -29.4 -114.4 -28.65 -115.65 -28.65 -116.65 -28.65 -117.0 -28.95 -117.8 -29.3 -118.7 -29.35 -119.1 L-29.2 -119.15 M-29.45 -113.45 Q-30.5 -111.85 -31.6 -111.75 -32.45 -110.25 -32.85 -108.8 L-32.85 -108.9 Q-32.75 -109.05 -32.75 -108.6 -32.75 -108.45 -33.05 -107.25 L-33.3 -106.05 -33.35 -105.55 -33.35 -103.35 Q-33.35 -100.95 -33.3 -100.25 -33.15 -98.7 -32.6 -97.6 -31.35 -94.95 -26.4 -92.25 L-26.25 -92.4 Q-25.5 -92.1 -24.7 -92.1 -23.55 -92.1 -22.8 -92.5 -22.45 -92.7 -22.25 -92.9 L-20.45 -92.6 Q-17.2 -91.9 -15.65 -91.65 L-15.6 -91.65 -15.0 -91.6 -14.85 -91.6 -13.25 -91.5 -13.1 -91.45 -13.2 -91.55 -12.2 -91.8 Q-11.4 -92.0 -11.0 -92.3 L-10.25 -92.95 Q-9.85 -93.2 -9.4 -93.25 -9.5 -93.15 -9.6 -93.0 L-9.5 -93.0 Q-8.75 -93.05 -8.7 -93.15 L-8.6 -93.15 Q-8.25 -93.2 -8.0 -93.3 L-7.45 -93.4 Q-6.4 -93.8 -4.85 -93.35 -2.95 -92.8 -2.3 -92.8 -0.5 -92.25 0.65 -91.15 1.4 -90.45 2.35 -88.95 2.65 -88.5 3.45 -87.55 L3.45 -87.6 Q3.3 -88.05 3.15 -88.95 2.55 -90.8 2.55 -91.25 2.55 -91.45 2.8 -92.1 3.0 -92.75 3.0 -93.0 3.0 -94.0 -0.55 -97.25 -3.25 -98.1 -3.7 -98.45 -4.2 -98.9 -4.2 -100.4 -4.2 -101.5 -7.9 -103.2 -11.5 -104.9 -14.4 -105.3 -17.05 -105.45 -18.2 -104.9 L-18.8 -104.55 Q-19.05 -104.35 -19.35 -104.35 L-19.95 -104.4 -20.75 -104.5 -22.65 -104.55 -22.65 -104.7 -23.45 -104.75 Q-24.2 -104.85 -24.2 -104.9 L-25.15 -105.0 -25.75 -105.15 -25.9 -105.15 -25.9 -105.45 Q-27.8 -106.3 -28.85 -108.2 -29.7 -109.8 -29.7 -111.3 -29.7 -112.2 -29.5 -113.35 L-29.45 -113.45 M4.8 -85.8 Q4.9 -85.65 4.9 -85.5 L5.15 -85.35 4.8 -85.8 M0.7 -89.0 Q-0.8 -89.9 -5.1 -91.75 -6.4 -91.8 -7.15 -91.75 L-8.2 -91.6 -8.4 -91.45 Q-8.55 -91.35 -8.9 -91.3 -9.4 -90.8 -9.45 -90.45 L-12.7 -91.0 -14.4 -91.0 -16.65 -91.15 -16.7 -91.15 Q-16.7 -90.9 -16.9 -90.6 -17.1 -90.3 -16.85 -89.45 L-16.85 -89.4 Q-16.2 -88.75 -13.9 -89.0 L-12.5 -88.7 Q-10.1 -88.1 -8.75 -87.4 L-8.6 -87.3 -8.75 -87.5 -8.65 -87.6 -8.45 -87.6 Q-7.95 -87.3 -7.3 -86.7 L-6.3 -85.75 Q-6.35 -85.7 -6.4 -85.7 L-6.35 -85.65 -6.4 -85.55 -5.25 -84.75 Q-5.05 -84.6 -4.75 -84.15 -4.5 -83.7 -4.4 -83.45 -4.2 -82.7 -4.35 -82.5 L-4.55 -82.2 Q-4.55 -81.9 -4.45 -81.8 L-4.35 -81.6 -3.5 -81.5 Q-3.3 -81.25 -1.8 -79.5 -0.7 -78.2 -0.5 -77.6 0.05 -76.1 0.05 -73.75 L0.05 -73.5 0.25 -73.55 Q1.05 -73.35 1.35 -73.05 L2.2 -73.1 Q2.5 -73.3 3.2 -74.25 3.85 -75.1 4.05 -75.1 L4.5 -75.05 5.45 -74.85 Q5.5 -74.85 5.5 -74.7 5.5 -74.6 5.75 -74.6 6.4 -74.6 6.75 -75.8 6.95 -76.4 7.0 -77.1 L6.95 -77.8 6.9 -78.8 Q6.8 -80.4 6.8 -81.2 6.8 -82.0 6.3 -83.2 L6.1 -83.8 Q5.8 -84.0 5.45 -84.4 5.0 -84.9 4.65 -85.45 3.25 -87.5 0.7 -89.0 M3.45 -67.1 L3.6 -67.15 3.3 -67.1 3.45 -67.1 M2.9 -66.75 Q2.65 -66.6 2.45 -66.4 L6.6 -62.15 Q8.7 -59.95 10.05 -58.05 L9.9 -58.4 Q9.15 -60.45 8.6 -61.4 7.5 -63.4 5.5 -65.15 3.85 -66.7 2.9 -66.75 M13.25 -51.4 L13.25 -51.5 13.2 -51.45 13.25 -51.4 M-18.0 -91.55 L-18.2 -91.6 -18.15 -91.55 -18.0 -91.55 M-6.4 -85.55 L-6.55 -85.7 -6.6 -85.7 -6.4 -85.55 M-5.95 -71.7 Q-6.3 -70.5 -6.3 -70.25 -6.3 -69.55 -5.8 -69.15 -4.9 -68.55 -4.1 -67.9 -3.85 -67.7 -2.9 -67.45 -2.8 -68.3 -2.6 -69.2 -2.2 -70.8 -1.7 -71.5 L-1.45 -71.9 -1.2 -72.35 Q-1.6 -72.7 -2.2 -73.05 -3.85 -73.9 -4.45 -74.55 L-4.9 -74.65 -5.1 -74.45 -5.0 -74.3 Q-5.45 -74.1 -5.6 -73.25 L-5.6 -73.3 Q-5.6 -73.1 -5.7 -72.7 L-5.75 -72.1 -5.85 -72.05 -5.95 -71.7 M-1.25 -66.95 L-2.05 -67.0 -2.2 -66.35 -2.1 -66.1 Q-1.75 -65.5 -0.8 -64.9 -0.7 -65.2 -0.3 -66.2 L-0.15 -66.65 Q-0.65 -66.8 -1.25 -66.95" fill="#ffffff" fill-rule="evenodd" stroke="none"/>
    </g>
  </defs>
</svg>
