<?xml version="1.0" encoding="UTF-8" standalone="no"?>
<svg xmlns:ffdec="https://www.free-decompiler.com/flash" xmlns:xlink="http://www.w3.org/1999/xlink" ffdec:objectType="frame" height="69.65px" width="82.6px" xmlns="http://www.w3.org/2000/svg">
  <g transform="matrix(1.0, 0.0, 0.0, 1.0, 41.3, 69.65)">
    <use ffdec:characterId="366" height="9.95" transform="matrix(7.0, 0.0, 0.0, 7.0, -41.3, -69.65)" width="11.8" xlink:href="#shape0"/>
  </g>
  <defs>
    <g id="shape0" transform="matrix(1.0, 0.0, 0.0, 1.0, 5.9, 9.95)">
      <path d="M2.05 -4.85 L1.65 -4.75 1.6 -4.75 Q1.45 -4.75 1.4 -4.85 1.4 -4.9 1.4 -4.95 1.4 -5.0 1.95 -5.45 L2.35 -5.65 2.3 -5.7 2.05 -6.0 Q1.75 -6.35 1.75 -6.5 1.75 -6.7 1.95 -6.65 2.2 -6.55 2.45 -6.25 L2.5 -6.25 2.5 -6.5 Q2.5 -7.3 2.45 -8.05 2.4 -8.3 2.2 -8.85 L2.1 -9.2 Q1.55 -9.4 0.9 -9.5 L0.8 -9.5 1.0 -8.9 Q1.5 -7.5 1.5 -6.95 1.5 -6.3 1.2 -5.55 1.1 -5.3 1.0 -5.1 L1.1 -4.8 Q1.1 -4.7 1.05 -4.65 1.0 -4.6 0.9 -4.6 0.8 -4.6 0.7 -4.7 L0.6 -4.65 0.6 -4.6 0.1 -4.4 -0.2 -4.35 Q-0.7 -4.35 -1.1 -4.55 -1.25 -4.1 -1.35 -4.1 -1.6 -4.1 -1.55 -4.3 -1.55 -4.5 -1.45 -4.75 -2.15 -5.2 -2.5 -6.3 L-2.95 -6.1 -3.1 -6.2 Q-3.1 -6.5 -2.65 -6.75 L-2.75 -7.2 -3.1 -7.1 -3.3 -7.25 -2.8 -7.6 -2.8 -7.85 -2.85 -8.3 Q-3.6 -7.9 -4.1 -7.8 L-5.15 -7.4 -5.25 -7.4 -5.3 -7.35 -5.35 -7.35 Q-5.15 -7.3 -4.45 -6.9 -3.7 -6.5 -3.7 -6.4 L-3.85 -6.2 -4.15 -5.85 Q-4.65 -5.2 -4.8 -4.5 L-4.85 -4.45 -4.85 -4.4 Q-4.1 -4.45 -3.35 -4.6 L-2.7 -4.75 Q-2.5 -4.75 -2.5 -4.5 -2.5 -4.45 -2.55 -4.4 L-2.6 -3.75 Q-2.6 -3.35 -2.45 -2.8 L-2.35 -2.25 -2.2 -1.9 -1.7 -2.25 Q-1.35 -2.5 -0.9 -2.7 L0.0 -3.1 0.15 -3.05 Q0.3 -3.1 0.35 -2.95 L0.4 -2.85 Q0.45 -2.2 0.5 -2.05 L0.85 -1.3 0.85 -1.25 0.95 -1.45 1.55 -2.45 1.2 -2.2 1.05 -2.15 Q0.9 -2.15 0.85 -2.25 0.85 -2.3 0.85 -2.35 0.85 -2.45 1.2 -2.8 L1.35 -2.95 1.65 -3.2 1.55 -3.4 1.45 -3.65 1.4 -3.85 Q1.4 -4.1 1.45 -4.15 1.55 -4.2 1.7 -4.05 1.9 -3.9 2.05 -3.5 2.35 -4.35 2.35 -5.0 2.2 -4.9 2.05 -4.85 M2.6 -9.6 Q3.0 -9.4 3.35 -9.15 3.75 -8.8 4.25 -8.2 4.8 -7.5 4.9 -7.45 5.3 -6.7 5.55 -5.9 5.9 -4.95 5.9 -4.3 5.9 -3.95 5.8 -2.9 L5.65 -1.85 5.75 -1.35 5.85 -0.95 Q5.85 -0.7 5.65 -0.7 5.1 -0.7 4.25 -1.55 L3.4 -2.45 3.25 -2.4 Q2.85 -1.8 1.55 0.0 1.1 0.0 0.75 -0.55 L0.7 -0.6 0.7 -0.65 Q0.6 -0.8 0.45 -1.05 0.25 -1.55 -0.05 -2.7 L-2.2 -1.2 Q-2.7 -1.2 -2.85 -2.45 -2.95 -3.75 -3.05 -4.2 L-3.2 -4.15 Q-4.05 -3.9 -5.1 -3.9 -5.25 -3.9 -5.35 -4.0 L-5.35 -4.1 Q-5.35 -4.55 -5.0 -5.3 -4.65 -6.1 -4.3 -6.35 -4.45 -6.55 -5.2 -6.9 L-5.9 -7.2 Q-5.9 -7.6 -4.5 -8.1 L-3.4 -8.55 -2.95 -8.8 Q-2.05 -9.25 -0.95 -9.6 L0.45 -9.95 1.0 -9.95 Q1.75 -9.95 2.5 -9.65 L2.6 -9.6 M0.6 -9.45 L0.55 -9.5 Q-0.7 -9.45 -2.0 -8.75 L-2.25 -8.65 -2.45 -8.55 -2.55 -8.05 -2.6 -7.7 Q-2.05 -8.0 -2.05 -7.65 -2.05 -7.5 -2.45 -7.3 L-2.6 -7.25 -2.5 -6.85 Q-1.9 -7.1 -1.9 -6.7 -1.9 -6.55 -2.3 -6.4 L-2.35 -6.35 -2.2 -5.95 Q-1.9 -5.2 -1.4 -4.85 L-1.2 -5.2 Q-0.9 -5.75 -0.9 -5.25 -0.9 -5.1 -1.05 -4.7 -0.7 -4.55 -0.35 -4.55 0.2 -4.55 0.6 -4.95 L0.5 -5.1 0.35 -5.6 0.35 -5.7 0.4 -5.7 Q0.65 -5.7 0.9 -5.35 L1.05 -5.7 Q1.3 -6.35 1.3 -6.95 1.3 -7.45 0.9 -8.5 L0.6 -9.45 M5.25 -5.4 L5.1 -5.95 4.9 -6.45 4.55 -7.1 Q3.7 -8.45 2.4 -9.05 2.5 -8.8 2.55 -8.4 2.65 -7.95 2.65 -7.05 L2.6 -6.15 2.7 -6.0 3.2 -6.6 Q3.45 -6.85 3.45 -6.35 L3.45 -6.25 3.2 -5.8 3.0 -5.55 3.05 -5.55 3.1 -5.45 Q3.2 -5.15 3.2 -4.9 3.2 -4.55 2.95 -4.55 2.75 -4.55 2.65 -4.95 L2.55 -5.15 2.5 -5.1 2.3 -3.9 2.2 -3.6 Q2.95 -4.1 2.95 -3.5 L2.15 -2.9 2.15 -2.15 Q2.2 -2.0 2.15 -1.9 2.1 -1.65 1.85 -1.65 1.7 -1.65 1.7 -2.25 L1.7 -2.5 1.6 -2.35 Q1.15 -1.55 1.0 -1.05 1.15 -0.75 1.4 -0.55 1.65 -1.05 2.2 -1.75 2.7 -2.45 3.25 -2.95 L3.35 -2.9 3.4 -2.9 Q3.6 -2.9 4.3 -2.2 5.1 -1.35 5.25 -1.25 5.3 -1.45 5.25 -1.85 5.25 -2.15 5.35 -2.85 5.45 -3.55 5.45 -3.8 5.45 -4.65 5.25 -5.4" fill="#000000" fill-rule="evenodd" stroke="none"/>
      <path d="M-1.7 -2.25 Q-1.4 -2.8 -0.9 -3.2 -0.55 -3.5 0.25 -3.95 L1.7 -4.65 2.05 -4.85 Q2.2 -4.9 2.35 -5.0 2.35 -4.35 2.05 -3.5 1.9 -3.9 1.7 -4.05 1.55 -4.2 1.45 -4.15 L1.45 -4.2 Q1.1 -3.85 0.45 -3.15 L0.35 -3.0 0.35 -2.95 Q0.3 -3.1 0.15 -3.05 L0.0 -3.1 -0.9 -2.7 Q-1.35 -2.5 -1.7 -2.25 M1.45 -3.65 L1.55 -3.4 1.65 -3.2 1.35 -2.95 1.45 -3.65 M1.2 -2.2 L1.55 -2.45 0.95 -1.45 0.85 -1.25 Q1.05 -1.6 1.2 -2.2" fill="#3c4847" fill-rule="evenodd" stroke="none"/>
      <path d="M3.1 -5.45 L3.4 -5.6 Q3.85 -5.8 4.2 -5.8 4.85 -5.8 5.25 -5.4 5.45 -4.65 5.45 -3.8 5.45 -3.55 5.35 -2.85 5.25 -2.15 5.25 -1.85 5.3 -1.45 5.25 -1.25 5.1 -1.35 4.3 -2.2 3.6 -2.9 3.4 -2.9 L3.35 -2.9 3.25 -2.95 Q2.7 -2.45 2.2 -1.75 1.65 -1.05 1.4 -0.55 1.15 -0.75 1.0 -1.05 1.15 -1.55 1.6 -2.35 L1.7 -2.5 1.7 -2.25 Q1.7 -1.65 1.85 -1.65 2.1 -1.65 2.15 -1.9 2.2 -2.0 2.15 -2.15 L2.15 -2.9 2.95 -3.5 Q2.95 -4.1 2.2 -3.6 L2.3 -3.9 2.5 -5.1 2.55 -5.15 2.65 -4.95 Q2.75 -4.55 2.95 -4.55 3.2 -4.55 3.2 -4.9 3.2 -5.15 3.1 -5.45" fill="#4f5860" fill-rule="evenodd" stroke="none"/>
      <path d="M-2.55 -8.05 L-2.55 -8.0 Q-2.25 -8.1 -1.85 -8.35 -1.35 -8.6 -0.9 -8.85 L-0.5 -9.05 0.05 -9.25 0.65 -9.3 0.6 -9.45 0.9 -8.5 Q1.3 -7.45 1.3 -6.95 1.3 -6.35 1.05 -5.7 L0.9 -5.35 Q0.65 -5.7 0.4 -5.7 L0.35 -5.7 0.35 -5.6 0.5 -5.1 0.6 -4.95 Q0.2 -4.55 -0.35 -4.55 -0.7 -4.55 -1.05 -4.7 -0.9 -5.1 -0.9 -5.25 -0.9 -5.75 -1.2 -5.2 L-1.4 -4.85 Q-1.9 -5.2 -2.2 -5.95 L-2.35 -6.35 -2.3 -6.4 Q-1.9 -6.55 -1.9 -6.7 -1.9 -7.1 -2.5 -6.85 L-2.6 -7.25 -2.45 -7.3 Q-2.05 -7.5 -2.05 -7.65 -2.05 -8.0 -2.6 -7.7 L-2.55 -8.05" fill="#364140" fill-rule="evenodd" stroke="none"/>
      <path d="M-2.8 -7.85 L-2.8 -7.6 -3.3 -7.25 -3.1 -7.1 -2.75 -7.2 -2.65 -6.75 Q-3.1 -6.5 -3.1 -6.2 L-2.95 -6.1 -2.5 -6.3 Q-2.15 -5.2 -1.45 -4.75 -1.55 -4.5 -1.55 -4.3 -1.6 -4.1 -1.35 -4.1 -1.25 -4.1 -1.1 -4.55 -0.7 -4.35 -0.2 -4.35 L0.1 -4.4 0.6 -4.6 0.6 -4.65 0.7 -4.7 Q0.8 -4.6 0.9 -4.6 1.0 -4.6 1.05 -4.65 1.1 -4.7 1.1 -4.8 L1.0 -5.1 Q1.1 -5.3 1.2 -5.55 1.5 -6.3 1.5 -6.95 1.5 -7.5 1.0 -8.9 L0.8 -9.5 0.9 -9.5 Q1.55 -9.4 2.1 -9.2 L2.2 -8.85 Q2.4 -8.3 2.45 -8.05 2.5 -7.3 2.5 -6.5 L2.5 -6.25 2.45 -6.25 Q2.2 -6.55 1.95 -6.65 1.75 -6.7 1.75 -6.5 1.75 -6.35 2.05 -6.0 L2.3 -5.7 2.35 -5.65 1.95 -5.45 Q1.4 -5.0 1.4 -4.95 1.4 -4.9 1.4 -4.85 1.45 -4.75 1.6 -4.75 L1.65 -4.75 2.05 -4.85 1.7 -4.65 0.25 -3.95 Q-0.55 -3.5 -0.9 -3.2 -1.4 -2.8 -1.7 -2.25 L-2.2 -1.9 -2.35 -2.25 -2.45 -2.8 Q-2.6 -3.35 -2.6 -3.75 L-2.55 -4.4 Q-2.5 -4.45 -2.5 -4.5 -2.5 -4.75 -2.7 -4.75 L-3.35 -4.6 Q-4.1 -4.45 -4.85 -4.4 L-4.85 -4.45 -4.8 -4.5 -4.05 -5.25 Q-3.0 -6.4 -3.0 -6.65 -3.0 -6.7 -3.05 -6.7 L-3.85 -6.2 -3.7 -6.4 Q-3.7 -6.5 -4.45 -6.9 -5.15 -7.3 -5.35 -7.35 L-5.3 -7.35 -5.25 -7.4 -5.15 -7.35 Q-4.45 -7.35 -3.2 -7.75 L-2.8 -7.85 M1.45 -4.15 Q1.4 -4.1 1.4 -3.85 L1.45 -3.65 1.35 -2.95 1.2 -2.8 Q0.85 -2.45 0.85 -2.35 0.85 -2.3 0.85 -2.25 0.9 -2.15 1.05 -2.15 L1.2 -2.2 Q1.05 -1.6 0.85 -1.25 L0.85 -1.3 0.5 -2.05 Q0.45 -2.2 0.4 -2.85 L0.35 -2.95 0.35 -3.0 0.45 -3.15 Q1.1 -3.85 1.45 -4.2 L1.45 -4.15" fill="#1e2728" fill-rule="evenodd" stroke="none"/>
      <path d="M3.1 -5.45 L3.05 -5.55 3.0 -5.55 3.2 -5.8 3.45 -6.25 3.45 -6.35 Q3.45 -6.85 3.2 -6.6 L2.7 -6.0 2.6 -6.15 2.65 -7.05 Q2.65 -7.95 2.55 -8.4 2.5 -8.8 2.4 -9.05 3.7 -8.45 4.55 -7.1 L4.9 -6.45 5.1 -5.95 5.25 -5.4 Q4.85 -5.8 4.2 -5.8 3.85 -5.8 3.4 -5.6 L3.1 -5.45" fill="#262d37" fill-rule="evenodd" stroke="none"/>
      <path d="M-2.8 -7.85 L-3.2 -7.75 Q-4.45 -7.35 -5.15 -7.35 L-5.25 -7.4 -5.15 -7.4 -4.1 -7.8 Q-3.6 -7.9 -2.85 -8.3 L-2.8 -7.85 M-3.85 -6.2 L-3.05 -6.7 Q-3.0 -6.7 -3.0 -6.65 -3.0 -6.4 -4.05 -5.25 L-4.8 -4.5 Q-4.65 -5.2 -4.15 -5.85 L-3.85 -6.2 M0.6 -9.45 L0.65 -9.3 0.05 -9.25 -0.5 -9.05 -0.9 -8.85 Q-1.35 -8.6 -1.85 -8.35 -2.25 -8.1 -2.55 -8.0 L-2.55 -8.05 -2.45 -8.55 -2.25 -8.65 -2.0 -8.75 Q-0.7 -9.45 0.55 -9.5 L0.6 -9.45" fill="#495a9c" fill-rule="evenodd" stroke="none"/>
    </g>
  </defs>
</svg>
