<?xml version="1.0" encoding="UTF-8" standalone="no"?>
<svg xmlns:ffdec="https://www.free-decompiler.com/flash" xmlns:xlink="http://www.w3.org/1999/xlink" ffdec:objectType="frame" height="32.55px" width="27.3px" xmlns="http://www.w3.org/2000/svg">
  <g transform="matrix(1.0, 0.0, 0.0, 1.0, 0.0, 0.0)">
    <use ffdec:characterId="829" height="4.65" transform="matrix(7.0, 0.0, 0.0, 7.0, 0.0, 0.0)" width="3.9" xlink:href="#shape0"/>
  </g>
  <defs>
    <g id="shape0" transform="matrix(1.0, 0.0, 0.0, 1.0, 0.0, 0.0)">
      <path d="M0.85 0.2 L0.85 0.25 0.8 0.3 0.8 0.45 0.9 0.7 1.05 0.8 Q1.2 0.95 1.55 1.1 L1.7 1.25 1.7 1.35 Q1.75 1.55 1.85 1.7 L1.95 1.9 Q2.05 2.05 2.2 2.2 2.5 2.4 2.75 2.45 L2.85 2.45 3.2 2.6 3.25 2.6 Q3.35 2.65 3.4 2.75 L3.45 2.8 3.45 2.85 Q3.55 3.1 3.55 3.3 L3.55 3.35 3.45 3.4 3.4 3.4 Q3.25 3.3 3.1 3.05 3.0 2.85 2.9 2.8 L2.85 2.8 Q2.75 2.7 2.7 2.7 2.5 2.75 2.45 2.85 L2.45 2.9 2.55 3.05 Q2.6 3.15 2.8 3.3 3.1 3.5 3.15 3.75 3.15 3.8 3.15 3.9 3.1 3.95 3.0 3.95 2.75 4.0 2.5 3.55 2.35 3.2 2.2 3.1 L2.15 3.05 2.15 3.0 Q2.05 2.9 1.85 2.95 L1.95 3.05 2.05 3.1 Q1.9 3.15 1.95 3.3 2.0 3.6 2.3 3.85 L2.55 4.15 2.6 4.15 2.6 4.2 2.45 4.35 2.35 4.35 Q2.25 4.3 2.15 4.25 L2.0 4.1 Q1.85 3.95 1.85 3.75 1.8 3.55 1.65 3.35 L1.6 3.3 1.6 3.0 Q1.65 2.85 1.65 2.7 L1.65 2.65 Q1.7 2.45 1.7 2.25 L1.6 2.0 1.6 1.95 1.5 1.75 1.2 1.4 Q1.0 1.15 0.7 0.95 L0.3 0.6 0.2 0.55 0.1 0.45 0.1 0.4 0.05 0.35 0.05 0.2 Q0.1 0.1 0.35 0.05 L0.55 0.0 Q0.85 0.0 0.85 0.2 M0.9 0.5 L0.85 0.4 0.9 0.4 0.9 0.5" fill="#00cc66" fill-rule="evenodd" stroke="none"/>
      <path d="M0.05 0.2 L0.05 0.35 0.1 0.4 0.1 0.45 0.2 0.55 0.3 0.6 0.7 0.95 Q1.0 1.15 1.2 1.4 L1.5 1.75 1.6 1.95 1.6 2.0 1.7 2.25 Q1.7 2.45 1.65 2.65 L1.65 2.7 Q1.65 2.85 1.6 3.0 L1.6 3.3 1.65 3.35 Q1.8 3.55 1.85 3.75 1.85 3.95 2.0 4.1 L2.15 4.25 Q2.25 4.3 2.35 4.35 L2.45 4.35 2.6 4.2 2.6 4.15 2.55 4.15 2.3 3.85 Q2.0 3.6 1.95 3.3 1.9 3.15 2.05 3.1 L1.95 3.05 1.85 2.95 Q2.05 2.9 2.15 3.0 L2.15 3.05 2.2 3.1 Q2.35 3.2 2.5 3.55 2.75 4.0 3.0 3.95 3.1 3.95 3.15 3.9 3.15 3.8 3.15 3.75 3.1 3.5 2.8 3.3 2.6 3.15 2.55 3.05 L2.45 2.9 2.45 2.85 Q2.5 2.75 2.7 2.7 2.75 2.7 2.85 2.8 L2.9 2.8 Q3.0 2.85 3.1 3.05 3.25 3.3 3.4 3.4 L3.45 3.4 3.55 3.35 3.55 3.3 Q3.55 3.1 3.45 2.85 L3.45 2.8 3.4 2.75 Q3.35 2.65 3.25 2.6 L3.2 2.6 2.85 2.45 2.75 2.45 Q2.5 2.4 2.2 2.2 2.05 2.05 1.95 1.9 L1.85 1.7 Q1.75 1.55 1.7 1.35 L1.7 1.25 1.55 1.1 Q1.2 0.95 1.05 0.8 L0.9 0.7 0.8 0.45 0.8 0.3 0.85 0.25 0.85 0.2 0.95 0.1 0.95 0.25 0.85 0.4 0.9 0.5 Q0.95 0.6 1.05 0.7 L1.15 0.75 Q1.3 0.9 1.85 1.0 L1.95 1.0 2.15 1.05 2.2 1.2 2.25 1.2 Q2.3 1.35 2.35 1.55 L2.35 1.6 2.4 1.7 2.4 1.8 2.55 1.95 2.55 2.0 2.5 2.0 Q2.35 2.0 2.25 1.9 2.3 1.95 2.35 2.0 2.55 2.1 2.9 2.15 3.25 2.2 3.4 2.3 3.65 2.45 3.75 2.85 L3.8 3.0 3.9 3.15 Q3.95 4.0 3.7 4.05 L3.4 3.7 3.45 3.8 Q3.5 4.45 3.4 4.45 L3.3 4.45 3.15 4.4 3.05 4.5 2.9 4.6 Q2.35 4.7 1.95 4.45 1.75 4.25 1.6 4.05 L1.55 3.85 1.5 3.6 1.3 3.2 Q1.3 3.15 1.4 2.75 1.5 2.4 1.45 2.25 1.35 1.8 0.9 1.35 L0.4 0.85 Q0.05 0.6 0.05 0.55 L0.0 0.5 0.0 0.4 Q0.0 0.25 0.05 0.2 M3.5 3.5 L3.5 3.55 3.6 3.6 3.6 3.65 Q3.7 3.6 3.7 3.3 L3.65 3.2 3.65 3.3 3.6 3.35 3.5 3.5 M1.85 1.2 L1.8 1.15 1.75 1.15 1.8 1.2 1.8 1.3 1.9 1.55 1.9 1.7 1.95 1.7 2.0 1.85 2.0 1.75 1.95 1.7 1.95 1.65 2.0 1.6 2.15 1.6 Q2.2 1.45 2.05 1.3 L2.0 1.25 1.85 1.2 M2.7 4.2 L2.5 4.4 2.45 4.4 Q2.6 4.45 2.8 4.4 L2.9 4.4 2.9 4.35 Q2.9 4.3 2.7 4.25 L2.7 4.2 M3.2 3.95 L3.1 4.05 3.0 4.05 3.05 4.1 Q3.2 4.2 3.3 4.2 L3.25 3.95 3.2 3.9 3.2 3.95" fill="#111111" fill-rule="evenodd" stroke="none"/>
      <path d="M3.5 3.5 L3.6 3.35 3.65 3.3 3.65 3.2 3.7 3.3 Q3.7 3.6 3.6 3.65 L3.6 3.6 3.5 3.55 3.5 3.5 M2.7 4.2 L2.7 4.25 Q2.9 4.3 2.9 4.35 L2.9 4.4 2.8 4.4 Q2.6 4.45 2.45 4.4 L2.5 4.4 2.7 4.2 M3.2 3.95 L3.2 3.9 3.25 3.95 3.3 4.2 Q3.2 4.2 3.05 4.1 L3.0 4.05 3.1 4.05 3.2 3.95" fill="#fffdbb" fill-rule="evenodd" stroke="none"/>
      <path d="M1.85 1.2 L2.0 1.25 2.05 1.3 Q2.2 1.45 2.15 1.6 L2.0 1.6 1.95 1.65 1.95 1.7 2.0 1.75 2.0 1.85 1.95 1.7 1.9 1.7 1.9 1.55 1.8 1.3 1.8 1.2 1.75 1.15 1.8 1.15 1.85 1.2" fill="#ec0000" fill-rule="evenodd" stroke="none"/>
      <path d="M0.85 0.4 L0.9 0.4 0.9 0.5 0.85 0.4" fill="#00cc66" fill-rule="evenodd" stroke="none"/>
      <path d="M0.9 0.5 Q0.95 0.6 1.05 0.7 L1.15 0.75 Q1.3 0.9 1.85 1.0 L1.95 1.0 2.15 1.05 2.2 1.2 2.25 1.2 Q2.3 1.35 2.35 1.55 L2.35 1.6 2.4 1.7 2.4 1.8 2.55 1.95 2.55 2.0 2.5 2.0 Q2.35 2.0 2.25 1.9 2.3 1.95 2.35 2.0 2.55 2.1 2.9 2.15 3.25 2.2 3.4 2.3 3.65 2.45 3.75 2.85 L3.8 3.0 3.9 3.15 Q3.95 4.0 3.7 4.05 L3.4 3.7 3.45 3.8 Q3.5 4.45 3.4 4.45 L3.3 4.45 3.15 4.4 3.05 4.5 2.9 4.6 Q2.35 4.7 1.95 4.45 1.75 4.25 1.6 4.05 L1.55 3.85 1.5 3.6 1.3 3.2 Q1.3 3.15 1.4 2.75 1.5 2.4 1.45 2.25 1.35 1.8 0.9 1.35 L0.4 0.85 Q0.05 0.6 0.05 0.55 L0.0 0.5 0.0 0.4 Q0.0 0.25 0.05 0.2 L0.05 0.35 0.1 0.4 0.1 0.45 0.2 0.55 0.3 0.6 0.7 0.95 Q1.0 1.15 1.2 1.4 L1.5 1.75 1.6 1.95 1.6 2.0 1.7 2.25 Q1.7 2.45 1.65 2.65 L1.65 2.7 Q1.65 2.85 1.6 3.0 L1.6 3.3 1.65 3.35 Q1.8 3.55 1.85 3.75 1.85 3.95 2.0 4.1 L2.15 4.25 Q2.25 4.3 2.35 4.35 L2.45 4.35 2.6 4.2 2.6 4.15 2.55 4.15 2.3 3.85 Q2.0 3.6 1.95 3.3 1.9 3.15 2.05 3.1 L1.95 3.05 1.85 2.95 Q2.05 2.9 2.15 3.0 L2.15 3.05 2.2 3.1 Q2.35 3.2 2.5 3.55 2.75 4.0 3.0 3.95 3.1 3.95 3.15 3.9 3.15 3.8 3.15 3.75 3.1 3.5 2.8 3.3 2.6 3.15 2.55 3.05 L2.45 2.9 2.45 2.85 Q2.5 2.75 2.7 2.7 2.75 2.7 2.85 2.8 L2.9 2.8 Q3.0 2.85 3.1 3.05 3.25 3.3 3.4 3.4 L3.45 3.4 3.55 3.35 3.55 3.3 Q3.55 3.1 3.45 2.85 L3.45 2.8 3.4 2.75 Q3.35 2.65 3.25 2.6 L3.2 2.6 2.85 2.45 2.75 2.45 Q2.5 2.4 2.2 2.2 2.05 2.05 1.95 1.9 L1.85 1.7 Q1.75 1.55 1.7 1.35 L1.7 1.25 1.55 1.1 Q1.2 0.95 1.05 0.8 L0.9 0.7 0.8 0.45 0.8 0.3 0.85 0.25 0.85 0.2 0.95 0.1 0.95 0.25 0.85 0.4 0.9 0.5 M3.5 3.5 L3.5 3.55 3.6 3.6 3.6 3.65 Q3.7 3.6 3.7 3.3 L3.65 3.2 3.65 3.3 3.6 3.35 3.5 3.5 M1.85 1.2 L1.8 1.15 1.75 1.15 1.8 1.2 1.8 1.3 1.9 1.55 1.9 1.7 1.95 1.7 2.0 1.85 2.0 1.75 1.95 1.7 1.95 1.65 2.0 1.6 2.15 1.6 Q2.2 1.45 2.05 1.3 L2.0 1.25 1.85 1.2 M2.7 4.2 L2.5 4.4 2.45 4.4 Q2.6 4.45 2.8 4.4 L2.9 4.4 2.9 4.35 Q2.9 4.3 2.7 4.25 L2.7 4.2 M3.2 3.95 L3.1 4.05 3.0 4.05 3.05 4.1 Q3.2 4.2 3.3 4.2 L3.25 3.95 3.2 3.9 3.2 3.95" fill="#111111" fill-rule="evenodd" stroke="none"/>
      <path d="M3.2 2.6 L3.25 2.6 Q3.35 2.65 3.4 2.75 L3.45 2.8 3.45 2.85 Q3.55 3.1 3.55 3.3 L3.55 3.35 3.45 3.4 3.4 3.4 Q3.25 3.3 3.1 3.05 3.0 2.85 2.9 2.8 L2.85 2.8 Q2.75 2.7 2.7 2.7 2.5 2.75 2.45 2.85 L2.45 2.9 2.55 3.05 Q2.6 3.15 2.8 3.3 3.1 3.5 3.15 3.75 3.15 3.8 3.15 3.9 3.1 3.95 3.0 3.95 2.75 4.0 2.5 3.55 2.35 3.2 2.2 3.1 L2.15 3.05 2.15 3.0 Q2.05 2.9 1.85 2.95 L1.95 3.05 2.05 3.1 Q1.9 3.15 1.95 3.3 2.0 3.6 2.3 3.85 L2.55 4.15 2.6 4.15 2.6 4.2 2.45 4.35 2.35 4.35 Q2.25 4.3 2.15 4.25 L2.0 4.1 Q1.85 3.95 1.85 3.75 1.8 3.55 1.65 3.35 L1.6 3.3 1.6 3.0 Q1.65 2.85 1.65 2.7 L1.65 2.65 Q1.7 2.45 1.7 2.25 L1.6 2.0 1.6 1.95 1.5 1.75 1.2 1.4 Q1.0 1.15 0.7 0.95 L0.3 0.6 0.2 0.55 0.1 0.45 0.1 0.4 0.05 0.35 0.05 0.2 Q0.1 0.1 0.35 0.05 L0.55 0.0 Q0.85 0.0 0.85 0.2 L0.85 0.25 0.8 0.3 0.8 0.45 0.9 0.7 1.05 0.8 Q1.2 0.95 1.55 1.1 L1.7 1.25 1.7 1.35 Q1.75 1.55 1.85 1.7 L1.95 1.9 Q2.05 2.05 2.2 2.2 2.5 2.4 2.75 2.45 L2.85 2.45 3.2 2.6 M0.9 0.4 L0.9 0.5 0.85 0.4 0.9 0.4" fill="#00cc66" fill-rule="evenodd" stroke="none"/>
      <path d="M3.6 3.35 L3.65 3.3 3.65 3.2 3.7 3.3 Q3.7 3.6 3.6 3.65 L3.6 3.6 3.5 3.55 3.5 3.5 3.6 3.35 M2.7 4.2 L2.7 4.25 Q2.9 4.3 2.9 4.35 L2.9 4.4 2.8 4.4 Q2.6 4.45 2.45 4.4 L2.5 4.4 2.7 4.2 M3.2 3.95 L3.2 3.9 3.25 3.95 3.3 4.2 Q3.2 4.2 3.05 4.1 L3.0 4.05 3.1 4.05 3.2 3.95" fill="#fffdbb" fill-rule="evenodd" stroke="none"/>
      <path d="M1.85 1.2 L2.0 1.25 2.05 1.3 Q2.2 1.45 2.15 1.6 L2.0 1.6 1.95 1.65 1.95 1.7 2.0 1.75 2.0 1.85 1.95 1.7 1.9 1.7 1.9 1.55 1.8 1.3 1.8 1.2 1.75 1.15 1.8 1.15 1.85 1.2" fill="#ec0000" fill-rule="evenodd" stroke="none"/>
      <path d="M0.85 0.4 L0.9 0.4 0.9 0.5 0.85 0.4" fill="#00cc66" fill-rule="evenodd" stroke="none"/>
      <path d="M0.9 0.5 Q0.95 0.6 1.05 0.7 L1.15 0.75 Q1.2 0.85 1.4 0.9 L1.75 1.05 Q2.0 1.15 2.1 1.35 L2.3 1.7 2.4 1.85 2.3 1.85 2.2 1.8 2.15 1.8 2.15 1.85 Q2.1 2.05 2.5 2.2 L3.2 2.45 Q3.3 2.5 3.5 2.85 3.65 3.0 3.7 3.1 L3.8 3.45 Q3.75 3.6 3.7 3.9 L3.45 3.75 3.4 3.7 3.45 3.8 Q3.4 3.85 3.4 3.95 L3.45 4.2 3.4 4.35 3.05 4.35 3.1 4.45 3.05 4.5 2.65 4.55 2.4 4.5 2.3 4.45 Q2.2 4.35 2.15 4.4 L1.8 4.0 Q1.75 3.9 1.7 3.75 L1.65 3.55 1.45 3.05 1.55 2.55 1.5 2.15 Q1.45 1.9 1.4 1.8 L1.15 1.4 Q1.0 1.15 0.65 1.0 L0.55 1.0 0.4 0.85 Q0.05 0.6 0.05 0.55 L0.0 0.5 0.0 0.4 Q0.0 0.25 0.05 0.2 L0.05 0.35 0.1 0.4 0.1 0.45 0.2 0.55 0.3 0.6 0.7 0.95 Q1.0 1.15 1.2 1.4 L1.5 1.75 1.6 1.95 1.6 2.0 1.7 2.25 Q1.7 2.45 1.65 2.65 L1.65 2.7 Q1.65 2.85 1.6 3.0 L1.6 3.3 1.65 3.35 Q1.8 3.55 1.85 3.75 1.85 3.95 2.0 4.1 L2.15 4.25 Q2.25 4.3 2.35 4.35 L2.45 4.35 2.6 4.2 2.6 4.15 2.55 4.15 2.3 3.85 Q2.0 3.6 1.95 3.3 1.9 3.15 2.05 3.1 L1.95 3.05 1.85 2.95 Q2.05 2.9 2.15 3.0 L2.15 3.05 2.2 3.1 Q2.35 3.2 2.5 3.55 2.75 4.0 3.0 3.95 3.1 3.95 3.15 3.9 3.15 3.8 3.15 3.75 3.1 3.5 2.8 3.3 2.6 3.15 2.55 3.05 L2.45 2.9 2.45 2.85 Q2.5 2.75 2.7 2.7 2.75 2.7 2.85 2.8 L2.9 2.8 Q3.0 2.85 3.1 3.05 3.25 3.3 3.4 3.4 L3.45 3.4 3.55 3.35 3.55 3.3 Q3.55 3.1 3.45 2.85 L3.45 2.8 3.4 2.75 Q3.35 2.65 3.25 2.6 L3.2 2.6 2.85 2.45 2.75 2.45 Q2.5 2.4 2.2 2.2 2.05 2.05 1.95 1.9 L1.85 1.7 Q1.75 1.55 1.7 1.35 L1.7 1.25 1.55 1.1 Q1.2 0.95 1.05 0.8 L0.9 0.7 0.8 0.45 0.8 0.3 0.85 0.25 0.85 0.2 0.95 0.1 0.95 0.25 0.85 0.4 0.9 0.5 M3.5 3.5 L3.5 3.55 3.6 3.6 3.6 3.65 Q3.7 3.6 3.7 3.3 L3.65 3.2 3.65 3.3 3.6 3.35 3.5 3.5 M1.85 1.2 L1.8 1.15 1.75 1.15 1.8 1.2 1.8 1.3 1.9 1.55 1.9 1.7 1.95 1.7 2.0 1.85 2.0 1.75 1.95 1.7 1.95 1.65 2.0 1.6 2.15 1.6 Q2.2 1.45 2.05 1.3 L2.0 1.25 1.85 1.2 M2.7 4.2 L2.5 4.4 2.45 4.4 Q2.6 4.45 2.8 4.4 L2.9 4.4 2.9 4.35 Q2.9 4.3 2.7 4.25 L2.7 4.2 M3.2 3.95 L3.1 4.05 3.0 4.05 3.05 4.1 Q3.2 4.2 3.3 4.2 L3.25 3.95 3.2 3.9 3.2 3.95" fill="#111111" fill-rule="evenodd" stroke="none"/>
    </g>
  </defs>
</svg>
