<?xml version="1.0" encoding="UTF-8" standalone="no"?>
<svg xmlns:ffdec="https://www.free-decompiler.com/flash" xmlns:xlink="http://www.w3.org/1999/xlink" ffdec:objectType="frame" height="156.1px" width="119.7px" xmlns="http://www.w3.org/2000/svg">
  <g transform="matrix(1.0, 0.0, 0.0, 1.0, 43.75, 93.45)">
    <use ffdec:characterId="1120" height="22.3" transform="matrix(7.0, 0.0, 0.0, 7.0, -43.75, -93.45)" width="17.1" xlink:href="#shape0"/>
  </g>
  <defs>
    <g id="shape0" transform="matrix(1.0, 0.0, 0.0, 1.0, 6.25, 13.35)">
      <path d="M0.45 7.25 Q-0.4 6.4 -1.2 5.1 -2.05 3.85 -2.85 2.2 L-3.4 1.1 -4.05 0.15 Q-4.75 -0.85 -5.25 -2.1 -5.65 -3.05 -5.65 -3.25 -5.65 -4.2 -5.3 -5.15 L-5.4 -5.45 -5.45 -5.95 Q-5.85 -6.25 -6.05 -6.85 -6.25 -7.45 -6.25 -8.15 -6.25 -9.45 -6.2 -9.6 -6.0 -10.45 -5.0 -10.55 -4.65 -10.6 -4.45 -10.25 -4.2 -9.75 -4.0 -9.6 L-3.55 -9.25 Q-3.0 -9.05 -2.15 -8.95 -1.05 -9.7 0.15 -10.0 0.2 -10.2 0.45 -10.45 0.75 -10.8 0.75 -11.15 L0.7 -11.75 Q0.6 -12.2 0.6 -12.35 L0.6 -12.4 Q0.45 -12.75 0.45 -12.85 0.45 -13.4 1.05 -13.35 1.55 -13.25 2.3 -12.7 3.05 -12.15 3.6 -11.45 4.15 -10.7 4.15 -10.1 L4.15 -9.9 Q5.25 -9.45 6.1 -8.5 8.25 -6.0 8.25 -0.7 L8.25 -0.55 Q8.65 -0.1 9.25 1.0 9.65 1.8 10.0 2.65 9.9 2.55 9.7 2.5 L9.0 2.45 8.95 2.35 8.8 2.4 8.55 2.5 8.15 2.55 8.1 2.6 8.05 2.6 7.5 2.7 6.05 2.95 5.6 3.05 Q4.9 3.2 4.25 3.5 L4.2 3.5 Q3.45 3.55 2.75 3.95 L2.85 3.95 2.65 3.95 Q2.5 3.95 2.15 4.25 L2.05 4.35 1.5 5.0 1.4 5.1 1.4 5.15 0.9 5.8 0.8 5.95 0.7 6.05 0.85 6.2 0.65 6.55 Q0.5 7.0 0.45 7.25 M-4.3 -9.15 Q-4.8 -9.4 -4.95 -9.6 L-5.3 -8.8 Q-5.35 -8.7 -5.35 -8.15 -5.35 -7.45 -4.7 -6.85 L-4.5 -6.65 Q-4.05 -7.3 -3.45 -7.9 L-3.0 -8.3 Q-3.7 -8.5 -4.1 -8.9 L-4.3 -9.15 M5.75 -7.3 L5.7 -7.35 5.55 -7.6 Q5.15 -8.2 4.75 -8.5 L4.65 -8.6 Q3.3 -9.6 1.55 -9.3 L0.85 -9.15 0.75 -9.05 Q-0.05 -9.05 -0.95 -8.45 L-1.2 -8.3 -1.35 -8.2 -1.85 -7.75 Q-2.9 -6.95 -3.75 -5.95 -4.65 -4.85 -4.65 -4.25 -4.65 -2.3 -3.65 -0.6 -2.0 2.4 2.05 2.4 3.95 2.4 5.2 1.85 6.4 1.3 7.0 0.3 7.6 -0.8 7.45 -2.05 L7.4 -2.45 Q7.35 -3.0 7.2 -3.7 7.05 -4.35 6.75 -5.1 L6.55 -5.55 6.5 -5.7 Q6.15 -6.65 5.75 -7.3 M1.8 -10.95 Q1.8 -10.55 1.75 -10.45 L1.65 -10.3 3.0 -10.25 2.85 -10.6 Q2.25 -11.95 1.5 -12.25 L1.7 -11.55 Q1.8 -11.15 1.8 -10.95 M8.15 1.0 L7.95 0.6 Q7.75 0.95 7.45 1.3 L7.45 1.35 7.2 1.55 7.0 1.75 6.85 1.85 6.45 2.1 7.1 1.95 8.0 1.75 8.55 1.7 8.15 1.0 M-0.25 5.1 L0.2 5.55 Q0.25 5.45 0.4 5.3 0.55 5.05 0.9 4.8 1.35 4.35 1.95 3.9 2.55 3.45 3.05 3.2 L2.0 3.35 1.85 3.35 0.55 3.35 Q-0.4 3.35 -1.3 2.9 L-1.3 2.95 Q-1.3 3.15 -1.4 3.35 L-1.4 3.4 -0.9 4.2 -0.25 5.1" fill="#111111" fill-rule="evenodd" stroke="none"/>
      <path d="M7.2 -3.7 Q7.35 -3.0 7.4 -2.45 L7.45 -2.05 Q7.6 -0.8 7.0 0.3 6.4 1.3 5.2 1.85 3.95 2.4 2.05 2.4 -2.0 2.4 -3.65 -0.6 -4.65 -2.3 -4.65 -4.25 -4.65 -4.85 -3.75 -5.95 -2.9 -6.95 -1.85 -7.75 L-1.35 -8.2 -1.2 -8.3 -0.95 -8.45 Q-0.05 -9.05 0.75 -9.05 L0.85 -9.15 1.55 -9.3 Q3.3 -9.6 4.65 -8.6 L4.75 -8.5 Q5.15 -8.2 5.55 -7.6 L5.7 -7.35 5.75 -7.3 5.5 -7.55 Q4.0 -8.7 1.65 -8.4 -0.5 -8.1 -2.15 -6.7 -3.9 -5.25 -3.9 -3.5 -3.9 -1.75 -2.9 -0.3 -1.3 2.05 2.25 2.05 5.2 2.05 6.5 -0.2 7.2 -1.55 7.2 -3.1 L7.2 -3.7 M7.45 1.3 Q7.75 0.95 7.95 0.6 L8.15 1.0 Q7.8 1.1 7.45 1.3 M7.1 1.95 L6.45 2.1 6.85 1.85 Q7.0 1.9 7.1 1.95 M1.85 3.35 L1.75 3.35 Q1.1 3.75 0.55 4.2 0.0 4.65 -0.25 5.1 L-0.9 4.2 -1.4 3.4 -1.4 3.35 Q-1.3 3.15 -1.3 2.95 L-1.3 2.9 Q-0.4 3.35 0.55 3.35 L1.85 3.35" fill="#332b37" fill-rule="evenodd" stroke="none"/>
      <path d="M-4.3 -9.15 L-4.1 -8.9 Q-3.7 -8.5 -3.0 -8.3 L-3.45 -7.9 Q-4.05 -7.3 -4.5 -6.65 L-4.7 -6.85 Q-5.35 -7.45 -5.35 -8.15 -5.35 -8.7 -5.3 -8.8 L-4.95 -9.6 Q-4.8 -9.4 -4.3 -9.15 M1.8 -10.95 Q1.8 -11.15 1.7 -11.55 L1.5 -12.25 Q2.25 -11.95 2.85 -10.6 L3.0 -10.25 1.65 -10.3 1.75 -10.45 Q1.8 -10.55 1.8 -10.95" fill="#21172b" fill-rule="evenodd" stroke="none"/>
      <path d="M10.0 2.65 L10.35 3.35 Q10.85 4.6 10.85 4.9 10.85 5.25 10.1 5.95 9.4 6.6 8.25 7.3 5.55 8.95 3.5 8.95 L3.2 8.9 3.0 8.9 2.9 8.85 2.75 8.85 Q2.3 8.7 1.8 8.4 1.15 8.0 0.45 7.25 0.5 7.0 0.65 6.55 L0.85 6.2 Q1.4 6.7 1.85 7.05 3.0 7.85 3.85 7.85 4.5 7.85 5.3 7.6 L5.3 7.55 5.4 7.25 5.45 7.2 Q5.45 7.05 5.3 6.75 L5.2 6.35 5.2 6.3 Q5.2 6.15 5.15 5.95 L5.0 5.75 Q4.8 5.4 4.4 4.85 L4.25 4.6 Q3.8 4.05 3.45 3.85 L2.85 3.95 2.75 3.95 Q3.45 3.55 4.2 3.5 L4.1 3.55 3.95 3.65 3.9 3.65 Q4.05 4.1 4.5 4.8 L5.2 5.75 5.35 5.9 5.5 6.1 5.55 6.15 5.9 6.65 5.95 6.7 6.3 7.15 6.55 7.0 7.75 6.3 Q8.6 5.75 9.25 5.15 L9.3 5.15 Q9.5 4.6 9.55 4.3 L9.55 4.15 9.5 3.35 9.0 2.45 9.7 2.5 Q9.9 2.55 10.0 2.65 M0.05 -6.65 L-0.4 -6.45 -0.8 -6.2 -1.3 -5.8 Q-2.1 -5.1 -2.45 -4.1 -2.75 -3.25 -2.8 -2.25 -2.8 -1.95 -2.7 -1.65 L-2.7 -1.6 Q-2.55 -1.25 -2.3 -0.95 L-1.85 -0.45 -1.85 -0.4 -1.8 -0.4 -1.6 -0.25 Q-0.75 0.4 0.45 0.65 L1.85 0.75 Q4.25 0.75 5.45 -0.45 5.85 -0.85 6.05 -1.2 L6.15 -1.5 Q6.3 -1.8 6.3 -2.15 L6.3 -2.2 Q6.3 -2.85 6.2 -3.45 L6.15 -3.5 6.15 -3.6 Q5.95 -4.35 5.55 -5.0 5.3 -5.4 4.95 -5.75 3.7 -6.95 1.85 -6.95 0.9 -7.0 0.1 -6.65 L0.05 -6.65 M-1.05 -6.45 L-1.1 -6.35 -1.05 -6.35 -0.8 -6.55 -1.05 -6.45 M-2.3 -5.65 L-2.2 -5.8 -1.8 -6.1 -1.7 -6.15 Q-0.15 -7.4 1.8 -7.6 3.95 -7.85 5.3 -6.65 6.45 -5.6 6.7 -3.65 6.8 -2.95 6.75 -2.15 L6.7 -1.2 Q6.55 -0.5 6.1 0.0 4.8 1.45 0.95 1.45 -0.35 1.45 -1.3 0.95 -1.85 0.65 -2.25 0.2 -2.7 -0.3 -3.0 -1.0 -3.45 -2.2 -3.35 -3.5 -3.35 -4.65 -2.3 -5.65" fill="#d90005" fill-rule="evenodd" stroke="none"/>
      <path d="M0.85 6.2 L0.7 6.05 0.8 5.95 0.9 5.8 1.05 5.95 Q2.35 6.8 4.4 6.8 L5.3 6.75 Q5.45 7.05 5.45 7.2 L5.4 7.25 5.3 7.55 5.3 7.6 Q4.5 7.85 3.85 7.85 3.0 7.85 1.85 7.05 1.4 6.7 0.85 6.2 M8.8 2.4 L8.95 2.35 9.0 2.45 9.5 3.35 9.55 4.15 9.55 4.3 Q9.5 4.6 9.3 5.15 L9.25 5.15 Q8.6 5.75 7.75 6.3 L6.55 7.0 6.3 7.15 5.95 6.7 5.9 6.65 6.4 6.35 Q8.25 5.25 8.5 3.95 L8.8 2.4 M-0.8 -6.2 L0.05 -6.65 0.1 -6.65 Q0.9 -7.0 1.85 -6.95 3.7 -6.95 4.95 -5.75 5.3 -5.4 5.55 -5.0 3.85 -5.9 1.85 -5.9 -1.7 -5.9 -2.2 -2.25 -2.3 -1.7 -2.3 -0.95 -2.55 -1.25 -2.7 -1.6 L-2.7 -1.65 Q-2.8 -1.95 -2.8 -2.25 -2.75 -3.25 -2.45 -4.1 -2.1 -5.1 -1.3 -5.8 L-0.8 -6.2" fill="#ff552b" fill-rule="evenodd" stroke="none"/>
      <path d="M7.2 -3.7 L7.2 -3.1 Q7.2 -1.55 6.5 -0.2 5.2 2.05 2.25 2.05 -1.3 2.05 -2.9 -0.3 -3.9 -1.75 -3.9 -3.5 -3.9 -5.25 -2.15 -6.7 -0.5 -8.1 1.65 -8.4 4.0 -8.7 5.5 -7.55 L5.75 -7.3 Q6.15 -6.65 6.5 -5.7 L6.55 -5.55 6.75 -5.1 Q7.05 -4.35 7.2 -3.7 M-2.3 -5.65 Q-3.35 -4.65 -3.35 -3.5 -3.45 -2.2 -3.0 -1.0 -2.7 -0.3 -2.25 0.2 -1.85 0.65 -1.3 0.95 -0.35 1.45 0.95 1.45 4.8 1.45 6.1 0.0 6.55 -0.5 6.7 -1.2 L6.75 -2.15 Q6.8 -2.95 6.7 -3.65 6.45 -5.6 5.3 -6.65 3.95 -7.85 1.8 -7.6 -0.15 -7.4 -1.7 -6.15 L-1.8 -6.1 -2.2 -5.8 -2.3 -5.65 M7.45 1.3 Q7.8 1.1 8.15 1.0 L8.55 1.7 8.0 1.75 7.1 1.95 Q7.0 1.9 6.85 1.85 L7.0 1.75 7.2 1.55 7.45 1.35 7.45 1.3 M1.85 3.35 L2.0 3.35 3.05 3.2 Q2.55 3.45 1.95 3.9 1.35 4.35 0.9 4.8 0.55 5.05 0.4 5.3 0.25 5.45 0.2 5.55 L-0.25 5.1 Q0.0 4.65 0.55 4.2 1.1 3.75 1.75 3.35 L1.85 3.35" fill="#bc2e38" fill-rule="evenodd" stroke="none"/>
      <path d="M0.9 5.8 L1.4 5.15 Q2.45 5.85 4.4 5.85 4.65 5.85 5.0 5.75 L5.15 5.95 Q5.2 6.15 5.2 6.3 L5.2 6.35 5.3 6.75 4.4 6.8 Q2.35 6.8 1.05 5.95 L0.9 5.8 M7.5 2.7 L8.05 2.6 8.1 2.6 8.15 2.55 8.55 2.5 8.8 2.4 8.5 3.95 Q8.25 5.25 6.4 6.35 L5.9 6.65 5.55 6.15 5.5 6.1 5.35 5.9 5.2 5.75 Q6.5 4.95 6.75 4.65 7.1 4.2 7.3 3.55 L7.5 2.7 M5.55 -5.0 Q5.95 -4.35 6.15 -3.6 L6.15 -3.5 Q4.75 -4.75 2.9 -4.75 0.6 -4.75 -0.65 -3.0 -1.45 -1.8 -1.45 -0.7 L-1.4 -0.1 -1.6 -0.25 -1.8 -0.4 -1.85 -0.4 -1.85 -0.45 -2.3 -0.95 Q-2.3 -1.7 -2.2 -2.25 -1.7 -5.9 1.85 -5.9 3.85 -5.9 5.55 -5.0" fill="#ffad5b" fill-rule="evenodd" stroke="none"/>
      <path d="M1.4 5.15 L1.4 5.1 1.5 5.0 2.05 4.35 2.15 4.25 Q3.1 4.65 3.6 4.65 L4.25 4.6 4.4 4.85 Q4.8 5.4 5.0 5.75 4.65 5.85 4.4 5.85 2.45 5.85 1.4 5.15 M6.05 2.95 L7.5 2.7 7.3 3.55 Q7.1 4.2 6.75 4.65 6.5 4.95 5.2 5.75 L4.5 4.8 4.45 4.65 4.9 4.2 Q5.6 3.55 6.05 2.95 M-0.8 -6.2 L-0.4 -6.45 0.05 -6.65 -0.8 -6.2 M6.15 -3.5 L6.2 -3.45 Q6.3 -2.85 6.3 -2.2 L6.3 -2.15 Q6.3 -1.8 6.15 -1.5 L6.05 -1.2 Q4.8 -3.15 3.0 -3.15 0.85 -3.15 0.3 -1.85 0.1 -1.4 0.1 -0.85 L0.15 -0.3 Q0.15 0.2 0.45 0.65 -0.75 0.4 -1.6 -0.25 L-1.4 -0.1 -1.45 -0.7 Q-1.45 -1.8 -0.65 -3.0 0.6 -4.75 2.9 -4.75 4.75 -4.75 6.15 -3.5 M-2.7 -1.6 L-2.7 -1.65 -2.7 -1.6" fill="#fff088" fill-rule="evenodd" stroke="none"/>
      <path d="M2.15 4.25 Q2.5 3.95 2.65 3.95 L2.85 3.95 3.45 3.85 Q3.8 4.05 4.25 4.6 L3.6 4.65 Q3.1 4.65 2.15 4.25 M4.2 3.5 L4.25 3.5 Q4.9 3.2 5.6 3.05 L6.05 2.95 Q5.6 3.55 4.9 4.2 L4.45 4.65 4.5 4.8 Q4.05 4.1 3.9 3.65 L3.95 3.65 4.1 3.55 4.2 3.5 M6.05 -1.2 Q5.85 -0.85 5.45 -0.45 4.25 0.75 1.85 0.75 L0.45 0.65 Q0.15 0.2 0.15 -0.3 L0.1 -0.85 Q0.1 -1.4 0.3 -1.85 0.85 -3.15 3.0 -3.15 4.8 -3.15 6.05 -1.2" fill="#ffffff" fill-rule="evenodd" stroke="none"/>
    </g>
  </defs>
</svg>
