<?xml version="1.0" encoding="UTF-8" standalone="no"?>
<svg xmlns:ffdec="https://www.free-decompiler.com/flash" xmlns:xlink="http://www.w3.org/1999/xlink" ffdec:objectType="frame" height="155.75px" width="119.0px" xmlns="http://www.w3.org/2000/svg">
  <g transform="matrix(1.0, 0.0, 0.0, 1.0, 48.3, 95.9)">
    <use ffdec:characterId="1132" height="22.25" transform="matrix(7.0, 0.0, 0.0, 7.0, -48.3, -95.9)" width="17.0" xlink:href="#shape0"/>
  </g>
  <defs>
    <g id="shape0" transform="matrix(1.0, 0.0, 0.0, 1.0, 6.9, 13.7)">
      <path d="M6.35 -9.45 Q6.25 -9.35 6.15 -9.3 L6.3 -7.35 Q6.4 -6.8 6.75 -6.45 L7.1 -6.1 Q7.1 -5.7 5.8 -5.7 L5.9 -5.05 Q6.0 -4.6 6.05 -4.35 6.35 -3.35 7.3 -1.7 7.6 -1.1 8.2 -0.3 L9.1 1.0 Q10.1 2.5 10.1 3.6 L10.1 4.55 Q10.1 5.05 9.95 5.5 L9.9 5.6 Q9.7 6.1 9.3 6.6 8.55 7.55 7.3 8.0 L6.9 8.15 Q5.85 8.55 4.3 8.55 2.4 8.55 1.25 8.2 0.15 7.85 -0.55 7.1 -1.15 6.45 -1.65 5.2 -1.95 4.45 -2.55 2.45 L-2.7 1.95 -3.5 0.3 Q-4.45 -1.8 -4.45 -2.4 L-4.45 -2.45 -4.85 -3.4 -5.0 -3.2 -5.25 -2.8 Q-5.7 -3.3 -5.85 -3.8 -6.05 -4.2 -6.05 -4.75 L-6.05 -5.6 Q-6.0 -5.9 -5.9 -6.1 -6.3 -6.45 -6.55 -7.1 -6.8 -7.75 -6.9 -8.45 -6.9 -9.35 -6.0 -10.35 L-5.85 -10.5 -5.65 -10.8 Q-5.3 -11.45 -4.85 -11.55 L-4.8 -11.55 -4.75 -11.45 Q-4.7 -11.35 -4.55 -11.05 -4.35 -10.4 -4.15 -10.05 -3.35 -8.65 -1.6 -8.65 -0.2 -8.65 0.45 -10.2 L0.65 -10.85 Q0.65 -11.3 0.55 -11.8 0.55 -12.95 1.15 -13.45 1.45 -13.7 1.85 -13.7 L2.6 -13.6 Q3.2 -13.5 3.65 -13.2 L3.9 -12.95 Q4.3 -12.85 4.75 -12.55 5.8 -11.8 6.05 -11.1 6.4 -10.5 6.4 -9.8 6.4 -9.6 6.35 -9.45 M4.6 -11.55 L4.3 -11.7 Q3.8 -12.0 2.9 -12.0 2.5 -12.0 2.3 -11.7 2.15 -11.55 2.05 -11.3 L1.95 -11.4 Q1.9 -11.45 1.9 -11.6 1.9 -12.35 2.6 -12.6 L2.85 -12.65 Q2.6 -12.8 2.35 -12.85 1.75 -12.75 1.55 -12.05 L1.3 -10.25 Q1.2 -9.05 0.7 -8.5 0.05 -7.65 -1.55 -7.65 L-2.2 -7.75 Q-2.95 -7.75 -3.55 -8.25 -4.25 -8.55 -4.65 -9.1 -4.85 -9.4 -4.95 -9.8 L-5.2 -10.1 -5.2 -10.15 -5.25 -10.1 -5.5 -9.4 -5.5 -9.15 Q-5.5 -8.6 -4.9 -8.1 L-4.55 -7.85 Q-3.55 -7.45 -3.45 -7.4 -4.25 -7.55 -4.8 -7.8 -5.7 -8.25 -5.9 -9.0 L-5.95 -8.65 Q-5.95 -7.25 -4.7 -6.55 -4.35 -6.35 -3.8 -6.15 -3.5 -6.05 -3.45 -6.0 L-3.4 -5.95 Q-3.4 -5.9 -4.2 -5.75 -4.35 -5.7 -4.5 -5.65 L-4.6 -5.55 -5.1 -5.0 -5.15 -4.8 -5.2 -4.65 -5.2 -4.6 Q-4.8 -4.95 -3.05 -5.35 L-1.35 -5.65 -1.25 -5.65 -0.3 -5.9 Q0.75 -6.2 1.55 -6.55 1.8 -6.7 2.2 -7.05 2.7 -7.5 2.9 -7.6 3.15 -7.75 3.35 -7.8 3.25 -8.0 3.25 -8.15 3.25 -8.3 3.35 -8.2 L4.4 -7.3 Q5.1 -6.7 5.6 -6.6 L5.55 -6.7 5.55 -6.75 5.5 -6.75 Q5.4 -6.95 5.35 -7.2 5.3 -7.4 5.3 -7.7 L5.3 -8.6 Q5.2 -9.1 4.95 -9.5 4.8 -9.7 4.7 -9.9 4.3 -10.3 3.55 -10.5 L3.4 -10.4 3.3 -10.35 2.8 -10.05 2.65 -10.0 2.95 -10.6 3.15 -10.85 Q3.3 -11.25 3.95 -11.05 L4.55 -10.9 5.1 -10.75 5.0 -10.95 Q4.85 -11.1 4.65 -11.45 L4.6 -11.55 M-0.05 -1.35 Q1.75 -1.35 2.5 -1.5 3.95 -1.85 4.35 -2.9 4.55 -3.45 5.15 -4.05 4.85 -4.9 4.8 -5.65 L4.5 -5.95 3.9 -6.6 3.75 -6.75 3.2 -6.75 2.9 -6.55 1.2 -5.55 0.95 -5.4 Q0.5 -5.2 0.2 -5.1 L-1.1 -4.9 Q-2.15 -4.7 -2.4 -4.55 L-2.4 -4.5 -2.45 -4.5 -2.5 -4.45 -2.9 -4.1 -3.0 -4.0 Q-3.0 -3.9 -3.15 -3.5 -3.3 -3.15 -3.35 -3.1 -3.7 -3.2 -3.7 -3.9 -3.7 -4.1 -3.4 -4.4 L-3.35 -4.5 -4.15 -4.4 -4.1 -4.0 -4.1 -3.7 -3.7 -2.35 -3.3 -1.4 Q-3.05 -1.15 -2.9 -1.15 -2.8 -1.15 -2.55 -1.4 -2.35 -1.65 -2.05 -1.65 L-1.7 -1.6 -1.6 -1.55 -1.55 -1.45 -0.3 -1.35 -0.05 -1.35 M-2.0 -4.05 L-1.95 -4.05 Q-1.45 -4.25 -0.85 -4.35 L-0.45 -4.4 -0.1 -4.4 0.9 -4.2 Q1.75 -4.0 1.85 -3.95 2.15 -4.8 2.45 -5.25 3.05 -6.15 4.15 -5.7 2.85 -4.9 2.6 -4.45 2.5 -4.2 2.5 -3.9 L2.5 -3.2 2.45 -3.0 Q2.3 -2.8 2.15 -2.8 2.1 -2.8 1.2 -3.3 0.25 -3.8 -0.2 -3.8 L-0.35 -3.8 Q-1.1 -3.8 -1.9 -3.55 L-2.8 -3.35 Q-2.65 -3.7 -2.0 -4.05 M4.95 -2.95 Q4.65 -2.55 4.4 -2.25 3.3 -1.0 2.25 -1.0 L1.05 -1.15 -0.85 -1.25 -1.1 -1.25 -1.15 -1.25 -1.6 -1.25 Q-2.05 -1.25 -2.35 -0.95 L-2.45 -0.9 -2.5 -0.85 Q-2.75 -0.7 -2.95 -0.65 L-2.3 0.75 Q-1.95 1.35 -1.6 2.3 L-1.05 3.9 Q-0.8 4.45 -0.5 5.0 -0.35 4.85 -0.1 4.85 L0.15 4.8 0.3 4.85 0.35 4.85 1.2 5.2 Q2.05 5.55 2.75 5.55 3.3 5.55 3.75 5.35 4.3 5.05 4.8 4.4 L4.85 4.3 Q5.25 3.75 5.55 3.1 5.8 2.55 5.85 2.3 L5.85 2.2 Q5.95 1.55 6.25 1.6 6.5 1.6 7.05 2.15 7.9 3.25 8.5 3.8 L8.55 3.7 8.8 3.3 8.85 3.25 8.95 3.1 8.95 3.05 Q8.85 2.65 8.7 2.5 8.1 1.05 7.15 -0.15 6.2 -1.35 5.5 -2.95 L5.3 -3.5 4.95 -2.95 M9.1 5.15 L9.25 4.7 9.1 4.8 Q8.9 4.85 8.75 4.85 8.1 4.85 7.5 4.0 L7.4 3.85 7.35 3.8 7.2 3.55 6.65 2.85 Q6.35 3.1 6.05 3.6 L5.5 4.5 5.25 4.9 Q5.05 5.2 4.85 5.4 4.65 5.55 4.35 5.7 3.85 6.05 3.25 6.05 3.05 6.05 2.85 5.95 L2.65 5.95 Q2.0 5.95 1.05 5.5 L0.9 5.45 0.3 5.3 0.2 5.45 0.05 5.75 0.05 5.8 0.2 6.05 0.65 6.55 Q2.05 7.5 4.75 7.5 7.95 7.5 8.95 5.5 L9.1 5.15 M9.3 4.5 L9.2 4.0 9.15 3.95 8.95 4.1 8.9 4.2 9.05 4.3 8.95 4.4 9.25 4.5 9.3 4.55 9.3 4.5" fill="#111111" fill-rule="evenodd" stroke="none"/>
      <path d="M0.95 -5.4 L1.2 -5.55 1.15 -5.5 1.0 -5.4 0.95 -5.4" fill="#3f3753" fill-rule="evenodd" stroke="none"/>
      <path d="M9.25 4.5 L9.3 4.5 9.3 4.55 9.25 4.5" fill="#665986" fill-rule="evenodd" stroke="none"/>
      <path d="M-1.1 -1.25 L-1.15 -1.25 -1.1 -1.25" fill="#4f4668" fill-rule="evenodd" stroke="none"/>
      <path d="M-0.85 -4.35 L-1.0 -4.35 Q-0.85 -4.45 -0.7 -4.45 L-0.45 -4.4 -0.85 -4.35" fill="#1c1724" fill-rule="evenodd" stroke="none"/>
      <path d="M-1.0 -1.05 L-1.0 -1.1 0.7 -0.55 1.05 -0.5 Q1.0 -0.35 1.0 -0.15 0.95 0.05 1.1 0.25 1.4 0.6 2.4 0.6 2.8 0.6 2.9 0.3 L2.95 0.05 3.15 0.1 3.05 0.75 3.0 1.3 Q3.0 1.5 3.45 1.7 3.95 1.9 4.5 1.9 4.7 1.9 4.8 1.75 4.9 1.65 4.9 1.5 L4.9 1.45 5.1 1.45 Q5.35 1.45 5.45 1.3 5.55 1.15 5.55 0.95 5.55 0.45 5.2 0.3 L5.3 0.2 5.4 0.0 Q5.4 -0.3 5.15 -0.25 4.9 -0.25 4.9 0.1 L4.95 0.2 4.95 0.25 Q4.75 0.2 4.6 0.3 4.35 0.1 4.35 -0.05 4.35 -0.15 4.65 -0.4 4.9 -0.65 4.9 -0.9 4.9 -1.35 4.55 -1.6 L4.9 -2.0 5.15 -2.3 Q5.4 -1.65 5.7 -1.4 L5.7 -1.55 Q5.85 -0.85 6.9 0.35 8.25 1.9 8.45 2.25 8.6 2.45 8.8 3.3 L8.55 3.7 8.5 3.8 Q7.9 3.25 7.05 2.15 6.5 1.6 6.25 1.6 5.95 1.55 5.85 2.2 5.75 2.2 5.55 2.25 5.4 2.35 5.3 2.5 5.25 2.25 4.8 2.05 4.3 1.75 4.3 2.3 4.3 2.4 4.4 2.65 4.6 2.95 4.9 2.95 L4.95 2.95 Q4.7 3.35 4.7 3.75 L4.7 4.15 Q4.75 4.3 4.8 4.4 4.3 5.05 3.75 5.35 3.3 5.55 2.75 5.55 2.05 5.55 1.2 5.2 L0.35 4.85 0.3 4.85 0.15 4.8 -0.1 4.85 Q-0.4 3.95 -0.45 3.5 L-0.9 0.0 -1.0 -1.05 M1.95 1.4 Q2.1 1.3 2.1 1.15 2.1 0.8 1.75 0.8 1.4 0.8 1.4 1.15 1.35 1.15 1.4 1.25 1.45 1.45 1.75 1.45 1.85 1.45 1.95 1.4 M3.05 2.25 L3.05 2.05 Q3.0 1.9 3.0 1.85 2.75 1.75 2.6 1.9 2.55 1.95 2.55 2.05 L2.55 2.25 2.85 2.3 Q3.0 2.25 3.05 2.25 M3.8 2.55 L3.8 2.4 Q3.55 2.3 3.45 2.45 3.35 2.55 3.35 2.6 L3.55 2.8 Q3.65 2.8 3.75 2.7 3.8 2.6 3.8 2.55" fill="#80c0f0" fill-rule="evenodd" stroke="none"/>
      <path d="M5.15 -2.3 L4.95 -2.9 4.95 -2.95 5.3 -3.5 5.5 -2.95 Q6.2 -1.35 7.15 -0.15 8.1 1.05 8.7 2.5 8.85 2.65 8.95 3.05 L8.95 3.1 8.85 3.25 8.8 3.3 Q8.6 2.45 8.45 2.25 8.25 1.9 6.9 0.35 5.85 -0.85 5.7 -1.55 L5.7 -1.4 Q5.4 -1.65 5.15 -2.3 M-2.5 -0.85 L-2.45 -0.85 -2.1 -0.95 -1.6 -1.05 -1.0 -1.05 -0.9 0.0 -0.45 3.5 Q-0.4 3.95 -0.1 4.85 -0.35 4.85 -0.5 5.0 -0.8 4.45 -1.05 3.9 L-1.6 2.3 Q-1.95 1.35 -2.3 0.75 L-2.95 -0.65 Q-2.75 -0.7 -2.5 -0.85" fill="#0070e0" fill-rule="evenodd" stroke="none"/>
      <path d="M-5.2 -10.1 L-5.2 -9.55 Q-5.2 -8.8 -4.9 -8.1 -5.5 -8.6 -5.5 -9.15 L-5.5 -9.4 -5.25 -10.1 -5.2 -10.15 -5.2 -10.1 M-4.8 -7.8 L-4.55 -7.45 Q-3.55 -6.1 -1.5 -6.4 -1.8 -6.3 -2.8 -6.1 L-3.45 -6.0 Q-3.5 -6.05 -3.8 -6.15 -4.35 -6.35 -4.7 -6.55 -5.95 -7.25 -5.95 -8.65 L-5.9 -9.0 Q-5.7 -8.25 -4.8 -7.8 M-4.5 -5.65 L-3.05 -5.85 Q-0.1 -6.25 0.7 -6.8 1.8 -7.6 2.2 -8.15 2.75 -8.9 2.5 -9.55 L3.9 -8.2 4.65 -7.6 4.55 -8.2 4.45 -9.15 Q4.3 -9.7 3.6 -10.25 L3.4 -10.4 3.55 -10.5 Q4.3 -10.3 4.7 -9.9 4.8 -9.7 4.95 -9.5 5.2 -9.1 5.3 -8.6 L5.3 -7.7 Q5.3 -7.4 5.35 -7.2 5.4 -6.95 5.5 -6.75 L5.55 -6.75 5.55 -6.7 5.6 -6.6 Q5.1 -6.7 4.4 -7.3 L3.35 -8.2 Q3.25 -8.3 3.25 -8.15 3.25 -8.0 3.35 -7.8 3.15 -7.75 2.9 -7.6 2.7 -7.5 2.2 -7.05 1.8 -6.7 1.55 -6.55 0.75 -6.2 -0.3 -5.9 L-1.25 -5.65 -1.35 -5.65 -3.05 -5.35 Q-4.8 -4.95 -5.2 -4.6 L-5.2 -4.65 -5.15 -4.8 -5.1 -5.0 -4.6 -5.55 -4.5 -5.65 M2.8 -10.05 L2.7 -9.9 2.55 -9.85 2.45 -10.1 Q2.45 -10.25 2.45 -10.35 2.45 -11.2 3.3 -11.45 L4.6 -11.55 4.65 -11.45 Q4.85 -11.1 5.0 -10.95 L5.1 -10.75 4.55 -10.9 3.95 -11.05 Q3.3 -11.25 3.15 -10.85 L2.95 -10.6 2.65 -10.0 2.8 -10.05" fill="#9ebcc7" fill-rule="evenodd" stroke="none"/>
      <path d="M-5.2 -10.1 L-4.95 -9.8 Q-4.85 -9.4 -4.65 -9.1 -4.25 -8.55 -3.55 -8.25 -2.95 -7.75 -2.2 -7.75 L-1.55 -7.65 Q0.05 -7.65 0.7 -8.5 1.2 -9.05 1.3 -10.25 L1.55 -12.05 Q1.75 -12.75 2.35 -12.85 2.6 -12.8 2.85 -12.65 L2.6 -12.6 Q1.9 -12.35 1.9 -11.6 1.9 -11.45 1.95 -11.4 L2.05 -11.3 Q2.15 -11.55 2.3 -11.7 2.5 -12.0 2.9 -12.0 3.8 -12.0 4.3 -11.7 L4.6 -11.55 3.3 -11.45 Q2.45 -11.2 2.45 -10.35 2.45 -10.25 2.45 -10.1 L2.55 -9.85 2.7 -9.9 2.8 -10.05 3.3 -10.35 3.4 -10.4 3.6 -10.25 Q4.3 -9.7 4.45 -9.15 L4.55 -8.2 4.65 -7.6 3.9 -8.2 2.5 -9.55 Q2.75 -8.9 2.2 -8.15 1.8 -7.6 0.7 -6.8 -0.1 -6.25 -3.05 -5.85 L-4.5 -5.65 Q-4.35 -5.7 -4.2 -5.75 -3.4 -5.9 -3.4 -5.95 L-3.45 -6.0 -2.8 -6.1 Q-1.8 -6.3 -1.5 -6.4 -3.55 -6.1 -4.55 -7.45 L-4.8 -7.8 Q-4.25 -7.55 -3.45 -7.4 -3.55 -7.45 -4.55 -7.85 L-4.9 -8.1 Q-5.2 -8.8 -5.2 -9.55 L-5.2 -10.1" fill="#ccdbe1" fill-rule="evenodd" stroke="none"/>
      <path d="M5.15 -2.3 L4.9 -2.0 4.55 -1.6 Q4.9 -1.35 4.9 -0.9 4.9 -0.65 4.65 -0.4 4.35 -0.15 4.35 -0.05 4.35 0.1 4.6 0.3 4.75 0.2 4.95 0.25 L4.95 0.2 4.9 0.1 Q4.9 -0.25 5.15 -0.25 5.4 -0.3 5.4 0.0 L5.3 0.2 5.2 0.3 Q5.55 0.45 5.55 0.95 5.55 1.15 5.45 1.3 5.35 1.45 5.1 1.45 L4.9 1.45 4.9 1.5 Q4.9 1.65 4.8 1.75 4.7 1.9 4.5 1.9 3.95 1.9 3.45 1.7 3.0 1.5 3.0 1.3 L3.05 0.75 3.15 0.1 2.95 0.05 2.9 0.3 Q2.8 0.6 2.4 0.6 1.4 0.6 1.1 0.25 0.95 0.05 1.0 -0.15 1.0 -0.35 1.05 -0.5 L0.7 -0.55 -1.0 -1.1 -1.0 -1.05 -1.6 -1.05 -2.1 -0.95 -2.45 -0.85 -2.5 -0.85 -2.45 -0.9 -2.35 -0.95 Q-2.05 -1.25 -1.6 -1.25 L-1.15 -1.25 -1.1 -1.25 -0.85 -1.25 1.05 -1.15 2.25 -1.0 Q3.3 -1.0 4.4 -2.25 4.65 -2.55 4.95 -2.95 L4.95 -2.9 5.15 -2.3 M4.8 4.4 Q4.75 4.3 4.7 4.15 L4.7 3.75 Q4.7 3.35 4.95 2.95 L4.9 2.95 Q4.6 2.95 4.4 2.65 4.3 2.4 4.3 2.3 4.3 1.75 4.8 2.05 5.25 2.25 5.3 2.5 5.4 2.35 5.55 2.25 5.75 2.2 5.85 2.2 L5.85 2.3 Q5.8 2.55 5.55 3.1 5.25 3.75 4.85 4.3 L4.8 4.4 M3.8 2.55 Q3.8 2.6 3.75 2.7 3.65 2.8 3.55 2.8 L3.35 2.6 Q3.35 2.55 3.45 2.45 3.55 2.3 3.8 2.4 L3.8 2.55 M3.05 2.25 Q3.0 2.25 2.85 2.3 L2.55 2.25 2.55 2.05 Q2.55 1.95 2.6 1.9 2.75 1.75 3.0 1.85 3.0 1.9 3.05 2.05 L3.05 2.25 M1.95 1.4 Q1.85 1.45 1.75 1.45 1.45 1.45 1.4 1.25 1.35 1.15 1.4 1.15 1.4 0.8 1.75 0.8 2.1 0.8 2.1 1.15 2.1 1.3 1.95 1.4" fill="#d0f0f0" fill-rule="evenodd" stroke="none"/>
      <path d="M3.9 -6.6 L4.5 -5.95 4.8 -5.65 Q4.85 -4.9 5.15 -4.05 4.55 -3.45 4.35 -2.9 3.95 -1.85 2.5 -1.5 1.75 -1.35 -0.05 -1.35 -0.55 -1.45 -0.8 -1.6 -1.0 -1.65 -1.4 -1.95 L-0.8 -3.05 -0.35 -3.8 -0.2 -3.8 Q0.25 -3.8 1.2 -3.3 2.1 -2.8 2.15 -2.8 2.3 -2.8 2.45 -3.0 L2.5 -3.2 2.5 -3.9 Q2.5 -4.2 2.6 -4.45 2.85 -4.9 4.15 -5.7 3.05 -6.15 2.45 -5.25 2.15 -4.8 1.85 -3.95 1.75 -4.0 0.9 -4.2 L-0.1 -4.4 -0.45 -4.4 -0.7 -4.45 Q-0.85 -4.45 -1.0 -4.35 L-0.85 -4.35 Q-1.45 -4.25 -1.95 -4.05 L-2.0 -4.05 Q-2.35 -4.1 -2.55 -4.3 L-2.4 -4.45 -1.9 -4.55 -1.05 -4.75 1.05 -4.6 1.9 -5.3 2.95 -6.2 Q3.1 -6.3 3.9 -6.6 M0.2 5.45 L0.75 5.7 Q2.0 6.15 3.85 6.15 5.5 6.15 6.8 4.2 7.75 5.25 8.55 5.25 L9.1 5.15 8.95 5.5 Q7.95 7.5 4.75 7.5 2.05 7.5 0.65 6.55 L0.2 6.05 0.05 5.8 0.05 5.75 0.2 5.45" fill="#b00000" fill-rule="evenodd" stroke="none"/>
      <path d="M-2.4 -4.45 L-2.55 -4.3 Q-2.35 -4.1 -2.0 -4.05 -2.65 -3.7 -2.8 -3.35 L-1.9 -3.55 Q-1.1 -3.8 -0.35 -3.8 L-0.8 -3.05 -1.4 -1.95 Q-1.0 -1.65 -0.8 -1.6 -0.55 -1.45 -0.05 -1.35 L-0.3 -1.35 -1.55 -1.45 -1.6 -1.55 -1.7 -1.6 -2.05 -1.65 Q-2.35 -1.65 -2.55 -1.4 -2.8 -1.15 -2.9 -1.15 -3.05 -1.15 -3.3 -1.4 L-3.7 -2.35 -4.1 -3.7 -4.1 -4.0 -4.15 -4.4 -3.35 -4.5 -3.4 -4.4 Q-3.7 -4.1 -3.7 -3.9 -3.7 -3.2 -3.35 -3.1 -3.3 -3.15 -3.15 -3.5 -3.0 -3.9 -3.0 -4.0 L-2.9 -4.1 -2.5 -4.45 -2.4 -4.45" fill="#600000" fill-rule="evenodd" stroke="none"/>
      <path d="M3.9 -6.6 Q3.1 -6.3 2.95 -6.2 L1.9 -5.3 1.05 -4.6 -1.05 -4.75 -1.9 -4.55 -2.4 -4.45 -2.5 -4.45 -2.45 -4.5 -2.4 -4.5 -2.4 -4.55 Q-2.15 -4.7 -1.1 -4.9 L0.2 -5.1 Q0.5 -5.2 0.95 -5.4 L1.0 -5.4 1.15 -5.5 1.2 -5.55 2.9 -6.55 3.2 -6.75 3.75 -6.75 3.9 -6.6 M9.1 5.15 L8.55 5.25 Q7.75 5.25 6.8 4.2 5.5 6.15 3.85 6.15 2.0 6.15 0.75 5.7 L0.2 5.45 0.3 5.3 0.9 5.45 1.05 5.5 Q2.0 5.95 2.65 5.95 L2.85 5.95 Q3.05 6.05 3.25 6.05 3.85 6.05 4.35 5.7 4.65 5.55 4.85 5.4 5.05 5.2 5.25 4.9 L5.5 4.5 6.05 3.6 Q6.35 3.1 6.65 2.85 L7.2 3.55 7.35 3.8 7.4 3.85 7.5 4.0 Q8.1 4.85 8.75 4.85 8.9 4.85 9.1 4.8 L9.25 4.7 9.1 5.15 M9.25 4.5 L8.95 4.4 9.05 4.3 8.9 4.2 8.95 4.1 9.15 3.95 9.2 4.0 9.3 4.5 9.25 4.5" fill="#ff9999" fill-rule="evenodd" stroke="none"/>
    </g>
  </defs>
</svg>
