<?xml version="1.0" encoding="UTF-8" standalone="no"?>
<svg xmlns:ffdec="https://www.free-decompiler.com/flash" xmlns:xlink="http://www.w3.org/1999/xlink" ffdec:objectType="frame" height="216.15px" width="151.9px" xmlns="http://www.w3.org/2000/svg">
  <g transform="matrix(1.0, 0.0, 0.0, 1.0, -0.75, 0.2)">
    <use ffdec:characterId="1276" height="216.15" transform="matrix(1.0, 0.0, 0.0, 1.0, 0.75, -0.2)" width="151.9" xlink:href="#shape0"/>
  </g>
  <defs>
    <g id="shape0" transform="matrix(1.0, 0.0, 0.0, 1.0, -0.75, 0.2)">
      <path d="M124.55 23.0 L124.8 22.35 124.6 21.5 124.25 18.25 138.5 28.5 142.8 22.95 Q144.0 24.7 146.15 30.8 148.9 38.55 148.9 43.15 L147.65 54.25 Q147.65 56.15 149.05 62.5 150.45 68.85 150.45 73.5 150.45 79.15 149.8 81.85 149.15 84.75 146.8 88.8 137.75 103.05 126.9 123.0 L103.65 154.15 106.0 127.25 103.25 139.0 102.95 120.25 102.35 83.45 Q106.3 85.5 108.1 88.2 109.5 90.15 110.75 94.45 114.6 107.65 120.5 117.5 134.3 98.7 139.85 82.0 143.3 71.75 143.3 63.1 143.3 62.1 141.0 55.15 L137.8 45.25 Q139.35 44.35 139.35 43.95 L139.6 42.7 138.65 41.75 Q128.7 35.15 122.95 30.95 L124.55 23.0 M101.9 123.95 Q104.35 141.8 102.2 152.05 100.35 160.85 94.05 167.85 L79.4 181.5 Q68.5 191.6 60.25 203.35 56.45 208.75 51.05 211.4 48.75 212.55 46.8 213.0 L45.2 213.05 41.95 213.1 Q38.15 212.4 35.0 209.3 29.5 204.0 29.5 193.6 L29.75 189.25 Q28.6 190.2 27.75 191.85 26.75 193.85 26.75 195.95 L27.35 201.15 Q28.45 206.35 30.75 208.15 22.65 211.2 16.4 212.85 11.6 214.1 9.8 214.1 4.65 213.0 2.85 211.95 L4.3 207.1 Q15.6 202.25 21.3 194.45 25.75 188.4 27.55 179.1 L29.85 163.2 Q31.4 154.1 35.05 148.8 L35.15 155.7 Q35.15 165.65 33.85 174.25 L32.55 181.3 Q32.55 185.25 35.15 191.95 38.2 199.75 41.5 199.75 50.3 199.75 54.7 196.6 57.6 194.55 60.05 189.3 62.85 183.25 64.9 181.0 68.9 176.55 76.7 174.75 83.55 173.15 89.55 163.85 96.6 152.9 96.6 138.3 96.6 131.15 93.3 120.4 90.0 109.65 90.0 108.25 90.0 107.95 91.4 106.0 92.8 103.95 93.05 102.15 L95.3 103.85 Q97.5 105.65 97.5 106.25 L97.2 107.2 Q96.75 107.85 96.45 109.0 L96.3 109.7 96.15 111.15 Q96.15 118.6 101.9 123.95 M152.5 71.7 L150.65 54.25 151.75 62.6 152.5 71.7 M149.05 35.8 L148.5 31.3 148.8 33.4 149.05 35.8 M57.45 68.85 L63.1 68.45 69.3 68.4 69.5 72.8 Q69.5 82.9 64.5 91.85 L44.25 122.25 41.25 119.15 Q44.65 111.8 48.35 101.85 55.75 81.9 57.45 68.85 M99.0 65.95 L103.35 65.5 101.5 75.25 99.0 65.95" fill="#384250" fill-rule="evenodd" stroke="none"/>
      <path d="M124.55 23.0 L124.6 21.5 124.8 22.35 124.55 23.0 M124.25 18.25 L119.6 10.65 119.35 10.45 115.4 7.95 125.0 6.75 142.8 22.95 138.5 28.5 124.25 18.25 M103.65 154.15 L103.25 139.0 106.0 127.25 103.65 154.15 M102.95 120.25 L101.9 123.95 Q96.15 118.6 96.15 111.15 L96.3 109.7 96.45 109.0 Q96.75 107.85 97.2 107.2 L97.5 106.25 Q97.5 105.65 95.3 103.85 L93.05 102.15 Q92.8 103.95 91.4 106.0 90.0 107.95 90.0 108.25 90.0 109.65 93.3 120.4 96.6 131.15 96.6 138.3 96.6 152.9 89.55 163.85 83.55 173.15 76.7 174.75 68.9 176.55 64.9 181.0 62.85 183.25 60.05 189.3 57.6 194.55 54.7 196.6 50.3 199.75 41.5 199.75 38.2 199.75 35.15 191.95 32.55 185.25 32.55 181.3 L33.85 174.25 Q35.15 165.65 35.15 155.7 L35.05 148.8 Q31.4 154.1 29.85 163.2 L27.55 179.1 Q25.75 188.4 21.3 194.45 15.6 202.25 4.3 207.1 L16.7 166.5 30.25 121.75 Q33.0 113.15 33.75 92.9 34.5 73.45 35.8 70.3 L57.45 68.85 Q55.75 81.9 48.35 101.85 44.65 111.8 41.25 119.15 L44.25 122.25 64.5 91.85 Q69.5 82.9 69.5 72.8 L69.3 68.4 74.15 67.75 99.0 65.95 101.5 75.25 103.35 65.5 Q112.6 64.65 119.55 56.75 125.95 49.5 125.95 42.25 125.95 39.15 122.75 34.0 L122.7 33.5 137.8 45.25 141.0 55.15 Q143.3 62.1 143.3 63.1 143.3 71.75 139.85 82.0 134.3 98.7 120.5 117.5 114.6 107.65 110.75 94.45 109.5 90.15 108.1 88.2 106.3 85.5 102.35 83.45 L102.95 120.25 M149.65 37.25 L149.05 35.8 148.8 33.4 149.65 37.25 M112.05 8.6 L114.25 9.7 114.2 9.7 Q113.0 9.65 112.35 9.15 L112.05 8.6 M120.0 53.25 L114.05 59.1 116.75 55.95 120.0 53.25 M39.15 80.1 Q39.5 78.9 39.5 77.25 39.5 75.6 39.15 74.45 38.75 73.25 38.25 73.25 37.75 73.25 37.4 74.45 37.0 75.6 37.0 77.25 37.0 78.9 37.4 80.1 37.75 81.25 38.25 81.25 38.75 81.25 39.15 80.1 M60.25 110.6 L55.55 116.9 Q51.25 122.35 48.55 127.0 39.35 142.6 39.35 160.95 39.35 168.1 39.8 171.2 L40.5 174.25 41.15 173.5 Q42.95 171.15 42.95 166.3 42.95 159.5 44.45 149.3 45.85 139.65 47.45 134.5 48.65 130.45 55.65 120.45 62.3 110.95 62.35 110.25 L67.15 98.05 60.25 110.6" fill="#494949" fill-rule="evenodd" stroke="none"/>
      <path d="M59.35 4.8 L54.1 2.1 Q56.25 2.1 57.8 2.9 59.35 3.7 59.35 4.8 M23.15 4.5 L24.0 4.3 Q24.35 5.85 30.05 7.25 36.6 8.85 37.1 9.15 L34.55 10.75 Q47.4 17.75 49.5 22.25 L50.35 24.7 Q50.9 25.65 53.15 26.35 54.95 26.85 57.5 28.2 60.3 29.6 60.8 29.8 L67.1 31.75 Q70.6 32.65 73.3 32.65 L77.3 32.55 Q74.85 31.8 71.85 30.45 65.8 27.75 62.9 24.8 L77.95 23.8 61.25 21.4 61.0 21.2 60.95 20.5 Q60.95 19.9 61.1 19.55 L61.2 19.35 83.0 20.0 69.05 16.0 72.0 14.65 Q75.1 13.3 75.7 13.3 L89.25 12.05 104.2 10.8 108.6 11.85 Q112.7 13.05 112.7 13.85 112.7 15.95 110.4 18.05 106.1 21.9 95.2 24.2 L114.05 31.05 115.15 35.6 116.1 40.2 Q116.1 42.75 115.75 44.15 L114.75 46.75 Q112.2 52.3 106.8 54.1 L103.3 54.75 101.75 54.75 88.7 53.8 77.55 52.8 Q76.95 52.8 76.9 53.2 L77.0 54.1 79.9 54.9 100.0 57.75 Q89.35 59.05 88.7 59.8 L88.7 60.1 86.65 60.05 30.45 61.6 23.15 4.5 M107.7 7.8 L112.05 8.6 112.35 9.15 107.7 7.8 M114.25 9.7 L114.35 9.75 114.2 9.7 114.25 9.7 M119.1 31.3 L119.05 32.3 118.55 32.2 118.25 31.95 118.25 31.6 Q118.35 31.45 118.6 31.4 L119.1 31.3 M114.05 59.1 L101.95 62.15 116.75 55.95 114.05 59.1 M35.05 66.95 L33.35 67.0 31.25 63.4 35.05 66.95 M118.5 35.9 L118.55 35.95 118.75 37.35 118.5 35.9 M113.85 25.75 L114.0 25.85 114.8 26.6 113.85 25.75 M54.55 42.15 L54.6 42.25 Q54.65 43.7 57.55 44.75 64.55 47.35 69.75 49.9 67.1 45.6 63.9 43.85 60.6 42.0 55.25 42.0 L54.55 42.15 M39.15 80.1 Q38.75 81.25 38.25 81.25 37.75 81.25 37.4 80.1 37.0 78.9 37.0 77.25 37.0 75.6 37.4 74.45 37.75 73.25 38.25 73.25 38.75 73.25 39.15 74.45 39.5 75.6 39.5 77.25 39.5 78.9 39.15 80.1 M60.25 110.6 L67.15 98.05 62.35 110.25 Q62.3 110.95 55.65 120.45 48.65 130.45 47.45 134.5 45.85 139.65 44.45 149.3 42.95 159.5 42.95 166.3 42.95 171.15 41.15 173.5 L40.5 174.25 39.8 171.2 Q39.35 168.1 39.35 160.95 39.35 142.6 48.55 127.0 51.25 122.35 55.55 116.9 L60.25 110.6" fill="#676767" fill-rule="evenodd" stroke="none"/>
      <path d="M24.0 4.3 L40.8 2.4 43.15 2.3 Q46.25 2.3 61.35 6.05 76.4 9.8 86.35 9.8 99.35 9.8 107.7 7.8 L112.35 9.15 Q113.0 9.65 114.2 9.7 L114.35 9.75 Q119.35 16.3 120.25 21.65 121.05 26.2 119.1 31.3 L118.6 31.4 Q118.35 31.45 118.25 31.6 L118.25 31.95 118.55 32.2 119.05 32.3 Q121.6 36.55 122.6 39.0 123.6 41.5 123.6 43.6 123.6 45.3 122.4 48.5 121.2 51.65 120.0 53.25 L116.75 55.95 101.95 62.15 35.05 66.95 31.25 63.4 30.45 61.6 86.65 60.05 88.7 60.1 88.7 59.8 Q89.35 59.05 100.0 57.75 L79.9 54.9 77.0 54.1 76.9 53.2 Q76.95 52.8 77.55 52.8 L88.7 53.8 101.75 54.75 103.3 54.75 106.8 54.1 Q112.2 52.3 114.75 46.75 L115.75 44.15 Q116.1 42.75 116.1 40.2 L115.15 35.6 114.05 31.05 95.2 24.2 Q106.1 21.9 110.4 18.05 112.7 15.95 112.7 13.85 112.7 13.05 108.6 11.85 L104.2 10.8 89.25 12.05 75.7 13.3 Q75.1 13.3 72.0 14.65 L69.05 16.0 83.0 20.0 61.2 19.35 61.1 19.55 Q60.95 19.9 60.95 20.5 L61.0 21.2 61.25 21.4 77.95 23.8 62.9 24.8 Q65.8 27.75 71.85 30.45 74.85 31.8 77.3 32.55 L73.3 32.65 Q70.6 32.65 67.1 31.75 L60.8 29.8 Q60.3 29.6 57.5 28.2 54.95 26.85 53.15 26.35 50.9 25.65 50.35 24.7 L49.5 22.25 Q47.4 17.75 34.55 10.75 L37.1 9.15 Q36.6 8.85 30.05 7.25 24.35 5.85 24.0 4.3 M63.1 68.45 L74.15 67.75 69.3 68.4 63.1 68.45 M113.85 25.75 L114.8 26.6 114.0 25.85 113.85 25.75 M118.5 35.9 L118.75 37.35 118.55 35.95 118.5 35.9 M54.55 42.15 L55.25 42.0 Q60.6 42.0 63.9 43.85 67.1 45.6 69.75 49.9 64.55 47.35 57.55 44.75 54.65 43.7 54.6 42.25 L54.55 42.15" fill="#505763" fill-rule="evenodd" stroke="none"/>
      <path d="M124.6 21.5 L124.55 23.0 122.95 30.95 Q128.7 35.15 138.65 41.75 L139.6 42.7 139.35 43.95 Q139.35 44.35 137.8 45.25 L122.7 33.5 122.75 34.0 Q125.95 39.15 125.95 42.25 125.95 49.5 119.55 56.75 112.6 64.65 103.35 65.5 L99.0 65.95 74.15 67.75 63.1 68.45 57.45 68.85 35.8 70.3 Q34.5 73.45 33.75 92.9 33.0 113.15 30.25 121.75 L16.7 166.5 4.3 207.1 2.85 211.95 Q4.65 213.0 9.8 214.1 11.6 214.1 16.4 212.85 22.65 211.2 30.75 208.15 28.45 206.35 27.35 201.15 L26.75 195.95 Q26.75 193.85 27.75 191.85 28.6 190.2 29.75 189.25 L29.5 193.6 Q29.5 204.0 35.0 209.3 38.15 212.4 41.95 213.1 34.0 213.0 32.45 211.0 L32.0 210.7 Q27.45 213.3 20.6 214.8 15.2 215.95 11.2 215.95 L5.35 215.6 Q0.75 215.15 0.75 214.65 0.75 213.85 7.4 189.25 14.1 164.45 15.25 161.2 L19.9 147.35 23.95 133.3 Q27.35 121.1 30.7 103.8 34.0 86.85 34.0 82.05 34.0 81.05 23.0 68.5 L33.35 67.0 35.05 66.95 101.95 62.15 114.05 59.1 120.0 53.25 Q121.2 51.65 122.4 48.5 123.6 45.3 123.6 43.6 123.6 41.5 122.6 39.0 121.6 36.55 119.05 32.3 L119.1 31.3 Q121.05 26.2 120.25 21.65 119.35 16.3 114.35 9.75 L114.25 9.7 112.05 8.6 107.7 7.8 Q99.35 9.8 86.35 9.8 76.4 9.8 61.35 6.05 46.25 2.3 43.15 2.3 L40.8 2.4 24.0 4.3 23.15 4.5 19.25 3.05 36.3 -0.2 44.4 0.75 54.1 2.1 59.35 4.8 68.2 6.6 74.75 7.5 94.6 5.9 126.75 4.25 Q145.35 15.4 148.3 22.15 149.25 24.35 148.85 27.05 148.35 30.4 148.5 31.3 L149.05 35.8 149.65 37.25 Q150.35 52.85 150.65 54.25 L152.5 71.7 Q154.1 88.9 136.85 114.9 130.6 124.35 120.1 137.5 L102.4 159.4 58.25 210.55 Q56.05 212.55 46.8 213.0 48.75 212.55 51.05 211.4 56.45 208.75 60.25 203.35 68.5 191.6 79.4 181.5 L94.05 167.85 Q100.35 160.85 102.2 152.05 104.35 141.8 101.9 123.95 L102.95 120.25 103.25 139.0 103.65 154.15 126.9 123.0 Q137.75 103.05 146.8 88.8 149.15 84.75 149.8 81.85 150.45 79.15 150.45 73.5 150.45 68.85 149.05 62.5 147.65 56.15 147.65 54.25 L148.9 43.15 Q148.9 38.55 146.15 30.8 144.0 24.7 142.8 22.95 L125.0 6.75 115.4 7.95 119.35 10.45 119.6 10.65 124.25 18.25 124.6 21.5" fill="#333333" fill-rule="evenodd" stroke="none"/>
    </g>
  </defs>
</svg>
