<?xml version="1.0" encoding="UTF-8" standalone="no"?>
<svg xmlns:ffdec="https://www.free-decompiler.com/flash" xmlns:xlink="http://www.w3.org/1999/xlink" ffdec:objectType="frame" height="103.0px" width="107.0px" xmlns="http://www.w3.org/2000/svg">
  <g transform="matrix(1.0, 0.0, 0.0, 1.0, 1.5, 1.5)">
    <use ffdec:characterId="1347" height="103.0" transform="matrix(1.0, 0.0, 0.0, 1.0, -1.5, -1.5)" width="107.0" xlink:href="#shape0"/>
  </g>
  <defs>
    <g id="shape0" transform="matrix(1.0, 0.0, 0.0, 1.0, 1.5, 1.5)">
      <path d="M96.85 -0.55 L96.95 -0.55 97.1 -0.5 Q105.45 2.25 105.5 12.05 L105.5 14.25 105.5 87.85 Q105.6 101.5 89.9 101.5 L14.1 101.5 Q0.45 101.5 -1.2 91.15 L-1.5 87.85 -1.5 14.25 -1.5 12.05 Q-1.5 -1.5 14.1 -1.5 L89.9 -1.5 Q93.9 -1.5 96.85 -0.55 M99.1 12.05 Q99.05 8.15 96.75 6.3 94.4 4.5 89.9 4.5 L14.1 4.5 Q5.1 4.5 4.9 12.05 L4.9 14.25 4.9 87.85 Q4.9 88.85 5.05 89.7 6.15 95.5 14.1 95.5 L89.9 95.5 Q99.0 95.5 99.1 87.85 L99.1 14.25 99.1 12.05" fill="#000000" fill-rule="evenodd" stroke="none"/>
      <path d="M96.65 0.95 L99.3 2.95 Q100.9 4.15 101.6 5.7 102.85 8.55 103.1 11.4 L103.1 71.25 103.1 82.05 103.1 86.05 102.95 86.05 102.6 90.75 Q101.95 93.95 100.6 95.6 L98.25 97.85 97.55 98.05 97.25 98.2 95.15 98.55 94.35 98.8 8.8 98.8 7.2 98.0 Q3.6 96.35 2.85 94.95 L0.85 91.85 Q0.7 91.6 0.7 90.35 L0.65 90.15 0.7 89.65 0.7 89.5 0.5 86.05 0.55 86.05 0.7 12.05 0.55 10.4 0.8 9.1 Q1.6 5.45 3.9 3.5 L5.7 2.2 6.1 2.2 9.45 1.15 11.35 0.75 11.6 0.7 35.45 0.7 35.6 0.8 94.05 0.8 94.35 0.95 95.8 1.05 96.4 0.85 96.65 0.95 M3.85 91.8 L4.45 93.35 Q5.7 96.05 7.05 96.05 7.35 96.05 10.5 97.7 L44.15 97.75 88.95 97.75 89.35 97.8 89.85 97.95 93.25 97.55 93.3 97.55 Q94.5 97.55 96.0 96.7 97.2 96.55 98.85 94.75 100.45 93.0 100.45 92.35 L100.9 90.35 101.2 87.8 101.2 86.05 101.25 86.05 101.3 82.05 101.3 63.85 101.1 16.5 101.1 12.05 100.8 9.3 Q99.7 6.0 98.45 4.4 97.55 3.15 97.35 3.85 95.5 2.3 92.85 2.3 L44.15 2.3 44.15 2.1 42.65 2.1 40.3 2.25 40.0 2.1 29.6 2.1 29.55 2.05 25.65 2.05 25.45 2.1 12.65 2.1 11.55 2.3 9.35 2.65 9.2 2.65 8.3 2.95 Q6.35 3.65 5.9 4.5 5.45 4.65 4.7 5.6 2.9 7.85 2.7 11.35 L2.7 86.05 2.5 86.05 Q2.55 89.35 3.3 90.9 L3.85 91.8" fill="#eee2bc" fill-rule="evenodd" stroke="none"/>
      <path d="M96.4 0.85 L95.8 1.05 94.35 0.95 94.05 0.8 35.6 0.8 35.45 0.7 11.6 0.7 11.35 0.75 9.45 1.15 6.1 2.2 5.7 2.2 3.9 3.5 Q1.6 5.45 0.8 9.1 L0.55 10.4 0.7 12.05 0.55 86.05 0.5 86.05 0.7 89.5 0.7 89.65 0.65 90.15 0.4 90.45 0.25 90.85 Q0.0 89.45 0.0 87.85 L0.0 14.25 0.0 12.05 Q0.1 0.0 14.1 0.0 L89.9 0.0 Q93.65 0.0 96.4 0.85 M97.35 3.85 Q97.55 3.15 98.45 4.4 99.7 6.0 100.8 9.3 L101.1 12.05 101.1 16.5 101.3 63.85 101.3 82.05 101.25 86.05 101.2 86.05 101.2 87.8 100.9 90.35 100.45 92.35 Q100.45 93.0 98.85 94.75 97.2 96.55 96.0 96.7 94.5 97.55 93.3 97.55 L93.25 97.55 89.85 97.95 89.35 97.8 88.95 97.75 44.15 97.75 10.5 97.7 Q7.35 96.05 7.05 96.05 5.7 96.05 4.45 93.35 L3.85 91.8 3.45 90.7 3.55 89.95 Q4.7 97.0 14.1 97.0 L89.9 97.0 Q100.6 97.0 100.6 87.85 L100.6 14.25 100.6 12.05 Q100.55 7.35 97.7 5.1 L97.25 4.4 97.35 3.85" fill="#f8f2e2" fill-rule="evenodd" stroke="none"/>
      <path d="M0.65 90.15 L0.7 90.35 Q0.7 91.6 0.85 91.85 L2.85 94.95 Q3.6 96.35 7.2 98.0 L8.8 98.8 94.35 98.8 95.15 98.55 97.25 98.2 97.55 98.05 98.25 97.85 100.6 95.6 Q101.95 93.95 102.6 90.75 L102.95 86.05 103.1 86.05 103.1 82.05 103.1 71.25 103.1 11.4 Q102.85 8.55 101.6 5.7 100.9 4.15 99.3 2.95 L96.65 0.95 Q103.95 3.4 104.0 12.05 L104.0 14.25 104.0 87.85 Q104.0 100.0 89.9 100.0 L14.1 100.0 Q1.85 100.0 0.25 90.85 L0.4 90.45 0.65 90.15 M97.35 3.85 L97.25 4.4 97.7 5.1 Q95.0 3.0 89.9 3.0 L14.1 3.0 Q3.5 3.0 3.4 12.05 L3.4 14.25 3.4 87.85 Q3.4 88.95 3.55 89.95 L3.45 90.7 3.85 91.8 3.3 90.9 Q2.55 89.35 2.5 86.05 L2.7 86.05 2.7 11.35 Q2.9 7.85 4.7 5.6 5.45 4.65 5.9 4.5 6.35 3.65 8.3 2.95 L9.2 2.65 9.35 2.65 11.55 2.3 12.65 2.1 25.45 2.1 25.65 2.05 29.55 2.05 29.6 2.1 40.0 2.1 40.3 2.25 42.65 2.1 44.15 2.1 44.15 2.3 92.85 2.3 Q95.5 2.3 97.35 3.85" fill="#e1cb88" fill-rule="evenodd" stroke="none"/>
    </g>
  </defs>
</svg>
