<?xml version="1.0" encoding="UTF-8" standalone="no"?>
<svg xmlns:ffdec="https://www.free-decompiler.com/flash" xmlns:xlink="http://www.w3.org/1999/xlink" ffdec:objectType="frame" height="72.45px" width="48.3px" xmlns="http://www.w3.org/2000/svg">
  <g transform="matrix(1.0, 0.0, 0.0, 1.0, 0.0, 0.0)">
    <use ffdec:characterId="638" height="10.35" transform="matrix(7.0, 0.0, 0.0, 7.0, 0.0, 0.0)" width="6.9" xlink:href="#shape0"/>
  </g>
  <defs>
    <g id="shape0" transform="matrix(1.0, 0.0, 0.0, 1.0, 0.0, 0.0)">
      <path d="M3.25 0.5 L3.05 0.0 3.1 0.1 3.1 0.05 Q3.1 -0.2 3.8 0.55 4.55 1.3 5.15 2.25 L6.0 3.6 6.45 4.45 Q6.65 4.65 6.7 4.95 6.9 5.4 6.9 5.9 L6.85 6.55 6.8 7.35 6.65 8.25 Q6.6 8.8 6.55 8.8 L6.45 8.8 6.3 9.5 Q6.05 10.35 5.85 10.35 5.55 10.35 5.4 9.95 5.3 9.45 5.2 9.3 5.15 9.25 5.0 8.8 L4.9 8.45 Q4.55 9.2 4.3 9.35 L4.2 9.4 Q3.95 9.4 3.85 8.85 L3.75 8.25 3.75 7.35 Q3.35 7.85 3.2 7.95 3.2 8.0 3.15 8.0 2.95 8.0 2.9 7.65 L2.9 7.3 Q2.9 6.15 3.1 5.65 L2.65 6.0 Q2.2 6.4 2.05 6.4 1.9 6.4 1.85 6.1 L1.85 5.8 Q1.85 5.4 2.25 4.9 L2.25 4.85 Q2.0 5.05 1.9 5.05 1.75 5.05 1.7 4.95 L1.65 4.8 Q1.65 4.4 1.9 4.1 L1.2 4.1 0.3 3.9 0.05 3.85 Q-0.05 3.8 0.1 3.45 L0.2 3.3 0.55 2.75 0.75 2.5 Q0.85 2.4 1.0 2.35 1.3 2.05 1.55 1.9 2.05 1.65 2.55 1.55 L2.65 1.5 2.65 1.45 3.0 1.25 3.1 1.2 3.15 1.2 3.25 1.25 Q3.2 1.25 3.1 1.3 L2.9 1.45 3.55 1.85 Q4.3 2.35 4.7 3.05 L5.3 3.95 Q5.65 4.55 5.8 4.9 5.95 5.25 6.25 5.75 6.45 6.2 6.4 6.55 6.4 6.8 6.35 7.3 6.25 7.75 6.35 8.1 L6.4 8.05 Q6.35 7.95 6.45 7.4 6.6 6.6 6.55 6.45 6.6 5.9 6.55 5.55 6.45 5.05 6.15 4.65 L5.75 3.95 4.9 2.6 4.35 1.7 4.0 1.35 3.75 1.05 3.35 0.65 3.25 0.5 M6.05 5.75 L5.65 5.05 5.55 4.8 Q5.15 4.7 4.6 4.05 L4.4 3.75 4.1 3.35 Q4.1 3.4 4.35 3.8 4.45 3.95 4.5 4.15 L4.75 4.7 Q4.8 4.95 4.75 5.05 L4.7 5.1 4.55 5.1 Q4.1 4.95 3.75 4.7 3.6 5.0 3.45 5.45 3.15 6.25 3.15 7.05 L3.2 7.5 3.7 7.0 4.1 6.4 4.15 6.35 4.2 6.2 4.3 6.1 4.7 5.25 4.75 5.25 4.75 5.35 4.7 5.4 4.65 5.55 Q4.45 6.2 4.3 6.45 L4.2 6.6 Q4.0 7.4 4.1 8.5 L4.15 9.0 4.45 8.6 4.95 7.6 Q5.05 7.35 5.15 7.2 5.3 6.7 5.65 5.95 L5.6 6.25 5.65 6.1 Q5.7 6.35 5.3 7.35 L5.25 7.65 Q5.2 8.25 5.3 8.8 L5.4 9.15 5.35 8.8 Q5.3 8.35 5.35 7.9 5.45 7.1 6.05 5.95 5.65 7.15 5.55 7.8 5.5 8.35 5.55 8.9 5.6 9.4 5.8 9.9 L5.85 9.9 Q6.0 9.5 6.1 9.0 6.15 8.55 6.15 8.05 L6.1 7.9 6.15 7.65 6.25 6.65 6.25 6.35 Q6.2 6.1 6.05 5.75 M3.8 2.9 L3.9 2.9 4.3 3.35 4.5 3.65 Q4.55 3.75 4.7 3.95 L4.85 4.15 Q5.15 4.55 5.4 4.65 L5.45 4.6 5.5 4.5 Q5.5 4.35 5.05 3.85 L5.0 3.8 4.75 3.45 4.7 3.35 Q4.65 3.15 4.45 2.95 L3.85 2.2 3.6 1.95 3.15 1.75 Q2.95 1.65 2.85 1.7 2.7 1.7 2.6 1.8 L2.45 2.0 Q2.15 2.35 2.1 2.65 2.05 2.8 2.05 2.9 L2.1 3.3 Q2.15 3.7 2.35 3.7 L2.45 3.65 2.5 3.65 2.6 3.2 Q2.65 3.1 2.65 3.0 2.55 2.6 2.65 2.5 2.8 3.0 3.05 3.5 L3.05 3.6 3.1 3.65 Q3.6 4.7 4.1 4.7 4.35 4.85 4.6 5.0 L4.55 4.65 Q4.45 4.4 4.2 3.95 3.85 3.2 3.8 2.9 M2.35 1.75 Q1.85 1.95 1.65 2.05 L1.2 2.35 1.2 2.4 1.0 2.55 0.8 2.75 Q0.55 3.05 0.35 3.55 L0.25 3.75 1.45 3.9 1.65 3.9 2.0 3.85 2.35 3.85 2.45 3.9 2.35 4.05 Q2.0 4.5 2.0 4.75 2.4 4.5 2.8 4.2 L3.0 4.0 Q3.05 3.95 3.1 3.95 L3.0 3.7 Q2.8 3.4 2.7 3.15 L2.7 3.2 Q2.7 3.65 2.6 3.75 L2.25 3.75 Q2.05 3.7 1.95 3.3 L1.9 2.75 Q1.85 2.45 2.3 1.9 L2.45 1.75 2.35 1.75 M2.2 6.0 L3.45 4.9 3.7 4.65 3.7 4.6 3.45 4.35 Q3.25 4.2 3.1 3.95 L3.05 4.05 3.05 4.1 3.0 4.2 2.95 4.25 2.55 4.9 Q2.25 5.5 2.2 6.0" fill="#111111" fill-rule="evenodd" stroke="none"/>
      <path d="M2.35 1.75 L2.45 1.75 2.3 1.9 Q1.85 2.45 1.9 2.75 L1.95 3.3 Q2.05 3.7 2.25 3.75 L2.6 3.75 Q2.7 3.65 2.7 3.2 L2.7 3.15 Q2.8 3.4 3.0 3.7 L3.1 3.95 Q3.05 3.95 3.0 4.0 L2.8 4.2 Q2.4 4.5 2.0 4.75 2.0 4.5 2.35 4.05 L2.45 3.9 2.35 3.85 2.0 3.85 1.65 3.9 1.45 3.9 0.25 3.75 0.35 3.55 Q0.55 3.05 0.8 2.75 L1.0 2.55 1.2 2.4 1.2 2.35 1.65 2.05 Q1.85 1.95 2.35 1.75 M3.8 2.9 Q3.85 3.2 4.2 3.95 4.45 4.4 4.55 4.65 L4.6 5.0 Q4.35 4.85 4.1 4.7 3.6 4.7 3.1 3.65 L3.05 3.6 3.05 3.5 Q2.8 3.0 2.65 2.5 2.55 2.6 2.65 3.0 2.65 3.1 2.6 3.2 L2.5 3.65 2.45 3.65 2.35 3.7 Q2.15 3.7 2.1 3.3 L2.05 2.9 Q2.05 2.8 2.1 2.65 2.15 2.35 2.45 2.0 L2.6 1.8 Q2.7 1.7 2.85 1.7 2.95 1.65 3.15 1.75 L3.6 1.95 3.85 2.2 4.45 2.95 Q4.65 3.15 4.7 3.35 L4.75 3.45 5.0 3.8 5.05 3.85 Q5.5 4.35 5.5 4.5 L5.45 4.6 5.4 4.65 Q5.15 4.55 4.85 4.15 L4.7 3.95 Q4.55 3.75 4.5 3.65 L4.3 3.35 3.9 2.9 3.8 2.9 M6.05 5.75 Q6.2 6.1 6.25 6.35 L6.25 6.65 6.15 7.65 6.1 7.9 6.15 8.05 Q6.15 8.55 6.1 9.0 6.0 9.5 5.85 9.9 L5.8 9.9 Q5.6 9.4 5.55 8.9 5.5 8.35 5.55 7.8 5.65 7.15 6.05 5.95 5.45 7.1 5.35 7.9 5.3 8.35 5.35 8.8 L5.4 9.15 5.3 8.8 Q5.2 8.25 5.25 7.65 L5.3 7.35 Q5.7 6.35 5.65 6.1 L5.6 6.25 5.65 5.95 Q5.3 6.7 5.15 7.2 5.05 7.35 4.95 7.6 L4.45 8.6 4.15 9.0 4.1 8.5 Q4.0 7.4 4.2 6.6 L4.3 6.45 Q4.45 6.2 4.65 5.55 L4.7 5.4 4.75 5.35 4.75 5.25 4.7 5.25 4.3 6.1 4.2 6.2 4.15 6.35 4.1 6.4 3.7 7.0 3.2 7.5 3.15 7.05 Q3.15 6.25 3.45 5.45 3.6 5.0 3.75 4.7 4.1 4.95 4.55 5.1 L4.7 5.1 4.75 5.05 Q4.8 4.95 4.75 4.7 L4.5 4.15 Q4.45 3.95 4.35 3.8 4.1 3.4 4.1 3.35 L4.4 3.75 4.6 4.05 Q5.15 4.7 5.55 4.8 L5.65 5.05 6.05 5.75 M2.2 6.0 Q2.25 5.5 2.55 4.9 L2.95 4.25 3.0 4.2 3.05 4.1 3.05 4.05 3.1 3.95 Q3.25 4.2 3.45 4.35 L3.7 4.6 3.7 4.65 3.45 4.9 2.2 6.0" fill="#e1c879" fill-rule="evenodd" stroke="none"/>
      <path d="M3.1 1.2 Q2.7 1.0 2.65 0.8 L2.95 0.75 2.7 0.5 2.7 0.45 2.7 0.4 Q2.75 0.15 3.15 0.45 L3.2 0.55 3.25 0.5 3.35 0.65 3.75 1.05 4.0 1.35 4.35 1.7 4.9 2.6 5.75 3.95 6.15 4.65 Q6.45 5.05 6.55 5.55 6.6 5.9 6.55 6.45 6.6 6.6 6.45 7.4 6.35 7.95 6.4 8.05 L6.35 8.1 Q6.25 7.75 6.35 7.3 6.4 6.8 6.4 6.55 6.45 6.2 6.25 5.75 5.95 5.25 5.8 4.9 5.65 4.55 5.3 3.95 L4.7 3.05 Q4.3 2.35 3.55 1.85 L2.9 1.45 3.1 1.3 Q3.2 1.25 3.25 1.25 L3.15 1.2 3.1 1.2" fill="#c53810" fill-rule="evenodd" stroke="none"/>
      <path d="M2.7 0.45 L2.6 0.4 2.7 0.4 2.7 0.45" fill="#000000" fill-rule="evenodd" stroke="none"/>
    </g>
  </defs>
</svg>
