<?xml version="1.0" encoding="UTF-8" standalone="no"?>
<svg xmlns:ffdec="https://www.free-decompiler.com/flash" xmlns:xlink="http://www.w3.org/1999/xlink" ffdec:objectType="frame" height="194.25px" width="375.9px" xmlns="http://www.w3.org/2000/svg">
  <g transform="matrix(1.0, 0.0, 0.0, 1.0, 0.0, 71.05)">
    <use ffdec:characterId="141" height="27.75" transform="matrix(7.0, 0.0, 0.0, 7.0, 0.0, -71.05)" width="53.7" xlink:href="#shape0"/>
  </g>
  <defs>
    <g id="shape0" transform="matrix(1.0, 0.0, 0.0, 1.0, 0.0, 10.15)">
      <path d="M5.8 -0.2 L5.85 -0.15 Q5.4 -0.5 5.45 -1.4 5.45 -2.45 6.45 -2.7 7.8 -2.5 7.5 -1.3 7.35 -0.75 7.1 -0.35 7.35 -0.25 7.55 -0.15 L7.6 -0.1 7.7 -0.1 7.9 0.0 8.0 -0.3 Q7.7 -0.35 7.5 -0.7 L7.55 -0.9 Q7.6 -1.05 7.7 -1.1 7.85 -1.2 8.0 -1.25 L8.95 -1.25 9.15 -1.2 Q9.3 -1.5 9.7 -1.55 L9.7 -1.6 Q9.9 -1.5 10.05 -1.4 9.85 -1.8 10.0 -2.0 9.4 -1.7 8.7 -2.0 8.3 -2.2 8.2 -2.6 8.2 -2.75 8.25 -2.9 L8.2 -2.95 Q8.0 -2.8 7.1 -2.75 6.3 -2.7 7.05 -3.5 7.2 -3.7 7.35 -3.75 7.95 -3.5 8.15 -3.3 L8.2 -3.55 8.35 -3.75 Q8.55 -3.95 8.75 -3.95 L9.15 -3.85 9.35 -3.75 Q9.65 -3.65 9.9 -3.5 L9.8 -3.8 Q9.65 -4.8 10.6 -4.9 11.5 -4.75 11.55 -3.9 L11.55 -3.75 Q11.7 -3.9 12.0 -3.9 L12.1 -3.9 Q12.5 -4.45 13.2 -4.45 13.9 -4.4 14.45 -4.05 14.8 -3.85 15.15 -3.55 L15.1 -3.5 15.5 -3.65 15.5 -3.7 15.8 -3.6 Q15.9 -3.55 15.95 -3.5 16.1 -3.3 16.2 -3.1 L16.65 -3.05 16.75 -3.05 Q16.6 -3.25 16.45 -3.5 16.2 -4.0 16.3 -4.6 L16.55 -5.05 16.55 -5.1 Q16.25 -5.4 16.1 -6.15 15.85 -7.15 16.9 -7.2 17.95 -7.3 18.4 -6.45 18.6 -6.0 18.5 -5.6 L18.75 -5.35 18.85 -5.2 19.2 -4.95 19.45 -4.7 Q19.4 -5.2 19.45 -5.7 L19.65 -5.9 20.2 -6.25 Q20.4 -6.35 20.6 -6.35 20.85 -6.3 21.1 -6.15 21.35 -6.0 21.6 -5.75 L21.75 -5.3 21.9 -5.35 Q22.25 -5.45 22.4 -5.55 L22.5 -5.45 22.55 -5.5 Q22.55 -6.0 22.8 -6.45 23.35 -7.5 24.55 -7.55 L24.55 -7.6 Q25.4 -7.5 25.6 -6.75 L25.8 -5.6 26.2 -5.3 Q26.75 -5.9 27.7 -6.2 28.15 -6.35 28.55 -6.45 L28.55 -6.45 Q28.25 -6.7 28.1 -7.05 27.65 -7.25 27.25 -7.65 26.5 -8.35 26.8 -9.35 L26.95 -9.6 Q27.15 -9.8 27.4 -9.9 L27.95 -10.15 Q29.15 -9.9 29.55 -8.85 L29.65 -9.05 Q29.9 -9.35 30.25 -9.5 L30.7 -9.6 Q31.85 -9.55 32.8 -9.15 33.25 -8.95 33.6 -8.5 33.8 -8.65 34.1 -8.7 L34.85 -8.5 35.1 -8.4 Q35.75 -8.8 36.55 -8.9 L36.6 -8.9 36.7 -9.15 Q36.85 -9.25 37.05 -9.3 L37.75 -9.55 37.8 -9.6 Q39.2 -9.3 39.6 -7.95 39.9 -7.15 40.05 -6.3 L40.55 -6.35 40.6 -6.35 Q40.8 -6.6 41.15 -6.55 41.35 -6.55 41.45 -6.6 42.05 -6.3 41.6 -5.75 41.45 -5.55 41.3 -5.45 L41.2 -5.3 Q41.4 -5.45 41.6 -5.5 L42.0 -5.55 Q41.9 -5.7 41.85 -5.95 41.75 -6.35 41.8 -6.85 L41.85 -7.05 42.1 -7.3 Q42.55 -7.65 43.0 -7.7 43.5 -7.55 43.9 -7.55 44.5 -7.6 44.75 -7.05 44.95 -6.45 44.5 -5.8 L44.7 -5.9 Q44.9 -5.85 45.1 -5.75 L45.25 -5.7 Q45.25 -5.8 45.3 -5.9 45.4 -6.15 45.65 -6.35 45.8 -6.5 46.0 -6.55 L46.4 -6.7 Q47.65 -6.9 48.4 -6.2 48.95 -5.75 49.05 -5.05 49.25 -4.65 48.85 -3.9 L48.7 -3.7 49.15 -3.9 49.75 -3.85 Q50.4 -3.8 50.4 -3.3 50.1 -2.9 49.75 -2.65 49.4 -2.4 49.05 -2.2 49.25 -1.9 48.45 -1.9 L48.35 -1.9 Q48.3 -1.7 48.4 -1.4 L48.45 -1.35 Q48.55 -1.4 48.6 -1.45 L48.7 -1.45 48.7 -1.4 Q48.6 -1.4 48.55 -1.3 L48.75 -1.05 Q48.9 -1.0 48.95 -0.9 49.0 -0.8 48.95 -0.7 49.1 -0.7 49.2 -0.85 L49.2 -0.9 Q49.0 -1.0 48.95 -1.5 48.95 -2.0 49.4 -2.05 49.8 -2.05 49.8 -1.65 L49.8 -1.4 49.85 -1.4 49.95 -1.3 49.95 -1.4 Q50.0 -1.6 50.2 -1.6 50.4 -1.55 50.5 -1.45 L50.55 -1.4 50.6 -1.5 Q50.55 -1.65 50.55 -1.9 L50.35 -2.0 50.35 -2.05 50.6 -2.05 50.6 -2.1 Q50.65 -2.6 51.15 -2.65 51.75 -2.45 51.55 -1.85 L51.35 -1.25 51.4 -1.15 51.55 -1.2 51.65 -1.15 51.8 -1.05 Q51.9 -0.85 51.85 -0.65 51.8 -0.4 51.65 -0.15 L51.8 0.25 Q54.95 3.4 51.1 9.4 L45.75 9.4 Q41.95 12.8 38.1 10.5 32.0 15.8 25.3 10.45 23.4 14.0 19.7 11.45 17.35 15.95 13.2 16.2 L5.95 14.6 Q2.1 12.25 1.45 6.2 L0.3 4.45 Q0.0 4.35 0.05 4.0 L0.05 3.9 Q0.05 3.8 0.05 3.7 0.2 3.5 0.4 3.5 0.7 3.45 0.9 3.65 L0.95 3.75 1.0 3.75 Q1.15 3.75 1.2 3.65 L1.2 3.45 Q1.2 3.25 0.95 3.15 L1.0 3.1 Q0.95 3.05 0.9 2.95 0.9 2.85 1.0 2.75 1.1 2.65 1.25 2.65 1.35 2.7 1.4 2.75 L1.45 2.75 Q1.6 2.8 1.65 2.9 1.7 3.0 1.7 3.1 L1.75 3.2 1.75 3.35 1.8 3.3 1.9 3.25 Q2.0 3.25 2.1 3.3 2.1 3.2 2.2 3.1 2.25 3.1 2.3 3.05 2.5 3.15 2.55 3.3 L2.6 3.15 2.6 3.05 2.65 3.0 2.65 2.95 2.55 2.8 Q2.35 2.6 2.5 2.4 L2.6 2.35 Q2.6 2.3 2.65 2.3 L2.7 2.3 Q2.8 2.05 3.05 2.0 L3.25 2.05 3.25 1.9 Q3.35 2.05 3.55 2.05 3.7 2.05 3.8 1.95 3.9 1.8 3.95 1.65 L3.9 1.65 Q3.65 1.9 3.5 1.55 L3.3 1.1 Q3.25 1.0 3.3 0.95 3.35 0.8 3.5 0.75 L3.6 0.7 3.85 0.8 3.85 0.7 Q3.85 0.45 4.05 0.45 4.15 0.45 4.25 0.5 L4.3 0.5 4.5 0.55 Q4.6 0.6 4.65 0.7 L4.65 0.9 Q4.8 0.95 5.05 0.95 5.1 0.95 5.2 0.8 L5.25 0.6 5.25 0.45 5.35 0.45 5.25 0.3 Q5.1 -0.05 5.25 -0.2 5.3 -0.35 5.55 -0.35 L5.8 -0.2 M11.4 -2.3 Q11.35 -2.45 11.3 -2.6 10.7 -2.4 10.35 -2.7 10.4 -2.5 10.3 -2.25 L10.6 -2.35 Q10.9 -2.35 11.1 -2.2 L11.4 -2.3 M10.15 -0.9 L10.25 -0.75 10.3 -0.7 10.35 -0.75 10.15 -1.05 10.15 -0.9 M33.5 -7.45 Q32.65 -6.45 31.25 -6.6 L31.05 -6.65 30.7 -6.25 Q31.2 -6.15 31.5 -5.8 31.9 -5.35 31.85 -4.75 L31.8 -4.65 31.95 -4.55 32.85 -4.55 32.85 -4.6 33.15 -4.5 33.1 -4.6 Q33.1 -4.95 33.1 -5.3 L33.15 -5.75 Q33.2 -5.85 33.3 -5.95 33.5 -6.2 33.75 -6.3 L34.05 -6.45 34.0 -6.6 34.0 -6.8 Q33.8 -7.0 33.55 -7.35 L33.5 -7.45 M28.5 -4.45 Q28.75 -4.35 28.95 -4.15 L29.3 -4.2 29.5 -4.3 29.35 -4.6 29.35 -5.3 Q29.35 -5.7 29.55 -5.95 29.25 -6.0 28.85 -6.25 29.55 -5.65 28.7 -4.7 L28.5 -4.45 M35.8 -4.75 Q36.2 -5.05 36.6 -5.25 L35.4 -5.3 35.4 -5.15 35.45 -4.65 35.55 -4.5 35.65 -4.4 35.65 -4.5 35.8 -4.75 M44.3 -4.5 L44.2 -4.65 Q44.0 -5.0 44.05 -5.35 43.7 -5.05 43.3 -5.0 L43.4 -4.85 Q43.35 -4.65 43.25 -4.5 L43.3 -4.55 44.15 -4.35 44.3 -4.5 M45.35 -4.15 L45.35 -3.9 45.55 -3.75 45.65 -3.85 45.8 -3.95 46.05 -4.0 46.1 -4.05 46.5 -3.9 46.6 -4.1 Q46.4 -4.15 46.2 -4.2 L46.1 -4.25 Q45.9 -3.95 45.5 -4.1 L45.35 -4.15 M48.3 -2.65 L48.6 -2.55 48.5 -2.95 Q48.4 -3.15 48.4 -3.4 L48.45 -3.45 Q48.05 -3.15 47.5 -3.5 L47.35 -3.3 47.05 -3.0 47.05 -2.95 47.1 -2.65 Q47.25 -2.85 47.6 -2.9 L48.05 -2.8 Q48.15 -2.75 48.25 -2.6 L48.3 -2.65 M47.3 7.0 Q47.3 6.8 47.5 6.65 L47.5 6.5 Q47.45 5.95 47.85 5.55 48.05 5.3 48.4 5.25 48.6 5.4 48.7 5.65 48.8 5.5 49.0 5.5 49.35 5.45 49.6 5.35 50.55 5.75 49.45 6.15 48.95 6.3 48.75 6.05 L48.75 6.2 Q48.7 6.55 48.45 6.9 48.25 7.05 48.05 7.05 48.1 7.15 48.05 7.2 L48.25 7.15 Q48.65 7.3 48.65 7.6 48.95 7.8 49.0 8.05 L49.1 8.0 Q49.25 7.9 49.35 7.85 L49.3 7.75 Q49.25 7.6 49.25 7.5 49.15 7.35 49.05 7.15 48.85 6.75 49.3 6.7 L49.8 6.8 Q49.95 6.85 50.0 7.0 50.1 6.95 50.4 6.85 L50.55 6.9 50.65 6.75 50.35 6.65 50.25 6.6 Q49.95 6.55 50.15 6.45 49.45 6.4 50.2 6.05 L50.3 6.05 Q50.25 5.8 50.35 5.55 L50.4 5.5 Q50.25 5.4 50.15 5.0 50.05 4.5 50.55 4.45 L50.8 4.55 Q50.8 4.3 51.0 4.25 50.85 4.15 51.3 3.95 L51.7 4.15 Q51.75 3.9 51.7 3.6 L51.55 3.7 Q51.2 3.95 51.05 3.8 50.75 4.15 50.25 4.2 49.6 4.3 49.45 3.75 49.45 3.65 49.5 3.55 49.6 3.3 49.85 3.2 49.95 3.15 50.05 3.1 50.35 3.3 50.7 3.2 50.85 3.15 51.0 3.2 L51.1 3.1 Q51.3 2.95 51.6 2.95 51.8 3.1 51.85 3.2 L51.95 2.9 Q51.8 2.3 51.4 1.85 51.2 1.6 50.9 1.35 50.6 1.8 49.85 2.25 49.4 2.55 49.0 2.35 48.3 3.8 47.65 5.25 47.4 5.35 47.25 5.75 47.0 6.4 47.0 6.9 L46.85 6.9 46.85 6.95 Q46.1 6.9 45.9 7.7 45.8 8.25 46.25 8.6 46.35 8.65 46.4 8.65 L47.3 8.6 Q47.7 8.2 47.7 7.7 L47.65 7.45 47.7 7.4 47.65 7.4 Q47.55 7.1 47.3 7.0 M48.85 3.8 Q49.4 3.8 49.45 4.25 49.45 4.6 49.25 4.95 48.5 5.2 48.45 4.35 48.4 3.9 48.85 3.8 M51.4 4.3 L51.7 4.4 51.7 4.3 51.4 4.3 M51.3 5.25 L51.45 5.35 51.5 5.2 51.3 5.25 M49.45 4.95 Q50.1 5.05 49.7 5.15 48.8 5.35 49.45 4.95 M50.05 7.5 L50.35 7.15 50.25 7.15 50.0 7.1 49.85 7.3 Q50.0 7.4 50.05 7.5 M50.7 6.7 L50.75 6.65 50.6 6.6 50.7 6.7 M40.55 6.3 Q41.35 6.35 40.55 6.05 40.0 6.25 40.55 6.3 M44.25 5.85 Q43.6 6.0 43.7 6.75 L43.7 6.85 44.0 6.85 Q44.0 6.5 44.35 6.25 L44.8 5.95 44.75 5.9 44.55 5.85 44.25 5.85 M38.55 8.05 Q39.15 7.5 38.25 7.35 L38.0 7.45 Q37.8 7.55 37.8 7.75 L37.8 8.0 Q38.15 8.45 38.55 8.05 M39.65 6.95 L39.6 6.95 39.15 7.1 39.05 7.2 Q38.95 7.35 38.9 7.55 38.85 7.75 38.95 7.9 L39.05 8.15 Q39.7 8.7 40.2 8.05 40.55 7.65 40.4 7.2 40.25 7.1 40.05 7.05 39.85 6.95 39.65 6.95 M38.85 5.4 L38.65 5.45 Q38.35 5.6 38.3 5.9 38.25 6.1 38.3 6.25 38.45 6.65 38.85 6.7 39.15 6.7 39.3 6.55 39.45 6.25 39.4 5.95 39.35 5.45 38.85 5.4 M36.3 8.65 L35.7 8.65 Q35.5 8.5 35.4 8.3 35.3 7.75 35.65 7.4 35.85 7.25 36.05 7.1 35.8 6.85 35.4 6.85 34.7 6.95 34.0 6.9 L33.8 6.85 33.7 6.85 Q34.1 7.1 34.0 7.45 L34.15 7.5 Q34.5 7.6 34.5 7.9 33.95 8.65 33.45 8.15 32.95 8.65 32.4 7.95 32.15 7.65 32.55 7.5 32.4 7.45 32.3 7.3 32.3 6.85 32.7 6.75 L32.75 6.75 32.45 6.7 Q31.8 6.5 31.1 6.65 31.6 7.0 30.9 7.45 30.55 7.65 30.8 8.2 30.8 8.65 30.25 8.25 30.1 8.15 30.05 8.05 29.95 8.0 29.9 7.95 L29.75 8.1 29.75 8.15 29.8 8.15 Q30.2 8.4 30.35 8.95 30.45 9.25 30.3 9.45 L30.5 9.5 Q30.7 9.6 30.8 9.75 30.9 9.95 30.7 10.15 30.4 10.65 29.95 10.35 L29.95 10.45 Q29.9 10.65 29.9 10.85 L30.7 11.15 Q30.1 10.6 30.7 10.25 L31.2 10.5 31.15 10.4 Q31.1 10.05 31.35 9.95 31.3 9.85 31.35 9.8 L31.45 9.85 31.5 9.85 31.7 9.95 31.8 9.95 Q32.3 9.85 32.25 10.2 L32.05 10.3 Q32.3 10.6 32.05 10.85 L32.0 10.9 32.05 10.95 Q32.2 10.75 32.4 10.75 L32.4 10.7 Q32.7 10.8 32.95 10.95 33.2 11.1 33.0 11.35 L33.05 11.4 33.25 11.4 33.25 11.35 Q33.65 10.9 34.3 10.9 L35.0 10.85 35.1 10.95 Q35.3 10.85 35.45 10.8 L35.5 10.8 35.6 10.85 Q36.05 10.7 36.5 10.45 36.9 9.65 36.75 8.75 36.7 8.5 36.55 8.25 L36.3 8.65 M35.9 9.7 Q36.1 10.0 35.8 10.4 35.5 10.7 35.25 10.5 34.5 10.15 34.9 9.3 35.1 8.85 35.5 8.7 L35.75 8.9 35.9 9.15 35.9 9.7 M43.55 8.85 L43.4 8.9 43.6 9.0 43.55 8.85 M43.35 8.35 Q43.35 8.2 43.45 8.0 L43.25 7.95 43.1 7.9 43.1 8.2 Q43.1 8.4 43.15 8.6 L43.25 8.5 Q43.3 8.4 43.35 8.35 M30.5 6.85 L30.4 6.9 30.05 7.0 Q29.7 7.05 29.55 7.25 L28.35 7.75 Q28.0 7.9 27.85 8.2 27.2 8.6 27.65 9.3 L27.65 9.35 Q27.95 9.3 28.05 9.55 28.15 9.75 28.1 9.95 L28.2 10.05 28.55 10.25 28.75 10.45 28.9 10.25 Q29.15 9.9 29.5 9.8 29.7 9.85 29.8 10.0 29.85 9.9 29.9 9.8 29.65 9.8 29.45 9.65 29.3 9.5 29.25 9.35 28.4 9.65 28.2 8.9 28.2 8.55 28.45 8.45 L28.45 8.3 Q28.45 7.7 29.1 7.6 L29.65 7.5 Q29.85 7.55 29.95 7.7 L29.95 7.65 Q29.9 7.25 30.25 7.0 L30.5 6.85 M23.6 9.7 Q23.35 10.15 22.8 10.0 L22.75 10.1 Q23.9 10.25 24.1 8.85 23.7 8.35 22.95 8.4 L22.8 8.4 22.65 8.5 Q22.35 8.75 22.1 8.65 22.4 8.95 22.1 9.35 L22.35 9.3 22.5 9.4 22.5 9.35 Q22.7 9.0 23.05 8.95 23.3 8.9 23.5 8.8 23.95 9.1 23.6 9.7 M33.95 8.65 Q33.6 8.45 34.15 8.4 34.5 8.95 33.95 8.65 M33.05 7.45 Q32.95 7.5 32.85 7.55 L33.0 7.55 33.05 7.45 M32.1 8.0 Q32.7 8.35 31.95 8.75 31.35 9.1 31.35 8.5 31.3 8.3 31.5 8.2 31.8 8.1 32.1 8.0 M32.15 9.7 Q31.85 9.4 32.35 9.35 32.55 10.05 32.15 9.7 M32.45 10.5 Q32.05 10.2 32.5 10.15 32.8 10.8 32.45 10.5 M34.1 9.95 Q34.75 10.3 34.05 10.8 33.65 11.1 33.3 10.75 33.25 10.4 33.5 10.25 33.85 10.05 34.1 9.95 M4.85 9.75 Q4.75 9.8 4.65 9.85 4.85 10.7 5.15 11.35 L5.15 11.05 Q5.15 10.35 5.7 10.2 L5.95 10.45 6.0 10.45 Q6.1 10.35 6.3 10.35 L6.9 10.35 Q7.3 10.4 7.2 10.65 L7.2 10.75 Q7.25 10.7 7.35 10.65 8.25 10.75 7.6 10.9 7.1 10.95 7.1 10.9 7.0 10.95 6.85 10.95 6.7 11.0 6.6 11.1 6.55 11.35 6.6 11.55 6.65 11.9 6.75 12.15 L6.65 12.2 Q6.25 12.3 6.0 12.1 5.65 12.1 5.45 11.95 5.85 12.6 6.45 13.05 6.1 12.55 6.75 12.3 7.2 12.45 7.55 12.75 7.8 13.0 7.85 13.3 7.95 13.25 8.0 13.2 L8.3 13.35 8.5 13.4 8.55 13.4 8.75 13.3 9.3 13.45 Q9.45 13.5 9.55 13.6 9.65 13.5 9.85 13.45 10.2 13.6 10.4 13.85 L10.6 13.7 10.45 13.7 Q9.8 13.6 10.45 13.3 L10.95 13.65 Q11.15 13.7 11.2 13.75 L11.4 13.6 Q11.55 13.55 11.65 13.5 L11.65 13.45 11.7 13.5 Q11.7 13.3 11.75 13.2 L11.85 13.05 Q11.9 13.0 12.0 13.0 L12.15 12.95 12.75 13.0 Q12.9 13.0 13.05 13.1 13.1 12.95 13.3 12.8 13.35 12.75 13.45 12.75 13.15 12.6 13.65 12.4 14.25 12.9 14.0 12.9 14.0 13.0 13.95 13.15 L14.0 13.15 14.15 13.25 Q14.2 13.05 14.25 12.85 14.35 12.65 14.5 12.6 L14.5 12.55 Q14.4 12.5 14.35 12.35 L14.35 12.15 Q14.35 11.95 14.4 11.8 L14.45 11.65 Q14.55 11.55 14.7 11.55 L14.95 11.45 Q14.75 11.0 15.2 10.85 15.7 11.0 15.7 11.5 15.7 11.85 15.6 12.15 L15.55 12.15 15.55 12.3 Q16.45 11.9 16.75 10.8 16.65 10.6 16.45 10.6 L14.8 10.55 Q14.6 10.75 14.4 10.55 L14.2 10.55 Q13.7 11.1 12.9 10.7 12.7 10.6 12.7 10.4 L12.45 10.4 12.5 10.45 Q12.75 10.85 12.5 11.2 12.55 11.15 12.6 11.15 L13.2 10.9 Q13.6 11.0 13.65 11.3 13.7 11.55 13.65 11.8 13.2 12.4 12.5 12.1 12.25 12.0 12.25 11.75 12.2 11.5 12.35 11.35 11.9 11.65 11.35 11.2 L11.2 11.05 11.15 11.3 Q10.8 11.75 10.4 11.45 L10.35 11.5 Q9.75 11.75 9.2 11.55 9.2 11.8 9.0 12.05 L9.2 12.05 9.2 12.0 Q9.75 12.05 9.8 12.3 L10.3 12.6 10.35 12.65 Q11.2 12.95 10.4 13.05 L10.0 13.05 Q9.75 13.1 9.6 12.85 9.25 13.2 8.85 12.8 8.75 12.65 8.75 12.5 8.75 12.35 8.8 12.25 8.55 12.4 8.25 12.15 L8.2 11.95 8.0 12.05 7.7 12.1 Q8.3 12.2 7.65 12.25 7.1 12.35 7.5 12.1 7.5 12.05 7.85 11.8 L8.15 11.85 Q8.1 11.7 8.2 11.55 L8.65 11.2 8.7 11.2 8.5 10.9 8.45 10.8 Q8.45 10.6 8.5 10.5 8.6 10.3 8.75 10.3 L8.95 10.35 Q9.05 10.3 9.2 10.3 9.5 10.35 9.65 10.55 L10.0 10.55 10.4 10.6 Q10.6 10.45 10.75 10.45 10.95 10.5 11.05 10.65 L11.05 10.5 11.1 10.25 11.15 10.2 10.6 10.15 Q10.35 10.3 10.1 10.0 L9.9 9.9 9.6 9.7 Q8.7 9.9 9.2 9.55 8.2 9.1 7.05 9.05 6.55 9.15 6.2 9.5 L6.1 9.5 Q6.05 9.3 5.9 9.15 L5.75 9.0 Q6.7 8.7 5.05 7.55 4.35 7.65 4.2 8.35 4.1 9.1 4.7 9.1 L5.0 9.1 Q4.9 9.2 4.85 9.35 4.8 9.5 4.8 9.65 L4.85 9.75 M14.05 11.45 Q13.4 11.3 14.0 11.05 14.9 11.6 14.05 11.45 M11.75 12.8 Q11.75 13.1 11.45 13.35 10.95 13.25 10.9 12.65 L10.85 12.55 10.8 12.35 Q10.75 12.2 10.75 12.0 10.95 11.8 11.15 11.7 11.3 11.65 11.45 11.65 11.55 11.9 11.55 12.3 12.1 12.75 11.75 12.7 L11.75 12.8 M12.9 13.9 L13.0 13.95 13.25 13.9 Q13.25 13.8 13.3 13.7 13.2 13.65 13.1 13.55 L12.7 13.7 12.9 13.9 M14.95 12.8 L15.0 12.8 15.0 12.75 14.95 12.8 M21.95 8.55 L21.8 8.4 21.35 8.35 Q20.7 8.85 21.0 9.3 L21.0 9.0 21.1 8.85 Q21.35 8.65 21.75 8.6 L21.95 8.55 M18.45 9.9 Q17.9 10.0 17.35 10.35 16.8 10.7 17.15 11.3 17.4 11.6 17.85 11.55 18.0 11.5 18.2 11.35 L18.7 10.8 Q19.15 10.2 18.45 9.9 M18.1 7.65 Q17.9 7.65 17.75 7.8 17.7 7.9 17.65 8.05 17.65 8.15 17.65 8.25 17.95 8.9 18.5 8.45 18.85 8.2 19.1 8.1 19.0 7.8 18.65 7.75 L18.1 7.65 M10.75 1.7 L10.75 1.75 10.85 1.7 10.75 1.65 10.75 1.7 M7.3 0.35 L7.3 0.35 M6.6 7.6 Q6.1 7.65 6.05 8.2 6.05 9.05 6.9 9.05 7.2 8.7 7.25 8.25 7.3 7.6 6.6 7.6 M7.5 11.5 Q6.65 11.6 7.35 11.15 8.15 11.45 7.5 11.5 M7.7 13.5 Q7.5 13.65 7.3 13.65 7.8 13.85 8.3 14.0 8.1 13.95 7.9 13.8 7.65 13.65 7.7 13.5 M10.95 13.9 L10.5 13.95 Q10.6 14.1 10.6 14.3 L11.2 14.25 11.2 14.2 Q11.15 14.1 11.2 13.95 L11.2 13.8 10.95 13.9" fill="#c57676" fill-rule="evenodd" stroke="none"/>
      <path d="M6.1 9.5 L6.2 9.5 Q6.55 9.15 7.05 9.05 8.2 9.1 9.2 9.55 8.7 9.9 9.6 9.7 L9.9 9.9 10.1 10.0 Q10.35 10.3 10.6 10.15 L11.15 10.2 11.1 10.25 11.05 10.5 11.05 10.65 Q10.95 10.5 10.75 10.45 10.6 10.45 10.4 10.6 L10.0 10.55 9.65 10.55 Q9.5 10.35 9.2 10.3 9.05 10.3 8.95 10.35 L8.75 10.3 Q8.6 10.3 8.5 10.5 8.45 10.6 8.45 10.8 L8.5 10.9 8.7 11.2 8.65 11.2 8.2 11.55 Q8.1 11.7 8.15 11.85 L7.85 11.8 Q7.5 12.05 7.5 12.1 7.1 12.35 7.65 12.25 8.3 12.2 7.7 12.1 L8.0 12.05 8.2 11.95 8.25 12.15 Q8.55 12.4 8.8 12.25 8.75 12.35 8.75 12.5 8.75 12.65 8.85 12.8 9.25 13.2 9.6 12.85 9.75 13.1 10.0 13.05 L10.4 13.05 Q11.2 12.95 10.35 12.65 L10.3 12.6 9.8 12.3 Q9.75 12.05 9.2 12.0 L9.2 12.05 9.0 12.05 Q9.2 11.8 9.2 11.55 9.75 11.75 10.35 11.5 L10.4 11.45 Q10.8 11.75 11.15 11.3 L11.2 11.05 11.35 11.2 Q11.9 11.65 12.35 11.35 12.2 11.5 12.25 11.75 12.25 12.0 12.5 12.1 13.2 12.4 13.65 11.8 13.7 11.55 13.65 11.3 13.6 11.0 13.2 10.9 L12.6 11.15 Q12.55 11.15 12.5 11.2 12.75 10.85 12.5 10.45 L12.45 10.4 12.7 10.4 Q12.7 10.6 12.9 10.7 13.7 11.1 14.2 10.55 L14.4 10.55 Q14.6 10.75 14.8 10.55 L16.45 10.6 Q16.65 10.6 16.75 10.8 16.45 11.9 15.55 12.3 L15.55 12.15 15.6 12.15 Q15.7 11.85 15.7 11.5 15.7 11.0 15.2 10.85 14.75 11.0 14.95 11.45 L14.7 11.55 Q14.55 11.55 14.45 11.65 L14.4 11.8 Q14.35 11.95 14.35 12.15 L14.35 12.35 Q14.4 12.5 14.5 12.55 L14.5 12.6 Q14.35 12.65 14.25 12.85 14.2 13.05 14.15 13.25 L14.0 13.15 13.95 13.15 Q14.0 13.0 14.0 12.9 14.25 12.9 13.65 12.4 13.15 12.6 13.45 12.75 13.35 12.75 13.3 12.8 13.1 12.95 13.05 13.1 12.9 13.0 12.75 13.0 L12.15 12.95 12.0 13.0 Q11.9 13.0 11.85 13.05 L11.75 13.2 Q11.7 13.3 11.7 13.5 L11.65 13.45 11.65 13.5 Q11.55 13.55 11.4 13.6 L11.2 13.75 Q11.15 13.7 10.95 13.65 L10.45 13.3 Q9.8 13.6 10.45 13.7 L10.6 13.7 10.4 13.85 Q10.2 13.6 9.85 13.45 9.65 13.5 9.55 13.6 9.45 13.5 9.3 13.45 L8.75 13.3 8.55 13.4 8.5 13.4 8.3 13.35 8.0 13.2 Q7.95 13.25 7.85 13.3 7.8 13.0 7.55 12.75 7.2 12.45 6.75 12.3 6.1 12.55 6.45 13.05 5.85 12.6 5.45 11.95 5.65 12.1 6.0 12.1 6.25 12.3 6.65 12.2 L6.75 12.15 Q6.65 11.9 6.6 11.55 6.55 11.35 6.6 11.1 6.7 11.0 6.85 10.95 7.0 10.95 7.1 10.9 7.1 10.95 7.6 10.9 8.25 10.75 7.35 10.65 7.25 10.7 7.2 10.75 L7.2 10.65 Q7.3 10.4 6.9 10.35 L6.3 10.35 Q6.1 10.35 6.0 10.45 L5.95 10.45 5.7 10.2 Q5.15 10.35 5.15 11.05 L5.15 11.35 Q4.85 10.7 4.65 9.85 4.75 9.8 4.85 9.75 5.0 10.05 5.4 10.05 5.9 10.05 6.05 9.6 L6.1 9.5 M14.95 12.8 L15.0 12.75 15.0 12.8 14.95 12.8 M12.9 13.9 L12.7 13.7 13.1 13.55 Q13.2 13.65 13.3 13.7 13.25 13.8 13.25 13.9 L13.0 13.95 12.9 13.9 M11.75 12.8 L11.75 12.7 Q12.1 12.75 11.55 12.3 11.55 11.9 11.45 11.65 11.3 11.65 11.15 11.7 10.95 11.8 10.75 12.0 10.75 12.2 10.8 12.35 L10.85 12.55 10.9 12.65 Q10.95 13.25 11.45 13.35 11.75 13.1 11.75 12.8 M14.05 11.45 Q14.9 11.6 14.0 11.05 13.4 11.3 14.05 11.45 M10.95 13.9 L11.2 13.8 11.2 13.95 Q11.15 14.1 11.2 14.2 L11.2 14.25 10.6 14.3 Q10.6 14.1 10.5 13.95 L10.95 13.9 M7.7 13.5 Q7.65 13.65 7.9 13.8 8.1 13.95 8.3 14.0 7.8 13.85 7.3 13.65 7.5 13.65 7.7 13.5 M7.5 11.5 Q8.15 11.45 7.35 11.15 6.65 11.6 7.5 11.5" fill="url(#gradient0)" fill-rule="evenodd" stroke="none"/>
      <path d="M35.9 9.7 L35.9 9.15 35.75 8.9 35.5 8.7 Q35.1 8.85 34.9 9.3 34.5 10.15 35.25 10.5 35.5 10.7 35.8 10.4 36.1 10.0 35.9 9.7 M36.3 8.65 L36.55 8.25 Q36.7 8.5 36.75 8.75 36.9 9.65 36.5 10.45 36.05 10.7 35.6 10.85 L35.5 10.8 35.45 10.8 Q35.3 10.85 35.1 10.95 L35.0 10.85 34.3 10.9 Q33.65 10.9 33.25 11.35 L33.25 11.4 33.05 11.4 33.0 11.35 Q33.2 11.1 32.95 10.95 32.7 10.8 32.4 10.7 L32.4 10.75 Q32.2 10.75 32.05 10.95 L32.0 10.9 32.05 10.85 Q32.3 10.6 32.05 10.3 L32.25 10.2 Q32.3 9.85 31.8 9.95 L31.7 9.95 31.5 9.85 31.45 9.85 31.35 9.8 Q31.3 9.85 31.35 9.95 31.1 10.05 31.15 10.4 L31.2 10.5 30.7 10.25 Q30.1 10.6 30.7 11.15 L29.9 10.85 Q29.9 10.65 29.95 10.45 L29.95 10.35 Q30.4 10.65 30.7 10.15 30.9 9.95 30.8 9.75 30.7 9.6 30.5 9.5 L30.3 9.45 Q30.45 9.25 30.35 8.95 30.2 8.4 29.8 8.15 L29.75 8.15 29.75 8.1 29.9 7.95 Q29.95 8.0 30.05 8.05 30.1 8.15 30.25 8.25 30.8 8.65 30.8 8.2 30.55 7.65 30.9 7.45 31.6 7.0 31.1 6.65 31.8 6.5 32.45 6.7 L32.75 6.75 32.7 6.75 Q32.3 6.85 32.3 7.3 32.4 7.45 32.55 7.5 32.15 7.65 32.4 7.95 32.95 8.65 33.45 8.15 33.95 8.65 34.5 7.9 34.5 7.6 34.15 7.5 L34.0 7.45 Q34.1 7.1 33.7 6.85 L33.8 6.85 34.0 6.9 Q34.7 6.95 35.4 6.85 35.8 6.85 36.05 7.1 35.85 7.25 35.65 7.4 35.3 7.75 35.4 8.3 35.5 8.5 35.7 8.65 L36.3 8.65 M30.5 6.85 L30.25 7.0 Q29.9 7.25 29.95 7.65 L29.95 7.7 Q29.85 7.55 29.65 7.5 L29.1 7.6 Q28.45 7.7 28.45 8.3 L28.45 8.45 Q28.2 8.55 28.2 8.9 28.4 9.65 29.25 9.35 29.3 9.5 29.45 9.65 29.65 9.8 29.9 9.8 29.85 9.9 29.8 10.0 29.7 9.85 29.5 9.8 29.15 9.9 28.9 10.25 L28.75 10.45 28.55 10.25 28.2 10.05 28.1 9.95 Q28.15 9.75 28.05 9.55 27.95 9.3 27.65 9.35 L27.65 9.3 Q27.2 8.6 27.85 8.2 28.0 7.9 28.35 7.75 L29.55 7.25 Q29.7 7.05 30.05 7.0 L30.4 6.9 30.5 6.85 M34.1 9.95 Q33.85 10.05 33.5 10.25 33.25 10.4 33.3 10.75 33.65 11.1 34.05 10.8 34.75 10.3 34.1 9.95 M32.45 10.5 Q32.8 10.8 32.5 10.15 32.05 10.2 32.45 10.5 M32.15 9.7 Q32.55 10.05 32.35 9.35 31.85 9.4 32.15 9.7 M32.1 8.0 Q31.8 8.1 31.5 8.2 31.3 8.3 31.35 8.5 31.35 9.1 31.95 8.75 32.7 8.35 32.1 8.0 M33.05 7.45 L33.0 7.55 32.85 7.55 Q32.95 7.5 33.05 7.45 M33.95 8.65 Q34.5 8.95 34.15 8.4 33.6 8.45 33.95 8.65" fill="url(#gradient1)" fill-rule="evenodd" stroke="none"/>
      <path d="M23.6 9.7 Q23.95 9.1 23.5 8.8 23.3 8.9 23.05 8.95 22.7 9.0 22.5 9.35 L22.5 9.4 22.35 9.3 22.1 9.35 Q22.4 8.95 22.1 8.65 22.35 8.75 22.65 8.5 L22.8 8.4 22.95 8.4 Q23.7 8.35 24.1 8.85 23.9 10.25 22.75 10.1 L22.8 10.0 Q23.35 10.15 23.6 9.7 M21.95 8.55 L21.75 8.6 Q21.35 8.65 21.1 8.85 L21.0 9.0 21.0 9.3 Q20.7 8.85 21.35 8.35 L21.8 8.4 21.95 8.55" fill="url(#gradient2)" fill-rule="evenodd" stroke="none"/>
      <path d="M47.0 6.9 Q47.0 6.4 47.25 5.75 47.4 5.35 47.65 5.25 48.3 3.8 49.0 2.35 49.4 2.55 49.85 2.25 50.6 1.8 50.9 1.35 51.2 1.6 51.4 1.85 51.8 2.3 51.95 2.9 L51.85 3.2 Q51.8 3.1 51.6 2.95 51.3 2.95 51.1 3.1 L51.0 3.2 Q50.85 3.15 50.7 3.2 50.35 3.3 50.05 3.1 49.95 3.15 49.85 3.2 49.6 3.3 49.5 3.55 49.45 3.65 49.45 3.75 49.6 4.3 50.25 4.2 50.75 4.15 51.05 3.8 51.2 3.95 51.55 3.7 L51.7 3.6 Q51.75 3.9 51.7 4.15 L51.3 3.95 Q50.85 4.15 51.0 4.25 50.8 4.3 50.8 4.55 L50.55 4.45 Q50.05 4.5 50.15 5.0 50.25 5.4 50.4 5.5 L50.35 5.55 Q50.25 5.8 50.3 6.05 L50.2 6.05 Q49.45 6.4 50.15 6.45 49.95 6.55 50.25 6.6 L50.35 6.65 50.65 6.75 50.55 6.9 50.4 6.85 Q50.1 6.95 50.0 7.0 49.95 6.85 49.8 6.8 L49.3 6.7 Q48.85 6.75 49.05 7.15 49.15 7.35 49.25 7.5 49.25 7.6 49.3 7.75 L49.35 7.85 Q49.25 7.9 49.1 8.0 L49.0 8.05 Q48.95 7.8 48.65 7.6 48.65 7.3 48.25 7.15 L48.05 7.2 Q48.1 7.15 48.05 7.05 48.25 7.05 48.45 6.9 48.7 6.55 48.75 6.2 L48.75 6.05 Q48.95 6.3 49.45 6.15 50.55 5.75 49.6 5.35 49.35 5.45 49.0 5.5 48.8 5.5 48.7 5.65 48.6 5.4 48.4 5.25 48.05 5.3 47.85 5.55 47.45 5.95 47.5 6.5 L47.5 6.65 Q47.3 6.8 47.3 7.0 47.15 6.95 47.0 6.9 M47.65 7.4 L47.7 7.4 47.65 7.45 47.65 7.4 M49.45 4.95 Q48.8 5.35 49.7 5.15 50.1 5.05 49.45 4.95 M51.3 5.25 L51.5 5.2 51.45 5.35 51.3 5.25 M51.4 4.3 L51.7 4.3 51.7 4.4 51.4 4.3 M48.85 3.8 Q48.4 3.9 48.45 4.35 48.5 5.2 49.25 4.95 49.45 4.6 49.45 4.25 49.4 3.8 48.85 3.8 M50.7 6.7 L50.6 6.6 50.75 6.65 50.7 6.7 M50.05 7.5 Q50.0 7.4 49.85 7.3 L50.0 7.1 50.25 7.15 50.35 7.15 50.05 7.5" fill="url(#gradient3)" fill-rule="evenodd" stroke="none"/>
      <path d="M44.25 5.85 L44.55 5.85 44.75 5.9 44.8 5.95 44.35 6.25 Q44.0 6.5 44.0 6.85 L43.7 6.85 43.7 6.75 Q43.6 6.0 44.25 5.85 M43.35 8.35 Q43.3 8.4 43.25 8.5 L43.15 8.6 Q43.1 8.4 43.1 8.2 L43.1 7.9 43.25 7.95 43.45 8.0 Q43.35 8.2 43.35 8.35 M43.55 8.85 L43.6 9.0 43.4 8.9 43.55 8.85" fill="url(#gradient4)" fill-rule="evenodd" stroke="none"/>
      <path d="M47.0 6.9 Q47.15 6.95 47.3 7.0 47.55 7.1 47.65 7.4 L47.65 7.45 47.7 7.7 Q47.7 8.2 47.3 8.6 L46.4 8.65 Q46.35 8.65 46.25 8.6 45.8 8.25 45.9 7.7 46.1 6.9 46.85 6.95 L46.85 6.9 47.0 6.9 M40.55 6.3 Q40.0 6.25 40.55 6.05 41.35 6.35 40.55 6.3 M38.85 5.4 Q39.35 5.45 39.4 5.95 39.45 6.25 39.3 6.55 39.15 6.7 38.85 6.7 38.45 6.65 38.3 6.25 38.25 6.1 38.3 5.9 38.35 5.6 38.65 5.45 L38.85 5.4 M39.65 6.95 Q39.85 6.95 40.05 7.05 40.25 7.1 40.4 7.2 40.55 7.65 40.2 8.05 39.7 8.7 39.05 8.15 L38.95 7.9 Q38.85 7.75 38.9 7.55 38.95 7.35 39.05 7.2 L39.15 7.1 39.6 6.95 39.65 6.95 M38.55 8.05 Q38.15 8.45 37.8 8.0 L37.8 7.75 Q37.8 7.55 38.0 7.45 L38.25 7.35 Q39.15 7.5 38.55 8.05 M4.85 9.75 L4.8 9.65 Q4.8 9.5 4.85 9.35 4.9 9.2 5.0 9.1 L4.7 9.1 Q4.1 9.1 4.2 8.35 4.35 7.65 5.05 7.55 6.7 8.7 5.75 9.0 L5.9 9.15 Q6.05 9.3 6.1 9.5 L6.05 9.6 Q5.9 10.05 5.4 10.05 5.0 10.05 4.85 9.75 M18.1 7.65 L18.65 7.75 Q19.0 7.8 19.1 8.1 18.85 8.2 18.5 8.45 17.95 8.9 17.65 8.25 17.65 8.15 17.65 8.05 17.7 7.9 17.75 7.8 17.9 7.65 18.1 7.65 M18.45 9.9 Q19.15 10.2 18.7 10.8 L18.2 11.35 Q18.0 11.5 17.85 11.55 17.4 11.6 17.15 11.3 16.8 10.7 17.35 10.35 17.9 10.0 18.45 9.9 M6.6 7.6 Q7.3 7.6 7.25 8.25 7.2 8.7 6.9 9.05 6.05 9.05 6.05 8.2 6.1 7.65 6.6 7.6" fill="#a04545" fill-rule="evenodd" stroke="none"/>
      <path d="M53.1 1.65 L53.2 1.95 53.25 2.25 53.45 2.9 Q53.7 3.7 53.7 4.2 53.7 5.1 53.45 6.1 L53.45 6.2 Q53.45 7.1 52.95 7.95 52.8 8.55 52.35 9.1 51.1 10.8 48.6 10.8 46.9 10.8 46.2 10.45 L46.15 10.45 Q45.8 10.85 44.95 11.3 L44.7 11.45 44.5 11.6 Q43.65 12.35 42.5 12.35 L42.0 12.4 Q39.45 12.4 38.85 11.9 L38.45 11.8 Q38.2 11.7 38.15 11.45 L38.15 11.35 38.05 11.3 38.0 11.3 37.9 11.5 Q37.5 12.15 36.85 12.7 35.5 13.8 33.8 14.05 33.15 14.25 32.5 14.25 L31.75 14.2 31.2 14.35 Q28.65 14.35 26.85 12.6 L26.8 12.5 Q25.9 12.15 25.45 11.8 L25.15 12.05 Q24.5 12.55 23.75 12.7 23.4 12.9 23.0 12.95 22.8 13.05 22.5 13.05 20.95 13.05 20.05 11.9 L19.95 11.8 19.9 11.85 19.4 12.7 Q19.3 12.95 19.0 13.4 18.65 14.0 18.25 14.55 17.75 15.25 17.15 15.7 16.9 16.05 16.45 16.35 15.65 16.9 14.6 17.1 L14.4 17.3 Q13.95 17.6 12.05 17.6 9.8 17.6 8.65 17.2 8.3 17.1 7.85 16.8 7.5 16.7 7.35 16.5 L6.4 16.1 6.0 15.8 Q5.65 15.55 5.45 15.4 4.25 14.6 3.2 13.05 L2.85 12.45 2.45 11.85 2.45 11.8 2.35 11.65 2.3 11.55 2.1 11.2 1.65 9.85 Q1.1 8.65 1.1 8.15 1.1 7.9 1.1 7.75 L1.1 7.65 Q1.1 7.4 1.15 6.95 L1.15 6.7 Q0.7 6.5 0.35 5.95 0.0 5.3 0.0 4.8 0.0 4.7 0.1 4.55 L0.05 4.4 0.1 4.25 0.2 4.35 0.25 4.25 0.3 4.4 Q0.55 4.7 0.9 5.15 L1.2 5.6 Q1.3 5.05 1.55 4.7 1.7 4.25 1.8 4.15 L1.9 4.15 Q1.95 4.2 1.95 4.3 L1.95 4.55 2.05 4.45 2.05 4.5 1.95 4.7 2.0 4.8 Q2.0 4.9 1.9 4.95 L1.85 5.45 1.95 6.5 2.0 7.75 2.0 7.95 2.1 8.15 2.15 8.2 2.15 8.15 2.35 8.65 Q2.95 10.15 3.25 10.65 3.75 11.65 4.9 12.8 6.05 14.0 6.8 14.15 L7.0 14.3 Q7.95 14.7 9.0 14.95 L12.35 14.9 13.3 14.9 14.2 14.75 15.2 14.55 Q16.35 14.15 17.3 13.5 18.4 12.8 19.4 11.6 L19.6 11.25 Q19.6 11.2 19.55 11.1 L19.5 10.95 19.4 10.75 19.45 10.55 19.5 10.4 19.5 10.25 19.65 10.25 19.8 10.25 20.05 10.55 20.1 10.55 20.2 10.45 20.3 10.55 20.4 10.6 20.3 10.75 20.3 10.8 Q20.55 10.85 21.0 11.05 21.85 11.4 22.5 11.4 L22.7 11.4 Q23.3 11.2 24.05 10.65 24.25 10.55 24.4 10.45 24.85 10.05 25.2 9.95 L25.3 9.95 25.5 10.0 25.55 10.1 25.8 10.15 25.7 10.3 25.8 10.25 25.8 10.35 25.95 10.45 27.7 11.25 29.3 11.9 Q30.95 12.3 32.75 12.3 L33.6 12.25 35.05 11.8 35.35 11.65 36.0 11.2 36.25 11.0 36.3 10.9 Q36.35 10.9 36.35 11.1 L36.95 10.65 36.95 10.6 Q37.45 10.1 38.8 9.45 40.4 8.7 40.95 8.35 L41.15 8.45 Q41.25 8.5 41.25 8.75 41.25 9.2 39.9 9.95 L39.6 10.25 39.8 10.35 Q40.3 10.55 40.8 10.65 L41.25 10.7 Q43.15 10.7 44.55 9.7 44.95 9.4 45.35 8.95 45.7 8.6 45.75 8.6 L45.9 8.7 Q46.0 8.8 46.05 8.95 L46.35 9.1 47.45 9.2 Q48.0 9.15 49.0 9.2 50.05 9.3 50.1 8.8 L50.25 8.65 50.55 8.4 50.7 8.2 Q51.4 7.25 52.05 6.6 L52.15 6.15 52.45 4.55 Q52.35 3.3 51.9 2.1 51.35 0.75 51.35 0.5 L51.35 0.35 51.3 0.15 51.5 0.15 51.6 0.2 Q51.65 -0.1 51.85 0.05 52.05 0.1 52.25 0.4 52.85 0.75 53.1 1.65 M38.75 10.9 L38.65 10.95 38.85 11.05 38.75 10.9" fill="#111111" fill-rule="evenodd" stroke="none"/>
    </g>
    <radialGradient cx="0" cy="0" gradientTransform="matrix(0.0, 0.0047, -0.0092, 1.0E-4, 10.45, 13.65)" gradientUnits="userSpaceOnUse" id="gradient0" r="819.2" spreadMethod="pad">
      <stop offset="0.0" stop-color="#edd6d6"/>
      <stop offset="1.0" stop-color="#c57676"/>
    </radialGradient>
    <radialGradient cx="0" cy="0" gradientTransform="matrix(0.0, 0.0043, -0.0063, -1.0E-4, 32.1, 10.15)" gradientUnits="userSpaceOnUse" id="gradient1" r="819.2" spreadMethod="pad">
      <stop offset="0.0" stop-color="#edd6d6"/>
      <stop offset="1.0" stop-color="#c57676"/>
    </radialGradient>
    <radialGradient cx="0" cy="0" gradientTransform="matrix(0.0021, 0.0, 0.0, 0.0021, 22.4, 10.0)" gradientUnits="userSpaceOnUse" id="gradient2" r="819.2" spreadMethod="pad">
      <stop offset="0.0" stop-color="#edd6d6"/>
      <stop offset="1.0" stop-color="#c57676"/>
    </radialGradient>
    <radialGradient cx="0" cy="0" gradientTransform="matrix(0.0025, 0.0022, -0.0038, 0.0043, 50.2, 6.6)" gradientUnits="userSpaceOnUse" id="gradient3" r="819.2" spreadMethod="pad">
      <stop offset="0.0" stop-color="#edd6d6"/>
      <stop offset="1.0" stop-color="#c57676"/>
    </radialGradient>
    <radialGradient cx="0" cy="0" gradientTransform="matrix(0.001, 0.0014, -0.0022, 0.0016, 45.0, 8.45)" gradientUnits="userSpaceOnUse" id="gradient4" r="819.2" spreadMethod="pad">
      <stop offset="0.0" stop-color="#edd6d6"/>
      <stop offset="1.0" stop-color="#c57676"/>
    </radialGradient>
  </defs>
</svg>
