<?xml version="1.0" encoding="UTF-8" standalone="no"?>
<svg xmlns:ffdec="https://www.free-decompiler.com/flash" xmlns:xlink="http://www.w3.org/1999/xlink" ffdec:objectType="frame" height="609.5px" width="68.15px" xmlns="http://www.w3.org/2000/svg">
  <g transform="matrix(1.0, 0.0, 0.0, 1.0, 30.85, 18.7)">
    <use ffdec:characterId="1102" ffdec:characterName="a_EB_FallingSand5" height="514.5" transform="matrix(1.0, 0.0, 0.0, 1.0, -27.8, -18.7)" width="64.4" xlink:href="#sprite0"/>
  </g>
  <defs>
    <g id="sprite0" transform="matrix(1.0, 0.0, 0.0, 1.0, 0.0, 0.0)">
      <use ffdec:characterId="1101" height="73.5" transform="matrix(7.0, 0.0, 0.0, 7.0, 0.0, 0.0)" width="9.2" xlink:href="#shape0"/>
    </g>
    <g id="shape0" transform="matrix(1.0, 0.0, 0.0, 1.0, 0.0, 0.0)">
      <path d="M8.9 1.4 Q8.9 1.6 8.75 2.35 8.6 2.95 8.65 3.25 L8.6 3.3 8.55 3.2 8.6 4.7 Q8.6 6.95 8.5 10.2 L8.35 13.6 Q8.2 19.15 7.8 30.4 L7.75 30.4 Q7.65 28.35 7.4 19.4 L7.25 15.0 7.15 14.35 7.05 14.3 6.95 14.7 6.8 14.9 6.8 15.35 Q6.8 16.35 6.55 18.05 L6.5 18.2 Q6.5 20.55 6.3 25.1 L6.25 42.25 6.2 42.3 6.2 51.15 Q6.25 52.55 6.2 53.55 L6.2 60.05 Q6.25 61.05 6.25 62.25 L6.2 66.2 Q6.15 67.65 6.0 70.8 L5.95 70.85 Q5.75 68.95 5.65 66.55 5.6 65.05 5.6 62.3 5.6 60.9 5.65 59.95 L5.65 54.15 5.5 52.1 5.5 47.9 5.45 47.85 5.45 38.5 5.4 37.15 5.4 30.25 5.15 22.7 5.0 18.55 4.95 19.9 4.7 26.15 4.7 28.0 Q4.65 28.95 4.7 30.95 L4.7 43.6 4.65 44.9 4.65 54.35 4.7 55.65 Q4.7 57.15 4.55 61.25 4.4 65.35 4.4 66.4 L4.4 66.45 4.35 66.55 Q4.25 64.75 4.15 61.3 4.0 57.9 4.0 55.65 L4.05 48.9 4.05 47.4 4.0 46.7 Q3.85 44.8 3.85 43.6 L3.85 30.9 Q3.9 28.95 3.85 28.0 L3.85 26.2 3.75 22.85 Q3.75 22.5 3.85 22.2 L3.85 19.7 Q3.65 18.4 3.65 17.65 L3.6 17.5 3.45 17.15 3.3 16.9 3.3 16.95 3.05 20.85 3.05 27.5 Q3.15 29.15 3.15 29.6 L2.95 31.5 Q2.95 32.05 2.85 32.85 L2.7 33.85 2.65 34.3 Q2.65 35.5 2.95 36.65 3.2 37.75 3.2 39.5 L3.05 43.05 Q2.85 46.7 2.85 47.45 L2.8 47.85 2.8 47.9 2.75 48.0 Q2.55 47.1 2.2 43.35 1.95 40.7 1.9 39.1 L1.8 39.0 1.7 38.8 1.7 38.65 1.75 38.55 1.9 38.55 1.85 37.95 Q1.85 36.8 2.05 35.5 2.25 34.25 2.25 33.3 L2.15 32.25 Q2.0 31.35 2.0 31.15 2.0 30.05 2.15 27.25 2.0 25.6 2.0 24.3 1.8 24.1 1.8 23.45 L1.85 22.45 Q1.85 21.0 1.75 18.75 1.6 16.9 1.6 15.35 L1.4 13.65 Q1.2 12.15 1.2 10.25 L1.3 8.5 1.3 8.45 Q1.2 7.85 1.2 6.9 1.1 5.5 1.15 4.0 L1.15 3.0 Q1.1 2.9 1.05 2.75 L1.05 2.1 1.6 1.9 1.65 1.9 2.5 1.8 3.25 1.55 Q3.25 2.25 3.4 3.95 L3.3 5.65 Q3.35 7.2 3.55 8.7 L3.65 9.3 Q3.8 10.1 3.95 10.6 L3.95 10.75 4.0 10.65 Q4.35 11.65 4.9 11.65 5.4 11.65 5.75 10.65 5.65 10.75 5.55 10.75 5.3 10.75 5.15 10.5 L5.0 10.25 Q5.0 9.85 5.45 9.95 5.85 10.1 5.85 10.35 6.25 8.95 6.45 6.15 L6.55 3.8 6.6 2.25 6.55 0.75 Q8.25 0.3 9.0 0.0 9.1 0.05 9.2 0.2 L9.0 0.35 8.95 0.4 8.95 0.5 8.85 0.8 8.9 1.4 M4.5 7.3 Q4.6 7.25 4.7 7.25 L4.75 7.3 4.8 7.4 4.65 7.55 Q4.5 7.5 4.4 7.45 4.4 7.35 4.5 7.3 M5.05 8.35 Q5.45 8.4 5.45 8.75 5.45 8.95 5.35 9.1 5.25 9.2 5.05 9.2 4.8 9.2 4.7 8.95 L4.65 8.75 Q4.65 8.3 5.05 8.35 M0.35 20.25 Q0.5 20.3 0.55 20.45 0.5 20.6 0.35 20.65 L0.1 20.55 Q0.05 20.7 0.05 20.45 0.05 20.3 0.15 20.25 L0.35 20.25 M0.95 22.1 Q0.95 22.2 1.0 22.35 L0.95 22.65 0.9 22.65 0.75 22.7 Q0.6 22.7 0.5 22.5 L0.4 22.3 Q0.4 22.0 0.95 22.1 M0.5 23.65 L0.5 23.8 Q0.5 24.05 0.45 24.05 L0.25 24.15 Q0.0 23.9 0.0 23.8 0.0 23.65 0.1 23.6 L0.45 23.6 0.5 23.65 M0.55 30.05 L0.5 30.2 0.45 30.3 0.35 30.35 0.2 30.3 Q0.1 30.25 0.1 30.05 L0.15 29.9 0.15 29.85 0.35 29.85 Q0.5 29.9 0.55 30.05 M8.8 37.85 L8.8 38.05 8.6 38.15 Q8.35 37.95 8.35 37.85 8.35 37.55 8.8 37.65 L8.8 37.85 M7.65 36.6 Q7.6 36.55 7.6 36.5 7.6 36.35 7.7 36.25 7.8 36.15 8.1 36.25 L8.15 36.3 8.15 36.65 8.1 36.75 7.9 36.8 7.65 36.6 M8.1 44.75 L8.15 44.9 8.1 45.1 Q8.05 45.15 7.9 45.15 7.75 45.15 7.65 45.1 L7.55 45.0 7.55 44.85 7.7 44.7 8.1 44.7 8.1 44.75 M2.35 47.45 L2.35 47.6 2.3 47.65 2.2 47.7 Q2.1 47.7 2.0 47.6 2.05 47.5 2.15 47.45 L2.35 47.45 M2.8 51.4 Q2.8 51.65 2.75 51.6 L2.5 51.7 2.2 51.4 Q2.2 51.0 2.7 51.15 L2.75 51.2 2.8 51.4 M2.65 53.45 Q2.9 53.75 3.0 53.95 3.05 54.1 3.05 54.4 L3.0 54.6 Q2.95 54.65 2.75 54.65 2.4 54.65 2.3 54.35 L2.3 54.0 Q2.3 53.85 2.35 53.75 2.4 53.6 2.65 53.45 M8.2 51.95 Q7.95 51.75 7.9 51.6 7.95 51.55 8.1 51.5 L8.45 51.45 8.5 51.7 8.35 51.8 8.2 51.95 M8.05 56.65 L8.2 56.7 8.1 56.8 Q8.0 56.75 7.9 56.7 7.95 56.65 8.05 56.65 M3.2 56.95 L3.2 57.2 Q3.15 57.2 3.05 57.25 L2.9 57.35 Q2.55 57.05 2.55 56.95 L2.55 56.75 2.6 56.65 3.05 56.65 3.15 56.7 Q3.2 56.75 3.2 56.95 M2.0 59.4 L2.15 59.35 2.25 59.55 Q2.15 59.7 2.0 59.75 L1.8 59.55 Q1.9 59.45 2.0 59.4 M4.7 68.9 L4.75 69.15 4.7 69.3 4.7 69.35 4.6 69.35 4.45 69.45 Q4.2 69.2 4.2 69.1 4.2 68.95 4.25 68.85 4.35 68.75 4.7 68.85 L4.7 68.9 M4.2 67.4 L4.25 67.6 4.2 67.75 4.2 67.8 3.9 67.85 3.85 67.85 3.85 67.8 Q3.8 67.75 3.8 67.6 L3.95 67.6 Q4.05 67.5 4.05 67.3 L4.2 67.4 M7.4 71.7 L7.1 72.0 Q6.85 71.8 6.8 71.65 6.85 71.6 7.0 71.55 L7.25 71.5 7.4 71.7 M6.15 72.3 L5.85 72.55 5.55 72.3 5.55 72.15 5.6 72.1 5.75 72.05 6.1 72.1 6.15 72.3 M6.8 73.35 Q6.9 73.3 7.0 73.5 6.95 73.5 6.85 73.5 L6.7 73.5 6.8 73.35 M4.15 70.85 Q4.25 70.85 4.3 70.95 4.25 71.0 4.1 71.05 4.0 70.95 4.0 70.85 L4.15 70.85" fill="#999966" fill-opacity="0.62352943" fill-rule="evenodd" stroke="none"/>
    </g>
  </defs>
</svg>
