<?xml version="1.0" encoding="UTF-8" standalone="no"?>
<svg xmlns:ffdec="https://www.free-decompiler.com/flash" xmlns:xlink="http://www.w3.org/1999/xlink" ffdec:objectType="frame" height="300.65px" width="263.2px" xmlns="http://www.w3.org/2000/svg">
  <g transform="matrix(1.0, 0.0, 0.0, 1.0, 114.45, 253.05)">
    <use ffdec:characterId="24" height="40.7" transform="matrix(7.0, 0.0, 0.0, 7.0, -113.05, -238.35)" width="36.35" xlink:href="#shape0"/>
  </g>
  <defs>
    <g id="shape0" transform="matrix(1.0, 0.0, 0.0, 1.0, 16.15, 34.05)">
      <path d="M11.6 -33.3 L11.6 -33.05 8.3 -32.85 Q7.4 -32.75 6.85 -32.1 L6.75 -32.0 6.75 -31.9 6.7 -31.9 6.5 -31.7 6.45 -31.6 6.3 -31.45 6.3 -31.35 6.2 -31.15 6.05 -31.05 5.95 -30.95 5.85 -30.8 5.6 -30.7 5.3 -30.4 5.05 -30.3 4.65 -30.1 4.3 -29.9 4.15 -29.85 3.7 -29.85 3.55 -29.9 Q3.3 -30.0 3.1 -30.1 3.05 -30.15 3.05 -30.2 L3.15 -30.25 Q3.25 -30.4 3.45 -30.45 L3.8 -30.5 4.05 -30.55 4.15 -30.7 4.2 -30.75 4.3 -30.8 4.45 -30.85 4.65 -31.05 4.7 -31.05 4.9 -31.15 5.05 -31.3 5.15 -31.35 5.3 -31.45 5.5 -31.65 5.7 -31.75 5.7 -31.85 5.9 -32.05 6.0 -32.2 6.1 -32.3 6.2 -32.5 6.3 -32.55 6.3 -32.7 6.35 -32.8 6.45 -32.95 6.55 -33.05 6.7 -33.15 6.75 -33.2 Q6.95 -33.3 7.15 -33.35 7.35 -33.5 7.55 -33.6 L7.65 -33.65 Q8.1 -33.95 8.55 -34.05 L10.2 -34.05 Q10.7 -33.95 11.15 -33.8 11.35 -33.7 11.45 -33.55 L11.55 -33.5 11.6 -33.4 11.6 -33.3 M0.65 -33.0 L0.8 -32.8 0.85 -32.8 1.0 -32.7 1.05 -32.6 1.05 -32.45 0.95 -32.25 0.45 -32.35 0.4 -32.3 Q0.35 -32.25 0.3 -32.25 L0.05 -32.25 -0.55 -32.65 -0.7 -32.8 -0.85 -32.85 -0.9 -32.9 -3.9 -33.05 -4.0 -33.2 -4.05 -33.3 -4.05 -33.4 -4.0 -33.5 -3.9 -33.6 Q-3.9 -33.65 -3.9 -33.7 L-3.8 -33.8 -3.3 -33.9 -3.15 -33.95 -1.85 -33.95 -1.15 -33.8 -0.85 -33.7 -0.2 -33.65 -0.1 -33.55 0.4 -33.2 0.65 -33.0 M10.25 -33.35 L10.25 -33.35 M6.8 -29.05 Q6.8 -29.15 6.85 -29.15 L6.95 -29.25 7.15 -29.35 7.3 -29.35 7.45 -29.3 7.55 -29.2 7.75 -28.95 7.8 -28.85 7.8 -28.75 7.75 -28.65 Q7.65 -28.6 7.55 -28.55 7.3 -28.55 7.1 -28.65 6.8 -28.75 6.8 -29.05 M10.0 -22.3 L10.2 -22.25 10.3 -22.2 10.55 -22.2 10.85 -22.05 Q11.0 -21.95 11.2 -21.9 11.3 -21.7 11.4 -21.45 L11.5 -21.15 11.6 -20.95 11.6 -20.05 11.55 -20.0 11.3 -19.8 11.15 -19.8 10.95 -19.85 Q10.8 -20.0 10.8 -20.15 L10.65 -20.5 10.55 -20.7 10.55 -20.8 10.5 -20.95 10.2 -21.25 Q10.05 -21.3 9.9 -21.4 9.85 -21.4 9.8 -21.45 9.75 -21.5 9.8 -21.55 L9.95 -21.8 9.95 -21.85 Q9.6 -22.0 9.25 -22.05 L9.3 -22.15 Q9.45 -22.35 9.7 -22.3 L10.0 -22.3 M3.95 -26.75 L4.05 -26.7 4.15 -26.55 4.25 -26.35 4.2 -26.25 4.15 -26.2 4.0 -26.15 3.3 -26.15 2.7 -26.3 2.55 -26.35 1.75 -26.35 1.55 -26.3 1.15 -26.25 Q1.1 -26.25 1.1 -26.3 L1.15 -26.4 1.15 -26.45 1.05 -26.5 0.85 -26.45 0.45 -26.05 0.2 -26.05 0.35 -26.3 0.65 -26.6 1.2 -26.9 1.55 -27.05 1.7 -27.1 2.3 -27.15 2.5 -27.1 2.6 -27.05 3.65 -27.0 3.95 -26.75 M2.15 -21.2 L1.95 -21.3 Q0.75 -21.65 -0.5 -21.85 L-3.15 -21.95 -3.3 -22.0 Q-3.35 -22.05 -3.45 -22.1 L-3.5 -22.15 -3.7 -22.15 Q-4.05 -22.0 -4.35 -22.05 -4.4 -22.05 -4.45 -22.2 -4.3 -22.55 -3.8 -22.65 -1.85 -23.15 0.15 -23.25 L1.65 -23.15 Q2.6 -23.0 3.5 -22.7 L3.6 -22.6 Q3.75 -22.45 3.9 -22.4 4.15 -22.25 4.3 -22.05 4.4 -21.95 4.55 -21.8 L4.85 -21.2 4.9 -21.05 4.9 -20.75 5.0 -20.65 5.05 -20.55 5.05 -19.8 4.85 -19.6 4.7 -19.5 4.45 -19.55 4.15 -19.85 3.9 -19.95 3.15 -20.7 Q2.95 -20.9 2.7 -21.05 L2.3 -21.1 2.15 -21.2 M1.15 -18.95 L1.2 -18.8 1.3 -18.7 1.45 -18.4 1.45 -17.75 1.4 -17.65 1.3 -17.55 1.15 -17.5 0.85 -17.5 0.65 -17.55 0.55 -17.8 0.4 -18.0 0.2 -18.35 0.0 -18.65 -0.1 -18.75 -0.35 -18.85 -0.65 -19.0 -0.75 -19.2 Q-0.9 -19.25 -1.05 -19.3 L-1.1 -19.4 -1.1 -19.55 -1.05 -19.6 -0.95 -19.6 Q-0.3 -19.7 0.25 -19.4 0.65 -19.2 1.05 -19.05 L1.15 -18.95 M0.9 -13.8 L1.0 -13.95 Q1.15 -14.05 1.3 -14.1 L1.45 -14.15 Q1.85 -14.0 2.1 -13.65 2.35 -13.4 2.5 -13.1 L2.55 -12.9 2.55 -12.7 Q2.5 -12.5 2.45 -12.35 L2.3 -12.25 2.15 -12.2 Q2.05 -12.2 1.95 -12.25 L1.8 -12.35 1.8 -12.45 1.75 -12.55 1.75 -12.8 1.55 -13.2 1.3 -13.4 Q1.1 -13.55 0.95 -13.7 L0.9 -13.8 M4.2 -13.9 L4.55 -14.25 4.7 -14.3 5.25 -14.5 5.3 -14.5 5.45 -14.55 6.45 -14.55 6.6 -14.5 6.85 -14.3 Q7.15 -14.05 7.3 -13.75 L7.5 -13.3 Q8.5 -12.45 9.85 -12.2 10.4 -12.1 10.8 -11.65 L10.85 -11.55 11.0 -11.2 11.2 -10.8 11.15 -10.7 11.15 -10.35 Q11.2 -10.3 11.2 -10.25 L11.3 -10.15 11.3 -9.8 Q11.25 -9.5 11.25 -9.2 L11.25 -8.55 11.2 -8.45 11.15 -8.3 11.1 -8.2 11.1 -7.7 11.05 -7.6 11.0 -7.45 10.95 -7.35 10.95 -7.15 10.9 -6.8 Q10.8 -6.45 10.55 -6.15 L10.25 -5.75 10.15 -5.65 9.75 -5.4 9.7 -5.35 Q8.45 -4.95 7.2 -5.15 L7.1 -5.2 7.1 -5.55 7.3 -5.95 7.55 -6.4 7.55 -6.6 7.65 -6.7 7.75 -6.9 7.8 -7.05 7.8 -7.35 7.85 -7.45 7.9 -7.6 7.95 -7.7 7.95 -8.75 7.9 -9.5 7.85 -9.6 7.75 -9.7 7.75 -9.95 7.7 -10.05 7.55 -10.15 7.55 -10.25 7.45 -10.45 Q7.35 -10.65 7.3 -10.8 L7.25 -10.9 7.05 -11.1 6.95 -11.3 6.85 -11.45 6.7 -11.65 6.5 -11.85 6.45 -11.95 6.2 -12.0 5.9 -12.3 Q5.6 -12.5 5.25 -12.65 L4.35 -12.85 4.2 -12.95 4.1 -13.05 4.1 -13.2 4.05 -13.3 4.05 -13.8 4.2 -13.9 M11.0 -17.0 L11.3 -17.05 Q11.95 -16.95 12.4 -16.5 12.75 -16.15 13.0 -15.8 13.05 -15.65 13.05 -15.45 L13.05 -14.7 12.95 -14.5 12.95 -14.45 12.85 -14.4 12.7 -14.4 12.5 -14.45 12.1 -14.85 12.0 -15.05 11.9 -15.2 11.8 -15.4 11.8 -15.5 11.65 -15.7 11.45 -15.95 Q11.3 -16.05 11.2 -16.25 L11.15 -16.35 11.15 -16.45 11.05 -16.55 10.65 -16.55 10.6 -16.7 10.6 -16.8 10.75 -16.95 11.0 -17.0 M8.45 -16.5 L8.55 -16.5 8.55 -16.55 9.0 -16.55 9.3 -16.35 9.45 -16.05 9.45 -15.95 9.4 -15.8 9.4 -15.7 9.15 -15.45 9.0 -15.4 8.7 -15.4 8.55 -15.45 8.3 -15.45 8.15 -15.4 7.85 -15.4 7.65 -15.45 7.45 -15.55 7.4 -15.7 7.4 -15.75 7.3 -15.8 Q7.2 -15.8 7.1 -15.9 L7.0 -15.95 Q7.0 -16.05 7.05 -16.1 L7.95 -16.25 8.0 -16.3 8.3 -16.45 8.45 -16.5 M11.7 -26.0 L11.8 -26.1 11.95 -26.2 12.3 -26.2 12.5 -26.15 12.65 -25.9 Q12.75 -25.7 12.75 -25.5 L12.75 -25.4 12.65 -25.3 Q12.65 -25.25 12.55 -25.25 L12.45 -25.2 Q12.15 -25.25 11.9 -25.4 11.65 -25.55 11.65 -25.8 L11.65 -25.9 11.7 -26.0 M13.55 -22.55 L13.55 -22.65 13.7 -22.75 13.8 -22.85 14.0 -22.9 14.0 -22.95 14.15 -22.85 14.2 -22.75 Q14.3 -22.55 14.2 -22.3 L14.05 -21.9 14.05 -21.7 14.0 -21.55 13.8 -21.35 13.6 -21.35 13.4 -21.55 13.4 -22.2 13.45 -22.3 13.55 -22.45 13.55 -22.55 M16.3 -18.95 L16.05 -19.15 16.05 -19.25 Q16.1 -19.3 16.15 -19.3 L16.25 -19.3 16.55 -19.15 Q17.3 -19.2 18.0 -19.5 L19.0 -19.85 19.65 -19.8 19.85 -19.7 20.0 -19.6 20.1 -19.4 20.2 -19.3 20.2 -19.05 20.15 -18.85 20.15 -18.75 20.0 -18.7 19.8 -18.75 16.35 -18.85 16.3 -18.95 M15.65 -17.6 L15.95 -17.3 16.0 -17.2 16.0 -17.1 15.95 -16.85 15.9 -16.8 15.75 -16.8 Q15.45 -16.85 15.2 -17.0 L15.0 -17.2 Q14.55 -17.45 14.05 -17.55 14.0 -17.55 13.95 -17.6 L13.95 -17.7 14.0 -17.8 14.15 -17.9 15.0 -18.0 15.15 -18.0 15.3 -17.95 15.65 -17.6 M19.0 -19.45 L18.9 -19.4 Q19.2 -19.35 19.6 -19.4 L19.55 -19.45 19.0 -19.45 M15.8 -6.55 L16.0 -6.35 16.0 -6.15 15.95 -5.95 15.9 -5.8 Q15.8 -5.6 15.6 -5.5 L15.3 -5.3 14.7 -5.0 14.2 -5.1 14.05 -5.2 14.15 -5.4 14.3 -5.45 14.6 -5.65 14.85 -5.85 15.35 -6.4 Q15.55 -6.6 15.8 -6.55 M15.95 -1.6 Q15.9 -1.65 15.9 -1.7 L15.95 -1.85 16.0 -1.95 Q16.55 -1.95 17.15 -1.95 L17.3 -1.9 17.3 -1.85 Q17.75 -1.9 18.1 -2.05 L18.2 -2.15 18.8 -2.45 19.0 -2.5 Q19.1 -2.45 19.15 -2.4 L19.25 -2.2 Q19.2 -1.9 18.95 -1.7 L18.6 -1.35 17.55 -1.0 17.3 -1.0 Q16.5 -1.1 16.0 -1.55 L15.95 -1.6 M6.25 -7.15 L6.4 -6.85 6.45 -6.7 6.45 -5.75 Q6.45 -5.6 6.35 -5.4 6.25 -5.15 6.0 -4.9 L5.85 -4.8 5.0 -4.75 Q4.5 -5.05 3.85 -5.05 L3.65 -5.1 3.55 -5.15 3.2 -5.1 3.2 -5.15 Q3.15 -5.2 3.15 -5.25 3.2 -5.35 3.25 -5.45 3.35 -5.6 3.4 -5.8 L3.7 -6.15 Q3.9 -6.4 4.15 -6.6 L4.4 -6.75 Q4.65 -6.85 4.85 -7.05 L4.95 -7.2 5.15 -7.25 5.55 -7.45 5.85 -7.45 6.05 -7.35 6.2 -7.25 6.25 -7.15 M1.1 -8.45 L1.2 -8.45 1.3 -8.05 1.35 -7.95 1.45 -7.7 1.45 -7.3 1.4 -7.2 1.35 -7.05 1.35 -6.75 Q1.3 -6.55 1.2 -6.3 1.05 -6.15 1.05 -5.9 L0.85 -5.7 0.7 -5.45 Q0.45 -5.0 0.0 -4.6 -0.25 -4.45 -0.4 -4.2 L-0.45 -4.2 -0.7 -4.05 -1.05 -4.05 -1.25 -4.3 -1.3 -4.4 -1.3 -4.6 -0.55 -5.35 -0.25 -5.7 -0.2 -5.8 -0.2 -5.9 -0.05 -6.0 0.05 -6.1 0.1 -6.2 0.1 -6.3 0.2 -6.45 0.4 -6.65 0.4 -6.75 0.6 -6.95 0.7 -7.15 0.8 -7.4 0.8 -7.6 0.9 -7.7 0.95 -7.8 1.0 -8.25 Q1.0 -8.35 1.1 -8.45 M0.2 -3.2 L0.2 -3.3 0.25 -3.45 0.55 -3.6 0.85 -3.6 1.15 -3.45 1.2 -3.3 1.2 -2.55 1.15 -2.45 1.05 -2.35 1.05 -1.7 1.0 -1.5 0.8 -1.05 0.7 -0.85 0.55 -0.75 0.45 -0.65 0.25 -0.55 0.0 -0.45 -0.15 -0.5 Q-0.25 -0.5 -0.35 -0.55 L-0.55 -0.75 -0.65 -0.95 -0.6 -1.2 -0.6 -1.95 -0.55 -2.05 -0.45 -2.15 -0.45 -2.35 -0.3 -2.45 -0.2 -2.55 -0.15 -2.7 -0.05 -2.9 -0.05 -3.0 0.05 -3.1 0.2 -3.2 M2.8 5.1 Q2.9 5.05 3.0 5.0 L3.2 5.1 3.4 5.3 3.5 5.5 3.6 5.6 4.8 5.8 4.95 5.9 5.05 6.1 Q4.95 6.3 4.6 6.35 L4.15 6.45 4.0 6.6 3.85 6.65 Q3.4 6.6 3.05 6.35 L2.9 6.25 2.8 6.05 2.7 5.8 2.7 5.2 2.8 5.1 M-4.4 -27.75 L-4.3 -27.95 -4.2 -28.05 -4.1 -28.2 -3.85 -28.4 -3.4 -28.8 -3.3 -28.8 -2.8 -28.85 Q-2.65 -28.85 -2.55 -28.9 L-2.3 -28.85 -1.85 -28.8 -1.55 -28.8 -1.4 -28.85 -1.4 -28.75 -1.35 -28.65 -1.2 -28.4 -1.2 -28.3 -1.35 -28.15 -1.45 -28.1 -1.55 -28.1 -2.25 -28.0 -2.45 -27.9 Q-2.5 -27.85 -2.55 -27.85 -2.8 -27.8 -2.9 -27.55 L-3.0 -27.55 -3.3 -27.35 -3.7 -26.95 -4.15 -26.95 -4.35 -27.0 -4.45 -27.2 -4.45 -27.65 -4.4 -27.75 M-15.85 -20.65 L-15.55 -20.95 -15.4 -21.05 -15.25 -21.1 -14.95 -21.25 -14.7 -21.35 -14.45 -21.35 -13.9 -21.3 -13.8 -21.2 -13.35 -21.1 -13.15 -21.0 -12.85 -20.95 -12.7 -20.9 -12.4 -20.75 -12.4 -20.65 Q-12.4 -20.6 -12.45 -20.55 L-12.55 -20.45 Q-13.25 -20.25 -14.0 -20.35 L-14.4 -20.3 -14.65 -20.2 -15.05 -19.8 -15.35 -19.65 -15.55 -19.45 -15.7 -19.4 -15.85 -19.4 Q-16.0 -19.5 -16.15 -19.55 L-16.15 -20.1 -16.1 -20.2 -16.05 -20.35 Q-16.0 -20.45 -15.95 -20.55 L-15.85 -20.65 M-12.0 -17.7 Q-11.7 -17.75 -11.4 -17.6 -11.1 -17.5 -11.05 -17.2 L-11.1 -17.1 -11.15 -17.05 Q-11.2 -17.0 -11.3 -17.0 L-11.55 -17.0 -11.85 -16.95 -12.05 -17.05 -12.2 -17.15 -12.3 -17.35 -12.3 -17.45 -12.25 -17.55 Q-12.2 -17.7 -12.0 -17.7 M-14.75 -13.75 L-14.55 -13.85 -14.3 -13.7 -14.05 -13.5 Q-14.05 -13.4 -14.15 -13.3 L-14.4 -13.1 Q-14.6 -13.15 -14.75 -13.2 -14.85 -13.25 -14.9 -13.35 L-14.9 -13.55 -14.85 -13.7 -14.75 -13.75 M-5.25 -24.95 L-5.05 -24.8 -5.0 -24.7 -5.05 -24.6 -5.1 -24.45 -5.4 -24.3 -5.7 -24.35 -5.85 -24.45 -5.9 -24.6 -5.9 -24.8 -5.85 -24.9 -5.7 -25.0 -5.45 -25.05 -5.4 -25.05 Q-5.3 -25.05 -5.25 -24.95 M-9.85 -26.2 L-9.9 -26.1 -10.0 -25.95 -10.0 -24.8 -9.9 -24.7 -9.85 -24.55 -9.85 -24.25 -10.0 -23.95 -10.1 -23.85 Q-10.2 -23.8 -10.3 -23.75 L-10.4 -23.75 -10.65 -23.8 -10.8 -24.05 -10.9 -24.25 -10.9 -24.9 -11.05 -25.2 -11.0 -25.65 -11.0 -26.05 Q-10.95 -26.3 -10.8 -26.5 L-10.55 -26.8 Q-10.25 -27.1 -10.0 -27.4 -9.9 -27.6 -9.65 -27.55 -9.85 -27.35 -9.8 -27.1 L-9.7 -26.7 -9.8 -26.3 -9.85 -26.2 M-6.7 -20.5 L-6.55 -20.4 -6.25 -20.3 -6.05 -20.1 -5.65 -20.0 -5.6 -19.9 -5.4 -19.65 -5.3 -19.55 -5.35 -19.5 -5.65 -19.25 -5.7 -19.2 -5.85 -19.15 -6.05 -19.2 -6.15 -19.3 -6.2 -19.4 -6.3 -19.45 -6.45 -19.5 -6.95 -19.5 -7.1 -19.4 -7.2 -19.2 -7.25 -19.05 -7.4 -18.95 -7.55 -18.65 Q-7.6 -18.6 -7.65 -18.6 L-8.1 -18.6 Q-8.25 -18.65 -8.4 -18.75 L-8.4 -19.7 -8.35 -19.8 -8.2 -20.05 -8.0 -20.25 -7.85 -20.3 -7.55 -20.3 -7.4 -20.4 -7.3 -20.45 -7.15 -20.5 -6.7 -20.5 M-3.7 -16.4 Q-3.55 -16.3 -3.45 -16.15 L-3.3 -15.95 -3.35 -15.85 -3.55 -15.65 -4.05 -15.65 -4.35 -15.7 -4.45 -15.7 -4.55 -15.65 -4.85 -15.65 Q-5.1 -15.7 -5.4 -15.8 -5.45 -15.85 -5.5 -15.9 L-5.5 -16.0 -5.3 -16.2 -5.15 -16.2 Q-4.9 -16.25 -4.7 -16.35 L-4.4 -16.45 -3.85 -16.45 -3.7 -16.4 M-4.4 0.35 L-4.4 0.3 -4.25 0.4 -4.05 0.8 -4.05 1.35 -4.15 1.55 -4.2 1.7 -4.3 1.75 -4.45 1.75 -4.55 1.8 -4.75 1.7 -4.85 1.6 -4.85 1.3 -4.8 1.2 -4.8 0.75 -4.7 0.55 Q-4.65 0.3 -4.4 0.35 M-1.8 -0.45 L-1.8 -0.55 -1.65 -0.65 -1.45 -0.75 -1.3 -0.75 -1.05 -0.7 -0.95 -0.55 -0.85 -0.45 -0.8 -0.35 -0.95 -0.05 -1.15 0.05 -1.4 0.05 -1.65 0.0 -1.75 -0.2 -1.8 -0.45" fill="#8ae6e4" fill-opacity="0.6" fill-rule="evenodd" stroke="none"/>
    </g>
  </defs>
</svg>
