<?xml version="1.0" encoding="UTF-8" standalone="no"?>
<svg xmlns:ffdec="https://www.free-decompiler.com/flash" xmlns:xlink="http://www.w3.org/1999/xlink" ffdec:objectType="frame" height="412.55px" width="537.8px" xmlns="http://www.w3.org/2000/svg">
  <g transform="matrix(1.0, 0.0, 0.0, 1.0, 234.15, 488.4)">
    <clipPath id="clipPath0" transform="matrix(1.0, 0.0, 0.0, 1.0, 0.0, 0.0)">
      <path d="M161.05 -483.45 Q170.15 -485.6 193.5 -488.4 L226.8 -488.4 Q244.6 -486.55 255.2 -482.85 261.85 -480.5 273.05 -474.05 275.85 -472.4 278.1 -469.6 L281.25 -465.45 Q285.1 -464.15 289.1 -450.5 290.8 -444.75 291.7 -440.2 294.35 -432.4 296.6 -422.7 303.65 -392.35 303.65 -365.8 303.65 -356.65 302.7 -344.95 L300.65 -323.4 300.55 -321.5 300.55 -321.55 300.5 -321.05 Q299.65 -308.95 298.85 -302.4 298.1 -296.2 296.8 -290.95 295.1 -279.5 292.55 -270.9 291.25 -266.55 287.4 -258.5 L282.65 -248.4 Q278.75 -237.45 272.85 -226.6 265.35 -212.75 255.15 -200.05 L245.0 -187.05 Q238.5 -179.05 232.15 -173.4 226.2 -168.1 214.45 -160.55 209.05 -156.35 200.15 -151.85 L191.65 -146.8 Q177.65 -138.1 169.7 -133.6 155.65 -125.6 141.9 -120.4 130.4 -115.65 125.1 -113.85 121.1 -112.45 116.35 -111.35 107.1 -107.95 90.25 -104.3 68.1 -99.55 61.5 -99.55 L59.45 -99.75 52.5 -98.95 52.4 -98.95 51.9 -100.9 51.15 -103.4 50.0 -106.85 49.6 -108.25 Q45.55 -120.05 41.85 -131.8 L41.2 -132.25 Q40.9 -134.45 38.9 -136.95 L39.5 -136.85 39.75 -136.6 40.1 -136.85 40.3 -136.9 40.15 -136.95 40.3 -137.15 40.15 -137.2 Q40.0 -138.05 38.95 -139.25 L38.55 -139.75 37.2 -141.65 37.1 -141.8 Q37.3 -144.45 34.3 -147.4 L34.3 -147.85 Q34.3 -149.95 30.95 -152.95 27.45 -156.0 23.35 -155.5 25.3 -156.45 26.15 -156.45 L27.7 -156.25 29.4 -156.45 Q28.3 -161.0 21.2 -159.35 L18.1 -158.5 Q17.0 -159.55 14.3 -159.65 11.3 -159.7 10.1 -160.45 L12.85 -161.5 Q13.4 -161.85 13.4 -162.8 L13.15 -163.55 12.65 -163.8 7.3 -163.6 6.1 -164.45 Q4.7 -165.3 2.75 -165.3 1.25 -165.3 -1.05 -164.1 L-1.05 -164.3 Q-1.05 -167.85 -1.55 -169.5 L-4.2 -166.55 Q-5.95 -164.25 -8.7 -164.1 L-8.25 -164.4 -6.65 -166.1 Q-6.05 -166.75 -6.05 -167.35 -6.05 -168.4 -6.25 -168.0 L-9.65 -167.15 -14.2 -166.35 Q-17.55 -166.35 -20.25 -167.95 L-20.9 -169.2 -23.0 -173.55 -21.3 -173.6 Q-20.95 -173.65 -20.95 -174.35 -20.95 -176.35 -24.45 -178.9 L-26.55 -180.1 Q-26.75 -181.4 -28.4 -183.5 L-30.45 -185.5 -30.5 -185.5 -30.5 -185.55 Q-31.3 -186.1 -32.05 -186.35 L-32.2 -186.1 -33.75 -186.7 Q-33.95 -188.3 -34.1 -188.75 -34.55 -190.4 -32.4 -199.0 L-31.75 -201.35 -31.8 -202.55 -32.2 -211.05 -34.65 -220.15 Q-37.6 -231.3 -39.85 -238.0 -42.85 -246.8 -52.1 -260.25 L-53.7 -262.55 Q-55.3 -263.2 -55.55 -265.1 L-56.25 -265.7 -56.65 -265.95 Q-59.2 -267.25 -61.9 -269.25 L-66.75 -273.2 -70.4 -277.6 -71.5 -279.1 -71.5 -278.95 -71.95 -280.2 -72.45 -281.05 Q-72.05 -292.45 -65.15 -309.65 -59.75 -323.15 -51.0 -338.8 -43.15 -352.9 -29.95 -368.3 -17.35 -383.1 -1.0 -397.65 34.35 -429.2 84.75 -456.9 97.25 -463.8 112.85 -469.25 122.0 -472.45 138.0 -476.9 L161.05 -483.45 M285.6 -454.95 L285.25 -455.95 285.35 -455.45 285.6 -454.95" fill="#b6ffff" fill-opacity="0.5019608" fill-rule="evenodd" stroke="none"/>
    </clipPath>
    <g clip-path="url(#clipPath0)">
      <use ffdec:characterId="404" height="254.6" transform="matrix(1.0, 0.0, 0.0, 1.0, -31.0, -390.0)" width="217.25" xlink:href="#shape1"/>
      <use ffdec:characterId="386" height="191.35" transform="matrix(1.0, 0.0, 0.0, 1.0, -25.55, -343.4)" width="199.25" xlink:href="#shape2"/>
    </g>
    <use ffdec:characterId="402" height="113.9" transform="matrix(1.0, 0.0, 0.0, 1.0, -10.8, -272.4)" width="130.9" xlink:href="#shape3"/>
    <use ffdec:characterId="405" height="197.2" transform="matrix(1.0, 0.0, 0.0, 1.0, -170.4, -285.95)" width="346.65" xlink:href="#shape4"/>
  </g>
  <defs>
    <g id="shape1" transform="matrix(1.0, 0.0, 0.0, 1.0, 31.0, 390.0)">
      <path d="M184.5 -372.0 Q185.1 -373.05 185.2 -374.65 L185.25 -377.4 Q185.25 -380.5 184.45 -383.0 183.0 -387.45 179.5 -387.15 L177.1 -387.0 174.9 -387.0 173.1 -388.9 172.25 -389.0 172.0 -388.65 Q172.95 -387.55 173.75 -387.1 L174.0 -386.05 Q174.0 -381.15 162.05 -375.75 151.75 -371.1 146.05 -371.7 L146.0 -371.75 143.5 -372.65 142.15 -373.2 Q139.9 -374.2 139.9 -375.45 L140.05 -376.05 140.4 -376.5 139.55 -377.6 136.55 -377.9 Q130.25 -377.9 127.2 -372.55 126.2 -370.8 125.7 -368.8 L126.0 -366.65 125.9 -365.5 Q127.65 -358.85 128.0 -356.5 L128.25 -355.0 130.6 -354.5 Q135.2 -352.4 135.65 -352.3 139.3 -350.9 141.9 -347.1 L143.1 -345.05 Q144.75 -343.8 145.6 -342.3 L145.8 -341.8 Q147.0 -341.85 148.7 -340.3 L151.5 -337.05 Q153.75 -334.25 153.75 -330.5 L153.25 -327.1 152.35 -323.75 Q152.05 -322.55 149.85 -320.25 L150.6 -320.5 163.3 -328.2 Q167.15 -331.1 167.15 -335.4 167.15 -336.35 166.65 -337.5 166.4 -338.25 165.15 -339.5 L164.1 -341.85 Q163.4 -343.4 162.6 -344.15 L157.85 -344.4 157.05 -344.3 Q149.0 -345.6 146.1 -348.0 144.0 -349.75 144.0 -353.0 144.0 -355.9 145.4 -358.25 146.9 -360.8 150.4 -363.65 153.6 -366.2 157.15 -367.9 159.3 -369.0 161.9 -369.85 166.7 -371.5 170.5 -371.5 L174.65 -371.4 177.25 -370.45 177.4 -370.35 Q179.05 -369.45 180.6 -367.3 182.75 -369.05 184.5 -372.0 M186.25 -377.4 L186.2 -374.6 Q186.1 -372.75 185.4 -371.5 L185.35 -371.5 Q183.5 -368.4 181.25 -366.5 L180.75 -366.3 180.2 -366.35 179.8 -366.7 Q178.4 -368.65 176.95 -369.45 L176.85 -369.5 Q176.75 -369.55 176.75 -369.55 L174.5 -370.4 170.5 -370.5 Q166.85 -370.5 162.25 -368.9 L162.2 -368.9 Q159.7 -368.05 157.6 -367.0 154.15 -365.35 151.05 -362.85 147.7 -360.15 146.25 -357.75 145.0 -355.6 145.0 -353.0 145.0 -350.25 146.75 -348.75 149.5 -346.55 157.05 -345.3 L157.7 -345.4 157.95 -345.4 162.65 -345.15 Q163.0 -345.15 163.3 -344.85 164.2 -344.0 165.0 -342.25 L165.05 -342.25 166.0 -340.05 Q167.3 -338.75 167.6 -337.9 168.15 -336.55 168.15 -335.4 168.15 -330.6 163.9 -327.4 L163.8 -327.35 Q157.0 -323.3 151.15 -319.65 L150.9 -319.55 150.1 -319.3 149.45 -319.35 149.0 -319.75 148.85 -320.4 149.1 -320.95 Q151.05 -323.0 151.4 -324.0 L152.3 -327.35 152.75 -330.5 Q152.75 -333.9 150.75 -336.4 L150.7 -336.45 148.05 -339.55 Q146.7 -340.75 145.85 -340.8 L145.25 -340.95 144.9 -341.4 144.75 -341.8 Q143.95 -343.15 142.5 -344.25 L142.2 -344.6 141.1 -346.55 141.1 -346.5 Q138.7 -350.0 135.45 -351.3 134.95 -351.4 130.2 -353.6 L130.2 -353.55 Q129.1 -354.05 128.35 -354.0 127.9 -353.95 127.6 -354.2 L127.25 -354.85 127.0 -356.35 124.95 -365.25 124.95 -365.65 125.0 -366.65 124.7 -368.6 124.7 -369.05 Q125.25 -371.2 126.35 -373.05 129.65 -378.9 136.55 -378.9 L139.65 -378.6 140.05 -378.45 140.35 -378.2 141.1 -377.2 141.4 -376.55 141.25 -375.9 140.9 -375.5 140.9 -375.45 Q141.05 -374.8 142.55 -374.1 L143.85 -373.55 146.3 -372.7 146.35 -372.7 Q151.85 -372.25 161.65 -376.65 172.8 -381.7 173.0 -386.05 L173.2 -386.25 Q172.3 -386.75 171.25 -388.0 171.0 -388.3 171.0 -388.65 170.85 -389.2 171.65 -389.75 171.95 -390.05 172.4 -390.0 L173.25 -389.9 173.9 -389.55 175.25 -388.0 177.1 -388.0 178.95 -387.95 179.45 -388.15 Q183.7 -388.6 185.4 -383.3 186.25 -380.65 186.25 -377.4 M178.7 -369.65 L179.25 -369.2 178.0 -370.05 178.7 -369.65 M140.95 -364.25 Q146.15 -366.0 146.15 -362.3 146.15 -360.65 144.9 -359.0 143.05 -356.5 139.25 -356.5 137.15 -356.5 136.25 -357.75 135.8 -358.4 135.75 -359.1 135.75 -362.5 140.95 -364.25 M136.75 -359.15 L137.1 -358.3 137.05 -358.3 Q137.75 -357.5 139.25 -357.5 142.5 -357.5 144.1 -359.6 145.15 -360.95 145.15 -362.3 145.15 -363.35 144.5 -363.7 143.45 -364.05 141.3 -363.3 136.95 -361.85 136.75 -359.15 M95.15 -337.05 L93.75 -337.0 93.0 -338.0 Q90.7 -338.75 86.35 -336.85 82.05 -335.0 78.85 -332.0 L77.3 -330.15 76.35 -328.05 74.7 -326.05 Q73.25 -324.5 73.25 -324.15 L73.3 -323.65 Q73.15 -323.15 73.15 -322.55 73.15 -321.4 73.4 -320.7 L73.6 -320.3 Q73.7 -319.95 73.9 -319.75 L74.25 -319.05 Q74.25 -318.2 71.25 -314.35 L68.45 -310.85 Q66.3 -309.1 63.9 -308.1 L62.55 -308.3 57.8 -308.65 Q57.25 -308.85 57.25 -309.4 57.25 -310.15 57.6 -310.6 L57.8 -310.85 58.1 -311.15 57.6 -311.1 Q55.3 -310.9 51.2 -308.25 L48.45 -306.35 Q46.75 -305.45 44.75 -303.2 42.5 -300.65 42.5 -299.25 L42.55 -299.15 42.25 -298.5 41.6 -296.05 Q41.25 -294.3 41.25 -293.6 41.25 -291.8 41.45 -291.1 L42.6 -288.0 Q42.9 -287.25 43.45 -286.6 L44.35 -285.7 Q45.85 -285.75 47.9 -284.6 51.5 -282.6 52.6 -279.8 L53.05 -278.05 Q54.5 -274.8 54.5 -272.45 54.5 -271.25 53.9 -269.0 L52.9 -265.55 Q52.7 -264.75 52.1 -263.8 L51.1 -262.25 50.2 -261.4 50.15 -261.75 Q50.1 -262.35 49.5 -262.8 49.0 -263.25 47.6 -263.9 45.1 -264.45 43.0 -263.85 L41.0 -263.05 Q39.05 -262.4 36.35 -258.55 33.75 -254.85 33.75 -253.15 L33.85 -251.8 34.5 -251.35 35.0 -250.65 Q35.0 -249.6 33.4 -247.75 31.8 -246.0 30.05 -245.65 L28.75 -245.55 Q27.4 -245.55 25.55 -246.75 24.1 -247.75 23.65 -248.4 L23.6 -248.5 23.3 -249.1 Q22.9 -250.1 22.85 -251.4 22.9 -252.7 23.45 -253.45 L23.6 -253.4 23.9 -253.5 23.75 -254.4 23.35 -255.65 22.35 -257.4 17.4 -257.7 17.15 -257.95 16.8 -258.3 16.75 -258.4 16.5 -258.55 13.65 -258.35 13.6 -258.35 13.5 -258.35 9.9 -257.6 Q8.35 -256.6 7.0 -256.25 L1.25 -253.4 -2.95 -250.55 -5.6 -248.65 -7.45 -247.55 -7.65 -247.5 -10.1 -245.65 -10.15 -245.6 -10.4 -245.3 -11.8 -244.0 -13.95 -241.05 -14.2 -240.6 -14.25 -240.5 -14.95 -239.1 Q-17.15 -234.4 -17.15 -230.85 -17.15 -229.75 -16.95 -229.65 -16.2 -229.35 -15.15 -227.9 -14.35 -226.75 -13.9 -224.5 L-13.25 -221.2 -12.75 -217.75 -13.0 -214.4 Q-13.0 -213.75 -13.6 -212.35 L-14.25 -210.75 -14.9 -209.5 Q-15.2 -208.9 -16.7 -207.75 -18.2 -206.7 -18.5 -206.05 L-18.65 -205.35 -21.9 -201.7 Q-24.05 -199.0 -24.05 -195.8 -24.05 -194.0 -23.45 -192.35 L-22.95 -191.25 Q-22.55 -190.25 -22.0 -189.9 L-21.95 -189.9 -21.55 -189.25 -21.45 -189.15 -20.9 -188.8 -19.25 -188.15 -16.75 -185.8 -14.5 -182.85 Q-13.45 -181.2 -11.8 -180.5 L-7.25 -180.0 -6.4 -179.4 -5.4 -178.65 -5.15 -178.15 -5.25 -177.3 Q-5.7 -176.1 -7.25 -175.0 -9.9 -173.2 -14.25 -173.25 L-14.5 -173.0 -16.25 -173.0 -16.75 -173.2 -17.45 -173.8 -18.5 -175.05 Q-19.15 -175.8 -20.15 -176.2 L-21.55 -177.15 -23.0 -177.25 -24.45 -176.4 -24.9 -175.85 -25.0 -175.55 -24.9 -175.45 Q-26.8 -175.0 -28.4 -171.25 -30.0 -167.45 -30.0 -164.8 L-29.55 -161.05 Q-29.05 -158.8 -28.25 -157.3 -27.1 -155.35 -25.0 -153.55 -21.45 -150.4 -17.5 -150.4 L-16.7 -150.6 -16.4 -150.7 -11.75 -150.65 -11.1 -150.45 -10.5 -150.4 -9.45 -150.2 -8.5 -150.15 -6.4 -149.95 -4.5 -149.9 -3.3 -149.7 -2.25 -149.65 -1.0 -149.4 0.6 -149.2 2.0 -149.15 7.75 -147.0 Q11.1 -145.65 12.35 -144.3 L14.2 -142.95 16.35 -141.5 16.75 -141.0 18.4 -139.95 18.7 -139.75 18.5 -139.95 19.35 -139.2 Q21.55 -137.4 24.6 -136.65 L26.95 -136.5 29.75 -136.4 34.25 -137.05 34.4 -136.9 34.5 -137.0 Q42.95 -139.75 47.75 -143.15 L52.15 -146.55 Q55.35 -149.35 55.5 -150.85 56.85 -152.5 57.4 -154.05 L58.75 -155.65 Q60.3 -156.8 66.0 -157.65 L66.65 -157.4 67.15 -154.8 Q67.4 -153.0 67.85 -152.0 68.8 -149.8 69.65 -149.05 71.35 -147.5 75.4 -146.9 L80.25 -146.65 80.55 -146.65 80.7 -146.75 Q81.65 -147.3 82.55 -147.65 L81.8 -147.55 81.95 -147.7 84.0 -148.15 87.6 -148.5 88.25 -148.4 88.35 -148.35 88.5 -148.4 88.65 -148.15 88.9 -147.85 89.0 -147.75 89.9 -147.25 92.55 -147.0 Q99.6 -147.0 103.35 -150.25 105.3 -151.9 105.9 -153.75 107.75 -156.9 110.1 -159.2 L111.0 -159.5 113.05 -161.55 114.35 -162.95 Q121.85 -169.4 125.85 -179.05 129.5 -187.75 129.5 -196.7 129.5 -199.4 128.35 -201.35 126.5 -204.4 125.65 -206.65 125.7 -208.5 126.8 -211.45 127.9 -214.5 129.1 -215.8 130.6 -217.45 133.35 -219.45 L133.8 -219.75 Q135.35 -220.65 136.7 -221.15 L140.4 -221.55 140.5 -221.5 140.75 -220.9 141.5 -220.8 141.75 -221.0 142.25 -221.4 142.5 -221.4 143.7 -222.6 143.9 -222.75 Q144.6 -223.25 145.15 -224.25 L145.25 -224.35 145.75 -226.9 Q146.65 -231.85 146.65 -235.25 146.65 -242.6 143.8 -246.45 141.8 -256.45 131.1 -260.2 L131.0 -260.25 131.0 -260.05 Q127.55 -259.9 127.1 -259.25 L127.25 -258.0 Q127.25 -257.4 126.8 -256.75 126.2 -255.8 125.25 -256.25 125.45 -255.45 124.9 -254.85 124.3 -254.25 123.4 -254.25 118.4 -254.25 118.4 -256.65 118.4 -257.1 118.7 -257.45 L119.1 -257.25 119.25 -257.55 Q119.0 -257.95 118.5 -260.1 L118.0 -262.55 Q118.0 -266.95 121.05 -271.15 125.1 -276.85 132.75 -277.5 L135.6 -277.75 135.75 -277.5 Q137.85 -277.45 139.5 -276.7 140.9 -276.0 140.9 -275.5 L140.75 -274.8 140.4 -274.25 140.5 -274.0 141.1 -274.0 Q142.2 -275.05 143.1 -277.6 144.0 -280.2 144.0 -282.15 144.0 -287.8 142.5 -291.45 140.2 -297.05 134.25 -299.5 L132.25 -299.65 130.85 -298.0 Q129.7 -296.65 128.4 -296.5 L126.25 -297.75 Q123.9 -299.15 122.25 -299.15 121.15 -299.15 120.7 -298.8 L120.0 -298.5 Q119.25 -298.5 118.65 -299.6 118.15 -300.4 118.15 -300.75 118.0 -301.6 117.0 -302.3 L115.65 -303.25 Q114.6 -305.0 114.35 -306.05 L114.15 -308.5 114.2 -309.55 114.4 -310.0 114.35 -310.35 114.5 -310.75 Q113.95 -310.85 113.8 -310.0 L113.8 -309.8 113.35 -309.3 Q112.4 -308.25 110.9 -308.25 110.7 -308.25 110.45 -308.8 L110.3 -309.05 110.35 -308.75 110.3 -308.55 110.25 -308.7 109.95 -309.25 110.25 -309.15 110.0 -309.5 107.25 -309.55 Q106.6 -309.55 105.3 -308.8 101.55 -307.35 97.4 -302.9 91.15 -296.25 91.15 -292.4 L90.75 -286.85 90.8 -284.3 Q90.9 -282.85 91.5 -282.0 92.0 -282.5 92.85 -282.5 95.2 -282.5 97.85 -279.3 100.1 -276.65 100.25 -275.5 L100.85 -271.3 101.15 -267.2 Q101.15 -264.35 100.6 -261.5 100.25 -259.6 99.75 -258.65 L98.9 -257.1 Q98.5 -256.35 98.5 -255.6 97.1 -254.9 94.25 -254.9 93.0 -254.9 92.9 -256.15 92.8 -257.85 92.0 -258.5 88.3 -259.7 80.75 -254.95 73.55 -250.45 69.4 -244.9 68.3 -243.45 66.7 -240.35 65.2 -237.5 63.9 -235.9 60.75 -228.15 60.75 -226.75 L60.8 -226.3 60.85 -226.3 61.0 -226.35 61.8 -226.8 61.9 -226.9 63.15 -228.0 65.1 -228.0 Q67.75 -228.0 68.75 -225.0 69.25 -223.5 69.25 -221.4 68.95 -218.45 67.85 -215.6 65.7 -209.9 61.75 -209.9 61.2 -209.9 60.7 -210.6 L60.1 -211.4 Q59.85 -211.0 59.0 -211.0 L58.1 -211.15 Q56.65 -209.85 56.0 -208.05 L55.0 -205.0 52.85 -199.75 51.35 -198.45 Q49.85 -197.15 48.75 -196.7 L48.7 -197.1 48.5 -197.25 46.8 -195.25 Q45.45 -193.85 44.75 -193.55 L43.25 -193.55 Q41.55 -195.55 41.3 -197.1 L41.5 -197.65 41.5 -197.75 Q41.5 -199.45 42.45 -200.9 L44.6 -204.5 Q45.5 -206.25 45.5 -210.9 L45.5 -211.35 45.4 -211.75 Q44.75 -214.2 43.6 -215.5 L42.6 -216.2 Q42.2 -216.4 41.95 -216.65 L41.3 -216.8 Q39.8 -217.15 38.85 -217.55 37.25 -219.65 37.25 -222.6 37.25 -224.6 38.05 -227.45 38.7 -230.0 39.75 -232.3 40.65 -234.5 43.65 -237.5 47.85 -241.65 52.0 -241.65 53.5 -241.65 54.2 -240.85 L54.65 -240.1 54.6 -239.15 54.5 -238.0 54.55 -237.55 54.75 -237.55 56.0 -239.65 Q56.8 -241.0 57.65 -241.4 L59.9 -242.35 60.6 -242.9 61.9 -245.0 63.55 -249.4 63.75 -253.05 63.5 -256.25 Q62.85 -257.9 62.2 -257.45 60.85 -256.5 60.25 -256.5 59.85 -256.5 59.9 -256.6 L60.0 -256.75 59.85 -256.8 60.0 -256.85 60.25 -257.3 60.0 -257.65 53.65 -258.05 Q53.9 -263.9 60.5 -266.3 L63.85 -270.6 Q65.35 -272.85 65.4 -274.5 65.75 -275.65 65.75 -277.2 65.75 -279.45 65.1 -282.15 L64.75 -282.15 64.75 -281.5 64.4 -281.5 64.4 -281.45 63.55 -281.55 63.5 -281.6 62.35 -281.5 Q60.25 -281.5 58.05 -282.2 55.95 -282.45 54.5 -283.4 53.05 -284.0 52.0 -285.4 51.0 -286.7 50.75 -287.65 L49.85 -289.35 Q49.55 -290.05 49.4 -290.9 49.5 -293.75 50.1 -294.85 L50.2 -295.0 50.4 -296.05 Q50.8 -296.7 53.85 -298.9 57.85 -301.75 64.5 -302.75 L65.25 -301.9 65.25 -301.75 65.6 -301.95 66.25 -303.55 66.4 -303.75 66.35 -303.95 Q67.2 -306.3 69.0 -308.8 70.8 -311.4 73.25 -313.7 L73.75 -313.75 73.95 -313.4 Q74.2 -313.25 75.0 -314.25 L76.6 -316.15 Q77.4 -317.4 77.5 -319.75 L75.0 -320.0 74.45 -320.55 Q74.25 -322.5 75.75 -324.55 L77.55 -326.6 78.15 -326.95 Q81.3 -328.55 87.75 -329.75 L89.5 -330.0 93.0 -330.25 Q97.75 -329.15 97.75 -327.7 L97.65 -327.05 97.6 -326.55 Q98.5 -327.2 99.1 -328.9 99.65 -330.35 99.65 -331.35 99.65 -335.65 96.5 -337.05 L95.15 -337.05 M93.85 -338.5 L94.25 -338.0 95.1 -338.05 96.6 -338.05 96.9 -337.95 Q100.65 -336.35 100.65 -331.35 100.65 -330.2 100.05 -328.55 99.3 -326.5 98.2 -325.75 L97.55 -325.55 Q97.2 -325.55 96.95 -325.8 L96.65 -326.35 Q96.5 -326.9 96.75 -327.4 L96.75 -327.7 Q96.55 -328.4 92.9 -329.25 L90.2 -329.3 89.55 -329.0 88.45 -329.05 Q88.25 -328.85 87.95 -328.75 81.65 -327.6 78.6 -326.05 L78.65 -326.05 78.2 -325.8 76.6 -323.95 Q75.45 -322.4 75.45 -320.95 78.05 -320.85 78.2 -320.45 L78.45 -320.1 78.5 -319.7 Q78.4 -317.0 77.45 -315.6 L77.4 -315.5 75.8 -313.6 Q74.25 -311.75 73.45 -312.5 71.4 -310.5 69.85 -308.2 L69.8 -308.2 Q68.2 -306.0 67.4 -303.9 L67.4 -303.65 67.25 -303.25 67.15 -303.1 67.15 -303.05 66.55 -301.6 66.1 -301.1 65.8 -300.9 65.1 -300.75 Q64.75 -300.8 64.5 -301.1 64.3 -301.35 64.25 -301.7 58.15 -300.7 54.45 -298.05 L54.45 -298.1 Q51.7 -296.15 51.3 -295.55 L51.2 -294.95 51.05 -294.5 51.0 -294.35 Q50.5 -293.4 50.4 -290.95 L50.8 -289.75 50.8 -289.7 51.55 -288.2 51.7 -287.95 Q51.95 -287.15 52.8 -286.0 53.7 -284.85 54.9 -284.35 L55.05 -284.25 Q56.35 -283.4 58.15 -283.2 L58.4 -283.15 Q60.4 -282.5 62.35 -282.5 L63.3 -282.6 63.7 -282.6 63.85 -282.55 64.05 -282.85 64.45 -283.1 64.5 -283.15 65.25 -283.15 65.35 -283.1 65.75 -282.9 66.1 -282.35 Q66.75 -279.55 66.75 -277.2 66.75 -275.6 66.4 -274.35 66.35 -272.55 64.7 -270.05 L61.3 -265.65 60.85 -265.35 Q55.4 -263.4 54.75 -258.85 L59.95 -258.65 60.5 -258.5 60.85 -258.2 61.45 -258.1 61.65 -258.25 Q62.6 -259.0 63.55 -258.1 L64.45 -256.6 64.5 -256.5 64.75 -253.05 64.55 -249.2 64.55 -249.15 Q64.3 -248.05 62.85 -244.6 L61.45 -242.3 60.25 -241.4 58.1 -240.5 Q57.45 -240.15 56.85 -239.15 L56.9 -239.15 55.55 -236.95 55.2 -236.65 54.75 -236.55 54.55 -236.55 Q54.15 -236.55 53.85 -236.85 53.5 -236.95 53.5 -238.0 L53.6 -239.25 53.65 -239.8 53.4 -240.25 Q52.9 -240.65 52.0 -240.65 48.2 -240.6 44.35 -236.8 41.55 -234.0 40.7 -231.9 L40.65 -231.85 Q39.65 -229.65 39.05 -227.2 L39.05 -227.15 Q38.25 -224.5 38.25 -222.6 38.25 -220.15 39.5 -218.4 L41.55 -217.75 42.2 -217.6 42.65 -217.4 43.1 -217.05 44.4 -216.1 Q45.65 -214.65 46.4 -212.0 L46.35 -212.05 46.5 -211.55 46.5 -211.35 46.5 -210.9 Q46.5 -205.9 45.5 -204.05 L43.3 -200.35 Q42.5 -199.15 42.5 -197.75 L42.5 -197.65 42.45 -197.25 42.35 -197.05 Q42.6 -195.95 43.75 -194.55 L44.5 -194.55 46.1 -195.95 47.7 -197.8 Q47.9 -198.15 48.3 -198.2 L49.05 -198.05 49.15 -198.0 50.7 -199.2 52.0 -200.3 54.1 -205.4 55.05 -208.3 55.05 -208.4 Q55.8 -210.45 57.45 -211.9 L58.1 -212.15 59.3 -212.0 59.65 -212.25 60.1 -212.4 Q60.5 -212.7 61.55 -211.15 L61.75 -210.9 Q65.05 -211.0 66.95 -215.95 67.95 -218.7 68.25 -221.5 68.25 -223.35 67.8 -224.65 67.05 -226.95 65.1 -227.0 L63.55 -227.0 62.45 -226.1 62.5 -226.1 62.35 -226.0 61.45 -225.45 61.3 -225.4 60.85 -225.3 60.8 -225.3 Q60.4 -225.3 60.1 -225.6 59.75 -225.7 59.75 -226.75 59.7 -228.2 63.0 -236.25 L63.15 -236.5 Q64.4 -238.05 65.85 -240.8 L65.8 -240.8 Q67.45 -244.0 68.6 -245.5 72.85 -251.2 80.25 -255.8 88.3 -260.9 92.3 -259.45 L92.65 -259.25 Q93.75 -258.45 93.9 -256.2 93.9 -255.9 94.25 -255.9 L97.6 -256.3 98.0 -257.55 98.05 -257.55 98.9 -259.1 99.65 -261.65 99.65 -261.7 Q100.15 -264.45 100.15 -267.2 L99.85 -271.15 99.25 -275.35 Q99.05 -276.35 97.1 -278.65 94.8 -281.4 92.85 -281.5 L92.2 -281.3 Q92.0 -281.1 91.7 -281.0 L91.15 -281.05 90.7 -281.4 Q89.95 -282.45 89.8 -284.2 L89.75 -286.85 89.75 -286.9 90.15 -292.4 90.15 -292.45 Q90.1 -296.6 96.7 -303.55 100.95 -308.15 104.8 -309.65 106.4 -310.6 107.25 -310.55 L110.05 -310.5 110.7 -310.2 111.1 -309.7 111.1 -309.6 111.15 -309.55 111.35 -309.3 111.35 -309.25 Q112.1 -309.4 112.6 -309.95 L112.85 -310.25 Q113.0 -311.0 113.35 -311.3 113.85 -311.9 114.7 -311.7 L115.2 -311.45 115.5 -310.9 115.4 -310.3 115.4 -310.0 115.2 -309.2 115.15 -308.5 115.35 -306.3 115.35 -306.25 Q115.55 -305.35 116.5 -303.75 L116.55 -303.7 117.55 -303.15 117.6 -303.1 Q118.95 -302.15 119.15 -300.9 L119.15 -300.75 119.5 -300.1 119.55 -300.05 Q119.8 -299.6 120.0 -299.5 L120.15 -299.6 120.1 -299.6 Q120.7 -300.15 122.25 -300.15 124.1 -300.2 126.75 -298.6 L126.85 -298.55 128.55 -297.55 Q129.35 -297.8 130.1 -298.65 L130.15 -298.65 131.5 -300.25 131.85 -300.55 132.35 -300.65 134.35 -300.5 134.65 -300.4 Q141.0 -297.8 143.45 -291.8 145.0 -288.05 145.0 -282.15 145.0 -280.05 144.05 -277.25 143.05 -274.45 141.8 -273.25 L141.1 -273.0 140.5 -273.0 139.95 -273.15 139.6 -273.6 139.5 -273.85 139.4 -274.3 139.55 -274.75 139.85 -275.25 139.9 -275.5 Q139.75 -275.45 139.05 -275.8 L139.1 -275.8 Q137.6 -276.45 135.75 -276.5 L135.25 -276.6 135.1 -276.7 133.6 -276.95 133.25 -276.65 132.85 -276.5 Q125.65 -275.9 121.9 -270.55 L121.85 -270.55 Q119.0 -266.65 119.0 -262.55 L119.5 -260.35 119.5 -260.3 120.1 -258.05 120.25 -257.55 Q120.3 -257.05 119.8 -256.55 L119.5 -256.3 Q120.05 -255.25 123.4 -255.25 123.85 -255.25 124.2 -255.5 L124.2 -255.55 124.3 -256.0 Q124.2 -256.4 124.4 -256.7 L124.95 -257.2 125.7 -257.15 125.95 -257.25 126.0 -257.3 126.25 -258.0 126.15 -259.05 Q126.05 -259.5 126.3 -259.8 126.7 -260.8 130.35 -261.0 L130.7 -261.2 131.35 -261.2 131.4 -261.15 Q142.55 -257.25 144.7 -246.85 147.65 -242.85 147.65 -235.25 147.65 -231.8 146.75 -226.7 L146.2 -224.15 146.1 -223.8 146.05 -223.75 Q145.35 -222.55 144.5 -221.9 L144.4 -221.85 144.3 -221.8 143.2 -220.7 142.85 -220.45 142.65 -220.4 142.4 -220.2 142.35 -220.2 142.15 -220.0 141.8 -219.8 141.4 -219.8 140.65 -219.9 Q140.35 -219.95 140.15 -220.1 L139.85 -220.5 139.85 -220.55 137.0 -220.2 Q135.7 -219.7 134.3 -218.85 L134.35 -218.9 133.95 -218.65 133.9 -218.6 Q131.25 -216.7 129.85 -215.1 128.75 -213.9 127.75 -211.1 126.75 -208.5 126.65 -206.8 127.5 -204.7 129.2 -201.85 130.5 -199.7 130.5 -196.7 130.5 -187.55 126.8 -178.65 122.7 -168.9 115.15 -162.3 L113.75 -160.85 113.75 -160.8 111.8 -158.85 111.3 -158.55 110.6 -158.3 Q108.5 -156.2 106.85 -153.35 106.15 -151.3 104.0 -149.45 L104.0 -149.5 Q100.05 -146.0 92.55 -146.0 L89.4 -146.4 89.35 -146.4 88.75 -146.75 88.3 -147.05 88.2 -147.15 88.15 -147.15 87.95 -147.45 87.9 -147.5 87.7 -147.5 87.6 -147.5 87.5 -147.5 84.3 -147.2 84.15 -147.15 83.35 -147.0 82.95 -146.7 Q82.1 -146.4 81.2 -145.85 L81.05 -145.75 80.55 -145.65 80.25 -145.65 Q76.25 -145.65 75.0 -146.2 L75.25 -145.9 Q70.8 -146.55 69.0 -148.3 68.0 -149.1 66.95 -151.6 66.45 -152.7 66.15 -154.65 L65.85 -156.6 Q60.95 -155.85 59.5 -154.9 L58.3 -153.5 Q57.7 -152.0 56.5 -150.5 56.15 -148.75 52.8 -145.8 L48.35 -142.35 48.35 -142.3 Q43.55 -138.9 35.15 -136.15 34.85 -135.8 34.45 -135.85 L34.0 -135.95 29.75 -135.4 26.9 -135.5 24.2 -135.75 24.35 -135.65 Q21.1 -136.5 18.75 -138.4 L18.7 -138.4 18.25 -138.85 18.1 -138.9 17.8 -139.15 16.3 -140.1 15.95 -140.4 15.6 -140.8 13.7 -142.05 13.7 -142.1 11.65 -143.6 Q10.45 -144.85 7.4 -146.05 L1.8 -148.15 0.55 -148.2 -1.2 -148.4 -2.3 -148.65 -3.35 -148.7 -3.4 -148.7 -4.7 -148.9 -6.45 -148.95 -8.55 -149.15 -9.5 -149.2 -9.55 -149.2 -10.75 -149.4 -11.15 -149.45 -11.25 -149.45 -12.05 -149.65 -16.2 -149.7 -16.25 -149.7 -17.5 -149.4 Q-21.8 -149.4 -25.65 -152.8 -27.9 -154.7 -29.1 -156.8 -30.0 -158.4 -30.5 -160.8 L-30.5 -160.85 Q-31.0 -163.05 -31.0 -164.8 -31.0 -167.6 -29.3 -171.65 -27.75 -175.3 -25.85 -176.15 L-25.75 -176.35 -25.1 -177.15 Q-24.4 -177.75 -23.35 -178.15 L-22.9 -178.25 -21.45 -178.15 Q-21.05 -178.15 -20.8 -177.8 L-19.75 -177.1 -19.7 -177.1 Q-18.55 -176.6 -17.75 -175.7 L-17.7 -175.65 -16.7 -174.45 -16.2 -174.0 -16.25 -174.0 -14.9 -174.0 -14.25 -174.25 Q-10.25 -174.2 -7.8 -175.8 -6.55 -176.7 -6.2 -177.65 L-6.2 -177.6 -6.15 -177.95 -6.95 -178.55 -7.0 -178.6 -7.8 -179.15 -7.95 -179.3 -11.85 -179.5 -12.2 -179.55 Q-14.15 -180.4 -15.35 -182.3 L-15.3 -182.3 -17.4 -185.05 -17.45 -185.1 -19.7 -187.25 -21.2 -187.85 -21.3 -187.85 -22.1 -188.35 -22.15 -188.4 -22.25 -188.5 -22.3 -188.55 -22.75 -189.2 Q-23.4 -189.7 -23.85 -190.8 L-23.85 -190.85 -23.9 -190.9 -24.4 -192.0 Q-25.05 -193.8 -25.05 -195.8 -25.05 -199.3 -22.7 -202.3 L-22.65 -202.3 -19.6 -205.85 -19.4 -206.5 -19.4 -206.45 Q-19.1 -207.3 -17.25 -208.55 -16.05 -209.5 -15.8 -209.95 L-15.75 -209.95 -15.15 -211.2 -14.5 -212.75 -14.0 -214.4 -13.75 -217.8 -14.2 -221.0 -14.85 -224.3 Q-15.3 -226.3 -15.95 -227.3 L-17.3 -228.7 -17.4 -228.75 Q-18.15 -228.85 -18.15 -230.85 -18.15 -234.6 -15.85 -239.5 L-15.15 -240.9 -15.1 -240.95 -15.05 -241.05 -14.8 -241.55 Q-13.75 -243.4 -12.55 -244.7 L-11.15 -246.0 -10.95 -246.2 -10.9 -246.25 -10.85 -246.3 -10.85 -246.35 -10.55 -246.55 -8.05 -248.4 -7.9 -248.45 -7.85 -248.5 -7.9 -248.45 -7.7 -248.55 -6.15 -249.5 -6.15 -249.45 -3.55 -251.35 Q-0.45 -253.7 0.8 -254.25 L0.85 -254.3 6.75 -257.2 Q7.95 -257.55 9.35 -258.45 L9.5 -258.5 13.4 -259.35 13.6 -259.35 13.65 -259.35 16.5 -259.55 16.95 -259.45 17.35 -259.2 17.45 -259.1 17.5 -259.0 17.55 -259.0 17.9 -258.65 22.4 -258.4 22.85 -258.25 23.2 -257.95 24.25 -256.05 24.25 -256.0 24.75 -254.65 24.75 -254.6 24.9 -253.6 24.85 -253.15 24.6 -252.8 24.05 -252.45 23.85 -251.45 23.85 -251.35 Q23.9 -250.3 24.25 -249.5 L24.5 -249.0 24.45 -249.0 24.5 -248.95 Q24.9 -248.4 26.1 -247.55 L26.1 -247.6 Q27.65 -246.6 28.75 -246.55 L29.9 -246.65 29.85 -246.6 Q31.3 -246.95 32.65 -248.4 33.9 -249.85 34.0 -250.65 L33.85 -250.6 33.6 -250.8 33.15 -251.1 32.9 -251.55 Q32.75 -252.1 32.75 -253.15 32.65 -255.05 35.55 -259.1 38.5 -263.35 40.7 -264.0 L42.65 -264.75 42.75 -264.8 Q45.05 -265.5 47.85 -264.85 L48.05 -264.8 50.2 -263.55 50.1 -263.6 50.55 -263.2 51.25 -264.35 51.25 -264.3 51.95 -265.8 51.95 -265.85 52.95 -269.25 Q53.5 -271.35 53.5 -272.45 53.5 -274.65 52.15 -277.65 L52.05 -277.95 51.7 -279.45 Q50.65 -281.95 47.45 -283.7 45.65 -284.7 44.4 -284.7 L43.95 -284.75 43.6 -285.0 42.8 -285.85 42.7 -285.95 Q42.05 -286.75 41.7 -287.6 L41.65 -287.65 40.55 -290.7 40.5 -290.8 Q40.25 -291.6 40.25 -293.6 L40.65 -296.25 41.3 -298.8 41.35 -298.85 41.5 -299.3 Q41.45 -300.95 44.0 -303.85 46.05 -306.2 47.85 -307.15 L50.65 -309.1 50.7 -309.1 Q55.05 -311.9 57.5 -312.1 L58.1 -312.15 58.8 -311.85 59.1 -311.1 58.75 -310.4 58.55 -310.2 58.6 -310.2 58.45 -310.05 58.4 -309.95 58.3 -309.6 62.7 -309.3 63.7 -309.15 Q63.85 -309.4 64.1 -309.5 L64.15 -309.55 64.6 -309.65 64.8 -309.65 67.7 -311.55 70.5 -314.95 70.45 -314.95 Q73.1 -318.4 73.25 -319.05 L73.1 -319.15 73.15 -319.05 72.7 -319.8 72.5 -320.3 72.45 -320.35 Q72.15 -321.2 72.15 -322.55 72.15 -323.15 72.3 -323.65 L72.25 -324.15 Q72.1 -324.7 73.95 -326.7 L74.0 -326.7 75.45 -328.45 76.45 -330.65 Q77.05 -331.75 78.2 -332.75 L78.2 -332.7 Q81.5 -335.85 85.95 -337.75 90.75 -339.85 93.3 -338.95 L93.85 -338.5 M111.15 -309.1 L111.2 -308.95 111.2 -309.05 111.15 -309.1 M138.75 -314.0 L141.1 -314.65 143.9 -315.5 145.75 -316.75 Q146.55 -317.55 146.5 -318.25 L145.5 -317.55 143.5 -317.65 Q134.8 -314.25 131.35 -309.65 L131.75 -309.55 Q135.5 -312.75 138.75 -314.0 M139.2 -313.1 L139.1 -313.05 Q136.0 -311.85 132.4 -308.8 L132.0 -308.55 131.5 -308.55 131.1 -308.65 Q130.8 -308.75 130.6 -309.0 L130.35 -309.6 130.55 -310.25 Q134.1 -315.05 143.15 -318.55 L143.9 -318.55 145.05 -318.4 145.1 -318.45 145.85 -319.0 146.5 -319.25 147.2 -318.95 147.5 -318.3 Q147.65 -317.25 146.5 -316.05 L146.45 -316.05 Q145.55 -315.1 144.3 -314.55 L141.35 -313.65 139.2 -313.1 M129.5 -307.65 Q129.5 -308.25 129.35 -307.9 128.5 -307.75 127.9 -306.75 L127.1 -305.15 129.5 -307.65 M130.5 -307.65 L130.25 -307.0 Q127.95 -304.3 127.45 -304.2 L126.9 -304.15 Q126.55 -304.25 126.35 -304.45 L126.1 -305.0 126.2 -305.55 127.1 -307.3 127.05 -307.25 Q127.75 -308.45 128.8 -308.75 129.15 -309.15 129.5 -309.0 L130.35 -308.5 130.5 -307.65 M48.85 -305.25 L48.95 -305.35 49.1 -305.25 48.85 -305.25 M60.15 -306.55 L60.65 -306.5 60.6 -306.5 60.15 -306.55 M63.8 -282.45 L63.75 -282.25 63.8 -282.3 63.9 -282.4 63.8 -282.45 M49.4 -289.2 L49.35 -289.2 49.35 -289.35 49.4 -289.2 M-20.75 -201.85 L-20.85 -201.75 -20.75 -201.9 -20.75 -201.85 M88.45 -148.5 L87.6 -148.5 88.4 -148.55 88.45 -148.5 M61.55 -227.25 L61.5 -227.25 61.4 -227.5 61.55 -227.25 M23.0 -248.4 L23.0 -249.0 23.25 -248.35 23.0 -248.4" fill="#b6ffff" fill-opacity="0.9019608" fill-rule="evenodd" stroke="none"/>
      <path d="M185.25 -377.4 L185.2 -374.65 Q185.1 -373.05 184.5 -372.0 182.75 -369.05 180.6 -367.3 179.05 -369.45 177.4 -370.35 L177.25 -370.45 174.65 -371.4 170.5 -371.5 Q166.7 -371.5 161.9 -369.85 159.3 -369.0 157.15 -367.9 153.6 -366.2 150.4 -363.65 146.9 -360.8 145.4 -358.25 144.0 -355.9 144.0 -353.0 144.0 -349.75 146.1 -348.0 149.0 -345.6 157.05 -344.3 L157.85 -344.4 162.6 -344.15 Q163.4 -343.4 164.1 -341.85 L165.15 -339.5 Q166.4 -338.25 166.65 -337.5 167.15 -336.35 167.15 -335.4 167.15 -331.1 163.3 -328.2 L150.6 -320.5 149.85 -320.25 Q152.05 -322.55 152.35 -323.75 L153.25 -327.1 153.75 -330.5 Q153.75 -334.25 151.5 -337.05 L148.7 -340.3 Q147.0 -341.85 145.8 -341.8 L145.6 -342.3 Q144.75 -343.8 143.1 -345.05 L141.9 -347.1 Q139.3 -350.9 135.65 -352.3 135.2 -352.4 130.6 -354.5 L128.25 -355.0 128.0 -356.5 Q127.65 -358.85 125.9 -365.5 L126.0 -366.65 125.7 -368.8 Q126.2 -370.8 127.2 -372.55 130.25 -377.9 136.55 -377.9 L139.55 -377.6 140.4 -376.5 140.05 -376.05 139.9 -375.45 Q139.9 -374.2 142.15 -373.2 L143.5 -372.65 146.0 -371.75 146.05 -371.7 Q151.75 -371.1 162.05 -375.75 174.0 -381.15 174.0 -386.05 L173.75 -387.1 Q172.95 -387.55 172.0 -388.65 L172.25 -389.0 173.1 -388.9 174.9 -387.0 177.1 -387.0 179.5 -387.15 Q183.0 -387.45 184.45 -383.0 185.25 -380.5 185.25 -377.4 M178.0 -370.05 L179.25 -369.2 178.7 -369.65 178.0 -370.05 M140.95 -364.25 Q135.75 -362.5 135.75 -359.1 135.8 -358.4 136.25 -357.75 137.15 -356.5 139.25 -356.5 143.05 -356.5 144.9 -359.0 146.15 -360.65 146.15 -362.3 146.15 -366.0 140.95 -364.25 M96.5 -337.05 Q99.65 -335.65 99.65 -331.35 99.65 -330.35 99.1 -328.9 98.5 -327.2 97.6 -326.55 L97.65 -327.05 97.75 -327.7 Q97.75 -329.15 93.0 -330.25 L89.5 -330.0 87.75 -329.75 Q81.3 -328.55 78.15 -326.95 L77.55 -326.6 75.75 -324.55 Q74.25 -322.5 74.45 -320.55 L75.0 -320.0 77.5 -319.75 Q77.4 -317.4 76.6 -316.15 L75.0 -314.25 Q74.2 -313.25 73.95 -313.4 L73.75 -313.75 73.25 -313.7 Q70.8 -311.4 69.0 -308.8 67.2 -306.3 66.35 -303.95 L66.4 -303.75 66.25 -303.55 65.6 -301.95 65.25 -301.75 65.25 -301.9 64.5 -302.75 Q57.85 -301.75 53.85 -298.9 50.8 -296.7 50.4 -296.05 L50.2 -295.0 50.1 -294.85 Q49.5 -293.75 49.4 -290.9 49.55 -290.05 49.85 -289.35 L50.75 -287.65 Q51.0 -286.7 52.0 -285.4 53.05 -284.0 54.5 -283.4 55.95 -282.45 58.05 -282.2 60.25 -281.5 62.35 -281.5 L63.5 -281.6 63.55 -281.55 64.4 -281.45 64.4 -281.5 64.75 -281.5 64.75 -282.15 65.1 -282.15 Q65.75 -279.45 65.75 -277.2 65.75 -275.65 65.4 -274.5 65.35 -272.85 63.85 -270.6 L60.5 -266.3 Q53.9 -263.9 53.65 -258.05 L60.0 -257.65 60.25 -257.3 60.0 -256.85 59.85 -256.8 60.0 -256.75 59.9 -256.6 Q59.85 -256.5 60.25 -256.5 60.85 -256.5 62.2 -257.45 62.85 -257.9 63.5 -256.25 L63.75 -253.05 63.55 -249.4 61.9 -245.0 60.6 -242.9 59.9 -242.35 57.65 -241.4 Q56.8 -241.0 56.0 -239.65 L54.75 -237.55 54.55 -237.55 54.5 -238.0 54.6 -239.15 54.65 -240.1 54.2 -240.85 Q53.5 -241.65 52.0 -241.65 47.85 -241.65 43.65 -237.5 40.65 -234.5 39.75 -232.3 38.7 -230.0 38.05 -227.45 37.25 -224.6 37.25 -222.6 37.25 -219.65 38.85 -217.55 39.8 -217.15 41.3 -216.8 L41.95 -216.65 Q42.2 -216.4 42.6 -216.2 L43.6 -215.5 Q44.75 -214.2 45.4 -211.75 L45.5 -211.35 45.5 -210.9 Q45.5 -206.25 44.6 -204.5 L42.45 -200.9 Q41.5 -199.45 41.5 -197.75 L41.5 -197.65 41.3 -197.1 Q41.55 -195.55 43.25 -193.55 L44.75 -193.55 Q45.45 -193.85 46.8 -195.25 L48.5 -197.25 48.7 -197.1 48.75 -196.7 Q49.85 -197.15 51.35 -198.45 L52.85 -199.75 55.0 -205.0 56.0 -208.05 Q56.65 -209.85 58.1 -211.15 L59.0 -211.0 Q59.85 -211.0 60.1 -211.4 L60.7 -210.6 Q61.2 -209.9 61.75 -209.9 65.7 -209.9 67.85 -215.6 68.95 -218.45 69.25 -221.4 69.25 -223.5 68.75 -225.0 67.75 -228.0 65.1 -228.0 L63.15 -228.0 61.9 -226.9 61.8 -226.8 61.0 -226.35 60.85 -226.3 60.8 -226.3 60.75 -226.75 Q60.75 -228.15 63.9 -235.9 65.2 -237.5 66.7 -240.35 68.3 -243.45 69.4 -244.9 73.55 -250.45 80.75 -254.95 88.3 -259.7 92.0 -258.5 92.8 -257.85 92.9 -256.15 93.0 -254.9 94.25 -254.9 97.1 -254.9 98.5 -255.6 98.5 -256.35 98.9 -257.1 L99.75 -258.65 Q100.25 -259.6 100.6 -261.5 101.15 -264.35 101.15 -267.2 L100.85 -271.3 100.25 -275.5 Q100.1 -276.65 97.85 -279.3 95.2 -282.5 92.85 -282.5 92.0 -282.5 91.5 -282.0 90.9 -282.85 90.8 -284.3 L90.75 -286.85 91.15 -292.4 Q91.15 -296.25 97.4 -302.9 101.55 -307.35 105.3 -308.8 106.6 -309.55 107.25 -309.55 L110.0 -309.5 110.25 -309.15 109.95 -309.25 110.25 -308.7 110.3 -308.55 110.35 -308.75 110.3 -309.05 110.45 -308.8 Q110.7 -308.25 110.9 -308.25 112.4 -308.25 113.35 -309.3 L113.8 -309.8 113.8 -310.0 Q113.95 -310.85 114.5 -310.75 L114.35 -310.35 114.4 -310.0 114.2 -309.55 114.15 -308.5 114.35 -306.05 Q114.6 -305.0 115.65 -303.25 L117.0 -302.3 Q118.0 -301.6 118.15 -300.75 118.15 -300.4 118.65 -299.6 119.25 -298.5 120.0 -298.5 L120.7 -298.8 Q121.15 -299.15 122.25 -299.15 123.9 -299.15 126.25 -297.75 L128.4 -296.5 Q129.7 -296.65 130.85 -298.0 L132.25 -299.65 134.25 -299.5 Q140.2 -297.05 142.5 -291.45 144.0 -287.8 144.0 -282.15 144.0 -280.2 143.1 -277.6 142.2 -275.05 141.1 -274.0 L140.5 -274.0 140.4 -274.25 140.75 -274.8 140.9 -275.5 Q140.9 -276.0 139.5 -276.7 137.85 -277.45 135.75 -277.5 L135.6 -277.75 132.75 -277.5 Q125.1 -276.85 121.05 -271.15 118.0 -266.95 118.0 -262.55 L118.5 -260.1 Q119.0 -257.95 119.25 -257.55 L119.1 -257.25 118.7 -257.45 Q118.4 -257.1 118.4 -256.65 118.4 -254.25 123.4 -254.25 124.3 -254.25 124.9 -254.85 125.45 -255.45 125.25 -256.25 126.2 -255.8 126.8 -256.75 127.25 -257.4 127.25 -258.0 L127.1 -259.25 Q127.55 -259.9 131.0 -260.05 L131.0 -260.25 131.1 -260.2 Q141.8 -256.45 143.8 -246.45 146.65 -242.6 146.65 -235.25 146.65 -231.85 145.75 -226.9 L145.25 -224.35 145.15 -224.25 Q144.6 -223.25 143.9 -222.75 L143.7 -222.6 142.5 -221.4 142.25 -221.4 141.75 -221.0 141.5 -220.8 140.75 -220.9 140.5 -221.5 140.4 -221.55 136.7 -221.15 Q135.35 -220.65 133.8 -219.75 L133.35 -219.45 Q130.6 -217.45 129.1 -215.8 127.9 -214.5 126.8 -211.45 125.7 -208.5 125.65 -206.65 126.5 -204.4 128.35 -201.35 129.5 -199.4 129.5 -196.7 129.5 -187.75 125.85 -179.05 121.85 -169.4 114.35 -162.95 L113.05 -161.55 111.0 -159.5 110.1 -159.2 Q107.75 -156.9 105.9 -153.75 105.3 -151.9 103.35 -150.25 99.6 -147.0 92.55 -147.0 L89.9 -147.25 89.0 -147.75 88.9 -147.85 88.65 -148.15 88.5 -148.4 88.35 -148.35 88.25 -148.4 87.6 -148.5 84.0 -148.15 81.95 -147.7 81.8 -147.55 82.55 -147.65 Q81.65 -147.3 80.7 -146.75 L80.55 -146.65 80.25 -146.65 75.4 -146.9 Q71.35 -147.5 69.65 -149.05 68.8 -149.8 67.85 -152.0 67.4 -153.0 67.15 -154.8 L66.65 -157.4 66.0 -157.65 Q60.3 -156.8 58.75 -155.65 L57.4 -154.05 Q56.85 -152.5 55.5 -150.85 55.35 -149.35 52.15 -146.55 L47.75 -143.15 Q42.95 -139.75 34.5 -137.0 L34.4 -136.9 34.25 -137.05 29.75 -136.4 26.95 -136.5 24.6 -136.65 Q21.55 -137.4 19.35 -139.2 L18.5 -139.95 18.7 -139.75 18.4 -139.95 16.75 -141.0 16.35 -141.5 14.2 -142.95 12.35 -144.3 Q11.1 -145.65 7.75 -147.0 L2.0 -149.15 0.6 -149.2 -1.0 -149.4 -2.25 -149.65 -3.3 -149.7 -4.5 -149.9 -6.4 -149.95 -8.5 -150.15 -9.45 -150.2 -10.5 -150.4 -11.1 -150.45 -11.75 -150.65 -16.4 -150.7 -16.7 -150.6 -17.5 -150.4 Q-21.45 -150.4 -25.0 -153.55 -27.1 -155.35 -28.25 -157.3 -29.05 -158.8 -29.55 -161.05 L-30.0 -164.8 Q-30.0 -167.45 -28.4 -171.25 -26.8 -175.0 -24.9 -175.45 L-25.0 -175.55 -24.9 -175.85 -24.45 -176.4 -23.0 -177.25 -21.55 -177.15 -20.15 -176.2 Q-19.15 -175.8 -18.5 -175.05 L-17.45 -173.8 -16.75 -173.2 -16.25 -173.0 -14.5 -173.0 -14.25 -173.25 Q-9.9 -173.2 -7.25 -175.0 -5.7 -176.1 -5.25 -177.3 L-5.15 -178.15 -5.4 -178.65 -6.4 -179.4 -7.25 -180.0 -11.8 -180.5 Q-13.45 -181.2 -14.5 -182.85 L-16.75 -185.8 -19.25 -188.15 -20.9 -188.8 -21.45 -189.15 -21.55 -189.25 -21.95 -189.9 -22.0 -189.9 Q-22.55 -190.25 -22.95 -191.25 L-23.45 -192.35 Q-24.05 -194.0 -24.05 -195.8 -24.05 -199.0 -21.9 -201.7 L-18.65 -205.35 -18.5 -206.05 Q-18.2 -206.7 -16.7 -207.75 -15.2 -208.9 -14.9 -209.5 L-14.25 -210.75 -13.6 -212.35 Q-13.0 -213.75 -13.0 -214.4 L-12.75 -217.75 -13.25 -221.2 -13.9 -224.5 Q-14.35 -226.75 -15.15 -227.9 -16.2 -229.35 -16.95 -229.65 -17.15 -229.75 -17.15 -230.85 -17.15 -234.4 -14.95 -239.1 L-14.25 -240.5 -14.2 -240.6 -13.95 -241.05 -11.8 -244.0 -10.4 -245.3 -10.15 -245.6 -10.1 -245.65 -7.65 -247.5 -7.45 -247.55 -5.6 -248.65 -2.95 -250.55 1.25 -253.4 7.0 -256.25 Q8.35 -256.6 9.9 -257.6 L13.5 -258.35 13.6 -258.35 13.65 -258.35 16.5 -258.55 16.75 -258.4 16.8 -258.3 17.15 -257.95 17.4 -257.7 22.35 -257.4 23.35 -255.65 23.75 -254.4 23.9 -253.5 23.6 -253.4 23.45 -253.45 Q22.9 -252.7 22.85 -251.4 22.9 -250.1 23.3 -249.1 L23.6 -248.5 23.65 -248.4 Q24.1 -247.75 25.55 -246.75 27.4 -245.55 28.75 -245.55 L30.05 -245.65 Q31.8 -246.0 33.4 -247.75 35.0 -249.6 35.0 -250.65 L34.5 -251.35 33.85 -251.8 33.75 -253.15 Q33.75 -254.85 36.35 -258.55 39.05 -262.4 41.0 -263.05 L43.0 -263.85 Q45.1 -264.45 47.6 -263.9 49.0 -263.25 49.5 -262.8 50.1 -262.35 50.15 -261.75 L50.2 -261.4 51.1 -262.25 52.1 -263.8 Q52.7 -264.75 52.9 -265.55 L53.9 -269.0 Q54.5 -271.25 54.5 -272.45 54.5 -274.8 53.05 -278.05 L52.6 -279.8 Q51.5 -282.6 47.9 -284.6 45.85 -285.75 44.35 -285.7 L43.45 -286.6 Q42.9 -287.25 42.6 -288.0 L41.45 -291.1 Q41.25 -291.8 41.25 -293.6 41.25 -294.3 41.6 -296.05 L42.25 -298.5 42.55 -299.15 42.5 -299.25 Q42.5 -300.65 44.75 -303.2 46.75 -305.45 48.45 -306.35 L51.2 -308.25 Q55.3 -310.9 57.6 -311.1 L58.1 -311.15 57.8 -310.85 57.6 -310.6 Q57.25 -310.15 57.25 -309.4 57.25 -308.85 57.8 -308.65 L62.55 -308.3 63.9 -308.1 Q66.3 -309.1 68.45 -310.85 L71.25 -314.35 Q74.25 -318.2 74.25 -319.05 L73.9 -319.75 Q73.7 -319.95 73.6 -320.3 L73.4 -320.7 Q73.15 -321.4 73.15 -322.55 73.15 -323.15 73.3 -323.65 L73.25 -324.15 Q73.25 -324.5 74.7 -326.05 L76.35 -328.05 77.3 -330.15 78.85 -332.0 Q82.05 -335.0 86.35 -336.85 90.7 -338.75 93.0 -338.0 L93.75 -337.0 95.15 -337.05 96.5 -337.05 M138.75 -314.0 Q135.5 -312.75 131.75 -309.55 L131.35 -309.65 Q134.8 -314.25 143.5 -317.65 L145.5 -317.55 146.5 -318.25 Q146.55 -317.55 145.75 -316.75 L143.9 -315.5 141.1 -314.65 138.75 -314.0 M129.5 -307.65 L127.1 -305.15 127.9 -306.75 Q128.5 -307.75 129.35 -307.9 129.5 -308.25 129.5 -307.65 M49.1 -305.25 L48.95 -305.35 48.85 -305.25 49.1 -305.25 M60.6 -306.5 L60.65 -306.5 60.15 -306.55 60.6 -306.5 M64.6 -308.65 L64.85 -308.6 64.55 -308.6 64.6 -308.65 M49.35 -289.2 L49.4 -289.2 49.35 -289.35 49.35 -289.2 M23.0 -249.0 L23.0 -248.4 23.25 -248.35 23.0 -249.0 M61.55 -227.25 L61.4 -227.5 61.5 -227.25 61.55 -227.25 M88.45 -148.5 L88.4 -148.55 87.6 -148.5 88.45 -148.5 M-20.75 -201.9 L-20.85 -201.75 -20.75 -201.85 -20.75 -201.9" fill="#00ffff" fill-opacity="0.6" fill-rule="evenodd" stroke="none"/>
    </g>
    <g id="shape2" transform="matrix(1.0, 0.0, 0.0, 1.0, 25.55, 343.4)">
      <path d="M173.7 -343.35 L173.65 -343.35 173.65 -343.4 173.7 -343.35" fill="#b6ffff" fill-opacity="0.9019608" fill-rule="evenodd" stroke="none"/>
      <path d="M105.35 -200.35 Q107.5 -201.05 109.65 -201.3 L107.6 -194.8 Q105.95 -190.25 103.85 -186.95 L101.6 -182.95 99.25 -179.2 98.25 -177.6 96.4 -174.6 96.05 -174.05 95.25 -172.3 94.95 -172.3 93.6 -170.4 94.4 -172.05 Q92.8 -170.6 89.4 -168.7 84.5 -166.0 81.5 -166.0 L79.0 -166.15 Q77.55 -166.25 76.35 -166.7 73.9 -165.3 72.55 -163.6 L71.95 -162.8 72.0 -162.75 72.55 -163.2 Q71.65 -162.1 71.65 -161.7 L71.65 -161.5 71.15 -161.35 70.6 -160.25 70.35 -160.15 Q70.45 -161.2 71.15 -162.35 L71.1 -163.2 Q71.1 -165.05 73.0 -168.65 73.05 -169.45 75.65 -173.7 L78.9 -178.75 82.75 -183.8 Q84.4 -185.85 86.05 -187.15 87.9 -189.95 94.25 -194.5 L98.1 -197.05 99.75 -198.1 Q102.4 -199.65 105.35 -200.35 M105.6 -198.75 L105.3 -198.65 105.65 -198.75 105.6 -198.75 M106.75 -195.05 L107.35 -196.8 107.2 -196.95 106.9 -197.55 104.75 -197.15 104.7 -197.15 98.3 -193.7 Q92.95 -190.6 89.25 -186.9 L85.65 -182.95 82.35 -179.05 78.75 -174.3 78.15 -173.5 77.85 -172.95 74.5 -167.15 74.35 -167.25 Q75.15 -168.35 75.95 -170.4 L76.35 -171.35 Q74.55 -169.7 74.0 -168.35 L73.9 -168.4 Q72.3 -165.45 72.05 -163.7 L72.1 -163.8 Q73.55 -165.6 75.75 -167.25 L76.85 -167.0 77.7 -166.8 79.5 -166.5 Q83.1 -166.5 88.6 -169.45 93.3 -171.95 94.5 -173.5 L96.95 -177.25 98.25 -179.2 98.2 -179.3 98.5 -179.75 100.75 -183.4 100.75 -183.45 103.05 -187.45 103.05 -187.5 Q105.1 -190.65 106.75 -195.1 L106.75 -195.05 M17.4 -165.25 L18.4 -164.95 22.45 -162.9 21.35 -163.25 26.9 -160.4 Q34.2 -156.3 36.75 -152.65 L33.25 -155.55 33.0 -155.7 32.95 -155.75 31.65 -156.4 31.0 -156.3 30.85 -155.75 30.55 -155.6 30.65 -155.3 30.35 -155.05 30.0 -155.4 27.95 -154.85 23.1 -154.2 25.35 -153.7 28.6 -152.15 Q28.9 -152.05 28.3 -152.05 24.4 -153.4 17.65 -154.3 L15.7 -154.55 15.6 -154.55 14.4 -154.75 11.9 -155.0 9.95 -155.1 7.9 -155.25 6.05 -155.35 4.15 -155.5 1.15 -155.75 Q-4.1 -156.6 -6.75 -157.4 -9.75 -158.3 -11.3 -159.75 L-12.65 -161.0 -14.0 -162.4 -14.05 -163.7 Q-14.1 -164.45 -15.3 -164.7 L-16.05 -164.65 -15.65 -165.1 -15.7 -165.25 -16.5 -164.9 -16.55 -165.0 -15.35 -165.95 -15.4 -166.0 -13.55 -166.85 -11.15 -167.3 -6.0 -168.15 0.5 -168.25 1.25 -168.1 1.55 -168.05 1.75 -168.05 11.95 -166.7 13.6 -166.15 15.45 -165.75 16.05 -165.55 17.4 -165.25 M13.5 -164.65 Q8.65 -165.9 -3.0 -166.15 L-9.9 -166.15 -13.05 -165.3 -14.1 -165.0 -13.8 -164.05 -13.05 -162.25 -11.6 -160.7 Q-10.4 -159.75 -9.25 -159.25 -5.95 -157.75 -3.95 -157.35 L3.15 -156.35 5.5 -156.5 8.25 -156.25 12.3 -155.75 13.7 -155.45 14.75 -155.4 20.5 -155.05 21.9 -154.75 Q25.35 -154.8 27.95 -155.5 L29.05 -155.8 29.15 -156.2 Q26.75 -158.35 23.35 -160.35 20.95 -161.8 17.25 -163.55 L13.5 -164.65 M30.3 -156.35 L30.3 -156.25 30.4 -156.3 30.35 -156.3 30.3 -156.35" fill="#b6ffff" fill-rule="evenodd" stroke="none"/>
      <path d="M106.75 -195.05 L106.75 -195.1 Q105.1 -190.65 103.05 -187.5 L103.05 -187.45 100.75 -183.45 100.75 -183.4 98.5 -179.75 98.2 -179.3 98.25 -179.2 96.95 -177.25 94.5 -173.5 Q93.3 -171.95 88.6 -169.45 83.1 -166.5 79.5 -166.5 L77.7 -166.8 76.85 -167.0 75.75 -167.25 Q73.55 -165.6 72.1 -163.8 L72.05 -163.7 Q72.3 -165.45 73.9 -168.4 L74.0 -168.35 Q74.55 -169.7 76.35 -171.35 L75.95 -170.4 Q75.15 -168.35 74.35 -167.25 L74.5 -167.15 77.85 -172.95 78.15 -173.5 78.75 -174.3 82.35 -179.05 85.65 -182.95 89.25 -186.9 Q92.95 -190.6 98.3 -193.7 L104.7 -197.15 104.75 -197.15 106.9 -197.55 107.2 -196.95 107.35 -196.8 106.75 -195.05 M13.5 -164.65 L17.25 -163.55 Q20.95 -161.8 23.35 -160.35 26.75 -158.35 29.15 -156.2 L29.05 -155.8 27.95 -155.5 Q25.35 -154.8 21.9 -154.75 L20.5 -155.05 14.75 -155.4 13.7 -155.45 12.3 -155.75 8.25 -156.25 5.5 -156.5 3.15 -156.35 -3.95 -157.35 Q-5.95 -157.75 -9.25 -159.25 -10.4 -159.75 -11.6 -160.7 L-13.05 -162.25 -13.8 -164.05 -14.1 -165.0 -13.05 -165.3 -9.9 -166.15 -3.0 -166.15 Q8.65 -165.9 13.5 -164.65" fill="#ffffff" fill-rule="evenodd" stroke="none"/>
      <path d="M-25.5 -179.65 L-25.2 -179.4 -24.0 -177.9 -25.55 -179.65 -25.5 -179.65 M-20.65 -164.45 L-20.45 -164.45 -19.75 -164.3 -20.2 -164.3 -20.65 -164.45" fill="#00ffff" fill-opacity="0.7490196" fill-rule="evenodd" stroke="none"/>
    </g>
    <g id="shape3" transform="matrix(1.0, 0.0, 0.0, 1.0, 10.8, 272.4)">
      <path d="M6.45 -229.95 L6.4 -230.1 6.45 -230.2 7.15 -230.7 7.7 -230.7 7.95 -230.4 7.05 -230.3 6.45 -229.95 M9.05 -229.8 L8.35 -229.95 8.3 -230.1 8.7 -230.45 9.2 -230.7 Q9.45 -230.6 9.75 -230.95 L10.95 -230.6 12.5 -231.05 13.4 -231.7 13.7 -231.7 13.25 -231.4 12.2 -230.15 12.2 -230.1 11.2 -229.5 11.0 -229.2 10.25 -228.95 10.0 -228.9 9.45 -228.9 9.2 -228.95 Q8.95 -229.5 9.05 -229.8 M4.95 -228.45 L4.15 -227.45 3.7 -227.45 2.8 -227.2 Q1.3 -227.0 0.35 -226.25 L-0.6 -225.4 Q-0.95 -224.8 -1.7 -224.3 L-1.75 -224.2 -2.05 -223.45 -2.7 -222.95 Q-3.2 -222.65 -3.1 -222.35 L-3.9 -222.8 -4.05 -223.15 -3.8 -223.95 -3.55 -224.45 -3.05 -224.35 Q-1.65 -224.95 -1.25 -225.65 -1.05 -225.65 -0.75 -226.4 L-0.45 -226.95 -0.55 -227.15 1.7 -228.45 2.2 -228.1 3.05 -228.1 Q4.15 -228.2 4.85 -228.85 5.5 -229.45 5.8 -229.45 L4.65 -228.45 4.95 -228.45 M20.2 -215.9 L24.75 -219.55 25.9 -219.35 26.75 -219.05 27.4 -218.05 28.15 -216.9 28.15 -215.55 28.1 -215.4 Q27.2 -216.1 25.55 -214.7 24.1 -213.45 23.75 -212.4 22.6 -208.85 22.6 -208.15 L22.85 -206.2 23.35 -204.4 23.25 -204.3 21.65 -207.15 Q20.55 -208.9 18.85 -208.8 L18.35 -211.8 Q18.35 -214.2 20.2 -215.9 M3.85 -209.15 L3.8 -209.15 Q3.25 -209.15 2.5 -208.1 1.8 -207.1 1.6 -206.2 1.2 -204.6 1.2 -203.2 L1.35 -202.05 1.35 -201.8 Q1.35 -200.95 1.75 -200.2 1.95 -199.75 2.3 -199.4 L2.4 -199.45 2.5 -199.4 4.0 -199.25 5.35 -197.85 5.25 -198.4 Q5.25 -199.0 6.3 -199.6 L7.75 -200.4 8.75 -200.3 Q9.15 -200.2 9.2 -199.75 9.25 -199.5 9.55 -199.4 L9.3 -199.15 9.15 -199.3 9.1 -199.25 9.25 -199.15 Q8.7 -198.85 8.25 -197.05 7.9 -195.7 7.9 -195.25 7.9 -193.7 8.95 -191.35 L9.8 -189.8 9.5 -190.4 9.7 -190.35 10.35 -189.25 Q10.85 -188.5 12.4 -187.3 L13.6 -186.15 13.6 -186.25 14.15 -185.75 15.25 -185.8 Q16.7 -186.75 17.9 -188.5 19.0 -190.25 19.0 -191.4 L18.65 -192.05 Q18.25 -192.45 18.25 -192.75 18.25 -193.5 18.8 -193.95 L20.0 -195.3 21.5 -195.15 22.15 -195.0 23.6 -195.3 24.0 -195.5 24.15 -195.65 24.1 -195.65 24.75 -196.3 26.0 -196.25 Q27.15 -195.5 28.15 -192.75 29.1 -190.25 29.1 -188.6 29.1 -187.8 28.35 -186.7 27.6 -185.55 27.6 -184.25 27.6 -182.85 29.65 -179.4 L29.75 -179.55 Q30.5 -178.0 30.9 -177.75 L31.75 -177.75 Q31.6 -178.25 31.95 -179.0 L32.2 -179.65 32.6 -180.2 32.65 -180.3 33.7 -180.75 33.85 -180.65 Q33.15 -179.9 33.15 -178.8 33.15 -177.35 34.3 -176.35 35.65 -175.15 35.9 -174.3 L36.05 -172.0 Q36.15 -170.9 37.15 -170.1 L37.1 -170.5 37.25 -170.5 37.85 -169.65 Q38.25 -168.9 38.9 -168.75 L40.5 -168.75 44.25 -170.3 44.6 -170.35 44.4 -170.05 Q43.6 -169.35 43.6 -167.6 43.6 -166.8 44.05 -165.8 L44.3 -165.25 44.95 -164.25 Q46.2 -162.35 47.5 -163.4 53.7 -161.8 53.85 -158.75 53.75 -158.55 53.5 -158.5 L53.4 -158.65 52.85 -158.65 50.9 -158.95 49.0 -159.4 46.5 -159.2 44.6 -159.05 42.95 -159.3 42.85 -159.3 42.7 -159.35 42.45 -159.4 41.75 -159.6 40.75 -159.95 40.4 -160.3 39.7 -161.2 38.75 -162.2 38.55 -162.2 Q37.55 -163.05 36.9 -163.05 L36.85 -163.05 Q35.55 -163.8 35.3 -165.0 L34.5 -166.0 34.25 -166.25 33.65 -166.7 Q33.0 -167.25 31.95 -167.3 30.85 -167.35 30.3 -167.75 L29.9 -168.55 29.5 -169.75 29.45 -170.9 29.25 -171.25 Q27.75 -171.35 26.8 -172.25 26.0 -173.05 26.0 -173.8 L26.2 -174.45 25.75 -175.0 24.0 -174.5 23.1 -174.55 21.85 -175.4 20.75 -176.4 20.55 -177.5 19.75 -178.65 18.4 -178.65 18.2 -178.8 17.05 -179.15 13.95 -178.9 11.55 -178.5 Q10.9 -178.1 9.6 -177.9 L8.35 -178.0 7.25 -178.7 6.9 -179.2 6.35 -180.0 6.15 -179.95 5.8 -180.0 5.75 -180.0 5.65 -179.95 5.65 -179.85 5.15 -179.4 Q4.4 -178.9 2.75 -178.9 L2.3 -178.9 2.25 -178.9 1.25 -179.7 0.35 -180.35 -0.95 -180.55 -2.0 -180.5 -2.05 -180.45 -3.45 -181.3 -5.3 -183.55 Q-5.75 -183.95 -7.55 -184.8 -8.65 -185.3 -8.9 -186.5 L-9.6 -187.95 -9.8 -188.3 -10.5 -189.05 -10.55 -189.25 -10.05 -189.35 -10.05 -189.75 -10.0 -190.0 -10.25 -191.3 -10.35 -191.65 -10.8 -193.5 Q-10.8 -196.1 -8.75 -198.05 L-8.5 -198.0 -8.5 -198.05 -7.65 -198.0 -6.65 -196.9 -6.95 -196.65 -7.05 -195.9 Q-7.05 -194.55 -6.25 -194.55 L-6.15 -194.4 Q-5.85 -194.65 -5.65 -195.25 L-5.4 -196.35 -6.05 -197.35 Q-6.75 -198.05 -6.9 -199.0 L-6.9 -200.2 Q-7.0 -201.1 -8.05 -201.4 L-8.05 -202.5 Q-7.35 -204.6 -6.9 -204.8 L-6.65 -203.6 Q-6.4 -202.75 -5.5 -202.4 L-3.55 -202.5 Q-2.65 -202.65 -1.6 -204.0 -0.75 -205.0 -0.3 -206.05 0.05 -207.1 3.0 -209.55 L3.35 -209.5 3.7 -209.45 3.75 -209.2 3.85 -209.15 M22.6 -202.8 L22.95 -202.0 Q23.4 -201.15 24.1 -200.75 24.1 -199.7 23.5 -198.4 L23.1 -198.4 Q23.25 -199.0 22.8 -200.1 L22.35 -201.75 Q22.35 -202.5 22.6 -202.8 M80.35 -220.05 Q80.65 -220.4 81.75 -220.4 L82.55 -220.6 83.25 -221.0 83.45 -220.3 Q83.7 -219.65 84.1 -219.65 L84.85 -219.75 87.1 -220.0 Q88.15 -220.55 88.8 -221.6 89.35 -222.55 89.35 -223.5 L89.5 -223.5 89.45 -222.6 89.35 -221.65 Q89.35 -221.05 89.85 -220.35 90.35 -219.65 90.75 -219.65 91.3 -219.65 91.5 -220.15 91.7 -220.65 92.0 -220.65 L92.6 -220.5 92.6 -220.75 Q93.55 -220.4 93.75 -219.85 L93.85 -218.5 Q93.85 -216.9 93.15 -216.35 L90.1 -213.75 Q89.65 -213.25 88.75 -211.35 87.85 -209.35 87.85 -208.75 L88.1 -208.2 88.3 -207.95 88.35 -207.9 88.35 -207.55 Q88.35 -206.6 87.05 -205.0 85.95 -203.7 85.0 -203.45 L81.5 -201.95 77.85 -200.4 75.8 -198.7 74.1 -196.5 Q73.85 -196.05 73.35 -194.4 L72.9 -192.25 Q72.9 -191.6 71.35 -190.55 L70.6 -190.0 69.4 -188.25 Q68.2 -186.05 69.1 -184.4 L69.0 -184.45 69.1 -183.65 69.35 -182.65 69.4 -182.25 Q69.4 -180.5 67.9 -178.8 L65.75 -176.4 65.5 -176.4 Q64.55 -175.35 64.35 -173.15 64.15 -171.3 62.5 -170.25 L62.3 -170.3 62.1 -170.35 61.85 -169.9 61.6 -169.8 61.55 -169.75 61.5 -170.15 62.05 -171.6 62.6 -173.4 62.1 -175.5 61.15 -177.5 60.75 -177.05 60.15 -178.65 60.1 -180.0 Q60.1 -184.0 63.5 -185.8 L64.1 -185.6 Q64.3 -185.4 64.6 -185.4 L65.55 -186.0 66.15 -186.45 66.6 -187.75 Q66.9 -188.9 66.85 -190.2 66.85 -192.6 65.8 -195.05 64.65 -197.8 63.25 -197.55 62.6 -198.45 62.6 -199.45 L62.75 -200.25 Q62.6 -200.65 62.6 -201.25 62.6 -203.05 63.45 -205.35 64.3 -207.65 65.25 -208.5 65.85 -209.05 67.25 -209.6 68.3 -210.05 68.85 -210.9 L69.55 -212.65 69.85 -214.25 70.0 -214.25 69.95 -213.3 69.85 -212.25 Q69.85 -212.05 70.0 -211.8 L70.35 -211.55 70.6 -211.15 70.6 -211.1 70.6 -210.9 70.35 -209.8 70.1 -208.65 Q70.1 -207.95 70.6 -206.65 L72.25 -206.75 72.4 -206.85 73.25 -207.7 Q73.95 -208.65 74.3 -209.9 L74.6 -211.1 74.6 -212.15 Q74.55 -213.2 75.2 -214.85 75.95 -216.65 76.85 -216.65 77.55 -216.65 79.35 -218.75 L80.35 -220.05 M106.7 -272.35 L106.75 -272.4 106.85 -272.05 106.7 -272.35 M101.05 -261.65 L102.0 -263.0 101.6 -261.9 101.6 -261.75 101.6 -261.6 101.65 -260.95 Q102.9 -260.2 102.65 -260.15 106.6 -260.45 108.45 -262.85 L110.1 -265.4 Q111.45 -268.4 111.85 -270.25 L112.0 -270.25 112.1 -269.95 112.4 -268.95 Q112.65 -268.25 113.25 -268.25 114.05 -268.25 117.5 -270.45 L120.1 -272.0 119.15 -271.0 Q117.1 -269.7 115.6 -268.0 L116.25 -268.25 Q113.65 -265.3 112.2 -261.45 114.05 -266.05 116.75 -268.0 113.5 -264.0 112.1 -259.2 111.05 -255.55 111.25 -251.9 111.55 -250.4 112.85 -248.5 114.8 -248.2 115.5 -247.4 L116.35 -246.0 116.35 -244.5 Q115.25 -244.75 114.75 -243.75 L114.35 -241.9 113.9 -238.55 Q113.9 -237.85 114.45 -236.2 115.0 -234.5 115.0 -233.4 L114.95 -232.05 Q114.8 -231.25 114.25 -230.75 L113.2 -232.65 112.1 -234.55 110.3 -236.3 Q109.0 -237.5 109.1 -238.25 108.1 -238.55 108.1 -238.75 L107.0 -238.85 Q104.6 -239.7 104.1 -240.8 L103.6 -243.2 103.6 -243.3 103.85 -244.0 103.6 -244.65 103.35 -245.0 100.1 -246.6 99.95 -246.8 99.5 -248.15 99.5 -248.4 99.6 -249.25 100.0 -249.85 Q100.75 -250.9 101.5 -251.3 L102.85 -251.15 103.45 -252.3 103.45 -252.35 103.45 -252.4 103.5 -253.65 Q103.5 -255.2 103.1 -256.55 102.65 -258.2 101.85 -258.15 L101.6 -258.05 101.5 -258.05 101.5 -258.15 101.05 -259.2 101.0 -260.35 101.05 -261.65 M94.75 -243.15 Q92.45 -242.75 91.45 -241.6 L90.25 -239.65 90.2 -239.55 Q90.1 -239.5 90.1 -239.9 90.1 -240.8 92.35 -244.25 L93.55 -244.5 94.6 -243.9 94.75 -243.15 M44.75 -179.5 L44.1 -179.5 44.05 -179.45 44.0 -179.9 44.45 -180.5 45.5 -180.75 44.75 -179.5" fill="#ffffff" fill-rule="evenodd" stroke="none"/>
    </g>
    <g id="shape4" transform="matrix(1.0, 0.0, 0.0, 1.0, 170.4, 285.95)">
      <path d="M173.9 -284.95 Q175.0 -283.75 175.2 -282.8 175.35 -282.0 174.95 -281.4 L175.85 -281.3 176.1 -281.15 176.25 -280.85 176.2 -280.55 Q175.7 -279.5 174.2 -279.5 L173.95 -279.55 173.8 -279.7 173.6 -280.0 173.6 -279.85 173.55 -279.55 Q171.25 -275.95 170.0 -275.1 L169.7 -275.05 169.4 -275.15 169.2 -275.45 169.25 -275.75 170.95 -278.4 170.95 -278.35 171.9 -279.7 170.25 -283.65 169.5 -283.8 168.3 -284.2 167.35 -284.5 167.1 -284.7 167.0 -285.0 Q166.95 -285.3 167.35 -285.55 L167.4 -285.7 167.6 -285.9 167.9 -285.95 169.4 -285.45 173.55 -285.15 173.9 -284.95 M172.75 -283.55 L173.25 -282.0 Q173.3 -282.7 172.8 -283.55 L172.75 -283.55 M8.2 -203.85 L9.45 -204.0 10.7 -206.3 Q11.75 -208.35 12.8 -208.65 L12.95 -208.7 15.4 -208.8 15.6 -208.85 15.8 -208.75 16.45 -207.85 16.45 -207.75 16.45 -207.45 16.35 -207.15 Q16.1 -206.65 15.2 -206.9 L15.25 -206.9 14.7 -207.1 13.45 -207.0 12.9 -206.25 12.85 -205.7 12.3 -204.4 12.25 -204.4 11.1 -202.35 10.95 -202.1 10.65 -202.05 9.9 -202.0 9.95 -201.95 9.95 -201.75 9.85 -201.55 Q9.55 -201.05 8.5 -201.2 8.3 -201.2 8.2 -201.35 L8.05 -201.65 7.95 -203.4 8.0 -203.65 8.2 -203.85 M124.45 -277.8 L125.15 -276.95 125.2 -276.9 125.4 -276.6 125.45 -276.25 125.3 -275.95 124.95 -275.85 124.15 -275.85 123.1 -274.9 Q121.7 -273.8 120.05 -273.5 L118.1 -270.75 118.1 -270.8 Q117.4 -269.65 117.4 -268.4 117.4 -267.4 117.85 -266.5 118.85 -266.1 121.1 -264.6 122.75 -263.45 123.45 -263.5 L123.75 -263.45 123.95 -263.25 124.0 -263.0 124.0 -262.75 124.0 -262.2 123.55 -261.8 122.4 -261.7 Q121.85 -261.65 121.05 -262.35 L121.0 -262.4 120.05 -263.6 Q119.0 -263.65 118.45 -264.4 118.0 -264.95 116.9 -265.05 L116.6 -265.15 116.45 -265.35 Q116.1 -266.25 115.85 -267.95 L115.6 -269.45 115.25 -268.9 114.75 -268.0 115.4 -267.9 Q115.75 -267.75 115.75 -267.05 115.75 -266.05 115.4 -265.65 L115.35 -265.6 115.2 -265.4 115.05 -265.05 114.7 -264.9 114.45 -264.6 114.25 -264.5 114.05 -264.45 112.5 -264.45 Q112.3 -264.45 112.15 -264.6 112.0 -264.75 112.0 -264.95 L112.15 -265.3 Q113.45 -266.65 113.4 -267.75 113.25 -269.45 114.3 -270.95 L114.3 -270.9 Q115.2 -272.25 116.0 -272.1 116.5 -272.1 117.1 -272.7 L117.6 -273.85 117.55 -273.85 118.15 -275.55 118.35 -275.7 118.55 -275.75 121.25 -277.15 Q123.55 -278.3 124.25 -277.95 L124.45 -277.8 M153.55 -192.2 L153.8 -192.05 153.95 -191.85 154.1 -190.9 154.1 -190.85 154.15 -189.55 154.0 -189.2 153.9 -189.0 153.75 -188.9 Q153.45 -188.6 152.55 -188.6 151.7 -188.55 151.15 -189.65 L151.15 -189.7 Q150.8 -190.5 150.8 -190.9 150.8 -191.8 151.2 -192.15 L151.6 -192.45 151.9 -192.5 153.55 -192.2 M143.35 -192.85 Q144.5 -192.15 144.6 -191.65 L144.6 -191.55 144.35 -190.65 144.1 -190.5 143.85 -190.45 143.35 -190.55 143.35 -190.5 143.3 -190.25 Q142.85 -189.4 141.9 -189.2 L141.65 -189.2 141.4 -189.4 141.3 -189.7 Q141.25 -189.55 140.95 -189.7 L140.9 -189.75 Q140.15 -190.3 140.15 -191.25 140.15 -192.2 140.75 -192.65 L140.75 -192.7 141.35 -193.05 141.6 -193.1 143.15 -192.95 143.35 -192.85 M83.3 -112.45 Q75.05 -112.45 71.1 -109.75 68.75 -108.25 68.55 -106.35 L68.55 -106.3 Q68.25 -104.05 67.1 -101.7 66.25 -99.95 66.25 -98.55 66.25 -97.3 65.4 -97.1 L65.25 -97.1 64.65 -97.0 64.4 -96.95 59.15 -97.15 58.85 -97.25 Q56.35 -99.3 55.95 -101.9 L56.0 -101.8 55.85 -106.55 55.6 -106.75 54.7 -106.15 Q54.85 -105.05 55.7 -103.15 L55.75 -102.85 55.6 -102.55 53.65 -100.95 53.35 -100.9 51.35 -101.0 Q51.15 -101.0 51.0 -101.15 50.85 -101.25 50.85 -101.45 L50.95 -101.75 Q51.45 -102.55 52.25 -102.95 L52.65 -103.05 53.0 -103.0 53.15 -102.9 53.65 -103.15 53.2 -104.15 Q53.05 -104.3 53.05 -104.5 L53.05 -107.8 53.2 -108.15 53.55 -108.3 Q54.6 -108.3 56.0 -108.9 L56.4 -108.9 56.65 -108.65 Q57.0 -108.05 57.55 -103.3 57.95 -100.05 59.85 -98.7 L63.05 -98.9 63.1 -98.9 63.15 -99.0 63.7 -99.85 63.95 -100.05 64.75 -100.35 Q64.85 -101.4 65.9 -102.7 L66.9 -104.2 66.9 -108.35 67.05 -108.7 Q69.55 -111.25 73.95 -112.65 79.9 -114.65 86.9 -113.45 L87.15 -113.35 87.3 -113.1 87.95 -112.05 88.5 -111.0 90.25 -110.55 Q90.4 -110.55 90.55 -110.35 91.8 -108.2 92.0 -106.45 L92.0 -106.2 Q91.75 -105.6 90.95 -105.35 L90.65 -105.35 90.4 -105.55 90.3 -105.85 89.8 -107.65 89.3 -109.1 87.45 -109.4 Q87.25 -109.45 87.15 -109.55 87.0 -109.7 87.0 -109.9 L86.55 -111.0 86.5 -111.0 86.0 -112.0 83.3 -112.45 M59.65 -170.0 Q60.75 -169.75 62.25 -168.8 L62.4 -168.6 62.45 -168.3 62.3 -168.05 62.05 -167.9 61.8 -167.8 61.75 -167.8 61.7 -167.4 61.7 -166.8 61.6 -166.5 Q61.3 -166.05 60.95 -166.25 L60.75 -166.25 60.05 -166.4 60.1 -166.4 Q59.15 -166.65 59.05 -167.0 L59.05 -167.4 59.25 -167.7 59.85 -168.0 59.25 -168.65 59.2 -168.7 59.0 -169.5 59.1 -169.8 59.3 -170.0 59.65 -170.0 M60.95 -166.25 L61.0 -166.25 60.95 -166.25 M130.4 -92.15 L130.5 -92.05 Q130.8 -91.75 130.8 -90.75 130.8 -89.75 130.4 -89.35 L130.35 -89.35 Q129.85 -88.75 128.55 -88.75 L127.5 -88.95 127.2 -89.1 127.0 -89.3 126.9 -89.55 127.05 -89.85 127.95 -90.5 128.0 -90.55 128.8 -90.9 Q128.65 -91.25 128.65 -91.7 L128.7 -92.5 Q128.85 -93.15 129.25 -92.9 L129.65 -92.65 129.95 -92.5 130.4 -92.15 M-165.7 -216.85 L-165.35 -215.25 -164.95 -213.75 -164.9 -213.45 -165.05 -213.2 -165.4 -212.85 -165.6 -212.7 -165.9 -212.7 -166.1 -212.85 Q-166.8 -213.65 -166.85 -214.75 L-166.9 -215.2 -167.2 -214.9 -168.25 -214.05 -168.6 -214.0 Q-169.5 -214.2 -170.25 -214.95 L-170.35 -215.15 -170.35 -215.45 -170.2 -215.65 -169.45 -216.6 -169.35 -216.7 -168.85 -217.8 -168.65 -218.0 -168.4 -218.1 Q-168.1 -218.15 -167.3 -217.6 L-167.35 -217.6 -166.1 -217.2 -165.85 -217.05 -165.7 -216.85" fill="#00ffff" fill-opacity="0.5019608" fill-rule="evenodd" stroke="none"/>
      <path d="M169.15 -285.0 L173.5 -284.65 Q175.5 -282.4 174.2 -281.35 174.2 -281.1 175.75 -280.8 175.35 -280.0 174.2 -280.0 173.65 -280.85 173.75 -281.8 173.9 -282.8 173.1 -284.0 L173.1 -284.1 172.0 -284.0 Q173.1 -281.5 173.1 -279.85 170.9 -276.35 169.7 -275.55 L171.35 -278.1 172.4 -279.7 170.6 -284.1 169.6 -284.3 Q168.6 -284.5 168.6 -284.65 L167.5 -285.0 167.65 -285.2 167.8 -285.45 169.15 -285.0 M124.75 -276.65 L124.95 -276.35 124.15 -276.35 122.75 -275.3 Q121.4 -274.2 119.75 -274.0 L117.65 -271.05 Q116.9 -269.8 116.9 -268.4 116.9 -267.2 117.45 -266.1 L120.8 -264.2 Q122.7 -262.9 123.5 -263.0 L123.5 -262.6 Q123.8 -262.2 122.4 -262.2 122.0 -262.2 121.35 -262.75 L120.3 -264.1 Q119.35 -264.05 118.85 -264.7 118.35 -265.45 116.9 -265.55 L116.35 -268.05 115.8 -270.6 115.8 -270.8 114.8 -269.15 114.15 -267.85 Q114.15 -267.15 114.7 -267.45 115.25 -267.75 115.25 -267.05 L115.0 -266.0 114.7 -265.4 114.05 -264.95 112.5 -264.95 Q114.0 -266.5 113.9 -267.8 113.75 -269.3 114.7 -270.65 115.4 -271.65 115.95 -271.6 116.65 -271.55 117.45 -272.35 117.8 -272.7 118.05 -273.75 L118.55 -275.25 121.45 -276.7 Q123.5 -277.7 124.05 -277.5 L124.75 -276.65 M122.75 -276.5 L120.55 -275.4 119.9 -275.1 121.4 -275.1 122.35 -275.95 122.75 -276.5 M87.5 -111.8 L88.05 -110.6 90.1 -110.1 Q91.3 -108.05 91.5 -106.4 91.35 -106.0 90.8 -105.85 L90.25 -107.85 Q89.7 -109.2 89.7 -109.55 L87.5 -109.9 86.95 -111.25 86.35 -112.4 83.3 -112.95 Q74.85 -112.95 70.8 -110.2 68.25 -108.5 68.05 -106.4 67.75 -104.2 66.65 -101.95 65.75 -100.05 65.75 -98.55 65.75 -97.75 65.25 -97.6 L64.4 -97.45 59.15 -97.65 Q56.85 -99.55 56.45 -102.0 L56.35 -106.8 55.55 -107.5 Q54.8 -106.5 54.15 -106.7 54.15 -105.45 55.25 -102.95 L53.35 -101.4 51.35 -101.5 52.45 -102.5 Q53.05 -102.8 52.45 -102.05 L54.15 -102.85 Q54.15 -103.9 53.55 -104.5 L53.55 -107.8 Q54.7 -107.8 56.2 -108.45 56.5 -107.85 57.05 -103.25 57.5 -99.65 59.7 -98.2 64.55 -98.35 63.55 -98.75 L64.1 -99.6 65.2 -100.0 Q65.2 -101.0 66.3 -102.4 67.4 -103.75 67.4 -104.2 L67.4 -108.35 Q69.85 -110.8 74.1 -112.2 79.95 -114.15 86.8 -112.95 L87.5 -111.8" fill="#ffffff" fill-rule="evenodd" stroke="none"/>
      <path d="M9.45 -201.85 L8.55 -201.7 8.45 -203.45 9.6 -203.4 11.15 -206.1 Q12.05 -207.9 12.95 -208.2 L15.5 -208.35 15.95 -207.75 15.95 -207.45 15.35 -207.4 Q14.95 -207.5 14.85 -207.65 L13.2 -207.5 12.4 -206.4 12.35 -205.7 11.85 -204.7 10.65 -202.55 9.45 -202.35 9.45 -201.85 M153.6 -190.85 L153.65 -189.55 153.45 -189.3 152.55 -189.1 Q152.0 -189.1 151.6 -189.9 151.3 -190.55 151.3 -190.9 151.3 -191.55 151.55 -191.8 L151.8 -192.0 153.45 -191.7 153.6 -190.85 M142.5 -191.75 L142.65 -191.2 142.85 -190.5 Q142.5 -189.85 141.8 -189.7 L141.2 -190.15 Q140.65 -190.55 140.65 -191.25 140.65 -191.95 141.05 -192.3 L141.55 -192.6 143.1 -192.45 Q144.0 -191.9 144.1 -191.55 L143.9 -190.95 Q143.2 -191.05 142.5 -191.75 M59.5 -167.25 Q60.5 -167.8 60.55 -168.05 L59.65 -168.95 59.5 -169.55 61.95 -168.4 61.5 -168.25 Q61.2 -168.1 61.2 -167.4 L61.1 -166.75 60.8 -166.75 60.2 -166.9 Q59.6 -167.05 59.5 -167.25 M130.1 -91.75 L130.3 -90.75 Q130.3 -90.0 130.0 -89.7 129.6 -89.25 128.55 -89.25 L127.85 -89.3 127.4 -89.55 128.2 -90.1 Q128.85 -90.5 129.5 -90.55 L129.4 -90.85 Q129.15 -91.1 129.15 -91.7 129.15 -92.85 129.25 -92.15 L129.6 -92.15 130.1 -91.75 M-167.6 -217.2 Q-166.9 -216.8 -166.2 -216.7 L-165.85 -215.15 -165.4 -213.55 -165.75 -213.2 Q-166.3 -213.85 -166.35 -214.8 -166.45 -215.75 -166.65 -216.0 L-167.6 -215.2 -168.5 -214.5 Q-169.25 -214.65 -169.9 -215.3 L-169.0 -216.35 -168.4 -217.6 -167.6 -217.2" fill="#ffffff" fill-opacity="0.9019608" fill-rule="evenodd" stroke="none"/>
    </g>
  </defs>
</svg>
