<?xml version="1.0" encoding="UTF-8" standalone="no"?>
<svg xmlns:ffdec="https://www.free-decompiler.com/flash" xmlns:xlink="http://www.w3.org/1999/xlink" ffdec:objectType="frame" height="60.9px" width="38.5px" xmlns="http://www.w3.org/2000/svg">
  <g transform="matrix(1.0, 0.0, 0.0, 1.0, 0.0, -0.35)">
    <use ffdec:characterId="133" height="8.7" transform="matrix(7.0, 0.0, 0.0, 7.0, 0.0, 0.35)" width="5.5" xlink:href="#shape0"/>
  </g>
  <defs>
    <g id="shape0" transform="matrix(1.0, 0.0, 0.0, 1.0, 0.0, -0.05)">
      <path d="M4.75 0.2 L4.8 0.2 Q5.2 0.8 4.75 1.35 4.75 2.95 3.2 3.3 L3.35 3.45 Q3.75 3.6 4.05 3.25 4.15 3.3 4.25 3.4 5.1 3.85 4.85 4.8 L4.7 4.8 4.7 4.45 4.7 4.3 Q4.6 3.8 4.1 3.65 L4.15 3.8 Q4.1 4.0 4.2 4.2 L4.25 4.3 4.2 4.4 4.05 4.45 3.8 3.85 3.2 3.65 2.8 3.55 2.6 3.75 2.6 4.0 2.4 3.7 2.35 3.55 3.6 2.7 3.7 2.2 3.8 2.2 3.85 2.3 4.0 2.4 4.1 2.5 Q4.35 2.35 4.45 2.05 4.7 1.45 4.25 0.95 L4.4 0.9 4.6 1.05 4.65 1.05 4.75 0.7 4.6 0.35 4.6 0.25 4.7 0.15 4.75 0.2 M4.9 4.85 L5.0 4.65 5.2 4.6 Q5.6 5.65 4.95 6.6 L4.85 6.55 5.0 5.2 4.85 5.2 4.8 5.25 Q4.65 5.2 4.6 5.1 L4.85 4.85 4.9 4.85 M5.05 6.7 L5.25 6.75 5.5 7.0 5.5 7.4 Q5.45 7.75 5.35 8.1 5.1 8.25 4.8 8.35 L3.8 8.4 Q3.35 8.8 2.75 8.7 2.1 8.65 1.65 8.1 1.3 8.1 1.0 8.0 0.45 7.75 0.0 7.3 L0.05 6.55 0.3 6.25 2.1 5.85 2.2 5.55 2.0 5.0 1.85 5.0 1.8 4.95 0.7 5.2 0.6 5.1 0.5 5.05 0.25 4.9 0.15 4.6 0.25 4.5 Q0.4 4.3 0.4 4.05 0.35 3.65 0.15 3.3 L0.35 2.9 Q1.55 2.3 2.3 1.15 L2.55 1.2 Q1.8 2.2 0.95 3.05 L0.5 3.1 0.5 3.3 0.6 3.6 Q0.75 4.1 0.45 4.55 L0.55 4.75 0.8 4.8 1.0 4.65 1.45 4.6 1.7 4.6 2.25 4.65 3.35 5.05 3.35 5.15 3.25 5.25 2.5 5.1 2.5 5.2 2.5 5.55 Q2.5 5.8 2.4 6.0 L2.7 6.55 2.5 6.8 Q2.45 6.8 2.4 6.8 L2.4 6.9 Q2.2 7.05 2.1 7.25 L2.05 7.4 Q2.05 7.65 2.2 7.85 L2.3 7.95 2.6 7.95 2.8 8.15 3.4 8.05 3.65 7.35 3.45 7.35 Q3.35 7.2 3.15 7.2 L3.05 7.2 2.85 7.1 2.85 7.0 3.3 7.1 3.8 7.0 3.95 7.55 3.95 7.8 Q4.85 8.5 5.1 7.35 L5.1 7.1 4.9 7.15 4.35 7.1 4.45 7.0 4.8 6.95 5.0 6.75 5.05 6.7 M1.5 4.45 L1.4 4.1 2.0 3.3 2.15 3.3 2.1 3.45 Q1.95 4.05 1.65 4.55 L1.6 4.55 1.5 4.45 M1.8 7.2 Q1.95 6.85 2.15 6.65 L2.3 6.55 Q2.3 6.3 2.1 6.2 L2.0 6.1 0.9 6.3 Q0.7 6.3 0.55 6.4 L0.35 6.55 0.4 7.0 0.4 7.25 Q0.85 7.75 1.55 7.7 L1.8 7.2 M0.7 6.5 L0.75 6.5 1.6 6.8 1.5 7.0 0.75 6.65 0.75 6.55 0.7 6.5 M4.3 6.5 L4.2 6.45 Q4.4 6.1 4.3 5.75 L4.35 5.65 Q4.75 6.1 4.3 6.5 M4.25 4.7 L4.1 4.8 3.6 4.55 3.7 4.45 3.85 4.45 Q4.1 4.5 4.25 4.7" fill="#000000" fill-rule="evenodd" stroke="none"/>
      <path d="M4.25 4.3 L4.2 4.2 Q4.1 4.0 4.15 3.8 4.35 3.8 4.5 4.0 4.65 4.15 4.65 4.4 L4.65 4.5 4.55 4.55 4.45 4.55 4.35 4.6 4.25 4.55 4.25 4.3 M4.0 0.5 L4.05 0.6 3.85 0.95 3.95 1.3 4.05 1.6 Q4.05 1.75 3.9 1.85 L3.3 1.9 Q3.1 2.25 2.75 2.45 2.05 2.85 1.45 3.35 L1.5 3.55 1.45 3.65 1.1 3.8 1.1 4.15 1.05 4.25 Q1.05 4.35 0.9 4.4 L0.8 4.35 0.7 3.5 0.75 3.35 0.9 3.2 Q1.05 3.05 1.25 3.05 1.7 2.4 2.45 1.95 L2.4 1.7 Q3.05 0.85 4.0 0.5 M1.6 7.25 Q0.95 7.3 0.5 6.8 L0.5 6.7 0.45 6.65 0.45 6.55 0.6 6.45 0.7 6.5 0.75 6.55 0.75 6.65 1.5 7.0 Q1.55 7.0 1.6 7.05 1.65 7.1 1.65 7.2 L1.6 7.25 M0.9 6.45 L0.9 6.3 1.7 6.25 1.85 6.35 1.85 6.45 Q1.4 6.8 0.9 6.45 M2.7 5.5 L2.85 5.45 3.0 5.6 3.05 5.9 Q3.1 6.15 3.0 6.4 L2.75 6.4 2.55 6.0 2.75 5.9 2.75 5.65 2.7 5.6 2.7 5.5 M2.5 6.8 L2.9 6.6 2.9 6.5 3.0 6.45 Q3.4 6.1 3.35 5.6 3.5 5.6 3.55 5.7 4.1 6.85 2.9 6.9 L2.65 7.05 2.95 7.25 3.05 7.2 3.15 7.2 Q3.35 7.2 3.45 7.35 L3.5 7.45 3.2 7.55 Q2.75 7.6 2.4 7.25 L2.4 6.9 2.4 6.8 Q2.45 6.8 2.5 6.8 M5.0 7.3 Q4.85 7.5 4.5 7.55 4.25 7.55 4.05 7.4 L4.0 6.8 4.4 6.6 4.45 6.65 4.45 6.8 4.45 6.85 4.25 7.0 4.35 7.1 4.9 7.15 5.05 7.2 5.0 7.3 M3.7 4.4 L3.7 4.3 3.1 4.05 3.05 3.95 3.75 3.9 3.95 4.2 3.95 4.35 3.9 4.4 3.7 4.4" fill="#a3a3a3" fill-rule="evenodd" stroke="none"/>
      <path d="M4.7 0.15 L4.6 0.25 4.5 0.2 4.55 0.2 4.65 0.15 4.7 0.15 M4.6 0.35 L4.75 0.7 4.65 1.05 4.6 1.05 4.4 0.9 4.25 0.95 Q4.7 1.45 4.45 2.05 4.35 2.35 4.1 2.5 L4.0 2.4 3.85 2.3 3.8 2.2 3.7 2.2 3.6 2.7 2.35 3.55 2.4 3.7 2.6 4.0 2.6 3.75 2.8 3.55 3.2 3.65 3.0 3.75 2.85 3.75 2.7 4.0 2.75 4.25 2.65 4.3 2.3 3.8 2.1 3.9 2.05 4.45 2.25 4.55 2.25 4.65 1.7 4.6 1.65 4.55 Q1.95 4.05 2.1 3.45 L2.15 3.3 2.0 3.3 Q2.75 2.95 3.4 2.45 L3.5 1.95 3.8 1.95 3.9 2.1 4.15 2.1 4.45 1.5 4.05 0.7 4.15 0.55 4.3 0.55 4.6 0.75 4.6 0.35 M4.7 4.45 L4.7 4.8 4.85 4.8 4.85 4.85 4.6 5.1 4.45 5.35 4.35 5.3 4.35 5.1 Q4.4 4.8 4.55 4.55 L4.65 4.5 4.65 4.4 4.7 4.45 M4.85 6.55 L4.95 6.65 5.0 6.75 4.8 6.95 4.45 7.0 4.4 6.9 4.45 6.85 4.45 6.8 4.5 6.75 Q4.85 6.1 4.8 5.25 L4.85 5.2 5.0 5.2 4.85 6.55 M1.0 4.65 Q0.95 4.6 1.05 4.5 L1.2 4.4 1.5 4.45 1.6 4.55 1.45 4.6 1.0 4.65 M2.5 5.2 L2.5 5.1 3.25 5.25 3.35 5.15 3.35 5.05 3.4 5.15 3.4 5.3 3.3 5.3 3.3 5.8 3.15 5.8 3.05 5.45 2.5 5.2 M1.8 7.2 L1.55 7.7 Q0.85 7.75 0.4 7.25 L0.4 7.0 1.0 7.4 1.5 7.4 1.6 7.25 1.65 7.2 1.8 7.2 M3.95 7.55 L4.05 7.7 4.5 7.8 4.75 7.7 5.0 7.3 5.05 7.2 5.1 7.1 5.1 7.35 Q4.85 8.5 3.95 7.8 L3.95 7.55 M3.95 6.7 L3.85 6.7 3.9 6.45 Q4.0 5.85 3.9 5.25 L3.95 5.35 Q4.2 6.0 4.05 6.7 L3.95 6.7 M2.05 7.4 L2.2 7.65 2.45 7.75 2.6 7.7 2.85 7.95 2.95 7.95 Q3.4 7.85 3.55 7.4 L3.65 7.35 3.4 8.05 2.8 8.15 2.6 7.95 2.3 7.95 2.2 7.85 Q2.05 7.65 2.05 7.4" fill="#686262" fill-rule="evenodd" stroke="none"/>
      <path d="M4.75 0.2 L4.7 0.15 4.65 0.15 4.55 0.2 4.5 0.2 4.6 0.25 4.6 0.35 4.6 0.75 4.3 0.55 4.15 0.55 4.05 0.7 4.45 1.5 4.15 2.1 3.9 2.1 3.8 1.95 3.5 1.95 3.4 2.45 Q2.75 2.95 2.0 3.3 L1.4 4.1 1.5 4.45 1.2 4.4 1.05 4.5 Q0.95 4.6 1.0 4.65 L0.8 4.8 0.55 4.75 0.45 4.55 Q0.75 4.1 0.6 3.6 L0.5 3.3 0.5 3.1 0.95 3.05 Q1.8 2.2 2.55 1.2 3.35 0.35 4.4 0.05 L4.6 0.05 4.75 0.2 M3.2 3.65 L3.8 3.85 4.05 4.45 4.2 4.4 4.25 4.3 4.25 4.55 4.35 4.6 4.45 4.55 4.55 4.55 Q4.4 4.8 4.35 5.1 L4.35 5.3 4.45 5.35 4.6 5.1 Q4.65 5.2 4.8 5.25 4.85 6.1 4.5 6.75 L4.45 6.8 4.45 6.65 4.4 6.6 4.0 6.8 4.05 7.4 Q4.25 7.55 4.5 7.55 4.85 7.5 5.0 7.3 L4.75 7.7 4.5 7.8 4.05 7.7 3.95 7.55 3.8 7.0 3.3 7.1 2.85 7.0 2.85 7.1 3.05 7.2 2.95 7.25 2.65 7.05 2.9 6.9 Q4.1 6.85 3.55 5.7 3.5 5.6 3.35 5.6 3.4 6.1 3.0 6.45 L2.9 6.5 2.9 6.6 2.5 6.8 2.7 6.55 2.4 6.0 Q2.5 5.8 2.5 5.55 L2.5 5.2 3.05 5.45 3.15 5.8 3.3 5.8 3.3 5.3 3.4 5.3 3.4 5.15 3.35 5.05 2.25 4.65 2.25 4.55 2.05 4.45 2.1 3.9 2.3 3.8 2.65 4.3 2.75 4.25 2.7 4.0 2.85 3.75 3.0 3.75 3.2 3.65 M4.15 3.8 L4.1 3.65 Q4.6 3.8 4.7 4.3 L4.7 4.45 4.65 4.4 Q4.65 4.15 4.5 4.0 4.35 3.8 4.15 3.8 M4.85 4.8 L4.9 4.85 4.85 4.85 4.85 4.8 M4.95 6.65 L5.05 6.7 5.0 6.75 4.95 6.65 M4.0 0.5 Q3.05 0.85 2.4 1.7 L2.45 1.95 Q1.7 2.4 1.25 3.05 1.05 3.05 0.9 3.2 L0.75 3.35 0.7 3.5 0.8 4.35 0.9 4.4 Q1.05 4.35 1.05 4.25 L1.1 4.15 1.1 3.8 1.45 3.65 1.5 3.55 1.45 3.35 Q2.05 2.85 2.75 2.45 3.1 2.25 3.3 1.9 L3.9 1.85 Q4.05 1.75 4.05 1.6 L3.95 1.3 3.85 0.95 4.05 0.6 4.0 0.5 M1.65 4.55 L1.7 4.6 1.45 4.6 1.6 4.55 1.65 4.55 M0.4 7.0 L0.35 6.55 0.55 6.4 Q0.7 6.3 0.9 6.3 L2.0 6.1 2.1 6.2 Q2.3 6.3 2.3 6.55 L2.15 6.65 Q1.95 6.85 1.8 7.2 L1.65 7.2 Q1.65 7.1 1.6 7.05 1.55 7.0 1.5 7.0 L1.6 6.8 0.75 6.5 0.7 6.5 0.6 6.45 0.45 6.55 0.45 6.65 0.5 6.7 0.5 6.8 Q0.95 7.3 1.6 7.25 L1.5 7.4 1.0 7.4 0.4 7.0 M0.9 6.45 Q1.4 6.8 1.85 6.45 L1.85 6.35 1.7 6.25 0.9 6.3 0.9 6.45 M2.7 5.5 L2.7 5.6 2.75 5.65 2.75 5.9 2.55 6.0 2.75 6.4 3.0 6.4 Q3.1 6.15 3.05 5.9 L3.0 5.6 2.85 5.45 2.7 5.5 M2.4 6.9 L2.4 7.25 Q2.75 7.6 3.2 7.55 L3.5 7.45 3.45 7.35 3.65 7.35 3.55 7.4 Q3.4 7.85 2.95 7.95 L2.85 7.95 2.6 7.7 2.45 7.75 2.2 7.65 2.05 7.4 2.1 7.25 Q2.2 7.05 2.4 6.9 M3.7 4.4 L3.9 4.4 3.95 4.35 3.95 4.2 3.75 3.9 3.05 3.95 3.1 4.05 3.7 4.3 3.7 4.4 M4.25 4.7 Q4.1 4.5 3.85 4.45 L3.7 4.45 3.6 4.55 4.1 4.8 4.25 4.7 M4.3 6.5 Q4.75 6.1 4.35 5.65 L4.3 5.75 Q4.4 6.1 4.2 6.45 L4.3 6.5 M3.95 6.7 L4.05 6.7 Q4.2 6.0 3.95 5.35 L3.9 5.25 Q4.0 5.85 3.9 6.45 L3.85 6.7 3.95 6.7 M4.45 6.85 L4.4 6.9 4.45 7.0 4.35 7.1 4.25 7.0 4.45 6.85 M4.9 7.15 L5.1 7.1 5.05 7.2 4.9 7.15" fill="#8d8d8d" fill-rule="evenodd" stroke="none"/>
    </g>
  </defs>
</svg>
