<?xml version="1.0" encoding="UTF-8" standalone="no"?>
<svg xmlns:ffdec="https://www.free-decompiler.com/flash" xmlns:xlink="http://www.w3.org/1999/xlink" ffdec:objectType="frame" height="307.3px" width="338.45px" xmlns="http://www.w3.org/2000/svg">
  <g transform="matrix(1.0, 0.0, 0.0, 1.0, 188.65, 335.65)">
    <use ffdec:characterId="1100" height="39.55" transform="matrix(7.0, 0.0, 0.0, 7.0, -188.65, -335.65)" width="48.35" xlink:href="#shape0"/>
  </g>
  <defs>
    <g id="shape0" transform="matrix(1.0, 0.0, 0.0, 1.0, 26.95, 47.95)">
      <path d="M15.65 -33.2 L15.2 -33.35 15.85 -35.5 15.65 -33.2 M15.35 -41.8 L15.5 -41.6 15.1 -40.3 16.15 -36.55 15.9 -36.0 14.0 -39.45 15.35 -41.8 M4.05 -45.6 L4.15 -45.85 9.7 -47.95 8.05 -46.55 6.45 -46.3 4.05 -45.6 M15.55 -44.0 L15.4 -42.5 14.8 -45.6 15.95 -45.35 15.55 -44.0 M17.25 -31.35 L18.2 -30.3 18.0 -29.8 18.95 -29.35 20.35 -27.65 20.1 -26.7 21.4 -24.65 16.05 -30.85 17.25 -31.35 M20.35 -22.7 L20.85 -22.4 20.3 -21.85 20.35 -22.7 M20.05 -19.0 L19.85 -14.4 19.2 -19.3 19.55 -19.85 20.05 -19.0 M10.1 -11.25 L9.65 -10.95 8.7 -11.15 7.7 -10.25 8.85 -11.75 10.1 -11.25 M2.6 -9.7 L4.05 -9.5 6.8 -8.4 3.4 -8.65 2.6 -9.7 M13.85 -11.1 L14.15 -10.85 13.8 -10.25 13.15 -10.7 11.95 -10.6 11.8 -10.95 13.85 -11.1 M15.35 -10.1 L16.4 -9.7 15.7 -9.7 15.35 -10.1 M-12.35 -46.0 L-17.15 -44.7 -17.1 -44.3 -17.9 -43.85 Q-18.2 -45.0 -17.45 -45.6 -15.05 -47.45 -12.2 -46.5 L-12.35 -46.0 M-20.05 -40.65 L-19.7 -40.75 -19.95 -38.7 -20.55 -39.3 -20.15 -41.15 -19.6 -41.4 -19.7 -40.85 -20.05 -40.65 M-20.6 -36.75 L-20.05 -37.75 -19.6 -36.2 -20.3 -35.3 -20.35 -35.6 -20.6 -36.75 M-18.0 -36.85 L-18.25 -36.65 -18.1 -36.95 -18.0 -36.85 M-18.4 -29.9 L-19.75 -30.8 -20.1 -33.4 -17.05 -29.9 -17.2 -27.15 -18.75 -27.8 -18.4 -29.9 M-26.95 -15.3 L-26.75 -16.45 -22.9 -18.15 -22.6 -20.0 -22.3 -17.05 -25.8 -15.85 -25.6 -15.6 -25.85 -15.55 -24.35 -14.3 -24.1 -14.0 -26.95 -15.3 M-15.85 -26.15 L-15.65 -26.1 -15.65 -26.05 -15.85 -26.15 M-14.05 -12.85 L-13.85 -12.4 -20.6 -11.6 -21.6 -13.2 -14.75 -12.95 -14.05 -12.85 M-15.0 -23.6 L-15.25 -23.5 -19.7 -22.55 -16.7 -24.5 -15.0 -24.0 -15.0 -23.6" fill="#fff3f0" fill-rule="evenodd" stroke="none"/>
      <path d="M-12.2 -46.5 L-11.9 -46.4 -12.35 -46.0 -12.2 -46.5 M-5.3 -41.55 L-6.1 -40.9 -6.05 -42.6 -5.1 -42.0 -5.3 -41.55" fill="#ffffff" fill-rule="evenodd" stroke="none"/>
    </g>
  </defs>
</svg>
