<?xml version="1.0" encoding="UTF-8" standalone="no"?>
<svg xmlns:ffdec="https://www.free-decompiler.com/flash" xmlns:xlink="http://www.w3.org/1999/xlink" ffdec:objectType="frame" height="127.65px" width="425.7px" xmlns="http://www.w3.org/2000/svg">
  <g transform="matrix(1.0, 0.0, 0.0, 1.0, 15.0, -194.7)">
    <use ffdec:characterId="802" height="127.65" transform="matrix(1.0, 0.0, 0.0, 1.0, -15.0, 194.7)" width="425.7" xlink:href="#shape0"/>
  </g>
  <defs>
    <g id="shape0" transform="matrix(1.0, 0.0, 0.0, 1.0, 15.0, -194.7)">
      <path d="M398.6 272.8 Q405.3 273.15 408.35 274.8 410.7 276.1 410.7 278.8 410.7 281.5 399.25 287.85 390.9 292.45 382.15 296.2 380.75 296.8 377.8 299.5 L375.35 301.75 372.05 304.55 Q368.35 307.4 364.35 309.0 L364.35 309.2 360.95 312.1 Q352.1 318.9 341.6 318.9 L332.35 318.4 268.4 318.0 261.95 317.45 255.5 316.8 214.35 316.8 205.95 317.55 197.2 318.0 Q177.85 318.0 163.95 316.2 150.1 314.45 130.15 314.45 L120.55 315.2 115.85 315.5 97.8 316.8 61.2 317.25 Q59.2 317.65 46.7 317.65 L18.4 317.45 Q13.7 318.0 8.75 319.6 4.7 320.8 1.4 320.8 L-3.2 320.4 -9.7 319.5 -11.7 318.9 Q-6.65 318.75 2.25 315.35 L5.35 314.25 14.15 314.4 134.25 313.8 134.4 313.85 142.75 313.8 144.05 313.75 144.75 313.75 239.8 313.4 269.0 314.4 281.65 313.95 282.05 313.95 Q289.55 314.45 302.2 314.45 L311.65 314.25 320.55 314.9 328.85 315.5 328.8 315.7 328.95 315.5 332.65 315.7 329.9 315.1 330.2 315.05 339.2 315.8 342.05 315.7 348.15 315.35 354.0 311.2 354.95 310.4 355.0 310.4 359.2 307.8 363.5 305.0 364.4 304.4 364.4 304.3 366.15 302.9 366.2 302.9 375.4 297.05 381.8 292.75 Q400.05 280.5 400.05 277.45 400.05 276.45 399.85 276.45 L399.2 276.3 398.6 276.6 398.6 272.8" fill="#ebebc7" fill-rule="evenodd" stroke="none"/>
      <path d="M5.35 314.25 L0.25 314.0 -0.1 314.4 Q-1.3 315.25 -3.35 315.25 -5.9 315.25 -7.75 312.9 L-10.2 312.55 -8.4 312.0 Q-12.15 306.15 -12.8 289.8 -13.1 281.85 -12.65 272.25 L-12.15 264.1 Q-12.15 263.2 -13.1 253.55 L-14.2 243.1 Q-14.2 242.3 -12.7 237.65 L-12.15 235.75 -12.15 235.3 -12.25 231.85 -12.25 210.0 -12.85 198.5 -12.85 198.05 -15.0 198.05 -15.0 194.85 -11.5 194.85 -10.8 194.7 -10.05 194.85 -8.25 194.85 19.0 196.0 66.6 196.0 108.25 195.35 129.2 194.7 135.1 195.05 159.35 195.15 166.0 195.65 200.35 195.5 201.1 195.3 307.25 195.3 Q309.55 195.2 310.85 195.8 L311.75 196.45 313.7 197.85 312.8 198.35 Q313.0 199.0 312.8 199.85 312.75 201.8 311.25 206.25 L310.1 209.8 310.35 211.9 310.9 216.05 335.45 216.15 Q335.3 215.95 334.95 215.8 L336.3 216.15 337.15 216.15 337.35 215.85 340.15 216.0 344.8 218.7 344.0 219.2 Q344.45 219.85 344.4 220.7 344.8 222.65 344.25 227.1 L343.45 235.3 Q343.4 236.05 342.95 236.7 L342.95 236.75 359.45 236.8 359.05 236.45 360.25 236.8 361.0 236.8 361.15 236.5 363.7 236.65 368.05 239.35 367.35 239.85 Q367.8 240.5 367.8 241.35 368.25 243.3 368.05 247.75 L367.8 255.95 367.8 256.0 368.35 256.05 372.3 256.45 384.4 257.05 384.45 257.4 390.7 257.4 390.35 257.05 391.35 257.4 392.0 257.4 392.15 257.1 394.35 257.25 398.2 259.95 397.95 260.15 397.6 260.45 Q398.0 261.1 398.05 261.95 398.5 263.9 398.5 268.35 L398.6 272.8 398.6 276.6 399.2 276.3 399.85 276.45 Q400.05 276.45 400.05 277.45 400.05 280.5 381.8 292.75 L375.4 297.05 366.2 302.9 366.15 302.9 364.4 304.3 364.4 304.4 363.5 305.0 359.2 307.8 355.0 310.4 354.95 310.4 354.0 311.2 348.15 315.35 342.05 315.7 339.2 315.8 330.2 315.05 329.9 315.1 332.65 315.7 328.95 315.5 328.8 315.7 328.85 315.5 320.55 314.9 311.65 314.25 302.2 314.45 Q289.55 314.45 282.05 313.95 L281.65 313.95 269.0 314.4 239.8 313.4 144.75 313.75 144.05 313.75 143.35 313.75 134.25 313.8 14.15 314.4 5.35 314.25 M337.35 220.35 L338.35 219.75 337.3 218.2 302.6 218.55 300.55 219.45 298.45 220.35 291.15 224.1 290.8 224.3 289.35 225.1 287.25 225.9 288.55 225.2 291.15 223.55 Q304.4 214.85 308.2 208.55 L308.4 204.55 307.85 200.45 307.6 200.5 307.7 200.05 307.65 199.75 305.0 200.25 306.4 199.5 307.4 198.9 307.0 197.75 271.05 197.85 265.35 198.35 258.15 198.45 258.25 198.35 Q252.85 198.1 237.95 198.2 L238.8 197.9 225.6 197.95 225.55 198.4 223.05 198.45 223.05 197.95 200.85 198.0 Q200.1 198.25 166.0 198.35 L160.25 198.25 159.1 198.1 146.9 198.1 133.9 198.1 129.25 197.85 128.8 197.85 128.7 197.9 128.65 197.85 117.0 198.0 114.0 197.85 108.25 197.6 66.6 197.0 19.0 197.0 -8.25 198.05 -8.75 198.05 -8.75 198.5 -8.75 198.55 -8.85 201.15 -9.1 205.35 -9.15 205.9 -9.2 206.9 -9.3 209.0 -9.35 209.65 -9.4 210.0 -9.4 212.7 -9.4 225.05 -9.4 232.8 -6.4 232.85 -5.55 232.85 -5.75 232.9 -7.9 233.45 -8.65 233.65 -9.0 233.75 -7.1 234.15 Q-9.5 234.95 -9.9 236.0 L-9.9 237.3 Q-9.7 238.4 -8.9 239.0 L-8.15 239.35 -8.15 239.7 Q-8.15 241.0 -8.6 243.0 L-10.15 243.4 Q-10.5 247.55 -11.25 250.7 -9.75 251.8 -7.0 252.05 L-6.85 258.85 Q-6.55 270.4 -6.55 276.75 -6.55 282.7 -5.65 294.5 -5.45 297.9 -4.4 301.05 -3.6 303.65 -2.15 306.15 L0.35 310.75 12.55 310.4 14.15 310.4 204.15 311.3 216.0 311.1 220.6 311.05 241.05 310.85 247.7 311.2 280.35 311.05 282.5 311.1 Q289.2 310.75 296.75 310.75 L304.6 310.85 334.95 312.6 336.9 312.4 342.05 311.95 345.0 311.75 346.6 311.8 346.7 311.85 348.4 311.0 351.0 309.6 352.5 308.15 357.15 304.2 358.5 303.15 362.65 299.95 363.75 299.1 363.75 299.2 363.95 300.55 Q367.2 297.55 373.7 292.65 L374.8 291.85 Q383.55 285.25 391.2 280.7 395.75 275.05 396.65 270.65 L395.65 266.65 Q394.85 264.05 393.65 261.85 L391.6 262.35 392.55 261.6 393.3 261.0 392.8 260.15 392.3 259.45 380.0 259.65 372.3 260.0 372.05 260.0 367.1 260.0 364.5 259.9 363.85 259.8 359.8 261.85 358.1 262.9 358.0 262.95 Q356.55 263.8 355.05 264.8 L348.75 268.7 348.0 269.0 349.7 267.9 351.55 266.7 353.55 265.05 355.45 263.5 355.95 263.0 358.9 260.2 361.75 257.05 362.15 255.5 362.95 255.55 Q365.1 252.6 365.8 250.05 365.5 248.05 364.8 246.05 364.05 243.45 362.7 241.25 L360.3 241.75 361.45 241.0 362.3 240.4 361.25 238.85 338.8 239.1 338.7 239.15 334.2 241.2 332.2 242.25 332.1 242.3 332.0 242.35 327.3 244.95 325.1 245.8 327.0 244.4 329.8 242.4 329.8 242.35 329.85 242.3 331.0 241.45 333.25 239.55 333.7 239.15 334.65 238.35 Q340.0 233.35 341.65 229.4 341.4 227.4 340.8 225.4 340.1 222.8 338.7 220.6 L336.05 221.1 337.35 220.35 M318.45 251.05 L318.65 250.9 318.45 251.05 M277.8 272.65 L273.85 270.15 276.35 269.2 276.95 269.0 277.55 268.8 288.2 264.4 295.65 261.0 300.15 258.85 300.15 258.15 308.1 254.55 308.9 254.2 301.6 259.6 300.15 259.9 300.15 259.5 290.15 265.65 287.7 267.15 286.75 267.65 286.55 267.8 286.45 267.9 285.8 268.25 283.25 269.75 282.05 270.45 277.8 272.65 M361.25 265.7 L362.75 264.8 361.5 265.6 361.5 265.65 360.2 266.5 359.85 266.55 361.25 265.7 M345.6 270.6 L345.1 270.95 343.95 271.75 Q343.35 272.1 342.7 272.6 L343.65 271.75 Q345.3 270.65 347.25 269.7 L345.7 270.75 345.6 270.6 M332.55 277.6 L331.55 278.45 Q328.95 279.5 326.55 280.85 L326.5 280.55 332.55 277.6 M321.1 284.35 Q319.45 285.55 318.25 286.75 L316.95 287.0 Q315.35 287.55 313.45 289.25 L311.95 290.65 309.25 292.95 310.15 293.35 308.9 294.05 308.5 293.15 Q307.9 291.95 306.15 291.25 L308.95 290.1 310.5 289.45 319.85 284.95 321.1 284.35 M316.9 294.0 L317.1 294.05 316.8 294.2 316.75 294.05 316.9 294.0 M241.05 200.7 L240.2 201.0 237.95 200.75 241.3 200.6 241.05 200.7 M6.35 255.45 L6.05 255.6 5.9 255.3 6.35 255.45 M5.8 254.65 L5.6 254.7 5.35 254.65 5.8 254.65 M247.75 246.55 L247.05 247.0 245.55 247.8 244.4 248.45 238.6 251.25 237.75 250.8 237.0 248.3 241.8 246.45 242.85 246.05 250.85 242.75 260.15 238.65 259.5 238.65 268.75 234.75 262.85 238.65 261.75 238.65 249.35 245.65 247.75 246.55 M224.6 209.65 L225.25 209.5 225.25 209.65 224.6 209.65 M220.6 269.7 L221.2 269.8 220.6 269.75 219.65 269.7 220.45 269.7 220.6 269.7 M-11.35 244.0 Q-13.1 245.05 -13.1 247.1 L-12.25 249.7 -11.35 250.6 Q-11.1 247.9 -11.35 244.0" fill="#92ad52" fill-rule="evenodd" stroke="none"/>
      <path d="M326.9 222.45 L324.15 221.8 322.45 221.3 307.1 221.6 303.6 222.8 287.5 228.25 284.55 229.8 280.65 232.65 280.45 232.8 275.05 235.05 255.6 246.35 Q255.6 248.55 256.75 249.5 258.4 250.8 263.15 250.8 268.75 250.8 280.15 244.65 286.1 241.45 293.1 237.0 296.5 235.15 305.9 231.25 309.7 229.45 312.05 227.7 315.9 226.2 319.4 225.05 323.35 223.45 326.9 222.45 M300.55 219.45 L302.6 218.55 337.3 218.2 338.35 219.75 337.35 220.35 Q331.9 222.25 323.95 226.2 L320.2 228.1 Q316.3 229.8 312.3 231.65 300.45 236.05 295.7 238.3 288.0 241.95 282.45 245.95 L279.45 247.4 273.05 250.5 273.05 250.55 272.1 250.95 268.7 252.45 248.05 252.45 242.95 253.3 238.4 253.3 237.95 251.6 238.6 251.25 244.4 248.45 245.55 247.8 249.15 247.35 247.9 247.5 247.75 246.55 249.35 245.65 261.75 238.65 262.85 238.65 268.75 234.75 272.85 232.35 Q278.8 229.15 287.25 225.9 L289.35 225.1 290.8 224.3 296.3 221.75 300.55 219.45 M325.1 245.8 L327.3 244.95 332.0 242.35 332.1 242.3 332.2 242.25 334.2 241.2 338.7 239.15 338.8 239.1 361.25 238.85 362.3 240.4 361.45 241.0 Q356.65 242.9 349.7 246.85 L347.4 248.2 Q337.55 252.95 328.45 258.0 324.1 260.4 320.5 262.55 L318.6 263.6 312.85 266.8 309.9 268.5 304.35 271.6 304.35 271.65 300.55 273.55 281.9 273.55 278.35 274.25 Q277.45 273.8 276.35 273.3 L277.3 273.25 282.15 270.45 283.25 269.75 285.8 268.25 286.45 267.9 286.55 267.8 287.95 267.6 287.7 267.15 290.15 265.65 300.15 259.5 300.15 259.9 301.6 259.6 308.9 254.2 309.95 253.35 Q316.5 249.1 325.1 245.8 M348.0 269.0 L348.75 268.7 355.05 264.8 Q356.55 263.8 358.0 262.95 L358.1 262.9 359.8 261.85 363.85 259.8 364.5 259.9 367.1 260.0 372.05 260.0 372.3 260.0 380.0 259.65 392.3 259.45 392.8 260.15 393.3 261.0 392.55 261.6 Q389.2 263.15 384.75 266.15 383.35 266.85 381.65 267.8 L363.0 279.5 357.55 283.25 355.4 284.6 351.25 287.4 348.15 289.5 344.2 292.2 343.5 292.65 343.5 292.7 342.05 293.5 340.3 294.55 324.3 294.55 320.5 295.45 315.95 295.45 315.65 295.3 315.3 294.9 Q315.55 294.7 315.75 294.6 L321.1 294.3 322.65 293.35 322.75 293.25 322.35 293.3 320.8 293.5 319.85 293.75 317.85 294.1 317.1 294.05 316.9 294.0 316.85 294.0 315.25 294.1 311.65 293.7 310.15 293.35 309.25 292.95 311.95 290.65 313.45 289.25 Q315.35 287.55 316.95 287.0 L318.25 286.75 Q319.45 285.55 321.1 284.35 L324.1 282.25 326.55 280.85 Q328.95 279.5 331.55 278.45 L332.55 277.6 334.15 276.25 Q339.75 272.3 348.0 269.0 M-7.9 233.45 L-5.75 232.9 -5.55 232.85 -6.4 232.85 -9.4 232.8 -9.4 225.05 -2.8 225.0 22.45 223.95 Q30.65 223.8 30.65 227.1 30.65 228.75 24.25 232.1 L23.55 232.45 30.2 232.45 52.3 230.8 64.95 229.2 184.7 228.8 179.85 226.2 174.0 223.1 173.5 222.85 173.5 222.7 175.0 223.1 186.3 226.2 192.8 227.95 195.45 228.75 200.9 228.7 209.15 227.55 209.95 227.45 214.75 227.8 Q235.55 227.8 256.3 219.05 266.75 214.6 274.1 209.65 282.05 206.35 288.55 204.2 292.6 202.6 296.15 201.6 L293.7 200.95 292.2 200.45 258.55 201.05 253.4 201.55 241.05 200.7 241.3 200.6 237.95 200.75 234.6 200.25 205.2 200.25 189.7 200.7 179.45 200.85 160.8 200.7 Q159.85 199.7 156.85 200.35 149.25 202.6 142.8 204.05 134.9 206.45 112.95 207.1 L113.7 207.15 110.55 206.9 106.45 206.6 Q146.65 205.0 146.65 200.9 146.65 199.5 142.1 199.35 L146.9 198.1 159.1 198.1 160.25 198.25 166.0 198.35 Q200.1 198.25 200.85 198.0 L223.05 197.95 223.05 198.45 225.55 198.4 225.6 197.95 238.8 197.9 237.95 198.2 Q252.85 198.1 258.25 198.35 L258.15 198.45 265.35 198.35 271.05 197.85 307.0 197.75 307.4 198.9 306.4 199.5 Q300.8 201.4 292.5 205.35 L288.55 207.25 Q283.6 209.3 278.4 211.65 264.65 216.95 257.75 220.35 L253.55 222.55 Q250.65 223.85 247.65 225.3 L245.95 226.1 239.35 229.2 239.25 229.25 237.25 230.1 234.8 231.15 216.75 231.15 213.2 232.0 74.35 232.05 69.25 232.4 50.7 233.3 23.7 233.9 -5.35 234.15 Q-6.5 234.0 -7.9 233.45 M318.45 251.05 L315.55 252.65 315.1 252.9 Q311.05 255.6 307.4 258.6 L307.05 258.65 305.35 258.9 300.55 261.9 294.75 265.3 293.5 266.35 291.25 267.8 Q291.25 268.3 291.8 268.85 292.4 269.5 293.35 269.85 L298.55 269.85 Q311.25 264.7 324.5 257.15 332.0 252.85 337.5 249.1 341.75 247.1 345.5 245.7 L345.85 245.55 Q349.15 244.05 352.15 243.1 L349.65 242.45 348.05 241.95 337.9 242.15 Q327.6 246.1 318.65 250.9 L318.45 251.05 M333.85 242.6 L332.65 243.15 335.85 242.2 334.8 242.2 333.85 242.6 M345.6 270.6 L345.7 270.75 347.25 269.7 Q345.3 270.65 343.65 271.75 L342.7 272.6 Q343.35 272.1 343.95 271.75 L345.1 270.95 345.6 270.6 M361.5 265.65 L361.5 265.6 362.75 264.8 361.25 265.7 Q358.0 266.55 355.45 267.55 348.4 269.8 339.0 276.45 334.25 279.85 330.1 283.5 326.5 286.7 326.5 287.1 326.5 288.35 327.3 288.8 328.4 289.4 331.8 289.4 338.35 289.4 350.7 282.4 L352.65 281.5 355.65 279.65 355.3 279.65 358.0 277.95 361.4 275.75 363.9 274.6 Q365.4 273.65 366.85 272.8 373.5 268.75 379.1 266.3 382.0 264.7 384.65 263.7 L382.45 263.05 381.05 262.55 376.3 262.7 372.1 263.4 Q366.1 264.4 361.5 265.65 M262.95 274.4 L262.45 273.9 263.15 273.85 263.5 274.4 262.95 274.4 M228.45 253.3 L227.65 252.35 228.95 252.3 229.45 253.3 228.45 253.3 M147.8 216.65 Q146.95 215.8 146.6 214.9 L150.35 215.2 153.3 216.5 152.25 217.35 150.15 217.8 Q148.95 217.8 147.8 216.65 M127.2 214.7 L127.5 214.9 127.65 215.95 127.5 217.1 127.2 217.0 123.65 217.4 121.55 217.2 120.5 216.65 Q120.35 217.3 120.35 215.7 120.35 214.75 121.75 214.4 L127.2 214.7 M137.55 222.15 Q137.4 222.6 136.5 223.05 L136.1 223.25 134.35 223.5 133.25 223.25 131.95 222.3 Q131.1 221.45 130.75 220.55 132.2 219.95 134.55 220.85 L137.55 222.15 M103.9 221.35 Q103.9 220.4 105.35 220.0 L110.9 220.35 111.2 220.55 111.35 221.6 111.2 222.8 110.9 222.7 107.3 223.1 105.15 222.9 Q104.75 222.8 104.05 222.3 103.9 223.0 103.9 221.35 M63.1 215.3 L61.8 216.4 Q60.5 217.25 59.75 217.25 58.85 217.25 58.2 216.55 L57.55 215.75 Q59.05 214.25 59.9 214.05 61.2 213.75 63.1 215.3 M78.95 214.55 L79.1 214.3 Q79.7 214.2 80.5 214.6 81.35 215.0 81.55 215.5 L80.9 215.75 79.9 215.45 78.75 215.3 78.95 214.55 M267.05 206.05 Q268.0 205.0 269.45 204.55 L271.55 204.25 272.25 205.55 271.65 206.45 Q271.05 207.0 269.65 207.0 L267.8 206.7 267.05 206.05 M297.75 295.1 L298.65 295.05 298.9 295.45 298.25 295.45 297.75 295.1 M307.25 294.6 L307.9 294.6 307.45 294.9 307.25 294.6 M234.6 208.55 L239.55 208.95 239.85 209.95 239.55 211.25 235.9 211.65 234.6 211.6 233.9 211.4 233.1 210.8 Q232.95 211.45 232.95 209.85 232.95 209.0 234.15 208.65 L234.6 208.55 M189.75 217.35 L188.85 217.35 188.5 217.15 188.5 217.0 189.75 217.35" fill="#bfcf9a" fill-rule="evenodd" stroke="none"/>
      <path d="M326.9 222.45 Q323.35 223.45 319.4 225.05 315.9 226.2 312.05 227.7 309.7 229.45 305.9 231.25 296.5 235.15 293.1 237.0 286.1 241.45 280.15 244.65 268.75 250.8 263.15 250.8 258.4 250.8 256.75 249.5 255.6 248.55 255.6 246.35 L275.05 235.05 280.45 232.8 280.65 232.65 284.55 229.8 287.5 228.25 303.6 222.8 307.1 221.6 322.45 221.3 324.15 221.8 326.9 222.45 M304.6 310.85 L296.75 310.75 296.8 310.45 297.05 308.35 297.1 307.6 304.95 307.75 304.9 308.35 304.65 310.5 304.6 310.85 M-9.4 225.05 L-9.4 212.7 -2.85 212.25 40.7 210.35 45.05 210.8 47.6 210.6 49.25 210.25 47.4 210.05 98.0 207.25 103.0 207.2 106.15 206.6 106.45 206.6 110.55 206.9 113.7 207.15 112.95 207.1 Q134.9 206.45 142.8 204.05 149.25 202.6 156.85 200.35 159.85 199.7 160.8 200.7 L179.45 200.85 189.7 200.7 205.2 200.25 234.6 200.25 237.95 200.75 240.2 201.0 241.05 200.7 253.4 201.55 258.55 201.05 292.2 200.45 293.7 200.95 296.15 201.6 Q292.6 202.6 288.55 204.2 282.05 206.35 274.1 209.65 266.75 214.6 256.3 219.05 235.55 227.8 214.75 227.8 L209.95 227.45 209.15 227.55 200.9 228.7 195.45 228.75 192.8 227.95 186.3 226.2 175.0 223.1 173.5 222.7 173.5 222.85 174.0 223.1 179.85 226.2 184.7 228.8 64.95 229.2 52.3 230.8 30.2 232.45 23.55 232.45 24.25 232.1 Q30.65 228.75 30.65 227.1 30.65 223.8 22.45 223.95 L-2.8 225.0 -9.4 225.05 M-9.15 205.9 L-9.1 205.35 -9.15 205.9 M333.85 242.6 L334.8 242.2 335.85 242.2 332.65 243.15 333.85 242.6 M318.65 250.9 Q327.6 246.1 337.9 242.15 L348.05 241.95 349.65 242.45 352.15 243.1 Q349.15 244.05 345.85 245.55 L345.5 245.7 Q341.75 247.1 337.5 249.1 332.0 252.85 324.5 257.15 311.25 264.7 298.55 269.85 L293.35 269.85 Q292.4 269.5 291.8 268.85 291.25 268.3 291.25 267.8 L293.5 266.35 294.75 265.3 300.55 261.9 305.35 258.9 307.05 258.65 307.4 258.6 Q311.05 255.6 315.1 252.9 L315.55 252.65 318.45 251.05 318.65 250.9 M361.25 265.7 L359.85 266.55 360.2 266.5 361.5 265.65 Q366.1 264.4 372.1 263.4 L376.3 262.7 381.05 262.55 382.45 263.05 384.65 263.7 Q382.0 264.7 379.1 266.3 373.5 268.75 366.85 272.8 365.4 273.65 363.9 274.6 L361.4 275.75 358.0 277.95 355.3 279.65 355.65 279.65 352.65 281.5 350.7 282.4 Q338.35 289.4 331.8 289.4 328.4 289.4 327.3 288.8 326.5 288.35 326.5 287.1 326.5 286.7 330.1 283.5 334.25 279.85 339.0 276.45 348.4 269.8 355.45 267.55 358.0 266.55 361.25 265.7 M310.15 293.35 L311.65 293.7 315.25 294.1 316.85 294.0 316.9 294.0 316.75 294.05 316.3 294.35 316.6 294.3 316.8 294.2 317.1 294.05 317.85 294.1 319.85 293.75 320.8 293.5 322.35 293.3 322.75 293.25 322.65 293.35 321.1 294.3 315.75 294.6 Q315.55 294.7 315.3 294.9 L315.1 295.0 315.05 295.0 Q312.55 294.15 305.8 295.75 L306.4 295.45 307.45 294.9 307.9 294.6 307.25 294.6 307.05 294.4 308.4 294.35 308.9 294.05 310.15 293.35 M137.55 222.15 L134.55 220.85 Q132.2 219.95 130.75 220.55 131.1 221.45 131.95 222.3 L133.25 223.25 134.35 223.5 136.1 223.25 136.5 223.05 Q137.4 222.6 137.55 222.15 M127.2 214.7 L121.75 214.4 Q120.35 214.75 120.35 215.7 120.35 217.3 120.5 216.65 L121.55 217.2 123.65 217.4 127.2 217.0 127.5 217.1 127.65 215.95 127.5 214.9 127.2 214.7 M147.8 216.65 Q148.95 217.8 150.15 217.8 L152.25 217.35 153.3 216.5 150.35 215.2 146.6 214.9 Q146.95 215.8 147.8 216.65 M112.4 200.5 L108.85 200.45 113.2 200.4 112.4 200.5 M103.1 210.25 L103.0 210.25 102.9 211.2 102.85 211.45 102.85 211.5 103.1 211.5 103.1 211.15 103.1 210.25 M103.9 221.35 Q103.9 223.0 104.05 222.3 104.75 222.8 105.15 222.9 L107.3 223.1 110.9 222.7 111.2 222.8 111.35 221.6 111.2 220.55 110.9 220.35 105.35 220.0 Q103.9 220.4 103.9 221.35 M78.95 214.55 L78.75 215.3 79.9 215.45 80.9 215.75 81.55 215.5 Q81.35 215.0 80.5 214.6 79.7 214.2 79.1 214.3 L78.95 214.55 M63.1 215.3 Q61.2 213.75 59.9 214.05 59.05 214.25 57.55 215.75 L58.2 216.55 Q58.85 217.25 59.75 217.25 60.5 217.25 61.8 216.4 L63.1 215.3 M267.05 206.05 L267.8 206.7 269.65 207.0 Q271.05 207.0 271.65 206.45 L272.25 205.55 271.55 204.25 269.45 204.55 Q268.0 205.0 267.05 206.05 M245.55 247.8 L247.05 247.0 247.75 246.55 247.9 247.5 249.15 247.35 245.55 247.8 M286.55 267.8 L286.75 267.65 287.7 267.15 287.95 267.6 286.55 267.8 M297.75 295.1 L297.45 294.85 298.5 294.75 298.65 295.05 297.75 295.1 M234.6 208.55 L234.15 208.65 Q232.95 209.0 232.95 209.85 232.95 211.45 233.1 210.8 L233.9 211.4 234.6 211.6 235.9 211.65 239.55 211.25 239.85 209.95 239.55 208.95 234.6 208.55 M224.6 209.65 L225.25 209.65 225.25 209.5 224.6 209.65 M189.75 217.35 L188.5 217.0 188.5 217.15 188.85 217.35 189.75 217.35" fill="#adc17d" fill-rule="evenodd" stroke="none"/>
      <path d="M142.75 313.8 L134.4 313.85 134.25 313.8 143.35 313.75 142.75 313.8 M337.35 220.35 L336.05 221.1 338.7 220.6 Q340.1 222.8 340.8 225.4 341.4 227.4 341.65 229.4 340.0 233.35 334.65 238.35 L333.7 239.15 333.25 239.55 331.0 241.45 329.85 242.3 329.8 242.35 329.8 242.4 327.0 244.4 325.1 245.8 Q316.5 249.1 309.95 253.35 L308.9 254.2 308.1 254.55 300.15 258.15 300.15 258.85 295.65 261.0 288.2 264.4 277.55 268.8 276.95 269.0 276.35 269.2 273.85 270.15 277.8 272.65 276.5 273.25 276.3 273.25 276.35 273.3 Q277.45 273.8 278.35 274.25 L281.9 273.55 300.55 273.55 304.35 271.65 304.35 271.6 309.9 268.5 312.85 266.8 318.6 263.6 320.5 262.55 Q324.1 260.4 328.45 258.0 337.55 252.95 347.4 248.2 L349.7 246.85 Q356.65 242.9 361.45 241.0 L360.3 241.75 362.7 241.25 Q364.05 243.45 364.8 246.05 365.5 248.05 365.8 250.05 365.1 252.6 362.95 255.55 L362.15 255.5 361.75 257.05 358.9 260.2 355.95 263.0 355.45 263.5 353.55 265.05 351.55 266.7 349.7 267.9 348.0 269.0 Q339.75 272.3 334.15 276.25 L332.55 277.6 326.5 280.55 326.55 280.85 324.1 282.25 321.1 284.35 319.85 284.95 310.5 289.45 308.95 290.1 306.15 291.25 Q307.9 291.95 308.5 293.15 L308.9 294.05 308.4 294.35 307.05 294.4 307.25 294.6 307.45 294.9 306.4 295.45 305.8 295.75 Q312.55 294.15 315.05 295.0 L315.1 295.0 315.3 294.9 315.65 295.3 315.95 295.45 320.5 295.45 324.3 294.55 340.3 294.55 342.05 293.5 343.5 292.7 343.5 292.65 344.2 292.2 348.15 289.5 351.25 287.4 355.4 284.6 357.55 283.25 363.0 279.5 381.65 267.8 Q383.35 266.85 384.75 266.15 389.2 263.15 392.55 261.6 L391.6 262.35 393.65 261.85 Q394.85 264.05 395.65 266.65 L396.65 270.65 Q395.75 275.05 391.2 280.7 383.55 285.25 374.8 291.85 L373.7 292.65 Q367.2 297.55 363.95 300.55 L363.75 299.2 374.75 290.4 379.3 286.6 383.8 282.85 385.45 281.1 Q394.4 271.3 393.65 268.8 393.3 267.45 392.6 266.55 L391.95 265.55 391.6 265.7 Q391.6 266.7 391.35 265.9 L363.2 282.3 Q352.25 289.3 346.3 295.6 345.05 298.05 344.75 300.55 344.45 302.7 344.85 304.9 L345.2 306.55 345.65 307.85 Q346.25 309.4 347.25 310.75 L350.5 308.2 355.5 304.25 357.95 302.3 363.7 297.65 363.75 299.1 362.65 299.95 358.5 303.15 357.15 304.2 352.5 308.15 351.0 309.6 348.4 311.0 346.7 311.85 346.6 311.8 345.0 311.75 342.05 311.95 336.9 312.4 334.95 312.6 304.6 310.85 304.65 310.5 304.9 308.35 304.95 307.75 297.1 307.6 297.05 308.35 296.8 310.45 296.75 310.75 Q289.2 310.75 282.5 311.1 L280.35 311.05 247.7 311.2 241.05 310.85 220.6 311.05 216.0 311.1 204.15 311.3 14.15 310.4 12.55 310.4 0.35 310.75 -2.15 306.15 Q-3.6 303.65 -4.4 301.05 -2.45 302.5 0.7 303.35 3.9 304.25 9.0 304.9 L30.25 306.4 92.35 306.6 96.0 306.6 106.85 306.7 107.3 306.95 109.35 307.1 112.15 306.45 116.7 305.25 120.55 304.55 123.9 303.95 123.45 303.35 120.6 299.3 120.55 299.25 Q117.75 295.9 115.1 291.95 112.45 287.75 103.85 280.4 L89.05 267.05 90.2 267.05 Q97.7 271.8 105.6 279.15 116.15 288.9 119.0 291.15 L120.55 292.3 Q123.55 294.95 129.5 298.7 L136.45 302.9 137.35 303.4 139.5 304.75 140.65 304.75 147.45 305.1 170.35 305.1 Q195.4 304.15 217.4 304.5 L220.6 304.55 277.2 305.1 285.85 305.4 318.25 305.75 324.05 306.7 330.85 307.65 335.5 308.55 336.05 308.0 336.4 307.6 Q337.55 306.0 337.55 304.35 L337.3 303.0 Q337.1 302.3 335.3 300.85 L333.55 299.45 322.9 300.15 322.75 300.15 317.15 300.85 317.0 300.85 309.45 300.55 Q303.05 299.9 299.85 298.05 L298.55 297.1 Q297.45 296.15 297.1 294.45 L296.95 294.35 Q295.85 293.2 295.65 291.8 295.55 290.75 296.7 288.0 297.7 285.6 297.05 284.3 L296.85 284.0 Q297.05 283.0 296.7 281.95 L296.25 281.3 294.45 279.8 292.5 278.45 281.1 278.9 273.2 277.85 269.6 277.35 265.7 276.2 Q263.9 275.4 262.95 274.4 L263.5 274.4 263.15 273.85 263.1 273.8 262.4 273.8 Q261.6 272.65 261.6 271.3 261.6 270.0 262.35 267.55 L258.7 266.9 254.8 266.25 Q252.55 266.25 247.75 268.3 245.3 269.3 242.25 270.8 L239.9 272.0 226.15 278.95 Q247.9 266.15 253.8 263.35 256.75 261.95 259.15 261.1 261.35 260.25 263.1 259.9 L262.35 259.35 261.55 258.75 Q260.4 257.9 259.45 257.35 L247.3 257.75 244.4 257.5 Q235.85 256.85 232.1 255.4 L231.05 255.0 Q229.5 254.3 228.45 253.3 L229.45 253.3 228.95 252.3 227.65 252.35 Q226.5 250.75 226.5 248.7 L227.05 245.0 Q227.2 243.85 227.0 242.9 228.35 241.25 228.35 239.6 L228.35 239.3 Q228.05 238.6 226.6 237.45 L225.05 236.05 220.6 236.1 214.1 236.7 144.25 236.7 Q137.75 236.2 136.4 235.25 135.25 234.5 124.0 233.95 L62.15 233.25 61.05 233.3 59.25 234.35 Q59.25 237.8 73.2 250.65 L72.0 250.95 Q63.55 246.3 54.9 240.55 47.15 235.35 46.5 234.0 L28.2 235.15 12.15 236.1 10.3 236.2 6.1 236.4 4.8 236.45 -3.7 236.75 Q-6.6 239.2 -6.6 242.4 L-6.6 242.75 -8.6 243.0 Q-8.15 241.0 -8.15 239.7 L-8.15 239.35 -8.9 239.0 Q-9.7 238.4 -9.9 237.3 L-9.9 236.0 Q-9.5 234.95 -7.1 234.15 L-9.0 233.75 -8.65 233.65 -7.9 233.45 Q-6.5 234.0 -5.35 234.15 L23.7 233.9 50.7 233.3 69.25 232.4 74.35 232.05 213.2 232.0 216.75 231.15 234.8 231.15 237.25 230.1 239.25 229.25 239.35 229.2 245.95 226.1 247.65 225.3 Q250.65 223.85 253.55 222.55 L257.75 220.35 Q264.65 216.95 278.4 211.65 283.6 209.3 288.55 207.25 L292.5 205.35 Q300.8 201.4 306.4 199.5 L305.0 200.25 307.65 199.75 307.7 200.05 307.6 200.5 307.85 200.45 308.4 204.55 308.2 208.55 Q304.4 214.85 291.15 223.55 L288.55 225.2 287.25 225.9 Q278.8 229.15 272.85 232.35 L268.75 234.75 259.5 238.65 260.15 238.65 250.85 242.75 242.85 246.05 241.8 246.45 237.0 248.3 237.75 250.8 238.6 251.25 237.95 251.6 238.4 253.3 242.95 253.3 248.05 252.45 268.7 252.45 272.1 250.95 273.05 250.55 273.05 250.5 279.45 247.4 282.45 245.95 Q288.0 241.95 295.7 238.3 300.45 236.05 312.3 231.65 316.3 229.8 320.2 228.1 L323.95 226.2 Q331.9 222.25 337.35 220.35 M-9.35 209.65 L-9.3 209.0 -9.2 206.9 -9.15 205.9 -9.1 205.35 -8.85 201.15 -8.75 198.55 -8.75 198.5 -8.75 198.05 -8.25 198.05 19.0 197.0 66.6 197.0 108.25 197.6 114.0 197.85 117.0 198.0 128.65 197.85 128.7 197.9 128.8 197.85 129.25 197.85 133.9 198.1 146.9 198.1 142.1 199.35 Q146.65 199.5 146.65 200.9 146.65 205.0 106.45 206.6 L106.15 206.6 105.0 206.5 104.4 206.4 78.5 206.4 76.8 206.85 31.4 207.1 11.9 206.2 14.5 206.45 47.4 210.05 49.25 210.25 47.6 210.6 45.05 210.8 40.7 210.35 34.75 209.7 16.05 208.6 Q15.05 208.6 13.8 209.6 12.5 210.55 9.75 210.55 L-9.35 209.65 M336.9 225.3 L336.15 224.3 Q328.65 226.3 322.3 228.75 L314.05 232.7 298.15 240.3 Q291.65 243.3 281.05 250.95 L275.1 255.45 Q273.9 257.5 273.5 259.6 L273.5 259.7 273.4 260.65 Q273.15 262.55 273.65 264.45 274.3 266.75 275.75 268.65 L276.65 268.15 288.3 261.55 298.45 255.65 299.2 255.15 299.65 254.9 299.8 255.65 310.85 249.3 311.55 248.8 312.0 248.55 317.35 245.35 323.55 241.6 325.9 239.85 Q338.6 230.05 337.9 227.55 L336.9 225.3 M361.3 245.95 L360.6 244.95 Q353.0 247.25 346.85 250.1 L345.85 250.5 344.9 250.9 Q331.95 258.0 325.35 261.95 310.65 270.75 305.5 279.35 L305.3 280.7 Q305.0 283.1 305.7 285.55 306.45 287.85 307.85 289.7 L309.85 288.4 310.35 288.1 310.65 287.9 310.95 287.7 319.6 282.0 326.5 277.4 326.45 278.1 326.45 278.5 338.3 270.6 339.95 269.45 Q342.45 267.65 344.85 266.0 L345.85 265.35 350.3 262.25 352.3 260.5 Q363.15 250.7 362.35 248.2 361.95 246.85 361.3 245.95 M130.0 246.3 L133.85 247.0 134.1 248.0 131.55 249.7 129.7 250.45 Q127.9 250.45 127.0 249.15 126.4 248.3 126.4 247.65 L126.45 246.65 126.75 246.2 130.0 246.3 M112.4 200.5 L113.2 200.4 108.85 200.45 112.4 200.5 M82.4 260.8 L84.9 262.55 86.9 264.25 Q84.65 263.25 81.75 261.0 L82.4 260.8 M152.45 251.3 Q151.1 250.95 150.45 250.45 L150.3 249.75 Q151.0 248.55 151.5 248.35 L153.95 248.65 154.1 248.55 154.25 249.65 154.1 250.6 Q153.95 250.65 153.95 250.95 L152.45 251.3 M157.7 290.65 L156.45 290.4 156.0 289.8 157.0 288.3 159.7 288.15 Q159.7 288.5 160.35 289.45 159.5 290.65 157.7 290.65 M23.05 278.35 Q25.2 278.05 31.3 279.1 L31.95 280.05 Q29.25 281.75 22.55 282.05 L21.35 281.9 Q20.95 281.8 20.95 280.75 20.95 278.65 23.05 278.35 M64.95 284.1 Q67.6 284.05 71.35 286.8 L69.6 288.0 Q68.3 288.65 66.85 288.65 64.95 288.65 63.7 287.7 62.55 286.85 62.55 286.15 62.55 284.1 64.95 284.1 M305.25 206.7 Q305.25 205.35 304.75 204.45 L304.25 203.45 Q295.85 205.75 288.55 208.6 L285.9 209.5 Q269.7 217.05 261.25 221.3 L258.55 223.3 258.55 222.65 257.8 223.0 Q248.75 227.65 241.8 232.1 L241.55 232.4 Q238.55 235.55 237.4 238.8 236.6 240.95 236.6 243.15 236.6 245.45 237.55 247.35 L241.15 245.45 250.8 240.25 258.55 236.05 258.55 237.25 271.75 230.1 281.85 224.5 288.55 220.75 291.15 219.0 Q305.25 209.2 305.25 206.7 M282.15 270.45 L282.05 270.45 283.25 269.75 282.15 270.45 M298.65 295.05 L298.5 294.75 297.45 294.85 297.75 295.1 298.25 295.45 298.9 295.45 298.65 295.05 M316.8 294.2 L316.6 294.3 316.3 294.35 316.75 294.05 316.8 294.2 M177.2 295.6 Q174.15 295.6 172.85 293.15 L172.2 290.65 Q172.2 286.45 176.2 285.95 180.45 285.4 184.7 290.3 183.85 291.7 181.15 293.65 178.45 295.6 177.2 295.6 M209.25 264.8 L208.7 264.15 Q208.95 262.7 210.1 261.8 211.45 260.55 213.25 261.5 213.25 262.0 213.7 262.9 L213.25 264.4 Q212.95 264.4 212.25 264.75 L210.7 265.05 209.25 264.8 M208.65 287.8 L208.7 289.15 Q208.7 290.5 207.9 291.0 L206.05 291.3 204.3 291.15 203.8 290.95 203.6 290.7 Q203.4 290.5 203.4 289.45 203.4 288.15 204.2 287.7 L206.4 287.3 207.6 287.35 208.55 287.65 208.65 287.8 M287.1 300.15 L287.5 299.65 287.9 300.15 287.1 300.15" fill="#a6c17b" fill-rule="evenodd" stroke="none"/>
      <path d="M363.75 299.2 L363.75 299.1 363.7 297.65 357.95 302.3 355.5 304.25 350.5 308.2 347.25 310.75 Q346.25 309.4 345.65 307.85 L345.2 306.55 344.85 304.9 Q344.45 302.7 344.75 300.55 345.05 298.05 346.3 295.6 352.25 289.3 363.2 282.3 L391.35 265.9 Q391.6 266.7 391.6 265.7 L391.95 265.55 392.6 266.55 Q393.3 267.45 393.65 268.8 394.4 271.3 385.45 281.1 L383.8 282.85 379.3 286.6 374.75 290.4 363.75 299.2 M-4.4 301.05 Q-5.45 297.9 -5.65 294.5 -6.55 282.7 -6.55 276.75 -6.55 270.4 -6.85 258.85 L-7.0 252.05 Q-9.75 251.8 -11.25 250.7 -10.5 247.55 -10.15 243.4 L-8.6 243.0 -6.6 242.75 -6.6 242.4 Q-6.6 239.2 -3.7 236.75 L4.8 236.45 6.1 236.4 10.3 236.2 12.15 236.1 28.2 235.15 46.5 234.0 Q47.15 235.35 54.9 240.55 63.55 246.3 72.0 250.95 L73.2 250.65 Q59.25 237.8 59.25 234.35 L61.05 233.3 62.15 233.25 124.0 233.95 Q135.25 234.5 136.4 235.25 137.75 236.2 144.25 236.7 L214.1 236.7 220.6 236.1 225.05 236.05 226.6 237.45 Q228.05 238.6 228.35 239.3 L228.35 239.6 Q228.35 241.25 227.0 242.9 227.2 243.85 227.05 245.0 L226.5 248.7 Q226.5 250.75 227.65 252.35 L228.45 253.3 Q229.5 254.3 231.05 255.0 L232.1 255.4 Q235.85 256.85 244.4 257.5 L247.3 257.75 259.45 257.35 Q260.4 257.9 261.55 258.75 L262.35 259.35 263.1 259.9 Q261.35 260.25 259.15 261.1 256.75 261.95 253.8 263.35 247.9 266.15 226.15 278.95 L239.9 272.0 242.25 270.8 Q245.3 269.3 247.75 268.3 252.55 266.25 254.8 266.25 L258.7 266.9 262.35 267.55 Q261.6 270.0 261.6 271.3 261.6 272.65 262.4 273.8 L263.1 273.8 263.15 273.85 262.45 273.9 262.95 274.4 Q263.9 275.4 265.7 276.2 L269.6 277.35 273.2 277.85 281.1 278.9 292.5 278.45 294.45 279.8 296.25 281.3 296.7 281.95 Q297.05 283.0 296.85 284.0 L297.05 284.3 Q297.7 285.6 296.7 288.0 295.55 290.75 295.65 291.8 295.85 293.2 296.95 294.35 L297.1 294.45 Q297.45 296.15 298.55 297.1 L299.85 298.05 Q303.05 299.9 309.45 300.55 L317.0 300.85 317.15 300.85 322.75 300.15 322.9 300.15 333.55 299.45 335.3 300.85 Q337.1 302.3 337.3 303.0 L337.55 304.35 Q337.55 306.0 336.4 307.6 L336.05 308.0 335.5 308.55 330.85 307.65 324.05 306.7 318.25 305.75 285.85 305.4 277.2 305.1 220.6 304.55 217.4 304.5 Q195.4 304.15 170.35 305.1 L147.45 305.1 140.65 304.75 139.5 304.75 137.35 303.4 136.45 302.9 129.5 298.7 Q123.55 294.95 120.55 292.3 L119.0 291.15 Q116.15 288.9 105.6 279.15 97.7 271.8 90.2 267.05 L89.05 267.05 103.85 280.4 Q112.45 287.75 115.1 291.95 117.75 295.9 120.55 299.25 L120.6 299.3 123.45 303.35 123.9 303.95 120.55 304.55 116.7 305.25 112.15 306.45 109.35 307.1 107.3 306.95 106.85 306.7 96.0 306.6 92.35 306.6 30.25 306.4 9.0 304.9 Q3.9 304.25 0.7 303.35 -2.45 302.5 -4.4 301.05 M-9.4 212.7 L-9.4 210.0 -9.35 209.65 9.75 210.55 Q12.5 210.55 13.8 209.6 15.05 208.6 16.05 208.6 L34.75 209.7 40.7 210.35 -2.85 212.25 -9.4 212.7 M336.9 225.3 L337.9 227.55 Q338.6 230.05 325.9 239.85 L323.55 241.6 317.35 245.35 312.0 248.55 311.55 248.8 310.85 249.3 299.8 255.65 299.65 254.9 299.2 255.15 298.45 255.65 288.3 261.55 276.65 268.15 275.75 268.65 Q274.3 266.75 273.65 264.45 273.15 262.55 273.4 260.65 L273.5 259.7 273.5 259.6 Q273.9 257.5 275.1 255.45 L281.05 250.95 Q291.65 243.3 298.15 240.3 L314.05 232.7 322.3 228.75 Q328.65 226.3 336.15 224.3 L336.9 225.3 M361.3 245.95 Q361.95 246.85 362.35 248.2 363.15 250.7 352.3 260.5 L350.3 262.25 345.85 265.35 344.85 266.0 Q342.45 267.65 339.95 269.45 L338.3 270.6 326.45 278.5 326.45 278.1 326.5 277.4 319.6 282.0 310.95 287.7 310.65 287.9 310.35 288.1 309.85 288.4 307.85 289.7 Q306.45 287.85 305.7 285.55 305.0 283.1 305.3 280.7 L305.5 279.35 Q310.65 270.75 325.35 261.95 331.95 258.0 344.9 250.9 L345.85 250.5 346.85 250.1 Q353.0 247.25 360.6 244.95 L361.3 245.95 M276.35 273.3 L276.3 273.25 276.5 273.25 277.8 272.65 282.05 270.45 282.15 270.45 277.3 273.25 276.35 273.3 M106.15 206.6 L103.0 207.2 98.0 207.25 47.4 210.05 14.5 206.45 11.9 206.2 31.4 207.1 76.8 206.85 78.5 206.4 104.4 206.4 105.0 206.5 106.15 206.6 M130.0 246.3 L126.75 246.2 126.45 246.65 126.4 247.65 Q126.4 248.3 127.0 249.15 127.9 250.45 129.7 250.45 L131.55 249.7 134.1 248.0 133.85 247.0 130.0 246.3 M103.1 210.25 L103.1 211.15 103.1 211.5 102.85 211.5 102.85 211.45 102.9 211.2 103.0 210.25 103.1 210.25 M157.7 290.65 Q159.5 290.65 160.35 289.45 159.7 288.5 159.7 288.15 L157.0 288.3 156.0 289.8 156.45 290.4 157.7 290.65 M152.45 251.3 L153.95 250.95 Q153.95 250.65 154.1 250.6 L154.25 249.65 154.1 248.55 153.95 248.65 151.5 248.35 Q151.0 248.55 150.3 249.75 L150.45 250.45 Q151.1 250.95 152.45 251.3 M82.4 260.8 L81.75 261.0 Q84.65 263.25 86.9 264.25 L84.9 262.55 82.4 260.8 M5.8 254.65 L5.35 254.65 5.6 254.7 5.8 254.65 M6.35 255.45 L5.9 255.3 6.05 255.6 6.35 255.45 M64.95 284.1 Q62.55 284.1 62.55 286.15 62.55 286.85 63.7 287.7 64.95 288.65 66.85 288.65 68.3 288.65 69.6 288.0 L71.35 286.8 Q67.6 284.05 64.95 284.1 M23.05 278.35 Q20.95 278.65 20.95 280.75 20.95 281.8 21.35 281.9 L22.55 282.05 Q29.25 281.75 31.95 280.05 L31.3 279.1 Q25.2 278.05 23.05 278.35 M93.1 319.8 L93.2 319.8 93.95 322.35 93.55 322.35 93.5 322.3 93.1 319.8 M305.25 206.7 Q305.25 209.2 291.15 219.0 L288.55 220.75 281.85 224.5 271.75 230.1 258.55 237.25 258.55 236.05 250.8 240.25 241.15 245.45 237.55 247.35 Q236.6 245.45 236.6 243.15 236.6 240.95 237.4 238.8 238.55 235.55 241.55 232.4 L241.8 232.1 Q248.75 227.65 257.8 223.0 L258.55 222.65 258.55 223.3 261.25 221.3 Q269.7 217.05 285.9 209.5 L288.55 208.6 Q295.85 205.75 304.25 203.45 L304.75 204.45 Q305.25 205.35 305.25 206.7 M177.2 295.6 Q178.45 295.6 181.15 293.65 183.85 291.7 184.7 290.3 180.45 285.4 176.2 285.95 172.2 286.45 172.2 290.65 L172.85 293.15 Q174.15 295.6 177.2 295.6 M209.25 264.8 L210.7 265.05 212.25 264.75 Q212.95 264.4 213.25 264.4 L213.7 262.9 Q213.25 262.0 213.25 261.5 211.45 260.55 210.1 261.8 208.95 262.7 208.7 264.15 L209.25 264.8 M220.6 269.7 L220.45 269.7 219.65 269.7 220.6 269.75 221.2 269.8 220.6 269.7 M208.65 287.8 L208.55 287.65 207.6 287.35 206.4 287.3 204.2 287.7 Q203.4 288.15 203.4 289.45 203.4 290.5 203.6 290.7 L203.8 290.95 204.3 291.15 206.05 291.3 207.9 291.0 Q208.7 290.5 208.7 289.15 L208.65 287.8 M287.1 300.15 L287.9 300.15 287.5 299.65 287.1 300.15 M-11.35 244.0 Q-11.1 247.9 -11.35 250.6 L-12.25 249.7 -13.1 247.1 Q-13.1 245.05 -11.35 244.0" fill="#94b562" fill-rule="evenodd" stroke="none"/>
    </g>
  </defs>
</svg>
