<?xml version="1.0" encoding="UTF-8" standalone="no"?>
<svg xmlns:ffdec="https://www.free-decompiler.com/flash" xmlns:xlink="http://www.w3.org/1999/xlink" ffdec:objectType="frame" height="260.4px" width="187.25px" xmlns="http://www.w3.org/2000/svg">
  <g transform="matrix(1.0, 0.0, 0.0, 1.0, 72.45, 259.7)">
    <use ffdec:characterId="27" height="37.2" transform="matrix(7.0, 0.0, 0.0, 7.0, -72.45, -259.7)" width="26.75" xlink:href="#shape0"/>
  </g>
  <defs>
    <g id="shape0" transform="matrix(1.0, 0.0, 0.0, 1.0, 10.35, 37.1)">
      <path d="M5.75 -25.65 L3.0 -25.25 5.3 -28.15 Q6.85 -29.35 8.1 -29.65 7.25 -28.5 6.35 -27.1 L5.75 -25.65 M2.3 -25.15 L-0.2 -24.8 4.3 -30.2 4.8 -30.55 Q6.7 -31.95 8.95 -32.2 8.25 -31.45 7.9 -31.15 L2.3 -25.15 M-0.55 -24.75 L-3.25 -24.35 -1.6 -27.8 -1.4 -28.05 0.3 -30.25 Q0.75 -30.7 1.25 -31.1 1.55 -31.3 1.85 -31.5 3.25 -32.4 5.45 -33.25 4.6 -32.6 3.8 -31.8 L3.55 -31.55 Q1.9 -29.85 0.75 -28.0 L-0.55 -24.75 M-5.3 -24.0 L-5.45 -24.0 -4.9 -30.5 Q-4.55 -31.35 -4.0 -32.25 L-4.0 -32.2 -4.3 -30.55 -5.3 -24.0 M-5.6 -23.95 L-5.8 -23.95 -6.6 -25.95 -5.6 -23.95 M1.9 -36.0 Q1.8 -35.25 1.5 -34.55 1.15 -33.7 -0.65 -31.15 L-3.95 -28.2 -1.65 -31.8 Q-0.25 -33.55 1.9 -36.0 M8.85 -27.6 L9.95 -28.3 Q11.7 -29.25 12.9 -29.25 L13.25 -29.25 13.4 -29.2 Q12.75 -28.75 12.3 -28.25 11.55 -27.45 9.5 -26.25 7.45 -25.05 7.05 -24.7 L7.2 -25.6 7.85 -26.45 8.85 -27.6 M11.0 -25.6 L11.35 -25.55 12.1 -25.45 14.15 -25.55 14.75 -25.7 15.05 -25.85 Q15.2 -25.95 15.45 -26.0 L15.4 -25.9 15.25 -25.55 14.45 -25.0 14.25 -24.9 Q13.55 -24.45 12.75 -24.1 11.3 -23.4 9.35 -23.15 L7.9 -23.2 Q8.75 -23.85 11.0 -25.6 M8.25 -21.25 L10.7 -21.75 Q12.15 -22.05 12.95 -22.3 11.85 -21.5 10.95 -21.0 L8.25 -21.25" fill="#cccccc" fill-rule="evenodd" stroke="none"/>
      <path d="M1.65 -21.35 L5.75 -25.65 6.35 -27.1 Q7.25 -28.5 8.1 -29.65 L8.85 -29.75 Q8.6 -29.3 8.6 -29.25 8.6 -29.05 8.35 -28.5 L8.2 -28.25 7.4 -26.9 7.2 -25.6 7.05 -24.7 Q7.45 -25.05 9.5 -26.25 11.55 -27.45 12.3 -28.25 12.75 -28.75 13.4 -29.2 L13.55 -29.2 13.5 -29.1 Q13.3 -28.6 11.8 -27.35 11.0 -26.7 10.45 -26.2 10.15 -26.1 10.15 -26.0 9.65 -25.65 9.65 -25.6 L9.7 -25.5 10.25 -25.6 10.5 -25.65 10.55 -25.65 10.7 -25.6 11.0 -25.6 Q8.75 -23.85 7.9 -23.2 L9.35 -23.15 Q11.3 -23.4 12.75 -24.1 13.55 -24.45 14.25 -24.9 L14.45 -25.0 15.25 -25.55 15.25 -25.5 13.65 -23.8 13.6 -23.75 Q11.65 -22.45 8.05 -21.75 L11.8 -22.35 12.3 -22.3 Q12.4 -22.3 12.4 -22.4 12.4 -22.45 12.55 -22.5 L13.9 -22.75 14.2 -22.8 14.55 -22.85 14.85 -22.85 Q14.7 -22.8 14.55 -22.75 13.7 -22.3 12.75 -21.2 L9.6 -17.9 Q9.75 -17.7 10.15 -17.5 11.55 -17.3 12.4 -17.0 L11.25 -16.25 Q9.45 -15.15 6.85 -15.1 6.5 -15.15 6.25 -15.25 L1.65 -21.35 M2.45 -25.2 L2.3 -25.15 7.9 -31.15 Q8.25 -31.45 8.95 -32.2 L9.8 -32.2 10.2 -32.15 10.5 -32.1 Q10.4 -31.85 10.15 -31.6 L9.9 -31.35 9.25 -30.35 8.85 -29.75 Q6.2 -30.0 3.95 -27.45 L2.45 -25.2 M-0.2 -24.8 L-0.55 -24.75 0.75 -28.0 Q1.9 -29.85 3.55 -31.55 L3.8 -31.8 Q4.6 -32.6 5.45 -33.25 L5.55 -33.3 7.2 -33.9 7.1 -33.8 Q6.1 -33.25 5.35 -32.2 L5.2 -32.0 4.15 -30.4 4.3 -30.2 -0.2 -24.8 M-3.25 -24.35 L-3.5 -24.3 -3.75 -24.25 -5.3 -24.0 -4.3 -30.55 -3.95 -28.2 -0.65 -31.15 Q1.15 -33.7 1.5 -34.55 1.8 -35.25 1.9 -36.0 L1.95 -36.1 2.0 -36.05 2.15 -35.75 Q2.2 -35.6 2.2 -35.4 2.2 -34.9 1.8 -33.55 L1.4 -32.25 Q0.9 -31.9 0.55 -31.5 L-1.6 -27.8 -3.25 -24.35 M-5.8 -23.95 L-6.35 -23.85 -6.6 -25.95 -5.8 -23.95 M-1.4 -28.05 L0.3 -30.25 -1.4 -28.05 M7.85 -26.45 L8.15 -27.0 Q8.4 -27.25 8.85 -27.6 L7.85 -26.45 M11.8 -19.55 L12.5 -19.55 13.1 -19.45 Q13.75 -19.45 14.5 -18.35 15.0 -17.6 15.25 -16.9 15.0 -17.0 14.6 -17.15 L14.35 -17.3 13.8 -17.4 13.5 -17.4 12.55 -17.55 11.9 -17.65 Q11.3 -17.95 10.6 -17.85 L10.6 -17.8 9.65 -17.9 11.8 -19.55 M8.25 -21.25 L10.95 -21.0 Q11.85 -21.5 12.95 -22.3 12.15 -22.05 10.7 -21.75 L8.25 -21.25" fill="#999999" fill-rule="evenodd" stroke="none"/>
      <path d="M-6.35 -23.85 L-5.55 -30.4 Q-5.15 -31.25 -4.55 -32.15 -3.85 -33.1 -3.35 -33.5 -2.8 -33.9 -2.8 -33.35 L-1.0 -33.95 Q-0.55 -34.3 0.25 -35.25 1.2 -36.4 1.45 -36.65 2.05 -37.25 2.35 -37.05 2.7 -36.85 2.7 -35.4 2.7 -34.6 2.35 -33.3 L2.1 -32.65 Q4.35 -33.85 8.5 -34.5 8.6 -34.35 8.7 -34.2 7.75 -33.6 6.4 -32.2 L7.6 -32.35 Q9.0 -32.85 10.5 -32.85 L10.6 -32.8 11.15 -32.75 Q11.7 -32.65 11.7 -32.35 L10.65 -31.05 Q9.5 -29.6 8.85 -28.5 9.25 -28.65 10.25 -29.15 11.75 -29.8 13.05 -29.8 L13.5 -29.8 14.4 -29.7 Q14.8 -29.6 14.8 -29.3 14.8 -29.25 14.3 -28.7 L13.75 -28.1 13.05 -27.4 Q12.25 -26.65 11.55 -26.15 L11.7 -26.1 Q12.1 -25.85 12.15 -25.85 L14.05 -26.15 Q15.0 -26.3 15.35 -26.45 15.45 -26.55 15.65 -26.7 15.75 -26.8 16.0 -26.9 L16.35 -26.8 Q16.4 -26.85 16.4 -26.55 16.4 -26.1 15.8 -25.3 15.2 -24.6 14.4 -23.9 L14.25 -23.75 13.75 -23.45 Q14.05 -23.5 14.45 -23.4 15.0 -23.35 15.65 -23.05 L14.65 -22.2 13.45 -21.1 12.6 -20.3 Q13.75 -20.1 14.9 -18.3 L15.35 -17.55 Q15.7 -16.85 16.0 -16.15 L15.95 -15.95 15.9 -15.85 Q15.85 -15.8 15.65 -15.8 L15.6 -15.8 Q15.5 -15.85 15.25 -16.0 14.85 -16.35 14.65 -16.45 14.3 -16.7 13.9 -16.8 L13.65 -16.8 Q13.45 -16.7 13.15 -16.5 L12.6 -16.15 Q11.4 -15.4 11.05 -15.3 L8.2 -14.65 Q5.85 -14.1 5.55 -14.1 3.15 -14.1 1.9 -16.65 L1.65 -21.35 6.25 -15.25 Q6.5 -15.15 6.85 -15.1 9.45 -15.15 11.25 -16.25 L12.4 -17.0 Q11.55 -17.3 10.15 -17.5 9.75 -17.7 9.6 -17.9 L12.75 -21.2 Q13.7 -22.3 14.55 -22.75 14.7 -22.8 14.85 -22.85 L14.55 -22.85 14.2 -22.8 13.9 -22.75 12.55 -22.5 Q12.4 -22.45 12.4 -22.4 12.4 -22.3 12.3 -22.3 L11.8 -22.35 8.05 -21.75 Q11.65 -22.45 13.6 -23.75 L13.65 -23.8 15.25 -25.5 15.25 -25.55 15.4 -25.9 15.45 -26.0 Q15.2 -25.95 15.05 -25.85 L14.75 -25.7 14.15 -25.55 12.1 -25.45 11.35 -25.55 11.0 -25.6 10.7 -25.6 10.55 -25.65 10.5 -25.65 10.25 -25.6 9.7 -25.5 9.65 -25.6 Q9.65 -25.65 10.15 -26.0 10.15 -26.1 10.45 -26.2 11.0 -26.7 11.8 -27.35 13.3 -28.6 13.5 -29.1 L13.55 -29.2 13.4 -29.2 13.25 -29.25 12.9 -29.25 Q11.7 -29.25 9.95 -28.3 L8.85 -27.6 Q8.4 -27.25 8.15 -27.0 L7.85 -26.45 7.2 -25.6 7.4 -26.9 8.2 -28.25 8.35 -28.5 Q8.6 -29.05 8.6 -29.25 8.6 -29.3 8.85 -29.75 L8.1 -29.65 Q6.85 -29.35 5.3 -28.15 L3.0 -25.25 2.45 -25.2 3.95 -27.45 Q6.2 -30.0 8.85 -29.75 L9.25 -30.35 9.9 -31.35 10.15 -31.6 Q10.4 -31.85 10.5 -32.1 L10.2 -32.15 9.8 -32.2 8.95 -32.2 Q6.7 -31.95 4.8 -30.55 L4.3 -30.2 4.15 -30.4 5.2 -32.0 5.35 -32.2 Q6.1 -33.25 7.1 -33.8 L7.2 -33.9 5.55 -33.3 5.45 -33.25 Q3.25 -32.4 1.85 -31.5 1.55 -31.3 1.25 -31.1 0.75 -30.7 0.3 -30.25 L-1.4 -28.05 -1.6 -27.8 0.55 -31.5 Q0.9 -31.9 1.4 -32.25 L1.8 -33.55 Q2.2 -34.9 2.2 -35.4 2.2 -35.6 2.15 -35.75 L2.0 -36.05 1.95 -36.1 1.9 -36.0 Q-0.25 -33.55 -1.65 -31.8 L-3.95 -28.2 -4.3 -30.55 -4.0 -32.2 -4.0 -32.25 Q-4.55 -31.35 -4.9 -30.5 L-5.45 -24.0 -5.6 -23.95 -6.6 -25.95 -6.35 -23.85 M-3.5 -24.3 L-3.75 -24.25 -3.5 -24.3 M11.8 -19.55 L9.65 -17.9 10.6 -17.8 10.6 -17.85 Q11.3 -17.95 11.9 -17.65 L12.55 -17.55 13.5 -17.4 13.8 -17.4 14.35 -17.3 14.6 -17.15 Q15.0 -17.0 15.25 -16.9 15.0 -17.6 14.5 -18.35 13.75 -19.45 13.1 -19.45 L12.5 -19.55 11.8 -19.55" fill="#121212" fill-rule="evenodd" stroke="none"/>
      <path d="M-3.45 -18.95 Q-2.8 -19.45 -1.6 -19.75 -0.25 -20.15 0.7 -20.15 L0.75 -20.15 Q0.75 -20.45 0.95 -21.55 0.8 -21.7 0.8 -21.8 0.85 -21.9 0.9 -22.0 0.9 -22.2 0.75 -22.45 L0.65 -22.65 Q0.55 -22.85 0.55 -23.05 L0.45 -23.2 0.05 -23.1 -0.3 -22.9 Q-0.95 -22.5 -1.1 -22.5 -1.0 -22.65 -0.35 -23.15 L0.3 -23.6 Q0.3 -24.2 0.0 -25.4 L-0.35 -27.1 -0.75 -27.45 Q-0.95 -27.65 -1.05 -27.95 L-1.0 -28.0 Q-0.9 -27.85 -0.55 -27.6 -0.3 -27.5 -0.2 -27.35 L0.05 -27.6 0.2 -27.7 0.8 -28.45 1.4 -29.05 1.65 -29.5 Q1.85 -29.9 1.65 -30.15 L1.7 -30.15 0.5 -30.9 -0.5 -31.5 -0.7 -31.6 -0.75 -31.55 -1.5 -30.3 -1.8 -29.6 Q-1.7 -29.5 -1.7 -29.35 -1.7 -29.05 -1.65 -28.95 L-1.7 -28.75 -1.75 -28.65 -1.7 -28.65 -1.15 -28.0 Q-1.35 -28.1 -1.8 -28.4 L-1.9 -28.45 -2.15 -28.6 -2.2 -28.65 -2.3 -28.15 Q-2.55 -27.3 -2.55 -26.5 -2.55 -26.05 -3.1 -24.2 L-3.15 -24.15 Q-3.2 -24.15 -3.2 -24.25 -3.05 -24.95 -3.05 -25.25 L-2.85 -27.15 Q-2.7 -29.15 -2.7 -29.75 -2.7 -30.1 -1.85 -31.25 L-1.25 -31.95 -1.3 -32.0 Q-1.45 -32.15 -1.25 -33.0 L-1.35 -33.3 -1.55 -33.8 -1.65 -34.3 -2.6 -32.7 Q-3.9 -30.4 -3.9 -29.2 L-4.3 -26.95 Q-4.75 -24.6 -4.75 -24.1 -4.6 -20.25 -4.6 -19.95 -4.6 -19.55 -4.35 -18.9 -4.1 -18.35 -4.1 -18.3 L-4.2 -18.0 -3.7 -17.9 -3.35 -17.8 Q-3.3 -17.8 -2.35 -18.1 -1.4 -18.4 -1.05 -18.4 -0.95 -18.4 -0.7 -18.2 L-0.3 -17.75 Q0.2 -17.1 0.2 -17.05 0.2 -16.85 -0.1 -16.25 L0.5 -15.7 0.6 -15.65 0.65 -15.6 0.65 -15.55 Q1.05 -15.15 1.4 -14.7 L1.5 -14.55 1.7 -14.15 Q2.25 -13.25 2.25 -12.8 2.25 -12.65 2.15 -12.35 2.0 -12.05 2.0 -11.9 2.0 -10.15 0.6 -9.35 -0.15 -8.95 -1.15 -8.85 L-1.6 -8.85 Q-1.8 -8.85 -1.95 -8.75 L-2.0 -8.7 -2.15 -8.5 Q-2.4 -8.65 -2.5 -8.95 L-2.5 -9.1 Q-2.85 -8.85 -3.5 -8.6 L-4.1 -8.3 -4.35 -8.35 -4.45 -8.35 -4.6 -8.4 -4.65 -8.4 Q-5.15 -8.7 -5.55 -10.75 -5.75 -11.95 -5.85 -12.65 L-5.9 -11.9 Q-5.9 -10.0 -5.2 -8.15 L-5.1 -7.95 Q-4.65 -6.85 -4.55 -6.5 -4.35 -5.95 -4.3 -5.35 L-4.25 -5.35 Q-3.95 -5.25 -3.6 -5.05 L-3.45 -5.2 -3.15 -5.55 -3.2 -5.75 -3.15 -6.25 Q-3.15 -6.4 -3.05 -6.45 L-3.0 -6.6 Q-2.9 -7.05 -2.9 -7.2 -2.9 -7.4 -2.7 -8.05 L-2.65 -8.05 -2.4 -8.2 -2.5 -7.85 -2.6 -7.2 Q-2.7 -6.75 -2.7 -6.6 L-2.7 -6.25 Q-2.7 -5.75 -2.85 -5.2 -2.4 -4.7 -2.3 -4.1 -2.3 -3.8 -2.35 -3.5 -1.9 -3.7 -0.6 -2.8 L-0.2 -2.55 Q0.65 -1.9 0.65 -1.55 L0.65 -1.45 1.25 -1.25 1.3 -1.2 1.45 -1.2 Q1.35 -1.6 1.35 -1.95 1.25 -2.15 1.25 -2.3 L0.75 -3.25 Q0.2 -3.7 -0.35 -4.95 -0.6 -5.6 -0.8 -6.35 L-0.85 -6.5 -1.0 -7.05 Q-1.0 -7.3 -0.25 -7.65 L0.6 -8.05 Q1.25 -8.15 1.9 -8.4 L2.05 -8.3 2.1 -8.3 Q2.35 -8.55 3.0 -8.7 4.0 -8.9 4.0 -9.35 4.0 -9.9 3.4 -10.5 L3.1 -10.8 2.8 -11.15 2.8 -11.2 Q2.8 -11.6 3.85 -13.2 L4.7 -14.35 Q4.3 -14.2 4.05 -14.2 3.8 -14.2 3.55 -14.3 3.35 -14.35 3.25 -14.5 L3.15 -14.7 3.2 -14.7 3.2 -14.85 Q3.2 -15.05 3.35 -15.4 L3.5 -15.6 Q3.4 -15.9 3.35 -16.4 L3.35 -16.45 3.15 -16.7 3.05 -16.8 2.9 -17.05 2.75 -17.2 Q2.6 -17.1 2.3 -17.0 L1.3 -16.85 Q1.1 -17.0 1.05 -17.55 L0.95 -18.45 0.95 -18.5 0.75 -19.1 0.7 -19.1 Q0.35 -19.65 -0.6 -19.65 -1.3 -19.65 -2.6 -18.95 L-3.4 -18.5 -3.4 -18.45 Q-3.4 -18.3 -3.5 -18.25 -3.55 -18.25 -3.75 -18.15 L-3.85 -18.3 Q-4.0 -18.25 -4.1 -18.25 L-3.95 -18.45 -4.0 -18.55 -4.0 -18.8 -3.9 -19.35 Q-3.75 -20.1 -3.75 -20.4 L-3.65 -20.45 Q-3.65 -20.35 -3.65 -20.2 L-3.65 -19.85 -3.55 -19.2 -3.5 -18.9 -3.45 -18.95 M-3.15 -21.65 L-3.0 -21.7 Q-2.65 -21.85 -1.8 -21.95 -2.1 -21.7 -2.55 -21.45 L-2.95 -21.25 Q-3.1 -21.15 -3.25 -21.05 L-3.3 -21.05 -3.4 -21.0 Q-3.55 -20.95 -3.55 -21.15 -3.55 -21.5 -3.15 -21.65 M2.2 -30.1 L2.4 -30.1 2.6 -30.3 2.8 -30.3 2.8 -30.25 3.35 -30.25 3.8 -30.5 3.85 -30.55 Q4.5 -31.2 4.95 -31.25 L5.25 -31.5 Q7.05 -32.75 7.65 -32.75 7.9 -32.75 8.1 -32.35 L8.1 -32.3 8.15 -32.1 8.05 -31.45 7.65 -30.45 Q7.6 -29.2 7.05 -27.9 7.8 -27.2 8.65 -26.1 L8.75 -25.95 Q8.65 -25.75 8.65 -25.7 8.65 -25.55 8.75 -25.4 8.85 -25.25 9.05 -25.2 L9.2 -25.3 Q9.85 -24.35 10.2 -23.9 10.65 -23.35 11.15 -22.9 11.85 -22.25 12.3 -22.2 13.2 -22.1 13.85 -21.9 14.7 -21.6 14.85 -21.15 L14.45 -20.6 13.6 -19.9 13.05 -19.7 12.8 -19.6 Q10.65 -17.95 8.45 -16.5 6.65 -15.3 5.55 -14.75 5.55 -14.25 4.6 -12.7 3.7 -11.15 3.7 -10.8 3.7 -10.7 4.25 -9.9 4.75 -9.15 4.75 -9.1 L3.7 -8.2 2.95 -7.6 2.95 -7.3 Q2.95 -6.85 4.4 -5.95 L5.9 -5.05 Q5.7 -4.65 4.9 -4.05 3.8 -3.25 2.8 -3.25 L1.85 -3.0 1.85 -2.9 1.8 -2.55 1.85 -2.45 Q2.05 -1.7 2.05 -1.3 2.1 -0.8 2.2 -0.2 L1.55 -0.45 Q0.3 -0.85 -0.6 -0.8 L-0.9 -0.7 -0.95 -0.8 Q-2.05 -0.7 -2.9 -0.35 -4.0 0.1 -5.15 0.1 -5.95 0.1 -7.45 -0.45 -8.95 -0.95 -8.95 -1.3 L-8.1 -2.0 Q-7.15 -2.8 -6.65 -3.45 -6.1 -4.15 -5.65 -4.55 L-5.35 -5.15 Q-5.75 -4.9 -6.35 -4.65 -7.85 -4.15 -9.85 -4.15 -10.15 -4.15 -10.25 -4.3 -10.35 -4.45 -10.35 -4.55 L-8.8 -6.5 Q-7.25 -8.5 -7.25 -8.9 L-7.25 -9.1 -7.05 -9.6 Q-6.5 -10.85 -6.5 -11.15 L-6.55 -11.55 -6.55 -12.0 -6.45 -13.2 -6.35 -14.45 -6.3 -14.9 Q-6.5 -15.1 -6.45 -15.35 L-6.3 -15.9 Q-6.3 -17.05 -7.3 -21.25 -8.25 -25.45 -8.25 -25.85 L-8.15 -26.65 Q-8.05 -27.3 -8.05 -27.45 L-7.95 -28.05 Q-7.85 -28.45 -7.85 -28.6 L-7.75 -29.25 Q-7.65 -29.7 -7.65 -29.85 -7.65 -30.0 -7.45 -31.15 -7.2 -32.35 -7.2 -32.5 -7.2 -33.7 -6.85 -34.05 -6.5 -34.35 -6.05 -33.95 -5.6 -33.6 -5.25 -32.85 -5.0 -32.35 -4.9 -31.9 L-4.8 -31.9 -4.55 -32.0 Q-4.05 -32.25 -3.6 -32.2 L-3.45 -32.7 Q-3.05 -34.35 -2.2 -35.65 L-2.15 -35.75 Q-1.55 -35.4 -1.15 -34.65 L-0.9 -34.2 -0.95 -34.05 Q-0.7 -33.5 -0.4 -32.95 0.7 -31.0 2.2 -30.45 L2.15 -30.3 Q2.15 -30.1 2.2 -30.1 M2.65 -29.4 L2.2 -29.45 1.6 -28.9 Q1.45 -28.65 1.15 -28.3 L0.2 -27.4 -0.15 -27.1 Q0.1 -26.45 0.3 -25.35 L0.65 -23.55 0.7 -23.55 0.8 -23.3 0.9 -23.2 1.2 -23.15 1.2 -23.2 Q1.2 -23.4 1.3 -23.7 1.4 -24.05 1.4 -24.2 1.4 -24.3 2.05 -26.0 2.7 -27.7 2.7 -27.8 2.7 -28.0 2.95 -28.6 3.15 -29.1 3.15 -29.35 L2.85 -29.5 Q2.75 -29.4 2.65 -29.4 M6.7 -31.5 L5.4 -30.5 4.15 -29.6 Q3.15 -28.45 3.15 -27.8 L2.35 -26.05 Q1.6 -24.2 1.6 -23.7 1.6 -23.55 1.45 -23.05 1.3 -22.6 1.3 -22.45 L1.3 -22.25 Q0.95 -21.0 0.95 -19.65 1.0 -19.05 1.15 -18.5 1.25 -18.0 1.4 -17.7 1.65 -17.3 1.95 -17.3 2.35 -17.3 2.5 -17.7 L2.55 -17.75 2.55 -18.45 2.8 -18.45 Q2.85 -18.3 3.35 -17.7 L3.35 -17.65 3.45 -17.55 3.55 -17.4 Q4.15 -16.7 4.1 -16.25 L4.1 -16.2 4.05 -16.1 4.0 -16.0 3.9 -15.9 3.8 -15.7 3.6 -15.35 3.6 -15.4 Q3.45 -15.05 3.45 -14.9 L3.5 -14.85 3.7 -14.85 3.8 -14.9 3.95 -14.9 Q4.5 -14.9 5.75 -15.65 6.55 -16.1 8.35 -17.3 10.0 -18.4 11.15 -19.1 L10.9 -19.05 12.55 -20.15 Q13.4 -20.75 13.95 -21.25 13.8 -21.4 12.85 -21.45 L12.3 -21.5 11.4 -21.55 8.3 -19.1 Q4.9 -16.35 4.2 -15.9 L4.9 -16.55 6.85 -18.5 6.9 -18.5 7.0 -18.65 7.05 -18.7 Q6.8 -19.2 6.8 -20.25 L6.7 -20.25 6.2 -20.35 6.15 -20.35 6.0 -20.4 5.5 -20.55 5.5 -20.6 5.45 -20.6 5.1 -20.7 5.1 -20.75 5.5 -20.75 5.8 -20.75 6.6 -20.8 6.75 -20.7 Q7.2 -21.95 7.55 -22.1 7.5 -21.75 7.4 -21.3 7.3 -20.95 7.15 -20.7 L7.05 -20.5 7.25 -20.4 Q7.2 -20.35 7.15 -20.3 7.35 -19.7 7.45 -19.1 L7.7 -19.35 7.8 -19.4 7.8 -19.45 8.2 -19.8 8.35 -19.9 Q9.3 -20.75 10.2 -21.3 10.3 -21.8 10.3 -22.0 10.3 -22.15 10.35 -22.25 L10.35 -22.3 10.05 -22.85 9.8 -23.35 9.45 -24.0 9.1 -24.5 8.95 -24.7 8.8 -24.7 8.65 -24.45 8.4 -24.0 Q8.15 -23.55 8.15 -23.25 8.15 -23.05 8.1 -23.0 L7.95 -22.85 7.85 -22.85 8.0 -23.2 Q8.05 -23.45 8.05 -23.6 L8.1 -23.8 Q8.1 -24.1 8.25 -24.55 L8.4 -24.95 8.3 -25.1 Q8.2 -25.35 8.15 -25.55 L8.15 -25.6 8.15 -25.75 7.95 -26.05 Q7.75 -26.3 7.4 -26.5 7.1 -26.7 6.6 -26.9 L6.55 -26.95 Q6.15 -26.2 5.6 -25.35 4.35 -23.55 4.15 -23.1 3.55 -22.1 3.5 -21.3 3.65 -21.3 3.9 -21.2 L4.05 -21.15 Q4.9 -20.7 5.0 -20.7 L5.0 -20.65 4.75 -20.6 4.2 -20.65 3.7 -20.7 3.4 -20.7 3.1 -20.15 3.05 -20.15 Q2.7 -19.5 2.75 -19.0 L2.65 -18.95 2.6 -19.35 Q2.7 -19.65 3.25 -21.05 L3.9 -22.7 4.15 -23.3 Q4.85 -25.2 4.85 -25.45 4.85 -25.6 5.9 -27.65 5.9 -27.7 5.9 -27.8 L6.55 -29.2 Q7.25 -30.75 7.25 -31.55 L7.2 -31.9 6.7 -31.5 M0.45 -14.0 L0.4 -14.1 Q0.4 -14.4 0.35 -14.6 L0.65 -14.05 Q1.05 -13.15 1.05 -12.5 1.05 -11.95 0.65 -11.2 0.15 -10.25 -0.65 -10.25 L-0.95 -10.25 Q-1.05 -10.35 -1.2 -10.3 L-1.3 -10.35 -1.45 -10.15 -2.25 -9.4 -2.25 -9.35 Q-2.15 -9.15 -2.2 -8.95 -2.05 -9.0 -1.2 -9.1 L-0.15 -9.15 Q0.65 -9.15 1.4 -11.0 1.8 -11.9 2.05 -12.85 2.05 -13.25 1.25 -14.4 0.35 -15.8 -0.35 -15.8 -0.4 -15.8 -0.5 -15.7 L-0.2 -15.4 0.15 -14.9 Q-0.1 -14.7 -0.3 -14.35 -0.3 -14.2 -0.2 -13.8 -0.15 -13.45 -0.15 -13.3 L-0.2 -13.1 -0.45 -12.6 -0.75 -11.95 -0.7 -11.45 -0.6 -10.85 -0.5 -10.95 -0.4 -10.85 -0.15 -10.85 Q0.15 -10.85 0.3 -11.3 L0.35 -11.65 Q0.6 -11.95 0.6 -12.4 0.6 -12.55 0.5 -12.75 L0.5 -12.8 0.6 -13.65 Q0.6 -13.75 0.45 -14.0 M4.75 -5.0 L3.0 -6.35 2.6 -6.65 2.4 -7.05 Q1.9 -7.8 1.2 -7.8 0.15 -7.8 -0.35 -7.5 -0.7 -7.25 -0.7 -6.9 -0.7 -6.2 -0.3 -5.4 0.1 -4.6 0.7 -4.3 L1.25 -4.05 Q1.95 -3.7 2.2 -3.7 2.9 -3.7 3.95 -4.2 4.55 -4.45 5.05 -4.8 L4.75 -5.0 M-6.55 -32.9 Q-6.65 -32.75 -6.65 -32.6 L-6.75 -31.95 -6.85 -31.35 Q-7.65 -26.85 -7.65 -26.35 -7.65 -24.35 -7.15 -22.45 -6.7 -20.5 -6.7 -20.1 -6.7 -19.9 -6.05 -18.55 L-5.5 -17.45 -5.35 -17.8 Q-5.4 -18.4 -5.5 -19.3 L-5.65 -20.75 -5.55 -20.75 -5.3 -19.95 -5.2 -21.25 Q-5.2 -23.4 -4.9 -25.6 L-4.7 -26.95 -4.95 -27.15 Q-5.1 -27.3 -5.25 -27.35 L-5.0 -27.3 -4.65 -27.25 Q-4.55 -28.2 -4.55 -28.75 -4.55 -29.1 -4.0 -30.85 L-3.85 -31.35 Q-4.2 -31.15 -4.6 -31.1 -4.85 -30.9 -5.0 -30.9 L-5.05 -30.9 -5.6 -30.0 Q-6.35 -28.75 -6.35 -28.1 L-6.4 -27.4 -6.35 -27.4 -5.5 -27.5 Q-5.3 -27.45 -5.3 -27.4 L-5.8 -27.05 Q-6.3 -26.7 -6.35 -26.7 L-6.4 -26.7 -6.45 -25.4 -6.6 -25.35 -6.7 -26.3 -6.8 -27.05 Q-6.8 -27.55 -6.5 -28.35 -6.1 -29.3 -6.05 -29.85 L-5.9 -30.5 Q-5.8 -30.95 -5.8 -31.2 L-5.8 -31.3 Q-5.95 -31.5 -6.05 -31.85 L-6.4 -33.1 Q-6.4 -33.05 -6.55 -32.9 M-3.1 -23.35 L-3.05 -23.3 Q-3.05 -23.25 -3.05 -23.1 -3.05 -22.9 -3.1 -22.8 L-3.15 -22.65 Q-3.2 -22.65 -3.25 -22.75 L-3.25 -23.05 Q-3.25 -23.2 -3.25 -23.3 L-3.2 -23.35 -3.1 -23.35 M-6.55 -24.8 L-6.15 -23.15 Q-5.95 -22.25 -5.8 -21.35 L-5.85 -21.3 Q-5.9 -21.25 -5.95 -21.25 -6.15 -21.9 -6.35 -23.0 L-6.6 -24.8 -6.55 -24.8 M-4.15 -11.85 L-3.95 -11.85 Q-3.25 -12.35 -2.75 -12.7 L-2.65 -12.75 Q-2.65 -13.15 -2.15 -14.15 L-2.25 -14.35 Q-2.4 -14.65 -2.6 -15.2 -2.35 -15.2 -1.9 -15.0 L-1.75 -14.95 -1.7 -14.95 -1.45 -15.2 Q-1.45 -15.75 -1.25 -15.9 -1.2 -16.3 -1.05 -16.45 L-0.85 -16.9 -0.6 -17.45 Q-0.6 -17.5 -0.85 -17.85 L-0.95 -17.95 -1.0 -18.05 -1.15 -18.2 Q-2.85 -18.2 -3.95 -17.35 -4.35 -17.05 -4.7 -16.65 L-4.6 -16.6 -3.3 -15.6 -3.1 -15.5 -3.35 -15.55 -3.85 -15.75 Q-4.35 -15.95 -4.45 -15.95 -4.8 -15.95 -5.0 -15.75 L-5.25 -15.0 -5.35 -14.85 Q-5.65 -14.4 -5.65 -13.8 -5.6 -13.25 -5.45 -12.75 -5.15 -11.7 -4.45 -11.7 -4.3 -11.7 -4.15 -11.85 M-1.2 -12.95 L-1.15 -13.05 -1.1 -13.4 -1.1 -13.9 -1.2 -14.15 -1.3 -13.95 -1.35 -13.9 Q-1.35 -13.8 -1.4 -13.35 L-1.4 -12.95 Q-1.4 -12.8 -1.45 -12.65 L-1.2 -12.5 -1.2 -12.95 M-4.15 -8.85 L-3.75 -8.8 Q-2.95 -8.8 -2.35 -9.75 -1.95 -10.5 -1.95 -10.85 L-1.95 -11.55 -2.0 -11.55 -2.0 -11.65 Q-2.1 -12.15 -2.3 -12.25 -2.45 -12.35 -2.7 -12.2 L-2.85 -12.1 Q-3.1 -12.05 -3.4 -11.9 L-3.7 -11.8 Q-4.15 -11.65 -4.5 -11.3 -4.7 -11.1 -4.75 -10.85 L-4.85 -11.2 -4.85 -11.1 -4.8 -10.85 -4.8 -10.6 Q-4.8 -10.2 -4.7 -9.8 L-4.65 -9.65 Q-4.65 -9.4 -4.55 -9.2 -4.4 -8.95 -4.15 -8.85 M-1.4 -12.05 L-1.35 -11.5 -1.3 -11.5 -1.25 -11.45 -1.25 -11.95 -1.4 -12.05 M-5.1 -7.6 L-5.15 -7.7 -5.25 -7.85 Q-5.3 -7.8 -5.45 -7.8 -5.95 -7.8 -7.0 -7.35 L-7.45 -7.15 -7.05 -7.4 Q-6.1 -7.9 -5.55 -8.3 -5.6 -8.5 -5.7 -8.8 -5.95 -9.4 -6.2 -9.5 L-6.75 -8.4 -7.0 -7.85 -7.25 -7.65 -7.75 -6.95 Q-8.5 -5.95 -9.45 -4.8 L-9.1 -4.8 -8.55 -4.85 -8.25 -4.85 -7.75 -4.9 Q-7.4 -4.9 -7.05 -5.05 L-6.9 -5.05 Q-6.55 -5.05 -5.7 -5.7 -4.85 -6.35 -4.85 -6.7 -4.85 -7.1 -5.1 -7.6 M-8.1 -1.25 Q-7.85 -0.95 -6.95 -0.85 -6.55 -0.85 -5.2 -0.85 L-2.55 -1.2 -1.25 -1.35 -1.0 -1.4 -0.85 -1.65 Q-0.6 -1.95 -0.6 -2.1 -0.6 -2.6 -1.2 -2.95 -1.4 -3.05 -1.65 -3.15 L-2.4 -3.2 -2.9 -3.1 -3.0 -3.15 Q-3.05 -3.2 -3.05 -3.4 L-2.65 -3.8 Q-2.65 -4.05 -2.9 -4.25 L-3.1 -4.35 -3.55 -4.4 -4.1 -4.15 Q-4.6 -4.0 -4.85 -3.95 -5.3 -3.5 -6.1 -2.9 -7.65 -1.8 -8.15 -1.6 L-8.15 -1.45 -8.1 -1.25" fill="#121212" fill-rule="evenodd" stroke="none"/>
      <path d="M-0.5 -31.5 L-1.7 -28.65 -1.75 -28.65 -1.7 -28.75 -1.65 -28.95 Q-1.7 -29.05 -1.7 -29.35 -1.7 -29.5 -1.8 -29.6 L-1.5 -30.3 -0.75 -31.55 -0.7 -31.6 -0.5 -31.5 M-2.3 -28.15 Q-2.2 -27.95 -2.0 -27.85 L-2.1 -27.6 Q-2.1 -27.45 -2.25 -26.9 L-2.35 -26.25 Q-2.35 -26.0 -2.9 -23.2 L-3.15 -21.65 Q-3.55 -21.5 -3.55 -21.15 -3.55 -20.95 -3.4 -21.0 L-3.3 -21.05 -3.25 -21.05 -3.25 -21.05 -3.3 -21.0 -3.5 -20.75 Q-3.45 -20.7 -3.35 -20.7 L-3.3 -20.65 Q-3.4 -19.65 -3.45 -18.95 L-3.5 -18.9 -3.55 -19.2 -3.65 -19.85 -3.65 -20.2 Q-3.65 -20.35 -3.65 -20.45 L-3.75 -20.4 Q-3.75 -20.1 -3.9 -19.35 L-4.0 -18.8 Q-4.25 -19.2 -4.2 -19.65 L-4.1 -20.9 -3.9 -22.1 Q-3.7 -23.3 -3.7 -23.7 L-3.6 -24.5 Q-3.5 -25.15 -3.5 -25.3 L-3.45 -26.75 -3.35 -28.2 Q-3.35 -28.85 -2.55 -30.8 -2.05 -32.1 -1.4 -33.45 L-1.35 -33.3 -1.25 -33.0 Q-1.45 -32.15 -1.3 -32.0 L-1.25 -31.95 -1.85 -31.25 Q-2.7 -30.1 -2.7 -29.75 -2.7 -29.15 -2.85 -27.15 L-3.05 -25.25 Q-3.05 -24.95 -3.2 -24.25 -3.2 -24.15 -3.15 -24.15 L-3.1 -24.2 Q-2.55 -26.05 -2.55 -26.5 -2.55 -27.3 -2.3 -28.15 M0.7 -19.1 L0.75 -19.1 0.95 -18.5 0.95 -18.45 1.05 -17.55 Q1.1 -17.0 1.3 -16.85 L2.3 -17.0 Q2.6 -17.1 2.75 -17.2 L2.9 -17.05 Q2.5 -16.5 1.8 -15.15 L1.5 -14.55 1.4 -14.7 Q1.05 -15.15 0.65 -15.55 L0.65 -15.6 0.6 -15.65 0.5 -15.7 -0.1 -16.25 Q0.2 -16.85 0.2 -17.05 0.2 -17.1 -0.3 -17.75 L-0.7 -18.2 Q0.0 -18.85 0.7 -19.1 M3.15 -16.7 L3.35 -16.45 3.35 -16.4 Q3.4 -15.9 3.5 -15.6 L3.35 -15.4 Q3.2 -15.05 3.2 -14.85 L3.2 -14.7 3.15 -14.7 3.25 -14.5 Q3.35 -14.35 3.55 -14.3 3.8 -14.2 4.05 -14.2 4.3 -14.2 4.7 -14.35 L3.85 -13.2 Q2.8 -11.6 2.8 -11.2 L2.8 -11.15 3.1 -10.8 3.15 -10.75 Q2.9 -10.9 2.75 -11.2 2.5 -11.6 2.5 -11.9 2.5 -12.45 2.8 -14.5 L3.1 -16.75 3.15 -16.7 M-0.85 -6.5 L-0.8 -6.35 Q-0.6 -5.6 -0.35 -4.95 0.2 -3.7 0.75 -3.25 L1.25 -2.3 Q1.25 -2.15 1.35 -1.95 1.35 -1.6 1.45 -1.2 L1.3 -1.2 1.25 -1.25 0.65 -1.45 0.65 -1.55 Q0.65 -1.9 -0.2 -2.55 L-0.6 -2.8 Q-1.9 -3.7 -2.35 -3.5 -2.3 -3.8 -2.3 -4.1 -1.5 -3.85 -0.65 -3.85 L-0.75 -4.3 Q-0.95 -5.05 -0.95 -5.2 -0.95 -6.05 -0.85 -6.5 M-2.85 -5.2 Q-2.7 -5.75 -2.7 -6.25 L-2.7 -6.6 Q-2.7 -6.75 -2.6 -7.2 L-2.5 -7.85 -2.4 -8.2 -2.65 -8.05 -2.7 -8.05 Q-2.9 -7.4 -2.9 -7.2 -2.9 -7.05 -3.0 -6.6 L-3.05 -6.45 Q-3.15 -6.4 -3.15 -6.25 L-3.2 -5.75 -3.15 -5.55 -3.45 -5.2 -3.45 -5.55 -3.4 -6.35 Q-3.4 -7.0 -3.5 -7.3 -3.7 -7.9 -4.15 -8.2 L-4.35 -8.35 -4.1 -8.3 -3.5 -8.6 Q-2.85 -8.85 -2.5 -9.1 L-2.5 -8.95 Q-2.4 -8.65 -2.15 -8.5 L-2.0 -8.7 -1.95 -8.75 Q-1.8 -8.85 -1.6 -8.85 L-1.15 -8.85 -2.85 -5.2 M1.4 -17.7 Q1.55 -18.7 3.0 -22.7 3.75 -24.9 4.65 -27.25 5.5 -29.55 6.7 -31.5 L7.2 -31.9 7.25 -31.55 Q7.25 -30.75 6.55 -29.2 L5.9 -27.8 Q5.9 -27.7 5.9 -27.65 4.85 -25.6 4.85 -25.45 4.85 -25.2 4.15 -23.3 3.6 -22.25 3.35 -21.55 L3.25 -21.05 Q2.7 -19.65 2.6 -19.35 L2.65 -18.95 2.75 -19.0 Q2.7 -19.5 3.05 -20.15 L3.1 -20.15 3.4 -20.7 3.7 -20.7 3.15 -19.45 2.85 -18.8 2.85 -18.65 2.8 -18.45 2.55 -18.45 2.55 -17.75 2.5 -17.7 Q2.35 -17.3 1.95 -17.3 1.65 -17.3 1.4 -17.7 M3.9 -21.2 Q3.65 -21.3 3.5 -21.3 3.55 -22.1 4.15 -23.1 4.35 -23.55 5.6 -25.35 6.15 -26.2 6.55 -26.95 L6.6 -26.9 Q7.1 -26.7 7.4 -26.5 L6.45 -25.15 Q4.4 -22.45 4.3 -22.25 L3.9 -21.2 M8.15 -25.6 L8.15 -25.55 Q8.2 -25.35 8.3 -25.1 L8.4 -24.95 8.25 -24.55 Q8.1 -24.1 8.1 -23.8 L8.05 -23.6 Q8.05 -23.45 8.0 -23.2 L7.85 -22.85 7.95 -22.85 7.85 -22.6 7.55 -22.1 Q7.2 -21.95 6.75 -20.7 L6.6 -20.8 5.8 -20.75 5.5 -20.75 5.7 -21.1 Q6.15 -21.7 8.15 -25.6 M8.15 -23.25 Q8.15 -23.55 8.4 -24.0 8.35 -23.7 8.15 -23.25 M9.1 -24.5 L9.45 -24.0 9.8 -23.35 10.05 -22.85 10.35 -22.3 10.35 -22.25 Q10.3 -22.15 10.3 -22.0 10.3 -21.8 10.2 -21.3 9.3 -20.75 8.35 -19.9 L8.2 -19.8 7.8 -19.45 7.75 -19.85 Q7.6 -20.45 7.6 -20.6 L8.05 -21.85 8.55 -23.05 Q8.55 -23.35 9.1 -24.5 M6.8 -20.25 Q6.8 -19.2 7.05 -18.7 L7.0 -18.65 6.9 -18.5 6.85 -18.5 4.9 -16.55 4.0 -16.05 4.05 -16.1 4.1 -16.2 4.1 -16.25 Q4.15 -16.7 3.55 -17.4 L3.45 -17.55 3.35 -17.65 3.35 -17.7 4.8 -19.65 5.15 -20.15 5.4 -20.15 6.2 -20.05 Q6.6 -20.05 6.75 -20.2 L6.8 -20.25 M12.85 -21.45 Q13.8 -21.4 13.95 -21.25 13.4 -20.75 12.55 -20.15 L10.9 -19.05 11.15 -19.1 Q10.0 -18.4 8.35 -17.3 6.55 -16.1 5.75 -15.65 4.5 -14.9 3.95 -14.9 L3.8 -14.9 3.7 -14.85 Q4.3 -15.3 5.1 -15.8 L7.55 -17.25 Q8.75 -18.0 9.05 -18.25 11.25 -20.3 12.6 -21.25 L12.85 -21.45 M6.0 -17.3 L7.6 -18.55 Q7.05 -18.0 6.0 -17.3 M0.45 -14.0 Q0.6 -13.75 0.6 -13.65 L0.5 -12.8 0.5 -12.75 Q0.6 -12.55 0.6 -12.4 0.6 -11.95 0.35 -11.65 L0.3 -11.3 Q0.15 -10.85 -0.15 -10.85 L-0.4 -10.85 -0.5 -10.95 -0.6 -10.85 -0.7 -11.45 -0.75 -11.95 -0.45 -12.6 -0.2 -13.1 -0.15 -13.3 Q-0.15 -13.45 -0.2 -13.8 -0.3 -14.2 -0.3 -14.35 -0.1 -14.7 0.15 -14.9 L-0.2 -15.4 -0.5 -15.7 Q-0.4 -15.8 -0.35 -15.8 0.35 -15.8 1.25 -14.4 2.05 -13.25 2.05 -12.85 1.8 -11.9 1.4 -11.0 0.65 -9.15 -0.15 -9.15 L-1.2 -9.1 Q-2.05 -9.0 -2.2 -8.95 -2.15 -9.15 -2.25 -9.35 L-2.25 -9.4 -1.45 -10.15 -1.3 -10.35 -1.2 -10.3 Q-1.05 -10.35 -0.95 -10.25 L-0.65 -10.25 Q0.15 -10.25 0.65 -11.2 1.05 -11.95 1.05 -12.5 1.05 -13.15 0.65 -14.05 L0.35 -14.6 Q0.4 -14.4 0.4 -14.1 L0.45 -14.0 M-0.7 -6.9 L-0.7 -6.95 0.3 -5.95 Q1.45 -5.3 2.3 -5.05 3.05 -4.85 4.25 -4.85 4.4 -4.85 4.75 -5.0 L5.05 -4.8 Q4.55 -4.45 3.95 -4.2 2.9 -3.7 2.2 -3.7 1.95 -3.7 1.25 -4.05 L0.7 -4.3 Q0.1 -4.6 -0.3 -5.4 -0.7 -6.2 -0.7 -6.9 M-3.1 -23.35 L-3.2 -23.35 -3.25 -23.3 Q-3.25 -23.2 -3.25 -23.05 L-3.25 -22.75 Q-3.2 -22.65 -3.15 -22.65 L-3.1 -22.8 Q-3.05 -22.9 -3.05 -23.1 -3.05 -23.25 -3.05 -23.3 L-3.1 -23.35 M-1.0 -18.05 L-0.95 -17.95 -0.85 -17.85 Q-0.6 -17.5 -0.6 -17.45 L-0.85 -16.9 -1.05 -16.45 Q-1.2 -16.3 -1.25 -15.9 -1.45 -15.75 -1.45 -15.2 L-1.7 -14.95 -1.75 -14.95 -1.9 -15.0 Q-2.35 -15.2 -2.6 -15.2 -2.4 -14.65 -2.25 -14.35 L-2.15 -14.15 Q-2.65 -13.15 -2.65 -12.75 L-2.75 -12.7 Q-3.25 -12.35 -3.95 -11.85 L-4.15 -11.85 -4.15 -11.9 Q-3.75 -13.0 -3.75 -13.05 -3.75 -13.35 -3.5 -15.05 -3.45 -15.35 -3.35 -15.55 L-3.1 -15.5 -3.3 -15.6 Q-3.3 -15.8 -2.85 -16.4 -2.3 -17.15 -1.8 -17.6 -1.35 -18.0 -1.05 -18.1 L-1.0 -18.05 M-3.4 -11.9 Q-3.1 -12.05 -2.85 -12.1 L-2.7 -12.2 Q-2.45 -12.35 -2.3 -12.25 -2.1 -12.15 -2.0 -11.65 L-2.0 -11.55 -1.95 -11.55 -1.95 -10.85 Q-1.95 -10.5 -2.35 -9.75 -2.95 -8.8 -3.75 -8.8 L-4.15 -8.85 -3.85 -9.65 -3.7 -10.15 -3.65 -10.7 Q-3.6 -11.15 -3.5 -11.55 L-3.5 -11.6 -3.4 -11.9 M-5.1 -7.6 Q-4.85 -7.1 -4.85 -6.7 -4.85 -6.35 -5.7 -5.7 -6.55 -5.05 -6.9 -5.05 L-7.05 -5.05 Q-7.4 -4.9 -7.75 -4.9 L-8.25 -4.85 -8.55 -4.85 -9.1 -4.8 Q-8.1 -5.65 -7.05 -6.4 -5.9 -7.2 -5.1 -7.6 M-8.1 -1.25 Q-7.8 -1.4 -7.25 -1.45 -5.3 -1.7 -4.85 -1.9 -4.0 -2.35 -3.1 -2.7 -2.4 -2.95 -1.65 -3.15 -1.4 -3.05 -1.2 -2.95 -0.6 -2.6 -0.6 -2.1 -0.6 -1.95 -0.85 -1.65 L-1.0 -1.4 -1.25 -1.35 -2.55 -1.2 -5.2 -0.85 Q-6.55 -0.85 -6.95 -0.85 -7.85 -0.95 -8.1 -1.25 M-2.4 -3.2 Q-4.2 -2.4 -5.1 -2.4 -5.4 -2.4 -5.35 -2.45 -5.0 -2.7 -3.85 -3.7 L-3.1 -4.35 -2.9 -4.25 Q-2.65 -4.05 -2.65 -3.8 L-3.05 -3.4 Q-3.05 -3.2 -3.0 -3.15 L-2.9 -3.1 -2.4 -3.2" fill="#4d0f0f" fill-rule="evenodd" stroke="none"/>
      <path d="M-0.5 -31.5 L0.5 -30.9 1.7 -30.15 1.65 -30.15 Q1.85 -29.9 1.65 -29.5 L1.4 -29.05 0.8 -28.45 0.2 -27.7 0.05 -27.6 -0.2 -27.35 Q-0.3 -27.5 -0.55 -27.6 -0.9 -27.85 -1.0 -28.0 L-1.05 -27.95 Q-0.95 -27.65 -0.75 -27.45 L-0.35 -27.1 0.0 -25.4 Q0.3 -24.2 0.3 -23.6 L-0.35 -23.15 Q-1.0 -22.65 -1.1 -22.5 -0.95 -22.5 -0.3 -22.9 L0.05 -23.1 0.45 -23.2 0.55 -23.05 Q0.55 -22.85 0.65 -22.65 L0.75 -22.45 Q0.9 -22.2 0.9 -22.0 0.85 -21.9 0.8 -21.8 0.8 -21.7 0.95 -21.55 0.75 -20.45 0.75 -20.15 L0.7 -20.15 Q-0.25 -20.15 -1.6 -19.75 -2.8 -19.45 -3.45 -18.95 -3.4 -19.65 -3.3 -20.65 L-3.35 -20.7 Q-3.45 -20.7 -3.5 -20.75 L-3.3 -21.0 -3.25 -21.05 -3.25 -21.05 Q-3.1 -21.15 -2.95 -21.25 L-2.55 -21.45 Q-2.1 -21.7 -1.8 -21.95 -2.65 -21.85 -3.0 -21.7 L-3.15 -21.65 -2.9 -23.2 Q-2.35 -26.0 -2.35 -26.25 L-2.25 -26.9 Q-2.1 -27.45 -2.1 -27.6 L-2.0 -27.85 Q-2.2 -27.95 -2.3 -28.15 L-2.2 -28.65 -2.15 -28.6 -1.9 -28.45 -1.8 -28.4 Q-1.35 -28.1 -1.15 -28.0 L-1.7 -28.65 -0.5 -31.5 M-4.0 -18.8 L-4.0 -18.55 -3.95 -18.45 -4.1 -18.25 Q-4.0 -18.25 -3.85 -18.3 L-3.75 -18.15 Q-3.55 -18.25 -3.5 -18.25 -3.4 -18.3 -3.4 -18.45 L-3.4 -18.5 -2.6 -18.95 Q-1.3 -19.65 -0.6 -19.65 0.35 -19.65 0.7 -19.1 0.0 -18.85 -0.7 -18.2 -0.95 -18.4 -1.05 -18.4 -1.4 -18.4 -2.35 -18.1 -3.3 -17.8 -3.35 -17.8 L-3.7 -17.9 -4.2 -18.0 -4.1 -18.3 Q-4.1 -18.35 -4.35 -18.9 -4.6 -19.55 -4.6 -19.95 -4.6 -20.25 -4.75 -24.1 -4.75 -24.6 -4.3 -26.95 L-3.9 -29.2 Q-3.9 -30.4 -2.6 -32.7 L-1.65 -34.3 -1.55 -33.8 -1.35 -33.3 -1.4 -33.45 Q-2.05 -32.1 -2.55 -30.8 -3.35 -28.85 -3.35 -28.2 L-3.45 -26.75 -3.5 -25.3 Q-3.5 -25.15 -3.6 -24.5 L-3.7 -23.7 Q-3.7 -23.3 -3.9 -22.1 L-4.1 -20.9 -4.2 -19.65 Q-4.25 -19.2 -4.0 -18.8 M2.9 -17.05 L3.05 -16.8 3.15 -16.7 3.1 -16.75 2.8 -14.5 Q2.5 -12.45 2.5 -11.9 2.5 -11.6 2.75 -11.2 2.9 -10.9 3.15 -10.75 L3.1 -10.8 3.4 -10.5 Q4.0 -9.9 4.0 -9.35 4.0 -8.9 3.0 -8.7 2.35 -8.55 2.1 -8.3 L2.05 -8.3 1.9 -8.4 Q1.25 -8.15 0.6 -8.05 L-0.25 -7.65 Q-1.0 -7.3 -1.0 -7.05 L-0.85 -6.5 Q-0.95 -6.05 -0.95 -5.2 -0.95 -5.05 -0.75 -4.3 L-0.65 -3.85 Q-1.5 -3.85 -2.3 -4.1 -2.4 -4.7 -2.85 -5.2 L-1.15 -8.85 Q-0.15 -8.95 0.6 -9.35 2.0 -10.15 2.0 -11.9 2.0 -12.05 2.15 -12.35 2.25 -12.65 2.25 -12.8 2.25 -13.25 1.7 -14.15 L1.5 -14.55 1.8 -15.15 Q2.5 -16.5 2.9 -17.05 M-3.45 -5.2 L-3.6 -5.05 Q-3.95 -5.25 -4.25 -5.35 L-4.3 -5.35 Q-4.35 -5.95 -4.55 -6.5 -4.65 -6.85 -5.1 -7.95 L-5.2 -8.15 Q-5.9 -10.0 -5.9 -11.9 L-5.85 -12.65 Q-5.75 -11.95 -5.55 -10.75 -5.15 -8.7 -4.65 -8.4 L-4.6 -8.4 -4.45 -8.35 -4.35 -8.35 -4.15 -8.2 Q-3.7 -7.9 -3.5 -7.3 -3.4 -7.0 -3.4 -6.35 L-3.45 -5.55 -3.45 -5.2 M1.4 -17.7 Q1.25 -18.0 1.15 -18.5 1.0 -19.05 0.95 -19.65 0.95 -21.0 1.3 -22.25 L1.3 -22.45 Q1.3 -22.6 1.45 -23.05 1.6 -23.55 1.6 -23.7 1.6 -24.2 2.35 -26.05 L3.15 -27.8 Q3.15 -28.45 4.15 -29.6 L5.4 -30.5 6.7 -31.5 Q5.5 -29.55 4.65 -27.25 3.75 -24.9 3.0 -22.7 1.55 -18.7 1.4 -17.7 M2.65 -29.4 Q2.75 -29.4 2.85 -29.5 L3.15 -29.35 Q3.15 -29.1 2.95 -28.6 2.7 -28.0 2.7 -27.8 2.7 -27.7 2.05 -26.0 1.4 -24.3 1.4 -24.2 1.4 -24.05 1.3 -23.7 1.2 -23.4 1.2 -23.2 L1.2 -23.15 0.9 -23.2 0.8 -23.3 0.7 -23.55 0.65 -23.55 0.3 -25.35 Q0.1 -26.45 -0.15 -27.1 L0.2 -27.4 1.15 -28.3 Q1.45 -28.65 1.6 -28.9 L2.2 -29.45 2.65 -29.4 M4.15 -23.3 L3.9 -22.7 3.25 -21.05 3.35 -21.55 Q3.6 -22.25 4.15 -23.3 M3.7 -20.7 L4.2 -20.65 4.75 -20.6 5.0 -20.65 5.0 -20.7 Q4.9 -20.7 4.05 -21.15 L3.9 -21.2 4.3 -22.25 Q4.4 -22.45 6.45 -25.15 L7.4 -26.5 Q7.75 -26.3 7.95 -26.05 L8.15 -25.75 8.15 -25.6 Q6.15 -21.7 5.7 -21.1 L5.5 -20.75 5.1 -20.75 5.1 -20.7 5.45 -20.6 5.5 -20.6 5.5 -20.55 6.0 -20.4 6.15 -20.35 6.2 -20.35 6.7 -20.25 6.8 -20.25 6.75 -20.2 Q6.6 -20.05 6.2 -20.05 L5.4 -20.15 5.15 -20.15 4.8 -19.65 3.35 -17.7 Q2.85 -18.3 2.8 -18.45 L2.85 -18.65 2.85 -18.8 3.15 -19.45 3.7 -20.7 M7.95 -22.85 L8.1 -23.0 Q8.15 -23.05 8.15 -23.25 8.35 -23.7 8.4 -24.0 L8.65 -24.45 8.8 -24.7 8.95 -24.7 9.1 -24.5 Q8.55 -23.35 8.55 -23.05 L8.05 -21.85 7.6 -20.6 Q7.6 -20.45 7.75 -19.85 L7.8 -19.45 7.8 -19.4 7.7 -19.35 7.45 -19.1 Q7.35 -19.7 7.15 -20.3 7.2 -20.35 7.25 -20.4 L7.05 -20.5 7.15 -20.7 Q7.3 -20.95 7.4 -21.3 7.5 -21.75 7.55 -22.1 L7.85 -22.6 7.95 -22.85 M4.9 -16.55 L4.2 -15.9 Q4.9 -16.35 8.3 -19.1 L11.4 -21.55 12.3 -21.5 12.85 -21.45 12.6 -21.25 Q11.25 -20.3 9.05 -18.25 8.75 -18.0 7.55 -17.25 L5.1 -15.8 Q4.3 -15.3 3.7 -14.85 L3.5 -14.85 3.45 -14.9 Q3.45 -15.05 3.6 -15.4 L3.6 -15.35 3.8 -15.7 3.9 -15.9 4.0 -16.0 4.05 -16.1 4.0 -16.05 4.9 -16.55 M6.0 -17.3 Q7.05 -18.0 7.6 -18.55 L6.0 -17.3 M-0.7 -6.9 Q-0.7 -7.25 -0.35 -7.5 0.15 -7.8 1.2 -7.8 1.9 -7.8 2.4 -7.05 L2.6 -6.65 3.0 -6.35 4.75 -5.0 Q4.4 -4.85 4.25 -4.85 3.05 -4.85 2.3 -5.05 1.45 -5.3 0.3 -5.95 L-0.7 -6.95 -0.7 -6.9 M-6.55 -32.9 Q-6.4 -33.05 -6.4 -33.1 L-6.05 -31.85 Q-5.95 -31.5 -5.8 -31.3 L-5.8 -31.2 Q-5.8 -30.95 -5.9 -30.5 L-6.05 -29.85 Q-6.1 -29.3 -6.5 -28.35 -6.8 -27.55 -6.8 -27.05 L-6.7 -26.3 -6.6 -25.35 -6.45 -25.4 -6.4 -26.7 -6.35 -26.7 Q-6.3 -26.7 -5.8 -27.05 L-5.3 -27.4 Q-5.3 -27.45 -5.5 -27.5 L-6.35 -27.4 -6.4 -27.4 -6.35 -28.1 Q-6.35 -28.75 -5.6 -30.0 L-5.05 -30.9 -5.0 -30.9 Q-4.85 -30.9 -4.6 -31.1 -4.2 -31.15 -3.85 -31.35 L-4.0 -30.85 Q-4.55 -29.1 -4.55 -28.75 -4.55 -28.2 -4.65 -27.25 L-5.0 -27.3 -5.25 -27.35 Q-5.1 -27.3 -4.95 -27.15 L-4.7 -26.95 -4.9 -25.6 Q-5.2 -23.4 -5.2 -21.25 L-5.3 -19.95 -5.55 -20.75 -5.65 -20.75 -5.5 -19.3 Q-5.4 -18.4 -5.35 -17.8 L-5.5 -17.45 -6.05 -18.55 Q-6.7 -19.9 -6.7 -20.1 -6.7 -20.5 -7.15 -22.45 -7.65 -24.35 -7.65 -26.35 -7.65 -26.85 -6.85 -31.35 L-6.75 -31.95 -6.65 -32.6 Q-6.65 -32.75 -6.55 -32.9 M-6.55 -24.8 L-6.6 -24.8 -6.35 -23.0 Q-6.15 -21.9 -5.95 -21.25 -5.9 -21.25 -5.85 -21.3 L-5.8 -21.35 Q-5.95 -22.25 -6.15 -23.15 L-6.55 -24.8 M-4.15 -11.85 Q-4.3 -11.7 -4.45 -11.7 -5.15 -11.7 -5.45 -12.75 -5.6 -13.25 -5.65 -13.8 -5.65 -14.4 -5.35 -14.85 L-5.25 -15.0 -5.0 -15.75 Q-4.8 -15.95 -4.45 -15.95 -4.35 -15.95 -3.85 -15.75 L-3.35 -15.55 Q-3.45 -15.35 -3.5 -15.05 -3.75 -13.35 -3.75 -13.05 -3.75 -13.0 -4.15 -11.9 L-4.15 -11.85 M-3.3 -15.6 L-4.6 -16.6 -4.7 -16.65 Q-4.35 -17.05 -3.95 -17.35 -2.85 -18.2 -1.15 -18.2 L-1.0 -18.05 -1.05 -18.1 Q-1.35 -18.0 -1.8 -17.6 -2.3 -17.15 -2.85 -16.4 -3.3 -15.8 -3.3 -15.6 M-4.15 -8.85 Q-4.4 -8.95 -4.55 -9.2 -4.65 -9.4 -4.65 -9.65 L-4.7 -9.8 Q-4.8 -10.2 -4.8 -10.6 L-4.8 -10.85 -4.85 -11.1 -4.85 -11.2 -4.75 -10.85 Q-4.7 -11.1 -4.5 -11.3 -4.15 -11.65 -3.7 -11.8 L-3.4 -11.9 -3.5 -11.6 -3.5 -11.55 Q-3.6 -11.15 -3.65 -10.7 L-3.7 -10.15 -3.85 -9.65 -4.15 -8.85 M-9.1 -4.8 L-9.45 -4.8 Q-8.5 -5.95 -7.75 -6.95 L-7.25 -7.65 -7.0 -7.85 -6.75 -8.4 -6.2 -9.5 Q-5.95 -9.4 -5.7 -8.8 -5.6 -8.5 -5.55 -8.3 -6.1 -7.9 -7.05 -7.4 L-7.45 -7.15 -7.0 -7.35 Q-5.95 -7.8 -5.45 -7.8 -5.3 -7.8 -5.25 -7.85 L-5.15 -7.7 -5.1 -7.6 Q-5.9 -7.2 -7.05 -6.4 -8.1 -5.65 -9.1 -4.8 M-1.65 -3.15 Q-2.4 -2.95 -3.1 -2.7 -4.0 -2.35 -4.85 -1.9 -5.3 -1.7 -7.25 -1.45 -7.8 -1.4 -8.1 -1.25 L-8.15 -1.45 -8.15 -1.6 Q-7.65 -1.8 -6.1 -2.9 -5.3 -3.5 -4.85 -3.95 -4.6 -4.0 -4.1 -4.15 L-3.55 -4.4 -3.1 -4.35 -3.85 -3.7 Q-5.0 -2.7 -5.35 -2.45 -5.4 -2.4 -5.1 -2.4 -4.2 -2.4 -2.4 -3.2 L-1.65 -3.15 M-1.25 -1.35 L-1.0 -1.4 -1.25 -1.35" fill="#8c1c1c" fill-rule="evenodd" stroke="none"/>
      <path d="M-1.4 -13.35 Q-1.25 -13.05 -1.2 -12.95 L-1.2 -12.5 -1.45 -12.65 Q-1.4 -12.8 -1.4 -12.95 L-1.4 -13.35 M-1.4 -12.05 L-1.25 -11.95 -1.25 -11.45 -1.3 -11.5 -1.35 -11.5 -1.4 -12.05" fill="#ffbc59" fill-rule="evenodd" stroke="none"/>
      <path d="M-1.4 -13.35 Q-1.35 -13.8 -1.35 -13.9 L-1.3 -13.95 -1.2 -14.15 -1.1 -13.9 -1.1 -13.4 -1.15 -13.05 -1.2 -12.95 Q-1.25 -13.05 -1.4 -13.35" fill="#ffffff" fill-rule="evenodd" stroke="none"/>
    </g>
  </defs>
</svg>
