<?xml version="1.0" encoding="UTF-8" standalone="no"?>
<svg xmlns:ffdec="https://www.free-decompiler.com/flash" xmlns:xlink="http://www.w3.org/1999/xlink" ffdec:objectType="frame" height="591.9px" width="2426.8px" xmlns="http://www.w3.org/2000/svg">
  <g transform="matrix(1.0, 0.0, 0.0, 1.0, 801.1, 87.7)">
    <use ffdec:characterId="259" height="444.75" transform="matrix(1.0, 0.0, 0.0, 1.0, 3.65, 41.05)" width="1510.85" xlink:href="#shape0"/>
    <use ffdec:characterId="263" height="211.95" transform="matrix(0.702, 0.0, 0.0, 0.6351, 770.7637, 329.3408)" width="720.15" xlink:href="#sprite0"/>
    <use ffdec:characterId="267" height="199.85" transform="matrix(0.702, 0.0, 0.0, 0.702, 1153.8315, 363.9207)" width="672.15" xlink:href="#sprite2"/>
    <use ffdec:characterId="267" height="199.85" transform="matrix(0.702, 0.0, 0.0, 0.702, -801.1185, -87.6793)" width="672.15" xlink:href="#sprite2"/>
    <use ffdec:characterId="263" height="211.95" transform="matrix(0.6914, -0.1191, 0.1191, 0.6914, -529.3166, 28.0637)" width="720.15" xlink:href="#sprite0"/>
    <use ffdec:characterId="267" height="199.85" transform="matrix(0.702, 0.0, 0.0, 0.702, 194.1815, 188.7707)" width="672.15" xlink:href="#sprite2"/>
    <use ffdec:characterId="268" height="567.6" transform="matrix(1.0, 0.0, 0.0, 1.0, -495.55, -81.15)" width="2049.25" xlink:href="#shape5"/>
  </g>
  <defs>
    <g id="shape0" transform="matrix(1.0, 0.0, 0.0, 1.0, -3.65, -41.05)">
      <path d="M1373.25 366.15 Q1442.1 374.1 1449.6 374.1 L1514.5 371.35 1512.45 376.1 Q1505.35 392.3 1502.1 394.95 1494.05 401.7 1477.35 403.5 L1464.6 404.65 Q1457.8 405.35 1454.2 406.75 1447.1 409.25 1435.95 411.3 1415.75 415.0 1391.75 415.0 1362.85 415.0 1347.75 414.0 1335.35 413.2 1328.35 411.35 L1193.7 411.35 1170.5 410.85 1165.05 410.3 1137.0 410.0 1120.2 409.45 1114.55 409.1 Q1113.5 409.1 1110.45 411.3 1107.4 413.45 1102.85 413.45 1095.5 413.45 1086.05 410.45 L1074.95 407.0 Q1067.15 408.6 1054.05 406.75 L958.6 406.5 952.3 405.7 814.65 405.7 807.0 406.5 763.85 406.6 Q772.25 413.8 780.45 421.35 797.6 437.2 786.6 450.9 775.4 447.5 764.25 443.55 753.25 439.65 730.15 430.65 707.4 421.75 694.0 417.05 678.9 411.7 663.3 407.05 631.45 397.55 597.3 390.9 510.85 382.95 427.05 352.8 390.5 339.65 353.15 321.7 301.6 292.6 287.05 283.9 L286.75 284.15 286.4 284.4 Q301.55 301.85 335.7 324.45 L337.55 326.05 337.25 325.8 Q341.5 334.05 359.8 344.7 L366.45 349.95 Q410.2 384.0 466.9 408.3 473.4 411.1 480.45 414.55 502.25 425.3 528.85 442.3 L553.1 457.85 Q565.3 465.5 572.7 468.8 592.4 477.5 609.5 485.8 L590.3 483.6 509.85 470.2 399.4 417.9 377.15 418.05 368.65 418.8 311.25 418.8 306.2 419.45 Q302.5 419.45 295.35 417.5 288.15 415.5 286.75 415.5 284.8 415.5 283.6 416.95 282.45 418.4 280.45 418.4 274.0 418.4 237.75 406.15 216.2 398.85 194.35 390.85 L142.35 369.15 Q104.1 353.15 97.9 353.15 96.15 353.15 50.55 330.5 4.3 307.5 4.3 305.25 L4.3 305.0 3.65 304.6 Q4.85 290.8 6.45 276.05 12.55 220.4 21.2 183.35 24.55 169.0 30.2 136.6 35.7 105.25 39.6 89.1 L45.45 65.5 51.4 41.85 51.6 41.05 79.5 51.75 90.3 58.7 Q107.9 70.2 117.8 75.55 134.25 84.45 151.4 89.65 159.0 91.95 212.95 111.75 266.25 131.3 275.7 134.0 285.65 136.9 306.05 146.0 324.85 154.4 341.55 158.6 365.7 164.85 408.1 168.2 L435.5 170.15 Q447.85 171.15 451.0 172.2 474.8 180.2 532.35 197.6 L593.55 215.85 Q617.05 221.3 641.55 231.25 658.9 238.3 675.75 247.3 L692.45 256.7 Q704.4 263.45 724.15 273.2 L736.75 279.4 752.85 286.35 Q815.85 313.65 852.35 325.85 906.3 343.85 941.2 343.85 L967.45 341.95 993.7 340.0 Q1017.55 340.0 1047.55 344.85 1067.75 348.1 1100.65 355.55 1138.25 364.0 1150.05 366.2 1175.9 371.05 1192.8 371.05 L1201.0 370.9 1204.4 370.1 Q1213.2 368.05 1251.5 364.9 L1271.05 361.55 1289.45 358.2 Q1304.4 358.2 1373.25 366.15" fill="#ffff99" fill-rule="evenodd" stroke="none"/>
    </g>
    <g id="sprite0" transform="matrix(1.0, 0.0, 0.0, 1.0, -302.65, 28.75)">
      <use ffdec:characterId="261" height="100.8" transform="matrix(1.0, 0.0, 0.0, 1.7076, 328.55, -9.0)" width="673.5" xlink:href="#sprite1"/>
      <use ffdec:characterId="262" height="211.95" transform="matrix(1.0, 0.0, 0.0, 1.0, 302.65, -28.75)" width="720.15" xlink:href="#shape2"/>
    </g>
    <g id="sprite1" transform="matrix(1.0, 0.0, 0.0, 1.0, -0.2, 0.0)">
      <use ffdec:characterId="260" height="100.8" transform="matrix(1.0, 0.0, 0.0, 1.0, 0.2, 0.0)" width="673.5" xlink:href="#shape1"/>
    </g>
    <g id="shape1" transform="matrix(1.0, 0.0, 0.0, 1.0, -0.2, 0.0)">
      <path d="M649.2 80.15 L639.7 80.0 638.0 81.0 Q638.0 81.1 638.55 81.2 L639.05 81.3 644.5 81.0 649.65 80.85 649.65 81.5 Q656.75 80.4 661.35 82.05 662.5 81.2 664.55 81.3 666.4 81.4 667.95 82.3 669.55 83.3 669.8 84.55 L669.95 88.3 670.1 95.2 670.1 96.7 660.05 96.75 664.4 96.0 664.5 94.25 Q664.5 90.9 661.85 88.7 658.6 85.95 651.85 85.4 L629.75 85.4 612.75 86.6 590.0 87.8 580.8 87.35 566.35 89.5 555.7 91.05 Q549.25 92.85 545.05 94.4 L530.3 99.45 526.6 99.5 Q538.3 95.5 544.9 92.35 L546.35 91.7 546.05 91.25 547.65 89.6 546.65 87.2 505.4 87.25 495.75 88.0 485.9 88.45 472.45 87.7 Q467.6 87.1 466.65 86.6 L435.55 86.6 435.55 85.9 436.0 82.8 436.35 80.9 440.2 80.95 451.05 81.1 459.55 80.75 467.75 80.55 479.85 82.0 482.25 82.35 490.15 82.15 478.7 80.9 470.75 79.8 467.7 79.55 Q467.7 79.75 451.65 79.75 L451.5 79.8 450.95 79.85 437.95 80.2 437.7 80.2 437.15 80.2 436.45 80.2 436.45 79.7 436.2 79.2 457.3 79.2 481.1 80.5 519.8 80.5 504.35 81.15 499.15 81.15 Q498.65 80.85 478.5 80.65 L478.2 80.65 488.35 81.25 498.5 81.5 504.5 81.95 511.45 82.15 519.15 81.8 538.5 81.5 541.65 81.05 544.9 80.85 561.05 81.1 Q564.9 81.5 582.95 81.5 L597.25 81.95 611.3 82.15 615.2 82.15 622.25 81.6 629.1 81.15 628.9 80.5 616.5 80.5 611.3 81.15 583.6 81.15 570.4 80.5 561.15 80.0 616.5 80.0 618.35 79.6 644.2 79.6 649.2 80.15 M2.5 19.35 L2.2 16.7 Q1.65 10.75 3.15 6.35 L4.05 5.3 4.45 4.85 4.75 4.6 4.9 4.45 5.05 4.3 5.7 4.5 6.3 4.65 Q35.4 13.3 74.05 23.7 109.05 33.05 151.8 43.85 L177.05 50.2 Q177.95 51.8 179.4 53.65 L180.6 55.55 180.55 56.45 176.6 55.75 Q162.3 53.2 152.05 50.55 138.6 47.05 108.85 36.75 94.6 31.85 83.35 28.65 79.85 29.9 76.85 31.85 71.45 35.35 68.15 40.65 L68.1 40.65 Q73.15 30.05 73.15 26.95 L72.95 25.9 67.15 24.6 Q51.9 21.45 36.55 16.3 22.5 11.2 18.05 9.95 11.2 8.0 8.9 10.15 6.55 12.4 6.45 20.65 4.45 19.95 2.5 19.35 M182.4 56.75 L182.4 53.6 182.2 52.0 Q183.95 52.85 184.55 52.25 L184.7 52.15 293.9 79.3 294.55 79.95 292.45 79.75 292.3 79.95 292.15 80.25 294.85 80.35 Q297.45 83.45 297.85 87.9 L297.9 89.2 297.9 89.3 297.65 95.9 297.1 95.85 290.3 95.45 Q289.85 91.8 289.15 89.55 287.5 84.35 282.85 82.4 281.3 81.75 270.1 79.4 259.1 77.05 249.05 72.8 231.15 65.2 201.2 59.95 L182.4 56.75 M299.05 96.0 L299.05 91.05 Q298.8 87.25 298.85 84.7 L298.85 83.55 299.95 81.35 Q299.35 81.6 298.9 81.9 L298.55 80.45 299.35 80.65 300.8 81.05 301.2 81.15 301.8 81.3 302.15 81.1 301.95 81.05 299.4 80.3 298.3 80.0 298.2 79.85 299.4 79.95 304.2 80.3 304.25 80.3 308.2 80.55 308.6 80.55 Q308.8 80.75 329.65 81.0 L350.5 81.25 353.25 81.65 355.7 81.8 357.75 81.5 367.05 81.8 375.5 81.15 380.9 81.65 388.85 82.15 393.05 81.95 410.45 81.8 410.75 81.7 410.95 81.65 415.65 81.3 416.0 81.3 417.6 81.2 417.9 81.2 417.95 81.2 419.35 81.15 424.3 80.85 424.1 80.25 411.65 80.25 411.5 80.45 410.95 80.8 380.7 80.6 393.2 79.25 Q416.6 77.2 426.35 79.2 L435.15 79.2 435.4 79.7 435.35 80.25 434.95 80.25 434.4 80.25 433.8 80.25 433.3 80.25 432.75 80.25 432.45 80.25 430.1 80.25 429.75 80.25 425.6 79.85 421.75 79.75 Q421.75 80.05 425.45 80.35 L429.15 80.55 435.3 80.85 434.8 86.6 415.05 86.6 409.25 87.25 403.1 87.8 384.15 87.9 Q387.8 93.15 394.3 100.3 L392.5 100.25 Q384.25 92.45 372.55 88.4 L372.15 88.45 345.9 88.55 343.8 89.1 313.75 89.2 Q307.1 91.0 306.2 95.4 L306.05 96.55 299.05 96.0 M306.35 80.1 L299.4 79.45 297.65 79.2 297.55 79.2 297.55 79.15 296.75 79.2 Q294.45 79.2 292.65 78.0 L296.5 78.55 296.55 78.6 297.7 78.75 305.5 79.85 306.8 80.05 306.75 80.05 306.35 80.1 M292.1 77.9 L292.35 78.0 293.1 78.55 288.85 77.4 292.1 77.9 M6.9 4.2 L6.8 4.2 5.85 3.9 5.65 3.85 5.8 3.8 6.5 3.85 6.9 4.2 M572.35 63.4 Q572.3 62.65 571.95 62.5 L571.55 62.3 566.55 62.5 549.15 59.8 553.3 59.15 559.45 58.5 559.25 58.2 593.25 66.8 585.15 65.4 572.35 63.4 M314.1 14.75 L312.95 14.55 316.25 15.4 290.05 13.7 257.45 15.4 232.2 14.4 Q227.0 14.4 224.0 15.15 L219.75 15.85 157.45 12.05 148.15 13.3 139.8 14.55 136.95 14.1 134.05 13.6 Q133.0 13.6 132.35 14.05 L110.0 10.8 93.45 8.85 103.45 8.35 152.05 8.5 159.25 9.15 165.95 9.65 254.1 9.65 285.05 11.65 304.45 12.45 308.9 13.6 314.1 14.75 M453.55 63.65 L479.4 65.15 493.45 65.6 529.9 64.05 Q534.0 64.05 579.65 71.25 L605.05 75.25 597.65 75.5 595.1 75.55 590.45 75.7 577.95 75.7 564.95 74.6 560.4 73.95 426.4 73.95 Q425.75 70.3 407.4 65.6 L385.65 60.8 392.55 61.3 397.95 61.8 411.5 61.25 Q425.5 60.75 432.15 61.05 L446.65 62.8 440.8 63.35 442.65 63.8 445.7 63.95 453.55 63.65 M520.9 55.6 Q498.1 52.2 484.55 49.3 L453.75 41.85 Q438.5 38.85 418.8 33.65 L393.65 27.15 402.15 26.45 413.45 25.5 Q416.75 24.9 418.45 24.15 L495.6 42.7 509.45 46.05 536.35 52.55 535.7 52.8 520.9 55.6 M549.65 55.85 L558.0 57.9 Q554.25 57.5 551.75 56.75 L549.65 55.85 M540.8 58.5 L542.85 58.35 Q543.7 58.35 545.85 59.1 L546.9 59.45 540.8 58.5 M536.15 66.7 Q533.8 65.85 532.1 65.65 528.85 65.35 527.25 68.0 527.45 68.4 528.65 68.85 L531.1 69.3 Q533.8 69.3 534.9 68.6 535.75 68.05 536.15 66.7 M467.35 57.9 L462.75 58.2 439.75 55.9 Q420.65 53.55 404.75 53.55 L391.7 54.55 380.0 53.9 Q369.5 53.05 365.45 51.9 L347.95 51.35 Q314.05 52.35 292.65 48.15 L277.9 45.1 Q269.75 43.65 261.0 43.65 241.95 38.05 234.95 36.7 L218.5 34.05 204.7 31.55 178.45 25.25 154.3 18.8 155.6 18.7 157.2 18.55 220.75 22.55 Q222.8 22.55 226.0 21.55 L229.05 21.25 232.45 21.05 256.7 21.95 273.45 21.4 285.65 20.55 Q296.5 19.85 309.3 21.75 324.15 23.95 336.65 23.95 358.55 23.95 404.35 36.05 L444.9 46.7 Q469.65 52.95 489.9 56.55 L467.35 57.9 M380.3 43.45 Q380.35 43.75 382.8 44.1 L386.15 44.45 388.45 44.1 390.2 43.55 387.4 42.7 380.65 43.2 380.3 43.45 M373.4 38.8 L366.25 37.5 359.3 36.3 Q358.15 36.3 357.85 36.65 L357.5 37.4 Q356.8 38.45 351.45 38.45 348.35 38.45 346.65 37.75 345.2 36.9 344.3 36.6 341.2 35.6 327.75 38.9 L328.0 39.8 Q331.1 38.6 332.9 38.6 333.6 38.6 335.25 39.45 336.95 40.3 338.45 40.3 339.1 40.3 340.7 39.7 L342.9 39.05 Q343.55 39.05 344.05 39.6 344.55 40.15 345.15 40.15 L356.0 40.85 363.15 41.55 369.7 40.85 374.9 39.55 374.1 39.1 373.4 38.8 M400.6 21.65 Q388.25 23.25 383.75 24.85 364.95 20.7 342.25 18.0 L342.95 18.05 342.95 17.9 Q342.95 15.85 326.1 12.55 L325.15 12.4 329.5 12.4 332.25 12.9 349.0 11.6 367.7 11.6 405.8 21.05 400.6 21.65 M310.65 72.5 L312.6 71.65 Q315.4 70.35 316.65 70.1 L331.1 69.05 343.55 68.3 337.5 67.7 330.3 67.35 Q325.85 67.35 324.0 68.4 322.15 69.45 315.7 69.45 311.45 68.1 310.65 67.5 L311.55 67.1 Q311.95 66.8 311.95 65.8 311.95 64.8 311.65 64.85 L311.3 65.05 304.25 67.15 Q299.7 68.3 299.7 70.1 L299.8 70.85 293.55 69.8 285.45 68.35 Q264.35 64.4 232.4 57.05 L204.8 50.65 213.45 50.85 220.8 50.2 229.8 49.55 240.7 48.65 Q264.8 48.65 353.05 61.9 L368.7 66.35 368.0 66.7 368.5 67.45 369.9 67.65 372.0 67.3 380.95 69.9 Q390.1 72.3 397.75 73.95 L376.05 73.95 Q352.75 78.4 310.65 72.5 M376.75 87.9 L376.5 87.9 376.7 88.0 376.75 87.9 M318.75 33.15 L321.9 32.6 324.45 32.05 Q323.4 31.75 320.35 32.1 317.3 32.45 317.3 32.85 317.3 34.1 318.75 33.15 M215.85 43.7 L204.15 45.05 Q198.6 45.1 194.25 45.3 188.45 45.6 186.1 46.35 L181.25 45.25 Q159.85 40.5 140.5 34.25 119.95 27.2 107.6 23.45 99.9 21.15 70.15 15.3 L50.95 11.0 53.4 11.2 79.3 13.7 134.9 19.65 Q143.95 23.7 175.25 30.95 202.75 37.3 233.55 43.2 221.4 43.1 215.85 43.7 M169.95 35.7 Q167.8 34.7 165.0 35.6 L165.3 37.05 Q168.35 38.6 170.55 38.55 174.5 38.45 175.8 38.65 L169.95 35.7 M142.7 18.35 L143.05 18.55 142.4 18.35 142.7 18.35" fill="#e1ecd1" fill-rule="evenodd" stroke="none"/>
      <path d="M670.1 96.7 L670.1 95.2 669.95 88.3 669.8 84.55 Q669.55 83.3 667.95 82.3 666.4 81.4 664.55 81.3 662.5 81.2 661.35 82.05 656.75 80.4 649.65 81.5 L649.65 80.85 644.5 81.0 639.05 81.3 638.55 81.2 Q638.0 81.1 638.0 81.0 L639.7 80.0 649.2 80.15 649.4 80.15 650.55 80.15 653.85 80.15 655.25 80.15 654.0 79.95 644.95 78.45 640.7 77.7 634.85 78.25 Q632.65 78.4 630.35 76.45 L629.65 75.8 623.3 74.8 623.25 74.8 612.25 73.1 575.2 67.45 568.45 66.35 566.75 66.1 534.4 61.9 529.0 61.45 529.1 61.5 529.45 62.05 525.55 62.2 523.1 62.35 523.05 62.35 520.85 62.85 521.15 62.95 511.0 62.5 488.9 61.55 469.9 60.95 469.75 60.95 446.75 59.45 443.85 59.3 418.4 58.4 Q403.4 58.15 397.75 58.3 L376.75 57.55 Q370.55 57.75 344.05 57.0 L342.7 56.65 339.95 56.35 381.5 64.95 389.3 66.55 Q409.5 70.9 421.05 73.95 L426.25 75.4 Q434.75 77.85 436.2 79.2 L436.45 79.7 436.45 80.2 437.15 80.2 437.7 80.2 437.95 80.2 450.95 79.85 451.5 79.8 451.65 79.75 Q467.7 79.75 467.7 79.55 L470.75 79.8 478.7 80.9 490.15 82.15 482.25 82.35 479.85 82.0 467.75 80.55 459.55 80.75 451.05 81.1 440.2 80.95 436.35 80.9 436.0 82.8 435.55 85.9 435.55 86.6 435.05 99.15 435.0 100.8 433.8 100.8 Q434.0 95.55 434.8 86.6 L435.3 80.85 429.15 80.55 425.45 80.35 Q421.75 80.05 421.75 79.75 L425.6 79.85 429.75 80.25 430.1 80.25 432.45 80.25 432.75 80.25 433.3 80.25 433.8 80.25 434.4 80.25 434.95 80.25 435.35 80.25 435.4 79.7 435.15 79.2 434.9 78.65 425.55 76.45 414.95 73.95 382.95 66.75 381.45 66.45 336.3 56.1 331.8 55.9 310.0 54.7 326.25 54.9 274.25 49.2 270.05 48.5 264.95 48.1 263.0 47.85 258.5 46.8 284.2 50.1 Q309.25 53.2 323.0 53.2 L330.65 54.0 342.45 55.1 342.9 55.35 376.65 56.35 396.75 57.3 Q413.35 56.8 437.05 57.7 L446.8 58.15 Q463.25 58.95 470.45 60.2 L470.95 60.3 490.05 60.9 511.5 61.65 518.9 62.4 518.7 62.2 518.75 62.15 518.5 62.05 518.5 61.7 519.0 61.7 519.5 60.85 519.9 60.1 519.0 59.85 509.0 57.4 470.95 48.3 447.4 42.75 436.95 40.3 428.0 38.2 Q413.15 35.35 401.35 32.2 L398.3 31.35 385.45 27.55 384.7 27.55 373.85 26.2 364.05 24.8 363.8 24.35 342.65 21.55 335.6 20.5 325.5 20.05 279.75 18.55 256.1 19.65 237.75 20.3 217.15 19.45 Q212.1 19.25 209.55 19.5 L207.2 19.8 181.05 18.75 157.9 17.65 151.95 18.05 147.6 18.3 147.0 18.5 144.9 19.1 144.6 19.1 145.85 19.65 Q147.9 20.4 154.65 21.3 L154.15 21.9 153.5 21.8 193.9 31.6 Q235.05 41.25 251.15 45.35 L224.8 39.65 197.9 33.7 173.2 27.75 Q152.35 22.5 152.2 21.65 L145.7 20.4 145.55 20.35 144.5 20.3 144.5 20.05 143.1 19.6 142.45 19.35 142.25 19.3 Q138.85 17.95 135.95 17.35 L131.9 17.1 131.25 17.05 127.9 16.8 123.4 16.45 70.45 11.05 43.7 8.0 34.4 6.95 6.5 3.85 5.8 3.8 5.65 3.85 5.85 3.9 6.8 4.2 6.9 4.2 Q27.5 9.9 57.05 17.6 96.65 27.95 152.3 41.95 L176.15 48.0 176.95 47.9 178.95 48.4 183.5 48.25 187.1 48.1 187.85 48.05 188.9 48.05 193.15 47.95 198.4 47.75 208.15 47.4 232.0 47.1 247.3 47.0 244.75 46.8 233.4 46.05 214.4 47.1 212.5 46.95 Q211.55 46.8 211.55 46.55 L218.75 46.3 233.15 45.3 242.1 45.85 251.05 46.4 252.5 45.45 Q254.4 44.8 257.25 46.3 L257.4 46.65 257.35 46.85 264.15 48.15 262.35 48.4 259.45 47.8 258.45 47.95 256.9 48.15 Q257.0 47.4 257.2 47.3 L257.4 47.3 257.15 47.25 256.15 47.55 249.55 47.2 199.25 47.8 193.55 48.05 189.8 48.5 189.05 48.65 182.15 49.2 Q183.35 49.55 184.0 50.0 247.3 66.1 288.75 77.4 L288.85 77.4 293.1 78.55 292.35 78.0 292.1 77.9 292.15 77.9 291.65 77.75 290.35 77.4 290.1 77.35 290.1 77.15 Q290.55 77.15 292.2 77.85 L291.3 77.25 291.45 77.05 292.65 78.0 Q294.45 79.2 296.75 79.2 L297.55 79.15 297.55 79.2 297.65 79.2 299.4 79.45 306.35 80.1 306.65 80.1 348.2 80.55 350.7 80.55 353.5 80.75 356.25 80.4 363.75 80.85 359.75 81.3 357.75 81.5 355.7 81.8 353.25 81.65 350.5 81.25 329.65 81.0 Q308.8 80.75 308.6 80.55 L308.2 80.55 304.25 80.3 304.2 80.3 299.4 79.95 298.2 79.85 298.3 80.0 299.4 80.3 301.95 81.05 302.15 81.1 301.8 81.3 301.2 81.15 300.8 81.05 299.35 80.65 298.55 80.45 298.9 81.9 298.9 82.6 298.85 83.55 298.85 84.7 Q298.8 87.25 299.05 91.05 L299.05 96.0 297.65 95.9 297.9 89.3 297.9 89.2 297.85 87.9 Q297.45 83.45 294.85 80.35 L292.15 80.25 292.3 79.95 292.45 79.75 294.55 79.95 293.9 79.3 184.7 52.15 184.55 52.25 Q183.95 52.85 182.2 52.0 L182.4 53.6 182.4 56.75 182.35 58.7 182.65 61.1 181.8 75.05 181.05 74.9 181.8 66.15 181.7 67.0 Q181.25 70.3 181.0 74.85 L180.9 74.85 180.85 74.3 Q179.9 68.35 179.9 66.05 L180.55 56.45 180.6 55.55 179.4 53.65 Q177.95 51.8 177.05 50.2 L151.8 43.85 Q109.05 33.05 74.05 23.7 35.4 13.3 6.3 4.65 L5.7 4.5 5.05 4.3 4.9 4.45 4.75 4.6 4.45 4.85 4.05 5.3 3.15 6.35 Q1.65 10.75 2.2 16.7 L2.5 19.35 0.45 18.65 0.35 6.55 1.1 5.15 3.55 3.55 3.5 3.55 1.0 5.05 0.2 6.4 0.35 3.25 0.35 2.9 0.4 0.6 Q2.55 -0.25 6.45 0.1 L6.6 0.35 Q10.7 -0.1 16.55 0.2 L36.6 1.85 51.65 2.5 76.45 2.5 84.7 1.95 92.5 2.05 92.5 1.95 121.2 2.25 123.95 2.45 158.75 2.25 172.05 1.7 175.45 2.0 187.9 1.5 208.55 1.5 Q216.15 1.35 228.45 1.6 L233.5 2.0 237.2 2.3 245.55 3.1 263.2 3.25 267.9 3.6 280.55 3.8 297.3 3.75 315.85 4.45 318.85 4.4 333.9 3.85 339.5 4.1 344.3 4.5 349.75 4.3 369.0 3.95 370.85 4.05 370.65 3.65 371.85 3.8 371.75 3.85 372.35 4.0 373.2 4.0 377.65 4.35 387.25 7.5 Q407.65 13.6 425.55 15.25 L426.15 15.45 Q432.3 17.35 438.35 18.7 L451.3 22.35 463.15 25.1 464.8 25.55 469.6 27.65 Q476.95 30.6 485.0 32.35 494.4 34.4 510.1 38.45 518.8 40.55 527.7 42.15 L538.35 44.8 548.15 47.85 636.65 70.3 661.4 76.35 Q666.25 78.05 668.9 79.4 L669.35 79.45 669.35 79.65 Q671.15 80.65 671.7 81.5 673.7 82.8 673.7 84.1 673.7 87.8 673.1 96.7 L670.1 96.7 M561.15 80.0 L570.4 80.5 583.6 81.15 611.3 81.15 616.5 80.5 628.9 80.5 629.1 81.15 622.25 81.6 615.2 82.15 611.3 82.15 597.25 81.95 582.95 81.5 Q564.9 81.5 561.05 81.1 L544.9 80.85 541.65 81.05 538.5 81.5 519.15 81.8 511.45 82.15 504.5 81.95 498.5 81.5 488.35 81.25 478.2 80.65 478.5 80.65 Q498.65 80.85 499.15 81.15 L504.35 81.15 519.8 80.5 522.05 80.5 522.2 80.45 Q524.05 80.3 531.4 80.3 L538.7 80.2 539.15 79.85 561.15 80.0 M304.45 12.45 L290.35 8.9 289.55 9.15 288.4 8.5 288.25 8.4 282.4 6.95 279.75 6.75 254.9 4.95 204.0 5.1 Q189.55 3.1 182.25 5.1 L170.5 5.1 169.95 5.25 167.6 5.05 129.4 5.05 129.3 4.85 127.3 4.85 121.2 4.6 118.85 4.5 101.9 4.3 98.1 4.25 86.0 4.85 80.05 4.65 78.05 4.45 77.2 4.85 41.55 4.85 39.1 4.5 36.15 4.1 28.05 3.05 21.1 2.2 14.0 2.0 13.0 2.0 9.7 2.05 7.8 2.25 6.2 2.55 6.35 2.65 6.85 3.1 7.0 3.25 7.1 3.4 7.15 3.55 7.0 3.55 7.0 3.6 46.65 7.0 63.95 8.85 123.5 15.4 128.8 16.0 131.25 16.25 139.3 17.05 143.35 16.9 145.0 16.65 146.95 16.8 152.75 16.7 179.65 17.5 Q197.45 18.3 208.4 18.3 L238.15 19.3 280.7 17.7 341.1 20.0 342.8 20.35 342.65 20.2 353.9 21.9 347.2 21.05 344.9 20.8 341.6 20.7 336.8 20.55 359.2 23.25 365.95 24.25 370.7 24.95 370.05 24.85 371.45 25.05 372.15 25.15 375.6 25.6 376.6 25.75 382.45 26.1 384.25 26.05 383.25 26.55 386.65 26.9 386.55 27.3 386.2 27.45 395.8 30.1 404.2 32.3 409.8 33.7 442.25 40.95 447.45 42.15 470.95 47.55 511.45 57.1 518.1 58.7 518.2 58.6 518.3 58.45 524.65 59.3 Q524.8 59.45 524.9 59.4 L524.95 60.0 525.4 60.15 525.75 60.25 528.55 60.5 529.75 61.05 534.9 61.6 565.95 65.4 570.45 66.05 576.75 67.0 612.3 71.75 612.7 71.8 613.45 71.95 613.9 72.0 627.4 74.45 628.5 74.65 628.45 74.65 638.05 76.4 652.85 78.75 611.55 67.45 561.0 53.7 538.85 48.15 521.75 43.85 Q479.25 33.1 444.4 23.8 L444.0 23.7 441.7 23.1 438.6 22.65 434.9 22.35 426.15 23.05 425.65 23.05 423.1 23.25 421.7 23.3 420.75 23.35 419.45 23.5 419.25 23.5 408.2 24.4 408.05 24.4 407.55 24.4 391.7 25.2 391.95 25.15 404.7 24.15 413.4 23.55 404.2 23.6 392.8 24.45 412.4 22.75 412.7 22.75 420.05 22.2 432.75 21.35 432.7 20.85 432.7 20.65 412.0 14.95 Q392.1 10.65 371.7 7.0 L370.25 7.0 370.8 6.85 370.3 6.75 370.05 6.8 368.1 6.8 368.1 7.35 367.85 7.4 344.85 7.5 335.8 6.95 323.05 7.1 314.95 7.1 313.05 7.05 294.15 7.25 292.35 8.05 291.5 8.4 299.2 10.15 309.5 12.45 327.25 16.35 344.2 20.1 Q329.75 18.0 317.5 15.5 L314.1 14.75 308.9 13.6 304.45 12.45 M434.45 21.1 L434.35 21.25 434.85 21.2 434.45 21.1 M380.7 80.6 L410.95 80.8 411.5 80.45 411.65 80.25 424.1 80.25 424.3 80.85 419.35 81.15 417.95 81.2 417.9 81.2 417.6 81.2 416.0 81.3 415.65 81.3 410.95 81.65 410.75 81.7 410.45 81.8 393.05 81.95 388.85 82.15 380.9 81.65 375.5 81.15 371.4 80.55 380.7 80.6 M386.2 25.35 L391.5 24.65 390.6 24.8 387.5 25.55 386.2 25.35 M287.15 7.45 L287.0 7.25 286.1 7.2 287.15 7.45 M142.7 18.35 L142.4 18.35 143.05 18.55 142.7 18.35 M4.2 3.1 L3.75 3.4 3.8 3.4 4.2 3.1" fill="#a8b492" fill-rule="evenodd" stroke="none"/>
      <path d="M649.2 80.15 L644.2 79.6 618.35 79.6 616.5 80.0 561.15 80.0 539.15 79.85 538.7 80.2 531.4 80.3 Q524.05 80.3 522.2 80.45 L522.05 80.5 519.8 80.5 481.1 80.5 457.3 79.2 436.2 79.2 Q434.75 77.85 426.25 75.4 L421.05 73.95 Q409.5 70.9 389.3 66.55 L381.5 64.95 339.95 56.35 342.7 56.65 344.05 57.0 Q370.55 57.75 376.75 57.55 L397.75 58.3 Q403.4 58.15 418.4 58.4 L443.85 59.3 446.75 59.45 469.75 60.95 469.9 60.95 488.9 61.55 511.0 62.5 521.15 62.95 520.85 62.85 523.05 62.35 523.1 62.35 525.55 62.2 529.45 62.05 529.1 61.5 529.0 61.45 534.4 61.9 566.75 66.1 568.45 66.35 575.2 67.45 612.25 73.1 623.25 74.8 623.3 74.8 629.65 75.8 630.35 76.45 Q632.65 78.4 634.85 78.25 L640.7 77.7 644.95 78.45 654.0 79.95 655.25 80.15 653.85 80.15 650.55 80.15 649.4 80.15 649.2 80.15 M357.75 81.5 L359.75 81.3 363.75 80.85 356.25 80.4 353.5 80.75 350.7 80.55 348.2 80.55 Q345.05 80.0 343.75 79.2 L320.75 79.75 307.1 79.85 305.5 79.85 297.7 78.75 296.55 78.6 296.5 78.55 292.65 78.0 291.45 77.05 291.3 77.25 292.2 77.85 Q290.55 77.15 290.1 77.15 L290.1 77.35 290.35 77.4 291.65 77.75 292.15 77.9 292.1 77.9 288.85 77.4 288.75 77.4 Q247.3 66.1 184.0 50.0 183.35 49.55 182.15 49.2 L189.05 48.65 189.8 48.5 193.55 48.05 199.25 47.8 249.55 47.2 256.15 47.55 257.15 47.25 257.4 47.3 257.2 47.3 Q257.0 47.4 256.9 48.15 L258.45 47.95 259.45 47.8 262.35 48.4 264.15 48.15 257.35 46.85 257.4 46.65 257.25 46.3 Q254.4 44.8 252.5 45.45 L251.05 46.4 242.1 45.85 233.15 45.3 218.75 46.3 211.55 46.55 Q211.55 46.8 212.5 46.95 L214.4 47.1 233.4 46.05 244.75 46.8 247.3 47.0 232.0 47.1 208.15 47.4 198.4 47.75 193.15 47.95 188.9 48.05 187.85 48.05 187.1 48.1 183.5 48.25 178.95 48.4 176.95 47.9 176.15 48.0 152.3 41.95 Q96.65 27.95 57.05 17.6 27.5 9.9 6.9 4.2 L6.5 3.85 34.4 6.95 43.7 8.0 70.45 11.05 123.4 16.45 127.9 16.8 131.25 17.05 131.9 17.1 135.95 17.35 Q138.85 17.95 142.25 19.3 L142.45 19.35 143.1 19.6 144.5 20.05 144.5 20.3 145.55 20.35 145.7 20.4 152.2 21.65 Q152.35 22.5 173.2 27.75 L197.9 33.7 224.8 39.65 251.15 45.35 Q235.05 41.25 193.9 31.6 L153.5 21.8 154.15 21.9 154.65 21.3 Q147.9 20.4 145.85 19.65 L144.6 19.1 144.9 19.1 147.0 18.5 147.6 18.3 151.95 18.05 157.9 17.65 181.05 18.75 207.2 19.8 209.55 19.5 Q212.1 19.25 217.15 19.45 L237.75 20.3 256.1 19.65 279.75 18.55 325.5 20.05 335.6 20.5 342.65 21.55 363.8 24.35 364.05 24.8 373.85 26.2 384.7 27.55 385.45 27.55 398.3 31.35 401.35 32.2 Q413.15 35.35 428.0 38.2 L436.95 40.3 447.4 42.75 470.95 48.3 509.0 57.4 519.0 59.85 519.9 60.1 519.5 60.85 519.0 61.7 518.5 61.7 518.5 62.05 518.75 62.15 518.7 62.2 518.9 62.4 511.5 61.65 490.05 60.9 470.95 60.3 470.45 60.2 Q463.25 58.95 446.8 58.15 L437.05 57.7 Q413.35 56.8 396.75 57.3 L376.65 56.35 342.9 55.35 342.45 55.1 330.65 54.0 323.0 53.2 Q309.25 53.2 284.2 50.1 L258.5 46.8 263.0 47.85 264.95 48.1 270.05 48.5 274.25 49.2 326.25 54.9 310.0 54.7 331.8 55.9 336.3 56.1 381.45 66.45 382.95 66.75 414.95 73.95 425.55 76.45 434.9 78.65 435.15 79.2 426.35 79.2 Q416.6 77.2 393.2 79.25 L380.7 80.6 371.4 80.55 375.5 81.15 367.05 81.8 357.75 81.5 M572.35 63.4 L585.15 65.4 593.25 66.8 559.25 58.2 558.35 58.0 558.0 57.9 549.65 55.85 549.55 55.8 549.45 55.8 536.35 52.55 509.45 46.05 495.6 42.7 418.45 24.15 Q416.75 24.9 413.45 25.5 L402.15 26.45 393.65 27.15 418.8 33.65 Q438.5 38.85 453.75 41.85 L484.55 49.3 Q498.1 52.2 520.9 55.6 L538.0 58.05 540.8 58.5 546.9 59.45 549.15 59.8 566.55 62.5 572.35 63.4 M314.1 14.75 L317.5 15.5 Q329.75 18.0 344.2 20.1 L327.25 16.35 309.5 12.45 299.2 10.15 291.5 8.4 292.35 8.05 294.15 7.25 313.05 7.05 314.95 7.1 323.05 7.1 335.8 6.95 344.85 7.5 367.85 7.4 368.1 7.35 368.1 6.8 370.05 6.8 370.3 6.75 370.8 6.85 370.25 7.0 371.7 7.0 Q392.1 10.65 412.0 14.95 L432.7 20.65 432.7 20.85 432.75 21.35 420.05 22.2 412.7 22.75 412.4 22.75 392.8 24.45 404.2 23.6 413.4 23.55 404.7 24.15 391.95 25.15 391.7 25.2 407.55 24.4 408.05 24.4 408.2 24.4 419.25 23.5 419.45 23.5 420.75 23.35 421.7 23.3 423.1 23.25 425.65 23.05 426.15 23.05 434.9 22.35 438.6 22.65 441.7 23.1 444.0 23.7 444.4 23.8 Q479.25 33.1 521.75 43.85 L538.85 48.15 561.0 53.7 611.55 67.45 652.85 78.75 638.05 76.4 628.45 74.65 628.5 74.65 627.4 74.45 613.9 72.0 613.45 71.95 612.7 71.8 612.3 71.75 576.75 67.0 570.45 66.05 565.95 65.4 534.9 61.6 529.75 61.05 528.55 60.5 525.75 60.25 525.4 60.15 524.95 60.0 524.9 59.4 Q524.8 59.45 524.65 59.3 L518.3 58.45 518.2 58.6 518.1 58.7 511.45 57.1 470.95 47.55 447.45 42.15 442.25 40.95 409.8 33.7 404.2 32.3 395.8 30.1 386.2 27.45 386.55 27.3 386.65 26.9 383.25 26.55 384.25 26.05 382.45 26.1 376.6 25.75 375.6 25.6 372.15 25.15 371.45 25.05 370.05 24.85 370.7 24.95 365.95 24.25 359.2 23.25 336.8 20.55 341.6 20.7 344.9 20.8 347.2 21.05 353.9 21.9 342.65 20.2 342.8 20.35 341.1 20.0 280.7 17.7 238.15 19.3 208.4 18.3 Q197.45 18.3 179.65 17.5 L152.75 16.7 146.95 16.8 145.0 16.65 143.35 16.9 139.3 17.05 131.25 16.25 128.8 16.0 123.5 15.4 63.95 8.85 46.65 7.0 7.0 3.6 7.0 3.55 7.15 3.55 7.1 3.4 7.0 3.25 6.85 3.1 6.35 2.65 6.2 2.55 7.8 2.25 9.7 2.05 13.0 2.0 14.0 2.0 21.1 2.2 28.05 3.05 36.15 4.1 39.1 4.5 41.55 4.85 77.2 4.85 78.05 4.45 80.05 4.65 86.0 4.85 98.1 4.25 101.9 4.3 118.85 4.5 121.2 4.6 127.3 4.85 129.3 4.85 129.4 5.05 167.6 5.05 169.95 5.25 170.5 5.1 182.25 5.1 Q189.55 3.1 204.0 5.1 L254.9 4.95 279.75 6.75 282.4 6.95 288.25 8.4 288.4 8.5 289.55 9.15 290.35 8.9 304.45 12.45 285.05 11.65 254.1 9.65 165.95 9.65 159.25 9.15 152.05 8.5 103.45 8.35 93.45 8.85 110.0 10.8 132.35 14.05 Q133.0 13.6 134.05 13.6 L136.95 14.1 139.8 14.55 148.15 13.3 157.45 12.05 219.75 15.85 224.0 15.15 Q227.0 14.4 232.2 14.4 L257.45 15.4 290.05 13.7 316.25 15.4 312.95 14.55 314.1 14.75 M446.65 62.8 L432.15 61.05 Q425.5 60.75 411.5 61.25 L397.95 61.8 392.55 61.3 385.65 60.8 407.4 65.6 Q425.75 70.3 426.4 73.95 L560.4 73.95 564.95 74.6 577.95 75.7 590.45 75.7 595.1 75.55 597.65 75.5 605.05 75.25 579.65 71.25 Q534.0 64.05 529.9 64.05 L493.45 65.6 479.4 65.15 453.55 63.65 450.65 63.3 446.65 62.8 M434.45 21.1 L434.85 21.2 434.35 21.25 434.45 21.1 M467.35 57.9 L489.9 56.55 Q469.65 52.95 444.9 46.7 L404.35 36.05 Q358.55 23.95 336.65 23.95 324.15 23.95 309.3 21.75 296.5 19.85 285.65 20.55 L273.45 21.4 256.7 21.95 232.45 21.05 229.05 21.25 226.0 21.55 Q222.8 22.55 220.75 22.55 L157.2 18.55 155.6 18.7 154.3 18.8 178.45 25.25 204.7 31.55 218.5 34.05 234.95 36.7 Q241.95 38.05 261.0 43.65 269.75 43.65 277.9 45.1 L292.65 48.15 Q314.05 52.35 347.95 51.35 L365.45 51.9 Q369.5 53.05 380.0 53.9 L391.7 54.55 404.75 53.55 Q420.65 53.55 439.75 55.9 L462.75 58.2 467.35 57.9 M368.3 7.6 L368.3 7.55 368.05 7.6 368.3 7.6 M386.2 25.35 L387.5 25.55 390.6 24.8 391.5 24.65 386.2 25.35 M400.6 21.65 L405.8 21.05 367.7 11.6 349.0 11.6 332.25 12.9 329.5 12.4 325.15 12.4 326.1 12.55 Q342.95 15.85 342.95 17.9 L342.95 18.05 342.25 18.0 Q364.95 20.7 383.75 24.85 388.25 23.25 400.6 21.65 M310.65 72.5 Q352.75 78.4 376.05 73.95 L397.75 73.95 Q390.1 72.3 380.95 69.9 L372.0 67.3 368.7 66.35 353.05 61.9 Q264.8 48.65 240.7 48.65 L229.8 49.55 220.8 50.2 213.45 50.85 204.8 50.65 232.4 57.05 Q264.35 64.4 285.45 68.35 L293.55 69.8 299.8 70.85 310.65 72.5 M287.15 7.45 L286.1 7.2 287.0 7.25 287.15 7.45 M215.85 43.7 Q221.4 43.1 233.55 43.2 202.75 37.3 175.25 30.95 143.95 23.7 134.9 19.65 L79.3 13.7 53.4 11.2 50.95 11.0 70.15 15.3 Q99.9 21.15 107.6 23.45 119.95 27.2 140.5 34.25 159.85 40.5 181.25 45.25 L186.1 46.35 Q188.45 45.6 194.25 45.3 198.6 45.1 204.15 45.05 L215.85 43.7" fill="#f4f8e7" fill-rule="evenodd" stroke="none"/>
      <path d="M435.55 86.6 L466.65 86.6 Q467.6 87.1 472.45 87.7 L485.9 88.45 495.75 88.0 505.4 87.25 546.65 87.2 547.65 89.6 546.05 91.25 546.35 91.7 544.9 92.35 Q538.3 95.5 526.6 99.5 L475.5 100.4 Q455.2 100.85 435.0 100.8 L435.05 99.15 435.55 86.6 M530.3 99.45 L545.05 94.4 Q549.25 92.85 555.7 91.05 L566.35 89.5 580.8 87.35 590.0 87.8 612.75 86.6 629.75 85.4 651.85 85.4 Q658.6 85.95 661.85 88.7 664.5 90.9 664.5 94.25 L664.4 96.0 660.05 96.75 642.5 96.95 Q603.85 98.8 565.2 99.1 547.7 99.2 530.3 99.45 M180.55 56.45 L179.9 66.05 Q179.9 68.35 180.85 74.3 L180.9 74.85 165.1 70.35 Q129.75 60.2 94.85 49.1 L68.15 40.65 Q71.45 35.35 76.85 31.85 79.85 29.9 83.35 28.65 94.6 31.85 108.85 36.75 138.6 47.05 152.05 50.55 162.3 53.2 176.6 55.75 L180.55 56.45 M181.0 74.85 Q181.25 70.3 181.7 67.0 L181.8 66.15 181.05 74.9 181.0 74.85 M181.8 75.05 L182.65 61.1 182.35 58.7 182.4 56.75 201.2 59.95 Q231.15 65.2 249.05 72.8 259.1 77.05 270.1 79.4 281.3 81.75 282.85 82.4 287.5 84.35 289.15 89.55 289.85 91.8 290.3 95.45 259.3 93.2 228.8 86.5 205.1 81.4 181.8 75.05 M298.85 83.55 L298.9 82.6 298.9 81.9 Q299.35 81.6 299.95 81.35 L298.85 83.55 M348.2 80.55 L306.65 80.1 306.35 80.1 306.75 80.05 306.8 80.05 305.5 79.85 307.1 79.85 320.75 79.75 343.75 79.2 Q345.05 80.0 348.2 80.55 M434.8 86.6 Q434.0 95.55 433.8 100.8 414.0 100.75 394.3 100.3 387.8 93.15 384.15 87.9 L403.1 87.8 409.25 87.25 415.05 86.6 434.8 86.6 M566.55 62.5 L571.55 62.3 571.95 62.5 Q572.3 62.65 572.35 63.4 L566.55 62.5 M559.25 58.2 L559.45 58.5 553.3 59.15 549.15 59.8 546.9 59.45 545.85 59.1 Q543.7 58.35 542.85 58.35 L540.8 58.5 538.0 58.05 520.9 55.6 535.7 52.8 536.35 52.55 549.45 55.8 549.55 55.8 549.65 55.85 551.75 56.75 Q554.25 57.5 558.0 57.9 L558.35 58.0 559.25 58.2 M453.55 63.65 L445.7 63.95 442.65 63.8 440.8 63.35 446.65 62.8 450.65 63.3 453.55 63.65 M536.15 66.7 Q535.75 68.05 534.9 68.6 533.8 69.3 531.1 69.3 L528.65 68.85 Q527.45 68.4 527.25 68.0 528.85 65.35 532.1 65.65 533.8 65.85 536.15 66.7 M373.4 38.8 L374.1 39.1 374.9 39.55 369.7 40.85 363.15 41.55 356.0 40.85 345.15 40.15 Q344.55 40.15 344.05 39.6 343.55 39.05 342.9 39.05 L340.7 39.7 Q339.1 40.3 338.45 40.3 336.95 40.3 335.25 39.45 333.6 38.6 332.9 38.6 331.1 38.6 328.0 39.8 L327.75 38.9 Q341.2 35.6 344.3 36.6 345.2 36.9 346.65 37.75 348.35 38.45 351.45 38.45 356.8 38.45 357.5 37.4 L357.85 36.65 Q358.15 36.3 359.3 36.3 L366.25 37.5 373.4 38.8 M380.3 43.45 L380.65 43.2 387.4 42.7 390.2 43.55 388.45 44.1 386.15 44.45 382.8 44.1 Q380.35 43.75 380.3 43.45 M299.8 70.85 L299.7 70.1 Q299.7 68.3 304.25 67.15 L311.3 65.05 311.65 64.85 Q311.95 64.8 311.95 65.8 311.95 66.8 311.55 67.1 L310.65 67.5 Q311.45 68.1 315.7 69.45 322.15 69.45 324.0 68.4 325.85 67.35 330.3 67.35 L337.5 67.7 343.55 68.3 331.1 69.05 316.65 70.1 Q315.4 70.35 312.6 71.65 L310.65 72.5 299.8 70.85 M372.0 67.3 L369.9 67.65 368.5 67.45 368.0 66.7 368.7 66.35 372.0 67.3 M306.05 96.55 L306.2 95.4 Q307.1 91.0 313.75 89.2 L343.8 89.1 345.9 88.55 372.15 88.45 372.55 88.4 Q384.25 92.45 392.5 100.25 L358.95 99.1 306.05 96.55 M376.75 87.9 L376.7 88.0 376.5 87.9 376.75 87.9 M318.75 33.15 Q317.3 34.1 317.3 32.85 317.3 32.45 320.35 32.1 323.4 31.75 324.45 32.05 L321.9 32.6 318.75 33.15 M169.95 35.7 L175.8 38.65 Q174.5 38.45 170.55 38.55 168.35 38.6 165.3 37.05 L165.0 35.6 Q167.8 34.7 169.95 35.7 M6.45 20.65 Q6.55 12.4 8.9 10.15 11.2 8.0 18.05 9.95 22.5 11.2 36.55 16.3 51.9 21.45 67.15 24.6 L72.95 25.9 73.15 26.95 Q73.15 30.05 68.1 40.65 L6.45 20.65" fill="#cee0ba" fill-rule="evenodd" stroke="none"/>
      <path d="M368.3 7.6 L368.05 7.6 368.3 7.55 368.3 7.6" fill="#838f88" fill-rule="evenodd" stroke="none"/>
    </g>
    <g id="shape2" transform="matrix(1.0, 0.0, 0.0, 1.0, -302.65, 28.75)">
      <path d="M769.55 -0.1 L794.2 10.85 Q807.6 16.8 816.2 19.55 834.85 25.55 860.45 40.1 L881.45 52.35 Q893.9 59.65 902.2 63.9 911.0 68.45 923.75 73.0 L946.7 80.7 Q976.4 90.6 992.9 101.3 998.2 104.75 1010.65 125.95 1022.8 146.7 1022.8 151.05 1022.8 160.3 1014.1 164.8 1005.4 169.35 982.65 171.95 L920.25 176.65 818.85 183.2 782.75 183.2 779.45 182.4 747.7 182.15 Q638.4 178.85 595.75 168.1 582.15 164.65 566.8 158.1 549.15 150.55 539.7 147.65 522.7 142.45 479.8 124.75 434.3 106.0 418.15 96.85 406.4 90.15 391.55 82.3 L363.3 67.45 Q353.45 62.2 342.95 52.7 330.5 41.45 326.65 38.85 317.2 32.45 312.85 24.75 309.5 18.85 308.5 10.5 307.85 1.05 307.25 -3.65 306.15 -11.75 302.65 -17.45 310.7 -26.6 316.95 -28.3 322.15 -29.65 333.3 -27.0 354.65 -21.85 362.45 -20.5 386.0 -16.4 415.1 -15.75 L518.15 -15.75 522.9 -16.4 560.0 -16.65 Q570.6 -19.0 590.25 -19.2 612.4 -19.4 613.55 -19.55 L708.45 -19.55 Q736.45 -14.35 769.55 -0.1 M500.9 62.5 L507.6 64.55 Q530.75 71.0 546.4 78.45 555.15 82.6 568.2 89.8 580.3 95.65 597.05 99.35 618.3 104.0 656.95 107.75 L691.25 107.75 705.95 108.4 719.85 108.65 733.25 108.9 Q741.15 108.9 764.3 101.1 785.0 94.1 791.75 90.4 799.1 86.4 807.1 83.3 L817.8 79.35 Q822.25 77.5 824.0 75.45 826.0 73.05 826.0 68.5 826.0 63.75 815.5 55.45 803.35 45.85 783.75 37.5 730.3 14.8 654.85 14.8 587.4 14.8 527.75 9.3 L490.55 5.5 466.15 3.8 Q444.9 6.7 435.6 9.9 425.9 13.2 424.9 18.2 L423.6 17.25 423.6 17.15 Q423.6 15.3 426.4 9.85 429.35 4.05 429.5 3.25 424.3 6.3 422.05 9.05 420.3 11.15 419.85 13.7 419.3 13.35 419.0 13.35 L415.55 13.55 414.05 13.75 Q416.75 15.8 420.0 18.85 420.2 19.7 420.55 20.4 421.8 22.75 425.0 23.65 L425.4 24.05 Q432.75 33.5 455.95 45.6 481.85 59.15 500.9 62.5" fill="#ffff99" fill-rule="evenodd" stroke="none"/>
      <path d="M586.4 95.05 Q592.95 96.75 600.65 98.1 620.5 101.6 656.95 104.6 691.5 105.1 692.8 105.65 L719.85 105.65 Q742.95 104.6 766.05 97.3 783.8 91.65 790.2 86.85 792.55 85.05 798.65 82.8 L809.9 78.8 Q824.05 73.7 824.05 69.65 824.05 64.3 812.5 56.15 799.75 47.15 778.9 39.35 724.45 19.0 651.7 19.0 586.5 19.0 545.65 14.8 L519.75 11.35 504.35 8.65 Q477.1 4.1 450.45 10.65 440.6 13.1 433.85 16.35 427.7 19.35 427.7 21.1 L427.9 23.05 Q438.7 30.6 460.9 42.7 481.35 53.85 493.9 58.95 L517.45 66.15 Q535.35 72.4 550.2 79.7 L540.65 75.0 Q546.2 77.25 551.65 79.65 L570.7 88.3 586.4 95.05 M500.9 62.5 Q481.85 59.15 455.95 45.6 432.75 33.5 425.4 24.05 L425.0 23.65 Q421.8 22.75 420.55 20.4 420.2 19.7 420.0 18.85 416.75 15.8 414.05 13.75 L415.55 13.55 419.0 13.35 Q419.3 13.35 419.85 13.7 420.3 11.15 422.05 9.05 424.3 6.3 429.5 3.25 429.35 4.05 426.4 9.85 423.6 15.3 423.6 17.15 L423.6 17.25 424.9 18.2 Q425.9 13.2 435.6 9.9 444.9 6.7 466.15 3.8 L490.55 5.5 527.75 9.3 Q587.4 14.8 654.85 14.8 730.3 14.8 783.75 37.5 803.35 45.85 815.5 55.45 826.0 63.75 826.0 68.5 826.0 73.05 824.0 75.45 822.25 77.5 817.8 79.35 L807.1 83.3 Q799.1 86.4 791.75 90.4 785.0 94.1 764.3 101.1 741.15 108.9 733.25 108.9 L719.85 108.65 705.95 108.4 691.25 107.75 656.95 107.75 Q618.3 104.0 597.05 99.35 580.3 95.65 568.2 89.8 555.15 82.6 546.4 78.45 530.75 71.0 507.6 64.55 L500.9 62.5" fill="#f0c942" fill-rule="evenodd" stroke="none"/>
    </g>
    <g id="sprite2" transform="matrix(1.0, 0.0, 0.0, 1.0, -341.35, 22.05)">
      <use ffdec:characterId="265" height="99.55" transform="matrix(1.0, 0.0, 0.0, 1.7076, 358.05, -6.8655)" width="644.0" xlink:href="#sprite3"/>
      <use ffdec:characterId="266" height="199.85" transform="matrix(1.0, 0.0, 0.0, 1.0, 341.35, -22.05)" width="672.15" xlink:href="#shape4"/>
    </g>
    <g id="sprite3" transform="matrix(1.0, 0.0, 0.0, 1.0, -29.7, -1.25)">
      <use ffdec:characterId="264" height="99.55" transform="matrix(1.0, 0.0, 0.0, 1.0, 29.7, 1.25)" width="644.0" xlink:href="#shape3"/>
    </g>
    <g id="shape3" transform="matrix(1.0, 0.0, 0.0, 1.0, -29.7, -1.25)">
      <path d="M649.2 80.15 L639.7 80.0 638.0 81.0 Q638.0 81.1 638.55 81.2 L639.05 81.3 644.5 81.0 649.65 80.85 649.65 81.5 Q656.75 80.4 661.35 82.05 662.5 81.2 664.55 81.3 666.4 81.4 667.95 82.3 669.55 83.3 669.8 84.55 L669.95 88.3 670.1 95.2 670.1 96.7 660.05 96.75 664.4 96.0 664.5 94.25 Q664.5 90.9 661.85 88.7 658.6 85.95 651.85 85.4 L629.75 85.4 612.75 86.6 590.0 87.8 580.8 87.35 566.35 89.5 555.7 91.05 Q549.25 92.85 545.05 94.4 L530.3 99.45 526.6 99.5 Q538.3 95.5 544.9 92.35 L546.35 91.7 546.05 91.25 547.65 89.6 546.65 87.2 505.4 87.25 495.75 88.0 485.9 88.45 472.45 87.7 Q467.6 87.1 466.65 86.6 L435.55 86.6 435.55 85.9 436.0 82.8 436.35 80.9 440.2 80.95 451.05 81.1 459.55 80.75 467.75 80.55 479.85 82.0 482.25 82.35 490.15 82.15 478.7 80.9 470.75 79.8 467.7 79.55 Q467.7 79.75 451.65 79.75 L451.5 79.8 450.95 79.85 437.95 80.2 437.7 80.2 437.15 80.2 436.45 80.2 436.45 79.7 436.2 79.2 457.3 79.2 481.1 80.5 519.8 80.5 504.35 81.15 499.15 81.15 Q498.65 80.85 478.5 80.65 L478.2 80.65 488.35 81.25 498.5 81.5 504.5 81.95 511.45 82.15 519.15 81.8 538.5 81.5 541.65 81.05 544.9 80.85 561.05 81.1 Q564.9 81.5 582.95 81.5 L597.25 81.95 611.3 82.15 615.2 82.15 622.25 81.6 629.1 81.15 628.9 80.5 616.5 80.5 611.3 81.15 583.6 81.15 570.4 80.5 561.15 80.0 616.5 80.0 618.35 79.6 644.2 79.6 649.2 80.15 M304.45 12.45 L308.9 13.6 314.1 14.75 312.95 14.55 316.25 15.4 290.05 13.7 257.45 15.4 232.2 14.4 Q227.0 14.4 224.0 15.15 L219.75 15.85 157.45 12.05 148.15 13.3 139.8 14.55 136.95 14.1 134.05 13.6 Q133.0 13.6 132.35 14.05 L110.0 10.8 93.45 8.85 103.45 8.35 152.05 8.5 159.25 9.15 165.95 9.65 254.1 9.65 285.05 11.65 304.45 12.45 M435.15 79.2 L435.4 79.7 435.35 80.25 434.95 80.25 434.4 80.25 433.8 80.25 433.3 80.25 432.75 80.25 432.45 80.25 430.1 80.25 429.75 80.25 425.6 79.85 421.75 79.75 Q421.75 80.05 425.45 80.35 L429.15 80.55 435.3 80.85 434.8 86.6 415.05 86.6 409.25 87.25 403.1 87.8 384.15 87.9 Q387.8 93.15 394.3 100.3 L392.5 100.25 Q384.25 92.45 372.55 88.4 L372.15 88.45 345.9 88.55 343.8 89.1 313.75 89.2 Q307.1 91.0 306.2 95.4 L306.2 95.55 299.05 92.95 299.05 91.05 Q298.8 87.25 298.85 84.7 L298.85 83.55 299.95 81.35 Q299.35 81.6 298.9 81.9 L298.55 80.45 299.35 80.65 300.8 81.05 301.2 81.15 301.8 81.3 302.15 81.1 301.95 81.05 299.4 80.3 298.3 80.0 298.2 79.85 299.4 79.95 304.2 80.3 304.25 80.3 308.2 80.55 308.6 80.55 Q308.8 80.75 329.65 81.0 L350.5 81.25 353.25 81.65 355.7 81.8 357.75 81.5 367.05 81.8 375.5 81.15 380.9 81.65 388.85 82.15 393.05 81.95 410.45 81.8 410.75 81.7 410.95 81.65 415.65 81.3 416.0 81.3 417.6 81.2 417.9 81.2 417.95 81.2 419.35 81.15 424.3 80.85 424.1 80.25 411.65 80.25 411.5 80.45 410.95 80.8 380.7 80.6 393.2 79.25 Q416.6 77.2 426.35 79.2 L435.15 79.2 M572.35 63.4 Q572.3 62.65 571.95 62.5 L571.55 62.3 566.55 62.5 549.15 59.8 553.3 59.15 559.45 58.5 559.25 58.2 593.25 66.8 585.15 65.4 572.35 63.4 M453.55 63.65 L479.4 65.15 493.45 65.6 529.9 64.05 Q534.0 64.05 579.65 71.25 L605.05 75.25 597.65 75.5 595.1 75.55 590.45 75.7 577.95 75.7 564.95 74.6 560.4 73.95 426.4 73.95 Q425.75 70.3 407.4 65.6 L385.65 60.8 392.55 61.3 397.95 61.8 411.5 61.25 Q425.5 60.75 432.15 61.05 L446.65 62.8 440.8 63.35 442.65 63.8 445.7 63.95 453.55 63.65 M520.9 55.6 Q498.1 52.2 484.55 49.3 L453.75 41.85 Q438.5 38.85 418.8 33.65 L393.65 27.15 402.15 26.45 413.45 25.5 Q416.75 24.9 418.45 24.15 L495.6 42.7 509.45 46.05 536.35 52.55 535.7 52.8 520.9 55.6 M549.65 55.85 L558.0 57.9 Q554.25 57.5 551.75 56.75 L549.65 55.85 M540.8 58.5 L542.85 58.35 Q543.7 58.35 545.85 59.1 L546.9 59.45 540.8 58.5 M536.15 66.7 Q533.8 65.85 532.1 65.65 528.85 65.35 527.25 68.0 527.45 68.4 528.65 68.85 L531.1 69.3 Q533.8 69.3 534.9 68.6 535.75 68.05 536.15 66.7 M467.35 57.9 L462.75 58.2 439.75 55.9 Q420.65 53.55 404.75 53.55 L391.7 54.55 380.0 53.9 Q369.5 53.05 365.45 51.9 L347.95 51.35 Q314.05 52.35 292.65 48.15 L277.9 45.1 Q269.75 43.65 261.0 43.65 241.95 38.05 234.95 36.7 L218.5 34.05 204.7 31.55 178.45 25.25 154.3 18.8 155.6 18.7 157.2 18.55 220.75 22.55 Q222.8 22.55 226.0 21.55 L229.05 21.25 232.45 21.05 256.7 21.95 273.45 21.4 285.65 20.55 Q296.5 19.85 309.3 21.75 324.15 23.95 336.65 23.95 358.55 23.95 404.35 36.05 L444.9 46.7 Q469.65 52.95 489.9 56.55 L467.35 57.9 M380.3 43.45 Q380.35 43.75 382.8 44.1 L386.15 44.45 388.45 44.1 390.2 43.55 387.4 42.7 380.65 43.2 380.3 43.45 M373.4 38.8 L366.25 37.5 359.3 36.3 Q358.15 36.3 357.85 36.65 L357.5 37.4 Q356.8 38.45 351.45 38.45 348.35 38.45 346.65 37.75 345.2 36.9 344.3 36.6 341.2 35.6 327.75 38.9 L328.0 39.8 Q331.1 38.6 332.9 38.6 333.6 38.6 335.25 39.45 336.95 40.3 338.45 40.3 339.1 40.3 340.7 39.7 L342.9 39.05 Q343.55 39.05 344.05 39.6 344.55 40.15 345.15 40.15 L356.0 40.85 363.15 41.55 369.7 40.85 374.9 39.55 374.1 39.1 373.4 38.8 M400.6 21.65 Q388.25 23.25 383.75 24.85 364.95 20.7 342.25 18.0 L342.95 18.05 342.95 17.9 Q342.95 15.85 326.1 12.55 L325.15 12.4 329.5 12.4 332.25 12.9 349.0 11.6 367.7 11.6 405.8 21.05 400.6 21.65 M310.65 72.5 L312.6 71.65 Q315.4 70.35 316.65 70.1 L331.1 69.05 343.55 68.3 337.5 67.7 330.3 67.35 Q325.85 67.35 324.0 68.4 322.15 69.45 315.7 69.45 311.45 68.1 310.65 67.5 L311.55 67.1 Q311.95 66.8 311.95 65.8 311.95 64.8 311.65 64.85 L311.3 65.05 304.25 67.15 Q299.7 68.3 299.7 70.1 L299.8 70.85 293.55 69.8 285.45 68.35 Q264.35 64.4 232.4 57.05 L204.8 50.65 213.45 50.85 220.8 50.2 229.8 49.55 240.7 48.65 Q264.8 48.65 353.05 61.9 L368.7 66.35 368.0 66.7 368.5 67.45 369.9 67.65 372.0 67.3 380.95 69.9 Q390.1 72.3 397.75 73.95 L376.05 73.95 Q352.75 78.4 310.65 72.5 M306.35 80.1 L299.4 79.45 297.65 79.2 297.55 79.2 297.55 79.15 296.75 79.2 Q294.45 79.2 292.65 78.0 L296.5 78.55 296.55 78.6 297.7 78.75 305.5 79.85 306.8 80.05 306.75 80.05 306.35 80.1 M292.1 77.9 L292.35 78.0 293.1 78.55 288.85 77.4 292.1 77.9 M44.25 15.55 L74.05 23.7 Q109.05 33.05 151.8 43.85 L177.05 50.2 Q177.95 51.8 179.4 53.65 L180.6 55.55 180.55 56.45 176.6 55.75 Q162.3 53.2 152.05 50.55 138.6 47.05 108.85 36.75 94.6 31.85 83.35 28.65 79.85 29.9 76.85 31.85 74.3 33.5 72.25 35.55 L70.7 34.95 Q73.15 29.15 73.15 26.95 L72.95 25.9 67.15 24.6 Q58.3 22.75 49.4 20.25 L44.25 15.55 M182.4 56.75 L182.4 53.6 182.2 52.0 Q183.95 52.85 184.55 52.25 L184.7 52.15 293.9 79.3 294.55 79.95 292.45 79.75 292.3 79.95 292.15 80.25 294.85 80.35 Q297.45 83.45 297.85 87.9 L297.9 89.2 297.9 89.3 297.85 92.5 292.8 90.7 289.1 89.45 Q287.45 84.35 282.85 82.4 281.3 81.75 270.1 79.4 259.1 77.05 249.05 72.8 231.15 65.2 201.2 59.95 L182.4 56.75 M376.75 87.9 L376.5 87.9 376.7 88.0 376.75 87.9 M318.75 33.15 L321.9 32.6 324.45 32.05 Q323.4 31.75 320.35 32.1 317.3 32.45 317.3 32.85 317.3 34.1 318.75 33.15 M215.85 43.7 L204.15 45.05 Q198.6 45.1 194.25 45.3 188.45 45.6 186.1 46.35 L181.25 45.25 Q159.85 40.5 140.5 34.25 119.95 27.2 107.6 23.45 99.9 21.15 70.15 15.3 L50.95 11.0 53.4 11.2 79.3 13.7 134.9 19.65 Q143.95 23.7 175.25 30.95 202.75 37.3 233.55 43.2 221.4 43.1 215.85 43.7 M169.95 35.7 Q167.8 34.7 165.0 35.6 L165.3 37.05 Q168.35 38.6 170.55 38.55 174.5 38.45 175.8 38.65 L169.95 35.7 M142.7 18.35 L143.05 18.55 142.4 18.35 142.7 18.35" fill="#e1ecd1" fill-rule="evenodd" stroke="none"/>
      <path d="M670.1 96.7 L670.1 95.2 669.95 88.3 669.8 84.55 Q669.55 83.3 667.95 82.3 666.4 81.4 664.55 81.3 662.5 81.2 661.35 82.05 656.75 80.4 649.65 81.5 L649.65 80.85 644.5 81.0 639.05 81.3 638.55 81.2 Q638.0 81.1 638.0 81.0 L639.7 80.0 649.2 80.15 649.4 80.15 650.55 80.15 653.85 80.15 655.25 80.15 654.0 79.95 644.95 78.45 640.7 77.7 634.85 78.25 Q632.65 78.4 630.35 76.45 L629.65 75.8 623.3 74.8 623.25 74.8 612.25 73.1 575.2 67.45 568.45 66.35 566.75 66.1 534.4 61.9 529.0 61.45 529.1 61.5 529.45 62.05 525.55 62.2 523.1 62.35 523.05 62.35 520.85 62.85 521.15 62.95 511.0 62.5 488.9 61.55 469.9 60.95 469.75 60.95 446.75 59.45 443.85 59.3 418.4 58.4 Q403.4 58.15 397.75 58.3 L376.75 57.55 Q370.55 57.75 344.05 57.0 L342.7 56.65 339.95 56.35 381.5 64.95 389.3 66.55 Q409.5 70.9 421.05 73.95 L426.25 75.4 Q434.75 77.85 436.2 79.2 L436.45 79.7 436.45 80.2 437.15 80.2 437.7 80.2 437.95 80.2 450.95 79.85 451.5 79.8 451.65 79.75 Q467.7 79.75 467.7 79.55 L470.75 79.8 478.7 80.9 490.15 82.15 482.25 82.35 479.85 82.0 467.75 80.55 459.55 80.75 451.05 81.1 440.2 80.95 436.35 80.9 436.0 82.8 435.55 85.9 435.55 86.6 435.05 99.15 435.0 100.8 433.8 100.8 Q434.0 95.55 434.8 86.6 L435.3 80.85 429.15 80.55 425.45 80.35 Q421.75 80.05 421.75 79.75 L425.6 79.85 429.75 80.25 430.1 80.25 432.45 80.25 432.75 80.25 433.3 80.25 433.8 80.25 434.4 80.25 434.95 80.25 435.35 80.25 435.4 79.7 435.15 79.2 434.9 78.65 425.55 76.45 414.95 73.95 382.95 66.75 381.45 66.45 336.3 56.1 331.8 55.9 310.0 54.7 326.25 54.9 274.25 49.2 270.05 48.5 264.95 48.1 263.0 47.85 258.5 46.8 284.2 50.1 Q309.25 53.2 323.0 53.2 L330.65 54.0 342.45 55.1 342.9 55.35 376.65 56.35 396.75 57.3 Q413.35 56.8 437.05 57.7 L446.8 58.15 Q463.25 58.95 470.45 60.2 L470.95 60.3 490.05 60.9 511.5 61.65 518.9 62.4 518.7 62.2 518.75 62.15 518.5 62.05 518.5 61.7 519.0 61.7 519.5 60.85 519.9 60.1 519.0 59.85 509.0 57.4 470.95 48.3 447.4 42.75 436.95 40.3 428.0 38.2 Q413.15 35.35 401.35 32.2 L398.3 31.35 385.45 27.55 384.7 27.55 373.85 26.2 364.05 24.8 363.8 24.35 342.65 21.55 335.6 20.5 325.5 20.05 279.75 18.55 256.1 19.65 237.75 20.3 217.15 19.45 Q212.1 19.25 209.55 19.5 L207.2 19.8 181.05 18.75 157.9 17.65 151.95 18.05 147.6 18.3 147.0 18.5 144.9 19.1 144.6 19.1 145.85 19.65 Q147.9 20.4 154.65 21.3 L154.15 21.9 153.5 21.8 193.9 31.6 Q235.05 41.25 251.15 45.35 L224.8 39.65 197.9 33.7 173.2 27.75 Q152.35 22.5 152.2 21.65 L145.7 20.4 145.55 20.35 144.5 20.3 144.5 20.05 143.1 19.6 142.45 19.35 142.25 19.3 Q138.85 17.95 135.95 17.35 L131.9 17.1 131.25 17.05 127.9 16.8 123.4 16.45 70.45 11.05 43.7 8.0 34.75 7.0 33.45 5.7 46.65 7.0 63.95 8.85 123.5 15.4 128.8 16.0 131.25 16.25 139.3 17.05 143.35 16.9 145.0 16.65 146.95 16.8 152.75 16.7 179.65 17.5 Q197.45 18.3 208.4 18.3 L238.15 19.3 280.7 17.7 341.1 20.0 342.8 20.35 342.65 20.2 353.9 21.9 347.2 21.05 344.9 20.8 341.6 20.7 336.8 20.55 359.2 23.25 365.95 24.25 370.7 24.95 370.05 24.85 371.45 25.05 372.15 25.15 375.6 25.6 376.6 25.75 382.45 26.1 384.25 26.05 383.25 26.55 386.65 26.9 386.55 27.3 386.2 27.45 395.8 30.1 404.2 32.3 409.8 33.7 442.25 40.95 447.45 42.15 470.95 47.55 511.45 57.1 518.1 58.7 518.2 58.6 518.3 58.45 524.65 59.3 524.9 59.4 524.95 60.0 525.4 60.15 525.75 60.25 528.55 60.5 529.75 61.05 534.9 61.6 565.95 65.4 570.45 66.05 576.75 67.0 612.3 71.75 612.7 71.8 613.45 71.95 613.9 72.0 627.4 74.45 628.5 74.65 628.45 74.65 638.05 76.4 652.85 78.75 611.55 67.45 561.0 53.7 538.85 48.15 521.75 43.85 Q479.25 33.1 444.4 23.8 L444.0 23.7 441.7 23.1 438.6 22.65 434.9 22.35 426.15 23.05 425.65 23.05 423.1 23.25 421.7 23.3 420.75 23.35 419.45 23.5 419.25 23.5 408.2 24.4 408.05 24.4 407.55 24.4 391.7 25.2 391.95 25.15 404.7 24.15 413.4 23.55 404.2 23.6 392.8 24.45 412.4 22.75 412.7 22.75 420.05 22.2 432.75 21.35 432.7 20.85 432.7 20.65 412.0 14.95 Q392.1 10.65 371.7 7.0 L370.25 7.0 370.8 6.85 370.3 6.75 370.05 6.8 368.1 6.8 368.1 7.35 367.85 7.4 344.85 7.5 335.8 6.95 323.05 7.1 314.95 7.1 313.05 7.05 294.15 7.25 292.35 8.05 291.5 8.4 299.2 10.15 309.5 12.45 327.25 16.35 344.2 20.1 Q329.75 18.0 317.5 15.5 L314.1 14.75 308.9 13.6 304.45 12.45 290.35 8.9 289.55 9.15 288.4 8.5 288.25 8.4 282.4 6.95 279.75 6.75 254.9 4.95 204.0 5.1 Q189.55 3.1 182.25 5.1 L170.5 5.1 169.95 5.25 167.6 5.05 129.4 5.05 129.3 4.85 127.3 4.85 121.2 4.6 118.85 4.5 101.9 4.3 98.1 4.25 86.0 4.85 80.05 4.65 78.05 4.45 77.2 4.85 41.55 4.85 39.1 4.5 36.15 4.1 31.4 3.5 29.7 1.25 36.6 1.85 51.65 2.5 76.45 2.5 84.7 1.95 92.5 2.05 92.5 1.95 121.2 2.25 123.95 2.45 158.75 2.25 172.05 1.7 175.45 2.0 187.9 1.5 208.55 1.5 Q216.15 1.35 228.45 1.6 L233.5 2.0 237.2 2.3 245.55 3.1 263.2 3.25 267.9 3.6 280.55 3.8 297.3 3.75 315.85 4.45 318.85 4.4 333.9 3.85 339.5 4.1 344.3 4.5 349.75 4.3 369.0 3.95 370.85 4.05 370.65 3.65 371.85 3.8 371.75 3.85 372.35 4.0 373.2 4.0 377.65 4.35 387.25 7.5 Q407.65 13.6 425.55 15.25 L426.15 15.45 Q432.3 17.35 438.35 18.7 L451.3 22.35 463.15 25.1 464.8 25.55 469.6 27.65 Q476.95 30.6 485.0 32.35 494.4 34.4 510.1 38.45 518.8 40.55 527.7 42.15 L538.35 44.8 548.15 47.85 636.65 70.3 661.4 76.35 Q666.25 78.05 668.9 79.4 L669.35 79.45 669.35 79.65 Q671.15 80.65 671.7 81.5 673.7 82.8 673.7 84.1 673.7 87.8 673.1 96.7 L670.1 96.7 M561.15 80.0 L570.4 80.5 583.6 81.15 611.3 81.15 616.5 80.5 628.9 80.5 629.1 81.15 622.25 81.6 615.2 82.15 611.3 82.15 597.25 81.95 582.95 81.5 Q564.9 81.5 561.05 81.1 L544.9 80.85 541.65 81.05 538.5 81.5 519.15 81.8 511.45 82.15 504.5 81.95 498.5 81.5 488.35 81.25 478.2 80.65 478.5 80.65 Q498.65 80.85 499.15 81.15 L504.35 81.15 519.8 80.5 522.05 80.5 522.2 80.45 Q524.05 80.3 531.4 80.3 L538.7 80.2 539.15 79.85 561.15 80.0 M434.35 21.25 L434.85 21.2 434.45 21.1 434.35 21.25 M380.7 80.6 L410.95 80.8 411.5 80.45 411.65 80.25 424.1 80.25 424.3 80.85 419.35 81.15 417.95 81.2 417.9 81.2 417.6 81.2 416.0 81.3 415.65 81.3 410.95 81.65 410.75 81.7 410.45 81.8 393.05 81.95 388.85 82.15 380.9 81.65 375.5 81.15 371.4 80.55 380.7 80.6 M357.75 81.5 L355.7 81.8 353.25 81.65 350.5 81.25 329.65 81.0 Q308.8 80.75 308.6 80.55 L308.2 80.55 304.25 80.3 304.2 80.3 299.4 79.95 298.2 79.85 298.3 80.0 299.4 80.3 301.95 81.05 302.15 81.1 301.8 81.3 301.2 81.15 300.8 81.05 299.35 80.65 298.55 80.45 298.9 81.9 298.9 82.6 298.85 83.55 298.85 84.7 Q298.8 87.25 299.05 91.05 L299.05 92.95 297.85 92.5 297.9 89.3 297.9 89.2 297.85 87.9 Q297.45 83.45 294.85 80.35 L292.15 80.25 292.3 79.95 292.45 79.75 294.55 79.95 293.9 79.3 184.7 52.15 184.55 52.25 Q183.95 52.85 182.2 52.0 L182.4 53.6 182.4 56.75 182.35 58.7 182.65 61.1 182.65 61.35 180.3 60.8 180.55 56.45 180.6 55.55 179.4 53.65 Q177.95 51.8 177.05 50.2 L151.8 43.85 Q109.05 33.05 74.05 23.7 L44.25 15.55 42.2 13.7 57.05 17.6 Q96.65 27.95 152.3 41.95 L176.15 48.0 176.95 47.9 178.95 48.4 183.5 48.25 187.1 48.1 187.85 48.05 188.9 48.05 193.15 47.95 198.4 47.75 208.15 47.4 232.0 47.1 247.3 47.0 244.75 46.8 233.4 46.05 214.4 47.1 212.5 46.95 Q211.55 46.8 211.55 46.55 L218.75 46.3 233.15 45.3 242.1 45.85 251.05 46.4 252.5 45.45 Q254.4 44.8 257.25 46.3 L257.4 46.65 257.35 46.85 264.15 48.15 262.35 48.4 259.45 47.8 258.45 47.95 256.9 48.15 Q257.0 47.4 257.2 47.3 L257.4 47.3 257.15 47.25 256.15 47.55 249.55 47.2 199.25 47.8 193.55 48.05 189.8 48.5 189.05 48.65 182.15 49.2 Q183.35 49.55 184.0 50.0 247.3 66.1 288.75 77.4 L288.85 77.4 293.1 78.55 292.35 78.0 292.1 77.9 292.15 77.9 291.65 77.75 290.35 77.4 290.1 77.35 290.1 77.15 Q290.55 77.15 292.2 77.85 L291.3 77.25 291.45 77.05 292.65 78.0 Q294.45 79.2 296.75 79.2 L297.55 79.15 297.55 79.2 297.65 79.2 299.4 79.45 306.35 80.1 306.65 80.1 348.2 80.55 350.7 80.55 353.5 80.75 356.25 80.4 363.75 80.85 359.75 81.3 357.75 81.5 M386.2 25.35 L391.5 24.65 390.6 24.8 387.5 25.55 386.2 25.35 M287.15 7.45 L287.0 7.25 286.1 7.2 287.15 7.45 M142.7 18.35 L142.4 18.35 143.05 18.55 142.7 18.35" fill="#a8b492" fill-rule="evenodd" stroke="none"/>
      <path d="M649.2 80.15 L644.2 79.6 618.35 79.6 616.5 80.0 561.15 80.0 539.15 79.85 538.7 80.2 531.4 80.3 Q524.05 80.3 522.2 80.45 L522.05 80.5 519.8 80.5 481.1 80.5 457.3 79.2 436.2 79.2 Q434.75 77.85 426.25 75.4 L421.05 73.95 Q409.5 70.9 389.3 66.55 L381.5 64.95 339.95 56.35 342.7 56.65 344.05 57.0 Q370.55 57.75 376.75 57.55 L397.75 58.3 Q403.4 58.15 418.4 58.4 L443.85 59.3 446.75 59.45 469.75 60.95 469.9 60.95 488.9 61.55 511.0 62.5 521.15 62.95 520.85 62.85 523.05 62.35 523.1 62.35 525.55 62.2 529.45 62.05 529.1 61.5 529.0 61.45 534.4 61.9 566.75 66.1 568.45 66.35 575.2 67.45 612.25 73.1 623.25 74.8 623.3 74.8 629.65 75.8 630.35 76.45 Q632.65 78.4 634.85 78.25 L640.7 77.7 644.95 78.45 654.0 79.95 655.25 80.15 653.85 80.15 650.55 80.15 649.4 80.15 649.2 80.15 M31.4 3.5 L36.15 4.1 39.1 4.5 41.55 4.85 77.2 4.85 78.05 4.45 80.05 4.65 86.0 4.85 98.1 4.25 101.9 4.3 118.85 4.5 121.2 4.6 127.3 4.85 129.3 4.85 129.4 5.05 167.6 5.05 169.95 5.25 170.5 5.1 182.25 5.1 Q189.55 3.1 204.0 5.1 L254.9 4.95 279.75 6.75 282.4 6.95 288.25 8.4 288.4 8.5 289.55 9.15 290.35 8.9 304.45 12.45 285.05 11.65 254.1 9.65 165.95 9.65 159.25 9.15 152.05 8.5 103.45 8.35 93.45 8.85 110.0 10.8 132.35 14.05 Q133.0 13.6 134.05 13.6 L136.95 14.1 139.8 14.55 148.15 13.3 157.45 12.05 219.75 15.85 224.0 15.15 Q227.0 14.4 232.2 14.4 L257.45 15.4 290.05 13.7 316.25 15.4 312.95 14.55 314.1 14.75 317.5 15.5 Q329.75 18.0 344.2 20.1 L327.25 16.35 309.5 12.45 299.2 10.15 291.5 8.4 292.35 8.05 294.15 7.25 313.05 7.05 314.95 7.1 323.05 7.1 335.8 6.95 344.85 7.5 367.85 7.4 368.1 7.35 368.1 6.8 370.05 6.8 370.3 6.75 370.8 6.85 370.25 7.0 371.7 7.0 Q392.1 10.65 412.0 14.95 L432.7 20.65 432.7 20.85 432.75 21.35 420.05 22.2 412.7 22.75 412.4 22.75 392.8 24.45 404.2 23.6 413.4 23.55 404.7 24.15 391.95 25.15 391.7 25.2 407.55 24.4 408.05 24.4 408.2 24.4 419.25 23.5 419.45 23.5 420.75 23.35 421.7 23.3 423.1 23.25 425.65 23.05 426.15 23.05 434.9 22.35 438.6 22.65 441.7 23.1 444.0 23.7 444.4 23.8 Q479.25 33.1 521.75 43.85 L538.85 48.15 561.0 53.7 611.55 67.45 652.85 78.75 638.05 76.4 628.45 74.65 628.5 74.65 627.4 74.45 613.9 72.0 613.45 71.95 612.7 71.8 612.3 71.75 576.75 67.0 570.45 66.05 565.95 65.4 534.9 61.6 529.75 61.05 528.55 60.5 525.75 60.25 525.4 60.15 524.95 60.0 524.9 59.4 524.65 59.3 518.3 58.45 518.2 58.6 518.1 58.7 511.45 57.1 470.95 47.55 447.45 42.15 442.25 40.95 409.8 33.7 404.2 32.3 395.8 30.1 386.2 27.45 386.55 27.3 386.65 26.9 383.25 26.55 384.25 26.05 382.45 26.1 376.6 25.75 375.6 25.6 372.15 25.15 371.45 25.05 370.05 24.85 370.7 24.95 365.95 24.25 359.2 23.25 336.8 20.55 341.6 20.7 344.9 20.8 347.2 21.05 353.9 21.9 342.65 20.2 342.8 20.35 341.1 20.0 280.7 17.7 238.15 19.3 208.4 18.3 Q197.45 18.3 179.65 17.5 L152.75 16.7 146.95 16.8 145.0 16.65 143.35 16.9 139.3 17.05 131.25 16.25 128.8 16.0 123.5 15.4 63.95 8.85 46.65 7.0 33.45 5.7 31.4 3.5 M34.75 7.0 L43.7 8.0 70.45 11.05 123.4 16.45 127.9 16.8 131.25 17.05 131.9 17.1 135.95 17.35 Q138.85 17.95 142.25 19.3 L142.45 19.35 143.1 19.6 144.5 20.05 144.5 20.3 145.55 20.35 145.7 20.4 152.2 21.65 Q152.35 22.5 173.2 27.75 L197.9 33.7 224.8 39.65 251.15 45.35 Q235.05 41.25 193.9 31.6 L153.5 21.8 154.15 21.9 154.65 21.3 Q147.9 20.4 145.85 19.65 L144.6 19.1 144.9 19.1 147.0 18.5 147.6 18.3 151.95 18.05 157.9 17.65 181.05 18.75 207.2 19.8 209.55 19.5 Q212.1 19.25 217.15 19.45 L237.75 20.3 256.1 19.65 279.75 18.55 325.5 20.05 335.6 20.5 342.65 21.55 363.8 24.35 364.05 24.8 373.85 26.2 384.7 27.55 385.45 27.55 398.3 31.35 401.35 32.2 Q413.15 35.35 428.0 38.2 L436.95 40.3 447.4 42.75 470.95 48.3 509.0 57.4 519.0 59.85 519.9 60.1 519.5 60.85 519.0 61.7 518.5 61.7 518.5 62.05 518.75 62.15 518.7 62.2 518.9 62.4 511.5 61.65 490.05 60.9 470.95 60.3 470.45 60.2 Q463.25 58.95 446.8 58.15 L437.05 57.7 Q413.35 56.8 396.75 57.3 L376.65 56.35 342.9 55.35 342.45 55.1 330.65 54.0 323.0 53.2 Q309.25 53.2 284.2 50.1 L258.5 46.8 263.0 47.85 264.95 48.1 270.05 48.5 274.25 49.2 326.25 54.9 310.0 54.7 331.8 55.9 336.3 56.1 381.45 66.45 382.95 66.75 414.95 73.95 425.55 76.45 434.9 78.65 435.15 79.2 426.35 79.2 Q416.6 77.2 393.2 79.25 L380.7 80.6 371.4 80.55 375.5 81.15 367.05 81.8 357.75 81.5 359.75 81.3 363.75 80.85 356.25 80.4 353.5 80.75 350.7 80.55 348.2 80.55 Q345.05 80.0 343.75 79.2 L320.75 79.75 307.1 79.85 305.5 79.85 297.7 78.75 296.55 78.6 296.5 78.55 292.65 78.0 291.45 77.05 291.3 77.25 292.2 77.85 Q290.55 77.15 290.1 77.15 L290.1 77.35 290.35 77.4 291.65 77.75 292.15 77.9 292.1 77.9 288.85 77.4 288.75 77.4 Q247.3 66.1 184.0 50.0 183.35 49.55 182.15 49.2 L189.05 48.65 189.8 48.5 193.55 48.05 199.25 47.8 249.55 47.2 256.15 47.55 257.15 47.25 257.4 47.3 257.2 47.3 Q257.0 47.4 256.9 48.15 L258.45 47.95 259.45 47.8 262.35 48.4 264.15 48.15 257.35 46.85 257.4 46.65 257.25 46.3 Q254.4 44.8 252.5 45.45 L251.05 46.4 242.1 45.85 233.15 45.3 218.75 46.3 211.55 46.55 Q211.55 46.8 212.5 46.95 L214.4 47.1 233.4 46.05 244.75 46.8 247.3 47.0 232.0 47.1 208.15 47.4 198.4 47.75 193.15 47.95 188.9 48.05 187.85 48.05 187.1 48.1 183.5 48.25 178.95 48.4 176.95 47.9 176.15 48.0 152.3 41.95 Q96.65 27.95 57.05 17.6 L42.2 13.7 37.3 9.35 34.75 7.0 M572.35 63.4 L585.15 65.4 593.25 66.8 559.25 58.2 558.35 58.0 558.0 57.9 549.65 55.85 549.55 55.8 549.45 55.8 536.35 52.55 509.45 46.05 495.6 42.7 418.45 24.15 Q416.75 24.9 413.45 25.5 L402.15 26.45 393.65 27.15 418.8 33.65 Q438.5 38.85 453.75 41.85 L484.55 49.3 Q498.1 52.2 520.9 55.6 L538.0 58.05 540.8 58.5 546.9 59.45 549.15 59.8 566.55 62.5 572.35 63.4 M446.65 62.8 L432.15 61.05 Q425.5 60.75 411.5 61.25 L397.95 61.8 392.55 61.3 385.65 60.8 407.4 65.6 Q425.75 70.3 426.4 73.95 L560.4 73.95 564.95 74.6 577.95 75.7 590.45 75.7 595.1 75.55 597.65 75.5 605.05 75.25 579.65 71.25 Q534.0 64.05 529.9 64.05 L493.45 65.6 479.4 65.15 453.55 63.65 450.65 63.3 446.65 62.8 M434.35 21.25 L434.45 21.1 434.85 21.2 434.35 21.25 M467.35 57.9 L489.9 56.55 Q469.65 52.95 444.9 46.7 L404.35 36.05 Q358.55 23.95 336.65 23.95 324.15 23.95 309.3 21.75 296.5 19.85 285.65 20.55 L273.45 21.4 256.7 21.95 232.45 21.05 229.05 21.25 226.0 21.55 Q222.8 22.55 220.75 22.55 L157.2 18.55 155.6 18.7 154.3 18.8 178.45 25.25 204.7 31.55 218.5 34.05 234.95 36.7 Q241.95 38.05 261.0 43.65 269.75 43.65 277.9 45.1 L292.65 48.15 Q314.05 52.35 347.95 51.35 L365.45 51.9 Q369.5 53.05 380.0 53.9 L391.7 54.55 404.75 53.55 Q420.65 53.55 439.75 55.9 L462.75 58.2 467.35 57.9 M368.3 7.6 L368.3 7.55 368.05 7.6 368.3 7.6 M386.2 25.35 L387.5 25.55 390.6 24.8 391.5 24.65 386.2 25.35 M400.6 21.65 L405.8 21.05 367.7 11.6 349.0 11.6 332.25 12.9 329.5 12.4 325.15 12.4 326.1 12.55 Q342.95 15.85 342.95 17.9 L342.95 18.05 342.25 18.0 Q364.95 20.7 383.75 24.85 388.25 23.25 400.6 21.65 M310.65 72.5 Q352.75 78.4 376.05 73.95 L397.75 73.95 Q390.1 72.3 380.95 69.9 L372.0 67.3 368.7 66.35 353.05 61.9 Q264.8 48.65 240.7 48.65 L229.8 49.55 220.8 50.2 213.45 50.85 204.8 50.65 232.4 57.05 Q264.35 64.4 285.45 68.35 L293.55 69.8 299.8 70.85 310.65 72.5 M287.15 7.45 L286.1 7.2 287.0 7.25 287.15 7.45 M215.85 43.7 Q221.4 43.1 233.55 43.2 202.75 37.3 175.25 30.95 143.95 23.7 134.9 19.65 L79.3 13.7 53.4 11.2 50.95 11.0 70.15 15.3 Q99.9 21.15 107.6 23.45 119.95 27.2 140.5 34.25 159.85 40.5 181.25 45.25 L186.1 46.35 Q188.45 45.6 194.25 45.3 198.6 45.1 204.15 45.05 L215.85 43.7" fill="#f4f8e7" fill-rule="evenodd" stroke="none"/>
      <path d="M435.55 86.6 L466.65 86.6 Q467.6 87.1 472.45 87.7 L485.9 88.45 495.75 88.0 505.4 87.25 546.65 87.2 547.65 89.6 546.05 91.25 546.35 91.7 544.9 92.35 Q538.3 95.5 526.6 99.5 L475.5 100.4 Q455.2 100.85 435.0 100.8 L435.05 99.15 435.55 86.6 M530.3 99.45 L545.05 94.4 Q549.25 92.85 555.7 91.05 L566.35 89.5 580.8 87.35 590.0 87.8 612.75 86.6 629.75 85.4 651.85 85.4 Q658.6 85.95 661.85 88.7 664.5 90.9 664.5 94.25 L664.4 96.0 660.05 96.75 642.5 96.95 Q603.85 98.8 565.2 99.1 547.7 99.2 530.3 99.45 M434.8 86.6 Q434.0 95.55 433.8 100.8 414.0 100.75 394.3 100.3 387.8 93.15 384.15 87.9 L403.1 87.8 409.25 87.25 415.05 86.6 434.8 86.6 M566.55 62.5 L571.55 62.3 571.95 62.5 Q572.3 62.65 572.35 63.4 L566.55 62.5 M559.25 58.2 L559.45 58.5 553.3 59.15 549.15 59.8 546.9 59.45 545.85 59.1 Q543.7 58.35 542.85 58.35 L540.8 58.5 538.0 58.05 520.9 55.6 535.7 52.8 536.35 52.55 549.45 55.8 549.55 55.8 549.65 55.85 551.75 56.75 Q554.25 57.5 558.0 57.9 L558.35 58.0 559.25 58.2 M453.55 63.65 L445.7 63.95 442.65 63.8 440.8 63.35 446.65 62.8 450.65 63.3 453.55 63.65 M536.15 66.7 Q535.75 68.05 534.9 68.6 533.8 69.3 531.1 69.3 L528.65 68.85 Q527.45 68.4 527.25 68.0 528.85 65.35 532.1 65.65 533.8 65.85 536.15 66.7 M298.9 81.9 Q299.35 81.6 299.95 81.35 L298.85 83.55 298.9 82.6 298.9 81.9 M306.2 95.55 L306.2 95.4 Q307.1 91.0 313.75 89.2 L343.8 89.1 345.9 88.55 372.15 88.45 372.55 88.4 Q384.25 92.45 392.5 100.25 L358.95 99.1 309.6 96.8 306.2 95.55 M373.4 38.8 L374.1 39.1 374.9 39.55 369.7 40.85 363.15 41.55 356.0 40.85 345.15 40.15 Q344.55 40.15 344.05 39.6 343.55 39.05 342.9 39.05 L340.7 39.7 Q339.1 40.3 338.45 40.3 336.95 40.3 335.25 39.45 333.6 38.6 332.9 38.6 331.1 38.6 328.0 39.8 L327.75 38.9 Q341.2 35.6 344.3 36.6 345.2 36.9 346.65 37.75 348.35 38.45 351.45 38.45 356.8 38.45 357.5 37.4 L357.85 36.65 Q358.15 36.3 359.3 36.3 L366.25 37.5 373.4 38.8 M380.3 43.45 L380.65 43.2 387.4 42.7 390.2 43.55 388.45 44.1 386.15 44.45 382.8 44.1 Q380.35 43.75 380.3 43.45 M299.8 70.85 L299.7 70.1 Q299.7 68.3 304.25 67.15 L311.3 65.05 311.65 64.85 Q311.95 64.8 311.95 65.8 311.95 66.8 311.55 67.1 L310.65 67.5 Q311.45 68.1 315.7 69.45 322.15 69.45 324.0 68.4 325.85 67.35 330.3 67.35 L337.5 67.7 343.55 68.3 331.1 69.05 316.65 70.1 Q315.4 70.35 312.6 71.65 L310.65 72.5 299.8 70.85 M372.0 67.3 L369.9 67.65 368.5 67.45 368.0 66.7 368.7 66.35 372.0 67.3 M348.2 80.55 L306.65 80.1 306.35 80.1 306.75 80.05 306.8 80.05 305.5 79.85 307.1 79.85 320.75 79.75 343.75 79.2 Q345.05 80.0 348.2 80.55 M180.55 56.45 L180.3 60.8 Q132.35 49.55 108.45 43.55 92.75 41.35 81.7 38.5 76.65 37.2 72.25 35.55 74.3 33.5 76.85 31.85 79.85 29.9 83.35 28.65 94.6 31.85 108.85 36.75 138.6 47.05 152.05 50.55 162.3 53.2 176.6 55.75 L180.55 56.45 M182.65 61.35 L182.65 61.1 182.35 58.7 182.4 56.75 201.2 59.95 Q231.15 65.2 249.05 72.8 259.1 77.05 270.1 79.4 281.3 81.75 282.85 82.4 287.45 84.35 289.1 89.45 261.7 80.1 206.25 66.85 L182.65 61.35 M376.75 87.9 L376.7 88.0 376.5 87.9 376.75 87.9 M318.75 33.15 Q317.3 34.1 317.3 32.85 317.3 32.45 320.35 32.1 323.4 31.75 324.45 32.05 L321.9 32.6 318.75 33.15 M169.95 35.7 L175.8 38.65 Q174.5 38.45 170.55 38.55 168.35 38.6 165.3 37.05 L165.0 35.6 Q167.8 34.7 169.95 35.7 M70.7 34.95 Q57.95 29.8 50.45 21.35 L49.4 20.25 Q58.3 22.75 67.15 24.6 L72.95 25.9 73.15 26.95 Q73.15 29.15 70.7 34.95" fill="#cee0ba" fill-rule="evenodd" stroke="none"/>
      <path d="M368.3 7.6 L368.05 7.6 368.3 7.55 368.3 7.6" fill="#838f88" fill-rule="evenodd" stroke="none"/>
    </g>
    <g id="shape4" transform="matrix(1.0, 0.0, 0.0, 1.0, -341.35, 22.05)">
      <path d="M363.0 -22.05 L404.25 -22.05 491.35 -15.55 532.05 -13.1 679.6 -12.7 Q725.3 -11.1 798.1 21.95 813.8 29.1 850.0 47.05 876.85 60.35 886.45 63.65 913.6 72.95 938.75 86.05 951.95 92.9 971.75 105.1 978.65 109.35 992.1 116.9 1001.45 122.15 1004.95 124.85 1009.7 128.6 1011.6 133.0 1013.5 137.55 1013.5 145.4 1013.5 154.15 1006.4 158.65 998.7 163.5 978.35 166.45 959.85 169.15 919.55 171.8 L819.9 177.55 719.75 177.55 Q659.6 180.6 566.15 142.7 544.0 133.75 499.0 113.25 463.65 97.15 451.2 93.3 428.8 86.3 402.95 71.35 380.05 58.1 365.25 45.25 360.8 41.45 351.25 21.5 341.35 0.85 341.35 -6.4 341.35 -6.95 350.8 -14.0 360.55 -21.25 363.0 -22.05 M634.7 12.85 Q629.35 8.0 617.45 8.7 L605.15 9.65 Q596.7 10.25 589.55 9.95 L555.8 9.7 523.95 10.75 Q522.35 11.25 484.7 11.8 L475.1 12.5 464.75 12.85 Q458.6 12.85 454.25 11.7 449.7 10.15 446.65 9.45 434.95 6.6 404.25 8.75 401.15 8.75 390.65 11.2 378.1 14.15 378.1 16.8 378.1 17.55 378.85 19.25 L376.95 16.65 Q375.6 16.65 374.85 17.45 380.4 33.95 423.65 55.4 463.6 75.25 500.15 82.95 505.2 84.0 521.35 94.4 542.5 108.05 557.45 115.5 616.25 144.9 690.5 144.9 701.15 144.9 741.75 137.1 773.95 130.9 801.25 124.65 805.15 123.8 831.05 119.65 855.45 115.45 857.3 113.1 859.55 110.3 865.55 105.35 867.45 104.95 868.6 103.2 L869.0 102.6 869.5 102.15 Q875.3 97.6 875.3 92.65 875.3 90.0 872.45 87.8 871.0 86.65 864.8 83.2 L868.8 88.2 Q871.5 91.35 871.5 91.7 871.5 94.0 869.25 96.75 864.6 90.3 827.35 74.8 805.0 65.5 764.25 50.5 L742.9 42.5 Q728.35 37.1 715.6 33.0 678.55 21.1 634.7 12.85" fill="#ffff99" fill-rule="evenodd" stroke="none"/>
      <path d="M634.7 12.85 Q678.55 21.1 715.6 33.0 728.35 37.1 742.9 42.5 L764.25 50.5 Q805.0 65.5 827.35 74.8 864.6 90.3 869.25 96.75 871.5 94.0 871.5 91.7 871.5 91.35 868.8 88.2 L864.8 83.2 Q871.0 86.65 872.45 87.8 875.3 90.0 875.3 92.65 875.3 97.6 869.5 102.15 L869.0 102.6 868.6 103.2 Q867.45 104.95 865.55 105.35 859.55 110.3 857.3 113.1 855.45 115.45 831.05 119.65 805.15 123.8 801.25 124.65 773.95 130.9 741.75 137.1 701.15 144.9 690.5 144.9 616.25 144.9 557.45 115.5 542.5 108.05 521.35 94.4 505.2 84.0 500.15 82.95 463.6 75.25 423.65 55.4 380.4 33.95 374.85 17.45 375.6 16.65 376.95 16.65 L378.85 19.25 Q378.1 17.55 378.1 16.8 378.1 14.15 390.65 11.2 401.15 8.75 404.25 8.75 434.95 6.6 446.65 9.45 449.7 10.15 454.25 11.7 458.6 12.85 464.75 12.85 L475.1 12.5 484.7 11.8 Q522.35 11.25 523.95 10.75 L555.8 9.7 589.55 9.95 Q596.7 10.25 605.15 9.65 L617.45 8.7 Q629.35 8.0 634.7 12.85 M589.55 13.1 L571.8 13.3 552.8 13.9 537.4 14.2 520.8 14.8 483.1 15.45 473.25 15.85 Q466.9 15.85 447.5 12.4 428.05 8.9 422.85 8.9 408.85 8.9 393.1 14.8 387.9 16.75 383.55 18.95 L380.15 20.8 Q393.2 36.55 421.6 52.35 454.6 70.7 491.9 79.9 507.85 83.85 512.9 84.5 L513.65 85.2 Q514.4 86.25 517.1 88.2 519.25 89.7 525.25 92.25 531.8 95.05 535.2 97.1 L551.2 107.15 Q559.95 112.45 569.2 116.55 590.35 125.75 618.75 132.75 654.25 141.45 683.0 141.45 695.6 141.45 739.0 132.9 787.25 123.4 803.35 121.9 829.8 119.4 851.45 109.0 860.7 104.6 866.1 99.9 L866.75 99.35 866.75 99.2 Q866.75 94.8 832.95 80.25 L763.7 51.95 Q754.45 48.2 732.3 42.45 712.95 37.45 709.0 35.0 705.5 32.9 694.9 30.1 681.7 26.9 674.75 24.9 668.9 23.25 648.65 19.65 633.35 16.9 631.95 15.05 L605.35 14.15 589.55 13.1" fill="#f0c942" fill-rule="evenodd" stroke="none"/>
    </g>
    <g id="shape5" transform="matrix(1.0, 0.0, 0.0, 1.0, 495.55, 81.15)">
      <path d="M64.8 -51.65 Q64.9 -55.05 65.3 -56.8 66.15 -60.25 68.65 -62.05 73.25 -65.35 92.55 -66.35 L154.4 -68.85 Q209.3 -71.5 272.2 -77.3 L308.3 -77.8 324.1 -78.85 349.65 -79.8 349.65 -80.3 440.3 -80.3 572.6 -68.25 602.3 -67.95 604.4 -67.45 632.2 -66.9 634.3 -66.4 687.85 -65.85 691.25 -65.2 792.05 -64.8 Q797.35 -65.85 825.75 -68.15 L869.4 -71.1 970.3 -71.9 984.85 -72.8 1000.35 -73.85 1028.05 -74.15 1062.3 -75.9 1064.3 -76.5 1092.75 -77.0 Q1113.35 -77.8 1140.65 -78.2 L1149.85 -78.2 1159.8 -76.45 1200.5 -74.4 1256.95 -74.65 1271.65 -75.7 1320.9 -75.95 1324.3 -76.75 1360.4 -76.75 Q1413.1 -69.25 1461.85 -64.3 L1517.3 -58.85 Q1535.5 -56.75 1540.5 -53.4 1544.65 -50.65 1545.15 -43.05 L1543.5 -43.05 1442.5 -52.2 1339.8 -61.25 1243.3 -61.0 1186.7 -65.0 Q1130.75 -69.3 1122.15 -71.65 1109.9 -72.0 1102.5 -71.35 1093.15 -71.95 1076.75 -71.9 L984.5 -62.5 Q925.9 -56.5 880.4 -53.0 L843.65 -52.75 831.9 -51.85 820.95 -50.9 731.15 -50.75 663.6 -48.15 654.7 -48.45 646.65 -48.95 616.7 -49.2 540.85 -57.05 Q481.0 -63.1 468.15 -63.1 L460.2 -62.65 Q453.4 -62.35 449.65 -62.85 L422.1 -62.85 Q408.3 -66.3 366.85 -66.8 L327.85 -66.65 Q291.2 -66.65 209.35 -56.7 L170.35 -51.6 165.55 -51.05 157.45 -49.75 157.1 -49.7 100.9 -49.45 Q75.1 -52.8 64.8 -51.65" fill="#ffff99" fill-rule="evenodd" stroke="none"/>
      <path d="M1545.15 -43.05 L1545.15 -42.55 1545.2 -40.95 1544.9 -38.55 1545.2 -34.35 1545.15 -31.35 1545.0 -30.45 Q1544.7 -29.55 1543.8 -28.8 L1540.45 -29.55 1539.9 -29.65 1539.5 -29.7 1531.55 -30.6 1518.65 -31.1 1502.7 -30.25 1487.15 -29.4 1469.2 -28.3 1459.35 -27.8 1431.8 -28.7 Q1422.45 -29.5 1415.0 -31.35 L1388.45 -31.6 Q1386.8 -32.2 1353.45 -31.6 L1339.8 -32.9 Q1336.55 -35.35 1330.2 -34.8 1326.45 -34.5 1323.6 -33.2 L1303.55 -33.2 Q1290.2 -33.8 1277.95 -33.9 L1262.95 -34.0 Q1251.75 -34.3 1234.5 -38.55 L1190.4 -38.85 1158.4 -39.9 1091.05 -46.3 1038.55 -46.05 919.9 -37.25 859.0 -37.25 856.8 -36.45 820.95 -36.2 Q782.05 -35.15 745.9 -32.1 L693.5 -27.3 640.2 -27.0 Q637.85 -28.0 628.25 -28.35 L622.0 -29.3 613.55 -30.45 586.0 -30.55 Q583.75 -31.35 535.5 -31.35 L502.4 -35.0 458.3 -39.6 416.4 -39.85 343.35 -45.25 312.35 -45.25 312.35 -44.75 298.55 -43.45 283.35 -41.7 252.65 -41.2 108.2 -30.0 74.4 -26.5 53.55 -26.5 Q-5.75 -23.1 -30.15 -26.95 -34.55 -27.6 -43.95 -30.0 -50.2 -31.6 -56.15 -31.6 -94.95 -31.6 -118.1 -36.5 L-131.6 -39.9 Q-137.5 -41.45 -141.2 -41.45 -176.0 -41.45 -185.6 -43.25 L-201.7 -46.45 Q-216.3 -49.05 -239.25 -51.95 L-239.5 -51.65 -239.75 -51.15 -249.35 -51.75 -258.8 -51.95 -259.05 -51.65 -259.35 -51.15 -242.35 -51.05 -239.75 -51.15 Q-178.35 -40.8 -101.9 -24.55 L27.55 3.8 Q31.7 4.7 58.35 15.45 L83.1 25.3 82.6 24.95 Q96.05 33.75 121.15 44.4 L124.45 45.8 129.8 48.0 Q144.55 54.0 161.15 59.75 178.3 65.7 185.0 67.35 198.35 70.6 217.85 80.85 244.85 95.0 255.1 99.35 259.75 101.35 278.45 105.9 296.05 110.15 299.75 112.2 L308.95 117.65 Q313.45 120.35 316.9 121.75 325.7 125.4 345.95 127.95 347.05 126.3 352.15 125.75 357.3 125.2 358.8 122.85 L361.7 117.85 Q364.0 114.15 366.55 113.0 366.15 118.15 381.0 125.85 386.95 128.9 398.3 134.05 385.85 128.1 378.65 122.5 387.15 127.8 402.5 135.6 L407.15 137.95 405.0 137.05 407.9 138.35 431.75 150.4 431.85 150.15 433.1 150.75 Q447.35 157.7 463.0 164.05 484.35 172.6 496.0 175.1 514.75 179.15 525.6 182.45 544.6 188.2 583.1 193.65 620.7 198.95 640.85 198.95 642.2 198.95 642.95 197.9 643.75 196.85 645.05 196.85 655.8 196.85 658.9 198.95 660.65 200.15 661.95 205.35 663.5 211.3 667.75 215.95 674.5 223.35 689.8 230.85 702.2 236.95 719.5 246.85 L724.25 249.6 Q745.45 261.95 752.3 265.4 760.0 269.25 782.2 281.95 796.7 290.25 811.1 295.55 820.55 299.05 834.3 302.0 856.25 306.75 885.1 309.2 890.35 309.65 912.65 315.5 L926.85 319.15 Q932.4 321.95 936.3 321.95 945.75 321.95 948.9 315.4 L950.7 310.9 Q951.7 308.85 953.35 308.85 956.6 308.85 985.25 318.05 1016.3 328.0 1022.55 329.3 L1068.75 329.3 1097.35 333.45 1126.75 337.55 1198.95 337.95 Q1204.9 335.85 1210.75 335.05 L1219.5 334.1 Q1228.6 332.85 1238.3 324.45 1240.75 326.9 1253.3 329.95 L1270.05 333.5 1283.2 338.15 Q1297.1 342.8 1302.5 342.8 1303.65 342.8 1311.5 340.0 1319.4 337.2 1322.7 337.2 L1333.3 338.85 Q1343.15 340.45 1352.6 340.45 L1377.9 342.05 1406.95 344.25 1412.35 345.0 1417.35 345.3 1417.85 346.1 1465.8 349.9 1505.65 352.95 1506.15 352.95 1516.45 352.4 1516.85 352.35 1518.6 352.0 Q1519.55 353.3 1519.55 355.4 L1519.5 356.35 Q1519.0 360.6 1514.5 371.35 L1449.6 374.1 Q1442.1 374.1 1373.25 366.15 1304.4 358.2 1289.45 358.2 L1271.05 361.55 1251.5 364.9 Q1213.2 368.05 1204.4 370.1 L1201.0 370.9 1192.8 371.05 Q1175.9 371.05 1150.05 366.2 1138.25 364.0 1100.65 355.55 1067.75 348.1 1047.55 344.85 1017.55 340.0 993.7 340.0 L967.45 341.95 941.2 343.85 Q906.3 343.85 852.35 325.85 815.85 313.65 752.85 286.35 L736.75 279.4 724.15 273.2 Q704.4 263.45 692.45 256.7 L675.75 247.3 Q658.9 238.3 641.55 231.25 617.05 221.3 593.55 215.85 L532.35 197.6 Q474.8 180.2 451.0 172.2 447.85 171.15 435.5 170.15 L408.1 168.2 Q365.7 164.85 341.55 158.6 324.85 154.4 306.05 146.0 285.65 136.9 275.7 134.0 266.25 131.3 212.95 111.75 159.0 91.95 151.4 89.65 134.25 84.45 117.8 75.55 107.9 70.2 90.3 58.7 L79.5 51.75 51.6 41.05 Q22.95 30.35 -4.05 21.5 -16.25 17.55 -42.3 10.1 L-44.7 9.45 -56.7 8.75 Q-58.3 8.75 -85.5 1.35 -122.2 -8.6 -147.75 -14.9 -244.05 -38.55 -290.85 -38.55 L-399.9 -57.85 -453.9 -67.6 Q-476.8 -75.45 -495.55 -81.15 L-445.5 -76.3 -386.45 -70.25 Q-344.85 -68.75 -281.0 -68.75 L-233.15 -65.75 -156.45 -60.5 -116.55 -60.5 -62.35 -58.8 Q-17.95 -58.15 -4.55 -57.45 13.1 -56.5 26.35 -53.45 38.2 -50.75 42.1 -50.75 L64.75 -50.95 64.8 -51.65 Q75.1 -52.8 100.9 -49.45 L157.1 -49.7 157.45 -49.75 165.55 -51.05 170.35 -51.6 209.35 -56.7 Q291.2 -66.65 327.85 -66.65 L366.85 -66.8 Q408.3 -66.3 422.1 -62.85 L449.65 -62.85 Q453.4 -62.35 460.2 -62.65 L468.15 -63.1 Q481.0 -63.1 540.85 -57.05 L616.7 -49.2 646.65 -48.95 654.7 -48.45 663.6 -48.15 731.15 -50.75 820.95 -50.9 831.9 -51.85 843.65 -52.75 880.4 -53.0 Q925.9 -56.5 984.5 -62.5 L1076.75 -71.9 Q1093.15 -71.95 1102.5 -71.35 1109.9 -72.0 1122.15 -71.65 1130.75 -69.3 1186.7 -65.0 L1243.3 -61.0 1339.8 -61.25 1442.5 -52.2 1543.5 -43.05 1545.15 -43.05 M337.25 325.8 L337.55 326.05 335.7 324.45 Q301.55 301.85 286.4 284.4 L286.75 284.15 287.05 283.9 Q301.6 292.6 353.15 321.7 390.5 339.65 427.05 352.8 510.85 382.95 597.3 390.9 631.45 397.55 663.3 407.05 678.9 411.7 694.0 417.05 707.4 421.75 730.15 430.65 753.25 439.65 764.25 443.55 775.4 447.5 786.6 450.9 782.85 455.5 775.95 459.85 763.0 464.1 748.15 467.35 709.2 476.05 669.95 482.7 639.45 488.0 609.5 485.8 592.4 477.5 572.7 468.8 565.3 465.5 553.1 457.85 L528.85 442.3 Q502.25 425.3 480.45 414.55 473.4 411.1 466.9 408.3 410.2 384.0 366.45 349.95 L359.8 344.7 Q341.5 334.05 337.25 325.8 M609.2 333.15 L609.2 333.2 608.4 333.5 608.3 333.55 Q605.6 334.65 596.4 334.65 585.4 334.65 578.4 330.75 L578.1 330.55 576.65 329.65 576.4 329.5 576.2 329.35 573.75 327.15 573.5 326.85 Q574.9 324.2 578.15 323.15 583.0 321.5 590.95 323.5 597.85 325.2 603.7 328.6 608.15 331.2 609.2 333.15 M173.75 164.7 Q175.35 161.95 180.15 160.0 186.55 157.45 195.95 157.2 205.2 157.0 211.7 159.2 214.55 160.15 216.25 161.4 L216.3 161.4 215.8 161.65 214.2 162.45 213.9 162.6 Q202.3 168.75 185.55 168.75 181.85 168.75 176.15 165.95 L173.75 164.7 M-2.95 100.6 Q-2.55 96.8 3.25 94.5 8.85 92.3 16.95 92.3 25.0 92.3 30.6 94.5 33.5 95.65 35.1 97.15 L35.2 97.3 35.4 97.5 35.5 97.65 36.15 98.5 Q36.85 99.7 36.85 101.15 L36.85 102.25 36.75 102.3 36.35 102.6 26.6 104.2 Q21.1 105.35 11.15 105.35 2.8 105.35 -2.45 101.0 L-2.95 100.6 M3.8 151.3 Q3.95 145.55 11.8 142.8 18.9 140.25 29.35 141.05 39.65 141.85 46.85 145.4 51.55 147.7 53.5 150.55 51.5 151.65 50.3 152.0 43.8 154.05 31.35 154.05 14.75 154.05 3.8 151.3 M-61.15 185.3 Q-59.45 181.05 -53.1 178.85 -45.3 176.2 -33.9 177.45 -22.65 178.7 -14.7 183.0 -7.15 187.1 -6.15 192.35 -11.7 193.55 -23.1 193.55 -41.0 193.55 -55.25 187.95 -58.5 186.65 -61.15 185.3 M98.45 201.4 Q104.05 200.35 111.7 201.3 121.0 202.45 127.75 205.85 135.05 209.5 135.05 213.9 L135.0 215.55 Q123.25 214.2 113.45 212.2 L112.6 212.0 Q96.3 208.55 96.3 205.25 96.3 204.6 97.65 202.55 L98.45 201.4 M657.8 299.35 L657.65 299.1 Q657.65 294.75 663.15 292.0 668.3 289.5 675.35 289.6 682.65 289.7 687.5 292.7 689.9 294.2 691.25 296.2 690.1 296.65 689.85 297.55 L689.2 299.6 Q687.25 302.1 672.0 302.1 665.05 302.1 657.8 299.35 M743.8 345.2 L743.25 344.9 Q745.45 343.15 749.1 341.7 757.65 338.3 769.75 338.2 782.05 338.05 790.4 341.4 796.5 343.85 798.65 347.6 L790.9 349.85 Q782.2 352.1 773.45 352.1 760.4 352.1 748.1 347.25 L743.8 345.2 M1214.3 440.35 L1214.1 440.4 Q1210.5 441.9 1187.9 441.9 1178.95 441.9 1168.05 435.65 L1164.6 433.55 Q1166.05 432.85 1167.9 432.35 1175.95 430.15 1188.35 431.8 1200.0 433.35 1208.75 437.25 1212.15 438.75 1214.3 440.35 M-80.6 82.8 Q-81.2 83.95 -82.6 84.95 L-82.7 85.0 -82.75 85.0 -84.9 86.1 -85.05 86.15 -85.2 86.2 Q-92.2 89.05 -108.25 89.25 L-115.0 89.25 Q-114.15 86.45 -109.7 83.45 -104.45 79.95 -97.6 78.35 -90.25 76.6 -85.55 78.25 -81.85 79.55 -80.6 82.8 M-213.45 112.05 L-213.6 112.6 -213.6 112.65 Q-213.55 113.5 -214.0 113.7 L-233.0 114.35 Q-247.9 114.35 -249.9 110.8 -250.35 110.0 -250.35 108.65 -249.1 107.75 -247.45 107.05 -241.35 104.3 -232.85 104.5 -224.1 104.7 -218.25 108.0 -215.15 109.75 -213.45 112.05" fill="#ffe375" fill-rule="evenodd" stroke="none"/>
      <path d="M1543.8 -28.8 L1553.7 -26.5 Q1550.0 -26.0 1543.85 -26.6 L1537.8 -27.25 1536.85 -27.3 1536.8 -27.3 1536.65 -27.3 1529.65 -27.0 1519.1 -26.5 1487.15 -25.2 1464.45 -23.6 Q1442.65 -23.6 1428.85 -25.5 1424.7 -26.05 1416.05 -28.05 L1388.45 -28.45 Q1387.7 -28.75 1375.85 -28.75 1360.6 -28.7 1351.85 -29.1 L1343.75 -29.7 1337.7 -31.6 1289.25 -31.6 1289.25 -31.1 1273.7 -30.35 1266.8 -30.05 1263.9 -30.3 Q1258.9 -30.8 1235.55 -35.15 L1212.8 -35.5 1188.85 -36.2 1173.1 -36.55 1156.95 -37.25 1121.95 -41.0 1091.05 -44.2 1037.5 -44.1 992.25 -39.9 933.3 -34.75 888.95 -34.75 873.05 -34.45 856.0 -33.7 805.45 -33.7 691.95 -24.65 639.55 -24.9 633.0 -25.55 626.85 -26.25 617.6 -26.95 613.55 -27.3 586.0 -27.55 559.6 -28.45 533.9 -29.4 Q524.3 -30.05 502.35 -33.5 481.5 -36.75 458.3 -38.05 L406.35 -37.8 387.3 -36.1 365.0 -34.75 Q357.05 -34.25 351.3 -34.4 340.65 -34.65 334.25 -37.8 L303.15 -37.5 269.05 -35.85 Q234.9 -34.5 224.8 -31.85 L197.9 -31.85 Q171.6 -29.8 124.95 -24.75 L107.35 -22.8 Q98.8 -19.75 92.75 -15.75 83.75 -9.85 83.75 -4.05 83.75 -2.8 87.3 3.35 91.0 9.75 92.3 10.15 100.15 12.75 103.35 15.8 105.75 18.1 108.1 23.85 111.55 32.05 122.8 39.15 L130.55 43.7 Q144.05 48.8 162.7 55.15 184.45 62.65 187.1 63.8 194.6 67.15 215.95 78.7 238.75 91.1 253.0 97.8 255.85 99.1 278.2 103.2 298.35 106.9 302.1 110.5 307.5 115.75 321.7 121.5 334.45 126.65 338.7 126.65 348.15 126.65 353.0 124.55 356.55 123.05 358.55 119.75 L361.8 114.4 Q364.2 111.65 369.15 110.75 370.3 114.5 374.1 118.45 L402.85 132.95 Q416.85 140.15 425.6 145.45 L433.85 148.75 Q452.2 156.05 461.95 160.8 466.3 162.9 483.95 168.35 504.15 174.6 526.3 180.25 588.3 196.1 620.5 196.1 L641.4 195.8 642.65 194.85 645.95 195.3 Q653.5 195.3 659.35 193.8 L660.75 194.3 Q664.1 195.8 664.9 199.1 665.35 201.05 665.7 205.35 666.55 209.25 670.0 211.7 L681.15 220.45 Q688.55 226.4 695.05 230.35 712.85 241.1 729.6 249.85 737.05 253.7 760.8 265.4 768.0 268.9 776.4 273.85 L790.1 282.05 Q806.55 291.55 825.5 296.9 L869.1 304.0 912.65 311.05 916.55 311.85 Q918.85 313.15 922.4 315.3 L936.8 316.2 Q943.35 316.2 946.85 313.5 947.85 312.75 950.85 308.65 952.65 306.2 955.35 306.5 959.0 306.9 967.0 311.85 976.0 314.15 991.15 319.9 1006.5 324.7 1026.75 325.75 L1057.55 325.75 1127.0 333.5 1182.4 333.75 Q1219.4 332.05 1227.45 329.3 1231.15 328.0 1232.65 325.6 L1235.3 320.1 1238.55 319.35 1242.25 321.65 Q1244.35 323.2 1246.05 324.05 1252.15 326.95 1269.55 329.3 1270.55 329.45 1282.75 334.3 1296.4 339.15 1305.1 339.15 1305.95 339.15 1314.8 336.75 L1323.75 334.3 1408.55 342.8 1452.35 346.4 Q1455.55 346.65 1502.1 346.65 L1510.1 347.4 1521.0 348.75 1521.3 349.25 1522.2 350.3 Q1521.05 351.4 1518.6 352.0 L1516.85 352.35 1516.45 352.4 1506.15 352.95 1505.65 352.95 1465.8 349.9 1417.85 346.1 1417.35 345.3 1412.35 345.0 1406.95 344.25 1377.9 342.05 1352.6 340.45 Q1343.15 340.45 1333.3 338.85 L1322.7 337.2 Q1319.4 337.2 1311.5 340.0 1303.65 342.8 1302.5 342.8 1297.1 342.8 1283.2 338.15 L1270.05 333.5 1253.3 329.95 Q1240.75 326.9 1238.3 324.45 1228.6 332.85 1219.5 334.1 L1210.75 335.05 Q1204.9 335.85 1198.95 337.95 L1126.75 337.55 1097.35 333.45 1068.75 329.3 1022.55 329.3 Q1016.3 328.0 985.25 318.05 956.6 308.85 953.35 308.85 951.7 308.85 950.7 310.9 L948.9 315.4 Q945.75 321.95 936.3 321.95 932.4 321.95 926.85 319.15 L912.65 315.5 Q890.35 309.65 885.1 309.2 856.25 306.75 834.3 302.0 820.55 299.05 811.1 295.55 796.7 290.25 782.2 281.95 760.0 269.25 752.3 265.4 745.45 261.95 724.25 249.6 L719.5 246.85 Q702.2 236.95 689.8 230.85 674.5 223.35 667.75 215.95 663.5 211.3 661.95 205.35 660.65 200.15 658.9 198.95 655.8 196.85 645.05 196.85 643.75 196.85 642.95 197.9 642.2 198.95 640.85 198.95 620.7 198.95 583.1 193.65 544.6 188.2 525.6 182.45 514.75 179.15 496.0 175.1 484.35 172.6 463.0 164.05 447.35 157.7 433.1 150.75 L431.85 150.15 431.75 150.4 407.9 138.35 405.0 137.05 407.15 137.95 402.5 135.6 Q387.15 127.8 378.65 122.5 385.85 128.1 398.3 134.05 386.95 128.9 381.0 125.85 366.15 118.15 366.55 113.0 364.0 114.15 361.7 117.85 L358.8 122.85 Q357.3 125.2 352.15 125.75 347.05 126.3 345.95 127.95 325.7 125.4 316.9 121.75 313.45 120.35 308.95 117.65 L299.75 112.2 Q296.05 110.15 278.45 105.9 259.75 101.35 255.1 99.35 244.85 95.0 217.85 80.85 198.35 70.6 185.0 67.35 178.3 65.7 161.15 59.75 144.55 54.0 129.8 48.0 L124.45 45.8 121.15 44.4 Q96.05 33.75 82.6 24.95 L75.8 20.05 75.35 19.7 74.95 19.35 Q78.95 21.6 84.2 23.2 95.4 29.65 114.45 37.45 L113.6 36.5 Q109.5 31.7 104.4 22.95 102.45 19.9 96.45 16.3 90.1 12.55 88.05 9.8 86.35 7.6 83.6 1.6 82.2 -1.4 81.15 -3.95 81.15 -10.5 89.0 -16.2 93.95 -19.8 100.9 -22.05 L86.55 -20.4 79.85 -19.55 75.9 -19.05 73.8 -18.8 68.7 -18.05 67.95 -17.95 66.4 -18.2 Q68.2 -19.1 74.15 -20.2 L74.35 -20.25 74.75 -20.35 75.0 -20.4 82.4 -21.6 85.15 -22.0 85.4 -22.05 85.6 -22.05 89.0 -22.55 90.6 -22.75 120.45 -26.25 131.1 -27.4 197.9 -33.95 225.75 -34.25 Q233.8 -36.25 267.25 -38.2 L303.15 -40.15 334.65 -39.9 350.9 -38.25 361.85 -37.25 383.25 -38.25 407.4 -39.9 416.4 -39.85 458.3 -39.6 502.4 -35.0 535.5 -31.35 Q583.75 -31.35 586.0 -30.55 L613.55 -30.45 622.0 -29.3 628.25 -28.35 Q637.85 -28.0 640.2 -27.0 L693.5 -27.3 745.9 -32.1 Q782.05 -35.15 820.95 -36.2 L856.8 -36.45 859.0 -37.25 919.9 -37.25 1038.55 -46.05 1091.05 -46.3 1158.4 -39.9 1190.4 -38.85 1234.5 -38.55 Q1251.75 -34.3 1262.95 -34.0 L1277.95 -33.9 Q1290.2 -33.8 1303.55 -33.2 L1323.6 -33.2 Q1326.45 -34.5 1330.2 -34.8 1336.55 -35.35 1339.8 -32.9 L1353.45 -31.6 Q1386.8 -32.2 1388.45 -31.6 L1415.0 -31.35 Q1422.45 -29.5 1431.8 -28.7 L1459.35 -27.8 1469.2 -28.3 1487.15 -29.4 1502.7 -30.25 1518.65 -31.1 1531.55 -30.6 1539.5 -29.7 1539.9 -29.65 1540.45 -29.55 1543.8 -28.8 M573.75 327.15 L576.2 329.35 576.4 329.5 576.65 329.65 578.1 330.55 578.4 330.75 Q585.4 334.65 596.4 334.65 605.6 334.65 608.3 333.55 L608.4 333.5 609.2 333.2 609.2 333.15 611.85 331.8 612.15 332.25 612.4 334.15 Q612.4 335.7 608.35 337.3 L607.95 337.45 Q603.1 339.25 597.05 339.25 582.7 339.25 575.5 334.65 L573.0 332.75 572.35 332.1 Q570.8 330.4 570.8 328.75 570.8 325.6 572.6 325.6 L573.75 327.15 M216.25 161.4 Q217.95 160.6 218.25 160.65 219.15 160.75 219.15 164.45 L218.9 166.3 Q218.25 168.65 215.75 170.65 211.65 174.0 204.6 174.0 180.45 174.0 173.25 169.35 171.0 167.85 169.95 165.55 168.8 162.9 168.5 162.6 L168.6 162.2 169.4 161.7 Q170.8 163.1 173.75 164.7 L176.15 165.95 Q181.85 168.75 185.55 168.75 202.3 168.75 213.9 162.6 L214.2 162.45 215.8 161.65 216.3 161.4 216.25 161.4 M35.1 97.15 L33.45 95.25 Q36.65 95.05 39.5 97.15 42.25 99.2 42.25 101.45 42.25 103.75 37.2 106.15 L35.95 106.75 35.65 106.85 24.0 109.15 23.75 109.2 23.45 109.2 23.15 109.25 22.6 109.25 19.95 109.3 Q5.8 109.3 -2.55 104.45 L-2.75 104.3 Q-5.45 102.7 -7.15 100.8 L-8.4 98.95 -8.35 97.05 -8.1 96.6 -7.05 95.9 -5.55 97.8 -2.95 100.6 -2.45 101.0 Q2.8 105.35 11.15 105.35 21.1 105.35 26.6 104.2 L36.35 102.6 36.75 102.3 36.85 102.25 37.1 100.65 Q37.1 99.85 36.15 98.5 L35.5 97.65 35.4 97.5 35.2 97.3 35.1 97.15 M53.5 150.55 L55.35 149.45 54.5 147.8 Q53.8 146.5 53.8 145.65 56.05 145.1 58.5 146.65 61.0 148.3 61.0 150.5 61.0 153.25 54.85 155.5 L53.55 155.95 Q44.95 158.8 31.35 158.8 16.0 158.8 4.45 154.1 L2.7 153.35 Q-4.8 149.95 -6.65 147.35 -3.8 149.2 1.95 150.8 L3.8 151.3 Q14.75 154.05 31.35 154.05 43.8 154.05 50.3 152.0 51.5 151.65 53.5 150.55 M-6.15 192.35 Q-2.7 191.6 -1.5 190.4 -0.5 189.4 -0.7 187.6 -0.95 185.6 -0.65 185.05 -0.1 184.25 1.05 183.75 3.25 186.45 3.25 191.6 3.25 193.95 -0.6 195.7 -2.9 196.75 -6.25 197.35 L-12.2 198.05 -15.0 198.15 -16.9 198.15 Q-41.65 198.15 -56.15 191.45 L-56.25 191.4 -59.7 189.65 -61.8 188.35 Q-68.2 184.05 -71.5 178.1 L-70.85 178.1 Q-67.65 182.0 -61.15 185.3 -58.5 186.65 -55.25 187.95 -41.0 193.55 -23.1 193.55 -11.7 193.55 -6.15 192.35 M135.0 215.55 L148.05 216.8 139.9 218.05 134.3 218.55 131.35 218.65 Q114.5 218.65 102.15 213.15 98.2 211.35 95.25 209.3 93.05 207.7 93.05 207.35 L93.05 207.1 Q93.1 204.6 93.65 202.8 L93.8 202.35 Q94.8 199.5 96.95 198.95 99.1 199.5 99.45 200.25 99.1 200.4 98.45 201.4 L97.65 202.55 Q96.3 204.6 96.3 205.25 96.3 208.55 112.6 212.0 L113.45 212.2 Q123.25 214.2 135.0 215.55 M691.25 296.2 L692.05 295.95 693.55 296.35 Q694.05 296.65 694.05 298.3 694.05 300.5 693.0 302.25 L691.55 304.0 Q688.75 306.6 683.65 306.6 668.75 306.6 659.2 302.55 L657.9 301.95 651.95 298.45 Q649.15 296.55 648.2 296.2 L648.5 295.75 648.75 295.4 Q649.75 295.5 656.4 298.8 L657.8 299.35 Q665.05 302.1 672.0 302.1 687.25 302.1 689.2 299.6 L689.85 297.55 Q690.1 296.65 691.25 296.2 M798.65 347.6 L801.15 346.75 797.85 343.65 794.7 340.85 798.75 340.3 Q803.65 342.15 805.5 343.4 807.8 344.9 807.8 346.75 807.8 350.25 799.75 352.95 L793.95 354.55 Q782.75 357.1 773.45 357.1 763.9 357.1 750.2 351.05 745.2 348.85 741.45 346.7 735.7 343.4 732.75 340.3 L732.75 340.05 Q735.7 341.35 743.8 345.2 L748.1 347.25 Q760.4 352.1 773.45 352.1 782.2 352.1 790.9 349.85 L798.65 347.6 M1214.3 440.35 Q1215.35 439.8 1215.2 438.85 1215.05 437.55 1215.5 437.05 1216.3 437.9 1217.3 439.6 L1218.35 441.65 Q1218.35 442.65 1217.45 443.6 L1216.85 444.15 1216.05 444.7 Q1212.55 447.0 1205.65 447.0 1176.55 447.0 1166.8 441.95 1162.9 439.95 1160.55 436.5 L1160.5 436.45 1156.7 429.55 Q1157.85 429.5 1161.05 431.35 L1164.6 433.55 1168.05 435.65 Q1178.95 441.9 1187.9 441.9 1210.5 441.9 1214.1 440.4 L1214.3 440.35 M-80.6 82.8 Q-80.3 82.1 -80.3 81.35 -80.3 79.8 -81.4 79.15 L-82.95 78.35 Q-80.1 76.4 -78.0 77.85 -76.25 79.1 -76.25 81.5 -76.25 85.05 -80.25 88.35 L-80.25 88.3 -80.45 88.5 -80.55 88.55 Q-85.9 92.75 -94.85 92.75 L-115.1 91.85 -117.2 91.7 -118.25 90.65 Q-118.75 89.9 -118.75 88.2 L-118.7 86.2 -118.25 85.55 -116.15 85.55 -116.15 89.25 -115.0 89.25 -108.25 89.25 Q-92.2 89.05 -85.2 86.2 L-85.05 86.15 -84.9 86.1 -82.75 85.0 -82.7 85.0 -82.6 84.95 Q-81.2 83.95 -80.6 82.8 M-213.45 112.05 Q-213.2 111.45 -212.4 110.95 L-213.05 109.4 -213.8 107.15 -214.2 106.9 -212.65 106.65 Q-209.35 106.65 -208.45 108.85 -208.2 109.5 -208.2 111.35 -208.2 114.5 -211.3 116.25 L-211.7 116.45 Q-216.0 118.55 -225.75 118.55 -243.5 118.55 -249.5 114.9 -252.3 113.25 -252.3 110.3 -252.3 108.45 -251.65 106.5 -251.05 104.7 -250.3 103.85 -249.95 104.9 -250.25 107.4 L-250.35 108.65 Q-250.35 110.0 -249.9 110.8 -247.9 114.35 -233.0 114.35 L-214.0 113.7 Q-213.55 113.5 -213.6 112.65 L-213.6 112.6 -213.45 112.05" fill="#f0c942" fill-rule="evenodd" stroke="none"/>
      <path d="M82.6 24.95 L83.1 25.3 58.35 15.45 Q31.7 4.7 27.55 3.8 L-101.9 -24.55 Q-178.35 -40.8 -239.75 -51.15 L-242.35 -51.05 -259.35 -51.15 -259.05 -51.65 -258.8 -51.95 -249.35 -51.75 -239.75 -51.15 -239.5 -51.65 -239.25 -51.95 Q-216.3 -49.05 -201.7 -46.45 L-185.6 -43.25 Q-176.0 -41.45 -141.2 -41.45 -137.5 -41.45 -131.6 -39.9 L-118.1 -36.5 Q-94.95 -31.6 -56.15 -31.6 -50.2 -31.6 -43.95 -30.0 -34.55 -27.6 -30.15 -26.95 -5.75 -23.1 53.55 -26.5 L74.4 -26.5 108.2 -30.0 252.65 -41.2 283.35 -41.7 298.55 -43.45 312.35 -44.75 312.35 -45.25 343.35 -45.25 416.4 -39.85 407.4 -39.9 383.25 -38.25 361.85 -37.25 350.9 -38.25 334.65 -39.9 303.15 -40.15 267.25 -38.2 Q233.8 -36.25 225.75 -34.25 L197.9 -33.95 131.1 -27.4 120.45 -26.25 90.6 -22.75 89.0 -22.55 85.6 -22.05 85.4 -22.05 85.15 -22.0 82.4 -21.6 75.0 -20.4 74.75 -20.35 74.35 -20.25 73.6 -21.0 74.0 -20.6 74.15 -20.2 Q68.2 -19.1 66.4 -18.2 L67.95 -17.95 68.7 -18.05 73.8 -18.8 75.9 -19.05 79.85 -19.55 86.55 -20.4 100.9 -22.05 Q93.95 -19.8 89.0 -16.2 81.15 -10.5 81.15 -3.95 82.2 -1.4 83.6 1.6 86.35 7.6 88.05 9.8 90.1 12.55 96.45 16.3 102.45 19.9 104.4 22.95 109.5 31.7 113.6 36.5 L114.45 37.45 Q95.4 29.65 84.2 23.2 78.95 21.6 74.95 19.35 L75.35 19.7 75.8 20.05 82.6 24.95" fill="#ffd83c" fill-rule="evenodd" stroke="none"/>
    </g>
  </defs>
</svg>
