<?xml version="1.0" encoding="UTF-8" standalone="no"?>
<svg xmlns:ffdec="https://www.free-decompiler.com/flash" xmlns:xlink="http://www.w3.org/1999/xlink" ffdec:objectType="frame" height="276.85px" width="488.25px" xmlns="http://www.w3.org/2000/svg">
  <g transform="matrix(1.0, 0.0, 0.0, 1.0, 285.95, 260.05)">
    <use ffdec:characterId="1270" height="22.45" transform="matrix(7.0, 0.0, 0.0, 7.0, -114.1, -194.95)" width="25.3" xlink:href="#shape0"/>
  </g>
  <defs>
    <g id="shape0" transform="matrix(1.0, 0.0, 0.0, 1.0, 16.3, 27.85)">
      <path d="M9.0 -27.7 L9.0 -27.6 8.95 -27.55 8.85 -27.5 8.75 -27.5 Q8.7 -27.5 8.65 -27.55 L8.6 -27.65 8.65 -27.75 8.7 -27.8 8.9 -27.8 Q8.95 -27.85 9.0 -27.8 L9.0 -27.7 M7.3 -26.65 L7.35 -26.5 7.35 -26.4 7.4 -26.4 7.4 -26.35 7.45 -26.3 7.45 -26.15 7.4 -26.1 8.1 -25.4 8.1 -25.35 8.25 -25.0 8.25 -24.95 8.3 -24.95 Q8.4 -24.8 8.6 -24.75 L8.7 -24.7 8.75 -24.65 8.8 -24.55 8.8 -24.45 Q8.75 -24.15 8.6 -23.8 8.5 -23.35 8.35 -23.15 L8.3 -23.05 8.25 -23.0 Q8.1 -22.75 7.75 -22.45 L7.35 -22.1 Q6.95 -21.6 6.75 -21.6 6.55 -21.55 6.45 -21.65 L5.85 -21.65 Q5.65 -21.6 5.45 -21.0 L5.4 -21.0 Q5.25 -20.55 5.25 -20.45 5.3 -20.35 5.55 -20.2 5.7 -20.1 6.05 -19.95 L6.1 -19.95 6.1 -19.75 Q6.1 -19.65 6.05 -19.55 L6.0 -19.55 6.0 -19.5 5.95 -19.5 5.9 -19.45 5.95 -19.35 5.95 -19.3 5.85 -18.95 Q5.85 -18.8 5.55 -18.75 L5.2 -18.75 5.1 -18.8 4.35 -18.8 4.3 -18.85 Q4.25 -18.9 4.25 -18.95 L4.2 -19.0 Q4.2 -19.05 4.25 -19.1 L4.3 -19.15 4.45 -19.2 5.2 -19.25 Q5.35 -19.15 5.4 -19.15 5.55 -19.2 5.55 -19.3 L5.6 -19.55 5.65 -19.6 5.65 -19.65 5.7 -19.65 5.65 -19.7 5.1 -19.95 Q4.8 -20.1 4.75 -20.35 L4.75 -20.3 Q4.7 -20.45 4.95 -21.05 5.2 -21.8 5.6 -22.05 L5.65 -22.1 6.5 -22.1 Q6.6 -22.15 6.6 -22.1 L6.65 -22.05 7.05 -22.55 Q7.5 -23.1 7.55 -23.3 L7.65 -24.6 Q7.55 -24.95 7.35 -25.2 7.05 -25.55 6.95 -26.1 L6.9 -26.3 6.4 -26.2 6.4 -26.0 6.35 -25.95 6.35 -25.9 6.3 -25.9 6.0 -25.75 5.95 -25.75 5.85 -25.8 Q5.8 -25.9 5.85 -25.95 5.85 -26.05 6.0 -26.2 6.0 -26.45 6.05 -26.55 L6.1 -26.55 Q6.1 -26.6 6.15 -26.6 L7.1 -26.75 7.2 -26.75 7.3 -26.65 M8.05 -24.75 L8.05 -24.8 8.0 -24.85 8.0 -24.9 7.95 -24.95 8.0 -24.7 8.0 -23.8 7.95 -23.2 8.0 -23.25 Q8.0 -23.4 8.2 -23.85 8.35 -24.15 8.4 -24.35 L8.3 -24.35 8.25 -24.4 Q8.2 -24.4 8.2 -24.5 L8.15 -24.5 Q8.15 -24.6 8.05 -24.8 L8.05 -24.75 M6.5 -7.45 Q6.5 -7.3 6.05 -6.85 5.65 -6.45 5.55 -6.45 L4.1 -6.5 4.05 -6.45 Q3.55 -5.9 3.05 -6.0 L2.45 -6.1 2.4 -6.1 2.15 -6.05 Q1.4 -5.85 1.3 -5.8 L1.0 -5.8 Q0.9 -5.85 0.85 -5.9 L0.85 -6.1 Q0.85 -6.35 0.9 -6.45 1.0 -6.55 1.45 -6.65 L2.55 -6.65 Q3.15 -6.65 3.6 -6.9 L4.15 -7.15 4.35 -7.3 5.1 -7.85 5.05 -8.0 4.95 -8.15 4.85 -8.25 4.5 -8.55 4.25 -8.75 2.45 -8.7 2.3 -8.7 Q1.85 -8.5 1.6 -8.5 1.15 -8.5 0.05 -8.8 L-0.2 -8.85 -0.2 -8.8 -0.25 -8.8 -0.3 -8.85 -0.25 -8.85 -1.45 -9.2 Q-1.95 -9.25 -2.3 -9.35 L-2.75 -9.55 -3.0 -9.65 -4.0 -9.75 -4.9 -9.85 -5.05 -9.8 -6.0 -9.7 -6.45 -9.6 -6.6 -9.75 Q-6.95 -9.6 -7.3 -9.5 L-7.85 -9.35 Q-8.05 -9.2 -8.45 -9.1 L-9.8 -8.7 Q-11.6 -8.2 -11.7 -7.55 L-11.7 -7.5 -11.65 -7.45 Q-11.5 -7.4 -11.35 -7.25 L-10.95 -6.7 -7.4 -6.25 -6.05 -5.9 -6.0 -5.9 Q-5.45 -5.75 -5.2 -5.6 L-5.45 -5.5 Q-5.8 -5.4 -6.0 -5.4 -6.75 -5.4 -7.4 -5.65 -8.1 -5.9 -8.3 -5.9 L-11.15 -6.3 Q-11.3 -6.45 -11.7 -7.1 L-11.95 -7.15 Q-12.05 -7.15 -12.1 -7.25 L-12.3 -7.35 -12.55 -7.55 -12.6 -7.5 -12.65 -7.55 -12.6 -7.55 -12.9 -7.7 -12.95 -7.8 -12.55 -8.75 Q-12.5 -8.95 -12.15 -9.05 -11.8 -9.2 -10.75 -9.4 L-7.4 -9.95 -7.2 -9.95 Q-6.4 -10.2 -5.8 -10.45 L-5.5 -10.45 -5.25 -10.3 -5.15 -10.25 -4.4 -10.45 -3.85 -10.55 -3.8 -10.6 -3.8 -10.55 -3.45 -10.5 Q-3.0 -10.25 -2.65 -10.1 -1.95 -9.8 -0.95 -9.45 L0.65 -9.25 Q0.85 -9.2 1.8 -9.2 L2.25 -9.2 3.6 -9.25 Q4.15 -9.25 4.65 -9.2 L5.25 -8.55 5.5 -8.4 6.3 -7.75 Q6.5 -7.65 6.5 -7.45 M5.95 -7.45 L5.55 -7.6 5.35 -7.45 Q4.9 -7.25 4.65 -7.0 L4.85 -6.95 Q5.4 -6.9 5.75 -7.15 5.85 -7.25 5.95 -7.4 L5.95 -7.45 M5.45 -7.45 L5.45 -7.45 M5.65 -6.45 L5.65 -6.45 M5.75 -6.35 L5.75 -6.35 M1.35 -5.75 L1.4 -5.8 1.4 -5.75 1.35 -5.75 M-14.35 -20.45 L-14.15 -20.15 -14.15 -20.05 Q-14.15 -20.0 -14.2 -19.95 -14.25 -19.9 -14.3 -19.9 -14.55 -19.9 -14.65 -20.15 L-14.7 -20.25 -15.2 -19.75 -15.45 -19.55 -15.45 -19.45 Q-15.4 -19.35 -15.45 -19.05 L-15.45 -18.65 Q-15.45 -18.55 -15.35 -18.4 L-15.25 -18.05 -15.15 -17.85 -15.15 -17.7 -15.1 -17.7 -15.05 -17.5 -15.05 -17.45 Q-15.0 -17.3 -15.1 -17.2 L-15.3 -17.0 Q-15.3 -16.9 -15.4 -16.9 L-15.5 -16.95 -15.6 -16.9 -15.55 -16.15 -15.45 -15.6 -15.4 -15.4 -15.4 -15.35 -15.45 -15.3 -15.45 -15.25 -15.55 -15.2 -15.7 -15.2 -15.75 -15.3 -15.8 -15.35 -15.9 -15.5 Q-15.9 -15.6 -15.8 -15.65 L-15.9 -15.8 -16.2 -16.2 -16.25 -16.5 -16.25 -16.55 Q-16.3 -16.85 -16.25 -17.55 -16.2 -18.35 -16.2 -18.65 L-16.25 -18.8 -16.3 -18.8 Q-16.35 -19.05 -16.25 -19.2 -16.05 -19.6 -15.9 -19.8 -15.85 -19.9 -15.55 -20.0 L-15.6 -20.0 Q-15.3 -20.15 -15.1 -20.3 L-14.95 -20.5 -14.85 -20.7 -14.75 -20.75 -14.65 -20.75 -14.35 -20.45 M-15.8 -19.2 L-15.85 -19.15 Q-15.95 -19.0 -15.95 -18.75 L-15.85 -18.2 Q-15.85 -18.1 -15.9 -17.35 L-15.8 -17.4 -15.5 -17.4 -15.45 -17.5 -15.5 -17.55 -15.5 -17.6 -15.55 -17.6 -15.55 -17.8 Q-15.6 -18.05 -15.75 -18.4 L-15.75 -18.45 -15.8 -19.0 -15.8 -19.2 M-15.9 -17.35 L-15.95 -17.2 -15.9 -17.2 -16.0 -17.15 -15.95 -17.15 -16.0 -17.1 Q-16.05 -17.05 -16.0 -17.0 L-16.0 -16.5 -15.95 -16.5 -15.95 -16.25 -15.85 -16.3 -15.8 -16.3 Q-15.95 -16.6 -15.9 -17.1 L-15.9 -17.35 M-16.0 -17.1 L-16.0 -17.1 M-15.65 -14.4 L-15.65 -14.45 -15.55 -14.5 -15.4 -14.5 -15.35 -14.45 -15.25 -14.25 -15.1 -14.25 Q-14.9 -14.3 -14.75 -14.05 -14.6 -13.9 -14.6 -13.8 L-14.5 -13.45 Q-14.45 -13.4 -14.45 -13.35 L-14.45 -13.25 -14.5 -13.25 -14.55 -13.2 -14.65 -13.2 Q-14.9 -13.3 -15.1 -13.8 -15.1 -13.85 -15.2 -13.9 L-15.35 -13.85 -15.45 -13.85 -15.45 -13.8 Q-15.65 -13.8 -15.7 -14.1 -15.75 -14.25 -15.65 -14.35 L-15.65 -14.4 M-11.6 -7.45 L-11.6 -7.45 M-12.35 -8.0 L-12.25 -7.9 Q-12.2 -8.35 -11.45 -8.75 L-11.3 -8.85 -11.7 -8.7 Q-12.35 -8.45 -12.35 -8.0 M-11.75 -7.05 L-11.75 -7.05 M-1.0 -9.0 L-1.0 -9.0 M-11.1 -7.05 L-11.1 -7.05" fill="#ff6600" fill-opacity="0.7019608" fill-rule="evenodd" stroke="none"/>
      <path d="M8.75 -27.65 L8.9 -27.7 8.85 -27.65 8.75 -27.65 M7.2 -26.45 L7.25 -26.35 Q7.2 -26.2 7.2 -26.15 L7.2 -26.1 Q7.2 -26.2 7.25 -26.3 L7.3 -26.25 7.25 -26.1 Q7.3 -26.0 7.6 -25.7 L8.0 -25.35 8.1 -24.95 Q7.95 -25.25 7.9 -25.4 L7.7 -25.45 7.3 -25.85 Q7.35 -25.6 7.55 -25.4 7.8 -25.1 7.9 -24.65 7.9 -24.5 7.85 -23.85 L7.8 -23.15 Q7.75 -23.0 7.55 -22.65 7.9 -23.0 8.15 -23.2 L8.15 -23.25 Q8.1 -23.35 8.35 -23.8 8.55 -24.25 8.55 -24.5 L8.3 -24.5 Q8.3 -24.65 8.2 -24.85 8.35 -24.65 8.6 -24.6 L8.65 -24.5 Q8.6 -24.15 8.5 -23.8 8.35 -23.4 8.2 -23.2 L8.2 -23.15 8.15 -23.15 Q8.0 -22.9 7.65 -22.55 L7.25 -22.2 Q6.9 -21.75 6.7 -21.7 L6.5 -21.75 6.45 -21.85 6.0 -21.8 5.8 -21.8 Q5.55 -21.75 5.3 -21.1 5.1 -20.5 5.1 -20.4 5.15 -20.25 5.45 -20.1 L5.95 -19.85 5.95 -19.75 5.9 -19.65 5.85 -19.6 5.8 -19.8 Q5.5 -19.95 5.15 -20.1 4.9 -20.2 4.9 -20.35 4.85 -20.45 5.05 -21.0 5.3 -21.7 5.65 -21.95 L6.5 -21.95 6.5 -21.9 Q6.55 -21.85 6.65 -21.9 L7.15 -22.45 Q7.65 -23.05 7.7 -23.3 L7.75 -23.95 7.75 -24.65 Q7.7 -25.0 7.45 -25.3 7.15 -25.65 7.05 -26.1 7.05 -26.3 7.05 -26.35 7.05 -26.45 7.1 -26.5 L6.2 -26.3 6.25 -26.0 5.95 -25.9 Q6.0 -26.0 6.15 -26.15 6.1 -26.4 6.15 -26.45 L7.15 -26.6 7.2 -26.5 7.2 -26.45 M5.4 -19.0 Q5.65 -19.05 5.7 -19.25 L5.75 -19.55 5.8 -19.3 5.75 -19.0 Q5.7 -18.9 5.5 -18.9 L5.25 -18.9 5.1 -18.95 4.35 -18.95 4.35 -19.05 4.45 -19.05 Q4.95 -19.25 5.15 -19.1 5.3 -19.0 5.4 -19.0 M6.05 -7.2 Q5.85 -7.05 5.8 -6.9 5.8 -6.5 5.75 -6.55 5.6 -6.65 5.25 -6.7 L4.9 -6.65 4.05 -6.6 3.6 -6.2 3.25 -6.3 2.9 -6.35 2.35 -6.35 1.65 -6.3 1.55 -6.15 Q1.55 -6.1 1.4 -6.1 L1.3 -5.9 Q1.2 -6.0 1.2 -6.1 L1.15 -6.25 1.3 -6.25 1.6 -6.4 2.15 -6.5 2.25 -6.5 2.75 -6.55 Q3.4 -6.55 3.8 -6.65 L3.95 -6.7 4.25 -7.05 Q4.35 -7.25 4.65 -7.4 4.95 -7.65 5.2 -7.7 L5.35 -7.75 5.1 -8.3 4.5 -8.8 4.3 -8.85 4.0 -8.95 3.65 -8.95 2.8 -8.9 2.3 -8.9 2.0 -8.75 1.7 -8.65 1.35 -8.75 0.6 -8.9 0.2 -8.9 -0.2 -8.95 -0.8 -9.15 -1.0 -9.15 Q-1.5 -9.25 -2.1 -9.45 L-2.9 -9.7 -4.05 -9.85 -5.0 -9.95 -5.25 -10.05 -5.65 -10.0 -7.2 -9.75 Q-8.4 -9.3 -8.7 -9.2 L-10.2 -8.75 Q-11.45 -8.35 -11.8 -8.15 L-11.75 -8.1 Q-11.95 -8.05 -12.0 -7.95 -12.05 -7.85 -12.05 -7.7 -12.05 -7.6 -11.95 -7.45 L-11.65 -7.3 -11.55 -7.3 -11.4 -7.15 -11.25 -7.1 -11.25 -7.05 -11.3 -7.05 -11.2 -6.95 -11.1 -6.8 Q-10.95 -6.6 -10.95 -6.45 L-8.75 -6.2 -7.4 -5.95 -6.6 -5.85 -5.95 -5.75 -6.0 -5.8 -5.65 -5.85 -5.8 -5.65 -5.9 -5.55 -5.9 -5.65 -5.95 -5.7 -5.95 -5.65 -6.05 -5.7 -6.9 -5.8 -8.35 -6.0 -10.0 -6.35 -11.05 -6.4 -11.0 -6.45 -11.0 -6.6 Q-11.0 -6.65 -11.05 -6.7 L-11.0 -6.6 -11.05 -6.55 -11.15 -6.55 Q-11.15 -6.75 -11.55 -7.05 L-11.75 -7.2 -11.8 -7.2 -11.95 -7.25 Q-12.1 -7.35 -12.15 -7.5 -12.35 -7.55 -12.55 -7.7 L-12.85 -7.8 -12.65 -8.05 Q-12.5 -8.2 -12.45 -8.3 L-12.45 -8.55 Q-12.45 -8.7 -12.25 -8.75 L-11.05 -9.1 -9.85 -9.4 -6.85 -9.95 -6.6 -10.05 -6.1 -10.2 -5.6 -10.3 -5.4 -10.15 -3.95 -10.4 -3.75 -10.35 -3.8 -10.4 -3.75 -10.4 -3.75 -10.45 Q-3.55 -10.4 -3.05 -10.1 -2.55 -9.8 -2.2 -9.7 -1.4 -9.4 -1.1 -9.3 L-0.9 -9.25 0.7 -9.15 1.05 -9.1 1.45 -9.05 2.65 -9.05 3.05 -9.1 3.4 -9.1 4.5 -9.15 Q4.8 -9.15 5.15 -8.45 L5.25 -8.35 6.3 -7.5 Q6.25 -7.4 6.05 -7.2 M1.7 -8.95 L0.7 -9.05 -0.3 -9.1 0.6 -8.95 1.0 -8.9 1.5 -8.8 2.15 -8.95 1.7 -8.95 M4.4 -9.0 Q4.6 -8.95 4.6 -8.8 L5.0 -8.5 Q4.85 -8.85 4.6 -9.05 L4.4 -9.0 M5.4 -7.6 Q4.9 -7.45 4.65 -7.25 L4.15 -6.75 5.0 -6.8 5.3 -6.75 5.65 -6.75 Q5.7 -6.9 5.85 -7.05 L6.2 -7.45 5.35 -8.15 5.45 -7.75 5.45 -7.6 5.4 -7.6 M3.75 -6.55 Q3.5 -6.45 3.35 -6.45 L3.1 -6.45 3.6 -6.4 Q3.7 -6.35 3.85 -6.6 L3.75 -6.55 M-15.3 -19.85 L-15.6 -19.6 -15.55 -19.45 Q-15.55 -19.3 -15.55 -19.05 L-15.6 -18.65 Q-15.6 -18.55 -15.5 -18.35 L-15.4 -18.0 -15.35 -17.8 -15.3 -17.8 -15.25 -17.65 -15.2 -17.45 Q-15.2 -17.35 -15.2 -17.3 L-15.4 -17.05 -15.45 -17.1 -15.45 -17.15 -15.75 -17.0 -15.7 -16.15 -15.6 -15.55 -15.55 -15.4 -15.6 -15.35 -15.65 -15.35 -15.75 -15.55 -15.65 -15.55 -15.7 -15.65 Q-15.7 -15.8 -15.8 -15.9 L-15.95 -16.1 -15.9 -16.1 Q-16.05 -16.15 -16.05 -16.25 L-16.1 -16.55 Q-16.15 -16.85 -16.1 -17.55 -16.05 -18.35 -16.1 -18.65 L-16.15 -18.85 Q-16.2 -19.05 -16.15 -19.15 -15.95 -19.55 -15.8 -19.75 L-15.5 -19.9 Q-15.2 -20.05 -15.05 -20.2 -14.95 -20.25 -14.85 -20.4 L-14.75 -20.6 -14.5 -20.35 -14.3 -20.05 Q-14.45 -20.05 -14.55 -20.2 L-14.7 -20.5 Q-14.85 -20.3 -15.3 -19.85 M-16.1 -18.75 L-16.0 -18.2 Q-16.0 -18.05 -16.05 -17.1 -16.1 -16.45 -15.85 -16.1 L-15.85 -16.05 -15.75 -16.0 -15.85 -16.5 -15.85 -17.0 -15.9 -17.05 -15.85 -17.1 -15.8 -17.25 -15.4 -17.25 -15.3 -17.5 -15.4 -17.65 -15.4 -17.8 Q-15.45 -18.05 -15.65 -18.45 L-15.65 -19.05 -15.7 -19.55 -15.95 -19.25 Q-16.1 -19.05 -16.1 -18.75 M-15.5 -14.35 L-15.45 -14.4 Q-15.45 -14.3 -15.4 -14.1 L-15.1 -14.1 Q-14.95 -14.15 -14.85 -13.95 -14.75 -13.85 -14.75 -13.75 -14.65 -13.4 -14.6 -13.3 -14.8 -13.4 -14.95 -13.85 -15.1 -14.15 -15.45 -14.0 L-15.5 -13.95 Q-15.55 -13.95 -15.55 -14.1 -15.6 -14.25 -15.55 -14.3 L-15.5 -14.35 M-11.9 -8.1 L-11.9 -8.15 Q-11.7 -8.4 -10.1 -8.9 -8.45 -9.35 -8.15 -9.5 L-7.45 -9.7 -7.35 -9.75 -8.0 -9.65 -10.3 -9.15 -12.2 -8.7 -12.4 -8.25 Q-12.55 -8.0 -12.7 -7.85 -12.55 -7.7 -12.25 -7.6 L-12.15 -7.55 -12.15 -7.7 Q-12.15 -7.9 -12.05 -8.0 L-11.9 -8.1 M-3.55 -10.2 L-3.65 -10.25 Q-3.7 -10.25 -3.75 -10.3 L-5.15 -10.05 Q-4.9 -10.0 -4.55 -9.95 L-4.45 -9.9 -2.6 -9.7 -3.05 -10.0 -3.65 -10.3 -3.6 -10.3 -3.55 -10.2 M-5.65 -10.25 Q-5.9 -10.25 -6.65 -9.95 L-5.5 -10.15 -5.65 -10.25" fill="#ffffff" fill-rule="evenodd" stroke="none"/>
    </g>
  </defs>
</svg>
