<?xml version="1.0" encoding="UTF-8" standalone="no"?>
<svg xmlns:ffdec="https://www.free-decompiler.com/flash" xmlns:xlink="http://www.w3.org/1999/xlink" ffdec:objectType="frame" height="162.45px" width="404.9px" xmlns="http://www.w3.org/2000/svg">
  <g transform="matrix(1.0, 0.0, 0.0, 1.0, 12.35, 12.9)">
    <use ffdec:characterId="473" height="162.45" transform="matrix(1.0, 0.0, 0.0, 1.0, -12.35, -12.9)" width="404.9" xlink:href="#shape0"/>
  </g>
  <defs>
    <g id="shape0" transform="matrix(1.0, 0.0, 0.0, 1.0, 12.35, 12.9)">
      <path d="M376.75 19.25 Q376.75 25.9 375.5 36.35 L374.5 44.1 374.3 56.4 373.95 60.85 374.0 65.85 Q374.9 74.65 372.7 81.5 L372.45 82.25 Q372.9 86.15 373.75 89.3 373.75 90.15 373.05 90.7 371.75 91.6 367.0 91.6 L360.85 91.45 359.1 91.45 358.25 91.4 358.15 91.35 353.25 90.2 353.5 96.2 Q353.5 100.35 352.8 105.9 351.8 114.05 350.0 115.55 L348.2 114.0 Q347.75 113.3 347.75 111.6 L348.3 100.8 349.0 85.1 Q354.45 87.1 358.55 87.5 360.85 86.75 363.8 87.0 L364.4 87.05 365.85 86.45 Q368.0 85.3 369.3 83.0 L369.4 56.85 369.3 55.65 369.2 54.2 369.15 54.0 368.8 49.25 368.5 44.85 368.55 39.55 363.05 52.6 Q354.5 72.1 351.0 75.5 L349.55 75.15 Q349.0 74.8 349.0 73.3 349.0 67.7 359.7 41.05 368.15 19.95 371.25 13.65 L352.75 12.9 Q347.2 12.1 345.25 10.85 345.15 8.2 348.0 7.75 349.35 7.6 361.5 7.6 L377.25 8.05 377.5 8.45 377.75 10.15 Q377.75 12.35 375.8 17.3 L376.3 17.8 Q376.75 18.3 376.75 19.25 M369.25 88.1 L369.25 87.85 369.05 88.05 369.25 88.1 M367.25 133.5 L366.0 134.25 Q362.9 130.25 363.15 122.45 363.25 118.05 364.0 109.25 364.0 107.65 365.15 104.85 366.25 102.2 367.0 101.65 368.25 102.5 368.65 103.4 369.0 104.15 369.0 106.0 L368.3 117.0 Q367.6 127.6 367.75 133.05 L367.25 133.5 M26.25 6.85 L25.5 66.5 25.25 68.35 25.0 68.35 19.15 68.75 9.9 69.2 8.0 69.35 3.75 69.35 3.75 69.2 3.0 68.1 2.85 67.1 Q2.9 66.3 3.95 65.75 7.2 64.05 20.75 64.1 L20.75 56.1 20.75 55.7 12.5 56.35 Q6.0 56.35 5.6 55.5 L5.35 54.6 Q5.05 54.05 3.5 53.6 10.5 50.3 16.9 49.3 L20.3 49.0 Q19.8 41.25 19.65 32.1 19.5 24.05 19.5 8.1 L12.0 7.1 Q6.8 7.1 6.15 20.5 L5.95 31.3 Q5.9 37.35 5.25 39.6 L3.5 39.6 Q3.5 33.1 1.75 21.55 0.0 10.05 0.0 4.35 0.0 1.6 4.1 0.55 L13.15 0.25 Q18.4 0.9 22.15 2.65 26.25 4.55 26.25 6.85 M2.75 80.25 Q2.75 77.9 7.9 78.0 L20.55 78.0 Q21.15 76.45 22.0 76.35 22.9 76.25 23.55 77.9 L24.25 77.85 24.65 78.5 Q25.0 79.05 25.0 80.5 25.0 81.55 24.45 82.3 25.0 86.95 25.0 95.25 25.0 106.35 22.0 108.35 19.75 105.75 19.2 101.8 19.0 100.4 19.0 95.5 19.0 88.5 19.45 84.05 L17.5 84.1 9.55 83.35 3.5 82.6 3.15 82.2 Q2.75 81.75 2.75 80.25" fill="#ffffff" fill-rule="evenodd" stroke="none"/>
      <path d="M23.8 -5.75 Q30.25 -2.65 32.25 2.05 L34.35 18.95 34.5 32.4 Q34.5 50.05 34.05 55.55 32.55 73.05 26.85 74.3 28.75 77.25 30.85 91.0 30.85 99.0 29.85 105.1 27.8 117.8 22.25 117.8 15.5 117.8 13.5 106.95 12.4 101.1 12.75 90.05 1.3 91.1 -2.35 87.25 -3.55 86.05 -3.8 84.4 L-3.8 82.85 -3.7 80.5 Q-3.45 79.4 -2.0 77.5 -5.6 75.85 -7.1 73.8 -8.3 72.1 -8.3 69.85 -8.3 67.5 -5.95 65.1 -2.95 62.05 2.25 61.5 0.05 58.5 -3.85 56.35 -6.55 54.85 -6.55 52.65 -6.55 50.45 -4.15 48.8 -1.75 47.1 -1.75 46.15 -1.75 39.9 -4.5 27.15 -7.3 14.4 -7.3 7.75 -7.3 -0.45 -1.9 -4.8 2.85 -8.6 10.45 -8.65 17.5 -8.75 23.8 -5.75 M13.0 -5.55 Q6.25 -6.6 1.3 -3.85 -4.0 -0.85 -4.0 5.0 -2.95 15.6 -1.45 26.0 1.55 46.75 4.0 46.75 6.45 46.75 8.8 36.75 10.75 28.3 10.75 24.35 L10.4 19.0 Q10.1 14.95 10.25 12.75 L12.15 13.1 14.0 13.25 Q14.5 37.1 15.5 48.5 7.0 47.7 2.55 49.3 -1.5 50.75 -1.5 53.85 -1.5 56.5 0.85 57.75 4.65 59.85 15.25 59.5 L15.25 61.5 Q4.6 62.75 0.8 64.75 -2.0 66.25 -2.0 69.0 L-2.2 69.95 Q-2.3 70.9 -1.45 71.65 -0.4 72.6 2.0 73.2 L11.5 74.0 Q16.2 74.0 19.75 71.8 L20.0 72.25 20.8 72.5 23.5 72.75 Q24.5 72.75 26.15 72.0 28.35 70.95 28.5 69.2 L28.5 69.0 Q28.5 66.65 27.35 61.1 28.75 57.0 29.5 51.55 30.55 43.9 30.4 31.95 L30.0 14.35 Q30.0 5.85 24.7 0.4 20.05 -4.4 13.0 -5.55 M386.35 12.0 Q384.35 17.0 384.05 21.5 383.5 31.85 383.05 35.0 L380.75 48.5 Q379.4 56.55 379.4 61.75 L379.9 65.5 380.4 70.55 Q380.4 73.25 380.9 79.0 380.9 82.5 379.55 88.7 377.7 97.15 374.8 99.5 374.3 105.8 374.65 119.1 374.65 126.05 373.55 133.25 371.6 146.05 367.15 146.05 360.95 146.05 358.85 135.2 357.8 129.7 357.8 119.05 L357.65 118.8 Q357.0 120.7 355.15 122.95 352.05 126.8 348.15 126.8 344.45 126.8 341.9 123.3 L340.05 119.75 340.05 99.05 Q339.55 97.55 339.55 94.75 339.55 72.15 343.4 60.25 345.0 55.2 349.6 44.35 L359.9 19.3 Q342.55 21.55 335.15 17.45 330.55 14.85 330.55 10.5 330.55 5.8 336.85 2.35 343.8 -1.4 353.15 0.05 L366.4 0.25 Q373.0 1.65 382.3 2.6 388.3 3.7 388.3 7.6 L386.35 12.0 M363.25 60.0 L363.5 59.75 Q364.0 68.25 364.0 85.5 L356.25 85.5 350.75 82.5 Q353.9 78.3 357.35 71.25 361.5 62.85 363.25 60.0 M383.0 10.5 Q383.0 6.95 380.45 5.2 377.1 2.9 369.0 3.25 L343.2 5.5 Q334.75 6.65 334.75 11.0 334.75 13.9 338.5 15.25 342.85 16.75 353.5 16.75 L357.9 16.65 Q361.65 16.5 366.0 16.5 L366.75 17.0 Q357.55 33.95 352.15 45.55 342.0 67.1 342.0 78.1 342.0 79.35 343.25 80.55 344.5 81.75 344.5 83.0 344.5 84.25 343.25 85.65 342.0 87.0 342.0 88.25 342.0 89.5 343.0 92.75 344.0 96.0 344.0 97.25 344.0 98.5 343.0 103.25 342.0 108.0 342.0 109.25 L342.25 115.65 Q343.35 121.75 348.0 121.75 353.15 121.75 355.0 112.6 356.0 107.6 356.0 98.5 366.2 102.5 371.15 99.3 375.25 96.7 376.2 88.8 376.75 84.15 376.2 73.55 375.65 63.5 376.25 60.0 L378.95 41.05 Q381.0 25.15 381.0 19.85 381.0 18.6 382.0 15.2 383.0 11.75 383.0 10.5 M362.65 75.15 L362.8 67.8 Q361.7 73.0 356.65 82.75 L356.65 82.8 362.3 82.8 362.65 75.15 M372.5 114.35 Q372.5 104.75 370.75 99.55 367.75 101.25 362.95 100.5 L362.4 102.15 Q360.5 108.8 360.5 119.0 L361.05 130.65 Q362.45 142.0 367.0 142.0 370.5 142.0 372.5 114.35 M13.75 29.8 Q13.55 32.7 10.9 38.5 8.05 44.9 7.6 47.0 L11.25 46.75 13.25 38.0 Q14.55 32.45 13.75 29.75 L13.75 29.8 M4.0 77.3 Q2.75 77.6 2.0 78.55 1.0 79.8 1.0 82.25 1.0 83.9 2.0 84.9 3.1 86.0 5.5 86.25 L15.75 86.75 Q15.75 101.6 15.9 103.2 16.75 114.0 21.0 114.0 23.1 114.0 24.5 111.55 25.75 109.35 25.75 107.0 25.75 105.75 26.5 94.8 L27.25 82.6 Q27.25 77.65 25.25 77.05 L15.5 77.0 Q5.15 77.0 4.0 77.3" fill="#5cfff6" fill-opacity="0.2" fill-rule="evenodd" stroke="none"/>
      <path d="M13.0 -5.55 Q20.05 -4.4 24.7 0.4 30.0 5.85 30.0 14.35 L30.4 31.95 Q30.55 43.9 29.5 51.55 28.75 57.0 27.35 61.1 28.5 66.65 28.5 69.0 L28.5 69.2 Q28.35 70.95 26.15 72.0 24.5 72.75 23.5 72.75 L20.8 72.5 20.0 72.25 19.75 71.8 Q16.2 74.0 11.5 74.0 L2.0 73.2 Q-0.4 72.6 -1.45 71.65 -2.3 70.9 -2.2 69.95 L-2.0 69.0 Q-2.0 66.25 0.8 64.75 4.6 62.75 15.25 61.5 L15.25 59.5 Q4.65 59.85 0.85 57.75 -1.5 56.5 -1.5 53.85 -1.5 50.75 2.55 49.3 7.0 47.7 15.5 48.5 14.5 37.1 14.0 13.25 L12.15 13.1 10.25 12.75 Q10.1 14.95 10.4 19.0 L10.75 24.35 Q10.75 28.3 8.8 36.75 6.45 46.75 4.0 46.75 1.55 46.75 -1.45 26.0 -2.95 15.6 -4.0 5.0 -4.0 -0.85 1.3 -3.85 6.25 -6.6 13.0 -5.55 M376.25 12.0 Q376.25 11.2 375.85 10.75 L375.0 10.25 352.35 9.05 Q352.05 9.05 352.0 9.4 351.85 9.95 349.75 10.55 351.8 10.65 352.15 11.0 L352.95 11.7 373.25 12.8 Q370.6 16.95 368.85 24.55 366.55 34.55 365.75 36.75 364.35 40.6 359.4 50.95 355.05 60.0 355.05 60.65 L353.95 65.65 Q352.8 70.0 352.25 70.8 L352.5 71.05 Q359.0 57.85 364.8 44.7 369.45 34.2 372.2 26.85 L371.4 33.25 Q370.1 45.7 370.55 54.05 L370.55 82.25 Q370.4 82.6 370.35 85.75 370.3 87.7 368.3 88.3 L359.55 88.3 355.5 87.05 351.5 87.05 Q350.4 88.75 350.35 92.05 L350.55 97.75 Q350.6 99.75 350.05 103.7 349.55 107.75 349.55 109.5 L349.75 111.55 350.25 111.5 Q352.4 107.0 352.35 100.3 352.0 92.8 352.3 89.05 L354.8 89.05 359.85 89.85 364.0 90.3 Q372.8 90.3 372.85 88.05 371.3 85.05 372.3 83.55 L372.3 54.0 Q372.95 43.8 374.15 33.1 374.75 27.7 374.8 19.25 376.25 14.4 376.25 12.0 M383.0 10.5 Q383.0 11.75 382.0 15.2 381.0 18.6 381.0 19.85 381.0 25.15 378.95 41.05 L376.25 60.0 Q375.65 63.5 376.2 73.55 376.75 84.15 376.2 88.8 375.25 96.7 371.15 99.3 366.2 102.5 356.0 98.5 356.0 107.6 355.0 112.6 353.15 121.75 348.0 121.75 343.35 121.75 342.25 115.65 L342.0 109.25 Q342.0 108.0 343.0 103.25 344.0 98.5 344.0 97.25 344.0 96.0 343.0 92.75 342.0 89.5 342.0 88.25 342.0 87.0 343.25 85.65 344.5 84.25 344.5 83.0 344.5 81.75 343.25 80.55 342.0 79.35 342.0 78.1 342.0 67.1 352.15 45.55 357.55 33.95 366.75 17.0 L366.0 16.5 Q361.65 16.5 357.9 16.65 L353.5 16.75 Q342.85 16.75 338.5 15.25 334.75 13.9 334.75 11.0 334.75 6.65 343.2 5.5 L369.0 3.25 Q377.1 2.9 380.45 5.2 383.0 6.95 383.0 10.5 M363.25 60.0 Q361.5 62.85 357.35 71.25 353.9 78.3 350.75 82.5 L356.25 85.5 364.0 85.5 Q364.0 68.25 363.5 59.75 L363.25 60.0 M366.55 105.8 Q365.85 106.05 365.65 108.6 365.4 111.75 365.05 112.55 L365.05 120.6 365.45 125.55 366.0 130.05 366.75 129.5 Q366.75 125.65 367.05 118.45 L367.3 111.25 Q367.3 108.75 366.55 105.8 M372.5 114.35 Q370.5 142.0 367.0 142.0 362.45 142.0 361.05 130.65 L360.5 119.0 Q360.5 108.8 362.4 102.15 L362.95 100.5 Q367.75 101.25 370.75 99.55 372.5 104.75 372.5 114.35 M22.95 15.15 Q23.15 19.05 22.0 23.8 L22.05 42.75 21.95 45.45 22.05 48.55 Q22.45 51.45 16.15 52.3 9.75 53.2 9.75 54.0 9.75 54.15 11.5 55.3 L13.15 54.55 22.0 53.85 22.0 54.35 22.25 58.1 22.5 62.8 Q22.5 65.6 15.2 66.25 7.1 66.9 6.25 68.05 L12.25 69.0 Q22.85 69.0 24.5 64.3 25.2 62.35 25.1 58.05 L24.8 50.1 Q25.05 48.5 24.9 46.65 L24.3 39.3 25.0 24.65 Q24.55 14.25 24.55 9.0 24.55 6.35 21.4 5.15 20.05 4.6 12.75 3.05 2.55 0.15 2.55 8.9 2.55 9.75 3.3 11.3 L4.0 13.05 4.8 26.55 Q4.8 27.3 4.35 27.85 L3.75 28.5 Q5.65 28.4 6.15 26.6 L6.25 24.65 5.8 21.0 5.3 17.35 Q6.8 7.8 7.75 6.3 L11.55 6.3 14.55 7.1 16.25 7.55 Q22.65 7.55 22.95 15.15 M19.85 79.0 Q17.5 77.75 16.25 77.45 11.85 76.3 7.0 81.25 11.85 83.65 14.3 83.2 L20.75 82.55 20.35 93.6 Q20.55 100.35 23.75 103.0 23.05 101.05 22.85 98.5 L22.8 94.0 23.75 81.35 23.65 80.55 23.5 80.5 Q22.2 80.2 19.85 79.0 M4.0 77.3 Q5.15 77.0 15.5 77.0 L25.25 77.05 Q27.25 77.65 27.25 82.6 L26.5 94.8 Q25.75 105.75 25.75 107.0 25.75 109.35 24.5 111.55 23.1 114.0 21.0 114.0 16.75 114.0 15.9 103.2 15.75 101.6 15.75 86.75 L5.5 86.25 Q3.1 86.0 2.0 84.9 1.0 83.9 1.0 82.25 1.0 79.8 2.0 78.55 2.75 77.6 4.0 77.3" fill="#00fff3" fill-opacity="0.4" fill-rule="evenodd" stroke="none"/>
      <path d="M32.1 -4.5 Q39.8 2.8 39.8 12.25 39.8 33.4 36.8 55.65 35.3 66.75 33.8 74.75 L35.2 79.95 Q36.55 85.75 36.55 89.0 36.55 95.35 33.85 105.5 29.65 121.0 22.25 121.0 13.35 121.0 11.15 110.8 10.5 107.9 10.5 95.75 0.7 94.95 -4.25 89.35 -8.85 84.15 -6.0 79.75 -10.5 77.65 -11.75 75.4 -12.35 74.25 -12.35 71.5 -12.35 68.7 -11.6 66.8 -10.45 63.75 -7.25 61.75 -7.7 60.35 -9.4 57.7 -10.85 55.5 -10.85 54.25 L-9.4 47.85 Q-8.0 41.7 -8.0 40.1 -8.0 33.8 -8.75 28.2 -9.5 22.6 -9.5 12.75 -9.5 -1.55 -1.8 -8.25 4.9 -14.05 15.15 -12.65 24.9 -11.3 32.1 -4.5 M23.8 -5.75 Q17.5 -8.75 10.45 -8.65 2.85 -8.6 -1.9 -4.8 -7.3 -0.45 -7.3 7.75 -7.3 14.4 -4.5 27.15 -1.75 39.9 -1.75 46.15 -1.75 47.1 -4.15 48.8 -6.55 50.45 -6.55 52.65 -6.55 54.85 -3.85 56.35 0.05 58.5 2.25 61.5 -2.95 62.05 -5.95 65.1 -8.3 67.5 -8.3 69.85 -8.3 72.1 -7.1 73.8 -5.6 75.85 -2.0 77.5 -3.45 79.4 -3.7 80.5 L-3.8 82.85 -3.8 84.4 Q-3.55 86.05 -2.35 87.25 1.3 91.1 12.75 90.05 12.4 101.1 13.5 106.95 15.5 117.8 22.25 117.8 27.8 117.8 29.85 105.1 30.85 99.0 30.85 91.0 28.75 77.25 26.85 74.3 32.55 73.05 34.05 55.55 34.5 50.05 34.5 32.4 L34.35 18.95 32.25 2.05 Q30.25 -2.65 23.8 -5.75 M385.2 -1.85 Q389.85 -0.75 391.35 1.4 392.55 3.1 392.55 7.25 L389.1 32.35 Q385.65 58.6 385.65 85.25 385.65 90.2 382.15 95.75 378.65 101.35 378.65 101.75 L379.6 108.6 380.55 116.75 Q380.55 121.75 376.9 134.0 372.3 149.55 366.9 149.55 356.3 149.55 354.8 140.0 354.3 136.9 354.75 132.45 L355.3 127.0 355.15 126.55 Q353.95 127.0 351.4 129.05 349.55 130.55 346.9 130.55 337.1 130.55 334.95 121.3 334.25 118.35 334.35 114.65 L334.65 111.0 Q334.65 104.05 335.4 97.35 L336.15 89.8 335.1 83.7 Q334.05 77.85 334.05 76.5 334.05 67.15 342.8 49.55 L349.9 35.9 Q354.0 28.2 355.55 24.55 335.8 27.2 327.5 21.05 322.9 17.6 322.9 13.15 322.9 8.9 328.4 2.15 334.95 -5.9 342.4 -5.0 378.6 -3.4 385.2 -1.85 M386.35 12.0 L388.3 7.6 Q388.3 3.7 382.3 2.6 373.0 1.65 366.4 0.25 L353.15 0.05 Q343.8 -1.4 336.85 2.35 330.55 5.8 330.55 10.5 330.55 14.85 335.15 17.45 342.55 21.55 359.9 19.3 L349.6 44.35 Q345.0 55.2 343.4 60.25 339.55 72.15 339.55 94.75 339.55 97.55 340.05 99.05 L340.05 119.75 341.9 123.3 Q344.45 126.8 348.15 126.8 352.05 126.8 355.15 122.95 357.0 120.7 357.65 118.8 L357.8 119.05 Q357.8 129.7 358.85 135.2 360.95 146.05 367.15 146.05 371.6 146.05 373.55 133.25 374.65 126.05 374.65 119.1 374.3 105.8 374.8 99.5 377.7 97.15 379.55 88.7 380.9 82.5 380.9 79.0 380.4 73.25 380.4 70.55 L379.9 65.5 379.4 61.75 Q379.4 56.55 380.75 48.5 L383.05 35.0 Q383.5 31.85 384.05 21.5 384.35 17.0 386.35 12.0 M362.65 75.15 L362.3 82.8 356.65 82.8 356.65 82.75 Q361.7 73.0 362.8 67.8 L362.65 75.15 M13.75 29.8 L13.75 29.75 Q14.55 32.45 13.25 38.0 L11.25 46.75 7.6 47.0 Q8.05 44.9 10.9 38.5 13.55 32.7 13.75 29.8" fill="#5cfff6" fill-opacity="0.09803922" fill-rule="evenodd" stroke="none"/>
    </g>
  </defs>
</svg>
