<?xml version="1.0" encoding="UTF-8" standalone="no"?>
<svg xmlns:ffdec="https://www.free-decompiler.com/flash" xmlns:xlink="http://www.w3.org/1999/xlink" ffdec:objectType="frame" height="161.0px" width="132.3px" xmlns="http://www.w3.org/2000/svg">
  <g transform="matrix(1.0, 0.0, 0.0, 1.0, 53.55, 53.9)">
    <use ffdec:characterId="99" height="23.0" transform="matrix(7.0, 0.0, 0.0, 7.0, -53.55, -53.9)" width="18.9" xlink:href="#shape0"/>
  </g>
  <defs>
    <g id="shape0" transform="matrix(1.0, 0.0, 0.0, 1.0, 7.65, 7.7)">
      <path d="M-6.45 -4.75 Q-6.2 -5.2 -5.7 -5.7 -4.8 -6.6 -3.45 -7.1 L-2.7 -7.35 Q0.05 -8.05 3.1 -7.4 6.05 -6.8 6.6 -5.55 8.0 -3.0 7.95 -1.4 L8.0 0.5 8.0 2.65 Q8.0 3.55 7.95 4.4 L7.9 4.55 7.3 7.25 7.3 7.4 7.15 8.05 7.1 8.25 6.85 9.6 6.3 10.45 6.15 10.65 5.45 10.5 5.4 10.5 4.85 10.3 Q4.15 10.1 3.7 9.85 L0.75 8.35 Q0.05 8.0 -0.5 7.7 L-2.7 6.05 -3.0 5.6 -3.25 4.8 -3.65 3.35 Q-4.25 1.35 -4.7 0.45 L-4.9 0.1 -5.5 -1.1 Q-6.45 -3.05 -6.45 -4.75 M-1.4 -1.45 L-1.4 -1.45 M-0.35 -1.7 L-0.25 -1.65 Q-0.2 -1.65 -0.15 -1.7 L-0.35 -1.75 -0.35 -1.7 M-5.7 2.0 L-5.75 1.85 -5.75 1.75 -5.65 1.8 -5.7 2.0 M-6.35 8.35 Q-5.6 8.7 -4.4 9.35 L-4.45 9.25 -4.15 10.5 -4.0 11.15 -3.85 11.75 Q-3.45 13.4 -3.45 13.6 -3.45 13.8 -3.35 14.0 L-3.15 14.4 -3.5 14.45 Q-4.0 14.45 -4.8 13.65 L-6.2 12.1 -6.6 11.7 -6.6 11.55 Q-6.4 9.45 -6.35 8.35 M-3.95 9.6 Q-3.65 9.75 -2.8 10.6 L-2.6 10.75 -2.35 11.25 -2.0 11.85 -2.0 11.95 Q-1.9 12.2 -1.8 12.5 L-1.6 13.45 -1.6 13.5 -1.9 13.75 -2.3 14.05 Q-2.35 13.8 -2.45 13.75 L-3.15 11.8 -3.6 10.55 -3.95 9.6 M6.55 5.2 L6.55 5.2" fill="#c7a36d" fill-rule="evenodd" stroke="none"/>
      <path d="M-7.0 -3.1 Q-7.0 -3.35 -6.9 -3.6 L-6.7 -4.25 -6.45 -4.75 Q-6.45 -3.05 -5.5 -1.1 L-4.9 0.1 -4.7 0.45 Q-4.25 1.35 -3.65 3.35 L-3.25 4.8 -3.0 5.6 -2.7 6.05 -0.5 7.7 Q0.05 8.0 0.75 8.35 L3.7 9.85 Q4.15 10.1 4.85 10.3 L5.4 10.5 5.45 10.5 6.15 10.65 6.1 10.75 6.05 10.8 5.4 10.75 4.85 10.7 Q3.35 10.45 1.75 9.9 0.1 9.4 -2.05 8.15 -3.5 7.3 -4.5 6.55 L-4.65 6.3 Q-5.3 5.1 -5.3 4.1 -5.3 3.9 -5.45 3.35 L-5.55 2.95 -5.55 2.8 Q-5.55 2.5 -5.7 2.0 L-5.65 1.8 -5.75 1.75 -5.75 1.55 -5.85 1.45 -5.9 1.3 -5.95 1.3 Q-6.15 0.65 -6.4 0.35 -7.0 -1.25 -7.0 -2.3 L-6.9 -2.8 Q-6.8 -3.2 -6.8 -3.3 L-6.85 -3.45 -6.9 -3.45 -6.95 -3.15 -7.0 -3.1 M-0.35 -1.7 L-0.35 -1.75 -0.15 -1.7 Q-0.2 -1.65 -0.25 -1.65 L-0.35 -1.7 M-6.35 8.35 L-6.35 7.6 Q-6.35 7.25 -6.45 6.1 L-6.45 5.75 Q-6.35 4.75 -6.35 4.15 L-6.4 3.35 -6.4 3.35 Q-6.15 4.15 -6.15 4.6 L-5.95 6.35 Q-5.7 7.3 -4.9 7.4 L-4.2 7.75 -4.15 7.8 -4.05 7.85 Q-3.25 8.45 -2.4 8.95 L-1.2 9.85 -1.05 9.9 Q-0.8 10.0 -0.65 10.15 L-0.55 10.15 Q-0.1 10.45 -0.1 10.7 L-0.7 12.3 -0.75 12.7 -0.85 13.05 -0.95 13.05 -1.6 13.5 -1.6 13.45 -1.8 12.5 Q-1.9 12.2 -2.0 11.95 L-2.0 11.85 -2.35 11.25 -2.6 10.75 -2.8 10.6 Q-3.65 9.75 -3.95 9.6 L-4.0 9.35 -4.45 7.95 -4.5 7.9 -4.55 7.9 -4.55 8.5 -4.45 9.25 -4.4 9.35 Q-5.6 8.7 -6.35 8.35" fill="#a9854f" fill-rule="evenodd" stroke="none"/>
      <path d="M7.95 4.4 Q8.2 3.25 8.4 2.65 L8.45 2.65 8.55 3.05 8.6 3.4 8.45 7.0 8.05 8.85 7.5 10.2 Q7.2 10.9 6.8 11.6 L6.3 11.6 6.0 11.65 Q5.9 11.65 5.85 11.55 L5.4 11.55 4.85 11.5 3.85 11.35 3.65 11.35 3.2 11.4 2.5 11.3 1.85 11.15 Q1.25 11.0 0.65 10.75 0.25 12.9 -0.15 13.95 L-0.2 13.95 Q-0.45 13.95 -1.45 14.55 L-2.55 15.2 Q-4.5 15.55 -6.1 13.8 -6.6 13.15 -7.0 12.45 -7.3 11.8 -7.3 11.6 -7.3 11.3 -7.45 10.9 L-7.4 10.15 -7.45 10.15 Q-7.4 9.65 -7.35 7.75 -7.25 5.95 -7.25 5.6 L-7.4 3.35 -7.5 1.7 Q-7.6 1.15 -7.65 0.55 -7.65 -0.4 -7.5 -1.0 L-7.1 -2.95 -7.05 -2.95 -7.05 -2.9 -7.0 -3.1 -6.95 -3.15 -6.9 -3.45 -6.85 -3.45 -6.8 -3.3 Q-6.8 -3.2 -6.9 -2.8 L-7.0 -2.3 Q-7.0 -1.25 -6.4 0.35 -6.15 0.65 -5.95 1.3 L-5.9 1.3 -5.85 1.45 -5.75 1.55 -5.75 1.75 -5.75 1.85 -5.7 2.0 Q-5.55 2.5 -5.55 2.8 L-5.55 2.95 -5.45 3.35 Q-5.3 3.9 -5.3 4.1 -5.3 5.1 -4.65 6.3 L-4.5 6.55 Q-3.5 7.3 -2.05 8.15 0.1 9.4 1.75 9.9 3.35 10.45 4.85 10.7 L5.4 10.75 6.05 10.8 6.1 10.75 6.15 10.65 6.3 10.45 6.85 9.6 7.1 8.25 7.15 8.05 7.3 7.4 7.3 7.25 7.9 4.55 7.95 4.4 M-1.4 -1.45 L-1.4 -1.45 M-1.6 13.5 L-0.95 13.05 -0.85 13.05 -0.75 12.7 -0.7 12.3 -0.1 10.7 Q-0.1 10.45 -0.55 10.15 L-0.65 10.15 Q-0.8 10.0 -1.05 9.9 L-1.2 9.85 -2.4 8.95 Q-3.25 8.45 -4.05 7.85 L-4.15 7.8 -4.2 7.75 -4.9 7.4 Q-5.7 7.3 -5.95 6.35 L-6.15 4.6 Q-6.15 4.15 -6.4 3.35 L-6.4 3.35 -6.35 4.15 Q-6.35 4.75 -6.45 5.75 L-6.45 6.1 Q-6.35 7.25 -6.35 7.6 L-6.35 8.35 Q-6.4 9.45 -6.6 11.55 L-6.6 11.7 -6.2 12.1 -4.8 13.65 Q-4.0 14.45 -3.5 14.45 L-3.15 14.4 -3.35 14.0 Q-3.45 13.8 -3.45 13.6 -3.45 13.4 -3.85 11.75 L-4.0 11.15 -4.15 10.5 -4.45 9.25 -4.55 8.5 -4.55 7.9 -4.5 7.9 -4.45 7.95 -4.0 9.35 -3.95 9.6 -3.6 10.55 -3.15 11.8 -2.45 13.75 Q-2.35 13.8 -2.3 14.05 L-1.9 13.75 -1.6 13.5" fill="#111111" fill-rule="evenodd" stroke="none"/>
      <path d="M5.9 5.6 L5.7 5.65 Q5.45 5.65 5.35 5.35 L5.25 5.0 Q5.25 4.9 5.35 4.85 L5.45 4.75 5.45 4.95 Q5.45 5.0 5.65 5.2 5.9 5.45 5.95 5.55 L5.9 5.6 M7.15 6.8 L7.0 7.0 Q7.0 6.65 5.95 6.5 L5.75 6.5 4.05 6.4 2.05 6.45 0.75 6.65 0.9 6.5 Q2.5 5.9 4.05 5.75 4.4 5.75 4.65 5.85 L5.6 6.1 6.4 5.85 Q7.15 6.1 7.15 6.8 M4.95 7.85 L4.45 7.85 3.75 7.8 3.55 7.65 Q3.8 7.55 4.5 7.45 5.3 7.35 5.55 7.55 L5.55 7.7 Q5.35 7.85 4.95 7.85" fill="#111111" fill-rule="evenodd" stroke="none"/>
      <path d="M4.95 7.85 Q5.35 7.85 5.55 7.7 L5.55 7.55 Q5.3 7.35 4.5 7.45 3.8 7.55 3.55 7.65 L3.75 7.8 4.45 7.85 4.95 7.85 M2.35 7.75 Q3.1 7.35 4.45 7.2 6.1 6.95 6.1 7.7 6.1 8.4 5.3 8.4 4.0 8.4 2.35 7.75" fill="#a9854f" fill-rule="evenodd" stroke="none"/>
      <path d="M7.4 5.45 L7.4 5.55 7.35 5.95 7.25 6.4 7.3 6.65 Q7.55 7.0 7.8 7.55 L8.05 8.1 Q8.6 8.9 9.05 8.9 9.15 8.9 9.2 9.0 L9.2 9.05 Q9.2 9.0 9.35 8.9 L9.55 8.7 Q9.7 8.75 9.75 8.85 L9.85 9.05 Q9.8 8.8 9.9 8.35 L9.95 7.9 9.95 7.8 Q10.0 7.65 10.15 7.55 L10.0 7.35 9.95 7.3 Q9.45 6.45 9.05 6.05 8.25 5.2 7.25 5.05 L7.25 5.1 7.05 4.85 Q7.15 4.7 7.3 4.65 7.85 4.4 8.85 5.15 9.7 5.8 10.5 6.9 L10.55 7.0 10.7 7.25 11.25 8.3 11.25 8.35 Q10.8 8.0 10.55 8.15 10.7 8.3 11.05 8.75 L10.9 8.75 Q10.45 8.75 10.3 9.2 10.2 9.45 10.25 9.7 9.65 9.05 9.65 9.45 L9.85 9.75 9.75 9.85 Q9.6 9.9 9.5 9.9 9.4 9.9 9.25 9.75 9.1 9.55 8.85 9.5 L8.85 9.7 Q8.8 9.9 8.65 9.9 8.55 9.9 8.35 9.7 8.1 9.55 7.55 8.35 L7.5 8.3 7.0 7.25 6.75 6.6 6.75 6.35 6.65 6.15 6.7 6.0 6.75 6.0 Q6.75 5.55 6.85 5.25 7.1 5.55 7.2 5.55 7.3 5.55 7.35 5.5 L7.4 5.45 M2.75 5.0 L2.8 5.4 Q2.8 5.65 2.5 5.85 L2.25 6.0 Q0.25 9.3 0.0 9.3 -0.1 9.3 -0.15 9.25 L-0.2 9.15 -0.45 9.5 Q-0.6 9.7 -0.7 9.7 L-0.95 9.65 Q-1.05 9.6 -1.2 9.6 -1.35 9.6 -1.45 9.55 L-1.55 9.4 Q-1.6 9.45 -1.75 9.5 L-1.8 9.5 -1.9 9.55 -2.0 9.85 -2.15 9.9 Q-2.35 9.9 -2.4 9.65 L-2.4 9.4 Q-2.4 9.15 -2.3 8.85 L-2.45 8.9 Q-2.65 8.9 -2.7 8.7 L-2.7 8.55 Q-2.9 8.5 -3.0 8.35 -3.1 8.2 -3.1 8.05 L-3.05 7.7 Q-2.95 7.35 -2.9 7.2 -3.25 7.05 -3.25 6.9 L-3.15 6.8 -2.85 6.2 Q-2.65 5.8 -2.25 5.6 -2.0 5.45 -1.1 5.1 L-0.05 4.65 0.5 4.55 Q1.2 4.35 1.5 4.35 1.8 4.35 2.15 4.45 L2.5 4.55 2.65 4.65 Q2.25 4.9 2.25 5.0 2.25 5.1 2.35 5.1 L2.45 5.05 2.75 5.0 M1.9 5.45 Q1.6 5.3 1.7 4.95 L0.1 5.1 -0.1 5.15 -0.75 5.4 Q-0.9 5.45 -1.85 6.1 L-2.35 6.45 Q-1.8 6.25 -1.6 6.25 L-1.55 6.3 Q-1.55 6.45 -1.75 6.5 L-2.2 6.7 Q-2.15 6.9 -2.2 7.05 L-2.3 7.2 Q-2.3 7.25 -2.2 7.35 -2.15 7.4 -2.15 7.5 -2.15 7.65 -2.2 7.75 -2.0 7.55 -1.8 7.65 L-1.8 7.6 Q-1.75 7.6 -1.75 7.75 -1.75 7.85 -2.05 8.25 -2.35 8.6 -2.3 8.8 L-2.25 8.65 Q-2.05 8.15 -1.8 8.15 L-1.75 8.15 -1.75 8.3 Q-1.6 8.25 -1.45 8.25 L-1.45 8.2 Q-1.4 8.25 -1.4 8.35 -1.4 8.45 -1.6 8.75 -1.4 8.45 -1.15 8.25 L-0.95 8.35 Q-0.9 8.65 -0.95 8.9 L-0.95 8.95 -0.8 8.7 -0.65 8.4 -0.55 8.35 Q-0.35 8.45 -0.3 8.65 L-0.3 9.1 Q-0.1 8.35 0.8 7.05 L2.0 5.5 1.9 5.45" fill="#111111" fill-rule="evenodd" stroke="none"/>
      <path d="M7.25 5.1 L7.25 5.05 Q8.25 5.2 9.05 6.05 9.45 6.45 9.95 7.3 L10.0 7.35 10.15 7.55 Q10.0 7.65 9.95 7.8 L9.95 7.9 9.9 8.35 Q9.8 8.8 9.85 9.05 L9.75 8.85 Q9.7 8.75 9.55 8.7 L9.35 8.9 Q9.2 9.0 9.2 9.05 L9.2 9.0 Q9.15 8.9 9.05 8.9 8.6 8.9 8.05 8.1 L7.8 7.55 Q7.55 7.0 7.3 6.65 L7.25 6.4 7.35 5.95 7.4 5.55 7.4 5.45 7.4 5.3 7.25 5.1 M1.9 5.45 L2.0 5.5 0.8 7.05 Q-0.1 8.35 -0.3 9.1 L-0.3 8.65 Q-0.35 8.45 -0.55 8.35 L-0.65 8.4 -0.8 8.7 -0.95 8.95 -0.95 8.9 Q-0.9 8.65 -0.95 8.35 L-1.15 8.25 Q-1.4 8.45 -1.6 8.75 -1.4 8.45 -1.4 8.35 -1.4 8.25 -1.45 8.2 L-1.45 8.25 Q-1.6 8.25 -1.75 8.3 L-1.75 8.15 -1.8 8.15 Q-2.05 8.15 -2.25 8.65 L-2.3 8.8 Q-2.35 8.6 -2.05 8.25 -1.75 7.85 -1.75 7.75 -1.75 7.6 -1.8 7.6 L-1.8 7.65 Q-2.0 7.55 -2.2 7.75 -2.15 7.65 -2.15 7.5 -2.15 7.4 -2.2 7.35 -2.3 7.25 -2.3 7.2 L-2.2 7.05 Q-2.15 6.9 -2.2 6.7 L-1.75 6.5 Q-1.55 6.45 -1.55 6.3 L-1.6 6.25 Q-1.8 6.25 -2.35 6.45 L-1.85 6.1 Q-0.9 5.45 -0.75 5.4 L-0.1 5.15 0.1 5.1 1.7 4.95 Q1.6 5.3 1.9 5.45" fill="#003366" fill-rule="evenodd" stroke="none"/>
    </g>
  </defs>
</svg>
