<?xml version="1.0" encoding="UTF-8" standalone="no"?>
<svg xmlns:ffdec="https://www.free-decompiler.com/flash" xmlns:xlink="http://www.w3.org/1999/xlink" ffdec:objectType="frame" height="765.0px" width="2205.0px" xmlns="http://www.w3.org/2000/svg">
  <g transform="matrix(1.0, 0.0, 0.0, 1.0, 262.5, 102.5)">
    <use ffdec:characterId="2230" height="745.0" transform="matrix(1.0, 0.0, 0.0, 1.0, -262.5, -82.5)" width="2205.0" xlink:href="#shape0"/>
    <use ffdec:characterId="2232" height="445.0" id="am_DoorLocal_KK" transform="matrix(1.0, 0.0, 0.0, 1.0, 1897.5, -102.5)" width="5.0" xlink:href="#sprite0"/>
  </g>
  <defs>
    <g id="shape0" transform="matrix(1.0, 0.0, 0.0, 1.0, 262.5, 82.5)">
      <path d="M-260.0 660.0 L1940.0 560.0" fill="none" stroke="#666666" stroke-linecap="round" stroke-linejoin="round" stroke-width="5.0"/>
      <path d="M1940.0 560.0 L1940.0 -80.0" fill="none" stroke="#ffff00" stroke-linecap="round" stroke-linejoin="round" stroke-width="5.0"/>
      <path d="M1900.0 340.0 L1540.0 480.0 220.0 560.0 -260.0 580.0" fill="none" stroke="#00ffff" stroke-linecap="round" stroke-linejoin="round" stroke-width="5.0"/>
    </g>
    <g id="sprite0" transform="matrix(1.0, 0.0, 0.0, 1.0, 2.5, 2.5)">
      <use ffdec:characterId="2231" height="445.0" transform="matrix(1.0, 0.0, 0.0, 1.0, -2.5, -2.5)" width="5.0" xlink:href="#shape1"/>
    </g>
    <g id="shape1" transform="matrix(1.0, 0.0, 0.0, 1.0, 2.5, 2.5)">
      <path d="M0.0 0.0 L0.0 440.0" fill="none" stroke="#00ffff" stroke-linecap="round" stroke-linejoin="round" stroke-width="5.0"/>
    </g>
  </defs>
</svg>
