<?xml version="1.0" encoding="UTF-8" standalone="no"?>
<svg xmlns:ffdec="https://www.free-decompiler.com/flash" xmlns:xlink="http://www.w3.org/1999/xlink" ffdec:objectType="frame" height="200.55px" width="171.85px" xmlns="http://www.w3.org/2000/svg">
  <g transform="matrix(1.0, 0.0, 0.0, 1.0, 47.25, 239.05)">
    <use ffdec:characterId="1162" height="13.2" transform="matrix(7.0, 0.0, 0.0, 7.0, -29.05, -134.4)" width="21.95" xlink:href="#shape0"/>
  </g>
  <defs>
    <g id="shape0" transform="matrix(1.0, 0.0, 0.0, 1.0, 4.15, 19.2)">
      <path d="M17.3 -15.1 L17.7 -15.1 Q17.8 -15.05 17.8 -14.75 17.8 -14.65 17.65 -14.3 L17.5 -14.0 Q17.45 -13.95 17.45 -13.75 17.45 -13.45 17.4 -13.35 L17.4 -13.3 Q17.4 -13.2 16.85 -12.9 16.4 -12.7 16.05 -12.6 15.85 -12.55 15.75 -12.45 15.7 -12.2 15.55 -12.15 15.5 -12.1 15.45 -12.1 L14.5 -11.75 Q13.9 -11.5 13.7 -11.4 13.3 -11.2 12.95 -11.05 L12.7 -10.85 Q12.65 -10.8 12.15 -10.75 L11.8 -10.7 11.35 -10.7 Q11.25 -10.7 11.2 -10.75 11.15 -10.8 11.15 -10.9 L11.05 -11.15 11.0 -11.3 8.6 -11.35 8.45 -11.35 8.1 -11.4 7.95 -11.4 Q7.75 -11.45 7.75 -11.8 7.75 -12.1 8.15 -12.55 L8.15 -12.6 Q8.45 -12.9 8.8 -13.15 8.85 -13.2 8.95 -13.2 9.65 -13.1 9.95 -13.25 10.1 -13.35 10.2 -13.5 L10.25 -13.55 Q10.4 -13.7 10.8 -13.8 L11.45 -13.95 11.5 -13.95 11.6 -14.05 Q11.85 -14.2 12.5 -14.0 12.85 -14.1 13.8 -14.6 L13.95 -14.65 14.15 -14.6 14.25 -14.55 14.35 -14.45 Q14.4 -14.3 14.4 -14.1 14.8 -14.2 15.35 -14.45 16.1 -14.85 17.15 -15.05 L17.2 -15.1 17.3 -15.1 M0.6 -16.25 L0.8 -16.35 0.9 -16.35 Q1.0 -16.4 1.55 -15.95 L2.0 -15.7 Q2.75 -15.3 3.0 -15.1 L3.1 -15.05 3.2 -14.85 3.2 -14.8 3.15 -14.75 3.1 -14.6 3.15 -14.55 3.35 -14.4 Q3.75 -14.1 3.75 -13.85 3.75 -13.5 3.55 -13.45 L3.45 -13.45 2.35 -13.35 1.75 -13.3 Q1.4 -13.15 1.25 -13.15 1.0 -13.15 0.6 -13.3 L-0.65 -13.35 -0.75 -13.4 -0.75 -13.5 -0.8 -13.55 -0.85 -13.55 Q-1.2 -13.75 -1.2 -13.8 L-1.25 -13.8 Q-2.2 -14.25 -2.35 -14.35 L-2.85 -14.9 -2.85 -14.85 -3.1 -15.15 Q-3.55 -15.4 -3.9 -15.45 -4.0 -15.5 -4.05 -15.55 -4.15 -15.65 -4.15 -15.95 L-4.1 -16.05 -4.0 -16.15 Q-3.9 -16.25 -3.7 -16.25 -3.65 -16.3 -3.55 -16.2 L-3.5 -16.1 -2.7 -16.05 -1.95 -16.05 -1.85 -16.1 -1.55 -16.05 Q-1.45 -16.05 -1.4 -16.0 -1.2 -15.8 -0.7 -15.5 -0.05 -15.15 0.3 -15.15 L0.45 -15.15 0.25 -15.3 Q-0.15 -15.7 -0.3 -16.05 L-0.3 -16.2 Q-0.3 -16.25 -0.25 -16.3 -0.2 -16.35 -0.1 -16.35 L0.2 -16.3 0.6 -16.25 M5.75 -16.25 Q5.85 -16.85 6.35 -17.05 L6.65 -17.05 Q6.7 -17.05 6.8 -17.0 6.85 -16.95 6.85 -16.85 L6.85 -16.6 7.15 -16.9 Q7.45 -17.25 7.55 -17.45 7.65 -17.9 7.85 -18.2 8.05 -18.5 8.3 -18.55 8.55 -18.6 8.8 -18.45 9.5 -18.5 9.9 -18.85 10.35 -19.15 10.95 -19.2 L11.1 -19.2 Q11.3 -19.25 11.3 -18.85 11.3 -18.6 10.95 -18.2 10.7 -17.85 10.65 -17.75 10.55 -17.6 10.2 -17.15 L9.95 -16.85 10.25 -16.8 10.35 -16.75 10.45 -16.65 10.5 -16.65 10.5 -16.6 Q10.6 -16.55 10.6 -16.3 10.6 -16.15 10.35 -15.85 L10.2 -15.65 10.1 -15.3 9.95 -15.0 Q9.4 -13.8 8.45 -13.8 7.35 -13.8 7.05 -14.0 6.55 -14.25 5.95 -14.35 5.9 -14.4 5.85 -14.45 L5.8 -14.55 Q5.7 -14.8 5.7 -15.45 5.7 -16.05 5.75 -16.25 M8.6 -10.65 L9.05 -10.55 Q9.8 -10.5 9.95 -10.45 L10.65 -10.35 11.8 -10.2 11.9 -10.15 11.95 -10.05 Q12.05 -9.7 12.45 -9.2 12.75 -8.8 13.05 -8.45 13.7 -7.7 13.85 -7.45 13.95 -7.25 13.95 -6.75 13.95 -6.25 13.85 -6.1 L13.75 -6.05 13.6 -6.0 Q13.55 -6.05 13.5 -6.05 13.05 -6.45 12.25 -7.05 11.35 -7.65 10.55 -8.1 L10.4 -8.1 10.3 -8.0 10.3 -7.95 Q10.3 -7.55 10.1 -7.6 L9.55 -7.6 9.5 -7.65 Q8.25 -7.95 7.85 -8.35 7.55 -8.7 7.55 -9.3 L7.55 -9.45 Q7.55 -9.5 7.6 -9.6 L7.7 -9.65 7.75 -9.7 7.95 -9.75 8.05 -10.05 Q8.15 -10.5 8.5 -10.6 L8.6 -10.65 M4.35 -11.35 Q4.85 -11.35 4.85 -10.9 4.85 -10.6 4.6 -10.25 L4.75 -10.25 Q5.05 -10.2 5.05 -9.8 5.05 -9.45 4.6 -8.85 4.55 -8.6 4.4 -8.45 4.2 -8.1 3.7 -8.1 L3.2 -7.55 2.9 -7.25 2.95 -7.25 2.85 -7.15 Q2.6 -6.95 2.5 -6.95 L2.35 -6.95 Q2.2 -7.0 2.15 -7.15 L2.15 -7.4 Q2.15 -7.6 2.3 -8.15 L1.8 -8.05 Q1.3 -7.8 0.65 -7.55 L0.45 -7.6 Q0.3 -7.7 0.25 -7.85 0.2 -7.9 0.2 -8.05 L0.25 -8.25 -1.2 -7.8 -1.65 -7.65 Q-2.1 -7.3 -2.55 -7.3 L-2.85 -7.3 Q-3.05 -7.45 -3.05 -7.65 -3.05 -7.9 -2.75 -8.05 -2.6 -8.25 -2.3 -8.35 L-2.1 -8.4 Q-1.95 -8.5 -1.85 -8.65 L-1.85 -8.7 -1.8 -8.75 -1.55 -9.1 Q-1.55 -9.55 -1.05 -9.95 -0.55 -10.3 0.15 -10.5 0.8 -10.7 1.3 -10.7 L1.55 -10.65 1.6 -10.7 1.65 -10.7 Q2.0 -11.0 2.85 -11.15 L3.75 -11.25 4.35 -11.35 M0.4 -11.55 L0.45 -11.45 0.45 -11.2 0.35 -11.1 Q0.1 -10.9 0.05 -10.9 L0.0 -10.9 -0.7 -10.8 -1.15 -10.75 -1.9 -10.75 Q-2.0 -10.75 -2.05 -10.8 L-2.2 -10.95 Q-2.25 -11.0 -2.25 -11.1 L-2.25 -11.2 Q-2.2 -11.3 -2.1 -11.3 L-1.85 -11.4 -1.7 -11.5 -1.6 -11.55 -1.6 -11.6 -1.55 -11.7 -1.45 -11.8 Q-1.15 -12.0 0.3 -11.6 L0.4 -11.55 M1.8 -9.85 L1.7 -9.9 1.55 -9.85 Q0.15 -9.7 -0.25 -9.45 -0.45 -9.15 -0.65 -9.0 L-0.75 -8.85 -0.05 -9.1 Q0.65 -9.2 1.2 -8.7 L1.7 -8.8 2.1 -9.05 Q2.6 -9.3 2.75 -9.1 L2.8 -9.15 2.8 -9.25 Q2.8 -9.5 3.1 -9.75 3.55 -10.15 3.7 -10.35 L3.8 -10.45 Q3.1 -10.3 2.35 -10.05 L2.0 -9.95 Q1.9 -9.9 1.8 -9.85 M4.0 -9.3 L3.7 -9.3 3.15 -8.95 3.2 -8.75 3.75 -8.9 3.85 -9.05 3.95 -9.25 4.0 -9.3 M3.15 -7.5 L3.15 -7.5 M-3.55 -15.9 L-3.5 -15.8 -3.4 -15.85 Q-3.4 -15.95 -3.5 -16.1 L-3.5 -16.05 Q-3.5 -16.0 -3.55 -15.9" fill="#cdffb4" fill-opacity="0.5019608" fill-rule="evenodd" stroke="none"/>
      <path d="M17.3 -14.85 L17.3 -14.9 17.55 -14.9 17.6 -14.75 Q17.6 -14.65 17.45 -14.4 L17.3 -14.1 17.2 -13.4 Q17.2 -13.3 16.75 -13.1 16.3 -12.9 15.95 -12.8 15.7 -12.7 15.5 -12.6 L15.5 -12.5 Q15.5 -12.4 15.45 -12.35 L15.4 -12.3 14.4 -11.95 13.6 -11.6 Q13.2 -11.4 12.85 -11.25 L12.6 -11.05 12.15 -10.95 11.7 -10.9 11.35 -10.95 11.25 -11.25 Q11.2 -11.4 11.1 -11.5 L8.6 -11.55 8.05 -11.65 8.0 -11.6 Q8.0 -11.65 8.0 -11.8 8.0 -12.05 8.35 -12.45 8.6 -12.75 8.9 -12.95 9.7 -12.85 10.05 -13.05 10.25 -13.15 10.4 -13.4 10.55 -13.5 10.85 -13.55 L11.5 -13.7 11.55 -13.7 11.7 -13.85 Q11.95 -13.95 12.5 -13.75 12.8 -13.85 13.9 -14.45 L14.15 -14.4 Q14.2 -14.2 14.15 -13.85 L14.2 -13.85 Q14.75 -13.9 15.45 -14.25 16.2 -14.65 17.3 -14.85 M0.7 -16.05 L0.9 -16.15 Q0.95 -16.15 1.4 -15.75 L1.9 -15.5 Q2.65 -15.1 2.85 -14.9 L2.95 -14.85 2.95 -14.8 Q2.95 -14.7 2.85 -14.65 L2.65 -14.7 2.7 -14.65 2.9 -14.5 2.95 -14.4 3.2 -14.2 Q3.5 -14.0 3.5 -13.85 L3.5 -13.7 3.4 -13.7 2.3 -13.55 1.7 -13.5 Q1.4 -13.35 1.25 -13.35 1.0 -13.35 0.65 -13.5 L-0.55 -13.55 Q-0.5 -13.65 -0.75 -13.75 L-1.2 -14.0 Q-2.1 -14.4 -2.2 -14.5 L-2.7 -15.0 -3.0 -15.35 Q-3.45 -15.6 -3.9 -15.7 -3.95 -15.75 -3.95 -15.95 L-3.85 -16.0 Q-3.8 -16.05 -3.7 -16.05 -3.8 -16.05 -3.75 -16.0 -3.65 -15.95 -3.65 -15.9 L-2.75 -15.8 -1.85 -15.9 -1.55 -15.85 Q-1.35 -15.65 -0.8 -15.3 -0.1 -14.9 0.3 -14.9 L0.95 -14.95 0.4 -15.45 Q0.0 -15.85 -0.1 -16.15 L0.1 -16.1 0.7 -16.05 M11.05 -19.0 Q11.1 -19.0 11.1 -18.85 11.1 -18.65 10.8 -18.35 10.5 -17.95 10.45 -17.85 10.35 -17.7 10.05 -17.3 9.75 -16.9 9.75 -16.85 9.75 -16.75 9.8 -16.7 L9.85 -16.65 10.2 -16.55 10.3 -16.5 Q10.35 -16.45 10.35 -16.3 10.35 -16.2 10.2 -16.0 10.0 -15.8 10.0 -15.7 L9.9 -15.4 9.75 -15.1 Q9.3 -14.05 8.45 -14.05 7.45 -14.05 7.15 -14.2 6.6 -14.45 6.0 -14.6 5.95 -14.85 5.95 -15.45 5.95 -16.05 5.95 -16.2 6.05 -16.7 6.4 -16.85 L6.6 -16.85 Q6.6 -16.35 6.55 -16.2 L6.55 -16.15 Q6.9 -16.35 7.3 -16.75 7.65 -17.15 7.75 -17.4 7.85 -17.8 8.0 -18.05 8.35 -18.55 8.75 -18.2 9.55 -18.3 10.05 -18.65 10.45 -19.0 11.0 -19.0 L11.05 -19.0 M8.55 -10.4 L9.0 -10.35 9.8 -10.25 10.65 -10.15 11.75 -9.95 Q11.85 -9.65 12.25 -9.05 L12.9 -8.3 Q13.5 -7.6 13.65 -7.35 13.75 -7.15 13.75 -6.75 13.75 -6.35 13.65 -6.25 13.2 -6.65 12.35 -7.2 11.45 -7.85 10.6 -8.3 L10.25 -8.3 10.1 -8.05 10.1 -7.8 10.05 -7.85 9.55 -7.85 Q8.4 -8.15 8.0 -8.5 7.75 -8.8 7.75 -9.3 L7.75 -9.45 7.8 -9.5 8.1 -9.55 Q8.15 -9.65 8.25 -10.0 8.3 -10.35 8.55 -10.4 M3.65 -11.05 L4.4 -11.05 4.5 -11.0 Q4.55 -10.95 4.55 -10.85 4.55 -10.7 4.3 -10.3 3.95 -9.9 3.95 -9.75 L3.95 -9.7 Q4.1 -9.75 4.35 -9.9 L4.75 -9.85 4.8 -9.8 4.8 -9.65 Q4.8 -9.55 4.45 -8.95 4.05 -8.4 3.95 -8.3 L3.8 -8.3 Q3.65 -8.3 3.65 -8.35 L3.6 -8.35 Q3.5 -8.15 3.2 -7.85 L2.95 -7.6 2.85 -7.4 2.8 -7.4 2.65 -7.2 2.4 -7.2 2.4 -7.35 Q2.4 -7.45 2.45 -7.6 L2.45 -7.65 Q2.4 -7.7 2.4 -7.95 2.4 -8.15 2.5 -8.3 2.45 -8.4 2.3 -8.4 L2.15 -8.45 Q2.05 -8.5 1.9 -8.5 L1.45 -8.25 Q0.95 -8.0 0.6 -7.95 L0.55 -7.95 0.55 -8.1 Q0.55 -8.2 0.65 -8.35 L0.65 -8.4 Q0.65 -8.5 0.65 -8.6 -0.05 -8.45 -1.1 -8.05 -2.2 -7.65 -2.5 -7.55 L-2.7 -7.6 -2.75 -7.55 Q-2.75 -7.6 -2.75 -7.7 L-1.95 -8.35 -1.7 -8.55 -1.55 -8.8 -1.1 -9.45 Q-0.4 -10.25 0.55 -10.35 L0.45 -10.25 0.65 -10.25 Q1.5 -10.35 2.1 -10.7 2.6 -11.0 3.65 -11.0 L3.65 -11.05 M-1.5 -11.35 L-1.45 -11.4 -1.25 -11.5 -1.3 -11.55 -1.4 -11.6 Q-1.1 -11.75 0.2 -11.4 L0.25 -11.3 Q0.05 -11.15 0.0 -11.15 L-0.75 -11.05 -1.15 -10.95 -1.9 -10.95 -2.05 -11.1 -1.75 -11.25 Q-1.65 -11.3 -1.55 -11.35 L-1.55 -11.3 -1.5 -11.35 M3.4 -8.3 L3.3 -8.2 3.45 -8.3 3.4 -8.3 M-1.0 -14.15 L-1.0 -14.15 M-1.35 -14.4 L-1.35 -14.4 M-1.3 -11.15 L-1.15 -11.15 -0.85 -11.2 -1.3 -11.15 M-0.7 -9.4 L-0.7 -9.4 M-1.85 -8.05 L-1.8 -8.1 -1.8 -8.15 -1.85 -8.1 -1.85 -8.05" fill="#ffffff" fill-rule="evenodd" stroke="none"/>
      <path d="M-1.55 -11.35 L-1.5 -11.35 -1.55 -11.3 -1.55 -11.35 M-1.3 -11.15 L-0.85 -11.2 -1.15 -11.15 -1.3 -11.15" fill="#cdffb4" fill-rule="evenodd" stroke="none"/>
      <path d="M0.7 -14.4 L1.5 -14.6 Q1.6 -14.55 1.65 -14.5 1.65 -14.4 1.6 -14.35 L1.2 -14.3 1.05 -14.25 Q1.1 -14.1 2.2 -14.05 L2.3 -13.9 Q2.05 -13.7 1.65 -13.7 L1.25 -13.7 0.65 -13.75 0.05 -13.85 0.0 -13.9 -0.1 -14.05 -0.75 -14.1 -1.15 -14.4 Q-1.45 -14.6 -1.9 -14.65 L-2.05 -14.75 -2.0 -14.85 -1.95 -14.9 Q-1.2 -14.9 -0.8 -14.65 -0.35 -14.35 0.2 -14.25 L0.5 -14.35 0.5 -14.45 0.6 -14.4 0.7 -14.4 M8.45 -17.05 Q8.8 -17.05 9.0 -17.35 9.25 -17.6 9.45 -17.55 9.4 -17.2 9.0 -16.8 8.6 -16.35 8.6 -15.95 L8.5 -15.9 Q8.9 -15.9 9.3 -16.05 9.45 -16.0 9.5 -15.9 9.3 -15.75 9.15 -15.5 8.5 -15.7 8.1 -15.45 L7.8 -15.2 Q7.7 -15.6 7.7 -15.8 L7.9 -16.0 8.05 -16.3 Q8.05 -16.35 7.9 -16.55 7.75 -16.75 7.75 -16.8 7.75 -17.1 8.05 -17.1 L8.45 -17.05 M8.25 -16.5 Q8.2 -16.55 8.2 -16.5 L8.2 -16.25 8.25 -16.25 8.25 -16.5 M10.75 -12.75 L10.55 -12.75 10.45 -12.85 Q10.5 -12.9 11.0 -13.05 L11.4 -13.2 Q11.75 -13.35 12.0 -13.35 L12.05 -13.35 12.35 -13.3 12.3 -13.15 12.35 -13.15 12.4 -12.95 12.4 -12.9 12.95 -12.95 12.85 -12.85 Q13.4 -13.05 13.95 -13.45 14.6 -13.9 15.1 -13.85 15.05 -13.75 15.0 -13.65 L15.05 -13.65 15.15 -13.7 15.3 -13.7 15.4 -13.75 Q15.7 -13.9 15.85 -13.85 15.7 -13.7 14.95 -13.35 L13.8 -12.85 13.75 -12.8 Q13.65 -12.8 13.65 -12.9 L12.95 -12.65 Q11.15 -11.95 10.8 -11.95 10.05 -11.95 10.0 -12.05 L10.05 -12.1 11.45 -12.3 Q11.75 -12.4 11.95 -12.6 L11.95 -12.8 11.05 -12.75 10.75 -12.75 M8.3 -8.95 L8.5 -9.0 8.5 -9.05 Q8.5 -9.25 8.5 -9.15 L8.7 -9.05 8.75 -9.05 9.2 -9.15 9.85 -9.2 10.05 -9.35 Q9.95 -9.4 9.85 -9.55 9.75 -9.7 9.75 -9.85 L9.7 -9.85 9.75 -9.95 9.8 -9.95 10.45 -9.7 Q10.8 -9.5 10.95 -9.25 10.95 -9.15 10.7 -9.1 L10.55 -9.15 10.5 -9.0 9.45 -8.85 9.35 -8.75 9.1 -8.65 8.9 -8.7 8.5 -8.75 8.3 -8.95 M0.5 -14.0 L0.55 -14.1 0.2 -14.05 0.5 -14.0 M1.9 -9.15 L2.6 -9.55 2.9 -9.55 2.95 -9.5 Q3.2 -9.5 3.3 -9.65 L3.55 -9.85 Q3.75 -9.85 3.8 -9.75 L3.25 -9.15 Q2.9 -8.8 2.65 -8.6 L2.9 -8.95 3.1 -9.3 Q2.75 -9.25 2.55 -9.1 L2.15 -8.85 Q2.05 -8.85 1.95 -9.0 1.9 -9.1 1.9 -9.15 M12.15 -12.75 L12.15 -12.75" fill="#cdffb4" fill-rule="evenodd" stroke="none"/>
    </g>
  </defs>
</svg>
