<?xml version="1.0" encoding="UTF-8" standalone="no"?>
<svg xmlns:ffdec="https://www.free-decompiler.com/flash" xmlns:xlink="http://www.w3.org/1999/xlink" ffdec:objectType="frame" height="200.55px" width="171.85px" xmlns="http://www.w3.org/2000/svg">
  <g transform="matrix(1.0, 0.0, 0.0, 1.0, 47.25, 239.05)">
    <use ffdec:characterId="1169" height="3.5" transform="matrix(7.0, 0.0, 0.0, 7.0, -32.55, -238.0)" width="12.65" xlink:href="#shape0"/>
  </g>
  <defs>
    <g id="shape0" transform="matrix(1.0, 0.0, 0.0, 1.0, 4.65, 34.0)">
      <path d="M3.4 -34.0 Q3.8 -33.8 4.1 -33.55 4.55 -33.15 4.5 -32.9 4.5 -32.7 4.45 -32.6 L4.3 -32.45 3.6 -32.2 2.85 -32.0 Q2.8 -32.0 2.75 -32.05 2.7 -32.1 2.65 -32.15 L2.65 -32.4 2.6 -32.4 Q2.5 -32.5 2.35 -32.5 L2.2 -32.5 2.35 -32.35 2.4 -32.35 Q2.85 -32.05 2.8 -31.85 2.8 -31.65 2.7 -31.55 L2.65 -31.55 2.6 -31.5 Q2.55 -31.45 2.45 -31.45 L1.4 -31.45 1.0 -31.4 0.95 -31.4 0.85 -31.45 0.8 -31.45 Q0.55 -31.35 0.55 -31.75 0.55 -31.9 0.65 -32.1 L0.7 -32.2 Q0.7 -32.25 0.75 -32.35 0.85 -32.5 0.9 -32.5 L0.9 -32.55 1.1 -32.6 1.15 -32.6 Q1.2 -32.65 1.2 -32.75 L1.15 -33.1 1.1 -33.15 Q1.1 -33.55 1.75 -33.8 2.4 -34.1 3.35 -34.0 L3.4 -34.0 M5.0 -31.25 L5.0 -31.35 5.05 -31.45 Q5.15 -31.55 5.25 -31.85 L5.25 -31.8 Q5.3 -32.05 5.6 -32.05 5.7 -32.05 5.9 -31.95 L5.95 -31.95 5.95 -32.0 5.8 -32.25 Q5.8 -32.3 5.8 -32.4 5.8 -32.45 5.85 -32.5 5.9 -32.55 6.0 -32.55 L6.45 -32.5 6.95 -32.35 7.05 -32.3 7.25 -32.05 7.3 -32.05 7.5 -31.95 7.65 -32.0 Q7.75 -32.0 7.8 -32.0 7.85 -31.95 7.9 -31.9 L7.95 -31.8 7.95 -31.55 8.0 -31.4 8.0 -30.75 7.95 -30.65 7.8 -30.5 7.15 -30.5 6.65 -30.6 Q6.6 -30.6 6.55 -30.65 6.4 -30.8 6.35 -30.95 L6.3 -30.95 Q6.25 -30.95 6.2 -30.9 6.1 -30.55 5.85 -30.6 5.6 -30.6 5.45 -30.75 L5.05 -31.15 5.0 -31.25 M6.5 -32.3 L6.7 -32.2 6.85 -32.15 6.9 -32.15 6.8 -32.2 6.75 -32.2 6.5 -32.3 M6.75 -32.2 L6.75 -32.2 M-2.15 -33.0 L-2.05 -33.0 Q-1.85 -32.95 -1.65 -32.65 -1.6 -32.6 -1.45 -32.55 L-1.35 -32.55 -1.25 -32.45 -1.2 -32.25 -0.9 -32.3 -0.8 -32.25 -0.7 -32.15 -0.65 -32.05 Q-0.65 -32.0 -0.65 -31.9 -0.75 -31.65 -1.1 -31.3 L-1.7 -30.75 Q-1.75 -30.75 -1.8 -30.7 L-1.9 -30.7 -2.0 -30.75 Q-2.2 -30.8 -2.25 -30.85 L-2.3 -31.0 -2.25 -31.1 -2.1 -31.3 -2.25 -31.25 Q-2.4 -31.0 -2.8 -31.05 L-2.9 -31.05 Q-3.1 -31.05 -3.1 -31.4 -3.1 -32.0 -3.0 -32.15 -2.95 -32.3 -2.8 -32.45 L-2.6 -32.65 Q-2.25 -33.0 -2.15 -33.0 M-3.55 -30.95 L-3.75 -30.7 -3.8 -30.6 -3.95 -30.55 -4.05 -30.6 -4.3 -30.75 Q-4.55 -30.9 -4.6 -31.05 L-4.65 -31.2 -4.6 -31.3 Q-4.5 -31.45 -4.25 -31.6 -4.0 -31.75 -3.75 -31.7 L-3.7 -31.7 Q-3.5 -31.8 -3.45 -31.55 L-3.45 -31.35 Q-3.4 -31.2 -3.55 -30.95" fill="#cdffb4" fill-opacity="0.5019608" fill-rule="evenodd" stroke="none"/>
      <path d="M4.3 -32.9 Q4.3 -32.75 4.25 -32.7 L4.2 -32.65 3.5 -32.4 2.85 -32.2 2.85 -32.4 Q2.8 -32.55 2.75 -32.6 2.6 -32.7 2.35 -32.7 L1.95 -32.7 1.95 -32.55 Q1.95 -32.35 2.25 -32.15 2.55 -31.95 2.55 -31.85 L2.55 -31.7 2.45 -31.65 2.25 -31.65 2.0 -31.7 1.35 -31.65 1.0 -31.6 0.8 -31.65 0.8 -31.75 Q0.8 -31.85 0.85 -32.0 L0.95 -32.15 0.95 -32.25 1.0 -32.35 1.3 -32.45 Q1.45 -32.6 1.4 -32.8 L1.35 -33.15 Q1.35 -33.4 1.85 -33.6 2.45 -33.85 3.3 -33.8 3.7 -33.6 3.95 -33.35 4.3 -33.1 4.3 -32.9 M5.2 -31.3 Q5.35 -31.4 5.45 -31.75 L6.05 -31.75 6.1 -31.85 6.2 -32.0 6.15 -32.15 6.0 -32.35 6.4 -32.3 Q6.7 -32.25 6.85 -32.15 L7.15 -31.85 7.2 -31.85 7.45 -31.75 7.75 -31.8 7.75 -31.5 7.8 -31.4 7.8 -30.75 7.7 -30.7 7.2 -30.7 6.7 -30.8 Q6.55 -30.9 6.5 -31.1 6.5 -31.15 6.3 -31.15 6.1 -31.15 6.0 -31.0 5.95 -30.8 5.85 -30.8 5.7 -30.8 5.6 -30.9 L5.2 -31.3 M6.45 -32.1 L6.65 -32.0 6.8 -31.95 6.7 -32.05 6.6 -32.05 6.5 -32.1 6.45 -32.1 M-2.65 -32.3 L-2.4 -32.55 Q-2.2 -32.75 -2.1 -32.75 -2.0 -32.75 -1.85 -32.55 -1.7 -32.35 -1.45 -32.35 L-1.35 -32.05 Q-1.2 -32.05 -0.9 -32.05 L-0.85 -32.0 Q-0.95 -31.8 -1.25 -31.45 L-1.85 -30.95 -1.95 -30.95 Q-2.05 -30.95 -2.05 -31.0 L-1.7 -31.55 Q-1.65 -31.6 -1.8 -31.6 -2.2 -31.6 -2.4 -31.4 -2.55 -31.25 -2.85 -31.3 L-2.85 -31.4 Q-2.85 -31.95 -2.8 -32.05 -2.75 -32.2 -2.65 -32.3 M-3.75 -31.1 L-3.95 -30.8 -4.2 -30.95 Q-4.35 -31.05 -4.45 -31.15 L-4.15 -31.4 Q-3.9 -31.55 -3.7 -31.5 -3.65 -31.55 -3.65 -31.35 -3.65 -31.25 -3.75 -31.1" fill="#ffffff" fill-rule="evenodd" stroke="none"/>
    </g>
  </defs>
</svg>
