<?xml version="1.0" encoding="UTF-8" standalone="no"?>
<svg xmlns:ffdec="https://www.free-decompiler.com/flash" xmlns:xlink="http://www.w3.org/1999/xlink" ffdec:objectType="frame" height="59.85px" width="180.25px" xmlns="http://www.w3.org/2000/svg">
  <g transform="matrix(1.0, 0.0, 0.0, 1.0, 89.95, -5.95)">
    <use ffdec:characterId="445" height="6.75" transform="matrix(7.0, 0.0, 0.0, 7.0, -41.65, 14.35)" width="18.85" xlink:href="#shape0"/>
  </g>
  <defs>
    <g id="shape0" transform="matrix(1.0, 0.0, 0.0, 1.0, 5.95, -2.05)">
      <path d="M11.95 2.45 L11.95 2.75 11.9 3.05 11.85 3.2 11.8 3.3 Q11.75 3.4 11.55 3.4 11.3 3.4 11.25 3.2 L11.25 2.9 Q11.25 2.75 11.3 2.55 11.35 2.35 11.45 2.2 L11.6 2.15 Q11.65 2.1 11.7 2.05 11.95 2.25 11.95 2.45 M12.3 3.45 L12.65 3.45 Q12.85 3.7 12.9 3.85 L12.9 4.2 Q12.9 4.35 12.65 4.6 L12.3 4.6 12.4 4.0 12.3 3.8 Q12.25 3.7 12.25 3.6 L12.25 3.45 12.3 3.45 M12.0 4.95 L12.05 5.1 Q12.05 5.2 11.7 5.55 L11.3 6.0 11.05 6.0 10.8 5.65 Q10.8 5.55 10.85 5.45 L10.9 5.3 Q10.75 5.25 11.0 5.2 11.4 5.15 11.45 5.1 11.55 4.95 11.6 4.75 11.65 4.65 11.95 4.85 L12.0 4.95 M9.8 2.8 L9.8 2.45 9.9 2.35 9.95 2.25 Q10.2 2.2 10.3 2.1 L10.6 2.1 10.7 2.25 Q10.75 2.3 10.75 2.4 10.75 2.6 10.55 2.75 10.25 2.95 10.2 3.05 L10.05 3.0 9.8 2.8 M10.6 3.35 L10.8 3.55 Q10.9 3.7 10.9 3.8 L10.85 3.95 10.8 4.05 10.55 4.1 Q10.45 4.1 10.45 3.95 L10.25 3.85 10.1 3.8 9.95 3.8 9.9 3.75 Q9.8 3.7 9.8 3.6 9.8 3.45 9.95 3.3 L10.6 3.35 M7.7 4.25 L7.8 4.35 7.8 4.5 7.9 4.5 Q7.8 4.55 7.65 4.85 7.6 5.05 7.2 5.1 7.25 5.25 7.2 5.45 L7.15 5.6 7.1 5.8 7.05 5.9 7.05 5.95 6.85 5.95 7.0 6.05 7.0 6.1 Q6.9 6.1 6.8 6.05 L6.75 5.95 6.35 5.9 6.25 5.85 5.95 5.85 Q5.8 5.95 5.75 6.1 L5.65 6.3 Q5.6 6.4 5.45 6.4 L5.45 6.45 5.6 6.45 5.75 6.65 5.8 6.65 6.0 6.6 6.3 6.6 6.4 6.8 Q6.4 6.85 6.25 7.0 L6.05 7.2 5.45 7.1 5.25 7.1 Q5.2 7.05 5.15 6.85 L4.95 6.55 4.9 6.6 4.9 6.5 Q4.8 6.6 4.7 6.6 4.5 6.55 4.5 6.5 L4.45 6.5 4.45 6.6 4.3 6.5 4.2 6.5 Q4.2 6.55 4.25 6.65 3.95 6.8 3.85 6.9 L3.6 6.85 3.15 6.55 2.45 6.5 2.3 6.45 2.2 6.45 2.15 6.5 2.1 6.45 1.85 6.55 1.6 6.5 1.3 6.45 1.05 6.05 0.45 6.0 0.5 6.0 0.35 5.9 0.3 5.85 0.2 5.8 0.2 5.85 Q0.2 5.9 0.1 5.9 L0.05 5.9 -0.05 5.45 -0.1 5.35 -0.05 5.35 0.05 5.45 0.05 5.35 Q0.05 4.95 0.6 4.95 0.9 4.95 1.05 5.05 1.2 5.15 1.5 5.2 L1.7 5.2 Q1.75 5.1 2.05 5.0 L2.45 4.8 2.65 4.85 Q2.95 5.0 2.95 5.1 L2.95 5.2 Q3.0 5.15 3.15 5.05 L3.45 5.05 3.6 5.2 3.95 5.2 4.35 5.3 4.7 5.35 Q4.9 5.35 5.15 5.1 5.25 4.95 5.5 5.0 5.5 4.8 5.7 4.85 5.9 4.9 5.95 5.05 L6.4 5.0 6.5 4.9 Q6.4 4.85 6.75 4.75 L6.85 4.7 7.0 4.45 Q7.05 4.3 7.35 4.25 L7.7 4.25 M7.95 5.25 L7.95 5.45 Q7.95 5.5 7.9 5.65 7.8 5.75 7.8 5.8 7.8 5.85 7.95 5.95 8.05 6.0 8.05 6.1 8.05 6.15 7.95 6.2 L7.8 6.35 7.25 6.35 7.2 6.1 7.2 5.85 Q7.2 5.75 7.3 5.7 L7.35 5.65 7.4 5.65 7.45 5.55 7.45 5.35 Q7.45 5.25 7.55 5.25 L7.95 5.25 M8.45 4.45 L8.1 4.45 Q8.3 4.15 8.6 4.05 L9.0 3.95 9.2 3.95 9.25 4.0 9.25 4.25 9.15 4.45 Q8.75 4.5 8.7 4.6 8.65 4.7 8.55 4.75 L8.4 4.7 Q8.4 4.65 8.55 4.55 8.45 4.5 8.45 4.45 M7.0 5.65 L7.05 5.7 7.15 5.45 7.0 5.65 M8.5 6.05 Q8.5 5.9 8.7 5.6 8.9 5.25 9.15 5.15 9.6 4.95 9.6 4.7 9.55 4.45 9.55 4.3 9.55 4.0 10.05 4.1 L10.05 3.95 9.95 3.95 10.0 3.9 10.2 3.9 10.35 4.15 10.45 4.2 Q10.6 4.2 10.75 4.15 L10.8 4.1 10.85 4.1 11.05 3.95 Q11.25 4.0 11.4 4.25 11.5 4.45 11.5 4.6 L11.5 4.65 11.4 4.75 11.3 4.9 11.0 4.85 Q10.75 4.95 10.7 5.15 L10.6 5.45 Q10.35 5.95 10.15 6.05 9.7 6.05 9.45 5.85 L9.35 5.8 Q9.3 5.85 9.2 5.95 L9.0 6.05 Q8.85 6.1 8.8 6.2 L8.55 6.2 Q8.5 6.25 8.5 6.05 M0.35 5.85 L0.35 5.9 0.55 5.9 0.35 5.85 M-5.95 8.7 L-5.75 8.45 Q-5.65 8.3 -5.65 8.5 L-5.65 8.65 -5.7 8.75 Q-5.65 8.8 -5.75 8.8 L-5.95 8.7" fill="#6d4d83" fill-rule="evenodd" stroke="none"/>
    </g>
  </defs>
</svg>
