<?xml version="1.0" encoding="UTF-8" standalone="no"?>
<svg xmlns:ffdec="https://www.free-decompiler.com/flash" xmlns:xlink="http://www.w3.org/1999/xlink" ffdec:objectType="frame" height="179.55px" width="459.55px" xmlns="http://www.w3.org/2000/svg">
  <g transform="matrix(1.0, 0.0, 0.0, 1.0, 284.2, 164.15)">
    <use ffdec:characterId="5115" height="16.2" transform="matrix(7.0, 0.0, 0.0, 7.0, -151.55, -102.2)" width="24.95" xlink:href="#shape0"/>
    <use ffdec:characterId="5116" height="21.55" transform="matrix(7.0, 0.0, 0.0, 7.0, -99.75, -144.2)" width="13.1" xlink:href="#shape1"/>
    <use ffdec:characterId="1771" height="1.05" transform="matrix(7.0, 0.0, 0.0, 7.0, -34.65, 2.45)" width="9.35" xlink:href="#shape2"/>
    <use ffdec:characterId="5117" height="13.1" transform="matrix(7.0, 0.0, 0.0, 7.0, -86.1, -136.85)" width="11.25" xlink:href="#shape3"/>
  </g>
  <defs>
    <g id="shape0" transform="matrix(1.0, 0.0, 0.0, 1.0, 21.65, 14.6)">
      <path d="M1.8 -5.35 Q1.95 -4.95 2.15 -4.8 2.75 -4.2 3.05 -3.55 3.3 -3.0 3.3 -2.3 3.3 -1.5 3.25 -1.3 3.1 -0.7 2.5 -0.3 L2.4 -0.3 Q2.1 0.0 1.75 0.05 1.7 0.0 1.75 -0.2 L1.6 -0.3 Q1.15 -0.2 0.8 0.15 L0.3 0.7 Q0.2 0.95 0.0 1.15 -0.35 1.6 -0.95 1.6 -1.85 1.6 -2.5 1.35 -2.55 1.0 -2.8 0.7 -3.15 0.3 -3.85 0.15 -4.1 0.2 -4.35 0.3 -5.15 0.65 -5.45 1.05 L-5.95 1.0 -6.25 0.9 -6.25 0.85 -6.35 0.65 -6.4 0.45 -6.5 0.25 -6.65 0.0 Q-7.1 -0.35 -7.45 -0.45 L-8.25 -0.65 -8.8 -0.55 -8.95 -0.45 -9.2 -0.25 Q-9.35 -0.1 -9.45 0.15 -9.55 0.35 -9.55 0.5 -9.55 0.65 -9.45 0.75 L-9.45 0.8 -9.55 0.8 -10.3 0.7 Q-10.35 0.75 -10.35 0.65 L-10.2 0.45 -10.05 0.1 -9.95 -0.4 Q-9.95 -0.95 -10.25 -1.85 L-10.35 -2.25 Q-10.75 -2.9 -10.95 -3.4 L-11.0 -3.5 -11.0 -3.55 Q-11.25 -4.45 -11.4 -4.8 L-11.65 -5.15 -11.65 -5.4 -11.75 -5.4 -11.75 -5.25 Q-12.25 -5.75 -13.15 -5.75 L-13.3 -5.7 -14.2 -5.3 Q-15.05 -5.5 -15.55 -6.0 L-16.3 -6.85 -17.3 -7.65 Q-18.05 -8.1 -19.15 -8.3 -20.1 -8.5 -20.85 -7.6 -21.45 -6.95 -21.6 -6.3 L-21.65 -6.25 Q-21.7 -7.15 -20.4 -8.1 L-20.35 -8.15 -20.75 -7.9 -21.15 -7.7 Q-21.0 -7.9 -20.3 -8.35 L-19.35 -8.9 -18.15 -9.4 Q-17.4 -9.7 -16.3 -9.8 L-16.3 -9.85 Q-14.55 -9.9 -13.25 -8.85 -12.4 -8.15 -12.25 -7.55 L-11.75 -7.25 Q-11.25 -6.9 -10.9 -6.25 -9.9 -6.0 -9.2 -5.55 -8.05 -4.85 -8.05 -3.95 L-8.65 -3.05 -8.6 -2.85 Q-8.45 -2.6 -8.0 -2.1 L-6.8 -1.9 -5.5 -1.9 Q-4.55 -2.4 -3.95 -3.1 L-3.9 -3.25 Q-3.9 -3.5 -4.05 -3.85 -4.2 -4.25 -4.2 -4.5 -4.2 -5.45 -3.3 -6.0 L-3.35 -6.05 -3.55 -6.05 -3.65 -6.0 -3.7 -6.05 -3.7 -6.0 -3.9 -6.05 -3.85 -6.1 -3.6 -6.15 -2.85 -6.5 Q-2.1 -6.8 -0.7 -6.95 L-0.7 -7.0 Q0.95 -6.8 1.5 -6.0 L1.8 -5.35 M-12.05 -14.2 Q-10.95 -14.7 -9.9 -14.55 -9.1 -14.45 -8.55 -14.0 -7.9 -13.95 -7.4 -13.7 -6.75 -13.4 -6.65 -13.0 -6.55 -12.5 -6.45 -12.2 -6.35 -11.95 -6.15 -11.75 -6.0 -11.6 -6.0 -11.5 L-6.0 -11.45 -6.2 -11.1 Q-6.75 -10.7 -7.5 -10.7 -7.85 -10.65 -8.45 -10.35 L-8.6 -10.25 -8.2 -10.95 -7.95 -11.4 Q-8.0 -11.75 -8.5 -12.05 L-9.4 -12.6 Q-9.8 -12.8 -10.15 -13.2 L-10.7 -13.9 Q-11.15 -13.95 -11.25 -14.05 L-11.45 -14.0 Q-11.95 -13.9 -13.2 -13.4 L-14.65 -12.75 Q-15.6 -12.75 -15.85 -12.95 -15.95 -13.0 -15.95 -13.2 L-15.95 -13.4 Q-15.9 -13.55 -15.7 -13.65 -15.4 -13.65 -15.5 -13.55 L-15.65 -13.4 Q-15.65 -13.25 -15.6 -13.25 L-15.55 -13.25 Q-13.2 -13.45 -12.8 -13.75 -12.7 -14.1 -12.2 -14.2 L-12.05 -14.2 M-12.75 -13.75 L-12.35 -13.9 -12.4 -13.9 -12.75 -13.75 M-15.25 -12.6 L-14.95 -12.3 Q-14.85 -12.1 -14.85 -11.95 -14.85 -11.85 -14.9 -11.8 L-14.95 -11.7 Q-15.7 -11.55 -16.15 -11.35 -16.55 -11.25 -16.9 -11.0 -16.8 -11.25 -16.8 -11.35 L-16.8 -11.4 Q-16.8 -11.55 -16.15 -11.95 -15.55 -12.35 -15.35 -12.4 L-15.25 -12.6 M-15.65 -12.15 Q-15.75 -12.15 -15.9 -12.0 L-16.0 -11.95 Q-15.95 -11.95 -15.8 -12.05 L-15.7 -12.1 -15.65 -12.15 M-12.15 -9.85 L-12.1 -9.65 Q-12.25 -9.7 -12.3 -9.8 L-12.45 -9.95 -13.0 -10.05 -12.8 -10.15 -12.5 -10.1 -12.25 -10.05 -12.15 -9.85 M-12.15 -9.55 L-12.0 -9.4 -11.7 -9.15 -11.0 -9.15 Q-10.85 -9.25 -10.6 -9.3 -10.3 -9.35 -10.2 -9.4 L-9.85 -9.4 Q-9.7 -9.1 -9.7 -8.9 -9.7 -8.55 -9.95 -8.35 -10.3 -8.0 -10.4 -7.8 -10.45 -7.85 -10.5 -8.0 L-10.55 -7.85 -10.6 -7.85 -10.6 -7.95 -10.55 -8.1 Q-10.45 -8.2 -10.45 -8.3 -10.45 -8.55 -11.25 -8.8 -12.05 -9.05 -12.2 -9.55 L-12.15 -9.55" fill="#ffd327" fill-rule="evenodd" stroke="none"/>
      <path d="M0.8 -4.75 Q0.85 -4.4 1.1 -3.85 1.25 -3.4 1.25 -2.95 1.25 -2.8 1.45 -2.5 1.65 -2.15 1.7 -2.0 L1.7 -1.5 Q1.75 -1.2 1.8 -1.05 L1.85 -1.0 2.15 -0.95 Q2.65 -0.95 2.8 -1.6 2.9 -1.85 2.9 -2.3 2.9 -2.95 2.45 -3.7 2.2 -4.2 1.55 -5.05 0.85 -6.9 -0.85 -6.5 -0.6 -5.85 -0.35 -5.5 0.05 -4.95 0.8 -4.75 M1.25 -5.85 L1.55 -5.25 Q1.75 -4.8 1.95 -4.6 2.5 -4.05 2.8 -3.45 3.0 -2.9 3.0 -2.3 L2.95 -1.35 Q2.85 -0.95 2.45 -0.6 L2.35 -0.6 2.2 -0.5 2.2 -0.45 2.0 -0.3 1.95 -0.4 Q1.85 -0.5 1.65 -0.55 L1.6 -0.55 Q1.0 -0.5 0.6 -0.05 L0.1 0.5 0.05 0.55 Q-0.05 0.8 -0.2 1.0 -0.5 1.35 -0.95 1.35 -1.7 1.35 -2.25 1.15 -2.35 0.8 -2.6 0.5 -3.0 0.05 -3.8 -0.1 L-3.9 -0.1 -4.45 0.05 Q-5.2 0.35 -5.55 0.75 L-5.85 0.7 -6.05 0.65 -6.1 0.6 -6.1 0.45 Q-6.1 0.35 -6.15 0.25 L-6.2 0.2 -6.2 0.15 -6.25 0.15 Q-6.3 0.0 -6.45 -0.15 L-6.45 -0.2 Q-7.0 -0.6 -7.35 -0.75 L-8.05 -0.9 Q-7.8 -1.0 -7.65 -1.15 -7.5 -1.35 -7.5 -1.7 L-7.5 -1.75 -6.85 -1.6 -5.5 -1.6 -5.4 -1.65 Q-4.35 -2.2 -3.7 -2.9 -3.65 -2.95 -3.65 -3.05 L-3.6 -3.25 Q-3.6 -3.5 -3.75 -3.95 -3.9 -4.3 -3.9 -4.5 -3.9 -5.3 -3.15 -5.75 L-3.05 -5.85 -3.0 -6.0 -3.0 -6.1 -2.7 -6.2 Q-2.0 -6.5 -0.7 -6.7 L-0.6 -6.7 Q0.8 -6.5 1.25 -5.85 M-17.55 -8.25 L-17.4 -8.1 -17.3 -7.95 Q-17.55 -8.1 -17.85 -8.25 L-17.55 -8.25 M-15.1 -9.0 Q-15.2 -9.3 -15.55 -9.55 -14.4 -9.4 -13.45 -8.6 -12.7 -8.0 -12.55 -7.45 L-12.45 -7.35 -12.45 -7.3 Q-12.5 -6.8 -12.95 -6.25 L-13.1 -6.05 -13.15 -6.05 -13.45 -5.95 -14.2 -5.6 Q-14.9 -5.75 -15.3 -6.2 L-16.05 -7.05 -16.1 -7.05 -16.7 -7.5 Q-16.3 -7.4 -15.7 -7.4 -15.35 -7.4 -15.15 -7.7 -14.95 -8.0 -14.95 -8.35 -14.95 -8.75 -15.1 -9.0 M-9.35 -5.3 Q-8.45 -4.75 -8.35 -4.0 L-8.9 -3.2 Q-8.95 -3.1 -8.95 -3.0 -8.9 -2.8 -8.85 -2.7 L-8.75 -2.55 Q-9.0 -2.3 -9.3 -2.0 -9.6 -1.6 -9.6 -1.45 -9.6 -1.15 -9.6 -1.1 -9.5 -0.9 -9.15 -0.8 L-9.0 -0.8 -9.1 -0.7 Q-9.3 -0.6 -9.4 -0.45 -9.6 -0.25 -9.7 0.05 L-9.75 0.1 -9.7 -0.4 Q-9.7 -1.0 -9.95 -1.9 L-10.1 -2.35 Q-10.45 -3.0 -10.65 -3.5 L-10.7 -3.65 Q-10.9 -4.35 -11.1 -4.75 -10.85 -4.7 -10.65 -4.7 -10.5 -4.7 -10.35 -4.8 -10.15 -4.95 -10.15 -5.25 -10.15 -5.5 -10.25 -5.75 -9.75 -5.6 -9.35 -5.3 M-3.75 -6.3 L-3.75 -6.3 M-3.2 -1.95 Q-3.2 -2.1 -3.0 -2.2 -2.85 -2.3 -2.85 -2.45 -2.85 -2.6 -3.05 -2.75 L-3.3 -2.95 Q-3.45 -2.9 -4.0 -2.25 L-4.45 -1.6 Q-4.45 -1.45 -4.2 -1.0 -3.9 -0.4 -3.45 -0.4 -3.3 -0.4 -3.05 -0.65 -2.8 -0.9 -2.8 -1.1 -2.8 -1.3 -3.0 -1.5 -3.2 -1.75 -3.2 -1.95 M-9.8 0.5 L-9.9 0.5 -9.8 0.3 -9.8 0.5" fill="#ffff66" fill-rule="evenodd" stroke="none"/>
      <path d="M0.9 -5.85 L1.05 -5.85 1.0 -5.8 0.9 -5.85 M1.05 -5.7 L1.15 -5.55 Q1.3 -5.4 1.3 -5.25 L1.3 -5.2 1.05 -5.7 M2.3 -4.05 L2.25 -4.1 2.3 -4.1 2.3 -4.05 M0.3 -2.7 L0.4 -2.1 0.45 -1.6 Q0.5 -1.2 0.75 -1.0 L0.85 -1.0 Q0.7 -0.85 0.5 -0.65 L0.35 -0.4 Q0.0 -0.15 0.0 0.0 L-0.25 0.2 Q-1.35 0.9 -1.9 1.25 L-2.0 1.25 -2.15 1.2 -2.25 1.2 -1.95 0.55 -1.95 0.35 -1.9 -0.4 -1.9 -1.35 Q-1.9 -1.45 -2.0 -1.85 L-2.05 -1.95 -1.95 -1.95 -1.85 -2.0 -1.85 -2.05 -1.75 -2.15 -1.8 -2.25 Q-1.85 -2.3 -1.9 -2.3 -1.85 -2.4 -1.9 -2.55 L-1.9 -2.8 -1.95 -3.0 Q-2.05 -3.25 -2.3 -3.5 L-2.65 -3.95 Q-2.95 -4.25 -3.25 -4.2 -3.25 -4.8 -3.2 -5.1 -3.1 -5.6 -2.75 -5.8 L-2.35 -5.75 -2.3 -5.75 -1.6 -5.55 -1.25 -5.4 -0.85 -5.2 Q-0.35 -4.5 -0.15 -4.15 0.2 -3.6 0.2 -3.2 0.2 -3.05 0.3 -2.7 M-13.4 -7.5 Q-13.4 -7.25 -13.65 -6.8 -13.8 -6.45 -13.95 -6.35 L-13.95 -6.35 -14.0 -6.35 Q-14.05 -6.5 -14.1 -6.55 L-14.2 -6.6 -14.25 -6.6 -14.5 -6.55 -14.7 -6.55 -14.7 -6.5 -14.75 -6.45 -14.75 -6.55 -14.65 -6.55 Q-14.6 -6.55 -14.6 -6.6 L-14.3 -6.95 Q-14.2 -7.15 -14.2 -7.3 -14.2 -7.9 -14.55 -8.45 L-14.75 -8.7 Q-14.3 -8.6 -13.9 -8.2 -13.4 -7.75 -13.4 -7.5 M-8.4 -12.6 L-8.35 -12.6 -8.35 -12.65 -8.3 -12.6 -8.4 -12.6 M-7.4 -12.85 L-7.9 -13.1 -7.95 -13.1 -8.35 -13.3 -7.5 -13.2 -7.3 -12.95 -7.35 -12.95 -7.4 -12.9 -7.4 -12.85 M-7.85 -12.5 L-7.8 -12.5 -7.8 -12.4 -7.9 -12.45 -7.85 -12.5 M-7.65 -12.4 L-7.5 -12.35 -7.35 -12.25 -7.2 -12.25 -7.2 -12.0 -7.0 -12.0 -6.9 -11.95 -6.85 -11.85 -6.7 -11.85 -6.65 -11.8 -6.7 -11.8 -6.95 -11.85 -7.05 -11.9 -7.15 -12.0 -7.4 -12.0 -7.7 -12.35 -7.65 -12.4 M-9.45 -14.0 L-9.4 -14.0 -9.45 -13.9 -9.55 -13.95 -9.6 -13.95 -9.55 -14.0 -9.45 -14.0 M-6.7 -11.85 L-6.7 -11.85 M-9.6 -13.95 L-9.65 -13.95 -9.95 -14.0 -9.95 -14.05 -9.6 -14.0 -9.65 -13.95 -9.6 -13.95 M-9.35 -4.75 L-9.25 -4.7 Q-8.95 -4.3 -8.95 -4.05 -8.95 -3.8 -9.1 -3.4 -9.3 -3.25 -9.45 -3.0 -9.6 -2.7 -9.65 -2.4 -9.7 -2.55 -9.75 -2.75 L-9.7 -3.1 -9.6 -3.55 -9.55 -3.55 -9.55 -3.6 -9.5 -4.3 Q-9.5 -4.65 -9.6 -4.9 L-9.45 -4.85 -9.35 -4.75 M-9.85 -5.05 L-9.85 -5.05 M-9.95 -5.0 L-9.9 -5.15 -9.75 -5.1 -9.85 -5.0 -9.9 -5.05 -9.9 -5.0 -9.95 -5.0 M-8.8 -1.6 L-8.75 -1.6 Q-8.7 -1.6 -8.65 -1.65 L-8.5 -1.6 -8.45 -1.6 -8.2 -1.55 -8.2 -1.6 -8.15 -1.5 -8.2 -1.5 -8.5 -1.6 -8.55 -1.6 -8.7 -1.55 -8.8 -1.6 M-5.25 -0.75 L-5.3 -0.75 -5.45 -0.65 Q-5.45 -0.85 -5.8 -1.0 L-5.85 -1.05 -4.9 -1.05 -4.75 -0.95 Q-5.1 -0.9 -5.25 -0.75" fill="#ffffff" fill-rule="evenodd" stroke="none"/>
    </g>
    <g id="shape1" transform="matrix(1.0, 0.0, 0.0, 1.0, 14.25, 20.6)">
      <path d="M-9.65 -16.6 Q-9.6 -17.4 -10.6 -17.95 -11.85 -18.6 -14.2 -18.35 L-14.25 -18.45 Q-14.25 -18.55 -13.45 -18.7 L-13.5 -18.75 -12.55 -19.1 Q-11.4 -19.5 -10.2 -19.85 -6.6 -20.85 -4.75 -20.55 L-4.6 -20.35 Q-6.1 -19.55 -6.75 -18.8 -7.35 -18.1 -7.35 -17.15 -7.35 -16.6 -6.95 -16.15 -6.75 -15.85 -6.2 -15.4 -5.6 -14.95 -5.4 -14.7 -5.05 -14.25 -5.05 -13.7 -5.05 -13.6 -5.15 -13.0 -5.3 -12.35 -5.3 -12.2 -5.3 -11.6 -4.65 -10.85 L-3.25 -9.45 Q-2.25 -8.45 -1.8 -7.7 -1.15 -6.6 -1.15 -5.5 -1.15 -4.7 -2.15 -3.35 -3.15 -2.05 -3.15 -1.15 -3.15 -0.6 -2.6 0.05 L-2.05 0.7 Q-2.05 0.95 -2.45 0.95 L-3.8 0.85 Q-5.05 0.85 -7.3 0.35 -8.8 0.0 -9.8 -0.35 -10.0 -0.35 -10.15 -0.45 L-10.2 -0.5 Q-9.6 -0.75 -8.95 -1.1 -6.35 -2.1 -5.3 -3.45 -4.35 -4.65 -4.35 -6.7 -4.35 -7.85 -4.95 -8.75 -5.35 -9.35 -6.25 -10.0 -7.35 -10.8 -7.55 -11.0 -8.15 -11.6 -8.15 -12.3 -8.15 -12.55 -7.95 -13.2 L-7.7 -13.75 Q-7.7 -14.2 -8.05 -14.55 L-8.7 -15.05 Q-9.7 -15.75 -9.65 -16.6" fill="#ffffff" fill-opacity="0.7372549" fill-rule="evenodd" stroke="none"/>
    </g>
    <g id="shape2" transform="matrix(1.0, 0.0, 0.0, 1.0, 4.95, -0.35)">
      <path d="M4.35 0.55 L4.35 0.6 4.4 0.65 Q4.4 0.9 3.15 1.1 L0.25 1.4 -1.6 1.4 -3.55 1.05 Q-4.65 0.85 -4.95 0.7 L-4.95 0.6 -4.25 0.65 -1.1 0.35 0.45 0.4 2.35 0.55 3.15 0.65 3.4 0.7 Q3.55 0.7 3.8 0.65 L4.35 0.55" fill="#ffffff" fill-opacity="0.7372549" fill-rule="evenodd" stroke="none"/>
    </g>
    <g id="shape3" transform="matrix(1.0, 0.0, 0.0, 1.0, 12.3, 19.55)">
      <path d="M-11.05 -19.5 L-10.35 -19.55 Q-11.35 -19.2 -11.35 -18.75 -11.35 -18.5 -11.0 -18.3 -10.6 -18.0 -9.65 -17.95 -8.6 -17.65 -5.85 -17.65 L-5.5 -17.6 -5.25 -17.55 -5.6 -17.5 -7.25 -17.3 -7.55 -17.3 Q-12.3 -17.3 -12.3 -18.75 -12.3 -19.1 -11.65 -19.35 L-11.05 -19.5 M-3.95 -17.45 L-4.0 -17.5 -2.6 -17.55 -1.05 -17.4 Q-1.05 -17.35 -1.2 -17.3 L-1.45 -17.3 -2.0 -17.35 -2.95 -17.4 -3.95 -17.45 M-10.0 -7.8 Q-9.0 -7.1 -8.05 -6.75 L-8.45 -6.7 Q-9.25 -6.7 -10.45 -7.8 -11.05 -8.35 -11.55 -8.95 L-11.5 -8.95 -10.0 -7.8 M-6.35 -6.6 Q-6.15 -6.55 -6.15 -6.5 L-6.35 -6.5 -6.65 -6.45 -7.0 -6.5 -7.05 -6.55 -6.95 -6.6 -6.35 -6.6" fill="#ffd327" fill-rule="evenodd" stroke="none"/>
    </g>
  </defs>
</svg>
