<?xml version="1.0" encoding="UTF-8" standalone="no"?>
<svg xmlns:ffdec="https://www.free-decompiler.com/flash" xmlns:xlink="http://www.w3.org/1999/xlink" ffdec:objectType="frame" height="226.35px" width="240.15px" xmlns="http://www.w3.org/2000/svg">
  <g transform="matrix(1.0, 0.0, 0.0, 1.0, 121.35, 142.5)">
    <use ffdec:characterId="411" height="36.75" transform="matrix(5.5414, 0.0, 0.0, 5.5414, -101.9614, -131.1302)" width="36.8" xlink:href="#shape0"/>
    <use ffdec:characterId="329" height="19.35" transform="matrix(0.0, 3.5326, -5.5413, 0.0, 116.0228, -96.231)" width="19.75" xlink:href="#shape1"/>
    <use ffdec:characterId="329" height="19.35" transform="matrix(0.0, -2.8226, -4.4269, 0.0, 96.5215, 28.7254)" width="19.75" xlink:href="#shape1"/>
    <use ffdec:characterId="329" height="19.35" transform="matrix(0.0, -3.5326, 5.5413, 0.0, -111.8728, 37.981)" width="19.75" xlink:href="#shape1"/>
    <use ffdec:characterId="329" height="19.35" transform="matrix(0.0, 2.8226, 4.4269, 0.0, -92.3715, -86.9754)" width="19.75" xlink:href="#shape1"/>
    <use ffdec:characterId="79" height="2.3" transform="matrix(0.6821, 1.8705, -1.8705, 0.6821, 51.9667, -26.8356)" width="2.3" xlink:href="#shape2"/>
    <use ffdec:characterId="79" height="2.3" transform="matrix(0.6143, 1.6844, -1.6844, 0.6143, 65.0807, -34.8435)" width="2.3" xlink:href="#shape2"/>
    <use ffdec:characterId="79" height="2.3" transform="matrix(0.6906, 1.8939, -1.8939, 0.6906, 44.0338, -36.3722)" width="2.3" xlink:href="#shape2"/>
    <use ffdec:characterId="79" height="2.3" transform="matrix(0.6327, 1.7349, -1.7349, 0.6327, 50.3676, -28.5228)" width="2.3" xlink:href="#shape2"/>
    <use ffdec:characterId="79" height="2.3" transform="matrix(0.6494, 1.7807, -1.7807, 0.6494, 37.751, -38.0946)" width="2.3" xlink:href="#shape2"/>
    <use ffdec:characterId="79" height="2.3" transform="matrix(-0.9911, -1.8606, 1.8606, -0.9911, -29.0499, -9.9706)" width="2.3" xlink:href="#shape2"/>
    <use ffdec:characterId="79" height="2.3" transform="matrix(-0.925, -1.7366, 1.7366, -0.925, -34.5333, -3.2392)" width="2.3" xlink:href="#shape2"/>
    <use ffdec:characterId="79" height="2.3" transform="matrix(-0.985, -1.8493, 1.8493, -0.985, -21.8439, -9.8905)" width="2.3" xlink:href="#shape2"/>
    <use ffdec:characterId="79" height="2.3" transform="matrix(-0.9671, -1.8155, 1.8155, -0.9671, -15.6257, -4.0)" width="2.3" xlink:href="#shape2"/>
    <use ffdec:characterId="79" height="2.3" transform="matrix(0.2965, -1.9097, 1.9097, 0.2965, -66.9872, -29.3948)" width="2.3" xlink:href="#shape2"/>
    <use ffdec:characterId="79" height="2.3" transform="matrix(0.2632, -1.6951, 1.6951, 0.2632, -85.3521, -27.8033)" width="2.3" xlink:href="#shape2"/>
    <use ffdec:characterId="79" height="2.3" transform="matrix(0.2943, -1.8958, 1.8958, 0.2943, -67.9686, -16.3083)" width="2.3" xlink:href="#shape2"/>
    <use ffdec:characterId="79" height="2.3" transform="matrix(0.266, -1.7133, 1.7133, 0.266, -68.5262, -26.9356)" width="2.3" xlink:href="#shape2"/>
    <use ffdec:characterId="79" height="2.3" transform="matrix(0.2784, -1.7931, 1.7931, 0.2784, -59.9822, -12.758)" width="2.3" xlink:href="#shape2"/>
  </g>
  <defs>
    <g id="shape0" transform="matrix(1.0, 0.0, 0.0, 1.0, 18.4, 18.25)">
      <path d="M0.0 -18.25 Q7.6 -18.25 13.0 -12.9 18.4 -7.5 18.4 0.1 18.4 7.75 13.0 13.1 7.6 18.5 0.0 18.5 -7.6 18.5 -13.0 13.1 -18.4 7.75 -18.4 0.1 -18.4 -7.5 -13.0 -12.9 -7.6 -18.25 0.0 -18.25 M12.55 -12.45 Q7.35 -17.65 0.0 -17.65 -7.35 -17.65 -12.55 -12.45 -17.75 -7.25 -17.75 0.1 -17.75 7.5 -12.55 12.7 -7.35 17.9 0.0 17.9 7.35 17.9 12.55 12.7 17.75 7.5 17.75 0.1 17.75 -7.25 12.55 -12.45" fill="#adcfdd" fill-opacity="0.101960786" fill-rule="evenodd" stroke="none"/>
      <path d="M0.0 -14.85 Q6.2 -14.85 10.6 -10.45 14.95 -6.1 14.95 0.1 14.95 6.3 10.6 10.7 6.2 15.1 0.0 15.1 -6.2 15.1 -10.6 10.7 -14.95 6.3 -14.95 0.1 -14.95 -6.1 -10.6 -10.45 -6.2 -14.85 0.0 -14.85 M10.1 -10.0 Q5.95 -14.2 0.0 -14.2 -5.95 -14.2 -10.1 -10.0 -14.3 -5.8 -14.3 0.1 -14.3 6.05 -10.1 10.25 -5.95 14.45 0.0 14.45 5.95 14.45 10.1 10.25 14.3 6.05 14.3 0.1 14.3 -5.8 10.1 -10.0" fill="#adcfdd" fill-opacity="0.2627451" fill-rule="evenodd" stroke="none"/>
    </g>
    <g id="shape1" transform="matrix(1.0, 0.0, 0.0, 1.0, 17.05, 17.5)">
      <path d="M-1.2 1.05 Q-1.5 1.25 -1.7 1.25 L-1.85 1.25 Q-1.9 1.25 -1.9 1.1 -1.9 1.0 -1.75 0.85 -1.65 0.75 -1.4 0.55 L-1.25 0.4 -1.15 0.2 Q-0.95 -0.35 -0.65 -0.55 -0.45 -0.45 -0.25 -0.25 L-0.05 0.1 Q0.05 0.05 0.15 -0.05 0.25 -0.2 0.35 -0.2 0.55 -0.2 0.85 0.25 1.0 0.5 1.2 0.8 L1.15 0.85 Q1.1 0.9 1.0 0.9 0.95 0.9 0.8 0.8 L0.65 0.85 Q0.65 0.8 0.65 0.7 0.65 0.6 0.6 0.5 0.5 0.3 0.3 0.3 0.2 0.3 0.15 0.35 0.1 0.35 0.1 0.4 0.1 0.5 0.05 0.5 -0.2 0.35 -0.4 0.25 -0.45 0.15 -0.5 0.15 -0.6 0.15 -0.7 0.2 -1.15 0.1 -1.2 0.65 -1.3 0.8 -1.3 0.9 -1.3 1.0 -1.25 1.05 L-1.2 1.05 M-2.7 1.4 Q-2.95 1.45 -3.15 1.45 -3.25 1.45 -3.45 1.35 L-3.75 1.3 Q-3.6 1.4 -3.6 1.5 L-3.65 1.5 Q-3.7 1.55 -3.8 1.55 -3.9 1.55 -4.1 1.45 -4.3 1.3 -4.4 1.3 L-4.5 1.35 -4.5 1.4 -4.6 1.4 Q-4.85 1.5 -4.9 1.5 L-4.95 1.5 Q-5.45 1.6 -5.65 1.6 -6.2 1.6 -6.35 1.45 -6.45 1.4 -6.5 1.4 -6.55 1.35 -6.8 1.4 L-6.8 1.35 Q-6.85 1.35 -6.85 1.25 L-6.75 1.05 Q-6.6 0.85 -6.6 0.7 L-6.55 0.7 Q-6.5 0.65 -6.4 0.65 -6.15 0.65 -6.0 0.75 -5.95 0.8 -5.85 0.95 -5.75 1.1 -5.65 1.15 -5.45 1.25 -5.1 1.25 L-5.05 1.1 Q-5.05 0.9 -5.05 0.85 -5.05 0.5 -4.8 0.45 -4.55 0.45 -4.15 0.65 L-3.4 1.05 Q-2.95 1.3 -2.7 1.35 L-2.7 1.4 M-1.95 1.4 Q-1.95 1.55 -2.15 1.6 L-2.25 1.2 Q-1.95 1.35 -1.95 1.4" fill="#98ccc0" fill-opacity="0.7529412" fill-rule="evenodd" stroke="none"/>
      <path d="M0.65 0.85 Q0.55 0.9 0.45 0.95 L-0.05 1.0 Q-0.25 1.0 -0.5 0.85 L-0.6 0.8 -0.65 0.9 Q-0.75 1.0 -0.95 1.05 L-1.05 1.05 Q-1.1 1.1 -1.15 1.1 L-1.2 1.05 -1.25 1.05 Q-1.3 1.0 -1.3 0.9 -1.3 0.8 -1.2 0.65 -1.15 0.1 -0.7 0.2 -0.6 0.15 -0.5 0.15 -0.45 0.15 -0.4 0.25 -0.2 0.35 0.05 0.5 0.1 0.5 0.1 0.4 0.1 0.35 0.15 0.35 0.2 0.3 0.3 0.3 0.5 0.3 0.6 0.5 0.65 0.6 0.65 0.7 0.65 0.8 0.65 0.85" fill="#bffff0" fill-opacity="0.7529412" fill-rule="evenodd" stroke="none"/>
      <path d="M0.75 -11.25 Q0.65 -11.15 0.5 -11.15 0.25 -11.15 -0.2 -11.6 L-0.3 -11.5 Q-0.4 -11.45 -0.45 -11.45 -0.6 -11.45 -0.65 -11.55 -0.65 -11.6 -0.65 -11.7 -0.65 -11.8 -0.6 -11.85 -0.55 -11.95 -0.5 -11.95 -0.75 -12.25 -0.95 -12.6 -0.95 -12.95 -0.7 -12.9 -0.45 -12.85 -0.1 -12.5 0.25 -12.25 0.5 -11.9 0.8 -11.55 0.8 -11.4 0.8 -11.35 0.75 -11.25 M2.65 -3.75 Q2.6 -3.75 2.6 -3.7 2.55 -3.7 2.45 -3.7 2.2 -3.7 2.1 -3.8 2.0 -3.85 2.0 -3.95 2.0 -4.15 2.1 -4.2 2.2 -4.25 2.3 -4.2 2.45 -4.15 2.55 -4.05 2.65 -3.95 2.65 -3.9 L2.65 -3.75 M0.1 0.5 Q0.1 0.45 0.1 0.4 L0.05 0.25 Q0.05 -0.5 0.8 0.85 0.8 0.95 0.7 1.0 0.65 1.05 0.55 1.05 0.2 1.05 -0.15 0.85 L-0.2 0.85 Q-0.4 0.9 -0.6 0.9 -0.7 1.05 -0.95 1.05 -1.1 1.05 -1.15 0.85 L-1.15 0.65 Q-1.15 0.45 -1.1 0.35 -1.0 0.2 -0.6 0.2 -0.2 0.2 -0.05 0.35 0.0 0.4 0.05 0.5 L0.1 0.5 M-9.45 -12.05 Q-9.1 -11.9 -9.1 -11.7 -9.1 -11.6 -9.25 -11.5 -9.4 -11.45 -9.5 -11.45 -9.65 -11.45 -10.15 -11.55 -10.7 -11.6 -10.95 -11.65 -10.95 -11.6 -10.9 -11.55 L-10.95 -11.45 -11.1 -11.45 Q-11.25 -11.45 -11.3 -11.65 -11.3 -12.0 -10.95 -12.15 -10.7 -12.3 -10.2 -12.25 -9.8 -12.2 -9.45 -12.05 M-4.1 -16.8 Q-3.95 -16.85 -3.7 -16.75 -3.5 -16.7 -3.3 -16.55 -3.1 -16.4 -3.1 -16.35 -3.1 -16.25 -3.25 -16.2 L-3.45 -16.2 -3.4 -16.1 Q-3.4 -16.05 -3.4 -15.95 L-4.05 -15.15 Q-4.3 -14.85 -4.45 -14.65 -4.35 -14.6 -4.25 -14.55 -4.15 -14.45 -4.15 -14.3 -4.15 -14.1 -4.35 -13.9 -4.3 -13.85 -4.3 -13.75 L-4.65 -13.5 Q-5.0 -13.25 -5.05 -13.25 -5.5 -13.25 -5.65 -13.4 -5.7 -13.45 -5.7 -13.55 -5.7 -13.6 -5.45 -13.85 -5.15 -14.25 -5.0 -14.45 -4.3 -15.4 -4.3 -16.35 -4.3 -16.7 -4.1 -16.8 M-3.9 -13.35 L-3.95 -13.3 Q-4.0 -13.2 -4.1 -13.2 -4.3 -13.2 -4.4 -13.4 -4.4 -13.45 -4.4 -13.6 -4.2 -13.7 -4.05 -13.6 -3.9 -13.5 -3.9 -13.35 M-12.45 -10.25 Q-12.3 -10.4 -12.2 -10.45 -11.95 -10.6 -11.95 -10.25 L-12.3 -9.95 Q-12.7 -9.6 -12.9 -9.6 -12.85 -9.3 -12.95 -8.95 -13.05 -8.7 -13.25 -8.35 L-13.15 -8.25 -13.05 -8.2 Q-13.05 -8.1 -13.1 -8.0 -13.15 -7.95 -13.3 -7.95 -13.45 -7.95 -13.6 -8.15 L-13.65 -8.3 Q-13.65 -8.45 -13.5 -8.45 -13.55 -8.45 -13.55 -8.5 -13.55 -8.7 -13.3 -8.95 -13.1 -9.2 -13.1 -9.3 -13.1 -9.35 -13.15 -9.35 L-13.3 -9.45 Q-13.5 -9.55 -13.5 -9.7 -13.5 -9.9 -13.3 -10.0 L-12.7 -10.05 -12.45 -10.25 M-12.5 -8.55 Q-12.55 -8.45 -12.6 -8.45 -12.8 -8.45 -12.85 -8.55 -12.9 -8.6 -12.9 -8.65 L-12.9 -8.8 Q-12.8 -8.85 -12.65 -8.8 -12.5 -8.75 -12.45 -8.65 L-12.5 -8.55 M-13.1 -4.5 L-12.75 -4.45 -12.75 -4.4 -12.7 -4.35 -12.7 -4.25 Q-12.75 -4.2 -12.85 -4.2 -13.0 -4.2 -13.1 -4.25 -13.15 -4.25 -13.25 -4.3 -13.35 -4.05 -13.55 -4.05 -13.75 -4.05 -13.85 -4.1 -13.9 -4.15 -13.9 -4.2 -13.9 -4.3 -13.8 -4.5 -13.65 -4.7 -13.55 -4.8 -13.4 -4.95 -13.3 -4.95 -13.15 -4.9 -13.15 -4.65 -13.15 -4.55 -13.2 -4.5 L-13.1 -4.5 M-15.55 -0.85 Q-15.45 -0.8 -15.45 -0.65 -15.3 -0.6 -15.05 -0.4 L-15.1 -0.25 -15.2 -0.25 -15.3 -0.2 -15.55 -0.25 Q-15.7 -0.05 -15.95 -0.05 -16.2 -0.05 -16.3 -0.2 -16.35 -0.2 -16.35 -0.3 -16.35 -0.55 -16.2 -0.7 -16.05 -0.85 -15.9 -0.9 -15.7 -0.95 -15.55 -0.85 M-2.3 -9.45 Q-2.25 -9.4 -2.2 -9.35 -2.15 -9.3 -2.15 -9.25 -2.15 -9.1 -2.55 -8.9 -2.95 -8.65 -3.25 -8.65 -3.55 -8.65 -3.65 -8.8 -3.7 -8.9 -3.7 -9.0 -3.7 -9.15 -3.65 -9.15 L-3.2 -9.15 Q-2.85 -9.2 -2.7 -9.35 -2.55 -9.55 -2.3 -9.45 M-5.4 -10.2 Q-5.4 -10.15 -5.4 -10.1 -5.4 -10.0 -5.45 -9.85 L-5.55 -9.65 -5.95 -9.8 Q-6.1 -9.9 -6.1 -10.05 -6.1 -10.2 -6.05 -10.25 -6.05 -10.3 -5.95 -10.3 -5.65 -10.2 -5.45 -10.2 L-5.4 -10.2 M-0.75 -6.55 L-0.8 -6.45 -0.8 -6.4 -1.05 -6.4 -1.05 -6.45 Q-1.05 -6.55 -1.05 -6.6 -1.0 -6.65 -0.95 -6.7 -0.8 -6.65 -0.75 -6.55 M-10.15 -11.25 L-10.3 -11.15 Q-10.4 -11.1 -10.5 -11.1 L-10.6 -11.1 Q-10.65 -11.15 -10.65 -11.25 L-10.65 -11.35 -10.4 -11.4 Q-10.3 -11.4 -10.15 -11.35 L-10.15 -11.25 M-8.6 -4.85 L-8.9 -4.85 -8.95 -4.8 -8.95 -4.7 Q-8.95 -4.6 -8.9 -4.6 L-8.8 -4.6 Q-8.85 -4.6 -8.95 -4.55 -9.05 -4.5 -9.15 -4.5 L-9.2 -4.45 -9.2 -4.55 Q-9.2 -4.85 -9.1 -5.05 -8.9 -5.3 -8.45 -4.85 -8.5 -4.8 -8.6 -4.85 M-5.15 -5.15 Q-5.15 -5.1 -5.15 -5.05 -5.15 -4.95 -5.25 -4.9 L-5.45 -4.75 -5.55 -4.85 -5.7 -4.95 Q-5.6 -5.0 -5.45 -5.1 -5.3 -5.15 -5.2 -5.15 L-5.15 -5.15 M-2.35 1.35 Q-2.35 1.45 -2.45 1.55 -2.5 1.65 -2.65 1.65 -3.2 1.65 -3.55 1.5 L-3.65 1.45 Q-3.75 1.5 -3.95 1.5 L-4.5 1.55 -5.05 1.55 -5.1 1.5 Q-4.95 1.45 -4.8 1.4 -4.85 1.35 -4.85 1.3 -4.85 1.0 -4.7 0.95 -4.55 0.9 -4.3 0.95 -4.25 1.0 -4.15 1.05 -4.05 1.0 -3.8 1.05 -3.65 1.05 -3.4 1.1 L-2.9 1.15 Q-2.35 1.2 -2.35 1.35 M-6.05 1.3 Q-5.5 1.45 -5.35 1.5 -5.45 1.55 -5.65 1.65 -5.9 1.7 -6.0 1.7 -6.15 1.7 -6.75 1.55 L-7.35 1.4 Q-7.55 1.4 -7.6 1.5 -7.7 1.6 -7.8 1.6 L-7.95 1.6 Q-8.0 1.55 -8.0 1.45 -8.0 0.95 -6.9 1.1 -6.75 1.15 -6.5 1.2 -6.4 1.15 -6.1 1.2 L-6.05 1.2 Q-6.05 1.25 -6.05 1.3" fill="#98ccc0" fill-opacity="0.7529412" fill-rule="evenodd" stroke="none"/>
      <path d="M0.7 -12.45 L1.0 -12.1 Q1.0 -12.05 0.9 -11.7 0.85 -11.35 0.8 -11.3 L0.85 -11.25 Q0.85 -11.15 0.85 -11.05 0.8 -10.7 0.75 -10.65 0.7 -10.7 0.6 -10.85 0.5 -11.05 0.5 -11.15 0.5 -11.2 0.6 -11.3 0.65 -11.35 0.7 -11.4 L0.15 -12.1 Q-0.4 -12.75 -0.55 -12.75 -0.8 -12.75 -0.85 -12.9 -0.85 -13.0 -0.85 -13.1 -0.85 -13.9 0.1 -13.1 0.35 -12.85 0.7 -12.45 M2.6 -4.0 L2.3 -3.9 Q2.1 -4.05 2.1 -4.1 2.1 -4.25 2.2 -4.3 2.25 -4.4 2.4 -4.4 2.5 -4.4 2.6 -4.3 2.7 -4.25 2.7 -4.15 2.7 -4.0 2.6 -4.0 M2.6 1.05 Q2.55 1.1 2.45 1.15 L2.35 1.15 2.35 0.95 Q2.55 0.95 2.6 1.0 L2.6 1.05 M1.3 0.7 Q1.4 0.7 1.45 0.75 L1.5 0.8 Q1.45 0.85 1.3 0.9 L1.25 0.95 Q1.2 0.95 1.15 0.95 L0.95 1.0 0.75 1.0 Q0.7 1.05 0.55 1.05 L0.35 1.05 -0.15 1.1 Q-0.4 1.1 -0.45 1.05 -0.65 1.05 -0.9 1.1 -1.25 1.2 -1.55 1.25 L-1.6 1.3 Q-1.5 1.4 -1.3 1.45 -1.0 1.5 -0.9 1.55 L-0.9 1.7 -1.65 1.7 -2.8 1.75 -3.95 1.85 -4.3 1.8 -4.8 1.7 -5.2 1.75 -5.6 1.75 Q-5.6 1.8 -5.65 1.8 -5.8 1.85 -7.45 1.85 L-8.1 1.85 -8.15 1.8 Q-8.2 1.8 -8.2 1.7 -8.2 1.65 -7.9 1.5 -7.55 1.3 -7.2 1.3 L-6.65 1.35 -6.15 1.45 Q-6.05 1.45 -5.9 1.35 -5.75 1.3 -5.65 1.3 -5.6 1.3 -5.35 1.35 -5.1 1.45 -5.0 1.45 -4.55 1.45 -4.3 1.45 L-4.3 1.4 Q-4.3 1.25 -4.15 1.2 -4.05 1.15 -3.85 1.2 -3.65 1.2 -3.5 1.3 -3.45 1.35 -3.4 1.35 L-1.85 1.45 -1.8 1.5 -1.7 1.5 Q-1.95 1.45 -2.0 1.35 -2.05 1.35 -2.05 1.25 -2.05 1.15 -1.95 1.1 -1.85 1.05 -1.65 1.0 L-1.3 0.95 Q-1.05 0.95 -0.9 0.85 -0.65 0.75 -0.5 0.7 L-0.5 0.6 -0.45 0.55 Q-0.25 0.55 0.2 0.65 0.35 0.7 0.5 0.75 0.95 0.7 1.1 0.7 L1.3 0.7 M-10.95 -12.65 L-10.8 -12.65 Q-10.9 -12.75 -11.0 -12.8 -10.95 -12.75 -10.95 -12.65 M-10.75 -12.85 L-10.25 -12.45 Q-10.0 -12.2 -9.9 -12.2 L-9.75 -12.25 Q-9.6 -12.3 -9.4 -12.4 -9.4 -12.45 -9.4 -12.5 L-9.45 -12.65 -9.4 -12.65 Q-9.35 -12.7 -9.3 -12.7 -9.05 -12.55 -8.95 -12.3 -8.9 -12.0 -8.85 -11.85 L-8.9 -11.75 -8.85 -11.75 Q-8.9 -11.75 -9.0 -11.75 -9.15 -11.75 -9.35 -11.8 L-9.55 -11.9 Q-10.15 -11.9 -10.45 -12.2 L-10.5 -12.25 -10.6 -12.05 Q-10.65 -11.9 -10.75 -11.85 -11.0 -11.6 -11.6 -11.6 -11.95 -11.6 -12.2 -11.95 -12.35 -12.15 -12.4 -12.3 L-12.4 -12.45 Q-12.35 -12.5 -12.2 -12.5 -11.85 -12.5 -11.7 -12.45 -11.55 -12.4 -11.5 -12.3 L-11.2 -12.3 Q-11.2 -12.4 -11.25 -12.55 -11.35 -12.7 -11.35 -12.8 -11.35 -13.15 -11.15 -13.1 -11.0 -13.1 -10.75 -12.85 M-3.0 -16.6 Q-3.0 -16.5 -3.15 -16.45 -3.2 -16.4 -3.25 -16.4 -3.4 -16.4 -3.55 -16.5 L-3.75 -16.7 Q-3.85 -16.6 -3.95 -16.4 L-3.95 -16.3 Q-3.95 -16.0 -4.2 -15.4 -4.35 -15.15 -4.5 -14.85 -4.6 -14.5 -4.6 -14.35 -4.6 -14.2 -4.75 -14.05 L-5.0 -13.8 Q-5.15 -13.65 -5.2 -13.55 -5.25 -13.4 -5.2 -13.3 L-5.3 -13.2 Q-5.55 -13.3 -5.8 -13.8 -5.8 -13.95 -5.7 -14.0 -5.65 -14.05 -5.45 -14.1 -5.25 -14.15 -5.2 -14.2 -5.05 -14.3 -5.0 -14.5 L-4.9 -15.0 Q-4.85 -15.35 -4.8 -15.55 -4.75 -15.7 -4.65 -16.05 -4.6 -16.4 -4.5 -16.55 -4.3 -17.15 -3.95 -17.5 -3.7 -17.35 -3.4 -17.2 -3.2 -17.05 -3.15 -17.05 -3.05 -16.95 -3.05 -16.9 -3.0 -16.8 -3.0 -16.6 M-2.65 -15.3 Q-2.8 -15.25 -2.85 -15.25 -3.0 -15.25 -3.1 -15.35 -3.1 -15.4 -3.1 -15.45 -3.1 -15.65 -3.0 -15.8 -2.95 -15.9 -2.8 -15.9 -2.7 -15.9 -2.6 -15.8 -2.5 -15.7 -2.5 -15.5 -2.5 -15.4 -2.65 -15.3 M-3.95 -17.15 L-3.95 -17.25 -4.0 -17.1 -3.95 -17.15 M-4.8 -14.7 L-4.8 -14.55 -4.75 -14.65 -4.8 -14.7 M-2.05 -13.45 Q-2.05 -13.5 -2.05 -13.6 -2.05 -13.65 -2.0 -13.7 L-1.95 -13.7 Q-1.85 -13.7 -1.85 -13.65 -1.8 -13.6 -1.8 -13.55 L-1.85 -13.45 Q-1.9 -13.45 -1.95 -13.45 L-2.05 -13.45 M-1.65 -12.7 Q-1.65 -12.85 -1.6 -12.85 -1.55 -12.95 -1.2 -12.9 L-1.15 -12.85 Q-1.15 -12.8 -1.15 -12.75 -1.15 -12.7 -1.2 -12.65 -1.3 -12.55 -1.45 -12.5 L-1.6 -12.65 Q-1.65 -12.65 -1.65 -12.7 M-12.65 -10.8 Q-12.5 -10.85 -12.3 -10.8 -12.1 -10.8 -11.95 -10.65 -11.75 -10.5 -11.7 -10.3 L-11.7 -10.25 -11.75 -10.2 Q-11.85 -10.25 -11.95 -10.35 L-12.1 -10.45 -12.15 -10.45 -12.1 -10.4 -12.1 -10.35 Q-12.15 -10.25 -12.25 -10.25 L-12.5 -10.15 Q-12.5 -10.05 -12.55 -10.0 -12.65 -9.9 -12.9 -9.9 -13.35 -9.9 -13.45 -9.95 L-13.55 -10.0 Q-13.45 -9.95 -13.45 -9.85 L-13.45 -9.7 -13.5 -9.7 Q-13.25 -9.5 -13.15 -9.4 -12.95 -9.25 -12.95 -9.15 -12.95 -9.1 -13.2 -8.75 -13.5 -8.35 -13.5 -8.2 -13.5 -8.1 -13.45 -8.05 L-13.35 -7.95 -13.4 -7.9 Q-13.7 -7.95 -13.75 -8.1 -13.8 -8.1 -13.8 -8.25 -13.8 -8.3 -13.65 -8.5 -13.5 -8.65 -13.5 -8.75 -13.5 -8.8 -13.65 -8.95 -13.75 -9.05 -13.75 -9.15 L-13.65 -9.3 -13.5 -9.4 Q-13.5 -9.55 -13.6 -9.65 L-13.65 -9.7 Q-13.8 -9.7 -13.9 -9.85 -14.05 -9.9 -14.1 -9.95 -14.2 -10.05 -14.2 -10.2 -14.2 -10.3 -14.15 -10.35 L-14.05 -10.4 -14.0 -10.35 Q-13.95 -10.4 -13.8 -10.4 -13.65 -10.4 -13.4 -10.25 -13.2 -10.1 -13.1 -10.1 L-12.8 -10.1 Q-12.75 -10.15 -12.75 -10.3 L-12.8 -10.45 Q-12.8 -10.7 -12.65 -10.8 M-13.7 -4.65 Q-13.65 -4.6 -13.55 -4.45 L-13.45 -4.3 Q-13.45 -4.2 -13.6 -4.1 -13.75 -3.95 -13.85 -3.95 -13.95 -3.95 -14.0 -3.95 L-14.05 -4.0 -14.1 -4.15 Q-14.1 -4.2 -13.9 -4.4 L-13.75 -4.65 Q-13.75 -4.7 -13.7 -4.7 L-13.7 -4.65 M-13.3 -4.85 Q-13.45 -4.8 -13.65 -4.8 -13.95 -4.8 -14.0 -4.95 -14.05 -5.05 -14.05 -5.15 L-14.05 -5.25 -14.0 -5.35 Q-13.65 -5.3 -13.45 -5.25 -13.15 -5.2 -13.15 -5.05 -13.15 -4.95 -13.3 -4.85 M-17.05 -0.35 L-16.65 -0.35 -16.0 -0.4 -15.85 -0.3 -15.75 -0.2 -15.9 -0.05 Q-15.95 0.0 -16.25 0.0 L-16.7 -0.05 Q-16.9 -0.05 -17.05 -0.25 L-17.05 -0.35 M-15.7 -1.15 L-15.7 -1.05 Q-15.7 -0.9 -15.8 -0.8 -15.9 -0.65 -16.05 -0.65 -16.2 -0.65 -16.25 -0.8 -16.35 -0.9 -16.35 -0.95 -16.35 -1.05 -16.2 -1.1 -16.0 -1.2 -15.75 -1.15 L-15.7 -1.15 M-3.0 -9.7 Q-2.85 -9.8 -2.75 -9.85 -2.7 -9.9 -2.6 -9.9 -2.45 -9.9 -2.35 -9.75 -2.25 -9.65 -2.25 -9.6 -2.25 -9.55 -2.35 -9.45 -2.4 -9.3 -2.5 -9.2 -2.85 -8.9 -3.3 -9.0 L-3.25 -8.95 Q-3.25 -8.9 -3.2 -8.85 -3.2 -8.8 -3.3 -8.8 -3.55 -8.8 -3.7 -9.0 -3.75 -9.15 -3.75 -9.25 -3.75 -9.5 -3.6 -9.65 -3.5 -9.8 -3.15 -10.05 -3.1 -10.0 -3.05 -9.9 -3.0 -9.85 -3.0 -9.7 M-5.8 -10.45 Q-5.6 -10.4 -5.5 -10.3 -5.4 -10.2 -5.4 -10.1 -5.4 -10.0 -5.5 -9.95 L-5.8 -9.95 Q-5.8 -9.85 -5.8 -9.8 -5.8 -9.7 -5.8 -9.65 -5.9 -9.7 -6.0 -9.95 -6.15 -10.15 -6.15 -10.3 -6.15 -10.45 -6.05 -10.45 -5.95 -10.5 -5.8 -10.45 M-6.0 -9.15 L-6.1 -9.15 Q-6.2 -9.15 -6.25 -9.15 L-6.25 -9.45 Q-6.15 -9.6 -5.8 -9.6 -5.95 -9.4 -5.95 -9.2 L-6.0 -9.15 M-0.75 -6.7 L-0.7 -6.65 Q-0.7 -6.6 -0.75 -6.55 -0.8 -6.5 -0.85 -6.5 L-1.0 -6.5 Q-1.05 -6.55 -1.05 -6.65 -1.05 -6.75 -1.0 -6.75 L-0.85 -6.8 Q-0.8 -6.75 -0.75 -6.7 M-11.35 -10.7 Q-11.15 -10.75 -11.05 -10.7 -10.9 -10.6 -10.9 -10.5 L-10.9 -10.4 -10.95 -10.35 Q-11.0 -10.35 -11.1 -10.35 -11.25 -10.35 -11.35 -10.45 -11.4 -10.55 -11.4 -10.6 L-11.4 -10.65 -11.35 -10.7 M-7.55 -8.1 Q-7.65 -8.1 -7.7 -8.2 L-7.7 -8.35 Q-7.7 -8.6 -7.5 -8.5 -7.45 -8.5 -7.35 -8.45 -7.3 -8.35 -7.3 -8.3 -7.3 -8.1 -7.55 -8.1 M-8.35 -5.25 L-8.3 -5.1 -8.35 -5.0 Q-8.35 -4.95 -8.45 -4.95 L-8.8 -5.0 Q-8.95 -5.0 -9.05 -5.0 -8.95 -5.1 -8.75 -5.15 L-8.45 -5.15 Q-8.45 -5.2 -8.45 -5.25 L-8.45 -5.4 -8.35 -5.4 Q-8.35 -5.35 -8.35 -5.25 M-8.95 -4.5 L-8.9 -4.45 Q-8.95 -4.45 -9.05 -4.45 -9.2 -4.45 -9.25 -4.5 L-9.25 -4.6 Q-9.25 -4.65 -9.2 -4.75 -9.1 -4.85 -9.0 -4.85 -9.0 -4.7 -8.95 -4.5 M-1.85 -3.75 Q-1.9 -3.85 -1.9 -3.9 L-1.9 -4.05 Q-1.8 -4.1 -1.65 -4.05 -1.55 -4.0 -1.45 -3.9 -1.5 -3.85 -1.5 -3.8 -1.55 -3.75 -1.7 -3.75 L-1.85 -3.75 M-5.05 -5.35 Q-5.05 -5.2 -5.15 -5.15 -5.3 -5.05 -5.5 -4.95 -5.6 -5.0 -5.65 -5.05 L-5.7 -5.1 -5.7 -4.9 Q-5.65 -4.75 -5.65 -4.65 L-5.75 -4.6 Q-5.85 -4.6 -5.9 -4.6 -5.85 -4.75 -5.8 -4.95 L-5.8 -5.3 Q-5.8 -5.35 -5.65 -5.45 -5.55 -5.55 -5.4 -5.6 -5.25 -5.65 -5.15 -5.6 -5.05 -5.55 -5.05 -5.35 M-5.65 1.5 L-5.85 1.55 -5.35 1.55 -5.65 1.5 M-7.2 1.55 Q-7.25 1.55 -7.3 1.6 L-7.0 1.6 -7.2 1.55" fill="#bdfff0" fill-opacity="0.7529412" fill-rule="evenodd" stroke="none"/>
    </g>
    <g id="shape2" transform="matrix(1.0, 0.0, 0.0, 1.0, 1.15, 1.15)">
      <path d="M0.8 -0.85 Q1.15 -0.5 1.15 0.0 1.15 0.5 0.8 0.8 0.5 1.15 0.0 1.15 -0.5 1.15 -0.85 0.8 -1.15 0.5 -1.15 0.0 -1.15 -0.5 -0.85 -0.85 -0.5 -1.15 0.0 -1.15 0.5 -1.15 0.8 -0.85" fill="#e8f6fb" fill-opacity="0.8862745" fill-rule="evenodd" stroke="none"/>
    </g>
  </defs>
</svg>
