<?xml version="1.0" encoding="UTF-8" standalone="no"?>
<svg xmlns:ffdec="https://www.free-decompiler.com/flash" xmlns:xlink="http://www.w3.org/1999/xlink" ffdec:objectType="frame" height="181.65px" width="229.0px" xmlns="http://www.w3.org/2000/svg">
  <g transform="matrix(1.0, 0.0, 0.0, 1.0, 110.25, 156.1)">
    <use ffdec:characterId="993" height="21.6" transform="matrix(7.0, 0.0, 0.0, 7.0, -79.8, -140.7)" width="19.0" xlink:href="#shape0"/>
  </g>
  <defs>
    <g id="shape0" transform="matrix(1.0, 0.0, 0.0, 1.0, 11.4, 20.1)">
      <path d="M4.25 -18.55 Q4.25 -18.1 3.75 -17.4 3.45 -17.05 3.15 -16.85 L3.1 -16.8 Q2.6 -16.1 1.8 -16.1 L1.55 -16.1 1.5 -16.3 Q1.35 -16.5 0.9 -16.5 0.65 -16.5 0.4 -16.4 0.1 -16.3 -0.05 -16.3 -0.9 -16.3 -1.2 -16.7 L-1.25 -16.7 -1.3 -16.65 Q-1.35 -16.6 -1.45 -16.6 L-1.95 -16.6 -2.4 -16.65 -2.5 -16.7 -2.65 -16.8 -2.85 -17.0 Q-2.75 -17.15 -2.75 -17.2 -2.75 -17.25 -2.95 -17.4 L-3.0 -17.45 -3.05 -17.45 -3.25 -17.5 -3.75 -17.55 -4.45 -17.45 -4.55 -17.4 -4.6 -17.45 -4.55 -17.45 -4.8 -17.35 Q-5.0 -17.25 -5.15 -17.15 L-5.65 -16.95 -6.05 -16.9 -6.5 -16.8 -7.1 -16.5 Q-7.5 -16.35 -8.05 -15.85 -8.6 -15.4 -8.6 -15.15 -8.6 -15.1 -8.6 -15.05 L-8.5 -15.0 -8.8 -14.8 -8.9 -14.85 Q-9.55 -14.4 -9.85 -13.85 L-9.8 -13.8 -10.1 -13.2 Q-10.3 -12.9 -10.3 -12.65 L-10.3 -12.6 Q-10.3 -12.3 -10.15 -12.2 L-10.0 -12.2 -9.85 -12.0 Q-9.8 -11.8 -9.8 -11.7 -9.8 -11.5 -10.1 -11.15 -10.35 -10.8 -10.55 -10.65 L-10.7 -10.65 Q-10.95 -10.4 -10.9 -10.25 -10.85 -10.05 -10.85 -9.85 L-10.85 -9.8 -10.9 -9.8 -11.0 -10.15 Q-11.1 -10.4 -11.1 -10.5 -11.1 -10.75 -11.0 -11.1 L-10.8 -11.75 -10.8 -12.2 Q-10.85 -12.3 -10.95 -12.25 L-11.05 -12.25 -11.05 -12.3 Q-11.05 -12.45 -10.85 -12.8 L-10.65 -13.15 -10.45 -13.35 -10.4 -13.35 -10.45 -13.4 Q-10.4 -13.5 -10.25 -13.85 -10.05 -14.25 -10.05 -14.3 L-10.15 -14.4 Q-10.15 -15.05 -8.8 -16.3 -7.45 -17.55 -6.5 -17.95 L-6.55 -17.9 -6.55 -18.0 Q-6.55 -18.1 -5.75 -18.4 L-5.65 -18.4 -5.6 -18.35 Q-5.6 -18.3 -5.65 -18.25 L-5.65 -18.2 -5.7 -18.2 Q-5.25 -18.2 -4.75 -18.55 L-4.35 -18.9 -4.45 -18.95 -3.65 -19.45 Q-3.15 -19.7 -2.3 -19.85 L-1.9 -19.85 -1.9 -19.9 -0.6 -19.75 Q-0.35 -19.7 -0.3 -19.6 L-0.45 -19.45 0.65 -19.55 1.05 -19.65 1.2 -19.75 Q1.35 -19.85 1.3 -19.95 L1.25 -20.05 2.05 -20.1 2.45 -20.1 Q3.75 -19.85 4.1 -19.35 4.25 -19.1 4.25 -18.55 M3.25 -11.95 L3.2 -12.0 Q2.85 -11.9 2.85 -11.75 2.9 -11.6 2.9 -11.5 2.9 -11.4 2.8 -11.25 2.75 -11.2 2.75 -11.05 2.75 -10.95 2.65 -10.9 2.6 -10.8 2.45 -10.8 2.3 -10.8 1.95 -10.25 2.0 -10.2 2.05 -10.1 2.15 -9.85 2.15 -9.7 2.15 -9.45 2.05 -9.3 1.95 -9.15 1.95 -9.0 L2.05 -8.7 Q2.05 -8.6 1.95 -8.5 1.85 -8.45 1.8 -8.45 L1.1 -8.45 0.9 -8.5 0.65 -8.5 Q0.6 -8.45 0.65 -8.35 L0.6 -8.3 0.5 -8.4 Q0.35 -8.4 0.3 -8.25 L0.45 -7.9 Q0.65 -7.75 0.8 -7.5 1.05 -7.25 1.15 -6.95 L1.25 -7.05 Q1.6 -7.05 1.8 -6.65 2.0 -6.3 2.0 -6.15 L1.95 -6.0 1.95 -5.9 Q1.95 -5.75 2.15 -5.45 2.35 -5.1 2.35 -4.75 L2.3 -4.45 Q2.45 -4.45 2.6 -4.35 2.75 -4.25 2.75 -4.1 L2.65 -3.7 2.6 -3.65 2.6 -3.7 2.5 -3.5 Q2.3 -3.3 2.3 -3.15 2.3 -2.45 2.7 -2.35 2.9 -2.3 3.0 -2.25 3.1 -2.1 3.1 -1.75 3.1 -1.6 3.05 -1.45 2.95 -1.25 2.95 -1.15 2.95 -0.95 3.05 -0.75 L3.15 -0.4 3.3 -0.1 Q3.45 0.15 3.45 0.4 3.45 0.8 2.75 0.8 2.0 0.8 1.55 0.5 1.2 0.25 1.2 0.0 1.2 -0.15 1.3 -0.45 L1.4 -0.75 1.35 -0.75 1.2 -1.2 1.0 -1.45 0.9 -1.5 Q0.45 -1.5 0.2 -1.15 -0.05 -0.8 -0.4 -0.8 L-0.65 -0.8 -0.8 -0.9 Q-1.15 -0.9 -1.3 -0.55 -1.4 -0.4 -1.4 -0.2 L-1.3 0.1 -1.35 0.15 Q-1.35 0.2 -1.45 0.25 -1.65 0.35 -1.9 0.35 -2.1 0.35 -2.2 0.3 L-2.35 0.2 -2.6 0.35 Q-2.85 0.5 -3.1 0.5 L-3.45 0.45 -3.7 0.45 Q-4.75 0.55 -4.75 -0.15 -4.75 -0.5 -4.5 -0.75 L-4.45 -0.9 Q-4.4 -1.1 -4.4 -1.2 L-4.45 -1.5 Q-4.45 -1.75 -4.5 -1.8 L-4.6 -1.7 Q-4.6 -1.75 -4.6 -1.9 L-4.5 -2.35 Q-4.45 -2.45 -4.35 -2.5 -4.15 -2.6 -4.1 -2.65 -4.0 -2.75 -3.9 -3.05 L-3.8 -3.35 -3.9 -3.4 Q-4.4 -3.65 -4.4 -4.1 -4.4 -4.55 -4.05 -5.05 -4.0 -5.15 -3.9 -5.5 -3.85 -5.9 -3.95 -5.9 L-3.95 -6.0 Q-3.95 -6.4 -3.55 -6.75 -3.15 -7.15 -3.15 -7.55 L-3.2 -7.65 -3.3 -7.7 -3.15 -8.15 Q-2.95 -8.45 -2.4 -8.5 L-2.45 -8.65 Q-2.45 -8.75 -2.55 -8.8 L-2.8 -8.75 -2.9 -8.75 Q-3.25 -8.75 -3.35 -8.95 -3.5 -9.2 -3.55 -9.2 -3.75 -9.2 -3.75 -9.7 -3.75 -9.9 -3.65 -10.15 -3.5 -10.4 -3.5 -10.6 L-3.45 -10.5 -3.35 -10.65 -3.2 -10.95 -3.15 -10.9 -3.15 -10.85 Q-3.1 -11.1 -3.0 -11.1 L-3.0 -11.05 -3.15 -10.55 Q-3.15 -10.45 -3.15 -10.4 L-3.0 -10.4 -2.85 -10.55 Q-2.8 -10.65 -2.8 -10.7 L-2.8 -10.75 -2.9 -10.8 -2.95 -10.85 -2.85 -10.95 -2.7 -11.05 -2.7 -11.1 Q-2.7 -11.2 -2.8 -11.3 L-2.95 -11.45 -2.9 -11.5 Q-3.0 -11.5 -3.05 -11.65 L-3.1 -11.9 Q-3.15 -12.0 -3.25 -12.1 -3.4 -12.15 -3.4 -12.25 -3.4 -12.45 -3.3 -12.55 L-2.95 -12.85 -2.8 -12.85 Q-2.7 -12.9 -2.65 -12.95 -2.65 -13.0 -2.75 -12.95 L-2.75 -13.0 -2.4 -13.0 -2.35 -12.9 -2.3 -12.85 -2.3 -12.8 -2.35 -12.8 -2.45 -12.75 -2.05 -12.65 -2.25 -12.6 -2.25 -12.5 -2.35 -12.4 -2.3 -12.3 -2.25 -12.25 -2.2 -12.15 Q-2.2 -12.1 -2.25 -12.1 L-2.1 -11.85 Q-2.0 -11.7 -1.95 -11.7 L-1.9 -11.7 -1.9 -11.75 -1.85 -11.8 Q-1.8 -11.8 -1.8 -11.85 L-1.85 -11.95 -1.9 -12.0 Q-1.9 -12.2 -1.75 -12.4 L-1.65 -12.65 -1.7 -12.8 -1.85 -13.0 -1.9 -12.95 -1.95 -12.95 Q-2.05 -13.0 -2.05 -13.1 -2.05 -13.4 -1.55 -13.5 -1.05 -13.65 -1.05 -13.35 -1.05 -13.3 -1.05 -13.25 L-1.1 -13.2 -0.95 -13.1 Q-0.65 -13.1 -0.55 -13.15 L-0.45 -13.3 -0.6 -13.4 Q-0.65 -13.4 -0.65 -13.45 -0.65 -13.55 -0.5 -13.65 -0.3 -13.75 0.0 -13.7 L0.0 -13.75 0.25 -13.75 Q0.55 -13.5 0.7 -13.25 0.8 -13.05 0.9 -12.75 0.65 -12.85 0.55 -12.75 L0.55 -12.6 0.75 -12.6 0.95 -12.65 1.1 -12.8 1.05 -12.9 Q1.0 -12.95 0.95 -13.05 L0.95 -13.1 1.0 -13.1 Q1.0 -13.15 1.1 -13.2 L1.3 -13.2 1.35 -13.1 Q1.4 -13.0 1.5 -13.0 1.55 -13.0 1.6 -13.1 1.6 -13.2 1.7 -13.2 1.9 -13.2 2.1 -12.95 2.35 -12.8 2.35 -12.7 L2.25 -12.4 Q2.25 -12.35 2.25 -12.3 L2.3 -12.3 Q2.4 -12.25 2.5 -12.2 L2.45 -12.25 2.5 -12.35 Q2.55 -12.4 2.65 -12.4 2.95 -12.4 3.1 -12.25 L3.25 -12.05 3.25 -11.95 M3.1 -10.75 Q3.1 -10.85 3.3 -11.05 L3.35 -11.05 3.35 -10.95 Q3.35 -10.9 3.45 -10.9 L3.65 -10.95 3.7 -10.75 3.75 -10.6 Q3.65 -10.4 3.55 -10.35 L3.55 -10.5 Q3.4 -10.8 3.3 -10.8 L3.2 -10.75 3.1 -10.75 M1.55 -12.45 L1.55 -12.35 1.7 -12.35 Q1.7 -12.4 1.7 -12.45 L1.7 -12.5 1.6 -12.5 1.55 -12.45 M1.1 -8.2 L1.2 -8.25 1.55 -8.2 Q1.65 -8.2 1.65 -8.15 L1.65 -8.05 1.6 -7.95 1.55 -7.95 1.5 -8.0 1.3 -8.0 1.05 -7.8 1.05 -8.1 Q1.05 -8.15 1.1 -8.2 M2.3 -8.75 L2.45 -8.7 2.45 -8.6 2.4 -8.5 2.45 -8.4 2.7 -8.4 2.6 -8.3 2.4 -8.25 2.3 -8.25 Q2.2 -8.25 2.2 -8.35 L2.2 -8.45 2.3 -8.75 M0.05 -0.25 L-0.4 -0.2 -0.55 -0.15 -0.4 -0.3 Q0.0 -0.45 0.15 -0.25 L0.15 -0.2 0.05 -0.25 M0.35 -0.15 L0.4 -0.1 0.35 -0.05 0.25 -0.15 0.3 -0.2 0.35 -0.15 M5.3 -0.15 L5.25 -0.25 Q5.2 -0.3 5.0 -0.35 5.0 -0.65 5.35 -0.55 5.7 -0.45 5.7 -0.2 L5.6 -0.2 Q5.45 -0.2 5.35 -0.1 L5.3 0.1 Q5.25 0.15 5.25 0.05 L5.25 -0.05 5.3 -0.15 M6.65 -0.05 L6.6 -0.1 Q6.75 -0.25 6.95 -0.3 7.2 -0.4 7.45 -0.3 L7.6 -0.05 Q7.5 -0.05 7.4 -0.1 L7.25 -0.15 6.75 -0.1 6.65 -0.05 M5.85 1.3 L5.8 1.2 5.8 1.15 Q5.8 1.1 5.7 1.05 L5.45 1.0 Q5.6 0.85 5.75 0.95 5.9 1.05 5.9 1.1 5.9 1.25 5.85 1.3 M5.8 1.4 Q5.75 1.4 5.7 1.45 L5.6 1.4 Q5.65 1.35 5.7 1.35 L5.8 1.35 5.8 1.4 M4.15 1.15 Q4.2 1.0 4.1 0.95 L4.35 0.95 4.25 1.2 4.2 1.2 4.05 1.4 Q4.0 1.4 3.95 1.4 4.1 1.3 4.15 1.15 M3.05 1.5 L3.0 1.5 3.0 1.4 Q2.95 1.3 2.8 1.25 L2.75 1.2 Q3.15 1.15 3.15 1.35 L3.05 1.5 M2.0 0.95 Q1.65 1.0 1.45 1.1 1.35 1.15 1.3 1.3 L1.25 1.2 1.2 1.15 Q1.2 1.05 1.45 0.95 L2.0 0.95 M2.35 0.9 Q2.35 0.95 2.4 1.0 L2.35 1.0 2.2 0.95 2.2 0.9 2.35 0.9 M-4.35 -18.8 L-4.25 -18.85 -4.25 -18.9 -4.35 -18.8 M-0.55 -8.5 L-0.85 -8.5 Q-0.95 -8.55 -1.05 -8.65 L-1.15 -8.75 -1.3 -8.35 -1.25 -8.25 -1.15 -8.25 Q-0.85 -7.85 -0.75 -7.75 -0.45 -8.0 -0.45 -8.1 L-0.5 -8.15 -0.55 -8.25 -0.5 -8.4 -0.4 -8.5 -0.55 -8.5 M-10.9 -12.35 L-10.9 -12.35 M-11.35 -10.5 Q-11.2 -10.15 -11.25 -10.0 -11.1 -9.95 -11.1 -9.85 L-11.2 -9.3 -11.4 -9.7 -11.4 -10.5 -11.35 -10.5 M-10.9 -8.95 L-10.75 -8.65 Q-10.6 -8.4 -10.6 -8.15 L-10.7 -7.7 -10.6 -7.4 Q-10.6 -7.25 -10.7 -7.15 -10.8 -7.05 -10.8 -6.9 -10.8 -6.4 -10.6 -5.85 -10.3 -5.25 -9.95 -4.9 L-9.95 -4.85 Q-10.6 -5.3 -10.95 -6.15 L-11.1 -6.45 -11.2 -6.8 Q-11.2 -7.0 -11.3 -7.2 L-11.4 -7.4 -11.3 -7.65 Q-11.2 -7.9 -11.1 -7.9 L-11.05 -7.85 -11.05 -7.8 Q-10.9 -7.95 -10.85 -8.05 L-10.85 -8.3 -11.0 -8.85 Q-11.0 -9.05 -10.95 -9.25 L-10.85 -9.25 -10.9 -8.95 M-8.3 -4.5 L-8.3 -4.45 Q-8.05 -4.25 -8.05 -4.0 L-8.05 -3.8 Q-8.1 -3.8 -8.1 -3.95 L-8.2 -3.65 Q-8.2 -3.55 -8.1 -3.3 -7.95 -3.0 -7.7 -2.95 -7.35 -2.9 -7.3 -2.7 -7.15 -2.35 -7.0 -2.25 L-7.05 -2.2 -7.1 -2.2 -7.2 -2.25 -7.3 -2.35 -7.55 -2.4 -8.2 -2.45 -8.4 -2.5 -8.25 -2.5 -8.35 -2.6 Q-8.4 -2.65 -8.5 -2.65 L-8.45 -2.55 -8.6 -2.7 Q-8.8 -2.9 -8.8 -3.15 -8.8 -3.25 -8.8 -3.15 L-8.6 -3.05 Q-8.5 -3.05 -8.45 -3.25 L-8.4 -3.4 Q-8.4 -3.5 -8.6 -3.85 L-8.8 -4.2 Q-8.8 -4.65 -8.5 -4.55 L-8.3 -4.55 Q-8.3 -4.6 -8.3 -4.5 M-9.3 -4.9 L-9.25 -4.9 -9.25 -4.85 Q-9.15 -4.75 -9.05 -4.6 L-9.1 -4.6 -9.1 -4.55 -9.25 -4.7 -9.7 -4.7 -9.65 -4.75 Q-9.75 -4.75 -9.8 -4.8 L-9.85 -4.95 -9.8 -5.0 -9.7 -4.95 -9.35 -4.95 -9.3 -4.9 M-6.55 -2.4 L-6.65 -2.45 Q-6.6 -2.5 -6.55 -2.55 L-6.15 -2.5 Q-5.95 -2.35 -5.95 -2.3 L-5.95 -2.2 -6.0 -2.2 -6.05 -2.3 -6.2 -2.15 -6.1 -1.55 Q-6.1 -1.5 -6.0 -1.5 -5.9 -1.5 -5.8 -1.35 L-5.65 -1.05 -5.7 -1.05 Q-5.85 -1.2 -6.0 -1.15 L-6.45 -1.2 -6.6 -1.2 Q-6.75 -1.3 -6.75 -1.35 L-6.75 -1.45 -6.65 -1.45 Q-6.5 -1.45 -6.45 -1.55 L-6.45 -1.7 Q-6.45 -2.05 -6.8 -2.3 L-6.55 -2.4 M-3.45 -1.9 Q-3.6 -1.55 -3.6 -1.2 L-3.55 -1.25 Q-3.3 -1.45 -3.3 -1.75 L-3.45 -1.95 -3.45 -1.9 M-4.9 -1.1 L-5.05 -1.15 -5.05 -1.1 -5.1 -1.15 Q-5.1 -1.3 -5.0 -1.25 -4.9 -1.25 -4.75 -1.15 L-4.8 -1.05 -4.9 -1.1 M-5.2 -1.05 L-5.25 -1.1 -5.2 -1.15 -5.1 -1.15 Q-5.2 -1.1 -5.2 -1.05 M-1.05 0.9 L-1.35 0.9 Q-1.4 0.95 -1.6 0.95 -1.75 1.15 -2.15 1.2 L-2.45 1.05 -2.45 1.0 -2.0 1.0 -1.95 0.9 Q-1.85 0.85 -1.55 0.8 L-1.1 0.85 -1.05 0.9" fill="#ffd327" fill-rule="evenodd" stroke="none"/>
      <path d="M0.3 -12.65 L0.3 -12.6 0.0 -12.6 Q-0.15 -12.65 -0.2 -12.7 L-0.25 -12.8 -0.4 -12.95 -0.4 -13.05 -0.3 -13.0 -0.25 -12.95 Q-0.05 -12.95 0.05 -12.85 0.15 -12.7 0.3 -12.65 M1.0 -11.85 L1.0 -11.7 0.95 -11.55 0.95 -11.5 Q1.0 -11.4 1.2 -11.45 L1.2 -11.25 1.25 -11.2 1.3 -11.2 Q1.65 -11.2 1.85 -11.4 2.05 -11.55 2.15 -11.55 L2.25 -11.55 2.25 -11.6 Q2.45 -11.75 2.45 -11.85 L2.35 -12.0 2.35 -12.05 2.25 -12.1 Q2.35 -12.1 2.4 -12.05 L2.45 -12.05 2.5 -12.1 2.55 -12.05 2.6 -12.1 Q2.7 -12.1 2.7 -12.0 2.75 -11.2 2.6 -11.2 L2.5 -11.2 2.3 -11.05 Q2.25 -11.1 2.1 -10.95 L2.05 -10.95 Q1.95 -10.85 1.85 -10.65 L1.85 -10.6 Q1.8 -10.5 1.8 -10.35 L1.8 -10.8 1.75 -10.8 Q1.7 -10.8 1.25 -10.55 L1.15 -10.45 Q1.1 -10.4 1.15 -10.3 L1.1 -10.3 Q1.05 -10.3 1.0 -10.35 L0.85 -10.45 Q0.55 -10.55 0.55 -10.65 L0.6 -10.75 0.7 -10.85 0.6 -11.05 0.6 -11.1 0.65 -11.2 0.75 -11.3 0.8 -11.5 0.7 -11.6 0.7 -11.65 0.8 -11.65 Q0.85 -11.65 0.9 -11.75 L0.95 -11.85 1.0 -11.85 M0.5 -11.6 L0.6 -11.45 0.65 -11.35 0.6 -11.3 Q0.6 -11.25 0.5 -11.25 L0.45 -11.2 0.45 -11.1 0.5 -10.85 0.5 -10.75 0.4 -10.65 Q0.3 -10.6 0.3 -10.55 L0.35 -10.45 Q0.35 -10.35 0.3 -10.3 L0.3 -10.25 Q0.3 -9.95 -0.2 -9.9 L-0.3 -9.85 Q-0.3 -9.7 -0.4 -9.55 -0.6 -9.3 -1.0 -9.3 -1.15 -9.2 -1.45 -9.05 -1.75 -8.95 -1.95 -8.95 L-2.35 -8.95 -2.35 -9.0 Q-2.4 -9.0 -2.45 -9.0 L-2.65 -8.95 -2.8 -8.95 Q-3.15 -8.95 -3.25 -9.05 L-3.3 -9.25 Q-3.35 -9.35 -3.45 -9.4 -3.55 -9.45 -3.55 -9.5 L-3.55 -9.65 -3.4 -9.85 -3.4 -9.65 Q-3.4 -9.55 -3.2 -9.55 L-2.9 -9.55 -2.4 -9.45 -2.2 -9.45 Q-2.1 -9.45 -1.95 -9.6 L-1.75 -9.8 Q-1.55 -9.9 -1.45 -10.0 -1.3 -10.15 -1.4 -10.2 -1.35 -10.2 -1.3 -10.2 L-1.1 -10.2 Q-1.0 -10.15 -1.0 -10.1 -0.95 -10.0 -1.0 -9.95 L-0.85 -9.9 Q-0.7 -9.9 -0.6 -10.1 -0.45 -10.3 -0.5 -10.55 L-0.4 -10.55 Q-0.45 -10.8 -0.65 -11.0 L-0.55 -10.9 -0.5 -10.9 -0.5 -10.95 -0.4 -10.9 -0.25 -10.8 -0.3 -10.7 -0.2 -10.6 -0.2 -10.65 -0.25 -10.7 -0.2 -10.8 Q-0.1 -10.85 0.05 -10.8 0.15 -10.9 0.15 -11.0 0.15 -11.2 0.2 -11.25 L0.3 -11.3 0.4 -11.4 Q0.45 -11.45 0.45 -11.6 L0.5 -11.6 M2.0 -9.75 L2.0 -9.6 Q2.0 -9.55 1.9 -9.45 1.85 -9.4 1.8 -9.2 L1.8 -8.7 Q1.7 -8.65 1.45 -8.65 L1.05 -8.65 0.95 -8.75 Q0.2 -8.55 0.2 -8.3 L0.2 -8.5 0.25 -8.7 -0.05 -8.9 -0.45 -8.9 -0.45 -8.85 -0.55 -8.85 Q-0.65 -8.85 -0.75 -8.95 L-0.9 -9.1 Q-0.45 -9.25 -0.2 -9.5 L0.1 -9.85 0.15 -9.85 0.15 -9.75 0.1 -9.65 Q0.25 -9.6 0.4 -9.4 0.45 -9.3 0.7 -9.3 0.95 -9.3 0.95 -9.45 L0.95 -9.5 1.0 -9.5 1.15 -9.45 1.5 -9.45 Q1.6 -9.5 1.65 -9.65 L1.7 -9.85 1.85 -9.8 1.85 -9.85 Q1.95 -9.8 2.0 -9.75 M0.35 -7.75 Q0.4 -7.75 0.55 -7.65 0.65 -7.5 0.7 -7.5 L0.7 -7.35 Q0.7 -7.3 0.85 -7.1 L1.1 -6.75 1.05 -6.75 0.7 -7.2 0.55 -7.3 0.4 -7.45 0.25 -7.65 Q0.25 -7.75 0.35 -7.75 M1.85 -6.2 L1.85 -6.25 1.9 -6.15 1.9 -6.1 1.8 -5.8 Q1.8 -5.65 2.05 -5.45 2.25 -5.2 2.25 -4.75 L2.25 -4.6 2.15 -4.45 2.15 -4.3 Q2.2 -4.15 2.35 -4.05 L2.5 -4.05 2.5 -4.1 2.55 -4.1 2.65 -3.9 2.6 -3.75 2.45 -3.55 2.4 -3.5 2.3 -3.45 2.25 -3.35 2.25 -2.9 2.35 -2.55 2.3 -2.55 2.35 -2.4 Q2.4 -2.25 2.5 -2.2 2.6 -2.15 2.6 -1.95 2.65 -1.8 2.75 -1.8 2.8 -1.8 2.8 -1.85 L2.85 -1.95 Q3.0 -1.95 3.05 -1.6 L3.0 -1.4 Q2.9 -1.25 2.9 -1.15 L2.95 -0.85 3.05 -0.5 Q3.35 -0.05 3.35 0.3 3.35 0.75 2.45 0.75 2.0 0.75 1.7 0.5 1.35 0.25 1.35 -0.05 1.35 -0.2 1.4 -0.4 1.5 -0.65 1.5 -0.8 1.5 -1.1 1.35 -1.3 1.15 -1.45 1.15 -1.75 1.15 -1.9 1.25 -1.95 1.3 -1.95 1.3 -2.05 L1.3 -2.15 1.2 -2.2 1.05 -2.3 Q0.9 -2.3 0.85 -2.4 L0.8 -2.5 0.65 -2.5 0.6 -2.45 Q0.5 -2.4 0.4 -2.4 L0.3 -2.2 0.4 -2.0 0.5 -1.9 0.55 -1.8 Q0.55 -1.65 0.45 -1.6 L0.25 -1.3 0.1 -1.2 -0.1 -1.15 -0.2 -1.0 -0.45 -0.95 -0.75 -1.05 -0.8 -1.05 -1.05 -1.0 Q-1.1 -1.0 -1.15 -1.0 -1.2 -1.0 -1.3 -1.05 L-1.3 -0.85 Q-1.3 -0.75 -1.4 -0.5 L-1.5 -0.15 -1.45 0.1 Q-1.45 0.15 -1.55 0.2 -1.65 0.3 -1.85 0.3 -2.0 0.3 -2.1 0.2 -2.2 0.15 -2.2 0.05 L-2.2 0.0 -2.25 0.0 -2.3 0.05 Q-2.5 0.2 -2.95 0.35 L-4.0 0.35 -4.1 0.3 -4.15 0.35 Q-4.45 0.35 -4.6 0.15 -4.7 0.0 -4.7 -0.15 -4.7 -0.4 -4.6 -0.4 -4.45 -0.4 -4.4 -0.3 -4.3 -0.2 -4.2 -0.2 -4.0 -0.2 -3.9 -0.5 -3.85 -0.65 -3.85 -0.8 -3.85 -0.85 -3.9 -0.9 L-3.8 -1.0 -3.65 -1.0 Q-3.5 -1.0 -3.3 -1.2 -3.15 -1.35 -3.05 -1.5 -3.0 -1.65 -3.0 -1.85 -3.0 -2.1 -3.05 -2.15 -3.15 -2.25 -3.15 -2.4 -3.15 -2.55 -3.1 -2.55 L-3.15 -2.8 -3.15 -2.75 -3.2 -2.75 -3.2 -2.9 Q-3.2 -3.0 -3.1 -3.15 L-3.05 -3.35 -3.0 -3.5 Q-2.95 -3.6 -2.85 -3.6 L-2.65 -4.1 -2.5 -4.45 -2.5 -4.2 -2.4 -4.1 -2.25 -4.0 -2.2 -4.0 -2.1 -4.1 -2.0 -4.15 -1.9 -4.35 -1.85 -4.5 -1.8 -4.7 -1.75 -4.6 -1.8 -4.05 -1.8 -3.95 Q-1.8 -3.85 -1.8 -3.8 L-1.8 -3.75 -1.85 -3.7 -1.85 -3.45 -1.8 -3.3 Q-1.75 -3.3 -1.7 -3.35 -1.7 -3.4 -1.6 -3.4 L-1.55 -3.85 -1.55 -3.6 -1.5 -3.55 -1.5 -3.5 Q-1.45 -3.45 -1.2 -3.45 L-1.1 -3.3 -1.2 -3.2 -1.15 -3.1 -1.1 -3.05 -1.0 -3.05 -1.0 -3.1 -0.95 -3.15 -0.9 -3.15 -0.95 -3.0 Q-0.95 -2.95 -0.85 -2.85 L-0.65 -2.7 -0.55 -2.7 -0.55 -2.75 -0.3 -2.75 -0.15 -2.7 0.0 -2.7 Q0.15 -2.8 0.15 -3.05 L0.15 -3.45 0.2 -3.35 0.3 -3.35 Q0.35 -3.5 0.45 -3.5 L0.45 -3.5 0.5 -3.45 Q0.7 -3.45 0.8 -3.8 L0.9 -4.1 0.85 -4.2 0.8 -4.35 0.65 -4.35 0.7 -4.45 Q0.6 -4.45 0.6 -4.55 0.6 -4.7 0.8 -4.8 1.05 -4.95 1.3 -4.7 L1.35 -4.8 Q1.45 -4.95 1.45 -5.0 1.45 -5.2 1.3 -5.2 L1.35 -5.35 Q1.45 -5.4 1.5 -5.4 L1.65 -5.4 1.65 -5.45 1.6 -5.6 1.6 -5.65 1.5 -5.8 Q1.45 -5.9 1.45 -6.05 L1.55 -5.85 1.6 -5.8 1.6 -5.85 Q1.65 -5.95 1.7 -5.95 L1.8 -6.1 1.85 -6.15 1.8 -6.2 1.85 -6.2 M0.3 -3.9 L0.4 -3.9 Q0.5 -3.85 0.55 -3.75 L0.25 -3.75 0.25 -3.85 Q0.25 -3.9 0.3 -3.9 M1.85 -3.25 Q1.8 -3.35 1.75 -3.3 1.65 -3.5 1.5 -3.3 1.3 -3.1 1.3 -2.95 L1.3 -2.9 1.4 -2.85 1.45 -2.9 1.7 -2.9 1.8 -2.8 Q1.9 -2.8 2.0 -2.95 L1.85 -3.25 M1.8 -1.9 L1.85 -1.95 2.05 -2.0 2.25 -1.95 2.3 -1.95 Q2.35 -1.95 2.35 -2.0 2.35 -2.1 2.1 -2.35 1.9 -2.25 1.85 -2.15 1.75 -2.05 1.8 -1.95 L1.8 -1.9 M-2.7 -12.65 Q-2.7 -12.6 -2.75 -12.55 -2.8 -12.5 -2.8 -12.4 -2.8 -12.2 -2.7 -12.0 -2.6 -11.8 -2.6 -11.65 L-2.6 -11.55 -2.65 -11.5 -2.6 -11.35 -2.5 -11.25 -2.55 -11.25 Q-2.6 -11.25 -2.7 -11.35 L-2.75 -11.5 -3.0 -11.75 -3.05 -12.05 Q-3.1 -12.25 -3.15 -12.25 L-3.15 -12.35 Q-3.15 -12.45 -3.0 -12.6 -2.9 -12.7 -2.85 -12.7 L-2.7 -12.65 M-2.55 -10.9 L-2.55 -11.05 -2.45 -11.0 -2.4 -10.95 Q-2.4 -10.85 -2.45 -10.75 -2.55 -10.6 -2.65 -10.6 L-2.6 -10.7 -2.6 -10.8 -2.65 -10.85 -2.6 -10.85 -2.55 -10.9 M-3.25 -10.35 L-3.25 -10.05 -3.3 -10.0 -3.35 -10.0 -3.35 -10.1 -3.4 -10.2 -3.35 -10.25 -3.35 -10.35 -3.25 -10.35 M-3.0 -7.45 Q-3.0 -7.6 -2.9 -7.75 -2.8 -7.95 -2.6 -8.0 L-3.25 -6.8 -3.2 -6.9 -3.25 -6.95 -3.05 -7.25 -3.0 -7.45 M-0.35 -3.6 L-0.3 -3.5 -0.3 -3.45 -0.35 -3.45 -0.4 -3.5 -0.5 -3.5 Q-0.65 -3.5 -0.7 -3.45 L-0.7 -3.5 Q-0.6 -3.55 -0.6 -3.6 L-0.55 -3.65 -0.35 -3.6 M-3.8 -6.3 L-3.8 -6.15 Q-3.8 -6.0 -3.65 -6.0 -3.65 -5.9 -3.75 -5.8 L-3.75 -5.85 -3.8 -5.95 Q-3.85 -6.05 -3.85 -6.1 L-3.85 -6.2 -3.8 -6.3 M-3.7 -5.9 L-3.75 -5.95 -3.75 -5.9 -3.7 -5.9 M-3.7 -5.65 Q-3.75 -5.55 -3.65 -5.55 L-3.55 -5.65 Q-3.5 -5.75 -3.3 -5.75 L-3.25 -5.7 -3.25 -5.65 Q-3.25 -5.55 -3.35 -5.05 L-3.5 -4.55 -3.6 -4.0 -3.7 -3.7 -3.75 -3.45 -3.75 -3.4 -3.95 -3.5 -4.0 -3.55 -4.05 -3.7 Q-4.05 -3.75 -4.15 -3.8 -4.25 -3.8 -4.25 -4.1 -4.25 -4.25 -4.2 -4.5 -4.1 -4.75 -4.0 -4.85 -3.9 -5.0 -3.8 -5.25 L-3.75 -5.55 -3.7 -5.65 M-3.65 -1.95 L-3.6 -1.95 Q-3.6 -1.9 -3.65 -1.8 -3.7 -1.7 -3.7 -1.6 -3.7 -1.5 -4.0 -1.5 L-4.1 -1.45 -4.15 -1.45 Q-4.15 -1.75 -4.3 -1.8 -4.45 -1.85 -4.45 -2.0 L-4.4 -2.1 -4.35 -2.15 Q-4.2 -2.2 -4.1 -2.05 -3.95 -1.85 -3.85 -1.85 L-3.65 -1.9 -3.65 -1.95 M-4.45 -0.5 L-4.5 -0.55 Q-4.45 -0.7 -4.35 -0.7 L-4.3 -0.7 Q-4.15 -0.7 -4.1 -0.8 L-4.0 -0.9 -4.0 -0.8 -4.05 -0.6 Q-4.15 -0.4 -4.25 -0.4 L-4.4 -0.4 -4.45 -0.5 M-2.95 -1.55 L-2.9 -1.4 -2.75 -1.25 -2.65 -1.25 Q-2.45 -1.25 -2.4 -1.4 -2.35 -1.5 -2.35 -1.6 L-2.35 -1.7 -2.5 -1.75 -2.65 -1.75 Q-2.7 -1.75 -2.7 -1.9 L-2.6 -2.05 -2.65 -2.2 Q-2.75 -2.5 -2.85 -2.5 L-2.95 -2.4 -2.85 -2.2 Q-2.8 -2.1 -2.8 -2.0 -2.8 -1.85 -2.85 -1.75 L-2.95 -1.55 M-1.0 -3.0 L-1.0 -3.0" fill="#ff9a2b" fill-rule="evenodd" stroke="none"/>
    </g>
  </defs>
</svg>
