<?xml version="1.0" encoding="UTF-8" standalone="no"?>
<svg xmlns:ffdec="https://www.free-decompiler.com/flash" xmlns:xlink="http://www.w3.org/1999/xlink" ffdec:objectType="frame" height="52.25px" width="50.55px" xmlns="http://www.w3.org/2000/svg">
  <g transform="matrix(1.0, 0.0, 0.0, 1.0, -2.1, 0.0)">
    <use ffdec:characterId="1434" height="52.25" id="am_CacheIcon" transform="matrix(1.0, 0.0, 0.0, 1.0, 2.1, 0.0)" width="50.55" xlink:href="#sprite0"/>
    <use ffdec:characterId="1393" height="50.0" transform="matrix(0.8492, 0.0, 0.0, 0.8096, 4.7701, 4.7607)" width="45.7" xlink:href="#sprite6"/>
    <use ffdec:characterId="1436" height="39.7" id="am_Selector" transform="matrix(1.0, 0.0, 0.0, 1.0, 5.55, 5.5)" width="38.85" xlink:href="#sprite7"/>
  </g>
  <defs>
    <g id="sprite0" transform="matrix(1.0, 0.0, 0.0, 1.0, -2.1, 0.0)">
      <use ffdec:characterId="1384" height="60.75" transform="matrix(0.8205, 0.0, 0.0, 0.8205, 5.0872, 0.0)" width="47.45" xlink:href="#sprite1"/>
      <use ffdec:characterId="1054" height="30.8" transform="matrix(0.8217, -0.57, 0.57, 0.8217, 2.1047, 26.9259)" width="40.15" xlink:href="#sprite5"/>
    </g>
    <g id="sprite1" transform="matrix(1.0, 0.0, 0.0, 1.0, -6.2, 0.0)">
      <use ffdec:characterId="281" height="129.75" transform="matrix(0.1254, 0.0, 0.0, 0.3025, 20.4184, 21.5)" width="264.95" xlink:href="#sprite2"/>
      <use ffdec:characterId="283" height="129.75" transform="matrix(-0.1161, 0.0, 0.0, -0.3025, 53.242, 39.25)" width="264.95" xlink:href="#sprite3"/>
      <use ffdec:characterId="1382" height="120.35" id="am_GemIcon1" transform="matrix(0.4009, 0.0, 0.0, 0.4006, 6.2112, 6.4498)" width="116.85" xlink:href="#sprite4"/>
      <use ffdec:characterId="1383" height="46.0" transform="matrix(1.0, 0.0, 0.0, 1.0, 8.0, 8.1)" width="45.0" xlink:href="#shape3"/>
    </g>
    <g id="sprite2" transform="matrix(1.0, 0.0, 0.0, 1.0, 15.0, 0.0)">
      <use ffdec:characterId="280" height="129.75" transform="matrix(1.0, 0.0, 0.0, 1.0, -15.0, 0.0)" width="264.95" xlink:href="#shape0"/>
    </g>
    <g id="shape0" transform="matrix(1.0, 0.0, 0.0, 1.0, 15.0, 0.0)">
      <path d="M248.55 117.0 L248.45 117.7 248.35 118.8 248.35 123.5 248.1 125.15 247.0 125.0 246.95 125.0 246.55 124.95 224.7 125.65 200.7 125.65 193.7 125.85 178.5 125.8 178.5 125.75 134.95 125.8 Q132.8 124.65 131.95 124.65 128.5 124.65 123.05 123.4 L118.2 122.15 104.85 121.9 99.35 120.5 94.8 120.0 Q99.65 121.95 115.85 125.8 L56.25 125.85 55.0 125.8 49.45 125.65 49.25 125.65 -10.4 124.95 -10.95 125.0 -11.0 125.0 -12.5 125.15 -12.85 123.5 -12.85 118.8 -12.95 117.7 -13.1 117.0 -9.25 117.25 45.0 116.95 46.2 117.15 47.5 117.4 48.1 117.4 49.45 117.4 49.45 117.35 50.75 117.3 52.75 117.25 92.95 117.4 140.0 117.6 160.0 117.65 162.05 117.65 173.45 117.65 178.5 117.65 178.5 117.4 197.2 117.25 199.2 117.3 203.45 117.4 204.85 117.15 205.75 116.95 245.7 117.25 248.55 117.0 M217.05 122.7 L218.45 123.0 Q220.6 123.0 222.0 121.85 L223.1 120.5 219.0 120.35 Q216.9 120.9 216.1 121.55 L216.2 122.15 217.05 122.7 M164.75 123.45 Q164.75 122.95 165.2 122.5 163.7 121.2 162.2 121.45 160.85 121.65 160.85 122.55 160.85 122.9 161.25 123.15 L162.45 123.9 164.75 123.45 M150.25 123.15 L151.2 123.25 Q154.45 122.9 154.45 121.65 L154.3 120.8 154.1 120.9 151.0 120.75 Q149.85 121.3 149.85 122.05 L149.95 122.85 150.2 123.0 150.25 123.15 M28.35 120.55 Q28.35 121.3 28.65 121.55 L28.85 121.75 30.9 121.9 32.0 121.9 34.95 121.65 35.35 120.5 35.0 119.75 32.0 119.45 30.25 119.5 Q28.35 119.7 28.35 120.55 M21.25 120.75 L20.9 120.4 18.05 120.55 Q16.15 120.85 15.25 121.4 L16.0 121.85 17.65 122.0 19.35 121.65 21.25 120.75" fill="#55654b" fill-rule="evenodd" stroke="none"/>
      <path d="M-13.35 113.5 Q-11.4 112.7 -7.65 113.0 L17.45 113.25 49.45 113.4 52.9 113.4 53.65 113.7 56.85 113.7 63.5 113.75 178.5 114.0 178.5 113.9 196.3 113.7 197.05 113.4 226.05 113.25 244.55 113.0 Q247.3 112.7 248.75 113.5 L249.0 113.65 Q249.95 114.3 249.95 115.05 249.95 116.25 249.1 116.75 L248.55 117.0 245.7 117.25 205.75 116.95 204.85 117.15 203.45 117.4 199.2 117.3 197.2 117.25 178.5 117.4 178.5 117.65 173.45 117.65 162.05 117.65 160.0 117.65 140.0 117.6 92.95 117.4 52.75 117.25 50.75 117.3 49.45 117.35 49.45 117.4 48.1 117.4 47.5 117.4 46.2 117.15 45.0 116.95 -9.25 117.25 -13.1 117.0 -13.85 116.75 Q-15.0 116.25 -15.0 115.05 -15.0 114.3 -13.7 113.65 L-13.35 113.5" fill="#687b5e" fill-rule="evenodd" stroke="none"/>
      <path d="M-13.35 113.5 L-13.65 107.65 Q-13.15 85.35 -13.45 78.9 L-13.5 26.75 Q-14.0 18.75 -13.7 14.55 -13.45 9.35 -11.65 6.05 -11.05 3.75 -7.55 2.05 -3.6 0.15 1.75 0.0 L7.6 0.5 38.5 0.5 47.5 0.65 55.0 0.65 67.25 0.65 68.5 0.65 139.95 0.65 178.5 0.65 210.55 0.5 233.3 0.5 Q235.2 -0.1 237.6 0.0 241.55 0.15 244.45 2.05 247.05 3.75 247.5 6.05 248.8 9.35 249.0 14.55 249.2 18.75 248.85 26.75 L248.8 78.9 Q248.6 85.35 248.95 107.65 L248.75 113.5 Q247.3 112.7 244.55 113.0 L226.05 113.25 197.05 113.4 196.3 113.7 178.5 113.9 178.5 114.0 63.5 113.75 Q65.75 109.3 67.1 107.65 L73.5 100.5 80.15 93.0 66.45 104.85 56.85 113.7 53.65 113.7 52.9 113.4 49.45 113.4 17.45 113.25 -7.65 113.0 Q-11.4 112.7 -13.35 113.5 M234.85 104.15 L235.0 104.5 235.15 104.65 236.25 104.75 Q237.05 104.75 237.35 104.4 L237.65 103.5 Q236.4 102.4 234.75 102.4 L234.7 102.3 234.65 103.15 234.85 104.15 M207.55 98.4 L206.25 98.4 206.2 98.3 206.15 99.15 Q206.15 99.9 206.3 99.95 L206.4 100.0 Q208.8 100.0 209.25 99.25 L209.15 98.9 Q208.4 98.5 207.55 98.4 M206.0 52.25 L205.75 53.25 206.25 54.25 Q208.6 54.25 208.9 53.75 L209.15 53.0 208.65 52.25 Q207.15 52.0 206.0 52.25 M193.9 49.4 L195.25 48.5 Q194.15 47.4 192.45 47.35 190.65 47.3 190.65 48.65 190.65 49.9 190.9 49.25 L191.35 49.75 192.5 49.9 193.9 49.4 M224.5 16.25 L226.25 15.25 Q225.05 14.3 223.45 14.2 L220.5 14.25 220.45 14.2 220.4 15.05 220.6 16.05 220.75 16.25 224.5 16.25 M173.85 106.05 Q174.35 105.75 174.65 104.75 173.3 104.05 171.5 104.25 L171.45 104.2 171.4 105.05 171.5 105.85 171.75 106.0 171.8 106.15 172.75 106.25 173.85 106.05 M23.15 85.1 Q20.75 85.45 20.75 86.35 20.75 87.6 21.8 86.9 L30.95 85.75 Q26.05 84.7 23.15 85.1 M37.45 29.5 L32.0 29.35 31.9 29.35 Q27.95 29.75 27.95 31.15 27.95 31.9 28.25 31.95 L29.25 32.0 32.0 31.6 33.85 30.95 Q36.4 29.9 37.75 29.75 L37.45 29.5 M75.15 42.25 L75.0 41.4 74.85 41.5 Q73.5 40.7 72.4 41.0 71.35 41.25 71.35 42.25 71.35 43.0 71.6 43.15 L72.15 43.35 73.35 43.4 74.7 43.3 Q75.15 43.1 75.15 42.25 M65.15 36.5 L63.35 36.85 Q62.35 37.25 61.9 37.65 L62.4 38.4 62.55 38.55 63.6 38.65 Q64.55 38.65 64.95 38.15 L65.4 37.25 65.15 36.5 M143.25 97.5 L143.4 97.65 144.85 97.75 146.75 97.4 148.75 96.75 145.9 95.9 Q143.1 95.3 143.1 96.6 143.1 97.35 143.25 97.5 M131.35 93.25 L131.5 93.4 132.6 93.5 134.1 93.05 135.35 92.25 133.0 91.9 Q131.15 91.8 131.15 92.65 131.15 93.9 131.35 93.25" fill="#a4b39c" fill-rule="evenodd" stroke="none"/>
      <path d="M248.1 125.15 Q250.0 125.6 249.65 126.95 L249.2 127.85 249.45 127.9 249.45 128.2 248.8 128.2 Q247.8 128.95 245.65 128.95 L241.15 128.85 239.9 129.0 193.75 129.0 178.7 129.4 178.5 129.4 178.5 129.45 89.7 129.4 74.05 129.35 73.1 129.65 62.5 129.75 55.0 129.65 47.5 129.2 47.5 129.0 21.65 129.0 2.7 128.7 2.25 128.7 -9.15 128.95 Q-12.1 128.95 -13.45 128.2 L-14.3 128.2 -14.3 127.9 -14.0 127.85 -14.6 126.95 Q-15.05 125.6 -12.5 125.15 L-11.0 125.0 -10.95 125.0 -10.4 124.95 49.25 125.65 49.45 125.65 55.0 125.8 56.25 125.85 115.85 125.8 134.95 125.8 178.5 125.75 178.5 125.8 193.7 125.85 200.7 125.65 224.7 125.65 246.55 124.95 246.95 125.0 247.0 125.0 248.1 125.15" fill="#50564a" fill-rule="evenodd" stroke="none"/>
      <path d="M56.85 113.7 L66.45 104.85 80.15 93.0 73.5 100.5 67.1 107.65 Q65.75 109.3 63.5 113.75 L56.85 113.7 M224.5 16.25 L220.75 16.25 220.6 16.05 220.4 15.05 220.45 14.2 220.5 14.25 223.45 14.2 Q225.05 14.3 226.25 15.25 L224.5 16.25 M193.9 49.4 L192.5 49.9 191.35 49.75 190.9 49.25 Q190.65 49.9 190.65 48.65 190.65 47.3 192.45 47.35 194.15 47.4 195.25 48.5 L193.9 49.4 M206.0 52.25 Q207.15 52.0 208.65 52.25 L209.15 53.0 208.9 53.75 Q208.6 54.25 206.25 54.25 L205.75 53.25 206.0 52.25 M207.55 98.4 Q208.4 98.5 209.15 98.9 L209.25 99.25 Q208.8 100.0 206.4 100.0 L206.3 99.95 Q206.15 99.9 206.15 99.15 L206.2 98.3 206.25 98.4 207.55 98.4 M234.85 104.15 L234.65 103.15 234.7 102.3 234.75 102.4 Q236.4 102.4 237.65 103.5 L237.35 104.4 Q237.05 104.75 236.25 104.75 L235.15 104.65 235.0 104.5 234.85 104.15 M217.05 122.7 L216.2 122.15 216.1 121.55 Q216.9 120.9 219.0 120.35 L223.1 120.5 222.0 121.85 Q220.6 123.0 218.45 123.0 L217.05 122.7 M173.85 106.05 L172.75 106.25 171.8 106.15 171.75 106.0 171.5 105.85 171.4 105.05 171.45 104.2 171.5 104.25 Q173.3 104.05 174.65 104.75 174.35 105.75 173.85 106.05 M164.75 123.45 L162.45 123.9 161.25 123.15 Q160.85 122.9 160.85 122.55 160.85 121.65 162.2 121.45 163.7 121.2 165.2 122.5 164.75 122.95 164.75 123.45 M134.95 125.8 L115.85 125.8 Q99.65 121.95 94.8 120.0 L99.35 120.5 104.85 121.9 118.2 122.15 123.05 123.4 Q128.5 124.65 131.95 124.65 132.8 124.65 134.95 125.8 M131.35 93.25 Q131.15 93.9 131.15 92.65 131.15 91.8 133.0 91.9 L135.35 92.25 134.1 93.05 132.6 93.5 131.5 93.4 131.35 93.25 M143.25 97.5 Q143.1 97.35 143.1 96.6 143.1 95.3 145.9 95.9 L148.75 96.75 146.75 97.4 144.85 97.75 143.4 97.65 143.25 97.5 M65.15 36.5 L65.4 37.25 64.95 38.15 Q64.55 38.65 63.6 38.65 L62.55 38.55 62.4 38.4 61.9 37.65 Q62.35 37.25 63.35 36.85 L65.15 36.5 M75.15 42.25 Q75.15 43.1 74.7 43.3 L73.35 43.4 72.15 43.35 71.6 43.15 Q71.35 43.0 71.35 42.25 71.35 41.25 72.4 41.0 73.5 40.7 74.85 41.5 L75.0 41.4 75.15 42.25 M37.45 29.5 L37.75 29.75 Q36.4 29.9 33.85 30.95 L32.0 31.6 29.25 32.0 28.25 31.95 Q27.95 31.9 27.95 31.15 27.95 29.75 31.9 29.35 L32.0 29.35 37.45 29.5 M23.15 85.1 Q26.05 84.7 30.95 85.75 L21.8 86.9 Q20.75 87.6 20.75 86.35 20.75 85.45 23.15 85.1 M21.25 120.75 L19.35 121.65 17.65 122.0 16.0 121.85 15.25 121.4 Q16.15 120.85 18.05 120.55 L20.9 120.4 21.25 120.75 M28.35 120.55 Q28.35 119.7 30.25 119.5 L32.0 119.45 35.0 119.75 35.35 120.5 34.95 121.65 32.0 121.9 30.9 121.9 28.85 121.75 28.65 121.55 Q28.35 121.3 28.35 120.55 M150.25 123.15 L150.2 123.0 149.95 122.85 149.85 122.05 Q149.85 121.3 151.0 120.75 L154.1 120.9 154.3 120.8 154.45 121.65 Q154.45 122.9 151.2 123.25 L150.25 123.15" fill="#647759" fill-rule="evenodd" stroke="none"/>
    </g>
    <g id="sprite3" transform="matrix(1.0, 0.0, 0.0, 1.0, 15.0, 0.0)">
      <use ffdec:characterId="282" height="129.75" transform="matrix(1.0, 0.0, 0.0, 1.0, -15.0, 0.0)" width="264.95" xlink:href="#shape1"/>
    </g>
    <g id="shape1" transform="matrix(1.0, 0.0, 0.0, 1.0, 15.0, 0.0)">
      <path d="M-13.35 113.5 L-13.65 107.65 Q-13.15 85.35 -13.45 78.9 L-13.5 26.75 Q-14.0 18.75 -13.7 14.55 -13.45 9.35 -11.65 6.05 -11.05 3.75 -7.55 2.05 -3.6 0.15 1.75 0.0 L7.6 0.5 38.5 0.5 47.5 0.65 67.25 0.65 68.5 0.65 139.95 0.65 178.5 0.65 210.55 0.5 233.3 0.5 Q235.2 -0.1 237.6 0.0 241.55 0.15 244.45 2.05 247.05 3.75 247.5 6.05 248.8 9.35 249.0 14.55 249.2 18.75 248.85 26.75 L248.8 78.9 Q248.6 85.35 248.95 107.65 L248.75 113.5 Q247.3 112.7 244.55 113.0 L226.05 113.25 197.05 113.4 196.3 113.7 178.5 113.9 178.5 114.0 63.5 113.75 Q65.75 109.3 67.1 107.65 L73.5 100.5 80.15 93.0 66.45 104.85 56.85 113.7 53.65 113.7 52.9 113.4 49.45 113.4 17.45 113.25 -7.65 113.0 Q-11.4 112.7 -13.35 113.5 M234.85 104.15 L235.0 104.5 235.15 104.65 236.25 104.75 Q237.05 104.75 237.35 104.4 L237.65 103.5 Q236.4 102.4 234.75 102.4 L234.7 102.3 234.65 103.15 234.85 104.15 M209.15 98.9 Q208.4 98.5 207.55 98.4 L206.25 98.4 206.2 98.3 206.15 99.15 Q206.15 99.9 206.3 99.95 L206.4 100.0 Q208.8 100.0 209.25 99.25 L209.15 98.9 M209.15 53.0 L208.65 52.25 Q207.15 52.0 206.0 52.25 L205.75 53.25 206.25 54.25 Q208.6 54.25 208.9 53.75 L209.15 53.0 M195.25 48.5 Q194.15 47.4 192.45 47.35 190.65 47.3 190.65 48.65 190.65 49.9 190.9 49.25 L191.35 49.75 192.5 49.9 193.9 49.4 195.25 48.5 M226.25 15.25 Q225.05 14.3 223.45 14.2 L220.5 14.25 220.45 14.2 220.4 15.05 220.6 16.05 220.75 16.25 224.5 16.25 226.25 15.25 M172.75 106.25 L173.85 106.05 Q174.35 105.75 174.65 104.75 173.3 104.05 171.5 104.25 L171.45 104.2 171.4 105.05 171.5 105.85 171.75 106.0 171.8 106.15 172.75 106.25 M20.75 86.35 Q20.75 87.6 21.8 86.9 L30.95 85.75 Q26.05 84.7 23.15 85.1 20.75 85.45 20.75 86.35 M33.85 30.95 Q36.4 29.9 37.75 29.75 L37.45 29.5 31.9 29.35 Q27.95 29.75 27.95 31.15 27.95 31.9 28.25 31.95 L29.25 32.0 Q31.55 31.9 33.85 30.95 M75.0 41.4 L74.85 41.5 Q73.5 40.7 72.4 41.0 71.35 41.25 71.35 42.25 71.35 43.0 71.6 43.15 L72.15 43.35 73.35 43.4 74.7 43.3 Q75.15 43.1 75.15 42.25 L75.0 41.4 M65.15 36.5 L63.35 36.85 Q62.35 37.25 61.9 37.65 L62.4 38.4 62.55 38.55 63.6 38.65 Q64.55 38.65 64.95 38.15 L65.4 37.25 65.15 36.5 M143.4 97.65 L144.85 97.75 146.75 97.4 148.75 96.75 145.9 95.9 Q143.1 95.3 143.1 96.6 143.1 97.35 143.25 97.5 L143.4 97.65 M131.15 92.65 Q131.15 93.9 131.35 93.25 L131.5 93.4 132.6 93.5 134.1 93.05 135.35 92.25 133.0 91.9 Q131.15 91.8 131.15 92.65" fill="#a4b39c" fill-rule="evenodd" stroke="none"/>
      <path d="M-13.35 113.5 Q-11.4 112.7 -7.65 113.0 L17.45 113.25 49.45 113.4 52.9 113.4 53.65 113.7 56.85 113.7 66.45 104.85 80.15 93.0 73.5 100.5 67.1 107.65 Q65.75 109.3 63.5 113.75 L178.5 114.0 178.5 113.9 196.3 113.7 197.05 113.4 226.05 113.25 244.55 113.0 Q247.3 112.7 248.75 113.5 L249.0 113.65 Q249.95 114.3 249.95 115.05 249.95 116.25 249.1 116.75 L248.55 117.0 245.7 117.25 205.75 116.95 204.85 117.15 203.45 117.4 199.2 117.3 197.2 117.25 178.5 117.4 178.5 117.65 173.45 117.65 162.05 117.65 160.0 117.65 140.0 117.6 92.95 117.4 52.75 117.25 50.75 117.3 49.45 117.35 49.45 117.4 48.1 117.4 47.5 117.4 46.2 117.15 45.0 116.95 -9.25 117.25 -13.1 117.0 -13.85 116.75 Q-15.0 116.25 -15.0 115.05 -15.0 114.3 -13.7 113.65 L-13.35 113.5" fill="#d8ded3" fill-rule="evenodd" stroke="none"/>
      <path d="M248.55 117.0 L248.45 117.7 248.35 118.8 248.35 123.5 248.1 125.15 247.0 125.0 246.95 125.0 246.55 124.95 224.7 125.65 200.7 125.65 193.7 125.85 178.5 125.8 178.5 125.75 134.95 125.8 Q132.8 124.65 131.95 124.65 128.5 124.65 123.05 123.4 L118.2 122.15 104.85 121.9 99.35 120.5 94.8 120.0 Q99.65 121.95 115.85 125.8 L56.25 125.85 49.45 125.65 49.25 125.65 19.25 125.65 -10.4 124.95 -10.95 125.0 -11.0 125.0 -12.5 125.15 -12.85 123.5 -12.85 118.8 -12.95 117.7 -13.1 117.0 -9.25 117.25 45.0 116.95 46.2 117.15 47.5 117.4 48.1 117.4 49.45 117.4 49.45 117.35 50.75 117.3 52.75 117.25 92.95 117.4 140.0 117.6 160.0 117.65 162.05 117.65 173.45 117.65 178.5 117.65 178.5 117.4 197.2 117.25 199.2 117.3 203.45 117.4 204.85 117.15 205.75 116.95 245.7 117.25 248.55 117.0 M216.2 122.15 L217.05 122.7 218.45 123.0 Q220.6 123.0 222.0 121.85 L223.1 120.5 219.0 120.35 Q216.9 120.9 216.1 121.55 L216.2 122.15 M164.75 123.45 Q164.75 122.95 165.2 122.5 163.7 121.2 162.2 121.45 160.85 121.65 160.85 122.55 160.85 122.9 161.25 123.15 L162.45 123.9 164.75 123.45 M150.25 123.15 L151.2 123.25 Q154.45 122.9 154.45 121.65 L154.3 120.8 154.1 120.9 151.0 120.75 Q149.85 121.3 149.85 122.05 L149.95 122.85 150.2 123.0 150.25 123.15 M21.25 120.75 L20.9 120.4 18.05 120.55 Q16.15 120.85 15.25 121.4 L16.0 121.85 17.65 122.0 19.35 121.65 21.25 120.75 M28.35 120.55 Q28.35 121.3 28.65 121.55 L28.85 121.75 30.9 121.9 34.95 121.65 35.35 120.5 35.0 119.75 30.25 119.5 Q28.35 119.7 28.35 120.55" fill="#bfcab9" fill-rule="evenodd" stroke="none"/>
      <path d="M226.25 15.25 L224.5 16.25 220.75 16.25 220.6 16.05 220.4 15.05 220.45 14.2 220.5 14.25 223.45 14.2 Q225.05 14.3 226.25 15.25 M195.25 48.5 L193.9 49.4 192.5 49.9 191.35 49.75 190.9 49.25 Q190.65 49.9 190.65 48.65 190.65 47.3 192.45 47.35 194.15 47.4 195.25 48.5 M209.15 53.0 L208.9 53.75 Q208.6 54.25 206.25 54.25 L205.75 53.25 206.0 52.25 Q207.15 52.0 208.65 52.25 L209.15 53.0 M209.15 98.9 L209.25 99.25 Q208.8 100.0 206.4 100.0 L206.3 99.95 Q206.15 99.9 206.15 99.15 L206.2 98.3 206.25 98.4 207.55 98.4 Q208.4 98.5 209.15 98.9 M234.85 104.15 L234.65 103.15 234.7 102.3 234.75 102.4 Q236.4 102.4 237.65 103.5 L237.35 104.4 Q237.05 104.75 236.25 104.75 L235.15 104.65 235.0 104.5 234.85 104.15 M216.2 122.15 L216.1 121.55 Q216.9 120.9 219.0 120.35 L223.1 120.5 222.0 121.85 Q220.6 123.0 218.45 123.0 L217.05 122.7 216.2 122.15 M172.75 106.25 L171.8 106.15 171.75 106.0 171.5 105.85 171.4 105.05 171.45 104.2 171.5 104.25 Q173.3 104.05 174.65 104.75 174.35 105.75 173.85 106.05 L172.75 106.25 M164.75 123.45 L162.45 123.9 161.25 123.15 Q160.85 122.9 160.85 122.55 160.85 121.65 162.2 121.45 163.7 121.2 165.2 122.5 164.75 122.95 164.75 123.45 M134.95 125.8 L115.85 125.8 Q99.65 121.95 94.8 120.0 L99.35 120.5 104.85 121.9 118.2 122.15 123.05 123.4 Q128.5 124.65 131.95 124.65 132.8 124.65 134.95 125.8 M131.15 92.65 Q131.15 91.8 133.0 91.9 L135.35 92.25 134.1 93.05 132.6 93.5 131.5 93.4 131.35 93.25 Q131.15 93.9 131.15 92.65 M143.4 97.65 L143.25 97.5 Q143.1 97.35 143.1 96.6 143.1 95.3 145.9 95.9 L148.75 96.75 146.75 97.4 144.85 97.75 143.4 97.65 M65.15 36.5 L65.4 37.25 64.95 38.15 Q64.55 38.65 63.6 38.65 L62.55 38.55 62.4 38.4 61.9 37.65 Q62.35 37.25 63.35 36.85 L65.15 36.5 M75.0 41.4 L75.15 42.25 Q75.15 43.1 74.7 43.3 L73.35 43.4 72.15 43.35 71.6 43.15 Q71.35 43.0 71.35 42.25 71.35 41.25 72.4 41.0 73.5 40.7 74.85 41.5 L75.0 41.4 M33.85 30.95 Q31.55 31.9 29.25 32.0 L28.25 31.95 Q27.95 31.9 27.95 31.15 27.95 29.75 31.9 29.35 L37.45 29.5 37.75 29.75 Q36.4 29.9 33.85 30.95 M20.75 86.35 Q20.75 85.45 23.15 85.1 26.05 84.7 30.95 85.75 L21.8 86.9 Q20.75 87.6 20.75 86.35 M28.35 120.55 Q28.35 119.7 30.25 119.5 L35.0 119.75 35.35 120.5 34.95 121.65 30.9 121.9 28.85 121.75 28.65 121.55 Q28.35 121.3 28.35 120.55 M21.25 120.75 L19.35 121.65 17.65 122.0 16.0 121.85 15.25 121.4 Q16.15 120.85 18.05 120.55 L20.9 120.4 21.25 120.75 M150.25 123.15 L150.2 123.0 149.95 122.85 149.85 122.05 Q149.85 121.3 151.0 120.75 L154.1 120.9 154.3 120.8 154.45 121.65 Q154.45 122.9 151.2 123.25 L150.25 123.15" fill="#ced6c9" fill-rule="evenodd" stroke="none"/>
      <path d="M248.1 125.15 Q250.0 125.6 249.65 126.95 L249.2 127.85 249.45 127.9 249.45 128.2 248.8 128.2 Q247.8 128.95 245.65 128.95 L241.15 128.85 239.9 129.0 193.75 129.0 178.7 129.4 178.5 129.4 178.5 129.45 89.7 129.4 74.05 129.35 73.1 129.65 62.5 129.75 47.5 129.2 47.5 129.0 21.65 129.0 2.7 128.7 2.25 128.7 -9.15 128.95 Q-12.1 128.95 -13.45 128.2 L-14.3 128.2 -14.3 127.9 -14.0 127.85 -14.6 126.95 Q-15.05 125.6 -12.5 125.15 L-11.0 125.0 -10.95 125.0 -10.4 124.95 19.25 125.65 49.25 125.65 49.45 125.65 56.25 125.85 115.85 125.8 134.95 125.8 178.5 125.75 178.5 125.8 193.7 125.85 200.7 125.65 224.7 125.65 246.55 124.95 246.95 125.0 247.0 125.0 248.1 125.15" fill="#51574b" fill-rule="evenodd" stroke="none"/>
    </g>
    <g id="sprite4" transform="matrix(1.0, 0.0, 0.0, 1.0, -256.1, 0.25)">
      <use ffdec:characterId="1381" height="120.35" transform="matrix(1.0, 0.0, 0.0, 1.0, 256.1, -0.25)" width="116.85" xlink:href="#shape2"/>
    </g>
    <g id="shape2" transform="matrix(1.0, 0.0, 0.0, 1.0, -256.1, 0.25)">
      <path d="M270.9 1.15 L272.45 -0.1 272.85 -0.1 273.95 -0.25 274.7 -0.25 274.6 0.3 Q274.6 3.65 278.5 4.65 L282.2 5.35 282.95 5.55 372.95 5.55 372.95 8.25 286.5 8.2 280.65 8.4 278.8 9.25 Q275.8 10.75 272.65 13.8 L272.6 13.9 272.25 14.25 270.7 15.85 270.45 16.2 269.0 17.65 268.1 18.5 266.15 20.65 265.55 21.7 265.5 21.75 265.5 89.6 265.5 92.15 265.5 98.1 265.55 98.2 Q264.8 99.4 262.5 100.5 L262.15 100.4 Q259.7 100.4 257.7 104.35 L257.2 105.4 256.55 104.75 256.5 104.55 256.35 104.05 256.2 103.0 256.2 102.0 258.8 100.4 Q261.5 98.7 262.05 97.45 L262.25 97.1 262.4 96.75 262.4 85.4 262.4 84.95 262.4 23.1 262.05 22.45 Q261.5 21.2 258.8 19.45 L256.2 17.85 256.2 16.85 256.35 15.85 256.5 15.3 256.55 15.1 257.2 14.45 257.7 15.5 Q259.7 19.45 262.15 19.45 L262.5 19.35 262.8 19.2 Q263.4 19.1 264.35 18.45 266.15 17.2 267.0 15.75 L267.2 15.6 269.0 13.9 269.3 13.65 270.7 12.4 Q272.55 10.8 273.15 9.7 L273.2 9.65 273.75 8.55 273.95 6.4 Q273.95 6.0 274.1 5.65 L273.95 5.1 Q273.95 4.05 273.45 2.95 272.6 1.3 270.9 1.15" fill="#a8b69e" fill-rule="evenodd" stroke="none"/>
      <path d="M274.7 -0.25 L372.95 -0.25 372.95 5.55 282.95 5.55 282.2 5.35 278.5 4.65 Q274.6 3.65 274.6 0.3 L274.7 -0.25 M257.2 14.45 L263.8 7.75 265.1 6.6 270.7 1.3 270.9 1.15 Q272.6 1.3 273.45 2.95 273.95 4.05 273.95 5.1 L274.1 5.65 Q273.95 6.0 273.95 6.4 L273.75 8.55 273.2 9.65 273.15 9.7 Q272.55 10.8 270.7 12.4 L269.3 13.65 269.0 13.9 267.2 15.6 267.0 15.75 Q266.15 17.2 264.35 18.45 263.4 19.1 262.8 19.2 L262.5 19.35 262.15 19.45 Q259.7 19.45 257.7 15.5 L257.2 14.45 M270.3 5.0 L270.05 5.5 270.2 6.0 270.7 6.05 271.9 6.1 271.95 6.15 272.0 5.55 271.9 4.95 270.7 4.95 270.3 5.0 M265.0 9.85 Q264.05 10.3 263.9 10.55 L264.1 11.05 266.2 11.0 Q267.4 10.7 267.4 10.3 L267.25 9.65 267.15 9.5 266.2 9.45 Q265.85 9.45 265.0 9.85 M262.65 14.8 L262.75 14.1 262.65 13.65 261.5 13.25 260.65 14.0 260.45 14.25 260.5 14.8 260.65 15.05 262.55 15.05 262.65 14.8" fill="#5b6a53" fill-rule="evenodd" stroke="none"/>
      <path d="M372.95 8.25 L372.95 111.7 286.5 111.7 280.65 111.45 278.8 110.6 Q275.8 109.1 272.65 106.05 L272.6 105.95 272.25 105.6 270.45 103.65 269.0 102.2 268.1 101.35 266.15 99.25 265.55 98.2 265.5 98.1 265.5 92.15 265.5 89.6 265.5 21.75 265.55 21.7 266.15 20.65 268.1 18.5 269.0 17.65 270.45 16.2 270.7 15.85 272.25 14.25 272.6 13.9 272.65 13.8 Q275.8 10.75 278.8 9.25 L280.65 8.4 286.5 8.2 372.95 8.25 M256.2 102.0 L256.2 92.7 256.1 92.7 256.1 45.7 256.2 45.7 256.2 17.85 258.8 19.45 Q261.5 21.2 262.05 22.45 L262.4 23.1 262.4 84.95 262.4 85.4 262.4 96.75 262.25 97.1 262.05 97.45 Q261.5 98.7 258.8 100.4 L256.2 102.0 M270.3 5.0 L270.7 4.95 271.9 4.95 272.0 5.55 271.95 6.15 271.9 6.1 270.7 6.05 270.2 6.0 270.05 5.5 270.3 5.0 M265.0 9.85 Q265.85 9.45 266.2 9.45 L267.15 9.5 267.25 9.65 267.4 10.3 Q267.4 10.7 266.2 11.0 L264.1 11.05 263.9 10.55 Q264.05 10.3 265.0 9.85 M281.85 19.1 Q281.75 18.95 280.9 18.35 L279.65 17.75 Q279.15 17.75 279.0 18.0 L278.9 18.45 Q279.3 19.85 280.3 19.95 281.2 20.1 281.85 19.1 M262.65 14.8 L262.55 15.05 260.65 15.05 260.5 14.8 260.45 14.25 260.65 14.0 261.5 13.25 262.65 13.65 262.75 14.1 262.65 14.8 M276.6 28.2 L277.5 28.55 279.75 28.55 278.85 28.4 276.6 28.2 M258.3 85.85 L258.55 85.4 257.35 85.4 257.45 85.85 257.85 86.25 258.3 85.85 M280.85 90.5 L278.6 90.95 276.6 91.65 278.85 91.45 280.85 90.95 280.85 90.5 M280.9 101.5 L281.85 100.8 Q281.2 99.8 280.3 99.9 279.3 100.05 278.9 101.4 L279.0 101.85 279.65 102.1 280.9 101.5" fill="#849878" fill-rule="evenodd" stroke="none"/>
      <path d="M372.95 114.3 L372.95 120.1 274.7 120.1 274.6 119.55 Q274.6 116.2 278.5 115.2 L282.2 114.5 282.95 114.3 372.95 114.3 M270.9 118.7 L265.1 113.25 263.8 112.1 257.2 105.4 257.7 104.35 Q259.7 100.4 262.15 100.4 L262.5 100.5 262.8 100.7 Q263.4 100.75 264.35 101.4 266.15 102.65 267.0 104.1 L267.2 104.25 269.0 106.0 269.3 106.2 Q272.35 108.75 273.15 110.15 L273.2 110.25 273.75 111.3 273.95 113.45 274.1 114.2 273.95 114.8 Q273.95 115.8 273.45 116.9 272.6 118.6 270.9 118.7 M281.85 19.1 Q281.2 20.1 280.3 19.95 279.3 19.85 278.9 18.45 L279.0 18.0 Q279.15 17.75 279.65 17.75 L280.9 18.35 Q281.75 18.95 281.85 19.1 M276.6 28.2 L278.85 28.4 279.75 28.55 277.5 28.55 276.6 28.2 M258.3 85.85 L257.85 86.25 257.45 85.85 257.35 85.4 258.55 85.4 258.3 85.85 M280.9 101.5 L279.65 102.1 279.0 101.85 278.9 101.4 Q279.3 100.05 280.3 99.9 281.2 99.8 281.85 100.8 L280.9 101.5 M280.85 90.5 L280.85 90.95 278.85 91.45 276.6 91.65 278.6 90.95 280.85 90.5 M267.25 110.25 L267.4 109.6 Q267.4 109.15 266.2 108.85 L264.1 108.8 263.9 109.35 Q264.05 109.6 265.0 110.0 265.85 110.4 266.2 110.4 L267.15 110.35 267.25 110.25 M271.95 113.7 L271.9 113.8 270.2 113.85 270.05 114.4 270.3 114.85 271.85 114.95 271.9 114.9 272.0 114.3 271.95 113.7 M262.65 105.1 L262.55 104.85 Q261.5 104.65 260.65 104.85 L260.5 105.1 260.45 105.6 260.65 105.85 261.5 106.65 262.65 106.2 262.75 105.75 262.65 105.1" fill="#a4b39c" fill-rule="evenodd" stroke="none"/>
      <path d="M372.95 111.7 L372.95 114.3 282.95 114.3 282.2 114.5 278.5 115.2 Q274.6 116.2 274.6 119.55 L274.7 120.1 273.95 120.1 272.85 119.95 272.45 120.0 270.9 118.7 Q272.6 118.6 273.45 116.9 273.95 115.8 273.95 114.8 L274.1 114.2 273.95 113.45 273.75 111.3 273.2 110.25 273.15 110.15 Q272.35 108.75 269.3 106.2 L269.0 106.0 267.2 104.25 267.0 104.1 Q266.15 102.65 264.35 101.4 263.4 100.75 262.8 100.7 L262.5 100.5 Q264.8 99.4 265.55 98.2 L266.15 99.25 268.1 101.35 269.0 102.2 270.45 103.65 272.25 105.6 272.6 105.95 272.65 106.05 Q275.8 109.1 278.8 110.6 L280.65 111.45 286.5 111.7 372.95 111.7 M271.95 113.7 L272.0 114.3 271.9 114.9 271.85 114.95 270.3 114.85 270.05 114.4 270.2 113.85 271.9 113.8 271.95 113.7 M267.25 110.25 L267.15 110.35 266.2 110.4 Q265.85 110.4 265.0 110.0 264.05 109.6 263.9 109.35 L264.1 108.8 266.2 108.85 Q267.4 109.15 267.4 109.6 L267.25 110.25 M262.65 105.1 L262.75 105.75 262.65 106.2 261.5 106.65 260.65 105.85 260.45 105.6 260.5 105.1 260.65 104.85 Q261.5 104.65 262.55 104.85 L262.65 105.1" fill="#c2ccbd" fill-rule="evenodd" stroke="none"/>
    </g>
    <g id="shape3" transform="matrix(1.0, 0.0, 0.0, 1.0, -8.0, -8.1)">
      <path d="M8.0 43.65 L8.0 18.55 Q8.0 8.1 18.65 8.1 L53.0 8.1 53.0 54.1 18.65 54.1 Q8.0 54.1 8.0 43.65" fill="#242424" fill-rule="evenodd" stroke="none"/>
    </g>
    <g id="sprite5" transform="matrix(1.0, 0.0, 0.0, 1.0, -8.05, -6.65)">
      <use ffdec:characterId="1053" height="30.8" transform="matrix(1.0, 0.0, 0.0, 1.0, 8.05, 6.65)" width="40.15" xlink:href="#shape4"/>
    </g>
    <g id="shape4" transform="matrix(1.0, 0.0, 0.0, 1.0, -8.05, -6.65)">
      <path d="M43.75 11.85 L42.55 10.9 43.05 11.15 43.65 11.5 43.7 11.6 43.7 11.7 43.75 11.85 M37.7 9.25 Q31.55 8.05 25.15 8.3 19.85 8.75 14.8 10.4 18.75 8.95 23.25 8.4 L27.5 8.1 35.35 8.8 37.7 9.25 M11.95 11.65 Q11.35 12.15 10.9 12.8 L10.65 13.25 10.55 13.15 10.5 13.05 10.45 12.95 10.45 12.8 11.95 11.65 M45.05 13.4 L44.7 12.9 44.85 13.0 45.05 13.35 45.05 13.4" fill="#b44529" fill-rule="evenodd" stroke="none"/>
      <path d="M42.55 10.9 L43.75 11.85 44.7 12.9 45.05 13.4 45.3 13.8 45.9 15.05 Q46.2 15.8 45.6 16.35 44.2 17.6 42.45 17.9 L42.4 18.0 42.4 18.1 42.35 18.25 42.25 18.35 Q36.85 19.85 31.6 20.2 L20.95 19.7 Q16.6 18.95 12.3 17.45 9.35 16.4 10.3 13.95 L10.65 13.25 10.9 12.8 Q11.35 12.15 11.95 11.65 L13.6 10.75 14.25 10.55 14.45 10.5 14.6 10.45 14.65 10.45 14.8 10.4 Q19.85 8.75 25.15 8.3 31.55 8.05 37.7 9.25 L38.8 9.45 Q40.95 9.9 42.55 10.9 M28.9 18.35 Q35.95 18.15 42.55 16.0 L42.55 15.9 42.55 15.8 42.55 15.65 42.55 15.55 42.55 15.45 42.65 15.3 42.75 15.2 42.9 15.1 43.15 14.95 43.2 14.85 43.15 14.75 43.05 14.6 43.0 14.5 43.0 14.35 43.0 14.25 43.0 14.15 43.05 14.05 43.1 13.9 43.2 13.85 43.25 13.8 43.4 13.7 43.4 13.6 43.35 13.5 Q42.0 11.95 39.9 11.4 33.45 9.75 26.75 9.75 L20.8 10.3 Q17.55 10.8 14.65 12.2 L13.95 12.4 13.95 12.55 13.9 12.65 13.8 12.9 13.7 13.0 13.6 13.05 13.0 13.3 13.0 13.45 13.0 13.55 12.95 13.65 12.9 13.8 12.8 13.9 12.65 14.0 12.65 14.15 12.65 14.25 12.7 14.35 12.75 14.5 12.75 14.6 12.75 14.75 Q16.55 17.95 21.9 18.35 L23.7 18.35 27.3 18.35 28.9 18.35" fill="#e0ac78" fill-rule="evenodd" stroke="none"/>
      <path d="M10.3 13.95 Q9.35 16.4 12.3 17.45 16.6 18.95 20.95 19.7 L31.6 20.2 Q36.85 19.85 42.25 18.35 L42.35 18.25 42.4 18.1 42.4 18.0 42.45 17.9 Q44.2 17.6 45.6 16.35 46.2 15.8 45.9 15.05 L45.3 13.8 Q47.45 15.5 46.75 18.6 L46.1 20.6 45.95 21.0 Q45.75 20.95 45.55 21.15 L43.45 22.9 Q41.15 24.05 38.6 24.7 L38.25 24.8 Q30.3 26.9 21.9 25.4 L21.2 25.3 19.8 25.15 17.85 24.6 17.55 24.55 15.85 24.2 14.65 23.7 13.2 23.1 10.2 21.25 10.25 20.2 9.9 18.05 Q9.75 16.2 10.1 14.4 L10.3 13.95 M45.1 22.7 L45.0 22.7 45.2 22.45 45.25 22.45 45.1 22.7 M23.75 27.75 Q20.35 28.1 16.7 26.8 L16.15 26.6 Q13.15 25.4 11.2 23.35 13.8 24.85 16.6 25.9 20.05 27.2 23.75 27.75 M10.7 22.85 L10.55 22.65 10.35 22.35 11.25 22.85 11.45 23.05 10.7 22.85 M10.2 21.7 L10.25 21.6 10.3 21.7 10.2 21.7 M16.6 25.9 L16.15 26.6 16.6 25.9" fill="#c4782d" fill-rule="evenodd" stroke="none"/>
      <path d="M21.9 18.35 Q16.55 17.95 12.75 14.75 L12.75 14.6 12.75 14.5 12.7 14.35 12.65 14.25 12.65 14.15 12.65 14.0 12.8 13.9 12.9 13.8 12.95 13.65 13.0 13.55 13.0 13.45 13.0 13.3 13.6 13.05 13.7 13.0 13.8 12.9 13.9 12.65 13.95 12.55 13.95 12.4 14.65 12.2 Q17.55 10.8 20.8 10.3 L26.75 9.75 Q33.45 9.75 39.9 11.4 42.0 11.95 43.35 13.5 L43.4 13.6 43.4 13.7 43.25 13.8 43.2 13.85 43.1 13.9 43.05 14.05 43.0 14.15 43.0 14.25 43.0 14.35 43.0 14.5 43.05 14.6 43.15 14.75 43.2 14.85 43.15 14.95 42.9 15.1 42.75 15.2 42.65 15.3 42.55 15.45 42.55 15.55 42.55 15.65 42.55 15.8 42.55 15.9 42.55 16.0 Q35.95 18.15 28.9 18.35 L28.55 18.1 28.9 18.35 27.3 18.35 23.7 18.35 21.9 18.35 22.3 17.75 21.9 18.35 M28.55 18.1 Q34.5 18.0 40.55 16.45 L33.85 15.45 Q24.65 13.95 15.7 16.45 L22.3 17.75 28.55 18.1" fill="#6f441a" fill-rule="evenodd" stroke="none"/>
      <path d="M10.2 21.25 L13.2 23.1 14.65 23.7 15.85 24.2 17.55 24.55 17.85 24.6 19.8 25.15 21.2 25.3 21.9 25.4 Q30.3 26.9 38.25 24.8 L38.6 24.7 Q41.15 24.05 43.45 22.9 L45.55 21.15 Q45.75 20.95 45.95 21.0 L46.0 21.0 46.0 20.95 46.45 21.0 46.45 21.15 46.35 21.35 46.3 21.45 45.45 22.25 45.25 22.45 45.2 22.45 45.0 22.7 45.1 22.7 45.5 22.45 Q45.8 22.15 46.2 22.1 L46.5 22.1 46.6 22.35 46.65 22.6 46.65 22.75 Q43.6 24.85 40.2 26.15 34.85 28.2 28.6 28.1 L23.75 27.75 Q20.05 27.2 16.6 25.9 13.8 24.85 11.2 23.35 L10.35 22.85 10.3 22.7 10.7 22.85 11.45 23.05 11.25 22.85 10.35 22.35 10.1 22.2 Q9.6 21.95 9.6 21.45 L10.2 21.7 10.3 21.7 10.25 21.6 10.0 21.1 10.2 21.25" fill="#a66626" fill-rule="evenodd" stroke="none"/>
      <path d="M27.85 17.65 L35.7 17.1 27.85 16.45 20.1 17.1 27.85 17.65 M41.4 16.65 L41.4 16.7 40.05 17.15 40.0 17.2 39.95 17.3 39.25 17.45 Q38.7 17.5 38.35 17.75 L38.05 17.65 Q33.8 18.65 27.85 18.65 22.0 18.65 17.7 17.65 L17.55 17.7 17.4 17.65 16.95 17.6 16.3 17.35 15.7 17.15 14.35 16.6 Q12.1 15.6 12.2 14.3 12.1 12.3 17.05 11.05 21.55 9.85 27.85 9.85 34.25 9.85 38.75 11.05 43.65 12.3 43.55 14.3 43.6 15.65 41.4 16.65 M41.05 15.75 L41.0 15.75 Q42.5 15.05 42.55 14.3 42.45 13.0 38.5 12.0 34.15 10.85 27.85 10.85 21.65 10.85 17.3 12.0 13.3 13.0 13.2 14.3 13.25 15.0 14.75 15.7 L14.8 15.7 15.95 16.2 Q16.1 16.0 16.35 15.95 21.3 14.45 27.85 14.45 34.45 14.45 39.35 15.95 L39.75 16.2 41.05 15.75 M45.7 14.8 L45.65 14.6 45.5 14.5 45.45 14.45 Q45.25 13.7 44.6 13.2 43.55 11.75 40.25 10.55 35.15 8.65 27.85 8.65 20.55 8.65 15.4 10.55 12.05 11.75 11.1 13.3 L10.7 13.75 10.6 13.85 10.5 14.0 10.4 14.1 10.3 15.3 10.3 15.65 10.15 16.2 10.15 16.25 10.05 18.7 Q10.05 20.15 10.7 21.7 L10.7 21.75 10.75 21.8 10.9 22.2 10.9 22.3 10.9 22.35 10.95 22.5 11.0 22.55 Q11.85 24.15 15.4 25.4 20.55 27.3 27.85 27.3 35.15 27.3 40.25 25.45 L40.3 25.4 Q43.9 24.15 44.8 22.55 44.8 22.25 44.95 22.05 L45.0 22.05 45.15 21.65 45.65 20.35 Q46.2 18.6 46.2 17.6 L45.9 16.0 45.8 15.7 45.9 15.5 45.9 15.15 45.85 14.9 45.7 14.8 M40.95 8.7 L40.95 8.65 Q45.65 10.4 46.65 12.75 L46.8 12.8 47.3 13.4 47.45 13.9 47.45 13.85 47.85 15.55 48.2 17.6 47.55 20.95 47.55 21.0 47.05 22.35 47.0 22.45 46.85 22.8 46.7 23.15 46.6 23.3 Q45.65 25.65 40.95 27.3 35.55 29.3 27.85 29.3 20.15 29.3 14.7 27.3 L14.75 27.3 Q9.9 25.6 9.1 23.2 L9.05 23.05 8.95 22.65 8.85 22.45 8.8 22.4 Q8.05 20.5 8.05 18.7 8.05 16.45 8.2 15.9 L8.15 15.95 Q8.25 15.0 8.85 13.95 L9.05 12.9 9.1 12.85 Q9.95 10.4 14.7 8.65 20.15 6.65 27.85 6.65 35.55 6.65 40.95 8.7" fill="#4a2e11" fill-rule="evenodd" stroke="none"/>
      <path d="M11.15 13.4 L10.9 14.15 10.9 13.85 11.15 13.4" fill="#501f12" fill-rule="evenodd" stroke="none"/>
      <path d="M45.1 11.5 L44.8 11.15 45.0 11.15 Q46.25 11.75 46.95 13.0 L47.3 13.7 Q47.9 14.45 48.05 15.55 48.2 16.75 47.85 17.9 L47.85 17.95 47.8 18.1 47.75 18.25 47.65 18.55 47.55 18.8 47.25 17.55 47.05 18.25 46.9 18.35 46.2 16.8 46.0 16.1 46.0 15.95 45.85 14.65 45.65 14.15 45.5 13.25 Q45.45 12.95 45.7 12.95 L46.25 13.5 45.85 12.75 44.75 11.6 Q44.5 11.4 44.7 11.3 L45.1 11.5 M11.15 13.4 L11.0 13.45 11.0 13.5 11.15 13.05 11.05 13.1 10.95 13.3 10.8 13.5 10.75 13.55 10.45 14.2 Q10.15 14.75 10.1 15.4 L10.15 16.05 9.9 16.9 9.65 17.9 9.55 17.95 Q9.25 17.2 9.25 16.4 L9.2 16.35 9.0 17.45 8.95 17.7 Q8.3 16.65 8.6 15.3 L8.55 14.65 8.6 14.45 8.7 13.95 Q9.2 12.35 10.6 11.65 L10.5 12.45 11.3 11.25 11.5 11.2 11.15 13.4" fill="#4a2e11" fill-rule="evenodd" stroke="none"/>
      <path d="M27.2 18.4 L27.55 17.85 27.55 17.8 Q27.9 17.4 28.4 17.4 L28.45 22.1 28.5 23.6 28.6 25.8 Q28.5 26.45 28.7 26.9 27.9 27.0 27.1 26.5 L27.15 26.2 27.15 25.25 27.15 25.2 27.15 20.2 Q27.35 20.45 27.8 20.5 L27.9 20.4 Q28.25 19.95 28.2 19.35 L27.9 18.2 27.65 18.2 Q27.35 18.25 27.2 18.4 M29.7 26.35 L29.75 26.45 29.55 26.6 29.7 26.35 M19.7 28.85 L19.8 29.2 19.85 29.3 19.65 29.2 19.65 29.05 19.7 28.85 M28.0 24.5 L28.0 22.75 27.9 21.0 27.8 21.0 Q27.15 21.7 27.25 22.85 27.35 24.25 27.95 24.75 L28.0 24.5 M19.65 30.3 L21.0 30.9 19.65 30.45 19.65 30.5 19.65 30.3 M21.05 30.95 L21.25 30.85 21.3 30.9 21.3 31.0 21.1 32.4 21.2 33.95 21.15 34.15 21.1 34.1 Q20.5 33.4 20.55 32.15 20.6 31.15 21.05 30.95 M22.45 31.4 Q22.45 31.25 22.6 31.4 L22.6 31.45 22.7 32.95 22.55 34.5 22.55 34.7 22.5 34.75 22.4 34.65 Q21.95 34.2 22.15 33.15 L22.4 31.4 22.45 31.4 M24.35 31.8 L24.5 31.45 24.6 31.5 24.7 31.85 24.7 33.25 24.4 35.0 24.35 35.2 24.3 35.2 Q23.75 34.55 23.9 33.3 L24.35 31.8 M26.3 32.05 L26.35 31.7 Q26.4 31.55 26.5 31.75 L26.6 32.1 26.7 33.65 Q26.6 34.55 26.65 35.5 L26.65 35.6 26.65 35.8 26.3 35.5 Q25.9 34.95 26.05 33.95 L26.3 32.05 M28.6 32.15 L28.75 31.9 28.9 31.95 28.9 32.15 28.8 33.75 28.85 35.6 28.85 35.65 28.8 35.85 28.6 35.6 Q28.2 34.95 28.2 33.8 28.2 32.85 28.6 32.15 M30.6 32.1 L30.65 31.9 30.9 31.85 30.9 32.1 31.0 33.65 30.85 35.5 30.8 35.65 30.8 35.75 30.6 35.5 Q30.2 34.95 30.3 33.75 L30.6 32.1 M32.3 31.95 L32.4 31.8 32.65 31.85 32.65 31.9 Q32.45 32.8 32.55 33.7 L32.75 35.25 32.85 35.6 32.8 35.65 32.5 35.3 Q31.95 34.55 31.9 33.3 31.85 32.45 32.3 31.95 M34.3 31.6 L34.35 31.25 34.4 31.2 34.45 31.2 34.6 31.55 34.85 32.75 34.85 34.55 34.85 34.7 34.85 34.8 34.75 34.75 Q34.15 34.2 34.15 33.15 34.15 32.35 34.3 31.6 M35.7 31.2 L36.5 30.95 36.6 30.9 36.65 30.75 36.7 30.8 36.7 30.85 37.8 30.55 37.8 30.65 36.75 30.95 36.85 32.55 36.8 33.8 36.75 34.35 36.7 34.6 36.45 34.05 Q36.15 33.4 36.15 32.65 36.15 31.75 36.55 31.0 L35.7 31.2 M35.85 28.95 L35.85 29.0 35.35 29.3 36.05 29.05 35.85 28.95 M36.75 29.65 Q34.45 30.75 31.95 30.9 L29.95 30.95 29.8 31.0 29.4 30.5 29.55 30.3 Q30.8 28.85 32.7 28.25 L35.0 27.6 36.55 28.25 36.85 28.8 36.85 29.45 36.75 29.65 M27.05 28.75 L26.85 29.05 26.65 29.2 26.4 29.4 Q23.65 30.6 20.95 29.45 L20.65 28.85 20.7 28.55 20.95 28.3 21.5 28.1 21.55 28.1 21.95 27.85 Q23.2 27.25 24.5 27.1 L25.05 27.6 25.5 28.2 25.8 28.25 26.1 28.3 26.6 28.55 27.05 28.75" fill="#cccccc" fill-rule="evenodd" stroke="none"/>
      <path d="M28.4 17.4 L28.6 17.35 28.9 17.4 29.1 17.65 29.3 17.85 Q29.7 18.3 29.7 18.9 L29.7 26.1 29.7 26.35 29.55 26.6 28.7 26.9 Q28.5 26.45 28.6 25.8 L28.5 23.6 28.45 22.1 28.4 17.4 M21.0 30.9 L21.05 30.95 Q20.6 31.15 20.55 32.15 20.5 33.4 21.1 34.1 19.75 33.4 19.65 32.6 L19.65 30.5 19.65 30.45 21.0 30.9 M21.3 31.0 L22.45 31.4 22.4 31.4 22.15 33.15 Q21.95 34.2 22.4 34.65 L22.0 34.5 21.15 34.15 21.2 33.95 21.1 32.4 21.3 31.0 M22.6 31.45 L24.35 31.8 23.9 33.3 Q23.75 34.55 24.3 35.2 L22.55 34.7 22.55 34.5 22.7 32.95 22.6 31.45 M24.7 31.85 L26.3 32.05 26.05 33.95 Q25.9 34.95 26.3 35.5 L24.35 35.2 24.4 35.0 24.7 33.25 24.7 31.85 M26.6 32.1 L28.6 32.15 Q28.2 32.85 28.2 33.8 28.2 34.95 28.6 35.6 L26.65 35.5 Q26.6 34.55 26.7 33.65 L26.6 32.1 M28.9 32.15 L30.6 32.1 30.3 33.75 Q30.2 34.95 30.6 35.5 L28.85 35.6 28.8 33.75 28.9 32.15 M30.9 32.1 L32.3 31.95 Q31.85 32.45 31.9 33.3 31.95 34.55 32.5 35.3 L30.85 35.5 31.0 33.65 30.9 32.1 M32.65 31.9 L34.3 31.6 Q34.15 32.35 34.15 33.15 34.15 34.2 34.75 34.75 L32.75 35.25 32.55 33.7 Q32.45 32.8 32.65 31.9 M34.6 31.55 L35.7 31.2 36.55 31.0 Q36.15 31.75 36.15 32.65 36.15 33.4 36.45 34.05 L35.4 34.5 34.85 34.7 34.85 34.55 34.85 32.75 34.6 31.55 M37.8 30.65 L37.8 32.6 37.75 32.8 36.8 33.8 36.85 32.55 36.75 30.95 37.8 30.65" fill="#9a9a9a" fill-rule="evenodd" stroke="none"/>
      <path d="M27.15 20.2 Q26.8 19.85 26.85 19.15 26.9 18.65 27.2 18.4 27.35 18.25 27.65 18.2 L27.9 18.2 28.2 19.35 Q28.25 19.95 27.9 20.4 L27.8 20.5 Q27.35 20.45 27.15 20.2 M28.0 24.5 L27.95 24.75 Q27.35 24.25 27.25 22.85 27.15 21.7 27.8 21.0 L27.9 21.0 28.0 22.75 28.0 24.5 M19.65 29.2 L19.85 29.3 19.8 29.2 19.7 28.85 19.7 28.6 19.9 27.95 20.55 27.65 20.6 27.6 Q22.3 26.1 24.2 26.0 L24.2 25.95 24.3 26.0 26.15 26.25 26.2 26.4 25.95 26.7 26.55 27.0 26.85 27.3 27.4 27.5 28.85 28.05 31.05 26.75 31.05 26.6 31.05 26.45 31.1 26.35 31.15 26.25 31.3 26.2 31.2 26.1 Q31.55 25.5 32.25 25.6 L34.5 26.15 36.05 26.7 37.15 27.65 38.0 28.95 38.1 29.25 37.85 29.65 37.9 29.95 37.8 30.35 37.8 30.55 36.7 30.85 36.7 30.8 36.65 30.75 36.6 30.9 36.5 30.95 35.7 31.2 34.6 31.55 34.45 31.2 34.4 31.2 34.35 31.25 34.3 31.6 32.65 31.9 32.65 31.85 32.4 31.8 32.3 31.95 30.9 32.1 30.9 31.85 30.65 31.9 30.6 32.1 28.9 32.15 28.9 31.95 28.75 31.9 28.6 32.15 26.6 32.1 26.5 31.75 Q26.4 31.55 26.35 31.7 L26.3 32.05 24.7 31.85 24.6 31.5 24.5 31.45 24.35 31.8 22.6 31.45 22.6 31.4 Q22.45 31.25 22.45 31.4 L21.3 31.0 21.3 30.9 21.25 30.85 21.05 30.95 21.0 30.9 19.65 30.3 19.65 29.2 M35.85 28.95 L36.05 29.05 35.35 29.3 35.85 29.0 35.85 28.95 M36.75 29.65 L36.85 29.45 36.85 28.8 36.55 28.25 35.0 27.6 32.7 28.25 Q30.8 28.85 29.55 30.3 L29.4 30.5 29.8 31.0 29.95 30.95 31.95 30.9 Q34.45 30.75 36.75 29.65 M27.05 28.75 L26.6 28.55 26.1 28.3 25.8 28.25 25.5 28.2 25.05 27.6 24.5 27.1 Q23.2 27.25 21.95 27.85 L21.55 28.1 21.5 28.1 20.95 28.3 20.7 28.55 20.65 28.85 20.95 29.45 Q23.65 30.6 26.4 29.4 L26.65 29.2 26.85 29.05 27.05 28.75" fill="#e2e2e2" fill-rule="evenodd" stroke="none"/>
      <path d="M26.15 16.6 L26.2 16.6 Q27.1 15.5 28.4 15.55 L28.5 15.55 29.35 15.5 29.9 15.85 30.45 16.4 30.6 16.55 30.65 16.6 Q31.5 17.55 31.55 18.9 L31.55 24.35 Q34.1 24.55 36.1 25.4 39.7 26.85 39.65 29.05 L39.65 29.25 39.6 29.5 39.6 30.05 39.65 30.35 39.65 32.6 39.55 33.25 Q39.2 35.0 36.1 36.2 33.05 37.4 28.7 37.45 24.4 37.4 21.35 36.2 L21.3 36.2 Q19.35 35.45 18.5 34.45 18.25 34.4 18.05 34.2 17.8 33.95 17.8 33.55 L17.8 29.05 Q17.7 26.85 21.3 25.4 L25.3 24.4 25.3 18.9 Q25.3 17.55 26.15 16.6 M27.55 17.8 L27.55 17.85 Q27.1 18.25 27.15 18.9 L27.15 25.2 27.15 25.25 27.15 26.2 27.1 26.5 Q27.9 27.0 28.7 26.9 L29.55 26.6 29.75 26.45 29.7 26.35 29.7 26.1 29.7 18.9 Q29.7 18.3 29.3 17.85 L29.1 17.65 28.9 17.4 28.6 17.35 28.4 17.4 Q27.9 17.4 27.55 17.8 M19.65 32.6 Q19.8 33.65 22.0 34.5 24.8 35.6 28.7 35.6 32.65 35.6 35.4 34.5 37.4 33.7 37.75 32.8 L37.8 32.6 37.8 30.35 37.9 29.95 37.85 29.65 37.8 29.5 37.8 29.25 37.8 29.05 Q37.55 27.95 35.4 27.1 33.7 26.4 31.55 26.2 L31.25 26.75 31.15 26.9 31.0 27.05 Q28.6 29.35 25.8 27.1 L25.7 27.0 25.55 26.85 25.3 26.3 Q23.5 26.5 22.0 27.1 19.85 27.95 19.65 29.05 L19.65 32.6" fill="#666666" fill-rule="evenodd" stroke="none"/>
    </g>
    <g id="sprite6" transform="matrix(1.0, 0.0, 0.0, 1.0, 25.0, 25.0)">
      <use ffdec:characterId="1392" height="50.0" transform="matrix(1.0, 0.0, 0.0, 1.0, -25.0, -25.0)" width="45.7" xlink:href="#shape5"/>
    </g>
    <g id="shape5" transform="matrix(1.0, 0.0, 0.0, 1.0, 25.0, 25.0)">
      <path d="M20.7 -24.2 L20.7 -19.6 Q19.15 -21.8 15.3 -21.8 L-15.3 -21.8 Q-21.8 -21.8 -21.8 -15.65 L-21.8 15.65 Q-21.8 21.8 -15.3 21.8 L15.3 21.8 Q19.15 21.8 20.7 19.65 L20.7 24.25 Q18.8 25.0 16.1 25.0 L-16.1 25.0 Q-25.05 25.0 -25.0 16.5 L-25.0 -16.5 Q-25.05 -25.0 -16.1 -25.0 L16.1 -25.0 Q18.8 -25.0 20.7 -24.2" fill="#0099ff" fill-opacity="0.8" fill-rule="evenodd" stroke="none"/>
    </g>
    <g id="sprite7" transform="matrix(1.0, 0.0, 0.0, 1.0, 0.0, 0.0)">
      <use ffdec:characterId="1435" height="39.7" transform="matrix(1.0, 0.0, 0.0, 1.0, 0.0, 0.0)" width="38.85" xlink:href="#shape6"/>
    </g>
    <g id="shape6" transform="matrix(1.0, 0.0, 0.0, 1.0, 0.0, 0.0)">
      <path d="M38.6 0.25 L38.85 0.85 38.85 38.85 38.6 39.45 38.0 39.7 9.65 39.7 Q0.0 39.7 0.0 30.2 L0.0 9.5 Q0.0 0.0 9.65 0.0 L38.0 0.0 Q38.35 0.0 38.6 0.25 M0.85 24.55 L0.85 25.35 0.85 30.2 Q0.85 38.85 9.65 38.85 L38.0 38.85 38.0 0.85 9.65 0.85 Q0.85 0.85 0.85 9.5 L0.85 24.55" fill="#b0dfff" fill-opacity="0.49803922" fill-rule="evenodd" stroke="none"/>
      <path d="M36.35 8.6 L35.8 7.55 35.2 6.95 34.5 5.95 33.1 4.95 33.05 4.9 32.65 4.6 31.95 4.4 31.05 4.1 24.75 4.3 24.75 4.35 Q19.15 5.75 12.85 10.15 6.5 14.5 3.2 19.25 L2.5 20.35 2.5 9.5 Q2.5 2.5 9.65 2.5 L36.35 2.5 36.35 8.6 M2.5 29.95 L3.4 31.3 Q4.45 32.8 6.15 33.95 L6.2 33.95 6.4 34.05 6.75 34.35 6.85 34.4 13.8 34.6 17.0 33.55 17.35 34.25 19.4 37.2 9.65 37.2 Q2.5 37.2 2.5 30.2 L2.5 29.95 M27.15 37.2 Q29.05 36.35 31.1 34.95 34.5 32.5 36.35 29.85 L36.35 37.2 27.15 37.2 M36.35 23.35 L36.05 22.9 35.85 22.7 35.5 22.25 35.4 22.0 35.3 21.8 34.4 20.95 35.35 19.65 36.35 18.15 36.35 23.35 M25.25 14.25 L21.85 17.15 Q21.4 16.85 20.8 16.75 L20.75 16.7 Q23.05 15.25 25.25 14.25 M34.6 24.1 L35.1 24.8 34.65 24.2 34.6 24.1 M17.2 20.5 L12.4 23.15 Q14.45 21.1 17.2 19.1 L17.15 19.25 17.1 19.3 17.2 20.5 M19.65 34.35 L19.7 34.4 20.05 34.9 19.65 34.35 M31.55 32.25 L31.6 32.3 30.15 33.4 30.15 33.35 31.55 32.25 M32.6 31.45 L31.75 32.2 31.75 32.1 32.6 31.45 M22.95 36.5 L23.0 36.55 22.2 36.6 22.95 36.5 M26.15 35.6 L26.2 35.55 28.0 34.7 28.05 34.7 26.15 35.6 M29.95 33.5 L30.0 33.5 28.3 34.55 28.3 34.5 29.95 33.5" fill="#0099ff" fill-rule="evenodd" stroke="none"/>
      <path d="M2.5 20.35 L1.7 21.8 1.7 9.5 Q1.7 1.7 9.65 1.7 L37.2 1.7 37.2 10.85 37.15 10.7 37.15 10.65 36.35 8.6 36.35 2.5 9.65 2.5 Q2.5 2.5 2.5 9.5 L2.5 20.35 M1.7 28.45 L1.95 29.0 1.95 28.95 2.5 29.95 2.5 30.2 Q2.5 37.2 9.65 37.2 L19.4 37.2 19.9 37.95 19.95 38.0 9.65 38.0 Q1.7 38.0 1.7 30.2 L1.7 28.45 M24.95 38.0 L27.15 37.2 36.35 37.2 36.35 29.85 36.45 29.7 37.2 28.45 37.2 38.0 24.95 38.0 M37.2 24.55 L36.35 23.35 36.35 18.15 37.2 16.55 37.2 24.55" fill="#40b3ff" fill-opacity="0.84705883" fill-rule="evenodd" stroke="none"/>
      <path d="M1.7 21.8 Q0.95 23.3 0.85 24.55 L0.85 9.5 Q0.85 0.85 9.65 0.85 L38.0 0.85 38.0 38.85 9.65 38.85 Q0.85 38.85 0.85 30.2 L0.85 25.35 0.95 25.9 0.95 26.0 1.15 26.5 1.25 27.05 1.45 27.5 1.7 28.45 1.7 30.2 Q1.7 38.0 9.65 38.0 L19.95 38.0 20.5 38.35 21.0 38.3 24.3 38.15 24.35 38.15 24.95 38.0 37.2 38.0 37.2 28.45 Q38.15 26.55 37.6 25.3 L37.35 24.75 37.2 24.55 37.2 16.55 Q38.05 14.6 37.75 13.15 L37.7 12.95 37.65 12.6 37.55 12.2 37.55 12.1 37.2 10.85 37.2 1.7 9.65 1.7 Q1.7 1.7 1.7 9.5 L1.7 21.8" fill="#77c9ff" fill-opacity="0.69803923" fill-rule="evenodd" stroke="none"/>
    </g>
  </defs>
</svg>
