<?xml version="1.0" encoding="UTF-8" standalone="no"?>
<svg xmlns:ffdec="https://www.free-decompiler.com/flash" xmlns:xlink="http://www.w3.org/1999/xlink" ffdec:objectType="frame" height="387.3px" width="406.2px" xmlns="http://www.w3.org/2000/svg">
  <g transform="matrix(1.0, 0.0, 0.0, 1.0, 156.2, 311.4)">
    <use ffdec:characterId="218" height="23.45" transform="matrix(-6.7383, -1.1209, -0.8187, 3.3792, 141.6867, -54.7316)" width="31.15" xlink:href="#shape0"/>
    <use ffdec:characterId="224" height="27.8" transform="matrix(6.1256, -3.3876, 5.0747, 5.1924, -155.6944, -70.7155)" width="33.3" xlink:href="#shape1"/>
    <use ffdec:characterId="211" height="64.75" transform="matrix(0.3782, 0.1461, -0.1461, 0.3782, -18.956, -188.837)" width="73.5" xlink:href="#sprite0"/>
    <use ffdec:characterId="211" height="64.75" transform="matrix(0.4051, -0.0263, 0.0263, 0.4051, 71.5797, -227.9212)" width="73.5" xlink:href="#sprite0"/>
    <use ffdec:characterId="211" height="64.75" transform="matrix(0.3739, -0.1571, 0.1571, 0.3739, 39.2536, -253.9879)" width="73.5" xlink:href="#sprite0"/>
    <use ffdec:characterId="211" height="64.75" transform="matrix(0.3742, 0.156, -0.156, 0.3742, 138.8389, -191.5614)" width="73.5" xlink:href="#sprite0"/>
    <use ffdec:characterId="211" height="64.75" transform="matrix(0.3753, -0.1537, 0.1537, 0.3753, 177.1547, -177.7448)" width="73.5" xlink:href="#sprite0"/>
    <use ffdec:characterId="211" height="64.75" transform="matrix(0.2805, 0.0454, -0.0454, 0.2805, 164.1754, -192.2527)" width="73.5" xlink:href="#sprite0"/>
  </g>
  <defs>
    <g id="shape0" transform="matrix(1.0, 0.0, 0.0, 1.0, 10.85, 14.75)">
      <path d="M1.45 -14.65 Q1.1 -14.55 0.85 -14.15 L0.65 -13.75 0.9 -14.05 Q1.15 -14.5 1.45 -14.65 M1.25 -14.65 Q1.55 -14.8 2.1 -14.75 2.45 -14.7 2.6 -14.5 L2.75 -14.45 2.8 -14.3 2.85 -14.2 2.8 -14.25 2.7 -14.2 Q2.65 -14.3 2.4 -14.4 2.1 -14.55 1.9 -14.55 1.6 -14.55 1.3 -14.3 1.15 -14.1 1.1 -14.0 1.05 -13.9 0.85 -13.65 L0.55 -13.35 Q0.3 -13.1 -0.2 -12.8 -0.8 -12.5 -1.4 -12.35 -2.2 -12.45 -3.0 -11.85 L-3.6 -11.25 -3.9 -10.85 -4.0 -10.55 Q-3.4 -11.45 -2.45 -11.45 L-1.35 -11.35 -1.05 -11.4 -0.2 -11.3 Q0.3 -11.4 0.75 -11.65 L0.9 -11.7 1.1 -11.8 Q1.7 -12.2 2.05 -11.75 L2.05 -11.7 1.9 -11.75 2.0 -11.65 2.0 -11.6 1.9 -11.65 1.8 -11.75 Q1.75 -11.8 1.7 -11.8 L1.3 -11.75 0.85 -11.5 0.65 -11.4 0.6 -11.35 Q0.25 -11.2 -0.05 -11.15 L-0.6 -11.1 -0.9 -11.15 -1.2 -11.15 -1.6 -11.2 Q-2.8 -11.05 -3.25 -10.8 -3.4 -10.7 -3.75 -10.3 -4.05 -9.95 -4.3 -9.35 L-4.35 -9.3 -4.4 -9.0 Q-4.45 -8.1 -4.6 -7.35 -4.75 -6.75 -5.0 -6.45 -5.35 -6.1 -5.55 -6.0 -5.95 -5.75 -6.5 -5.8 L-6.65 -5.85 -7.7 -5.75 Q-8.7 -5.65 -9.15 -5.25 -9.85 -4.5 -9.9 -4.05 -9.95 -3.95 -10.05 -3.8 L-10.35 -3.2 Q-10.5 -3.0 -10.75 -2.95 L-10.8 -2.95 -10.85 -3.0 -10.85 -3.05 Q-10.85 -3.15 -10.55 -3.5 L-10.25 -3.9 Q-10.05 -4.45 -9.9 -4.7 L-9.7 -5.1 Q-9.6 -5.35 -9.3 -5.5 L-9.05 -5.7 Q-8.9 -5.8 -8.75 -5.85 L-8.4 -5.95 -6.8 -5.9 Q-6.5 -5.9 -6.05 -6.25 L-5.6 -6.65 -5.5 -6.8 -5.15 -7.45 -4.8 -8.3 -4.75 -8.55 -4.65 -9.15 -4.6 -9.6 -4.6 -10.0 Q-4.6 -10.4 -4.5 -10.7 L-4.3 -11.0 -3.9 -11.4 -3.55 -11.7 Q-3.25 -12.0 -2.7 -12.4 -2.5 -12.55 -2.3 -12.65 L-1.7 -12.75 -1.2 -12.8 Q-0.7 -12.85 -0.4 -13.0 L0.0 -13.2 Q0.4 -13.45 0.55 -13.8 L0.9 -14.35 Q1.05 -14.55 1.25 -14.65 M3.4 -13.15 Q3.7 -13.1 3.75 -12.9 L3.85 -12.55 Q3.9 -12.45 4.0 -12.25 L4.2 -11.9 Q4.4 -11.65 4.55 -11.25 L4.8 -10.6 Q4.9 -10.35 4.95 -9.95 5.0 -9.45 5.05 -9.3 5.1 -9.1 5.25 -8.65 L5.45 -7.95 Q5.75 -6.9 7.1 -5.35 7.3 -5.15 7.5 -4.75 L7.8 -4.05 Q8.1 -3.55 8.1 -2.75 L8.05 -2.35 Q8.05 -1.65 7.95 -0.75 L7.95 -0.65 7.9 -0.1 7.75 0.4 7.7 0.65 Q7.65 0.85 7.65 0.9 L7.6 1.05 Q7.7 1.1 7.7 1.2 L7.55 1.7 7.5 1.85 Q7.5 2.05 7.65 2.45 7.75 2.8 7.75 3.15 L7.75 4.2 Q7.75 4.6 7.95 4.85 L8.3 5.2 8.5 5.55 Q8.05 5.5 7.75 5.0 L7.65 4.7 Q7.6 4.5 7.55 4.3 L7.5 3.55 7.5 2.8 Q7.4 2.45 7.35 2.25 L7.25 2.5 7.1 3.25 Q7.1 4.25 7.4 5.25 7.5 5.7 7.65 6.0 7.75 6.2 7.9 6.3 L7.85 6.35 Q8.1 6.65 8.35 6.7 L8.2 6.75 Q7.95 6.65 7.75 6.4 L7.65 6.4 Q7.25 6.2 6.95 5.45 6.65 4.8 6.65 4.35 6.65 3.4 6.8 2.7 L6.65 3.05 Q6.3 3.95 6.3 4.8 6.3 5.15 6.4 5.65 L6.6 6.45 Q6.3 6.2 6.15 5.5 L6.1 5.25 6.0 4.95 Q5.95 4.8 5.95 4.25 5.95 3.75 6.3 2.9 6.5 2.4 6.9 1.5 7.2 0.65 7.35 0.15 L7.5 -0.55 7.6 -0.85 Q7.65 -1.1 7.65 -1.25 L7.7 -1.25 7.75 -1.1 7.8 -1.85 Q7.8 -2.4 7.45 -3.65 7.4 -3.85 6.9 -4.55 6.45 -5.15 6.4 -5.45 6.25 -5.6 6.0 -5.95 L5.95 -6.05 5.7 -6.4 5.3 -7.05 5.25 -7.15 5.05 -7.45 4.85 -7.55 4.7 -7.65 Q4.2 -8.05 4.1 -8.2 3.9 -8.5 3.75 -8.85 3.65 -9.2 3.65 -9.45 3.7 -9.75 3.45 -10.1 L3.0 -10.7 3.0 -10.8 3.15 -10.8 Q3.7 -10.35 4.05 -9.65 4.35 -8.8 4.6 -8.4 L4.9 -8.05 Q4.8 -8.4 4.75 -8.75 4.7 -8.9 4.75 -9.6 L4.75 -9.8 4.7 -9.9 4.65 -10.4 4.6 -10.45 4.45 -10.9 Q4.35 -11.15 4.2 -11.3 3.8 -11.7 3.75 -12.15 L3.75 -12.2 3.7 -12.55 Q3.65 -12.95 3.35 -13.1 L3.4 -13.15 M4.95 -8.85 L5.0 -8.8 4.95 -8.9 4.95 -8.85 M17.75 -0.25 Q17.4 0.25 17.2 0.4 16.9 0.6 16.6 1.0 L16.2 1.45 15.95 2.0 15.95 2.05 15.8 2.8 15.6 3.5 Q15.3 4.45 14.7 5.0 14.3 5.45 14.1 5.6 13.75 5.9 12.65 6.15 L12.45 6.25 Q12.1 6.45 11.7 6.9 L11.1 7.65 10.5 8.3 Q10.05 8.7 9.6 8.7 L9.4 8.7 9.4 8.6 9.3 8.6 9.15 8.45 Q9.2 8.4 9.25 8.35 L9.4 8.45 9.85 8.4 Q10.2 8.2 10.55 7.85 L11.0 7.15 11.1 7.0 Q10.8 7.1 10.45 7.05 L10.25 7.2 Q9.95 7.35 9.6 7.35 L9.3 7.3 Q9.1 7.25 8.7 7.1 8.45 7.0 8.05 7.0 8.0 7.05 8.0 6.95 L8.0 6.9 8.05 6.9 8.25 6.75 8.8 6.95 Q9.35 7.1 9.55 7.1 9.85 7.1 10.0 7.05 L10.15 6.9 10.3 6.9 10.0 6.65 Q9.8 6.5 9.75 6.35 L9.6 6.05 9.5 5.8 9.45 5.75 8.9 5.75 8.95 5.7 8.95 5.65 9.05 5.65 Q9.3 5.5 9.5 5.55 9.75 5.6 9.95 5.9 L10.25 6.3 Q10.6 6.6 10.95 6.6 11.15 6.6 11.3 6.55 L11.4 6.45 Q11.7 6.05 12.1 5.9 12.35 5.8 12.65 5.75 L13.0 5.75 13.6 5.4 14.1 5.0 14.3 4.75 14.9 3.95 15.2 3.35 15.65 2.3 15.75 1.95 Q15.8 1.5 16.15 1.05 L16.25 0.9 Q16.4 0.65 16.5 0.5 L17.0 -0.2 17.55 -0.9 Q17.95 -1.4 18.25 -1.55 19.0 -2.1 19.45 -1.6 L19.7 -0.9 Q19.9 -0.55 19.85 -0.25 19.85 -0.15 20.05 0.4 20.3 0.95 20.3 1.05 20.3 1.3 20.2 1.6 20.1 1.95 19.95 2.0 L19.6 2.25 19.75 1.95 19.75 1.9 Q19.75 1.8 19.9 1.6 L19.95 1.45 20.0 1.25 Q20.0 1.15 19.85 1.0 L19.65 0.75 19.55 0.6 Q19.45 0.5 19.45 0.45 L19.45 0.2 19.1 -0.25 Q18.8 -0.7 18.55 -0.7 18.1 -0.7 17.75 -0.25 M18.05 -1.0 Q18.85 -0.95 19.25 -0.6 19.5 -0.4 19.65 0.0 L19.75 0.25 19.7 0.0 19.65 -0.2 19.7 -0.6 19.5 -1.2 19.3 -1.5 Q19.2 -1.65 18.95 -1.65 L18.8 -1.65 Q18.35 -1.4 17.9 -0.95 L18.05 -1.0 M11.85 6.45 Q12.0 6.3 12.2 6.2 L12.0 6.3 11.8 6.45 11.85 6.45" fill="#ffefd0" fill-opacity="0.7490196" fill-rule="evenodd" stroke="none"/>
    </g>
    <g id="shape1" transform="matrix(1.0, 0.0, 0.0, 1.0, 10.9, 18.4)">
      <path d="M0.45 -18.35 L0.45 -18.25 0.0 -18.15 Q-0.25 -17.85 -0.3 -17.7 L-0.4 -17.5 -0.35 -17.55 -0.35 -17.5 -0.4 -17.25 -0.4 -17.2 -0.45 -16.95 -0.5 -16.65 Q-0.5 -16.55 -0.55 -16.4 L-0.6 -16.15 -0.65 -16.2 Q-0.55 -16.55 -0.5 -17.3 -0.35 -18.0 0.1 -18.4 L0.45 -18.35 M1.2 -14.6 L1.3 -14.45 1.0 -14.45 Q0.95 -14.35 0.9 -14.25 0.85 -14.15 0.8 -14.1 L0.9 -13.8 0.85 -13.65 0.75 -13.85 Q0.65 -14.0 0.65 -14.1 0.65 -14.2 0.8 -14.4 0.95 -14.6 1.0 -14.65 L1.2 -14.6 M7.65 -14.8 L7.8 -14.7 Q7.85 -14.6 8.15 -14.55 L8.3 -14.35 8.4 -14.15 8.35 -14.1 Q8.35 -14.05 8.25 -14.05 L8.25 -13.7 7.95 -14.2 Q7.9 -14.25 7.6 -14.7 L7.6 -14.75 7.65 -14.8 M8.15 -14.45 L8.25 -14.25 8.25 -14.3 Q8.25 -14.5 8.15 -14.45 M9.0 -12.25 L9.05 -12.0 Q9.05 -11.85 8.95 -11.7 L8.6 -11.4 8.25 -11.15 Q7.95 -11.0 7.9 -10.95 L7.85 -10.9 Q7.8 -10.9 7.8 -10.95 7.8 -11.0 8.3 -11.3 8.75 -11.65 8.75 -11.85 8.75 -12.05 8.6 -12.4 L8.45 -12.75 8.45 -13.0 8.5 -13.0 Q8.5 -12.8 8.5 -12.7 8.55 -12.55 8.85 -12.5 L9.0 -12.25 M7.9 -7.35 Q7.95 -7.35 8.0 -7.2 8.15 -7.05 8.65 -7.05 L8.7 -7.1 9.0 -7.15 9.1 -7.25 Q9.15 -7.3 9.25 -7.3 L9.6 -7.25 Q9.9 -7.1 9.95 -6.85 9.95 -6.55 9.95 -6.45 L9.55 -7.15 9.25 -7.2 9.15 -7.2 Q9.1 -7.15 8.9 -7.05 8.7 -6.95 8.65 -6.9 8.25 -6.85 8.05 -7.05 7.85 -7.2 7.85 -7.3 L7.85 -7.4 7.9 -7.35 M0.7 -12.5 L0.55 -12.15 0.25 -12.15 0.15 -12.2 0.2 -12.25 0.45 -12.3 0.7 -12.6 0.7 -12.5 M10.85 -3.65 Q11.0 -3.3 11.0 -2.8 11.0 -2.45 10.95 -1.9 10.9 -1.9 10.85 -1.85 L10.75 -1.9 10.75 -2.0 10.8 -2.35 10.9 -2.85 10.9 -3.2 Q10.85 -3.35 10.8 -3.5 10.7 -3.6 10.7 -3.65 L10.7 -3.8 10.65 -3.95 Q10.6 -4.05 10.6 -4.1 10.6 -4.25 10.7 -4.35 10.65 -4.35 10.65 -4.2 10.65 -4.05 10.85 -3.65 M7.2 -0.25 L7.45 -0.05 7.85 -0.05 8.15 -0.1 8.65 -0.1 Q8.65 -0.05 8.55 0.0 L7.9 0.05 Q7.5 0.05 7.15 -0.1 6.75 -0.3 6.4 -0.3 6.1 -0.3 6.1 -0.35 6.35 -0.35 6.5 -0.45 6.95 -0.35 7.2 -0.25 M16.7 -4.4 Q16.5 -4.25 16.45 -3.95 16.4 -3.8 16.45 -3.55 L16.4 -3.5 Q16.35 -3.6 16.35 -3.75 L16.3 -3.9 Q16.3 -4.15 16.35 -4.25 16.45 -4.4 16.65 -4.45 L16.7 -4.4 M15.75 -1.05 L15.7 -1.15 15.85 -1.2 16.1 -1.15 16.1 -1.1 15.8 -1.05 15.75 -1.05 M15.5 -1.2 L15.6 -1.15 Q15.5 -1.1 15.25 -0.9 15.0 -0.65 14.95 -0.55 L14.85 -0.6 14.85 -0.65 Q14.85 -0.8 14.95 -0.95 15.05 -1.05 15.25 -1.2 L15.5 -1.2 M19.35 -3.65 L19.15 -3.55 19.0 -3.5 18.9 -3.5 18.9 -3.55 Q18.9 -3.65 19.0 -3.7 L19.15 -3.75 Q19.3 -3.7 19.35 -3.65 M18.3 -0.85 L18.2 -0.85 18.2 -1.25 Q18.35 -1.2 18.35 -1.15 L18.35 -1.05 Q18.35 -0.95 18.3 -0.85 M22.4 -0.15 L22.4 0.0 22.35 0.05 Q22.3 0.0 22.25 -0.05 L22.25 -0.1 Q22.25 -0.25 22.35 -0.25 L22.4 -0.15 M-0.3 -12.65 L-0.8 -12.95 Q-0.7 -13.2 -0.5 -13.05 -0.4 -12.9 -0.3 -12.7 L-0.3 -12.65 M-4.9 -12.6 L-5.35 -12.0 Q-5.5 -11.7 -5.5 -11.4 -5.5 -11.3 -5.35 -11.05 L-5.1 -10.75 -5.0 -10.4 Q-4.95 -10.25 -4.75 -10.15 -4.65 -10.05 -4.6 -9.95 -4.5 -9.8 -4.55 -9.7 L-4.7 -9.9 Q-4.8 -10.05 -4.9 -10.1 -5.05 -10.2 -5.1 -10.35 L-5.2 -10.65 -5.35 -10.85 Q-5.5 -11.0 -5.55 -11.15 -5.6 -11.3 -5.6 -11.65 L-5.55 -11.9 Q-5.45 -12.15 -5.35 -12.2 -5.25 -12.3 -5.1 -12.45 -5.05 -12.55 -4.9 -12.6 M-3.9 -7.35 L-3.85 -7.35 -3.7 -7.1 -3.6 -6.9 -3.6 -6.5 Q-3.6 -6.0 -3.65 -5.95 -3.7 -5.75 -4.25 -5.25 L-4.4 -5.3 -4.55 -5.3 Q-4.65 -5.3 -4.6 -5.3 L-4.7 -5.3 -4.8 -5.15 Q-4.85 -5.05 -4.95 -5.1 -4.9 -5.15 -4.8 -5.3 L-4.6 -5.45 -4.45 -5.45 -4.3 -5.4 Q-3.95 -5.4 -3.8 -6.05 -3.7 -6.35 -3.7 -6.65 -3.7 -6.8 -3.8 -6.95 -3.9 -7.1 -3.9 -7.2 L-3.9 -7.35 M-9.2 -9.2 Q-9.25 -9.1 -9.5 -8.9 L-9.8 -8.65 -9.85 -8.3 -9.9 -8.0 Q-10.0 -8.1 -10.05 -8.25 L-10.1 -8.45 Q-10.1 -8.7 -9.95 -8.95 -9.75 -9.2 -9.45 -9.3 -9.2 -9.3 -9.2 -9.2 M-6.0 -5.35 Q-5.9 -5.35 -5.75 -5.2 L-5.55 -5.0 -5.85 -5.1 -6.0 -5.35 M-10.9 -4.85 Q-10.9 -5.0 -10.75 -5.15 -10.6 -5.3 -10.4 -5.4 -10.25 -5.4 -10.15 -5.6 L-10.05 -5.75 Q-10.15 -5.3 -10.5 -5.15 -10.65 -5.1 -10.7 -4.9 -10.75 -4.7 -10.8 -4.65 -10.9 -4.75 -10.9 -4.85 M-5.1 -5.05 Q-5.1 -5.0 -5.15 -5.0 L-5.25 -4.95 -5.5 -4.95 -5.3 -5.05 -5.1 -5.05 M16.4 3.2 L16.45 3.2 16.65 3.15 Q16.8 3.35 16.8 3.5 L16.75 3.6 16.7 3.75 16.65 3.75 16.7 3.45 Q16.65 3.25 16.4 3.2 M12.55 6.6 L12.75 6.65 12.65 6.8 12.6 6.9 Q12.4 6.9 12.35 7.0 L12.2 7.15 12.15 7.1 12.15 7.0 Q12.15 6.95 12.35 6.8 L12.55 6.6 M12.5 8.85 L12.45 9.35 12.25 9.4 12.25 9.35 12.3 9.2 12.4 9.05 12.3 8.75 12.3 8.65 Q12.3 8.6 12.4 8.6 12.5 8.75 12.5 8.85 M7.8 0.4 L7.65 0.8 Q7.55 1.05 7.4 1.15 7.6 0.55 7.8 0.35 L7.8 0.4 M6.05 1.45 Q6.05 1.5 5.9 1.5 L5.85 1.4 Q5.85 1.15 6.15 1.25 6.7 1.45 6.85 1.5 L6.95 1.5 6.8 1.55 6.15 1.4 6.05 1.45 M7.0 2.15 Q6.95 2.25 6.65 2.35 L6.7 2.1 6.95 2.1 7.0 2.15 M6.3 4.05 L6.35 4.25 Q6.1 4.1 6.1 4.0 L6.1 3.9 6.2 3.9 6.3 4.05 M9.2 6.45 L9.15 6.5 Q9.0 6.4 9.0 6.3 L9.15 6.3 Q9.2 6.3 9.2 6.4 L9.2 6.45" fill="#ffefd0" fill-opacity="0.7490196" fill-rule="evenodd" stroke="none"/>
    </g>
    <g id="sprite0" transform="matrix(1.0, 0.0, 0.0, 1.0, 36.75, 60.2)">
      <use ffdec:characterId="210" height="9.25" transform="matrix(7.0, 0.0, 0.0, 7.0, -36.75, -60.2)" width="10.5" xlink:href="#shape2"/>
    </g>
    <g id="shape2" transform="matrix(1.0, 0.0, 0.0, 1.0, 5.25, 8.6)">
      <path d="M2.3 -7.95 L2.75 -5.55 4.6 -3.95 2.75 -2.4 2.3 0.0 0.0 -0.8 -2.3 0.0 -2.75 -2.4 -4.6 -3.95 -2.75 -5.55 -2.3 -7.95 0.0 -7.15 2.3 -7.95" fill="url(#gradient0)" fill-rule="evenodd" stroke="none"/>
      <path d="M2.3 -7.95 L2.75 -5.55 4.6 -3.95 2.75 -2.4 2.3 0.0 0.0 -0.8 -2.3 0.0 -2.75 -2.4 -4.6 -3.95 -2.75 -5.55 -2.3 -7.95 0.0 -7.15 2.3 -7.95 Z" fill="none" stroke="#ffffff" stroke-linecap="round" stroke-linejoin="round" stroke-opacity="0.007843138" stroke-width="0.45"/>
    </g>
    <linearGradient gradientTransform="matrix(0.0, 0.0056, -0.0048, 0.0, 0.0, -3.95)" gradientUnits="userSpaceOnUse" id="gradient0" spreadMethod="pad" x1="-819.2" x2="819.2">
      <stop offset="0.0" stop-color="#fcd488" stop-opacity="0.007843138"/>
      <stop offset="1.0" stop-color="#ffa902" stop-opacity="0.007843138"/>
    </linearGradient>
  </defs>
</svg>
