<?xml version="1.0" encoding="UTF-8" standalone="no"?>
<svg xmlns:ffdec="https://www.free-decompiler.com/flash" xmlns:xlink="http://www.w3.org/1999/xlink" ffdec:objectType="frame" height="44.1px" width="47.25px" xmlns="http://www.w3.org/2000/svg">
  <g transform="matrix(1.0, 0.0, 0.0, 1.0, 23.1, 12.25)">
    <use ffdec:characterId="1934" height="6.3" transform="matrix(7.0, 0.0, 0.0, 7.0, -23.1, -12.25)" width="6.75" xlink:href="#shape0"/>
  </g>
  <defs>
    <g id="shape0" transform="matrix(1.0, 0.0, 0.0, 1.0, 3.3, 1.75)">
      <path d="M0.45 -1.05 L0.35 -0.25 0.1 -0.15 -0.65 0.0 -1.05 -0.15 -1.3 -0.25 -1.5 -0.35 -1.4 -1.25 0.45 -1.05" fill="#999999" fill-rule="evenodd" stroke="none"/>
      <path d="M-2.45 -0.15 L-2.95 -0.8 -3.0 -0.9 Q-3.15 -1.15 -3.05 -1.5 L-1.65 -1.2 -1.65 -0.3 -1.75 -0.25 -1.75 -0.15 -1.65 0.05 -2.45 -0.15 M0.7 -0.95 L3.05 -1.55 3.05 -1.4 3.1 -1.2 3.05 -0.85 2.4 -0.55 2.3 -0.5 0.7 -0.25 0.7 -0.95" fill="#666633" fill-rule="evenodd" stroke="none"/>
      <path d="M-2.7 -0.05 L-3.3 -0.4 -3.25 -1.75 Q-2.6 -1.75 -2.0 -1.65 L-1.75 -1.6 -1.1 -1.45 0.2 -1.4 Q1.15 -1.4 2.05 -1.65 2.45 -1.75 2.9 -1.75 L3.4 -1.65 3.45 -0.65 3.3 -0.5 3.15 -0.45 2.3 -0.15 2.15 -0.1 1.4 0.1 0.2 0.25 -0.7 0.2 -1.4 0.1 -1.65 0.05 -1.75 -0.15 -1.75 -0.25 -1.65 -0.3 -1.65 -1.2 -3.05 -1.5 Q-3.15 -1.15 -3.0 -0.9 L-2.95 -0.8 -2.45 -0.15 -2.7 -0.05 M1.4 1.05 L1.4 4.05 Q1.4 4.4 1.2 4.4 L1.15 4.45 0.9 4.5 0.35 4.5 Q-0.15 4.45 -0.45 4.5 L-0.55 4.5 -0.7 4.55 Q-0.85 4.55 -0.9 4.4 L-0.9 4.1 Q-1.0 3.8 -1.65 0.95 L-1.7 0.8 -1.6 0.85 Q-1.5 1.05 -1.2 1.95 -0.8 3.35 -0.75 3.85 L-0.75 4.0 Q-0.7 4.05 -0.7 4.15 L-0.65 4.3 0.35 4.25 1.1 4.3 Q1.2 3.75 1.2 2.8 1.2 1.5 1.25 1.1 L1.25 0.85 Q1.3 0.85 1.35 0.85 L1.4 1.05 M0.45 -1.05 L-1.4 -1.25 -1.5 -0.35 -1.3 -0.25 -1.05 -0.15 -0.65 0.0 0.1 -0.15 0.35 -0.25 0.45 -1.05 M0.7 -0.95 L0.7 -0.25 2.3 -0.5 2.4 -0.55 3.05 -0.85 3.1 -1.2 3.05 -1.4 3.05 -1.55 0.7 -0.95" fill="#111111" fill-rule="evenodd" stroke="none"/>
      <path d="M-2.7 -0.05 L-2.45 -0.15 -1.65 0.05 -1.4 0.1 -0.7 0.2 0.2 0.25 1.4 0.1 2.15 -0.1 2.3 -0.15 2.2 -0.1 1.8 0.2 Q1.4 0.55 1.4 0.75 1.4 0.9 1.45 1.0 L1.4 1.05 1.35 0.85 Q1.3 0.85 1.25 0.85 L1.25 1.1 Q1.2 1.5 1.2 2.8 1.2 3.75 1.1 4.3 L0.35 4.25 -0.65 4.3 -0.7 4.15 Q-0.7 4.05 -0.75 4.0 L-0.75 3.85 Q-0.8 3.35 -1.2 1.95 -1.5 1.05 -1.6 0.85 L-1.7 0.8 -2.3 0.2 -2.7 -0.05 M0.25 0.55 L-0.35 0.45 -0.6 0.5 -0.95 0.55 -1.15 0.65 -1.0 1.3 -0.2 3.85 Q-0.2 2.85 -0.2 2.25 -0.15 1.35 -0.05 1.3 L0.2 1.1 Q0.35 0.85 0.4 0.6 L0.35 0.55 0.25 0.55" fill="#3c0000" fill-rule="evenodd" stroke="none"/>
      <path d="M0.25 0.55 L0.35 0.55 0.4 0.6 Q0.35 0.85 0.2 1.1 L-0.05 1.3 Q-0.15 1.35 -0.2 2.25 -0.2 2.85 -0.2 3.85 L-1.0 1.3 -1.15 0.65 -0.95 0.55 -0.6 0.5 -0.35 0.45 0.25 0.55" fill="#590000" fill-rule="evenodd" stroke="none"/>
      <path d="M2.3 -0.15 L3.15 -0.45 3.3 -0.5 3.35 -0.45 Q3.1 -0.1 2.8 0.15 2.65 0.4 2.55 0.45 L2.4 0.55 2.35 0.55 Q2.2 0.65 2.0 0.75 1.7 0.85 1.45 1.0 1.4 0.9 1.4 0.75 1.4 0.55 1.8 0.2 L2.2 -0.1 2.3 -0.15" fill="#2d2111" fill-rule="evenodd" stroke="none"/>
    </g>
  </defs>
</svg>
