<?xml version="1.0" encoding="UTF-8" standalone="no"?>
<svg xmlns:ffdec="https://www.free-decompiler.com/flash" xmlns:xlink="http://www.w3.org/1999/xlink" ffdec:objectType="frame" height="148.1px" width="164.25px" xmlns="http://www.w3.org/2000/svg">
  <g transform="matrix(1.0, 0.0, 0.0, 1.0, 83.75, 52.1)">
    <use ffdec:characterId="324" height="1.3" transform="matrix(4.796, 0.3363, -0.3363, 4.796, 38.7614, 13.8472)" width="1.4" xlink:href="#shape0"/>
    <use ffdec:characterId="324" height="1.3" transform="matrix(3.8722, 0.2714, -0.2714, 3.8722, 39.2658, -26.0069)" width="1.4" xlink:href="#shape0"/>
    <use ffdec:characterId="324" height="1.3" transform="matrix(4.4776, 0.3139, -0.3139, 4.4776, 27.7697, -10.9302)" width="1.4" xlink:href="#shape0"/>
    <use ffdec:characterId="324" height="1.3" transform="matrix(4.563, 0.3198, -0.3198, 4.563, 17.2138, -5.5398)" width="1.4" xlink:href="#shape0"/>
    <use ffdec:characterId="324" height="1.3" transform="matrix(4.1593, 0.2915, -0.2915, 4.1593, 20.478, 26.9424)" width="1.4" xlink:href="#shape0"/>
    <use ffdec:characterId="324" height="1.3" transform="matrix(4.6824, -0.6395, 0.6395, 4.6824, -29.1934, 5.9041)" width="1.4" xlink:href="#shape0"/>
    <use ffdec:characterId="324" height="1.3" transform="matrix(3.8347, -0.524, 0.524, 3.8347, -37.3749, -30.7758)" width="1.4" xlink:href="#shape0"/>
    <use ffdec:characterId="324" height="1.3" transform="matrix(4.4259, -0.6046, 0.6046, 4.4259, -45.2411, -14.1036)" width="1.4" xlink:href="#shape0"/>
    <use ffdec:characterId="324" height="1.3" transform="matrix(4.5006, -0.6149, 0.6149, 4.5006, -54.7001, -7.0449)" width="1.4" xlink:href="#shape0"/>
    <use ffdec:characterId="324" height="1.3" transform="matrix(4.0264, -0.55, 0.55, 4.0264, -42.426, 23.7679)" width="1.4" xlink:href="#shape0"/>
    <use ffdec:characterId="324" height="1.3" transform="matrix(4.3517, 1.3697, -1.3697, 4.3517, 24.9941, -18.3874)" width="1.4" xlink:href="#shape0"/>
    <use ffdec:characterId="324" height="1.3" transform="matrix(4.2376, 1.3339, -1.3339, 4.2376, 15.1507, -40.8382)" width="1.4" xlink:href="#shape0"/>
    <use ffdec:characterId="324" height="1.3" transform="matrix(4.2849, 1.3487, -1.3487, 4.2849, 3.7773, -39.3793)" width="1.4" xlink:href="#shape0"/>
    <use ffdec:characterId="324" height="1.3" transform="matrix(3.6753, 1.1568, -1.1568, 3.6753, 5.2292, -8.0487)" width="1.4" xlink:href="#shape0"/>
    <use ffdec:characterId="324" height="1.3" transform="matrix(4.0776, -1.8562, 1.8562, 4.0776, -19.6609, -13.5511)" width="1.4" xlink:href="#shape0"/>
    <use ffdec:characterId="324" height="1.3" transform="matrix(4.0404, -1.8392, 1.8392, 4.0404, -43.2737, -21.3388)" width="1.4" xlink:href="#shape0"/>
    <use ffdec:characterId="324" height="1.3" transform="matrix(4.0711, -1.8532, 1.8532, 4.0711, -50.8544, -13.199)" width="1.4" xlink:href="#shape0"/>
    <use ffdec:characterId="324" height="1.3" transform="matrix(3.4106, -1.5524, 1.5524, 3.4106, -28.7965, 7.0698)" width="1.4" xlink:href="#shape0"/>
  </g>
  <defs>
    <g id="shape0" transform="matrix(1.0, 0.0, 0.0, 1.0, 0.7, 0.65)">
      <path d="M0.5 -0.4 Q0.55 -0.35 0.6 -0.2 L0.6 -0.1 0.7 0.0 Q0.65 0.05 0.6 0.2 0.55 0.3 0.45 0.4 0.45 0.45 0.25 0.55 0.05 0.65 0.0 0.65 -0.05 0.65 -0.25 0.55 L-0.35 0.5 -0.4 0.45 -0.5 0.4 -0.6 0.2 -0.6 0.15 -0.65 0.1 -0.65 0.05 -0.7 0.0 Q-0.65 -0.1 -0.55 -0.2 -0.45 -0.35 -0.4 -0.4 L-0.15 -0.6 -0.1 -0.65 -0.05 -0.65 0.1 -0.6 0.2 -0.55 0.35 -0.5 Q0.45 -0.45 0.5 -0.4 M0.45 -0.4 L0.45 -0.35 0.45 -0.4 M0.0 0.5 L0.0 0.5 M-0.5 0.05 L-0.55 0.05 -0.5 0.05 M0.2 -0.45 L0.0 -0.55 -0.05 -0.55 -0.15 -0.5 Q-0.2 -0.5 -0.2 -0.45 -0.3 -0.45 -0.35 -0.4 -0.45 -0.3 -0.5 -0.15 L-0.55 -0.05 Q-0.6 0.0 -0.6 0.05 L-0.5 0.2 -0.45 0.3 Q-0.35 0.45 -0.15 0.5 L0.0 0.55 0.1 0.55 Q0.15 0.5 0.2 0.5 0.35 0.45 0.45 0.3 0.5 0.2 0.55 0.1 L0.6 0.0 0.55 -0.05 Q0.55 -0.1 0.55 -0.15 0.5 -0.25 0.4 -0.35 0.3 -0.45 0.2 -0.45 M0.65 -0.2 L0.65 -0.2" fill="#607b9a" fill-opacity="0.22745098" fill-rule="evenodd" stroke="none"/>
      <path d="M0.0 0.5 L0.1 0.45 0.15 0.45 Q0.3 0.4 0.4 0.3 0.45 0.2 0.45 0.15 L0.45 0.1 0.55 0.0 0.45 -0.1 Q0.4 -0.2 0.35 -0.3 L0.15 -0.4 0.05 -0.5 0.0 -0.5 Q-0.05 -0.5 -0.1 -0.45 L-0.15 -0.4 Q-0.25 -0.4 -0.3 -0.35 -0.4 -0.25 -0.4 -0.15 L-0.5 -0.1 -0.5 -0.05 -0.55 0.05 -0.5 0.05 -0.5 0.1 -0.4 0.2 Q-0.35 0.3 -0.25 0.4 L-0.1 0.45 Q-0.05 0.45 0.0 0.5 L0.0 0.5 M0.2 -0.45 Q0.3 -0.45 0.4 -0.35 0.5 -0.25 0.55 -0.15 0.55 -0.1 0.55 -0.05 L0.6 0.0 0.55 0.1 Q0.5 0.2 0.45 0.3 0.35 0.45 0.2 0.5 0.15 0.5 0.1 0.55 L0.0 0.55 -0.15 0.5 Q-0.35 0.45 -0.45 0.3 L-0.5 0.2 -0.6 0.05 Q-0.6 0.0 -0.55 -0.05 L-0.5 -0.15 Q-0.45 -0.3 -0.35 -0.4 -0.3 -0.45 -0.2 -0.45 -0.2 -0.5 -0.15 -0.5 L-0.05 -0.55 0.0 -0.55 0.2 -0.45 M0.0 -0.45 L0.0 -0.45" fill="#769fce" fill-opacity="0.22745098" fill-rule="evenodd" stroke="none"/>
      <path d="M-0.55 0.05 L-0.5 -0.05 -0.5 -0.1 -0.4 -0.15 Q-0.4 -0.25 -0.3 -0.35 -0.25 -0.4 -0.15 -0.4 L-0.1 -0.45 Q-0.05 -0.5 0.0 -0.5 L0.05 -0.5 0.15 -0.4 0.35 -0.3 Q0.4 -0.2 0.45 -0.1 L0.55 0.0 0.45 0.1 0.45 0.15 Q0.45 0.2 0.4 0.3 0.3 0.4 0.15 0.45 L0.1 0.45 0.0 0.5 Q-0.05 0.45 -0.1 0.45 L-0.25 0.4 Q-0.35 0.3 -0.4 0.2 L-0.5 0.1 -0.5 0.05 -0.55 0.05 M0.0 0.45 L0.05 0.45 0.05 0.4 0.1 0.4 0.15 0.35 Q0.25 0.3 0.3 0.2 L0.45 0.05 0.45 0.0 0.35 -0.1 0.35 -0.15 Q0.3 -0.2 0.25 -0.25 0.2 -0.3 0.15 -0.3 L0.1 -0.4 0.0 -0.45 -0.1 -0.35 -0.15 -0.35 -0.15 -0.3 Q-0.2 -0.3 -0.25 -0.25 L-0.4 -0.1 -0.4 -0.05 -0.45 -0.05 -0.45 0.05 -0.4 0.15 -0.3 0.25 Q-0.25 0.3 -0.15 0.35 L-0.1 0.35 -0.1 0.4 0.0 0.45 M0.0 -0.45 L0.0 -0.45" fill="#9cbfe7" fill-opacity="0.22745098" fill-rule="evenodd" stroke="none"/>
      <path d="M-0.4 0.0 L-0.35 0.0 -0.35 -0.05 -0.2 -0.2 Q-0.2 -0.25 -0.15 -0.25 L0.0 -0.4 0.05 -0.3 0.1 -0.3 0.2 -0.2 Q0.25 -0.15 0.3 -0.1 L0.4 0.0 Q0.35 0.05 0.3 0.1 L0.25 0.15 0.25 0.2 Q0.2 0.25 0.15 0.3 L0.1 0.3 0.05 0.35 Q0.05 0.4 0.0 0.4 L-0.1 0.3 Q-0.2 0.3 -0.25 0.2 L-0.35 0.1 -0.4 0.0" fill="#f0f4f9" fill-opacity="0.22745098" fill-rule="evenodd" stroke="none"/>
      <path d="M-0.4 0.0 L-0.35 0.1 -0.25 0.2 Q-0.2 0.3 -0.1 0.3 L0.0 0.4 Q0.05 0.4 0.05 0.35 L0.1 0.3 0.15 0.3 Q0.2 0.25 0.25 0.2 L0.25 0.15 0.3 0.1 Q0.35 0.05 0.4 0.0 L0.3 -0.1 Q0.25 -0.15 0.2 -0.2 L0.1 -0.3 0.05 -0.3 0.0 -0.4 -0.15 -0.25 Q-0.2 -0.25 -0.2 -0.2 L-0.35 -0.05 -0.35 0.0 -0.4 0.0 M0.0 -0.45 L0.1 -0.4 0.15 -0.3 Q0.2 -0.3 0.25 -0.25 0.3 -0.2 0.35 -0.15 L0.35 -0.1 0.45 0.0 0.45 0.05 0.3 0.2 Q0.25 0.3 0.15 0.35 L0.1 0.4 0.05 0.4 0.05 0.45 0.0 0.45 -0.1 0.4 -0.1 0.35 -0.15 0.35 Q-0.25 0.3 -0.3 0.25 L-0.4 0.15 -0.45 0.05 -0.45 -0.05 -0.4 -0.05 -0.4 -0.1 -0.25 -0.25 Q-0.2 -0.3 -0.15 -0.3 L-0.15 -0.35 -0.1 -0.35 0.0 -0.45" fill="#c7d6e9" fill-opacity="0.22745098" fill-rule="evenodd" stroke="none"/>
    </g>
  </defs>
</svg>
