<?xml version="1.0" encoding="UTF-8" standalone="no"?>
<svg xmlns:ffdec="https://www.free-decompiler.com/flash" xmlns:xlink="http://www.w3.org/1999/xlink" ffdec:objectType="frame" height="214.75px" width="224.85px" xmlns="http://www.w3.org/2000/svg">
  <g transform="matrix(1.0, 0.0, 0.0, 1.0, 107.85, 79.0)">
    <use ffdec:characterId="559" ffdec:characterName="a_GhostArm10" height="28.7" transform="matrix(1.0, 0.0, 0.0, 1.0, 11.4, -9.95)" width="61.6" xlink:href="#sprite0"/>
    <use ffdec:characterId="587" ffdec:characterName="a_GhostBody2" height="78.75" transform="matrix(1.0, 0.0, 0.0, 1.0, -26.8, -51.35)" width="64.4" xlink:href="#sprite1"/>
    <use ffdec:characterId="559" ffdec:characterName="a_GhostArm10" height="28.7" transform="matrix(1.0, 0.0, 0.0, 1.0, -3.9, 4.3)" width="61.6" xlink:href="#sprite0"/>
  </g>
  <defs>
    <g id="sprite0" transform="matrix(1.0, 0.0, 0.0, 1.0, 0.0, 0.0)">
      <use ffdec:characterId="558" height="4.1" transform="matrix(7.0, 0.0, 0.0, 7.0, 0.0, 0.0)" width="8.8" xlink:href="#shape0"/>
    </g>
    <g id="shape0" transform="matrix(1.0, 0.0, 0.0, 1.0, 0.0, 0.0)">
      <path d="M8.0 3.0 L8.0 3.05 Q7.9 3.2 7.5 3.35 7.0 3.5 6.4 3.5 5.85 3.5 4.8 3.25 L4.15 3.1 Q3.4 2.8 2.45 2.15 1.95 1.8 1.2 1.1 L0.65 0.55 Q1.35 1.0 2.25 1.6 3.7 2.65 4.15 2.85 5.0 3.2 6.4 3.2 L7.45 3.15 8.0 3.0 M8.25 3.35 L8.55 3.45 Q8.4 3.55 8.15 3.6 L7.45 3.75 6.75 3.7 6.5 3.65 6.65 3.65 Q7.05 3.65 7.9 3.35 8.0 3.35 8.1 3.25 8.15 3.3 8.25 3.35" fill="#c8e97c" fill-rule="evenodd" stroke="none"/>
      <path d="M8.0 3.0 L7.45 3.15 6.4 3.2 Q5.0 3.2 4.15 2.85 3.7 2.65 2.25 1.6 1.35 1.0 0.65 0.55 L1.2 1.1 Q1.95 1.8 2.45 2.15 3.4 2.8 4.15 3.1 L4.8 3.25 Q5.85 3.5 6.4 3.5 7.0 3.5 7.5 3.35 7.9 3.2 8.0 3.05 L8.0 3.0 M8.3 3.0 Q8.45 3.15 8.65 3.25 8.8 3.3 8.8 3.45 8.8 3.65 8.5 3.85 8.05 4.1 7.25 4.1 L6.95 4.05 Q4.95 3.95 3.4 3.2 2.55 2.75 2.1 2.3 1.7 2.0 0.9 1.15 0.05 0.3 0.05 0.25 L0.05 0.2 0.0 0.15 Q0.0 -0.2 0.85 0.3 1.35 0.6 2.45 1.4 2.85 1.85 3.45 2.2 4.65 2.9 6.4 2.9 L7.45 2.75 8.05 2.65 Q8.35 2.65 8.3 2.85 L8.3 3.0 M8.25 3.35 Q8.15 3.3 8.1 3.25 8.0 3.35 7.9 3.35 7.05 3.65 6.65 3.65 L6.5 3.65 6.75 3.7 7.45 3.75 8.15 3.6 Q8.4 3.55 8.55 3.45 L8.25 3.35" fill="#111111" fill-rule="evenodd" stroke="none"/>
    </g>
    <g id="sprite1" transform="matrix(1.0, 0.0, 0.0, 1.0, 0.0, 0.0)">
      <use ffdec:characterId="586" height="11.25" transform="matrix(7.0, 0.0, 0.0, 7.0, 0.0, 0.0)" width="9.2" xlink:href="#shape1"/>
    </g>
    <g id="shape1" transform="matrix(1.0, 0.0, 0.0, 1.0, 0.0, 0.0)">
      <path d="M8.7 3.95 Q8.7 4.15 8.65 4.3 8.55 4.15 8.4 4.1 L8.4 4.15 8.5 4.45 Q8.4 4.55 8.15 4.55 7.95 4.55 7.75 4.25 L7.85 4.1 7.65 4.1 7.6 3.95 Q7.7 3.9 7.7 3.85 7.7 3.75 7.5 3.8 L6.95 2.8 7.0 2.75 Q7.0 2.7 6.9 2.65 L6.75 2.4 6.2 1.65 6.25 1.55 6.25 1.5 6.1 1.55 5.85 1.25 5.6 1.0 5.7 0.95 Q5.7 0.85 5.4 0.9 L5.1 0.7 5.2 0.7 5.3 0.75 5.35 0.75 5.35 0.7 Q5.35 0.5 4.85 0.55 L4.8 0.55 Q4.5 0.4 4.2 0.35 L4.25 0.3 4.35 0.3 4.5 0.35 4.95 0.35 Q5.4 0.45 5.8 0.6 6.3 0.8 6.8 1.2 7.3 1.6 7.8 2.25 L7.85 2.3 8.05 2.55 8.1 2.65 8.15 2.8 8.3 3.05 8.55 3.5 8.55 3.6 8.7 3.95 M7.25 1.65 Q7.0 1.45 7.0 1.6 L7.05 1.65 7.05 1.85 Q7.15 2.2 7.45 2.8 L7.5 2.9 Q7.75 3.5 7.9 3.7 L7.9 3.75 Q8.0 3.85 8.05 3.85 8.15 3.85 8.15 3.8 L8.15 3.45 Q8.15 3.2 8.0 2.8 L8.0 2.75 Q7.9 2.4 7.55 2.0 7.4 1.8 7.25 1.65 M2.7 1.25 L2.65 1.3 2.65 1.35 2.6 1.45 Q2.5 1.5 2.4 1.55 2.3 1.7 2.3 1.8 L2.4 1.8 2.4 1.75 2.45 1.75 2.5 1.75 2.55 1.7 2.5 1.85 2.5 1.9 2.2 2.05 Q2.2 2.15 2.3 2.15 L2.4 2.1 2.5 2.1 2.45 2.6 2.4 2.6 2.2 2.5 2.2 2.55 Q2.2 2.6 2.4 2.75 L2.4 2.8 2.5 2.85 2.55 2.95 2.6 3.15 2.6 3.2 2.6 3.25 2.6 3.2 Q2.3 2.75 2.0 2.65 L1.05 2.25 Q0.6 2.05 0.4 1.9 L0.3 1.8 0.25 1.6 0.35 1.65 0.5 1.7 0.6 1.75 Q0.95 1.9 1.3 1.9 1.9 1.9 2.3 1.6 L2.55 1.35 2.7 1.25 M4.4 8.25 Q4.2 8.2 4.1 8.3 4.2 8.35 4.35 8.45 L4.3 8.5 Q4.15 8.45 4.15 8.55 L4.2 8.65 4.15 8.75 4.0 8.85 3.95 8.9 3.65 8.95 Q3.45 8.95 3.3 8.85 3.45 8.75 3.45 8.7 3.45 8.6 3.15 8.7 L3.1 8.7 2.95 8.4 2.8 8.15 2.9 8.1 2.95 8.05 Q2.95 8.0 2.8 7.95 L2.8 7.85 2.9 7.7 2.95 7.7 Q3.0 7.75 3.1 7.75 L3.2 7.65 3.1 7.55 Q3.3 7.45 3.5 7.4 L3.95 7.5 3.9 7.65 3.95 7.7 Q4.0 7.7 4.1 7.55 4.25 7.65 4.3 7.8 4.4 7.95 4.4 8.25" fill="#e8ff8c" fill-rule="evenodd" stroke="none"/>
      <path d="M8.75 4.25 L8.75 4.4 8.7 4.45 8.75 4.7 Q8.75 4.85 8.65 4.85 8.55 4.85 8.55 4.7 L8.55 4.6 8.25 4.65 Q8.0 4.65 7.7 4.3 L7.5 4.45 7.4 4.4 7.4 4.35 7.55 4.15 7.45 4.0 7.3 4.05 Q7.15 4.05 7.15 4.0 7.15 3.9 7.35 3.85 L6.8 2.85 6.75 2.85 Q6.6 2.85 6.55 2.8 L6.5 2.75 Q6.5 2.65 6.7 2.65 L6.65 2.55 Q6.35 2.1 6.1 1.75 L5.9 1.85 Q5.85 1.85 5.85 1.75 5.85 1.7 6.0 1.6 5.75 1.3 5.45 1.05 L5.15 1.1 Q5.05 1.1 5.05 1.05 5.05 0.95 5.25 0.9 L4.95 0.7 4.55 0.7 4.3 0.75 Q4.25 0.75 4.3 0.75 4.4 0.65 4.7 0.6 4.3 0.4 3.85 0.4 L3.6 0.45 3.55 0.45 3.7 0.4 3.75 0.4 3.85 0.35 4.2 0.35 Q4.5 0.4 4.8 0.55 L4.85 0.55 Q5.35 0.5 5.35 0.7 L5.35 0.75 5.3 0.75 5.2 0.7 5.1 0.7 5.4 0.9 Q5.7 0.85 5.7 0.95 L5.6 1.0 5.85 1.25 6.1 1.55 6.25 1.5 6.25 1.55 6.2 1.65 6.75 2.4 6.9 2.65 Q7.0 2.7 7.0 2.75 L6.95 2.8 7.5 3.8 Q7.7 3.75 7.7 3.85 7.7 3.9 7.6 3.95 L7.65 4.1 7.85 4.1 7.75 4.25 Q7.95 4.55 8.15 4.55 8.4 4.55 8.5 4.45 L8.4 4.15 8.4 4.1 Q8.55 4.15 8.65 4.3 8.7 4.15 8.7 3.95 L8.7 4.05 8.8 4.2 8.75 4.25 M2.9 1.0 L2.95 0.95 2.95 0.9 2.85 1.0 2.85 1.05 2.85 1.1 2.8 1.1 2.75 1.25 2.65 1.4 Q2.95 1.3 3.1 1.4 3.05 1.5 2.75 1.65 L2.6 1.7 Q2.55 1.8 2.55 1.9 L2.65 1.9 Q2.85 1.9 2.85 2.0 L2.6 2.1 2.55 2.1 2.55 2.25 Q2.55 2.45 2.6 2.65 L3.0 2.85 3.0 2.9 2.85 2.95 2.65 2.95 2.8 3.35 2.95 3.8 3.0 3.9 3.0 4.05 2.6 3.25 2.6 3.2 2.55 2.95 2.5 2.85 2.4 2.8 2.4 2.75 Q2.2 2.6 2.2 2.55 L2.2 2.5 2.4 2.6 2.45 2.6 2.5 2.1 2.4 2.1 2.3 2.15 Q2.2 2.15 2.2 2.05 L2.5 1.9 2.5 1.85 2.55 1.7 2.5 1.75 2.45 1.75 2.4 1.75 2.4 1.8 2.3 1.8 Q2.3 1.7 2.4 1.55 2.5 1.5 2.6 1.45 L2.65 1.35 2.65 1.3 2.7 1.25 2.7 1.2 2.9 1.0 M4.4 8.25 Q4.4 7.95 4.3 7.8 4.25 7.65 4.1 7.55 4.0 7.7 3.95 7.7 L3.9 7.65 3.95 7.5 3.5 7.4 Q3.3 7.45 3.1 7.55 L3.2 7.65 3.1 7.75 Q3.0 7.75 2.95 7.7 L2.9 7.7 2.8 7.85 2.8 7.95 Q2.95 8.0 2.95 8.05 L2.9 8.1 2.8 8.15 2.95 8.4 3.1 8.7 3.15 8.7 Q3.45 8.6 3.45 8.7 3.45 8.75 3.3 8.85 3.45 8.95 3.65 8.95 L3.95 8.9 4.0 8.85 4.15 8.75 4.2 8.65 4.15 8.55 Q4.15 8.45 4.3 8.5 L4.35 8.45 Q4.2 8.35 4.1 8.3 4.2 8.2 4.4 8.25 M4.5 8.25 Q4.8 8.35 4.8 8.5 4.8 8.6 4.75 8.6 L4.5 8.5 4.45 8.55 4.65 8.7 4.65 8.75 4.6 8.8 4.4 8.75 4.35 8.75 Q4.2 9.0 4.0 9.0 L3.7 9.05 Q3.4 9.05 3.2 8.9 L2.9 8.95 Q2.75 8.95 2.75 8.9 2.75 8.85 3.05 8.75 L3.0 8.7 2.85 8.5 Q2.75 8.3 2.7 8.15 2.65 8.1 2.55 8.05 2.5 8.0 2.5 7.95 2.5 7.8 2.7 7.9 L2.7 7.8 Q2.75 7.7 2.85 7.6 L2.85 7.55 2.75 7.35 Q2.75 7.05 3.05 7.4 3.15 7.35 3.35 7.35 L3.5 7.3 3.55 7.3 4.0 7.35 4.1 7.25 Q4.25 7.0 4.25 7.2 L4.15 7.45 Q4.35 7.55 4.45 7.8 4.5 8.0 4.5 8.2 L4.5 8.25" fill="#a0a33f" fill-rule="evenodd" stroke="none"/>
      <path d="M3.6 0.45 L3.85 0.4 Q4.3 0.4 4.7 0.6 4.4 0.65 4.3 0.75 4.25 0.75 4.3 0.75 L4.55 0.7 4.95 0.7 5.25 0.9 Q5.05 0.95 5.05 1.05 5.05 1.1 5.15 1.1 L5.45 1.05 Q5.75 1.3 6.0 1.6 5.85 1.7 5.85 1.75 5.85 1.85 5.9 1.85 L6.1 1.75 Q6.35 2.1 6.65 2.55 L6.7 2.65 Q6.5 2.65 6.5 2.75 L6.55 2.8 Q6.6 2.85 6.75 2.85 L6.8 2.85 7.35 3.85 Q7.15 3.9 7.15 4.0 7.15 4.05 7.3 4.05 L7.45 4.0 7.55 4.15 7.4 4.35 7.4 4.4 7.5 4.45 7.7 4.3 Q8.0 4.65 8.25 4.65 L8.55 4.6 8.55 4.7 Q8.55 4.85 8.65 4.85 8.75 4.85 8.75 4.7 L8.7 4.45 8.75 4.4 8.75 4.25 8.9 4.95 8.9 5.95 8.85 6.05 8.75 6.3 8.6 5.95 8.65 6.5 8.65 6.55 8.55 6.65 Q8.3 7.05 7.95 7.25 L7.85 7.3 7.85 6.9 7.75 6.7 Q7.75 7.05 7.65 7.2 L7.6 7.35 7.5 7.4 6.85 7.4 6.8 7.35 Q6.2 7.2 5.7 6.75 L5.8 6.55 5.75 6.5 5.75 6.4 5.55 6.65 5.25 6.3 5.35 5.9 5.1 6.15 4.55 5.45 4.3 5.2 4.55 4.95 Q4.4 4.9 4.15 5.05 3.95 4.9 3.8 4.85 L3.45 4.85 3.7 4.95 3.75 4.95 4.0 5.1 4.05 5.1 Q3.75 5.3 3.75 5.4 3.75 5.5 3.85 5.5 L4.0 5.35 4.2 5.25 4.45 5.55 5.0 6.25 Q4.7 6.5 4.7 6.55 4.7 6.6 4.8 6.6 5.05 6.6 5.15 6.45 L5.4 6.75 Q5.15 7.1 5.15 7.15 5.15 7.2 5.2 7.2 5.4 7.2 5.6 6.95 L5.65 6.95 Q5.85 7.15 6.15 7.3 L6.25 7.35 Q6.75 7.6 7.25 7.6 L7.5 7.6 Q7.4 7.85 7.4 7.9 L7.45 7.95 7.5 8.05 7.75 7.7 7.8 7.5 Q8.05 7.45 8.35 7.15 L8.6 6.95 8.65 6.85 8.65 6.95 8.5 7.35 8.35 7.65 7.95 8.25 7.65 8.65 7.6 8.7 Q7.25 9.1 6.75 9.5 L6.65 9.6 Q6.2 9.9 5.7 10.15 L5.5 10.25 5.45 10.25 5.25 10.4 4.55 10.65 4.4 10.7 4.35 10.7 3.8 10.85 3.65 10.9 3.6 10.9 3.35 10.95 3.15 11.0 2.85 11.0 2.6 10.95 2.5 10.95 2.4 10.8 2.6 10.6 Q2.7 10.45 2.7 10.4 L2.65 10.3 2.5 10.25 2.45 10.2 2.35 10.2 1.6 10.05 1.3 9.95 Q1.0 9.8 0.8 9.65 0.55 9.4 0.55 9.05 0.55 8.85 0.6 8.65 0.7 8.4 0.95 8.15 L1.25 7.8 Q1.35 7.6 1.35 7.5 1.35 7.4 1.2 7.0 1.05 6.65 1.05 6.35 1.05 6.1 1.1 6.0 1.2 5.9 1.3 5.85 L1.35 5.85 1.95 5.8 2.1 5.75 2.15 5.75 2.3 5.7 Q2.55 5.6 2.7 5.45 L2.75 5.45 2.8 5.35 2.9 5.1 2.95 5.05 2.95 5.0 3.05 4.8 3.05 4.5 Q3.05 4.3 3.0 4.05 L3.0 3.9 2.95 3.8 2.8 3.35 2.65 2.95 2.85 2.95 3.0 2.9 3.0 2.85 2.6 2.65 Q2.55 2.45 2.55 2.25 L2.55 2.1 2.6 2.1 2.85 2.0 Q2.85 1.9 2.65 1.9 L2.55 1.9 Q2.55 1.8 2.6 1.7 L2.75 1.65 Q3.05 1.5 3.1 1.4 2.95 1.3 2.65 1.4 L2.75 1.25 2.8 1.1 2.85 1.05 2.85 1.0 2.95 0.9 2.95 0.95 2.9 1.0 2.9 0.95 3.2 0.65 3.3 0.6 3.35 0.55 3.4 0.55 3.45 0.5 Q3.5 0.45 3.6 0.45 M6.55 3.0 L6.4 2.8 Q6.2 2.55 6.0 2.4 5.6 2.1 5.2 2.0 L5.05 1.95 4.8 1.95 4.65 2.0 Q4.45 2.0 4.4 2.1 L4.3 2.15 Q4.2 2.3 4.2 2.5 L4.2 2.85 Q4.2 3.0 4.4 3.25 4.5 3.45 4.8 3.75 L4.9 3.85 4.9 3.9 4.95 3.9 Q5.25 4.15 5.5 4.3 5.9 4.5 6.1 4.5 L6.4 4.55 6.55 4.55 6.7 4.5 6.75 4.45 6.85 4.4 6.95 4.3 6.95 3.85 6.9 3.75 Q6.85 3.45 6.55 3.0 M4.5 8.25 L4.5 8.2 Q4.5 8.0 4.45 7.8 4.35 7.55 4.15 7.45 L4.25 7.2 Q4.25 7.0 4.1 7.25 L4.0 7.35 3.55 7.3 3.5 7.3 3.35 7.35 Q3.15 7.35 3.05 7.4 2.75 7.05 2.75 7.35 L2.85 7.55 2.85 7.6 Q2.75 7.7 2.7 7.8 L2.7 7.9 Q2.5 7.8 2.5 7.95 2.5 8.0 2.55 8.05 2.65 8.1 2.7 8.15 2.75 8.3 2.85 8.5 L3.0 8.7 3.05 8.75 Q2.75 8.85 2.75 8.9 2.75 8.95 2.9 8.95 L3.2 8.9 Q3.4 9.05 3.7 9.05 L4.0 9.0 Q4.2 9.0 4.35 8.75 L4.4 8.75 4.6 8.8 4.65 8.75 4.65 8.7 4.45 8.55 4.5 8.5 4.75 8.6 Q4.8 8.6 4.8 8.5 4.8 8.35 4.5 8.25" fill="#f4ffca" fill-rule="evenodd" stroke="none"/>
      <path d="M8.75 4.25 L8.8 4.2 8.7 4.05 8.7 3.95 8.55 3.6 8.55 3.5 8.3 3.05 8.15 2.8 8.1 2.65 8.05 2.55 7.85 2.3 7.8 2.25 Q7.3 1.6 6.8 1.2 6.3 0.8 5.8 0.6 5.4 0.45 4.95 0.35 L4.5 0.35 4.35 0.3 4.25 0.3 4.2 0.35 3.85 0.35 3.75 0.4 3.7 0.4 3.55 0.45 3.6 0.45 Q3.5 0.45 3.45 0.5 L3.4 0.55 3.35 0.55 3.3 0.6 3.2 0.65 2.9 0.95 2.9 1.0 2.7 1.2 2.7 1.25 2.55 1.35 2.3 1.6 Q1.9 1.9 1.3 1.9 0.95 1.9 0.6 1.75 L0.5 1.7 0.35 1.65 0.25 1.6 0.3 1.8 0.4 1.9 Q0.6 2.05 1.05 2.25 L2.0 2.65 Q2.3 2.75 2.6 3.2 L2.6 3.25 3.0 4.05 Q3.05 4.3 3.05 4.5 L3.05 4.8 2.95 5.0 2.95 5.05 2.9 5.1 2.8 5.35 2.75 5.45 2.7 5.45 Q2.55 5.6 2.3 5.7 L2.15 5.75 2.1 5.75 1.95 5.8 1.35 5.85 1.3 5.85 Q1.2 5.9 1.1 6.0 1.05 6.1 1.05 6.35 1.05 6.65 1.2 7.0 1.35 7.4 1.35 7.5 1.35 7.6 1.25 7.8 L0.95 8.15 Q0.7 8.4 0.6 8.65 0.55 8.85 0.55 9.05 0.55 9.4 0.8 9.65 1.0 9.8 1.3 9.95 L1.6 10.05 2.35 10.2 2.45 10.2 2.5 10.25 2.65 10.3 2.7 10.4 Q2.7 10.45 2.6 10.6 L2.4 10.8 2.5 10.95 2.6 10.95 2.85 11.0 3.15 11.0 3.35 10.95 3.6 10.9 3.65 10.9 3.8 10.85 4.35 10.7 4.4 10.7 4.55 10.65 5.25 10.4 5.45 10.25 5.5 10.25 5.7 10.15 Q6.2 9.9 6.65 9.6 L6.75 9.5 Q7.25 9.1 7.6 8.7 L7.65 8.65 7.95 8.25 8.35 7.65 8.5 7.35 8.65 6.95 8.65 6.85 8.6 6.95 8.35 7.15 Q8.05 7.45 7.8 7.5 L7.75 7.7 7.5 8.05 7.45 7.95 7.4 7.9 Q7.4 7.85 7.5 7.6 L7.25 7.6 Q6.75 7.6 6.25 7.35 L6.15 7.3 Q5.85 7.15 5.65 6.95 L5.6 6.95 Q5.4 7.2 5.2 7.2 5.15 7.2 5.15 7.15 5.15 7.1 5.4 6.75 L5.15 6.45 Q5.05 6.6 4.8 6.6 4.7 6.6 4.7 6.55 4.7 6.5 5.0 6.25 L4.45 5.55 4.2 5.25 4.0 5.35 3.85 5.5 Q3.75 5.5 3.75 5.4 3.75 5.3 4.05 5.1 L4.0 5.1 3.75 4.95 3.7 4.95 3.45 4.85 3.8 4.85 Q3.95 4.9 4.15 5.05 4.4 4.9 4.55 4.95 L4.3 5.2 4.55 5.45 5.1 6.15 5.35 5.9 5.25 6.3 5.55 6.65 5.75 6.4 5.75 6.5 5.8 6.55 5.7 6.75 Q6.2 7.2 6.8 7.35 L6.85 7.4 7.5 7.4 7.6 7.35 7.65 7.2 Q7.75 7.05 7.75 6.7 L7.85 6.9 7.85 7.3 7.95 7.25 Q8.3 7.05 8.55 6.65 L8.65 6.55 8.65 6.5 8.6 5.95 8.75 6.3 8.85 6.05 8.9 5.95 8.9 4.95 8.75 4.25 M2.85 1.05 L2.8 1.1 2.85 1.1 2.85 1.05 M7.25 1.65 Q7.4 1.8 7.55 2.0 7.9 2.4 8.0 2.75 L8.0 2.8 Q8.15 3.2 8.15 3.45 L8.15 3.8 Q8.15 3.85 8.05 3.85 8.0 3.85 7.9 3.75 L7.9 3.7 Q7.75 3.5 7.5 2.9 L7.45 2.8 Q7.15 2.2 7.05 1.85 L7.05 1.65 7.0 1.6 Q7.0 1.45 7.25 1.65 M7.1 1.7 L7.15 1.85 7.45 2.5 7.6 2.8 7.95 3.6 Q8.0 3.6 8.0 3.4 8.0 3.2 7.85 2.8 L7.7 2.55 Q7.45 1.9 7.25 1.8 L7.1 1.7 M6.45 3.0 L6.3 2.8 Q5.95 2.5 5.55 2.3 5.1 2.05 4.75 2.1 L4.6 2.15 Q4.45 2.2 4.35 2.35 4.3 2.5 4.3 2.65 L4.3 2.8 Q4.35 3.1 4.6 3.45 4.8 3.7 5.0 3.85 5.4 4.2 5.9 4.35 L6.55 4.35 6.75 4.25 6.8 4.15 6.85 4.0 6.85 3.9 6.8 3.75 Q6.75 3.45 6.5 3.05 L6.45 3.0 M6.55 3.0 Q6.85 3.45 6.9 3.75 L6.95 3.85 6.95 4.3 6.85 4.4 6.75 4.45 6.7 4.5 6.55 4.55 6.4 4.55 6.1 4.5 Q5.9 4.5 5.5 4.3 5.25 4.15 4.95 3.9 L4.9 3.9 4.9 3.85 4.8 3.75 Q4.5 3.45 4.4 3.25 4.2 3.0 4.2 2.85 L4.2 2.5 Q4.2 2.3 4.3 2.15 L4.4 2.1 Q4.45 2.0 4.65 2.0 L4.8 1.95 5.05 1.95 5.2 2.0 Q5.6 2.1 6.0 2.4 6.2 2.55 6.4 2.8 L6.55 3.0 M8.05 2.0 Q8.6 2.65 8.9 3.65 9.2 4.6 9.2 5.4 L9.2 6.05 9.15 6.4 9.15 6.45 Q9.1 6.7 9.0 7.05 L8.95 7.1 Q8.9 7.4 8.5 8.0 8.15 8.6 7.85 8.9 7.4 9.35 6.7 9.9 5.95 10.45 5.55 10.6 4.3 11.25 2.85 11.25 2.4 11.25 2.15 11.15 1.95 11.05 1.95 10.9 1.95 10.75 2.15 10.5 L1.8 10.4 Q1.15 10.2 0.85 10.05 0.45 9.85 0.3 9.55 0.2 9.35 0.2 9.05 0.2 8.65 0.6 8.1 1.0 7.6 1.0 7.45 L0.85 7.05 Q0.7 6.65 0.7 6.3 0.7 6.0 0.8 5.85 0.95 5.55 1.35 5.5 2.1 5.45 2.3 5.3 L2.6 5.05 Q2.75 4.85 2.75 4.6 2.75 4.3 2.7 4.05 L2.6 3.75 Q2.5 3.5 2.2 3.25 1.9 3.05 0.65 2.4 0.0 2.1 0.0 1.6 L0.0 1.4 Q0.05 1.25 0.2 1.25 0.35 1.25 0.65 1.45 L0.7 1.5 Q1.0 1.65 1.35 1.65 1.85 1.65 2.3 1.2 L2.7 0.8 2.7 0.75 3.0 0.45 Q3.25 0.25 3.6 0.15 3.75 0.05 4.05 0.05 L4.6 0.0 Q5.1 0.05 6.05 0.35 7.15 0.85 8.05 2.0 M2.4 1.75 L2.45 1.75 2.4 1.75 M2.55 2.95 L2.6 3.2 2.6 3.15 2.55 2.95" fill="#111111" fill-rule="evenodd" stroke="none"/>
      <path d="M7.1 1.7 L7.25 1.8 Q7.45 1.9 7.7 2.55 L7.85 2.8 Q8.0 3.2 8.0 3.4 8.0 3.6 7.95 3.6 L7.6 2.8 7.45 2.5 7.15 1.85 7.1 1.7 M6.45 3.0 L6.5 3.05 Q6.75 3.45 6.8 3.75 L6.85 3.9 6.85 4.0 6.8 4.15 6.75 4.25 6.55 4.35 5.9 4.35 Q5.4 4.2 5.0 3.85 4.8 3.7 4.6 3.45 4.35 3.1 4.3 2.8 L4.3 2.65 Q4.3 2.5 4.35 2.35 4.45 2.2 4.6 2.15 L4.75 2.1 Q5.1 2.05 5.55 2.3 5.95 2.5 6.3 2.8 L6.45 3.0" fill="#8fff44" fill-rule="evenodd" stroke="none"/>
    </g>
  </defs>
</svg>
