<?xml version="1.0" encoding="UTF-8" standalone="no"?>
<svg xmlns:ffdec="https://www.free-decompiler.com/flash" xmlns:xlink="http://www.w3.org/1999/xlink" ffdec:objectType="frame" height="93.1px" width="152.25px" xmlns="http://www.w3.org/2000/svg">
  <g transform="matrix(1.0, 0.0, 0.0, 1.0, 93.45, 53.2)">
    <use ffdec:characterId="164" height="13.3" transform="matrix(7.0, 0.0, 0.0, 7.0, -93.45, -53.2)" width="21.75" xlink:href="#shape0"/>
  </g>
  <defs>
    <g id="shape0" transform="matrix(1.0, 0.0, 0.0, 1.0, 13.35, 7.6)">
      <path d="M6.3 -7.6 Q6.45 -7.5 6.45 -7.4 L7.05 -5.5 7.05 -5.4 7.0 -5.3 6.8 -5.2 6.7 -5.2 6.6 -5.15 6.2 -5.05 6.15 -5.05 6.0 -5.0 5.85 -4.9 5.75 -4.9 5.8 -4.75 Q5.85 -4.6 6.05 -4.6 L6.3 -4.7 6.45 -4.6 6.75 -3.7 Q6.8 -3.35 6.9 -3.25 L7.7 -0.85 Q7.75 -0.8 7.8 -0.6 L7.8 -0.45 7.7 -0.4 7.7 -0.1 7.8 0.25 7.9 0.55 7.9 0.7 8.25 2.15 8.35 2.95 Q8.4 3.35 8.3 4.3 L8.25 4.3 Q8.2 4.9 8.1 5.15 L8.1 5.2 7.85 5.65 7.85 5.7 7.8 5.7 7.65 5.45 7.4 4.6 7.3 4.25 7.25 4.25 6.8 3.1 6.25 1.75 5.95 1.15 5.65 0.7 Q5.45 0.55 5.2 0.6 L4.8 0.55 4.7 0.6 Q4.55 0.5 4.4 0.2 4.2 -0.05 4.05 -0.2 L3.5 -0.3 Q3.4 -0.25 3.3 -0.2 3.05 -0.15 3.05 0.1 3.05 0.3 2.9 0.35 L2.7 0.4 Q2.6 0.45 2.5 0.5 L2.45 0.5 1.5 0.8 0.65 1.1 0.4 1.2 0.2 1.1 0.15 1.1 0.0 0.9 -0.65 -1.0 -0.65 -1.25 -0.6 -1.25 -0.5 -1.45 -0.25 -1.55 0.6 -1.85 1.55 -2.15 1.6 -2.2 1.8 -2.25 Q1.95 -2.3 2.0 -2.35 2.1 -2.35 2.25 -2.2 2.4 -2.0 2.65 -2.1 L2.85 -2.15 Q3.1 -2.4 3.25 -2.6 3.3 -2.8 3.25 -3.15 3.2 -3.45 3.25 -3.6 L3.45 -3.65 3.6 -3.75 Q3.65 -3.8 3.6 -3.9 3.55 -4.05 3.35 -4.0 L3.2 -3.95 2.85 -3.85 2.65 -3.75 2.6 -3.75 Q2.45 -3.75 2.35 -3.85 L2.3 -3.85 Q2.25 -3.9 2.15 -4.15 L1.8 -5.35 1.75 -5.4 1.75 -5.5 1.7 -5.5 1.85 -5.65 2.25 -5.9 3.1 -6.55 3.25 -6.6 Q3.65 -6.75 3.85 -6.8 L4.35 -7.0 4.4 -7.0 6.05 -7.55 6.3 -7.6 M4.45 -6.35 L5.25 -6.6 6.15 -6.95 Q6.2 -7.0 6.2 -7.05 L6.05 -7.1 5.95 -7.15 5.9 -7.2 5.8 -7.15 4.65 -6.75 4.7 -6.8 4.5 -6.7 3.85 -6.55 3.55 -6.4 2.75 -5.9 2.5 -5.75 3.05 -5.9 3.55 -6.0 4.0 -6.2 4.45 -6.35 M4.55 -6.3 L4.05 -6.1 3.75 -6.0 3.6 -6.0 3.6 -5.95 3.5 -5.95 2.3 -5.45 2.25 -5.45 Q2.2 -5.4 2.1 -5.4 L2.45 -4.15 2.55 -4.15 2.9 -4.25 2.95 -4.25 3.05 -4.3 3.25 -4.35 4.05 -4.6 5.05 -4.9 5.0 -4.9 5.5 -5.05 5.7 -5.1 5.75 -5.15 6.15 -5.25 Q6.35 -5.3 6.45 -5.4 L6.5 -5.4 6.5 -5.45 6.6 -5.45 Q6.75 -5.5 6.65 -5.7 L6.65 -5.75 Q6.6 -5.85 6.6 -6.0 6.5 -6.45 6.35 -6.75 L6.05 -6.7 Q5.7 -6.7 5.45 -6.6 L4.55 -6.3 M4.25 -3.9 L4.2 -3.9 3.85 -3.75 3.75 -3.7 3.75 -3.65 3.7 -3.65 3.55 -3.55 Q3.45 -3.35 3.55 -2.9 L3.55 -2.85 3.6 -2.7 3.6 -2.65 Q3.7 -2.15 3.5 -1.8 3.3 -1.5 2.9 -1.35 L2.65 -1.35 Q2.5 -1.35 2.4 -1.45 L2.35 -1.45 2.3 -1.5 1.6 -1.45 1.15 -1.3 -0.1 -0.8 -0.2 -0.65 -0.3 -0.45 0.0 0.3 0.15 0.35 0.35 0.4 0.5 0.35 1.15 0.15 2.1 -0.1 2.2 -0.15 Q2.6 -0.3 2.65 -0.6 2.7 -0.75 2.8 -0.85 L3.05 -1.0 3.45 -1.05 3.8 -1.0 Q4.1 -0.85 4.3 -0.5 L4.35 -0.4 4.4 -0.35 4.5 -0.2 4.45 -0.15 4.5 -0.15 Q4.7 0.3 4.9 0.35 L5.1 0.35 5.4 0.25 5.6 0.25 Q5.8 0.15 5.95 0.15 L6.2 0.05 6.3 0.0 7.05 -0.3 7.15 -0.3 7.2 -0.4 7.25 -0.4 7.3 -0.45 7.4 -0.5 7.35 -0.55 7.4 -0.55 7.5 -0.6 7.5 -0.65 6.9 -2.4 6.7 -3.0 6.55 -3.4 6.25 -4.15 6.25 -4.2 6.2 -4.2 6.2 -4.25 6.15 -4.3 6.15 -4.35 6.05 -4.35 5.9 -4.4 5.75 -4.4 5.65 -4.35 4.8 -4.1 4.55 -4.05 4.55 -4.0 4.25 -3.9 M5.45 -4.7 L5.4 -4.8 5.35 -4.85 5.3 -4.85 3.8 -4.3 3.65 -4.25 3.65 -4.2 Q3.7 -4.15 3.8 -4.15 3.8 -4.05 3.9 -4.05 3.9 -3.9 3.9 -3.85 L3.95 -3.85 4.4 -4.0 5.6 -4.4 5.65 -4.45 Q5.5 -4.55 5.45 -4.7 M3.35 -2.25 L3.05 -1.95 2.85 -1.9 2.2 -1.85 Q1.95 -2.0 1.7 -1.95 L1.6 -1.9 0.0 -1.4 -0.35 -1.1 -0.35 -0.85 -0.25 -0.9 -0.2 -0.9 -0.1 -1.0 0.0 -1.0 2.2 -1.75 2.45 -1.55 Q2.7 -1.35 2.9 -1.4 3.0 -1.45 3.1 -1.55 L3.15 -1.55 3.45 -1.85 Q3.6 -2.15 3.55 -2.6 L3.55 -2.55 3.5 -2.5 3.35 -2.25 M2.8 -0.55 L2.7 -0.25 0.55 0.55 0.3 0.55 0.25 0.6 0.15 0.6 0.2 0.65 0.3 0.8 Q0.55 0.85 0.75 0.8 L1.55 0.55 2.35 0.25 2.4 0.2 2.45 0.2 Q2.7 0.1 2.8 -0.15 2.85 -0.4 3.35 -0.55 L3.5 -0.55 3.55 -0.6 3.65 -0.6 Q3.8 -0.6 4.2 -0.45 L4.3 -0.4 Q4.1 -0.75 3.75 -0.9 3.4 -1.05 3.05 -0.9 2.9 -0.85 2.8 -0.55 M7.45 0.0 L7.45 -0.05 7.35 -0.15 7.35 -0.3 6.85 -0.15 6.8 -0.1 6.65 -0.05 6.7 0.0 6.85 0.6 Q7.2 1.6 7.45 2.4 L7.55 2.85 Q7.75 3.55 7.8 4.15 L7.85 4.45 7.85 4.75 7.95 4.4 7.95 4.35 8.0 4.25 Q8.1 3.6 8.05 2.95 L8.0 2.7 7.9 1.8 7.45 0.0 M7.75 0.85 L7.75 0.85 M6.6 0.25 L6.45 0.0 5.6 0.3 Q5.7 0.35 5.85 0.5 6.3 0.95 6.9 2.6 L7.05 3.0 7.3 3.65 7.8 5.0 7.8 4.3 7.7 4.0 7.6 3.4 7.45 2.85 7.45 2.8 7.35 2.45 Q7.25 2.15 7.3 2.15 L7.15 1.65 6.95 1.05 Q6.8 0.55 6.6 0.25" fill="#111111" fill-rule="evenodd" stroke="none"/>
      <path d="M5.95 -7.15 L6.05 -7.1 6.2 -7.05 Q6.2 -7.0 6.15 -6.95 L5.25 -6.6 4.45 -6.35 3.85 -6.55 4.5 -6.7 4.7 -6.8 4.65 -6.75 5.8 -7.15 5.9 -7.1 5.95 -7.15 M5.05 -4.9 Q5.2 -5.05 5.2 -5.15 5.2 -5.75 4.75 -6.15 L4.55 -6.3 5.45 -6.6 Q5.7 -6.7 6.05 -6.7 L6.35 -6.75 Q6.5 -6.45 6.6 -6.0 6.6 -5.85 6.65 -5.75 L6.65 -5.7 Q6.75 -5.5 6.6 -5.45 L6.5 -5.45 6.5 -5.4 6.5 -5.65 Q6.5 -5.95 6.4 -6.3 6.3 -6.6 6.2 -6.7 L6.1 -6.7 6.05 -6.55 6.0 -6.45 Q6.0 -6.2 6.45 -5.4 6.35 -5.3 6.15 -5.25 L5.75 -5.15 5.7 -5.1 5.5 -5.05 5.0 -4.9 5.05 -4.9 M3.55 -2.9 Q3.45 -3.35 3.55 -3.55 L3.7 -3.65 3.75 -3.65 3.75 -3.7 3.85 -3.75 4.2 -3.9 4.25 -3.9 Q3.9 -3.7 3.8 -3.55 L3.6 -3.05 3.55 -2.9 M5.75 -4.4 L5.9 -4.4 6.05 -4.35 6.15 -4.35 6.15 -4.3 6.2 -4.25 6.2 -4.2 6.25 -4.2 6.25 -4.15 6.55 -3.4 6.6 -3.2 6.5 -3.25 Q6.3 -3.25 5.65 -1.75 L5.25 -0.65 4.75 -1.0 5.25 -1.85 Q6.1 -3.25 6.1 -3.75 6.1 -3.9 5.9 -4.15 L5.75 -4.4 M6.9 -2.4 L7.5 -0.65 7.5 -0.6 7.4 -0.55 7.35 -0.55 7.4 -0.5 7.3 -0.45 7.25 -0.4 7.2 -0.4 7.15 -0.3 7.05 -0.3 6.3 0.0 Q7.0 -0.65 7.0 -1.65 7.0 -2.0 6.9 -2.4 M5.1 0.35 L4.9 0.35 Q4.7 0.3 4.5 -0.15 L4.45 -0.15 4.5 -0.2 4.4 -0.35 4.35 -0.4 4.3 -0.5 4.5 -0.7 4.55 -0.65 4.6 -0.6 Q4.9 -0.4 5.1 -0.25 5.05 0.0 5.05 0.2 L5.1 0.35 M2.2 -0.15 L2.1 -0.1 1.15 0.15 0.5 0.35 0.35 0.4 0.65 0.2 Q1.3 -0.3 1.3 -1.05 1.3 -1.15 1.15 -1.3 L1.6 -1.45 2.3 -1.5 2.35 -1.45 2.4 -1.45 Q2.5 -1.35 2.65 -1.35 L2.75 -1.3 2.6 -1.15 Q2.15 -0.65 2.15 -0.3 2.15 -0.25 2.2 -0.15 M3.1 -1.55 Q3.0 -1.45 2.9 -1.4 2.7 -1.35 2.45 -1.55 L2.2 -1.75 0.0 -1.0 -0.1 -1.0 -0.2 -0.9 -0.25 -0.9 -0.35 -0.85 -0.35 -1.1 0.0 -1.4 1.6 -1.9 1.7 -1.95 Q1.95 -2.0 2.2 -1.85 L2.85 -1.9 3.05 -1.95 3.35 -2.25 3.35 -2.2 Q3.35 -1.8 3.1 -1.55 M6.8 -0.1 L6.85 -0.15 7.35 -0.3 7.35 -0.15 7.45 -0.05 7.45 0.0 7.35 0.05 Q7.15 0.1 7.15 0.3 7.15 0.65 7.35 1.35 7.55 2.25 7.65 2.85 7.7 3.25 7.95 4.15 L8.0 4.25 7.95 4.35 7.95 4.4 7.85 4.75 7.85 4.45 7.8 4.15 Q7.75 3.55 7.55 2.85 L7.45 2.4 Q7.2 1.6 6.85 0.6 L6.7 0.0 6.8 -0.1" fill="#d0f0f0" fill-rule="evenodd" stroke="none"/>
      <path d="M5.95 -7.15 L5.9 -7.1 5.8 -7.15 5.9 -7.2 5.95 -7.15 M3.85 -6.55 L4.45 -6.35 4.0 -6.2 3.55 -6.0 3.55 -6.4 3.85 -6.55 M4.55 -6.3 L4.75 -6.15 Q5.2 -5.75 5.2 -5.15 5.2 -5.05 5.05 -4.9 L4.05 -4.6 Q3.95 -4.85 3.85 -5.2 L3.6 -6.0 3.75 -6.0 4.05 -6.1 4.55 -6.3 M6.45 -5.4 Q6.0 -6.2 6.0 -6.45 L6.05 -6.55 6.1 -6.7 6.2 -6.7 Q6.3 -6.6 6.4 -6.3 6.5 -5.95 6.5 -5.65 L6.5 -5.4 6.45 -5.4 M4.25 -3.9 L4.55 -4.0 4.55 -4.05 4.8 -4.1 5.65 -4.35 5.75 -4.4 5.9 -4.15 Q6.1 -3.9 6.1 -3.75 6.1 -3.25 5.25 -1.85 L4.75 -1.0 4.0 -1.55 Q4.05 -1.15 4.55 -0.65 L4.5 -0.7 4.3 -0.5 Q4.1 -0.85 3.8 -1.0 L3.45 -1.05 3.05 -1.0 2.8 -0.85 Q2.7 -0.75 2.65 -0.6 2.6 -0.3 2.2 -0.15 2.15 -0.25 2.15 -0.3 2.15 -0.65 2.6 -1.15 L2.75 -1.3 2.65 -1.35 2.9 -1.35 Q3.3 -1.5 3.5 -1.8 3.7 -2.15 3.6 -2.65 L3.6 -2.7 3.55 -2.85 3.55 -2.9 3.6 -3.05 3.8 -3.55 Q3.9 -3.7 4.25 -3.9 M6.55 -3.4 L6.7 -3.0 6.9 -2.4 Q7.0 -2.0 7.0 -1.65 7.0 -0.65 6.3 0.0 L6.2 0.05 5.95 0.15 Q5.8 0.15 5.6 0.25 L5.4 0.25 5.1 0.35 5.05 0.2 Q5.05 0.0 5.1 -0.25 5.3 -0.2 5.45 -0.2 5.85 -0.2 6.15 -0.7 L5.25 -0.65 5.65 -1.75 Q6.3 -3.25 6.5 -3.25 L6.6 -3.2 6.55 -3.4 M0.35 0.4 L0.15 0.35 0.0 0.3 -0.3 -0.45 -0.2 -0.65 -0.1 -0.8 1.15 -1.3 Q1.3 -1.15 1.3 -1.05 1.3 -0.3 0.65 0.2 L0.35 0.4 M2.55 -4.15 L2.45 -4.15 2.1 -5.4 Q2.2 -5.4 2.25 -5.45 L2.3 -5.45 2.4 -5.15 2.7 -4.2 2.55 -4.15 M5.45 -4.7 Q5.5 -4.55 5.65 -4.45 L5.6 -4.4 4.4 -4.0 4.4 -4.05 Q4.85 -4.6 5.5 -4.65 L5.45 -4.7 M3.1 -1.55 Q3.35 -1.8 3.35 -2.2 L3.35 -2.25 3.5 -2.5 3.55 -2.55 3.55 -2.6 Q3.6 -2.15 3.45 -1.85 L3.15 -1.55 3.1 -1.55 M6.8 -0.1 L6.7 0.0 6.65 -0.05 6.8 -0.1 M8.0 4.25 L7.95 4.15 Q7.7 3.25 7.65 2.85 7.55 2.25 7.35 1.35 7.15 0.65 7.15 0.3 7.15 0.1 7.35 0.05 L7.45 0.0 7.9 1.8 8.0 2.7 8.05 2.95 Q8.1 3.6 8.0 4.25" fill="#80c0f0" fill-rule="evenodd" stroke="none"/>
      <path d="M3.55 -6.0 L3.05 -5.9 2.5 -5.75 2.75 -5.9 3.55 -6.4 3.55 -6.0 M3.6 -6.0 L3.85 -5.2 Q3.95 -4.85 4.05 -4.6 L3.25 -4.35 3.05 -4.3 2.95 -4.25 2.9 -4.25 2.55 -4.15 2.7 -4.2 2.4 -5.15 2.3 -5.45 3.5 -5.95 3.6 -5.95 3.6 -6.0 M4.4 -4.0 L3.95 -3.85 3.9 -3.85 Q3.9 -3.9 3.9 -4.05 3.8 -4.05 3.8 -4.15 3.7 -4.15 3.65 -4.2 L3.65 -4.25 3.8 -4.3 5.3 -4.85 5.35 -4.85 5.4 -4.8 5.45 -4.7 5.5 -4.65 Q4.85 -4.6 4.4 -4.05 L4.4 -4.0 M4.75 -1.0 L5.25 -0.65 6.15 -0.7 Q5.85 -0.2 5.45 -0.2 5.3 -0.2 5.1 -0.25 4.9 -0.4 4.6 -0.6 L4.55 -0.65 Q4.05 -1.15 4.0 -1.55 L4.75 -1.0 M2.8 -0.55 Q2.9 -0.85 3.05 -0.9 3.4 -1.05 3.75 -0.9 4.1 -0.75 4.3 -0.4 L4.2 -0.45 Q3.8 -0.6 3.65 -0.6 L3.55 -0.6 3.5 -0.55 3.35 -0.55 Q2.85 -0.4 2.8 -0.15 2.7 0.1 2.45 0.2 L2.4 0.2 2.35 0.25 1.55 0.55 0.75 0.8 Q0.55 0.85 0.3 0.8 L0.2 0.65 0.15 0.6 0.25 0.6 0.3 0.55 0.55 0.55 2.7 -0.25 2.8 -0.55 M6.6 0.25 Q6.8 0.55 6.95 1.05 L7.15 1.65 7.3 2.15 Q7.25 2.15 7.35 2.45 L7.45 2.8 7.45 2.85 7.6 3.4 7.7 4.0 7.8 4.3 7.8 5.0 7.3 3.65 7.05 3.0 6.9 2.6 Q6.3 0.95 5.85 0.5 5.7 0.35 5.6 0.3 L6.45 0.0 6.6 0.25" fill="#0070e0" fill-rule="evenodd" stroke="none"/>
      <path d="M-3.55 -0.05 Q-3.45 -0.1 -3.4 -0.15 L-3.15 -0.2 -3.05 -0.25 -2.45 -0.4 -2.35 -0.4 Q-2.3 -0.4 -2.25 -0.4 L-2.25 -0.5 -1.6 -0.7 -1.4 -0.8 -1.2 -0.85 -1.15 -0.9 -1.0 -0.9 -0.65 -1.05 -0.5 -1.05 -0.45 -1.0 0.15 0.75 0.15 0.8 0.05 0.95 0.0 0.95 -0.2 1.05 -0.25 1.05 -0.3 1.1 -0.5 1.1 -0.6 1.15 -1.25 1.4 -1.5 1.45 -1.6 1.4 -1.7 1.5 -1.8 1.55 -2.5 1.8 -2.55 1.85 -2.7 1.9 -2.75 1.9 -2.95 1.95 -3.0 1.95 -3.0 2.0 -3.15 2.0 -3.25 2.05 -3.4 2.1 -3.6 2.1 -3.65 2.15 -3.75 2.1 -4.0 2.15 -4.9 2.5 -4.95 2.6 -5.0 2.65 -5.4 2.75 -5.5 2.75 Q-5.6 2.75 -5.65 2.8 L-5.7 2.85 -6.85 3.25 -6.95 3.2 -7.05 3.25 -7.1 3.35 -7.35 3.45 -7.4 3.45 Q-7.5 3.3 -7.65 3.1 L-7.85 2.8 Q-8.0 2.7 -8.1 2.3 L-8.0 1.8 -8.0 1.7 -7.95 1.65 -7.95 1.5 -7.75 1.4 -7.65 1.5 -7.35 1.3 -6.35 0.95 -6.25 0.95 Q-6.2 0.95 -6.1 0.85 L-6.05 0.85 -5.55 0.65 -5.5 0.7 -5.5 0.75 -4.5 0.4 -4.3 0.35 -4.3 0.3 -4.25 0.2 Q-4.2 0.15 -4.1 0.15 L-3.95 0.05 -3.8 0.05 -3.55 -0.05 M-2.3 0.0 L-2.45 -0.1 -2.65 0.0 -2.75 0.0 -2.85 0.05 -3.05 0.1 -3.65 0.3 -3.65 0.4 -3.65 0.45 -3.6 0.5 -3.6 0.55 -3.55 0.65 -3.5 0.85 -3.5 0.9 -3.45 1.0 -3.45 1.05 -3.4 1.1 -3.4 1.15 -3.35 1.35 -3.25 1.55 -3.2 1.55 -3.2 1.65 -3.15 1.65 -3.15 1.7 -2.35 1.45 -2.25 1.4 -2.2 1.35 -2.05 1.3 -2.0 1.3 -1.95 1.2 -1.95 1.1 -2.05 0.7 -2.05 0.65 -2.1 0.5 -2.15 0.45 -2.2 0.25 -2.25 0.2 -2.3 0.1 -2.3 0.0 M-0.95 -0.4 L-0.95 -0.45 -1.0 -0.5 Q-1.05 -0.6 -1.1 -0.6 -1.55 -0.4 -2.05 -0.2 L-2.1 -0.2 -2.15 -0.1 -2.15 0.05 -2.1 0.15 -2.1 0.2 -2.0 0.4 -2.0 0.45 -1.95 0.6 -1.95 0.65 -1.75 1.1 -1.75 1.15 -1.7 1.2 -0.75 0.9 -0.7 0.85 Q-0.55 0.8 -0.55 0.75 L-0.55 0.7 Q-0.6 0.55 -0.65 0.4 L-0.7 0.25 -0.75 0.15 -0.75 0.1 -0.75 0.05 -0.8 0.0 -0.8 -0.15 -0.95 -0.4 M-0.15 0.75 L-0.05 0.7 -0.05 0.45 -0.1 0.4 -0.2 0.15 -0.4 -0.5 -0.45 -0.6 -0.45 -0.65 -0.5 -0.7 -0.55 -0.8 -0.75 -0.75 -0.85 -0.7 -0.8 -0.6 -0.8 -0.55 -0.75 -0.45 -0.75 -0.35 -0.7 -0.25 -0.7 -0.15 -0.65 -0.1 -0.65 -0.05 -0.6 0.0 -0.6 0.05 -0.55 0.1 -0.55 0.15 -0.5 0.2 -0.5 0.25 -0.45 0.5 -0.4 0.6 -0.4 0.65 -0.35 0.7 -0.3 0.8 -0.2 0.8 -0.15 0.75 M-3.8 0.5 Q-3.85 0.4 -3.95 0.4 L-4.0 0.4 -4.1 0.45 -4.05 0.5 -4.05 0.55 -4.05 0.6 -3.95 0.8 -3.9 0.95 -3.85 1.0 -3.8 1.15 -3.8 1.25 -3.75 1.3 -3.75 1.45 -3.7 1.55 -3.65 1.7 -3.65 1.75 -3.6 1.85 -3.5 1.85 -3.45 1.75 -3.4 1.75 -3.4 1.7 -3.4 1.65 -3.5 1.4 -3.5 1.15 -3.65 0.8 -3.7 0.65 -3.75 0.6 -3.8 0.5 M-3.95 1.4 L-4.0 1.35 -4.2 0.65 -4.3 0.65 -4.5 0.75 -4.9 0.9 -5.4 1.05 -5.35 1.15 -5.3 1.15 -5.1 1.75 -5.0 2.15 -4.95 2.1 -4.95 2.15 -4.6 2.05 -4.5 2.0 -4.35 1.95 -4.3 1.95 -4.25 1.9 -4.0 1.85 -3.85 1.8 -3.95 1.5 -3.95 1.4 M-5.15 2.4 L-5.15 2.15 -5.2 2.15 -5.2 2.1 -5.3 1.9 -5.3 1.8 -5.35 1.7 -5.35 1.55 -5.4 1.45 -5.4 1.4 -5.5 1.2 -5.55 1.15 -5.55 1.05 -5.6 1.05 -5.6 0.95 -5.85 0.95 -5.95 1.0 -5.95 1.15 -5.9 1.25 -5.85 1.3 -5.85 1.35 -5.85 1.45 -5.8 1.55 -5.8 1.6 -5.75 1.75 -5.7 1.8 -5.65 1.85 -5.65 1.9 -5.65 1.95 -5.6 2.0 -5.55 2.2 -5.55 2.3 -5.5 2.35 -5.5 2.4 -5.45 2.55 -5.15 2.4 M-5.7 2.45 L-5.7 2.35 -5.75 2.05 -5.95 1.45 -6.0 1.4 -6.05 1.3 -6.05 1.25 -6.1 1.25 -6.1 1.2 -6.2 1.15 -6.2 1.2 -7.2 1.5 -7.5 1.6 -7.45 1.75 -7.45 1.85 -7.4 1.95 -7.35 2.1 -7.35 2.15 -7.3 2.2 -7.25 2.35 -7.25 2.45 -7.2 2.5 -7.2 2.65 -7.15 2.75 -7.0 2.9 -7.0 2.95 -6.95 3.0 -6.4 2.8 -6.3 2.75 -6.0 2.65 -5.8 2.6 -5.8 2.55 -5.7 2.5 -5.7 2.45 M-7.25 3.0 L-7.25 2.9 -7.35 2.7 -7.35 2.5 -7.4 2.35 -7.45 2.1 -7.5 2.1 -7.55 2.0 -7.55 1.9 -7.6 1.9 -7.6 1.85 -7.65 1.8 Q-7.7 1.7 -7.75 1.7 L-7.8 1.7 -7.85 1.8 -7.85 1.9 -7.9 2.1 -7.9 2.15 -7.9 2.25 -7.85 2.4 -7.8 2.5 -7.75 2.65 -7.6 2.85 -7.4 3.05 -7.3 3.15 -7.3 3.05 -7.25 3.05 -7.2 3.0 -7.25 3.0 M-10.9 2.55 L-10.95 2.65 -10.9 3.05 -10.9 3.15 -10.7 3.75 -10.6 4.0 -10.55 4.0 -10.35 4.3 Q-10.7 4.5 -10.95 4.8 L-11.0 5.0 Q-11.15 5.5 -11.25 5.55 L-11.8 5.6 Q-12.15 5.55 -12.3 5.35 L-12.5 5.05 -12.8 4.9 Q-13.05 4.85 -13.2 4.5 L-13.25 4.35 -13.3 4.3 -13.3 4.25 -13.35 4.1 Q-13.4 3.75 -13.25 3.55 L-13.1 3.25 Q-13.25 2.75 -12.9 2.4 -12.65 2.15 -12.4 2.1 -12.3 2.05 -11.9 2.4 L-11.7 2.5 -10.9 2.55 M-11.1 3.1 L-11.1 3.0 -11.15 3.0 -11.15 2.95 Q-11.2 2.9 -11.25 2.9 L-11.45 2.85 -11.55 2.85 -11.9 2.7 -12.25 2.4 Q-12.35 2.35 -12.4 2.35 L-12.55 2.45 -12.75 2.6 Q-12.85 2.75 -12.85 2.95 L-12.85 3.15 Q-12.8 3.2 -12.8 3.3 L-12.75 3.35 -12.75 3.45 -12.8 3.45 -12.9 3.65 -13.05 3.85 Q-13.1 4.05 -13.1 4.25 L-13.05 4.3 Q-12.85 4.55 -12.55 4.6 -12.45 4.65 -12.4 4.7 L-12.35 4.7 -12.3 4.7 -12.3 4.8 -12.25 4.8 Q-12.2 4.85 -12.25 4.95 L-12.1 5.15 Q-12.0 5.3 -11.85 5.35 L-11.4 5.35 Q-11.35 5.3 -11.2 4.75 L-11.0 4.45 -11.05 4.5 -11.0 4.4 -10.8 4.2 Q-10.8 4.1 -10.85 3.8 L-10.9 3.65 -11.0 3.3 -11.1 3.1 M-11.25 4.0 L-11.3 4.1 -11.5 4.3 -11.6 4.35 -11.95 4.4 -12.0 4.4 -12.2 4.35 -12.4 4.25 -12.45 4.1 Q-12.55 3.9 -12.5 3.75 -12.45 3.55 -12.2 3.4 L-11.9 3.25 -11.7 3.25 -11.4 3.45 -11.3 3.55 -11.25 3.65 Q-11.2 3.8 -11.25 3.95 L-11.25 4.0 M-11.5 3.75 L-11.55 3.5 Q-11.75 3.45 -11.8 3.45 L-12.0 3.45 Q-12.1 3.5 -12.2 3.6 -12.35 3.75 -12.3 4.05 -12.25 4.15 -12.15 4.25 L-12.05 4.3 -11.8 4.35 Q-11.65 4.3 -11.55 4.1 L-11.5 4.0 -11.45 3.85 -11.5 3.75" fill="#111111" fill-rule="evenodd" stroke="none"/>
      <path d="M-2.7 -1.1 L-2.7 -1.1 M-3.95 1.4 L-3.95 1.5 -3.85 1.8 -4.0 1.85 -4.25 1.9 -4.3 1.95 -4.35 1.95 -4.5 2.0 -4.6 2.05 -4.95 2.15 -4.95 2.1 -5.0 2.15 -5.1 1.75 Q-4.65 1.6 -3.95 1.4" fill="#e9eca6" fill-rule="evenodd" stroke="none"/>
      <path d="M-2.25 0.2 Q-2.3 0.1 -2.35 0.05 L-2.35 0.0 -2.3 0.0 -2.3 0.1 -2.25 0.2 M-0.7 0.25 L-0.75 0.25 -0.75 0.15 -0.7 0.25 M-0.75 0.1 L-0.8 0.1 -0.8 0.05 -0.75 0.05 -0.75 0.1 M-3.8 0.5 L-3.75 0.6 -3.7 0.65 -3.8 0.5 M-5.95 1.45 L-6.0 1.5 -6.0 1.4 -6.1 1.3 -6.05 1.25 -6.05 1.3 -6.0 1.4 -5.95 1.45" fill="#d7e1d8" fill-rule="evenodd" stroke="none"/>
      <path d="M-3.4 1.7 L-3.4 1.75 -3.4 1.7 M-7.25 3.0 L-7.2 3.0 -7.25 3.05 -7.25 3.0" fill="#a1926f" fill-rule="evenodd" stroke="none"/>
      <path d="M-5.3 1.15 L-5.35 1.15 -5.4 1.05 -4.9 0.9 -4.5 0.75 -4.3 0.65 -4.2 0.65 -4.0 1.35 -3.95 1.4 Q-4.65 1.6 -5.1 1.75 L-5.3 1.15" fill="#fefefc" fill-rule="evenodd" stroke="none"/>
      <path d="M-5.7 1.8 L-5.7 1.8" fill="#dfcfab" fill-rule="evenodd" stroke="none"/>
      <path d="M-3.65 0.4 L-3.65 0.3 -3.05 0.1 -2.85 0.05 -2.75 0.0 -2.65 0.0 -2.45 -0.1 -2.3 0.0 -2.35 0.0 -2.35 0.05 Q-2.3 0.1 -2.25 0.2 L-2.2 0.25 -2.15 0.45 -2.1 0.5 -2.05 0.65 -2.05 0.7 -1.95 1.1 -1.95 1.2 -2.0 1.2 -2.0 1.25 -2.05 1.25 -2.05 1.2 -2.1 1.15 Q-2.15 1.05 -2.15 0.85 L-2.2 0.75 -2.2 0.7 -2.25 0.55 -2.3 0.5 -2.45 0.55 -2.5 0.6 -2.6 0.6 -2.95 0.7 -3.4 0.85 -3.45 0.9 -3.5 0.9 -3.5 0.85 -3.55 0.65 -3.45 0.6 -3.25 0.55 -3.2 0.55 -2.7 0.35 -2.6 0.35 -2.55 0.3 -2.45 0.25 -2.4 0.25 -2.4 0.15 -2.5 0.05 -3.65 0.4 M-2.15 -0.1 L-2.1 -0.2 -2.05 -0.2 Q-1.55 -0.4 -1.1 -0.6 -1.05 -0.6 -1.0 -0.5 L-0.95 -0.45 -0.95 -0.4 -0.8 -0.15 -0.8 0.0 -0.75 0.05 -0.8 0.05 -0.8 0.1 -0.75 0.1 -0.75 0.15 -0.75 0.25 -0.7 0.25 -0.65 0.4 Q-0.6 0.55 -0.55 0.7 L-0.55 0.75 -0.6 0.75 -0.6 0.65 -0.65 0.7 -0.65 0.75 -0.7 0.6 -0.85 0.3 -0.9 0.15 -0.95 0.1 -1.0 0.1 -1.0 0.15 -1.95 0.4 -2.0 0.4 -2.1 0.2 -2.1 0.15 -1.3 -0.1 -1.25 -0.1 -1.05 -0.2 -1.05 -0.3 -1.1 -0.4 -1.2 -0.35 -1.25 -0.35 -1.3 -0.3 -1.65 -0.25 -2.1 -0.1 -2.15 -0.1 M-5.95 1.45 L-5.75 2.05 -5.7 2.35 -5.7 2.45 -5.7 2.5 -5.8 2.5 -5.8 2.45 -5.85 2.4 Q-5.9 2.3 -5.9 2.15 L-5.9 2.1 -5.95 2.0 -6.05 1.8 -6.3 1.85 -6.7 2.0 -7.1 2.1 -7.25 2.15 -7.25 2.2 -7.3 2.2 -7.35 2.15 -7.35 2.1 -7.4 1.95 -7.3 1.95 -7.25 1.9 -6.9 1.8 -6.75 1.75 -6.55 1.65 -6.15 1.55 -6.15 1.4 -6.2 1.35 -6.25 1.35 -6.25 1.3 -7.45 1.75 -7.5 1.6 -7.2 1.5 -6.2 1.2 -6.2 1.15 -6.1 1.2 -6.1 1.25 -6.05 1.25 -6.1 1.3 -6.0 1.4 -6.0 1.5 -5.95 1.45 M-12.25 2.4 L-11.9 2.7 -11.55 2.85 -11.45 2.85 -11.25 2.9 Q-11.2 2.9 -11.15 2.95 L-11.15 3.0 -11.1 3.0 -11.1 3.1 -11.7 3.1 -12.85 2.95 Q-12.85 2.75 -12.75 2.6 L-12.55 2.45 -12.25 2.4 M-13.05 3.85 L-12.9 3.65 -12.8 3.45 -12.75 3.45 -12.75 3.35 -12.6 3.35 -12.2 3.4 Q-12.45 3.55 -12.5 3.75 L-13.05 3.85" fill="#d0f0f0" fill-rule="evenodd" stroke="none"/>
      <path d="M-3.65 0.4 L-2.5 0.05 -2.4 0.15 -2.4 0.25 -2.45 0.25 -2.55 0.3 -2.6 0.35 -2.7 0.35 -3.2 0.55 -3.25 0.55 -3.45 0.6 -3.55 0.65 -3.6 0.55 -3.6 0.5 -3.65 0.45 -3.65 0.4 M-3.5 0.9 L-3.45 0.9 -3.4 0.85 -2.95 0.7 -2.6 0.6 -2.5 0.6 -2.45 0.55 -2.3 0.5 -2.25 0.55 -2.2 0.7 -2.2 0.75 -3.4 1.15 -3.4 1.1 -3.45 1.05 -3.45 1.0 -3.5 0.9 M-2.05 1.25 L-2.0 1.25 -2.0 1.2 -1.95 1.2 -2.0 1.3 -2.05 1.3 -2.2 1.35 -2.25 1.4 -2.35 1.45 -3.15 1.7 -3.15 1.65 -3.2 1.65 -2.5 1.4 -2.45 1.4 -2.05 1.25 M-2.15 -0.1 L-2.1 -0.1 -1.65 -0.25 -1.3 -0.3 -1.25 -0.35 -1.2 -0.35 -1.1 -0.4 -1.05 -0.3 -1.05 -0.2 -1.25 -0.1 -1.3 -0.1 -2.1 0.15 -2.15 0.05 -2.15 -0.1 M-2.0 0.4 L-1.95 0.4 -1.0 0.15 -1.0 0.1 -0.95 0.1 -0.9 0.15 -0.85 0.3 -1.95 0.65 -1.95 0.6 -2.0 0.45 -2.0 0.4 M-0.6 0.75 L-0.55 0.75 Q-0.55 0.8 -0.7 0.85 L-0.75 0.9 -1.7 1.2 -1.75 1.15 -0.6 0.75 M-7.45 1.75 L-6.25 1.3 -6.25 1.35 -6.2 1.35 -6.15 1.4 -6.15 1.55 -6.55 1.65 -6.75 1.75 -6.9 1.8 -7.25 1.9 -7.3 1.95 -7.4 1.95 -7.45 1.85 -7.45 1.75 M-7.3 2.2 L-7.25 2.2 -7.25 2.15 -7.1 2.1 -6.7 2.0 -6.3 1.85 -6.05 1.8 -5.95 2.0 -7.25 2.45 -7.25 2.35 -7.3 2.2 M-5.8 2.5 L-5.7 2.5 -5.7 2.45 -5.7 2.5 -5.8 2.55 -5.8 2.6 -6.0 2.65 -6.3 2.75 -6.4 2.8 -6.95 3.0 -7.0 2.95 -7.0 2.9 -5.8 2.5 M-11.1 3.1 L-11.0 3.3 -10.9 3.65 -11.25 4.0 -11.25 3.95 Q-11.2 3.8 -11.25 3.65 L-11.3 3.55 -11.4 3.45 -11.7 3.25 -11.9 3.25 -12.2 3.4 -12.6 3.35 -12.75 3.35 -12.8 3.3 Q-12.8 3.2 -12.85 3.15 L-12.85 2.95 -11.7 3.1 -11.1 3.1 M-12.1 5.15 L-12.25 4.95 Q-12.2 4.85 -12.25 4.8 L-12.3 4.8 -12.3 4.7 -12.35 4.7 -12.2 4.6 -12.0 4.4 -11.95 4.4 -11.6 4.35 -11.5 4.3 -11.9 4.8 -12.1 5.15 M-13.05 4.3 L-13.1 4.25 Q-13.1 4.05 -13.05 3.85 L-12.5 3.75 Q-12.55 3.9 -12.45 4.1 L-12.4 4.25 -12.4 4.3 Q-12.6 4.45 -13.05 4.3 M-12.55 2.45 L-12.4 2.35 Q-12.35 2.35 -12.25 2.4 L-12.55 2.45" fill="#80c0f0" fill-rule="evenodd" stroke="none"/>
      <path d="M-2.2 0.75 L-2.15 0.85 Q-2.15 1.05 -2.1 1.15 L-2.05 1.2 -2.05 1.25 -2.45 1.4 -2.5 1.4 -3.2 1.65 -3.2 1.55 -3.25 1.55 -3.35 1.35 -3.4 1.15 -2.2 0.75 M-0.85 0.3 L-0.7 0.6 -0.65 0.75 -0.65 0.7 -0.6 0.65 -0.6 0.75 -1.75 1.15 -1.75 1.1 -1.95 0.65 -0.85 0.3 M-5.95 2.0 L-5.9 2.1 -5.9 2.15 Q-5.9 2.3 -5.85 2.4 L-5.8 2.45 -5.8 2.5 -7.0 2.9 -7.15 2.75 -7.2 2.65 -7.2 2.5 -7.25 2.45 -5.95 2.0 M-10.9 3.65 L-10.85 3.8 Q-10.8 4.1 -10.8 4.2 L-11.0 4.4 -11.05 4.5 -11.0 4.45 -11.2 4.75 Q-11.35 5.3 -11.4 5.35 L-11.85 5.35 Q-12.0 5.3 -12.1 5.15 L-11.9 4.8 -11.5 4.3 -11.3 4.1 -11.25 4.0 -10.9 3.65 M-12.35 4.7 L-12.4 4.7 Q-12.45 4.65 -12.55 4.6 -12.85 4.55 -13.05 4.3 -12.6 4.45 -12.4 4.3 L-12.4 4.25 -12.2 4.35 -12.0 4.4 -12.2 4.6 -12.35 4.7" fill="#0070e0" fill-rule="evenodd" stroke="none"/>
      <path d="M-0.8 -0.6 L-0.85 -0.7 -0.75 -0.75 -0.55 -0.8 -0.5 -0.7 -0.45 -0.65 -0.45 -0.6 -0.4 -0.5 -0.2 0.15 -0.1 0.4 -0.05 0.45 -0.05 0.7 -0.15 0.75 -0.2 0.6 -0.25 0.55 -0.25 0.45 -0.35 0.1 -0.4 -0.15 -0.5 -0.05 -0.6 0.0 -0.65 -0.05 -0.65 -0.1 -0.7 -0.15 -0.7 -0.25 -0.75 -0.35 -0.5 -0.45 -0.6 -0.65 -0.6 -0.7 -0.8 -0.6 M-4.05 0.55 L-4.05 0.5 -4.1 0.45 -4.0 0.4 -3.95 0.4 Q-3.85 0.4 -3.8 0.5 L-3.7 0.65 -3.65 0.8 -3.5 1.15 -3.5 1.4 -3.4 1.65 -3.4 1.7 -3.4 1.75 -3.45 1.7 -3.45 1.65 -3.6 1.3 -3.6 1.25 -3.6 1.2 -3.65 1.15 -3.7 0.95 -3.85 1.0 -3.9 0.95 -3.95 0.8 -3.8 0.75 -3.9 0.55 -3.9 0.5 -4.05 0.55 M-5.9 1.25 L-5.95 1.15 -5.95 1.0 -5.85 0.95 -5.6 0.95 -5.6 1.05 -5.55 1.05 -5.55 1.15 -5.5 1.2 -5.4 1.4 -5.4 1.45 -5.35 1.55 -5.35 1.7 -5.3 1.8 -5.3 1.9 -5.2 2.1 -5.2 2.15 -5.15 2.15 -5.15 2.4 -5.2 2.35 -5.2 2.3 -5.25 2.25 -5.25 2.2 -5.35 2.1 -5.35 2.05 -5.4 2.05 -5.4 2.0 -5.45 1.95 -5.45 1.85 -5.5 1.85 -5.5 1.8 -5.55 1.75 -5.55 1.8 -5.6 1.8 -5.55 1.75 -5.55 1.7 Q-5.55 1.65 -5.65 1.65 -5.7 1.65 -5.7 1.7 L-5.75 1.7 -5.75 1.75 -5.8 1.6 -5.8 1.55 -5.85 1.45 -5.85 1.35 Q-5.75 1.4 -5.7 1.3 L-5.7 1.2 -5.8 1.15 -5.85 1.15 -5.9 1.2 -5.85 1.25 -5.9 1.25 M-7.85 1.9 L-7.85 1.8 -7.8 1.7 -7.75 1.7 Q-7.7 1.7 -7.65 1.8 L-7.6 1.85 -7.6 1.9 -7.55 1.9 -7.55 2.0 -7.5 2.1 -7.45 2.1 -7.4 2.35 -7.35 2.5 -7.35 2.7 -7.25 2.9 -7.25 3.0 -7.25 3.05 -7.3 3.0 -7.45 2.55 Q-7.55 2.3 -7.6 2.3 L-7.85 2.4 -7.9 2.25 -7.9 2.15 -7.65 2.05 -7.75 1.9 -7.85 1.9 M-11.5 3.75 L-11.65 3.8 Q-11.8 3.85 -11.9 3.75 L-11.95 3.7 -12.0 3.55 -12.0 3.45 -11.8 3.45 Q-11.75 3.45 -11.55 3.5 L-11.5 3.75" fill="#ff9999" fill-rule="evenodd" stroke="none"/>
      <path d="M-0.15 0.75 L-0.2 0.8 -0.3 0.8 -0.35 0.7 -0.4 0.65 -0.25 0.55 -0.2 0.6 -0.15 0.75 M-0.55 0.15 L-0.55 0.1 -0.6 0.05 -0.6 0.0 -0.5 -0.05 -0.4 -0.15 -0.35 0.1 -0.45 0.1 -0.55 0.15 M-0.75 -0.35 L-0.75 -0.45 -0.8 -0.55 -0.8 -0.6 -0.6 -0.7 -0.6 -0.65 -0.5 -0.45 -0.75 -0.35 M-3.4 1.75 L-3.45 1.75 -3.5 1.85 -3.6 1.85 -3.65 1.75 -3.45 1.7 -3.4 1.75 M-3.75 1.3 L-3.8 1.25 -3.8 1.15 -3.85 1.0 -3.7 0.95 -3.65 1.15 -3.6 1.2 -3.6 1.25 -3.75 1.3 M-3.95 0.8 L-4.05 0.6 -4.05 0.55 -3.9 0.5 -3.9 0.55 -3.8 0.75 -3.95 0.8 M-5.15 2.4 L-5.45 2.55 -5.5 2.4 -5.2 2.3 -5.2 2.35 -5.15 2.4 M-5.65 1.9 L-5.65 1.85 -5.7 1.8 -5.75 1.75 -5.75 1.7 -5.7 1.7 Q-5.7 1.65 -5.65 1.65 -5.55 1.65 -5.55 1.7 L-5.55 1.75 -5.6 1.8 -5.55 1.8 -5.55 1.75 -5.5 1.8 -5.5 1.85 -5.65 1.9 M-5.85 1.35 L-5.85 1.3 -5.9 1.25 -5.85 1.25 -5.9 1.2 -5.85 1.15 -5.8 1.15 -5.7 1.2 -5.7 1.3 Q-5.75 1.4 -5.85 1.35 M-5.7 1.8 L-5.7 1.8 M-7.25 3.05 L-7.3 3.05 -7.3 3.15 -7.4 3.05 -7.3 3.0 -7.25 3.05 M-7.75 2.65 L-7.8 2.5 -7.85 2.4 -7.6 2.3 Q-7.55 2.3 -7.45 2.55 L-7.7 2.6 -7.75 2.65 M-7.9 2.15 L-7.9 2.1 -7.85 1.9 -7.75 1.9 -7.65 2.05 -7.9 2.15 M-11.65 3.8 L-11.5 3.75 -11.45 3.85 -11.5 4.0 -11.55 4.1 Q-11.65 4.3 -11.8 4.35 L-12.05 4.3 -12.15 4.25 Q-12.25 4.15 -12.3 4.05 -12.35 3.75 -12.2 3.6 -12.1 3.5 -12.0 3.45 L-12.0 3.55 -11.95 3.7 -12.05 3.75 Q-12.2 3.85 -12.05 4.0 -12.0 4.1 -11.9 4.1 L-11.75 4.05 -11.65 3.9 -11.6 3.8 -11.65 3.8" fill="#b00000" fill-rule="evenodd" stroke="none"/>
      <path d="M-0.4 0.65 L-0.4 0.6 -0.45 0.5 -0.5 0.25 -0.5 0.2 -0.55 0.15 -0.45 0.1 -0.35 0.1 -0.25 0.45 -0.25 0.55 -0.4 0.65 M-3.65 1.75 L-3.65 1.7 -3.7 1.55 -3.75 1.45 -3.75 1.3 -3.6 1.25 -3.6 1.3 -3.45 1.65 -3.45 1.7 -3.65 1.75 M-5.5 2.4 L-5.5 2.35 -5.55 2.3 -5.55 2.2 -5.6 2.0 -5.65 1.95 -5.65 1.9 -5.5 1.85 -5.45 1.85 -5.45 1.95 -5.4 2.0 -5.4 2.05 -5.35 2.05 -5.35 2.1 -5.25 2.2 -5.25 2.25 -5.2 2.3 -5.5 2.4 M-7.4 3.05 L-7.6 2.85 -7.75 2.65 -7.7 2.6 -7.45 2.55 -7.3 3.0 -7.4 3.05 M-11.95 3.7 L-11.9 3.75 Q-11.8 3.85 -11.65 3.8 L-11.6 3.8 -11.65 3.9 -11.75 4.05 -11.9 4.1 Q-12.0 4.1 -12.05 4.0 -12.2 3.85 -12.05 3.75 L-11.95 3.7" fill="#600000" fill-rule="evenodd" stroke="none"/>
      <path d="M5.25 -3.7 Q5.55 -3.6 5.75 -3.3 5.8 -3.15 5.9 -3.1 L5.9 -3.05 Q5.9 -3.0 6.2 -2.85 6.5 -2.75 6.6 -2.55 L6.65 -2.4 6.65 -2.35 Q6.8 -1.9 6.6 -1.7 6.45 -1.5 6.45 -1.35 L6.45 -1.15 Q6.5 -0.8 6.3 -0.55 6.2 -0.35 5.95 -0.25 5.4 -0.1 5.15 -0.45 5.05 -0.6 4.6 -0.95 L4.15 -1.25 4.05 -1.35 3.9 -1.55 3.9 -1.6 Q4.0 -1.8 4.0 -1.95 L4.1 -2.35 Q4.25 -2.9 4.25 -3.05 4.25 -3.5 4.75 -3.7 L5.25 -3.7 M6.4 -2.4 Q6.25 -2.65 6.0 -2.75 L5.95 -2.75 5.7 -2.7 5.5 -2.7 5.2 -2.5 5.2 -2.45 5.15 -2.45 4.6 -2.05 Q4.5 -2.0 4.35 -1.85 L4.1 -1.6 4.1 -1.5 4.15 -1.5 4.4 -1.45 5.55 -1.45 5.75 -1.5 5.95 -1.5 6.05 -1.6 6.3 -1.75 6.35 -1.75 Q6.5 -2.0 6.45 -2.25 L6.45 -2.35 6.4 -2.4 M4.15 -1.85 L4.1 -1.85 4.1 -1.75 Q4.35 -2.0 4.9 -2.45 L5.6 -3.0 5.6 -3.05 5.45 -3.3 5.35 -3.45 Q5.1 -3.7 4.75 -3.6 4.55 -3.5 4.4 -3.05 L4.3 -2.6 4.15 -1.85 M4.3 -1.35 L4.25 -1.4 5.0 -0.75 Q5.6 -0.25 5.85 -0.35 6.25 -0.45 6.25 -0.85 6.3 -1.05 6.2 -1.3 L6.15 -1.3 6.15 -1.35 Q5.9 -1.3 5.3 -1.3 L4.3 -1.35" fill="#111111" fill-rule="evenodd" stroke="none"/>
      <path d="M4.1 -1.6 L4.35 -1.85 Q4.5 -2.0 4.6 -2.05 L5.15 -2.45 5.2 -2.45 5.2 -2.5 5.5 -2.7 5.7 -2.7 5.95 -2.75 6.0 -2.75 Q6.25 -2.65 6.4 -2.4 L6.25 -2.25 Q6.1 -2.1 6.0 -2.05 L4.8 -1.65 4.7 -1.65 4.3 -1.6 4.1 -1.6 M5.35 -3.45 Q5.35 -2.9 4.4 -2.1 L4.15 -1.85 4.3 -2.6 4.4 -3.05 Q4.55 -3.5 4.75 -3.6 5.1 -3.7 5.35 -3.45 M4.3 -1.35 L5.3 -1.3 Q5.9 -1.3 6.15 -1.35 L6.15 -1.3 6.2 -1.3 Q6.3 -1.05 6.25 -0.85 5.9 -0.7 5.8 -0.7 5.3 -0.7 4.65 -1.15 L4.3 -1.35" fill="#fefefc" fill-rule="evenodd" stroke="none"/>
      <path d="M4.1 -1.6 L4.3 -1.6 4.7 -1.65 4.8 -1.65 6.0 -2.05 Q6.1 -2.1 6.25 -2.25 L6.4 -2.4 6.45 -2.35 6.45 -2.25 Q6.5 -2.0 6.35 -1.75 L6.3 -1.75 6.05 -1.6 5.95 -1.5 5.75 -1.5 5.55 -1.45 4.4 -1.45 4.15 -1.5 4.1 -1.5 4.1 -1.6 M5.35 -3.45 L5.45 -3.3 5.6 -3.05 5.6 -3.0 4.9 -2.45 Q4.35 -2.0 4.1 -1.75 L4.1 -1.85 4.15 -1.85 4.4 -2.1 Q5.35 -2.9 5.35 -3.45 M6.25 -0.85 Q6.25 -0.45 5.85 -0.35 5.6 -0.25 5.0 -0.75 L4.25 -1.4 4.3 -1.35 4.65 -1.15 Q5.3 -0.7 5.8 -0.7 5.9 -0.7 6.25 -0.85" fill="#e9eca6" fill-rule="evenodd" stroke="none"/>
    </g>
  </defs>
</svg>
