<?xml version="1.0" encoding="UTF-8" standalone="no"?>
<svg xmlns:ffdec="https://www.free-decompiler.com/flash" xmlns:xlink="http://www.w3.org/1999/xlink" ffdec:objectType="frame" height="231.35px" width="224.7px" xmlns="http://www.w3.org/2000/svg">
  <g transform="matrix(1.0, 0.0, 0.0, 1.0, 76.3, 204.4)">
    <use ffdec:characterId="3992" height="7.75" transform="matrix(7.0, 0.0, 0.0, 7.0, -69.3, -39.2)" width="26.4" xlink:href="#shape0"/>
    <use ffdec:characterId="3991" height="6.35" transform="matrix(7.0, 0.0, 0.0, 7.0, -75.6, -19.95)" width="31.95" xlink:href="#shape1"/>
  </g>
  <defs>
    <g id="shape0" transform="matrix(1.0, 0.0, 0.0, 1.0, 9.9, 5.6)">
      <path d="M1.5 -2.65 Q1.55 -2.55 1.55 -2.45 L1.5 -2.45 1.45 -2.4 1.35 -2.4 1.35 -2.45 1.3 -2.45 1.25 -2.5 1.25 -2.55 1.2 -2.6 1.15 -2.6 1.1 -2.65 1.15 -2.7 Q1.1 -2.75 1.3 -2.75 L1.4 -2.75 1.5 -2.65 M2.45 -2.05 L2.55 -2.0 2.6 -2.0 Q2.7 -1.95 2.8 -1.95 2.85 -1.95 3.0 -2.0 L3.25 -2.1 Q3.3 -2.1 3.4 -2.0 L3.5 -1.85 3.45 -1.75 2.85 -1.75 2.75 -1.7 Q2.7 -1.7 2.65 -1.75 L2.55 -1.8 2.55 -1.7 2.15 -1.7 2.1 -1.75 Q2.1 -1.8 2.2 -1.95 2.3 -2.0 2.4 -2.05 L2.45 -2.05 M2.7 -1.85 L2.45 -1.95 2.4 -1.95 2.2 -1.75 2.35 -1.75 2.4 -1.8 2.35 -1.8 2.35 -1.75 2.25 -1.8 2.35 -1.85 2.4 -1.95 2.45 -1.95 Q2.55 -1.85 2.75 -1.8 L3.3 -1.8 3.35 -1.85 3.4 -1.85 3.35 -1.95 3.25 -2.05 3.05 -1.95 2.9 -1.9 2.9 -1.85 3.1 -1.95 3.25 -2.0 3.35 -1.85 2.75 -1.85 2.7 -1.85 M2.5 -1.8 L2.5 -1.8 M2.75 -1.8 L2.75 -1.8 M1.3 -2.65 L1.35 -2.6 1.4 -2.5 1.4 -2.6 1.3 -2.7 1.25 -2.7 1.3 -2.65 M0.25 -3.0 L0.3 -3.0 Q0.4 -2.95 0.4 -2.9 L0.35 -2.85 0.25 -2.85 0.25 -2.8 0.2 -2.8 0.1 -2.75 0.05 -2.8 Q0.0 -2.8 0.0 -2.85 L0.0 -2.9 0.05 -2.95 Q0.2 -3.0 0.25 -3.0 M0.25 -2.9 L0.15 -2.85 0.2 -2.9 0.25 -2.9 M0.2 -2.15 L0.35 -2.1 0.4 -2.05 0.45 -2.05 Q0.6 -2.0 0.6 -1.95 L0.55 -1.9 Q0.5 -1.85 0.4 -1.85 L0.35 -1.85 Q0.1 -1.95 0.1 -2.05 L0.1 -2.15 0.2 -2.15 M0.25 -2.05 L0.2 -2.05 Q0.25 -2.0 0.4 -1.95 L0.45 -1.9 0.45 -1.95 0.4 -1.95 0.3 -2.0 0.25 -2.05 M0.6 -0.35 L0.6 -0.4 Q0.6 -0.45 0.75 -0.45 0.8 -0.55 0.95 -0.6 L1.0 -0.6 1.05 -0.55 1.2 -0.45 1.2 -0.35 1.15 -0.35 1.15 -0.3 0.95 -0.3 0.85 -0.2 0.75 -0.2 0.85 -0.15 0.9 -0.1 0.85 -0.05 0.75 0.0 0.55 0.0 Q0.45 0.0 0.4 -0.1 L0.35 -0.2 Q0.35 -0.3 0.5 -0.35 L0.6 -0.35 M0.05 -0.95 L0.1 -0.9 0.1 -0.8 0.0 -0.7 -0.05 -0.7 -0.1 -0.75 -0.15 -0.75 -0.15 -0.8 -0.2 -0.75 -0.35 -0.75 Q-0.65 -0.9 -0.65 -1.05 -0.65 -1.15 -0.6 -1.2 L-0.35 -1.2 -0.3 -1.15 -0.3 -1.1 Q-0.3 -1.05 -0.35 -1.05 L-0.35 -1.0 -0.2 -0.95 -0.15 -0.9 -0.05 -0.95 0.05 -0.95 M0.7 -0.35 L0.85 -0.35 0.55 -0.25 Q0.45 -0.25 0.45 -0.2 0.45 -0.15 0.5 -0.1 L0.55 -0.05 0.75 -0.1 0.55 -0.1 0.5 -0.15 0.5 -0.2 0.55 -0.25 0.8 -0.3 Q0.85 -0.35 0.9 -0.35 L1.05 -0.4 1.1 -0.4 0.95 -0.5 0.85 -0.4 0.7 -0.35 M0.95 -0.4 L0.9 -0.4 Q0.9 -0.45 0.95 -0.45 1.0 -0.5 1.05 -0.4 1.15 -0.4 0.95 -0.4 M2.35 -1.1 L2.45 -1.15 2.55 -1.1 2.6 -1.05 2.65 -0.95 2.65 -0.9 Q2.75 -0.8 2.75 -0.75 L2.7 -0.7 2.7 -0.65 2.6 -0.55 2.4 -0.55 2.4 -0.6 2.35 -0.65 2.35 -0.7 2.4 -0.75 2.45 -0.75 2.4 -0.85 Q2.25 -0.95 2.25 -1.0 2.25 -1.1 2.35 -1.1 M2.4 -1.0 Q2.4 -0.95 2.5 -0.9 L2.55 -0.75 2.55 -0.65 2.5 -0.7 2.45 -0.7 2.5 -0.65 2.6 -0.7 2.55 -0.7 2.6 -0.75 2.5 -0.9 Q2.4 -0.95 2.4 -1.0 L2.45 -1.0 2.45 -1.05 2.5 -0.95 2.5 -1.0 2.45 -1.05 Q2.4 -1.05 2.4 -1.0 M-6.6 -4.05 L-6.6 -3.95 -6.85 -3.95 -6.9 -4.0 Q-6.9 -4.15 -6.8 -4.2 L-6.7 -4.25 -6.45 -4.25 Q-6.2 -4.45 -5.95 -4.4 -5.65 -4.35 -5.65 -4.1 L-5.65 -4.05 Q-5.7 -4.05 -5.75 -4.05 L-5.85 -4.05 -6.0 -4.2 -6.15 -4.15 -6.25 -4.1 -6.3 -4.1 -6.35 -4.05 -6.6 -4.05 M-6.65 -4.15 L-6.35 -4.15 -6.2 -4.2 -6.05 -4.3 Q-5.9 -4.3 -5.85 -4.2 L-5.75 -4.1 Q-5.75 -4.25 -5.95 -4.3 -6.2 -4.35 -6.4 -4.2 L-6.7 -4.15 Q-6.75 -4.1 -6.75 -4.0 L-6.7 -4.0 -6.65 -4.15 M-9.05 -3.6 L-8.95 -3.6 Q-8.9 -3.6 -8.9 -3.55 L-8.5 -3.15 -8.45 -3.15 -8.25 -3.2 -8.15 -3.2 -8.1 -3.15 -8.1 -3.1 -8.15 -3.05 -8.25 -3.05 -8.25 -3.0 Q-8.4 -2.95 -8.5 -2.95 -8.65 -2.9 -8.9 -3.2 L-9.1 -3.4 -9.3 -3.3 -9.35 -3.3 -9.4 -3.25 -9.55 -3.25 -9.45 -3.15 Q-9.35 -3.1 -9.35 -3.05 L-9.35 -3.0 Q-9.35 -2.9 -9.5 -2.9 L-9.55 -2.9 -9.65 -2.95 -9.75 -3.1 Q-9.9 -3.2 -9.85 -3.25 L-9.85 -3.3 Q-9.8 -3.5 -9.55 -3.5 L-9.4 -3.5 -9.05 -3.6 M-9.0 -3.5 L-9.35 -3.45 -9.55 -3.4 Q-9.7 -3.4 -9.75 -3.25 -9.75 -3.2 -9.65 -3.15 L-9.5 -2.95 -9.5 -3.05 -9.65 -3.2 -9.65 -3.35 -9.4 -3.35 -9.1 -3.5 Q-8.95 -3.5 -8.8 -3.25 -8.55 -3.0 -8.5 -3.0 -8.45 -3.0 -8.35 -3.1 -8.3 -3.15 -8.2 -3.1 L-8.25 -3.15 -8.35 -3.1 -8.5 -3.1 Q-8.55 -3.1 -8.75 -3.25 L-9.0 -3.5 M-9.55 -2.7 L-9.5 -2.7 -9.4 -2.65 -9.25 -2.6 Q-9.2 -2.6 -9.2 -2.55 L-9.2 -2.5 -9.25 -2.45 -9.5 -2.45 Q-9.45 -2.4 -9.55 -2.35 -9.6 -2.35 -9.65 -2.35 L-9.75 -2.35 -9.75 -2.4 -9.8 -2.4 -9.85 -2.5 -9.8 -2.6 Q-9.75 -2.7 -9.55 -2.7 M-9.55 -2.6 Q-9.65 -2.6 -9.7 -2.55 L-9.7 -2.45 -9.65 -2.45 -9.65 -2.55 -9.6 -2.6 -9.45 -2.55 -9.55 -2.6 M-9.7 -2.2 L-9.65 -2.25 -9.55 -2.3 -9.35 -2.2 -9.0 -2.1 -8.95 -2.1 -8.9 -2.05 -8.85 -2.05 -8.8 -2.0 Q-8.8 -1.95 -8.85 -1.85 L-8.95 -1.8 Q-9.0 -1.75 -9.05 -1.75 L-9.15 -1.85 -9.15 -1.95 -9.35 -1.95 -9.5 -2.05 Q-9.65 -2.1 -9.65 -2.15 L-9.7 -2.2 M-9.4 -2.1 L-9.25 -2.0 -9.0 -2.0 -9.0 -2.05 -9.05 -2.05 Q-9.25 -2.05 -9.4 -2.15 L-9.55 -2.2 -9.4 -2.1 M-8.95 -2.0 L-9.05 -1.85 -8.95 -1.9 -8.95 -2.0 M-9.0 -1.35 L-8.85 -1.35 -8.6 -1.15 -8.5 -1.05 -8.4 -1.15 -8.35 -1.15 -8.35 -1.2 -8.25 -1.25 -8.2 -1.35 -8.05 -1.4 -7.85 -1.35 -7.7 -1.4 -7.75 -1.45 -7.7 -1.45 -7.7 -1.5 -7.65 -1.65 -7.6 -1.65 -7.7 -1.8 -7.8 -1.85 -7.8 -1.9 -7.65 -2.05 -7.5 -2.15 -7.3 -2.25 -7.05 -2.3 -7.0 -2.3 -6.6 -2.35 -6.55 -2.4 -6.6 -2.4 -6.6 -2.45 -6.65 -2.45 -6.65 -2.5 -6.6 -2.55 -6.6 -2.6 Q-6.55 -2.65 -6.45 -2.65 L-6.3 -2.65 -6.2 -2.55 -6.0 -2.55 Q-5.85 -2.5 -5.85 -2.4 -5.85 -2.35 -5.9 -2.3 L-5.95 -2.3 -6.0 -2.25 -6.1 -2.25 -6.15 -2.3 -6.2 -2.3 -6.2 -2.4 -6.25 -2.45 -6.35 -2.45 -6.1 -2.2 -5.7 -1.95 -5.65 -1.9 -5.5 -1.8 -5.4 -1.7 -5.5 -1.5 -5.65 -1.3 -5.65 -1.2 Q-5.65 -1.1 -5.6 -1.0 L-5.55 -0.9 -5.55 -0.75 -5.65 -0.65 Q-5.7 -0.6 -5.75 -0.6 L-5.85 -0.6 -5.9 -0.65 -5.9 -0.7 -5.95 -0.7 -5.95 -0.75 -6.0 -0.9 -6.1 -0.95 -6.2 -1.1 -6.25 -1.25 -6.25 -1.35 -6.3 -1.4 -6.3 -1.45 Q-6.3 -1.55 -6.45 -1.65 L-6.6 -1.8 Q-6.65 -1.85 -6.75 -1.9 L-6.85 -1.9 -7.05 -1.85 -7.25 -1.65 -7.3 -1.55 Q-7.35 -1.35 -7.45 -1.25 L-7.6 -1.2 -8.05 -1.2 -8.15 -1.1 -8.1 -1.1 -8.1 -1.0 -8.15 -0.95 Q-8.3 -0.8 -8.4 -0.75 L-8.5 -0.75 -8.55 -0.8 -8.65 -0.8 Q-8.7 -0.8 -8.7 -0.85 L-8.7 -0.9 -8.95 -1.1 -9.1 -1.15 -9.3 -1.1 -9.65 -1.05 -9.7 -1.1 -9.85 -1.2 Q-9.9 -1.3 -9.9 -1.4 L-9.85 -1.6 -9.8 -1.65 -9.75 -1.65 -9.45 -1.6 -9.3 -1.55 -9.25 -1.6 -8.95 -1.6 -8.95 -1.5 -9.05 -1.4 -9.2 -1.4 -9.2 -1.35 -9.35 -1.35 -9.55 -1.4 -9.6 -1.45 -9.6 -1.4 -9.45 -1.25 -9.25 -1.3 -9.0 -1.35 M-9.25 -1.45 L-9.15 -1.45 -9.05 -1.55 -9.15 -1.55 -9.2 -1.5 -9.3 -1.5 -9.5 -1.55 -9.75 -1.55 -9.8 -1.4 -9.75 -1.25 -9.6 -1.15 -9.4 -1.15 -9.1 -1.2 -8.9 -1.2 Q-8.55 -0.95 -8.6 -0.9 L-8.55 -0.85 -8.5 -0.9 -8.5 -0.85 -8.45 -0.85 -8.3 -1.0 -8.2 -1.05 -8.25 -1.05 -8.2 -1.15 -8.15 -1.2 -8.2 -1.2 -8.1 -1.25 -7.75 -1.25 Q-7.6 -1.3 -7.5 -1.4 L-7.4 -1.6 -7.35 -1.65 -7.3 -1.85 -7.25 -2.0 -6.9 -2.0 -6.8 -2.05 -6.6 -1.9 -6.5 -1.9 -6.15 -1.45 -6.15 -1.4 Q-6.15 -1.25 -6.0 -1.0 L-5.8 -0.75 -5.8 -0.65 -5.75 -0.7 -5.7 -0.75 Q-5.65 -0.8 -5.65 -0.85 L-5.7 -0.95 -5.8 -1.05 -5.8 -1.25 -5.75 -1.4 Q-5.6 -1.6 -5.6 -1.7 -5.6 -1.75 -5.7 -1.8 L-5.9 -1.9 -6.15 -2.05 -6.25 -2.25 -6.4 -2.35 -6.55 -2.3 Q-6.55 -2.25 -6.6 -2.25 L-6.7 -2.25 -6.8 -2.2 -6.8 -2.25 -7.0 -2.25 -7.1 -2.2 -7.1 -2.25 -7.4 -2.1 -7.7 -1.9 Q-7.5 -1.75 -7.5 -1.7 L-7.55 -1.6 -7.6 -1.45 -7.55 -1.45 Q-7.7 -1.3 -7.75 -1.3 L-8.15 -1.3 -8.3 -1.15 -8.25 -1.1 -8.4 -1.0 -8.45 -1.0 -8.45 -0.95 -8.5 -0.9 -8.7 -1.1 Q-8.8 -1.2 -8.9 -1.25 L-9.5 -1.15 Q-9.6 -1.2 -9.65 -1.3 L-9.75 -1.4 -9.7 -1.5 -9.7 -1.55 -9.5 -1.5 -9.35 -1.45 -9.25 -1.45 M-7.25 -3.35 L-7.15 -3.35 -7.1 -3.3 Q-7.05 -3.2 -7.15 -3.15 L-7.15 -3.1 -7.05 -3.15 Q-6.9 -3.15 -6.9 -3.05 -6.9 -3.0 -6.95 -2.95 -7.0 -2.95 -7.1 -2.9 L-7.4 -2.9 -7.5 -3.0 -7.5 -3.05 -7.45 -3.2 -7.45 -3.25 -7.35 -3.35 -7.25 -3.35 M-7.05 -3.05 L-7.35 -3.05 -7.3 -3.15 Q-7.2 -3.2 -7.25 -3.3 L-7.35 -3.2 -7.4 -3.05 -7.4 -3.0 -7.35 -2.95 -7.25 -2.95 -7.3 -3.0 -7.0 -3.05 -7.05 -3.05 M-7.1 -2.2 L-7.3 -2.0 Q-7.4 -1.9 -7.4 -1.7 L-7.4 -1.8 -7.45 -1.7 -7.5 -1.8 -7.6 -1.9 Q-7.6 -1.95 -7.35 -2.1 L-7.2 -2.2 -7.1 -2.2 M-6.65 -2.05 L-6.25 -1.9 Q-5.65 -1.75 -5.65 -1.65 -5.65 -1.6 -5.75 -1.45 L-5.8 -1.35 -5.85 -1.65 -6.2 -1.8 Q-6.45 -1.9 -6.5 -1.95 L-6.65 -2.05 M-6.1 -2.45 L-6.05 -2.35 -6.0 -2.35 -6.0 -2.4 -6.05 -2.5 -6.15 -2.5 -6.1 -2.45 M-6.5 -2.45 L-6.45 -2.5 -6.35 -2.55 -6.5 -2.55 -6.5 -2.45 M-8.45 -0.85 L-8.45 -0.85 M-5.05 -3.6 L-5.05 -3.65 -5.0 -3.65 -5.0 -3.7 -4.85 -3.7 -4.65 -3.6 Q-4.55 -3.5 -4.6 -3.45 -4.55 -3.4 -4.7 -3.3 L-4.75 -3.3 -4.7 -3.25 Q-4.6 -3.2 -4.6 -3.15 -4.6 -3.1 -4.75 -2.95 -4.8 -2.95 -4.85 -2.95 L-4.9 -2.95 -4.95 -2.9 -5.15 -2.95 -5.2 -3.0 -5.2 -3.05 Q-5.2 -3.1 -5.1 -3.1 L-4.95 -3.1 -4.9 -3.15 -4.95 -3.2 -5.0 -3.2 Q-5.1 -3.3 -5.1 -3.35 -5.2 -3.35 -5.15 -3.45 -5.15 -3.55 -5.05 -3.6 M-4.9 -3.6 L-4.95 -3.6 Q-4.75 -3.55 -4.75 -3.45 L-4.95 -3.35 -4.9 -3.25 -4.8 -3.15 -4.8 -3.1 -4.9 -3.05 -4.85 -3.05 Q-4.75 -3.1 -4.75 -3.15 L-4.9 -3.3 Q-4.85 -3.35 -4.8 -3.4 L-4.7 -3.45 -4.75 -3.55 -4.9 -3.6 M-5.0 -3.55 Q-5.1 -3.5 -5.1 -3.4 L-5.05 -3.4 -4.95 -3.55 -5.0 -3.55 M-4.9 -3.45 L-4.9 -3.45 M-5.05 -3.05 L-5.05 -3.0 -4.95 -3.0 -5.05 -3.05 M-5.75 -0.8 L-5.75 -0.8 M-1.9 -1.0 L-1.8 -1.0 -1.75 -0.95 -1.85 -1.0 -1.9 -1.05 -1.95 -1.05 -1.95 -1.0 -2.1 -0.6 -2.1 -0.55 -2.15 -0.45 -2.1 -0.4 -2.0 -0.35 -1.95 -0.35 -1.9 -0.35 -1.85 -0.4 -1.65 -0.4 -1.8 -0.45 -1.9 -0.4 -1.9 -0.35 -1.95 -0.35 -2.05 -0.45 -2.05 -0.5 -2.0 -0.7 -1.95 -0.85 -1.95 -0.9 -1.9 -0.95 -1.9 -1.0 M-1.8 -0.9 L-1.9 -0.75 -1.95 -0.6 -2.0 -0.55 -1.9 -0.5 -1.8 -0.5 -1.6 -0.45 -1.55 -0.45 -1.55 -0.35 -1.65 -0.3 -1.85 -0.3 -1.95 -0.25 Q-2.05 -0.25 -2.15 -0.35 L-2.25 -0.4 -2.25 -0.45 Q-2.25 -0.65 -1.95 -1.1 L-1.7 -1.05 Q-1.6 -1.05 -1.6 -1.0 -1.6 -0.95 -1.65 -0.9 -1.7 -0.9 -1.75 -0.9 L-1.8 -0.9 M-2.45 -0.05 L-2.5 -0.15 Q-2.5 -0.25 -2.4 -0.2 L-2.3 -0.15 -2.2 -0.15 -2.15 -0.1 -2.0 0.0 -1.8 0.15 -1.65 0.35 -1.5 0.4 -1.4 0.55 -1.25 0.7 -1.1 0.6 -1.1 0.45 -1.05 0.4 -0.95 0.4 -0.85 0.45 Q-0.8 0.45 -0.8 0.5 L-0.8 0.6 Q-0.9 0.8 -1.15 0.85 L-1.1 0.85 -1.15 0.95 -1.1 1.1 -1.0 1.25 -0.9 1.2 -0.75 1.05 -0.6 0.95 Q-0.55 0.9 -0.5 0.95 L-0.45 1.0 -0.3 1.0 Q-0.25 1.05 -0.1 1.3 0.0 1.55 0.0 1.65 L-0.1 1.75 -0.3 1.85 -0.4 1.95 Q-0.55 2.0 -0.6 2.0 L-0.8 2.0 -0.85 2.05 -0.9 2.05 -0.9 2.0 -0.95 2.0 -1.0 1.9 -1.1 1.85 -1.1 1.8 -1.25 1.75 -1.25 1.45 -1.55 1.45 Q-1.95 1.4 -2.1 1.3 L-2.2 1.1 -2.2 1.05 -2.25 1.05 -2.25 0.95 -2.2 0.9 -2.1 0.85 -2.0 0.85 -1.95 0.9 -1.75 0.9 Q-1.7 0.9 -1.65 0.9 L-1.6 0.95 Q-1.6 1.05 -1.9 1.05 L-1.95 1.05 -1.85 1.15 Q-1.75 1.25 -1.4 1.25 L-1.35 1.25 -1.45 1.05 -1.6 0.85 -1.8 0.7 -2.05 0.55 -2.1 0.35 -2.1 0.3 -2.15 0.2 Q-2.15 0.1 -2.3 0.05 L-2.4 -0.05 -2.45 -0.05 M-2.1 -0.5 L-2.1 -0.4 Q-2.05 -0.4 -1.95 -0.35 L-2.0 -0.35 Q-2.05 -0.35 -2.1 -0.4 L-2.15 -0.45 -2.1 -0.55 -2.05 -0.6 -2.1 -0.5 M-0.5 -1.15 L-0.5 -1.05 Q-0.5 -0.95 -0.3 -0.85 L-0.25 -0.85 -0.45 -0.95 Q-0.5 -1.0 -0.5 -1.05 L-0.5 -1.1 -0.4 -1.1 -0.4 -1.15 -0.5 -1.15 M-0.1 -0.85 L-0.05 -0.8 0.0 -0.8 -0.05 -0.85 -0.1 -0.85 M-1.2 0.8 Q-1.0 0.75 -0.95 0.55 L-0.95 0.5 -1.0 0.65 Q-1.05 0.7 -1.2 0.8 M-1.45 0.65 Q-1.5 0.55 -1.6 0.45 L-1.8 0.25 Q-1.9 0.15 -2.0 0.1 L-2.15 0.0 -2.45 -0.15 -2.15 0.05 -2.0 0.1 -2.0 0.15 -1.95 0.25 -1.95 0.45 -1.85 0.55 Q-1.45 0.9 -1.4 1.0 L-1.15 1.45 -1.15 1.7 -1.0 1.8 -0.95 1.9 -0.95 1.95 -0.9 1.95 -0.8 1.9 -0.7 1.95 -0.6 1.95 -0.3 1.8 Q-0.1 1.7 -0.1 1.65 L-0.15 1.5 -0.35 1.1 -0.5 1.1 -0.55 1.0 -0.7 1.1 -0.8 1.25 -0.7 1.15 -0.55 1.05 -0.55 1.1 -0.6 1.15 -0.65 1.15 -0.7 1.2 -0.85 1.25 -1.0 1.35 -1.05 1.35 -1.15 1.25 -1.4 0.85 -1.45 0.65 M-1.3 1.45 L-1.25 1.45 -1.25 1.5 -1.3 1.45 M-1.3 1.35 Q-1.85 1.35 -1.95 1.2 L-2.0 1.15 Q-2.05 1.1 -2.1 1.05 L-1.95 1.25 Q-1.85 1.35 -1.5 1.35 L-1.3 1.35 M-1.15 1.45 Q-1.05 1.6 -1.0 1.75 L-1.15 1.65 -1.15 1.45 M-0.85 1.55 L-0.8 1.65 -0.75 1.55 -0.65 1.5 -0.55 1.35 -0.55 1.3 -0.6 1.25 -0.8 1.35 -0.85 1.4 -0.85 1.55 M-1.0 1.35 L-0.6 1.15 -0.55 1.15 Q-0.45 1.3 -0.45 1.4 -0.45 1.45 -0.6 1.6 L-0.8 1.75 -0.85 1.8 -0.85 1.85 -0.9 1.85 -0.95 1.8 -0.95 1.6 Q-0.95 1.5 -1.05 1.35 L-1.0 1.35 M-0.45 1.1 L-0.35 1.3 Q-0.3 1.45 -0.3 1.5 -0.3 1.55 -0.45 1.6 L-0.5 1.65 -0.65 1.7 -0.75 1.75 -0.6 1.6 Q-0.45 1.45 -0.45 1.4 -0.45 1.35 -0.5 1.2 L-0.5 1.1 -0.45 1.1 M-0.1 1.65 L-0.6 1.95 -0.75 1.9 -0.8 1.9 -0.4 1.75 Q-0.2 1.65 -0.2 1.55 -0.2 1.5 -0.25 1.35 L-0.1 1.65 M-1.9 0.95 L-2.1 0.95 -2.15 1.0 -2.1 1.0 -2.1 0.95 -2.0 1.0 -1.9 1.0 -1.75 0.95 -1.9 0.95 M-0.7 1.9 L-0.7 1.9 M-0.65 1.85 L-0.65 1.85 M-0.95 1.8 L-0.9 1.85 -0.9 1.9 -0.95 1.8" fill="#31a800" fill-opacity="0.6" fill-rule="evenodd" stroke="none"/>
      <path d="M2.75 -1.8 Q2.55 -1.85 2.45 -1.95 L2.4 -1.95 2.35 -1.85 2.25 -1.8 2.35 -1.75 2.35 -1.8 2.4 -1.8 2.35 -1.75 2.2 -1.75 2.4 -1.95 2.45 -1.95 2.7 -1.85 2.75 -1.85 3.35 -1.85 3.25 -2.0 3.1 -1.95 2.9 -1.85 2.9 -1.9 3.05 -1.95 3.25 -2.05 3.35 -1.95 3.4 -1.85 3.35 -1.85 3.3 -1.8 2.75 -1.8 M1.3 -2.65 L1.25 -2.7 1.3 -2.7 1.4 -2.6 1.4 -2.5 1.35 -2.6 1.3 -2.65 M0.25 -2.9 L0.2 -2.9 0.15 -2.85 0.25 -2.9 M0.25 -2.05 L0.3 -2.0 0.4 -1.95 0.45 -1.95 0.45 -1.9 0.4 -1.95 Q0.25 -2.0 0.2 -2.05 L0.25 -2.05 M0.95 -0.4 Q1.15 -0.4 1.05 -0.4 1.0 -0.5 0.95 -0.45 0.9 -0.45 0.9 -0.4 L0.95 -0.4 M0.7 -0.35 L0.85 -0.4 0.95 -0.5 1.1 -0.4 1.05 -0.4 0.9 -0.35 Q0.85 -0.35 0.8 -0.3 L0.55 -0.25 0.5 -0.2 0.5 -0.15 0.55 -0.1 0.75 -0.1 0.55 -0.05 0.5 -0.1 Q0.45 -0.15 0.45 -0.2 0.45 -0.25 0.55 -0.25 L0.85 -0.35 0.7 -0.35 M2.4 -1.0 Q2.4 -1.05 2.45 -1.05 L2.5 -1.0 2.5 -0.95 2.45 -1.05 2.45 -1.0 2.4 -1.0 Q2.4 -0.95 2.5 -0.9 L2.6 -0.75 2.55 -0.7 2.6 -0.7 2.5 -0.65 2.45 -0.7 2.5 -0.7 2.55 -0.65 2.55 -0.75 2.5 -0.9 Q2.4 -0.95 2.4 -1.0 M-6.65 -4.15 L-6.7 -4.0 -6.75 -4.0 Q-6.75 -4.1 -6.7 -4.15 L-6.4 -4.2 Q-6.2 -4.35 -5.95 -4.3 -5.75 -4.25 -5.75 -4.1 L-5.85 -4.2 Q-5.9 -4.3 -6.05 -4.3 L-6.2 -4.2 -6.35 -4.15 -6.65 -4.15 M-9.0 -3.5 L-8.75 -3.25 Q-8.55 -3.1 -8.5 -3.1 L-8.35 -3.1 -8.25 -3.15 -8.2 -3.1 Q-8.3 -3.15 -8.35 -3.1 -8.45 -3.0 -8.5 -3.0 -8.55 -3.0 -8.8 -3.25 -8.95 -3.5 -9.1 -3.5 L-9.4 -3.35 -9.65 -3.35 -9.65 -3.2 -9.5 -3.05 -9.5 -2.95 -9.65 -3.15 Q-9.75 -3.2 -9.75 -3.25 -9.7 -3.4 -9.55 -3.4 L-9.35 -3.45 -9.0 -3.5 M-9.55 -2.6 L-9.45 -2.55 -9.6 -2.6 -9.65 -2.55 -9.65 -2.45 -9.7 -2.45 -9.7 -2.55 Q-9.65 -2.6 -9.55 -2.6 M-8.95 -2.0 L-8.95 -1.9 -9.05 -1.85 -8.95 -2.0 M-9.4 -2.1 L-9.55 -2.2 -9.4 -2.15 Q-9.25 -2.05 -9.05 -2.05 L-9.0 -2.05 -9.0 -2.0 -9.25 -2.0 -9.4 -2.1 M-9.25 -1.45 L-9.35 -1.45 -9.5 -1.5 -9.7 -1.55 -9.7 -1.5 -9.75 -1.4 -9.65 -1.3 Q-9.6 -1.2 -9.5 -1.15 L-8.9 -1.25 Q-8.8 -1.2 -8.7 -1.1 L-8.5 -0.9 -8.45 -0.95 -8.45 -1.0 -8.4 -1.0 -8.25 -1.1 -8.3 -1.15 -8.15 -1.3 -7.75 -1.3 Q-7.7 -1.3 -7.55 -1.45 L-7.6 -1.45 -7.55 -1.6 -7.5 -1.7 Q-7.5 -1.75 -7.7 -1.9 L-7.4 -2.1 -7.1 -2.25 -7.1 -2.2 -7.0 -2.25 -6.8 -2.25 -6.8 -2.2 -6.7 -2.25 -6.6 -2.25 Q-6.55 -2.25 -6.55 -2.3 L-6.4 -2.35 -6.25 -2.25 -6.15 -2.05 -5.9 -1.9 -5.7 -1.8 Q-5.6 -1.75 -5.6 -1.7 -5.6 -1.6 -5.75 -1.4 L-5.8 -1.25 -5.8 -1.05 -5.7 -0.95 -5.65 -0.85 Q-5.65 -0.8 -5.7 -0.75 L-5.75 -0.7 -5.8 -0.65 -5.8 -0.75 -6.0 -1.0 Q-6.15 -1.25 -6.15 -1.4 L-6.15 -1.45 -6.5 -1.9 -6.6 -1.9 -6.8 -2.05 -6.9 -2.0 -7.25 -2.0 -7.3 -1.85 -7.35 -1.65 -7.4 -1.6 -7.5 -1.4 Q-7.6 -1.3 -7.75 -1.25 L-8.1 -1.25 -8.2 -1.2 -8.15 -1.2 -8.2 -1.15 -8.25 -1.05 -8.2 -1.05 -8.3 -1.0 -8.45 -0.85 -8.5 -0.85 -8.5 -0.9 -8.55 -0.85 -8.6 -0.9 Q-8.55 -0.95 -8.9 -1.2 L-9.1 -1.2 -9.4 -1.15 -9.6 -1.15 -9.75 -1.25 -9.8 -1.4 -9.75 -1.55 -9.5 -1.55 -9.3 -1.5 -9.2 -1.5 -9.15 -1.55 -9.05 -1.55 -9.15 -1.45 -9.25 -1.45 M-8.45 -0.85 L-8.45 -0.85 M-6.5 -2.45 L-6.5 -2.55 -6.35 -2.55 -6.45 -2.5 -6.5 -2.45 M-6.1 -2.45 L-6.15 -2.5 -6.05 -2.5 -6.0 -2.4 -6.0 -2.35 -6.05 -2.35 -6.1 -2.45 M-6.65 -2.05 L-6.5 -1.95 Q-6.45 -1.9 -6.2 -1.8 L-5.85 -1.65 -5.8 -1.35 -5.75 -1.45 Q-5.65 -1.6 -5.65 -1.65 -5.65 -1.75 -6.25 -1.9 L-6.65 -2.05 M-7.1 -2.2 L-7.2 -2.2 -7.35 -2.1 Q-7.6 -1.95 -7.6 -1.9 L-7.5 -1.8 -7.45 -1.7 -7.4 -1.8 -7.4 -1.7 Q-7.4 -1.9 -7.3 -2.0 L-7.1 -2.2 M-7.05 -3.05 L-7.0 -3.05 -7.3 -3.0 -7.25 -2.95 -7.35 -2.95 -7.4 -3.0 -7.4 -3.05 -7.35 -3.2 -7.25 -3.3 Q-7.2 -3.2 -7.3 -3.15 L-7.35 -3.05 -7.05 -3.05 M-5.0 -3.55 L-4.95 -3.55 -5.05 -3.4 -5.1 -3.4 Q-5.1 -3.5 -5.0 -3.55 M-4.9 -3.6 L-4.75 -3.55 -4.7 -3.45 -4.8 -3.4 Q-4.85 -3.35 -4.9 -3.3 L-4.75 -3.15 Q-4.75 -3.1 -4.85 -3.05 L-4.9 -3.05 -4.8 -3.1 -4.8 -3.15 -4.9 -3.25 -4.95 -3.35 -4.75 -3.45 Q-4.75 -3.55 -4.95 -3.6 L-4.9 -3.6 M-5.05 -3.05 L-4.95 -3.0 -5.05 -3.0 -5.05 -3.05 M-1.9 -1.05 L-1.85 -1.0 -1.75 -0.95 -1.8 -1.0 -1.9 -1.0 -1.9 -0.95 -1.95 -0.9 -1.95 -0.85 -2.0 -0.7 -2.05 -0.5 -2.05 -0.45 -1.95 -0.35 -1.9 -0.35 -1.9 -0.4 -1.8 -0.45 -1.65 -0.4 -1.85 -0.4 -1.9 -0.35 -1.95 -0.35 -2.0 -0.35 -2.1 -0.4 -2.15 -0.45 -2.1 -0.55 -2.1 -0.6 -2.0 -0.9 -1.95 -1.0 -1.95 -1.05 -1.9 -1.05 M-5.75 -0.8 L-5.75 -0.8 M-2.1 -0.5 L-2.05 -0.6 -2.1 -0.55 -2.15 -0.45 -2.1 -0.4 Q-2.05 -0.35 -2.0 -0.35 L-1.95 -0.35 Q-2.05 -0.4 -2.1 -0.4 L-2.1 -0.5 M-1.45 0.65 L-1.4 0.85 -1.15 1.25 -1.05 1.35 -1.0 1.35 -0.85 1.25 -0.7 1.2 -0.65 1.15 -0.6 1.15 -0.55 1.1 -0.55 1.05 -0.7 1.15 -0.8 1.25 -0.7 1.1 -0.55 1.0 -0.5 1.1 -0.35 1.1 -0.15 1.5 -0.1 1.65 Q-0.1 1.7 -0.3 1.8 L-0.6 1.95 -0.7 1.95 -0.8 1.9 -0.9 1.95 -0.95 1.95 -0.95 1.9 -1.0 1.8 -1.15 1.7 -1.15 1.45 -1.4 1.0 Q-1.45 0.9 -1.85 0.55 L-1.95 0.45 -1.95 0.25 -2.0 0.15 -2.0 0.1 -2.15 0.05 -2.45 -0.15 -2.15 0.0 -2.0 0.1 Q-1.9 0.15 -1.8 0.25 L-1.6 0.45 Q-1.5 0.55 -1.45 0.65 M-1.2 0.8 Q-1.05 0.7 -1.0 0.65 L-0.95 0.5 -0.95 0.55 Q-1.0 0.75 -1.2 0.8 M-0.1 -0.85 L-0.05 -0.85 0.0 -0.8 -0.05 -0.8 -0.1 -0.85 M-0.5 -1.15 L-0.4 -1.15 -0.4 -1.1 -0.5 -1.1 -0.5 -1.05 Q-0.5 -1.0 -0.45 -0.95 L-0.25 -0.85 -0.3 -0.85 Q-0.5 -0.95 -0.5 -1.05 L-0.5 -1.15 M-1.15 1.45 L-1.15 1.65 -1.0 1.75 Q-1.05 1.6 -1.15 1.45 M-1.3 1.35 L-1.5 1.35 Q-1.85 1.35 -1.95 1.25 L-2.1 1.05 Q-2.05 1.1 -2.0 1.15 L-1.95 1.2 Q-1.85 1.35 -1.3 1.35 M-1.0 1.35 L-1.05 1.35 Q-0.95 1.5 -0.95 1.6 L-0.95 1.8 -0.9 1.85 -0.85 1.85 -0.85 1.8 -0.8 1.75 -0.6 1.6 Q-0.45 1.45 -0.45 1.4 -0.45 1.3 -0.55 1.15 L-0.6 1.15 -1.0 1.35 M-1.9 0.95 L-1.75 0.95 -1.9 1.0 -2.0 1.0 -2.1 0.95 -2.1 1.0 -2.15 1.0 -2.1 0.95 -1.9 0.95 M-0.1 1.65 L-0.25 1.35 Q-0.2 1.5 -0.2 1.55 -0.2 1.65 -0.4 1.75 L-0.8 1.9 -0.75 1.9 -0.6 1.95 -0.1 1.65 M-0.45 1.1 L-0.5 1.1 -0.5 1.2 Q-0.45 1.35 -0.45 1.4 -0.45 1.45 -0.6 1.6 L-0.75 1.75 -0.65 1.7 -0.5 1.65 -0.45 1.6 Q-0.3 1.55 -0.3 1.5 -0.3 1.45 -0.35 1.3 L-0.45 1.1 M-0.95 1.8 L-0.9 1.9 -0.9 1.85 -0.95 1.8" fill="#262626" fill-opacity="0.8" fill-rule="evenodd" stroke="none"/>
      <path d="M5.75 -2.4 L5.75 -2.55 5.8 -2.6 5.9 -2.65 Q6.05 -2.8 6.15 -2.7 L6.25 -2.6 6.25 -2.5 6.35 -2.45 6.4 -2.45 Q6.45 -2.4 6.45 -2.35 L6.4 -2.2 Q6.3 -2.1 6.25 -2.1 6.15 -2.1 6.2 -2.2 6.2 -2.3 6.15 -2.3 L6.1 -2.25 6.05 -2.25 Q5.95 -2.25 5.95 -2.35 L5.8 -2.35 Q5.75 -2.35 5.75 -2.4 M8.2 -3.9 L8.25 -3.9 Q8.4 -3.9 8.4 -3.75 L8.4 -3.6 8.35 -3.6 8.3 -3.55 8.2 -3.6 8.15 -3.6 8.1 -3.7 8.1 -3.8 Q8.1 -3.85 8.2 -3.9 M8.2 -3.8 L8.25 -3.8 8.2 -3.7 8.3 -3.65 8.3 -3.7 8.2 -3.7 8.25 -3.75 8.25 -3.8 8.2 -3.8 M8.2 -2.7 Q8.3 -2.7 8.3 -2.65 L8.3 -2.55 8.25 -2.55 8.25 -2.5 8.15 -2.5 8.1 -2.45 7.95 -2.45 7.9 -2.5 7.9 -2.6 Q7.9 -2.7 8.0 -2.75 L8.05 -2.75 8.2 -2.7 M7.3 -3.35 Q7.3 -3.25 7.25 -3.2 L7.2 -3.15 7.1 -3.15 Q7.05 -3.15 7.0 -3.2 L7.0 -3.4 7.05 -3.4 7.15 -3.5 7.2 -3.5 7.2 -3.45 7.3 -3.35 M8.15 -2.55 L8.2 -2.6 8.1 -2.6 8.0 -2.65 8.0 -2.6 8.05 -2.6 8.15 -2.55 M8.45 -1.85 L8.6 -1.9 Q8.65 -1.9 8.7 -1.85 8.8 -1.75 8.75 -1.65 L8.7 -1.65 8.65 -1.6 8.6 -1.6 8.65 -1.55 Q8.65 -1.45 8.55 -1.35 L8.45 -1.3 8.4 -1.25 8.25 -1.25 8.2 -1.35 8.2 -1.45 8.25 -1.5 8.3 -1.5 8.4 -1.55 8.4 -1.7 Q8.4 -1.75 8.45 -1.85 M7.2 -3.35 L7.2 -3.4 7.15 -3.4 7.15 -3.35 7.2 -3.35 7.2 -3.3 7.1 -3.35 7.1 -3.25 7.15 -3.25 7.1 -3.3 7.2 -3.3 7.2 -3.35 M8.6 -1.8 L8.5 -1.8 8.5 -1.45 Q8.45 -1.4 8.4 -1.4 L8.3 -1.45 8.3 -1.35 8.35 -1.35 8.35 -1.4 Q8.4 -1.4 8.45 -1.45 L8.55 -1.55 8.5 -1.6 8.5 -1.75 8.6 -1.8 8.65 -1.7 Q8.65 -1.75 8.6 -1.8 M6.25 -2.4 L6.2 -2.4 6.25 -2.35 6.25 -2.4 6.1 -2.45 6.15 -2.5 6.15 -2.55 Q6.15 -2.7 6.0 -2.6 5.85 -2.55 5.85 -2.5 L5.85 -2.45 6.05 -2.45 6.0 -2.4 Q6.0 -2.35 6.05 -2.3 L6.1 -2.3 6.05 -2.35 6.05 -2.45 6.1 -2.45 6.25 -2.4 6.35 -2.35 6.3 -2.25 6.25 -2.25 6.25 -2.2 6.25 -2.15 6.3 -2.15 6.35 -2.25 6.35 -2.35 6.25 -2.4 M6.3 -2.25 L6.3 -2.25 M6.15 -2.6 L6.15 -2.55 6.1 -2.45 5.9 -2.45 5.85 -2.5 6.1 -2.6 6.15 -2.6 M6.4 -1.85 L6.55 -1.8 6.6 -1.8 6.6 -1.75 Q6.6 -1.7 6.55 -1.6 L6.4 -1.55 6.4 -1.6 6.35 -1.55 6.35 -1.5 6.3 -1.45 6.25 -1.45 6.2 -1.5 6.15 -1.6 Q6.15 -1.65 6.2 -1.7 L6.3 -1.75 6.3 -1.8 6.4 -1.85 M6.5 -1.75 L6.45 -1.7 6.35 -1.7 6.25 -1.65 6.2 -1.6 Q6.25 -1.55 6.3 -1.55 L6.3 -1.6 6.25 -1.6 6.3 -1.65 6.4 -1.65 6.5 -1.75 6.5 -1.75 M7.95 -0.7 L8.0 -0.75 8.1 -0.8 Q8.15 -0.8 8.2 -0.75 L8.25 -0.65 Q8.25 -0.6 8.15 -0.45 L8.1 -0.4 8.0 -0.4 7.9 -0.5 7.5 -0.5 Q7.35 -0.5 7.35 -0.6 L7.3 -0.65 7.35 -0.75 7.35 -0.8 7.4 -0.8 7.5 -0.75 7.6 -0.75 7.7 -0.7 7.95 -0.7 M7.45 -0.7 L7.4 -0.7 7.45 -0.65 Q7.45 -0.6 7.55 -0.6 L7.85 -0.55 8.0 -0.6 8.1 -0.65 8.15 -0.65 8.1 -0.6 8.1 -0.55 8.05 -0.5 8.15 -0.65 8.1 -0.7 8.0 -0.65 7.55 -0.6 7.5 -0.6 7.45 -0.65 7.6 -0.65 7.45 -0.7 M9.75 -0.15 L9.85 -0.2 9.9 -0.25 10.0 -0.4 Q10.05 -0.5 10.05 -0.65 10.05 -0.8 10.25 -1.0 10.4 -1.1 10.65 -1.2 L10.7 -1.25 10.9 -1.25 10.9 -1.2 Q11.1 -0.95 11.15 -0.75 L11.25 -0.5 11.3 -0.4 11.3 -0.3 Q11.3 -0.25 11.3 -0.2 L11.25 0.0 11.25 0.05 11.2 0.25 11.15 0.3 11.0 0.3 11.0 0.2 11.05 0.0 11.0 -0.05 11.05 -0.1 11.05 -0.15 11.0 -0.25 11.0 -0.3 10.95 -0.4 10.75 -0.65 10.65 -0.6 10.6 -0.4 10.4 -0.25 10.25 -0.1 10.25 -0.15 Q10.2 0.05 10.0 0.2 L9.95 0.25 9.9 0.25 Q9.85 0.35 9.85 0.45 L9.9 0.65 9.8 0.85 Q9.75 1.0 9.75 1.05 L9.75 1.1 9.65 1.35 9.55 1.5 9.55 1.55 9.5 1.55 9.5 1.6 Q9.45 1.7 9.4 1.75 L9.35 1.8 9.3 1.8 9.2 1.85 9.2 2.1 9.15 2.15 9.05 2.15 8.85 1.95 8.7 1.9 8.35 1.9 8.25 1.75 8.25 1.4 8.2 1.4 8.15 1.3 8.15 1.25 8.2 1.15 8.2 1.1 8.3 1.0 8.35 1.0 Q8.5 0.95 8.55 1.0 L8.6 1.0 8.75 0.95 8.9 0.8 9.1 0.8 9.15 0.85 9.25 1.15 9.3 1.15 9.35 1.1 9.55 1.1 9.5 0.85 Q9.45 0.65 9.45 0.45 L9.4 0.4 9.4 0.35 9.45 0.05 9.45 0.0 9.5 0.0 9.75 -0.15 M10.4 -0.7 L10.35 -0.5 10.4 -0.55 10.4 -0.7 M10.0 -0.2 L10.0 -0.15 10.1 -0.3 Q10.2 -0.5 10.2 -0.6 10.2 -0.75 10.35 -0.9 L10.7 -1.1 10.55 -1.0 Q10.4 -0.9 10.4 -0.85 L10.4 -0.65 10.35 -0.5 10.35 -0.45 10.15 -0.25 10.0 -0.2 9.95 -0.15 Q9.9 -0.1 9.8 -0.05 L9.55 0.05 9.5 0.35 9.5 0.4 9.55 0.4 Q9.55 0.6 9.6 0.8 L9.65 1.1 9.55 1.25 9.5 1.3 9.5 1.25 9.5 1.4 9.45 1.45 9.55 1.3 9.65 1.1 9.65 1.0 9.7 0.8 9.8 0.65 9.75 0.45 Q9.75 0.35 9.85 0.2 L9.9 0.1 Q10.1 0.0 10.15 -0.15 L10.3 -0.3 10.5 -0.45 10.55 -0.6 Q10.6 -0.75 10.75 -0.75 L10.85 -0.75 Q10.85 -0.7 11.0 -0.45 L11.1 -0.3 11.15 -0.15 11.15 0.0 11.15 -0.2 Q11.2 -0.3 11.2 -0.35 L11.15 -0.5 Q11.1 -0.6 11.05 -0.7 11.0 -0.9 10.85 -1.15 L10.8 -1.15 10.7 -1.1 Q10.45 -1.05 10.3 -0.9 10.15 -0.75 10.2 -0.6 10.15 -0.45 10.05 -0.35 L10.0 -0.2 M15.6 -4.6 Q15.65 -4.8 15.85 -4.8 L16.05 -4.75 16.1 -4.75 16.1 -4.7 16.2 -4.6 16.25 -4.5 16.3 -4.45 16.45 -4.45 16.5 -4.4 16.5 -4.3 Q16.55 -4.15 16.35 -4.05 L16.3 -4.05 16.1 -3.95 16.05 -3.95 Q15.95 -3.9 15.9 -3.95 L15.85 -4.05 Q15.85 -4.15 16.1 -4.25 L16.15 -4.25 16.05 -4.35 15.95 -4.55 15.8 -4.55 15.75 -4.4 15.6 -4.05 15.4 -4.05 15.3 -4.15 15.35 -4.2 15.55 -4.45 15.6 -4.6 M15.65 -4.4 Q15.75 -4.65 15.8 -4.65 L16.05 -4.6 16.15 -4.35 16.4 -4.3 16.35 -4.25 16.15 -4.15 Q15.95 -4.1 15.95 -4.05 L16.0 -4.0 16.0 -4.05 16.3 -4.15 Q16.4 -4.2 16.4 -4.3 L16.4 -4.35 16.3 -4.4 16.2 -4.4 16.1 -4.55 16.05 -4.7 15.85 -4.7 Q15.75 -4.7 15.7 -4.6 L15.65 -4.4 15.4 -4.15 15.55 -4.15 15.65 -4.4 M14.55 -4.05 L14.45 -3.95 14.4 -3.95 14.35 -3.9 14.4 -3.75 14.4 -3.7 14.35 -3.7 14.3 -3.65 14.25 -3.65 14.15 -3.75 Q14.1 -3.8 14.1 -3.9 14.1 -4.0 14.2 -4.1 14.35 -4.25 14.5 -4.15 L14.55 -4.1 14.55 -4.05 M13.3 -5.6 Q13.45 -5.5 13.45 -5.45 L13.45 -5.4 13.5 -5.4 13.55 -5.35 13.55 -5.25 Q13.55 -5.15 13.5 -5.1 L13.4 -5.05 13.35 -5.0 13.2 -5.0 13.1 -5.1 Q13.05 -5.15 13.05 -5.25 L13.1 -5.35 13.1 -5.4 Q13.05 -5.4 13.0 -5.45 L13.0 -5.5 Q13.0 -5.55 13.05 -5.6 L13.3 -5.6 M13.35 -5.45 L13.25 -5.5 13.1 -5.55 13.1 -5.5 13.25 -5.45 13.3 -5.45 13.2 -5.3 13.15 -5.25 Q13.15 -5.2 13.2 -5.15 L13.25 -5.1 13.35 -5.1 13.45 -5.15 13.45 -5.35 13.4 -5.2 Q13.4 -5.15 13.25 -5.15 L13.25 -5.2 13.2 -5.25 13.25 -5.35 13.35 -5.45 M12.45 -4.55 Q12.6 -4.45 12.6 -4.3 12.6 -4.15 12.5 -4.05 L12.45 -4.0 12.4 -4.0 Q12.35 -4.0 12.2 -4.1 L12.15 -4.15 12.15 -4.2 12.2 -4.3 12.35 -4.3 12.3 -4.35 12.1 -4.5 12.05 -4.55 12.2 -4.7 12.25 -4.7 Q12.45 -4.7 12.45 -4.65 L12.45 -4.55 M12.25 -4.6 L12.15 -4.55 12.35 -4.4 12.45 -4.25 12.45 -4.2 12.25 -4.2 12.4 -4.1 Q12.5 -4.2 12.5 -4.3 12.5 -4.45 12.25 -4.55 L12.35 -4.6 12.25 -4.6 M14.45 -4.05 Q14.35 -4.1 14.3 -4.05 14.2 -4.0 14.2 -3.9 14.2 -3.85 14.25 -3.8 L14.25 -3.9 14.35 -4.0 14.45 -4.05 M14.45 -3.6 L14.5 -3.6 Q14.6 -3.6 14.65 -3.5 L14.65 -3.45 Q14.65 -3.35 14.55 -3.35 L14.45 -3.35 14.35 -3.45 14.35 -3.55 14.4 -3.6 14.45 -3.6 M12.8 -1.9 L12.9 -1.9 12.9 -1.85 12.95 -1.85 13.15 -1.65 13.15 -1.45 13.2 -1.45 13.25 -1.55 13.45 -1.5 13.55 -1.5 13.7 -1.55 14.3 -1.85 14.5 -1.85 14.55 -1.8 Q14.55 -1.75 14.4 -1.65 L14.35 -1.65 Q14.3 -1.6 14.25 -1.55 14.15 -1.5 13.9 -1.4 13.75 -1.2 13.65 -1.2 L13.5 -1.2 13.25 -1.1 12.85 -1.0 12.75 -1.05 12.6 -1.15 12.3 -1.4 Q12.25 -1.4 12.25 -1.45 L12.3 -1.5 12.3 -1.65 12.4 -1.85 12.45 -2.0 12.5 -2.05 12.5 -2.1 12.55 -2.1 12.55 -2.35 12.4 -2.45 Q12.35 -2.5 12.35 -2.6 12.35 -2.65 12.4 -2.7 L12.45 -2.7 12.45 -2.75 12.5 -2.85 12.65 -2.85 12.7 -2.8 12.7 -2.7 13.25 -2.6 13.3 -2.6 13.7 -2.75 13.8 -2.75 14.05 -2.9 14.35 -3.0 14.5 -2.9 14.6 -2.85 14.7 -2.9 14.75 -2.85 14.9 -2.85 15.1 -2.6 15.15 -2.45 Q15.25 -2.3 15.25 -2.2 L15.2 -2.05 15.15 -2.0 15.05 -1.8 15.05 -1.65 Q15.05 -1.55 14.95 -1.5 L14.9 -1.5 Q14.75 -1.55 14.75 -1.75 L14.8 -1.85 14.8 -1.9 14.95 -2.15 14.95 -2.2 14.85 -2.4 Q14.75 -2.55 14.75 -2.6 L14.65 -2.55 14.6 -2.5 14.5 -2.45 Q14.25 -2.35 14.1 -2.3 L13.25 -2.25 12.85 -2.25 Q12.85 -2.0 12.8 -1.9 L12.75 -2.15 12.75 -2.2 12.8 -2.3 13.3 -2.3 13.45 -2.35 Q14.05 -2.4 14.35 -2.55 L14.55 -2.6 14.65 -2.6 14.6 -2.65 14.8 -2.75 14.95 -2.45 15.1 -2.2 15.0 -2.0 Q14.85 -1.8 14.85 -1.7 L14.85 -1.65 14.9 -1.6 14.95 -1.65 Q14.9 -1.8 15.0 -1.95 15.15 -2.1 15.15 -2.2 L15.05 -2.35 14.95 -2.55 14.85 -2.7 Q14.8 -2.8 14.65 -2.75 L14.55 -2.7 14.5 -2.7 14.35 -2.85 14.2 -2.9 13.75 -2.65 13.6 -2.6 13.7 -2.65 13.35 -2.55 13.3 -2.5 13.25 -2.5 13.2 -2.45 12.9 -2.45 12.8 -2.5 12.95 -2.5 12.85 -2.55 12.45 -2.6 Q12.45 -2.65 12.45 -2.55 L12.55 -2.5 Q12.65 -2.4 12.7 -2.25 L12.5 -1.85 12.35 -1.45 Q12.35 -1.4 12.45 -1.35 L12.45 -1.3 12.6 -1.2 12.55 -1.25 Q12.7 -1.2 12.85 -1.1 L13.0 -1.1 13.4 -1.25 13.6 -1.25 Q13.8 -1.3 13.95 -1.5 L14.45 -1.8 13.8 -1.5 13.2 -1.25 13.3 -1.35 13.55 -1.4 13.3 -1.4 13.2 -1.35 13.1 -1.25 Q13.05 -1.25 13.05 -1.3 L13.05 -1.45 Q13.1 -1.55 13.05 -1.65 12.95 -1.75 12.85 -1.8 L12.8 -1.8 12.8 -1.9 M14.85 -1.7 L14.85 -1.7 M14.35 -2.7 L14.3 -2.75 13.85 -2.6 13.8 -2.55 13.85 -2.55 14.25 -2.65 14.35 -2.7 M14.35 -2.6 L14.2 -2.5 13.4 -2.4 13.1 -2.35 13.4 -2.5 13.6 -2.55 13.75 -2.6 14.0 -2.75 Q14.2 -2.85 14.35 -2.85 L14.5 -2.7 14.5 -2.65 14.45 -2.65 14.4 -2.6 14.35 -2.6 M13.05 -2.45 L13.05 -2.45 M12.75 -1.6 L12.8 -1.7 12.8 -1.8 12.95 -1.7 13.05 -1.55 13.0 -1.35 Q13.0 -1.25 13.05 -1.2 L12.95 -1.2 12.85 -1.35 Q12.75 -1.5 12.75 -1.6 M12.6 -2.75 L12.6 -2.75 M16.25 -2.05 L16.2 -2.0 16.05 -2.0 16.05 -1.95 16.15 -1.95 16.25 -2.0 16.25 -1.85 Q16.2 -1.8 16.1 -1.8 L16.0 -1.8 15.85 -1.95 15.6 -2.0 15.4 -1.7 15.4 -1.8 Q15.35 -1.8 15.35 -1.65 L15.4 -1.65 15.4 -1.6 Q15.45 -1.65 15.55 -1.8 L15.65 -1.95 15.85 -1.95 15.95 -1.8 16.05 -1.75 16.15 -1.75 Q16.2 -1.75 16.25 -1.8 L16.25 -1.85 16.3 -1.95 16.3 -2.0 16.25 -2.05 M16.15 -2.1 L16.35 -2.1 16.4 -2.0 16.4 -1.95 16.35 -1.85 16.35 -1.75 Q16.3 -1.65 16.15 -1.65 L16.0 -1.65 15.95 -1.7 15.9 -1.7 15.8 -1.85 15.7 -1.85 15.65 -1.75 Q15.55 -1.55 15.45 -1.5 L15.35 -1.5 15.3 -1.55 15.3 -1.6 15.25 -1.6 15.25 -1.65 Q15.25 -1.9 15.4 -1.9 L15.5 -2.05 15.55 -2.1 15.6 -2.1 15.85 -2.05 15.95 -2.05 15.95 -2.0 16.05 -2.1 16.15 -2.1 M14.55 -3.45 Q14.5 -3.5 14.45 -3.5 L14.5 -3.45 14.55 -3.45 M15.25 -1.5 L15.3 -1.5 15.3 -1.3 15.25 -1.3 15.2 -1.25 15.15 -1.25 15.1 -1.3 15.05 -1.45 Q15.05 -1.55 15.15 -1.55 L15.2 -1.55 15.25 -1.5 M10.05 0.0 L10.0 0.0 10.1 -0.15 Q10.1 -0.05 10.05 0.0 M9.85 0.15 L9.85 0.2 9.75 0.3 9.75 0.65 9.7 0.8 9.65 1.0 9.6 0.85 9.55 0.45 9.55 0.35 Q9.6 0.25 9.8 0.2 L9.85 0.15 M15.2 -1.35 L15.2 -1.45 15.15 -1.45 15.15 -1.35 15.2 -1.35 M9.1 1.3 L9.15 1.25 9.05 1.25 9.0 1.05 8.85 1.1 8.65 1.25 8.6 1.25 8.45 1.2 8.4 1.2 8.45 1.25 8.5 1.4 8.45 1.65 8.45 1.7 8.7 1.7 8.75 1.65 Q8.85 1.65 8.95 1.75 L9.0 1.75 Q9.05 1.65 9.25 1.6 L9.35 1.5 9.35 1.45 9.4 1.4 9.3 1.4 9.35 1.45 9.25 1.55 9.15 1.55 Q9.1 1.5 9.1 1.4 L9.1 1.3 M9.15 1.15 L9.05 0.9 9.0 0.9 8.8 1.0 8.65 1.1 8.5 1.1 8.35 1.05 8.25 1.25 8.25 1.3 8.35 1.35 8.4 1.4 8.35 1.65 8.4 1.4 8.35 1.3 8.25 1.3 Q8.3 1.15 8.4 1.1 L8.5 1.1 8.65 1.15 8.8 1.05 8.95 0.9 9.05 0.9 9.1 1.05 9.15 1.15 M9.35 1.25 L9.4 1.25 9.35 1.2 9.25 1.3 9.2 1.4 9.2 1.45 9.25 1.45 Q9.2 1.4 9.25 1.35 L9.35 1.25 M8.8 1.8 L8.8 1.8 M9.3 1.7 L9.3 1.7 Q9.15 1.7 9.1 1.8 L9.05 1.95 9.0 1.9 8.9 1.85 8.9 1.8 Q8.8 1.75 8.75 1.75 L8.45 1.8 8.7 1.8 8.85 1.9 Q9.0 1.9 9.05 2.0 L9.1 2.05 9.1 1.8 Q9.15 1.75 9.25 1.75 L9.3 1.7" fill="#31a800" fill-opacity="0.6" fill-rule="evenodd" stroke="none"/>
      <path d="M8.2 -3.8 L8.25 -3.8 8.25 -3.75 8.2 -3.7 8.3 -3.7 8.3 -3.65 8.2 -3.7 8.25 -3.8 8.2 -3.8 M8.15 -2.55 L8.05 -2.6 8.0 -2.6 8.0 -2.65 8.1 -2.6 8.2 -2.6 8.15 -2.55 M8.6 -1.8 Q8.65 -1.75 8.65 -1.7 L8.6 -1.8 8.5 -1.75 8.5 -1.6 8.55 -1.55 8.45 -1.45 Q8.4 -1.4 8.35 -1.4 L8.35 -1.35 8.3 -1.35 8.3 -1.45 8.4 -1.4 Q8.45 -1.4 8.5 -1.45 L8.5 -1.8 8.6 -1.8 M7.2 -3.35 L7.2 -3.3 7.1 -3.3 7.15 -3.25 7.1 -3.25 7.1 -3.35 7.2 -3.3 7.2 -3.35 7.15 -3.35 7.15 -3.4 7.2 -3.4 7.2 -3.35 M6.25 -2.4 L6.1 -2.45 6.05 -2.45 6.05 -2.35 6.1 -2.3 6.05 -2.3 Q6.0 -2.35 6.0 -2.4 L6.05 -2.45 5.85 -2.45 5.85 -2.5 Q5.85 -2.55 6.0 -2.6 6.15 -2.7 6.15 -2.55 L6.15 -2.5 6.1 -2.45 6.25 -2.4 6.35 -2.35 6.35 -2.25 6.3 -2.15 6.25 -2.15 6.25 -2.2 6.3 -2.25 6.3 -2.25 6.35 -2.35 6.25 -2.4 M6.15 -2.6 L6.1 -2.6 5.85 -2.5 5.9 -2.45 6.1 -2.45 6.15 -2.55 6.15 -2.6 M6.3 -2.25 L6.3 -2.25 M6.5 -1.75 L6.5 -1.75 6.4 -1.65 6.3 -1.65 6.25 -1.6 6.3 -1.6 6.3 -1.55 Q6.25 -1.55 6.2 -1.6 L6.25 -1.65 6.35 -1.7 6.45 -1.7 6.5 -1.75 M7.45 -0.7 L7.6 -0.65 7.45 -0.65 7.5 -0.6 7.55 -0.6 8.0 -0.65 8.1 -0.7 8.15 -0.65 8.05 -0.5 8.1 -0.55 8.1 -0.6 8.15 -0.65 8.1 -0.65 8.0 -0.6 7.85 -0.55 7.55 -0.6 Q7.45 -0.6 7.45 -0.65 L7.4 -0.7 7.45 -0.7 M9.95 -0.15 L10.0 -0.2 10.05 -0.35 Q10.15 -0.45 10.2 -0.6 10.15 -0.75 10.3 -0.9 10.45 -1.05 10.7 -1.1 L10.8 -1.15 10.85 -1.15 Q11.0 -0.9 11.05 -0.7 11.1 -0.6 11.15 -0.5 L11.2 -0.35 Q11.2 -0.3 11.15 -0.2 L11.15 0.0 11.15 -0.15 11.1 -0.3 11.0 -0.45 Q10.85 -0.7 10.85 -0.75 L10.75 -0.75 Q10.6 -0.75 10.55 -0.6 L10.5 -0.45 10.3 -0.3 10.15 -0.15 Q10.1 0.0 9.9 0.1 L9.85 0.2 Q9.75 0.35 9.75 0.45 L9.8 0.65 9.7 0.8 9.65 1.0 9.65 1.1 9.55 1.3 9.45 1.45 9.5 1.4 9.5 1.25 9.5 1.3 9.55 1.25 9.65 1.1 9.6 0.8 Q9.55 0.6 9.55 0.4 L9.5 0.4 9.5 0.35 9.55 0.05 9.8 -0.05 Q9.9 -0.1 9.95 -0.15 M10.0 -0.2 L10.15 -0.25 10.35 -0.45 10.35 -0.5 10.4 -0.65 10.4 -0.85 Q10.4 -0.9 10.55 -1.0 L10.7 -1.1 10.35 -0.9 Q10.2 -0.75 10.2 -0.6 10.2 -0.5 10.1 -0.3 L10.0 -0.15 10.0 -0.2 M10.4 -0.7 L10.4 -0.55 10.35 -0.5 10.4 -0.7 M15.65 -4.4 L15.55 -4.15 15.4 -4.15 15.65 -4.4 15.7 -4.6 Q15.75 -4.7 15.85 -4.7 L16.05 -4.7 16.1 -4.55 16.2 -4.4 16.3 -4.4 16.4 -4.35 16.4 -4.3 Q16.4 -4.2 16.3 -4.15 L16.0 -4.05 16.0 -4.0 15.95 -4.05 Q15.95 -4.1 16.15 -4.15 L16.35 -4.25 16.4 -4.3 16.15 -4.35 16.05 -4.6 15.8 -4.65 Q15.75 -4.65 15.65 -4.4 M13.35 -5.45 L13.25 -5.35 13.2 -5.25 13.25 -5.2 13.25 -5.15 Q13.4 -5.15 13.4 -5.2 L13.45 -5.35 13.45 -5.15 13.35 -5.1 13.25 -5.1 13.2 -5.15 Q13.15 -5.2 13.15 -5.25 L13.2 -5.3 13.3 -5.45 13.25 -5.45 13.1 -5.5 13.1 -5.55 13.25 -5.5 13.35 -5.45 M12.25 -4.6 L12.35 -4.6 12.25 -4.55 Q12.5 -4.45 12.5 -4.3 12.5 -4.2 12.4 -4.1 L12.25 -4.2 12.45 -4.2 12.45 -4.25 12.35 -4.4 12.15 -4.55 12.25 -4.6 M14.45 -4.05 L14.35 -4.0 14.25 -3.9 14.25 -3.8 Q14.2 -3.85 14.2 -3.9 14.2 -4.0 14.3 -4.05 14.35 -4.1 14.45 -4.05 M12.8 -1.9 L12.8 -1.8 12.85 -1.8 Q12.95 -1.75 13.05 -1.65 13.1 -1.55 13.05 -1.45 L13.05 -1.3 Q13.05 -1.25 13.1 -1.25 L13.2 -1.35 13.3 -1.4 13.55 -1.4 13.3 -1.35 13.2 -1.25 13.8 -1.5 14.45 -1.8 13.95 -1.5 Q13.8 -1.3 13.6 -1.25 L13.4 -1.25 13.0 -1.1 12.85 -1.1 Q12.7 -1.2 12.55 -1.25 L12.45 -1.35 Q12.35 -1.4 12.35 -1.45 L12.5 -1.85 12.7 -2.25 Q12.65 -2.4 12.55 -2.5 L12.45 -2.55 Q12.45 -2.65 12.45 -2.6 L12.85 -2.55 12.95 -2.5 12.8 -2.5 12.9 -2.45 13.2 -2.45 13.25 -2.5 13.3 -2.5 13.35 -2.55 13.7 -2.65 13.6 -2.6 13.75 -2.65 14.2 -2.9 14.35 -2.85 14.5 -2.7 14.55 -2.7 14.65 -2.75 Q14.8 -2.8 14.85 -2.7 L14.95 -2.55 15.05 -2.35 15.15 -2.2 Q15.15 -2.1 15.0 -1.95 14.9 -1.8 14.95 -1.65 L14.9 -1.6 14.85 -1.65 14.85 -1.7 Q14.85 -1.8 15.0 -2.0 L15.1 -2.2 14.95 -2.45 14.8 -2.75 14.6 -2.65 14.65 -2.6 14.55 -2.6 14.35 -2.55 Q14.05 -2.4 13.45 -2.35 L13.3 -2.3 12.8 -2.3 12.75 -2.2 12.75 -2.15 12.8 -1.9 M14.4 -2.6 L14.45 -2.65 14.5 -2.65 14.5 -2.7 14.35 -2.85 Q14.2 -2.85 14.0 -2.75 L13.75 -2.6 13.6 -2.55 13.4 -2.5 13.1 -2.35 13.4 -2.4 14.2 -2.5 14.35 -2.6 14.4 -2.6 M12.6 -2.75 L12.6 -2.75 M12.75 -1.6 Q12.75 -1.5 12.85 -1.35 L12.95 -1.2 13.05 -1.2 Q13.0 -1.25 13.0 -1.35 L13.05 -1.55 12.95 -1.7 12.8 -1.8 12.8 -1.7 12.75 -1.6 M16.25 -2.05 L16.3 -2.0 16.3 -1.95 16.25 -1.85 16.25 -1.8 Q16.2 -1.75 16.15 -1.75 L16.05 -1.75 15.95 -1.8 15.85 -1.95 15.65 -1.95 15.55 -1.8 Q15.45 -1.65 15.4 -1.6 L15.4 -1.65 15.35 -1.65 Q15.35 -1.8 15.4 -1.8 L15.4 -1.7 15.6 -2.0 15.85 -1.95 16.0 -1.8 16.1 -1.8 Q16.2 -1.8 16.25 -1.85 L16.25 -2.0 16.15 -1.95 16.05 -1.95 16.05 -2.0 16.2 -2.0 16.25 -2.05 M14.55 -3.45 L14.5 -3.45 14.45 -3.5 Q14.5 -3.5 14.55 -3.45 M15.2 -1.35 L15.15 -1.35 15.15 -1.45 15.2 -1.45 15.2 -1.35 M9.85 0.15 L9.8 0.2 Q9.6 0.25 9.55 0.35 L9.55 0.45 9.6 0.85 9.65 1.0 9.7 0.8 9.75 0.65 9.75 0.3 9.85 0.2 9.85 0.15 M10.05 0.0 Q10.1 -0.05 10.1 -0.15 L10.0 0.0 10.05 0.0 M9.35 1.25 L9.25 1.35 Q9.2 1.4 9.25 1.45 L9.2 1.45 9.2 1.4 9.25 1.3 9.35 1.2 9.4 1.25 9.35 1.25 M9.15 1.15 L9.1 1.05 9.05 0.9 8.95 0.9 8.8 1.05 8.65 1.15 8.5 1.1 8.4 1.1 Q8.3 1.15 8.25 1.3 L8.35 1.3 8.4 1.4 8.35 1.65 8.4 1.4 8.35 1.35 8.25 1.3 8.25 1.25 8.35 1.05 8.5 1.1 8.65 1.1 8.8 1.0 9.0 0.9 9.05 0.9 9.15 1.15 M9.25 1.75 Q9.15 1.75 9.1 1.8 L9.1 2.05 9.05 2.0 Q9.0 1.9 8.85 1.9 L8.7 1.8 8.45 1.8 8.75 1.75 Q8.8 1.75 8.9 1.8 L8.9 1.85 9.0 1.9 9.05 1.95 9.1 1.8 Q9.15 1.7 9.3 1.7 L9.25 1.75 M9.3 1.7 L9.3 1.7 M8.8 1.8 L8.8 1.8" fill="#262626" fill-opacity="0.8" fill-rule="evenodd" stroke="none"/>
    </g>
    <g id="shape1" transform="matrix(1.0, 0.0, 0.0, 1.0, 10.8, 2.85)">
      <path d="M11.45 -1.0 L11.5 -1.15 11.5 -1.2 Q11.8 -1.4 12.45 -1.55 12.95 -1.65 13.1 -1.45 L13.3 -1.4 Q13.4 -1.3 13.55 -1.3 L13.7 -1.15 13.55 -1.15 13.45 -1.1 13.55 -0.95 13.7 -0.9 13.75 -0.85 13.95 -0.85 14.05 -0.9 14.05 -0.95 14.0 -1.05 14.05 -1.05 14.1 -1.1 14.25 -1.1 Q14.5 -1.1 14.7 -0.9 L14.95 -0.6 14.95 -0.3 Q15.0 -0.1 15.2 -0.1 15.35 0.05 15.4 0.15 L15.4 0.4 15.3 0.9 15.15 1.1 Q15.0 1.25 14.95 1.25 L14.9 1.2 Q14.8 1.2 14.65 1.35 14.55 1.45 14.55 1.5 14.55 1.7 14.65 1.85 L14.6 1.85 14.7 1.9 14.8 1.9 14.9 1.85 15.05 1.75 Q15.1 1.75 15.1 1.8 15.15 1.85 15.15 1.95 L15.3 2.1 Q15.3 2.3 15.1 2.4 14.9 2.65 14.4 2.7 L14.3 2.7 14.3 2.65 14.4 2.45 14.35 2.4 Q14.3 2.35 14.15 2.3 L14.1 2.3 14.1 2.15 14.15 2.05 14.15 1.95 14.1 1.9 13.9 1.8 Q13.7 1.8 13.65 1.85 L13.45 1.85 Q13.4 1.8 13.4 1.75 13.0 1.8 12.8 1.9 L12.5 2.1 12.55 2.1 12.6 2.15 Q12.6 2.3 12.45 2.4 L12.1 2.5 11.95 2.6 11.9 2.6 11.85 2.55 11.9 2.45 11.95 2.4 11.85 2.3 11.2 2.3 Q11.05 2.15 11.1 2.1 L11.1 2.05 10.95 2.05 10.8 2.1 10.35 2.15 Q10.15 2.35 9.95 2.3 9.75 2.4 9.75 2.45 L9.8 2.55 Q9.8 2.7 9.55 2.7 9.2 2.8 8.9 2.95 L8.85 2.95 8.85 2.9 8.9 2.8 8.85 2.75 8.75 2.7 8.5 2.65 8.45 2.55 8.4 2.5 8.3 2.5 Q8.25 2.45 8.2 2.25 8.2 2.15 8.0 2.15 7.6 2.15 7.5 2.2 L7.4 2.25 Q7.4 2.3 7.45 2.3 L7.45 2.35 7.4 2.45 Q7.3 2.55 7.15 2.6 L7.1 2.6 Q7.1 2.65 6.9 2.85 6.5 2.9 6.35 3.05 6.3 3.15 6.35 3.25 6.15 3.3 6.0 3.35 L5.85 3.45 5.8 3.4 5.9 3.3 6.0 3.15 Q6.0 3.1 5.95 3.0 L5.85 2.8 Q5.85 2.65 5.95 2.55 6.15 2.4 6.55 2.3 L6.85 2.35 6.8 2.4 6.8 2.45 6.85 2.45 6.95 2.5 7.0 2.6 7.05 2.55 7.05 2.5 Q7.05 2.3 7.15 2.25 L7.3 2.2 7.35 2.15 7.35 1.9 7.3 1.75 7.2 1.75 7.15 1.7 7.1 1.6 7.05 1.55 Q7.05 1.45 7.35 1.25 7.55 1.1 7.7 1.15 L7.95 1.2 8.15 1.25 8.3 1.25 8.4 1.35 Q8.5 1.4 8.5 1.5 8.6 1.65 8.75 1.7 8.8 1.7 8.8 1.8 L8.75 2.05 Q8.8 2.05 8.8 2.1 L8.9 2.05 9.15 2.0 Q9.25 1.8 9.25 1.7 L9.2 1.6 9.2 1.5 Q9.15 1.5 9.1 1.55 L9.0 1.35 Q9.0 1.25 9.3 1.05 9.65 0.85 10.0 0.9 10.35 0.9 10.5 1.1 10.65 1.25 10.6 1.35 L10.7 1.4 10.7 1.5 10.65 1.7 10.9 1.7 Q11.1 1.7 11.25 1.6 L11.45 1.5 11.3 1.45 Q11.25 1.45 11.2 1.4 11.15 1.3 11.15 1.2 L11.15 1.05 Q11.2 1.0 11.3 0.85 L11.4 0.8 11.65 0.75 11.75 0.75 Q11.8 0.75 11.85 0.65 L11.9 0.55 11.9 0.5 11.95 0.5 11.95 0.25 12.05 0.05 Q12.05 -0.1 11.9 -0.2 L11.75 -0.35 11.6 -0.45 Q11.4 -0.55 11.35 -0.85 L11.45 -1.0 M16.25 -0.25 L16.15 -0.25 16.15 -0.35 Q16.15 -0.5 16.2 -0.55 L16.45 -0.75 16.8 -0.7 16.95 -0.65 Q17.1 -0.65 17.25 -0.8 17.4 -0.9 17.4 -1.0 L17.3 -1.1 17.55 -1.25 17.8 -1.35 18.2 -1.3 18.15 -1.4 Q18.05 -1.55 18.05 -1.7 18.05 -1.85 18.15 -2.1 L18.35 -2.25 18.4 -2.35 18.4 -2.4 18.5 -2.5 Q18.65 -2.65 18.85 -2.7 19.3 -2.9 19.65 -2.8 19.8 -2.9 20.05 -2.75 L20.35 -2.4 20.3 -2.35 20.25 -2.35 20.25 -2.3 20.35 -2.1 20.45 -1.85 20.6 -1.8 20.75 -1.8 Q20.75 -1.85 20.8 -1.85 L20.85 -1.85 Q20.9 -1.8 20.95 -1.8 21.15 -1.55 21.15 -1.1 21.15 -0.85 20.95 -0.5 20.55 -0.05 20.5 0.1 20.45 0.1 20.45 0.0 L20.35 0.0 20.35 -0.1 Q20.35 -0.15 20.45 -0.2 L20.45 -0.25 20.25 -0.3 Q19.95 -0.2 19.85 -0.15 19.75 -0.05 19.75 0.1 19.75 0.2 19.65 0.25 L19.45 0.4 Q19.4 0.4 19.35 0.5 L19.35 0.55 19.25 0.75 19.15 0.8 19.2 0.85 19.35 0.85 19.35 0.9 Q19.35 1.05 19.15 1.25 18.95 1.45 18.75 1.45 L18.75 1.35 18.6 1.25 18.65 1.2 18.7 1.05 18.5 1.05 18.4 1.1 18.25 1.0 18.2 0.95 18.15 0.85 Q17.4 0.95 17.15 1.4 L17.0 1.7 Q16.85 1.8 16.6 1.8 L16.4 1.8 16.3 1.7 16.35 1.65 16.35 1.6 16.2 1.65 15.95 1.85 Q15.9 1.9 15.8 1.9 L15.6 2.0 Q15.55 2.0 15.5 1.95 L15.85 1.6 Q16.0 1.45 16.0 1.25 L16.0 1.15 Q15.95 1.05 15.85 1.1 15.75 1.1 15.75 1.05 L15.95 0.8 Q16.05 0.7 16.35 0.65 16.55 0.7 16.6 0.8 16.65 0.85 16.65 1.0 L16.7 1.05 16.85 0.9 16.85 0.75 16.8 0.65 16.75 0.5 16.85 0.2 Q16.85 0.05 16.75 -0.1 16.6 -0.3 16.25 -0.25 M19.4 -1.15 L19.4 -1.05 19.35 -1.0 Q19.35 -0.95 19.3 -0.95 L19.2 -0.9 18.95 -0.9 Q19.0 -0.85 19.05 -0.55 L19.1 -0.25 19.0 -0.05 18.95 0.0 19.1 0.0 Q19.25 0.0 19.45 -0.3 19.75 -0.6 19.75 -0.75 19.75 -0.85 19.65 -1.0 19.55 -1.15 19.4 -1.15 M4.8 3.0 L4.75 2.95 4.75 2.9 4.9 2.95 4.95 2.95 4.9 3.0 4.8 3.0 M5.35 3.1 L5.25 3.1 5.25 2.95 5.35 2.95 Q5.4 2.95 5.45 3.0 5.4 3.1 5.35 3.1 M0.95 2.5 L1.0 2.45 1.3 2.45 1.4 2.6 1.4 2.65 1.5 2.65 1.45 2.75 1.35 2.75 1.35 2.65 1.3 2.7 1.1 2.75 1.05 2.8 0.95 2.95 0.9 2.8 0.85 2.75 Q0.85 2.7 0.9 2.6 L0.95 2.5 M1.25 2.65 L1.25 2.6 1.2 2.65 1.25 2.65 M1.05 3.0 L1.1 3.1 1.05 3.15 Q1.0 3.15 1.0 3.05 L1.05 3.0 M2.15 2.9 L2.3 2.9 2.4 2.95 2.4 3.0 2.55 3.0 2.55 3.15 2.45 3.2 Q2.35 3.2 2.3 3.15 L2.15 3.15 Q2.05 3.2 2.1 3.25 L2.15 3.35 2.1 3.4 2.05 3.4 1.95 3.2 Q1.95 3.1 2.05 3.05 L2.1 3.05 2.1 2.9 2.15 2.9 M1.6 2.8 L1.6 2.85 1.5 2.75 Q1.5 2.7 1.55 2.7 1.6 2.7 1.6 2.8 M2.3 3.45 L2.25 3.5 2.2 3.45 2.3 3.45 M-9.6 -2.4 L-9.45 -2.45 Q-8.75 -2.45 -8.6 -2.05 L-8.5 -1.85 Q-8.45 -1.75 -8.25 -1.8 -8.25 -1.75 -8.3 -1.7 L-8.3 -1.6 -8.2 -1.5 -8.15 -1.55 Q-8.05 -1.5 -8.0 -1.4 -7.95 -1.4 -7.95 -1.25 -7.95 -1.15 -8.0 -1.0 L-7.55 -1.0 Q-7.45 -0.95 -7.3 -0.8 L-7.15 -0.6 -7.05 -0.55 Q-6.95 -0.75 -6.7 -0.85 -6.35 -1.0 -6.3 -1.1 L-5.95 -1.05 Q-5.1 -0.95 -5.1 -0.55 -5.05 -0.55 -5.0 -0.4 L-4.9 -0.5 Q-4.8 -0.4 -4.75 -0.25 L-4.75 -0.05 Q-4.75 0.2 -4.8 0.25 L-5.05 0.6 -5.25 0.6 Q-5.35 0.65 -5.4 0.7 L-5.5 0.85 -5.4 1.0 -5.35 1.1 -5.35 0.8 -5.25 0.8 -5.1 0.75 -5.0 0.75 -4.95 0.85 -4.95 0.8 Q-4.95 0.7 -4.85 0.5 L-4.8 0.5 -4.8 0.45 Q-4.6 0.35 -4.5 0.3 L-4.45 0.35 -4.35 0.4 -4.3 0.4 Q-4.15 0.4 -4.15 0.0 -4.15 -0.15 -4.2 -0.2 L-4.25 -0.3 -4.4 -0.3 -4.4 -0.4 Q-4.4 -0.45 -4.25 -0.6 L-3.8 -1.05 -3.5 -1.15 -3.15 -1.25 Q-2.9 -1.35 -2.7 -1.25 -2.4 -1.15 -2.25 -1.05 L-2.05 -0.85 -1.85 -0.85 -1.85 -0.9 Q-1.7 -0.85 -1.55 -0.6 L-1.35 -0.3 -1.3 -0.25 Q-1.25 -0.15 -1.2 0.1 L-1.2 0.7 Q-1.2 0.9 -1.3 1.1 L-1.4 1.2 -1.5 1.4 Q-1.65 1.55 -1.9 1.6 L-1.85 1.65 Q-1.75 1.7 -1.75 1.8 L-1.7 1.85 -1.7 1.9 -1.85 2.0 -1.9 2.25 -1.85 2.4 Q-1.8 2.5 -1.65 2.55 L-1.75 2.5 -1.85 2.6 Q-1.9 2.65 -2.0 2.65 L-2.2 2.65 Q-2.3 2.6 -2.35 2.5 L-2.4 2.35 Q-2.4 2.2 -2.65 2.1 L-2.75 2.15 -2.8 2.15 -3.0 2.1 Q-3.15 2.0 -3.5 2.0 L-3.6 1.85 -3.65 1.75 -3.8 1.7 -3.9 1.6 -4.0 1.45 -4.05 1.55 -4.3 1.5 Q-4.3 1.65 -4.35 1.7 L-4.45 1.6 Q-4.55 1.5 -4.7 1.45 -4.75 1.35 -4.85 1.2 L-4.9 1.2 -4.9 1.1 -5.0 1.0 Q-5.1 1.0 -5.15 1.1 L-5.15 1.25 -5.2 1.2 -5.3 1.2 -5.35 1.15 -5.4 1.25 Q-5.45 1.35 -5.55 1.35 L-5.75 1.15 -5.85 1.15 -5.85 1.3 -5.8 1.35 Q-5.8 1.45 -5.9 1.55 L-6.2 1.75 -6.15 1.85 -6.05 1.95 Q-6.05 2.0 -6.15 2.0 L-6.25 1.95 -6.3 1.95 Q-6.4 1.95 -6.45 1.9 L-6.5 1.75 -6.55 1.65 Q-6.55 1.6 -6.6 1.55 L-6.9 1.55 Q-7.05 1.5 -7.1 1.3 L-7.2 1.05 -7.2 1.0 -7.35 0.85 -7.4 0.9 -7.4 1.0 Q-7.4 1.1 -7.45 1.2 L-7.55 1.3 -7.85 1.35 Q-7.95 1.4 -8.0 1.45 -8.1 1.5 -8.1 1.65 L-8.5 1.65 -8.6 1.55 -8.6 1.5 Q-8.75 1.4 -8.75 1.3 L-8.75 1.25 -8.8 1.25 -8.8 1.2 Q-8.8 1.1 -8.75 1.0 -8.7 0.9 -8.65 0.85 L-8.6 0.8 -8.5 0.75 Q-8.6 0.55 -8.75 0.45 -8.95 0.3 -8.95 0.15 L-8.95 0.1 -9.1 0.15 -9.4 0.1 -9.45 0.05 Q-9.6 0.05 -9.65 -0.05 -9.7 -0.15 -9.7 -0.25 L-9.65 -0.55 Q-9.6 -0.65 -9.45 -0.7 L-9.55 -0.8 -9.55 -0.75 -9.7 -0.75 -9.75 -0.8 -9.85 -0.8 Q-10.0 -1.0 -9.95 -1.25 L-10.1 -1.15 -10.15 -1.1 -10.15 -1.0 -10.0 -1.0 Q-9.9 -0.9 -9.9 -0.8 L-9.95 -0.6 Q-10.0 -0.55 -10.1 -0.45 L-10.2 -0.35 Q-10.35 -0.15 -10.3 -0.1 L-10.35 -0.05 -10.4 -0.3 Q-10.45 -0.45 -10.6 -0.45 L-10.65 -0.5 -10.7 -0.65 -10.7 -0.85 -10.8 -1.05 Q-10.8 -1.15 -10.6 -1.6 L-10.2 -1.8 Q-10.0 -1.85 -10.0 -2.0 L-10.0 -2.05 -10.05 -2.1 -9.95 -2.2 Q-9.9 -2.3 -9.8 -2.3 L-9.6 -2.4 M-10.15 -0.05 L-10.05 0.05 -10.0 0.2 -9.95 0.25 -9.9 0.35 Q-9.9 0.4 -9.95 0.4 L-9.95 0.35 Q-10.2 0.35 -10.25 0.25 -10.3 0.2 -10.3 0.1 L-10.25 -0.05 -10.15 -0.15 -10.1 -0.15 -10.15 -0.1 -10.15 -0.05 M-7.1 0.0 L-7.15 -0.05 -7.25 -0.05 -7.3 0.0 -7.35 0.0 -7.4 0.05 -7.65 0.05 -7.65 0.25 -7.55 0.3 -7.5 0.25 Q-7.45 0.2 -7.4 0.2 L-7.15 0.2 -7.15 0.15 -7.1 0.1 -7.1 0.0 M-2.7 1.1 L-2.9 1.1 Q-3.0 1.2 -3.0 1.25 -3.0 1.35 -2.9 1.4 L-2.7 1.45 -2.7 1.5 -2.85 1.7 -2.9 1.8 -2.9 1.9 -2.8 1.9 -2.8 1.95 -2.75 1.9 Q-2.75 1.8 -2.65 1.75 L-2.5 1.6 Q-2.65 1.55 -2.7 1.4 -2.7 1.3 -2.65 1.15 L-2.7 1.1 M-1.65 2.55 L-1.5 2.5 -1.25 2.45 -1.15 2.35 -1.1 2.45 -1.0 2.55 -1.05 2.7 Q-1.1 2.75 -1.25 2.8 L-1.4 2.75 -1.45 2.65 -1.65 2.6 -1.65 2.55 M-0.85 2.05 L-0.85 2.1 -0.9 2.2 -0.95 2.25 -1.05 2.25 Q-1.1 2.3 -1.1 2.2 -1.1 2.1 -1.0 2.1 L-0.85 2.05 M-5.3 1.3 L-5.3 1.35 -5.25 1.4 -5.25 1.45 -5.2 1.5 -5.25 1.65 -5.35 1.75 -5.55 1.8 -5.6 1.8 -5.7 1.7 Q-5.7 1.65 -5.6 1.6 L-5.45 1.5 -5.4 1.4 -5.4 1.3 -5.3 1.3 M-2.95 1.85 L-2.95 1.85 M-9.2 0.8 L-9.2 0.8 M-8.75 0.7 L-8.8 0.8 -8.8 0.85 Q-9.05 0.85 -9.15 0.9 L-9.25 1.05 -9.25 0.9 Q-9.25 0.5 -9.0 0.55 -8.95 0.6 -8.9 0.65 L-8.8 0.65 -8.75 0.7 M-9.65 0.4 L-9.8 0.25 Q-9.7 0.25 -9.65 0.3 L-9.6 0.35 -9.65 0.4" fill="#c1ff3f" fill-rule="evenodd" stroke="none"/>
      <path d="M19.55 -1.15 L19.55 -1.1 19.4 -1.15 19.4 -1.05 19.35 -1.0 Q19.35 -0.95 19.3 -0.95 L19.2 -0.9 18.95 -0.9 Q19.0 -0.85 19.05 -0.55 L19.1 -0.25 19.0 -0.05 18.95 0.0 19.1 0.0 Q19.25 0.0 19.45 -0.3 L19.6 -0.45 Q19.7 -0.45 19.75 -0.6 19.85 -0.7 19.85 -0.8 L19.8 -1.05 Q19.75 -1.2 19.55 -1.15 M17.35 -0.85 L17.3 -0.85 17.4 -0.95 17.35 -0.85 M16.25 -0.3 L16.55 -0.35 16.75 -0.25 16.95 -0.3 16.95 -0.25 Q17.0 -0.2 17.1 -0.2 17.4 -0.2 17.75 -0.5 L17.95 -0.7 Q18.2 -0.95 18.2 -1.2 L18.15 -1.3 18.2 -1.3 18.15 -1.4 18.1 -1.45 Q18.4 -1.4 18.4 -1.35 L18.4 -1.3 18.5 -1.3 Q18.7 -1.3 18.85 -1.4 19.0 -1.45 19.15 -1.55 19.35 -1.75 19.35 -1.9 L19.35 -1.95 Q19.5 -2.2 19.5 -2.35 L19.5 -2.55 Q19.45 -2.7 19.3 -2.75 L19.55 -2.8 19.65 -2.8 19.7 -2.85 19.75 -2.85 20.05 -2.75 20.35 -2.4 20.3 -2.35 20.25 -2.35 20.25 -2.3 20.35 -2.1 20.45 -1.85 20.5 -1.8 20.65 -1.7 Q20.75 -1.65 21.1 -1.55 21.15 -1.4 21.15 -1.1 21.15 -0.85 20.95 -0.5 L20.55 0.05 20.55 -0.05 Q20.55 -0.15 20.45 -0.25 L20.4 -0.25 20.25 -0.3 Q19.95 -0.2 19.85 -0.15 19.75 -0.05 19.75 0.1 19.75 0.2 19.65 0.25 L19.45 0.4 Q19.4 0.4 19.35 0.5 L19.35 0.55 19.25 0.75 19.15 0.8 19.2 0.85 19.35 0.85 19.35 0.9 Q19.35 1.05 19.15 1.25 18.95 1.45 18.75 1.45 L18.75 1.35 18.6 1.25 18.65 1.2 18.7 1.05 18.5 1.05 18.4 1.1 18.25 1.0 18.2 0.95 18.15 0.85 Q17.4 0.95 17.15 1.4 L17.0 1.7 Q16.85 1.8 16.6 1.8 L16.4 1.8 16.3 1.7 16.35 1.65 16.35 1.6 16.2 1.65 15.95 1.85 Q15.9 1.9 15.8 1.9 L15.6 2.0 Q15.55 2.0 15.5 1.95 L15.85 1.6 Q16.0 1.45 16.0 1.25 L16.0 1.15 16.1 1.25 16.2 1.25 16.3 1.0 Q16.4 0.8 16.45 0.8 L16.6 0.8 Q16.65 0.85 16.65 1.0 L16.7 1.05 16.85 0.9 16.85 0.75 16.8 0.65 16.75 0.5 16.85 0.2 Q16.85 0.05 16.75 -0.1 16.6 -0.3 16.25 -0.25 L16.15 -0.25 16.15 -0.3 16.25 -0.3 M17.3 -1.1 L17.35 -1.1 17.35 -1.0 17.3 -1.1 M14.05 -1.05 L14.1 -0.9 14.1 -0.85 13.5 -0.85 13.4 -0.9 13.35 -0.9 13.25 -1.1 13.25 -1.15 13.3 -1.15 13.4 -1.2 13.65 -1.15 13.55 -1.15 13.45 -1.1 13.55 -0.95 13.7 -0.9 13.75 -0.85 13.95 -0.85 14.05 -0.9 14.05 -0.95 14.0 -1.05 14.05 -1.05 M11.45 -1.0 L11.45 -0.9 Q11.45 -0.85 11.55 -0.8 L11.8 -0.7 Q11.95 -0.6 12.4 -0.6 L13.8 -0.6 14.05 -0.55 14.15 -0.5 Q14.25 -0.35 14.45 -0.35 14.65 -0.35 14.75 -0.5 14.85 -0.6 14.85 -0.7 L14.95 -0.6 14.95 -0.3 Q14.95 -0.2 15.05 -0.1 14.95 -0.1 14.95 0.0 L15.0 0.1 15.15 0.25 15.2 0.4 Q15.2 0.45 15.25 0.55 L15.4 0.35 15.4 0.4 15.3 0.9 15.15 1.1 Q15.0 1.25 14.95 1.25 L14.9 1.2 Q14.8 1.2 14.65 1.35 14.55 1.45 14.55 1.5 14.55 1.7 14.65 1.85 L14.6 1.85 14.7 1.9 14.8 1.9 14.9 2.0 Q15.0 2.0 15.1 1.8 15.15 1.85 15.15 1.95 L15.3 2.1 Q15.3 2.3 15.1 2.4 14.9 2.65 14.4 2.7 L14.3 2.7 14.3 2.65 14.4 2.45 14.35 2.4 Q14.3 2.35 14.15 2.3 L14.1 2.3 14.1 2.15 14.15 2.05 14.15 1.95 14.1 1.9 13.9 1.8 Q13.7 1.8 13.65 1.85 L13.45 1.85 Q13.4 1.8 13.4 1.75 13.0 1.8 12.8 1.9 L12.5 2.1 12.55 2.1 12.6 2.15 Q12.6 2.3 12.45 2.4 L12.1 2.5 11.95 2.6 11.9 2.6 11.85 2.55 11.9 2.45 11.95 2.4 11.85 2.3 11.2 2.3 Q11.05 2.15 11.1 2.1 L11.1 2.05 10.95 2.05 10.8 2.1 10.35 2.15 Q10.15 2.35 9.95 2.3 9.75 2.4 9.75 2.45 L9.8 2.55 Q9.8 2.7 9.55 2.7 9.2 2.8 8.9 2.95 L8.85 2.95 8.85 2.9 8.9 2.8 8.85 2.75 8.75 2.7 8.5 2.65 8.45 2.55 8.4 2.5 8.3 2.5 Q8.25 2.45 8.2 2.25 8.2 2.15 8.0 2.15 7.6 2.15 7.5 2.2 L7.4 2.25 Q7.4 2.3 7.45 2.3 L7.45 2.35 7.4 2.45 Q7.3 2.55 7.15 2.6 L7.1 2.6 Q7.1 2.65 6.9 2.85 6.5 2.9 6.35 3.05 6.3 3.15 6.35 3.25 6.15 3.3 6.0 3.35 L5.85 3.45 5.8 3.4 5.9 3.3 6.0 3.15 Q6.0 3.1 5.95 3.0 L5.85 2.8 5.95 2.85 6.05 2.85 6.35 2.65 6.4 2.65 6.45 2.7 6.7 2.65 Q6.9 2.65 7.0 2.55 L7.0 2.6 7.05 2.55 7.05 2.4 7.25 2.4 Q7.3 2.35 7.3 2.3 L7.3 2.2 7.35 2.15 7.35 1.9 7.3 1.75 7.2 1.75 7.15 1.7 7.1 1.6 7.15 1.65 7.4 1.65 7.4 1.7 7.65 1.75 Q7.95 1.75 8.15 1.65 L8.2 1.6 8.4 1.65 8.5 1.7 Q8.6 1.7 8.65 1.65 L8.75 1.7 Q8.8 1.7 8.8 1.8 L8.75 2.05 Q8.8 2.05 8.8 2.1 L8.9 2.15 9.1 2.15 Q9.2 2.15 9.3 2.05 9.4 2.0 9.4 1.9 L9.2 1.9 9.25 1.7 9.3 1.65 Q9.45 1.6 9.95 1.55 L10.0 1.55 Q10.25 1.5 10.5 1.35 L10.6 1.25 10.6 1.35 10.7 1.4 10.7 1.5 10.65 1.7 10.9 1.7 Q11.1 1.7 11.25 1.6 L11.45 1.5 11.3 1.45 Q11.25 1.45 11.2 1.4 L11.15 1.2 11.3 1.3 Q11.65 1.2 11.8 1.1 11.95 1.0 11.95 0.85 11.95 0.75 11.85 0.7 L11.85 0.65 11.9 0.55 11.9 0.5 11.95 0.5 11.95 0.25 12.05 0.05 Q12.05 -0.1 11.9 -0.2 L11.75 -0.35 11.6 -0.45 Q11.4 -0.55 11.35 -0.85 L11.45 -1.0 M6.75 2.4 L6.85 2.35 6.8 2.4 6.75 2.4 M4.8 3.0 L4.75 2.95 4.75 2.9 4.9 2.95 4.95 2.95 4.9 3.0 4.8 3.0 M5.45 3.0 Q5.4 3.1 5.35 3.1 L5.25 3.1 5.25 2.95 5.35 2.95 Q5.4 2.95 5.45 3.0 M0.9 2.6 L0.9 2.7 1.0 2.75 Q1.1 2.75 1.25 2.65 L1.25 2.6 1.3 2.6 1.25 2.5 1.2 2.45 1.3 2.45 1.4 2.6 1.4 2.65 1.5 2.65 1.45 2.75 1.35 2.75 1.35 2.65 1.3 2.7 1.1 2.75 1.05 2.8 0.95 2.95 0.9 2.8 0.85 2.75 Q0.85 2.7 0.9 2.6 M1.05 3.0 L1.1 3.1 1.05 3.15 Q1.0 3.15 1.0 3.05 L1.05 3.0 M2.05 3.05 L2.15 3.05 Q2.3 3.05 2.4 3.0 L2.55 3.0 2.55 3.15 2.45 3.2 Q2.35 3.2 2.3 3.15 L2.15 3.15 Q2.05 3.2 2.1 3.25 L2.15 3.35 2.1 3.4 2.05 3.4 1.95 3.2 Q1.95 3.1 2.05 3.05 M1.55 2.7 Q1.6 2.7 1.6 2.8 L1.6 2.85 1.5 2.75 Q1.5 2.7 1.55 2.7 M2.3 3.45 L2.25 3.5 2.2 3.45 2.3 3.45 M-9.45 -1.9 L-8.6 -1.9 -8.5 -1.7 -8.3 -1.7 -8.3 -1.5 -8.35 -1.4 -8.25 -1.25 -8.15 -1.2 -7.95 -1.2 -8.0 -1.0 -7.8 -1.0 Q-8.0 -1.0 -8.1 -0.95 -8.2 -0.85 -8.15 -0.75 -8.45 -0.9 -8.7 -0.55 -8.95 -0.2 -8.95 -0.1 L-8.9 0.0 -8.9 0.15 Q-8.9 0.3 -8.75 0.3 L-8.65 0.3 -8.6 0.25 -8.6 0.2 -8.4 -0.1 Q-8.2 -0.2 -7.9 -0.2 -7.8 -0.2 -7.75 -0.3 L-7.7 -0.45 -7.45 -0.55 -7.05 -0.55 -7.1 -0.3 -7.1 0.3 Q-7.1 0.4 -7.05 0.45 L-7.05 0.55 -7.0 0.6 -6.4 0.1 -6.2 -0.05 -5.85 -0.2 -5.35 -0.45 Q-5.25 -0.5 -5.25 -0.7 -5.25 -0.8 -5.3 -0.85 -5.1 -0.75 -5.1 -0.55 -5.05 -0.55 -5.0 -0.4 L-5.0 -0.25 Q-4.95 -0.15 -4.8 -0.15 L-4.75 -0.15 -4.75 -0.05 Q-4.75 0.2 -4.8 0.25 L-5.05 0.6 -5.25 0.6 Q-5.35 0.65 -5.4 0.7 L-5.5 0.85 -5.4 1.0 -5.35 1.1 -5.35 0.8 -5.25 0.8 -5.1 0.75 -5.0 0.75 -4.95 0.85 -4.95 0.8 Q-4.95 0.7 -4.9 0.6 L-4.9 0.8 Q-4.85 0.9 -4.75 0.9 -4.6 0.9 -4.45 0.7 -4.3 0.55 -4.3 0.45 L-4.3 0.4 Q-4.15 0.4 -4.15 0.0 -4.15 -0.15 -4.2 -0.2 L-4.25 -0.25 -4.15 -0.2 -3.9 0.05 -3.9 0.1 -3.85 0.1 -3.85 0.35 -3.8 0.45 -3.7 0.6 -3.55 0.6 Q-3.4 0.55 -3.3 0.4 L-3.15 0.2 Q-2.95 0.05 -2.95 0.0 -2.95 -0.15 -3.15 -0.15 L-3.3 -0.1 Q-2.85 -0.3 -2.55 -0.45 L-2.35 -0.55 -2.0 -0.65 -1.95 -0.65 -1.6 -0.55 -1.55 -0.6 -1.35 -0.3 -1.3 -0.25 Q-1.25 -0.15 -1.2 0.1 L-1.2 0.7 Q-1.2 0.9 -1.3 1.1 L-1.4 1.2 -1.5 1.4 Q-1.65 1.55 -1.9 1.6 L-1.85 1.65 Q-1.75 1.7 -1.75 1.8 L-1.7 1.85 -1.7 1.9 -1.85 2.0 -1.9 2.25 -1.85 2.4 Q-1.8 2.5 -1.65 2.55 L-1.75 2.5 -1.85 2.6 Q-1.9 2.65 -2.0 2.65 L-2.2 2.65 Q-2.3 2.6 -2.35 2.5 L-2.4 2.35 Q-2.4 2.2 -2.65 2.1 L-2.75 2.15 -2.8 2.15 -3.0 2.1 Q-3.15 2.0 -3.5 2.0 L-3.6 1.85 -3.65 1.75 -3.8 1.7 -3.9 1.6 -4.0 1.45 -4.05 1.55 -4.3 1.5 Q-4.3 1.65 -4.35 1.7 L-4.45 1.6 Q-4.55 1.5 -4.7 1.45 -4.75 1.35 -4.85 1.2 L-4.9 1.2 -4.9 1.1 -5.0 1.0 Q-5.1 1.0 -5.15 1.1 L-5.15 1.25 -5.2 1.2 -5.3 1.2 -5.35 1.15 -5.4 1.25 Q-5.45 1.35 -5.55 1.35 L-5.75 1.15 -5.85 1.15 -5.85 1.3 -5.8 1.35 Q-5.8 1.45 -5.9 1.55 L-6.2 1.75 -6.15 1.85 -6.05 1.95 Q-6.05 2.0 -6.15 2.0 L-6.25 1.95 -6.3 1.95 Q-6.4 1.95 -6.45 1.9 L-6.5 1.75 -6.55 1.65 Q-6.55 1.6 -6.6 1.55 L-6.9 1.55 Q-7.05 1.5 -7.1 1.3 L-7.2 1.05 -7.2 1.0 -7.35 0.85 -7.4 0.9 -7.4 1.0 Q-7.4 1.1 -7.45 1.2 L-7.55 1.3 -7.85 1.35 Q-7.95 1.4 -8.0 1.45 -8.1 1.5 -8.1 1.65 L-8.5 1.65 -8.6 1.55 -8.6 1.5 Q-8.75 1.4 -8.75 1.3 L-8.75 1.25 -8.8 1.25 -8.8 1.2 -8.75 1.05 -8.75 1.15 Q-8.75 1.25 -8.6 1.25 -8.55 1.25 -8.4 1.1 -8.3 0.95 -8.3 0.85 L-8.4 0.75 -8.5 0.75 Q-8.6 0.55 -8.75 0.45 -8.95 0.3 -8.95 0.15 L-8.95 0.1 -9.1 0.15 -9.4 0.1 -9.45 0.05 Q-9.6 0.05 -9.65 -0.05 L-9.7 -0.15 -9.65 -0.2 -9.6 -0.35 -9.5 -0.45 -9.4 -0.6 Q-9.4 -0.7 -9.45 -0.7 L-9.5 -0.7 -9.55 -0.8 -9.55 -0.75 -9.7 -0.75 -9.75 -0.8 -9.85 -0.8 Q-10.0 -1.0 -9.95 -1.25 L-10.1 -1.15 -10.15 -1.1 -10.15 -1.0 -10.0 -1.0 Q-9.9 -0.9 -9.9 -0.8 L-9.95 -0.6 Q-10.0 -0.55 -10.1 -0.45 L-10.2 -0.35 Q-10.35 -0.15 -10.3 -0.1 L-10.35 -0.05 -10.4 -0.3 Q-10.45 -0.45 -10.6 -0.45 L-10.65 -0.5 -10.7 -0.65 -10.7 -0.85 -10.75 -0.95 -10.75 -1.0 -10.4 -1.4 -10.15 -1.6 Q-9.95 -1.8 -9.95 -1.85 L-9.95 -1.9 -10.0 -1.95 -10.0 -2.05 -9.95 -2.05 Q-9.85 -1.95 -9.45 -1.9 M-10.15 -0.05 L-10.05 0.05 -10.0 0.2 -9.95 0.25 -9.9 0.35 Q-9.9 0.4 -9.95 0.4 L-9.95 0.35 Q-10.2 0.35 -10.25 0.25 -10.3 0.2 -10.3 0.1 L-10.25 -0.05 -10.15 -0.15 -10.1 -0.15 -10.15 -0.1 -10.15 -0.05 M-2.5 1.3 L-2.55 1.2 -2.65 1.15 -2.7 1.1 -2.9 1.1 Q-3.0 1.2 -3.0 1.25 -3.0 1.35 -2.9 1.4 L-2.7 1.45 -2.7 1.5 -2.85 1.7 -2.9 1.8 -2.9 1.9 -2.8 1.9 -2.8 1.95 -2.75 1.9 Q-2.75 1.8 -2.65 1.75 L-2.5 1.6 Q-2.65 1.55 -2.7 1.45 L-2.65 1.45 Q-2.6 1.45 -2.55 1.4 L-2.5 1.3 M-7.1 0.0 L-7.15 -0.05 -7.25 -0.05 -7.3 0.0 -7.35 0.0 -7.4 0.05 -7.65 0.05 -7.65 0.25 -7.55 0.3 -7.5 0.25 Q-7.45 0.2 -7.4 0.2 L-7.15 0.2 -7.15 0.15 -7.1 0.1 -7.1 0.0 M-1.65 2.55 L-1.5 2.5 -1.25 2.45 -1.15 2.35 -1.1 2.45 -1.0 2.55 -1.05 2.7 Q-1.1 2.75 -1.25 2.8 L-1.4 2.75 -1.45 2.65 -1.65 2.6 -1.65 2.55 M-0.85 2.05 L-0.85 2.1 -0.9 2.2 -0.95 2.25 -1.05 2.25 Q-1.1 2.3 -1.1 2.2 -1.1 2.1 -1.0 2.1 L-0.85 2.05 M-4.55 0.35 L-4.5 0.3 -4.45 0.35 -4.55 0.35 M-5.3 1.3 L-5.3 1.35 -5.25 1.4 -5.25 1.45 -5.2 1.5 -5.25 1.65 -5.35 1.75 -5.55 1.8 -5.6 1.8 -5.7 1.7 Q-5.7 1.65 -5.6 1.6 L-5.45 1.5 -5.4 1.4 -5.4 1.3 -5.3 1.3 M-2.95 1.85 L-2.95 1.85 M-9.2 0.85 L-9.2 0.85 M-8.75 0.7 L-8.8 0.8 -8.8 0.85 Q-9.05 0.85 -9.15 0.9 L-9.25 1.05 -9.25 0.9 Q-9.25 0.5 -9.0 0.55 -8.95 0.6 -8.9 0.65 L-8.8 0.65 -8.75 0.7 M-9.6 0.35 L-9.65 0.4 -9.8 0.25 Q-9.7 0.25 -9.65 0.3 L-9.6 0.35" fill="#262626" fill-rule="evenodd" stroke="none"/>
    </g>
  </defs>
</svg>
