<?xml version="1.0" encoding="UTF-8" standalone="no"?>
<svg xmlns:ffdec="https://www.free-decompiler.com/flash" xmlns:xlink="http://www.w3.org/1999/xlink" ffdec:objectType="frame" height="231.35px" width="224.7px" xmlns="http://www.w3.org/2000/svg">
  <g transform="matrix(1.0, 0.0, 0.0, 1.0, 76.3, 204.4)">
    <use ffdec:characterId="3987" height="28.55" transform="matrix(7.0, 0.0, 0.0, 7.0, -65.1, -184.1)" width="25.55" xlink:href="#shape0"/>
    <use ffdec:characterId="3988" height="6.15" transform="matrix(7.0, 0.0, 0.0, 7.0, -75.25, -17.5)" width="31.9" xlink:href="#shape1"/>
  </g>
  <defs>
    <g id="shape0" transform="matrix(1.0, 0.0, 0.0, 1.0, 9.3, 26.3)">
      <path d="M0.55 -2.5 L0.6 -2.55 0.7 -2.55 0.6 -2.55 0.5 -2.45 0.55 -2.35 0.6 -2.35 0.5 -2.45 0.55 -2.5 M0.4 -2.5 L0.45 -2.55 0.55 -2.6 0.75 -2.6 0.95 -2.4 0.95 -2.2 Q0.95 -2.15 0.8 -2.05 0.75 -2.0 0.65 -1.95 L0.6 -1.95 Q0.35 -2.0 0.35 -2.15 L0.45 -2.25 0.45 -2.4 0.4 -2.45 0.4 -2.5 M0.7 -2.4 Q0.65 -2.35 0.65 -2.3 L0.65 -2.2 0.75 -2.25 0.75 -2.3 Q0.75 -2.35 0.7 -2.4 M0.5 -2.15 L0.55 -2.2 0.6 -2.2 0.55 -2.25 0.55 -2.2 Q0.5 -2.15 0.45 -2.15 L0.45 -2.1 0.5 -2.05 0.6 -2.05 0.55 -2.1 0.5 -2.1 0.5 -2.15 M0.8 -2.4 L0.8 -2.15 0.85 -2.25 0.8 -2.4 M0.15 -0.35 L0.25 -0.3 0.4 -0.15 0.45 0.05 0.45 0.15 0.4 0.15 0.4 0.35 Q0.35 0.35 0.3 0.35 0.1 0.4 -0.1 0.5 L-0.15 0.6 -0.15 0.75 0.05 0.8 0.5 0.85 0.5 0.85 Q0.35 0.7 0.35 0.55 0.35 0.5 0.45 0.35 L0.55 0.15 0.7 0.0 0.8 -0.15 0.85 -0.2 1.1 -0.2 1.2 -0.15 1.2 0.0 Q1.15 0.0 1.1 0.0 L1.0 0.0 0.95 0.1 0.8 0.25 0.6 0.55 Q0.65 0.65 0.85 0.85 L0.9 0.9 Q0.95 0.9 0.95 0.95 L1.15 0.95 1.2 0.9 1.45 0.9 1.6 1.0 1.7 1.1 1.65 1.25 1.55 1.35 Q1.5 1.35 1.5 1.45 1.55 1.5 1.45 1.5 L1.35 1.5 1.2 1.4 Q1.15 1.35 1.1 1.35 L0.9 1.25 0.6 1.2 0.3 1.1 -0.25 0.95 -0.3 0.95 -0.45 0.85 -0.6 0.7 -0.55 0.55 -0.45 0.4 -0.45 0.35 -0.35 0.25 -0.25 0.2 Q-0.05 0.15 0.0 0.1 L0.05 0.1 0.0 -0.05 -0.3 -0.15 -0.5 -0.15 -0.7 -0.25 -0.8 -0.25 -1.2 -0.05 -1.4 0.1 -1.45 0.25 -1.5 0.45 -1.6 0.4 -1.55 0.45 -1.55 0.55 -1.45 0.65 -1.4 0.8 -1.35 0.85 -1.4 0.9 -1.6 0.9 -1.65 0.85 -1.9 0.55 -1.9 0.4 Q-1.9 0.2 -2.0 0.05 L-2.0 0.0 -1.95 -0.05 -1.75 -0.15 -1.5 -0.35 -1.55 -0.35 Q-1.35 -0.5 -1.2 -0.55 -1.05 -0.6 -0.95 -0.6 L-0.8 -0.6 -0.2 -0.5 -0.15 -0.45 -0.1 -0.45 0.15 -0.35 M1.3 1.35 Q1.25 1.25 0.95 1.15 L0.7 1.1 0.55 1.05 0.25 0.9 -0.1 0.85 -0.2 0.8 -0.25 0.8 -0.25 0.55 Q-0.3 0.65 -0.3 0.8 L-0.4 0.7 -0.35 0.45 -0.35 0.5 -0.3 0.35 -0.2 0.35 0.0 0.3 -0.2 0.45 -0.1 0.35 Q0.0 0.3 0.15 0.3 L0.15 0.25 0.3 0.25 0.3 -0.1 Q0.25 -0.2 0.1 -0.25 L0.0 -0.3 -0.25 -0.4 -0.2 -0.4 -0.2 -0.35 0.1 -0.25 0.0 -0.25 -0.55 -0.35 -0.7 -0.4 -0.8 -0.5 -0.85 -0.5 -0.4 -0.45 -0.35 -0.4 -0.25 -0.4 -0.55 -0.5 -0.8 -0.55 -0.9 -0.5 -0.95 -0.55 -1.1 -0.45 Q-1.25 -0.4 -1.45 -0.3 L-1.65 -0.15 Q-1.7 -0.1 -1.8 -0.05 L-1.85 0.0 Q-1.8 0.2 -1.8 0.4 L-1.8 0.55 -1.5 0.8 -1.6 0.7 -1.65 0.6 -1.7 0.45 -1.7 0.4 -1.65 0.3 -1.65 0.25 Q-1.6 0.15 -1.4 0.0 L-1.05 -0.25 -1.0 -0.25 -0.95 -0.3 -0.9 -0.35 -0.6 -0.35 -0.3 -0.2 -0.2 -0.25 -0.1 -0.2 0.0 -0.2 0.05 -0.15 0.1 -0.15 0.15 0.05 Q0.15 0.15 0.05 0.2 L-0.3 0.3 -0.35 0.3 -0.35 0.4 -0.4 0.45 -0.4 0.6 -0.45 0.7 -0.3 0.8 -0.3 0.85 -0.25 0.85 -0.1 0.9 Q0.25 1.05 0.45 1.05 L0.75 1.1 0.75 1.15 1.0 1.2 Q1.15 1.25 1.25 1.3 L1.3 1.4 1.35 1.45 1.4 1.45 1.4 1.4 1.4 1.3 1.4 1.25 1.55 1.1 1.4 0.95 Q1.35 0.95 1.3 1.0 L1.15 1.05 1.0 1.05 0.9 1.0 1.0 1.1 1.1 1.1 1.3 1.05 1.35 1.0 1.45 1.05 1.5 1.1 1.45 1.05 1.3 1.05 1.2 1.1 1.3 1.1 1.35 1.05 1.45 1.1 1.45 1.2 Q1.35 1.25 1.35 1.3 L1.3 1.35 M1.0 -0.1 L1.05 -0.05 1.1 -0.05 1.0 -0.15 0.9 -0.15 0.8 0.05 0.65 0.2 0.55 0.35 Q0.45 0.5 0.45 0.55 0.45 0.7 0.65 0.8 L0.75 0.9 Q0.5 0.7 0.5 0.55 0.5 0.5 0.6 0.35 L0.7 0.2 0.85 0.05 0.9 -0.1 1.0 -0.1 M2.2 -1.5 Q2.3 -1.55 2.45 -1.55 2.5 -1.55 2.6 -1.5 2.8 -1.4 3.0 -1.4 L3.2 -1.45 3.45 -1.5 3.6 -1.5 3.65 -1.45 3.75 -1.25 3.8 -1.2 3.8 -1.15 3.75 -1.1 3.7 -1.1 Q3.65 -1.05 3.6 -1.05 L3.1 -1.05 2.9 -1.0 2.8 -1.0 2.75 -1.05 2.75 -1.1 2.8 -1.15 2.85 -1.15 3.05 -1.2 3.45 -1.25 3.4 -1.3 3.25 -1.25 2.85 -1.2 Q2.8 -1.2 2.6 -1.3 2.45 -1.3 2.4 -1.35 L2.35 -1.35 2.3 -1.3 2.25 -1.3 Q2.3 -1.25 2.25 -1.25 L2.25 -1.2 Q2.2 -1.15 2.1 -1.15 L2.05 -1.15 2.0 -1.2 1.9 -1.2 1.85 -1.25 Q1.8 -1.25 1.8 -1.3 1.8 -1.35 1.95 -1.45 L2.15 -1.45 2.2 -1.5 M2.3 -1.4 L2.35 -1.45 2.45 -1.45 2.65 -1.35 2.85 -1.3 3.0 -1.3 Q2.75 -1.3 2.55 -1.45 L2.3 -1.45 2.2 -1.4 2.0 -1.35 Q1.95 -1.35 1.95 -1.3 L2.0 -1.25 2.05 -1.25 2.0 -1.3 1.95 -1.3 2.0 -1.35 2.05 -1.35 2.25 -1.4 2.3 -1.4 M2.85 -1.1 L3.1 -1.1 3.5 -1.15 3.65 -1.15 3.65 -1.2 3.5 -1.4 3.25 -1.35 3.1 -1.3 3.2 -1.35 3.45 -1.4 3.55 -1.3 3.65 -1.15 3.1 -1.15 2.85 -1.1 M2.1 -0.25 L2.2 -0.35 2.3 -0.4 2.45 -0.4 Q2.45 -0.5 2.7 -0.55 L3.1 -0.55 3.1 -0.5 3.05 -0.45 2.95 -0.45 2.8 -0.4 2.75 -0.4 2.75 -0.35 2.8 -0.2 2.75 0.0 Q2.6 0.2 2.35 0.15 L2.3 0.15 2.2 0.1 Q2.05 0.05 2.05 0.0 2.05 -0.1 2.2 -0.2 L2.15 -0.2 2.1 -0.25 M2.4 -0.3 L2.4 -0.3 2.4 -0.25 Q2.4 -0.2 2.3 -0.15 2.2 -0.05 2.2 0.0 L2.25 0.05 2.4 0.05 Q2.55 0.1 2.6 -0.05 2.65 -0.1 2.65 -0.2 L2.65 -0.3 2.6 -0.4 2.75 -0.5 Q2.6 -0.45 2.6 -0.4 L2.6 -0.3 2.65 -0.2 2.6 -0.05 Q2.55 0.05 2.45 0.05 L2.3 0.0 2.2 0.0 2.35 -0.15 Q2.4 -0.2 2.4 -0.25 L2.4 -0.3 M2.45 -0.05 L2.5 -0.1 2.5 -0.15 2.4 -0.05 2.45 -0.05 M1.55 1.1 L1.55 1.1 M-5.8 -3.55 L-5.8 -3.6 -5.75 -3.7 Q-5.75 -3.75 -5.55 -3.8 L-5.45 -3.75 Q-5.35 -3.75 -5.4 -3.7 L-5.4 -3.65 -5.55 -3.5 -5.75 -3.5 -5.8 -3.55 M-8.8 -2.55 L-8.7 -2.65 -8.5 -2.7 -8.55 -2.7 -8.45 -2.75 Q-8.15 -2.85 -7.95 -2.85 L-7.85 -2.9 -7.55 -2.8 -7.35 -2.75 Q-7.05 -2.6 -7.0 -2.6 L-6.8 -2.4 -6.8 -2.35 -6.75 -2.3 -6.95 -2.1 -6.85 -2.0 -6.85 -1.95 -6.7 -1.9 -6.55 -1.9 -6.5 -1.75 -6.4 -1.55 Q-6.4 -1.5 -6.45 -1.4 L-6.4 -1.4 Q-6.3 -1.4 -6.25 -1.3 L-6.15 -1.2 -6.0 -1.1 -5.95 -1.05 -5.95 -1.0 -6.0 -0.95 -6.2 -0.95 -6.25 -1.0 -6.4 -1.1 -6.5 -1.2 -6.6 -1.2 -6.75 -1.25 -6.85 -1.3 -6.95 -1.4 -6.9 -1.4 -6.9 -1.5 -6.95 -1.55 -6.95 -1.65 -7.0 -1.65 -7.0 -1.75 Q-7.15 -1.75 -7.25 -1.9 -7.4 -2.0 -7.4 -2.05 L-7.35 -2.1 -7.5 -2.25 -7.5 -2.3 -7.55 -2.35 -7.55 -2.4 -7.6 -2.45 -7.85 -2.55 -7.95 -2.55 -8.05 -2.5 -8.05 -2.4 -8.2 -2.35 -8.3 -2.3 Q-8.2 -2.3 -8.25 -2.25 L-8.25 -2.15 -8.1 -1.95 Q-8.05 -1.9 -8.05 -1.8 L-8.1 -1.8 -8.05 -1.75 Q-8.05 -1.5 -8.1 -1.3 L-8.15 -1.2 -8.05 -1.05 -8.15 -0.85 -8.15 -0.75 Q-8.15 -0.7 -8.25 -0.7 L-8.45 -0.7 -8.45 -0.8 -8.55 -1.0 -8.6 -1.05 -8.65 -1.25 -8.7 -1.3 -8.75 -1.4 -8.75 -1.45 -8.8 -1.55 -8.85 -1.6 -8.85 -1.8 Q-8.85 -1.85 -8.95 -1.95 L-9.05 -2.0 -9.1 -2.0 -9.2 -2.05 Q-9.3 -2.05 -9.3 -2.1 L-9.3 -2.15 Q-9.3 -2.2 -9.25 -2.25 L-9.2 -2.3 -9.0 -2.45 -9.0 -2.5 -8.95 -2.5 -8.85 -2.55 -8.8 -2.55 M-8.9 -2.45 L-8.9 -2.45 M-8.2 -1.95 L-8.3 -2.05 Q-8.35 -2.15 -8.35 -2.25 L-8.4 -2.15 -8.3 -2.05 -8.25 -1.9 -8.5 -2.1 -8.6 -2.15 -8.55 -2.2 Q-8.5 -2.3 -8.5 -2.4 L-8.35 -2.45 -8.15 -2.45 -8.05 -2.65 -7.95 -2.65 Q-7.6 -2.6 -7.45 -2.45 L-7.4 -2.4 -7.45 -2.35 -7.45 -2.3 -7.4 -2.3 -7.4 -2.35 Q-7.35 -2.3 -7.35 -2.2 L-7.3 -2.2 -7.35 -2.35 -7.35 -2.4 -7.25 -2.5 Q-7.0 -2.4 -6.95 -2.3 L-6.95 -2.3 -6.85 -2.3 -6.95 -2.4 -7.05 -2.45 -7.0 -2.4 -7.25 -2.5 -7.25 -2.55 -7.55 -2.7 -7.85 -2.8 -8.2 -2.75 -8.45 -2.65 -8.55 -2.6 -8.8 -2.45 -9.0 -2.3 Q-9.05 -2.25 -9.15 -2.2 L-9.15 -2.2 Q-9.1 -2.1 -8.75 -1.9 L-8.75 -1.85 Q-8.75 -1.6 -8.65 -1.45 L-8.45 -1.15 -8.55 -1.25 -8.45 -1.1 -8.45 -1.0 -8.4 -0.9 -8.35 -0.75 -8.3 -0.8 -8.25 -0.95 -8.2 -1.05 -8.2 -1.1 -8.25 -1.15 -8.25 -1.3 -8.2 -1.45 -8.25 -1.55 -8.2 -1.6 -8.15 -1.75 Q-8.15 -1.8 -8.2 -1.85 L-8.2 -1.95 M-6.35 -2.85 L-6.4 -2.9 -6.5 -2.8 -6.6 -2.75 Q-6.55 -2.7 -6.2 -2.5 -5.7 -2.25 -5.75 -2.15 L-5.75 -2.0 Q-5.8 -1.95 -6.0 -1.85 L-6.0 -1.8 -5.8 -1.6 -5.85 -1.55 Q-5.9 -1.55 -5.95 -1.55 L-6.0 -1.55 Q-6.2 -1.6 -6.25 -1.7 -6.3 -1.75 -6.3 -1.85 -6.3 -2.0 -6.1 -2.05 -6.05 -2.1 -6.05 -2.15 L-6.4 -2.35 Q-6.9 -2.65 -6.9 -2.75 -6.9 -2.8 -6.55 -3.05 L-6.45 -3.1 Q-6.3 -3.15 -6.1 -3.0 L-5.9 -2.8 -5.95 -2.75 -6.0 -2.75 -6.1 -2.7 -6.35 -2.85 M-6.45 -3.0 Q-6.75 -2.8 -6.75 -2.75 -6.75 -2.65 -6.35 -2.45 -5.9 -2.2 -5.9 -2.15 -5.9 -2.05 -6.05 -2.0 -6.15 -1.95 -6.15 -1.85 L-6.1 -1.7 -5.95 -1.6 -6.1 -1.8 -6.1 -1.9 Q-5.9 -2.0 -5.9 -2.05 -5.85 -2.05 -5.85 -2.15 -5.85 -2.25 -6.3 -2.45 -6.7 -2.65 -6.7 -2.75 L-6.6 -2.9 -6.4 -3.0 -6.1 -2.8 -6.05 -2.8 -6.2 -2.95 Q-6.35 -3.05 -6.45 -3.0 M-7.2 -2.25 L-7.15 -2.3 -7.2 -2.35 -7.25 -2.2 -7.2 -2.25 M-6.95 -1.85 Q-7.05 -1.9 -7.15 -1.95 L-7.3 -2.05 -7.25 -1.95 -7.15 -1.9 -6.95 -1.85 -6.85 -1.55 -6.8 -1.55 -6.85 -1.7 -6.9 -1.8 -6.65 -1.8 Q-6.6 -1.7 -6.55 -1.6 -6.5 -1.5 -6.55 -1.45 L-6.5 -1.45 -6.5 -1.6 -6.55 -1.7 Q-6.55 -1.75 -6.65 -1.8 L-6.9 -1.85 -7.0 -2.0 -7.1 -2.05 -7.05 -2.05 -7.05 -2.15 -6.95 -2.25 -6.95 -2.3 -7.1 -2.15 -7.1 -2.2 Q-7.15 -2.15 -7.15 -2.1 L-7.1 -2.0 -6.95 -1.9 -7.0 -1.9 -6.95 -1.85 M-7.0 -1.95 L-7.0 -1.95 M-8.05 -2.7 Q-8.2 -2.55 -8.2 -2.5 -8.4 -2.5 -8.5 -2.45 L-8.55 -2.45 -8.65 -2.25 -8.65 -2.2 -8.8 -2.3 -8.55 -2.55 -8.2 -2.65 -8.1 -2.7 -8.05 -2.7 M-8.35 -2.6 L-8.5 -2.55 -8.45 -2.6 -8.35 -2.6 M-8.3 -1.45 L-8.3 -1.2 Q-8.35 -1.3 -8.4 -1.35 L-8.55 -1.5 -8.5 -1.65 -8.45 -1.7 -8.3 -1.55 -8.3 -1.45 M-8.25 -1.4 L-8.25 -1.4 M-8.15 -1.05 L-8.15 -1.05 M-6.45 -1.3 L-6.4 -1.35 -6.65 -1.35 -6.8 -1.45 -6.85 -1.4 -6.8 -1.35 -6.7 -1.3 -6.45 -1.3 -6.3 -1.15 -6.15 -1.05 -6.05 -1.05 -6.25 -1.2 -6.45 -1.3 M-6.6 -1.55 L-6.6 -1.6 -6.7 -1.65 -6.75 -1.7 -6.75 -1.65 -6.65 -1.45 -6.6 -1.55 M-5.65 -3.6 L-5.5 -3.7 -5.55 -3.7 -5.65 -3.65 -5.7 -3.6 -5.65 -3.6 M-4.45 -3.9 L-4.3 -3.95 -4.2 -3.95 Q-4.1 -3.9 -4.1 -3.85 L-4.1 -3.8 -4.15 -3.8 -4.3 -3.75 -4.35 -3.7 -4.6 -3.7 -4.65 -3.75 -4.65 -3.85 -4.55 -3.85 -4.45 -3.9 M-4.35 -3.8 L-4.25 -3.85 -4.35 -3.85 -4.55 -3.8 -4.35 -3.8 M-3.65 -3.8 L-3.75 -3.85 -3.75 -3.95 Q-3.7 -4.0 -3.55 -4.0 L-3.45 -4.0 -3.35 -3.95 Q-3.3 -3.9 -3.25 -3.8 L-3.25 -3.75 -3.35 -3.7 -3.45 -3.7 -3.55 -3.8 -3.65 -3.8 M-3.45 -3.85 L-3.4 -3.8 -3.45 -3.9 -3.55 -3.95 -3.65 -3.9 -3.5 -3.9 -3.45 -3.85 M-3.25 -3.0 L-3.1 -3.1 -2.95 -3.05 -2.9 -2.95 -2.95 -2.9 -2.95 -2.85 -3.3 -2.85 -3.3 -2.95 -3.25 -3.0 M-3.05 -2.95 L-3.2 -2.95 -3.15 -2.9 -3.05 -2.9 -3.05 -2.95 M-4.25 -3.0 L-4.2 -2.95 Q-4.2 -2.85 -4.35 -2.75 L-4.45 -2.75 -4.5 -2.8 -4.55 -2.8 -4.6 -2.85 Q-4.6 -2.9 -4.45 -3.0 L-4.25 -3.0 M-4.45 -2.85 Q-4.3 -2.9 -4.3 -2.95 L-4.35 -2.95 -4.45 -2.85 M-0.95 -0.45 L-0.8 -0.45 -0.7 -0.35 -0.9 -0.35 -1.4 0.0 Q-1.65 0.15 -1.7 0.3 L-1.7 0.35 Q-1.7 0.25 -1.65 0.15 L-1.45 -0.05 -1.15 -0.3 -1.15 -0.35 -1.1 -0.35 -1.05 -0.4 -1.0 -0.4 -0.95 -0.45 M-0.2 -0.35 L-0.25 -0.4 -0.3 -0.4 -0.2 -0.35" fill="#31a800" fill-opacity="0.6" fill-rule="evenodd" stroke="none"/>
      <path d="M0.5 -2.45 L0.6 -2.35 0.55 -2.35 0.5 -2.45 0.6 -2.55 0.7 -2.55 0.6 -2.55 0.55 -2.5 0.5 -2.45 M0.5 -2.1 L0.55 -2.1 0.6 -2.05 0.5 -2.05 0.45 -2.1 0.45 -2.15 Q0.5 -2.15 0.55 -2.2 L0.55 -2.25 0.6 -2.2 0.55 -2.2 0.5 -2.15 0.45 -2.15 0.5 -2.1 M0.8 -2.4 L0.85 -2.25 0.8 -2.15 0.8 -2.4 M-1.05 -0.25 L-1.4 0.0 Q-1.6 0.15 -1.65 0.25 L-1.65 0.3 -1.7 0.4 -1.7 0.45 -1.65 0.6 -1.6 0.7 -1.5 0.8 -1.8 0.55 -1.8 0.4 Q-1.8 0.2 -1.85 0.0 L-1.8 -0.05 Q-1.7 -0.1 -1.65 -0.15 L-1.45 -0.3 Q-1.25 -0.4 -1.1 -0.45 L-0.95 -0.55 -0.9 -0.5 -0.8 -0.55 -0.55 -0.5 -0.25 -0.4 -0.35 -0.4 -0.4 -0.45 -0.85 -0.5 -0.8 -0.5 -0.7 -0.4 -0.55 -0.35 0.0 -0.25 0.1 -0.25 -0.2 -0.35 -0.2 -0.4 -0.25 -0.4 0.0 -0.3 0.1 -0.25 Q0.25 -0.2 0.3 -0.1 L0.3 0.25 0.15 0.25 0.15 0.3 Q0.0 0.3 -0.1 0.35 L-0.2 0.45 0.0 0.3 -0.2 0.35 -0.3 0.35 -0.35 0.5 -0.35 0.45 -0.4 0.7 -0.3 0.8 Q-0.3 0.65 -0.25 0.55 L-0.25 0.8 -0.2 0.8 -0.1 0.85 0.25 0.9 0.55 1.05 0.7 1.1 0.95 1.15 Q1.25 1.25 1.3 1.35 L1.35 1.35 1.35 1.3 Q1.35 1.25 1.45 1.2 L1.45 1.1 1.35 1.05 1.3 1.1 1.2 1.1 1.3 1.05 1.45 1.05 1.5 1.1 1.45 1.05 1.35 1.0 1.3 1.05 1.1 1.1 1.0 1.1 0.9 1.0 1.0 1.05 1.15 1.05 1.3 1.0 Q1.35 0.95 1.4 0.95 L1.55 1.1 1.4 1.25 1.4 1.3 1.35 1.35 1.35 1.4 1.4 1.4 1.4 1.45 1.35 1.45 1.3 1.4 1.25 1.3 Q1.15 1.25 1.0 1.2 L0.75 1.15 0.75 1.1 0.45 1.05 Q0.25 1.05 -0.1 0.9 L-0.25 0.85 -0.3 0.85 -0.3 0.8 -0.45 0.7 -0.4 0.6 -0.4 0.45 -0.35 0.4 -0.35 0.3 -0.3 0.3 0.05 0.2 Q0.15 0.15 0.15 0.05 L0.1 -0.15 0.05 -0.15 0.0 -0.2 -0.1 -0.2 -0.2 -0.25 -0.3 -0.2 -0.6 -0.35 -0.9 -0.35 -0.95 -0.3 -1.05 -0.25 M1.0 -0.1 L0.9 -0.1 0.85 0.05 0.7 0.2 0.6 0.35 Q0.5 0.5 0.5 0.55 0.5 0.7 0.75 0.9 L0.65 0.8 Q0.45 0.7 0.45 0.55 0.45 0.5 0.55 0.35 L0.65 0.2 0.8 0.05 0.9 -0.15 1.0 -0.15 1.1 -0.05 1.05 -0.05 1.0 -0.1 M2.85 -1.1 L3.1 -1.15 3.65 -1.15 3.55 -1.3 3.45 -1.4 3.2 -1.35 3.1 -1.3 3.25 -1.35 3.5 -1.4 3.65 -1.2 3.65 -1.15 3.5 -1.15 3.1 -1.1 2.85 -1.1 M2.3 -1.4 L2.25 -1.4 2.05 -1.35 2.0 -1.35 1.95 -1.3 2.0 -1.3 2.05 -1.25 2.0 -1.25 1.95 -1.3 Q1.95 -1.35 2.0 -1.35 L2.2 -1.4 2.3 -1.45 2.55 -1.45 Q2.75 -1.3 3.0 -1.3 L2.85 -1.3 2.65 -1.35 2.45 -1.45 2.35 -1.45 2.3 -1.4 M2.4 -0.3 L2.4 -0.25 Q2.4 -0.2 2.35 -0.15 L2.2 0.0 2.3 0.0 2.45 0.05 Q2.55 0.05 2.6 -0.05 L2.65 -0.2 2.6 -0.3 2.6 -0.4 Q2.6 -0.45 2.75 -0.5 L2.6 -0.4 2.65 -0.3 2.65 -0.2 Q2.65 -0.1 2.6 -0.05 2.55 0.1 2.4 0.05 L2.25 0.05 2.2 0.0 Q2.2 -0.05 2.3 -0.15 2.4 -0.2 2.4 -0.25 L2.4 -0.3 2.4 -0.3 M-8.9 -2.45 L-8.9 -2.45 M-8.2 -1.95 L-8.2 -1.85 Q-8.15 -1.8 -8.15 -1.75 L-8.2 -1.6 -8.25 -1.55 -8.2 -1.45 -8.25 -1.3 -8.25 -1.15 -8.2 -1.1 -8.2 -1.05 -8.25 -0.95 -8.3 -0.8 -8.35 -0.75 -8.4 -0.9 -8.45 -1.0 -8.45 -1.1 -8.55 -1.25 -8.45 -1.15 -8.65 -1.45 Q-8.75 -1.6 -8.75 -1.85 L-8.75 -1.9 Q-9.1 -2.1 -9.15 -2.2 L-9.15 -2.2 Q-9.05 -2.25 -9.0 -2.3 L-8.8 -2.45 -8.55 -2.6 -8.45 -2.65 -8.2 -2.75 -7.85 -2.8 -7.55 -2.7 -7.25 -2.55 -7.25 -2.5 -7.0 -2.4 -7.05 -2.45 -6.95 -2.4 -6.85 -2.3 -6.95 -2.3 -6.95 -2.3 Q-7.0 -2.4 -7.25 -2.5 L-7.35 -2.4 -7.35 -2.35 -7.3 -2.2 -7.35 -2.2 Q-7.35 -2.3 -7.4 -2.35 L-7.4 -2.3 -7.45 -2.3 -7.45 -2.35 -7.4 -2.4 -7.45 -2.45 Q-7.6 -2.6 -7.95 -2.65 L-8.05 -2.65 -8.15 -2.45 -8.35 -2.45 -8.5 -2.4 Q-8.5 -2.3 -8.55 -2.2 L-8.6 -2.15 -8.5 -2.1 -8.25 -1.9 -8.3 -2.05 -8.4 -2.15 -8.35 -2.25 Q-8.35 -2.15 -8.3 -2.05 L-8.2 -1.95 M-6.45 -3.0 Q-6.35 -3.05 -6.2 -2.95 L-6.05 -2.8 -6.1 -2.8 -6.4 -3.0 -6.6 -2.9 -6.7 -2.75 Q-6.7 -2.65 -6.3 -2.45 -5.85 -2.25 -5.85 -2.15 -5.85 -2.05 -5.9 -2.05 -5.9 -2.0 -6.1 -1.9 L-6.1 -1.8 -5.95 -1.6 -6.1 -1.7 -6.15 -1.85 Q-6.15 -1.95 -6.05 -2.0 -5.9 -2.05 -5.9 -2.15 -5.9 -2.2 -6.35 -2.45 -6.75 -2.65 -6.75 -2.75 -6.75 -2.8 -6.45 -3.0 M-6.95 -1.9 L-7.1 -2.0 -7.15 -2.1 Q-7.15 -2.15 -7.1 -2.2 L-7.1 -2.15 -6.95 -2.3 -6.95 -2.25 -7.05 -2.15 -7.05 -2.05 -7.1 -2.05 -7.0 -2.0 -6.9 -1.85 -6.65 -1.8 Q-6.55 -1.75 -6.55 -1.7 L-6.5 -1.6 -6.5 -1.45 -6.55 -1.45 Q-6.5 -1.5 -6.55 -1.6 -6.6 -1.7 -6.65 -1.8 L-6.9 -1.8 -6.85 -1.7 -6.8 -1.55 -6.85 -1.55 -6.95 -1.85 -7.15 -1.9 -7.25 -1.95 -7.3 -2.05 -7.15 -1.95 Q-7.05 -1.9 -6.95 -1.85 L-6.95 -1.9 M-8.25 -1.4 L-8.25 -1.4 M-8.3 -1.45 L-8.3 -1.55 -8.45 -1.7 -8.5 -1.65 -8.55 -1.5 -8.4 -1.35 Q-8.35 -1.3 -8.3 -1.2 L-8.3 -1.45 M-8.35 -2.6 L-8.45 -2.6 -8.5 -2.55 -8.35 -2.6 M-8.05 -2.7 L-8.1 -2.7 -8.2 -2.65 -8.55 -2.55 -8.8 -2.3 -8.65 -2.2 -8.65 -2.25 -8.55 -2.45 -8.5 -2.45 Q-8.4 -2.5 -8.2 -2.5 -8.2 -2.55 -8.05 -2.7 M-6.45 -1.3 L-6.25 -1.2 -6.05 -1.05 -6.15 -1.05 -6.3 -1.15 -6.45 -1.3 -6.7 -1.3 -6.8 -1.35 -6.85 -1.4 -6.8 -1.45 -6.65 -1.35 -6.4 -1.35 -6.45 -1.3 M-5.65 -3.6 L-5.7 -3.6 -5.65 -3.65 -5.55 -3.7 -5.5 -3.7 -5.65 -3.6 M-4.35 -3.8 L-4.55 -3.8 -4.35 -3.85 -4.25 -3.85 -4.35 -3.8 M-3.45 -3.85 L-3.5 -3.9 -3.65 -3.9 -3.55 -3.95 -3.45 -3.9 -3.4 -3.8 -3.45 -3.85 M-3.05 -2.95 L-3.05 -2.9 -3.15 -2.9 -3.2 -2.95 -3.05 -2.95 M-4.45 -2.85 L-4.35 -2.95 -4.3 -2.95 Q-4.3 -2.9 -4.45 -2.85 M-0.95 -0.45 L-1.0 -0.4 -1.05 -0.4 -1.1 -0.35 -1.15 -0.35 -1.15 -0.3 -1.45 -0.05 -1.65 0.15 Q-1.7 0.25 -1.7 0.35 L-1.7 0.3 Q-1.65 0.15 -1.4 0.0 L-0.9 -0.35 -0.7 -0.35 -0.8 -0.45 -0.95 -0.45" fill="#262626" fill-opacity="0.8" fill-rule="evenodd" stroke="none"/>
      <path d="M5.45 -2.0 L5.5 -2.05 5.85 -2.05 6.1 -2.3 6.25 -2.3 6.7 -2.2 Q6.9 -2.15 6.9 -2.05 6.8 -1.85 6.75 -1.85 L6.6 -1.85 6.5 -1.95 6.4 -2.0 6.35 -2.1 6.2 -2.1 6.05 -2.0 5.95 -1.9 6.0 -1.85 6.0 -1.8 Q6.0 -1.75 5.9 -1.7 L5.7 -1.65 5.5 -1.65 5.4 -1.95 5.45 -2.0 M5.55 -1.8 L5.55 -1.9 5.6 -1.9 5.7 -1.95 5.75 -1.95 5.85 -1.9 6.05 -2.1 6.2 -2.2 6.45 -2.2 6.75 -2.05 6.65 -1.95 6.6 -2.05 6.5 -2.05 Q6.5 -2.1 6.5 -2.05 L6.55 -2.05 6.65 -1.95 6.75 -1.95 6.8 -2.05 Q6.5 -2.2 6.35 -2.2 L6.15 -2.25 6.05 -2.1 5.95 -2.0 5.85 -1.95 5.5 -1.95 5.5 -1.9 5.55 -1.8 Q5.55 -1.75 5.6 -1.75 L5.7 -1.75 5.9 -1.8 5.65 -1.8 5.6 -1.75 Q5.55 -1.75 5.55 -1.8 M8.1 -3.25 L8.1 -3.15 8.0 -3.15 8.05 -3.1 8.0 -3.1 8.05 -3.05 Q7.95 -2.85 7.85 -2.85 L7.7 -2.9 7.6 -2.9 Q7.55 -2.9 7.5 -2.95 L7.5 -3.05 Q7.5 -3.15 7.65 -3.15 L7.8 -3.2 7.9 -3.3 Q8.0 -3.4 8.05 -3.35 L8.1 -3.25 M8.05 -3.3 L7.95 -3.3 7.8 -3.15 7.65 -3.05 7.65 -3.0 7.55 -3.0 7.55 -3.05 7.6 -3.05 7.55 -3.1 7.55 -3.0 7.6 -2.95 Q7.6 -3.0 7.7 -3.0 L7.75 -3.0 7.9 -2.95 7.95 -3.05 7.9 -3.0 7.8 -3.0 Q7.75 -3.0 7.7 -3.0 L7.7 -3.05 7.8 -3.15 8.0 -3.25 8.0 -3.2 8.05 -3.25 8.05 -3.3 M7.9 -3.15 L7.9 -3.15 M7.85 -3.1 L7.85 -3.1 M6.35 -0.95 L6.45 -0.85 6.5 -0.75 6.35 -0.6 6.4 -0.55 6.45 -0.35 6.45 -0.25 6.35 -0.15 6.25 -0.15 6.1 -0.3 Q6.05 -0.4 6.05 -0.45 L6.1 -0.6 6.1 -0.75 6.15 -0.8 Q6.1 -0.8 6.1 -0.85 L6.1 -0.9 6.15 -0.95 6.2 -0.95 6.35 -1.0 6.35 -0.95 M9.55 1.05 L9.7 0.8 9.8 0.65 9.9 0.45 9.9 0.25 9.95 0.55 Q9.95 0.65 9.7 1.25 L9.6 1.4 9.45 1.6 9.65 1.4 9.7 1.25 Q9.95 0.65 9.95 0.55 L9.95 0.25 9.9 0.2 9.9 0.15 9.85 0.0 9.85 -0.35 9.9 -0.55 9.9 -0.8 9.75 -1.0 9.6 -1.1 9.5 -1.15 9.45 -1.2 9.4 -1.3 9.4 -1.35 9.35 -1.35 9.3 -1.4 9.25 -1.5 9.25 -1.55 9.15 -1.55 9.15 -1.6 9.05 -1.45 8.95 -1.35 8.95 -1.3 8.9 -1.25 8.8 -1.2 8.6 -1.05 8.55 -1.05 8.25 -0.95 8.15 -0.9 8.1 -0.8 8.15 -0.75 8.15 -0.6 8.2 -0.4 8.3 -0.15 8.4 0.3 8.4 0.25 8.3 -0.15 8.2 -0.4 8.2 -0.6 8.25 -0.5 8.35 -0.25 8.4 0.05 8.4 0.3 8.45 0.3 8.45 0.25 Q8.4 -0.1 8.35 -0.25 L8.35 -0.4 8.25 -0.5 8.25 -0.55 8.2 -0.6 8.2 -0.75 8.3 -0.85 8.45 -0.95 8.5 -0.95 8.5 -1.0 8.6 -1.0 8.6 -1.05 8.65 -1.05 8.7 -1.1 8.8 -1.15 8.95 -1.3 9.0 -1.3 9.1 -1.4 9.25 -1.4 9.35 -1.35 9.4 -1.25 9.5 -1.15 9.6 -1.1 9.75 -0.9 9.65 -0.65 9.65 -0.55 Q9.65 -0.5 9.6 -0.4 L9.6 -0.2 9.55 -0.05 9.5 0.15 9.5 0.45 9.45 0.75 9.45 0.9 9.4 1.05 9.35 1.15 9.35 1.2 Q9.2 1.35 9.15 1.55 L9.15 1.95 9.1 2.05 9.1 2.1 9.05 2.15 9.1 2.15 9.1 2.1 9.2 1.9 9.25 1.85 9.3 1.75 9.2 1.8 9.25 1.75 9.45 1.15 9.5 1.05 9.5 1.1 9.55 1.05 M6.2 -0.45 L6.2 -0.55 6.25 -0.6 6.3 -0.5 6.35 -0.35 6.3 -0.25 Q6.2 -0.4 6.2 -0.45 M6.4 -0.75 L6.35 -0.8 6.35 -0.85 6.3 -0.9 6.2 -0.9 6.2 -0.85 6.3 -0.85 6.35 -0.75 6.25 -0.65 6.25 -0.7 6.2 -0.7 6.2 -0.65 6.25 -0.65 6.15 -0.45 Q6.15 -0.4 6.2 -0.35 L6.3 -0.25 6.35 -0.25 6.35 -0.35 6.3 -0.5 6.25 -0.6 6.4 -0.75 M8.1 -0.95 L8.2 -1.05 8.5 -1.15 8.55 -1.15 8.75 -1.25 8.9 -1.4 8.95 -1.5 Q9.05 -1.65 9.1 -1.65 L9.2 -1.7 9.25 -1.65 9.3 -1.65 9.4 -1.55 9.35 -1.5 9.4 -1.45 9.45 -1.45 9.45 -1.4 9.5 -1.35 9.5 -1.3 9.55 -1.3 9.55 -1.25 9.65 -1.15 9.8 -1.05 10.0 -0.85 10.0 -0.55 9.95 -0.35 9.95 -0.3 10.0 -0.2 9.95 -0.1 10.0 0.05 10.0 0.2 10.05 0.45 10.05 0.55 Q10.05 0.7 9.8 1.3 L9.7 1.45 9.7 1.5 9.5 1.65 9.5 1.7 9.45 1.7 9.45 1.75 9.3 1.9 9.3 1.95 9.2 2.1 9.2 2.2 9.15 2.25 9.0 2.25 8.95 2.2 8.95 2.15 9.05 1.95 9.05 1.55 Q9.1 1.3 9.25 1.15 L9.3 1.05 9.35 0.9 9.35 0.75 9.4 0.45 9.4 0.15 Q9.4 0.05 9.45 -0.05 L9.5 -0.25 9.5 -0.4 Q9.5 -0.55 9.55 -0.6 L9.55 -0.7 9.6 -0.9 9.3 -1.2 9.3 -1.25 9.25 -1.3 9.15 -1.3 9.05 -1.25 8.95 -1.15 8.85 -1.1 8.7 -0.95 8.6 -0.9 8.55 -0.9 8.5 -0.85 8.35 -0.75 8.3 -0.7 8.3 -0.65 8.35 -0.6 8.35 -0.55 8.45 -0.4 8.45 -0.25 8.55 0.25 8.55 0.3 8.5 0.35 8.5 0.45 8.45 0.65 8.3 0.8 8.25 0.8 8.15 0.85 8.1 0.85 Q8.0 0.9 7.85 1.05 L7.75 1.15 7.65 1.1 7.6 1.05 Q7.6 1.0 7.65 0.95 L7.7 0.9 8.0 0.65 8.15 0.6 8.25 0.5 8.3 0.4 8.3 0.3 8.2 -0.1 8.1 -0.4 8.05 -0.6 8.05 -0.7 8.0 -0.8 8.05 -0.9 8.1 -0.95 M8.6 -1.05 L8.6 -1.05 M8.4 -0.9 L8.3 -0.85 8.15 -0.7 8.15 -0.8 8.2 -0.85 8.2 -0.9 8.3 -0.95 8.55 -1.05 8.4 -0.9 M7.75 -0.65 L7.8 -0.6 Q8.0 -0.45 8.0 -0.3 L7.95 -0.1 8.0 0.15 8.05 0.35 8.0 0.45 7.85 0.6 7.8 0.55 7.75 0.55 7.7 0.5 7.7 0.4 7.8 0.3 7.7 -0.1 7.75 -0.3 7.7 -0.4 Q7.6 -0.45 7.55 -0.5 L7.45 -0.5 7.45 -0.75 7.5 -0.8 7.6 -0.8 7.6 -0.75 7.75 -0.65 M9.65 -0.35 L9.65 -0.4 Q9.65 -0.3 9.7 -0.2 L9.65 -0.15 9.55 0.05 9.7 0.35 9.6 0.55 9.55 0.7 9.55 0.85 Q9.5 0.9 9.5 0.95 L9.5 1.05 9.35 1.15 9.4 1.05 9.45 0.85 9.45 0.75 9.5 0.6 9.5 0.15 9.55 0.0 9.65 -0.2 9.65 -0.35 M9.85 -0.65 L9.9 -0.75 9.85 -0.6 9.85 -0.1 9.7 -0.2 9.75 -0.35 9.8 -0.45 9.8 -0.55 9.85 -0.65 M7.7 -0.5 L7.65 -0.6 7.55 -0.7 7.55 -0.6 7.6 -0.65 Q7.65 -0.55 7.75 -0.45 7.85 -0.4 7.85 -0.3 L7.8 -0.1 7.9 0.35 7.9 0.4 7.85 0.45 7.85 0.4 7.8 0.4 7.8 0.5 7.85 0.5 7.9 0.4 7.95 0.35 7.9 0.2 Q7.85 0.05 7.85 -0.1 L7.85 -0.3 Q7.85 -0.4 7.7 -0.5 M14.95 -4.1 L15.05 -4.1 15.15 -4.05 15.45 -4.05 15.6 -3.85 15.7 -3.7 15.75 -3.6 15.95 -3.35 Q16.25 -2.95 16.25 -2.85 16.25 -2.7 15.9 -2.4 15.7 -2.2 15.6 -2.05 L15.7 -2.05 15.7 -2.0 Q15.75 -1.9 15.75 -1.85 L15.8 -1.75 15.45 -1.4 15.45 -1.35 15.35 -1.3 15.35 -1.2 15.3 -1.2 15.25 -1.1 15.0 -1.1 14.7 -1.4 Q14.6 -1.45 14.6 -1.5 L14.6 -1.55 14.5 -1.6 14.5 -1.65 Q14.3 -1.8 14.3 -1.95 L14.35 -2.25 14.4 -2.6 14.55 -2.6 14.75 -2.75 15.1 -2.0 15.15 -2.05 Q15.2 -2.25 15.35 -2.6 15.6 -3.05 15.6 -3.1 L15.5 -3.4 15.4 -3.55 Q15.35 -3.55 15.3 -3.6 L15.2 -3.65 15.1 -3.55 Q14.9 -3.35 14.6 -3.35 L14.3 -3.25 14.35 -3.15 14.35 -2.9 14.25 -2.8 14.25 -2.75 14.1 -2.75 14.05 -2.7 13.9 -2.7 13.85 -2.8 13.9 -2.85 13.9 -2.9 13.95 -2.95 14.0 -2.95 14.1 -3.0 14.1 -3.05 14.05 -3.1 Q14.0 -3.2 14.0 -3.25 13.95 -3.4 14.4 -3.5 14.8 -3.6 14.85 -3.65 L15.05 -3.85 Q15.0 -3.85 15.0 -3.9 14.95 -3.9 14.9 -3.9 L14.9 -4.0 Q14.9 -4.05 14.95 -4.1 M15.0 -4.0 L15.05 -3.95 15.2 -3.95 15.1 -4.0 15.0 -4.0 M14.8 -3.85 L14.8 -3.8 Q14.75 -3.7 14.65 -3.7 L14.6 -3.7 14.5 -3.8 14.5 -3.85 14.55 -3.95 14.6 -3.95 Q14.75 -3.95 14.8 -3.9 L14.8 -3.85 M15.15 -3.8 L14.9 -3.55 Q14.85 -3.5 14.4 -3.45 14.1 -3.35 14.1 -3.25 L14.2 -3.05 14.2 -2.95 14.15 -2.9 14.0 -2.9 13.95 -2.8 14.05 -2.8 14.1 -2.85 14.2 -2.85 14.25 -2.95 14.25 -3.15 14.15 -3.25 14.25 -3.35 Q14.35 -3.35 14.6 -3.45 14.85 -3.45 15.05 -3.6 L15.35 -3.9 15.5 -3.65 15.5 -3.7 15.3 -3.7 15.4 -3.65 15.55 -3.6 Q15.75 -3.25 15.75 -3.1 L15.75 -2.85 15.45 -2.45 15.2 -2.15 15.35 -1.8 15.2 -1.55 15.15 -1.4 15.1 -1.55 15.2 -1.75 Q15.2 -1.8 15.1 -1.85 L14.9 -1.95 14.9 -2.25 14.85 -2.3 14.8 -2.3 14.65 -2.35 14.6 -2.4 14.55 -2.4 14.55 -2.45 14.45 -2.5 14.45 -2.45 14.5 -2.3 14.5 -2.05 14.45 -1.85 Q14.45 -1.8 14.6 -1.65 L14.85 -1.35 15.05 -1.25 15.05 -1.15 15.2 -1.15 15.15 -1.2 15.25 -1.3 Q15.3 -1.35 15.45 -1.5 L15.7 -1.75 Q15.7 -1.85 15.6 -1.95 L15.55 -2.0 15.6 -2.1 15.6 -2.2 15.55 -2.2 15.65 -2.4 16.05 -2.7 16.05 -2.8 Q16.05 -2.9 15.85 -3.3 L15.65 -3.6 15.65 -3.65 15.6 -3.7 15.55 -3.7 15.35 -4.0 15.15 -3.8 M14.6 -3.85 L14.6 -3.8 14.7 -3.85 14.6 -3.85 M12.9 -4.15 Q13.0 -4.15 13.15 -4.3 L13.3 -4.45 Q13.35 -4.5 13.4 -4.5 L13.45 -4.45 13.75 -4.2 Q14.0 -3.9 13.95 -3.8 14.0 -3.7 13.75 -3.55 L13.6 -3.5 13.55 -3.45 13.5 -3.45 13.5 -3.4 13.45 -3.35 Q13.3 -3.25 13.2 -3.25 13.05 -3.25 13.0 -3.35 L13.0 -3.4 12.95 -3.5 Q12.95 -3.6 13.0 -3.6 L13.05 -3.6 13.1 -3.65 13.25 -3.7 13.5 -3.7 13.6 -3.75 13.7 -3.85 13.55 -4.0 13.4 -4.2 13.25 -4.1 13.15 -4.0 13.2 -3.95 13.2 -3.85 Q13.2 -3.75 13.1 -3.7 L13.0 -3.7 Q12.95 -3.7 12.9 -3.7 L12.9 -3.8 12.85 -4.0 12.8 -4.1 12.85 -4.1 12.9 -4.15 M13.0 -3.8 L13.05 -3.8 13.1 -3.85 Q13.1 -3.95 13.1 -3.9 L13.0 -3.95 13.0 -4.0 Q13.0 -4.05 13.2 -4.2 L13.45 -4.35 13.65 -4.05 13.8 -3.8 Q13.75 -3.75 13.65 -3.7 L13.5 -3.6 13.25 -3.6 13.1 -3.55 Q13.05 -3.55 13.05 -3.5 L13.1 -3.4 13.2 -3.35 Q13.25 -3.35 13.4 -3.45 L13.15 -3.45 13.1 -3.5 13.15 -3.5 13.25 -3.55 Q13.3 -3.6 13.55 -3.55 L13.7 -3.65 Q13.85 -3.75 13.85 -3.8 13.85 -3.9 13.65 -4.1 L13.4 -4.4 13.2 -4.25 Q13.0 -4.1 12.9 -4.05 L13.0 -3.8 M13.55 -3.15 L13.65 -3.15 13.7 -3.0 13.75 -2.95 13.75 -2.85 13.7 -2.8 13.55 -2.75 13.35 -2.65 13.25 -2.65 13.2 -2.7 13.2 -2.85 13.25 -2.9 13.4 -2.9 Q13.45 -2.9 13.45 -2.95 L13.45 -3.1 13.5 -3.15 13.55 -3.15 M14.65 -1.85 L14.6 -2.0 14.6 -2.05 14.55 -2.05 14.55 -2.25 14.8 -1.8 14.9 -1.5 14.65 -1.85 M15.75 -2.75 L15.75 -2.65 15.6 -2.45 15.5 -2.3 Q15.35 -2.15 15.35 -2.05 L15.35 -1.9 15.25 -2.15 15.55 -2.5 15.75 -2.75 M13.3 -2.8 L13.3 -2.75 13.35 -2.75 13.5 -2.85 13.65 -2.9 13.6 -3.0 13.55 -3.05 13.55 -2.95 Q13.55 -2.8 13.4 -2.8 L13.3 -2.8 M15.1 -1.65 L15.05 -1.55 15.1 -1.45 15.05 -1.5 Q15.0 -1.6 15.0 -1.65 L15.0 -1.75 14.95 -1.8 14.95 -1.9 14.9 -1.9 15.05 -1.85 15.15 -1.75 15.15 -1.7 15.1 -1.65 M8.2 0.7 L8.05 0.75 Q7.95 0.8 7.8 0.95 L7.75 0.95 7.75 1.05 7.8 0.95 Q7.95 0.8 8.1 0.8 8.15 0.75 8.2 0.7 L8.25 0.7 8.35 0.6 8.4 0.45 8.35 0.55 8.2 0.7 M9.9 0.2 L9.9 0.4 9.85 0.45 9.85 0.0 9.9 0.2 M15.55 -1.95 L15.6 -1.75 Q15.6 -1.7 15.5 -1.65 L15.4 -1.55 15.35 -1.45 15.35 -1.4 15.3 -1.4 15.4 -1.65 15.55 -1.95" fill="#31a800" fill-opacity="0.6" fill-rule="evenodd" stroke="none"/>
      <path d="M5.55 -1.8 Q5.55 -1.75 5.6 -1.75 L5.65 -1.8 5.9 -1.8 5.7 -1.75 5.6 -1.75 Q5.55 -1.75 5.55 -1.8 L5.5 -1.9 5.5 -1.95 5.85 -1.95 5.95 -2.0 6.05 -2.1 6.15 -2.25 6.35 -2.2 Q6.5 -2.2 6.8 -2.05 L6.75 -1.95 6.65 -1.95 6.55 -2.05 6.5 -2.05 Q6.5 -2.1 6.5 -2.05 L6.6 -2.05 6.65 -1.95 6.75 -2.05 6.45 -2.2 6.2 -2.2 6.05 -2.1 5.85 -1.9 5.75 -1.95 5.7 -1.95 5.6 -1.9 5.55 -1.9 5.55 -1.8 M8.05 -3.3 L8.05 -3.25 8.0 -3.2 8.0 -3.25 7.8 -3.15 7.7 -3.05 7.7 -3.0 Q7.75 -3.0 7.8 -3.0 L7.9 -3.0 7.95 -3.05 7.9 -2.95 7.75 -3.0 7.7 -3.0 Q7.6 -3.0 7.6 -2.95 L7.55 -3.0 7.55 -3.1 7.6 -3.05 7.55 -3.05 7.55 -3.0 7.65 -3.0 7.65 -3.05 7.8 -3.15 7.95 -3.3 8.05 -3.3 M6.4 -0.75 L6.25 -0.6 6.3 -0.5 6.35 -0.35 6.35 -0.25 6.3 -0.25 6.2 -0.35 Q6.15 -0.4 6.15 -0.45 L6.25 -0.65 6.2 -0.65 6.2 -0.7 6.25 -0.7 6.25 -0.65 6.35 -0.75 6.3 -0.85 6.2 -0.85 6.2 -0.9 6.3 -0.9 6.35 -0.85 6.35 -0.8 6.4 -0.75 M6.2 -0.45 Q6.2 -0.4 6.3 -0.25 L6.35 -0.35 6.3 -0.5 6.25 -0.6 6.2 -0.55 6.2 -0.45 M9.5 1.05 L9.45 1.15 9.25 1.75 9.2 1.8 9.3 1.75 9.25 1.85 9.2 1.9 9.1 2.1 9.1 2.15 9.05 2.15 9.1 2.1 9.1 2.05 9.15 1.95 9.15 1.55 Q9.2 1.35 9.35 1.2 L9.35 1.15 9.4 1.05 9.45 0.9 9.45 0.75 9.5 0.45 9.5 0.15 9.55 -0.05 9.6 -0.2 9.6 -0.4 Q9.65 -0.5 9.65 -0.55 L9.65 -0.65 9.75 -0.9 9.6 -1.1 9.5 -1.15 9.4 -1.25 9.35 -1.35 9.25 -1.4 9.1 -1.4 9.0 -1.3 8.95 -1.3 8.8 -1.15 8.7 -1.1 8.65 -1.05 8.6 -1.05 8.6 -1.0 8.5 -1.0 8.5 -0.95 8.45 -0.95 8.3 -0.85 8.2 -0.75 8.2 -0.6 8.25 -0.55 8.25 -0.5 8.35 -0.4 8.35 -0.25 Q8.4 -0.1 8.45 0.25 L8.45 0.3 8.4 0.3 8.4 0.05 8.35 -0.25 8.25 -0.5 8.2 -0.6 8.2 -0.4 8.3 -0.15 8.4 0.25 8.4 0.3 8.3 -0.15 8.2 -0.4 8.15 -0.6 8.15 -0.75 8.1 -0.8 8.15 -0.9 8.25 -0.95 8.55 -1.05 8.6 -1.05 8.8 -1.2 8.9 -1.25 8.95 -1.3 8.95 -1.35 9.05 -1.45 9.15 -1.6 9.15 -1.55 9.25 -1.55 9.25 -1.5 9.3 -1.4 9.35 -1.35 9.4 -1.35 9.4 -1.3 9.45 -1.2 9.5 -1.15 9.6 -1.1 9.75 -1.0 9.9 -0.8 9.9 -0.55 9.85 -0.35 9.85 0.0 9.9 0.15 9.9 0.2 9.95 0.25 9.95 0.55 Q9.95 0.65 9.7 1.25 L9.65 1.4 9.45 1.6 9.6 1.4 9.7 1.25 Q9.95 0.65 9.95 0.55 L9.9 0.25 9.9 0.45 9.8 0.65 9.7 0.8 9.55 1.05 9.5 1.05 9.5 0.95 Q9.5 0.9 9.55 0.85 L9.55 0.7 9.6 0.55 9.7 0.35 9.55 0.05 9.65 -0.15 9.7 -0.2 Q9.65 -0.3 9.65 -0.4 L9.65 -0.35 9.65 -0.2 9.55 0.0 9.5 0.15 9.5 0.6 9.45 0.75 9.45 0.85 9.4 1.05 9.35 1.15 9.5 1.05 M8.4 -0.9 L8.55 -1.05 8.3 -0.95 8.2 -0.9 8.2 -0.85 8.15 -0.8 8.15 -0.7 8.3 -0.85 8.4 -0.9 M8.6 -1.05 L8.6 -1.05 M7.7 -0.5 Q7.85 -0.4 7.85 -0.3 L7.85 -0.1 Q7.85 0.05 7.9 0.2 L7.95 0.35 7.9 0.4 7.85 0.5 7.8 0.5 7.8 0.4 7.85 0.4 7.85 0.45 7.9 0.4 7.9 0.35 7.8 -0.1 7.85 -0.3 Q7.85 -0.4 7.75 -0.45 7.65 -0.55 7.6 -0.65 L7.55 -0.6 7.55 -0.7 7.65 -0.6 7.7 -0.5 M9.85 -0.65 L9.8 -0.55 9.8 -0.45 9.75 -0.35 9.7 -0.2 9.85 -0.1 9.85 -0.6 9.9 -0.75 9.85 -0.65 M15.0 -4.0 L15.1 -4.0 15.2 -3.95 15.05 -3.95 15.0 -4.0 M14.6 -3.85 L14.7 -3.85 14.6 -3.8 14.6 -3.85 M15.15 -3.8 L15.35 -4.0 15.55 -3.7 15.6 -3.7 15.65 -3.65 15.65 -3.6 15.85 -3.3 Q16.05 -2.9 16.05 -2.8 L16.05 -2.7 15.65 -2.4 15.55 -2.2 15.6 -2.2 15.6 -2.1 15.55 -2.0 15.6 -1.95 Q15.7 -1.85 15.7 -1.75 L15.45 -1.5 Q15.3 -1.35 15.25 -1.3 L15.15 -1.2 15.2 -1.15 15.05 -1.15 15.05 -1.25 14.85 -1.35 14.6 -1.65 Q14.45 -1.8 14.45 -1.85 L14.5 -2.05 14.5 -2.3 14.45 -2.45 14.45 -2.5 14.55 -2.45 14.55 -2.4 14.6 -2.4 14.65 -2.35 14.8 -2.3 14.85 -2.3 14.9 -2.25 14.9 -1.95 15.1 -1.85 Q15.2 -1.8 15.2 -1.75 L15.1 -1.55 15.15 -1.4 15.2 -1.55 15.35 -1.8 15.2 -2.15 15.45 -2.45 15.75 -2.85 15.75 -3.1 Q15.75 -3.25 15.55 -3.6 L15.4 -3.65 15.3 -3.7 15.5 -3.7 15.5 -3.65 15.35 -3.9 15.05 -3.6 Q14.85 -3.45 14.6 -3.45 14.35 -3.35 14.25 -3.35 L14.15 -3.25 14.25 -3.15 14.25 -2.95 14.2 -2.85 14.1 -2.85 14.05 -2.8 13.95 -2.8 14.0 -2.9 14.15 -2.9 14.2 -2.95 14.2 -3.05 14.1 -3.25 Q14.1 -3.35 14.4 -3.45 14.85 -3.5 14.9 -3.55 L15.15 -3.8 M13.0 -3.8 L12.9 -4.05 Q13.0 -4.1 13.2 -4.25 L13.4 -4.4 13.65 -4.1 Q13.85 -3.9 13.85 -3.8 13.85 -3.75 13.7 -3.65 L13.55 -3.55 Q13.3 -3.6 13.25 -3.55 L13.15 -3.5 13.1 -3.5 13.15 -3.45 13.4 -3.45 Q13.25 -3.35 13.2 -3.35 L13.1 -3.4 13.05 -3.5 Q13.05 -3.55 13.1 -3.55 L13.25 -3.6 13.5 -3.6 13.65 -3.7 Q13.75 -3.75 13.8 -3.8 L13.65 -4.05 13.45 -4.35 13.2 -4.2 Q13.0 -4.05 13.0 -4.0 L13.0 -3.95 13.1 -3.9 Q13.1 -3.95 13.1 -3.85 L13.05 -3.8 13.0 -3.8 M13.3 -2.8 L13.4 -2.8 Q13.55 -2.8 13.55 -2.95 L13.55 -3.05 13.6 -3.0 13.65 -2.9 13.5 -2.85 13.35 -2.75 13.3 -2.75 13.3 -2.8 M15.75 -2.75 L15.55 -2.5 15.25 -2.15 15.35 -1.9 15.35 -2.05 Q15.35 -2.15 15.5 -2.3 L15.6 -2.45 15.75 -2.65 15.75 -2.75 M14.65 -1.85 L14.9 -1.5 14.8 -1.8 14.55 -2.25 14.55 -2.05 14.6 -2.05 14.6 -2.0 14.65 -1.85 M15.15 -1.7 L15.15 -1.75 15.05 -1.85 14.9 -1.9 14.95 -1.9 14.95 -1.8 15.0 -1.75 15.0 -1.65 Q15.0 -1.6 15.05 -1.5 L15.1 -1.45 15.05 -1.55 15.1 -1.65 15.15 -1.7 M15.55 -1.95 L15.4 -1.65 15.3 -1.4 15.35 -1.4 15.35 -1.45 15.4 -1.55 15.5 -1.65 Q15.6 -1.7 15.6 -1.75 L15.55 -1.95 M9.9 0.2 L9.85 0.0 9.85 0.45 9.9 0.4 9.9 0.2 M8.2 0.7 L8.35 0.55 8.4 0.45 8.35 0.6 8.25 0.7 8.2 0.7 Q8.15 0.75 8.1 0.8 7.95 0.8 7.8 0.95 L7.75 1.05 7.75 0.95 7.8 0.95 Q7.95 0.8 8.05 0.75 L8.2 0.7" fill="#262626" fill-opacity="0.8" fill-rule="evenodd" stroke="none"/>
      <path d="M10.75 -23.65 Q10.75 -23.75 10.8 -23.75 10.9 -23.8 10.95 -23.75 L11.0 -23.75 11.0 -23.7 11.2 -23.5 11.35 -23.3 11.4 -23.2 11.35 -23.1 11.3 -23.05 11.2 -23.0 11.1 -23.0 11.1 -23.05 Q11.0 -23.05 10.9 -23.25 L10.85 -23.25 Q10.75 -23.4 10.75 -23.5 L10.75 -23.65 M7.1 -26.05 L7.15 -26.1 Q7.2 -26.2 7.3 -26.15 L7.4 -26.2 Q7.45 -26.3 7.6 -26.3 L7.7 -26.3 7.9 -26.1 Q8.0 -26.0 8.2 -25.95 L8.25 -25.9 8.3 -25.9 8.35 -25.75 8.4 -25.7 8.4 -25.65 8.35 -25.6 8.25 -25.55 8.2 -25.55 8.25 -25.5 8.35 -25.45 8.4 -25.4 8.45 -25.3 8.45 -25.2 8.3 -25.05 8.2 -25.05 Q7.95 -25.1 7.9 -25.35 7.85 -25.5 7.9 -25.65 L7.7 -25.8 7.6 -25.9 7.5 -25.9 7.5 -25.85 7.55 -25.9 7.55 -25.85 Q7.6 -25.8 7.6 -25.6 L7.6 -25.4 7.55 -25.4 Q7.55 -25.35 7.45 -25.35 7.4 -25.35 7.4 -25.4 L7.3 -25.45 Q7.1 -25.65 7.1 -25.9 L7.1 -26.05 M9.9 -24.8 L10.15 -24.8 10.35 -24.65 Q10.5 -24.55 10.55 -24.4 L10.55 -24.3 10.5 -24.3 10.45 -24.2 10.35 -24.2 10.3 -24.25 10.1 -24.35 10.1 -24.25 10.05 -24.15 Q10.0 -24.15 9.95 -24.1 L9.75 -24.1 9.7 -24.15 9.6 -24.2 Q9.45 -24.3 9.45 -24.35 L9.45 -24.4 Q9.45 -24.55 9.65 -24.55 L9.75 -24.55 9.75 -24.65 Q9.75 -24.7 9.8 -24.75 9.85 -24.8 9.9 -24.8 M11.95 -23.35 Q12.05 -23.4 12.3 -23.2 L12.3 -23.05 Q12.3 -23.0 12.2 -22.9 L12.0 -22.9 Q11.95 -22.9 11.95 -22.95 11.9 -22.95 11.85 -22.95 11.85 -23.0 11.85 -23.05 L11.85 -23.25 11.9 -23.35 11.95 -23.35" fill="#31a800" fill-opacity="0.6" fill-rule="evenodd" stroke="none"/>
      <path d="M10.4 -24.35 L10.2 -24.45 9.95 -24.6 9.95 -24.25 9.8 -24.25 9.7 -24.3 Q9.6 -24.35 9.6 -24.4 L9.65 -24.45 9.9 -24.4 9.9 -24.65 10.05 -24.7 10.25 -24.55 Q10.35 -24.45 10.4 -24.35 M11.25 -23.2 L11.15 -23.15 Q11.1 -23.2 11.0 -23.3 10.9 -23.45 10.9 -23.5 L10.9 -23.6 Q11.0 -23.55 11.1 -23.4 L11.25 -23.2 M8.2 -25.8 L8.25 -25.7 8.1 -25.65 Q8.05 -25.65 8.05 -25.55 8.05 -25.5 8.15 -25.4 L8.3 -25.3 8.25 -25.2 Q8.05 -25.25 8.0 -25.4 8.0 -25.55 8.1 -25.7 L7.8 -25.9 7.6 -26.05 7.4 -26.0 7.3 -25.95 7.3 -25.9 7.45 -25.8 7.45 -25.55 7.4 -25.55 Q7.25 -25.7 7.25 -25.9 L7.25 -26.0 7.55 -26.05 Q7.55 -26.15 7.65 -26.2 L7.8 -26.0 Q7.95 -25.85 8.2 -25.8 M12.15 -23.05 L12.05 -23.0 11.95 -23.05 11.95 -23.25 Q12.05 -23.25 12.2 -23.1 L12.15 -23.05" fill="#262626" fill-rule="evenodd" stroke="none"/>
    </g>
    <g id="shape1" transform="matrix(1.0, 0.0, 0.0, 1.0, 10.75, 2.5)">
      <path d="M11.5 -0.95 L11.55 -1.0 11.8 -1.1 11.9 -1.15 12.0 -1.15 12.5 -1.25 12.55 -1.3 13.5 -1.3 Q14.0 -1.2 14.15 -1.1 L14.45 -0.85 14.55 -0.55 Q14.65 -0.35 14.85 -0.25 L14.9 -0.05 Q15.0 0.05 15.1 0.05 L15.1 0.0 15.15 0.0 15.25 0.5 15.25 0.8 15.2 0.95 15.15 1.05 Q15.15 1.3 14.95 1.55 14.8 1.8 14.8 1.85 L14.8 1.95 14.85 2.0 14.95 2.05 15.25 2.05 15.6 1.7 Q15.75 1.5 15.75 1.3 L15.7 1.25 15.7 1.3 15.65 1.3 15.75 1.05 Q15.85 0.9 16.15 0.85 L16.25 0.9 16.35 0.9 Q16.45 0.9 16.45 0.75 L16.5 0.55 Q16.5 0.4 16.4 0.25 16.3 0.05 16.1 0.05 L16.05 0.0 16.05 -0.1 Q16.05 -0.45 16.45 -0.55 L17.0 -0.6 17.1 -0.75 17.35 -0.95 17.4 -1.0 Q17.45 -1.05 17.5 -1.05 17.65 -1.15 18.3 -1.1 L18.2 -1.3 18.2 -1.45 Q18.2 -1.65 18.45 -1.95 18.6 -2.15 18.75 -2.25 L18.8 -2.35 Q18.85 -2.4 18.9 -2.4 L18.95 -2.4 18.95 -2.45 19.35 -2.45 19.5 -2.5 19.65 -2.5 20.25 -2.4 Q20.35 -2.35 20.4 -2.25 L20.7 -1.95 20.9 -1.55 20.9 -1.3 Q20.9 -1.25 20.95 -1.15 L21.05 -0.95 21.15 -0.95 21.15 -0.85 Q21.15 -0.7 21.0 -0.45 L20.75 -0.05 20.55 0.15 20.55 0.25 20.5 0.35 20.15 0.7 20.15 0.5 Q20.1 0.4 20.15 0.35 L20.15 0.3 Q19.8 0.4 19.65 0.7 19.5 1.0 19.25 1.15 L19.35 1.15 Q19.35 1.1 19.35 1.2 L19.25 1.35 19.1 1.5 Q19.0 1.6 18.9 1.6 L18.6 1.6 Q18.55 1.6 18.5 1.7 L18.35 1.75 18.45 1.55 18.45 1.35 18.15 1.3 18.05 1.25 18.05 1.15 Q17.8 1.2 17.6 1.35 L17.45 1.4 17.35 1.5 17.3 1.65 17.25 1.75 17.15 1.85 16.85 2.05 16.55 2.15 16.3 2.2 16.2 2.1 16.15 1.95 16.0 2.05 Q15.95 2.05 15.9 2.1 L15.75 2.3 15.2 2.45 15.2 2.5 15.15 2.5 15.1 2.65 15.15 2.7 15.1 2.8 14.65 2.95 14.0 3.1 Q13.95 3.15 13.95 3.05 L14.05 2.95 14.15 2.8 14.15 2.6 14.1 2.6 14.0 2.55 13.9 2.45 13.85 2.35 13.85 2.2 Q13.8 2.15 13.75 2.1 L13.4 2.1 13.1 2.15 12.95 2.2 Q12.8 2.2 12.6 2.35 L12.4 2.45 12.35 2.5 Q12.3 2.75 12.05 2.8 L11.85 2.9 11.75 3.0 11.65 3.0 11.65 2.95 11.55 2.9 11.6 2.85 11.65 2.85 11.7 2.8 11.6 2.7 11.5 2.65 11.15 2.65 11.0 2.5 10.95 2.5 10.9 2.55 10.8 2.55 10.8 2.6 10.75 2.6 Q10.65 2.6 10.75 2.55 L10.75 2.5 Q10.65 2.5 10.6 2.55 L10.45 2.5 10.4 2.45 Q10.25 2.45 9.85 2.75 L9.5 3.0 Q9.5 3.05 9.45 3.1 L9.25 3.1 9.15 3.15 9.1 3.25 Q9.0 3.3 8.75 3.35 L8.4 3.45 8.4 3.4 8.5 3.2 8.5 3.0 8.3 2.95 Q8.3 2.85 8.15 2.75 L7.95 2.6 Q7.55 2.6 7.25 2.85 L6.9 3.2 Q6.45 3.25 6.4 3.35 L6.35 3.45 6.25 3.55 6.1 3.55 5.95 3.6 5.8 3.6 5.7 3.65 5.5 3.65 5.5 3.6 5.4 3.55 5.3 3.55 Q5.5 3.5 5.8 3.3 6.05 3.1 6.05 2.9 6.05 2.85 6.25 2.7 6.45 2.5 6.6 2.5 L6.7 2.55 6.75 2.55 6.9 2.5 Q6.95 2.5 7.0 2.35 L7.1 2.2 7.1 1.9 6.95 1.9 Q6.95 1.75 7.15 1.65 7.35 1.5 7.8 1.5 L7.9 1.5 7.9 1.45 8.25 1.45 Q8.6 1.6 8.6 1.65 L8.55 1.85 8.6 1.95 8.65 1.95 8.95 1.65 8.9 1.55 8.85 1.55 8.85 1.5 Q8.9 1.4 8.95 1.35 9.05 1.3 9.15 1.2 9.25 1.15 9.45 1.1 L9.75 1.05 Q10.15 1.05 10.4 1.2 10.65 1.35 10.65 1.4 L10.6 1.5 10.5 1.6 10.55 1.65 Q10.55 1.7 10.6 1.7 L10.7 1.65 10.8 1.65 Q10.9 1.6 10.9 1.5 10.9 1.35 10.95 1.35 L11.05 1.3 11.15 1.2 11.25 1.15 11.4 1.15 Q11.55 1.05 11.55 0.9 L11.6 0.6 11.55 0.45 11.55 0.35 11.4 0.05 11.2 -0.05 11.2 -0.15 11.1 -0.25 11.1 -0.45 11.15 -0.55 11.45 -0.9 11.5 -0.95 M18.75 -0.1 L18.9 0.0 19.1 0.0 Q19.3 -0.1 19.4 -0.3 19.5 -0.5 19.5 -0.65 L19.45 -0.8 Q19.4 -0.85 19.3 -0.9 L19.3 -0.8 19.15 -0.7 Q19.0 -0.6 18.75 -0.65 18.8 -0.55 18.8 -0.4 L18.75 -0.25 18.75 -0.1 M14.85 2.05 L14.85 2.05 M4.75 2.95 L4.75 3.05 Q4.7 3.1 4.6 3.1 4.55 3.1 4.45 3.15 L4.4 3.15 4.5 3.0 4.6 2.95 4.75 2.95 M5.1 3.0 L5.0 3.0 5.1 2.9 5.25 2.9 5.25 3.0 Q5.35 3.0 5.5 3.05 L5.4 3.15 5.25 3.2 5.15 3.2 5.15 3.05 5.1 3.0 M0.95 2.65 Q1.1 2.5 1.35 2.6 L1.45 2.6 1.6 2.75 1.6 2.8 1.55 2.8 1.45 2.85 1.2 2.85 1.15 2.9 1.2 2.9 Q1.15 2.95 1.0 3.0 L0.95 3.1 0.9 3.15 0.85 3.05 0.9 2.85 0.85 2.75 0.95 2.65 M0.2 2.4 L0.15 2.45 0.0 2.45 0.0 2.4 -0.1 2.5 -0.15 2.5 -0.15 2.45 Q-0.15 2.35 -0.1 2.35 L0.0 2.35 0.0 2.4 0.05 2.35 0.2 2.4 M0.95 3.2 Q0.95 3.15 0.95 3.1 L1.0 3.1 Q1.05 3.1 1.1 3.15 L1.0 3.35 0.95 3.25 0.95 3.2 M2.05 2.95 L2.15 2.85 2.35 2.85 2.35 3.05 Q2.35 2.95 2.5 2.95 L2.5 3.0 2.45 3.1 2.4 3.15 2.35 3.15 2.3 3.2 Q2.25 3.25 2.25 3.3 2.25 3.35 2.3 3.4 2.4 3.45 2.45 3.5 L2.5 3.55 2.05 3.55 Q1.95 3.4 1.95 3.35 1.95 3.2 1.95 3.1 L2.05 2.95 M1.65 3.0 L1.65 2.9 1.8 2.9 1.85 3.0 1.65 3.0 M-8.8 -1.95 L-8.55 -1.95 Q-8.5 -1.95 -8.4 -1.9 L-8.35 -1.75 -8.35 -1.65 -8.45 -1.65 -8.45 -1.5 -8.4 -1.4 -8.15 -1.35 -8.15 -1.25 -8.1 -1.15 -8.1 -1.1 -8.2 -1.1 -8.2 -1.0 -8.15 -0.95 -8.0 -0.95 Q-7.55 -0.95 -7.45 -0.7 L-7.2 -0.65 Q-7.1 -0.55 -7.1 -0.5 -7.05 -0.5 -7.05 -0.4 L-7.1 -0.3 -7.15 -0.15 Q-7.15 -0.05 -7.2 0.0 L-7.25 0.15 Q-7.35 0.25 -7.55 0.2 -7.5 0.4 -7.45 0.4 L-7.3 0.3 -7.15 0.3 -7.05 0.35 -7.0 0.25 -6.95 0.2 -7.1 0.2 -7.1 0.0 Q-7.1 -0.25 -7.05 -0.35 L-6.9 -0.5 Q-6.85 -0.5 -6.85 -0.55 L-6.9 -0.6 -6.55 -0.8 Q-6.25 -0.9 -6.15 -0.9 -5.75 -0.9 -5.65 -0.75 L-5.45 -0.55 -5.25 -0.55 Q-5.15 -0.55 -5.15 -0.45 L-5.05 -0.25 Q-5.0 -0.2 -5.0 -0.1 L-5.0 0.3 Q-5.05 0.3 -5.15 0.4 L-5.25 0.45 -5.35 0.45 -5.4 0.5 -5.35 0.55 -5.2 0.6 Q-5.1 0.65 -5.1 0.75 L-5.15 0.85 -5.2 0.9 -5.0 1.05 Q-4.85 1.05 -4.85 1.0 L-4.85 0.85 Q-4.85 0.8 -4.75 0.75 -4.65 0.65 -4.5 0.65 L-4.3 0.65 -4.25 0.75 -4.25 0.85 -4.15 0.85 Q-4.1 0.75 -4.0 0.7 L-4.1 0.45 Q-4.2 0.3 -4.35 0.25 L-4.35 0.0 -4.3 -0.35 -4.25 -0.45 -4.2 -0.6 -4.15 -0.65 Q-4.0 -1.0 -3.85 -1.0 -3.6 -1.15 -3.05 -1.2 -3.05 -1.15 -2.9 -1.1 L-2.7 -0.95 -2.5 -1.0 Q-2.45 -1.0 -2.35 -1.05 L-2.2 -1.0 -2.1 -1.0 -1.85 -0.8 -1.65 -0.55 -1.6 -0.4 -1.55 -0.3 -1.5 0.05 Q-1.45 0.3 -1.45 0.7 -1.5 0.9 -1.6 0.9 L-1.7 0.8 -1.8 0.8 Q-1.85 0.85 -1.9 0.85 L-1.85 0.85 -1.85 0.95 Q-1.85 1.0 -1.95 1.05 L-2.15 1.2 -2.3 1.2 Q-2.25 1.25 -2.3 1.3 L-2.3 1.5 Q-2.3 1.7 -2.2 1.75 L-1.8 1.8 Q-1.7 1.85 -1.7 1.95 -1.7 2.1 -1.75 2.15 L-1.7 2.15 -1.55 2.3 -1.45 2.35 -1.1 2.15 -1.1 1.95 -1.0 1.8 -0.85 1.65 Q-0.7 1.75 -0.7 1.85 -0.7 2.0 -0.8 2.0 -0.95 1.95 -1.0 2.15 L-0.95 2.2 -0.9 2.2 Q-0.8 2.2 -0.75 2.35 L-0.75 2.5 -0.8 2.6 -0.85 2.65 -0.85 2.7 Q-0.8 2.7 -0.8 2.75 -0.8 2.95 -0.9 2.95 L-1.25 2.95 -1.3 3.0 -1.3 2.95 -1.4 2.95 -1.6 2.75 -1.85 2.75 -1.95 2.85 -2.3 2.8 -2.45 2.6 -2.55 2.45 -2.5 2.4 -2.7 2.4 -2.85 2.15 -3.1 2.15 -3.05 2.25 -3.05 2.35 -3.1 2.35 Q-3.1 2.4 -3.1 2.45 L-3.15 2.45 -3.35 2.2 Q-3.55 2.0 -3.65 2.0 L-3.7 2.05 -3.75 2.05 Q-3.85 2.05 -3.95 1.85 L-4.05 1.85 -4.1 1.95 -4.2 1.95 -4.6 1.8 -4.65 1.65 -4.65 1.55 -4.7 1.5 -4.9 1.5 -4.95 1.65 -4.9 1.7 Q-4.9 1.8 -5.05 1.85 L-5.3 2.0 -5.4 2.0 -5.5 1.9 -5.55 1.9 -5.7 1.95 Q-5.75 1.95 -5.75 2.0 L-5.75 2.05 -5.65 2.25 -5.65 2.3 -5.7 2.3 -5.95 2.15 Q-6.0 2.15 -6.15 2.25 -6.4 2.15 -6.5 2.1 -6.65 2.0 -6.6 1.85 -6.6 1.8 -6.65 1.7 L-6.75 1.6 Q-6.85 1.45 -6.9 1.45 -7.0 1.45 -7.05 1.25 L-7.1 1.2 -7.2 1.2 Q-7.3 1.2 -7.35 1.25 L-7.35 1.4 -7.3 1.45 Q-7.3 1.5 -7.4 1.6 L-7.5 1.6 -7.6 1.7 -7.8 1.8 -7.85 1.95 -7.8 2.0 -8.1 1.9 Q-8.15 1.9 -8.2 1.95 L-8.35 1.95 -8.6 1.7 -8.6 1.45 Q-8.6 1.3 -8.6 1.25 L-8.5 1.15 -8.5 1.05 -8.55 0.8 Q-8.7 0.55 -8.7 0.4 L-8.8 0.4 -8.8 0.35 -8.9 0.15 Q-8.95 0.15 -9.0 0.1 L-9.1 0.05 -9.25 0.0 Q-9.6 -0.1 -9.6 -0.25 -9.65 -0.4 -9.55 -0.6 L-9.6 -0.6 -9.7 -0.65 Q-9.85 -0.65 -9.95 -0.6 L-10.0 -0.5 -9.9 -0.4 -9.85 -0.25 -10.0 -0.05 -10.0 0.0 -9.9 0.1 Q-9.9 0.0 -9.85 -0.05 L-9.65 0.0 Q-9.5 0.15 -9.5 0.3 L-9.45 0.3 -9.3 0.25 Q-9.25 0.4 -9.25 0.5 -9.25 0.55 -9.3 0.6 -9.4 0.7 -9.45 0.7 L-9.4 0.75 -9.4 0.8 Q-9.35 0.75 -9.3 0.7 L-9.2 0.65 -9.1 0.65 -9.1 0.7 -8.95 0.7 -8.85 0.65 Q-8.65 0.6 -8.65 0.75 -8.65 0.8 -8.7 0.85 L-8.8 0.95 -8.85 0.95 -8.9 1.0 -9.05 1.0 -9.2 1.05 Q-9.2 1.1 -9.15 1.2 L-9.3 1.2 Q-9.4 1.1 -9.4 1.05 L-9.4 0.85 Q-9.6 0.75 -9.75 0.55 L-9.9 0.5 -9.95 0.35 -10.05 0.35 -10.05 0.45 -10.0 0.45 -10.05 0.5 Q-10.3 0.45 -10.45 0.2 -10.55 0.0 -10.5 -0.15 L-10.65 -0.15 -10.7 -0.4 -10.75 -0.6 -10.75 -0.9 Q-10.7 -1.1 -10.55 -1.2 L-10.5 -1.2 -10.5 -1.3 -10.55 -1.4 -10.6 -1.45 Q-10.6 -1.6 -10.4 -1.85 -10.2 -2.1 -9.9 -2.2 -9.2 -2.6 -8.8 -1.95 M-0.45 1.45 Q-0.45 1.55 -0.55 1.6 L-0.6 1.55 -0.6 1.3 -0.5 1.35 -0.45 1.45 M-4.05 1.45 L-4.05 1.45 M-4.1 1.3 L-4.1 1.3" fill="#c1ff3f" fill-rule="evenodd" stroke="none"/>
      <path d="M16.05 0.0 L16.5 0.0 16.5 0.1 16.6 0.15 16.8 0.15 Q17.0 0.15 17.2 0.0 L17.4 -0.15 17.55 -0.25 Q18.0 -0.25 18.3 -0.55 18.5 -0.7 18.5 -0.85 L18.55 -0.8 18.7 -0.7 18.55 -0.9 18.65 -0.9 Q18.75 -0.9 19.0 -1.05 L19.25 -1.25 19.35 -1.5 19.4 -1.75 19.35 -1.9 19.4 -2.05 19.4 -2.1 Q19.4 -2.2 19.35 -2.25 L19.3 -2.25 19.3 -2.3 19.45 -2.35 19.9 -2.4 20.25 -2.4 20.7 -1.95 20.9 -1.55 20.9 -1.3 Q20.9 -1.25 20.95 -1.15 L21.05 -0.95 21.15 -0.95 21.15 -0.85 Q21.15 -0.7 21.0 -0.45 L20.75 -0.05 20.55 0.15 20.55 0.25 20.5 0.35 20.2 0.65 20.25 0.45 20.25 0.3 20.15 0.3 Q19.8 0.4 19.65 0.7 19.5 1.0 19.25 1.15 L19.35 1.15 Q19.35 1.1 19.35 1.2 L19.25 1.35 19.1 1.5 Q19.0 1.6 18.9 1.6 L18.6 1.6 Q18.55 1.6 18.5 1.7 L18.35 1.75 18.45 1.55 18.45 1.35 18.15 1.3 18.05 1.25 18.05 1.15 Q17.8 1.2 17.6 1.35 L17.45 1.4 17.35 1.5 17.3 1.65 17.25 1.75 17.15 1.85 16.85 2.05 16.55 2.15 16.3 2.2 16.2 2.1 16.15 1.95 16.0 2.05 Q15.95 2.05 15.9 2.1 L15.75 2.3 15.2 2.45 15.2 2.5 15.15 2.5 15.1 2.65 15.15 2.7 15.1 2.8 14.65 2.95 14.0 3.1 Q13.95 3.15 13.95 3.05 L14.05 2.95 14.15 2.8 14.15 2.6 14.1 2.6 14.0 2.55 13.9 2.45 13.85 2.35 13.85 2.2 Q13.8 2.15 13.75 2.1 L13.4 2.1 13.1 2.15 12.95 2.2 Q12.8 2.2 12.6 2.35 L12.4 2.45 12.35 2.5 Q12.3 2.75 12.05 2.8 L11.85 2.9 11.75 3.0 11.65 3.0 11.65 2.95 11.55 2.9 11.6 2.85 11.65 2.85 11.7 2.8 11.6 2.7 11.5 2.65 11.15 2.65 11.0 2.5 10.95 2.5 10.9 2.55 10.8 2.55 10.8 2.6 10.75 2.6 Q10.65 2.6 10.75 2.55 L10.75 2.5 Q10.65 2.5 10.6 2.55 L10.45 2.5 10.4 2.45 Q10.25 2.45 9.85 2.75 L9.5 3.0 Q9.5 3.05 9.45 3.1 L9.25 3.1 9.15 3.15 9.1 3.25 Q9.0 3.3 8.75 3.35 L8.4 3.45 8.4 3.4 8.5 3.2 8.5 3.0 8.3 2.95 Q8.3 2.85 8.15 2.75 L7.95 2.6 Q7.55 2.6 7.25 2.85 L6.9 3.2 Q6.45 3.25 6.4 3.35 L6.35 3.45 6.25 3.55 6.1 3.55 5.95 3.6 5.8 3.6 5.7 3.65 5.5 3.65 5.5 3.6 5.45 3.6 5.7 3.45 Q6.1 3.3 6.1 3.2 L6.1 3.15 Q6.05 3.15 5.95 3.2 L6.05 3.05 5.95 3.15 Q6.05 3.0 6.05 2.9 6.05 3.0 6.2 3.0 L6.35 3.05 6.45 3.0 6.55 3.0 6.65 2.9 6.8 2.85 7.15 2.55 7.0 2.55 7.05 2.5 7.3 2.2 7.35 2.15 7.3 2.25 Q7.3 2.3 7.35 2.25 L8.0 1.9 8.45 1.75 8.55 1.85 8.6 1.95 8.75 1.95 8.95 1.85 9.05 1.95 9.4 2.0 9.5 1.95 Q9.9 1.9 10.25 1.6 L10.45 1.4 10.6 1.45 10.65 1.45 10.5 1.6 10.55 1.65 Q10.55 1.7 10.6 1.7 L10.7 1.65 10.85 1.65 11.05 1.55 11.15 1.55 11.3 1.5 11.4 1.4 11.35 1.25 Q11.6 1.15 11.7 0.9 11.75 0.8 11.75 0.55 11.95 0.4 12.25 0.25 L12.35 0.2 Q12.95 0.2 13.3 0.0 13.6 -0.2 13.65 -0.55 L13.7 -0.55 13.9 -0.25 Q14.1 0.0 14.35 0.0 L14.45 0.0 Q14.55 0.0 14.65 -0.1 L14.7 -0.1 15.05 0.25 15.05 0.3 Q15.15 0.45 15.15 0.6 L15.15 0.75 15.05 0.85 Q14.9 0.95 14.95 1.15 14.95 1.3 14.9 1.45 14.85 1.6 14.85 1.7 14.8 1.8 14.8 1.85 L14.8 1.95 14.85 2.0 14.95 2.05 15.25 2.05 15.5 1.8 15.55 1.8 Q15.8 1.8 16.1 1.4 L16.3 1.2 Q16.4 1.15 16.4 1.05 16.5 0.9 16.5 0.75 16.5 0.65 16.5 0.6 L16.5 0.55 Q16.5 0.4 16.4 0.25 16.3 0.05 16.1 0.05 L16.05 0.0 M18.2 -1.5 L18.25 -1.25 18.2 -1.3 18.2 -1.5 M18.75 -0.1 L18.9 0.0 19.1 0.0 Q19.3 -0.1 19.4 -0.3 L19.4 -0.35 Q19.75 -0.6 19.75 -0.8 19.75 -0.95 19.55 -1.0 19.35 -1.0 19.3 -0.85 L19.3 -0.8 19.15 -0.7 Q19.0 -0.6 18.75 -0.65 18.8 -0.55 18.8 -0.4 L18.75 -0.25 18.75 -0.1 M15.75 1.4 L15.75 1.4 M14.8 2.05 L14.8 2.05 M10.95 1.35 Q10.9 1.4 10.9 1.45 10.9 1.35 10.95 1.35 M11.8 0.2 L11.8 0.2 M4.75 2.95 L4.75 3.05 Q4.7 3.1 4.6 3.1 4.55 3.1 4.45 3.15 L4.4 3.15 4.5 3.0 4.6 2.95 4.75 2.95 M5.25 3.0 Q5.35 3.0 5.5 3.05 L5.4 3.15 5.25 3.2 5.15 3.2 5.15 3.05 5.1 3.0 5.0 3.0 5.1 2.9 5.25 2.9 5.25 3.0 M1.35 2.65 L1.3 2.6 1.3 2.55 1.35 2.6 1.45 2.6 1.6 2.75 1.6 2.8 1.55 2.8 1.45 2.85 1.2 2.85 1.15 2.9 1.2 2.9 Q1.15 2.95 1.0 3.0 L0.95 3.1 0.9 3.15 0.85 3.05 0.9 2.85 0.85 2.75 0.95 2.65 Q0.95 2.7 0.95 2.75 L0.95 2.9 1.05 2.85 1.2 2.75 1.25 2.7 1.35 2.65 M0.95 3.25 L0.95 3.2 Q0.95 3.15 0.95 3.1 L1.0 3.1 Q1.05 3.1 1.1 3.15 L1.0 3.35 0.95 3.25 M2.05 2.95 L2.15 2.85 2.3 2.85 Q2.0 2.85 2.0 3.15 L2.0 3.2 2.1 3.2 Q2.2 3.2 2.25 3.1 L2.35 2.95 2.35 3.05 Q2.35 2.95 2.5 2.95 L2.5 3.0 2.45 3.1 2.4 3.15 2.35 3.15 2.3 3.2 Q2.25 3.25 2.25 3.3 2.25 3.35 2.3 3.4 2.4 3.45 2.45 3.5 L2.5 3.55 2.05 3.55 Q1.95 3.4 1.95 3.35 1.95 3.2 1.95 3.1 L2.05 2.95 M1.65 2.9 L1.8 2.9 1.85 3.0 1.65 3.0 1.65 2.9 M-5.25 -0.55 L-5.25 -0.55 M-7.05 -0.35 L-7.0 -0.35 -7.05 -0.2 -7.05 -0.35 M-8.1 -0.95 L-8.0 -0.95 -8.1 -0.9 -8.1 -0.95 M-10.6 -1.5 L-10.55 -1.45 Q-10.5 -1.3 -10.2 -1.3 -10.15 -1.3 -9.9 -1.45 -9.65 -1.55 -9.1 -1.6 -8.65 -1.65 -8.45 -1.75 L-8.35 -1.75 -8.35 -1.65 -8.45 -1.65 -8.45 -1.5 -8.4 -1.45 -8.45 -1.35 -8.4 -1.25 -8.1 -1.25 -8.1 -1.1 -8.15 -1.1 -8.15 -1.15 -8.25 -1.0 -8.25 -0.85 Q-8.4 -0.75 -8.5 -0.55 L-8.55 -0.35 -8.65 -0.15 -8.65 0.3 Q-8.65 0.7 -8.4 0.85 -8.4 0.8 -8.35 0.7 -8.3 0.7 -8.25 0.7 -8.2 0.7 -8.1 0.6 -7.95 0.55 -7.95 0.45 L-7.85 0.25 -7.65 0.15 Q-7.5 0.05 -7.45 -0.1 L-7.4 -0.25 -7.3 -0.4 -7.25 -0.45 -7.1 -0.5 Q-7.05 -0.5 -7.05 -0.4 L-7.1 -0.3 -7.15 -0.15 Q-7.15 -0.05 -7.2 0.0 L-7.25 0.15 Q-7.35 0.25 -7.55 0.2 -7.5 0.4 -7.45 0.4 L-7.3 0.3 -7.15 0.3 -7.05 0.35 -7.05 0.25 -7.0 0.25 Q-6.9 0.25 -6.85 0.35 L-6.85 0.6 Q-6.85 0.75 -6.8 0.9 L-6.75 1.0 -6.5 0.8 -6.2 0.45 -5.6 0.1 -5.4 0.0 -5.25 -0.05 -5.1 0.0 -5.1 0.05 -5.0 0.2 -5.0 0.3 Q-5.05 0.3 -5.15 0.4 L-5.25 0.45 -5.35 0.45 -5.4 0.5 -5.35 0.55 -5.2 0.6 Q-5.1 0.65 -5.1 0.75 L-5.15 0.85 -5.2 0.9 -5.0 1.05 Q-4.85 1.05 -4.85 1.0 L-4.85 0.95 -4.7 1.1 Q-4.5 1.05 -4.4 1.0 -4.3 0.9 -4.3 0.7 L-4.3 0.65 -4.25 0.75 -4.25 0.85 -4.15 0.85 Q-4.15 0.75 -4.05 0.7 L-4.05 0.9 Q-4.0 1.0 -3.85 1.05 -3.4 0.95 -3.2 0.8 -3.1 0.65 -3.1 0.45 -2.95 0.4 -2.95 0.3 -2.95 0.05 -3.35 0.1 L-2.95 -0.1 Q-2.35 -0.5 -2.1 -0.5 L-1.9 -0.35 Q-1.75 -0.25 -1.7 -0.25 -1.6 -0.25 -1.55 -0.3 L-1.5 0.05 Q-1.45 0.3 -1.45 0.7 -1.5 0.9 -1.6 0.9 L-1.7 0.8 -1.8 0.8 Q-1.85 0.85 -1.9 0.85 L-1.85 0.85 -1.85 0.95 Q-1.85 1.0 -1.95 1.05 L-2.15 1.2 -2.3 1.2 Q-2.25 1.25 -2.3 1.3 L-2.3 1.5 Q-2.3 1.7 -2.2 1.75 L-1.8 1.8 Q-1.7 1.85 -1.7 1.95 -1.7 2.1 -1.75 2.15 L-1.7 2.15 -1.55 2.3 -1.45 2.35 -1.1 2.15 -1.1 1.9 -1.05 2.0 -1.0 2.0 Q-0.9 2.0 -0.85 1.95 -0.75 1.9 -0.75 1.85 L-0.75 1.75 -0.9 1.75 -0.85 1.65 Q-0.7 1.75 -0.7 1.85 -0.7 2.0 -0.8 2.0 -0.95 1.95 -1.0 2.15 L-0.95 2.2 -0.9 2.2 Q-0.8 2.2 -0.75 2.35 L-0.75 2.5 -0.8 2.6 -0.85 2.65 -0.85 2.7 Q-0.8 2.7 -0.8 2.75 -0.8 2.95 -0.9 2.95 L-1.25 2.95 -1.3 3.0 -1.3 2.95 -1.4 2.95 -1.6 2.75 -1.85 2.75 -1.95 2.85 -2.3 2.8 -2.45 2.6 -2.55 2.45 -2.5 2.4 -2.7 2.4 -2.85 2.15 -3.1 2.15 -3.05 2.25 -3.05 2.35 -3.1 2.35 Q-3.1 2.4 -3.1 2.45 L-3.15 2.45 -3.35 2.2 Q-3.55 2.0 -3.65 2.0 L-3.7 2.05 -3.75 2.05 Q-3.85 2.05 -3.95 1.85 L-4.05 1.85 -4.1 1.95 -4.2 1.95 -4.6 1.8 -4.65 1.65 -4.65 1.55 -4.7 1.5 -4.9 1.5 -4.95 1.65 -4.9 1.7 Q-4.9 1.8 -5.05 1.85 L-5.3 2.0 -5.4 2.0 -5.5 1.9 -5.55 1.9 -5.7 1.95 Q-5.75 1.95 -5.75 2.0 L-5.75 2.05 -5.65 2.25 -5.65 2.3 -5.7 2.3 -5.95 2.15 Q-6.0 2.15 -6.15 2.25 -6.4 2.15 -6.5 2.1 -6.65 2.0 -6.6 1.85 -6.6 1.8 -6.65 1.7 L-6.75 1.6 Q-6.85 1.45 -6.9 1.45 -7.0 1.45 -7.05 1.25 L-7.1 1.2 -7.2 1.2 Q-7.3 1.2 -7.35 1.25 L-7.35 1.4 -7.3 1.45 Q-7.3 1.5 -7.4 1.6 L-7.5 1.6 -7.6 1.7 -7.8 1.8 -7.85 1.95 -7.8 2.0 -8.1 1.9 Q-8.15 1.9 -8.2 1.95 L-8.35 1.95 -8.6 1.7 -8.6 1.55 Q-8.55 1.6 -8.4 1.6 L-8.25 1.45 Q-8.15 1.25 -8.15 1.2 -8.15 1.0 -8.4 1.1 L-8.55 1.2 -8.5 1.15 -8.5 1.05 -8.55 0.8 Q-8.7 0.55 -8.7 0.4 L-8.8 0.4 -8.8 0.35 -8.9 0.15 Q-8.95 0.15 -9.0 0.1 L-9.1 0.05 -9.4 -0.05 -9.4 -0.2 -9.45 -0.2 -9.4 -0.25 -9.4 -0.4 Q-9.4 -0.65 -9.5 -0.65 L-9.6 -0.6 -9.7 -0.65 Q-9.85 -0.65 -9.95 -0.6 L-10.0 -0.5 -9.9 -0.4 -9.85 -0.25 -10.0 -0.05 -10.0 0.0 -9.9 0.1 Q-9.9 0.0 -9.85 -0.05 L-9.65 0.0 Q-9.5 0.15 -9.5 0.3 L-9.45 0.3 -9.3 0.25 Q-9.25 0.4 -9.25 0.5 -9.25 0.55 -9.3 0.6 -9.4 0.7 -9.45 0.7 L-9.4 0.75 -9.4 0.8 Q-9.35 0.75 -9.3 0.7 L-9.2 0.65 -9.1 0.65 -9.1 0.7 -8.95 0.7 -8.85 0.65 Q-8.65 0.6 -8.65 0.75 -8.65 0.8 -8.7 0.85 L-8.8 0.95 -8.85 0.95 -8.9 1.0 -9.05 1.0 -9.2 1.05 Q-9.2 1.1 -9.15 1.2 L-9.3 1.2 Q-9.4 1.1 -9.4 1.05 L-9.4 0.85 Q-9.6 0.75 -9.75 0.55 L-9.9 0.5 -9.95 0.35 -10.05 0.35 -10.05 0.45 -10.0 0.45 -10.05 0.5 Q-10.3 0.45 -10.45 0.2 -10.55 0.0 -10.5 -0.15 L-10.65 -0.15 -10.7 -0.4 -10.65 -0.6 -10.35 -1.1 Q-10.35 -1.15 -10.45 -1.2 L-10.5 -1.2 -10.5 -1.3 -10.55 -1.4 -10.6 -1.45 -10.6 -1.5 M-0.45 1.4 L-0.45 1.45 Q-0.45 1.55 -0.5 1.6 L-0.5 1.6 -0.5 1.55 -0.45 1.55 -0.45 1.4 -0.6 1.4 -0.6 1.3 -0.5 1.35 -0.45 1.4 M-4.05 1.5 L-4.05 1.5 M-4.1 1.3 L-4.1 1.3" fill="#262626" fill-rule="evenodd" stroke="none"/>
    </g>
  </defs>
</svg>
