<?xml version="1.0" encoding="UTF-8" standalone="no"?>
<svg xmlns:ffdec="https://www.free-decompiler.com/flash" xmlns:xlink="http://www.w3.org/1999/xlink" ffdec:objectType="frame" height="231.35px" width="224.7px" xmlns="http://www.w3.org/2000/svg">
  <g transform="matrix(1.0, 0.0, 0.0, 1.0, 76.3, 204.4)">
    <use ffdec:characterId="3978" height="29.2" transform="matrix(7.0, 0.0, 0.0, 7.0, -41.3, -185.15)" width="22.5" xlink:href="#shape0"/>
  </g>
  <defs>
    <g id="shape0" transform="matrix(1.0, 0.0, 0.0, 1.0, 5.9, 26.45)">
      <path d="M2.4 -1.85 L2.45 -1.95 Q2.55 -2.05 2.8 -2.0 L3.0 -1.95 Q3.25 -1.85 3.25 -1.75 L3.2 -1.65 3.2 -1.55 3.15 -1.5 3.25 -1.45 3.35 -1.35 3.35 -1.25 3.25 -1.2 3.15 -1.25 2.85 -1.3 Q2.6 -1.35 2.6 -1.5 L2.6 -1.55 Q2.6 -1.6 2.8 -1.65 L2.85 -1.65 2.9 -1.6 2.9 -1.75 2.75 -1.8 2.7 -1.8 2.5 -1.65 2.3 -1.45 2.45 -1.3 2.65 -1.15 2.7 -1.15 2.8 -1.1 2.8 -1.05 Q2.8 -1.0 2.75 -0.95 L2.6 -0.9 2.5 -0.95 Q2.4 -1.0 2.3 -1.1 L2.3 -1.15 Q2.2 -1.25 2.1 -1.25 1.9 -1.3 1.9 -1.45 1.9 -1.5 2.4 -1.85 M2.5 -1.8 Q2.05 -1.5 2.05 -1.45 2.05 -1.35 2.15 -1.35 2.3 -1.3 2.4 -1.2 L2.45 -1.1 Q2.5 -1.05 2.55 -1.0 L2.65 -1.0 2.7 -1.05 2.6 -1.05 2.35 -1.25 Q2.25 -1.4 2.1 -1.45 L2.4 -1.7 2.65 -1.9 2.8 -1.85 3.05 -1.75 Q3.0 -1.7 3.0 -1.55 L3.05 -1.55 3.1 -1.65 3.1 -1.75 Q3.1 -1.8 2.95 -1.85 L2.75 -1.95 2.55 -1.9 2.5 -1.8 M0.6 -2.35 L0.6 -2.3 Q0.7 -2.2 0.85 -2.15 L0.9 -2.05 0.9 -2.0 0.85 -2.0 Q0.75 -2.0 0.65 -2.05 L0.55 -2.15 0.4 -2.2 0.2 -2.2 0.1 -2.15 -0.15 -1.95 Q-0.25 -1.9 -0.55 -1.75 L-0.75 -1.65 -0.7 -1.65 -0.75 -1.6 -0.7 -1.6 -0.55 -1.5 -0.45 -1.45 -0.4 -1.45 -0.05 -1.4 Q0.05 -1.4 0.1 -1.35 L0.15 -1.25 0.3 -1.2 Q0.45 -1.15 0.45 -1.0 L0.65 -1.0 0.65 -0.95 Q0.65 -0.85 0.25 -0.75 L0.2 -0.75 0.2 -0.8 0.15 -0.8 0.15 -0.75 0.1 -0.75 0.0 -0.7 -0.1 -0.7 -0.2 -0.75 -0.2 -0.8 -0.3 -0.85 -0.4 -0.8 -0.65 -0.8 -0.65 -0.85 -1.2 -0.95 -1.25 -0.95 Q-1.3 -0.95 -1.3 -1.0 -1.4 -1.05 -1.3 -1.1 L-1.05 -1.1 -1.3 -1.2 -2.0 -1.5 Q-2.5 -1.7 -2.75 -1.7 L-3.05 -1.65 -3.25 -1.6 -3.4 -1.5 Q-3.45 -1.55 -3.45 -1.6 L-3.5 -1.6 -3.5 -1.65 -3.55 -1.65 -3.55 -2.0 -3.5 -2.05 -3.3 -2.1 Q-2.35 -2.05 -1.8 -1.85 -1.4 -1.7 -1.15 -1.6 L-1.15 -1.65 Q-1.05 -1.75 -0.95 -1.8 L-0.75 -1.85 -0.7 -1.9 -0.25 -2.15 -0.2 -2.2 0.1 -2.35 0.6 -2.35 M0.25 -2.3 L0.55 -2.2 0.8 -2.1 0.5 -2.25 0.1 -2.3 Q0.0 -2.2 -0.6 -1.85 L-0.7 -1.8 -0.85 -1.75 -0.95 -1.7 -0.95 -1.65 Q-1.15 -1.55 -1.15 -1.5 L-1.15 -1.45 -1.2 -1.5 -1.55 -1.6 Q-2.45 -1.9 -2.85 -1.9 L-2.95 -1.95 -3.35 -1.95 -3.45 -1.65 -3.4 -1.65 -3.4 -1.6 -3.35 -1.6 -3.25 -1.7 -3.15 -1.75 -2.95 -1.75 -2.85 -1.8 Q-2.75 -1.75 -2.55 -1.7 L-2.1 -1.65 -1.85 -1.5 Q-1.7 -1.45 -1.55 -1.4 L-0.75 -1.1 -0.15 -0.85 -0.1 -0.85 -0.1 -0.8 0.0 -0.8 0.1 -0.85 0.05 -0.85 0.1 -0.9 0.25 -0.9 0.35 -0.95 Q0.4 -1.05 0.2 -1.15 L0.05 -1.2 Q0.05 -1.3 -0.05 -1.3 L-0.5 -1.4 Q-0.55 -1.45 -0.65 -1.5 L-0.8 -1.55 -0.9 -1.65 -0.75 -1.75 -0.65 -1.8 Q-0.2 -2.0 0.1 -2.25 L0.25 -2.3 M1.35 -1.1 L1.4 -1.1 1.45 -1.05 1.6 -1.05 1.65 -1.0 1.7 -1.0 1.85 -0.85 2.05 -1.0 2.15 -1.0 2.2 -0.95 2.45 -0.75 2.8 -0.55 2.85 -0.55 Q2.9 -0.55 2.9 -0.45 L2.85 -0.3 2.9 -0.35 3.0 -0.4 3.05 -0.4 3.05 -0.45 3.0 -0.65 2.85 -0.95 2.85 -1.0 2.9 -1.05 3.05 -1.05 Q3.2 -0.95 3.3 -0.7 3.4 -0.5 3.4 -0.35 L3.4 -0.25 Q3.4 -0.2 3.25 -0.2 L3.2 -0.2 3.2 -0.1 3.15 0.05 Q3.15 0.15 3.25 0.25 L3.25 0.3 3.15 0.4 3.0 0.4 2.95 0.35 2.6 0.1 Q2.35 -0.1 2.3 -0.2 2.25 -0.25 2.25 -0.45 2.2 -0.55 2.05 -0.65 L2.05 -0.6 Q2.05 -0.55 1.95 -0.5 L1.9 -0.4 1.95 -0.3 Q1.95 -0.2 1.95 -0.15 L1.85 0.05 1.85 0.1 Q1.85 0.2 1.9 0.35 L1.9 0.4 1.85 0.45 1.8 0.45 1.75 0.5 1.65 0.45 1.6 0.4 1.45 0.2 1.35 0.0 1.3 -0.25 1.25 -0.45 Q1.25 -0.5 1.55 -0.7 L1.65 -0.75 1.6 -0.75 1.6 -0.8 1.45 -0.85 1.25 -0.9 0.9 -0.75 Q0.75 -0.65 0.7 -0.6 L0.75 -0.6 Q0.8 -0.55 0.8 -0.5 0.8 -0.45 0.65 -0.3 L0.5 -0.15 0.5 -0.1 0.45 -0.05 0.3 -0.05 0.25 -0.1 Q0.2 -0.1 0.2 -0.15 L0.4 -0.35 0.5 -0.5 0.45 -0.5 Q0.4 -0.55 0.4 -0.6 0.4 -0.7 0.55 -0.8 L0.7 -0.9 0.75 -0.95 Q1.15 -1.15 1.35 -1.1 M1.35 -1.05 Q1.15 -1.05 0.85 -0.85 0.5 -0.7 0.5 -0.6 L0.55 -0.55 0.65 -0.5 0.5 -0.3 Q0.35 -0.2 0.35 -0.15 L0.4 -0.15 Q0.4 -0.2 0.5 -0.35 L0.65 -0.5 0.65 -0.55 0.6 -0.6 Q0.6 -0.7 0.85 -0.85 L1.2 -1.0 1.5 -0.9 1.7 -0.85 1.8 -0.75 1.65 -0.65 1.4 -0.45 1.4 -0.25 1.5 0.0 1.7 0.4 1.8 0.4 Q1.7 0.2 1.7 0.1 L1.75 0.0 1.85 -0.15 1.8 -0.3 1.8 -0.55 2.0 -0.75 Q2.3 -0.65 2.35 -0.5 2.4 -0.3 2.45 -0.2 2.45 -0.1 2.7 0.05 L3.05 0.3 3.1 0.3 Q3.0 0.15 3.0 0.05 L3.05 -0.15 Q3.1 -0.3 3.2 -0.25 L3.25 -0.25 3.3 -0.35 Q3.3 -0.5 3.2 -0.7 3.1 -0.9 2.95 -1.0 L3.1 -0.65 3.25 -0.35 3.15 -0.35 3.1 -0.3 3.1 -0.35 3.0 -0.3 2.9 -0.2 2.95 -0.1 Q3.0 -0.05 2.95 0.05 L2.95 0.1 2.85 0.05 2.75 -0.1 2.7 -0.2 2.7 -0.3 2.75 -0.45 2.75 -0.5 2.7 -0.5 Q2.5 -0.6 2.35 -0.7 L2.15 -0.9 1.8 -0.75 1.75 -0.8 1.55 -0.95 1.4 -1.0 1.35 -1.05 M0.05 -1.1 L-0.05 -0.95 -0.05 -0.9 Q-0.45 -1.2 -1.05 -1.45 L-0.6 -1.4 -0.45 -1.25 0.0 -1.15 0.05 -1.1 M0.5 -0.9 L0.25 -0.85 0.55 -0.9 0.5 -0.9 M2.75 -1.5 L2.85 -1.5 2.85 -1.55 2.7 -1.5 Q2.75 -1.4 2.9 -1.4 L3.25 -1.3 3.2 -1.4 2.9 -1.4 2.85 -1.45 2.75 -1.5 M2.1 -0.85 L2.3 -0.75 2.3 -0.7 2.05 -0.8 2.1 -0.85 M2.7 -0.45 L2.7 -0.3 2.65 -0.25 2.5 -0.55 2.65 -0.5 Q2.7 -0.5 2.7 -0.45 M3.5 -1.2 L3.55 -1.15 3.5 -1.0 3.45 -0.95 3.3 -0.95 3.25 -1.0 3.25 -1.15 3.3 -1.2 3.5 -1.2 M3.4 -1.15 L3.35 -1.05 3.4 -1.05 3.4 -1.15 M4.95 -1.1 L5.1 -1.1 Q5.7 -0.85 5.65 -0.6 L5.75 -0.5 5.95 -0.35 5.9 -0.4 5.9 -0.5 6.1 -0.55 6.2 -0.55 Q6.15 -0.55 6.15 -0.6 L6.25 -0.65 6.25 -0.75 6.15 -0.75 6.1 -0.8 6.15 -0.85 6.45 -1.0 6.55 -1.1 6.65 -1.1 6.75 -1.2 7.15 -1.2 Q7.25 -1.2 7.4 -1.1 7.6 -0.95 7.6 -0.8 L7.5 -0.7 7.4 -0.7 7.35 -0.75 Q7.2 -0.8 7.15 -0.9 L7.15 -1.0 7.05 -1.0 7.05 -1.05 6.95 -1.0 6.9 -1.0 Q6.85 -1.0 6.85 -1.05 L6.7 -0.9 Q6.6 -0.85 6.5 -0.8 L6.55 -0.7 6.6 -0.55 Q6.6 -0.5 6.5 -0.5 L6.35 -0.5 6.35 -0.45 6.25 -0.35 6.2 -0.35 6.25 -0.3 6.25 -0.25 Q6.25 -0.2 6.15 -0.15 L6.1 -0.1 5.9 -0.1 5.85 -0.05 5.95 0.0 6.05 0.0 6.1 0.05 Q6.2 0.1 6.2 0.15 L6.15 0.2 6.05 0.2 5.8 0.25 5.65 0.25 5.45 0.2 Q5.3 0.15 5.3 0.1 L5.3 0.05 5.35 0.05 5.4 0.0 5.35 0.0 5.3 -0.05 Q5.2 -0.15 5.2 -0.3 L5.25 -0.4 5.25 -0.65 Q5.15 -0.75 4.8 -0.8 L4.6 -0.7 4.5 -0.7 Q4.45 -0.7 4.4 -0.7 L4.4 -0.85 4.5 -0.95 4.85 -1.1 4.95 -1.1 M5.05 -1.05 L4.95 -1.05 4.6 -0.85 4.5 -0.85 4.5 -0.8 4.55 -0.75 4.75 -0.9 Q5.25 -0.8 5.35 -0.7 L5.35 -0.45 5.4 -0.45 5.35 -0.3 Q5.35 -0.2 5.4 -0.1 L5.5 -0.05 Q5.5 0.0 5.6 0.05 L5.5 0.05 5.45 0.1 5.5 0.15 6.05 0.15 6.0 0.1 5.9 0.1 5.9 0.05 5.75 0.0 5.7 -0.05 5.85 -0.2 Q5.85 -0.3 5.65 -0.5 L5.55 -0.6 Q5.55 -0.85 5.05 -1.05 M5.5 -0.55 L5.6 -0.45 5.8 -0.2 5.75 -0.15 5.7 -0.05 5.6 -0.15 Q5.45 -0.25 5.45 -0.3 L5.5 -0.45 5.5 -0.55 M5.6 -0.35 L5.6 -0.3 5.65 -0.2 5.6 -0.35 M6.6 -1.0 L6.45 -0.9 6.45 -0.85 Q6.55 -0.9 6.7 -1.0 L6.8 -1.15 6.65 -1.05 6.6 -1.0 6.2 -0.8 6.3 -0.7 6.4 -0.65 6.35 -0.6 6.25 -0.6 6.4 -0.55 6.45 -0.55 Q6.5 -0.55 6.5 -0.6 L6.35 -0.8 6.5 -0.9 6.6 -1.0 M7.05 -1.1 L7.15 -1.1 7.3 -1.05 7.3 -0.9 Q7.3 -0.85 7.4 -0.8 L7.45 -0.8 Q7.45 -0.95 7.3 -1.05 7.15 -1.15 7.05 -1.1 L7.05 -1.1 M6.95 -1.1 L6.95 -1.1 M6.0 -0.25 L6.0 -0.15 6.05 -0.15 6.05 -0.2 Q6.1 -0.2 6.1 -0.25 L6.1 -0.3 6.05 -0.3 6.0 -0.25 M6.05 -0.45 L6.05 -0.45 M-2.6 -1.8 L-2.25 -1.75 -2.65 -1.8 -2.6 -1.8 M-2.15 -1.7 L-2.15 -1.7 M-0.5 -0.9 L-1.0 -1.0 Q-1.3 -1.05 -1.15 -1.05 L-0.6 -0.9 -0.45 -0.85 -0.45 -0.9 -0.5 -0.9 M-0.5 -1.05 L-0.5 -1.05 M-0.45 -1.25 L-0.45 -1.25 M0.0 -1.2 L-0.45 -1.3 -0.5 -1.35 -0.1 -1.3 Q-0.05 -1.25 0.0 -1.2 M-0.1 -1.1 L-0.15 -1.15 -0.35 -1.2 Q-0.25 -1.15 -0.2 -1.1 L-0.05 -1.05 -0.1 -1.1 M-0.75 -1.55 L-0.8 -1.6 -0.8 -1.55 -0.75 -1.55 M-0.95 -1.6 L-0.75 -1.5 -0.65 -1.4 -1.1 -1.5 -0.95 -1.6 M-1.1 -1.55 L-1.0 -1.65 -1.1 -1.5 -1.1 -1.55" fill="#31a800" fill-opacity="0.6" fill-rule="evenodd" stroke="none"/>
      <path d="M2.5 -1.8 L2.55 -1.9 2.75 -1.95 2.95 -1.85 Q3.1 -1.8 3.1 -1.75 L3.1 -1.65 3.05 -1.55 3.0 -1.55 Q3.0 -1.7 3.05 -1.75 L2.8 -1.85 2.65 -1.9 2.4 -1.7 2.1 -1.45 Q2.25 -1.4 2.35 -1.25 L2.6 -1.05 2.7 -1.05 2.65 -1.0 2.55 -1.0 Q2.5 -1.05 2.45 -1.1 L2.4 -1.2 Q2.3 -1.3 2.15 -1.35 2.05 -1.35 2.05 -1.45 2.05 -1.5 2.5 -1.8 M0.25 -2.3 L0.1 -2.25 Q-0.2 -2.0 -0.65 -1.8 L-0.75 -1.75 -0.9 -1.65 -0.8 -1.55 -0.65 -1.5 Q-0.55 -1.45 -0.5 -1.4 L-0.05 -1.3 Q0.05 -1.3 0.05 -1.2 L0.2 -1.15 Q0.4 -1.05 0.35 -0.95 L0.25 -0.9 0.1 -0.9 0.05 -0.85 0.1 -0.85 0.0 -0.8 -0.1 -0.8 -0.1 -0.85 -0.15 -0.85 -0.75 -1.1 -1.55 -1.4 Q-1.7 -1.45 -1.85 -1.5 L-2.1 -1.65 -2.55 -1.7 Q-2.75 -1.75 -2.85 -1.8 L-2.95 -1.75 -3.15 -1.75 -3.25 -1.7 -3.35 -1.6 -3.4 -1.6 -3.4 -1.65 -3.45 -1.65 -3.35 -1.95 -2.95 -1.95 -2.85 -1.9 Q-2.45 -1.9 -1.55 -1.6 L-1.2 -1.5 -1.15 -1.45 -1.15 -1.5 Q-1.15 -1.55 -0.95 -1.65 L-0.95 -1.7 -0.85 -1.75 -0.7 -1.8 -0.6 -1.85 Q0.0 -2.2 0.1 -2.3 L0.5 -2.25 0.8 -2.1 0.55 -2.2 0.25 -2.3 M2.7 -0.45 Q2.7 -0.5 2.65 -0.5 L2.5 -0.55 2.65 -0.25 2.7 -0.3 2.7 -0.45 M2.1 -0.85 L2.05 -0.8 2.3 -0.7 2.3 -0.75 2.1 -0.85 M2.75 -1.5 L2.85 -1.45 2.9 -1.4 3.2 -1.4 3.25 -1.3 2.9 -1.4 Q2.75 -1.4 2.7 -1.5 L2.85 -1.55 2.85 -1.5 2.75 -1.5 M0.5 -0.9 L0.55 -0.9 0.25 -0.85 0.5 -0.9 M0.05 -1.1 L0.0 -1.15 -0.45 -1.25 -0.6 -1.4 -1.05 -1.45 Q-0.45 -1.2 -0.05 -0.9 L-0.05 -0.95 0.05 -1.1 M1.35 -1.05 L1.4 -1.0 1.55 -0.95 1.75 -0.8 1.8 -0.75 2.15 -0.9 2.35 -0.7 Q2.5 -0.6 2.7 -0.5 L2.75 -0.5 2.75 -0.45 2.7 -0.3 2.7 -0.2 2.75 -0.1 2.85 0.05 2.95 0.1 2.95 0.05 Q3.0 -0.05 2.95 -0.1 L2.9 -0.2 3.0 -0.3 3.1 -0.35 3.1 -0.3 3.15 -0.35 3.25 -0.35 3.1 -0.65 2.95 -1.0 Q3.1 -0.9 3.2 -0.7 3.3 -0.5 3.3 -0.35 L3.25 -0.25 3.2 -0.25 Q3.1 -0.3 3.05 -0.15 L3.0 0.05 Q3.0 0.15 3.1 0.3 L3.05 0.3 2.7 0.05 Q2.45 -0.1 2.45 -0.2 2.4 -0.3 2.35 -0.5 2.3 -0.65 2.0 -0.75 L1.8 -0.55 1.8 -0.3 1.85 -0.15 1.75 0.0 1.7 0.1 Q1.7 0.2 1.8 0.4 L1.7 0.4 1.5 0.0 1.4 -0.25 1.4 -0.45 1.65 -0.65 1.8 -0.75 1.7 -0.85 1.5 -0.9 1.2 -1.0 0.85 -0.85 Q0.6 -0.7 0.6 -0.6 L0.65 -0.55 0.65 -0.5 0.5 -0.35 Q0.4 -0.2 0.4 -0.15 L0.35 -0.15 Q0.35 -0.2 0.5 -0.3 L0.65 -0.5 0.55 -0.55 0.5 -0.6 Q0.5 -0.7 0.85 -0.85 1.15 -1.05 1.35 -1.05 M3.4 -1.15 L3.4 -1.05 3.35 -1.05 3.4 -1.15 M5.05 -1.05 Q5.55 -0.85 5.55 -0.6 L5.65 -0.5 Q5.85 -0.3 5.85 -0.2 L5.7 -0.05 5.75 0.0 5.9 0.05 5.9 0.1 6.0 0.1 6.05 0.15 5.5 0.15 5.45 0.1 5.5 0.05 5.6 0.05 Q5.5 0.0 5.5 -0.05 L5.4 -0.1 Q5.35 -0.2 5.35 -0.3 L5.4 -0.45 5.35 -0.45 5.35 -0.7 Q5.25 -0.8 4.75 -0.9 L4.55 -0.75 4.5 -0.8 4.5 -0.85 4.6 -0.85 4.95 -1.05 5.05 -1.05 M5.5 -0.55 L5.5 -0.45 5.45 -0.3 Q5.45 -0.25 5.6 -0.15 L5.7 -0.05 5.75 -0.15 5.8 -0.2 5.6 -0.45 5.5 -0.55 M6.05 -0.45 L6.05 -0.45 M6.0 -0.25 L6.05 -0.3 6.1 -0.3 6.1 -0.25 Q6.1 -0.2 6.05 -0.2 L6.05 -0.15 6.0 -0.15 6.0 -0.25 M6.3 -0.7 L6.2 -0.8 6.6 -1.0 6.5 -0.9 6.35 -0.8 6.5 -0.6 Q6.5 -0.55 6.45 -0.55 L6.4 -0.55 6.25 -0.6 6.35 -0.6 6.4 -0.65 6.3 -0.7 M6.95 -1.1 L6.95 -1.1 M7.05 -1.1 L7.05 -1.1 Q7.15 -1.15 7.3 -1.05 7.45 -0.95 7.45 -0.8 L7.4 -0.8 Q7.3 -0.85 7.3 -0.9 L7.3 -1.05 7.15 -1.1 7.05 -1.1 M6.6 -1.0 L6.65 -1.05 6.8 -1.15 6.7 -1.0 Q6.55 -0.9 6.45 -0.85 L6.45 -0.9 6.6 -1.0 M-2.6 -1.8 L-2.65 -1.8 -2.25 -1.75 -2.6 -1.8 M-2.15 -1.7 L-2.15 -1.7 M-0.5 -0.9 L-0.45 -0.9 -0.45 -0.85 -0.6 -0.9 -1.15 -1.05 Q-1.3 -1.05 -1.0 -1.0 L-0.5 -0.9 M-0.5 -1.05 L-0.5 -1.05 M0.0 -1.2 Q-0.05 -1.25 -0.1 -1.3 L-0.5 -1.35 -0.45 -1.3 0.0 -1.2 M-1.1 -1.55 L-1.1 -1.5 -1.0 -1.65 -1.1 -1.55 M-0.95 -1.6 L-1.1 -1.5 -0.65 -1.4 -0.75 -1.5 -0.95 -1.6" fill="#262626" fill-opacity="0.8" fill-rule="evenodd" stroke="none"/>
      <path d="M2.4 -1.85 L2.45 -1.85 2.6 -1.9 2.85 -1.9 2.9 -1.85 3.0 -1.65 Q3.1 -1.5 3.1 -1.45 L3.1 -1.35 3.05 -1.3 3.1 -1.25 3.2 -1.35 3.3 -1.4 3.35 -1.4 3.4 -1.35 Q3.45 -1.35 3.45 -1.25 3.45 -1.2 3.3 -1.05 3.2 -1.0 3.15 -1.0 3.05 -1.0 2.95 -1.05 L2.8 -1.15 2.75 -1.2 2.75 -1.25 Q2.75 -1.45 2.85 -1.5 L2.7 -1.65 2.6 -1.65 2.5 -1.45 2.5 -1.4 Q2.45 -1.35 2.4 -1.35 L2.3 -1.4 2.3 -1.45 Q2.3 -1.55 2.4 -1.8 L2.4 -1.85 M2.8 -1.8 L2.5 -1.8 Q2.4 -1.55 2.4 -1.45 L2.5 -1.75 2.8 -1.75 2.9 -1.6 2.95 -1.45 Q2.95 -1.4 2.9 -1.4 2.85 -1.4 2.85 -1.25 L3.0 -1.15 Q3.05 -1.1 3.15 -1.1 L3.25 -1.15 3.35 -1.25 3.35 -1.3 3.25 -1.3 Q3.25 -1.2 3.2 -1.15 L3.05 -1.15 2.95 -1.25 2.9 -1.25 2.9 -1.35 3.0 -1.45 Q3.0 -1.5 2.9 -1.6 L2.8 -1.8 M5.75 -2.8 Q5.85 -2.9 5.95 -2.95 L6.0 -2.95 6.05 -2.9 6.2 -2.65 6.3 -2.5 6.4 -2.5 6.5 -2.45 6.6 -2.45 6.7 -2.35 6.7 -2.15 6.65 -2.15 6.65 -2.0 6.55 -1.9 6.45 -1.95 Q6.4 -1.95 6.4 -2.05 L6.4 -2.1 6.45 -2.1 6.45 -2.15 6.4 -2.2 6.25 -2.25 6.2 -2.25 6.2 -2.05 5.9 -2.05 5.85 -2.0 5.8 -2.0 Q5.7 -1.95 5.7 -2.15 5.7 -2.35 5.8 -2.3 L5.95 -2.3 5.95 -2.35 Q6.0 -2.4 6.05 -2.4 L6.0 -2.45 6.0 -2.4 5.9 -2.35 5.85 -2.4 Q5.65 -2.5 5.7 -2.6 5.7 -2.7 5.75 -2.8 M3.8 -1.2 Q3.8 -1.25 4.05 -1.4 L4.3 -1.5 Q4.4 -1.55 4.6 -1.4 L4.75 -1.3 4.8 -1.25 4.85 -1.15 4.95 -1.05 5.35 -1.0 5.45 -0.9 5.5 -0.8 Q5.5 -0.5 5.4 -0.3 L5.35 -0.15 5.5 -0.3 5.9 -0.55 5.95 -0.6 6.0 -0.55 6.05 -0.7 5.8 -0.7 5.6 -0.85 Q5.5 -0.9 5.5 -1.0 5.5 -1.1 5.55 -1.25 L5.6 -1.25 5.65 -1.3 5.8 -1.3 5.85 -1.25 5.8 -1.15 Q5.75 -1.1 5.75 -1.0 L5.8 -1.0 5.9 -0.9 6.0 -1.0 6.15 -1.0 6.05 -1.35 Q6.05 -1.45 6.1 -1.55 L6.1 -1.7 Q6.15 -1.75 6.2 -1.8 L6.4 -1.7 6.65 -1.65 6.7 -1.65 6.75 -1.6 6.95 -1.6 7.15 -1.65 Q7.3 -1.65 7.45 -1.45 L7.6 -1.2 7.75 -1.2 7.95 -1.15 Q8.0 -1.15 8.05 -1.1 L8.05 -1.05 8.1 -0.9 8.1 -0.8 8.15 -0.8 8.1 -0.7 8.05 -0.65 8.0 -0.55 7.8 -0.55 7.8 -0.7 7.85 -0.8 7.9 -0.85 7.85 -0.9 7.5 -0.95 7.4 -1.05 7.4 -0.35 7.45 -0.15 Q7.45 0.05 7.05 0.5 L6.85 0.75 6.85 0.85 6.9 0.9 6.85 0.95 6.7 1.0 6.45 1.0 6.45 0.85 Q6.45 0.75 6.7 0.3 L6.95 -0.15 Q6.95 -0.3 6.6 -1.4 L6.5 -1.4 Q6.45 -1.4 6.35 -1.45 L6.35 -1.2 6.4 -1.05 6.4 -0.9 6.35 -0.8 6.35 -0.75 6.15 -0.35 Q5.95 -0.1 6.0 0.0 L5.9 0.05 5.85 0.0 5.8 -0.15 5.85 -0.3 5.6 -0.1 5.3 0.15 5.3 0.2 5.25 0.25 Q5.25 0.3 5.2 0.3 L5.0 0.3 4.85 0.25 4.8 0.15 4.8 0.05 4.85 0.05 4.9 0.0 4.85 0.0 4.8 -0.05 4.55 -0.6 4.55 -0.7 4.6 -0.75 4.7 -0.75 4.75 -0.7 4.9 -0.4 5.0 -0.15 5.0 -0.2 5.2 -0.35 5.25 -0.8 4.9 -0.8 4.7 -1.0 4.6 -1.15 4.5 -1.2 4.35 -1.25 Q4.1 -1.25 4.1 -1.1 4.1 -0.95 4.1 -0.8 L4.15 -0.8 Q4.15 -0.55 4.0 -0.4 L3.9 -0.35 3.9 -0.1 3.85 0.0 3.65 0.0 3.65 -0.05 Q3.65 -0.25 3.7 -0.4 L3.7 -0.45 3.75 -0.45 3.8 -0.55 Q3.9 -0.65 3.9 -0.8 L3.85 -0.95 3.8 -1.2 M4.65 -0.65 L4.9 -0.1 4.8 -0.4 4.65 -0.65 M5.7 -1.2 L5.65 -1.2 Q5.6 -1.1 5.6 -1.0 5.6 -0.95 5.7 -0.9 5.65 -0.95 5.65 -1.0 5.65 -1.1 5.7 -1.2 M3.8 -0.25 L3.8 -0.35 Q3.75 -0.25 3.75 -0.1 L3.8 -0.1 3.8 -0.25 M3.9 -1.2 L4.0 -0.8 Q4.0 -0.6 3.85 -0.45 L3.85 -0.45 Q3.9 -0.45 3.95 -0.5 4.0 -0.6 4.0 -0.8 3.95 -0.95 4.0 -1.1 4.0 -1.35 4.35 -1.35 L4.55 -1.3 4.7 -1.2 4.9 -0.9 5.3 -0.85 5.35 -0.8 5.3 -0.35 5.1 -0.1 4.95 0.1 4.9 0.1 4.9 0.2 4.95 0.2 5.0 0.25 5.1 0.2 5.2 0.2 5.2 0.15 5.15 0.15 Q5.3 0.05 5.55 -0.15 5.8 -0.4 5.95 -0.45 L5.95 -0.5 Q5.85 -0.45 5.55 -0.2 L5.15 0.15 5.1 0.1 5.3 -0.35 Q5.35 -0.5 5.35 -0.8 L5.35 -0.9 4.95 -0.95 4.55 -1.35 4.35 -1.4 4.1 -1.3 3.9 -1.2 M8.3 -2.1 L8.4 -2.1 8.55 -1.95 8.5 -1.95 8.55 -1.9 8.65 -1.85 Q8.75 -1.85 8.8 -1.9 L8.85 -2.0 8.85 -2.15 8.75 -2.35 8.85 -2.45 8.95 -2.45 9.0 -2.4 9.1 -2.0 9.1 -1.85 9.05 -1.8 9.05 -1.75 9.0 -1.7 8.85 -1.65 8.75 -1.65 8.7 -1.6 8.6 -1.6 Q8.55 -1.6 8.55 -1.65 L8.5 -1.7 8.45 -1.7 8.45 -1.75 8.4 -1.75 8.35 -1.8 8.25 -1.75 8.25 -1.7 8.2 -1.7 8.15 -1.55 8.3 -1.55 Q8.4 -1.55 8.45 -1.45 L8.5 -1.5 8.8 -1.55 8.95 -1.6 9.0 -1.6 9.1 -1.7 9.25 -1.95 9.3 -2.05 9.3 -2.15 9.35 -2.2 9.35 -2.3 9.45 -2.35 Q9.45 -2.55 9.7 -2.7 L9.7 -2.75 9.8 -2.75 10.05 -2.8 10.3 -2.9 10.4 -2.9 10.65 -2.8 10.75 -2.75 10.8 -2.75 10.9 -2.7 10.95 -2.65 11.15 -2.3 11.35 -1.9 11.35 -1.8 11.3 -1.7 11.25 -1.65 11.25 -1.55 11.1 -1.25 11.05 -1.2 11.05 -1.1 10.9 -1.1 Q10.7 -1.1 10.6 -1.35 L10.55 -1.45 10.55 -1.5 10.5 -1.65 10.55 -1.7 10.55 -1.85 Q10.6 -1.85 10.6 -2.05 L10.6 -2.3 10.5 -2.5 10.45 -2.5 10.1 -2.45 9.95 -2.45 9.95 -2.4 9.85 -2.35 9.75 -2.25 9.7 -2.25 9.65 -2.2 9.55 -1.95 Q9.35 -1.6 9.2 -1.45 8.95 -1.25 8.6 -1.25 L8.45 -1.25 Q8.45 -1.2 8.4 -1.2 L8.35 -1.2 8.25 -1.3 7.95 -1.35 7.95 -1.4 7.9 -1.45 7.9 -1.5 Q7.9 -1.55 8.0 -1.7 L8.1 -1.75 8.1 -1.8 8.15 -1.9 8.2 -1.95 8.25 -1.95 8.25 -2.0 8.3 -2.05 8.3 -2.1 M6.0 -2.85 Q5.9 -2.85 5.85 -2.75 L5.8 -2.6 Q5.8 -2.55 5.9 -2.45 L5.9 -2.5 5.85 -2.55 5.8 -2.65 Q5.8 -2.7 6.0 -2.8 L6.1 -2.55 Q6.15 -2.4 6.25 -2.35 L6.55 -2.3 6.55 -2.25 6.5 -2.2 6.6 -2.2 6.6 -2.35 6.45 -2.35 6.4 -2.4 6.25 -2.4 Q6.15 -2.5 6.1 -2.65 L6.0 -2.85 M8.55 -1.8 L8.55 -1.8 M8.45 -1.85 L8.45 -1.9 Q8.4 -1.9 8.4 -1.95 L8.3 -1.95 8.45 -1.85 M8.25 -1.85 L8.2 -1.8 8.35 -1.9 Q8.3 -1.9 8.25 -1.85 M5.95 -2.65 L5.95 -2.6 6.0 -2.55 5.95 -2.65 M6.85 -1.4 L6.8 -1.4 6.75 -1.3 6.75 -1.35 6.7 -1.45 6.85 -1.4 M6.95 -1.4 L6.95 -1.45 7.25 -1.5 Q7.25 -1.4 7.3 -1.25 7.4 -1.1 7.55 -1.05 L7.9 -1.05 7.95 -1.0 7.95 -0.8 8.0 -0.8 8.0 -1.0 7.9 -1.1 7.6 -1.1 Q7.45 -1.15 7.35 -1.3 7.3 -1.4 7.25 -1.5 L6.95 -1.5 6.85 -1.45 6.7 -1.55 6.65 -1.55 Q6.55 -1.55 6.45 -1.55 L6.2 -1.7 6.2 -1.55 Q6.2 -1.5 6.25 -1.3 L6.3 -1.05 Q6.3 -0.95 6.25 -0.8 L6.15 -0.65 6.15 -0.9 6.05 -0.9 Q6.0 -0.8 5.85 -0.8 L6.0 -0.8 6.1 -0.85 6.15 -0.8 6.05 -0.5 Q6.0 -0.45 6.0 -0.25 L5.95 0.0 Q6.0 -0.1 6.0 -0.25 6.05 -0.4 6.1 -0.5 L6.25 -0.75 Q6.35 -0.9 6.35 -1.05 L6.25 -1.55 6.25 -1.6 6.3 -1.6 6.35 -1.55 6.45 -1.5 6.65 -1.5 Q6.7 -1.05 6.9 -0.75 7.05 -0.55 7.05 -0.2 7.05 0.0 6.85 0.25 6.7 0.45 6.65 0.55 L6.6 0.65 6.5 0.75 6.5 0.9 6.6 0.9 Q6.5 0.8 6.6 0.7 L6.65 0.65 6.6 0.75 6.65 0.8 6.6 0.85 6.6 0.85 Q6.6 0.9 6.6 0.95 L6.65 0.95 6.75 0.9 6.8 0.9 6.75 0.8 6.85 0.6 Q6.95 0.45 7.1 0.35 L7.4 -0.15 7.35 -0.25 7.3 -0.85 7.35 -1.1 Q7.35 -1.2 7.2 -1.3 L6.95 -1.4 M6.9 -1.4 L6.95 -1.35 7.2 -1.25 Q7.3 -1.15 7.25 -1.05 L7.25 -0.85 7.3 -0.35 7.2 -0.45 7.0 -0.75 Q6.9 -0.9 6.85 -1.1 L6.8 -1.2 6.95 -1.05 6.9 -0.95 6.95 -0.95 6.95 -1.15 Q6.9 -1.2 6.8 -1.25 L6.9 -1.4 M6.5 -2.05 L6.45 -2.0 6.55 -2.0 6.6 -2.05 6.6 -2.1 Q6.5 -2.1 6.5 -2.05 M6.05 -2.25 Q6.05 -2.3 6.05 -2.25 L6.05 -2.2 5.95 -2.15 5.8 -2.2 5.8 -2.1 5.9 -2.15 6.1 -2.15 Q6.1 -2.25 6.05 -2.25 M7.0 -1.2 L7.05 -1.2 7.05 -0.95 7.15 -0.8 7.15 -1.15 7.0 -1.25 7.0 -1.2 M8.4 -1.4 L8.3 -1.4 8.25 -1.45 8.05 -1.45 8.05 -1.55 8.15 -1.75 8.0 -1.55 8.0 -1.45 8.25 -1.4 8.3 -1.35 8.3 -1.4 8.35 -1.4 8.4 -1.35 8.35 -1.3 8.4 -1.3 8.4 -1.4 M8.6 -1.75 L8.6 -1.7 8.7 -1.7 8.8 -1.75 8.95 -1.8 9.0 -1.9 9.0 -2.0 8.95 -2.2 8.9 -2.35 8.85 -2.35 8.9 -2.15 9.0 -2.0 Q9.0 -1.9 8.9 -1.85 8.8 -1.75 8.65 -1.75 L8.6 -1.75 M8.55 -1.35 L8.7 -1.35 Q9.15 -1.4 9.3 -1.65 L9.45 -2.0 9.45 -2.05 9.55 -2.15 9.55 -2.25 9.7 -2.35 9.9 -2.5 9.6 -2.35 9.6 -2.4 9.65 -2.5 10.35 -2.7 10.55 -2.65 10.3 -2.65 10.05 -2.55 10.65 -2.6 10.8 -2.55 10.95 -2.3 11.0 -2.05 Q10.95 -2.0 10.9 -1.9 L10.9 -1.8 Q10.85 -1.75 10.85 -1.7 L10.8 -1.7 10.75 -2.15 Q10.7 -2.4 10.55 -2.6 10.7 -2.4 10.7 -2.15 L10.8 -1.7 10.7 -1.85 10.7 -1.7 10.65 -1.7 Q10.65 -1.75 10.55 -1.75 L10.55 -1.6 10.65 -1.5 10.65 -1.45 Q10.75 -1.2 10.95 -1.15 L11.0 -1.2 11.0 -1.35 11.05 -1.35 11.15 -1.5 Q11.2 -1.55 11.2 -1.6 L11.15 -1.75 11.25 -1.85 Q11.25 -1.95 11.05 -2.3 L10.9 -2.55 10.85 -2.65 10.6 -2.7 10.25 -2.8 10.05 -2.7 9.6 -2.55 9.55 -2.5 9.55 -2.3 Q9.45 -2.25 9.45 -2.15 9.35 -1.85 9.15 -1.55 L8.55 -1.4 8.55 -1.35 M7.9 -0.65 L7.95 -0.65 7.95 -0.75 8.05 -0.75 8.0 -0.8 7.95 -0.8 7.9 -0.7 7.9 -0.65 M7.4 -0.3 L7.4 -0.3 M10.7 -2.5 L10.75 -2.35 Q10.8 -2.2 10.8 -2.0 L10.85 -2.0 Q10.85 -2.05 10.9 -2.15 L10.85 -2.15 Q10.75 -2.4 10.7 -2.5 M10.6 -1.75 L10.65 -1.75 10.7 -1.7 10.75 -1.5 10.75 -1.45 10.7 -1.55 Q10.6 -1.6 10.6 -1.65 L10.6 -1.75 M10.85 -1.55 L10.8 -1.65 10.85 -1.7 10.85 -1.55 M11.05 -1.65 L11.1 -1.75 11.15 -1.7 11.15 -1.6 11.1 -1.55 11.05 -1.45 11.0 -1.45 Q11.0 -1.6 11.05 -1.65 M11.05 -1.75 L11.05 -1.7 10.95 -1.45 10.95 -1.55 11.05 -1.75 M11.05 -2.1 L11.05 -2.1 11.1 -2.05 11.05 -1.95 11.05 -2.05 11.05 -2.1 M11.05 -2.25 L11.0 -2.25 11.0 -2.3 11.05 -2.25 M6.55 0.5 L6.55 0.5" fill="#31a800" fill-opacity="0.6" fill-rule="evenodd" stroke="none"/>
      <path d="M2.8 -1.8 L2.9 -1.6 Q3.0 -1.5 3.0 -1.45 L2.9 -1.35 2.9 -1.25 2.95 -1.25 3.05 -1.15 3.2 -1.15 Q3.25 -1.2 3.25 -1.3 L3.35 -1.3 3.35 -1.25 3.25 -1.15 3.15 -1.1 Q3.05 -1.1 3.0 -1.15 L2.85 -1.25 Q2.85 -1.4 2.9 -1.4 2.95 -1.4 2.95 -1.45 L2.9 -1.6 2.8 -1.75 2.5 -1.75 2.4 -1.45 Q2.4 -1.55 2.5 -1.8 L2.8 -1.8 M3.9 -1.2 L4.1 -1.3 4.35 -1.4 4.55 -1.35 4.95 -0.95 5.35 -0.9 5.35 -0.8 Q5.35 -0.5 5.3 -0.35 L5.1 0.1 5.15 0.15 5.55 -0.2 Q5.85 -0.45 5.95 -0.5 L5.95 -0.45 Q5.8 -0.4 5.55 -0.15 5.3 0.05 5.15 0.15 L5.2 0.15 5.2 0.2 5.1 0.2 5.0 0.25 4.95 0.2 4.9 0.2 4.9 0.1 4.95 0.1 5.1 -0.1 5.3 -0.35 5.35 -0.8 5.3 -0.85 4.9 -0.9 4.7 -1.2 4.55 -1.3 4.35 -1.35 Q4.0 -1.35 4.0 -1.1 3.95 -0.95 4.0 -0.8 4.0 -0.6 3.95 -0.5 3.9 -0.45 3.85 -0.45 L3.85 -0.45 Q4.0 -0.6 4.0 -0.8 L3.9 -1.2 M3.8 -0.25 L3.8 -0.1 3.75 -0.1 Q3.75 -0.25 3.8 -0.35 L3.8 -0.25 M5.7 -1.2 Q5.65 -1.1 5.65 -1.0 5.65 -0.95 5.7 -0.9 5.6 -0.95 5.6 -1.0 5.6 -1.1 5.65 -1.2 L5.7 -1.2 M4.65 -0.65 L4.8 -0.4 4.9 -0.1 4.65 -0.65 M8.25 -1.85 Q8.3 -1.9 8.35 -1.9 L8.2 -1.8 8.25 -1.85 M8.45 -1.85 L8.3 -1.95 8.4 -1.95 Q8.4 -1.9 8.45 -1.9 L8.45 -1.85 M8.55 -1.8 L8.55 -1.8 M6.0 -2.85 L6.1 -2.65 Q6.15 -2.5 6.25 -2.4 L6.4 -2.4 6.45 -2.35 6.6 -2.35 6.6 -2.2 6.5 -2.2 6.55 -2.25 6.55 -2.3 6.25 -2.35 Q6.15 -2.4 6.1 -2.55 L6.0 -2.8 Q5.8 -2.7 5.8 -2.65 L5.85 -2.55 5.9 -2.5 5.9 -2.45 Q5.8 -2.55 5.8 -2.6 L5.85 -2.75 Q5.9 -2.85 6.0 -2.85 M6.05 -2.25 Q6.1 -2.25 6.1 -2.15 L5.9 -2.15 5.8 -2.1 5.8 -2.2 5.95 -2.15 6.05 -2.2 6.05 -2.25 Q6.05 -2.3 6.05 -2.25 M6.5 -2.05 Q6.5 -2.1 6.6 -2.1 L6.6 -2.05 6.55 -2.0 6.45 -2.0 6.5 -2.05 M6.9 -1.4 L6.8 -1.25 Q6.9 -1.2 6.95 -1.15 L6.95 -0.95 6.9 -0.95 6.95 -1.05 6.8 -1.2 6.85 -1.1 Q6.9 -0.9 7.0 -0.75 L7.2 -0.45 7.3 -0.35 7.25 -0.85 7.25 -1.05 Q7.3 -1.15 7.2 -1.25 L6.95 -1.35 6.9 -1.4 M6.95 -1.4 L7.2 -1.3 Q7.35 -1.2 7.35 -1.1 L7.3 -0.85 7.35 -0.25 7.4 -0.15 7.1 0.35 Q6.95 0.45 6.85 0.6 L6.75 0.8 6.8 0.9 6.75 0.9 6.65 0.95 6.6 0.95 Q6.6 0.9 6.6 0.85 L6.6 0.85 6.65 0.8 6.6 0.75 6.65 0.65 6.6 0.7 Q6.5 0.8 6.6 0.9 L6.5 0.9 6.5 0.75 6.6 0.65 6.65 0.55 Q6.7 0.45 6.85 0.25 7.05 0.0 7.05 -0.2 7.05 -0.55 6.9 -0.75 6.7 -1.05 6.65 -1.5 L6.45 -1.5 6.35 -1.55 6.3 -1.6 6.25 -1.6 6.25 -1.55 6.35 -1.05 Q6.35 -0.9 6.25 -0.75 L6.1 -0.5 Q6.05 -0.4 6.0 -0.25 6.0 -0.1 5.95 0.0 L6.0 -0.25 Q6.0 -0.45 6.05 -0.5 L6.15 -0.8 6.1 -0.85 6.0 -0.8 5.85 -0.8 Q6.0 -0.8 6.05 -0.9 L6.15 -0.9 6.15 -0.65 6.25 -0.8 Q6.3 -0.95 6.3 -1.05 L6.25 -1.3 Q6.2 -1.5 6.2 -1.55 L6.2 -1.7 6.45 -1.55 Q6.55 -1.55 6.65 -1.55 L6.7 -1.55 6.85 -1.45 6.95 -1.5 7.25 -1.5 Q7.3 -1.4 7.35 -1.3 7.45 -1.15 7.6 -1.1 L7.9 -1.1 8.0 -1.0 8.0 -0.8 7.95 -0.8 7.95 -1.0 7.9 -1.05 7.55 -1.05 Q7.4 -1.1 7.3 -1.25 7.25 -1.4 7.25 -1.5 L6.95 -1.45 6.95 -1.4 M6.85 -1.4 L6.7 -1.45 6.75 -1.35 6.75 -1.3 6.8 -1.4 6.85 -1.4 M8.6 -1.75 L8.65 -1.75 Q8.8 -1.75 8.9 -1.85 9.0 -1.9 9.0 -2.0 L8.9 -2.15 8.85 -2.35 8.9 -2.35 8.95 -2.2 9.0 -2.0 9.0 -1.9 8.95 -1.8 8.8 -1.75 8.7 -1.7 8.6 -1.7 8.6 -1.75 M8.4 -1.4 L8.4 -1.3 8.35 -1.3 8.4 -1.35 8.35 -1.4 8.3 -1.4 8.3 -1.35 8.25 -1.4 8.0 -1.45 8.0 -1.55 8.15 -1.75 8.05 -1.55 8.05 -1.45 8.25 -1.45 8.3 -1.4 8.4 -1.4 M8.55 -1.35 L8.55 -1.4 9.15 -1.55 Q9.35 -1.85 9.45 -2.15 9.45 -2.25 9.55 -2.3 L9.55 -2.5 9.6 -2.55 10.05 -2.7 10.25 -2.8 10.6 -2.7 10.85 -2.65 10.9 -2.55 11.05 -2.3 Q11.25 -1.95 11.25 -1.85 L11.15 -1.75 11.2 -1.6 Q11.2 -1.55 11.15 -1.5 L11.05 -1.35 11.0 -1.35 11.0 -1.2 10.95 -1.15 Q10.75 -1.2 10.65 -1.45 L10.65 -1.5 10.55 -1.6 10.55 -1.75 Q10.65 -1.75 10.65 -1.7 L10.7 -1.7 10.7 -1.85 10.8 -1.7 10.7 -2.15 Q10.7 -2.4 10.55 -2.6 10.7 -2.4 10.75 -2.15 L10.8 -1.7 10.85 -1.7 Q10.85 -1.75 10.9 -1.8 L10.9 -1.9 Q10.95 -2.0 11.0 -2.05 L10.95 -2.3 10.8 -2.55 10.65 -2.6 10.05 -2.55 10.3 -2.65 10.55 -2.65 10.35 -2.7 9.65 -2.5 9.6 -2.4 9.6 -2.35 9.9 -2.5 9.7 -2.35 9.55 -2.25 9.55 -2.15 9.45 -2.05 9.45 -2.0 9.3 -1.65 Q9.15 -1.4 8.7 -1.35 L8.55 -1.35 M7.9 -0.65 L7.9 -0.7 7.95 -0.8 8.0 -0.8 8.05 -0.75 7.95 -0.75 7.95 -0.65 7.9 -0.65 M11.05 -2.25 L11.0 -2.3 11.0 -2.25 11.05 -2.25 M11.05 -2.05 L11.05 -1.95 11.1 -2.05 11.05 -2.1 11.05 -2.05 M11.05 -2.1 L11.05 -2.1 M11.05 -1.75 L10.95 -1.55 10.95 -1.45 11.05 -1.7 11.05 -1.75 M11.05 -1.65 Q11.0 -1.6 11.0 -1.45 L11.05 -1.45 11.1 -1.55 11.15 -1.6 11.15 -1.7 11.1 -1.75 11.05 -1.65 M10.85 -1.55 L10.85 -1.7 10.8 -1.65 10.85 -1.55 M10.6 -1.75 L10.6 -1.65 Q10.6 -1.6 10.7 -1.55 L10.75 -1.45 10.75 -1.5 10.7 -1.7 10.65 -1.75 10.6 -1.75" fill="#262626" fill-opacity="0.8" fill-rule="evenodd" stroke="none"/>
      <path d="M12.7 -21.9 L12.75 -21.8 12.75 -21.75 Q12.85 -21.5 12.9 -21.3 L12.85 -21.2 13.05 -20.8 13.05 -20.85 13.55 -19.95 13.55 -19.9 14.3 -18.1 Q14.6 -17.4 14.85 -16.25 L15.3 -14.4 15.3 -14.35 15.35 -14.25 Q15.55 -13.5 15.55 -12.25 15.55 -10.65 14.75 -8.6 L14.25 -7.55 Q13.5 -5.65 12.35 -4.25 L12.25 -4.2 12.1 -4.2 Q12.05 -4.2 12.0 -4.25 L11.95 -4.3 12.0 -4.4 12.4 -5.05 12.5 -5.2 Q12.8 -5.75 13.15 -6.6 L13.65 -8.15 Q13.75 -8.45 14.05 -8.95 14.3 -9.4 14.35 -9.7 14.6 -10.45 14.6 -11.2 14.6 -12.0 14.4 -12.75 14.2 -13.6 13.9 -13.8 L13.85 -13.8 Q13.8 -13.85 13.65 -13.85 12.85 -13.85 12.65 -12.95 12.6 -11.8 12.5 -11.45 L12.45 -11.35 12.45 -11.4 Q12.45 -11.05 12.3 -10.75 L12.3 -10.7 Q11.95 -9.8 11.2 -8.6 L11.15 -8.6 Q9.75 -6.75 9.1 -5.7 L8.85 -5.15 8.8 -5.05 8.7 -5.05 Q8.6 -5.05 8.6 -5.1 8.55 -5.15 8.55 -5.2 L8.55 -5.55 Q8.7 -6.4 9.7 -7.8 11.1 -9.7 11.2 -9.85 11.7 -10.75 11.9 -11.95 L12.0 -13.2 11.95 -13.25 11.9 -14.3 11.85 -14.35 11.85 -14.4 Q11.75 -15.25 11.5 -16.0 11.1 -17.2 10.35 -18.2 9.45 -19.15 8.75 -19.15 8.4 -19.15 8.2 -19.0 8.05 -18.95 8.05 -18.85 L8.05 -18.8 8.15 -18.7 8.2 -18.6 Q8.2 -18.45 8.0 -18.4 L7.9 -18.4 7.2 -18.9 7.1 -18.9 Q5.0 -19.6 4.5 -20.85 L3.85 -22.05 Q3.6 -22.55 3.6 -23.15 3.6 -23.9 3.9 -24.75 4.3 -25.75 4.85 -26.1 L4.95 -26.1 5.6 -26.05 6.05 -26.0 6.15 -26.1 6.05 -26.25 6.0 -26.3 6.05 -26.4 6.1 -26.45 6.2 -26.45 Q7.85 -26.15 8.8 -25.65 9.45 -25.3 10.55 -24.4 L10.55 -24.35 11.9 -22.9 Q12.35 -22.45 12.6 -22.05 L12.65 -22.0 12.65 -21.95 12.7 -21.9 M12.55 -21.8 L12.5 -21.9 12.5 -21.95 Q12.25 -22.35 11.8 -22.8 L10.45 -24.3 Q9.35 -25.2 8.7 -25.55 7.8 -26.0 6.15 -26.3 6.3 -26.15 6.45 -26.0 L6.3 -25.9 6.3 -25.95 6.2 -25.95 6.2 -25.85 5.6 -25.9 4.95 -26.0 Q4.4 -25.65 4.05 -24.7 3.7 -23.85 3.7 -23.15 3.7 -22.6 4.0 -22.15 L4.65 -20.9 Q5.15 -19.7 7.2 -19.05 L7.25 -19.0 7.95 -18.55 Q8.05 -18.55 8.05 -18.6 L7.95 -18.7 Q7.9 -18.75 7.9 -18.85 7.9 -19.0 8.1 -19.15 8.35 -19.3 8.75 -19.3 9.5 -19.3 10.45 -18.25 11.25 -17.25 11.65 -16.05 11.9 -15.3 12.0 -14.4 L12.0 -14.3 12.1 -13.25 12.15 -13.25 Q12.1 -12.45 12.05 -11.9 11.85 -10.7 11.3 -9.8 L9.8 -7.7 Q8.85 -6.35 8.7 -5.5 L8.7 -5.2 9.0 -5.75 Q9.6 -6.8 11.05 -8.7 11.85 -9.85 12.15 -10.75 12.3 -11.1 12.3 -11.4 L12.35 -11.45 Q12.45 -11.8 12.5 -12.95 12.7 -14.0 13.65 -14.0 13.85 -14.0 13.95 -13.95 14.35 -13.75 14.55 -12.75 14.7 -12.0 14.7 -11.2 14.7 -10.4 14.5 -9.65 14.4 -9.35 14.15 -8.9 13.9 -8.35 13.8 -8.1 L13.25 -6.55 Q12.95 -5.7 12.65 -5.15 L12.55 -5.0 12.1 -4.35 12.2 -4.3 Q13.35 -5.7 14.15 -7.6 14.4 -8.1 14.6 -8.65 15.4 -10.65 15.4 -12.25 15.4 -13.5 15.2 -14.2 L15.15 -14.35 15.2 -14.35 Q15.05 -14.8 14.7 -16.2 14.45 -17.35 14.2 -18.05 L13.45 -19.85 12.95 -20.75 12.6 -21.4 12.5 -21.65 12.7 -21.25 12.75 -21.3 Q12.7 -21.5 12.6 -21.75 L12.55 -21.8 M8.35 -18.45 L8.45 -18.45 Q9.2 -17.9 9.7 -17.25 10.3 -16.45 10.2 -15.85 L10.15 -15.75 10.1 -15.75 10.05 -15.7 9.95 -15.7 9.9 -15.75 9.6 -16.35 9.6 -16.3 9.2 -16.95 8.75 -17.55 Q8.35 -17.95 8.2 -18.2 8.15 -18.25 8.2 -18.3 L8.2 -18.4 8.25 -18.4 Q8.3 -18.45 8.35 -18.45 M12.15 -11.65 L12.15 -11.75 12.2 -11.7 12.15 -11.5 12.15 -11.65 M8.35 -18.3 L8.3 -18.3 Q8.45 -18.05 8.85 -17.65 L9.3 -17.05 9.7 -16.4 10.0 -15.85 10.05 -15.85 Q10.15 -16.45 9.6 -17.15 9.1 -17.8 8.35 -18.3" fill="#31a800" fill-opacity="0.8" fill-rule="evenodd" stroke="none"/>
      <path d="M12.5 -21.95 L12.5 -21.9 12.55 -21.8 12.6 -21.75 Q12.7 -21.5 12.75 -21.3 L12.7 -21.25 12.5 -21.65 12.6 -21.4 12.95 -20.75 13.45 -19.85 14.2 -18.05 Q14.45 -17.35 14.7 -16.2 15.05 -14.8 15.2 -14.35 L15.15 -14.35 15.2 -14.2 Q15.4 -13.5 15.4 -12.25 15.4 -10.65 14.6 -8.65 14.4 -8.1 14.15 -7.6 13.35 -5.7 12.2 -4.3 L12.1 -4.35 12.55 -5.0 12.65 -5.15 Q12.95 -5.7 13.25 -6.55 L13.8 -8.1 Q13.9 -8.35 14.15 -8.9 14.4 -9.35 14.5 -9.65 14.7 -10.4 14.7 -11.2 14.7 -12.0 14.55 -12.75 14.35 -13.75 13.95 -13.95 13.85 -14.0 13.65 -14.0 12.7 -14.0 12.5 -12.95 12.45 -11.8 12.35 -11.45 L12.3 -11.4 Q12.3 -11.1 12.15 -10.75 11.85 -9.85 11.05 -8.7 9.6 -6.8 9.0 -5.75 L8.7 -5.2 8.7 -5.5 Q8.85 -6.35 9.8 -7.7 L11.3 -9.8 Q11.85 -10.7 12.05 -11.9 12.1 -12.45 12.15 -13.25 L12.1 -13.25 12.0 -14.3 12.0 -14.4 Q11.9 -15.3 11.65 -16.05 11.25 -17.25 10.45 -18.25 9.5 -19.3 8.75 -19.3 8.35 -19.3 8.1 -19.15 7.9 -19.0 7.9 -18.85 7.9 -18.75 7.95 -18.7 L8.05 -18.6 Q8.05 -18.55 7.95 -18.55 L7.25 -19.0 7.2 -19.05 Q5.15 -19.7 4.65 -20.9 L4.0 -22.15 Q3.7 -22.6 3.7 -23.15 3.7 -23.85 4.05 -24.7 4.4 -25.65 4.95 -26.0 L5.6 -25.9 6.2 -25.85 6.2 -25.95 6.3 -25.95 6.3 -25.9 6.45 -26.0 Q6.3 -26.15 6.15 -26.3 7.8 -26.0 8.7 -25.55 9.35 -25.2 10.45 -24.3 L11.8 -22.8 Q12.25 -22.35 12.5 -21.95 M8.35 -18.3 Q9.1 -17.8 9.6 -17.15 10.15 -16.45 10.05 -15.85 L10.0 -15.85 9.7 -16.4 9.3 -17.05 8.85 -17.65 Q8.45 -18.05 8.3 -18.3 L8.35 -18.3 M12.15 -11.65 L12.15 -11.5 12.2 -11.7 12.15 -11.75 12.15 -11.65" fill="#262626" fill-rule="evenodd" stroke="none"/>
      <path d="M12.75 -19.65 L12.8 -19.45 12.95 -19.2 13.45 -17.95 Q13.25 -18.2 12.8 -19.1 12.45 -19.9 12.1 -20.3 11.3 -21.3 10.55 -21.95 9.7 -22.7 9.2 -22.7 8.8 -22.6 8.8 -22.4 L8.75 -21.95 Q8.75 -21.6 9.0 -21.25 L9.5 -20.55 Q9.65 -20.3 10.0 -19.95 10.35 -19.55 10.65 -19.35 11.05 -19.15 11.55 -18.0 12.05 -16.95 12.05 -16.7 L12.05 -16.6 12.0 -16.6 11.45 -17.75 Q11.1 -18.45 10.75 -18.95 10.5 -19.3 9.6 -20.05 9.4 -20.2 8.9 -20.45 8.5 -20.6 8.3 -20.7 8.25 -20.7 7.85 -20.85 7.5 -21.05 7.2 -21.05 L6.75 -20.95 6.65 -20.85 Q6.65 -20.8 6.75 -20.75 L6.9 -20.6 6.75 -20.6 6.7 -20.65 Q6.25 -20.75 5.8 -21.2 5.3 -21.6 5.3 -21.95 L5.5 -22.0 5.55 -22.0 5.65 -22.15 5.6 -22.35 5.3 -22.7 Q4.9 -23.25 4.6 -23.15 4.5 -23.2 4.5 -23.6 L4.5 -24.0 Q4.5 -24.15 4.7 -24.5 4.85 -24.85 5.2 -25.05 5.45 -25.2 5.65 -25.2 L6.15 -25.25 6.75 -25.25 6.45 -25.5 6.45 -25.55 6.8 -25.4 Q7.1 -25.3 7.35 -25.15 L7.35 -25.1 7.15 -25.1 7.15 -25.05 Q7.15 -24.85 7.45 -24.65 7.65 -24.55 7.85 -24.45 8.5 -24.15 8.9 -23.95 9.3 -23.75 9.8 -23.35 L10.6 -22.65 Q10.9 -22.35 11.8 -21.25 12.0 -20.95 12.3 -20.45 L12.65 -19.8 12.75 -19.65 M12.2 -16.0 L12.3 -15.65 12.35 -15.25 12.35 -15.1 12.3 -15.1 12.15 -15.85 12.15 -16.0 12.2 -16.0" fill="#c1ff3f" fill-rule="evenodd" stroke="none"/>
      <path d="M2.2 -3.7 L2.25 -3.7 2.35 -3.5 2.4 -3.45 2.6 -3.3 3.25 -3.4 3.3 -3.35 3.35 -3.25 3.35 -3.05 Q3.3 -3.0 2.95 -2.9 L2.55 -2.85 2.35 -2.9 2.3 -2.9 2.2 -3.0 2.15 -3.0 Q2.05 -3.1 1.85 -3.4 1.6 -3.55 0.95 -3.55 0.85 -3.55 0.5 -3.4 L0.5 -3.35 Q0.05 -3.15 -0.05 -3.1 L-0.1 -3.15 -0.25 -3.15 -0.3 -3.2 -0.35 -3.3 -0.35 -3.35 Q-0.35 -3.4 -0.15 -3.6 L-0.1 -3.65 Q0.5 -3.85 0.9 -3.9 1.75 -4.1 2.2 -3.7 M0.05 -8.1 L0.1 -8.05 0.1 -7.95 Q0.1 -7.65 0.0 -7.6 L-0.15 -7.6 -0.25 -7.65 -0.3 -7.65 -0.3 -7.7 -0.35 -7.75 Q-0.4 -7.85 -0.25 -8.05 L-0.2 -8.1 0.05 -8.1 M0.95 -9.05 L1.05 -8.95 1.05 -8.85 Q1.05 -8.75 0.95 -8.65 L0.9 -8.6 0.75 -8.5 0.7 -8.5 0.6 -8.55 0.55 -8.6 0.55 -8.65 Q0.55 -8.7 0.6 -8.75 0.75 -9.1 0.95 -9.05 M2.0 -9.15 Q2.1 -9.3 2.25 -9.35 L2.6 -9.3 2.75 -9.25 2.85 -9.35 2.9 -9.45 3.0 -9.45 Q3.05 -9.45 3.1 -9.4 3.2 -9.2 3.15 -9.05 3.1 -8.9 2.85 -8.8 L2.5 -8.85 Q2.45 -8.9 2.4 -8.95 2.35 -8.85 2.15 -8.8 L2.0 -8.8 Q1.9 -8.8 1.85 -8.9 1.85 -8.95 1.9 -9.0 L1.95 -9.05 2.0 -9.15 M5.4 -11.95 L5.45 -11.95 Q5.6 -11.85 5.6 -11.75 5.6 -11.65 5.5 -11.5 L5.4 -11.45 5.35 -11.45 5.25 -11.5 5.1 -11.65 5.05 -11.65 Q4.8 -11.8 4.55 -12.0 L4.55 -12.15 Q4.6 -12.25 4.7 -12.3 L4.8 -12.3 4.85 -12.25 5.0 -12.25 5.0 -12.2 Q5.1 -12.1 5.4 -11.95 M3.45 -10.75 Q3.4 -10.85 3.6 -11.2 3.75 -11.55 3.9 -11.6 L4.1 -11.6 4.1 -11.4 Q4.0 -11.25 3.95 -11.1 3.85 -10.75 4.1 -10.4 L4.15 -10.35 4.1 -10.25 3.85 -9.8 Q3.65 -9.5 3.5 -9.45 L3.4 -9.45 Q3.35 -9.45 3.3 -9.5 L3.25 -9.55 3.25 -9.6 3.3 -9.65 3.75 -10.4 3.65 -10.5 Q3.5 -10.55 3.45 -10.75" fill="#31a800" fill-opacity="0.6" fill-rule="evenodd" stroke="none"/>
      <path d="M-0.15 -7.95 L-0.05 -7.95 Q-0.05 -7.75 -0.1 -7.75 L-0.2 -7.8 -0.15 -7.95 M0.95 -3.75 Q1.7 -3.9 2.1 -3.6 L2.25 -3.4 Q2.4 -3.25 2.55 -3.15 L3.2 -3.25 3.2 -3.15 Q3.2 -3.1 2.95 -3.05 L2.55 -3.0 2.25 -3.1 2.0 -3.5 Q1.7 -3.7 0.95 -3.7 0.8 -3.7 0.45 -3.5 0.05 -3.3 -0.05 -3.25 L-0.2 -3.3 -0.2 -3.35 -0.05 -3.5 Q0.55 -3.7 0.95 -3.75 M0.85 -8.75 L0.7 -8.65 0.7 -8.7 Q0.85 -8.9 0.9 -8.9 0.9 -8.8 0.85 -8.75 M2.15 -8.95 L2.05 -8.95 2.15 -9.1 Q2.2 -9.15 2.3 -9.2 L2.8 -9.1 Q2.9 -9.15 2.95 -9.2 L2.95 -9.3 Q3.05 -9.2 3.0 -9.1 2.95 -9.0 2.8 -8.95 L2.55 -9.0 2.3 -9.15 2.25 -9.0 Q2.25 -8.95 2.15 -8.95 M5.35 -11.85 Q5.5 -11.75 5.4 -11.6 5.3 -11.7 5.15 -11.8 4.85 -11.9 4.65 -12.1 4.7 -12.15 4.75 -12.15 4.75 -12.1 4.8 -12.1 L4.9 -12.1 Q5.05 -12.0 5.35 -11.85 M3.6 -10.8 Q3.6 -10.85 3.7 -11.15 3.85 -11.4 4.0 -11.5 3.85 -11.35 3.8 -11.15 3.7 -10.7 4.0 -10.35 L3.7 -9.9 Q3.55 -9.65 3.4 -9.6 3.8 -10.15 3.9 -10.4 L3.85 -10.6 3.7 -10.65 Q3.65 -10.65 3.6 -10.8" fill="#262626" fill-rule="evenodd" stroke="none"/>
      <path d="M13.45 -0.15 L13.45 -0.2 13.6 -0.15 14.05 -0.15 Q14.1 -0.25 14.15 -0.2 L14.15 -0.1 Q14.25 -0.1 14.35 -0.2 L14.55 -0.5 14.8 -0.75 15.05 -0.95 14.7 -0.15 14.65 -0.05 15.25 -0.45 Q16.3 -1.1 16.6 -1.15 L16.25 -0.9 16.2 -0.9 16.15 -0.85 16.1 -0.75 Q16.05 -0.7 16.05 -0.6 L16.05 -0.55 Q15.95 -0.4 15.6 0.0 15.25 0.4 15.2 0.55 L15.3 0.6 15.3 0.7 15.5 0.6 15.75 0.45 15.3 0.9 14.85 1.4 14.8 1.4 Q14.55 1.55 13.95 1.75 L13.5 1.95 13.4 1.95 12.85 2.05 11.6 2.3 11.55 2.3 Q11.45 2.35 11.25 2.4 L10.85 2.45 10.5 2.45 10.05 2.5 9.45 2.6 8.9 2.65 8.15 2.65 8.15 2.6 8.0 2.6 7.85 2.65 7.4 2.65 7.0 2.7 3.9 2.7 3.85 2.75 3.4 2.75 3.35 2.7 2.0 2.7 1.4 2.65 0.9 2.6 0.75 2.55 0.55 2.6 -0.2 2.4 -0.4 2.35 -0.55 2.35 -0.55 2.45 -0.45 2.45 -1.3 2.2 -1.3 2.25 -1.2 2.35 -1.25 2.35 -1.45 2.3 Q-1.65 2.3 -2.4 2.15 L-3.1 1.95 -3.6 1.85 -4.1 1.7 -4.1 1.65 Q-4.2 1.6 -4.4 1.5 L-4.9 1.15 -5.6 0.45 -5.9 0.2 Q-5.9 0.1 -5.9 0.2 L-5.9 0.15 -5.6 0.35 -5.2 0.45 -5.15 0.45 -5.3 0.25 -5.25 0.25 -4.9 0.5 -4.85 0.5 -4.75 0.35 -4.65 0.25 Q-4.45 0.1 -4.2 0.05 L-4.25 0.1 -3.8 -0.05 -3.8 -0.15 -3.75 -0.5 Q-3.7 -0.75 -3.7 -0.9 L-3.65 -0.9 Q-3.55 -0.4 -2.85 0.4 L-2.5 0.75 -2.7 0.35 Q-2.35 0.9 -1.8 1.45 L-1.8 1.35 -2.0 1.05 -2.0 1.0 -1.55 1.45 -1.5 1.45 -1.4 1.5 -1.35 1.15 -1.35 1.1 -1.2 1.25 -0.85 1.5 Q-0.55 1.75 0.05 1.8 L0.25 1.8 0.5 1.85 Q0.8 1.85 1.35 1.55 L1.45 1.55 Q1.4 1.65 1.4 1.75 L1.35 1.75 1.4 1.8 1.4 1.85 1.45 1.9 1.45 1.95 1.6 1.9 1.6 2.0 2.05 2.0 2.05 2.05 2.15 2.1 2.85 2.0 3.15 2.0 Q3.2 2.05 3.35 2.05 L3.75 2.0 3.8 2.0 3.85 2.05 4.0 1.95 4.2 1.95 4.05 2.0 3.9 2.1 3.9 2.15 4.3 2.05 4.6 2.0 5.4 1.8 5.35 1.8 5.75 1.65 5.7 1.65 5.85 1.6 5.75 1.55 5.95 1.45 5.85 1.45 Q5.8 1.45 5.75 1.4 L5.8 1.4 5.65 1.45 5.5 1.4 Q5.55 1.4 5.75 1.3 L5.95 1.25 6.0 1.2 5.65 1.3 Q5.8 1.2 6.5 1.0 L7.4 0.75 7.15 0.85 7.2 0.85 7.9 0.65 8.0 0.65 7.95 0.7 Q7.7 0.8 7.2 1.0 L7.25 1.0 7.3 1.05 7.25 1.05 7.25 1.1 7.65 1.0 8.1 0.95 8.75 0.85 8.8 0.85 Q8.65 0.95 8.35 1.15 L8.35 1.2 Q8.55 1.1 8.6 1.1 L8.65 1.1 8.15 1.4 8.2 1.4 Q8.15 1.5 8.0 1.55 L8.2 1.55 8.6 1.45 8.75 1.45 8.8 1.5 8.85 1.5 Q8.8 1.6 8.55 1.7 L8.8 1.7 9.0 1.65 9.05 1.7 9.1 1.7 9.15 1.65 9.25 1.7 9.25 1.75 9.4 1.75 9.85 1.6 10.1 1.5 10.8 1.25 11.35 1.05 10.75 1.35 11.1 1.25 10.65 1.5 10.85 1.4 10.6 1.6 11.9 1.2 Q12.7 0.9 13.75 0.45 13.9 0.4 14.2 0.2 13.95 0.05 13.5 -0.15 L13.45 -0.15 M10.2 1.7 L10.2 1.7 M8.6 1.45 L8.5 1.45 8.55 1.4 8.6 1.45 M-4.5 0.6 Q-4.15 0.7 -3.95 0.4 -3.8 0.15 -3.8 0.0 -4.15 0.1 -4.4 0.3 L-4.6 0.45 -4.6 0.55 -4.55 0.55 -4.5 0.6" fill="#c1ff3f" fill-rule="evenodd" stroke="none"/>
      <path d="M13.45 -0.15 L13.45 -0.2 13.6 -0.15 14.05 -0.15 Q14.1 -0.25 14.15 -0.2 L14.15 -0.1 14.3 -0.15 14.25 -0.05 14.25 0.0 14.8 -0.6 15.05 -0.9 15.05 -0.95 14.7 -0.15 14.65 -0.1 14.3 0.1 14.2 0.2 Q13.95 0.05 13.5 -0.15 L13.45 -0.15 M-3.75 0.0 L-3.8 0.15 -3.8 0.05 -3.75 0.0 M6.0 1.5 L6.75 1.3 6.85 1.25 7.15 1.2 6.75 1.35 6.15 1.6 6.05 1.6 Q6.15 1.55 6.25 1.5 L5.85 1.65 6.0 1.5 M7.25 1.0 L7.4 0.95 7.3 0.95 7.25 1.0 M12.8 0.85 L12.9 0.8 Q13.3 0.65 13.75 0.45 L12.8 0.85 M15.75 -0.5 L16.05 -0.7 16.05 -0.55 Q15.95 -0.4 15.6 0.0 15.25 0.35 15.2 0.55 L15.1 0.65 15.15 0.65 15.3 0.6 15.3 0.7 15.35 0.65 14.9 1.0 14.95 1.0 Q15.3 0.9 15.6 0.65 L15.65 0.6 15.3 0.9 14.85 1.4 14.8 1.4 Q14.55 1.55 13.95 1.75 L13.5 1.95 13.4 1.95 12.85 2.05 11.6 2.3 11.55 2.3 Q11.45 2.35 11.25 2.4 L10.85 2.45 10.5 2.45 10.05 2.5 9.45 2.6 8.9 2.65 8.15 2.65 8.15 2.6 8.0 2.6 7.85 2.65 7.4 2.65 7.0 2.7 3.9 2.7 3.85 2.75 3.4 2.75 3.35 2.7 2.0 2.7 1.4 2.65 0.9 2.6 0.75 2.55 0.55 2.6 -0.2 2.4 -0.4 2.35 -0.55 2.35 -0.55 2.45 -0.45 2.45 -1.3 2.2 -1.3 2.25 -1.2 2.35 -1.25 2.35 -1.45 2.3 Q-1.65 2.3 -2.4 2.15 L-3.1 1.95 -3.6 1.85 -4.1 1.7 -4.1 1.65 Q-4.2 1.6 -4.4 1.5 L-4.9 1.15 -5.6 0.45 -5.9 0.2 Q-5.9 0.1 -5.9 0.2 L-5.9 0.15 -5.7 0.25 -5.2 0.55 -4.2 1.05 -3.85 1.2 Q-3.95 1.1 -4.3 0.85 L-4.6 0.65 -4.25 0.85 -4.3 0.85 -4.0 1.0 -3.75 1.15 -3.8 1.1 -3.7 1.1 -3.7 1.0 -3.65 1.0 Q-3.65 0.75 -3.6 0.3 -3.45 0.3 -3.45 0.15 L-3.5 -0.05 -3.1 0.6 Q-2.55 1.3 -2.3 1.5 L-2.25 1.5 -2.25 1.45 -2.65 0.9 -2.4 1.1 -2.4 1.05 -2.8 0.45 -2.55 0.7 -2.45 0.85 Q-2.1 1.4 -1.5 1.75 L-1.45 1.75 -1.85 1.3 -1.95 1.15 -1.7 1.4 Q-1.25 1.9 -1.05 1.95 L-1.05 1.85 -1.3 1.35 -1.2 1.35 -0.9 1.6 Q-0.3 2.05 0.0 2.05 L0.05 2.05 -0.2 2.1 0.0 2.1 0.25 2.15 0.65 2.05 0.7 2.05 0.9 1.95 Q1.25 1.8 1.3 1.75 L1.3 1.9 1.35 1.95 1.45 2.0 Q1.5 2.0 1.55 1.95 L1.6 1.9 1.6 1.95 Q1.35 2.05 1.35 2.1 L1.4 2.15 1.5 2.15 1.7 2.1 1.8 2.15 1.85 2.15 1.7 2.2 1.7 2.25 1.2 2.4 3.2 2.05 Q2.6 2.25 2.55 2.3 L2.6 2.35 3.4 2.15 3.75 2.15 3.95 2.2 4.15 2.2 4.0 2.35 4.15 2.35 5.45 2.0 5.9 1.85 6.4 1.65 7.35 1.35 7.0 1.5 Q6.25 1.75 6.05 1.85 L6.15 1.85 8.35 1.15 8.35 1.2 Q8.55 1.1 8.6 1.1 L8.65 1.1 8.15 1.4 8.2 1.4 Q8.15 1.5 8.0 1.55 L8.1 1.55 Q7.65 1.75 7.35 1.9 L7.45 1.95 8.85 1.5 8.55 1.7 8.6 1.7 8.55 1.8 8.3 1.9 8.3 1.95 8.5 1.95 Q8.65 1.85 9.0 1.75 L9.2 1.7 9.25 1.7 9.25 1.75 9.4 1.75 9.85 1.6 Q8.7 2.05 8.25 2.3 9.15 2.1 10.15 1.7 L10.2 1.7 10.25 1.65 Q10.45 1.55 10.65 1.5 L10.85 1.4 10.6 1.6 11.35 1.35 11.0 1.5 Q10.95 1.55 10.9 1.55 L10.35 1.8 9.65 2.1 9.75 2.1 Q9.95 2.0 10.4 1.85 L10.45 1.85 10.2 2.0 10.1 2.05 10.25 2.0 10.3 2.05 11.85 1.45 12.55 1.2 13.25 0.9 13.3 0.9 13.45 0.85 12.45 1.45 13.05 1.2 Q13.6 1.0 14.35 0.6 L15.45 -0.1 Q15.1 0.0 14.6 0.25 L14.95 0.0 15.75 -0.5 M-4.2 0.15 L-4.6 0.45 -4.6 0.5 Q-4.7 0.45 -4.8 0.4 L-4.65 0.25 -4.3 0.15 -4.25 0.2 -4.2 0.15 M-5.15 0.4 L-5.25 0.3 -5.1 0.4 -5.05 0.45 -5.15 0.4" fill="#262626" fill-rule="evenodd" stroke="none"/>
    </g>
  </defs>
</svg>
