<?xml version="1.0" encoding="UTF-8" standalone="no"?>
<svg xmlns:ffdec="https://www.free-decompiler.com/flash" xmlns:xlink="http://www.w3.org/1999/xlink" ffdec:objectType="frame" height="116.75px" width="527.25px" xmlns="http://www.w3.org/2000/svg">
  <g transform="matrix(1.0, 0.0, 0.0, 1.0, 336.85, 281.35)">
    <use ffdec:characterId="234" height="86.05" transform="matrix(1.0, 0.0, 0.0, 1.0, -336.85, -250.65)" width="527.25" xlink:href="#shape0"/>
    <clipPath id="clipPath0" transform="matrix(1.0, 0.0, 0.0, 1.0, 0.0, 0.0)">
      <path d="M178.0 -211.0 L178.4 -209.3 Q178.4 -206.7 176.65 -206.6 177.5 -207.45 177.7 -208.6 177.9 -209.7 177.45 -210.8 177.6 -211.0 178.0 -211.0 M162.5 -212.1 L161.15 -213.6 161.1 -213.9 Q162.6 -213.85 163.1 -212.05 L163.3 -209.15 Q163.3 -207.25 162.0 -205.2 160.6 -203.05 158.15 -201.55 156.05 -200.2 151.85 -198.7 148.8 -197.55 146.85 -197.05 L130.85 -192.2 Q122.45 -189.55 116.85 -188.2 L115.3 -187.75 110.75 -186.75 105.75 -185.5 101.3 -184.5 86.55 -182.35 72.05 -180.25 66.85 -179.85 64.7 -179.55 64.5 -179.6 64.25 -179.8 69.7 -180.6 75.6 -181.35 83.1 -182.75 97.9 -185.15 109.9 -187.6 118.05 -189.2 Q124.7 -191.5 129.85 -192.7 133.2 -193.45 147.25 -197.9 154.4 -200.1 158.75 -203.75 162.85 -207.2 162.85 -210.6 L162.5 -212.1 M176.1 -204.85 L176.15 -204.5 Q176.15 -203.5 172.6 -201.0 L168.65 -198.45 Q167.3 -197.4 164.2 -195.9 161.55 -194.65 159.05 -193.7 L158.45 -193.85 Q163.6 -196.1 168.35 -199.0 173.75 -202.3 175.95 -204.9 L176.1 -204.85 M34.1 -243.85 L34.3 -243.95 36.8 -243.8 40.85 -243.6 45.45 -243.25 50.65 -243.15 52.1 -242.75 59.0 -242.25 59.15 -242.1 68.45 -241.1 73.05 -240.2 73.05 -240.25 74.5 -240.3 76.55 -240.1 76.55 -239.95 82.6 -239.4 83.4 -239.1 90.9 -238.5 93.1 -238.15 96.45 -237.6 100.7 -236.5 Q110.6 -235.25 118.2 -233.2 L130.25 -229.6 Q133.5 -229.2 136.85 -228.15 L143.05 -225.95 Q152.4 -222.6 153.2 -220.85 L153.05 -220.65 Q146.95 -224.95 130.35 -229.2 L125.85 -230.45 125.75 -230.45 123.6 -231.15 116.1 -233.4 95.25 -237.25 94.85 -237.45 94.7 -237.4 88.85 -238.35 83.2 -238.65 83.05 -238.8 80.35 -239.25 76.2 -239.65 74.05 -239.75 73.5 -239.7 Q71.4 -239.9 70.85 -240.2 L69.1 -240.7 66.95 -240.75 64.0 -241.35 58.8 -241.65 58.7 -241.8 56.95 -242.0 55.85 -242.25 50.6 -242.45 50.45 -242.6 47.75 -242.65 44.95 -242.85 41.75 -243.15 40.55 -243.35 38.55 -243.4 36.45 -243.6 35.3 -243.65 34.1 -243.85 M34.1 -239.1 L34.5 -239.4 40.85 -238.95 41.0 -238.8 45.75 -238.55 50.4 -238.15 53.1 -237.75 53.2 -237.6 57.65 -237.2 58.9 -236.95 61.5 -236.6 68.55 -236.05 73.8 -235.35 82.3 -233.95 87.65 -232.4 92.3 -230.95 Q94.6 -230.1 95.3 -229.3 96.3 -227.6 103.0 -225.35 107.75 -223.75 113.35 -222.45 L117.85 -221.4 Q120.35 -220.65 121.7 -219.35 L123.4 -216.95 Q124.45 -215.15 124.45 -214.3 124.45 -212.75 123.7 -210.95 L122.75 -209.2 Q122.45 -206.95 116.85 -203.95 L109.7 -200.65 Q106.4 -199.2 99.95 -197.5 L88.35 -194.65 88.05 -194.7 87.95 -194.7 86.35 -194.2 82.55 -193.1 71.15 -190.8 65.1 -189.65 62.2 -188.7 Q60.75 -188.1 57.5 -187.75 L51.9 -187.15 51.7 -187.3 Q54.85 -187.5 57.5 -188.35 59.6 -189.05 60.55 -189.9 L62.65 -190.25 Q74.0 -191.85 81.65 -193.6 81.45 -194.3 82.5 -194.7 L85.0 -195.35 87.2 -195.9 88.3 -195.8 Q89.95 -196.55 95.7 -197.75 105.6 -199.9 108.65 -201.1 L112.35 -202.45 Q114.6 -203.4 116.25 -204.7 L119.15 -207.5 121.35 -209.45 122.1 -211.15 123.0 -213.55 Q123.0 -214.4 121.85 -216.1 L120.0 -218.55 Q119.5 -219.15 118.25 -219.6 L115.95 -220.3 112.55 -221.8 102.85 -224.95 Q97.15 -226.8 95.3 -227.85 L94.8 -227.75 Q94.4 -227.75 93.15 -228.45 92.1 -229.05 91.75 -229.35 L88.6 -230.6 83.0 -232.65 Q80.0 -233.7 73.2 -234.45 L66.8 -235.3 61.15 -236.3 58.85 -236.6 57.4 -236.85 57.3 -237.0 51.55 -237.45 49.9 -237.75 45.4 -238.15 40.45 -238.4 Q35.0 -238.45 34.1 -239.1 M23.8 -246.65 L20.45 -246.75 20.45 -247.1 24.05 -246.85 24.1 -246.75 23.8 -246.65 M21.15 -244.6 L17.25 -244.8 17.25 -244.95 Q18.25 -245.1 25.3 -244.85 L25.8 -244.6 Q25.8 -244.45 25.3 -244.45 L21.15 -244.6 M26.55 -239.7 L25.55 -239.9 21.7 -240.3 18.7 -240.6 15.65 -240.7 14.65 -240.8 14.6 -240.75 14.55 -241.05 Q14.55 -241.55 14.8 -241.3 L18.8 -241.2 22.15 -240.65 26.0 -240.2 26.55 -239.7 M29.45 -239.8 L29.45 -239.65 29.15 -239.45 28.6 -239.45 27.85 -240.15 29.45 -239.8 M36.3 -223.5 L32.85 -224.4 27.55 -225.95 20.15 -227.35 Q15.2 -228.25 14.8 -228.5 L14.85 -228.5 4.95 -230.3 Q3.25 -230.45 1.4 -231.05 -0.7 -231.7 -2.05 -232.65 L-10.95 -233.9 -14.45 -234.3 Q-17.1 -234.55 -21.0 -234.35 L-29.15 -234.3 -35.9 -234.55 -40.9 -235.1 -45.9 -235.3 -49.75 -235.7 -50.3 -235.7 -50.4 -235.7 -52.3 -235.2 -58.85 -235.1 -59.15 -234.95 -69.2 -234.95 -74.55 -235.05 -78.7 -234.7 -83.25 -234.35 -88.1 -234.8 -95.05 -234.95 Q-98.4 -233.9 -106.1 -233.9 L-111.6 -234.3 -114.35 -234.75 -123.4 -233.7 -133.05 -232.65 -143.85 -231.5 -148.0 -230.7 -152.1 -230.1 -153.05 -230.2 -153.15 -230.25 -153.45 -230.15 -156.15 -230.4 -173.65 -227.4 -177.9 -226.05 Q-178.95 -225.6 -182.0 -225.45 L-185.45 -225.3 -190.4 -223.7 -194.35 -221.5 -198.45 -219.05 Q-199.8 -218.2 -200.35 -217.45 -198.2 -216.7 -197.65 -215.4 -196.95 -213.6 -195.9 -212.95 -194.4 -212.0 -192.4 -211.1 L-192.25 -211.0 -185.6 -209.55 -179.0 -207.8 Q-175.3 -206.45 -167.75 -205.8 L-157.85 -204.8 -152.65 -203.85 Q-150.35 -203.3 -149.05 -202.45 L-147.1 -202.0 -141.05 -200.5 -135.8 -199.8 -131.3 -199.4 -122.6 -198.95 Q-120.35 -198.2 -119.75 -198.2 L-115.0 -198.55 -111.0 -198.9 Q-106.0 -198.55 -104.85 -198.8 L-102.85 -199.2 -96.6 -199.5 -91.7 -199.0 -88.7 -198.4 -85.5 -197.9 -85.35 -197.85 -83.2 -198.0 -78.2 -197.5 -67.4 -197.05 -55.05 -197.2 -50.95 -197.5 -48.45 -197.7 -46.8 -198.0 -41.7 -198.75 -27.0 -198.75 -12.6 -199.65 -6.15 -200.85 -0.8 -201.5 0.75 -201.75 1.45 -202.15 Q2.95 -203.0 4.55 -203.1 15.6 -203.55 20.15 -204.5 L27.0 -206.3 34.7 -208.45 39.8 -209.25 Q42.85 -209.75 44.85 -210.7 45.7 -211.05 46.95 -212.0 L48.55 -213.45 Q50.15 -215.6 50.25 -216.2 L48.85 -218.2 46.85 -219.4 44.5 -220.35 40.0 -222.2 Q38.05 -223.1 37.15 -223.85 L36.95 -223.75 36.3 -223.5 M39.75 -224.35 L44.8 -222.85 Q48.8 -221.85 50.3 -220.7 51.55 -219.75 51.55 -218.25 L51.45 -217.5 51.75 -216.35 Q51.75 -214.7 48.95 -212.45 46.25 -210.35 43.5 -209.5 L37.4 -207.1 Q32.7 -205.35 29.3 -205.35 L24.05 -204.2 18.65 -203.0 4.9 -201.9 1.75 -201.05 0.1 -200.6 -5.55 -199.05 Q-9.05 -198.05 -11.85 -197.65 L-27.1 -197.05 -41.7 -197.15 -46.25 -196.8 -51.05 -196.15 -62.75 -194.95 -67.9 -194.95 -80.1 -196.2 -82.9 -196.55 -83.35 -196.45 -89.1 -197.0 -94.05 -196.8 -102.45 -197.25 -106.95 -197.75 -112.05 -197.35 -118.25 -196.95 -125.05 -197.3 -131.55 -197.9 -133.9 -198.5 -138.2 -199.3 -147.9 -200.65 -149.05 -200.85 -149.3 -200.85 -152.3 -201.35 -155.3 -202.35 Q-156.0 -202.55 -157.75 -203.5 -158.95 -204.15 -160.8 -204.25 L-175.05 -205.2 -176.9 -205.5 -177.05 -205.5 -186.9 -207.5 -190.3 -208.2 -191.85 -209.3 -192.7 -209.8 -193.9 -210.25 -195.7 -210.8 -197.45 -211.65 -199.95 -212.7 Q-200.25 -212.9 -200.35 -213.35 L-200.4 -213.75 -201.45 -215.0 -202.0 -215.4 -202.85 -215.95 -203.5 -216.3 Q-204.1 -216.8 -204.1 -217.6 -204.1 -218.7 -202.0 -220.65 -199.35 -223.15 -195.95 -223.15 L-195.8 -223.15 Q-190.65 -225.45 -184.25 -226.9 -176.8 -228.6 -167.55 -229.7 L-157.1 -231.8 -152.05 -232.4 -151.1 -232.6 -142.55 -233.3 -131.35 -234.5 -124.35 -234.85 -122.3 -234.85 -117.5 -235.3 -113.15 -235.65 -109.7 -235.55 Q-104.35 -235.55 -97.85 -235.85 L-95.3 -235.8 -95.2 -235.85 -90.0 -235.85 -87.8 -235.5 -85.8 -235.25 -77.9 -235.9 Q-74.65 -236.35 -69.2 -235.95 L-53.25 -236.2 -53.15 -236.3 Q-52.7 -236.55 -49.25 -236.25 L-47.3 -236.05 -40.7 -235.85 -36.65 -235.55 -30.65 -235.85 -25.0 -236.15 -10.4 -235.0 -2.8 -233.75 0.6 -233.5 Q2.75 -232.8 5.6 -231.4 L12.7 -230.1 17.65 -228.85 19.4 -228.6 27.65 -227.05 34.0 -226.0 Q36.65 -225.5 37.5 -224.6 L39.75 -224.35 M11.65 -240.8 L8.7 -241.45 9.0 -241.65 11.8 -241.45 11.95 -241.3 12.0 -241.0 Q11.95 -240.8 11.65 -240.8 M8.95 -245.7 Q8.95 -245.4 8.8 -245.45 L8.65 -245.6 3.7 -246.85 2.25 -246.95 -5.9 -247.2 -9.05 -247.3 -9.15 -247.45 -15.2 -247.4 -15.4 -247.25 -19.3 -247.3 -19.35 -247.35 -19.4 -247.35 -20.15 -247.4 -20.1 -247.45 -23.5 -247.7 -26.15 -247.7 -26.15 -247.95 -28.05 -247.8 -33.0 -248.05 -32.9 -248.2 -27.85 -248.2 -25.95 -248.05 -24.95 -248.0 -19.1 -247.9 -19.0 -247.75 -15.45 -247.8 -15.2 -247.95 -8.8 -247.9 -8.7 -247.75 -5.5 -247.5 2.25 -247.4 4.15 -247.15 Q7.3 -246.8 8.85 -245.95 L8.95 -245.7 M5.85 -241.7 L2.8 -242.05 1.1 -242.25 -0.45 -242.3 -2.1 -242.45 -13.7 -242.45 -18.45 -242.65 -22.95 -243.2 -26.85 -243.05 -31.7 -242.95 -34.2 -243.1 -34.2 -242.95 -34.65 -243.15 -35.7 -243.15 -39.55 -242.95 -42.95 -242.35 -45.95 -243.1 -45.95 -243.25 -44.85 -243.25 -43.65 -243.1 -39.6 -243.95 -36.05 -244.1 -35.0 -244.05 -35.65 -244.0 -34.3 -243.9 -34.2 -243.8 -34.2 -243.9 -31.55 -243.8 -28.35 -243.8 -24.0 -243.9 -22.4 -243.75 -21.15 -243.55 -19.4 -243.25 -16.9 -243.2 -13.7 -243.0 -1.8 -242.8 1.5 -242.55 3.25 -242.35 Q7.95 -242.1 8.0 -241.65 L8.0 -241.5 Q8.3 -241.35 7.8 -241.35 L5.85 -241.7 M79.0 -241.4 L85.85 -241.1 87.9 -240.65 87.95 -240.45 90.75 -240.3 93.6 -240.1 93.6 -240.15 93.9 -240.1 94.3 -240.05 94.3 -240.0 98.95 -239.15 104.85 -238.15 109.15 -237.0 111.9 -236.4 116.45 -235.85 116.6 -235.7 121.7 -235.15 122.2 -234.95 121.7 -234.85 118.95 -235.0 118.85 -235.15 110.45 -236.15 105.6 -237.45 98.45 -238.7 97.2 -239.15 94.3 -239.65 94.25 -239.6 94.2 -239.65 93.5 -239.7 93.5 -239.75 88.5 -240.15 Q87.75 -240.15 87.75 -240.4 L83.85 -240.9 78.75 -241.05 78.7 -241.2 74.45 -242.0 74.45 -242.3 Q74.45 -242.05 74.65 -242.1 L75.3 -242.0 77.7 -241.65 78.9 -241.55 79.0 -241.4 M64.25 -243.1 L64.8 -242.9 64.25 -242.75 62.65 -243.0 60.5 -243.5 58.4 -243.9 54.8 -244.2 53.45 -244.25 52.7 -244.65 52.9 -244.85 55.05 -244.45 60.15 -243.95 61.55 -243.5 64.25 -243.1 M51.1 -244.25 L48.5 -244.25 48.4 -244.4 44.75 -244.75 43.15 -245.25 41.0 -245.7 Q41.0 -245.55 40.5 -245.55 L39.1 -245.75 40.7 -246.05 44.1 -245.55 46.25 -244.9 48.85 -244.7 51.3 -244.45 51.1 -244.25 M144.7 -229.15 Q143.1 -229.35 137.35 -231.6 L135.65 -231.8 Q134.0 -231.9 133.7 -232.15 L133.1 -232.7 133.25 -232.8 140.45 -231.1 142.5 -230.25 144.7 -229.15 M146.6 -228.3 L145.45 -229.0 145.7 -229.2 Q146.2 -229.2 147.15 -228.65 L148.35 -227.95 146.6 -228.3 M160.95 -222.9 L159.95 -223.6 158.95 -224.4 156.25 -225.35 149.85 -227.6 Q152.65 -227.35 156.35 -226.05 160.6 -224.55 161.2 -223.0 161.45 -222.9 160.95 -222.9 M156.25 -192.8 L156.15 -192.65 142.7 -188.5 Q134.45 -186.2 124.7 -184.6 L123.95 -184.8 132.55 -186.9 Q139.25 -188.15 141.4 -188.85 L149.45 -191.0 Q153.75 -192.05 155.55 -193.0 L156.25 -192.8 M122.65 -184.0 L113.3 -181.95 110.7 -181.8 102.15 -180.4 100.2 -180.3 98.35 -179.95 95.5 -179.5 93.0 -178.95 92.6 -179.15 93.0 -179.6 100.05 -180.85 101.75 -180.95 110.55 -182.35 118.6 -183.65 122.6 -184.1 122.65 -184.0 M84.1 -177.85 L88.05 -178.65 89.65 -178.8 91.1 -178.8 91.15 -178.65 80.55 -176.8 80.2 -177.0 81.85 -177.25 Q82.15 -177.55 84.1 -177.85 M68.45 -175.45 L67.8 -175.65 68.35 -175.95 72.85 -176.35 74.35 -176.45 Q74.8 -176.85 76.05 -177.1 L77.75 -177.25 79.7 -176.95 78.55 -176.85 77.35 -176.9 75.2 -176.45 74.9 -175.95 72.85 -175.7 69.15 -175.55 68.45 -175.45 M41.8 -186.65 Q41.15 -186.15 39.35 -185.9 L36.4 -185.6 28.05 -184.7 17.05 -184.55 11.15 -184.05 4.55 -184.1 4.5 -184.2 3.85 -184.2 -1.4 -184.65 -16.55 -182.95 -30.0 -181.3 -31.6 -181.55 -32.7 -181.55 -36.35 -181.65 -41.35 -181.95 -44.35 -182.35 -50.15 -182.4 -53.0 -182.2 -58.2 -181.3 -66.4 -180.55 -69.75 -180.85 Q-70.7 -181.05 -70.85 -181.25 L-72.25 -181.15 -77.95 -180.75 -78.9 -180.9 -80.9 -181.05 -85.3 -181.3 -91.5 -181.4 Q-93.2 -181.45 -93.4 -181.9 L-93.5 -181.9 -94.05 -181.85 -94.95 -182.0 -95.1 -182.05 -99.55 -182.4 -99.7 -182.55 -113.25 -182.85 -126.4 -183.65 -133.05 -183.7 -140.8 -183.45 -143.75 -183.6 -145.95 -183.85 -153.75 -184.9 -161.7 -186.15 -163.6 -186.4 -171.65 -186.85 -181.2 -187.65 -183.15 -188.25 -187.65 -189.15 -189.3 -189.4 -199.2 -190.55 -202.05 -191.05 Q-202.55 -190.45 -203.85 -190.45 L-217.45 -193.05 -220.2 -193.9 -224.75 -194.8 Q-225.4 -194.85 -230.5 -196.45 L-239.95 -197.85 -245.0 -198.3 -250.2 -199.05 -252.9 -200.3 -255.15 -201.7 -257.5 -203.15 Q-258.65 -203.7 -258.65 -204.35 L-258.6 -204.75 Q-255.15 -204.35 -250.9 -201.7 L-249.45 -200.55 Q-248.65 -200.0 -246.4 -199.9 L-242.45 -199.4 -237.35 -198.6 -231.4 -197.15 Q-226.7 -195.85 -225.25 -195.8 L-220.6 -194.75 Q-217.25 -193.8 -215.2 -193.8 L-211.85 -193.45 -208.25 -193.0 -207.05 -192.45 -206.2 -192.1 -206.2 -192.15 -199.25 -191.45 -188.8 -190.1 -182.55 -189.35 -178.5 -188.6 -161.45 -187.05 -155.6 -186.4 -149.95 -185.7 -144.45 -185.1 -140.25 -184.45 -138.6 -184.55 -133.05 -184.75 -124.7 -184.85 -113.05 -183.9 -99.65 -182.8 -99.4 -182.6 -93.7 -182.3 -93.65 -182.25 -93.4 -182.3 -85.0 -181.85 -77.45 -181.85 -72.2 -182.15 -68.55 -182.5 -64.5 -182.4 -59.2 -182.55 -56.65 -182.8 -52.8 -183.1 -44.15 -183.15 -37.05 -182.45 -30.9 -182.1 -24.25 -183.0 -15.75 -183.8 -8.35 -184.95 0.2 -185.95 4.7 -185.35 7.05 -184.9 11.35 -185.0 15.05 -185.4 17.35 -185.55 27.95 -185.65 41.65 -186.8 41.8 -186.65 M43.05 -178.0 L42.35 -178.3 46.35 -179.05 51.5 -179.15 53.55 -179.4 60.0 -179.4 60.75 -179.05 60.0 -178.75 53.85 -178.65 51.5 -178.5 46.4 -178.45 43.05 -178.0 M53.7 -174.1 L53.8 -174.4 Q54.4 -174.6 54.4 -174.7 L57.05 -174.45 56.75 -174.15 54.4 -173.95 53.7 -174.1 M28.45 -176.7 Q27.95 -177.1 27.0 -176.4 L20.15 -176.1 16.95 -175.95 13.25 -175.65 11.7 -175.8 11.6 -175.95 18.35 -176.6 27.0 -177.3 29.4 -177.3 Q28.8 -176.4 28.45 -176.7 M25.7 -172.05 L25.6 -171.9 23.25 -171.55 21.85 -171.3 20.9 -171.5 20.9 -171.85 25.05 -172.3 25.7 -172.05 M-324.9 -208.0 Q-324.6 -207.05 -324.65 -206.9 L-324.7 -206.25 Q-324.7 -204.95 -320.75 -202.3 -315.45 -198.8 -314.25 -197.6 L-314.1 -197.45 -314.1 -197.35 -314.5 -197.3 Q-315.0 -197.3 -317.7 -199.3 L-321.4 -202.05 Q-324.3 -203.95 -324.75 -204.75 L-325.0 -207.0 -325.2 -207.65 -325.45 -208.2 -325.4 -209.0 -325.65 -209.35 -325.9 -209.7 Q-325.9 -211.8 -323.95 -213.65 L-319.55 -217.75 Q-317.75 -219.75 -313.75 -221.75 L-307.35 -224.7 -307.1 -224.55 -309.95 -223.0 -313.45 -221.2 Q-316.95 -219.3 -318.5 -217.6 L-319.2 -216.65 -320.5 -215.7 -321.75 -214.75 -322.75 -213.8 Q-323.9 -213.0 -324.6 -211.75 -325.3 -210.65 -325.3 -209.75 L-324.9 -208.0 M-97.0 -248.0 L-97.4 -248.15 -92.65 -248.7 -88.7 -248.85 -85.75 -248.75 -78.85 -248.85 -78.6 -248.95 -66.55 -248.95 -61.65 -248.55 -60.55 -248.6 -59.35 -248.75 -55.7 -248.95 -53.25 -248.8 -50.95 -248.55 -50.85 -248.45 -59.35 -248.1 -61.95 -248.25 -63.85 -248.45 -66.55 -248.3 -73.45 -248.45 -78.6 -248.3 -83.9 -248.3 -86.75 -248.55 -88.7 -248.4 -90.4 -248.2 -96.6 -247.95 -97.0 -248.0 M-130.3 -242.15 L-136.05 -242.0 -139.3 -241.7 -141.2 -241.45 -143.55 -241.45 -144.05 -241.6 -142.5 -242.0 -139.7 -242.2 -137.8 -242.7 Q-136.15 -243.05 -135.5 -242.4 L-134.65 -242.45 -133.7 -242.6 -127.25 -243.05 -117.6 -242.55 -109.8 -243.2 -102.0 -244.25 -94.6 -244.85 -87.8 -243.95 -72.55 -243.35 -72.15 -243.0 -69.75 -243.8 Q-69.15 -244.0 -68.55 -244.45 L-67.7 -245.0 -65.15 -244.8 -61.7 -244.95 -58.4 -245.05 -58.4 -245.15 -55.8 -245.1 -52.45 -244.6 -48.1 -243.75 -50.1 -243.95 -54.2 -244.35 -56.15 -244.55 -66.4 -243.9 -69.25 -243.25 -72.8 -242.45 -74.05 -242.55 -75.5 -242.55 -91.4 -243.2 -98.1 -243.85 -101.5 -243.65 -113.05 -242.1 -121.0 -241.6 -125.05 -241.85 -130.3 -242.15 M-125.0 -219.0 Q-125.0 -220.1 -120.6 -221.0 L-110.55 -221.85 -105.25 -222.85 -101.35 -223.3 -99.4 -223.85 -97.15 -224.0 -95.55 -224.05 -91.95 -224.5 -86.2 -225.15 -80.75 -225.4 -75.6 -225.1 -75.55 -225.1 -71.85 -225.05 Q-59.65 -224.55 -54.1 -224.55 L-42.2 -224.95 -36.4 -224.15 -32.15 -223.15 -30.1 -222.15 -29.8 -222.15 -27.75 -221.2 Q-27.15 -220.85 -27.15 -220.15 L-27.5 -219.55 Q-27.65 -219.2 -27.95 -219.1 L-29.2 -218.2 Q-31.3 -216.7 -32.45 -216.4 L-37.65 -215.85 -41.05 -215.1 -52.05 -214.25 -55.9 -214.75 -57.0 -215.05 -60.85 -214.45 -64.05 -213.75 -66.4 -213.35 Q-69.85 -212.5 -73.45 -212.5 L-79.45 -212.7 -90.0 -213.1 Q-91.1 -213.1 -94.25 -214.0 L-102.6 -214.9 -106.0 -214.95 -107.95 -215.2 -109.45 -215.1 -111.2 -215.2 -113.6 -215.2 -116.15 -215.6 -118.05 -215.7 Q-120.0 -215.7 -121.5 -216.8 L-122.3 -217.5 Q-122.8 -217.65 -123.7 -218.1 L-125.0 -219.0 M-105.5 -220.65 L-112.9 -219.75 -119.05 -218.9 -118.25 -218.55 -114.85 -218.0 -111.65 -217.45 -110.45 -217.55 Q-108.6 -217.55 -106.45 -216.8 L-106.4 -216.75 -102.7 -216.85 -100.15 -216.6 -98.15 -216.1 -95.1 -215.8 -92.75 -215.6 Q-91.8 -215.1 -91.45 -214.95 L-85.9 -214.7 -80.2 -214.45 -77.35 -214.2 Q-72.75 -214.2 -63.55 -215.7 L-62.4 -215.9 -61.7 -216.1 -59.85 -216.35 -54.65 -217.2 -47.75 -216.8 -42.9 -216.9 -41.0 -217.6 -36.75 -218.55 -33.75 -219.1 -32.25 -219.6 -30.9 -220.1 Q-31.65 -221.0 -35.85 -221.6 L-45.4 -222.9 -62.9 -222.65 -71.0 -223.35 -77.75 -224.2 -78.15 -224.4 -80.4 -224.4 -94.9 -222.45 Q-98.7 -221.05 -99.95 -220.9 L-102.9 -221.05 -105.5 -220.65 M-34.95 -247.55 L-36.85 -247.3 -39.25 -247.4 -41.8 -247.6 -42.3 -248.25 -41.7 -248.1 -35.75 -247.85 -34.8 -247.7 -34.95 -247.55 M-29.8 -249.35 L-29.7 -249.5 -29.05 -249.7 -24.65 -249.8 -24.55 -249.95 -24.1 -249.75 -22.05 -249.6 -19.7 -249.25 -14.15 -249.3 -13.0 -249.35 -12.4 -249.4 -11.35 -249.55 -10.9 -249.4 -9.45 -249.4 -9.35 -249.25 -2.25 -249.15 -1.35 -248.7 -2.05 -248.55 -2.55 -248.7 -9.65 -248.8 -11.2 -248.85 -12.85 -248.7 -13.35 -248.75 -13.85 -248.8 -16.45 -248.7 -19.95 -248.95 -22.3 -249.3 -22.35 -249.45 -24.4 -249.65 -24.55 -249.5 -29.05 -249.3 -29.8 -249.35 M-288.55 -226.7 L-288.5 -226.6 -292.45 -224.95 -293.3 -225.15 -293.2 -225.35 -290.5 -226.35 -288.55 -226.7 M-293.75 -224.75 L-294.15 -224.3 Q-299.15 -222.35 -301.4 -221.15 -304.4 -219.6 -305.9 -217.9 L-306.2 -216.9 Q-306.2 -216.3 -306.55 -215.95 L-307.95 -214.2 -309.0 -212.55 Q-309.9 -211.1 -309.9 -210.55 -309.9 -209.55 -308.85 -208.15 L-307.25 -205.65 Q-306.65 -204.25 -304.5 -203.35 -302.3 -202.45 -302.0 -201.8 -301.55 -200.75 -300.1 -200.0 -299.55 -199.65 -296.2 -198.25 L-286.35 -194.3 -285.9 -193.85 -285.9 -193.75 -286.25 -193.7 Q-287.1 -193.7 -289.3 -194.55 L-291.9 -195.7 -293.3 -196.5 -295.65 -197.3 Q-298.5 -198.2 -300.25 -199.15 L-302.95 -201.05 -304.2 -202.2 -305.75 -203.3 Q-307.05 -203.75 -307.55 -204.5 L-308.15 -205.75 -309.1 -206.95 -310.0 -208.15 Q-310.65 -209.55 -310.65 -210.55 -310.65 -211.5 -310.1 -212.45 L-308.55 -214.75 -305.85 -218.75 Q-304.8 -219.95 -300.7 -222.1 -296.35 -224.45 -293.85 -224.9 L-293.75 -224.75 M-255.4 -225.1 L-261.45 -222.35 -263.55 -220.6 Q-264.7 -219.6 -265.6 -219.45 -263.75 -222.0 -259.05 -224.3 -254.8 -226.35 -249.1 -227.8 L-236.75 -230.7 Q-234.3 -231.2 -231.55 -232.2 L-226.9 -232.7 -218.55 -234.4 -202.25 -237.0 Q-201.6 -236.85 -201.5 -236.55 -202.15 -235.85 -207.4 -235.2 L-213.05 -234.6 -223.85 -232.6 -238.45 -229.3 -247.8 -227.25 Q-252.75 -226.2 -255.4 -225.1 M-266.85 -217.65 Q-266.85 -217.45 -268.35 -215.45 -269.85 -213.5 -269.85 -212.5 -269.85 -211.5 -268.65 -210.6 L-265.75 -208.3 -262.85 -206.5 Q-260.65 -205.3 -260.65 -204.95 L-260.7 -204.65 -260.75 -204.75 Q-262.5 -205.15 -264.15 -206.15 L-267.35 -208.45 -270.75 -211.2 Q-271.5 -212.05 -271.5 -213.6 -271.5 -214.6 -270.3 -216.15 -269.0 -217.8 -267.6 -218.1 L-267.15 -218.0 Q-266.85 -218.15 -266.85 -217.65 M-182.05 -176.9 L-182.65 -177.55 -184.1 -177.8 -190.25 -177.8 -190.65 -178.1 Q-190.0 -178.5 -185.45 -178.05 L-180.6 -177.45 -173.85 -176.8 -169.85 -176.15 -153.6 -176.4 -150.2 -175.75 -147.85 -175.1 -147.45 -175.0 -147.4 -175.05 Q-140.15 -174.0 -120.7 -174.3 L-114.2 -174.25 -108.55 -173.9 -102.95 -173.25 -103.25 -173.1 -105.0 -173.25 -109.6 -173.55 -114.2 -173.7 -120.8 -173.6 -122.3 -173.4 -124.15 -173.3 -126.75 -173.45 -133.45 -173.75 -138.3 -173.9 -142.9 -174.4 -145.3 -174.55 -146.45 -174.6 -147.35 -174.7 -147.85 -174.55 -150.6 -175.25 -156.4 -175.85 -164.75 -175.7 -170.05 -175.75 -171.45 -176.0 -177.1 -176.3 -182.05 -176.9 M-201.4 -174.9 L-198.35 -174.5 -198.3 -174.35 -198.6 -174.2 -199.3 -174.35 -201.85 -174.6 -203.3 -174.85 -204.85 -175.25 -204.6 -175.5 -201.5 -175.05 -201.4 -174.9 M-194.95 -178.0 L-196.1 -178.15 -199.95 -178.4 -202.95 -178.65 -205.3 -179.05 -210.25 -179.2 -210.8 -179.25 -211.35 -179.55 -210.8 -179.8 -202.65 -179.05 -198.4 -178.75 -194.65 -178.4 -194.45 -178.25 -194.5 -178.1 -194.95 -178.0 M-191.75 -174.2 L-189.55 -173.95 -189.45 -173.75 -187.7 -173.55 -181.45 -173.2 -179.55 -172.55 -178.95 -172.6 Q-179.2 -172.75 -178.7 -172.75 L-173.2 -172.45 Q-173.1 -172.15 -172.2 -172.1 L-166.9 -172.05 -165.2 -172.2 -158.45 -172.0 -158.25 -171.85 -159.2 -171.6 -160.45 -171.7 -161.35 -171.85 -165.4 -171.7 -166.9 -171.65 -172.55 -171.8 -174.3 -172.15 Q-178.65 -171.7 -179.85 -172.05 L-181.7 -172.75 -181.8 -172.9 -185.65 -173.1 -187.9 -173.35 -189.9 -173.5 Q-191.65 -173.65 -192.0 -174.0 L-191.75 -174.2 M-217.25 -180.4 L-218.35 -180.75 -220.7 -181.0 -222.65 -181.2 -225.6 -181.4 -228.3 -181.75 -231.75 -182.3 -232.05 -182.55 -233.65 -182.95 -237.45 -183.5 -239.5 -183.55 -240.4 -183.45 Q-242.95 -183.45 -249.6 -185.9 L-251.3 -186.15 -257.75 -186.2 Q-259.55 -187.35 -263.55 -188.05 -267.4 -188.75 -268.65 -189.75 L-268.75 -190.1 -268.15 -190.05 Q-266.25 -188.95 -262.05 -188.4 -258.4 -187.9 -257.3 -186.7 L-250.9 -186.45 -244.35 -184.95 -241.3 -184.0 -241.25 -184.25 -234.95 -183.6 -232.15 -182.75 -229.35 -182.55 -225.2 -181.75 -223.85 -181.7 -222.35 -181.5 -220.25 -181.3 -217.25 -180.95 -216.25 -180.6 -213.1 -179.9 -212.85 -179.75 -212.8 -179.7 -213.15 -179.65 -216.25 -180.2 -217.25 -180.4 M-233.55 -178.6 L-233.2 -178.3 -233.25 -178.2 -233.65 -178.05 Q-235.6 -178.75 -236.3 -178.6 L-238.7 -178.75 -242.9 -179.6 -247.35 -180.1 Q-249.45 -180.2 -250.75 -181.05 L-251.1 -181.55 -250.0 -181.3 -243.95 -180.2 -236.45 -178.7 -233.55 -178.6 M-229.0 -178.05 L-225.85 -177.4 -225.7 -177.1 -225.75 -177.0 -226.15 -176.9 -227.05 -177.05 -228.8 -177.4 -230.65 -177.7 -231.25 -178.45 -229.0 -178.05 M-257.4 -181.7 L-257.45 -181.85 -258.7 -181.9 -259.85 -182.05 -261.0 -182.2 Q-261.8 -182.25 -262.15 -182.65 -262.4 -182.9 -263.2 -183.0 L-264.6 -183.2 -265.75 -183.75 -267.95 -184.15 -268.05 -184.45 -267.8 -184.7 Q-266.5 -184.75 -265.4 -184.15 L-264.35 -183.55 -259.45 -182.35 -256.9 -182.05 -254.95 -181.65 -255.05 -181.5 -256.15 -181.45 -257.4 -181.7 M-272.05 -190.3 Q-272.05 -190.0 -272.3 -189.85 L-273.15 -190.25 -272.75 -190.5 -272.05 -190.3 M-274.0 -190.75 Q-275.2 -190.5 -277.6 -191.8 -280.15 -192.0 -281.2 -192.8 L-281.2 -192.85 -277.3 -192.1 Q-274.5 -191.4 -273.9 -190.85 L-274.0 -190.75 M-297.65 -190.7 Q-299.15 -190.7 -304.6 -193.15 L-311.6 -196.3 -311.9 -196.6 -311.7 -196.85 -308.15 -195.3 -304.95 -193.75 -301.1 -192.4 Q-297.95 -191.3 -297.4 -190.75 L-297.35 -190.7 -297.65 -190.7 M-15.8 -174.5 L-12.45 -174.8 -12.2 -174.95 -11.65 -174.95 -10.05 -174.9 -9.2 -174.85 -4.2 -175.0 -4.2 -175.1 -2.35 -175.05 -1.75 -174.85 -4.2 -174.45 -9.85 -174.3 -13.2 -174.05 -18.55 -173.75 -24.4 -173.6 -25.15 -173.5 -25.3 -173.45 -28.4 -173.0 -28.85 -172.95 -28.9 -172.95 -31.05 -172.9 -31.2 -172.75 -34.7 -172.65 -37.35 -172.9 -37.4 -172.9 -40.85 -172.9 -41.0 -173.05 -43.1 -173.45 -48.25 -173.45 -57.0 -172.7 -59.8 -172.85 -61.55 -173.1 -63.4 -173.35 -65.6 -173.7 -72.95 -173.25 -75.2 -172.55 -75.75 -172.65 -74.3 -173.3 -70.35 -174.1 -66.8 -174.0 -61.25 -173.55 -61.1 -173.4 -59.35 -173.15 -54.25 -173.65 -49.05 -174.05 -45.65 -174.05 -40.6 -173.6 -40.45 -173.45 -39.65 -173.45 -38.9 -173.65 -37.8 -173.55 -37.3 -173.65 -36.95 -173.5 -32.7 -173.15 -31.35 -173.2 -31.2 -173.35 -30.8 -173.3 -28.35 -173.6 -25.25 -174.05 -24.85 -174.25 -23.85 -174.35 -16.9 -174.45 -15.8 -174.5 M-29.15 -169.75 L-22.75 -170.2 -19.8 -170.55 -13.7 -170.35 -13.8 -170.3 -21.45 -170.05 Q-21.95 -169.45 -26.6 -169.45 L-29.1 -169.6 -29.15 -169.75 M-36.7 -169.45 L-41.85 -169.65 -46.3 -169.2 -51.85 -168.8 -62.7 -168.75 -65.35 -168.45 -68.7 -168.65 -71.8 -168.9 -65.6 -168.95 -60.65 -169.35 -52.1 -169.45 -46.3 -169.85 -41.45 -169.95 -36.4 -169.75 -32.05 -169.45 -33.85 -169.25 -36.7 -169.45 M-77.05 -172.0 L-78.4 -171.8 -82.35 -171.95 -87.25 -172.3 -89.75 -172.7 -96.95 -173.0 -97.0 -173.15 -97.45 -173.45 -97.25 -173.55 -81.8 -172.35 -77.1 -172.1 -77.05 -172.0 M-108.7 -170.0 L-108.65 -169.85 Q-109.05 -169.45 -109.75 -169.45 L-112.05 -169.65 -114.05 -169.85 -114.05 -170.0 -110.95 -170.1 -108.7 -170.0 M-117.1 -169.7 L-125.55 -169.65 -128.25 -170.15 -129.75 -169.9 -131.1 -170.05 -137.95 -170.2 -139.7 -170.3 -140.35 -170.65 -130.25 -170.4 -128.45 -170.55 -125.55 -170.15 -121.3 -170.2 -116.95 -170.35 -115.9 -170.35 Q-115.25 -170.3 -115.15 -170.05 L-117.1 -169.7 M-84.2 -169.5 L-84.6 -169.2 -88.35 -169.6 -88.4 -169.75 -91.4 -169.55 -92.7 -169.75 -91.4 -169.9 -91.25 -170.0 -84.6 -169.75 -84.2 -169.5 M-149.3 -171.25 L-149.25 -171.15 -150.05 -170.95 -151.65 -171.15 -153.1 -171.5 -157.35 -171.8 -157.35 -172.05 -154.6 -172.15 -152.9 -172.05 -150.95 -171.65 -149.3 -171.25" fill="#000000" fill-rule="evenodd" stroke="none"/>
    </clipPath>
    <g clip-path="url(#clipPath0)">
      <use ffdec:characterId="229" height="86.05" transform="matrix(1.0, 0.0, 0.0, 1.0, -336.85, -250.65)" width="527.25" xlink:href="#shape2"/>
    </g>
    <use ffdec:characterId="230" height="71.55" transform="matrix(1.0, 0.0, 0.0, 1.0, -161.0, -281.35)" width="169.75" xlink:href="#shape3"/>
  </g>
  <defs>
    <g id="shape0" transform="matrix(1.0, 0.0, 0.0, 1.0, 336.85, 250.65)">
      <path d="M131.95 -180.6 Q134.1 -183.6 133.35 -186.65 132.65 -189.6 129.15 -192.7 119.45 -201.35 90.5 -207.85 L83.9 -209.3 Q70.1 -212.1 52.55 -214.5 14.8 -219.6 -29.65 -221.25 L-57.25 -221.95 -62.1 -222.0 -63.35 -222.0 -71.9 -222.05 -73.25 -222.05 -88.05 -221.95 -109.2 -221.5 -135.45 -220.4 -132.7 -218.65 -130.3 -216.4 -128.35 -215.6 -128.3 -215.6 Q-125.2 -214.25 -121.05 -213.7 -117.75 -213.75 -113.2 -215.05 L-106.3 -217.5 Q-103.6 -218.45 -100.95 -216.9 -98.4 -215.45 -98.4 -213.2 L-98.55 -212.8 -95.7 -212.6 -80.85 -213.9 -66.9 -215.4 -44.1 -213.8 Q-39.6 -213.3 -28.3 -214.2 L-19.0 -214.2 -19.5 -214.05 -20.55 -213.7 -16.9 -214.0 -15.85 -213.95 -15.9 -214.6 -15.85 -215.1 -19.0 -214.2 Q-18.2 -215.4 -15.0 -216.8 L-14.85 -216.75 -13.4 -217.65 -7.5 -219.9 -6.75 -219.5 Q-6.5 -219.35 -6.5 -218.1 -6.5 -217.7 -7.85 -216.75 -9.2 -215.8 -9.2 -214.8 L-8.2 -213.2 Q-7.8 -212.3 -7.8 -211.0 -7.8 -210.4 -11.8 -206.7 L-16.2 -202.9 -15.5 -201.2 -15.8 -200.85 -13.95 -200.05 -8.6 -199.8 Q-6.5 -197.7 -6.5 -197.4 -6.5 -196.5 -9.5 -193.05 L-13.0 -189.2 -13.3 -185.3 Q-13.45 -182.5 -15.7 -181.9 -17.45 -181.9 -18.5 -182.4 L-19.7 -182.8 -19.7 -183.3 -19.7 -183.75 -17.8 -187.35 -12.6 -195.3 Q-13.5 -195.7 -14.7 -196.6 -15.75 -197.2 -16.9 -196.9 -15.95 -194.35 -17.3 -192.4 L-18.3 -191.35 -18.1 -192.1 Q-18.1 -194.45 -22.6 -199.35 -26.95 -204.1 -27.1 -207.0 L-28.3 -207.1 -29.75 -208.4 -30.5 -208.5 -31.9 -210.2 Q-31.6 -211.1 -30.7 -211.4 L-33.25 -211.2 Q-33.9 -212.35 -35.4 -213.2 -36.7 -212.3 -37.05 -210.95 L-37.85 -210.9 -37.4 -210.4 -36.05 -207.05 Q-35.25 -205.2 -34.0 -203.8 -32.65 -202.35 -32.25 -200.1 -32.1 -199.2 -32.1 -197.3 -27.6 -196.7 -25.3 -194.95 -23.4 -193.55 -23.4 -191.8 -23.4 -190.2 -24.2 -187.85 L-21.4 -187.6 -21.2 -187.35 -21.4 -187.0 Q-22.65 -187.2 -24.9 -185.55 L-31.1 -179.9 -31.1 -182.1 Q-31.35 -183.25 -32.35 -183.65 L-31.6 -185.85 Q-30.9 -187.95 -30.9 -189.2 -30.9 -190.65 -31.35 -191.4 -31.8 -192.05 -32.9 -192.7 L-35.4 -192.9 Q-36.7 -193.95 -37.05 -197.75 -37.4 -201.55 -38.4 -202.2 -40.4 -203.5 -42.1 -205.35 -44.15 -207.55 -46.2 -209.1 L-44.7 -210.4 -45.35 -210.35 -45.5 -210.5 -48.0 -211.8 Q-48.0 -211.75 -48.6 -211.45 L-49.4 -210.8 -49.2 -210.4 Q-48.55 -209.9 -47.35 -207.8 -46.2 -205.7 -46.2 -205.1 L-42.1 -204.5 -41.7 -203.7 -44.1 -201.0 Q-42.7 -200.55 -42.3 -198.2 L-40.5 -197.6 Q-39.1 -196.45 -37.2 -193.05 L-35.6 -189.6 Q-35.6 -189.35 -37.1 -187.55 L-38.8 -185.4 Q-39.0 -184.85 -38.55 -183.85 -38.0 -182.6 -38.0 -181.6 -38.0 -180.95 -38.6 -179.6 L-39.75 -179.0 -39.75 -179.05 Q-39.0 -180.6 -39.0 -181.6 -39.0 -187.65 -45.2 -189.05 L-49.45 -188.9 -49.9 -188.7 -52.3 -190.6 -53.1 -190.2 Q-51.2 -188.0 -52.75 -184.95 -54.5 -181.55 -54.8 -180.05 L-55.9 -179.7 -61.45 -179.05 Q-62.05 -181.35 -64.1 -182.75 -66.65 -184.5 -70.45 -184.3 -74.15 -184.1 -76.8 -182.25 -79.1 -180.6 -79.55 -178.3 -82.75 -179.1 -84.6 -178.9 -86.8 -180.75 -86.8 -181.3 L-86.4 -184.55 Q-86.0 -187.1 -86.0 -189.6 -84.15 -191.3 -81.1 -193.1 L-82.15 -193.45 Q-82.5 -193.7 -82.5 -195.0 L-82.3 -196.5 Q-81.55 -197.7 -78.7 -197.6 L-77.35 -198.95 -76.4 -200.0 Q-76.4 -201.0 -77.15 -201.2 -77.9 -201.4 -77.9 -202.4 -77.9 -203.65 -77.3 -204.65 L-76.4 -205.9 Q-76.15 -206.3 -76.15 -207.4 L-75.8 -209.1 -74.65 -209.5 -76.7 -209.5 -77.15 -209.5 Q-77.0 -209.9 -77.0 -210.2 -77.0 -213.5 -78.75 -213.6 -80.5 -213.7 -82.9 -210.6 L-81.75 -210.1 -81.25 -209.6 -83.85 -209.65 -85.05 -209.65 -84.8 -208.4 Q-84.8 -207.65 -86.4 -206.0 -88.15 -204.25 -89.4 -204.1 L-89.05 -200.95 Q-88.95 -198.85 -91.9 -197.6 L-92.75 -194.05 Q-93.45 -191.85 -95.3 -191.3 L-94.8 -190.1 Q-94.45 -189.1 -93.9 -188.4 L-94.0 -187.9 Q-95.9 -188.65 -99.25 -186.8 L-101.0 -186.8 -100.95 -186.3 -99.7 -186.5 Q-103.9 -184.0 -103.9 -181.0 -103.9 -178.15 -97.65 -173.2 L-97.5 -173.1 Q-101.95 -173.5 -104.7 -175.7 -103.45 -176.7 -103.7 -178.2 -104.75 -178.7 -107.65 -181.55 -107.45 -185.2 -105.85 -187.1 L-98.8 -194.5 -100.4 -195.7 Q-100.15 -196.6 -97.85 -198.35 -95.7 -200.0 -95.7 -201.0 -95.7 -202.0 -96.45 -201.65 -97.2 -201.3 -97.2 -202.3 -97.2 -203.45 -95.5 -206.75 L-93.35 -209.9 -95.4 -210.35 -96.5 -210.6 -100.3 -211.15 -100.05 -210.85 Q-98.8 -209.5 -98.8 -208.9 -98.8 -208.25 -100.15 -207.0 L-101.8 -205.3 -102.4 -204.25 -104.1 -203.0 -106.45 -200.15 Q-107.6 -198.8 -110.4 -197.5 L-112.25 -193.85 Q-113.4 -191.3 -113.4 -190.4 -113.4 -189.3 -114.1 -188.0 L-114.85 -186.3 -116.9 -186.8 Q-118.75 -189.2 -120.6 -190.45 -120.05 -191.3 -119.6 -192.45 -118.5 -195.3 -118.7 -197.3 L-120.8 -196.1 -118.9 -197.5 Q-118.4 -197.85 -118.1 -198.65 L-117.5 -200.2 Q-117.05 -201.15 -114.55 -202.85 -111.8 -204.7 -110.0 -204.9 -109.65 -206.35 -108.3 -208.7 L-106.4 -211.45 -106.7 -211.6 -108.6 -211.8 Q-108.75 -210.7 -109.05 -210.1 -109.8 -208.5 -113.2 -208.5 -113.5 -206.75 -118.8 -203.65 L-125.6 -200.0 -125.8 -200.0 Q-125.85 -199.2 -126.5 -199.0 -127.2 -198.8 -127.2 -197.8 -127.2 -196.65 -127.8 -196.55 L-128.4 -196.4 Q-130.4 -198.8 -133.8 -199.6 -133.65 -199.05 -132.15 -197.4 L-130.1 -194.9 -129.3 -193.0 -129.45 -192.85 -128.8 -191.8 -128.1 -190.5 -127.4 -188.8 Q-127.85 -188.25 -128.55 -187.85 -127.6 -187.2 -126.8 -187.0 -125.2 -186.8 -124.15 -186.3 -123.1 -184.15 -119.35 -181.3 L-115.45 -178.3 -115.7 -178.35 -122.6 -179.1 -125.9 -181.2 -126.75 -181.6 -126.6 -183.7 Q-127.85 -183.9 -129.4 -184.55 L-132.1 -185.6 -135.6 -191.95 Q-138.2 -196.65 -138.2 -197.5 -138.2 -199.45 -136.6 -201.55 -134.65 -204.1 -134.0 -206.9 L-138.4 -209.1 -137.6 -211.1 Q-136.8 -212.7 -136.8 -213.8 -136.8 -215.2 -135.3 -215.95 L-137.6 -217.35 -138.2 -217.6 Q-138.2 -219.6 -137.45 -220.3 -170.15 -218.4 -198.95 -214.5 -215.5 -212.25 -228.65 -209.6 L-236.9 -207.85 Q-244.35 -206.2 -250.5 -204.35 -268.4 -199.1 -275.65 -192.7 -278.05 -190.55 -279.15 -188.45 -281.25 -184.45 -278.4 -180.6 -326.6 -190.2 -335.05 -202.1 -337.7 -205.85 -336.45 -209.85 -335.95 -211.45 -334.85 -212.95 -323.8 -228.35 -252.7 -239.15 -176.8 -250.65 -73.25 -250.65 L-72.75 -250.65 Q30.5 -250.6 106.25 -239.15 184.4 -227.25 190.0 -209.85 195.25 -193.2 131.95 -180.6 M-122.75 -198.85 L-125.4 -199.0 -120.9 -199.0 -122.75 -198.85 M-121.8 -204.7 L-121.3 -205.15 -121.95 -204.7 -121.8 -204.7 M-38.1 -173.45 L-37.9 -173.6 Q-37.45 -173.05 -36.5 -172.8 -37.85 -172.9 -38.0 -173.2 L-38.1 -173.45 M-43.7 -196.3 L-43.65 -196.3 -43.7 -196.3 M-60.7 -173.85 L-60.55 -173.8 -63.55 -173.05 -62.35 -174.3 -60.7 -173.85 M-108.1 -173.4 L-109.85 -172.9 -109.9 -172.95 Q-111.5 -174.6 -111.9 -175.45 L-111.0 -174.6 -108.3 -174.6 -108.1 -174.4 -108.1 -173.4" fill="#403d56" fill-rule="evenodd" stroke="none"/>
      <path d="M-278.4 -180.6 Q-281.25 -184.45 -279.15 -188.45 -278.05 -190.55 -275.65 -192.7 -268.4 -199.1 -250.5 -204.35 -244.35 -206.2 -236.9 -207.85 L-228.65 -209.6 Q-215.5 -212.25 -198.95 -214.5 -170.15 -218.4 -137.45 -220.3 -138.2 -219.6 -138.2 -217.6 L-137.6 -217.35 -135.3 -215.95 Q-136.8 -215.2 -136.8 -213.8 -136.8 -212.7 -137.6 -211.1 L-138.4 -209.1 -134.0 -206.9 Q-134.65 -204.1 -136.6 -201.55 -138.2 -199.45 -138.2 -197.5 -138.2 -196.65 -135.6 -191.95 L-132.1 -185.6 -129.4 -184.55 Q-127.85 -183.9 -126.6 -183.7 L-126.75 -181.6 -125.9 -181.2 -122.6 -179.1 -115.7 -178.35 -115.45 -178.3 -119.35 -181.3 Q-123.1 -184.15 -124.15 -186.3 -125.2 -186.8 -126.8 -187.0 -127.6 -187.2 -128.55 -187.85 -127.85 -188.25 -127.4 -188.8 L-128.1 -190.5 -128.8 -191.8 -129.45 -192.85 -129.3 -193.0 -130.1 -194.9 -132.15 -197.4 Q-133.65 -199.05 -133.8 -199.6 -130.4 -198.8 -128.4 -196.4 L-127.8 -196.55 Q-127.2 -196.65 -127.2 -197.8 -127.2 -198.8 -126.5 -199.0 -125.85 -199.2 -125.8 -200.0 L-125.6 -200.0 -118.8 -203.65 Q-113.5 -206.75 -113.2 -208.5 -109.8 -208.5 -109.05 -210.1 -108.75 -210.7 -108.6 -211.8 L-106.7 -211.6 -106.4 -211.45 -108.3 -208.7 Q-109.65 -206.35 -110.0 -204.9 -111.8 -204.7 -114.55 -202.85 -117.05 -201.15 -117.5 -200.2 L-118.1 -198.65 Q-118.4 -197.85 -118.9 -197.5 L-120.8 -196.1 -118.7 -197.3 Q-118.5 -195.3 -119.6 -192.45 -120.05 -191.3 -120.6 -190.45 -118.75 -189.2 -116.9 -186.8 L-114.85 -186.3 -114.1 -188.0 Q-113.4 -189.3 -113.4 -190.4 -113.4 -191.3 -112.25 -193.85 L-110.4 -197.5 Q-107.6 -198.8 -106.45 -200.15 L-104.1 -203.0 -102.4 -204.25 -101.8 -205.3 -100.15 -207.0 Q-98.8 -208.25 -98.8 -208.9 -98.8 -209.5 -100.05 -210.85 L-100.3 -211.15 -96.5 -210.6 -95.4 -210.35 -93.35 -209.9 -95.5 -206.75 Q-97.2 -203.45 -97.2 -202.3 -97.2 -201.3 -96.45 -201.65 -95.7 -202.0 -95.7 -201.0 -95.7 -200.0 -97.85 -198.35 -100.15 -196.6 -100.4 -195.7 L-98.8 -194.5 -105.85 -187.1 Q-107.45 -185.2 -107.65 -181.55 -104.75 -178.7 -103.7 -178.2 -103.45 -176.7 -104.7 -175.7 -101.95 -173.5 -97.5 -173.1 L-97.65 -173.2 Q-103.9 -178.15 -103.9 -181.0 -103.9 -184.0 -99.7 -186.5 L-100.95 -186.3 -101.0 -186.8 -99.25 -186.8 Q-95.9 -188.65 -94.0 -187.9 L-93.9 -188.4 Q-94.45 -189.1 -94.8 -190.1 L-95.3 -191.3 Q-93.45 -191.85 -92.75 -194.05 L-91.9 -197.6 Q-88.95 -198.85 -89.05 -200.95 L-89.4 -204.1 Q-88.15 -204.25 -86.4 -206.0 -84.8 -207.65 -84.8 -208.4 L-85.05 -209.65 -83.85 -209.65 -81.25 -209.6 -81.75 -210.1 -82.9 -210.6 Q-80.5 -213.7 -78.75 -213.6 -77.0 -213.5 -77.0 -210.2 -77.0 -209.9 -77.15 -209.5 L-76.7 -209.5 -74.65 -209.5 -75.8 -209.1 -76.15 -207.4 Q-76.15 -206.3 -76.4 -205.9 L-77.3 -204.65 Q-77.9 -203.65 -77.9 -202.4 -77.9 -201.4 -77.15 -201.2 -76.4 -201.0 -76.4 -200.0 L-77.35 -198.95 -78.7 -197.6 Q-81.55 -197.7 -82.3 -196.5 L-82.5 -195.0 Q-82.5 -193.7 -82.15 -193.45 L-81.1 -193.1 Q-84.15 -191.3 -86.0 -189.6 -86.0 -187.1 -86.4 -184.55 L-86.8 -181.3 Q-86.8 -180.75 -84.6 -178.9 -82.75 -179.1 -79.55 -178.3 -79.1 -180.6 -76.8 -182.25 -74.15 -184.1 -70.45 -184.3 -66.65 -184.5 -64.1 -182.75 -62.05 -181.35 -61.45 -179.05 L-55.9 -179.7 -54.8 -180.05 Q-54.5 -181.55 -52.75 -184.95 -51.2 -188.0 -53.1 -190.2 L-52.3 -190.6 -49.9 -188.7 -49.45 -188.9 -45.2 -189.05 Q-39.0 -187.65 -39.0 -181.6 -39.0 -180.6 -39.75 -179.05 L-39.75 -179.0 -38.6 -179.6 Q-38.0 -180.95 -38.0 -181.6 -38.0 -182.6 -38.55 -183.85 -39.0 -184.85 -38.8 -185.4 L-37.1 -187.55 Q-35.6 -189.35 -35.6 -189.6 L-37.2 -193.05 Q-39.1 -196.45 -40.5 -197.6 L-42.3 -198.2 Q-42.7 -200.55 -44.1 -201.0 L-41.7 -203.7 -42.1 -204.5 -46.2 -205.1 Q-46.2 -205.7 -47.35 -207.8 -48.55 -209.9 -49.2 -210.4 L-49.4 -210.8 -48.6 -211.45 Q-48.0 -211.75 -48.0 -211.8 L-45.5 -210.5 -45.35 -210.35 -44.7 -210.4 -46.2 -209.1 Q-44.15 -207.55 -42.1 -205.35 -40.4 -203.5 -38.4 -202.2 -37.4 -201.55 -37.05 -197.75 -36.7 -193.95 -35.4 -192.9 L-32.9 -192.7 Q-31.8 -192.05 -31.35 -191.4 -30.9 -190.65 -30.9 -189.2 -30.9 -187.95 -31.6 -185.85 L-32.35 -183.65 Q-31.35 -183.25 -31.1 -182.1 L-31.1 -179.9 -24.9 -185.55 Q-22.65 -187.2 -21.4 -187.0 L-21.2 -187.35 -21.4 -187.6 -24.2 -187.85 Q-23.4 -190.2 -23.4 -191.8 -23.4 -193.55 -25.3 -194.95 -27.6 -196.7 -32.1 -197.3 -32.1 -199.2 -32.25 -200.1 -32.65 -202.35 -34.0 -203.8 -35.25 -205.2 -36.05 -207.05 L-37.4 -210.4 -37.85 -210.9 -37.05 -210.95 Q-36.7 -212.3 -35.4 -213.2 -33.9 -212.35 -33.25 -211.2 L-30.7 -211.4 Q-31.6 -211.1 -31.9 -210.2 L-30.5 -208.5 -29.75 -208.4 -28.3 -207.1 -27.1 -207.0 Q-26.95 -204.1 -22.6 -199.35 -18.1 -194.45 -18.1 -192.1 L-18.3 -191.35 -17.3 -192.4 Q-15.95 -194.35 -16.9 -196.9 -15.75 -197.2 -14.7 -196.6 -13.5 -195.7 -12.6 -195.3 L-17.8 -187.35 -19.7 -183.75 -19.7 -183.3 -19.7 -182.8 -18.5 -182.4 Q-17.45 -181.9 -15.7 -181.9 -13.45 -182.5 -13.3 -185.3 L-13.0 -189.2 -9.5 -193.05 Q-6.5 -196.5 -6.5 -197.4 -6.5 -197.7 -8.6 -199.8 L-13.95 -200.05 -15.8 -200.85 -15.5 -201.2 -16.2 -202.9 -11.8 -206.7 Q-7.8 -210.4 -7.8 -211.0 -7.8 -212.3 -8.2 -213.2 L-9.2 -214.8 Q-9.2 -215.8 -7.85 -216.75 -6.5 -217.7 -6.5 -218.1 -6.5 -219.35 -6.75 -219.5 L-7.5 -219.9 -13.4 -217.65 -14.85 -216.75 -15.0 -216.8 Q-18.2 -215.4 -19.0 -214.2 L-15.85 -215.1 -15.9 -214.6 -15.85 -213.95 -16.9 -214.0 -20.55 -213.7 -19.5 -214.05 -19.0 -214.2 -28.3 -214.2 Q-39.6 -213.3 -44.1 -213.8 L-66.9 -215.4 -80.85 -213.9 -95.7 -212.6 -98.55 -212.8 -98.4 -213.2 Q-98.4 -215.45 -100.95 -216.9 -103.6 -218.45 -106.3 -217.5 L-113.2 -215.05 Q-117.75 -213.75 -121.05 -213.7 -125.2 -214.25 -128.3 -215.6 L-128.35 -215.6 -130.3 -216.4 -132.7 -218.65 -135.45 -220.4 -109.2 -221.5 -88.05 -221.95 -73.25 -222.05 -71.9 -222.05 -63.35 -222.0 -62.1 -222.0 -57.25 -221.95 -29.65 -221.25 Q14.8 -219.6 52.55 -214.5 70.1 -212.1 83.9 -209.3 L90.5 -207.85 Q119.45 -201.35 129.15 -192.7 132.65 -189.6 133.35 -186.65 134.1 -183.6 131.95 -180.6 L119.95 -178.4 Q41.85 -164.65 -72.75 -164.6 L-73.25 -164.6 Q-188.2 -164.6 -266.45 -178.4 L-278.4 -180.6 M-122.75 -198.85 L-120.9 -199.0 -125.4 -199.0 -122.75 -198.85 M-121.8 -204.7 L-121.95 -204.7 -121.3 -205.15 -121.8 -204.7 M-38.1 -173.45 L-38.0 -173.2 Q-37.85 -172.9 -36.5 -172.8 -37.45 -173.05 -37.9 -173.6 L-38.1 -173.45 M-43.7 -196.3 L-43.65 -196.3 -43.7 -196.3 M-60.7 -173.85 L-62.35 -174.3 -63.55 -173.05 -60.55 -173.8 -60.7 -173.85 M-108.1 -173.4 L-108.1 -174.4 -108.3 -174.6 -111.0 -174.6 -111.9 -175.45 Q-111.5 -174.6 -109.9 -172.95 L-109.85 -172.9 -108.1 -173.4" fill="#302e41" fill-rule="evenodd" stroke="none"/>
    </g>
    <g id="shape2" transform="matrix(1.0, 0.0, 0.0, 1.0, 336.85, 250.65)">
      <path d="M131.95 -180.6 Q134.1 -183.6 133.35 -186.65 132.65 -189.6 129.15 -192.7 114.05 -206.1 52.55 -214.5 -3.05 -222.05 -73.25 -222.05 -143.4 -222.05 -198.95 -214.5 -231.05 -210.1 -250.5 -204.35 -268.4 -199.1 -275.65 -192.7 -282.7 -186.45 -278.4 -180.6 -326.6 -190.2 -335.05 -202.1 -337.7 -205.85 -336.45 -209.85 -335.95 -211.45 -334.85 -212.95 -323.8 -228.35 -252.7 -239.15 -176.8 -250.65 -73.25 -250.65 L-72.75 -250.65 Q30.5 -250.6 106.25 -239.15 184.4 -227.25 190.0 -209.85 195.25 -193.2 131.95 -180.6" fill="#302e41" fill-rule="evenodd" stroke="none"/>
      <path d="M-278.4 -180.6 Q-282.7 -186.45 -275.65 -192.7 -268.4 -199.1 -250.5 -204.35 -231.05 -210.1 -198.95 -214.5 -143.4 -222.05 -73.25 -222.05 -3.05 -222.05 52.55 -214.5 114.05 -206.1 129.15 -192.7 132.65 -189.6 133.35 -186.65 134.1 -183.6 131.95 -180.6 L119.95 -178.4 Q41.85 -164.65 -72.75 -164.6 L-73.25 -164.6 Q-188.2 -164.6 -266.45 -178.4 L-278.4 -180.6" fill="#403d56" fill-rule="evenodd" stroke="none"/>
      <path d="M181.35 -211.8 L182.7 -210.7 183.15 -210.8 183.4 -210.75 183.45 -210.05 Q183.45 -208.05 179.95 -205.05 175.6 -201.4 170.1 -201.4 L164.1 -201.7 158.85 -202.2 156.05 -202.35 Q138.3 -202.4 122.2 -206.5 L119.25 -207.25 118.1 -207.6 116.3 -208.15 115.2 -208.5 114.65 -208.65 106.8 -211.45 101.0 -212.85 Q91.55 -214.9 83.35 -214.9 L54.6 -213.9 45.8 -212.75 38.25 -211.75 33.3 -210.95 33.15 -210.95 Q33.0 -210.95 33.0 -211.25 L6.75 -205.45 Q-3.75 -203.3 -15.35 -203.3 -26.9 -203.3 -39.55 -204.95 L-50.9 -206.7 Q-51.3 -206.8 -51.9 -207.2 L-52.0 -207.25 -62.85 -209.6 -66.65 -210.3 Q-69.45 -210.8 -72.1 -212.05 L-78.0 -214.05 -84.45 -218.4 Q-91.75 -222.6 -97.5 -222.6 L-102.75 -222.3 -107.45 -221.85 -131.85 -221.65 Q-148.35 -219.4 -159.25 -216.2 -162.9 -215.15 -174.3 -210.8 L-174.3 -210.55 Q-174.45 -210.3 -175.15 -210.3 L-175.7 -210.3 -176.0 -210.2 -176.65 -210.3 -181.25 -210.6 -182.65 -210.75 -184.25 -211.05 -186.75 -211.15 -189.45 -211.45 -190.85 -211.6 -192.4 -211.9 -194.9 -212.0 -197.55 -212.3 -199.8 -212.45 -202.25 -212.75 -206.4 -213.4 -211.7 -214.45 -223.9 -215.3 -228.8 -215.25 -237.9 -214.15 Q-242.45 -213.15 -246.4 -213.05 L-253.4 -212.2 -260.4 -211.45 -267.75 -210.5 -267.85 -210.55 -273.75 -209.45 Q-292.3 -205.9 -293.85 -205.9 L-306.6 -206.6 Q-310.85 -207.6 -313.9 -210.7 L-313.95 -210.75 -314.65 -211.2 Q-317.6 -212.75 -320.1 -212.75 -322.9 -212.75 -325.15 -209.65 -327.25 -206.8 -327.25 -204.2 L-327.35 -204.0 -327.7 -203.65 Q-328.35 -204.1 -329.3 -206.2 -330.15 -208.05 -330.75 -208.05 -331.4 -208.05 -331.35 -208.25 L-331.1 -209.25 Q-331.1 -210.95 -327.7 -212.65 -322.8 -215.1 -313.55 -215.1 -307.85 -215.1 -304.75 -213.25 -301.55 -211.35 -296.4 -211.25 L-285.75 -211.25 -264.45 -212.15 -260.85 -212.8 -254.45 -213.5 -236.45 -216.3 -236.45 -216.5 -223.8 -216.4 -222.6 -216.2 Q-212.05 -215.85 -202.3 -216.05 -198.05 -216.15 -194.15 -215.0 L-193.8 -214.7 -193.7 -214.5 -186.3 -213.95 Q-175.75 -213.95 -165.6 -216.85 L-154.6 -220.65 -143.15 -223.95 Q-135.4 -225.7 -121.6 -227.0 L-121.6 -227.2 -108.95 -227.1 Q-94.4 -225.75 -88.35 -223.8 -82.75 -221.35 -77.7 -219.8 -77.15 -219.35 -76.55 -217.65 L-75.85 -215.85 -72.8 -214.1 -69.45 -212.45 Q-62.85 -210.65 -52.55 -208.95 -42.15 -207.2 -37.95 -207.2 -29.35 -207.2 24.2 -213.45 L77.95 -219.9 93.15 -219.8 Q98.4 -219.6 99.1 -217.95 L99.65 -216.5 Q100.05 -215.6 101.3 -215.0 L105.7 -212.9 106.0 -212.75 Q110.0 -211.75 113.1 -210.5 121.85 -206.95 132.9 -205.35 L139.55 -204.65 146.5 -204.0 148.7 -203.85 150.3 -203.85 170.05 -205.15 Q176.45 -206.05 178.55 -206.7 179.8 -207.1 180.55 -207.5 181.35 -208.65 181.4 -209.65 L181.45 -209.65 180.9 -210.85 180.9 -211.45 181.0 -211.45 181.35 -211.8 M163.75 -202.65 L169.85 -202.45 Q173.7 -202.45 176.65 -204.05 L177.25 -204.6 171.3 -203.55 163.75 -202.65 M17.55 -209.2 Q21.0 -209.9 27.0 -211.85 L34.55 -212.95 35.9 -213.35 19.25 -211.55 3.45 -210.2 -5.05 -209.2 -15.9 -207.4 Q-24.15 -206.0 -30.35 -206.0 L-33.0 -206.05 -29.9 -205.55 -23.7 -204.7 -6.8 -204.5 Q-1.15 -204.5 6.35 -206.3 L17.55 -209.2 M59.15 -216.35 L71.15 -216.7 Q89.3 -216.95 90.9 -215.3 L101.45 -213.75 Q100.35 -214.2 100.0 -214.35 L98.55 -216.2 97.55 -217.95 Q94.05 -218.3 93.05 -218.75 L77.5 -218.75 59.15 -216.35 M-329.1 -207.65 L-328.65 -206.25 Q-327.8 -208.5 -322.9 -212.75 -324.4 -212.35 -326.95 -211.1 -329.35 -209.9 -330.3 -209.1 -329.65 -208.9 -329.1 -207.65 M-131.45 -222.9 L-107.45 -223.15 -100.6 -223.55 -100.6 -223.8 Q-91.1 -222.85 -85.25 -220.0 L-77.7 -215.25 -75.95 -214.3 Q-77.45 -215.4 -77.9 -216.4 L-78.0 -217.9 Q-78.45 -219.2 -80.9 -219.75 -81.6 -219.85 -85.75 -221.75 L-92.3 -223.85 Q-98.05 -225.2 -109.1 -226.05 L-121.95 -225.9 Q-140.6 -224.0 -154.25 -219.75 -169.9 -214.85 -182.0 -213.05 L-191.0 -213.5 -194.5 -214.35 -197.0 -214.9 -199.9 -215.45 -210.65 -215.35 -211.15 -215.35 -211.05 -215.3 Q-207.55 -215.15 -203.85 -214.25 -200.1 -213.3 -196.9 -213.2 L-188.6 -212.65 -180.65 -211.45 -176.0 -211.3 -170.1 -213.85 Q-164.8 -216.0 -160.3 -217.25 L-149.7 -220.15 Q-143.2 -221.65 -131.45 -222.9 M-310.65 -214.15 L-314.8 -213.9 -318.25 -213.6 -314.9 -212.45 Q-312.15 -211.25 -311.4 -209.95 L-311.3 -209.85 -309.05 -208.65 Q-306.5 -207.4 -304.35 -206.85 L-298.05 -206.45 Q-292.45 -206.45 -284.2 -208.1 L-270.3 -210.6 -268.15 -210.85 -282.05 -210.4 -289.8 -210.5 -296.85 -210.8 -299.1 -210.95 -301.55 -211.25 Q-303.35 -210.8 -305.45 -212.35 -307.9 -214.15 -310.65 -214.15 M-313.9 -210.7 L-313.35 -210.3 -313.7 -210.6 -313.9 -210.7" fill="#ffffff" fill-opacity="0.34901962" fill-rule="evenodd" stroke="none"/>
      <path d="M-310.65 -214.15 Q-307.9 -214.15 -305.45 -212.35 -303.35 -210.8 -301.55 -211.25 L-299.1 -210.95 -296.85 -210.8 -289.8 -210.5 -282.05 -210.4 -268.15 -210.85 -270.3 -210.6 -284.2 -208.1 Q-292.45 -206.45 -298.05 -206.45 L-304.35 -206.85 Q-306.5 -207.4 -309.05 -208.65 L-311.3 -209.85 -311.4 -209.95 Q-312.15 -211.25 -314.9 -212.45 L-318.25 -213.6 -314.8 -213.9 -310.65 -214.15 M-131.45 -222.9 Q-143.2 -221.65 -149.7 -220.15 L-160.3 -217.25 Q-164.8 -216.0 -170.1 -213.85 L-176.0 -211.3 -180.65 -211.45 -188.6 -212.65 -196.9 -213.2 Q-200.1 -213.3 -203.85 -214.25 -207.55 -215.15 -211.05 -215.3 L-211.15 -215.35 -210.65 -215.35 -199.9 -215.45 -197.0 -214.9 -194.5 -214.35 -191.0 -213.5 -182.0 -213.05 Q-169.9 -214.85 -154.25 -219.75 -140.6 -224.0 -121.95 -225.9 L-109.1 -226.05 Q-98.05 -225.2 -92.3 -223.85 L-85.75 -221.75 Q-81.6 -219.85 -80.9 -219.75 -78.45 -219.2 -78.0 -217.9 L-77.9 -216.4 Q-77.45 -215.4 -75.95 -214.3 L-77.7 -215.25 -85.25 -220.0 Q-91.1 -222.85 -100.6 -223.8 L-100.6 -223.55 -107.45 -223.15 -131.45 -222.9 M-329.1 -207.65 Q-329.65 -208.9 -330.3 -209.1 -329.35 -209.9 -326.95 -211.1 -324.4 -212.35 -322.9 -212.75 -327.8 -208.5 -328.65 -206.25 L-329.1 -207.65 M59.15 -216.35 L77.5 -218.75 93.05 -218.75 Q94.05 -218.3 97.55 -217.95 L98.55 -216.2 100.0 -214.35 Q100.35 -214.2 101.45 -213.75 L90.9 -215.3 Q89.3 -216.95 71.15 -216.7 L59.15 -216.35 M17.55 -209.2 L6.35 -206.3 Q-1.15 -204.5 -6.8 -204.5 L-23.7 -204.7 -29.9 -205.55 -33.0 -206.05 -30.35 -206.0 Q-24.15 -206.0 -15.9 -207.4 L-5.05 -209.2 3.45 -210.2 19.25 -211.55 35.9 -213.35 34.55 -212.95 27.0 -211.85 Q21.0 -209.9 17.55 -209.2 M163.75 -202.65 L171.3 -203.55 177.25 -204.6 176.65 -204.05 Q173.7 -202.45 169.85 -202.45 L163.75 -202.65" fill="#ffffff" fill-rule="evenodd" stroke="none"/>
    </g>
    <g id="shape3" transform="matrix(1.0, 0.0, 0.0, 1.0, 161.0, 281.35)">
      <path d="M-6.25 -223.6 L-5.8 -223.95 -5.25 -223.45 -3.65 -223.0 Q-3.35 -222.4 -3.35 -221.5 L-3.35 -221.3 -1.5 -221.45 Q-0.45 -220.9 2.45 -220.55 L4.55 -220.25 6.6 -219.85 7.7 -219.25 8.75 -218.9 1.05 -218.25 Q-7.35 -216.8 -13.6 -214.75 -20.7 -212.45 -30.05 -212.15 L-42.8 -211.1 -64.6 -209.8 -68.9 -210.0 -81.9 -210.1 Q-99.2 -209.95 -115.05 -211.95 -123.0 -213.0 -128.4 -214.2 L-130.9 -215.1 -132.8 -215.6 Q-135.15 -216.05 -135.95 -216.8 L-136.5 -217.4 -137.85 -217.75 -142.8 -218.65 -145.5 -218.95 -146.9 -219.75 -148.25 -219.7 Q-147.3 -220.05 -145.85 -220.75 -142.0 -221.1 -140.1 -221.85 L-138.4 -221.9 -138.35 -221.95 -137.6 -221.7 -135.1 -220.7 -132.7 -219.3 -130.95 -218.05 Q-128.9 -216.85 -125.45 -216.0 L-119.2 -214.85 -110.9 -214.0 -107.15 -213.8 -99.8 -213.45 -98.75 -213.45 -95.55 -213.35 -93.1 -213.3 -85.9 -213.25 -83.3 -213.25 -76.3 -213.0 -72.9 -212.95 -65.6 -213.45 -60.3 -213.3 -58.1 -213.65 -53.95 -213.8 -52.9 -213.8 -49.25 -213.85 -46.05 -213.9 -45.2 -213.95 -44.25 -213.95 -37.3 -214.85 -35.1 -215.15 -32.9 -215.45 -32.35 -215.55 -30.05 -215.95 -23.1 -217.2 -19.4 -218.0 -18.8 -218.2 Q-16.9 -218.8 -14.8 -219.55 L-12.7 -220.35 -12.65 -220.4 -10.25 -221.4 Q-7.55 -222.65 -6.25 -223.6 M-160.2 -219.55 L-160.65 -219.55 -161.0 -219.7 -160.2 -219.55 M-153.8 -219.75 L-152.8 -219.4 -154.65 -219.45 -154.2 -219.6 -153.8 -219.75" fill="#403d56" fill-rule="evenodd" stroke="none"/>
      <path d="M-6.25 -223.6 Q-7.55 -222.65 -10.25 -221.4 L-12.1 -235.95 -18.65 -249.15 -19.0 -249.8 -21.55 -254.3 Q-24.6 -258.0 -28.6 -261.3 L-30.6 -262.95 -34.0 -265.45 Q-52.05 -277.65 -72.65 -276.95 -93.25 -277.65 -111.3 -265.45 L-114.7 -262.95 -116.7 -261.3 Q-120.7 -258.0 -123.7 -254.3 L-126.25 -249.8 -126.6 -249.15 Q-130.35 -241.2 -133.15 -235.95 -133.65 -231.05 -135.1 -220.7 L-137.6 -221.7 Q-137.4 -225.15 -135.7 -231.95 -133.15 -242.1 -129.1 -250.7 -126.55 -256.15 -123.6 -260.45 L-123.3 -260.7 Q-115.55 -267.1 -112.5 -269.15 -106.3 -273.35 -99.1 -276.1 L-97.65 -276.15 Q-96.35 -276.15 -89.5 -278.5 -82.7 -280.8 -73.75 -280.7 L-69.95 -281.35 -51.05 -279.15 -49.85 -278.8 -34.95 -271.9 Q-33.55 -271.25 -32.25 -270.6 -26.35 -265.55 -21.15 -258.15 -14.05 -248.05 -9.55 -235.4 -7.0 -228.1 -6.25 -223.6" fill="#493d6d" fill-rule="evenodd" stroke="none"/>
      <path d="M-10.25 -221.4 L-12.65 -220.4 -12.7 -220.35 -13.15 -223.1 Q-14.3 -230.8 -17.95 -240.1 L-18.65 -241.85 -20.0 -244.6 -19.9 -244.15 -20.45 -244.3 -20.6 -245.2 -20.95 -246.55 -21.9 -248.55 -21.9 -249.05 -24.65 -252.1 Q-24.85 -247.45 -26.6 -242.55 L-29.25 -236.6 -30.3 -234.85 Q-31.75 -232.35 -34.35 -228.75 L-36.7 -225.6 -36.95 -225.3 -37.85 -224.1 -40.45 -220.9 -42.85 -218.0 -43.2 -217.5 -43.55 -217.1 -45.5 -214.65 -46.05 -213.9 -49.25 -213.85 -47.45 -216.2 -47.15 -216.6 -45.35 -218.65 -43.8 -220.35 -39.85 -224.7 -39.1 -225.5 -38.5 -226.15 -38.35 -226.3 -38.1 -226.6 -37.6 -227.2 -37.3 -227.5 -37.35 -227.5 -35.7 -229.6 -35.6 -229.8 Q-33.45 -232.95 -32.35 -235.85 L-31.7 -237.45 Q-30.75 -240.25 -29.15 -246.55 L-29.05 -246.65 -28.9 -247.5 -28.9 -248.1 -29.05 -252.85 Q-29.15 -254.35 -30.95 -258.1 L-31.55 -258.65 -39.55 -264.5 Q-54.9 -274.2 -72.65 -274.6 L-77.6 -274.3 Q-91.45 -272.9 -103.7 -265.65 L-104.95 -264.85 -105.05 -264.8 -105.15 -264.75 -105.35 -264.65 -110.9 -260.85 -111.1 -260.7 -111.3 -260.55 -111.5 -260.4 -112.0 -260.0 -112.5 -259.6 -113.7 -258.65 -114.3 -258.1 Q-116.15 -254.35 -116.2 -252.85 L-116.35 -248.2 -116.35 -248.1 -116.35 -247.5 -116.15 -246.55 -113.85 -238.35 -112.9 -235.85 Q-111.8 -232.85 -109.5 -229.65 L-109.35 -229.4 -107.65 -227.2 -107.05 -226.5 -106.85 -226.25 -106.75 -226.15 -103.15 -222.35 -102.95 -222.1 -100.5 -219.35 -99.6 -218.3 -98.2 -216.7 -98.15 -216.6 -98.1 -216.55 -97.9 -216.35 -95.55 -213.35 -98.75 -213.45 -100.15 -215.15 -102.2 -217.75 -102.45 -218.0 -102.85 -218.55 -103.1 -218.8 -103.3 -219.1 -103.55 -219.4 -103.85 -219.75 -107.7 -224.6 -108.1 -225.05 -108.3 -225.3 -108.5 -225.55 -109.2 -226.55 -110.85 -228.75 -115.0 -234.85 -115.7 -236.15 Q-118.6 -241.4 -119.85 -246.3 -120.55 -249.25 -120.6 -252.1 L-123.35 -249.05 -123.35 -248.55 -123.75 -247.6 -124.05 -246.95 -124.15 -246.75 -124.2 -246.7 -124.3 -246.55 -124.65 -245.0 -125.3 -244.35 -125.35 -244.05 -125.3 -244.6 -126.6 -241.85 -127.35 -240.1 Q-130.95 -230.8 -132.15 -223.1 L-132.7 -219.3 -135.1 -220.7 Q-133.65 -231.05 -133.15 -235.95 -130.35 -241.2 -126.6 -249.15 L-126.25 -249.8 -123.7 -254.3 Q-120.7 -258.0 -116.7 -261.3 L-114.7 -262.95 -111.3 -265.45 Q-93.25 -277.65 -72.65 -276.95 -52.05 -277.65 -34.0 -265.45 L-30.6 -262.95 -28.6 -261.3 Q-24.6 -258.0 -21.55 -254.3 L-19.0 -249.8 -18.65 -249.15 -12.1 -235.95 -10.25 -221.4" fill="#6c7054" fill-rule="evenodd" stroke="none"/>
      <path d="M-12.7 -220.35 L-14.8 -219.55 Q-15.2 -228.25 -20.25 -236.85 -20.0 -239.2 -19.9 -241.85 L-19.9 -242.15 -19.9 -243.0 -19.9 -243.45 -19.9 -243.55 -19.9 -244.15 -20.0 -244.6 -18.65 -241.85 -17.95 -240.1 Q-14.3 -230.8 -13.15 -223.1 L-12.7 -220.35 M-18.8 -218.2 L-19.4 -218.0 -23.1 -217.2 -23.8 -217.35 -29.5 -217.8 -29.6 -217.8 -29.5 -217.85 -25.8 -221.5 -25.4 -221.5 -24.75 -221.55 Q-22.4 -221.55 -19.25 -218.65 L-18.8 -218.2 M-45.2 -213.95 L-46.05 -213.9 -45.5 -214.65 -43.55 -217.1 -43.2 -217.5 -42.85 -218.0 -40.45 -220.9 -37.85 -224.1 -36.95 -225.3 -36.7 -225.6 -34.35 -228.75 Q-31.75 -232.35 -30.3 -234.85 L-29.25 -236.6 -26.6 -242.55 Q-24.85 -247.45 -24.65 -252.1 L-21.9 -249.05 -21.9 -248.55 -20.95 -246.55 -20.6 -245.2 -20.65 -245.2 -21.0 -244.3 -20.45 -243.0 Q-20.6 -241.2 -21.5 -238.75 L-21.6 -238.45 -21.8 -238.1 -24.3 -233.1 -25.05 -231.75 -25.3 -231.3 -28.85 -226.05 -28.6 -227.75 -28.75 -228.25 -31.2 -226.45 -34.45 -224.0 -36.5 -222.3 Q-40.05 -219.35 -43.05 -216.2 L-45.2 -213.95 M-49.25 -213.85 L-52.9 -213.8 -50.75 -216.5 -50.3 -217.1 -45.25 -223.25 -41.7 -227.75 -41.1 -228.5 -38.85 -231.5 -38.5 -232.05 Q-33.15 -240.2 -33.15 -247.25 -33.15 -272.15 -77.6 -274.3 L-72.65 -274.6 Q-54.9 -274.2 -39.55 -264.5 L-31.55 -258.65 -30.95 -258.1 Q-29.15 -254.35 -29.05 -252.85 L-28.9 -248.1 -28.9 -247.5 -29.05 -246.65 -29.15 -246.55 Q-30.75 -240.25 -31.7 -237.45 L-32.35 -235.85 Q-33.45 -232.95 -35.6 -229.8 L-35.7 -229.6 -37.35 -227.5 -37.3 -227.5 -37.6 -227.2 -38.1 -226.6 -38.35 -226.3 -38.5 -226.15 -39.1 -225.5 -39.85 -224.7 -43.8 -220.35 -45.35 -218.65 -47.15 -216.6 -47.45 -216.2 -49.25 -213.85 M-93.1 -213.3 L-95.55 -213.35 -97.9 -216.35 -98.1 -216.55 -98.15 -216.6 -98.2 -216.7 -99.6 -218.3 -100.5 -219.35 -102.95 -222.1 -103.15 -222.35 -106.75 -226.15 -106.85 -226.25 -107.05 -226.5 -107.65 -227.2 -109.35 -229.4 -109.5 -229.65 Q-111.8 -232.85 -112.9 -235.85 L-113.85 -238.35 -116.15 -246.55 -116.35 -247.5 -116.35 -248.1 -116.35 -248.2 -116.2 -252.85 Q-116.15 -254.35 -114.3 -258.1 L-113.7 -258.65 -112.5 -259.6 -112.0 -260.0 -111.5 -260.4 -111.3 -260.55 -111.1 -260.7 -110.9 -260.85 -105.35 -264.65 -105.15 -264.75 -105.05 -264.8 -104.95 -264.85 -104.75 -265.0 Q-108.55 -261.95 -111.1 -258.55 -113.9 -254.85 -113.9 -252.6 -113.9 -242.75 -111.9 -238.7 L-106.75 -231.3 -104.45 -228.25 -101.85 -224.75 -100.65 -223.2 -95.8 -216.85 -93.1 -213.3 M-98.75 -213.45 L-99.8 -213.45 -100.0 -213.7 -103.7 -217.7 -109.45 -223.6 -110.0 -224.15 -110.2 -224.35 -112.65 -227.5 -113.4 -228.8 -113.45 -228.85 Q-116.05 -231.4 -118.45 -234.9 -122.65 -241.3 -124.2 -246.7 L-124.15 -246.75 -124.05 -246.95 -123.75 -247.6 -123.35 -248.55 -123.35 -249.05 -120.6 -252.1 Q-120.55 -249.25 -119.85 -246.3 -118.6 -241.4 -115.7 -236.15 L-115.0 -234.85 -110.85 -228.75 -109.2 -226.55 -108.5 -225.55 -108.3 -225.3 -108.1 -225.05 -107.7 -224.6 -103.85 -219.75 -103.55 -219.4 -103.3 -219.1 -103.1 -218.8 -102.85 -218.55 -102.45 -218.0 -102.2 -217.75 -100.15 -215.15 -98.75 -213.45 M-125.45 -216.0 Q-128.9 -216.85 -130.95 -218.05 L-132.7 -219.3 -132.15 -223.1 Q-130.95 -230.8 -127.35 -240.1 L-126.6 -241.85 -125.3 -244.6 -125.35 -244.05 -125.35 -241.8 -125.3 -240.85 Q-127.5 -238.9 -129.2 -233.55 L-131.15 -224.9 -131.2 -221.8 Q-131.1 -220.5 -129.8 -219.85 -127.95 -218.95 -120.65 -218.65 L-116.45 -218.55 -115.7 -217.85 -115.6 -217.75 -114.6 -216.95 -114.5 -216.85 -116.0 -216.95 -116.8 -217.0 -121.4 -216.85 -125.45 -216.0" fill="url(#gradient0)" fill-rule="evenodd" stroke="none"/>
      <path d="M-14.8 -219.55 Q-16.9 -218.8 -18.8 -218.2 L-19.25 -218.65 Q-22.4 -221.55 -24.75 -221.55 L-25.4 -221.5 -25.8 -221.5 -25.6 -221.7 -24.05 -223.8 -23.9 -224.0 Q-23.15 -225.25 -22.45 -226.85 -21.15 -230.1 -20.55 -234.4 L-20.25 -236.6 -20.25 -236.85 Q-15.2 -228.25 -14.8 -219.55 M-37.3 -214.85 L-44.25 -213.95 -45.2 -213.95 -43.05 -216.2 Q-40.05 -219.35 -36.5 -222.3 L-34.45 -224.0 -31.2 -226.45 -28.75 -228.25 -28.6 -227.75 -28.85 -226.05 -29.5 -225.1 -30.2 -224.1 -30.2 -224.05 -31.8 -221.9 -33.75 -219.4 -34.5 -218.35 -36.05 -216.4 -36.85 -215.45 -37.3 -214.85 M-52.9 -213.8 L-53.95 -213.8 -58.1 -213.65 -60.3 -213.3 -65.6 -213.45 -72.9 -212.95 -76.3 -213.0 -77.7 -216.25 -77.9 -216.65 -78.25 -217.45 -80.2 -221.2 -80.25 -221.4 -80.4 -221.55 -80.85 -222.55 -80.95 -222.6 -81.3 -223.25 -81.5 -223.55 -81.65 -223.85 -82.65 -225.65 -82.7 -225.75 -83.6 -227.3 -84.65 -229.1 -85.35 -230.15 -85.55 -230.4 -85.65 -230.55 -86.2 -231.25 -88.55 -234.4 -88.75 -234.65 -88.85 -234.9 -89.05 -235.1 -89.45 -235.75 -89.85 -236.25 -90.75 -237.6 -90.95 -237.9 -91.95 -239.55 -92.0 -239.75 Q-93.35 -242.1 -94.2 -244.45 L-95.35 -249.05 -95.45 -249.7 -95.8 -253.3 -95.8 -253.45 -95.8 -253.6 -95.8 -253.8 Q-95.8 -255.45 -95.1 -257.35 L-94.15 -259.2 -94.1 -259.25 -93.95 -259.5 -93.45 -260.15 -93.55 -260.15 -91.7 -262.45 Q-85.9 -269.35 -76.2 -269.6 -60.95 -270.15 -54.5 -262.5 -52.7 -260.35 -51.8 -257.75 L-51.75 -257.6 -51.65 -257.35 -51.55 -257.05 -51.5 -256.85 -51.45 -256.65 -51.3 -256.35 -51.25 -256.1 -51.2 -255.85 -51.15 -255.55 -50.95 -254.7 -50.75 -252.95 -50.7 -252.0 -50.7 -251.25 -50.75 -249.85 -50.75 -249.75 Q-51.0 -247.05 -52.1 -244.35 -53.05 -242.0 -54.7 -239.55 L-55.55 -238.25 -57.2 -235.4 -57.35 -235.2 -57.55 -234.95 -57.65 -234.75 -57.9 -234.15 -58.35 -233.15 -58.75 -231.6 -58.6 -230.9 Q-58.2 -231.1 -57.8 -230.9 -56.7 -231.5 -55.7 -232.05 L-53.85 -233.15 -53.35 -233.45 -53.25 -233.5 -53.2 -233.55 -52.55 -233.95 -49.25 -236.35 Q-46.15 -238.85 -44.75 -241.15 L-44.65 -241.4 Q-43.6 -243.45 -43.2 -246.75 L-43.2 -247.0 -43.15 -247.6 -43.0 -251.15 -43.0 -251.45 -43.0 -251.8 -43.25 -254.6 -43.25 -254.65 -43.55 -256.2 -43.85 -257.35 Q-46.0 -263.15 -52.65 -267.3 -61.25 -272.6 -73.5 -273.1 -85.95 -273.6 -94.45 -268.8 -102.0 -264.6 -103.4 -257.35 L-103.4 -257.3 -103.6 -256.05 -103.85 -253.45 -103.85 -252.95 -103.85 -252.65 -103.85 -252.35 -103.4 -247.7 -103.05 -245.75 -101.95 -241.6 Q-101.15 -239.25 -99.95 -236.95 L-99.85 -236.65 -99.0 -235.15 -97.95 -233.4 -97.6 -232.85 -97.15 -232.15 -97.1 -232.1 -96.2 -230.75 -95.8 -230.15 -95.0 -228.65 -93.55 -226.05 -92.6 -224.4 -92.3 -223.95 -91.95 -223.3 -91.4 -222.35 -90.5 -220.9 -89.4 -219.0 -88.7 -217.85 -87.9 -216.6 -85.9 -213.25 -93.1 -213.3 -95.8 -216.85 -100.65 -223.2 -101.85 -224.75 -104.45 -228.25 -106.75 -231.3 -111.9 -238.7 Q-113.9 -242.75 -113.9 -252.6 -113.9 -254.85 -111.1 -258.55 -108.55 -261.95 -104.75 -265.0 L-104.95 -264.85 -103.7 -265.65 Q-91.45 -272.9 -77.6 -274.3 -33.15 -272.15 -33.15 -247.25 -33.15 -240.2 -38.5 -232.05 L-38.85 -231.5 -41.1 -228.5 -41.7 -227.75 -45.25 -223.25 -50.3 -217.1 -50.75 -216.5 -52.9 -213.8 M-99.8 -213.45 L-107.15 -213.8 -107.85 -214.65 -107.95 -214.85 -108.15 -215.1 -108.45 -215.45 -108.75 -215.8 -112.1 -220.15 -113.45 -221.9 -114.0 -222.65 -115.7 -224.95 -115.8 -225.1 -116.55 -226.25 -120.35 -232.1 -121.2 -233.6 -121.65 -234.35 -122.05 -235.2 -122.25 -235.5 Q-124.45 -239.75 -124.75 -242.55 L-124.75 -242.9 -124.8 -243.5 -124.65 -245.0 -124.3 -246.55 -124.2 -246.7 Q-122.65 -241.3 -118.45 -234.9 -116.05 -231.4 -113.45 -228.85 L-113.4 -228.8 -112.65 -227.5 -110.2 -224.35 -110.0 -224.15 -109.45 -223.6 -103.7 -217.7 -100.0 -213.7 -99.8 -213.45 M-82.45 -256.4 L-82.45 -256.05 Q-82.4 -254.45 -81.7 -253.2 -79.6 -249.35 -71.5 -249.35 -67.55 -249.35 -65.55 -251.75 L-64.9 -252.55 -64.45 -253.3 -64.35 -253.7 -63.9 -255.35 -63.9 -255.6 -63.9 -255.9 -63.9 -256.35 -63.9 -256.5 -63.9 -256.65 -63.95 -257.2 -63.95 -257.3 -65.5 -260.65 -66.35 -261.5 -66.75 -261.85 Q-68.2 -263.0 -70.05 -263.5 L-71.3 -263.75 -73.1 -263.85 -74.95 -263.75 -75.1 -263.65 -76.95 -263.3 Q-78.4 -262.9 -79.55 -262.05 L-79.8 -261.85 -79.7 -261.85 -80.8 -260.85 Q-82.2 -259.25 -82.4 -257.15 L-82.4 -257.0 -82.45 -256.65 -82.45 -256.6 -82.45 -256.4 M-125.3 -240.85 L-125.2 -239.55 -125.15 -238.3 Q-124.85 -233.7 -123.85 -230.05 -122.9 -226.55 -121.35 -224.0 L-119.2 -221.25 -117.95 -220.0 -116.45 -218.55 -120.65 -218.65 Q-127.95 -218.95 -129.8 -219.85 -131.1 -220.5 -131.2 -221.8 L-131.15 -224.9 -129.2 -233.55 Q-127.5 -238.9 -125.3 -240.85" fill="url(#gradient1)" fill-rule="evenodd" stroke="none"/>
      <path d="M-32.35 -215.55 L-32.9 -215.45 -35.1 -215.15 -37.3 -214.85 -36.85 -215.45 -36.05 -216.4 -34.5 -218.35 -33.75 -219.4 -31.8 -221.9 -30.2 -224.05 -30.2 -224.1 -29.5 -225.1 -28.85 -226.05 -25.3 -231.3 -25.05 -231.75 -24.3 -233.1 -24.65 -232.4 -24.45 -232.4 Q-22.65 -232.4 -20.55 -234.4 -21.15 -230.1 -22.45 -226.85 -23.15 -225.25 -23.9 -224.0 L-24.05 -223.8 -25.6 -221.7 -25.8 -221.5 -29.5 -217.85 -29.6 -217.8 -30.45 -217.1 -32.35 -215.55 M-76.3 -213.0 L-83.3 -213.25 -85.9 -213.25 -87.9 -216.6 -88.7 -217.85 -89.4 -219.0 -90.5 -220.9 -91.4 -222.35 -91.95 -223.3 -92.3 -223.95 -92.6 -224.4 -93.55 -226.05 -95.0 -228.65 -95.8 -230.15 -96.2 -230.75 -97.1 -232.1 -97.15 -232.15 -97.6 -232.85 -97.95 -233.4 -99.0 -235.15 -99.85 -236.65 -99.95 -236.95 Q-101.15 -239.25 -101.95 -241.6 L-103.05 -245.75 -103.4 -247.7 -103.85 -252.35 -103.85 -252.65 -103.85 -252.95 -103.85 -253.45 -103.6 -256.05 -103.4 -257.3 -103.4 -257.35 Q-102.0 -264.6 -94.45 -268.8 -85.95 -273.6 -73.5 -273.1 -61.25 -272.6 -52.65 -267.3 -46.0 -263.15 -43.85 -257.35 L-43.55 -256.2 -43.25 -254.65 -43.25 -254.6 -43.0 -251.8 -43.0 -251.45 -43.0 -251.15 -43.15 -247.6 -43.2 -247.0 -43.2 -246.75 Q-43.6 -243.45 -44.65 -241.4 L-44.75 -241.15 Q-46.15 -238.85 -49.25 -236.35 L-52.55 -233.95 -53.2 -233.55 -53.25 -233.5 -53.35 -233.45 -53.85 -233.15 -55.7 -232.05 Q-56.7 -231.5 -57.8 -230.9 -58.2 -231.1 -58.6 -230.9 L-58.75 -231.6 -58.35 -233.15 -57.9 -234.15 -57.65 -234.75 -57.55 -234.95 -57.35 -235.2 -57.2 -235.4 -55.55 -238.25 -54.7 -239.55 Q-53.05 -242.0 -52.1 -244.35 -51.0 -247.05 -50.75 -249.75 L-50.75 -249.85 -50.7 -251.25 -50.7 -252.0 -50.75 -252.95 -50.95 -254.7 -51.15 -255.55 -51.2 -255.85 -51.25 -256.1 -51.3 -256.35 -51.45 -256.65 -51.5 -256.85 -51.55 -257.05 -51.65 -257.35 -51.75 -257.6 -51.8 -257.75 Q-52.7 -260.35 -54.5 -262.5 -60.95 -270.15 -76.2 -269.6 -85.9 -269.35 -91.7 -262.45 L-93.55 -260.15 -93.45 -260.15 -93.95 -259.5 -94.1 -259.25 -94.15 -259.2 -95.1 -257.35 Q-95.8 -255.45 -95.8 -253.8 L-95.8 -253.6 -95.8 -253.45 -95.8 -253.3 -95.45 -249.7 -95.35 -249.05 -94.2 -244.45 Q-93.35 -242.1 -92.0 -239.75 L-91.95 -239.55 -90.95 -237.9 -90.75 -237.6 -89.85 -236.25 -89.45 -235.75 -89.05 -235.1 -88.85 -234.9 -88.75 -234.65 -88.55 -234.4 -86.2 -231.25 -85.65 -230.55 -85.55 -230.4 -85.35 -230.15 -84.65 -229.1 -83.6 -227.3 -82.7 -225.75 -82.65 -225.65 -81.65 -223.85 -81.5 -223.55 -81.3 -223.25 -80.95 -222.6 -80.85 -222.55 -80.4 -221.55 -80.25 -221.4 -80.2 -221.2 -78.25 -217.45 -77.9 -216.65 -77.7 -216.25 -76.3 -213.0 M-107.15 -213.8 L-110.9 -214.0 -111.4 -214.4 -111.9 -214.8 -112.05 -214.9 -113.1 -215.75 -113.45 -216.0 -113.85 -216.35 -114.45 -216.85 -114.5 -216.85 -114.6 -216.95 -115.6 -217.75 -115.7 -217.85 -116.45 -218.55 -117.95 -220.0 -119.2 -221.25 -121.35 -224.0 Q-122.9 -226.55 -123.85 -230.05 -124.85 -233.7 -125.15 -238.3 -123.85 -235.5 -122.2 -232.95 -119.5 -228.9 -116.55 -226.25 L-115.8 -225.1 -115.7 -224.95 -114.0 -222.65 -113.45 -221.9 -112.1 -220.15 -108.75 -215.8 -108.45 -215.45 -108.15 -215.1 -107.95 -214.85 -107.85 -214.65 -107.15 -213.8 M-82.45 -256.4 L-82.45 -256.6 -82.45 -256.65 -82.4 -257.0 -82.4 -257.15 Q-82.2 -259.25 -80.8 -260.85 L-79.7 -261.85 -79.8 -261.85 -79.55 -262.05 Q-78.4 -262.9 -76.95 -263.3 L-75.1 -263.65 -74.95 -263.75 -73.1 -263.85 -71.3 -263.75 -70.05 -263.5 Q-68.2 -263.0 -66.75 -261.85 L-66.35 -261.5 -65.5 -260.65 -63.95 -257.3 -63.95 -257.2 -63.9 -256.65 -63.9 -256.5 -63.9 -256.35 -63.9 -255.9 -63.9 -255.6 -63.9 -255.35 -64.35 -253.7 -64.45 -253.3 -64.9 -252.55 -65.55 -251.75 Q-67.55 -249.35 -71.5 -249.35 -79.6 -249.35 -81.7 -253.2 -82.4 -254.45 -82.45 -256.05 L-82.45 -256.4" fill="url(#gradient2)" fill-rule="evenodd" stroke="none"/>
      <path d="M-124.65 -245.0 L-124.8 -243.5 -124.75 -242.9 -124.75 -242.55 Q-124.45 -239.75 -122.25 -235.5 L-122.05 -235.2 -121.65 -234.35 -121.2 -233.6 -120.35 -232.1 -116.55 -226.25 Q-119.5 -228.9 -122.2 -232.95 -123.85 -235.5 -125.15 -238.3 L-125.2 -239.55 -125.3 -240.85 -125.35 -241.8 -125.35 -244.05 -125.3 -244.35 -124.65 -245.0 M-19.9 -244.15 L-19.9 -243.55 -19.9 -243.45 -19.9 -243.0 -19.9 -242.15 -19.9 -241.85 Q-20.0 -239.2 -20.25 -236.85 L-20.25 -236.6 -20.55 -234.4 Q-22.65 -232.4 -24.45 -232.4 L-24.65 -232.4 -24.3 -233.1 -21.8 -238.1 -21.6 -238.45 -21.5 -238.75 Q-20.6 -241.2 -20.45 -243.0 L-20.45 -243.5 -20.45 -244.3 -19.9 -244.15" fill="#f7552d" fill-rule="evenodd" stroke="none"/>
      <path d="M-23.1 -217.2 L-30.05 -215.95 -32.35 -215.55 -30.45 -217.1 -29.6 -217.8 -29.5 -217.8 -23.8 -217.35 -23.1 -217.2 M-110.9 -214.0 L-119.2 -214.85 -125.45 -216.0 -121.4 -216.85 -116.8 -217.0 -116.0 -216.95 -114.5 -216.85 -114.45 -216.85 -113.85 -216.35 -113.45 -216.0 -113.1 -215.75 -112.05 -214.9 -111.9 -214.8 -111.4 -214.4 -110.9 -214.0" fill="#b5c987" fill-rule="evenodd" stroke="none"/>
      <path d="M-20.45 -244.3 L-20.45 -243.5 -20.45 -243.0 -21.0 -244.3 -20.65 -245.2 -20.6 -245.2 -20.45 -244.3" fill="#ecedb6" fill-rule="evenodd" stroke="none"/>
    </g>
    <radialGradient cx="0" cy="0" gradientTransform="matrix(0.0, 0.0, 0.0, 0.0, 0.0, 302.55)" gradientUnits="userSpaceOnUse" id="gradient0" r="819.2" spreadMethod="pad">
      <stop offset="0.0" stop-color="#ffffff"/>
      <stop offset="0.9921568627450981" stop-color="#f5f7db"/>
    </radialGradient>
    <radialGradient cx="0" cy="0" gradientTransform="matrix(0.122, 0.0, 0.0, 0.122, -73.6, -255.2)" gradientUnits="userSpaceOnUse" id="gradient1" r="819.2" spreadMethod="pad">
      <stop offset="0.09803921568627451" stop-color="#fffde7"/>
      <stop offset="0.9921568627450981" stop-color="#ecedb6"/>
    </radialGradient>
    <radialGradient cx="0" cy="0" gradientTransform="matrix(0.1139, 0.0, 0.0, 0.1139, -74.5, -268.15)" gradientUnits="userSpaceOnUse" id="gradient2" r="819.2" spreadMethod="pad">
      <stop offset="0.0" stop-color="#ffb69a"/>
      <stop offset="0.9921568627450981" stop-color="#ee062f"/>
    </radialGradient>
  </defs>
</svg>
