<?xml version="1.0" encoding="UTF-8" standalone="no"?>
<svg xmlns:ffdec="https://www.free-decompiler.com/flash" xmlns:xlink="http://www.w3.org/1999/xlink" ffdec:objectType="frame" height="40.35px" width="52.35px" xmlns="http://www.w3.org/2000/svg">
  <g transform="matrix(1.0, 0.0, 0.0, 1.0, 0.0, 0.0)">
    <use ffdec:characterId="2274" height="40.35" transform="matrix(1.0, 0.0, 0.0, 1.0, 0.0, 0.0)" width="52.35" xlink:href="#shape0"/>
  </g>
  <defs>
    <g id="shape0" transform="matrix(1.0, 0.0, 0.0, 1.0, 0.0, 0.0)">
      <path d="M4.1 5.65 Q4.7 4.45 5.7 3.7 7.7 3.1 10.8 2.8 L18.35 2.5 18.15 2.35 30.9 1.1 Q44.55 2.0 47.4 3.9 L48.55 5.25 47.55 5.95 35.4 5.0 40.4 3.9 37.35 3.45 31.2 3.2 Q27.7 3.2 22.85 4.5 L17.25 4.2 19.0 4.95 18.2 4.95 4.55 6.0 5.15 6.4 4.1 5.65" fill="#d7d564" fill-rule="evenodd" stroke="none"/>
      <path d="M48.55 5.25 L47.4 3.9 Q44.55 2.0 30.9 1.1 L18.15 2.35 18.35 2.5 10.8 2.8 Q7.7 3.1 5.7 3.7 4.7 4.45 4.1 5.65 3.6 6.6 3.4 7.9 4.05 8.45 4.5 9.55 L4.5 9.6 Q5.9 10.15 6.3 11.25 L6.4 11.3 Q5.65 11.4 5.25 11.65 L2.15 10.3 2.0 10.25 1.95 10.2 1.2 9.7 Q0.15 8.95 0.05 8.25 L0.0 8.05 0.0 7.95 Q0.05 7.3 0.45 6.75 L0.5 6.15 Q0.75 2.45 11.9 1.85 18.5 0.35 26.7 0.1 37.65 -0.35 44.65 1.6 52.7 3.85 52.35 8.7 52.25 10.25 47.55 12.1 L47.65 12.35 Q46.65 11.85 44.35 11.65 L47.1 10.25 50.9 7.8 Q49.6 7.05 48.9 5.75 L48.55 5.25 M2.75 7.35 Q2.55 7.2 2.2 7.35 L2.75 7.5 2.75 7.35" fill="#a09f46" fill-rule="evenodd" stroke="none"/>
      <path d="M4.1 5.65 L5.15 6.4 4.55 6.0 18.2 4.95 19.0 4.95 17.25 4.2 22.85 4.5 Q27.7 3.2 31.2 3.2 L37.35 3.45 40.4 3.9 35.4 5.0 47.55 5.95 48.55 5.25 48.9 5.75 Q49.6 7.05 50.9 7.8 L47.1 10.25 44.35 11.65 42.8 11.55 27.9 11.45 10.25 11.0 6.4 11.3 6.3 11.25 Q5.9 10.15 4.5 9.6 L4.5 9.55 Q4.05 8.45 3.4 7.9 3.6 6.6 4.1 5.65" fill="#b9c040" fill-rule="evenodd" stroke="none"/>
      <path d="M44.35 11.65 Q46.65 11.85 47.65 12.35 48.35 12.7 48.35 13.2 L48.0 14.45 47.95 14.95 Q47.9 15.75 45.95 16.65 L46.0 16.75 45.2 17.0 43.9 16.5 42.25 16.3 Q44.15 15.4 44.8 14.1 L42.75 13.7 32.9 12.9 30.95 12.75 27.85 12.2 20.1 11.7 10.85 12.4 9.35 12.75 9.15 12.85 6.5 13.6 6.5 14.1 Q6.65 15.0 7.7 15.2 L11.25 16.05 Q8.95 16.4 8.4 16.95 L6.75 16.45 Q5.95 15.5 5.0 13.5 4.6 13.15 4.55 12.7 L3.35 10.9 2.0 10.25 2.15 10.3 5.25 11.65 Q5.65 11.4 6.4 11.3 L10.25 11.0 27.9 11.45 42.8 11.55 44.35 11.65 M12.85 18.95 L12.15 18.6 14.35 18.3 14.0 18.45 12.85 18.95" fill="#537842" fill-rule="evenodd" stroke="none"/>
      <path d="M46.0 16.75 L46.05 17.55 45.35 18.45 45.1 18.75 43.45 20.6 Q42.15 22.05 41.5 23.5 L42.35 23.2 40.85 25.3 40.75 26.15 Q40.65 27.1 39.65 28.0 40.15 28.65 40.1 29.15 L39.95 29.7 39.7 30.1 Q39.7 31.75 42.35 34.3 L44.85 36.85 44.9 36.95 44.75 37.85 43.95 38.2 Q38.2 40.35 22.05 40.35 19.65 40.35 9.5 37.95 L9.15 37.6 8.6 37.0 8.95 36.35 9.05 36.25 Q13.55 31.45 14.1 29.7 L14.15 29.3 Q14.3 27.3 12.9 26.8 12.65 26.4 12.7 26.1 L12.95 25.25 Q13.0 24.3 10.9 21.05 L9.15 18.45 8.4 17.8 Q7.55 17.3 7.05 16.75 L7.0 16.7 6.75 16.45 8.4 16.95 Q8.95 16.4 11.25 16.05 L12.7 15.85 23.25 15.45 34.1 15.5 42.25 16.3 43.9 16.5 45.2 17.0 46.0 16.75 M41.55 20.8 L41.75 20.05 41.75 19.85 41.75 19.8 Q41.75 19.15 41.2 18.7 L41.25 18.45 40.75 18.45 40.25 18.25 29.4 17.4 29.4 17.25 17.3 17.25 Q15.8 17.5 14.35 18.3 L12.15 18.6 12.85 18.95 11.9 19.2 11.8 19.15 11.8 19.2 11.4 19.2 11.25 19.8 11.55 19.95 11.85 20.2 12.85 22.25 13.5 23.3 13.85 23.75 15.0 25.6 Q14.9 26.6 15.8 27.5 L16.1 27.8 16.15 27.75 Q16.95 28.4 20.25 28.6 23.25 28.8 33.9 28.8 L37.7 28.4 Q38.0 28.25 38.0 27.7 L38.0 27.45 37.9 27.2 38.75 25.8 39.55 24.85 39.6 24.75 39.65 24.25 39.9 22.7 40.15 22.5 Q41.15 21.65 41.55 20.8 M13.1 35.4 L12.5 36.05 12.45 36.8 12.45 37.0 14.45 37.45 21.75 39.3 29.85 39.3 34.8 38.85 40.1 37.7 41.2 37.35 Q41.95 36.45 41.95 35.75 L41.8 35.25 39.4 32.0 39.45 31.95 39.45 31.7 Q39.45 29.6 27.95 29.15 17.95 28.7 16.6 30.65 L16.5 30.65 15.95 31.75 13.8 34.55 13.1 35.4" fill="#768c42" fill-rule="evenodd" stroke="none"/>
      <path d="M42.25 16.3 L34.1 15.5 23.25 15.45 12.7 15.85 11.25 16.05 7.7 15.2 Q6.65 15.0 6.5 14.1 L6.5 13.6 9.15 12.85 9.35 12.75 10.85 12.4 20.1 11.7 27.85 12.2 30.95 12.75 32.9 12.9 42.75 13.7 44.8 14.1 Q44.15 15.4 42.25 16.3" fill="#5e9b58" fill-rule="evenodd" stroke="none"/>
      <path d="M14.35 18.3 Q15.8 17.5 17.3 17.25 L29.4 17.25 29.4 17.4 40.25 18.25 40.75 18.45 41.25 18.45 41.2 18.7 Q41.75 19.15 41.75 19.8 L41.75 19.85 41.75 20.05 41.55 20.8 40.4 20.65 31.7 19.5 19.95 19.35 11.55 19.95 11.25 19.8 11.4 19.2 11.8 19.2 11.8 19.15 11.9 19.2 12.85 18.95 14.0 18.45 14.35 18.3 M38.0 27.45 L38.0 27.7 Q38.0 28.25 37.7 28.4 L33.9 28.8 Q23.25 28.8 20.25 28.6 16.95 28.4 16.15 27.75 L16.1 27.8 15.8 27.5 Q14.9 26.6 15.0 25.6 L13.85 23.75 16.2 25.15 17.65 26.0 16.6 26.35 Q15.95 26.7 15.9 27.25 L31.45 27.45 38.0 27.45 M12.85 22.25 L11.85 20.2 12.45 21.0 12.95 22.3 12.85 22.25" fill="#a6c17b" fill-rule="evenodd" stroke="none"/>
      <path d="M41.8 35.25 L41.95 35.75 Q41.95 36.45 41.2 37.35 L40.1 37.7 34.8 38.85 29.85 39.3 21.75 39.3 14.45 37.45 12.45 37.0 12.45 36.8 12.5 36.05 13.1 35.4 13.3 35.75 13.5 36.05 20.3 37.1 38.9 37.1 39.9 36.55 41.8 35.25 M15.95 31.75 L16.5 30.65 16.6 30.65 Q17.95 28.7 27.95 29.15 39.45 29.6 39.45 31.7 L39.45 31.95 36.9 31.4 24.65 30.5 16.5 30.9 16.4 31.3 16.55 31.85 15.95 31.75 M35.25 31.95 L35.85 31.95 36.5 32.1 35.3 32.25 35.25 31.95" fill="#bfcf9a" fill-rule="evenodd" stroke="none"/>
      <path d="M41.55 20.8 Q41.15 21.65 40.15 22.5 L39.9 22.7 39.65 24.25 39.6 24.75 39.55 24.85 38.75 25.8 37.9 27.2 38.0 27.45 31.45 27.45 15.9 27.25 Q15.95 26.7 16.6 26.35 L17.65 26.0 16.2 25.15 13.85 23.75 13.5 23.3 12.85 22.25 12.95 22.3 12.45 21.0 11.85 20.2 11.55 19.95 19.95 19.35 31.7 19.5 40.4 20.65 41.55 20.8" fill="#94b562" fill-rule="evenodd" stroke="none"/>
      <path d="M41.8 35.25 L39.9 36.55 38.9 37.1 20.3 37.1 13.5 36.05 13.3 35.75 13.1 35.4 13.8 34.55 15.95 31.75 16.55 31.85 16.4 31.3 16.5 30.9 24.65 30.5 36.9 31.4 39.45 31.95 39.4 32.0 41.8 35.25 M35.25 31.95 L35.3 32.25 36.5 32.1 35.85 31.95 35.25 31.95" fill="#adc17d" fill-rule="evenodd" stroke="none"/>
    </g>
  </defs>
</svg>
