<?xml version="1.0" encoding="UTF-8" standalone="no"?>
<svg xmlns:ffdec="https://www.free-decompiler.com/flash" xmlns:xlink="http://www.w3.org/1999/xlink" ffdec:objectType="frame" height="38.0px" width="89.8px" xmlns="http://www.w3.org/2000/svg">
  <g transform="matrix(1.0, 0.0, 0.0, 1.0, 8.8, 1.5)">
    <use ffdec:characterId="214" height="31.4" transform="matrix(1.0, 0.0, 0.0, 1.0, -3.9, 3.05)" width="82.15" xlink:href="#shape0"/>
    <use ffdec:characterId="137" height="38.0" transform="matrix(1.0, 0.0, 0.0, 1.0, -8.8, -1.5)" width="89.8" xlink:href="#sprite0"/>
    <filter id="filter2">
      <feColorMatrix in="SourceGraphic" result="filterResult0" type="matrix" values="0.3086 0.6094 0.082 0.0 -0.19607842 0.3086 0.6094 0.082 0.0 -0.19607842 0.3086 0.6094 0.082 0.0 -0.19607842 0.0 0.0 0.0 1.0 0.0"/>
      <feColorMatrix in="filterResult0" result="filterResult1" type="matrix" values="0 0 0 0 0.0,0 0 0 0 0.0,0 0 0 0 0.0,0 0 0 1 0"/>
      <feConvolveMatrix divisor="9.0" in="filterResult1" kernelMatrix="1 1 1 1 1 1 1 1 1" order="3 3" result="filterResult2"/>
      <feComposite in="filterResult0" in2="filterResult2" operator="over" result="filterResult3"/>
    </filter>
    <use ffdec:characterId="212" filter="url(#filter2)" height="25.2" transform="matrix(1.0, 0.0, 0.0, 1.0, 1.6, 7.0)" width="72.5" xlink:href="#text0"/>
  </g>
  <defs>
    <g id="shape0" transform="matrix(1.0, 0.0, 0.0, 1.0, 3.9, -3.05)">
      <path d="M-1.0 28.3 Q-2.05 27.0 -2.4 25.85 -2.9 25.65 -3.0 25.05 L-3.0 23.9 -3.45 22.85 -3.4 22.6 -3.15 22.5 -3.45 21.85 Q-3.45 21.3 -3.0 21.2 L-3.35 21.1 -3.65 20.75 Q-3.05 19.6 -3.05 19.25 L-3.25 19.1 -3.45 18.95 -3.05 17.55 -3.25 17.3 -3.45 17.0 -3.25 16.65 -3.05 16.3 -3.2 14.75 -3.65 14.3 Q-3.65 13.5 -2.8 12.3 L-2.8 12.2 Q-3.6 12.1 -3.6 10.65 -3.6 10.4 -3.75 10.35 L-3.9 10.25 Q-3.7 10.05 -3.05 9.8 L-3.05 9.65 -3.2 9.15 -2.25 9.0 -3.35 9.0 -3.45 8.55 Q-3.45 8.15 -2.45 8.15 -1.5 6.3 0.15 5.35 2.7 3.9 7.95 3.45 L25.8 3.75 30.05 3.3 34.8 3.3 36.15 3.35 Q36.7 3.2 37.55 3.75 L41.25 3.75 51.3 3.15 51.3 3.05 55.8 3.05 Q56.15 3.25 55.95 3.5 L63.0 3.5 63.0 3.2 63.45 3.15 Q65.7 3.15 68.7 4.0 71.8 4.9 72.95 6.05 76.4 7.3 76.4 9.6 L76.25 10.15 Q77.85 12.35 77.85 14.4 77.85 14.95 77.35 14.95 L77.3 14.95 Q77.05 14.8 76.7 13.85 L77.0 16.25 77.05 17.05 77.3 19.7 Q78.25 19.15 78.25 21.15 77.15 27.3 76.25 28.4 L75.75 29.0 75.55 29.15 75.45 29.3 75.55 29.45 75.6 29.5 75.1 30.25 74.6 30.6 74.65 30.85 74.65 31.2 Q74.65 31.7 74.3 31.8 L74.05 31.45 74.0 31.35 73.9 31.0 73.35 31.55 71.95 32.8 71.4 33.15 Q69.3 34.45 68.0 34.45 L67.15 33.85 66.65 33.5 66.95 33.25 Q67.0 33.0 67.35 32.9 L56.4 33.9 53.2 33.9 52.6 33.8 52.25 33.65 47.9 33.2 46.45 33.2 46.25 33.2 44.3 33.15 36.55 33.15 36.55 33.7 36.15 33.75 35.6 33.8 34.5 33.9 32.05 33.9 30.4 33.85 30.4 33.75 30.25 33.75 30.15 33.75 30.15 33.7 21.1 33.4 18.5 33.2 16.65 33.3 15.4 33.1 15.4 33.3 Q15.35 33.6 14.85 33.6 L13.35 33.45 13.4 33.65 13.35 33.9 13.0 34.1 12.3 33.9 11.95 33.6 11.75 33.3 11.1 33.3 11.0 33.3 10.25 33.8 Q4.5 33.8 0.5 29.9 L-1.0 28.3 M68.95 7.65 L68.85 7.6 68.7 7.5 68.3 7.45 68.2 7.45 67.3 7.15 67.15 7.1 63.0 6.9 46.45 6.9 46.45 6.85 30.4 6.85 30.15 6.85 27.05 6.85 27.05 6.9 24.1 6.9 8.75 6.9 Q7.9 6.85 7.65 7.2 L7.65 7.35 7.25 7.3 6.35 7.4 5.95 7.5 5.7 7.6 Q4.6 7.8 4.3 8.3 L4.1 8.4 3.8 8.55 3.5 8.65 3.4 8.75 Q1.9 9.55 1.85 10.5 L1.5 10.75 1.2 11.15 1.45 11.3 Q1.0 11.75 1.0 12.4 L1.0 12.6 0.75 13.9 0.5 15.3 0.45 16.45 0.45 19.05 Q0.45 21.4 0.6 22.55 0.85 24.55 1.4 26.2 L1.7 26.4 3.9 27.4 7.2 28.15 7.45 28.35 8.05 28.45 68.55 28.45 69.65 27.95 Q71.4 27.1 72.55 26.25 L73.65 24.45 74.15 23.85 74.8 17.6 Q74.8 12.7 72.05 9.5 L70.8 8.4 68.95 7.65 M52.5 3.6 Q52.3 3.6 52.05 3.75 L54.9 3.6 52.5 3.6 M44.1 32.4 L44.1 32.45 45.7 32.4 46.65 32.5 46.85 32.4 62.5 32.4 63.35 32.3 64.65 32.5 Q68.15 32.5 71.35 30.7 73.35 29.55 74.0 28.6 L74.15 28.55 Q74.75 27.2 74.75 26.55 L74.5 25.75 Q73.75 26.05 73.25 27.2 L73.1 27.6 72.1 28.45 Q70.95 29.55 69.65 29.7 L66.25 30.7 65.35 31.0 62.15 31.3 46.45 31.3 46.45 31.25 44.5 31.25 44.1 31.2 39.6 31.15 36.55 31.3 36.55 31.35 33.05 31.4 Q31.35 31.55 31.05 31.95 L33.05 32.4 39.3 32.4 39.4 32.35 44.1 32.4 M35.55 5.3 L34.7 5.25 30.3 5.25 29.55 5.3 30.15 5.3 30.15 5.35 37.55 5.35 35.55 5.3 M15.75 5.25 L15.0 5.3 15.85 5.3 15.75 5.25 M13.65 30.45 L13.5 30.45 13.55 30.5 13.65 30.45 M-1.1 21.15 L-1.05 21.2 -1.05 21.1 -1.1 21.15" fill="#30313a" fill-rule="evenodd" stroke="none"/>
      <path d="M68.95 7.65 L68.95 7.7 69.55 7.95 Q71.75 8.95 72.15 9.8 72.35 10.15 71.7 10.15 L70.0 9.45 Q68.5 8.75 67.45 8.65 L67.35 8.5 30.15 8.5 30.15 8.45 30.0 8.45 Q29.7 7.6 27.05 7.75 L27.05 7.65 25.05 7.65 Q23.0 7.75 22.2 8.4 L22.1 8.4 16.95 8.4 16.4 7.9 11.15 7.65 Q6.6 7.75 5.55 8.7 L3.6 9.3 Q2.1 10.0 2.1 10.65 L2.15 10.8 1.9 10.9 1.9 10.8 1.85 10.95 Q1.7 11.0 1.55 11.15 L1.45 11.3 1.2 11.15 1.5 10.75 1.85 10.5 Q1.9 9.55 3.4 8.75 L3.8 8.55 4.1 8.4 4.3 8.3 Q4.6 7.8 5.7 7.6 L5.95 7.5 6.35 7.4 7.25 7.3 7.65 7.35 7.65 7.2 Q7.9 6.85 8.75 6.9 L24.1 6.9 27.05 6.9 27.05 6.85 30.15 6.85 30.4 6.85 46.45 6.85 46.45 6.9 63.0 6.9 67.15 7.1 67.3 7.15 68.2 7.45 68.3 7.45 68.7 7.5 68.85 7.6 68.95 7.65" fill="#636476" fill-rule="evenodd" stroke="none"/>
      <path d="M77.3 14.95 L77.3 15.25 Q77.3 16.0 77.0 16.25 L76.7 13.85 Q77.05 14.8 77.3 14.95 M75.75 29.0 L75.55 29.45 75.45 29.3 75.55 29.15 75.75 29.0 M75.1 30.25 L74.65 30.85 74.6 30.6 75.1 30.25 M74.05 31.45 L71.95 32.8 73.35 31.55 73.9 31.0 74.0 31.35 74.05 31.45 M67.15 33.85 L65.8 33.9 56.4 33.9 67.35 32.9 Q67.0 33.0 66.95 33.25 L66.65 33.5 67.15 33.85 M53.2 33.9 L34.5 33.9 35.6 33.8 36.15 33.75 36.55 33.7 36.55 33.15 44.3 33.15 46.25 33.2 46.45 33.2 47.9 33.2 52.25 33.65 52.6 33.8 53.2 33.9 M32.05 33.9 L13.35 33.9 13.4 33.65 13.35 33.45 14.85 33.6 Q15.35 33.6 15.4 33.3 L15.4 33.1 16.65 33.3 18.5 33.2 21.1 33.4 30.15 33.7 30.15 33.75 30.25 33.75 30.4 33.75 30.4 33.85 32.05 33.9 M12.3 33.9 L9.2 33.9 Q0.8 33.9 -1.0 28.3 L0.5 29.9 Q4.5 33.8 10.25 33.8 L11.0 33.3 11.1 33.3 11.75 33.3 11.95 33.6 12.3 33.9 M30.0 8.45 L30.15 8.45 30.15 8.5 67.35 8.5 67.45 8.65 Q68.5 8.75 70.0 9.45 L71.7 10.15 Q72.35 10.15 72.15 9.8 71.75 8.95 69.55 7.95 L68.95 7.7 68.95 7.65 70.8 8.4 72.05 9.5 Q74.8 12.7 74.8 17.6 L74.15 23.85 73.65 24.45 72.55 26.25 Q71.4 27.1 69.65 27.95 L68.55 28.45 8.05 28.45 7.45 28.35 7.2 28.15 3.9 27.4 1.7 26.4 1.4 26.2 Q0.85 24.55 0.6 22.55 0.45 21.4 0.45 19.05 L0.45 16.45 0.5 15.3 0.75 13.9 1.0 12.6 1.05 12.95 1.25 13.15 1.5 13.15 2.05 12.2 3.2 11.4 13.15 9.45 16.7 9.45 17.05 9.35 17.2 8.85 16.95 8.4 22.1 8.4 Q21.7 8.55 21.65 8.7 L21.6 8.7 21.65 8.75 22.15 9.2 22.5 9.4 27.05 9.4 27.05 9.35 28.45 9.45 Q30.05 9.45 30.05 8.7 L30.0 8.45 M3.8 8.55 L3.4 8.75 3.5 8.65 3.8 8.55 M1.85 10.95 L1.9 10.8 1.9 10.9 1.85 10.95 M44.1 32.4 L39.4 32.35 39.3 32.4 33.05 32.4 31.05 31.95 Q31.35 31.55 33.05 31.4 L36.55 31.35 36.55 31.3 39.6 31.15 44.1 31.2 44.5 31.25 46.45 31.25 46.45 31.3 62.15 31.3 65.35 31.0 66.25 30.7 69.65 29.7 Q70.95 29.55 72.1 28.45 L73.1 27.6 73.25 27.2 Q73.75 26.05 74.5 25.75 L74.75 26.55 Q74.75 27.2 74.15 28.55 L74.0 28.6 Q73.35 29.55 71.35 30.7 68.15 32.5 64.65 32.5 L63.35 32.3 62.5 32.4 46.85 32.4 46.65 32.5 45.7 32.4 44.1 32.45 44.1 32.4 M15.75 5.25 L15.85 5.3 15.0 5.3 15.75 5.25 M35.55 5.3 L37.55 5.35 30.15 5.35 30.15 5.3 29.55 5.3 30.3 5.25 34.7 5.25 35.55 5.3 M-1.1 21.15 L-1.05 21.1 -1.05 21.2 -1.1 21.15 M13.65 30.45 L13.55 30.5 13.5 30.45 13.65 30.45" fill="#40414d" fill-rule="evenodd" stroke="none"/>
      <path d="M1.45 11.3 L1.55 11.15 Q1.7 11.0 1.85 10.95 L1.9 10.9 2.15 10.8 2.1 10.65 Q2.1 10.0 3.6 9.3 L5.55 8.7 Q6.6 7.75 11.15 7.65 L16.4 7.9 16.95 8.4 17.2 8.85 17.05 9.35 16.7 9.45 13.15 9.45 3.2 11.4 2.05 12.2 1.5 13.15 1.25 13.15 1.05 12.95 1.0 12.6 1.0 12.4 Q1.0 11.75 1.45 11.3 M22.1 8.4 L22.2 8.4 Q23.0 7.75 25.05 7.65 L27.05 7.65 27.05 7.75 Q29.7 7.6 30.0 8.45 L30.05 8.7 Q30.05 9.45 28.45 9.45 L27.05 9.35 27.05 9.4 22.5 9.4 22.15 9.2 21.65 8.75 21.6 8.7 21.65 8.7 Q21.7 8.55 22.1 8.4" fill="#9697a7" fill-rule="evenodd" stroke="none"/>
    </g>
    <g id="sprite0" transform="matrix(1.0, 0.0, 0.0, 1.0, 8.8, 1.5)">
      <use ffdec:characterId="56" height="38.0" transform="matrix(1.0, 0.0, 0.0, 1.0, -8.8, -1.5)" width="89.8" xlink:href="#shape1"/>
    </g>
    <g id="shape1" transform="matrix(1.0, 0.0, 0.0, 1.0, 8.8, 1.5)">
      <path d="M72.6 -0.5 L72.65 -0.45 Q75.15 0.4 76.95 1.95 L76.95 1.9 Q81.0 5.3 81.0 12.2 L81.0 22.85 Q81.0 29.75 76.95 33.15 73.1 36.5 65.4 36.5 L6.8 36.5 Q-6.85 36.5 -8.5 26.15 L-8.8 22.85 -8.8 12.2 Q-8.9 -1.5 6.8 -1.5 L65.4 -1.5 Q69.4 -1.5 72.35 -0.55 L72.6 -0.5 M65.4 4.5 L6.8 4.5 Q-2.3 4.5 -2.4 12.2 L-2.4 22.85 -2.25 24.7 Q-1.15 30.5 6.8 30.5 L65.4 30.5 Q73.4 30.5 74.5 24.7 L74.6 22.85 74.6 12.2 74.5 10.4 Q74.05 7.75 72.3 6.3 69.9 4.5 65.4 4.5" fill="#000000" fill-rule="evenodd" stroke="none"/>
      <path d="M-6.65 25.15 L-6.6 25.35 -6.45 26.85 -4.45 29.95 Q-3.7 31.35 -0.1 33.0 L1.5 33.8 69.85 33.8 70.65 33.55 72.75 33.2 73.05 33.05 73.75 32.85 75.95 30.8 76.1 30.6 Q77.45 28.95 78.1 25.75 L78.45 20.55 78.6 16.05 78.6 11.4 Q78.35 8.55 77.1 5.7 76.7 4.8 75.95 4.0 L74.8 2.95 72.15 0.95 Q74.4 1.7 75.95 3.05 79.5 6.1 79.5 12.2 L79.5 22.85 Q79.5 28.95 75.95 32.0 72.45 35.0 65.4 35.0 L6.8 35.0 Q-5.45 35.0 -7.05 25.85 L-6.9 25.45 -6.65 25.15 M72.85 3.85 L72.75 4.4 73.2 5.1 Q70.5 3.0 65.4 3.0 L6.8 3.0 Q-3.9 3.0 -3.9 12.2 L-3.9 22.85 -3.75 24.95 -3.85 25.7 -3.45 26.8 -4.0 25.9 Q-4.8 24.2 -4.8 20.45 -4.8 18.85 -4.6 18.4 L-4.6 11.35 Q-4.4 7.85 -2.6 5.6 L-1.4 4.5 Q-0.95 3.65 1.0 2.95 1.3 2.75 1.9 2.65 L2.05 2.65 4.25 2.3 5.35 2.1 18.15 2.1 18.35 2.05 22.25 2.05 22.3 2.1 28.75 2.1 28.75 2.3 68.35 2.3 Q71.0 2.3 72.85 3.85" fill="#bcaa72" fill-rule="evenodd" stroke="none"/>
      <path d="M72.15 0.95 L74.8 2.95 75.95 4.0 Q76.7 4.8 77.1 5.7 78.35 8.55 78.6 11.4 L78.6 16.05 78.45 20.55 78.1 25.75 Q77.45 28.95 76.1 30.6 L75.95 30.8 73.75 32.85 73.05 33.05 72.75 33.2 70.65 33.55 69.85 33.8 1.5 33.8 -0.1 33.0 Q-3.7 31.35 -4.45 29.95 L-6.45 26.85 -6.6 25.35 -6.65 25.15 -6.6 24.65 -6.6 24.5 -6.85 19.7 -6.6 12.05 -6.75 10.4 -6.5 9.1 Q-5.7 5.45 -3.4 3.5 -2.45 2.7 -1.6 2.2 L-1.2 2.2 2.15 1.15 4.05 0.75 4.3 0.7 28.15 0.7 28.3 0.8 69.55 0.8 69.85 0.95 71.3 1.05 71.9 0.85 72.15 0.95 M-3.45 26.8 L-2.85 28.35 Q-1.6 31.05 -0.25 31.05 0.05 31.05 3.2 32.7 L31.6 32.75 64.45 32.75 64.85 32.8 65.35 32.95 68.75 32.55 68.8 32.55 Q70.0 32.55 71.5 31.7 72.7 31.55 74.35 29.75 75.95 28.0 75.95 27.35 L76.4 25.35 76.7 22.8 76.7 17.25 76.8 15.55 76.6 12.35 76.3 9.3 75.95 8.3 Q75.0 5.75 73.95 4.4 73.05 3.15 72.85 3.85 71.0 2.3 68.35 2.3 L28.75 2.3 28.75 2.1 22.3 2.1 22.25 2.05 18.35 2.05 18.15 2.1 5.35 2.1 4.25 2.3 2.05 2.65 1.9 2.65 Q1.3 2.75 1.0 2.95 -0.95 3.65 -1.4 4.5 L-2.6 5.6 Q-4.4 7.85 -4.6 11.35 L-4.6 18.4 Q-4.8 18.85 -4.8 20.45 -4.8 24.2 -4.0 25.9 L-3.45 26.8" fill="#c7bd9d" fill-rule="evenodd" stroke="none"/>
      <path d="M71.9 0.85 L71.3 1.05 69.85 0.95 69.55 0.8 28.3 0.8 28.15 0.7 4.3 0.7 4.05 0.75 2.15 1.15 -1.2 2.2 -1.6 2.2 Q-2.45 2.7 -3.4 3.5 -5.7 5.45 -6.5 9.1 L-6.75 10.4 -6.6 12.05 -6.85 19.7 -6.6 24.5 -6.6 24.65 -6.65 25.15 -6.9 25.45 -7.05 25.85 -7.3 22.85 -7.3 12.2 Q-7.3 0.0 6.8 0.0 L65.4 0.0 Q69.15 0.0 71.9 0.85 M72.85 3.85 Q73.05 3.15 73.95 4.4 75.0 5.75 75.95 8.3 L76.3 9.3 76.6 12.35 76.8 15.55 76.7 17.25 76.7 22.8 76.4 25.35 75.95 27.35 Q75.95 28.0 74.35 29.75 72.7 31.55 71.5 31.7 70.0 32.55 68.8 32.55 L68.75 32.55 65.35 32.95 64.85 32.8 64.45 32.75 31.6 32.75 3.2 32.7 Q0.05 31.05 -0.25 31.05 -1.6 31.05 -2.85 28.35 L-3.45 26.8 -3.85 25.7 -3.75 24.95 Q-2.6 32.0 6.8 32.0 L65.4 32.0 Q74.85 32.0 75.95 24.9 L76.1 22.85 76.1 12.2 75.95 10.15 Q75.45 6.9 73.2 5.1 L72.75 4.4 72.85 3.85" fill="#d0cbbd" fill-rule="evenodd" stroke="none"/>
    </g>
    <g id="text0" transform="matrix(1.0, 0.0, 0.0, 1.0, 2.0, 2.0)">
      <g transform="matrix(1.0, 0.0, 0.0, 1.0, -2.0, -2.0)">
        <use fill="#eee2bc" height="25.2" transform="matrix(0.0176, 0.0, 0.0, 0.0176, 22.75, 17.35)" width="72.5" xlink:href="#font_HelveticaRounded_LT_Std_Bd_O0"/>
        <use fill="#eee2bc" height="25.2" transform="matrix(0.0176, 0.0, 0.0, 0.0176, 37.45, 17.35)" width="72.5" xlink:href="#font_HelveticaRounded_LT_Std_Bd_K0"/>
      </g>
    </g>
    <g id="font_HelveticaRounded_LT_Std_Bd_O0">
      <path d="M213.0 -378.0 Q212.5 -306.5 231.0 -247.5 249.5 -189.0 294.5 -153.5 339.5 -118.5 418.0 -117.5 493.5 -118.5 538.5 -153.5 583.5 -189.0 603.5 -247.5 623.0 -306.5 622.5 -378.0 622.5 -449.5 600.0 -503.5 577.5 -558.0 532.0 -588.5 486.5 -619.5 418.0 -620.0 349.0 -619.5 303.5 -588.5 258.0 -558.0 235.5 -503.5 213.0 -449.5 213.0 -378.0 M45.0 -378.0 Q45.0 -487.0 88.0 -572.0 130.5 -656.5 213.5 -705.5 296.5 -754.0 418.0 -755.0 539.0 -754.0 622.0 -705.5 705.0 -656.5 747.5 -572.0 790.5 -487.0 790.5 -378.0 790.5 -299.5 767.5 -228.5 745.0 -157.5 698.5 -102.0 652.5 -47.0 582.5 -15.0 512.0 17.0 418.0 17.5 286.0 16.5 203.5 -35.5 121.5 -87.0 83.0 -176.0 44.5 -265.0 45.0 -378.0" fill-rule="evenodd" stroke="none"/>
    </g>
    <g id="font_HelveticaRounded_LT_Std_Bd_K0">
      <path d="M78.0 -70.5 L78.0 -667.0 Q78.5 -705.0 101.0 -728.0 123.0 -750.5 162.0 -751.0 201.0 -750.5 223.0 -728.0 245.5 -705.0 246.0 -667.0 L246.0 -423.0 510.0 -714.0 Q524.5 -730.0 539.5 -740.0 555.0 -750.5 576.5 -751.0 608.0 -751.0 631.5 -733.5 655.5 -716.0 656.5 -683.5 656.0 -664.5 648.0 -650.5 640.0 -636.5 629.0 -626.0 L457.0 -444.5 660.5 -134.0 Q673.0 -116.5 682.5 -100.0 692.0 -83.5 692.5 -67.5 692.0 -36.5 679.0 -18.5 666.0 -1.0 646.5 6.5 627.0 13.5 606.5 13.5 581.5 14.0 565.0 5.0 548.0 -4.5 531.5 -30.5 L338.0 -330.0 246.0 -237.5 246.0 -70.5 Q245.5 -32.5 223.0 -9.5 201.0 13.0 162.0 13.5 123.0 13.0 101.0 -9.5 78.5 -32.5 78.0 -70.5" fill-rule="evenodd" stroke="none"/>
    </g>
  </defs>
</svg>
