<?xml version="1.0" encoding="UTF-8" standalone="no"?>
<svg xmlns:ffdec="https://www.free-decompiler.com/flash" xmlns:xlink="http://www.w3.org/1999/xlink" ffdec:objectType="frame" height="262.5px" width="339.15px" xmlns="http://www.w3.org/2000/svg">
  <g transform="matrix(1.0, 0.0, 0.0, 1.0, 349.3, 88.9)">
    <use ffdec:characterId="3102" height="27.95" transform="matrix(7.0, 0.0, 0.0, 7.0, -259.0, -75.25)" width="29.95" xlink:href="#shape0"/>
  </g>
  <defs>
    <g id="shape0" transform="matrix(1.0, 0.0, 0.0, 1.0, 37.0, 10.75)">
      <path d="M-35.4 -3.5 Q-35.55 -4.55 -34.45 -5.25 -33.1 -6.0 -31.65 -6.55 -30.65 -6.95 -29.65 -7.2 L-28.15 -7.6 -28.35 -7.95 Q-28.45 -8.15 -28.4 -8.4 -28.35 -8.65 -28.3 -8.9 L-28.0 -9.55 Q-27.75 -10.0 -27.25 -10.3 -26.5 -10.7 -25.65 -10.75 -22.3 -10.75 -19.1 -10.2 -15.9 -9.65 -12.7 -8.9 L-11.6 -8.55 -11.4 -8.5 Q-9.7 -8.15 -8.3 -7.45 L-7.85 -7.55 -7.95 -7.3 -7.9 -7.3 -7.3 -7.5 -7.25 -7.55 -7.85 -7.2 -7.85 -7.15 -7.9 -7.05 Q-7.9 -7.0 -7.95 -6.95 L-8.0 -6.85 -8.1 -6.75 -8.2 -6.55 -8.55 -6.55 Q-9.15 -6.1 -10.25 -5.65 -10.6 -5.5 -10.95 -5.35 -13.6 -3.4 -15.65 -0.75 L-16.15 -0.05 Q-16.45 0.65 -16.7 1.4 -16.95 2.3 -16.95 3.25 -16.6 4.9 -14.45 6.2 -11.0 8.3 -7.05 7.55 -7.35 8.0 -7.7 8.3 -10.0 10.9 -13.6 12.7 -17.35 14.55 -21.15 16.35 -23.4 17.35 -25.8 17.2 L-26.35 16.7 Q-26.55 16.55 -26.65 16.3 -26.8 16.1 -26.75 15.9 -26.35 15.05 -25.6 14.45 L-24.0 13.1 Q-23.5 12.7 -22.9 12.6 L-22.9 12.65 Q-21.55 11.25 -21.4 9.4 -21.4 8.95 -21.8 8.7 -22.9 8.0 -24.15 7.55 L-23.95 7.8 Q-28.0 7.65 -32.35 7.0 -33.5 6.85 -34.55 6.35 -34.75 6.3 -34.95 6.15 L-35.05 6.1 -34.95 6.35 Q-36.7 5.95 -36.95 4.65 -37.1 4.35 -36.95 4.0 L-36.85 3.5 Q-36.5 2.05 -35.0 1.15 -32.55 -0.25 -29.6 -0.6 L-28.4 -0.7 -27.95 -0.8 -26.95 -1.0 -31.1 -1.9 Q-33.15 -2.3 -35.0 -3.15 -35.25 -3.3 -35.4 -3.5 M-35.2 2.3 L-35.45 2.5 -34.75 2.0 Q-35.0 2.15 -35.2 2.3" fill="#ccfffe" fill-rule="evenodd" stroke="none"/>
    </g>
  </defs>
</svg>
