<?xml version="1.0" encoding="UTF-8" standalone="no"?>
<svg xmlns:ffdec="https://www.free-decompiler.com/flash" xmlns:xlink="http://www.w3.org/1999/xlink" ffdec:objectType="frame" height="344.3px" width="425.15px" xmlns="http://www.w3.org/2000/svg">
  <g transform="matrix(1.0, 0.0, 0.0, 1.0, 222.85, 314.2)">
    <use ffdec:characterId="2408" height="31.9" transform="matrix(7.0, 0.0, 0.0, 7.0, -167.3, -205.45)" width="47.25" xlink:href="#shape0"/>
    <use ffdec:characterId="2405" height="15.25" transform="matrix(7.0, 0.0, 0.0, 7.0, -178.05, -96.15)" width="13.25" xlink:href="#shape1"/>
    <use ffdec:characterId="2409" height="18.0" transform="matrix(-5.7142, 0.0, 0.0, 5.7147, 180.8847, -100.0416)" width="15.3" xlink:href="#shape2"/>
    <use ffdec:characterId="2410" height="46.35" transform="matrix(7.0, 0.0, 0.0, 7.0, -78.55, -304.75)" width="21.5" xlink:href="#shape3"/>
    <use ffdec:characterId="2406" height="45.7" transform="matrix(5.4483, 0.0, 0.0, 5.4483, -3.1399, -233.9718)" width="23.1" xlink:href="#shape4"/>
    <use ffdec:characterId="2406" height="45.7" transform="matrix(4.627, 0.0, 0.0, 4.627, -128.6396, -198.156)" width="23.1" xlink:href="#shape4"/>
  </g>
  <defs>
    <g id="shape0" transform="matrix(1.0, 0.0, 0.0, 1.0, 23.9, 29.35)">
      <path d="M0.7 -29.0 Q0.75 -28.9 0.75 -28.8 L0.75 -28.7 0.7 -28.65 0.7 -28.45 Q0.65 -28.35 0.6 -28.25 L0.65 -28.2 Q0.75 -28.15 0.8 -28.05 0.85 -28.0 0.9 -27.9 L0.95 -27.85 0.95 -27.65 Q0.9 -27.55 0.95 -27.4 L0.95 -27.1 0.9 -27.1 Q0.65 -27.2 0.6 -27.45 0.55 -27.8 0.4 -28.05 0.35 -28.15 0.35 -28.2 0.25 -28.2 0.15 -28.25 L0.1 -28.35 Q0.1 -28.4 0.1 -28.45 L0.1 -28.6 0.15 -28.7 Q0.45 -28.85 0.25 -28.9 L-0.05 -28.9 Q-0.25 -28.9 -0.45 -28.75 -0.45 -28.6 -0.3 -28.45 -0.25 -28.4 -0.25 -28.35 -0.25 -28.15 -0.3 -28.0 L-0.25 -27.95 Q-0.1 -27.7 -0.3 -27.5 -0.5 -27.3 -0.75 -27.15 -0.95 -27.05 -1.1 -27.2 L-1.15 -27.3 -1.2 -27.45 -1.15 -27.65 -1.15 -27.7 Q-1.05 -27.8 -0.95 -27.8 L-0.85 -27.85 -0.9 -27.9 -0.9 -27.95 -0.85 -28.05 -0.85 -28.1 -0.8 -28.15 -0.95 -28.5 Q-1.05 -28.9 -0.75 -29.15 -0.45 -29.4 -0.05 -29.35 0.1 -29.35 0.2 -29.2 0.25 -29.15 0.3 -29.15 L0.55 -29.05 0.7 -29.0 M17.95 -23.0 Q17.95 -22.95 17.9 -22.85 L17.85 -22.8 Q17.7 -22.75 17.55 -22.9 17.5 -22.95 17.5 -23.0 L17.4 -23.15 Q17.35 -23.25 17.3 -23.35 L17.3 -23.4 16.9 -23.35 16.3 -23.25 Q16.0 -23.2 15.75 -23.45 L15.75 -23.5 15.65 -23.5 15.5 -23.45 15.3 -23.4 15.25 -23.35 15.25 -23.2 15.2 -23.1 15.1 -23.0 14.95 -22.95 Q14.9 -22.95 14.85 -23.0 14.75 -23.1 14.85 -23.2 L15.0 -23.4 15.2 -23.7 Q15.45 -24.05 15.85 -24.0 L16.15 -24.0 Q16.3 -24.0 16.4 -23.9 L16.5 -23.8 17.3 -23.8 Q17.55 -23.8 17.7 -23.6 17.85 -23.35 17.95 -23.0 M17.95 -22.45 L18.0 -22.4 18.05 -22.25 Q18.0 -22.1 17.9 -22.0 17.75 -21.85 17.75 -21.8 17.75 -21.6 18.0 -21.6 18.2 -21.65 18.3 -21.5 L18.35 -21.45 Q18.25 -21.2 18.0 -21.2 L18.15 -21.05 18.15 -20.95 Q18.2 -20.7 17.85 -20.6 L17.25 -20.4 17.05 -20.4 17.0 -20.45 16.95 -20.55 Q16.95 -20.65 16.95 -20.7 L16.95 -20.8 Q17.1 -20.95 17.3 -21.0 L17.8 -21.15 Q17.55 -21.15 17.35 -21.35 17.25 -21.4 17.2 -21.55 L17.1 -21.85 Q17.05 -21.95 17.05 -22.1 L17.1 -22.15 Q17.15 -22.3 17.35 -22.35 L17.8 -22.55 17.9 -22.5 17.95 -22.45 M12.2 -23.7 L12.4 -23.6 12.55 -23.5 12.55 -23.45 12.6 -23.35 12.6 -23.15 Q12.6 -23.0 12.55 -22.9 L12.45 -22.7 Q12.5 -22.6 12.6 -22.5 12.85 -22.3 13.05 -22.1 13.15 -22.0 13.25 -22.05 13.35 -22.45 13.8 -22.55 14.1 -22.65 14.35 -22.75 14.55 -22.85 14.6 -22.7 14.55 -22.45 14.35 -22.25 14.0 -21.7 13.35 -21.85 L13.3 -21.9 Q12.9 -21.6 12.55 -21.9 12.2 -22.25 11.9 -22.65 L11.85 -22.75 11.85 -22.8 Q11.85 -22.95 11.95 -23.0 12.1 -23.15 11.95 -23.3 L11.9 -23.4 11.9 -23.55 12.0 -23.65 12.05 -23.65 12.1 -23.7 12.2 -23.7 M19.8 -18.15 Q19.9 -18.0 20.05 -17.9 L20.25 -17.7 20.25 -17.45 20.2 -17.35 Q20.1 -17.3 20.0 -17.4 L19.85 -17.55 19.6 -17.7 19.55 -17.7 Q19.3 -17.65 19.1 -17.5 L18.4 -17.1 Q18.25 -17.1 18.15 -17.25 L18.05 -17.45 Q18.05 -17.5 18.05 -17.6 L18.05 -17.65 18.7 -17.9 Q19.05 -18.05 19.45 -18.25 L19.55 -18.3 Q19.7 -18.3 19.8 -18.15 M19.75 -16.95 L19.8 -17.05 Q19.85 -17.15 20.0 -17.2 20.25 -17.2 20.4 -17.05 20.45 -17.0 20.45 -16.85 20.85 -16.7 21.45 -17.05 L21.9 -17.35 Q22.05 -17.3 22.2 -17.2 L22.35 -16.95 Q22.4 -16.85 22.4 -16.7 L22.25 -16.7 Q22.15 -16.7 22.1 -16.75 L22.0 -16.85 Q21.15 -16.1 20.15 -16.45 19.75 -16.6 19.75 -16.95 M22.25 -16.35 L22.45 -16.35 22.6 -16.3 22.8 -16.25 22.85 -16.0 Q22.9 -15.7 22.75 -15.45 22.55 -15.2 22.2 -15.15 L22.2 -14.95 22.1 -14.85 22.1 -14.8 22.25 -14.8 Q22.6 -14.8 22.85 -14.6 L22.95 -14.5 22.95 -13.95 23.1 -13.9 23.15 -13.85 23.2 -13.75 23.25 -13.55 Q23.25 -13.4 23.2 -13.25 23.15 -13.1 23.05 -13.1 L22.85 -13.2 Q22.65 -13.25 22.45 -13.4 L22.4 -13.45 22.4 -13.5 Q22.35 -13.55 22.4 -13.65 22.45 -13.75 22.45 -13.85 L22.45 -14.2 22.25 -14.25 22.05 -14.25 Q20.95 -13.6 20.95 -14.55 20.95 -15.05 21.35 -15.25 21.55 -15.35 21.7 -15.4 L21.65 -15.6 Q21.65 -15.85 21.75 -16.0 21.9 -16.3 22.25 -16.35 M22.8 -16.3 Q22.75 -16.45 22.85 -16.5 23.05 -16.4 23.0 -16.25 22.9 -16.15 22.8 -16.3 M21.4 -14.6 L21.35 -14.6 21.35 -14.55 21.65 -14.55 21.7 -14.65 21.8 -14.7 21.65 -14.75 21.6 -14.7 21.4 -14.6 M5.95 -25.8 Q5.75 -25.55 5.5 -25.75 L4.9 -26.2 4.85 -26.25 4.35 -25.8 Q3.95 -25.45 3.45 -25.7 L3.4 -25.75 3.4 -25.95 Q3.25 -26.0 3.2 -26.15 L3.1 -26.55 Q3.05 -26.8 3.2 -26.95 L3.25 -27.0 3.1 -27.15 3.1 -27.35 3.0 -27.45 2.95 -27.55 2.85 -27.6 2.6 -27.45 Q2.45 -27.3 2.3 -27.25 L2.15 -27.1 Q1.8 -26.9 1.4 -26.85 1.1 -26.8 0.95 -27.1 1.3 -27.45 1.85 -27.6 L2.15 -27.65 Q2.4 -27.9 2.65 -28.1 2.8 -28.25 2.9 -28.25 3.2 -28.3 3.3 -28.0 L3.35 -27.5 Q3.4 -27.35 3.6 -27.35 L3.7 -27.25 3.7 -27.1 Q3.7 -26.95 3.65 -26.85 L3.6 -26.75 3.6 -26.7 3.75 -26.5 Q3.85 -26.4 3.9 -26.2 4.2 -26.55 4.6 -26.65 5.2 -26.8 5.75 -26.5 L5.75 -26.4 5.85 -26.25 5.9 -25.95 5.95 -25.8 M11.4 -24.3 L11.4 -24.2 11.45 -24.05 11.45 -24.0 11.35 -24.0 11.3 -24.05 11.3 -24.1 11.2 -24.15 Q11.05 -24.1 11.0 -24.2 10.85 -24.1 10.75 -23.95 10.65 -23.65 10.4 -23.75 10.35 -23.9 10.45 -24.0 L10.6 -24.2 Q10.7 -24.4 10.95 -24.4 L11.0 -24.45 11.05 -24.4 11.1 -24.5 11.2 -24.45 11.35 -24.45 11.4 -24.3 M22.9 -12.5 L22.9 -12.25 Q22.9 -12.1 22.8 -12.0 L22.7 -12.0 Q22.55 -12.0 22.45 -12.05 22.4 -12.1 22.35 -12.15 L22.4 -12.35 Q22.45 -12.5 22.6 -12.6 L22.75 -12.65 Q22.95 -12.65 22.9 -12.5 M21.75 -8.9 L22.0 -8.85 22.2 -8.7 22.45 -8.55 22.7 -8.65 Q22.95 -8.65 23.2 -8.5 23.35 -8.4 23.35 -8.3 L23.25 -7.75 Q23.2 -7.5 23.2 -7.25 23.25 -6.7 22.8 -6.3 L22.55 -6.35 Q22.5 -6.45 22.55 -6.55 22.6 -6.65 22.75 -6.75 22.85 -6.85 22.9 -6.95 L22.95 -7.1 22.95 -7.15 22.9 -7.2 22.8 -7.25 22.7 -7.35 22.65 -7.45 22.7 -7.65 22.75 -7.75 22.8 -7.9 22.8 -7.95 Q22.7 -8.15 22.5 -8.1 22.1 -8.0 21.8 -8.2 L21.55 -8.35 21.55 -8.45 21.5 -8.65 Q21.5 -8.75 21.55 -8.8 21.65 -8.9 21.75 -8.9 M22.3 -6.25 Q22.45 -6.1 22.35 -5.95 22.3 -5.85 22.15 -5.85 21.75 -5.9 21.55 -6.2 21.4 -6.4 21.7 -6.45 L22.0 -6.4 Q22.2 -6.4 22.3 -6.25 M21.15 -4.35 Q21.0 -4.15 20.95 -4.45 20.95 -4.6 21.1 -4.6 21.3 -4.55 21.15 -4.35 M21.55 -4.0 L21.9 -3.95 22.1 -3.9 Q22.15 -3.8 22.15 -3.65 22.2 -3.2 21.85 -2.95 21.5 -2.75 21.3 -3.05 L21.25 -3.1 21.25 -3.15 20.95 -3.15 20.85 -3.25 20.85 -3.3 Q20.9 -3.5 21.05 -3.65 L21.45 -3.95 21.55 -4.0 M22.25 -2.0 Q22.2 -1.55 21.7 -1.4 21.4 -1.3 21.2 -1.5 L21.2 -1.65 Q21.15 -1.7 21.2 -1.75 21.3 -1.85 21.2 -1.95 21.1 -2.0 21.1 -2.15 21.1 -2.3 21.2 -2.35 21.3 -2.35 21.45 -2.45 21.6 -2.6 21.75 -2.65 22.3 -2.5 22.25 -2.0 M-23.25 -5.5 Q-23.15 -5.35 -22.8 -5.25 L-22.75 -5.15 Q-22.75 -5.05 -22.75 -5.0 L-22.8 -4.85 -22.9 -4.75 -22.9 -4.7 -22.85 -4.65 -22.85 -4.55 -22.8 -4.45 -22.9 -4.35 Q-22.95 -4.25 -23.05 -4.25 L-23.25 -4.25 -23.35 -4.35 -23.4 -4.5 -23.4 -4.8 -23.6 -4.9 -23.8 -4.95 Q-23.9 -5.1 -23.9 -5.35 -23.9 -5.6 -23.75 -5.75 L-23.5 -6.1 Q-22.95 -6.05 -22.45 -5.85 -22.05 -5.7 -21.7 -5.75 -21.6 -5.85 -21.55 -6.0 -21.55 -6.2 -21.55 -6.35 -21.55 -6.6 -21.7 -6.75 L-21.75 -6.75 -21.7 -7.1 Q-21.6 -7.25 -21.6 -7.5 -21.6 -7.75 -21.4 -7.75 -20.8 -7.4 -21.0 -6.75 -21.15 -6.25 -21.25 -5.7 -21.35 -5.3 -21.65 -5.1 -21.9 -5.1 -22.15 -5.2 -22.35 -5.3 -22.45 -5.5 -22.75 -5.45 -23.0 -5.65 -23.15 -5.75 -23.25 -5.65 -23.3 -5.55 -23.25 -5.5 M-5.6 -25.45 Q-5.9 -25.35 -6.1 -25.1 -6.35 -24.8 -6.65 -25.1 -6.8 -25.25 -6.75 -25.45 L-6.65 -25.5 Q-6.55 -25.6 -6.45 -25.6 L-6.25 -25.65 -6.1 -25.65 -5.9 -25.6 -5.75 -25.55 -5.6 -25.45 M-8.5 -25.4 L-8.6 -25.3 -8.7 -25.25 -9.0 -25.25 -9.0 -24.95 -8.9 -24.85 -8.8 -24.8 -8.7 -24.7 -8.7 -24.4 -8.75 -24.35 -8.75 -24.25 -8.4 -24.2 -8.3 -24.1 -8.2 -23.95 -8.2 -23.9 -8.25 -23.85 -8.25 -23.8 -8.3 -23.75 -8.3 -23.7 -8.35 -23.65 -8.35 -23.6 -8.45 -23.6 -8.7 -23.65 Q-8.95 -23.65 -9.2 -23.8 -9.3 -23.95 -9.3 -24.15 L-9.5 -25.65 Q-9.5 -25.85 -9.35 -25.85 L-9.0 -25.8 -8.7 -25.7 Q-8.5 -25.65 -8.5 -25.45 L-8.5 -25.4 M-9.3 -23.25 L-9.2 -23.35 Q-9.1 -23.4 -9.0 -23.45 L-8.75 -23.45 -8.55 -23.4 Q-8.45 -23.35 -8.4 -23.25 L-8.75 -22.85 Q-8.9 -22.7 -9.15 -22.7 -9.45 -22.75 -9.45 -22.55 L-9.45 -22.5 -9.4 -22.45 -9.1 -22.25 Q-9.0 -22.05 -9.1 -21.85 -9.15 -21.65 -9.25 -21.45 L-9.45 -21.15 Q-9.55 -20.85 -9.8 -20.95 -9.95 -21.0 -9.95 -21.2 L-9.75 -21.8 Q-9.7 -21.95 -9.55 -22.0 L-9.55 -22.05 Q-9.8 -22.2 -9.9 -22.45 -10.0 -22.6 -9.95 -22.8 -9.85 -23.05 -9.6 -23.2 L-9.3 -23.25 M-17.95 -18.85 Q-17.6 -18.75 -17.45 -18.4 L-17.2 -17.8 Q-17.1 -17.55 -17.25 -17.35 -17.95 -17.0 -18.25 -17.65 -18.5 -18.1 -18.25 -18.55 -18.15 -18.8 -17.95 -18.85 M-17.65 -17.95 Q-17.75 -18.1 -17.8 -18.05 -17.8 -17.95 -17.7 -17.9 -17.6 -17.9 -17.65 -17.95 M-21.1 -15.05 Q-21.0 -15.35 -20.7 -15.45 -20.4 -15.35 -20.1 -15.15 -19.85 -15.0 -19.7 -14.7 -19.65 -14.5 -19.65 -14.3 L-19.55 -14.25 -19.5 -14.2 -19.4 -14.15 -19.4 -14.0 Q-19.6 -13.8 -19.8 -14.05 L-20.05 -14.3 -20.45 -14.55 -20.55 -14.55 -20.65 -14.5 -20.8 -14.45 Q-21.0 -14.5 -21.1 -14.75 -21.2 -14.85 -21.1 -15.05 M-21.85 -14.35 Q-21.55 -14.25 -21.3 -14.1 -21.1 -14.0 -20.9 -13.95 L-20.9 -13.9 Q-21.05 -13.8 -21.25 -13.7 L-21.5 -13.75 -21.85 -13.7 -21.7 -13.55 -21.7 -13.4 -21.75 -13.3 -21.8 -13.25 -21.75 -13.2 Q-21.65 -13.15 -21.65 -13.05 L-21.55 -12.9 -21.45 -12.7 Q-21.4 -12.6 -21.45 -12.55 L-21.5 -12.5 -21.6 -12.45 -21.65 -12.45 Q-21.7 -12.5 -21.8 -12.5 L-21.85 -12.55 -21.85 -12.75 -21.8 -12.8 -21.8 -12.85 -21.75 -12.9 -21.75 -12.95 -21.9 -13.1 -21.9 -13.2 -22.25 -13.3 Q-22.65 -13.4 -22.8 -13.75 -22.85 -13.95 -22.75 -14.15 -22.65 -14.3 -22.45 -14.35 -22.1 -14.45 -21.85 -14.35 M-16.6 -18.95 L-16.55 -19.1 -16.45 -19.2 -16.35 -19.25 -16.2 -19.25 -16.05 -19.2 Q-15.95 -19.15 -15.9 -19.1 L-15.8 -19.0 -15.65 -18.95 -15.45 -18.95 Q-15.25 -18.95 -15.2 -18.85 L-15.2 -18.8 -15.3 -18.7 -15.3 -18.6 -15.35 -18.5 Q-15.5 -18.4 -15.6 -18.4 -15.95 -18.35 -16.25 -18.5 L-16.55 -18.75 -16.6 -18.8 -16.6 -18.95 M-15.6 -18.25 L-15.55 -18.25 Q-15.3 -18.25 -15.3 -18.05 -15.3 -17.9 -15.55 -17.85 -15.65 -17.85 -15.7 -17.95 L-15.7 -18.1 Q-15.7 -18.2 -15.6 -18.25 M-14.8 -16.8 L-14.5 -16.75 -14.45 -16.7 Q-14.45 -16.1 -15.05 -16.2 -15.7 -16.3 -15.7 -16.9 -15.75 -17.2 -15.55 -17.3 L-15.4 -17.2 -15.3 -17.05 -15.3 -16.9 Q-15.05 -16.8 -14.8 -16.8 M-16.85 -16.9 Q-16.95 -16.8 -17.0 -16.95 -17.1 -17.05 -16.9 -17.05 -16.75 -17.0 -16.85 -16.9 M-21.3 -11.05 Q-21.3 -11.0 -21.3 -10.9 L-21.4 -10.8 -21.5 -10.75 Q-21.7 -10.75 -21.75 -10.9 -21.8 -11.1 -21.65 -11.2 -21.6 -11.3 -21.5 -11.3 L-21.4 -11.25 -21.3 -11.15 -21.3 -11.05 M-20.7 -2.75 L-20.6 -2.7 Q-20.5 -2.6 -20.5 -2.45 -20.45 -2.25 -20.65 -2.1 L-20.95 -1.95 -20.95 -1.9 -20.8 -1.8 Q-20.75 -1.75 -20.75 -1.65 L-20.75 -1.6 Q-20.9 -1.3 -21.3 -1.3 -21.65 -1.35 -21.85 -1.6 L-21.9 -1.7 -21.9 -2.1 -21.85 -2.2 Q-21.7 -2.4 -21.45 -2.4 L-20.95 -2.45 -20.9 -2.5 -20.9 -2.7 Q-20.85 -2.8 -20.8 -2.8 L-20.7 -2.75 M-21.3 -1.95 L-21.35 -1.9 -21.3 -1.9 -21.25 -1.95 -21.3 -1.95 M-20.3 -1.45 L-20.05 -1.5 Q-19.85 -1.5 -19.8 -1.35 -19.7 -1.2 -19.6 -1.15 L-19.4 -1.0 -19.4 -0.65 -19.35 -0.5 Q-19.3 -0.4 -19.35 -0.3 L-19.4 -0.25 -19.4 -0.2 -19.55 -0.15 -19.65 -0.1 Q-19.65 0.1 -19.6 0.25 -19.55 0.4 -19.35 0.45 -19.05 0.55 -19.05 0.8 L-19.1 0.9 -18.9 1.0 Q-18.75 1.05 -18.65 1.15 L-18.4 1.35 -18.4 1.45 -18.5 1.5 -18.6 1.6 Q-18.75 1.65 -18.9 1.6 -19.05 1.55 -19.2 1.45 -19.3 1.35 -19.35 1.2 L-19.3 1.15 -19.3 1.1 -19.25 1.05 -19.3 1.05 Q-19.55 1.05 -19.75 0.95 L-20.0 0.75 Q-20.15 0.5 -20.2 0.25 -20.25 -0.1 -20.05 -0.3 L-19.6 -0.7 Q-19.6 -0.9 -19.85 -1.0 L-20.3 -1.05 Q-20.45 -1.0 -20.5 -1.1 -20.55 -1.2 -20.5 -1.25 -20.45 -1.4 -20.3 -1.45" fill="#ccfffe" fill-opacity="0.7529412" fill-rule="evenodd" stroke="none"/>
      <path d="M0.35 -28.55 Q0.2 -28.7 -0.05 -28.75 -0.55 -28.95 -0.6 -28.55 L-0.5 -28.4 -0.5 -28.35 Q-0.6 -28.25 -0.7 -28.25 L-0.95 -28.3 -0.95 -28.55 Q-0.9 -28.6 -0.9 -28.7 L-0.9 -28.85 -0.85 -28.9 -0.8 -29.0 -0.75 -29.05 -0.7 -29.05 -0.65 -29.1 -0.35 -29.05 0.1 -28.95 Q0.3 -28.9 0.45 -28.7 L0.45 -28.65 0.35 -28.55 M0.6 -28.35 Q0.65 -28.25 0.7 -28.15 0.8 -28.05 0.8 -27.9 0.8 -27.75 0.7 -27.65 0.55 -27.7 0.5 -27.85 0.45 -28.0 0.5 -28.2 0.5 -28.35 0.6 -28.35 M17.85 -23.05 L17.8 -23.0 Q17.75 -22.95 17.7 -22.95 L17.7 -23.05 17.65 -23.1 17.55 -23.15 16.7 -23.4 15.75 -23.4 15.95 -23.6 16.0 -23.7 16.1 -23.7 16.1 -23.75 Q16.5 -23.6 16.95 -23.65 17.3 -23.7 17.65 -23.55 18.05 -23.45 17.85 -23.05 M17.7 -22.55 L17.65 -22.4 17.6 -22.3 17.5 -22.15 17.5 -22.05 Q17.5 -21.9 17.65 -21.85 17.95 -21.8 18.15 -21.6 L18.2 -21.55 Q18.15 -21.35 17.95 -21.4 17.6 -21.5 17.35 -21.75 L17.3 -21.85 Q17.2 -22.0 17.35 -22.1 17.45 -22.15 17.45 -22.3 17.5 -22.4 17.6 -22.5 L17.65 -22.5 17.7 -22.55 M11.7 -24.1 L11.5 -24.15 Q11.15 -24.2 10.95 -23.95 10.9 -23.85 10.75 -23.8 L10.45 -23.8 Q10.7 -23.9 10.8 -24.1 L11.0 -24.3 11.45 -24.25 11.65 -24.15 11.7 -24.1 M12.35 -23.35 L12.5 -23.3 12.55 -23.2 Q12.55 -22.95 12.7 -22.75 L13.0 -22.35 Q13.15 -22.1 13.4 -21.95 L12.75 -22.05 Q12.45 -22.05 12.3 -22.3 12.25 -22.5 12.3 -22.7 12.35 -22.95 12.2 -23.15 12.05 -23.4 12.15 -23.55 L12.35 -23.35 M14.4 -22.6 L14.5 -22.65 Q14.45 -22.45 14.25 -22.35 L13.95 -22.2 Q13.8 -22.1 13.6 -22.05 13.75 -22.3 14.0 -22.35 14.15 -22.4 14.25 -22.5 L14.4 -22.6 M15.4 -23.6 Q15.65 -23.5 15.3 -23.3 15.1 -23.15 14.95 -22.95 14.85 -22.75 14.7 -22.65 14.45 -22.75 14.75 -23.05 L15.05 -23.3 Q15.25 -23.5 15.4 -23.6 M17.15 -20.75 Q17.15 -20.9 17.25 -20.95 L17.35 -20.95 17.9 -21.0 18.0 -21.0 Q18.0 -20.85 17.85 -20.8 17.7 -20.75 17.55 -20.7 L17.2 -20.7 17.15 -20.75 M19.3 -17.85 L19.4 -18.0 19.5 -18.1 19.55 -18.1 20.0 -17.65 Q20.1 -17.55 20.25 -17.45 20.05 -17.35 19.9 -17.55 L19.75 -17.65 19.55 -17.7 Q19.4 -17.75 19.2 -17.5 18.9 -17.2 18.5 -17.25 18.4 -17.25 18.35 -17.35 L18.35 -17.5 Q18.35 -17.55 18.35 -17.6 L18.55 -17.55 18.55 -17.5 18.7 -17.55 18.95 -17.6 19.2 -17.7 19.3 -17.85 M20.0 -16.8 Q20.0 -16.95 20.1 -16.95 L20.2 -16.9 20.2 -16.8 20.5 -16.65 20.7 -16.6 Q21.0 -16.85 21.45 -16.95 L21.95 -17.05 22.05 -17.05 Q22.65 -16.8 22.05 -16.8 L21.35 -16.75 Q21.05 -16.7 20.85 -16.4 L20.15 -16.55 Q20.0 -16.6 20.0 -16.75 L20.0 -16.8 M22.7 -16.2 Q22.85 -15.65 22.35 -15.35 L21.65 -14.95 Q21.35 -14.8 21.3 -14.55 21.65 -14.4 22.05 -14.55 22.3 -14.6 22.5 -14.45 22.55 -14.25 22.7 -14.1 L22.85 -13.75 Q22.9 -13.6 22.9 -13.45 L22.85 -13.35 Q22.55 -13.35 22.55 -13.65 22.55 -13.8 22.45 -13.95 22.35 -14.1 22.3 -14.25 22.0 -14.3 21.65 -14.15 21.3 -14.0 21.0 -14.3 20.95 -14.65 21.25 -14.9 L21.7 -15.35 Q21.9 -15.55 21.9 -15.9 22.05 -16.0 22.25 -16.0 22.5 -16.0 22.6 -16.15 L22.7 -16.2 M3.2 -27.9 L3.3 -27.75 Q3.45 -27.55 3.45 -27.3 3.45 -27.05 3.5 -26.85 3.55 -26.75 3.65 -26.7 L3.65 -26.4 Q3.65 -26.2 3.8 -26.1 L4.05 -26.15 4.1 -26.05 Q4.15 -25.9 3.95 -25.85 L3.6 -25.9 3.55 -25.95 3.5 -26.05 3.45 -26.2 3.45 -26.55 3.3 -26.65 Q3.2 -26.7 3.25 -26.85 L3.3 -27.15 3.3 -27.4 3.2 -27.45 3.15 -27.55 3.05 -27.65 2.95 -27.8 Q2.65 -27.85 2.45 -27.6 2.25 -27.3 1.9 -27.15 L1.7 -27.15 1.75 -27.2 Q1.95 -27.15 2.1 -27.3 2.25 -27.5 2.35 -27.8 L2.4 -27.85 2.45 -27.85 2.65 -27.9 2.75 -27.95 3.05 -27.95 3.2 -27.9 M4.2 -26.25 Q4.25 -26.4 4.4 -26.4 L4.5 -26.45 Q4.6 -26.5 4.7 -26.55 L5.05 -26.5 Q5.25 -26.45 5.4 -26.4 5.5 -26.3 5.55 -26.2 L5.5 -26.05 Q5.4 -25.85 5.2 -26.0 5.05 -26.15 4.95 -26.3 L4.95 -26.4 4.8 -26.35 Q4.7 -26.25 4.5 -26.2 4.3 -26.2 4.15 -26.1 L4.1 -26.1 4.2 -26.2 4.2 -26.25 M1.5 -27.15 Q1.05 -27.05 0.8 -27.4 0.75 -27.45 0.85 -27.5 L0.95 -27.5 Q1.0 -27.5 1.05 -27.5 L1.35 -27.35 1.5 -27.3 1.65 -27.2 1.5 -27.15 M22.7 -12.45 L22.7 -12.1 Q22.55 -12.0 22.6 -12.2 L22.6 -12.45 Q22.55 -12.55 22.65 -12.6 L22.7 -12.6 22.7 -12.45 M23.15 -8.3 Q23.35 -8.1 23.35 -7.8 23.35 -7.55 23.25 -7.4 23.1 -7.05 22.95 -6.7 22.9 -6.5 22.75 -6.3 22.6 -6.45 22.8 -6.85 L22.95 -7.1 Q23.05 -7.5 22.95 -7.85 22.9 -7.95 22.9 -8.1 22.65 -8.1 22.4 -8.2 L22.15 -8.25 Q22.05 -8.2 22.0 -8.3 21.85 -8.55 22.0 -8.65 L22.2 -8.45 Q22.3 -8.4 22.35 -8.35 22.5 -8.25 22.65 -8.3 L23.15 -8.3 M22.3 -6.1 Q22.25 -5.95 22.05 -5.95 21.75 -5.9 21.6 -6.15 21.6 -6.25 21.65 -6.25 L21.75 -6.3 22.05 -6.2 22.25 -6.15 22.3 -6.1 M21.1 -4.5 L21.25 -4.65 Q21.2 -4.55 21.25 -4.4 21.25 -4.3 21.2 -4.25 L21.1 -4.25 21.05 -4.4 Q21.05 -4.45 21.1 -4.5 M21.45 -3.75 L21.7 -3.9 21.85 -3.95 Q22.2 -3.85 22.1 -3.5 22.05 -3.25 21.8 -3.15 21.55 -3.0 21.4 -3.2 L21.35 -3.3 21.35 -3.5 21.4 -3.7 21.45 -3.75 M22.0 -2.9 Q21.95 -3.0 22.1 -3.0 22.25 -2.95 22.15 -2.8 22.1 -2.7 22.0 -2.9 M21.85 -2.5 Q22.15 -2.5 22.2 -2.2 22.2 -1.95 22.1 -1.75 21.95 -1.5 21.75 -1.5 21.5 -1.5 21.45 -1.7 21.35 -1.85 21.35 -2.0 21.35 -2.2 21.5 -2.3 L21.65 -2.45 21.7 -2.45 21.85 -2.5 M-23.25 -5.45 L-23.3 -5.35 -23.25 -5.2 Q-23.2 -5.1 -23.2 -5.0 L-23.15 -4.85 Q-23.2 -4.7 -23.1 -4.75 -22.9 -4.85 -22.8 -4.65 L-22.7 -4.5 Q-23.05 -4.2 -23.3 -4.6 L-23.6 -4.95 Q-23.6 -5.2 -23.55 -5.4 -23.45 -5.65 -23.25 -5.9 L-23.15 -6.05 Q-22.65 -6.05 -22.2 -5.75 -22.0 -5.65 -21.7 -5.65 L-21.65 -6.3 Q-21.6 -6.6 -21.6 -6.9 -21.6 -7.15 -21.45 -7.3 -21.4 -6.95 -21.35 -6.6 -21.35 -6.25 -21.4 -5.9 -21.45 -5.65 -21.6 -5.45 -22.3 -5.15 -23.0 -5.75 L-23.05 -5.75 -23.25 -5.45 M-0.95 -27.6 Q-1.0 -27.75 -0.85 -27.85 L-0.55 -28.15 -0.5 -28.15 Q-0.4 -28.0 -0.5 -27.9 L-0.7 -27.6 -0.95 -27.6 M-6.3 -25.2 Q-6.6 -24.85 -6.65 -25.3 -6.7 -25.55 -6.45 -25.6 -5.95 -25.55 -6.3 -25.2 M-8.9 -25.85 L-8.9 -25.9 Q-8.65 -25.9 -8.8 -25.7 -8.85 -25.6 -9.0 -25.55 -9.2 -25.5 -9.3 -25.3 L-9.35 -25.25 -9.3 -24.95 Q-9.25 -24.75 -9.15 -24.65 -8.9 -24.4 -8.6 -24.2 L-8.5 -24.1 -8.5 -23.85 -8.45 -23.8 -8.45 -23.7 -8.5 -23.65 Q-8.6 -23.7 -8.65 -23.75 L-8.7 -23.9 -8.7 -24.05 -8.8 -24.2 -9.0 -24.2 Q-9.05 -24.15 -9.1 -24.15 L-9.2 -24.15 Q-9.4 -24.25 -9.45 -24.45 L-9.5 -24.75 -9.5 -25.35 -9.35 -25.5 -9.2 -25.6 -9.1 -25.75 Q-9.05 -25.85 -8.9 -25.85 M-8.7 -23.35 Q-8.5 -23.15 -8.8 -23.05 L-9.25 -22.9 Q-9.4 -22.8 -9.5 -22.7 -9.5 -22.45 -9.35 -22.2 -9.25 -22.05 -9.2 -21.85 -9.2 -21.45 -9.55 -21.3 L-9.6 -21.3 Q-9.6 -21.2 -9.65 -21.15 -9.8 -21.0 -9.85 -21.2 -9.85 -21.3 -9.75 -21.35 -9.9 -21.5 -9.75 -21.75 -9.65 -21.9 -9.65 -22.1 -9.7 -22.4 -9.8 -22.7 L-9.85 -22.8 Q-9.7 -22.9 -9.5 -22.95 -9.3 -23.0 -9.15 -23.2 -9.0 -23.4 -8.75 -23.4 L-8.7 -23.35 M-18.3 -18.35 Q-18.3 -18.65 -18.0 -18.65 -17.7 -18.5 -17.6 -18.15 -17.55 -17.8 -17.75 -17.55 -17.9 -17.3 -18.2 -17.45 -18.35 -17.6 -18.3 -17.85 -18.25 -18.1 -18.3 -18.35 M-22.6 -14.3 Q-22.3 -14.3 -22.05 -14.2 L-21.55 -14.1 Q-21.3 -14.05 -21.1 -13.9 -21.4 -13.7 -21.75 -13.8 -21.95 -13.85 -22.15 -13.95 -22.35 -14.05 -22.6 -13.9 L-22.55 -13.85 -22.5 -13.85 -22.35 -13.8 -22.05 -13.5 Q-22.25 -13.3 -22.45 -13.5 L-22.6 -13.6 Q-22.8 -13.75 -22.8 -13.95 L-22.8 -14.1 -22.6 -14.3 M-20.75 -15.15 L-20.4 -15.0 -20.2 -14.85 Q-20.1 -14.75 -19.95 -14.7 -19.9 -14.6 -19.9 -14.5 -19.9 -14.35 -19.8 -14.25 L-19.65 -14.15 Q-19.5 -14.05 -19.55 -13.9 L-19.6 -13.95 -19.65 -13.95 -19.8 -14.0 -19.95 -14.15 -20.0 -14.25 -20.05 -14.3 -20.05 -14.55 -20.45 -14.75 -20.55 -14.75 -20.55 -14.7 -20.5 -14.55 Q-20.5 -14.45 -20.6 -14.45 L-20.8 -14.4 -20.85 -14.45 -20.95 -14.6 -20.95 -14.9 -20.9 -15.05 -20.75 -15.15 M-15.95 -19.1 L-15.85 -18.95 Q-15.8 -18.85 -15.7 -18.8 -15.5 -18.75 -15.45 -18.55 L-16.1 -18.5 Q-16.6 -18.65 -16.5 -19.0 -16.5 -19.1 -16.35 -19.15 L-16.15 -19.15 -16.05 -19.1 -15.95 -19.1 M-15.7 -18.1 Q-15.65 -18.25 -15.55 -18.25 -15.45 -18.05 -15.6 -17.95 -15.8 -17.9 -15.7 -18.1 M-15.6 -17.3 L-15.55 -17.3 Q-15.35 -17.2 -15.5 -17.0 -15.6 -16.9 -15.5 -16.8 -15.35 -16.7 -15.3 -16.55 L-14.6 -16.6 -14.6 -16.55 Q-15.05 -16.3 -15.45 -16.55 -15.6 -16.65 -15.75 -16.8 L-15.75 -16.95 -15.7 -17.1 Q-15.7 -17.2 -15.6 -17.3 M-21.65 -12.6 Q-21.8 -12.45 -21.8 -12.65 -21.8 -12.8 -21.65 -12.75 -21.55 -12.65 -21.65 -12.6 M-21.6 -10.85 Q-21.8 -10.7 -21.8 -10.95 -21.8 -11.05 -21.65 -11.05 -21.45 -10.95 -21.6 -10.85 M-22.2 -4.5 Q-21.85 -4.55 -22.05 -4.45 -22.15 -4.35 -22.3 -4.45 -22.3 -4.5 -22.2 -4.5 M-21.65 -2.1 Q-21.65 -2.25 -21.5 -2.3 L-21.3 -2.25 -21.15 -2.2 Q-21.15 -2.1 -21.35 -2.05 L-21.35 -1.95 -21.0 -1.6 Q-21.0 -1.55 -21.0 -1.5 -21.15 -1.4 -21.3 -1.45 -21.5 -1.55 -21.7 -1.65 L-21.7 -2.0 -21.65 -2.1 M-20.85 -2.15 Q-20.95 -2.15 -21.0 -2.2 L-20.95 -2.4 -20.9 -2.5 Q-20.85 -2.55 -20.75 -2.6 L-20.7 -2.3 Q-20.7 -2.1 -20.85 -2.15 M-19.85 -0.85 L-20.05 -1.0 Q-20.25 -1.05 -20.25 -1.15 -20.2 -1.25 -20.05 -1.2 L-19.85 -1.05 -19.7 -0.9 -19.65 -0.75 -19.75 -0.25 Q-19.8 0.0 -19.6 0.2 L-19.25 0.5 -19.3 0.55 -19.65 0.6 -19.8 0.6 Q-19.95 0.4 -20.05 0.15 -20.1 -0.15 -20.05 -0.45 -20.0 -0.65 -19.85 -0.85 M-14.9 2.35 L-14.75 2.3 -14.6 2.3 Q-14.6 2.45 -14.7 2.55 -14.8 2.6 -14.9 2.5 -15.0 2.45 -14.9 2.35 M-18.55 1.35 L-19.0 1.35 Q-19.3 1.35 -19.25 1.1 -19.25 1.0 -19.15 0.95 L-19.1 0.95 -18.85 1.2 -18.6 1.3 -18.55 1.35" fill="#ffffff" fill-opacity="0.7529412" fill-rule="evenodd" stroke="none"/>
      <path d="M4.55 -28.95 Q5.9 -28.75 7.25 -28.45 8.3 -28.2 9.05 -27.55 8.05 -27.4 6.8 -27.9 3.6 -29.25 0.25 -28.4 L-3.1 -27.5 Q-2.85 -27.75 -2.5 -27.9 L-1.7 -28.2 -0.5 -28.5 Q0.7 -28.75 1.8 -29.15 3.2 -29.15 4.55 -28.95 M13.15 -23.75 L13.15 -23.95 13.1 -24.0 12.9 -24.1 12.45 -24.2 12.5 -24.2 12.95 -24.3 Q14.15 -23.95 15.15 -23.25 16.15 -22.5 16.75 -21.5 17.15 -20.85 17.0 -20.15 L16.1 -21.2 14.85 -22.6 Q14.15 -23.3 13.2 -23.7 L13.15 -23.75 M22.25 -13.35 Q22.9 -11.35 22.7 -9.15 22.5 -7.0 21.8 -5.05 21.45 -3.9 20.8 -2.95 21.55 -4.95 22.05 -7.15 22.55 -9.15 22.5 -11.3 22.5 -12.45 22.25 -13.35 M-23.8 -6.1 Q-23.6 -5.0 -23.2 -4.0 -22.8 -3.0 -22.35 -2.0 -22.05 -1.45 -21.7 -0.9 -22.7 -1.65 -23.1 -2.95 -23.4 -4.0 -23.65 -5.05 -23.8 -5.6 -23.8 -6.1 M-18.4 -18.6 Q-18.7 -18.3 -19.0 -18.2 -18.9 -18.45 -18.65 -18.6 -18.35 -18.75 -18.1 -18.95 -17.4 -19.4 -16.6 -19.55 L-16.5 -19.55 -16.25 -19.5 Q-16.85 -19.45 -17.4 -19.2 -17.95 -19.0 -18.4 -18.6 M-21.3 -10.35 Q-21.35 -9.55 -21.5 -8.8 -22.2 -9.7 -21.7 -11.1 -21.1 -12.6 -20.1 -13.95 -19.5 -14.75 -18.65 -15.2 -19.7 -14.3 -20.45 -13.05 -21.15 -11.8 -21.3 -10.35" fill="#ffffff" fill-opacity="0.7529412" fill-rule="evenodd" stroke="none"/>
    </g>
    <g id="shape1" transform="matrix(1.0, 0.0, 0.0, 1.0, 9.65, 13.2)">
      <path d="M-5.9 -1.65 L-5.75 -1.65 -5.55 -2.05 -5.45 -2.95 -4.45 -4.05 Q-4.35 -3.95 -4.05 -3.7 L-3.35 -4.5 Q-3.2 -4.65 -2.95 -4.55 L-2.5 -4.15 Q-2.45 -4.35 -2.35 -4.9 L-0.7 -6.95 0.4 -5.9 Q0.6 -5.5 0.65 -5.4 0.9 -5.15 1.05 -4.25 L1.15 -3.25 Q1.2 -2.65 1.25 -2.4 1.45 -1.5 1.65 -0.75 L-4.6 1.7 Q-6.05 1.7 -6.5 1.25 -6.65 1.1 -6.7 0.85 L-6.6 0.2 -6.85 -0.95 -6.95 -1.5 Q-7.3 -1.8 -7.35 -1.9 -7.7 -2.3 -7.7 -2.6 -7.7 -2.8 -7.5 -2.85 -7.35 -2.85 -7.05 -2.75 -6.8 -2.65 -6.6 -2.45 L-6.5 -2.25 Q-7.25 -2.95 -7.25 -2.15 -7.25 -1.95 -6.6 -1.45 L-5.65 -1.35 -5.9 -1.65 M0.05 -5.55 Q0.05 -5.7 0.05 -5.75 0.0 -5.9 -0.45 -6.45 -0.5 -6.3 -0.55 -6.05 -0.6 -5.9 -0.6 -5.75 -0.6 -5.45 -0.45 -5.1 -0.4 -4.8 -0.3 -4.65 -0.25 -4.7 -0.2 -4.8 L-0.05 -5.1 Q0.0 -5.2 0.05 -5.25 L0.05 -5.55 M0.05 -4.15 Q0.0 -3.65 -0.25 -3.35 -0.3 -3.5 -0.45 -3.95 -0.55 -4.35 -0.7 -4.35 L-0.75 -2.95 -0.3 -2.5 Q-0.05 -2.5 0.15 -2.8 L0.7 -4.35 Q0.55 -5.05 0.15 -5.0 0.1 -4.45 0.05 -4.15 M-7.6 -0.45 L-8.3 -0.65 Q-8.45 -0.9 -8.45 -0.95 -8.45 -1.25 -8.45 -1.3 -8.45 -1.45 -8.3 -1.5 -8.05 -1.65 -7.1 -1.2 L-7.4 -0.95 Q-7.5 -1.05 -7.65 -1.15 -7.9 -1.35 -8.05 -1.3 -8.2 -1.3 -8.2 -1.05 -8.2 -1.0 -8.1 -0.9 -7.95 -0.75 -7.8 -0.6 L-7.6 -0.45 M-2.25 -3.4 Q-2.6 -4.05 -2.75 -4.0 -2.8 -3.95 -2.8 -3.55 -2.8 -3.25 -2.7 -2.85 -2.55 -2.45 -2.55 -2.15 -2.55 -2.1 -2.6 -2.05 -2.6 -2.0 -2.65 -1.9 -2.75 -2.0 -2.8 -2.2 -2.85 -2.35 -2.9 -2.6 -2.95 -2.8 -3.05 -2.9 -3.1 -3.05 -3.25 -3.05 L-3.4 -3.0 -3.25 -2.25 -3.1 -1.85 -2.45 -1.3 -1.65 -1.85 -1.6 -2.0 Q-1.55 -2.1 -1.55 -2.15 -1.55 -2.2 -1.75 -2.6 L-2.25 -3.4" fill="#a45cba" fill-rule="evenodd" stroke="none"/>
      <path d="M-6.5 -2.25 L-6.45 -2.25 Q-6.2 -2.0 -5.9 -1.65 L-5.65 -1.35 -6.6 -1.45 Q-7.25 -1.95 -7.25 -2.15 -7.25 -2.95 -6.5 -2.25 M0.05 -4.15 Q0.1 -4.45 0.15 -5.0 0.55 -5.05 0.7 -4.35 L0.15 -2.8 Q-0.05 -2.5 -0.3 -2.5 L-0.75 -2.95 -0.7 -4.35 Q-0.55 -4.35 -0.45 -3.95 -0.3 -3.5 -0.25 -3.35 0.0 -3.65 0.05 -4.15 M-4.05 -6.95 Q-4.0 -6.85 -3.65 -6.15 -3.4 -5.6 -3.2 -5.4 L-3.25 -5.25 -3.45 -5.2 Q-3.65 -5.2 -3.8 -5.45 L-3.9 -5.6 -3.85 -5.4 -4.15 -5.1 Q-4.35 -5.6 -4.45 -5.85 L-4.5 -6.55 Q-4.5 -7.25 -4.4 -7.3 -4.3 -7.35 -4.05 -6.95 M-7.4 -0.95 L-6.95 -0.3 Q-7.0 -0.25 -7.1 -0.25 -7.3 -0.25 -7.6 -0.45 L-7.8 -0.6 Q-7.95 -0.75 -8.1 -0.9 -8.2 -1.0 -8.2 -1.05 -8.2 -1.3 -8.05 -1.3 -7.9 -1.35 -7.65 -1.15 -7.5 -1.05 -7.4 -0.95 M-2.25 -3.4 L-1.75 -2.6 Q-1.55 -2.2 -1.55 -2.15 -1.55 -2.1 -1.6 -2.0 L-1.65 -1.85 -2.45 -1.3 -3.1 -1.85 -3.25 -2.25 -3.4 -3.0 -3.25 -3.05 Q-3.1 -3.05 -3.05 -2.9 -2.95 -2.8 -2.9 -2.6 -2.85 -2.35 -2.8 -2.2 -2.75 -2.0 -2.65 -1.9 -2.6 -2.0 -2.6 -2.05 -2.55 -2.1 -2.55 -2.15 -2.55 -2.45 -2.7 -2.85 -2.8 -3.25 -2.8 -3.55 -2.8 -3.95 -2.75 -4.0 -2.6 -4.05 -2.25 -3.4" fill="#f6d9ff" fill-rule="evenodd" stroke="none"/>
      <path d="M0.3 -9.35 Q0.35 -9.25 0.4 -9.0 L0.5 -8.6 Q0.65 -8.4 0.7 -8.25 L0.75 -8.25 0.75 -8.15 0.95 -8.35 0.95 -8.45 1.0 -8.5 Q1.05 -8.5 1.15 -8.5 1.4 -8.5 1.55 -8.2 1.65 -7.95 1.75 -7.5 1.8 -7.2 1.85 -6.65 L1.95 -6.1 1.95 -6.0 Q2.0 -5.95 2.0 -5.85 2.0 -5.7 1.9 -5.55 1.8 -5.4 1.65 -5.4 0.5 -6.8 0.5 -6.85 L-0.95 -8.5 -2.2 -9.8 -2.3 -10.15 Q-2.45 -9.85 -2.75 -9.95 L-2.8 -9.9 Q-2.8 -9.85 -2.8 -9.75 -2.8 -9.7 -2.7 -9.5 L-2.3 -6.65 -1.3 -1.45 Q-1.7 -0.5 -2.5 -0.5 L-3.95 -1.9 -4.75 -3.6 -4.9 -0.75 Q-5.25 -1.0 -5.85 -1.65 L-6.15 -1.95 Q-6.05 -1.75 -6.05 -1.7 -6.05 -1.6 -6.2 -1.4 L-5.85 -0.3 -5.5 1.55 -5.55 1.65 Q-5.7 1.7 -6.2 1.7 -6.75 1.7 -7.25 1.6 -8.05 1.45 -8.3 1.05 L-8.3 0.95 -7.9 1.05 -7.7 1.0 -7.4 0.95 Q-7.5 0.8 -7.9 0.65 -8.05 0.55 -8.65 0.35 -9.15 0.15 -9.35 0.05 -9.65 -0.1 -9.65 -0.25 -9.65 -0.35 -9.65 -0.4 L-9.65 -0.5 Q-9.65 -0.7 -9.45 -0.75 -9.3 -0.8 -9.15 -0.8 -9.05 -0.85 -8.95 -0.85 -8.85 -0.85 -8.6 -0.8 L-8.5 -0.75 -8.35 -0.8 Q-7.8 -0.9 -7.3 -1.1 -7.3 -1.15 -7.5 -1.35 -7.7 -1.5 -7.7 -1.6 -7.7 -1.7 -7.6 -1.75 -7.5 -1.85 -7.25 -1.85 -7.1 -1.85 -6.8 -1.7 L-6.7 -1.65 -6.3 -1.75 Q-6.3 -1.8 -6.5 -2.1 -6.7 -2.4 -6.7 -2.5 L-6.7 -2.55 -7.1 -2.85 -7.55 -3.2 Q-8.1 -3.65 -8.25 -4.05 L-8.25 -4.15 -7.7 -4.15 -7.75 -4.3 Q-7.8 -4.35 -7.8 -4.45 -7.8 -4.6 -7.7 -4.65 -7.65 -4.7 -7.45 -4.7 -7.55 -5.1 -7.75 -5.35 -7.85 -5.5 -8.05 -5.7 -8.25 -5.9 -8.35 -6.05 -8.45 -6.25 -8.45 -6.5 L-8.45 -6.75 Q-8.45 -6.9 -8.4 -7.05 -8.25 -7.4 -7.75 -7.55 L-7.4 -7.55 -7.35 -7.5 -7.35 -7.4 Q-7.35 -7.35 -7.5 -7.2 -7.6 -7.05 -7.6 -7.0 -7.6 -6.7 -7.5 -6.45 -7.4 -6.1 -7.15 -5.95 L-7.05 -6.55 Q-7.05 -6.65 -7.1 -7.05 -7.1 -7.1 -6.95 -7.55 L-6.95 -7.6 -6.9 -8.0 Q-6.9 -8.2 -6.9 -8.5 L-6.95 -8.9 Q-6.95 -9.05 -6.9 -9.15 L-6.95 -9.5 Q-6.8 -9.5 -6.6 -9.4 L-6.5 -9.35 Q-6.3 -9.3 -6.05 -8.95 -5.8 -8.65 -5.6 -8.3 L-5.4 -8.1 Q-5.15 -7.8 -5.0 -7.8 -4.9 -7.8 -4.65 -7.1 L-4.55 -6.75 Q-4.35 -6.45 -4.3 -6.05 L-4.25 -6.1 Q-4.25 -6.15 -4.2 -6.2 L-4.1 -6.1 Q-3.95 -6.1 -3.75 -5.75 L-3.6 -5.6 Q-3.65 -5.8 -3.7 -6.0 -3.75 -6.1 -3.8 -6.3 -3.9 -6.55 -3.9 -6.9 -3.95 -7.15 -3.95 -7.25 L-3.95 -7.3 Q-4.05 -7.8 -4.15 -8.1 -4.1 -8.1 -4.0 -8.15 -4.0 -8.0 -3.95 -7.85 L-3.95 -7.8 Q-3.95 -7.65 -3.9 -7.4 -3.85 -7.45 -3.75 -7.45 -3.65 -7.45 -3.6 -7.35 -3.55 -7.3 -3.6 -7.2 -3.35 -7.25 -3.25 -7.35 -3.25 -7.4 -3.25 -7.6 -3.25 -7.75 -3.35 -8.0 -3.5 -8.3 -3.5 -8.5 -3.5 -8.6 -3.45 -8.85 -3.35 -9.05 -3.35 -9.15 L-3.45 -9.35 -3.6 -9.55 -3.65 -9.55 Q-3.75 -9.25 -3.8 -9.1 -3.85 -8.75 -3.7 -8.5 L-3.75 -8.4 -3.85 -8.4 Q-3.9 -8.45 -4.0 -8.75 -4.15 -9.1 -4.15 -9.15 -4.15 -9.55 -4.1 -9.9 -4.05 -10.55 -3.8 -10.65 -3.9 -10.75 -4.0 -10.95 -4.05 -11.1 -4.05 -11.2 -4.05 -11.35 -3.95 -11.55 -3.8 -11.75 -3.6 -11.75 -3.5 -11.75 -3.3 -11.6 L-3.05 -11.4 Q-2.95 -11.6 -2.85 -11.95 L-2.7 -12.55 Q-2.6 -12.85 -2.5 -13.0 -2.45 -13.1 -2.4 -13.05 -2.25 -13.2 -2.05 -13.2 -1.65 -12.7 -1.45 -12.25 -1.4 -12.0 -1.35 -11.6 -1.35 -11.35 -1.25 -11.3 -1.15 -11.2 -0.75 -11.2 -0.5 -11.2 -0.3 -10.8 -0.2 -10.7 -0.15 -10.55 L-0.1 -10.4 Q-0.1 -10.35 -0.15 -10.2 -0.2 -10.05 -0.2 -9.75 L-0.25 -9.75 Q-0.25 -9.7 -0.3 -9.7 -0.35 -9.7 -0.4 -9.75 L-0.45 -9.7 -0.25 -8.95 Q-0.2 -9.0 -0.15 -9.15 -0.1 -9.35 -0.1 -9.45 -0.1 -9.5 0.0 -9.5 0.2 -9.5 0.3 -9.35 M0.9 -6.9 L1.55 -6.2 Q1.7 -6.1 1.85 -6.1 1.8 -6.25 1.75 -6.45 L1.65 -7.1 1.65 -7.2 1.6 -7.05 0.9 -6.9 M1.2 -4.35 Q1.35 -4.15 1.4 -3.95 L1.45 -3.9 Q1.55 -3.9 1.6 -3.9 1.7 -3.9 1.7 -3.85 1.75 -3.75 1.8 -3.75 L1.85 -3.75 1.85 -3.8 Q1.9 -3.85 1.95 -3.85 2.0 -3.95 2.1 -3.95 2.35 -3.95 2.5 -3.65 2.6 -3.25 2.7 -3.2 2.85 -3.0 3.05 -2.95 3.15 -2.9 3.3 -2.85 3.45 -2.9 3.5 -2.8 3.55 -2.75 3.6 -2.7 3.6 -2.65 3.6 -2.55 3.6 -2.45 3.5 -2.4 3.45 -2.3 3.3 -2.3 L3.3 -2.25 Q3.25 -2.2 3.15 -2.2 L3.0 -2.2 2.65 -2.1 Q2.65 -2.05 2.6 -1.95 L2.6 -1.75 Q2.55 -1.55 2.4 -1.5 L2.2 -1.75 2.3 -2.2 2.2 -2.2 Q1.9 -1.8 1.55 -1.75 1.6 -1.55 1.5 -1.4 L0.4 -1.4 -0.25 -2.05 -0.45 -3.1 -0.4 -3.1 Q-0.35 -3.3 -0.25 -3.55 L-0.2 -3.75 -0.2 -3.85 -0.15 -3.85 Q-0.05 -3.95 0.0 -3.95 0.15 -3.95 0.2 -3.9 0.25 -3.9 0.25 -3.85 0.25 -3.75 0.25 -3.7 0.25 -3.65 0.35 -3.55 0.5 -4.15 0.7 -4.45 L0.7 -4.65 0.8 -4.65 Q0.95 -4.95 1.05 -4.9 1.2 -4.85 1.2 -4.35 M-2.2 -12.8 L-2.1 -12.8 -2.2 -12.95 -2.25 -12.85 -2.2 -12.8 M-5.35 -7.55 L-5.35 -7.55 M-3.4 -6.85 L-3.4 -6.85 M-2.95 -7.55 L-2.95 -7.55 M-6.8 -9.35 L-6.8 -9.35 M-7.95 -7.05 L-7.95 -7.2 -8.1 -6.95 Q-8.0 -7.0 -7.95 -7.05 M-2.15 -4.15 L-2.2 -4.1 -2.15 -4.05 Q-2.1 -4.0 -2.05 -3.95 L-2.15 -4.15 M-3.5 -5.15 L-3.5 -5.15 M-3.25 -4.45 L-3.25 -4.45 M-3.0 -3.45 Q-3.0 -3.4 -3.15 -3.15 -3.3 -2.85 -3.3 -2.75 -3.3 -2.35 -3.2 -2.1 -3.0 -1.65 -2.4 -1.65 -2.05 -1.65 -1.95 -2.1 -1.85 -2.3 -1.9 -2.55 -1.9 -2.9 -2.25 -3.45 -2.4 -3.75 -2.75 -4.2 -2.8 -4.2 -2.95 -4.1 -3.05 -4.05 -3.2 -4.0 -3.15 -3.9 -3.1 -3.75 -3.0 -3.55 -3.0 -3.45 M-3.35 -3.6 L-3.3 -3.6 -3.35 -3.65 -3.35 -3.6 M-1.75 -3.35 L-1.75 -3.25 Q-1.6 -2.65 -1.6 -2.25 -1.6 -2.1 -1.6 -1.95 -1.55 -2.1 -1.55 -2.2 L-1.75 -3.35" fill="#c867e6" fill-rule="evenodd" stroke="none"/>
      <path d="M0.55 -7.15 L0.65 -7.1 Q0.75 -7.2 0.8 -7.45 0.95 -7.6 1.2 -7.6 1.5 -7.6 1.7 -6.8 1.75 -6.55 1.8 -6.2 1.9 -5.8 1.9 -5.75 L1.85 -5.75 1.8 -5.85 1.8 -5.65 1.75 -5.65 1.75 -5.6 1.7 -5.6 Q1.7 -5.65 1.65 -5.75 1.6 -5.9 1.5 -6.0 1.25 -6.4 1.0 -6.4 0.8 -6.4 0.7 -6.05 L0.65 -5.8 Q0.65 -5.7 0.6 -5.7 0.35 -5.7 -0.1 -6.1 -0.35 -6.3 -0.6 -6.55 -0.65 -6.5 -0.8 -6.2 -0.9 -5.9 -0.9 -5.8 -0.8 -4.7 -0.55 -3.65 -0.1 -1.6 0.5 -1.6 0.75 -1.6 0.9 -1.8 0.95 -1.95 0.95 -2.15 1.0 -2.2 1.1 -2.2 1.2 -2.2 1.3 -2.1 1.3 -2.05 1.35 -1.95 1.4 -1.8 1.4 -1.75 L1.45 -1.7 Q1.5 -1.7 1.5 -1.65 L1.6 -1.7 1.6 -1.75 1.65 -1.9 Q1.6 -2.2 1.8 -2.45 1.85 -2.65 1.95 -2.8 2.35 -3.35 2.8 -2.7 2.9 -2.65 2.95 -2.5 L3.0 -2.4 Q3.0 -2.35 2.95 -2.35 L2.95 -2.25 Q2.95 -2.15 2.95 -2.1 L2.9 -2.0 Q2.85 -1.95 2.8 -1.95 L2.75 -2.1 Q2.75 -2.15 2.65 -2.15 L2.45 -2.15 Q2.4 -2.15 2.35 -2.1 L2.35 -2.05 Q2.3 -2.0 2.3 -1.9 2.3 -1.8 2.4 -1.55 2.5 -1.3 2.5 -1.15 2.5 -0.8 2.25 -0.6 L2.05 -0.45 Q1.95 -0.35 1.95 -0.2 L2.15 0.15 Q2.35 0.5 2.35 0.55 2.35 0.65 2.3 0.8 2.25 0.9 2.25 1.0 L2.5 1.0 2.8 1.05 2.8 1.15 Q2.8 1.3 2.4 1.4 L2.4 1.5 2.25 1.5 2.0 1.55 1.95 1.55 Q1.9 1.55 1.9 1.45 1.9 1.35 2.0 1.35 L2.15 1.3 1.85 1.3 0.55 1.35 0.2 1.4 Q-0.1 1.5 -0.55 1.55 L0.65 1.85 0.95 1.9 0.8 1.9 1.05 1.95 Q0.95 2.0 0.75 2.0 0.6 2.0 0.25 1.9 L-0.2 1.9 -0.15 1.95 0.45 1.95 Q0.65 2.0 0.7 2.0 L0.2 2.05 -0.25 2.0 Q-2.0 2.05 -2.05 2.05 -2.7 2.05 -2.7 2.0 L-5.4 2.0 -6.0 1.95 Q-6.0 1.9 -6.05 1.9 -6.1 1.85 -6.1 1.75 -6.1 1.65 -6.0 1.55 -5.95 1.5 -5.85 1.45 -5.75 1.4 -5.55 1.35 L-5.65 1.25 -5.8 1.05 Q-5.85 1.0 -5.95 1.0 -6.0 1.0 -6.4 1.0 -6.85 1.0 -6.95 0.75 -7.0 0.7 -7.0 0.6 L-6.95 0.45 Q-7.75 0.35 -8.05 0.1 -8.15 0.0 -8.2 -0.15 -8.25 -0.25 -8.3 -0.4 L-7.15 -0.3 -5.9 -0.15 Q-5.9 -0.2 -5.85 -0.3 -6.15 -0.55 -6.4 -0.95 -6.55 -1.25 -6.95 -2.0 -6.95 -2.05 -6.9 -2.05 -6.8 -2.1 -6.7 -2.1 L-6.05 -1.65 Q-5.35 -1.15 -5.1 -1.1 -4.95 -1.35 -4.95 -1.4 -4.95 -1.45 -5.2 -1.75 -5.35 -1.95 -5.45 -2.05 -6.25 -2.2 -6.6 -2.8 -6.8 -3.2 -6.8 -3.8 -6.8 -3.9 -6.7 -4.15 -6.65 -4.45 -6.65 -4.55 -6.65 -4.65 -6.75 -4.8 -6.8 -4.9 -6.9 -5.15 -7.15 -5.6 -7.15 -5.95 -7.15 -6.7 -6.95 -7.2 -6.65 -8.1 -5.95 -8.0 -5.95 -7.95 -5.95 -7.75 -6.0 -7.55 -6.0 -7.45 L-5.95 -7.35 -5.9 -7.3 Q-5.85 -7.2 -5.6 -7.15 L-5.55 -7.1 Q-5.25 -7.1 -5.15 -6.95 -5.0 -6.85 -5.0 -6.75 -5.0 -6.7 -5.05 -6.65 -5.05 -6.5 -5.1 -6.35 L-5.1 -6.2 Q-5.1 -6.05 -5.05 -5.9 -4.95 -5.7 -4.9 -5.5 L-4.85 -5.5 Q-4.6 -5.6 -4.3 -5.55 -4.15 -5.5 -3.95 -5.45 -3.65 -5.35 -3.55 -5.25 -3.5 -5.2 -3.45 -5.1 -3.3 -4.9 -3.15 -4.7 -2.95 -4.4 -2.95 -4.25 L-2.95 -4.15 -3.05 -4.1 Q-3.1 -4.15 -3.15 -4.25 L-3.25 -4.4 Q-3.4 -4.6 -3.8 -4.6 -4.2 -4.6 -4.4 -4.05 -4.5 -3.9 -4.55 -3.7 L-4.55 -3.5 Q-4.55 -3.2 -4.45 -3.1 -4.4 -3.0 -4.2 -2.9 -3.95 -2.85 -3.85 -2.7 -3.65 -2.5 -3.55 -2.1 L-3.45 -1.75 Q-3.35 -1.5 -3.25 -1.35 -2.9 -0.9 -2.15 -0.9 -1.95 -0.9 -1.75 -1.0 L-1.8 -1.05 Q-1.65 -1.3 -1.6 -1.6 -1.55 -1.8 -1.55 -2.15 -1.55 -2.35 -1.7 -2.95 -1.9 -3.55 -2.15 -4.1 -2.4 -4.75 -2.65 -5.1 -3.0 -5.45 -3.2 -5.35 -3.4 -5.4 -3.45 -5.5 -3.45 -5.55 -3.45 -5.75 -3.45 -6.15 -3.35 -6.45 -3.25 -6.6 -3.1 -6.75 L-2.85 -6.95 Q-2.75 -7.05 -2.75 -7.25 -2.75 -7.3 -2.85 -7.95 -2.95 -8.65 -2.95 -8.85 -2.95 -9.45 -2.7 -9.95 -2.45 -10.45 -1.95 -10.85 -2.0 -10.7 -2.05 -10.5 -2.1 -10.3 -2.1 -10.2 -2.1 -9.9 -2.1 -9.85 -2.05 -9.6 -1.85 -9.55 -1.65 -9.6 -1.65 -9.75 L-1.7 -9.85 Q-1.7 -9.95 -1.65 -10.0 L-1.65 -10.05 -1.6 -10.1 -1.55 -10.05 Q-1.55 -10.0 -1.55 -9.85 -1.55 -9.8 -1.55 -9.75 -1.25 -10.1 -0.95 -9.45 -0.85 -9.25 -0.65 -8.8 -0.5 -8.35 -0.45 -8.3 -0.3 -8.4 -0.25 -8.5 -0.25 -8.55 -0.2 -8.6 L-0.05 -8.6 Q0.15 -8.6 0.3 -8.0 0.5 -7.3 0.55 -7.15 M1.1 -3.7 L1.2 -4.25 Q1.25 -4.4 1.45 -4.45 1.45 -4.4 1.4 -4.3 1.4 -4.2 1.4 -4.1 L1.5 -3.85 1.6 -3.55 Q1.6 -3.45 1.55 -3.35 L1.5 -3.2 1.4 -3.2 Q1.25 -3.25 1.25 -3.35 1.2 -3.55 1.1 -3.7 M1.35 -2.85 L1.35 -2.65 1.3 -2.6 1.2 -2.6 1.2 -2.85 Q1.2 -2.95 1.25 -3.0 L1.3 -3.0 Q1.35 -2.95 1.35 -2.85 M2.75 -2.25 L2.7 -2.2 2.85 -2.05 2.8 -2.3 2.75 -2.25 M-6.8 -5.9 Q-6.8 -6.25 -6.85 -6.35 -6.85 -6.15 -6.85 -6.0 L-6.85 -5.9 -6.8 -5.9 M-6.15 -2.5 L-6.1 -2.45 -6.0 -2.45 -6.1 -2.55 Q-6.15 -2.6 -6.2 -2.6 L-6.2 -2.5 -6.15 -2.5 M-3.5 -4.8 Q-3.4 -4.75 -3.3 -4.7 -3.4 -4.75 -3.5 -4.85 L-3.5 -4.8" fill="#f6d9ff" fill-rule="evenodd" stroke="none"/>
    </g>
    <g id="shape2" transform="matrix(1.0, 0.0, 0.0, 1.0, 12.3, 15.8)">
      <path d="M0.25 -3.9 Q0.25 -3.95 0.25 -4.2 L0.35 -4.25 0.55 -4.25 Q0.8 -4.25 1.15 -2.35 L1.25 -1.9 Q1.65 -0.4 1.65 0.05 L1.7 0.25 Q1.65 0.45 1.65 0.55 1.55 0.9 1.2 0.9 L-5.85 1.7 Q-6.2 1.7 -6.5 1.4 -6.55 1.3 -6.6 1.2 -6.65 1.1 -6.65 1.15 -6.65 0.9 -6.6 0.65 -6.55 0.4 -6.45 0.35 L-6.45 0.25 -6.6 -0.3 Q-6.7 -0.6 -6.75 -0.75 L-6.75 -1.25 -6.7 -1.25 Q-6.6 -1.3 -6.5 -1.3 -6.35 -1.3 -6.25 -1.2 L-6.0 -1.0 Q-5.65 -0.75 -5.2 -0.75 -4.85 -0.75 -4.8 -1.3 -4.8 -1.6 -4.9 -2.0 L-4.85 -2.0 Q-4.8 -2.05 -4.7 -2.05 -4.65 -2.05 -4.5 -1.95 L-4.2 -1.75 Q-3.8 -1.45 -3.6 -1.45 -3.45 -1.45 -3.4 -1.8 -3.4 -1.9 -3.4 -2.55 -3.35 -3.05 -3.3 -3.3 -3.2 -3.65 -2.95 -3.65 -2.75 -3.65 -2.55 -3.5 -2.4 -3.4 -2.2 -3.1 -1.95 -2.85 -1.85 -2.75 -1.65 -2.6 -1.5 -2.6 -1.3 -2.6 -1.2 -3.3 -1.2 -3.55 -1.2 -4.25 -0.95 -5.1 -0.55 -4.55 -0.4 -4.4 -0.2 -4.05 -0.05 -3.7 0.0 -3.65 0.2 -3.7 0.25 -3.9 M-4.5 -1.15 Q-4.45 -0.8 -4.35 -0.5 L-3.6 0.15 Q-3.45 0.1 -3.45 -0.05 L-3.55 -0.2 -3.75 -0.35 -3.4 -0.7 Q-3.6 -0.8 -3.7 -1.0 L-3.8 -1.2 Q-3.8 -1.3 -3.85 -1.35 -4.15 -1.55 -4.35 -1.45 -4.5 -1.35 -4.5 -1.15 M-6.5 -0.5 Q-6.5 -0.35 -6.3 -0.1 L-6.0 0.15 -6.0 -0.35 Q-6.35 -0.55 -6.5 -0.5 M0.65 -2.75 Q0.55 -3.1 0.45 -3.25 0.35 -3.25 0.25 -2.9 0.15 -2.6 0.15 -2.45 L0.05 -2.55 Q-0.05 -2.6 -0.15 -2.6 L-0.3 -2.55 Q-0.2 -1.95 -0.55 -1.15 L-1.5 -1.9 Q-2.35 -2.55 -2.4 -2.55 -2.65 -2.55 -2.7 -2.25 -2.7 -2.2 -2.7 -2.05 L-2.7 -1.85 Q-2.65 -1.5 -2.6 -1.2 L-1.75 -0.45 Q-1.5 -0.25 -1.3 -0.25 L0.0 -0.25 Q0.15 -0.45 0.3 -0.65 L0.5 -0.4 Q0.55 -0.3 0.6 -0.05 L1.0 0.3 Q1.0 0.25 1.0 0.1 L0.9 -0.6 Q0.85 -1.25 0.85 -1.35 0.85 -1.4 0.8 -1.8 0.75 -2.15 0.75 -2.25 0.75 -2.4 0.65 -2.75" fill="#a45cba" fill-rule="evenodd" stroke="none"/>
      <path d="M0.65 -2.75 Q0.75 -2.4 0.75 -2.25 0.75 -2.15 0.8 -1.8 0.85 -1.4 0.85 -1.35 0.85 -1.25 0.9 -0.6 L1.0 0.1 Q1.0 0.25 1.0 0.3 L0.6 -0.05 Q0.55 -0.3 0.5 -0.4 L0.3 -0.65 Q0.15 -0.45 0.0 -0.25 L-1.3 -0.25 Q-1.5 -0.25 -1.75 -0.45 L-2.6 -1.2 Q-2.65 -1.5 -2.7 -1.85 L-2.7 -2.05 Q-2.7 -2.2 -2.7 -2.25 -2.65 -2.55 -2.4 -2.55 -2.35 -2.55 -1.5 -1.9 L-0.55 -1.15 Q-0.2 -1.95 -0.3 -2.55 L-0.15 -2.6 Q-0.05 -2.6 0.05 -2.55 L0.15 -2.45 Q0.15 -2.6 0.25 -2.9 0.35 -3.25 0.45 -3.25 0.55 -3.1 0.65 -2.75 M-6.5 -0.5 Q-6.35 -0.55 -6.0 -0.35 L-6.0 0.15 -6.3 -0.1 Q-6.5 -0.35 -6.5 -0.5 M-4.5 -1.15 Q-4.5 -1.35 -4.35 -1.45 -4.15 -1.55 -3.85 -1.35 -3.8 -1.3 -3.8 -1.2 L-3.7 -1.0 Q-3.6 -0.8 -3.4 -0.7 L-3.75 -0.35 -3.55 -0.2 -3.45 -0.05 Q-3.45 0.1 -3.6 0.15 L-4.35 -0.5 Q-4.45 -0.8 -4.5 -1.15" fill="#f6d9ff" fill-rule="evenodd" stroke="none"/>
      <path d="M0.85 -10.2 Q1.15 -10.2 1.55 -8.95 1.65 -8.5 1.75 -8.05 1.85 -7.65 1.85 -7.6 1.85 -7.45 1.85 -7.3 1.8 -7.1 1.75 -7.0 L1.8 -6.5 1.85 -6.1 Q1.8 -5.95 1.7 -5.75 L1.6 -5.75 Q1.65 -5.95 1.65 -6.1 1.65 -6.55 1.5 -6.9 1.3 -7.25 1.1 -7.4 0.85 -7.5 0.7 -7.3 0.65 -7.2 0.6 -7.05 L0.55 -7.05 Q0.4 -7.1 0.3 -7.1 0.2 -7.1 0.1 -7.15 0.05 -7.2 0.0 -7.25 -0.05 -7.35 -0.1 -7.4 -0.2 -7.45 -0.35 -7.45 -0.5 -7.45 -0.55 -7.35 L-0.5 -7.35 Q-0.2 -7.35 0.0 -7.2 0.25 -7.1 0.25 -6.85 0.25 -6.65 0.1 -6.45 -0.1 -6.2 -0.6 -6.2 -0.75 -6.2 -0.85 -6.2 L-1.0 -5.95 -1.1 -5.7 -1.1 -5.65 Q-1.1 -5.6 -1.15 -5.4 -1.25 -5.15 -1.25 -5.1 L-1.0 -4.5 -0.8 -4.05 Q-0.7 -3.85 -0.45 -3.55 -0.2 -3.25 -0.1 -3.05 0.05 -2.75 0.05 -2.35 0.05 -2.0 -0.05 -1.75 L0.0 -1.7 Q0.25 -1.35 0.55 -0.95 0.55 -1.1 0.6 -1.35 0.7 -1.7 0.95 -1.7 1.15 -1.7 1.25 -1.4 1.3 -1.15 1.3 -0.7 L1.35 0.0 Q1.4 0.3 1.5 0.3 L1.6 0.3 1.6 0.4 Q1.55 0.5 1.45 0.55 1.35 0.6 1.3 0.6 0.95 0.6 0.95 0.0 L-3.9 1.05 -6.95 1.95 -7.1 1.95 Q-7.1 1.9 -7.1 1.75 -7.1 1.55 -6.85 1.4 -6.6 1.25 -6.45 1.2 L-6.45 1.1 Q-6.8 1.05 -7.2 0.75 L-7.35 0.65 Q-8.35 0.35 -10.35 0.0 L-11.7 -0.25 Q-12.3 -0.35 -12.3 -0.4 -12.3 -0.45 -12.15 -0.5 L-11.75 -0.75 Q-11.85 -0.85 -11.9 -1.0 L-11.95 -1.05 Q-11.95 -1.25 -11.55 -1.3 -11.0 -1.4 -9.8 -1.1 L-9.4 -0.85 Q-9.05 -0.65 -8.9 -0.5 -8.7 -0.35 -8.4 -0.2 L-7.95 0.05 Q-7.75 0.15 -7.55 0.3 -7.5 0.15 -7.45 0.1 -7.35 0.05 -7.1 0.0 L-6.6 -0.1 Q-6.35 -0.15 -6.15 -0.2 L-6.1 -0.3 -6.15 -0.4 Q-6.4 -0.7 -6.4 -0.8 -6.4 -0.85 -6.35 -0.85 -6.25 -0.95 -5.95 -1.0 L-5.9 -1.05 Q-5.85 -1.1 -5.75 -1.1 L-5.4 -0.95 -4.8 -0.8 Q-4.7 -0.75 -4.6 -0.7 L-4.5 -0.6 -4.5 -0.65 Q-4.45 -0.7 -4.35 -0.7 -4.15 -0.7 -4.05 -0.55 L-4.05 -0.5 -3.9 -0.5 -3.85 -0.6 -3.6 -1.05 -3.5 -1.2 Q-3.5 -1.45 -3.5 -1.75 L-3.3 -1.8 Q-3.0 -1.8 -2.8 -1.65 L-2.7 -1.55 Q-2.5 -1.5 -2.35 -1.15 -2.15 -0.95 -2.0 -0.9 -1.9 -0.8 -1.75 -0.75 L-1.5 -0.75 -1.1 -0.8 Q-0.95 -0.9 -0.9 -1.15 -1.2 -1.25 -1.35 -1.75 -1.45 -2.05 -1.5 -2.4 -1.5 -2.6 -1.3 -2.95 L-1.2 -3.15 Q-1.3 -3.35 -1.45 -3.8 -1.7 -4.05 -2.0 -4.3 -2.7 -5.05 -2.7 -5.45 -2.7 -5.65 -2.6 -5.95 L-2.55 -6.1 -2.95 -6.45 -3.1 -6.6 Q-3.15 -6.3 -3.35 -6.3 -3.45 -6.3 -3.7 -6.75 L-4.05 -7.25 -4.15 -7.05 Q-4.2 -6.9 -4.5 -6.9 -4.75 -6.9 -5.05 -7.65 -5.1 -7.9 -5.2 -8.15 -5.25 -8.35 -5.25 -8.4 -5.25 -8.45 -4.8 -8.9 -4.35 -9.35 -4.2 -9.35 -3.95 -9.35 -3.85 -9.25 -4.25 -10.4 -4.25 -10.8 -4.25 -11.3 -4.15 -11.85 -4.1 -12.45 -4.1 -13.2 L-4.0 -13.25 Q-3.95 -13.3 -3.85 -13.4 -3.65 -13.8 -3.6 -14.55 -3.55 -14.6 -3.6 -14.9 -3.6 -15.2 -3.55 -15.4 -3.45 -15.95 -3.0 -15.75 -2.65 -15.6 -2.6 -15.15 -2.6 -15.05 -2.55 -14.75 -2.55 -14.5 -2.5 -14.35 -2.45 -14.1 -2.4 -13.65 -2.4 -13.05 -2.35 -12.9 L-2.35 -12.85 -2.25 -12.9 Q-2.1 -13.0 -2.05 -13.0 -1.35 -13.0 -1.1 -12.4 -0.95 -12.1 -0.95 -11.7 -0.5 -11.95 -0.3 -11.55 -0.2 -11.4 -0.15 -10.95 -0.1 -10.8 0.05 -10.45 0.25 -10.1 0.3 -10.0 L0.55 -10.1 Q0.75 -10.2 0.85 -10.2 M0.95 -9.2 L0.4 -9.4 Q-0.1 -9.4 -0.35 -10.1 L-0.7 -11.0 Q-0.85 -10.9 -1.1 -10.9 -1.35 -10.9 -1.45 -11.1 L-2.25 -12.2 Q-2.6 -12.2 -2.85 -12.75 -2.9 -12.95 -3.1 -13.6 L-3.1 -13.2 Q-3.15 -12.85 -3.5 -12.8 L-3.6 -12.05 Q-3.75 -11.65 -3.75 -11.45 L-3.65 -10.5 -3.6 -10.15 0.95 -9.2 M2.9 -3.55 L2.95 -3.3 Q2.95 -3.15 2.6 -2.7 2.2 -2.2 2.05 -2.2 1.7 -2.2 1.55 -2.75 1.45 -3.15 1.45 -3.4 1.45 -3.75 1.55 -4.1 1.75 -4.65 2.2 -4.65 2.5 -4.65 2.75 -4.0 2.85 -3.8 2.9 -3.55 M2.0 -2.05 L2.0 -1.95 Q2.0 -1.9 1.95 -1.8 L1.8 -1.7 Q1.7 -1.75 1.65 -1.8 L1.65 -1.9 Q1.75 -1.95 1.75 -2.0 1.85 -2.0 1.95 -2.0 L2.0 -2.05 M-11.35 -0.9 L-11.3 -0.8 Q-11.3 -0.75 -11.4 -0.6 L-10.4 -0.9 -11.35 -0.9 M-4.85 -8.5 L-4.55 -7.5 -4.25 -7.75 Q-4.1 -7.95 -4.1 -8.2 L-4.85 -8.5 M-7.85 -12.05 Q-7.75 -11.9 -7.7 -11.7 -7.45 -11.5 -7.3 -11.2 L-7.25 -11.1 Q-6.75 -10.75 -6.3 -10.25 -5.65 -9.4 -5.6 -8.8 -5.65 -8.75 -5.65 -8.7 L-5.75 -8.85 Q-5.75 -8.75 -5.75 -8.7 L-5.85 -8.4 -5.8 -8.2 Q-5.65 -8.0 -5.65 -7.95 -5.65 -7.85 -5.7 -7.75 L-5.7 -7.65 -5.65 -7.5 -5.6 -7.4 -5.6 -7.35 Q-5.55 -7.4 -5.55 -7.5 -5.3 -7.45 -5.0 -7.15 -4.7 -6.9 -4.4 -6.55 -4.15 -6.2 -4.0 -5.85 -3.8 -5.5 -3.8 -5.3 -3.8 -5.2 -3.85 -5.1 -3.9 -5.0 -4.0 -5.0 -4.05 -5.0 -4.35 -5.3 -4.7 -5.6 -4.75 -5.75 -4.8 -5.55 -4.95 -5.4 -5.1 -5.3 -5.3 -5.3 -5.5 -5.3 -5.8 -6.1 -5.95 -6.5 -6.05 -6.9 -6.05 -7.05 -6.0 -7.05 L-5.9 -7.1 -5.9 -7.15 Q-6.0 -7.25 -6.15 -7.4 L-6.45 -7.85 -6.5 -7.75 -6.4 -7.45 Q-6.3 -7.25 -6.3 -7.05 -6.3 -6.95 -6.4 -6.75 L-6.45 -6.65 -6.4 -6.5 -6.45 -6.4 Q-6.45 -6.3 -6.4 -6.2 -6.35 -6.15 -6.2 -6.05 -6.05 -5.95 -6.0 -5.9 -5.9 -5.75 -5.9 -5.5 -5.9 -5.4 -5.95 -5.3 L-6.05 -5.1 -6.5 -3.9 -6.2 -3.45 Q-5.9 -3.15 -5.45 -2.95 -5.4 -3.05 -5.35 -3.3 -5.35 -3.65 -5.3 -3.8 -5.1 -4.4 -4.35 -4.4 -3.8 -4.4 -3.45 -3.25 -3.3 -2.9 -3.25 -2.5 -3.2 -2.2 -3.2 -2.15 -3.2 -2.05 -3.25 -1.95 -3.3 -1.9 -3.45 -1.9 L-4.05 -2.5 -4.8 -2.95 -5.35 -2.4 Q-6.0 -2.4 -6.6 -3.0 -6.8 -3.2 -6.9 -3.45 -7.05 -3.65 -7.05 -3.7 -7.05 -3.85 -6.9 -4.25 -6.75 -4.65 -6.6 -5.0 -6.45 -5.2 -6.4 -5.3 L-7.05 -5.95 Q-6.9 -5.45 -6.9 -5.35 L-6.9 -5.25 -7.0 -5.2 Q-7.05 -5.2 -7.15 -5.2 -7.45 -5.2 -7.95 -5.8 L-8.3 -6.3 Q-8.5 -6.6 -8.65 -6.7 -8.75 -6.85 -9.05 -7.0 L-9.45 -7.25 Q-9.95 -7.6 -9.95 -7.95 -9.95 -8.2 -9.85 -8.3 -9.75 -8.35 -9.55 -8.4 -9.35 -8.45 -9.3 -8.55 -9.15 -8.65 -9.15 -8.95 L-9.15 -9.05 Q-9.2 -9.3 -9.2 -9.4 L-9.45 -9.85 -9.45 -10.4 -9.4 -10.45 -9.3 -10.45 Q-9.2 -10.45 -9.0 -10.25 -8.8 -10.0 -8.75 -10.0 -8.7 -10.45 -8.7 -11.0 -8.7 -11.3 -8.7 -11.75 L-8.7 -12.1 -8.65 -12.1 Q-8.65 -12.2 -8.6 -12.1 -8.6 -12.3 -8.45 -12.35 -8.35 -12.4 -8.15 -12.35 -8.0 -12.25 -7.85 -12.05 M-7.85 -10.5 L-7.85 -10.5 M-8.45 -10.1 L-8.45 -10.1 M-8.15 -6.8 L-8.25 -6.75 Q-7.55 -6.2 -7.35 -5.9 L-8.15 -6.8 M-6.6 -7.25 L-6.55 -7.05 Q-6.5 -7.2 -6.55 -7.25 -6.55 -7.3 -6.6 -7.4 L-6.6 -7.25 M-7.85 -3.7 Q-8.1 -3.7 -8.2 -4.0 -8.2 -4.1 -8.1 -4.15 -8.05 -4.2 -7.95 -4.2 -7.75 -4.2 -7.65 -3.85 -7.7 -3.7 -7.85 -3.7 M-10.6 -4.5 Q-10.45 -4.45 -10.15 -4.3 L-9.6 -4.05 -9.6 -4.35 -9.55 -4.4 Q-9.5 -4.45 -9.4 -4.45 -9.15 -4.45 -7.9 -3.35 -6.65 -2.3 -6.45 -1.9 L-6.45 -1.85 Q-6.55 -1.9 -7.25 -2.15 -7.95 -2.45 -8.15 -2.45 L-8.3 -2.3 Q-8.4 -2.2 -8.5 -2.2 -9.65 -2.2 -10.4 -3.2 -10.65 -3.55 -10.8 -3.95 -10.95 -4.25 -10.95 -4.3 -10.95 -4.5 -10.85 -4.55 -10.75 -4.55 -10.6 -4.5 M-10.05 -3.9 Q-10.35 -4.0 -10.5 -4.15 -10.3 -3.75 -9.95 -3.45 L-10.05 -3.9 M-7.65 -0.15 Q-7.75 -0.1 -7.85 -0.1 -8.05 -0.1 -8.1 -0.2 -8.1 -0.3 -8.1 -0.35 -8.1 -0.5 -8.0 -0.6 -7.9 -0.7 -7.8 -0.65 -7.65 -0.65 -7.6 -0.55 -7.5 -0.45 -7.5 -0.35 -7.5 -0.2 -7.65 -0.15 M-5.85 -0.75 Q-5.95 -0.7 -6.05 -0.7 L-5.95 -0.6 -5.85 -0.75 M-6.5 0.5 L-6.7 0.55 -6.55 0.6 -6.5 0.5" fill="#c867e6" fill-rule="evenodd" stroke="none"/>
      <path d="M0.3 -9.45 Q1.05 -11.35 1.55 -7.7 L1.6 -7.7 1.55 -7.55 1.5 -7.55 1.45 -7.8 Q1.4 -7.85 1.35 -7.9 1.3 -8.0 1.25 -8.2 1.2 -8.4 1.1 -8.5 1.0 -8.65 0.8 -8.75 0.7 -8.7 0.65 -8.6 L0.65 -8.55 Q0.6 -8.3 0.6 -8.15 0.6 -8.1 0.55 -8.1 L0.55 -7.95 Q0.5 -7.95 0.4 -7.95 0.35 -7.95 -0.05 -8.35 -0.4 -8.75 -0.55 -8.75 -1.3 -8.75 -1.5 -8.65 -1.55 -8.6 -1.6 -8.5 L-1.6 -8.3 Q-1.6 -8.25 -1.5 -8.05 -1.4 -7.85 -1.4 -7.8 -1.4 -7.75 -1.6 -7.35 L-1.7 -7.1 -1.65 -7.1 -1.75 -7.0 Q-1.75 -6.9 -1.75 -6.85 L-1.8 -6.8 Q-1.8 -6.35 -1.45 -5.2 -1.1 -4.05 -1.05 -3.8 L-1.1 -3.85 -0.6 -2.35 -0.65 -2.3 Q-1.0 -2.8 -1.25 -3.55 -1.5 -4.0 -1.6 -4.2 -1.8 -4.65 -1.9 -5.05 L-2.0 -5.45 Q-2.1 -5.75 -2.2 -5.9 -2.3 -6.05 -2.5 -6.05 L-2.65 -6.05 -2.7 -6.1 Q-2.7 -6.45 -3.1 -7.55 L-3.35 -8.3 Q-3.45 -8.6 -3.45 -8.7 -3.5 -8.95 -3.65 -9.25 -3.85 -9.8 -3.85 -10.0 -3.85 -10.2 -3.7 -10.3 -3.65 -10.35 -3.6 -10.35 L-3.6 -10.4 Q-3.65 -10.55 -3.7 -10.9 -3.75 -11.3 -3.75 -11.7 L-3.75 -12.3 Q-3.75 -12.75 -3.7 -13.0 -3.6 -13.5 -3.35 -13.1 L-3.25 -13.0 Q-3.2 -13.2 -3.15 -13.85 -3.1 -14.25 -3.0 -14.45 -2.95 -14.65 -2.95 -14.75 L-2.85 -14.75 -2.85 -14.3 -2.8 -14.0 -2.75 -13.4 Q-2.65 -12.55 -2.35 -12.15 -2.3 -12.25 -2.2 -12.45 -2.15 -12.6 -2.0 -12.6 -1.65 -12.6 -1.4 -11.85 L-1.25 -11.2 Q-1.15 -10.85 -1.05 -10.75 -1.0 -10.85 -0.8 -11.1 -0.6 -11.3 -0.55 -11.45 -0.3 -11.25 -0.15 -10.55 0.0 -10.05 0.0 -9.85 L0.0 -9.75 0.1 -9.65 Q0.15 -9.5 0.3 -9.45 M2.95 -3.55 Q3.0 -3.4 3.0 -3.3 3.0 -3.2 2.95 -3.1 2.9 -2.9 2.75 -2.85 L2.7 -2.95 2.6 -3.1 Q2.45 -3.25 2.3 -3.25 2.15 -3.25 2.0 -3.1 1.85 -2.9 1.75 -2.85 L1.7 -2.85 Q1.65 -3.05 1.65 -3.5 1.65 -3.7 1.8 -4.0 1.95 -4.3 2.1 -4.45 2.3 -4.6 2.4 -4.45 2.45 -4.35 2.45 -4.05 2.55 -3.95 2.6 -3.85 L2.65 -3.8 2.75 -3.8 Q2.85 -3.75 2.95 -3.55 M1.2 -3.8 Q1.15 -3.85 1.15 -3.9 1.15 -3.95 1.2 -4.0 1.25 -4.1 1.3 -4.15 L1.4 -4.05 1.4 -3.85 Q1.4 -3.8 1.3 -3.8 L1.2 -3.8 M1.05 -1.5 Q1.1 -1.35 1.15 -1.15 1.2 -1.0 1.2 -0.85 1.2 -0.75 1.15 -0.45 L1.1 -0.05 1.1 0.0 Q1.05 0.15 1.1 0.2 1.15 0.4 1.35 0.55 1.6 0.7 2.15 0.75 L2.2 0.85 Q2.4 0.85 2.55 0.9 2.75 1.0 2.85 1.1 2.7 1.35 2.5 1.4 2.25 1.5 2.1 1.55 2.05 1.55 2.05 1.5 2.0 1.5 2.0 1.4 2.0 1.3 2.0 1.25 L2.05 1.25 2.1 1.2 Q2.0 1.25 1.45 1.2 L0.75 1.2 Q0.15 1.2 -0.6 1.35 -0.95 1.45 -1.25 1.55 L-0.6 1.65 Q-0.2 1.75 0.05 1.95 0.2 2.0 0.25 2.0 L0.0 2.0 -0.05 2.05 -0.45 2.05 -1.1 2.15 Q-1.85 2.25 -2.4 2.05 L-4.05 2.05 Q-4.05 2.0 -4.4 2.0 L-5.15 2.05 -5.9 2.15 -6.9 2.1 -7.0 2.05 Q-7.05 2.05 -7.05 1.95 -7.05 1.8 -6.4 1.4 -5.85 1.1 -5.7 1.05 -5.75 0.95 -5.95 0.85 -6.1 0.75 -6.1 0.7 L-6.1 0.55 -5.8 0.55 Q-5.7 0.55 -5.45 0.6 -5.15 0.65 -4.95 0.7 L-5.25 0.15 Q-5.45 -0.2 -5.45 -0.25 -5.45 -0.35 -5.4 -0.4 -5.35 -0.5 -5.15 -0.5 -5.1 -0.5 -4.35 0.05 L-3.4 0.8 -3.15 0.65 -3.35 0.2 Q-3.6 -0.2 -3.6 -0.3 -3.6 -0.75 -3.3 -0.6 -3.1 -0.45 -2.9 -0.15 -2.75 0.05 -2.35 0.25 L-1.85 0.45 -1.85 0.4 Q-1.85 0.35 -1.85 0.25 -1.8 0.25 -1.7 0.25 -1.65 0.25 -1.35 0.25 -1.3 0.15 -1.35 0.0 -1.35 -0.25 -1.35 -0.3 -1.35 -0.45 -1.2 -0.5 -1.05 -0.55 -0.6 -0.5 -0.55 -1.0 -0.55 -1.35 -0.5 -1.4 -0.4 -1.4 -0.3 -1.4 -0.25 -1.2 L-0.1 -0.8 Q-0.05 -0.5 0.05 -0.4 0.2 -0.2 0.45 -0.2 0.55 -0.2 0.6 -0.4 0.7 -0.5 0.75 -0.8 0.85 -1.15 0.9 -1.25 0.95 -1.45 1.05 -1.5 M-11.7 -1.05 L-11.65 -1.05 -10.85 -1.0 Q-10.55 -0.95 -10.5 -0.95 L-9.85 -0.85 -9.6 -0.85 -9.45 -0.75 Q-9.25 -0.65 -9.1 -0.6 -9.1 -0.5 -9.15 -0.45 L-9.7 -0.4 -9.2 -0.15 Q-8.75 0.05 -8.6 0.1 L-8.6 0.15 -8.85 0.15 -9.85 -0.05 -10.95 -0.25 Q-11.65 -0.25 -11.8 -0.25 L-12.0 -0.3 Q-12.1 -0.35 -12.25 -0.4 L-11.8 -0.45 Q-11.6 -0.5 -11.3 -0.7 L-11.55 -0.8 Q-11.7 -0.9 -11.8 -0.95 -11.8 -1.05 -11.8 -1.1 L-11.7 -1.05 M-2.95 -12.65 L-2.95 -12.45 -2.9 -12.45 -2.9 -12.6 Q-2.9 -12.7 -2.95 -12.7 L-2.95 -12.65 M-3.0 -13.4 L-3.0 -12.95 Q-3.0 -13.05 -3.0 -13.15 -3.0 -13.3 -3.0 -13.4 M-3.65 -12.5 L-3.65 -12.8 Q-3.7 -12.5 -3.7 -12.1 L-3.65 -12.5 M-3.7 -8.55 L-3.5 -7.6 -3.45 -7.35 Q-3.4 -7.2 -3.35 -7.1 -3.3 -6.9 -3.25 -6.85 -3.35 -6.9 -3.4 -7.0 L-3.4 -6.95 Q-3.5 -7.0 -3.75 -7.35 -4.05 -7.7 -4.2 -7.85 -4.3 -7.75 -4.35 -7.5 L-4.4 -7.05 -4.5 -7.05 -4.5 -7.2 Q-4.8 -7.3 -4.95 -7.6 -5.1 -7.85 -5.1 -8.1 -5.1 -8.25 -5.05 -8.45 -4.95 -8.7 -4.85 -8.7 -4.6 -8.7 -4.55 -8.6 L-4.5 -8.55 Q-4.5 -8.5 -4.5 -8.45 -4.2 -9.1 -4.0 -9.05 -3.85 -9.05 -3.7 -8.55 M-0.8 -7.1 Q-0.35 -7.25 0.1 -6.65 -0.1 -6.45 -0.2 -6.5 L-0.3 -6.55 Q-0.4 -6.55 -0.5 -6.55 -0.85 -6.55 -0.85 -6.5 L-0.9 -6.4 Q-0.9 -6.35 -0.95 -6.3 L-1.15 -6.35 -1.15 -6.3 Q-1.15 -6.35 -1.15 -6.45 -1.15 -6.65 -1.05 -6.85 -0.95 -7.05 -0.8 -7.1 M-7.4 -11.05 Q-7.55 -10.85 -7.55 -10.75 -7.55 -10.5 -7.45 -10.25 -7.4 -10.3 -7.35 -10.4 L-7.2 -10.55 Q-7.1 -10.55 -6.85 -10.35 L-6.75 -10.3 Q-6.6 -10.2 -6.35 -10.05 L-6.35 -9.95 -6.45 -9.85 Q-6.1 -9.35 -5.95 -9.15 -5.7 -8.7 -5.7 -8.4 L-5.8 -8.3 -6.2 -8.75 -6.65 -9.15 Q-6.85 -9.15 -6.95 -9.05 -7.0 -8.95 -7.0 -8.9 -7.0 -8.8 -6.9 -8.65 L-6.8 -8.45 Q-6.8 -8.4 -6.8 -8.35 L-6.9 -8.35 -7.1 -8.45 -7.25 -8.6 Q-7.7 -8.6 -7.9 -8.25 -8.05 -8.05 -8.05 -7.8 -8.05 -7.7 -8.05 -7.65 -8.1 -7.6 -8.15 -7.55 -8.35 -7.4 -8.45 -7.15 L-7.85 -7.15 -7.6 -6.7 Q-7.45 -6.4 -7.35 -6.25 L-7.4 -6.2 -7.4 -6.15 -7.35 -6.05 Q-7.05 -5.55 -7.05 -5.5 L-7.05 -5.4 Q-7.1 -5.4 -7.1 -5.45 -7.45 -5.6 -7.6 -5.75 -7.75 -5.9 -7.8 -6.1 L-7.8 -6.3 Q-7.95 -6.55 -8.25 -6.65 L-8.75 -6.85 Q-9.0 -6.95 -9.05 -7.05 -9.15 -7.2 -9.2 -7.35 -9.25 -7.45 -9.25 -7.5 -9.25 -7.7 -9.15 -7.8 -9.05 -8.0 -8.7 -7.95 L-8.8 -8.0 Q-8.7 -8.15 -8.6 -8.4 -8.55 -8.65 -8.55 -8.9 -8.55 -9.1 -8.45 -9.3 -8.6 -9.35 -8.65 -9.55 -8.65 -9.6 -8.65 -9.75 -8.65 -10.0 -8.55 -10.1 -8.4 -10.25 -8.2 -10.3 -8.2 -10.6 -8.2 -10.7 -8.15 -11.0 -7.95 -11.15 -7.7 -11.35 -7.15 -11.45 -7.2 -11.35 -7.4 -11.05 M-7.15 -10.4 L-7.15 -10.4 M-7.8 -6.9 L-7.7 -6.65 -7.65 -6.65 -7.7 -6.8 Q-7.75 -6.85 -7.8 -6.9 M-6.4 -5.35 Q-6.4 -5.4 -6.35 -5.4 -6.25 -5.35 -6.15 -5.3 -6.0 -5.3 -5.9 -5.2 -5.9 -5.1 -5.9 -5.0 L-5.9 -4.9 Q-5.9 -4.7 -5.95 -4.3 -6.05 -3.9 -6.05 -3.75 -6.05 -3.55 -5.85 -3.25 -5.6 -2.9 -5.45 -2.9 -5.3 -2.9 -5.25 -3.0 L-5.1 -3.25 Q-5.0 -3.45 -4.9 -3.5 L-4.85 -3.55 Q-4.7 -3.7 -4.4 -3.7 -3.95 -3.7 -3.8 -3.35 -3.7 -3.25 -3.6 -3.0 -3.55 -2.85 -3.6 -2.6 L-3.6 -2.35 Q-3.45 -2.05 -3.2 -1.7 -2.9 -1.3 -2.7 -1.05 L-2.7 -1.0 Q-3.3 -1.2 -3.55 -1.65 -3.6 -1.75 -3.65 -1.9 L-3.75 -1.9 Q-3.8 -1.9 -3.9 -2.0 L-4.15 -2.3 Q-4.45 -2.7 -4.6 -2.7 -4.8 -2.7 -5.0 -2.45 -5.05 -2.3 -5.1 -2.3 -5.15 -2.2 -5.25 -2.2 -5.75 -2.2 -6.3 -2.85 -6.55 -3.2 -6.7 -3.55 -6.7 -3.7 -6.4 -4.3 -6.3 -4.6 -6.15 -4.85 -6.15 -4.95 -6.2 -5.05 -6.25 -5.1 -6.4 -5.3 L-6.4 -5.35 M-5.7 -6.7 Q-5.7 -7.5 -5.15 -6.95 -4.95 -6.75 -4.75 -6.45 -4.55 -6.25 -4.55 -6.2 -4.55 -6.1 -4.5 -6.05 -4.45 -6.0 -4.45 -5.95 L-4.4 -5.95 Q-4.4 -5.9 -4.5 -5.9 -4.65 -5.9 -4.85 -6.05 -4.9 -6.1 -4.95 -6.2 -5.35 -6.2 -5.35 -5.85 -5.35 -5.8 -5.3 -5.6 -5.3 -5.5 -5.3 -5.45 -5.55 -5.55 -5.65 -6.1 -5.7 -6.45 -5.7 -6.7 M-6.0 -4.8 Q-6.0 -4.65 -6.15 -4.3 L-6.3 -3.85 -6.3 -3.8 Q-6.25 -4.0 -6.15 -4.3 -6.0 -4.6 -6.0 -4.8 M-10.3 -4.15 L-10.25 -4.2 Q-9.95 -4.1 -9.55 -3.8 -9.45 -3.7 -9.05 -3.35 L-9.0 -3.35 Q-9.1 -3.4 -9.15 -3.5 -9.25 -3.65 -9.25 -3.75 -9.25 -3.8 -9.25 -3.85 -9.3 -4.0 -9.3 -4.05 L-9.15 -4.0 -9.05 -4.0 Q-9.0 -4.0 -8.75 -3.8 L-8.6 -3.7 Q-8.4 -3.55 -8.05 -3.3 L-7.5 -2.8 Q-7.1 -2.45 -6.75 -2.25 -6.9 -2.3 -7.1 -2.35 L-7.1 -2.3 -7.15 -2.25 Q-7.35 -2.3 -8.0 -2.7 -8.6 -3.1 -8.8 -3.15 L-8.9 -3.1 Q-8.85 -3.0 -8.75 -2.8 -8.65 -2.6 -8.6 -2.5 L-8.6 -2.45 Q-8.6 -2.4 -8.7 -2.4 -8.8 -2.4 -9.1 -2.55 -9.35 -2.7 -9.65 -2.9 -10.35 -3.5 -10.45 -4.05 -10.4 -4.1 -10.3 -4.15 M-10.55 -0.7 L-10.45 -0.7 -10.65 -0.75 -10.55 -0.7 M-3.75 -2.35 L-3.75 -2.45 -3.8 -2.6 -3.8 -2.5 Q-3.8 -2.45 -3.75 -2.35" fill="#f6d9ff" fill-rule="evenodd" stroke="none"/>
    </g>
    <g id="shape3" transform="matrix(1.0, 0.0, 0.0, 1.0, 9.45, 40.75)">
      <path d="M0.55 -2.45 L0.35 -2.65 0.45 -3.15 Q0.45 -2.75 0.55 -2.45 M2.55 -5.9 L2.5 -5.8 2.45 -6.2 2.55 -5.9 M2.05 -4.85 L2.0 -6.15 Q2.05 -6.0 2.15 -5.8 2.1 -5.3 2.05 -4.85" fill="#ffff66" fill-rule="evenodd" stroke="none"/>
      <path d="M2.15 -40.55 L2.3 -40.7 2.2 -40.5 Q4.85 -38.2 4.35 -35.8 L4.35 -35.6 Q4.25 -35.3 4.1 -34.95 L4.05 -35.0 3.9 -35.7 Q2.25 -36.1 2.1 -34.1 L2.15 -33.65 Q2.45 -34.2 2.85 -34.85 2.9 -34.9 2.95 -34.9 L3.0 -34.85 Q4.9 -33.25 3.1 -31.9 L3.05 -31.8 3.0 -31.8 2.8 -31.7 Q2.8 -31.65 2.75 -31.7 L2.7 -32.1 Q2.6 -32.35 2.45 -32.6 L2.0 -32.2 Q1.9 -31.9 1.6 -31.8 0.8 -32.35 1.45 -33.1 -0.1 -36.5 1.55 -39.55 L1.55 -39.95 Q1.5 -40.15 1.55 -40.4 1.6 -40.6 1.75 -40.7 L1.95 -40.75 2.15 -40.55 M7.05 -25.6 Q6.65 -25.35 6.3 -25.0 L5.4 -23.65 4.85 -21.85 Q4.8 -21.75 4.75 -21.7 3.15 -24.0 5.45 -25.85 L5.5 -25.9 Q5.45 -26.6 5.55 -27.45 L5.55 -27.65 Q5.4 -27.55 5.3 -27.65 L4.55 -26.95 Q4.45 -26.8 4.15 -26.8 3.2 -29.65 4.8 -32.15 5.0 -32.45 5.3 -32.5 5.55 -32.6 5.75 -32.55 L5.8 -32.55 5.8 -32.5 Q5.95 -32.45 6.05 -32.35 L6.15 -32.3 Q6.3 -31.7 6.2 -31.05 6.35 -30.45 6.4 -29.85 7.45 -28.6 6.95 -26.25 6.9 -25.9 7.05 -25.6 M8.45 -25.55 L8.4 -26.1 Q10.05 -23.6 9.05 -20.3 L9.05 -20.3 8.9 -19.9 8.85 -19.8 Q8.45 -20.5 8.3 -21.6 L7.0 -21.1 7.05 -22.65 Q7.75 -23.25 7.8 -24.1 L7.85 -23.8 Q8.05 -24.75 8.15 -25.75 8.2 -25.85 8.25 -25.85 L8.45 -25.55 M1.85 -31.6 Q4.15 -29.45 1.35 -28.95 L1.3 -29.0 Q1.7 -30.15 1.65 -31.3 1.6 -31.6 1.85 -31.6 M6.35 -26.3 L6.3 -26.45 6.2 -26.2 6.35 -26.3 M0.75 -22.9 Q0.7 -22.85 0.6 -22.8 L0.05 -23.6 Q-0.6 -23.6 -1.0 -23.15 -0.85 -22.85 -0.9 -22.55 -2.95 -23.1 -1.35 -25.3 -1.25 -25.45 -1.1 -25.5 -0.45 -25.4 -0.1 -24.9 0.2 -24.7 0.35 -24.35 1.3 -23.85 0.75 -22.9 M-1.65 2.65 Q-1.05 2.9 -0.35 3.1 L0.15 2.8 Q0.65 2.8 0.85 3.25 L0.9 3.35 Q-1.1 5.2 -3.6 5.3 -5.4 5.8 -7.3 5.5 -7.45 5.35 -7.35 5.15 -6.95 4.15 -6.15 3.35 -8.0 3.55 -9.45 3.2 L-9.45 3.15 Q-9.05 2.9 -8.65 2.75 -6.1 1.15 -5.15 -1.75 L-5.15 -1.35 -5.0 -1.4 Q-4.75 -0.4 -4.9 0.55 -3.65 -2.25 -3.7 -5.35 -3.85 -6.05 -3.95 -6.7 L-3.95 -6.75 Q-3.55 -6.3 -3.25 -5.8 L-3.2 -6.0 Q-2.7 -4.75 -2.75 -3.3 -2.3 -4.3 -2.05 -5.45 L-1.6 -12.4 Q-1.6 -12.55 -1.5 -12.6 -1.35 -12.0 -1.25 -11.45 L-1.15 -11.85 -1.1 -11.85 Q-1.0 -11.25 -0.9 -10.7 -0.3 -9.95 0.3 -9.15 -0.15 -13.35 0.45 -17.75 0.35 -18.7 0.45 -19.7 L0.5 -19.75 Q0.65 -19.3 0.8 -18.9 L0.8 -19.0 Q0.8 -19.05 0.95 -19.0 1.15 -17.95 1.3 -16.9 L1.45 -15.65 1.45 -15.25 Q2.05 -19.15 2.55 -23.05 2.55 -23.1 2.6 -23.1 L2.65 -22.95 Q3.3 -19.6 3.55 -16.1 L3.6 -16.0 Q3.75 -16.05 3.9 -16.2 4.0 -16.5 4.2 -16.85 L4.2 -16.9 4.25 -16.3 Q4.25 -16.35 4.35 -16.3 4.25 -12.75 4.6 -9.2 L4.6 -9.1 Q4.5 -9.55 4.4 -10.0 4.6 -7.55 5.1 -5.05 5.1 -5.0 5.15 -4.95 5.25 -6.05 5.45 -7.15 5.15 -8.75 5.8 -10.35 5.85 -9.8 5.9 -9.2 L6.05 -9.8 Q6.0 -7.75 6.25 -5.7 6.5 -4.5 6.8 -3.35 6.9 -4.25 7.35 -5.25 7.35 -5.3 7.45 -5.25 L7.5 -4.2 Q8.0 -2.2 9.05 -0.4 10.35 0.6 12.0 0.8 12.05 0.8 12.05 0.85 11.15 2.0 10.05 2.15 9.2 3.8 6.25 4.4 3.8 4.9 2.2 3.75 L2.0 3.8 1.95 3.75 Q2.65 2.95 3.75 2.5 L4.1 2.3 Q3.15 2.4 2.0 2.35 1.75 2.0 1.65 1.55 0.45 2.75 -1.65 2.65 -1.95 2.5 -2.2 2.4 -1.1 1.2 -0.4 -0.3 -0.35 0.15 -0.2 0.7 L2.15 0.55 Q2.6 -0.1 2.75 -0.85 3.1 -1.1 3.85 -0.95 L3.9 -0.9 Q4.1 -0.35 4.5 0.0 4.5 0.25 4.55 0.55 5.15 0.8 5.7 0.9 5.95 1.65 6.7 1.35 L6.55 1.05 6.8 1.05 Q7.5 1.45 8.55 1.1 L8.45 1.0 8.0 0.75 8.0 0.7 Q7.05 -0.6 7.2 -2.35 7.15 -2.4 7.1 -2.4 6.55 -2.45 6.05 -2.8 6.0 -2.75 5.95 -2.7 5.6 -1.5 5.25 -0.25 L5.05 -0.15 Q4.85 -0.9 4.55 -1.3 4.25 -3.25 3.8 -3.9 3.65 -4.65 3.2 -5.5 2.05 -9.6 1.4 -13.75 L1.4 -13.7 Q1.15 -11.25 1.45 -8.95 1.5 -5.7 1.35 -2.45 L1.2 -2.45 Q1.0 -3.25 0.5 -3.75 0.4 -3.2 0.2 -2.7 L0.15 -2.75 0.1 -2.4 Q-0.4 -1.25 -1.4 -0.3 -1.65 -0.6 -2.0 -0.45 -3.3 1.85 -5.8 2.7 -5.4 3.35 -4.55 3.1 -4.6 3.4 -4.35 3.55 -2.6 3.6 -1.45 2.8 L-1.65 2.65 M8.9 -15.4 Q8.15 -15.3 7.6 -15.5 7.65 -15.85 7.8 -16.05 L7.65 -16.1 Q8.45 -17.2 9.0 -18.6 11.1 -15.7 9.35 -12.3 9.3 -12.25 9.1 -12.25 L9.3 -12.9 8.9 -15.4 M0.3 -9.1 L0.3 -9.1 M7.55 -1.9 L7.5 -2.1 7.5 -1.85 7.55 -1.9 M-4.2 -30.1 Q-4.5 -31.3 -3.7 -31.9 -3.45 -31.7 -3.2 -31.45 -0.85 -30.4 -0.8 -27.5 -0.5 -27.05 -0.7 -26.35 L-0.75 -26.25 Q-1.2 -26.3 -1.35 -26.9 L-1.55 -27.35 Q-2.95 -26.0 -3.45 -24.1 -3.65 -22.7 -3.25 -21.15 -3.15 -20.85 -3.4 -20.6 -4.8 -21.15 -4.85 -22.6 -5.85 -23.95 -4.95 -26.35 -4.35 -28.0 -4.1 -29.6 -4.1 -29.85 -4.2 -30.1 M-7.6 -19.5 Q-8.25 -20.7 -7.95 -21.6 -5.15 -17.8 -6.8 -13.3 L-6.85 -13.0 Q-7.45 -13.4 -7.7 -14.1 -8.5 -15.4 -7.85 -17.7 -7.6 -18.6 -7.6 -19.5 M-5.65 -23.1 Q-4.65 -21.65 -5.55 -19.55 -5.6 -19.5 -5.65 -19.45 -7.45 -20.95 -5.7 -23.1 L-5.65 -23.1 M-1.9 -20.2 Q0.2 -16.85 -1.95 -15.0 L-2.0 -15.05 Q-2.65 -17.5 -2.15 -20.05 -2.1 -20.25 -1.9 -20.2 M-5.4 -10.3 Q-4.85 -9.2 -5.05 -8.15 -5.0 -7.35 -5.05 -6.55 -5.1 -6.25 -5.5 -6.45 L-5.6 -6.8 -5.65 -6.75 Q-5.7 -6.7 -5.85 -6.7 -6.05 -8.7 -5.95 -10.8 -5.95 -10.95 -5.8 -10.95 L-5.55 -10.6 -5.5 -10.6 -5.4 -10.3" fill="#c867e6" fill-rule="evenodd" stroke="none"/>
      <path d="M-1.65 2.65 L-1.45 2.8 Q-2.6 3.6 -4.35 3.55 -4.6 3.4 -4.55 3.1 -5.4 3.35 -5.8 2.7 -3.3 1.85 -2.0 -0.45 -1.65 -0.6 -1.4 -0.3 -0.4 -1.25 0.1 -2.4 L0.15 -2.75 0.2 -2.7 Q0.4 -3.2 0.5 -3.75 1.0 -3.25 1.2 -2.45 L1.35 -2.45 Q1.5 -5.7 1.45 -8.95 1.15 -11.25 1.4 -13.7 L1.4 -13.75 Q2.05 -9.6 3.2 -5.5 3.65 -4.65 3.8 -3.9 4.25 -3.25 4.55 -1.3 4.85 -0.9 5.05 -0.15 L5.25 -0.25 Q5.6 -1.5 5.95 -2.7 6.0 -2.75 6.05 -2.8 6.55 -2.45 7.1 -2.4 7.15 -2.4 7.2 -2.35 7.05 -0.6 8.0 0.7 L8.0 0.75 8.45 1.0 8.55 1.1 Q7.5 1.45 6.8 1.05 L6.55 1.05 6.7 1.35 Q5.95 1.65 5.7 0.9 5.15 0.8 4.55 0.55 4.5 0.25 4.5 0.0 4.1 -0.35 3.9 -0.9 L3.85 -0.95 Q3.1 -1.1 2.75 -0.85 2.6 -0.1 2.15 0.55 L-0.2 0.7 Q-0.35 0.15 -0.4 -0.3 -1.1 1.2 -2.2 2.4 -1.95 2.5 -1.65 2.65 M2.05 -4.85 Q2.1 -5.3 2.15 -5.8 2.05 -6.0 2.0 -6.15 L2.05 -4.85 M2.55 -5.9 L2.45 -6.2 2.5 -5.8 2.55 -5.9 M0.55 -2.45 Q0.45 -2.75 0.45 -3.15 L0.35 -2.65 0.55 -2.45" fill="#f6d9ff" fill-rule="evenodd" stroke="none"/>
      <path d="M2.45 -37.3 Q2.8 -37.65 3.2 -37.75 4.8 -37.2 4.45 -35.25 L4.4 -35.15 Q3.45 -35.35 2.35 -35.25 2.25 -34.65 2.1 -34.0 2.25 -34.05 2.35 -34.05 4.3 -33.55 3.0 -31.75 2.95 -31.65 2.8 -31.7 2.5 -31.85 2.55 -32.15 2.55 -32.7 2.5 -32.35 2.35 -31.6 1.55 -31.95 1.35 -32.05 1.25 -32.3 1.2 -32.65 1.3 -33.0 1.15 -33.85 1.3 -34.6 1.15 -35.95 2.45 -37.3 M5.2 -29.65 Q7.2 -28.4 5.9 -25.8 6.15 -25.95 6.4 -26.0 6.65 -25.25 5.75 -23.6 5.15 -22.45 5.7 -21.2 3.4 -22.05 4.95 -24.75 5.3 -25.35 5.8 -25.7 5.1 -26.25 5.4 -27.35 L5.5 -27.7 Q5.35 -27.65 5.3 -27.4 5.2 -27.15 5.05 -26.95 4.6 -26.95 4.3 -26.95 4.15 -26.9 3.95 -26.95 3.9 -28.35 4.8 -29.4 5.0 -29.55 5.2 -29.65 M2.2 -30.35 Q3.05 -29.95 2.4 -29.0 L2.3 -28.9 Q1.85 -28.75 1.5 -29.05 1.2 -29.9 2.05 -30.3 L2.2 -30.35 M0.6 -22.65 Q0.55 -22.65 0.55 -22.6 -0.15 -22.75 -0.25 -23.6 -0.3 -23.65 -0.35 -23.7 -1.0 -23.45 -0.7 -22.8 -0.65 -22.65 -0.65 -22.5 -1.8 -23.0 -1.65 -23.55 -1.75 -24.15 -0.85 -24.7 -0.7 -24.75 -0.6 -24.8 0.35 -24.7 0.5 -24.05 0.9 -23.5 0.6 -22.65 M8.4 -21.35 Q8.1 -21.45 7.65 -21.25 7.6 -21.2 7.55 -21.2 L7.65 -20.45 Q7.65 -20.25 7.6 -20.05 5.6 -20.65 7.25 -23.2 7.6 -23.8 8.25 -23.95 10.0 -21.9 8.6 -19.1 8.55 -19.05 8.5 -19.05 8.0 -19.85 8.4 -21.05 8.4 -21.2 8.4 -21.35 M7.7 -16.35 Q7.8 -16.75 8.15 -16.8 11.1 -15.8 9.3 -12.4 L9.25 -12.35 Q8.75 -13.65 8.15 -15.4 7.85 -15.25 7.95 -15.65 L7.8 -15.7 Q7.6 -16.0 7.7 -16.35 M-2.6 -29.6 Q-0.6 -28.55 -0.8 -26.15 -0.8 -26.1 -0.85 -26.05 -1.55 -26.2 -1.65 -27.15 L-1.65 -27.35 Q-4.0 -24.85 -3.25 -21.4 -3.15 -21.1 -3.35 -20.95 L-3.45 -21.05 -3.35 -20.8 Q-3.35 -20.75 -3.4 -20.7 -5.4 -22.15 -4.6 -24.5 -4.5 -25.7 -3.9 -27.05 -3.4 -28.25 -2.75 -29.45 -2.7 -29.55 -2.6 -29.6 M-5.65 -22.05 Q-4.7 -21.15 -5.4 -19.6 L-5.45 -19.55 Q-6.95 -20.35 -5.8 -22.0 -5.75 -22.05 -5.65 -22.05 M-6.6 -18.4 Q-5.95 -16.45 -6.5 -14.0 L-6.5 -13.05 Q-6.75 -13.45 -6.95 -13.85 -6.8 -13.35 -6.65 -12.8 -8.9 -15.15 -7.0 -18.1 -6.9 -18.6 -6.7 -19.1 L-6.6 -19.15 -6.6 -18.4 M-1.5 -19.0 Q-0.4 -17.5 -1.15 -15.6 L-1.2 -15.5 Q-1.6 -15.15 -2.05 -15.5 -2.2 -17.3 -1.6 -18.9 -1.6 -18.95 -1.5 -19.0 M-5.25 -10.0 Q-4.9 -8.5 -5.25 -6.9 -5.25 -6.85 -5.3 -6.8 -6.2 -8.05 -5.4 -10.0 -5.35 -10.05 -5.25 -10.0" fill="#a45cba" fill-rule="evenodd" stroke="none"/>
    </g>
    <g id="shape4" transform="matrix(1.0, 0.0, 0.0, 1.0, 10.35, 40.2)">
      <path d="M4.5 -6.9 L4.5 -7.05 4.55 -6.9 4.5 -6.9 M3.5 -8.85 L3.5 -8.85 M-2.2 -4.55 L-2.2 -4.5 -2.25 -4.5 -2.2 -4.55 M-2.95 3.25 L-3.05 3.3 -3.0 3.2 -2.95 3.25 M-0.6 -0.3 L-0.65 -0.3 -0.6 -0.4 -0.6 -0.3" fill="#ffff66" fill-rule="evenodd" stroke="none"/>
      <path d="M-2.1 -7.65 L-2.05 -7.65 Q-2.0 -6.55 -2.1 -7.65" fill="#ffffcc" fill-rule="evenodd" stroke="none"/>
      <path d="M2.75 -39.35 Q2.75 -39.45 2.6 -39.55 L2.5 -39.45 Q2.7 -39.25 2.85 -39.0 L2.75 -39.35 M2.1 -39.2 Q2.0 -39.15 2.0 -39.1 0.45 -37.1 1.7 -35.1 1.8 -35.25 1.9 -35.4 2.35 -36.15 2.3 -37.0 2.35 -36.95 2.4 -36.8 2.75 -35.65 3.45 -35.1 L3.5 -35.15 Q4.25 -37.9 2.1 -39.2 M1.25 -34.85 Q-0.1 -37.7 2.45 -40.2 5.05 -37.05 3.35 -32.85 3.3 -32.8 3.25 -32.8 L3.3 -33.35 Q3.0 -34.15 2.9 -34.9 L2.85 -34.95 Q2.2 -32.4 2.2 -29.65 2.2 -29.2 1.8 -29.05 L1.75 -29.3 1.7 -29.15 Q1.65 -28.95 1.65 -28.8 1.4 -31.45 1.4 -34.35 1.4 -34.7 1.25 -34.85 M1.85 -34.15 L1.75 -34.35 1.85 -33.95 1.85 -34.15 M-4.15 -23.5 Q-5.45 -23.45 -5.35 -25.35 L-5.45 -25.5 Q-5.55 -25.65 -5.5 -25.85 -5.4 -26.0 -5.25 -26.1 -5.15 -26.6 -4.85 -26.95 -4.7 -27.2 -4.5 -27.5 -4.45 -27.55 -4.4 -27.55 -4.55 -26.65 -4.4 -25.8 -4.05 -25.7 -3.65 -25.65 -3.45 -26.25 -3.3 -26.8 -3.55 -28.25 -3.9 -29.7 -4.2 -30.2 -4.25 -30.8 L-4.6 -31.0 -4.3 -31.0 -4.25 -30.95 -4.25 -31.1 -4.65 -31.35 -4.5 -31.35 -4.3 -31.25 -4.4 -31.6 -4.3 -31.65 -4.2 -31.5 Q-4.05 -32.35 -3.25 -33.25 -3.2 -33.65 -3.1 -34.05 L-1.95 -31.8 Q-1.2 -31.5 -0.95 -30.5 L-0.9 -30.45 Q-1.2 -30.7 -1.45 -30.85 L-1.4 -30.7 Q-1.35 -30.7 -1.4 -30.65 -1.85 -30.85 -2.15 -31.1 -2.65 -31.1 -3.0 -30.65 L-2.85 -30.55 -2.7 -30.6 -2.25 -30.15 Q0.1 -28.3 0.2 -24.8 L0.25 -24.6 Q0.45 -24.75 0.65 -24.95 0.9 -25.5 1.0 -26.1 -0.15 -26.75 1.0 -27.65 1.9 -27.25 1.55 -26.55 L1.6 -26.5 Q1.7 -26.65 1.8 -26.7 1.8 -28.8 3.1 -30.95 L3.1 -31.0 Q3.7 -29.85 3.8 -28.85 L3.8 -28.9 3.85 -27.5 Q4.05 -27.2 4.2 -26.85 4.55 -27.55 4.75 -28.35 4.8 -28.55 4.65 -28.75 3.4 -30.6 4.9 -32.5 5.15 -33.3 5.45 -34.1 L5.35 -34.55 5.45 -34.55 5.6 -34.3 5.65 -34.25 Q6.55 -32.85 6.8 -31.25 7.35 -29.6 7.1 -27.5 6.85 -25.3 6.9 -23.1 6.9 -22.7 6.85 -22.4 6.95 -21.2 7.1 -19.9 L7.3 -21.65 7.3 -21.4 Q7.8 -21.25 8.15 -21.2 L8.15 -20.95 Q8.1 -20.35 8.2 -19.8 L8.25 -19.75 Q10.1 -21.65 8.15 -23.75 8.05 -23.75 8.05 -23.7 7.6 -23.2 7.4 -22.65 7.65 -24.3 7.95 -26.0 7.95 -26.1 8.05 -26.1 L8.15 -25.55 Q10.4 -21.2 8.5 -16.3 8.4 -14.15 8.55 -11.9 9.2 -14.45 9.9 -17.0 9.95 -17.1 10.0 -17.1 L10.0 -17.0 Q10.05 -17.05 10.15 -17.05 10.25 -16.25 10.25 -15.45 10.45 -15.4 10.6 -15.2 L10.65 -15.1 10.2 -13.85 Q10.0 -10.05 8.55 -6.45 L8.6 -6.55 Q8.8 -5.95 9.15 -7.9 9.45 -9.5 10.8 -10.05 L11.0 -10.45 Q10.35 -7.55 10.4 -4.55 10.45 -4.6 10.5 -4.6 10.5 -1.85 11.7 0.4 12.3 0.95 12.75 1.75 11.25 2.45 9.3 2.35 7.05 4.35 4.4 3.85 3.15 3.9 1.9 3.4 1.7 4.2 0.1 4.8 -1.75 5.45 -3.45 5.25 -4.2 5.45 -5.05 5.5 -5.5 5.5 -5.75 5.3 -6.0 5.5 -6.25 5.1 -5.2 2.65 -8.7 3.35 L-9.25 3.4 -9.4 3.65 -9.45 3.65 -9.4 3.4 Q-9.75 3.35 -10.0 3.2 L-9.9 3.0 -10.0 3.0 -9.85 2.85 Q-9.7 2.7 -9.45 2.6 L-9.3 2.55 Q-8.8 -1.65 -10.35 -5.65 -10.45 -5.85 -10.15 -5.85 L-9.8 -5.35 Q-9.85 -5.75 -9.85 -6.15 -9.85 -7.25 -9.1 -7.85 -9.25 -4.65 -7.6 -2.1 L-7.4 -1.95 Q-7.6 -4.2 -7.75 -6.6 -8.85 -8.35 -8.6 -10.55 -8.7 -11.7 -8.1 -13.0 -8.0 -10.9 -7.25 -9.05 -7.8 -11.3 -7.0 -13.6 -6.8 -14.25 -6.9 -15.05 -7.25 -17.15 -7.4 -18.7 L-7.9 -19.9 Q-7.9 -19.95 -7.75 -20.0 -6.85 -19.05 -6.35 -18.0 -6.7 -15.75 -5.35 -14.9 L-5.3 -14.95 Q-5.7 -16.75 -5.1 -17.1 -5.05 -17.1 -5.05 -17.15 -4.85 -18.55 -5.55 -19.6 -6.05 -19.35 -6.25 -18.6 L-6.3 -18.2 Q-6.45 -20.6 -5.7 -23.05 L-5.6 -23.05 -5.55 -21.55 Q-4.8 -20.2 -4.7 -18.0 -4.7 -17.35 -4.3 -16.95 -4.15 -16.95 -4.0 -16.85 L-3.9 -17.45 Q-3.9 -19.35 -3.95 -21.25 L-2.75 -20.4 -2.75 -20.45 Q-2.7 -21.0 -2.95 -21.5 L-2.9 -21.65 Q-2.45 -23.1 -2.35 -24.6 -2.15 -25.85 -2.05 -27.05 -1.5 -25.4 -0.75 -24.05 -0.75 -24.1 -0.75 -24.15 -0.45 -26.75 -1.8 -28.6 -2.45 -29.95 -3.45 -31.25 -3.8 -31.0 -3.7 -30.5 -3.35 -29.05 -3.25 -27.5 -3.25 -26.6 -3.2 -25.75 L-3.45 -25.65 Q-3.85 -25.45 -4.05 -25.1 L-4.25 -25.15 Q-4.45 -24.95 -4.35 -24.6 -4.2 -24.05 -4.15 -23.5 M0.75 -23.45 Q0.65 -23.4 0.65 -23.35 -0.2 -21.7 -0.55 -20.25 -0.95 -19.5 -0.75 -18.75 L-0.75 -18.85 -0.55 -19.3 -0.35 -19.7 Q-0.1 -20.2 0.25 -20.6 0.4 -19.95 1.1 -19.6 L1.15 -19.45 Q1.35 -18.85 1.55 -18.3 L1.65 -17.7 1.7 -17.75 Q1.8 -18.25 1.8 -18.7 1.95 -18.9 2.1 -19.15 2.4 -19.0 3.25 -19.1 3.35 -19.05 3.35 -18.95 3.45 -18.6 3.65 -18.35 3.75 -18.3 3.75 -18.35 L3.85 -18.4 Q3.8 -17.9 3.65 -17.3 4.35 -17.75 4.3 -18.7 4.2 -22.15 2.0 -20.25 1.9 -21.8 1.45 -23.3 L1.4 -23.35 0.75 -23.45 M4.0 -26.65 Q3.95 -26.75 3.85 -26.75 1.3 -27.05 2.05 -23.9 3.8 -26.65 5.65 -24.05 5.05 -22.5 5.8 -21.65 5.85 -21.7 5.85 -21.75 6.5 -24.0 6.2 -26.05 6.75 -26.6 6.9 -27.45 7.35 -30.45 5.7 -31.95 4.65 -29.7 4.75 -26.95 4.4 -26.8 4.0 -26.65 M0.45 -23.85 L0.6 -24.1 Q0.5 -24.05 0.4 -24.05 L0.45 -23.85 M7.6 -19.05 L7.65 -19.3 7.65 -19.35 7.55 -19.15 7.6 -19.05 M0.8 -15.35 Q0.35 -15.2 0.35 -14.55 0.3 -13.35 0.25 -12.2 -0.5 -7.65 -1.8 -3.15 L-1.85 -3.25 -1.9 -3.8 -1.9 -3.85 Q-1.9 -4.05 -2.0 -4.2 -2.15 -5.05 -2.45 -5.85 L-2.95 -5.05 Q-2.75 -5.85 -2.7 -6.7 -3.15 -5.15 -3.7 -3.65 -4.6 -2.45 -4.85 -1.0 -5.0 -1.95 -5.65 -2.6 L-5.7 -2.6 -5.95 -2.15 -5.95 -2.1 Q-6.3 -1.4 -6.35 -0.55 -6.5 0.4 -6.65 1.35 -7.1 2.1 -7.95 2.45 -6.55 2.45 -5.0 2.75 L-4.6 2.85 -4.7 3.0 -4.75 3.05 Q-5.3 3.55 -5.35 4.25 -2.65 5.3 -0.45 3.5 -1.25 3.3 -2.35 3.6 L-2.15 3.4 -1.5 3.4 Q-1.65 3.25 -1.85 3.05 -1.8 2.9 -1.8 2.7 L-2.1 2.85 -2.6 2.55 Q-2.25 0.2 -1.25 0.45 -0.85 1.2 -0.2 1.3 L-0.2 1.2 0.15 1.5 0.15 1.4 Q0.85 -1.0 1.15 -3.45 1.75 -4.65 2.8 -5.55 2.85 -5.1 2.95 -4.7 3.45 -1.2 2.5 1.95 2.35 2.2 2.25 2.5 L2.3 2.55 2.2 2.8 Q3.15 2.9 3.8 2.6 4.5 2.6 4.85 1.75 L4.85 1.5 Q5.15 0.9 5.25 -0.05 L5.35 0.05 Q5.35 1.25 5.35 2.45 8.0 2.35 10.3 1.1 L10.9 1.1 Q10.65 0.55 10.3 0.05 10.2 -0.65 9.75 -1.1 9.6 -2.0 9.5 -2.85 L9.5 -2.8 Q9.1 -2.1 9.05 -1.5 L9.05 -1.45 Q8.9 -1.1 8.75 -0.8 L7.75 0.45 Q7.65 -0.2 7.85 -0.65 8.05 -1.2 7.8 -1.45 8.05 -3.6 6.9 -5.5 6.3 -5.2 6.25 -4.45 L6.2 -3.8 Q5.8 -4.95 5.2 -5.8 L5.2 -5.9 5.3 -5.9 5.4 -5.95 5.4 -6.2 Q5.1 -7.1 4.75 -7.85 4.65 -8.8 4.7 -9.8 4.9 -11.05 5.45 -12.3 L5.25 -12.35 4.8 -12.45 Q4.05 -11.7 3.4 -10.85 2.3 -10.7 2.05 -8.8 L1.95 -8.65 1.75 -9.8 1.6 -10.55 0.8 -15.35 M2.8 -0.95 Q2.35 0.4 1.15 1.45 0.85 1.7 0.45 1.4 0.6 2.95 -1.1 3.0 -0.3 3.1 0.45 3.35 1.1 3.05 1.75 2.75 L1.7 2.75 Q1.4 2.6 1.65 2.15 2.45 0.85 2.85 -0.55 L2.8 -0.95 M-2.1 -7.65 Q-2.0 -6.55 -2.05 -7.65 L-2.1 -7.65" fill="#c867e6" fill-rule="evenodd" stroke="none"/>
      <path d="M2.1 -39.2 Q4.25 -37.9 3.5 -35.15 L3.45 -35.1 Q2.75 -35.65 2.4 -36.8 2.35 -36.95 2.3 -37.0 2.35 -36.15 1.9 -35.4 1.8 -35.25 1.7 -35.1 0.45 -37.1 2.0 -39.1 2.0 -39.15 2.1 -39.2 M7.3 -21.65 Q7.25 -22.15 7.4 -22.65 7.6 -23.2 8.05 -23.7 8.05 -23.75 8.15 -23.75 10.1 -21.65 8.25 -19.75 L8.2 -19.8 Q8.1 -20.35 8.15 -20.95 L8.15 -21.2 Q7.8 -21.25 7.3 -21.4 L7.3 -21.65 M-6.35 -18.0 L-6.3 -18.2 -6.25 -18.6 Q-6.05 -19.35 -5.55 -19.6 -4.85 -18.55 -5.05 -17.15 -5.05 -17.1 -5.1 -17.1 -5.7 -16.75 -5.3 -14.95 L-5.35 -14.9 Q-6.7 -15.75 -6.35 -18.0 M-3.95 -21.25 L-4.25 -21.45 Q-4.05 -22.5 -4.15 -23.5 -4.2 -24.05 -4.35 -24.6 -4.45 -24.95 -4.25 -25.15 L-4.05 -25.1 Q-3.85 -25.45 -3.45 -25.65 L-3.2 -25.75 Q-3.25 -26.6 -3.25 -27.5 -3.35 -29.05 -3.7 -30.5 -3.8 -31.0 -3.45 -31.25 -2.45 -29.95 -1.8 -28.6 -0.45 -26.75 -0.75 -24.15 -0.75 -24.1 -0.75 -24.05 -1.5 -25.4 -2.05 -27.05 -2.15 -25.85 -2.35 -24.6 -2.45 -23.1 -2.9 -21.65 L-2.95 -21.5 Q-2.7 -21.0 -2.75 -20.45 L-2.75 -20.4 -3.95 -21.25 M4.0 -26.65 Q4.4 -26.8 4.75 -26.95 4.65 -29.7 5.7 -31.95 7.35 -30.45 6.9 -27.45 6.75 -26.6 6.2 -26.05 6.5 -24.0 5.85 -21.75 5.85 -21.7 5.8 -21.65 5.05 -22.5 5.65 -24.05 3.8 -26.65 2.05 -23.9 1.3 -27.05 3.85 -26.75 3.95 -26.75 4.0 -26.65 M0.75 -23.45 L1.4 -23.35 1.45 -23.3 Q1.9 -21.8 2.0 -20.25 4.2 -22.15 4.3 -18.7 4.35 -17.75 3.65 -17.3 3.8 -17.9 3.85 -18.4 L3.75 -18.35 Q3.75 -18.3 3.65 -18.35 3.45 -18.6 3.35 -18.95 3.35 -19.05 3.25 -19.1 2.4 -19.0 2.1 -19.15 1.95 -18.9 1.8 -18.7 1.8 -18.25 1.7 -17.75 L1.65 -17.7 1.55 -18.3 Q1.35 -18.85 1.15 -19.45 L1.1 -19.6 Q0.4 -19.95 0.25 -20.6 -0.1 -20.2 -0.35 -19.7 L-0.55 -19.3 -0.75 -18.85 -0.75 -18.75 Q-0.95 -19.5 -0.55 -20.25 -0.2 -21.7 0.65 -23.35 0.65 -23.4 0.75 -23.45 M0.8 -15.35 L1.6 -10.55 1.75 -9.8 1.95 -8.65 2.05 -8.8 Q2.3 -10.7 3.4 -10.85 4.05 -11.7 4.8 -12.45 L5.25 -12.35 5.45 -12.3 Q4.9 -11.05 4.7 -9.8 4.65 -8.8 4.75 -7.85 5.1 -7.1 5.4 -6.2 L5.4 -5.95 5.3 -5.9 5.2 -5.9 5.2 -5.8 Q5.8 -4.95 6.2 -3.8 L6.25 -4.45 Q6.3 -5.2 6.9 -5.5 8.05 -3.6 7.8 -1.45 8.05 -1.2 7.85 -0.65 7.65 -0.2 7.75 0.45 L8.75 -0.8 Q8.9 -1.1 9.05 -1.45 L9.05 -1.5 Q9.1 -2.1 9.5 -2.8 L9.5 -2.85 Q9.6 -2.0 9.75 -1.1 10.2 -0.65 10.3 0.05 10.65 0.55 10.9 1.1 L10.3 1.1 Q8.0 2.35 5.35 2.45 5.35 1.25 5.35 0.05 L5.25 -0.05 Q5.15 0.9 4.85 1.5 L4.85 1.75 Q4.5 2.6 3.8 2.6 3.15 2.9 2.2 2.8 L2.3 2.55 2.25 2.5 Q2.35 2.2 2.5 1.95 3.45 -1.2 2.95 -4.7 2.85 -5.1 2.8 -5.55 1.75 -4.65 1.15 -3.45 0.85 -1.0 0.15 1.4 L0.15 1.5 -0.2 1.2 -0.2 1.3 Q-0.85 1.2 -1.25 0.45 -2.25 0.2 -2.6 2.55 L-2.1 2.85 -1.8 2.7 Q-1.8 2.9 -1.85 3.05 -1.65 3.25 -1.5 3.4 L-2.15 3.4 -2.35 3.6 Q-1.25 3.3 -0.45 3.5 -2.65 5.3 -5.35 4.25 -5.3 3.55 -4.75 3.05 L-4.7 3.0 -4.6 2.85 -5.0 2.75 Q-6.55 2.45 -7.95 2.45 -7.1 2.1 -6.65 1.35 -6.5 0.4 -6.35 -0.55 -6.3 -1.4 -5.95 -2.1 L-5.95 -2.15 -5.7 -2.6 -5.65 -2.6 Q-5.0 -1.95 -4.85 -1.0 -4.6 -2.45 -3.7 -3.65 -3.15 -5.15 -2.7 -6.7 -2.75 -5.85 -2.95 -5.05 L-2.45 -5.85 Q-2.15 -5.05 -2.0 -4.2 -1.9 -4.05 -1.9 -3.85 L-1.9 -3.8 -1.85 -3.25 -1.8 -3.15 Q-0.5 -7.65 0.25 -12.2 0.3 -13.35 0.35 -14.55 0.35 -15.2 0.8 -15.35 M3.5 -8.85 L3.5 -8.85 M4.5 -6.9 L4.55 -6.9 4.5 -7.05 4.5 -6.9 M-2.2 -4.55 L-2.25 -4.5 -2.2 -4.5 -2.2 -4.55 M-0.6 -0.3 L-0.6 -0.4 -0.65 -0.3 -0.6 -0.3 M-2.95 3.25 L-3.0 3.2 -3.05 3.3 -2.95 3.25" fill="#f6d9ff" fill-rule="evenodd" stroke="none"/>
      <path d="M2.8 -21.5 Q2.85 -21.8 2.95 -22.05 2.55 -23.3 4.05 -24.15 5.7 -22.4 5.45 -19.65 L5.45 -19.55 Q4.65 -21.25 3.35 -21.35 3.15 -21.55 3.05 -21.75 L2.8 -21.5 M6.05 -16.75 L6.0 -17.1 Q6.85 -15.85 6.5 -13.65 6.35 -12.6 5.6 -12.35 L5.8 -13.25 Q5.0 -16.5 3.25 -13.8 2.9 -13.25 3.0 -12.55 2.5 -13.4 2.65 -14.15 2.65 -14.4 2.65 -14.6 2.35 -15.45 3.2 -16.35 3.85 -17.3 5.2 -17.9 5.5 -17.7 5.8 -17.4 L5.5 -17.3 Q5.85 -17.1 6.05 -16.75 M-2.3 -15.0 L-2.3 -14.9 -2.05 -14.45 -2.25 -14.95 -2.3 -15.0 M-2.35 -15.65 L-2.05 -15.35 Q-1.85 -15.1 -1.65 -14.8 -0.1 -12.5 -0.8 -9.0 -0.95 -8.0 -1.35 -7.1 -1.35 -6.55 -1.5 -5.9 -1.5 -5.85 -1.55 -5.8 -1.1 -9.5 -4.2 -10.0 -4.55 -10.05 -4.65 -9.6 L-4.7 -9.5 Q-3.1 -6.6 -5.35 -4.1 -5.75 -3.7 -5.9 -3.3 L-5.9 -3.2 Q-5.75 -2.75 -5.6 -2.4 L-6.0 -2.9 Q-6.15 -2.3 -6.0 -1.65 -6.55 -2.7 -6.55 -3.7 -7.25 -5.2 -5.55 -6.1 L-5.35 -6.2 -5.25 -6.3 Q-5.1 -6.9 -4.75 -7.35 L-4.8 -7.7 Q-5.15 -8.15 -5.35 -8.7 L-5.3 -8.6 Q-5.3 -8.35 -5.2 -8.1 L-5.45 -8.5 -5.85 -7.6 -5.5 -8.6 Q-6.9 -11.3 -4.35 -13.1 -3.7 -13.6 -3.45 -14.45 -3.2 -15.25 -2.6 -15.75 L-2.35 -15.6 -2.35 -15.65 M-1.7 -13.7 L-1.7 -13.7 M-4.95 -11.2 L-4.9 -10.35 -4.8 -10.65 -4.75 -10.65 Q-4.9 -10.95 -4.95 -11.2 M-5.0 -11.5 L-4.95 -11.6 -4.9 -11.65 -5.0 -11.6 -5.0 -11.5 M-4.6 -10.35 L-4.75 -10.05 -4.6 -10.3 -4.6 -10.35 M-6.1 -5.25 L-6.0 -5.4 -6.05 -5.35 -6.1 -5.25" fill="#a45cba" fill-rule="evenodd" stroke="none"/>
    </g>
  </defs>
</svg>
