<?xml version="1.0" encoding="UTF-8" standalone="no"?>
<svg xmlns:ffdec="https://www.free-decompiler.com/flash" xmlns:xlink="http://www.w3.org/1999/xlink" ffdec:objectType="frame" height="344.3px" width="425.15px" xmlns="http://www.w3.org/2000/svg">
  <g transform="matrix(1.0, 0.0, 0.0, 1.0, 222.85, 314.2)">
    <use ffdec:characterId="2403" height="23.35" transform="matrix(7.0, 0.0, 0.0, 7.0, -112.7, -154.35)" width="31.55" xlink:href="#shape0"/>
    <use ffdec:characterId="2401" height="10.65" transform="matrix(7.0, 0.0, 0.0, 7.0, -152.85, -64.3)" width="9.35" xlink:href="#shape1"/>
    <use ffdec:characterId="2401" height="10.65" transform="matrix(-5.7142, 0.0, 0.0, 5.7147, 145.1709, -59.1818)" width="9.35" xlink:href="#shape1"/>
    <use ffdec:characterId="2402" height="40.45" transform="matrix(7.0, 0.0, 0.0, 7.0, -80.65, -263.45)" width="21.6" xlink:href="#shape2"/>
    <use ffdec:characterId="2402" height="40.45" transform="matrix(5.4483, 0.0, 0.0, 5.4483, 0.129, -204.8234)" width="21.6" xlink:href="#shape2"/>
    <use ffdec:characterId="2398" height="28.85" transform="matrix(4.627, 0.0, 0.0, 4.627, -128.8709, -122.0416)" width="21.35" xlink:href="#shape3"/>
  </g>
  <defs>
    <g id="shape0" transform="matrix(1.0, 0.0, 0.0, 1.0, 16.1, 22.05)">
      <path d="M3.75 -18.8 Q4.45 -18.45 5.25 -18.7 6.05 -18.95 6.7 -18.4 L6.75 -18.35 6.75 -18.3 6.7 -18.25 6.7 -18.2 6.85 -18.1 Q6.95 -17.95 7.05 -17.8 L7.15 -17.55 7.2 -17.5 7.4 -17.5 7.55 -17.45 7.6 -17.4 7.6 -17.35 7.7 -17.25 7.75 -17.1 7.75 -16.95 Q7.9 -16.7 8.25 -16.45 8.65 -16.2 9.1 -16.25 L9.35 -16.25 9.4 -16.2 9.45 -16.1 9.5 -15.95 Q9.55 -15.85 9.55 -15.75 L9.6 -15.75 Q9.85 -15.7 9.95 -15.45 10.05 -15.2 10.25 -14.95 L10.55 -14.5 10.55 -14.4 10.5 -14.25 11.2 -14.2 11.5 -14.1 Q11.7 -14.05 11.75 -13.9 L11.8 -13.7 Q11.75 -13.6 11.8 -13.55 L11.85 -13.5 Q11.9 -13.45 11.85 -13.35 L11.85 -13.2 11.8 -13.05 11.75 -13.0 11.65 -12.95 11.6 -12.9 Q11.55 -12.8 11.6 -12.6 L11.6 -11.75 11.65 -11.65 Q11.75 -11.55 11.85 -11.55 L11.95 -11.55 12.05 -11.5 12.1 -11.45 Q12.15 -11.3 12.15 -11.1 L12.15 -10.95 12.1 -10.65 11.9 -10.1 Q11.85 -9.9 11.8 -9.7 L11.6 -9.5 11.6 -9.4 11.65 -9.2 Q11.9 -8.95 11.8 -8.55 11.75 -8.25 11.55 -7.95 L11.3 -7.7 Q11.3 -7.55 11.35 -7.4 L11.4 -7.2 Q11.45 -7.05 11.4 -7.0 11.25 -6.8 11.0 -6.9 10.8 -7.05 10.65 -7.25 10.7 -7.5 10.75 -7.7 10.8 -7.9 10.95 -8.15 11.1 -8.45 11.1 -8.7 L11.05 -8.65 Q10.75 -8.6 10.8 -8.95 L10.8 -9.4 Q10.75 -9.55 10.9 -9.55 L11.05 -9.45 Q10.95 -9.55 10.9 -9.75 L10.8 -9.95 Q10.65 -10.25 10.85 -10.55 L11.25 -11.25 11.55 -11.25 11.5 -11.3 Q11.35 -11.35 11.3 -11.45 L11.2 -11.55 Q10.7 -11.45 10.6 -11.9 10.45 -12.2 10.65 -12.5 10.9 -12.9 10.7 -13.4 10.7 -13.5 10.75 -13.6 10.4 -13.7 10.1 -13.85 10.05 -13.9 10.0 -13.95 L10.0 -14.0 9.8 -14.05 9.55 -14.1 9.35 -14.3 Q9.25 -14.45 9.25 -14.65 9.2 -14.8 9.2 -14.95 L9.2 -15.1 8.95 -15.3 8.55 -15.55 Q8.45 -15.6 8.5 -15.75 7.8 -15.65 7.25 -16.05 6.95 -16.35 6.9 -16.75 6.9 -16.9 7.0 -16.95 L6.95 -17.0 6.9 -17.1 Q6.85 -17.15 6.75 -17.1 6.6 -17.05 6.5 -17.2 6.45 -17.3 6.45 -17.4 L6.4 -17.7 Q6.4 -17.8 6.35 -17.9 6.05 -17.8 5.75 -17.75 5.15 -17.6 4.65 -17.8 L4.65 -17.85 Q4.95 -17.95 4.5 -18.0 L3.9 -18.05 Q3.45 -18.1 3.15 -18.3 L3.05 -18.4 3.05 -18.65 Q3.0 -18.7 2.9 -18.7 2.6 -18.6 2.3 -18.8 L1.75 -19.1 1.75 -19.25 1.5 -19.3 Q1.4 -19.15 1.25 -19.1 0.7 -18.95 0.25 -18.65 0.0 -18.5 -0.15 -18.75 0.0 -19.2 -0.75 -18.95 -1.5 -18.75 -2.35 -18.75 L-2.7 -18.75 -2.7 -18.9 -2.65 -19.0 -2.65 -19.05 -0.9 -19.4 0.75 -19.55 0.85 -19.75 1.0 -19.95 Q1.05 -20.15 1.25 -20.25 1.3 -20.3 1.35 -20.3 L1.9 -20.25 Q2.2 -20.15 2.35 -19.9 2.5 -19.75 2.5 -19.55 L2.55 -19.5 2.65 -19.45 2.9 -19.2 3.0 -19.25 3.45 -19.3 Q3.75 -19.25 3.75 -19.0 L3.75 -18.8 M11.35 -13.35 Q11.25 -13.4 11.2 -13.35 11.2 -13.2 11.35 -13.25 11.5 -13.25 11.35 -13.35 M11.2 -12.2 Q11.2 -12.3 11.1 -12.25 11.0 -12.2 11.05 -12.15 11.2 -12.1 11.2 -12.2 M11.3 -10.35 L11.2 -10.25 11.2 -10.0 11.3 -9.95 Q11.45 -9.9 11.5 -10.05 L11.55 -10.15 11.55 -10.2 11.4 -10.35 11.3 -10.35 M10.75 -6.7 L10.75 -6.65 Q10.65 -6.0 10.75 -5.3 L10.8 -4.8 Q10.9 -3.95 10.15 -3.6 10.05 -3.55 10.0 -3.45 9.95 -3.15 10.0 -2.9 10.05 -2.65 10.0 -2.45 9.95 -2.25 10.0 -2.0 9.75 -1.75 9.6 -1.45 9.4 -1.0 9.0 -1.05 L9.05 -0.85 Q9.05 -0.7 8.95 -0.5 8.9 -0.35 8.7 -0.3 8.45 -0.35 8.45 -0.6 8.45 -0.8 8.5 -1.0 8.55 -1.15 8.7 -1.15 L8.75 -1.15 8.7 -1.25 Q8.7 -1.3 8.75 -1.35 L8.85 -1.5 8.9 -1.6 Q8.8 -1.85 9.0 -2.1 9.2 -2.35 9.45 -2.5 L9.6 -2.65 9.55 -3.0 Q9.45 -3.15 9.35 -3.4 9.3 -3.85 9.6 -4.15 L10.0 -4.45 Q10.0 -4.7 9.95 -5.0 9.85 -5.3 9.95 -5.6 10.05 -5.8 10.05 -6.1 L10.2 -6.25 10.25 -6.25 10.25 -6.3 Q10.35 -6.65 10.6 -6.85 L10.75 -6.7 M11.65 -11.0 Q11.75 -10.95 11.75 -11.1 11.7 -11.2 11.6 -11.15 11.65 -11.05 11.65 -11.0 M8.3 0.1 L8.3 0.25 8.25 0.35 Q8.2 0.45 8.1 0.45 7.9 0.45 7.9 0.25 L7.9 0.15 Q7.9 0.05 8.0 0.0 L8.1 -0.05 8.2 0.0 8.3 0.1 M7.65 0.75 Q7.7 0.8 7.6 0.85 7.55 0.95 7.5 1.05 7.5 1.15 7.4 1.2 L7.2 1.25 Q7.15 1.2 7.05 1.15 L7.0 1.1 Q7.0 0.9 7.15 0.85 7.35 0.75 7.55 0.75 L7.65 0.75 M-6.0 -17.5 L-6.0 -17.55 -5.85 -17.65 -5.75 -17.75 -5.6 -18.25 Q-5.5 -18.6 -5.2 -18.7 -4.95 -18.8 -4.75 -18.85 L-4.7 -18.85 -4.6 -18.8 -4.45 -18.65 -4.35 -18.4 Q-4.3 -18.25 -4.2 -18.15 L-4.0 -18.2 -3.9 -18.3 -3.4 -18.7 Q-3.25 -18.85 -3.05 -18.9 L-2.95 -18.85 -2.8 -18.8 -2.7 -18.7 Q-2.75 -18.35 -3.2 -18.25 -3.5 -18.1 -3.75 -17.85 L-3.85 -17.8 Q-4.15 -17.55 -4.55 -17.65 L-4.6 -17.7 -4.65 -17.7 -4.65 -17.8 -4.7 -17.85 -5.05 -17.65 -5.4 -17.35 -5.55 -17.2 -5.7 -17.25 -5.95 -17.3 Q-6.0 -17.4 -6.0 -17.45 L-6.0 -17.5 M-6.15 -17.3 Q-6.0 -17.3 -6.05 -17.15 -6.1 -17.0 -6.15 -17.05 L-6.2 -17.0 Q-6.25 -16.9 -6.3 -16.85 L-6.65 -16.85 -6.75 -16.8 -6.8 -16.7 -6.85 -16.5 Q-6.9 -16.4 -6.95 -16.3 -7.05 -16.25 -7.1 -16.25 L-7.5 -16.05 -7.55 -16.0 -7.55 -15.9 -7.6 -15.8 -7.65 -15.75 Q-7.85 -15.7 -7.9 -15.9 -7.95 -16.05 -7.95 -16.2 L-7.9 -16.35 -7.85 -16.45 Q-7.8 -16.55 -7.75 -16.55 L-7.2 -16.6 -7.15 -16.65 -7.15 -16.75 -7.1 -16.8 -7.1 -16.85 Q-6.9 -16.95 -6.85 -17.15 -6.75 -17.3 -6.6 -17.4 -6.5 -17.5 -6.35 -17.5 -6.2 -17.5 -6.15 -17.3 M-12.25 -9.85 L-12.35 -9.9 -12.45 -10.0 Q-12.5 -10.55 -11.95 -10.8 -11.5 -11.0 -11.1 -11.4 L-10.85 -11.6 -10.85 -11.65 -10.9 -11.7 -10.95 -11.8 -10.95 -12.0 -10.85 -12.1 -10.4 -12.2 -10.3 -12.2 -10.3 -12.25 -10.25 -12.35 -10.3 -12.4 -10.3 -12.7 -10.2 -12.75 Q-10.1 -12.85 -9.95 -12.85 -9.7 -12.85 -9.5 -13.0 L-9.3 -13.15 -9.35 -13.2 Q-9.4 -13.3 -9.4 -13.35 L-9.35 -13.6 -9.2 -13.8 -9.05 -13.9 -8.8 -13.9 -8.55 -13.85 Q-8.3 -13.8 -8.3 -13.6 L-8.3 -13.55 -8.35 -13.5 Q-8.5 -13.4 -8.65 -13.4 L-8.95 -13.45 -8.95 -13.3 -8.9 -13.25 -8.9 -12.95 Q-8.65 -12.9 -8.75 -12.7 -8.8 -12.6 -8.95 -12.8 L-9.0 -12.85 Q-9.05 -12.8 -9.1 -12.8 -9.35 -12.7 -9.4 -12.5 L-9.55 -12.3 -9.6 -12.3 -9.65 -12.25 -9.8 -12.3 -9.85 -12.3 -10.0 -12.15 -10.1 -12.15 -10.05 -12.1 -10.05 -11.8 Q-10.0 -11.75 -10.05 -11.65 L-10.1 -11.6 Q-10.15 -11.6 -10.2 -11.6 L-10.4 -11.6 Q-10.45 -11.35 -10.6 -11.1 -10.75 -10.85 -11.05 -10.75 -11.25 -10.65 -11.25 -10.55 L-11.0 -10.7 -10.95 -10.7 Q-10.75 -10.7 -10.8 -10.5 -10.8 -10.3 -10.9 -10.15 -10.95 -10.05 -11.0 -9.95 L-11.0 -9.85 Q-11.0 -9.75 -11.05 -9.7 L-11.15 -9.55 Q-11.25 -9.6 -11.25 -9.7 -11.25 -9.85 -11.2 -9.95 L-11.05 -10.1 Q-11.15 -10.1 -11.2 -10.05 -11.3 -9.9 -11.45 -9.9 L-11.5 -9.95 -11.5 -10.05 Q-11.65 -10.0 -11.75 -10.05 L-11.85 -10.05 Q-11.7 -9.85 -11.7 -9.65 -11.7 -9.4 -11.8 -9.2 -11.9 -8.8 -12.3 -8.9 L-12.35 -8.95 Q-12.4 -9.0 -12.35 -9.1 L-12.25 -9.4 Q-12.2 -9.5 -12.15 -9.65 L-12.15 -9.75 -12.25 -9.85 M-12.1 -8.0 L-12.25 -7.9 -12.25 -7.8 -12.3 -7.7 -12.35 -7.65 -12.3 -7.55 -12.25 -7.4 Q-12.2 -7.3 -12.25 -7.25 L-12.25 -7.2 -12.3 -7.1 Q-12.4 -7.05 -12.5 -7.05 L-12.6 -7.05 Q-12.55 -6.9 -12.55 -6.8 -12.55 -6.6 -12.7 -6.5 -12.8 -6.4 -12.9 -6.4 L-13.0 -6.55 Q-13.05 -6.65 -12.95 -6.7 L-12.85 -6.8 -12.85 -6.85 -13.0 -7.0 Q-13.0 -7.4 -12.85 -7.75 -12.65 -8.2 -12.25 -8.45 -12.0 -8.65 -11.95 -8.85 -11.8 -8.9 -11.8 -8.75 L-11.75 -8.5 Q-11.75 -8.4 -11.75 -8.3 -11.8 -8.2 -11.85 -8.15 L-12.1 -8.0 M-13.5 -6.05 L-13.15 -6.05 -13.05 -5.75 Q-13.0 -5.5 -13.05 -5.3 -13.05 -5.0 -12.85 -4.85 -12.85 -4.75 -12.9 -4.65 L-13.0 -4.45 Q-13.0 -4.3 -13.0 -4.15 L-12.95 -4.1 -12.95 -3.95 Q-13.0 -4.05 -13.1 -4.0 L-13.1 -3.8 -13.2 -3.7 Q-13.2 -3.6 -13.1 -3.5 L-12.95 -3.3 -12.75 -3.1 -12.75 -2.95 -12.8 -2.75 Q-12.85 -2.6 -12.95 -2.5 L-13.0 -2.45 -13.1 -2.45 Q-13.25 -2.45 -13.35 -2.55 -13.45 -2.65 -13.35 -2.75 L-13.3 -2.8 -13.25 -2.8 -13.15 -2.85 -13.25 -2.9 -13.45 -3.1 Q-13.55 -3.2 -13.5 -3.3 L-13.5 -3.35 -13.55 -3.35 -13.7 -3.4 -13.9 -3.45 -13.95 -3.5 Q-14.05 -3.7 -14.1 -3.9 -14.1 -4.2 -14.0 -4.45 -13.95 -4.65 -13.65 -4.65 -13.5 -4.9 -13.45 -5.1 -13.4 -5.4 -13.55 -5.7 -13.7 -5.95 -13.5 -6.05 M-13.2 -5.1 L-13.25 -4.95 Q-13.25 -4.85 -13.25 -4.75 L-13.3 -4.55 Q-13.25 -4.55 -13.2 -4.7 -13.15 -4.85 -13.15 -4.95 -13.15 -5.1 -13.2 -5.1 M-13.7 -4.15 L-13.75 -4.05 -13.75 -3.95 -13.7 -3.85 -13.7 -3.8 Q-13.6 -3.8 -13.65 -3.9 L-13.7 -4.05 Q-13.7 -4.1 -13.7 -4.15 M-13.25 -3.9 Q-13.2 -4.05 -13.3 -4.0 L-13.3 -3.85 Q-13.25 -3.75 -13.25 -3.9 M-12.8 -4.3 Q-12.9 -4.4 -12.75 -4.4 -12.6 -4.45 -12.65 -4.3 -12.65 -4.2 -12.8 -4.3 M-12.55 -2.55 Q-12.4 -2.55 -12.3 -2.65 L-12.25 -2.7 -12.2 -2.6 Q-12.2 -2.55 -12.25 -2.45 L-12.3 -2.35 Q-12.35 -2.3 -12.25 -2.2 L-12.15 -2.05 Q-12.1 -2.0 -12.1 -1.9 -12.15 -1.75 -12.3 -1.7 -12.5 -1.6 -12.65 -1.75 -12.7 -1.85 -12.65 -1.9 -12.55 -2.0 -12.7 -2.05 -12.75 -2.05 -12.85 -2.1 L-12.85 -2.15 -12.9 -2.25 -12.9 -2.4 Q-12.75 -2.55 -12.55 -2.55 M-11.75 -1.5 L-11.7 -1.55 -11.6 -1.55 Q-11.4 -1.6 -11.35 -1.4 -11.35 -1.2 -11.5 -1.15 L-11.65 -1.1 -11.7 -1.05 -11.85 -1.0 -11.95 -0.95 Q-12.05 -1.0 -12.05 -1.05 L-12.15 -1.2 Q-12.2 -1.25 -12.25 -1.35 L-12.25 -1.4 -12.15 -1.5 -11.85 -1.55 -11.75 -1.5 M-10.95 -10.3 Q-10.9 -10.4 -10.95 -10.35 L-10.95 -10.3 M-11.2 -0.7 L-11.05 -0.65 -10.95 -0.6 -10.95 -0.65 Q-10.9 -0.75 -10.8 -0.75 -10.7 -0.6 -10.85 -0.55 L-10.75 -0.45 Q-10.8 -0.3 -10.9 -0.3 -11.2 -0.2 -11.3 -0.45 -11.4 -0.65 -11.2 -0.65 L-11.2 -0.7 M-10.15 -0.1 Q-9.85 -0.15 -9.95 0.05 L-9.95 0.2 Q-9.9 0.3 -10.0 0.35 L-10.15 0.35 Q-10.25 0.4 -10.3 0.3 L-10.35 0.2 -10.25 0.0 Q-10.25 -0.05 -10.15 -0.1" fill="#ccfffe" fill-opacity="0.7529412" fill-rule="evenodd" stroke="none"/>
      <path d="M3.4 -18.85 L3.5 -18.75 3.55 -18.65 Q4.3 -18.6 4.95 -18.35 L5.7 -18.3 Q5.85 -18.35 5.85 -18.2 5.4 -17.7 4.75 -18.0 4.25 -18.25 3.6 -18.35 3.3 -18.4 3.15 -18.75 L2.8 -18.8 Q2.6 -18.9 2.25 -18.95 L2.15 -18.95 2.1 -19.05 Q2.1 -19.15 2.05 -19.2 L1.85 -19.4 Q1.75 -19.45 1.75 -19.55 L1.7 -19.55 Q1.45 -19.55 1.25 -19.3 0.95 -19.05 0.55 -18.95 0.3 -18.95 0.2 -19.1 L-1.0 -18.95 Q-1.6 -18.95 -2.2 -18.95 -2.25 -18.95 -2.25 -19.0 L-2.3 -18.95 -2.45 -18.85 -2.7 -18.85 Q-2.3 -19.1 -1.7 -19.2 -0.8 -19.4 0.1 -19.4 0.25 -19.4 0.25 -19.25 L0.55 -19.4 0.95 -19.75 Q1.15 -19.95 1.4 -20.0 1.65 -20.0 1.85 -19.8 2.0 -19.65 2.15 -19.5 2.3 -19.45 2.4 -19.25 2.65 -19.15 2.95 -19.05 L3.35 -19.0 3.35 -18.95 3.4 -18.85 M1.05 -18.75 L0.95 -18.55 0.9 -18.4 0.9 -18.35 1.0 -18.3 1.05 -18.2 1.1 -18.2 1.0 -17.85 Q1.0 -17.7 0.8 -17.6 L0.45 -17.45 Q0.45 -17.2 0.5 -16.9 0.55 -16.6 0.4 -16.35 0.25 -16.1 0.0 -16.1 0.05 -16.2 0.15 -16.25 0.3 -16.3 0.35 -16.45 0.4 -16.55 0.35 -16.65 L0.25 -16.7 Q0.25 -16.75 0.25 -16.8 L0.3 -16.95 0.35 -17.0 Q0.25 -17.05 0.2 -17.2 L0.05 -17.45 Q0.0 -17.55 0.0 -17.7 0.1 -17.85 0.2 -17.85 0.55 -17.8 0.8 -17.9 L0.8 -17.95 0.85 -18.05 0.9 -18.1 0.9 -18.15 Q0.8 -18.25 0.8 -18.4 L0.85 -18.65 Q0.9 -18.75 1.0 -18.85 1.15 -18.85 1.05 -18.75 M5.6 -17.05 L5.75 -17.15 5.8 -17.2 5.8 -17.4 5.9 -17.45 6.1 -17.45 6.25 -17.4 Q6.3 -17.35 6.4 -17.3 6.4 -17.2 6.55 -17.1 L6.65 -17.05 Q6.75 -16.95 6.75 -16.85 L6.75 -16.7 Q6.7 -16.65 6.65 -16.8 L6.6 -16.9 6.4 -17.05 Q6.3 -17.15 6.35 -17.25 L6.0 -17.3 5.95 -17.3 5.95 -17.2 Q5.95 -17.15 5.9 -17.1 L5.65 -16.85 5.8 -16.7 Q5.85 -16.65 5.8 -16.6 L5.8 -16.55 5.7 -16.35 Q5.6 -16.25 5.45 -16.25 5.2 -16.15 5.0 -16.35 L4.65 -16.2 Q4.4 -16.1 4.25 -16.3 L4.25 -16.35 4.15 -16.3 4.1 -16.25 4.0 -16.2 4.0 -16.15 3.95 -16.1 3.95 -15.9 Q4.0 -15.8 4.0 -15.75 4.1 -15.55 4.1 -15.4 L4.15 -15.1 Q4.1 -15.0 4.0 -15.0 L3.75 -14.9 Q3.55 -14.85 3.55 -15.0 L3.65 -15.05 3.8 -15.15 3.85 -15.15 3.95 -15.25 Q4.0 -15.35 3.95 -15.45 L3.85 -15.6 Q3.8 -15.75 3.8 -15.9 L3.75 -16.2 3.85 -16.25 3.9 -16.4 3.95 -16.4 4.0 -16.55 4.05 -16.55 Q4.3 -16.65 4.5 -16.7 4.9 -16.75 5.15 -16.5 L5.25 -16.4 5.4 -16.35 Q5.55 -16.35 5.65 -16.4 L5.65 -16.45 5.7 -16.5 5.65 -16.55 5.6 -16.7 Q5.5 -16.7 5.5 -16.8 L5.55 -16.9 5.55 -17.0 5.6 -17.05 M6.05 -18.25 Q6.45 -18.3 6.6 -17.95 6.75 -17.55 7.05 -17.35 7.2 -17.15 7.5 -17.15 L7.55 -17.0 7.6 -16.9 7.6 -16.8 Q7.6 -16.75 7.6 -16.65 7.9 -16.45 8.2 -16.25 8.6 -16.05 9.0 -15.95 9.1 -15.9 9.1 -15.75 9.2 -15.75 9.3 -15.65 L9.4 -15.5 Q9.5 -15.4 9.5 -15.25 L9.5 -15.15 9.55 -15.1 9.75 -15.05 9.9 -15.0 9.95 -14.9 9.95 -14.7 10.2 -14.5 10.3 -14.35 Q10.3 -14.2 10.45 -14.15 11.45 -13.95 11.4 -12.85 11.4 -12.25 11.55 -11.75 11.85 -10.85 11.55 -10.05 L11.4 -9.55 11.45 -9.55 11.55 -9.45 Q11.65 -9.0 11.5 -8.6 11.35 -8.2 11.2 -7.75 11.15 -7.4 10.85 -7.2 L10.85 -7.0 10.75 -6.95 Q10.65 -7.15 10.7 -7.35 10.75 -7.65 11.0 -7.85 L11.25 -8.15 11.25 -8.3 Q11.25 -8.4 11.3 -8.5 L11.35 -8.6 Q11.3 -8.65 11.25 -8.75 L11.15 -9.05 11.1 -9.05 Q11.05 -9.05 11.0 -9.1 10.9 -9.15 10.95 -9.05 10.95 -9.0 10.9 -8.95 L10.5 -8.7 Q10.1 -8.5 9.9 -8.9 9.85 -9.0 9.9 -9.05 L9.9 -9.1 10.05 -9.1 10.3 -9.05 10.4 -9.1 Q10.6 -9.15 10.6 -9.35 10.65 -9.5 10.8 -9.5 L11.15 -9.5 11.3 -9.55 11.2 -9.85 Q11.15 -10.1 11.15 -10.35 11.15 -10.55 11.2 -10.8 L11.25 -10.9 11.3 -10.95 11.4 -10.95 11.45 -11.0 11.5 -11.2 11.5 -11.65 11.3 -11.85 11.0 -12.05 10.95 -12.15 10.9 -12.4 10.95 -12.65 Q11.0 -12.8 11.05 -12.95 L11.1 -13.05 Q10.95 -13.45 10.6 -13.75 10.15 -14.1 9.6 -14.25 9.3 -14.3 9.4 -14.65 L9.2 -14.85 9.2 -15.1 8.9 -15.5 Q8.8 -15.6 8.8 -15.75 L8.8 -15.8 Q8.5 -16.0 8.15 -16.0 7.65 -16.0 7.35 -16.4 L7.3 -16.5 7.3 -16.7 7.35 -16.75 7.35 -16.8 6.95 -17.1 Q6.85 -17.2 6.8 -17.4 L6.75 -17.55 Q6.55 -17.65 6.4 -17.85 L6.05 -18.15 Q5.95 -18.25 6.05 -18.25 M7.15 -14.25 L7.2 -14.25 7.25 -14.2 7.35 -14.2 7.35 -14.15 7.2 -14.1 7.05 -13.95 7.5 -13.6 Q7.75 -13.45 8.0 -13.35 8.15 -13.3 8.3 -13.15 8.25 -12.95 8.15 -12.8 8.0 -12.65 7.85 -12.5 7.55 -12.35 7.25 -12.35 L7.2 -12.3 7.15 -12.3 7.05 -12.2 Q6.95 -12.2 6.85 -12.25 L6.7 -12.3 Q6.6 -12.35 6.6 -12.2 L6.45 -12.2 6.45 -12.35 6.55 -12.45 6.7 -12.45 Q6.85 -12.6 7.05 -12.65 7.3 -12.8 7.6 -12.75 L7.95 -12.7 8.05 -12.75 8.1 -12.9 8.15 -12.95 8.2 -13.05 8.25 -13.1 Q7.95 -13.15 7.75 -13.3 L7.35 -13.6 7.25 -13.7 7.0 -13.75 Q6.95 -13.75 6.9 -13.8 L6.85 -13.85 6.85 -13.95 7.15 -14.25 M7.75 -14.6 Q8.05 -14.6 8.05 -14.3 8.05 -14.0 8.2 -13.75 8.25 -13.6 8.35 -13.45 L8.65 -13.35 8.75 -13.35 8.8 -13.4 8.8 -13.5 8.85 -13.6 8.9 -13.75 Q8.95 -13.8 9.0 -13.8 L9.2 -13.95 9.45 -14.15 9.55 -14.05 Q9.6 -13.95 9.75 -13.9 L9.9 -13.75 9.7 -13.8 Q9.55 -13.8 9.5 -13.95 L9.45 -13.9 9.4 -13.9 9.4 -13.85 9.3 -13.85 Q9.35 -13.65 9.25 -13.55 8.85 -13.2 8.4 -13.25 L8.25 -13.25 Q8.15 -13.35 8.15 -13.5 L8.05 -13.9 Q8.0 -14.1 7.95 -14.3 L7.85 -14.4 7.75 -14.4 7.6 -14.35 7.65 -14.4 7.65 -14.55 7.7 -14.6 7.75 -14.6 M7.5 -9.4 Q7.75 -9.5 7.9 -9.3 8.05 -9.15 8.3 -9.15 8.45 -9.15 8.5 -9.0 L8.55 -9.0 8.85 -8.95 9.05 -9.0 Q8.95 -8.85 8.7 -8.8 L8.1 -8.9 Q7.85 -8.95 7.7 -9.1 L7.35 -9.1 7.35 -9.15 7.3 -9.2 7.3 -9.25 7.45 -9.4 7.5 -9.4 M10.0 -10.3 Q10.1 -10.25 10.1 -10.2 10.15 -10.1 10.1 -10.0 L10.0 -9.9 Q9.95 -9.8 9.95 -9.65 L10.0 -9.4 Q10.0 -9.25 10.05 -9.1 9.85 -9.15 9.8 -9.4 9.75 -9.55 9.75 -9.8 9.8 -10.05 10.0 -10.05 L10.05 -10.1 9.95 -10.25 Q9.95 -10.3 10.0 -10.3 M9.4 -10.25 Q9.45 -10.2 9.45 -10.15 L9.35 -10.0 9.3 -9.95 9.3 -9.8 Q9.3 -9.75 9.35 -9.7 L9.3 -9.55 9.4 -9.45 9.4 -9.35 9.35 -9.25 Q9.15 -9.1 9.05 -9.3 L9.05 -9.45 9.1 -9.5 9.05 -9.55 Q9.05 -9.6 9.1 -9.65 L9.15 -9.75 9.1 -9.8 9.05 -9.9 9.05 -10.05 Q9.05 -10.15 9.15 -10.15 L9.35 -10.2 Q9.4 -10.2 9.4 -10.25 M10.6 -6.4 L10.65 -6.45 10.65 -6.2 10.55 -6.05 Q10.5 -6.0 10.45 -6.0 10.4 -6.1 10.45 -6.2 L10.55 -6.35 10.6 -6.4 M10.25 -5.65 L10.25 -5.6 10.3 -5.75 10.55 -6.0 Q10.6 -5.55 10.55 -5.1 10.5 -4.65 10.4 -4.2 10.35 -3.9 10.05 -3.75 10.15 -3.55 10.05 -3.35 9.95 -3.1 9.75 -2.95 L9.65 -2.9 9.7 -2.75 Q9.75 -2.7 9.8 -2.65 9.85 -2.6 9.85 -2.5 9.85 -2.15 9.6 -1.9 9.45 -1.8 9.4 -1.6 9.35 -1.35 9.15 -1.3 9.05 -1.4 9.05 -1.5 L9.0 -1.7 Q8.95 -1.75 8.95 -1.8 9.05 -2.0 9.2 -2.05 9.35 -2.1 9.45 -2.2 9.55 -2.25 9.6 -2.35 L9.6 -2.65 Q9.55 -2.7 9.6 -2.85 L9.6 -2.9 9.55 -2.95 Q9.45 -3.15 9.5 -3.3 9.6 -3.45 9.55 -3.65 9.5 -3.75 9.5 -3.85 9.6 -4.05 9.75 -4.1 L10.15 -4.3 Q10.35 -4.65 10.2 -4.95 10.1 -5.2 10.2 -5.4 L10.1 -5.4 10.05 -5.45 10.0 -5.45 10.0 -5.55 9.95 -5.55 9.95 -5.5 9.9 -5.4 9.85 -5.35 Q9.75 -5.3 9.65 -5.3 L9.25 -5.25 Q9.2 -5.05 9.05 -5.0 8.8 -4.8 8.45 -4.8 8.4 -4.8 8.4 -4.9 8.35 -5.0 8.45 -5.05 8.6 -5.25 8.85 -5.25 9.0 -5.3 8.95 -5.4 9.0 -5.55 9.1 -5.5 L9.5 -5.45 9.65 -5.45 9.65 -5.65 9.75 -5.8 Q9.8 -5.85 9.85 -5.85 L10.0 -5.85 10.15 -5.75 10.25 -5.65 M8.3 -5.85 L8.35 -5.8 Q8.4 -5.75 8.4 -5.65 L8.4 -5.5 8.35 -5.25 8.35 -5.05 Q8.25 -5.1 8.2 -5.2 8.15 -5.25 8.2 -5.35 8.2 -5.5 8.3 -5.65 L8.35 -5.7 Q8.3 -5.85 8.15 -5.85 L7.95 -5.85 Q7.8 -5.85 8.0 -5.95 L8.1 -5.9 8.15 -5.9 8.3 -5.85 M8.15 -3.7 L8.35 -3.65 8.55 -3.45 8.65 -3.3 8.65 -3.25 8.6 -3.2 8.55 -3.05 Q8.45 -3.0 8.6 -2.95 L8.55 -2.95 Q8.4 -2.9 8.3 -3.05 8.25 -3.15 8.35 -3.2 L8.35 -3.25 8.3 -3.3 8.3 -3.35 8.25 -3.35 8.25 -3.4 8.1 -3.4 Q8.0 -3.3 7.95 -3.2 7.9 -3.05 7.7 -3.0 7.65 -3.1 7.7 -3.2 L7.9 -3.45 8.15 -3.7 M8.65 -2.9 Q8.75 -2.8 8.65 -2.6 L8.5 -2.3 Q8.4 -2.2 8.6 -2.25 8.7 -2.15 8.55 -2.0 8.45 -1.9 8.25 -2.0 L8.2 -2.0 Q8.15 -2.15 8.15 -2.3 8.1 -2.45 8.25 -2.55 L8.45 -2.65 8.5 -2.8 Q8.5 -2.85 8.55 -2.9 L8.65 -2.9 M7.7 -2.8 Q7.3 -2.3 6.8 -2.75 6.65 -2.85 6.7 -3.0 6.7 -3.1 6.8 -3.1 L7.0 -3.0 Q7.05 -2.95 7.1 -2.85 L7.15 -2.75 Q7.2 -2.6 7.4 -2.7 7.55 -2.8 7.7 -2.8 M9.15 -1.2 Q9.15 -1.3 9.25 -1.35 9.3 -1.25 9.2 -1.2 L9.15 -1.2 M8.8 -0.65 Q8.7 -0.45 8.6 -0.65 8.6 -0.8 8.7 -0.8 8.9 -0.85 8.8 -0.65 M7.95 0.05 Q8.15 0.15 8.1 0.3 8.05 0.45 7.95 0.5 7.75 0.6 7.7 0.45 L7.7 0.3 7.75 0.2 7.85 0.1 7.95 0.1 7.95 0.05 M7.1 1.2 Q6.9 1.35 6.9 1.2 6.9 1.1 7.0 1.05 7.2 1.1 7.1 1.2 M-6.4 -17.2 L-6.4 -17.25 -6.25 -17.3 -6.2 -17.35 -6.15 -17.35 Q-6.0 -17.3 -6.05 -17.2 -6.1 -17.1 -6.2 -17.1 L-6.4 -17.2 M-6.7 -17.2 Q-6.6 -16.9 -6.95 -16.7 -7.25 -16.55 -7.45 -16.3 -7.65 -16.05 -7.85 -16.05 -7.75 -16.4 -7.4 -16.6 -7.1 -16.7 -6.95 -16.9 -6.85 -17.1 -6.7 -17.2 M-6.55 -16.35 L-6.3 -16.25 -6.0 -16.1 Q-5.95 -16.15 -5.85 -16.25 L-5.75 -16.35 Q-5.7 -16.45 -5.65 -16.6 -5.55 -16.7 -5.45 -16.7 L-5.25 -16.75 -5.2 -16.75 Q-5.2 -16.7 -5.3 -16.65 L-5.45 -16.6 -5.6 -16.5 -5.6 -16.3 Q-5.65 -16.2 -5.75 -16.1 -5.85 -16.0 -6.0 -15.95 -6.15 -15.95 -6.25 -16.05 -6.45 -16.15 -6.65 -16.25 L-6.7 -16.25 -6.8 -16.05 -6.9 -16.0 Q-6.95 -15.95 -7.0 -15.95 -7.1 -16.0 -7.05 -16.05 L-6.95 -16.25 -6.8 -16.45 Q-6.7 -16.5 -6.55 -16.35 M-7.75 -16.05 Q-7.7 -15.95 -7.8 -15.9 -7.9 -15.85 -7.85 -16.0 L-7.75 -16.05 M-2.55 -17.9 Q-2.6 -18.0 -2.65 -18.0 -2.7 -17.95 -2.65 -17.9 -2.5 -17.8 -2.55 -17.9 M-2.75 -18.2 Q-2.55 -18.2 -2.4 -18.05 L-2.2 -17.8 Q-2.05 -17.7 -2.15 -17.65 -2.25 -17.6 -2.15 -17.4 -2.05 -17.25 -2.05 -17.05 -2.05 -16.85 -2.1 -16.65 L-2.15 -16.55 -2.2 -16.5 -2.3 -16.5 -2.3 -16.35 -2.4 -16.25 -2.5 -16.2 Q-2.55 -16.15 -2.6 -16.25 L-2.65 -16.45 Q-2.65 -16.5 -2.6 -16.6 L-2.5 -16.7 -2.35 -16.7 -2.25 -16.65 -2.2 -16.65 -2.15 -16.7 Q-2.15 -16.75 -2.15 -16.8 L-2.15 -16.9 Q-2.1 -16.95 -2.1 -17.05 -2.1 -17.15 -2.2 -17.2 -2.35 -17.2 -2.4 -17.35 L-2.45 -17.5 -2.5 -17.6 -2.75 -17.75 Q-2.9 -17.85 -2.9 -17.95 -2.9 -18.15 -2.75 -18.2 M-5.1 -18.25 Q-4.95 -18.45 -4.7 -18.45 -4.55 -18.4 -4.45 -18.3 -4.35 -18.2 -4.2 -18.15 -4.15 -18.1 -4.1 -18.1 -3.85 -18.15 -3.6 -18.35 L-3.15 -18.65 -2.95 -18.8 Q-2.9 -18.5 -3.45 -18.25 -3.85 -18.0 -4.3 -17.9 -4.7 -17.75 -4.8 -18.1 -5.15 -17.95 -5.35 -17.7 -5.5 -17.5 -5.65 -17.35 -5.9 -17.15 -6.0 -17.35 -5.8 -17.55 -5.55 -17.8 -5.3 -18.0 -5.1 -18.25 M-4.7 -16.25 L-4.7 -16.35 -4.75 -16.45 -4.85 -16.55 Q-4.9 -16.6 -4.85 -16.65 L-4.8 -16.7 -4.5 -16.45 Q-4.4 -16.3 -4.35 -16.1 L-4.35 -15.8 -4.4 -15.7 -4.5 -15.65 -4.55 -15.6 Q-4.65 -15.65 -4.65 -15.75 -4.65 -15.9 -4.7 -16.0 -4.75 -16.15 -4.7 -16.25 M-12.1 -8.9 Q-12.25 -9.05 -12.15 -9.25 -12.1 -9.4 -12.15 -9.5 -12.25 -9.7 -12.25 -9.85 -12.15 -9.9 -12.15 -10.0 L-12.2 -10.15 -12.2 -10.2 Q-11.75 -10.75 -11.15 -11.2 -10.85 -11.45 -10.65 -11.8 -10.55 -12.0 -10.35 -12.05 -10.4 -11.3 -11.1 -10.95 -11.95 -10.55 -11.95 -9.75 -11.9 -9.3 -12.1 -8.9 M-12.1 -8.8 L-12.05 -8.8 Q-11.85 -8.5 -12.05 -8.2 -12.25 -7.9 -12.4 -7.6 -12.5 -7.4 -12.65 -7.25 L-12.65 -7.1 -12.6 -6.95 -12.6 -6.8 Q-12.8 -6.65 -12.85 -6.9 L-12.95 -7.15 -12.95 -7.25 -12.7 -7.55 Q-12.5 -7.7 -12.55 -7.85 L-12.55 -8.0 -12.15 -8.4 -12.1 -8.5 -12.15 -8.65 -12.1 -8.75 -12.1 -8.8 M-12.15 -5.65 Q-12.25 -5.75 -12.15 -5.75 -12.0 -5.75 -12.05 -5.65 -12.1 -5.5 -12.15 -5.65 M-12.9 -6.5 Q-12.95 -6.45 -13.0 -6.4 L-13.15 -6.3 Q-13.15 -6.45 -13.1 -6.5 -13.0 -6.55 -12.95 -6.6 -12.95 -6.7 -12.9 -6.7 -12.85 -6.6 -12.9 -6.5 M-13.15 -5.45 Q-13.05 -5.25 -13.0 -5.0 -12.95 -4.8 -13.0 -4.6 -13.15 -4.5 -13.25 -4.45 -13.45 -4.4 -13.55 -4.25 L-13.65 -4.15 Q-13.55 -3.8 -13.35 -3.55 -13.15 -3.25 -12.95 -3.0 -12.8 -2.85 -12.85 -2.65 -12.9 -2.5 -13.05 -2.5 -13.2 -2.55 -13.3 -2.65 -13.4 -2.7 -13.35 -2.8 L-13.3 -2.95 Q-13.25 -3.0 -13.25 -3.1 -13.35 -3.3 -13.65 -3.4 -13.9 -3.5 -14.05 -3.75 L-14.05 -3.8 Q-14.05 -4.05 -14.0 -4.25 -13.9 -4.45 -13.7 -4.6 L-13.4 -4.85 Q-13.45 -5.0 -13.4 -5.25 -13.4 -5.45 -13.4 -5.65 -13.45 -5.85 -13.3 -5.95 L-13.15 -5.45 M-11.6 -4.6 L-11.6 -4.85 Q-11.6 -4.95 -11.55 -5.0 L-11.5 -5.0 -11.4 -5.05 -11.15 -5.05 -10.85 -5.0 Q-10.7 -4.95 -10.65 -4.8 -10.6 -4.7 -10.5 -4.65 L-10.5 -4.55 Q-10.35 -4.5 -10.4 -4.4 L-10.45 -4.35 -10.5 -4.35 -10.6 -4.4 -10.65 -4.45 Q-10.7 -4.5 -10.65 -4.55 L-10.65 -4.6 -10.8 -4.75 -10.85 -4.85 -10.85 -4.9 -10.9 -4.9 -11.1 -4.85 Q-11.15 -4.85 -11.25 -4.8 L-11.3 -4.8 Q-11.35 -4.75 -11.35 -4.7 -11.35 -4.55 -11.4 -4.4 -11.5 -4.25 -11.65 -4.15 L-11.8 -4.0 -11.9 -4.0 -12.05 -4.05 Q-12.1 -4.05 -12.2 -4.15 L-12.2 -4.2 -12.3 -4.2 Q-12.5 -4.25 -12.65 -4.15 L-12.65 -4.0 -12.6 -3.9 -12.55 -3.85 -12.7 -3.85 -12.8 -3.95 -12.8 -4.0 -12.85 -4.0 -12.85 -4.3 Q-12.8 -4.4 -12.7 -4.45 L-12.1 -4.5 Q-11.95 -4.45 -11.95 -4.35 L-11.95 -4.3 -11.9 -4.3 -11.6 -4.6 M-12.2 -2.8 L-12.2 -2.85 Q-12.2 -3.05 -12.05 -3.2 -11.8 -3.4 -11.45 -3.4 L-11.0 -3.35 -10.95 -3.35 -10.95 -3.3 Q-10.95 -3.25 -10.85 -3.2 -10.75 -3.2 -10.8 -3.1 L-10.8 -3.05 -10.9 -3.05 -11.0 -3.25 -11.05 -3.25 -11.6 -3.3 -11.6 -3.25 -11.75 -3.0 Q-11.85 -2.85 -11.95 -2.8 -12.05 -2.7 -12.2 -2.8 M-12.55 -1.95 L-12.7 -2.1 -12.75 -2.25 Q-12.8 -2.35 -12.7 -2.35 L-12.5 -2.25 -12.4 -2.15 Q-12.35 -2.1 -12.4 -2.0 -12.5 -1.9 -12.45 -1.75 L-12.4 -1.5 -12.45 -1.5 -12.55 -1.6 -12.55 -1.95 M-11.75 -1.15 Q-11.8 -1.0 -11.9 -1.05 -12.05 -1.15 -12.15 -1.25 -12.2 -1.35 -12.15 -1.35 L-12.05 -1.4 -11.95 -1.35 -11.75 -1.15 M-8.6 -12.85 L-8.75 -12.7 -8.85 -12.65 -8.7 -12.55 Q-8.65 -12.5 -8.6 -12.45 -8.5 -12.45 -8.45 -12.35 L-8.15 -12.35 Q-8.1 -12.25 -8.1 -12.15 -8.15 -12.0 -8.2 -11.9 L-8.35 -11.7 -8.4 -11.65 Q-8.5 -11.7 -8.5 -11.75 L-8.3 -12.05 Q-8.2 -12.1 -8.25 -12.15 -8.4 -12.25 -8.65 -12.25 -8.8 -12.25 -8.9 -12.4 -9.0 -12.5 -9.0 -12.6 L-8.95 -12.75 -8.85 -12.8 -8.7 -12.85 -8.6 -12.95 Q-8.5 -12.9 -8.6 -12.85 M-9.0 -13.4 L-9.1 -13.15 Q-9.2 -12.9 -9.4 -12.8 L-9.5 -12.7 -9.85 -12.7 -9.9 -12.6 -9.85 -12.5 Q-9.9 -12.4 -9.95 -12.35 -10.1 -12.25 -10.25 -12.2 -10.3 -12.15 -10.45 -12.25 L-10.35 -12.35 -10.35 -12.65 -10.25 -12.75 -10.1 -12.75 -10.0 -12.7 -10.0 -12.85 -9.95 -12.9 -9.6 -12.9 Q-9.55 -13.0 -9.55 -13.1 -9.6 -13.25 -9.55 -13.35 -9.4 -13.55 -9.15 -13.65 -9.05 -13.7 -8.95 -13.7 L-8.9 -13.7 -8.7 -13.65 -8.9 -13.6 -9.0 -13.4 M-9.8 -9.15 Q-10.0 -8.85 -10.55 -9.1 L-10.6 -9.2 -10.7 -9.5 -10.5 -9.75 -10.3 -10.05 Q-10.2 -10.15 -10.25 -10.25 L-10.3 -10.25 Q-10.45 -10.15 -10.55 -10.25 L-10.6 -10.3 Q-10.65 -10.25 -10.7 -10.25 L-10.85 -10.15 -10.95 -9.9 Q-11.0 -9.8 -11.1 -9.7 L-11.2 -9.5 -11.45 -9.55 -11.55 -9.65 -11.5 -9.75 -11.45 -9.8 Q-11.35 -9.85 -11.3 -9.75 -11.2 -9.8 -11.1 -9.9 -11.0 -10.0 -11.0 -10.1 L-10.9 -10.25 Q-10.85 -10.35 -10.75 -10.35 -10.7 -10.35 -10.65 -10.35 L-10.6 -10.4 -10.55 -10.5 -10.45 -10.55 -10.4 -10.6 -10.3 -10.55 -10.25 -10.55 Q-10.15 -10.35 -10.1 -10.15 -10.1 -9.9 -10.25 -9.65 -10.3 -9.5 -10.45 -9.35 L-9.8 -9.2 -9.8 -9.15 M-10.15 -4.3 L-10.05 -4.25 -10.2 -4.2 Q-10.3 -4.15 -10.35 -4.3 -10.4 -4.35 -10.35 -4.35 L-10.3 -4.35 -10.25 -4.3 -10.15 -4.3 M-10.75 -3.15 Q-10.8 -3.2 -10.75 -3.2 L-10.75 -3.15 M-11.1 -0.45 Q-11.15 -0.25 -11.25 -0.45 -11.35 -0.55 -11.25 -0.6 -11.1 -0.55 -11.1 -0.45 M-10.1 0.05 Q-10.05 0.1 -10.05 0.15 L-10.1 0.2 Q-10.2 0.35 -10.35 0.25 -10.45 0.2 -10.4 0.05 L-10.3 0.05 -10.3 0.0 -10.2 0.05 Q-10.15 0.05 -10.1 0.05" fill="#ffffff" fill-opacity="0.7529412" fill-rule="evenodd" stroke="none"/>
      <path d="M1.65 -17.7 L1.85 -17.8 2.05 -17.8 Q5.55 -16.8 7.55 -13.75 9.55 -10.75 9.65 -7.1 9.65 -5.05 8.85 -3.4 L8.85 -3.45 Q9.0 -4.5 8.9 -5.7 8.7 -7.95 8.0 -10.1 7.35 -12.3 6.0 -14.25 L5.5 -14.85 4.85 -15.55 Q3.45 -16.9 1.6 -17.65 L1.6 -17.7 1.45 -17.7 1.45 -17.75 1.65 -17.7 M9.45 -20.6 Q12.75 -19.1 14.3 -15.8 14.95 -14.5 15.1 -13.1 L15.05 -13.75 Q15.8 -10.75 15.1 -7.65 14.35 -4.6 12.65 -1.9 12.05 -1.0 11.25 -0.4 L11.2 -0.25 Q11.0 0.65 10.3 0.85 L10.3 0.65 Q10.1 0.75 9.9 0.85 L10.2 0.5 Q9.9 0.7 9.6 0.75 L10.35 -0.1 Q10.45 -0.95 10.7 -1.85 12.1 -7.55 10.4 -13.0 10.0 -14.15 9.15 -15.05 4.7 -19.85 -2.0 -19.15 L-4.25 -18.8 Q-5.5 -18.55 -6.65 -18.15 L-7.55 -17.45 Q-7.5 -17.7 -7.4 -17.9 L-7.5 -17.8 Q-7.45 -18.05 -7.15 -18.25 L-7.0 -18.3 Q-5.9 -19.25 -4.6 -19.95 -1.3 -21.8 2.5 -22.05 6.15 -22.1 9.45 -20.6 M-8.75 -15.5 L-8.7 -15.45 -8.6 -15.5 -8.65 -15.4 Q-8.6 -15.3 -8.75 -15.2 -9.05 -14.65 -9.8 -14.0 -11.95 -12.1 -12.9 -9.35 -14.15 -5.65 -12.65 -2.1 -12.1 -0.85 -11.3 0.25 -10.85 0.35 -10.75 0.75 L-10.9 0.75 Q-10.9 0.8 -10.95 0.85 L-11.05 0.75 Q-12.05 0.75 -13.0 0.15 -14.5 -0.25 -15.25 -2.0 -16.35 -4.55 -16.0 -7.35 -15.3 -12.25 -10.8 -14.7 -9.8 -15.25 -8.75 -15.5 M-10.5 -9.9 Q-10.1 -12.15 -8.45 -13.5 L-8.4 -13.45 Q-8.85 -12.75 -9.1 -11.9 -9.8 -9.55 -9.85 -7.05 -9.85 -5.4 -9.45 -4.0 -10.45 -4.25 -10.65 -5.65 -10.9 -7.8 -10.5 -9.9" fill="#ffffff" fill-opacity="0.7529412" fill-rule="evenodd" stroke="none"/>
    </g>
    <g id="shape1" transform="matrix(1.0, 0.0, 0.0, 1.0, 6.05, 8.65)">
      <path d="M1.0 -5.35 Q1.1 -5.25 1.3 -5.0 1.45 -4.8 1.5 -4.7 1.6 -4.5 1.6 -4.15 L-2.0 -4.0 -0.9 -2.0 -1.6 0.15 -2.65 -1.05 -4.25 -0.35 -3.85 0.75 -3.2 1.45 Q-3.45 1.85 -4.85 1.85 -5.55 1.85 -5.55 1.55 -5.55 1.45 -5.5 1.4 L-5.0 1.35 Q-5.35 1.3 -5.45 1.15 -5.55 1.0 -5.55 0.85 -5.55 0.75 -5.5 0.75 L-5.4 0.7 Q-5.1 0.6 -4.85 0.4 -4.95 0.3 -5.15 0.15 L-5.55 -0.05 Q-6.05 -0.35 -6.05 -0.55 -6.05 -0.7 -5.95 -0.75 -5.85 -0.8 -5.55 -0.8 L-5.15 -0.75 -4.6 -0.7 Q-4.95 -1.15 -5.1 -1.45 -5.25 -1.8 -5.25 -2.25 L-5.25 -2.55 -5.15 -2.6 -5.0 -2.6 Q-4.75 -2.6 -4.6 -2.35 -4.4 -2.05 -4.35 -2.0 -4.25 -2.45 -3.95 -2.85 L-3.85 -3.1 Q-3.8 -3.25 -3.8 -3.45 -3.8 -3.55 -3.85 -3.9 -3.95 -4.2 -3.95 -4.3 -3.95 -4.5 -3.85 -4.6 -3.8 -4.65 -3.55 -4.65 -3.4 -4.65 -2.95 -4.3 -2.5 -3.85 -2.4 -3.8 L-2.3 -3.9 Q-2.25 -3.95 -2.25 -4.05 -2.25 -4.15 -2.35 -4.3 L-2.5 -4.6 Q-2.75 -4.95 -2.75 -5.35 -2.75 -5.55 -2.65 -5.6 -2.6 -5.65 -2.4 -5.7 -2.35 -5.7 -2.25 -5.75 L-2.2 -5.85 -2.0 -6.3 -1.95 -6.35 -1.9 -6.7 Q-1.8 -7.05 -1.75 -7.2 -1.7 -7.55 -1.65 -7.8 L-1.6 -7.9 Q-1.55 -8.15 -1.45 -8.3 -1.1 -9.05 -0.45 -8.15 -0.05 -7.45 0.6 -6.1 0.8 -5.65 1.0 -5.35 M1.75 -2.4 Q1.95 -2.4 2.0 -2.1 2.05 -2.1 2.05 -1.8 L2.1 -1.8 Q2.1 -1.95 2.1 -2.05 L2.15 -2.05 Q2.2 -2.05 2.3 -2.05 2.45 -2.05 2.55 -1.5 2.6 -1.2 2.6 -0.9 L2.6 -0.4 Q2.6 0.05 2.55 0.3 L2.5 0.3 2.5 0.4 2.15 0.2 1.4 -0.9 -0.2 -2.0 -0.05 -3.35 Q0.1 -3.15 0.1 -3.1 0.05 -3.05 0.05 -3.0 0.05 -2.9 0.05 -2.8 0.1 -2.8 0.15 -2.7 0.2 -2.7 0.4 -2.8 L0.55 -2.9 Q1.0 -2.9 1.15 -2.6 1.2 -2.45 1.25 -2.35 1.3 -2.25 1.4 -2.25 1.45 -2.25 1.55 -2.35 1.65 -2.4 1.75 -2.4 M2.35 -1.5 L2.35 -1.6 2.3 -1.6 2.35 -1.5 M-4.9 -2.1 L-4.9 -2.1 M-2.5 -3.25 L-2.5 -3.45 Q-2.75 -3.45 -3.0 -3.6 -2.7 -3.25 -2.55 -3.05 L-2.5 -3.25 M-4.35 0.45 L-4.4 0.4 -4.4 0.5 -4.35 0.45" fill="#c867e6" fill-rule="evenodd" stroke="none"/>
      <path d="M0.15 -5.45 L0.15 -5.45 M1.6 -4.15 L1.6 -3.65 Q1.6 -3.2 1.55 -3.05 1.55 -2.7 1.4 -2.5 L1.3 -2.4 Q1.2 -2.6 1.15 -2.9 L1.1 -3.1 1.05 -3.2 Q0.8 -3.85 0.45 -3.85 0.05 -3.85 -0.05 -3.15 -0.1 -2.9 -0.1 -2.65 L-0.1 -2.4 Q-0.1 -2.25 0.05 -2.0 0.15 -1.75 0.25 -1.65 0.35 -1.75 0.4 -1.8 L0.45 -1.95 Q0.55 -2.05 0.7 -2.05 1.2 -2.05 1.4 -1.6 1.45 -1.45 1.5 -1.2 1.55 -1.0 1.55 -0.95 1.6 -1.0 1.75 -1.15 L1.95 -1.25 Q2.2 -1.25 2.25 -0.95 2.35 -0.8 2.35 -0.55 2.35 -0.4 2.3 -0.3 2.3 0.05 2.35 0.2 2.45 0.4 2.6 0.5 2.7 0.55 3.0 0.7 L3.05 0.75 Q3.1 0.7 3.15 0.7 3.25 0.7 3.3 0.75 L3.3 0.9 3.2 1.0 3.15 1.1 3.1 1.25 2.95 1.25 Q2.5 1.5 2.25 1.4 L2.05 1.35 2.2 1.25 Q1.8 1.25 1.55 1.25 0.7 1.3 0.3 1.5 L0.25 1.55 Q0.35 1.55 0.75 1.7 1.1 1.8 1.25 1.95 L1.2 2.0 -3.1 2.0 -3.2 1.95 -3.2 1.9 -4.2 1.9 -4.25 1.85 -4.25 1.75 Q-4.25 1.7 -4.2 1.65 -4.1 1.6 -4.0 1.55 -3.85 1.45 -3.7 1.45 -3.95 1.3 -4.2 1.2 -4.55 1.0 -4.8 0.75 -4.7 0.6 -4.55 0.6 -4.35 0.5 -4.0 0.6 L-4.05 0.55 Q-4.2 0.4 -4.55 0.1 -4.85 -0.2 -4.85 -0.4 L-4.9 -0.45 -4.9 -0.6 Q-4.6 -0.6 -4.25 -0.5 -4.05 -0.55 -3.85 -0.55 -4.15 -0.8 -4.3 -1.2 -4.35 -1.5 -4.35 -1.85 -4.35 -2.5 -4.1 -2.9 -3.85 -3.3 -3.45 -3.5 -3.05 -3.65 -2.6 -3.5 -2.15 -3.4 -1.75 -3.0 -1.75 -2.95 -1.8 -2.9 L-1.65 -2.75 -1.7 -2.75 -1.6 -2.6 -1.65 -2.55 Q-1.7 -2.55 -1.85 -2.7 -2.0 -2.65 -2.2 -2.6 L-2.55 -2.45 Q-2.65 -2.4 -2.7 -2.3 -2.8 -2.2 -2.8 -1.95 -2.8 -1.55 -2.6 -1.2 -2.35 -0.7 -1.85 -0.6 -1.6 -0.8 -1.4 -1.1 -1.1 -1.5 -1.1 -1.85 -1.1 -2.2 -1.25 -2.55 -1.3 -2.7 -1.55 -3.05 -1.8 -3.35 -1.9 -3.6 -2.0 -3.9 -2.05 -4.25 -2.15 -4.5 -2.15 -4.55 -2.15 -4.8 -2.1 -5.05 -2.0 -5.4 -1.8 -5.6 -1.7 -5.75 -1.6 -5.8 -1.4 -6.1 -1.15 -6.25 -0.5 -6.55 0.5 -5.25 1.25 -4.85 1.45 -4.55 1.55 -4.35 1.6 -4.15 M-1.65 -0.5 L-1.65 -0.5" fill="#f6d9ff" fill-rule="evenodd" stroke="none"/>
    </g>
    <g id="shape2" transform="matrix(1.0, 0.0, 0.0, 1.0, 9.75, 34.85)">
      <path d="M-0.05 -22.85 L0.0 -22.85 -0.05 -22.8 -0.05 -22.85 M5.5 1.05 L5.45 1.05 5.55 0.95 5.5 1.05 M1.4 -2.6 L1.4 -2.3 1.3 -2.5 1.4 -2.6 M1.25 -4.4 L1.25 -4.4 M4.45 -4.9 L4.35 -5.0 4.35 -5.5 4.45 -4.9 M7.05 -11.7 L7.1 -11.75 7.05 -11.65 7.05 -11.7 M0.05 -21.6 L0.05 -21.65 Q-0.05 -21.2 0.05 -21.6 M3.7 -22.3 L4.0 -22.35 4.2 -21.9 Q3.85 -21.85 3.6 -22.15 L3.6 -22.25 3.7 -22.3 M1.45 -27.0 L1.45 -27.0 M2.15 -31.45 L2.2 -31.5 Q2.3 -31.15 2.5 -30.9 L2.5 -30.65 2.15 -31.45 M2.1 -31.85 L2.15 -31.7 2.0 -31.55 2.05 -31.95 2.1 -31.85 M-0.8 -3.4 L-0.85 -3.4 -0.85 -3.45 -0.8 -3.4 M-2.6 -2.6 L-2.7 -2.55 -2.7 -2.75 -2.65 -2.7 -2.6 -2.6 M-3.0 -4.9 L-3.05 -4.85 -3.35 -3.95 -3.55 -4.1 Q-3.35 -4.55 -3.0 -4.9 M-3.95 -11.85 L-4.05 -11.7 -4.0 -11.85 -3.95 -11.85 M-4.45 -9.05 L-4.4 -9.1 -4.35 -9.0 -4.45 -8.65 -4.45 -9.05 M-1.3 -15.2 L-1.5 -14.85 -1.5 -15.1 -1.3 -15.2" fill="#ffff66" fill-rule="evenodd" stroke="none"/>
      <path d="M2.2 0.85 Q2.25 1.1 2.3 1.35 2.45 1.9 2.75 2.1 L2.6 2.25 Q2.8 2.5 2.95 2.65 L2.85 2.65 Q4.6 4.45 6.9 3.35 L6.85 3.25 Q6.5 3.1 6.2 3.0 L6.45 2.9 6.45 2.8 Q6.3 2.35 6.55 2.2 7.5 2.55 8.3 2.2 8.3 2.35 8.4 2.45 L8.5 2.35 Q9.3 2.85 10.05 2.0 L10.0 1.95 Q9.75 1.85 9.45 1.8 9.3 1.5 9.0 1.6 L8.95 1.6 Q7.65 -0.05 6.65 -1.65 L6.6 -1.65 6.5 -1.85 6.45 -1.45 6.4 -1.25 Q6.4 -1.65 6.35 -2.1 L6.0 -2.7 Q5.95 -2.6 6.0 -2.45 6.25 -0.3 4.9 1.0 4.8 0.65 4.55 0.25 4.0 -0.85 3.75 -1.9 3.85 -2.65 4.15 -3.4 L4.2 -3.35 Q4.25 -3.4 4.25 -3.45 L4.25 -3.65 Q4.4 -3.95 4.6 -4.25 L4.6 -4.2 Q4.75 -3.9 4.95 -3.7 L4.95 -3.6 Q5.25 -3.25 5.7 -3.35 6.45 -4.6 6.65 -5.8 L6.65 -5.9 Q7.15 -8.6 6.75 -11.35 L6.8 -11.45 6.85 -11.2 7.0 -11.55 Q7.7 -11.95 8.05 -12.55 8.0 -11.75 7.85 -10.95 8.0 -10.95 8.05 -11.0 L8.1 -11.05 8.1 -11.0 Q8.15 -11.0 8.15 -11.05 L8.3 -11.35 Q8.85 -12.1 8.8 -12.8 9.25 -14.85 8.25 -16.7 L8.05 -16.65 Q7.9 -16.6 7.75 -16.45 7.65 -13.95 6.05 -12.35 5.9 -12.8 5.75 -13.2 L5.7 -13.2 Q5.85 -12.75 5.95 -12.25 L5.45 -11.8 Q5.45 -11.75 5.5 -11.7 5.7 -11.4 6.05 -11.15 6.0 -11.0 6.0 -10.8 6.05 -9.95 6.05 -9.1 6.0 -8.7 5.9 -8.3 L4.85 -5.55 4.55 -5.1 Q4.5 -5.15 4.5 -5.25 4.65 -7.4 4.35 -9.4 L5.1 -11.3 Q4.65 -10.85 4.25 -10.4 L4.05 -11.85 Q2.55 -9.95 1.7 -7.75 1.8 -9.2 1.85 -10.65 2.45 -13.8 1.9 -16.85 L1.85 -17.2 Q1.65 -18.1 1.35 -19.0 0.1 -17.5 -0.9 -15.9 L-1.55 -15.35 Q-1.65 -15.9 -1.85 -16.45 -1.95 -17.85 -1.95 -19.25 -1.9 -19.75 -1.85 -20.25 -1.65 -20.6 -1.3 -20.85 -1.0 -20.5 -0.6 -20.4 L-0.55 -20.45 Q-0.6 -20.8 -0.7 -21.15 -0.3 -21.25 0.15 -21.25 0.85 -22.25 1.4 -23.2 L1.75 -23.75 2.4 -24.95 Q2.85 -24.3 3.05 -23.5 L3.15 -23.15 3.2 -22.75 Q3.3 -22.45 3.4 -22.35 3.85 -21.35 4.45 -21.8 5.1 -21.8 5.45 -22.3 L5.4 -21.25 Q5.2 -20.0 5.4 -19.0 L5.4 -18.3 5.55 -18.35 Q5.6 -18.2 5.7 -18.05 5.75 -18.1 5.75 -18.15 5.95 -18.75 6.05 -19.35 6.65 -21.1 6.5 -23.15 6.45 -23.75 6.2 -24.05 6.0 -24.8 5.75 -25.55 L5.7 -25.95 Q5.55 -26.0 5.45 -26.0 L5.3 -26.35 Q5.25 -26.35 5.2 -26.3 4.75 -25.9 4.9 -25.35 L5.0 -25.25 Q4.65 -24.6 4.4 -24.0 L4.25 -24.7 Q4.1 -26.2 3.6 -27.45 L3.2 -29.1 Q3.3 -30.55 2.5 -31.8 2.4 -32.65 2.3 -33.45 2.1 -33.5 2.05 -33.3 1.8 -32.15 1.55 -30.95 1.05 -30.0 1.15 -28.8 L1.2 -28.9 Q1.25 -29.6 1.45 -30.2 1.05 -28.05 0.8 -25.95 0.6 -25.4 0.65 -24.85 L0.5 -23.45 0.45 -23.4 Q0.2 -23.65 -0.15 -23.6 L-0.25 -23.55 Q-0.7 -23.0 -0.7 -22.3 L-0.8 -22.25 Q-1.3 -22.8 -1.95 -23.1 L-2.0 -23.1 -2.1 -23.15 Q-2.35 -23.1 -2.45 -22.85 -3.5 -19.95 -2.95 -16.85 -2.85 -17.05 -2.85 -17.3 -2.9 -18.1 -2.85 -18.85 L-2.75 -18.6 Q-2.75 -17.9 -2.75 -17.15 L-2.75 -17.1 Q-2.85 -15.95 -3.0 -14.8 -3.3 -13.6 -3.7 -12.5 -4.1 -12.7 -4.55 -12.55 -4.65 -12.4 -4.7 -12.2 -5.45 -8.5 -4.2 -5.6 -4.1 -5.75 -4.1 -5.9 -4.4 -8.6 -2.95 -10.55 L-2.7 -10.8 Q-2.7 -10.45 -2.65 -10.1 -2.6 -10.6 -2.45 -11.05 L-0.65 -12.8 -0.45 -11.95 Q-0.45 -11.7 -0.4 -11.55 -0.3 -8.85 -0.65 -6.15 -0.9 -5.2 -0.9 -4.4 -1.0 -4.1 -1.2 -3.85 -2.3 -2.25 -2.5 -4.15 L-2.55 -5.25 -2.75 -5.1 -2.9 -5.05 -2.6 -5.25 Q-2.9 -5.15 -3.25 -5.0 -3.9 -4.65 -3.95 -4.15 L-4.0 -4.05 Q-4.15 -3.55 -4.2 -3.1 L-4.25 -3.15 -4.25 -2.8 -4.2 -2.25 Q-4.35 -1.7 -4.65 -1.3 -5.15 -2.65 -5.85 -3.75 -6.05 -4.95 -6.1 -6.2 L-6.2 -6.2 Q-6.4 -5.3 -6.45 -4.5 -6.75 -4.5 -6.7 -4.2 L-6.5 -2.8 Q-6.45 -2.4 -6.4 -2.0 -6.25 -1.05 -6.2 -0.15 L-6.1 1.35 -6.4 1.4 Q-6.75 1.5 -6.75 1.65 -6.9 4.3 -3.0 3.2 L-3.3 2.9 Q-2.3 3.0 -1.45 2.8 -1.8 2.25 -2.05 1.7 -2.45 1.6 -2.75 1.45 L-2.75 1.15 -2.8 0.4 Q-2.65 0.3 -2.55 0.1 -1.9 -1.8 -0.3 -2.05 0.2 0.25 -1.55 2.15 1.6 1.8 1.9 0.0 L2.1 0.05 2.2 0.7 Q1.8 1.35 1.1 1.9 1.25 2.0 1.35 2.15 L1.4 2.25 Q0.75 2.75 -0.95 2.65 L-0.95 2.7 Q-0.75 2.9 -0.55 2.95 0.05 3.0 0.5 3.35 L0.75 3.1 Q1.65 3.85 -0.4 4.95 -1.6 5.6 -2.75 5.55 -4.6 5.95 -6.4 4.05 -7.5 2.9 -9.0 3.6 L-9.25 3.65 -9.5 3.85 -9.55 3.8 -9.5 3.75 -9.75 3.75 Q-9.7 3.5 -9.5 3.35 L-9.35 3.25 Q-9.05 2.25 -8.8 1.3 -9.1 0.6 -8.5 -0.6 -8.45 -0.7 -8.35 -0.65 L-8.35 -0.35 Q-8.1 0.35 -8.05 0.95 -7.9 1.35 -7.7 1.7 -6.7 -1.15 -6.8 -3.9 -8.7 -6.7 -7.5 -10.0 -7.4 -10.7 -7.1 -11.5 -6.65 -9.85 -6.4 -8.2 -6.8 -11.9 -7.05 -15.65 -7.05 -15.7 -6.95 -15.65 -6.75 -15.1 -6.6 -14.55 -5.6 -12.85 -5.1 -10.9 -5.3 -13.4 -5.55 -15.95 -5.6 -16.5 -5.3 -16.8 L-5.35 -16.9 -5.25 -16.9 -5.05 -17.05 -4.95 -16.7 Q-4.8 -16.9 -4.5 -17.0 -4.15 -16.55 -4.2 -15.9 L-4.2 -15.8 -3.9 -15.55 Q-3.8 -15.85 -3.75 -16.2 -4.65 -18.75 -4.4 -21.8 -4.25 -23.65 -2.45 -24.1 -1.35 -24.15 -0.75 -23.9 0.05 -29.1 1.55 -34.35 1.65 -34.75 1.95 -34.85 L2.35 -34.45 Q2.7 -34.4 2.7 -34.0 4.5 -31.6 3.95 -28.05 3.85 -27.25 4.0 -26.4 L4.2 -26.6 Q4.85 -27.9 5.4 -29.3 5.45 -29.4 5.55 -29.4 L5.6 -29.2 5.65 -29.5 5.75 -29.55 Q6.5 -28.0 6.55 -26.25 8.2 -21.35 6.8 -15.85 6.6 -15.0 6.5 -14.2 L6.5 -13.45 Q7.5 -16.15 7.95 -18.95 7.95 -19.0 8.1 -19.0 L8.15 -18.4 Q10.4 -14.4 7.85 -10.35 L7.8 -9.95 Q8.15 -10.25 8.5 -10.5 L8.6 -10.7 Q8.65 -10.75 8.75 -10.8 L8.75 -10.7 9.05 -10.9 Q9.05 -10.15 8.7 -9.7 8.6 -9.1 8.3 -8.3 7.75 -6.6 8.05 -4.8 8.25 -3.95 8.4 -3.1 8.7 -2.55 9.05 -2.05 9.4 -3.2 9.75 -4.4 9.8 -4.5 9.95 -4.45 L10.0 -4.1 10.15 -4.35 10.15 -4.4 Q10.05 -1.25 10.65 1.8 11.35 1.65 11.8 2.1 L11.85 2.2 Q9.6 3.15 7.2 3.65 5.25 5.55 2.4 4.35 1.7 4.35 1.3 3.7 L1.85 3.7 Q2.1 2.3 2.2 0.85" fill="#c867e6" fill-rule="evenodd" stroke="none"/>
      <path d="M-0.05 -22.85 L-0.05 -22.8 0.0 -22.85 -0.05 -22.85 M2.2 0.7 L2.1 0.05 1.9 0.0 Q1.6 1.8 -1.55 2.15 0.2 0.25 -0.3 -2.05 -1.9 -1.8 -2.55 0.1 -2.65 0.3 -2.8 0.4 L-2.75 1.15 -2.75 1.45 Q-2.45 1.6 -2.05 1.7 -1.8 2.25 -1.45 2.8 -2.3 3.0 -3.3 2.9 L-3.0 3.2 Q-6.9 4.3 -6.75 1.65 -6.75 1.5 -6.4 1.4 L-6.1 1.35 -6.2 -0.15 Q-6.25 -1.05 -6.4 -2.0 -6.45 -2.4 -6.5 -2.8 L-6.7 -4.2 Q-6.75 -4.5 -6.45 -4.5 -6.4 -5.3 -6.2 -6.2 L-6.1 -6.2 Q-6.05 -4.95 -5.85 -3.75 -5.15 -2.65 -4.65 -1.3 -4.35 -1.7 -4.2 -2.25 L-4.25 -2.8 -4.25 -3.15 -4.2 -3.1 Q-4.15 -3.55 -4.0 -4.05 L-3.95 -4.15 Q-3.9 -4.65 -3.25 -5.0 -2.9 -5.15 -2.6 -5.25 L-2.9 -5.05 -2.75 -5.1 -2.55 -5.25 -2.5 -4.15 Q-2.3 -2.25 -1.2 -3.85 -1.0 -4.1 -0.9 -4.4 -0.9 -5.2 -0.65 -6.15 -0.3 -8.85 -0.4 -11.55 -0.45 -11.7 -0.45 -11.95 L-0.65 -12.8 -2.45 -11.05 Q-2.6 -10.6 -2.65 -10.1 -2.7 -10.45 -2.7 -10.8 L-2.95 -10.55 Q-4.4 -8.6 -4.1 -5.9 -4.1 -5.75 -4.2 -5.6 -5.45 -8.5 -4.7 -12.2 -4.65 -12.4 -4.55 -12.55 -4.1 -12.7 -3.7 -12.5 -3.3 -13.6 -3.0 -14.8 -2.85 -15.95 -2.75 -17.1 L-2.75 -17.15 Q-2.75 -17.9 -2.75 -18.6 L-2.85 -18.85 Q-2.9 -18.1 -2.85 -17.3 -2.85 -17.05 -2.95 -16.85 -3.5 -19.95 -2.45 -22.85 -2.35 -23.1 -2.1 -23.15 L-2.0 -23.1 -1.95 -23.1 Q-1.3 -22.8 -0.8 -22.25 L-0.7 -22.3 Q-0.7 -23.0 -0.25 -23.55 L-0.15 -23.6 Q0.2 -23.65 0.45 -23.4 L0.5 -23.45 0.65 -24.85 Q0.6 -25.4 0.8 -25.95 1.05 -28.05 1.45 -30.2 1.25 -29.6 1.2 -28.9 L1.15 -28.8 Q1.05 -30.0 1.55 -30.95 1.8 -32.15 2.05 -33.3 2.1 -33.5 2.3 -33.45 2.4 -32.65 2.5 -31.8 3.3 -30.55 3.2 -29.1 L3.6 -27.45 Q4.1 -26.2 4.25 -24.7 L4.4 -24.0 Q4.65 -24.6 5.0 -25.25 L4.9 -25.35 Q4.75 -25.9 5.2 -26.3 5.25 -26.35 5.3 -26.35 L5.45 -26.0 Q5.55 -26.0 5.7 -25.95 L5.75 -25.55 Q6.0 -24.8 6.2 -24.05 6.45 -23.75 6.5 -23.15 6.65 -21.1 6.05 -19.35 5.95 -18.75 5.75 -18.15 5.75 -18.1 5.7 -18.05 5.6 -18.2 5.55 -18.35 L5.4 -18.3 5.4 -19.0 Q5.2 -20.0 5.4 -21.25 L5.45 -22.3 Q5.1 -21.8 4.45 -21.8 3.85 -21.35 3.4 -22.35 3.3 -22.45 3.2 -22.75 L3.15 -23.15 3.05 -23.5 Q2.85 -24.3 2.4 -24.95 L1.75 -23.75 1.4 -23.2 Q0.85 -22.25 0.15 -21.25 -0.3 -21.25 -0.7 -21.15 -0.6 -20.8 -0.55 -20.45 L-0.6 -20.4 Q-1.0 -20.5 -1.3 -20.85 -1.65 -20.6 -1.85 -20.25 -1.9 -19.75 -1.95 -19.25 -1.95 -17.85 -1.85 -16.45 -1.65 -15.9 -1.55 -15.35 L-0.9 -15.9 Q0.1 -17.5 1.35 -19.0 1.65 -18.1 1.85 -17.2 L1.9 -16.85 Q2.45 -13.8 1.85 -10.65 1.8 -9.2 1.7 -7.75 2.55 -9.95 4.05 -11.85 L4.25 -10.4 Q4.65 -10.85 5.1 -11.3 L4.35 -9.4 Q4.65 -7.4 4.5 -5.25 4.5 -5.15 4.55 -5.1 L4.85 -5.55 5.9 -8.3 Q6.0 -8.7 6.05 -9.1 6.05 -9.95 6.0 -10.8 6.0 -11.0 6.05 -11.15 5.7 -11.4 5.5 -11.7 5.45 -11.75 5.45 -11.8 L5.95 -12.25 Q5.85 -12.75 5.7 -13.2 L5.75 -13.2 Q5.9 -12.8 6.05 -12.35 7.65 -13.95 7.75 -16.45 7.9 -16.6 8.05 -16.65 L8.25 -16.7 Q9.25 -14.85 8.8 -12.8 8.85 -12.1 8.3 -11.35 L8.15 -11.05 Q8.15 -11.0 8.1 -11.0 L8.1 -11.05 8.05 -11.0 Q8.0 -10.95 7.85 -10.95 8.0 -11.75 8.05 -12.55 7.7 -11.95 7.0 -11.55 L6.85 -11.2 6.8 -11.45 6.75 -11.35 Q7.15 -8.6 6.65 -5.9 L6.65 -5.8 Q6.45 -4.6 5.7 -3.35 5.25 -3.25 4.95 -3.6 L4.95 -3.7 Q4.75 -3.9 4.6 -4.2 L4.6 -4.25 Q4.4 -3.95 4.25 -3.65 L4.25 -3.45 Q4.25 -3.4 4.2 -3.35 L4.15 -3.4 Q3.85 -2.65 3.75 -1.9 4.0 -0.85 4.55 0.25 4.8 0.65 4.9 1.0 6.25 -0.3 6.0 -2.45 5.95 -2.6 6.0 -2.7 L6.35 -2.1 Q6.4 -1.65 6.4 -1.25 L6.45 -1.45 6.5 -1.85 6.6 -1.65 6.65 -1.65 Q7.65 -0.05 8.95 1.6 L9.0 1.6 Q9.3 1.5 9.45 1.8 9.75 1.85 10.0 1.95 L10.05 2.0 Q9.3 2.85 8.5 2.35 L8.4 2.45 Q8.3 2.35 8.3 2.2 7.5 2.55 6.55 2.2 6.3 2.35 6.45 2.8 L6.45 2.9 6.2 3.0 Q6.5 3.1 6.85 3.25 L6.9 3.35 Q4.6 4.45 2.85 2.65 L2.95 2.65 Q2.8 2.5 2.6 2.25 L2.75 2.1 Q2.45 1.9 2.3 1.35 2.25 1.1 2.2 0.85 L2.2 0.7 M-1.3 -15.2 L-1.5 -15.1 -1.5 -14.85 -1.3 -15.2 M-4.45 -9.05 L-4.45 -8.65 -4.35 -9.0 -4.4 -9.1 -4.45 -9.05 M-3.95 -11.85 L-4.0 -11.85 -4.05 -11.7 -3.95 -11.85 M-3.0 -4.9 Q-3.35 -4.55 -3.55 -4.1 L-3.35 -3.95 -3.05 -4.85 -3.0 -4.9 M-2.6 -2.6 L-2.65 -2.7 -2.7 -2.75 -2.7 -2.55 -2.6 -2.6 M-0.8 -3.4 L-0.85 -3.45 -0.85 -3.4 -0.8 -3.4 M2.1 -31.85 L2.05 -31.95 2.0 -31.55 2.15 -31.7 2.1 -31.85 M2.15 -31.45 L2.5 -30.65 2.5 -30.9 Q2.3 -31.15 2.2 -31.5 L2.15 -31.45 M1.45 -27.0 L1.45 -27.0 M3.7 -22.3 L3.6 -22.25 3.6 -22.15 Q3.85 -21.85 4.2 -21.9 L4.0 -22.35 3.7 -22.3 M0.05 -21.6 Q-0.05 -21.2 0.05 -21.65 L0.05 -21.6 M7.05 -11.7 L7.05 -11.65 7.1 -11.75 7.05 -11.7 M4.45 -4.9 L4.35 -5.5 4.35 -5.0 4.45 -4.9 M1.25 -4.4 L1.25 -4.4 M1.4 -2.6 L1.3 -2.5 1.4 -2.3 1.4 -2.6 M5.5 1.05 L5.55 0.95 5.45 1.05 5.5 1.05" fill="#f6d9ff" fill-rule="evenodd" stroke="none"/>
      <path d="M2.95 -20.3 Q4.45 -19.2 4.25 -16.9 L4.3 -16.75 Q4.5 -16.85 4.7 -16.95 L4.7 -17.05 Q4.7 -17.1 4.8 -17.2 L4.9 -17.1 5.15 -17.3 Q5.25 -17.35 5.35 -17.35 5.85 -15.6 5.5 -13.7 5.45 -13.5 5.3 -13.4 L5.15 -12.8 4.9 -11.6 4.85 -11.55 Q4.7 -12.1 4.7 -12.65 4.3 -13.55 4.3 -14.9 L4.3 -15.25 Q3.65 -15.3 3.45 -15.85 L3.4 -15.85 Q3.4 -14.9 3.85 -13.8 3.95 -13.5 3.8 -13.3 3.6 -13.5 3.45 -13.7 L3.5 -13.45 3.5 -13.35 Q3.0 -13.95 2.7 -14.65 0.7 -16.1 2.2 -18.8 2.25 -19.3 2.5 -19.8 L2.6 -20.05 2.6 -19.95 2.65 -20.05 Q2.8 -20.25 2.95 -20.3 M3.1 -19.7 L3.35 -19.35 3.35 -19.45 Q3.35 -19.65 3.25 -19.85 L3.1 -19.7 M5.25 -16.6 L5.3 -16.95 5.15 -16.8 5.25 -16.6 M-5.85 -8.65 L-5.75 -7.95 Q-4.8 -6.7 -5.25 -4.85 L-5.3 -4.85 -4.9 -2.45 -4.9 -2.35 Q-5.95 -4.0 -6.15 -5.75 -6.25 -5.85 -6.45 -5.8 -6.5 -5.8 -6.55 -5.85 L-6.55 -5.4 Q-6.55 -5.2 -6.8 -5.2 -7.45 -6.85 -6.25 -8.35 -6.2 -8.35 -6.15 -8.4 L-6.0 -8.2 -5.9 -8.65 -5.85 -8.65 M-2.1 -9.35 L-2.0 -9.4 -2.0 -9.6 -1.95 -9.65 -1.85 -9.5 -1.8 -9.55 Q-1.55 -9.15 -1.4 -8.7 -0.5 -6.6 -1.8 -4.05 L-1.85 -4.0 -1.85 -4.25 -1.95 -4.05 Q-1.85 -3.65 -1.7 -3.3 -1.7 -3.25 -1.75 -3.2 -3.45 -4.05 -2.3 -5.95 L-3.5 -5.85 -3.5 -6.05 Q-3.6 -5.6 -3.5 -5.1 -5.0 -7.6 -2.1 -9.4 L-2.1 -9.35 M-6.15 -7.65 L-6.1 -7.6 -6.1 -7.75 -6.15 -7.65" fill="#a45cba" fill-rule="evenodd" stroke="none"/>
    </g>
    <g id="shape3" transform="matrix(1.0, 0.0, 0.0, 1.0, 10.4, 23.75)">
      <path d="M3.8 -20.55 L3.8 -20.55 M4.3 -17.15 L4.35 -17.2 4.35 -17.15 4.3 -17.15 M-3.55 -13.65 L-3.45 -13.65 -3.55 -13.55 -3.55 -13.65 M-2.55 -13.9 Q-2.9 -13.65 -3.2 -13.35 -2.9 -13.75 -2.55 -13.9 M0.9 -3.3 L0.75 -3.45 0.85 -3.5 Q0.9 -3.45 0.9 -3.4 L0.9 -3.3 M-0.35 -2.3 L-0.15 -2.5 -0.25 -2.0 -0.35 -2.3 M-1.15 -0.6 L-1.45 -0.65 -1.25 -0.8 -1.15 -0.6" fill="#ffff66" fill-rule="evenodd" stroke="none"/>
      <path d="M4.0 -21.6 Q3.9 -21.8 3.7 -21.95 3.15 -22.55 2.35 -23.05 2.25 -23.0 2.15 -22.9 0.0 -20.9 -0.5 -18.25 -4.75 -16.1 -5.05 -11.9 -5.1 -11.35 -5.05 -10.85 L-5.0 -10.15 -4.95 -10.4 Q-4.6 -9.4 -3.45 -8.9 -3.0 -8.35 -2.3 -7.9 -2.9 -8.35 -3.3 -8.8 -2.8 -8.6 -2.15 -8.5 L-2.25 -8.6 Q-2.65 -8.95 -2.9 -9.3 -3.55 -10.7 -2.7 -12.1 -1.9 -13.35 -1.9 -14.0 0.9 -14.4 0.8 -16.9 1.15 -17.35 1.45 -17.85 1.7 -18.0 1.95 -18.1 L2.1 -18.05 Q3.35 -16.5 4.4 -15.0 5.1 -13.65 5.5 -12.3 5.9 -12.4 5.9 -12.8 L5.9 -13.2 Q6.05 -13.7 6.0 -14.15 6.0 -14.55 5.9 -14.9 6.0 -15.95 4.9 -16.4 L4.6 -16.85 Q5.4 -19.7 4.0 -21.6 M1.55 -11.95 Q1.15 -12.35 0.65 -12.65 L0.75 -12.7 Q5.75 -9.75 2.2 -4.5 1.85 -4.0 2.15 -3.35 2.8 -1.8 3.5 -0.55 3.35 -1.2 3.75 -2.0 4.15 -2.75 4.8 -3.0 5.5 -3.1 5.9 -2.85 5.85 -3.2 5.9 -3.55 5.9 -4.0 5.5 -4.2 4.9 -4.15 4.6 -3.55 4.5 -3.35 4.3 -3.5 4.05 -4.05 4.45 -4.55 L4.55 -4.65 Q5.1 -7.3 6.25 -9.75 6.45 -10.15 6.8 -10.25 9.55 -9.15 8.1 -6.35 L8.1 -6.25 Q7.95 -6.65 7.85 -7.05 7.5 -5.75 7.4 -3.7 7.4 -3.65 7.4 -3.6 7.8 -3.65 8.2 -3.8 L8.3 -4.2 Q8.35 -4.25 8.45 -4.25 L8.5 -3.9 8.8 -4.0 8.55 -3.7 Q8.85 -2.0 8.45 -0.35 8.75 -0.6 9.25 -0.7 9.75 -0.75 9.95 -0.3 L10.0 -0.2 Q9.35 0.75 9.9 1.25 10.3 1.35 10.6 1.65 L10.95 1.75 10.75 1.8 10.75 1.9 10.8 2.0 Q4.95 3.45 -1.2 4.55 L-0.8 4.75 -0.8 4.8 Q-3.3 5.65 -5.65 4.1 -6.55 3.5 -7.85 3.8 -9.2 4.15 -10.4 4.2 -10.4 3.85 -10.1 3.65 L-10.05 3.6 Q-9.3 3.25 -8.75 2.8 -8.9 2.2 -8.75 1.5 -8.65 1.1 -8.25 1.0 -7.7 1.2 -7.3 1.55 -6.7 -0.75 -6.9 -3.0 -6.65 -3.0 -6.5 -2.95 -6.3 -4.8 -6.2 -6.85 -6.2 -7.35 -5.8 -7.5 -2.85 -6.25 -3.35 -2.95 -3.3 -2.6 -3.45 -2.15 -3.45 -2.1 -3.5 -2.05 -3.9 -2.2 -4.15 -2.7 L-4.4 -3.0 Q-4.7 -1.85 -4.0 -0.9 L-3.7 -0.5 Q0.6 -4.45 -4.7 -8.15 -6.3 -9.25 -6.05 -11.3 -5.45 -15.7 -1.75 -17.7 -1.75 -19.05 -0.4 -20.6 0.25 -21.3 0.6 -22.25 1.05 -23.45 2.2 -23.75 7.25 -22.15 5.55 -17.75 8.25 -15.35 6.55 -11.15 5.9 -9.55 4.6 -9.3 L4.8 -9.65 4.85 -10.6 Q4.55 -13.4 1.95 -14.75 0.85 -15.35 0.15 -14.35 -1.75 -11.65 -0.6 -9.15 -0.2 -10.2 0.2 -11.2 0.3 -11.7 0.3 -12.25 0.3 -12.55 0.6 -12.6 L0.9 -12.15 1.45 -11.8 Q0.8 -10.85 0.25 -9.75 -0.45 -9.25 -0.4 -8.5 L-0.65 -8.0 -1.25 -7.2 Q-1.2 -7.15 -1.15 -7.2 -0.65 -7.4 -0.2 -7.75 L-0.2 -7.65 Q-1.45 -5.4 -1.45 -2.55 L-1.4 -2.05 Q-3.7 -0.6 -4.25 1.7 L-4.8 2.3 Q-5.6 1.3 -4.95 -0.1 L-5.0 -0.2 Q-5.2 -0.5 -5.55 -0.45 -6.95 0.5 -6.45 2.1 -7.8 1.85 -7.95 2.95 -6.75 3.45 -5.75 3.25 L-5.8 3.25 Q-5.05 3.5 -4.4 3.6 L-4.4 3.65 -4.35 3.6 Q-2.0 3.95 -0.1 2.4 -1.4 2.0 -2.95 2.05 -1.1 1.85 -0.05 0.95 0.0 1.2 0.05 1.4 L0.05 0.85 Q0.35 0.65 0.55 0.35 0.9 0.4 1.25 0.55 1.2 0.7 1.15 0.9 1.1 1.9 0.95 2.95 L0.8 3.4 0.85 3.4 Q1.2 2.9 1.45 2.35 2.1 3.25 4.35 2.5 6.25 2.8 8.15 1.8 8.25 1.55 8.2 1.4 8.1 1.1 8.15 0.7 7.45 0.45 6.7 0.35 6.7 0.1 6.65 -0.15 6.75 -0.45 6.6 -0.6 6.5 -1.0 6.3 -1.5 L6.45 -1.6 Q6.9 -1.95 6.7 -2.45 L6.6 -2.5 Q6.45 -2.7 6.15 -2.7 3.4 -1.5 4.25 0.95 L4.1 1.05 4.05 1.05 Q3.15 0.4 2.2 -0.25 2.25 -1.85 1.35 -3.45 L1.3 -3.4 Q1.15 -3.9 0.75 -4.3 -0.1 -3.55 -0.45 -2.8 -0.9 -4.65 -0.35 -6.6 L-0.4 -6.3 -0.35 -6.35 Q0.5 -7.55 0.8 -8.7 L1.05 -9.0 1.1 -9.05 Q1.15 -8.9 1.15 -8.75 1.25 -8.95 1.3 -9.1 L1.3 -9.2 Q2.15 -9.65 2.75 -7.6 2.65 -6.8 2.35 -5.95 2.45 -5.95 2.5 -6.0 4.7 -9.6 1.6 -12.05 L1.55 -11.95 M5.45 -5.35 Q5.85 -5.05 6.05 -5.45 6.7 -6.7 7.1 -7.95 L7.25 -7.95 Q7.6 -7.5 8.05 -7.8 L8.1 -7.9 Q8.4 -9.45 6.9 -9.7 6.5 -9.55 6.35 -9.1 5.7 -7.2 5.45 -5.35 M-4.7 -6.6 Q-4.85 -6.85 -5.05 -7.05 -5.25 -7.0 -5.35 -6.8 -6.9 -4.15 -5.8 -1.8 -5.7 -1.9 -5.7 -2.05 -5.6 -3.4 -5.0 -4.7 -4.8 -3.6 -4.0 -3.95 L-4.0 -4.05 Q-3.95 -4.65 -4.1 -5.25 L-3.9 -4.9 -3.9 -4.95 Q-3.9 -6.05 -4.7 -6.6" fill="#c867e6" fill-rule="evenodd" stroke="none"/>
      <path d="M4.0 -21.6 Q5.4 -19.7 4.6 -16.85 L4.9 -16.4 Q6.0 -15.95 5.9 -14.9 6.0 -14.55 6.0 -14.15 6.05 -13.7 5.9 -13.2 L5.9 -12.8 Q5.9 -12.4 5.5 -12.3 5.1 -13.65 4.4 -15.0 3.35 -16.5 2.1 -18.05 L1.95 -18.1 Q1.7 -18.0 1.45 -17.85 1.15 -17.35 0.8 -16.9 0.9 -14.4 -1.9 -14.0 -1.9 -13.35 -2.7 -12.1 -3.55 -10.7 -2.9 -9.3 -2.65 -8.95 -2.25 -8.6 L-2.15 -8.5 Q-2.8 -8.6 -3.3 -8.8 -2.9 -8.35 -2.3 -7.9 -3.0 -8.35 -3.45 -8.9 -4.6 -9.4 -4.95 -10.4 L-5.0 -10.15 -5.05 -10.85 Q-5.1 -11.35 -5.05 -11.9 -4.75 -16.1 -0.5 -18.25 0.0 -20.9 2.15 -22.9 2.25 -23.0 2.35 -23.05 3.15 -22.55 3.7 -21.95 3.9 -21.8 4.0 -21.6 M1.45 -11.8 L1.55 -11.95 1.6 -12.05 Q4.7 -9.6 2.5 -6.0 2.45 -5.95 2.35 -5.95 2.65 -6.8 2.75 -7.6 2.15 -9.65 1.3 -9.2 L1.3 -9.1 Q1.25 -8.95 1.15 -8.75 1.15 -8.9 1.1 -9.05 L1.05 -9.0 0.8 -8.7 Q0.5 -7.55 -0.35 -6.35 L-0.4 -6.3 -0.35 -6.6 Q-0.9 -4.65 -0.45 -2.8 -0.1 -3.55 0.75 -4.3 1.15 -3.9 1.3 -3.4 L1.35 -3.45 Q2.25 -1.85 2.2 -0.25 3.15 0.4 4.05 1.05 L4.1 1.05 4.25 0.95 Q3.4 -1.5 6.15 -2.7 6.45 -2.7 6.6 -2.5 L6.7 -2.45 Q6.9 -1.95 6.45 -1.6 L6.3 -1.5 Q6.5 -1.0 6.6 -0.6 6.75 -0.45 6.65 -0.15 6.7 0.1 6.7 0.35 7.45 0.45 8.15 0.7 8.1 1.1 8.2 1.4 8.25 1.55 8.15 1.8 6.25 2.8 4.35 2.5 2.1 3.25 1.45 2.35 1.2 2.9 0.85 3.4 L0.8 3.4 0.95 2.95 Q1.1 1.9 1.15 0.9 1.2 0.7 1.25 0.55 0.9 0.4 0.55 0.35 0.35 0.65 0.05 0.85 L0.05 1.4 Q0.0 1.2 -0.05 0.95 -1.1 1.85 -2.95 2.05 -1.4 2.0 -0.1 2.4 -2.0 3.95 -4.35 3.6 L-4.4 3.65 -4.4 3.6 Q-5.05 3.5 -5.8 3.25 L-5.75 3.25 Q-6.75 3.45 -7.95 2.95 -7.8 1.85 -6.45 2.1 -6.95 0.5 -5.55 -0.45 -5.2 -0.5 -5.0 -0.2 L-4.95 -0.1 Q-5.6 1.3 -4.8 2.3 L-4.25 1.7 Q-3.7 -0.6 -1.4 -2.05 L-1.45 -2.55 Q-1.45 -5.4 -0.2 -7.65 L-0.2 -7.75 Q-0.65 -7.4 -1.15 -7.2 -1.2 -7.15 -1.25 -7.2 L-0.65 -8.0 -0.4 -8.5 Q-0.45 -9.25 0.25 -9.75 0.8 -10.85 1.45 -11.8 M4.3 -17.15 L4.35 -17.15 4.35 -17.2 4.3 -17.15 M3.8 -20.55 L3.8 -20.55 M5.45 -5.35 Q5.7 -7.2 6.35 -9.1 6.5 -9.55 6.9 -9.7 8.4 -9.45 8.1 -7.9 L8.05 -7.8 Q7.6 -7.5 7.25 -7.95 L7.1 -7.95 Q6.7 -6.7 6.05 -5.45 5.85 -5.05 5.45 -5.35 M0.9 -3.3 L0.9 -3.4 Q0.9 -3.45 0.85 -3.5 L0.75 -3.45 0.9 -3.3 M-2.55 -13.9 Q-2.9 -13.75 -3.2 -13.35 -2.9 -13.65 -2.55 -13.9 M-3.55 -13.65 L-3.55 -13.55 -3.45 -13.65 -3.55 -13.65 M-4.7 -6.6 Q-3.9 -6.05 -3.9 -4.95 L-3.9 -4.9 -4.1 -5.25 Q-3.95 -4.65 -4.0 -4.05 L-4.0 -3.95 Q-4.8 -3.6 -5.0 -4.7 -5.6 -3.4 -5.7 -2.05 -5.7 -1.9 -5.8 -1.8 -6.9 -4.15 -5.35 -6.8 -5.25 -7.0 -5.05 -7.05 -4.85 -6.85 -4.7 -6.6 M-1.15 -0.6 L-1.25 -0.8 -1.45 -0.65 -1.15 -0.6 M-0.35 -2.3 L-0.25 -2.0 -0.15 -2.5 -0.35 -2.3" fill="#f6d9ff" fill-rule="evenodd" stroke="none"/>
      <path d="M1.25 -6.95 Q2.35 -6.8 2.2 -5.8 2.3 -5.6 2.4 -5.35 L2.4 -5.25 2.25 -4.95 Q2.25 -4.4 1.3 -4.0 L1.25 -4.05 1.25 -4.2 1.0 -4.15 Q0.9 -4.4 0.9 -4.6 0.1 -5.4 1.05 -6.8 1.15 -6.9 1.25 -6.95 M7.95 -6.8 L7.95 -6.7 Q7.3 -6.3 7.35 -5.4 7.4 -5.2 7.25 -5.0 7.15 -5.15 7.05 -5.25 L6.95 -4.85 6.9 -4.8 Q6.75 -5.35 6.85 -5.85 6.7 -6.5 7.0 -7.3 7.05 -7.55 7.3 -7.6 8.0 -7.55 7.95 -6.8 M8.55 -0.3 L8.5 -0.2 Q8.2 0.45 7.6 0.1 7.15 -1.0 7.65 -2.1 7.7 -2.15 7.75 -2.2 8.5 -1.4 8.55 -0.3 M-4.55 -2.15 Q-4.5 -1.8 -4.3 -1.5 -4.25 -1.4 -4.3 -1.25 -4.65 -0.85 -5.2 -1.2 -5.4 -2.3 -4.95 -3.15 -4.8 -3.4 -4.55 -3.5 -3.7 -3.1 -3.7 -2.1 L-3.75 -2.05 Q-4.15 -1.75 -4.5 -2.2 L-4.55 -2.15 M-6.45 -2.3 L-6.45 -2.35 Q-6.45 -2.4 -6.4 -2.35 -6.05 -1.55 -5.7 -0.9 L-5.65 -0.8 -5.8 -0.9 -5.8 -0.8 -5.75 -0.7 Q-5.9 -0.55 -6.0 -0.35 -6.0 -0.25 -6.05 -0.2 -7.0 -0.85 -6.6 -2.4 L-6.55 -2.45 -6.45 -2.3" fill="#a45cba" fill-rule="evenodd" stroke="none"/>
    </g>
  </defs>
</svg>
