<?xml version="1.0" encoding="UTF-8" standalone="no"?>
<svg xmlns:ffdec="https://www.free-decompiler.com/flash" xmlns:xlink="http://www.w3.org/1999/xlink" ffdec:objectType="frame" height="173.6px" width="456.05px" xmlns="http://www.w3.org/2000/svg">
  <g transform="matrix(1.0, 0.0, 0.0, 1.0, 133.7, 146.65)">
    <use ffdec:characterId="4544" height="2.4" transform="matrix(7.0, 0.0, 0.0, 7.0, 164.5, -89.6)" width="3.05" xlink:href="#shape0"/>
  </g>
  <defs>
    <g id="shape0" transform="matrix(1.0, 0.0, 0.0, 1.0, -23.5, 12.8)">
      <path d="M26.45 -11.65 Q25.55 -11.25 24.3 -10.75 L23.5 -10.4 Q24.55 -10.9 25.0 -11.2 25.55 -11.55 25.55 -12.0 L25.5 -12.2 Q25.45 -12.25 25.4 -12.25 L25.45 -12.3 25.4 -12.35 25.45 -12.45 25.75 -12.45 25.75 -12.5 25.55 -12.6 26.2 -12.6 26.2 -12.55 26.4 -12.55 26.5 -12.45 26.55 -12.25 Q26.55 -11.9 26.45 -11.65" fill="#ffd327" fill-rule="evenodd" stroke="none"/>
      <path d="M26.3 -11.8 Q26.0 -11.7 25.65 -11.55 25.8 -11.75 25.75 -12.0 L25.75 -12.2 25.7 -12.3 25.65 -12.35 25.65 -12.4 25.55 -12.5 25.6 -12.4 Q25.55 -12.4 25.6 -12.4 L25.6 -12.3 25.65 -12.25 25.6 -12.2 25.5 -12.25 25.4 -12.25 25.6 -12.35 25.6 -12.4 25.55 -12.4 25.6 -12.8 25.85 -12.7 25.95 -12.65 25.95 -12.5 25.9 -12.6 25.85 -12.65 25.75 -12.65 25.9 -12.6 25.85 -12.35 25.9 -12.35 26.0 -12.4 26.05 -12.4 Q26.1 -12.35 26.2 -12.35 L26.3 -12.35 26.35 -12.3 26.35 -12.25 Q26.35 -12.0 26.3 -11.8" fill="#ffdc45" fill-rule="evenodd" stroke="none"/>
    </g>
  </defs>
</svg>
