<?xml version="1.0" encoding="UTF-8" standalone="no"?>
<svg xmlns:ffdec="https://www.free-decompiler.com/flash" xmlns:xlink="http://www.w3.org/1999/xlink" ffdec:objectType="frame" height="173.6px" width="456.05px" xmlns="http://www.w3.org/2000/svg">
  <g transform="matrix(1.0, 0.0, 0.0, 1.0, 133.7, 146.65)">
    <use ffdec:characterId="4535" height="17.15" transform="matrix(7.0, 0.0, 0.0, 7.0, -95.9, -107.1)" width="51.8" xlink:href="#shape0"/>
  </g>
  <defs>
    <g id="shape0" transform="matrix(1.0, 0.0, 0.0, 1.0, 13.7, 15.3)">
      <path d="M6.3 -11.6 Q5.55 -11.95 5.0 -11.9 L4.85 -11.85 4.35 -11.95 5.1 -12.3 Q5.9 -12.65 6.65 -12.9 8.95 -13.6 9.85 -13.1 12.45 -12.75 13.65 -11.4 14.55 -10.35 14.55 -8.95 14.55 -8.55 14.5 -8.4 14.4 -8.3 14.2 -8.15 13.35 -7.75 12.7 -7.1 12.3 -6.75 12.2 -6.15 L12.2 -5.85 12.3 -5.75 Q12.7 -5.05 13.05 -4.5 L13.2 -4.5 13.3 -4.45 Q13.2 -4.4 12.85 -4.2 L13.0 -4.2 Q13.95 -4.2 14.6 -5.1 14.85 -5.45 15.5 -6.85 15.6 -7.05 16.25 -7.6 L17.2 -8.3 Q18.1 -9.0 18.35 -9.0 L18.75 -8.9 19.65 -8.8 Q19.95 -8.8 20.15 -9.4 20.3 -9.8 20.3 -10.0 20.3 -10.2 19.85 -10.7 L19.4 -11.15 Q19.15 -11.15 19.15 -11.2 L19.05 -11.3 19.25 -11.3 Q19.35 -11.35 19.55 -11.45 L19.95 -11.4 19.95 -11.3 Q20.85 -11.3 21.3 -11.45 22.45 -11.8 23.2 -11.9 23.8 -11.95 24.4 -11.75 24.9 -11.5 25.3 -11.05 26.7 -8.7 26.7 -8.35 26.7 -7.95 26.05 -6.5 25.45 -5.1 25.45 -4.8 25.45 -4.35 25.85 -3.8 26.25 -3.2 26.75 -3.2 L26.75 -3.15 Q27.8 -3.3 28.9 -4.35 29.65 -5.05 30.05 -5.65 30.25 -5.95 30.35 -6.5 30.4 -7.05 30.5 -7.15 30.75 -7.4 31.2 -7.75 L31.85 -8.2 32.45 -8.2 Q32.5 -8.1 32.8 -7.9 33.05 -7.75 33.2 -7.7 33.1 -7.4 33.1 -7.05 L33.05 -6.4 33.05 -6.1 34.1 -6.2 34.45 -6.35 34.5 -6.4 34.55 -6.15 Q34.55 -5.95 34.45 -5.9 34.35 -5.8 34.35 -5.65 34.35 -5.55 33.55 -5.05 32.4 -4.35 31.85 -3.95 31.75 -3.7 31.45 -3.4 L30.7 -2.65 30.95 -2.65 31.2 -2.7 31.25 -2.7 31.3 -2.45 Q31.3 -2.4 30.55 -1.45 L29.9 -0.65 29.9 -0.55 Q30.2 -0.5 30.6 -0.75 L31.3 -1.25 Q31.55 -1.5 32.05 -1.7 32.05 -0.9 32.2 -0.2 L31.2 0.45 30.3 0.95 Q29.95 0.95 29.9 0.8 L30.05 0.65 Q30.05 0.6 30.1 0.55 L30.3 0.3 30.1 0.05 28.8 0.2 28.35 0.35 27.95 0.55 Q26.6 1.2 26.2 1.45 L25.6 1.45 Q25.55 1.35 24.4 1.15 L23.55 1.05 21.45 0.9 Q20.7 0.9 18.95 1.4 L17.3 1.85 16.75 1.8 16.55 1.8 Q15.15 1.8 14.25 1.5 13.35 1.15 13.0 1.15 L12.4 1.15 11.7 1.25 11.05 1.3 10.3 1.4 10.05 1.3 10.15 1.15 7.75 1.35 Q7.25 1.7 5.55 1.75 L1.85 1.75 0.45 1.6 -1.3 1.45 -1.7 1.2 Q-2.8 1.1 -2.9 1.05 -3.9 1.25 -4.75 0.5 -5.25 0.0 -5.85 -1.1 -6.2 -1.2 -6.95 -1.6 L-7.25 -1.75 -7.45 -1.75 -7.75 -1.8 -8.1 -1.9 Q-8.25 -2.05 -8.4 -2.3 -8.6 -2.55 -8.6 -2.75 -8.6 -2.95 -8.5 -3.0 -8.45 -3.0 -8.45 -3.05 -8.2 -2.95 -8.1 -2.8 L-7.95 -2.65 -5.8 -2.85 -5.3 -2.8 -4.55 -2.65 -3.8 -1.9 -2.55 -1.9 Q-1.8 -2.0 -0.45 -2.5 -0.15 -2.65 0.1 -2.75 L0.3 -2.95 Q1.55 -4.3 1.55 -5.2 L1.55 -5.35 Q1.65 -5.65 1.7 -5.95 1.7 -6.15 1.6 -6.4 L1.35 -6.9 0.7 -7.05 Q0.7 -7.9 0.8 -8.0 0.9 -8.25 1.85 -9.35 L2.45 -9.85 Q2.65 -10.0 2.8 -10.1 L3.0 -10.3 Q3.65 -10.8 4.55 -11.1 5.4 -11.35 6.05 -11.25 L6.3 -11.6 M9.05 -12.7 L9.05 -12.7 M10.2 -12.4 L10.2 -12.4 M4.9 -6.5 L4.3 -6.45 Q3.9 -6.4 3.55 -5.8 3.3 -5.35 3.1 -4.8 2.95 -4.3 2.6 -3.8 L2.2 -3.1 2.2 -3.0 2.35 -2.8 Q3.7 -3.05 4.6 -3.35 5.3 -3.55 5.65 -3.55 5.75 -3.55 6.65 -4.55 7.5 -5.55 7.5 -5.45 L7.5 -6.15 Q7.35 -6.85 6.65 -6.9 6.4 -6.9 5.55 -6.55 L4.9 -6.5 M32.8 -14.45 L33.3 -14.45 33.3 -14.65 Q33.3 -14.85 33.4 -14.85 L33.45 -14.85 Q33.6 -15.0 34.0 -15.25 34.7 -15.45 35.25 -14.7 L35.7 -14.05 Q35.95 -13.65 36.2 -13.5 36.95 -12.65 37.05 -12.35 37.1 -12.2 37.1 -11.35 37.1 -10.8 37.05 -10.5 35.85 -10.25 34.7 -9.35 33.65 -8.4 33.35 -8.2 L33.3 -8.45 34.05 -10.15 Q34.45 -11.15 34.45 -11.7 34.45 -12.15 34.0 -12.85 L33.45 -13.55 Q33.3 -13.6 32.8 -13.35 32.25 -13.05 32.2 -13.05 L32.2 -13.45 Q32.2 -13.65 32.3 -13.9 L32.45 -14.35 Q32.45 -14.4 32.8 -14.45 M29.0 -10.2 Q28.9 -10.2 28.8 -10.4 28.65 -10.7 28.5 -10.8 L28.15 -11.0 Q27.85 -11.15 27.7 -11.3 27.45 -11.5 27.45 -11.85 27.4 -12.2 27.05 -12.45 27.95 -13.6 28.45 -12.8 28.6 -12.55 28.8 -12.0 29.0 -11.4 29.1 -11.25 L29.1 -10.3 29.0 -10.2 M31.4 -1.05 L31.4 -1.05 M37.0 -9.55 L37.45 -9.5 Q37.5 -9.25 37.85 -8.7 38.1 -8.2 38.1 -8.0 38.1 -7.5 37.6 -6.95 37.2 -6.5 36.7 -6.2 L36.5 -6.2 Q36.45 -6.3 36.7 -6.55 36.4 -6.7 36.05 -6.8 35.7 -6.95 35.55 -6.85 L35.05 -6.9 35.05 -6.85 Q35.0 -6.9 35.0 -7.1 35.0 -7.15 35.35 -7.4 35.6 -7.65 35.3 -7.85 35.15 -7.95 35.4 -8.2 L35.8 -8.5 36.35 -9.05 37.0 -9.55 M30.6 0.0 L30.6 0.15 30.7 0.05 30.6 0.0 M-11.8 -13.05 L-11.2 -13.25 Q-10.1 -13.7 -9.3 -13.8 L-9.3 -13.85 Q-8.9 -13.8 -8.7 -13.6 -8.55 -13.4 -7.95 -13.35 -7.7 -13.05 -7.55 -12.2 -7.45 -11.35 -7.05 -11.0 L-6.65 -11.0 -6.15 -11.05 -5.7 -11.05 Q-5.4 -10.2 -4.8 -9.5 -4.35 -8.95 -4.35 -8.4 -4.35 -8.0 -4.65 -7.2 L-5.05 -6.0 -5.2 -5.95 -5.2 -6.1 -5.45 -6.05 -5.65 -6.05 -5.65 -6.0 -5.8 -5.95 -5.9 -6.2 -6.35 -6.45 -6.6 -6.6 Q-6.8 -6.75 -6.85 -6.8 -8.85 -6.6 -9.3 -6.0 -9.45 -5.85 -9.55 -5.5 -9.65 -5.3 -9.75 -5.15 L-9.8 -5.0 Q-9.75 -4.65 -9.55 -4.05 -9.35 -3.4 -9.35 -3.1 L-9.35 -2.9 -9.4 -2.95 -9.5 -2.85 Q-9.75 -3.05 -9.9 -3.35 -10.55 -3.9 -11.35 -4.85 -11.9 -5.05 -12.85 -5.0 -13.05 -5.15 -13.4 -5.8 -13.7 -6.45 -13.7 -6.65 -13.7 -6.85 -13.6 -7.05 -13.45 -7.35 -13.45 -7.45 L-13.45 -7.75 -13.55 -8.2 Q-13.55 -8.9 -12.9 -9.7 -12.2 -10.5 -11.6 -10.15 L-11.25 -10.2 -11.1 -10.4 -11.1 -10.75 Q-11.1 -11.05 -11.25 -11.45 -11.4 -12.0 -11.65 -12.0 L-12.05 -11.7 Q-12.45 -11.4 -12.65 -11.35 L-12.65 -11.4 -12.7 -11.7 Q-12.7 -12.1 -12.3 -12.6 L-12.25 -12.7 -12.25 -12.75 -12.1 -12.85 Q-11.85 -13.1 -11.7 -13.2 L-11.8 -13.05 M-2.2 -12.45 Q-2.45 -12.3 -3.05 -12.3 -3.5 -12.25 -3.8 -11.85 L-4.05 -11.2 Q-4.15 -10.8 -4.5 -10.65 L-4.4 -11.1 Q-4.3 -11.4 -4.3 -11.6 -4.3 -12.15 -4.6 -12.25 L-5.35 -12.3 -5.55 -12.55 Q-5.95 -12.6 -6.15 -12.7 -6.75 -12.65 -7.0 -12.45 L-7.15 -12.35 Q-7.3 -12.35 -7.3 -12.55 -7.3 -12.85 -6.95 -13.05 -6.6 -13.25 -6.0 -13.3 -5.3 -13.3 -4.9 -13.6 -4.5 -13.85 -4.3 -13.8 L-3.5 -14.05 Q-2.95 -14.15 -2.8 -13.6 L-2.55 -13.1 -2.2 -12.45" fill="#ffd327" fill-rule="evenodd" stroke="none"/>
      <path d="M10.2 -12.6 L10.1 -12.6 10.0 -12.5 Q9.95 -12.4 9.95 -12.35 10.0 -12.25 10.05 -12.2 L10.2 -12.15 10.3 -12.2 10.4 -12.3 10.4 -12.45 10.35 -12.55 10.2 -12.6 M9.1 -12.95 L9.05 -12.95 8.95 -12.9 8.85 -12.8 Q8.8 -12.75 8.8 -12.7 8.85 -12.6 8.9 -12.55 L8.95 -12.5 9.05 -12.45 9.15 -12.5 Q9.25 -12.5 9.25 -12.55 L9.3 -12.7 9.3 -12.75 9.1 -12.95 M9.8 -12.85 Q12.3 -12.55 13.5 -11.25 14.35 -10.25 14.35 -8.95 14.35 -8.65 14.3 -8.5 14.25 -8.45 14.1 -8.35 13.2 -7.95 12.55 -7.25 12.1 -6.85 12.0 -6.2 L12.0 -5.85 12.1 -5.65 12.85 -4.45 12.75 -4.4 Q12.65 -4.35 12.65 -4.25 12.6 -4.2 12.65 -4.1 12.7 -4.05 12.75 -4.0 L13.0 -3.95 Q14.05 -3.95 14.75 -4.95 15.05 -5.35 15.7 -6.75 15.8 -6.95 16.4 -7.45 L17.3 -8.1 Q18.1 -8.75 18.3 -8.75 L18.7 -8.7 19.65 -8.6 Q20.1 -8.55 20.35 -9.35 20.5 -9.8 20.5 -10.0 20.55 -10.25 20.05 -10.8 L19.65 -11.2 19.8 -11.2 19.85 -11.1 Q19.9 -11.1 20.0 -11.1 20.9 -11.1 21.4 -11.25 22.5 -11.6 23.2 -11.7 23.8 -11.75 24.3 -11.55 24.75 -11.35 25.15 -10.95 26.45 -8.65 26.45 -8.35 26.45 -7.95 25.85 -6.6 25.2 -5.1 25.2 -4.8 25.2 -4.3 25.65 -3.65 26.15 -3.0 26.65 -2.95 L26.8 -2.95 Q27.9 -3.1 29.05 -4.15 29.85 -4.9 30.2 -5.5 L30.2 -5.55 Q30.45 -5.85 30.55 -6.45 30.6 -6.9 30.65 -7.0 30.9 -7.25 31.3 -7.6 L31.3 -7.55 31.9 -8.0 32.35 -7.95 32.65 -7.7 32.7 -7.7 32.95 -7.55 32.85 -7.05 32.8 -6.4 32.8 -6.35 32.85 -6.1 Q32.85 -6.0 32.95 -5.95 33.0 -5.9 33.1 -5.9 L34.1 -6.0 34.3 -6.05 Q34.15 -5.95 34.15 -5.65 L33.45 -5.2 Q32.3 -4.5 31.75 -4.15 L31.65 -4.05 Q31.55 -3.8 31.3 -3.55 L30.55 -2.8 Q30.5 -2.7 30.5 -2.65 30.5 -2.55 30.55 -2.5 30.65 -2.45 30.7 -2.45 L31.05 -2.45 30.35 -1.55 29.75 -0.8 29.7 -0.7 29.7 -0.55 Q29.7 -0.45 29.75 -0.4 29.8 -0.3 29.9 -0.3 30.25 -0.3 30.7 -0.6 L30.75 -0.6 Q30.85 -0.75 31.05 -0.8 L31.05 -0.85 31.2 -0.95 31.25 -0.85 Q31.3 -0.8 31.35 -0.8 L31.5 -0.85 31.6 -0.9 31.65 -1.0 31.65 -1.15 31.6 -1.25 31.85 -1.35 Q31.9 -0.8 32.0 -0.25 L31.1 0.3 30.25 0.75 30.3 0.7 30.3 0.65 30.45 0.45 30.5 0.3 30.5 0.35 30.65 0.35 Q30.7 0.35 30.75 0.3 L30.85 0.15 30.9 0.05 Q30.9 -0.05 30.85 -0.1 30.8 -0.15 30.7 -0.2 L30.6 -0.2 30.45 -0.15 Q30.4 -0.1 30.35 0.0 L30.35 0.05 30.2 -0.1 30.1 -0.15 28.75 0.0 28.8 0.0 Q28.65 0.0 28.3 0.15 L27.85 0.35 Q26.6 1.0 26.15 1.2 L25.65 1.2 Q25.35 1.1 24.45 0.95 L24.35 0.95 23.55 0.85 23.55 0.8 21.45 0.7 Q20.7 0.65 18.9 1.15 L17.3 1.65 16.75 1.6 16.55 1.6 Q15.2 1.6 14.35 1.3 13.4 0.9 13.0 0.95 L12.4 0.95 11.7 1.05 11.0 1.1 10.4 1.15 10.3 1.0 Q10.25 0.95 10.15 0.95 L7.75 1.15 7.65 1.2 Q7.15 1.5 5.55 1.55 L2.15 1.55 1.9 1.5 1.85 1.5 0.45 1.4 -1.2 1.3 -1.2 1.25 -1.55 1.05 Q-1.6 0.95 -1.7 0.95 L-2.75 0.9 Q-2.8 0.85 -2.85 0.85 L-2.95 0.85 Q-3.85 1.0 -4.6 0.3 -5.05 -0.15 -5.65 -1.2 -5.7 -1.3 -5.8 -1.3 -6.1 -1.4 -6.85 -1.8 L-7.15 -1.95 -7.45 -1.95 -7.65 -2.0 -7.7 -2.0 -8.0 -2.1 -8.25 -2.4 Q-8.4 -2.6 -8.4 -2.75 L-8.4 -2.8 -8.25 -2.65 -8.15 -2.6 -8.1 -2.45 -7.95 -2.45 -5.8 -2.65 -5.35 -2.55 -5.4 -2.55 -4.65 -2.45 -3.95 -1.75 Q-3.85 -1.7 -3.8 -1.7 L-2.5 -1.7 Q-1.75 -1.75 -0.4 -2.3 L0.2 -2.55 0.45 -2.8 Q1.8 -4.25 1.8 -5.2 L1.8 -5.35 Q1.85 -5.6 1.9 -5.9 L1.9 -5.95 Q1.9 -6.2 1.8 -6.5 1.7 -6.7 1.55 -7.0 1.5 -7.05 1.4 -7.1 L0.95 -7.25 Q0.95 -7.85 0.95 -7.95 L1.0 -7.95 Q1.1 -8.15 2.0 -9.2 L2.6 -9.65 2.6 -9.7 2.9 -9.9 2.95 -9.95 3.15 -10.1 Q3.75 -10.6 4.65 -10.9 5.45 -11.15 6.0 -11.05 L6.15 -11.05 6.2 -11.15 6.4 -11.45 6.5 -11.55 6.5 -11.7 6.35 -11.8 Q5.7 -12.1 5.2 -12.1 6.0 -12.45 6.75 -12.7 8.9 -13.4 9.7 -12.9 9.75 -12.85 9.8 -12.85 M6.65 -7.1 Q6.35 -7.1 5.5 -6.75 L4.9 -6.7 4.25 -6.65 Q3.75 -6.6 3.35 -5.9 3.1 -5.45 2.9 -4.9 2.75 -4.4 2.45 -3.9 L2.0 -3.2 2.0 -3.0 Q2.0 -2.95 2.05 -2.85 L2.2 -2.7 Q2.25 -2.65 2.3 -2.6 L2.4 -2.6 Q3.75 -2.85 4.65 -3.15 5.3 -3.35 5.65 -3.35 5.8 -3.3 6.8 -4.45 L7.6 -5.25 7.6 -5.3 7.5 -5.25 7.4 -5.4 7.4 -5.45 7.7 -5.45 7.7 -6.2 Q7.5 -7.05 6.65 -7.1 M35.1 -14.55 L35.55 -13.9 Q35.8 -13.5 36.05 -13.35 36.75 -12.55 36.85 -12.3 36.9 -12.15 36.9 -11.35 L36.85 -10.7 Q35.7 -10.4 34.55 -9.5 34.05 -9.05 33.7 -8.75 L34.25 -10.1 Q34.7 -11.1 34.7 -11.7 34.7 -12.2 34.15 -13.0 L33.65 -13.7 33.55 -13.75 Q33.3 -13.85 32.7 -13.55 L32.4 -13.4 32.4 -13.45 Q32.4 -13.6 32.5 -13.8 L32.65 -14.25 32.65 -14.3 Q32.65 -14.2 32.8 -14.2 L33.3 -14.25 33.4 -14.3 33.5 -14.4 33.5 -14.65 33.55 -14.65 33.6 -14.7 34.1 -15.05 Q34.65 -15.2 35.1 -14.55 M28.3 -12.7 Q28.45 -12.45 28.6 -11.9 28.8 -11.4 28.9 -11.2 L28.9 -10.7 Q28.75 -10.85 28.65 -10.95 L27.85 -11.45 Q27.65 -11.6 27.65 -11.85 27.65 -12.2 27.35 -12.5 27.65 -12.85 27.9 -12.9 28.15 -12.95 28.3 -12.7 M37.05 -9.3 L37.3 -9.3 Q37.4 -9.05 37.65 -8.6 37.9 -8.15 37.9 -8.0 37.9 -7.6 37.45 -7.1 37.2 -6.8 36.9 -6.55 L36.9 -6.6 36.8 -6.7 Q36.5 -6.9 36.15 -7.0 35.7 -7.15 35.5 -7.05 L35.2 -7.1 Q35.25 -7.05 35.45 -7.2 L35.5 -7.2 Q35.7 -7.45 35.65 -7.65 35.65 -7.8 35.5 -8.0 L35.55 -8.05 35.9 -8.3 36.5 -8.9 Q36.9 -9.2 37.05 -9.3 M-11.8 -12.8 L-11.7 -12.85 -11.15 -13.05 Q-10.05 -13.5 -9.25 -13.55 L-9.15 -13.6 Q-9.0 -13.55 -8.9 -13.45 -8.7 -13.2 -8.05 -13.15 -7.9 -12.85 -7.8 -12.15 -7.65 -11.2 -7.15 -10.85 -7.1 -10.8 -7.05 -10.8 L-6.6 -10.8 -6.1 -10.85 -5.85 -10.85 Q-5.55 -10.05 -4.95 -9.35 -4.6 -8.9 -4.55 -8.4 -4.6 -8.0 -4.85 -7.25 L-5.2 -6.3 -5.25 -6.25 -5.7 -6.25 -5.8 -6.35 -6.25 -6.65 -6.45 -6.8 -6.7 -6.95 -6.9 -7.05 Q-9.0 -6.8 -9.5 -6.15 -9.6 -6.0 -9.75 -5.6 -9.85 -5.4 -9.95 -5.3 L-10.0 -5.2 -10.0 -5.0 Q-10.0 -4.6 -9.75 -3.95 -9.6 -3.5 -9.6 -3.2 L-9.75 -3.45 -9.8 -3.5 Q-10.4 -4.05 -11.2 -5.0 L-11.3 -5.05 Q-11.85 -5.25 -12.8 -5.2 -12.95 -5.4 -13.2 -5.9 -13.5 -6.5 -13.5 -6.65 -13.5 -6.8 -13.4 -6.95 -13.25 -7.3 -13.2 -7.45 -13.2 -7.55 -13.25 -7.8 -13.3 -8.0 -13.3 -8.2 -13.3 -8.85 -12.75 -9.55 -12.2 -10.2 -11.7 -9.95 -11.65 -9.9 -11.6 -9.95 L-11.25 -9.95 -11.05 -10.05 Q-10.95 -10.25 -10.9 -10.35 L-10.9 -10.75 Q-10.9 -11.05 -11.05 -11.55 -11.3 -12.25 -11.65 -12.2 -11.7 -12.25 -12.2 -11.9 L-12.45 -11.7 Q-12.45 -12.05 -12.15 -12.5 L-12.1 -12.55 -12.05 -12.65 -12.05 -12.7 -12.0 -12.7 -11.95 -12.75 -11.85 -12.8 -11.8 -12.8 M-2.75 -13.0 L-2.5 -12.55 -3.1 -12.5 Q-3.6 -12.5 -3.95 -12.0 L-4.05 -11.75 Q-4.1 -12.35 -4.55 -12.45 L-5.25 -12.55 -5.4 -12.7 Q-5.45 -12.75 -5.55 -12.75 -5.85 -12.8 -6.05 -12.9 L-6.15 -12.95 Q-6.75 -12.9 -7.05 -12.65 -7.0 -12.8 -6.85 -12.85 -6.55 -13.05 -6.0 -13.05 -5.2 -13.1 -4.75 -13.4 -4.5 -13.6 -4.3 -13.6 L-4.2 -13.6 Q-3.75 -13.8 -3.45 -13.85 -3.1 -13.9 -3.0 -13.55 L-2.75 -13.0 M-9.55 -2.95 L-9.55 -3.0 -9.4 -3.05 -9.55 -2.95" fill="#ffdc45" fill-rule="evenodd" stroke="none"/>
      <path d="M7.05 -7.7 Q5.55 -7.15 4.75 -7.3 4.65 -7.35 4.55 -7.4 L5.05 -7.45 4.4 -7.45 4.4 -7.5 4.3 -7.55 Q4.3 -7.5 4.3 -7.45 L3.2 -7.5 Q2.6 -7.9 2.6 -8.05 2.6 -8.4 3.15 -9.05 3.65 -9.65 3.95 -9.7 4.0 -9.6 3.95 -9.4 L3.9 -9.1 3.9 -9.05 3.95 -9.1 4.3 -9.2 4.95 -9.15 Q5.05 -9.1 5.2 -8.9 5.35 -8.7 5.55 -8.6 6.15 -8.15 8.0 -8.15 7.75 -8.0 7.45 -7.85 L7.05 -7.7 M9.35 -7.6 L9.6 -7.45 9.65 -7.3 9.7 -7.3 9.65 -7.25 9.65 -7.2 9.75 -7.2 Q9.85 -5.8 10.0 -5.2 10.3 -4.1 11.1 -3.25 L11.35 -3.2 11.45 -2.95 11.6 -2.95 Q11.6 -2.8 11.5 -2.75 L11.5 -2.7 Q11.75 -2.55 12.55 -2.3 L13.25 -2.1 Q15.25 -2.25 16.35 -3.35 16.6 -3.6 17.15 -4.35 17.6 -4.9 17.95 -5.15 L18.0 -5.15 18.3 -5.55 Q18.7 -5.9 18.7 -6.3 18.7 -6.5 18.8 -6.6 L19.05 -6.7 19.8 -6.7 Q20.0 -6.55 20.5 -6.4 21.1 -6.2 21.5 -6.2 L21.95 -6.25 22.45 -6.4 Q22.55 -6.45 22.7 -6.75 L22.85 -7.1 Q23.4 -6.75 23.7 -6.35 23.95 -5.95 23.95 -5.5 23.95 -5.35 23.55 -5.0 23.45 -4.7 23.45 -4.45 23.45 -3.9 24.3 -3.2 L25.55 -2.1 Q28.8 -2.15 29.6 -2.65 L30.0 -3.1 Q30.15 -3.3 30.5 -3.35 L30.45 -3.3 Q29.9 -2.8 29.85 -2.4 L29.7 -2.3 29.85 -2.25 Q29.85 -2.1 30.05 -1.9 L30.25 -1.9 30.15 -1.75 Q29.6 -0.95 29.1 -0.7 L27.55 0.0 Q26.25 0.6 26.25 0.7 L26.25 0.75 25.35 0.7 24.25 0.6 23.6 0.4 Q23.05 0.2 22.7 0.2 20.95 0.2 19.25 0.6 L18.9 0.7 18.95 0.75 Q18.55 0.9 17.9 1.1 17.1 1.3 16.55 1.3 L14.55 0.95 Q12.65 0.6 12.55 0.5 11.0 0.45 8.7 0.85 L6.15 1.3 2.0 1.15 0.2 1.05 Q-0.15 0.75 -0.65 0.55 -1.5 0.25 -3.5 0.35 -3.8 0.05 -3.8 -0.05 L-3.8 -0.3 -3.7 -0.3 -3.85 -0.55 -3.9 -0.8 -3.7 -0.9 Q-2.25 -0.85 -1.25 -0.9 L-0.05 -1.05 0.35 -1.4 0.65 -1.8 Q1.0 -2.25 1.35 -2.05 1.2 -1.85 1.15 -1.65 L1.45 -1.35 Q1.8 -1.05 2.05 -1.05 4.65 -1.05 6.0 -1.65 6.25 -1.85 6.5 -2.15 6.95 -2.45 7.15 -3.05 7.35 -3.6 7.65 -3.8 8.3 -4.3 8.6 -4.7 8.9 -5.1 9.1 -5.65 9.2 -5.95 9.15 -6.55 L9.05 -7.3 9.05 -7.35 8.7 -7.7 Q8.7 -7.75 8.8 -7.8 L8.85 -7.85 9.3 -7.6 9.35 -7.6 M0.9 -1.55 L0.9 -1.65 0.8 -1.55 0.9 -1.55 M1.05 -1.25 L1.05 -1.25 M-12.05 -9.5 Q-10.55 -9.75 -10.3 -10.45 -10.15 -10.8 -10.3 -11.3 L-10.3 -11.35 Q-10.15 -11.25 -10.1 -11.1 -10.05 -10.95 -10.05 -10.7 -10.05 -10.3 -10.35 -9.75 -10.65 -9.25 -10.65 -8.85 -10.65 -8.6 -10.3 -8.3 -10.0 -8.05 -9.8 -8.05 -7.9 -8.05 -7.25 -8.3 -6.9 -8.55 -6.45 -8.65 -6.3 -8.7 -6.1 -9.0 L-5.85 -9.4 Q-5.4 -9.0 -5.45 -8.6 L-5.45 -7.75 Q-5.45 -7.5 -5.5 -7.4 L-5.7 -7.15 -6.05 -7.2 -6.55 -7.7 Q-8.4 -7.7 -9.45 -7.15 -10.25 -6.75 -10.7 -5.9 L-11.55 -6.3 Q-12.45 -6.1 -12.75 -6.4 -12.9 -6.6 -12.9 -6.95 -12.9 -7.35 -12.6 -8.2 L-12.05 -9.5 M-10.45 -12.7 L-10.05 -12.7 Q-9.85 -12.55 -9.75 -12.15 -9.7 -11.85 -9.7 -11.55 -9.7 -11.4 -9.95 -11.15 L-10.5 -11.85 Q-10.75 -12.1 -10.75 -12.3 -10.75 -12.5 -10.65 -12.6 L-10.45 -12.7" fill="#ffff66" fill-rule="evenodd" stroke="none"/>
    </g>
  </defs>
</svg>
