<?xml version="1.0" encoding="UTF-8" standalone="no"?>
<svg xmlns:ffdec="https://www.free-decompiler.com/flash" xmlns:xlink="http://www.w3.org/1999/xlink" ffdec:objectType="frame" height="246.15px" width="231.05px" xmlns="http://www.w3.org/2000/svg">
  <g transform="matrix(1.0, 0.0, 0.0, 1.0, 60.85, 242.35)">
    <use ffdec:characterId="1684" height="24.4" transform="matrix(7.0, 0.0, 0.0, 7.0, 35.8, -233.95)" width="13.8" xlink:href="#shape0"/>
    <use ffdec:characterId="1685" height="19.5" transform="matrix(7.0, 0.0, 0.0, 7.0, 35.1, -241.3)" width="13.9" xlink:href="#shape1"/>
  </g>
  <defs>
    <g id="shape0" transform="matrix(1.0, 0.0, 0.0, 1.0, -5.1, 33.45)">
      <path d="M12.3 -9.3 Q14.0 -15.7 11.65 -18.65 9.85 -20.95 5.25 -21.3 6.35 -26.4 7.25 -29.25 8.2 -32.4 9.0 -33.25 17.85 -28.1 18.6 -21.9 19.35 -15.85 12.3 -9.3" fill="url(#gradient0)" fill-rule="evenodd" stroke="none"/>
      <path d="M12.3 -9.3 Q19.35 -15.85 18.6 -21.9 17.85 -28.1 9.0 -33.25" fill="none" stroke="url(#gradient1)" stroke-linecap="round" stroke-linejoin="round" stroke-width="0.15000000000000002"/>
    </g>
    <linearGradient gradientTransform="matrix(-0.0085, -0.0066, 0.0089, -0.0115, 10.85, -24.65)" gradientUnits="userSpaceOnUse" id="gradient0" spreadMethod="pad" x1="-819.2" x2="819.2">
      <stop offset="0.0" stop-color="#000000" stop-opacity="0.49803922"/>
      <stop offset="1.0" stop-color="#000000" stop-opacity="0.0"/>
    </linearGradient>
    <linearGradient gradientTransform="matrix(-0.0037, -0.0078, 0.0133, -0.0063, 8.7, -27.3)" gradientUnits="userSpaceOnUse" id="gradient1" spreadMethod="pad" x1="-819.2" x2="819.2">
      <stop offset="0.0" stop-color="#ff0000"/>
      <stop offset="1.0" stop-color="#ff0000" stop-opacity="0.0"/>
    </linearGradient>
    <g id="shape1" transform="matrix(1.0, 0.0, 0.0, 1.0, -5.0, 34.5)">
      <path d="M17.25 -15.2 Q17.25 -17.5 16.45 -19.5 15.6 -21.6 14.15 -22.85 12.5 -24.25 10.35 -24.3 8.0 -24.4 5.15 -22.8 7.45 -33.9 8.5 -34.25 22.45 -25.1 17.25 -15.2" fill="url(#gradient2)" fill-rule="evenodd" stroke="none"/>
      <path d="M17.25 -15.2 Q22.45 -25.1 8.5 -34.25" fill="none" stroke="url(#gradient3)" stroke-linecap="round" stroke-linejoin="round" stroke-width="0.15000000000000002"/>
    </g>
    <linearGradient gradientTransform="matrix(-0.0058, -0.0061, 0.0084, -0.008, 10.45, -26.15)" gradientUnits="userSpaceOnUse" id="gradient2" spreadMethod="pad" x1="-819.2" x2="819.2">
      <stop offset="0.0" stop-color="#000000"/>
      <stop offset="1.0" stop-color="#000000" stop-opacity="0.0"/>
    </linearGradient>
    <linearGradient gradientTransform="matrix(-0.0048, -0.0069, 0.0096, -0.0067, 9.7, -27.6)" gradientUnits="userSpaceOnUse" id="gradient3" spreadMethod="pad" x1="-819.2" x2="819.2">
      <stop offset="0.0" stop-color="#ff0000"/>
      <stop offset="1.0" stop-color="#ff0000" stop-opacity="0.0"/>
    </linearGradient>
  </defs>
</svg>
