<?xml version="1.0" encoding="UTF-8" standalone="no"?>
<svg xmlns:ffdec="https://www.free-decompiler.com/flash" xmlns:xlink="http://www.w3.org/1999/xlink" ffdec:objectType="frame" height="217.75px" width="606.2px" xmlns="http://www.w3.org/2000/svg">
  <g transform="matrix(1.0, 0.0, 0.0, 1.0, 304.85, 131.95)">
    <use ffdec:characterId="1364" height="18.3" transform="matrix(3.2266, 0.0, 0.0, 2.0052, -138.9068, -40.8461)" width="86.1" xlink:href="#shape0"/>
    <use ffdec:characterId="1366" height="8.6" transform="matrix(7.0, 0.0, 0.0, 7.0, -157.15, -57.05)" width="43.7" xlink:href="#shape1"/>
  </g>
  <defs>
    <g id="shape0" transform="matrix(1.0, 0.0, 0.0, 1.0, 43.05, 18.3)">
      <path d="M22.5 -16.85 Q18.65 -17.7 14.05 -18.3 23.15 -17.75 30.45 -16.15 43.05 -13.35 43.05 -9.45 43.05 -5.55 30.45 -2.75 17.85 0.0 0.0 0.0 -17.85 0.0 -30.45 -2.75 -43.05 -5.55 -43.05 -9.45 -43.05 -13.35 -30.45 -16.15 -23.15 -17.75 -14.05 -18.3 -18.65 -17.7 -22.5 -16.85 -31.85 -14.85 -31.85 -11.9 -31.85 -9.05 -22.5 -7.0 -13.2 -4.95 0.0 -4.95 13.2 -4.95 22.5 -7.0 31.85 -9.05 31.85 -11.9 31.85 -14.85 22.5 -16.85" fill="#afafaf" fill-opacity="0.0" fill-rule="evenodd" stroke="none"/>
    </g>
    <g id="shape1" transform="matrix(1.0, 0.0, 0.0, 1.0, 22.45, 8.15)">
      <path d="M5.65 -2.0 Q5.9 -2.25 6.25 -2.3 L6.3 -2.3 Q5.95 -2.2 5.65 -1.95 L5.65 -2.0 M12.35 -4.4 Q12.4 -4.85 12.75 -5.15 12.5 -4.85 12.4 -4.5 L12.35 -4.4 M14.25 -6.4 Q14.5 -6.65 15.0 -6.75 L15.1 -6.8 15.2 -6.8 14.95 -6.75 Q14.6 -6.65 14.35 -6.45 L14.25 -6.4 M19.35 -1.9 Q18.7 -1.65 17.9 -1.5 10.55 -0.2 3.05 0.4 1.45 0.5 -0.1 0.4 L-1.35 0.35 Q-11.45 0.6 -21.05 -1.7 -21.65 -1.85 -21.85 -2.15 -22.05 -2.25 -22.15 -2.5 -22.1 -2.55 -22.1 -2.65 -22.15 -3.35 -21.75 -3.75 -21.5 -4.0 -21.2 -3.8 -20.65 -3.35 -20.15 -3.35 -20.1 -3.75 -20.4 -4.1 -20.85 -4.6 -21.5 -4.45 L-21.65 -4.4 -21.85 -4.6 Q-21.75 -5.8 -20.55 -6.5 -19.4 -7.15 -18.75 -6.35 L-18.7 -6.3 Q-18.6 -6.25 -18.5 -6.3 L-18.55 -6.25 -18.55 -6.1 Q-17.95 -6.75 -17.2 -6.35 -16.95 -6.25 -16.9 -5.95 L-17.0 -5.85 -17.0 -5.75 -17.05 -5.65 -17.05 -5.6 -17.0 -5.6 -16.65 -5.65 -16.9 -5.35 -16.8 -5.3 -16.7 -5.35 -16.65 -5.35 -16.55 -5.3 -16.55 -5.35 Q-16.0 -6.0 -15.25 -5.7 -14.65 -5.5 -14.75 -4.95 -14.85 -4.2 -14.35 -3.85 L-14.4 -3.85 -14.5 -3.75 Q-14.65 -3.6 -14.7 -3.4 L-14.7 -3.35 Q-14.4 -3.3 -14.0 -3.65 L-13.6 -3.65 Q-12.5 -3.95 -11.85 -2.85 L-11.65 -2.55 -11.4 -2.5 -11.4 -2.55 -11.35 -2.55 -11.3 -2.6 -11.3 -2.9 Q-11.15 -2.95 -10.95 -3.05 L-10.85 -3.1 -10.35 -3.05 -10.55 -2.8 -10.8 -2.5 -10.85 -2.4 Q-10.65 -2.3 -10.4 -2.45 L-9.6 -3.05 Q-8.2 -3.75 -7.5 -2.45 L-7.35 -2.45 Q-7.3 -2.5 -7.25 -2.5 L-7.2 -2.55 -7.2 -2.65 Q-6.35 -2.65 -5.65 -2.0 L-5.2 -1.6 Q-5.45 -1.6 -5.75 -1.6 L-6.35 -1.4 Q-6.5 -1.35 -6.55 -1.2 L-6.55 -1.15 Q-5.55 -1.45 -4.7 -1.0 -4.3 -0.75 -3.9 -0.7 -1.9 0.45 0.5 0.4 0.45 0.25 0.4 0.15 L0.9 0.1 Q2.6 -0.25 4.1 -1.0 L4.1 -0.8 4.15 -0.8 4.15 -0.75 4.05 -0.65 Q3.95 -0.5 4.05 -0.3 4.5 -0.35 4.95 -0.6 5.9 -1.15 6.95 -0.8 L6.95 -0.85 7.0 -0.95 6.95 -1.0 7.3 -0.85 Q7.45 -1.05 7.3 -1.2 7.15 -1.45 6.9 -1.45 L6.8 -1.45 Q6.6 -1.6 6.3 -1.65 L5.85 -1.7 Q6.0 -1.75 6.15 -1.75 L7.45 -1.9 Q7.4 -1.65 7.4 -1.4 7.6 -1.3 7.75 -1.5 L8.15 -2.0 Q8.65 -2.8 9.5 -2.7 L9.45 -2.7 Q9.45 -2.5 9.5 -2.3 9.9 -2.65 10.35 -3.1 11.35 -4.1 12.55 -3.5 12.6 -3.55 12.6 -3.6 L12.6 -3.65 12.7 -3.6 Q12.8 -3.7 12.75 -3.8 12.65 -4.3 13.0 -4.65 13.45 -5.15 14.05 -5.1 L14.05 -4.85 Q14.1 -4.8 14.15 -4.75 14.15 -4.7 14.25 -4.7 14.35 -4.75 14.35 -4.85 14.35 -5.35 14.7 -5.75 15.3 -6.35 16.0 -6.15 L16.05 -6.05 16.15 -6.1 16.35 -6.0 Q16.6 -6.35 16.3 -6.55 L16.35 -6.5 Q16.75 -7.25 17.55 -7.5 19.3 -7.95 20.0 -6.45 20.25 -5.95 20.2 -5.45 20.05 -4.5 19.7 -3.75 19.95 -3.85 20.15 -3.95 L20.1 -3.9 20.1 -3.75 20.2 -3.65 Q20.3 -3.6 20.35 -3.7 20.4 -3.75 20.45 -3.65 20.65 -3.2 20.45 -2.8 20.15 -2.3 19.65 -2.0 19.55 -2.05 19.45 -1.95 L19.4 -1.9 19.35 -1.9 M-22.45 -3.2 Q-22.5 -3.75 -22.0 -4.2 -21.85 -4.3 -21.7 -4.35 -21.95 -4.25 -22.1 -4.0 -22.4 -3.65 -22.45 -3.2 M-22.15 -5.45 L-22.15 -5.5 -22.15 -5.45 M-16.4 -5.95 L-16.05 -6.2 -16.2 -6.1 -16.4 -5.95 M-13.6 -4.5 L-13.65 -4.3 -13.7 -4.3 -13.6 -4.5 M-9.25 -4.0 L-9.1 -4.1 -8.75 -4.05 -9.2 -4.05 -9.25 -4.0 M0.0 0.0 L0.85 -0.15 0.1 0.05 0.15 0.05 0.0 0.0 M5.25 -1.6 L5.05 -1.5 4.5 -1.15 4.7 -1.35 Q5.0 -1.7 5.4 -1.8 5.25 -1.65 5.2 -1.5 L5.25 -1.6 M16.75 -4.85 Q16.1 -4.45 15.95 -3.7 L15.75 -3.15 15.45 -3.15 Q14.9 -3.0 14.6 -2.5 14.55 -2.4 14.6 -2.25 14.75 -2.15 14.9 -2.3 15.1 -2.55 15.4 -2.7 15.5 -2.75 15.65 -2.8 L15.65 -2.75 15.8 -2.65 Q15.85 -2.55 15.95 -2.6 L16.0 -2.6 Q16.1 -2.7 16.1 -2.9 16.15 -3.45 16.55 -3.9 17.7 -5.05 18.5 -3.85 L18.75 -3.85 18.8 -3.9 Q18.85 -4.35 18.4 -4.7 17.9 -5.05 17.2 -5.0 17.0 -4.95 16.75 -4.85 M-17.7 -3.35 Q-17.95 -3.2 -18.0 -2.95 -17.7 -2.85 -17.25 -2.95 -16.95 -3.05 -16.75 -2.85 L-16.0 -2.05 -16.0 -2.0 -15.9 -2.0 -15.75 -1.85 -15.7 -1.95 Q-15.35 -1.9 -15.0 -1.7 -14.75 -1.5 -14.55 -1.3 L-14.5 -1.1 -14.4 -1.1 -14.35 -1.0 -14.35 -1.1 -14.3 -1.1 -14.3 -1.15 Q-14.2 -1.6 -14.5 -1.9 -14.9 -2.4 -15.55 -2.4 L-15.7 -2.35 Q-15.7 -2.6 -15.85 -2.85 -16.25 -3.6 -17.05 -3.6 -17.45 -3.65 -17.7 -3.35" fill="#b7bfbf" fill-rule="evenodd" stroke="none"/>
      <path d="M0.85 -0.15 Q2.55 -0.6 4.15 -1.3 L4.2 -1.3 Q4.2 -1.4 4.3 -1.5 4.55 -1.8 4.95 -1.95 L4.95 -2.0 Q5.3 -2.05 5.55 -1.85 L5.6 -1.95 5.65 -2.0 5.65 -1.95 Q5.95 -2.2 6.3 -2.3 L7.3 -2.25 7.8 -2.15 7.8 -2.3 Q8.0 -2.75 8.4 -3.1 8.55 -3.2 8.65 -3.25 9.2 -3.3 9.55 -2.95 L9.6 -2.9 9.6 -3.0 9.65 -3.2 Q9.95 -4.05 10.95 -4.3 11.85 -4.45 12.4 -3.9 L12.35 -4.15 12.35 -4.4 12.4 -4.5 Q12.5 -4.85 12.75 -5.15 L12.8 -5.15 12.95 -5.3 13.2 -5.4 13.8 -5.4 13.8 -5.45 Q13.85 -5.65 14.0 -5.7 L14.0 -5.8 14.05 -6.05 14.25 -6.4 14.35 -6.45 Q14.6 -6.65 14.95 -6.75 L15.2 -6.8 Q15.7 -6.8 16.05 -6.55 L16.1 -6.65 16.2 -6.8 Q16.9 -8.05 18.3 -8.15 20.3 -8.1 20.85 -6.25 21.15 -5.05 20.45 -4.2 21.15 -3.8 21.25 -3.4 21.3 -3.2 21.2 -3.0 20.95 -2.55 19.95 -2.1 19.65 -2.0 19.35 -1.9 L19.4 -1.9 19.45 -1.95 Q19.55 -2.05 19.65 -2.0 20.15 -2.3 20.45 -2.8 20.65 -3.2 20.45 -3.65 20.4 -3.75 20.35 -3.7 20.3 -3.6 20.2 -3.65 L20.1 -3.75 20.1 -3.9 20.15 -3.95 Q19.95 -3.85 19.7 -3.75 20.05 -4.5 20.2 -5.45 20.25 -5.95 20.0 -6.45 19.3 -7.95 17.55 -7.5 16.75 -7.25 16.35 -6.5 L16.3 -6.55 Q16.6 -6.35 16.35 -6.0 L16.15 -6.1 16.05 -6.05 16.0 -6.15 Q15.3 -6.35 14.7 -5.75 14.35 -5.35 14.35 -4.85 14.35 -4.75 14.25 -4.7 14.15 -4.7 14.15 -4.75 14.1 -4.8 14.05 -4.85 L14.05 -5.1 Q13.45 -5.15 13.0 -4.65 12.65 -4.3 12.75 -3.8 12.8 -3.7 12.7 -3.6 L12.6 -3.65 12.6 -3.6 Q12.6 -3.55 12.55 -3.5 11.35 -4.1 10.35 -3.1 9.9 -2.65 9.5 -2.3 9.45 -2.5 9.45 -2.7 L9.5 -2.7 Q8.65 -2.8 8.15 -2.0 L7.75 -1.5 Q7.6 -1.3 7.4 -1.4 7.4 -1.65 7.45 -1.9 L6.15 -1.75 Q6.0 -1.75 5.85 -1.7 L6.3 -1.65 Q6.6 -1.6 6.8 -1.45 L6.9 -1.45 Q7.15 -1.45 7.3 -1.2 7.45 -1.05 7.3 -0.85 L6.95 -1.0 7.0 -0.95 6.95 -0.85 6.95 -0.8 Q5.9 -1.15 4.95 -0.6 4.5 -0.35 4.05 -0.3 3.95 -0.5 4.05 -0.65 L4.15 -0.75 4.15 -0.8 4.1 -0.8 4.1 -1.0 Q2.6 -0.25 0.9 0.1 L0.4 0.15 Q0.45 0.25 0.5 0.4 -1.9 0.45 -3.9 -0.7 -4.3 -0.75 -4.7 -1.0 -5.55 -1.45 -6.55 -1.15 L-6.55 -1.2 Q-6.5 -1.35 -6.35 -1.4 L-5.75 -1.6 Q-5.45 -1.6 -5.2 -1.6 L-5.65 -2.0 Q-6.35 -2.65 -7.2 -2.65 L-7.2 -2.55 -7.25 -2.5 Q-7.3 -2.5 -7.35 -2.45 L-7.5 -2.45 Q-8.2 -3.75 -9.6 -3.05 L-10.4 -2.45 Q-10.65 -2.3 -10.85 -2.4 L-10.8 -2.5 -10.55 -2.8 -10.35 -3.05 -10.85 -3.1 -10.95 -3.05 Q-11.15 -2.95 -11.3 -2.9 L-11.3 -2.6 -11.35 -2.55 -11.4 -2.55 -11.4 -2.5 -11.65 -2.55 -11.85 -2.85 Q-12.5 -3.95 -13.6 -3.65 L-14.0 -3.65 Q-14.4 -3.3 -14.7 -3.35 L-14.7 -3.4 Q-14.65 -3.6 -14.5 -3.75 L-14.4 -3.85 -14.35 -3.85 Q-14.85 -4.2 -14.75 -4.95 -14.65 -5.5 -15.25 -5.7 -16.0 -6.0 -16.55 -5.35 L-16.55 -5.3 -16.65 -5.35 -16.7 -5.35 -16.8 -5.3 -16.9 -5.35 -16.65 -5.65 -17.0 -5.6 -17.05 -5.6 -17.05 -5.65 -17.0 -5.75 -17.0 -5.85 -16.9 -5.95 Q-16.95 -6.25 -17.2 -6.35 -17.95 -6.75 -18.55 -6.1 L-18.55 -6.25 -18.5 -6.3 Q-18.6 -6.25 -18.7 -6.3 L-18.75 -6.35 Q-19.4 -7.15 -20.55 -6.5 -21.75 -5.8 -21.85 -4.6 L-21.95 -4.7 -22.15 -5.4 -22.15 -5.45 -22.15 -5.5 -22.2 -5.55 Q-22.2 -6.55 -21.4 -7.2 -20.85 -7.6 -20.2 -7.75 -19.25 -7.9 -18.55 -7.3 -18.3 -7.05 -18.15 -6.8 L-18.15 -6.75 -18.05 -6.75 Q-17.9 -6.85 -17.75 -6.9 -16.6 -6.8 -16.45 -5.9 L-16.4 -5.95 -16.2 -6.1 -16.05 -6.2 -16.0 -6.25 -15.5 -6.45 -15.5 -6.5 -15.4 -6.5 -15.2 -6.55 Q-13.5 -6.5 -13.55 -4.9 -13.55 -4.7 -13.6 -4.5 L-13.7 -4.3 -13.65 -4.3 -13.7 -4.2 -13.6 -4.25 Q-12.25 -4.25 -11.3 -3.1 -11.15 -3.35 -10.8 -3.45 L-10.55 -3.55 Q-10.15 -3.65 -9.8 -3.5 -9.7 -3.7 -9.5 -3.85 L-9.45 -3.9 -9.25 -4.0 -9.2 -4.05 -8.75 -4.05 -7.6 -3.3 -7.5 -3.2 -7.5 -3.15 -7.45 -3.1 -7.45 -3.05 -7.3 -2.85 -7.25 -2.85 -7.1 -2.95 -7.0 -3.0 Q-6.05 -3.2 -5.4 -2.5 L-4.9 -1.95 Q-4.2 -1.5 -3.55 -0.85 -3.1 -0.4 -2.4 -0.25 L-0.4 0.1 0.0 0.0 0.15 0.05 0.1 0.05 0.85 -0.15 M-22.15 -2.5 L-22.25 -2.6 Q-22.4 -2.9 -22.45 -3.2 -22.4 -3.65 -22.1 -4.0 -21.95 -4.25 -21.7 -4.35 L-21.65 -4.35 -21.65 -4.4 -21.5 -4.45 Q-20.85 -4.6 -20.4 -4.1 -20.1 -3.75 -20.15 -3.35 -20.65 -3.35 -21.2 -3.8 -21.5 -4.0 -21.75 -3.75 -22.15 -3.35 -22.1 -2.65 -22.1 -2.55 -22.15 -2.5 M5.25 -1.6 L5.2 -1.5 Q5.25 -1.65 5.4 -1.8 5.0 -1.7 4.7 -1.35 L4.5 -1.15 5.05 -1.5 5.25 -1.6 M16.75 -4.85 Q17.0 -4.95 17.2 -5.0 17.9 -5.05 18.4 -4.7 18.85 -4.35 18.8 -3.9 L18.75 -3.85 18.5 -3.85 Q17.7 -5.05 16.55 -3.9 16.15 -3.45 16.1 -2.9 16.1 -2.7 16.0 -2.6 L15.95 -2.6 Q15.85 -2.55 15.8 -2.65 L15.65 -2.75 15.65 -2.8 Q15.5 -2.75 15.4 -2.7 15.1 -2.55 14.9 -2.3 14.75 -2.15 14.6 -2.25 14.55 -2.4 14.6 -2.5 14.9 -3.0 15.45 -3.15 L15.75 -3.15 15.95 -3.7 Q16.1 -4.45 16.75 -4.85 M-17.7 -3.35 Q-17.45 -3.65 -17.05 -3.6 -16.25 -3.6 -15.85 -2.85 -15.7 -2.6 -15.7 -2.35 L-15.55 -2.4 Q-14.9 -2.4 -14.5 -1.9 -14.2 -1.6 -14.3 -1.15 L-14.3 -1.1 -14.35 -1.1 -14.35 -1.0 -14.4 -1.1 -14.5 -1.1 -14.55 -1.3 Q-14.75 -1.5 -15.0 -1.7 -15.35 -1.9 -15.7 -1.95 L-15.75 -1.85 -15.9 -2.0 -16.0 -2.0 -16.0 -2.05 -16.75 -2.85 Q-16.95 -3.05 -17.25 -2.95 -17.7 -2.85 -18.0 -2.95 -17.95 -3.2 -17.7 -3.35" fill="#d0d9d9" fill-rule="evenodd" stroke="none"/>
      <path d="M6.25 -0.65 L6.25 -0.5 Q6.15 -0.3 5.95 -0.45 L5.85 -0.55 Q5.85 -0.6 5.9 -0.65 5.95 -0.8 6.05 -0.8 6.2 -0.8 6.25 -0.65 M8.3 -1.6 Q8.3 -1.5 8.25 -1.45 8.1 -1.35 8.05 -1.5 8.0 -1.65 8.15 -1.7 8.25 -1.65 8.3 -1.6 M11.1 -3.35 Q11.15 -3.3 11.15 -3.25 11.1 -3.15 11.0 -3.1 10.8 -3.1 10.75 -3.25 L10.8 -3.35 Q10.8 -3.4 10.9 -3.45 L10.95 -3.45 Q11.05 -3.45 11.1 -3.35 M10.05 -1.55 Q10.4 -1.45 10.1 -1.4 9.8 -1.4 10.05 -1.55 M15.3 -5.7 L15.35 -5.7 15.45 -5.6 15.45 -5.45 15.35 -5.25 Q15.15 -5.3 15.15 -5.55 15.2 -5.7 15.3 -5.7 M15.2 -4.2 L15.15 -4.0 Q14.95 -3.85 14.8 -4.0 14.75 -4.15 14.85 -4.25 14.9 -4.35 15.05 -4.4 15.2 -4.35 15.2 -4.2 M17.25 -4.65 L17.3 -4.45 16.95 -4.45 16.95 -4.6 Q17.0 -4.7 17.1 -4.75 17.2 -4.7 17.25 -4.65 M13.2 -4.65 L13.3 -4.6 Q13.4 -4.55 13.4 -4.45 13.35 -4.3 13.15 -4.35 13.0 -4.35 13.0 -4.5 L13.05 -4.55 Q13.05 -4.65 13.15 -4.65 L13.2 -4.65 M13.0 -1.5 Q12.7 -1.5 12.95 -1.65 13.25 -1.55 13.0 -1.5 M12.8 -2.65 Q12.65 -2.55 12.55 -2.7 L12.6 -2.8 Q12.65 -2.9 12.7 -2.9 12.95 -2.85 12.8 -2.65 M15.2 -1.9 Q15.05 -1.8 14.95 -2.0 L14.95 -2.1 Q15.0 -2.2 15.15 -2.2 15.4 -2.1 15.2 -1.9 M17.8 -6.55 Q17.9 -6.5 17.95 -6.35 17.95 -6.25 17.9 -6.2 17.7 -6.15 17.65 -6.4 17.65 -6.5 17.8 -6.55 M19.9 -4.15 Q20.1 -3.95 19.85 -4.05 19.75 -4.1 19.9 -4.15 M17.65 -3.1 Q17.7 -3.05 17.65 -3.0 17.45 -2.75 17.4 -3.05 17.35 -3.2 17.5 -3.2 17.6 -3.2 17.65 -3.1 M-19.7 -6.05 Q-20.0 -6.0 -19.75 -6.2 -19.55 -6.1 -19.7 -6.05 M-19.45 -3.6 Q-19.75 -3.55 -19.45 -3.7 -19.15 -3.6 -19.45 -3.6 M-18.65 -5.0 L-18.55 -5.0 -18.55 -5.05 Q-18.4 -4.95 -18.45 -4.8 -18.45 -4.65 -18.6 -4.65 -18.7 -4.65 -18.75 -4.75 L-18.75 -4.9 -18.65 -5.0 M-20.45 -5.1 L-20.4 -5.15 Q-20.05 -4.9 -20.4 -4.95 -20.55 -4.95 -20.45 -5.1 M-20.65 -2.9 Q-20.55 -2.85 -20.55 -2.8 -20.65 -2.7 -20.75 -2.65 -20.9 -2.55 -20.95 -2.7 L-20.95 -2.8 -20.85 -2.9 -20.65 -2.9 M-16.3 -5.05 Q-16.25 -5.05 -16.2 -4.95 -16.25 -4.8 -16.35 -4.7 L-16.6 -4.7 Q-16.65 -4.8 -16.6 -4.9 -16.6 -5.05 -16.45 -5.1 L-16.3 -5.05 M-15.65 -3.95 Q-15.65 -3.85 -15.75 -3.75 -16.05 -3.75 -15.95 -4.0 -15.95 -4.1 -15.85 -4.1 -15.7 -4.1 -15.65 -3.95 M-17.0 -2.2 Q-17.15 -2.05 -17.2 -2.25 -17.2 -2.35 -17.15 -2.4 -17.1 -2.45 -17.0 -2.5 -16.75 -2.35 -17.0 -2.2 M-11.95 -2.0 Q-12.05 -2.05 -12.1 -2.15 -12.1 -2.25 -12.05 -2.35 L-12.05 -2.4 -11.95 -2.45 -11.9 -2.45 Q-11.65 -2.4 -11.75 -2.2 -11.8 -2.05 -11.95 -2.0 M-13.6 -2.0 Q-13.35 -2.0 -13.35 -1.75 -13.35 -1.55 -13.55 -1.55 -13.7 -1.6 -13.7 -1.75 -13.7 -1.95 -13.6 -2.0 M-13.5 -3.4 Q-13.25 -3.3 -13.45 -3.3 -13.75 -3.2 -13.5 -3.4 M-10.5 -0.85 Q-10.65 -0.8 -10.7 -0.95 L-10.7 -1.0 Q-10.65 -1.1 -10.55 -1.1 -10.25 -1.05 -10.5 -0.85 M-9.35 -1.45 Q-9.5 -1.3 -9.65 -1.45 L-9.6 -1.55 Q-9.55 -1.7 -9.45 -1.7 -9.2 -1.65 -9.35 -1.45 M-6.75 -2.15 Q-6.55 -2.1 -6.55 -1.95 -6.55 -1.8 -6.7 -1.75 -6.8 -1.7 -6.85 -1.8 -6.9 -1.85 -6.95 -1.95 L-6.9 -2.05 Q-6.85 -2.15 -6.75 -2.15 M-8.45 -2.6 Q-8.7 -2.65 -8.45 -2.75 -8.15 -2.55 -8.45 -2.6 M-8.2 -0.9 Q-8.4 -0.95 -8.2 -1.05 -7.9 -0.9 -8.2 -0.9 M-6.7 -0.7 Q-7.0 -0.65 -6.75 -0.8 -6.5 -0.7 -6.7 -0.7 M-5.15 -0.6 Q-5.25 -0.45 -5.4 -0.6 L-5.4 -0.75 Q-5.35 -0.85 -5.25 -0.85 -5.0 -0.85 -5.15 -0.6" fill="#ffffff" fill-rule="evenodd" stroke="none"/>
    </g>
  </defs>
</svg>
