<?xml version="1.0" encoding="UTF-8" standalone="no"?>
<svg xmlns:ffdec="https://www.free-decompiler.com/flash" xmlns:xlink="http://www.w3.org/1999/xlink" ffdec:objectType="frame" height="443.9px" width="739.35px" xmlns="http://www.w3.org/2000/svg">
  <g transform="matrix(1.0, 0.0, 0.0, 1.0, 398.2, 488.35)">
    <use ffdec:characterId="1035" height="233.7" transform="matrix(1.0, 0.0, 0.0, 1.0, -299.9, -413.7)" width="531.4" xlink:href="#shape0"/>
    <use ffdec:characterId="1037" height="346.75" transform="matrix(1.0, 0.0, 0.0, 1.0, -291.5, -439.25)" width="592.0" xlink:href="#shape1"/>
  </g>
  <defs>
    <g id="shape0" transform="matrix(1.0, 0.0, 0.0, 1.0, 299.9, 413.7)">
      <path d="M214.0 -408.45 L212.0 -406.5 212.25 -406.25 213.95 -407.9 216.25 -410.3 216.0 -410.25 214.0 -408.45 M219.9 -412.9 L217.1 -409.7 Q214.05 -406.5 213.25 -404.75 212.5 -404.6 211.9 -404.2 L211.25 -403.75 Q210.7 -403.8 210.6 -404.0 L210.5 -405.15 Q210.5 -407.4 214.45 -410.15 L219.65 -413.5 Q219.9 -414.15 219.9 -412.9 M211.0 -404.8 L212.8 -405.65 212.75 -405.65 Q211.0 -405.3 211.0 -405.05 L211.0 -404.8 M203.4 -371.4 Q203.9 -369.9 204.15 -369.65 206.0 -368.6 206.1 -367.85 205.45 -367.4 205.6 -366.35 207.15 -361.9 209.0 -359.9 207.5 -360.5 205.35 -362.25 204.7 -362.75 204.4 -364.0 L204.15 -365.65 203.15 -368.9 Q202.25 -371.9 202.25 -372.8 L202.25 -373.35 202.55 -373.35 203.4 -371.4 M203.15 -369.4 Q204.75 -365.05 204.6 -363.55 L205.0 -363.3 206.1 -363.5 205.15 -367.25 Q204.6 -369.45 203.15 -369.4 M210.85 -351.8 L210.0 -353.55 210.0 -355.75 Q212.75 -352.75 215.2 -350.6 219.8 -346.5 224.0 -346.5 L226.45 -344.5 Q229.05 -342.45 230.35 -342.1 L230.95 -341.7 231.5 -341.35 231.25 -341.25 230.6 -341.35 229.75 -341.6 Q226.0 -341.8 224.85 -342.6 220.0 -343.2 218.7 -344.15 216.65 -345.65 214.85 -346.25 L211.75 -349.9 Q211.4 -350.3 210.85 -351.8 M211.25 -352.0 Q211.7 -350.5 212.55 -349.8 L214.15 -348.55 Q215.35 -347.45 215.35 -346.75 217.15 -346.35 218.4 -345.55 L220.1 -344.55 223.0 -343.5 226.1 -342.35 227.05 -342.5 Q225.2 -344.55 224.15 -345.0 L222.9 -345.15 Q221.55 -345.15 216.25 -349.3 L210.5 -353.8 211.25 -352.0 M201.1 -384.55 L201.15 -381.6 201.35 -378.35 200.95 -377.65 Q200.6 -377.25 200.25 -377.25 L200.1 -377.9 199.75 -377.85 199.65 -379.55 Q199.65 -382.25 200.3 -382.9 L200.75 -384.55 201.1 -384.55 M-299.55 -235.25 L-299.55 -234.9 -299.35 -234.8 Q-298.85 -230.4 -296.25 -224.65 -293.85 -219.4 -290.25 -214.05 -289.25 -212.55 -285.6 -209.65 -282.0 -206.8 -280.75 -204.9 -279.6 -203.25 -275.6 -200.35 L-270.25 -196.5 -269.5 -196.6 -276.45 -203.2 Q-280.25 -207.05 -281.75 -209.75 L-283.65 -210.0 -285.85 -214.7 -288.05 -219.15 Q-289.8 -222.1 -290.25 -223.8 L-290.5 -228.0 Q-290.5 -228.55 -292.0 -230.3 -293.65 -232.2 -293.9 -233.05 L-295.15 -237.8 -296.05 -243.05 -296.35 -247.15 -296.15 -250.6 -295.75 -252.7 -295.65 -252.65 -295.55 -252.9 Q-295.85 -251.05 -295.85 -247.1 L-295.8 -243.35 -294.4 -237.6 -293.5 -232.8 Q-293.3 -232.1 -291.6 -230.3 -290.0 -228.6 -290.0 -228.05 -289.9 -225.8 -289.05 -223.3 L-287.1 -218.55 -285.4 -213.9 Q-283.95 -210.85 -281.35 -210.4 -279.1 -206.85 -274.45 -202.1 -270.5 -198.05 -266.6 -194.9 L-266.75 -194.5 Q-273.35 -196.6 -278.0 -201.35 L-286.1 -209.4 -286.55 -208.9 -286.75 -208.25 Q-290.85 -213.5 -294.35 -220.0 -297.9 -226.7 -299.75 -232.75 L-299.75 -235.25 -299.55 -235.25 M-295.55 -253.6 L-295.85 -253.25 -295.9 -252.75 -295.8 -252.7 Q-297.25 -248.1 -297.25 -244.3 L-297.3 -239.65 Q-297.65 -237.2 -299.05 -235.9 L-299.15 -236.05 -299.55 -236.05 -299.55 -235.5 -299.75 -235.4 -299.9 -237.35 Q-299.4 -237.35 -299.05 -237.0 -298.25 -238.9 -297.8 -245.7 -297.4 -251.65 -295.5 -253.8 L-295.55 -253.6 M-242.75 -188.4 L-243.15 -187.75 -240.05 -185.45 -239.9 -185.5 -239.6 -185.05 -239.2 -184.55 -239.25 -184.55 -238.15 -183.3 -237.55 -183.0 -236.45 -182.5 -234.65 -182.05 -234.9 -182.25 -234.1 -182.2 Q-235.8 -183.8 -238.85 -185.8 L-242.75 -188.4 M-235.2 -181.6 Q-239.05 -182.3 -239.95 -184.35 L-240.3 -184.75 Q-241.1 -185.65 -243.15 -186.1 L-243.5 -186.55 -243.65 -187.6 Q-243.65 -188.65 -243.0 -189.5 L-237.3 -185.35 Q-234.7 -183.45 -231.95 -181.9 L-230.6 -181.6 Q-230.1 -181.25 -230.1 -180.85 L-230.5 -180.75 -230.5 -180.65 Q-230.5 -179.85 -230.6 -180.0 L-230.75 -180.25 -232.15 -180.6 -232.25 -180.6 Q-232.9 -180.6 -233.3 -180.9 L-233.4 -181.0 -234.45 -181.35 -235.2 -181.6 M-250.85 -190.25 Q-250.65 -190.15 -250.6 -190.05 -250.45 -189.9 -251.25 -189.9 -252.5 -189.9 -254.15 -190.85 L-255.5 -191.6 -260.0 -191.35 Q-260.4 -191.3 -261.75 -192.15 -263.25 -193.15 -263.25 -193.9 -263.25 -194.7 -262.95 -195.0 L-262.3 -195.25 -261.3 -194.0 -260.5 -193.05 -254.2 -191.85 -251.25 -190.6 -250.85 -190.25" fill="#d5f5f9" fill-opacity="0.5019608" fill-rule="evenodd" stroke="none"/>
      <path d="M214.0 -408.45 L216.0 -410.25 216.25 -410.3 213.95 -407.9 212.25 -406.25 212.0 -406.5 214.0 -408.45 M211.0 -404.8 L211.0 -405.05 Q211.0 -405.3 212.75 -405.65 L212.8 -405.65 211.0 -404.8 M203.15 -369.4 Q204.6 -369.45 205.15 -367.25 L206.1 -363.5 205.0 -363.3 204.6 -363.55 Q204.75 -365.05 203.15 -369.4 M211.25 -352.0 L210.5 -353.8 216.25 -349.3 Q221.55 -345.15 222.9 -345.15 L224.15 -345.0 Q225.2 -344.55 227.05 -342.5 L226.1 -342.35 223.0 -343.5 220.1 -344.55 218.4 -345.55 Q217.15 -346.35 215.35 -346.75 215.35 -347.45 214.15 -348.55 L212.55 -349.8 Q211.7 -350.5 211.25 -352.0 M-295.55 -252.9 L-295.65 -252.65 -295.75 -252.7 -296.15 -250.6 -296.35 -247.15 -296.05 -243.05 -295.15 -237.8 -293.9 -233.05 Q-293.65 -232.2 -292.0 -230.3 -290.5 -228.55 -290.5 -228.0 L-290.25 -223.8 Q-289.8 -222.1 -288.05 -219.15 L-285.85 -214.7 -283.65 -210.0 -281.75 -209.75 Q-280.25 -207.05 -276.45 -203.2 L-269.5 -196.6 -270.25 -196.5 -275.6 -200.35 Q-279.6 -203.25 -280.75 -204.9 -282.0 -206.8 -285.6 -209.65 -289.25 -212.55 -290.25 -214.05 -293.85 -219.4 -296.25 -224.65 -298.85 -230.4 -299.35 -234.8 L-299.55 -234.9 -299.55 -235.25 -299.55 -235.5 -299.55 -236.05 -299.15 -236.05 -299.05 -235.9 Q-297.65 -237.2 -297.3 -239.65 L-297.25 -244.3 Q-297.25 -248.1 -295.8 -252.7 L-295.9 -252.75 -295.85 -253.25 -295.55 -253.6 -295.5 -253.65 -295.45 -253.35 -295.55 -252.9 M-242.75 -188.4 L-238.85 -185.8 Q-235.8 -183.8 -234.1 -182.2 L-234.9 -182.25 -234.65 -182.05 -236.45 -182.5 -237.55 -183.0 -238.15 -183.3 -239.25 -184.55 -239.2 -184.55 -239.6 -185.05 -239.9 -185.5 -240.05 -185.45 -243.15 -187.75 -242.75 -188.4" fill="#ffffff" fill-opacity="0.7019608" fill-rule="evenodd" stroke="none"/>
    </g>
    <g id="shape1" transform="matrix(1.0, 0.0, 0.0, 1.0, 291.5, 439.25)">
      <path d="M300.05 -100.6 Q300.5 -100.7 300.5 -98.55 L300.25 -95.25 299.7 -93.25 Q297.65 -92.5 294.55 -92.5 L294.25 -93.05 Q293.9 -93.7 293.9 -95.8 293.9 -97.65 296.0 -98.85 297.65 -99.75 299.7 -100.15 L300.05 -100.6" fill="#b6f3fa" fill-rule="evenodd" stroke="none"/>
      <path d="M155.8 -151.5 Q154.8 -150.7 153.5 -150.5 152.7 -151.6 152.7 -153.55 L154.25 -154.0 156.2 -154.0 156.9 -152.9 155.8 -151.5 M284.15 -182.6 Q283.5 -182.7 283.5 -184.8 283.5 -187.65 287.35 -189.2 289.65 -187.45 290.05 -186.0 289.75 -184.15 286.65 -182.6 L284.15 -182.6 M271.45 -170.9 Q271.0 -170.1 269.35 -170.1 267.8 -170.1 267.25 -170.9 267.95 -172.65 271.45 -170.9 M299.7 -99.1 L300.05 -97.0 297.65 -95.35 Q296.75 -95.8 296.55 -97.2 296.3 -98.0 296.3 -99.75 L297.4 -99.85 299.7 -99.1 M200.05 -172.65 Q200.05 -170.55 198.95 -169.45 L197.2 -169.45 Q196.55 -170.55 196.55 -173.3 L197.9 -173.3 200.05 -172.65" fill="#ffffff" fill-rule="evenodd" stroke="none"/>
      <path d="M180.0 -413.5 L178.85 -412.75 177.5 -412.0 173.6 -412.0 Q173.0 -412.1 172.45 -412.35 171.25 -412.8 171.25 -413.25 L175.9 -413.85 179.75 -414.25 180.0 -413.5 M282.0 -437.1 Q280.0 -434.6 279.0 -433.75 L278.2 -433.8 Q278.0 -433.85 278.0 -435.35 278.0 -436.05 279.05 -437.4 280.2 -438.8 281.25 -439.25 L282.0 -437.1 M252.25 -356.1 Q251.75 -355.6 250.25 -355.6 L250.15 -356.15 Q250.0 -356.8 250.0 -357.6 L250.65 -357.7 252.0 -357.6 252.25 -356.1 M227.75 -368.1 L227.5 -367.35 Q226.95 -367.35 225.8 -368.0 224.45 -368.8 223.6 -369.75 L223.85 -371.0 224.6 -371.0 227.75 -368.1 M205.35 -270.25 L204.35 -270.0 Q204.1 -271.5 204.1 -274.6 L205.1 -274.6 Q205.75 -272.8 205.35 -270.25 M162.7 -230.2 L162.25 -229.75 Q161.25 -231.25 157.5 -238.25 159.3 -237.9 161.1 -235.7 162.85 -233.65 162.85 -232.0 L162.7 -230.2 M219.2 -232.3 L219.5 -229.75 Q219.5 -227.25 215.9 -224.15 211.95 -220.75 208.25 -221.25 208.8 -222.1 214.4 -227.0 218.45 -230.55 218.0 -233.5 L218.75 -233.5 219.2 -232.3 M75.6 -132.0 L75.35 -131.8 Q75.1 -131.95 75.1 -133.5 75.1 -135.1 77.25 -135.5 L80.5 -135.6 81.25 -134.85 Q80.85 -133.7 78.5 -132.75 76.5 -132.0 75.6 -132.0 M-162.5 -329.5 L-163.65 -328.6 Q-164.65 -328.0 -165.85 -327.85 L-166.6 -328.2 -167.5 -329.0 Q-165.15 -330.4 -163.85 -330.75 -162.6 -330.25 -162.5 -329.5 M-270.5 -275.6 L-271.75 -275.35 -272.2 -275.8 -272.25 -277.6 Q-272.25 -279.3 -271.55 -280.0 -271.05 -280.55 -269.75 -280.75 -269.75 -279.8 -270.05 -278.15 L-270.5 -275.6 M-243.45 -260.7 Q-243.1 -258.6 -243.1 -257.5 -243.1 -255.95 -243.85 -256.25 L-244.6 -256.85 -245.5 -258.0 Q-245.85 -258.8 -245.85 -260.5 L-245.8 -261.95 Q-245.45 -262.95 -243.6 -263.75 L-243.45 -260.7 M-288.0 -258.7 Q-287.75 -258.8 -287.75 -257.25 L-287.85 -255.35 -288.0 -255.35 -289.35 -254.9 -290.75 -254.1 -291.5 -254.6 Q-289.5 -257.9 -288.25 -258.25 L-288.0 -258.7 M-252.6 -220.95 Q-253.05 -220.65 -253.6 -220.5 L-256.1 -222.4 -257.1 -223.6 Q-255.1 -223.9 -252.25 -221.25 L-252.6 -220.95 M-232.75 -270.0 L-233.1 -269.05 Q-233.55 -268.5 -235.1 -268.5 -236.7 -268.5 -237.65 -269.15 L-239.5 -270.75 -236.6 -270.7 -234.1 -271.0 Q-233.0 -270.75 -232.75 -270.0 M-123.6 -138.35 L-124.0 -141.5 Q-122.25 -144.05 -120.55 -141.55 -119.85 -140.45 -118.75 -137.25 L-119.3 -136.8 Q-120.2 -136.35 -121.75 -136.35 -123.3 -136.35 -123.6 -138.35" fill="#ffffff" fill-rule="evenodd" stroke="none"/>
    </g>
  </defs>
</svg>
