<?xml version="1.0" encoding="UTF-8" standalone="no"?>
<svg xmlns:ffdec="https://www.free-decompiler.com/flash" xmlns:xlink="http://www.w3.org/1999/xlink" ffdec:objectType="frame" height="88.55px" width="127.4px" xmlns="http://www.w3.org/2000/svg">
  <g transform="matrix(1.0, 0.0, 0.0, 1.0, 64.75, 152.95)">
    <use ffdec:characterId="506" height="2.4" transform="matrix(7.0, 0.0, 0.0, 7.0, -24.15, -146.65)" width="8.65" xlink:href="#shape0"/>
  </g>
  <defs>
    <g id="shape0" transform="matrix(1.0, 0.0, 0.0, 1.0, 3.45, 20.95)">
      <path d="M4.7 -20.0 Q4.75 -19.95 4.8 -19.9 L4.85 -19.85 4.85 -19.7 4.75 -19.65 4.7 -19.65 4.3 -19.7 4.1 -19.75 4.05 -19.75 4.0 -19.8 3.9 -19.8 Q4.15 -19.6 4.6 -19.55 5.2 -19.4 5.2 -19.25 L5.2 -19.15 Q5.2 -18.95 4.9 -18.9 L4.55 -18.9 3.75 -18.7 Q3.6 -18.7 3.5 -18.75 L3.3 -18.8 Q3.05 -18.8 2.95 -18.75 L2.8 -18.6 2.55 -18.7 1.75 -18.7 1.65 -18.65 1.6 -18.7 1.35 -18.65 1.1 -18.7 0.75 -18.75 0.7 -18.65 0.6 -18.6 0.55 -18.55 0.05 -18.55 Q-0.25 -18.6 -0.2 -18.75 L-0.15 -18.8 -0.05 -18.85 0.2 -18.9 0.25 -18.9 Q0.3 -18.95 0.55 -19.0 L1.75 -19.05 1.75 -19.1 Q1.9 -19.2 2.3 -19.15 L2.55 -19.15 Q2.6 -19.15 2.75 -19.3 2.9 -19.4 3.05 -19.4 L3.0 -19.45 2.6 -19.55 2.15 -19.6 2.25 -19.55 2.2 -19.55 2.15 -19.6 2.1 -19.6 1.95 -19.55 0.6 -19.45 Q0.5 -19.45 0.35 -19.6 L0.3 -19.7 0.25 -19.7 0.2 -19.75 0.3 -19.7 0.25 -19.75 -0.15 -19.75 -0.35 -19.7 -0.5 -19.65 -0.5 -19.6 Q-0.55 -19.55 -0.75 -19.4 L-0.9 -19.3 -0.85 -19.3 -0.75 -19.2 -0.75 -18.85 -0.8 -18.8 -0.9 -18.75 -1.05 -18.9 -1.15 -18.9 -1.5 -18.95 -1.65 -18.9 -1.85 -18.8 Q-1.9 -18.8 -1.95 -18.85 L-2.0 -18.95 Q-2.0 -19.05 -1.9 -19.1 L-1.8 -19.2 -1.45 -19.25 -1.4 -19.25 Q-1.4 -19.35 -1.2 -19.45 L-1.0 -19.55 -1.0 -19.6 -1.05 -19.6 -1.25 -19.7 -1.4 -19.7 -2.4 -19.65 -3.15 -19.45 -3.25 -19.4 -3.35 -19.4 Q-3.4 -19.4 -3.4 -19.45 L-3.45 -19.55 -3.4 -19.6 -3.4 -19.65 -3.35 -19.65 Q-3.3 -19.8 -3.2 -19.95 L-2.75 -20.25 -2.35 -20.5 Q-2.3 -20.55 -2.2 -20.7 -2.1 -20.8 -1.95 -20.75 L-1.05 -20.75 -1.0 -20.8 Q-0.9 -20.9 -0.8 -20.95 L-0.75 -20.9 -0.75 -20.85 Q-0.75 -20.75 -0.95 -20.6 L-1.05 -20.55 -1.6 -20.55 -1.6 -20.5 -1.65 -20.5 -1.45 -20.35 Q-1.1 -20.05 -0.55 -20.05 L0.15 -20.15 0.6 -20.3 Q0.8 -20.3 0.75 -20.05 L0.8 -20.05 0.8 -20.0 1.25 -19.95 1.75 -20.0 2.05 -20.0 1.95 -20.1 2.0 -20.1 2.0 -20.15 2.05 -20.1 2.05 -20.25 2.0 -20.2 1.95 -20.2 2.0 -20.25 Q1.9 -20.25 1.85 -20.3 L1.8 -20.4 1.85 -20.55 Q1.9 -20.7 1.95 -20.7 2.0 -20.65 2.05 -20.45 L2.2 -20.45 2.3 -20.4 2.3 -20.3 2.35 -20.3 2.35 -20.25 Q3.05 -20.25 3.65 -20.3 3.75 -20.2 3.75 -20.15 L4.15 -20.15 4.25 -20.05 4.6 -20.0 4.7 -20.0 M3.4 -20.0 L3.5 -19.9 3.5 -19.8 3.35 -19.75 3.5 -19.65 3.4 -19.55 3.7 -19.4 3.75 -19.55 3.85 -19.5 Q3.7 -19.6 3.7 -19.75 3.6 -19.75 3.6 -19.8 3.55 -19.85 3.55 -19.9 L3.55 -19.85 3.5 -20.0 3.4 -20.0 M2.9 -19.8 L2.8 -19.8 2.7 -19.85 2.7 -19.8 3.05 -19.75 3.05 -19.8 3.2 -19.75 3.15 -19.8 3.05 -19.8 2.8 -19.85 2.65 -19.85 2.9 -19.8 M3.6 -19.0 L3.6 -19.05 3.5 -19.05 3.6 -19.0 M2.9 -19.1 L2.7 -18.9 Q2.75 -18.9 2.9 -19.0 3.0 -19.1 3.25 -19.1 L2.9 -19.1 M4.55 -19.2 L4.55 -19.25 4.4 -19.25 Q4.4 -19.2 4.35 -19.15 L4.5 -19.2 4.55 -19.2 M1.9 -20.05 L1.95 -20.05 1.85 -20.0 1.9 -20.05 M2.05 -20.05 L2.05 -20.05 M1.55 -20.0 L1.55 -20.0 M1.6 -19.75 L1.2 -19.75 1.2 -19.7 1.8 -19.75 1.6 -19.75 M2.45 -19.55 L2.55 -19.5 2.5 -19.5 2.45 -19.55 M2.7 -19.8 L2.7 -19.85 2.5 -19.85 2.7 -19.8 M0.45 -19.95 L0.5 -19.95 0.5 -20.0 0.45 -19.95 M0.6 -19.8 L0.55 -19.75 0.65 -19.7 1.15 -19.7 1.2 -19.75 0.8 -19.8 0.6 -19.8 M0.45 -19.0 L0.45 -19.05 0.5 -19.05 0.45 -19.0 M0.4 -18.8 L0.4 -18.75 0.45 -18.8 0.4 -18.8 M2.75 -18.6 L2.9 -18.65 2.85 -18.6 2.75 -18.6 M1.75 -18.7 L1.75 -18.7 M-1.05 -20.85 L-1.1 -20.8 -1.1 -20.85 -1.05 -20.85 M-1.4 -20.05 L-1.55 -20.15 -1.7 -20.3 -1.75 -20.25 -1.75 -20.3 -1.7 -20.3 -1.85 -20.45 -1.95 -20.45 -1.95 -20.5 -2.3 -20.25 -3.0 -19.8 -2.8 -19.85 -2.8 -19.9 -2.75 -19.9 Q-2.6 -20.05 -1.8 -20.15 L-1.8 -20.05 -1.75 -20.05 -1.75 -19.95 -1.3 -19.95 -1.4 -20.05 M-1.3 -19.7 L-1.3 -19.7 M-0.7 -19.65 L-0.55 -19.8 -0.65 -19.8 -0.65 -19.75 -0.7 -19.75 -0.7 -19.65 M-0.45 -19.65 L-0.45 -19.65 M-0.1 -19.7 L-0.1 -19.7 M-1.95 -20.4 L-1.85 -20.35 -1.95 -20.25 -1.95 -20.4" fill="#77fbff" fill-opacity="0.9019608" fill-rule="evenodd" stroke="none"/>
      <path d="M4.7 -19.75 L4.35 -19.85 4.1 -19.9 4.05 -19.95 3.75 -19.9 3.7 -19.9 Q3.7 -19.85 3.7 -19.95 3.7 -20.0 3.8 -20.0 L4.05 -20.0 4.15 -19.95 4.6 -19.85 4.7 -19.8 4.7 -19.75 M3.45 -19.95 L3.5 -19.95 3.5 -20.05 3.45 -19.95 M3.0 -19.95 L2.8 -19.95 2.6 -20.0 Q2.3 -20.0 2.15 -19.9 L2.05 -19.85 2.05 -19.8 2.3 -19.75 2.6 -19.7 Q3.0 -19.65 3.3 -19.55 L3.15 -19.9 3.15 -19.95 3.0 -19.95 M3.35 -19.5 Q3.05 -19.6 2.55 -19.65 L2.4 -19.65 2.3 -19.7 1.95 -19.7 1.6 -19.65 1.05 -19.6 0.8 -19.6 0.7 -19.55 0.55 -19.55 0.4 -19.75 0.35 -19.8 0.25 -19.85 -0.2 -19.85 -0.55 -19.75 Q-0.7 -19.6 -0.75 -19.5 -0.8 -19.4 -0.95 -19.3 L-1.15 -19.25 -1.25 -19.25 -1.0 -19.4 -0.8 -19.55 -0.7 -19.7 -0.8 -19.65 -0.9 -19.7 -0.95 -19.7 Q-1.1 -19.7 -1.25 -19.8 L-1.5 -19.85 -1.75 -19.8 -2.05 -19.8 Q-2.45 -19.75 -2.95 -19.6 L-3.3 -19.5 -3.35 -19.45 -3.35 -19.5 -3.3 -19.55 -3.15 -19.75 -3.1 -19.75 Q-3.0 -19.9 -2.8 -19.95 L-2.65 -20.15 -2.4 -20.3 -2.2 -20.5 -2.1 -20.55 -2.05 -20.55 -2.05 -20.6 -1.95 -20.6 -1.7 -20.7 -1.5 -20.7 -1.3 -20.65 -1.0 -20.7 -0.9 -20.85 Q-0.9 -20.75 -1.0 -20.65 L-1.25 -20.6 -1.45 -20.7 -1.85 -20.6 -1.55 -20.3 -1.4 -20.1 Q-1.25 -20.0 -1.05 -19.95 L-0.7 -19.9 -0.35 -19.9 -0.2 -19.95 0.0 -19.95 Q0.35 -20.05 0.55 -20.2 L0.6 -20.1 Q0.65 -20.0 0.6 -19.95 L0.7 -19.95 1.25 -19.9 1.5 -19.85 1.75 -19.9 1.95 -19.9 2.0 -19.95 2.15 -20.05 2.15 -20.15 2.1 -20.15 2.1 -20.2 2.15 -20.15 2.15 -20.3 1.95 -20.35 1.95 -20.55 2.0 -20.7 2.0 -20.45 Q2.0 -20.35 2.2 -20.3 L2.2 -20.2 2.35 -20.15 3.55 -20.2 3.7 -19.9 3.7 -19.85 Q3.8 -19.6 4.05 -19.55 L4.35 -19.4 4.8 -19.3 4.9 -19.25 5.05 -19.2 Q5.05 -19.15 5.05 -19.05 5.0 -19.1 5.0 -19.2 L4.95 -19.2 4.85 -19.1 4.25 -19.0 3.8 -18.85 3.75 -18.9 3.4 -18.9 3.25 -18.95 3.1 -18.95 2.95 -18.9 2.9 -18.9 2.8 -18.75 2.75 -18.75 2.75 -18.7 Q2.65 -18.7 2.5 -18.8 L2.4 -18.85 2.05 -18.8 0.65 -18.8 0.6 -18.85 0.5 -18.7 0.05 -18.7 -0.05 -18.75 0.35 -18.75 0.55 -18.8 0.55 -18.85 0.35 -18.85 0.35 -18.9 1.65 -18.9 1.8 -18.95 Q1.95 -19.05 2.05 -19.1 L2.45 -19.0 2.75 -19.0 2.8 -19.1 Q2.85 -19.2 2.95 -19.2 L2.95 -19.25 3.45 -19.15 3.5 -19.15 3.8 -19.25 3.65 -19.3 3.5 -19.4 3.35 -19.45 3.35 -19.5 M4.0 -19.35 L3.9 -19.4 3.7 -19.4 Q3.75 -19.4 3.85 -19.35 L3.9 -19.25 Q3.85 -19.15 3.7 -19.1 L3.65 -19.1 3.85 -19.0 3.9 -19.05 4.4 -19.2 4.25 -19.25 4.0 -19.35 M3.45 -18.95 L3.5 -18.95 3.45 -19.0 3.4 -19.0 3.45 -18.95 M0.2 -19.9 L0.05 -19.9 0.3 -19.85 0.25 -19.9 0.2 -19.9 M1.2 -19.8 L1.2 -19.8 M1.15 -18.85 L1.15 -18.85 M2.25 -18.95 L1.95 -18.9 2.05 -18.9 2.25 -18.95 M-0.9 -19.85 L-0.65 -19.9 -0.9 -19.9 -0.9 -19.85 M-1.4 -19.9 L-1.45 -19.95 -1.45 -19.9 -1.4 -19.9 M-1.85 -20.4 L-1.85 -20.35 -1.85 -20.4 M-2.55 -19.85 L-2.65 -19.8 -2.75 -19.8 -2.95 -19.7 -3.1 -19.6 -3.0 -19.65 -2.05 -19.9 -1.75 -19.9 -2.25 -20.1 -2.35 -20.0 -2.55 -19.85 M-1.45 -19.1 L-1.05 -19.15 -0.9 -19.2 Q-0.9 -19.05 -0.9 -18.9 L-1.0 -19.1 -1.15 -19.05 -1.5 -19.1 -1.75 -19.05 -1.85 -18.95 -1.8 -19.05 -1.75 -19.1 -1.45 -19.1" fill="#000033" fill-rule="evenodd" stroke="none"/>
    </g>
  </defs>
</svg>
