<?xml version="1.0" encoding="UTF-8" standalone="no"?>
<svg xmlns:ffdec="https://www.free-decompiler.com/flash" xmlns:xlink="http://www.w3.org/1999/xlink" ffdec:objectType="frame" height="97.65px" width="100.1px" xmlns="http://www.w3.org/2000/svg">
  <g transform="matrix(1.0, 0.0, 0.0, 1.0, 2.1, -1.05)">
    <use ffdec:characterId="75" height="13.95" transform="matrix(7.0, 0.0, 0.0, 7.0, -2.1, 1.05)" width="14.3" xlink:href="#shape0"/>
  </g>
  <defs>
    <g id="shape0" transform="matrix(1.0, 0.0, 0.0, 1.0, 0.3, -0.15)">
      <path d="M13.25 7.25 Q13.25 6.75 13.2 6.3 13.0 5.0 12.3 3.85 12.0 3.25 11.6 2.8 10.55 1.55 9.05 1.05 L8.85 1.0 8.75 0.95 8.4 0.9 8.3 0.9 7.1 0.85 6.55 0.9 5.9 1.0 5.85 1.0 Q5.1 1.2 4.35 1.55 L3.95 1.7 Q3.35 2.05 2.8 2.45 L2.55 2.7 Q1.9 3.3 1.45 4.1 L1.3 4.35 Q1.1 4.7 0.9 5.1 0.8 5.4 0.65 5.75 0.5 6.6 0.5 7.65 0.6 8.6 1.0 9.55 1.95 11.7 4.1 12.9 4.9 13.2 5.95 13.35 7.6 13.6 9.1 13.05 L9.55 12.85 9.6 12.85 10.05 12.6 10.35 12.45 10.45 12.35 11.05 11.95 11.1 11.85 11.2 11.8 Q11.7 11.25 12.15 10.6 12.65 9.75 12.95 8.75 L13.05 8.6 13.05 8.55 13.1 8.4 13.1 8.35 13.15 8.1 13.15 8.05 13.25 7.25 M13.75 5.0 Q14.15 6.3 13.9 7.95 L13.9 8.0 Q13.85 8.5 13.65 9.2 13.3 10.35 12.65 11.35 10.95 13.95 7.75 14.05 6.8 14.15 5.9 14.05 4.35 13.8 3.25 13.35 0.7 11.85 -0.05 9.25 -0.6 7.25 -0.05 5.3 0.55 3.2 2.2 1.8 2.85 1.25 3.6 0.85 L3.85 0.75 Q4.95 0.35 6.15 0.15 L8.15 0.15 9.2 0.3 9.7 0.5 Q11.15 0.95 12.25 2.3 12.65 2.75 12.95 3.25 13.45 4.05 13.75 5.0" fill="#000000" fill-rule="evenodd" stroke="none"/>
      <path d="M10.4 6.8 L10.45 6.9 Q10.95 6.75 11.3 6.45 12.05 5.85 12.05 5.05 12.05 4.7 11.85 4.15 11.65 3.55 11.65 3.45 11.65 3.1 11.6 2.8 12.0 3.25 12.3 3.85 13.0 5.0 13.2 6.3 13.25 6.75 13.25 7.25 13.05 7.75 12.75 8.25 11.7 10.0 9.7 10.55 L9.75 10.5 10.0 9.9 10.0 9.85 10.05 9.8 10.2 9.25 10.45 8.3 10.45 8.0 Q10.5 7.35 10.4 6.8 M5.85 1.0 L5.75 1.1 Q4.65 1.9 4.65 3.3 4.65 3.55 4.85 4.05 5.1 4.75 5.55 5.35 5.8 5.65 6.1 5.9 5.95 6.3 5.95 6.6 L5.9 7.15 5.85 7.7 5.9 7.8 Q5.85 7.95 5.85 8.15 5.95 8.9 6.1 9.6 L6.15 9.95 6.35 10.65 6.35 10.75 Q3.75 10.35 2.55 8.2 1.7 6.75 1.7 5.15 1.7 4.4 2.15 3.45 2.3 3.05 2.55 2.7 L2.8 2.45 Q3.35 2.05 3.95 1.7 L4.35 1.55 Q5.1 1.2 5.85 1.0 M7.4 12.75 L7.9 12.75 8.1 12.7 9.05 12.45 9.5 12.35 10.35 12.0 10.55 11.9 Q11.2 11.5 11.75 10.95 L12.15 10.6 Q11.7 11.25 11.2 11.8 L11.1 11.85 11.05 11.95 10.45 12.35 10.35 12.45 10.05 12.6 9.6 12.85 9.55 12.85 9.1 13.05 Q7.6 13.6 5.95 13.35 4.9 13.2 4.1 12.9 1.95 11.7 1.0 9.55 0.6 8.6 0.5 7.65 0.5 6.6 0.65 5.75 0.8 5.4 0.9 5.1 0.75 5.85 0.75 6.55 0.75 6.9 1.0 7.75 1.15 8.45 1.4 9.05 L1.35 8.95 1.45 9.1 Q1.6 9.5 1.8 9.85 2.2 10.55 2.75 11.15 4.35 12.7 7.0 12.85 L7.05 12.95 7.1 13.0 7.2 12.9 7.4 12.75" fill="#ebf1da" fill-rule="evenodd" stroke="none"/>
      <path d="M9.7 10.55 Q11.7 10.0 12.75 8.25 13.05 7.75 13.25 7.25 L13.15 8.05 13.15 8.1 13.1 8.35 13.1 8.4 13.05 8.55 13.05 8.6 12.95 8.75 Q12.65 9.75 12.15 10.6 L11.75 10.95 Q11.2 11.5 10.55 11.9 L10.35 12.0 9.5 12.35 9.05 12.45 8.1 12.7 7.9 12.75 7.4 12.75 7.5 12.7 Q8.2 12.35 8.8 11.65 L9.25 11.2 Q9.5 10.95 9.7 10.55 M0.9 5.1 Q1.1 4.7 1.3 4.35 L1.45 4.1 Q1.9 3.3 2.55 2.7 2.3 3.05 2.15 3.45 1.7 4.4 1.7 5.15 1.7 6.75 2.55 8.2 3.75 10.35 6.35 10.75 L6.4 10.75 6.5 11.1 Q6.75 12.4 7.0 12.85 4.35 12.7 2.75 11.15 2.2 10.55 1.8 9.85 1.6 9.5 1.45 9.1 L1.35 8.95 1.4 9.05 Q1.15 8.45 1.0 7.75 0.75 6.9 0.75 6.55 0.75 5.85 0.9 5.1" fill="#9abb4d" fill-rule="evenodd" stroke="none"/>
      <path d="M8.95 3.5 Q9.15 3.45 9.4 3.45 10.0 3.45 10.4 3.85 10.85 4.3 10.85 5.15 10.85 5.65 10.65 6.0 10.55 6.2 10.35 6.35 10.05 6.6 9.5 6.6 8.8 6.6 8.4 6.2 L8.2 5.9 Q7.95 5.55 7.95 5.0 7.95 4.85 8.0 4.7 8.05 4.2 8.45 3.85 8.65 3.6 8.95 3.5" fill="#ffffff" fill-rule="evenodd" stroke="none"/>
      <path d="M10.45 8.3 L10.2 9.25 10.05 9.8 10.0 9.85 10.0 9.9 9.75 10.5 9.7 10.55 Q9.5 10.95 9.25 11.2 L8.8 11.65 Q8.2 12.35 7.5 12.7 L7.4 12.75 7.2 12.9 7.1 13.0 7.05 12.95 7.0 12.85 Q6.75 12.4 6.5 11.1 L6.4 10.75 6.35 10.75 6.35 10.65 6.15 9.95 6.1 9.6 Q5.95 8.9 5.85 8.15 5.85 7.95 5.9 7.8 L5.85 7.7 5.9 7.15 6.1 7.0 Q6.45 6.7 6.85 6.55 6.75 7.05 6.75 7.55 6.75 9.0 6.85 9.55 7.0 10.75 7.6 11.55 8.25 11.25 8.65 9.85 9.0 8.75 9.0 7.85 L8.95 7.05 8.9 7.0 Q9.3 7.25 9.75 7.65 L10.45 8.3" fill="#ff66ff" fill-rule="evenodd" stroke="none"/>
      <path d="M11.6 2.8 Q11.65 3.1 11.65 3.45 11.65 3.55 11.85 4.15 12.05 4.7 12.05 5.05 12.05 5.85 11.3 6.45 10.95 6.75 10.45 6.9 L10.4 6.8 10.35 6.35 Q10.55 6.2 10.65 6.0 10.85 5.65 10.85 5.15 10.85 4.3 10.4 3.85 10.0 3.45 9.4 3.45 9.15 3.45 8.95 3.5 8.45 2.9 7.8 2.25 L6.6 4.6 6.5 4.85 Q6.2 5.4 6.1 5.9 5.8 5.65 5.55 5.35 5.1 4.75 4.85 4.05 4.65 3.55 4.65 3.3 4.65 1.9 5.75 1.1 L5.85 1.0 5.9 1.0 6.55 0.9 7.1 0.85 8.3 0.9 8.4 0.9 8.75 0.95 8.85 1.0 9.05 1.05 Q10.55 1.55 11.6 2.8" fill="#f8faf1" fill-rule="evenodd" stroke="none"/>
      <path d="M10.4 6.8 Q10.5 7.35 10.45 8.0 L10.45 8.3 9.75 7.65 Q9.3 7.25 8.9 7.0 L8.95 7.05 9.0 7.85 Q9.0 8.75 8.65 9.85 8.25 11.25 7.6 11.55 7.0 10.75 6.85 9.55 6.75 9.0 6.75 7.55 6.75 7.05 6.85 6.55 6.45 6.7 6.1 7.0 L5.9 7.15 5.95 6.6 Q5.95 6.3 6.1 5.9 6.2 5.4 6.5 4.85 L6.6 4.6 7.8 2.25 Q8.45 2.9 8.95 3.5 8.65 3.6 8.45 3.85 8.05 4.2 8.0 4.7 L7.8 4.45 Q7.5 5.05 7.25 6.3 L7.2 6.35 Q6.95 7.45 6.95 8.05 6.95 8.95 7.05 9.3 7.4 10.3 7.55 11.1 L7.7 11.0 Q8.15 10.25 8.35 9.45 8.5 8.65 8.5 7.6 L8.45 6.7 8.4 6.2 Q8.8 6.6 9.5 6.6 10.05 6.6 10.35 6.35 L10.4 6.8" fill="#b500f0" fill-rule="evenodd" stroke="none"/>
      <path d="M8.0 4.7 Q7.95 4.85 7.95 5.0 7.95 5.55 8.2 5.9 L8.4 6.2 8.45 6.7 8.5 7.6 Q8.5 8.65 8.35 9.45 8.15 10.25 7.7 11.0 L7.55 11.1 Q7.4 10.3 7.05 9.3 6.95 8.95 6.95 8.05 6.95 7.45 7.2 6.35 L7.25 6.3 Q7.5 5.05 7.8 4.45 L8.0 4.7" fill="#66ffff" fill-rule="evenodd" stroke="none"/>
    </g>
  </defs>
</svg>
