<?xml version="1.0" encoding="UTF-8" standalone="no"?>
<svg xmlns:ffdec="https://www.free-decompiler.com/flash" xmlns:xlink="http://www.w3.org/1999/xlink" ffdec:objectType="frame" height="226.8px" width="199.15px" xmlns="http://www.w3.org/2000/svg">
  <g transform="matrix(1.0, 0.0, 0.0, 1.0, 109.2, 139.65)">
    <use ffdec:characterId="618" height="32.4" transform="matrix(7.0, 0.0, 0.0, 7.0, -109.2, -139.65)" width="28.45" xlink:href="#shape0"/>
  </g>
  <defs>
    <g id="shape0" transform="matrix(1.0, 0.0, 0.0, 1.0, 15.6, 19.95)">
      <path d="M5.55 -11.6 L5.7 -11.3 Q5.95 -10.7 5.95 -9.55 L6.1 -9.45 Q6.75 -9.1 7.35 -8.55 L7.4 -8.55 7.4 -8.5 7.45 -8.45 9.15 -6.2 9.2 -6.1 9.45 -5.7 9.8 -5.0 9.85 -4.8 9.9 -4.7 9.95 -4.8 9.95 -5.0 10.0 -5.35 10.0 -5.4 10.0 -5.45 10.1 -5.7 Q10.2 -5.95 10.2 -6.05 10.2 -6.65 10.95 -8.15 11.3 -8.85 11.6 -9.3 11.2 -9.1 10.7 -8.5 L9.95 -7.7 9.9 -7.7 Q9.7 -7.15 9.6 -7.0 9.8 -7.55 9.85 -8.05 L9.85 -8.1 Q9.9 -8.75 9.75 -9.4 9.55 -10.4 8.85 -11.75 8.45 -12.55 7.6 -14.1 6.85 -15.45 6.6 -16.45 L6.6 -16.5 6.55 -16.55 Q6.35 -15.75 6.45 -14.6 7.1 -13.6 7.25 -13.45 L7.2 -13.35 Q6.25 -13.9 5.45 -14.85 4.95 -15.4 4.1 -16.55 3.3 -17.55 2.5 -18.1 1.4 -18.85 -0.15 -19.1 L1.4 -18.0 Q2.5 -17.15 2.5 -16.95 L2.5 -16.9 Q3.15 -16.5 3.5 -15.9 L3.25 -15.85 0.95 -16.55 -0.05 -16.8 Q1.1 -16.0 1.3 -15.35 -0.55 -16.45 -1.3 -16.8 -1.8 -17.0 -2.4 -17.2 L-2.7 -17.2 -2.9 -17.3 -2.85 -17.3 Q-4.1 -17.7 -5.65 -17.85 L-5.85 -17.8 -4.9 -17.25 Q-4.25 -16.9 -4.2 -16.65 L-4.25 -16.6 Q-3.5 -16.45 -3.25 -16.3 -3.7 -16.15 -4.05 -16.15 L-8.0 -16.45 -10.35 -16.7 Q-9.75 -16.3 -8.25 -15.5 -6.85 -14.8 -5.75 -14.4 L-6.15 -14.35 Q-7.85 -14.35 -9.45 -15.3 L-10.15 -15.8 -10.15 -15.7 -10.0 -15.1 -9.4 -14.35 Q-8.65 -13.5 -7.1 -12.3 L-7.2 -12.1 Q-7.3 -11.95 -7.5 -11.95 -8.05 -11.95 -9.7 -12.75 L-11.25 -13.6 -11.4 -13.55 -9.95 -12.4 Q-9.0 -11.65 -8.3 -11.0 L-8.35 -10.95 Q-7.95 -10.65 -7.6 -10.3 L-9.15 -10.45 -9.9 -10.65 Q-10.65 -10.85 -12.5 -10.9 L-12.3 -10.8 -10.75 -9.8 -10.8 -9.75 Q-11.1 -9.75 -12.25 -10.2 -13.3 -10.6 -14.0 -10.6 L-14.25 -10.55 -12.5 -8.75 Q-11.45 -7.7 -11.05 -7.0 L-10.6 -6.85 -10.55 -6.7 Q-10.6 -6.6 -10.7 -6.55 -10.85 -6.5 -11.05 -6.5 -11.75 -6.5 -12.7 -7.15 -13.2 -7.45 -13.7 -7.95 -13.35 -6.4 -11.6 -4.65 L-10.3 -3.45 -9.5 -2.75 Q-8.95 -2.6 -8.55 -2.3 L-8.5 -2.2 -9.15 -2.25 -9.55 -2.3 -9.9 -2.3 Q-10.4 -2.2 -11.45 -1.85 L-12.85 -1.4 -12.9 -1.35 Q-12.05 -1.4 -11.45 -1.25 -11.15 -1.15 -10.45 -0.8 -9.05 -0.05 -6.95 0.0 L-6.9 -0.05 -6.9 0.3 -7.0 0.4 Q-7.15 0.5 -7.5 0.55 L-8.6 0.55 -9.35 0.9 Q-10.5 1.4 -12.8 1.55 L-12.1 1.8 Q-11.6 2.0 -11.05 2.0 L-10.15 1.95 Q-8.5 1.9 -7.6 1.45 -7.25 1.25 -6.95 1.0 L-6.65 0.75 Q-6.5 0.8 -6.4 0.85 L-6.35 0.85 Q-6.7 1.4 -7.3 1.75 -7.7 2.0 -8.15 2.2 -8.65 2.35 -9.25 2.45 L-9.85 2.8 Q-11.25 3.6 -11.9 3.85 L-11.05 3.95 -10.1 4.0 Q-8.65 4.0 -7.45 3.25 L-7.1 3.0 -6.3 2.3 Q-5.95 1.9 -5.8 1.9 -5.7 1.55 -5.6 1.1 L-5.6 1.0 Q-5.45 0.35 -5.25 -0.05 -5.15 -0.3 -5.0 -0.45 L-3.95 -1.8 -3.8 -2.05 -3.45 -2.45 -3.45 -2.5 -2.9 -3.2 -2.75 -3.35 -2.5 -3.65 -1.85 -4.4 -2.5 -4.45 -3.2 -4.55 Q-4.55 -4.75 -5.35 -4.6 -5.15 -4.8 -3.9 -4.9 L-2.1 -4.95 -2.0 -4.95 Q-1.7 -5.0 -1.3 -5.2 L-1.2 -5.25 -1.15 -5.25 -0.95 -5.3 0.25 -6.4 0.0 -6.75 -0.35 -7.45 -0.4 -7.45 -0.5 -7.75 Q-0.85 -8.1 -1.8 -8.55 -3.05 -9.15 -3.85 -9.05 L-4.0 -9.0 Q-4.1 -8.95 -4.1 -9.1 L-3.3 -9.05 Q-2.45 -8.9 -1.5 -8.6 -0.45 -8.2 0.15 -7.8 L0.45 -7.6 0.75 -7.3 0.85 -7.15 0.9 -7.1 0.95 -7.0 1.1 -7.1 1.15 -7.1 1.8 -7.6 2.6 -8.15 2.95 -8.4 3.0 -8.45 3.05 -8.45 3.1 -8.5 Q3.6 -8.85 4.2 -9.2 L4.45 -9.3 4.85 -9.55 5.3 -9.8 5.35 -9.8 5.35 -10.1 5.4 -10.85 Q5.4 -11.55 5.1 -12.05 4.9 -12.35 4.0 -13.4 L4.1 -13.4 Q5.1 -12.35 5.55 -11.6 M10.85 -1.8 Q11.05 -0.85 11.05 -0.1 L11.15 0.2 Q10.85 1.05 10.75 1.25 L10.5 1.55 9.95 2.2 9.25 2.9 9.15 3.35 9.05 3.5 Q9.0 3.7 8.85 3.85 L8.65 4.2 Q9.4 5.2 10.0 6.5 L10.4 7.45 Q11.05 9.05 11.2 10.35 11.3 10.7 11.3 11.3 11.3 11.7 11.2 12.0 11.05 12.45 10.7 12.45 10.1 12.45 9.75 12.1 L7.95 10.65 6.4 9.4 Q4.95 8.2 3.45 7.05 -0.75 4.0 -3.85 3.15 L-4.15 3.0 -4.4 3.35 Q-4.75 3.95 -5.6 4.75 -6.95 6.0 -8.0 6.2 L-8.25 6.0 -8.3 5.85 Q-8.3 4.75 -8.15 4.45 L-8.05 4.2 Q-9.1 4.7 -10.4 4.7 -11.7 4.7 -12.45 4.45 -13.1 4.2 -13.1 3.9 -13.1 3.7 -11.1 2.8 L-10.7 2.6 -10.9 2.6 Q-11.6 2.6 -12.65 2.2 -13.75 1.8 -13.75 1.4 -13.75 1.2 -12.2 0.9 L-10.6 0.65 Q-10.1 0.45 -9.6 0.3 L-11.05 -0.1 Q-12.95 -0.75 -13.9 -0.65 L-14.2 -0.9 Q-14.2 -1.35 -13.55 -1.85 -12.9 -2.3 -12.0 -2.55 L-11.15 -2.75 Q-12.2 -3.5 -13.15 -5.3 -13.65 -6.3 -14.05 -7.4 -14.35 -8.35 -14.35 -8.5 L-14.3 -8.95 -12.75 -7.9 -12.3 -7.6 Q-13.05 -8.3 -13.95 -9.2 -15.6 -10.85 -15.6 -11.05 -15.6 -11.35 -14.4 -11.35 L-13.65 -11.25 Q-12.95 -11.75 -10.7 -11.75 L-10.65 -11.75 -11.05 -12.2 Q-11.75 -13.05 -12.35 -14.2 L-12.35 -15.0 -12.3 -15.1 -12.1 -15.15 Q-11.6 -14.65 -10.7 -14.0 L-8.9 -12.95 -8.8 -12.95 -9.4 -13.5 Q-9.8 -13.95 -10.15 -14.4 -10.85 -15.4 -10.9 -16.45 -11.35 -16.9 -11.75 -17.45 L-11.7 -17.7 -7.5 -17.15 -5.3 -16.8 -6.4 -17.25 -8.3 -18.05 Q-8.2 -18.25 -7.85 -18.35 -7.2 -18.55 -5.5 -18.55 -3.7 -18.55 -1.75 -17.7 -0.3 -18.0 1.2 -17.5 0.8 -17.85 0.3 -18.2 -1.15 -19.25 -2.25 -19.45 L-2.25 -19.65 Q-2.25 -19.8 -1.85 -19.9 L-1.15 -19.95 Q1.95 -19.95 4.55 -17.1 5.2 -16.4 5.9 -15.35 5.9 -15.7 5.9 -16.2 5.9 -16.55 6.3 -17.1 6.65 -17.55 6.95 -17.75 7.15 -17.5 7.15 -17.25 L7.15 -16.9 Q7.15 -15.85 7.65 -14.9 7.9 -14.4 8.75 -13.35 9.55 -12.4 9.85 -11.7 10.4 -10.65 10.4 -9.35 L10.35 -9.1 10.6 -9.4 Q11.55 -10.25 12.75 -10.25 L12.8 -10.15 Q12.85 -10.1 12.85 -9.95 12.85 -9.8 12.3 -9.25 L12.25 -9.2 12.2 -9.1 Q11.7 -8.4 11.7 -8.25 L11.2 -6.7 Q10.65 -5.1 10.65 -4.55 10.65 -4.4 10.5 -3.85 L10.45 -3.5 10.6 -3.05 10.55 -2.9 10.65 -2.65 10.65 -2.6 10.85 -1.8 M4.7 -9.25 L4.7 -9.25 M7.95 -6.45 L7.5 -7.05 7.45 -7.15 Q6.55 -8.2 5.2 -9.0 L5.2 -8.8 Q3.9 -8.2 2.05 -6.8 L2.0 -6.75 1.65 -6.5 1.55 -6.4 Q-0.85 -4.45 -2.85 -1.9 -3.65 -0.9 -4.35 0.25 L-5.1 1.4 -5.1 1.45 -4.85 1.6 Q-4.2 1.95 -3.3 2.45 -3.0 2.55 -2.7 2.7 -1.6 3.4 -0.3 4.15 L3.5 6.2 3.55 6.2 Q4.55 7.15 6.45 8.75 8.5 10.55 9.55 11.2 L9.6 11.3 9.65 11.3 Q10.15 11.6 10.35 11.6 10.6 11.6 10.7 11.45 10.8 11.3 10.8 11.15 L10.8 10.9 10.7 10.85 10.7 10.8 10.65 10.8 10.6 10.75 10.65 10.7 Q10.5 9.6 10.35 9.05 10.1 8.3 9.75 7.7 L9.75 7.6 9.7 7.45 Q9.25 6.4 8.6 5.1 L8.4 4.85 8.0 4.25 7.95 4.25 Q7.9 4.25 7.9 4.15 L7.7 3.85 7.35 3.35 Q7.0 2.75 6.8 2.4 L6.75 2.35 6.8 2.35 6.5 1.95 6.9 0.75 7.0 0.65 Q7.4 0.3 8.05 0.0 8.4 -0.2 8.7 -0.25 L8.95 -0.3 9.05 -0.35 9.1 -0.35 Q9.6 -0.4 9.6 -0.05 9.6 0.2 9.45 0.25 L9.25 0.3 9.1 0.3 Q9.1 0.7 8.7 1.4 L8.6 1.55 Q8.1 2.35 7.7 2.65 L8.05 3.25 8.15 3.35 8.35 2.85 Q8.65 2.3 9.05 1.9 L9.1 1.65 Q9.1 1.55 9.4 1.2 L9.65 0.95 Q10.0 0.55 10.25 0.55 L10.25 0.7 10.4 0.5 10.6 0.2 10.3 -0.45 Q10.05 -1.05 9.85 -1.75 L9.55 -2.65 8.95 -4.5 8.9 -4.7 8.85 -4.75 8.4 -5.75 8.35 -5.75 8.25 -6.0 8.15 -6.2 8.1 -6.2 7.95 -6.45 M-5.1 1.45 L-5.1 1.45 M3.25 2.75 Q3.15 2.85 3.05 2.85 L3.05 2.75 2.75 2.85 2.4 2.85 2.2 2.9 1.55 2.95 Q0.1 2.95 -0.9 1.6 L-1.1 1.3 -1.45 0.7 -1.5 0.65 -1.5 0.6 -1.65 0.1 -2.05 0.25 Q-2.25 0.25 -2.2 0.2 L-2.25 0.15 -2.3 0.0 Q-2.3 -0.25 -1.6 -0.55 -1.0 -0.75 -0.6 -0.75 1.2 -0.75 2.3 0.1 L2.4 0.2 2.45 0.2 2.65 0.45 Q3.3 1.15 3.25 2.1 L3.2 2.1 3.25 2.6 3.25 2.75 M-1.3 -0.05 L-1.3 0.5 Q-1.0 1.15 -0.65 1.5 L-0.55 1.6 Q-0.25 1.8 0.15 2.0 0.95 2.3 2.1 2.4 L3.0 2.45 Q2.9 2.0 2.65 1.4 L2.35 0.8 Q1.5 -0.25 -0.1 -0.25 L-0.85 -0.15 -1.3 -0.05 M-5.0 2.5 L-5.5 2.0 -5.75 2.0 -5.8 2.0 Q-5.85 2.2 -6.05 2.55 -6.3 2.95 -6.7 3.3 L-7.15 3.95 Q-7.65 4.7 -7.65 4.8 L-7.6 5.25 -7.6 5.3 Q-7.25 5.15 -6.6 4.45 L-5.5 3.25 -4.85 2.6 -4.9 2.55 -4.95 2.55 -4.95 2.5 -5.0 2.5 M7.6 0.7 L7.55 0.75 Q7.3 0.95 7.05 1.35 L7.05 1.4 7.1 1.55 7.5 2.25 7.8 1.9 8.25 1.4 8.35 1.25 Q8.45 1.1 8.6 0.55 L8.65 0.35 8.2 0.45 Q7.85 0.55 7.6 0.7" fill="#111111" fill-rule="evenodd" stroke="none"/>
      <path d="M2.05 -6.8 Q3.9 -8.2 5.2 -8.8 L5.2 -9.0 Q6.55 -8.2 7.45 -7.15 L7.5 -7.05 7.95 -6.45 7.75 -6.0 Q7.05 -4.25 5.7 -3.15 L5.65 -3.15 Q4.55 -4.5 3.8 -5.35 2.8 -6.45 2.05 -6.8 M8.2 0.45 L8.25 0.45 8.3 0.65 Q8.3 0.85 8.15 1.05 8.05 1.2 7.95 1.2 L7.75 1.2 7.6 1.15 Q7.55 0.85 7.6 0.7 7.85 0.55 8.2 0.45 M1.95 0.7 Q1.95 0.85 1.8 1.0 1.65 1.1 1.5 1.15 1.25 0.85 1.25 0.5 1.25 0.2 1.6 0.3 1.95 0.4 1.95 0.7" fill="#ffffff" fill-rule="evenodd" stroke="none"/>
      <path d="M5.55 -11.6 Q5.45 -12.2 5.2 -12.65 4.7 -13.75 3.15 -15.25 L3.0 -15.25 Q3.0 -15.1 3.7 -13.45 4.35 -11.9 4.35 -11.65 4.35 -11.2 4.25 -10.75 4.05 -11.6 3.65 -12.25 2.7 -13.8 0.35 -15.15 L0.25 -15.05 Q1.1 -14.4 1.55 -12.95 1.85 -12.0 1.9 -11.3 L1.55 -11.75 Q0.35 -13.25 -1.45 -14.05 -2.5 -14.85 -3.75 -15.5 L-3.8 -15.25 Q-2.15 -13.9 -0.65 -11.2 L-0.45 -10.85 Q-2.55 -12.65 -6.05 -13.45 -3.0 -11.6 -2.05 -9.45 L-1.9 -9.0 Q-3.0 -9.55 -4.05 -9.75 -5.7 -10.05 -6.75 -9.45 -5.5 -9.3 -3.6 -8.55 L-3.25 -8.4 -4.35 -8.45 Q-5.75 -8.45 -7.0 -8.55 -8.65 -8.6 -9.15 -8.75 -9.95 -8.9 -11.0 -9.3 -11.65 -9.6 -12.0 -9.45 -11.8 -9.15 -11.3 -8.8 -9.85 -7.0 -8.75 -6.05 -6.85 -4.45 -4.35 -3.7 -4.75 -3.55 -5.85 -3.3 L-6.05 -3.25 -5.95 -3.25 Q-7.1 -3.45 -8.4 -3.95 -10.5 -4.75 -11.1 -5.6 L-11.2 -5.55 Q-11.15 -5.35 -10.7 -4.75 -10.15 -4.05 -9.45 -3.4 -8.0 -2.2 -6.55 -1.8 L-6.6 -1.8 Q-8.55 -1.55 -10.2 -1.45 L-10.15 -1.35 Q-9.8 -0.9 -8.35 -0.5 -7.35 -0.2 -6.3 -0.1 L-6.9 0.2 -6.9 0.3 -6.9 -0.05 -6.95 0.0 Q-9.05 -0.05 -10.45 -0.8 -11.15 -1.15 -11.45 -1.25 -12.05 -1.4 -12.9 -1.35 L-12.85 -1.4 -11.45 -1.85 Q-10.4 -2.2 -9.9 -2.3 L-9.55 -2.3 -9.15 -2.25 -8.5 -2.2 -8.55 -2.3 Q-8.95 -2.6 -9.5 -2.75 L-10.3 -3.45 -11.6 -4.65 Q-13.35 -6.4 -13.7 -7.95 -13.2 -7.45 -12.7 -7.15 -11.75 -6.5 -11.05 -6.5 -10.85 -6.5 -10.7 -6.55 -10.6 -6.6 -10.55 -6.7 L-10.6 -6.85 -11.05 -7.0 Q-11.45 -7.7 -12.5 -8.75 L-14.25 -10.55 -14.0 -10.6 Q-13.3 -10.6 -12.25 -10.2 -11.1 -9.75 -10.8 -9.75 L-10.75 -9.8 -12.3 -10.8 -12.5 -10.9 Q-10.65 -10.85 -9.9 -10.65 L-9.15 -10.45 -7.6 -10.3 Q-7.95 -10.65 -8.35 -10.95 L-8.3 -11.0 Q-9.0 -11.65 -9.95 -12.4 L-11.4 -13.55 -11.25 -13.6 -9.7 -12.75 Q-8.05 -11.95 -7.5 -11.95 -7.3 -11.95 -7.2 -12.1 L-7.1 -12.3 Q-8.65 -13.5 -9.4 -14.35 L-10.0 -15.1 -10.15 -15.7 -10.15 -15.8 -9.45 -15.3 Q-7.85 -14.35 -6.15 -14.35 L-5.75 -14.4 Q-6.85 -14.8 -8.25 -15.5 -9.75 -16.3 -10.35 -16.7 L-8.0 -16.45 -4.05 -16.15 Q-3.7 -16.15 -3.25 -16.3 -3.5 -16.45 -4.25 -16.6 L-4.2 -16.65 Q-4.25 -16.9 -4.9 -17.25 L-5.85 -17.8 -5.65 -17.85 Q-4.1 -17.7 -2.85 -17.3 L-2.9 -17.3 -2.7 -17.2 -2.4 -17.2 Q-1.8 -17.0 -1.3 -16.8 -0.55 -16.45 1.3 -15.35 1.1 -16.0 -0.05 -16.8 L0.95 -16.55 3.25 -15.85 3.5 -15.9 Q3.15 -16.5 2.5 -16.9 L2.5 -16.95 Q2.5 -17.15 1.4 -18.0 L-0.15 -19.1 Q1.4 -18.85 2.5 -18.1 3.3 -17.55 4.1 -16.55 4.95 -15.4 5.45 -14.85 6.25 -13.9 7.2 -13.35 L7.25 -13.45 Q7.1 -13.6 6.45 -14.6 6.35 -15.75 6.55 -16.55 L6.6 -16.5 6.6 -16.45 Q6.85 -15.45 7.6 -14.1 8.45 -12.55 8.85 -11.75 9.55 -10.4 9.75 -9.4 9.9 -8.75 9.85 -8.1 L9.85 -8.05 Q9.8 -7.55 9.6 -7.0 9.7 -7.15 9.9 -7.7 L9.95 -7.7 10.7 -8.5 Q11.2 -9.1 11.6 -9.3 11.3 -8.85 10.95 -8.15 10.2 -6.65 10.2 -6.05 10.2 -5.95 10.1 -5.7 L10.0 -5.45 10.0 -5.4 9.8 -5.7 9.75 -5.8 Q8.8 -7.35 8.65 -8.05 L8.15 -10.35 8.15 -10.55 Q8.15 -10.65 8.0 -11.0 L7.85 -11.35 Q7.6 -12.05 7.35 -12.6 L7.25 -12.6 7.25 -12.35 Q7.35 -11.1 6.85 -9.8 L6.7 -9.5 Q6.9 -10.85 6.7 -11.75 6.35 -13.05 5.2 -13.95 L5.05 -13.9 5.45 -12.4 5.7 -11.3 5.55 -11.6 M-7.5 0.55 L-8.4 1.0 -10.15 1.95 -11.05 2.0 Q-11.6 2.0 -12.1 1.8 L-12.8 1.55 Q-10.5 1.4 -9.35 0.9 L-8.6 0.55 -7.5 0.55 M-8.15 2.2 Q-9.4 3.1 -10.0 3.4 -9.95 3.5 -9.8 3.55 -8.8 3.7 -7.45 3.25 -8.65 4.0 -10.1 4.0 L-11.05 3.95 -11.9 3.85 Q-11.25 3.6 -9.85 2.8 L-9.25 2.45 Q-8.65 2.35 -8.15 2.2 M10.75 -2.35 L10.85 -1.85 10.85 -1.8 10.65 -2.6 10.65 -2.65 10.75 -2.35 M-7.5 -18.8 L-7.45 -18.8 -7.6 -18.7 -7.5 -18.8 M-10.5 -8.3 L-10.5 -8.25 -10.9 -8.55 -10.8 -8.45 -10.5 -8.3 M-5.75 2.0 L-6.0 2.55 Q-6.25 3.2 -6.65 3.75 L-6.6 3.9 Q-6.15 3.6 -5.0 2.5 L-4.95 2.5 -4.95 2.55 -4.9 2.55 -4.85 2.6 -5.5 3.25 -6.6 4.45 Q-7.25 5.15 -7.6 5.3 L-7.6 5.25 -7.65 4.8 Q-7.65 4.7 -7.15 3.95 L-6.7 3.3 Q-6.3 2.95 -6.05 2.55 -5.85 2.2 -5.8 2.0 L-5.75 2.0" fill="#b00000" fill-rule="evenodd" stroke="none"/>
      <path d="M-5.1 1.45 L-5.1 1.45" fill="#666666" fill-rule="evenodd" stroke="none"/>
      <path d="M-6.9 0.3 L-6.9 0.2 -6.3 -0.1 Q-7.35 -0.2 -8.35 -0.5 -9.8 -0.9 -10.15 -1.35 L-10.2 -1.45 Q-8.55 -1.55 -6.6 -1.8 L-6.55 -1.8 Q-8.0 -2.2 -9.45 -3.4 -10.15 -4.05 -10.7 -4.75 -11.15 -5.35 -11.2 -5.55 L-11.1 -5.6 Q-10.5 -4.75 -8.4 -3.95 -7.1 -3.45 -5.95 -3.25 L-6.05 -3.25 -5.85 -3.3 Q-4.75 -3.55 -4.35 -3.7 -6.85 -4.45 -8.75 -6.05 -9.85 -7.0 -11.3 -8.8 -11.8 -9.15 -12.0 -9.45 -11.65 -9.6 -11.0 -9.3 -9.95 -8.9 -9.15 -8.75 -8.65 -8.6 -7.0 -8.55 -5.75 -8.45 -4.35 -8.45 L-3.25 -8.4 -3.6 -8.55 Q-5.5 -9.3 -6.75 -9.45 -5.7 -10.05 -4.05 -9.75 -3.0 -9.55 -1.9 -9.0 L-2.05 -9.45 Q-3.0 -11.6 -6.05 -13.45 -2.55 -12.65 -0.45 -10.85 L-0.65 -11.2 Q-2.15 -13.9 -3.8 -15.25 L-3.75 -15.5 Q-2.5 -14.85 -1.45 -14.05 0.35 -13.25 1.55 -11.75 L1.9 -11.3 Q1.85 -12.0 1.55 -12.95 1.1 -14.4 0.25 -15.05 L0.35 -15.15 Q2.7 -13.8 3.65 -12.25 4.05 -11.6 4.25 -10.75 4.35 -11.2 4.35 -11.65 4.35 -11.9 3.7 -13.45 3.0 -15.1 3.0 -15.25 L3.15 -15.25 Q4.7 -13.75 5.2 -12.65 5.45 -12.2 5.55 -11.6 5.1 -12.35 4.1 -13.4 L4.0 -13.4 Q4.9 -12.35 5.1 -12.05 5.4 -11.55 5.4 -10.85 L5.35 -10.1 5.35 -9.8 5.3 -9.8 4.85 -9.55 4.45 -9.3 4.2 -9.2 Q3.6 -8.85 3.1 -8.5 L3.05 -8.45 3.0 -8.45 2.95 -8.4 2.6 -8.15 1.8 -7.6 1.15 -7.1 1.1 -7.1 0.95 -7.0 0.9 -7.1 0.85 -7.15 0.75 -7.3 0.45 -7.6 0.15 -7.8 Q-0.45 -8.2 -1.5 -8.6 -2.45 -8.9 -3.3 -9.05 L-4.1 -9.1 Q-4.1 -8.95 -4.0 -9.0 L-3.85 -9.05 Q-3.05 -9.15 -1.8 -8.55 -0.85 -8.1 -0.5 -7.75 L-0.4 -7.45 -0.35 -7.45 0.0 -6.75 0.25 -6.4 -0.95 -5.3 -1.15 -5.25 -1.2 -5.25 -1.3 -5.2 Q-1.7 -5.0 -2.0 -4.95 L-2.1 -4.95 -3.9 -4.9 Q-5.15 -4.8 -5.35 -4.6 -4.55 -4.75 -3.2 -4.55 L-2.5 -4.45 -1.85 -4.4 -2.5 -3.65 -2.75 -3.35 -2.9 -3.2 -3.45 -2.5 -3.45 -2.45 -3.8 -2.05 -3.95 -1.8 -5.0 -0.45 Q-5.15 -0.3 -5.25 -0.05 -5.45 0.35 -5.6 1.0 L-5.6 1.1 Q-5.7 1.55 -5.8 1.9 -5.95 1.9 -6.3 2.3 L-7.1 3.0 -7.45 3.25 Q-8.8 3.7 -9.8 3.55 -9.95 3.5 -10.0 3.4 -9.4 3.1 -8.15 2.2 -7.7 2.0 -7.3 1.75 -6.7 1.4 -6.35 0.85 L-6.4 0.85 Q-6.5 0.8 -6.65 0.75 L-6.95 1.0 Q-7.25 1.25 -7.6 1.45 -8.5 1.9 -10.15 1.95 L-8.4 1.0 -7.5 0.55 Q-7.15 0.5 -7.0 0.4 L-6.9 0.3 M5.7 -11.3 L5.45 -12.4 5.05 -13.9 5.2 -13.95 Q6.35 -13.05 6.7 -11.75 6.9 -10.85 6.7 -9.5 L6.85 -9.8 Q7.35 -11.1 7.25 -12.35 L7.25 -12.6 7.35 -12.6 Q7.6 -12.05 7.85 -11.35 L8.0 -11.0 Q8.15 -10.65 8.15 -10.55 L8.15 -10.35 8.65 -8.05 Q8.8 -7.35 9.75 -5.8 L9.8 -5.7 10.0 -5.4 10.0 -5.35 9.95 -5.0 9.95 -4.8 9.9 -4.7 9.85 -4.8 9.8 -5.0 9.45 -5.7 9.2 -6.1 9.15 -6.2 7.45 -8.45 7.4 -8.5 7.4 -8.55 7.35 -8.55 Q6.75 -9.1 6.1 -9.45 L5.95 -9.55 Q5.95 -10.7 5.7 -11.3 M10.6 -3.05 L10.7 -2.75 10.7 -2.65 10.75 -2.35 10.65 -2.65 10.55 -2.9 10.6 -3.05 M-10.5 -8.3 L-10.8 -8.45 -10.9 -8.55 -10.5 -8.25 -10.5 -8.3 M-5.75 2.0 L-5.5 2.0 -5.0 2.5 Q-6.15 3.6 -6.6 3.9 L-6.65 3.75 Q-6.25 3.2 -6.0 2.55 L-5.75 2.0" fill="#600000" fill-rule="evenodd" stroke="none"/>
      <path d="M10.3 -0.45 L10.6 0.2 10.4 0.5 10.25 0.7 10.25 0.55 Q10.0 0.55 9.65 0.95 L9.4 1.2 9.0 1.35 8.7 1.4 Q9.1 0.7 9.1 0.3 L9.25 0.3 9.45 0.25 Q9.6 0.2 9.6 -0.05 9.6 -0.4 9.1 -0.35 L9.05 -0.35 8.95 -0.3 8.7 -0.25 Q8.4 -0.2 8.05 0.0 7.4 0.3 7.0 0.65 L6.9 0.75 6.85 0.8 6.8 0.8 6.75 0.85 6.75 0.9 Q6.95 0.55 7.4 0.15 8.15 -0.5 8.7 -0.5 8.8 -0.65 9.0 -0.7 L9.45 -0.75 Q9.95 -0.75 10.25 -0.55 L10.3 -0.45 M10.6 10.75 L10.65 10.8 10.7 10.8 10.7 10.85 10.8 10.9 10.8 11.15 Q10.8 11.3 10.7 11.45 10.6 11.6 10.35 11.6 10.15 11.6 9.65 11.3 L9.6 11.3 9.55 11.2 Q8.5 10.55 6.45 8.75 4.55 7.15 3.55 6.2 L3.5 6.2 -0.3 4.15 Q-1.6 3.4 -2.7 2.7 -3.0 2.55 -3.3 2.45 -4.2 1.95 -4.85 1.6 L-5.1 1.45 -5.1 1.4 -4.35 0.25 Q-3.65 -0.9 -2.85 -1.9 L-2.2 -1.6 -2.35 -1.65 Q-2.15 -1.6 -2.1 -1.55 L-1.55 -1.3 -1.55 -1.25 -1.45 -1.25 -0.2 -1.1 Q0.85 -0.9 1.2 -0.9 1.45 -0.9 1.7 -0.7 2.25 -0.7 3.15 -0.1 4.45 0.85 4.45 1.55 4.0 2.95 3.65 3.05 L3.75 2.85 3.65 2.85 Q3.5 2.85 3.25 2.75 L3.25 2.6 3.2 2.1 3.25 2.1 Q3.3 1.15 2.65 0.45 L2.45 0.2 2.4 0.2 2.3 0.1 Q1.2 -0.75 -0.6 -0.75 -1.0 -0.75 -1.6 -0.55 -2.3 -0.25 -2.3 0.0 L-2.25 0.15 -2.2 0.2 Q-2.25 0.25 -2.05 0.25 L-1.65 0.1 -1.5 0.6 -1.5 0.65 -1.45 0.7 Q-1.95 0.95 -2.1 1.5 L-0.45 3.15 0.2 3.5 Q0.45 3.6 0.9 3.8 L1.35 3.95 1.25 3.95 Q1.5 3.8 1.8 3.7 2.6 3.45 3.0 3.45 L2.7 3.7 2.7 3.9 Q2.7 4.55 6.45 7.7 7.85 8.9 10.45 10.95 L10.55 10.85 10.6 10.75 M6.1 1.35 Q5.85 1.15 5.4 1.0 5.2 0.95 5.2 0.65 5.2 0.6 5.4 0.3 5.55 0.0 5.75 -0.2 6.3 -0.7 6.3 0.75 6.3 1.1 6.1 1.35 M2.6 3.75 L2.45 3.9 2.55 4.15 2.55 3.95 2.6 3.75" fill="#0070e0" fill-rule="evenodd" stroke="none"/>
      <path d="M2.05 -6.8 Q2.8 -6.45 3.8 -5.35 4.55 -4.5 5.65 -3.15 L5.7 -3.15 Q7.05 -4.25 7.75 -6.0 L7.95 -6.45 8.1 -6.2 8.15 -6.2 8.25 -6.0 8.35 -5.75 8.4 -5.75 8.85 -4.75 8.9 -4.7 8.95 -4.5 9.55 -2.65 9.85 -1.75 Q10.05 -1.05 10.3 -0.45 L10.25 -0.55 Q9.95 -0.75 9.45 -0.75 L9.0 -0.7 Q8.8 -0.65 8.7 -0.5 8.15 -0.5 7.4 0.15 6.95 0.55 6.75 0.9 L6.75 0.85 6.8 0.8 6.85 0.8 6.9 0.75 6.5 1.95 6.8 2.35 6.75 2.35 6.8 2.4 Q7.0 2.75 7.35 3.35 L7.7 3.85 7.9 4.15 Q7.9 4.25 7.95 4.25 L8.0 4.25 8.4 4.85 8.6 5.1 Q9.25 6.4 9.7 7.45 L9.75 7.6 9.75 7.7 Q10.1 8.3 10.35 9.05 10.5 9.6 10.65 10.7 L10.6 10.75 10.55 10.85 10.45 10.95 Q7.85 8.9 6.45 7.7 2.7 4.55 2.7 3.9 L2.7 3.7 3.0 3.45 Q2.6 3.45 1.8 3.7 1.5 3.8 1.25 3.95 L1.35 3.95 0.9 3.8 Q0.45 3.6 0.2 3.5 L-0.45 3.15 -2.1 1.5 Q-1.95 0.95 -1.45 0.7 L-1.1 1.3 -0.9 1.6 Q0.1 2.95 1.55 2.95 L2.2 2.9 2.4 2.85 2.75 2.85 3.05 2.75 3.05 2.85 Q3.15 2.85 3.25 2.75 3.5 2.85 3.65 2.85 L3.75 2.85 3.65 3.05 Q4.0 2.95 4.45 1.55 4.45 0.85 3.15 -0.1 2.25 -0.7 1.7 -0.7 1.45 -0.9 1.2 -0.9 0.85 -0.9 -0.2 -1.1 L-1.45 -1.25 -1.55 -1.25 -1.55 -1.3 -2.1 -1.55 Q-2.15 -1.6 -2.35 -1.65 L-2.2 -1.6 -2.85 -1.9 Q-0.85 -4.45 1.55 -6.4 L1.65 -6.5 2.0 -6.75 2.05 -6.8 M9.4 1.2 Q9.1 1.55 9.1 1.65 L9.05 1.9 Q8.65 2.3 8.35 2.85 L8.15 3.35 8.05 3.25 7.7 2.65 Q8.1 2.35 8.6 1.55 L8.7 1.4 9.0 1.35 9.4 1.2 M1.0 -3.3 Q0.5 -3.3 0.5 -2.8 L1.7 -1.6 Q3.05 -0.3 3.55 -0.3 3.7 -0.3 3.7 -0.35 L3.65 -0.4 3.65 -0.65 Q3.65 -1.25 3.15 -1.9 2.7 -2.5 2.05 -2.9 1.45 -3.3 1.0 -3.3 M7.95 -1.45 L7.65 -0.9 Q7.65 -0.85 7.7 -0.85 L8.1 -0.65 9.2 -1.05 Q9.55 -1.2 9.55 -1.6 9.55 -2.4 9.4 -2.65 9.25 -3.0 8.85 -2.65 L8.6 -2.45 Q8.3 -2.05 7.95 -1.45 M6.3 -1.35 L6.25 -1.4 Q6.1 -1.4 6.0 -1.3 5.9 -1.2 5.75 -0.85 L5.8 -0.6 Q6.0 -0.5 6.3 -0.5 6.45 -0.5 6.45 -0.55 L6.5 -0.6 6.55 -0.8 Q6.5 -1.1 6.4 -1.25 L6.3 -1.35 M6.1 1.35 Q6.3 1.1 6.3 0.75 6.3 -0.7 5.75 -0.2 5.55 0.0 5.4 0.3 5.2 0.6 5.2 0.65 5.2 0.95 5.4 1.0 5.85 1.15 6.1 1.35 M2.6 3.75 L2.55 3.95 2.55 4.15 2.45 3.9 2.6 3.75" fill="#80c0f0" fill-rule="evenodd" stroke="none"/>
      <path d="M1.0 -3.3 Q1.45 -3.3 2.05 -2.9 2.7 -2.5 3.15 -1.9 3.65 -1.25 3.65 -0.65 L3.65 -0.4 3.7 -0.35 Q3.7 -0.3 3.55 -0.3 3.05 -0.3 1.7 -1.6 L0.5 -2.8 Q0.5 -3.3 1.0 -3.3 M6.3 -1.35 L6.4 -1.25 Q6.5 -1.1 6.55 -0.8 L6.5 -0.6 6.45 -0.55 Q6.45 -0.5 6.3 -0.5 6.0 -0.5 5.8 -0.6 L5.75 -0.85 Q5.9 -1.2 6.0 -1.3 6.1 -1.4 6.25 -1.4 L6.3 -1.35 M7.95 -1.45 Q8.3 -2.05 8.6 -2.45 L8.85 -2.65 Q9.25 -3.0 9.4 -2.65 9.55 -2.4 9.55 -1.6 9.55 -1.2 9.2 -1.05 L8.1 -0.65 7.7 -0.85 Q7.65 -0.85 7.65 -0.9 L7.95 -1.45" fill="#d0f0f0" fill-rule="evenodd" stroke="none"/>
      <path d="M-1.3 -0.05 L-0.85 -0.15 -0.1 -0.25 Q1.5 -0.25 2.35 0.8 L2.65 1.4 Q2.9 2.0 3.0 2.45 L2.1 2.4 Q0.95 2.3 0.15 2.0 -0.25 1.8 -0.55 1.6 L-0.65 1.5 Q-1.0 1.15 -1.3 0.5 L-1.3 -0.05 M8.2 0.45 L8.65 0.35 8.6 0.55 Q8.45 1.1 8.35 1.25 L8.25 1.4 7.8 1.9 7.5 2.25 7.1 1.55 7.05 1.4 7.05 1.35 Q7.3 0.95 7.55 0.75 L7.6 0.7 Q7.55 0.85 7.6 1.15 L7.75 1.2 7.95 1.2 Q8.05 1.2 8.15 1.05 8.3 0.85 8.3 0.65 L8.25 0.45 8.2 0.45 M1.95 0.7 Q1.95 0.4 1.6 0.3 1.25 0.2 1.25 0.5 1.25 0.85 1.5 1.15 1.65 1.1 1.8 1.0 1.95 0.85 1.95 0.7" fill="#1a1a1a" fill-rule="evenodd" stroke="none"/>
    </g>
  </defs>
</svg>
