<?xml version="1.0" encoding="UTF-8" standalone="no"?>
<svg xmlns:ffdec="https://www.free-decompiler.com/flash" xmlns:xlink="http://www.w3.org/1999/xlink" ffdec:objectType="frame" height="55.65px" width="151.55px" xmlns="http://www.w3.org/2000/svg">
  <g transform="matrix(1.0, 0.0, 0.0, 1.0, 67.2, 60.55)">
    <use ffdec:characterId="660" height="7.95" transform="matrix(7.0, 0.0, 0.0, 7.0, -67.2, -60.55)" width="21.65" xlink:href="#shape0"/>
  </g>
  <defs>
    <g id="shape0" transform="matrix(1.0, 0.0, 0.0, 1.0, 9.6, 8.65)">
      <path d="M7.0 -7.35 Q9.7 -7.2 10.75 -6.5 L10.45 -3.05 Q9.3 -2.4 7.5 -2.2 10.0 -5.35 7.0 -7.35 M3.4 -2.2 Q1.6 -2.35 -0.6 -2.75 -1.6 -4.15 -1.05 -5.75 L-0.4 -5.9 -0.45 -5.95 -0.85 -6.2 Q-0.65 -6.6 -0.35 -7.05 L3.4 -7.35 Q0.45 -4.45 3.4 -2.2 M3.3 -5.75 L3.35 -5.8 3.9 -5.7 Q4.35 -5.7 4.75 -5.5 4.3 -5.85 4.2 -6.35 L4.3 -6.35 4.2 -6.4 4.25 -6.45 4.45 -6.4 4.4 -6.45 4.65 -6.4 5.15 -6.25 5.2 -6.25 5.9 -5.95 6.1 -5.8 6.55 -5.5 6.6 -5.45 7.15 -4.85 7.3 -4.65 7.3 -4.6 7.5 -4.2 7.5 -4.25 7.55 -4.3 Q7.8 -4.15 7.7 -3.9 L7.7 -3.85 7.6 -3.85 7.65 -3.8 7.65 -3.75 7.55 -3.8 7.5 -3.8 7.6 -3.7 6.85 -3.7 6.05 -3.65 5.0 -3.5 4.3 -3.35 4.35 -3.4 3.8 -3.25 3.75 -3.1 3.7 -3.1 Q3.35 -3.95 4.2 -4.6 L4.3 -4.65 4.3 -4.5 4.3 -4.45 4.25 -4.4 4.25 -4.25 Q4.95 -4.7 6.0 -4.65 L6.0 -4.7 6.6 -4.5 7.1 -4.35 7.05 -4.35 7.0 -4.4 7.0 -4.45 7.0 -4.5 6.95 -4.55 6.9 -4.55 6.8 -4.6 6.7 -4.7 6.45 -4.85 6.2 -5.1 5.3 -5.75 5.25 -5.75 5.1 -5.85 5.05 -5.9 4.95 -5.95 4.9 -5.95 4.85 -6.0 4.75 -6.05 4.9 -5.95 4.9 -5.9 5.05 -5.75 5.25 -5.45 Q5.4 -5.4 5.45 -5.25 L5.45 -5.1 5.3 -5.15 5.2 -5.15 5.25 -5.1 4.85 -5.25 4.65 -5.25 4.15 -5.25 Q4.4 -5.1 4.55 -4.7 L4.55 -4.65 4.3 -4.65 4.2 -4.65 4.15 -4.7 Q3.65 -4.75 3.2 -5.05 L3.0 -5.2 2.9 -5.3 2.6 -5.3 2.65 -5.5 Q2.75 -5.55 2.85 -5.7 L3.3 -5.75 M4.75 -5.5 L4.75 -5.5 M3.9 -3.4 L3.95 -3.45 3.9 -3.45 3.95 -3.5 3.9 -3.4" fill="#111111" fill-rule="evenodd" stroke="none"/>
      <path d="M4.9 -5.95 L4.75 -6.05 4.85 -6.0 4.9 -5.95 4.95 -5.95 5.05 -5.9 5.1 -5.85 Q5.75 -5.05 6.6 -4.5 L6.0 -4.7 6.0 -4.65 Q4.95 -4.7 4.25 -4.25 L4.25 -4.4 4.3 -4.45 4.3 -4.5 4.3 -4.65 4.55 -4.65 4.55 -4.7 Q4.4 -5.1 4.15 -5.25 L4.65 -5.25 4.85 -5.25 5.25 -5.1 5.2 -5.15 5.3 -5.15 5.45 -5.1 5.45 -5.25 Q5.4 -5.4 5.25 -5.45 L5.05 -5.75 4.9 -5.9 4.9 -5.95 M7.0 -4.45 L7.0 -4.4 7.05 -4.35 7.0 -4.45 M3.9 -3.45 L3.95 -3.45 3.9 -3.4 3.9 -3.45" fill="#666666" fill-rule="evenodd" stroke="none"/>
      <path d="M4.65 -7.4 Q5.95 -7.4 7.0 -7.35 10.0 -5.35 7.5 -2.2 L7.25 -2.15 6.3 -2.1 Q6.6 -2.9 6.85 -3.7 L7.6 -3.7 7.5 -3.8 7.55 -3.8 7.65 -3.75 7.65 -3.8 7.6 -3.85 7.7 -3.85 7.7 -3.9 Q7.8 -4.15 7.55 -4.3 L7.5 -4.25 7.5 -4.2 7.3 -4.6 7.3 -4.65 7.15 -4.85 7.35 -5.9 Q7.0 -6.15 6.6 -6.2 L6.65 -6.25 Q6.7 -6.55 6.55 -6.7 L6.45 -6.7 Q6.0 -6.15 6.1 -5.8 L5.9 -5.95 5.2 -6.25 5.15 -6.25 5.4 -6.6 5.35 -6.7 Q5.2 -7.25 4.65 -7.4 M5.95 -2.1 L3.4 -2.2 Q0.45 -4.45 3.4 -7.35 L4.55 -7.4 Q3.45 -6.95 3.3 -5.75 L2.85 -5.7 Q2.75 -5.55 2.65 -5.5 L2.6 -5.3 2.9 -5.3 3.0 -5.2 3.2 -5.05 Q3.05 -2.2 5.45 -2.55 5.6 -2.4 5.95 -2.3 L5.95 -2.1 M5.1 -5.85 L5.25 -5.75 5.3 -5.75 6.2 -5.1 6.45 -4.85 6.7 -4.7 6.8 -4.6 6.9 -4.55 6.95 -4.55 6.95 -4.5 7.0 -4.5 7.0 -4.45 7.05 -4.35 7.1 -4.35 6.6 -4.5 Q5.75 -5.05 5.1 -5.85 M5.0 -3.5 L6.05 -3.65 6.0 -3.35 5.6 -3.55 5.55 -3.55 Q5.4 -3.3 5.3 -3.1 5.15 -3.3 5.0 -3.5 M4.75 -5.5 L4.75 -5.5 M6.55 -5.5 L6.6 -5.5 6.6 -5.45 6.55 -5.5" fill="#cccccc" fill-rule="evenodd" stroke="none"/>
      <path d="M-0.6 -2.75 Q-4.0 -3.35 -8.25 -4.55 L-8.2 -5.25 Q-5.35 -3.3 -1.35 -3.25 L-1.4 -3.3 Q-3.1 -4.15 -5.0 -4.7 L-2.7 -4.55 -1.45 -4.5 -1.45 -4.55 Q-3.9 -5.75 -6.8 -5.85 L-7.0 -5.8 -8.05 -5.85 -8.2 -5.8 -8.2 -6.05 -6.75 -6.3 Q-4.0 -5.3 -1.05 -5.75 -1.6 -4.15 -0.6 -2.75 M-8.2 -5.3 L-8.2 -5.35 -8.1 -5.3 -8.15 -5.35 -8.2 -5.3 M-2.9 -6.8 L-0.35 -7.05 Q-0.65 -6.6 -0.85 -6.2 -1.8 -6.7 -2.9 -6.8" fill="#69221e" fill-rule="evenodd" stroke="none"/>
      <path d="M4.55 -7.4 L4.65 -7.4 4.55 -7.4 4.65 -7.4 Q5.2 -7.25 5.35 -6.7 L5.4 -6.6 5.15 -6.25 4.65 -6.4 4.4 -6.45 4.45 -6.4 4.25 -6.45 4.2 -6.4 4.3 -6.35 4.2 -6.35 Q4.3 -5.85 4.75 -5.5 4.35 -5.7 3.9 -5.7 L3.35 -5.8 3.3 -5.75 Q3.45 -6.95 4.55 -7.4 M6.3 -2.1 L6.15 -1.85 6.0 -1.55 5.95 -2.1 5.95 -2.3 Q5.6 -2.4 5.45 -2.55 3.05 -2.2 3.2 -5.05 3.65 -4.75 4.15 -4.7 L4.2 -4.65 4.3 -4.65 4.2 -4.6 Q3.35 -3.95 3.7 -3.1 L3.75 -3.1 3.8 -3.25 4.35 -3.4 4.3 -3.35 5.0 -3.5 Q5.15 -3.3 5.3 -3.1 5.4 -3.3 5.55 -3.55 L5.6 -3.55 6.0 -3.35 6.05 -3.65 6.85 -3.7 Q6.6 -2.9 6.3 -2.1 L5.95 -2.1 6.3 -2.1 M6.95 -4.55 L7.0 -4.5 7.0 -4.45 7.0 -4.5 6.95 -4.5 6.95 -4.55 M4.3 -4.45 L4.3 -4.5 4.3 -4.45 M7.15 -4.85 L6.6 -5.45 6.6 -5.5 6.55 -5.5 6.1 -5.8 Q6.0 -6.15 6.45 -6.7 L6.55 -6.7 Q6.7 -6.55 6.65 -6.25 L6.6 -6.2 Q7.0 -6.15 7.35 -5.9 L7.15 -4.85 M4.9 -5.9 L4.9 -5.95 4.9 -5.9 M3.9 -3.4 L3.95 -3.5 3.9 -3.45 3.9 -3.4" fill="#999999" fill-rule="evenodd" stroke="none"/>
      <path d="M-8.2 -5.25 L-8.25 -5.3 -8.2 -5.3 -8.2 -5.25 -8.2 -5.3 -8.15 -5.35 -8.1 -5.3 -8.2 -5.35 -8.75 -5.5 Q-8.75 -5.65 -8.6 -5.75 L-8.5 -5.75 -8.2 -5.8 -8.05 -5.85 -7.0 -5.8 -6.8 -5.85 Q-3.9 -5.75 -1.45 -4.55 L-1.45 -4.5 -2.7 -4.55 -5.0 -4.7 Q-3.1 -4.15 -1.4 -3.3 L-1.35 -3.25 Q-5.35 -3.3 -8.2 -5.25 M-8.2 -5.8 L-8.2 -5.35 -8.2 -5.8" fill="#571c19" fill-rule="evenodd" stroke="none"/>
      <path d="M-6.75 -6.3 L-7.05 -6.4 Q-6.9 -6.75 -6.4 -6.75 -5.35 -6.7 -4.35 -6.75 -3.6 -6.85 -2.9 -6.8 -1.8 -6.7 -0.85 -6.2 L-1.05 -5.75 -0.85 -6.2 -0.45 -5.95 -0.4 -5.9 -1.05 -5.75 Q-4.0 -5.3 -6.75 -6.3 L-2.9 -6.8 -6.75 -6.3" fill="#822a25" fill-rule="evenodd" stroke="none"/>
      <path d="M4.55 -7.4 L4.65 -7.4 Q5.95 -7.4 7.0 -7.35 9.7 -7.2 10.75 -6.5 L10.45 -3.05 Q9.3 -2.4 7.5 -2.2 L7.25 -2.15 6.3 -2.1 5.95 -2.1 3.4 -2.2 Q1.6 -2.35 -0.6 -2.75 -4.0 -3.35 -8.25 -4.55 L-8.2 -5.25 -8.2 -5.3 -8.2 -5.35 -8.2 -5.8 -8.2 -6.05 -6.75 -6.3 -2.9 -6.8 -0.35 -7.05 3.4 -7.35 4.55 -7.4 M7.0 -7.35 Q10.0 -5.35 7.5 -2.2 M3.4 -7.35 Q0.45 -4.45 3.4 -2.2 M-0.85 -6.2 L-1.05 -5.75 Q-1.6 -4.15 -0.6 -2.75 M-0.85 -6.2 Q-0.65 -6.6 -0.35 -7.05" fill="none" stroke="#1a1a1a" stroke-linecap="round" stroke-linejoin="bevel" stroke-width="0.8500000000000001"/>
    </g>
  </defs>
</svg>
