<?xml version="1.0" encoding="UTF-8" standalone="no"?>
<svg xmlns:ffdec="https://www.free-decompiler.com/flash" xmlns:xlink="http://www.w3.org/1999/xlink" ffdec:objectType="frame" height="254.2px" width="203.3px" xmlns="http://www.w3.org/2000/svg">
  <g transform="matrix(1.0, 0.0, 0.0, 1.0, 98.15, 220.8)">
    <use ffdec:characterId="337" height="40.0" transform="matrix(0.0594, 0.0, 0.0, 0.0594, -56.5621, -186.4695)" width="40.0" xlink:href="#sprite0"/>
    <use ffdec:characterId="337" height="40.0" transform="matrix(0.0824, 0.0, 0.0, 0.0824, -6.7818, -156.684)" width="40.0" xlink:href="#sprite0"/>
    <use ffdec:characterId="337" height="40.0" transform="matrix(0.0489, 0.0, 0.0, 0.0489, -27.3477, -145.2803)" width="40.0" xlink:href="#sprite0"/>
    <use ffdec:characterId="337" height="40.0" transform="matrix(0.0898, 0.0, 0.0, 0.0898, -52.4313, -160.1658)" width="40.0" xlink:href="#sprite0"/>
    <use ffdec:characterId="337" height="40.0" transform="matrix(0.0654, 0.0, 0.0, 0.0654, 26.4168, -157.3264)" width="40.0" xlink:href="#sprite0"/>
    <use ffdec:characterId="337" height="40.0" transform="matrix(0.0808, 0.0, 0.0, 0.0808, 99.2518, -149.9543)" width="40.0" xlink:href="#sprite0"/>
    <use ffdec:characterId="337" height="40.0" transform="matrix(0.0827, 0.0, 0.0, 0.0827, 83.5629, -191.4886)" width="40.0" xlink:href="#sprite0"/>
    <use ffdec:characterId="337" height="40.0" transform="matrix(0.0671, 0.0, 0.0, 0.0671, 91.4307, -150.5582)" width="40.0" xlink:href="#sprite0"/>
    <use ffdec:characterId="337" height="40.0" transform="matrix(0.0693, 0.0, 0.0, 0.0693, 80.1355, -166.748)" width="40.0" xlink:href="#sprite0"/>
    <use ffdec:characterId="337" height="40.0" transform="matrix(0.096, 0.0, 0.0, 0.096, 62.7917, -163.7779)" width="40.0" xlink:href="#sprite0"/>
  </g>
  <defs>
    <g id="sprite0" transform="matrix(1.0, 0.0, 0.0, 1.0, 20.4, 18.0)">
      <use ffdec:characterId="336" height="40.0" transform="matrix(1.0, 0.0, 0.0, 1.0, -20.4, -18.0)" width="40.0" xlink:href="#shape0"/>
    </g>
    <g id="shape0" transform="matrix(1.0, 0.0, 0.0, 1.0, 20.4, 18.0)">
      <path d="M13.75 -12.1 Q19.6 -6.25 19.6 2.0 19.6 10.2 13.8 16.0 L13.65 16.1 Q7.85 22.0 -0.4 22.0 -8.6 22.05 -14.6 16.05 -20.4 10.25 -20.4 2.0 -20.4 -6.25 -14.6 -12.1 L-14.55 -12.2 Q-8.6 -18.0 -0.4 -18.0 7.9 -18.0 13.7 -12.15 L13.75 -12.1" fill="#ffffff" fill-opacity="0.003921569" fill-rule="evenodd" stroke="none"/>
      <path d="M-0.4 -16.0 Q7.05 -16.0 12.3 -10.7 17.6 -5.45 17.6 2.0 17.6 9.2 12.55 14.35 L12.35 14.6 Q7.1 20.0 -0.4 20.0 -7.8 20.05 -13.2 14.65 -18.4 9.4 -18.4 2.0 -18.4 -5.45 -13.2 -10.7 L-13.15 -10.75 Q-7.75 -16.0 -0.4 -16.0" fill="#ffffff" fill-opacity="0.007843138" fill-rule="evenodd" stroke="none"/>
      <path d="M10.9 -9.3 Q15.6 -4.6 15.6 2.0 15.6 8.55 10.9 13.2 L10.85 13.25 Q6.2 18.0 -0.4 18.0 -6.95 18.0 -11.75 13.25 -16.4 8.6 -16.4 2.0 -16.4 -4.6 -11.75 -9.3 -6.95 -14.0 -0.4 -14.0 6.2 -14.0 10.85 -9.3 L10.9 -9.3" fill="#ffffff" fill-opacity="0.011764706" fill-rule="evenodd" stroke="none"/>
      <path d="M-0.4 -12.0 Q5.4 -12.0 9.45 -7.9 13.6 -3.8 13.6 2.0 13.6 7.75 9.45 11.8 5.4 16.0 -0.4 16.0 -6.15 16.0 -10.35 11.8 -14.4 7.75 -14.4 2.0 -14.4 -3.8 -10.35 -7.9 -6.15 -12.0 -0.4 -12.0" fill="#ffffff" fill-opacity="0.011764706" fill-rule="evenodd" stroke="none"/>
    </g>
  </defs>
</svg>
