<?xml version="1.0" encoding="UTF-8" standalone="no"?>
<svg xmlns:ffdec="https://www.free-decompiler.com/flash" xmlns:xlink="http://www.w3.org/1999/xlink" ffdec:objectType="frame" height="98.05px" width="543.85px" xmlns="http://www.w3.org/2000/svg">
  <g transform="matrix(1.0, 0.0, 0.0, 1.0, 3.65, 5.6)">
    <use ffdec:characterId="1862" height="98.05" transform="matrix(1.0, 0.0, 0.0, 1.0, -3.65, -5.6)" width="543.85" xlink:href="#shape0"/>
  </g>
  <defs>
    <g id="shape0" transform="matrix(1.0, 0.0, 0.0, 1.0, 3.65, 5.6)">
      <path d="M82.15 1.1 Q81.0 0.45 81.0 -0.65 L81.4 -3.05 Q81.8 -4.65 81.8 -5.6 L82.75 -5.6 Q83.25 -4.15 83.25 -1.85 L88.5 -1.9 97.05 -1.3 110.6 -1.05 Q115.15 -4.1 121.85 -3.05 L128.75 -1.65 135.9 -0.85 146.15 -1.35 151.75 -1.7 Q155.35 -1.7 157.15 0.9 L156.6 0.5 157.2 0.95 158.05 1.6 158.1 1.65 Q159.5 2.9 160.5 4.6 L162.6 9.65 161.0 9.65 159.1 9.6 157.7 6.4 Q156.2 3.45 154.35 2.15 L154.35 2.1 154.3 1.9 154.1 1.15 153.95 1.15 152.65 0.65 148.1 0.65 140.2 0.95 133.3 1.05 92.65 1.05 91.45 1.15 Q87.2 1.4 82.2 1.1 L82.15 1.1" fill="#dcdca5" fill-rule="evenodd" stroke="none"/>
      <path d="M162.6 9.65 L273.5 9.6 273.5 9.55 332.7 9.55 332.0 9.35 493.0 9.2 494.05 9.2 Q505.15 8.9 509.3 8.95 L513.7 9.2 516.0 9.35 522.6 9.0 523.1 9.25 Q526.0 8.5 528.9 10.8 L529.65 11.45 533.7 15.0 539.0 19.1 538.5 21.35 538.8 24.3 538.3 28.8 538.65 29.95 Q538.85 31.4 538.4 32.25 L538.45 32.9 Q538.45 33.9 538.1 34.0 L537.15 34.2 530.9 34.35 Q529.3 37.95 529.3 41.1 529.3 43.95 530.75 59.4 L531.95 71.95 532.2 74.9 531.9 74.95 Q531.9 76.35 531.6 75.85 L530.45 75.95 528.7 76.05 513.7 77.6 483.7 78.15 390.2 78.35 389.6 78.4 346.75 78.4 346.75 78.2 149.4 78.4 148.8 78.35 55.3 78.15 25.3 77.6 8.55 75.95 7.4 75.85 Q7.2 76.15 7.15 75.8 L7.1 74.95 6.8 74.9 7.4 68.5 8.25 59.4 Q9.7 43.95 9.7 41.1 9.7 37.95 8.1 34.35 L1.85 34.2 0.9 34.0 Q0.55 33.9 0.55 32.9 L0.6 32.25 Q0.15 31.4 0.35 29.95 L1.55 25.9 Q1.55 25.1 0.75 22.3 0.0 19.5 0.0 18.7 0.0 17.9 0.9 17.35 L0.75 16.85 Q4.1 15.5 42.25 9.5 L42.45 9.5 43.8 9.3 61.15 6.25 61.45 6.2 61.65 6.15 72.65 3.6 73.15 3.45 73.2 3.4 Q78.75 1.75 79.7 0.3 L79.9 0.0 Q80.25 0.0 80.8 0.35 L81.55 1.05 82.15 1.1 82.2 1.1 Q87.2 1.4 91.45 1.15 L92.65 1.05 133.3 1.05 140.2 0.95 148.1 0.65 152.65 0.65 153.95 1.15 154.1 1.15 154.3 1.9 154.35 2.1 154.35 2.15 Q156.2 3.45 157.7 6.4 L159.1 9.6 161.0 9.65 162.6 9.65 M531.75 16.3 L529.2 13.9 525.65 11.1 522.8 11.1 521.45 10.55 511.6 11.0 511.5 10.95 510.4 11.15 508.1 11.45 507.4 11.45 494.05 11.35 463.25 11.3 462.3 11.3 457.55 11.3 457.15 11.3 379.3 11.0 378.0 10.95 346.75 11.0 346.75 11.2 273.5 11.1 273.5 11.05 161.0 10.95 148.5 10.7 128.6 9.85 Q131.0 8.5 136.4 6.8 L136.45 6.75 139.7 5.75 143.7 4.6 144.35 4.4 146.45 3.8 147.35 3.5 147.45 3.5 147.55 3.45 148.05 3.3 147.85 3.3 148.1 3.25 92.65 2.95 Q91.35 2.75 85.9 2.8 L80.95 2.8 80.65 4.5 79.75 4.4 Q79.15 4.1 78.15 4.15 L40.95 10.9 13.9 15.75 13.3 15.85 5.45 17.2 5.2 17.25 4.25 17.4 3.85 18.65 3.55 19.7 3.15 21.65 2.8 24.15 2.7 26.0 Q2.7 26.95 3.15 28.05 L2.65 30.95 2.9 32.4 5.9 32.65 15.85 33.1 26.55 33.4 Q46.25 32.9 58.55 32.9 L70.6 32.9 74.6 32.95 76.65 33.0 80.0 33.05 80.05 33.7 273.5 33.65 273.5 33.6 275.8 33.6 346.75 33.6 346.75 33.65 458.95 33.7 459.0 33.05 462.35 33.0 464.4 32.95 468.4 32.9 480.45 32.9 494.05 33.05 512.45 33.4 523.15 33.1 533.1 32.65 536.1 32.4 536.35 30.95 535.85 28.05 536.3 26.0 536.2 24.15 535.85 21.65 535.45 19.7 535.15 18.65 535.15 18.6 Q534.2 18.2 532.1 16.8 L531.9 16.55 531.9 16.4 531.75 16.3 M527.95 42.1 L527.9 40.4 527.85 40.05 527.65 35.1 527.65 34.65 525.85 35.05 524.8 35.3 524.3 35.2 515.3 34.7 Q515.3 34.55 506.95 34.85 L262.05 34.85 257.3 34.85 84.25 34.85 80.05 34.85 32.05 34.85 Q23.7 34.55 23.7 34.7 L14.7 35.2 14.2 35.3 13.15 35.05 11.35 34.65 11.35 35.1 11.15 40.05 11.1 40.4 11.05 42.1 10.8 47.45 10.75 47.85 10.2 59.05 Q10.2 66.85 9.7 71.75 L9.65 72.5 10.2 72.15 10.3 72.05 10.35 72.15 10.35 72.3 10.4 72.45 10.35 73.05 10.3 73.85 12.4 74.45 15.75 75.15 25.65 76.95 55.3 76.6 146.45 76.6 149.4 76.45 273.5 76.55 273.5 76.6 346.75 76.65 346.75 76.5 389.6 76.45 392.55 76.6 513.35 76.95 518.1 76.05 523.25 75.15 526.6 74.45 528.7 73.85 528.65 73.05 528.6 72.6 528.6 72.45 528.65 72.3 528.65 72.15 528.7 72.05 528.8 72.15 529.35 72.5 529.3 71.75 Q528.8 66.85 528.8 59.05 L528.25 47.85 528.2 47.45 527.95 42.1 M151.4 3.25 L144.35 5.8 Q138.5 7.85 132.95 8.8 140.3 8.85 149.05 9.2 L155.4 9.45 Q154.6 5.75 151.7 3.25 L151.4 3.25" fill="#92ad52" fill-rule="evenodd" stroke="none"/>
      <path d="M531.75 16.3 L531.9 16.55 532.1 16.8 Q534.2 18.2 535.15 18.6 L535.15 18.65 531.8 18.75 520.95 19.75 505.65 20.5 472.25 20.55 416.7 20.55 346.75 20.55 346.75 20.65 273.5 20.65 273.5 20.6 33.35 20.5 18.05 19.75 7.2 18.75 3.85 18.65 4.25 17.4 5.2 17.25 5.45 17.2 13.3 15.85 13.9 15.75 40.95 10.9 78.15 4.15 Q79.15 4.1 79.75 4.4 L80.65 4.5 80.95 2.8 85.9 2.8 Q91.35 2.75 92.65 2.95 L148.1 3.25 147.85 3.3 148.05 3.3 147.55 3.45 147.45 3.5 147.35 3.5 146.45 3.8 144.35 4.4 143.7 4.6 Q139.9 5.3 136.45 6.75 L136.4 6.8 Q131.0 8.5 128.6 9.85 L148.5 10.7 161.0 10.95 273.5 11.05 273.5 11.1 346.75 11.2 346.75 11.0 378.0 10.95 379.3 11.0 457.15 11.3 457.55 11.3 462.3 11.3 463.25 11.3 494.05 11.35 507.4 11.45 508.1 11.45 510.4 11.15 511.5 10.95 511.6 11.0 521.45 10.55 522.8 11.1 525.65 11.1 529.2 13.9 531.75 16.3 M527.6 14.95 L525.05 12.75 Q522.3 12.75 521.55 12.15 L521.5 12.15 515.05 11.75 503.4 12.2 501.9 12.4 499.1 11.8 494.05 11.85 487.9 11.9 475.4 12.25 463.25 12.45 463.25 12.55 457.2 12.6 453.4 12.75 446.7 12.9 442.9 12.95 416.7 13.2 410.05 13.25 406.2 13.1 Q400.35 15.85 391.65 18.8 L391.1 18.7 391.75 18.8 395.9 19.5 429.6 19.5 442.9 19.3 448.4 19.25 472.25 19.1 472.25 18.9 475.65 18.85 476.5 18.55 485.15 19.4 Q490.3 19.6 493.8 18.55 L494.05 18.5 495.2 18.25 499.25 18.55 507.65 18.85 519.05 18.55 520.35 18.9 520.75 18.9 520.35 18.85 519.45 18.55 519.4 18.5 524.45 17.95 525.05 17.85 525.15 17.85 528.05 17.85 529.55 16.65 527.6 14.95 M524.5 47.85 L527.05 47.85 528.25 47.85 528.8 59.05 Q528.8 66.85 529.3 71.75 L529.25 71.8 528.95 72.2 528.8 72.15 528.7 72.05 528.65 72.15 528.65 72.3 528.6 72.45 528.6 72.6 526.6 74.45 523.25 75.15 518.1 76.05 513.35 76.95 392.55 76.6 389.6 76.45 346.75 76.5 346.75 76.65 273.5 76.6 273.5 76.55 149.4 76.45 146.45 76.6 55.3 76.6 25.65 76.95 15.75 75.15 12.4 74.45 10.4 72.6 10.4 72.45 10.35 72.3 10.35 72.15 10.3 72.05 10.2 72.15 10.05 72.2 9.75 71.8 9.7 71.75 Q10.2 66.85 10.2 59.05 L10.75 47.85 11.95 47.85 14.5 47.85 Q14.15 50.7 14.2 52.4 14.3 55.15 13.3 58.45 12.3 61.9 12.3 64.05 12.3 67.65 15.65 69.85 22.9 74.6 43.6 73.35 L57.15 73.35 Q58.45 71.95 61.65 69.9 67.85 65.9 68.95 64.25 69.75 63.0 71.35 57.9 72.55 54.0 74.25 53.3 L69.5 63.6 Q66.2 70.65 66.2 71.15 66.2 72.5 67.15 73.35 L68.2 73.35 69.5 73.05 114.6 73.05 123.45 74.2 146.8 74.35 155.3 73.7 163.6 73.05 238.8 73.05 252.05 73.55 257.1 73.7 Q258.25 72.45 260.6 71.3 266.2 68.55 267.8 66.05 L270.2 62.45 269.8 62.45 269.6 62.3 Q269.4 62.15 269.4 61.15 269.4 60.7 270.35 59.8 L271.25 58.8 Q271.25 57.0 267.95 49.75 L267.05 47.85 267.85 47.85 268.9 47.85 271.85 53.45 274.9 59.05 Q277.15 58.7 279.7 60.25 L279.75 60.4 290.55 62.8 Q298.4 64.4 307.45 65.2 L347.25 67.45 359.0 67.9 371.35 70.2 Q380.45 72.1 385.35 73.8 L392.2 74.35 415.55 74.2 421.45 73.4 424.4 73.05 469.5 73.05 470.8 73.35 495.4 73.35 Q516.1 74.6 523.35 69.85 526.7 67.65 526.7 64.05 526.7 61.9 525.7 58.45 L525.05 55.8 517.55 56.35 515.9 56.2 524.8 51.65 524.5 47.85 M517.1 14.25 L517.3 14.4 516.75 14.25 517.1 14.25 M506.55 59.85 L505.2 59.75 504.45 59.35 Q504.15 60.35 504.15 58.7 L504.25 57.6 504.3 57.65 Q506.85 57.25 510.05 58.15 L508.45 59.35 Q507.8 59.85 506.55 59.85 M450.7 56.75 Q448.85 58.95 447.9 58.95 445.65 58.95 445.65 56.45 445.65 54.35 447.5 53.7 L452.6 53.95 Q452.4 54.75 450.7 56.75 M388.75 17.85 Q396.6 16.9 401.75 13.9 402.6 13.4 403.4 13.0 L386.45 12.35 377.2 12.45 Q375.1 12.6 361.05 12.35 L360.7 12.35 360.3 12.35 356.65 12.4 354.7 12.5 353.95 12.55 346.75 12.85 346.75 12.5 323.3 12.8 321.25 12.9 286.95 13.1 273.5 13.2 273.5 14.0 262.35 14.2 207.9 14.2 192.25 12.85 185.05 12.55 178.7 12.35 Q163.95 12.6 161.8 12.45 L128.1 12.1 Q126.7 12.25 125.8 11.35 125.1 10.65 125.1 9.85 125.1 8.1 126.6 7.7 129.8 6.85 132.0 5.35 L132.95 5.05 127.2 4.6 126.3 4.95 Q124.1 5.75 121.35 5.75 119.6 5.75 116.15 7.25 111.55 9.3 109.85 9.8 112.15 8.95 118.6 3.95 L118.65 3.95 117.35 3.75 99.55 3.75 Q67.35 6.25 54.1 9.0 L41.2 11.9 20.05 16.0 20.2 16.3 20.35 17.45 Q20.35 18.5 18.65 18.85 L18.25 18.9 18.65 18.9 Q21.4 17.9 28.8 17.45 L27.85 17.55 37.75 18.55 57.5 19.4 65.05 18.9 64.4 18.85 88.8 19.05 Q114.35 19.3 114.95 19.5 L143.1 19.5 154.6 17.95 191.25 18.2 192.25 18.2 273.5 18.55 273.5 18.85 346.75 18.85 346.75 18.2 347.75 18.2 384.4 17.95 386.55 18.2 388.75 17.85 M387.5 47.85 L391.75 47.85 389.95 49.05 Q387.4 50.75 387.4 50.9 L383.85 53.25 Q379.4 56.2 375.75 59.35 L375.35 59.15 Q379.9 53.2 382.95 50.7 385.2 48.8 387.5 47.85 M346.75 73.05 L361.5 73.05 360.1 72.15 Q357.1 70.05 342.35 68.55 L306.8 65.55 Q292.8 64.6 288.55 63.1 283.6 61.35 279.4 60.75 L276.4 60.8 273.8 60.5 Q272.25 60.5 266.4 69.35 L263.25 73.9 265.6 74.0 341.7 73.35 346.75 73.3 346.75 73.05 M151.4 3.25 L151.7 3.25 Q154.6 5.75 155.4 9.45 L149.05 9.2 Q140.3 8.85 132.95 8.8 138.5 7.85 144.35 5.8 L151.4 3.25 M160.75 60.7 L163.35 62.6 160.0 62.1 156.65 61.1 156.65 59.6 Q159.15 59.6 160.75 60.7 M138.5 61.4 Q137.8 61.8 136.9 61.8 L135.7 61.6 135.35 61.1 135.35 59.6 Q136.9 59.1 140.15 60.65 139.55 60.85 138.5 61.4 M77.35 13.45 L77.05 14.3 Q76.75 14.75 75.7 14.75 L74.15 14.45 73.45 13.8 73.1 13.3 Q74.85 12.0 76.85 12.55 L77.35 13.45 M61.85 12.5 L59.85 13.0 58.4 12.75 57.65 12.15 Q58.5 10.4 60.1 10.45 61.55 10.45 63.25 12.0 62.95 12.0 61.85 12.5" fill="#bfcf9a" fill-rule="evenodd" stroke="none"/>
      <path d="M531.9 16.55 L531.75 16.3 531.9 16.4 531.9 16.55 M136.45 6.75 Q139.9 5.3 143.7 4.6 L139.7 5.75 136.45 6.75 M527.6 14.95 L529.55 16.65 528.05 17.85 525.15 17.85 525.05 17.85 524.45 17.95 519.4 18.5 519.45 18.55 520.35 18.85 520.75 18.9 520.35 18.9 519.05 18.55 507.65 18.85 499.25 18.55 495.2 18.25 494.05 18.5 493.8 18.55 Q490.3 19.6 485.15 19.4 L476.5 18.55 475.65 18.85 472.25 18.9 472.25 19.1 448.4 19.25 442.9 19.3 429.6 19.5 395.9 19.5 391.75 18.8 391.1 18.7 391.65 18.8 Q400.35 15.85 406.2 13.1 L410.05 13.25 416.7 13.2 442.9 12.95 446.7 12.9 453.4 12.75 457.2 12.6 463.25 12.55 463.25 12.45 475.4 12.25 487.9 11.9 494.05 11.85 499.1 11.8 501.9 12.4 503.4 12.2 515.05 11.75 521.5 12.15 521.55 12.15 Q522.3 12.75 525.05 12.75 L527.6 14.95 M524.4 47.85 L524.5 47.85 524.8 51.65 515.9 56.2 517.55 56.35 525.05 55.8 525.7 58.45 Q526.7 61.9 526.7 64.05 526.7 67.65 523.35 69.85 516.1 74.6 495.4 73.35 L470.8 73.35 469.5 73.05 424.4 73.05 421.45 73.4 415.55 74.2 392.2 74.35 385.35 73.8 Q380.45 72.1 371.35 70.2 L359.0 67.9 347.25 67.45 307.45 65.2 Q298.4 64.4 290.55 62.8 L279.75 60.4 279.7 60.25 Q277.15 58.7 274.9 59.05 L271.85 53.45 268.9 47.85 384.1 47.85 387.5 47.85 Q385.2 48.8 382.95 50.7 379.9 53.2 375.35 59.15 L375.75 59.35 Q379.4 56.2 383.85 53.25 L387.4 50.9 Q387.4 50.75 389.95 49.05 L391.75 47.85 392.35 47.85 524.4 47.85 M529.3 71.75 L529.35 72.5 528.8 72.15 528.95 72.2 529.25 71.8 529.3 71.75 M528.6 72.6 L528.65 73.05 528.7 73.85 526.6 74.45 528.6 72.6 M12.4 74.45 L10.3 73.85 10.35 73.05 10.4 72.45 10.4 72.6 12.4 74.45 M10.2 72.15 L9.65 72.5 9.7 71.75 9.75 71.8 10.05 72.2 10.2 72.15 M517.1 14.25 L516.75 14.25 517.3 14.4 517.1 14.25 M506.55 59.85 Q507.8 59.85 508.45 59.35 L510.05 58.15 Q506.85 57.25 504.3 57.65 L504.25 57.6 504.15 58.7 Q504.15 60.35 504.45 59.35 L505.2 59.75 506.55 59.85 M267.05 47.85 L267.95 49.75 Q271.25 57.0 271.25 58.8 L270.35 59.8 Q269.4 60.7 269.4 61.15 269.4 62.15 269.6 62.3 L269.8 62.45 270.2 62.45 267.8 66.05 Q266.2 68.55 260.6 71.3 258.25 72.45 257.1 73.7 L252.05 73.55 238.8 73.05 163.6 73.05 155.3 73.7 146.8 74.35 123.45 74.2 114.6 73.05 69.5 73.05 68.2 73.35 67.15 73.35 Q66.2 72.5 66.2 71.15 66.2 70.65 69.5 63.6 L74.25 53.3 Q72.55 54.0 71.35 57.9 69.75 63.0 68.95 64.25 67.85 65.9 61.65 69.9 58.45 71.95 57.15 73.35 L43.6 73.35 Q22.9 74.6 15.65 69.85 12.3 67.65 12.3 64.05 12.3 61.9 13.3 58.45 14.3 55.15 14.2 52.4 14.15 50.7 14.5 47.85 L14.6 47.85 266.9 47.85 267.05 47.85 M388.75 17.85 L386.55 18.2 384.4 17.95 347.75 18.2 346.75 18.2 346.75 18.85 273.5 18.85 273.5 18.55 192.25 18.2 191.25 18.2 154.6 17.95 143.1 19.5 114.95 19.5 Q114.35 19.3 88.8 19.05 L64.4 18.85 65.05 18.9 57.5 19.4 37.75 18.55 27.85 17.55 28.8 17.45 Q21.4 17.9 18.65 18.9 L18.25 18.9 18.65 18.85 Q20.35 18.5 20.35 17.45 L20.2 16.3 20.05 16.0 41.2 11.9 54.1 9.0 Q67.35 6.25 99.55 3.75 L117.35 3.75 118.65 3.95 118.6 3.95 Q112.15 8.95 109.85 9.8 111.55 9.3 116.15 7.25 119.6 5.75 121.35 5.75 124.1 5.75 126.3 4.95 L127.2 4.6 132.95 5.05 132.0 5.35 Q129.8 6.85 126.6 7.7 125.1 8.1 125.1 9.85 125.1 10.65 125.8 11.35 126.7 12.25 128.1 12.1 L161.8 12.45 Q163.95 12.6 178.7 12.35 L185.05 12.55 192.25 12.85 207.9 14.2 262.35 14.2 273.5 14.0 273.5 13.2 286.95 13.1 321.25 12.9 323.3 12.8 346.75 12.5 346.75 12.85 353.95 12.55 354.7 12.5 356.65 12.4 360.3 12.35 360.7 12.35 361.05 12.35 Q375.1 12.6 377.2 12.45 L386.45 12.35 403.4 13.0 Q402.6 13.4 401.75 13.9 396.6 16.9 388.75 17.85 M450.7 56.75 Q452.4 54.75 452.6 53.95 L447.5 53.7 Q445.65 54.35 445.65 56.45 445.65 58.95 447.9 58.95 448.85 58.95 450.7 56.75 M346.75 73.05 L346.75 73.3 341.7 73.35 265.6 74.0 263.25 73.9 266.4 69.35 Q272.25 60.5 273.8 60.5 L276.4 60.8 279.4 60.75 Q283.6 61.35 288.55 63.1 292.8 64.6 306.8 65.55 L342.35 68.55 Q357.1 70.05 360.1 72.15 L361.5 73.05 346.75 73.05 M138.5 61.4 Q139.55 60.85 140.15 60.65 136.9 59.1 135.35 59.6 L135.35 61.1 135.7 61.6 136.9 61.8 Q137.8 61.8 138.5 61.4 M160.75 60.7 Q159.15 59.6 156.65 59.6 L156.65 61.1 160.0 62.1 163.35 62.6 160.75 60.7 M61.85 12.5 Q62.95 12.0 63.25 12.0 61.55 10.45 60.1 10.45 58.5 10.4 57.65 12.15 L58.4 12.75 59.85 13.0 61.85 12.5 M77.35 13.45 L76.85 12.55 Q74.85 12.0 73.1 13.3 L73.45 13.8 74.15 14.45 75.7 14.75 Q76.75 14.75 77.05 14.3 L77.35 13.45" fill="#adc17d" fill-rule="evenodd" stroke="none"/>
      <path d="M3.85 18.65 L7.2 18.75 18.05 19.75 33.35 20.5 273.5 20.6 273.5 20.65 346.75 20.65 346.75 20.55 416.7 20.55 472.25 20.55 505.65 20.5 520.95 19.75 531.8 18.75 535.15 18.65 535.45 19.7 535.85 21.65 536.2 24.15 536.3 26.0 535.85 28.05 536.35 30.95 536.1 32.4 533.1 32.65 523.15 33.1 512.45 33.4 494.05 33.05 480.45 32.9 468.4 32.9 464.4 32.95 462.35 33.0 459.0 33.05 458.95 33.7 346.75 33.65 346.75 33.6 275.8 33.6 273.5 33.6 273.5 33.65 80.05 33.7 80.0 33.05 76.65 33.0 74.6 32.95 70.6 32.9 58.55 32.9 Q46.25 32.9 26.55 33.4 L15.85 33.1 5.9 32.65 2.9 32.4 2.65 30.95 3.15 28.05 Q2.7 26.95 2.7 26.0 L2.8 24.15 3.15 21.65 3.55 19.7 3.85 18.65 M531.25 22.9 L523.8 23.35 516.85 23.55 492.55 23.55 Q490.05 24.35 483.7 24.7 L472.25 24.7 472.25 24.55 448.4 24.15 442.9 24.1 440.45 24.05 438.45 23.75 346.75 23.75 346.75 24.2 347.85 24.25 348.2 24.25 353.95 24.3 354.7 24.35 357.45 24.5 358.45 24.5 363.25 24.7 346.75 24.7 346.75 24.2 337.05 23.85 334.35 23.75 273.5 23.75 273.5 24.7 175.75 24.7 185.05 24.3 192.25 24.2 199.05 24.05 192.25 23.75 109.9 23.75 108.75 24.05 88.85 24.7 55.3 24.7 Q48.95 24.35 46.45 23.55 L22.15 23.55 15.2 23.35 7.75 22.9 Q5.95 22.9 5.0 24.05 4.35 24.8 4.35 25.5 4.35 26.05 5.9 27.95 L7.3 30.05 49.1 31.45 Q63.65 30.8 79.75 30.8 L185.05 31.25 273.5 31.1 273.5 30.9 346.75 30.75 346.75 31.25 459.25 30.8 Q475.35 30.8 489.9 31.45 L494.05 31.45 531.7 30.05 Q532.05 29.2 533.1 27.95 534.65 26.05 534.65 25.5 534.65 24.8 534.0 24.05 533.05 22.9 531.25 22.9 M524.3 35.2 L524.8 35.3 525.85 35.05 527.65 34.65 527.65 35.1 527.85 40.05 527.9 40.4 527.95 42.1 527.8 43.25 527.05 47.85 524.5 47.85 524.4 47.85 524.15 46.1 Q524.0 44.6 524.0 39.5 L524.3 35.2 M11.05 42.1 L11.1 40.4 11.15 40.05 11.35 35.1 11.35 34.65 13.15 35.05 14.2 35.3 14.7 35.2 15.0 39.5 14.85 46.1 14.6 47.85 14.5 47.85 11.95 47.85 11.2 43.25 11.05 42.1 M80.05 34.85 L84.25 34.85 83.55 35.15 Q79.3 37.05 77.0 45.05 L76.35 45.25 Q76.35 43.95 78.5 40.65 80.65 37.3 80.65 36.05 L80.05 34.85 M257.3 34.85 L262.05 34.85 Q264.95 39.95 267.95 47.5 L267.85 47.85 267.05 47.85 266.9 47.85 Q259.15 38.35 257.3 34.85 M391.75 47.85 L387.5 47.85 384.1 47.85 Q385.4 46.45 387.4 45.15 389.8 43.55 397.15 40.3 L397.6 41.15 Q395.7 42.85 393.75 45.7 L392.35 47.85 391.75 47.85 M264.65 43.15 Q264.25 42.9 264.05 42.95 L265.35 44.25 265.5 44.1 264.65 43.15" fill="#a6c17b" fill-rule="evenodd" stroke="none"/>
      <path d="M531.25 22.9 Q533.05 22.9 534.0 24.05 534.65 24.8 534.65 25.5 534.65 26.05 533.1 27.95 532.05 29.2 531.7 30.05 L494.05 31.45 489.9 31.45 Q475.35 30.8 459.25 30.8 L346.75 31.25 346.75 30.75 273.5 30.9 273.5 31.1 185.05 31.25 79.75 30.8 Q63.65 30.8 49.1 31.45 L7.3 30.05 5.9 27.95 Q4.35 26.05 4.35 25.5 4.35 24.8 5.0 24.05 5.95 22.9 7.75 22.9 L15.2 23.35 22.15 23.55 46.45 23.55 Q48.95 24.35 55.3 24.7 L88.85 24.7 108.75 24.05 109.9 23.75 192.25 23.75 199.05 24.05 192.25 24.2 185.05 24.3 175.75 24.7 273.5 24.7 273.5 23.75 334.35 23.75 337.05 23.85 346.75 24.2 346.75 24.7 363.25 24.7 358.45 24.5 357.45 24.5 354.7 24.35 353.95 24.3 348.2 24.25 347.85 24.25 346.75 24.2 346.75 23.75 438.45 23.75 440.45 24.05 442.9 24.1 448.4 24.15 472.25 24.55 472.25 24.7 483.7 24.7 Q490.05 24.35 492.55 23.55 L516.85 23.55 523.8 23.35 531.25 22.9 M524.3 35.2 L524.0 39.5 Q524.0 44.6 524.15 46.1 L524.4 47.85 392.35 47.85 393.75 45.7 Q395.7 42.85 397.6 41.15 L397.15 40.3 Q389.8 43.55 387.4 45.15 385.4 46.45 384.1 47.85 L268.9 47.85 267.85 47.85 267.95 47.5 Q264.95 39.95 262.05 34.85 L506.95 34.85 Q515.3 34.55 515.3 34.7 L524.3 35.2 M527.05 47.85 L527.8 43.25 527.95 42.1 528.2 47.45 528.25 47.85 527.05 47.85 M10.75 47.85 L10.8 47.45 11.05 42.1 11.2 43.25 11.95 47.85 10.75 47.85 M14.7 35.2 L23.7 34.7 Q23.7 34.55 32.05 34.85 L80.05 34.85 80.65 36.05 Q80.65 37.3 78.5 40.65 76.35 43.95 76.35 45.25 L77.0 45.05 Q79.3 37.05 83.55 35.15 L84.25 34.85 257.3 34.85 Q259.15 38.35 266.9 47.85 L14.6 47.85 14.85 46.1 15.0 39.5 14.7 35.2 M264.65 43.15 L265.5 44.1 265.35 44.25 264.05 42.95 Q264.25 42.9 264.65 43.15" fill="#94b562" fill-rule="evenodd" stroke="none"/>
      <path d="M531.95 71.95 Q539.9 74.1 540.2 76.05 L540.2 76.2 Q540.2 78.5 534.95 80.2 529.5 81.95 521.7 81.95 L512.35 81.65 503.0 81.0 495.6 80.15 476.25 80.15 468.7 80.65 Q465.05 80.95 458.25 82.6 L408.6 82.6 406.65 82.1 364.7 82.1 357.6 83.1 349.25 83.9 310.7 83.9 302.15 82.75 286.8 83.25 269.4 83.25 Q256.2 82.95 253.25 83.5 L189.45 83.9 183.6 84.8 163.7 84.8 148.3 83.7 123.7 82.2 99.2 82.45 97.95 82.75 68.3 82.75 67.55 82.65 Q65.25 85.2 55.2 87.95 40.35 91.4 36.7 92.45 L35.1 92.3 Q52.25 88.6 57.0 83.75 L58.8 82.05 56.55 81.8 40.5 81.45 10.95 80.45 2.4 78.7 Q2.15 79.35 2.15 77.75 2.15 76.45 7.15 75.8 7.2 76.15 7.4 75.85 L8.55 75.95 25.3 77.6 55.3 78.15 148.8 78.35 149.4 78.4 346.75 78.2 346.75 78.4 389.6 78.4 390.2 78.35 483.7 78.15 513.7 77.6 528.7 76.05 530.45 75.95 531.6 75.85 Q531.9 76.35 531.9 74.95 L532.2 74.9 531.95 71.95" fill="#ebebc7" fill-rule="evenodd" stroke="none"/>
      <path d="M7.4 68.5 Q6.25 70.8 4.75 72.3 L2.5 71.8 Q2.35 71.7 2.35 70.1 2.35 62.2 4.0 58.85 5.6 55.5 5.6 47.1 5.6 41.5 5.1 35.25 L2.5 36.25 -0.3 36.85 Q-2.45 36.85 -3.25 28.1 L-3.65 19.15 Q-3.65 13.4 34.8 6.05 L62.4 1.15 Q75.8 -1.15 77.4 -2.0 78.3 0.7 73.2 3.4 L73.15 3.45 72.65 3.6 61.65 6.15 61.45 6.2 61.15 6.25 43.8 9.3 42.45 9.5 42.25 9.5 Q4.1 15.5 0.75 16.85 L0.9 17.35 Q0.0 17.9 0.0 18.7 0.0 19.5 0.75 22.3 1.55 25.1 1.55 25.9 L0.35 29.95 Q0.15 31.4 0.6 32.25 L0.55 32.9 Q0.55 33.9 0.9 34.0 L1.85 34.2 8.1 34.35 Q9.7 37.95 9.7 41.1 9.7 43.95 8.25 59.4 L7.4 68.5" fill="#e3e3b7" fill-rule="evenodd" stroke="none"/>
    </g>
  </defs>
</svg>
