<?xml version="1.0" encoding="UTF-8" standalone="no"?>
<svg xmlns:ffdec="https://www.free-decompiler.com/flash" xmlns:xlink="http://www.w3.org/1999/xlink" ffdec:objectType="frame" height="285.95px" width="351.5px" xmlns="http://www.w3.org/2000/svg">
  <g transform="matrix(1.0, 0.0, 0.0, 1.0, 177.4, 142.15)">
    <use ffdec:characterId="79" height="2.3" transform="matrix(0.2435, 1.723, -1.723, 0.2435, 85.1514, 30.2885)" width="2.3" xlink:href="#shape0"/>
    <use ffdec:characterId="79" height="2.3" transform="matrix(0.2301, 1.6276, -1.6276, 0.2301, 128.4571, 20.6137)" width="2.3" xlink:href="#shape0"/>
    <use ffdec:characterId="79" height="2.3" transform="matrix(0.2417, 1.7098, -1.7098, 0.2417, 110.2883, 12.0057)" width="2.3" xlink:href="#shape0"/>
    <use ffdec:characterId="79" height="2.3" transform="matrix(0.1833, 1.2967, -1.2967, 0.1833, 101.8304, 4.148)" width="2.3" xlink:href="#shape0"/>
    <use ffdec:characterId="79" height="2.3" transform="matrix(0.1852, 1.3103, -1.3103, 0.1852, 74.3938, 8.4302)" width="2.3" xlink:href="#shape0"/>
    <use ffdec:characterId="79" height="2.3" transform="matrix(0.533, 1.4614, -1.4614, 0.533, 104.0677, -7.2435)" width="2.3" xlink:href="#shape0"/>
    <use ffdec:characterId="79" height="2.3" transform="matrix(0.5774, 1.5834, -1.5834, 0.5774, 116.0068, -28.9849)" width="2.3" xlink:href="#shape0"/>
    <use ffdec:characterId="79" height="2.3" transform="matrix(0.4181, 1.1465, -1.1465, 0.4181, 107.7377, -36.3993)" width="2.3" xlink:href="#shape0"/>
    <use ffdec:characterId="79" height="2.3" transform="matrix(0.366, 1.0035, -1.0035, 0.366, 83.8331, -16.4249)" width="2.3" xlink:href="#shape0"/>
    <use ffdec:characterId="79" height="2.3" transform="matrix(-0.8007, -1.5033, 1.5033, -0.8007, -73.208, 43.9996)" width="2.3" xlink:href="#shape0"/>
    <use ffdec:characterId="79" height="2.3" transform="matrix(-0.7694, -1.4444, 1.4444, -0.7694, -109.4262, 66.3959)" width="2.3" xlink:href="#shape0"/>
    <use ffdec:characterId="79" height="2.3" transform="matrix(-0.8058, -1.5128, 1.5128, -0.8058, -89.963, 67.8664)" width="2.3" xlink:href="#shape0"/>
    <use ffdec:characterId="79" height="2.3" transform="matrix(-0.6051, -1.136, 1.136, -0.6051, -79.4605, 72.9023)" width="2.3" xlink:href="#shape0"/>
    <use ffdec:characterId="79" height="2.3" transform="matrix(-0.5982, -1.1228, 1.1228, -0.5982, -53.6534, 56.1792)" width="2.3" xlink:href="#shape0"/>
    <use ffdec:characterId="79" height="2.3" transform="matrix(0.2273, -1.4643, 1.4643, 0.2273, -121.2953, -11.1275)" width="2.3" xlink:href="#shape0"/>
    <use ffdec:characterId="79" height="2.3" transform="matrix(0.1843, -1.1872, 1.1872, 0.1843, -136.9772, 16.8532)" width="2.3" xlink:href="#shape0"/>
    <use ffdec:characterId="79" height="2.3" transform="matrix(0.1482, -0.9547, 0.9547, 0.1482, -110.2684, 8.9275)" width="2.3" xlink:href="#shape0"/>
  </g>
  <defs>
    <g id="shape0" transform="matrix(1.0, 0.0, 0.0, 1.0, 1.15, 1.15)">
      <path d="M0.8 -0.85 Q1.15 -0.5 1.15 0.0 1.15 0.5 0.8 0.8 0.5 1.15 0.0 1.15 -0.5 1.15 -0.85 0.8 -1.15 0.5 -1.15 0.0 -1.15 -0.5 -0.85 -0.85 -0.5 -1.15 0.0 -1.15 0.5 -1.15 0.8 -0.85" fill="#e8f6fb" fill-opacity="0.28235295" fill-rule="evenodd" stroke="none"/>
    </g>
  </defs>
</svg>
