<?xml version="1.0" encoding="UTF-8" standalone="no"?>
<svg xmlns:ffdec="https://www.free-decompiler.com/flash" xmlns:xlink="http://www.w3.org/1999/xlink" ffdec:objectType="frame" height="285.95px" width="351.5px" xmlns="http://www.w3.org/2000/svg">
  <g transform="matrix(1.0, 0.0, 0.0, 1.0, 177.4, 142.15)">
    <use ffdec:characterId="79" height="2.3" transform="matrix(0.3056, 2.1616, -2.1616, 0.3056, 78.3844, 26.3628)" width="2.3" xlink:href="#shape0"/>
    <use ffdec:characterId="79" height="2.3" transform="matrix(0.2643, 1.8699, -1.8699, 0.2643, 107.3964, 20.5456)" width="2.3" xlink:href="#shape0"/>
    <use ffdec:characterId="79" height="2.3" transform="matrix(0.2895, 2.0471, -2.0471, 0.2895, 85.7213, 19.3129)" width="2.3" xlink:href="#shape0"/>
    <use ffdec:characterId="79" height="2.3" transform="matrix(0.2473, 1.7486, -1.7486, 0.2473, 82.7766, 18.7547)" width="2.3" xlink:href="#shape0"/>
    <use ffdec:characterId="79" height="2.3" transform="matrix(0.2709, 1.9163, -1.9163, 0.2709, 65.5422, 22.2847)" width="2.3" xlink:href="#shape0"/>
    <use ffdec:characterId="79" height="2.3" transform="matrix(0.6847, 1.8775, -1.8775, 0.6847, 97.2217, -10.2465)" width="2.3" xlink:href="#shape0"/>
    <use ffdec:characterId="79" height="2.3" transform="matrix(0.5998, 1.6448, -1.6448, 0.5998, 123.9018, -21.0813)" width="2.3" xlink:href="#shape0"/>
    <use ffdec:characterId="79" height="2.3" transform="matrix(0.6456, 1.7701, -1.7701, 0.6456, 102.3432, -24.228)" width="2.3" xlink:href="#shape0"/>
    <use ffdec:characterId="79" height="2.3" transform="matrix(0.5256, 1.4413, -1.4413, 0.5256, 93.8531, -27.162)" width="2.3" xlink:href="#shape0"/>
    <use ffdec:characterId="79" height="2.3" transform="matrix(0.5757, 1.5785, -1.5785, 0.5757, 82.6032, -15.5772)" width="2.3" xlink:href="#shape0"/>
    <use ffdec:characterId="79" height="2.3" transform="matrix(-1.009, -1.8943, 1.8943, -1.009, -66.018, 44.9388)" width="2.3" xlink:href="#shape0"/>
    <use ffdec:characterId="79" height="2.3" transform="matrix(-0.873, -1.6389, 1.6389, -0.873, -92.0308, 59.3387)" width="2.3" xlink:href="#shape0"/>
    <use ffdec:characterId="79" height="2.3" transform="matrix(-0.9525, -1.7884, 1.7884, -0.9525, -71.1112, 54.352)" width="2.3" xlink:href="#shape0"/>
    <use ffdec:characterId="79" height="2.3" transform="matrix(-0.8062, -1.5136, 1.5136, -0.8062, -66.5635, 54.5679)" width="2.3" xlink:href="#shape0"/>
    <use ffdec:characterId="79" height="2.3" transform="matrix(-0.8859, -1.6632, 1.6632, -0.8859, -52.9439, 43.6815)" width="2.3" xlink:href="#shape0"/>
    <use ffdec:characterId="79" height="2.3" transform="matrix(0.2953, -1.9019, 1.9019, 0.2953, -115.2267, -5.5024)" width="2.3" xlink:href="#shape0"/>
    <use ffdec:characterId="79" height="2.3" transform="matrix(0.2624, -1.6898, 1.6898, 0.2624, -146.145, -5.0084)" width="2.3" xlink:href="#shape0"/>
    <use ffdec:characterId="79" height="2.3" transform="matrix(0.2804, -1.8059, 1.8059, 0.2804, -129.5992, 9.5043)" width="2.3" xlink:href="#shape0"/>
    <use ffdec:characterId="79" height="2.3" transform="matrix(0.2237, -1.4409, 1.4409, 0.2237, -123.2143, 17.3998)" width="2.3" xlink:href="#shape0"/>
    <use ffdec:characterId="79" height="2.3" transform="matrix(0.2421, -1.5596, 1.5596, 0.2421, -108.272, 13.9151)" width="2.3" xlink:href="#shape0"/>
  </g>
  <defs>
    <g id="shape0" transform="matrix(1.0, 0.0, 0.0, 1.0, 1.15, 1.15)">
      <path d="M0.8 -0.85 Q1.15 -0.5 1.15 0.0 1.15 0.5 0.8 0.8 0.5 1.15 0.0 1.15 -0.5 1.15 -0.85 0.8 -1.15 0.5 -1.15 0.0 -1.15 -0.5 -0.85 -0.85 -0.5 -1.15 0.0 -1.15 0.5 -1.15 0.8 -0.85" fill="#e8f6fb" fill-opacity="0.627451" fill-rule="evenodd" stroke="none"/>
    </g>
  </defs>
</svg>
