<?xml version="1.0" encoding="UTF-8" standalone="no"?>
<svg xmlns:ffdec="https://www.free-decompiler.com/flash" xmlns:xlink="http://www.w3.org/1999/xlink" ffdec:objectType="frame" height="81.3px" width="225.75px" xmlns="http://www.w3.org/2000/svg">
  <g transform="matrix(1.0, 0.0, 0.0, 1.0, 121.45, 51.2)">
    <use ffdec:characterId="2476" height="4.15" transform="matrix(7.0, 0.0, 0.0, 7.0, -89.95, -17.15)" width="27.1" xlink:href="#shape0"/>
  </g>
  <defs>
    <g id="shape0" transform="matrix(1.0, 0.0, 0.0, 1.0, 12.85, 2.45)">
      <path d="M11.45 -2.4 Q11.45 -2.35 11.35 -2.25 L11.3 -2.35 11.4 -2.45 11.45 -2.4 M12.85 -0.8 Q12.8 -0.8 12.75 -0.85 L12.9 -0.95 Q13.0 -1.0 13.05 -0.9 13.0 -0.85 12.9 -0.85 L12.85 -0.8 M14.2 -0.25 L14.25 -0.1 14.25 -0.05 14.2 0.0 Q14.15 0.0 14.15 -0.05 L14.15 -0.15 14.05 -0.2 14.05 -0.25 14.2 -0.25 M9.15 1.65 Q9.15 1.7 9.1 1.7 8.9 1.7 8.85 1.6 L8.75 1.65 8.85 1.55 9.1 1.55 9.15 1.65 M-10.8 -0.9 L-10.85 -0.85 -10.95 -0.9 -11.1 -0.9 -11.05 -1.05 -10.9 -1.05 -10.8 -0.95 -10.8 -0.9 M-10.4 -0.8 L-10.5 -0.75 -10.55 -0.75 -10.55 -0.8 -10.35 -0.85 -10.4 -0.8 M-12.6 0.25 L-12.8 0.35 -12.85 0.3 -12.85 0.25 Q-12.85 0.15 -12.75 0.2 L-12.6 0.2 -12.6 0.25" fill="#ffffff" fill-opacity="0.5019608" fill-rule="evenodd" stroke="none"/>
    </g>
  </defs>
</svg>
