<?xml version="1.0" encoding="UTF-8" standalone="no"?>
<svg xmlns:ffdec="https://www.free-decompiler.com/flash" xmlns:xlink="http://www.w3.org/1999/xlink" ffdec:objectType="frame" height="48.0px" width="48.0px" xmlns="http://www.w3.org/2000/svg">
  <g transform="matrix(1.0, 0.0, 0.0, 1.0, 0.0, 0.0)">
    <use ffdec:characterId="2244" height="48.0" transform="matrix(1.0, 0.0, 0.0, 1.0, 0.0, 0.0)" width="48.0" xlink:href="#shape0"/>
  </g>
  <defs>
    <g id="shape0" transform="matrix(1.0, 0.0, 0.0, 1.0, 0.0, 0.0)">
      <path d="M48.0 38.8 L48.0 40.05 44.25 38.25 40.35 40.4 Q39.45 40.4 38.35 39.8 L37.25 38.75 37.4 38.65 37.9 38.5 38.7 39.0 40.1 39.5 Q40.8 39.5 43.8 37.5 44.9 37.3 46.55 38.05 L48.0 38.8 M44.65 45.95 Q43.6 45.6 42.95 44.75 L41.75 43.35 Q41.45 43.35 41.1 43.7 L40.9 43.85 42.0 44.55 41.75 44.95 44.45 47.25 43.5 47.6 Q42.1 47.2 41.65 46.35 40.9 44.9 40.1 44.55 L39.05 45.55 37.9 46.25 38.55 47.0 39.25 48.0 38.1 48.0 37.85 47.75 36.5 46.4 36.75 46.2 36.5 46.0 Q37.95 44.05 39.5 44.05 L39.4 43.95 39.0 43.85 38.85 43.75 39.4 43.5 39.1 43.35 39.65 43.4 40.0 43.3 Q40.9 43.05 41.4 42.6 L37.55 42.3 36.8 42.75 32.25 42.5 Q32.45 42.85 32.75 42.85 L34.05 42.95 37.25 43.1 38.25 43.5 38.0 43.75 38.1 44.25 Q38.45 44.35 37.8 44.35 L37.3 44.35 37.05 44.55 35.3 45.6 36.55 46.95 37.4 48.0 36.15 48.0 35.6 47.55 34.25 46.3 Q34.25 45.75 34.8 45.25 L36.3 44.0 31.8 43.6 30.9 42.15 Q30.1 40.7 30.1 40.25 L30.1 39.9 30.15 40.0 Q31.3 39.55 31.7 41.1 L31.75 41.2 31.65 40.55 Q31.65 40.0 31.8 39.9 L32.4 40.6 33.25 41.4 36.1 41.5 Q42.5 41.5 43.6 42.9 L44.05 44.15 Q44.2 44.9 44.7 45.3 44.9 44.25 46.05 45.0 L46.6 45.45 45.95 46.25 44.75 46.1 Q44.65 46.5 44.65 45.95 M6.0 43.25 L0.2 42.45 0.05 41.4 0.85 41.4 Q2.65 41.6 3.75 42.55 L5.75 42.35 6.65 42.15 7.9 42.25 8.0 42.15 8.05 42.55 Q8.05 43.05 6.5 44.65 L3.5 47.25 2.95 46.95 Q3.25 46.3 4.5 44.95 L6.3 43.05 6.0 43.25 M5.4 41.8 L1.6 41.2 0.05 40.85 0.0 40.1 0.0 40.05 1.75 40.5 4.4 41.15 7.55 40.5 Q8.95 40.5 9.6 41.25 L9.9 41.5 9.9 41.55 Q10.55 42.0 11.5 42.0 12.8 42.0 14.8 40.75 L13.35 39.0 Q12.4 37.9 12.35 37.4 13.0 37.05 13.35 37.0 L16.15 37.25 17.0 37.3 18.0 37.5 18.0 37.75 19.9 37.8 20.25 38.35 16.25 38.75 17.25 39.95 Q17.75 40.5 17.75 40.9 L17.5 41.1 17.55 41.3 Q17.55 41.95 15.35 43.25 13.1 44.55 11.85 44.55 L11.55 44.55 11.4 44.55 11.25 44.55 10.1 44.5 9.0 43.9 7.25 45.55 4.9 47.7 4.65 47.65 4.1 47.5 5.95 45.55 8.8 43.2 8.8 43.05 8.8 43.0 9.25 42.9 Q10.0 42.9 10.45 43.4 L11.05 43.85 11.15 43.85 Q12.0 43.8 13.9 42.6 L16.65 40.95 15.7 39.9 14.65 38.25 15.2 38.25 15.1 38.15 16.85 37.95 13.55 37.65 13.15 37.75 14.75 39.25 Q15.8 40.25 15.9 40.85 14.75 42.5 12.75 42.75 L12.15 42.9 11.0 42.7 10.4 42.65 10.25 42.45 9.85 42.5 9.15 42.0 8.9 41.6 8.25 41.5 8.15 41.15 7.15 41.5 5.4 41.8" fill="#7d2b2b" fill-rule="evenodd" stroke="none"/>
      <path d="M39.5 38.7 L39.8 38.85 Q40.25 38.85 41.95 37.9 43.65 36.9 44.35 36.9 L47.2 37.95 48.0 38.3 48.0 38.8 46.4 38.2 44.25 37.5 Q43.65 37.5 42.05 38.6 L40.1 39.65 Q39.45 39.65 38.9 39.25 L37.25 38.15 37.25 38.0 37.25 37.95 37.25 37.9 37.65 37.8 Q38.25 37.8 39.0 38.35 L39.5 38.7 M43.05 44.15 L43.35 44.5 44.05 45.55 45.15 46.85 44.5 47.25 43.35 46.4 42.5 45.1 Q41.95 44.2 40.85 44.05 L39.35 43.6 39.4 43.75 Q39.4 44.4 36.35 45.85 L36.85 46.4 37.35 46.8 37.55 47.0 38.25 47.9 38.2 48.0 37.65 48.0 35.4 46.0 36.05 45.2 36.45 44.9 37.95 44.05 38.65 43.5 38.25 43.0 33.1 43.25 32.05 43.1 31.45 41.7 30.8 40.35 Q30.95 40.1 31.25 40.1 32.7 41.45 32.55 42.55 33.8 42.35 38.6 42.5 L38.75 42.65 38.75 42.6 Q42.0 43.2 43.05 44.15 M6.55 41.4 L7.1 41.25 Q8.1 41.25 9.05 41.8 L9.5 41.9 11.85 42.9 12.05 43.0 Q13.0 43.0 14.3 42.1 L15.85 40.85 15.05 39.5 13.65 38.0 Q13.65 37.7 14.0 37.5 L19.4 37.75 19.1 38.1 14.8 38.25 15.7 39.45 16.55 40.8 Q16.55 41.2 15.15 42.35 13.6 43.65 12.4 43.65 12.05 43.65 9.45 42.35 L9.2 42.5 Q6.8 45.35 5.25 46.65 L4.85 46.7 4.75 46.3 6.15 44.75 8.1 42.6 8.4 42.25 8.35 42.2 Q8.0 41.85 7.65 41.85 6.85 41.85 6.6 42.2 L4.8 42.5 2.7 42.15 0.75 41.75 0.55 41.55 1.4 40.85 2.75 40.95 Q3.15 41.15 3.55 41.45 L3.9 41.85 4.8 41.75 6.55 41.4" fill="#000000" fill-rule="evenodd" stroke="none"/>
      <path d="M39.5 38.7 L41.15 37.4 Q43.25 36.2 45.0 36.85 L48.0 37.7 48.0 38.3 47.2 37.95 44.35 36.9 Q43.65 36.9 41.95 37.9 40.25 38.85 39.8 38.85 L39.5 38.7 M48.0 38.8 L48.0 39.3 44.5 38.0 42.05 39.0 39.75 40.0 Q36.7 38.9 36.1 39.1 L35.55 38.35 35.75 37.85 36.4 37.75 37.25 37.95 37.25 38.0 37.25 38.15 38.9 39.25 Q39.45 39.65 40.1 39.65 L42.05 38.6 Q43.65 37.5 44.25 37.5 L46.4 38.2 48.0 38.8 M37.95 44.05 L36.8 43.55 36.65 43.45 32.0 43.6 Q31.85 42.7 31.15 41.35 L30.5 40.0 Q30.5 37.0 33.05 42.25 L41.0 42.45 41.65 42.5 42.2 42.6 42.2 43.05 42.55 43.45 43.05 44.15 Q42.0 43.2 38.75 42.6 L38.75 42.65 38.6 42.5 Q33.8 42.35 32.55 42.55 32.7 41.45 31.25 40.1 30.95 40.1 30.8 40.35 L31.45 41.7 32.05 43.1 33.1 43.25 38.25 43.0 38.65 43.5 37.95 44.05 M44.05 45.55 L44.15 45.6 45.9 46.3 45.15 46.85 44.05 45.55 M44.5 47.25 L44.0 47.45 Q43.0 47.25 42.55 46.8 L41.75 45.1 Q41.35 44.3 39.95 43.85 L40.0 44.1 Q40.0 44.65 38.7 45.25 37.2 45.9 36.85 46.4 L36.35 45.85 Q39.4 44.4 39.4 43.75 L39.35 43.6 40.85 44.05 Q41.95 44.2 42.5 45.1 L43.35 46.4 44.5 47.25 M37.55 47.0 L38.2 47.45 38.8 48.0 38.2 48.0 38.25 47.9 37.55 47.0 M37.65 48.0 L36.55 48.0 36.25 47.75 34.65 46.25 Q34.65 45.85 35.9 45.25 L36.05 45.2 35.4 46.0 37.65 48.0 M9.5 41.9 L9.05 41.8 Q8.1 41.25 7.1 41.25 L6.55 41.4 7.6 41.15 Q8.75 41.15 9.5 41.9 M4.8 41.75 L3.9 41.85 3.55 41.45 4.8 41.75 M1.4 40.85 L0.55 41.55 0.75 41.75 2.7 42.15 4.8 42.5 6.6 42.2 Q6.85 41.85 7.65 41.85 8.0 41.85 8.35 42.2 L8.4 42.25 8.1 42.6 6.15 44.75 4.75 46.3 4.85 46.7 5.25 46.65 Q6.8 45.35 9.2 42.5 L9.45 42.35 Q12.05 43.65 12.4 43.65 13.6 43.65 15.15 42.35 16.55 41.2 16.55 40.8 L15.7 39.45 14.8 38.25 19.1 38.1 19.4 37.75 14.0 37.5 Q13.65 37.7 13.65 38.0 L15.05 39.5 15.85 40.85 14.3 42.1 Q13.0 43.0 12.05 43.0 L11.85 42.9 Q13.0 42.55 15.75 40.85 L14.1 39.25 12.75 37.8 12.75 37.4 12.85 37.3 17.1 37.25 21.4 37.35 21.5 37.9 21.4 38.5 15.3 38.75 Q17.55 40.7 17.55 41.3 13.0 44.4 11.25 44.4 11.1 44.4 10.3 43.8 9.55 43.25 9.05 43.35 8.25 45.05 4.75 47.7 L4.65 47.65 3.75 47.35 3.75 47.3 Q3.75 46.6 6.05 44.35 L8.1 42.6 7.65 42.5 6.4 42.75 5.1 43.0 2.15 42.4 0.1 41.95 0.0 40.5 0.85 40.7 1.4 40.85" fill="#471818" fill-rule="evenodd" stroke="none"/>
      <path d="M41.35 29.25 Q41.5 27.8 42.55 22.6 L43.85 16.2 44.05 12.95 44.55 9.0 45.4 3.65 Q45.7 1.5 46.0 3.05 L46.65 8.4 46.7 9.55 46.75 10.75 Q47.55 15.15 46.85 25.2 46.2 34.1 44.8 36.9 L44.8 37.1 Q45.1 38.75 41.35 40.7 L39.4 41.6 37.75 42.35 Q35.2 43.5 32.9 43.95 28.55 44.75 22.95 43.2 19.05 42.15 15.3 40.2 12.85 38.95 11.4 36.7 L10.35 34.75 Q8.35 32.25 7.9 29.85 L7.8 28.2 7.7 26.55 Q7.6 26.2 8.9 20.35 L9.95 15.45 10.3 15.55 10.2 16.25 10.0 17.25 9.2 21.1 Q7.75 25.05 8.1 27.7 L8.1 28.6 8.75 30.05 8.8 30.7 8.9 30.85 8.9 31.4 9.45 32.05 9.75 32.9 10.3 33.6 Q10.7 35.45 13.25 37.35 15.65 39.2 19.45 40.7 23.2 42.15 27.0 42.8 31.05 43.45 34.0 42.9 35.75 42.6 37.2 41.85 L38.65 40.7 Q40.95 39.65 42.6 38.05 L43.35 37.3 43.4 37.3 43.6 37.15 43.6 37.0 Q45.35 34.85 45.65 32.35 L46.35 25.8 46.65 20.6 Q46.4 19.25 46.4 16.95 L46.4 14.75 Q46.2 13.65 45.95 14.05 L45.85 11.85 45.7 9.05 Q45.35 7.1 44.75 11.65 L43.85 19.25 42.45 26.8 41.85 29.5 41.35 29.25 M12.1 17.2 L12.4 17.05 12.7 16.95 12.85 16.9 Q12.35 21.05 11.65 22.4 L11.4 22.25 12.1 17.2 M17.65 23.7 L17.5 23.6 17.35 23.25 Q18.4 21.3 19.05 18.55 L19.6 18.7 19.4 19.55 19.2 20.7 18.45 22.0 Q17.9 22.9 17.65 23.7 M38.55 0.0 L38.6 1.05 38.6 3.95 38.6 6.9 Q38.55 9.25 37.5 14.05 L36.85 17.2 36.4 17.15 Q36.85 14.85 36.7 9.9 36.55 3.0 36.05 0.2 L36.05 0.0 37.3 0.0 Q37.5 2.15 37.2 8.9 L37.1 11.85 37.65 8.25 37.7 2.9 Q37.75 1.15 37.95 0.0 L38.55 0.0 M34.15 1.25 L34.05 0.8 33.95 0.0 34.15 0.0 34.1 0.35 34.15 1.25 M34.4 4.0 L34.3 5.25 34.25 5.3 34.25 3.95 34.2 2.05 34.25 2.45 34.4 4.0 M25.85 0.0 L26.3 0.0 26.4 0.75 26.4 0.9 26.55 1.65 26.65 2.6 26.05 10.0 25.7 13.65 25.7 13.75 25.25 14.25 25.2 14.3 25.1 14.35 25.05 14.3 25.45 11.65 25.75 8.1 25.75 6.1 25.95 3.95 25.85 0.0 M24.3 6.95 L24.75 3.0 24.35 6.65 24.3 6.95 M24.75 1.25 L24.75 0.0 24.9 0.0 24.75 1.25 M20.45 14.15 L19.85 14.1 20.35 10.7 20.75 7.45 21.25 4.25 Q21.55 3.05 21.5 1.15 L21.55 0.0 22.65 0.0 22.55 1.65 22.8 2.0 23.15 2.9 Q23.75 6.05 22.25 13.4 L22.1 14.35 22.05 14.35 Q23.15 8.15 22.65 5.6 22.2 3.1 21.6 6.45 L20.6 13.35 20.45 14.15 M10.85 12.6 L10.6 12.55 10.7 12.2 12.0 5.7 12.4 2.95 12.95 0.0 14.15 0.0 13.6 3.7 13.25 12.05 13.2 12.0 13.15 12.0 12.85 11.8 13.05 10.4 13.05 7.95 13.0 5.55 12.75 5.1 12.45 5.05 Q11.6 7.7 10.85 12.6" fill="#fff4f4" fill-opacity="0.49803922" fill-rule="evenodd" stroke="none"/>
      <path d="M41.35 29.25 L41.85 29.5 42.45 26.8 43.85 19.25 44.75 11.65 Q45.35 7.1 45.7 9.05 L45.85 11.85 45.95 14.05 Q46.2 13.65 46.4 14.75 L46.4 16.95 Q46.4 19.25 46.65 20.6 L46.35 25.8 45.65 32.35 Q45.35 34.85 43.6 37.0 L43.4 37.3 43.35 37.3 42.6 38.05 Q40.95 39.65 38.65 40.7 L37.2 41.85 Q35.75 42.6 34.0 42.9 31.05 43.45 27.0 42.8 23.2 42.15 19.45 40.7 15.65 39.2 13.25 37.35 10.7 35.45 10.3 33.6 L9.75 32.9 9.45 32.05 8.9 31.4 8.9 30.85 8.8 30.7 8.75 30.05 8.1 28.6 8.1 27.7 Q7.75 25.05 9.2 21.1 L10.0 17.25 10.2 16.25 10.25 16.45 10.25 16.6 10.55 17.0 9.65 20.8 9.65 21.0 9.6 21.05 8.7 24.45 8.75 24.55 8.75 24.9 8.75 25.8 8.65 26.2 Q8.4 27.05 8.6 28.1 L9.05 29.1 9.2 29.4 9.2 30.6 10.25 32.5 11.5 34.5 13.85 36.8 Q15.3 38.0 16.05 38.0 L17.65 38.9 Q20.15 40.3 22.05 40.75 27.35 42.75 33.15 41.65 37.95 40.8 41.3 38.3 44.25 36.1 44.25 34.05 L44.45 33.5 44.9 32.25 44.8 31.9 44.8 31.65 45.0 28.35 45.05 27.45 45.05 27.3 45.15 26.15 45.35 23.7 Q45.75 18.7 45.15 14.3 L44.6 20.3 43.3 29.7 43.3 29.8 42.9 30.0 42.9 30.15 42.7 30.55 41.25 30.0 37.8 28.7 Q37.6 27.6 36.45 26.0 35.25 24.4 35.2 24.0 L34.8 23.0 34.85 22.95 Q36.05 23.55 37.0 23.3 L38.15 22.55 38.2 22.55 Q37.4 23.65 36.45 24.05 L36.8 24.7 37.05 24.6 Q37.95 24.6 38.55 27.95 L38.85 28.05 41.35 29.25 M11.5 17.3 L11.95 17.2 12.1 17.2 11.4 22.25 11.65 22.4 Q15.95 24.1 17.6 23.8 L17.65 23.7 Q17.9 22.9 18.45 22.0 L19.2 20.7 19.4 19.55 19.6 18.7 20.05 18.85 19.65 20.75 19.55 21.2 Q18.85 21.7 18.55 22.55 L18.05 23.8 Q17.65 24.35 16.9 24.5 L13.1 23.85 10.55 23.35 11.35 18.2 11.5 17.3 M38.55 0.0 L39.75 0.0 39.8 0.25 39.85 0.5 40.15 1.3 40.45 2.3 40.7 6.5 40.4 13.7 Q39.95 18.75 38.8 21.35 39.15 20.4 38.85 19.35 40.1 11.0 39.8 9.2 L39.3 7.8 38.9 10.9 38.55 13.2 Q38.6 14.5 38.1 17.85 37.55 17.3 36.85 17.2 L37.5 14.05 Q38.55 9.25 38.6 6.9 L38.6 3.95 38.6 1.05 38.55 0.0 M36.05 0.0 L36.05 0.2 Q36.55 3.0 36.7 9.9 36.85 14.85 36.4 17.15 L35.95 17.2 36.0 17.15 35.65 17.1 35.55 17.0 35.4 16.8 35.4 16.75 35.65 15.15 35.8 14.55 35.9 14.1 35.95 13.65 35.85 13.65 36.0 11.45 Q36.25 5.85 35.55 2.05 L35.35 1.7 35.25 1.65 34.7 0.05 34.7 0.0 36.05 0.0 M34.15 1.25 L34.1 0.35 34.15 0.0 34.6 0.0 34.4 3.6 34.4 4.0 34.25 2.45 34.2 2.05 34.2 1.85 34.15 1.25 M25.85 0.0 L25.95 3.95 25.75 6.1 25.75 8.1 25.45 11.65 25.05 14.3 24.9 14.3 24.85 14.35 24.8 14.35 Q25.8 7.65 25.45 5.75 L24.95 4.8 24.65 7.65 Q24.25 11.0 23.65 12.4 L23.8 12.7 23.8 13.65 23.2 14.05 23.05 14.0 23.0 14.5 22.7 14.45 23.35 11.5 24.3 6.95 24.35 6.65 24.75 3.0 24.75 2.1 24.75 1.45 24.75 1.25 24.9 0.0 25.85 0.0 M22.05 14.35 L21.55 14.3 21.5 9.7 21.4 9.35 20.65 13.75 20.6 14.15 20.45 14.15 20.6 13.35 21.6 6.45 Q22.2 3.1 22.65 5.6 23.15 8.15 22.05 14.35 M10.85 12.6 Q11.6 7.7 12.45 5.05 L12.75 5.1 13.0 5.55 13.05 7.95 13.05 10.4 12.85 11.8 12.35 11.7 12.3 11.7 12.1 11.7 12.15 10.2 12.15 9.3 11.65 11.8 11.5 11.85 Q11.15 12.2 11.0 12.7 L10.85 12.6" fill="#ffd5d5" fill-opacity="0.64705884" fill-rule="evenodd" stroke="none"/>
      <path d="M10.55 17.0 L10.75 17.1 11.5 17.3 11.35 18.2 10.55 23.35 13.1 23.85 16.9 24.5 Q17.65 24.35 18.05 23.8 L18.55 22.55 Q18.85 21.7 19.55 21.2 L19.65 20.75 20.05 18.85 21.35 19.2 21.25 20.45 21.6 20.4 22.15 19.85 22.25 19.45 22.4 19.5 22.45 19.45 22.45 19.5 22.9 19.6 22.9 19.9 22.8 20.0 22.7 20.25 22.7 20.3 22.75 20.85 22.8 20.95 22.85 20.95 22.95 21.0 22.6 21.25 21.6 21.05 Q20.1 20.95 19.55 21.75 L19.15 23.1 18.5 24.95 18.5 25.0 17.65 25.25 16.6 25.35 Q12.5 25.05 10.4 24.25 L9.65 24.05 Q9.4 25.4 9.45 26.65 9.8 32.4 16.2 36.5 18.4 37.95 21.45 39.1 25.25 40.45 28.9 40.7 38.55 41.4 43.55 33.7 L44.0 32.5 43.55 32.4 43.55 32.45 41.4 31.7 39.75 31.2 39.0 30.95 37.3 29.85 36.2 28.75 36.35 28.7 36.45 28.6 Q36.95 27.85 35.55 25.95 L34.15 24.4 34.1 23.8 34.1 23.65 34.5 23.2 34.65 23.0 34.7 23.05 34.7 23.1 34.8 23.0 35.2 24.0 Q35.25 24.4 36.45 26.0 37.6 27.6 37.8 28.7 L41.25 30.0 42.7 30.55 42.9 30.15 42.9 30.0 43.3 29.8 43.3 29.7 44.6 20.3 45.15 14.3 Q45.75 18.7 45.35 23.7 L45.15 26.15 45.05 26.85 45.05 27.3 45.05 27.45 45.0 28.35 44.8 31.65 44.8 31.9 44.9 32.25 44.45 33.5 44.25 34.05 Q44.25 36.1 41.3 38.3 37.95 40.8 33.15 41.65 27.35 42.75 22.05 40.75 20.15 40.3 17.65 38.9 L16.05 38.0 Q15.3 38.0 13.85 36.8 L11.5 34.5 10.25 32.5 9.2 30.6 9.2 29.4 9.05 29.1 8.6 28.1 Q8.4 27.05 8.65 26.2 L8.75 25.8 8.75 24.9 8.75 24.55 8.7 24.45 9.6 21.05 9.65 21.0 9.65 20.8 10.55 17.0 M38.1 17.85 Q38.6 14.5 38.55 13.2 L38.9 10.9 39.3 7.8 39.8 9.2 Q40.1 11.0 38.85 19.35 L38.6 18.6 38.1 17.85 M34.7 0.0 L34.7 0.05 35.25 1.65 35.35 1.7 35.55 2.05 Q36.25 5.85 36.0 11.45 L35.85 13.65 35.45 13.85 34.95 14.0 35.0 13.6 35.15 13.1 35.25 12.9 35.2 12.85 35.25 12.4 35.5 10.05 Q35.45 8.05 35.0 6.35 34.7 4.8 34.3 5.25 L34.4 4.0 34.4 3.6 34.6 0.0 34.7 0.0 M24.8 14.35 L24.05 14.3 23.95 14.25 24.05 14.45 24.0 14.6 23.0 14.5 23.05 14.0 23.2 14.05 23.8 13.65 23.8 12.7 23.65 12.4 Q24.25 11.0 24.65 7.65 L24.95 4.8 25.45 5.75 Q25.8 7.65 24.8 14.35 M21.55 14.3 L20.6 14.15 20.65 13.75 21.4 9.35 21.5 9.7 21.55 14.3 M12.1 11.7 L11.8 11.8 11.65 11.8 12.15 9.3 12.15 10.2 12.1 11.7" fill="#ffbbbb" fill-opacity="0.84705883" fill-rule="evenodd" stroke="none"/>
      <path d="M14.15 26.05 L14.1 26.05 13.95 26.6 Q13.85 27.7 14.75 29.35 15.95 31.55 17.95 32.85 25.6 37.75 33.15 35.5 35.85 34.75 38.1 33.15 L39.45 32.0 39.5 31.95 42.0 32.75 43.2 33.05 43.2 33.1 Q39.45 38.9 32.15 39.9 24.35 40.95 16.3 35.75 10.5 32.0 10.1 26.7 9.95 25.8 10.1 24.6 11.45 25.45 14.25 25.85 L14.15 26.05 M15.55 26.05 L15.95 26.05 16.35 26.9 18.0 30.9 15.9 26.85 15.55 26.05 M28.8 2.7 L28.8 2.75 28.8 2.7 M22.05 21.75 L22.0 21.95 Q20.95 21.95 20.7 22.45 L20.2 23.2 20.05 24.0 19.2 24.55 20.0 22.2 Q20.4 21.65 21.55 21.75 L22.05 21.75 M22.05 22.4 L22.55 22.45 Q23.6 22.2 23.6 22.75 23.6 23.25 22.45 24.05 L20.5 25.65 20.3 25.6 20.3 25.15 20.5 24.0 20.5 23.9 20.7 23.35 20.85 22.9 Q20.95 22.65 21.45 22.6 L21.8 22.45 21.95 22.45 22.05 22.4 M23.95 24.35 Q24.1 24.05 25.15 23.85 L26.0 23.65 26.15 24.2 Q26.3 24.95 26.05 25.3 L24.35 26.95 23.8 27.55 23.75 26.5 Q23.75 24.65 23.95 24.35 M18.8 28.55 L26.55 30.45 30.5 31.6 34.1 31.3 30.95 31.75 36.45 33.4 29.95 31.85 27.95 32.1 21.7 32.8 21.7 32.75 29.3 31.75 26.4 30.9 Q22.2 29.5 18.95 28.65 L18.8 28.55 M36.15 28.7 L35.55 28.05 34.9 27.4 Q35.0 26.75 33.85 25.65 L33.9 25.6 34.05 25.2 34.6 26.15 36.15 28.7 M34.05 27.25 L34.15 27.55 33.85 28.7 33.7 29.05 33.65 29.05 33.7 29.1 33.45 29.45 32.6 27.6 31.45 26.35 31.3 26.2 31.35 24.9 32.3 25.1 Q33.3 25.75 33.7 26.5 L34.05 27.25 M32.3 36.1 L32.15 36.15 32.3 36.15 32.3 36.1 M29.7 26.5 L29.25 27.35 28.4 28.35 28.25 28.5 28.05 27.6 27.65 26.55 Q27.55 25.75 27.75 25.4 L28.2 24.8 28.8 24.3 Q29.6 24.85 29.7 26.5" fill="#cccccc" fill-rule="evenodd" stroke="none"/>
      <path d="M18.25 7.5 L18.25 7.45 18.3 7.5 18.25 7.5" fill="#111111" fill-rule="evenodd" stroke="none"/>
      <path d="M14.15 26.05 L14.25 25.85 14.85 25.9 15.55 26.05 15.9 26.85 18.0 30.9 16.35 26.9 15.95 26.05 16.45 26.05 16.95 26.05 Q19.05 26.1 19.65 25.4 L19.15 25.45 19.9 24.75 19.85 25.75 19.85 26.3 19.9 26.65 21.6 25.45 22.85 24.4 23.1 24.25 23.4 24.3 23.4 24.35 23.25 26.15 23.25 26.45 23.2 27.8 23.35 28.45 23.8 28.25 24.7 27.6 26.45 25.9 26.5 25.8 26.65 25.85 27.1 25.85 27.05 26.15 Q27.15 27.85 27.6 28.45 L27.65 28.65 28.1 29.35 28.4 29.15 28.4 29.1 29.2 28.35 30.45 27.0 30.5 26.95 30.9 26.85 31.25 27.3 32.3 28.55 32.75 29.55 33.2 30.45 33.25 30.5 33.25 30.6 33.35 30.6 33.85 30.05 34.4 28.95 34.6 28.2 35.3 29.05 35.45 29.2 36.9 30.55 38.45 31.6 39.0 31.8 39.0 31.85 38.8 32.0 Q36.55 33.9 33.9 34.9 26.3 37.9 18.0 32.6 16.2 31.35 14.95 29.25 14.0 27.7 14.05 26.65 L14.15 26.05 M30.8 12.05 L31.9 12.35 33.95 12.8 34.05 12.8 34.35 12.9 34.15 14.4 34.0 14.4 33.8 14.5 33.3 14.65 30.3 15.25 29.15 15.25 26.7 14.8 26.15 14.65 26.7 14.45 28.8 13.35 30.05 12.2 30.25 11.95 30.8 12.05 M25.15 17.0 L25.2 16.3 25.15 15.7 29.65 16.65 29.7 16.65 30.4 16.9 33.45 17.3 33.9 17.4 34.8 17.7 34.65 18.85 33.75 18.75 31.8 18.55 28.55 17.9 27.35 17.4 25.3 17.0 25.15 17.0 M33.7 15.25 L33.95 15.15 34.7 14.9 35.25 14.65 35.25 14.75 34.85 15.8 34.8 16.2 34.35 16.1 34.3 16.15 33.9 16.1 31.65 15.65 31.65 15.6 32.25 15.45 33.7 15.25 M15.85 14.95 L15.55 16.75 15.5 16.8 15.15 17.2 15.05 17.2 14.5 17.15 14.35 17.1 14.15 16.7 14.2 16.55 14.75 14.7 15.75 14.85 15.85 14.95 M13.95 15.15 L13.75 16.4 13.2 16.3 13.1 16.25 13.1 16.0 13.3 15.1 13.95 15.15 M12.45 14.65 L12.25 16.15 12.25 16.5 12.2 16.55 12.0 16.65 11.7 16.7 11.55 16.7 Q11.1 16.75 10.95 16.45 L10.85 16.25 10.9 15.95 11.25 14.5 11.3 14.05 11.6 13.95 11.9 14.15 12.45 14.6 12.45 14.65 M18.8 28.55 L18.95 28.65 Q22.2 29.5 26.4 30.9 L29.3 31.75 21.7 32.75 21.7 32.8 27.95 32.1 29.95 31.85 36.45 33.4 30.95 31.75 34.1 31.3 30.5 31.6 26.55 30.45 18.8 28.55 M32.3 36.1 L32.3 36.15 32.15 36.15 32.3 36.1" fill="#666666" fill-rule="evenodd" stroke="none"/>
      <path d="M25.15 17.0 L25.3 17.0 27.35 17.4 28.55 17.9 31.8 18.55 33.75 18.75 34.65 18.85 34.55 19.4 33.9 21.1 33.45 22.4 33.25 22.55 33.35 22.8 23.65 20.4 24.1 19.9 29.4 20.9 29.25 20.65 24.55 19.4 24.55 19.2 24.5 19.15 25.15 17.0 M34.8 17.7 L33.9 17.4 33.45 17.3 30.4 16.9 29.7 16.65 30.4 16.85 30.6 16.55 28.1 15.7 34.75 16.65 34.8 17.7 M14.75 14.7 L14.75 14.55 14.8 14.0 14.9 13.7 14.95 13.5 Q15.05 13.25 15.2 13.3 L15.25 13.25 15.25 13.2 15.4 13.25 16.1 13.75 16.05 13.8 15.85 14.8 15.85 14.95 15.75 14.85 14.75 14.7 M13.3 15.1 L13.3 15.05 13.45 14.05 13.45 13.6 13.45 13.5 13.6 13.65 13.7 13.65 14.25 13.75 13.95 15.15 13.3 15.1 M11.3 14.05 L11.4 13.95 11.65 12.75 11.7 12.7 11.8 12.65 12.05 12.55 12.3 12.5 12.7 12.9 12.75 12.9 12.7 13.0 12.65 13.35 12.6 13.55 12.5 14.5 12.45 14.65 12.45 14.6 11.9 14.15 11.6 13.95 11.3 14.05" fill="#333333" fill-rule="evenodd" stroke="none"/>
      <path d="M23.95 15.45 L23.05 19.0 16.0 17.05 15.9 17.05 15.9 17.0 15.9 16.85 16.25 15.3 16.45 14.55 16.5 14.15 19.75 14.7 20.3 14.85 20.45 14.8 21.55 15.0 21.9 15.1 22.6 15.25 22.85 15.3 23.9 15.45 23.95 15.45 M37.8 18.35 L37.9 18.65 Q38.45 20.6 37.55 22.4 L37.45 22.4 37.0 22.35 36.05 22.2 35.5 22.0 35.05 21.8 34.75 21.7 Q35.55 20.5 35.65 18.95 L35.65 18.9 35.6 18.0 37.3 17.8 37.8 18.35" fill="#333300" fill-rule="evenodd" stroke="none"/>
      <path d="M38.15 22.55 L38.15 22.5 38.4 22.1 38.35 22.45 Q38.65 22.45 38.2 22.55 L38.15 22.55 M35.65 15.15 L35.4 16.75 Q35.3 16.6 35.35 16.45 L35.65 15.15 M24.55 19.2 L24.55 19.4 24.4 19.35 24.55 19.2" fill="#ffbbbb" fill-rule="evenodd" stroke="none"/>
      <path d="M24.35 21.4 L25.85 21.85 29.05 22.45 33.0 23.6 33.1 23.65 33.45 23.65 33.55 23.7 33.45 25.3 33.4 25.25 33.0 24.9 Q31.4 23.7 30.9 24.5 L31.0 25.55 31.0 26.2 30.65 26.25 30.4 26.2 30.4 26.1 29.8 24.6 27.7 24.55 27.4 25.15 26.7 25.25 26.65 23.95 Q26.45 23.1 26.2 23.15 L25.2 23.2 Q24.0 23.45 23.55 23.85 L23.5 23.8 23.95 23.3 24.1 22.85 Q24.4 22.3 23.35 22.1 L22.8 22.0 22.55 22.0 22.75 21.85 23.5 21.1 24.2 21.35 24.35 21.4 M0.0 10.15 L6.15 11.9 10.85 13.05 10.75 14.0 10.4 15.0 5.2 13.55 0.0 12.45 0.0 10.15" fill="#600000" fill-rule="evenodd" stroke="none"/>
      <path d="M21.35 19.2 L22.25 19.45 22.15 19.85 21.6 20.4 21.25 20.45 21.35 19.2" fill="#ffd5d5" fill-rule="evenodd" stroke="none"/>
      <path d="M36.3 28.85 L37.3 29.85 39.0 30.95 39.75 31.2 41.4 31.7 43.55 32.45 43.55 32.4 44.0 32.5 43.55 33.7 Q38.55 41.4 28.9 40.7 25.25 40.45 21.45 39.1 18.4 37.95 16.2 36.5 9.8 32.4 9.45 26.65 9.4 25.4 9.65 24.05 L10.4 24.25 Q12.5 25.05 16.6 25.35 L17.65 25.25 18.4 25.05 18.45 25.05 21.05 23.3 22.55 21.25 22.6 21.25 22.95 21.0 22.85 20.95 22.8 20.95 22.75 20.85 22.7 20.3 22.7 20.25 22.8 20.0 22.9 19.9 22.9 19.6 22.45 19.5 22.45 19.45 22.4 19.5 16.0 17.65 15.8 17.6 15.8 17.65 15.05 17.8 Q14.0 18.05 13.8 17.35 L13.8 17.4 13.65 17.15 13.45 17.05 13.4 16.9 13.35 16.85 13.15 16.85 12.95 16.85 12.85 16.9 12.7 16.95 12.4 17.05 12.1 17.2 11.95 17.2 11.5 17.3 10.75 17.1 10.55 17.0 10.25 16.6 10.25 16.45 10.2 16.25 10.3 15.55 9.95 15.45 0.0 12.85 0.0 12.45 5.2 13.55 10.4 15.0 10.75 14.0 10.85 13.05 6.15 11.9 0.0 10.15 0.0 9.65 Q5.9 11.15 10.6 12.55 L10.85 12.6 11.0 12.7 Q11.15 12.2 11.5 11.85 L11.65 11.8 11.8 11.8 12.1 11.7 12.3 11.7 12.35 11.7 12.85 11.8 13.15 12.0 13.2 12.0 13.25 12.05 13.4 12.25 13.4 12.35 13.75 12.65 14.5 12.85 14.55 12.75 14.65 12.75 15.1 12.6 15.15 12.45 15.2 12.45 15.95 12.6 Q16.55 12.65 16.6 13.05 L16.75 13.1 16.65 13.35 16.6 13.65 17.85 13.8 20.45 14.15 20.55 14.15 22.05 14.35 22.1 14.35 24.0 14.6 24.05 14.45 23.95 14.25 24.05 14.3 24.1 14.3 24.1 14.2 Q24.1 12.9 25.0 11.35 25.3 10.85 25.9 10.95 L26.7 11.1 26.75 11.1 27.35 11.25 27.4 11.25 27.9 11.4 27.95 11.4 29.0 11.6 29.45 11.75 30.8 12.05 31.9 12.35 33.95 12.8 34.0 12.8 34.0 12.85 34.15 12.9 34.35 12.9 34.7 13.05 34.8 13.1 35.4 13.25 35.55 13.2 36.0 13.5 35.95 13.95 35.9 14.1 35.8 14.55 35.65 15.15 35.35 16.45 Q35.3 16.6 35.4 16.75 L35.4 16.8 35.55 17.0 35.65 17.1 36.0 17.15 35.95 17.2 36.4 17.15 36.85 17.2 Q37.55 17.3 38.1 17.85 L38.6 18.6 38.85 19.35 Q39.15 20.4 38.8 21.35 L38.45 22.0 38.45 22.05 38.4 22.1 38.15 22.5 38.15 22.55 37.0 23.3 Q36.05 23.55 34.85 22.95 L34.85 23.0 34.5 23.55 34.2 23.9 34.25 24.2 34.4 24.8 34.4 24.9 34.45 25.15 34.35 25.45 34.2 25.95 Q34.2 26.35 35.7 28.3 L35.8 28.35 36.3 28.85 M17.05 26.05 L16.95 26.05 16.45 26.05 15.95 26.05 15.55 26.05 14.85 25.9 14.25 25.85 Q11.45 25.45 10.1 24.6 9.95 25.8 10.1 26.7 10.5 32.0 16.3 35.75 24.35 40.95 32.15 39.9 39.45 38.9 43.2 33.1 L43.2 33.05 42.0 32.75 39.5 31.95 39.45 32.0 38.1 33.15 Q35.85 34.75 33.15 35.5 25.6 37.75 17.95 32.85 15.95 31.55 14.75 29.35 13.85 27.7 13.95 26.6 L14.1 26.05 14.15 26.05 14.05 26.65 Q14.0 27.7 14.95 29.25 16.2 31.35 18.0 32.6 26.3 37.9 33.9 34.9 36.55 33.9 38.8 32.0 L39.0 31.85 39.0 31.8 38.45 31.6 36.9 30.55 35.45 29.2 35.3 29.05 34.85 28.55 34.05 27.05 34.0 27.05 33.75 26.6 33.35 26.9 33.15 26.95 33.1 26.95 33.05 26.95 33.0 26.95 32.85 26.95 31.2 26.95 29.15 26.5 28.35 26.3 25.55 25.5 Q22.1 24.45 21.35 23.75 L19.75 24.95 19.15 25.45 19.2 25.45 19.15 25.5 18.95 25.6 17.1 26.0 17.05 26.05 M27.75 6.0 L27.75 5.95 27.75 6.0 M27.55 12.05 L27.15 11.95 26.7 11.85 Q25.35 11.95 25.15 12.8 L24.95 14.15 24.95 14.2 24.95 14.3 24.95 14.6 26.4 14.75 26.7 14.8 29.15 15.25 29.65 15.25 31.75 15.6 31.65 15.6 31.65 15.65 33.9 16.1 34.3 16.15 34.35 16.1 34.5 16.1 34.6 15.8 34.7 15.55 35.05 14.4 34.6 13.9 34.45 13.85 34.2 13.8 34.2 13.75 31.45 12.85 29.8 12.55 28.9 12.3 27.55 12.05 M27.45 14.15 L27.45 14.1 27.5 14.15 27.45 14.15 M29.65 16.65 L25.15 15.7 25.2 16.3 25.15 17.0 24.5 19.15 24.55 19.2 24.4 19.35 29.25 20.65 29.4 20.9 24.1 19.9 23.65 20.4 33.35 22.8 33.25 22.55 33.45 22.4 33.9 21.1 34.55 19.4 34.65 18.85 34.8 17.7 34.75 16.65 28.1 15.7 30.6 16.55 30.4 16.85 29.7 16.65 29.65 16.65 M23.95 15.45 L23.9 15.45 22.85 15.3 22.6 15.25 21.9 15.1 21.55 15.0 20.45 14.8 20.3 14.85 19.75 14.7 16.5 14.15 16.45 14.55 16.25 15.3 15.9 16.85 15.9 17.0 15.9 17.05 16.0 17.05 23.05 19.0 23.95 15.45 M33.4 25.25 L33.45 25.3 33.45 25.2 33.55 23.7 33.45 23.65 33.1 23.65 33.0 23.6 29.05 22.45 25.85 21.85 24.35 21.4 24.2 21.35 23.5 21.1 23.5 21.15 23.55 21.25 22.95 22.0 22.85 22.1 22.1 23.1 Q22.1 23.65 24.0 24.25 L26.65 25.0 28.4 25.55 31.0 26.15 31.25 26.25 31.35 26.25 31.6 26.3 32.8 26.3 33.35 25.85 33.45 25.3 33.4 25.25 M30.9 24.9 L30.9 24.85 30.95 24.85 30.9 24.9 M37.8 18.35 L37.3 17.8 35.6 18.0 35.65 18.9 35.65 18.95 Q35.55 20.5 34.75 21.7 L35.05 21.8 35.5 22.0 36.05 22.2 37.0 22.35 37.45 22.4 37.55 22.4 Q38.45 20.6 37.9 18.65 L37.8 18.35 M13.45 13.5 L13.45 13.6 13.45 14.05 13.3 15.05 13.3 15.1 13.1 16.0 13.1 16.25 13.2 16.3 13.75 16.4 13.95 15.15 14.25 13.75 13.7 13.65 13.6 13.65 13.45 13.5 M12.7 13.0 L12.75 12.9 12.7 12.9 12.3 12.5 12.05 12.55 11.8 12.65 11.7 12.7 11.65 12.75 11.4 13.95 11.3 14.05 11.25 14.5 10.9 15.95 10.85 16.25 10.95 16.45 Q11.1 16.75 11.55 16.7 L11.7 16.7 12.0 16.65 12.2 16.55 12.25 16.5 12.25 16.15 12.45 14.65 12.5 14.5 12.6 13.55 12.65 13.35 12.7 13.0 M15.25 13.25 L15.2 13.3 Q15.05 13.25 14.95 13.5 L14.9 13.7 14.8 14.0 14.75 14.55 14.75 14.7 14.2 16.55 14.15 16.7 14.35 17.1 14.5 17.15 15.05 17.2 15.15 17.2 15.5 16.8 15.55 16.75 15.85 14.95 15.85 14.8 16.05 13.8 16.1 13.75 15.4 13.25 15.25 13.2 15.25 13.25" fill="#000000" fill-rule="evenodd" stroke="none"/>
      <path d="M34.85 28.55 L34.95 28.75 35.5 29.4 35.4 29.65 34.75 28.95 34.65 29.05 34.75 29.3 34.55 29.75 34.65 30.05 34.55 30.3 34.2 30.05 34.15 30.05 34.25 30.3 33.85 30.65 33.7 30.55 33.5 30.85 Q33.15 30.85 32.65 30.0 L32.2 29.15 32.35 28.9 32.05 28.4 31.55 27.7 31.3 27.85 30.95 27.85 30.85 27.75 30.7 27.8 29.8 28.05 29.7 28.05 30.3 28.35 30.15 28.55 30.3 28.75 30.1 29.0 30.35 29.0 30.4 29.15 30.15 29.3 Q29.7 29.3 29.5 29.1 L29.45 29.15 30.0 29.5 30.35 29.8 30.1 29.95 29.95 30.3 28.4 29.75 26.85 29.05 27.2 28.6 26.35 28.3 26.25 28.0 26.0 27.9 25.65 28.15 25.6 28.15 26.2 28.4 26.2 28.55 26.0 28.6 25.5 28.5 25.4 28.7 24.9 28.95 22.75 28.55 22.7 28.4 22.8 28.25 22.75 27.9 22.55 27.6 Q22.55 27.1 23.1 27.1 L22.75 26.9 22.55 26.7 22.7 26.4 22.4 26.05 22.65 25.85 23.0 25.95 23.3 26.0 22.85 25.65 22.35 25.6 22.3 25.45 Q22.3 25.2 22.6 25.3 L22.6 25.25 22.25 25.15 22.3 25.3 22.0 25.65 21.45 25.8 21.2 26.05 21.0 25.95 Q20.65 26.95 20.1 26.95 L19.8 26.8 19.65 26.55 19.75 26.3 19.75 26.25 18.6 26.4 18.15 26.35 17.85 26.35 16.95 26.15 17.05 26.05 17.1 26.0 18.95 25.6 19.15 25.5 19.2 25.45 19.25 25.4 19.55 25.35 19.75 25.25 19.7 25.1 19.75 24.95 21.35 23.75 Q22.1 24.45 25.55 25.5 L28.35 26.3 29.15 26.5 31.2 26.95 32.85 26.95 33.0 26.95 33.05 26.95 33.1 27.0 33.1 26.95 33.15 26.95 33.35 26.9 33.75 26.6 34.0 27.05 34.05 27.05 34.85 28.55 M27.15 11.95 L27.55 12.05 28.9 12.3 29.8 12.55 30.3 12.85 30.15 13.15 30.1 13.3 29.85 13.3 29.6 13.2 29.1 13.55 30.0 14.05 29.75 14.25 28.95 14.1 28.15 13.85 28.25 14.05 28.1 14.25 27.75 14.25 27.5 14.15 27.45 14.1 27.45 14.15 27.55 14.3 27.3 14.6 26.7 14.75 26.4 14.75 24.95 14.6 24.95 14.3 24.95 14.2 24.95 14.15 25.15 12.8 Q25.35 11.95 26.7 11.85 L27.15 11.95 M34.2 13.8 L34.45 13.85 34.6 13.9 35.05 14.4 34.7 15.55 34.55 15.5 34.5 15.4 34.55 15.35 34.35 15.35 33.15 15.4 32.25 15.7 31.75 15.6 29.65 15.25 29.25 15.2 29.1 14.95 29.7 14.8 30.6 14.9 32.05 14.8 32.2 14.7 33.0 14.7 32.85 14.2 32.95 14.15 33.35 14.5 33.9 13.75 34.2 13.8 M19.45 25.9 L19.8 25.65 19.85 25.6 19.65 25.6 19.1 26.05 19.45 25.9" fill="#666666" fill-rule="evenodd" stroke="none"/>
      <path d="M22.95 22.0 L23.15 21.95 24.15 22.15 24.6 22.9 25.45 23.05 25.65 22.9 25.9 22.75 Q26.4 22.75 28.05 23.5 L28.1 23.55 Q28.1 23.15 28.6 23.3 28.9 23.1 30.8 24.35 L30.9 24.25 31.5 24.1 32.4 24.25 33.4 25.25 33.45 25.3 33.35 25.85 32.8 26.3 31.6 26.3 31.35 26.25 31.25 26.25 31.0 26.15 28.4 25.55 26.65 25.0 24.0 24.25 Q22.1 23.65 22.1 23.1 L22.85 22.1 22.95 22.0 M30.9 24.85 L30.6 24.7 30.2 24.55 30.35 24.65 30.3 24.75 30.5 24.9 30.9 24.9 30.95 24.85 30.9 24.85 M30.55 25.65 L30.3 25.65 30.5 25.75 30.55 25.65" fill="#600000" fill-rule="evenodd" stroke="none"/>
      <path d="M34.25 24.2 L34.25 24.15 34.35 24.15 34.35 24.1 Q34.5 23.85 34.5 24.3 L34.55 24.4 35.85 25.95 36.75 27.75 36.65 27.9 36.85 28.45 36.6 28.8 36.9 29.1 36.75 29.25 36.35 28.85 36.3 28.85 35.8 28.35 35.7 28.3 Q34.2 26.35 34.2 25.95 L34.35 25.45 34.45 25.15 34.4 24.9 34.4 24.8 34.25 24.2" fill="#fdbfba" fill-rule="evenodd" stroke="none"/>
      <path d="M18.4 25.05 L18.25 25.0 18.25 24.75 18.55 24.4 18.45 24.05 18.9 23.15 19.3 22.0 19.55 21.6 19.9 21.05 20.2 21.15 21.0 20.9 21.35 21.0 21.75 20.65 Q22.0 20.45 22.05 21.0 L22.55 21.05 22.6 21.15 22.55 21.25 21.05 23.3 18.45 25.05 18.4 25.05 M34.0 12.8 L34.3 6.9 34.25 6.9 34.25 5.3 34.3 5.05 34.35 5.05 34.65 4.8 Q35.4 6.25 35.55 7.6 L35.65 10.3 35.65 11.55 35.35 12.75 35.6 13.1 35.55 13.2 35.4 13.25 34.8 13.1 34.7 13.05 34.35 12.9 34.15 12.9 34.0 12.85 34.0 12.8" fill="#ffbbbb" fill-opacity="0.84705883" fill-rule="evenodd" stroke="none"/>
    </g>
  </defs>
</svg>
