<?xml version="1.0" encoding="UTF-8" standalone="no"?>
<svg xmlns:ffdec="https://www.free-decompiler.com/flash" xmlns:xlink="http://www.w3.org/1999/xlink" ffdec:objectType="frame" height="52.8px" width="52.8px" xmlns="http://www.w3.org/2000/svg">
  <g transform="matrix(1.0, 0.0, 0.0, 1.0, 2.0, 2.0)">
    <use ffdec:characterId="608" height="44.0" transform="matrix(1.0, 0.0, 0.0, 1.0, 2.0, 2.0)" width="44.0" xlink:href="#sprite0"/>
    <use ffdec:characterId="708" height="28.25" transform="matrix(1.5159, 0.0, 0.0, 1.5159, 11.6071, 0.3165)" width="15.3" xlink:href="#sprite2"/>
    <use ffdec:characterId="661" height="52.8" transform="matrix(1.0, 0.0, 0.0, 1.0, -2.0, -2.0)" width="52.8" xlink:href="#sprite3"/>
  </g>
  <defs>
    <g id="sprite0" transform="matrix(1.0, 0.0, 0.0, 1.0, -2.0, -2.0)">
      <use ffdec:characterId="482" height="44.0" transform="matrix(1.0, 0.0, 0.0, 1.0, 2.0, 2.0)" width="44.0" xlink:href="#sprite1"/>
    </g>
    <g id="sprite1" transform="matrix(1.0, 0.0, 0.0, 1.0, -2.0, -2.0)">
      <use ffdec:characterId="481" height="44.0" transform="matrix(1.0, 0.0, 0.0, 1.0, 2.0, 2.0)" width="44.0" xlink:href="#shape0"/>
    </g>
    <g id="shape0" transform="matrix(1.0, 0.0, 0.0, 1.0, -2.0, -2.0)">
      <path d="M44.3 3.05 L44.45 3.2 44.6 3.3 45.3 4.15 45.25 4.0 45.45 4.5 Q46.0 5.75 46.0 7.5 L46.0 40.5 45.75 42.8 45.7 42.9 45.7 42.85 45.45 43.55 45.4 43.7 45.1 44.2 44.7 44.65 Q43.15 46.0 40.1 46.0 L7.9 46.0 Q5.65 46.0 4.2 45.3 L4.25 45.3 3.65 44.95 3.25 44.6 3.15 44.45 3.0 44.3 2.5 43.4 Q2.0 42.2 2.0 40.6 L2.0 40.5 2.0 7.5 Q2.0 6.55 2.15 5.75 L2.7 4.25 Q3.35 3.05 4.7 2.5 L4.65 2.5 5.0 2.4 5.15 2.35 5.3 2.3 5.9 2.15 6.85 2.05 6.95 2.05 7.8 2.0 7.9 2.0 18.3 2.0 18.6 2.0 40.1 2.0 40.45 2.0 41.6 2.1 41.75 2.1 41.95 2.2 43.05 2.45 Q43.7 2.65 44.2 3.0 L44.3 3.05" fill="url(#gradient0)" fill-rule="evenodd" stroke="none"/>
    </g>
    <linearGradient gradientTransform="matrix(-0.0201, -0.0213, 0.0213, -0.0201, 24.0, 24.0)" gradientUnits="userSpaceOnUse" id="gradient0" spreadMethod="pad" x1="-819.2" x2="819.2">
      <stop offset="0.0" stop-color="#565550"/>
      <stop offset="1.0" stop-color="#282826"/>
    </linearGradient>
    <g id="sprite2" transform="matrix(1.0, 0.0, 0.0, 1.0, -13.0, 2.1)">
      <use ffdec:characterId="707" height="28.25" transform="matrix(1.0, 0.0, 0.0, 1.0, 13.0, -2.1)" width="15.3" xlink:href="#shape1"/>
    </g>
    <g id="shape1" transform="matrix(1.0, 0.0, 0.0, 1.0, -13.0, 2.1)">
      <path d="M21.3 0.15 L21.3 0.25 21.5 1.5 23.55 2.05 23.8 2.75 Q23.85 4.2 23.0 4.8 L23.1 4.75 20.25 5.25 20.7 3.95 21.05 2.6 20.8 1.5 20.55 0.5 21.0 -0.35 21.0 -0.45 21.3 0.15 M19.8 12.25 L20.25 12.85 20.05 12.7 20.3 13.1 Q20.7 13.8 22.2 13.8 23.1 13.8 23.55 13.05 L23.85 11.85 23.5 10.7 Q23.1 10.15 23.1 9.7 L23.15 9.45 23.4 9.45 24.5 10.85 25.2 12.25 25.25 12.95 25.05 13.55 25.05 13.7 25.45 14.55 26.05 16.65 26.85 19.15 Q26.85 20.5 26.0 22.1 24.7 24.6 22.1 24.6 19.35 24.6 17.85 22.75 16.7 21.35 16.7 19.95 L16.9 19.35 17.1 18.75 17.3 16.8 17.2 15.75 Q16.95 15.15 15.75 14.45 L15.1 13.55 15.15 13.75 Q14.7 12.3 14.7 11.3 14.7 10.75 16.3 8.35 18.05 5.85 19.05 5.4 L19.05 5.45 19.05 5.55 18.65 6.0 Q18.0 6.75 18.0 7.1 L18.25 8.3 18.45 9.9 18.25 10.85 Q18.25 11.2 19.5 11.9 L19.8 12.25 M21.45 3.95 L22.35 4.1 Q23.1 4.1 23.1 3.25 L22.85 2.55 21.8 2.6 Q21.6 2.8 21.55 3.3 L21.45 3.95 M24.3 12.3 L24.15 12.3 Q23.95 12.65 23.7 14.15 23.3 15.45 22.0 15.45 20.9 15.45 20.5 14.65 19.95 13.65 19.05 13.35 17.65 12.85 17.65 12.0 17.65 11.1 16.8 10.65 L17.0 10.35 17.1 9.95 17.35 9.2 Q17.55 8.8 17.4 8.1 L16.05 9.9 Q15.75 10.25 15.75 11.35 18.6 15.75 18.6 16.35 L18.1 18.25 Q17.6 19.6 17.6 19.9 17.6 20.3 18.85 21.65 20.3 23.25 21.4 23.25 22.9 23.25 24.6 22.2 L24.8 21.9 25.75 20.15 25.95 18.45 Q25.95 17.55 25.3 16.6 24.6 15.65 24.6 15.3 L24.3 15.15 24.3 12.3" fill="#99ff99" fill-rule="evenodd" stroke="none"/>
      <path d="M21.45 3.95 L21.55 3.3 Q21.6 2.8 21.8 2.6 L22.85 2.55 23.1 3.25 Q23.1 4.1 22.35 4.1 L21.45 3.95 M24.3 12.3 L24.3 15.15 24.6 15.3 Q24.6 15.65 25.3 16.6 25.95 17.55 25.95 18.45 L25.75 20.15 24.8 21.9 24.6 22.2 Q22.9 23.25 21.4 23.25 20.3 23.25 18.85 21.65 17.6 20.3 17.6 19.9 17.6 19.6 18.1 18.25 L18.6 16.35 Q18.6 15.75 15.75 11.35 15.75 10.25 16.05 9.9 L17.4 8.1 Q17.55 8.8 17.35 9.2 L17.1 9.95 17.0 10.35 16.8 10.65 Q17.65 11.1 17.65 12.0 17.65 12.85 19.05 13.35 19.95 13.65 20.5 14.65 20.9 15.45 22.0 15.45 23.3 15.45 23.7 14.15 23.95 12.65 24.15 12.3 L24.3 12.3 M19.55 14.9 L19.0 14.35 Q18.75 14.2 18.45 14.85 L19.35 15.3 19.5 15.15 19.55 14.9 M23.45 16.95 L23.1 17.0 Q23.1 17.55 23.4 17.6 L23.55 17.55 23.6 17.3 23.45 16.95 M22.65 17.55 Q21.5 17.55 21.45 17.2 21.3 16.7 20.1 16.35 20.1 16.95 20.55 17.7 L20.15 19.7 20.35 20.8 Q20.8 21.8 21.9 21.8 24.3 21.8 24.3 19.6 24.05 17.55 22.65 17.55" fill="#ccffcc" fill-rule="evenodd" stroke="none"/>
      <path d="M21.7 -2.1 L22.3 -2.1 21.8 -1.7 21.2 -1.1 21.1 -0.75 21.3 0.15 21.0 -0.45 21.0 -0.35 20.55 0.5 20.8 1.5 21.05 2.6 20.7 3.95 20.25 5.25 23.1 4.75 23.0 4.8 21.15 5.4 Q19.8 5.65 19.25 6.05 L18.65 6.95 18.45 8.25 Q18.45 9.3 18.8 10.05 L19.8 12.25 19.5 11.9 Q18.25 11.2 18.25 10.85 L18.45 9.9 18.25 8.3 18.0 7.1 Q18.0 6.75 18.65 6.0 L19.05 5.55 19.05 5.45 19.05 5.4 Q18.05 5.85 16.3 8.35 14.7 10.75 14.7 11.3 14.7 12.3 15.15 13.75 L15.1 13.55 15.75 14.45 Q16.95 15.15 17.2 15.75 L17.3 16.8 17.1 18.75 16.9 19.35 16.7 19.95 Q16.7 21.35 17.85 22.75 19.35 24.6 22.1 24.6 24.7 24.6 26.0 22.1 26.85 20.5 26.85 19.15 L26.05 16.65 25.45 14.55 26.1 15.25 26.1 15.2 26.4 15.6 26.6 15.8 27.0 16.65 27.1 17.2 27.15 18.6 27.15 18.9 27.3 19.35 27.4 20.5 Q27.4 21.8 26.0 23.2 L24.35 24.5 23.8 24.55 23.3 24.7 21.4 25.05 Q19.85 25.05 18.95 24.45 17.75 24.0 16.95 22.85 L16.65 22.15 Q16.0 20.4 16.0 18.75 L16.2 18.35 16.5 17.45 16.65 16.9 16.45 16.15 16.35 16.05 16.15 15.75 16.05 15.5 15.6 15.3 Q14.85 14.85 14.45 14.05 L14.25 13.55 Q13.7 12.6 13.7 11.55 L13.75 10.15 13.85 10.35 13.95 10.35 13.95 10.2 14.0 9.9 14.2 9.6 15.55 8.35 Q16.3 7.85 16.5 6.8 L16.8 5.95 Q17.4 5.5 18.3 5.15 20.8 4.05 20.75 2.65 20.75 1.8 20.15 0.95 L19.55 0.0 Q19.55 -0.6 20.25 -1.1 L20.95 -1.5 21.7 -2.1 M20.25 12.85 Q20.6 13.1 21.1 13.25 L21.15 13.25 21.6 13.35 22.55 13.2 22.7 13.05 22.95 12.3 23.15 11.8 22.85 11.4 Q22.3 10.9 22.3 10.35 22.25 8.75 23.45 8.6 L23.5 8.5 Q24.7 8.05 25.2 7.4 26.05 6.45 26.2 5.2 L26.45 5.35 26.55 7.25 Q26.55 8.1 25.2 8.75 23.85 9.5 23.85 9.55 23.85 9.85 24.7 10.2 25.6 10.55 25.6 11.05 L25.5 11.5 25.5 11.95 25.25 12.95 25.2 12.25 24.5 10.85 23.4 9.45 23.15 9.45 23.1 9.7 Q23.1 10.15 23.5 10.7 L23.85 11.85 23.55 13.05 Q23.1 13.8 22.2 13.8 20.7 13.8 20.3 13.1 L20.05 12.7 20.25 12.85" fill="#0cfc8a" fill-rule="evenodd" stroke="none"/>
      <path d="M22.65 17.55 Q24.05 17.55 24.3 19.6 24.3 21.8 21.9 21.8 20.8 21.8 20.35 20.8 L20.15 19.7 20.55 17.7 Q20.1 16.95 20.1 16.35 21.3 16.7 21.45 17.2 21.5 17.55 22.65 17.55 M23.45 16.95 L23.6 17.3 23.55 17.55 23.4 17.6 Q23.1 17.55 23.1 17.0 L23.45 16.95 M19.55 14.9 L19.5 15.15 19.35 15.3 18.45 14.85 Q18.75 14.2 19.0 14.35 L19.55 14.9" fill="#ffffff" fill-rule="evenodd" stroke="none"/>
      <path d="M22.3 -2.1 L23.2 -2.1 Q23.05 -1.5 22.5 -1.15 L22.4 -1.1 Q21.65 -0.7 21.65 -0.35 21.65 0.4 23.05 1.0 24.4 1.65 24.4 2.15 24.45 4.15 22.3 5.4 L20.15 6.9 19.6 7.55 Q19.1 8.0 19.1 8.6 19.1 9.55 19.8 10.85 20.45 12.25 21.5 12.7 L21.75 12.6 21.75 12.55 22.3 12.15 22.5 11.9 22.0 11.05 21.6 9.4 Q21.6 9.05 21.95 8.75 22.25 8.0 23.75 7.65 25.7 7.15 25.7 5.7 L25.55 5.05 25.35 4.35 Q26.5 4.0 26.75 5.25 L26.85 6.65 26.6 8.35 Q26.15 9.4 24.6 9.3 L24.15 9.55 Q25.45 9.35 26.1 10.4 26.45 11.0 26.45 11.8 L26.0 12.65 25.8 13.05 25.55 13.55 Q25.55 13.9 26.55 15.15 27.2 15.9 27.45 16.8 L27.85 17.7 Q28.3 19.05 28.3 20.75 L28.3 21.3 27.2 23.05 Q26.9 23.45 26.75 23.8 L25.75 24.5 25.65 24.55 25.7 24.55 25.65 24.6 25.55 24.6 Q23.15 26.1 20.2 26.15 L19.7 25.9 18.6 25.65 18.0 25.1 Q16.75 24.35 15.85 22.65 14.9 20.75 14.9 19.45 14.9 18.85 15.4 18.25 L15.85 17.3 15.45 16.2 15.3 15.75 14.75 15.35 Q13.0 14.15 13.0 13.4 L13.1 12.05 13.15 11.35 13.3 10.7 13.25 10.75 13.4 10.5 13.55 9.8 13.85 9.45 14.25 8.7 Q14.8 7.9 15.45 7.75 L15.6 7.5 15.75 6.7 15.55 6.35 15.65 6.35 15.75 6.5 Q15.9 5.55 16.65 5.0 17.65 4.3 19.2 3.75 19.95 3.55 19.95 2.6 L19.35 0.2 19.8 -1.1 19.8 -1.15 20.45 -2.1 21.7 -2.1 20.95 -1.5 20.25 -1.1 Q19.55 -0.6 19.55 0.0 L20.15 0.95 Q20.75 1.8 20.75 2.65 20.8 4.05 18.3 5.15 17.4 5.5 16.8 5.95 L16.5 6.8 Q16.3 7.85 15.55 8.35 L14.2 9.6 14.0 9.9 13.95 10.2 13.95 10.35 13.85 10.35 13.75 10.15 13.7 11.55 Q13.7 12.6 14.25 13.55 L14.45 14.05 Q14.85 14.85 15.6 15.3 L16.05 15.5 16.15 15.75 16.35 16.05 16.45 16.15 16.65 16.9 16.5 17.45 16.2 18.35 16.0 18.75 Q16.0 20.4 16.65 22.15 L16.95 22.85 Q17.75 24.0 18.95 24.45 19.85 25.05 21.4 25.05 L23.3 24.7 23.8 24.55 24.35 24.5 26.0 23.2 Q27.4 21.8 27.4 20.5 L27.3 19.35 27.15 18.9 27.15 18.6 27.1 17.2 27.0 16.65 26.6 15.8 26.4 15.6 26.1 15.2 26.1 15.25 25.45 14.55 25.05 13.7 25.05 13.55 25.25 12.95 25.5 11.95 25.5 11.5 25.6 11.05 Q25.6 10.55 24.7 10.2 23.85 9.85 23.85 9.55 23.85 9.5 25.2 8.75 26.55 8.1 26.55 7.25 L26.45 5.35 26.2 5.2 Q26.05 6.45 25.2 7.4 24.7 8.05 23.5 8.5 L23.45 8.6 Q22.25 8.75 22.3 10.35 22.3 10.9 22.85 11.4 L23.15 11.8 22.95 12.3 22.7 13.05 22.55 13.2 21.6 13.35 21.15 13.25 21.1 13.25 Q20.6 13.1 20.25 12.85 L19.8 12.25 18.8 10.05 Q18.45 9.3 18.45 8.25 L18.65 6.95 19.25 6.05 Q19.8 5.65 21.15 5.4 L23.0 4.8 Q23.85 4.2 23.8 2.75 L23.55 2.05 21.5 1.5 21.3 0.25 21.3 0.15 21.1 -0.75 21.2 -1.1 21.8 -1.7 22.3 -2.1" fill="#028e4b" fill-rule="evenodd" stroke="none"/>
    </g>
    <g id="sprite3" transform="matrix(1.0, 0.0, 0.0, 1.0, 2.0, 2.0)">
      <use ffdec:characterId="660" height="52.8" transform="matrix(1.0, 0.0, 0.0, 1.0, -2.0, -2.0)" width="52.8" xlink:href="#shape2"/>
      <filter id="filter0">
        <feColorMatrix in="SourceGraphic" result="filterResult0" type="matrix" values="0.99336886 -0.0912276 0.097858734 0.0 0.15686275 0.007339846 1.025183 -0.032522745 0.0 0.15686275 -0.09278796 0.06273237 1.0300556 0.0 0.15686275 0.0 0.0 0.0 1.0 0.0"/>
      </filter>
      <use ffdec:characterId="616" filter="url(#filter0)" height="18.9" transform="matrix(1.0, 0.0, 0.0, 1.0, -2.0, -2.0)" width="19.45" xlink:href="#sprite4"/>
    </g>
    <g id="shape2" transform="matrix(1.0, 0.0, 0.0, 1.0, 2.0, 2.0)">
      <path d="M40.8 -2.0 Q50.85 -2.0 50.8 7.65 L50.8 41.2 Q50.85 50.8 40.8 50.8 L8.05 50.8 Q-2.05 50.8 -2.0 41.2 L-2.0 7.65 Q-2.05 -2.0 8.05 -2.0 L40.8 -2.0 M45.6 15.95 L45.6 15.8 45.65 15.3 45.6 14.9 45.6 14.7 45.6 8.35 Q45.45 3.2 39.95 3.2 L8.85 3.2 Q3.25 3.2 3.2 8.5 L3.2 40.35 Q3.25 45.6 8.85 45.6 L39.95 45.6 Q45.55 45.6 45.6 40.35 L45.6 15.95" fill="#0f6995" fill-rule="evenodd" stroke="none"/>
      <path d="M40.8 -1.0 Q49.8 -1.0 49.8 7.65 L49.8 41.2 Q49.85 49.8 40.8 49.8 L8.05 49.8 Q-1.05 49.8 -1.0 41.2 L-1.0 7.65 Q-1.0 -1.0 8.05 -1.0 L40.8 -1.0 M46.6 15.9 L46.65 15.3 46.6 14.8 46.6 14.7 46.6 8.4 Q46.5 2.2 39.95 2.2 L8.85 2.2 Q2.2 2.2 2.2 8.5 L2.2 40.35 Q2.25 46.6 8.85 46.6 L39.95 46.6 Q46.55 46.6 46.6 40.35 L46.6 15.9" fill="url(#gradient1)" fill-rule="evenodd" stroke="none"/>
      <path d="M48.3 7.65 L48.3 41.2 Q48.3 44.75 46.55 46.6 44.6 48.3 40.8 48.3 L8.05 48.3 Q4.2 48.3 2.3 46.6 0.5 44.75 0.5 41.2 L0.5 7.65 Q0.5 4.05 2.3 2.25 4.2 0.5 8.05 0.5 L40.8 0.5 Q44.6 0.5 46.55 2.25 48.3 4.05 48.3 7.65 M45.65 15.3 L45.6 14.9 45.6 14.7 45.6 8.35 Q45.45 3.2 39.95 3.2 L8.85 3.2 Q3.25 3.2 3.2 8.5 L3.2 40.35 Q3.25 45.6 8.85 45.6 L39.95 45.6 Q45.55 45.6 45.6 40.35 L45.6 15.95 45.6 15.8 45.65 15.3" fill="url(#gradient2)" fill-rule="evenodd" stroke="none"/>
      <path d="M46.65 15.35 L46.6 15.85 46.6 15.95 46.6 40.35 Q46.55 46.6 39.95 46.6 L8.85 46.6 Q2.25 46.6 2.2 40.35 L2.2 8.5 Q2.25 2.2 8.85 2.2 L39.95 2.2 Q46.45 2.2 46.6 8.35 L46.6 14.75 46.6 14.85 46.65 15.25 46.65 15.35 M45.6 14.7 L45.6 8.35 Q45.45 3.2 39.95 3.2 L8.85 3.2 Q3.25 3.2 3.2 8.5 L3.2 40.35 Q3.25 45.6 8.85 45.6 L39.95 45.6 Q45.55 45.6 45.6 40.35 L45.6 15.95 45.6 15.8 45.65 15.3 45.6 14.9 45.6 14.7" fill="#0f6995" fill-rule="evenodd" stroke="none"/>
    </g>
    <linearGradient gradientTransform="matrix(0.0, -0.032, 1.0, -3.0E-4, -0.9, 24.4)" gradientUnits="userSpaceOnUse" id="gradient1" spreadMethod="pad" x1="-819.2" x2="819.2">
      <stop offset="0.0" stop-color="#0d87c1"/>
      <stop offset="1.0" stop-color="#bbe7fb"/>
    </linearGradient>
    <linearGradient gradientTransform="matrix(-2.0E-4, 0.0293, -0.031, -2.0E-4, 24.4, 24.4)" gradientUnits="userSpaceOnUse" id="gradient2" spreadMethod="pad" x1="-819.2" x2="819.2">
      <stop offset="0.0" stop-color="#0d87c1"/>
      <stop offset="1.0" stop-color="#bbe7fb"/>
    </linearGradient>
    <g id="sprite4" transform="matrix(1.0, 0.0, 0.0, 1.0, 0.0, 0.0)">
      <use ffdec:characterId="615" height="18.9" transform="matrix(1.0, 0.0, 0.0, 1.0, 0.0, 0.0)" width="19.45" xlink:href="#shape3"/>
    </g>
    <g id="shape3" transform="matrix(1.0, 0.0, 0.0, 1.0, 0.0, 0.0)">
      <path d="M1.0 18.9 L0.0 18.9 0.0 9.65 Q-0.05 0.0 10.05 0.0 L19.45 0.0 19.45 1.0 10.05 1.0 Q1.0 1.0 1.0 9.65 L1.0 18.9 M19.45 4.2 L19.45 5.2 10.85 5.2 Q5.25 5.2 5.2 10.5 L5.2 18.9 4.2 18.9 4.2 10.5 Q4.25 4.2 10.85 4.2 L19.45 4.2" fill="#7c6d01" fill-rule="evenodd" stroke="none"/>
      <path d="M19.45 1.0 L19.45 2.5 10.05 2.5 Q6.2 2.5 4.3 4.25 2.5 6.05 2.5 9.65 L2.5 18.9 1.0 18.9 1.0 9.65 Q1.0 1.0 10.05 1.0 L19.45 1.0" fill="url(#gradient3)" fill-rule="evenodd" stroke="none"/>
      <path d="M19.45 2.5 L19.45 4.2 10.85 4.2 Q4.25 4.2 4.2 10.5 L4.2 18.9 2.5 18.9 2.5 9.65 Q2.5 6.05 4.3 4.25 6.2 2.5 10.05 2.5 L19.45 2.5" fill="url(#gradient4)" fill-rule="evenodd" stroke="none"/>
    </g>
    <linearGradient gradientTransform="matrix(1.0E-4, -0.0295, 0.031, 2.0E-4, 26.4, 26.4)" gradientUnits="userSpaceOnUse" id="gradient3" spreadMethod="pad" x1="-819.2" x2="819.2">
      <stop offset="0.0" stop-color="#dcc001"/>
      <stop offset="1.0" stop-color="#fff3a4"/>
    </linearGradient>
    <linearGradient gradientTransform="matrix(1.0E-4, 0.0295, -0.031, 1.0E-4, 26.4, 26.4)" gradientUnits="userSpaceOnUse" id="gradient4" spreadMethod="pad" x1="-819.2" x2="819.2">
      <stop offset="0.0" stop-color="#dcc001"/>
      <stop offset="1.0" stop-color="#fff3a4"/>
    </linearGradient>
  </defs>
</svg>
