<?xml version="1.0" encoding="UTF-8" standalone="no"?>
<svg xmlns:ffdec="https://www.free-decompiler.com/flash" xmlns:xlink="http://www.w3.org/1999/xlink" ffdec:objectType="frame" height="179.7px" width="222.9px" xmlns="http://www.w3.org/2000/svg">
  <g transform="matrix(1.0, 0.0, 0.0, 1.0, 108.1, 97.5)">
    <use ffdec:characterId="1593" height="7.95" transform="matrix(-6.5027, -2.5701, -2.179, 5.5131, 95.28, -53.1902)" width="11.05" xlink:href="#shape0"/>
    <use ffdec:characterId="1594" height="8.2" transform="matrix(-7.9791, 3.2294, 2.8331, 7.0, -15.3434, -36.0015)" width="7.85" xlink:href="#shape1"/>
    <use ffdec:characterId="1595" height="3.2" transform="matrix(-13.7741, 0.0, 0.0, 7.0, 44.058, -50.1)" width="1.7" xlink:href="#shape2"/>
  </g>
  <defs>
    <g id="shape0" transform="matrix(1.0, 0.0, 0.0, 1.0, 5.9, 7.9)">
      <path d="M-2.95 -2.8 Q-2.85 -3.25 -2.65 -3.55 L-2.95 -2.8" fill="#edff9c" fill-rule="evenodd" stroke="none"/>
      <path d="M0.1 -6.1 L-1.7 -5.55 Q-3.0 -5.1 -3.6 -3.85 -4.05 -2.9 -4.05 -1.85 L-4.0 -0.7 Q-4.25 0.05 -4.7 0.05 -5.65 0.05 -5.85 -0.85 L-5.85 -0.9 -5.9 -1.4 -5.9 -1.6 Q-5.7 -2.6 -5.05 -3.65 -4.2 -4.95 -2.95 -5.95 -1.75 -6.9 -0.85 -7.0 0.1 -7.15 0.1 -6.2 L0.1 -6.1 M4.4 -2.35 Q3.05 -2.45 2.3 -3.0 1.7 -3.45 1.7 -3.8 1.7 -4.25 2.0 -4.45 2.35 -4.3 2.9 -3.9 3.65 -3.3 4.4 -2.35 M-1.6 -5.75 L-2.2 -5.75 Q-2.4 -5.75 -2.6 -5.7 L-2.7 -5.25 -2.6 -5.3 Q-2.2 -5.6 -1.6 -5.75 M-3.45 -6.6 Q-3.35 -6.5 -3.3 -6.3 L-3.25 -6.0 -3.4 -5.85 -3.75 -5.85 Q-3.75 -6.05 -3.8 -6.35 -3.8 -6.6 -3.45 -6.6" fill="#3f5923" fill-rule="evenodd" stroke="none"/>
      <path d="M-5.9 -1.6 L-5.9 -1.75 Q-5.9 -2.8 -5.75 -3.6 -5.55 -4.7 -5.1 -5.55 -3.85 -7.7 -1.0 -7.8 0.25 -8.05 0.7 -7.55 0.95 -7.25 0.95 -6.65 L0.9 -6.45 0.9 -6.3 0.1 -6.1 0.1 -6.2 Q0.1 -7.15 -0.85 -7.0 -1.75 -6.9 -2.95 -5.95 -4.2 -4.95 -5.05 -3.65 -5.7 -2.6 -5.9 -1.6 M2.0 -4.45 L2.2 -4.55 Q2.7 -4.7 3.4 -4.45 4.1 -4.25 4.6 -3.85 5.15 -3.35 5.15 -2.9 5.15 -2.55 5.1 -2.5 5.05 -2.35 4.8 -2.35 L4.4 -2.35 Q3.65 -3.3 2.9 -3.9 2.35 -4.3 2.0 -4.45 M-3.45 -6.6 Q-3.8 -6.6 -3.8 -6.35 -3.75 -6.05 -3.75 -5.85 L-3.4 -5.85 -3.25 -6.0 -3.3 -6.3 Q-3.35 -6.5 -3.45 -6.6" fill="#608c38" fill-rule="evenodd" stroke="none"/>
    </g>
    <g id="shape1" transform="matrix(1.0, 0.0, 0.0, 1.0, 1.75, 7.45)">
      <path d="M1.25 -1.2 L1.3 -1.2 Q1.45 -1.35 1.7 -1.45 1.6 -1.35 1.25 -1.2" fill="#edff9c" fill-rule="evenodd" stroke="none"/>
      <path d="M2.75 0.65 L2.4 0.65 2.2 0.75 Q1.45 0.75 1.1 0.35 0.95 0.2 0.95 0.0 0.95 -0.85 1.25 -1.2 1.6 -1.35 1.7 -1.45 L2.05 -1.55 Q2.65 -1.7 2.85 -1.9 3.2 -2.25 3.2 -3.05 3.2 -3.35 3.0 -3.6 L2.25 -4.15 Q2.15 -4.2 2.0 -4.3 L1.85 -4.35 Q1.05 -4.65 0.9 -4.75 0.45 -4.95 0.45 -5.25 L0.45 -5.4 0.4 -5.45 0.35 -5.45 0.3 -5.6 Q0.35 -6.5 1.05 -6.75 1.75 -6.95 2.7 -6.5 3.7 -6.05 4.35 -5.2 5.1 -4.25 5.1 -3.2 5.1 -3.0 4.85 -2.35 4.55 -1.65 4.15 -0.95 3.45 0.2 2.75 0.65 M0.25 -3.6 L0.3 -3.45 0.3 -3.3 Q0.3 -2.85 0.05 -2.2 -0.3 -1.25 -0.85 -1.25 L-1.05 -1.3 Q-1.2 -1.4 -1.3 -1.65 -1.4 -1.85 -1.4 -2.1 -1.4 -2.55 -1.1 -2.95 -0.8 -3.4 -0.45 -3.6 -0.05 -3.8 0.25 -3.65 L0.25 -3.6" fill="#3f5923" fill-rule="evenodd" stroke="none"/>
      <path d="M0.3 -5.6 L0.3 -5.65 Q0.3 -6.1 0.55 -6.4 L0.65 -6.5 1.05 -6.8 1.1 -6.8 1.4 -6.9 Q3.4 -8.1 4.75 -6.75 5.35 -6.2 5.7 -5.25 L5.8 -4.95 Q6.1 -4.4 6.1 -3.7 L6.1 -3.3 Q6.0 -2.25 5.55 -1.25 4.65 0.5 2.75 0.65 3.45 0.2 4.15 -0.95 4.55 -1.65 4.85 -2.35 5.1 -3.0 5.1 -3.2 5.1 -4.25 4.35 -5.2 3.7 -6.05 2.7 -6.5 1.75 -6.95 1.05 -6.75 0.35 -6.5 0.3 -5.6 M0.25 -3.6 L0.25 -3.65 Q-0.05 -3.8 -0.45 -3.6 -0.8 -3.4 -1.1 -2.95 -1.4 -2.55 -1.4 -2.1 -1.4 -1.85 -1.3 -1.65 -1.2 -1.4 -1.05 -1.3 -1.4 -1.35 -1.6 -1.8 -1.75 -2.15 -1.75 -2.4 -1.75 -3.0 -1.45 -3.5 -1.15 -3.95 -0.75 -4.15 -0.3 -4.35 -0.05 -4.15 0.2 -4.0 0.25 -3.6" fill="#608c38" fill-rule="evenodd" stroke="none"/>
    </g>
    <g id="shape2" transform="matrix(1.0, 0.0, 0.0, 1.0, 0.85, 2.65)">
      <path d="M0.2 -1.4 L0.2 -1.45 Q0.15 -1.55 0.2 -1.6 0.2 -1.7 0.2 -1.75 L0.2 -1.65 Q0.2 -1.55 0.2 -1.45 L0.2 -1.4" fill="#c4d96a" fill-rule="evenodd" stroke="none"/>
      <path d="M0.7 -2.15 L0.7 -2.05 Q0.65 -2.0 0.6 -2.0 L0.55 -2.0 0.55 -2.25 0.7 -2.25 0.7 -2.15 M0.3 -2.2 Q0.3 -2.1 0.25 -2.05 L0.15 -2.2 0.2 -2.2 Q0.25 -2.25 0.25 -2.3 L0.3 -2.2" fill="#007643" fill-rule="evenodd" stroke="none"/>
      <path d="M0.2 -0.55 Q0.2 -0.3 0.1 -0.05 0.0 0.3 -0.25 0.3 -0.5 0.3 -0.65 0.0 -0.7 -0.15 -0.7 -0.3 -0.7 -0.8 -0.55 -1.05 -0.45 -1.3 -0.25 -1.3 -0.05 -1.35 0.05 -1.1 0.2 -0.9 0.2 -0.55 M-0.35 -1.55 Q-0.45 -1.55 -0.45 -1.7 L-0.45 -1.8 Q-0.45 -2.05 -0.35 -2.05 -0.2 -2.05 -0.2 -1.85 -0.2 -1.7 -0.25 -1.65 L-0.35 -1.55" fill="#3f5923" fill-rule="evenodd" stroke="none"/>
      <path d="M0.7 -1.5 L0.75 -1.7 Q0.85 -1.35 0.85 -0.95 0.85 -0.45 0.6 0.0 0.3 0.55 -0.15 0.55 -0.6 0.55 -0.75 -0.2 -0.85 -0.55 -0.85 -1.0 -0.85 -1.9 -0.6 -2.3 -0.35 -2.7 0.0 -2.6 L0.25 -2.5 0.1 -2.35 Q0.05 -2.1 0.05 -1.95 0.05 -1.8 0.1 -1.6 0.2 -1.25 0.45 -1.25 0.6 -1.25 0.7 -1.5 M0.2 -1.4 L0.2 -1.45 Q0.2 -1.55 0.2 -1.65 L0.2 -1.75 Q0.25 -1.9 0.3 -1.9 0.45 -1.9 0.45 -1.7 0.45 -1.55 0.4 -1.45 0.35 -1.35 0.3 -1.35 0.25 -1.35 0.2 -1.4 M-0.35 -1.55 L-0.25 -1.65 Q-0.2 -1.7 -0.2 -1.85 -0.2 -2.05 -0.35 -2.05 -0.45 -2.05 -0.45 -1.8 L-0.45 -1.7 Q-0.45 -1.55 -0.35 -1.55 M0.2 -0.55 Q0.2 -0.9 0.05 -1.1 -0.05 -1.35 -0.25 -1.3 -0.45 -1.3 -0.55 -1.05 -0.7 -0.8 -0.7 -0.3 -0.7 -0.15 -0.65 0.0 -0.5 0.3 -0.25 0.3 0.0 0.3 0.1 -0.05 0.2 -0.3 0.2 -0.55" fill="#608c38" fill-rule="evenodd" stroke="none"/>
    </g>
  </defs>
</svg>
