<?xml version="1.0" encoding="UTF-8" standalone="no"?>
<svg xmlns:ffdec="https://www.free-decompiler.com/flash" xmlns:xlink="http://www.w3.org/1999/xlink" ffdec:objectType="frame" height="113.75px" width="93.8px" xmlns="http://www.w3.org/2000/svg">
  <g transform="matrix(1.0, 0.0, 0.0, 1.0, 17.85, 74.2)">
    <use ffdec:characterId="270" height="16.25" transform="matrix(7.0, 0.0, 0.0, 7.0, -17.85, -74.2)" width="13.4" xlink:href="#shape0"/>
  </g>
  <defs>
    <g id="shape0" transform="matrix(1.0, 0.0, 0.0, 1.0, 2.55, 10.6)">
      <path d="M9.35 -8.4 L9.45 -8.4 9.6 -8.45 Q9.65 -8.5 9.75 -8.45 L10.2 -8.35 10.2 -7.3 Q10.55 -6.7 10.75 -6.1 10.85 -5.7 10.85 -5.35 L10.85 -5.2 Q10.85 -4.1 10.75 -3.4 L10.75 -3.25 Q10.0 -2.75 9.45 -2.05 8.85 -1.2 8.85 -0.45 L8.75 3.7 8.75 3.95 8.7 4.0 8.75 4.2 8.7 4.95 Q8.6 5.65 8.3 5.65 7.95 5.65 7.85 5.3 L7.85 4.75 Q7.8 4.65 7.8 4.4 L7.8 4.15 7.9 3.55 7.9 3.2 8.0 1.15 8.0 1.1 8.05 0.25 8.0 0.0 Q8.0 -0.3 8.1 -1.0 L8.15 -1.0 8.15 -1.35 8.55 -1.95 9.25 -2.95 9.75 -4.5 9.65 -4.9 9.55 -5.25 9.45 -5.8 9.35 -6.9 Q9.2 -7.85 9.15 -8.0 L9.1 -8.15 Q9.1 -8.3 9.2 -8.3 L9.2 -8.4 Q9.25 -8.35 9.35 -8.4 M-1.5 -1.45 L-1.5 -1.45" fill="#111111" fill-rule="evenodd" stroke="none"/>
      <path d="M7.8 4.15 Q7.8 4.0 7.6 4.0 L7.35 4.0 Q6.75 4.15 6.35 4.15 L4.6 4.05 Q4.5 4.05 4.4 4.1 L4.3 4.05 4.1 4.05 Q3.3 3.9 2.55 3.65 1.85 3.4 1.25 3.05 0.7 2.7 0.25 2.3 -0.9 1.25 -1.45 -0.1 -1.85 -1.2 -2.1 -2.35 L-2.1 -2.5 -2.15 -2.6 -2.1 -2.7 Q-1.8 -5.35 -1.1 -7.9 -0.8 -8.9 0.1 -9.45 0.5 -9.75 0.95 -9.95 1.5 -10.2 2.05 -10.35 3.2 -10.6 4.4 -10.5 L4.7 -10.5 5.7 -10.6 Q7.4 -10.6 8.65 -9.6 L8.7 -9.5 8.85 -9.3 8.95 -9.15 Q9.25 -8.85 9.35 -8.4 9.25 -8.35 9.2 -8.4 L9.2 -8.3 Q9.1 -8.3 9.1 -8.15 L9.15 -8.0 Q9.2 -7.85 9.35 -6.9 L9.45 -5.8 9.55 -5.25 9.65 -4.9 9.75 -4.5 9.25 -2.95 8.55 -1.95 8.15 -1.35 8.15 -1.0 8.1 -1.0 Q8.0 -0.3 8.0 0.0 L8.05 0.25 8.0 1.1 8.0 1.15 7.9 3.2 7.9 3.55 7.8 4.15 M-1.5 -1.45 L-1.5 -1.45" fill="#c7a36d" fill-rule="evenodd" stroke="none"/>
      <path d="M0.05 -3.35 Q-0.65 -3.4 -0.8 -3.4 L-0.9 -3.35 Q-1.0 -3.35 -1.0 -3.4 L-1.1 -3.4 -1.5 -3.35 -1.4 -3.65 -1.4 -3.7 -1.1 -4.0 -0.9 -4.25 -0.6 -4.5 -0.55 -4.55 Q0.4 -5.3 1.35 -5.2 L1.45 -5.25 Q1.55 -5.3 1.6 -5.25 L1.7 -5.2 Q2.35 -4.85 3.35 -4.55 L3.85 -4.35 4.45 -4.25 4.8 -4.2 4.85 -4.15 5.25 -4.05 5.2 -4.1 5.4 -4.25 Q5.25 -4.7 4.9 -5.2 L4.35 -5.85 Q4.15 -6.15 4.15 -6.3 4.15 -6.55 3.65 -7.3 L3.05 -8.15 Q3.6 -7.95 4.05 -7.15 4.5 -6.2 5.1 -5.9 5.55 -5.45 5.9 -4.7 6.25 -3.9 6.25 -3.35 6.25 -3.15 6.15 -3.0 6.1 -2.7 5.85 -2.7 5.85 -2.5 5.75 -2.4 L5.75 -2.3 Q5.75 -2.2 5.65 -2.05 5.5 -1.9 5.35 -1.95 L5.3 -1.95 5.2 -2.0 5.05 -2.05 Q4.85 -2.1 4.3 -2.3 L3.5 -2.65 3.35 -2.7 3.9 -2.2 3.9 -2.15 4.1 -1.85 Q4.2 -1.7 4.25 -1.55 L4.25 -1.2 4.2 -1.2 Q4.2 -1.15 4.05 -1.15 L3.75 -1.25 3.75 -1.15 3.7 -1.0 3.6 -0.95 Q3.5 -0.85 3.2 -0.85 L3.15 -0.85 2.95 -0.9 2.7 -0.9 Q2.25 -1.0 1.75 -1.25 L0.55 -1.85 0.55 -1.9 Q1.7 -1.4 2.0 -1.35 L3.2 -1.4 2.15 -1.8 Q0.4 -2.45 -0.1 -2.7 L0.0 -2.85 0.0 -2.9 -0.05 -2.95 0.3 -3.1 Q0.45 -3.25 0.65 -3.3 L0.45 -3.35 0.05 -3.35 M3.7 -0.7 Q3.8 -0.85 3.8 -1.0 L3.85 -1.0 3.95 -0.65 Q3.95 -0.4 3.1 0.0 2.35 0.4 2.05 0.4 1.5 0.4 0.7 -0.2 L0.1 -0.65 -0.1 -0.8 -0.1 -0.85 0.75 -0.45 Q1.4 -0.1 1.65 -0.1 2.4 -0.1 3.0 -0.3 L3.05 -0.35 3.55 -0.6 3.7 -0.7 M0.15 -4.3 L-0.5 -4.05 -0.55 -3.95 -0.7 -3.75 0.35 -3.85 Q1.05 -3.85 2.05 -3.65 L2.1 -3.65 2.5 -3.55 Q2.7 -3.5 2.8 -3.45 L2.85 -3.45 Q3.85 -3.15 5.05 -2.65 L5.15 -2.7 Q5.3 -2.9 5.3 -3.0 L5.3 -3.2 5.1 -3.4 Q4.9 -3.55 4.35 -3.7 3.0 -4.1 2.3 -4.45 L1.85 -4.65 0.8 -4.55 0.15 -4.3 M2.1 -2.15 Q2.8 -1.85 3.6 -1.55 L3.3 -2.05 Q2.65 -2.75 0.8 -2.8 1.15 -2.55 2.1 -2.15 M7.75 2.7 Q7.8 2.55 7.8 2.35 7.8 1.95 7.65 1.75 6.75 1.4 6.4 0.5 L6.3 0.2 Q6.05 -0.65 6.2 -1.65 6.2 -2.15 6.65 -2.7 6.7 -2.9 6.85 -3.2 7.05 -3.7 7.1 -3.95 L7.15 -3.95 7.15 -4.0 Q7.2 -4.2 7.2 -4.95 L7.1 -5.5 7.15 -5.5 7.05 -5.95 7.1 -5.95 Q7.2 -5.75 7.3 -5.4 L7.45 -5.2 7.7 -4.85 7.8 -5.05 Q7.95 -5.25 8.1 -5.35 L8.15 -5.8 Q8.2 -6.45 8.1 -7.0 L8.15 -7.05 Q8.35 -6.8 8.45 -5.6 8.45 -5.2 8.4 -4.9 L8.35 -4.7 8.65 -4.7 Q9.15 -4.7 9.7 -4.8 10.0 -4.85 10.0 -4.4 10.0 -4.1 9.8 -3.5 9.6 -2.85 9.3 -2.7 L9.15 -2.55 9.05 -2.6 Q8.95 -2.65 8.85 -2.75 L8.85 -2.8 8.7 -2.9 Q8.35 -3.2 8.15 -3.2 7.75 -3.2 7.5 -3.05 L7.55 -3.0 7.6 -3.0 7.9 -2.85 8.0 -2.75 8.1 -2.75 8.15 -2.75 8.3 -2.65 8.4 -2.45 8.5 -1.95 Q8.35 -1.85 8.05 -1.75 L7.65 -1.7 Q7.25 -1.6 7.05 -1.5 L6.9 -1.4 7.2 -1.4 7.55 -1.45 7.85 -1.55 8.05 -1.45 Q7.8 -1.4 7.45 -1.15 7.2 -1.0 6.75 -1.0 L6.65 -1.0 6.65 -0.95 6.6 -0.75 6.6 -0.2 6.8 -0.1 Q7.05 0.0 7.3 0.0 7.4 0.0 7.5 -0.1 L7.6 -0.25 7.85 -0.65 Q7.8 -0.3 7.6 0.05 7.4 0.45 7.15 0.5 L7.05 0.55 7.1 0.55 7.5 0.95 7.5 1.0 Q8.3 1.4 8.3 1.95 L8.25 2.7 8.3 2.8 Q8.3 3.05 8.15 3.3 7.9 3.75 7.5 3.75 L7.4 3.75 7.35 3.8 7.2 3.75 Q6.85 3.7 6.6 3.6 L6.55 3.55 Q6.4 3.5 6.3 3.4 L6.15 3.3 6.05 3.25 5.55 3.1 Q5.8 2.9 6.5 3.1 L6.85 3.15 Q7.55 3.1 7.75 2.7 M3.75 2.65 L3.6 2.3 3.35 1.85 3.1 2.05 Q2.4 2.7 1.45 3.0 1.75 2.8 2.8 1.75 3.15 1.35 3.55 1.1 L3.65 1.05 Q3.95 0.8 4.4 0.7 5.5 0.5 5.7 1.45 5.7 1.55 5.65 1.55 4.8 1.35 4.65 1.35 4.3 1.35 4.0 1.45 3.7 1.6 3.7 1.75 3.7 2.1 3.85 2.25 L4.0 2.35 Q4.2 2.45 4.7 2.45 L5.95 2.55 5.95 2.65 Q5.8 2.75 5.2 2.9 L4.25 3.05 Q4.0 3.05 3.75 2.65 M9.05 -4.1 L8.7 -4.05 8.15 -4.1 Q8.05 -4.1 7.7 -4.3 L7.55 -4.35 Q7.45 -4.2 7.4 -4.05 L7.4 -4.0 Q7.4 -3.5 7.3 -3.3 7.65 -3.45 8.15 -3.55 9.05 -3.7 9.3 -3.35 9.45 -3.45 9.45 -3.55 L9.4 -3.85 9.3 -4.1 Q9.3 -4.15 9.05 -4.1 M7.25 -2.3 L7.2 -2.3 Q7.15 -2.15 7.0 -2.1 L6.9 -1.85 7.15 -1.8 Q7.6 -1.8 7.8 -1.95 8.15 -2.1 8.25 -2.15 L8.15 -2.35 7.4 -2.35 7.25 -2.3" fill="#111111" fill-rule="evenodd" stroke="none"/>
      <path d="M5.35 -1.95 Q5.25 -1.7 5.15 -1.7 5.05 -1.7 4.85 -1.8 4.6 -1.95 4.5 -1.95 L4.2 -1.9 4.1 -1.85 3.9 -2.15 3.9 -2.2 3.35 -2.7 3.5 -2.65 4.3 -2.3 Q4.85 -2.1 5.05 -2.05 L5.2 -2.0 5.3 -1.95 5.35 -1.95 M3.7 -1.0 L3.7 -0.7 3.55 -0.6 3.05 -0.35 3.0 -0.3 Q2.4 -0.1 1.65 -0.1 1.4 -0.1 0.75 -0.45 L-0.1 -0.85 -0.1 -0.8 0.1 -0.65 -0.45 -0.95 -0.45 -1.0 0.3 -0.85 1.1 -0.75 Q2.25 -0.75 2.7 -0.9 L2.95 -0.9 3.15 -0.85 3.2 -0.85 Q3.5 -0.85 3.6 -0.95 L3.7 -1.0 M0.0 -2.9 L-0.65 -2.9 -0.9 -2.95 -1.1 -3.1 -1.0 -3.15 -0.9 -3.15 -0.8 -3.2 0.05 -3.35 0.45 -3.35 0.65 -3.3 Q0.45 -3.25 0.3 -3.1 L-0.05 -2.95 0.0 -2.9 M9.05 -2.6 Q8.85 -2.3 8.5 -1.8 7.75 -1.0 6.95 -0.95 7.05 -0.75 7.25 -0.5 7.45 -0.25 7.5 -0.1 7.4 0.0 7.3 0.0 7.05 0.0 6.8 -0.1 L6.6 -0.2 6.6 -0.75 6.65 -0.95 6.65 -1.0 6.75 -1.0 Q7.2 -1.0 7.45 -1.15 7.8 -1.4 8.05 -1.45 L7.85 -1.55 7.55 -1.45 7.2 -1.4 6.9 -1.4 7.05 -1.5 Q7.25 -1.6 7.65 -1.7 L8.05 -1.75 Q8.35 -1.85 8.5 -1.95 L8.4 -2.45 8.3 -2.65 8.15 -2.75 8.1 -2.75 8.0 -2.75 7.9 -2.85 7.6 -3.0 7.55 -3.0 7.5 -3.05 Q7.75 -3.2 8.15 -3.2 8.35 -3.2 8.7 -2.9 L8.85 -2.8 8.85 -2.75 Q8.95 -2.65 9.05 -2.6 M7.35 3.8 L7.3 3.9 6.2 4.05 Q5.3 4.05 4.45 3.35 3.85 2.9 3.75 2.65 4.0 3.05 4.25 3.05 L5.2 2.9 Q5.8 2.75 5.95 2.65 L5.95 2.55 4.7 2.45 Q4.2 2.45 4.0 2.35 L3.85 2.25 4.1 2.1 Q4.45 1.95 4.95 1.9 6.05 1.8 6.2 2.35 L7.25 2.6 7.75 2.7 Q7.55 3.1 6.85 3.15 L6.5 3.1 Q5.8 2.9 5.55 3.1 L6.05 3.25 6.15 3.3 6.3 3.4 Q6.4 3.5 6.55 3.55 L6.6 3.6 Q6.85 3.7 7.2 3.75 L7.35 3.8 M0.0 1.3 Q0.0 1.8 0.15 2.8 L0.25 3.8 -0.05 4.85 -0.35 3.65 -0.55 3.25 -1.4 2.1 Q-1.8 1.55 -2.05 0.7 -2.4 -0.3 -2.55 -0.6 L-2.45 -0.6 Q-1.75 0.35 -0.65 0.7 -0.25 0.85 -0.15 0.95 -0.05 1.1 0.0 1.3" fill="#a9854f" fill-rule="evenodd" stroke="none"/>
      <path d="M2.1 -2.15 Q1.15 -2.55 0.8 -2.8 2.65 -2.75 3.3 -2.05 L3.6 -1.55 Q2.8 -1.85 2.1 -2.15 M7.25 -2.3 L7.4 -2.35 8.15 -2.35 8.25 -2.15 Q8.15 -2.1 7.8 -1.95 7.6 -1.8 7.15 -1.8 L6.9 -1.85 7.0 -2.1 Q7.15 -2.15 7.2 -2.3 L7.25 -2.3" fill="#ffffff" fill-rule="evenodd" stroke="none"/>
      <path d="M0.15 -4.3 L0.8 -4.55 1.85 -4.65 2.3 -4.45 Q3.0 -4.1 4.35 -3.7 4.9 -3.55 5.1 -3.4 L5.3 -3.2 5.3 -3.0 Q5.3 -2.9 5.15 -2.7 L5.05 -2.65 Q3.85 -3.15 2.85 -3.45 L2.8 -3.45 Q2.7 -3.5 2.5 -3.55 L2.1 -3.65 2.05 -3.65 Q1.05 -3.85 0.35 -3.85 L-0.7 -3.75 -0.55 -3.95 -0.5 -4.05 0.15 -4.3 M9.05 -4.1 Q9.3 -4.15 9.3 -4.1 L9.4 -3.85 9.45 -3.55 Q9.45 -3.45 9.3 -3.35 9.05 -3.7 8.15 -3.55 7.65 -3.45 7.3 -3.3 7.4 -3.5 7.4 -4.0 L7.4 -4.05 Q7.45 -4.2 7.55 -4.35 L7.7 -4.3 Q8.05 -4.1 8.15 -4.1 L8.7 -4.05 9.05 -4.1" fill="#003366" fill-rule="evenodd" stroke="none"/>
    </g>
  </defs>
</svg>
