<?xml version="1.0" encoding="UTF-8" standalone="no"?>
<svg xmlns:ffdec="https://www.free-decompiler.com/flash" xmlns:xlink="http://www.w3.org/1999/xlink" ffdec:objectType="frame" height="615.1px" width="173.75px" xmlns="http://www.w3.org/2000/svg">
  <g transform="matrix(1.0, 0.0, 0.0, 1.0, 88.0, 290.65)">
    <use ffdec:characterId="1466" height="615.1" transform="matrix(1.0, 0.0, 0.0, 1.0, -88.0, -290.65)" width="173.75" xlink:href="#shape0"/>
  </g>
  <defs>
    <g id="shape0" transform="matrix(1.0, 0.0, 0.0, 1.0, 88.0, 290.65)">
      <path d="M67.55 289.65 L66.95 289.5 67.0 289.5 67.55 289.65 M-2.35 284.95 L-2.35 285.3 -2.45 286.45 -2.4 285.0 -2.35 284.95" fill="#61421d" fill-rule="evenodd" stroke="none"/>
      <path d="M24.0 -198.9 L24.15 -198.95 24.15 -198.75 24.0 -198.9 M23.65 -179.7 L24.7 -180.55 24.85 -179.3 24.9 -178.1 23.3 -179.7 23.65 -179.7 M14.1 -168.7 Q14.7 -168.25 15.35 -168.0 15.1 -166.2 14.15 -164.8 13.35 -163.5 13.35 -162.65 13.35 -161.7 15.25 -160.95 17.7 -160.0 19.25 -157.3 17.4 -155.7 18.6 -152.6 L20.35 -147.75 19.7 -146.25 19.0 -144.75 Q19.0 -143.1 20.35 -140.95 21.75 -138.75 23.7 -137.4 L21.85 -135.1 Q21.0 -134.25 21.0 -133.6 21.0 -132.2 20.0 -131.15 19.0 -130.15 19.0 -129.0 18.85 -128.45 19.1 -127.95 L18.25 -127.85 Q17.95 -129.4 18.15 -131.6 L18.3 -137.3 Q18.2 -137.95 15.7 -142.85 13.25 -147.6 13.25 -148.65 L14.0 -149.75 Q14.7 -150.8 14.7 -151.3 14.7 -152.05 12.6 -152.95 10.45 -153.85 10.45 -155.3 10.45 -156.95 12.35 -161.8 13.75 -165.45 14.1 -168.7 M8.4 -168.95 Q8.25 -165.9 7.6 -163.2 6.7 -159.5 6.7 -155.9 6.7 -153.65 7.1 -152.9 7.75 -151.65 10.95 -149.5 10.8 -148.15 11.0 -145.25 L11.25 -141.75 11.0 -139.7 10.75 -137.8 Q10.75 -136.4 12.1 -135.35 13.65 -134.15 13.95 -133.3 L13.95 -127.95 14.0 -127.45 9.55 -127.15 7.05 -128.55 Q1.25 -131.55 -2.25 -134.45 -5.95 -137.5 -8.65 -141.4 L-9.15 -147.1 Q-9.15 -158.25 4.3 -168.15 L5.05 -168.7 8.4 -168.95 M4.15 -152.75 L5.7 -153.8 Q3.85 -154.8 2.85 -154.2 L1.95 -153.05 2.2 -152.65 2.25 -152.5 3.25 -152.4 4.15 -152.75 M15.05 -90.35 L12.55 -89.95 11.65 -90.7 Q9.95 -91.7 8.25 -94.25 10.4 -98.55 13.2 -117.75 L16.65 -118.25 Q16.1 -116.35 16.1 -114.65 L16.55 -112.2 Q16.7 -110.6 15.35 -107.75 14.65 -106.2 12.7 -103.8 11.35 -102.2 11.35 -100.4 11.7 -97.7 12.5 -95.05 13.6 -91.5 15.05 -90.35 M5.2 -89.05 L-3.6 -88.35 Q-9.65 -87.95 -15.55 -90.1 -15.05 -98.6 -14.1 -101.3 -10.3 -112.4 7.2 -116.6 L7.2 -116.25 7.85 -111.7 Q8.5 -107.2 8.5 -102.85 L6.15 -99.25 Q3.75 -95.5 3.75 -94.1 3.75 -92.75 4.5 -91.65 5.25 -90.55 5.25 -89.6 L5.2 -89.05 M0.0 -104.15 Q0.95 -104.55 0.95 -105.5 0.95 -106.5 -0.85 -106.55 -2.7 -106.55 -3.0 -104.6 -2.45 -103.85 -1.25 -103.85 L0.0 -104.15 M16.45 -88.0 Q21.05 -89.2 24.1 -91.8 L24.1 -90.15 23.65 -90.6 Q23.15 -86.5 21.7 -83.85 20.4 -81.45 17.95 -80.2 15.1 -78.75 10.8 -78.75 L10.1 -78.8 9.5 -79.3 11.0 -79.05 Q12.3 -79.05 13.75 -79.75 L14.55 -80.2 Q15.45 -80.85 15.45 -81.65 13.8 -81.5 12.15 -82.15 9.3 -83.35 8.95 -87.05 L10.95 -87.2 11.2 -87.2 11.2 -86.8 12.25 -84.3 Q13.5 -81.8 14.3 -81.8 15.9 -81.8 16.45 -84.0 L16.7 -86.55 16.45 -88.0 M10.9 -77.5 L15.05 -77.4 14.85 -74.25 Q14.05 -70.95 10.4 -69.45 L4.45 -69.25 3.6 -69.3 Q0.9 -69.75 -1.2 -72.95 0.6 -70.55 3.6 -69.75 L6.75 -69.4 Q8.55 -69.4 9.55 -70.05 10.45 -70.65 10.45 -71.55 L10.25 -72.65 10.75 -73.7 10.95 -75.9 10.9 -77.5 M-3.05 -76.9 L-3.4 -77.55 Q-0.9 -78.1 1.5 -80.6 3.7 -82.9 4.65 -85.3 L5.85 -83.5 5.75 -83.55 6.1 -82.85 Q4.0 -82.15 3.75 -80.2 L3.7 -79.65 6.3 -75.85 7.8 -73.7 8.05 -73.65 5.75 -73.85 Q4.55 -74.0 3.6 -74.5 1.2 -75.8 0.55 -79.65 -1.3 -78.05 -3.25 -77.55 L-3.05 -76.9 M24.1 -74.85 L24.0 -74.2 24.05 -73.65 23.15 -73.2 Q21.5 -72.45 20.3 -72.45 17.2 -72.45 16.6 -75.15 L16.45 -77.4 Q18.4 -77.8 20.4 -80.2 L21.85 -82.3 24.1 -86.6 24.1 -74.85 M1.75 -82.7 L1.6 -82.5 Q-1.3 -78.95 -7.5 -78.75 L-7.5 -78.8 Q-7.0 -79.5 -7.0 -80.5 -7.0 -82.15 -8.3 -85.45 L-9.05 -87.25 -0.2 -86.8 Q-1.8 -85.9 -1.8 -83.9 L-1.75 -83.0 Q-1.35 -82.25 0.25 -82.25 L1.75 -82.7 M16.55 -73.15 L18.3 -71.5 20.65 -71.15 20.1 -70.65 Q21.6 -70.35 22.9 -69.55 L24.1 -68.7 24.1 -68.35 24.6 -68.3 24.65 -68.15 Q22.8 -66.8 20.05 -65.35 16.4 -63.35 12.75 -62.35 13.35 -63.85 13.45 -65.3 13.6 -67.85 15.15 -69.55 16.7 -71.2 16.7 -72.05 L16.55 -73.15 M3.55 -61.45 L3.35 -61.45 -2.15 -61.85 -2.15 -62.4 Q-2.15 -63.15 -4.15 -66.0 L-6.6 -69.9 Q-4.9 -71.9 -3.65 -74.4 L-2.65 -72.75 Q-2.0 -71.35 -1.25 -70.6 0.2 -69.3 3.05 -68.6 1.95 -67.75 1.95 -66.55 1.95 -65.65 2.7 -63.35 3.1 -62.15 3.55 -61.45 M18.55 -71.0 Q17.05 -71.0 17.05 -68.15 L17.05 -67.05 Q17.3 -66.05 18.55 -66.05 20.05 -66.05 20.05 -68.25 20.05 -71.0 18.55 -71.0 M27.65 -17.0 Q20.55 -15.2 7.25 -14.55 L8.05 -14.6 10.5 -16.0 Q10.5 -19.3 5.45 -17.95 L4.45 -17.65 4.95 -18.15 Q8.5 -21.6 8.5 -23.0 8.5 -25.45 6.25 -26.7 3.95 -28.0 3.95 -29.6 3.95 -30.75 4.6 -32.2 5.25 -33.7 5.25 -34.85 5.25 -36.1 4.75 -35.6 L3.6 -35.9 Q2.6 -35.95 1.6 -35.25 0.25 -34.3 0.25 -33.3 0.25 -32.65 1.65 -29.15 L3.0 -25.6 -0.45 -21.5 Q-3.9 -17.65 -3.9 -17.0 -3.9 -16.3 -3.5 -15.65 -2.75 -14.5 -1.0 -14.5 -0.3 -14.5 0.5 -14.85 L0.4 -14.3 -7.1 -14.2 -15.05 -14.95 -22.25 -16.15 Q-19.9 -20.9 -18.15 -29.65 -17.6 -32.25 -17.2 -34.9 L-8.9 -41.6 Q-10.75 -42.9 -16.6 -39.05 -16.05 -43.1 -15.75 -47.2 L-15.65 -49.35 -15.1 -59.2 -15.05 -60.7 -11.2 -60.25 Q-3.0 -59.7 3.6 -59.9 L4.0 -59.95 4.0 -59.2 3.6 -51.9 Q3.15 -47.45 2.25 -43.4 L3.6 -43.7 Q5.45 -44.4 5.7 -46.25 5.9 -47.55 5.7 -49.9 6.45 -53.25 9.35 -54.3 12.0 -55.25 12.0 -57.1 12.0 -57.65 10.5 -59.2 L9.4 -60.4 13.5 -61.0 Q13.25 -60.3 13.15 -59.2 L13.1 -57.8 Q13.1 -57.25 14.0 -55.35 L14.85 -53.1 Q14.85 -50.1 11.3 -49.0 7.75 -47.85 7.75 -46.0 7.75 -43.8 10.95 -42.9 16.1 -41.45 18.1 -40.15 L18.3 -38.8 18.5 -37.35 16.65 -36.1 Q14.75 -34.95 14.75 -34.15 L15.05 -32.95 Q15.9 -31.85 19.0 -32.0 19.35 -29.7 20.25 -28.95 21.0 -28.35 21.0 -26.85 21.0 -25.5 17.3 -24.75 L12.5 -23.6 12.95 -22.5 Q13.45 -21.8 14.5 -21.5 L19.5 -21.35 18.9 -20.55 Q18.25 -19.85 18.25 -19.1 18.25 -16.5 22.5 -16.5 L26.7 -17.15 27.0 -16.85 27.65 -17.0 M23.3 -71.05 L23.65 -71.05 24.1 -71.3 24.1 -70.4 23.3 -71.05 M3.65 -0.7 L3.6 -0.35 4.6 1.5 Q5.6 3.0 5.6 3.55 L4.5 5.05 3.6 6.1 3.35 6.75 Q3.35 7.3 3.6 7.65 3.95 8.1 4.75 8.1 L5.75 7.95 5.85 9.1 Q4.55 9.95 3.6 10.75 0.85 12.95 0.85 14.55 L1.25 15.5 Q1.85 16.3 3.1 16.25 L2.85 18.45 Q2.9 19.3 3.6 19.75 L4.5 20.1 5.25 19.85 Q5.85 18.15 5.85 16.8 5.95 14.85 3.85 13.75 8.0 10.75 8.0 9.3 8.0 9.0 7.3 8.2 6.5 7.35 6.25 6.5 L9.65 2.05 11.75 -1.0 Q11.75 -1.75 11.35 -2.15 L19.2 -3.2 20.65 -3.35 20.5 -2.55 20.05 0.8 20.6 0.35 Q19.7 1.05 18.35 2.85 14.2 8.45 14.2 12.0 14.2 12.9 14.8 13.7 15.5 14.7 16.75 15.0 L16.0 15.85 Q11.4 15.45 10.0 16.75 9.35 17.35 9.35 19.0 9.35 19.8 11.5 21.1 L12.55 21.7 3.6 22.75 -3.6 23.3 Q-8.35 23.65 -13.0 22.4 L-12.7 20.7 -10.9 8.35 Q-9.4 3.15 -0.15 0.25 L3.6 -0.7 3.65 -0.7 M17.1 23.5 Q21.3 22.3 24.1 19.9 L24.1 21.55 23.65 21.05 Q23.15 25.15 21.7 27.8 18.9 32.9 10.85 32.9 L10.9 32.5 12.0 32.6 Q14.45 32.6 15.2 31.5 L16.5 31.75 Q17.8 31.75 18.15 30.5 L18.25 28.3 Q18.25 24.3 17.1 23.5 M10.65 34.15 L15.05 34.3 14.85 37.4 Q14.5 38.9 13.55 40.05 L13.45 39.85 Q12.9 38.75 11.5 38.75 L10.2 38.75 10.35 37.8 10.65 34.15 M-0.3 32.75 L1.5 31.1 3.6 28.45 4.65 26.4 6.75 29.45 6.9 29.65 Q4.35 31.9 4.35 32.65 L5.6 36.3 6.75 38.55 4.2 37.9 3.6 37.45 -0.25 33.15 -0.3 32.75 M16.6 36.5 L16.45 34.25 Q19.15 33.75 21.85 29.4 L24.1 25.15 24.15 25.55 24.15 28.85 24.25 30.8 24.55 37.8 23.15 38.5 Q21.5 39.25 20.3 39.25 17.2 39.25 16.6 36.5 M3.8 25.9 L4.0 25.05 4.0 24.85 3.6 24.85 0.5 24.9 0.25 25.15 Q-0.9 26.7 -0.9 27.6 L-0.65 29.15 0.95 29.75 1.35 29.5 Q-0.4 31.45 -3.2 32.25 -2.65 31.65 -2.65 31.0 -4.35 27.5 -6.05 24.65 L3.6 24.85 4.6 24.8 3.8 25.9 M3.15 43.1 Q2.35 43.95 2.35 46.15 L2.9 48.05 3.6 49.3 Q4.3 50.15 5.25 50.15 L6.6 49.8 7.15 49.6 7.1 50.3 3.65 50.3 3.75 49.5 3.6 49.45 -1.65 47.15 Q-5.9 45.35 -7.4 42.7 -5.2 40.35 -3.65 37.25 -3.25 37.6 -2.65 38.9 -2.0 40.3 -1.25 41.05 0.2 42.4 3.15 43.1 M13.35 41.25 L16.5 38.45 18.3 40.15 20.65 40.55 20.1 41.0 Q21.6 41.35 22.9 42.15 L24.65 43.4 24.65 43.45 24.65 43.55 20.05 46.3 Q15.65 48.7 11.25 49.7 L11.95 48.45 14.5 43.5 Q14.5 41.55 14.0 40.7 L13.35 41.25 M23.3 40.6 L23.65 40.6 24.6 39.9 24.65 41.85 23.3 40.6 M8.65 51.4 L7.75 51.8 Q5.0 53.3 5.0 55.05 5.0 56.35 5.9 56.95 L6.0 57.0 Q8.15 58.35 14.75 58.55 L15.1 62.0 15.25 63.0 15.65 65.1 10.05 66.5 9.7 66.6 8.9 64.85 15.25 63.0 15.15 62.5 8.45 63.85 7.65 62.15 7.6 62.0 5.05 57.0 4.5 56.3 3.6 56.2 1.95 55.85 -0.25 55.55 0.3 57.0 Q1.15 59.55 1.5 62.9 1.9 64.2 2.95 65.3 L-6.0 68.05 -5.75 68.4 3.85 66.1 Q5.25 67.15 7.4 68.0 7.1 68.4 7.1 68.9 L7.15 69.15 5.35 71.55 Q4.5 72.5 4.5 72.9 4.5 75.5 8.25 75.35 L5.65 79.55 Q3.25 83.55 3.25 84.15 7.55 92.35 9.45 94.65 2.15 95.05 -7.1 95.1 L-15.05 94.3 -23.65 92.8 Q-19.6 87.2 -16.85 76.0 -14.65 66.85 -13.85 57.0 L-13.55 52.3 -13.6 51.15 -11.2 51.4 Q-3.0 51.95 3.6 51.75 L8.65 51.4 M13.95 79.8 L17.2 82.15 20.85 84.35 21.7 89.1 Q18.9 90.0 18.05 90.55 17.2 91.15 17.2 92.1 17.2 93.25 18.1 93.9 L12.2 94.45 Q12.6 93.7 12.6 93.15 L11.7 91.5 Q10.75 90.0 10.75 89.6 10.75 89.0 11.25 88.5 11.75 88.0 11.75 87.35 11.75 86.45 11.2 85.7 L9.1 83.6 Q10.2 83.15 13.2 80.5 L13.95 79.8 M-15.45 133.25 Q-15.05 127.45 -14.5 125.5 -12.6 119.4 -5.75 113.9 1.65 107.95 11.9 106.4 L10.95 107.55 Q10.95 108.5 11.85 109.05 L15.45 111.0 14.75 112.5 Q14.45 113.35 14.45 114.15 L15.95 126.0 Q16.2 127.7 16.1 132.8 L12.25 133.45 Q12.6 131.8 11.9 131.0 11.0 130.45 11.0 130.15 11.0 129.55 11.55 128.35 L12.1 126.55 Q12.1 124.8 10.8 119.7 9.5 114.5 8.75 113.6 L8.0 113.75 7.85 116.15 Q7.85 120.65 8.5 123.5 8.95 125.55 7.25 127.65 5.35 129.95 5.35 131.55 L5.45 134.25 -3.6 135.0 Q-9.6 135.4 -15.45 133.25 M2.25 120.5 L3.45 120.25 3.85 119.75 3.6 119.0 Q0.85 118.65 -0.75 119.5 L-0.5 119.85 Q0.5 120.5 2.25 120.5 M15.05 135.65 Q20.6 134.55 24.1 131.55 L24.1 131.95 24.05 133.1 23.65 132.7 Q23.15 136.85 21.7 139.5 20.25 142.1 17.45 143.4 L17.5 142.65 Q16.6 142.25 15.65 141.7 16.35 141.25 16.35 140.25 16.35 137.3 15.05 135.65 M11.65 145.85 L15.05 145.95 14.85 149.1 14.45 150.35 13.0 150.05 Q12.4 150.05 10.9 150.6 L8.75 151.15 Q6.75 151.15 1.15 145.05 L0.15 144.0 1.5 142.75 Q3.7 140.45 4.65 138.05 L6.15 140.3 Q6.0 141.1 6.0 142.35 L6.15 146.05 Q6.95 150.05 10.25 150.05 11.25 150.05 11.75 149.55 12.35 148.95 12.35 147.5 L11.65 145.85 M-7.9 136.2 Q-2.35 136.7 4.6 136.5 L3.6 137.85 1.6 140.85 -0.45 142.7 -5.4 138.55 -7.9 136.2 M16.45 145.95 Q19.15 145.4 21.85 141.05 L24.1 136.75 24.1 146.9 24.0 147.55 24.1 148.8 24.1 149.7 23.15 150.15 Q21.5 150.9 20.3 150.9 17.2 150.9 16.6 148.2 L16.45 145.95 M24.1 152.95 L23.3 152.3 23.65 152.3 24.1 152.05 24.1 152.95 M17.45 205.65 L10.95 206.2 Q11.75 204.3 11.75 202.65 L11.45 200.65 11.0 198.75 12.8 196.15 13.5 194.6 Q13.5 193.5 13.15 192.9 12.5 191.9 10.75 191.6 12.45 190.0 13.45 188.25 L14.45 185.8 15.0 186.35 Q17.2 188.15 17.95 189.5 14.95 190.4 14.3 191.15 13.95 191.6 13.95 193.25 13.95 194.9 14.3 195.3 14.9 196.05 17.75 197.35 L14.3 199.85 Q13.95 200.3 13.95 202.05 L13.75 202.75 Q13.65 203.45 14.05 204.05 14.8 205.25 17.45 205.65 M5.8 206.5 L-7.1 206.8 -15.05 206.0 Q-21.8 205.15 -26.95 203.65 L-24.45 199.2 Q-20.4 190.95 -19.4 184.1 L-17.25 171.05 Q-16.55 166.3 -16.3 162.35 L-11.2 163.1 Q5.15 164.2 15.1 162.05 L14.85 162.85 13.45 168.15 Q13.45 168.6 14.0 169.35 L15.45 171.35 Q13.85 173.05 13.55 173.85 L13.45 175.5 Q13.45 175.8 14.35 177.35 L15.25 179.25 Q15.25 180.0 14.35 181.5 L14.0 182.1 Q13.2 180.5 11.25 180.5 9.65 180.5 8.1 181.6 L8.1 181.25 8.0 179.35 Q8.0 176.75 8.95 172.75 9.85 168.75 9.85 166.15 9.85 162.95 8.0 163.45 6.1 163.95 6.1 166.25 6.1 173.75 7.2 177.95 8.25 182.15 8.25 186.85 8.25 187.55 5.85 189.85 3.45 192.15 3.45 193.25 6.85 201.5 6.85 202.25 L6.0 203.4 5.1 204.3 5.2 206.5 5.8 206.5 M14.05 152.3 L16.5 150.1 18.3 151.8 20.65 152.2 20.1 152.7 Q21.6 153.0 22.9 153.8 L24.75 155.1 20.05 158.0 Q15.75 160.35 11.4 161.3 L12.0 160.05 Q14.25 155.25 14.25 154.25 L14.05 152.3 M3.8 161.95 L3.35 161.9 -0.65 161.6 Q-1.75 161.05 -2.65 160.0 -4.8 157.25 -5.5 155.5 L-6.6 153.45 Q-4.9 151.45 -3.65 148.95 -3.25 149.3 -2.65 150.6 -2.0 152.0 -1.25 152.75 0.35 154.25 3.75 154.9 L3.4 155.2 Q2.2 156.25 2.2 157.85 2.2 158.55 2.9 160.3 L3.8 161.95 M14.5 157.1 L15.0 157.6 16.0 157.75 17.05 157.45 17.35 157.1 17.5 155.15 Q17.5 153.1 17.15 152.55 16.45 151.55 14.5 153.75 L14.5 157.1 M3.35 181.2 L3.1 180.75 Q0.05 180.45 -0.65 181.2 L-1.25 182.85 1.0 182.75 Q2.55 182.6 3.75 181.75 L3.35 181.2 M1.35 245.5 L-3.6 245.85 Q-9.65 246.3 -15.55 244.1 -14.85 239.65 -13.85 237.0 -8.3 222.5 12.55 219.2 L12.8 221.15 Q13.25 223.55 13.95 224.55 L11.95 227.3 Q10.95 228.35 10.95 228.85 L11.95 230.4 12.95 231.65 12.1 234.3 Q11.25 236.65 11.25 237.35 L11.75 241.1 11.25 240.05 10.9 236.65 Q10.55 234.65 8.35 233.65 8.95 231.8 8.0 228.55 L8.1 227.65 Q6.65 228.05 5.8 232.8 5.2 236.2 5.2 239.05 5.2 240.2 6.1 242.8 L3.85 243.6 Q0.35 240.0 -4.9 235.15 L-5.25 235.3 0.65 242.6 2.2 244.45 Q1.6 244.9 1.35 245.5 M6.45 247.3 L6.25 248.85 7.4 252.8 7.55 253.05 Q5.5 252.0 5.5 255.15 5.5 254.65 7.65 259.25 9.85 264.0 10.0 264.0 11.3 264.0 11.95 262.8 12.45 261.9 12.45 260.75 12.45 258.65 11.2 256.7 L15.05 256.85 14.85 259.95 Q14.05 263.25 10.4 264.75 L8.6 264.85 9.2 264.3 Q7.4 261.5 4.15 259.05 1.35 256.85 0.85 255.55 L0.4 254.7 1.5 253.65 Q3.7 251.3 4.65 248.95 5.1 249.9 6.9 252.15 L6.55 251.25 5.9 247.3 6.45 247.3 M17.45 254.25 L17.45 254.1 17.2 253.0 Q16.75 252.0 15.5 252.0 L11.7 251.8 9.7 247.15 9.4 247.15 10.95 247.05 11.05 247.05 10.95 248.0 11.0 249.0 Q11.65 250.05 14.5 250.05 L15.45 249.75 Q16.2 249.3 16.2 248.35 16.2 247.3 14.85 246.55 20.8 245.4 24.45 242.2 L24.2 244.25 23.65 243.6 Q23.15 247.7 21.7 250.35 20.25 252.95 17.45 254.25 M23.3 263.2 L23.65 263.2 24.1 262.95 24.1 263.85 23.3 263.2 M20.3 261.8 Q17.2 261.8 16.6 259.05 L16.45 256.8 Q19.15 256.3 21.85 251.95 23.6 249.15 24.2 247.45 L24.1 260.55 23.15 261.05 Q21.5 261.8 20.3 261.8 M14.7 262.6 L16.5 261.0 18.3 262.7 20.65 263.1 20.1 263.55 Q21.6 263.9 22.9 264.7 L24.1 265.55 24.1 265.65 23.4 266.95 20.05 268.85 Q16.55 270.8 13.0 271.8 L11.25 271.95 Q15.0 264.9 15.0 263.85 L14.85 262.9 14.7 262.6 M22.7 301.05 L21.85 301.15 Q19.6 302.7 19.1 303.1 L18.8 302.7 18.6 302.7 16.25 299.5 14.85 297.8 12.6 295.0 11.25 291.55 Q9.35 286.6 9.35 282.65 9.35 279.15 7.05 275.6 L6.4 274.7 8.4 274.55 12.55 274.2 13.2 274.15 12.7 274.2 12.75 274.3 Q13.4 275.3 15.55 275.6 14.45 276.8 14.45 278.1 14.45 279.3 14.95 279.85 15.9 280.85 18.95 281.1 19.2 288.5 22.0 298.65 L22.7 301.05 M7.35 287.55 L4.05 280.35 Q2.0 276.25 0.05 275.65 L0.15 275.05 -0.3 275.6 -0.95 275.6 -1.7 275.6 -2.15 275.05 -2.0 275.65 Q-3.55 276.1 -5.1 278.7 L-11.4 284.05 Q-21.3 292.55 -23.95 294.4 L-24.05 294.25 -24.05 292.0 -21.05 278.85 -20.9 278.15 -20.7 277.25 -19.7 272.55 -17.9 273.2 Q-12.5 275.05 -6.7 275.05 L-2.75 275.05 -1.1 275.0 0.8 275.05 0.6 274.95 4.95 274.8 Q4.7 275.55 4.7 277.15 4.7 279.25 7.35 287.5 L7.35 287.55 M12.15 256.75 L13.0 256.8 13.5 256.8 12.15 256.75 M-9.1 247.0 Q-3.1 247.6 4.6 247.35 L3.6 248.75 1.6 251.75 -0.4 253.55 Q-0.95 252.8 -3.8 251.5 -7.75 249.7 -8.9 247.4 L-9.1 247.0 M6.05 269.85 L5.05 272.25 5.1 272.3 0.85 272.3 0.85 271.9 Q-2.0 265.95 -4.85 261.95 L-3.65 259.8 Q-3.25 260.15 -2.65 261.5 -2.0 262.85 -1.25 263.6 0.7 265.45 5.4 266.05 4.55 266.8 3.85 268.0 L5.2 269.4 Q5.55 269.7 6.05 269.85 M11.95 272.1 L11.8 272.15 10.85 272.25 11.95 272.1 M9.8 297.0 L15.95 304.45 Q16.85 304.85 16.85 305.7 L16.85 306.15 16.05 307.05 1.6 318.85 2.05 318.45 1.55 318.85 1.5 319.0 -0.1 320.3 -0.1 320.25 -0.15 319.55 0.05 317.95 Q-0.35 316.75 -0.2 312.2 L-0.15 307.05 -0.05 301.45 -0.05 290.15 0.0 284.3 Q0.05 280.6 0.4 278.7 L0.95 280.1 1.2 281.6 1.3 281.7 1.4 281.7 1.8 283.05 3.9 287.95 5.15 290.2 5.1 291.15 Q5.1 291.85 5.45 292.5 L5.25 294.15 4.9 294.55 4.5 295.55 4.95 296.85 4.65 299.7 4.4 302.5 3.75 301.25 Q3.1 301.25 2.75 301.75 3.6 302.9 3.95 304.95 L4.1 305.8 2.1 311.75 Q2.1 312.55 4.0 313.8 L4.15 313.65 4.25 315.05 Q5.0 314.85 6.4 313.9 8.0 312.8 8.0 312.25 L7.9 311.45 7.6 311.3 6.05 312.45 4.75 313.55 4.8 312.6 6.6 308.6 7.85 305.4 9.95 306.25 12.75 307.0 12.25 306.5 11.75 306.25 Q8.85 305.3 7.9 305.25 L8.1 304.55 8.1 303.65 8.55 303.8 9.75 303.9 10.7 303.4 11.5 302.4 Q11.4 301.75 10.5 301.4 L9.3 302.15 8.05 303.2 Q7.9 301.35 7.35 299.7 L7.15 299.2 7.4 299.45 9.25 301.25 Q10.2 301.15 10.25 300.75 L8.4 299.2 6.85 298.1 6.85 297.35 6.8 295.65 6.55 295.15 7.1 296.15 Q8.05 297.6 9.0 298.0 L9.8 297.0 M-8.75 -70.9 Q-8.95 -73.15 -9.75 -76.45 L-10.25 -78.3 -10.6 -78.5 Q-8.45 -77.4 -4.85 -77.4 L-4.7 -77.4 Q-7.05 -73.4 -8.75 -70.9 M-5.9 -54.15 Q-7.15 -54.15 -9.25 -52.9 L-7.5 -52.25 Q-7.05 -52.5 -5.75 -53.6 L-5.9 -54.15 M-1.0 5.5 L-1.25 5.1 -3.0 5.3 Q-4.3 5.55 -4.75 6.0 L-4.5 6.35 -4.3 6.85 -3.5 7.0 -1.3 6.6 -1.0 5.5 M-10.15 42.0 L-10.15 41.75 Q-10.15 41.0 -11.95 38.35 -11.1 39.4 -10.05 39.4 -8.9 39.4 -8.25 38.7 -7.75 38.1 -7.75 37.5 L-8.95 33.85 -9.6 33.6 Q-7.7 34.3 -4.85 34.3 L-4.7 34.3 Q-7.7 39.35 -9.6 42.0 L-10.15 42.0 M-2.9 60.9 Q-2.9 60.15 -3.15 60.05 L-3.4 59.9 Q-7.55 60.3 -8.4 62.9 L-8.1 63.3 -7.0 63.4 Q-5.9 63.4 -4.5 62.7 -2.9 61.85 -2.9 60.9 M-11.55 144.2 Q-9.35 145.95 -4.85 145.95 L-4.7 145.95 -7.25 150.2 -9.4 147.25 -10.85 144.7 -11.55 144.2 M-10.4 197.6 L-14.05 196.1 Q-16.3 195.2 -17.15 195.25 -16.75 196.35 -15.9 197.15 -14.45 198.6 -12.3 198.6 -10.8 198.6 -10.4 197.6 M-9.05 176.25 Q-4.25 175.65 -4.25 174.1 -4.25 173.35 -4.35 173.3 L-4.5 173.25 Q-6.35 172.35 -8.45 173.55 -10.1 174.5 -10.8 175.8 L-10.15 176.05 -9.05 176.25 M-9.3 238.85 L-9.2 239.65 Q-8.9 239.75 -8.9 239.8 L-8.4 240.05 -7.0 240.3 Q-6.2 240.3 -5.95 240.0 L-5.65 239.4 -5.9 238.65 Q-6.45 238.05 -7.8 237.9 -9.3 237.8 -9.3 238.85 M-10.65 255.7 Q-8.5 256.85 -4.85 256.85 L-4.7 256.85 -7.85 262.0 -9.15 259.35 Q-10.1 257.5 -10.65 255.7 M-14.3 278.85 Q-14.5 278.15 -14.9 277.75 L-17.3 277.85 -17.35 277.65 -17.4 278.4 -17.25 279.2 -17.15 279.25 -14.3 278.85" fill="#896835" fill-rule="evenodd" stroke="none"/>
      <path d="M10.35 -195.8 L9.95 -195.75 Q8.7 -195.75 6.1 -194.3 L5.9 -195.55 10.35 -195.8 M4.85 -193.6 L4.4 -193.3 4.65 -193.95 4.85 -193.6 M-9.0 -174.35 L-10.75 -176.4 -9.65 -176.35 -9.75 -175.9 -9.0 -174.35 M19.8 -162.45 L19.25 -163.25 19.45 -163.5 19.8 -162.45 M25.85 -146.15 L26.95 -143.5 26.5 -143.4 25.85 -146.15 M2.9 -86.8 L4.6 -86.85 3.6 -85.5 3.25 -84.9 3.25 -85.15 Q3.25 -86.25 2.9 -86.8 M7.75 -61.45 L6.65 -61.4 6.8 -61.9 Q7.35 -62.1 7.85 -62.55 L7.75 -61.45 M-8.8 -65.45 L-10.75 -67.75 -9.85 -67.7 -8.8 -65.5 -8.8 -65.45 M7.75 -67.95 L9.65 -67.9 7.65 -66.6 7.75 -67.65 7.75 -67.95 M17.45 -61.9 L17.9 -62.05 17.95 -61.65 18.35 -61.35 17.45 -61.9 M19.9 20.25 L20.2 19.85 20.25 19.85 20.35 20.1 20.8 20.0 19.9 20.25 M12.0 24.45 L15.2 23.95 Q14.3 25.05 14.25 28.15 L12.0 24.45 M7.65 45.05 L6.8 43.65 8.85 43.8 8.55 44.35 7.65 45.05 M9.15 71.2 L9.6 71.55 11.1 72.6 8.0 72.0 8.1 71.8 9.15 71.2 M13.4 73.6 L16.25 74.05 18.0 73.9 18.35 75.05 16.75 75.7 16.0 76.05 Q15.5 75.0 13.95 73.95 L13.45 73.65 13.4 73.6 M20.0 58.05 L19.9 58.2 19.75 57.8 19.4 57.95 20.0 57.65 20.0 58.05 M19.45 78.95 L19.55 79.35 19.2 79.1 19.45 78.95 M16.2 68.55 L16.45 68.5 16.55 68.85 15.7 68.8 16.2 68.55 M-0.05 151.9 L-1.55 149.8 -3.4 145.8 -2.85 145.65 Q-2.35 147.8 -1.5 149.55 L-0.05 151.9 M6.4 139.45 L6.15 137.8 6.65 139.1 6.4 139.45 M10.0 136.25 L10.95 136.15 11.75 136.1 Q11.6 136.9 11.6 138.05 L11.75 138.85 Q10.55 137.6 10.0 136.25 M-7.1 144.6 L-8.2 144.6 Q-9.5 144.6 -11.4 139.7 -9.3 143.05 -7.1 144.6 M7.55 161.9 L6.75 161.95 6.75 161.9 7.15 161.3 7.55 161.05 7.5 161.6 7.55 161.9 M-9.6 156.85 L-10.75 155.6 -9.45 155.65 -10.1 155.65 -9.6 156.85 M8.0 155.4 L9.65 155.45 7.85 156.55 8.0 155.4 M7.3 272.2 L6.95 272.2 7.3 272.05 7.3 272.2 M-0.2 262.6 L-1.55 260.7 -3.0 257.5 -3.4 256.7 -2.95 256.6 -3.0 257.5 -0.75 261.8 -0.2 262.6 M9.35 266.35 L9.65 266.35 9.4 266.45 9.35 266.35 M-9.45 267.9 L-10.75 266.5 -9.95 266.55 -9.45 267.9 M-20.8 -78.75 L-20.85 -76.2 -20.75 -75.3 Q-21.05 -77.45 -21.45 -78.8 L-20.8 -78.75 M-10.2 -63.0 L-9.8 -62.65 -10.25 -62.7 -10.2 -63.0 M-16.5 46.55 L-16.15 46.35 -16.15 46.9 -16.15 48.05 -17.2 47.85 -16.5 46.55 M-11.4 44.95 L-10.9 47.65 -9.8 49.0 -12.1 48.7 Q-11.65 47.25 -11.4 44.95 M-20.7 32.9 L-20.9 34.55 Q-20.9 36.8 -19.6 39.5 L-20.55 37.7 Q-20.95 34.6 -21.45 32.85 L-20.7 32.9 M-12.4 37.7 L-12.65 37.35 Q-14.95 34.15 -15.1 30.15 L-14.85 29.1 -14.6 28.4 -14.05 32.75 Q-13.4 36.0 -12.4 37.7 M-9.9 31.3 Q-8.7 32.45 -7.2 32.9 L-8.2 32.9 Q-8.95 32.9 -9.9 31.3 M-13.35 155.6 L-11.65 155.6 Q-11.35 156.5 -10.9 159.35 L-9.8 160.7 -13.3 160.2 Q-12.55 159.65 -12.55 158.75 -12.55 158.4 -14.3 157.05 -13.85 156.8 -13.35 155.6 M-16.35 143.7 L-15.6 143.0 -15.05 146.45 Q-13.2 152.75 -9.05 152.75 L-8.9 152.75 -9.6 153.7 -12.0 153.7 -14.0 150.35 Q-16.1 146.6 -16.35 143.7 M-19.75 261.8 L-20.55 260.25 Q-20.95 257.15 -21.45 255.45 L-20.4 255.45 -20.4 255.5 -19.9 261.3 -19.75 261.8 M-15.8 254.15 L-15.6 253.85 -14.6 258.45 -14.3 259.15 Q-15.5 256.8 -15.8 254.15 M-11.5 266.95 L-10.9 270.2 -9.8 271.55 -13.05 271.1 -12.15 269.0 -11.5 266.95" fill="#806a46" fill-rule="evenodd" stroke="none"/>
      <path d="M0.55 -179.5 Q5.55 -181.1 13.65 -186.1 L15.05 -186.05 14.85 -182.9 Q14.05 -179.6 10.4 -178.1 L4.45 -177.9 Q2.3 -177.9 0.55 -179.5 M24.15 -188.3 L24.0 -187.45 24.5 -182.5 23.15 -181.85 Q21.5 -181.1 20.3 -181.1 17.2 -181.1 16.6 -183.8 L16.45 -186.05 Q19.15 -186.6 21.85 -190.95 23.6 -193.75 24.2 -195.45 L24.2 -188.5 24.15 -188.3 M-1.05 -179.05 Q1.8 -176.7 9.65 -176.55 6.6 -175.5 5.05 -170.6 7.45 -169.85 8.95 -172.8 L10.4 -176.65 Q11.75 -177.65 16.5 -181.85 L18.3 -180.15 20.65 -179.8 20.1 -179.3 Q21.6 -179.0 22.9 -178.2 L24.75 -176.9 Q22.9 -175.5 20.05 -174.0 11.8 -169.5 3.35 -170.1 L-2.05 -170.5 -2.55 -173.35 -3.05 -176.4 Q-3.05 -176.8 -1.05 -179.05 M14.1 -168.7 L14.1 -168.75 13.5 -169.3 13.3 -169.5 13.25 -169.6 13.4 -169.6 21.1 -171.85 21.3 -171.9 21.8 -172.15 23.25 -172.9 25.25 -174.1 Q25.75 -169.05 26.9 -164.4 L27.9 -157.05 Q29.25 -152.7 31.1 -149.4 32.4 -147.0 33.95 -145.15 L35.45 -143.05 Q37.95 -139.65 40.3 -138.0 L39.2 -137.15 Q37.75 -136.7 37.05 -135.8 35.8 -133.45 34.1 -132.15 L33.6 -131.75 33.55 -131.75 33.05 -131.45 19.3 -128.0 19.1 -127.95 Q18.85 -128.45 19.0 -129.0 19.0 -130.15 20.0 -131.15 21.0 -132.2 21.0 -133.6 21.0 -134.25 21.85 -135.1 L23.7 -137.4 Q21.75 -138.75 20.35 -140.95 19.0 -143.1 19.0 -144.75 L19.7 -146.25 20.35 -147.75 18.6 -152.6 Q17.4 -155.7 19.25 -157.3 17.7 -160.0 15.25 -160.95 13.35 -161.7 13.35 -162.65 13.35 -163.5 14.15 -164.8 15.1 -166.2 15.35 -168.0 14.7 -168.25 14.1 -168.7 M19.8 -162.45 L19.45 -163.5 19.25 -163.25 19.8 -162.45 M5.05 -168.7 L4.3 -168.15 Q-9.15 -158.25 -9.15 -147.1 L-8.65 -141.4 Q-5.95 -137.5 -2.25 -134.45 1.25 -131.55 7.05 -128.55 L9.55 -127.15 -3.95 -126.65 Q-8.3 -128.9 -10.6 -130.7 -20.55 -138.45 -20.55 -154.8 L-18.5 -164.55 -17.45 -169.9 -17.75 -170.0 -15.25 -169.4 -11.2 -168.9 Q-2.1 -168.3 5.05 -168.7 M25.85 -146.15 L26.5 -143.4 26.95 -143.5 25.85 -146.15 M9.25 -124.45 Q23.35 -124.6 31.7 -127.65 L29.8 -124.0 28.25 -120.05 27.9 -118.95 26.9 -111.6 Q25.2 -104.65 24.85 -96.65 L24.5 -93.3 Q23.15 -92.35 20.4 -91.55 L15.25 -90.4 15.05 -90.35 Q13.6 -91.5 12.5 -95.05 11.7 -97.7 11.35 -100.4 11.35 -102.2 12.7 -103.8 14.65 -106.2 15.35 -107.75 16.7 -110.6 16.55 -112.2 L16.1 -114.65 Q16.1 -116.35 16.65 -118.25 L13.2 -117.75 7.2 -116.6 Q-10.3 -112.4 -14.1 -101.3 -15.05 -98.6 -15.55 -90.1 L-17.45 -90.9 -17.0 -95.0 Q-15.8 -108.05 -14.05 -111.1 -11.95 -114.7 -6.5 -117.9 -2.05 -120.45 5.85 -123.35 L9.25 -124.45 M-28.65 -110.25 L-29.0 -111.6 -29.75 -117.25 -29.3 -115.75 Q-29.0 -114.4 -28.65 -110.25 M-1.2 -72.95 L-1.55 -73.55 -1.8 -74.15 -1.9 -74.35 -2.0 -74.65 -3.05 -76.9 -3.25 -77.55 Q-1.3 -78.05 0.55 -79.65 1.2 -75.8 3.6 -74.5 4.55 -74.0 5.75 -73.85 L8.05 -73.65 9.0 -73.6 Q9.9 -73.4 10.25 -72.65 L10.45 -71.55 Q10.45 -70.65 9.55 -70.05 8.55 -69.4 6.75 -69.4 L3.6 -69.75 Q0.6 -70.55 -1.2 -72.95 M5.85 -83.5 L6.45 -82.7 6.8 -82.25 6.9 -82.1 6.55 -83.0 5.9 -86.9 6.5 -86.9 8.3 -87.0 8.95 -87.05 Q9.3 -83.35 12.15 -82.15 13.8 -81.5 15.45 -81.65 15.45 -80.85 14.55 -80.2 L13.75 -79.75 Q12.3 -79.05 11.0 -79.05 L9.5 -79.3 Q8.7 -79.6 8.0 -80.2 6.95 -81.1 6.15 -82.75 L6.1 -82.85 5.75 -83.55 5.85 -83.5 M-7.5 -78.75 L-8.2 -78.75 Q-9.95 -78.75 -12.9 -87.8 L-9.05 -87.25 -8.3 -85.45 Q-7.0 -82.15 -7.0 -80.5 -7.0 -79.5 -7.5 -78.8 L-7.5 -78.75 M12.75 -62.35 L7.75 -61.45 7.85 -62.55 8.2 -62.95 8.9 -64.0 8.95 -64.15 10.4 -68.0 Q11.75 -69.0 16.5 -73.2 L16.55 -73.15 16.7 -72.05 Q16.7 -71.2 15.15 -69.55 13.6 -67.85 13.45 -65.3 13.35 -63.85 12.75 -62.35 M-2.15 -61.85 L-6.1 -62.25 -8.8 -65.45 -8.8 -65.5 -9.85 -67.7 -8.8 -67.7 -6.6 -69.9 -4.15 -66.0 Q-2.15 -63.15 -2.15 -62.4 L-2.15 -61.85 M17.9 -62.05 Q20.95 -62.95 23.25 -64.25 L24.9 -65.25 Q25.05 -62.15 25.45 -59.2 25.95 -55.0 26.9 -51.15 L27.45 -47.2 27.9 -43.8 Q30.2 -36.35 33.95 -31.9 L35.45 -29.8 Q37.85 -26.55 40.05 -24.9 37.95 -24.45 37.05 -23.35 35.8 -21.0 34.1 -19.7 L33.5 -19.25 32.95 -18.9 27.65 -17.0 27.0 -16.85 26.7 -17.15 22.5 -16.5 Q18.25 -16.5 18.25 -19.1 18.25 -19.85 18.9 -20.55 L19.5 -21.35 14.5 -21.5 Q13.45 -21.8 12.95 -22.5 L12.5 -23.6 17.3 -24.75 Q21.0 -25.5 21.0 -26.85 21.0 -28.35 20.25 -28.95 19.35 -29.7 19.0 -32.0 15.9 -31.85 15.05 -32.95 L14.75 -34.15 Q14.75 -34.95 16.65 -36.1 L18.5 -37.35 18.3 -38.8 18.1 -40.15 Q16.1 -41.45 10.95 -42.9 7.75 -43.8 7.75 -46.0 7.75 -47.85 11.3 -49.0 14.85 -50.1 14.85 -53.1 L14.0 -55.35 Q13.1 -57.25 13.1 -57.8 L13.15 -59.2 Q13.25 -60.3 13.5 -61.0 L13.75 -61.05 17.45 -61.9 18.35 -61.35 17.95 -61.65 17.9 -62.05 M-22.25 -16.15 L-29.15 -18.05 -29.75 -18.3 Q-25.8 -23.55 -22.55 -34.2 -19.3 -44.75 -17.9 -55.65 L-17.85 -59.2 -17.85 -61.35 -15.05 -60.7 -15.1 -59.2 -15.65 -49.35 -15.75 -47.2 Q-16.05 -43.1 -16.6 -39.05 L-17.2 -34.9 Q-17.6 -32.25 -18.15 -29.65 -19.9 -20.9 -22.25 -16.15 M-29.4 -47.95 L-29.0 -51.15 Q-28.0 -55.0 -27.5 -59.2 L-27.25 -61.45 -27.1 -59.2 -27.05 -57.75 Q-27.0 -53.9 -29.4 -47.95 M11.35 -2.15 L11.2 -2.15 10.85 -2.1 10.45 -2.05 4.4 -0.9 3.65 -0.75 3.65 -0.7 3.6 -0.7 -0.15 0.25 Q-9.4 3.15 -10.9 8.35 L-12.7 20.7 -13.0 22.4 -15.45 21.6 -15.9 17.55 Q-16.65 10.65 -16.65 7.8 -16.65 -5.35 3.6 -10.55 L10.4 -12.0 Q20.75 -12.25 27.9 -14.0 L31.65 -14.3 Q29.45 -10.7 27.9 -5.7 L27.7 -4.2 26.9 1.65 Q25.3 8.15 24.9 15.6 L24.1 15.65 24.1 18.65 23.35 19.05 20.8 20.0 20.35 20.1 20.25 19.85 20.2 19.85 19.9 20.25 13.8 21.5 12.75 21.65 12.55 21.7 11.5 21.1 Q9.35 19.8 9.35 19.0 9.35 17.35 10.0 16.75 11.4 15.45 16.0 15.85 L16.75 15.0 Q15.5 14.7 14.8 13.7 14.2 12.9 14.2 12.0 14.2 8.45 18.35 2.85 19.7 1.05 20.6 0.35 L20.05 0.8 20.5 -2.55 20.65 -3.35 19.2 -3.2 11.35 -2.15 M-26.1 -9.4 L-25.3 -8.75 -25.55 -7.85 -26.1 -9.4 M-22.65 4.05 L-22.4 3.8 -21.2 2.25 -20.95 2.5 Q-20.8 2.75 -20.8 3.5 -20.8 4.15 -21.3 6.25 L-21.75 8.55 -22.65 4.05 M13.55 40.05 L13.4 40.2 10.65 42.1 10.6 42.15 10.5 42.2 10.4 42.2 4.45 42.4 3.6 42.35 Q0.65 41.85 -1.55 38.15 L-3.4 34.15 -2.75 34.0 -0.75 33.05 -0.5 32.9 -0.3 32.75 -0.25 33.15 3.6 37.45 4.2 37.9 6.75 38.55 10.2 38.75 11.5 38.75 Q12.9 38.75 13.45 39.85 L13.55 40.05 M6.75 29.45 L6.9 29.6 6.55 28.7 5.9 24.75 10.95 24.5 11.1 24.5 12.0 24.4 12.0 24.45 14.25 28.15 15.45 30.4 15.2 31.5 Q14.45 32.6 12.0 32.6 L10.9 32.5 Q8.55 32.05 6.9 29.65 L6.75 29.45 M-6.05 24.65 Q-4.35 27.5 -2.65 31.0 -2.65 31.65 -3.2 32.25 L-3.25 32.3 -4.1 32.5 -6.9 32.85 -7.2 32.9 Q-8.7 32.45 -9.9 31.3 -11.2 29.1 -12.9 23.9 L-6.05 24.65 M8.85 43.8 L9.65 43.8 9.45 43.9 9.0 44.1 8.55 44.35 8.85 43.8 M13.35 41.25 L14.0 40.7 Q14.5 41.55 14.5 43.5 L11.95 48.45 11.25 49.7 10.3 49.9 7.3 50.25 7.1 50.3 7.15 49.6 Q8.15 49.05 8.95 47.5 L10.4 43.65 10.9 43.3 11.0 43.2 11.1 43.1 13.35 41.25 M3.65 50.3 L3.6 50.3 3.35 50.25 -6.1 49.45 -8.8 46.2 -10.75 43.95 -8.8 44.0 -8.6 43.85 -7.55 42.85 -7.4 42.7 Q-5.9 45.35 -1.65 47.15 L3.6 49.45 3.75 49.5 3.65 50.3 M8.65 51.4 L8.65 51.35 16.7 50.0 Q20.5 49.0 23.25 47.45 L25.1 46.3 Q25.6 51.9 26.85 57.0 L26.9 57.35 27.55 62.0 27.9 64.7 Q30.2 72.2 33.95 76.6 L35.45 78.7 Q37.95 82.1 40.3 83.75 L39.2 84.65 Q37.75 85.05 37.05 85.95 35.8 88.3 34.1 89.6 32.55 90.8 29.55 91.8 L18.3 93.9 18.1 93.9 Q17.2 93.25 17.2 92.1 17.2 91.15 18.05 90.55 18.9 90.0 21.7 89.1 L20.85 84.35 17.2 82.15 13.95 79.8 13.0 78.85 13.0 78.8 13.0 78.7 13.0 78.6 Q13.25 77.25 16.0 76.05 L16.75 75.7 18.35 75.05 18.0 73.9 16.25 74.05 13.4 73.6 Q12.25 73.25 11.1 72.6 L9.6 71.55 9.15 71.2 7.15 69.15 7.1 68.9 Q7.1 68.4 7.4 68.0 L8.25 67.2 8.3 67.2 8.35 67.15 8.45 67.1 Q8.95 66.8 9.7 66.6 L10.05 66.5 15.65 65.1 15.25 63.0 15.1 62.0 14.75 58.55 Q8.15 58.35 6.0 57.0 L5.9 56.95 Q5.0 56.35 5.0 55.05 5.0 53.3 7.75 51.8 L8.65 51.4 M-23.65 92.8 L-29.3 91.2 Q-24.95 87.15 -20.05 67.8 L-17.55 57.0 -16.3 50.7 -16.25 50.6 -14.1 51.1 -13.6 51.15 -13.55 52.3 -13.85 57.0 Q-14.65 66.85 -16.85 76.0 -19.6 87.2 -23.65 92.8 M-33.7 89.3 L-33.8 89.25 -35.75 88.2 Q-30.25 82.7 -26.55 69.0 -24.95 63.05 -23.95 57.0 -23.2 52.5 -22.8 47.95 L-20.65 49.2 -20.85 49.1 Q-21.4 52.7 -22.45 57.0 -24.15 63.6 -27.05 72.0 -30.35 81.55 -33.7 89.3 M-40.9 84.8 L-42.3 83.75 Q-40.0 82.05 -37.55 78.7 L-36.05 76.6 Q-33.95 74.2 -32.35 70.85 L-34.65 76.75 Q-36.7 81.4 -40.9 84.8 M-27.7 50.9 L-27.65 50.4 -27.65 50.5 -27.7 50.9 M20.0 58.05 L20.0 57.65 19.4 57.95 19.75 57.8 19.9 58.2 20.0 58.05 M16.2 68.55 L15.7 68.8 16.55 68.85 16.45 68.5 16.2 68.55 M19.45 78.95 L19.2 79.1 19.55 79.35 19.45 78.95 M-1.0 97.15 L7.8 97.3 Q22.95 97.3 31.7 94.15 29.85 97.1 28.5 101.05 L28.25 101.85 28.0 102.6 27.9 102.85 27.85 103.2 27.5 106.1 26.9 110.2 Q25.2 117.1 24.85 125.1 L24.55 128.0 24.45 128.9 24.1 128.9 24.1 130.3 21.6 131.4 16.1 132.8 Q16.2 127.7 15.95 126.0 L14.45 114.15 Q14.45 113.35 14.75 112.5 L15.45 111.0 11.85 109.05 Q10.95 108.5 10.95 107.55 L11.9 106.4 Q1.65 107.95 -5.75 113.9 -12.6 119.4 -14.5 125.5 -15.05 127.45 -15.45 133.25 L-16.95 132.7 -16.95 132.35 -17.7 126.9 Q-18.45 121.5 -18.45 119.4 -18.45 106.95 -9.7 101.0 -6.2 98.6 -1.0 97.15 M17.45 143.4 Q14.75 144.6 10.85 144.6 8.85 143.4 7.1 140.2 L6.65 139.1 6.15 137.8 6.1 137.75 6.0 137.1 5.95 136.55 5.9 136.45 10.0 136.25 Q10.55 137.6 11.75 138.85 L14.4 140.95 15.65 141.7 Q16.6 142.25 17.5 142.65 L17.45 143.4 M14.45 150.35 Q13.35 152.7 10.4 153.9 L4.45 154.1 Q1.95 154.1 -0.05 151.9 L-1.5 149.55 Q-2.35 147.8 -2.85 145.65 -1.35 145.2 0.15 144.0 L1.15 145.05 Q6.75 151.15 8.75 151.15 L10.9 150.6 Q12.4 150.05 13.0 150.05 L14.45 150.35 M-7.9 136.2 L-5.4 138.55 -0.45 142.7 Q-3.0 144.35 -6.9 144.6 L-7.1 144.6 Q-9.3 143.05 -11.4 139.7 L-12.9 135.55 -7.9 136.2 M15.1 162.05 Q18.75 161.2 21.55 159.95 L23.25 159.1 25.0 158.05 Q25.45 164.7 26.9 170.6 L27.9 177.95 Q30.2 185.45 33.95 189.85 L35.45 191.95 Q37.45 194.65 39.35 196.25 37.8 196.75 37.05 197.6 35.8 200.0 34.1 201.3 L33.95 201.45 33.15 201.95 32.7 202.2 Q28.25 204.5 17.45 205.65 14.8 205.25 14.05 204.05 13.65 203.45 13.75 202.75 L13.95 202.05 Q13.95 200.3 14.3 199.85 L17.75 197.35 Q14.9 196.05 14.3 195.3 13.95 194.9 13.95 193.25 13.95 191.6 14.3 191.15 14.95 190.4 17.95 189.5 17.2 188.15 15.0 186.35 L14.45 185.8 Q13.45 184.75 13.45 183.35 L14.0 182.1 14.35 181.5 Q15.25 180.0 15.25 179.25 L14.35 177.35 Q13.45 175.8 13.45 175.5 L13.55 173.85 Q13.85 173.05 15.45 171.35 L14.0 169.35 Q13.45 168.6 13.45 168.15 L14.85 162.85 15.1 162.05 M-26.95 203.65 Q-30.0 202.7 -32.5 201.6 -26.6 195.25 -22.15 175.4 -20.7 168.8 -19.5 161.35 L-16.3 162.35 Q-16.55 166.3 -17.25 171.05 L-19.4 184.1 Q-20.4 190.95 -24.45 199.2 L-26.95 203.65 M-28.1 166.55 Q-27.15 161.4 -26.95 155.7 L-26.95 156.0 -26.75 160.65 Q-26.9 162.65 -28.1 166.55 M14.05 152.3 L14.25 154.25 Q14.25 155.25 12.0 160.05 L11.4 161.3 8.0 161.85 7.55 161.9 7.5 161.6 7.55 161.05 8.95 159.2 10.4 155.35 14.05 152.3 M-0.65 161.6 L-6.1 161.1 -8.8 157.85 -8.9 157.75 -9.6 156.85 -10.1 155.65 -9.45 155.65 -8.8 155.65 -6.6 153.45 -5.5 155.5 Q-4.8 157.25 -2.65 160.0 -1.75 161.05 -0.65 161.6 M-31.05 203.95 L-31.4 203.85 -30.4 205.6 Q-29.05 207.45 -29.05 208.35 L-29.0 209.75 Q-30.4 206.3 -31.95 203.65 L-31.05 203.95 M-27.75 213.05 L-27.3 213.2 Q-25.55 213.45 -25.55 218.05 -25.55 218.45 -25.85 218.85 L-27.25 214.5 -27.75 213.05 M-19.5 242.4 L-19.6 239.35 Q-20.35 224.7 -19.9 222.65 -19.0 218.45 -8.95 215.6 -2.95 213.9 12.55 211.4 L31.4 207.85 Q30.35 209.7 29.4 211.9 L29.3 212.15 27.9 216.1 27.8 217.1 26.9 223.45 Q25.2 230.25 24.9 238.05 L24.85 238.35 24.55 240.9 Q22.45 242.35 16.8 243.5 L14.2 244.0 12.3 244.3 11.95 242.8 11.95 242.65 11.75 241.1 11.25 237.35 Q11.25 236.65 12.1 234.3 L12.95 231.65 11.95 230.4 10.95 228.85 Q10.95 228.35 11.95 227.3 L13.95 224.55 Q13.25 223.55 12.8 221.15 L12.55 219.2 Q-8.3 222.5 -13.85 237.0 -14.85 239.65 -15.55 244.1 L-19.5 242.4 M6.45 247.3 L7.95 247.25 9.4 247.15 9.7 247.15 11.7 251.8 15.5 252.0 Q16.75 252.0 17.2 253.0 L17.45 254.1 17.45 254.25 17.1 254.4 Q14.7 255.35 11.4 255.45 L10.8 255.45 Q9.7 255.45 8.8 254.85 L8.85 254.95 9.0 255.2 Q8.15 254.3 7.55 253.05 L7.4 252.8 6.25 248.85 6.45 247.3 M14.7 262.6 L14.85 262.9 15.0 263.85 Q15.0 264.9 11.25 271.95 L7.6 272.15 7.4 272.2 7.3 272.2 7.3 272.05 8.8 270.4 8.95 270.05 10.4 266.2 14.7 262.6 M13.2 274.15 L13.6 274.15 19.3 273.2 19.55 273.15 20.35 272.9 21.8 272.5 22.0 272.45 22.25 272.25 24.4 271.3 25.1 270.9 Q27.35 269.55 28.4 268.3 L29.05 269.95 31.85 279.15 Q34.2 287.0 34.8 290.15 L34.8 290.2 34.65 290.55 Q35.05 291.2 35.05 291.75 35.05 292.35 34.2 293.05 L33.35 293.6 33.3 294.0 28.7 297.4 25.6 299.35 Q24.3 300.15 23.15 300.9 L22.7 301.05 22.0 298.65 Q19.2 288.5 18.95 281.1 15.9 280.85 14.95 279.85 14.45 279.3 14.45 278.1 14.45 276.8 15.55 275.6 13.4 275.3 12.75 274.3 L12.7 274.2 13.2 274.15 M-5.1 278.7 L-6.0 280.35 -10.05 289.1 -13.0 293.05 -16.75 297.65 -16.85 297.8 -18.25 299.5 -20.3 302.4 -21.8 301.45 Q-27.65 298.0 -27.65 295.1 -27.65 288.95 -24.75 278.15 L-23.8 274.6 -22.7 271.25 -20.7 272.15 -19.7 272.55 -20.7 277.25 -20.9 278.15 -21.05 278.85 -24.05 292.0 -24.05 294.25 -23.95 294.4 Q-21.3 292.55 -11.4 284.05 L-5.1 278.7 M12.15 256.75 L13.5 256.8 13.0 256.8 12.15 256.75 M8.6 264.85 L8.15 264.85 4.55 264.95 4.45 264.95 Q1.85 264.95 -0.2 262.6 L-0.75 261.8 -3.0 257.5 -2.95 256.6 -2.35 256.4 0.4 254.7 0.85 255.55 Q1.35 256.85 4.15 259.05 7.4 261.5 9.2 264.3 L8.6 264.85 M-9.1 247.0 L-8.9 247.4 Q-7.75 249.7 -3.8 251.5 -0.95 252.8 -0.4 253.55 -3.25 255.4 -7.85 255.45 L-8.0 255.45 -8.2 255.45 Q-9.95 255.45 -12.9 246.45 L-9.1 247.0 M0.85 272.3 L-5.85 272.05 -6.1 272.0 -8.8 268.75 -8.85 268.7 -9.2 268.25 -9.45 267.9 -9.95 266.55 -8.8 266.55 -8.35 266.15 -8.0 265.8 -4.95 262.15 -4.85 261.95 Q-2.0 265.95 0.85 271.9 L0.85 272.3 M37.1 286.6 L36.9 284.35 Q36.0 276.55 32.6 271.0 L36.9 273.5 46.6 278.4 61.35 285.2 61.4 285.2 62.2 285.2 62.85 285.9 68.9 288.6 69.75 288.65 70.35 289.1 72.25 289.65 Q71.1 290.25 69.65 290.25 L70.25 290.35 68.15 290.6 54.55 291.2 39.6 291.95 39.7 291.35 39.2 291.65 Q38.55 291.4 38.25 291.0 L38.0 290.65 37.75 289.1 37.7 289.1 37.1 286.6 M54.7 284.25 L51.35 282.05 Q48.6 280.5 46.8 281.75 L49.4 283.9 Q51.95 285.6 52.8 285.6 54.35 285.6 54.8 285.0 L54.7 284.25 M67.55 289.65 L67.0 289.5 66.95 289.5 67.55 289.65 M-14.15 -171.9 Q-12.0 -173.6 -12.0 -173.75 -12.0 -175.3 -12.15 -176.4 L-11.65 -176.4 -10.9 -172.65 Q-10.5 -171.8 -9.8 -171.3 L-14.15 -171.9 M-25.75 -123.0 L-25.9 -123.3 -21.95 -122.85 -25.45 -122.95 -25.75 -123.0 M-22.45 -105.35 L-22.45 -105.15 Q-22.05 -104.75 -21.45 -104.5 L-22.2 -99.25 -22.2 -98.45 -22.45 -105.35 M-16.15 -79.8 L-16.15 -79.85 -16.0 -79.9 -15.4 -80.75 -14.85 -82.55 -14.05 -84.3 -13.65 -82.5 Q-13.3 -81.15 -12.6 -80.2 L-12.4 -79.9 -11.3 -78.9 -10.6 -78.5 -10.25 -78.3 -9.75 -76.45 Q-8.95 -73.15 -8.75 -70.9 L-9.05 -70.4 -9.35 -69.95 -9.95 -70.45 -10.1 -69.65 -14.35 -69.65 Q-15.35 -71.4 -15.8 -75.05 L-16.15 -79.8 M-14.0 -67.8 L-11.65 -67.75 -10.9 -64.0 -10.2 -63.0 -10.25 -62.7 -14.25 -63.3 -14.2 -63.3 Q-13.15 -64.25 -13.15 -64.55 -13.15 -66.45 -14.0 -67.8 M-29.3 -0.55 Q-28.65 1.25 -28.15 3.1 -27.6 5.05 -26.3 15.4 L-27.0 14.75 Q-27.45 7.8 -29.0 1.65 L-29.3 -0.55 M-16.15 46.35 L-15.6 46.1 Q-14.45 45.6 -14.45 44.25 L-14.45 43.85 -11.65 43.9 -11.6 43.95 -11.5 44.4 -11.4 44.95 Q-11.65 47.25 -12.1 48.7 L-15.5 48.15 -16.15 48.05 -16.15 46.9 -16.15 46.35 M-11.95 38.35 L-12.35 37.75 -12.4 37.7 Q-13.4 36.0 -14.05 32.75 L-14.6 28.4 -14.4 27.95 -14.15 27.55 -14.1 27.5 -14.05 27.4 -13.65 29.15 Q-13.3 30.55 -12.6 31.45 L-11.95 32.2 -9.6 33.6 -8.95 33.85 -7.75 37.5 Q-7.75 38.1 -8.25 38.7 -8.9 39.4 -10.05 39.4 -11.1 39.4 -11.95 38.35 M-32.5 91.75 L-30.7 92.4 -28.9 96.3 Q-25.0 104.75 -23.7 110.25 L-23.7 114.85 Q-25.2 107.4 -26.3 105.75 -29.1 97.8 -32.5 91.75 M-17.35 158.65 L-15.6 157.8 Q-14.45 157.3 -14.45 155.95 L-14.45 155.55 -13.35 155.6 Q-13.85 156.8 -14.3 157.05 -12.55 158.4 -12.55 158.75 -12.55 159.65 -13.3 160.2 L-18.15 159.3 -18.3 159.3 -17.35 158.65 M-15.6 143.0 L-15.55 142.95 -15.4 142.65 -15.4 142.6 -14.85 140.8 Q-14.55 139.65 -14.05 139.05 L-13.65 140.85 Q-13.3 142.2 -12.6 143.1 L-12.5 143.2 -11.55 144.2 -10.85 144.7 -9.4 147.25 -7.25 150.2 -8.9 152.75 -9.05 152.75 Q-13.2 152.75 -15.05 146.45 L-15.6 143.0 M-10.65 255.7 Q-10.1 257.5 -9.15 259.35 L-7.85 262.0 -9.2 264.05 -9.6 264.55 -12.05 264.55 -12.05 264.5 Q-12.05 262.95 -13.8 260.0 L-13.9 259.8 -14.3 259.15 -14.6 258.45 -15.6 253.85 -15.4 253.5 -14.85 251.65 Q-14.55 250.5 -14.05 249.95 L-13.65 251.7 Q-13.3 253.1 -12.6 254.0 -11.85 255.05 -10.65 255.7 M-17.85 269.7 L-17.6 269.7 -15.6 268.65 Q-14.45 268.15 -14.45 266.8 L-14.45 266.4 -11.65 266.45 -11.6 266.55 -11.55 266.75 -11.5 266.95 -12.15 269.0 -13.05 271.1 -18.4 270.15 -17.85 269.7" fill="#755f2e" fill-rule="evenodd" stroke="none"/>
      <path d="M1.45 -195.45 L0.0 -194.9 Q-2.8 -193.75 -5.15 -192.15 -7.5 -190.6 -7.5 -189.85 -7.5 -189.1 -6.8 -187.75 L-6.6 -187.45 -8.2 -187.4 Q-9.95 -187.4 -12.9 -196.45 L1.45 -195.45 M-22.15 -93.3 Q-25.35 -95.2 -26.95 -96.9 L-27.1 -99.4 -28.6 -109.95 -28.65 -110.25 Q-29.0 -114.4 -29.3 -115.75 L-29.75 -117.25 -30.0 -118.95 Q-32.25 -126.4 -36.05 -130.85 L-37.2 -132.5 -35.75 -131.5 -35.35 -131.25 -34.05 -130.65 Q-31.95 -129.7 -28.6 -128.7 L-25.9 -123.3 -25.75 -123.0 -24.05 -119.1 -23.8 -118.5 Q-23.0 -114.8 -22.55 -106.4 L-22.5 -105.85 -22.45 -105.35 -22.2 -98.45 -22.15 -93.75 -22.15 -93.35 -22.15 -93.3 M-37.85 -22.4 L-41.75 -25.15 Q-39.7 -26.8 -37.55 -29.8 L-36.05 -31.9 Q-32.25 -36.35 -30.0 -43.8 L-29.5 -47.2 -29.4 -47.95 Q-27.0 -53.9 -27.05 -57.75 L-27.1 -59.2 -27.25 -61.45 -26.95 -66.05 -26.75 -67.45 -25.6 -66.05 -25.0 -65.45 Q-23.5 -64.0 -21.5 -62.9 L-21.8 -59.2 Q-22.45 -51.85 -23.05 -49.5 -25.45 -40.55 -29.75 -32.6 -33.7 -25.4 -37.85 -22.4 M-29.1 -16.4 Q-27.5 -13.15 -26.1 -9.4 L-25.55 -7.85 -23.9 -2.25 -23.85 -2.1 -22.8 3.35 -22.65 4.05 -21.75 8.55 -21.55 9.4 -21.1 11.9 -21.05 12.0 -21.0 12.4 -19.95 19.6 -20.3 19.4 Q-24.25 17.25 -26.3 15.4 -27.6 5.05 -28.15 3.1 -28.65 1.25 -29.3 -0.55 L-29.3 -0.6 -30.0 -5.7 Q-32.25 -13.15 -36.05 -17.6 L-37.55 -19.7 -38.85 -21.35 Q-37.1 -19.9 -35.75 -19.05 L-35.3 -18.8 Q-33.2 -17.65 -29.1 -16.4 M-35.75 88.2 L-40.75 84.85 -40.9 84.8 Q-36.7 81.4 -34.65 76.75 L-32.35 70.85 Q-31.0 68.1 -30.0 64.7 L-29.0 57.35 -28.9 57.0 -27.8 51.35 -27.7 50.9 -27.65 50.5 -27.65 50.4 -27.05 44.95 -26.6 44.9 -26.65 44.35 -25.6 45.6 -22.8 47.95 Q-23.2 52.5 -23.95 57.0 -24.95 63.05 -26.55 69.0 -30.25 82.7 -35.75 88.2 M-37.85 198.55 L-41.3 196.2 Q-39.45 194.55 -37.55 191.95 L-36.05 189.85 Q-32.25 185.45 -30.0 177.95 L-29.0 170.6 -28.9 170.25 -28.55 168.75 -28.15 166.8 -28.1 166.55 Q-26.9 162.65 -26.75 160.65 L-26.95 156.0 -26.95 155.7 -26.95 155.65 -25.6 157.3 -25.4 157.55 -23.15 159.4 -22.35 159.95 -23.15 163.8 Q-24.95 172.15 -27.3 179.25 -32.05 193.5 -37.85 198.55 M-29.0 209.75 L-27.75 213.05 -27.25 214.5 -25.85 218.85 -25.6 219.65 -22.2 237.65 -22.05 241.0 -26.2 238.05 -27.0 237.3 Q-27.4 229.9 -29.0 223.45 L-30.0 216.1 Q-32.25 208.6 -36.05 204.2 L-37.55 202.1 Q-40.0 198.7 -42.35 197.0 L-41.9 196.7 Q-38.2 200.45 -35.75 201.9 -34.35 202.75 -31.95 203.65 -30.4 206.3 -29.0 209.75 M-36.6 292.65 Q-37.0 292.2 -37.0 291.75 -37.0 291.2 -36.65 290.6 L-36.6 292.65 M-36.65 290.5 L-36.8 290.2 -36.8 290.15 -36.7 289.7 -36.65 290.5 M-29.85 267.55 L-29.1 266.8 -28.1 267.8 -27.25 268.5 -26.95 268.75 -26.4 269.15 -26.85 270.3 -29.3 277.25 -29.85 267.55 M-20.9 -198.6 Q-18.25 -197.5 -14.85 -196.8 L-15.25 -196.7 Q-15.45 -193.75 -16.0 -192.45 -17.5 -189.0 -21.65 -189.0 -24.9 -189.0 -26.15 -194.45 L-26.2 -195.0 -26.2 -200.75 -22.4 -199.1 -20.9 -198.6 M-9.55 -186.7 L-14.4 -179.05 -14.4 -178.3 -16.0 -178.3 Q-19.6 -179.75 -20.55 -182.6 -20.95 -185.7 -21.45 -187.45 L-20.35 -187.4 Q-16.35 -187.4 -15.4 -189.4 L-14.85 -191.2 -14.05 -192.95 -13.65 -191.15 Q-13.3 -189.8 -12.6 -188.85 -11.6 -187.4 -9.55 -186.7 M-17.3 -176.9 L-18.45 -175.3 -18.6 -175.0 -20.0 -173.95 Q-19.8 -173.7 -19.3 -173.5 L-19.45 -173.0 Q-23.9 -174.1 -25.35 -175.5 -26.4 -176.55 -26.6 -178.85 L-26.85 -180.1 -26.05 -187.45 -26.2 -188.3 -26.25 -188.5 -26.25 -189.2 Q-24.65 -187.75 -21.75 -187.45 L-21.95 -187.2 Q-21.4 -186.15 -21.35 -184.5 L-21.3 -181.85 Q-20.95 -178.95 -17.3 -176.9 M-37.65 -134.75 Q-39.85 -136.2 -42.3 -138.0 -40.0 -139.7 -37.55 -143.05 L-36.05 -145.15 Q-34.45 -147.0 -33.15 -149.4 -31.3 -152.7 -30.0 -157.05 L-29.0 -164.4 Q-27.55 -170.15 -27.1 -176.6 L-25.6 -174.7 -24.65 -173.75 -24.45 -173.55 -23.6 -172.85 -23.45 -172.75 -22.0 -171.85 -21.5 -171.55 Q-22.55 -165.85 -24.05 -160.3 -29.35 -140.25 -37.65 -134.75 M-22.25 -80.4 Q-25.0 -80.9 -26.15 -85.8 L-26.2 -86.15 -26.2 -87.85 -26.05 -88.55 -26.2 -89.8 -26.2 -92.9 -26.5 -92.9 -26.55 -93.25 -23.5 -91.2 -21.5 -90.2 -21.65 -86.3 Q-21.65 -85.65 -21.15 -85.15 -20.65 -84.65 -20.65 -84.05 -20.65 -82.95 -21.9 -81.0 L-22.25 -80.4 M-20.1 -64.5 Q-24.0 -65.55 -25.35 -66.85 L-26.2 -68.35 -26.2 -72.95 -26.05 -74.2 -26.2 -74.85 -26.2 -80.5 Q-24.6 -79.05 -21.75 -78.8 L-21.95 -78.55 Q-21.4 -77.5 -21.35 -75.85 L-21.3 -73.2 Q-21.05 -71.35 -19.5 -69.85 -21.3 -67.8 -21.3 -67.05 L-20.85 -65.55 -20.1 -64.5 M-18.6 22.55 L-20.0 26.85 -21.7 31.35 Q-24.9 31.3 -26.15 25.85 L-26.2 25.55 -26.05 24.8 -26.05 24.75 -26.2 23.2 -26.2 19.25 -26.2 18.75 -23.5 20.5 Q-21.35 21.7 -18.6 22.55 M-21.0 46.9 Q-24.2 45.95 -25.35 44.8 -26.4 43.8 -26.6 41.45 L-26.65 41.0 -26.3 31.05 Q-24.75 32.55 -21.75 32.85 L-21.95 33.1 Q-21.4 34.2 -21.35 35.8 L-21.3 38.45 Q-21.05 40.5 -19.2 42.1 -21.05 44.8 -21.05 46.5 L-21.0 46.9 M-32.5 91.75 Q-29.1 97.8 -26.3 105.75 -25.2 107.4 -23.7 114.85 L-22.9 119.1 Q-21.6 126.1 -21.15 130.6 -23.6 129.25 -25.25 128.0 L-26.75 126.65 -26.95 125.1 Q-27.25 117.1 -29.0 110.2 L-30.0 102.85 Q-32.25 95.35 -36.05 90.9 L-37.2 89.25 -35.75 90.25 Q-34.5 91.0 -32.5 91.75 M-19.45 142.7 L-21.65 143.0 Q-24.9 143.0 -26.15 137.55 L-26.2 137.2 -26.2 133.9 -26.05 133.25 -26.2 131.95 -26.2 130.4 -23.5 132.15 -21.6 133.1 -20.8 137.7 -19.45 142.7 M-23.1 157.85 L-25.35 156.5 Q-26.35 155.5 -26.55 153.45 L-26.2 153.4 -26.2 148.8 -26.05 147.55 -26.2 146.9 -26.2 142.85 Q-24.6 144.3 -21.75 144.55 L-21.95 144.8 Q-21.4 145.85 -21.35 147.45 L-21.3 150.1 -20.55 152.2 -23.1 157.85 M-19.85 150.8 L-20.55 149.35 Q-20.95 146.3 -21.45 144.55 L-20.65 144.6 -19.9 150.6 -19.85 150.8 M-19.55 253.65 L-21.65 253.9 Q-24.9 253.9 -26.15 248.45 L-26.25 247.7 -26.25 247.5 -26.2 247.3 -26.05 246.5 -26.65 240.9 -23.5 243.05 -21.45 244.05 -21.05 248.05 Q-20.45 251.6 -19.55 253.65 M-23.75 267.25 L-26.2 264.65 -26.2 263.1 -26.2 261.5 -26.2 253.65 Q-24.65 255.15 -21.75 255.45 L-21.95 255.65 Q-21.4 256.75 -21.35 258.35 L-21.3 260.6 -21.3 261.0 -20.7 262.85 -20.5 263.2 -20.7 263.6 -22.35 265.75 -23.75 267.25" fill="#726c49" fill-rule="evenodd" stroke="none"/>
      <path d="M10.35 -195.8 L10.95 -195.85 Q15.9 -196.2 19.6 -197.7 L20.85 -197.95 20.7 -198.05 23.6 -198.75 Q23.05 -195.0 21.7 -192.5 20.85 -190.9 19.45 -189.8 L18.25 -189.0 Q15.35 -187.4 10.8 -187.4 9.7 -187.4 8.8 -188.0 L9.8 -186.2 13.65 -186.1 Q5.55 -181.1 0.55 -179.5 -0.6 -180.55 -1.55 -182.2 L-3.4 -186.2 Q-0.9 -186.75 1.5 -189.25 3.4 -191.25 4.4 -193.3 L4.85 -193.6 5.05 -193.25 6.4 -191.35 6.6 -191.1 6.7 -191.0 6.85 -190.8 6.9 -190.75 6.55 -191.65 6.1 -194.3 Q8.7 -195.75 9.95 -195.75 L10.35 -195.8 M-1.05 -179.05 Q-3.05 -176.8 -3.05 -176.4 L-2.55 -173.35 -2.05 -170.5 -3.1 -170.6 -6.1 -170.9 -8.8 -174.1 -9.0 -174.35 -9.75 -175.9 -9.65 -176.35 -8.8 -176.35 Q-5.65 -179.05 -3.65 -183.05 L-2.65 -181.4 Q-2.0 -180.0 -1.25 -179.25 L-1.05 -179.05 M1.45 -195.45 L4.6 -195.5 3.6 -194.15 1.6 -191.15 Q-1.1 -187.85 -6.6 -187.45 L-6.8 -187.75 Q-7.5 -189.1 -7.5 -189.85 -7.5 -190.6 -5.15 -192.15 -2.8 -193.75 0.0 -194.9 L1.45 -195.45 M-17.75 -170.0 L-17.45 -169.9 -18.5 -164.55 -20.55 -154.8 Q-20.55 -138.45 -10.6 -130.7 -8.3 -128.9 -3.95 -126.65 L-7.1 -126.65 -15.05 -127.45 Q-24.0 -128.6 -30.1 -130.85 L-31.0 -131.25 -33.55 -132.4 -33.8 -132.5 -33.95 -132.55 -34.3 -132.75 -34.85 -133.05 -37.65 -134.75 Q-29.35 -140.25 -24.05 -160.3 -22.55 -165.85 -21.5 -171.55 L-21.15 -171.35 -21.0 -171.3 -17.9 -170.05 -17.75 -170.0 M4.15 -152.75 L3.25 -152.4 2.25 -152.5 2.2 -152.65 1.95 -153.05 2.85 -154.2 Q3.85 -154.8 5.7 -153.8 L4.15 -152.75 M-17.45 -90.9 Q-18.65 -91.4 -19.85 -92.05 L-20.0 -92.15 -20.3 -92.3 -21.1 -92.7 -22.15 -93.3 -22.15 -93.35 -22.15 -93.75 -22.2 -98.45 -22.2 -99.25 -21.45 -104.5 Q-22.05 -104.75 -22.45 -105.15 L-22.45 -105.35 -22.5 -105.85 -22.55 -106.4 Q-23.0 -114.8 -23.8 -118.5 L-24.05 -119.1 -25.75 -123.0 -25.45 -122.95 -21.95 -122.85 -25.9 -123.3 -28.6 -128.7 Q-24.0 -127.3 -17.0 -125.85 L-12.9 -125.3 -9.1 -125.05 -1.25 -124.65 7.8 -124.45 9.25 -124.45 5.85 -123.35 Q-2.05 -120.45 -6.5 -117.9 -11.95 -114.7 -14.05 -111.1 -15.8 -108.05 -17.0 -95.0 L-17.45 -90.9 M0.0 -104.15 L-1.25 -103.85 Q-2.45 -103.85 -3.0 -104.6 -2.7 -106.55 -0.85 -106.55 0.95 -106.5 0.95 -105.5 0.95 -104.55 0.0 -104.15 M-29.75 -18.3 Q-31.95 -19.1 -33.8 -20.05 L-37.85 -22.4 Q-33.7 -25.4 -29.75 -32.6 -25.45 -40.55 -23.05 -49.5 -22.45 -51.85 -21.8 -59.2 L-21.5 -62.9 -19.8 -62.1 -18.4 -61.55 -17.85 -61.4 -17.85 -61.35 -17.85 -59.2 -17.9 -55.65 Q-19.3 -44.75 -22.55 -34.2 -25.8 -23.55 -29.75 -18.3 M31.65 -14.3 L27.9 -14.0 27.8 -14.0 28.25 -14.1 31.4 -15.1 31.9 -15.25 32.1 -15.35 32.35 -15.45 32.0 -14.9 31.65 -14.3 M10.4 -12.0 L3.6 -10.55 Q-16.65 -5.35 -16.65 7.8 -16.65 10.65 -15.9 17.55 L-15.45 21.6 -19.35 19.9 -19.95 19.6 -21.0 12.4 -21.05 12.0 -21.1 11.9 -21.55 9.4 -21.75 8.55 -21.3 6.25 Q-20.8 4.15 -20.8 3.5 -20.8 2.75 -20.95 2.5 L-21.2 2.25 -22.4 3.8 -22.65 4.05 -22.8 3.35 -23.85 -2.1 -23.9 -2.25 -25.55 -7.85 -25.3 -8.75 -26.1 -9.4 Q-27.5 -13.15 -29.1 -16.4 -24.35 -14.95 -17.0 -13.4 L-12.9 -12.85 -9.1 -12.6 -1.25 -12.15 3.6 -12.05 7.8 -12.0 10.4 -12.0 M-29.3 91.2 L-30.4 90.8 -33.7 89.3 Q-30.35 81.55 -27.05 72.0 -24.15 63.6 -22.45 57.0 -21.4 52.7 -20.85 49.1 L-20.65 49.2 -20.25 49.35 -18.25 50.1 -18.15 50.15 -16.25 50.6 -16.3 50.7 -17.55 57.0 -20.05 67.8 Q-24.95 87.15 -29.3 91.2 M8.45 63.85 L15.15 62.5 15.25 63.0 8.9 64.85 8.45 63.85 M2.95 65.3 L3.85 66.1 -5.75 68.4 -6.0 68.05 2.95 65.3 M-1.0 97.15 Q-6.2 98.6 -9.7 101.0 -18.45 106.95 -18.45 119.4 -18.45 121.5 -17.7 126.9 L-16.95 132.35 -16.95 132.7 -20.3 131.05 -20.55 130.95 -21.15 130.6 Q-21.6 126.1 -22.9 119.1 L-23.7 114.85 -23.7 110.25 Q-25.0 104.75 -28.9 96.3 L-30.7 92.4 Q-25.65 94.1 -17.0 95.9 L-12.9 96.45 -9.1 96.7 -1.25 97.15 -1.0 97.15 M2.25 120.5 Q0.5 120.5 -0.5 119.85 L-0.75 119.5 Q0.85 118.65 3.6 119.0 L3.85 119.75 3.45 120.25 2.25 120.5 M-32.5 201.6 L-33.35 201.2 Q-33.6 201.05 -33.8 200.95 L-37.85 198.55 Q-32.05 193.5 -27.3 179.25 -24.95 172.15 -23.15 163.8 L-22.35 159.95 -21.5 160.45 -21.25 160.55 -20.4 160.95 -19.5 161.35 Q-20.7 168.8 -22.15 175.4 -26.6 195.25 -32.5 201.6 M3.35 181.2 L3.75 181.75 Q2.55 182.6 1.0 182.75 L-1.25 182.85 -0.65 181.2 Q0.05 180.45 3.1 180.75 L3.35 181.2 M-31.05 203.95 Q-26.6 205.5 -19.1 207.15 L-18.15 207.35 -17.55 207.5 -17.0 207.6 -12.9 208.15 -9.1 208.35 -1.25 208.8 7.8 208.95 Q24.25 208.95 33.15 205.2 L32.9 205.55 32.15 206.65 31.45 207.85 31.4 207.85 12.55 211.4 Q-2.95 213.9 -8.95 215.6 -19.0 218.45 -19.9 222.65 -20.35 224.7 -19.6 239.35 L-19.5 242.4 -20.3 241.95 -20.95 241.6 -22.05 241.0 -22.2 237.65 -25.6 219.65 -25.85 218.85 Q-25.55 218.45 -25.55 218.05 -25.55 213.45 -27.3 213.2 L-27.75 213.05 -29.0 209.75 -29.05 208.35 Q-29.05 207.45 -30.4 205.6 L-31.4 203.85 -31.05 203.95 M3.85 243.6 Q3.1 243.85 2.6 244.2 L2.35 244.35 2.3 244.4 2.2 244.45 0.65 242.6 -5.25 235.3 -4.9 235.15 Q0.35 240.0 3.85 243.6 M-20.3 302.4 L-20.5 302.6 -20.6 302.5 -20.85 302.5 -20.75 302.7 -21.1 303.1 -23.85 301.15 -25.15 300.9 -27.6 299.35 -29.6 298.1 -33.75 295.25 -35.3 294.0 -35.3 293.6 -35.45 293.5 -35.55 293.45 -36.45 292.8 -36.6 292.65 -36.65 290.6 -36.65 290.5 -36.7 289.7 Q-36.05 286.45 -33.85 279.15 L-33.55 278.15 -31.05 269.95 -30.15 267.8 -29.85 267.55 -29.3 277.25 -26.85 270.3 -26.4 269.15 -26.95 268.75 -24.15 270.5 -23.9 270.65 -23.0 271.1 -22.85 271.15 -22.7 271.25 -23.8 274.6 -24.75 278.15 Q-27.65 288.95 -27.65 295.1 -27.65 298.0 -21.8 301.45 L-20.3 302.4 M6.85 298.1 L8.4 299.2 10.25 300.75 Q10.2 301.15 9.25 301.25 L7.4 299.45 7.15 299.2 5.75 297.9 6.25 297.75 6.7 298.0 6.85 298.1 M7.9 305.25 Q8.85 305.3 11.75 306.25 L12.25 306.5 12.75 307.0 9.95 306.25 7.85 305.4 7.6 305.25 7.75 305.25 7.9 305.25 M54.7 284.25 L54.8 285.0 Q54.35 285.6 52.8 285.6 51.95 285.6 49.4 283.9 L46.8 281.75 Q48.6 280.5 51.35 282.05 L54.7 284.25 M-9.55 -186.7 L-5.5 -186.05 -4.85 -186.05 -4.7 -186.05 Q-7.7 -180.95 -9.6 -178.3 L-14.4 -178.3 -14.4 -179.05 -9.55 -186.7 M-18.6 -175.0 L-18.45 -175.3 -17.3 -176.9 -16.6 -176.55 -15.9 -176.5 -17.4 -175.7 -18.6 -175.0 M-19.45 -173.0 L-19.3 -173.5 -17.6 -173.15 -15.6 -174.2 Q-14.45 -174.7 -14.45 -176.05 L-14.45 -176.45 -12.15 -176.4 Q-12.0 -175.3 -12.0 -173.75 -12.0 -173.6 -14.15 -171.9 L-17.2 -172.45 -19.2 -172.9 -19.45 -173.0 M-21.5 -90.2 Q-18.65 -88.95 -14.85 -88.15 L-15.25 -88.05 Q-15.45 -85.1 -16.0 -83.8 -17.5 -80.35 -21.65 -80.35 L-22.25 -80.4 -21.9 -81.0 Q-20.65 -82.95 -20.65 -84.05 -20.65 -84.65 -21.15 -85.15 -21.65 -85.65 -21.65 -86.3 L-21.5 -90.2 M-16.15 -79.8 L-15.8 -75.05 Q-15.35 -71.4 -14.35 -69.65 L-16.0 -69.65 Q-19.6 -71.1 -20.55 -73.95 L-20.6 -74.35 -20.75 -75.3 -20.85 -76.2 -20.8 -78.75 -20.55 -78.75 -20.35 -78.75 -19.4 -78.75 -19.0 -78.8 -18.55 -78.85 -18.25 -78.9 -16.15 -79.8 M-10.1 -69.65 L-9.95 -70.45 -9.35 -69.95 -9.6 -69.65 -10.1 -69.65 M-19.5 -69.85 Q-18.55 -68.9 -17.0 -68.1 L-16.9 -68.05 -16.6 -67.9 -15.9 -67.85 -17.4 -67.05 -20.0 -65.3 Q-19.7 -64.85 -18.45 -64.6 L-18.65 -65.15 Q-18.55 -65.35 -18.2 -65.4 L-17.3 -65.15 -17.1 -64.8 -15.6 -65.55 Q-14.45 -66.05 -14.45 -67.4 L-14.45 -67.8 -14.0 -67.8 Q-13.15 -66.45 -13.15 -64.55 -13.15 -64.25 -14.2 -63.3 L-14.25 -63.3 -15.0 -63.4 -18.2 -64.05 -18.3 -64.05 -18.75 -64.15 -19.45 -64.35 -20.1 -64.5 -20.85 -65.55 -21.3 -67.05 Q-21.3 -67.8 -19.5 -69.85 M-16.6 -39.05 Q-10.75 -42.9 -8.9 -41.6 L-17.2 -34.9 -16.6 -39.05 M-5.9 -54.15 L-5.75 -53.6 Q-7.05 -52.5 -7.5 -52.25 L-9.25 -52.9 Q-7.15 -54.15 -5.9 -54.15 M-1.0 5.5 L-1.3 6.6 -3.5 7.0 -4.3 6.85 -4.5 6.35 -4.75 6.0 Q-4.3 5.55 -3.0 5.3 L-1.25 5.1 -1.0 5.5 M-18.6 22.55 L-17.8 22.8 -15.15 23.45 -14.85 23.5 -15.25 23.6 Q-15.45 26.6 -16.0 27.85 -17.5 31.35 -21.65 31.35 L-21.7 31.35 -20.0 26.85 -18.6 22.55 M-21.0 46.9 L-21.05 46.5 Q-21.05 44.8 -19.2 42.1 L-16.6 43.8 -15.9 43.85 -17.4 44.6 -20.0 46.35 Q-19.6 46.95 -17.6 47.15 L-17.35 47.0 Q-17.1 46.8 -16.5 46.55 L-17.2 47.85 -21.0 46.9 M-20.7 32.9 L-20.6 32.9 -20.35 32.9 Q-16.35 32.9 -15.4 30.95 L-15.35 30.85 -15.2 30.4 -15.1 30.15 Q-14.95 34.15 -12.65 37.35 L-12.4 37.7 -12.35 37.75 -11.95 38.35 Q-10.15 41.0 -10.15 41.75 L-10.15 42.0 -16.0 42.0 Q-18.4 41.1 -19.6 39.5 -20.9 36.8 -20.9 34.55 L-20.7 32.9 M-2.9 60.9 Q-2.9 61.85 -4.5 62.7 -5.9 63.4 -7.0 63.4 L-8.1 63.3 -8.4 62.9 Q-7.55 60.3 -3.4 59.9 L-3.15 60.05 Q-2.9 60.15 -2.9 60.9 M-19.45 142.7 L-20.8 137.7 -21.6 133.1 -20.05 133.7 -14.85 135.15 -15.25 135.3 Q-15.45 138.25 -16.0 139.5 L-16.3 140.1 -16.95 141.05 Q-17.95 142.25 -19.45 142.7 M-23.1 157.85 L-20.55 152.2 -20.4 152.4 -19.05 153.9 -16.85 155.35 -16.75 155.4 -16.6 155.45 -15.9 155.5 -17.4 156.3 Q-19.6 157.5 -20.0 158.05 -19.6 158.6 -17.6 158.8 L-17.35 158.65 -18.3 159.3 -23.1 157.85 M-20.65 144.6 L-20.55 144.6 -20.35 144.6 Q-17.65 144.6 -16.35 143.7 -16.1 146.6 -14.0 150.35 L-12.0 153.7 -16.0 153.7 Q-18.65 152.65 -19.85 150.8 L-19.9 150.6 -20.65 144.6 M-9.05 176.25 L-10.15 176.05 -10.8 175.8 Q-10.1 174.5 -8.45 173.55 -6.35 172.35 -4.5 173.25 L-4.35 173.3 Q-4.25 173.35 -4.25 174.1 -4.25 175.65 -9.05 176.25 M-10.4 197.6 Q-10.8 198.6 -12.3 198.6 -14.45 198.6 -15.9 197.15 -16.75 196.35 -17.15 195.25 -16.3 195.2 -14.05 196.1 L-10.4 197.6 M-19.55 253.65 Q-20.45 251.6 -21.05 248.05 L-21.45 244.05 Q-18.6 245.3 -14.85 246.05 L-15.25 246.15 Q-15.45 249.15 -16.0 250.4 -17.1 252.95 -19.55 253.65 M-9.3 238.85 Q-9.3 237.8 -7.8 237.9 -6.45 238.05 -5.9 238.65 L-5.65 239.4 -5.95 240.0 Q-6.2 240.3 -7.0 240.3 L-8.4 240.05 -8.9 239.8 Q-8.9 239.75 -9.2 239.65 L-9.3 238.85 M-72.25 290.35 L-71.35 290.25 -71.0 290.15 -72.15 290.15 -73.75 289.95 Q-73.1 289.3 -72.35 289.15 L-71.75 288.65 -70.9 288.6 -64.85 285.9 -64.2 285.2 -63.4 285.2 -63.35 285.2 -48.6 278.4 -48.05 278.15 Q-39.5 274.05 -34.55 271.0 -36.55 274.2 -37.65 278.15 -38.8 282.0 -39.1 286.6 L-39.65 289.1 -39.75 289.1 -40.0 290.65 -40.2 291.0 -41.15 291.65 -41.7 291.35 -41.6 291.95 -56.5 291.2 -70.1 290.6 -72.25 290.35 M-12.05 264.55 L-16.0 264.55 Q-18.55 263.55 -19.75 261.8 L-19.9 261.3 -20.4 255.5 -20.4 255.45 -20.35 255.45 Q-17.05 255.45 -15.8 254.15 -15.5 256.8 -14.3 259.15 L-13.9 259.8 -13.8 260.0 Q-12.05 262.95 -12.05 264.5 L-12.05 264.55 M-20.5 263.2 L-20.5 263.15 -20.4 263.35 -20.1 263.75 -17.35 265.95 -17.2 266.05 -17.05 266.15 -16.9 266.2 -16.75 266.3 -16.6 266.35 -15.9 266.4 -17.4 267.15 -20.0 268.9 Q-19.65 269.45 -17.85 269.7 L-18.4 270.15 -19.35 269.9 -20.7 269.25 -22.2 268.4 -22.5 268.2 -23.0 267.9 -23.75 267.25 -22.35 265.75 -20.7 263.6 -20.5 263.2 M-1.8 281.45 L-1.65 286.15 -1.55 287.4 -1.6 288.4 -1.45 293.05 -1.45 296.05 -1.55 301.25 -1.55 312.15 -1.55 320.2 -10.65 312.4 -16.8 307.05 -18.55 304.95 Q-18.3 304.6 -17.85 304.4 L-17.05 303.7 -16.75 303.25 -9.2 293.05 -9.0 292.75 -5.6 287.4 -3.8 283.05 -2.4 279.5 -2.4 282.65 -2.2 281.7 -2.05 281.3 -1.95 279.0 -1.85 280.15 -1.8 279.45 Q-1.65 280.05 -1.75 280.85 L-1.8 281.45 M-14.3 278.85 L-17.15 279.25 -17.25 279.2 -17.4 278.4 -17.35 277.65 -17.3 277.85 -14.9 277.75 Q-14.5 278.15 -14.3 278.85 M-2.35 284.95 L-2.4 285.0 -2.45 286.45 -2.35 285.3 -2.35 284.95" fill="#6d5221" fill-rule="evenodd" stroke="none"/>
      <path d="M18.8 -200.35 L20.95 -201.6 24.1 -202.8 24.1 -206.15 27.7 -206.35 27.7 -204.85 28.05 -205.15 28.45 -202.55 28.4 -201.8 27.7 -200.9 27.7 -197.5 Q28.45 -193.2 28.5 -187.65 L28.45 -179.45 28.8 -179.4 28.5 -177.9 28.5 -175.5 Q29.45 -169.5 30.25 -166.0 32.45 -156.7 37.05 -149.4 38.3 -147.35 39.8 -145.45 44.6 -140.6 47.35 -138.1 L47.55 -138.1 47.5 -138.0 47.55 -137.9 47.4 -137.9 39.8 -130.5 Q33.05 -121.95 30.25 -110.0 29.45 -106.5 28.5 -100.45 L28.5 -99.6 28.8 -98.9 28.5 -97.95 28.5 -88.35 Q28.45 -84.55 28.05 -81.35 L28.2 -80.2 28.5 -74.4 28.45 -70.8 28.8 -70.75 28.45 -69.2 28.5 -62.25 29.0 -59.2 Q29.65 -55.3 30.25 -52.75 30.9 -49.9 31.85 -47.2 34.65 -38.75 39.8 -32.2 L47.35 -24.8 47.55 -24.8 47.5 -24.75 47.55 -24.65 47.4 -24.65 39.8 -17.25 Q33.05 -8.7 30.25 3.25 29.5 6.6 28.6 12.3 L28.8 12.8 28.5 13.7 28.5 24.9 28.3 29.5 28.5 34.1 28.45 40.85 28.8 40.9 28.45 42.45 28.5 46.25 Q29.45 52.25 30.25 55.75 L30.55 57.0 32.05 62.0 Q34.9 70.05 39.8 76.3 L47.35 83.7 47.55 83.7 47.5 83.75 47.55 83.85 47.4 83.85 39.8 91.25 Q33.05 99.8 30.25 111.75 29.45 115.3 28.5 121.3 L28.5 123.7 28.8 124.45 28.45 125.45 28.45 128.0 28.5 133.45 Q28.45 137.2 28.05 140.4 28.45 143.6 28.5 147.35 L28.45 152.5 28.8 152.55 28.45 154.15 28.5 159.5 Q29.45 165.5 30.25 169.0 33.05 180.95 39.8 189.55 L47.35 196.95 47.55 196.95 47.5 197.0 47.55 197.1 47.4 197.1 39.8 204.5 Q33.05 213.05 30.25 225.0 29.45 228.55 28.5 234.55 L28.5 234.65 28.8 235.35 28.45 236.35 28.45 238.05 28.5 246.7 28.25 252.55 28.25 252.7 28.4 257.65 Q28.4 259.65 30.4 262.6 L32.15 265.35 32.25 265.45 Q34.15 266.95 36.9 268.65 44.55 273.4 58.9 279.55 L66.1 282.6 Q73.25 286.65 77.7 288.45 78.8 288.7 80.05 289.55 L82.9 291.7 82.5 292.1 80.15 292.1 80.05 292.5 78.9 292.5 78.75 292.6 67.15 293.4 65.5 293.45 50.75 294.4 47.9 294.65 Q42.25 295.2 38.05 296.1 L36.9 296.3 36.2 296.45 32.65 299.4 Q27.1 303.75 24.35 304.1 L19.9 307.05 18.8 307.45 Q16.0 310.8 9.75 315.75 L-0.9 324.3 -0.9 324.45 -1.0 324.4 -1.05 324.45 -1.05 324.3 -11.75 315.75 -16.75 311.55 -20.8 307.45 -21.9 307.05 -26.35 304.1 Q-29.05 303.75 -34.65 299.4 L-38.15 296.45 -40.0 296.1 -49.9 294.65 -52.75 294.4 -69.15 293.4 -80.75 292.6 -80.85 292.5 -82.0 292.5 -82.1 292.2 -83.2 292.05 -83.7 291.5 Q-83.7 290.2 -81.45 289.45 L-80.7 289.2 -80.4 288.7 Q-75.8 286.95 -68.1 282.6 L-60.85 279.55 -57.6 278.15 Q-42.2 271.35 -35.45 266.35 -34.7 265.5 -33.4 264.6 L-30.8 262.55 -30.05 260.6 -29.9 260.05 -29.8 257.35 -29.75 257.1 -29.75 256.55 Q-30.5 252.2 -30.55 246.7 L-30.5 238.05 -30.55 234.55 Q-31.5 228.55 -32.3 225.0 -35.1 213.05 -41.9 204.5 -46.65 199.65 -49.5 197.1 L-49.65 197.1 -49.55 197.0 -49.65 196.95 -49.45 196.95 -41.9 189.55 Q-35.1 180.95 -32.3 169.0 -31.5 165.5 -30.55 159.5 L-30.55 147.35 Q-30.55 143.6 -30.15 140.4 -30.55 137.2 -30.55 133.45 L-30.5 128.0 -30.55 121.3 Q-31.5 115.3 -32.3 111.75 -35.1 99.8 -41.9 91.25 -46.65 86.4 -49.5 83.85 L-49.65 83.85 -49.55 83.75 -49.65 83.7 -49.45 83.7 -41.9 76.3 Q-35.45 68.15 -32.6 57.0 L-32.3 55.75 Q-31.5 52.25 -30.55 46.25 L-30.55 34.1 -30.4 29.5 -30.55 24.9 -30.55 12.8 Q-31.5 6.75 -32.3 3.25 -35.1 -8.7 -41.9 -17.25 -46.65 -22.15 -49.5 -24.65 L-49.65 -24.65 -49.55 -24.75 -49.65 -24.8 -49.45 -24.8 -41.9 -32.2 Q-36.75 -38.75 -33.85 -47.2 -32.95 -49.9 -32.3 -52.75 -31.7 -55.3 -31.05 -59.2 L-30.55 -62.25 -30.55 -74.4 Q-30.55 -78.15 -30.15 -81.35 -30.55 -84.55 -30.55 -88.35 L-30.55 -100.45 Q-31.5 -106.5 -32.3 -110.0 -35.1 -121.95 -41.9 -130.5 -46.65 -135.4 -49.5 -137.9 L-49.65 -137.9 -49.55 -138.0 -49.65 -138.1 -49.45 -138.1 Q-46.65 -140.6 -41.9 -145.45 L-39.1 -149.4 Q-34.5 -156.7 -32.3 -166.0 -31.5 -169.5 -30.55 -175.5 L-30.55 -187.65 Q-30.5 -193.2 -29.75 -197.5 L-29.75 -202.5 -29.75 -203.15 -29.75 -203.6 -29.75 -206.35 -29.05 -206.3 -29.05 -206.35 -28.2 -206.55 -27.9 -206.25 -26.2 -206.15 -26.2 -204.8 Q-24.3 -203.1 -20.75 -201.2 -13.25 -198.55 -4.85 -198.55 L12.95 -199.7 18.8 -200.35 M24.0 -198.9 L24.15 -198.75 24.15 -198.95 24.0 -198.9 M13.65 -186.1 L9.8 -186.2 8.8 -188.0 Q9.7 -187.4 10.8 -187.4 15.35 -187.4 18.25 -189.0 L19.45 -189.8 Q20.85 -190.9 21.7 -192.5 23.05 -195.0 23.6 -198.75 L20.7 -198.05 20.85 -197.95 19.6 -197.7 Q15.9 -196.2 10.95 -195.85 L10.35 -195.8 5.9 -195.55 6.1 -194.3 6.55 -191.65 6.9 -190.75 6.85 -190.8 6.7 -191.0 6.6 -191.1 6.4 -191.35 5.05 -193.25 4.85 -193.6 4.65 -193.95 4.4 -193.3 Q3.4 -191.25 1.5 -189.25 -0.9 -186.75 -3.4 -186.2 L-1.55 -182.2 Q-0.6 -180.55 0.55 -179.5 2.3 -177.9 4.45 -177.9 L10.4 -178.1 Q14.05 -179.6 14.85 -182.9 L15.05 -186.05 13.65 -186.1 M24.15 -188.3 L24.2 -188.5 24.2 -195.45 Q23.6 -193.75 21.85 -190.95 19.15 -186.6 16.45 -186.05 L16.6 -183.8 Q17.2 -181.1 20.3 -181.1 21.5 -181.1 23.15 -181.85 L24.5 -182.5 24.0 -187.45 24.15 -188.3 M23.65 -179.7 L23.3 -179.7 24.9 -178.1 24.85 -179.3 24.7 -180.55 23.65 -179.7 M-2.05 -170.5 L3.35 -170.1 Q11.8 -169.5 20.05 -174.0 22.9 -175.5 24.75 -176.9 L22.9 -178.2 Q21.6 -179.0 20.1 -179.3 L20.65 -179.8 18.3 -180.15 16.5 -181.85 Q11.75 -177.65 10.4 -176.65 L8.95 -172.8 Q7.45 -169.85 5.05 -170.6 6.6 -175.5 9.65 -176.55 1.8 -176.7 -1.05 -179.05 L-1.25 -179.25 Q-2.0 -180.0 -2.65 -181.4 L-3.65 -183.05 Q-5.65 -179.05 -8.8 -176.35 L-9.65 -176.35 -10.75 -176.4 -9.0 -174.35 -8.8 -174.1 -6.1 -170.9 -3.1 -170.6 -2.05 -170.5 M-6.6 -187.45 Q-1.1 -187.85 1.6 -191.15 L3.6 -194.15 4.6 -195.5 1.45 -195.45 -12.9 -196.45 Q-9.95 -187.4 -8.2 -187.4 L-6.6 -187.45 M19.1 -127.95 L19.3 -128.0 33.05 -131.45 33.55 -131.75 33.6 -131.75 34.1 -132.15 Q35.8 -133.45 37.05 -135.8 37.75 -136.7 39.2 -137.15 L40.3 -138.0 Q37.95 -139.65 35.45 -143.05 L33.95 -145.15 Q32.4 -147.0 31.1 -149.4 29.25 -152.7 27.9 -157.05 L26.9 -164.4 Q25.75 -169.05 25.25 -174.1 L23.25 -172.9 21.8 -172.15 21.3 -171.9 21.1 -171.85 13.4 -169.6 13.25 -169.6 8.4 -168.95 5.05 -168.7 Q-2.1 -168.3 -11.2 -168.9 L-15.25 -169.4 -17.75 -170.0 -17.9 -170.05 -21.0 -171.3 -21.15 -171.35 -21.5 -171.55 -22.0 -171.85 -23.45 -172.75 -23.6 -172.85 -24.45 -173.55 -24.65 -173.75 -25.6 -174.7 -27.1 -176.6 Q-27.55 -170.15 -29.0 -164.4 L-30.0 -157.05 Q-31.3 -152.7 -33.15 -149.4 -34.45 -147.0 -36.05 -145.15 L-37.55 -143.05 Q-40.0 -139.7 -42.3 -138.0 -39.85 -136.2 -37.65 -134.75 L-34.85 -133.05 -34.3 -132.75 -33.95 -132.55 -33.8 -132.5 -33.55 -132.4 -31.0 -131.25 -30.1 -130.85 Q-24.0 -128.6 -15.05 -127.45 L-7.1 -126.65 -3.95 -126.65 9.55 -127.15 14.0 -127.45 14.7 -127.5 17.6 -127.8 18.25 -127.85 19.1 -127.95 M15.05 -90.35 L15.25 -90.4 20.4 -91.55 Q23.15 -92.35 24.5 -93.3 L24.85 -96.65 Q25.2 -104.65 26.9 -111.6 L27.9 -118.95 28.25 -120.05 29.8 -124.0 31.7 -127.65 Q23.35 -124.6 9.25 -124.45 L7.8 -124.45 -1.25 -124.65 -9.1 -125.05 -12.9 -125.3 -17.0 -125.85 Q-24.0 -127.3 -28.6 -128.7 -31.95 -129.7 -34.05 -130.65 L-35.35 -131.25 -35.75 -131.5 -37.2 -132.5 -36.05 -130.85 Q-32.25 -126.4 -30.0 -118.95 L-29.75 -117.25 -29.0 -111.6 -28.65 -110.25 -28.6 -109.95 -27.1 -99.4 -26.95 -96.9 Q-25.35 -95.2 -22.15 -93.3 L-21.1 -92.7 -20.3 -92.3 -20.0 -92.15 -19.85 -92.05 Q-18.65 -91.4 -17.45 -90.9 L-15.55 -90.1 Q-9.65 -87.95 -3.6 -88.35 L5.2 -89.05 12.55 -89.95 15.05 -90.35 M10.1 -78.8 L10.8 -78.75 Q15.1 -78.75 17.95 -80.2 20.4 -81.45 21.7 -83.85 23.15 -86.5 23.65 -90.6 L24.1 -90.15 24.1 -91.8 Q21.05 -89.2 16.45 -88.0 L14.75 -87.65 11.2 -87.2 10.95 -87.2 8.95 -87.05 8.3 -87.0 6.5 -86.9 5.9 -86.9 6.55 -83.0 6.9 -82.1 6.8 -82.25 6.45 -82.7 5.85 -83.5 4.65 -85.3 Q3.7 -82.9 1.5 -80.6 -0.9 -78.1 -3.4 -77.55 L-3.05 -76.9 -2.0 -74.65 -1.9 -74.35 -1.8 -74.15 -1.55 -73.55 -1.2 -72.95 Q0.9 -69.75 3.6 -69.3 L4.45 -69.25 10.4 -69.45 Q14.05 -70.95 14.85 -74.25 L15.05 -77.4 10.9 -77.5 9.8 -77.55 8.8 -79.35 10.1 -78.8 M24.1 -74.85 L24.1 -86.6 21.85 -82.3 20.4 -80.2 Q18.4 -77.8 16.45 -77.4 L16.6 -75.15 Q17.2 -72.45 20.3 -72.45 21.5 -72.45 23.15 -73.2 L24.05 -73.65 24.0 -74.2 24.1 -74.85 M3.25 -84.9 L3.6 -85.5 4.6 -86.85 2.9 -86.8 2.75 -86.8 0.3 -86.8 -0.2 -86.8 -9.05 -87.25 -12.9 -87.8 Q-9.95 -78.75 -8.2 -78.75 L-7.5 -78.75 Q-1.3 -78.95 1.6 -82.5 L1.75 -82.7 1.8 -82.7 2.2 -83.3 3.25 -84.9 M12.75 -62.35 Q16.4 -63.35 20.05 -65.35 22.8 -66.8 24.65 -68.15 L24.6 -68.3 24.1 -68.35 24.1 -68.7 22.9 -69.55 Q21.6 -70.35 20.1 -70.65 L20.65 -71.15 18.3 -71.5 16.55 -73.15 16.5 -73.2 Q11.75 -69.0 10.4 -68.0 L8.95 -64.15 8.9 -64.0 8.2 -62.95 7.85 -62.55 Q7.35 -62.1 6.8 -61.9 L5.05 -61.95 Q6.05 -65.05 7.65 -66.6 L9.65 -67.9 7.75 -67.95 3.6 -68.45 3.05 -68.6 Q0.2 -69.3 -1.25 -70.6 -2.0 -71.35 -2.65 -72.75 L-3.65 -74.4 Q-4.9 -71.9 -6.6 -69.9 L-8.8 -67.7 -9.85 -67.7 -10.75 -67.75 -8.8 -65.45 -6.1 -62.25 -2.15 -61.85 3.35 -61.45 3.55 -61.45 3.6 -61.45 4.0 -61.4 5.45 -61.35 6.65 -61.4 7.75 -61.45 12.75 -62.35 M17.9 -62.05 L17.45 -61.9 13.75 -61.05 13.5 -61.0 9.4 -60.4 6.55 -60.1 4.0 -59.95 3.6 -59.9 Q-3.0 -59.7 -11.2 -60.25 L-15.05 -60.7 -17.85 -61.35 -17.85 -61.4 -18.4 -61.55 -19.8 -62.1 -21.5 -62.9 Q-23.5 -64.0 -25.0 -65.45 L-25.6 -66.05 -26.75 -67.45 -26.95 -66.05 -27.25 -61.45 -27.5 -59.2 Q-28.0 -55.0 -29.0 -51.15 L-29.4 -47.95 -29.5 -47.2 -30.0 -43.8 Q-32.25 -36.35 -36.05 -31.9 L-37.55 -29.8 Q-39.7 -26.8 -41.75 -25.15 L-37.85 -22.4 -33.8 -20.05 Q-31.95 -19.1 -29.75 -18.3 L-29.15 -18.05 -22.25 -16.15 -15.05 -14.95 -7.1 -14.2 0.4 -14.3 1.5 -14.3 7.25 -14.55 Q20.55 -15.2 27.65 -17.0 L32.95 -18.9 33.5 -19.25 34.1 -19.7 Q35.8 -21.0 37.05 -23.35 37.95 -24.45 40.05 -24.9 37.85 -26.55 35.45 -29.8 L33.95 -31.9 Q30.2 -36.35 27.9 -43.8 L27.45 -47.2 26.9 -51.15 Q25.95 -55.0 25.45 -59.2 25.05 -62.15 24.9 -65.25 L23.25 -64.25 Q20.95 -62.95 17.9 -62.05 M23.3 -71.05 L24.1 -70.4 24.1 -71.3 23.65 -71.05 23.3 -71.05 M12.55 21.7 L12.75 21.65 13.8 21.5 19.9 20.25 20.8 20.0 23.35 19.05 24.1 18.65 24.1 15.65 24.9 15.6 Q25.3 8.15 26.9 1.65 L27.7 -4.2 27.9 -5.7 Q29.45 -10.7 31.65 -14.3 L32.0 -14.9 32.35 -15.45 32.1 -15.35 31.9 -15.25 31.4 -15.1 28.25 -14.1 27.8 -14.0 27.9 -14.0 Q20.75 -12.25 10.4 -12.0 L7.8 -12.0 3.6 -12.05 -1.25 -12.15 -9.1 -12.6 -12.9 -12.85 -17.0 -13.4 Q-24.35 -14.95 -29.1 -16.4 -33.2 -17.65 -35.3 -18.8 L-35.75 -19.05 Q-37.1 -19.9 -38.85 -21.35 L-37.55 -19.7 -36.05 -17.6 Q-32.25 -13.15 -30.0 -5.7 L-29.3 -0.6 -29.3 -0.55 -29.0 1.65 Q-27.45 7.8 -27.0 14.75 L-26.3 15.4 Q-24.25 17.25 -20.3 19.4 L-19.95 19.6 -19.35 19.9 -15.45 21.6 -13.0 22.4 Q-8.35 23.65 -3.6 23.3 L3.6 22.75 12.55 21.7 M10.85 32.9 Q18.9 32.9 21.7 27.8 23.15 25.15 23.65 21.05 L24.1 21.55 24.1 19.9 Q21.3 22.3 17.1 23.5 L15.2 23.95 12.0 24.45 12.0 24.4 11.1 24.5 10.95 24.5 5.9 24.75 6.55 28.7 6.9 29.6 6.75 29.45 4.65 26.4 3.6 28.45 1.5 31.1 -0.3 32.75 -0.5 32.9 -0.75 33.05 -2.75 34.0 -3.4 34.15 -1.55 38.15 Q0.65 41.85 3.6 42.35 L4.45 42.4 10.4 42.2 10.5 42.2 10.6 42.15 10.65 42.1 13.4 40.2 13.55 40.05 Q14.5 38.9 14.85 37.4 L15.05 34.3 10.65 34.15 9.8 34.1 8.8 32.3 Q9.7 32.9 10.8 32.9 L10.85 32.9 M16.6 36.5 Q17.2 39.25 20.3 39.25 21.5 39.25 23.15 38.5 L24.55 37.8 24.25 30.8 24.15 28.85 24.15 25.55 24.1 25.15 21.85 29.4 Q19.15 33.75 16.45 34.25 L16.6 36.5 M3.8 25.9 L4.6 24.8 3.6 24.85 -6.05 24.65 -12.9 23.9 Q-11.2 29.1 -9.9 31.3 -8.95 32.9 -8.2 32.9 L-7.2 32.9 -6.9 32.85 -4.1 32.5 -3.25 32.3 -3.2 32.25 Q-0.4 31.45 1.35 29.5 L1.4 29.5 1.6 29.2 3.6 26.2 3.8 25.95 3.8 25.9 M6.8 43.65 L3.6 43.2 3.15 43.1 Q0.2 42.4 -1.25 41.05 -2.0 40.3 -2.65 38.9 -3.25 37.6 -3.65 37.25 -5.2 40.35 -7.4 42.7 L-7.55 42.85 -8.6 43.85 -8.8 44.0 -10.75 43.95 -8.8 46.2 -6.1 49.45 3.35 50.25 3.6 50.3 3.65 50.3 7.1 50.3 7.3 50.25 10.3 49.9 11.25 49.7 Q15.65 48.7 20.05 46.3 L24.65 43.55 24.65 43.45 24.65 43.4 22.9 42.15 Q21.6 41.35 20.1 41.0 L20.65 40.55 18.3 40.15 16.5 38.45 13.35 41.25 11.1 43.1 11.0 43.2 10.9 43.3 10.4 43.65 8.95 47.5 Q8.15 49.05 7.15 49.6 L6.6 49.8 5.05 49.7 5.15 49.4 5.25 49.15 6.95 45.85 7.65 45.05 8.55 44.35 9.0 44.1 9.45 43.9 9.65 43.8 8.85 43.8 6.8 43.65 M23.3 40.6 L24.65 41.85 24.6 39.9 23.65 40.6 23.3 40.6 M18.1 93.9 L18.3 93.9 29.55 91.8 Q32.55 90.8 34.1 89.6 35.8 88.3 37.05 85.95 37.75 85.05 39.2 84.65 L40.3 83.75 Q37.95 82.1 35.45 78.7 L33.95 76.6 Q30.2 72.2 27.9 64.7 L27.55 62.0 26.9 57.35 26.85 57.0 Q25.6 51.9 25.1 46.3 L23.25 47.45 Q20.5 49.0 16.7 50.0 L8.65 51.35 8.65 51.4 3.6 51.75 Q-3.0 51.95 -11.2 51.4 L-13.6 51.15 -14.1 51.1 -16.25 50.6 -18.15 50.15 -18.25 50.1 -20.25 49.35 -20.65 49.2 -22.8 47.95 -25.6 45.6 -26.65 44.35 -26.6 44.9 -27.05 44.95 -27.65 50.4 -27.7 50.9 -27.8 51.35 -28.9 57.0 -29.0 57.35 -30.0 64.7 Q-31.0 68.1 -32.35 70.85 -33.95 74.2 -36.05 76.6 L-37.55 78.7 Q-40.0 82.05 -42.3 83.75 L-40.9 84.8 -40.75 84.85 -35.75 88.2 -33.8 89.25 -33.7 89.3 -30.4 90.8 -29.3 91.2 -23.65 92.8 -15.05 94.3 -7.1 95.1 Q2.15 95.05 9.45 94.65 L12.2 94.45 18.1 93.9 M16.1 132.8 L21.6 131.4 24.1 130.3 24.1 128.9 24.45 128.9 24.55 128.0 24.85 125.1 Q25.2 117.1 26.9 110.2 L27.5 106.1 27.85 103.2 27.9 102.85 28.0 102.6 28.25 101.85 28.5 101.05 Q29.85 97.1 31.7 94.15 22.95 97.3 7.8 97.3 L-1.0 97.15 -1.25 97.15 -9.1 96.7 -12.9 96.45 -17.0 95.9 Q-25.65 94.1 -30.7 92.4 L-32.5 91.75 Q-34.5 91.0 -35.75 90.25 L-37.2 89.25 -36.05 90.9 Q-32.25 95.35 -30.0 102.85 L-29.0 110.2 Q-27.25 117.1 -26.95 125.1 L-26.75 126.65 -25.25 128.0 Q-23.6 129.25 -21.15 130.6 L-20.55 130.95 -20.3 131.05 -16.95 132.7 -15.45 133.25 Q-9.6 135.4 -3.6 135.0 L5.45 134.25 12.25 133.45 16.1 132.8 M15.05 135.65 L13.95 135.85 12.0 136.1 11.75 136.1 10.95 136.15 10.0 136.25 5.9 136.45 5.95 136.55 6.0 137.1 6.1 137.75 6.15 137.8 6.4 139.45 6.55 140.35 6.9 141.25 6.5 140.75 6.15 140.3 4.65 138.05 Q3.7 140.45 1.5 142.75 L0.15 144.0 Q-1.35 145.2 -2.85 145.65 L-3.4 145.8 -1.55 149.8 -0.05 151.9 Q1.95 154.1 4.45 154.1 L10.4 153.9 Q13.35 152.7 14.45 150.35 L14.85 149.1 15.05 145.95 11.65 145.85 9.8 145.75 8.8 144.0 Q9.7 144.6 10.8 144.6 L10.85 144.6 Q14.75 144.6 17.45 143.4 20.25 142.1 21.7 139.5 23.15 136.85 23.65 132.7 L24.05 133.1 24.1 131.95 24.1 131.55 Q20.6 134.55 15.05 135.65 M-0.45 142.7 L1.6 140.85 3.6 137.85 4.6 136.5 Q-2.35 136.7 -7.9 136.2 L-12.9 135.55 -11.4 139.7 Q-9.5 144.6 -8.2 144.6 L-7.1 144.6 -6.9 144.6 Q-3.0 144.35 -0.45 142.7 M16.45 145.95 L16.6 148.2 Q17.2 150.9 20.3 150.9 21.5 150.9 23.15 150.15 L24.1 149.7 24.1 148.8 24.0 147.55 24.1 146.9 24.1 136.75 21.85 141.05 Q19.15 145.4 16.45 145.95 M24.1 152.95 L24.1 152.05 23.65 152.3 23.3 152.3 24.1 152.95 M17.45 205.65 Q28.25 204.5 32.7 202.2 L33.15 201.95 33.95 201.45 34.1 201.3 Q35.8 200.0 37.05 197.6 37.8 196.75 39.35 196.25 37.45 194.65 35.45 191.95 L33.95 189.85 Q30.2 185.45 27.9 177.95 L26.9 170.6 Q25.45 164.7 25.0 158.05 L23.25 159.1 21.55 159.95 Q18.75 161.2 15.1 162.05 5.15 164.2 -11.2 163.1 L-16.3 162.35 -19.5 161.35 -20.4 160.95 -21.25 160.55 -21.5 160.45 -22.35 159.95 -23.15 159.4 -25.4 157.55 -25.6 157.3 -26.95 155.65 -26.95 155.7 Q-27.15 161.4 -28.1 166.55 L-28.15 166.8 -28.55 168.75 -28.9 170.25 -29.0 170.6 -30.0 177.95 Q-32.25 185.45 -36.05 189.85 L-37.55 191.95 Q-39.45 194.55 -41.3 196.2 L-37.85 198.55 -33.8 200.95 Q-33.6 201.05 -33.35 201.2 L-32.5 201.6 Q-30.0 202.7 -26.95 203.65 -21.8 205.15 -15.05 206.0 L-7.1 206.8 5.8 206.5 6.75 206.45 9.45 206.3 10.95 206.2 17.45 205.65 M11.4 161.3 Q15.75 160.35 20.05 158.0 L24.75 155.1 22.9 153.8 Q21.6 153.0 20.1 152.7 L20.65 152.2 18.3 151.8 16.5 150.1 14.05 152.3 10.4 155.35 8.95 159.2 7.55 161.05 7.15 161.3 7.15 161.25 6.4 161.55 5.85 161.55 5.4 161.5 5.05 161.4 Q6.1 158.1 7.85 156.55 L9.65 155.45 8.0 155.4 7.35 155.35 3.75 154.9 Q0.35 154.25 -1.25 152.75 -2.0 152.0 -2.65 150.6 -3.25 149.3 -3.65 148.95 -4.9 151.45 -6.6 153.45 L-8.8 155.65 -9.45 155.65 -10.75 155.6 -9.6 156.85 -8.9 157.75 -8.8 157.85 -6.1 161.1 -0.65 161.6 3.35 161.9 3.8 161.95 6.75 161.95 7.55 161.9 8.0 161.85 11.4 161.3 M31.4 207.85 L31.45 207.85 32.15 206.65 32.9 205.55 33.15 205.2 Q24.25 208.95 7.8 208.95 L-1.25 208.8 -9.1 208.35 -12.9 208.15 -17.0 207.6 -17.55 207.5 -18.15 207.35 -19.1 207.15 Q-26.6 205.5 -31.05 203.95 L-31.95 203.65 Q-34.35 202.75 -35.75 201.9 -38.2 200.45 -41.9 196.7 L-42.35 197.0 Q-40.0 198.7 -37.55 202.1 L-36.05 204.2 Q-32.25 208.6 -30.0 216.1 L-29.0 223.45 Q-27.4 229.9 -27.0 237.3 L-26.2 238.05 -22.05 241.0 -20.95 241.6 -20.3 241.95 -19.5 242.4 -15.55 244.1 Q-9.65 246.3 -3.6 245.85 L1.35 245.5 12.3 244.3 14.2 244.0 16.8 243.5 Q22.45 242.35 24.55 240.9 L24.85 238.35 24.9 238.05 Q25.2 230.25 26.9 223.45 L27.8 217.1 27.9 216.1 29.3 212.15 29.4 211.9 Q30.35 209.7 31.4 207.85 M9.4 247.15 L7.95 247.25 6.45 247.3 5.9 247.3 6.55 251.25 6.9 252.15 Q5.1 249.9 4.65 248.95 3.7 251.3 1.5 253.65 L0.4 254.7 -2.35 256.4 -2.95 256.6 -3.4 256.7 -3.0 257.5 -1.55 260.7 -0.2 262.6 Q1.85 264.95 4.45 264.95 L4.55 264.95 8.15 264.85 8.6 264.85 10.4 264.75 Q14.05 263.25 14.85 259.95 L15.05 256.85 11.2 256.7 9.8 256.65 9.0 255.2 8.85 254.95 8.8 254.85 Q9.7 255.45 10.8 255.45 L11.4 255.45 Q14.7 255.35 17.1 254.4 L17.45 254.25 Q20.25 252.95 21.7 250.35 23.15 247.7 23.65 243.6 L24.2 244.25 24.45 242.2 Q20.8 245.4 14.85 246.55 L14.6 246.6 11.5 247.0 11.05 247.05 10.95 247.05 9.4 247.15 M20.3 261.8 Q21.5 261.8 23.15 261.05 L24.1 260.55 24.2 247.45 Q23.6 249.15 21.85 251.95 19.15 256.3 16.45 256.8 L16.6 259.05 Q17.2 261.8 20.3 261.8 M23.3 263.2 L24.1 263.85 24.1 262.95 23.65 263.2 23.3 263.2 M11.25 271.95 L13.0 271.8 Q16.55 270.8 20.05 268.85 L23.4 266.95 24.1 265.65 24.1 265.55 22.9 264.7 Q21.6 263.9 20.1 263.55 L20.65 263.1 18.3 262.7 16.5 261.0 14.7 262.6 10.4 266.2 8.95 270.05 8.8 270.4 7.3 272.05 6.95 272.2 7.3 272.2 7.4 272.2 7.6 272.15 11.25 271.95 M22.7 301.05 L23.15 300.9 Q24.3 300.15 25.6 299.35 L28.7 297.4 33.3 294.0 33.35 293.6 34.2 293.05 Q35.05 292.35 35.05 291.75 35.05 291.2 34.65 290.55 L34.8 290.2 34.8 290.15 Q34.2 287.0 31.85 279.15 L29.05 269.95 28.4 268.3 Q27.35 269.55 25.1 270.9 L24.4 271.3 22.25 272.25 22.0 272.45 21.8 272.5 20.35 272.9 19.55 273.15 19.3 273.2 13.6 274.15 13.2 274.15 12.55 274.2 8.4 274.55 6.4 274.7 4.95 274.8 0.6 274.95 0.8 275.05 -1.1 275.0 -2.75 275.05 -6.7 275.05 Q-12.5 275.05 -17.9 273.2 L-19.7 272.55 -20.7 272.15 -22.7 271.25 -22.85 271.15 -23.0 271.1 -23.9 270.65 -24.15 270.5 -26.95 268.75 -27.25 268.5 -28.1 267.8 -29.1 266.8 -29.85 267.55 -30.15 267.8 -31.05 269.95 -33.55 278.15 -33.85 279.15 Q-36.05 286.45 -36.7 289.7 L-36.8 290.15 -36.8 290.2 -36.65 290.5 -36.65 290.6 Q-37.0 291.2 -37.0 291.75 -37.0 292.2 -36.6 292.65 L-36.45 292.8 -35.55 293.45 -35.45 293.5 -35.3 293.6 -35.3 294.0 -33.75 295.25 -29.6 298.1 -27.6 299.35 -25.15 300.9 -23.85 301.15 -21.1 303.1 -20.75 302.7 -20.85 302.5 -20.6 302.5 -20.5 302.6 -20.3 302.4 -18.25 299.5 -16.85 297.8 -16.75 297.65 -13.0 293.05 -10.05 289.1 -6.0 280.35 -5.1 278.7 Q-3.55 276.1 -2.0 275.65 L-2.15 275.05 -1.7 275.6 -0.95 275.6 -0.3 275.6 0.15 275.05 0.05 275.65 Q2.0 276.25 4.05 280.35 L7.35 287.55 8.05 289.1 11.05 293.05 12.6 295.0 14.85 297.8 16.25 299.5 18.6 302.7 18.8 302.7 19.1 303.1 Q19.6 302.7 21.85 301.15 L22.7 301.05 M-0.4 253.55 L1.6 251.75 3.6 248.75 4.6 247.35 Q-3.1 247.6 -9.1 247.0 L-12.9 246.45 Q-9.95 255.45 -8.2 255.45 L-8.0 255.45 -7.85 255.45 Q-3.25 255.4 -0.4 253.55 M9.4 266.45 L9.65 266.35 9.35 266.35 8.85 266.35 6.7 266.2 5.4 266.05 Q0.7 265.45 -1.25 263.6 -2.0 262.85 -2.65 261.5 -3.25 260.15 -3.65 259.8 L-4.85 261.95 -4.95 262.15 -8.0 265.8 -8.35 266.15 -8.8 266.55 -9.95 266.55 -10.75 266.5 -9.45 267.9 -9.2 268.25 -8.85 268.7 -8.8 268.75 -6.1 272.0 -5.85 272.05 0.85 272.3 5.1 272.3 5.05 272.25 6.05 269.85 Q7.35 267.25 9.4 266.45 M11.95 272.1 L10.85 272.25 11.8 272.15 11.95 272.1 M5.15 290.2 L3.9 287.95 1.8 283.05 1.4 281.7 1.3 281.7 1.2 281.6 0.95 280.1 0.4 278.7 Q0.05 280.6 0.0 284.3 L-0.05 290.15 -0.05 301.45 -0.15 307.05 -0.2 312.2 Q-0.35 316.75 0.05 317.95 L-0.15 319.55 -0.1 320.25 -0.1 320.3 1.5 319.0 1.55 318.85 2.05 318.45 1.6 318.85 16.05 307.05 16.85 306.15 16.85 305.7 Q16.85 304.85 15.95 304.45 L9.8 297.0 9.65 296.8 9.45 296.55 8.75 295.6 6.95 293.05 6.65 292.55 5.15 290.2 M37.1 286.6 L37.7 289.1 37.75 289.1 38.0 290.65 38.25 291.0 Q38.55 291.4 39.2 291.65 L39.7 291.35 39.6 291.95 54.55 291.2 68.15 290.6 70.25 290.35 69.65 290.25 Q71.1 290.25 72.25 289.65 L70.35 289.1 69.75 288.65 68.9 288.6 62.85 285.9 62.2 285.2 61.4 285.2 61.35 285.2 46.6 278.4 36.9 273.5 32.6 271.0 Q36.0 276.55 36.9 284.35 L37.1 286.6 M78.85 289.9 L78.85 289.95 78.9 289.95 78.85 289.9 M-20.9 -198.6 L-22.4 -199.1 -26.2 -200.75 -26.2 -195.0 -26.15 -194.45 Q-24.9 -189.0 -21.65 -189.0 -17.5 -189.0 -16.0 -192.45 -15.45 -193.75 -15.25 -196.7 L-14.85 -196.8 Q-18.25 -197.5 -20.9 -198.6 M-14.4 -178.3 L-9.6 -178.3 Q-7.7 -180.95 -4.7 -186.05 L-4.85 -186.05 -5.5 -186.05 -9.55 -186.7 Q-11.6 -187.4 -12.6 -188.85 -13.3 -189.8 -13.65 -191.15 L-14.05 -192.95 -14.85 -191.2 -15.4 -189.4 Q-16.35 -187.4 -20.35 -187.4 L-21.45 -187.45 Q-20.95 -185.7 -20.55 -182.6 -19.6 -179.75 -16.0 -178.3 L-14.4 -178.3 M-17.3 -176.9 Q-20.95 -178.95 -21.3 -181.85 L-21.35 -184.5 Q-21.4 -186.15 -21.95 -187.2 L-21.75 -187.45 Q-24.65 -187.75 -26.25 -189.2 L-26.25 -188.5 -26.2 -188.3 -26.05 -187.45 -26.85 -180.1 -26.6 -178.85 Q-26.4 -176.55 -25.35 -175.5 -23.9 -174.1 -19.45 -173.0 L-19.2 -172.9 -17.2 -172.45 -14.15 -171.9 -9.8 -171.3 Q-10.5 -171.8 -10.9 -172.65 L-11.65 -176.4 -12.15 -176.4 -14.45 -176.45 -14.45 -176.05 Q-14.45 -174.7 -15.6 -174.2 L-17.6 -173.15 -19.3 -173.5 Q-19.8 -173.7 -20.0 -173.95 L-18.6 -175.0 -17.4 -175.7 -15.9 -176.5 -16.6 -176.55 -17.3 -176.9 M-22.25 -80.4 L-21.65 -80.35 Q-17.5 -80.35 -16.0 -83.8 -15.45 -85.1 -15.25 -88.05 L-14.85 -88.15 Q-18.65 -88.95 -21.5 -90.2 L-23.5 -91.2 -26.55 -93.25 -26.5 -92.9 -26.2 -92.9 -26.2 -89.8 -26.05 -88.55 -26.2 -87.85 -26.2 -86.15 -26.15 -85.8 Q-25.0 -80.9 -22.25 -80.4 M-10.6 -78.5 L-11.3 -78.9 -12.4 -79.9 -12.6 -80.2 Q-13.3 -81.15 -13.65 -82.5 L-14.05 -84.3 -14.85 -82.55 -15.4 -80.75 -16.0 -79.9 -16.15 -79.85 -16.15 -79.8 -18.25 -78.9 -18.55 -78.85 -19.0 -78.8 -19.4 -78.75 -20.35 -78.75 -20.55 -78.75 -20.8 -78.75 -21.45 -78.8 Q-21.05 -77.45 -20.75 -75.3 L-20.6 -74.35 -20.55 -73.95 Q-19.6 -71.1 -16.0 -69.65 L-14.35 -69.65 -10.1 -69.65 -9.6 -69.65 -9.35 -69.95 -9.05 -70.4 -8.75 -70.9 Q-7.05 -73.4 -4.7 -77.4 L-4.85 -77.4 Q-8.45 -77.4 -10.6 -78.5 M-19.5 -69.85 Q-21.05 -71.35 -21.3 -73.2 L-21.35 -75.85 Q-21.4 -77.5 -21.95 -78.55 L-21.75 -78.8 Q-24.6 -79.05 -26.2 -80.5 L-26.2 -74.85 -26.05 -74.2 -26.2 -72.95 -26.2 -68.35 -25.35 -66.85 Q-24.0 -65.55 -20.1 -64.5 L-19.45 -64.35 -18.75 -64.15 -18.3 -64.05 -18.2 -64.05 -15.0 -63.4 -14.25 -63.3 -10.25 -62.7 -9.8 -62.65 -10.2 -63.0 -10.9 -64.0 -11.65 -67.75 -14.0 -67.8 -14.45 -67.8 -14.45 -67.4 Q-14.45 -66.05 -15.6 -65.55 L-17.1 -64.8 -17.3 -65.15 -18.2 -65.4 Q-18.55 -65.35 -18.65 -65.15 L-18.45 -64.6 Q-19.7 -64.85 -20.0 -65.3 L-17.4 -67.05 -15.9 -67.85 -16.6 -67.9 -16.9 -68.05 -17.0 -68.1 Q-18.55 -68.9 -19.5 -69.85 M-21.7 31.35 L-21.65 31.35 Q-17.5 31.35 -16.0 27.85 -15.45 26.6 -15.25 23.6 L-14.85 23.5 -15.15 23.45 -17.8 22.8 -18.6 22.55 Q-21.35 21.7 -23.5 20.5 L-26.2 18.75 -26.2 19.25 -26.2 23.2 -26.05 24.75 -26.05 24.8 -26.2 25.55 -26.15 25.85 Q-24.9 31.3 -21.7 31.35 M-19.2 42.1 Q-21.05 40.5 -21.3 38.45 L-21.35 35.8 Q-21.4 34.2 -21.95 33.1 L-21.75 32.85 Q-24.75 32.55 -26.3 31.05 L-26.65 41.0 -26.6 41.45 Q-26.4 43.8 -25.35 44.8 -24.2 45.95 -21.0 46.9 L-17.2 47.85 -16.15 48.05 -15.5 48.15 -12.1 48.7 -9.8 49.0 -10.9 47.65 -11.4 44.95 -11.5 44.4 -11.6 43.95 -11.65 43.9 -14.45 43.85 -14.45 44.25 Q-14.45 45.6 -15.6 46.1 L-16.15 46.35 -16.5 46.55 Q-17.1 46.8 -17.35 47.0 L-17.6 47.15 Q-19.6 46.95 -20.0 46.35 L-17.4 44.6 -15.9 43.85 -16.6 43.8 -19.2 42.1 M-15.1 30.15 L-15.2 30.4 -15.35 30.85 -15.4 30.95 Q-16.35 32.9 -20.35 32.9 L-20.6 32.9 -20.7 32.9 -21.45 32.85 Q-20.95 34.6 -20.55 37.7 L-19.6 39.5 Q-18.4 41.1 -16.0 42.0 L-10.15 42.0 -9.6 42.0 Q-7.7 39.35 -4.7 34.3 L-4.85 34.3 Q-7.7 34.3 -9.6 33.6 L-11.95 32.2 -12.6 31.45 Q-13.3 30.55 -13.65 29.15 L-14.05 27.4 -14.1 27.5 -14.15 27.55 -14.4 27.95 -14.6 28.4 -14.85 29.1 -15.1 30.15 M-21.6 133.1 L-23.5 132.15 -26.2 130.4 -26.2 131.95 -26.05 133.25 -26.2 133.9 -26.2 137.2 -26.15 137.55 Q-24.9 143.0 -21.65 143.0 L-19.45 142.7 Q-17.95 142.25 -16.95 141.05 L-16.3 140.1 -16.0 139.5 Q-15.45 138.25 -15.25 135.3 L-14.85 135.15 -20.05 133.7 -21.6 133.1 M-20.55 152.2 L-21.3 150.1 -21.35 147.45 Q-21.4 145.85 -21.95 144.8 L-21.75 144.55 Q-24.6 144.3 -26.2 142.85 L-26.2 146.9 -26.05 147.55 -26.2 148.8 -26.2 153.4 -26.55 153.45 Q-26.35 155.5 -25.35 156.5 L-23.1 157.85 -18.3 159.3 -18.15 159.3 -13.3 160.2 -9.8 160.7 -10.9 159.35 Q-11.35 156.5 -11.65 155.6 L-13.35 155.6 -14.45 155.55 -14.45 155.95 Q-14.45 157.3 -15.6 157.8 L-17.35 158.65 -17.6 158.8 Q-19.6 158.6 -20.0 158.05 -19.6 157.5 -17.4 156.3 L-15.9 155.5 -16.6 155.45 -16.75 155.4 -16.85 155.35 -19.05 153.9 -20.4 152.4 -20.55 152.2 M-16.35 143.7 Q-17.65 144.6 -20.35 144.6 L-20.55 144.6 -20.65 144.6 -21.45 144.55 Q-20.95 146.3 -20.55 149.35 L-19.85 150.8 Q-18.65 152.65 -16.0 153.7 L-12.0 153.7 -9.6 153.7 -8.9 152.75 -7.25 150.2 -4.7 145.95 -4.85 145.95 Q-9.35 145.95 -11.55 144.2 L-12.5 143.2 -12.6 143.1 Q-13.3 142.2 -13.65 140.85 L-14.05 139.05 Q-14.55 139.65 -14.85 140.8 L-15.4 142.6 -15.4 142.65 -15.55 142.95 -15.6 143.0 -16.35 143.7 M-21.45 244.05 L-23.5 243.05 -26.65 240.9 -26.05 246.5 -26.2 247.3 -26.25 247.5 -26.25 247.7 -26.15 248.45 Q-24.9 253.9 -21.65 253.9 L-19.55 253.65 Q-17.1 252.95 -16.0 250.4 -15.45 249.15 -15.25 246.15 L-14.85 246.05 Q-18.6 245.3 -21.45 244.05 M-72.25 290.35 L-70.1 290.6 -56.5 291.2 -41.6 291.95 -41.7 291.35 -41.15 291.65 -40.2 291.0 -40.0 290.65 -39.75 289.1 -39.65 289.1 -39.1 286.6 Q-38.8 282.0 -37.65 278.15 -36.55 274.2 -34.55 271.0 -39.5 274.05 -48.05 278.15 L-48.6 278.4 -63.35 285.2 -63.4 285.2 -64.2 285.2 -64.85 285.9 -70.9 288.6 -71.75 288.65 -72.35 289.15 Q-73.1 289.3 -73.75 289.95 L-72.15 290.15 -71.0 290.15 -71.35 290.25 -72.25 290.35 M-7.85 262.0 L-4.7 256.85 -4.85 256.85 Q-8.5 256.85 -10.65 255.7 -11.85 255.05 -12.6 254.0 -13.3 253.1 -13.65 251.7 L-14.05 249.95 Q-14.55 250.5 -14.85 251.65 L-15.4 253.5 -15.6 253.85 -15.8 254.15 Q-17.05 255.45 -20.35 255.45 L-20.4 255.45 -21.45 255.45 Q-20.95 257.15 -20.55 260.25 L-19.75 261.8 Q-18.55 263.55 -16.0 264.55 L-12.05 264.55 -9.6 264.55 -9.2 264.05 -7.85 262.0 M-17.85 269.7 Q-19.65 269.45 -20.0 268.9 L-17.4 267.15 -15.9 266.4 -16.6 266.35 -16.75 266.3 -16.9 266.2 -17.05 266.15 -17.2 266.05 -17.35 265.95 -20.1 263.75 -20.4 263.35 -20.5 263.15 -20.5 263.2 -20.7 262.85 -21.3 261.0 -21.3 260.6 -21.35 258.35 Q-21.4 256.75 -21.95 255.65 L-21.75 255.45 Q-24.65 255.15 -26.2 253.65 L-26.2 261.5 -26.2 263.1 -26.2 264.65 -23.75 267.25 -23.0 267.9 -22.5 268.2 -22.2 268.4 -20.7 269.25 -19.35 269.9 -18.4 270.15 -13.05 271.1 -9.8 271.55 -10.9 270.2 -11.5 266.95 -11.55 266.75 -11.6 266.55 -11.65 266.45 -14.45 266.4 -14.45 266.8 Q-14.45 268.15 -15.6 268.65 L-17.6 269.7 -17.85 269.7 M-29.0 264.7 L-29.05 264.55 -29.1 264.6 -29.0 264.7 M-0.9 276.4 L-1.0 276.2 -1.05 276.4 -1.0 276.5 -0.9 276.4 M-0.95 279.95 L-1.0 279.85 -1.05 280.0 -1.0 280.8 -0.95 279.95 M-1.8 281.45 L-1.75 280.85 Q-1.65 280.05 -1.8 279.45 L-1.85 280.15 -1.95 279.0 -2.05 281.3 -2.2 281.7 -2.4 282.65 -2.4 279.5 -3.8 283.05 -5.6 287.4 -9.0 292.75 -9.2 293.05 -16.75 303.25 -17.05 303.7 -17.85 304.4 Q-18.3 304.6 -18.55 304.95 L-16.8 307.05 -10.65 312.4 -1.55 320.2 -1.55 312.15 -1.55 301.25 -1.45 296.05 -1.45 293.05 -1.6 288.4 -1.55 287.4 -1.65 286.15 -1.8 281.45 M-18.55 307.05 L-18.5 307.05 -18.25 307.4 -18.05 307.55 -18.45 307.05 -18.75 306.5 -18.55 307.05" fill="#5d401d" fill-rule="evenodd" stroke="none"/>
      <path d="M13.25 -169.6 L13.3 -169.5 13.5 -169.3 14.1 -168.75 14.1 -168.7 Q13.75 -165.45 12.35 -161.8 10.45 -156.95 10.45 -155.3 10.45 -153.85 12.6 -152.95 14.7 -152.05 14.7 -151.3 14.7 -150.8 14.0 -149.75 L13.25 -148.65 Q13.25 -147.6 15.7 -142.85 18.2 -137.95 18.3 -137.3 L18.15 -131.6 Q17.95 -129.4 18.25 -127.85 L17.6 -127.8 14.7 -127.5 14.0 -127.45 13.95 -127.95 13.95 -133.3 Q13.65 -134.15 12.1 -135.35 10.75 -136.4 10.75 -137.8 L11.0 -139.7 11.25 -141.75 11.0 -145.25 Q10.8 -148.15 10.95 -149.5 7.75 -151.65 7.1 -152.9 6.7 -153.65 6.7 -155.9 6.7 -159.5 7.6 -163.2 8.25 -165.9 8.4 -168.95 L13.25 -169.6 M12.55 -89.95 L5.2 -89.05 5.25 -89.6 Q5.25 -90.55 4.5 -91.65 3.75 -92.75 3.75 -94.1 3.75 -95.5 6.15 -99.25 L8.5 -102.85 Q8.5 -107.2 7.85 -111.7 L7.2 -116.25 7.2 -116.6 13.2 -117.75 Q10.4 -98.55 8.25 -94.25 9.95 -91.7 11.65 -90.7 L12.55 -89.95 M10.1 -78.8 L8.8 -79.35 9.8 -77.55 10.9 -77.5 10.95 -75.9 10.75 -73.7 10.25 -72.65 Q9.9 -73.4 9.0 -73.6 L8.05 -73.65 7.8 -73.7 6.3 -75.85 3.7 -79.65 3.75 -80.2 Q4.0 -82.15 6.1 -82.85 L6.15 -82.75 Q6.95 -81.1 8.0 -80.2 8.7 -79.6 9.5 -79.3 L10.1 -78.8 M11.2 -87.2 L14.75 -87.65 16.45 -88.0 16.7 -86.55 16.45 -84.0 Q15.9 -81.8 14.3 -81.8 13.5 -81.8 12.25 -84.3 L11.2 -86.8 11.2 -87.2 M2.9 -86.8 Q3.25 -86.25 3.25 -85.15 L3.25 -84.9 2.2 -83.3 1.8 -82.7 1.75 -82.7 0.25 -82.25 Q-1.35 -82.25 -1.75 -83.0 L-1.8 -83.9 Q-1.8 -85.9 -0.2 -86.8 L0.3 -86.8 2.75 -86.8 2.9 -86.8 M6.65 -61.4 L5.45 -61.35 4.0 -61.4 3.6 -61.45 3.55 -61.45 Q3.1 -62.15 2.7 -63.35 1.95 -65.65 1.95 -66.55 1.95 -67.75 3.05 -68.6 L3.6 -68.45 7.75 -67.95 7.75 -67.65 7.65 -66.6 Q6.05 -65.05 5.05 -61.95 L6.8 -61.9 6.65 -61.4 M18.55 -71.0 Q20.05 -71.0 20.05 -68.25 20.05 -66.05 18.55 -66.05 17.3 -66.05 17.05 -67.05 L17.05 -68.15 Q17.05 -71.0 18.55 -71.0 M7.25 -14.55 L1.5 -14.3 0.4 -14.3 0.5 -14.85 Q-0.3 -14.5 -1.0 -14.5 -2.75 -14.5 -3.5 -15.65 -3.9 -16.3 -3.9 -17.0 -3.9 -17.65 -0.45 -21.5 L3.0 -25.6 1.65 -29.15 Q0.25 -32.65 0.25 -33.3 0.25 -34.3 1.6 -35.25 2.6 -35.95 3.6 -35.9 L4.75 -35.6 Q5.25 -36.1 5.25 -34.85 5.25 -33.7 4.6 -32.2 3.95 -30.75 3.95 -29.6 3.95 -28.0 6.25 -26.7 8.5 -25.45 8.5 -23.0 8.5 -21.6 4.95 -18.15 L4.45 -17.65 5.45 -17.95 Q10.5 -19.3 10.5 -16.0 L8.05 -14.6 7.25 -14.55 M4.0 -59.95 L6.55 -60.1 9.4 -60.4 10.5 -59.2 Q12.0 -57.65 12.0 -57.1 12.0 -55.25 9.35 -54.3 6.45 -53.25 5.7 -49.9 5.9 -47.55 5.7 -46.25 5.45 -44.4 3.6 -43.7 L2.25 -43.4 Q3.15 -47.45 3.6 -51.9 L4.0 -59.2 4.0 -59.95 M3.65 -0.7 L3.65 -0.75 4.4 -0.9 10.45 -2.05 10.85 -2.1 11.2 -2.15 11.35 -2.15 Q11.75 -1.75 11.75 -1.0 L9.65 2.05 6.25 6.5 Q6.5 7.35 7.3 8.2 8.0 9.0 8.0 9.3 8.0 10.75 3.85 13.75 5.95 14.85 5.85 16.8 5.85 18.15 5.25 19.85 L4.5 20.1 3.6 19.75 Q2.9 19.3 2.85 18.45 L3.1 16.25 Q1.85 16.3 1.25 15.5 L0.85 14.55 Q0.85 12.95 3.6 10.75 4.55 9.95 5.85 9.1 L5.75 7.95 4.75 8.1 Q3.95 8.1 3.6 7.65 3.35 7.3 3.35 6.75 L3.6 6.1 4.5 5.05 5.6 3.55 Q5.6 3.0 4.6 1.5 L3.6 -0.35 3.65 -0.7 M10.85 32.9 L10.8 32.9 Q9.7 32.9 8.8 32.3 L9.8 34.1 10.65 34.15 10.35 37.8 10.2 38.75 6.75 38.55 5.6 36.3 4.35 32.65 Q4.35 31.9 6.9 29.65 8.55 32.05 10.9 32.5 L10.85 32.9 M15.2 23.95 L17.1 23.5 Q18.25 24.3 18.25 28.3 L18.15 30.5 Q17.8 31.75 16.5 31.75 L15.2 31.5 15.45 30.4 14.25 28.15 Q14.3 25.05 15.2 23.95 M1.35 29.5 L0.95 29.75 -0.65 29.15 -0.9 27.6 Q-0.9 26.7 0.25 25.15 L0.5 24.9 3.6 24.85 4.0 24.85 4.0 25.05 3.8 25.9 3.8 25.95 3.6 26.2 1.6 29.2 1.4 29.5 1.35 29.5 M3.15 43.1 L3.6 43.2 6.8 43.65 7.65 45.05 6.95 45.85 5.25 49.15 5.15 49.4 5.05 49.7 6.6 49.8 5.25 50.15 Q4.3 50.15 3.6 49.3 L2.9 48.05 2.35 46.15 Q2.35 43.95 3.15 43.1 M9.7 66.6 Q8.95 66.8 8.45 67.1 L8.35 67.15 8.3 67.2 8.25 67.2 7.4 68.0 Q5.25 67.15 3.85 66.1 L2.95 65.3 Q1.9 64.2 1.5 62.9 1.15 59.55 0.3 57.0 L-0.25 55.55 1.95 55.85 3.6 56.2 4.5 56.3 5.05 57.0 7.6 62.0 7.65 62.15 8.45 63.85 8.9 64.85 9.7 66.6 M7.15 69.15 L9.15 71.2 8.1 71.8 8.0 72.0 11.1 72.6 Q12.25 73.25 13.4 73.6 L13.45 73.65 13.95 73.95 Q15.5 75.0 16.0 76.05 13.25 77.25 13.0 78.6 L13.0 78.7 13.0 78.8 13.0 78.85 13.95 79.8 13.2 80.5 Q10.2 83.15 9.1 83.6 L11.2 85.7 Q11.75 86.45 11.75 87.35 11.75 88.0 11.25 88.5 10.75 89.0 10.75 89.6 10.75 90.0 11.7 91.5 L12.6 93.15 Q12.6 93.7 12.2 94.45 L9.45 94.65 Q7.55 92.35 3.25 84.15 3.25 83.55 5.65 79.55 L8.25 75.35 Q4.5 75.5 4.5 72.9 4.5 72.5 5.35 71.55 L7.15 69.15 M12.25 133.45 L5.45 134.25 5.35 131.55 Q5.35 129.95 7.25 127.65 8.95 125.55 8.5 123.5 7.85 120.65 7.85 116.15 L8.0 113.75 8.75 113.6 Q9.5 114.5 10.8 119.7 12.1 124.8 12.1 126.55 L11.55 128.35 Q11.0 129.55 11.0 130.15 11.0 130.45 11.9 131.0 12.6 131.8 12.25 133.45 M11.75 136.1 L12.0 136.1 13.95 135.85 15.05 135.65 Q16.35 137.3 16.35 140.25 16.35 141.25 15.65 141.7 L14.4 140.95 11.75 138.85 11.6 138.05 Q11.6 136.9 11.75 136.1 M10.85 144.6 L10.8 144.6 Q9.7 144.6 8.8 144.0 L9.8 145.75 11.65 145.85 12.35 147.5 Q12.35 148.95 11.75 149.55 11.25 150.05 10.25 150.05 6.95 150.05 6.15 146.05 L6.0 142.35 Q6.0 141.1 6.15 140.3 L6.5 140.75 6.9 141.25 6.55 140.35 6.4 139.45 6.65 139.1 7.1 140.2 Q8.85 143.4 10.85 144.6 M10.95 206.2 L9.45 206.3 6.75 206.45 5.8 206.5 5.2 206.5 5.1 204.3 6.0 203.4 6.85 202.25 Q6.85 201.5 3.45 193.25 3.45 192.15 5.85 189.85 8.25 187.55 8.25 186.85 8.25 182.15 7.2 177.95 6.1 173.75 6.1 166.25 6.1 163.95 8.0 163.45 9.85 162.95 9.85 166.15 9.85 168.75 8.95 172.75 8.0 176.75 8.0 179.35 L8.1 181.25 8.1 181.6 Q9.65 180.5 11.25 180.5 13.2 180.5 14.0 182.1 L13.45 183.35 Q13.45 184.75 14.45 185.8 L13.45 188.25 Q12.45 190.0 10.75 191.6 12.5 191.9 13.15 192.9 13.5 193.5 13.5 194.6 L12.8 196.15 11.0 198.75 11.45 200.65 11.75 202.65 Q11.75 204.3 10.95 206.2 M6.75 161.95 L3.8 161.95 2.9 160.3 Q2.2 158.55 2.2 157.85 2.2 156.25 3.4 155.2 L3.75 154.9 7.35 155.35 8.0 155.4 7.85 156.55 Q6.1 158.1 5.05 161.4 L5.4 161.5 5.85 161.55 6.4 161.55 7.15 161.25 7.15 161.3 6.75 161.9 6.75 161.95 M14.5 157.1 L14.5 153.75 Q16.45 151.55 17.15 152.55 17.5 153.1 17.5 155.15 L17.35 157.1 17.05 157.45 16.0 157.75 15.0 157.6 14.5 157.1 M12.3 244.3 L1.35 245.5 Q1.6 244.9 2.2 244.45 L2.3 244.4 2.35 244.35 2.6 244.2 Q3.1 243.85 3.85 243.6 L6.1 242.8 Q5.2 240.2 5.2 239.05 5.2 236.2 5.8 232.8 6.65 228.05 8.1 227.65 L8.0 228.55 Q8.95 231.8 8.35 233.65 10.55 234.65 10.9 236.65 L11.25 240.05 11.75 241.1 11.95 242.65 11.95 242.8 12.3 244.3 M7.55 253.05 Q8.15 254.3 9.0 255.2 L9.8 256.65 11.2 256.7 Q12.45 258.65 12.45 260.75 12.45 261.9 11.95 262.8 11.3 264.0 10.0 264.0 9.85 264.0 7.65 259.25 5.5 254.65 5.5 255.15 5.5 252.0 7.55 253.05 M11.05 247.05 L11.5 247.0 14.6 246.6 14.85 246.55 Q16.2 247.3 16.2 248.35 16.2 249.3 15.45 249.75 L14.5 250.05 Q11.65 250.05 11.0 249.0 L10.95 248.0 11.05 247.05 M12.6 295.0 L11.05 293.05 8.05 289.1 7.35 287.55 7.35 287.5 Q4.7 279.25 4.7 277.15 4.7 275.55 4.95 274.8 L6.4 274.7 7.05 275.6 Q9.35 279.15 9.35 282.65 9.35 286.6 11.25 291.55 L12.6 295.0 M9.4 266.45 Q7.35 267.25 6.05 269.85 5.55 269.7 5.2 269.4 L3.85 268.0 Q4.55 266.8 5.4 266.05 L6.7 266.2 8.85 266.35 9.35 266.35 9.4 266.45 M5.15 290.2 L6.65 292.55 6.95 293.05 8.75 295.6 9.45 296.55 9.65 296.8 9.8 297.0 9.0 298.0 Q8.05 297.6 7.1 296.15 L6.55 295.15 6.8 295.65 6.85 297.35 6.85 298.1 6.7 298.0 6.25 297.75 5.75 297.9 7.15 299.2 7.35 299.7 Q7.9 301.35 8.05 303.2 L9.3 302.15 10.5 301.4 Q11.4 301.75 11.5 302.4 L10.7 303.4 9.75 303.9 8.55 303.8 8.1 303.65 8.1 304.55 7.9 305.25 7.75 305.25 7.6 305.25 7.85 305.4 6.6 308.6 4.8 312.6 4.75 313.55 6.05 312.45 7.6 311.3 7.9 311.45 8.0 312.25 Q8.0 312.8 6.4 313.9 5.0 314.85 4.25 315.05 L4.15 313.65 4.0 313.8 Q2.1 312.55 2.1 311.75 L4.1 305.8 3.95 304.95 Q3.6 302.9 2.75 301.75 3.1 301.25 3.75 301.25 L4.4 302.5 4.65 299.7 4.95 296.85 4.5 295.55 4.9 294.55 5.25 294.15 5.45 292.5 Q5.1 291.85 5.1 291.15 L5.15 290.2" fill="#957a4d" fill-rule="evenodd" stroke="none"/>
      <path d="M0.2 -281.7 L0.15 -281.65 -0.05 -274.05 -0.8 -274.05 -1.3 -276.4 -1.85 -274.05 -2.6 -274.05 -2.8 -281.65 -3.2 -283.3 -3.85 -283.3 Q-6.7 -283.3 -12.7 -276.8 L-19.35 -269.0 -19.55 -268.7 -21.65 -265.95 -23.5 -263.55 -23.8 -263.15 -34.7 -247.85 -34.85 -246.95 Q-34.85 -245.9 -25.15 -224.5 -17.95 -208.6 -15.15 -199.45 L-14.4 -199.05 Q-8.65 -195.5 -3.5 -194.65 L-2.95 -194.95 Q-1.0 -195.85 -0.85 -196.8 L-0.85 -196.95 Q-0.85 -199.9 -2.45 -207.5 -4.1 -215.1 -4.1 -217.55 L-4.1 -217.85 -3.4 -236.45 Q-2.55 -255.2 -1.6 -265.55 L-0.85 -265.55 Q-0.7 -262.9 -1.15 -257.65 L-1.6 -251.3 Q-1.6 -244.3 -0.85 -237.3 L-0.6 -234.6 Q-0.1 -228.05 -0.1 -217.8 -0.1 -213.6 1.4 -209.3 2.9 -204.95 2.9 -199.45 2.9 -197.2 2.15 -194.9 6.7 -195.9 11.75 -199.05 L12.5 -199.45 Q15.3 -208.6 22.5 -224.5 32.2 -245.9 32.2 -246.95 L32.05 -247.85 Q22.3 -261.95 16.7 -269.0 5.4 -283.3 1.2 -283.3 L0.6 -283.3 0.2 -281.7 M-87.05 -222.15 L-87.0 -223.0 -87.4 -229.9 -87.35 -229.9 -87.35 -230.05 Q-87.35 -232.35 -67.3 -241.5 -48.8 -249.95 -36.8 -252.9 L-31.95 -259.15 Q-24.75 -268.35 -18.45 -275.45 -8.3 -286.9 -3.4 -289.75 -2.8 -290.9 -1.3 -290.6 0.15 -290.9 0.75 -289.75 5.65 -286.9 15.8 -275.45 22.1 -268.35 29.3 -259.15 L34.15 -252.9 Q46.15 -249.95 64.65 -241.5 84.7 -232.35 84.7 -230.05 L84.7 -229.9 84.8 -229.85 84.65 -226.6 84.4 -222.05 83.85 -219.35 83.8 -219.15 83.35 -217.1 83.45 -214.95 83.05 -215.3 82.95 -214.3 Q82.95 -213.05 83.6 -208.1 L84.05 -204.45 84.15 -203.5 84.2 -203.45 84.45 -200.45 85.4 -200.45 Q84.8 -198.25 83.2 -195.45 L80.45 -195.2 70.9 -195.65 53.45 -196.45 Q50.45 -196.45 35.45 -193.7 L24.7 -193.2 13.95 -192.7 13.55 -192.7 Q12.4 -191.65 9.9 -191.5 L4.65 -191.45 0.0 -191.2 Q-0.95 -190.45 -2.1 -190.45 L-4.15 -190.7 -4.35 -190.95 -4.8 -191.35 -7.3 -191.45 -12.55 -191.5 Q-15.05 -191.65 -16.2 -192.7 L-16.6 -192.7 -27.35 -193.2 -38.1 -193.7 Q-53.1 -196.45 -56.1 -196.45 L-73.55 -195.65 -83.1 -195.2 -84.95 -195.3 -86.95 -202.1 -86.4 -206.9 -86.25 -208.1 Q-85.6 -213.05 -85.6 -214.3 L-85.7 -215.3 Q-85.95 -215.05 -86.1 -214.95 L-86.0 -217.1 -86.45 -219.15 -87.05 -222.15 M81.7 -201.85 L82.0 -202.8 Q82.7 -205.2 82.7 -206.8 L82.45 -215.85 81.95 -216.2 Q81.95 -229.55 63.2 -239.4 56.15 -243.15 48.05 -245.4 40.85 -247.45 36.45 -247.45 L34.7 -247.2 Q31.6 -242.0 28.7 -235.95 L28.4 -235.3 23.85 -224.9 23.3 -223.6 22.9 -222.55 20.8 -216.9 20.6 -216.35 20.6 -216.3 Q17.1 -206.6 14.95 -197.45 L15.2 -195.45 26.2 -195.45 44.2 -198.75 Q54.7 -200.4 67.65 -200.95 L80.45 -201.2 81.4 -201.15 81.45 -201.25 81.7 -201.85 M-79.3 -229.4 Q-84.6 -223.3 -84.6 -216.2 L-85.1 -215.85 -85.35 -206.8 Q-85.35 -205.2 -84.65 -202.8 L-84.05 -201.15 -83.1 -201.2 Q-62.3 -201.2 -46.85 -198.75 L-28.85 -195.45 -17.85 -195.45 -17.6 -197.45 -18.35 -200.45 -18.65 -201.7 Q-21.35 -211.8 -25.55 -222.55 -31.0 -236.55 -37.35 -247.2 L-39.1 -247.45 -39.2 -247.45 -39.35 -247.45 -39.45 -247.45 -39.55 -247.45 -39.7 -247.45 -40.0 -247.45 -43.85 -247.0 -46.4 -246.5 -46.55 -246.45 -50.7 -245.4 Q-58.8 -243.15 -65.85 -239.4 -74.65 -234.8 -79.3 -229.4" fill="#61421d" fill-rule="evenodd" stroke="none"/>
      <path d="M-0.6 -234.6 L-0.05 -240.55 Q1.05 -254.0 0.95 -269.5 0.95 -276.6 0.2 -281.7 L0.6 -283.3 1.2 -283.3 Q5.4 -283.3 16.7 -269.0 22.3 -261.95 32.05 -247.85 L32.2 -246.95 Q32.2 -245.9 22.5 -224.5 15.3 -208.6 12.5 -199.45 L11.75 -199.05 Q6.7 -195.9 2.15 -194.9 2.9 -197.2 2.9 -199.45 2.9 -204.95 1.4 -209.3 -0.1 -213.6 -0.1 -217.8 -0.1 -228.05 -0.6 -234.6 M-87.05 -222.15 L-86.45 -219.15 -86.0 -217.1 -86.1 -214.95 Q-85.95 -215.05 -85.7 -215.3 L-85.6 -214.3 Q-85.6 -213.05 -86.25 -208.1 L-86.4 -206.9 -87.8 -206.9 -88.0 -210.1 -87.05 -222.15 M85.4 -200.45 L84.45 -200.45 84.2 -203.45 Q84.85 -202.45 85.65 -201.55 L85.4 -200.45 M13.2 -255.65 Q15.2 -258.05 15.2 -260.5 15.2 -261.6 13.85 -263.25 11.9 -265.55 10.2 -270.6 L9.45 -270.6 Q9.9 -268.15 7.25 -257.15 4.45 -245.25 4.45 -241.25 4.45 -238.55 5.95 -235.85 7.45 -233.15 7.45 -228.0 L8.45 -228.25 Q4.35 -243.65 9.25 -251.0 10.5 -252.9 13.2 -255.65 M28.7 -235.95 Q31.6 -242.0 34.7 -247.2 L36.45 -247.45 Q40.85 -247.45 48.05 -245.4 56.15 -243.15 63.2 -239.4 81.95 -229.55 81.95 -216.2 L82.45 -215.85 82.7 -206.8 Q82.7 -205.2 82.0 -202.8 L81.7 -201.85 78.35 -203.5 Q66.6 -208.5 44.55 -208.5 L36.4 -207.1 Q29.8 -205.75 27.2 -205.75 25.7 -205.75 25.65 -206.1 L25.55 -206.5 25.45 -206.5 Q25.3 -206.8 25.3 -208.35 25.3 -209.6 26.55 -214.9 27.8 -220.25 27.8 -221.5 27.8 -222.9 28.5 -227.5 L29.55 -235.0 29.3 -236.5 28.7 -235.95 M68.3 -227.75 Q69.9 -229.9 65.5 -234.0 61.5 -237.8 55.0 -241.1 48.25 -244.5 43.6 -244.9 38.3 -245.3 38.3 -241.25 40.65 -240.45 46.15 -237.65 57.35 -231.95 73.05 -221.5 73.7 -221.65 74.1 -222.05 L74.8 -223.0 Q74.1 -224.35 72.55 -225.65 70.6 -227.25 68.3 -227.75 M73.05 -211.25 Q76.2 -211.25 76.8 -213.0 L76.3 -214.5 Q74.35 -215.6 72.5 -215.6 70.2 -215.6 68.55 -214.0 L70.2 -212.45 Q71.65 -211.25 73.05 -211.25 M47.05 -224.75 L46.8 -224.45 Q46.55 -224.3 46.55 -224.0 L50.4 -222.25 Q54.6 -220.5 57.3 -220.5 54.75 -221.9 51.3 -223.25 L47.05 -224.75 M-18.35 -200.45 L-20.55 -200.75 -33.65 -201.6 Q-36.2 -202.1 -38.95 -203.7 -45.55 -207.4 -62.05 -209.0 -71.3 -209.85 -75.45 -214.4 -78.3 -217.55 -78.55 -222.25 -78.55 -227.8 -79.3 -229.4 -74.65 -234.8 -65.85 -239.4 -58.8 -243.15 -50.7 -245.4 L-46.55 -246.45 -46.1 -245.75 -46.0 -245.6 -44.0 -242.35 -33.2 -224.95 -32.95 -224.6 -31.25 -221.85 -31.15 -221.65 -30.95 -221.35 -28.9 -218.05 -28.7 -217.75 -18.65 -201.7 -18.35 -200.45 M-46.8 -228.5 L-45.0 -226.3 Q-43.85 -225.0 -43.05 -225.0 -41.45 -225.0 -40.8 -225.7 L-40.05 -227.0 Q-41.55 -229.35 -42.85 -230.0 -44.8 -230.9 -46.8 -228.5 M-41.8 -230.0 L-41.8 -230.75 Q-43.75 -232.15 -48.95 -236.45 -53.75 -239.95 -56.55 -239.5 -53.75 -238.45 -48.95 -234.55 -44.3 -230.8 -41.8 -230.0" fill="#896835" fill-rule="evenodd" stroke="none"/>
      <path d="M-23.8 -263.15 L-14.55 -265.35 Q-13.9 -263.35 -11.75 -252.3 -9.55 -240.7 -9.55 -238.25 -9.55 -237.0 -10.55 -235.75 -11.55 -234.5 -11.55 -233.25 -10.85 -223.9 -9.25 -214.85 -6.1 -196.75 -1.55 -196.75 L-0.85 -196.8 Q-1.0 -195.85 -2.95 -194.95 L-3.5 -194.65 Q-8.65 -195.5 -14.4 -199.05 L-15.15 -199.45 Q-17.95 -208.6 -25.15 -224.5 -34.85 -245.9 -34.85 -246.95 L-34.7 -247.85 -23.8 -263.15 M-86.4 -206.9 L-86.95 -202.1 -87.8 -206.9 -86.4 -206.9 M84.2 -203.45 L84.15 -203.5 84.05 -204.45 83.6 -208.1 Q82.95 -213.05 82.95 -214.3 L83.05 -215.3 83.45 -214.95 83.35 -217.1 83.8 -219.15 83.85 -219.35 84.4 -222.05 84.25 -216.5 Q84.25 -214.65 85.0 -209.9 85.75 -205.1 85.75 -202.85 L85.65 -201.55 Q84.85 -202.45 84.2 -203.45 M67.65 -200.95 Q54.7 -200.4 44.2 -198.75 L26.2 -195.45 15.2 -195.45 14.95 -197.45 Q17.1 -206.6 20.6 -216.3 L20.45 -214.25 Q20.0 -211.05 21.25 -208.25 23.65 -202.75 32.05 -202.75 L40.45 -203.35 61.05 -202.0 67.65 -200.95 M-18.35 -200.45 L-17.6 -197.45 -17.85 -195.45 -28.85 -195.45 -46.85 -198.75 Q-62.3 -201.2 -83.1 -201.2 L-84.05 -201.15 -84.65 -202.8 Q-85.35 -205.2 -85.35 -206.8 L-85.1 -215.85 -84.6 -216.2 Q-84.6 -223.3 -79.3 -229.4 -78.55 -227.8 -78.55 -222.25 -78.3 -217.55 -75.45 -214.4 -71.3 -209.85 -62.05 -209.0 -45.55 -207.4 -38.95 -203.7 -36.2 -202.1 -33.65 -201.6 L-20.55 -200.75 -18.35 -200.45 M-46.55 -246.45 L-46.4 -246.5 -46.1 -245.75 -46.55 -246.45 M-32.95 -224.6 L-32.25 -223.5 -31.8 -223.25 -31.6 -222.45 -31.25 -221.85 -32.95 -224.6" fill="#7a5c30" fill-rule="evenodd" stroke="none"/>
      <path d="M13.2 -255.65 Q10.5 -252.9 9.25 -251.0 4.35 -243.65 8.45 -228.25 L7.45 -228.0 Q7.45 -233.15 5.95 -235.85 4.45 -238.55 4.45 -241.25 4.45 -245.25 7.25 -257.15 9.9 -268.15 9.45 -270.6 L10.2 -270.6 Q11.9 -265.55 13.85 -263.25 15.2 -261.6 15.2 -260.5 15.2 -258.05 13.2 -255.65 M68.3 -227.75 Q70.6 -227.25 72.55 -225.65 74.1 -224.35 74.8 -223.0 L74.1 -222.05 Q73.7 -221.65 73.05 -221.5 57.35 -231.95 46.15 -237.65 40.65 -240.45 38.3 -241.25 38.3 -245.3 43.6 -244.9 48.25 -244.5 55.0 -241.1 61.5 -237.8 65.5 -234.0 69.9 -229.9 68.3 -227.75 M-41.8 -230.0 Q-44.3 -230.8 -48.95 -234.55 -53.75 -238.45 -56.55 -239.5 -53.75 -239.95 -48.95 -236.45 -43.75 -232.15 -41.8 -230.75 L-41.8 -230.0 M-46.8 -228.5 Q-44.8 -230.9 -42.85 -230.0 -41.55 -229.35 -40.05 -227.0 L-40.8 -225.7 Q-41.45 -225.0 -43.05 -225.0 -43.85 -225.0 -45.0 -226.3 L-46.8 -228.5" fill="#9b753c" fill-rule="evenodd" stroke="none"/>
      <path d="M-23.8 -263.15 L-23.5 -263.55 -21.65 -265.95 -19.55 -268.7 -19.35 -269.0 -12.7 -276.8 Q-6.7 -283.3 -3.85 -283.3 L-3.2 -283.3 -2.8 -281.65 -2.6 -274.05 -1.85 -274.05 -1.3 -276.4 -0.8 -274.05 -0.05 -274.05 0.15 -281.65 0.2 -281.7 Q0.95 -276.6 0.95 -269.5 1.05 -254.0 -0.05 -240.55 L-0.6 -234.6 -0.85 -237.3 Q-1.6 -244.3 -1.6 -251.3 L-1.15 -257.65 Q-0.7 -262.9 -0.85 -265.55 L-1.6 -265.55 Q-2.55 -255.2 -3.4 -236.45 L-4.1 -217.85 -4.1 -217.55 Q-4.1 -215.1 -2.45 -207.5 -0.85 -199.9 -0.85 -196.95 L-0.85 -196.8 -1.55 -196.75 Q-6.1 -196.75 -9.25 -214.85 -10.85 -223.9 -11.55 -233.25 -11.55 -234.5 -10.55 -235.75 -9.55 -237.0 -9.55 -238.25 -9.55 -240.7 -11.75 -252.3 -13.9 -263.35 -14.55 -265.35 L-23.8 -263.15 M81.7 -201.85 L81.45 -201.25 81.4 -201.15 80.45 -201.2 67.65 -200.95 61.05 -202.0 40.45 -203.35 32.05 -202.75 Q23.65 -202.75 21.25 -208.25 20.0 -211.05 20.45 -214.25 L20.6 -216.3 20.6 -216.35 20.8 -216.9 22.9 -222.55 23.3 -223.6 23.85 -224.9 28.4 -235.3 28.7 -235.95 29.3 -236.5 29.55 -235.0 28.5 -227.5 Q27.8 -222.9 27.8 -221.5 27.8 -220.25 26.55 -214.9 25.3 -209.6 25.3 -208.35 25.3 -206.8 25.45 -206.5 L25.55 -206.5 25.65 -206.1 Q25.7 -205.75 27.2 -205.75 29.8 -205.75 36.4 -207.1 L44.55 -208.5 Q66.6 -208.5 78.35 -203.5 L81.7 -201.85 M47.05 -224.75 L51.3 -223.25 Q54.75 -221.9 57.3 -220.5 54.6 -220.5 50.4 -222.25 L46.55 -224.0 Q46.55 -224.3 46.8 -224.45 L47.05 -224.75 M73.05 -211.25 Q71.65 -211.25 70.2 -212.45 L68.55 -214.0 Q70.2 -215.6 72.5 -215.6 74.35 -215.6 76.3 -214.5 L76.8 -213.0 Q76.2 -211.25 73.05 -211.25 M-46.4 -246.5 L-43.85 -247.0 -40.0 -247.45 -39.7 -247.45 -39.55 -247.45 -39.45 -247.45 -39.35 -247.45 -39.2 -247.45 -39.1 -247.45 -37.35 -247.2 Q-31.0 -236.55 -25.55 -222.55 -21.35 -211.8 -18.65 -201.7 L-28.7 -217.75 -28.9 -218.05 -30.95 -221.35 -31.15 -221.65 -31.25 -221.85 -31.6 -222.45 -31.8 -223.25 -32.25 -223.5 -32.95 -224.6 -33.2 -224.95 -44.0 -242.35 -46.0 -245.6 -46.1 -245.75 -46.4 -246.5" fill="#74603a" fill-rule="evenodd" stroke="none"/>
    </g>
  </defs>
</svg>
