<?xml version="1.0" encoding="UTF-8" standalone="no"?>
<svg xmlns:ffdec="https://www.free-decompiler.com/flash" xmlns:xlink="http://www.w3.org/1999/xlink" ffdec:objectType="frame" height="44.1px" width="68.25px" xmlns="http://www.w3.org/2000/svg">
  <g transform="matrix(1.0, 0.0, 0.0, 1.0, 33.25, 49.0)">
    <use ffdec:characterId="157" height="6.3" transform="matrix(7.0, 0.0, 0.0, 7.0, -33.25, -49.0)" width="9.75" xlink:href="#shape0"/>
  </g>
  <defs>
    <g id="shape0" transform="matrix(1.0, 0.0, 0.0, 1.0, 4.75, 7.0)">
      <path d="M3.95 -6.0 Q3.6 -6.4 2.9 -6.4 L1.05 -6.65 Q-0.4 -6.85 -1.25 -6.55 -3.65 -6.1 -4.1 -5.55 -4.3 -5.35 -4.35 -5.0 L-4.3 -4.25 -4.4 -3.75 -4.4 -3.65 Q-3.4 -4.2 -1.35 -4.65 0.95 -5.1 4.2 -5.35 4.05 -5.8 3.95 -6.0 M2.95 -4.2 L2.85 -4.2 2.45 -4.1 -0.65 -3.8 Q-0.85 -3.7 -2.05 -3.55 L-3.6 -3.5 -3.9 -3.5 -4.3 -3.3 Q-4.45 -2.55 -4.45 -2.4 L-4.4 -2.25 -4.3 -2.1 Q-2.7 -2.4 0.35 -3.25 L0.4 -3.25 0.45 -3.3 1.75 -3.65 3.55 -4.1 3.3 -4.15 3.0 -4.15 2.95 -4.2 M4.6 -4.9 L4.95 -4.3 4.9 -4.15 4.7 -4.15 4.85 -3.9 Q5.0 -3.6 5.0 -3.35 5.0 -3.05 4.55 -2.9 L4.1 -2.8 4.1 -2.3 4.0 -1.9 Q4.0 -1.7 2.95 -1.5 2.05 -1.35 1.65 -1.35 L1.0 -1.25 -0.1 -1.0 Q-1.8 -0.7 -2.7 -0.7 L-3.8 -0.8 Q-4.5 -0.95 -4.5 -1.05 -4.45 -1.5 -4.35 -1.75 L-4.45 -1.75 Q-4.65 -1.75 -4.7 -2.2 L-4.75 -2.7 Q-4.75 -2.9 -4.65 -3.1 L-4.6 -3.2 Q-4.7 -3.25 -4.75 -3.45 L-4.75 -3.75 Q-4.6 -5.65 -4.35 -5.85 -3.95 -6.1 -2.8 -6.45 -1.1 -7.0 0.65 -7.0 L1.5 -6.9 2.4 -6.8 Q3.6 -6.8 4.15 -6.2 4.55 -5.8 4.55 -5.3 4.55 -5.25 4.4 -5.2 L4.6 -4.9 M4.5 -3.95 L4.45 -4.0 4.45 -4.1 4.25 -4.1 -0.45 -2.8 -0.35 -2.8 3.7 -3.1 3.85 -3.15 4.45 -3.2 4.5 -3.4 4.5 -3.95 M4.35 -4.75 L4.2 -5.15 Q3.65 -5.0 2.3 -4.8 L-1.2 -4.25 -1.05 -4.25 0.7 -4.35 4.5 -4.4 4.35 -4.75 M0.0 -2.05 Q0.9 -2.15 1.65 -2.4 L2.4 -2.65 2.25 -2.65 0.7 -2.55 -2.3 -2.3 -3.0 -2.1 -2.6 -2.05 -1.55 -1.95 -0.85 -1.95 -0.15 -2.0 0.0 -2.05 M2.25 -2.0 L2.75 -2.3 3.55 -2.75 3.15 -2.7 3.0 -2.7 Q2.7 -2.5 1.7 -2.25 0.45 -1.9 -0.15 -1.85 L-1.15 -1.65 -2.2 -1.55 Q-2.7 -1.55 -3.25 -1.7 -3.65 -1.85 -3.75 -1.9 L-4.1 -1.8 Q-4.1 -1.6 -4.2 -1.25 -3.95 -1.1 -3.35 -1.05 L-2.7 -0.95 -2.25 -0.95 -2.0 -1.0 Q-1.15 -1.0 -0.35 -1.25 L0.9 -1.4 0.95 -1.4 1.5 -1.65 Q1.8 -1.75 2.25 -2.0 M3.35 -2.35 L2.05 -1.6 Q3.2 -1.85 3.3 -2.1 L3.6 -2.5 3.35 -2.35 M-2.55 -3.95 L-3.35 -3.75 -3.65 -3.65 Q-2.55 -3.85 1.1 -4.15 L-1.2 -4.1 -2.5 -3.95 -2.55 -3.95 M-0.55 -2.65 L-0.75 -2.6 -0.5 -2.65 -0.55 -2.65 M-2.3 -1.85 L-2.5 -1.85 -2.45 -1.8 -2.3 -1.85" fill="#111111" fill-rule="evenodd" stroke="none"/>
      <path d="M-0.45 -2.8 L-0.35 -2.8 -0.45 -2.8 M4.5 -3.4 L4.45 -3.4 3.15 -3.3 2.25 -3.25 1.95 -3.25 3.6 -3.65 Q4.15 -3.8 4.5 -3.95 L4.5 -3.4 M2.25 -4.0 L2.2 -3.95 Q0.9 -3.55 -0.9 -3.1 -2.65 -2.65 -4.4 -2.3 L-4.35 -2.55 Q-4.25 -2.75 -4.25 -2.8 -4.25 -3.1 -1.7 -3.5 L2.25 -4.0 M-0.15 -2.0 L0.0 -2.05 -0.15 -2.0 M0.95 -1.4 L1.65 -1.7 Q1.95 -1.85 2.2 -1.95 L2.25 -2.0 Q1.8 -1.75 1.5 -1.65 L0.95 -1.4 M-2.0 -1.0 L-2.2 -1.0 Q-2.75 -1.0 -3.3 -1.1 -3.8 -1.25 -4.05 -1.35 L-3.85 -1.75 -3.25 -1.6 Q-2.65 -1.45 -2.35 -1.45 L-0.4 -1.5 Q0.55 -1.75 1.4 -1.85 L1.35 -1.85 Q0.55 -1.5 0.0 -1.35 L-0.35 -1.25 -2.0 -1.0" fill="#ffffff" fill-rule="evenodd" stroke="none"/>
      <path d="M2.95 -4.2 L3.0 -4.15 3.3 -4.15 3.55 -4.1 1.75 -3.65 0.45 -3.3 0.4 -3.25 0.35 -3.25 Q-2.7 -2.4 -4.3 -2.1 L-4.4 -2.25 -4.45 -2.4 Q-4.45 -2.55 -4.3 -3.3 L-3.9 -3.5 -3.6 -3.5 -2.05 -3.55 Q-0.85 -3.7 -0.65 -3.8 L2.45 -4.1 2.85 -4.2 2.95 -4.2 M3.95 -6.0 Q4.05 -5.8 4.2 -5.35 0.95 -5.1 -1.35 -4.65 -3.4 -4.2 -4.4 -3.65 L-4.4 -3.75 -4.3 -4.25 -4.35 -5.0 Q-4.3 -5.35 -4.1 -5.55 -3.65 -6.1 -1.25 -6.55 -0.4 -6.85 1.05 -6.65 L2.9 -6.4 Q3.6 -6.4 3.95 -6.0 M-0.45 -2.8 L4.25 -4.1 4.45 -4.1 4.45 -4.0 4.5 -3.95 Q4.15 -3.8 3.6 -3.65 L1.95 -3.25 2.25 -3.25 3.15 -3.3 4.45 -3.4 4.5 -3.4 4.45 -3.2 3.85 -3.15 3.7 -3.1 -0.35 -2.8 -0.45 -2.8 M4.35 -4.75 L4.5 -4.4 0.7 -4.35 -1.05 -4.25 -1.2 -4.25 2.3 -4.8 Q3.65 -5.0 4.2 -5.15 L4.35 -4.75 M2.25 -4.0 L-1.7 -3.5 Q-4.25 -3.1 -4.25 -2.8 -4.25 -2.75 -4.35 -2.55 L-4.4 -2.3 Q-2.65 -2.65 -0.9 -3.1 0.9 -3.55 2.2 -3.95 L2.25 -4.0 M-0.15 -2.0 L-0.85 -1.95 -1.55 -1.95 -2.6 -2.05 -3.0 -2.1 -2.3 -2.3 0.7 -2.55 2.25 -2.65 2.4 -2.65 1.65 -2.4 Q0.9 -2.15 0.0 -2.05 L-0.15 -2.0 M2.25 -2.0 L2.2 -1.95 Q1.95 -1.85 1.65 -1.7 L0.95 -1.4 0.9 -1.4 -0.35 -1.25 0.0 -1.35 Q0.55 -1.5 1.35 -1.85 L1.4 -1.85 Q0.55 -1.75 -0.4 -1.5 L-2.35 -1.45 Q-2.65 -1.45 -3.25 -1.6 L-3.85 -1.75 -4.05 -1.35 Q-3.8 -1.25 -3.3 -1.1 -2.75 -1.0 -2.2 -1.0 L-2.0 -1.0 -2.25 -0.95 -2.7 -0.95 -3.35 -1.05 Q-3.95 -1.1 -4.2 -1.25 -4.1 -1.6 -4.1 -1.8 L-3.75 -1.9 Q-3.65 -1.85 -3.25 -1.7 -2.7 -1.55 -2.2 -1.55 L-1.15 -1.65 -0.15 -1.85 Q0.45 -1.9 1.7 -2.25 2.7 -2.5 3.0 -2.7 L3.15 -2.7 3.55 -2.75 2.75 -2.3 2.25 -2.0 M-2.55 -3.95 L-2.5 -3.95 -1.2 -4.1 1.1 -4.15 Q-2.55 -3.85 -3.65 -3.65 L-3.35 -3.75 -2.55 -3.95 M3.35 -2.35 L3.6 -2.5 3.3 -2.1 Q3.2 -1.85 2.05 -1.6 L3.35 -2.35" fill="#bfbfbf" fill-rule="evenodd" stroke="none"/>
    </g>
  </defs>
</svg>
