<?xml version="1.0" encoding="UTF-8" standalone="no"?>
<svg xmlns:ffdec="https://www.free-decompiler.com/flash" xmlns:xlink="http://www.w3.org/1999/xlink" ffdec:objectType="frame" height="64.0px" width="71.35px" xmlns="http://www.w3.org/2000/svg">
  <g transform="matrix(1.0, 0.0, 0.0, 1.0, -0.05, 0.0)">
    <use ffdec:characterId="1325" height="64.0" transform="matrix(1.0, 0.0, 0.0, 1.0, 0.05, 0.0)" width="71.35" xlink:href="#shape0"/>
  </g>
  <defs>
    <g id="shape0" transform="matrix(1.0, 0.0, 0.0, 1.0, -0.05, 0.0)">
      <path d="M41.0 7.1 Q41.0 9.15 41.85 10.6 42.7 12.0 43.9 12.0 43.1 12.2 41.5 11.15 L40.05 10.05 39.9 9.95 Q37.95 9.5 37.15 7.55 L36.75 5.6 Q36.75 4.3 38.6 3.0 40.6 1.6 42.9 1.6 43.9 1.6 44.65 3.2 L43.7 3.65 42.65 3.0 41.15 4.75 40.2 4.75 Q40.1 6.05 41.0 7.1 M47.85 8.65 Q47.3 7.6 47.25 6.65 L47.25 5.95 47.85 8.65 M23.15 34.15 L24.7 34.25 26.15 35.25 26.75 34.25 Q26.75 34.95 26.4 35.45 26.05 35.9 25.55 35.9 L23.15 34.15 M25.25 31.25 L24.4 31.15 Q23.6 31.2 23.55 31.9 L22.35 31.4 Q22.45 30.55 23.25 29.05 24.2 27.2 25.35 26.35 L25.5 26.35 Q26.65 26.35 27.45 27.65 28.05 28.6 28.2 29.85 L25.25 31.25" fill="#b99d75" fill-rule="evenodd" stroke="none"/>
      <path d="M41.0 7.1 L41.95 6.8 42.4 6.0 Q42.45 5.5 42.1 5.15 41.7 4.75 41.15 4.75 L42.65 3.0 43.7 3.65 Q43.3 4.2 43.2 5.05 L43.2 5.8 45.5 5.75 45.2 9.3 Q45.9 8.75 46.3 8.8 46.75 8.85 46.75 9.6 46.75 10.6 43.9 12.0 42.7 12.0 41.85 10.6 41.0 9.15 41.0 7.1 M44.6 7.5 L44.15 7.2 Q43.9 7.2 43.7 7.5 L43.5 8.2 43.7 8.9 44.15 9.2 44.6 8.9 44.8 8.2 44.6 7.5 M24.7 34.25 L26.75 34.25 26.15 35.25 24.7 34.25 M53.25 34.2 L54.55 33.2 56.0 32.25 52.4 36.0 52.55 35.35 53.25 34.2 M35.1 36.8 L42.95 37.35 50.75 36.5 50.4 36.95 Q50.15 37.5 50.45 38.05 L49.65 38.0 48.6 37.75 45.45 38.25 39.95 38.4 38.85 37.95 35.1 36.8 M47.4 34.2 Q48.75 34.2 50.75 35.7 L35.85 35.4 47.4 34.2 M28.2 29.85 L28.25 30.75 27.1 30.6 26.95 32.75 25.95 33.1 Q24.8 33.25 24.1 32.55 L24.3 32.2 25.45 32.15 Q25.7 31.8 25.25 31.25 L28.2 29.85" fill="#957a3e" fill-rule="evenodd" stroke="none"/>
      <path d="M37.95 11.5 L38.0 15.5 Q37.45 13.45 37.65 12.3 L37.95 11.5 M41.1 22.1 L41.2 21.9 41.2 21.95 41.1 22.1 M41.3 21.75 L47.25 10.9 46.2 15.4 41.25 21.9 41.3 21.75 M44.8 20.35 L39.5 33.8 37.5 33.2 39.75 31.0 38.4 30.65 44.8 20.35 M34.3 39.5 L34.55 38.85 37.1 39.75 32.15 54.45 31.25 56.5 28.6 56.05 Q29.95 53.9 31.95 49.35 34.35 43.75 35.2 39.95 L34.3 39.5 M49.3 13.65 L50.75 14.25 48.05 15.3 48.6 13.65 49.3 13.65 M44.5 14.35 L42.25 12.9 45.05 13.1 44.5 14.35 M43.85 15.25 L41.8 19.25 42.0 17.4 Q42.5 15.5 43.85 15.25 M41.05 20.7 L40.25 22.25 Q39.5 19.75 39.3 16.45 40.15 17.15 40.55 18.75 L41.05 20.7 M52.55 35.35 L52.05 35.15 52.2 34.75 53.25 34.2 52.55 35.35 M46.4 30.75 Q45.45 27.8 45.75 26.65 L45.9 26.9 48.25 33.75 Q47.4 33.7 46.4 30.75 M43.7 31.45 Q43.35 29.0 43.6 28.35 L44.95 33.75 44.1 33.75 43.7 31.45 M38.75 38.3 Q36.0 38.2 35.1 36.8 L38.85 37.95 38.75 38.3 M50.55 42.65 L50.45 42.55 49.35 39.75 51.15 41.0 51.45 41.3 50.55 42.65 M55.9 53.45 L57.9 56.7 Q58.25 56.25 57.6 54.55 L58.1 54.8 58.95 55.6 58.9 55.8 Q58.4 57.35 57.65 57.65 56.85 57.95 56.25 56.75 55.6 55.55 55.45 53.15 L55.9 53.45 M58.5 48.35 L64.0 45.2 59.35 49.2 58.5 48.35 M39.75 11.2 L40.9 15.1 40.2 13.55 Q39.55 11.85 39.7 11.2 L39.75 11.2 M34.9 17.65 L38.0 16.8 38.0 17.85 34.9 17.65 M38.05 18.75 L26.8 19.65 30.8 18.7 38.05 18.75 M57.7 50.0 Q57.45 50.0 57.25 50.25 L57.05 50.85 51.45 41.3 Q53.95 43.9 57.7 50.0 M45.5 55.95 L52.45 51.8 53.2 53.3 47.85 55.95 45.5 55.95" fill="#7b5424" fill-rule="evenodd" stroke="none"/>
      <path d="M38.45 29.05 L39.75 26.15 41.1 22.1 41.2 21.95 41.25 21.9 46.2 15.4 44.8 20.35 38.4 30.65 37.95 30.65 37.75 30.6 38.45 29.05 M34.25 39.65 L34.3 39.5 35.2 39.95 Q34.35 43.75 31.95 49.35 29.95 53.9 28.6 56.05 L27.7 56.6 28.55 54.5 Q29.45 52.35 29.75 52.2 29.65 51.75 32.3 44.7 L33.15 43.05 Q33.95 41.35 34.25 39.65 M50.45 42.55 L50.55 42.65 57.25 53.7 57.6 54.55 Q58.25 56.25 57.9 56.7 L55.9 53.45 55.6 52.95 55.35 52.55 53.75 50.1 50.45 42.55 M38.0 17.85 L38.05 18.75 30.8 18.7 34.9 17.65 38.0 17.85" fill="#8b6a38" fill-rule="evenodd" stroke="none"/>
      <path d="M50.55 42.65 L51.45 41.3 57.05 50.85 57.65 51.9 Q58.2 53.05 58.15 53.5 L57.25 53.7 50.55 42.65 M53.75 50.1 L55.35 52.55 Q54.7 52.55 54.25 51.85 53.75 51.1 53.75 50.1 M55.6 52.95 L55.9 53.45 55.45 53.15 55.6 52.95" fill="#7e5625" fill-rule="evenodd" stroke="none"/>
      <path d="M31.25 56.5 L30.5 57.65 30.1 58.4 29.2 58.7 Q28.25 58.7 27.7 56.6 L28.6 56.05 31.25 56.5 M57.6 54.55 L57.25 53.7 58.15 53.5 Q58.2 53.05 57.65 51.9 L57.05 50.85 57.25 50.25 Q57.45 50.0 57.7 50.0 L59.25 52.6 Q59.85 55.35 59.4 56.2 L58.95 55.6 58.1 54.8 57.6 54.55 M44.35 48.45 L42.85 48.4 Q42.4 46.25 42.3 44.05 42.1 39.7 43.75 39.75 44.4 42.15 44.4 43.65 L44.35 48.45" fill="#745023" fill-rule="evenodd" stroke="none"/>
      <path d="M12.85 58.45 Q16.95 56.85 18.55 58.5 20.8 60.8 24.75 60.8 29.7 59.35 31.9 57.7 L32.2 57.65 34.6 57.35 33.0 57.7 33.0 59.2 33.6 59.4 34.9 59.6 38.4 59.1 Q41.15 58.25 41.75 56.5 L41.05 55.75 43.5 50.75 44.85 49.5 Q46.3 51.05 46.3 52.15 46.3 53.15 45.9 54.5 L43.75 56.0 43.95 57.2 Q44.1 57.7 44.75 57.7 48.3 57.7 51.1 56.4 54.0 55.05 54.1 55.05 55.75 59.7 56.75 59.7 57.75 59.7 61.3 57.95 L62.6 57.75 62.65 57.75 Q54.9 61.7 50.25 62.95 46.25 64.0 40.25 64.0 28.35 64.0 26.25 62.95 26.3 62.35 24.7 62.75 L22.35 63.3 Q19.25 63.3 16.45 62.0 13.3 60.55 12.85 58.45 M66.1 57.2 L68.0 56.8 Q69.95 56.15 70.25 55.05 L71.25 55.2 71.4 58.25 Q71.4 58.65 69.95 59.0 L68.25 59.3 66.0 58.65 64.5 57.95 66.1 57.2 M47.85 55.95 L44.95 56.15 45.5 55.95 47.85 55.95" fill="#625b4d" fill-rule="evenodd" stroke="none"/>
      <path d="M41.15 4.75 Q41.7 4.75 42.1 5.15 42.45 5.5 42.4 6.0 L41.95 6.8 41.0 7.1 Q40.1 6.05 40.2 4.75 L41.15 4.75 M43.9 12.0 Q46.75 10.6 46.75 9.6 46.75 8.85 46.3 8.8 45.9 8.75 45.2 9.3 L45.5 5.75 43.2 5.8 43.2 5.05 Q43.3 4.2 43.7 3.65 L44.65 3.2 Q43.9 1.6 42.9 1.6 40.6 1.6 38.6 3.0 36.75 4.3 36.75 5.6 L37.15 7.55 Q37.95 9.5 39.9 9.95 L40.05 10.05 41.5 11.15 Q43.1 12.2 43.9 12.0 M44.6 7.5 L44.8 8.2 44.6 8.9 44.15 9.2 43.7 8.9 43.5 8.2 43.7 7.5 Q43.9 7.2 44.15 7.2 L44.6 7.5 M47.25 5.95 L47.25 6.65 Q47.3 7.6 47.85 8.65 L51.75 4.0 48.6 13.65 48.05 15.3 50.75 14.25 49.3 13.65 Q52.5 11.85 57.65 10.35 62.25 9.05 64.25 9.0 63.35 9.85 59.95 11.2 55.05 13.2 53.65 13.9 45.45 17.85 45.45 23.25 45.45 23.9 48.0 28.2 L50.55 32.4 Q50.6 31.3 51.15 30.25 51.9 28.95 53.25 28.35 L51.85 32.85 Q53.5 31.65 57.15 30.95 L53.85 38.1 58.0 47.35 66.75 43.0 63.8 46.95 Q60.9 50.35 59.65 50.75 L61.35 54.15 62.15 52.65 Q62.6 51.5 63.15 51.5 64.15 51.5 70.25 55.05 69.95 56.15 68.0 56.8 L66.1 57.2 62.65 57.75 62.6 57.75 61.6 57.4 61.3 57.95 Q57.75 59.7 56.75 59.7 55.75 59.7 54.1 55.05 54.0 55.05 51.1 56.4 48.3 57.7 44.75 57.7 44.1 57.7 43.95 57.2 L43.75 56.0 45.9 54.5 52.05 50.9 47.15 39.75 45.25 39.75 Q45.25 48.65 44.85 49.5 L43.5 50.75 41.0 50.25 41.0 48.2 Q41.65 48.2 39.45 39.65 L35.1 51.7 Q37.35 50.75 39.3 52.65 40.85 54.15 41.05 55.75 L41.75 56.5 Q41.15 58.25 38.4 59.1 L34.9 59.6 33.6 59.4 33.0 59.2 33.0 57.7 34.6 57.35 39.5 56.35 38.65 54.65 38.25 53.5 38.2 53.35 37.45 53.1 37.25 53.2 36.65 53.7 36.0 53.0 35.2 52.05 34.55 53.3 33.95 55.25 32.1 57.5 31.9 57.7 Q29.7 59.35 24.75 60.8 20.8 60.8 18.55 58.5 16.95 56.85 12.85 58.45 L9.9 59.8 7.4 60.4 3.65 59.65 Q0.05 58.45 0.05 56.2 0.55 53.15 2.2 51.35 5.5 47.8 11.3 53.6 L11.45 55.05 9.7 53.95 3.55 54.4 2.5 54.7 Q2.05 55.0 2.05 55.4 L1.7 55.95 Q1.5 56.2 2.7 57.45 3.85 58.7 4.55 58.7 L8.4 57.45 13.4 55.75 Q12.6 55.3 12.25 54.35 L12.0 53.5 12.65 53.25 20.65 50.75 Q21.65 50.75 22.85 51.9 L23.25 52.05 Q29.4 49.65 32.3 44.7 29.65 51.75 29.75 52.2 29.45 52.35 28.55 54.5 L27.7 56.6 Q28.25 58.7 29.2 58.7 L30.1 58.4 30.5 57.65 31.25 56.5 32.15 54.45 37.1 39.75 34.55 38.85 34.3 39.5 34.25 39.65 34.35 39.05 34.5 37.3 Q34.5 36.0 33.5 33.75 36.7 33.55 37.95 30.65 L38.4 30.65 39.75 31.0 37.5 33.2 39.5 33.8 44.8 20.35 46.2 15.4 47.25 10.9 41.3 21.75 41.2 21.9 41.1 22.1 39.75 26.15 38.45 29.05 38.55 28.35 38.4 23.2 38.15 21.4 37.85 20.3 32.3 21.55 Q26.75 22.9 26.75 23.5 26.75 24.8 28.55 27.4 30.3 30.05 30.3 30.4 30.3 31.4 30.0 31.65 26.3 37.2 25.3 37.2 24.7 37.2 23.55 35.85 L22.5 34.5 Q24.25 35.95 25.55 35.9 26.05 35.9 26.4 35.45 26.75 34.95 26.75 34.25 L24.7 34.25 23.15 34.15 Q22.05 33.15 21.4 31.9 L21.0 30.7 Q21.0 29.2 24.0 21.15 L16.6 21.85 16.85 20.25 38.0 15.5 37.95 11.5 36.05 8.3 Q35.65 7.55 35.65 6.45 35.8 4.75 36.35 3.15 37.5 0.0 39.65 0.0 43.65 0.0 45.25 1.15 47.0 2.45 47.25 5.95 M43.85 15.25 Q42.5 15.5 42.0 17.4 L41.8 19.25 43.85 15.25 M44.5 14.35 L45.05 13.1 42.25 12.9 44.5 14.35 M53.25 34.2 L52.2 34.75 52.05 35.15 52.55 35.35 52.4 36.0 56.0 32.25 54.55 33.2 53.25 34.2 M41.05 20.7 L40.55 18.75 Q40.15 17.15 39.3 16.45 39.5 19.75 40.25 22.25 L41.05 20.7 M46.4 30.75 Q47.4 33.7 48.25 33.75 L45.9 26.9 45.75 26.65 Q45.45 27.8 46.4 30.75 M41.9 33.25 Q41.85 33.85 42.25 33.8 L42.0 32.7 41.9 33.25 M43.7 31.45 L44.1 33.75 44.95 33.75 43.6 28.35 Q43.35 29.0 43.7 31.45 M39.95 38.4 L45.45 38.25 48.6 37.75 49.65 38.0 50.45 38.05 Q50.15 37.5 50.4 36.95 L50.75 36.5 42.95 37.35 35.1 36.8 Q36.0 38.2 38.75 38.3 L39.95 38.4 M51.45 41.3 L51.15 41.0 49.35 39.75 50.45 42.55 53.75 50.1 Q53.75 51.1 54.25 51.85 54.7 52.55 55.35 52.55 L55.6 52.95 55.45 53.15 Q55.6 55.55 56.25 56.75 56.85 57.95 57.65 57.65 58.4 57.35 58.9 55.8 L58.95 55.6 59.4 56.2 Q59.85 55.35 59.25 52.6 L57.7 50.0 Q53.95 43.9 51.45 41.3 M44.35 48.45 L44.4 43.65 Q44.4 42.15 43.75 39.75 42.1 39.7 42.3 44.05 42.4 46.25 42.85 48.4 L44.35 48.45 M58.5 48.35 L59.35 49.2 64.0 45.2 58.5 48.35 M47.4 34.2 L35.85 35.4 50.75 35.7 Q48.75 34.2 47.4 34.2 M39.75 11.2 L39.7 11.2 Q39.55 11.85 40.2 13.55 L40.9 15.1 39.75 11.2 M38.0 17.85 L38.0 16.8 34.9 17.65 30.8 18.7 26.8 19.65 38.05 18.75 38.0 17.85 M25.25 31.25 Q25.7 31.8 25.45 32.15 L24.3 32.2 24.1 32.55 Q24.8 33.25 25.95 33.1 L26.95 32.75 27.1 30.6 28.25 30.75 28.2 29.85 Q28.05 28.6 27.45 27.65 26.65 26.35 25.5 26.35 L25.35 26.35 Q24.2 27.2 23.25 29.05 22.45 30.55 22.35 31.4 L23.55 31.9 Q23.6 31.2 24.4 31.15 L25.25 31.25 M26.85 53.3 L27.05 52.65 22.1 53.5 Q21.5 53.5 21.3 52.75 L21.25 51.95 18.7 52.65 17.25 53.2 13.9 54.5 Q19.9 58.5 22.75 58.5 L24.65 58.35 Q25.9 57.9 26.1 55.9 L26.85 53.3 M68.55 54.35 L67.85 53.75 Q66.65 53.15 64.15 53.25 63.55 53.25 63.15 53.75 62.7 54.25 62.7 54.95 L62.55 55.55 63.05 55.7 65.35 55.5 68.85 55.0 68.55 54.35 M47.85 55.95 L53.2 53.3 52.45 51.8 45.5 55.95 44.95 56.15 47.85 55.95" fill="#61421d" fill-rule="evenodd" stroke="none"/>
      <path d="M12.65 53.25 L12.0 53.5 12.25 54.35 Q12.6 55.3 13.4 55.75 L8.4 57.45 4.55 58.7 Q3.85 58.7 2.7 57.45 1.5 56.2 1.7 55.95 L3.95 56.6 6.3 56.95 Q7.35 56.95 8.2 56.4 9.4 55.65 9.7 53.95 L11.45 55.05 11.3 53.6 12.65 53.25 M2.05 55.4 Q2.05 55.0 2.5 54.7 L3.55 54.4 2.05 55.4 M32.1 57.5 L33.95 55.25 38.65 54.65 39.5 56.35 34.6 57.35 32.2 57.65 32.1 57.5 M34.55 53.3 L35.2 52.05 36.0 53.0 34.55 53.3 M37.25 53.2 L37.45 53.1 38.2 53.35 38.25 53.5 37.25 53.2 M18.7 52.65 L21.25 51.95 21.3 52.75 Q21.5 53.5 22.1 53.5 L27.05 52.65 26.85 53.3 26.15 53.45 Q25.25 53.75 24.1 54.75 L24.05 56.0 26.1 55.9 Q25.9 57.9 24.65 58.35 L22.75 58.5 Q19.9 58.5 13.9 54.5 L17.25 53.2 16.95 53.95 Q16.65 54.85 16.75 55.7 19.7 55.4 21.25 53.75 20.9 53.0 18.7 52.65 M64.15 53.25 Q66.65 53.15 67.85 53.75 L68.55 54.35 64.15 53.25 M65.35 55.5 L63.05 55.7 62.55 55.55 62.7 54.95 65.35 55.5" fill="#4d692e" fill-rule="evenodd" stroke="none"/>
      <path d="M1.7 55.95 L2.05 55.4 3.55 54.4 9.7 53.95 Q9.4 55.65 8.2 56.4 7.35 56.95 6.3 56.95 L3.95 56.6 1.7 55.95 M33.95 55.25 L34.55 53.3 36.0 53.0 36.65 53.7 37.25 53.2 38.25 53.5 38.65 54.65 33.95 55.25 M18.7 52.65 Q20.9 53.0 21.25 53.75 19.7 55.4 16.75 55.7 16.65 54.85 16.95 53.95 L17.25 53.2 18.7 52.65 M26.1 55.9 L24.05 56.0 24.1 54.75 Q25.25 53.75 26.15 53.45 L26.85 53.3 26.1 55.9 M68.55 54.35 L68.85 55.0 65.35 55.5 62.7 54.95 Q62.7 54.25 63.15 53.75 63.55 53.25 64.15 53.25 L68.55 54.35" fill="#6c8130" fill-rule="evenodd" stroke="none"/>
    </g>
  </defs>
</svg>
