<?xml version="1.0" encoding="UTF-8" standalone="no"?>
<svg xmlns:ffdec="https://www.free-decompiler.com/flash" xmlns:xlink="http://www.w3.org/1999/xlink" ffdec:objectType="frame" height="197.05px" width="63.0px" xmlns="http://www.w3.org/2000/svg">
  <g transform="matrix(1.0, 0.0, 0.0, 1.0, 32.55, 8.4)">
    <use ffdec:characterId="186" height="23.1" transform="matrix(7.0, 0.0, 0.0, 7.0, -24.5, -1.75)" width="7.75" xlink:href="#shape0"/>
  </g>
  <defs>
    <g id="shape0" transform="matrix(1.0, 0.0, 0.0, 1.0, 3.5, 0.25)">
      <path d="M2.3 7.85 Q2.2 9.0 1.9 10.15 0.45 15.45 2.6 20.15 2.75 20.5 2.5 20.6 L2.35 20.55 Q2.7 21.3 1.7 22.45 1.5 22.75 1.1 22.8 L0.85 22.85 Q0.1 22.95 -0.4 22.45 -0.55 22.3 -0.6 22.05 L-0.7 21.7 Q-0.4 20.3 -0.15 18.85 -0.15 18.45 -0.05 18.1 0.15 16.75 0.3 15.35 -0.2 15.9 -1.05 15.65 -1.65 15.45 -2.0 14.85 -2.15 14.55 -2.25 14.3 L-2.25 13.8 Q-2.45 13.35 -2.25 12.7 L-2.15 12.2 -2.15 12.05 Q-2.2 11.4 -2.2 10.65 -2.2 9.3 -2.85 8.05 -3.35 7.05 -3.4 5.9 -3.8 3.3 -2.45 1.25 -1.5 -0.25 0.05 -0.15 3.4 -0.9 4.15 3.65 4.5 6.0 3.3 7.65 2.85 8.3 2.3 7.85 M0.7 17.55 L0.85 17.7 0.75 17.3 0.7 17.55 M-1.1 9.95 L-1.05 9.9 -1.05 9.75 -1.1 9.95 M-0.15 14.35 L-0.1 14.3 -0.1 14.25 -0.2 14.35 -0.15 14.35 M-0.6 14.85 L-0.6 14.85" fill="#666666" fill-rule="evenodd" stroke="none"/>
      <path d="M0.0 3.3 Q-0.7 3.15 -1.1 3.9 -1.45 4.6 -2.25 4.8 -2.55 4.75 -2.6 4.45 -2.7 3.85 -2.75 3.3 -1.75 -0.25 1.45 1.15 3.7 2.15 2.45 4.1 L1.85 3.85 1.9 3.85 Q2.15 4.2 1.85 4.55 L1.45 5.1 Q1.15 5.3 0.8 5.25 0.2 5.2 -0.05 4.75 L-0.1 4.6 -0.1 4.3 -0.05 3.75 Q0.0 3.5 0.05 3.35 L0.1 3.3 0.0 3.3 M2.55 4.65 Q3.2 4.6 3.55 5.2 4.05 6.1 3.35 6.9 L3.05 6.95 2.6 6.95 Q2.25 6.95 1.95 6.85 L1.85 6.7 1.8 6.45 1.75 6.15 Q1.75 5.65 1.95 5.2 2.2 4.8 2.55 4.65 M1.05 19.35 Q2.45 20.3 1.05 21.35 0.25 22.0 -0.1 21.15 -0.05 20.55 0.2 20.0 0.45 19.4 1.05 19.35 M-0.4 5.85 Q0.15 6.35 -0.1 7.05 -0.3 7.55 -0.7 7.95 0.25 8.05 0.55 8.95 1.05 10.7 -0.6 10.05 -0.7 10.0 -0.8 9.9 L-0.8 9.6 -0.75 9.35 -0.75 9.2 -1.3 9.2 Q-1.65 9.2 -2.0 9.1 -2.55 8.95 -2.7 8.45 -2.55 7.3 -1.8 6.4 -1.2 5.7 -0.4 5.85 M-0.7 11.2 Q-0.1 11.6 0.1 12.4 0.45 13.8 -0.5 14.75 L-0.8 14.8 Q-1.35 14.85 -1.65 14.35 -1.9 13.95 -1.95 13.6 -2.25 12.65 -1.9 12.0 -1.55 11.25 -0.7 11.2" fill="#4d4d4d" fill-rule="evenodd" stroke="none"/>
      <path d="M3.15 6.55 Q2.9 6.55 2.85 6.35 2.85 6.05 3.05 5.9 3.25 5.75 3.45 5.8 3.85 6.4 3.15 6.55 M1.6 2.75 Q1.1 2.7 0.9 2.2 0.85 2.05 0.8 1.9 1.25 1.25 1.7 1.95 2.0 2.45 1.6 2.75 M-2.05 2.55 L-2.1 2.5 -2.1 2.35 Q-1.95 1.2 -0.75 1.1 0.15 1.05 0.2 1.8 -0.2 1.85 -0.45 2.1 -1.05 2.6 -1.75 2.7 L-1.9 2.7 -2.05 2.55 M-0.8 6.1 Q-0.95 6.05 -1.05 5.9 L-1.15 5.65 Q-1.2 5.25 -1.05 4.95 -0.9 4.6 -0.55 4.45 -0.25 4.65 -0.25 5.2 -0.3 5.85 -0.7 6.1 L-0.8 6.1 M-0.6 14.05 L-0.75 14.35 Q-0.85 14.5 -1.0 14.5 L-1.4 14.45 Q-1.6 14.35 -1.65 14.2 -1.7 13.7 -1.45 13.3 -1.25 13.0 -0.9 13.0 -0.35 13.35 -0.6 14.05" fill="#ffffff" fill-rule="evenodd" stroke="none"/>
    </g>
  </defs>
</svg>
