<?xml version="1.0" encoding="UTF-8" standalone="no"?>
<svg xmlns:ffdec="https://www.free-decompiler.com/flash" xmlns:xlink="http://www.w3.org/1999/xlink" ffdec:objectType="frame" height="184.45px" width="118.3px" xmlns="http://www.w3.org/2000/svg">
  <g transform="matrix(1.0, 0.0, 0.0, 1.0, 58.45, 93.1)">
    <use ffdec:characterId="407" height="26.25" transform="matrix(7.0, 0.0, 0.0, 7.0, -58.45, -93.1)" width="16.9" xlink:href="#morphshape0"/>
  </g>
  <defs>
    <g id="morphshape0" transform="matrix(1.0, 0.0, 0.0, 1.0, 8.35, 13.3)">
      <path d="M-8.4 -1.95 L-8.4 -1.95 Q-8.4 -1.25 -7.65 -0.05 L-7.6 0.05 Q-7.1 0.85 -6.9 1.4 -6.8 1.65 -6.8 1.85 -6.8 2.15 -6.85 2.3 L-6.9 2.45 -7.1 2.6 Q-7.35 2.8 -7.75 2.95 L-7.8 3.0 Q-7.85 3.15 -7.9 3.25 -8.0 3.5 -8.0 3.75 L-8.05 3.9 -8.05 3.95 -8.05 4.1 Q-8.0 4.45 -7.75 4.8 L-7.7 4.85 -7.65 4.95 -7.6 5.1 -7.55 5.25 Q-7.4 5.5 -7.1 5.8 L-6.9 5.95 Q-6.3 6.6 -5.95 7.15 L-5.9 7.2 Q-5.85 7.55 -5.85 7.95 L-5.85 7.95 -5.85 8.1 -5.85 8.2 Q-5.9 8.55 -5.85 8.85 L-5.8 8.95 -5.85 9.1 -5.85 9.1 Q-5.8 9.45 -5.8 9.75 L-5.8 9.9 -5.6 10.3 -5.4 10.6 -5.35 10.65 -5.35 10.7 -5.25 10.7 -5.0 10.85 -4.95 10.9 -4.95 10.9 -4.75 10.9 -4.0 11.0 -3.75 11.05 -3.6 11.05 Q-3.2 11.15 -3.0 11.25 L-2.9 11.35 -2.9 11.35 Q-2.85 11.45 -2.85 11.55 L-2.7 11.7 -2.6 11.85 -2.35 12.1 -2.3 12.15 -2.2 12.2 -2.05 12.3 -1.95 12.35 -1.7 12.4 -1.0 12.55 -0.9 12.55 Q-0.15 12.65 0.55 12.55 L0.6 12.55 Q1.0 12.5 1.4 12.45 L1.55 12.45 Q1.95 12.4 2.3 12.35 L2.5 12.35 2.8 12.4 3.0 12.35 3.05 12.35 3.15 12.3 Q3.45 12.25 3.65 12.1 L4.0 11.95 Q4.25 11.8 4.4 11.55 L4.4 11.5 4.45 11.5 4.6 11.0 Q4.5 10.55 4.6 10.05 4.65 9.6 4.85 9.15 L5.0 8.95 Q5.1 8.7 5.3 8.55 5.6 8.25 6.05 8.15 L6.25 8.1 6.75 8.05 6.8 8.05 7.0 7.9 7.0 7.9 7.1 7.85 7.2 7.8 7.35 7.65 Q7.55 7.5 7.7 7.3 L7.8 7.2 7.85 7.05 Q7.95 6.8 7.95 6.45 L7.95 6.05 7.95 5.8 7.9 5.55 Q7.85 5.4 7.75 5.25 L7.6 4.9 7.55 4.7 Q7.4 4.3 7.4 4.15 L7.4 3.65 Q7.4 3.55 7.4 3.45 7.5 3.3 7.65 3.15 L7.75 3.05 7.75 3.0 7.8 3.0 7.9 2.85 7.9 2.85 7.95 2.75 8.2 2.45 8.35 2.25 8.45 2.15 8.5 2.05 8.55 1.9 8.55 1.85 Q8.6 1.55 8.4 1.15 L8.2 0.7 8.2 0.65 8.1 0.55 Q7.95 0.35 7.85 0.05 L7.8 -0.1 7.8 -0.15 Q7.7 -0.4 7.7 -0.65 L7.7 -0.85 7.7 -1.0 Q7.75 -1.2 7.85 -1.45 L7.95 -1.65 8.05 -1.8 8.1 -1.95 8.15 -2.2 8.15 -2.3 8.15 -2.55 8.1 -2.8 8.1 -2.85 Q8.05 -3.1 7.95 -3.2 L7.9 -3.25 7.85 -3.3 7.7 -3.55 Q7.45 -3.9 7.35 -4.3 7.35 -4.5 7.35 -4.75 L7.4 -5.1 7.4 -5.1 7.45 -5.35 7.4 -5.5 Q7.45 -5.95 7.45 -6.35 L7.45 -6.4 7.4 -6.6 7.4 -6.6 7.4 -6.6 7.4 -6.65 7.4 -6.8 7.4 -6.85 7.35 -7.05 Q7.25 -7.35 6.95 -7.65 6.15 -8.05 5.75 -8.15 5.65 -8.2 5.55 -8.25 5.1 -8.5 4.75 -9.2 4.4 -9.9 4.35 -10.35 L4.35 -10.45 4.35 -10.7 4.35 -10.75 4.35 -10.95 4.2 -11.3 3.95 -11.55 3.9 -11.65 3.85 -11.65 3.65 -11.75 3.5 -11.8 3.1 -11.9 Q2.9 -11.95 2.75 -11.95 2.3 -12.15 2.0 -12.4 L1.75 -12.6 1.55 -12.8 1.5 -12.85 Q1.15 -13.05 0.8 -13.25 -0.15 -13.5 -1.05 -13.0 L-1.35 -12.8 -1.45 -12.6 Q-1.55 -12.4 -1.6 -12.0 L-1.7 -11.65 -1.75 -11.45 Q-2.1 -11.0 -3.2 -10.9 L-3.7 -10.9 -4.05 -10.9 -4.1 -10.85 -4.35 -10.75 -4.45 -10.7 -4.55 -10.7 -4.65 -10.65 -4.9 -10.55 -5.1 -10.35 -5.15 -10.3 -5.15 -10.25 -5.2 -10.2 Q-5.4 -10.0 -5.55 -9.85 L-5.55 -9.8 -5.6 -9.75 -5.55 -9.65 -5.55 -9.45 -5.55 -9.4 -5.6 -9.2 -5.6 -9.15 Q-5.6 -8.95 -5.55 -8.6 L-5.5 -8.35 -5.5 -8.3 Q-5.45 -8.0 -5.4 -7.75 L-5.45 -7.45 -5.45 -7.4 -5.5 -7.3 -5.45 -7.25 -5.45 -7.2 -5.45 -6.95 -5.55 -6.9 -6.15 -6.5 -6.2 -6.45 -6.25 -6.4 -6.4 -5.8 -6.45 -5.45 -6.4 -5.4 Q-6.35 -5.15 -6.4 -4.85 -6.45 -4.55 -6.85 -4.15 L-7.15 -3.85 -7.5 -3.45 -7.7 -3.3 -7.9 -2.95 -7.95 -2.8 -8.15 -2.35 -8.35 -1.8 -8.35 -1.75" fill="#ff0000" fill-rule="evenodd" stroke="none"/>
      <path d="M-8.35 -1.75 L-8.35 -1.8 -8.15 -2.35 -7.95 -2.8 -7.9 -2.95 -7.7 -3.3 -7.5 -3.45 -7.15 -3.85 -6.85 -4.15 Q-6.45 -4.55 -6.4 -4.85 -6.35 -5.15 -6.4 -5.4 L-6.45 -5.45 -6.4 -5.8 -6.25 -6.4 -6.2 -6.45 -6.15 -6.5 -5.55 -6.9 -5.45 -6.95 -5.45 -7.2 -5.45 -7.25 -5.5 -7.3 -5.45 -7.4 -5.45 -7.45 -5.4 -7.75 Q-5.45 -8.0 -5.5 -8.3 L-5.5 -8.35 -5.55 -8.6 Q-5.6 -8.95 -5.6 -9.15 L-5.6 -9.2 -5.55 -9.4 -5.55 -9.45 -5.55 -9.65 -5.6 -9.75 -5.55 -9.8 -5.55 -9.85 Q-5.4 -10.0 -5.2 -10.2 L-5.15 -10.25 -5.15 -10.3 -5.1 -10.35 -4.9 -10.55 -4.65 -10.65 -4.55 -10.7 -4.45 -10.7 -4.35 -10.75 -4.1 -10.85 -4.05 -10.9 -3.7 -10.9 -3.2 -10.9 Q-2.1 -11.0 -1.75 -11.45 L-1.7 -11.65 -1.6 -12.0 Q-1.55 -12.4 -1.45 -12.6 L-1.35 -12.8 -1.05 -13.0 Q-0.15 -13.5 0.8 -13.25 1.15 -13.05 1.5 -12.85 L1.55 -12.8 1.75 -12.6 2.0 -12.4 Q2.3 -12.15 2.75 -11.95 2.9 -11.95 3.1 -11.9 L3.5 -11.8 3.65 -11.75 3.85 -11.65 3.9 -11.65 3.95 -11.55 4.2 -11.3 4.35 -10.95 4.35 -10.75 4.35 -10.7 4.35 -10.45 4.35 -10.35 Q4.4 -9.9 4.75 -9.2 5.1 -8.5 5.55 -8.25 5.65 -8.2 5.75 -8.15 6.15 -8.05 6.95 -7.65 7.25 -7.35 7.35 -7.05 L7.4 -6.85 7.4 -6.8 7.4 -6.65 7.4 -6.6 7.4 -6.6 7.4 -6.6 7.45 -6.4 7.45 -6.35 Q7.45 -5.95 7.4 -5.5 L7.45 -5.35 7.4 -5.1 7.4 -5.1 7.35 -4.75 Q7.35 -4.5 7.35 -4.3 7.45 -3.9 7.7 -3.55 L7.85 -3.3 7.9 -3.25 7.95 -3.2 Q8.05 -3.1 8.1 -2.85 L8.1 -2.8 8.15 -2.55 8.15 -2.3 8.15 -2.2 8.1 -1.95 8.05 -1.8 7.95 -1.65 7.85 -1.45 Q7.75 -1.2 7.7 -1.0 L7.7 -0.85 7.7 -0.65 Q7.7 -0.4 7.8 -0.15 L7.8 -0.1 7.85 0.05 Q7.95 0.35 8.1 0.55 L8.2 0.65 8.2 0.7 8.4 1.15 Q8.6 1.55 8.55 1.85 L8.55 1.9 8.5 2.05 8.45 2.15 8.35 2.25 8.2 2.45 7.95 2.75 7.9 2.85 7.9 2.85 7.8 3.0 7.75 3.0 7.75 3.05 7.65 3.15 Q7.5 3.3 7.4 3.45 7.4 3.55 7.4 3.65 L7.4 4.15 Q7.4 4.3 7.55 4.7 L7.6 4.9 7.75 5.25 Q7.85 5.4 7.9 5.55 L7.95 5.8 7.95 6.05 7.95 6.45 Q7.95 6.8 7.85 7.05 L7.8 7.2 7.7 7.3 Q7.55 7.5 7.35 7.65 L7.2 7.8 7.1 7.85 7.0 7.9 7.0 7.9 6.8 8.05 6.75 8.05 6.25 8.1 6.05 8.15 Q5.6 8.25 5.3 8.55 5.1 8.7 5.0 8.95 L4.85 9.15 Q4.65 9.6 4.6 10.05 4.5 10.55 4.6 11.0 L4.45 11.5 4.4 11.5 4.4 11.55 Q4.25 11.8 4.0 11.95 L3.65 12.1 Q3.45 12.25 3.15 12.3 L3.05 12.35 3.0 12.35 2.8 12.4 2.5 12.35 2.3 12.35 Q1.95 12.4 1.55 12.45 L1.4 12.45 Q1.0 12.5 0.6 12.55 L0.55 12.55 Q-0.15 12.65 -0.9 12.55 L-1.0 12.55 -1.7 12.4 -1.95 12.35 -2.05 12.3 -2.2 12.2 -2.3 12.15 -2.35 12.1 -2.6 11.85 -2.7 11.7 -2.85 11.55 Q-2.85 11.45 -2.9 11.35 L-2.9 11.35 -3.0 11.25 Q-3.2 11.15 -3.6 11.05 L-3.75 11.05 -4.0 11.0 -4.75 10.9 -4.95 10.9 -4.95 10.9 -5.0 10.85 -5.25 10.7 -5.35 10.7 -5.35 10.65 -5.4 10.6 -5.6 10.3 -5.8 9.9 -5.8 9.75 Q-5.8 9.45 -5.85 9.1 L-5.85 9.1 -5.8 8.95 -5.85 8.85 Q-5.9 8.55 -5.85 8.2 L-5.85 8.1 -5.85 7.95 -5.85 7.95 Q-5.85 7.55 -5.9 7.2 L-5.95 7.15 Q-6.3 6.6 -6.9 5.95 L-7.1 5.8 Q-7.4 5.5 -7.55 5.25 L-7.6 5.1 -7.65 4.95 -7.7 4.85 -7.75 4.8 Q-8.0 4.45 -8.05 4.1 L-8.05 3.95 -8.05 3.9 -8.0 3.75 Q-8.0 3.5 -7.9 3.25 -7.85 3.15 -7.8 3.0 L-7.75 2.95 Q-7.35 2.8 -7.1 2.6 L-6.9 2.45 -6.85 2.3 Q-6.8 2.15 -6.8 1.85 -6.8 1.65 -6.9 1.4 -7.1 0.85 -7.6 0.05 L-7.65 -0.05 Q-8.4 -1.25 -8.4 -1.95 L-8.4 -1.95" fill="none" stroke="#000000" stroke-linecap="round" stroke-linejoin="round" stroke-opacity="0.0" stroke-width="0.0"/>
    </g>
  </defs>
</svg>
