<?xml version="1.0" encoding="UTF-8" standalone="no"?>
<svg xmlns:ffdec="https://www.free-decompiler.com/flash" xmlns:xlink="http://www.w3.org/1999/xlink" ffdec:objectType="frame" height="172.95px" width="302.45px" xmlns="http://www.w3.org/2000/svg">
  <g transform="matrix(1.0, 0.0, 0.0, 1.0, -2.1, 37.35)">
    <use ffdec:characterId="284" height="172.95" transform="matrix(1.0, 0.0, 0.0, 1.0, 2.1, -37.35)" width="302.45" xlink:href="#shape0"/>
  </g>
  <defs>
    <g id="shape0" transform="matrix(1.0, 0.0, 0.0, 1.0, -2.1, 37.35)">
      <path d="M116.45 -33.0 L116.35 -33.1 Q116.65 -34.1 117.1 -34.5 L117.3 -34.95 Q117.6 -36.7 118.8 -37.05 L119.15 -37.1 119.5 -37.3 Q120.7 -37.65 121.5 -36.2 L121.7 -35.95 Q123.65 -35.65 124.55 -28.55 L125.5 -13.9 Q125.45 -13.2 125.55 -12.45 126.25 -11.6 126.6 -9.5 126.65 -8.15 126.35 -6.75 L125.8 -5.3 125.95 -3.0 129.3 25.15 128.95 24.4 Q128.55 24.3 128.05 25.05 127.55 25.55 127.4 26.15 127.85 27.95 129.05 29.5 L129.55 27.4 132.4 50.35 Q133.65 63.95 134.75 71.85 135.85 84.0 137.45 95.5 L137.9 98.7 139.15 110.65 138.15 110.4 138.1 110.3 Q138.0 110.35 138.25 111.95 138.45 113.5 138.6 113.6 L139.25 113.65 139.35 113.6 Q141.8 123.85 142.25 127.25 L142.7 131.7 Q142.25 131.3 141.8 131.25 140.05 130.85 140.55 134.8 L140.7 135.55 140.55 135.6 140.2 135.5 139.85 135.35 Q137.8 134.95 136.95 131.85 136.55 130.5 136.05 126.2 135.65 122.95 135.65 113.0 L134.6 106.0 134.0 99.3 Q132.9 88.75 131.2 76.4 L129.15 60.5 128.95 58.7 128.7 56.95 128.5 55.45 128.1 51.65 127.15 44.4 126.7 39.35 125.4 30.7 123.7 18.75 122.85 13.45 120.95 -2.0 118.8 -12.4 116.65 -23.75 116.95 -23.25 Q118.6 -19.95 122.7 -15.45 L122.55 -16.2 120.35 -19.3 Q118.7 -21.7 118.55 -22.55 L118.7 -25.95 118.95 -28.75 Q118.7 -30.55 116.45 -33.0 M110.35 -18.0 Q113.3 -18.35 114.3 -10.55 L114.75 -4.65 Q114.65 -4.5 114.7 -4.25 L116.65 13.25 Q116.9 16.9 117.1 18.1 117.35 20.05 110.9 37.1 L109.85 39.7 109.7 38.55 109.55 38.45 107.25 38.4 107.1 38.75 Q107.0 38.75 107.25 40.15 L107.55 41.85 107.9 42.3 108.05 42.55 108.8 42.6 104.45 51.85 104.45 51.55 Q101.75 51.6 101.45 52.65 L101.75 53.0 Q102.0 53.45 102.65 53.4 103.15 53.4 103.9 52.7 L103.95 52.6 103.9 52.8 103.65 53.2 Q102.35 55.0 97.5 55.15 L96.6 55.15 Q95.05 53.25 91.95 52.95 L87.35 52.65 85.8 47.2 96.35 45.3 Q99.5 45.05 101.55 45.95 L107.5 30.2 107.55 29.0 104.1 28.1 100.6 27.1 Q99.3 27.3 92.05 29.55 85.1 31.7 77.9 32.5 75.75 32.7 75.3 28.8 74.95 25.65 75.1 25.0 75.25 24.1 76.65 24.15 L90.85 23.75 Q96.05 23.05 97.75 24.25 99.3 25.4 99.75 25.4 100.7 25.2 103.55 23.55 106.3 21.65 107.3 21.55 L109.5 21.85 110.5 22.4 Q113.0 15.0 112.5 7.65 112.15 3.55 110.85 -3.75 L109.9 -6.3 108.1 -11.4 Q107.7 -14.3 108.45 -16.2 109.1 -17.9 110.35 -18.0 M201.45 91.0 Q198.2 87.75 197.4 87.65 194.05 87.45 191.7 82.55 L191.6 82.35 213.15 84.1 Q213.1 85.0 213.35 86.75 213.45 88.0 214.8 90.75 215.5 92.15 216.25 93.0 L203.1 92.75 201.45 91.0 M167.75 80.6 L177.95 81.65 191.15 82.35 193.75 87.8 196.3 92.45 179.15 91.55 Q174.5 91.65 169.05 91.35 166.0 91.05 164.15 90.25 L162.55 90.7 Q160.45 90.55 156.45 83.6 152.45 76.7 150.25 76.7 145.95 76.5 146.55 81.7 L150.0 107.4 Q151.25 110.1 153.45 112.6 155.35 114.85 155.6 117.2 L155.7 120.25 Q155.35 123.0 153.15 122.65 149.0 122.05 145.2 100.6 143.25 89.7 142.1 77.7 140.2 62.55 142.55 60.9 145.0 59.05 152.8 69.45 157.0 73.05 163.3 81.15 164.7 80.5 167.75 80.6 M181.85 17.75 Q180.85 15.85 179.95 14.9 179.6 15.35 179.35 16.3 179.1 17.35 179.25 18.45 179.8 19.45 180.55 19.8 181.5 19.05 181.85 17.75 M230.2 44.3 Q230.5 44.25 231.7 45.3 232.6 46.15 233.65 46.2 234.75 46.05 235.15 45.6 L235.4 44.95 Q235.8 45.75 235.45 42.5 235.15 40.55 234.8 40.05 L234.45 39.15 Q231.95 39.75 231.05 41.4 L230.2 44.3 M260.55 90.6 Q257.15 86.3 255.25 90.35 L255.65 92.35 256.35 93.6 258.1 94.15 Q258.65 94.05 259.4 93.35 260.15 92.3 260.55 90.6 M135.25 -22.85 Q136.55 -21.35 137.0 -18.2 L136.4 -12.15 136.0 -9.0 Q136.4 -1.0 137.1 3.4 138.4 11.15 143.5 18.1 L144.55 17.25 Q145.7 16.4 146.95 16.2 148.2 16.05 152.3 17.25 L157.9 18.15 Q158.4 18.05 160.35 16.15 162.25 14.1 170.2 13.15 174.55 12.45 194.7 7.75 197.3 7.1 198.05 8.25 198.45 8.9 199.1 13.5 199.7 19.05 195.55 19.5 L186.9 20.3 187.95 17.75 188.35 18.6 188.5 18.5 188.5 18.7 189.6 18.75 Q190.55 18.55 190.85 17.8 L191.05 16.15 189.65 14.5 188.2 13.35 Q187.9 13.65 187.9 14.05 187.55 14.75 187.85 16.55 L187.9 17.1 Q187.2 15.85 186.45 15.3 L182.0 20.6 170.25 20.55 Q159.1 20.15 157.3 20.4 156.75 20.45 153.0 22.5 L148.95 24.4 Q148.95 25.0 149.25 25.7 L161.8 42.35 Q163.35 41.45 166.05 41.05 L158.05 47.15 158.25 47.85 159.6 48.65 Q165.8 43.05 168.65 40.7 L169.2 40.7 196.35 41.6 222.35 40.15 Q231.9 38.25 239.8 30.35 247.4 22.55 247.7 15.3 250.5 1.3 265.35 -0.35 268.4 -0.8 271.25 -0.35 279.0 -2.2 292.35 -4.0 L293.1 -4.1 Q290.6 6.15 292.0 17.5 292.2 19.6 296.85 23.95 301.35 28.3 301.7 30.75 L301.7 32.6 Q297.4 40.3 294.95 48.0 293.65 48.35 292.85 49.75 291.1 52.4 288.9 54.35 292.2 53.5 294.0 51.0 L293.8 51.5 Q290.0 63.45 285.1 74.3 L285.4 75.95 285.8 81.45 Q285.95 85.3 286.25 86.95 L291.75 88.1 304.55 88.7 304.55 101.0 293.2 100.2 289.0 100.9 285.3 101.4 Q272.95 100.5 269.8 98.45 269.1 98.0 268.7 97.35 266.9 98.0 265.4 97.85 L242.15 93.6 220.85 93.15 216.8 87.8 214.4 84.25 241.3 86.45 Q267.75 87.65 272.85 76.25 276.35 68.95 281.1 57.4 291.75 33.0 290.0 18.0 289.8 16.3 286.2 13.5 L285.35 12.75 Q275.15 13.45 268.95 13.2 251.45 16.2 245.55 32.8 L241.15 44.6 Q238.15 49.95 232.8 50.2 L228.9 49.35 Q225.45 48.4 223.35 48.35 L197.35 49.35 170.75 52.85 Q163.45 53.05 161.35 51.1 L160.8 50.65 Q157.1 47.65 147.0 34.05 134.95 17.65 134.85 15.65 L131.65 -7.8 131.55 -8.2 Q130.95 -10.35 130.55 -14.2 129.45 -22.45 132.8 -23.7 134.1 -24.25 135.25 -22.85 M115.35 11.25 Q114.5 11.15 114.1 12.6 113.8 13.7 113.95 14.8 L114.3 15.45 115.7 17.3 116.25 16.35 116.7 15.95 116.65 13.25 116.2 12.3 115.35 11.25 M4.8 21.1 Q4.35 21.1 4.35 21.8 4.45 22.65 4.7 23.2 L4.75 23.4 4.8 23.4 4.8 25.7 4.85 27.1 Q4.4 26.55 4.15 26.8 L4.15 27.25 4.15 28.25 Q4.3 29.2 4.5 29.25 L4.5 29.2 4.85 29.4 Q4.8 35.1 5.05 36.75 5.4 40.35 6.25 43.7 5.55 43.2 4.4 39.4 L3.4 36.25 2.85 33.0 Q2.2 27.7 2.1 23.75 2.0 18.7 2.65 15.6 3.15 13.2 3.8 13.45 4.35 13.5 4.8 16.15 L4.8 21.1 M42.5 41.85 L42.15 41.95 Q42.0 42.15 42.2 43.4 42.25 44.45 42.45 44.8 L42.6 45.2 43.1 45.2 43.2 44.4 Q42.9 42.2 42.5 41.85 M119.45 73.65 L119.9 70.85 119.0 69.7 Q118.5 70.25 118.45 70.75 118.1 71.5 118.25 72.9 118.4 74.25 118.8 75.1 L119.05 76.05 Q118.25 75.65 117.2 75.7 L116.6 75.8 116.85 75.35 116.7 73.2 116.45 71.5 116.25 71.05 Q115.1 70.05 114.75 71.45 114.35 72.4 114.65 73.95 114.8 75.55 115.1 75.85 L116.0 76.3 Q114.8 77.5 113.6 81.55 111.9 87.25 110.3 87.2 L109.05 86.7 105.65 87.1 98.9 86.25 98.7 86.25 98.9 85.6 Q98.65 83.65 98.1 83.25 L97.7 83.3 Q97.4 83.55 97.7 84.95 97.65 85.7 97.85 86.15 L78.6 84.25 78.6 82.9 Q77.2 78.9 76.65 80.05 76.25 80.85 76.5 82.75 L76.6 84.0 67.35 82.9 59.4 84.0 Q58.85 83.9 58.25 83.45 L58.15 84.05 Q57.25 84.95 53.5 84.75 L52.35 84.25 51.05 83.65 42.25 83.05 39.85 83.4 39.65 83.55 Q38.55 84.65 37.9 86.05 L37.7 89.65 Q37.5 91.95 36.7 91.9 35.2 91.65 34.5 89.1 L34.05 86.15 Q33.75 83.9 34.05 81.6 L34.2 80.4 33.5 79.65 Q34.5 79.1 34.95 77.15 36.0 75.65 41.5 76.85 L50.25 77.3 51.8 76.9 51.35 73.95 50.9 70.9 50.85 70.0 Q48.35 64.3 46.2 58.15 44.05 51.85 40.95 45.75 37.95 40.15 35.9 38.7 L33.7 38.8 20.75 39.9 Q19.4 40.05 18.95 38.45 L18.55 36.45 Q18.15 33.75 18.45 33.05 18.5 32.35 19.4 32.6 24.05 33.75 26.15 33.5 L33.95 31.7 33.9 32.05 34.05 32.9 35.25 34.6 35.9 35.25 36.4 34.65 36.5 32.6 36.25 31.2 40.95 30.05 41.0 30.25 41.7 31.6 42.1 29.9 47.2 29.65 Q48.0 29.1 49.0 28.95 53.65 28.05 56.2 35.85 57.0 39.95 60.6 44.0 64.45 48.3 68.65 48.9 L72.45 48.65 Q73.3 49.95 73.95 49.9 L80.25 48.9 80.6 48.2 80.85 48.2 83.6 47.7 86.4 51.95 Q87.6 53.4 88.9 54.45 L81.6 53.75 69.35 54.2 Q68.45 54.35 67.15 55.1 L65.6 55.75 Q63.5 55.75 61.9 52.65 L58.9 45.95 Q55.05 36.75 49.3 36.65 47.55 37.35 44.7 37.8 L44.6 38.25 Q43.9 40.0 44.0 40.9 44.35 43.7 45.35 47.35 L44.85 47.4 44.75 47.85 44.8 48.9 45.05 50.25 45.15 50.6 46.0 50.75 46.15 49.85 Q47.25 53.65 49.15 58.3 L48.95 58.45 48.8 58.9 48.95 60.05 Q48.95 60.3 49.9 62.15 L50.4 61.4 50.45 61.3 Q52.8 67.3 54.7 71.3 57.55 77.95 66.85 78.35 L84.45 77.95 97.9 78.35 104.55 78.1 Q106.65 78.15 107.95 78.8 110.95 72.05 113.6 69.05 117.85 59.55 120.4 61.15 122.85 62.7 124.65 77.15 126.15 88.55 126.95 98.8 128.25 118.8 124.75 118.3 122.85 117.95 121.9 115.25 L121.4 112.4 Q121.05 110.25 122.3 108.7 123.6 106.75 124.15 104.45 L121.45 80.55 Q121.0 77.05 119.05 76.05 119.0 75.55 119.45 73.65 M13.45 32.8 Q14.15 33.2 14.55 36.05 14.7 37.5 13.15 39.85 11.45 42.05 11.85 45.2 13.6 59.0 20.45 61.5 L21.1 61.7 31.6 61.3 38.3 59.5 Q39.45 59.5 40.2 60.65 L40.95 63.05 Q41.15 65.1 40.55 66.15 39.95 66.85 39.2 66.85 L36.55 66.15 34.7 65.7 33.7 66.9 30.85 67.8 Q29.75 71.6 27.95 81.75 L27.05 84.75 27.05 84.6 26.2 82.6 Q25.6 82.15 25.85 84.4 L26.0 84.9 26.45 85.65 25.15 86.1 18.5 84.1 Q15.15 83.8 15.0 87.6 L14.75 90.25 Q14.45 91.3 13.5 91.3 13.0 91.2 12.65 89.1 L12.25 86.8 Q12.0 84.8 12.4 82.25 12.8 78.9 14.1 79.0 14.55 79.0 15.4 80.0 16.15 80.9 18.05 81.0 L19.85 81.05 19.95 82.05 20.05 82.45 20.75 83.8 20.9 82.8 21.1 82.1 20.6 81.0 Q24.45 80.5 26.25 77.85 27.7 75.45 28.0 70.25 L28.05 69.85 27.95 69.6 Q27.35 67.25 26.7 66.25 26.6 66.1 26.75 66.1 L26.1 65.0 23.5 64.95 23.35 64.35 Q23.1 63.85 23.2 63.85 22.2 62.95 22.35 64.9 L19.5 64.85 Q19.2 64.8 17.85 65.55 L16.15 66.3 15.95 66.3 Q15.9 66.2 16.0 66.2 L16.05 65.5 15.95 64.95 15.2 64.3 14.8 64.3 14.75 64.25 14.9 65.35 14.95 66.1 Q12.9 65.25 10.95 61.65 L10.9 60.5 Q10.55 58.95 10.1 58.9 9.75 58.95 9.7 59.05 L9.7 59.2 Q8.0 55.35 6.45 49.55 4.95 44.75 4.15 40.05 5.35 43.15 6.3 44.1 7.25 47.8 8.55 51.3 11.15 58.0 14.7 60.45 13.85 58.9 13.1 56.8 11.8 52.9 11.15 48.1 10.1 39.1 11.95 34.3 12.7 32.4 13.45 32.8 M28.0 69.05 Q28.25 70.3 28.9 71.4 L29.3 69.55 28.8 67.95 Q28.5 67.85 28.3 68.25 L28.0 69.05 M26.95 34.2 Q26.45 33.6 26.0 34.9 L25.4 37.4 25.55 38.15 25.9 38.75 Q25.95 39.0 26.3 39.0 L26.8 37.9 27.2 35.35 26.95 34.2 M32.3 32.2 L31.3 33.1 Q30.4 34.2 30.55 35.4 L30.85 36.7 30.9 36.65 30.9 36.75 31.3 36.75 Q31.65 36.7 31.95 35.25 L32.3 32.2 M43.5 64.7 L43.2 62.75 Q42.7 58.8 44.1 59.1 45.55 59.25 46.05 62.4 46.15 64.05 45.85 65.2 45.5 66.35 44.95 66.45 43.9 66.45 43.5 64.7 M59.6 78.65 L59.65 80.4 60.9 82.55 61.25 82.1 61.55 81.8 61.5 80.4 61.25 78.8 61.1 78.25 Q59.9 77.25 59.6 78.65" fill="#eea50d" fill-opacity="0.20784314" fill-rule="evenodd" stroke="none"/>
    </g>
  </defs>
</svg>
