<?xml version="1.0" encoding="UTF-8" standalone="no"?>
<svg xmlns:ffdec="https://www.free-decompiler.com/flash" xmlns:xlink="http://www.w3.org/1999/xlink" ffdec:objectType="frame" height="29.4px" width="187.6px" xmlns="http://www.w3.org/2000/svg">
  <g transform="matrix(1.0, 0.0, 0.0, 1.0, 93.8, 14.7)">
    <use ffdec:characterId="1189" height="4.2" transform="matrix(7.0, 0.0, 0.0, 7.0, -93.8, -14.7)" width="26.8" xlink:href="#shape0"/>
  </g>
  <defs>
    <g id="shape0" transform="matrix(1.0, 0.0, 0.0, 1.0, 13.4, 2.1)">
      <path d="M0.1 -1.7 Q0.1 -1.55 0.0 -1.35 L-0.2 -0.95 -0.3 -0.55 Q-0.45 -0.3 -0.65 -0.15 L-1.15 0.1 -1.4 0.25 Q-2.4 0.05 -3.25 0.05 L-5.8 0.3 -8.7 0.55 -8.75 0.55 -8.45 0.45 Q-7.5 0.15 -7.15 0.1 L-7.25 0.05 -8.15 0.15 -8.65 0.2 -8.7 0.15 Q-8.05 -0.1 -6.75 -0.5 -5.4 -0.95 -4.2 -1.2 L-5.05 -1.25 -5.65 -1.15 -7.4 -0.85 -8.75 -0.6 Q-8.85 -0.6 -9.0 -0.7 -6.95 -1.3 -6.25 -1.45 -4.45 -1.8 -2.4 -1.8 L-1.8 -1.85 Q-0.85 -1.85 0.1 -1.7 M1.6 1.15 L1.55 1.1 Q1.3 0.75 1.3 0.55 1.3 -0.6 2.75 -0.9 L3.25 -0.75 Q3.6 -0.6 3.9 -0.55 4.85 -0.3 5.95 -0.3 L6.25 -0.35 6.7 -0.4 6.9 -0.4 Q7.1 -0.4 7.6 -0.5 7.7 -0.5 8.65 -0.9 L8.95 -1.0 9.15 -1.05 Q9.3 -1.05 10.25 -1.3 L10.3 -1.3 10.55 -1.4 Q11.1 -1.55 11.4 -1.55 L12.15 -1.45 Q11.95 -1.15 11.75 -0.7 L11.55 -0.35 Q11.4 -0.3 11.4 -0.1 L11.1 0.35 10.95 0.55 Q10.7 0.6 10.35 0.75 L9.25 1.2 Q7.5 1.9 5.85 1.9 L4.75 1.8 Q4.6 1.75 4.5 1.75 3.75 1.75 2.75 1.5 L2.75 1.45 2.2 1.3 2.15 1.3 1.65 1.15 1.6 1.15 M2.6 -0.25 L2.65 -0.15 2.8 -0.3 2.6 -0.25 M12.5 0.35 L12.7 0.35 Q12.85 0.35 12.95 0.2 12.8 0.6 12.6 0.85 L12.6 0.8 Q12.7 0.75 12.7 0.65 12.7 0.6 12.55 0.5 L12.45 0.5 12.5 0.35 M-12.4 -0.4 L-12.0 -0.7 Q-11.9 -0.7 -11.85 -0.65 -11.75 -0.55 -11.65 -0.55 -11.55 -0.55 -11.4 -0.7 -11.2 -0.8 -11.1 -0.9 L-11.45 -0.95 -11.1 -1.05 -11.05 -1.05 -11.0 -1.1 Q-10.6 -1.05 -10.35 -0.7 -10.15 -0.4 -10.15 -0.15 L-10.15 -0.1 Q-10.25 -0.25 -10.45 -0.4 -10.7 -0.6 -11.0 -0.55 L-11.15 -0.5 -11.1 -0.5 Q-11.4 -0.45 -11.85 -0.25 -12.25 -0.1 -12.45 0.0 L-12.55 -0.15 -12.55 -0.2 -12.4 -0.4 M-11.95 0.15 L-12.25 0.2 -11.65 0.2 Q-11.45 0.05 -11.15 0.1 L-10.85 0.1 -10.6 0.15 Q-10.55 0.25 -10.45 0.4 L-10.4 0.4 -10.8 0.75 -11.5 0.65 -12.1 0.55 Q-12.5 0.55 -12.8 0.7 L-13.05 0.85 -13.05 0.75 -12.5 0.35 -12.45 0.25 -12.45 0.2 -11.95 0.15 M-10.1 -0.75 L-10.25 -0.9 Q-9.95 -0.8 -9.6 -0.7 L-9.55 -0.7 -9.35 -0.4 -9.4 -0.35 -9.45 -0.15 -9.45 -0.1 -9.6 0.15 -9.7 0.25 -9.65 0.15 -9.65 0.1 -9.6 -0.1 Q-9.6 -0.25 -9.55 -0.45 L-9.75 -0.05 -10.05 0.65 -10.0 0.3 -10.0 0.1 -10.05 -0.15 -10.1 -0.5 -10.1 -0.55 -9.95 -0.4 -9.95 -0.35 Q-9.85 -0.35 -9.9 -0.4 L-9.85 -0.5 -9.85 -0.6 Q-9.85 -0.65 -9.9 -0.7 L-9.95 -0.75 Q-10.0 -0.8 -10.05 -0.8 -10.15 -0.85 -10.15 -0.8 L-10.1 -0.75 M-10.75 0.65 L-10.85 0.5 -10.9 0.35 -11.0 0.35 Q-11.45 0.4 -11.8 0.55 L-11.35 0.6 -10.85 0.65 -10.75 0.65 M-11.65 0.35 L-11.75 0.25 -11.75 0.3 -12.4 0.45 Q-12.85 0.6 -12.85 0.65 -12.85 0.75 -12.8 0.65 -12.5 0.5 -12.35 0.5 L-12.1 0.5 -11.65 0.35" fill="#cfab30" fill-rule="evenodd" stroke="none"/>
      <path d="M-1.4 0.25 L-1.15 0.1 -0.65 -0.15 Q-0.45 -0.3 -0.3 -0.55 L-0.2 -0.95 0.0 -1.35 Q0.1 -1.55 0.1 -1.7 L0.4 -1.65 Q1.3 -1.45 2.25 -1.1 L2.45 -1.0 2.75 -0.9 Q1.3 -0.6 1.3 0.55 1.3 0.75 1.55 1.1 L1.6 1.15 0.9 0.9 Q-0.15 0.55 -1.05 0.35 L-1.4 0.25 M-9.0 -0.7 Q-8.85 -0.6 -8.75 -0.6 L-7.4 -0.85 -5.65 -1.15 -5.05 -1.25 -4.2 -1.2 Q-5.4 -0.95 -6.75 -0.5 -8.05 -0.1 -8.7 0.15 L-8.65 0.2 -8.15 0.15 -7.25 0.05 -7.15 0.1 Q-7.5 0.15 -8.45 0.45 L-8.75 0.55 -8.8 0.5 -9.05 0.5 -9.05 -0.05 -8.25 -0.35 -8.2 -0.35 Q-6.8 -0.8 -5.75 -1.0 L-5.35 -1.05 -5.45 -1.05 -6.95 -0.85 Q-7.35 -0.75 -8.25 -0.45 L-9.1 -0.25 Q-9.1 -0.45 -9.2 -0.6 L-9.0 -0.7 M12.15 -1.45 L12.3 -1.3 Q12.45 -1.0 12.45 -0.9 L12.45 -0.8 Q12.25 -1.0 12.15 -0.95 12.1 -0.9 12.1 -0.7 12.1 -0.35 12.4 -0.1 L12.25 0.05 12.3 0.2 12.5 0.35 12.45 0.5 Q11.85 0.5 11.75 0.85 L11.7 0.85 Q11.35 0.5 11.1 0.5 L10.95 0.55 11.1 0.35 11.4 -0.1 11.4 0.05 Q11.4 0.15 11.5 0.25 11.65 0.45 11.9 0.45 L12.35 0.3 11.75 -0.25 Q11.65 -0.35 11.55 -0.35 L11.75 -0.7 Q11.95 -1.15 12.15 -1.45 M-10.8 -0.05 L-10.95 -0.1 -11.6 0.05 -11.65 0.05 -11.95 0.15 -12.45 0.2 -12.45 0.15 -12.35 0.05 Q-12.15 -0.05 -11.95 -0.1 -11.6 -0.4 -10.95 -0.4 L-10.9 -0.4 -10.5 -0.25 Q-10.25 -0.15 -10.25 0.05 L-10.5 -0.05 -10.8 -0.05 M-10.4 0.4 L-10.3 0.6 -10.4 0.9 -10.6 1.0 -10.7 0.95 -10.75 0.95 -10.95 1.05 -11.15 1.0 Q-11.95 0.8 -12.25 0.8 L-12.65 0.85 -12.9 0.95 -12.95 0.95 -12.95 0.9 -13.0 0.9 -13.05 0.85 -12.8 0.7 Q-12.5 0.55 -12.1 0.55 L-11.5 0.65 -10.8 0.75 -10.4 0.4 M-9.7 0.25 L-9.6 0.15 -9.45 -0.1 -9.45 -0.15 -9.4 -0.35 -9.35 -0.4 -9.35 -0.3 -9.3 -0.2 -9.3 0.45 Q-9.3 0.65 -9.4 0.75 L-9.45 0.8 Q-9.6 0.85 -9.85 0.95 L-9.9 1.0 -9.85 0.9 Q-9.75 0.75 -9.7 0.6 L-9.7 0.25" fill="#d08411" fill-rule="evenodd" stroke="none"/>
      <path d="M0.1 -1.7 Q-0.85 -1.85 -1.8 -1.85 L-2.4 -1.8 Q-4.45 -1.8 -6.25 -1.45 -6.95 -1.3 -9.0 -0.7 L-9.2 -0.6 Q-9.1 -0.45 -9.1 -0.25 L-8.25 -0.45 Q-7.35 -0.75 -6.95 -0.85 L-5.45 -1.05 -5.35 -1.05 -5.75 -1.0 Q-6.8 -0.8 -8.2 -0.35 L-8.25 -0.35 -9.05 -0.05 -9.05 0.5 -8.8 0.5 -8.75 0.55 -8.7 0.55 -5.8 0.3 -3.25 0.05 Q-2.4 0.05 -1.4 0.25 L-1.05 0.35 Q-0.15 0.55 0.9 0.9 L1.6 1.15 1.65 1.15 2.15 1.3 2.2 1.3 2.75 1.45 2.75 1.5 Q3.75 1.75 4.5 1.75 4.6 1.75 4.75 1.8 L5.85 1.9 Q7.5 1.9 9.25 1.2 L10.35 0.75 Q10.7 0.6 10.95 0.55 L11.1 0.5 Q11.35 0.5 11.7 0.85 L11.75 0.85 Q11.85 0.5 12.45 0.5 L12.55 0.5 Q12.7 0.6 12.7 0.65 12.7 0.75 12.6 0.8 L12.6 0.85 Q12.8 0.6 12.95 0.2 12.85 0.35 12.7 0.35 L12.5 0.35 12.3 0.2 12.25 0.05 12.4 -0.1 Q12.1 -0.35 12.1 -0.7 12.1 -0.9 12.15 -0.95 12.25 -1.0 12.45 -0.8 L12.45 -0.9 Q12.45 -1.0 12.3 -1.3 L12.15 -1.45 11.4 -1.55 Q11.1 -1.55 10.55 -1.4 L10.3 -1.3 10.25 -1.3 Q9.3 -1.05 9.15 -1.05 L8.95 -1.0 8.65 -0.9 Q7.7 -0.5 7.6 -0.5 7.1 -0.4 6.9 -0.4 L6.7 -0.4 6.25 -0.35 5.95 -0.3 Q4.85 -0.3 3.9 -0.55 3.6 -0.6 3.25 -0.75 L2.75 -0.9 2.45 -1.0 2.25 -1.1 Q1.3 -1.45 0.4 -1.65 L0.1 -1.7 M4.4 -0.55 L5.8 -0.5 6.95 -0.55 7.05 -0.55 9.1 -1.15 Q9.4 -1.25 10.0 -1.5 10.6 -1.7 11.5 -1.7 L12.0 -1.65 12.25 -1.55 Q12.45 -1.5 12.5 -1.4 12.6 -1.3 12.6 -1.05 L12.65 -0.75 12.4 -0.8 12.3 -0.8 Q12.2 -0.8 12.2 -0.75 L12.2 -0.7 Q12.2 -0.55 12.3 -0.45 L12.4 -0.35 Q12.45 -0.15 12.55 -0.05 L12.4 0.05 12.55 0.15 12.7 0.15 13.1 -0.25 13.35 -0.55 13.4 -0.5 Q13.4 -0.15 13.05 0.5 12.7 1.15 12.35 1.3 L12.3 1.25 Q12.4 1.1 12.4 0.85 L12.45 0.8 12.45 0.7 Q12.4 0.65 12.3 0.65 12.15 0.6 12.0 0.75 11.8 0.9 11.8 1.0 L11.85 1.25 11.75 1.15 11.75 1.1 11.65 1.05 Q11.35 0.7 11.1 0.7 10.95 0.7 10.4 0.9 L9.25 1.4 Q7.45 2.1 5.85 2.1 4.6 2.1 3.35 1.8 2.65 1.65 1.15 1.15 -1.7 0.25 -3.95 0.25 L-6.3 0.5 -8.7 0.75 -9.1 0.7 Q-9.2 1.05 -9.4 1.05 L-9.6 1.1 -9.75 1.15 Q-10.2 1.4 -10.5 1.4 L-10.9 1.3 -10.95 1.3 -11.15 1.25 -11.2 1.2 -12.25 1.0 Q-12.45 1.0 -12.65 1.1 L-12.95 1.2 -13.0 1.2 Q-13.05 1.25 -13.15 1.25 L-13.25 1.2 -13.3 1.05 -13.4 0.9 Q-13.4 0.65 -13.05 0.45 -12.7 0.3 -12.7 0.15 -12.7 0.05 -12.8 -0.05 L-12.85 -0.25 Q-12.85 -0.35 -12.8 -0.4 L-12.8 -0.45 Q-12.75 -0.7 -12.15 -1.0 L-11.85 -1.15 -11.2 -1.4 Q-10.95 -1.45 -10.6 -1.25 L-10.25 -1.25 Q-10.05 -1.15 -9.6 -0.9 L-9.3 -0.75 -8.55 -1.0 Q-7.55 -1.3 -6.15 -1.6 -2.45 -2.3 -0.25 -1.95 2.15 -1.45 3.6 -0.8 4.05 -0.65 4.4 -0.55 M11.4 -0.1 Q11.4 -0.3 11.55 -0.35 11.65 -0.35 11.75 -0.25 L12.35 0.3 11.9 0.45 Q11.65 0.45 11.5 0.25 11.4 0.15 11.4 0.05 L11.4 -0.1 M11.55 -0.1 L11.55 -0.05 Q11.55 0.05 11.6 0.1 11.65 0.2 11.95 0.25 L12.0 0.25 11.75 0.05 11.55 -0.1 M-12.4 -0.4 L-12.55 -0.2 -12.55 -0.15 -12.45 0.0 Q-12.25 -0.1 -11.85 -0.25 -11.4 -0.45 -11.1 -0.5 L-11.15 -0.5 -11.0 -0.55 Q-10.7 -0.6 -10.45 -0.4 -10.25 -0.25 -10.15 -0.1 L-10.15 -0.15 Q-10.15 -0.4 -10.35 -0.7 -10.6 -1.05 -11.0 -1.1 L-11.05 -1.05 -11.1 -1.05 -11.45 -0.95 -11.7 -0.9 Q-12.05 -0.8 -12.4 -0.4 M-11.6 0.05 L-11.15 0.0 -11.15 -0.05 -10.8 -0.05 -10.5 -0.05 -10.25 0.05 Q-10.25 -0.15 -10.5 -0.25 L-10.9 -0.4 -10.95 -0.4 Q-11.6 -0.4 -11.95 -0.1 -12.15 -0.05 -12.35 0.05 L-12.45 0.15 -12.45 0.2 -12.45 0.25 -12.5 0.35 -13.05 0.75 -13.05 0.85 -13.0 0.9 -12.95 0.9 -12.95 0.95 -12.9 0.95 -12.65 0.85 -12.25 0.8 Q-11.95 0.8 -11.15 1.0 L-10.95 1.05 -10.75 0.95 -10.7 0.95 -10.6 1.0 -10.4 0.9 -10.3 0.6 -10.4 0.4 -10.45 0.4 Q-10.55 0.25 -10.6 0.15 L-10.85 0.1 -11.15 0.1 Q-11.45 0.05 -11.65 0.2 L-12.25 0.2 -11.95 0.15 -11.65 0.05 -11.6 0.05 M-9.35 -0.4 L-9.55 -0.7 -9.6 -0.7 Q-9.95 -0.8 -10.25 -0.9 L-10.1 -0.75 -10.1 -0.7 -10.05 -0.65 -10.1 -0.6 -10.1 -0.55 -10.1 -0.5 -10.05 -0.15 -10.0 0.1 -10.0 0.3 -10.05 0.65 -9.75 -0.05 -9.55 -0.45 Q-9.6 -0.25 -9.6 -0.1 L-9.65 0.1 -9.65 0.15 -9.7 0.25 -9.7 0.6 Q-9.75 0.75 -9.85 0.9 L-9.9 1.0 -9.85 0.95 Q-9.6 0.85 -9.45 0.8 L-9.4 0.75 Q-9.3 0.65 -9.3 0.45 L-9.3 -0.2 -9.35 -0.3 -9.35 -0.4" fill="#916728" fill-rule="evenodd" stroke="none"/>
      <path d="M2.6 -0.25 L2.8 -0.3 2.65 -0.15 2.6 -0.25" fill="#b73972" fill-rule="evenodd" stroke="none"/>
      <path d="M-11.45 -0.95 L-11.1 -0.9 Q-11.2 -0.8 -11.4 -0.7 -11.55 -0.55 -11.65 -0.55 -11.75 -0.55 -11.85 -0.65 -11.9 -0.7 -12.0 -0.7 L-12.4 -0.4 Q-12.05 -0.8 -11.7 -0.9 L-11.45 -0.95 M-10.1 -0.75 L-10.15 -0.8 Q-10.15 -0.85 -10.05 -0.8 -10.0 -0.8 -9.95 -0.75 L-9.9 -0.7 Q-9.85 -0.65 -9.85 -0.6 L-9.85 -0.5 -9.9 -0.4 Q-9.85 -0.35 -9.95 -0.35 L-9.95 -0.4 -10.1 -0.55 -10.1 -0.6 -10.05 -0.65 -10.1 -0.7 -10.1 -0.75 M-10.75 0.65 L-10.85 0.65 -11.35 0.6 -11.8 0.55 Q-11.45 0.4 -11.0 0.35 L-10.9 0.35 -10.85 0.5 -10.75 0.65 M-11.65 0.35 L-12.1 0.5 -12.35 0.5 Q-12.5 0.5 -12.8 0.65 -12.85 0.75 -12.85 0.65 -12.85 0.6 -12.4 0.45 L-11.75 0.3 -11.75 0.25 -11.65 0.35" fill="#e8d56a" fill-rule="evenodd" stroke="none"/>
      <path d="M-10.8 -0.05 L-11.15 -0.05 -11.15 0.0 -11.6 0.05 -10.95 -0.1 -10.8 -0.05" fill="#e11e40" fill-rule="evenodd" stroke="none"/>
    </g>
  </defs>
</svg>
