<?xml version="1.0" encoding="UTF-8" standalone="no"?>
<svg xmlns:ffdec="https://www.free-decompiler.com/flash" xmlns:xlink="http://www.w3.org/1999/xlink" ffdec:objectType="frame" height="161.0px" width="135.8px" xmlns="http://www.w3.org/2000/svg">
  <g transform="matrix(1.0, 0.0, 0.0, 1.0, 53.55, 53.9)">
    <use ffdec:characterId="37" height="23.0" transform="matrix(7.0, 0.0, 0.0, 7.0, -53.55, -53.9)" width="19.4" xlink:href="#shape0"/>
  </g>
  <defs>
    <g id="shape0" transform="matrix(1.0, 0.0, 0.0, 1.0, 7.65, 7.7)">
      <path d="M-6.45 -4.75 Q-6.2 -5.2 -5.7 -5.7 -4.8 -6.6 -3.45 -7.1 L-2.7 -7.35 Q0.05 -8.05 3.1 -7.4 6.05 -6.8 6.6 -5.55 8.0 -3.0 7.95 -1.4 L8.0 0.5 8.0 2.65 Q8.0 3.55 7.95 4.4 L7.9 4.55 7.3 7.25 7.3 7.4 7.25 7.45 7.0 7.75 Q6.7 8.15 6.55 8.55 6.55 8.65 6.6 8.65 L7.05 8.65 6.85 9.6 6.3 10.45 6.15 10.65 5.45 10.5 5.4 10.5 4.85 10.3 Q4.15 10.1 3.7 9.85 L2.05 9.05 Q1.75 8.45 1.45 8.15 1.1 7.9 0.6 7.8 L0.55 7.8 0.2 7.35 -0.3 7.4 Q-0.2 7.7 -0.05 7.95 -0.3 7.8 -0.5 7.7 L-3.0 5.6 -3.25 4.8 -3.65 3.35 Q-4.25 1.35 -4.7 0.45 L-4.9 0.1 -5.5 -1.1 Q-6.45 -3.05 -6.45 -4.75 M-5.75 1.75 L-5.65 1.8 -5.7 2.0 -5.75 1.85 -5.75 1.75 M-0.35 -1.7 L-0.25 -1.65 Q-0.2 -1.65 -0.15 -1.7 L-0.35 -1.75 -0.35 -1.7 M-1.4 -1.45 L-1.4 -1.45 M-6.35 8.35 Q-5.6 8.7 -4.4 9.35 L-4.45 9.25 -4.15 10.5 -4.0 11.15 -3.85 11.75 Q-3.45 13.4 -3.45 13.6 -3.45 13.8 -3.35 14.0 L-3.15 14.4 -3.5 14.45 Q-4.0 14.45 -4.8 13.65 L-6.2 12.1 -6.6 11.7 -6.6 11.55 Q-6.4 9.45 -6.35 8.35 M-3.95 9.6 Q-3.65 9.75 -2.8 10.6 L-2.6 10.75 -2.35 11.25 -2.0 11.85 -2.0 11.95 Q-1.9 12.2 -1.8 12.5 L-1.6 13.45 -1.6 13.5 -1.9 13.75 -2.3 14.05 Q-2.35 13.8 -2.45 13.75 L-3.15 11.8 -3.6 10.55 -3.95 9.6 M6.75 4.8 Q6.85 5.3 6.8 5.55 L6.65 5.5 6.5 5.5 6.3 5.45 5.5 5.7 4.55 5.45 3.95 5.3 3.75 5.35 Q3.15 5.2 2.05 5.35 L0.5 6.7 Q0.5 6.8 0.75 7.05 L0.9 7.15 1.0 7.2 1.65 7.35 2.1 7.2 2.2 7.2 3.05 6.95 Q3.75 6.75 4.5 6.75 5.3 6.75 5.8 7.0 6.2 7.25 6.3 7.3 L6.5 7.4 6.6 7.35 6.55 7.15 6.6 7.1 6.55 7.1 Q6.65 7.05 6.65 6.9 L6.6 6.6 6.6 6.55 6.65 6.45 6.7 6.3 7.15 5.55 Q7.15 5.4 7.05 5.3 6.9 5.1 6.75 4.8 M6.55 5.2 L6.55 5.2 M5.85 5.35 L6.05 5.2 5.75 5.05 5.55 4.75 Q5.3 4.5 5.3 4.45 L5.35 4.25 5.2 4.35 Q5.15 4.4 5.15 4.55 L5.2 4.9 5.35 5.1 Q5.45 5.4 5.6 5.4 5.8 5.4 5.85 5.35 M4.4 7.15 Q3.05 7.3 2.3 7.7 3.95 8.35 5.25 8.35 6.05 8.35 6.05 7.65 6.05 6.9 4.4 7.15" fill="#c7a36d" fill-rule="evenodd" stroke="none"/>
      <path d="M7.95 4.4 Q8.2 3.25 8.4 2.65 L8.45 2.65 8.55 3.05 8.6 3.4 8.45 7.0 Q8.45 7.4 8.35 8.15 L8.05 8.85 7.5 10.2 Q7.2 10.9 6.8 11.6 L6.3 11.6 6.0 11.65 Q5.9 11.65 5.85 11.55 L5.4 11.55 4.85 11.5 3.85 11.35 3.65 11.35 3.2 11.4 2.5 11.3 1.85 11.15 Q1.25 11.0 0.65 10.75 0.25 12.9 -0.15 13.95 L-0.2 13.95 Q-0.45 13.95 -1.45 14.55 L-2.55 15.2 Q-4.5 15.55 -6.1 13.8 -6.6 13.15 -7.0 12.45 -7.3 11.8 -7.3 11.6 -7.3 11.3 -7.45 10.9 L-7.4 10.15 -7.45 10.15 Q-7.4 9.65 -7.35 7.75 -7.25 5.95 -7.25 5.6 L-7.4 3.35 -7.5 1.7 Q-7.6 1.15 -7.65 0.55 -7.65 -0.4 -7.5 -1.0 L-7.1 -2.95 -7.05 -2.95 -7.05 -2.9 -7.0 -3.1 -6.95 -3.15 -6.9 -3.45 -6.85 -3.45 -6.8 -3.3 Q-6.8 -3.2 -6.9 -2.8 L-7.0 -2.3 Q-7.0 -1.25 -6.4 0.35 -6.15 0.65 -5.95 1.3 L-5.9 1.3 -5.85 1.45 -5.75 1.55 -5.75 1.75 -5.75 1.85 -5.7 2.0 Q-5.55 2.5 -5.55 2.8 L-5.55 2.95 -5.45 3.35 Q-5.3 3.9 -5.3 4.1 -5.3 5.1 -4.65 6.3 L-4.5 6.55 Q-3.5 7.3 -2.05 8.15 0.1 9.4 1.75 9.9 3.35 10.45 4.85 10.7 L5.4 10.75 6.05 10.8 6.1 10.75 6.15 10.65 6.3 10.45 6.85 9.6 7.05 8.65 6.6 8.65 Q6.55 8.65 6.55 8.55 6.7 8.15 7.0 7.75 L7.25 7.45 7.3 7.4 7.3 7.25 7.9 4.55 7.95 4.4 M-0.05 7.95 Q-0.2 7.7 -0.3 7.4 L0.2 7.35 0.55 7.8 0.6 7.8 Q1.1 7.9 1.45 8.15 1.75 8.45 2.05 9.05 L2.25 9.6 2.25 9.65 1.85 9.3 1.4 8.85 Q1.25 8.65 0.75 8.55 0.3 8.45 0.2 8.2 L-0.05 7.95 M-1.4 -1.45 L-1.4 -1.45 M-1.6 13.5 L-0.95 13.05 -0.85 13.05 -0.75 12.7 -0.7 12.3 -0.1 10.7 Q-0.1 10.45 -0.55 10.15 L-0.65 10.15 Q-0.8 10.0 -1.05 9.9 L-1.2 9.85 -2.4 8.95 Q-3.25 8.45 -4.05 7.85 L-4.15 7.8 -4.2 7.75 -4.9 7.4 Q-5.7 7.3 -5.95 6.35 L-6.15 4.6 Q-6.15 4.15 -6.4 3.35 L-6.4 3.35 -6.35 4.15 Q-6.35 4.75 -6.45 5.75 L-6.45 6.1 Q-6.35 7.25 -6.35 7.6 L-6.35 8.35 Q-6.4 9.45 -6.6 11.55 L-6.6 11.7 -6.2 12.1 -4.8 13.65 Q-4.0 14.45 -3.5 14.45 L-3.15 14.4 -3.35 14.0 Q-3.45 13.8 -3.45 13.6 -3.45 13.4 -3.85 11.75 L-4.0 11.15 -4.15 10.5 -4.45 9.25 -4.55 8.5 -4.55 7.9 -4.5 7.9 -4.45 7.95 -4.0 9.35 -3.95 9.6 -3.6 10.55 -3.15 11.8 -2.45 13.75 Q-2.35 13.8 -2.3 14.05 L-1.9 13.75 -1.6 13.5 M6.75 4.8 Q6.9 5.1 7.05 5.3 7.15 5.4 7.15 5.55 L6.7 6.3 6.65 6.45 6.6 6.55 6.6 6.6 6.65 6.9 Q6.65 7.05 6.55 7.1 L6.6 7.1 6.55 7.15 6.6 7.35 6.5 7.4 6.3 7.3 Q6.2 7.25 5.8 7.0 5.3 6.75 4.5 6.75 3.75 6.75 3.05 6.95 L2.2 7.2 2.1 7.2 1.65 7.35 1.0 7.2 0.9 7.15 0.75 7.05 Q0.5 6.8 0.5 6.7 L2.05 5.35 Q3.15 5.2 3.75 5.35 L3.95 5.3 4.55 5.45 5.5 5.7 6.3 5.45 6.5 5.5 6.65 5.5 6.8 5.55 Q6.85 5.3 6.75 4.8 M6.0 6.1 Q6.05 6.15 6.2 6.15 6.35 6.15 6.4 6.05 L6.35 6.0 6.0 5.95 6.0 6.0 5.95 6.05 6.0 6.05 6.0 6.1 M5.9 6.45 L5.85 6.4 5.2 6.4 4.4 6.3 2.9 6.3 2.6 6.35 2.45 6.35 2.4 6.4 2.2 6.35 1.7 6.45 1.05 6.65 Q1.15 6.75 1.3 6.75 2.2 6.75 2.55 6.65 L2.75 6.55 2.85 6.55 2.95 6.5 4.5 6.4 Q5.25 6.4 5.75 6.55 L6.15 6.7 Q6.2 6.5 6.3 6.65 L6.3 6.6 Q6.1 6.55 5.9 6.45 M5.85 5.35 Q5.8 5.4 5.6 5.4 5.45 5.4 5.35 5.1 L5.2 4.9 5.15 4.55 Q5.15 4.4 5.2 4.35 L5.35 4.25 5.3 4.45 Q5.3 4.5 5.55 4.75 L5.75 5.05 6.05 5.2 5.85 5.35 M1.9 6.0 Q2.0 6.1 2.9 6.1 L4.4 6.1 5.25 6.15 Q4.85 6.05 4.35 5.9 L4.15 5.85 4.0 5.85 Q2.7 5.6 1.95 5.9 L1.9 6.0 M5.45 7.5 L5.5 7.65 Q5.25 7.8 4.9 7.8 L4.4 7.8 3.7 7.75 3.5 7.6 Q3.7 7.5 4.45 7.4 5.25 7.3 5.45 7.5" fill="#111111" fill-rule="evenodd" stroke="none"/>
      <path d="M-7.0 -3.1 Q-7.0 -3.35 -6.9 -3.6 L-6.7 -4.25 -6.45 -4.75 Q-6.45 -3.05 -5.5 -1.1 L-4.9 0.1 -4.7 0.45 Q-4.25 1.35 -3.65 3.35 L-3.25 4.8 -3.0 5.6 -0.5 7.7 Q-0.3 7.8 -0.05 7.95 L0.2 8.2 Q0.3 8.45 0.75 8.55 1.25 8.65 1.4 8.85 L1.85 9.3 2.25 9.65 2.25 9.6 2.05 9.05 3.7 9.85 Q4.15 10.1 4.85 10.3 L5.4 10.5 5.45 10.5 6.15 10.65 6.1 10.75 6.05 10.8 5.4 10.75 4.85 10.7 Q3.35 10.45 1.75 9.9 0.1 9.4 -2.05 8.15 -3.5 7.3 -4.5 6.55 L-4.65 6.3 Q-5.3 5.1 -5.3 4.1 -5.3 3.9 -5.45 3.35 L-5.55 2.95 -5.55 2.8 Q-5.55 2.5 -5.7 2.0 L-5.65 1.8 -5.75 1.75 -5.75 1.55 -5.85 1.45 -5.9 1.3 -5.95 1.3 Q-6.15 0.65 -6.4 0.35 -7.0 -1.25 -7.0 -2.3 L-6.9 -2.8 Q-6.8 -3.2 -6.8 -3.3 L-6.85 -3.45 -6.9 -3.45 -6.95 -3.15 -7.0 -3.1 M-0.35 -1.7 L-0.35 -1.75 -0.15 -1.7 Q-0.2 -1.65 -0.25 -1.65 L-0.35 -1.7 M-6.35 8.35 L-6.35 7.6 Q-6.35 7.25 -6.45 6.1 L-6.45 5.75 Q-6.35 4.75 -6.35 4.15 L-6.4 3.35 -6.4 3.35 Q-6.15 4.15 -6.15 4.6 L-5.95 6.35 Q-5.7 7.3 -4.9 7.4 L-4.2 7.75 -4.15 7.8 -4.05 7.85 Q-3.25 8.45 -2.4 8.95 L-1.2 9.85 -1.05 9.9 Q-0.8 10.0 -0.65 10.15 L-0.55 10.15 Q-0.1 10.45 -0.1 10.7 L-0.7 12.3 -0.75 12.7 -0.85 13.05 -0.95 13.05 -1.6 13.5 -1.6 13.45 -1.8 12.5 Q-1.9 12.2 -2.0 11.95 L-2.0 11.85 -2.35 11.25 -2.6 10.75 -2.8 10.6 Q-3.65 9.75 -3.95 9.6 L-4.0 9.35 -4.45 7.95 -4.5 7.9 -4.55 7.9 -4.55 8.5 -4.45 9.25 -4.4 9.35 Q-5.6 8.7 -6.35 8.35 M5.45 7.5 Q5.25 7.3 4.45 7.4 3.7 7.5 3.5 7.6 L3.7 7.75 4.4 7.8 4.9 7.8 Q5.25 7.8 5.5 7.65 L5.45 7.5 M4.4 7.15 Q6.05 6.9 6.05 7.65 6.05 8.35 5.25 8.35 3.95 8.35 2.3 7.7 3.05 7.3 4.4 7.15" fill="#a9854f" fill-rule="evenodd" stroke="none"/>
      <path d="M6.0 6.1 L6.0 6.05 5.95 6.05 6.0 6.0 6.0 5.95 6.35 6.0 6.4 6.05 Q6.35 6.15 6.2 6.15 6.05 6.15 6.0 6.1 M5.9 6.45 Q6.1 6.55 6.3 6.6 L6.3 6.65 Q6.2 6.5 6.15 6.7 L5.75 6.55 Q5.25 6.4 4.5 6.4 L2.95 6.5 2.85 6.55 2.75 6.55 2.55 6.65 Q2.2 6.75 1.3 6.75 1.15 6.75 1.05 6.65 L1.7 6.45 2.2 6.35 2.4 6.4 2.45 6.35 2.6 6.35 2.9 6.3 4.4 6.3 5.2 6.4 5.85 6.4 5.9 6.45 M1.9 6.0 L1.95 5.9 Q2.7 5.6 4.0 5.85 L4.15 5.85 4.35 5.9 Q4.85 6.05 5.25 6.15 L4.4 6.1 2.9 6.1 Q2.0 6.1 1.9 6.0" fill="#ffffff" fill-rule="evenodd" stroke="none"/>
      <path d="M6.85 5.15 L6.5 4.95 Q6.55 4.8 6.7 4.7 7.1 4.25 8.3 4.6 9.35 4.9 10.5 5.6 L10.6 5.7 10.8 5.85 11.7 6.65 11.75 6.7 Q11.15 6.5 11.0 6.75 L11.7 7.15 11.55 7.2 Q11.15 7.35 11.15 7.8 11.15 8.1 11.3 8.35 10.45 7.9 10.65 8.3 L10.95 8.55 10.85 8.6 10.7 8.8 Q10.6 8.8 10.4 8.7 10.15 8.55 9.9 8.65 L9.95 8.8 Q10.0 9.0 9.85 9.05 9.75 9.1 9.5 9.0 9.2 8.95 8.25 8.05 L8.25 8.0 7.4 7.2 6.9 6.7 6.8 6.45 6.65 6.3 6.6 6.15 6.7 6.15 Q6.5 5.75 6.5 5.45 6.85 5.6 6.95 5.55 L7.1 5.4 7.15 5.45 7.2 5.9 7.3 6.35 7.4 6.55 Q7.8 6.8 8.2 7.2 L8.65 7.6 Q9.45 8.15 9.85 8.0 9.95 7.95 10.05 8.05 L10.1 8.1 Q10.1 8.05 10.15 7.9 L10.3 7.6 Q10.45 7.65 10.5 7.7 L10.65 7.85 Q10.55 7.65 10.45 7.2 L10.35 6.75 10.35 6.65 Q10.3 6.5 10.4 6.35 L10.2 6.2 10.15 6.2 10.15 6.15 Q9.35 5.6 8.8 5.35 7.8 4.85 6.8 5.1 L6.85 5.15 M2.8 4.8 Q2.3 4.9 2.3 5.0 2.25 5.1 2.35 5.15 L2.45 5.15 2.8 5.2 2.7 5.6 Q2.6 5.8 2.3 5.9 L1.95 5.95 Q-0.95 8.45 -1.2 8.35 -1.3 8.3 -1.35 8.25 L-1.35 8.15 Q-1.4 8.15 -1.7 8.4 -1.95 8.55 -2.05 8.55 L-2.25 8.4 Q-2.3 8.3 -2.45 8.25 -2.6 8.2 -2.65 8.1 L-2.7 7.95 Q-2.8 8.0 -2.95 7.95 L-3.0 7.95 -3.0 8.0 -3.1 8.0 -3.25 8.25 -3.45 8.25 Q-3.65 8.15 -3.6 7.9 L-3.5 7.65 Q-3.45 7.45 -3.25 7.2 L-3.4 7.2 Q-3.6 7.1 -3.6 6.95 L-3.55 6.8 Q-3.7 6.7 -3.75 6.5 -3.8 6.35 -3.75 6.2 L-3.55 5.85 Q-3.4 5.55 -3.25 5.45 -3.55 5.2 -3.5 5.05 L-3.4 5.0 -2.9 4.5 Q-2.6 4.2 -2.15 4.15 L-0.9 4.05 0.25 3.95 0.8 4.05 1.8 4.15 Q2.1 4.25 2.35 4.45 L2.65 4.7 2.8 4.8 M0.0 4.4 L-0.65 4.4 -1.95 4.75 -2.55 4.9 Q-1.9 4.9 -1.75 4.95 L-1.7 5.05 Q-1.8 5.15 -1.95 5.15 L-2.45 5.2 Q-2.5 5.4 -2.6 5.5 L-2.7 5.6 Q-2.75 5.7 -2.7 5.8 -2.65 5.9 -2.65 5.95 -2.7 6.1 -2.8 6.15 L-2.8 6.2 -2.35 6.2 -2.35 6.3 Q-2.4 6.4 -2.8 6.7 -3.2 6.95 -3.2 7.15 L-3.15 7.05 Q-2.8 6.6 -2.55 6.65 L-2.5 6.7 -2.55 6.8 -2.55 6.85 -2.25 6.9 -2.2 6.9 -2.25 7.0 Q-2.25 7.1 -2.55 7.3 -2.3 7.1 -1.95 7.0 L-1.8 7.15 Q-1.85 7.45 -1.95 7.7 L-2.0 7.7 -1.8 7.55 -1.55 7.3 -1.45 7.3 Q-1.25 7.45 -1.3 7.65 L-1.45 8.05 Q-1.05 7.45 0.3 6.5 L1.9 5.4 1.85 5.35 Q1.6 5.1 1.75 4.8 L0.2 4.4 0.0 4.4" fill="#111111" fill-rule="evenodd" stroke="none"/>
      <path d="M7.1 5.4 L7.05 5.25 6.85 5.15 6.8 5.1 Q7.8 4.85 8.8 5.35 9.35 5.6 10.15 6.15 L10.15 6.2 10.2 6.2 10.4 6.35 Q10.3 6.5 10.35 6.65 L10.35 6.75 10.45 7.2 Q10.55 7.65 10.65 7.85 L10.5 7.7 Q10.45 7.65 10.3 7.6 L10.15 7.9 Q10.1 8.05 10.1 8.1 L10.05 8.05 Q9.95 7.95 9.85 8.0 9.45 8.15 8.65 7.6 L8.2 7.2 Q7.8 6.8 7.4 6.55 L7.3 6.35 7.2 5.9 7.15 5.45 7.1 5.4 M0.0 4.4 L0.2 4.4 1.75 4.8 Q1.6 5.1 1.85 5.35 L1.9 5.4 0.3 6.5 Q-1.05 7.45 -1.45 8.05 L-1.3 7.65 Q-1.25 7.45 -1.45 7.3 L-1.55 7.3 -1.8 7.55 -2.0 7.7 -1.95 7.7 Q-1.85 7.45 -1.8 7.15 L-1.95 7.0 Q-2.3 7.1 -2.55 7.3 -2.25 7.1 -2.25 7.0 L-2.2 6.9 -2.25 6.9 -2.55 6.85 -2.55 6.8 -2.5 6.7 -2.55 6.65 Q-2.8 6.6 -3.15 7.05 L-3.2 7.15 Q-3.2 6.95 -2.8 6.7 -2.4 6.4 -2.35 6.3 L-2.35 6.2 -2.8 6.2 -2.8 6.15 Q-2.7 6.1 -2.65 5.95 -2.65 5.9 -2.7 5.8 -2.75 5.7 -2.7 5.6 L-2.6 5.5 Q-2.5 5.4 -2.45 5.2 L-1.95 5.15 Q-1.8 5.15 -1.7 5.05 L-1.75 4.95 Q-1.9 4.9 -2.55 4.9 L-1.95 4.75 -0.65 4.4 0.0 4.4" fill="#003366" fill-rule="evenodd" stroke="none"/>
    </g>
  </defs>
</svg>
