<?xml version="1.0" encoding="UTF-8" standalone="no"?>
<svg xmlns:ffdec="https://www.free-decompiler.com/flash" xmlns:xlink="http://www.w3.org/1999/xlink" ffdec:objectType="frame" height="398.45px" width="418.45px" xmlns="http://www.w3.org/2000/svg">
  <g transform="matrix(1.0, 0.0, 0.0, 1.0, 80.8, 32.5)">
    <clipPath id="clipPath0" transform="matrix(1.0, 0.0, 0.0, 1.0, 0.0, 0.0)">
      <path d="M186.05 71.6 L186.05 71.85 191.55 72.25 191.85 72.3 190.45 73.95 189.8 75.85 188.65 79.6 188.85 80.25 188.75 80.5 188.9 80.65 190.7 87.45 194.3 95.65 198.1 102.75 199.35 105.3 199.75 105.5 199.5 105.65 Q201.0 106.1 204.95 107.9 L202.4 109.6 201.95 111.05 200.5 113.7 200.45 114.45 200.3 115.0 200.2 117.0 199.7 128.95 200.7 137.8 202.15 145.65 202.55 148.45 202.55 149.2 205.45 152.4 206.05 153.05 205.25 153.6 205.15 153.65 205.15 153.7 205.05 155.35 205.05 155.6 204.25 159.1 203.8 164.1 203.8 226.0 204.3 236.35 Q205.6 256.35 205.6 260.45 L205.35 265.55 Q206.2 268.5 206.5 274.4 L206.75 290.15 206.75 291.9 Q200.35 295.8 193.55 298.95 188.85 301.1 184.0 302.95 L65.55 302.95 55.45 298.95 48.8 295.8 49.4 295.55 49.3 290.15 Q49.3 278.9 49.65 274.4 49.9 268.5 50.7 265.55 L50.5 260.45 Q50.5 256.35 51.75 236.35 L52.3 226.0 52.3 164.1 51.8 159.1 Q51.25 157.05 51.05 155.6 L51.05 155.35 50.95 153.7 50.95 153.65 50.8 153.6 50.05 153.05 50.6 152.4 53.5 149.2 53.5 148.45 53.95 145.65 55.4 137.8 56.35 128.95 Q55.95 123.7 55.9 117.0 L55.8 115.0 55.65 114.45 55.6 113.7 54.15 111.05 53.65 109.6 51.7 108.35 Q56.35 106.15 57.95 105.65 L57.7 105.5 58.2 105.3 59.4 102.75 Q60.8 99.85 63.2 95.65 L66.85 87.45 68.65 80.65 68.8 80.5 68.7 80.25 68.9 79.6 67.7 75.85 67.1 73.95 65.25 71.8 66.1 71.9 66.7 71.7 66.85 71.75 69.15 71.9 69.25 71.65 72.45 69.4 79.1 65.25 84.0 61.15 87.6 58.5 87.5 58.45 87.9 58.2 87.8 58.0 Q88.6 55.55 88.6 54.6 L88.6 54.55 89.85 54.95 90.55 55.55 91.95 55.75 92.1 56.2 92.65 56.2 96.45 56.75 101.95 57.45 128.75 57.45 133.45 57.2 138.7 57.15 138.85 57.1 139.5 56.95 139.5 57.15 156.25 56.95 156.55 56.75 156.75 56.85 156.95 56.95 157.3 56.95 160.6 56.7 160.65 56.75 160.7 56.7 161.4 56.7 162.35 56.9 162.5 56.95 163.05 56.8 163.15 56.8 163.45 56.7 163.45 56.65 165.5 55.65 166.3 55.25 166.45 55.65 166.85 56.55 166.05 58.15 166.05 58.25 166.4 58.5 169.25 60.95 176.4 65.25 183.1 69.25 186.05 71.6" fill="#9aff9a" fill-opacity="0.5019608" fill-rule="evenodd" stroke="none"/>
    </clipPath>
    <g clip-path="url(#clipPath0)">
      <use ffdec:characterId="395" height="258.1" transform="matrix(1.0, 0.0, 0.0, 1.0, 48.8, 54.55)" width="157.95" xlink:href="#shape1"/>
      <use ffdec:characterId="396" height="425.5" transform="matrix(0.2354, 0.0, 0.0, 0.2934, 80.879, 105.4203)" width="425.5" xlink:href="#shape2"/>
      <use ffdec:characterId="397" height="311.4" transform="matrix(0.2354, 0.0, 0.0, 0.2934, 94.6235, 122.5426)" width="306.85" xlink:href="#shape3"/>
      <use ffdec:characterId="396" height="425.5" transform="matrix(0.3384, 0.0, 0.0, 0.4219, 62.8631, 77.3364)" width="425.5" xlink:href="#shape2"/>
      <use ffdec:characterId="397" height="311.4" transform="matrix(0.3384, 0.0, 0.0, 0.4219, 82.6236, 101.9554)" width="306.85" xlink:href="#shape3"/>
      <use ffdec:characterId="396" height="425.5" transform="matrix(0.497, 0.0, 0.0, 0.6198, 23.5048, 27.748)" width="425.5" xlink:href="#shape2"/>
      <use ffdec:characterId="397" height="311.4" transform="matrix(0.497, 0.0, 0.0, 0.6198, 52.5319, 63.9104)" width="306.85" xlink:href="#shape3"/>
      <use ffdec:characterId="396" height="425.5" transform="matrix(0.7249, 0.0, 0.0, 0.9039, -35.4288, -29.4145)" width="425.5" xlink:href="#shape2"/>
      <use ffdec:characterId="397" height="311.4" transform="matrix(0.7249, 0.0, 0.0, 0.9039, 6.9071, 23.3307)" width="306.85" xlink:href="#shape3"/>
    </g>
    <use ffdec:characterId="398" height="310.6" transform="matrix(1.0, 0.0, 0.0, 1.0, -67.65, -7.65)" width="323.2" xlink:href="#shape4"/>
  </g>
  <defs>
    <g id="shape1" transform="matrix(1.0, 0.0, 0.0, 1.0, -48.8, -54.55)">
      <path d="M186.05 71.6 L186.05 71.85 191.55 72.25 191.85 72.3 190.45 73.95 189.8 75.85 188.65 79.6 188.85 80.25 188.75 80.5 188.9 80.65 190.7 87.45 194.3 95.65 198.1 102.75 199.35 105.3 199.75 105.5 199.5 105.65 Q201.0 106.1 204.95 107.9 L202.4 109.6 201.95 111.05 200.5 113.7 200.45 114.45 200.3 115.0 200.2 117.0 199.7 128.95 200.7 137.8 202.15 145.65 202.55 148.45 202.55 149.2 205.45 152.4 206.05 153.05 205.25 153.6 205.15 153.65 205.15 153.7 205.05 155.35 205.05 155.6 204.25 159.1 203.8 164.1 203.8 226.0 204.3 236.35 Q205.6 256.35 205.6 260.45 L205.35 265.55 Q206.2 268.5 206.5 274.4 L206.75 290.15 206.75 291.9 Q170.55 313.9 121.45 312.55 79.15 311.3 48.8 295.8 L49.4 295.55 49.3 290.15 Q49.3 278.9 49.65 274.4 49.9 268.5 50.7 265.55 L50.5 260.45 Q50.5 256.35 51.75 236.35 L52.3 226.0 52.3 164.1 51.8 159.1 Q51.25 157.05 51.05 155.6 L51.05 155.35 50.95 153.7 50.95 153.65 50.8 153.6 50.05 153.05 50.6 152.4 53.5 149.2 53.5 148.45 53.95 145.65 55.4 137.8 56.35 128.95 Q55.95 123.7 55.9 117.0 L55.8 115.0 55.65 114.45 55.6 113.7 54.15 111.05 53.65 109.6 51.7 108.35 Q56.35 106.15 57.95 105.65 L57.7 105.5 58.2 105.3 59.4 102.75 Q60.8 99.85 63.2 95.65 L66.85 87.45 68.65 80.65 68.8 80.5 68.7 80.25 68.9 79.6 67.7 75.85 67.1 73.95 65.25 71.8 66.1 71.9 66.7 71.7 66.85 71.75 69.15 71.9 69.25 71.65 72.45 69.4 79.1 65.25 84.0 61.15 87.6 58.5 87.5 58.45 87.9 58.2 87.8 58.0 Q88.6 55.55 88.6 54.6 L88.6 54.55 89.85 54.95 90.55 55.55 91.95 55.75 92.1 56.2 92.65 56.2 96.45 56.75 101.95 57.45 128.75 57.45 133.45 57.2 138.7 57.15 138.85 57.1 139.5 56.95 139.5 57.15 156.25 56.95 156.55 56.75 156.75 56.85 156.95 56.95 157.3 56.95 160.6 56.7 160.65 56.75 160.7 56.7 161.4 56.7 162.35 56.9 162.5 56.95 163.05 56.8 163.15 56.8 163.45 56.7 163.45 56.65 165.5 55.65 166.3 55.25 166.45 55.65 166.85 56.55 166.05 58.15 166.05 58.25 166.4 58.5 169.25 60.95 176.4 65.25 183.1 69.25 186.05 71.6" fill="#fcfffc" fill-rule="evenodd" stroke="none"/>
    </g>
    <g id="shape2" transform="matrix(1.0, 0.0, 0.0, 1.0, 212.75, 212.75)">
      <path d="M0.0 -131.5 Q-54.5 -131.5 -92.95 -92.95 -131.5 -54.5 -131.5 0.0 -131.5 54.5 -92.95 92.95 -54.5 131.5 0.0 131.5 54.5 131.5 92.95 92.95 131.5 54.5 131.5 0.0 131.5 -54.5 92.95 -92.95 54.5 -131.5 0.0 -131.5 M116.7 -116.65 Q165.1 -68.4 165.1 0.0 165.1 68.4 116.7 116.7 68.4 165.1 0.0 165.1 -68.4 165.1 -116.65 116.7 -165.1 68.4 -165.1 0.0 -165.1 -68.4 -116.65 -116.65 -68.4 -165.1 0.0 -165.1 68.4 -165.1 116.7 -116.65" fill="#d1fed1" fill-opacity="0.5019608" fill-rule="evenodd" stroke="none"/>
      <path d="M70.35 -70.35 Q41.25 -99.5 0.0 -99.5 -41.25 -99.5 -70.35 -70.35 -99.5 -41.25 -99.5 0.0 -99.5 41.25 -70.35 70.35 -41.25 99.5 0.0 99.5 41.25 99.5 70.35 70.35 99.5 41.25 99.5 0.0 99.5 -41.25 70.35 -70.35 M0.0 -103.9 Q43.05 -103.9 73.5 -73.45 103.9 -43.05 103.9 0.0 103.9 43.05 73.5 73.5 43.05 103.9 0.0 103.9 -43.05 103.9 -73.45 73.5 -103.9 43.05 -103.9 0.0 -103.9 -43.05 -73.45 -73.45 -43.05 -103.9 0.0 -103.9 M0.0 -212.75 Q88.15 -212.75 150.5 -150.5 212.75 -88.15 212.75 0.0 212.75 88.15 150.5 150.5 88.15 212.75 0.0 212.75 -88.15 212.75 -150.5 150.5 -212.75 88.15 -212.75 0.0 -212.75 -88.15 -150.5 -150.5 -88.15 -212.75 0.0 -212.75 M145.3 -145.3 Q85.1 -205.55 0.0 -205.55 -85.1 -205.55 -145.3 -145.3 -205.55 -85.1 -205.55 0.0 -205.55 85.1 -145.3 145.3 -85.1 205.55 0.0 205.55 85.1 205.55 145.3 145.3 205.55 85.1 205.55 0.0 205.55 -85.1 145.3 -145.3" fill="#d1fed1" fill-opacity="0.08235294" fill-rule="evenodd" stroke="none"/>
      <path d="M139.95 -139.9 Q81.9 -197.75 0.0 -197.75 -81.9 -197.75 -139.9 -139.9 -197.75 -81.9 -197.75 0.0 -197.75 81.9 -139.9 139.95 -81.9 197.75 0.0 197.75 81.9 197.75 139.95 139.95 197.75 81.9 197.75 0.0 197.75 -81.9 139.95 -139.9 M0.0 -108.25 Q44.9 -108.25 76.55 -76.55 108.25 -44.9 108.25 0.0 108.25 44.9 76.55 76.55 44.9 108.25 0.0 108.25 -44.9 108.25 -76.55 76.55 -108.25 44.9 -108.25 0.0 -108.25 -44.9 -76.55 -76.55 -44.9 -108.25 0.0 -108.25 M0.0 -103.9 Q-43.05 -103.9 -73.45 -73.45 -103.9 -43.05 -103.9 0.0 -103.9 43.05 -73.45 73.5 -43.05 103.9 0.0 103.9 43.05 103.9 73.5 73.5 103.9 43.05 103.9 0.0 103.9 -43.05 73.5 -73.45 43.05 -103.9 0.0 -103.9 M145.3 -145.3 Q205.55 -85.1 205.55 0.0 205.55 85.1 145.3 145.3 85.1 205.55 0.0 205.55 -85.1 205.55 -145.3 145.3 -205.55 85.1 -205.55 0.0 -205.55 -85.1 -145.3 -145.3 -85.1 -205.55 0.0 -205.55 85.1 -205.55 145.3 -145.3" fill="#d1fed1" fill-opacity="0.16470589" fill-rule="evenodd" stroke="none"/>
      <path d="M139.95 -139.9 Q197.75 -81.9 197.75 0.0 197.75 81.9 139.95 139.95 81.9 197.75 0.0 197.75 -81.9 197.75 -139.9 139.95 -197.75 81.9 -197.75 0.0 -197.75 -81.9 -139.9 -139.9 -81.9 -197.75 0.0 -197.75 81.9 -197.75 139.95 -139.9 M133.55 -133.55 Q78.2 -188.85 0.0 -188.85 -78.2 -188.85 -133.55 -133.55 -188.85 -78.2 -188.85 0.0 -188.85 78.2 -133.55 133.55 -78.2 188.85 0.0 188.85 78.2 188.85 133.55 133.55 188.85 78.2 188.85 0.0 188.85 -78.2 133.55 -133.55 M0.0 -115.4 Q47.8 -115.4 81.6 -81.6 115.4 -47.8 115.4 0.0 115.4 47.8 81.6 81.6 47.8 115.4 0.0 115.4 -47.8 115.4 -81.6 81.6 -115.4 47.8 -115.4 0.0 -115.4 -47.8 -81.6 -81.6 -47.8 -115.4 0.0 -115.4 M0.0 -108.25 Q-44.9 -108.25 -76.55 -76.55 -108.25 -44.9 -108.25 0.0 -108.25 44.9 -76.55 76.55 -44.9 108.25 0.0 108.25 44.9 108.25 76.55 76.55 108.25 44.9 108.25 0.0 108.25 -44.9 76.55 -76.55 44.9 -108.25 0.0 -108.25" fill="#d1fed1" fill-opacity="0.2509804" fill-rule="evenodd" stroke="none"/>
      <path d="M133.55 -133.55 Q188.85 -78.2 188.85 0.0 188.85 78.2 133.55 133.55 78.2 188.85 0.0 188.85 -78.2 188.85 -133.55 133.55 -188.85 78.2 -188.85 0.0 -188.85 -78.2 -133.55 -133.55 -78.2 -188.85 0.0 -188.85 78.2 -188.85 133.55 -133.55 M126.75 -126.75 Q74.25 -179.25 0.0 -179.25 -74.25 -179.25 -126.75 -126.75 -179.25 -74.25 -179.25 0.0 -179.25 74.25 -126.75 126.75 -74.25 179.25 0.0 179.25 74.25 179.25 126.75 126.75 179.25 74.25 179.25 0.0 179.25 -74.25 126.75 -126.75 M0.0 -115.4 Q-47.8 -115.4 -81.6 -81.6 -115.4 -47.8 -115.4 0.0 -115.4 47.8 -81.6 81.6 -47.8 115.4 0.0 115.4 47.8 115.4 81.6 81.6 115.4 47.8 115.4 0.0 115.4 -47.8 81.6 -81.6 47.8 -115.4 0.0 -115.4 M0.0 -122.2 Q50.65 -122.2 86.45 -86.45 122.2 -50.65 122.2 0.0 122.2 50.65 86.45 86.45 50.65 122.2 0.0 122.2 -50.65 122.2 -86.45 86.45 -122.2 50.65 -122.2 0.0 -122.2 -50.65 -86.45 -86.45 -50.65 -122.2 0.0 -122.2" fill="#d1fed1" fill-opacity="0.33333334" fill-rule="evenodd" stroke="none"/>
      <path d="M116.7 -116.65 Q68.4 -165.1 0.0 -165.1 -68.4 -165.1 -116.65 -116.65 -165.1 -68.4 -165.1 0.0 -165.1 68.4 -116.65 116.7 -68.4 165.1 0.0 165.1 68.4 165.1 116.7 116.7 165.1 68.4 165.1 0.0 165.1 -68.4 116.7 -116.65 M0.0 -131.5 Q54.5 -131.5 92.95 -92.95 131.5 -54.5 131.5 0.0 131.5 54.5 92.95 92.95 54.5 131.5 0.0 131.5 -54.5 131.5 -92.95 92.95 -131.5 54.5 -131.5 0.0 -131.5 -54.5 -92.95 -92.95 -54.5 -131.5 0.0 -131.5 M126.75 -126.75 Q179.25 -74.25 179.25 0.0 179.25 74.25 126.75 126.75 74.25 179.25 0.0 179.25 -74.25 179.25 -126.75 126.75 -179.25 74.25 -179.25 0.0 -179.25 -74.25 -126.75 -126.75 -74.25 -179.25 0.0 -179.25 74.25 -179.25 126.75 -126.75 M0.0 -122.2 Q-50.65 -122.2 -86.45 -86.45 -122.2 -50.65 -122.2 0.0 -122.2 50.65 -86.45 86.45 -50.65 122.2 0.0 122.2 50.65 122.2 86.45 86.45 122.2 50.65 122.2 0.0 122.2 -50.65 86.45 -86.45 50.65 -122.2 0.0 -122.2" fill="#d1fed1" fill-opacity="0.41568628" fill-rule="evenodd" stroke="none"/>
    </g>
    <g id="shape3" transform="matrix(1.0, 0.0, 0.0, 1.0, 154.35, 154.4)">
      <path d="M111.0 -105.4 L111.55 -105.5 112.1 -105.15 114.75 -99.4 Q116.75 -95.0 117.1 -92.65 117.85 -87.65 118.8 -86.0 119.25 -85.2 119.0 -84.5 119.0 -83.55 118.45 -82.3 117.75 -80.65 116.55 -80.65 L115.75 -80.75 115.75 -81.15 Q115.65 -85.7 115.0 -87.2 L114.35 -88.15 114.85 -89.4 Q115.25 -90.0 115.25 -90.65 113.6 -99.05 111.35 -103.65 L111.0 -105.4 M18.25 -153.75 L18.25 -153.85 21.65 -152.2 Q23.9 -150.95 23.85 -149.2 L25.35 -147.5 Q24.5 -148.05 21.2 -151.0 L18.8 -152.95 18.25 -153.3 17.25 -153.9 17.1 -154.4 18.25 -153.75 M21.7 -151.1 L20.85 -151.9 20.65 -151.95 21.7 -151.1 M26.25 -145.5 Q28.95 -143.15 33.7 -141.35 L41.6 -138.25 43.45 -137.0 Q44.95 -135.95 45.75 -135.65 L47.6 -135.45 Q48.4 -135.55 49.5 -134.4 L52.75 -130.1 Q54.0 -128.1 55.1 -125.15 L55.0 -123.0 Q54.6 -122.6 53.65 -122.3 L53.25 -122.15 53.3 -121.3 53.4 -120.5 53.35 -120.1 53.35 -120.0 55.55 -117.6 Q60.0 -114.35 64.85 -109.65 66.35 -108.2 69.05 -102.0 L71.2 -97.05 71.9 -96.35 74.4 -93.5 Q78.9 -88.9 86.1 -86.5 L86.35 -87.2 86.85 -88.0 90.7 -83.2 Q92.8 -79.9 93.35 -73.5 L97.2 -69.85 98.05 -69.0 Q99.7 -68.0 100.6 -68.0 101.25 -68.0 101.75 -68.25 L104.75 -68.5 Q104.55 -76.0 103.85 -77.15 L104.0 -77.9 104.55 -78.0 Q106.3 -76.8 107.5 -70.7 108.45 -64.1 108.85 -62.5 L109.35 -61.25 110.75 -62.65 Q110.45 -64.6 111.3 -65.95 L112.25 -67.65 Q112.25 -77.15 111.6 -79.05 111.55 -80.2 111.1 -81.55 L112.65 -79.45 Q113.15 -77.8 113.95 -76.4 115.2 -74.3 115.85 -69.65 L116.0 -68.9 116.0 -63.5 114.25 -61.15 Q114.1 -56.65 113.75 -54.35 L114.0 -54.15 Q114.65 -41.3 117.0 -35.65 L121.1 -28.5 Q121.5 -28.9 122.25 -29.15 L122.4 -30.05 Q122.65 -30.95 122.85 -31.0 L123.05 -30.65 123.25 -30.9 Q124.5 -30.9 123.5 -30.65 L123.0 -29.6 123.0 -29.0 122.65 -28.6 122.25 -26.75 122.35 -23.65 123.1 -23.35 123.75 -22.65 123.75 -19.65 Q123.55 -18.8 122.35 -16.15 L122.5 -13.65 Q123.75 -11.65 125.85 -11.65 126.8 -11.65 127.95 -12.8 129.05 -13.9 129.85 -15.5 L130.0 -15.15 130.1 -15.4 130.5 -15.15 128.85 -9.45 Q128.05 -7.5 126.75 -5.75 L126.2 -6.25 Q125.8 -6.75 125.05 -6.75 123.45 -6.75 121.3 -4.4 L120.85 -3.85 120.85 -1.9 Q122.05 0.2 124.35 1.0 125.95 1.6 128.5 1.6 129.45 1.6 132.05 0.25 L134.7 -1.0 135.25 -1.4 135.35 -1.25 135.85 -1.4 135.85 -1.0 134.85 -0.5 134.1 0.1 132.35 1.6 131.3 3.3 129.75 5.15 Q129.2 4.75 126.95 3.7 124.6 2.6 124.1 2.6 L122.4 2.7 120.75 4.9 121.0 5.1 121.25 5.35 120.6 6.8 119.75 8.85 Q119.0 7.95 117.35 7.35 117.2 10.05 116.0 12.6 115.15 14.45 114.85 16.5 117.9 16.5 121.5 13.55 124.2 11.35 125.1 9.75 128.6 8.95 131.95 6.1 L136.6 1.9 136.7 2.45 132.0 8.8 Q128.85 12.55 124.95 15.5 123.35 16.7 122.75 19.0 122.25 21.05 120.6 21.9 117.5 23.45 117.3 24.5 117.2 25.2 117.7 27.2 L117.7 27.65 119.6 27.4 Q120.4 29.8 119.95 33.0 121.1 33.05 122.15 31.95 L123.85 30.4 124.2 30.65 Q123.05 32.6 119.45 36.9 L114.1 43.4 Q109.3 44.1 107.4 47.4 106.9 48.3 106.35 50.4 L106.35 52.75 107.75 53.5 107.85 54.2 Q107.85 56.45 102.55 60.6 97.3 64.65 97.45 67.0 L97.45 69.25 98.35 70.25 Q104.6 69.45 108.65 67.0 112.7 64.6 112.7 61.75 L114.1 60.45 Q115.7 59.15 116.35 58.25 L117.1 58.4 116.95 58.6 Q116.7 58.75 116.7 59.5 116.7 60.2 117.2 60.6 L117.85 61.25 Q120.95 60.55 122.25 59.7 L124.35 57.9 127.95 54.85 127.9 55.3 Q127.9 55.65 128.35 55.65 129.5 55.65 138.45 47.5 142.75 43.7 145.1 38.5 L145.6 38.4 145.7 38.95 141.7 47.4 139.2 51.05 Q137.25 53.6 136.7 55.15 135.35 58.95 131.35 63.25 126.8 68.25 121.85 70.0 L120.2 69.9 Q119.95 70.55 119.95 69.3 119.95 66.85 121.1 63.5 L120.95 63.15 Q119.55 63.75 117.1 65.75 L114.35 68.0 Q110.25 68.25 107.8 69.65 L104.35 71.5 Q101.9 72.05 101.0 72.55 100.9 72.55 98.7 74.25 98.25 74.4 99.1 74.85 L100.85 75.75 Q102.6 75.7 103.6 75.15 L105.35 73.75 106.0 73.85 Q106.65 74.05 106.7 74.25 L100.45 79.3 Q96.9 81.4 89.85 83.0 89.35 83.75 89.5 84.85 89.55 85.25 87.7 85.25 L88.5 86.0 89.35 86.15 90.0 86.25 Q90.7 86.4 90.85 86.65 90.1 88.0 84.25 88.65 78.0 89.35 76.85 90.25 L73.4 92.4 Q70.6 94.15 69.85 95.15 L64.9 101.0 Q63.7 102.65 63.7 105.8 63.7 106.4 63.05 106.65 62.45 106.85 62.45 107.5 62.45 108.75 62.7 109.65 L65.1 109.9 65.25 110.1 65.25 110.15 65.9 110.3 67.85 110.65 Q71.6 110.65 77.8 108.95 82.85 107.6 85.35 106.4 L85.7 106.2 Q86.1 106.1 86.1 106.9 86.1 107.3 80.4 109.5 L73.1 112.15 72.35 113.0 62.85 113.0 62.65 112.9 Q60.2 114.1 55.35 115.65 L54.2 115.75 Q56.4 116.05 56.65 116.85 56.9 117.6 62.1 118.0 L62.1 119.15 67.85 118.9 71.6 119.0 Q67.6 120.85 61.85 121.65 L61.85 121.9 54.75 121.8 47.6 121.5 43.15 120.15 Q41.1 119.4 34.7 118.9 32.85 116.95 32.85 116.25 L30.2 116.15 21.6 119.25 22.2 120.25 21.85 120.5 8.35 119.65 7.85 119.45 5.2 119.4 Q4.6 118.8 2.65 117.95 L-1.3 119.45 Q-8.7 123.05 -8.7 127.5 -8.7 127.9 -6.9 130.15 L-8.35 129.9 -12.9 129.4 -11.3 127.45 -12.0 124.25 Q-12.8 121.85 -14.85 121.0 L-16.75 121.05 -17.85 122.05 -18.1 122.35 -17.35 123.4 Q-16.8 124.15 -16.65 124.85 L-15.3 124.9 Q-14.55 126.5 -14.8 126.8 L-15.2 126.9 Q-15.2 128.3 -11.6 132.0 -8.5 135.15 -5.45 137.4 L-5.45 137.7 -6.25 137.75 Q-8.4 137.75 -13.9 132.75 -19.55 127.3 -20.7 126.4 -25.6 122.25 -26.8 118.75 -27.45 116.9 -29.75 114.4 L-31.6 112.2 Q-32.5 111.4 -33.05 111.4 L-34.45 112.0 -36.8 112.25 -40.35 111.75 -42.6 112.0 -45.05 112.25 -44.8 113.9 -44.9 114.3 -45.3 114.75 Q-46.3 114.15 -48.65 111.05 L-52.3 105.75 Q-52.9 104.8 -54.35 103.6 L-54.55 103.65 -55.5 103.0 -56.1 102.9 -57.45 103.1 -58.2 103.4 -57.95 105.65 -58.7 105.75 -65.3 99.4 Q-69.15 95.55 -71.5 94.8 L-72.45 95.9 Q-74.2 98.15 -74.2 100.4 -74.2 105.5 -71.2 109.75 -69.5 112.15 -67.7 113.4 L-68.45 114.3 -69.2 114.75 Q-68.75 120.55 -66.3 123.4 -64.95 124.95 -62.45 126.9 -64.45 127.5 -65.3 128.4 -63.8 131.65 -61.15 133.35 L-57.8 135.4 -53.9 139.05 Q-50.85 141.9 -49.95 142.9 L-50.2 143.25 Q-54.05 142.3 -60.4 136.8 L-62.8 134.55 -63.75 133.75 -64.75 132.75 -64.8 132.75 -69.75 128.5 -69.0 129.2 -65.55 132.25 -65.55 132.65 -68.2 130.2 -71.2 127.75 Q-72.4 126.75 -73.55 124.1 -74.65 121.65 -75.45 121.15 L-75.55 121.65 Q-75.55 122.05 -75.7 122.25 L-77.35 119.7 -78.55 117.4 -78.45 115.25 -76.65 114.55 Q-75.45 114.0 -74.7 114.0 L-79.7 96.4 -80.05 95.4 -82.6 93.25 Q-85.5 90.4 -86.7 89.4 L-86.8 90.15 -86.7 90.25 -87.55 90.4 Q-88.5 90.4 -89.65 85.35 -90.95 79.75 -91.3 79.25 -92.85 77.15 -93.85 73.4 -94.9 69.45 -96.05 67.75 -97.45 65.65 -101.75 61.7 -106.6 57.25 -108.35 57.25 L-111.85 57.7 Q-112.9 58.25 -113.25 59.55 L-112.95 64.4 Q-112.7 68.65 -112.45 68.9 L-112.55 70.25 Q-112.7 71.65 -112.95 71.65 L-113.1 70.25 -113.15 69.8 -113.2 70.2 -113.3 71.85 -112.95 73.15 -111.55 79.15 -113.65 75.6 Q-115.4 71.8 -115.55 65.65 L-114.8 65.5 Q-114.8 64.85 -115.15 63.3 L-115.55 61.15 -115.25 58.65 -114.8 55.25 -114.35 55.45 -114.3 55.4 -114.15 53.75 Q-114.6 51.8 -114.5 50.7 L-114.2 45.65 Q-114.2 44.85 -115.6 42.75 -116.85 40.85 -117.7 40.0 L-118.7 39.9 -118.95 42.15 -120.4 42.6 Q-121.5 42.8 -121.95 43.15 -124.2 45.05 -123.8 45.75 L-122.95 46.2 Q-122.95 47.4 -124.5 49.6 -126.25 52.05 -126.7 54.4 L-126.85 56.55 Q-127.05 58.7 -127.2 58.75 -127.4 69.15 -127.95 69.15 L-128.2 64.25 -128.55 63.9 -128.8 57.75 Q-130.6 55.15 -130.8 54.0 L-130.95 47.25 Q-130.45 46.75 -129.3 44.4 -128.75 43.2 -127.95 42.55 L-128.3 41.25 -128.1 41.7 Q-127.95 42.0 -127.2 42.0 -127.0 42.0 -126.1 41.4 L-124.7 40.4 -123.4 34.7 -122.2 29.5 -122.55 26.75 -123.05 27.65 -123.8 27.65 -123.8 25.25 -119.55 17.65 -119.4 17.9 -119.2 19.0 -118.7 17.5 Q-119.2 5.0 -120.95 0.8 -121.55 -0.65 -122.45 -1.9 L-123.4 -3.1 -123.45 -3.15 Q-123.85 -3.3 -123.55 -3.35 L-123.8 -4.15 -122.5 -3.8 -121.2 -3.4 Q-120.8 -3.85 -120.45 -5.15 L-119.6 -6.05 -118.35 -6.4 -117.85 -6.35 Q-116.35 -9.0 -116.35 -10.35 -116.35 -10.75 -117.4 -12.45 -118.6 -14.45 -119.5 -14.6 L-120.75 -14.75 -120.55 -15.85 -120.0 -17.0 -120.85 -18.0 -121.15 -18.25 -122.35 -18.5 Q-123.35 -18.5 -124.9 -17.05 L-126.75 -15.1 -126.85 -15.0 -127.0 -15.85 Q-127.0 -17.85 -122.35 -23.3 L-115.85 -30.1 Q-112.0 -33.6 -109.55 -36.75 -106.2 -41.1 -106.35 -43.75 L-106.5 -44.0 -106.85 -43.45 Q-107.2 -43.1 -108.0 -43.1 -108.8 -43.1 -108.85 -43.6 L-108.6 -44.35 Q-121.4 -37.35 -132.8 -27.9 -143.5 -19.1 -149.85 -10.85 L-150.25 -10.85 -148.6 -13.15 -149.0 -12.75 -154.35 -6.75 -153.4 -9.35 -152.0 -11.85 -149.95 -14.1 -146.35 -17.6 -147.25 -16.1 -143.4 -20.0 -142.8 -20.55 Q-139.35 -24.65 -139.35 -26.35 -139.35 -26.95 -139.85 -26.7 -140.35 -26.45 -140.35 -27.1 -140.35 -29.8 -131.85 -38.2 -124.05 -45.95 -120.6 -47.85 -115.9 -50.35 -113.9 -51.6 -110.55 -53.65 -108.85 -56.1 L-104.5 -60.25 Q-100.35 -64.4 -100.35 -65.75 -100.35 -66.5 -100.6 -66.75 L-100.75 -66.85 -100.75 -67.1 -104.05 -66.45 -105.5 -65.75 -105.85 -66.0 Q-100.55 -71.3 -93.35 -73.6 L-85.45 -79.55 Q-78.85 -84.85 -78.85 -87.75 L-80.05 -89.45 -81.85 -91.5 Q-81.8 -92.1 -80.85 -92.85 L-78.85 -94.5 -79.3 -94.65 -79.85 -95.0 -97.45 -93.6 -102.0 -92.1 -102.65 -92.2 -103.35 -92.6 Q-97.8 -95.5 -94.55 -96.8 -88.65 -99.15 -80.95 -101.0 L-81.5 -101.3 -83.0 -102.05 Q-94.85 -101.8 -106.2 -99.9 -118.1 -97.95 -123.6 -94.75 L-120.4 -97.2 -119.6 -97.85 Q-118.7 -99.25 -111.25 -101.85 -103.75 -104.45 -99.0 -105.35 L-97.35 -105.25 -97.0 -104.4 Q-96.65 -103.7 -96.0 -103.5 L-94.1 -103.0 Q-84.4 -103.35 -79.55 -104.25 L-71.25 -105.0 -68.95 -104.75 -68.5 -105.35 -62.15 -104.9 Q-59.55 -104.0 -58.0 -104.0 L-53.7 -104.7 -49.85 -105.6 Q-47.95 -107.85 -49.0 -109.35 -47.85 -110.25 -46.8 -110.45 L-44.0 -110.6 Q-43.7 -110.6 -40.15 -111.95 -36.35 -113.45 -35.5 -114.1 L-35.35 -116.05 Q-35.25 -117.45 -35.5 -118.5 L-33.5 -118.1 -32.5 -118.6 -32.35 -119.15 -35.65 -122.6 Q-37.55 -124.3 -41.75 -125.35 L-42.25 -126.0 -42.0 -126.25 -37.5 -125.75 Q-34.15 -125.35 -32.45 -124.35 -30.85 -123.35 -30.0 -123.25 L-29.85 -122.85 -31.1 -122.85 Q-30.7 -118.0 -26.0 -118.0 L-16.35 -118.1 Q-17.15 -118.75 -17.4 -119.9 L-17.8 -122.0 Q-18.65 -124.7 -23.5 -126.5 -24.7 -126.95 -25.5 -128.35 L-27.0 -130.75 -29.25 -132.7 -31.85 -134.85 -31.75 -135.25 -31.55 -135.2 Q-37.4 -139.1 -43.75 -143.85 -50.75 -148.6 -56.75 -148.6 L-58.85 -147.75 -61.25 -146.85 Q-59.05 -148.65 -58.25 -148.9 L-50.35 -148.5 Q-48.4 -147.85 -45.45 -146.05 L-42.95 -144.45 -38.4 -143.1 Q-33.8 -141.75 -31.6 -141.5 -26.75 -140.8 -25.55 -140.0 -24.7 -138.95 -23.25 -138.1 L-23.35 -137.75 Q-24.25 -137.75 -25.0 -138.5 L-25.1 -137.5 Q-25.1 -133.85 -20.0 -129.55 -14.1 -124.55 -7.25 -125.35 L-5.3 -123.9 -3.5 -122.6 -3.25 -122.6 -3.25 -123.0 Q-3.25 -125.25 -4.1 -126.7 L-5.55 -128.65 Q-6.3 -129.5 -5.05 -129.5 L-1.1 -126.3 -1.35 -127.4 -1.25 -128.75 Q-0.25 -126.75 3.35 -122.9 L5.1 -120.8 6.05 -120.3 Q11.0 -117.75 14.9 -117.75 18.15 -117.75 20.35 -118.5 21.0 -118.7 21.5 -119.65 22.0 -120.45 22.5 -120.5 22.8 -120.5 23.45 -120.1 24.05 -119.65 24.75 -119.65 L25.5 -119.8 Q25.55 -120.0 25.85 -120.0 L26.05 -119.85 Q26.25 -119.75 26.25 -120.5 L25.0 -122.85 23.5 -124.9 24.05 -125.0 Q27.6 -122.85 32.55 -118.1 L37.7 -112.55 41.5 -111.4 Q44.6 -110.45 46.0 -108.75 48.15 -106.15 50.6 -104.0 53.7 -101.25 55.15 -101.25 56.25 -101.25 56.35 -102.15 L56.25 -104.0 57.25 -104.7 Q58.35 -105.6 58.85 -106.65 58.95 -108.9 57.5 -111.6 L55.85 -114.15 55.65 -114.5 53.9 -116.0 48.6 -120.5 48.6 -120.9 Q49.8 -120.45 51.0 -119.8 L51.65 -119.95 51.45 -120.45 50.25 -123.4 46.25 -128.4 44.85 -129.75 Q43.6 -130.7 42.85 -130.0 L42.75 -130.05 42.95 -129.8 42.0 -130.25 41.65 -130.8 39.1 -134.0 33.05 -139.3 26.0 -145.15 26.25 -145.5 M1.3 -112.0 L1.15 -112.1 1.0 -112.75 0.55 -112.8 0.4 -112.8 0.55 -111.75 Q0.55 -111.0 0.2 -110.65 L-0.5 -110.0 -4.85 -110.35 -7.0 -110.85 Q-7.8 -109.85 -7.6 -109.25 L-8.0 -109.0 -13.25 -110.2 -17.6 -111.35 Q-24.3 -111.35 -32.75 -107.35 -41.0 -103.45 -41.0 -100.55 -41.0 -99.1 -42.35 -97.7 -44.5 -95.45 -49.1 -95.75 L-48.1 -94.35 -47.0 -92.75 Q-47.15 -92.1 -47.5 -92.0 L-52.85 -93.5 Q-63.5 -93.7 -76.15 -82.45 -81.0 -78.15 -84.35 -73.65 -87.5 -69.4 -87.6 -67.5 L-87.6 -67.1 -86.05 -67.8 -84.0 -68.35 -80.85 -68.25 -78.25 -65.85 -81.5 -63.25 -81.75 -62.85 -81.6 -62.1 Q-79.0 -62.1 -76.85 -62.75 L-76.6 -62.35 Q-76.6 -61.85 -76.95 -61.6 L-76.25 -61.35 -80.5 -59.85 -81.2 -59.5 Q-84.3 -57.85 -87.0 -56.85 L-91.35 -53.6 Q-93.55 -51.55 -93.6 -51.1 -93.25 -50.8 -93.25 -50.25 -93.25 -49.5 -93.5 -49.15 L-93.75 -48.75 Q-93.55 -47.9 -94.0 -47.25 L-95.75 -44.25 -97.9 -41.15 Q-99.45 -39.1 -100.35 -38.25 L-100.75 -38.25 -100.55 -39.35 -100.25 -40.5 -101.4 -39.9 -101.45 -39.85 -105.75 -35.25 Q-112.0 -28.1 -112.0 -22.0 L-111.15 -18.2 -110.45 -15.45 Q-109.1 -15.25 -109.1 -14.0 L-108.85 -11.45 -108.6 -9.1 -108.7 -8.2 -109.0 -8.0 -109.5 -7.75 Q-109.85 -8.0 -109.85 -9.0 -112.2 -7.35 -112.9 -4.7 L-113.0 -4.0 Q-112.05 -6.15 -110.75 -7.85 -111.2 -4.85 -112.3 -1.1 L-112.6 -0.05 -112.85 0.65 -112.85 0.75 -112.95 1.0 -113.2 2.4 Q-113.2 11.95 -109.05 17.45 -104.55 21.7 -103.95 23.4 L-104.1 24.0 -104.7 24.65 Q-104.55 36.15 -104.3 36.4 -102.9 47.65 -98.2 54.7 -94.05 61.0 -89.3 61.4 L-88.95 59.25 -87.1 58.8 -85.2 58.5 Q-83.05 58.5 -79.95 59.75 -79.95 60.25 -80.7 60.25 -78.85 68.85 -75.8 73.05 -73.9 75.65 -68.8 80.9 -66.4 83.75 -62.05 86.6 L-60.15 87.8 -59.65 88.1 Q-54.2 91.0 -53.35 91.0 L-52.2 90.75 -51.7 90.5 -51.45 89.25 -51.1 89.05 -50.1 89.0 Q-48.45 89.0 -46.55 90.0 -44.2 91.25 -44.2 93.25 -44.2 96.05 -39.05 99.95 L-34.4 103.0 -33.2 102.65 -32.8 99.25 -31.7 98.45 -30.2 98.15 Q-28.7 98.15 -25.7 99.15 -25.05 98.8 -25.55 99.4 L-26.2 100.25 Q-26.2 103.95 -19.2 107.05 -15.7 108.6 -12.05 109.4 L-10.85 108.45 -9.45 107.5 -7.2 107.5 Q-4.6 107.5 -1.6 109.5 L2.8 112.45 Q13.55 111.05 18.45 109.3 21.35 108.25 24.75 106.5 L30.85 102.9 31.05 103.5 30.7 104.15 Q41.05 104.65 55.7 96.25 L59.1 94.25 61.95 92.3 Q66.95 89.05 67.45 87.0 L65.75 86.0 Q65.45 85.75 65.45 85.3 65.45 84.55 65.7 84.55 L65.8 84.55 Q64.75 84.25 64.1 83.15 63.45 82.1 63.45 81.05 63.45 79.5 65.0 76.7 L67.35 72.75 Q67.85 73.0 67.85 74.4 L67.85 74.5 Q79.65 71.25 87.1 65.0 L87.95 62.65 87.6 62.75 85.7 62.75 85.45 60.9 Q85.45 60.5 86.55 57.9 87.75 55.15 88.35 54.65 98.05 50.55 102.9 43.3 L106.3 37.25 107.75 34.6 107.85 33.15 107.8 30.1 Q107.6 27.95 106.45 26.75 105.95 26.25 104.9 25.95 104.35 25.8 104.35 24.65 L104.1 23.35 103.85 21.65 Q103.85 21.25 104.8 19.25 105.65 17.4 105.35 16.4 L105.7 16.65 106.95 16.9 Q108.4 16.9 109.5 14.7 L110.85 11.25 Q111.85 7.6 111.85 6.2 L111.35 4.5 Q110.85 3.4 110.85 2.8 110.85 1.6 111.75 0.6 L112.35 -0.25 111.2 -5.25 111.0 -5.65 Q110.75 -6.4 111.0 -6.4 L111.1 -7.4 111.85 -6.0 112.25 -5.75 112.6 -6.15 Q112.55 -9.1 111.75 -12.25 L110.75 -15.25 Q109.05 -18.6 109.1 -20.4 L109.25 -24.15 Q108.85 -27.85 105.9 -33.1 L105.05 -34.15 104.15 -34.55 101.85 -35.65 99.6 -36.2 Q98.25 -36.75 97.75 -38.15 L97.75 -38.3 Q96.9 -39.5 96.75 -41.15 L97.75 -40.15 97.8 -40.3 98.1 -41.9 98.2 -42.8 98.15 -43.25 97.65 -43.25 Q96.85 -43.25 97.0 -43.45 L97.25 -43.65 97.25 -48.2 Q94.55 -57.3 91.15 -62.95 88.05 -68.0 83.8 -71.2 L83.85 -71.0 83.15 -71.7 81.75 -72.65 81.75 -73.15 81.45 -73.45 Q79.65 -75.25 78.6 -75.75 L77.85 -76.15 77.6 -73.4 Q77.05 -71.9 75.75 -71.45 L73.5 -71.15 70.6 -71.0 69.55 -70.75 Q68.75 -70.75 68.2 -71.55 L66.85 -73.35 66.75 -73.25 Q66.2 -73.25 65.6 -74.0 L65.85 -74.25 66.55 -74.4 66.65 -74.4 66.75 -74.5 Q66.0 -82.0 61.3 -89.6 58.4 -91.85 57.45 -91.85 56.0 -91.15 53.8 -91.15 51.35 -91.15 49.95 -92.45 L45.5 -97.75 Q43.9 -99.65 39.55 -103.1 L33.0 -105.75 Q29.95 -107.0 27.3 -107.0 25.0 -107.0 22.4 -105.75 19.85 -104.5 18.5 -104.5 17.4 -104.5 15.5 -105.75 13.6 -107.0 13.6 -107.65 13.6 -111.1 7.45 -111.85 L3.25 -112.3 3.15 -112.3 2.5 -112.0 1.3 -112.0 M75.4 -111.45 L78.35 -107.0 74.85 -111.3 Q72.65 -113.95 72.1 -115.4 L75.4 -111.45 M79.1 -107.4 L83.0 -104.65 Q85.3 -103.0 85.6 -98.65 85.35 -97.5 85.1 -97.4 83.3 -103.4 79.0 -106.65 L79.1 -107.4 M126.35 -56.05 Q127.15 -52.7 127.5 -48.5 L126.1 -47.2 125.1 -46.4 124.85 -46.65 124.95 -47.3 125.25 -48.0 Q125.25 -57.15 124.6 -60.4 125.55 -59.35 126.35 -56.05 M152.5 -27.65 L150.85 -17.4 Q149.65 -10.6 147.85 -9.75 146.6 -7.3 145.05 -6.1 143.9 -5.2 142.25 -4.75 L141.85 -5.15 144.7 -10.5 Q147.3 -15.25 147.5 -15.9 L149.5 -25.45 Q151.1 -33.55 152.1 -35.9 L152.5 -35.65 152.5 -27.65 M128.55 -40.4 L129.0 -39.65 Q128.85 -35.5 128.6 -35.4 L127.6 -32.75 Q126.75 -31.2 125.85 -30.4 125.75 -31.4 126.4 -33.95 L128.1 -40.9 128.55 -40.4 M150.1 31.5 L150.15 31.7 150.6 31.0 150.1 31.5 M149.6 33.05 L149.4 33.3 149.6 33.25 149.6 33.05 M147.1 35.0 L149.55 31.05 Q151.05 28.7 151.6 27.15 L152.1 27.0 150.4 32.35 Q149.05 35.9 147.2 35.75 L147.1 35.0 M97.1 87.4 Q97.6 87.0 100.1 86.5 L98.85 87.9 Q97.2 87.75 97.1 87.4 M107.25 81.85 L107.7 82.25 Q107.1 82.95 106.2 82.75 106.45 82.15 106.85 81.75 L107.25 81.85 M67.35 111.15 L66.9 111.1 66.85 111.15 67.35 111.15 M65.0 111.75 L64.8 111.75 64.4 112.05 65.0 111.75 M70.85 122.9 Q73.5 122.5 75.0 123.6 76.7 124.75 77.35 124.75 L87.05 124.05 88.85 123.4 89.2 123.2 Q89.6 123.1 89.6 123.9 89.6 125.0 84.55 126.05 L76.2 126.75 Q73.55 124.1 72.35 123.5 70.7 123.25 70.6 123.0 L70.85 122.9 M52.75 125.85 L53.7 126.25 53.35 126.5 Q51.7 126.4 51.6 126.0 L51.85 125.75 52.75 125.85 M48.35 127.2 L43.1 127.0 45.1 126.55 47.85 126.25 Q49.1 126.25 49.1 126.5 L48.35 127.2 M28.25 127.6 Q26.2 126.75 25.6 125.9 L25.7 125.5 Q30.2 128.3 31.1 128.4 30.1 128.4 28.25 127.6 M17.85 157.0 Q8.6 156.0 6.8 154.8 5.5 154.0 3.35 154.0 L1.2 153.9 Q-1.1 152.9 -3.25 150.0 -5.35 147.15 -5.45 144.9 -5.4 144.5 -4.9 144.4 -4.0 145.2 -2.55 147.2 -0.6 148.95 4.1 149.4 4.3 150.05 5.4 151.2 L7.35 153.15 Q8.95 153.5 12.2 154.6 14.9 155.55 19.2 156.25 L17.85 157.0 M89.1 104.0 Q89.6 103.5 91.1 103.5 L90.35 104.5 Q89.2 104.4 89.1 104.0 M92.1 121.5 Q96.0 119.7 96.6 119.5 L96.85 119.9 Q96.5 120.55 94.95 121.2 93.4 121.85 92.2 121.75 L92.1 121.5 M-65.25 -120.35 Q-64.35 -121.7 -60.15 -122.4 -54.9 -123.3 -53.0 -124.25 L-47.6 -123.5 -43.25 -122.25 -43.35 -122.05 Q-43.5 -121.85 -43.75 -121.85 L-43.75 -122.1 -50.1 -122.0 -49.35 -121.35 -48.5 -120.75 -48.35 -120.35 Q-53.1 -120.9 -54.5 -121.6 L-63.5 -120.25 -65.25 -120.35 M-76.65 -101.95 L-76.05 -102.05 -76.85 -102.1 -76.65 -101.95 M-90.55 -80.05 Q-88.35 -81.3 -86.75 -80.35 -89.05 -79.05 -95.35 -76.6 L-104.0 -73.1 Q-108.6 -71.0 -116.5 -65.75 L-117.25 -65.85 -112.35 -69.3 -106.35 -72.85 -101.6 -76.7 Q-99.2 -78.5 -94.1 -78.5 -93.3 -78.5 -90.55 -80.05 M-73.2 94.95 L-73.0 94.65 Q-73.3 94.7 -73.25 94.8 L-73.2 94.95" fill="#f6fef6" fill-opacity="0.8" fill-rule="evenodd" stroke="none"/>
    </g>
    <g id="shape4" transform="matrix(1.0, 0.0, 0.0, 1.0, 67.65, 7.65)">
      <path d="M212.6 -7.5 L213.0 -7.0 213.05 -6.35 Q212.45 -4.1 212.5 -2.85 L212.9 -1.1 212.9 -1.15 213.55 1.15 Q213.6 2.45 212.1 5.05 L210.15 8.85 210.2 8.8 Q209.6 11.1 208.15 12.95 L208.2 12.9 Q206.5 15.4 204.3 15.85 L203.95 16.15 203.5 16.3 Q202.5 16.5 202.1 15.55 L201.9 14.5 Q201.75 14.0 204.25 10.9 206.35 7.8 206.3 4.7 L206.3 4.65 205.75 2.9 205.7 2.85 205.0 0.35 205.0 0.25 Q204.95 -2.1 207.8 -4.6 L207.8 -4.65 211.35 -7.4 211.95 -7.65 212.6 -7.5 M248.85 81.85 Q253.5 83.45 253.0 84.85 L252.8 85.35 252.3 85.65 251.7 85.7 Q249.75 85.35 247.55 86.55 L247.6 86.45 Q244.2 88.4 242.55 88.4 L241.9 88.25 241.45 87.7 241.45 87.05 241.7 86.45 Q236.45 80.5 228.85 80.25 222.4 80.05 217.65 83.25 216.05 84.35 215.05 86.1 L215.05 86.15 Q214.35 87.4 214.3 88.5 L214.35 89.55 214.8 90.6 214.8 90.55 Q215.4 91.7 216.55 92.25 L216.5 92.25 Q218.5 93.1 219.05 93.95 L219.05 94.05 Q219.9 95.7 219.1 96.45 L218.95 96.55 218.95 96.6 220.4 99.35 Q222.8 101.65 226.6 102.75 230.35 103.8 232.45 103.15 232.8 102.95 233.2 103.15 L233.8 103.6 Q234.6 105.1 234.0 106.0 L233.75 106.35 233.3 106.55 228.8 107.0 225.55 107.8 221.45 113.0 Q220.75 113.6 218.15 114.35 216.05 115.05 215.5 115.45 212.55 117.45 211.35 119.75 L211.35 119.8 Q209.4 123.3 210.75 128.5 L212.95 131.6 214.7 131.15 215.35 131.1 215.85 131.4 216.2 132.0 216.25 132.65 Q216.35 133.25 215.65 133.95 L215.65 134.1 215.55 134.55 Q213.55 138.05 212.85 142.15 L212.85 142.2 Q212.6 143.6 213.85 149.65 L213.85 149.75 215.1 155.55 Q216.3 157.85 220.25 162.5 L222.85 162.45 222.85 162.5 Q223.7 161.7 224.4 161.85 225.05 161.85 225.5 162.4 L226.1 162.2 230.4 160.4 230.45 160.35 Q234.55 158.2 237.2 157.65 L237.25 157.4 237.5 156.95 237.95 156.6 Q238.2 156.3 238.6 156.25 L239.35 156.45 239.8 157.1 239.9 157.45 240.0 157.45 240.6 157.65 241.05 158.15 241.1 158.75 240.85 159.2 241.0 159.4 Q242.65 160.95 243.85 160.35 L244.2 159.7 Q244.45 158.1 245.7 157.5 L245.75 157.45 Q247.3 156.75 248.8 156.0 L248.9 155.95 Q253.0 154.55 255.05 156.0 L255.55 156.6 255.45 157.35 254.8 157.8 Q253.6 158.25 252.5 159.0 L252.5 159.05 Q249.85 160.95 249.15 167.05 248.15 178.15 247.3 181.05 L247.3 181.0 Q247.0 182.45 242.15 187.8 237.55 192.95 235.8 194.15 233.55 195.7 232.55 195.55 L231.75 195.2 231.5 194.45 231.75 192.4 229.05 192.5 Q228.15 192.8 225.8 194.45 L225.8 194.4 Q223.75 195.8 220.2 200.15 L220.2 200.1 216.6 204.45 216.5 204.55 216.45 204.65 Q214.6 208.15 214.0 209.75 212.9 212.6 213.3 216.15 215.85 219.45 215.85 219.9 L215.8 220.35 Q215.75 220.75 216.2 221.45 L216.2 221.5 216.75 221.95 218.6 220.7 218.95 220.3 219.6 220.1 Q220.35 219.85 221.35 221.55 223.05 224.35 218.7 229.5 L218.7 229.55 Q215.85 232.95 213.6 234.55 211.0 236.3 209.5 240.05 L209.45 240.1 209.0 241.25 209.75 241.6 209.7 241.55 Q212.05 242.65 212.4 243.55 L212.45 243.6 214.9 248.85 214.95 249.25 214.9 249.65 Q214.6 250.2 214.75 250.75 L215.35 253.7 215.2 254.45 Q214.55 255.2 214.3 256.25 216.5 257.15 217.95 256.3 219.7 254.9 224.05 248.15 L224.6 247.7 225.35 247.7 225.9 248.15 226.05 248.85 Q225.6 252.95 223.4 258.3 L223.4 258.25 Q220.95 264.45 218.1 266.95 217.65 267.65 216.55 270.45 215.25 273.65 213.75 275.25 L213.7 275.25 Q212.45 276.55 212.0 279.3 L211.95 279.45 211.5 283.3 211.65 283.4 211.9 283.55 213.25 284.95 213.35 285.1 213.7 285.7 Q215.75 287.25 218.7 287.0 L218.75 287.0 222.05 286.6 222.8 286.65 223.25 287.2 223.3 287.9 Q223.25 288.65 221.95 289.25 L221.85 289.25 220.9 289.85 220.85 289.95 220.5 290.25 Q220.55 290.15 220.6 290.2 L220.75 290.25 Q222.85 292.05 221.7 294.05 L221.5 294.3 220.1 295.65 218.35 296.9 218.3 296.9 215.55 297.75 214.45 298.6 213.65 298.55 213.6 298.55 213.95 298.75 214.25 298.8 214.5 298.9 214.9 299.3 214.9 299.35 215.05 299.6 215.05 299.95 214.95 300.3 214.7 300.9 214.15 301.2 212.95 301.4 Q212.7 301.45 212.4 301.6 L212.35 301.65 211.4 301.95 211.35 301.95 Q210.95 302.3 210.65 302.95 L132.7 302.95 133.8 300.3 Q134.2 298.25 136.85 296.2 L136.8 296.2 Q139.75 293.8 142.8 292.95 146.1 291.85 152.1 292.05 L152.45 292.1 153.95 292.15 154.4 292.75 154.3 293.45 154.5 293.85 155.3 294.3 155.4 294.3 160.5 294.5 162.6 293.8 Q164.45 293.25 165.45 292.6 165.9 292.2 165.95 291.8 166.05 290.4 167.15 289.65 L167.15 289.6 Q169.4 287.85 173.75 286.9 177.3 286.1 180.45 286.15 L180.5 286.15 182.1 286.2 182.25 286.25 Q183.3 286.45 183.3 287.15 183.65 287.65 182.9 288.35 L182.7 288.55 183.7 288.85 185.6 288.7 Q187.75 286.95 193.1 286.25 L193.2 286.25 Q198.5 285.55 201.85 286.9 L202.15 287.15 202.8 287.8 205.15 287.2 207.75 286.3 205.2 284.45 205.2 284.4 Q202.55 282.3 202.4 281.95 L202.3 281.85 200.55 278.4 200.45 277.85 Q201.15 272.7 198.4 265.5 195.6 258.25 197.05 254.0 L197.05 254.1 Q197.55 252.4 199.75 247.3 L199.85 247.25 200.6 244.3 Q197.8 238.8 198.95 233.8 199.4 231.1 200.7 227.45 200.85 224.1 202.25 220.7 L203.4 214.55 201.45 210.45 201.4 209.8 202.45 206.15 201.85 204.4 201.8 204.1 Q201.45 199.05 206.0 192.65 L205.9 192.65 Q209.4 187.45 208.15 179.55 L206.8 177.0 205.75 174.85 205.35 174.35 205.35 174.3 Q205.15 173.95 205.1 173.15 L205.1 172.9 205.15 172.75 205.1 172.6 205.1 172.5 205.3 170.4 205.1 169.85 205.0 169.3 203.9 167.25 Q199.95 164.25 199.65 163.55 197.4 159.25 197.0 157.65 194.95 153.5 196.7 148.65 L196.5 148.0 Q196.15 147.1 196.25 146.5 L192.75 140.45 190.65 139.4 190.15 138.95 188.75 136.0 Q187.55 133.45 187.35 132.35 L183.85 125.5 183.75 125.0 184.65 117.35 185.4 110.3 184.6 109.35 Q183.55 108.95 183.0 108.0 182.5 107.65 183.45 102.1 184.4 96.45 185.45 94.85 187.9 90.8 188.7 89.95 189.5 88.75 191.7 87.35 L191.7 87.3 Q189.15 82.5 186.05 80.2 L182.45 79.95 Q181.5 80.0 180.25 78.95 L180.15 78.85 178.1 75.75 Q176.85 73.3 176.6 72.15 L176.6 72.2 176.45 71.3 176.5 71.15 176.9 68.7 Q176.3 67.15 176.3 64.6 L176.3 64.5 Q176.2 61.95 176.5 61.4 176.8 60.5 179.3 57.15 179.4 56.9 179.65 56.8 L180.25 56.7 184.05 56.75 Q185.3 56.55 186.75 52.65 L186.8 52.6 Q187.7 50.25 188.2 47.95 L187.6 42.45 186.55 40.3 185.0 38.05 184.75 37.9 Q182.85 38.7 181.45 37.55 L181.4 37.45 Q180.35 36.45 180.35 35.15 L180.35 35.1 Q180.25 31.3 183.05 28.4 L183.1 28.35 Q184.65 26.8 189.25 23.85 L189.95 23.65 191.95 23.95 192.05 23.85 192.7 23.65 193.9 23.85 193.95 23.85 194.75 24.05 195.1 24.25 195.35 24.5 195.65 25.25 195.65 25.55 195.45 26.25 194.8 26.6 194.15 26.5 193.55 26.6 193.2 26.6 Q192.65 27.65 192.65 28.7 192.8 30.8 195.0 34.25 L195.0 34.2 Q197.6 37.85 200.55 38.0 L202.75 37.9 203.85 36.8 203.85 36.7 203.85 36.3 Q203.55 36.0 203.65 35.6 203.7 35.2 204.0 34.95 204.3 34.7 204.75 34.7 L205.45 34.95 206.5 35.9 206.7 36.15 208.2 39.1 Q209.55 42.0 209.95 44.0 L209.95 43.9 210.05 44.95 210.85 48.9 210.9 48.9 Q211.3 50.25 211.55 53.25 L211.35 54.0 210.7 54.4 209.9 54.25 Q209.25 54.1 207.95 55.55 L207.9 55.55 Q205.6 58.25 204.35 61.4 203.75 63.0 203.0 66.9 202.2 71.35 202.2 73.5 202.25 76.3 202.45 77.35 L203.1 79.3 203.15 79.55 203.2 80.45 203.4 81.15 203.45 81.05 203.5 81.05 Q205.7 78.1 209.35 75.75 223.9 65.8 242.15 74.9 L242.7 75.4 Q244.75 80.35 248.85 81.9 L248.85 81.85 M206.2 12.95 L205.3 12.1 204.6 13.4 206.2 12.95 M191.5 24.6 L191.6 24.5 191.6 24.55 192.3 24.1 191.95 23.95 Q191.55 24.25 191.5 24.6 M191.7 25.35 L191.85 25.15 191.65 25.25 191.7 25.35 M90.3 60.2 L90.1 61.0 89.1 62.3 88.15 64.2 88.05 64.45 87.75 65.15 87.5 66.0 86.65 67.0 83.85 72.5 79.25 80.75 78.9 81.1 78.45 81.25 77.4 81.35 77.3 81.35 Q76.95 81.55 76.2 80.7 L76.1 80.65 75.1 82.05 73.55 84.35 73.65 84.3 70.6 88.1 Q72.0 88.1 72.4 88.4 73.35 88.95 74.1 90.15 L74.15 90.2 74.65 90.85 75.05 91.25 75.1 91.85 Q74.6 94.7 74.95 97.1 75.65 99.7 75.75 101.0 L75.7 101.4 74.7 104.1 74.2 104.7 Q73.65 105.05 70.25 111.15 L69.5 114.75 69.35 114.95 69.35 115.0 69.3 115.15 Q72.1 118.4 72.25 119.8 L72.2 120.3 Q71.4 122.4 71.45 124.8 L71.45 124.85 Q71.55 127.35 70.65 128.95 70.5 130.1 69.25 132.55 L69.2 132.6 67.9 135.45 67.7 135.75 67.65 135.8 67.35 136.15 66.85 136.35 66.15 136.4 61.7 143.4 61.65 143.9 Q61.35 147.05 60.15 149.95 L59.9 151.4 59.8 151.85 59.4 152.2 58.7 152.9 58.6 153.0 Q55.7 155.65 54.0 158.45 54.4 159.95 53.25 160.85 L53.2 160.85 Q53.35 162.2 54.3 163.3 L54.35 163.35 Q57.65 167.9 54.5 173.9 L48.6 182.5 Q47.4 184.65 48.15 186.6 L48.2 186.65 Q48.9 189.35 48.7 191.15 53.15 194.7 54.9 197.7 L54.9 197.65 Q58.35 203.1 54.65 213.1 L54.2 213.6 52.95 213.8 52.75 214.1 Q52.3 215.0 52.9 216.8 53.85 219.65 53.7 221.05 L53.7 221.2 53.8 221.45 Q53.8 222.65 52.85 222.65 48.1 228.75 52.6 234.95 L52.75 235.4 52.7 235.85 51.85 238.15 53.45 241.25 Q54.4 242.85 54.5 243.9 L54.5 244.25 Q53.7 246.95 54.35 250.4 54.8 252.9 55.8 254.75 L55.85 254.8 58.15 260.1 Q59.15 263.9 57.35 267.35 L57.35 267.4 55.75 269.3 55.7 269.35 Q54.75 270.1 54.1 271.3 L54.4 274.2 54.4 274.25 Q54.45 276.75 53.8 277.95 L51.8 280.1 51.75 280.2 Q51.25 280.5 50.95 280.75 L50.65 281.2 50.2 281.65 49.7 281.75 49.0 281.75 48.4 281.6 48.05 281.15 47.7 280.5 47.55 280.0 47.7 279.6 48.1 278.85 Q48.2 275.55 47.2 272.2 46.15 268.7 44.65 267.2 L44.1 267.55 Q43.4 268.0 42.5 267.3 L42.55 267.3 Q40.15 265.85 39.85 259.65 39.75 254.7 38.2 253.4 L37.75 252.9 Q37.65 252.5 37.85 252.15 L38.0 251.8 Q38.15 251.5 38.45 251.35 38.75 251.1 39.1 251.15 L39.75 251.45 43.35 254.25 46.4 254.4 47.45 252.5 47.0 249.2 45.0 247.8 Q43.65 246.85 42.2 246.45 L41.75 246.3 Q40.3 245.3 38.4 241.5 L38.6 241.75 36.1 236.7 36.05 236.6 Q34.2 230.95 35.85 227.9 36.0 227.6 36.45 227.45 L36.85 227.2 Q37.25 226.5 37.05 225.7 L37.05 225.75 Q36.75 225.0 35.0 223.8 L33.8 223.25 33.75 223.25 33.2 223.2 32.9 223.55 32.55 223.75 32.15 223.9 31.5 223.9 30.95 223.5 30.5 223.2 30.2 222.55 30.3 221.8 30.05 220.85 Q29.75 219.65 29.95 218.55 L30.0 218.25 31.15 215.8 Q31.25 215.4 31.65 215.25 36.75 212.9 37.9 212.7 L38.8 212.55 Q38.5 210.25 38.4 205.05 38.35 201.9 36.75 200.7 35.7 200.0 34.05 199.65 L33.8 199.5 Q31.95 198.6 30.65 194.5 30.05 192.95 28.35 191.2 L25.95 188.75 25.4 188.2 Q25.25 187.75 25.45 187.4 L25.6 187.05 26.25 186.5 Q26.6 186.3 27.05 186.5 L27.7 187.1 28.25 187.25 Q29.3 187.15 30.0 185.85 L30.0 185.9 30.05 185.75 27.75 183.9 27.7 183.9 25.0 182.25 24.65 182.2 20.55 181.65 20.5 182.0 20.5 182.1 20.3 182.55 19.8 183.1 18.65 183.05 Q18.35 183.0 18.15 182.35 16.25 181.1 12.6 179.4 L12.45 179.3 9.85 176.8 9.8 176.8 9.3 176.7 8.9 176.35 0.7 164.75 Q-1.25 162.7 -7.45 158.55 L-7.5 158.5 Q-8.7 157.7 -12.5 156.2 L-13.05 155.7 -13.1 155.0 -12.7 154.4 -9.05 154.5 -10.15 150.7 -10.15 150.65 -10.65 148.4 -10.55 147.55 -9.0 145.8 -8.8 145.6 Q-7.75 144.8 -2.1 146.55 L-1.5 147.05 Q-1.3 147.4 -1.4 147.8 L-1.7 148.35 -0.65 148.15 -0.8 147.8 Q-0.95 147.45 -0.7 147.1 L-0.2 146.6 0.7 146.15 0.8 145.85 1.2 145.3 Q1.45 145.15 1.85 145.15 3.35 143.65 5.05 140.8 L4.95 140.2 1.2 140.3 0.6 140.2 0.25 139.75 Q-0.45 139.15 0.65 137.0 L0.8 136.8 1.4 135.45 Q1.5 135.15 1.85 135.0 2.6 134.5 6.2 134.95 L6.25 135.0 6.8 135.05 Q9.8 135.55 11.05 136.5 13.7 138.25 14.55 141.05 L14.65 141.1 15.15 144.35 15.6 146.4 Q16.3 150.0 16.0 150.35 L15.95 150.4 14.95 152.55 Q15.35 155.1 16.9 157.55 18.25 159.7 19.55 160.25 L20.1 160.7 20.25 161.3 19.95 161.9 19.5 162.45 Q19.25 162.7 18.75 162.75 L18.05 162.55 14.35 160.0 14.25 160.0 Q13.45 159.45 12.8 158.35 L12.25 158.65 11.5 158.55 5.3 158.8 6.6 161.35 6.6 161.4 Q8.45 165.05 10.65 166.6 12.9 167.65 14.45 168.65 L16.35 168.2 18.05 167.8 18.55 167.8 19.0 167.95 Q20.1 168.75 20.2 170.05 L20.2 170.15 20.25 170.5 20.3 170.55 Q21.2 171.05 23.05 170.95 L23.1 170.95 Q25.4 170.9 26.5 168.8 L26.5 168.85 Q27.05 167.45 25.2 165.35 L22.0 162.45 Q21.6 162.2 21.55 161.8 21.5 161.4 21.75 161.1 22.0 160.8 22.4 160.7 L23.15 160.75 28.1 162.9 Q31.5 164.15 32.05 163.6 32.3 162.75 37.35 160.55 41.5 158.8 45.15 151.95 45.75 150.65 44.9 147.95 L44.45 146.6 Q43.65 146.8 42.65 146.2 L42.3 145.8 Q42.1 145.45 42.2 145.2 42.5 142.3 40.75 136.5 38.05 127.4 37.85 126.25 37.7 125.85 37.95 125.55 L38.85 123.4 38.85 123.3 Q39.2 121.8 39.65 121.0 L39.7 120.9 40.85 119.15 Q40.75 117.6 37.3 113.55 33.95 109.55 31.8 108.1 L31.8 108.05 30.3 107.05 30.25 107.0 30.2 106.9 29.2 108.0 28.4 108.15 Q28.05 108.1 27.85 107.85 L27.45 107.25 Q27.3 104.7 27.95 103.4 28.05 103.05 28.4 102.85 L29.15 102.75 31.8 103.3 Q33.15 103.45 33.95 102.0 34.95 99.55 28.05 94.5 L28.1 94.5 25.9 93.05 21.8 93.65 21.35 93.65 20.9 93.45 Q19.95 92.8 18.65 90.1 L18.65 90.05 Q17.45 87.45 17.4 85.65 17.4 85.4 17.55 85.2 L18.75 82.5 Q18.8 82.25 19.1 82.1 19.25 81.95 19.45 81.9 L20.55 81.6 20.75 81.55 20.2 81.4 19.7 81.1 19.45 80.55 19.55 80.0 Q21.65 75.7 23.75 73.25 L24.1 72.95 28.15 71.1 28.2 71.1 Q31.1 69.75 32.8 69.95 33.1 70.0 33.3 70.2 L33.75 70.65 33.75 70.7 Q37.2 69.2 39.35 69.55 40.85 69.55 43.55 71.35 L43.65 71.45 45.85 73.1 46.2 73.6 46.15 74.3 45.75 74.75 Q45.3 75.0 45.4 75.6 45.55 76.6 46.7 78.35 48.65 81.35 50.7 82.75 L50.65 82.75 54.35 84.1 54.3 84.1 57.5 85.05 58.55 83.7 Q58.75 83.4 59.2 83.35 L59.6 83.3 58.8 79.1 58.75 79.05 Q58.6 77.85 57.5 75.35 56.7 73.4 56.85 73.2 53.4 73.25 52.65 69.65 L52.65 69.7 Q52.3 68.7 52.45 64.85 52.5 61.45 52.85 60.1 52.9 59.8 53.1 59.6 53.4 59.4 53.7 59.35 L54.85 59.15 55.3 59.15 56.0 59.25 58.3 57.4 Q59.7 56.2 60.3 54.2 61.5 49.75 61.55 47.0 L61.3 43.8 60.75 39.2 60.75 39.1 60.4 34.85 60.4 34.9 Q59.85 32.3 59.85 30.9 L59.85 30.85 Q59.9 30.1 60.05 29.9 60.5 28.45 61.5 29.2 L62.05 29.6 Q62.9 30.3 63.5 33.05 L64.55 37.0 Q65.3 38.8 65.3 41.4 L65.3 41.5 65.15 45.35 Q66.0 50.7 67.05 54.25 68.65 59.4 71.95 59.85 71.5 57.8 72.75 55.7 L72.9 55.5 73.4 54.85 73.45 54.75 73.55 54.55 73.65 54.35 73.75 53.85 73.45 52.75 72.7 51.6 Q72.45 51.3 72.5 51.0 72.55 50.6 72.85 50.4 L73.45 50.1 Q74.85 49.6 77.3 52.8 L77.3 52.75 Q79.4 55.35 79.4 57.1 80.35 63.65 83.55 63.85 L83.9 63.85 83.95 63.75 84.0 63.7 84.9 62.85 84.95 62.75 Q85.0 62.45 85.2 62.25 85.35 62.05 85.7 62.0 L85.9 61.65 Q86.5 60.55 88.15 59.35 88.4 59.1 88.85 59.1 L89.5 59.3 89.85 59.55 90.3 60.2 M8.95 84.6 Q9.15 84.95 9.0 85.4 L8.35 87.05 8.2 87.35 Q3.7 92.65 -3.2 92.55 -10.95 92.55 -12.9 93.5 L-13.6 93.6 Q-13.95 93.55 -14.15 93.3 L-14.55 92.8 Q-14.75 92.2 -14.2 90.5 L-14.0 90.1 -13.6 89.85 Q-9.2 88.15 -2.65 86.9 3.2 85.75 7.55 84.1 7.95 83.95 8.35 84.1 L8.95 84.6 M0.7 89.45 L1.15 89.15 -0.2 89.05 0.0 89.85 0.65 89.5 0.7 89.45 M0.65 147.7 L0.35 148.0 0.45 148.0 -0.2 148.25 0.15 148.05 -0.65 148.15 -0.4 148.45 0.35 148.6 1.3 148.45 2.45 148.1 1.4 147.9 1.4 147.95 1.3 147.85 1.4 147.9 1.3 146.65 0.4 147.85 0.65 147.7 M13.45 146.3 L13.45 146.6 13.9 146.4 13.45 146.3 M81.75 294.7 L83.35 294.4 83.4 294.4 Q87.6 293.65 89.05 292.35 89.25 292.15 89.6 292.1 L90.25 292.15 Q90.9 292.4 93.8 293.95 L94.25 294.3 94.4 294.85 94.3 295.2 96.25 295.45 100.5 295.4 100.55 295.4 104.55 295.0 108.8 294.5 Q107.95 293.55 107.9 292.85 107.85 292.4 108.1 292.1 108.3 291.75 108.7 291.7 112.05 290.8 118.05 292.85 123.2 294.45 125.55 296.4 126.95 297.5 128.7 300.45 L128.75 300.55 129.95 302.95 92.35 302.95 87.85 302.8 86.4 302.95 49.85 302.95 48.0 302.4 47.7 302.3 47.3 302.1 47.2 302.05 46.8 301.85 46.55 301.75 45.95 301.35 Q45.75 301.0 45.85 300.6 L46.15 300.0 Q46.5 299.75 46.9 299.75 L47.65 299.8 47.7 299.8 50.3 299.75 50.25 299.3 50.2 299.1 50.15 298.75 Q49.55 298.4 47.85 298.2 L44.6 297.65 44.55 297.6 Q41.2 296.1 39.2 294.5 L36.6 291.75 36.55 291.7 33.9 288.85 30.9 286.5 28.9 285.6 Q27.1 285.0 26.5 284.6 L26.4 284.5 25.95 284.1 25.65 283.8 24.1 283.2 23.85 283.05 Q22.55 282.3 23.15 280.55 L23.5 280.05 24.0 279.7 24.55 279.15 25.25 278.85 Q25.6 278.75 25.95 279.05 L26.1 279.15 26.55 279.6 26.6 280.2 26.55 280.35 26.6 280.35 26.9 280.05 Q27.75 279.4 28.3 279.85 L28.5 280.0 Q32.5 281.05 33.05 281.65 L33.55 282.05 33.7 282.6 33.55 283.15 33.3 283.4 35.2 285.15 36.15 285.85 38.45 286.9 Q42.4 288.6 45.0 288.05 L45.1 288.05 48.25 287.75 48.9 287.85 49.45 287.65 51.15 287.35 51.9 287.15 52.55 287.1 54.1 287.3 Q54.55 287.35 54.75 287.7 L54.9 288.5 54.5 289.1 Q54.35 289.2 53.95 289.45 L54.3 289.9 57.0 291.4 60.6 292.4 60.95 292.6 61.5 292.95 Q70.5 295.0 81.4 294.65 L81.75 294.7 M16.15 276.3 L18.05 276.15 18.15 276.15 19.9 276.5 20.5 276.8 20.6 276.9 21.2 277.45 21.3 277.55 22.15 277.8 22.8 278.15 23.05 278.9 22.95 279.3 Q23.0 279.7 22.55 280.1 L22.1 280.45 21.45 280.4 20.1 279.9 18.45 279.95 18.0 280.35 17.8 281.0 17.8 281.05 17.75 281.25 18.35 281.35 Q18.7 281.4 19.0 281.75 19.3 282.05 19.25 282.45 L19.15 283.8 18.85 284.4 18.2 285.2 17.55 285.55 16.8 285.45 15.3 285.45 14.55 285.2 Q14.2 284.95 14.15 284.6 14.1 284.2 14.35 283.9 14.55 283.55 14.95 283.45 L15.45 283.3 15.35 283.1 Q15.2 282.8 15.35 282.65 L15.4 282.45 15.0 282.15 14.95 282.1 14.7 281.85 14.15 281.5 13.85 281.15 Q13.1 280.2 14.1 279.05 L14.85 278.2 14.85 277.3 Q14.85 276.85 15.15 276.6 15.5 276.3 15.9 276.3 L16.15 276.3 M1.45 272.65 L1.9 273.1 2.0 273.75 1.9 274.0 1.5 274.6 Q1.3 274.9 1.6 275.35 L2.7 277.05 3.75 278.6 5.1 279.95 5.4 280.5 5.35 281.05 5.0 281.5 4.75 281.7 4.1 281.9 3.45 281.7 0.7 279.95 0.6 279.9 Q-0.2 279.4 -1.45 277.2 L-1.55 277.05 Q-1.75 276.55 -1.45 275.4 L-1.3 275.15 -1.3 275.1 Q-2.3 273.75 -1.45 272.95 L-1.05 272.7 -0.6 272.55 0.8 272.5 1.45 272.65 M35.05 285.5 L34.45 286.35 34.55 286.3 35.35 285.75 35.05 285.5 M48.9 287.9 L48.75 287.9 48.8 287.95 48.9 287.9 M178.6 276.15 L180.8 275.7 Q180.6 274.8 181.1 274.6 L181.55 274.35 182.0 274.3 186.3 274.35 186.4 274.35 Q188.8 274.4 191.15 275.35 L191.5 275.5 192.65 276.7 193.0 277.3 193.45 277.65 196.7 277.8 197.15 277.9 197.55 278.2 198.05 278.75 198.25 279.5 197.85 280.25 197.05 280.45 Q192.9 280.0 189.55 280.45 186.95 280.8 185.35 281.7 185.85 282.2 185.3 283.0 L184.95 283.45 184.8 283.55 181.1 284.4 178.1 284.7 177.8 284.7 173.85 284.0 173.8 284.0 170.45 284.1 Q170.05 284.0 169.85 283.75 169.55 283.45 169.55 283.15 L169.4 283.1 Q169.05 283.0 168.85 282.75 L168.5 282.3 Q168.15 281.95 168.2 281.5 168.3 281.1 168.65 280.85 L170.4 279.45 170.6 279.3 175.35 276.9 175.35 276.85 178.55 276.15 178.6 276.15 M179.85 288.15 L181.55 287.5 179.85 286.85 179.85 288.15 M203.8 255.5 L203.45 255.5 203.45 255.65 203.8 255.5 M220.15 282.8 L220.0 282.3 220.2 281.7 Q220.35 281.35 220.8 281.25 L225.5 280.1 230.1 279.6 230.7 279.85 231.6 280.65 231.85 280.95 Q232.6 282.25 231.65 283.4 L231.4 283.65 230.5 284.35 230.35 284.45 Q228.35 285.45 227.45 286.15 L226.75 286.35 Q226.35 286.35 226.05 286.15 L225.5 285.6 225.25 285.3 225.1 285.05 224.95 285.05 Q222.65 285.1 220.05 286.15 L219.3 286.15 218.7 285.75 Q218.45 285.4 218.5 285.05 218.5 284.35 220.0 282.95 L220.15 282.8 M212.9 298.85 L212.95 299.8 213.85 299.05 213.7 298.75 213.9 298.75 213.95 298.75 213.6 298.65 212.9 298.85 M-37.25 115.3 L-36.75 115.8 Q-36.65 116.1 -36.7 116.45 L-36.95 117.5 -37.35 118.05 -38.1 118.3 -38.8 119.2 -39.3 119.6 -47.2 122.55 -47.25 122.55 Q-52.55 124.45 -54.25 125.55 L-54.55 126.15 -54.45 126.3 Q-53.5 127.2 -54.45 128.9 L-54.45 128.85 Q-54.85 129.75 -55.2 130.05 -55.65 130.6 -55.95 130.6 -56.75 130.85 -57.15 130.25 -62.2 128.65 -66.1 126.0 L-67.15 125.2 -67.45 124.6 Q-67.65 123.85 -66.95 123.5 L-66.7 123.4 -65.95 123.4 -66.15 122.85 -67.45 120.6 -67.65 120.1 -67.45 119.6 -67.25 119.2 -66.85 118.85 -66.25 118.7 Q-60.35 119.0 -57.45 118.8 -52.65 118.5 -48.65 115.55 -48.3 115.2 -47.9 115.25 -47.2 115.3 -45.45 115.9 L-45.35 115.95 -43.8 116.5 -37.95 115.15 -37.25 115.3 M-3.35 148.55 L-3.35 148.6 -3.15 148.55 -3.35 148.55" fill="#ddffdd" fill-opacity="0.8" fill-rule="evenodd" stroke="none"/>
      <path d="M212.0 -6.6 Q211.35 -4.25 211.4 -2.85 211.4 -2.2 211.9 -0.8 L212.45 1.15 Q212.45 2.3 211.1 4.55 209.55 7.3 209.15 8.55 208.6 10.6 207.25 12.3 205.7 14.6 203.75 14.9 L203.35 15.3 Q202.95 15.35 202.95 14.5 202.95 14.15 205.2 11.45 207.5 8.05 207.45 4.65 L206.75 2.45 Q206.15 0.85 206.1 0.25 206.1 -1.75 208.5 -3.85 L212.0 -6.6 M251.9 84.65 Q249.6 84.2 247.0 85.6 244.0 87.3 242.5 87.35 L242.9 86.25 Q237.25 79.45 228.85 79.2 222.1 79.0 217.0 82.35 215.2 83.6 214.0 85.65 213.3 87.2 213.25 88.55 L213.3 89.75 213.8 91.05 Q214.55 92.5 216.05 93.15 217.65 93.85 218.05 94.45 218.5 95.45 218.15 95.8 L217.75 96.65 219.5 99.95 Q222.1 102.5 226.2 103.75 L232.8 104.05 Q233.3 105.0 233.0 105.5 L228.65 106.0 Q225.8 106.35 224.75 107.0 L220.85 112.15 Q220.1 112.7 217.8 113.35 215.45 114.2 214.85 114.6 211.65 116.8 210.4 119.25 208.15 123.15 209.7 128.85 L212.4 132.6 215.1 132.1 215.1 132.7 Q215.15 133.05 214.35 133.65 L214.55 134.05 Q212.5 137.75 211.8 142.0 211.45 143.5 212.75 149.9 213.8 155.5 214.0 155.95 215.3 158.4 219.6 163.35 L223.6 163.2 Q224.35 162.5 224.9 163.35 225.15 163.95 230.9 161.3 235.8 158.7 238.5 158.5 L238.3 157.65 238.65 157.3 238.95 158.4 239.0 158.5 240.0 158.5 239.35 159.1 239.5 159.1 240.1 160.05 Q242.65 162.4 244.4 161.2 244.95 160.85 245.3 159.85 245.5 158.8 246.2 158.4 L249.3 156.95 Q252.75 155.75 254.45 156.85 253.1 157.3 251.8 158.2 248.8 160.2 248.1 166.95 247.05 177.9 246.2 180.75 245.9 182.1 241.35 187.15 236.85 192.1 235.2 193.3 233.35 194.55 232.6 194.5 L232.95 191.85 Q231.05 190.5 228.65 191.5 L225.15 193.55 Q223.0 195.05 219.35 199.5 L215.9 203.65 215.55 203.9 212.95 209.4 Q211.8 212.55 212.2 216.5 L214.8 220.05 Q214.55 220.75 215.2 221.9 215.9 223.4 217.2 222.9 L219.55 221.35 219.6 221.15 220.35 222.0 Q221.6 224.4 217.9 228.85 215.2 232.2 212.9 233.7 210.1 235.55 208.45 239.65 207.85 240.85 207.7 241.95 L209.2 242.5 Q211.05 243.4 211.4 244.0 L213.85 249.25 Q213.5 250.1 213.65 250.95 L214.25 253.85 Q213.4 255.1 212.95 256.85 216.45 258.55 218.5 257.15 220.4 255.8 225.0 248.7 224.45 252.65 222.35 257.85 220.0 263.9 217.25 266.2 216.8 266.85 215.5 270.1 214.3 273.05 212.9 274.5 211.4 275.95 210.9 279.15 L210.35 284.0 211.1 284.25 212.35 285.55 212.95 286.45 Q215.4 288.25 218.75 288.05 L222.3 287.6 Q222.2 287.95 221.35 288.3 L220.1 289.1 Q218.7 290.2 219.95 291.0 221.4 292.25 220.75 293.55 L219.5 294.7 218.0 295.9 214.95 296.85 212.3 298.95 213.45 299.65 213.65 299.6 Q213.95 299.45 213.7 299.8 L213.9 299.8 213.85 300.15 212.8 300.3 212.0 300.6 Q211.0 300.9 210.7 301.15 209.95 301.65 209.45 302.95 L183.8 302.95 181.05 302.75 Q174.15 302.25 172.85 302.95 L133.9 302.95 134.8 300.5 Q135.25 298.75 137.5 297.0 140.3 294.75 143.1 293.95 146.3 292.9 152.05 293.1 L152.45 293.35 Q153.05 292.85 153.3 293.0 152.95 293.65 153.8 294.65 L154.85 295.35 155.3 295.35 160.7 295.55 162.95 294.8 Q165.05 294.15 166.1 293.35 166.95 292.75 167.05 291.9 167.1 290.95 167.8 290.45 169.95 288.8 174.0 287.9 L180.45 287.2 180.5 287.2 182.0 287.25 Q182.4 287.35 182.1 287.65 181.45 287.85 181.2 288.05 L181.05 288.15 180.9 288.35 Q180.9 288.6 181.4 288.95 L182.35 289.5 183.45 289.9 186.1 289.6 186.2 289.5 Q188.2 287.95 193.3 287.3 198.3 286.65 201.35 287.85 L202.25 288.9 205.45 288.15 208.45 287.1 209.5 286.05 Q208.1 285.45 205.9 283.6 L203.3 281.35 201.5 277.95 Q202.3 272.6 199.45 265.15 196.8 258.3 198.1 254.35 198.55 252.75 200.85 247.6 L201.8 244.15 Q199.0 238.8 199.95 234.0 200.5 231.3 201.85 227.6 201.9 224.35 203.3 221.0 L204.45 214.4 202.45 210.0 203.55 206.05 202.85 204.05 Q202.6 199.3 206.85 193.2 210.6 187.7 209.2 179.3 L207.8 176.55 206.65 174.2 206.35 173.9 206.2 173.0 206.2 172.75 206.2 172.55 206.4 170.25 206.15 169.5 Q206.1 169.35 206.2 169.3 L204.75 166.6 Q201.0 163.75 200.65 163.05 197.75 157.6 198.0 157.2 196.1 153.25 197.85 148.6 L197.55 147.7 Q197.15 146.8 197.45 146.45 L193.55 139.65 191.1 138.45 189.7 135.55 Q188.2 132.45 188.45 132.1 L184.85 125.05 185.75 117.45 186.55 110.0 Q185.7 108.65 184.95 108.35 184.3 108.1 183.9 107.45 183.75 107.2 184.6 102.25 185.4 96.9 186.4 95.35 188.8 91.4 189.5 90.55 190.25 89.5 192.35 88.15 L193.0 87.5 Q190.15 81.75 186.5 79.2 L182.45 78.9 Q181.85 78.9 180.95 78.15 180.15 77.2 179.1 75.25 L177.65 71.9 177.55 71.3 178.05 68.5 Q177.4 67.1 177.4 64.5 177.3 62.25 177.5 61.85 177.75 61.05 180.2 57.75 L184.05 57.8 Q186.05 57.8 187.8 52.95 L189.35 47.95 188.7 42.3 Q188.6 41.6 187.5 39.75 186.5 38.0 185.7 37.25 L184.75 36.7 Q183.2 37.55 182.15 36.7 181.45 36.05 181.45 35.1 181.35 31.75 183.85 29.1 185.35 27.6 189.85 24.65 L191.95 25.0 192.45 25.0 192.7 24.65 193.65 24.85 193.75 24.85 194.3 25.0 194.6 25.25 194.6 25.55 194.05 25.3 194.0 25.3 193.65 25.55 192.5 25.45 Q191.6 27.1 191.6 28.75 191.7 31.05 194.05 34.8 197.1 39.05 200.6 39.05 L203.15 38.9 Q205.05 37.65 204.95 36.7 L204.75 35.75 205.7 36.6 207.15 39.5 Q208.5 42.3 208.9 44.2 L209.0 45.05 209.8 49.15 210.5 53.35 Q209.15 52.6 207.05 54.85 204.7 57.75 203.35 61.05 202.7 62.7 201.95 66.7 201.1 71.3 201.1 73.5 201.15 76.45 201.35 77.55 L202.05 79.7 202.1 80.55 Q202.4 82.05 203.2 83.0 L204.3 81.65 Q206.5 78.9 209.9 76.55 224.0 67.05 241.6 75.8 243.95 81.2 248.5 82.85 252.0 84.05 251.9 84.65 M205.3 13.05 L205.2 12.9 205.2 13.05 205.3 13.05 M88.85 60.1 L89.2 60.35 88.1 61.75 Q87.75 63.0 87.0 63.9 L87.05 64.0 86.65 64.85 86.5 65.45 85.8 66.35 82.9 72.05 78.3 80.2 77.3 80.3 76.8 79.9 Q76.3 79.45 75.75 79.4 75.25 79.9 74.2 81.5 L72.8 83.6 69.3 88.0 68.9 89.1 70.05 89.1 71.8 89.3 Q72.55 89.75 73.15 90.75 L74.05 91.65 Q73.5 94.7 73.85 97.25 74.55 99.8 74.65 101.05 L73.65 103.75 Q72.95 104.1 69.15 110.85 L68.4 114.5 68.35 114.6 68.15 115.45 Q70.95 118.65 71.2 119.95 70.25 122.25 70.3 124.85 70.45 127.25 69.5 128.7 69.8 129.05 68.2 132.15 L66.95 135.0 66.65 135.3 65.5 135.4 60.65 143.05 60.55 143.8 Q60.25 146.8 59.05 149.6 58.85 150.3 58.8 151.35 L57.8 152.2 Q54.65 155.15 52.85 158.2 L52.8 158.25 Q53.2 159.45 52.55 160.05 L52.1 159.95 Q51.95 162.2 53.4 163.95 56.35 168.05 53.5 173.45 L47.55 182.0 Q46.2 184.55 47.1 186.95 47.9 189.85 47.45 191.5 52.15 195.2 53.95 198.2 57.05 203.35 53.6 212.7 L52.8 212.7 Q52.15 212.8 51.75 213.6 51.1 214.8 51.85 217.15 52.75 219.9 52.6 221.05 L52.7 221.45 Q52.7 221.65 52.45 221.45 46.55 228.45 51.65 235.5 L50.65 238.1 Q51.35 239.85 52.5 241.75 53.25 243.15 53.4 244.0 52.6 246.9 53.2 250.6 53.8 253.25 54.8 255.2 L57.0 260.35 Q57.95 263.8 56.35 266.9 L54.9 268.55 Q53.8 269.55 52.95 271.15 L53.25 274.25 Q53.35 276.45 52.8 277.5 L51.05 279.35 50.05 280.05 49.7 280.7 49.0 280.7 48.7 280.0 49.15 279.05 Q49.3 275.55 48.25 271.85 46.9 267.35 44.7 265.9 44.0 265.4 43.95 266.15 43.75 266.9 43.15 266.5 41.2 265.15 41.0 259.6 40.85 253.95 38.8 252.55 L38.95 252.2 42.75 255.1 Q45.25 256.55 47.25 255.05 L48.6 252.65 47.9 248.65 Q47.65 248.3 45.6 246.9 44.15 245.95 42.45 245.45 41.15 244.55 39.4 241.05 L37.1 236.3 Q35.45 231.15 36.85 228.4 L37.7 227.75 Q38.4 226.8 38.15 225.5 37.85 224.45 35.6 222.95 L34.1 222.25 32.45 222.3 32.2 222.8 31.8 222.9 31.65 222.35 Q31.5 222.4 31.3 222.55 L31.45 221.8 31.1 220.55 Q30.85 219.6 31.0 218.7 L32.15 216.2 Q36.95 213.9 38.05 213.75 38.9 213.45 39.8 213.75 L40.55 213.9 41.2 214.15 40.1 213.45 Q39.6 211.45 39.5 205.0 39.45 201.2 37.35 199.8 36.15 199.05 34.35 198.6 32.85 197.8 31.65 194.2 31.05 192.45 29.15 190.45 L26.45 187.8 26.6 187.45 Q26.95 188.25 28.25 188.3 29.95 188.3 31.0 186.3 L31.25 185.45 28.3 183.1 Q25.65 181.3 25.05 181.2 L19.15 180.45 19.4 181.9 Q19.3 182.5 19.1 181.7 17.1 180.4 13.05 178.45 L10.35 175.75 9.8 175.75 Q3.4 166.3 1.5 164.1 -0.45 161.95 -6.85 157.65 -8.05 156.85 -12.05 155.25 -10.9 154.4 -6.8 156.75 -8.1 154.65 -9.1 150.45 L-9.6 148.1 -8.2 146.45 Q-7.35 146.0 -2.45 147.55 L-4.45 147.4 Q-4.15 147.7 -4.55 148.75 L-5.0 149.75 -2.5 149.45 0.6 149.0 Q0.8 148.8 1.15 148.65 L2.2 147.25 2.1 147.15 0.25 147.55 Q0.9 147.3 1.7 146.65 L1.8 146.2 2.1 146.4 Q4.0 144.75 6.2 140.95 L5.8 139.1 1.15 139.25 Q0.9 138.9 1.65 137.45 L1.75 137.35 2.35 135.9 6.05 136.0 6.25 136.15 6.4 136.05 Q9.25 136.5 10.4 137.35 12.75 138.9 13.55 141.3 L14.05 144.5 14.5 146.55 15.0 149.95 13.8 152.35 Q14.15 155.35 15.95 158.1 17.6 160.6 19.2 161.2 L18.65 161.7 14.95 159.15 Q13.25 158.0 12.8 154.15 12.65 153.2 12.8 152.4 L12.7 152.35 10.85 155.3 12.0 157.6 Q9.65 156.35 3.7 158.15 L5.6 161.8 Q7.7 165.8 10.0 167.45 12.65 168.65 14.2 169.8 L16.5 169.25 18.35 168.75 Q19.1 169.3 19.15 170.1 19.1 171.0 19.65 171.35 20.8 172.15 23.1 172.0 26.05 171.95 27.45 169.3 28.4 167.45 26.0 164.65 L22.65 161.65 27.7 163.85 Q32.2 165.55 33.0 164.05 33.3 163.45 37.75 161.5 42.3 159.7 46.1 152.4 46.95 150.85 45.95 147.65 L44.85 144.55 44.9 145.05 Q44.25 145.95 43.25 145.3 43.65 142.3 41.75 136.2 L38.85 126.0 39.9 123.65 40.6 121.4 41.95 119.4 Q42.25 117.65 38.15 112.9 34.65 108.75 32.45 107.25 L30.85 106.15 29.45 106.1 28.6 107.15 Q28.4 104.9 28.9 103.75 L31.6 104.25 Q33.75 104.7 34.95 102.45 36.55 99.4 28.7 93.7 L26.05 92.05 21.55 92.6 Q20.8 92.05 19.65 89.65 18.55 87.25 18.5 85.6 L19.75 82.9 21.55 82.45 21.65 80.75 20.55 80.4 Q22.6 76.25 24.55 73.85 L28.65 72.05 Q31.2 70.85 32.7 71.0 L32.45 72.45 33.1 72.1 Q37.05 70.25 39.3 70.6 40.55 70.65 42.95 72.2 L45.15 73.85 Q43.15 75.0 45.75 78.85 47.85 82.1 50.05 83.55 50.9 84.1 53.95 85.05 57.2 85.95 57.8 86.35 L59.4 84.35 60.75 84.8 Q60.65 82.6 59.85 78.9 59.7 77.65 58.5 74.95 57.35 72.15 56.85 72.15 54.3 72.15 53.65 69.45 53.4 68.45 53.5 64.85 53.55 61.6 53.9 60.3 L55.0 60.1 56.45 60.35 Q56.8 59.75 58.9 58.25 60.6 56.85 61.35 54.45 62.6 49.85 62.65 47.0 L62.35 43.65 61.9 39.1 61.45 34.7 Q60.95 32.25 60.95 30.9 61.05 29.85 61.2 30.3 61.9 30.75 62.4 33.25 L63.5 37.35 Q64.25 39.0 64.25 41.4 L64.1 45.5 Q64.9 51.0 66.0 54.5 68.0 61.15 72.75 60.9 L73.25 60.3 Q72.4 58.3 73.65 56.2 L73.75 56.05 74.2 55.5 74.55 54.95 74.85 53.85 74.4 52.25 73.6 51.1 Q74.55 50.95 76.4 53.35 78.3 55.7 78.3 57.2 79.4 64.9 83.55 64.9 L84.5 64.75 84.75 64.45 85.8 63.5 86.0 62.95 86.15 63.05 86.8 62.2 Q87.4 61.2 88.85 60.1 M191.5 25.3 L191.85 25.6 Q191.85 25.55 192.05 25.45 L191.5 25.3 M0.65 89.5 L0.75 89.3 0.55 89.1 0.65 89.5 M14.25 146.75 L14.4 146.5 14.15 146.15 14.25 146.75 M7.95 85.0 L7.3 86.7 Q3.25 91.6 -3.2 91.5 -11.35 91.5 -13.5 92.55 L-13.2 90.8 Q-8.9 89.1 -2.45 87.85 3.5 86.75 7.95 85.0 M81.25 295.9 L83.55 295.4 Q88.2 294.6 89.8 293.1 L93.3 294.8 92.8 295.45 Q93.5 296.45 96.25 296.45 L100.55 296.4 104.7 296.05 109.25 295.5 110.7 294.65 110.55 294.55 Q109.1 293.4 109.0 292.7 112.1 291.95 117.65 293.8 122.6 295.4 124.9 297.2 126.1 298.2 127.75 300.95 L128.7 302.95 95.2 302.95 94.8 302.4 Q93.9 301.8 87.85 301.75 85.9 301.75 82.1 302.95 L54.05 302.95 52.6 302.55 48.35 301.4 48.0 301.3 47.4 301.05 46.9 300.8 47.5 300.85 Q50.6 301.1 51.8 300.25 L51.65 300.15 Q51.5 300.0 51.3 299.1 51.3 298.3 50.8 297.9 50.05 297.4 48.0 297.15 L45.0 296.7 Q41.75 295.2 39.9 293.7 L37.4 291.05 Q35.65 288.8 34.55 288.0 L31.55 285.7 Q31.0 285.25 29.3 284.65 L27.1 283.7 26.7 283.35 26.8 283.2 26.25 282.85 24.45 282.2 Q23.9 281.8 24.2 280.85 24.5 280.6 24.95 280.45 L24.85 280.4 25.35 279.85 25.5 279.95 25.25 280.25 25.8 281.1 27.5 281.3 Q27.3 281.05 27.5 280.9 L27.85 280.8 27.8 280.85 Q31.75 281.95 32.35 282.4 L32.6 282.55 31.9 282.7 Q32.05 284.0 34.55 286.0 L35.65 286.7 38.0 287.85 Q42.4 289.7 45.3 289.05 L48.15 288.8 48.7 288.9 49.6 288.7 51.55 288.25 52.05 288.15 52.55 288.1 53.85 288.25 52.65 288.95 Q52.85 290.1 53.55 290.65 54.5 291.45 56.55 292.3 L60.3 293.4 60.85 293.8 60.8 293.85 Q70.1 296.05 81.4 295.7 L81.25 295.9 M34.35 286.15 L34.4 286.25 34.6 286.35 34.35 286.15 M0.85 273.55 L0.8 273.8 Q-0.1 274.45 0.55 275.75 L1.75 277.55 2.95 279.3 4.3 280.7 4.1 280.85 Q3.3 280.25 1.25 279.1 L-0.5 276.7 -0.4 275.65 Q-0.05 275.05 -0.15 274.9 -0.85 274.0 -0.55 273.6 L0.85 273.55 M15.9 277.3 L16.25 277.3 18.15 277.15 Q19.0 277.15 19.55 277.5 L19.7 277.55 19.75 277.6 20.6 278.3 22.0 278.85 21.6 279.15 Q21.95 279.3 21.75 279.4 L20.25 278.9 18.0 278.95 17.05 279.65 Q16.65 280.4 16.65 281.4 L16.75 281.4 16.95 281.75 17.25 282.2 18.15 282.35 18.0 283.7 17.3 284.55 15.3 284.45 16.45 283.95 16.4 282.85 16.55 282.8 15.9 281.65 15.85 281.5 15.35 281.0 14.8 280.65 Q14.5 280.2 15.05 279.6 L15.85 278.7 15.9 277.3 M181.6 276.55 Q182.1 276.15 181.95 275.8 L181.9 275.35 186.35 275.4 Q188.6 275.45 190.75 276.3 192.25 277.45 191.75 277.8 L193.05 278.6 196.65 278.85 197.15 279.4 Q192.85 279.0 189.35 279.4 185.4 280.0 183.5 281.65 L184.1 281.95 184.4 282.2 184.05 282.7 Q183.9 283.0 180.95 283.35 L178.1 283.65 173.75 283.0 170.65 283.1 170.7 281.9 169.75 282.1 169.3 281.65 171.05 280.25 175.85 277.8 178.75 277.1 181.6 276.55 M180.55 287.55 L180.6 287.5 180.55 287.45 180.55 287.55 M204.1 255.15 L204.35 255.8 204.4 255.65 204.1 255.15 M221.1 282.25 L225.7 281.1 229.95 280.65 230.9 281.4 Q231.3 282.15 230.8 282.75 L229.8 283.5 226.75 285.3 226.2 284.75 225.3 284.0 Q222.65 283.95 219.6 285.15 219.65 284.7 220.8 283.65 221.75 283.0 221.1 282.25 M-37.8 116.2 L-38.1 117.25 Q-38.6 117.25 -39.7 118.6 L-47.65 121.55 Q-53.45 123.7 -55.1 124.8 L-56.05 126.65 -55.35 126.95 Q-54.85 127.45 -55.45 128.4 -56.2 129.85 -56.3 129.45 -61.5 127.85 -65.5 125.15 -66.9 124.25 -66.1 124.45 L-65.9 123.85 Q-65.1 123.85 -64.85 123.3 -64.95 122.65 -66.5 120.1 L-66.3 119.75 Q-60.3 120.05 -57.4 119.85 -52.2 119.5 -48.0 116.3 L-45.85 116.9 -43.65 117.55 -37.8 116.2" fill="#9aff9a" fill-opacity="0.5019608" fill-rule="evenodd" stroke="none"/>
    </g>
  </defs>
</svg>
