<?xml version="1.0" encoding="UTF-8" standalone="no"?>
<svg xmlns:ffdec="https://www.free-decompiler.com/flash" xmlns:xlink="http://www.w3.org/1999/xlink" ffdec:objectType="frame" height="186.2px" width="123.2px" xmlns="http://www.w3.org/2000/svg">
  <g transform="matrix(1.0, 0.0, 0.0, 1.0, 58.1, 171.15)">
    <use ffdec:characterId="915" height="20.1" transform="matrix(7.0, 0.0, 0.0, 7.0, -50.75, -130.55)" width="14.0" xlink:href="#shape0"/>
  </g>
  <defs>
    <g id="shape0" transform="matrix(1.0, 0.0, 0.0, 1.0, 7.25, 18.65)">
      <path d="M1.0 -18.3 L1.15 -18.35 1.55 -18.3 2.05 -18.25 2.35 -18.1 Q3.5 -17.7 4.2 -17.0 4.45 -16.75 4.7 -16.3 L5.0 -15.95 Q5.4 -15.35 5.4 -14.7 L5.35 -14.35 5.3 -14.25 5.25 -14.25 5.25 -14.0 5.5 -13.6 Q5.8 -12.9 5.8 -12.15 6.3 -11.9 6.5 -11.7 6.75 -11.35 6.75 -10.65 6.75 -10.0 6.7 -9.85 6.6 -9.6 6.35 -9.4 L6.25 -9.2 6.15 -8.95 6.2 -8.6 Q6.2 -8.25 5.95 -7.9 5.85 -7.65 5.65 -7.5 6.25 -7.1 6.4 -6.85 L6.45 -6.6 Q6.6 -6.2 6.6 -5.6 6.6 -5.4 6.45 -4.75 6.3 -4.05 6.3 -3.85 6.3 -3.7 6.45 -3.15 6.6 -2.65 6.6 -2.5 6.6 -1.7 6.2 -0.9 5.75 0.05 4.9 0.15 L4.75 0.3 4.45 0.55 4.05 0.85 Q3.3 1.35 2.35 1.35 1.25 1.35 0.45 1.15 L0.2 1.2 -1.3 1.45 Q-2.5 1.45 -3.1 0.9 L-3.4 0.6 -3.55 0.6 Q-3.7 0.6 -3.95 0.45 L-4.25 0.35 Q-6.2 -0.1 -6.55 -0.6 -6.8 -1.0 -6.95 -1.7 -7.25 -2.2 -7.25 -2.45 -7.25 -3.0 -7.15 -3.4 L-7.05 -3.55 Q-7.05 -4.5 -7.0 -4.8 -6.85 -5.45 -6.3 -5.95 L-5.75 -6.85 -5.35 -7.55 Q-5.35 -7.7 -5.45 -8.35 L-5.45 -8.4 -5.5 -8.75 Q-5.5 -9.45 -5.2 -10.0 -6.0 -10.5 -6.1 -10.8 L-6.2 -10.8 Q-6.7 -11.15 -6.85 -11.85 -6.9 -12.05 -6.9 -12.8 -6.9 -13.6 -6.6 -14.2 -6.35 -14.7 -5.9 -14.9 L-5.55 -15.4 Q-4.65 -16.85 -3.65 -17.1 -3.15 -17.75 -2.4 -18.2 -0.8 -19.05 0.75 -18.25 L1.0 -18.3" fill="#111111" fill-rule="evenodd" stroke="none"/>
      <path d="M0.45 -17.85 L0.5 -17.85 Q0.7 -18.05 1.15 -18.15 2.15 -18.35 3.45 -17.55 3.8 -17.25 4.1 -16.65 L4.2 -16.3 Q4.5 -16.15 4.75 -15.95 5.2 -15.55 5.2 -15.0 5.2 -14.7 4.85 -14.15 4.45 -13.45 3.85 -13.5 L2.95 -13.5 2.2 -13.6 Q1.95 -13.6 1.65 -13.7 1.4 -13.8 1.25 -13.8 0.9 -13.8 0.35 -13.55 L0.3 -13.5 -0.05 -13.55 Q-0.2 -13.15 -0.4 -12.85 -1.25 -11.45 -2.45 -11.5 L-3.25 -11.5 -3.9 -11.6 -4.85 -11.7 Q-5.25 -11.75 -5.4 -12.15 L-5.4 -12.2 -6.15 -12.4 Q-6.2 -12.4 -6.2 -12.45 -6.6 -12.85 -6.6 -13.4 -6.6 -13.75 -6.55 -13.9 -6.4 -14.2 -6.1 -14.4 L-6.0 -14.45 -5.95 -14.45 -5.7 -14.8 Q-5.35 -15.1 -5.15 -15.25 L-5.15 -15.45 Q-5.15 -15.85 -4.55 -16.35 -4.0 -16.9 -3.2 -17.15 -1.8 -17.65 -0.7 -16.95 -0.4 -17.35 0.35 -17.85 L0.45 -17.85 M5.65 -11.7 Q6.05 -11.2 6.05 -10.65 6.05 -9.95 5.65 -9.5 5.25 -9.1 4.2 -8.65 4.2 -8.3 4.15 -8.1 4.0 -7.75 3.55 -7.5 3.25 -7.35 2.6 -7.15 L2.15 -7.05 1.6 -6.95 1.5 -6.95 1.45 -7.05 1.45 -7.1 0.7 -7.15 Q0.0 -6.85 -0.25 -6.45 L-0.2 -6.45 Q-0.05 -6.55 0.1 -6.6 L0.15 -6.6 0.95 -6.45 2.2 -6.35 2.85 -6.35 Q3.2 -7.1 4.05 -6.9 L4.15 -6.9 4.3 -7.0 Q4.3 -7.05 4.35 -7.1 4.35 -7.15 4.4 -7.15 L4.5 -7.15 Q4.8 -6.9 5.1 -6.55 L5.55 -6.35 5.65 -6.25 Q5.65 -6.0 5.4 -5.95 L5.45 -5.7 5.5 -5.05 5.55 -4.45 Q5.6 -4.2 5.25 -3.65 4.95 -3.3 4.65 -3.0 4.95 -2.7 4.95 -2.45 4.95 -2.25 4.8 -1.85 4.65 -1.55 4.65 -1.4 4.65 -0.9 3.85 -0.45 2.85 0.05 1.4 -0.2 1.15 -0.15 0.1 0.15 -0.95 0.45 -1.75 0.45 -2.3 0.45 -3.5 -0.05 -4.9 -0.65 -4.9 -1.2 L-4.85 -1.5 -5.4 -1.55 -5.5 -1.6 -6.35 -2.3 -6.4 -2.3 Q-6.6 -2.5 -6.6 -3.0 -6.6 -3.75 -6.15 -4.55 L-6.2 -4.55 Q-5.65 -5.55 -4.75 -5.95 L-3.7 -5.95 -3.75 -6.0 Q-4.2 -6.1 -4.5 -6.3 -5.15 -6.7 -5.15 -7.1 -5.15 -7.15 -4.55 -8.2 L-4.55 -8.25 Q-4.4 -8.55 -4.4 -8.7 L-4.5 -9.05 -4.55 -9.1 Q-4.55 -9.9 -4.1 -10.3 -3.3 -10.95 -1.05 -10.95 L-1.0 -10.9 -0.95 -10.9 -0.75 -10.6 0.05 -10.1 0.1 -10.1 0.75 -10.9 Q1.15 -11.4 1.35 -11.55 L1.45 -11.6 2.35 -11.55 2.45 -11.5 Q2.55 -11.75 2.85 -12.0 L3.35 -12.45 3.45 -12.5 Q4.95 -12.5 5.65 -11.7 M-2.1 -2.1 L-1.8 -1.9 Q-1.45 -1.65 -1.3 -1.6 L-0.95 -1.7 -0.4 -2.3 -0.55 -2.3 Q-1.3 -2.3 -2.1 -2.1" fill="#c3d907" fill-opacity="0.4" fill-rule="evenodd" stroke="none"/>
      <path d="M0.55 -17.75 Q0.75 -17.9 1.2 -18.0 2.1 -18.2 3.35 -17.45 3.7 -17.15 3.95 -16.6 L4.1 -16.2 Q4.4 -16.05 4.65 -15.85 5.05 -15.5 5.05 -15.0 5.05 -14.7 4.75 -14.25 4.35 -13.6 3.85 -13.6 L2.95 -13.65 2.25 -13.75 Q1.95 -13.75 1.7 -13.85 L1.25 -13.95 Q0.85 -13.95 0.3 -13.65 L-0.15 -13.7 Q-0.3 -13.25 -0.55 -12.9 -1.35 -11.6 -2.45 -11.6 L-3.25 -11.65 -3.9 -11.75 -4.8 -11.85 Q-5.15 -11.9 -5.25 -12.2 L-5.3 -12.3 -5.35 -12.35 -6.1 -12.55 Q-6.45 -12.9 -6.45 -13.4 -6.45 -13.7 -6.4 -13.85 -6.3 -14.1 -6.0 -14.3 L-5.9 -14.3 -5.55 -14.7 Q-5.25 -15.1 -5.0 -15.15 L-5.0 -15.45 Q-5.0 -15.8 -4.45 -16.25 -3.9 -16.75 -3.15 -17.0 -1.75 -17.5 -0.65 -16.75 L-0.6 -16.85 Q-0.3 -17.25 0.45 -17.75 L0.55 -17.75 M3.45 -12.35 Q4.9 -12.35 5.55 -11.6 5.95 -11.15 5.95 -10.65 5.95 -10.0 5.55 -9.6 5.15 -9.2 4.05 -8.75 4.05 -8.35 4.0 -8.15 3.85 -7.85 3.5 -7.65 3.15 -7.45 2.55 -7.3 L2.1 -7.2 1.6 -7.1 1.6 -7.15 Q1.5 -7.25 0.7 -7.3 -0.3 -6.9 -0.5 -6.3 L-0.15 -6.3 Q0.0 -6.4 0.15 -6.45 L0.9 -6.35 2.2 -6.2 2.95 -6.2 Q3.25 -6.95 4.0 -6.75 L4.15 -6.7 4.45 -7.0 4.95 -6.45 5.0 -6.45 5.5 -6.25 Q5.5 -6.1 5.35 -6.1 L5.2 -6.1 Q5.3 -5.9 5.3 -5.7 L5.4 -5.05 5.45 -4.45 Q5.45 -4.2 5.1 -3.75 4.85 -3.4 4.55 -3.1 L4.2 -3.15 4.4 -3.0 Q4.8 -2.7 4.8 -2.45 4.8 -2.25 4.65 -1.9 4.5 -1.6 4.5 -1.4 4.5 -0.95 3.75 -0.6 2.85 -0.1 1.4 -0.3 1.15 -0.3 0.05 0.0 -1.0 0.3 -1.75 0.3 -2.25 0.3 -3.45 -0.2 -4.75 -0.7 -4.75 -1.2 -4.75 -1.45 -4.7 -1.65 L-5.4 -1.7 -6.3 -2.4 Q-6.45 -2.6 -6.45 -3.0 -6.45 -3.7 -6.05 -4.5 -5.55 -5.45 -4.7 -5.85 L-3.55 -5.8 -3.25 -5.8 Q-3.2 -5.95 -3.05 -6.05 -3.1 -6.1 -3.25 -6.1 L-3.65 -6.1 -3.65 -6.15 Q-4.1 -6.2 -4.45 -6.4 -5.0 -6.75 -5.0 -7.1 L-4.45 -8.15 Q-4.2 -8.55 -4.3 -8.75 L-4.4 -9.1 Q-4.4 -9.8 -4.0 -10.2 -3.25 -10.8 -1.05 -10.8 L-0.9 -10.5 0.05 -9.95 0.15 -9.95 Q0.4 -10.2 0.85 -10.8 1.2 -11.3 1.45 -11.45 L2.35 -11.4 2.5 -11.3 Q2.55 -11.55 2.95 -11.9 L3.45 -12.35 M-0.55 -2.45 Q-1.4 -2.45 -2.45 -2.2 L-1.9 -1.75 Q-1.5 -1.5 -1.3 -1.5 L-0.85 -1.55 -0.25 -2.2 -0.1 -2.4 -0.55 -2.45" fill="#7ed907" fill-opacity="0.5019608" fill-rule="evenodd" stroke="none"/>
    </g>
  </defs>
</svg>
