<?xml version="1.0" encoding="UTF-8" standalone="no"?>
<svg xmlns:ffdec="https://www.free-decompiler.com/flash" xmlns:xlink="http://www.w3.org/1999/xlink" ffdec:objectType="frame" height="90.2px" width="88.2px" xmlns="http://www.w3.org/2000/svg">
  <g transform="matrix(1.0, 0.0, 0.0, 1.0, 44.6, 45.2)">
    <use ffdec:characterId="828" height="3.15" transform="matrix(1.9635, 0.1718, -0.1311, 0.4158, -35.1153, -19.3726)" width="2.8" xlink:href="#sprite0"/>
    <use ffdec:characterId="828" height="3.15" transform="matrix(-0.1038, 1.9818, -0.4214, -0.041, 21.5352, -39.2171)" width="2.8" xlink:href="#sprite0"/>
    <use ffdec:characterId="828" height="3.15" transform="matrix(-1.8381, -0.7066, 0.2406, -0.3631, 30.4865, 29.5476)" width="2.8" xlink:href="#sprite0"/>
    <use ffdec:characterId="828" height="3.15" transform="matrix(0.621, -1.8831, 0.3954, 0.1503, -28.9731, 33.3759)" width="2.8" xlink:href="#sprite0"/>
    <use ffdec:characterId="828" height="3.15" transform="matrix(1.8075, 0.4133, -0.3757, 0.3775, -25.3046, -19.3071)" width="2.8" xlink:href="#sprite0"/>
    <use ffdec:characterId="828" height="3.15" transform="matrix(-0.1991, 1.9608, -0.4139, -0.1369, 21.5082, -35.5035)" width="2.8" xlink:href="#sprite0"/>
    <use ffdec:characterId="828" height="3.15" transform="matrix(-1.6217, -0.8955, 0.4649, -0.2588, 21.1696, 26.7161)" width="2.8" xlink:href="#sprite0"/>
    <use ffdec:characterId="828" height="3.15" transform="matrix(0.7074, -1.8378, 0.363, 0.2408, -27.9486, 29.7859)" width="2.8" xlink:href="#sprite0"/>
    <use ffdec:characterId="828" height="3.15" transform="matrix(1.494, 1.3016, -0.2917, 0.306, -17.4832, -40.0006)" width="2.8" xlink:href="#sprite0"/>
    <use ffdec:characterId="828" height="3.15" transform="matrix(-1.5016, 1.2881, -0.2602, -0.3323, 43.0665, -11.6882)" width="2.8" xlink:href="#sprite0"/>
    <use ffdec:characterId="828" height="3.15" transform="matrix(1.7973, -0.8228, 0.1582, 0.3909, -44.0377, 1.2046)" width="2.8" xlink:href="#sprite0"/>
    <use ffdec:characterId="828" height="3.15" transform="matrix(-1.5203, 1.2471, -0.1965, -0.388, 39.5035, -11.8527)" width="2.8" xlink:href="#sprite0"/>
    <use ffdec:characterId="828" height="3.15" transform="matrix(-1.3084, -1.4859, 0.3292, -0.2647, 12.9209, 41.8008)" width="2.8" xlink:href="#sprite0"/>
    <use ffdec:characterId="828" height="3.15" transform="matrix(1.804, -0.7782, 0.0816, 0.4268, -41.3899, -1.0081)" width="2.8" xlink:href="#sprite0"/>
    <use ffdec:characterId="828" height="3.15" transform="matrix(0.8706, 1.7764, -0.3869, 0.1686, -1.6772, -45.223)" width="2.8" xlink:href="#sprite0"/>
    <use ffdec:characterId="833" height="4.3" transform="matrix(7.0, 0.0, 0.0, 7.0, -14.15, -14.85)" width="4.0" xlink:href="#shape1"/>
    <use ffdec:characterId="829" height="4.0" transform="matrix(7.0, 0.0, 0.0, 7.0, -13.1, -13.8)" width="3.7" xlink:href="#shape2"/>
    <use ffdec:characterId="834" height="3.7" transform="matrix(7.0, 0.0, 0.0, 7.0, -12.4, -12.4)" width="3.45" xlink:href="#shape3"/>
    <use ffdec:characterId="831" height="1.75" transform="matrix(5.4823, 0.0, 0.0, 7.0, -2.1454, -6.1)" width="1.6" xlink:href="#shape4"/>
  </g>
  <defs>
    <g id="sprite0" transform="matrix(1.0, 0.0, 0.0, 1.0, 1.4, 1.4)">
      <use ffdec:characterId="827" height="0.45" transform="matrix(7.0, 0.0, 0.0, 7.0, -1.4, -1.4)" width="0.4" xlink:href="#shape0"/>
    </g>
    <g id="shape0" transform="matrix(1.0, 0.0, 0.0, 1.0, 0.2, 0.2)">
      <path d="M0.15 -0.15 Q0.2 -0.05 0.2 0.0 0.2 0.1 0.15 0.15 0.1 0.25 0.0 0.25 L-0.15 0.15 Q-0.2 0.1 -0.2 0.0 -0.2 -0.05 -0.15 -0.15 -0.05 -0.2 0.0 -0.2 0.1 -0.2 0.15 -0.15" fill="#f7e5ff" fill-opacity="0.4862745" fill-rule="evenodd" stroke="none"/>
    </g>
    <g id="shape1" transform="matrix(1.0, 0.0, 0.0, 1.0, 0.15, 4.15)">
      <path d="M1.85 -4.15 Q2.7 -4.15 3.25 -3.55 3.85 -2.9 3.85 -2.0 3.85 -1.1 3.25 -0.45 2.7 0.15 1.85 0.15 1.0 0.15 0.4 -0.45 -0.15 -1.1 -0.15 -2.0 -0.15 -2.9 0.4 -3.55 1.0 -4.15 1.85 -4.15 M0.6 -3.35 Q0.1 -2.8 0.1 -2.0 0.1 -1.2 0.6 -0.7 1.15 -0.1 1.85 -0.1 2.55 -0.1 3.05 -0.7 3.55 -1.2 3.55 -2.0 3.55 -2.8 3.05 -3.35 2.55 -3.9 1.85 -3.9 1.15 -3.9 0.6 -3.35" fill="#f4deff" fill-opacity="0.7529412" fill-rule="evenodd" stroke="none"/>
    </g>
    <g id="shape2" transform="matrix(1.0, 0.0, 0.0, 1.0, 0.0, 4.0)">
      <path d="M0.0 -2.0 Q0.0 -2.85 0.55 -3.4 1.1 -4.0 1.85 -4.0 2.6 -4.0 3.15 -3.4 3.7 -2.85 3.7 -2.0 3.7 -1.15 3.15 -0.6 2.6 0.0 1.85 0.0 1.1 0.0 0.55 -0.6 0.0 -1.15 0.0 -2.0" fill="#d982ca" fill-opacity="0.6509804" fill-rule="evenodd" stroke="none"/>
    </g>
    <g id="shape3" transform="matrix(1.0, 0.0, 0.0, 1.0, -0.1, 3.8)">
      <path d="M2.5 -3.75 Q2.9 -3.55 3.0 -3.5 3.05 -3.45 3.05 -3.25 3.05 -3.1 3.0 -2.95 2.95 -2.85 2.95 -2.75 L3.25 -2.45 Q3.55 -2.15 3.55 -1.85 3.55 -1.1 3.1 -0.6 2.65 -0.1 2.1 -0.1 L1.6 -0.15 1.55 -0.15 1.9 -0.35 Q2.1 -0.5 2.2 -0.65 L2.05 -0.65 1.7 -0.7 1.65 -0.7 1.65 -0.8 1.85 -1.0 Q2.05 -1.25 2.05 -1.35 L2.0 -1.6 Q1.9 -1.8 1.8 -1.8 L1.65 -1.7 Q1.5 -1.6 1.45 -1.6 L1.2 -1.9 Q0.9 -2.2 0.75 -2.2 0.5 -2.2 0.35 -1.95 0.3 -1.75 0.3 -1.6 L0.25 -1.55 0.15 -1.65 Q0.1 -1.75 0.1 -1.8 L0.25 -2.2 0.25 -2.25 Q0.25 -2.5 0.55 -3.05 0.8 -3.45 0.95 -3.5 L1.05 -3.5 Q1.25 -3.5 1.25 -3.45 L1.3 -3.45 Q1.35 -3.45 1.75 -3.65 2.05 -3.9 2.5 -3.75" fill="#f7e5ff" fill-opacity="0.9019608" fill-rule="evenodd" stroke="none"/>
    </g>
    <g id="shape4" transform="matrix(1.0, 0.0, 0.0, 1.0, -1.15, 2.9)">
      <path d="M1.35 -2.65 Q1.6 -2.9 1.95 -2.9 2.3 -2.9 2.5 -2.65 2.75 -2.4 2.75 -2.0 2.75 -1.65 2.5 -1.4 2.3 -1.15 1.95 -1.15 1.6 -1.15 1.35 -1.4 1.15 -1.65 1.15 -2.0 1.15 -2.4 1.35 -2.65" fill="#f4deff" fill-opacity="0.7529412" fill-rule="evenodd" stroke="none"/>
    </g>
  </defs>
</svg>
