<?xml version="1.0" encoding="UTF-8" standalone="no"?>
<svg xmlns:ffdec="https://www.free-decompiler.com/flash" xmlns:xlink="http://www.w3.org/1999/xlink" ffdec:objectType="frame" height="45.85px" width="57.05px" xmlns="http://www.w3.org/2000/svg">
  <g transform="matrix(1.0, 0.0, 0.0, 1.0, 26.6, 44.8)">
    <use ffdec:characterId="107" height="6.55" transform="matrix(7.0, 0.0, 0.0, 7.0, -26.6, -44.8)" width="8.15" xlink:href="#shape0"/>
  </g>
  <defs>
    <g id="shape0" transform="matrix(1.0, 0.0, 0.0, 1.0, 3.8, 6.4)">
      <path d="M3.15 -5.65 Q3.15 -4.85 3.75 -4.0 L4.35 -3.1 Q4.35 -2.95 3.75 -2.7 3.3 -2.5 2.9 -2.45 2.85 -2.4 2.75 -2.4 2.7 -2.15 2.45 -1.85 L2.35 -1.65 2.1 -1.35 Q2.1 -1.2 2.2 -1.15 2.3 -1.15 2.3 -0.95 2.3 -0.5 2.05 -0.4 L1.05 -0.05 0.95 0.1 Q0.8 0.15 0.65 0.15 -0.15 0.15 -0.5 -0.05 -0.75 -0.25 -0.7 -0.35 L-0.7 -0.4 -0.65 -0.4 -0.45 -0.35 -0.3 -0.3 0.1 -0.4 0.1 -0.45 Q0.1 -0.75 0.4 -0.85 0.75 -1.05 1.0 -1.2 L1.05 -1.25 1.1 -1.35 1.05 -1.55 Q1.0 -1.4 0.9 -1.4 0.8 -1.4 0.8 -1.55 L0.8 -2.35 0.55 -2.6 Q0.5 -2.3 0.4 -2.05 L0.35 -1.85 Q0.35 -1.75 0.2 -1.35 0.05 -0.95 -0.05 -0.95 L-0.15 -0.95 Q-0.25 -1.35 -0.4 -1.7 -0.45 -1.85 -0.45 -2.2 L-0.4 -2.45 -0.45 -2.5 -0.35 -2.75 -0.3 -3.0 -0.4 -3.05 -0.4 -3.1 -0.6 -3.2 -0.75 -3.0 Q-1.05 -2.6 -1.05 -2.35 -1.05 -2.1 -1.15 -1.85 L-1.2 -1.7 -1.15 -1.6 Q-1.15 -1.55 -1.35 -1.2 -1.5 -0.75 -1.6 -0.65 -1.7 -0.7 -1.9 -1.1 L-2.1 -1.5 -2.05 -1.9 -2.05 -2.0 -2.1 -2.4 Q-2.1 -2.5 -1.9 -2.9 L-1.8 -3.15 -1.9 -3.1 Q-2.25 -2.9 -2.45 -2.65 L-2.6 -2.5 -2.65 -2.5 Q-2.9 -2.2 -3.05 -2.2 L-3.15 -2.2 -3.25 -2.05 Q-3.4 -1.75 -3.45 -1.6 L-3.5 -1.55 -3.5 -1.5 -3.6 -1.45 Q-3.7 -1.55 -3.75 -2.0 L-3.8 -2.6 Q-3.8 -2.95 -3.35 -3.4 -3.05 -3.75 -2.6 -4.0 L-2.55 -4.1 Q-2.45 -4.25 -2.3 -4.25 L-2.05 -4.2 -1.45 -4.15 Q-0.9 -4.15 -0.85 -4.35 -0.75 -4.6 -0.3 -4.6 -0.2 -4.6 -0.1 -4.55 L0.1 -4.6 0.4 -4.55 0.85 -4.9 Q1.05 -5.05 1.3 -5.1 L1.35 -5.3 Q1.45 -5.5 1.55 -5.55 1.65 -5.8 2.25 -6.0 L2.3 -6.0 2.35 -6.05 Q2.5 -6.25 2.8 -6.35 3.25 -6.55 3.25 -6.15 L3.2 -5.9 Q3.15 -5.75 3.15 -5.65 M2.4 -3.95 Q2.95 -3.2 4.0 -3.05 L4.05 -3.15 3.7 -3.8 Q3.3 -4.5 3.25 -4.7 3.2 -4.85 3.1 -5.5 L3.1 -5.55 Q3.05 -5.8 3.0 -5.9 2.9 -6.15 2.7 -6.15 2.55 -6.15 2.4 -5.95 L2.35 -5.85 2.25 -5.8 2.2 -5.5 2.1 -5.2 2.1 -5.1 2.15 -4.65 2.2 -4.45 2.35 -4.1 2.35 -4.05 2.4 -3.95 M2.15 -3.95 L2.0 -4.75 2.0 -5.1 Q2.0 -5.45 2.1 -5.75 L1.85 -5.6 1.7 -5.45 1.55 -4.85 1.6 -4.65 1.6 -4.4 Q1.6 -4.15 1.75 -3.9 L1.8 -3.85 1.85 -3.75 1.85 -3.7 Q2.0 -3.45 2.25 -3.15 L2.3 -3.1 2.25 -3.4 2.15 -3.95 M1.55 -4.25 Q1.45 -4.65 1.35 -4.9 L0.9 -4.6 Q0.3 -4.2 0.0 -4.2 L-0.4 -4.35 -0.75 -4.15 Q-1.05 -3.95 -1.5 -3.95 L-2.3 -4.05 Q-2.35 -4.05 -2.45 -3.95 L-2.5 -3.85 Q-2.55 -3.8 -2.7 -3.7 L-3.25 -3.35 Q-3.15 -3.2 -3.15 -3.1 -3.15 -3.05 -3.25 -2.85 L-3.25 -2.8 -3.3 -2.75 -3.5 -2.4 -3.15 -2.4 Q-2.95 -2.45 -2.75 -2.65 L-2.7 -2.7 -2.5 -3.1 Q-2.3 -3.3 -1.9 -3.4 L-1.0 -3.55 Q-0.95 -3.55 -0.75 -3.45 L-0.7 -3.45 -0.6 -3.35 Q-0.2 -3.3 0.4 -2.9 L0.75 -2.7 0.8 -2.65 Q0.9 -2.8 1.0 -2.55 L1.05 -2.5 1.05 -2.45 1.15 -2.15 1.3 -1.2 Q1.3 -1.1 1.25 -1.05 1.2 -1.0 1.15 -1.0 L1.05 -1.0 1.05 -1.05 0.65 -0.9 Q0.25 -0.8 0.3 -0.45 L0.45 -0.5 0.6 -0.5 0.9 -0.5 0.95 -0.45 1.0 -0.45 1.0 -0.4 1.05 -0.4 1.05 -0.35 Q1.2 -0.45 1.45 -0.45 2.05 -0.55 2.05 -0.95 L2.0 -1.05 Q1.95 -1.1 1.95 -1.15 L2.15 -1.85 2.35 -2.2 2.45 -2.4 2.55 -2.5 2.05 -3.0 1.85 -3.25 1.75 -3.4 1.7 -3.4 1.55 -3.45 1.45 -3.45 Q1.3 -3.45 1.2 -3.3 L1.15 -3.35 Q1.35 -3.65 1.55 -3.8 L1.6 -3.85 1.6 -3.9 1.55 -4.25 M2.25 -3.75 L2.35 -3.5 Q2.5 -3.05 2.75 -2.7 L2.8 -2.7 3.3 -2.8 3.65 -2.85 Q3.3 -2.95 2.9 -3.35 L2.8 -3.45 2.65 -3.55 2.55 -3.7 2.5 -3.75 2.35 -3.95 2.35 -4.0 2.15 -4.45 2.2 -3.95 2.25 -3.75 M0.3 -2.75 Q0.15 -2.8 -0.1 -2.95 L-0.2 -2.7 Q-0.3 -2.5 -0.3 -2.25 L-0.2 -2.0 -0.15 -1.8 Q0.2 -1.85 0.35 -2.2 0.45 -2.4 0.45 -2.65 L0.3 -2.75 M0.9 -1.85 Q0.9 -1.75 0.95 -1.75 1.0 -1.75 1.05 -1.7 L1.0 -1.95 0.95 -2.0 Q0.9 -1.9 0.9 -1.85 M0.85 -0.3 Q0.75 -0.3 0.35 -0.25 L-0.4 -0.2 -0.25 -0.1 Q0.0 0.0 0.5 0.0 0.6 0.0 0.85 -0.2 L0.85 -0.3 M-3.55 -2.75 L-3.7 -2.2 -3.6 -2.3 -3.6 -2.35 -3.4 -2.65 Q-3.25 -3.0 -3.3 -3.15 -3.45 -3.1 -3.55 -2.75 M-3.35 -2.25 L-3.35 -2.35 -3.4 -2.35 -3.55 -2.15 -3.6 -2.0 -3.6 -1.9 -3.55 -1.9 -3.45 -2.05 -3.35 -2.25 M-1.75 -1.6 L-1.7 -1.6 -1.7 -1.55 -1.6 -1.55 Q-1.45 -1.55 -1.35 -1.65 L-1.3 -1.7 Q-1.2 -1.85 -1.2 -2.2 -1.15 -2.5 -1.2 -2.85 -1.2 -2.95 -0.9 -3.25 L-0.85 -3.35 -0.95 -3.35 Q-1.25 -3.35 -1.55 -3.25 L-1.6 -3.15 Q-1.6 -3.0 -1.75 -2.75 -1.95 -2.5 -1.95 -2.2 -1.9 -2.05 -1.9 -1.85 L-1.9 -1.8 -1.85 -1.8 Q-1.8 -1.65 -1.75 -1.6 M-1.5 -1.4 Q-1.75 -1.4 -1.85 -1.55 L-1.85 -1.3 Q-1.85 -1.15 -1.7 -0.95 L-1.5 -1.35 -1.5 -1.4 M-0.2 -1.5 Q-0.1 -1.4 -0.1 -1.3 L0.05 -1.55 -0.1 -1.5 Q-0.2 -1.5 -0.25 -1.7 L-0.25 -1.65 -0.2 -1.5" fill="#111111" fill-rule="evenodd" stroke="none"/>
      <path d="M-3.25 -2.85 Q-3.15 -3.05 -3.15 -3.1 -3.15 -3.2 -3.25 -3.35 L-2.7 -3.7 Q-2.55 -3.8 -2.5 -3.85 L-2.45 -3.95 Q-2.35 -4.05 -2.3 -4.05 L-1.5 -3.95 Q-1.05 -3.95 -0.75 -4.15 L-0.4 -4.35 0.0 -4.2 Q0.3 -4.2 0.9 -4.6 L1.35 -4.9 Q1.45 -4.65 1.55 -4.25 L1.55 -4.35 1.45 -4.3 Q0.25 -3.75 -0.15 -3.75 -0.25 -3.75 -0.35 -3.8 L-0.7 -3.85 Q-1.75 -3.85 -2.7 -3.25 L-3.25 -2.85 M1.55 -3.45 L1.7 -3.4 1.75 -3.4 1.85 -3.25 1.25 -3.1 1.6 -3.45 1.55 -3.45 M0.6 -0.5 L0.45 -0.5 0.3 -0.45 Q0.25 -0.8 0.65 -0.9 L1.05 -1.05 1.05 -1.0 0.85 -0.8 Q0.7 -0.65 0.6 -0.5 M-1.6 -3.15 L-1.55 -3.15 -1.5 -3.05 Q-1.75 -2.05 -1.75 -1.65 L-1.75 -1.6 Q-1.8 -1.65 -1.85 -1.8 L-1.9 -1.8 -1.9 -1.85 Q-1.9 -2.05 -1.95 -2.2 -1.95 -2.5 -1.75 -2.75 -1.6 -3.0 -1.6 -3.15" fill="#61736a" fill-rule="evenodd" stroke="none"/>
      <path d="M-3.25 -2.85 L-2.7 -3.25 Q-1.75 -3.85 -0.7 -3.85 L-0.35 -3.8 Q-0.25 -3.75 -0.15 -3.75 0.25 -3.75 1.45 -4.3 L1.55 -4.35 1.55 -4.25 1.6 -3.9 1.6 -3.85 1.55 -3.8 Q1.35 -3.65 1.15 -3.35 L1.2 -3.3 Q1.3 -3.45 1.45 -3.45 L1.55 -3.45 1.6 -3.45 1.25 -3.1 1.85 -3.25 2.05 -3.0 2.55 -2.5 2.45 -2.4 2.35 -2.2 2.15 -1.85 1.95 -1.15 Q1.95 -1.1 2.0 -1.05 L2.05 -0.95 Q2.05 -0.55 1.45 -0.45 1.2 -0.45 1.05 -0.35 L1.05 -0.4 1.0 -0.4 1.0 -0.45 0.95 -0.45 0.9 -0.5 0.6 -0.5 Q0.7 -0.65 0.85 -0.8 L1.05 -1.0 1.15 -1.0 Q1.2 -1.0 1.25 -1.05 1.3 -1.1 1.3 -1.2 L1.15 -2.15 1.05 -2.45 1.05 -2.5 1.0 -2.55 Q0.9 -2.8 0.8 -2.65 L0.75 -2.7 0.4 -2.9 Q-0.2 -3.3 -0.6 -3.35 L-0.7 -3.45 -0.75 -3.45 Q-0.95 -3.55 -1.0 -3.55 L-1.9 -3.4 Q-2.3 -3.3 -2.5 -3.1 L-2.7 -2.7 -2.75 -2.65 Q-2.95 -2.45 -3.15 -2.4 L-3.5 -2.4 -3.3 -2.75 -3.25 -2.8 -3.25 -2.85 M0.3 -2.75 L0.45 -2.65 Q0.45 -2.4 0.35 -2.2 0.2 -1.85 -0.15 -1.8 L-0.2 -2.0 -0.3 -2.25 Q-0.3 -2.5 -0.2 -2.7 L-0.1 -2.95 Q0.15 -2.8 0.3 -2.75 M-1.6 -3.15 L-1.55 -3.25 Q-1.25 -3.35 -0.95 -3.35 L-0.85 -3.35 -0.9 -3.25 Q-1.2 -2.95 -1.2 -2.85 -1.15 -2.5 -1.2 -2.2 -1.2 -1.85 -1.3 -1.7 L-1.35 -1.65 Q-1.45 -1.55 -1.6 -1.55 L-1.7 -1.55 -1.7 -1.6 -1.75 -1.6 -1.75 -1.65 Q-1.75 -2.05 -1.5 -3.05 L-1.55 -3.15 -1.6 -3.15" fill="#4b5952" fill-rule="evenodd" stroke="none"/>
      <path d="M2.4 -3.95 L2.5 -4.0 2.75 -4.05 2.7 -4.5 2.6 -5.15 Q2.6 -5.35 2.7 -5.4 2.75 -5.15 2.85 -4.8 3.0 -4.45 3.15 -4.2 L3.3 -4.25 Q3.15 -4.45 3.05 -4.85 2.95 -5.2 2.95 -5.55 L3.0 -5.9 Q3.05 -5.8 3.1 -5.55 L3.1 -5.5 Q3.2 -4.85 3.25 -4.7 3.3 -4.5 3.7 -3.8 L4.05 -3.15 4.0 -3.05 Q2.95 -3.2 2.4 -3.95 M1.75 -3.9 L2.0 -3.95 2.15 -3.95 2.25 -3.4 2.3 -3.1 2.25 -3.15 Q2.0 -3.45 1.85 -3.7 L1.85 -3.75 1.8 -3.85 1.75 -3.9 M2.5 -3.75 L2.55 -3.7 2.65 -3.55 2.8 -3.45 2.9 -3.35 Q3.3 -2.95 3.65 -2.85 L3.3 -2.8 2.8 -2.7 2.75 -2.7 Q2.5 -3.05 2.35 -3.5 L2.25 -3.75 2.5 -3.75" fill="#59542f" fill-rule="evenodd" stroke="none"/>
      <path d="M3.0 -5.9 L2.95 -5.55 Q2.95 -5.2 3.05 -4.85 3.15 -4.45 3.3 -4.25 L3.15 -4.2 Q3.0 -4.45 2.85 -4.8 2.75 -5.15 2.7 -5.4 2.6 -5.35 2.6 -5.15 L2.7 -4.5 2.75 -4.05 2.5 -4.0 2.4 -3.95 2.35 -4.05 2.35 -4.1 2.2 -4.45 2.15 -4.65 2.1 -5.1 2.1 -5.2 2.2 -5.5 2.25 -5.8 2.35 -5.85 2.4 -5.95 Q2.55 -6.15 2.7 -6.15 2.9 -6.15 3.0 -5.9 M1.75 -3.9 Q1.6 -4.15 1.6 -4.4 L1.6 -4.65 1.55 -4.85 1.7 -5.45 1.85 -5.6 2.1 -5.75 Q2.0 -5.45 2.0 -5.1 L2.0 -4.75 2.15 -3.95 2.0 -3.95 1.75 -3.9 M2.25 -3.75 L2.2 -3.95 2.15 -4.45 2.35 -4.0 2.35 -3.95 2.5 -3.75 2.25 -3.75" fill="#8f8a64" fill-rule="evenodd" stroke="none"/>
      <path d="M0.85 -0.3 L0.85 -0.2 Q0.6 0.0 0.5 0.0 0.0 0.0 -0.25 -0.1 L-0.4 -0.2 0.35 -0.25 Q0.75 -0.3 0.85 -0.3 M0.9 -1.85 Q0.9 -1.9 0.95 -2.0 L1.0 -1.95 1.05 -1.7 Q1.0 -1.75 0.95 -1.75 0.9 -1.75 0.9 -1.85 M-3.35 -2.25 L-3.45 -2.05 -3.55 -1.9 -3.6 -1.9 -3.6 -2.0 -3.55 -2.15 -3.4 -2.35 -3.35 -2.35 -3.35 -2.25 M-0.2 -1.5 L-0.25 -1.65 -0.25 -1.7 Q-0.2 -1.5 -0.1 -1.5 L0.05 -1.55 -0.1 -1.3 Q-0.1 -1.4 -0.2 -1.5 M-1.5 -1.4 L-1.5 -1.35 -1.7 -0.95 Q-1.85 -1.15 -1.85 -1.3 L-1.85 -1.55 Q-1.75 -1.4 -1.5 -1.4" fill="#d8d696" fill-rule="evenodd" stroke="none"/>
      <path d="M-3.55 -2.75 Q-3.45 -3.1 -3.3 -3.15 -3.25 -3.0 -3.4 -2.65 L-3.6 -2.35 -3.6 -2.3 -3.7 -2.2 -3.55 -2.75" fill="#f5f4d6" fill-rule="evenodd" stroke="none"/>
    </g>
  </defs>
</svg>
