<?xml version="1.0" encoding="UTF-8" standalone="no"?>
<svg xmlns:ffdec="https://www.free-decompiler.com/flash" xmlns:xlink="http://www.w3.org/1999/xlink" ffdec:objectType="frame" height="307.65px" width="119.7px" xmlns="http://www.w3.org/2000/svg">
  <g transform="matrix(1.0, 0.0, 0.0, 1.0, 65.8, 184.1)">
    <use ffdec:characterId="856" height="38.05" transform="matrix(7.0, 0.0, 0.0, 7.0, -54.95, -162.4)" width="14.25" xlink:href="#shape0"/>
  </g>
  <defs>
    <g id="shape0" transform="matrix(1.0, 0.0, 0.0, 1.0, 7.85, 23.2)">
      <path d="M0.85 -23.2 L1.15 -22.9 Q1.5 -22.6 1.7 -22.5 L2.1 -22.45 Q2.45 -22.4 2.5 -22.3 2.75 -22.0 2.9 -21.9 3.0 -21.8 3.3 -21.7 3.8 -21.5 3.9 -21.15 3.95 -20.9 3.75 -20.45 L3.65 -20.45 Q3.45 -20.45 3.0 -20.55 L2.95 -20.35 3.0 -20.2 3.5 -18.25 3.5 -18.05 3.8 -17.3 Q4.2 -16.1 3.85 -16.15 3.75 -15.8 3.5 -15.2 3.05 -14.25 3.05 -14.15 L3.15 -13.4 3.2 -12.7 3.15 -12.2 Q3.1 -11.8 3.15 -11.6 3.05 -11.55 2.9 -11.5 L2.7 -11.5 2.5 -11.25 2.3 -10.95 Q2.25 -10.9 1.9 -10.75 L1.8 -10.7 1.9 -10.65 Q2.15 -10.55 2.25 -10.4 L2.2 -10.15 2.1 -10.0 2.3 -9.8 2.45 -9.6 Q2.4 -9.6 2.2 -9.7 1.95 -9.85 1.95 -9.95 1.95 -10.05 2.0 -10.15 2.05 -10.25 2.2 -10.25 2.1 -10.5 1.8 -10.6 L1.65 -10.65 1.5 -10.55 1.35 -10.1 1.25 -9.85 1.25 -9.75 1.55 -8.95 1.8 -8.5 2.1 -8.2 Q2.35 -7.85 2.4 -7.7 L2.4 -7.25 2.15 -6.85 Q1.9 -6.6 1.75 -6.6 L1.7 -6.6 1.65 -6.5 Q1.6 -6.4 1.6 -6.3 L1.5 -5.7 1.55 -5.55 1.6 -5.05 2.05 -5.45 2.1 -5.75 Q2.2 -5.85 2.4 -5.95 2.4 -5.6 2.15 -5.3 L1.8 -4.85 Q1.8 -4.45 1.85 -4.25 L1.85 -3.65 1.95 -3.6 Q2.0 -2.0 2.35 -1.5 L2.6 -1.25 Q2.7 -1.15 2.75 -0.95 L2.6 -0.75 2.45 -0.65 2.25 -0.5 2.3 -0.4 2.35 -0.35 2.35 0.05 2.4 0.05 2.6 0.4 Q2.8 0.75 2.85 0.95 L2.85 1.05 3.2 1.85 Q3.75 3.2 3.9 3.95 4.1 4.1 4.55 4.35 4.95 4.6 5.05 5.1 L5.1 7.3 Q5.1 7.7 5.35 8.8 5.45 9.35 4.95 9.55 L4.5 10.0 4.15 10.3 4.2 10.45 Q3.9 10.85 3.45 11.75 3.0 12.55 2.4 12.8 1.35 13.2 1.1 14.1 L0.9 14.6 Q0.8 14.85 0.5 14.85 0.4 14.85 -1.65 13.9 L-2.0 13.55 Q-2.3 13.3 -2.4 13.25 -2.7 13.15 -3.3 13.0 L-3.8 12.9 -3.85 12.65 Q-4.1 11.55 -4.45 11.2 -4.65 11.0 -5.15 10.65 -5.6 10.35 -5.85 9.95 L-5.8 9.35 Q-5.8 9.0 -5.75 9.0 -5.8 8.6 -6.0 7.3 L-6.25 5.8 -6.2 5.65 -6.2 5.6 Q-6.2 5.3 -5.95 4.75 L-5.75 4.3 -5.75 4.25 -5.8 3.8 -5.5 3.2 -5.1 2.6 Q-5.05 2.45 -4.85 1.85 L-4.8 1.65 Q-4.9 1.5 -4.9 1.3 -4.9 0.9 -4.35 -0.2 L-4.15 -0.55 -4.15 -0.75 -4.1 -1.25 Q-4.1 -2.1 -4.2 -2.8 L-4.25 -2.85 -4.45 -3.25 Q-4.8 -3.8 -5.4 -4.65 -5.6 -5.0 -5.85 -5.2 L-6.35 -5.7 -6.75 -5.75 Q-7.05 -5.75 -7.15 -5.95 L-7.2 -6.3 -7.25 -6.7 Q-7.25 -6.95 -7.3 -7.3 L-7.35 -7.7 -7.3 -7.95 -7.25 -8.3 -7.05 -8.55 -6.85 -8.75 Q-6.8 -8.85 -6.7 -9.05 -6.7 -9.25 -6.55 -9.3 L-6.75 -10.0 Q-6.9 -10.6 -7.1 -12.45 -7.15 -12.95 -7.25 -13.2 -7.2 -13.65 -7.1 -14.05 L-7.25 -14.7 Q-7.35 -14.95 -7.6 -15.5 L-7.85 -16.05 Q-7.85 -16.25 -7.6 -16.5 -7.25 -16.85 -7.15 -17.2 -7.05 -17.45 -6.75 -17.85 -6.45 -18.3 -6.4 -19.0 -6.3 -19.6 -6.05 -19.7 L-5.55 -19.75 Q-5.45 -19.8 -5.15 -19.95 L-4.9 -20.1 -4.95 -20.15 Q-4.95 -20.35 -4.65 -20.8 -4.4 -21.35 -4.1 -21.6 -3.95 -21.7 -3.6 -21.75 -3.2 -21.85 -3.0 -21.95 -2.65 -22.2 -1.85 -22.6 -1.45 -22.8 -1.3 -23.1 -1.1 -22.95 -0.85 -22.85 L-0.75 -22.85 -0.2 -22.8 Q0.0 -22.8 0.35 -23.0 0.7 -23.2 0.85 -23.2 M1.15 -22.0 L1.85 -21.6 2.5 -21.15 Q2.75 -20.95 2.9 -20.5 L2.95 -20.65 3.25 -20.65 3.45 -20.55 3.65 -20.5 3.7 -21.25 Q3.55 -21.45 2.95 -21.75 L2.65 -22.05 2.25 -22.3 1.5 -22.55 Q1.05 -22.65 0.75 -23.05 0.65 -22.95 0.05 -22.75 L-0.4 -22.65 -0.25 -22.55 Q0.3 -22.35 0.7 -22.2 L1.15 -22.0 M1.85 -17.85 Q1.75 -17.85 1.5 -17.65 L1.4 -17.6 1.45 -17.5 1.45 -17.45 Q1.5 -17.3 1.5 -17.25 L1.5 -17.15 1.3 -15.3 1.25 -14.7 1.45 -14.75 Q1.7 -14.75 2.0 -14.65 L2.4 -15.2 2.5 -15.05 2.55 -15.1 2.6 -15.5 2.65 -15.85 Q2.65 -16.3 2.85 -16.5 3.0 -16.55 3.3 -16.6 L3.4 -16.6 3.15 -17.6 3.1 -17.6 Q2.9 -17.6 2.55 -17.75 2.2 -17.85 1.85 -17.85 M0.25 -14.65 Q0.1 -14.85 0.1 -15.0 0.1 -15.3 0.3 -16.0 0.15 -15.7 -0.25 -15.5 L-0.25 -15.4 Q-0.25 -15.2 -0.5 -15.0 L-0.7 -14.85 -0.65 -14.4 -0.4 -14.25 -0.1 -13.95 -0.1 -13.8 Q-0.2 -13.65 -0.65 -13.4 L-0.75 -13.35 -0.7 -13.0 Q-0.65 -12.05 -1.1 -11.3 -1.25 -10.75 -1.65 -10.3 -1.2 -9.5 -1.05 -9.35 -1.15 -9.25 -1.35 -9.15 L-1.7 -9.05 Q-1.95 -8.9 -2.1 -8.5 L-2.15 -8.0 Q-2.15 -7.75 -2.2 -7.6 L-2.1 -7.4 -2.15 -6.85 -2.15 -5.3 -2.2 -5.25 Q-2.05 -5.1 -2.25 -4.8 -2.3 -4.45 -2.35 -4.15 L-2.35 -3.75 Q-2.35 -3.3 -2.5 -2.95 L-2.5 -2.65 -2.55 -2.6 -2.55 -2.55 Q-2.55 -2.15 -2.55 -1.7 L-2.6 -1.65 Q-2.6 -1.6 -2.65 -1.6 L-2.8 -1.55 -2.9 -0.6 Q-3.0 0.25 -3.1 0.65 -3.25 3.75 -3.05 4.5 L-2.9 4.85 -2.9 4.9 Q-2.8 5.1 -2.8 5.6 -2.6 5.8 -2.35 5.85 L-1.85 5.9 -2.1 5.2 Q-2.5 4.05 -2.5 3.5 -2.5 2.65 -2.1 2.2 -1.9 1.85 -1.35 1.35 L-1.1 1.15 Q-0.7 0.75 -0.4 0.65 -0.05 0.3 0.1 0.2 L0.0 -0.15 0.0 -0.2 0.05 -0.7 0.1 -0.8 Q0.35 -1.15 0.6 -1.7 L0.75 -1.95 Q0.5 -2.4 0.25 -2.65 L0.2 -2.8 Q0.35 -3.05 0.5 -3.05 L0.5 -3.1 Q0.45 -3.1 0.45 -3.2 L0.45 -3.25 0.05 -3.65 0.05 -3.7 0.0 -3.75 0.05 -4.0 Q0.1 -4.2 0.15 -4.3 0.2 -5.35 0.25 -5.7 0.1 -6.15 0.1 -6.9 0.15 -8.0 -0.05 -8.4 L-0.1 -8.5 -0.05 -8.85 0.0 -8.95 0.35 -9.25 0.65 -9.45 0.65 -9.65 0.8 -10.0 0.85 -10.1 0.85 -10.25 Q0.95 -10.6 0.95 -10.8 0.95 -10.95 0.8 -11.2 0.6 -11.55 0.6 -11.65 L0.6 -11.7 Q0.6 -11.95 0.8 -13.6 L0.8 -13.85 Q0.7 -14.1 0.55 -14.3 L0.25 -14.65 M1.85 -14.3 Q1.75 -14.35 1.65 -14.35 1.5 -14.35 1.45 -13.95 1.45 -13.65 1.3 -13.35 1.3 -13.0 1.2 -12.6 L1.2 -12.55 1.25 -12.6 1.65 -12.65 Q1.8 -12.65 1.85 -12.75 1.9 -13.05 2.0 -13.2 2.05 -13.35 2.25 -13.5 2.5 -13.7 2.5 -13.8 2.35 -14.0 2.35 -14.25 L2.35 -14.45 Q2.2 -14.2 2.0 -14.2 1.95 -14.2 1.85 -14.3 M2.45 -14.55 L2.5 -14.15 2.55 -13.8 Q2.55 -13.65 2.35 -13.2 2.15 -12.8 2.2 -12.6 2.05 -12.45 1.85 -12.4 L1.55 -12.3 Q1.45 -12.2 1.3 -11.9 L1.3 -11.85 Q1.4 -11.25 1.5 -10.95 L1.5 -10.9 2.0 -11.1 2.3 -11.45 Q2.55 -11.75 2.85 -11.7 L2.9 -11.7 Q2.85 -12.25 2.9 -14.25 3.15 -15.15 3.3 -15.5 3.45 -15.9 3.65 -16.15 L3.3 -16.15 Q3.0 -16.1 2.95 -15.9 L2.55 -14.9 Q2.55 -14.75 2.45 -14.55 M2.45 -9.55 L2.6 -9.65 2.85 -9.7 3.15 -9.65 3.4 -9.7 3.55 -9.2 3.65 -8.75 3.6 -8.5 3.45 -8.35 3.35 -8.3 Q3.25 -7.65 3.4 -7.55 3.55 -7.45 3.55 -7.3 L3.5 -7.2 3.45 -7.0 Q3.25 -6.65 2.95 -6.65 2.8 -6.65 2.8 -6.35 2.8 -6.25 2.75 -6.25 L2.35 -6.25 2.2 -6.3 2.2 -6.35 2.55 -6.4 2.6 -6.75 2.9 -6.95 3.25 -7.05 3.25 -7.55 3.3 -8.35 3.4 -8.45 3.55 -8.55 Q3.55 -8.75 3.45 -8.85 3.4 -9.0 3.35 -9.4 3.25 -9.45 3.1 -9.4 L2.9 -9.35 2.65 -9.45 2.45 -9.5 2.45 -9.55 M1.15 -9.4 L1.15 -8.85 Q1.3 -8.85 1.5 -8.6 L1.55 -8.55 1.35 -8.95 1.15 -9.4 M1.15 -8.7 Q1.2 -8.25 1.45 -7.65 L1.7 -7.0 1.8 -7.1 Q2.05 -7.25 2.05 -7.4 2.05 -7.5 1.8 -7.9 L1.6 -8.25 1.35 -8.45 1.15 -8.7 M5.55 -4.95 Q5.4 -5.15 5.35 -5.35 L5.65 -5.1 5.85 -4.85 Q5.95 -4.8 5.75 -4.8 5.65 -4.8 5.55 -4.95 M0.5 -4.15 Q0.6 -3.85 0.8 -3.55 L0.85 -3.55 1.1 -3.2 1.15 -3.45 0.55 -5.0 Q0.55 -4.4 0.5 -4.15 M1.75 -3.1 L1.8 -2.7 Q1.8 -2.4 1.65 -2.0 1.5 -1.65 1.5 -1.45 L1.5 -1.35 Q1.55 -1.15 1.5 -1.15 L1.6 -1.15 1.65 -1.1 Q1.85 -0.85 2.05 -0.65 L2.2 -0.5 2.35 -0.65 Q2.55 -0.85 2.7 -0.85 2.35 -1.3 2.2 -1.65 1.95 -2.15 1.8 -3.15 L1.75 -3.1 M0.45 -2.9 L0.4 -2.9 0.85 -2.2 0.9 -2.6 Q0.85 -2.8 0.65 -3.05 L0.65 -2.95 0.45 -2.9 M5.5 -2.75 Q5.8 -2.8 5.95 -2.9 L6.0 -2.8 Q5.9 -2.6 5.65 -2.5 L5.25 -2.3 5.2 -2.35 Q5.35 -2.7 5.5 -2.75 M3.7 -1.3 Q4.05 -1.3 4.65 -0.5 L4.5 -0.65 Q3.9 -1.2 3.55 -1.2 3.6 -1.3 3.7 -1.3 M5.9 6.3 Q5.85 6.65 5.75 6.7 5.7 6.7 5.7 6.6 L5.7 6.3 5.65 6.25 5.8 6.25 Q5.9 6.25 5.9 6.3 M5.85 4.75 L5.75 4.95 5.7 4.95 5.7 4.9 5.75 4.85 Q5.75 4.75 5.7 4.6 L5.65 4.5 5.7 4.45 Q5.8 4.5 5.85 4.6 L5.85 4.75 M5.5 1.15 Q5.4 0.4 5.05 0.2 5.05 0.05 4.95 -0.15 5.45 0.55 5.55 0.6 L5.5 1.25 5.5 1.15 M5.45 0.8 L5.45 0.65 5.4 0.65 5.45 0.8 M3.15 2.6 Q3.55 3.1 3.5 4.35 L3.4 5.1 Q3.5 5.35 3.45 5.45 L3.45 5.5 3.4 5.6 3.4 5.7 3.25 6.2 3.35 6.45 3.4 6.55 3.35 6.6 3.25 7.05 3.2 7.45 3.15 7.8 Q3.4 7.85 3.45 8.2 L3.5 8.45 3.55 8.6 3.6 8.7 3.55 8.8 3.65 9.05 3.95 9.65 4.05 9.9 4.35 9.65 Q4.75 9.35 5.1 9.2 5.1 8.85 5.0 8.05 4.9 7.35 4.85 7.25 L4.85 5.1 Q4.7 4.65 4.25 4.4 3.65 4.1 3.6 4.05 3.5 3.25 3.1 2.2 L3.15 2.6 M2.8 1.35 L2.75 1.15 2.7 1.2 2.8 1.35 M3.15 13.1 L3.65 13.25 3.7 13.45 Q3.6 13.45 3.5 13.3 L3.5 13.35 3.35 13.4 3.2 13.4 3.2 13.25 3.15 13.2 3.15 13.1 M6.05 9.45 Q6.35 9.5 6.4 9.75 L6.25 9.6 6.05 9.45 M6.15 12.35 L6.1 12.5 6.05 12.2 5.9 12.2 5.9 12.05 6.05 12.05 Q6.3 12.05 6.15 12.35 M6.05 13.05 L6.0 13.05 Q5.9 13.05 5.9 12.9 5.9 12.7 6.05 12.7 6.0 12.9 6.05 13.05 M6.4 13.55 L6.2 13.4 6.2 13.3 6.3 13.4 6.4 13.55 M3.45 14.55 Q3.45 14.4 3.75 14.0 3.75 14.1 3.65 14.3 L3.45 14.55 M-6.65 -17.85 Q-6.95 -17.45 -7.25 -16.75 L-7.5 -16.45 Q-7.75 -16.2 -7.75 -16.1 -7.2 -14.85 -7.15 -14.6 L-7.05 -14.15 -6.85 -14.6 Q-6.85 -14.75 -6.75 -14.95 L-6.35 -15.85 -6.0 -16.5 -6.05 -16.65 -6.1 -16.7 -6.1 -17.25 -6.05 -17.35 -6.0 -17.35 Q-5.95 -17.5 -5.8 -17.6 L-5.05 -18.05 -4.55 -18.5 -4.4 -18.6 Q-4.4 -18.95 -4.7 -19.55 L-4.85 -19.9 -4.95 -19.8 Q-5.2 -19.7 -5.35 -19.7 -6.1 -19.7 -6.3 -19.05 -6.45 -18.25 -6.65 -17.85 M-3.6 -8.5 Q-4.1 -7.45 -4.1 -6.3 L-3.9 -6.0 Q-3.75 -6.0 -3.65 -5.9 -3.55 -5.8 -3.35 -5.35 L-3.1 -5.8 Q-2.9 -6.15 -2.9 -6.55 -2.9 -6.85 -3.4 -8.0 L-3.6 -8.5 M-2.05 -9.0 L-1.75 -9.2 Q-1.35 -9.45 -1.35 -9.5 L-1.6 -9.9 -1.75 -10.15 -1.9 -9.8 Q-1.95 -9.45 -2.05 -9.0 M-6.45 -9.2 L-6.5 -8.95 -6.65 -8.7 Q-6.75 -8.7 -7.0 -8.3 -7.2 -7.95 -7.2 -7.7 L-7.15 -7.3 -7.1 -6.6 -7.05 -5.95 Q-6.2 -6.0 -5.2 -4.7 -4.65 -4.05 -4.2 -3.25 L-4.25 -3.35 -4.25 -3.45 -4.75 -4.9 -4.9 -5.25 -5.05 -5.75 -5.1 -5.85 -5.2 -5.95 -5.35 -6.3 -5.45 -6.6 -5.85 -7.55 -6.0 -7.85 -6.1 -8.1 -6.05 -8.05 -6.35 -9.0 -6.4 -9.3 -6.45 -9.2 M-5.7 7.05 Q-5.65 7.65 -5.65 8.5 L-5.65 9.6 Q-5.65 10.05 -5.3 10.35 -5.1 10.5 -4.95 10.55 -4.55 10.75 -4.15 11.3 L-3.5 11.6 -3.5 11.4 Q-3.55 11.35 -3.35 11.35 -3.3 11.35 -3.05 11.65 L-2.85 11.9 -2.7 12.0 Q-2.7 11.8 -2.75 11.55 -2.85 10.75 -3.4 9.55 -3.45 9.45 -4.05 8.65 L-4.25 8.5 Q-4.7 7.75 -5.1 7.7 L-5.7 6.8 -5.7 7.05 M-3.7 12.3 L-3.7 12.25 -3.6 12.45 Q-3.5 12.65 -3.25 12.65 -2.85 12.65 -2.75 12.3 L-2.9 12.2 Q-3.35 11.85 -3.45 11.8 L-3.9 11.65 -3.95 11.65 -3.8 12.0 -3.7 12.3" fill="#8affff" fill-rule="evenodd" stroke="none"/>
      <path d="M0.45 -21.35 L0.8 -21.2 Q1.25 -21.0 1.35 -20.9 L1.45 -20.85 1.5 -20.85 1.7 -20.55 2.0 -20.2 2.0 -20.15 2.05 -20.15 2.25 -19.65 2.5 -18.65 1.95 -18.75 Q1.6 -18.85 0.95 -18.3 L0.9 -18.25 Q0.65 -18.05 0.6 -17.75 0.55 -17.5 0.6 -17.3 L0.65 -17.1 0.6 -16.8 0.1 -16.85 0.05 -16.85 Q-0.25 -16.75 -0.4 -16.5 L-0.4 -16.45 Q-0.5 -16.35 -0.65 -16.3 L-0.65 -16.25 Q-0.85 -16.15 -1.0 -16.0 L-1.0 -15.95 -1.05 -15.9 -1.15 -15.6 -1.4 -15.35 Q-1.6 -15.05 -1.55 -14.75 L-1.55 -14.7 -1.5 -14.3 -1.45 -14.2 -1.35 -13.95 -1.5 -13.7 -1.55 -13.6 Q-1.6 -13.4 -1.6 -13.2 L-1.55 -13.0 -1.55 -12.95 Q-1.5 -12.25 -1.85 -11.7 L-1.9 -11.5 Q-2.0 -11.15 -2.25 -10.9 L-2.25 -10.85 -2.3 -10.8 -2.35 -10.8 -2.35 -10.75 -2.55 -10.55 -2.6 -10.45 -2.7 -10.05 Q-2.8 -9.65 -2.9 -9.15 L-2.9 -9.0 Q-3.0 -9.15 -3.25 -9.25 L-3.35 -9.3 -3.5 -9.3 -3.55 -9.25 -3.6 -9.3 -3.9 -9.3 Q-4.2 -9.2 -4.35 -8.85 L-4.4 -8.8 Q-4.7 -8.15 -4.85 -7.4 L-5.05 -7.8 -5.05 -7.85 -5.1 -7.9 -5.1 -7.95 -5.15 -8.15 -5.2 -8.15 -5.2 -8.3 -5.5 -9.25 -5.6 -9.55 -5.65 -9.6 Q-5.7 -9.8 -5.85 -9.95 L-5.9 -10.15 Q-6.05 -10.75 -6.25 -12.55 -6.3 -13.0 -6.4 -13.3 L-6.3 -13.65 Q-6.0 -14.1 -5.95 -14.7 L-5.95 -14.75 -5.6 -15.35 -5.6 -15.45 -5.25 -16.15 -5.2 -16.15 Q-5.1 -16.45 -5.2 -16.8 L-5.2 -16.85 -5.25 -16.85 -5.25 -16.9 -5.3 -16.9 -5.3 -16.95 -5.25 -16.95 Q-5.15 -17.0 -5.15 -17.05 -5.1 -17.1 -5.1 -17.15 L-5.05 -17.1 -4.9 -17.1 -4.9 -17.15 -4.85 -17.15 -4.7 -17.25 Q-4.6 -17.25 -4.5 -17.3 -4.1 -17.5 -3.95 -17.85 L-3.85 -17.9 Q-3.7 -18.05 -3.65 -18.2 L-3.6 -18.25 Q-3.55 -18.4 -3.55 -18.6 -3.55 -19.05 -3.85 -19.8 L-3.9 -19.85 -3.9 -19.9 -4.05 -20.2 -3.95 -20.35 -3.95 -20.4 -3.6 -20.9 -3.45 -20.9 Q-2.85 -21.0 -2.6 -21.2 L-2.55 -21.2 -2.5 -21.25 Q-2.2 -21.45 -1.5 -21.8 L-1.45 -21.8 -1.35 -21.9 -1.1 -22.05 -0.95 -22.0 -0.75 -21.85 -0.7 -21.85 -0.65 -21.8 -0.55 -21.75 0.0 -21.55 0.05 -21.55 0.45 -21.4 0.45 -21.35 M1.2 -0.25 L1.5 0.4 1.55 0.75 1.6 0.75 1.6 0.8 Q2.0 2.4 2.25 3.05 L2.3 3.1 2.65 3.95 2.65 4.3 2.55 5.0 Q2.55 5.15 2.6 5.3 2.55 5.4 2.55 5.5 L2.55 5.7 2.5 5.9 2.45 5.9 Q2.4 6.05 2.4 6.2 2.4 6.35 2.45 6.55 L2.4 6.85 2.4 6.9 Q2.35 7.1 2.35 7.45 L2.35 7.6 Q2.3 7.85 2.35 8.05 L2.35 8.1 Q2.45 8.35 2.6 8.5 L2.65 8.6 2.7 8.8 2.75 9.05 2.85 9.4 2.9 9.45 3.15 9.9 3.25 10.35 2.7 11.35 Q2.45 11.8 2.1 12.0 0.65 12.55 0.25 13.8 L-1.15 13.15 -1.4 12.9 -1.45 12.9 -1.9 12.55 -1.9 12.4 Q-1.8 12.15 -1.85 11.9 L-1.85 11.85 -1.9 11.4 Q-2.05 10.55 -2.6 9.2 L-2.65 9.2 Q-2.7 9.0 -3.4 8.15 L-3.55 8.0 Q-4.0 7.2 -4.5 7.0 L-4.7 6.7 -4.75 6.6 -5.0 6.3 Q-5.1 6.2 -5.2 6.1 L-5.35 6.0 -5.4 5.95 -5.4 5.9 Q-5.35 5.75 -5.35 5.65 -5.35 5.45 -5.2 5.15 L-5.15 5.1 -5.0 4.7 -5.0 4.65 Q-4.85 4.35 -4.95 4.05 L-4.95 3.95 -4.75 3.65 -4.4 3.1 -4.4 3.0 Q-4.25 2.8 -4.05 2.1 L-4.0 2.05 Q-4.1 4.1 -3.9 4.7 L-3.9 4.75 -3.85 4.8 -3.7 5.2 Q-3.65 5.35 -3.65 5.6 L-3.65 5.65 Q-3.65 5.8 -3.6 5.95 L-3.6 6.0 -3.35 6.25 -3.35 6.3 Q-3.0 6.6 -2.55 6.7 L-1.85 6.75 Q-1.55 6.75 -1.3 6.6 L-1.3 6.55 Q-1.1 6.4 -1.0 6.15 -0.95 5.85 -1.05 5.6 L-1.05 5.55 -1.3 4.95 Q-1.6 4.0 -1.65 3.5 -1.65 3.05 -1.45 2.8 L-1.4 2.75 -1.35 2.65 Q-1.2 2.35 -0.85 2.05 L-0.6 1.8 -0.55 1.8 -0.5 1.75 Q-0.25 1.5 -0.1 1.4 L-0.05 1.4 0.15 1.25 0.2 1.25 Q0.45 1.0 0.6 0.9 0.85 0.75 0.95 0.5 1.05 0.2 0.95 -0.1 L0.9 -0.15 0.9 -0.5 1.15 -0.35 1.2 -0.25 M-2.55 -21.2 L-2.55 -21.2 M-2.25 -10.85 L-2.25 -10.85 M-2.1 -10.65 L-2.1 -10.6 -2.15 -10.65 -2.1 -10.65 M-5.3 -8.3 L-5.25 -8.3 -5.2 -8.15 -5.25 -8.15 -5.3 -8.3 M-2.85 -4.85 L-2.85 -4.8 -3.0 -4.1 Q-2.95 -3.5 -3.05 -2.3 L-3.25 -2.05 -3.3 -2.0 -3.25 -1.95 -3.25 -1.9 -3.3 -1.85 -3.3 -1.9 -3.35 -1.7 -3.35 -1.6 -3.4 -1.5 -3.45 -1.65 -3.5 -1.9 Q-3.5 -2.3 -3.45 -2.55 -3.45 -2.7 -3.4 -2.85 L-3.35 -3.15 -3.35 -3.45 -3.4 -3.6 -3.45 -3.65 -3.45 -3.7 -3.65 -4.4 Q-3.95 -4.85 -4.0 -5.15 -4.05 -5.2 -3.9 -5.2 -3.3 -4.7 -3.25 -4.5 L-3.2 -4.5 -3.2 -4.55 -2.9 -4.9 -2.85 -4.85 M-3.45 -0.45 Q-3.3 -0.1 -3.45 0.25 L-3.75 0.9 -3.85 0.95 Q-4.0 0.85 -4.0 0.6 -4.0 0.3 -3.75 -0.1 L-3.45 -0.45 M2.65 5.15 L2.9 5.3 2.6 5.25 2.65 5.15" fill="#00ffff" fill-opacity="0.5019608" fill-rule="evenodd" stroke="none"/>
      <path d="M0.55 1.1 L0.75 1.2 0.95 1.2 Q1.25 1.25 1.55 1.4 2.05 1.65 2.15 2.0 1.95 1.8 1.7 1.65 1.0 1.3 0.4 1.3 L0.2 1.3 Q0.15 1.3 0.15 1.4 L0.1 1.4 0.1 1.45 Q0.45 1.7 1.15 2.0 1.35 2.1 1.55 2.35 2.05 2.85 1.95 3.4 L1.85 3.5 1.85 3.35 1.75 3.5 1.7 3.5 Q1.6 3.5 1.55 3.65 1.3 4.1 1.3 5.95 1.3 6.05 1.45 6.45 L1.6 7.0 1.65 7.25 1.65 7.3 Q1.7 7.45 1.8 7.55 1.85 7.6 2.0 7.6 2.15 7.6 2.15 7.45 L2.2 7.4 Q2.3 7.3 2.4 7.3 2.55 7.3 2.4 7.3 L2.35 7.5 2.5 7.5 Q2.5 7.65 2.35 8.0 L2.25 8.25 2.25 8.4 Q2.1 9.0 1.7 9.25 L1.65 9.25 Q1.65 9.15 1.65 9.0 L1.65 9.0 1.4 9.15 1.35 9.1 1.45 9.05 Q1.5 9.0 1.5 8.9 L1.5 8.55 1.35 8.2 1.4 8.4 1.1 7.75 Q1.25 7.5 1.1 7.0 1.0 6.6 0.8 6.3 0.6 5.95 0.35 5.95 L0.1 6.0 0.05 5.75 0.0 5.65 0.05 5.7 0.05 5.65 -0.05 5.45 -0.3 5.05 -0.35 5.2 -0.5 5.0 -0.6 4.95 Q-0.65 5.65 -0.75 5.85 L-0.85 6.0 Q-0.9 6.25 -1.05 6.5 L-1.1 6.6 -1.2 7.0 -1.2 7.15 -1.15 7.05 -1.15 7.15 Q-1.15 7.2 -1.05 7.2 -0.95 7.2 -0.95 7.15 L-0.95 7.1 Q-0.95 7.5 -1.0 7.6 L-1.0 7.65 -0.95 7.75 -0.8 7.6 Q-0.8 7.4 -0.75 7.4 L-0.75 7.55 -0.7 7.55 -0.6 7.75 -0.55 7.75 -0.55 7.7 -0.3 7.7 -0.35 7.75 -0.4 7.9 -0.3 8.15 -0.25 8.15 -0.15 8.1 Q0.05 8.1 -0.05 8.2 L-0.05 8.25 0.0 8.3 0.0 8.35 0.05 8.35 0.5 8.8 Q0.65 8.9 0.75 8.9 0.85 8.9 0.85 9.1 L0.95 9.5 1.15 9.5 Q1.25 9.8 1.15 10.05 L1.0 10.3 0.9 10.4 0.85 10.5 0.8 10.5 Q0.55 10.3 0.55 10.1 0.55 9.85 0.6 9.7 L0.7 9.55 0.55 9.5 Q0.4 9.45 0.5 9.25 L0.3 9.0 Q0.15 8.85 0.1 8.85 L0.0 9.0 -0.05 8.95 -0.1 8.65 -0.1 8.6 -0.2 8.6 Q-0.2 8.7 -0.3 8.8 L-0.45 8.5 Q-0.55 8.5 -0.65 8.3 -0.7 8.25 -0.8 8.25 -0.85 8.25 -1.0 8.05 L-1.1 7.95 -1.15 7.85 Q-1.2 7.8 -1.3 7.75 L-1.3 7.5 -1.35 7.45 Q-1.4 7.65 -1.45 7.65 L-1.45 7.6 -1.4 7.1 -1.3 6.9 -1.3 6.85 -1.35 6.85 Q-1.4 6.95 -1.4 6.75 L-1.25 6.45 Q-1.25 6.25 -1.1 6.05 L-1.1 6.0 -1.0 5.8 -0.9 5.2 -0.85 5.0 -0.9 4.65 -0.9 4.4 -0.95 3.95 -1.1 3.55 -1.2 3.15 -1.35 3.25 -1.4 3.2 -1.55 3.55 -1.6 3.4 Q-1.6 3.0 -1.3 2.5 L-1.1 2.25 -1.1 2.2 -1.0 2.0 -1.05 2.0 Q-1.15 2.0 -1.35 2.05 L-1.45 2.1 -1.55 2.2 -1.7 2.3 -1.8 2.4 -1.95 2.65 -1.95 2.6 -2.15 2.85 -2.2 2.85 Q-2.05 2.5 -1.8 2.2 L-1.8 2.15 Q-1.8 2.05 -1.6 1.95 L-1.2 1.65 -1.1 1.6 -0.8 1.4 Q-0.45 1.15 -0.35 0.95 L-0.3 1.0 -0.15 1.0 0.6 1.15 0.55 1.1 M0.3 6.1 L0.75 6.65 Q1.05 7.1 0.95 7.6 L1.0 7.7 0.95 7.9 0.85 7.9 0.85 7.75 Q0.8 7.65 0.8 7.3 0.75 7.5 0.7 7.5 L0.65 7.35 0.55 7.25 0.45 6.8 Q0.4 6.6 0.3 6.6 L0.2 6.55 0.25 6.55 0.2 6.15 0.3 6.1 M2.45 6.4 Q2.55 6.5 2.55 6.6 L2.5 6.85 2.35 7.05 2.3 7.05 Q2.25 6.7 2.25 6.4 L2.25 6.3 2.3 6.2 2.45 6.4 M0.95 9.7 L0.95 9.7 M1.4 11.05 Q1.4 11.5 0.9 11.95 0.45 12.4 0.15 12.4 L0.75 11.8 Q1.2 11.35 1.4 11.05 M-2.8 2.8 L-2.75 2.75 Q-2.7 3.25 -2.45 3.75 -2.25 4.2 -2.3 4.65 L-2.35 4.7 -2.45 5.0 Q-2.45 5.25 -2.4 5.5 L-2.3 5.75 -2.3 5.95 -2.5 6.15 -2.65 6.25 -2.7 6.2 -2.85 6.15 -3.0 6.15 Q-3.15 6.05 -3.3 5.8 L-3.25 5.7 -3.15 5.85 -3.05 5.9 -3.0 5.9 -2.85 5.75 -2.85 5.4 -3.0 5.2 -3.05 5.05 -3.0 5.0 Q-3.0 5.05 -2.95 5.05 -2.85 5.05 -2.85 5.0 L-2.75 4.7 -2.6 4.3 -2.6 3.95 -2.7 3.55 -2.75 3.4 -2.8 2.8 M-4.55 3.05 L-4.25 2.6 -4.25 2.65 Q-4.45 3.45 -4.6 3.55 L-5.05 3.55 Q-5.25 3.55 -5.35 3.8 -5.5 4.05 -5.6 4.05 L-5.7 4.05 -5.75 3.9 -5.75 3.75 -5.6 3.85 Q-5.5 3.85 -5.45 3.75 L-5.3 3.55 Q-5.25 3.5 -5.1 3.45 L-4.9 3.4 Q-4.75 3.3 -4.55 3.05 M-3.85 3.2 L-3.8 3.2 Q-3.8 3.4 -4.05 3.55 L-4.1 3.55 -4.0 3.4 -3.85 3.2 M-3.6 2.55 L-3.6 2.5 Q-3.35 2.65 -3.55 2.85 L-3.6 2.8 -3.55 2.65 Q-3.55 2.6 -3.6 2.55 M-4.25 4.75 L-4.1 4.8 -4.05 4.75 -4.05 4.7 Q-4.0 4.75 -4.0 5.1 -4.45 5.7 -4.45 6.1 L-4.4 6.2 -4.3 6.3 -4.3 6.55 Q-4.4 6.65 -4.65 6.65 L-4.8 6.65 -4.8 6.6 -4.65 6.55 -4.55 6.4 -4.5 6.35 -4.45 6.0 Q-4.4 5.6 -4.3 5.4 L-4.15 5.2 Q-4.15 4.95 -4.25 4.85 L-4.25 4.75 M-4.45 6.3 L-4.45 6.3 M-4.35 6.55 L-4.35 6.55 M-4.3 6.5 L-4.3 6.5 M-0.5 8.05 L-0.45 8.0 -0.5 8.0 -0.5 8.05 M-1.5 10.3 L-1.1 11.25 -1.1 11.5 Q-1.25 11.65 -1.6 11.75 -1.9 11.85 -2.05 11.85 L-2.3 11.85 Q-2.45 11.8 -2.6 11.55 L-2.3 11.6 -2.25 11.6 -2.25 11.45 Q-2.25 11.35 -2.35 10.95 L-2.5 10.3 -2.25 10.25 -2.2 10.1 Q-2.2 9.8 -2.25 9.6 L-2.35 9.4 -2.25 9.25 Q-1.8 9.5 -1.5 10.3 M-0.65 9.05 L-0.55 9.15 -0.6 9.25 -0.65 9.05 M-0.3 9.7 L-0.25 9.95 -0.05 10.1 Q0.05 10.2 -0.05 10.5 -0.05 10.8 -0.15 10.95 L-0.4 11.2 Q-0.5 11.15 -0.45 11.0 -0.4 10.65 -0.4 10.45 -0.4 10.35 -0.45 10.25 L-0.55 10.05 Q-0.55 9.8 -0.65 9.55 -0.8 9.3 -0.85 9.05 -0.55 9.25 -0.4 9.45 L-0.3 9.7 M-3.35 11.65 L-2.85 12.0 -2.4 12.35 -2.55 12.35 Q-2.6 12.35 -2.95 12.1 -3.25 11.85 -3.35 11.65 M-1.0 12.1 Q-0.95 12.15 -0.9 12.25 -0.9 12.4 -1.0 12.45 L-1.15 12.5 -1.3 12.5 Q-1.35 12.4 -1.35 12.3 -1.15 12.3 -1.0 12.1" fill="#ffffff" fill-rule="evenodd" stroke="none"/>
      <path d="M3.25 -17.7 Q3.4 -17.6 3.5 -17.45 3.6 -17.2 3.5 -17.1 L3.45 -16.75 3.45 -16.55 3.4 -16.35 3.4 -16.4 Q3.35 -16.8 3.25 -17.05 3.2 -17.25 3.1 -17.4 L3.1 -17.7 3.25 -17.7 M0.15 -19.45 L0.35 -19.15 Q0.4 -18.95 0.35 -18.65 L0.2 -18.7 Q0.15 -18.7 0.1 -18.65 L0.1 -18.55 0.05 -18.55 Q0.0 -18.65 0.05 -18.65 -0.1 -19.05 -0.35 -19.3 L-0.8 -19.65 Q-1.1 -19.85 -1.6 -19.85 L-2.0 -19.75 -2.3 -19.65 -2.2 -19.65 -2.7 -19.55 Q-3.0 -19.45 -3.2 -19.05 L-3.2 -19.0 -3.25 -19.0 -3.3 -19.05 -3.35 -19.15 Q-3.45 -19.2 -3.55 -19.3 L-3.7 -19.4 -3.85 -19.45 -4.0 -19.65 Q-4.0 -20.0 -3.8 -20.3 -3.7 -20.45 -3.5 -20.6 L-3.45 -20.55 -3.5 -20.5 -3.5 -20.55 -3.35 -20.55 Q-3.2 -20.7 -2.95 -20.75 L-2.45 -20.95 -2.45 -20.6 Q-2.45 -20.5 -2.3 -20.45 -2.2 -20.35 -2.15 -20.35 -2.05 -20.35 -1.9 -20.45 L-1.65 -20.55 -1.15 -20.6 Q-0.7 -20.6 -0.6 -20.45 L-0.4 -20.15 Q-0.25 -19.95 -0.1 -19.85 L-0.1 -19.75 Q0.0 -19.75 0.05 -19.7 L0.15 -19.45 M1.3 -21.15 Q1.6 -21.05 1.75 -20.8 2.05 -20.15 2.35 -19.05 L2.35 -18.45 Q2.3 -18.35 2.15 -18.3 L1.85 -18.2 1.5 -18.2 1.45 -18.25 1.55 -18.45 Q1.65 -18.55 1.65 -18.65 1.65 -20.0 0.55 -20.7 -0.15 -21.2 -0.7 -21.2 L-1.0 -21.15 -1.25 -21.1 -1.4 -21.1 Q-1.5 -21.15 -1.5 -21.3 L-1.9 -21.5 Q-2.15 -21.6 -2.3 -21.6 L-2.5 -21.5 -2.65 -21.45 -2.7 -21.45 -2.7 -21.5 Q-2.7 -21.6 -2.35 -21.7 L-1.9 -21.75 -1.15 -22.0 -0.75 -21.75 Q-0.4 -21.5 -0.2 -21.5 0.1 -21.45 0.8 -21.2 L1.3 -21.15 M0.9 -16.65 L0.75 -16.35 Q0.65 -16.2 0.65 -16.05 L0.75 -15.8 0.9 -15.5 0.9 -15.2 Q0.8 -15.15 0.7 -15.0 L0.5 -14.8 0.4 -14.6 0.5 -14.85 0.5 -15.0 Q0.5 -16.0 0.25 -16.5 -0.05 -17.15 -0.85 -17.45 L-0.9 -17.45 -0.95 -17.5 -1.0 -17.5 -1.0 -17.55 -0.9 -17.55 -0.75 -17.65 -0.3 -17.6 0.0 -17.55 0.3 -17.6 0.6 -17.7 Q0.7 -17.7 0.75 -17.6 0.8 -17.2 0.9 -17.05 1.0 -16.95 0.95 -16.7 L0.9 -16.65 M2.15 -15.2 Q2.35 -15.2 2.4 -15.05 L2.6 -14.75 Q2.75 -14.55 2.7 -14.4 2.5 -14.0 2.5 -13.85 L2.5 -13.8 2.4 -13.8 Q2.35 -13.8 2.4 -13.8 L2.4 -13.85 2.45 -13.85 2.5 -14.1 2.45 -13.95 2.4 -14.1 2.5 -14.3 Q2.5 -14.55 2.2 -14.75 1.95 -14.95 1.85 -14.95 1.75 -14.95 1.5 -14.75 L1.45 -14.65 Q1.4 -14.95 1.55 -15.0 L1.85 -15.15 1.85 -15.2 2.15 -15.2 M2.4 -12.7 L2.45 -12.75 2.8 -12.35 Q3.0 -12.15 2.95 -11.85 2.95 -11.6 2.75 -11.4 L2.7 -11.4 2.7 -11.45 2.75 -11.5 2.75 -11.7 2.55 -11.9 2.45 -12.05 Q2.45 -12.5 2.4 -12.55 L2.4 -12.7 M0.55 -7.1 L0.45 -7.2 0.55 -7.2 Q0.55 -7.15 0.55 -7.1 M1.85 -8.15 L2.3 -7.7 2.15 -7.5 2.1 -7.3 Q2.1 -7.2 2.05 -7.15 L1.9 -7.1 1.9 -7.15 2.05 -7.35 2.1 -7.6 Q2.1 -7.85 1.95 -7.9 L1.75 -8.05 1.85 -8.15 M3.0 -9.4 L2.95 -9.45 3.05 -9.45 3.15 -9.5 Q3.25 -9.5 3.7 -9.15 L3.6 -8.45 3.35 -8.2 3.35 -8.35 Q3.35 -8.55 3.5 -8.75 3.3 -9.4 3.05 -9.4 L3.0 -9.4 M3.4 -7.15 Q3.25 -6.85 3.1 -6.7 L3.0 -6.75 2.9 -6.85 Q2.85 -6.85 2.85 -6.9 L2.8 -6.95 Q3.1 -7.0 3.25 -7.15 3.3 -7.35 3.25 -7.45 L3.3 -7.6 3.4 -7.4 3.35 -7.35 Q3.45 -7.2 3.4 -7.15 M3.35 -7.2 L3.35 -7.2 M2.45 -6.2 Q2.65 -6.0 2.55 -5.9 2.45 -5.75 2.3 -5.4 2.2 -5.25 2.05 -5.25 L1.95 -5.25 1.95 -5.3 2.2 -5.45 2.25 -5.7 2.3 -5.9 2.25 -6.2 2.15 -6.3 2.15 -6.4 2.2 -6.4 Q2.3 -6.4 2.45 -6.2 M0.75 -6.95 L0.8 -6.95 Q1.0 -6.95 1.0 -6.75 L0.9 -6.45 0.85 -6.35 0.85 -6.55 0.95 -6.7 0.75 -6.95 M0.9 -5.95 Q1.0 -5.95 1.0 -5.8 L0.9 -5.9 0.85 -5.9 Q0.85 -5.95 0.9 -5.95 M1.35 -5.5 Q1.4 -5.4 1.25 -4.95 L1.15 -4.85 1.1 -4.85 1.05 -4.9 1.15 -4.95 1.25 -5.15 1.25 -5.45 1.1 -5.65 1.15 -5.65 Q1.2 -5.55 1.35 -5.5 M1.55 -2.15 Q1.5 -2.2 1.5 -2.25 L1.5 -2.35 1.6 -2.45 1.6 -2.2 1.55 -2.15 M1.35 -3.0 L1.35 -2.95 Q1.3 -3.0 1.25 -3.1 L1.3 -3.1 Q1.4 -3.1 1.35 -3.0 M-5.9 -15.1 L-5.85 -15.2 Q-5.75 -15.3 -5.75 -15.35 -5.75 -15.7 -5.8 -16.2 -5.8 -16.7 -5.7 -16.9 -5.55 -17.1 -5.15 -17.45 -5.05 -17.55 -4.8 -17.6 -4.55 -17.75 -4.45 -18.2 -4.4 -18.0 -4.4 -17.85 L-4.2 -17.95 Q-3.8 -18.0 -3.6 -18.1 L-3.7 -18.2 -3.7 -18.35 -3.65 -18.4 -3.6 -18.4 -3.4 -18.3 Q-3.25 -18.2 -3.2 -18.2 -2.9 -18.2 -2.6 -18.45 -2.3 -18.7 -2.1 -18.7 L-2.05 -18.75 -1.45 -18.8 -1.05 -18.75 Q-0.7 -18.65 -0.7 -18.45 L-0.75 -18.4 -0.65 -18.4 Q-0.7 -18.3 -0.9 -18.25 -1.1 -18.25 -1.2 -18.2 L-1.3 -18.15 -1.5 -17.95 -1.5 -17.9 Q-1.6 -17.65 -1.6 -17.0 -1.6 -16.45 -1.55 -16.4 L-1.1 -16.05 Q-0.9 -15.95 -0.8 -15.9 -0.65 -15.8 -0.65 -15.45 L-0.75 -15.35 -0.7 -15.15 -0.9 -15.45 Q-1.05 -15.7 -1.15 -15.7 L-1.25 -15.65 -1.25 -15.6 Q-1.2 -15.5 -1.25 -15.25 L-1.05 -14.65 Q-0.95 -14.3 -0.9 -13.7 -0.95 -12.95 -1.05 -12.75 L-1.2 -12.5 Q-1.25 -12.25 -1.3 -11.9 L-1.3 -11.85 -1.35 -11.85 Q-1.4 -11.65 -1.5 -11.45 -1.55 -11.3 -1.7 -11.1 -1.95 -10.9 -2.15 -10.75 L-2.2 -10.75 -2.35 -10.65 Q-2.45 -10.75 -2.65 -10.75 -2.75 -10.75 -2.95 -10.7 -3.25 -10.6 -3.3 -10.4 L-3.6 -10.25 -3.65 -10.25 -3.85 -10.2 -4.0 -10.1 -4.15 -10.05 -4.5 -9.95 -4.55 -9.95 -4.8 -10.15 -5.1 -10.4 -5.35 -10.5 -5.55 -10.65 -5.6 -10.65 -5.6 -10.7 -5.8 -10.8 -6.05 -11.15 Q-6.35 -11.55 -6.5 -11.95 L-6.45 -12.0 -6.2 -11.75 Q-6.15 -11.75 -6.05 -11.65 L-6.05 -11.7 -6.0 -11.8 -6.0 -11.85 -5.9 -11.95 -5.85 -12.05 Q-5.85 -12.25 -5.8 -12.45 L-5.85 -12.4 Q-5.95 -12.45 -5.95 -12.55 -5.95 -12.65 -5.8 -13.0 -5.7 -13.3 -5.6 -13.35 -5.55 -13.25 -5.65 -12.9 L-5.55 -12.95 -5.5 -12.95 -5.45 -13.0 -5.3 -12.85 -5.2 -12.65 -4.95 -12.3 -4.85 -12.25 -4.7 -12.4 -4.65 -12.6 Q-4.6 -12.8 -4.45 -12.9 L-4.25 -13.1 Q-4.1 -13.3 -3.5 -13.6 -3.05 -13.85 -2.75 -14.05 -2.6 -14.15 -2.45 -14.4 -2.45 -14.5 -2.35 -14.6 -2.3 -14.7 -2.3 -14.8 L-2.3 -15.3 Q-2.3 -16.2 -2.0 -17.15 -1.75 -18.1 -1.4 -18.2 -1.2 -18.45 -0.95 -18.45 L-0.85 -18.4 -0.9 -18.5 Q-1.0 -18.6 -1.1 -18.6 -1.4 -18.6 -1.8 -18.45 -2.15 -18.25 -2.5 -18.0 -2.7 -17.85 -2.95 -17.45 L-3.15 -17.05 Q-3.3 -16.75 -3.5 -16.55 L-3.85 -16.25 -3.9 -16.3 -3.8 -16.7 -3.75 -17.05 Q-4.15 -16.5 -4.55 -16.1 L-4.65 -15.95 -4.45 -15.95 -4.4 -15.9 -4.2 -15.95 -4.0 -15.85 Q-3.85 -15.75 -3.85 -15.7 L-4.5 -15.7 -4.5 -15.65 -4.75 -15.55 -4.9 -15.4 -4.95 -15.45 -4.9 -15.55 Q-4.85 -15.75 -4.7 -15.85 L-4.8 -15.8 -4.85 -15.8 -5.25 -15.45 -5.4 -15.25 Q-5.6 -14.6 -5.6 -14.15 L-5.4 -14.7 Q-5.35 -14.55 -5.4 -14.3 L-5.55 -13.85 -5.6 -13.75 Q-5.65 -13.5 -5.8 -13.2 L-5.8 -13.05 -6.05 -12.65 Q-6.05 -13.05 -6.2 -13.3 L-6.15 -13.85 Q-6.05 -14.5 -5.9 -15.0 L-5.9 -15.1 M-1.85 -14.45 Q-2.1 -14.45 -2.2 -14.0 -2.35 -13.25 -2.5 -12.95 -2.65 -12.6 -2.9 -12.45 -3.05 -12.4 -3.2 -12.35 L-3.15 -12.3 -2.85 -12.2 Q-2.8 -12.2 -2.7 -12.1 L-2.6 -12.0 Q-2.1 -12.0 -1.65 -12.55 -1.35 -13.1 -1.35 -13.75 L-1.35 -13.9 -1.45 -14.15 -1.6 -14.3 -1.85 -14.45 M-2.65 -11.55 L-2.75 -11.65 -2.85 -11.7 -2.9 -11.75 -3.0 -11.75 -3.1 -11.95 Q-3.2 -12.1 -3.35 -12.1 L-3.55 -12.15 -3.6 -12.15 Q-3.9 -12.1 -4.25 -11.8 L-4.0 -11.75 -3.8 -11.7 -3.65 -11.7 Q-3.35 -11.65 -3.25 -11.55 -3.2 -11.45 -3.1 -11.45 L-2.9 -11.4 -2.85 -11.4 -2.8 -11.45 -2.7 -11.45 -2.5 -11.6 -2.65 -11.55 M-6.35 -11.7 L-6.35 -11.7 M-6.0 -11.6 L-6.0 -11.65 -6.05 -11.65 -6.0 -11.6" fill="#ffffff" fill-rule="evenodd" stroke="none"/>
    </g>
  </defs>
</svg>
