<?xml version="1.0" encoding="UTF-8" standalone="no"?>
<svg xmlns:ffdec="https://www.free-decompiler.com/flash" xmlns:xlink="http://www.w3.org/1999/xlink" ffdec:objectType="frame" height="43.45px" width="46.95px" xmlns="http://www.w3.org/2000/svg">
  <g transform="matrix(1.0, 0.0, 0.0, 1.0, 0.0, 0.0)">
    <use ffdec:characterId="474" height="43.45" transform="matrix(1.0, 0.0, 0.0, 1.0, 0.0, 0.0)" width="46.95" xlink:href="#shape0"/>
  </g>
  <defs>
    <g id="shape0" transform="matrix(1.0, 0.0, 0.0, 1.0, 0.0, 0.0)">
      <path d="M46.95 31.2 L46.95 31.3 45.8 38.6 45.8 38.65 45.8 38.75 45.2 39.9 45.1 39.95 44.2 40.55 43.9 40.7 28.9 43.45 28.8 43.45 28.6 43.45 28.5 43.45 27.65 43.35 27.6 43.3 19.95 41.05 19.85 41.0 19.7 40.9 19.75 40.95 19.25 40.7 8.7 32.5 8.6 32.45 8.5 32.35 8.45 32.25 8.35 32.15 3.45 26.7 3.35 26.5 3.25 26.45 3.2 26.4 Q2.7 25.95 2.6 25.3 L2.65 25.35 0.2 15.3 0.15 15.2 0.15 15.15 0.0 14.6 0.0 3.7 Q-0.05 2.8 0.6 2.15 L0.85 1.9 Q1.3 1.4 2.05 1.3 L2.15 1.3 2.2 1.3 16.65 0.0 17.5 0.1 17.4 0.05 17.65 0.1 17.75 0.15 31.55 5.05 31.75 5.15 31.8 5.15 31.8 5.2 32.0 5.3 34.95 7.25 35.05 7.35 35.9 8.25 46.05 25.4 46.1 25.7 46.1 25.75 46.25 25.9 46.3 25.95 46.4 26.3 46.95 30.6 46.95 31.2" fill="#ffffff" fill-opacity="0.24705882" fill-rule="evenodd" stroke="none"/>
      <path d="M45.95 26.35 L46.5 30.65 46.5 31.2 45.3 38.55 45.3 38.65 44.75 39.65 43.95 40.1 43.8 40.2 28.8 42.95 28.75 42.95 28.55 42.95 27.8 42.9 27.75 42.9 20.1 40.6 19.95 40.55 19.9 40.55 19.55 40.3 8.95 32.1 8.9 32.1 8.85 32.0 8.7 31.8 3.75 26.3 3.65 26.25 3.6 26.15 3.05 25.2 0.6 15.1 0.55 15.0 0.45 14.55 0.45 3.7 Q0.45 3.0 0.95 2.5 L1.15 2.35 Q1.5 1.9 2.15 1.8 L2.25 1.8 16.7 0.45 17.35 0.5 17.6 0.55 31.35 5.5 31.5 5.55 31.55 5.55 31.65 5.6 31.75 5.65 34.7 7.65 34.75 7.7 34.8 7.75 34.9 7.8 34.85 7.75 35.5 8.5 45.6 25.65 44.85 26.25 44.9 26.25 44.95 26.35 45.1 26.1 45.25 25.95 45.45 25.95 45.75 26.0 45.8 26.05 45.9 26.2 45.95 26.35" fill="#ffffff" fill-opacity="0.7490196" fill-rule="evenodd" stroke="none"/>
      <path d="M45.2 25.9 L45.45 26.35 45.45 26.45 46.05 30.75 46.05 31.15 44.8 38.5 44.8 38.55 44.45 39.3 44.4 39.3 43.75 39.75 43.7 39.75 28.7 42.5 28.6 42.5 28.55 42.5 28.0 42.45 20.25 40.15 20.15 40.1 19.85 39.95 9.25 31.7 9.2 31.7 9.05 31.55 4.05 25.9 3.95 25.75 3.5 25.1 1.05 14.8 1.05 14.85 0.95 14.5 0.95 3.7 Q0.95 3.2 1.3 2.75 L1.4 2.7 Q1.75 2.35 2.2 2.3 L2.3 2.3 16.75 0.95 17.3 1.0 17.45 1.0 31.2 5.95 31.3 6.0 31.45 6.1 31.5 6.1 34.45 8.1 34.6 8.2 35.1 8.7 45.25 25.9 45.2 25.9" fill="#ffffff" fill-opacity="0.7490196" fill-rule="evenodd" stroke="none"/>
      <path d="M44.1 38.95 L44.05 38.95 43.6 39.25 28.6 42.0 28.55 42.0 28.15 41.95 20.45 39.7 20.5 39.7 20.1 39.55 9.5 31.35 9.4 31.2 4.35 25.6 4.3 25.5 3.95 25.0 1.45 14.7 1.4 14.5 1.4 3.7 Q1.4 3.3 1.7 3.1 1.95 2.8 2.3 2.75 L16.8 1.4 17.2 1.45 31.05 6.35 31.2 6.45 34.2 8.5 34.3 8.55 34.7 8.95 44.8 26.15 44.95 26.45 45.55 30.8 45.55 31.05 44.35 38.45 44.1 38.95" fill="#003254" fill-rule="evenodd" stroke="none"/>
      <path d="M16.6 4.35 L16.5 4.35 16.5 4.3 16.65 4.35 16.6 4.35" fill="#b86def" fill-rule="evenodd" stroke="none"/>
      <path d="M16.45 23.7 L16.5 23.85 16.45 23.75 16.4 23.7 16.45 23.7" fill="#c256e7" fill-rule="evenodd" stroke="none"/>
      <path d="M12.8 3.85 L12.9 3.9 12.85 3.9 12.8 3.85" fill="#f1edfc" fill-rule="evenodd" stroke="none"/>
      <path d="M43.3 26.3 L43.35 26.25 43.2 25.95 43.2 25.9 43.15 25.8 42.9 25.0 42.9 24.95 43.25 25.1 43.85 26.7 43.85 26.75 44.35 26.7 44.75 31.8 44.4 33.2 Q44.35 34.8 43.75 37.45 L43.45 37.45 43.45 36.85 43.45 36.8 43.45 36.75 43.5 36.5 43.7 35.4 43.9 34.2 44.0 33.3 44.15 31.55 43.8 28.25 43.3 26.3 M29.0 6.7 L28.2 6.4 28.15 6.5 28.1 6.35 28.05 6.3 27.7 6.2 26.5 5.85 26.4 5.8 25.5 5.3 Q23.85 4.75 23.7 4.45 L23.75 4.45 24.05 4.5 23.35 4.2 23.4 4.2 22.9 4.0 22.95 4.0 24.75 4.6 26.15 5.2 30.65 6.95 30.85 7.15 30.45 7.05 30.45 7.15 29.8 6.9 29.15 6.75 29.0 6.7 M42.8 37.1 L43.2 36.75 43.3 36.85 43.35 36.9 43.35 36.95 42.65 37.7 42.55 37.55 42.0 38.05 41.75 38.05 42.05 37.75 42.45 37.45 42.55 37.35 42.6 37.35 42.8 37.1 M5.6 24.9 L5.9 25.7 6.45 26.85 6.4 26.95 Q5.35 25.45 4.15 22.3 L4.2 22.25 4.95 23.2 4.95 23.3 5.45 24.55 5.6 24.9 M3.0 16.5 L3.1 17.05 3.25 17.45 3.25 17.9 3.35 18.35 Q3.1 18.15 2.95 17.45 L2.7 16.25 2.5 15.2 2.3 13.5 2.35 13.35 2.6 14.2 2.7 14.4 2.75 14.65 2.75 14.85 2.8 15.75 2.85 16.05 3.0 16.5 M3.0 4.15 L2.5 4.45 Q2.35 4.55 2.35 4.3 2.35 4.1 2.7 3.75 3.05 3.4 3.3 3.4 L3.4 3.45 3.45 3.6 3.05 4.1 3.0 4.1 3.0 4.15 M6.45 3.45 L4.4 3.45 4.4 3.4 4.2 3.4 3.35 3.25 4.5 3.2 5.25 3.05 5.25 3.0 5.9 2.8 9.5 2.8 9.85 2.65 9.9 2.6 10.05 2.6 10.2 2.55 14.25 2.45 17.75 2.35 17.85 2.55 18.15 2.6 18.15 2.75 17.4 2.8 17.65 2.9 17.4 2.95 16.75 2.95 11.4 3.2 11.3 3.2 11.2 3.2 11.15 3.25 10.65 3.25 10.35 3.25 10.2 3.25 9.75 3.25 8.15 3.35 7.0 3.45 6.45 3.45" fill="#540e56" fill-rule="evenodd" stroke="none"/>
      <path d="M43.3 36.85 L43.45 36.8 43.45 36.85 43.35 36.95 43.35 36.9 43.3 36.85" fill="#dfd6f8" fill-rule="evenodd" stroke="none"/>
      <path d="M35.65 22.7 L36.25 23.4 36.7 24.25 36.8 24.35 37.7 26.0 39.4 29.5 40.95 33.05 42.45 36.45 42.7 37.0 42.75 37.0 42.8 37.1 42.75 37.1 42.6 37.35 42.55 37.35 42.45 37.45 42.05 37.75 41.65 38.0 41.5 38.15 41.05 37.95 41.0 37.9 40.9 37.9 40.85 37.85 38.55 37.0 37.1 36.35 36.35 36.1 35.85 35.85 33.15 34.6 30.0 33.75 27.45 33.15 26.7 32.95 26.5 32.95 25.9 32.8 25.55 32.6 25.25 32.4 24.8 32.0 23.85 31.4 Q23.1 31.1 21.95 30.25 L21.75 30.1 20.95 29.15 20.7 28.65 18.9 26.35 16.8 23.45 16.7 23.45 16.45 22.95 16.05 20.5 15.95 20.15 15.2 17.05 15.05 16.5 13.15 10.55 13.2 10.45 13.3 10.5 13.35 10.5 13.45 10.6 13.7 10.65 14.6 10.65 18.3 11.05 21.35 11.35 21.9 11.45 21.95 11.45 22.7 11.6 23.65 11.75 23.8 11.85 23.65 11.6 23.7 11.6 27.75 15.25 28.05 15.45 31.05 18.2 32.4 19.3 33.85 20.55 33.9 20.6 34.6 21.3 34.6 21.35 34.85 21.7 34.9 21.75 34.95 21.85 35.1 22.1 35.5 22.5 35.65 22.7" fill="#f4ffff" fill-rule="evenodd" stroke="none"/>
      <path d="M43.3 26.3 L43.25 26.3 43.25 26.25 43.2 26.2 42.6 25.9 40.1 24.8 Q38.9 24.25 38.3 24.05 L36.65 23.05 36.55 23.05 36.1 22.7 35.85 22.45 34.65 20.5 34.45 20.2 32.5 16.25 32.3 15.95 31.5 14.15 30.9 12.35 30.15 10.65 29.35 9.0 28.9 7.75 Q28.15 6.85 28.15 6.55 L28.15 6.5 28.2 6.4 29.0 6.7 29.05 6.75 30.9 7.45 30.9 7.5 31.7 8.05 32.8 8.95 33.75 9.8 34.7 11.05 34.95 11.65 35.1 11.95 35.65 13.05 35.85 13.7 36.15 14.0 37.4 16.35 40.7 21.85 43.0 25.7 43.0 25.75 43.05 25.75 43.15 25.9 43.2 25.9 43.2 25.95 43.35 26.25 43.3 26.3" fill="#ffffff" fill-rule="evenodd" stroke="none"/>
      <path d="M28.15 6.5 L28.15 6.55 Q28.15 6.85 28.9 7.75 L29.35 9.0 30.15 10.65 30.9 12.35 31.5 14.15 32.3 15.95 32.5 16.25 34.45 20.2 34.65 20.5 35.85 22.45 36.1 22.7 35.75 22.6 35.75 22.65 35.7 22.65 35.65 22.7 35.5 22.5 35.1 22.1 34.95 21.85 34.9 21.75 34.85 21.7 34.6 21.35 34.6 21.3 33.9 20.6 33.85 20.55 32.4 19.3 31.05 18.2 28.05 15.45 27.75 15.25 23.7 11.6 23.65 11.6 21.4 8.95 21.3 8.85 19.95 7.4 19.9 7.3 19.45 6.85 19.3 6.7 17.1 4.5 17.0 4.4 17.1 4.2 17.1 4.15 17.3 3.65 17.4 3.0 Q18.35 2.9 21.25 4.0 L24.8 5.1 26.4 5.8 26.5 5.85 27.7 6.2 28.05 6.3 28.1 6.35 28.15 6.5 M27.65 6.9 L27.7 6.95 27.75 6.95 27.65 6.9" fill="#66f4f3" fill-rule="evenodd" stroke="none"/>
      <path d="M41.5 38.15 L41.5 38.25 41.1 38.25 40.05 38.8 35.9 39.4 35.85 39.45 34.45 39.8 29.6 40.75 28.4 40.75 28.2 40.65 28.2 40.45 27.95 40.45 27.75 39.5 27.75 39.45 27.6 39.05 27.6 38.95 27.45 38.45 27.4 37.95 27.3 37.7 27.25 37.5 26.6 35.45 26.3 34.55 25.95 33.1 26.05 33.05 26.05 33.0 25.9 32.8 26.5 32.95 26.7 32.95 27.45 33.15 30.0 33.75 33.15 34.6 35.85 35.85 36.35 36.1 37.1 36.35 38.55 37.0 40.85 37.85 40.9 37.9 41.0 37.9 41.05 37.95 41.5 38.15 M17.4 2.95 L17.3 3.65 17.1 4.15 17.1 4.2 17.0 4.4 16.95 4.45 16.75 4.4 16.65 4.35 16.5 4.3 16.5 4.35 16.3 4.3 16.2 4.25 15.8 4.1 15.15 4.0 11.4 3.2 16.75 2.95 17.4 2.95" fill="#00c0dc" fill-rule="evenodd" stroke="none"/>
      <path d="M3.45 3.6 L3.5 3.55 6.35 3.55 6.45 3.45 7.0 3.45 8.15 3.35 9.65 3.35 9.75 3.25 10.2 3.25 10.35 3.25 10.65 3.25 11.2 3.3 11.3 3.2 11.4 3.2 15.15 4.0 15.8 4.1 16.2 4.25 16.3 4.3 16.5 4.35 16.6 4.35 16.65 4.4 16.75 4.4 16.95 4.45 17.0 4.4 17.1 4.5 19.3 6.7 19.55 7.0 19.9 7.3 19.95 7.4 21.3 8.85 21.4 8.95 23.65 11.6 23.8 11.85 23.65 11.75 22.7 11.6 21.95 11.45 21.9 11.45 21.35 11.35 18.3 11.05 14.6 10.65 13.7 10.65 13.45 10.6 13.35 10.5 13.2 10.4 13.05 10.4 11.0 8.85 Q9.1 7.45 7.95 6.95 L5.45 5.3 Q4.05 4.4 3.05 4.1 L3.45 3.6 M12.8 3.85 L12.85 3.9 12.9 3.9 12.8 3.85" fill="#0075b2" fill-rule="evenodd" stroke="none"/>
      <path d="M2.75 13.85 L2.7 13.75 2.75 13.75 2.7 13.55 2.65 8.65 2.75 8.55 2.7 7.75 2.7 7.5 2.65 5.4 2.7 4.8 2.85 4.6 2.8 4.55 Q2.8 4.35 3.1 4.25 L3.05 4.15 3.0 4.15 3.0 4.1 3.05 4.1 Q4.05 4.4 5.45 5.3 L7.95 6.95 Q9.1 7.45 11.0 8.85 L13.05 10.4 13.2 10.4 13.35 10.5 13.3 10.5 13.2 10.45 13.15 10.55 15.05 16.5 15.2 17.05 15.95 20.15 16.05 20.5 16.45 22.95 16.7 23.45 16.6 23.45 14.25 22.0 Q13.45 21.6 12.65 21.15 L12.45 21.0 12.3 20.9 12.0 20.8 11.35 20.45 11.0 20.25 10.1 19.65 9.25 19.2 9.15 19.15 9.15 19.05 8.85 18.95 8.7 18.65 6.75 17.45 6.6 17.3 6.2 16.95 4.55 15.6 3.55 14.75 3.25 14.5 3.2 14.5 2.75 13.85 M3.15 4.5 L3.3 4.5 3.1 4.25 3.15 4.5" fill="#004973" fill-rule="evenodd" stroke="none"/>
      <path d="M10.3 29.9 L9.45 29.3 8.3 28.0 7.65 27.4 7.6 27.35 7.25 27.05 6.6 26.2 6.45 25.85 5.8 25.1 5.6 24.9 5.45 24.55 4.95 23.3 4.95 23.2 Q4.6 22.55 4.4 21.65 L4.0 19.75 3.0 16.5 2.85 16.05 2.8 15.75 2.75 14.85 2.75 14.65 2.7 14.4 2.65 14.0 2.7 13.85 2.75 13.85 3.2 14.5 3.25 14.5 3.55 14.75 4.55 15.6 6.2 16.95 6.6 17.3 6.75 17.45 8.7 18.65 8.85 18.95 9.15 19.05 9.15 19.15 9.25 19.2 10.1 19.65 11.0 20.25 11.35 20.45 12.0 20.8 12.3 20.9 12.45 21.0 12.65 21.15 Q13.45 21.6 14.25 22.0 L16.6 23.45 16.7 23.45 16.8 23.45 18.9 26.35 20.7 28.65 20.95 29.15 21.75 30.1 21.5 30.1 21.15 30.05 20.2 30.1 16.85 30.2 14.65 30.25 13.85 30.25 12.45 30.3 12.2 30.3 12.1 30.3 11.95 30.25 11.9 30.25 11.55 30.2 11.5 30.25 10.45 30.0 Q10.35 30.1 10.35 29.85 L10.3 29.9 M16.45 23.7 L16.4 23.7 16.45 23.75 16.5 23.85 16.45 23.7" fill="#007592" fill-rule="evenodd" stroke="none"/>
      <path d="M27.6 39.05 L27.75 39.95 27.5 40.3 27.35 40.4 22.65 39.3 Q21.65 39.0 20.75 38.4 L19.2 37.2 16.85 35.3 16.35 34.9 15.95 34.6 14.2 33.4 12.65 32.0 Q11.65 31.6 11.5 31.05 L10.8 30.6 10.2 30.15 10.2 30.1 10.15 30.0 10.2 29.95 10.25 30.0 10.3 29.9 10.35 29.85 Q10.35 30.1 10.45 30.0 L11.5 30.25 11.55 30.2 11.9 30.25 11.95 30.25 12.1 30.3 12.2 30.3 12.45 30.4 13.85 30.25 14.65 30.25 16.7 30.25 16.85 30.2 20.2 30.1 21.15 30.05 21.5 30.1 21.95 30.25 Q23.1 31.1 23.85 31.4 L24.8 32.0 25.25 32.4 25.55 32.6 25.9 32.8 26.05 33.0 26.05 33.05 25.95 33.1 26.3 34.55 26.6 35.45 27.25 37.5 27.3 37.7 27.4 37.95 27.45 38.45 27.6 38.95 27.6 39.05 M11.7 30.5 L11.55 30.45 11.65 30.55 11.7 30.5" fill="#003e61" fill-rule="evenodd" stroke="none"/>
      <path d="M36.1 22.7 L36.55 23.05 36.65 23.05 38.3 24.05 Q38.9 24.25 40.1 24.8 L42.6 25.9 43.2 26.2 43.25 26.25 43.25 26.3 43.3 26.3 43.8 28.25 44.15 31.55 44.0 33.3 43.85 33.4 43.65 35.45 43.45 36.4 43.5 36.5 43.45 36.75 43.45 36.8 43.3 36.85 43.2 36.75 42.8 37.1 42.75 37.0 42.7 37.0 42.45 36.45 40.95 33.05 39.4 29.5 37.7 26.0 36.8 24.35 36.7 24.25 36.25 23.4 35.65 22.7 35.7 22.65 35.75 22.65 35.75 22.6 36.1 22.7" fill="#10d3d1" fill-rule="evenodd" stroke="none"/>
      <path d="M29.9 9.95 L29.85 9.9 29.9 9.8 29.9 9.95" fill="#540e56" fill-rule="evenodd" stroke="none"/>
      <path d="M44.5 26.55 L45.05 30.9 45.05 31.0 43.9 38.4 43.75 38.6 43.5 38.75 28.5 41.5 28.25 41.5 20.6 39.25 20.45 39.2 9.8 31.0 9.75 30.95 4.8 25.3 4.65 25.15 4.6 25.15 4.4 24.9 2.0 14.55 1.95 14.45 1.95 3.7 2.05 3.4 Q2.15 3.25 2.35 3.25 L16.85 1.9 17.05 1.95 30.9 6.85 31.0 6.9 33.95 8.9 34.05 9.0 34.3 9.2 44.45 26.4 44.5 26.55 M43.0 37.9 L44.1 30.95 43.55 26.8 33.55 9.75 33.45 9.7 30.5 7.7 16.85 2.85 2.85 4.1 2.85 14.45 5.3 24.55 5.5 24.7 10.35 30.25 10.4 30.25 20.95 38.35 28.4 40.6 43.0 37.9" fill="#003254" fill-rule="evenodd" stroke="none"/>
    </g>
  </defs>
</svg>
