<?xml version="1.0" encoding="UTF-8" standalone="no"?>
<svg xmlns:ffdec="https://www.free-decompiler.com/flash" xmlns:xlink="http://www.w3.org/1999/xlink" ffdec:objectType="frame" height="1445.15px" width="3405.1px" xmlns="http://www.w3.org/2000/svg">
  <g transform="matrix(1.0, 0.0, 0.0, 1.0, 2922.5, 62.6)">
    <use ffdec:characterId="1515" height="1445.15" transform="matrix(1.0, 0.0, 0.0, 1.0, -2922.5, -62.6)" width="3405.1" xlink:href="#shape0"/>
  </g>
  <defs>
    <g id="shape0" transform="matrix(1.0, 0.0, 0.0, 1.0, 2922.5, 62.6)">
      <path d="M-2780.0 160.0 L-2780.0 1100.0" fill="none" stroke="#ffff00" stroke-linecap="round" stroke-linejoin="round" stroke-width="5.0"/>
      <path d="M160.0 180.0 L-80.0 140.0 -1380.0 140.0 -2600.0 200.0 -2760.0 220.0 -2760.0 880.0 -2060.0 880.0 -1880.0 900.0 -1740.0 940.0 -580.0 940.0 -120.0 840.0 160.0 620.0 160.0 180.0 M480.1 -60.1 L480.1 1380.05" fill="none" stroke="#00ffff" stroke-linecap="round" stroke-linejoin="round" stroke-width="5.0"/>
      <path d="M260.0 840.0 L-160.0 960.0 -940.0 1060.0 -2240.0 1060.0 -2920.0 960.0" fill="none" stroke="#666666" stroke-linecap="round" stroke-linejoin="round" stroke-width="5.0"/>
      <path d="M260.0 160.0 L260.0 1080.0" fill="none" stroke="#ffff00" stroke-linecap="round" stroke-linejoin="round" stroke-width="5.0"/>
    </g>
  </defs>
</svg>
