<?xml version="1.0" encoding="UTF-8" standalone="no"?>
<svg xmlns:ffdec="https://www.free-decompiler.com/flash" xmlns:xlink="http://www.w3.org/1999/xlink" ffdec:objectType="frame" height="905.0px" width="2605.0px" xmlns="http://www.w3.org/2000/svg">
  <g transform="matrix(1.0, 0.0, 0.0, 1.0, 2.5, 782.5)">
    <use ffdec:characterId="204" height="905.0" transform="matrix(1.0, 0.0, 0.0, 1.0, -2.5, -782.5)" width="2605.0" xlink:href="#shape0"/>
  </g>
  <defs>
    <g id="shape0" transform="matrix(1.0, 0.0, 0.0, 1.0, 2.5, 782.5)">
      <path d="M2600.0 20.0 L2600.0 -780.0" fill="none" stroke="#ffff00" stroke-linecap="round" stroke-linejoin="round" stroke-width="5.0"/>
      <path d="M2060.0 -220.0 L2160.0 -180.0 M1480.0 -200.0 L1380.0 -160.0 1200.0 -60.0 1000.0 0.0 M1140.0 -260.0 L1220.0 -260.0" fill="none" stroke="#ff0000" stroke-linecap="round" stroke-linejoin="round" stroke-width="5.0"/>
      <path d="M1000.0 0.0 L1100.0 0.0 1540.0 -20.0 1700.0 -40.0 1800.0 -80.0 1920.0 -80.0 2040.0 -40.0 2540.0 -40.0 2540.0 -780.0 M1000.0 0.0 L640.0 -20.0 380.0 20.0 0.0 20.0" fill="none" stroke="#00ffff" stroke-linecap="round" stroke-linejoin="round" stroke-width="5.0"/>
      <path d="M0.0 120.0 L960.05 120.0 1580.0 20.0 2600.0 20.0" fill="none" stroke="#666666" stroke-linecap="round" stroke-linejoin="round" stroke-width="5.0"/>
    </g>
  </defs>
</svg>
