<?xml version="1.0" encoding="UTF-8" standalone="no"?>
<svg xmlns:ffdec="https://www.free-decompiler.com/flash" xmlns:xlink="http://www.w3.org/1999/xlink" ffdec:objectType="frame" height="469.0px" width="403.9px" xmlns="http://www.w3.org/2000/svg">
  <g transform="matrix(1.0, 0.0, 0.0, 1.0, 197.75, 466.55)">
    <use ffdec:characterId="2567" height="21.0" transform="matrix(7.0, 0.0, 0.0, 7.0, -84.35, -192.85)" width="41.45" xlink:href="#shape0"/>
    <use ffdec:characterId="2566" height="67.0" transform="matrix(7.0, 0.0, 0.0, 7.0, -146.65, -466.55)" width="43.05" xlink:href="#shape1"/>
  </g>
  <defs>
    <g id="shape0" transform="matrix(1.0, 0.0, 0.0, 1.0, 12.05, 27.55)">
      <path d="M20.0 -24.65 Q20.5 -25.05 20.7 -24.5 20.45 -24.3 20.2 -24.1 L19.65 -23.75 19.55 -23.75 Q19.5 -23.75 19.5 -23.95 19.5 -24.05 19.55 -24.15 L19.4 -24.15 19.3 -24.25 Q19.45 -24.35 19.7 -24.35 L20.0 -24.65 M21.35 -22.65 Q21.35 -22.8 21.55 -22.85 L21.95 -22.85 Q21.95 -22.8 22.0 -22.7 L22.05 -22.5 22.05 -22.4 Q22.05 -22.35 21.9 -22.35 L21.6 -22.4 21.4 -22.35 21.35 -22.4 Q21.35 -22.45 21.35 -22.65 M15.2 -26.2 Q14.95 -26.15 14.9 -26.05 L14.8 -25.8 14.75 -25.75 14.75 -25.9 Q14.75 -26.15 15.1 -26.4 15.5 -26.6 15.85 -26.65 L15.9 -26.45 15.95 -26.3 15.95 -26.2 Q15.85 -26.2 15.8 -26.25 15.75 -26.35 15.6 -26.35 L15.45 -26.3 15.45 -26.25 15.2 -26.2 M13.3 -23.95 Q13.2 -23.85 12.9 -23.85 L12.6 -23.85 12.5 -23.9 12.45 -24.0 12.6 -24.05 12.65 -24.05 13.25 -24.0 13.3 -23.95 M14.05 -21.4 Q14.0 -21.25 13.8 -21.2 13.7 -21.25 13.6 -21.35 13.55 -21.45 13.55 -21.6 13.7 -21.75 13.95 -21.65 L14.0 -21.55 14.05 -21.4 M14.35 -17.45 Q14.1 -16.95 13.95 -16.95 14.1 -17.2 14.15 -17.6 14.25 -18.05 14.15 -18.25 L14.2 -18.3 14.5 -18.35 14.55 -18.3 14.6 -18.1 Q14.6 -17.9 14.35 -17.45 M11.2 -18.25 L11.15 -17.95 10.8 -17.8 Q10.65 -17.85 10.65 -17.95 10.6 -18.0 10.6 -18.2 L10.6 -18.4 11.15 -18.5 11.2 -18.25 M8.85 -10.9 L8.65 -10.8 8.45 -10.75 Q8.4 -10.75 8.4 -10.95 8.4 -11.05 8.4 -11.1 L8.2 -11.15 Q8.5 -11.45 8.8 -11.45 9.15 -11.4 9.2 -10.95 L9.05 -10.75 8.85 -10.9 M6.45 -13.5 L6.3 -13.55 Q6.25 -13.65 6.25 -13.8 6.25 -14.15 6.7 -14.3 7.15 -14.5 7.15 -13.95 7.15 -13.7 6.95 -13.65 6.6 -13.6 6.45 -13.5 M4.3 -9.3 L4.4 -9.2 Q4.35 -9.05 4.25 -9.0 L3.95 -9.2 3.85 -9.3 Q3.85 -9.45 3.95 -9.5 L4.1 -9.5 4.3 -9.3 M22.7 -11.9 L22.35 -11.95 22.35 -11.9 Q22.3 -11.9 22.3 -12.05 22.3 -12.25 22.45 -12.3 L22.55 -12.35 22.85 -12.3 Q23.05 -12.15 23.05 -12.05 23.0 -11.9 22.9 -11.85 L22.7 -11.9 M19.3 -10.75 L18.75 -10.65 18.65 -10.7 Q18.65 -10.75 18.65 -10.95 18.65 -11.05 19.1 -11.3 19.2 -11.25 19.3 -11.15 L19.35 -11.05 19.3 -10.75 M16.35 -12.85 L16.35 -12.6 16.3 -12.5 16.3 -12.45 Q16.3 -12.4 16.1 -12.4 15.95 -12.4 15.85 -12.5 15.75 -12.55 15.6 -12.55 L15.55 -12.55 Q15.5 -12.55 15.5 -12.75 15.5 -12.9 15.75 -13.0 16.0 -13.15 16.3 -13.15 L16.35 -13.05 Q16.35 -13.0 16.35 -12.85 M12.4 -11.5 Q12.35 -11.55 12.35 -11.75 12.35 -11.9 12.4 -11.95 L12.55 -12.05 Q12.7 -12.0 12.8 -11.75 12.7 -11.5 12.55 -11.45 L12.4 -11.5 M16.75 -8.05 Q16.35 -7.45 16.05 -7.25 L15.95 -7.3 Q15.9 -7.35 15.9 -7.5 15.9 -7.6 16.05 -7.85 16.25 -8.15 16.45 -8.25 L16.65 -8.25 Q16.75 -8.2 16.75 -8.05 M18.65 -6.7 L18.6 -6.6 18.55 -6.55 Q18.5 -6.55 18.35 -6.55 18.1 -6.55 18.0 -6.75 L17.95 -6.95 Q17.95 -7.45 18.3 -7.3 18.65 -7.2 18.65 -6.85 L18.65 -6.7 M29.35 -24.3 Q29.35 -24.15 29.3 -24.05 29.0 -24.2 28.75 -24.4 L28.35 -24.7 28.4 -24.85 28.5 -25.0 28.95 -24.65 29.05 -24.55 Q29.0 -24.85 28.85 -25.1 L28.25 -25.0 27.85 -24.95 Q27.65 -24.95 27.6 -24.95 L27.65 -25.0 Q27.75 -25.15 27.85 -25.35 28.05 -25.5 29.05 -25.45 L29.3 -25.1 29.4 -24.9 Q29.4 -24.55 29.3 -24.35 L29.35 -24.3 M26.1 -26.7 Q26.1 -26.65 25.9 -26.65 L24.45 -26.75 24.4 -26.8 Q24.35 -26.85 24.35 -27.05 L24.65 -27.35 Q25.25 -27.7 25.75 -27.3 26.1 -27.0 26.05 -26.75 L26.1 -26.7 M25.3 -16.0 L25.15 -15.85 Q24.9 -16.0 24.75 -16.2 L24.65 -16.4 Q24.8 -16.7 25.05 -16.6 25.3 -16.5 25.4 -16.15 L25.3 -16.0 M-7.75 -17.85 L-7.7 -17.7 -7.6 -17.6 Q-7.75 -17.55 -7.85 -17.4 L-7.6 -17.45 Q-7.6 -17.4 -7.65 -17.3 -7.7 -17.15 -7.75 -17.1 L-7.9 -17.15 Q-8.0 -17.15 -8.05 -17.2 L-8.1 -17.15 -8.25 -17.2 Q-8.3 -17.2 -8.3 -17.4 -8.3 -17.55 -8.1 -17.7 -7.9 -17.85 -7.75 -17.85 M-10.75 -18.8 L-10.95 -18.65 -11.2 -18.55 Q-11.3 -18.55 -11.35 -18.65 L-11.3 -18.65 Q-11.4 -18.65 -11.35 -18.65 L-11.4 -18.65 Q-11.45 -18.65 -11.45 -18.85 -11.45 -19.25 -10.7 -19.0 L-10.65 -18.9 -10.75 -18.8 M-11.75 -14.9 Q-11.65 -14.95 -11.65 -14.75 -11.65 -14.6 -11.7 -14.5 L-11.75 -14.35 -11.8 -14.3 Q-11.85 -14.25 -11.95 -14.25 L-12.05 -14.3 Q-12.05 -14.35 -12.05 -14.55 -12.05 -14.7 -12.0 -14.8 L-11.9 -14.85 -11.75 -14.9 M-8.35 -12.75 Q-8.05 -12.8 -7.9 -12.65 L-7.9 -12.55 -8.1 -12.5 -8.2 -12.5 -8.35 -12.6 -8.35 -12.75 M-9.6 -10.35 Q-9.75 -10.2 -9.8 -10.05 -9.85 -9.9 -10.0 -9.8 L-10.15 -9.9 Q-10.2 -9.9 -10.2 -10.1 -10.2 -10.45 -9.65 -10.45 L-9.6 -10.35 M-10.15 -8.05 Q-9.9 -8.15 -9.7 -7.95 L-9.7 -7.85 Q-9.7 -7.8 -9.9 -7.8 L-10.1 -7.8 -10.15 -7.9 -10.15 -8.05" fill="#d7ace6" fill-rule="evenodd" stroke="none"/>
    </g>
    <g id="shape1" transform="matrix(1.0, 0.0, 0.0, 1.0, 20.95, 66.65)">
      <path d="M8.35 -66.0 L8.05 -66.0 8.0 -66.05 7.95 -66.05 Q7.9 -66.1 7.9 -66.3 7.9 -66.5 8.1 -66.55 L8.4 -66.65 Q8.55 -66.55 8.7 -66.35 L8.6 -66.1 Q8.55 -66.0 8.35 -66.0 M22.1 -61.75 Q22.05 -61.7 22.05 -61.6 L21.9 -61.45 Q21.45 -62.05 21.25 -62.2 21.5 -62.6 21.85 -62.4 22.1 -62.2 22.1 -62.0 L22.1 -61.75 M17.2 -43.85 Q17.15 -43.55 16.95 -43.45 L16.75 -43.55 Q16.65 -43.65 16.65 -43.85 16.65 -44.1 16.75 -44.15 L16.95 -44.25 Q17.15 -44.15 17.2 -43.85 M6.75 -26.4 L6.75 -26.45 Q6.7 -26.45 6.7 -26.65 6.7 -26.85 6.8 -26.85 L6.85 -26.85 Q7.35 -26.8 7.55 -26.7 L7.55 -26.5 7.3 -26.45 6.75 -26.4 M9.85 -23.3 Q9.85 -23.2 9.7 -23.15 9.55 -23.35 9.6 -23.45 L8.75 -23.55 Q8.75 -23.65 8.95 -23.9 9.4 -24.0 9.6 -23.75 L9.85 -23.3 M0.95 -0.3 L1.2 -0.1 Q0.95 0.35 0.75 0.35 L0.5 0.3 0.45 0.3 0.45 0.1 Q0.45 -0.05 0.65 -0.2 0.8 -0.3 0.95 -0.3 M3.7 -0.2 Q3.7 -0.3 3.8 -0.4 3.85 -0.55 4.0 -0.6 L4.7 -0.55 Q4.7 -0.5 4.75 -0.45 L4.85 -0.3 4.65 -0.15 Q4.5 -0.05 4.4 -0.05 L4.0 -0.05 3.7 -0.2 M-6.85 -51.9 Q-7.0 -51.8 -7.1 -51.8 -7.2 -51.9 -7.2 -52.2 -7.1 -52.25 -7.0 -52.25 L-6.7 -52.1 Q-6.7 -52.0 -6.85 -51.9 M-12.65 -54.95 Q-12.6 -54.95 -12.6 -54.75 -12.6 -54.5 -12.8 -54.4 L-13.0 -54.35 Q-13.35 -54.35 -13.35 -54.4 L-13.4 -54.45 Q-13.45 -54.5 -13.45 -54.7 -13.45 -54.9 -13.3 -55.0 -13.1 -55.2 -12.65 -55.0 L-12.65 -54.95 M-17.95 -49.95 L-18.0 -49.75 -18.1 -49.65 -18.4 -49.65 -18.45 -49.6 Q-18.5 -49.6 -18.5 -49.8 -18.5 -50.0 -18.3 -50.0 L-17.95 -49.95 M-20.45 -48.0 L-20.9 -48.0 -20.95 -47.95 Q-20.95 -47.9 -20.95 -48.15 -20.95 -48.35 -20.9 -48.35 L-20.8 -48.35 -20.2 -48.15 -20.15 -48.1 -20.45 -48.0 M-16.6 -0.55 Q-16.2 -0.5 -16.0 -0.15 -16.1 -0.05 -16.05 0.15 -16.1 0.35 -16.5 0.35 L-16.8 0.3 -17.0 0.1 Q-17.05 0.05 -17.05 -0.15 -17.05 -0.6 -16.6 -0.55 M-3.7 -0.6 L-3.65 -0.4 -3.55 -0.2 -3.6 0.1 -3.75 0.15 -4.05 0.2 Q-4.4 0.2 -4.4 0.15 L-4.45 0.05 Q-4.5 0.0 -4.5 -0.2 L-4.35 -0.4 Q-4.1 -0.6 -3.7 -0.6" fill="#d08ae6" fill-rule="evenodd" stroke="none"/>
    </g>
  </defs>
</svg>
