<?xml version="1.0" encoding="UTF-8" standalone="no"?>
<svg xmlns:ffdec="https://www.free-decompiler.com/flash" xmlns:xlink="http://www.w3.org/1999/xlink" ffdec:objectType="frame" height="34.35px" width="34.1px" xmlns="http://www.w3.org/2000/svg">
  <g transform="matrix(1.0, 0.0, 0.0, 1.0, 5.5, 1.35)">
    <use ffdec:characterId="1510" height="34.35" transform="matrix(1.0, 0.0, 0.0, 1.0, -5.5, -1.35)" width="34.1" xlink:href="#shape0"/>
  </g>
  <defs>
    <g id="shape0" transform="matrix(1.0, 0.0, 0.0, 1.0, 5.5, 1.35)">
      <path d="M17.35 12.1 Q18.7 12.6 18.75 12.9 L18.5 13.85 18.8 15.7 18.85 16.1 18.8 16.1 18.75 16.85 18.9 16.7 19.05 19.2 Q19.05 19.9 18.65 20.8 18.15 22.0 17.35 22.0 L16.4 21.75 Q16.15 21.75 15.8 24.0 15.65 25.45 14.95 26.0 L14.45 26.8 15.1 27.35 15.35 27.9 13.55 29.7 11.55 31.35 Q10.15 31.35 8.75 28.7 L7.6 26.05 Q7.6 25.65 7.85 25.35 8.1 25.0 8.65 24.95 8.2 24.5 8.1 23.7 L8.05 22.25 7.3 22.5 Q6.2 22.5 6.2 21.45 L6.25 20.1 5.35 19.65 Q4.8 19.4 4.7 19.0 L4.6 17.8 5.0 14.05 Q5.25 11.55 5.6 11.55 5.9 11.55 7.5 12.1 L8.2 12.25 8.9 12.35 Q9.45 12.35 10.25 13.15 11.2 13.95 11.2 14.9 L11.3 15.25 Q11.6 14.9 12.15 14.8 L12.45 12.6 Q12.7 11.2 14.35 11.15 14.35 9.1 15.8 10.15 17.1 11.1 17.35 12.1" fill="#68692e" fill-rule="evenodd" stroke="none"/>
      <path d="M20.3 -0.15 L20.4 -0.15 23.6 3.55 Q24.6 4.8 24.85 6.35 25.05 7.55 24.85 8.55 23.85 10.9 21.1 11.1 L21.15 11.25 21.2 12.0 21.25 12.15 21.15 12.2 21.05 11.7 20.9 11.85 21.05 11.85 21.0 12.2 21.0 12.25 20.9 12.25 20.75 11.5 21.0 11.45 20.95 11.25 20.7 11.35 20.65 11.15 20.95 11.15 20.9 10.95 20.6 11.05 20.4 10.6 20.15 10.0 20.4 9.9 20.45 9.9 20.7 10.15 21.45 9.9 22.95 8.45 22.95 8.35 Q23.8 7.2 23.2 5.2 22.35 2.15 20.3 -0.15 M23.05 1.8 Q23.9 2.35 24.55 3.45 L24.6 3.55 23.05 1.8 M25.4 4.6 L26.05 5.3 26.3 5.45 26.9 6.75 27.5 8.4 Q27.6 8.85 27.35 9.15 27.95 12.2 24.95 14.1 23.25 15.15 21.35 15.55 L21.05 15.55 21.0 14.8 22.15 14.5 22.4 14.4 23.7 13.85 25.65 12.15 26.65 10.9 27.1 9.3 27.2 8.2 Q27.15 7.3 26.6 6.65 L25.4 4.6 M21.0 14.5 L21.0 14.45 21.0 14.3 21.2 14.35 21.0 14.45 21.1 14.5 21.0 14.5 M20.95 13.9 L20.95 13.05 21.0 13.1 21.0 13.25 21.1 13.5 21.0 13.7 20.95 13.9 M20.1 9.95 L19.8 8.6 Q22.15 7.5 21.9 5.15 L21.45 3.1 20.5 0.7 Q21.85 2.45 22.45 4.55 23.3 7.65 20.25 8.95 L20.3 9.1 Q20.6 9.3 20.3 9.45 L20.25 9.5 19.9 8.6 20.05 9.1 20.2 9.65 20.25 9.85 20.1 9.95 M2.2 15.15 L0.35 14.7 -0.85 14.0 -2.45 12.9 -2.55 12.8 -3.3 12.0 Q-3.9 11.5 -4.1 10.55 L-4.1 9.0 -4.0 8.25 -3.9 9.3 Q-3.85 10.1 -3.45 10.9 L-2.45 12.15 Q-1.65 13.1 -0.5 13.85 L0.8 14.4 1.05 14.5 2.2 14.8 2.2 15.15 M-3.45 6.75 L-2.9 5.8 -3.4 6.65 -3.45 6.75 M1.75 1.0 L2.05 0.75 2.25 0.65 Q0.7 2.65 0.0 5.2 -0.6 7.2 0.25 8.35 L0.25 8.45 1.75 9.9 Q2.05 10.2 2.5 10.15 2.6 9.75 3.05 10.0 L2.8 10.6 Q2.4 11.4 2.3 12.25 L1.95 12.15 2.0 12.0 2.05 11.25 2.1 11.1 Q-0.65 10.9 -1.65 8.55 -1.85 7.55 -1.65 6.35 -1.4 4.8 -0.4 3.55 L1.75 1.0 M2.25 1.3 L1.1 3.55 Q0.65 4.6 0.75 5.45 0.65 6.4 1.25 7.35 2.3 9.0 3.4 8.75 L3.1 9.95 2.55 9.65 2.8 9.7 3.0 9.65 2.9 9.45 Q2.6 9.3 2.9 9.1 L2.95 8.95 Q-0.1 7.65 0.75 4.55 1.25 2.8 2.25 1.3 M2.25 13.05 L2.25 13.9 2.2 13.7 Q2.2 13.5 2.0 13.45 L2.25 13.05 M2.2 14.3 L2.2 14.45 2.2 14.5 2.1 14.5 2.2 14.45 2.0 14.35 2.2 14.3 M20.4 9.7 L20.65 9.65 20.45 9.8 20.4 9.75 20.4 9.7 M20.5 10.45 L20.7 10.45 20.65 10.3 20.55 10.35 20.5 10.45 M20.5 10.25 L20.6 10.25 20.55 10.15 20.5 10.25" fill="#ffeb74" fill-rule="evenodd" stroke="none"/>
      <path d="M20.4 -0.15 L19.95 -0.6 20.05 -0.6 23.05 1.8 24.6 3.55 25.4 4.6 26.6 6.65 Q27.15 7.3 27.2 8.2 L27.1 9.3 26.65 10.9 25.65 12.15 23.7 13.85 22.4 14.4 22.15 14.5 21.0 14.8 20.9 14.8 20.75 14.8 20.8 14.8 20.65 14.75 20.55 14.7 20.75 14.65 20.6 14.6 21.0 14.5 21.1 14.5 21.0 14.45 21.2 14.35 21.0 14.3 20.95 14.3 20.95 13.9 21.0 13.7 21.1 13.5 21.1 13.55 21.3 13.65 21.15 12.2 21.25 12.15 21.2 12.0 21.15 11.25 21.1 11.1 Q23.85 10.9 24.85 8.55 25.05 7.55 24.85 6.35 24.6 4.8 23.6 3.55 L20.4 -0.15 M20.95 13.05 L20.75 12.75 20.7 12.3 20.9 12.25 21.0 12.25 21.0 13.1 20.95 13.05 M-4.0 8.25 L-4.0 8.2 -3.5 6.8 -3.45 6.75 -3.4 6.65 -2.9 5.8 -1.5 4.1 -0.15 2.45 1.0 1.55 1.75 1.0 -0.4 3.55 Q-1.4 4.8 -1.65 6.35 -1.85 7.55 -1.65 8.55 -0.65 10.9 2.1 11.1 L2.05 11.25 2.0 12.0 1.95 12.15 2.3 12.25 2.5 12.3 2.45 12.75 2.25 13.05 2.0 13.45 Q2.2 13.5 2.2 13.7 L2.25 13.9 2.25 14.3 2.2 14.3 2.0 14.35 2.2 14.45 2.1 14.5 2.2 14.5 2.6 14.6 2.45 14.65 2.65 14.7 2.55 14.75 2.4 14.8 2.3 14.8 2.2 14.8 1.05 14.5 0.8 14.4 -0.5 13.85 Q-1.65 13.1 -2.45 12.15 L-3.45 10.9 Q-3.85 10.1 -3.9 9.3 L-4.0 8.25" fill="#b3b657" fill-rule="evenodd" stroke="none"/>
      <path d="M20.15 10.0 L20.1 10.0 19.9 10.0 20.1 9.95 20.25 9.85 20.3 9.9 20.4 9.9 20.15 10.0 M20.5 0.7 L20.15 0.25 Q19.8 -0.15 20.05 -0.4 L20.3 -0.15 Q22.35 2.15 23.2 5.2 23.8 7.2 22.95 8.35 L22.95 8.45 21.45 9.9 20.7 10.15 20.45 9.9 20.45 9.8 20.65 9.65 20.4 9.7 20.25 9.5 20.3 9.45 Q20.6 9.3 20.3 9.1 L20.25 8.95 Q23.3 7.65 22.45 4.55 21.85 2.45 20.5 0.7 M2.25 0.65 L2.45 0.5 3.1 0.05 2.25 1.3 Q1.25 2.8 0.75 4.55 -0.1 7.65 2.95 8.95 L2.9 9.1 Q2.6 9.3 2.9 9.45 L3.0 9.65 2.8 9.7 2.55 9.65 3.1 9.95 3.3 10.0 3.1 10.0 3.05 10.0 Q2.6 9.75 2.5 10.15 2.05 10.2 1.75 9.9 L0.25 8.45 0.25 8.35 Q-0.6 7.2 0.0 5.2 0.7 2.65 2.25 0.65 M20.5 10.45 L20.55 10.35 20.65 10.3 20.7 10.45 20.5 10.45 M20.5 10.25 L20.55 10.15 20.6 10.25 20.5 10.25 M2.3 9.9 L2.3 9.85 2.2 9.85 2.3 9.9 M2.3 9.65 L2.35 9.7 2.35 9.6 2.3 9.65" fill="#ffffff" fill-rule="evenodd" stroke="none"/>
      <path d="M20.45 9.9 L20.4 9.9 20.3 9.9 20.25 9.85 20.2 9.65 20.05 9.1 19.9 8.6 20.25 9.5 20.4 9.7 20.4 9.75 20.45 9.8 20.45 9.9 M4.1 8.7 L4.55 8.2 4.25 8.95 3.7 9.7 3.65 9.75 Q3.2 11.1 3.2 12.85 L3.2 12.95 3.05 14.85 2.9 15.4 2.7 15.45 2.9 12.7 2.85 11.7 2.85 11.6 2.85 11.55 2.9 11.45 Q3.4 9.7 3.85 9.05 L3.95 8.85 4.05 8.75 4.0 8.65 4.1 8.7 M2.3 9.65 L2.35 9.6 2.35 9.7 2.3 9.65 M2.3 9.9 L2.2 9.85 2.3 9.85 2.3 9.9" fill="#66879f" fill-rule="evenodd" stroke="none"/>
      <path d="M20.75 11.5 L20.1 11.55 20.15 11.45 20.7 11.35 20.95 11.25 21.0 11.45 20.75 11.5 M20.65 11.15 L20.55 11.15 20.6 11.05 20.9 10.95 20.95 11.15 20.65 11.15 M21.15 12.2 L21.3 13.65 21.1 13.55 21.1 13.5 21.0 13.25 21.0 13.1 21.0 12.25 21.0 12.2 21.05 11.85 20.9 11.85 21.05 11.7 21.15 12.2 M17.3 11.6 L17.4 11.35 17.75 11.25 17.8 11.25 17.85 11.6 17.35 11.75 17.3 11.6" fill="#3f5565" fill-rule="evenodd" stroke="none"/>
      <path d="M2.2 15.15 L2.3 15.15 2.3 15.55 2.3 15.85 2.3 16.15 Q0.75 16.2 -0.7 15.3 L-1.5 14.8 -2.25 14.2 -2.5 14.0 -2.75 13.8 Q-6.3 11.15 -4.4 7.15 L-4.4 7.1 Q-4.0 5.9 -3.15 4.75 L-1.25 2.6 Q1.05 0.2 4.35 -1.15 L4.5 -0.8 4.1 0.15 4.0 0.2 3.5 0.75 2.2 3.6 Q1.0 6.3 3.0 7.6 L4.2 7.8 3.75 7.95 4.3 8.15 3.4 8.75 Q2.3 9.0 1.25 7.35 0.65 6.4 0.75 5.45 0.65 4.6 1.1 3.55 L2.25 1.3 3.1 0.05 2.45 0.5 2.25 0.65 2.05 0.75 1.75 1.0 1.0 1.55 -0.15 2.45 -1.5 4.1 -2.9 5.8 -3.45 6.75 -3.5 6.8 -4.0 8.2 -4.0 8.25 -4.1 9.0 -4.1 10.55 Q-3.9 11.5 -3.3 12.0 L-2.55 12.8 -2.45 12.9 -0.85 14.0 0.35 14.7 2.2 15.15" fill="#414217" fill-rule="evenodd" stroke="none"/>
      <path d="M2.05 12.2 L2.15 11.7 2.3 11.85 2.15 11.85 2.2 12.2 2.2 13.25 2.1 13.55 1.9 13.65 2.05 12.2 M2.2 11.45 L2.25 11.25 3.05 11.45 3.1 11.55 2.2 11.45 M2.25 11.15 L2.3 10.95 2.6 11.05 2.65 11.15 2.25 11.15 M5.8 11.35 L5.9 11.6 5.85 11.75 5.35 11.6 Q5.25 11.4 5.4 11.25 L5.45 11.25 5.8 11.35" fill="#3f5565" fill-rule="evenodd" stroke="none"/>
      <path d="M20.9 9.85 L21.0 9.85 20.9 9.9 20.9 9.85 M20.85 9.6 L20.9 9.65 20.85 9.7 20.85 9.6 M20.35 11.6 L20.35 11.7 20.3 12.7 20.5 15.45 20.3 15.4 20.15 14.85 20.0 12.95 20.0 12.85 Q20.0 11.1 19.55 9.75 L19.5 9.7 18.95 8.95 18.65 8.2 19.1 8.7 19.2 8.65 19.15 8.75 19.25 8.85 19.35 9.05 20.3 11.45 20.35 11.55 20.35 11.6 M3.15 9.1 L3.0 9.65 2.9 9.9 2.75 9.9 2.8 9.75 3.3 8.6 3.15 9.1" fill="#66879f" fill-rule="evenodd" stroke="none"/>
      <path d="M2.7 10.25 L2.6 10.25 2.65 10.15 2.7 10.25 M2.65 10.35 L2.7 10.45 2.5 10.45 2.55 10.3 2.65 10.35" fill="#ffffff" fill-rule="evenodd" stroke="none"/>
      <path d="M23.35 2.45 L22.2 1.55 21.15 0.75 20.75 0.5 20.1 0.05 Q21.3 1.7 22.1 3.55 22.55 4.6 22.45 5.45 22.55 6.4 21.95 7.35 20.45 9.7 18.9 8.15 L19.45 7.95 19.0 7.8 20.2 7.6 Q22.2 6.3 21.0 3.6 L19.7 0.75 19.2 0.2 Q18.4 -0.6 18.85 -1.15 22.15 0.2 24.45 2.6 L26.35 4.75 27.6 7.1 27.6 7.15 Q29.5 11.15 25.95 13.8 L25.7 14.0 25.45 14.2 24.7 14.8 23.9 15.3 Q22.45 16.2 20.9 16.15 L20.9 15.85 20.9 15.55 20.9 15.15 22.85 14.7 24.05 14.0 25.65 12.9 25.75 12.8 26.5 12.0 Q27.1 11.5 27.3 10.55 L27.3 9.0 Q27.25 7.95 26.7 6.8 25.9 5.2 24.7 4.1 L23.35 2.45" fill="#414217" fill-rule="evenodd" stroke="none"/>
      <path d="M20.5 27.25 L20.4 27.3 Q19.7 27.55 18.55 28.25 L18.3 28.4 Q17.75 27.15 17.75 26.25 L17.7 25.15 17.7 24.95 17.7 24.75 17.65 24.5 17.4 22.4 17.35 21.75 17.35 21.0 17.35 20.95 17.4 20.95 17.3 20.65 17.25 20.7 17.25 18.7 18.75 17.1 18.7 16.6 17.7 11.7 17.7 11.65 17.1 12.0 17.0 12.0 16.5 12.3 16.45 12.35 15.9 10.85 15.95 10.85 15.95 10.8 15.8 10.25 15.6 9.8 14.2 7.45 13.85 7.1 Q15.95 7.05 17.2 9.15 L17.45 9.5 17.8 10.15 17.85 10.1 18.1 10.7 Q18.95 13.25 18.95 14.35 L19.05 18.25 19.1 18.6 19.05 18.75 19.05 19.5 19.0 19.9 19.15 19.75 19.15 20.1 19.6 23.75 19.65 23.75 19.7 23.85 19.6 23.9 19.65 23.9 20.15 25.85 20.5 27.25 M11.6 1.7 L11.85 1.7 12.1 2.05 12.25 3.8 Q12.3 5.05 13.35 5.45 L13.75 5.65 13.65 5.7 13.45 5.9 13.5 5.9 Q12.8 6.2 12.35 7.45 L12.2 7.85 12.25 7.8 12.05 8.35 12.0 8.45 11.95 8.6 12.0 8.55 11.85 9.35 11.8 9.9 11.75 9.9 11.65 9.95 11.6 9.9 11.6 1.7 M11.55 10.45 L11.55 10.5 11.55 10.45" fill="#ffffff" fill-rule="evenodd" stroke="none"/>
      <path d="M9.8 13.95 L9.7 13.9 9.8 13.9 9.8 13.95" fill="#acb56f" fill-rule="evenodd" stroke="none"/>
      <path d="M11.55 -0.2 L11.6 -0.2 13.05 1.2 14.2 2.7 15.35 4.25 15.9 5.0 Q17.0 5.2 18.45 6.25 L19.55 7.15 19.75 7.35 19.8 7.4 19.8 7.35 19.9 7.35 20.75 6.8 21.25 5.9 21.4 5.25 Q21.4 3.75 18.4 -1.0 L18.75 -1.35 Q20.75 -1.1 23.5 1.2 L25.75 3.35 27.55 5.6 Q28.1 6.55 28.3 7.65 L28.6 9.65 28.45 10.75 28.4 10.9 Q28.35 11.7 27.9 12.35 L27.3 13.0 26.75 13.7 Q26.0 14.6 23.65 15.65 L21.85 16.4 21.6 17.7 Q21.6 20.5 22.05 22.0 L22.55 24.15 22.9 25.05 23.25 26.1 23.4 26.55 22.55 27.3 20.75 28.4 20.6 28.5 19.2 29.35 18.65 29.75 15.5 31.85 Q14.05 32.85 13.55 32.85 L13.2 32.55 13.25 32.5 13.25 32.25 13.25 32.05 13.2 31.95 13.2 31.85 13.1 31.65 13.1 29.65 13.2 29.65 13.15 26.45 Q13.05 23.2 13.25 21.8 L13.15 21.6 13.15 21.55 13.2 21.3 13.3 21.2 13.3 21.15 Q15.45 19.7 16.2 18.7 L17.55 17.0 17.75 16.65 17.55 15.6 17.25 13.85 17.15 13.3 17.05 13.2 16.9 13.25 16.3 13.55 16.2 13.6 16.1 13.6 15.95 13.65 15.8 13.7 15.55 13.8 14.8 14.3 Q14.0 14.45 13.9 15.2 L13.85 15.25 13.65 16.1 13.3 17.3 12.0 17.25 10.2 17.3 10.0 16.85 9.8 16.25 9.75 16.2 9.75 16.15 9.65 15.95 9.3 14.9 7.6 13.8 7.2 13.65 7.0 13.55 6.25 13.1 6.2 13.1 6.15 13.05 6.1 13.1 6.05 13.25 5.9 13.85 5.6 15.6 5.4 16.65 5.6 17.0 6.95 18.7 Q7.7 19.7 9.85 21.15 L9.85 21.2 9.95 21.25 9.95 21.75 9.9 21.8 10.0 26.45 9.95 31.3 10.0 32.2 9.85 32.95 9.65 33.0 8.9 32.45 6.7 31.25 4.3 29.7 Q-0.35 26.95 -0.35 26.6 L-0.25 26.3 0.2 24.9 0.65 23.75 1.2 21.2 1.25 20.05 1.35 17.85 1.3 17.2 1.35 16.95 0.2 16.2 -0.25 15.9 -1.2 15.55 -2.4 14.85 -3.55 13.8 -4.2 13.0 -5.0 11.6 -5.5 9.7 Q-5.5 8.3 -4.9 6.7 -4.25 4.85 -3.15 3.8 L-0.2 0.75 Q1.8 -0.95 4.4 -1.35 L4.55 -0.95 3.35 1.5 Q2.1 3.75 2.1 5.25 2.15 7.0 3.45 7.05 L3.55 7.1 3.7 7.15 3.9 6.95 3.95 6.85 Q4.85 6.05 6.35 5.45 L6.4 5.4 7.5 4.95 7.7 4.75 7.9 4.35 8.0 4.25 8.3 3.8 9.55 2.3 10.75 0.35 10.95 0.05 11.55 -0.2 M4.0 -0.55 Q2.65 -0.3 1.55 0.5 L-0.15 1.9 Q-1.2 2.75 -2.65 4.45 -4.8 7.0 -4.8 9.75 -4.8 10.4 -4.05 11.6 L-2.8 13.3 Q-1.25 14.75 0.6 15.55 L1.4 15.95 1.5 15.7 1.6 15.9 1.6 15.85 1.75 15.8 1.75 15.25 1.75 15.2 2.05 12.45 Q1.95 11.7 2.1 10.9 2.35 9.35 3.3 8.2 L3.2 8.15 3.15 7.95 3.2 7.9 2.4 7.4 1.8 6.65 1.6 5.15 Q1.6 3.65 2.15 2.55 L3.95 -0.5 4.0 -0.55 M22.05 5.25 Q22.05 6.25 21.25 7.2 20.55 7.95 19.95 8.1 L19.85 8.1 20.65 9.35 Q21.5 11.0 21.4 15.1 L21.4 15.55 21.65 15.45 21.9 15.7 Q24.55 14.75 25.7 13.8 L26.15 13.35 26.2 13.3 27.25 11.8 27.35 11.45 27.95 8.95 Q27.6 7.05 25.75 4.4 23.65 1.6 19.65 -0.35 L21.15 2.4 Q22.05 4.2 22.05 5.25 M20.5 27.25 L21.9 26.3 Q21.15 24.6 20.8 22.35 L20.8 22.5 20.75 22.7 20.55 21.3 20.6 20.9 Q20.45 19.15 20.45 15.8 L20.25 12.7 20.3 11.7 20.3 11.6 19.3 9.05 19.2 8.85 19.1 8.75 19.15 8.65 19.05 8.7 Q17.55 6.65 14.5 6.05 13.4 6.45 12.7 8.35 L12.1 10.8 12.0 10.95 11.6 11.25 11.25 11.0 11.1 10.85 10.45 8.35 Q9.75 6.45 8.65 6.05 6.0 6.55 4.55 8.2 L4.1 8.7 4.0 8.65 4.05 8.75 3.95 8.85 3.85 9.05 Q3.4 9.75 2.85 11.6 L2.85 11.7 2.9 12.7 2.7 15.45 2.7 15.6 2.7 15.8 2.6 20.2 2.45 20.75 2.5 21.75 2.35 22.5 2.35 22.35 2.25 23.05 2.1 23.55 2.1 23.6 1.25 26.3 1.9 26.7 2.75 27.3 Q3.45 27.55 4.6 28.25 L8.15 30.5 8.4 30.65 8.9 30.95 9.05 31.05 Q8.95 29.8 9.0 27.25 L9.1 26.65 9.1 26.2 9.05 25.8 9.0 25.6 9.0 25.35 9.0 25.0 9.1 21.7 8.95 21.65 7.3 20.25 6.45 19.2 6.05 18.8 4.4 17.1 4.45 16.6 5.45 11.8 5.6 11.85 5.7 11.65 5.95 11.8 5.95 11.85 7.0 12.4 7.9 12.9 8.75 13.35 9.1 13.6 9.25 13.65 9.35 13.7 9.75 13.85 9.8 13.9 9.7 13.9 9.8 13.95 9.95 14.0 10.0 14.05 10.1 14.1 10.2 14.4 10.5 15.95 10.6 16.4 11.15 16.4 11.65 16.4 12.05 16.45 12.45 16.35 12.65 16.4 13.2 14.05 14.25 13.5 15.05 13.15 16.1 12.55 16.3 12.5 16.45 12.35 16.5 12.3 17.0 12.0 17.1 12.0 17.7 11.65 17.7 11.7 18.7 16.6 18.75 17.1 17.25 18.7 17.1 18.8 16.7 19.2 15.85 20.25 14.2 21.65 14.05 21.7 14.15 25.6 14.05 26.65 14.15 27.25 14.1 31.05 18.3 28.4 18.55 28.25 Q19.7 27.55 20.4 27.3 L20.5 27.25 M9.8 13.9 L9.85 13.9 9.8 13.9 M9.9 11.45 L9.9 11.6 9.9 11.65 9.9 11.45 M11.6 1.7 L11.4 1.7 11.3 1.75 10.7 2.55 10.3 3.1 9.7 3.9 9.65 3.95 Q9.0 4.5 8.9 4.85 L8.85 4.9 8.9 4.9 8.85 5.0 9.5 5.7 9.7 5.9 9.65 5.9 Q10.35 6.2 10.8 7.45 L10.95 7.85 10.9 7.8 11.1 8.35 11.15 8.45 11.2 8.6 11.15 8.55 11.25 8.95 11.6 9.9 11.65 9.95 11.75 9.9 11.8 9.9 11.85 9.35 12.0 8.55 11.95 8.6 12.0 8.45 12.05 8.35 12.25 7.8 12.2 7.85 12.35 7.45 Q12.8 6.2 13.5 5.9 L13.45 5.9 13.65 5.7 13.75 5.65 14.3 5.0 14.25 4.9 14.3 4.9 14.25 4.85 13.5 3.95 13.45 3.9 12.85 3.1 12.45 2.55 12.1 2.05 11.85 1.7 11.6 1.7 M11.55 10.45 L11.55 10.5 11.55 10.45" fill="#414217" fill-rule="evenodd" stroke="none"/>
      <path d="M9.8 13.9 L9.75 13.85 9.35 13.7 9.25 13.65 9.1 13.6 8.75 13.35 7.9 12.9 7.0 12.4 5.95 11.85 5.95 11.8 5.7 11.65 5.6 11.85 5.45 11.8 5.4 11.8 4.6 14.05 Q4.1 15.55 4.1 17.15 L8.15 21.35 8.6 22.0 8.6 22.05 8.45 24.3 8.15 27.0 8.25 29.75 8.15 30.5 4.6 28.25 Q3.45 27.55 2.75 27.3 L1.9 26.7 2.4 24.85 2.7 23.8 2.7 23.75 2.95 22.6 3.05 22.3 3.05 22.25 3.05 21.8 3.25 19.8 3.15 18.65 3.4 14.15 3.65 11.85 3.7 11.3 4.1 9.9 4.5 9.3 5.4 8.2 Q6.8 6.9 8.1 6.5 8.95 6.2 9.2 6.9 L9.5 8.1 Q9.95 8.8 9.95 10.35 L9.95 10.75 9.9 11.05 9.9 11.45 9.9 11.65 9.75 12.15 9.8 12.4 9.8 12.7 9.8 13.9 M11.6 9.9 L11.25 8.95 11.15 8.55 11.2 8.6 11.15 8.45 11.1 8.35 10.9 7.8 10.95 7.85 10.8 7.45 Q10.35 6.2 9.65 5.9 L9.7 5.9 9.5 5.7 8.85 5.0 8.9 4.9 8.85 4.9 8.9 4.85 Q9.0 4.5 9.65 3.95 L9.7 3.9 10.3 3.1 10.7 2.55 11.3 1.75 11.4 1.7 11.6 1.7 11.6 9.9" fill="#b3b657" fill-rule="evenodd" stroke="none"/>
      <path d="M1.9 26.7 L1.25 26.3 2.1 23.6 2.1 23.55 2.25 23.05 2.35 22.35 2.35 22.5 2.5 21.75 2.45 20.75 2.6 20.2 2.7 15.8 2.7 15.6 2.7 15.45 2.9 12.7 2.85 11.7 2.85 11.6 Q3.4 9.75 3.85 9.05 L3.95 8.85 4.05 8.75 4.0 8.65 4.1 8.7 4.55 8.2 Q6.0 6.55 8.65 6.05 9.75 6.45 10.45 8.35 L11.1 10.85 11.25 11.0 11.6 11.25 12.0 10.95 12.1 10.8 12.7 8.35 Q13.4 6.45 14.5 6.05 17.55 6.65 19.05 8.7 L19.15 8.65 19.1 8.75 19.2 8.85 19.3 9.05 20.3 11.6 20.3 11.7 20.25 12.7 20.45 15.8 Q20.45 19.15 20.6 20.9 L20.55 21.3 20.75 22.7 20.8 22.5 20.8 22.35 Q21.15 24.6 21.9 26.3 L20.5 27.25 20.15 25.85 19.65 23.9 19.6 23.9 19.7 23.85 19.65 23.75 19.6 23.75 19.15 20.1 19.15 19.75 19.0 19.9 19.05 19.5 19.05 18.75 19.1 18.6 19.05 18.25 18.95 14.35 Q18.95 13.25 18.1 10.7 L17.85 10.1 17.8 10.15 17.45 9.5 17.2 9.15 Q15.95 7.05 13.85 7.1 L14.2 7.45 15.6 9.8 15.8 10.25 15.95 10.8 15.95 10.85 15.9 10.85 16.45 12.35 16.3 12.5 16.1 12.55 15.05 13.15 14.25 13.5 13.2 14.05 12.65 16.4 12.45 16.35 12.05 16.45 11.65 16.4 11.15 16.4 10.6 16.4 10.5 15.95 10.2 14.4 10.1 14.1 10.0 14.05 9.95 14.0 9.8 13.95 9.8 13.9 9.85 13.9 9.8 13.9 9.8 12.7 9.8 12.4 9.75 12.15 9.9 11.65 9.9 11.6 9.9 11.45 9.9 11.05 9.95 10.75 9.95 10.35 Q9.95 8.8 9.5 8.1 L9.2 6.9 Q8.95 6.2 8.1 6.5 6.8 6.9 5.4 8.2 L4.5 9.3 4.1 9.9 3.7 11.3 3.65 11.85 3.4 14.15 3.15 18.65 3.25 19.8 3.05 21.8 3.05 22.25 3.05 22.3 2.95 22.6 2.7 23.75 2.7 23.8 2.4 24.85 1.9 26.7 M18.3 28.4 L14.1 31.05 14.15 27.25 14.05 26.65 14.15 25.6 14.05 21.7 14.2 21.65 15.85 20.25 16.7 19.2 17.1 18.8 17.25 18.7 17.25 20.7 17.3 20.65 17.4 20.95 17.35 20.95 17.35 21.0 17.35 21.75 17.4 22.4 17.65 24.5 17.7 24.75 17.7 24.95 17.7 25.15 17.75 26.25 Q17.75 27.15 18.3 28.4 M5.45 11.8 L4.45 16.6 4.4 17.1 6.05 18.8 6.45 19.2 7.3 20.25 8.95 21.65 9.1 21.7 9.0 25.0 9.0 25.35 9.0 25.6 9.05 25.8 9.1 26.2 9.1 26.65 9.0 27.25 Q8.95 29.8 9.05 31.05 L8.9 30.95 8.4 30.65 8.15 30.5 8.25 29.75 8.15 27.0 8.45 24.3 8.6 22.05 8.6 22.0 8.15 21.35 4.1 17.15 Q4.1 15.55 4.6 14.05 L5.4 11.8 5.45 11.8 M12.1 2.05 L12.45 2.55 12.85 3.1 13.45 3.9 13.5 3.95 14.25 4.85 14.3 4.9 14.25 4.9 14.3 5.0 13.75 5.65 13.35 5.45 Q12.3 5.05 12.25 3.8 L12.1 2.05" fill="#ffeb74" fill-rule="evenodd" stroke="none"/>
    </g>
  </defs>
</svg>
