<?xml version="1.0" encoding="UTF-8" standalone="no"?>
<svg xmlns:ffdec="https://www.free-decompiler.com/flash" xmlns:xlink="http://www.w3.org/1999/xlink" ffdec:objectType="frame" height="54.6px" width="104.65px" xmlns="http://www.w3.org/2000/svg">
  <g transform="matrix(1.0, 0.0, 0.0, 1.0, 0.0, 0.0)">
    <use ffdec:characterId="772" height="7.8" transform="matrix(7.0, 0.0, 0.0, 7.0, 0.0, 0.0)" width="14.95" xlink:href="#shape0"/>
  </g>
  <defs>
    <g id="shape0" transform="matrix(1.0, 0.0, 0.0, 1.0, 0.0, 0.0)">
      <path d="M14.85 2.05 Q14.95 2.4 14.95 2.8 L14.9 3.25 14.85 3.9 Q14.7 4.75 14.45 4.75 L14.35 4.75 Q13.95 5.75 13.3 6.3 L13.15 6.45 Q12.7 6.85 12.1 7.1 L11.5 7.3 Q11.3 7.45 10.95 7.5 L10.2 7.7 Q9.4 7.9 8.8 7.75 L8.6 7.75 Q8.55 7.7 8.55 7.55 8.5 7.4 8.5 7.25 8.65 6.0 9.95 5.05 10.95 4.25 11.75 4.2 L13.25 4.05 13.65 3.95 Q13.55 3.95 13.55 3.85 L13.85 3.65 Q14.25 3.35 14.45 2.9 L14.65 2.4 14.85 1.95 Q14.8 1.95 14.85 2.05 M14.5 3.4 Q14.25 3.75 13.85 3.95 L13.45 4.05 12.5 4.2 11.75 4.3 11.0 4.55 Q10.55 4.7 10.2 4.95 9.8 5.25 9.4 5.7 8.7 6.5 8.6 7.3 8.6 7.45 8.6 7.55 L8.65 7.7 8.95 7.7 9.35 7.75 10.85 7.45 Q11.35 7.35 11.65 7.2 11.9 7.05 12.45 6.8 12.95 6.55 13.3 6.3 13.95 5.7 14.35 4.65 14.55 4.05 14.7 3.3 L14.8 2.6 14.8 2.75 14.75 2.85 14.75 2.9 Q14.65 3.2 14.5 3.4 M7.75 7.0 Q7.75 7.2 7.65 7.35 L7.5 7.5 7.25 7.5 Q6.3 7.45 5.25 7.05 L4.2 6.7 3.7 6.45 3.2 6.3 Q2.55 6.25 1.7 5.55 1.3 5.2 1.0 4.9 0.7 4.55 0.55 4.25 L0.5 4.2 0.3 3.75 0.2 3.35 Q0.0 2.75 0.0 2.2 L0.0 2.05 Q0.0 1.2 0.2 0.6 0.3 0.15 0.5 0.05 L0.5 0.3 Q0.5 0.95 0.65 1.3 1.0 2.0 2.15 2.4 L4.35 2.95 Q6.05 3.65 6.05 3.9 6.05 4.0 6.0 4.0 L6.45 4.4 Q7.95 5.7 7.75 7.0 M7.65 7.05 Q7.75 6.2 7.05 5.2 6.6 4.6 6.1 4.2 5.7 3.85 5.1 3.6 L4.1 3.15 3.95 3.1 Q3.7 3.0 3.1 2.9 2.25 2.7 1.8 2.5 1.35 2.35 1.05 2.15 0.4 1.65 0.35 0.95 L0.35 0.65 0.25 1.45 0.25 1.6 Q0.25 2.0 0.25 2.4 0.35 2.95 0.5 3.45 L0.55 3.6 0.7 3.95 Q0.85 4.25 1.05 4.55 L1.25 4.8 1.35 4.9 1.75 5.25 2.35 5.65 2.65 5.8 3.35 6.2 3.45 6.25 Q3.8 6.45 4.25 6.6 L4.35 6.65 5.4 7.0 Q5.9 7.2 6.45 7.3 L6.95 7.4 7.45 7.45 7.55 7.3 Q7.6 7.2 7.65 7.05" fill="#00ae9d" fill-rule="evenodd" stroke="none"/>
      <path d="M14.5 3.4 Q14.65 3.2 14.75 2.9 L14.75 2.85 14.8 2.75 14.8 2.6 14.7 3.3 Q14.55 4.05 14.35 4.65 13.95 5.7 13.3 6.3 12.95 6.55 12.45 6.8 11.9 7.05 11.65 7.2 11.35 7.35 10.85 7.45 L9.35 7.75 8.95 7.7 8.65 7.7 8.6 7.55 Q8.6 7.45 8.6 7.3 8.7 6.5 9.4 5.7 9.8 5.25 10.2 4.95 10.55 4.7 11.0 4.55 L11.75 4.3 12.5 4.2 13.45 4.05 13.85 3.95 Q14.25 3.75 14.5 3.4 M7.65 7.05 Q7.6 7.2 7.55 7.3 L7.45 7.45 6.95 7.4 6.45 7.3 Q5.9 7.2 5.4 7.0 L4.35 6.65 4.25 6.6 Q3.8 6.45 3.45 6.25 L3.35 6.2 2.65 5.8 2.35 5.65 1.75 5.25 1.35 4.9 1.25 4.8 1.05 4.55 Q0.85 4.25 0.7 3.95 L0.55 3.6 0.5 3.45 Q0.35 2.95 0.25 2.4 0.25 2.0 0.25 1.6 L0.25 1.45 0.35 0.65 0.35 0.95 Q0.4 1.65 1.05 2.15 1.35 2.35 1.8 2.5 2.25 2.7 3.1 2.9 3.7 3.0 3.95 3.1 L4.1 3.15 5.1 3.6 Q5.7 3.85 6.1 4.2 6.6 4.6 7.05 5.2 7.75 6.2 7.65 7.05" fill="url(#gradient0)" fill-rule="evenodd" stroke="none"/>
    </g>
    <radialGradient cx="0" cy="0" gradientTransform="matrix(0.0098, 0.0, 0.0, 0.0098, 5.55, 6.1)" gradientUnits="userSpaceOnUse" id="gradient0" r="819.2" spreadMethod="pad">
      <stop offset="0.0" stop-color="#cdfeef" stop-opacity="0.93333334"/>
      <stop offset="1.0" stop-color="#ffffff" stop-opacity="0.48235294"/>
    </radialGradient>
  </defs>
</svg>
