<?xml version="1.0" encoding="UTF-8" standalone="no"?>
<svg xmlns:ffdec="https://www.free-decompiler.com/flash" xmlns:xlink="http://www.w3.org/1999/xlink" ffdec:objectType="frame" height="45.65px" width="45.6px" xmlns="http://www.w3.org/2000/svg">
  <g transform="matrix(1.0, 0.0, 0.0, 1.0, 0.0, 0.0)">
    <use ffdec:characterId="542" height="45.65" transform="matrix(1.0, 0.0, 0.0, 1.0, 0.0, 0.0)" width="45.6" xlink:href="#shape0"/>
  </g>
  <defs>
    <g id="shape0" transform="matrix(1.0, 0.0, 0.0, 1.0, 0.0, 0.0)">
      <path d="M27.0 0.0 L38.45 0.0 Q45.6 0.0 45.6 7.5 L45.6 38.1 Q45.6 45.5 38.6 45.6 L38.45 45.6 32.35 45.6 31.8 45.65 27.0 45.6 27.0 0.0 27.0 45.6 7.15 45.6 Q0.0 45.6 0.0 38.1 L0.0 7.5 Q0.0 0.0 7.15 0.0 L27.0 0.0" fill="url(#gradient0)" fill-rule="evenodd" stroke="none"/>
    </g>
    <linearGradient gradientTransform="matrix(0.0, 0.0279, -0.0278, 0.0, 22.8, 22.8)" gradientUnits="userSpaceOnUse" id="gradient0" spreadMethod="pad" x1="-819.2" x2="819.2">
      <stop offset="0.3333333333333333" stop-color="#05529e"/>
      <stop offset="1.0" stop-color="#abdffc"/>
    </linearGradient>
  </defs>
</svg>
