<?xml version="1.0" encoding="UTF-8" standalone="no"?>
<svg xmlns:ffdec="https://www.free-decompiler.com/flash" xmlns:xlink="http://www.w3.org/1999/xlink" ffdec:objectType="frame" height="28.8px" width="28.8px" xmlns="http://www.w3.org/2000/svg">
  <g transform="matrix(1.0, 0.0, 0.0, 1.0, 14.55, 14.35)">
    <use ffdec:characterId="632" height="28.8" transform="matrix(1.0, 0.0, 0.0, 1.0, -14.55, -14.35)" width="28.8" xlink:href="#shape0"/>
  </g>
  <defs>
    <g id="shape0" transform="matrix(1.0, 0.0, 0.0, 1.0, 14.55, 14.35)">
      <path d="M10.5 -2.5 Q9.8 -5.4 7.55 -7.65 L7.2 -8.0 5.1 -9.5 5.05 -9.55 Q2.7 -10.85 -0.15 -10.85 L-0.65 -10.85 Q-3.45 -10.75 -5.7 -9.3 L-6.5 -8.8 -7.85 -7.65 Q-10.55 -4.95 -10.95 -1.4 L-11.05 0.05 Q-11.05 3.35 -9.3 5.95 L-8.5 7.0 -7.85 7.75 Q-6.1 9.5 -3.9 10.3 L-0.15 10.95 Q4.35 10.95 7.55 7.75 10.75 4.55 10.75 0.05 L10.5 -2.5 M-4.5 12.75 Q-2.65 13.4 -0.5 13.45 L-0.15 13.45 Q5.4 13.45 9.35 9.55 13.25 5.6 13.25 0.05 13.25 -5.5 9.35 -9.4 L7.1 -11.25 Q3.9 -13.35 -0.15 -13.35 -5.7 -13.35 -9.6 -9.4 -13.55 -5.5 -13.55 0.05 L-13.55 0.2 -13.55 0.3 -13.55 0.45 -13.55 0.55 -13.55 0.7 -13.55 0.8 -13.55 0.95 -13.55 1.05 -11.85 6.65 -11.4 7.4 -11.3 7.5 -11.0 7.9 -11.0 7.95 -10.5 8.6 -9.6 9.55 -9.45 9.7 -9.35 9.8 -9.3 9.85 -7.05 11.55 -6.75 11.75 Q-5.7 12.35 -4.5 12.75 M10.05 10.25 Q5.8 14.45 -0.15 14.45 -6.1 14.45 -10.3 10.25 -14.55 6.0 -14.55 0.05 -14.55 -5.9 -10.3 -10.1 -6.1 -14.35 -0.15 -14.35 5.8 -14.35 10.05 -10.1 14.25 -5.9 14.25 0.05 14.25 6.0 10.05 10.25 M7.9 8.1 Q4.55 11.45 -0.15 11.45 -4.85 11.45 -8.2 8.1 -11.55 4.75 -11.55 0.05 -11.55 -4.65 -8.2 -8.0 -4.85 -11.35 -0.15 -11.35 4.55 -11.35 7.9 -8.0 11.25 -4.65 11.25 0.05 11.25 4.75 7.9 8.1" fill="#000000" fill-rule="evenodd" stroke="none"/>
      <path d="M-5.45 -8.15 L-5.55 -8.1 -6.0 -7.8 -6.6 -7.6 -6.9 -7.7 -6.95 -7.8 -6.95 -7.95 -6.5 -8.8 -5.7 -9.3 Q-4.9 -9.75 -4.9 -9.05 L-4.9 -8.95 Q-4.95 -8.6 -5.45 -8.15 M-10.1 -3.05 L-10.2 -3.05 -10.25 -3.3 Q-10.25 -4.6 -8.95 -6.25 -8.0 -7.45 -7.75 -6.95 L-7.65 -6.4 Q-7.65 -6.1 -8.25 -5.65 L-9.1 -4.65 -9.25 -3.75 Q-9.35 -3.2 -9.85 -3.0 L-10.1 -3.05" fill="#c5c6cf" fill-rule="evenodd" stroke="none"/>
      <path d="M-10.1 -3.05 Q-10.7 -1.6 -10.4 -0.45 L-10.9 -1.25 -10.95 -1.4 Q-10.55 -4.95 -7.85 -7.65 L-6.5 -8.8 -6.95 -7.95 -6.95 -7.8 -6.9 -7.7 -7.75 -6.95 Q-8.0 -7.45 -8.95 -6.25 -10.25 -4.6 -10.25 -3.3 L-10.2 -3.05 -10.1 -3.05 M-0.65 -10.85 L-0.6 -10.65 -4.9 -8.95 -4.9 -9.05 Q-4.9 -9.75 -5.7 -9.3 -3.45 -10.75 -0.65 -10.85" fill="#9193a4" fill-rule="evenodd" stroke="none"/>
      <path d="M5.05 -9.55 L1.85 -10.1 Q-2.6 -10.1 -5.45 -8.15 -4.95 -8.6 -4.9 -8.95 L-0.6 -10.65 -0.65 -10.85 -0.15 -10.85 Q2.7 -10.85 5.05 -9.55 M-6.0 -7.8 Q-7.85 -6.35 -9.0 -4.05 -10.25 -1.55 -10.45 1.4 -10.25 3.7 -9.3 5.95 -11.05 3.35 -11.05 0.05 L-10.95 -1.4 -10.9 -1.25 -10.4 -0.45 Q-10.7 -1.6 -10.1 -3.05 L-9.85 -3.0 Q-9.35 -3.2 -9.25 -3.75 L-9.1 -4.65 -8.25 -5.65 Q-7.65 -6.1 -7.65 -6.4 L-7.75 -6.95 -6.9 -7.7 -6.6 -7.6 -6.0 -7.8" fill="#646679" fill-rule="evenodd" stroke="none"/>
      <path d="M6.9 -11.1 L7.8 -10.25 9.8 -8.15 Q12.75 -4.5 12.75 0.45 12.75 2.15 12.15 4.05 L11.4 5.5 10.55 6.85 10.05 7.6 9.95 7.65 9.65 8.05 9.05 8.75 9.05 8.8 9.0 8.85 8.65 9.2 7.3 10.4 7.3 10.45 7.15 10.5 6.05 11.1 Q3.65 12.6 1.55 12.7 L0.95 12.85 0.25 12.85 Q-3.95 12.85 -8.1 9.85 L-10.6 7.8 -11.2 7.15 -12.3 3.65 Q-12.95 1.7 -12.95 -0.25 -12.95 -3.75 -11.1 -7.0 -7.7 -12.85 0.2 -12.85 1.45 -12.85 4.1 -11.95 L6.8 -11.1 6.9 -11.1 M-6.75 11.75 L-5.05 12.55 -4.5 12.75 Q-5.7 12.35 -6.75 11.75 M7.9 8.1 Q11.25 4.75 11.25 0.05 11.25 -4.65 7.9 -8.0 4.55 -11.35 -0.15 -11.35 -4.85 -11.35 -8.2 -8.0 -11.55 -4.65 -11.55 0.05 -11.55 4.75 -8.2 8.1 -4.85 11.45 -0.15 11.45 4.55 11.45 7.9 8.1 M-11.1 7.75 L-11.0 7.9 -11.3 7.5 -11.1 7.75" fill="#c5a807" fill-rule="evenodd" stroke="none"/>
      <path d="M7.2 -8.0 L7.7 -7.4 8.9 -5.2 9.35 -3.55 9.75 -1.65 Q9.75 0.35 7.85 4.2 6.6 6.6 4.6 7.95 2.25 9.55 -0.9 9.55 L-4.8 8.95 -6.35 8.5 Q-6.55 8.3 -7.1 8.0 L-8.05 7.4 -8.5 7.0 -9.3 5.95 Q-10.25 3.7 -10.45 1.4 -10.25 -1.55 -9.0 -4.05 -7.85 -6.35 -6.0 -7.8 L-5.55 -8.1 -5.45 -8.15 Q-2.6 -10.1 1.85 -10.1 L5.05 -9.55 5.1 -9.5 7.2 -8.0 M-3.9 10.3 L-2.05 10.25 Q0.35 10.9 2.65 10.25 4.65 9.7 6.3 8.35 8.2 6.7 9.3 4.5 10.45 2.2 10.5 -0.35 L10.5 -2.0 10.5 -2.5 10.75 0.05 Q10.75 4.55 7.55 7.75 4.35 10.95 -0.15 10.95 L-3.9 10.3" fill="#40414d" fill-rule="evenodd" stroke="none"/>
      <path d="M7.2 -8.0 L7.55 -7.65 Q9.8 -5.4 10.5 -2.5 L10.5 -2.0 10.5 -0.35 Q10.45 2.2 9.3 4.5 8.2 6.7 6.3 8.35 4.65 9.7 2.65 10.25 0.35 10.9 -2.05 10.25 L-3.9 10.3 Q-6.1 9.5 -7.85 7.75 L-8.5 7.0 -8.05 7.4 -7.1 8.0 Q-6.55 8.3 -6.35 8.5 L-4.8 8.95 -0.9 9.55 Q2.25 9.55 4.6 7.95 6.6 6.6 7.85 4.2 9.75 0.35 9.75 -1.65 L9.35 -3.55 8.9 -5.2 7.7 -7.4 7.2 -8.0" fill="#2f3037" fill-rule="evenodd" stroke="none"/>
      <path d="M7.1 -11.25 L9.35 -9.4 Q13.25 -5.5 13.25 0.05 13.25 5.6 9.35 9.55 5.4 13.45 -0.15 13.45 L-0.5 13.45 Q-2.65 13.4 -4.5 12.75 L-5.05 12.55 -6.75 11.75 -7.05 11.55 -9.3 9.85 -9.35 9.8 -9.45 9.7 -9.6 9.55 -10.5 8.6 -11.0 7.95 -11.2 7.15 -10.6 7.8 -8.1 9.85 Q-3.95 12.85 0.25 12.85 L0.95 12.85 1.55 12.7 Q3.65 12.6 6.05 11.1 L7.15 10.5 7.3 10.45 7.3 10.4 8.65 9.2 9.0 8.85 9.05 8.8 9.05 8.75 9.65 8.05 9.95 7.65 10.05 7.6 10.55 6.85 11.4 5.5 12.15 4.05 Q12.75 2.15 12.75 0.45 12.75 -4.5 9.8 -8.15 L7.8 -10.25 6.9 -11.1 7.1 -11.25 M-11.4 7.4 L-11.3 7.25 -11.1 7.75 -11.3 7.5 -11.4 7.4" fill="#947e05" fill-rule="evenodd" stroke="none"/>
      <path d="M7.1 -11.25 L6.9 -11.1 6.8 -11.1 4.1 -11.95 Q1.45 -12.85 0.2 -12.85 -7.7 -12.85 -11.1 -7.0 -12.95 -3.75 -12.95 -0.25 -12.95 1.7 -12.3 3.65 L-11.2 7.15 -11.0 7.95 -11.0 7.9 -11.1 7.75 -11.3 7.25 -11.4 7.4 -11.85 6.65 -13.55 1.05 -13.55 0.95 -13.55 0.8 -13.55 0.7 -13.55 0.55 -13.55 0.45 -13.55 0.3 -13.55 0.2 -13.55 0.05 Q-13.55 -5.5 -9.6 -9.4 -5.7 -13.35 -0.15 -13.35 3.9 -13.35 7.1 -11.25" fill="#f9e053" fill-rule="evenodd" stroke="none"/>
      <path d="M5.8 -7.55 Q4.65 -8.7 2.95 -8.65 1.35 -7.45 3.0 -5.65 5.15 -3.2 6.85 -5.55 6.7 -6.65 5.8 -7.55 M9.7 -2.75 Q5.7 -0.7 2.2 -4.75 0.5 -6.75 -1.55 -7.7 L-1.3 -8.75 -1.3 -8.8 -1.4 -8.9 -2.0 -9.15 -2.5 -9.25 -2.5 -9.2 Q-4.2 -9.15 -5.45 -8.6 L-5.45 -8.65 Q-3.25 -10.0 -0.5 -10.1 L-0.15 -10.1 Q4.05 -10.1 7.05 -7.1 8.95 -5.15 9.7 -2.75 M-6.45 -6.15 L-6.25 -5.2 Q-6.05 -3.85 -6.1 -1.9 L-6.05 1.2 Q-8.15 0.15 -7.7 -3.05 -7.6 -4.15 -7.15 -5.0 L-6.45 -6.15" fill="#c347cc" fill-rule="evenodd" stroke="none"/>
      <path d="M5.8 -7.55 Q6.7 -6.65 6.85 -5.55 5.15 -3.2 3.0 -5.65 1.35 -7.45 2.95 -8.65 4.65 -8.7 5.8 -7.55" fill="#ffffff" fill-rule="evenodd" stroke="none"/>
      <path d="M10.0 0.05 Q9.45 0.25 9.0 0.8 9.1 -0.6 8.7 -1.85 7.2 0.25 4.55 -0.15 -0.95 -1.05 -3.5 -5.35 L-2.35 -6.8 -1.55 -7.7 Q0.5 -6.75 2.2 -4.75 5.7 -0.7 9.7 -2.75 L10.0 0.05 M-8.65 1.15 L-8.45 1.4 -8.55 1.8 Q-8.8 2.3 -8.4 2.8 L-8.2 3.0 Q-4.95 1.95 -1.95 3.6 -0.75 4.2 -0.05 5.5 L-1.25 5.5 Q-2.2 5.2 -3.0 6.0 L-3.1 6.15 -2.05 8.0 Q-6.45 8.0 -8.4 3.5 -8.95 2.1 -8.65 1.15" fill="#760080" fill-rule="evenodd" stroke="none"/>
      <path d="M-1.55 -7.7 L-2.35 -6.8 -3.5 -5.35 Q-0.95 -1.05 4.55 -0.15 7.2 0.25 8.7 -1.85 9.1 -0.6 9.0 0.8 9.45 0.25 10.0 0.05 L10.0 0.1 Q10.0 3.55 8.1 6.1 L7.95 6.25 7.25 7.05 7.05 7.3 3.85 9.55 3.65 9.65 3.5 9.7 4.55 7.9 3.3 8.6 Q-0.15 10.3 -2.05 8.0 L-3.1 6.15 -3.0 6.0 Q-2.2 5.2 -1.25 5.5 L-0.05 5.5 Q-0.75 4.2 -1.95 3.6 -4.95 1.95 -8.2 3.0 L-8.4 2.8 Q-8.8 2.3 -8.55 1.8 L-8.45 1.4 -8.65 1.15 Q-10.05 -0.75 -9.35 -3.5 L-9.05 -4.4 -9.0 -4.5 -8.9 -4.8 -8.85 -4.9 -8.65 -5.5 -8.45 -5.75 -8.2 -6.2 -7.4 -7.1 -6.25 -8.1 -5.65 -8.55 -5.45 -8.6 Q-4.2 -9.15 -2.5 -9.2 L-2.5 -9.25 -2.0 -9.15 -1.4 -8.9 -1.3 -8.8 -1.3 -8.75 -1.55 -7.7 M-6.45 -6.15 L-7.15 -5.0 Q-7.6 -4.15 -7.7 -3.05 -8.15 0.15 -6.05 1.2 L-6.1 -1.9 Q-6.05 -3.85 -6.25 -5.2 L-6.45 -6.15 M6.85 2.15 L6.7 2.15 6.75 2.35 6.85 2.15" fill="#520059" fill-rule="evenodd" stroke="none"/>
      <path d="M7.7 -7.85 Q9.95 -5.6 10.65 -2.75 L10.95 0.0 Q10.95 4.6 7.7 7.8 4.45 11.05 -0.1 11.05 -4.7 11.05 -7.95 7.8 -11.2 4.6 -11.2 0.0 -11.2 -2.7 -10.05 -4.95 L-8.75 -6.9 -8.05 -7.7 Q-4.8 -10.95 -0.15 -10.95 L-0.1 -10.95 -0.1 -11.05 Q4.45 -11.05 7.7 -7.85 M10.0 0.05 L9.7 -2.75 Q8.95 -5.15 7.05 -7.1 4.05 -10.1 -0.15 -10.1 L-0.5 -10.1 Q-3.25 -10.0 -5.45 -8.65 L-5.45 -8.6 -5.65 -8.55 -6.25 -8.1 -7.4 -7.1 -8.2 -6.2 -8.45 -5.75 -8.65 -5.5 -8.85 -4.9 -8.9 -4.8 -9.0 -4.5 -9.05 -4.4 -9.35 -3.5 Q-10.05 -0.75 -8.65 1.15 -8.95 2.1 -8.4 3.5 -6.45 8.0 -2.05 8.0 -0.15 10.3 3.3 8.6 L4.55 7.9 3.5 9.7 3.65 9.65 3.85 9.55 7.05 7.3 7.25 7.05 7.95 6.25 8.1 6.1 Q10.0 3.55 10.0 0.1 L10.0 0.05 M6.85 2.15 L6.75 2.35 6.7 2.15 6.85 2.15" fill="#9a00a6" fill-rule="evenodd" stroke="none"/>
      <path d="M7.2 -8.0 L5.1 -9.5 5.05 -9.55 Q2.7 -10.85 -0.15 -10.85 L-0.65 -10.85 Q-3.45 -10.75 -5.7 -9.3 L-6.5 -8.8 -7.85 -7.65 Q-10.55 -4.95 -10.95 -1.4 L-11.05 0.05 Q-11.05 3.35 -9.3 5.95 L-8.5 7.0 -7.85 7.75 Q-6.1 9.5 -3.9 10.3 L-0.15 10.95 Q4.35 10.95 7.55 7.75 10.75 4.55 10.75 0.05 L10.5 -2.5 Q9.8 -5.4 7.55 -7.65 L7.2 -8.0 M7.9 8.1 Q4.55 11.45 -0.15 11.45 -4.85 11.45 -8.2 8.1 -11.55 4.75 -11.55 0.05 -11.55 -4.65 -8.2 -8.0 -4.85 -11.35 -0.15 -11.35 4.55 -11.35 7.9 -8.0 11.25 -4.65 11.25 0.05 11.25 4.75 7.9 8.1" fill="#000000" fill-rule="evenodd" stroke="none"/>
      <path d="M-11.0 7.9 L-11.3 7.5 -11.1 7.75 -11.0 7.9 M-4.5 12.75 Q-5.7 12.35 -6.75 11.75 L-5.05 12.55 -4.5 12.75" fill="#c5a807" fill-rule="evenodd" stroke="none"/>
    </g>
  </defs>
</svg>
