<?xml version="1.0" encoding="UTF-8" standalone="no"?>
<svg xmlns:ffdec="https://www.free-decompiler.com/flash" xmlns:xlink="http://www.w3.org/1999/xlink" ffdec:objectType="frame" height="172.45px" width="146.5px" xmlns="http://www.w3.org/2000/svg">
  <g transform="matrix(1.0, 0.0, 0.0, 1.0, 73.25, 86.2)">
    <use ffdec:characterId="604" height="172.45" transform="matrix(1.0, 0.0, 0.0, 1.0, -73.25, -86.2)" width="146.5" xlink:href="#shape0"/>
  </g>
  <defs>
    <g id="shape0" transform="matrix(1.0, 0.0, 0.0, 1.0, 73.25, 86.2)">
      <path d="M29.2 64.55 Q29.5 65.75 29.1 66.95 L29.05 67.15 Q28.5 68.35 27.35 69.05 L26.5 69.6 26.45 69.6 26.4 69.65 26.45 69.65 26.05 69.95 Q25.4 70.75 25.0 71.75 23.2 77.05 22.0 79.2 L21.9 79.4 Q20.15 82.4 17.3 83.9 16.15 85.2 13.7 85.8 L13.35 85.85 13.2 85.9 Q10.75 86.25 -2.0 86.25 L-2.3 86.25 Q-3.95 86.25 -5.1 85.15 L-5.1 85.1 -5.15 85.1 Q-6.3 83.9 -6.3 82.25 L-6.3 65.55 Q-6.3 63.9 -5.15 62.75 L-5.1 62.7 Q-3.95 61.55 -2.3 61.55 L25.35 61.55 Q26.7 61.55 27.8 62.4 L27.95 62.55 Q28.85 63.3 29.2 64.55" fill="#1a1a1a" fill-rule="evenodd" stroke="none"/>
      <path d="M0.5 85.1 Q-0.65 86.25 -2.3 86.25 L-17.9 85.05 Q-19.3 84.8 -20.2 83.75 L-20.35 83.55 Q-21.15 82.5 -21.15 81.15 L-21.15 65.55 Q-21.15 63.9 -20.0 62.75 L-19.95 62.7 Q-18.8 61.55 -17.15 61.55 L-2.3 61.55 Q-0.65 61.55 0.55 62.7 L0.55 62.75 0.6 62.75 Q1.7 63.9 1.7 65.55 L1.7 82.25 Q1.7 83.9 0.5 85.1" fill="#1a1a1a" fill-rule="evenodd" stroke="none"/>
      <path d="M-27.15 71.15 Q-24.75 68.75 -21.35 68.75 -17.95 68.75 -15.5 71.15 -13.1 73.55 -13.1 76.95 -13.1 80.35 -15.5 82.75 -17.95 85.15 -21.35 85.15 -24.75 85.15 -27.15 82.75 -29.6 80.35 -29.6 76.95 -29.6 73.55 -27.15 71.15" fill="#1a1a1a" fill-rule="evenodd" stroke="none"/>
      <path d="M-14.25 62.75 Q-13.15 63.9 -13.15 65.55 L-13.15 72.8 Q-13.15 74.45 -14.25 75.65 L-14.3 75.65 -14.3 75.7 Q-15.5 76.8 -17.15 76.8 L-25.6 76.8 Q-26.8 76.8 -27.8 76.2 L-28.0 76.0 Q-28.85 75.35 -29.3 74.4 L-29.8 73.2 -33.05 70.85 -33.6 70.45 -33.5 70.5 -34.7 69.35 -35.1 69.15 -35.3 69.1 Q-36.5 68.4 -37.05 67.15 L-37.1 66.95 Q-37.55 65.85 -37.3 64.7 L-37.25 64.55 Q-36.95 63.35 -35.95 62.55 L-35.8 62.4 Q-34.75 61.55 -33.35 61.55 L-17.15 61.55 Q-15.5 61.55 -14.3 62.7 L-14.3 62.75 -14.25 62.75" fill="#1a1a1a" fill-rule="evenodd" stroke="none"/>
      <path d="M65.3 34.7 Q66.4 35.65 66.65 37.05 L66.65 37.1 Q66.9 38.5 66.2 39.75 L65.45 40.95 65.35 41.1 65.3 41.2 Q62.9 45.1 62.75 47.65 62.75 51.3 61.95 54.95 L61.95 55.0 61.95 55.05 Q61.25 58.0 60.15 59.9 59.8 63.55 54.45 65.55 L54.25 65.6 54.1 65.7 54.15 65.65 Q49.7 67.4 40.05 66.45 L31.85 67.55 31.55 67.55 Q29.05 68.05 27.25 69.05 L27.3 69.05 Q26.35 69.55 25.35 69.55 L-33.35 69.55 -35.2 69.1 -35.25 69.05 -35.55 68.9 -35.75 68.8 Q-40.6 66.25 -42.45 65.6 L-42.7 65.55 -53.15 62.45 -53.45 62.35 Q-56.45 61.45 -58.55 60.35 -62.7 59.25 -64.5 54.1 L-64.5 53.95 -64.55 53.75 -64.55 53.8 -64.65 53.5 Q-65.3 51.3 -65.25 48.95 L-65.25 48.9 Q-65.3 47.95 -64.6 45.05 L-64.4 44.05 -66.55 39.45 Q-67.15 38.2 -66.85 36.85 -66.55 35.6 -65.6 34.8 L-65.4 34.6 Q-64.35 33.75 -62.95 33.75 L62.7 33.75 Q64.15 33.75 65.3 34.7 M-53.55 62.3 L-53.45 62.35 -53.55 62.3" fill="#1a1a1a" fill-rule="evenodd" stroke="none"/>
      <path d="M69.15 -1.25 Q70.15 -0.6 70.65 0.5 71.05 1.5 70.9 2.6 L70.9 2.65 70.85 2.8 70.85 2.85 70.1 6.7 69.2 11.0 69.2 11.1 69.2 11.15 Q67.75 17.7 66.5 21.95 70.05 25.0 70.25 27.65 70.55 28.6 70.5 29.5 L70.5 29.6 Q70.5 32.7 68.5 35.1 L66.15 39.8 66.15 39.85 64.9 41.1 64.7 41.25 Q63.75 41.75 62.7 41.75 L-62.95 41.75 Q-64.1 41.75 -65.1 41.15 L-65.25 41.0 Q-66.1 40.4 -66.55 39.45 L-67.5 37.45 Q-70.3 31.4 -71.2 27.6 L-71.55 26.85 -71.6 26.75 -71.8 26.3 Q-72.45 24.6 -72.5 22.95 L-72.5 22.25 -72.5 22.15 -72.5 22.05 Q-72.8 20.2 -71.25 17.65 -70.6 15.65 -69.45 14.85 L-68.15 13.95 -68.7 11.1 -70.4 3.3 Q-70.75 2.25 -70.5 1.15 L-70.5 1.1 -70.5 1.05 Q-70.15 -0.15 -69.2 -0.95 L-69.05 -1.1 Q-67.95 -1.95 -66.6 -1.95 L66.95 -1.95 Q68.15 -1.95 69.15 -1.25" fill="#1a1a1a" fill-rule="evenodd" stroke="none"/>
      <path d="M73.25 -16.45 Q73.2 -9.95 70.9 2.65 L70.85 2.85 Q70.6 4.1 69.7 4.95 L69.5 5.15 Q68.4 6.05 66.95 6.05 L-66.6 6.05 Q-68.0 6.05 -69.1 5.15 -70.2 4.3 -70.5 2.95 -72.6 -6.5 -73.1 -16.3 -73.15 -17.3 -72.7 -18.2 L-72.6 -18.4 Q-72.1 -19.4 -71.1 -19.95 L-71.15 -19.9 Q-70.2 -20.5 -69.1 -20.5 L69.25 -20.5 Q70.8 -20.5 71.9 -19.45 L72.15 -19.3 Q73.3 -18.1 73.25 -16.45" fill="#1a1a1a" fill-rule="evenodd" stroke="none"/>
      <path d="M67.85 -41.85 L67.9 -41.8 Q68.8 -41.15 69.25 -40.1 L69.3 -39.9 Q73.25 -29.05 73.25 -16.75 L73.25 -16.5 Q73.25 -14.85 72.15 -13.65 L72.1 -13.65 72.1 -13.6 Q70.9 -12.5 69.25 -12.5 L-69.1 -12.5 Q-70.7 -12.5 -71.85 -13.6 -73.05 -14.7 -73.1 -16.3 L-73.25 -22.55 Q-73.25 -31.5 -70.85 -39.65 -70.5 -40.95 -69.45 -41.75 -68.4 -42.55 -67.05 -42.55 L65.55 -42.55 Q66.8 -42.55 67.85 -41.85" fill="#1a1a1a" fill-rule="evenodd" stroke="none"/>
      <path d="M59.2 -57.95 L59.25 -57.95 Q65.8 -49.5 69.3 -39.9 L69.35 -39.6 Q69.65 -38.6 69.4 -37.55 L69.35 -37.4 Q69.0 -36.15 67.95 -35.35 66.85 -34.55 65.55 -34.55 L-67.05 -34.55 Q-68.3 -34.55 -69.35 -35.25 L-69.35 -35.3 Q-70.35 -36.0 -70.75 -37.1 L-70.8 -37.2 Q-71.25 -38.45 -70.85 -39.65 -67.8 -50.4 -60.65 -59.85 -42.9 -83.65 -5.0 -86.0 L-4.95 -86.0 -4.85 -86.0 -2.6 -86.15 -2.45 -86.15 -2.35 -86.15 -0.6 -85.85 6.3 -85.2 9.1 -84.65 9.25 -84.65 9.3 -84.65 Q22.8 -82.6 33.6 -77.7 L33.65 -77.7 33.9 -77.55 Q39.4 -75.5 42.85 -73.15 L42.75 -73.25 43.15 -73.0 43.2 -73.0 Q45.0 -71.75 47.0 -69.95 53.85 -64.75 59.2 -57.95" fill="#1a1a1a" fill-rule="evenodd" stroke="none"/>
      <path d="M64.15 32.4 L63.95 32.95 64.1 32.45 64.15 32.4 M-61.4 19.85 L-60.95 19.4 -57.65 15.95 Q-56.65 15.5 -56.15 14.2 -55.75 13.05 -55.75 10.75 -55.75 8.65 -56.6 7.0 L-57.1 7.15 Q-57.25 6.45 -57.25 7.7 -56.6 10.5 -56.5 11.4 -56.4 12.4 -58.1 14.85 L-59.35 15.7 Q-59.45 14.6 -61.6 5.3 -63.85 -4.5 -63.85 -12.35 L-63.5 -28.85 -63.55 -28.85 -62.6 -35.0 Q-62.6 -40.1 -59.0 -47.0 -54.75 -55.05 -47.35 -61.5 -36.55 -70.95 -22.1 -74.45 L-13.9 -75.85 -11.8 -76.2 Q-4.15 -76.95 4.4 -76.25 L4.45 -76.3 13.65 -75.0 Q28.15 -71.6 37.65 -66.4 L42.15 -63.1 Q48.4 -58.55 53.2 -52.3 L54.85 -49.7 58.0 -43.9 Q57.5 -43.35 57.5 -42.3 L59.25 -35.3 Q61.0 -28.0 61.0 -20.8 L60.45 -11.25 Q59.85 -2.9 59.5 -1.25 58.8 1.65 55.8 10.25 L54.45 14.3 Q54.05 14.6 53.45 16.0 52.65 17.7 52.65 18.45 L52.9 19.4 52.5 19.2 Q52.5 21.5 57.65 24.9 L59.4 26.1 59.35 26.75 60.0 31.6 Q60.0 32.95 57.6 36.75 55.15 40.55 55.15 41.3 L55.35 42.4 55.55 42.9 55.35 43.2 Q55.05 40.8 54.5 39.25 L53.85 39.35 53.25 39.65 Q53.6 40.75 53.8 44.65 L53.85 45.4 Q53.5 45.45 53.1 45.75 52.3 46.35 52.0 48.4 51.6 50.75 51.0 51.5 47.75 55.6 38.7 57.2 L33.1 58.15 32.9 58.2 Q26.35 58.6 24.0 59.75 22.2 60.6 21.7 62.45 L21.3 63.8 Q19.55 64.65 18.45 66.3 L16.4 70.05 Q13.4 74.7 3.65 74.95 L-10.75 74.95 Q-13.5 75.1 -16.45 73.3 -18.75 71.85 -19.65 70.45 L-21.2 67.1 Q-22.55 65.0 -24.55 64.6 -26.25 62.4 -28.5 61.2 L-28.5 61.1 Q-28.5 57.9 -39.45 55.05 L-48.4 52.85 Q-53.4 49.25 -54.3 47.35 -54.75 46.35 -55.0 44.5 L-55.25 41.5 -56.1 39.85 -56.1 38.6 -56.0 38.0 Q-56.0 34.65 -59.05 29.6 -62.15 24.5 -62.15 23.35 L-61.75 22.15 Q-61.4 21.4 -61.4 20.7 L-61.4 20.35 -61.4 20.25 -61.4 19.85 M-29.25 -50.45 Q-26.0 -56.2 -26.0 -59.4 -26.0 -61.4 -26.65 -63.3 -27.6 -66.0 -29.5 -66.25 -44.55 -61.75 -50.45 -53.1 -54.5 -47.15 -54.5 -38.2 -54.8 -35.4 -54.15 -32.65 -52.9 -27.15 -48.35 -27.15 -47.3 -27.15 -41.65 -34.3 L-34.75 -42.9 Q-32.2 -45.3 -29.25 -50.45 M-52.3 -7.5 Q-53.5 -6.3 -53.5 -1.1 -53.5 4.7 -53.15 6.2 L-52.9 6.85 -52.95 6.85 -52.9 6.95 Q-52.25 8.4 -50.5 9.45 -47.5 10.8 -44.1 12.6 L-43.2 13.25 -42.85 13.3 Q-36.75 16.75 -29.5 21.75 L-30.65 20.0 -29.55 21.0 -29.5 20.85 Q-29.85 18.75 -32.95 15.95 -33.45 15.45 -34.2 14.85 L-34.3 14.75 -36.75 12.95 Q-42.75 8.7 -45.05 6.6 L-46.9 4.45 Q-48.6 1.7 -49.25 -2.8 L-49.75 -5.5 Q-50.1 -7.55 -51.15 -9.7 L-52.0 -11.1 -52.3 -7.5 M29.45 19.9 Q26.4 21.95 25.75 23.9 L26.25 24.15 Q28.85 21.85 33.9 19.75 L42.35 16.3 Q52.0 11.5 52.0 0.1 52.0 -2.35 51.5 -4.25 L50.9 -4.25 50.9 -6.15 Q50.75 -7.5 50.25 -8.15 L49.15 -0.55 Q48.4 4.2 46.5 7.35 L43.45 11.4 Q41.2 14.0 39.25 14.95 L32.5 17.85 Q30.65 18.7 29.45 19.9 M45.0 17.15 Q44.85 17.6 45.05 18.1 45.35 19.0 46.85 19.0 49.85 19.0 52.75 10.45 52.75 6.85 48.9 11.6 L45.0 17.15 M43.75 21.5 Q43.75 19.65 43.45 19.25 42.95 17.3 36.5 19.75 33.65 20.85 31.95 21.9 30.5 22.45 27.85 23.95 23.5 26.4 23.5 26.95 L23.6 27.5 Q23.9 28.0 24.6 28.0 L34.2 26.5 Q43.75 24.4 43.75 21.5 M52.95 27.15 L53.15 27.0 53.0 26.7 Q52.25 26.1 49.1 25.85 L44.0 26.0 Q35.55 27.0 18.75 33.0 6.7 37.3 2.95 38.4 L2.15 38.0 1.4 37.25 Q-0.4 34.85 -0.75 31.6 L-1.15 23.95 Q-1.9 17.1 -2.4 19.5 -2.7 17.1 -3.1 16.15 L-3.5 16.25 Q-3.1 20.85 -4.25 28.15 L-5.3 36.45 -7.05 37.95 Q-8.6 39.5 -9.25 39.5 -9.65 39.5 -17.75 35.5 -26.15 31.4 -29.75 29.35 -30.65 28.8 -35.4 27.3 -40.05 25.8 -42.05 25.35 L-49.6 23.8 Q-55.4 22.95 -56.35 24.35 L-56.6 24.4 Q-59.5 25.4 -59.5 26.65 -59.5 27.45 -59.3 27.5 L-59.15 27.45 -59.15 27.5 -58.5 28.25 -58.45 28.25 -57.25 28.45 -56.35 28.45 -55.8 30.7 -54.95 33.75 -53.65 37.5 -50.95 42.25 Q-49.2 44.8 -47.45 45.35 L-46.45 45.85 -43.25 46.5 -39.35 47.9 Q-34.55 49.15 -28.25 49.15 -18.65 49.15 -15.6 47.3 -15.05 46.95 -14.65 46.4 L-13.1 47.75 -10.25 48.8 Q-10.35 52.2 -11.35 54.75 -12.5 57.5 -12.5 58.4 -12.5 59.55 -11.75 60.7 -10.45 62.6 -7.5 62.6 L-6.05 62.2 -5.8 62.05 -5.8 62.1 -5.25 62.25 -4.4 61.6 -4.4 62.15 Q-4.4 63.4 -4.0 64.6 -3.1 67.0 -0.75 67.0 0.6 67.0 1.35 66.4 L1.5 66.5 2.0 66.6 Q2.5 66.6 3.0 66.1 L3.5 66.2 Q4.85 66.2 5.95 65.3 7.15 65.1 8.0 64.1 8.9 63.0 8.9 61.75 8.9 60.05 7.65 57.65 L6.35 55.2 5.0 53.5 2.1 49.75 2.4 50.6 1.45 48.8 1.5 48.5 2.1 48.5 Q3.65 48.5 5.1 47.7 L5.2 47.7 6.75 47.45 7.25 47.1 10.65 48.7 Q18.05 51.65 29.25 51.65 L31.75 51.55 31.75 51.5 33.1 51.5 34.45 51.25 34.75 51.25 34.75 51.55 Q40.05 51.0 42.4 47.9 43.45 47.55 44.75 45.25 46.1 42.85 46.1 42.0 L46.1 41.75 46.25 40.55 46.0 35.75 Q45.85 33.7 47.1 31.85 48.1 30.4 50.95 29.95 53.15 29.6 53.4 28.75 L53.95 28.75 54.9 28.6 54.9 28.4 54.75 28.0 Q54.3 27.4 52.95 27.15 M54.25 36.5 L54.7 36.45 55.0 36.75 56.4 34.7 56.35 34.45 56.6 33.45 Q56.6 31.8 55.0 32.65 53.4 33.5 53.4 35.1 L53.45 35.8 Q53.65 36.5 54.25 36.5 M50.15 48.95 Q50.15 45.85 46.55 48.9 L42.9 52.55 43.0 53.1 Q43.3 53.6 44.35 53.6 46.35 53.6 48.35 51.65 50.15 49.95 50.15 48.95 M12.25 77.4 L11.85 77.8 11.75 77.75 11.0 78.0 10.3 78.0 12.25 77.4 M-18.55 76.25 L-19.25 76.15 -19.45 75.6 -18.55 76.25 M-35.25 23.3 Q-35.0 23.15 -35.0 22.5 -35.0 21.6 -38.1 19.35 -41.3 16.95 -44.9 15.35 -54.8 10.85 -54.8 17.6 -54.8 18.9 -53.95 19.4 -52.15 20.4 -45.65 20.75 -44.55 20.75 -36.25 23.5 L-35.25 23.3 M-5.25 20.7 Q-5.25 18.35 -6.3 19.35 -7.4 20.3 -7.4 22.0 L-7.6 24.25 -7.9 26.5 -8.4 28.75 -9.05 31.0 Q-9.45 32.6 -11.4 33.5 -13.15 34.35 -13.15 35.2 -12.05 37.7 -9.85 37.7 -6.55 37.7 -6.0 34.1 -5.75 32.25 -6.05 29.6 L-5.55 25.1 Q-5.25 22.4 -5.25 20.7 M-9.45 35.55 L-9.9 35.7 -9.25 35.25 -9.45 35.55 M-54.25 2.3 L-53.85 4.95 -54.0 4.25 -54.25 2.3 M-53.65 27.8 L-53.7 28.0 -53.8 27.85 -53.65 27.8 M-18.0 59.4 Q-17.0 57.65 -17.0 56.75 -17.0 53.75 -17.3 52.25 -17.45 51.0 -18.35 49.75 -19.0 48.7 -19.2 49.65 L-19.85 49.45 -22.55 50.1 -31.75 50.1 -36.6 49.35 Q-37.75 49.2 -37.75 50.1 -37.75 51.2 -36.85 52.25 L-36.65 52.5 -36.05 53.0 Q-34.1 54.55 -30.25 55.5 -28.75 55.85 -25.35 57.9 L-23.95 59.0 -21.25 61.05 -21.25 61.1 Q-21.1 61.5 -20.35 61.5 -19.15 61.5 -18.0 59.4 M-34.2 51.2 L-35.4 51.25 -35.5 51.1 -35.55 51.0 -34.2 51.2 M-21.0 58.2 L-20.9 57.85 -20.8 57.9 -20.9 58.25 -21.0 58.2" fill="#cccccc" fill-rule="evenodd" stroke="none"/>
      <path d="M-61.4 19.85 L-61.4 20.25 -61.4 20.35 -61.4 20.7 Q-61.4 21.4 -61.75 22.15 L-62.15 23.35 Q-62.15 24.5 -59.05 29.6 -56.0 34.65 -56.0 38.0 L-56.1 38.6 -56.1 38.45 -56.15 37.25 -56.5 36.4 -57.1 36.4 -57.4 37.9 -58.25 36.75 -61.65 29.7 -63.35 25.75 -64.25 23.4 -64.25 23.0 Q-64.25 22.6 -61.4 19.85 M-56.1 39.85 L-55.25 41.5 -55.0 44.5 Q-54.75 46.35 -54.3 47.35 -53.4 49.25 -48.4 52.85 L-39.45 55.05 Q-28.5 57.9 -28.5 61.1 L-28.5 61.2 Q-30.45 60.15 -32.85 59.9 -35.55 58.65 -39.5 57.55 L-48.5 55.2 Q-53.1 53.85 -54.6 52.5 -55.9 51.4 -56.4 49.7 L-56.75 46.45 -56.75 46.0 -56.65 44.8 Q-56.35 42.9 -56.45 41.35 L-56.2 40.5 -56.1 39.85 M-24.55 64.6 Q-22.55 65.0 -21.2 67.1 L-19.65 70.45 Q-18.75 71.85 -16.45 73.3 -13.5 75.1 -10.75 74.95 L3.65 74.95 Q13.4 74.7 16.4 70.05 L18.45 66.3 Q19.55 64.65 21.3 63.8 L21.15 64.4 20.15 65.8 Q18.95 67.65 17.9 70.0 L16.55 72.45 13.85 75.6 12.25 77.4 10.3 78.0 -9.5 78.0 Q-10.65 77.6 -12.95 77.15 L-13.65 76.95 -13.6 77.05 -18.55 76.25 -19.45 75.6 Q-22.35 67.5 -24.2 65.05 L-24.55 64.6 M32.9 58.2 L33.1 58.15 38.7 57.2 Q47.75 55.6 51.0 51.5 51.6 50.75 52.0 48.4 52.3 46.35 53.1 45.75 53.5 45.45 53.85 45.4 L54.05 46.45 Q54.1 48.2 54.7 51.1 L54.4 52.25 Q53.45 54.65 50.05 57.15 L48.45 58.2 Q38.9 57.85 32.9 58.2 M55.55 42.9 L55.35 42.4 55.15 41.3 Q55.15 40.55 57.6 36.75 60.0 32.95 60.0 31.6 L59.35 26.75 59.4 26.1 59.95 26.5 Q61.65 28.9 61.85 31.8 L59.05 36.95 55.55 42.9 M54.45 14.3 L55.8 10.25 Q58.8 1.65 59.5 -1.25 59.85 -2.9 60.45 -11.25 L61.0 -20.8 Q61.0 -28.0 59.25 -35.3 L57.5 -42.3 Q57.5 -43.35 58.0 -43.9 L59.4 -41.35 59.4 -41.25 62.15 -31.25 Q64.9 -20.65 64.9 -12.0 64.9 -6.75 63.65 1.3 L63.3 3.45 62.1 8.5 58.45 22.3 Q54.15 19.15 54.15 18.45 54.15 17.75 54.7 16.15 L54.85 15.8 55.65 13.6 55.4 12.65 Q55.15 12.9 54.6 14.3 L54.5 14.25 54.45 14.3 M-52.3 -7.5 L-52.0 -11.1 -51.15 -9.7 Q-50.1 -7.55 -49.75 -5.5 L-49.25 -2.8 Q-48.6 1.7 -46.9 4.45 L-45.05 6.6 Q-42.75 8.7 -36.75 12.95 L-34.3 14.75 -34.2 14.85 Q-33.45 15.45 -32.95 15.95 -29.85 18.75 -29.5 20.85 L-29.55 21.0 -30.65 20.0 Q-33.2 16.5 -37.5 13.9 -39.65 12.6 -44.8 11.3 -48.7 10.35 -50.5 8.0 -52.4 5.5 -52.1 0.5 -51.7 -6.25 -52.0 -7.75 L-52.3 -7.5 M-42.85 13.3 L-43.2 13.25 -44.1 12.6 -42.85 13.3 M-52.9 6.95 L-52.95 6.85 -52.9 6.85 -52.9 6.95 M50.9 -4.25 L50.75 -4.25 49.8 3.5 Q48.95 8.2 46.75 10.9 45.35 12.65 35.75 16.65 31.85 18.3 29.45 19.9 30.65 18.7 32.5 17.85 L39.25 14.95 Q41.2 14.0 43.45 11.4 L46.5 7.35 Q48.4 4.2 49.15 -0.55 L50.25 -8.15 Q50.75 -7.5 50.9 -6.15 L50.9 -4.25 M-2.4 19.5 Q-1.9 17.1 -1.15 23.95 L-0.75 31.6 Q-0.4 34.85 1.4 37.25 L2.15 38.0 2.95 38.4 Q6.7 37.3 18.75 33.0 35.55 27.0 44.0 26.0 L49.1 25.85 Q52.25 26.1 53.0 26.7 L53.15 27.0 52.95 27.15 52.3 27.0 44.75 26.65 44.2 27.05 Q29.95 29.8 29.55 30.7 25.4 32.1 20.8 33.85 6.2 39.4 1.15 41.0 L0.6 41.0 -0.3 38.6 Q-0.9 37.2 -1.85 36.5 -1.6 35.55 -1.6 34.35 L-1.75 28.95 -1.6 26.6 Q-1.6 24.15 -2.1 19.65 L-2.4 19.65 -2.4 19.5 M53.4 28.75 Q53.15 29.6 50.95 29.95 48.1 30.4 47.1 31.85 45.85 33.7 46.0 35.75 L46.25 40.55 46.1 41.75 46.1 42.0 Q46.1 42.85 44.75 45.25 43.45 47.55 42.4 47.9 44.15 45.5 44.15 41.65 44.15 34.85 43.55 29.6 L47.15 28.35 48.95 28.45 53.4 28.75 M7.25 47.1 L6.75 47.45 5.2 47.7 5.1 47.7 Q3.65 48.5 2.1 48.5 L1.5 48.5 1.5 48.15 Q1.5 43.35 -2.2 45.1 -4.15 46.05 -5.35 47.35 L-5.35 47.3 -5.5 47.5 Q-6.2 48.25 -6.6 49.15 L-6.55 49.2 Q-9.15 53.3 -11.75 58.5 -11.75 59.25 -10.75 60.2 -9.2 61.75 -6.0 61.75 L-5.75 61.75 -5.8 62.05 -6.05 62.2 -7.5 62.6 Q-10.45 62.6 -11.75 60.7 -12.5 59.55 -12.5 58.4 -12.5 57.5 -11.35 54.75 -10.35 52.2 -10.25 48.8 L-13.1 47.75 -14.65 46.4 Q-13.9 45.3 -13.85 43.5 -11.95 44.3 -10.75 44.5 L-9.75 45.15 Q-8.45 45.15 -6.9 44.15 L-6.3 43.75 -6.25 43.75 -5.85 43.45 -5.0 42.9 -5.05 42.8 -4.25 42.15 -2.9 42.45 -2.75 42.7 -2.0 43.3 -2.35 43.6 -2.0 43.4 -1.85 43.35 Q-0.4 44.0 2.75 44.0 L3.6 43.95 Q4.85 45.7 7.25 47.1 M1.35 66.4 Q0.6 67.0 -0.75 67.0 -3.1 67.0 -4.0 64.6 -4.4 63.4 -4.4 62.15 L-4.4 61.6 -3.85 60.85 Q-3.25 59.9 -3.25 59.4 L-2.65 62.9 Q-2.0 66.15 0.0 66.15 L1.25 66.0 1.35 66.4 M-43.25 46.5 L-46.45 45.85 -47.45 45.35 Q-49.2 44.8 -50.95 42.25 L-53.65 37.5 -54.95 33.75 -55.8 30.7 -56.35 28.45 -57.25 28.45 -58.45 28.25 -58.5 28.25 -59.15 27.5 -59.15 27.45 -59.1 27.4 -55.0 26.6 -53.45 26.3 -53.6 27.2 -53.65 27.8 -53.8 27.85 -53.7 28.0 Q-54.25 33.65 -51.7 38.65 -49.8 42.35 -46.35 44.75 -44.95 45.75 -43.25 46.5 M-56.35 24.35 Q-55.4 22.95 -49.6 23.8 L-42.05 25.35 Q-40.05 25.8 -35.4 27.3 -30.65 28.8 -29.75 29.35 -26.15 31.4 -17.75 35.5 -9.65 39.5 -9.25 39.5 -8.6 39.5 -7.05 37.95 L-5.3 36.45 -5.4 37.35 -6.45 39.1 Q-7.5 41.05 -8.0 41.5 L-10.1 41.5 Q-23.05 33.9 -28.45 31.6 -34.1 29.2 -41.35 27.05 L-46.25 25.7 -52.5 24.15 -52.5 24.25 -56.35 24.35 M42.55 29.95 L42.5 30.1 42.4 30.0 42.55 29.95 M-3.5 58.9 L-3.35 58.75 -3.3 59.0 -3.4 58.9 -3.5 58.9 M-54.25 2.3 L-54.0 4.25 -53.85 4.95 -54.25 2.3" fill="#a0a0a0" fill-rule="evenodd" stroke="none"/>
      <path d="M-29.25 -50.45 Q-32.2 -45.3 -34.75 -42.9 L-41.65 -34.3 Q-47.3 -27.15 -48.35 -27.15 -52.9 -27.15 -54.15 -32.65 -54.8 -35.4 -54.5 -38.2 -54.5 -47.15 -50.45 -53.1 -44.55 -61.75 -29.5 -66.25 -27.6 -66.0 -26.65 -63.3 -26.0 -61.4 -26.0 -59.4 -26.0 -56.2 -29.25 -50.45 M43.75 21.5 Q43.75 24.4 34.2 26.5 L24.6 28.0 Q23.9 28.0 23.6 27.5 L23.5 26.95 Q23.5 26.4 27.85 23.95 30.5 22.45 31.95 21.9 33.65 20.85 36.5 19.75 42.95 17.3 43.45 19.25 43.75 19.65 43.75 21.5 M45.0 17.15 L48.9 11.6 Q52.75 6.85 52.75 10.45 49.85 19.0 46.85 19.0 45.35 19.0 45.05 18.1 44.85 17.6 45.0 17.15 M2.4 50.6 L2.1 49.75 5.0 53.5 6.35 55.2 7.65 57.65 Q8.9 60.05 8.9 61.75 8.9 63.0 8.0 64.1 7.15 65.1 5.95 65.3 4.85 66.2 3.5 66.2 L3.0 66.1 Q2.5 66.6 2.0 66.6 L1.5 66.5 1.35 66.4 1.25 66.0 4.35 64.9 Q7.65 63.5 7.65 62.5 7.65 60.15 3.95 53.4 L2.4 50.6 M-4.4 61.6 L-5.25 62.25 -5.8 62.1 -5.8 62.05 -5.75 61.75 Q-5.0 61.6 -4.55 60.7 L-3.5 58.9 -3.4 58.9 -3.3 59.0 -3.25 59.35 -3.25 59.4 Q-3.25 59.9 -3.85 60.85 L-4.4 61.6 M54.25 36.5 Q53.65 36.5 53.45 35.8 L53.4 35.1 Q53.4 33.5 55.0 32.65 56.6 31.8 56.6 33.45 L56.35 34.45 56.4 34.7 55.0 36.75 54.7 36.45 54.25 36.5 M50.15 48.95 Q50.15 49.95 48.35 51.65 46.35 53.6 44.35 53.6 43.3 53.6 43.0 53.1 L42.9 52.55 46.55 48.9 Q50.15 45.85 50.15 48.95 M-5.25 20.7 Q-5.25 22.4 -5.55 25.1 L-6.05 29.6 Q-5.75 32.25 -6.0 34.1 -6.55 37.7 -9.85 37.7 -12.05 37.7 -13.15 35.2 -13.15 34.35 -11.4 33.5 -9.45 32.6 -9.05 31.0 L-8.4 28.75 -7.9 26.5 -7.6 24.25 -7.4 22.0 Q-7.4 20.3 -6.3 19.35 -5.25 18.35 -5.25 20.7 M-35.25 23.3 L-36.25 23.5 Q-44.55 20.75 -45.65 20.75 -52.15 20.4 -53.95 19.4 -54.8 18.9 -54.8 17.6 -54.8 10.85 -44.9 15.35 -41.3 16.95 -38.1 19.35 -35.0 21.6 -35.0 22.5 -35.0 23.15 -35.25 23.3 M-9.45 35.55 L-9.25 35.25 -9.9 35.7 -9.45 35.55 M-18.0 59.4 Q-19.15 61.5 -20.35 61.5 -21.1 61.5 -21.25 61.1 L-21.25 61.05 -23.95 59.0 -25.35 57.9 Q-28.75 55.85 -30.25 55.5 -34.1 54.55 -36.05 53.0 L-36.65 52.5 -36.85 52.25 Q-37.75 51.2 -37.75 50.1 -37.75 49.2 -36.6 49.35 L-31.75 50.1 -22.55 50.1 -19.85 49.45 -19.2 49.65 Q-19.0 48.7 -18.35 49.75 -17.45 51.0 -17.3 52.25 -17.0 53.75 -17.0 56.75 -17.0 57.65 -18.0 59.4 M-21.0 58.2 L-20.9 58.25 -20.8 57.9 -20.9 57.85 -21.0 58.2 M-34.2 51.2 L-35.55 51.0 -35.5 51.1 -35.4 51.25 -34.2 51.2" fill="#ffffff" fill-rule="evenodd" stroke="none"/>
      <path d="M40.4 37.45 Q40.35 40.85 39.4 42.75 38.0 45.6 34.9 46.85 L34.4 46.75 33.75 46.95 Q29.8 48.2 21.5 48.2 15.4 48.2 11.0 46.2 L9.75 45.6 Q12.25 44.95 17.3 42.65 24.9 39.15 25.5 39.0 L29.8 37.55 32.65 36.65 36.55 36.7 40.4 37.45 M-48.15 34.4 L-47.65 34.15 -43.85 33.75 -41.7 34.2 -35.85 35.15 Q-31.55 36.45 -26.2 39.1 L-17.35 44.1 -17.55 44.5 -17.75 44.55 -18.25 44.9 Q-37.25 44.9 -43.75 41.3 -47.55 39.15 -48.15 34.4" fill="#666666" fill-rule="evenodd" stroke="none"/>
      <path d="M9.75 45.6 Q7.6 44.4 7.6 43.7 7.6 42.85 8.5 42.55 L9.35 42.4 9.25 42.35 Q12.7 41.05 17.75 38.8 L28.45 33.8 31.0 32.95 32.25 32.7 Q35.6 31.4 37.95 31.4 L38.7 31.3 39.45 31.0 39.9 33.95 40.4 37.15 40.4 37.45 36.55 36.7 32.65 36.65 29.8 37.55 25.5 39.0 Q24.9 39.15 17.3 42.65 12.25 44.95 9.75 45.6 M-17.35 44.1 L-26.2 39.1 Q-31.55 36.45 -35.85 35.15 L-41.7 34.2 -43.85 33.75 -47.65 34.15 -48.15 34.4 -48.25 32.6 -48.05 29.2 Q-48.05 27.95 -48.2 27.1 L-47.85 27.15 Q-41.35 29.1 -35.3 31.5 L-30.35 33.8 -27.15 35.25 -27.75 35.25 -18.85 40.75 -16.35 42.25 -16.45 42.35 -17.35 44.1" fill="#333333" fill-rule="evenodd" stroke="none"/>
      <path d="M63.95 32.95 Q63.1 35.25 61.2 38.3 57.75 43.9 57.75 47.5 57.75 50.75 57.05 53.9 56.35 56.9 55.15 58.25 L55.15 58.45 Q55.15 59.95 52.7 60.85 48.85 62.35 40.0 61.4 L31.35 62.55 Q26.2 63.4 23.25 65.75 L23.1 65.65 Q21.35 67.5 20.35 69.85 18.65 75.0 17.55 76.9 16.3 79.05 14.05 79.8 L13.7 80.25 Q13.4 80.7 12.55 80.9 10.75 81.25 -2.0 81.25 -22.5 81.25 -22.75 76.75 L-23.7 74.75 -25.75 70.15 -30.2 66.75 Q-31.1 66.1 -31.4 65.45 L-33.4 64.4 Q-39.15 61.35 -41.25 60.75 L-51.95 57.6 Q-54.85 56.7 -56.8 55.65 -58.85 55.1 -59.75 52.45 -60.3 50.75 -60.25 48.95 L-59.75 46.15 Q-59.25 44.0 -59.25 43.35 L-63.0 35.3 Q-65.85 29.2 -66.5 25.65 L-67.1 24.55 -67.5 22.65 -67.45 22.4 -67.5 21.7 Q-67.5 21.1 -66.95 20.2 L-66.6 19.75 Q-66.45 18.9 -66.15 18.6 L-62.5 16.6 -62.45 16.25 -63.2 15.1 -63.0 14.75 Q-63.0 13.8 -65.6 1.9 -68.25 -10.0 -68.25 -22.55 -68.25 -41.6 -56.65 -56.85 -40.05 -78.8 -4.75 -81.0 L-3.8 -80.95 -3.25 -81.0 -3.25 -81.25 -0.75 -80.85 5.45 -80.3 8.55 -79.7 Q21.45 -77.75 31.7 -73.1 37.05 -71.1 40.3 -68.9 L43.75 -66.1 Q50.25 -61.25 55.25 -54.85 68.25 -38.2 68.25 -16.75 68.25 -9.6 65.2 5.7 62.65 18.5 60.65 23.8 65.2 26.8 65.25 28.7 L65.5 29.5 Q65.5 31.2 64.15 32.4 L64.1 32.45 63.95 32.95 M58.0 -43.9 L54.85 -49.7 53.2 -52.3 Q48.4 -58.55 42.15 -63.1 L37.65 -66.4 Q28.15 -71.6 13.65 -75.0 L4.45 -76.3 4.4 -76.25 Q-4.15 -76.95 -11.8 -76.2 L-13.9 -75.85 -22.1 -74.45 Q-36.55 -70.95 -47.35 -61.5 -54.75 -55.05 -59.0 -47.0 -62.6 -40.1 -62.6 -35.0 L-63.55 -28.85 -63.5 -28.85 -63.85 -12.35 Q-63.85 -4.5 -61.6 5.3 -59.45 14.6 -59.35 15.7 L-58.1 14.85 Q-56.4 12.4 -56.5 11.4 -56.6 10.5 -57.25 7.7 -57.25 6.45 -57.1 7.15 L-56.6 7.0 Q-55.75 8.65 -55.75 10.75 -55.75 13.05 -56.15 14.2 -56.65 15.5 -57.65 15.95 L-60.95 19.4 -61.4 19.85 Q-64.25 22.6 -64.25 23.0 L-64.25 23.4 -63.35 25.75 -61.65 29.7 -58.25 36.75 -57.4 37.9 -57.1 36.4 -56.5 36.4 -56.15 37.25 -56.1 38.45 -56.1 38.6 -56.1 39.85 -56.2 40.5 -56.45 41.35 Q-56.35 42.9 -56.65 44.8 L-56.75 46.0 -56.75 46.45 -56.4 49.7 Q-55.9 51.4 -54.6 52.5 -53.1 53.85 -48.5 55.2 L-39.5 57.55 Q-35.55 58.65 -32.85 59.9 -30.45 60.15 -28.5 61.2 -26.25 62.4 -24.55 64.6 L-24.2 65.05 Q-22.35 67.5 -19.45 75.6 L-19.25 76.15 -18.55 76.25 -13.6 77.05 -13.65 76.95 -12.95 77.15 Q-10.65 77.6 -9.5 78.0 L10.3 78.0 11.0 78.0 11.75 77.75 11.85 77.8 12.25 77.4 13.85 75.6 16.55 72.45 17.9 70.0 Q18.95 67.65 20.15 65.8 L21.15 64.4 21.3 63.8 21.7 62.45 Q22.2 60.6 24.0 59.75 26.35 58.6 32.9 58.2 38.9 57.85 48.45 58.2 L50.05 57.15 Q53.45 54.65 54.4 52.25 L54.7 51.1 Q54.1 48.2 54.05 46.45 L53.85 45.4 53.8 44.65 Q53.6 40.75 53.25 39.65 L53.85 39.35 54.5 39.25 Q55.05 40.8 55.35 43.2 L55.55 42.9 59.05 36.95 61.85 31.8 Q61.65 28.9 59.95 26.5 L59.4 26.1 57.65 24.9 Q52.5 21.5 52.5 19.2 L52.9 19.4 52.65 18.45 Q52.65 17.7 53.45 16.0 54.05 14.6 54.45 14.3 L54.5 14.25 54.6 14.3 Q55.15 12.9 55.4 12.65 L55.65 13.6 54.85 15.8 54.7 16.15 Q54.15 17.75 54.15 18.45 54.15 19.15 58.45 22.3 L62.1 8.5 63.3 3.45 63.65 1.3 Q64.9 -6.75 64.9 -12.0 64.9 -20.65 62.15 -31.25 L59.4 -41.25 59.4 -41.35 58.0 -43.9 M-52.9 6.85 L-53.15 6.2 Q-53.5 4.7 -53.5 -1.1 -53.5 -6.3 -52.3 -7.5 L-52.0 -7.75 Q-51.7 -6.25 -52.1 0.5 -52.4 5.5 -50.5 8.0 -48.7 10.35 -44.8 11.3 -39.65 12.6 -37.5 13.9 -33.2 16.5 -30.65 20.0 L-29.5 21.75 Q-36.75 16.75 -42.85 13.3 L-44.1 12.6 Q-47.5 10.8 -50.5 9.45 -52.25 8.4 -52.9 6.95 L-52.9 6.85 M50.9 -4.25 L51.5 -4.25 Q52.0 -2.35 52.0 0.1 52.0 11.5 42.35 16.3 L33.9 19.75 Q28.85 21.85 26.25 24.15 L25.75 23.9 Q26.4 21.95 29.45 19.9 31.85 18.3 35.75 16.65 45.35 12.65 46.75 10.9 48.95 8.2 49.8 3.5 L50.75 -4.25 50.9 -4.25 M52.95 27.15 Q54.3 27.4 54.75 28.0 L54.9 28.4 54.9 28.6 53.95 28.75 53.4 28.75 48.95 28.45 47.15 28.35 43.55 29.6 Q44.15 34.85 44.15 41.65 44.15 45.5 42.4 47.9 40.05 51.0 34.75 51.55 L34.75 51.25 34.45 51.25 33.1 51.5 31.75 51.5 31.75 51.55 29.25 51.65 Q18.05 51.65 10.65 48.7 L7.25 47.1 Q4.85 45.7 3.6 43.95 L2.75 44.0 Q-0.4 44.0 -1.85 43.35 L-2.0 43.4 -2.35 43.6 -2.0 43.3 -2.75 42.7 -2.9 42.45 -4.25 42.15 -5.05 42.8 -5.0 42.9 -5.85 43.45 -6.25 43.75 -6.3 43.75 -6.9 44.15 Q-8.45 45.15 -9.75 45.15 L-10.75 44.5 Q-11.95 44.3 -13.85 43.5 -13.9 45.3 -14.65 46.4 -15.05 46.95 -15.6 47.3 -18.65 49.15 -28.25 49.15 -34.55 49.15 -39.35 47.9 L-43.25 46.5 Q-44.95 45.75 -46.35 44.75 -49.8 42.35 -51.7 38.65 -54.25 33.65 -53.7 28.0 L-53.65 27.8 -53.6 27.2 -53.45 26.3 -55.0 26.6 -59.1 27.4 -59.15 27.45 -59.3 27.5 Q-59.5 27.45 -59.5 26.65 -59.5 25.4 -56.6 24.4 L-56.35 24.35 -52.5 24.25 -52.5 24.15 -46.25 25.7 -41.35 27.05 Q-34.1 29.2 -28.45 31.6 -23.05 33.9 -10.1 41.5 L-8.0 41.5 Q-7.5 41.05 -6.45 39.1 L-5.4 37.35 -5.3 36.45 -4.25 28.15 Q-3.1 20.85 -3.5 16.25 L-3.1 16.15 Q-2.7 17.1 -2.4 19.5 L-2.4 19.65 -2.1 19.65 Q-1.6 24.15 -1.6 26.6 L-1.75 28.95 -1.6 34.35 Q-1.6 35.55 -1.85 36.5 -0.9 37.2 -0.3 38.6 L0.6 41.0 1.15 41.0 Q6.2 39.4 20.8 33.85 25.4 32.1 29.55 30.7 29.95 29.8 44.2 27.05 L44.75 26.65 52.3 27.0 52.95 27.15 M1.5 48.5 L1.45 48.8 2.4 50.6 3.95 53.4 Q7.65 60.15 7.65 62.5 7.65 63.5 4.35 64.9 L1.25 66.0 0.0 66.15 Q-2.0 66.15 -2.65 62.9 L-3.25 59.4 -3.25 59.35 -3.3 59.0 -3.35 58.75 -3.5 58.9 -4.55 60.7 Q-5.0 61.6 -5.75 61.75 L-6.0 61.75 Q-9.2 61.75 -10.75 60.2 -11.75 59.25 -11.75 58.5 -9.15 53.3 -6.55 49.2 L-6.6 49.15 Q-6.2 48.25 -5.5 47.5 L-5.35 47.3 -5.35 47.35 Q-4.15 46.05 -2.2 45.1 1.5 43.35 1.5 48.15 L1.5 48.5 M42.55 29.95 L42.4 30.0 42.5 30.1 42.55 29.95 M40.4 37.45 L40.4 37.15 39.9 33.95 39.45 31.0 38.7 31.3 37.95 31.4 Q35.6 31.4 32.25 32.7 L31.0 32.95 28.45 33.8 17.75 38.8 Q12.7 41.05 9.25 42.35 L9.35 42.4 8.5 42.55 Q7.6 42.85 7.6 43.7 7.6 44.4 9.75 45.6 L11.0 46.2 Q15.4 48.2 21.5 48.2 29.8 48.2 33.75 46.95 L34.4 46.75 34.9 46.85 Q38.0 45.6 39.4 42.75 40.35 40.85 40.4 37.45 M-17.35 44.1 L-16.45 42.35 -16.35 42.25 -18.85 40.75 -27.75 35.25 -27.15 35.25 -30.35 33.8 -35.3 31.5 Q-41.35 29.1 -47.85 27.15 L-48.2 27.1 Q-48.05 27.95 -48.05 29.2 L-48.25 32.6 -48.15 34.4 Q-47.55 39.15 -43.75 41.3 -37.25 44.9 -18.25 44.9 L-17.75 44.55 -17.55 44.5 -17.35 44.1" fill="#1a1a1a" fill-rule="evenodd" stroke="none"/>
      <path d="M16.35 -52.6 L18.45 -51.85 18.05 -51.8 16.35 -52.6 M27.95 -47.65 L33.15 -45.05 32.8 -45.05 32.8 -44.8 29.8 -46.55 27.95 -47.65 M34.6 -44.25 L35.3 -43.85 40.05 -41.1 Q42.05 -40.6 45.8 -36.35 L51.0 -30.35 Q56.25 -23.6 56.5 -19.1 L57.0 -18.6 57.0 -16.35 Q57.0 -13.85 56.0 -11.4 55.5 -9.65 54.5 -7.9 L52.0 -3.4 Q48.05 1.35 39.8 7.85 39.3 7.85 39.3 8.1 L37.8 9.35 37.3 9.6 36.25 10.45 33.55 11.85 31.05 12.85 Q28.55 14.6 27.3 14.6 L25.05 15.6 23.3 16.6 Q19.8 18.35 16.8 19.35 L15.85 19.6 Q8.85 22.3 2.85 22.8 L-0.15 23.3 -0.65 23.3 -1.15 23.3 -9.4 23.8 -10.05 23.8 Q18.5 17.6 33.8 5.6 L36.05 4.1 Q43.55 -1.65 45.05 -3.15 L46.3 -4.4 Q51.25 -13.6 51.25 -19.35 51.25 -26.6 45.05 -34.35 L44.05 -35.35 Q42.55 -36.85 41.55 -38.35 L34.6 -44.25 M38.55 -13.6 L38.55 -14.1 38.55 -14.35 Q38.45 -17.6 35.85 -20.3 L35.8 -20.35 34.95 -21.15 33.95 -21.95 Q30.8 -24.25 25.55 -26.1 14.85 -29.85 2.6 -26.35 L1.85 -26.35 0.85 -25.85 Q-0.4 -25.35 -1.65 -25.1 L-5.2 -23.3 -5.65 -23.1 -7.15 -22.6 -7.4 -22.35 -7.65 -22.35 -7.9 -22.35 -8.4 -21.85 -9.15 -21.1 -8.15 -12.85 -8.15 -10.9 Q-8.65 -9.65 -9.4 -8.9 -10.15 -8.4 -12.15 -7.4 -13.15 -7.65 -14.15 -8.4 L-18.3 -10.6 -18.35 -10.65 -18.7 -10.8 -18.8 -10.9 Q-22.65 -13.05 -27.35 -16.35 L-49.9 -30.25 -50.8 -30.85 -54.3 -33.1 -55.05 -33.6 -56.55 -34.6 -57.3 -35.1 -57.3 -35.35 -57.5 -37.0 -54.8 -36.85 Q-54.55 -36.85 -54.55 -37.1 L-54.3 -37.1 -53.55 -36.6 Q-52.8 -36.1 -52.3 -35.6 L-51.8 -35.35 -51.55 -35.1 Q-49.1 -32.85 -35.1 -27.1 -18.35 -20.1 -15.65 -20.1 -14.65 -20.1 -14.4 -22.1 L-14.4 -23.85 -14.15 -23.85 Q-13.65 -24.6 -13.65 -28.35 -11.65 -29.85 -10.15 -30.35 -7.15 -31.35 -0.9 -32.35 L0.1 -32.35 3.1 -32.85 6.1 -33.1 12.85 -33.1 17.8 -32.6 25.05 -30.85 Q31.3 -29.1 35.05 -25.6 L36.55 -24.1 38.05 -20.85 38.3 -20.1 Q39.3 -17.85 39.3 -16.1 L39.05 -13.85 38.8 -11.6 38.55 -11.4 38.55 -12.85 38.55 -13.6" fill="#0086a8" fill-rule="evenodd" stroke="none"/>
      <path d="M16.35 -52.6 L18.05 -51.8 18.45 -51.85 19.3 -51.55 27.95 -47.65 29.8 -46.55 32.8 -44.8 32.8 -45.05 33.15 -45.05 34.6 -44.25 41.55 -38.35 Q42.55 -36.85 44.05 -35.35 L45.05 -34.35 Q51.25 -26.6 51.25 -19.35 51.25 -13.6 46.3 -4.4 L45.05 -3.15 Q43.55 -1.65 36.05 4.1 L33.8 5.6 Q18.5 17.6 -10.05 23.8 L-11.65 23.8 -12.4 23.8 -13.15 23.8 -15.9 23.8 -16.9 23.55 -18.1 23.55 -19.35 23.8 -26.65 23.8 -23.6 23.05 -19.35 22.55 Q-19.35 21.8 -10.15 19.6 3.6 16.35 17.8 8.85 L18.55 8.6 Q22.8 7.85 28.3 2.85 L30.3 1.35 31.3 0.1 32.3 -0.65 Q35.05 -2.9 36.8 -6.65 37.05 -8.15 37.55 -9.15 L37.8 -10.4 Q38.05 -11.15 38.55 -11.4 L38.8 -11.6 39.05 -13.85 39.3 -16.1 Q39.3 -17.85 38.3 -20.1 L38.05 -20.85 36.55 -24.1 35.05 -25.6 Q31.3 -29.1 25.05 -30.85 L17.8 -32.6 12.85 -33.1 6.1 -33.1 3.1 -32.85 0.1 -32.35 -0.9 -32.35 Q-7.15 -31.35 -10.15 -30.35 -11.65 -29.85 -13.65 -28.35 -13.65 -24.6 -14.15 -23.85 L-14.4 -23.85 -14.4 -22.1 Q-14.65 -20.1 -15.65 -20.1 -18.35 -20.1 -35.1 -27.1 -49.1 -32.85 -51.55 -35.1 L-51.8 -35.35 -52.3 -35.6 Q-52.8 -36.1 -53.55 -36.6 L-54.3 -37.1 Q-48.35 -42.1 -35.85 -54.55 L-34.1 -56.05 Q-33.85 -56.05 -33.85 -56.3 L-29.35 -60.05 -23.85 -65.3 Q-14.65 -73.9 -13.1 -76.75 -11.55 -74.35 -10.4 -69.3 L-9.4 -63.05 -9.4 -62.8 -9.4 -60.8 -9.4 -60.7 -9.65 -57.3 -8.15 -57.3 -6.65 -57.3 -6.4 -57.3 Q3.3 -57.3 16.35 -52.6 M-8.15 -57.05 L-8.15 -56.8 -7.9 -57.05 -8.15 -57.05" fill="#00ccff" fill-rule="evenodd" stroke="none"/>
      <path d="M-26.65 23.8 L-30.1 23.8 -29.1 23.55 -27.6 23.05 -26.85 22.8 Q-25.85 22.3 -25.1 22.3 -24.85 22.05 -24.35 22.05 L-1.65 14.6 Q-0.65 14.1 0.35 13.85 L0.1 13.85 Q2.35 13.1 3.6 12.35 10.6 9.6 16.3 6.85 29.8 0.1 35.05 -6.15 38.35 -9.9 38.55 -13.6 L38.55 -12.85 38.55 -11.4 Q38.05 -11.15 37.8 -10.4 L37.55 -9.15 Q37.05 -8.15 36.8 -6.65 35.05 -2.9 32.3 -0.65 L31.3 0.1 30.3 1.35 28.3 2.85 Q22.8 7.85 18.55 8.6 L17.8 8.85 Q3.6 16.35 -10.15 19.6 -19.35 21.8 -19.35 22.55 L-23.6 23.05 -26.65 23.8 M-57.5 -37.0 L-57.55 -38.1 -57.55 -38.35 -58.05 -38.6 -38.35 -57.8 -34.55 -61.7 -25.55 -71.0 -20.85 -75.8 -20.9 -75.9 -19.6 -77.3 Q-18.35 -77.8 -17.35 -78.25 L-16.4 -79.0 Q-14.6 -79.0 -13.1 -76.75 -14.65 -73.9 -23.85 -65.3 L-29.35 -60.05 -33.85 -56.3 Q-33.85 -56.05 -34.1 -56.05 L-35.85 -54.55 Q-48.35 -42.1 -54.3 -37.1 L-54.55 -37.1 Q-54.55 -36.85 -54.8 -36.85 L-57.5 -37.0" fill="#aaeeff" fill-rule="evenodd" stroke="none"/>
      <path d="M-8.15 -57.05 L-7.9 -57.05 -8.15 -56.8 -8.15 -57.05" fill="#ff9393" fill-rule="evenodd" stroke="none"/>
      <path d="M18.45 -51.85 L16.35 -52.6 Q3.3 -57.3 -6.4 -57.3 L-6.65 -57.3 -8.15 -57.3 -9.65 -57.3 -9.4 -60.7 -9.4 -60.8 -9.4 -62.8 -9.4 -63.05 -10.4 -69.3 Q-11.55 -74.35 -13.1 -76.75 -14.6 -79.0 -16.4 -79.0 L-17.35 -78.25 Q-18.35 -77.8 -19.6 -77.3 L-20.9 -75.9 -25.55 -71.0 -34.55 -61.7 -38.35 -57.8 -58.05 -38.6 -57.55 -38.35 -57.55 -38.1 -57.5 -37.0 -57.3 -35.35 -57.3 -35.1 -56.55 -34.6 -55.05 -33.6 -54.3 -33.1 -50.8 -30.85 -49.9 -30.25 -27.35 -16.35 Q-22.65 -13.05 -18.8 -10.9 L-18.7 -10.8 -18.3 -10.6 -14.15 -8.4 Q-13.15 -7.65 -12.15 -7.4 -10.15 -8.4 -9.4 -8.9 -8.65 -9.65 -8.15 -10.9 L-8.15 -12.85 -9.15 -21.1 -8.4 -21.85 -7.9 -22.35 -7.65 -22.35 -7.4 -22.35 -7.15 -22.6 -5.65 -23.1 -5.2 -23.3 -1.65 -25.1 Q-0.4 -25.35 0.85 -25.85 L1.85 -26.35 2.6 -26.35 Q14.85 -29.85 25.55 -26.1 30.8 -24.25 33.95 -21.95 L34.95 -21.15 35.85 -20.3 Q38.45 -17.6 38.55 -14.35 L38.55 -14.1 38.55 -13.6 Q38.35 -9.9 35.05 -6.15 29.8 0.1 16.3 6.85 10.6 9.6 3.6 12.35 2.35 13.1 0.1 13.85 L0.35 13.85 Q-0.65 14.1 -1.65 14.6 L-24.35 22.05 Q-24.85 22.05 -25.1 22.3 -25.85 22.3 -26.85 22.8 L-27.6 23.05 -29.1 23.55 -30.1 23.8 -26.65 23.8 -19.35 23.8 -18.1 23.55 -16.9 23.55 -15.9 23.8 -13.15 23.8 -12.4 23.8 -11.65 23.8 -10.05 23.8 -9.4 23.8 -1.15 23.3 -0.65 23.3 -0.15 23.3 2.85 22.8 Q8.85 22.3 15.85 19.6 L16.8 19.35 Q19.8 18.35 23.3 16.6 L25.05 15.6 27.3 14.6 Q28.55 14.6 31.05 12.85 L33.55 11.85 36.25 10.45 37.55 9.6 37.8 9.35 39.3 8.1 Q39.3 7.85 39.8 7.85 48.05 1.35 52.0 -3.4 L54.5 -7.9 Q55.5 -9.65 56.0 -11.4 57.0 -13.85 57.0 -16.35 L57.0 -18.6 56.5 -19.1 Q56.25 -23.6 51.0 -30.35 L45.8 -36.35 Q42.05 -40.6 40.05 -41.1 L35.3 -43.85 34.6 -44.25 33.15 -45.05 27.95 -47.65 19.3 -51.55 18.45 -51.85 M24.05 -22.1 Q10.6 -26.85 -4.9 -19.1 L-3.9 -13.35 -3.9 -12.85 Q-3.9 -8.4 -5.9 -6.15 -6.65 -4.9 -8.15 -4.15 L-9.15 -3.4 -9.65 -3.4 Q-10.9 -2.9 -12.15 -2.9 -15.15 -2.9 -26.6 -9.9 -35.35 -15.1 -41.1 -19.35 -43.85 -21.6 -54.55 -27.6 -64.05 -33.35 -64.05 -37.1 -64.05 -38.1 -63.55 -38.35 -63.3 -40.35 -61.8 -41.6 L-61.8 -41.85 Q-61.8 -43.85 -42.1 -63.3 -26.35 -78.75 -20.6 -82.25 L-19.6 -83.25 -16.4 -84.25 Q-15.65 -85.0 -13.4 -85.0 L-11.65 -84.25 -11.4 -84.25 Q-10.15 -84.25 -9.9 -82.75 -8.65 -82.25 -8.65 -80.75 -6.9 -78.25 -5.4 -67.55 -4.4 -63.8 -4.4 -62.05 L-4.4 -61.55 Q6.35 -61.05 20.8 -55.05 61.5 -38.6 61.0 -16.35 61.0 -10.9 58.0 -6.15 L55.5 -1.15 55.25 -0.9 Q51.0 4.35 42.3 11.1 L41.55 11.35 Q19.3 27.8 -13.15 27.8 L-17.35 27.8 -17.85 27.8 -19.35 27.8 -30.1 27.8 Q-31.35 27.8 -32.6 26.8 -33.85 25.8 -34.1 24.3 -34.35 23.05 -33.6 21.8 -32.6 20.35 -31.35 20.1 L2.1 8.85 Q33.8 -4.15 34.55 -14.1 33.8 -18.85 24.3 -22.1 L24.05 -22.1" fill="#002833" fill-rule="evenodd" stroke="none"/>
    </g>
  </defs>
</svg>
