<?xml version="1.0" encoding="UTF-8" standalone="no"?>
<svg xmlns:ffdec="https://www.free-decompiler.com/flash" xmlns:xlink="http://www.w3.org/1999/xlink" ffdec:objectType="frame" height="19.6px" width="26.65px" xmlns="http://www.w3.org/2000/svg">
  <g transform="matrix(1.0, 0.0, 0.0, 1.0, -0.5, 1.85)">
    <use ffdec:characterId="1172" height="19.6" transform="matrix(1.0, 0.0, 0.0, 1.0, 0.5, -1.85)" width="26.65" xlink:href="#shape0"/>
  </g>
  <defs>
    <g id="shape0" transform="matrix(1.0, 0.0, 0.0, 1.0, -0.5, 1.85)">
      <path d="M9.0 -1.85 L18.55 -1.85 18.6 -1.85 Q20.7 -1.95 22.7 -1.05 L23.1 -0.9 23.3 -0.8 23.55 -0.7 Q25.15 0.2 26.25 1.9 L26.25 1.85 Q27.05 3.05 27.15 4.6 L27.15 4.65 Q27.15 6.95 26.45 9.05 L25.65 10.9 25.65 10.95 24.85 11.9 24.8 11.9 24.6 12.1 22.6 13.15 20.7 13.7 20.55 13.75 19.05 13.9 18.9 14.35 18.75 14.6 18.1 15.45 17.5 16.1 17.2 16.35 16.05 16.85 15.9 16.9 13.65 17.55 13.5 17.55 9.4 17.75 Q8.75 17.75 8.35 17.3 7.9 16.85 7.9 16.25 L7.9 15.7 Q7.9 15.2 8.2 14.8 L8.65 14.3 9.1 14.0 9.4 13.85 8.1 13.7 7.95 13.7 5.85 13.2 Q4.75 13.0 3.7 12.4 2.6 11.8 1.8 10.95 L1.75 10.9 Q0.5 9.4 0.5 7.5 L0.5 6.25 0.5 6.2 Q0.55 5.15 0.75 4.2 L1.2 1.85 Q1.25 1.45 1.55 1.15 L1.75 1.0 1.8 0.9 Q2.55 0.05 3.6 -0.4 5.75 -1.65 8.3 -1.8 L8.4 -1.8 8.75 -1.8 9.0 -1.85" fill="#000000" fill-rule="evenodd" stroke="none"/>
      <path d="M9.0 -0.35 L18.6 -0.35 Q20.4 -0.45 22.05 0.3 L22.4 0.45 22.8 0.6 Q24.1 1.35 25.0 2.7 25.6 3.55 25.65 4.65 25.65 6.7 25.0 8.55 L24.3 10.25 24.0 10.65 23.75 10.85 22.1 11.7 20.3 12.25 17.95 12.4 17.45 13.85 16.95 14.45 16.45 15.05 15.55 15.4 13.3 16.05 9.4 16.25 9.4 15.7 9.7 15.35 10.7 14.75 11.75 13.95 11.75 12.4 10.0 12.4 8.15 12.2 6.25 11.75 Q5.3 11.6 4.4 11.05 L2.9 9.9 Q2.0 8.85 2.0 7.5 L2.0 6.25 2.2 4.45 2.65 2.15 2.9 1.9 Q3.5 1.25 4.3 0.9 6.2 -0.15 8.4 -0.3 L9.0 -0.35" fill="#eee2bc" fill-rule="evenodd" stroke="none"/>
    </g>
  </defs>
</svg>
