<?xml version="1.0" encoding="UTF-8" standalone="no"?>
<svg xmlns:ffdec="https://www.free-decompiler.com/flash" xmlns:xlink="http://www.w3.org/1999/xlink" ffdec:objectType="frame" height="53.75px" width="45.4px" xmlns="http://www.w3.org/2000/svg">
  <g transform="matrix(1.0, 0.0, 0.0, 1.0, 17.0, 21.6)">
    <use ffdec:characterId="957" height="53.75" transform="matrix(1.0, 0.0, 0.0, 1.0, -17.0, -21.6)" width="45.4" xlink:href="#shape0"/>
  </g>
  <defs>
    <g id="shape0" transform="matrix(1.0, 0.0, 0.0, 1.0, 17.0, 21.6)">
      <path d="M13.5 11.35 L13.45 11.35 13.5 11.25 13.5 11.35" fill="#000000" fill-rule="evenodd" stroke="none"/>
      <path d="M8.1 -4.4 L7.8 -4.35 8.1 -4.45 8.1 -4.4" fill="#151515" fill-rule="evenodd" stroke="none"/>
      <path d="M3.1 0.1 L3.15 0.1 3.15 0.15 3.1 0.1 M3.45 0.15 L3.5 0.3 3.45 0.4 3.45 0.15 M-0.95 -7.4 L-1.0 -7.4 -1.15 -7.35 -1.05 -7.5 -0.95 -7.4" fill="#232323" fill-rule="evenodd" stroke="none"/>
      <path d="M14.5 -3.2 L14.45 -3.1 14.45 -3.2 14.5 -3.2 M7.65 8.05 L6.3 7.05 5.95 6.8 7.65 8.05 M-1.45 21.5 L-2.05 21.35 -1.85 21.35 -1.45 21.5 M15.25 -2.6 L15.3 -2.45 15.35 -2.35 15.1 -2.6 15.25 -2.7 15.25 -2.6 M13.15 12.85 L13.25 12.7 13.6 12.7 13.15 12.85 M15.85 6.7 L15.8 6.7 15.8 6.55 15.85 6.7 M3.15 0.15 L3.1 0.15 3.1 0.1 3.15 0.15 M-16.85 7.4 L-16.85 7.9 -16.95 9.85 -16.95 9.05 -16.85 7.4" fill="#846633" fill-rule="evenodd" stroke="none"/>
      <path d="M15.3 -2.7 L15.25 -2.6 15.25 -2.7 15.3 -2.7 M-12.1 8.9 L-12.0 8.2 -11.85 8.2 -12.1 8.9" fill="#854332" fill-rule="evenodd" stroke="none"/>
      <path d="M22.15 -2.7 L22.15 -3.05 22.1 -3.85 22.1 -3.95 21.9 -5.2 21.75 -5.4 Q21.5 -7.2 20.9 -8.0 L20.9 -8.05 21.1 -8.35 21.1 -8.85 21.1 -9.05 21.1 -10.05 21.4 -9.75 21.3 -9.0 21.4 -8.1 21.3 -8.0 Q21.3 -7.5 21.65 -6.7 L21.9 -6.1 Q22.4 -4.55 22.4 -3.45 L22.15 -2.7 M16.15 3.7 L16.1 3.55 16.15 3.55 16.15 3.7 M10.0 12.35 L9.95 12.4 9.95 12.35 10.0 12.35 M10.1 17.9 L9.8 17.5 9.8 17.4 9.95 17.35 10.1 17.9 10.15 18.05 10.1 18.0 10.1 17.9" fill="#2e2312" fill-rule="evenodd" stroke="none"/>
      <path d="M18.15 15.45 L18.0 15.45 18.0 15.35 18.1 15.4 18.15 15.45 M18.1 10.4 L17.95 8.8 18.1 8.95 18.1 10.4" fill="#9e7a3f" fill-rule="evenodd" stroke="none"/>
      <path d="M11.15 0.45 L10.75 0.05 10.65 -0.6 10.65 -0.7 10.65 -0.9 Q10.65 -2.7 12.6 -2.7 L12.75 -2.7 12.45 -2.4 13.25 -1.85 13.45 -1.4 13.45 -1.35 13.35 -0.55 13.1 -0.25 12.5 0.45 12.3 0.45 11.15 0.3 11.15 0.45 M5.35 9.75 L4.95 10.85 4.7 11.35 4.8 11.55 Q4.35 11.45 4.15 10.6 4.15 9.85 4.65 9.7 L4.95 9.6 5.2 9.7 5.35 9.75" fill="#ffff66" fill-rule="evenodd" stroke="none"/>
      <path d="M11.15 0.45 L11.15 0.3 12.3 0.45 12.5 0.45 13.1 -0.25 13.35 -0.55 13.45 -1.35 13.45 -1.4 13.25 -1.85 12.45 -2.4 12.75 -2.7 Q14.5 -2.7 14.5 -0.75 L14.1 0.1 13.8 0.55 12.65 0.95 11.75 0.95 11.15 0.45 M4.8 11.55 L4.7 11.35 4.95 10.85 5.35 9.75 Q5.6 9.75 5.7 9.9 L5.7 9.95 5.95 10.6 5.85 11.35 4.8 11.55" fill="#b9b900" fill-rule="evenodd" stroke="none"/>
      <path d="M7.6 -16.7 L7.7 -16.55 8.5 -16.15 Q9.45 -15.65 9.95 -15.65 11.75 -14.65 12.6 -13.7 13.65 -12.4 13.65 -10.55 13.65 -8.85 12.1 -6.4 L11.65 -5.85 11.45 -5.7 9.15 -4.9 8.35 -3.75 5.8 -3.4 4.1 -2.45 3.7 -2.1 3.7 -2.2 2.35 -3.7 Q1.0 -4.9 -0.85 -5.55 L-1.3 -5.85 -0.2 -6.55 Q1.3 -7.55 1.7 -8.35 L1.85 -8.6 1.7 -8.7 2.0 -9.2 2.1 -10.6 2.8 -12.9 3.15 -13.5 Q4.35 -16.5 7.6 -16.7 M8.1 -4.4 L8.1 -4.45 7.8 -4.35 8.1 -4.4" fill="#4d5560" fill-rule="evenodd" stroke="none"/>
      <path d="M7.6 -16.7 L7.95 -16.7 Q11.45 -16.7 13.1 -15.15 L13.15 -15.05 14.1 -14.25 15.3 -12.7 Q15.85 -11.5 15.85 -10.05 15.85 -8.1 14.25 -5.85 L13.0 -3.95 12.8 -3.85 13.0 -4.2 12.6 -3.85 Q11.0 -3.7 10.45 -3.05 L10.3 -2.85 10.25 -2.85 9.8 -2.2 9.8 -2.05 6.7 -1.95 6.6 -1.95 4.8 -0.9 3.5 0.3 3.45 0.15 3.35 -0.05 3.15 0.1 3.1 0.1 Q2.45 -1.4 1.15 -2.7 L0.15 -3.55 Q-0.15 -3.95 -1.05 -4.35 L-1.55 -4.7 -2.7 -5.2 -1.3 -5.85 -0.85 -5.55 Q1.0 -4.9 2.35 -3.7 L3.7 -2.2 3.7 -2.1 4.1 -2.45 5.8 -3.4 8.35 -3.75 9.15 -4.9 11.45 -5.7 11.65 -5.85 12.1 -6.4 Q13.65 -8.85 13.65 -10.55 13.65 -12.4 12.6 -13.7 11.75 -14.65 9.95 -15.65 9.45 -15.65 8.5 -16.15 L7.7 -16.55 7.6 -16.7" fill="#2e3238" fill-rule="evenodd" stroke="none"/>
      <path d="M-8.95 4.75 L-7.8 4.75 Q-5.8 5.55 -4.5 10.05 L-3.95 12.25 -3.85 12.25 -3.8 12.35 -3.7 12.7 Q-3.7 13.1 -4.15 13.4 L-9.45 17.9 -10.1 15.7 -10.1 12.7 -9.65 7.8 -8.95 4.75" fill="#504327" fill-rule="evenodd" stroke="none"/>
      <path d="M16.0 -19.85 L17.45 -18.7 Q18.5 -18.0 19.5 -16.7 21.5 -14.2 21.5 -12.25 23.9 -11.6 26.15 -7.25 28.4 -2.85 28.4 -0.2 L28.4 1.05 28.15 1.7 Q28.1 3.3 25.3 7.4 L24.6 8.45 Q24.45 8.55 24.25 8.75 L23.25 9.6 21.9 11.25 22.3 14.4 22.15 15.7 Q21.9 16.25 21.1 16.4 L20.65 16.7 19.95 17.05 Q18.95 17.7 18.0 17.7 16.8 17.7 16.45 16.6 L16.3 16.2 16.3 14.25 16.3 14.05 14.85 14.35 13.75 14.9 13.65 14.9 13.75 15.25 13.85 15.35 14.0 15.35 14.3 16.2 15.45 18.55 Q15.85 19.85 15.85 21.55 L15.85 22.2 15.95 22.6 15.95 23.35 15.95 23.6 Q15.95 24.35 12.95 27.9 9.5 31.9 7.5 31.9 L7.45 31.9 6.45 32.15 Q2.1 32.15 1.45 28.65 L1.15 25.4 0.95 23.7 0.65 23.7 -0.5 23.7 -0.65 23.7 Q-3.3 23.7 -4.5 22.1 -5.15 21.25 -5.15 20.35 L-4.95 19.1 -4.85 18.7 -4.95 16.85 -7.0 18.25 -7.1 18.35 -10.8 21.75 -12.1 22.2 -12.65 22.2 -15.85 22.1 Q-16.5 22.0 -16.65 21.35 L-16.65 21.1 -16.75 21.0 -16.75 20.7 Q-17.1 19.55 -17.0 16.25 L-16.75 10.4 -16.65 9.55 -16.65 7.75 -16.3 5.25 -16.15 4.25 -14.0 1.25 -14.0 1.15 -13.95 1.05 -13.95 0.3 -13.75 -1.4 Q-13.75 -2.75 -12.2 -4.55 -10.15 -6.9 -6.85 -6.75 L-3.7 -6.85 -3.55 -6.75 -1.35 -8.4 0.05 -10.1 Q0.35 -12.9 2.2 -16.05 2.35 -17.15 3.15 -18.15 L4.3 -19.35 5.7 -20.25 Q6.2 -21.0 8.45 -21.35 L9.2 -21.4 12.15 -21.2 12.65 -21.2 Q12.75 -21.05 13.1 -21.05 L15.1 -20.55 16.0 -19.85 M13.35 -18.65 L10.3 -19.05 Q6.1 -19.05 4.6 -17.15 L4.6 -16.9 Q6.1 -17.75 8.0 -17.85 10.45 -17.9 12.35 -16.85 13.85 -16.25 15.25 -14.4 16.6 -12.35 16.6 -10.75 16.6 -8.85 15.6 -6.25 L15.3 -5.45 14.45 -4.25 14.0 -3.7 14.0 -3.6 14.35 -3.2 14.45 -3.2 14.45 -3.1 14.5 -3.2 15.8 -4.45 17.8 -6.1 18.95 -7.55 18.95 -7.6 Q19.75 -9.05 19.75 -10.6 19.75 -13.0 17.9 -15.5 16.1 -17.85 13.35 -18.65 M3.5 0.3 L4.8 -0.9 6.6 -1.95 6.7 -1.95 9.8 -2.05 9.8 -2.2 10.25 -2.85 10.3 -2.85 10.45 -3.05 Q11.0 -3.7 12.6 -3.85 L13.0 -4.2 12.8 -3.85 13.0 -3.95 14.25 -5.85 Q15.85 -8.1 15.85 -10.05 15.85 -11.5 15.3 -12.7 L14.1 -14.25 13.15 -15.05 13.1 -15.15 Q11.45 -16.7 7.95 -16.7 L7.6 -16.7 Q4.35 -16.5 3.15 -13.5 L2.8 -12.9 2.1 -10.6 2.0 -9.2 1.7 -8.7 1.85 -8.6 1.7 -8.35 Q1.3 -7.55 -0.2 -6.55 L-1.3 -5.85 -2.7 -5.2 -1.55 -4.7 -1.05 -4.35 Q-0.15 -3.95 0.15 -3.55 L1.15 -2.7 Q2.45 -1.4 3.1 0.1 L3.1 0.15 3.15 0.15 3.15 0.1 3.35 -0.05 3.45 0.15 3.45 0.4 3.5 0.3 M13.65 2.9 Q13.3 1.9 12.85 1.9 L12.35 1.95 11.0 1.95 10.1 1.1 Q9.65 0.65 9.65 0.3 L9.65 -0.35 9.65 -0.75 9.65 -1.05 9.6 -1.05 9.0 -1.05 8.15 -0.95 6.15 -0.55 Q5.0 -0.05 4.95 0.65 L4.35 1.45 4.0 2.05 4.1 2.1 3.7 2.55 3.8 3.8 3.7 3.95 Q3.7 4.75 3.3 5.3 L3.2 5.45 2.7 5.9 2.7 5.95 2.5 6.1 0.95 6.8 0.7 6.8 Q-1.5 6.8 -2.85 4.9 L-4.35 2.4 -4.95 1.9 -4.95 1.8 -5.45 1.55 Q-6.35 0.95 -7.15 0.75 L-7.7 0.65 Q-8.8 0.65 -9.95 1.25 L-10.65 1.45 -11.85 1.95 -12.7 2.75 Q-13.6 3.75 -14.1 5.1 L-14.45 6.4 -14.8 10.9 -14.8 12.7 -14.95 13.1 -14.85 15.05 -15.1 17.4 -15.0 18.75 -14.85 19.4 -14.95 19.4 -15.0 19.7 -14.95 20.2 -14.25 20.25 -13.95 20.25 -13.3 20.2 -13.1 20.2 -12.85 20.2 -12.85 19.85 -12.95 19.55 -13.3 18.05 -13.1 12.7 -12.85 8.25 Q-12.45 6.25 -11.2 5.25 -10.65 4.25 -10.15 4.1 -10.1 3.95 -10.0 4.1 L-9.85 4.05 Q-9.35 3.75 -8.85 3.7 L-7.6 3.6 -7.35 3.8 -6.7 3.95 -6.45 4.2 -6.2 4.3 -6.1 4.4 -6.0 4.6 -5.85 4.6 -5.55 4.95 -5.55 5.05 Q-4.7 5.95 -4.05 7.7 -3.05 10.4 -2.65 13.2 L-2.5 15.45 -2.45 15.75 -2.45 16.6 -2.85 20.5 -2.35 21.2 -2.05 21.35 -1.45 21.5 -1.3 21.5 -0.05 21.2 0.35 21.0 1.05 20.7 0.8 19.4 1.0 18.55 1.5 18.1 1.5 18.05 1.85 17.7 1.8 16.85 1.7 16.85 1.7 16.6 1.5 15.55 1.2 14.9 1.0 13.95 0.8 11.6 Q0.8 8.25 2.95 7.05 L3.95 6.75 4.1 6.6 4.45 6.6 5.6 6.75 5.7 6.75 5.95 6.8 6.3 7.05 7.65 8.05 Q8.7 8.95 9.15 10.05 L9.6 10.7 10.1 10.25 Q12.15 8.95 13.0 8.1 14.3 6.8 14.3 5.6 L13.95 3.75 13.65 2.9 M20.45 -5.6 L20.25 -6.5 20.15 -6.55 19.9 -6.7 19.3 -6.25 19.1 -6.05 17.45 -4.4 15.3 -2.7 15.25 -2.7 15.1 -2.6 15.35 -2.35 15.5 -2.2 15.45 -2.05 15.45 -1.6 15.35 -1.6 15.45 -1.25 15.45 -0.95 15.45 -0.6 Q15.45 0.4 14.85 0.95 L14.3 1.4 14.75 2.75 16.3 1.55 17.65 0.55 18.0 0.25 18.75 -0.25 18.75 -0.35 18.95 -0.45 18.9 -0.55 20.45 -2.05 20.6 -2.4 20.9 -3.4 20.45 -5.6 M12.75 -2.7 L12.6 -2.7 Q10.65 -2.7 10.65 -0.9 L10.65 -0.7 10.65 -0.6 10.75 0.05 11.15 0.45 11.75 0.95 12.65 0.95 13.8 0.55 14.1 0.1 14.5 -0.75 Q14.5 -2.7 12.75 -2.7 M21.4 -9.75 L21.1 -10.05 21.1 -9.05 21.1 -8.85 21.1 -8.35 20.9 -8.05 20.9 -8.0 Q21.5 -7.2 21.75 -5.4 L21.9 -5.2 22.1 -3.95 22.1 -3.85 22.15 -3.05 22.15 -2.7 Q21.95 -1.4 20.3 0.1 L19.5 1.05 20.45 4.6 21.25 9.05 22.15 8.25 22.5 8.05 22.75 7.9 24.0 5.75 25.25 3.75 25.95 2.9 25.8 2.75 Q26.4 1.75 26.4 1.05 26.4 -2.7 24.15 -6.2 L23.25 -7.55 21.4 -9.75 M18.15 15.45 L19.4 15.1 Q20.15 15.05 20.4 14.6 20.6 14.4 20.6 13.2 L20.45 12.1 20.4 11.9 20.4 11.75 20.3 10.75 19.5 6.95 19.25 5.7 19.15 5.7 19.15 5.45 18.9 3.75 18.4 1.95 16.15 3.55 16.1 3.55 16.15 3.7 16.15 3.75 17.15 6.3 17.15 6.4 17.15 6.55 Q17.65 7.1 17.8 8.25 L17.9 8.45 17.95 8.8 18.1 10.4 18.25 12.75 18.0 15.35 18.0 15.45 18.15 15.45 M15.8 6.7 Q15.6 7.9 14.95 8.6 L13.15 10.2 11.5 11.35 10.0 12.35 9.95 12.35 9.95 12.4 10.1 12.75 10.45 12.9 11.35 13.6 Q11.95 13.2 13.15 12.85 L13.6 12.7 14.95 12.25 15.6 11.9 16.3 11.7 16.1 11.7 16.6 11.45 16.65 11.45 16.15 8.1 16.1 7.9 15.85 6.7 15.8 6.55 15.8 6.7 M-11.65 -2.1 L-12.1 -0.95 -12.35 0.1 -12.3 0.4 -12.3 0.9 -10.8 0.25 Q-9.2 -0.45 -7.6 -0.45 -5.15 -0.45 -3.3 1.8 L-2.35 3.6 Q-0.95 5.75 0.65 5.75 L1.3 5.55 1.65 5.45 1.65 5.4 Q1.7 5.3 1.8 5.3 L1.85 5.1 2.45 4.25 2.5 3.7 Q2.5 1.05 0.35 -1.6 L-0.5 -2.45 Q-1.65 -3.4 -2.95 -3.85 -4.3 -4.55 -5.45 -4.6 L-6.2 -4.7 -7.8 -4.75 -8.65 -4.7 Q-9.8 -4.45 -10.65 -3.7 -11.45 -3.05 -11.65 -2.45 L-11.65 -2.1 M5.5 8.1 L4.35 7.95 Q2.95 7.95 2.3 9.75 L1.85 11.7 Q1.85 12.4 2.3 13.85 L2.5 14.4 2.65 14.7 2.85 14.95 2.85 14.9 3.0 15.25 3.3 16.75 3.5 17.85 Q3.8 19.6 4.1 19.6 4.7 19.6 7.15 17.9 L8.95 16.55 9.6 15.75 9.3 14.4 9.0 12.9 8.5 11.2 8.3 11.05 8.15 10.35 7.95 9.85 7.85 9.75 Q7.0 8.4 5.5 8.1 M5.35 9.75 L5.2 9.7 4.95 9.6 4.65 9.7 Q4.15 9.85 4.15 10.6 4.35 11.45 4.8 11.55 L5.85 11.35 5.95 10.6 5.7 9.95 5.7 9.9 Q5.6 9.75 5.35 9.75 M3.8 12.55 L3.35 11.9 3.15 10.9 Q3.15 8.9 5.0 8.9 6.5 8.75 6.8 10.35 L6.8 10.95 6.8 11.4 6.7 11.45 6.65 11.45 Q6.5 12.05 5.8 12.55 L5.65 12.55 5.1 12.7 4.85 12.9 4.7 12.9 Q4.15 12.9 3.8 12.55 M9.95 17.35 L9.8 17.4 9.8 17.5 10.1 17.9 10.1 18.0 10.15 18.05 Q11.1 18.75 11.1 20.2 L11.3 20.7 11.1 21.05 11.1 21.35 10.5 22.25 9.75 23.0 9.65 23.0 8.2 24.1 Q6.8 25.85 6.15 25.85 L5.85 25.85 5.8 25.85 5.7 25.85 5.65 25.75 5.35 25.65 5.3 25.65 5.3 25.55 5.1 24.9 5.0 24.85 4.85 24.9 4.8 23.9 4.6 23.2 4.5 22.85 3.35 21.0 2.8 20.05 2.3 19.25 2.0 19.4 2.5 20.85 2.6 21.0 2.6 20.9 2.65 20.9 2.7 21.35 3.3 23.25 3.35 25.4 3.6 26.65 3.5 28.05 Q3.6 30.05 6.5 30.05 8.1 30.05 11.15 26.65 L13.75 23.35 13.75 23.25 13.8 23.25 13.85 22.9 13.65 20.9 13.65 20.2 13.65 20.05 13.0 18.25 12.75 17.4 12.35 16.25 11.95 15.9 10.5 14.45 10.65 15.85 10.65 16.2 10.65 16.4 10.5 16.7 10.35 17.05 10.3 16.85 9.95 17.35 M8.85 18.25 L8.0 18.9 Q5.95 20.4 4.8 20.7 5.3 21.4 5.6 22.85 L5.95 24.75 7.15 23.9 8.1 23.05 9.8 21.5 10.15 20.9 Q10.15 20.1 9.6 19.25 L8.95 18.25 8.85 18.25 M-0.95 -7.4 L-1.05 -7.5 -1.15 -7.35 -1.0 -7.4 -0.95 -7.4 M-9.45 17.9 L-4.15 13.4 Q-3.7 13.1 -3.7 12.7 L-3.8 12.35 -3.85 12.25 -3.95 12.25 -4.5 10.05 Q-5.8 5.55 -7.8 4.75 L-8.95 4.75 -9.45 4.9 -9.5 4.95 Q-10.35 5.05 -11.1 6.6 L-11.6 7.9 -11.7 8.4 -11.85 9.55 -11.8 9.9 -11.85 10.25 -12.1 11.1 -12.15 12.45 -12.35 18.4 -12.3 18.85 -12.1 19.1 -11.95 19.2 -12.0 19.4 -11.8 19.6 -11.35 19.35 -11.0 19.05 -10.95 19.1 -9.45 17.9 M-12.1 8.9 L-11.85 8.2 -12.0 8.2 -12.1 8.9 M-14.85 21.2 L-15.0 21.2 -15.0 21.25 -14.85 21.2" fill="#312917" fill-rule="evenodd" stroke="none"/>
      <path d="M15.3 -5.45 L15.6 -6.25 Q16.6 -8.85 16.6 -10.75 16.6 -12.35 15.25 -14.4 13.85 -16.25 12.35 -16.85 10.45 -17.9 8.0 -17.85 6.1 -17.75 4.6 -16.9 L4.6 -17.15 Q6.1 -19.05 10.3 -19.05 L13.35 -18.65 14.85 -17.55 15.95 -16.4 Q17.8 -14.0 17.8 -10.55 L17.8 -9.5 Q17.4 -8.0 16.0 -6.4 L15.3 -5.45 M24.15 -6.2 Q26.4 -2.7 26.4 1.05 26.4 1.75 25.8 2.75 L25.95 2.9 25.25 3.75 24.0 5.75 22.75 7.9 22.5 8.05 22.75 6.4 Q22.75 4.75 22.15 3.05 L21.65 1.8 22.5 1.25 23.15 0.3 23.65 -0.55 Q24.3 -2.1 24.3 -3.4 L24.25 -5.25 24.15 -5.55 24.15 -6.2 M19.15 5.45 L19.15 5.7 19.25 5.7 19.5 6.95 20.3 10.75 20.4 11.75 20.4 11.9 20.45 12.1 20.6 13.2 Q20.6 14.4 20.4 14.6 20.15 15.05 19.4 15.1 L18.15 15.45 18.1 15.4 18.0 15.35 18.25 12.75 18.1 10.4 18.1 8.95 17.95 8.8 17.9 8.45 17.8 8.25 Q17.65 7.1 17.15 6.55 L17.15 6.4 17.25 6.4 Q17.65 6.4 18.5 5.75 L18.75 5.7 19.15 5.45 M-8.65 -4.7 Q-4.0 -4.1 -1.35 -1.95 0.65 -0.25 0.65 1.6 L0.55 2.55 -0.3 3.4 -0.8 3.4 Q-1.15 3.4 -2.7 1.9 L-3.8 0.6 Q-5.45 -0.85 -7.7 -0.85 L-8.7 -0.7 -9.0 -0.6 -10.3 -0.6 -11.2 -1.2 -11.45 -1.35 -11.45 -1.4 -11.65 -2.1 -11.65 -2.45 Q-11.45 -3.05 -10.65 -3.7 -9.8 -4.45 -8.65 -4.7 M8.95 16.55 L7.15 17.9 Q4.7 19.6 4.1 19.6 3.8 19.6 3.5 17.85 L3.3 16.75 3.0 15.25 2.85 14.9 2.85 14.95 2.65 14.7 2.5 14.4 2.3 13.85 Q1.85 12.4 1.85 11.7 L2.3 9.75 Q2.95 7.95 4.35 7.95 L5.5 8.1 5.8 8.25 5.8 8.3 6.85 9.2 7.7 10.9 8.15 11.9 8.5 13.25 8.85 15.05 8.7 16.4 8.95 16.55 M6.8 10.35 Q6.5 8.75 5.0 8.9 3.15 8.9 3.15 10.9 L3.35 11.9 3.8 12.55 3.85 12.7 3.95 13.05 Q4.2 13.4 5.6 13.4 L5.65 13.4 5.8 13.4 Q6.6 13.4 6.95 12.45 L7.15 11.35 7.0 10.35 6.8 10.35 M12.75 17.4 L13.0 18.25 13.65 20.05 13.65 20.2 13.65 20.9 13.85 22.9 13.8 23.25 13.75 23.25 13.75 23.35 11.15 26.65 Q8.1 30.05 6.5 30.05 3.6 30.05 3.5 28.05 L3.6 26.65 3.35 25.4 3.3 23.25 2.7 21.35 2.65 20.9 2.6 20.9 2.6 21.0 2.5 20.85 2.0 19.4 2.3 19.25 2.8 20.05 3.35 21.0 4.5 22.85 4.6 23.2 4.8 23.9 4.85 24.9 5.0 24.85 5.1 24.9 5.3 25.55 5.3 25.65 5.35 25.65 5.65 25.75 5.7 25.85 5.8 25.85 6.65 26.4 7.5 26.25 Q7.8 26.0 8.3 25.85 L8.45 25.85 10.0 24.5 11.8 22.85 Q12.95 21.7 12.95 19.9 L12.6 18.85 12.3 18.05 12.15 17.75 12.3 17.7 12.75 17.4" fill="#9a6f1d" fill-rule="evenodd" stroke="none"/>
      <path d="M15.3 -5.45 L16.0 -6.4 Q17.4 -8.0 17.8 -9.5 L17.8 -10.55 Q17.8 -14.0 15.95 -16.4 L14.85 -17.55 13.35 -18.65 Q16.1 -17.85 17.9 -15.5 19.75 -13.0 19.75 -10.6 19.75 -9.05 18.95 -7.6 L18.95 -7.55 17.8 -6.1 15.8 -4.45 14.5 -3.2 14.45 -3.2 14.35 -3.2 14.0 -3.6 14.0 -3.7 14.45 -4.25 15.3 -5.45 M22.15 -2.7 L22.4 -3.45 Q22.4 -4.55 21.9 -6.1 L21.65 -6.7 Q21.3 -7.5 21.3 -8.0 L21.4 -8.1 21.3 -9.0 21.4 -9.75 23.25 -7.55 24.15 -6.2 24.15 -5.55 24.25 -5.25 24.3 -3.4 Q24.3 -2.1 23.65 -0.55 L23.15 0.3 22.5 1.25 21.65 1.8 22.15 3.05 Q22.75 4.75 22.75 6.4 L22.5 8.05 22.15 8.25 21.25 9.05 20.45 4.6 19.5 1.05 20.3 0.1 Q21.95 -1.4 22.15 -2.7 M17.15 6.4 L17.15 6.3 16.15 3.75 16.15 3.7 16.15 3.55 18.4 1.95 18.9 3.75 19.15 5.45 18.75 5.7 18.5 5.75 Q17.65 6.4 17.25 6.4 L17.15 6.4 M13.5 11.35 L13.5 11.25 13.45 11.35 13.5 11.35 M10.0 12.35 L11.5 11.35 13.15 10.2 14.95 8.6 Q15.6 7.9 15.8 6.7 L15.85 6.7 16.1 7.9 16.15 8.1 16.65 11.45 16.6 11.45 16.1 11.7 16.3 11.7 15.6 11.9 14.95 12.25 13.6 12.7 13.25 12.7 13.15 12.85 Q11.95 13.2 11.35 13.6 L10.45 12.9 10.1 12.75 9.95 12.4 10.0 12.35 M-11.65 -2.1 L-11.45 -1.4 -11.45 -1.35 -11.2 -1.2 -10.3 -0.6 -9.0 -0.6 -8.7 -0.7 -7.7 -0.85 Q-5.45 -0.85 -3.8 0.6 L-2.7 1.9 Q-1.15 3.4 -0.8 3.4 L-0.3 3.4 0.55 2.55 0.65 1.6 Q0.65 -0.25 -1.35 -1.95 -4.0 -4.1 -8.65 -4.7 L-7.8 -4.75 -6.2 -4.7 -5.45 -4.6 Q-4.3 -4.55 -2.95 -3.85 -1.65 -3.4 -0.5 -2.45 L0.35 -1.6 Q2.5 1.05 2.5 3.7 L2.45 4.25 1.85 5.1 1.8 5.3 Q1.7 5.3 1.65 5.4 L1.65 5.45 1.3 5.55 0.65 5.75 Q-0.95 5.75 -2.35 3.6 L-3.3 1.8 Q-5.15 -0.45 -7.6 -0.45 -9.2 -0.45 -10.8 0.25 L-12.3 0.9 -12.3 0.4 -12.35 0.1 -12.1 -0.95 -11.65 -2.1 M8.95 16.55 L8.7 16.4 8.85 15.05 8.5 13.25 8.15 11.9 7.7 10.9 6.85 9.2 5.8 8.3 5.8 8.25 5.5 8.1 Q7.0 8.4 7.85 9.75 L7.95 9.85 8.15 10.35 8.3 11.05 8.5 11.2 9.0 12.9 9.3 14.4 9.6 15.75 8.95 16.55 M6.8 10.35 L7.0 10.35 7.15 11.35 6.95 12.45 Q6.6 13.4 5.8 13.4 L5.65 13.4 5.6 13.4 Q4.2 13.4 3.95 13.05 L3.85 12.7 3.8 12.55 Q4.15 12.9 4.7 12.9 L4.85 12.9 5.1 12.7 5.65 12.55 5.8 12.55 Q6.5 12.05 6.65 11.45 L6.7 11.45 6.8 11.4 6.8 10.95 6.8 10.35 M10.1 17.9 L9.95 17.35 10.3 16.85 10.35 17.05 10.5 16.7 10.65 16.4 10.65 16.2 10.65 15.85 10.5 14.45 11.95 15.9 12.35 16.25 12.75 17.4 12.3 17.7 12.15 17.75 12.3 18.05 12.6 18.85 12.95 19.9 Q12.95 21.7 11.8 22.85 L10.0 24.5 8.45 25.85 8.3 25.85 Q7.8 26.0 7.5 26.25 L6.65 26.4 5.8 25.85 5.85 25.85 6.15 25.85 Q6.8 25.85 8.2 24.1 L9.65 23.0 9.75 23.0 10.5 22.25 11.1 21.35 11.1 21.05 11.3 20.7 11.1 20.2 Q11.1 18.75 10.15 18.05 L10.1 17.9 M-9.45 17.9 L-10.95 19.1 -11.0 19.05 -11.35 19.35 -11.8 19.6 -12.0 19.4 -11.95 19.2 -12.1 19.1 -12.3 18.85 -12.35 18.4 -12.15 12.45 -12.1 11.1 -11.85 10.25 -11.8 9.9 -11.85 9.55 -11.7 8.4 -11.6 7.9 -11.1 6.6 Q-10.35 5.05 -9.5 4.95 L-9.45 4.9 -8.95 4.75 -9.65 7.8 -10.1 12.7 -10.1 15.7 -9.45 17.9" fill="#614512" fill-rule="evenodd" stroke="none"/>
      <path d="M13.65 2.9 L13.95 3.75 14.3 5.6 Q14.3 6.8 13.0 8.1 12.15 8.95 10.1 10.25 L9.6 10.7 9.15 10.05 Q8.7 8.95 7.65 8.05 L5.95 6.8 5.7 6.75 5.6 6.75 4.45 6.6 4.95 5.75 5.0 4.3 5.0 3.9 5.0 3.8 6.2 1.45 Q7.1 0.95 8.45 0.6 L9.1 1.4 9.6 1.9 9.8 2.1 Q10.65 2.9 11.8 2.9 L12.1 2.9 13.0 2.95 13.6 2.8 13.65 2.9 M0.35 21.0 L-0.05 21.2 -1.3 21.5 -1.45 21.5 -1.85 21.35 -2.05 21.35 -2.35 21.2 -2.85 20.5 -2.45 16.6 -2.45 15.75 -2.5 15.45 -2.65 13.2 Q-3.05 10.4 -4.05 7.7 -4.7 5.95 -5.55 5.05 L-5.55 4.95 -5.85 4.6 -6.0 4.6 -6.1 4.4 -6.2 4.3 -6.45 4.2 -6.7 3.95 -7.35 3.8 -7.6 3.6 -8.85 3.7 Q-9.35 3.75 -9.85 4.05 L-10.0 4.1 Q-10.1 3.95 -10.15 4.1 -10.65 4.25 -11.2 5.25 -12.45 6.25 -12.85 8.25 L-13.1 12.7 -13.3 18.05 -12.95 19.55 -12.85 19.85 -12.85 20.2 -13.1 20.2 -13.3 20.2 -13.95 20.25 -14.25 20.25 -14.95 20.2 -15.0 19.7 -14.95 19.4 -14.85 19.4 -15.0 18.75 -15.1 17.4 -14.85 15.05 -14.95 13.1 -14.8 12.7 -14.8 10.9 -14.45 6.4 -14.1 5.1 -13.95 5.1 -12.45 3.05 Q-11.0 1.45 -8.0 1.45 -6.15 1.45 -4.95 2.9 -4.15 3.8 -3.85 4.8 -3.5 5.75 -1.7 7.1 L0.2 8.25 0.15 11.45 0.0 12.2 0.0 12.35 0.05 13.85 0.15 13.95 0.65 18.05 0.05 20.0 Q-0.05 20.75 0.35 21.0 M16.3 1.55 L16.65 0.65 16.8 -1.45 Q16.8 -2.35 18.75 -4.05 L20.25 -5.35 19.95 -5.75 20.45 -5.6 20.9 -3.4 20.6 -2.4 20.45 -2.05 18.9 -0.55 18.95 -0.45 18.75 -0.35 18.75 -0.25 18.0 0.25 17.65 0.55 16.3 1.55" fill="#943a41" fill-rule="evenodd" stroke="none"/>
      <path d="M-14.1 5.1 Q-13.6 3.75 -12.7 2.75 L-11.85 1.95 -10.65 1.45 -9.95 1.25 Q-8.8 0.65 -7.7 0.65 L-7.15 0.75 Q-6.35 0.95 -5.45 1.55 L-4.95 1.8 -4.95 1.9 -4.35 2.4 -2.85 4.9 Q-1.5 6.8 0.7 6.8 L0.95 6.8 2.5 6.1 2.7 5.95 2.7 5.9 3.2 5.45 3.3 5.3 Q3.7 4.75 3.7 3.95 L3.8 3.8 3.7 2.55 4.1 2.1 4.0 2.05 4.35 1.45 4.95 0.65 Q5.0 -0.05 6.15 -0.55 L8.15 -0.95 9.0 -1.05 9.6 -1.05 9.65 -1.05 9.65 -0.75 9.65 -0.35 9.65 0.3 Q9.65 0.65 10.1 1.1 L11.0 1.95 12.35 1.95 12.85 1.9 Q13.3 1.9 13.65 2.9 L13.6 2.8 13.0 2.95 12.1 2.9 11.8 2.9 Q10.65 2.9 9.8 2.1 L9.6 1.9 9.1 1.4 8.45 0.6 Q7.1 0.95 6.2 1.45 L5.0 3.8 5.0 3.9 5.0 4.3 4.95 5.75 4.45 6.6 4.1 6.6 3.95 6.75 2.95 7.05 Q0.8 8.25 0.8 11.6 L1.0 13.95 1.2 14.9 1.5 15.55 1.7 16.6 1.7 16.85 1.8 16.85 1.85 17.7 1.5 18.05 1.5 18.1 1.0 18.55 0.8 19.4 1.05 20.7 0.35 21.0 Q-0.05 20.75 0.05 20.0 L0.65 18.05 0.15 13.95 0.05 13.85 0.0 12.35 0.0 12.2 0.15 11.45 0.2 8.25 -1.7 7.1 Q-3.5 5.75 -3.85 4.8 -4.15 3.8 -4.95 2.9 -6.15 1.45 -8.0 1.45 -11.0 1.45 -12.45 3.05 L-13.95 5.1 -14.1 5.1 M15.3 -2.7 L17.45 -4.4 19.1 -6.05 19.3 -6.25 19.9 -6.7 20.15 -6.55 20.25 -6.5 20.45 -5.6 19.95 -5.75 20.25 -5.35 18.75 -4.05 Q16.8 -2.35 16.8 -1.45 L16.65 0.65 16.3 1.55 14.75 2.75 14.3 1.4 14.85 0.95 Q15.45 0.4 15.45 -0.6 L15.45 -0.95 15.45 -1.25 15.35 -1.6 15.45 -1.6 15.45 -2.05 15.5 -2.2 15.35 -2.35 15.3 -2.45 15.25 -2.6 15.3 -2.7" fill="#6c2b30" fill-rule="evenodd" stroke="none"/>
    </g>
  </defs>
</svg>
