<?xml version="1.0" encoding="UTF-8" standalone="no"?>
<svg xmlns:ffdec="https://www.free-decompiler.com/flash" xmlns:xlink="http://www.w3.org/1999/xlink" ffdec:objectType="frame" height="461.7px" width="561.9px" xmlns="http://www.w3.org/2000/svg">
  <g transform="matrix(1.0, 0.0, 0.0, 1.0, 78.35, 143.55)">
    <use ffdec:characterId="22" ffdec:characterName="Animation_Environmentals_fla.a_SpirePuff_194" height="89.05" transform="matrix(-0.8883, 0.2568, 0.2019, 0.4276, 27.4466, 41.0649)" width="79.85" xlink:href="#sprite0"/>
    <use ffdec:characterId="24" height="76.85" transform="matrix(-0.8722, 0.5814, 0.8312, 0.3118, 21.2577, 45.3225)" width="92.05" xlink:href="#sprite1"/>
    <use ffdec:characterId="24" height="76.85" transform="matrix(-0.9321, 0.4152, 0.492, 0.4009, 22.1879, 15.9229)" width="92.05" xlink:href="#sprite1"/>
    <use ffdec:characterId="24" height="76.85" transform="matrix(-0.8427, 0.6166, 0.9084, 0.2832, -0.3969, 44.079)" width="92.05" xlink:href="#sprite1"/>
    <use ffdec:characterId="22" ffdec:characterName="Animation_Environmentals_fla.a_SpirePuff_194" height="89.05" transform="matrix(-0.6915, 0.6029, 0.9318, 0.2006, 29.9902, 36.5491)" width="79.85" xlink:href="#sprite0"/>
    <use ffdec:characterId="22" ffdec:characterName="Animation_Environmentals_fla.a_SpirePuff_194" height="89.05" transform="matrix(-0.8883, -0.0619, 0.2019, 0.6505, 243.6966, 30.914)" width="79.85" xlink:href="#sprite0"/>
    <use ffdec:characterId="24" height="76.85" transform="matrix(-0.8722, 0.3704, 0.8312, 0.7808, 237.5077, 33.7973)" width="92.05" xlink:href="#sprite1"/>
    <use ffdec:characterId="24" height="76.85" transform="matrix(-0.9321, 0.1259, 0.492, 0.7455, 238.4379, -4.2337)" width="92.05" xlink:href="#sprite1"/>
    <use ffdec:characterId="24" height="76.85" transform="matrix(-0.8427, 0.4297, 0.9084, 0.778, 215.8531, 22.5042)" width="92.05" xlink:href="#sprite1"/>
    <use ffdec:characterId="22" ffdec:characterName="Animation_Environmentals_fla.a_SpirePuff_194" height="89.05" transform="matrix(-0.6915, 0.4796, 0.9318, 0.6803, 246.2402, 26.1812)" width="79.85" xlink:href="#sprite0"/>
    <use ffdec:characterId="22" ffdec:characterName="Animation_Environmentals_fla.a_SpirePuff_194" height="89.05" transform="matrix(1.1346, -0.2238, -0.432, -1.2564, 96.0211, 110.0525)" width="79.85" xlink:href="#sprite0"/>
    <use ffdec:characterId="24" height="76.85" transform="matrix(0.9868, -1.0753, -1.2284, -1.2598, 109.7207, 102.3464)" width="92.05" xlink:href="#sprite1"/>
    <use ffdec:characterId="24" height="76.85" transform="matrix(1.1248, -0.6442, -0.8372, -1.3257, 107.4007, 177.5319)" width="92.05" xlink:href="#sprite1"/>
    <use ffdec:characterId="24" height="76.85" transform="matrix(0.9418, -1.1652, -1.307, -1.2287, 136.5024, 117.9865)" width="92.05" xlink:href="#sprite1"/>
    <use ffdec:characterId="22" ffdec:characterName="Animation_Environmentals_fla.a_SpirePuff_194" height="89.05" transform="matrix(0.6042, -0.9185, -1.004, -0.8208, 88.7595, 97.3348)" width="79.85" xlink:href="#sprite0"/>
    <use ffdec:characterId="22" ffdec:characterName="Animation_Environmentals_fla.a_SpirePuff_194" height="89.05" transform="matrix(-1.1529, -0.2719, -0.0206, 0.9272, 176.8888, 8.2437)" width="79.85" xlink:href="#sprite0"/>
    <use ffdec:characterId="24" height="76.85" transform="matrix(-1.3043, 0.3042, 0.7337, 1.2166, 161.1727, 8.0503)" width="92.05" xlink:href="#sprite1"/>
    <use ffdec:characterId="24" height="76.85" transform="matrix(-1.2876, -0.0103, 0.3401, 1.116, 189.1878, -37.267)" width="92.05" xlink:href="#sprite1"/>
    <use ffdec:characterId="24" height="76.85" transform="matrix(-1.2924, 0.3757, 0.8189, 1.2259, 141.1841, -11.1879)" width="92.05" xlink:href="#sprite1"/>
    <use ffdec:characterId="22" ffdec:characterName="Animation_Environmentals_fla.a_SpirePuff_194" height="89.05" transform="matrix(-0.8878, 0.3459, 0.6713, 0.8661, 179.3599, 18.6982)" width="79.85" xlink:href="#sprite0"/>
    <use ffdec:characterId="22" ffdec:characterName="Animation_Environmentals_fla.a_SpirePuff_194" height="89.05" transform="matrix(-0.9198, 0.3355, 0.3355, 0.9198, 136.5213, -70.9014)" width="79.85" xlink:href="#sprite0"/>
    <use ffdec:characterId="24" height="76.85" transform="matrix(-0.8096, 0.9794, 0.9794, 0.8096, 125.3573, -62.9768)" width="92.05" xlink:href="#sprite1"/>
    <use ffdec:characterId="24" height="76.85" transform="matrix(-0.9165, 0.6624, 0.6624, 0.9165, 128.0604, -121.9609)" width="92.05" xlink:href="#sprite1"/>
    <use ffdec:characterId="24" height="76.85" transform="matrix(-0.7742, 1.0433, 1.0433, 0.7742, 103.9398, -71.3332)" width="92.05" xlink:href="#sprite1"/>
    <use ffdec:characterId="22" ffdec:characterName="Animation_Environmentals_fla.a_SpirePuff_194" height="89.05" transform="matrix(-0.4986, 0.8028, 0.8028, 0.4986, 142.2751, -62.0071)" width="79.85" xlink:href="#sprite0"/>
    <use ffdec:characterId="22" ffdec:characterName="Animation_Environmentals_fla.a_SpirePuff_194" height="89.05" transform="matrix(-0.3831, 0.3689, 0.3689, 0.3831, 187.4432, -4.8721)" width="79.85" xlink:href="#sprite0"/>
    <use ffdec:characterId="24" height="76.85" transform="matrix(-0.2064, 0.6734, 0.6734, 0.2065, 190.45, -1.0009)" width="92.05" xlink:href="#sprite1"/>
    <use ffdec:characterId="24" height="76.85" transform="matrix(-0.3309, 0.5122, 0.5122, 0.3309, 168.4899, -27.2299)" width="92.05" xlink:href="#sprite1"/>
    <use ffdec:characterId="24" height="76.85" transform="matrix(-0.1643, 0.709, 0.709, 0.1643, 176.1385, 1.9615)" width="92.05" xlink:href="#sprite1"/>
    <use ffdec:characterId="22" ffdec:characterName="Animation_Environmentals_fla.a_SpirePuff_194" height="89.05" transform="matrix(-0.0816, 0.811, 0.811, 0.0817, 182.8987, -16.5837)" width="79.85" xlink:href="#sprite0"/>
    <use ffdec:characterId="22" ffdec:characterName="Animation_Environmentals_fla.a_SpirePuff_194" height="89.05" transform="matrix(-0.3831, 0.3689, 0.3689, 0.3831, 20.1432, 21.4779)" width="79.85" xlink:href="#sprite0"/>
    <use ffdec:characterId="24" height="76.85" transform="matrix(-0.2064, 0.6734, 0.6734, 0.2065, 23.15, 25.3491)" width="92.05" xlink:href="#sprite1"/>
    <use ffdec:characterId="24" height="76.85" transform="matrix(-0.3309, 0.5122, 0.5122, 0.3309, 1.1899, -0.8799)" width="92.05" xlink:href="#sprite1"/>
    <use ffdec:characterId="24" height="76.85" transform="matrix(-0.1643, 0.709, 0.709, 0.1643, 8.8385, 28.3115)" width="92.05" xlink:href="#sprite1"/>
    <use ffdec:characterId="22" ffdec:characterName="Animation_Environmentals_fla.a_SpirePuff_194" height="89.05" transform="matrix(-0.0816, 0.811, 0.811, 0.0817, 15.5987, 9.7663)" width="79.85" xlink:href="#sprite0"/>
    <use ffdec:characterId="22" ffdec:characterName="Animation_Environmentals_fla.a_SpirePuff_194" height="89.05" transform="matrix(-1.0771, 0.3884, 0.3929, 0.4933, 120.9181, 84.3145)" width="79.85" xlink:href="#sprite0"/>
    <use ffdec:characterId="24" height="76.85" transform="matrix(-0.948, 0.7586, 1.1469, 0.2973, 107.7806, 91.3705)" width="92.05" xlink:href="#sprite1"/>
    <use ffdec:characterId="24" height="76.85" transform="matrix(-1.0732, 0.5868, 0.7756, 0.4259, 110.9802, 54.8544)" width="92.05" xlink:href="#sprite1"/>
    <use ffdec:characterId="24" height="76.85" transform="matrix(-0.9066, 0.7904, 1.2216, 0.263, 82.6684, 90.5816)" width="92.05" xlink:href="#sprite1"/>
    <use ffdec:characterId="22" ffdec:characterName="Animation_Environmentals_fla.a_SpirePuff_194" height="89.05" transform="matrix(-0.5839, 0.5888, 0.94, 0.1432, 127.5601, 88.5829)" width="79.85" xlink:href="#sprite0"/>
    <use ffdec:characterId="22" ffdec:characterName="Animation_Environmentals_fla.a_SpirePuff_194" height="89.05" transform="matrix(-1.0771, 0.0258, 0.3929, 0.822, 374.0681, 70.0903)" width="79.85" xlink:href="#sprite0"/>
    <use ffdec:characterId="24" height="76.85" transform="matrix(-0.948, 0.5685, 1.1469, 0.9034, 360.9306, 73.449)" width="92.05" xlink:href="#sprite1"/>
    <use ffdec:characterId="24" height="76.85" transform="matrix(-1.0732, 0.2875, 0.7756, 0.9053, 364.1302, 27.1164)" width="92.05" xlink:href="#sprite1"/>
    <use ffdec:characterId="24" height="76.85" transform="matrix(-0.9066, 0.6287, 1.2216, 0.8919, 335.8184, 61.1342)" width="92.05" xlink:href="#sprite1"/>
    <use ffdec:characterId="22" ffdec:characterName="Animation_Environmentals_fla.a_SpirePuff_194" height="89.05" transform="matrix(-0.5839, 0.5093, 0.94, 0.6088, 380.7101, 78.712)" width="79.85" xlink:href="#sprite0"/>
    <use ffdec:characterId="22" ffdec:characterName="Animation_Environmentals_fla.a_SpirePuff_194" height="89.05" transform="matrix(1.3432, -0.4941, -0.7333, -1.5309, 209.1976, 183.6247)" width="79.85" xlink:href="#sprite0"/>
    <use ffdec:characterId="24" height="76.85" transform="matrix(1.0539, -1.457, -1.6108, -1.404, 228.8276, 168.7644)" width="92.05" xlink:href="#sprite1"/>
    <use ffdec:characterId="24" height="76.85" transform="matrix(1.2493, -1.0197, -1.2244, -1.5301, 226.4535, 262.1019)" width="92.05" xlink:href="#sprite1"/>
    <use ffdec:characterId="24" height="76.85" transform="matrix(1.0061, -1.5293, -1.6717, -1.3666, 258.7631, 185.043)" width="92.05" xlink:href="#sprite1"/>
    <use ffdec:characterId="22" ffdec:characterName="Animation_Environmentals_fla.a_SpirePuff_194" height="89.05" transform="matrix(0.5576, -0.9499, -1.0256, -0.7768, 191.7565, 145.9711)" width="79.85" xlink:href="#sprite0"/>
    <use ffdec:characterId="22" ffdec:characterName="Animation_Environmentals_fla.a_SpirePuff_194" height="89.05" transform="matrix(-1.4433, -0.1812, 0.1712, 1.2044, 297.2976, 39.6652)" width="79.85" xlink:href="#sprite0"/>
    <use ffdec:characterId="24" height="76.85" transform="matrix(-1.4987, 0.5144, 1.047, 1.4431, 273.5399, 41.7034)" width="92.05" xlink:href="#sprite1"/>
    <use ffdec:characterId="24" height="76.85" transform="matrix(-1.5342, 0.1754, 0.6374, 1.3811, 307.7946, -14.7848)" width="92.05" xlink:href="#sprite1"/>
    <use ffdec:characterId="24" height="76.85" transform="matrix(-1.4781, 0.576, 1.1176, 1.4421, 250.667, 20.9077)" width="92.05" xlink:href="#sprite1"/>
    <use ffdec:characterId="22" ffdec:characterName="Animation_Environmentals_fla.a_SpirePuff_194" height="89.05" transform="matrix(-0.8542, 0.3821, 0.7068, 0.8469, 300.8726, 69.1276)" width="79.85" xlink:href="#sprite0"/>
    <use ffdec:characterId="22" ffdec:characterName="Animation_Environmentals_fla.a_SpirePuff_194" height="89.05" transform="matrix(-1.0914, 0.5761, 0.5761, 1.0914, 246.2455, -52.4456)" width="79.85" xlink:href="#sprite0"/>
    <use ffdec:characterId="24" height="76.85" transform="matrix(-0.8681, 1.287, 1.287, 0.8681, 230.2509, -38.03)" width="92.05" xlink:href="#sprite1"/>
    <use ffdec:characterId="24" height="76.85" transform="matrix(-1.0212, 0.9732, 0.9732, 1.0213, 233.162, -111.3699)" width="92.05" xlink:href="#sprite1"/>
    <use ffdec:characterId="24" height="76.85" transform="matrix(-0.8302, 1.3367, 1.3367, 0.8302, 206.148, -46.5425)" width="92.05" xlink:href="#sprite1"/>
    <use ffdec:characterId="22" ffdec:characterName="Animation_Environmentals_fla.a_SpirePuff_194" height="89.05" transform="matrix(-0.4612, 0.8207, 0.8207, 0.4612, 259.8936, -25.5059)" width="79.85" xlink:href="#sprite0"/>
    <use ffdec:characterId="22" ffdec:characterName="Animation_Environmentals_fla.a_SpirePuff_194" height="89.05" transform="matrix(-0.4278, 0.5082, 0.5082, 0.4279, 307.5545, 31.5713)" width="79.85" xlink:href="#sprite0"/>
    <use ffdec:characterId="24" height="76.85" transform="matrix(-0.1416, 0.8671, 0.8671, 0.1417, 306.7011, 37.8919)" width="92.05" xlink:href="#sprite1"/>
    <use ffdec:characterId="24" height="76.85" transform="matrix(-0.3257, 0.6962, 0.6962, 0.3257, 282.5255, 4.8287)" width="92.05" xlink:href="#sprite1"/>
    <use ffdec:characterId="24" height="76.85" transform="matrix(-0.0905, 0.8991, 0.8991, 0.0905, 289.9349, 41.98)" width="92.05" xlink:href="#sprite1"/>
    <use ffdec:characterId="22" ffdec:characterName="Animation_Environmentals_fla.a_SpirePuff_194" height="89.05" transform="matrix(0.0077, 0.8462, 0.8461, -0.0077, 305.5854, 25.9675)" width="79.85" xlink:href="#sprite0"/>
    <use ffdec:characterId="22" ffdec:characterName="Animation_Environmentals_fla.a_SpirePuff_194" height="89.05" transform="matrix(-0.4278, 0.5082, 0.5082, 0.4279, 111.6545, 62.3713)" width="79.85" xlink:href="#sprite0"/>
    <use ffdec:characterId="24" height="76.85" transform="matrix(-0.1416, 0.8671, 0.8671, 0.1417, 110.8011, 68.6919)" width="92.05" xlink:href="#sprite1"/>
    <use ffdec:characterId="24" height="76.85" transform="matrix(-0.3257, 0.6962, 0.6962, 0.3257, 86.6255, 35.6287)" width="92.05" xlink:href="#sprite1"/>
    <use ffdec:characterId="24" height="76.85" transform="matrix(-0.0905, 0.8991, 0.8991, 0.0905, 94.0349, 72.78)" width="92.05" xlink:href="#sprite1"/>
    <use ffdec:characterId="22" ffdec:characterName="Animation_Environmentals_fla.a_SpirePuff_194" height="89.05" transform="matrix(0.0077, 0.8462, 0.8461, -0.0077, 109.6854, 56.7675)" width="79.85" xlink:href="#sprite0"/>
    <use ffdec:characterId="22" ffdec:characterName="Animation_Environmentals_fla.a_SpirePuff_194" height="89.05" transform="matrix(-1.0867, 0.5368, 0.6749, 0.4501, 59.9682, 76.7596)" width="79.85" xlink:href="#sprite0"/>
    <use ffdec:characterId="24" height="76.85" transform="matrix(-0.8302, 0.8372, 1.3367, 0.2036, 44.348, 88.7863)" width="92.05" xlink:href="#sprite1"/>
    <use ffdec:characterId="24" height="76.85" transform="matrix(-0.9867, 0.7219, 1.0637, 0.3317, 46.0795, 49.057)" width="92.05" xlink:href="#sprite1"/>
    <use ffdec:characterId="24" height="76.85" transform="matrix(-0.8034, 0.8517, 1.3733, 0.1834, 20.9156, 88.4573)" width="92.05" xlink:href="#sprite1"/>
    <use ffdec:characterId="22" ffdec:characterName="Animation_Environmentals_fla.a_SpirePuff_194" height="89.05" transform="matrix(-0.4471, 0.4948, 0.8044, 0.0952, 77.4257, 90.8066)" width="79.85" xlink:href="#sprite0"/>
    <use ffdec:characterId="22" ffdec:characterName="Animation_Environmentals_fla.a_SpirePuff_194" height="89.05" transform="matrix(-1.0867, 0.2159, 0.6749, 0.8919, 313.1182, 56.9941)" width="79.85" xlink:href="#sprite0"/>
    <use ffdec:characterId="24" height="76.85" transform="matrix(-0.8302, 0.7242, 1.3367, 0.8657, 297.498, 65.705)" width="92.05" xlink:href="#sprite1"/>
    <use ffdec:characterId="24" height="76.85" transform="matrix(-0.9867, 0.5032, 1.0637, 0.911, 299.2295, 14.4719)" width="92.05" xlink:href="#sprite1"/>
    <use ffdec:characterId="24" height="76.85" transform="matrix(-0.8034, 0.7552, 1.3733, 0.8556, 274.0656, 54.8279)" width="92.05" xlink:href="#sprite1"/>
    <use ffdec:characterId="22" ffdec:characterName="Animation_Environmentals_fla.a_SpirePuff_194" height="89.05" transform="matrix(-0.4471, 0.4476, 0.8044, 0.4852, 330.5757, 83.0521)" width="79.85" xlink:href="#sprite0"/>
    <use ffdec:characterId="22" ffdec:characterName="Animation_Environmentals_fla.a_SpirePuff_194" height="89.05" transform="matrix(1.287, -0.8893, -1.1053, -1.5458, 170.5576, 203.4119)" width="79.85" xlink:href="#sprite0"/>
    <use ffdec:characterId="24" height="76.85" transform="matrix(0.9487, -1.6162, -1.745, -1.3217, 183.8753, 173.5424)" width="92.05" xlink:href="#sprite1"/>
    <use ffdec:characterId="24" height="76.85" transform="matrix(1.1028, -1.3644, -1.5304, -1.4388, 188.6025, 276.7606)" width="92.05" xlink:href="#sprite1"/>
    <use ffdec:characterId="24" height="76.85" transform="matrix(0.9427, -1.6259, -1.7532, -1.3171, 210.7645, 187.9827)" width="92.05" xlink:href="#sprite1"/>
    <use ffdec:characterId="22" ffdec:characterName="Animation_Environmentals_fla.a_SpirePuff_194" height="89.05" transform="matrix(-1.5254, 0.0817, 0.519, 1.3478, 237.738, 20.7057)" width="79.85" xlink:href="#sprite0"/>
    <use ffdec:characterId="24" height="76.85" transform="matrix(-1.4534, 0.6501, 1.2025, 1.4409, 214.8727, 34.2753)" width="92.05" xlink:href="#sprite1"/>
    <use ffdec:characterId="24" height="76.85" transform="matrix(-1.5133, 0.4399, 0.9589, 1.4354, 245.7617, -30.8024)" width="92.05" xlink:href="#sprite1"/>
    <use ffdec:characterId="24" height="76.85" transform="matrix(-1.451, 0.6582, 1.2119, 1.4411, 194.2798, 15.7675)" width="92.05" xlink:href="#sprite1"/>
    <use ffdec:characterId="22" ffdec:characterName="Animation_Environmentals_fla.a_SpirePuff_194" height="89.05" transform="matrix(-1.0504, 0.8768, 0.8768, 1.0504, 181.7982, -67.6468)" width="79.85" xlink:href="#sprite0"/>
    <use ffdec:characterId="24" height="76.85" transform="matrix(-0.7847, 1.3964, 1.3964, 0.7847, 170.7217, -42.4484)" width="92.05" xlink:href="#sprite1"/>
    <use ffdec:characterId="24" height="76.85" transform="matrix(-0.9066, 1.2216, 1.2216, 0.9066, 168.1184, -122.3725)" width="92.05" xlink:href="#sprite1"/>
    <use ffdec:characterId="24" height="76.85" transform="matrix(-0.78, 1.4031, 1.4031, 0.78, 149.1164, -49.8505)" width="92.05" xlink:href="#sprite1"/>
    <use ffdec:characterId="22" ffdec:characterName="Animation_Environmentals_fla.a_SpirePuff_194" height="89.05" transform="matrix(-0.36, 0.6476, 0.6476, 0.3601, 247.0824, 25.0241)" width="79.85" xlink:href="#sprite0"/>
    <use ffdec:characterId="24" height="76.85" transform="matrix(0.0086, 0.9474, 0.9474, -0.0086, 243.9959, 36.4464)" width="92.05" xlink:href="#sprite1"/>
    <use ffdec:characterId="24" height="76.85" transform="matrix(-0.1924, 0.8301, 0.8301, 0.1924, 218.9112, -0.2013)" width="92.05" xlink:href="#sprite1"/>
    <use ffdec:characterId="24" height="76.85" transform="matrix(0.0523, 0.9655, 0.9654, -0.0523, 228.1421, 41.0962)" width="92.05" xlink:href="#sprite1"/>
    <use ffdec:characterId="22" ffdec:characterName="Animation_Environmentals_fla.a_SpirePuff_194" height="89.05" transform="matrix(0.0738, 0.6213, 0.6213, -0.0737, 259.433, 30.8569)" width="79.85" xlink:href="#sprite0"/>
    <use ffdec:characterId="22" ffdec:characterName="Animation_Environmentals_fla.a_SpirePuff_194" height="89.05" transform="matrix(-0.36, 0.6476, 0.6476, 0.3601, 51.1824, 55.8241)" width="79.85" xlink:href="#sprite0"/>
    <use ffdec:characterId="24" height="76.85" transform="matrix(0.0086, 0.9474, 0.9474, -0.0086, 48.0959, 67.2464)" width="92.05" xlink:href="#sprite1"/>
    <use ffdec:characterId="24" height="76.85" transform="matrix(-0.1924, 0.8301, 0.8301, 0.1924, 23.0112, 30.5987)" width="92.05" xlink:href="#sprite1"/>
    <use ffdec:characterId="24" height="76.85" transform="matrix(0.0523, 0.9655, 0.9654, -0.0523, 32.2421, 71.8962)" width="92.05" xlink:href="#sprite1"/>
    <use ffdec:characterId="22" ffdec:characterName="Animation_Environmentals_fla.a_SpirePuff_194" height="89.05" transform="matrix(0.0738, 0.6213, 0.6213, -0.0737, 63.533, 61.6569)" width="79.85" xlink:href="#sprite0"/>
    <use ffdec:characterId="22" ffdec:characterName="Animation_Environmentals_fla.a_SpirePuff_194" height="89.05" transform="matrix(-0.8534, 0.6244, 0.92, 0.2868, 63.7163, 131.6961)" width="79.85" xlink:href="#sprite0"/>
    <use ffdec:characterId="24" height="76.85" transform="matrix(-0.718, 0.7241, 1.1561, 0.1761, 54.0, 110.3101)" width="92.05" xlink:href="#sprite1"/>
    <use ffdec:characterId="22" ffdec:characterName="Animation_Environmentals_fla.a_SpirePuff_194" height="89.05" transform="matrix(-0.8534, 0.4352, 0.92, 0.7879, 282.6663, 106.384)" width="79.85" xlink:href="#sprite0"/>
    <use ffdec:characterId="24" height="76.85" transform="matrix(-0.718, 0.6264, 1.1561, 0.7487, 272.95, 74.0482)" width="92.05" xlink:href="#sprite1"/>
    <use ffdec:characterId="22" ffdec:characterName="Animation_Environmentals_fla.a_SpirePuff_194" height="89.05" transform="matrix(0.9538, -1.1801, -1.3236, -1.2444, 193.4105, 263.1898)" width="79.85" xlink:href="#sprite0"/>
    <use ffdec:characterId="24" height="76.85" transform="matrix(0.8205, -1.3978, -1.5092, -1.1431, 200.5067, 317.8219)" width="92.05" xlink:href="#sprite1"/>
    <use ffdec:characterId="22" ffdec:characterName="Animation_Environmentals_fla.a_SpirePuff_194" height="89.05" transform="matrix(-1.3089, 0.3805, 0.8293, 1.2415, 219.9611, 70.6659)" width="79.85" xlink:href="#sprite0"/>
    <use ffdec:characterId="24" height="76.85" transform="matrix(-1.2571, 0.5623, 1.0401, 1.2463, 231.8835, 34.5691)" width="92.05" xlink:href="#sprite1"/>
    <use ffdec:characterId="22" ffdec:characterName="Animation_Environmentals_fla.a_SpirePuff_194" height="89.05" transform="matrix(-0.7841, 1.0566, 1.0566, 0.7841, 168.621, 1.0591)" width="79.85" xlink:href="#sprite0"/>
    <use ffdec:characterId="24" height="76.85" transform="matrix(-0.6787, 1.2077, 1.2077, 0.6787, 163.4613, -40.6333)" width="92.05" xlink:href="#sprite1"/>
    <use ffdec:characterId="22" ffdec:characterName="Animation_Environmentals_fla.a_SpirePuff_194" height="89.05" transform="matrix(-0.1664, 0.718, 0.718, 0.1664, 228.0988, 87.9984)" width="79.85" xlink:href="#sprite0"/>
    <use ffdec:characterId="24" height="76.85" transform="matrix(0.1166, 0.8549, 0.8549, -0.1165, 231.5145, 102.4585)" width="92.05" xlink:href="#sprite1"/>
    <use ffdec:characterId="24" height="76.85" transform="matrix(0.0075, 0.8194, 0.8194, -0.0074, 204.3888, 68.9916)" width="92.05" xlink:href="#sprite1"/>
    <use ffdec:characterId="24" height="76.85" transform="matrix(0.1208, 0.8563, 0.8563, -0.1208, 219.8209, 106.3109)" width="92.05" xlink:href="#sprite1"/>
    <use ffdec:characterId="22" ffdec:characterName="Animation_Environmentals_fla.a_SpirePuff_194" height="89.05" transform="matrix(-0.1664, 0.718, 0.718, 0.1664, 58.6488, 114.6484)" width="79.85" xlink:href="#sprite0"/>
    <use ffdec:characterId="24" height="76.85" transform="matrix(0.1166, 0.8549, 0.8549, -0.1165, 62.0645, 129.1085)" width="92.05" xlink:href="#sprite1"/>
    <use ffdec:characterId="24" height="76.85" transform="matrix(0.0075, 0.8194, 0.8194, -0.0074, 34.9388, 95.6416)" width="92.05" xlink:href="#sprite1"/>
    <use ffdec:characterId="24" height="76.85" transform="matrix(0.1208, 0.8563, 0.8563, -0.1208, 50.3709, 132.9609)" width="92.05" xlink:href="#sprite1"/>
  </g>
  <defs>
    <g id="sprite0" transform="matrix(1.0, 0.0, 0.0, 1.0, 79.85, 89.05)">
      <use ffdec:characterId="7" height="16.45" transform="matrix(5.4133, 0.0, 0.0, 5.4133, -79.8455, -89.048)" width="14.75" xlink:href="#shape0"/>
    </g>
    <g id="shape0" transform="matrix(1.0, 0.0, 0.0, 1.0, 14.75, 16.45)">
      <path d="M-12.7 -14.8 Q-12.75 -15.2 -13.05 -15.45 -13.35 -15.75 -13.8 -15.75 -14.25 -15.75 -14.55 -15.5 L-14.6 -15.45 Q-14.55 -15.7 -14.35 -15.95 -14.05 -16.3 -13.6 -16.4 -13.15 -16.5 -12.8 -16.3 -12.45 -16.1 -12.45 -15.55 -12.45 -15.25 -12.7 -14.8 M-14.7 -7.45 Q-14.55 -9.25 -12.95 -10.85 -11.2 -12.6 -8.95 -13.0 -6.55 -13.45 -5.0 -11.9 -3.25 -10.15 -3.2 -6.25 -1.95 -6.35 -1.0 -5.75 0.0 -5.05 0.0 -3.95 0.0 -3.25 -0.85 -2.2 -1.0 -2.7 -1.35 -3.15 -2.3 -4.35 -4.65 -4.1 -4.2 -5.9 -5.9 -7.4 -7.45 -8.8 -9.85 -9.05 -12.4 -9.3 -14.05 -8.05 -14.45 -7.8 -14.7 -7.45" fill="#eff2cd" fill-opacity="0.40784314" fill-rule="evenodd" stroke="none"/>
      <path d="M-14.6 -15.45 L-14.55 -15.5 Q-14.25 -15.75 -13.8 -15.75 -13.35 -15.75 -13.05 -15.45 -12.75 -15.2 -12.7 -14.8 L-12.9 -14.5 Q-13.35 -13.85 -13.75 -13.85 -14.3 -13.85 -14.55 -14.4 -14.7 -14.7 -14.7 -15.05 L-14.6 -15.45 M-0.85 -2.2 L-1.35 -1.65 Q-2.85 0.0 -4.35 0.0 -5.7 0.0 -6.2 -0.8 -7.55 -0.15 -9.5 -0.15 -12.65 -0.15 -14.0 -3.65 -14.4 -4.75 -14.6 -6.05 L-14.75 -7.05 -14.7 -7.45 Q-14.45 -7.8 -14.05 -8.05 -12.4 -9.3 -9.85 -9.05 -7.45 -8.8 -5.9 -7.4 -4.2 -5.9 -4.65 -4.1 -2.3 -4.35 -1.35 -3.15 -1.0 -2.7 -0.85 -2.2" fill="#c8cd99" fill-opacity="0.40784314" fill-rule="evenodd" stroke="none"/>
    </g>
    <g id="sprite1" transform="matrix(1.0, 0.0, 0.0, 1.0, 92.05, 76.85)">
      <use ffdec:characterId="23" height="14.2" transform="matrix(5.4133, 0.0, 0.0, 5.4133, -92.0253, -76.8682)" width="17.0" xlink:href="#shape1"/>
    </g>
    <g id="shape1" transform="matrix(1.0, 0.0, 0.0, 1.0, 17.0, 14.2)">
      <path d="M-16.9 -2.8 L-16.85 -2.85 Q-16.2 -3.35 -15.3 -3.4 -14.4 -3.45 -13.75 -3.0 L-13.65 -2.95 -13.65 -3.1 Q-13.65 -4.25 -12.8 -4.9 -12.0 -5.5 -10.85 -5.45 -9.7 -5.35 -8.9 -4.7 -8.05 -3.95 -8.05 -2.75 L-8.05 -2.7 Q-8.3 -2.25 -8.75 -1.7 -10.05 -0.2 -11.2 -0.2 -12.4 -0.2 -13.1 -0.75 L-13.2 -1.05 -13.3 -0.85 Q-14.15 -0.2 -15.2 -0.2 -16.2 -0.2 -16.7 -1.2 -16.85 -1.55 -16.95 -1.95 L-17.0 -2.3 -17.0 -2.35 -16.9 -2.8 M-8.7 -10.3 L-8.5 -10.6 Q-7.6 -11.6 -5.85 -11.6 -3.8 -11.6 -2.5 -9.75 -1.5 -8.35 -1.5 -7.1 -1.5 -6.2 -1.65 -5.85 -2.0 -5.15 -3.15 -5.15 -3.45 -5.15 -3.65 -5.0 L-3.75 -4.85 -3.95 -4.85 Q-7.35 -4.85 -8.45 -6.9 -8.8 -7.5 -8.85 -8.3 L-8.85 -9.05 Q-8.85 -9.7 -8.7 -10.3 M-4.2 -0.05 L-4.55 0.0 Q-5.2 0.0 -5.55 -0.8 L-5.75 -1.6 Q-5.75 -2.15 -5.2 -2.6 L-5.2 -2.65 -5.05 -2.65 Q-4.4 -2.75 -3.95 -2.5 -3.45 -2.2 -3.45 -1.5 -3.45 -1.05 -4.1 -0.2 L-4.2 -0.05" fill="#c8cd99" fill-opacity="0.67058825" fill-rule="evenodd" stroke="none"/>
      <path d="M-8.05 -2.7 L-8.05 -2.75 Q-8.05 -3.95 -8.9 -4.7 -9.7 -5.35 -10.85 -5.45 -12.0 -5.5 -12.8 -4.9 -13.65 -4.25 -13.65 -3.1 L-13.65 -2.95 -13.75 -3.0 Q-14.4 -3.45 -15.3 -3.4 -16.2 -3.35 -16.85 -2.85 L-16.9 -2.8 Q-16.7 -3.25 -16.2 -3.65 -15.5 -4.25 -14.45 -4.55 L-13.55 -4.65 Q-13.3 -5.4 -12.9 -6.0 -12.05 -7.15 -10.75 -7.25 -9.5 -7.35 -8.65 -6.45 -7.65 -5.45 -7.65 -3.7 -7.65 -3.35 -8.05 -2.7 M-3.75 -4.85 L-3.65 -5.0 Q-3.45 -5.15 -3.15 -5.15 -2.0 -5.15 -1.65 -5.85 -1.5 -6.2 -1.5 -7.1 -1.5 -8.35 -2.5 -9.75 -3.8 -11.6 -5.85 -11.6 -7.6 -11.6 -8.5 -10.6 L-8.7 -10.3 Q-8.4 -11.45 -7.5 -12.45 -6.2 -13.85 -4.45 -14.15 -2.6 -14.45 -1.4 -13.35 0.0 -12.05 0.0 -9.25 0.0 -8.05 -0.75 -6.75 -1.8 -4.9 -3.75 -4.85 M-5.2 -2.65 Q-4.75 -3.05 -4.1 -3.2 -3.45 -3.35 -3.0 -3.1 -2.5 -2.85 -2.5 -2.15 -2.5 -1.75 -3.15 -0.9 -3.65 -0.25 -4.2 -0.05 L-4.1 -0.2 Q-3.45 -1.05 -3.45 -1.5 -3.45 -2.2 -3.95 -2.5 -4.4 -2.75 -5.05 -2.65 L-5.2 -2.65" fill="#eff2cd" fill-opacity="0.67058825" fill-rule="evenodd" stroke="none"/>
      <path d="M-13.3 -0.85 L-13.2 -1.05 -13.1 -0.75 -13.25 -0.9 -13.3 -0.85" fill="#f2f2f2" fill-opacity="0.67058825" fill-rule="evenodd" stroke="none"/>
    </g>
  </defs>
</svg>
