<?xml version="1.0" encoding="UTF-8" standalone="no"?>
<svg xmlns:ffdec="https://www.free-decompiler.com/flash" xmlns:xlink="http://www.w3.org/1999/xlink" ffdec:objectType="frame" height="91.3px" width="569.15px" xmlns="http://www.w3.org/2000/svg">
  <g transform="matrix(1.0, 0.0, 0.0, 1.0, -0.15, -18.2)">
    <use ffdec:characterId="1041" height="91.3" transform="matrix(1.0, 0.0, 0.0, 1.0, 0.15, 18.2)" width="569.15" xlink:href="#shape0"/>
  </g>
  <defs>
    <g id="shape0" transform="matrix(1.0, 0.0, 0.0, 1.0, -0.15, -18.2)">
      <path d="M415.1 27.4 L421.1 26.45 Q429.95 24.8 432.75 24.8 441.2 24.8 442.15 25.75 L443.15 27.05 Q444.1 28.05 446.3 29.05 L473.4 29.05 Q479.1 26.6 490.1 27.6 L515.7 29.3 531.6 28.55 547.5 27.8 Q551.6 27.8 555.25 29.7 558.95 31.55 560.15 31.55 562.85 31.55 566.35 35.55 569.3 38.95 569.3 39.75 569.3 44.15 567.1 46.7 L561.2 52.3 559.2 55.0 554.2 61.25 553.2 60.25 Q555.05 59.15 557.2 56.95 L560.5 53.0 560.9 52.2 564.05 49.45 Q567.8 45.6 567.8 43.85 567.8 39.0 550.75 39.0 532.9 39.0 525.35 40.65 520.65 41.7 520.65 43.2 520.65 44.35 520.85 44.3 L521.05 44.05 530.6 44.8 524.25 46.1 Q523.25 46.15 522.05 45.6 L519.1 44.35 Q513.65 42.55 502.2 42.55 496.8 42.55 494.8 43.6 L491.25 45.35 490.95 45.0 491.9 43.6 Q492.45 42.75 492.45 41.6 492.45 39.85 493.65 38.65 495.35 36.85 496.75 32.6 L496.4 30.35 491.3 30.05 Q490.9 30.05 486.0 33.1 479.9 36.9 474.7 39.2 456.65 47.25 441.65 42.0 L420.75 42.0 416.65 42.85 412.3 43.3 Q413.4 40.35 411.7 39.1 409.65 37.55 409.65 36.15 L412.5 32.75 Q415.3 29.35 415.3 28.85 L415.1 27.4 M22.15 34.75 Q26.05 31.0 31.15 27.8 49.95 15.8 70.95 18.8 L70.95 18.45 94.1 18.45 Q100.8 18.2 107.35 22.3 110.15 24.05 112.9 26.4 L112.05 27.3 111.55 26.55 111.9 27.05 112.0 25.65 109.5 23.75 109.4 23.85 108.95 23.4 Q106.65 21.4 103.6 23.1 105.65 23.45 107.4 24.95 L107.55 25.05 Q103.55 27.85 97.6 33.55 86.6 44.1 83.4 46.3 L69.8 47.8 65.3 48.55 Q64.6 46.7 61.3 44.25 57.5 41.4 54.45 41.4 53.35 41.4 50.35 43.35 46.8 45.6 44.8 46.3 L34.55 49.2 Q32.2 49.8 32.05 51.4 L28.35 51.0 26.45 50.8 28.3 50.1 Q33.0 48.15 33.0 45.45 L32.35 44.6 30.55 43.1 Q22.3 42.2 17.95 44.3 16.45 45.0 15.7 45.85 L14.5 45.75 Q14.0 45.75 13.25 46.3 L15.65 43.35 17.9 40.45 22.15 34.75 M118.15 25.7 Q122.3 24.35 128.8 24.35 133.95 24.3 139.75 24.55 L167.4 24.55 Q193.25 23.8 202.45 29.05 L203.45 29.7 Q202.1 30.7 201.25 32.5 200.5 34.05 199.35 37.65 198.2 40.75 196.65 42.15 L191.15 46.3 Q187.55 48.7 186.05 50.05 L185.75 50.35 185.3 49.5 Q184.6 48.5 183.05 48.0 L171.8 47.45 167.3 47.6 159.3 49.05 156.75 48.35 Q152.7 47.5 143.55 48.35 L119.75 46.2 Q114.65 45.45 113.05 44.2 111.65 43.1 111.65 40.5 111.65 39.55 112.0 38.5 112.3 37.65 112.2 37.1 L110.0 37.35 113.5 31.5 Q116.6 26.6 118.15 25.7 M216.0 30.0 L218.8 29.55 246.8 27.0 296.7 23.7 296.7 23.3 297.45 23.3 301.55 22.75 301.85 23.3 Q309.05 23.3 312.55 27.55 L313.0 28.1 Q311.2 28.9 308.9 30.25 L298.3 37.65 Q293.05 42.9 273.55 46.9 259.0 49.85 254.05 49.85 241.9 49.3 240.1 49.7 L240.05 49.7 237.25 49.5 238.25 49.25 239.05 49.1 244.65 48.95 Q248.95 48.8 251.85 46.75 L255.55 47.05 Q259.0 47.05 260.15 46.0 L261.0 44.6 Q259.8 43.65 258.0 42.9 256.4 42.2 253.4 41.85 L255.15 41.25 254.55 40.75 254.05 40.65 248.05 40.1 238.95 41.75 238.9 41.8 226.3 43.5 210.2 45.55 210.3 46.2 209.9 44.45 216.0 30.0 M319.05 28.8 L329.8 27.2 Q349.4 24.7 381.15 22.95 386.55 21.0 394.95 24.35 399.2 26.0 403.85 28.1 L411.3 27.8 Q409.1 29.0 406.55 31.2 L406.25 30.85 405.05 30.35 401.45 33.5 401.7 32.7 Q401.7 31.6 401.5 31.5 L401.3 31.3 Q399.85 31.2 397.85 32.25 L393.55 34.7 Q386.55 38.4 376.65 38.4 L374.8 38.55 Q373.4 38.9 372.0 40.2 L372.35 41.6 367.5 41.6 361.3 40.4 354.9 39.75 338.5 40.1 337.35 40.25 Q336.8 40.5 336.8 41.7 336.8 42.8 337.1 43.15 L337.4 43.5 Q342.6 43.85 346.6 45.05 349.35 45.9 350.8 46.85 L322.2 46.85 Q327.55 44.15 333.2 42.9 335.9 42.3 335.9 40.5 335.9 39.3 335.3 38.9 L334.0 38.4 321.75 38.4 Q322.85 36.8 323.25 35.4 321.45 32.8 319.8 32.65 L320.7 30.8 Q320.55 29.8 319.1 29.3 L319.05 28.8 M555.25 53.35 L555.4 53.45 555.9 53.55 554.3 54.85 Q551.7 57.1 550.4 58.75 L546.9 58.85 545.75 58.05 546.3 58.45 548.9 58.55 555.25 53.35 M403.25 50.7 L401.8 50.7 Q403.05 48.35 403.1 47.0 L403.55 47.8 403.3 50.05 403.25 50.7 M401.85 45.15 L400.4 44.6 401.3 43.85 401.85 45.15 M385.7 45.1 L381.9 47.85 382.1 47.65 384.5 45.8 Q384.85 45.6 385.25 45.45 L385.7 45.1 M366.05 50.25 L368.35 51.25 366.1 50.95 366.4 50.4 366.05 50.25 M315.4 50.9 L311.4 51.15 313.5 50.6 313.35 50.65 315.4 50.9 M309.1 46.2 L308.8 46.3 308.75 46.25 308.95 46.15 308.9 46.25 309.1 46.2 M301.7 44.55 L302.65 43.4 303.05 43.15 301.7 44.55 M180.3 52.65 L178.65 52.5 175.2 52.2 168.05 51.75 180.9 52.5 181.7 52.25 180.3 52.65 M124.4 51.0 L118.7 52.0 118.45 52.0 119.3 51.0 124.4 51.0 M151.05 42.65 L150.75 42.15 Q146.5 41.8 144.6 42.15 142.5 42.6 142.5 43.95 142.5 45.05 142.8 45.4 L143.05 45.75 144.8 46.05 147.9 46.3 150.0 45.9 Q151.3 45.35 151.3 44.15 L151.05 42.65 M132.8 39.0 Q132.8 36.6 130.5 34.7 128.4 32.95 125.5 32.65 122.45 32.3 120.5 33.8 118.2 35.55 118.2 39.25 118.2 40.6 118.95 41.25 120.1 42.15 123.25 42.15 124.2 42.15 124.65 41.25 125.15 40.3 126.05 40.3 127.85 40.3 130.8 41.65 132.8 42.2 132.8 39.0 M94.1 56.75 L101.0 48.25 101.65 47.25 100.25 49.45 Q98.7 51.85 97.0 53.85 L94.2 56.8 94.1 56.75 M66.0 52.55 Q72.3 50.6 79.1 50.6 L79.25 50.7 Q73.2 50.8 70.2 51.7 L66.0 52.55 M87.3 51.95 L89.05 51.15 88.3 52.2 87.3 51.95 M91.4 31.95 L93.05 32.05 94.8 31.9 91.4 31.95 M54.45 33.15 L55.0 33.2 55.35 33.1 54.45 33.15 M67.0 25.0 Q69.25 25.0 71.55 25.7 L73.55 23.5 Q70.45 15.5 60.05 24.8 60.35 24.9 61.85 25.75 63.1 26.5 64.2 26.5 65.15 26.5 65.6 25.75 66.1 25.0 67.0 25.0 M15.0 49.55 L15.15 49.9 14.7 49.85 15.0 49.55" fill="#999674" fill-rule="evenodd" stroke="none"/>
      <path d="M203.45 29.7 L204.35 30.35 203.65 30.95 Q202.8 31.85 202.8 32.7 L203.2 34.3 Q203.65 35.2 204.6 35.6 L206.25 35.9 Q206.55 35.9 207.1 35.5 L207.45 35.25 Q208.3 34.5 208.3 34.0 L208.2 32.2 Q209.7 31.45 211.95 30.9 L216.0 30.0 209.9 44.45 210.3 46.2 210.2 45.55 226.3 43.5 238.9 41.8 238.95 41.75 248.05 40.1 254.05 40.65 254.55 40.75 255.15 41.25 253.4 41.85 Q256.4 42.2 258.0 42.9 259.8 43.65 261.0 44.6 L260.15 46.0 Q259.0 47.05 255.55 47.05 L251.85 46.75 252.15 46.5 Q250.5 44.35 246.2 43.85 239.75 43.0 227.45 45.8 219.5 47.6 213.5 50.05 207.35 52.55 207.35 54.05 L207.35 54.1 Q204.2 54.05 202.1 54.15 201.45 51.5 204.75 46.55 208.3 41.3 208.3 39.25 208.3 38.05 208.0 37.8 L207.1 37.55 207.1 37.5 207.1 37.3 207.0 36.9 206.85 36.95 Q206.1 37.6 204.7 39.35 202.05 41.6 199.55 44.9 197.2 44.5 195.0 46.3 193.05 46.6 191.95 48.0 L190.4 50.85 Q188.75 54.05 184.65 54.9 L182.3 55.2 175.95 55.3 177.6 54.85 181.6 53.7 181.85 53.6 182.7 53.25 182.05 52.8 181.55 52.65 180.3 52.65 181.7 52.25 180.9 52.5 168.05 51.75 Q165.45 51.4 163.5 50.7 L159.3 49.05 167.3 47.6 171.8 47.45 183.05 48.0 Q184.6 48.5 185.3 49.5 L185.75 50.35 186.05 50.05 Q187.55 48.7 191.15 46.3 L196.65 42.15 Q198.2 40.75 199.35 37.65 200.5 34.05 201.25 32.5 202.1 30.7 203.45 29.7 M313.0 28.1 L313.95 29.65 314.05 29.85 319.05 28.8 319.1 29.3 Q316.25 31.4 313.05 34.95 L313.05 34.85 313.05 34.8 312.9 34.2 312.4 34.05 311.4 34.85 309.5 36.55 306.75 39.3 306.65 39.4 303.95 42.25 303.05 43.15 302.65 43.4 306.15 39.0 305.8 37.85 305.85 37.7 304.5 37.5 297.55 42.15 Q290.25 46.95 287.7 47.8 285.5 48.45 265.9 50.7 L244.65 52.85 244.65 53.25 Q245.35 53.45 244.65 53.8 L243.55 54.45 240.9 54.55 241.45 54.5 241.5 54.2 241.75 51.75 Q241.75 51.0 241.2 50.4 L241.05 50.25 Q240.65 49.9 240.05 49.7 L240.1 49.7 Q241.9 49.3 254.05 49.85 259.0 49.85 273.55 46.9 293.05 42.9 298.3 37.65 L308.9 30.25 Q311.2 28.9 313.0 28.1 M411.3 27.8 L411.85 27.75 415.1 27.4 415.3 28.85 Q415.3 29.35 412.5 32.75 L409.65 36.15 Q409.65 37.55 411.7 39.1 413.4 40.35 412.3 43.3 L416.65 42.85 420.75 42.0 441.65 42.0 Q456.65 47.25 474.7 39.2 479.9 36.9 486.0 33.1 490.9 30.05 491.3 30.05 L496.4 30.35 496.75 32.6 Q495.35 36.85 493.65 38.65 492.45 39.85 492.45 41.6 492.45 42.75 491.9 43.6 L490.95 45.0 491.25 45.35 494.8 43.6 Q496.8 42.55 502.2 42.55 513.65 42.55 519.1 44.35 L522.05 45.6 Q523.25 46.15 524.25 46.1 L530.6 44.8 521.05 44.05 520.85 44.3 Q520.65 44.35 520.65 43.2 520.65 41.7 525.35 40.65 532.9 39.0 550.75 39.0 567.8 39.0 567.8 43.85 567.8 45.6 564.05 49.45 L560.9 52.2 561.05 51.4 560.9 50.75 560.7 50.5 Q559.35 50.9 557.1 52.65 L556.5 53.1 555.9 53.55 555.4 53.45 555.25 53.35 Q565.0 45.35 565.0 44.9 L564.75 43.4 564.45 42.9 Q534.35 42.9 529.65 47.4 530.5 47.85 536.4 49.1 541.75 50.2 543.45 51.9 L522.05 51.05 522.75 50.65 523.5 49.3 Q516.5 42.6 498.9 46.3 489.2 48.35 482.95 51.25 L483.6 50.6 Q486.35 47.95 486.35 47.05 L486.2 45.7 486.0 45.35 Q485.8 45.0 483.9 45.0 L483.6 45.0 489.35 38.45 491.8 36.2 491.6 35.95 490.9 36.4 491.1 36.1 490.4 36.65 490.65 35.7 Q490.65 34.6 490.35 34.2 L490.0 33.75 Q487.7 33.65 485.25 35.75 L479.9 40.4 Q470.45 47.25 451.5 47.25 L446.45 46.3 441.45 45.35 Q417.95 45.35 414.8 46.0 413.05 46.4 411.3 47.6 L406.3 50.7 403.25 50.7 403.3 50.05 403.55 47.8 403.1 47.0 403.0 46.45 Q402.8 45.7 401.85 45.15 L401.3 43.85 400.4 44.6 397.9 44.1 398.0 44.0 401.15 40.8 405.7 36.1 406.8 34.95 406.7 34.25 406.15 34.1 405.05 35.1 Q406.75 33.0 406.75 32.4 L406.7 31.55 406.55 31.2 Q409.1 29.0 411.3 27.8 M319.8 32.65 Q321.45 32.8 323.25 35.4 322.85 36.8 321.75 38.4 L334.0 38.4 335.3 38.9 Q335.9 39.3 335.9 40.5 335.9 42.3 333.2 42.9 327.55 44.15 322.2 46.85 L350.8 46.85 Q349.35 45.9 346.6 45.05 342.6 43.85 337.4 43.5 L337.1 43.15 Q336.8 42.8 336.8 41.7 336.8 40.5 337.35 40.25 L338.5 40.1 354.9 39.75 361.3 40.4 367.5 41.6 372.35 41.6 372.0 40.2 Q373.4 38.9 374.8 38.55 L376.65 38.4 Q386.55 38.4 393.55 34.7 L397.85 32.25 Q399.85 31.2 401.3 31.3 L401.5 31.5 Q401.7 31.6 401.7 32.7 L401.45 33.5 395.5 38.65 Q391.75 40.3 386.05 44.8 L385.95 44.9 385.7 45.1 385.25 45.45 Q384.85 45.6 384.5 45.8 L384.45 45.8 385.35 45.1 388.2 42.75 Q385.85 41.75 384.0 42.2 382.9 42.45 380.65 43.9 375.2 47.25 368.4 47.25 367.5 47.25 361.45 45.1 355.35 42.9 352.0 42.9 349.65 42.9 349.0 44.05 L360.8 48.3 361.6 48.55 361.7 48.6 361.8 48.65 366.05 50.25 366.4 50.4 366.1 50.95 Q360.8 50.1 358.65 49.3 L328.0 49.3 317.55 50.7 315.45 50.9 315.4 50.9 313.35 50.65 313.5 50.6 Q321.55 48.0 323.7 44.6 319.25 42.05 313.65 43.9 L309.1 46.2 308.9 46.25 308.95 46.15 Q313.0 44.25 315.85 39.75 L315.95 39.65 316.35 39.0 316.65 38.5 319.8 32.65 M343.75 43.65 L343.6 43.9 343.4 44.25 346.3 44.25 Q346.25 44.0 345.0 43.8 L343.75 43.65 M143.55 48.35 L134.85 49.4 125.1 50.9 124.4 51.0 119.3 51.0 118.45 52.0 114.75 51.65 113.85 51.6 107.65 51.05 107.4 51.0 103.75 50.7 Q103.2 50.7 102.4 51.15 L103.7 48.85 104.05 48.3 106.45 43.85 106.55 43.6 107.45 41.95 108.55 39.95 108.65 39.8 109.5 38.25 110.0 37.35 112.2 37.1 Q112.3 37.65 112.0 38.5 111.65 39.55 111.65 40.5 111.65 43.1 113.05 44.2 114.65 45.45 119.75 46.2 L143.55 48.35 M132.8 39.0 Q132.8 42.2 130.8 41.65 127.85 40.3 126.05 40.3 125.15 40.3 124.65 41.25 124.2 42.15 123.25 42.15 120.1 42.15 118.95 41.25 118.2 40.6 118.2 39.25 118.2 35.55 120.5 33.8 122.45 32.3 125.5 32.65 128.4 32.95 130.5 34.7 132.8 36.6 132.8 39.0 M151.05 42.65 L151.3 44.15 Q151.3 45.35 150.0 45.9 L147.9 46.3 144.8 46.05 143.05 45.75 142.8 45.4 Q142.5 45.05 142.5 43.95 142.5 42.6 144.6 42.15 146.5 41.8 150.75 42.15 L151.05 42.65 M109.4 23.85 L109.5 23.75 112.0 25.65 111.9 27.05 111.55 26.55 109.4 23.85 M94.0 56.75 L98.75 47.05 Q103.95 36.05 103.95 34.65 103.95 33.45 103.45 33.1 102.8 32.8 102.35 32.6 L95.55 42.2 95.3 42.55 89.3 50.75 89.05 51.1 89.05 51.15 87.3 51.95 86.7 51.8 80.75 50.7 79.25 50.7 79.1 50.6 Q72.3 50.6 66.0 52.55 L65.95 52.6 65.2 52.65 64.5 52.65 64.4 52.65 57.65 49.6 Q50.75 46.5 49.2 46.5 47.3 46.5 44.15 49.2 40.95 51.9 39.55 51.9 L32.05 51.4 Q32.2 49.8 34.55 49.2 L44.8 46.3 Q46.8 45.6 50.35 43.35 53.35 41.4 54.45 41.4 57.5 41.4 61.3 44.25 64.6 46.7 65.3 48.55 L69.8 47.8 83.4 46.3 Q86.6 44.1 97.6 33.55 103.55 27.85 107.55 25.05 L108.1 25.6 111.5 28.7 111.3 29.2 Q109.55 31.9 107.3 36.35 L104.55 41.9 104.25 42.45 103.85 43.2 103.5 43.95 101.65 47.25 101.0 48.25 94.1 56.75 94.0 56.75 M67.0 25.0 Q66.1 25.0 65.6 25.75 65.15 26.5 64.2 26.5 63.1 26.5 61.85 25.75 60.35 24.9 60.05 24.8 70.45 15.5 73.55 23.5 L71.55 25.7 Q69.25 25.0 67.0 25.0 M15.7 45.85 Q16.45 45.0 17.95 44.3 22.3 42.2 30.55 43.1 L32.35 44.6 33.0 45.45 Q33.0 48.15 28.3 50.1 L26.45 50.8 15.15 49.9 15.0 49.55 16.3 47.8 15.8 46.1 15.85 45.95 15.7 45.85" fill="#818d65" fill-rule="evenodd" stroke="none"/>
      <path d="M300.65 106.9 L295.2 106.85 Q294.65 106.75 293.65 106.1 L295.2 106.2 297.05 105.9 297.8 105.25 297.8 104.7 Q296.55 104.8 294.2 102.45 L291.6 99.65 291.55 99.6 291.8 97.5 293.35 99.2 Q297.8 104.0 301.2 105.8 L300.05 105.9 300.5 106.7 300.65 106.9 M1.7 96.7 Q1.2 94.45 1.0 91.85 L1.0 91.0 2.7 95.6 Q4.6 100.0 7.15 102.65 L6.25 102.55 3.8 98.45 Q3.0 97.2 1.7 96.7 M483.6 45.0 L483.9 45.0 Q485.8 45.0 486.0 45.35 L486.2 45.7 486.35 47.05 Q486.35 47.95 483.6 50.6 L482.95 51.25 Q489.2 48.35 498.9 46.3 516.5 42.6 523.5 49.3 L522.75 50.65 522.05 51.05 543.45 51.9 Q541.75 50.2 536.4 49.1 530.5 47.85 529.65 47.4 534.35 42.9 564.45 42.9 L564.75 43.4 565.0 44.9 Q565.0 45.35 555.25 53.35 L548.9 58.55 546.3 58.45 545.75 58.05 544.15 57.1 544.0 57.0 Q539.45 54.55 533.4 54.35 L527.6 54.5 525.0 54.45 520.3 54.65 514.2 54.75 505.9 55.5 Q492.05 56.85 483.85 58.25 L479.4 59.1 476.0 59.5 476.05 59.95 474.75 60.4 471.5 61.8 Q471.25 61.9 471.1 62.05 L470.85 61.85 470.9 61.45 471.7 58.1 471.75 58.0 471.8 57.9 471.85 57.75 471.9 57.65 471.95 57.5 472.05 57.25 Q473.15 54.75 476.05 52.0 L482.5 46.1 483.6 45.0 M403.25 50.7 L406.3 50.7 411.3 47.6 Q413.05 46.4 414.8 46.0 417.95 45.35 441.45 45.35 L446.45 46.3 451.5 47.25 Q470.45 47.25 479.9 40.4 L485.25 35.75 Q487.7 33.65 490.0 33.75 L490.35 34.2 Q490.65 34.6 490.65 35.7 L490.4 36.65 490.4 36.7 490.2 36.85 490.1 36.9 Q487.5 38.65 484.1 41.85 L483.85 42.1 Q480.8 44.7 478.25 47.15 L476.35 49.0 Q469.95 53.95 468.85 55.15 L468.25 56.15 Q467.65 57.65 467.65 60.6 L467.75 62.75 467.8 63.05 468.1 63.8 468.1 64.45 468.15 64.55 467.7 65.15 467.5 65.5 466.45 66.45 466.4 66.15 467.05 64.95 466.3 59.3 Q466.05 57.55 464.5 56.5 462.4 55.1 458.1 54.85 L446.15 55.2 434.8 55.95 Q434.1 56.15 433.35 56.65 427.2 56.4 419.3 56.4 L414.75 56.6 405.95 57.05 396.05 57.0 Q392.25 56.0 389.35 56.5 L389.3 56.4 388.8 56.6 Q384.7 57.45 382.3 61.35 L381.45 62.9 381.0 62.95 380.3 62.0 387.85 54.3 397.9 44.1 400.4 44.6 401.85 45.15 Q402.8 45.7 403.0 46.45 L403.1 47.0 Q403.05 48.35 401.8 50.7 L403.25 50.7 M505.1 49.1 Q498.95 49.1 494.25 50.5 L498.8 50.4 519.25 50.95 517.05 50.5 510.45 49.65 507.35 49.3 505.1 49.1 M515.4 67.55 Q519.6 67.3 519.6 64.75 L519.45 64.1 519.25 64.15 516.15 65.6 Q512.9 66.85 508.8 66.85 L504.35 66.35 501.5 65.8 496.85 66.25 495.0 66.8 Q494.25 66.35 494.25 65.8 L494.7 64.4 Q512.9 64.4 515.95 61.4 516.5 60.9 516.85 61.25 518.95 63.1 522.05 65.15 L519.95 67.0 Q518.9 67.75 517.2 67.75 L515.4 67.55 M524.8 65.95 L521.3 64.55 Q536.3 61.25 540.3 61.55 543.7 61.75 544.95 64.25 L542.7 64.5 538.2 66.25 Q535.0 67.4 532.1 67.4 L524.8 65.95 M545.5 70.35 L545.4 71.3 545.05 71.65 544.1 72.25 542.75 70.95 543.15 70.95 Q544.6 70.95 545.5 70.35 M537.55 68.05 L535.8 68.5 Q536.7 67.9 537.0 67.9 L537.55 68.05 M509.65 95.95 Q506.55 98.9 503.35 98.9 L502.7 98.85 502.25 98.75 502.05 98.55 Q505.85 96.95 510.1 92.4 514.35 87.95 514.35 85.65 L513.75 84.3 Q513.1 83.2 513.1 82.6 L513.35 81.75 Q513.65 81.0 514.0 80.85 L515.3 82.75 515.55 83.3 515.4 83.4 Q516.7 85.7 513.85 89.35 510.25 93.3 509.35 94.85 510.55 94.55 511.85 93.45 L511.55 93.85 509.65 95.95 M457.45 60.0 L456.95 61.35 456.9 61.55 456.85 61.65 Q455.8 65.0 455.8 67.2 L455.8 67.35 455.8 67.5 456.65 73.15 455.9 73.3 454.2 73.3 455.35 72.8 454.9 71.9 Q452.25 72.45 447.15 71.0 L443.4 69.8 447.0 69.8 Q447.75 69.65 448.0 69.25 L447.15 69.05 448.05 67.1 448.7 64.55 448.4 62.9 Q447.95 61.85 447.15 61.55 L456.65 59.3 457.65 59.6 457.45 60.0 M384.55 68.5 L384.55 68.25 385.2 64.55 385.25 64.4 385.3 64.2 385.35 64.05 386.35 62.5 Q387.15 61.45 388.0 60.75 L394.8 60.15 Q396.1 60.0 396.25 59.7 L397.15 59.7 406.55 60.25 427.65 61.2 Q428.2 61.45 428.15 61.85 L428.4 62.0 423.2 62.25 418.0 62.4 407.45 62.2 Q399.6 62.2 393.2 63.35 392.0 63.55 390.4 65.25 388.85 66.95 388.85 67.9 388.85 68.3 389.0 68.5 L386.8 68.9 384.55 68.5 M424.75 105.4 L425.6 104.6 438.45 103.85 446.25 104.85 427.85 105.35 424.75 105.4 M466.55 94.8 L466.6 94.95 467.1 96.1 467.35 96.25 466.65 95.95 466.55 94.8 M543.1 106.55 L544.75 106.3 544.8 106.4 544.5 106.5 543.1 106.55 M523.25 95.95 Q537.55 94.9 541.8 96.7 L541.45 97.15 Q538.0 96.1 534.0 96.1 525.65 96.1 516.15 97.5 510.15 98.35 507.5 99.05 L506.15 98.75 Q509.5 96.95 523.25 95.95 M553.0 81.55 Q553.0 80.0 553.4 78.8 L553.4 78.65 Q553.7 79.1 553.6 80.15 553.55 81.3 553.0 82.2 L553.0 81.55 M401.45 33.5 L405.05 30.35 406.25 30.85 406.55 31.2 406.7 31.55 406.75 32.4 Q406.75 33.0 405.05 35.1 L404.8 35.3 403.6 36.4 398.7 40.8 396.75 42.4 396.15 42.75 395.8 43.0 394.15 43.8 388.5 46.2 Q387.4 46.65 381.9 51.65 379.4 53.95 377.95 55.7 L377.5 56.2 377.45 56.25 377.5 56.25 376.35 57.8 Q375.4 57.05 374.65 56.7 L373.85 56.4 372.9 56.25 369.9 55.4 357.6 55.4 350.3 55.0 342.65 55.45 342.6 55.45 Q316.35 54.25 301.35 59.05 L298.2 60.2 297.45 60.5 Q296.4 60.0 295.85 59.15 295.9 57.3 296.1 56.75 296.85 55.0 301.35 49.6 L303.1 47.75 306.25 44.5 306.6 44.15 307.55 43.1 309.25 41.2 309.25 41.15 309.65 40.7 310.0 40.25 Q312.2 37.5 312.85 35.9 L312.9 35.75 313.05 34.95 Q316.25 31.4 319.1 29.3 320.55 29.8 320.7 30.8 L319.8 32.65 316.65 38.5 316.35 39.0 315.95 39.65 315.85 39.75 Q313.0 44.25 308.95 46.15 L308.75 46.25 308.8 46.3 309.1 46.2 313.65 43.9 Q319.25 42.05 323.7 44.6 321.55 48.0 313.5 50.6 L311.4 51.15 315.4 50.9 315.45 50.9 317.55 50.7 328.0 49.3 358.65 49.3 Q360.8 50.1 366.1 50.95 L368.35 51.25 366.05 50.25 361.8 48.65 361.7 48.6 361.6 48.55 360.8 48.3 349.0 44.05 Q349.65 42.9 352.0 42.9 355.35 42.9 361.45 45.1 367.5 47.25 368.4 47.25 375.2 47.25 380.65 43.9 382.9 42.45 384.0 42.2 385.85 41.75 388.2 42.75 L385.35 45.1 384.45 45.8 384.5 45.8 382.1 47.65 381.9 47.85 385.7 45.1 385.95 44.9 386.05 44.8 Q391.75 40.3 395.5 38.65 L401.45 33.5 M446.1 68.55 L445.1 67.5 444.9 66.0 Q444.9 64.8 445.3 64.45 445.55 64.25 446.3 63.8 L446.5 63.65 441.2 63.5 445.1 63.2 446.25 63.0 447.05 63.2 447.25 63.8 447.4 64.65 446.75 66.75 Q446.15 68.05 446.1 68.55 M441.95 69.8 L441.9 70.25 442.05 70.6 441.35 70.4 441.35 69.8 441.95 69.8 M393.05 85.5 L392.7 84.75 Q397.85 84.35 402.45 78.8 404.55 76.35 406.7 72.45 L406.0 75.35 Q405.35 76.85 403.3 79.05 L401.45 81.1 Q401.45 81.65 401.6 81.65 L402.15 81.7 Q404.75 81.65 407.15 77.3 L407.85 76.05 Q407.05 78.25 404.5 81.05 L403.65 81.95 Q399.7 85.75 395.15 85.75 L393.8 85.65 393.05 85.5 M437.75 96.45 L432.15 97.05 431.55 97.0 430.65 96.85 434.6 95.85 439.25 95.75 437.75 96.45 M444.35 97.55 L442.4 96.65 440.35 95.65 Q440.8 92.7 445.75 95.2 450.5 97.55 450.95 99.1 450.7 99.65 449.7 99.65 448.95 99.65 444.8 97.75 L444.35 97.55 M438.75 50.05 Q445.65 49.95 447.7 50.9 448.85 51.4 449.5 52.5 L454.75 52.2 456.55 50.6 457.55 50.25 Q447.9 48.35 439.9 47.5 424.5 45.85 418.3 49.85 L438.75 50.05 M343.75 43.65 L345.0 43.8 Q346.25 44.0 346.3 44.25 L343.4 44.25 343.6 43.9 343.75 43.65 M361.75 59.85 L362.45 59.8 370.75 58.9 371.05 58.95 Q372.85 59.45 373.4 61.5 L372.55 63.3 Q371.85 64.9 370.35 64.9 L356.65 64.3 344.55 63.7 Q341.8 63.7 339.6 64.45 L338.6 64.9 335.45 64.7 327.75 63.8 Q338.2 63.85 348.65 62.3 L361.75 59.85 M379.5 72.7 L379.65 73.0 379.65 73.15 379.55 72.85 379.5 72.7 M364.75 107.65 Q361.5 107.95 357.55 107.7 L356.95 107.15 356.8 107.05 364.65 107.25 364.75 107.65 M328.4 82.9 Q331.4 81.35 332.0 81.3 L331.55 81.8 331.0 82.35 332.7 81.7 332.8 82.1 332.85 82.25 Q332.35 83.65 328.0 85.6 323.9 87.4 318.4 88.9 L316.5 88.9 316.05 88.7 316.5 88.45 Q316.85 88.25 317.3 88.0 L314.8 88.55 312.7 89.05 Q311.7 89.4 310.5 91.15 309.4 92.7 308.75 92.9 L308.7 92.9 Q307.65 92.0 307.65 91.7 307.65 89.2 309.95 88.2 311.55 87.55 314.65 87.55 L319.55 86.9 325.4 84.5 325.6 84.45 328.4 82.9 M343.9 65.15 L349.1 64.9 349.3 65.0 344.5 65.15 343.9 65.15 M366.75 62.3 L367.65 61.95 366.15 62.15 Q365.25 62.3 365.05 62.5 L366.75 62.3 M308.15 105.1 L306.95 105.2 307.1 104.6 307.45 105.15 308.15 105.1 M301.7 44.55 L300.15 46.05 292.65 51.45 Q289.85 53.4 288.9 55.45 L286.4 56.3 286.5 55.35 286.4 55.05 286.4 55.0 Q284.55 54.2 282.35 55.75 L281.0 56.95 279.3 57.25 261.2 56.75 243.8 56.15 233.95 55.7 223.1 55.55 204.15 56.6 198.5 57.75 196.6 58.35 194.75 59.2 194.05 58.85 194.45 58.3 194.7 57.95 196.1 55.9 200.4 49.3 200.95 48.35 204.35 42.8 205.45 40.95 206.0 39.95 207.0 38.0 207.1 37.55 208.0 37.8 Q208.3 38.05 208.3 39.25 208.3 41.3 204.75 46.55 201.45 51.5 202.1 54.15 204.2 54.05 207.35 54.1 L207.35 54.05 Q207.35 52.55 213.5 50.05 219.5 47.6 227.45 45.8 239.75 43.0 246.2 43.85 250.5 44.35 252.15 46.5 L251.85 46.75 Q248.95 48.8 244.65 48.95 L239.05 49.1 238.25 49.25 237.25 49.5 240.05 49.7 Q240.65 49.9 241.05 50.25 L241.2 50.4 Q241.75 51.0 241.75 51.75 L241.5 54.2 241.45 54.5 240.9 54.55 243.55 54.45 244.65 53.8 Q245.35 53.45 244.65 53.25 L244.65 52.85 265.9 50.7 Q285.5 48.45 287.7 47.8 290.25 46.95 297.55 42.15 L304.5 37.5 305.85 37.7 305.8 37.85 306.15 39.0 302.65 43.4 301.7 44.55 M279.7 59.65 L279.65 60.9 Q279.65 61.8 282.0 64.1 284.3 66.4 284.3 68.7 L284.3 68.9 282.05 69.45 280.65 68.35 280.2 68.1 Q277.5 63.95 268.5 63.4 L254.45 63.7 239.1 63.75 234.75 64.45 230.1 64.75 228.05 64.55 212.25 64.05 207.65 64.5 205.5 64.5 203.15 64.9 Q201.75 65.15 201.0 66.0 L201.15 66.1 Q200.7 66.4 200.7 66.75 200.7 67.45 202.65 69.55 204.7 71.8 205.85 71.8 206.15 71.8 206.7 70.85 L207.15 69.95 207.75 71.15 207.15 72.1 Q206.65 72.65 205.5 72.65 201.3 72.65 198.95 68.9 197.3 66.35 197.3 64.4 197.3 62.25 227.8 60.4 L258.1 58.75 258.35 58.75 275.6 59.45 279.7 59.65 M249.8 92.45 L254.6 93.5 Q254.95 93.5 255.9 94.0 L255.9 94.3 249.55 93.85 235.9 93.85 219.75 96.6 211.3 97.75 Q212.95 96.25 219.35 94.8 226.4 93.2 235.8 92.5 L235.8 92.4 249.35 92.4 249.6 92.4 249.8 92.45 M268.3 61.95 L260.9 61.65 257.4 61.75 263.7 62.2 268.3 61.95 M223.05 65.15 L219.85 65.4 219.95 65.25 223.05 65.15 M204.1 67.0 L204.05 67.25 203.8 67.0 204.1 67.0 M255.6 78.4 L258.8 79.1 265.9 79.9 Q270.05 79.9 270.65 78.5 L270.8 77.25 Q270.9 76.5 271.3 76.15 L271.9 77.35 272.4 78.5 272.4 78.6 272.4 78.8 Q272.3 80.35 270.9 81.05 269.3 81.9 265.65 81.9 L259.55 81.4 257.35 80.75 254.3 78.8 254.25 78.55 Q254.3 78.25 254.85 78.25 L255.6 78.4 M301.35 72.15 L300.45 72.8 Q297.9 72.8 297.45 71.2 L297.45 69.35 Q297.45 66.5 300.85 65.45 L309.05 64.4 Q308.35 65.85 306.65 67.6 L307.3 66.45 307.15 65.75 307.0 65.45 Q304.85 65.15 302.6 67.45 300.45 69.55 300.45 71.4 L301.35 72.15 M291.0 78.6 L290.9 78.95 290.95 79.3 290.9 78.85 290.65 79.25 291.0 78.6 M204.7 39.35 L203.8 40.45 203.45 40.9 202.8 41.4 202.4 41.8 Q201.55 42.75 200.75 44.4 L200.7 44.55 200.6 44.75 200.2 45.3 199.85 45.8 198.55 47.65 Q197.55 48.25 196.4 50.2 L194.85 53.25 194.6 53.6 Q192.75 56.35 190.65 58.15 L190.25 58.5 189.4 59.1 Q188.25 59.75 187.65 60.1 L187.2 59.95 184.45 59.25 184.1 59.15 181.2 58.7 170.45 57.7 151.65 57.05 109.1 57.25 107.75 57.1 108.1 56.8 108.45 56.5 107.9 56.3 105.85 55.9 105.15 55.9 104.25 55.75 103.55 56.35 Q102.05 56.95 100.55 58.45 L100.1 57.6 99.55 56.7 Q99.55 56.35 100.1 55.25 L100.6 54.2 102.4 51.15 Q103.2 50.7 103.75 50.7 L107.4 51.0 107.65 51.05 113.85 51.6 114.75 51.65 118.45 52.0 118.7 52.0 124.4 51.0 125.1 50.9 134.85 49.4 143.55 48.35 Q152.7 47.5 156.75 48.35 L159.3 49.05 163.5 50.7 Q165.45 51.4 168.05 51.75 L175.2 52.2 178.65 52.5 180.3 52.65 181.55 52.65 182.05 52.8 182.7 53.25 181.85 53.6 181.6 53.7 177.6 54.85 175.95 55.3 182.3 55.2 184.65 54.9 Q188.75 54.05 190.4 50.85 L191.95 48.0 Q193.05 46.6 195.0 46.3 197.2 44.5 199.55 44.9 202.05 41.6 204.7 39.35 M185.5 62.15 Q185.25 64.4 184.4 66.0 183.45 67.95 183.45 69.05 L183.45 69.25 183.45 69.95 183.35 70.7 182.15 70.3 179.3 69.65 Q177.55 69.65 172.85 68.35 167.8 66.95 166.55 65.75 168.7 65.7 169.75 64.85 168.8 64.05 162.8 63.55 L156.55 63.25 142.7 63.25 Q137.95 64.55 131.95 64.5 L126.8 64.2 119.05 64.3 Q118.3 64.45 118.3 66.25 L116.95 66.45 107.55 68.3 110.65 68.6 114.85 68.55 112.75 68.7 104.6 68.7 103.5 68.35 Q103.1 68.1 103.1 66.9 103.1 64.25 116.65 62.75 L129.1 62.05 128.8 62.5 Q129.15 61.8 130.75 60.65 L163.1 61.75 170.5 61.6 179.8 61.2 180.35 61.2 180.65 61.25 Q183.8 61.55 185.5 62.15 M130.1 90.15 Q125.75 89.25 123.75 88.4 L128.8 89.05 143.9 90.3 144.05 90.6 Q144.25 90.85 144.75 91.1 L144.7 91.35 143.85 91.6 142.35 91.6 Q136.65 91.45 130.85 90.3 L130.1 90.15 M100.35 70.4 L100.25 70.4 99.55 70.2 99.35 70.5 Q99.15 70.55 99.15 69.35 99.15 67.35 102.7 65.35 L102.05 66.25 101.75 66.55 Q100.3 68.25 100.3 69.05 L100.35 70.4 M96.7 63.6 L96.7 63.45 96.75 63.45 96.8 63.45 96.7 63.6 M72.8 59.5 Q70.9 60.6 69.8 62.25 71.45 62.9 75.25 63.05 L76.15 63.1 83.2 63.25 83.85 63.25 84.15 63.45 Q80.85 65.8 83.7 67.6 84.6 68.2 88.3 69.4 L88.8 68.85 88.35 69.35 85.7 72.3 85.5 72.55 Q82.2 75.25 81.45 75.25 78.25 75.25 78.0 72.45 L78.45 69.25 Q77.8 68.6 76.3 68.1 L75.2 67.85 75.1 67.75 Q73.7 66.85 72.25 66.85 69.05 66.85 67.05 63.75 L67.75 63.6 70.55 63.25 68.35 62.95 Q67.5 62.95 67.0 63.45 L66.9 63.55 Q65.35 61.2 60.9 63.35 52.05 67.8 52.05 69.05 52.05 69.7 52.4 69.7 49.85 71.3 48.15 71.3 L46.75 70.95 47.05 70.75 Q48.0 69.95 51.15 68.05 L56.45 64.5 59.65 61.4 61.75 59.25 61.85 59.15 62.15 58.9 62.45 59.0 62.55 59.2 62.55 59.55 62.55 59.6 62.9 59.45 63.85 59.2 64.6 59.2 69.2 59.35 69.6 59.4 70.95 59.45 71.2 59.45 72.8 59.5 M26.45 97.1 L26.1 97.2 Q24.35 97.75 21.3 99.15 L16.8 100.85 Q19.0 99.8 20.25 98.35 21.55 96.85 22.5 96.35 26.3 94.35 45.9 92.75 45.9 92.0 46.25 91.6 47.0 90.75 49.25 91.2 50.9 91.55 52.5 92.3 L54.6 93.55 54.95 93.8 54.8 93.95 Q53.6 94.75 48.4 94.5 L44.45 94.45 51.15 93.0 36.2 94.2 27.5 96.8 26.45 97.1 M7.75 66.75 Q8.75 64.7 10.85 62.6 L11.6 62.0 12.95 61.4 Q19.05 59.1 34.5 59.05 L34.95 59.15 35.35 59.3 35.4 59.3 37.35 59.05 51.75 59.5 52.1 60.65 Q51.2 62.1 50.05 62.5 L42.95 62.5 Q51.0 61.3 51.7 60.2 L47.25 60.4 35.9 61.8 24.6 61.95 24.2 62.2 23.5 62.3 Q15.8 62.3 14.65 63.25 L13.0 65.05 Q11.5 66.6 9.0 68.25 9.9 68.15 13.8 66.35 13.3 67.25 13.05 69.4 12.75 71.8 9.75 73.2 8.05 72.7 7.65 71.7 7.5 71.4 7.5 70.0 7.5 68.05 7.75 66.75 M165.0 65.7 L141.25 65.5 140.8 65.3 142.9 65.15 156.55 65.15 165.0 65.7 M123.9 67.7 L124.4 68.15 122.45 68.0 123.9 67.7 M170.1 76.8 L170.35 77.1 Q170.7 77.65 170.8 79.15 170.65 77.75 169.35 77.5 L168.6 77.5 166.95 75.4 Q169.25 75.95 170.1 76.8 M170.8 80.15 L170.7 81.75 Q170.2 82.95 167.95 82.95 165.95 82.95 163.25 81.6 L162.1 81.0 161.65 80.7 160.85 80.25 Q158.95 79.05 157.7 78.4 L156.9 78.05 155.4 78.05 153.5 77.85 152.75 77.75 152.15 77.5 152.65 76.95 Q154.25 75.15 155.8 75.3 156.85 75.35 159.05 76.35 L159.1 76.55 Q160.25 76.9 161.9 77.7 165.2 79.25 166.6 79.25 L167.95 78.9 168.5 80.35 169.25 81.75 Q170.5 81.4 170.75 80.75 L170.8 80.15 M207.55 93.65 Q210.7 91.5 215.7 90.2 L215.85 90.15 216.0 90.75 215.3 92.25 213.75 93.85 207.75 93.85 207.55 93.65 M184.95 100.1 L184.15 100.8 Q181.25 103.2 176.7 103.2 L170.95 102.75 174.65 102.75 Q178.5 102.8 180.55 101.55 182.65 100.3 183.45 100.3 184.1 100.3 184.3 100.65 L184.95 100.1 M146.45 101.85 L142.55 102.0 142.4 101.8 142.1 101.6 143.4 101.35 144.55 101.25 146.45 101.85 M85.65 102.05 L82.8 102.5 Q83.1 102.15 83.8 102.15 L85.65 102.05 M89.05 51.15 L89.05 51.1 89.3 50.75 95.3 42.55 95.55 42.2 102.35 32.6 Q102.8 32.8 103.45 33.1 103.95 33.45 103.95 34.65 103.95 36.05 98.75 47.05 L94.0 56.75 91.2 56.5 90.7 56.5 90.0 56.4 89.0 56.55 80.8 57.25 75.05 56.75 68.7 56.15 41.3 56.15 39.9 55.95 37.1 56.15 23.15 56.15 23.15 56.5 Q12.1 56.15 6.85 56.8 L6.45 55.55 Q6.45 54.1 8.5 51.45 L8.55 51.45 13.25 46.3 Q14.0 45.75 14.5 45.75 L15.7 45.85 15.85 45.95 15.8 46.1 16.3 47.8 15.0 49.55 14.7 49.85 15.15 49.9 26.45 50.8 28.35 51.0 32.05 51.4 39.55 51.9 Q40.95 51.9 44.15 49.2 47.3 46.5 49.2 46.5 50.75 46.5 57.65 49.6 L64.4 52.65 64.5 52.65 65.2 52.65 65.95 52.6 66.0 52.55 70.2 51.7 Q73.2 50.8 79.25 50.7 L80.75 50.7 86.7 51.8 87.3 51.95 88.3 52.2 89.05 51.15 M97.3 73.95 L97.5 73.75 97.65 76.75 97.5 76.75 97.3 73.95 M64.65 65.4 L62.0 66.9 Q60.05 67.75 57.25 67.35 L57.7 67.1 Q62.45 64.85 63.85 64.85 63.95 64.85 64.65 65.4 M149.05 53.7 L138.0 53.7 158.4 55.5 162.55 55.45 159.6 55.2 Q150.2 54.4 149.05 53.7 M145.5 51.15 L130.0 52.1 149.05 52.65 149.0 52.8 150.35 52.95 160.5 52.65 Q155.65 50.95 145.5 51.15 M150.0 94.5 L147.35 94.5 148.7 94.35 150.0 94.5" fill="#696750" fill-rule="evenodd" stroke="none"/>
      <path d="M286.3 101.75 Q283.15 104.35 280.05 104.6 L283.55 103.2 283.4 102.75 277.1 102.25 277.0 102.0 276.7 102.2 245.0 103.15 243.85 103.25 198.8 105.45 196.95 105.35 197.05 104.8 196.85 103.95 193.3 101.7 191.55 100.15 Q189.35 97.9 188.55 95.2 187.95 93.3 187.95 85.55 187.95 84.65 188.7 79.0 L189.45 72.45 Q189.45 71.4 189.9 69.05 L190.95 68.3 191.0 67.75 191.3 67.75 191.75 67.6 193.2 67.0 193.95 66.6 194.65 66.2 Q196.35 68.7 198.0 74.9 200.25 83.35 200.25 86.05 200.25 90.4 198.5 91.3 195.15 93.0 192.9 96.55 L197.0 98.9 200.25 101.05 Q200.9 99.85 201.8 98.85 L201.55 98.8 201.35 98.3 Q201.15 97.9 201.15 96.8 201.15 94.5 203.55 91.85 205.75 89.4 208.8 87.9 211.95 86.4 214.05 86.85 216.45 87.45 216.45 90.55 L214.65 93.45 242.05 92.05 249.35 92.4 235.8 92.4 235.8 92.5 Q226.4 93.2 219.35 94.8 212.95 96.25 211.3 97.75 L219.75 96.6 235.9 93.85 249.55 93.85 255.9 94.3 255.9 94.0 Q254.95 93.5 254.6 93.5 L249.8 92.45 254.75 93.4 Q257.15 94.1 258.0 94.85 L254.0 95.2 242.05 94.85 224.15 96.35 242.1 97.5 251.8 98.6 Q268.75 98.6 272.65 96.65 275.45 95.25 277.55 91.95 279.25 89.25 281.9 82.75 275.7 88.0 275.1 88.9 274.95 89.1 274.95 93.45 L274.75 94.7 Q274.5 94.9 274.5 95.25 L273.75 95.55 271.95 95.8 Q269.55 95.8 268.95 94.15 L268.85 92.3 274.25 86.65 Q280.35 81.1 283.95 81.25 284.3 75.15 284.3 68.9 L284.3 68.7 Q284.3 66.4 282.0 64.1 279.65 61.8 279.65 60.9 L279.7 59.65 280.6 59.65 280.75 59.65 282.5 61.2 Q284.9 63.25 285.8 63.25 L286.55 63.25 288.2 66.15 Q288.85 67.25 289.2 68.9 289.55 70.6 289.55 72.8 L289.25 76.45 Q289.1 79.05 289.55 80.4 L289.8 80.2 290.65 79.25 290.9 78.85 290.95 79.3 290.9 78.95 291.0 78.6 Q291.7 77.15 292.15 74.95 L292.2 74.75 292.2 74.6 Q292.7 71.85 292.75 68.5 L292.75 67.95 292.75 67.9 293.5 67.5 297.2 65.9 297.25 68.3 Q297.25 71.05 296.15 77.9 295.0 84.75 295.0 87.35 295.0 90.8 298.55 91.7 L305.25 92.05 305.55 92.05 305.6 92.0 305.85 91.65 Q307.5 89.0 307.5 88.1 307.5 86.75 310.6 85.7 L312.45 85.25 Q316.0 84.55 321.15 85.1 L321.3 85.25 322.05 85.7 Q323.25 85.1 324.75 84.45 L328.4 82.9 325.6 84.45 325.4 84.5 319.55 86.9 314.65 87.55 Q311.55 87.55 309.95 88.2 307.65 89.2 307.65 91.7 307.65 92.0 308.7 92.9 L308.75 92.9 308.6 93.05 311.0 94.85 Q316.8 97.65 333.05 97.65 336.95 97.65 341.35 95.25 345.8 92.8 354.15 92.8 358.6 92.8 361.55 94.4 L364.3 96.0 Q366.55 96.0 368.25 94.75 369.55 93.75 369.55 93.25 L368.7 88.8 Q367.85 85.3 367.85 84.35 367.85 81.2 370.5 73.95 373.2 66.75 375.9 65.55 377.55 69.5 379.35 72.45 L379.45 72.65 379.5 72.7 379.55 72.85 379.65 73.15 378.85 81.4 378.7 82.55 378.65 83.0 377.8 90.35 378.55 94.75 376.65 99.6 Q375.35 102.65 374.8 104.4 L372.95 105.4 Q369.7 107.2 364.75 107.65 L364.65 107.25 356.8 107.05 356.5 106.75 352.35 106.45 352.75 106.0 352.4 105.45 343.7 105.4 341.15 105.15 310.1 105.0 309.85 105.0 308.15 105.1 307.45 105.15 307.1 104.6 306.95 105.2 303.55 105.5 301.4 105.75 301.2 105.8 Q297.8 104.0 293.35 99.2 L291.8 97.5 291.8 97.3 291.75 94.85 291.65 92.3 291.6 90.9 291.05 83.8 289.95 83.8 Q289.4 86.05 289.5 90.5 L289.65 94.4 Q289.25 98.65 286.3 101.75 M1.0 91.0 L0.9 89.4 1.1 70.95 Q1.1 67.7 2.25 65.3 3.95 63.75 7.1 61.65 8.05 61.0 8.8 60.6 10.6 59.45 11.15 59.5 L10.35 60.05 9.3 60.65 Q8.5 61.15 8.5 61.4 L10.4 61.95 12.85 60.6 12.95 60.55 Q13.35 60.25 13.85 60.1 L11.6 62.0 10.85 62.6 Q8.75 64.7 7.75 66.75 6.65 68.85 6.65 70.85 6.65 76.0 10.7 80.25 14.7 84.55 14.7 86.8 14.7 89.5 12.65 90.35 L6.25 91.85 6.05 93.55 12.35 95.4 17.7 97.1 27.45 94.35 Q37.7 91.55 45.55 91.55 L46.25 91.6 Q45.9 92.0 45.9 92.75 26.3 94.35 22.5 96.35 21.55 96.85 20.25 98.35 19.0 99.8 16.8 100.85 L21.3 99.15 Q24.35 97.75 26.1 97.2 L26.45 97.1 26.65 97.4 33.9 96.15 26.6 97.65 38.4 98.05 53.5 97.65 Q69.5 97.3 80.6 97.65 80.6 96.5 81.9 95.05 79.0 96.05 76.9 92.1 75.35 89.15 75.35 87.45 75.35 84.6 83.1 75.35 L85.5 72.55 85.7 72.3 88.35 69.35 88.8 68.85 88.3 69.4 Q84.6 68.2 83.7 67.6 80.85 65.8 84.15 63.45 L84.35 63.25 83.2 63.25 76.15 63.1 75.25 63.05 Q71.45 62.9 69.8 62.25 70.9 60.6 72.8 59.5 L74.0 59.55 74.3 59.55 89.7 60.25 90.0 60.25 Q90.85 60.95 93.15 62.15 95.65 63.4 96.7 63.45 L96.7 63.6 96.15 64.55 94.8 67.15 94.05 68.8 Q93.2 70.95 93.0 72.7 L93.0 72.75 93.0 72.85 93.0 72.9 93.0 73.0 93.0 73.1 93.0 73.2 93.0 73.3 93.0 73.4 93.0 73.5 93.05 74.15 Q93.2 76.4 94.5 82.5 L95.05 82.5 Q97.25 72.35 98.6 69.05 L98.9 68.4 101.3 64.05 102.2 62.7 102.25 62.7 102.7 62.75 Q103.2 62.9 103.2 64.0 L102.7 65.35 Q99.15 67.35 99.15 69.35 99.15 70.55 99.35 70.5 L99.55 70.2 100.25 70.4 100.35 70.4 Q100.45 77.65 102.15 82.85 104.85 91.05 111.8 96.0 L118.75 95.8 Q118.75 95.35 119.2 94.8 119.7 94.25 120.25 94.1 L132.1 92.8 142.35 91.6 143.85 91.6 144.7 91.35 147.15 91.1 144.05 90.6 143.9 90.3 128.8 89.05 123.75 88.4 Q125.75 89.25 130.1 90.15 L124.0 90.15 122.3 90.15 122.15 89.85 Q121.95 89.5 121.95 88.4 121.95 87.0 123.8 85.6 125.4 84.45 126.25 84.45 131.75 84.45 138.85 85.6 147.25 87.0 152.05 89.3 L159.9 88.9 Q165.85 89.0 164.3 94.5 L171.25 95.05 179.5 81.05 Q183.1 74.95 183.45 69.95 L183.45 69.25 183.45 69.05 Q183.45 67.95 184.4 66.0 185.25 64.4 185.5 62.15 L186.25 62.45 186.9 62.85 Q188.05 63.8 188.05 66.65 L187.95 68.9 188.25 68.95 Q186.95 71.7 186.45 73.6 185.5 77.15 185.5 84.05 L185.6 88.05 Q185.85 92.2 186.65 95.6 L187.2 97.7 186.95 98.0 184.95 100.1 184.3 100.65 Q184.1 100.3 183.45 100.3 182.65 100.3 180.55 101.55 178.5 102.8 174.65 102.75 L170.95 102.75 167.55 102.4 158.4 101.6 Q152.15 101.6 146.5 101.85 L146.45 101.85 144.55 101.25 143.4 101.35 142.1 101.6 142.4 101.8 142.55 102.0 128.0 103.3 115.95 105.0 99.25 104.3 Q98.15 102.95 96.0 101.7 L93.4 100.0 93.15 99.15 93.15 98.8 Q93.75 97.75 93.75 96.55 L93.6 95.2 93.05 94.9 92.8 92.4 Q92.05 92.65 91.8 93.85 L91.7 93.95 91.0 94.55 90.2 95.4 Q89.05 96.8 89.05 97.1 L89.1 98.2 86.6 101.9 85.95 102.0 85.65 102.05 83.8 102.15 Q83.1 102.15 82.8 102.5 L82.55 102.55 51.85 103.75 24.05 105.0 13.15 103.5 7.15 102.65 Q4.6 100.0 2.7 95.6 L1.0 91.0 M112.9 26.4 Q113.5 25.9 114.45 25.55 L116.2 25.1 Q117.6 25.1 118.15 25.65 L118.15 25.7 Q116.6 26.6 113.5 31.5 L110.0 37.35 109.5 38.25 108.65 39.8 108.55 39.95 107.45 41.95 106.55 43.6 106.45 43.85 104.05 48.3 103.7 48.85 102.4 51.15 100.6 54.2 100.1 55.25 Q99.55 56.35 99.55 56.7 L100.1 57.6 100.55 58.45 100.2 58.75 Q99.15 59.85 98.15 61.35 97.5 60.75 97.25 59.7 L97.1 59.15 Q96.75 58.0 96.3 57.6 95.65 57.05 94.2 56.8 L97.0 53.85 Q98.7 51.85 100.25 49.45 L101.65 47.25 103.5 43.95 103.85 43.2 104.25 42.45 104.55 41.9 107.3 36.35 Q109.55 31.9 111.3 29.2 L111.5 28.7 108.1 25.6 107.55 25.05 107.4 24.95 Q105.65 23.45 103.6 23.1 106.65 21.4 108.95 23.4 L109.4 23.85 111.55 26.55 112.05 27.3 112.9 26.4 M204.35 30.35 Q204.9 29.95 205.55 29.8 207.7 29.35 208.2 32.2 L208.3 34.0 Q208.3 34.5 207.45 35.25 L207.1 35.5 Q206.55 35.9 206.25 35.9 L204.6 35.6 Q203.65 35.2 203.2 34.3 L202.8 32.7 Q202.8 31.85 203.65 30.95 L204.35 30.35 M397.9 44.1 L387.85 54.3 380.3 62.0 378.75 60.1 376.35 57.8 377.5 56.25 377.5 56.2 377.95 55.7 Q379.4 53.95 381.9 51.65 387.4 46.65 388.5 46.2 L394.15 43.8 395.8 43.0 396.15 42.75 396.75 42.4 398.7 40.8 403.6 36.4 404.8 35.3 405.05 35.1 406.15 34.1 406.7 34.25 406.8 34.95 405.7 36.1 401.15 40.8 398.0 44.0 397.9 44.1 M468.15 64.55 L468.1 64.45 468.1 63.8 467.8 63.05 467.75 62.75 467.65 60.6 Q467.65 57.65 468.25 56.15 L468.85 55.15 Q469.95 53.95 476.35 49.0 L476.65 48.75 478.25 47.15 Q480.8 44.7 483.85 42.1 L484.1 41.85 Q487.5 38.65 490.1 36.9 L490.2 36.85 490.4 36.7 490.4 36.65 491.1 36.1 490.9 36.4 491.6 35.95 491.8 36.2 489.35 38.45 483.6 45.0 482.5 46.1 476.05 52.0 Q473.15 54.75 472.05 57.25 L471.95 57.5 471.9 57.65 471.85 57.75 471.8 57.9 471.75 58.0 471.7 58.1 470.9 61.45 470.8 62.2 470.5 62.4 469.6 63.1 468.15 64.55 M515.3 82.75 L514.0 80.85 Q513.65 81.0 513.35 81.75 L513.1 82.6 Q513.1 83.2 513.75 84.3 L514.35 85.65 Q514.35 87.95 510.1 92.4 505.85 96.95 502.05 98.55 L502.25 98.75 502.7 98.85 503.35 98.9 Q506.55 98.9 509.65 95.95 L515.05 95.15 Q533.8 92.8 546.4 95.35 545.25 94.0 544.25 92.25 542.6 89.4 542.6 87.45 542.6 84.2 545.95 78.6 L549.25 72.65 Q549.25 71.6 547.75 67.0 L546.55 63.15 Q548.4 64.2 549.75 64.35 L550.25 64.9 550.3 64.95 Q553.5 68.3 554.5 70.4 556.95 75.45 556.95 83.3 556.95 88.6 553.95 95.8 552.35 99.7 550.05 103.7 L548.95 104.45 548.15 104.9 544.8 106.4 544.75 106.3 543.1 106.55 543.05 106.55 540.15 106.55 538.25 106.5 531.0 106.1 511.95 105.9 483.7 106.1 480.5 106.1 479.85 105.75 475.5 104.75 473.8 102.55 471.55 99.5 Q469.55 96.85 467.55 96.75 L467.35 96.25 467.1 96.1 466.6 94.95 466.55 94.8 466.55 94.75 466.0 94.1 Q464.75 94.8 462.6 98.4 L460.6 102.25 Q458.4 103.45 456.2 104.15 L446.25 104.85 438.45 103.85 425.6 104.6 424.75 105.4 405.8 105.55 396.1 106.2 Q391.95 105.65 387.6 104.3 L383.25 98.25 Q381.15 95.25 380.45 92.75 L380.8 92.4 380.25 88.15 380.65 82.8 380.75 81.45 380.8 81.35 381.15 76.95 381.0 71.55 381.05 71.5 381.15 71.5 Q382.3 70.55 384.05 66.55 L384.2 66.3 384.45 65.75 385.2 64.3 385.35 64.05 385.3 64.2 385.25 64.4 385.2 64.55 384.55 68.25 384.55 68.5 384.45 70.2 Q384.45 71.65 384.95 75.45 385.7 81.1 387.1 85.8 391.35 100.5 399.65 100.5 400.05 100.5 411.4 95.8 425.4 91.1 438.75 91.1 L445.45 92.75 454.4 94.85 Q456.95 92.25 457.7 89.05 458.05 87.45 458.05 83.7 L456.95 75.35 456.65 73.15 455.8 67.5 455.8 67.35 455.8 67.2 Q455.8 65.0 456.85 61.65 L456.9 61.55 456.95 61.35 457.45 60.0 457.9 59.1 460.8 59.25 461.2 59.65 Q462.5 61.0 462.9 62.1 L463.0 62.9 463.65 62.75 463.65 62.8 463.65 62.95 Q463.7 64.0 464.15 64.75 L464.8 70.85 464.85 71.55 Q466.0 82.15 466.1 86.05 L467.3 86.05 Q468.05 84.0 468.3 81.7 L468.35 79.85 467.1 70.45 467.1 70.35 467.15 70.4 468.9 71.9 Q470.9 70.85 471.2 68.6 471.6 65.6 472.0 64.95 472.6 64.0 474.2 63.25 L474.15 63.9 473.25 68.05 Q473.25 68.3 477.2 75.8 481.1 83.3 481.1 85.4 481.1 87.65 476.25 95.8 476.25 96.65 477.2 98.05 478.4 99.9 480.15 99.9 L483.8 98.6 Q487.3 97.3 490.2 97.3 L497.15 98.1 501.1 93.95 514.2 80.15 Q514.85 81.15 515.3 82.75 M511.55 93.85 L511.85 93.45 514.7 90.35 515.8 88.85 Q514.95 90.7 511.55 93.85 M523.25 95.95 Q509.5 96.95 506.15 98.75 L507.5 99.05 Q510.15 98.35 516.15 97.5 525.65 96.1 534.0 96.1 538.0 96.1 541.45 97.15 L541.8 96.7 Q537.55 94.9 523.25 95.95 M535.1 96.55 Q525.3 96.55 511.0 99.45 L508.85 99.9 509.6 99.9 521.5 99.55 534.9 99.15 540.45 98.95 Q544.95 98.75 546.45 99.0 L546.9 98.25 541.8 97.5 535.1 96.55 M553.0 81.55 L553.0 82.2 Q553.55 81.3 553.6 80.15 553.7 79.1 553.4 78.65 L553.4 78.8 Q553.0 80.0 553.0 81.55 M407.65 70.9 L407.4 71.05 Q406.95 71.45 406.75 72.15 L406.7 72.45 Q404.55 76.35 402.45 78.8 397.85 84.35 392.7 84.75 L393.05 85.5 392.45 85.35 392.15 85.1 Q391.95 85.4 391.95 83.5 391.95 82.4 394.55 79.25 397.25 76.0 400.25 73.5 405.8 69.0 407.65 70.9 M407.85 76.05 L408.55 74.35 408.55 74.4 Q408.55 78.15 403.75 81.85 L403.65 81.95 404.5 81.05 Q407.05 78.25 407.85 76.05 M431.55 97.0 L416.8 99.15 415.3 99.9 430.15 100.35 441.15 101.05 452.5 100.5 Q447.5 100.35 445.75 99.1 L444.35 97.55 444.8 97.75 Q448.95 99.65 449.7 99.65 450.7 99.65 450.95 99.1 450.5 97.55 445.75 95.2 440.8 92.7 440.35 95.65 L442.4 96.65 437.75 96.45 439.25 95.75 434.6 95.85 430.65 96.85 431.55 97.0 M473.95 84.25 Q474.5 87.7 475.5 90.35 L477.0 90.35 477.15 88.55 Q477.15 85.1 476.65 83.65 476.05 82.05 473.4 78.25 473.4 81.0 473.95 84.25 M313.05 34.95 L312.9 35.75 312.85 35.9 Q312.2 37.5 310.0 40.25 L309.65 40.7 309.25 41.15 309.25 41.2 307.55 43.1 306.6 44.15 306.25 44.5 303.1 47.75 301.35 49.6 Q296.85 55.0 296.1 56.75 295.9 57.3 295.85 59.15 L295.85 60.9 295.8 61.2 Q293.9 62.1 292.9 63.1 L292.5 63.4 292.2 63.65 Q291.65 63.35 291.45 62.6 291.05 61.0 290.5 60.6 L290.0 60.25 289.95 60.15 288.55 58.35 288.4 57.6 Q288.4 56.5 288.9 55.45 289.85 53.4 292.65 51.45 L300.15 46.05 301.7 44.55 303.05 43.15 303.95 42.25 306.65 39.4 306.75 39.3 309.5 36.55 311.4 34.85 312.4 34.05 312.9 34.2 313.05 34.8 313.05 34.85 313.05 34.95 M388.5 48.85 Q389.25 48.85 389.25 48.3 L389.35 48.2 388.5 48.85 M388.25 49.05 Q384.75 49.9 381.4 53.5 L379.5 55.85 Q378.35 57.45 377.85 58.85 L382.05 55.4 382.7 54.75 388.4 49.05 388.25 49.05 M331.55 81.8 L333.65 81.45 332.8 82.1 332.7 81.7 331.0 82.35 331.55 81.8 M316.5 88.45 L314.8 88.55 317.3 88.0 Q316.85 88.25 316.5 88.45 M207.1 37.55 L207.0 38.0 206.0 39.95 205.45 40.95 204.35 42.8 200.95 48.35 200.4 49.3 196.1 55.9 194.7 57.95 194.45 58.3 192.85 60.45 192.6 60.65 191.15 62.35 190.8 62.35 Q190.1 61.0 187.65 60.1 188.25 59.75 189.4 59.1 L190.25 58.5 190.65 58.15 Q192.75 56.35 194.6 53.6 L194.85 53.25 196.4 50.2 Q197.55 48.25 198.55 47.65 L199.85 45.8 200.2 45.3 200.6 44.75 200.7 44.55 200.75 44.4 Q201.55 42.75 202.4 41.8 L202.8 41.4 203.45 40.9 203.8 40.45 204.7 39.35 Q206.1 37.6 206.85 36.95 L207.0 36.9 207.1 37.3 207.1 37.5 207.1 37.55 M272.4 78.5 L271.9 77.35 271.3 76.15 Q270.9 76.5 270.8 77.25 L270.65 78.5 Q270.05 79.9 265.9 79.9 L258.8 79.1 255.6 78.4 Q255.15 77.55 255.15 76.5 255.15 74.3 258.0 73.4 260.4 72.65 265.55 72.65 269.8 72.65 271.5 75.5 272.35 76.9 272.4 78.5 M259.55 81.4 L265.65 81.9 Q269.3 81.9 270.9 81.05 272.3 80.35 272.4 78.8 272.4 80.7 270.95 81.45 269.5 82.2 265.95 82.2 262.1 82.2 259.55 81.4 M296.8 50.95 L294.75 52.15 294.55 52.3 Q295.7 52.5 298.2 50.15 L296.8 50.95 M291.45 56.35 L293.3 54.95 Q292.1 55.4 291.35 56.0 L291.45 56.35 M162.1 81.0 L161.8 80.8 160.85 80.25 161.65 80.7 162.1 81.0 M157.7 78.4 L153.9 78.25 152.9 77.95 152.75 77.75 153.5 77.85 155.4 78.05 156.9 78.05 157.7 78.4 M152.65 76.95 L152.6 76.5 Q152.6 74.1 154.9 72.95 157.5 71.65 163.55 71.7 168.15 73.95 169.65 76.05 L170.1 76.8 Q169.25 75.95 166.95 75.4 L168.6 77.5 Q167.9 77.65 167.9 78.5 L167.95 78.9 166.6 79.25 Q165.2 79.25 161.9 77.7 160.25 76.9 159.1 76.55 L159.05 76.35 Q156.85 75.35 155.8 75.3 154.25 75.15 152.65 76.95 M174.05 97.1 Q180.8 95.45 182.65 90.55 183.6 88.0 183.25 82.75 L183.05 82.95 Q177.15 90.15 173.7 96.35 L174.05 97.1 M207.55 93.65 L207.75 93.85 213.75 93.85 215.3 92.25 216.0 90.75 215.85 90.15 215.7 90.2 Q210.7 91.5 207.55 93.65 M320.6 105.0 L321.0 104.7 311.6 104.25 311.45 104.4 311.25 104.7 320.6 105.0 M97.3 73.95 L97.5 76.75 97.65 76.75 97.5 73.75 97.3 73.95 M81.95 83.2 Q79.65 86.45 79.65 88.3 L80.75 87.35 Q81.8 87.1 81.8 91.65 83.75 90.0 84.35 88.35 L84.55 86.8 Q84.55 85.85 85.05 83.2 L85.5 79.75 Q84.15 80.05 81.95 83.2 M100.85 98.4 L103.65 98.0 106.75 97.3 99.7 89.4 Q94.75 83.7 94.3 83.7 94.3 89.75 95.3 93.15 96.85 98.4 100.85 98.4 M47.05 70.75 L46.55 70.75 45.3 70.6 Q45.0 71.15 45.0 69.55 45.0 68.9 48.0 66.15 48.95 64.65 51.35 62.95 L53.1 61.8 Q55.15 60.2 56.95 59.2 L57.95 59.2 58.95 59.2 Q60.7 58.15 62.3 57.45 62.6 57.8 62.9 57.75 L63.05 58.95 63.05 59.2 62.55 59.2 62.45 59.0 62.15 58.9 61.85 59.15 61.75 59.15 61.75 59.25 59.65 61.4 56.45 64.5 51.15 68.05 Q48.0 69.95 47.05 70.75 M150.0 94.5 L148.7 94.35 147.35 94.5 150.0 94.5 M44.45 94.45 L48.4 94.5 Q53.6 94.75 54.8 93.95 54.7 94.5 53.3 94.65 L50.4 94.65 40.0 95.2 44.45 94.45 M54.6 93.55 L52.5 92.3 54.05 92.4 54.6 93.55" fill="#424032" fill-rule="evenodd" stroke="none"/>
      <path d="M3.55 57.45 L6.75 53.15 8.3 51.35 8.5 51.45 Q6.45 54.1 6.45 55.55 L6.85 56.8 Q4.7 57.05 3.55 57.45 M14.5 42.45 Q15.4 41.15 15.85 40.8 L16.05 40.75 14.5 42.45 M388.8 56.6 L389.3 56.4 389.35 56.5 388.8 56.6 M405.95 57.05 L414.75 56.6 419.3 56.4 Q427.2 56.4 433.35 56.65 L432.7 57.1 405.95 57.05 M466.45 66.45 L467.5 65.5 467.3 65.85 466.5 66.55 466.45 66.45 M476.35 49.0 L478.25 47.15 476.65 48.75 476.35 49.0 M470.9 61.45 L470.85 61.85 471.1 62.05 Q471.25 61.9 471.5 61.8 L470.8 62.2 470.9 61.45 M476.05 59.95 L476.0 59.5 479.4 59.1 476.05 59.95 M520.3 54.65 L525.0 54.45 527.6 54.5 520.3 54.65 M505.1 49.1 L507.35 49.3 510.45 49.65 517.05 50.5 519.25 50.95 498.8 50.4 494.25 50.5 Q498.95 49.1 505.1 49.1 M438.75 50.05 L418.3 49.85 Q424.5 45.85 439.9 47.5 447.9 48.35 457.55 50.25 L456.55 50.6 454.75 52.2 449.5 52.5 Q448.85 51.4 447.7 50.9 445.65 49.95 438.75 50.05 M295.85 59.15 Q296.4 60.0 297.45 60.5 296.55 60.8 295.8 61.2 L295.85 60.9 295.85 59.15 M342.65 55.45 L350.3 55.0 357.6 55.4 345.25 55.4 345.25 55.55 342.65 55.45 M388.25 49.05 L388.4 49.05 382.7 54.75 382.05 55.4 377.85 58.85 Q378.35 57.45 379.5 55.85 L381.4 53.5 Q384.75 49.9 388.25 49.05 M388.5 48.85 L389.35 48.2 389.25 48.3 Q389.25 48.85 388.5 48.85 M373.15 58.05 L372.6 58.0 373.1 57.9 373.15 58.05 M194.45 58.3 L194.05 58.85 194.75 59.2 Q193.65 59.75 192.85 60.45 L194.45 58.3 M279.3 57.25 L281.0 56.95 280.8 57.25 279.3 57.25 M286.4 56.3 L288.9 55.45 Q288.4 56.5 288.4 57.6 L288.55 58.35 Q287.5 57.2 286.35 56.6 L286.35 56.55 286.4 56.3 M290.0 60.25 L290.5 60.6 Q291.05 61.0 291.45 62.6 291.65 63.35 292.2 63.65 L291.95 63.85 Q291.25 62.05 290.0 60.25 M296.8 50.95 L298.2 50.15 Q295.7 52.5 294.55 52.3 L294.75 52.15 296.8 50.95 M291.45 56.35 L291.35 56.0 Q292.1 55.4 293.3 54.95 L291.45 56.35 M190.8 62.35 L191.15 62.35 190.95 62.75 190.85 62.5 190.8 62.35 M103.55 56.35 L104.25 55.75 105.15 55.9 105.85 55.9 Q104.7 55.85 103.55 56.35 M108.1 56.8 L107.75 57.1 109.1 57.25 107.5 57.25 108.1 56.8 M90.7 56.5 L89.0 56.55 90.0 56.4 90.7 56.5 M41.3 56.15 L37.1 56.15 39.9 55.95 41.3 56.15 M37.65 58.95 L37.35 59.05 35.4 59.3 35.35 59.3 34.95 59.15 34.25 58.95 37.3 58.95 37.65 58.95 M145.5 51.15 Q155.65 50.95 160.5 52.65 L150.35 52.95 149.0 52.8 149.05 52.65 130.0 52.1 145.5 51.15 M149.05 53.7 Q150.2 54.4 159.6 55.2 L162.55 55.45 158.4 55.5 138.0 53.7 149.05 53.7" fill="#7d744f" fill-rule="evenodd" stroke="none"/>
      <path d="M515.4 67.55 L515.3 67.55 501.55 67.3 Q498.9 67.3 494.4 68.6 L492.9 68.6 492.5 68.45 Q493.2 67.45 495.0 66.8 L496.85 66.25 501.5 65.8 504.35 66.35 508.8 66.85 Q512.9 66.85 516.15 65.6 L519.25 64.15 519.45 64.1 519.6 64.75 Q519.6 67.3 515.4 67.55 M535.8 68.5 L535.6 68.6 Q534.45 69.3 531.95 69.3 527.5 69.3 524.05 68.25 521.2 67.1 520.35 66.95 522.7 65.9 524.65 65.9 L524.8 65.95 532.1 67.4 Q535.0 67.4 538.2 66.25 L542.7 64.5 544.95 64.25 545.45 64.5 Q546.4 65.4 546.4 68.75 546.4 69.55 545.7 70.2 L545.5 70.35 Q544.6 70.95 543.15 70.95 L542.75 70.95 Q541.5 70.8 540.75 69.9 540.05 69.1 539.95 68.15 L537.8 68.1 537.55 68.05 537.0 67.9 Q536.7 67.9 535.8 68.5 M511.85 93.45 Q510.55 94.55 509.35 94.85 510.25 93.3 513.85 89.35 516.7 85.7 515.4 83.4 L515.55 83.3 Q516.15 82.85 516.85 83.15 517.55 83.5 517.55 84.35 517.55 86.1 515.8 88.85 L514.7 90.35 511.85 93.45 M428.4 62.0 L428.65 61.95 441.0 62.0 444.8 61.65 446.25 61.35 447.15 61.55 Q447.95 61.85 448.4 62.9 L448.7 64.55 448.05 67.1 447.15 69.05 446.95 69.3 446.3 69.1 Q446.1 69.55 446.1 68.65 L446.1 68.55 Q446.15 68.05 446.75 66.75 L447.4 64.65 447.25 63.8 447.05 63.2 446.25 63.0 445.1 63.2 441.2 63.5 441.0 63.5 428.65 63.6 424.65 63.85 418.45 64.25 417.05 64.5 407.35 63.7 Q400.15 63.7 394.35 66.25 L389.75 68.95 389.1 68.65 389.0 68.5 Q388.85 68.3 388.85 67.9 388.85 66.95 390.4 65.25 392.0 63.55 393.2 63.35 399.6 62.2 407.45 62.2 L418.0 62.4 423.2 62.25 428.4 62.0 M442.05 70.6 L441.9 70.25 441.95 69.8 441.95 69.75 442.1 69.5 443.4 69.8 447.15 71.0 Q452.25 72.45 454.9 71.9 L455.35 72.8 454.2 73.3 453.3 73.55 450.1 73.95 Q447.8 73.95 444.7 72.35 442.55 71.25 442.05 70.6 M406.7 72.45 L406.75 72.15 Q406.95 71.45 407.4 71.05 L407.65 70.9 Q408.15 70.6 408.9 70.6 L409.05 70.75 409.2 71.4 Q409.2 72.65 408.55 74.35 L407.85 76.05 407.15 77.3 Q404.75 81.65 402.15 81.7 L401.6 81.65 Q401.45 81.65 401.45 81.1 L403.3 79.05 Q405.35 76.85 406.0 75.35 L406.7 72.45 M349.3 65.0 L349.1 64.9 343.9 65.15 337.25 65.45 338.6 64.9 339.6 64.45 Q341.8 63.7 344.55 63.7 L356.65 64.3 370.35 64.9 Q371.85 64.9 372.55 63.3 L373.4 61.5 373.7 61.05 Q374.65 62.15 374.65 62.95 374.65 64.35 374.0 65.5 372.95 67.25 370.7 67.25 L355.9 66.35 Q350.85 65.65 349.3 65.0 M207.15 69.95 L206.7 70.85 Q206.15 71.8 205.85 71.8 204.7 71.8 202.65 69.55 200.7 67.45 200.7 66.75 200.7 66.4 201.15 66.1 L201.0 66.0 Q201.75 65.15 203.15 64.9 L205.5 64.5 207.65 64.5 212.25 64.05 228.05 64.55 230.1 64.75 230.4 64.75 234.75 64.45 239.1 63.75 254.45 63.7 268.5 63.4 Q277.5 63.95 280.2 68.1 L280.5 68.6 280.25 69.55 279.5 69.7 Q278.3 69.7 276.8 68.85 L273.4 67.05 Q267.35 64.6 254.45 65.5 L239.1 65.45 233.45 65.75 229.45 65.45 227.65 65.3 224.55 65.15 223.2 65.15 223.05 65.15 219.95 65.25 219.85 65.4 219.7 65.45 215.6 66.15 209.65 66.25 204.1 67.0 203.8 67.0 204.05 67.25 Q205.1 68.2 206.3 68.55 207.25 68.85 207.25 69.2 L207.15 69.95 M306.65 67.6 L304.65 69.6 301.55 72.3 301.35 72.15 300.45 71.4 Q300.45 69.55 302.6 67.45 304.85 65.15 307.0 65.45 L307.15 65.75 307.3 66.45 306.65 67.6 M33.9 96.15 L26.65 97.4 26.45 97.1 27.5 96.8 36.2 94.2 51.15 93.0 44.45 94.45 40.0 95.2 38.55 95.4 33.9 96.15 M166.55 65.75 L165.15 65.7 165.0 65.7 156.55 65.15 142.9 65.15 140.8 65.3 130.15 65.75 123.4 66.3 125.5 66.65 125.65 66.9 123.9 67.7 122.45 68.0 114.85 68.55 110.65 68.6 107.55 68.3 116.95 66.45 118.3 66.25 Q118.3 64.45 119.05 64.3 L126.8 64.2 131.95 64.5 Q137.95 64.55 142.7 63.25 L156.55 63.25 162.8 63.55 Q168.8 64.05 169.75 64.85 168.7 65.7 166.55 65.75 M170.8 79.15 L170.8 79.45 170.8 79.65 170.8 79.7 170.8 79.8 170.8 80.15 170.75 80.75 Q170.5 81.4 169.25 81.75 L168.5 80.35 167.95 78.9 167.9 78.5 Q167.9 77.65 168.6 77.5 L169.35 77.5 Q170.65 77.75 170.8 79.15 M75.2 67.85 L76.9 68.95 77.0 69.15 Q77.35 69.45 76.5 69.45 L75.05 69.0 72.35 68.4 70.35 68.65 Q69.05 68.75 67.95 68.15 L66.85 67.2 65.8 66.3 64.65 65.4 Q63.95 64.85 63.85 64.85 62.45 64.85 57.7 67.1 L57.25 67.35 52.65 69.55 52.4 69.7 Q52.05 69.7 52.05 69.05 52.05 67.8 60.9 63.35 65.35 61.2 66.9 63.55 L66.95 63.6 67.05 63.75 Q69.05 66.85 72.25 66.85 73.7 66.85 75.1 67.75 L75.2 67.85 M42.95 62.5 L35.45 63.45 24.7 63.7 Q18.8 63.95 14.5 66.0 L13.8 66.35 Q9.9 68.15 9.0 68.25 11.5 66.6 13.0 65.05 L14.65 63.25 Q15.8 62.3 23.5 62.3 L24.2 62.2 24.6 61.95 35.9 61.8 47.25 60.4 51.7 60.2 Q51.0 61.3 42.95 62.5" fill="#747e5a" fill-rule="evenodd" stroke="none"/>
      <path d="M495.0 66.8 Q493.2 67.45 492.5 68.45 L492.9 68.6 494.4 68.6 Q498.9 67.3 501.55 67.3 L515.3 67.55 515.4 67.55 517.2 67.75 Q518.9 67.75 519.95 67.0 L522.05 65.15 Q518.95 63.1 516.85 61.25 516.5 60.9 515.95 61.4 512.9 64.4 494.7 64.4 L494.25 65.8 Q494.25 66.35 495.0 66.8 M524.8 65.95 L524.65 65.9 Q522.7 65.9 520.35 66.95 521.2 67.1 524.05 68.25 527.5 69.3 531.95 69.3 534.45 69.3 535.6 68.6 L535.8 68.5 537.55 68.05 537.8 68.1 539.95 68.15 Q540.05 69.1 540.75 69.9 541.5 70.8 542.75 70.95 L544.1 72.25 545.05 71.65 545.4 71.3 545.5 70.35 545.7 70.2 Q546.4 69.55 546.4 68.75 546.4 65.4 545.45 64.5 L544.95 64.25 Q543.7 61.75 540.3 61.55 536.3 61.25 521.3 64.55 L524.8 65.95 M515.3 82.75 Q514.85 81.15 514.2 80.15 L501.1 93.95 497.15 98.1 490.2 97.3 Q487.3 97.3 483.8 98.6 L480.15 99.9 Q478.4 99.9 477.2 98.05 476.25 96.65 476.25 95.8 481.1 87.65 481.1 85.4 481.1 83.3 477.2 75.8 473.25 68.3 473.25 68.05 L474.15 63.9 474.2 63.25 474.35 63.2 Q479.5 60.85 494.7 61.0 L514.2 61.0 542.8 60.25 Q544.35 61.85 546.5 63.1 L546.55 63.15 547.75 67.0 Q549.25 71.6 549.25 72.65 L545.95 78.6 Q542.6 84.2 542.6 87.45 542.6 89.4 544.25 92.25 545.25 94.0 546.4 95.35 533.8 92.8 515.05 95.15 L509.65 95.95 511.55 93.85 Q514.95 90.7 515.8 88.85 517.55 86.1 517.55 84.35 517.55 83.5 516.85 83.15 516.15 82.85 515.55 83.3 L515.3 82.75 M457.9 59.1 L457.45 60.0 457.65 59.6 456.65 59.3 447.15 61.55 446.25 61.35 444.8 61.65 441.0 62.0 428.65 61.95 428.4 62.0 428.15 61.85 Q428.2 61.45 427.65 61.2 L406.55 60.25 397.15 59.7 431.0 59.45 431.25 59.5 431.95 59.45 445.4 59.3 449.0 58.8 457.9 59.1 M456.65 73.15 L456.95 75.35 458.05 83.7 Q458.05 87.45 457.7 89.05 456.95 92.25 454.4 94.85 L445.45 92.75 438.75 91.1 Q425.4 91.1 411.4 95.8 400.05 100.5 399.65 100.5 391.35 100.5 387.1 85.8 385.7 81.1 384.95 75.45 384.45 71.65 384.45 70.2 L384.55 68.5 386.8 68.9 389.0 68.5 389.1 68.65 389.75 68.95 394.35 66.25 Q400.15 63.7 407.35 63.7 L417.05 64.5 418.45 64.25 424.65 63.85 428.65 63.6 441.0 63.5 441.2 63.5 446.5 63.65 446.3 63.8 Q445.55 64.25 445.3 64.45 444.9 64.8 444.9 66.0 L445.1 67.5 446.1 68.55 446.1 68.65 Q446.1 69.55 446.3 69.1 L446.95 69.3 447.15 69.05 448.0 69.25 Q447.75 69.65 447.0 69.8 L443.4 69.8 442.1 69.5 441.95 69.75 441.95 69.8 441.35 69.8 441.35 70.4 442.05 70.6 Q442.55 71.25 444.7 72.35 447.8 73.95 450.1 73.95 L453.3 73.55 454.2 73.3 455.9 73.3 456.65 73.15 M535.1 96.55 L541.8 97.5 546.9 98.25 546.45 99.0 Q544.95 98.75 540.45 98.95 L534.9 99.15 521.5 99.55 509.6 99.9 508.85 99.9 511.0 99.45 Q525.3 96.55 535.1 96.55 M407.65 70.9 Q405.8 69.0 400.25 73.5 397.25 76.0 394.55 79.25 391.95 82.4 391.95 83.5 391.95 85.4 392.15 85.1 L392.45 85.35 393.05 85.5 393.8 85.65 395.15 85.75 Q399.7 85.75 403.65 81.95 L403.75 81.85 Q408.55 78.15 408.55 74.4 L408.55 74.35 Q409.2 72.65 409.2 71.4 L409.05 70.75 408.9 70.6 Q408.15 70.6 407.65 70.9 M431.55 97.0 L432.15 97.05 437.75 96.45 442.4 96.65 444.35 97.55 445.75 99.1 Q447.5 100.35 452.5 100.5 L441.15 101.05 430.15 100.35 415.3 99.9 416.8 99.15 431.55 97.0 M473.95 84.25 Q473.4 81.0 473.4 78.25 476.05 82.05 476.65 83.65 477.15 85.1 477.15 88.55 L477.0 90.35 475.5 90.35 Q474.5 87.7 473.95 84.25 M370.75 58.9 L371.05 58.85 373.25 58.45 374.8 62.7 375.9 65.55 Q373.2 66.75 370.5 73.95 367.85 81.2 367.85 84.35 367.85 85.3 368.7 88.8 L369.55 93.25 Q369.55 93.75 368.25 94.75 366.55 96.0 364.3 96.0 L361.55 94.4 Q358.6 92.8 354.15 92.8 345.8 92.8 341.35 95.25 336.95 97.65 333.05 97.65 316.8 97.65 311.0 94.85 L308.6 93.05 308.75 92.9 Q309.4 92.7 310.5 91.15 311.7 89.4 312.7 89.05 L314.8 88.55 316.5 88.45 316.05 88.7 316.5 88.9 318.4 88.9 Q323.9 87.4 328.0 85.6 332.35 83.65 332.85 82.25 L332.8 82.1 333.65 81.45 331.55 81.8 332.0 81.3 Q331.4 81.35 328.4 82.9 L324.75 84.45 Q323.25 85.1 322.05 85.7 L321.3 85.25 321.15 85.1 Q316.0 84.55 312.45 85.25 L310.6 85.7 Q307.5 86.75 307.5 88.1 307.5 89.0 305.85 91.65 L305.6 92.0 305.55 92.05 305.25 92.05 298.55 91.7 Q295.0 90.8 295.0 87.35 295.0 84.75 296.15 77.9 297.25 71.05 297.25 68.3 L297.2 65.9 Q308.65 61.55 332.1 60.5 L355.15 59.7 355.45 59.75 361.75 59.85 348.65 62.3 Q338.2 63.85 327.75 63.8 L335.45 64.7 338.6 64.9 337.25 65.45 343.9 65.15 344.5 65.15 349.3 65.0 Q350.85 65.65 355.9 66.35 L370.7 67.25 Q372.95 67.25 374.0 65.5 374.65 64.35 374.65 62.95 374.65 62.15 373.7 61.05 L373.4 61.5 Q372.85 59.45 371.05 58.95 L370.75 58.9 M366.75 62.3 L365.05 62.5 Q365.25 62.3 366.15 62.15 L367.65 61.95 366.75 62.3 M284.3 68.9 Q284.3 75.15 283.95 81.25 280.35 81.1 274.25 86.65 L268.85 92.3 268.95 94.15 Q269.55 95.8 271.95 95.8 L273.75 95.55 274.5 95.25 Q274.5 94.9 274.75 94.7 L274.95 93.45 Q274.95 89.1 275.1 88.9 275.7 88.0 281.9 82.75 279.25 89.25 277.55 91.95 275.45 95.25 272.65 96.65 268.75 98.6 251.8 98.6 L242.1 97.5 224.15 96.35 242.05 94.85 254.0 95.2 258.0 94.85 Q257.15 94.1 254.75 93.4 L249.8 92.45 249.6 92.4 249.35 92.4 242.05 92.05 214.65 93.45 216.45 90.55 Q216.45 87.45 214.05 86.85 211.95 86.4 208.8 87.9 205.75 89.4 203.55 91.85 201.15 94.5 201.15 96.8 201.15 97.9 201.35 98.3 L201.55 98.8 201.8 98.85 Q200.9 99.85 200.25 101.05 L197.0 98.9 192.9 96.55 Q195.15 93.0 198.5 91.3 200.25 90.4 200.25 86.05 200.25 83.35 198.0 74.9 196.35 68.7 194.65 66.2 L193.95 66.6 196.05 65.1 Q197.9 63.3 198.8 62.9 L199.25 62.7 Q204.55 60.5 228.0 58.95 L258.1 58.75 227.8 60.4 Q197.3 62.25 197.3 64.4 197.3 66.35 198.95 68.9 201.3 72.65 205.5 72.65 206.65 72.65 207.15 72.1 L207.75 71.15 207.15 69.95 207.25 69.2 Q207.25 68.85 206.3 68.55 205.1 68.2 204.05 67.25 L204.1 67.0 209.65 66.25 215.6 66.15 219.7 65.45 219.85 65.4 223.05 65.15 223.2 65.15 224.55 65.15 227.65 65.3 229.45 65.45 233.45 65.75 239.1 65.45 254.45 65.5 Q267.35 64.6 273.4 67.05 L276.8 68.85 Q278.3 69.7 279.5 69.7 L280.25 69.55 280.5 68.6 280.2 68.1 280.65 68.35 282.05 69.45 284.3 68.9 M230.1 64.75 L234.75 64.45 230.4 64.75 230.1 64.75 M268.3 61.95 L263.7 62.2 257.4 61.75 260.9 61.65 268.3 61.95 M272.4 78.5 Q272.35 76.9 271.5 75.5 269.8 72.65 265.55 72.65 260.4 72.65 258.0 73.4 255.15 74.3 255.15 76.5 255.15 77.55 255.6 78.4 L254.85 78.25 Q254.3 78.25 254.25 78.55 L254.3 78.8 257.35 80.75 259.55 81.4 Q262.1 82.2 265.95 82.2 269.5 82.2 270.95 81.45 272.4 80.7 272.4 78.8 L272.4 78.6 272.4 78.5 M301.35 72.15 L301.55 72.3 304.65 69.6 306.65 67.6 Q308.35 65.85 309.05 64.4 L300.85 65.45 Q297.45 66.5 297.45 69.35 L297.45 71.2 Q297.9 72.8 300.45 72.8 L301.35 72.15 M183.45 69.95 Q183.1 74.95 179.5 81.05 L171.25 95.05 164.3 94.5 Q165.85 89.0 159.9 88.9 L152.05 89.3 Q147.25 87.0 138.85 85.6 131.75 84.45 126.25 84.45 125.4 84.45 123.8 85.6 121.95 87.0 121.95 88.4 121.95 89.5 122.15 89.85 L122.3 90.15 124.0 90.15 130.1 90.15 130.85 90.3 Q136.65 91.45 142.35 91.6 L132.1 92.8 120.25 94.1 Q119.7 94.25 119.2 94.8 118.75 95.35 118.75 95.8 L111.8 96.0 Q104.85 91.05 102.15 82.85 100.45 77.65 100.35 70.4 L100.3 69.05 Q100.3 68.25 101.75 66.55 L102.05 66.25 102.7 65.35 103.2 64.0 Q103.2 62.9 102.7 62.75 L102.25 62.7 Q103.5 61.0 105.0 59.5 L132.65 59.5 153.75 60.25 179.8 61.2 170.5 61.6 163.1 61.75 130.75 60.65 Q129.15 61.8 128.8 62.5 L129.1 62.05 116.65 62.75 Q103.1 64.25 103.1 66.9 103.1 68.1 103.5 68.35 L104.6 68.7 112.75 68.7 114.85 68.55 122.45 68.0 124.4 68.15 123.9 67.7 125.65 66.9 125.5 66.65 123.4 66.3 130.15 65.75 140.8 65.3 141.25 65.5 165.0 65.7 165.15 65.7 166.55 65.75 Q167.8 66.95 172.85 68.35 177.55 69.65 179.3 69.65 L182.15 70.3 183.35 70.7 183.45 69.95 M144.05 90.6 L147.15 91.1 144.7 91.35 144.75 91.1 Q144.25 90.85 144.05 90.6 M83.2 63.25 L84.35 63.25 84.15 63.45 83.85 63.25 83.2 63.25 M85.5 72.55 L83.1 75.35 Q75.35 84.6 75.35 87.45 75.35 89.15 76.9 92.1 79.0 96.05 81.9 95.05 80.6 96.5 80.6 97.65 69.5 97.3 53.5 97.65 L38.4 98.05 26.6 97.65 33.9 96.15 38.55 95.4 40.0 95.2 50.4 94.65 53.3 94.65 Q54.7 94.5 54.8 93.95 L54.95 93.8 54.6 93.55 54.05 92.4 52.5 92.3 Q50.9 91.55 49.25 91.2 47.0 90.75 46.25 91.6 L45.55 91.55 Q37.7 91.55 27.45 94.35 L17.7 97.1 12.35 95.4 6.05 93.55 6.25 91.85 12.65 90.35 Q14.7 89.5 14.7 86.8 14.7 84.55 10.7 80.25 6.65 76.0 6.65 70.85 6.65 68.85 7.75 66.75 7.5 68.05 7.5 70.0 7.5 71.4 7.65 71.7 8.05 72.7 9.75 73.2 12.75 71.8 13.05 69.4 13.3 67.25 13.8 66.35 L14.5 66.0 Q18.8 63.95 24.7 63.7 L35.45 63.45 42.95 62.5 50.05 62.5 Q51.2 62.1 52.1 60.65 L51.75 59.5 37.35 59.05 37.65 58.95 46.4 59.15 57.95 59.2 56.95 59.2 Q55.15 60.2 53.1 61.8 L51.35 62.95 Q48.95 64.65 48.0 66.15 45.0 68.9 45.0 69.55 45.0 71.15 45.3 70.6 L46.55 70.75 47.05 70.75 46.75 70.95 48.15 71.3 Q49.85 71.3 52.4 69.7 L52.65 69.55 57.25 67.35 Q60.05 67.75 62.0 66.9 L64.65 65.4 65.8 66.3 66.85 67.2 67.95 68.15 Q69.05 68.75 70.35 68.65 L72.35 68.4 75.05 69.0 76.5 69.45 Q77.35 69.45 77.0 69.15 L76.9 68.95 75.2 67.85 76.3 68.1 Q77.8 68.6 78.45 69.25 L78.0 72.45 Q78.25 75.25 81.45 75.25 82.2 75.25 85.5 72.55 M11.6 62.0 L13.85 60.1 15.15 59.7 30.75 59.0 33.5 58.95 34.25 58.95 34.95 59.15 34.5 59.05 Q19.05 59.1 12.95 61.4 L11.6 62.0 M170.8 79.15 Q170.7 77.65 170.35 77.1 L170.1 76.8 169.65 76.05 Q168.15 73.95 163.55 71.7 157.5 71.65 154.9 72.95 152.6 74.1 152.6 76.5 L152.65 76.95 152.15 77.5 152.75 77.75 152.9 77.95 153.9 78.25 157.7 78.4 Q158.95 79.05 160.85 80.25 L161.8 80.8 162.1 81.0 163.25 81.6 Q165.95 82.95 167.95 82.95 170.2 82.95 170.7 81.75 L170.8 80.15 170.8 79.8 170.8 79.7 170.8 79.65 170.8 79.45 170.8 79.15 M174.05 97.1 L173.7 96.35 Q177.15 90.15 183.05 82.95 L183.25 82.75 Q183.6 88.0 182.65 90.55 180.8 95.45 174.05 97.1 M100.85 98.4 Q96.85 98.4 95.3 93.15 94.3 89.75 94.3 83.7 94.75 83.7 99.7 89.4 L106.75 97.3 103.65 98.0 100.85 98.4 M81.95 83.2 Q84.15 80.05 85.5 79.75 L85.05 83.2 Q84.55 85.85 84.55 86.8 L84.35 88.35 Q83.75 90.0 81.8 91.65 81.8 87.1 80.75 87.35 L79.65 88.3 Q79.65 86.45 81.95 83.2 M64.6 59.2 L63.85 59.2 62.9 59.45 62.55 59.6 62.55 59.55 62.55 59.2 63.05 59.2 64.6 59.2 M61.85 59.15 L61.75 59.25 61.75 59.15 61.85 59.15 M67.05 63.75 L66.95 63.6 66.9 63.55 67.0 63.45 Q67.5 62.95 68.35 62.95 L70.55 63.25 67.75 63.6 67.05 63.75" fill="#54523e" fill-rule="evenodd" stroke="none"/>
      <path d="M554.2 61.25 Q556.15 63.55 557.45 67.85 559.55 74.8 559.55 83.6 559.55 91.5 558.1 97.7 555.35 109.1 548.5 109.1 L547.9 109.1 547.75 109.1 547.45 109.05 547.2 109.0 545.6 108.75 515.7 108.45 Q498.45 109.1 487.65 108.75 L480.15 108.9 Q470.8 108.9 467.8 103.55 L466.95 101.4 466.85 101.05 466.7 101.3 Q465.45 103.4 462.4 104.7 453.3 108.65 427.5 108.15 L405.8 108.15 395.15 108.75 385.95 108.9 383.25 106.55 380.4 103.5 380.4 101.75 380.2 101.3 380.1 101.05 380.05 101.2 379.1 102.95 378.5 104.1 379.1 104.4 379.5 105.45 Q378.35 107.25 377.05 108.05 374.55 109.5 369.9 109.5 L360.35 109.2 359.1 108.35 357.55 107.7 Q361.5 107.95 364.75 107.65 369.7 107.2 372.95 105.4 L374.8 104.4 Q375.35 102.65 376.65 99.6 L378.55 94.75 377.8 90.35 378.65 83.0 378.7 82.55 378.85 81.4 379.65 73.15 379.65 73.0 379.5 72.7 379.45 72.65 379.35 72.45 Q377.55 69.5 375.9 65.55 L374.8 62.7 373.25 58.45 371.05 58.85 370.75 58.9 362.45 59.8 361.75 59.85 355.45 59.75 355.15 59.7 332.1 60.5 Q308.65 61.55 297.2 65.9 L293.5 67.5 292.75 67.9 292.75 67.95 292.75 68.5 Q292.7 71.85 292.2 74.6 L292.2 74.75 292.15 74.95 Q291.7 77.15 291.0 78.6 L290.65 79.25 289.8 80.2 289.55 80.4 Q289.1 79.05 289.25 76.45 L289.55 72.8 Q289.55 70.6 289.2 68.9 288.85 67.25 288.2 66.15 L286.55 63.25 285.8 63.25 Q284.9 63.25 282.5 61.2 L280.75 59.65 280.6 59.65 279.7 59.65 275.6 59.45 258.35 58.75 258.1 58.75 228.0 58.95 Q204.55 60.5 199.25 62.7 L198.8 62.9 Q197.9 63.3 196.05 65.1 L193.95 66.6 193.2 67.0 191.75 67.6 191.3 67.75 191.0 67.75 190.95 68.3 189.9 69.05 Q189.45 71.4 189.45 72.45 L188.7 79.0 Q187.95 84.65 187.95 85.55 187.95 93.3 188.55 95.2 189.35 97.9 191.55 100.15 L193.3 101.7 196.85 103.95 197.05 104.8 196.95 105.35 198.8 105.45 243.85 103.25 245.0 103.15 276.7 102.2 277.1 102.25 283.4 102.75 283.55 103.2 280.05 104.6 Q269.65 108.0 251.1 108.05 L226.55 106.95 206.25 107.7 202.1 108.3 198.8 108.8 197.1 108.75 197.0 108.65 Q193.85 108.95 191.35 105.4 L190.35 103.8 Q189.25 102.65 188.4 100.9 187.7 102.4 185.7 103.5 181.95 105.6 175.95 104.25 L175.95 103.65 164.2 103.45 159.15 103.2 Q137.65 103.2 130.75 105.1 L126.1 106.35 117.25 106.95 114.9 106.5 99.75 106.1 99.7 106.15 Q99.45 106.55 98.25 106.55 92.4 106.55 90.15 102.2 L89.95 101.7 89.55 101.9 89.6 102.75 Q89.6 104.2 84.05 104.75 L78.05 105.15 76.05 105.45 Q59.65 107.7 17.05 107.7 10.4 107.7 8.6 106.45 L7.3 105.2 6.05 104.4 Q2.05 104.4 0.75 101.7 0.15 100.45 0.15 98.15 L0.25 96.55 0.35 96.35 1.7 96.7 Q3.0 97.2 3.8 98.45 L6.25 102.55 7.15 102.65 13.15 103.5 24.05 105.0 51.85 103.75 82.55 102.55 82.8 102.5 85.65 102.05 85.95 102.0 86.6 101.9 89.1 98.2 89.05 97.1 Q89.05 96.8 90.2 95.4 L91.0 94.55 91.7 93.95 91.8 93.85 Q92.05 92.65 92.8 92.4 L93.05 94.9 93.6 95.2 93.75 96.55 Q93.75 97.75 93.15 98.8 L93.15 99.15 93.4 100.0 96.0 101.7 Q98.15 102.95 99.25 104.3 L115.95 105.0 128.0 103.3 142.55 102.0 146.45 101.85 146.5 101.85 Q152.15 101.6 158.4 101.6 L167.55 102.4 170.95 102.75 176.7 103.2 Q181.25 103.2 184.15 100.8 L184.95 100.1 186.95 98.0 187.2 97.7 186.65 95.6 Q185.85 92.2 185.6 88.05 L185.5 84.05 Q185.5 77.15 186.45 73.6 186.95 71.7 188.25 68.95 L187.95 68.9 188.05 66.65 Q188.05 63.8 186.9 62.85 L186.25 62.45 185.5 62.15 Q183.8 61.55 180.65 61.25 L180.35 61.2 179.8 61.2 153.75 60.25 132.65 59.5 105.0 59.5 Q103.5 61.0 102.25 62.7 L102.2 62.7 101.3 64.05 98.9 68.4 98.6 69.05 Q97.25 72.35 95.05 82.5 L94.5 82.5 Q93.2 76.4 93.05 74.15 L93.0 73.5 93.0 73.4 93.0 73.3 93.0 73.2 93.0 73.1 93.0 73.0 93.0 72.9 93.0 72.85 93.0 72.75 93.0 72.7 Q93.2 70.95 94.05 68.8 L94.8 67.15 96.15 64.55 96.7 63.6 96.8 63.45 96.75 63.45 96.7 63.45 Q95.65 63.4 93.15 62.15 90.85 60.95 90.0 60.25 L89.7 60.25 74.3 59.55 74.0 59.55 72.8 59.5 71.2 59.45 70.95 59.45 69.6 59.4 69.2 59.35 64.6 59.2 63.05 59.2 63.05 58.95 62.9 57.75 Q62.6 57.8 62.3 57.45 60.7 58.15 58.95 59.2 L57.95 59.2 46.4 59.15 37.65 58.95 37.3 58.95 34.25 58.95 33.5 58.95 30.75 59.0 15.15 59.7 13.85 60.1 Q13.35 60.25 12.95 60.55 L12.85 60.6 10.4 61.95 8.5 61.4 Q8.5 61.15 9.3 60.65 L10.35 60.05 11.15 59.5 Q10.6 59.45 8.8 60.6 8.05 61.0 7.1 61.65 3.95 63.75 2.25 65.3 L1.2 64.55 Q0.75 63.95 0.75 62.7 0.75 60.35 1.05 59.55 1.55 58.2 3.4 57.5 L3.55 57.45 Q4.7 57.05 6.85 56.8 12.1 56.15 23.15 56.5 L23.15 56.15 37.1 56.15 41.3 56.15 68.7 56.15 75.05 56.75 80.8 57.25 89.0 56.55 90.7 56.5 91.2 56.5 94.0 56.75 94.1 56.75 94.2 56.8 Q95.65 57.05 96.3 57.6 96.75 58.0 97.1 59.15 L97.25 59.7 Q97.5 60.75 98.15 61.35 99.15 59.85 100.2 58.75 L100.55 58.45 Q102.05 56.95 103.55 56.35 104.7 55.85 105.85 55.9 L107.9 56.3 108.45 56.5 108.1 56.8 107.5 57.25 109.1 57.25 151.65 57.05 170.45 57.7 181.2 58.7 184.1 59.15 184.45 59.25 187.2 59.95 187.65 60.1 Q190.1 61.0 190.8 62.35 L190.85 62.5 190.95 62.75 191.15 62.35 192.6 60.65 192.85 60.45 Q193.65 59.75 194.75 59.2 L196.6 58.35 198.5 57.75 204.15 56.6 223.1 55.55 233.95 55.7 243.8 56.15 261.2 56.75 279.3 57.25 280.8 57.25 281.0 56.95 282.35 55.75 Q284.55 54.2 286.4 55.0 L286.4 55.05 286.5 55.35 286.4 56.3 286.35 56.55 286.35 56.6 Q287.5 57.2 288.55 58.35 L289.95 60.15 290.0 60.25 Q291.25 62.05 291.95 63.85 L292.2 63.65 292.5 63.4 292.9 63.1 Q293.9 62.1 295.8 61.2 296.55 60.8 297.45 60.5 L298.2 60.2 301.35 59.05 Q316.35 54.25 342.6 55.45 L342.65 55.45 345.25 55.55 345.25 55.4 357.6 55.4 369.9 55.4 372.9 56.25 373.85 56.4 374.65 56.7 Q375.4 57.05 376.35 57.8 L378.75 60.1 380.3 62.0 381.0 62.95 381.25 63.35 381.45 62.9 382.3 61.35 Q384.7 57.45 388.8 56.6 L389.35 56.5 Q392.25 56.0 396.05 57.0 L405.95 57.05 432.7 57.1 433.35 56.65 Q434.1 56.15 434.8 55.95 L446.15 55.2 458.1 54.85 Q462.4 55.1 464.5 56.5 466.05 57.55 466.3 59.3 L467.05 64.95 466.4 66.15 466.45 66.45 466.5 66.55 466.55 67.0 466.7 67.75 Q466.85 66.7 467.3 65.85 L467.5 65.5 467.7 65.15 468.15 64.55 469.6 63.1 470.5 62.4 470.8 62.2 471.5 61.8 474.75 60.4 476.05 59.95 479.4 59.1 483.85 58.25 Q492.05 56.85 505.9 55.5 L514.2 54.75 520.3 54.65 527.6 54.5 533.4 54.35 Q539.45 54.55 544.0 57.0 L544.15 57.1 545.75 58.05 546.9 58.85 550.4 58.75 Q551.9 59.1 553.2 60.25 L554.2 61.25 M355.0 108.35 L351.25 108.75 345.35 108.2 343.6 107.95 340.55 107.3 334.4 107.3 310.1 107.25 Q306.8 107.05 303.95 107.15 L300.8 107.3 300.65 106.9 300.5 106.7 300.05 105.9 301.2 105.8 301.4 105.75 303.55 105.5 306.95 105.2 308.15 105.1 309.85 105.0 310.1 105.0 341.15 105.15 343.7 105.4 352.4 105.45 352.75 106.0 352.35 106.45 356.5 106.75 356.8 107.05 356.95 107.15 357.55 107.7 355.0 108.35 M293.65 106.1 Q291.05 105.7 290.15 103.95 L290.0 103.1 289.75 101.55 289.0 102.05 Q286.45 103.7 284.7 105.45 282.75 105.25 282.25 104.7 284.65 103.4 286.3 101.75 289.25 98.65 289.65 94.4 L289.5 90.5 Q289.4 86.05 289.95 83.8 L291.05 83.8 291.6 90.9 291.65 92.3 291.75 94.85 291.8 97.3 291.8 97.5 291.55 99.6 291.6 99.65 294.2 102.45 Q296.55 104.8 297.8 104.7 L297.8 105.25 297.05 105.9 295.2 106.2 293.65 106.1 M474.2 63.25 Q472.6 64.0 472.0 64.95 471.6 65.6 471.2 68.6 470.9 70.85 468.9 71.9 L467.15 70.4 467.1 70.35 467.1 70.45 468.35 79.85 468.3 81.7 Q468.05 84.0 467.3 86.05 L466.1 86.05 Q466.0 82.15 464.85 71.55 L464.8 70.85 464.15 64.75 Q463.7 64.0 463.65 62.95 L463.65 62.8 463.65 62.75 463.0 62.9 462.9 62.1 Q462.5 61.0 461.2 59.65 L460.8 59.25 457.9 59.1 449.0 58.8 445.4 59.3 431.95 59.45 431.25 59.5 431.0 59.45 397.15 59.7 396.25 59.7 Q396.1 60.0 394.8 60.15 L388.0 60.75 Q387.15 61.45 386.35 62.5 L385.35 64.05 385.2 64.3 384.45 65.75 384.2 66.3 384.05 66.55 Q382.3 70.55 381.15 71.5 L381.05 71.5 381.0 71.55 381.15 76.95 380.8 81.35 380.75 81.45 380.65 82.8 380.25 88.15 380.8 92.4 380.45 92.75 Q381.15 95.25 383.25 98.25 L387.6 104.3 388.5 105.45 392.8 105.85 395.5 106.2 396.1 106.2 405.8 105.55 424.75 105.4 427.85 105.35 446.25 104.85 456.2 104.15 460.1 103.6 460.6 102.25 462.6 98.4 Q464.75 94.8 466.0 94.1 L466.55 94.75 466.55 94.8 466.65 95.95 467.35 96.25 467.55 96.75 Q469.55 96.85 471.55 99.5 L473.8 102.55 475.5 104.75 476.5 106.0 477.15 106.1 480.5 106.1 483.7 106.1 511.95 105.9 531.0 106.1 538.25 106.5 540.15 106.55 543.05 106.55 543.1 106.55 544.5 106.5 545.6 106.5 547.8 105.15 548.15 104.9 548.95 104.45 Q549.35 104.2 549.85 104.05 L550.05 103.7 Q552.35 99.7 553.95 95.8 556.95 88.6 556.95 83.3 556.95 75.45 554.5 70.4 553.5 68.3 550.3 64.95 L550.25 64.9 549.75 64.35 Q548.4 64.2 546.55 63.15 L546.5 63.1 Q544.35 61.85 542.8 60.25 L514.2 61.0 494.7 61.0 Q479.5 60.85 474.35 63.2 L474.2 63.25 M373.15 58.05 L373.1 57.9 372.6 58.0 373.15 58.05 M464.25 102.0 L464.35 101.75 463.6 102.55 464.25 102.0 M320.6 105.0 L311.25 104.7 311.45 104.4 311.6 104.25 321.0 104.7 320.6 105.0 M15.25 106.95 L17.15 106.75 14.65 106.15 13.2 106.0 14.15 106.35 Q15.15 106.7 15.25 106.95" fill="#3d3629" fill-rule="evenodd" stroke="none"/>
      <path d="M8.3 51.35 L8.05 51.25 Q7.9 51.1 7.9 50.5 7.9 49.95 13.75 43.3 L14.5 42.45 16.05 40.75 Q20.45 35.75 22.85 33.75 L22.15 34.75 17.9 40.45 15.65 43.35 13.25 46.3 8.55 51.45 8.5 51.45 8.3 51.35 M560.9 52.2 L560.5 53.0 557.2 56.95 Q555.05 59.15 553.2 60.25 551.9 59.1 550.4 58.75 551.7 57.1 554.3 54.85 L555.9 53.55 556.5 53.1 557.1 52.65 Q559.35 50.9 560.7 50.5 L560.9 50.75 561.05 51.4 560.9 52.2" fill="#4d4b3a" fill-rule="evenodd" stroke="none"/>
      <path d="M466.95 101.4 L466.7 101.3 466.85 101.05 466.95 101.4 M380.2 101.3 L380.05 101.2 380.1 101.05 380.2 101.3 M359.1 108.35 L355.0 108.35 357.55 107.7 359.1 108.35 M343.6 107.95 L341.25 107.8 334.4 107.3 340.55 107.3 343.6 107.95 M290.0 103.1 L289.0 102.05 289.75 101.55 290.0 103.1 M467.3 65.85 Q466.85 66.7 466.7 67.75 L466.55 67.0 466.5 66.55 467.3 65.85" fill="#0000ff" fill-rule="evenodd" stroke="none"/>
    </g>
  </defs>
</svg>
