<?xml version="1.0" encoding="UTF-8" standalone="no"?>
<svg xmlns:ffdec="https://www.free-decompiler.com/flash" xmlns:xlink="http://www.w3.org/1999/xlink" ffdec:objectType="frame" height="448.1px" width="99.9px" xmlns="http://www.w3.org/2000/svg">
  <g transform="matrix(1.0, 0.0, 0.0, 1.0, 21.9, 405.1)">
    <use ffdec:characterId="2576" height="448.1" transform="matrix(1.0, 0.0, 0.0, 1.0, -21.9, -405.1)" width="99.9" xlink:href="#shape0"/>
  </g>
  <defs>
    <g id="shape0" transform="matrix(1.0, 0.0, 0.0, 1.0, 21.9, 405.1)">
      <path d="M19.6 -404.95 L24.85 -404.95 28.85 -404.95 34.8 -404.95 52.7 -404.95 58.55 -405.0 66.3 -405.05 Q67.45 -405.05 67.6 -404.3 75.95 -397.2 76.45 -394.7 L77.05 -394.25 77.4 -393.45 77.5 -393.4 77.85 -390.85 77.85 -389.75 77.85 -388.55 77.85 -388.4 77.85 -384.7 77.9 -384.7 77.9 -383.4 77.9 -382.15 77.9 -379.3 77.9 -364.3 77.9 -358.25 77.9 -354.05 77.9 -349.75 77.9 -342.6 77.9 -341.45 77.9 -329.25 77.85 -310.8 77.9 -291.95 77.65 -291.95 77.75 -239.95 77.9 -164.15 77.9 -81.55 78.0 -81.55 78.0 -81.5 77.95 -81.5 77.95 -79.0 77.9 -78.85 77.9 -78.45 77.95 -78.35 78.0 32.0 Q77.85 33.05 77.45 33.3 L77.2 33.4 Q76.75 34.3 72.55 38.0 67.85 42.05 67.9 42.05 L67.25 42.05 67.0 42.2 66.6 42.35 65.65 42.3 63.85 42.5 59.3 42.65 59.3 42.9 58.75 42.85 58.55 42.9 54.45 42.9 54.45 42.85 52.7 42.85 34.8 42.85 28.85 42.85 27.15 42.85 9.2 42.85 -3.65 42.95 -4.45 43.0 -6.15 42.9 -6.15 42.85 -6.9 42.85 -7.65 42.8 -8.4 42.85 -10.0 42.75 -10.95 42.45 -11.45 42.5 Q-12.0 42.5 -12.45 42.0 L-12.95 41.3 Q-14.2 40.45 -18.35 35.5 -21.55 31.7 -21.4 30.3 L-21.45 29.6 -21.7 27.7 -21.7 11.1 Q-21.25 8.85 -21.55 6.95 -21.5 5.15 -21.85 3.45 -21.65 2.7 -21.9 2.15 L-21.7 1.45 -21.7 -1.0 -21.65 -1.0 -21.65 -391.1 -21.7 -391.1 -21.65 -391.45 -21.65 -392.6 -21.55 -392.9 Q-22.1 -393.3 -20.5 -394.9 L-18.7 -397.0 -17.0 -398.45 -16.8 -398.7 Q-12.1 -404.25 -10.8 -404.3 L-10.75 -404.3 -9.95 -404.25 -9.9 -404.3 -8.4 -404.35 -6.9 -404.45 -6.9 -404.9 -4.9 -404.9 -3.65 -404.9 16.1 -404.9 16.1 -404.95 19.6 -404.95 M67.2 -400.7 L66.25 -402.0 66.05 -401.95 64.15 -401.95 62.35 -402.25 59.3 -402.05 59.3 -401.85 58.55 -401.85 57.4 -401.85 55.3 -401.85 55.3 -401.6 54.45 -401.6 52.7 -401.6 28.85 -401.6 27.15 -401.6 24.85 -401.6 19.6 -401.6 -6.9 -401.6 -8.4 -401.6 -8.65 -401.6 -10.1 -401.65 -12.9 -398.5 Q-15.15 -396.2 -17.1 -394.65 L-18.45 -392.85 -18.9 -392.25 -19.05 -392.15 -19.05 -392.05 -19.0 -390.85 -19.15 -390.85 -19.15 -388.55 -19.25 -387.6 -19.25 -387.5 -19.25 -376.2 -19.25 -366.95 -19.2 -366.95 -19.2 -349.75 -19.25 -349.75 -19.3 27.15 -19.25 27.2 Q-19.0 27.4 -19.0 27.9 L-19.05 29.15 -19.05 29.25 -19.0 29.3 Q-18.55 29.55 -18.55 30.35 L-18.55 31.05 -18.55 31.1 -17.05 32.65 Q-11.7 38.05 -11.35 39.4 L-8.4 39.7 -6.9 39.9 -6.9 40.25 -3.65 40.3 16.1 40.3 16.1 40.4 18.65 40.4 19.6 40.4 24.85 40.4 28.85 40.4 34.8 40.4 52.7 40.4 54.45 40.4 55.3 40.4 55.3 40.1 57.4 40.05 57.5 40.05 58.55 40.05 59.3 40.0 59.3 39.65 62.3 39.55 64.75 39.55 66.05 39.9 67.0 38.65 68.7 36.9 Q73.35 32.55 75.1 31.9 L75.05 19.9 74.95 17.65 75.15 -1.0 75.25 -1.0 75.25 -81.55 75.2 -81.55 75.2 -266.0 75.1 -266.0 75.1 -356.0 75.1 -357.5 75.1 -376.2 75.1 -390.2 75.1 -391.4 75.1 -391.7 75.05 -391.75 Q74.1 -392.35 73.15 -393.65 72.4 -394.65 72.25 -395.4 L68.85 -398.8 67.2 -400.7" fill="#92a387" fill-rule="evenodd" stroke="none"/>
      <path d="M64.2 -396.55 L63.6 -396.4 62.35 -396.35 59.3 -396.35 59.3 -396.25 58.55 -396.2 57.4 -396.2 57.4 -396.1 34.8 -396.1 27.15 -396.1 18.65 -396.1 16.5 -396.1 16.1 -396.1 -3.65 -396.05 -4.95 -396.05 -7.85 -396.1 -8.15 -395.65 -8.4 -395.45 -9.55 -394.5 -10.7 -393.1 -12.65 -390.7 -12.85 -388.5 -12.85 -384.7 -12.8 -384.7 -12.8 -376.2 -12.75 -376.2 -12.7 -247.9 -12.7 -239.95 -12.7 -105.35 -12.65 -86.5 -12.6 -30.3 -12.55 -30.3 -12.55 -1.0 -12.45 -1.0 -12.65 28.65 -11.2 30.05 Q-9.3 31.95 -8.4 33.4 L-8.15 33.8 -7.6 33.8 -6.9 33.8 -6.15 33.8 -5.55 33.7 -5.3 33.7 -4.75 33.8 -3.85 33.75 -3.65 33.75 16.1 33.8 16.5 33.8 18.65 33.8 27.15 33.8 34.8 33.8 57.4 33.8 57.4 33.85 59.0 33.85 59.2 33.85 59.3 33.7 61.1 33.7 63.3 33.4 64.0 33.4 64.75 33.65 Q64.75 35.05 65.55 36.5 L66.4 37.7 66.55 38.2 67.0 38.65 66.05 39.9 64.75 39.55 62.3 39.55 59.3 39.65 59.3 40.0 58.55 40.05 57.5 40.05 57.4 40.05 55.3 40.1 55.3 40.4 54.45 40.4 52.7 40.4 34.8 40.4 28.85 40.4 24.85 40.4 19.6 40.4 18.65 40.4 16.1 40.4 16.1 40.3 -3.65 40.3 -6.9 40.25 -6.9 39.9 -8.4 39.7 -11.35 39.4 Q-11.7 38.05 -17.05 32.65 L-18.55 31.05 -18.55 30.35 Q-18.55 29.55 -19.0 29.3 L-19.05 29.15 -19.0 27.9 Q-19.0 27.4 -19.25 27.2 L-19.3 27.15 -19.25 -349.75 -19.2 -349.75 -19.2 -366.95 -19.25 -366.95 -19.25 -376.2 -19.15 -376.2 -19.15 -388.55 -19.15 -390.85 -19.0 -390.85 -19.05 -392.05 -18.9 -392.25 -18.45 -392.85 -17.1 -394.65 Q-15.15 -396.2 -12.9 -398.5 L-10.1 -401.65 -8.65 -401.6 -8.4 -401.6 -6.9 -401.6 19.6 -401.6 24.85 -401.6 27.15 -401.6 28.85 -401.6 52.7 -401.6 54.45 -401.6 55.3 -401.6 55.3 -401.85 57.4 -401.85 58.55 -401.85 59.3 -401.85 59.3 -402.05 62.35 -402.25 64.15 -401.95 66.05 -401.95 66.25 -402.0 67.2 -400.7 67.0 -400.55 67.0 -400.45 Q67.0 -399.75 65.5 -398.05 L64.8 -397.25 64.9 -397.1 64.2 -396.55" fill="#6a7c5f" fill-rule="evenodd" stroke="none"/>
      <path d="M64.75 33.65 L64.75 33.05 64.9 33.0 65.2 32.95 66.6 31.35 69.25 29.0 69.05 28.3 69.1 28.1 69.1 24.95 68.95 24.65 69.1 -1.0 69.25 -1.0 69.3 -20.7 69.3 -27.9 69.3 -81.55 69.35 -81.55 69.4 -291.95 69.4 -349.75 69.4 -376.2 69.65 -376.2 69.65 -379.3 69.65 -384.7 69.75 -384.7 69.75 -386.45 69.75 -389.45 69.4 -389.7 69.4 -389.95 64.65 -395.65 64.2 -396.55 64.9 -397.1 64.8 -397.25 65.5 -398.05 Q67.0 -399.75 67.0 -400.45 L67.0 -400.55 67.2 -400.7 68.85 -398.8 72.25 -395.4 Q72.4 -394.65 73.15 -393.65 74.1 -392.35 75.05 -391.75 L75.1 -391.4 75.1 -390.2 75.0 -387.5 75.0 -386.45 75.0 -384.7 75.05 -384.7 75.05 -379.3 75.05 -376.2 75.1 -376.2 75.1 -357.5 75.1 -356.0 75.1 -266.0 75.2 -266.0 75.2 -81.55 75.25 -81.55 75.25 -1.0 75.15 -1.0 74.95 17.65 75.05 19.9 75.1 31.9 Q73.35 32.55 68.7 36.9 L67.0 38.65 66.55 38.2 66.4 37.7 65.55 36.5 Q64.75 35.05 64.75 33.65" fill="#a4b39c" fill-rule="evenodd" stroke="none"/>
    </g>
  </defs>
</svg>
