<?xml version="1.0" encoding="UTF-8" standalone="no"?>
<svg xmlns:ffdec="https://www.free-decompiler.com/flash" xmlns:xlink="http://www.w3.org/1999/xlink" ffdec:objectType="frame" height="78.75px" width="54.95px" xmlns="http://www.w3.org/2000/svg">
  <g transform="matrix(1.0, 0.0, 0.0, 1.0, 28.7, 45.85)">
    <use ffdec:characterId="1992" height="65.1" transform="matrix(1.0, 0.0, 0.0, 1.0, -26.25, -32.2)" width="52.5" xlink:href="#sprite0"/>
    <use ffdec:characterId="1995" height="11.25" transform="matrix(7.0, 0.0, 0.0, 7.0, -28.7, -45.85)" width="7.85" xlink:href="#shape1"/>
  </g>
  <defs>
    <g id="sprite0" transform="matrix(1.0, 0.0, 0.0, 1.0, 26.25, 32.2)">
      <use ffdec:characterId="1991" height="9.3" transform="matrix(7.0, 0.0, 0.0, 7.0, -26.25, -32.2)" width="7.5" xlink:href="#shape0"/>
    </g>
    <g id="shape0" transform="matrix(1.0, 0.0, 0.0, 1.0, 3.75, 4.6)">
      <path d="M2.35 0.8 L2.35 0.9 2.3 0.9 2.35 0.8" fill="#333333" fill-rule="evenodd" stroke="none"/>
      <path d="M0.7 -4.6 L0.65 -4.6 0.6 -4.55 0.3 -4.35 Q-0.1 -4.05 -0.55 -3.85 L-1.1 -3.55 Q-1.35 -3.4 -1.5 -3.2 L-2.05 -2.55 -2.35 -2.1 Q-2.8 -1.35 -3.05 -0.5 -3.2 -0.05 -3.2 0.4 -3.25 0.9 -3.2 1.4 L-3.15 2.0 -3.15 2.55 -3.35 2.15 -3.45 2.45 -3.4 3.1 -3.3 3.4 -3.1 3.9 -2.75 4.0 -1.95 4.2 -1.15 4.35 -1.0 4.35 -0.95 4.3 Q-0.7 3.7 -0.05 3.3 0.45 3.0 0.7 2.6 L0.85 2.25 0.9 1.95 0.95 1.75 1.0 1.7 1.05 1.7 1.1 1.65 Q1.3 1.4 1.35 1.1 L1.4 0.9 1.45 0.85 Q1.5 0.5 1.6 0.25 0.9 0.1 0.3 0.4 0.05 0.55 -0.1 0.7 L-0.5 1.0 -1.55 2.05 -2.0 2.3 -2.35 2.45 -2.4 2.4 -2.55 2.45 -0.85 0.75 -0.55 0.35 Q-0.4 0.1 -0.2 -0.05 L0.15 -0.25 Q0.45 -0.45 0.75 -0.45 L1.15 -0.5 1.2 -0.5 Q1.5 -0.45 1.7 -0.25 1.75 -0.6 1.85 -1.0 2.2 -2.15 1.7 -3.25 1.65 -3.35 1.65 -3.4 L1.65 -3.45 Q1.55 -3.55 1.55 -3.8 L1.55 -3.85 Q1.55 -4.1 1.7 -4.25 L1.75 -4.3 1.75 -4.2 Q1.85 -4.0 1.85 -3.7 L1.85 -3.65 1.8 -3.4 Q2.35 -2.45 2.25 -1.35 L2.15 -0.9 Q2.1 -0.6 1.95 -0.3 L1.8 -0.05 Q1.85 0.1 1.75 0.3 L1.6 0.25 Q1.75 0.5 1.7 0.8 L1.65 1.2 1.6 1.25 1.4 1.65 1.35 1.7 1.45 1.7 1.7 1.8 1.75 1.8 1.75 1.75 1.8 1.75 2.2 1.45 2.35 1.15 2.35 0.9 2.35 0.8 2.35 0.7 Q2.75 0.5 2.95 0.15 L3.05 -0.1 3.2 -0.5 3.3 -1.05 Q3.35 -1.45 3.25 -1.85 L3.1 -2.35 2.9 -2.9 2.65 -3.5 2.75 -3.75 2.8 -3.75 2.85 -3.7 2.95 -3.45 3.1 -3.15 3.15 -3.1 Q3.35 -2.8 3.5 -2.45 L3.65 -1.9 Q3.8 -1.35 3.7 -0.9 L3.55 -0.4 Q3.45 -0.15 3.35 0.05 L2.95 0.55 2.9 0.65 2.8 0.8 2.7 0.9 Q2.8 1.3 2.55 1.6 2.35 1.8 2.1 1.95 2.05 2.25 1.85 2.5 L1.6 2.75 Q1.35 3.0 1.15 3.25 0.9 3.6 0.55 3.85 L-0.05 4.25 Q-0.4 4.45 -0.75 4.55 -1.1 4.7 -1.4 4.7 L-2.05 4.7 Q-2.35 4.6 -2.6 4.5 -2.9 4.4 -3.15 4.2 -3.5 4.0 -3.65 3.6 -3.75 3.25 -3.75 2.8 L-3.7 2.4 -3.65 1.6 -3.65 0.45 Q-3.65 0.0 -3.55 -0.4 L-3.3 -1.05 -2.9 -1.7 -2.5 -2.45 -2.1 -3.05 -1.8 -3.4 -1.4 -3.75 Q-1.15 -3.95 -0.85 -4.05 L-0.5 -4.2 0.05 -4.35 0.65 -4.6 0.7 -4.6 M1.4 -2.3 L1.4 -2.35 1.45 -2.35 1.4 -2.45 1.3 -2.45 1.25 -2.3 Q1.2 -2.25 1.25 -2.15 1.35 -2.15 1.4 -2.3 M1.3 -2.65 Q1.7 -2.6 1.55 -2.2 1.45 -1.95 1.2 -1.95 1.1 -2.1 1.1 -2.3 1.1 -2.55 1.3 -2.65 M1.4 -1.4 L1.4 -1.45 Q1.5 -1.6 1.35 -1.6 L1.3 -1.5 1.25 -1.45 Q1.25 -1.4 1.3 -1.3 L1.4 -1.4 M1.35 -1.75 L1.5 -1.75 Q1.6 -1.6 1.55 -1.4 1.45 -1.15 1.25 -1.1 1.1 -1.2 1.1 -1.4 1.1 -1.65 1.35 -1.75 M1.25 2.4 Q1.3 2.3 1.35 2.25 L1.4 1.9 1.25 1.85 1.1 1.85 1.1 2.2 Q1.05 2.5 0.95 2.75 0.7 3.2 0.2 3.6 L0.5 3.4 0.55 3.35 Q0.7 3.2 0.8 3.1 L0.9 3.0 Q0.9 2.95 1.0 2.85 L1.05 2.8 1.25 2.4 M-1.4 3.05 L-1.4 3.0 Q-1.35 2.85 -1.5 2.9 -1.55 2.9 -1.55 3.0 L-1.55 3.25 -1.4 3.05 M-1.7 3.15 Q-1.7 2.9 -1.55 2.7 L-1.35 2.7 -1.3 2.75 Q-1.15 2.9 -1.2 3.1 -1.3 3.35 -1.55 3.45 -1.7 3.35 -1.7 3.15 M-0.75 2.2 Q-0.75 2.15 -0.85 2.15 L-0.9 2.2 -0.95 2.3 -0.95 2.45 -1.0 2.55 -0.9 2.5 Q-0.85 2.5 -0.8 2.4 L-0.75 2.35 -0.75 2.2 M-1.15 2.5 Q-1.15 2.1 -0.85 1.95 -0.3 2.4 -1.0 2.6 -1.15 2.65 -1.15 2.5 M-0.8 2.8 Q-0.5 3.4 -1.05 3.45 -1.2 3.45 -1.2 3.25 -1.15 2.95 -1.0 2.8 L-0.8 2.8 M-0.85 3.2 L-0.85 3.05 Q-0.85 2.95 -0.95 2.95 L-1.0 3.1 -1.0 3.2 Q-1.05 3.25 -1.0 3.35 -0.9 3.35 -0.85 3.2" fill="#111111" fill-rule="evenodd" stroke="none"/>
      <path d="M1.45 1.7 L1.35 1.7 1.4 1.65 1.45 1.7" fill="#00a600" fill-rule="evenodd" stroke="none"/>
      <path d="M-0.75 2.2 Q-0.75 2.15 -0.85 2.15 L-0.9 2.2 -0.85 2.15 Q-0.75 2.15 -0.75 2.2" fill="#004d00" fill-rule="evenodd" stroke="none"/>
      <path d="M2.75 -3.75 L2.65 -3.5 2.9 -2.9 3.1 -2.35 3.25 -1.85 Q3.35 -1.45 3.3 -1.05 L3.2 -0.5 3.05 -0.1 3.0 -0.1 Q2.9 -0.05 2.95 0.0 2.75 0.1 2.5 -0.05 L1.95 -0.3 Q2.1 -0.6 2.15 -0.9 L2.25 -1.35 Q2.35 -2.45 1.8 -3.4 L1.85 -3.65 1.85 -3.7 Q1.85 -4.0 1.75 -4.2 L2.05 -4.1 2.65 -3.8 2.7 -3.85 2.75 -3.75 M2.35 0.7 L2.35 0.8 2.3 0.9 2.35 0.9 2.35 1.15 2.2 1.45 2.25 1.4 2.15 1.4 2.05 1.45 1.85 1.3 1.65 1.2 1.7 0.8 Q1.75 0.5 1.6 0.25 L1.75 0.3 1.95 0.5 Q2.15 0.65 2.35 0.75 L2.35 0.7 M0.8 0.6 L0.85 0.6 0.9 0.65 0.4 0.9 0.05 0.9 Q0.1 0.65 0.35 0.6 L0.75 0.55 0.8 0.6 M1.1 2.2 L1.1 1.85 1.25 1.85 1.4 1.9 1.35 2.25 Q1.3 2.3 1.25 2.4 1.2 2.3 1.1 2.2 M1.05 2.8 L1.0 2.85 Q0.9 2.95 0.9 3.0 L0.8 3.1 Q0.7 3.2 0.55 3.35 L0.5 3.4 0.2 3.6 Q0.7 3.2 0.95 2.75 L0.95 2.8 1.05 2.8" fill="#bfbf72" fill-rule="evenodd" stroke="none"/>
      <path d="M3.05 -0.1 L2.95 0.15 Q2.75 0.5 2.35 0.7 L2.35 0.75 Q2.15 0.65 1.95 0.5 L1.75 0.3 Q1.85 0.1 1.8 -0.05 L1.95 -0.3 2.5 -0.05 Q2.75 0.1 2.95 0.0 2.9 -0.05 3.0 -0.1 L3.05 -0.1 M2.2 1.45 L1.8 1.75 1.75 1.75 1.75 1.8 1.7 1.8 1.45 1.7 1.4 1.65 1.6 1.25 1.65 1.2 1.85 1.3 2.05 1.45 2.15 1.4 2.25 1.4 2.2 1.45 M1.1 2.2 Q1.2 2.3 1.25 2.4 L1.05 2.8 0.95 2.8 0.95 2.75 Q1.05 2.5 1.1 2.2" fill="#68682f" fill-rule="evenodd" stroke="none"/>
      <path d="M1.35 1.1 L1.25 0.95 1.4 0.9 1.35 1.1 M1.4 -2.45 L1.45 -2.35 1.4 -2.35 1.4 -2.3 Q1.35 -2.3 1.3 -2.4 1.25 -2.45 1.35 -2.45 L1.4 -2.45 M1.3 -1.5 L1.35 -1.6 Q1.5 -1.6 1.4 -1.45 L1.4 -1.4 Q1.3 -1.4 1.3 -1.5 M-1.55 3.0 Q-1.55 2.9 -1.5 2.9 -1.35 2.85 -1.4 3.0 L-1.4 3.05 -1.5 3.05 -1.55 3.0 M-0.9 2.2 L-0.85 2.15 Q-0.75 2.15 -0.75 2.2 L-0.75 2.35 -0.9 2.35 -0.95 2.3 -0.9 2.2 M-1.0 3.1 L-0.95 2.95 Q-0.85 2.95 -0.85 3.05 L-0.85 3.2 -0.95 3.2 -1.0 3.1" fill="#0070e0" fill-rule="evenodd" stroke="none"/>
      <path d="M0.7 2.6 Q0.45 3.0 -0.05 3.3 -0.7 3.7 -0.95 4.3 L-1.0 4.35 -1.15 4.35 -1.95 4.2 -2.75 4.0 -3.1 3.9 -3.3 3.4 -3.4 3.1 -3.45 2.45 -3.35 2.15 -3.15 2.55 -3.15 2.0 -3.2 1.4 Q-3.25 0.9 -3.2 0.4 -3.2 -0.05 -3.05 -0.5 -2.8 -1.35 -2.35 -2.1 L-2.05 -2.55 -1.5 -3.2 Q-1.35 -3.4 -1.1 -3.55 L-0.55 -3.85 Q-0.1 -4.05 0.3 -4.35 L0.6 -4.55 0.65 -4.6 0.7 -4.6 1.4 -4.35 1.7 -4.25 Q1.55 -4.1 1.55 -3.85 L1.55 -3.8 1.05 -4.0 Q1.4 -3.75 1.65 -3.45 L1.65 -3.4 Q1.65 -3.35 1.7 -3.25 2.2 -2.15 1.85 -1.0 1.75 -0.6 1.7 -0.25 1.5 -0.45 1.2 -0.5 L1.15 -0.5 0.75 -0.45 Q0.45 -0.45 0.15 -0.25 L-0.2 -0.05 Q-0.4 0.1 -0.55 0.35 L-0.85 0.75 -2.55 2.45 -2.4 2.4 -2.35 2.45 -2.0 2.3 -1.55 2.05 -0.5 1.0 -0.1 0.7 Q0.05 0.55 0.3 0.4 0.9 0.1 1.6 0.25 1.5 0.5 1.45 0.85 L1.4 0.9 1.25 0.95 1.35 1.1 Q1.3 1.4 1.1 1.65 L1.05 1.7 1.0 1.7 0.95 1.75 0.9 1.95 0.85 2.25 Q0.7 1.95 0.65 1.6 0.65 1.4 0.7 1.1 L0.95 1.05 0.8 0.95 0.3 1.0 0.3 1.1 Q0.0 1.4 -0.05 1.8 L-0.1 2.3 0.55 2.55 0.7 2.6 M1.4 -2.45 L1.35 -2.45 Q1.25 -2.45 1.3 -2.4 1.35 -2.3 1.4 -2.3 1.35 -2.15 1.25 -2.15 1.2 -2.25 1.25 -2.3 L1.3 -2.45 1.4 -2.45 M1.3 -2.65 Q1.1 -2.55 1.1 -2.3 1.1 -2.1 1.2 -1.95 1.45 -1.95 1.55 -2.2 1.7 -2.6 1.3 -2.65 M1.4 -1.4 L1.3 -1.3 Q1.25 -1.4 1.25 -1.45 L1.3 -1.5 Q1.3 -1.4 1.4 -1.4 M1.35 -1.75 Q1.1 -1.65 1.1 -1.4 1.1 -1.2 1.25 -1.1 1.45 -1.15 1.55 -1.4 1.6 -1.6 1.5 -1.75 L1.35 -1.75 M0.8 0.6 L0.75 0.55 0.35 0.6 Q0.1 0.65 0.05 0.9 L0.4 0.9 0.9 0.65 0.85 0.6 0.8 0.6 M-1.15 -2.9 L-1.35 -3.0 -1.4 -2.95 -1.9 -2.0 -2.35 -1.05 Q-2.8 -0.2 -2.8 0.8 L-2.75 1.3 -2.65 1.8 -2.05 1.0 Q-1.55 0.35 -0.95 -0.35 L-0.45 -0.9 Q-0.5 -1.25 -0.7 -1.6 L-0.9 -1.95 -1.0 -2.25 -1.15 -2.9 M-1.55 3.0 L-1.5 3.05 -1.4 3.05 -1.55 3.25 -1.55 3.0 M-1.7 3.15 Q-1.7 3.35 -1.55 3.45 -1.3 3.35 -1.2 3.1 -1.15 2.9 -1.3 2.75 L-1.35 2.7 -1.55 2.7 Q-1.7 2.9 -1.7 3.15 M-0.95 2.3 L-0.9 2.35 -0.75 2.35 -0.8 2.4 Q-0.85 2.5 -0.9 2.5 L-1.0 2.55 -0.95 2.45 -0.95 2.3 M-0.8 2.8 L-1.0 2.8 Q-1.15 2.95 -1.2 3.25 -1.2 3.45 -1.05 3.45 -0.5 3.4 -0.8 2.8 M-1.15 2.5 Q-1.15 2.65 -1.0 2.6 -0.3 2.4 -0.85 1.95 -1.15 2.1 -1.15 2.5 M-1.0 3.1 L-0.95 3.2 -0.85 3.2 Q-0.9 3.35 -1.0 3.35 -1.05 3.25 -1.0 3.2 L-1.0 3.1" fill="#304040" fill-rule="evenodd" stroke="none"/>
      <path d="M0.7 2.6 L0.55 2.55 -0.1 2.3 -0.05 1.8 Q0.0 1.4 0.3 1.1 L0.3 1.0 0.8 0.95 0.95 1.05 0.7 1.1 Q0.65 1.4 0.65 1.6 0.7 1.95 0.85 2.25 L0.7 2.6 M1.65 -3.45 Q1.4 -3.75 1.05 -4.0 L1.55 -3.8 Q1.55 -3.55 1.65 -3.45 M-1.15 -2.9 L-1.0 -2.25 -0.9 -1.95 -0.7 -1.6 Q-0.5 -1.25 -0.45 -0.9 L-0.95 -0.35 Q-1.55 0.35 -2.05 1.0 L-2.65 1.8 -2.75 1.3 -2.8 0.8 Q-2.8 -0.2 -2.35 -1.05 L-1.9 -2.0 -1.4 -2.95 -1.35 -3.0 -1.15 -2.9" fill="#506060" fill-rule="evenodd" stroke="none"/>
    </g>
    <g id="shape1" transform="matrix(1.0, 0.0, 0.0, 1.0, 4.1, 6.55)">
      <path d="M1.6 -5.35 Q1.6 -5.0 1.5 -4.55 2.6 -4.4 3.2 -3.45 3.75 -2.7 3.75 -1.65 3.75 -0.6 3.25 0.5 2.75 1.7 1.95 2.45 L1.8 2.4 1.45 3.1 1.15 3.5 Q0.2 4.7 -0.95 4.7 -2.55 4.7 -3.3 3.8 -3.85 3.2 -3.85 2.55 L-3.8 2.05 Q-4.1 1.8 -4.05 1.75 -3.9 1.65 -3.9 1.6 -3.9 1.4 -4.0 0.65 -4.1 -0.15 -4.1 -0.4 -4.1 -3.85 -1.2 -5.65 -0.15 -6.3 0.85 -6.5 1.75 -6.65 1.75 -6.35 L1.7 -5.85 1.6 -5.35 M1.1 -5.8 Q0.95 -5.3 0.4 -4.05 L-0.4 -2.4 Q-0.6 -2.05 -0.85 -1.65 -1.7 -0.55 -3.5 0.95 L-3.5 1.1 Q-1.9 -0.1 -0.8 -1.65 L-0.3 -2.35 Q0.65 -3.9 1.2 -5.75 L1.3 -6.15 1.15 -6.1 1.15 -6.05 1.1 -5.8 M0.8 -6.1 Q0.0 -5.95 -0.7 -5.6 -1.85 -5.0 -2.7 -3.7 -3.7 -2.05 -3.7 -0.4 L-3.6 0.3 -3.55 0.8 -2.75 0.15 Q-1.4 -1.05 -0.55 -2.5 -0.1 -3.25 0.3 -4.1 L0.45 -4.35 0.8 -5.3 0.9 -5.8 1.0 -6.0 1.05 -6.1 0.8 -6.1 M1.4 -4.35 L1.55 -4.35 1.4 -4.4 1.4 -4.35 M2.9 -3.2 L2.55 -3.6 Q2.25 -3.9 1.85 -4.15 2.15 -3.9 2.35 -3.45 L2.4 -3.25 2.5 -2.9 Q2.65 -2.45 2.65 -2.0 L2.65 -1.85 Q2.6 -0.95 1.95 0.1 1.0 1.75 -0.7 1.75 -1.35 1.75 -1.85 1.45 L-1.6 1.65 Q-1.15 1.9 -0.75 1.95 L-0.7 1.95 0.45 1.85 1.25 1.55 Q2.05 1.2 2.5 1.15 L2.6 0.95 Q3.4 -0.45 3.4 -1.7 3.4 -2.25 3.2 -2.7 3.1 -2.95 2.9 -3.2 M1.95 -3.15 L1.35 -4.2 Q0.85 -2.95 -0.7 -1.05 -1.35 -0.25 -2.05 0.45 L-1.8 0.8 Q-1.45 1.35 -0.7 1.35 0.8 1.35 1.7 -0.15 2.35 -1.15 2.35 -1.9 2.35 -2.45 1.95 -3.15 M-1.85 1.45 L-2.1 1.2 -2.35 0.8 -2.55 0.95 -2.4 1.05 Q-2.2 1.2 -1.85 1.45 M-2.0 1.65 Q-1.3 2.3 -0.4 2.3 -0.15 2.3 1.0 1.9 L2.15 1.55 2.2 1.55 2.25 1.5 2.05 1.55 1.3 1.7 Q0.45 2.2 -0.2 2.2 -0.75 2.2 -1.35 1.95 -1.65 1.85 -1.95 1.65 L-2.0 1.65 -2.0 1.65 M1.2 3.05 Q1.5 2.65 1.75 2.2 L1.05 2.45 Q0.2 2.7 -0.35 2.7 -1.4 2.7 -2.2 1.95 -2.65 1.6 -2.8 1.25 L-3.25 1.65 -3.3 1.8 -3.4 2.25 Q-3.35 2.6 -2.85 3.05 -2.15 3.65 -1.1 3.65 -0.1 3.65 0.7 3.3 L1.2 3.05 M0.7 3.45 Q-0.25 3.85 -1.1 3.85 -2.35 3.85 -3.05 3.1 -3.3 2.8 -3.45 2.55 -3.45 3.05 -2.95 3.6 -2.25 4.3 -1.0 4.3 0.1 4.3 0.9 3.35 L0.7 3.45 M-2.55 1.1 L-2.6 1.05 -2.65 1.05 -2.55 1.1" fill="#111111" fill-rule="evenodd" stroke="none"/>
      <path d="M2.4 -3.25 L2.35 -3.45 Q2.15 -3.9 1.85 -4.15 2.25 -3.9 2.55 -3.6 L2.9 -3.2 Q3.1 -2.85 3.15 -2.8 L3.2 -2.7 Q3.4 -2.25 3.4 -1.7 3.25 -1.5 3.2 -1.5 3.1 -1.5 3.05 -1.6 L2.95 -1.7 Q2.9 -1.8 2.8 -1.8 L2.65 -1.85 2.65 -2.0 Q2.65 -2.45 2.5 -2.9 L2.55 -3.05 2.4 -3.25 M2.8 -0.9 Q2.8 -1.05 3.0 -1.1 3.2 -1.15 3.2 -0.9 L3.2 -0.8 Q3.15 -0.7 3.05 -0.7 2.85 -0.7 2.8 -0.8 L2.8 -0.9 M1.0 2.95 Q0.9 3.1 0.85 3.1 0.7 3.1 0.7 2.95 0.7 2.7 0.9 2.6 1.1 2.45 1.1 2.75 1.1 2.8 1.0 2.95" fill="#cecece" fill-rule="evenodd" stroke="none"/>
      <path d="M0.8 -6.1 L1.05 -6.1 1.0 -6.0 0.9 -5.8 0.8 -5.3 0.45 -4.35 0.3 -4.1 0.25 -4.0 -0.15 -4.0 Q-0.5 -4.15 -0.45 -4.35 L-0.4 -4.7 Q-0.4 -4.8 -0.6 -4.9 -0.8 -5.05 -0.8 -5.3 -0.8 -5.45 -0.7 -5.6 0.0 -5.95 0.8 -6.1 M2.4 -3.25 L2.55 -3.05 2.5 -2.9 2.4 -3.25 M2.65 -1.85 L2.8 -1.8 Q2.9 -1.8 2.95 -1.7 L3.05 -1.6 Q3.1 -1.5 3.2 -1.5 3.25 -1.5 3.4 -1.7 3.4 -0.45 2.6 0.95 L2.5 1.15 Q2.05 1.2 1.25 1.55 L0.45 1.85 -0.7 1.95 -0.75 1.95 Q-1.15 1.9 -1.6 1.65 L-1.85 1.45 Q-1.35 1.75 -0.7 1.75 1.0 1.75 1.95 0.1 2.6 -0.95 2.65 -1.85 M3.2 -2.7 L3.15 -2.8 Q3.1 -2.85 2.9 -3.2 3.1 -2.95 3.2 -2.7 M2.8 -0.9 L2.8 -0.8 Q2.85 -0.7 3.05 -0.7 3.15 -0.7 3.2 -0.8 L3.2 -0.9 Q3.2 -1.15 3.0 -1.1 2.8 -1.05 2.8 -0.9 M1.0 2.95 Q1.1 2.8 1.1 2.75 1.1 2.45 0.9 2.6 0.7 2.7 0.7 2.95 0.7 3.1 0.85 3.1 0.9 3.1 1.0 2.95 M1.2 3.05 L0.7 3.3 Q-0.1 3.65 -1.1 3.65 -2.15 3.65 -2.85 3.05 -3.35 2.6 -3.4 2.25 L-3.3 1.8 -3.25 1.65 -2.8 1.25 Q-2.65 1.6 -2.2 1.95 -1.4 2.7 -0.35 2.7 0.2 2.7 1.05 2.45 L1.75 2.2 Q1.5 2.65 1.2 3.05 M-1.15 -4.9 Q-0.85 -4.9 -0.85 -4.65 -0.85 -4.55 -0.95 -4.5 -1.05 -4.4 -1.25 -4.4 -1.4 -4.4 -1.45 -4.5 L-1.45 -4.65 Q-1.45 -4.9 -1.15 -4.9" fill="#8d8d8d" fill-rule="evenodd" stroke="none"/>
      <path d="M1.0 -6.0 L1.05 -6.1 0.8 -6.1 1.05 -6.1 1.0 -6.0 M-0.7 -5.6 Q-0.8 -5.45 -0.8 -5.3 -0.8 -5.05 -0.6 -4.9 -0.4 -4.8 -0.4 -4.7 L-0.45 -4.35 Q-0.5 -4.15 -0.15 -4.0 L0.25 -4.0 0.3 -4.1 Q-0.1 -3.25 -0.55 -2.5 -1.4 -1.05 -2.75 0.15 L-3.55 0.8 -3.6 0.3 -3.7 -0.4 Q-3.7 -2.05 -2.7 -3.7 -1.85 -5.0 -0.7 -5.6 M-1.15 -4.9 Q-1.45 -4.9 -1.45 -4.65 L-1.45 -4.5 Q-1.4 -4.4 -1.25 -4.4 -1.05 -4.4 -0.95 -4.5 -0.85 -4.55 -0.85 -4.65 -0.85 -4.9 -1.15 -4.9" fill="#666666" fill-rule="evenodd" stroke="none"/>
      <path d="M1.1 -5.8 L1.15 -6.05 1.15 -6.1 1.3 -6.15 1.2 -5.75 Q0.65 -3.9 -0.3 -2.35 L-0.8 -1.65 Q-1.9 -0.1 -3.5 1.1 L-3.5 0.95 Q-1.7 -0.55 -0.85 -1.65 -0.6 -2.05 -0.4 -2.4 L0.4 -4.05 Q0.95 -5.3 1.1 -5.8 M-2.0 1.65 L-1.95 1.65 Q-1.65 1.85 -1.35 1.95 -0.75 2.2 -0.2 2.2 0.45 2.2 1.3 1.7 L2.05 1.55 2.25 1.5 2.2 1.55 2.15 1.55 1.0 1.9 Q-0.15 2.3 -0.4 2.3 -1.3 2.3 -2.0 1.65 M0.7 3.45 L0.9 3.35 Q0.1 4.3 -1.0 4.3 -2.25 4.3 -2.95 3.6 -3.45 3.05 -3.45 2.55 -3.3 2.8 -3.05 3.1 -2.35 3.85 -1.1 3.85 -0.25 3.85 0.7 3.45" fill="#b00000" fill-rule="evenodd" stroke="none"/>
    </g>
  </defs>
</svg>
