<?xml version="1.0" encoding="UTF-8" standalone="no"?>
<svg xmlns:ffdec="https://www.free-decompiler.com/flash" xmlns:xlink="http://www.w3.org/1999/xlink" ffdec:objectType="frame" height="60.9px" width="184.45px" xmlns="http://www.w3.org/2000/svg">
  <g transform="matrix(1.0, 0.0, 0.0, 1.0, 95.9, -4.9)">
    <use ffdec:characterId="464" height="3.95" transform="matrix(7.0, 0.0, 0.0, 7.0, -53.9, 31.5)" width="17.0" xlink:href="#shape0"/>
  </g>
  <defs>
    <g id="shape0" transform="matrix(1.0, 0.0, 0.0, 1.0, 7.7, -4.5)">
      <path d="M6.85 4.6 L6.8 4.7 6.7 4.7 Q6.65 4.65 6.65 4.55 L6.8 4.5 6.85 4.6 M7.35 6.5 L7.35 6.45 7.45 6.45 7.4 6.55 7.35 6.5 M7.75 7.0 L7.75 7.0 M7.85 7.05 L7.85 7.15 Q7.85 7.25 7.8 7.25 L7.45 7.25 7.25 7.3 7.2 7.3 7.2 7.25 7.7 6.95 Q7.8 6.8 7.85 6.85 L7.85 7.05 M8.35 6.45 L8.45 6.45 8.45 6.7 8.3 6.7 8.3 6.6 Q8.3 6.45 8.35 6.45 M9.3 6.7 L9.0 7.1 8.8 7.1 9.0 6.85 Q9.15 6.65 9.25 6.6 L9.3 6.7 M0.65 6.35 L0.65 6.4 0.6 6.45 0.4 6.45 0.3 6.4 0.25 6.3 Q0.25 6.25 0.3 6.2 L0.45 6.3 0.5 6.3 0.55 6.25 0.65 6.35 M1.15 6.55 L1.15 6.65 1.05 6.7 Q1.0 6.7 0.9 6.6 L0.9 6.5 1.0 6.5 1.05 6.4 1.1 6.4 1.15 6.45 1.15 6.55 M2.65 5.5 L2.65 5.6 2.45 5.65 2.3 5.6 Q2.25 5.5 2.25 5.45 2.4 5.4 2.5 5.4 L2.65 5.5 M3.95 5.3 L3.7 5.3 3.7 5.15 Q3.7 5.1 3.95 5.1 L4.0 5.2 3.95 5.3 M4.3 5.25 L4.25 5.35 Q4.2 5.3 4.2 5.25 L4.3 5.25 M2.95 5.65 L3.05 5.65 3.1 5.7 3.05 5.8 2.95 5.8 2.9 5.7 2.95 5.65 M4.65 7.1 L4.7 7.2 4.5 7.4 4.45 7.35 4.45 7.25 Q4.45 7.2 4.45 7.15 4.55 7.1 4.65 7.1 M4.15 7.5 L3.95 7.5 3.9 7.45 Q3.85 7.4 3.85 7.35 L3.85 7.25 Q3.9 7.25 4.35 7.5 L4.35 7.55 4.15 7.5 M1.0 8.4 L0.9 8.45 Q0.85 8.5 0.85 8.35 L0.85 8.25 0.9 8.25 Q0.95 8.25 1.0 8.3 L1.0 8.4 M7.65 7.15 L7.65 7.15 M6.7 7.35 L6.65 7.4 6.5 7.4 Q6.45 7.35 6.45 7.3 L6.65 7.2 6.7 7.25 6.7 7.35 M7.0 7.75 L6.95 7.7 Q7.0 7.65 7.05 7.7 L7.0 7.75 M6.3 7.3 L6.35 7.3 6.15 7.35 Q6.05 7.35 5.9 7.3 L5.9 7.2 5.95 7.2 6.05 7.15 Q6.1 7.15 6.15 7.25 L6.25 7.3 6.25 7.2 Q6.3 7.2 6.35 7.25 L6.3 7.3 M-6.9 8.25 L-6.8 8.25 -6.75 8.3 Q-6.75 8.4 -6.8 8.4 L-6.9 8.35 -6.9 8.25 M-7.65 7.35 L-7.55 7.45 -7.65 7.55 Q-7.7 7.6 -7.7 7.45 -7.7 7.35 -7.65 7.35" fill="#6d4d83" fill-rule="evenodd" stroke="none"/>
    </g>
  </defs>
</svg>
