<?xml version="1.0" encoding="UTF-8" standalone="no"?>
<svg xmlns:ffdec="https://www.free-decompiler.com/flash" xmlns:xlink="http://www.w3.org/1999/xlink" ffdec:objectType="frame" height="47.2px" width="84.2px" xmlns="http://www.w3.org/2000/svg">
  <g transform="matrix(1.0, 0.0, 0.0, 1.0, 4.95, -1.8)">
    <use ffdec:characterId="244" height="46.35" transform="matrix(1.018, 0.0, 0.0, 1.018, -4.936, 1.814)" width="82.7" xlink:href="#text0"/>
  </g>
  <defs>
    <g id="text0" transform="matrix(1.0, 0.0, 0.0, 1.0, 2.0, 2.0)">
      <g transform="matrix(1.0, 0.0, 0.0, 1.0, -2.0, -2.0)">
        <use fill="#fefefe" height="46.35" transform="matrix(0.0352, 0.0, 0.0, 0.0352, 0.0, 36.65)" width="82.7" xlink:href="#font_HelveticaRounded_LT_Std_Bd_L0"/>
        <use fill="#fefefe" height="46.35" transform="matrix(0.0352, 0.0, 0.0, 0.0352, 22.0, 36.65)" width="82.7" xlink:href="#font_HelveticaRounded_LT_Std_Bd_i0"/>
        <use fill="#fefefe" height="46.35" transform="matrix(0.0352, 0.0, 0.0, 0.0352, 32.0, 36.65)" width="82.7" xlink:href="#font_HelveticaRounded_LT_Std_Bd_k0"/>
        <use fill="#fefefe" height="46.35" transform="matrix(0.0352, 0.0, 0.0, 0.0352, 51.35, 36.65)" width="82.7" xlink:href="#font_HelveticaRounded_LT_Std_Bd_e0"/>
      </g>
    </g>
    <g id="font_HelveticaRounded_LT_Std_Bd_L0">
      <path d="M78.0 -98.5 L78.0 -667.0 Q78.5 -705.0 101.0 -728.0 123.0 -750.5 162.0 -751.0 201.0 -750.5 223.0 -728.0 245.5 -705.0 246.0 -667.0 L246.0 -141.5 526.5 -141.5 Q563.5 -141.5 588.0 -123.5 612.5 -105.5 613.5 -71.0 612.5 -36.0 588.0 -18.0 563.5 0.0 526.5 0.0 L176.5 0.0 Q131.0 1.0 105.0 -21.0 78.5 -43.0 78.0 -98.5" fill-rule="evenodd" stroke="none"/>
    </g>
    <g id="font_HelveticaRounded_LT_Std_Bd_i0">
      <path d="M64.5 -677.5 Q65.5 -710.5 87.5 -732.0 109.0 -754.0 142.0 -755.0 175.5 -754.0 197.0 -732.0 219.0 -710.5 220.0 -677.5 219.0 -644.0 197.0 -622.5 175.5 -600.5 142.0 -599.5 109.0 -600.5 87.5 -622.5 65.5 -644.0 64.5 -677.5 M67.5 -61.5 L67.5 -474.0 Q66.5 -505.0 83.0 -526.5 99.5 -548.0 142.5 -549.0 185.0 -548.0 201.5 -526.5 218.0 -505.0 217.0 -474.0 L217.0 -61.5 Q218.0 -30.5 201.5 -9.0 185.0 12.5 142.5 13.5 99.5 12.5 83.0 -9.0 66.5 -30.5 67.5 -61.5" fill-rule="evenodd" stroke="none"/>
    </g>
    <g id="font_HelveticaRounded_LT_Std_Bd_k0">
      <path d="M59.5 -61.5 L59.5 -676.0 Q60.0 -713.0 80.0 -732.0 100.0 -751.0 134.5 -751.0 168.5 -751.0 188.5 -732.0 208.5 -713.0 209.0 -676.0 L209.0 -336.0 375.0 -520.5 Q386.5 -533.0 401.0 -541.0 415.5 -548.5 432.0 -549.0 459.0 -548.5 480.0 -529.5 501.5 -510.5 503.0 -481.5 502.5 -462.0 496.5 -452.0 490.5 -442.0 480.5 -432.0 L369.5 -316.5 525.5 -107.5 Q529.5 -102.0 535.0 -90.0 540.5 -77.5 540.5 -59.5 540.0 -30.0 520.5 -8.5 500.5 12.5 470.0 13.5 442.5 13.0 426.5 2.0 410.5 -8.5 402.5 -21.5 L261.0 -221.0 209.0 -175.0 209.0 -61.5 Q208.5 -24.5 188.5 -5.5 168.5 13.5 134.5 13.5 100.0 13.5 80.0 -5.5 60.0 -24.5 59.5 -61.5" fill-rule="evenodd" stroke="none"/>
    </g>
    <g id="font_HelveticaRounded_LT_Std_Bd_e0">
      <path d="M186.5 -325.5 L448.5 -325.5 Q441.5 -378.0 407.5 -411.0 373.5 -443.5 322.5 -444.5 266.5 -444.0 232.5 -412.5 198.5 -380.5 186.5 -325.5 M524.5 -239.5 L186.5 -239.5 Q187.0 -179.0 223.0 -141.5 259.0 -104.0 324.5 -103.0 366.0 -103.5 390.5 -114.5 415.0 -125.5 431.0 -140.0 446.5 -154.5 461.0 -165.5 476.0 -176.5 497.5 -177.0 525.0 -176.0 542.0 -158.0 558.5 -140.0 559.0 -118.5 558.5 -84.5 535.0 -60.0 512.0 -35.0 475.5 -18.5 439.5 -2.5 399.5 5.5 359.5 13.5 324.5 13.5 246.5 13.0 191.5 -10.5 136.5 -34.0 102.5 -73.5 68.5 -112.5 52.5 -160.5 37.0 -208.5 37.0 -258.0 37.5 -345.5 71.0 -411.0 104.5 -476.0 167.5 -512.0 230.5 -548.5 319.5 -549.0 406.0 -548.0 466.0 -513.0 526.5 -478.0 558.0 -422.0 589.5 -366.5 590.0 -304.0 590.5 -266.5 576.0 -252.5 561.5 -239.0 524.5 -239.5" fill-rule="evenodd" stroke="none"/>
    </g>
  </defs>
</svg>
