<?xml version="1.0" encoding="UTF-8" standalone="no"?>
<svg xmlns:ffdec="https://www.free-decompiler.com/flash" xmlns:xlink="http://www.w3.org/1999/xlink" ffdec:objectType="frame" height="118.3px" width="102.9px" xmlns="http://www.w3.org/2000/svg">
  <g transform="matrix(1.0, 0.0, 0.0, 1.0, 67.2, 45.85)">
    <use ffdec:characterId="736" height="16.9" transform="matrix(7.0, 0.0, 0.0, 7.0, -67.2, -45.85)" width="14.7" xlink:href="#shape0"/>
  </g>
  <defs>
    <g id="shape0" transform="matrix(1.0, 0.0, 0.0, 1.0, 9.6, 6.55)">
      <path d="M4.6 -4.0 L4.8 -3.4 Q5.0 -2.7 5.1 -2.0 5.1 -1.4 4.95 -0.85 4.9 -0.25 4.8 0.2 L4.5 1.0 Q4.2 1.8 4.2 3.05 L4.0 4.75 Q3.95 5.4 3.65 6.25 L3.6 6.6 3.5 7.0 3.4 7.1 3.4 7.15 Q3.2 8.25 2.3 8.8 1.85 9.05 1.5 9.05 1.25 9.0 1.2 8.9 L1.05 8.85 Q0.55 8.45 0.55 7.3 0.55 6.55 0.65 5.25 0.75 4.45 0.8 3.9 L0.8 3.65 Q0.7 3.9 0.6 4.2 L0.5 5.0 Q0.35 6.65 0.25 7.1 0.05 7.85 -0.2 8.4 L-0.35 9.0 -0.85 9.75 Q-1.05 9.9 -1.9 10.35 L-2.75 10.3 -3.3 9.95 Q-3.4 9.9 -3.5 9.85 -3.6 9.6 -3.6 9.35 -3.6 8.9 -3.5 8.45 L-3.5 8.1 Q-3.5 7.4 -3.05 5.25 -2.65 3.45 -2.6 2.95 -2.95 3.5 -3.1 4.2 L-3.65 6.5 Q-3.95 7.7 -4.6 8.45 -5.15 9.15 -5.8 9.3 -6.45 9.45 -6.9 9.05 -7.35 8.65 -7.35 7.85 -7.35 7.3 -6.9 5.55 L-6.45 3.85 -5.85 2.05 Q-7.0 2.7 -8.1 2.35 -8.75 2.15 -9.2 1.65 -9.6 1.2 -9.6 0.75 -9.6 0.35 -8.6 -0.35 L-7.05 -1.4 -6.6 -1.85 -6.45 -2.1 -6.2 -2.5 -6.25 -2.55 Q-6.25 -2.85 -5.95 -3.45 -5.65 -4.15 -5.15 -4.75 -4.35 -5.8 -3.4 -6.2 -3.0 -6.55 -2.5 -6.55 -1.8 -6.55 -1.2 -6.3 -0.4 -6.05 0.35 -5.45 L0.5 -5.5 Q0.9 -5.5 2.35 -5.1 4.05 -4.7 4.4 -4.3 L4.6 -4.0" fill="url(#gradient0)" fill-rule="evenodd" stroke="none"/>
    </g>
    <linearGradient gradientTransform="matrix(-0.0089, 0.004, -0.004, -0.009, -1.55, 1.7)" gradientUnits="userSpaceOnUse" id="gradient0" spreadMethod="pad" x1="-819.2" x2="819.2">
      <stop offset="0.0" stop-color="#111111"/>
      <stop offset="1.0" stop-color="#111111"/>
    </linearGradient>
  </defs>
</svg>
