<?xml version="1.0" encoding="UTF-8" standalone="no"?>
<svg xmlns:ffdec="https://www.free-decompiler.com/flash" xmlns:xlink="http://www.w3.org/1999/xlink" ffdec:objectType="frame" height="399.7px" width="190.75px" xmlns="http://www.w3.org/2000/svg">
  <g transform="matrix(1.0, 0.0, 0.0, 1.0, 80.5, 193.2)">
    <use ffdec:characterId="45" height="57.1" transform="matrix(7.0, 0.0, 0.0, 7.0, -80.5, -193.2)" width="27.25" xlink:href="#shape0"/>
  </g>
  <defs>
    <g id="shape0" transform="matrix(1.0, 0.0, 0.0, 1.0, 11.5, 27.6)">
      <path d="M0.5 6.0 L1.3 5.7 Q2.85 5.0 4.15 4.25 5.2 3.6 5.6 3.2 L6.15 2.55 Q6.65 2.2 7.1 1.4 7.75 0.25 7.75 -0.25 7.75 -0.55 7.7 -0.8 L7.7 -0.9 7.8 -1.6 6.95 -2.65 Q6.45 -3.35 6.0 -4.0 L6.15 -3.4 Q5.35 -5.25 4.55 -6.85 4.0 -7.9 3.55 -8.65 3.2 -9.7 3.2 -10.6 L3.25 -11.1 2.85 -13.55 2.8 -13.65 Q2.6 -14.25 2.4 -15.25 2.2 -16.2 2.1 -16.85 L2.05 -16.85 2.05 -17.1 2.0 -17.2 2.05 -17.25 2.05 -17.35 2.35 -18.25 2.65 -19.25 Q2.65 -19.75 2.3 -20.5 L2.0 -21.2 2.25 -21.55 Q2.7 -22.2 2.8 -22.55 L2.85 -22.5 2.8 -22.6 Q3.0 -22.65 3.1 -22.85 3.25 -23.05 3.25 -23.3 3.1 -23.6 2.85 -23.9 2.8 -24.2 2.6 -24.55 2.3 -25.2 1.7 -25.75 0.1 -27.25 -2.65 -27.25 -4.05 -27.25 -5.25 -26.7 -6.35 -26.25 -6.35 -25.8 L-6.3 -25.4 -6.45 -25.25 -6.4 -25.1 -6.3 -25.2 -6.25 -24.8 -6.2 -24.5 -6.2 -24.1 Q-6.2 -23.65 -6.5 -22.0 L-6.8 -20.15 Q-6.8 -19.6 -7.0 -18.45 L-7.3 -17.7 -7.65 -16.9 -8.05 -15.45 -8.1 -15.45 Q-9.6 -9.45 -9.6 -7.75 -9.6 -7.45 -10.05 -3.6 L-10.1 -3.0 -10.0 -1.3 Q-9.65 2.5 -9.65 3.5 -9.65 4.0 -9.35 6.15 L-9.05 6.55 Q-8.25 7.55 -7.55 7.55 -3.55 7.55 0.5 6.0 M4.25 -21.6 L3.5 -21.0 3.5 -20.85 Q3.5 -20.75 3.55 -19.95 3.65 -19.3 3.55 -18.95 L3.3 -17.9 3.15 -17.35 3.1 -17.35 3.1 -17.25 Q3.1 -16.8 3.2 -15.75 3.35 -14.15 3.6 -12.8 L3.65 -12.95 Q4.05 -12.15 4.5 -10.85 L5.2 -8.6 Q6.15 -5.7 7.5 -4.15 L9.25 -1.85 Q10.3 -0.5 11.0 0.25 11.65 0.9 13.8 2.5 L15.75 3.95 Q15.75 4.4 14.05 7.3 12.45 10.0 11.9 10.7 11.6 11.1 10.3 11.85 12.0 16.15 12.0 16.95 12.0 17.2 11.8 17.5 11.7 17.7 11.55 17.8 L11.2 18.6 Q11.1 19.2 11.1 19.4 11.1 19.85 10.7 20.75 L10.2 21.75 Q9.25 23.55 7.8 25.15 L7.0 25.95 6.55 26.2 Q3.5 27.8 1.8 28.55 0.15 29.2 -1.05 29.5 -3.5 28.75 -6.6 27.1 -6.9 24.65 -7.5 21.75 -7.8 20.0 -8.15 18.4 L-8.9 17.15 Q-9.5 17.0 -9.7 16.4 -9.8 16.15 -9.8 15.8 L-9.75 15.55 Q-9.75 13.65 -10.4 10.55 L-10.85 8.1 -11.05 7.35 -11.3 5.9 -11.35 5.5 -11.5 2.65 -11.25 -4.45 Q-11.25 -4.65 -11.1 -6.0 -10.9 -7.35 -10.9 -7.55 -10.9 -9.7 -9.8 -13.8 L-9.4 -15.25 -8.7 -17.25 -8.3 -18.5 -8.3 -18.6 -8.2 -18.75 -8.0 -19.6 Q-7.75 -21.35 -7.7 -23.8 L-8.1 -24.35 Q-8.05 -24.55 -7.95 -24.65 L-7.85 -24.85 -8.0 -25.15 Q-8.0 -26.6 -6.05 -27.2 -4.95 -27.6 -3.55 -27.6 L-2.55 -27.6 Q-1.7 -27.55 -0.9 -27.3 1.15 -26.9 2.6 -25.9 4.55 -24.6 4.55 -22.65 4.55 -21.95 4.25 -21.6 M9.1 -0.05 L8.95 -0.25 Q8.6 0.9 7.7 2.05 L7.55 2.25 7.15 2.6 Q6.75 2.95 6.4 3.35 5.35 4.3 3.9 5.15 L3.8 5.2 3.65 5.3 3.55 5.35 0.75 6.6 0.6 6.65 Q-0.55 7.0 -1.75 7.3 -5.1 8.1 -8.6 7.95 L-9.1 7.95 -8.95 9.1 -8.9 9.15 -8.65 10.8 Q-8.2 13.85 -7.9 15.2 L-7.55 15.0 Q-6.5 14.5 -3.9 14.15 L1.0 13.55 1.25 13.55 Q2.85 13.3 4.25 12.95 L6.15 12.45 7.25 12.05 Q8.05 11.75 8.8 11.35 L8.8 11.3 Q9.5 11.15 10.15 10.65 10.55 10.35 10.75 10.05 L10.9 9.75 Q11.45 9.25 11.9 8.65 13.55 6.7 14.15 4.5 12.65 3.45 11.15 2.1 L11.1 2.05 Q11.05 1.7 10.8 1.75 9.95 0.9 9.1 -0.05 M6.75 16.9 L6.9 16.7 7.0 16.65 Q7.55 16.05 8.05 15.15 L8.75 13.65 Q8.95 13.2 9.0 12.55 7.55 13.25 7.05 13.3 L6.35 13.45 Q5.65 13.6 4.35 13.95 L3.35 14.25 1.95 14.65 Q0.95 14.85 0.45 14.85 -0.2 14.7 -0.7 14.7 -1.1 14.7 -1.3 14.8 -4.1 14.8 -5.7 15.45 -6.0 15.55 -6.3 15.7 -6.8 16.0 -7.1 16.4 -7.25 16.6 -7.25 16.75 L-7.2 17.9 -7.15 18.35 -6.75 19.8 -4.85 21.05 Q-2.3 22.7 -1.7 22.7 -0.9 22.7 2.3 20.45 L2.6 20.2 Q3.65 19.5 4.5 18.85 5.85 17.8 6.75 16.9 M9.95 18.1 L9.95 18.0 10.0 17.9 Q10.05 17.55 10.15 17.3 L10.2 16.35 Q10.2 16.3 10.25 16.25 10.0 15.55 9.65 14.5 L9.45 14.85 9.35 14.95 9.35 15.0 9.3 15.05 9.3 15.1 9.25 15.1 9.25 15.15 8.9 15.55 7.55 17.0 7.15 17.4 6.45 18.05 Q5.9 18.65 4.65 19.55 L4.4 19.75 4.35 19.75 4.2 19.9 3.0 20.7 2.8 20.8 2.5 21.0 0.2 22.5 -1.6 23.65 Q-2.25 23.65 -4.5 22.3 -5.65 21.6 -6.4 20.95 L-6.05 22.15 -5.75 23.25 -5.8 23.3 Q-6.0 23.35 -6.05 23.45 -5.9 23.8 -5.45 24.3 L-5.0 25.95 -4.5 26.55 Q-4.05 27.05 -3.55 27.3 -3.3 27.55 -1.1 27.9 L-0.3 28.0 Q1.5 27.6 3.25 26.65 L4.25 26.1 5.4 25.35 Q6.15 24.85 6.75 24.3 L7.35 23.6 Q7.8 23.1 8.15 22.55 L8.3 22.35 8.5 21.95 8.6 21.7 8.65 21.55 8.75 21.35 8.8 21.3 8.8 21.25 Q9.7 19.3 9.95 18.1" fill="#111111" fill-rule="evenodd" stroke="none"/>
      <path d="M2.85 -23.9 L2.85 -23.95 Q2.25 -24.65 1.3 -25.25 L0.9 -25.55 Q0.45 -25.15 0.1 -24.6 -0.4 -23.9 -0.65 -23.05 -0.85 -22.35 -0.85 -21.9 -0.85 -21.75 -0.65 -21.4 -1.05 -21.25 -1.35 -21.1 L-0.6 -19.85 Q-0.1 -19.05 0.1 -18.55 L0.8 -18.3 0.8 -18.2 0.75 -17.3 0.3 -17.0 0.25 -16.95 0.15 -16.8 0.1 -16.8 -0.1 -16.55 -0.25 -16.55 Q-0.85 -15.7 -1.4 -14.7 -1.4 -14.4 -1.3 -14.3 -1.25 -14.25 -1.0 -14.2 -0.45 -14.55 0.65 -15.8 L0.55 -14.5 0.4 -11.75 Q0.0 -11.15 -0.35 -10.4 L-1.6 -7.4 -1.45 -7.3 Q-0.4 -7.85 0.3 -9.0 L0.3 -8.05 0.45 -4.6 0.45 -3.9 0.0 -3.2 Q-0.6 -2.15 -0.6 -1.85 -0.6 -1.7 -0.45 -1.6 L-0.15 -1.35 Q0.15 -1.45 0.4 -1.8 0.15 0.05 0.15 2.05 0.15 3.35 0.45 5.6 L0.5 6.0 Q-3.55 7.55 -7.55 7.55 -8.25 7.55 -9.05 6.55 L-9.35 6.15 Q-9.65 4.0 -9.65 3.5 -9.65 2.5 -10.0 -1.3 L-10.1 -3.0 -10.05 -3.6 Q-9.6 -7.45 -9.6 -7.75 -9.6 -9.45 -8.1 -15.45 L-8.05 -15.45 -7.65 -16.9 -7.3 -17.7 -7.0 -18.45 Q-6.8 -19.6 -6.8 -20.15 L-6.5 -22.0 Q-6.2 -23.65 -6.2 -24.1 L-6.2 -24.5 -6.25 -24.8 -6.3 -25.2 -6.4 -25.1 -6.45 -25.25 -6.3 -25.4 -6.35 -25.8 Q-6.35 -26.25 -5.25 -26.7 -4.05 -27.25 -2.65 -27.25 0.1 -27.25 1.7 -25.75 2.3 -25.2 2.6 -24.55 2.8 -24.2 2.85 -23.9 M-5.7 15.45 L-1.65 15.45 -1.25 15.55 -0.3 15.75 0.85 16.05 1.3 16.15 1.4 16.55 Q1.35 16.6 1.25 16.65 0.8 16.9 0.4 17.35 0.0 17.8 0.0 18.0 0.0 18.35 0.05 18.4 L0.25 18.5 0.75 18.55 Q1.25 18.5 1.85 18.0 L2.6 20.2 2.3 20.45 Q-0.9 22.7 -1.7 22.7 -2.3 22.7 -4.85 21.05 L-6.75 19.8 -7.15 18.35 -7.2 17.9 -7.25 16.75 Q-7.25 16.6 -7.1 16.4 -6.8 16.0 -6.3 15.7 -6.0 15.55 -5.7 15.45 M4.5 18.85 L4.6 17.95 4.55 16.5 6.65 16.95 6.75 16.9 Q5.85 17.8 4.5 18.85 M-6.0 -25.55 L-6.0 -25.6 -6.05 -25.55 -6.0 -25.55 M-0.45 4.4 Q-0.45 4.15 -0.5 4.0 L-0.6 3.8 Q-1.55 4.25 -1.55 5.05 -1.55 5.3 -1.5 5.35 L-1.0 5.35 -0.85 5.3 -0.65 4.95 Q-0.45 4.7 -0.45 4.4 M-2.45 0.4 Q-2.45 0.65 -2.7 0.8 L-3.0 0.95 Q-3.0 1.25 -2.85 1.35 L-2.55 1.4 -2.1 1.0 Q-1.95 0.85 -1.95 0.65 -1.95 0.35 -2.0 0.35 L-2.05 0.45 -2.45 0.4" fill="#aadae3" fill-rule="evenodd" stroke="none"/>
      <path d="M0.5 6.0 L0.45 5.6 Q0.15 3.35 0.15 2.05 0.15 0.05 0.4 -1.8 0.15 -1.45 -0.15 -1.35 L-0.45 -1.6 Q-0.6 -1.7 -0.6 -1.85 -0.6 -2.15 0.0 -3.2 L0.45 -3.9 0.45 -4.6 0.3 -8.05 0.3 -9.0 Q-0.4 -7.85 -1.45 -7.3 L-1.6 -7.4 -0.35 -10.4 Q0.0 -11.15 0.4 -11.75 L0.55 -14.5 0.65 -15.8 Q-0.45 -14.55 -1.0 -14.2 -1.25 -14.25 -1.3 -14.3 -1.4 -14.4 -1.4 -14.7 -0.85 -15.7 -0.25 -16.55 L-0.1 -16.55 0.1 -16.8 0.15 -16.8 0.25 -16.95 0.3 -17.0 0.75 -17.3 0.8 -18.2 0.8 -18.3 0.1 -18.55 Q-0.1 -19.05 -0.6 -19.85 L-1.35 -21.1 Q-1.05 -21.25 -0.65 -21.4 -0.85 -21.75 -0.85 -21.9 -0.85 -22.35 -0.65 -23.05 -0.4 -23.9 0.1 -24.6 0.45 -25.15 0.9 -25.55 L1.3 -25.25 Q2.25 -24.65 2.85 -23.95 L2.85 -23.9 Q3.1 -23.6 3.25 -23.3 3.25 -23.05 3.1 -22.85 3.0 -22.65 2.8 -22.6 L2.85 -22.5 2.8 -22.55 Q2.7 -22.2 2.25 -21.55 L2.0 -21.2 2.3 -20.5 Q2.65 -19.75 2.65 -19.25 L2.35 -18.25 2.05 -17.35 2.05 -17.25 2.0 -17.2 2.05 -17.1 2.05 -16.85 2.1 -16.85 Q2.2 -16.2 2.4 -15.25 2.6 -14.25 2.8 -13.65 L2.85 -13.55 3.25 -11.1 3.2 -10.6 Q3.2 -9.7 3.55 -8.65 4.0 -7.9 4.55 -6.85 5.35 -5.25 6.15 -3.4 L6.0 -4.0 Q6.45 -3.35 6.95 -2.65 L7.8 -1.6 7.7 -0.9 7.7 -0.8 Q7.75 -0.55 7.75 -0.25 7.75 0.25 7.1 1.4 6.65 2.2 6.15 2.55 L5.6 3.2 Q5.2 3.6 4.15 4.25 2.85 5.0 1.3 5.7 L0.5 6.0 M-5.7 15.45 Q-4.1 14.8 -1.3 14.8 -1.1 14.7 -0.7 14.7 -0.2 14.7 0.45 14.85 0.95 14.85 1.95 14.65 L3.35 14.25 4.35 13.95 Q5.65 13.6 6.35 13.45 L7.05 13.3 Q7.55 13.25 9.0 12.55 8.95 13.2 8.75 13.65 L8.05 15.15 Q7.55 16.05 7.0 16.65 L6.9 16.7 6.75 16.9 6.65 16.95 4.55 16.5 4.6 17.95 4.5 18.85 Q3.65 19.5 2.6 20.2 L1.85 18.0 Q1.25 18.5 0.75 18.55 L0.25 18.5 0.05 18.4 Q0.0 18.35 0.0 18.0 0.0 17.8 0.4 17.35 0.8 16.9 1.25 16.65 1.35 16.6 1.4 16.55 L1.3 16.15 0.85 16.05 -0.3 15.75 -1.25 15.55 -1.65 15.45 -5.7 15.45 M-2.45 0.4 L-2.05 0.45 -2.0 0.35 Q-1.95 0.35 -1.95 0.65 -1.95 0.85 -2.1 1.0 L-2.55 1.4 -2.85 1.35 Q-3.0 1.25 -3.0 0.95 L-2.7 0.8 Q-2.45 0.65 -2.45 0.4 M-0.45 4.4 Q-0.45 4.7 -0.65 4.95 L-0.85 5.3 -1.0 5.35 -1.5 5.35 Q-1.55 5.3 -1.55 5.05 -1.55 4.25 -0.6 3.8 L-0.5 4.0 Q-0.45 4.15 -0.45 4.4" fill="#86aab3" fill-rule="evenodd" stroke="none"/>
      <path d="M0.75 6.6 L3.55 5.35 3.65 5.3 3.8 5.2 3.9 5.15 Q5.35 4.3 6.4 3.35 6.75 2.95 7.15 2.6 L7.55 2.25 7.7 2.05 Q8.6 0.9 8.95 -0.25 L9.1 -0.05 Q9.05 0.15 9.05 0.35 9.05 0.85 8.85 1.45 L8.75 1.5 8.5 2.0 Q7.9 3.15 7.0 4.4 6.35 5.3 5.5 5.95 L5.0 5.5 4.25 6.75 3.65 7.1 Q2.65 7.55 0.7 8.15 L0.75 8.0 0.65 6.6 0.75 6.6 M11.15 2.1 Q12.65 3.45 14.15 4.5 13.55 6.7 11.9 8.65 11.45 9.25 10.9 9.75 L10.75 10.05 9.75 9.4 Q8.35 8.35 7.2 7.45 8.3 7.0 9.5 5.75 10.25 4.9 10.75 4.0 11.25 3.1 11.25 2.6 11.25 2.35 11.15 2.2 L11.15 2.1 M0.6 9.95 L1.0 9.8 2.8 9.25 Q2.0 10.8 1.85 11.9 L1.8 12.0 Q1.7 12.1 1.45 12.1 1.3 12.1 0.6 9.95 M7.55 17.0 L8.9 15.55 9.25 15.15 9.25 15.1 9.3 15.1 9.3 15.05 9.35 15.0 9.35 14.95 9.45 14.85 9.65 14.5 Q10.0 15.55 10.25 16.25 10.2 16.3 10.2 16.35 L10.15 17.3 Q10.05 17.55 10.0 17.9 L9.95 18.0 9.95 18.1 9.1 17.85 Q9.65 16.9 9.65 16.5 L9.55 16.0 Q9.5 15.65 9.5 15.5 9.15 15.75 7.85 17.3 L7.45 17.1 7.55 17.0 M3.0 20.7 L4.2 19.9 4.35 19.75 4.4 19.75 4.4 20.9 3.15 21.95 3.0 20.7 M4.1 23.15 Q3.95 23.9 3.65 24.15 3.6 24.0 3.5 23.55 L4.1 23.15" fill="#999999" fill-rule="evenodd" stroke="none"/>
      <path d="M0.75 6.6 L0.65 6.6 0.75 8.0 0.7 8.15 -0.1 8.4 Q-2.4 9.05 -3.2 9.5 -4.5 10.3 -4.5 11.7 -4.5 12.0 -4.2 12.3 -4.1 12.5 -3.9 12.6 -3.5 13.25 -2.85 13.25 L-2.3 13.2 Q-2.0 13.15 -1.95 13.1 -1.95 13.3 -1.95 12.9 L-1.95 12.7 -2.0 12.75 Q-2.5 12.6 -2.75 12.35 -2.95 12.1 -2.95 11.85 -2.95 11.3 -1.8 10.75 -1.05 10.4 0.6 9.95 1.3 12.1 1.45 12.1 1.7 12.1 1.8 12.0 L1.85 11.9 Q2.0 10.8 2.8 9.25 L4.25 8.8 Q6.0 8.2 6.8 7.6 L7.2 7.45 Q8.35 8.35 9.75 9.4 L10.75 10.05 Q10.55 10.35 10.15 10.65 9.5 11.15 8.8 11.3 L8.8 11.35 Q8.05 11.75 7.25 12.05 L6.15 12.45 4.25 12.95 Q2.85 13.3 1.25 13.55 L1.0 13.55 -3.9 14.15 Q-6.5 14.5 -7.55 15.0 L-7.9 15.2 Q-8.2 13.85 -8.65 10.8 L-8.55 10.85 Q-8.5 11.0 -8.3 11.15 -8.15 11.25 -7.65 11.45 -6.85 11.85 -6.7 12.4 L-6.95 12.7 Q-7.35 13.15 -7.35 13.4 -7.35 13.6 -7.3 13.65 L-7.15 13.7 Q-6.85 13.7 -6.4 13.1 -6.0 12.6 -6.0 12.45 -6.0 12.15 -6.1 11.85 -6.2 11.5 -6.45 11.15 L-6.7 10.8 Q-7.35 10.0 -8.25 9.5 -8.6 9.3 -8.9 9.15 L-8.95 9.1 -9.1 7.95 -8.6 7.95 Q-5.1 8.1 -1.75 7.3 -0.55 7.0 0.6 6.65 L0.75 6.6 M4.25 6.75 L5.0 5.5 5.5 5.95 Q4.9 6.4 4.25 6.75 M7.55 17.0 L7.45 17.1 7.85 17.3 7.6 17.65 Q6.05 19.5 5.0 20.35 L4.4 20.9 4.4 19.75 4.65 19.55 Q5.9 18.65 6.45 18.05 L7.15 17.4 7.55 17.0 M9.1 17.85 L9.95 18.1 Q9.7 19.3 8.8 21.25 L8.8 21.3 8.75 21.35 8.65 21.55 8.6 21.7 8.5 21.95 8.3 22.35 8.15 22.55 Q7.8 23.1 7.35 23.6 L6.75 24.3 Q6.15 24.85 5.4 25.35 L4.25 26.1 3.25 26.65 Q1.5 27.6 -0.3 28.0 L-1.1 27.9 Q-3.3 27.55 -3.55 27.3 -4.05 27.05 -4.5 26.55 L-5.0 25.95 -5.45 24.3 Q-4.95 24.8 -4.15 25.45 -2.3 26.9 -0.9 26.9 -0.7 26.9 0.55 25.8 1.95 24.55 2.25 24.35 L3.5 23.55 Q3.6 24.0 3.65 24.15 3.95 23.9 4.1 23.15 5.4 22.35 5.9 22.0 6.65 21.45 8.1 19.35 L9.1 17.85 M-5.75 23.25 L-6.05 22.15 -6.4 20.95 Q-5.65 21.6 -4.5 22.3 -2.25 23.65 -1.6 23.65 L0.2 22.5 2.5 21.0 2.8 20.8 3.0 20.7 3.15 21.95 1.65 23.3 Q-0.75 25.35 -1.15 25.35 -1.9 25.35 -3.65 24.25 -5.25 23.15 -5.3 23.15 L-5.75 23.25" fill="#cccccc" fill-rule="evenodd" stroke="none"/>
      <path d="M0.7 8.15 Q2.65 7.55 3.65 7.1 L4.25 6.75 Q4.9 6.4 5.5 5.95 6.35 5.3 7.0 4.4 7.9 3.15 8.5 2.0 L8.75 1.5 8.85 1.45 Q9.05 0.85 9.05 0.35 9.05 0.15 9.1 -0.05 9.95 0.9 10.8 1.75 11.05 1.7 11.1 2.05 L11.15 2.1 11.15 2.2 Q11.25 2.35 11.25 2.6 11.25 3.1 10.75 4.0 10.25 4.9 9.5 5.75 8.3 7.0 7.2 7.45 L6.8 7.6 Q6.0 8.2 4.25 8.8 L2.8 9.25 1.0 9.8 0.6 9.95 Q-1.05 10.4 -1.8 10.75 -2.95 11.3 -2.95 11.85 -2.95 12.1 -2.75 12.35 -2.5 12.6 -2.0 12.75 L-1.95 12.7 -1.95 12.9 Q-1.95 13.3 -1.95 13.1 -2.0 13.15 -2.3 13.2 L-2.85 13.25 Q-3.5 13.25 -3.9 12.6 -4.1 12.5 -4.2 12.3 -4.5 12.0 -4.5 11.7 -4.5 10.3 -3.2 9.5 -2.4 9.05 -0.1 8.4 L0.7 8.15 M-8.65 10.8 L-8.9 9.15 Q-8.6 9.3 -8.25 9.5 -7.35 10.0 -6.7 10.8 L-6.45 11.15 Q-6.2 11.5 -6.1 11.85 -6.0 12.15 -6.0 12.45 -6.0 12.6 -6.4 13.1 -6.85 13.7 -7.15 13.7 L-7.3 13.65 Q-7.35 13.6 -7.35 13.4 -7.35 13.15 -6.95 12.7 L-6.7 12.4 Q-6.85 11.85 -7.65 11.45 -8.15 11.25 -8.3 11.15 -8.5 11.0 -8.55 10.85 L-8.65 10.8 M7.85 17.3 Q9.15 15.75 9.5 15.5 9.5 15.65 9.55 16.0 L9.65 16.5 Q9.65 16.9 9.1 17.85 L8.1 19.35 Q6.65 21.45 5.9 22.0 5.4 22.35 4.1 23.15 L3.5 23.55 2.25 24.35 Q1.95 24.55 0.55 25.8 -0.7 26.9 -0.9 26.9 -2.3 26.9 -4.15 25.45 -4.95 24.8 -5.45 24.3 -5.9 23.8 -6.05 23.45 -6.0 23.35 -5.8 23.3 L-5.75 23.25 -5.3 23.15 Q-5.25 23.15 -3.65 24.25 -1.9 25.35 -1.15 25.35 -0.75 25.35 1.65 23.3 L3.15 21.95 4.4 20.9 5.0 20.35 Q6.05 19.5 7.6 17.65 L7.85 17.3" fill="#39484d" fill-rule="evenodd" stroke="none"/>
    </g>
  </defs>
</svg>
