<?xml version="1.0" encoding="UTF-8" standalone="no"?>
<svg xmlns:ffdec="https://www.free-decompiler.com/flash" xmlns:xlink="http://www.w3.org/1999/xlink" ffdec:objectType="frame" height="106.05px" width="224.35px" xmlns="http://www.w3.org/2000/svg">
  <g transform="matrix(1.0, 0.0, 0.0, 1.0, 0.7, 87.05)">
    <use ffdec:characterId="4602" height="2.5" transform="matrix(6.1256, 0.0, 0.0, 5.4143, 103.2663, -57.1913)" width="1.65" xlink:href="#shape0"/>
    <use ffdec:characterId="4599" height="1.55" transform="matrix(6.1256, 0.0, 0.0, 5.4143, 187.4932, -67.2077)" width="1.35" xlink:href="#shape1"/>
  </g>
  <defs>
    <g id="shape0" transform="matrix(1.0, 0.0, 0.0, 1.0, -16.85, 10.6)">
      <path d="M18.4 -9.3 L18.35 -9.5 Q18.15 -9.35 18.15 -9.15 L18.15 -9.1 18.35 -9.2 18.4 -9.3 M18.4 -9.2 Q18.35 -9.0 18.15 -9.0 L18.15 -8.95 17.9 -8.6 17.9 -8.65 18.0 -9.05 Q18.0 -9.15 18.05 -9.3 18.15 -9.45 18.15 -9.6 L18.05 -9.75 17.8 -10.0 Q18.05 -10.2 18.2 -9.85 L18.25 -9.8 Q18.5 -9.6 18.5 -9.4 18.5 -9.3 18.4 -9.2 M17.5 -10.0 L17.35 -10.0 Q17.3 -10.0 17.25 -9.85 L17.15 -9.7 17.2 -9.65 17.25 -9.55 17.2 -9.5 Q17.05 -9.6 16.95 -9.7 16.85 -9.85 16.85 -9.95 16.85 -10.3 17.15 -10.5 17.4 -10.7 17.4 -10.55 L17.25 -10.45 Q17.1 -10.35 17.1 -10.25 17.1 -10.15 17.2 -10.1 L17.5 -10.0 M17.1 -10.0 L17.1 -10.05 Q17.0 -10.0 17.0 -9.95 L17.0 -9.9 17.05 -9.9 17.1 -10.0 M17.85 -8.45 L17.8 -8.35 17.75 -8.35 17.75 -8.4 17.85 -8.5 17.85 -8.45 M17.65 -8.25 Q17.55 -8.1 17.45 -8.1 L17.4 -8.15 Q17.4 -8.2 17.5 -8.25 L17.65 -8.25" fill="#ffb74c" fill-rule="evenodd" stroke="none"/>
      <path d="M18.4 -9.3 L18.35 -9.2 18.15 -9.1 18.15 -9.15 Q18.15 -9.35 18.35 -9.5 L18.4 -9.3 M17.1 -10.0 L17.05 -9.9 17.0 -9.9 17.0 -9.95 Q17.0 -10.0 17.1 -10.05 L17.1 -10.0" fill="#ffdc45" fill-rule="evenodd" stroke="none"/>
    </g>
    <g id="shape1" transform="matrix(1.0, 0.0, 0.0, 1.0, -30.6, 12.45)">
      <path d="M31.95 -12.4 Q31.95 -12.35 31.9 -12.35 L31.8 -12.4 31.75 -12.45 31.95 -12.45 31.95 -12.4 M30.85 -11.65 L30.6 -11.65 30.6 -11.7 Q30.75 -11.85 30.95 -11.7 L30.95 -11.65 30.85 -11.65 M31.0 -10.9 Q30.95 -10.9 30.95 -10.95 30.95 -11.05 31.15 -11.05 31.2 -11.0 31.15 -10.9 31.2 -10.9 31.05 -10.9 L31.0 -10.9" fill="#ffb74c" fill-rule="evenodd" stroke="none"/>
    </g>
  </defs>
</svg>
