<?xml version="1.0" encoding="UTF-8" standalone="no"?>
<svg xmlns:ffdec="https://www.free-decompiler.com/flash" xmlns:xlink="http://www.w3.org/1999/xlink" ffdec:objectType="frame" height="106.05px" width="224.35px" xmlns="http://www.w3.org/2000/svg">
  <g transform="matrix(1.0, 0.0, 0.0, 1.0, 0.7, 87.05)">
    <use ffdec:characterId="4596" height="5.55" transform="matrix(6.1256, 0.0, 0.0, 5.4143, 81.5204, -55.2963)" width="4.3" xlink:href="#shape0"/>
    <use ffdec:characterId="4593" height="1.95" transform="matrix(6.1256, 0.0, 0.0, 5.4143, 167.8913, -61.5227)" width="3.75" xlink:href="#shape1"/>
    <use ffdec:characterId="4599" height="1.55" transform="matrix(7.0, 0.0, 0.0, 7.0, 214.2, -87.05)" width="1.35" xlink:href="#shape2"/>
  </g>
  <defs>
    <g id="shape0" transform="matrix(1.0, 0.0, 0.0, 1.0, -13.3, 10.25)">
      <path d="M14.9 -9.8 L15.0 -9.8 Q15.2 -9.8 15.3 -9.55 L15.25 -9.3 15.35 -9.25 Q15.45 -9.2 15.45 -9.15 15.45 -9.0 15.1 -8.85 L14.9 -8.75 14.85 -8.75 Q14.25 -9.1 13.8 -8.55 13.85 -8.55 13.95 -8.65 14.05 -8.75 14.15 -8.75 L14.55 -8.7 14.6 -8.65 Q14.65 -8.6 14.7 -8.6 15.05 -8.6 15.15 -8.25 15.2 -8.05 15.25 -7.95 L15.25 -7.9 Q15.25 -7.7 15.1 -7.55 L14.95 -7.35 Q14.95 -7.3 15.05 -7.2 L15.1 -7.05 Q15.1 -6.95 14.9 -6.7 14.75 -6.4 14.75 -6.35 L14.2 -6.05 Q13.75 -5.8 13.75 -5.7 L13.75 -5.6 13.85 -5.4 13.9 -5.4 14.4 -5.9 14.6 -6.0 14.65 -5.95 14.7 -5.95 14.95 -6.05 15.25 -6.15 Q15.5 -6.15 15.5 -6.0 L15.45 -5.75 15.55 -5.75 16.15 -6.3 Q16.35 -6.6 16.35 -6.9 16.35 -7.2 16.15 -7.65 L16.0 -7.95 15.95 -8.15 15.95 -8.45 Q16.0 -8.55 16.15 -8.6 L16.3 -8.75 16.15 -8.85 Q16.05 -8.9 16.05 -8.95 L16.05 -9.15 16.15 -9.4 Q16.25 -9.55 16.6 -9.65 L16.9 -9.7 Q16.9 -9.9 15.85 -10.05 14.75 -10.2 14.75 -9.85 L14.75 -9.8 14.85 -9.75 Q14.9 -9.75 14.9 -9.8 M15.0 -9.3 Q15.0 -9.35 14.9 -9.5 14.75 -9.65 14.65 -9.65 14.4 -9.65 14.25 -9.55 L14.05 -9.45 14.0 -9.45 14.0 -9.5 Q14.0 -9.7 14.55 -10.0 15.25 -10.4 16.1 -10.2 16.6 -10.2 17.1 -9.9 17.6 -9.6 17.6 -9.4 17.6 -9.3 17.5 -9.3 L17.4 -9.35 Q17.35 -9.45 17.0 -9.45 16.6 -9.45 16.45 -9.25 16.35 -9.15 16.35 -9.05 16.35 -9.0 16.45 -8.75 L16.6 -8.55 Q16.6 -8.45 16.5 -8.4 L16.35 -8.45 Q16.3 -8.45 16.25 -8.3 L16.2 -8.2 Q16.2 -8.05 16.35 -7.85 16.5 -7.65 16.55 -7.5 L16.55 -6.8 Q16.55 -6.6 16.45 -6.35 16.4 -6.1 16.0 -5.8 15.6 -5.5 15.4 -5.5 L15.25 -5.7 Q15.15 -5.9 15.05 -5.9 15.0 -5.9 14.75 -5.8 14.5 -5.65 14.45 -5.6 L14.4 -5.4 Q14.35 -5.25 14.3 -5.25 L14.2 -5.25 14.15 -5.3 Q14.05 -5.3 13.85 -5.15 L13.7 -5.0 13.35 -4.7 13.3 -4.75 13.5 -4.9 13.45 -4.95 13.55 -5.25 Q13.55 -5.45 13.4 -5.65 L13.3 -5.7 Q13.6 -5.9 13.7 -6.05 L14.05 -6.2 Q14.7 -6.6 14.7 -7.05 L14.65 -7.3 14.85 -7.8 Q14.85 -8.0 14.75 -8.2 14.55 -8.45 14.2 -8.45 13.8 -8.45 13.8 -8.2 13.75 -7.95 13.7 -7.95 13.6 -7.95 13.55 -8.15 L13.5 -8.4 Q13.5 -8.5 13.7 -8.75 13.95 -9.1 14.25 -9.1 L14.55 -9.0 14.65 -9.0 Q14.9 -9.0 14.95 -9.15 L15.0 -9.3 M14.45 -8.15 Q14.65 -8.1 14.65 -8.0 L14.6 -7.8 Q14.55 -7.85 14.55 -8.0 14.55 -8.1 14.35 -8.1 L14.15 -7.95 Q14.05 -7.95 14.05 -8.0 L14.05 -8.05 Q14.05 -8.1 14.15 -8.15 L14.3 -8.2 14.45 -8.15 M13.85 -7.65 L13.95 -7.6 14.15 -7.55 14.25 -7.6 14.35 -7.6 14.3 -7.5 Q14.25 -7.45 14.15 -7.45 L13.85 -7.65" fill="#ffb74c" fill-rule="evenodd" stroke="none"/>
      <path d="M16.15 -9.85 L15.8 -10.0 Q15.55 -10.05 15.4 -9.8 15.75 -9.7 15.75 -9.5 L15.75 -9.15 Q15.6 -9.05 15.6 -8.85 L15.65 -8.8 15.45 -8.7 Q15.3 -8.65 15.3 -8.6 L15.45 -8.35 Q15.55 -8.15 15.55 -8.05 L15.35 -7.35 Q15.35 -7.25 15.45 -7.2 15.55 -7.15 15.55 -7.05 15.55 -6.95 15.4 -6.75 L15.3 -6.55 15.3 -6.5 15.35 -6.5 Q15.45 -6.55 15.55 -6.6 L15.65 -6.55 15.8 -6.5 Q15.9 -6.5 16.0 -6.85 16.0 -7.1 15.8 -7.65 15.6 -8.15 15.6 -8.45 L15.75 -8.55 Q15.85 -8.6 15.85 -8.65 15.85 -8.75 15.75 -8.8 L15.8 -9.15 Q15.9 -9.2 15.9 -9.3 L15.9 -9.5 Q15.9 -9.55 16.0 -9.7 L16.15 -9.85 M14.9 -9.8 Q14.9 -9.75 14.85 -9.75 L14.75 -9.8 14.75 -9.85 Q14.75 -10.2 15.85 -10.05 16.9 -9.9 16.9 -9.7 L16.6 -9.65 Q16.25 -9.55 16.15 -9.4 L16.05 -9.15 16.05 -8.95 Q16.05 -8.9 16.15 -8.85 L16.3 -8.75 16.15 -8.6 Q16.0 -8.55 15.95 -8.45 L15.95 -8.15 16.0 -7.95 16.15 -7.65 Q16.35 -7.2 16.35 -6.9 16.35 -6.6 16.15 -6.3 L15.55 -5.75 15.45 -5.75 15.5 -6.0 Q15.5 -6.15 15.25 -6.15 L14.95 -6.05 14.7 -5.95 14.65 -5.95 14.6 -6.0 14.4 -5.9 13.9 -5.4 13.85 -5.4 13.75 -5.6 13.75 -5.7 Q13.75 -5.8 14.2 -6.05 L14.75 -6.35 Q14.75 -6.4 14.9 -6.7 15.1 -6.95 15.1 -7.05 L15.05 -7.2 Q14.95 -7.3 14.95 -7.35 L15.1 -7.55 Q15.25 -7.7 15.25 -7.9 L15.25 -7.95 Q15.2 -8.05 15.15 -8.25 15.05 -8.6 14.7 -8.6 14.65 -8.6 14.6 -8.65 L14.55 -8.7 14.15 -8.75 Q14.05 -8.75 13.95 -8.65 13.85 -8.55 13.8 -8.55 14.25 -9.1 14.85 -8.75 L14.9 -8.75 15.1 -8.85 Q15.45 -9.0 15.45 -9.15 15.45 -9.2 15.35 -9.25 L15.25 -9.3 15.3 -9.55 Q15.2 -9.8 15.0 -9.8 L14.9 -9.8" fill="#ffdc45" fill-rule="evenodd" stroke="none"/>
      <path d="M16.15 -9.85 L16.0 -9.7 Q15.9 -9.55 15.9 -9.5 L15.9 -9.3 Q15.9 -9.2 15.8 -9.15 L15.75 -8.8 Q15.85 -8.75 15.85 -8.65 15.85 -8.6 15.75 -8.55 L15.6 -8.45 Q15.6 -8.15 15.8 -7.65 16.0 -7.1 16.0 -6.85 15.9 -6.5 15.8 -6.5 L15.65 -6.55 15.55 -6.6 Q15.45 -6.55 15.35 -6.5 L15.3 -6.5 15.3 -6.55 15.4 -6.75 Q15.55 -6.95 15.55 -7.05 15.55 -7.15 15.45 -7.2 15.35 -7.25 15.35 -7.35 L15.55 -8.05 Q15.55 -8.15 15.45 -8.35 L15.3 -8.6 Q15.3 -8.65 15.45 -8.7 L15.65 -8.8 15.6 -8.85 Q15.6 -9.05 15.75 -9.15 L15.75 -9.5 Q15.75 -9.7 15.4 -9.8 15.55 -10.05 15.8 -10.0 L16.15 -9.85 M15.75 -7.15 L15.7 -7.15 15.65 -7.0 Q15.6 -6.9 15.6 -6.85 L15.7 -6.75 15.8 -6.8 15.8 -6.9 15.75 -7.15 M15.55 -7.35 L15.7 -7.2 15.75 -7.25 15.75 -7.4 Q15.7 -7.5 15.65 -7.5 15.55 -7.5 15.55 -7.35" fill="#ffff66" fill-rule="evenodd" stroke="none"/>
      <path d="M15.55 -7.35 Q15.55 -7.5 15.65 -7.5 15.7 -7.5 15.75 -7.4 L15.75 -7.25 15.7 -7.2 15.55 -7.35 M15.75 -7.15 L15.8 -6.9 15.8 -6.8 15.7 -6.75 15.6 -6.85 Q15.6 -6.9 15.65 -7.0 L15.7 -7.15 15.75 -7.15" fill="#ffffff" fill-rule="evenodd" stroke="none"/>
    </g>
    <g id="shape1" transform="matrix(1.0, 0.0, 0.0, 1.0, -27.4, 11.4)">
      <path d="M30.35 -11.35 L30.85 -11.4 30.9 -11.3 30.85 -11.2 Q30.8 -11.15 30.8 -11.1 30.8 -11.05 30.95 -10.95 L31.05 -10.8 31.0 -10.7 Q31.15 -10.5 31.15 -10.3 L31.05 -10.05 Q31.0 -9.85 30.9 -9.8 L30.75 -9.85 30.85 -10.0 30.9 -10.15 Q30.9 -10.65 30.2 -10.95 L29.3 -11.3 29.65 -11.4 29.8 -11.3 30.2 -11.3 30.35 -11.35 M28.1 -10.75 L28.05 -10.8 27.85 -10.75 Q27.7 -10.7 27.7 -10.65 27.7 -10.55 27.75 -10.55 L27.75 -10.5 Q27.9 -10.5 28.0 -10.6 L28.1 -10.75 M28.6 -11.0 L28.5 -10.95 Q28.5 -10.85 28.15 -10.6 L28.0 -10.45 27.95 -10.3 27.95 -10.1 28.15 -10.0 Q28.3 -9.9 28.45 -9.9 28.45 -9.95 28.5 -10.05 28.55 -10.2 28.75 -10.2 28.85 -10.2 28.95 -10.15 L29.0 -10.05 29.25 -10.1 29.25 -10.2 Q29.25 -10.3 29.1 -10.4 29.0 -10.5 28.95 -10.5 28.85 -10.5 28.85 -10.55 L28.8 -10.55 28.8 -10.7 29.05 -10.75 Q29.4 -10.75 29.5 -10.45 L29.5 -9.9 Q29.4 -9.6 29.1 -9.6 L29.0 -9.6 Q28.75 -9.45 28.55 -9.45 27.7 -9.45 27.55 -9.95 27.45 -10.05 27.45 -10.2 27.4 -10.35 27.4 -10.5 27.4 -10.9 28.0 -11.2 28.4 -11.4 28.55 -11.3 L28.65 -11.3 Q29.0 -11.45 29.0 -11.2 29.0 -11.1 28.7 -11.05 L28.6 -11.0 M28.95 -9.75 L28.95 -9.85 28.75 -9.9 Q28.65 -9.85 28.65 -9.8 L28.65 -9.7 28.7 -9.65 28.8 -9.65 Q28.95 -9.65 28.95 -9.7 L28.95 -9.75" fill="#ffb74c" fill-rule="evenodd" stroke="none"/>
      <path d="M28.1 -10.75 L28.0 -10.6 Q27.9 -10.5 27.75 -10.5 L27.75 -10.55 Q27.7 -10.55 27.7 -10.65 27.7 -10.7 27.85 -10.75 L28.05 -10.8 28.1 -10.75 M28.95 -9.75 L28.95 -9.7 Q28.95 -9.65 28.8 -9.65 L28.7 -9.65 28.65 -9.7 28.65 -9.8 Q28.65 -9.85 28.75 -9.9 L28.95 -9.85 28.95 -9.75" fill="#ffdc45" fill-rule="evenodd" stroke="none"/>
    </g>
    <g id="shape2" transform="matrix(1.0, 0.0, 0.0, 1.0, -30.6, 12.45)">
      <path d="M31.95 -12.4 Q31.95 -12.35 31.9 -12.35 L31.8 -12.4 31.75 -12.45 31.95 -12.45 31.95 -12.4 M30.85 -11.65 L30.6 -11.65 30.6 -11.7 Q30.75 -11.85 30.95 -11.7 L30.95 -11.65 30.85 -11.65 M31.0 -10.9 Q30.95 -10.9 30.95 -10.95 30.95 -11.05 31.15 -11.05 31.2 -11.0 31.15 -10.9 31.2 -10.9 31.05 -10.9 L31.0 -10.9" fill="#ffb74c" fill-rule="evenodd" stroke="none"/>
    </g>
  </defs>
</svg>
