<?xml version="1.0" encoding="UTF-8" standalone="no"?>
<svg xmlns:ffdec="https://www.free-decompiler.com/flash" xmlns:xlink="http://www.w3.org/1999/xlink" ffdec:objectType="frame" height="377.3px" width="354.9px" xmlns="http://www.w3.org/2000/svg">
  <g transform="matrix(1.0, 0.0, 0.0, 1.0, 188.3, 368.9)">
    <use ffdec:characterId="1523" height="29.45" transform="matrix(7.0, 0.0, 0.0, 7.0, -182.0, -213.85)" width="42.75" xlink:href="#shape0"/>
  </g>
  <defs>
    <g id="shape0" transform="matrix(1.0, 0.0, 0.0, 1.0, 26.0, 30.55)">
      <path d="M0.65 -10.9 Q1.0 -10.65 1.85 -10.05 L2.0 -9.95 Q2.0 -9.85 2.0 -9.75 L2.0 -9.8 1.9 -9.65 1.75 -9.55 Q1.45 -9.5 1.05 -9.55 L1.0 -9.55 0.15 -9.7 -0.05 -9.8 Q-0.3 -10.05 -0.55 -10.45 -0.7 -10.6 -1.0 -10.6 -1.1 -10.6 -1.2 -10.7 -1.25 -10.75 -1.25 -10.9 -1.25 -11.95 -1.1 -12.55 L-1.05 -12.65 -0.95 -12.7 -0.55 -12.8 Q-0.1 -12.8 0.15 -12.4 L0.2 -12.3 Q0.25 -12.2 0.15 -12.05 L-0.05 -11.9 Q0.0 -11.45 0.65 -10.9 M0.65 -8.9 L0.95 -8.1 Q1.05 -7.9 1.55 -7.35 2.25 -6.7 2.35 -6.45 2.35 -6.35 2.35 -6.25 2.25 -6.1 2.1 -5.95 2.05 -5.9 1.95 -5.9 L1.8 -5.95 Q1.75 -6.0 0.85 -6.75 0.35 -7.25 0.0 -7.3 -0.05 -7.3 -0.15 -7.35 -0.25 -7.45 -0.55 -8.15 -0.75 -8.5 -0.8 -8.55 -1.0 -8.6 -1.05 -8.65 -1.25 -8.75 -1.25 -8.95 L-1.25 -9.0 -1.2 -9.25 Q-1.25 -9.5 -0.75 -9.85 -0.65 -9.95 -0.55 -9.9 L-0.25 -9.9 -0.15 -9.85 Q0.35 -9.55 0.65 -8.95 L0.65 -8.9 M3.7 -7.1 Q4.1 -7.2 4.4 -7.0 L4.4 -6.95 Q4.55 -6.85 4.75 -6.55 L4.75 -6.5 5.0 -6.15 5.0 -6.1 Q5.25 -5.65 5.6 -5.45 6.15 -5.05 7.15 -4.9 L7.3 -4.8 7.4 -4.65 Q7.4 -4.6 7.4 -4.5 L7.35 -4.35 7.25 -4.2 Q7.15 -4.15 7.05 -4.15 L5.95 -4.05 5.9 -4.05 Q4.8 -3.75 4.3 -4.4 4.05 -4.7 3.8 -5.55 L3.55 -5.6 Q3.45 -5.65 3.4 -5.7 L3.2 -6.0 Q3.1 -6.15 3.1 -6.45 3.05 -6.95 3.65 -7.1 L3.7 -7.1 M9.85 -3.95 Q9.95 -4.2 10.15 -4.45 L10.45 -4.8 Q10.5 -4.9 10.6 -4.95 11.25 -5.1 11.45 -5.05 11.75 -5.0 11.95 -4.65 L11.95 -4.6 12.1 -4.6 13.15 -4.7 13.1 -4.7 13.9 -5.0 14.1 -4.95 14.25 -4.8 Q14.3 -4.7 14.25 -4.6 14.2 -4.5 14.1 -4.45 12.85 -3.75 11.9 -3.3 L11.75 -3.3 Q11.4 -3.3 11.15 -3.4 L11.0 -3.45 10.8 -3.45 Q10.55 -3.4 10.1 -3.45 10.0 -3.45 9.95 -3.5 9.85 -3.55 9.85 -3.65 L9.8 -3.8 Q9.8 -3.9 9.85 -3.95 M13.45 -7.7 L13.55 -7.7 Q13.8 -7.65 14.05 -7.7 L14.45 -7.75 Q14.6 -7.75 14.65 -7.65 14.7 -7.55 14.7 -7.45 14.7 -7.0 14.15 -6.65 L14.1 -6.65 Q13.65 -6.45 13.55 -6.4 13.45 -6.35 13.35 -6.35 L13.1 -6.35 Q13.0 -6.4 12.95 -6.45 12.85 -6.55 12.85 -6.65 12.85 -6.75 12.85 -6.95 12.8 -7.1 13.05 -7.35 L13.3 -7.65 13.45 -7.7 M15.65 -4.15 L16.35 -4.15 16.4 -4.2 Q16.6 -4.2 16.7 -4.05 16.75 -3.95 16.75 -3.75 16.75 -3.35 16.55 -3.25 L16.5 -3.2 16.3 -3.15 16.25 -3.15 15.95 -3.1 15.75 -2.85 15.7 -2.85 Q15.5 -2.55 15.35 -2.6 L15.3 -2.55 14.8 -2.6 14.65 -2.65 Q14.4 -2.8 14.3 -2.85 14.2 -2.9 14.05 -3.15 14.0 -3.25 14.0 -3.35 14.05 -3.5 14.1 -3.55 14.25 -3.65 15.55 -4.15 L15.65 -4.15 M-16.8 -28.75 L-16.75 -28.75 -16.7 -29.0 -16.7 -29.05 Q-16.55 -29.8 -14.9 -30.25 -14.05 -30.45 -13.15 -30.55 L-13.1 -30.5 -12.75 -30.45 -12.7 -30.45 Q-12.5 -30.35 -12.45 -30.2 -10.1 -29.95 -9.45 -29.8 L-9.3 -29.8 Q-9.1 -29.85 -9.05 -29.6 -9.05 -29.55 -9.05 -29.45 L-9.05 -29.3 -9.1 -29.25 -9.15 -29.0 -9.2 -29.0 -9.3 -28.9 Q-9.4 -28.85 -9.5 -28.9 L-9.55 -28.9 Q-12.9 -29.5 -14.7 -28.65 -15.3 -28.4 -15.95 -27.9 -16.75 -27.25 -17.05 -27.1 L-17.0 -27.1 -17.25 -27.05 Q-17.35 -27.1 -17.4 -27.15 -17.45 -27.25 -17.45 -27.35 L-17.4 -27.45 Q-17.55 -27.5 -17.55 -27.6 L-17.55 -27.65 Q-17.6 -27.75 -17.55 -27.85 -17.5 -27.95 -17.4 -28.0 -17.1 -28.1 -16.7 -28.45 L-16.75 -28.55 -16.8 -28.75 M-6.5 -28.55 L-6.55 -28.55 -6.55 -28.6 Q-6.7 -28.6 -6.7 -29.0 -6.7 -29.65 -6.25 -29.85 -5.9 -30.0 -5.35 -29.75 -4.3 -29.25 -3.85 -28.05 -3.85 -27.95 -3.85 -27.85 -3.9 -27.75 -3.95 -27.65 L-3.95 -27.7 -3.65 -27.7 -3.55 -27.65 -3.35 -27.5 Q-3.25 -27.35 -3.25 -27.05 L-3.25 -26.8 -3.3 -26.7 Q-3.4 -26.55 -3.5 -26.55 -3.6 -26.55 -3.65 -26.5 L-3.8 -26.55 -3.95 -26.65 -4.2 -27.1 -4.2 -27.3 -4.15 -27.45 -4.15 -27.5 -4.3 -27.55 Q-4.7 -27.65 -4.9 -27.9 L-5.1 -28.2 Q-5.4 -28.45 -6.4 -28.5 L-6.5 -28.55 M-24.15 -20.25 Q-23.6 -20.95 -23.6 -21.55 -23.6 -21.8 -22.1 -23.2 L-20.45 -24.65 Q-20.0 -25.1 -19.25 -25.2 -18.1 -25.45 -17.45 -25.65 -17.2 -25.75 -16.75 -25.95 L-16.7 -25.95 -16.7 -26.0 -16.35 -26.2 -16.3 -26.2 Q-15.7 -26.65 -15.6 -26.9 -15.2 -28.0 -14.05 -28.1 L-14.0 -28.1 Q-12.9 -28.1 -12.45 -28.25 L-12.3 -28.25 -12.0 -28.2 -11.95 -28.25 Q-11.85 -28.25 -11.75 -28.25 L-11.15 -28.1 Q-11.05 -28.1 -11.0 -28.05 -10.9 -27.95 -10.9 -27.85 -10.9 -27.75 -10.95 -27.65 -11.05 -27.6 -11.1 -27.55 -11.95 -27.35 -12.5 -27.05 L-12.55 -27.05 -13.3 -26.6 Q-13.75 -26.3 -14.2 -26.15 L-14.35 -26.15 -14.5 -26.2 -14.7 -26.1 Q-14.8 -25.9 -15.1 -25.75 -15.2 -25.65 -15.2 -25.6 L-15.25 -25.2 -15.3 -25.2 Q-15.35 -24.85 -15.6 -24.65 L-16.35 -24.05 -16.4 -24.05 Q-16.75 -23.8 -17.35 -23.6 L-17.5 -23.6 -17.65 -23.7 -17.7 -23.75 Q-18.5 -23.65 -19.0 -23.45 L-19.1 -23.4 -19.7 -22.65 Q-20.25 -21.95 -20.3 -21.6 L-20.15 -21.3 -20.15 -21.25 Q-19.95 -20.85 -19.95 -20.65 -19.95 -20.05 -20.25 -19.4 -20.45 -18.85 -20.85 -18.2 -20.9 -18.15 -21.0 -18.1 L-20.95 -18.1 Q-21.05 -18.05 -21.1 -18.05 -21.25 -18.05 -21.35 -18.15 -22.0 -16.8 -22.0 -16.1 -21.85 -15.2 -21.85 -14.3 -21.35 -13.05 -20.9 -12.25 -20.65 -11.75 -19.9 -11.0 -19.3 -10.4 -18.75 -9.95 L-18.7 -9.95 -18.35 -9.75 -18.35 -9.7 -18.25 -9.6 -18.25 -9.55 -17.8 -9.15 -17.5 -8.85 Q-17.4 -8.75 -17.4 -8.65 -17.4 -8.55 -17.45 -8.45 -17.55 -8.35 -17.65 -8.35 -17.75 -8.35 -17.85 -8.4 L-18.85 -9.15 -19.05 -9.2 Q-19.0 -8.75 -18.25 -8.0 -17.35 -7.15 -16.6 -7.15 L-16.2 -7.15 -16.1 -7.35 -16.05 -7.4 -16.0 -7.4 Q-16.6 -7.6 -17.2 -8.0 -17.3 -8.05 -17.35 -8.15 -17.4 -8.25 -17.35 -8.35 L-17.3 -8.35 -17.15 -8.5 -16.95 -8.5 Q-16.65 -8.35 -16.2 -8.25 -16.15 -8.3 -16.05 -8.35 L-15.85 -8.3 -15.45 -8.05 -14.75 -7.95 -14.4 -8.0 -13.85 -8.05 Q-12.5 -8.05 -12.15 -7.4 -12.0 -7.2 -11.95 -6.85 L-11.9 -6.6 -11.6 -5.95 -11.6 -5.9 Q-11.4 -5.5 -11.35 -5.25 L-11.15 -5.25 -10.95 -5.15 Q-10.65 -4.75 -10.6 -4.6 -10.5 -4.4 -10.5 -4.05 -10.5 -3.65 -10.55 -3.55 -10.65 -3.3 -11.0 -3.05 L-11.1 -3.0 -11.4 -2.9 -11.4 -2.8 Q-11.35 -2.5 -11.85 -2.2 L-12.4 -1.85 -12.55 -1.55 -12.6 -1.5 Q-12.95 -1.1 -13.5 -1.1 L-14.05 -1.15 Q-14.1 -1.15 -14.15 -1.2 L-14.55 -1.5 -14.85 -1.55 -15.05 -1.6 -15.55 -1.5 -15.6 -1.5 -16.45 -1.45 Q-18.75 -1.4 -21.3 -3.8 -22.25 -4.65 -23.0 -5.65 -23.65 -6.45 -23.95 -7.0 -24.85 -8.9 -25.15 -10.9 -25.3 -11.2 -25.35 -11.6 L-25.6 -12.55 Q-25.8 -13.1 -25.9 -13.7 L-25.95 -13.7 Q-26.0 -14.15 -26.0 -15.4 -26.0 -16.7 -25.95 -16.9 -25.9 -17.05 -25.2 -18.65 -25.0 -19.15 -24.15 -20.25 M-2.15 -25.85 L-2.1 -25.8 Q-1.75 -25.6 -1.6 -25.05 L-1.55 -24.7 -1.5 -24.65 Q-1.45 -24.5 -1.4 -24.4 L-1.4 -24.05 Q-1.4 -23.65 -1.5 -23.35 L-1.55 -23.25 -1.55 -22.8 -1.65 -22.65 Q-1.75 -22.5 -1.95 -22.5 L-2.15 -22.5 Q-2.2 -22.55 -2.25 -22.65 -2.35 -22.85 -2.5 -23.8 -2.6 -24.3 -2.75 -24.6 L-2.9 -24.9 Q-3.15 -25.4 -3.0 -25.75 L-2.95 -25.85 -2.8 -25.95 -2.5 -25.9 -2.15 -25.85 M-3.15 -23.75 Q-2.55 -23.25 -2.25 -22.65 -2.0 -22.0 -2.15 -21.45 -2.3 -20.85 -2.2 -20.4 -2.0 -19.85 -2.05 -19.65 -2.0 -19.3 -2.25 -18.75 -2.45 -18.3 -2.5 -18.05 -2.5 -17.75 -2.55 -17.25 L-2.65 -16.65 -2.4 -16.8 Q-2.1 -17.0 -1.75 -16.75 -1.35 -16.5 -1.3 -15.9 -1.3 -15.8 -1.55 -15.45 L-1.65 -15.3 -1.5 -15.2 Q-1.35 -15.1 -1.45 -14.95 L-1.45 -14.9 Q-1.45 -14.65 -1.9 -14.55 -2.3 -14.05 -2.4 -13.6 -2.5 -13.3 -2.5 -12.55 -2.5 -11.9 -2.15 -10.95 -2.15 -10.85 -2.15 -10.75 -2.2 -10.65 -2.25 -10.6 L-2.35 -10.55 Q-2.45 -10.5 -2.55 -10.5 -2.65 -10.55 -2.75 -10.6 -4.3 -12.6 -4.3 -14.1 -4.3 -14.8 -4.15 -15.25 -3.9 -15.9 -3.4 -15.9 -3.35 -16.15 -3.2 -16.15 L-3.15 -16.2 -2.9 -16.25 -3.05 -16.25 Q-3.15 -16.25 -3.2 -16.3 L-3.25 -16.3 Q-3.3 -16.4 -3.3 -16.5 L-3.4 -17.3 -3.45 -18.25 Q-3.45 -18.95 -3.6 -19.25 -3.8 -19.75 -3.8 -19.9 -3.8 -20.2 -3.6 -20.7 -3.45 -21.05 -3.45 -21.35 -3.45 -21.65 -3.6 -22.1 -3.8 -22.65 -3.75 -22.8 -3.75 -23.3 -3.55 -23.65 L-3.45 -23.75 -3.3 -23.8 Q-3.2 -23.8 -3.15 -23.75 M-5.7 -23.55 L-6.2 -24.1 Q-6.65 -24.4 -7.65 -24.55 L-7.85 -24.65 -8.15 -25.15 Q-9.0 -25.3 -9.2 -25.5 -9.45 -25.65 -9.45 -26.1 L-9.4 -26.3 Q-9.55 -26.4 -9.6 -26.55 -9.7 -26.7 -9.6 -26.85 L-9.9 -27.0 -9.95 -27.0 -10.15 -27.05 -10.25 -27.1 -10.3 -27.1 -10.45 -27.2 -10.55 -27.2 -10.7 -27.35 -10.7 -27.3 Q-10.75 -27.4 -10.75 -27.5 L-10.7 -27.65 -10.65 -27.65 -10.5 -27.75 -9.7 -27.75 Q-7.95 -27.6 -7.3 -27.05 L-7.3 -27.0 Q-6.7 -26.3 -6.0 -25.9 L-5.85 -25.75 Q-5.8 -25.65 -5.85 -25.55 -5.9 -25.4 -5.95 -25.3 L-5.85 -25.15 -5.8 -25.15 Q-4.5 -23.8 -4.3 -22.8 -4.25 -22.7 -4.35 -22.6 L-4.4 -22.5 Q-4.45 -22.45 -4.5 -22.4 L-4.7 -22.4 Q-5.2 -22.45 -5.4 -22.95 -5.6 -23.45 -5.7 -23.55" fill="#cdffb4" fill-opacity="0.5019608" fill-rule="evenodd" stroke="none"/>
      <path d="M1.7 -9.85 Q1.45 -9.8 1.1 -9.85 L0.15 -10.0 Q-0.1 -10.25 -0.35 -10.6 -0.55 -10.85 -0.95 -10.9 -0.95 -11.9 -0.85 -12.45 L-0.55 -12.5 Q-0.25 -12.5 -0.1 -12.25 L-0.2 -12.15 Q-0.3 -12.1 -0.3 -11.95 -0.3 -11.35 0.45 -10.7 0.8 -10.4 1.7 -9.85 M0.7 -7.95 Q0.75 -7.75 1.35 -7.15 2.0 -6.55 2.05 -6.35 2.05 -6.25 1.95 -6.2 L1.05 -7.0 Q0.45 -7.55 0.05 -7.55 0.0 -7.65 -0.3 -8.25 -0.6 -8.85 -0.8 -8.85 -0.95 -8.85 -0.95 -8.95 L-0.9 -9.25 Q-0.9 -9.4 -0.55 -9.65 L-0.3 -9.6 Q0.15 -9.35 0.4 -8.8 L0.7 -7.95 M4.75 -5.95 Q5.05 -5.45 5.45 -5.2 6.05 -4.8 7.1 -4.6 L7.05 -4.45 5.85 -4.3 Q4.95 -4.1 4.5 -4.55 4.25 -4.85 4.05 -5.8 L3.6 -5.9 3.45 -6.1 Q3.35 -6.25 3.35 -6.45 3.35 -6.75 3.7 -6.8 4.05 -6.9 4.25 -6.75 4.35 -6.65 4.5 -6.4 L4.75 -5.95 M10.1 -3.85 Q10.2 -4.05 10.4 -4.3 L10.7 -4.65 Q11.2 -4.8 11.4 -4.75 11.6 -4.7 11.7 -4.45 L11.8 -4.4 Q11.95 -4.3 12.1 -4.3 12.95 -4.3 13.25 -4.45 L13.95 -4.7 Q12.7 -4.0 11.75 -3.55 11.45 -3.6 11.25 -3.65 L11.1 -3.75 10.75 -3.7 Q10.5 -3.7 10.1 -3.7 L10.1 -3.85 M13.5 -7.45 Q13.8 -7.4 14.05 -7.4 L14.45 -7.45 Q14.4 -7.15 14.0 -6.9 L13.35 -6.65 13.15 -6.65 13.15 -6.75 13.1 -6.95 Q13.1 -7.0 13.25 -7.15 L13.5 -7.45 M16.45 -3.75 Q16.45 -3.55 16.4 -3.5 L16.25 -3.45 15.8 -3.35 15.3 -2.85 14.8 -2.9 14.5 -3.05 Q14.4 -3.15 14.3 -3.3 14.45 -3.4 15.65 -3.9 L16.4 -3.9 Q16.4 -3.85 16.45 -3.9 L16.45 -3.75 M-16.45 -28.6 L-16.5 -28.7 -16.45 -28.95 Q-16.25 -29.6 -14.85 -29.95 -14.0 -30.15 -13.15 -30.25 L-12.8 -30.2 Q-12.7 -30.15 -12.7 -30.05 -12.7 -30.0 -12.75 -29.95 -9.9 -29.65 -9.35 -29.5 L-9.35 -29.55 Q-9.3 -29.55 -9.35 -29.35 L-9.4 -29.15 -9.45 -29.2 Q-12.95 -29.8 -14.85 -28.95 -15.45 -28.65 -16.15 -28.1 -16.9 -27.45 -17.15 -27.35 L-17.1 -27.45 -17.0 -27.55 -17.3 -27.7 Q-16.85 -27.9 -16.2 -28.5 L-16.45 -28.6 M-6.15 -29.55 Q-5.85 -29.65 -5.45 -29.5 -4.5 -29.05 -4.15 -27.95 L-4.25 -27.8 Q-4.5 -27.9 -4.65 -28.05 L-4.9 -28.35 Q-5.25 -28.75 -6.35 -28.8 L-6.4 -28.85 -6.45 -29.0 Q-6.45 -29.45 -6.15 -29.55 M-25.65 -16.8 L-24.95 -18.55 Q-24.75 -19.0 -23.9 -20.1 -23.3 -20.9 -23.3 -21.55 -23.3 -21.7 -21.9 -22.95 L-20.25 -24.45 Q-19.85 -24.8 -19.2 -24.95 -18.0 -25.15 -17.35 -25.35 -17.1 -25.45 -16.6 -25.7 L-16.2 -25.95 -16.15 -26.0 Q-15.4 -26.5 -15.3 -26.8 -15.0 -27.75 -14.0 -27.85 -12.85 -27.8 -12.35 -27.95 L-12.0 -27.9 -11.85 -27.95 -11.2 -27.85 Q-12.05 -27.6 -12.65 -27.3 L-13.45 -26.85 Q-13.9 -26.55 -14.3 -26.45 L-14.55 -26.5 -14.95 -26.3 Q-15.0 -26.1 -15.2 -26.0 -15.45 -25.85 -15.5 -25.65 L-15.55 -25.25 Q-15.6 -25.05 -15.8 -24.9 L-16.55 -24.3 Q-16.9 -24.05 -17.45 -23.85 L-17.45 -24.05 Q-18.5 -24.0 -19.15 -23.7 L-19.3 -23.6 -19.95 -22.8 Q-20.55 -22.0 -20.55 -21.6 L-20.4 -21.2 Q-20.25 -20.85 -20.25 -20.65 -20.25 -20.1 -20.5 -19.5 -20.7 -19.0 -21.1 -18.35 -21.15 -18.35 -21.2 -18.4 L-21.25 -18.5 -21.5 -18.5 Q-22.3 -16.85 -22.3 -16.05 -22.15 -15.15 -22.15 -14.25 -21.65 -12.95 -21.15 -12.1 -20.9 -11.6 -20.1 -10.8 -19.5 -10.2 -18.9 -9.7 L-18.85 -9.7 -18.5 -9.5 -18.55 -9.45 -18.0 -8.95 -17.7 -8.65 Q-18.2 -9.0 -18.75 -9.45 L-19.25 -9.5 -19.3 -9.45 -19.35 -9.2 Q-19.35 -8.65 -18.45 -7.8 -17.45 -6.85 -16.6 -6.85 L-16.0 -6.9 -15.9 -7.15 -15.55 -7.35 -15.75 -7.65 Q-16.4 -7.85 -17.05 -8.25 -16.65 -8.05 -16.0 -7.9 L-16.05 -7.95 -16.0 -8.05 -15.55 -7.8 -14.75 -7.65 -14.35 -7.75 -13.85 -7.75 Q-12.7 -7.75 -12.4 -7.25 -12.3 -7.05 -12.25 -6.8 L-12.15 -6.45 -11.85 -5.8 Q-11.6 -5.2 -11.6 -5.05 L-11.55 -5.0 -11.15 -4.95 -10.85 -4.5 Q-10.75 -4.35 -10.75 -4.05 -10.75 -3.75 -10.8 -3.65 -10.85 -3.45 -11.15 -3.3 L-11.5 -3.2 -11.55 -3.15 -11.85 -3.1 -11.7 -3.05 Q-11.7 -3.0 -11.7 -2.8 -11.7 -2.65 -12.0 -2.45 -12.45 -2.15 -12.6 -2.05 L-12.8 -1.7 Q-13.05 -1.4 -13.5 -1.4 L-14.0 -1.45 -14.45 -1.75 -14.75 -1.85 -15.1 -1.9 -15.65 -1.8 -16.45 -1.7 Q-18.65 -1.7 -21.1 -4.0 -22.0 -4.85 -22.8 -5.8 -23.45 -6.65 -23.7 -7.15 -24.6 -9.0 -24.85 -10.95 -25.0 -11.25 -25.1 -11.65 L-25.3 -12.65 Q-25.55 -13.2 -25.65 -13.75 -25.7 -14.2 -25.7 -15.4 -25.7 -16.6 -25.65 -16.8 M-1.9 -25.0 L-1.8 -24.55 -1.75 -24.55 -1.7 -24.35 -1.7 -24.05 Q-1.7 -23.7 -1.75 -23.45 L-1.85 -23.4 -1.85 -22.85 Q-1.9 -22.8 -2.0 -22.75 -2.1 -22.95 -2.25 -23.85 -2.35 -24.4 -2.5 -24.7 L-2.65 -25.0 Q-2.85 -25.4 -2.75 -25.65 L-2.55 -25.65 -2.25 -25.55 Q-2.0 -25.4 -1.9 -25.0 M-3.9 -27.25 L-3.9 -27.4 -3.7 -27.45 -3.6 -27.3 Q-3.5 -27.2 -3.5 -27.05 -3.5 -26.85 -3.55 -26.85 L-3.55 -26.9 -3.6 -26.85 Q-3.65 -26.8 -3.7 -26.8 L-3.9 -27.25 M-5.5 -23.75 L-6.0 -24.3 Q-6.5 -24.65 -7.6 -24.85 L-8.0 -25.45 Q-8.8 -25.55 -9.05 -25.75 -9.15 -25.8 -9.15 -26.1 -9.15 -26.25 -9.05 -26.35 L-9.0 -26.35 Q-9.55 -26.65 -9.2 -26.85 -9.3 -27.05 -9.8 -27.25 L-10.05 -27.35 -10.2 -27.4 Q-10.3 -27.4 -10.3 -27.45 L-10.45 -27.5 -9.75 -27.45 Q-8.1 -27.3 -7.5 -26.8 -6.9 -26.05 -6.1 -25.65 -6.15 -25.5 -6.25 -25.45 L-6.25 -25.35 -6.35 -25.25 -6.0 -24.95 Q-4.75 -23.65 -4.55 -22.75 L-4.65 -22.65 Q-5.0 -22.7 -5.15 -23.1 -5.4 -23.65 -5.5 -23.75 M-3.3 -23.5 Q-2.8 -23.1 -2.55 -22.55 -2.3 -22.0 -2.45 -21.5 -2.6 -20.85 -2.45 -20.3 -2.3 -19.8 -2.3 -19.65 -2.3 -19.35 -2.55 -18.85 -2.75 -18.35 -2.75 -18.05 L-2.85 -17.3 -2.95 -16.5 -3.05 -16.5 -3.1 -17.35 -3.15 -18.25 Q-3.15 -19.0 -3.35 -19.4 -3.5 -19.75 -3.5 -19.9 -3.5 -20.15 -3.35 -20.6 -3.15 -21.0 -3.15 -21.35 -3.15 -21.65 -3.35 -22.2 -3.5 -22.7 -3.5 -22.8 -3.5 -23.25 -3.3 -23.5 M-6.25 -24.75 L-6.4 -24.85 -6.3 -24.75 -6.25 -24.75 M-3.3 -15.65 Q-3.15 -15.65 -3.15 -15.75 -3.15 -15.9 -3.1 -15.9 L-2.75 -15.95 Q-2.3 -16.8 -1.9 -16.55 -1.6 -16.3 -1.6 -15.9 -1.6 -15.85 -1.75 -15.6 -1.95 -15.35 -1.95 -15.25 -1.95 -15.1 -1.85 -15.05 L-1.7 -15.0 Q-1.75 -14.85 -2.1 -14.8 -2.55 -14.2 -2.7 -13.7 -2.75 -13.35 -2.75 -12.55 -2.75 -11.9 -2.45 -10.85 L-2.5 -10.8 Q-4.0 -12.65 -4.0 -14.1 -4.0 -14.75 -3.85 -15.15 -3.7 -15.65 -3.3 -15.65" fill="#ffffff" fill-rule="evenodd" stroke="none"/>
      <path d="M-15.8 -28.75 L-15.85 -28.75 -15.95 -28.8 Q-16.05 -29.55 -15.35 -29.15 L-15.05 -29.25 Q-15.1 -29.15 -15.3 -29.0 L-15.65 -28.85 -15.8 -28.75 M-23.3 -19.45 Q-22.8 -19.8 -22.45 -20.5 -22.1 -21.15 -22.1 -21.6 L-22.15 -21.75 Q-22.15 -21.8 -22.35 -21.85 -22.15 -22.25 -20.75 -23.1 -21.4 -22.45 -21.6 -22.1 -21.75 -21.85 -21.75 -21.35 -21.75 -20.75 -21.7 -20.6 -21.6 -20.1 -21.2 -20.0 L-21.2 -19.85 Q-21.2 -19.7 -21.4 -19.45 L-21.8 -19.0 -21.9 -19.05 -22.15 -19.05 Q-22.35 -19.05 -22.8 -18.4 -23.15 -17.85 -23.25 -17.55 -23.6 -16.6 -23.7 -16.0 L-23.7 -15.95 Q-23.85 -16.15 -23.9 -16.6 L-23.9 -17.25 Q-23.9 -17.65 -23.65 -18.55 -23.4 -19.35 -23.3 -19.45 M-24.6 -16.2 Q-24.6 -15.75 -24.2 -15.0 L-23.45 -13.75 Q-23.0 -13.05 -22.55 -12.5 L-22.25 -12.15 -21.95 -11.85 -21.6 -11.45 Q-21.65 -11.45 -21.65 -11.3 -21.65 -11.1 -21.0 -10.7 -20.4 -10.25 -20.4 -10.1 L-20.4 -10.0 -21.0 -10.0 Q-21.25 -10.2 -21.85 -10.55 L-22.75 -11.0 Q-22.65 -10.8 -22.65 -10.5 L-22.6 -10.5 -22.5 -10.55 Q-22.4 -10.55 -22.2 -10.3 L-21.8 -9.8 Q-21.1 -9.0 -20.35 -8.85 -19.95 -8.75 -19.8 -8.65 L-19.85 -8.15 Q-19.85 -7.95 -19.65 -7.55 -19.35 -7.1 -18.95 -6.7 -17.65 -5.55 -15.8 -5.55 -15.45 -5.55 -15.25 -5.85 L-15.15 -5.85 -15.2 -5.9 Q-15.1 -6.15 -15.1 -6.4 L-14.9 -6.5 Q-14.65 -6.65 -14.3 -6.65 -14.2 -6.6 -13.05 -5.75 L-12.75 -5.55 Q-12.5 -5.15 -12.5 -4.75 -12.5 -4.65 -12.45 -4.6 L-12.4 -4.5 -12.05 -4.45 -12.0 -4.4 -12.0 -4.25 Q-12.0 -4.1 -12.1 -3.9 L-12.25 -3.55 Q-12.4 -3.6 -12.7 -3.8 -13.05 -4.05 -13.25 -4.15 L-13.4 -4.1 -13.15 -3.8 Q-13.0 -3.6 -12.95 -3.45 L-12.95 -3.35 -13.15 -3.3 Q-13.45 -3.2 -13.4 -3.05 -13.3 -2.9 -13.3 -2.8 -13.3 -2.7 -13.5 -2.6 -13.75 -2.5 -14.0 -2.5 L-14.6 -2.55 Q-15.45 -2.6 -16.0 -2.95 L-16.7 -3.45 -16.75 -3.45 -16.35 -2.95 Q-16.4 -2.8 -16.55 -2.85 L-16.5 -2.7 -16.55 -2.6 Q-17.65 -2.85 -18.4 -3.3 -18.8 -3.55 -19.2 -3.9 L-19.5 -4.1 -20.1 -4.45 Q-20.35 -4.6 -20.55 -4.85 L-20.85 -5.2 -21.65 -6.05 Q-22.1 -6.5 -22.3 -6.85 -22.95 -7.8 -23.25 -8.4 -23.7 -9.3 -23.7 -10.0 -23.7 -10.3 -23.6 -10.65 -23.5 -10.95 -23.5 -11.2 L-23.95 -12.05 Q-24.45 -12.95 -24.6 -13.3 L-24.75 -14.3 Q-24.9 -15.2 -24.9 -15.45 L-24.85 -15.8 -24.8 -16.25 -24.75 -16.25 -24.7 -16.25 -24.7 -16.2 -24.65 -16.3 -24.6 -16.8 -24.55 -16.8 -24.55 -16.5 -24.6 -16.2 M-8.0 -26.6 Q-7.85 -26.5 -7.75 -26.4 L-7.7 -26.15 -7.7 -25.8 -7.4 -25.5 Q-7.55 -25.5 -7.8 -25.7 -8.05 -25.9 -8.45 -26.0 L-8.4 -26.15 Q-8.35 -26.25 -8.35 -26.35 -8.35 -26.4 -8.5 -26.5 L-8.65 -26.65 -8.65 -26.8 -8.55 -26.75 -8.55 -26.8 -8.4 -26.6 -8.35 -26.65 -8.2 -26.7 Q-8.1 -26.7 -8.0 -26.6 M-7.95 -26.0 L-7.85 -25.9 -7.9 -26.0 -7.95 -26.0 M-3.35 -15.0 Q-3.2 -15.3 -2.55 -15.45 L-2.5 -15.45 -2.5 -15.35 Q-2.5 -15.2 -2.75 -15.0 -3.1 -14.75 -3.2 -14.6 -3.25 -14.5 -3.3 -14.3 L-3.35 -13.95 -3.4 -13.95 -3.45 -14.3 Q-3.45 -14.85 -3.35 -15.0 M-2.35 -15.4 L-2.5 -15.45 -2.5 -15.75 -2.4 -15.8 -2.2 -15.75 -2.1 -15.65 -2.2 -15.45 -2.35 -15.4 M-13.8 -27.05 L-14.0 -26.95 -14.4 -26.85 -14.45 -26.95 -14.5 -26.95 -14.5 -27.0 -14.6 -27.0 -14.65 -27.1 Q-14.65 -27.4 -14.5 -27.4 -14.4 -27.35 -14.35 -27.3 L-14.3 -27.35 Q-14.05 -27.45 -13.85 -27.4 L-14.2 -27.15 -14.0 -27.15 Q-13.8 -27.15 -13.8 -27.05 M-16.2 -25.1 Q-16.35 -24.75 -16.5 -24.65 -16.85 -24.4 -18.0 -24.45 L-18.35 -24.35 -18.7 -24.3 -18.85 -24.3 Q-18.95 -24.35 -19.0 -24.4 -18.85 -24.55 -18.5 -24.65 L-18.45 -24.7 -18.15 -24.65 -17.45 -24.65 Q-17.2 -24.65 -16.8 -24.85 L-16.2 -25.1 M-18.5 -24.5 L-18.5 -24.5" fill="#cdffb4" fill-rule="evenodd" stroke="none"/>
    </g>
  </defs>
</svg>
