<?xml version="1.0" encoding="UTF-8" standalone="no"?>
<svg xmlns:ffdec="https://www.free-decompiler.com/flash" xmlns:xlink="http://www.w3.org/1999/xlink" ffdec:objectType="frame" height="377.3px" width="354.9px" xmlns="http://www.w3.org/2000/svg">
  <g transform="matrix(1.0, 0.0, 0.0, 1.0, 188.3, 368.9)">
    <use ffdec:characterId="1517" height="21.7" transform="matrix(7.0, 0.0, 0.0, 7.0, -148.4, -265.65)" width="17.5" xlink:href="#shape0"/>
  </g>
  <defs>
    <g id="shape0" transform="matrix(1.0, 0.0, 0.0, 1.0, 21.2, 37.95)">
      <path d="M-11.9 -33.8 L-11.7 -33.7 -11.6 -33.6 Q-11.5 -33.4 -11.25 -33.15 L-10.45 -33.15 -10.0 -33.25 -9.8 -33.35 Q-9.2 -33.8 -9.2 -34.25 -9.2 -34.8 -9.5 -35.3 L-9.55 -35.35 Q-9.8 -35.75 -10.15 -35.65 L-10.35 -35.65 Q-10.45 -35.65 -10.5 -35.7 -10.6 -35.75 -10.6 -36.0 -10.7 -36.1 -10.7 -36.4 -10.7 -37.25 -9.4 -37.7 -8.2 -38.1 -6.3 -37.85 L-6.3 -37.8 Q-6.2 -37.8 -6.15 -37.75 L-5.5 -37.15 Q-5.1 -36.8 -4.75 -36.35 -4.7 -36.3 -4.7 -36.15 -4.7 -36.05 -4.75 -35.95 L-4.75 -36.0 -4.9 -35.85 Q-4.95 -35.8 -5.0 -35.8 L-5.15 -35.75 -5.35 -35.8 -5.3 -35.8 Q-5.4 -35.8 -5.45 -35.85 L-5.7 -36.1 -6.25 -36.1 -6.45 -35.95 -7.15 -35.5 Q-7.2 -35.45 -7.55 -34.45 -7.5 -33.95 -6.95 -33.3 L-6.95 -33.25 -6.25 -32.6 -6.0 -32.35 Q-5.35 -32.35 -4.95 -31.55 L-4.95 -31.5 Q-4.6 -30.85 -4.6 -30.1 -4.6 -29.1 -5.7 -28.05 -7.0 -26.75 -8.95 -26.75 -9.85 -26.75 -10.65 -27.0 -13.15 -27.35 -13.5 -28.3 -13.7 -28.85 -13.4 -30.0 L-13.65 -30.25 -13.65 -30.3 -14.0 -30.6 -14.35 -30.55 -14.75 -30.15 -14.75 -30.1 -14.9 -30.05 -15.05 -30.05 Q-15.1 -30.05 -15.15 -30.1 L-15.15 -30.15 Q-15.55 -30.5 -15.55 -31.3 -15.55 -32.05 -15.15 -32.7 L-15.2 -32.7 -15.25 -32.75 -15.45 -32.8 -15.5 -32.8 Q-15.95 -32.95 -15.9 -33.25 -15.9 -33.35 -15.8 -33.4 -15.7 -33.5 -15.6 -33.5 L-14.95 -33.5 -14.5 -33.45 Q-14.2 -33.7 -13.8 -33.75 -13.75 -33.9 -13.6 -33.95 -13.55 -34.0 -13.45 -33.95 -13.35 -33.95 -13.25 -33.85 L-11.95 -33.8 -11.9 -33.8 M-15.0 -32.85 L-15.0 -32.95 -15.05 -32.85 -15.0 -32.85 M-5.0 -35.65 L-4.85 -35.7 -4.5 -35.7 Q-4.45 -35.7 -4.35 -35.6 L-4.3 -35.5 Q-4.25 -35.35 -4.25 -35.05 -4.25 -34.95 -4.3 -34.9 L-4.45 -34.8 -4.6 -34.75 Q-4.7 -34.7 -4.8 -34.75 -4.85 -34.75 -4.95 -34.85 -5.0 -34.9 -5.0 -35.0 -5.0 -35.1 -5.05 -35.15 -5.15 -35.25 -5.15 -35.35 L-5.15 -35.3 -5.1 -35.5 -5.0 -35.65 M-9.45 -20.75 L-9.5 -20.5 Q-9.5 -20.4 -9.6 -20.35 L-9.7 -20.3 Q-9.6 -20.2 -9.6 -20.15 L-9.45 -19.5 Q-9.35 -19.05 -9.35 -18.8 -9.35 -17.9 -9.65 -17.4 L-9.8 -17.3 Q-9.9 -17.25 -10.0 -17.3 L-10.15 -17.4 Q-10.2 -17.5 -10.2 -17.6 -10.15 -17.95 -10.25 -18.65 L-10.3 -19.65 -10.25 -20.1 Q-10.25 -20.2 -10.15 -20.3 L-10.2 -20.35 Q-10.35 -20.5 -10.35 -20.85 L-10.3 -21.05 -10.3 -21.0 -10.2 -21.15 Q-9.7 -21.35 -9.5 -20.9 -9.45 -20.85 -9.45 -20.75 M-3.85 -20.25 Q-3.75 -20.1 -3.75 -20.0 -3.7 -19.9 -3.7 -19.55 -3.7 -19.2 -3.75 -19.05 -3.75 -18.95 -3.8 -18.9 L-3.85 -18.9 Q-3.9 -18.85 -4.0 -18.8 L-4.2 -18.8 -4.35 -18.85 -4.45 -18.9 -4.5 -19.0 Q-4.6 -19.1 -4.6 -19.2 L-4.6 -20.05 Q-4.6 -20.15 -4.5 -20.25 -4.45 -20.35 -4.3 -20.35 L-3.95 -20.35 -3.85 -20.25 M-14.9 -21.7 Q-14.6 -22.25 -14.35 -22.4 L-14.2 -22.45 -14.0 -22.35 Q-13.95 -22.3 -13.9 -22.25 -13.9 -22.15 -13.9 -22.05 -14.1 -21.55 -14.25 -21.3 -14.3 -21.2 -14.35 -21.15 L-14.5 -21.1 -14.5 -21.05 Q-14.5 -20.95 -14.55 -20.9 L-14.7 -20.4 -14.75 -20.25 -14.85 -20.2 -15.0 -20.15 -14.9 -20.0 Q-14.85 -19.95 -14.85 -19.85 -15.2 -18.45 -15.5 -16.5 -15.55 -16.4 -15.6 -16.35 -15.7 -16.25 -15.8 -16.25 L-15.9 -16.25 Q-16.05 -16.25 -16.1 -16.35 -16.2 -16.4 -16.2 -16.5 L-16.3 -17.35 Q-16.3 -18.0 -15.95 -19.0 -15.6 -20.0 -15.3 -20.15 L-15.35 -20.2 Q-15.4 -20.25 -15.4 -20.35 L-15.45 -20.65 -15.45 -20.7 Q-15.4 -20.9 -15.25 -21.15 -15.1 -21.35 -14.95 -21.45 L-14.95 -21.5 Q-14.95 -21.6 -14.9 -21.7 M-19.1 -25.2 Q-19.05 -25.1 -19.05 -25.0 -19.0 -24.6 -19.45 -24.2 -19.5 -24.1 -19.65 -24.1 L-19.7 -24.1 -19.65 -24.05 Q-19.65 -23.6 -19.75 -23.45 L-19.85 -23.3 Q-19.9 -23.25 -20.0 -23.25 L-20.1 -23.25 -20.15 -23.15 -20.25 -22.75 -20.25 -22.7 Q-20.35 -22.45 -20.6 -22.25 -20.65 -22.2 -20.75 -22.2 L-20.9 -22.2 Q-21.0 -22.2 -21.05 -22.25 -21.15 -22.3 -21.15 -22.4 L-21.2 -22.6 Q-21.2 -22.7 -21.2 -22.75 L-20.95 -23.15 -20.95 -23.2 Q-20.75 -23.55 -20.6 -23.6 L-20.65 -24.0 Q-20.65 -24.1 -20.55 -24.2 -20.5 -24.3 -20.4 -24.3 L-20.05 -24.3 -20.05 -24.35 -20.1 -24.5 Q-20.1 -24.65 -20.05 -24.7 -19.7 -25.3 -19.3 -25.3 -19.2 -25.25 -19.1 -25.2" fill="#cdffb4" fill-opacity="0.5019608" fill-rule="evenodd" stroke="none"/>
      <path d="M-13.35 -33.5 Q-12.75 -33.65 -12.0 -33.5 L-11.85 -33.45 Q-11.75 -33.2 -11.35 -32.9 L-10.7 -32.85 -10.4 -32.85 Q-10.15 -32.9 -9.9 -32.95 L-9.65 -33.15 Q-8.9 -33.7 -8.9 -34.25 -8.9 -34.9 -9.25 -35.45 -9.7 -36.1 -10.25 -35.95 -10.3 -35.95 -10.35 -35.95 L-10.35 -36.15 -10.4 -36.4 Q-10.4 -37.05 -9.3 -37.4 -8.15 -37.8 -6.35 -37.55 L-5.7 -36.95 -4.95 -36.2 -5.1 -36.05 -5.3 -36.1 -5.6 -36.35 -6.25 -36.35 -6.35 -36.4 Q-6.45 -36.3 -6.6 -36.2 L-7.35 -35.7 Q-7.45 -35.6 -7.85 -34.5 -7.85 -33.85 -7.15 -33.05 L-6.45 -32.35 -6.1 -32.1 Q-5.55 -32.1 -5.2 -31.4 -4.9 -30.8 -4.9 -30.1 -4.9 -29.2 -5.9 -28.25 -7.15 -27.05 -8.95 -27.05 -9.85 -27.05 -10.6 -27.25 -12.9 -27.6 -13.2 -28.4 -13.4 -28.9 -13.1 -30.0 -13.1 -30.2 -13.45 -30.5 L-13.85 -30.9 -14.5 -30.85 -14.95 -30.35 Q-15.3 -30.65 -15.3 -31.3 -15.3 -32.0 -14.9 -32.65 -14.75 -32.85 -14.6 -32.95 L-15.2 -33.0 -15.4 -33.05 Q-15.6 -33.15 -15.6 -33.2 L-14.95 -33.2 -14.45 -33.15 Q-14.05 -33.45 -13.5 -33.5 -13.5 -33.85 -13.45 -33.55 L-13.35 -33.5 M-4.55 -35.4 L-4.55 -35.05 -4.7 -35.0 Q-4.7 -35.2 -4.85 -35.4 L-4.75 -35.45 -4.55 -35.4 M-9.75 -20.8 L-9.8 -20.55 -10.0 -20.55 Q-10.05 -20.65 -10.05 -20.85 -9.85 -20.95 -9.75 -20.8 M-10.0 -20.05 L-9.85 -20.05 -9.7 -19.45 Q-9.6 -19.05 -9.6 -18.8 -9.6 -18.0 -9.9 -17.55 -9.9 -17.95 -9.95 -18.7 L-10.0 -19.65 -10.0 -20.05 M-4.0 -19.1 L-4.2 -19.1 -4.3 -19.2 -4.3 -20.05 -4.1 -20.05 Q-4.05 -20.0 -4.0 -19.95 -4.0 -19.85 -4.0 -19.55 -4.0 -19.25 -4.0 -19.1 M-14.2 -22.15 Q-14.35 -21.65 -14.5 -21.4 L-14.65 -21.35 -14.65 -21.55 Q-14.4 -22.0 -14.2 -22.15 M-20.35 -24.0 L-19.95 -24.05 Q-19.95 -23.7 -20.0 -23.55 L-20.3 -23.5 Q-20.35 -23.65 -20.35 -24.0 M-20.5 -22.8 Q-20.6 -22.6 -20.75 -22.5 L-20.9 -22.5 -20.9 -22.65 -20.7 -23.05 -20.45 -23.4 -20.4 -23.2 -20.5 -22.8 M-19.8 -24.6 Q-19.55 -25.0 -19.3 -25.0 -19.3 -24.7 -19.65 -24.4 L-19.75 -24.4 -19.8 -24.6 M-15.15 -19.9 Q-15.45 -18.5 -15.8 -16.55 L-15.9 -16.55 -16.0 -17.35 Q-16.0 -17.95 -15.7 -18.95 -15.35 -19.9 -15.15 -19.9 M-14.8 -21.0 L-14.95 -20.45 -15.1 -20.4 -15.15 -20.65 Q-15.15 -20.8 -15.0 -20.95 L-14.85 -21.2 -14.8 -21.0" fill="#ffffff" fill-rule="evenodd" stroke="none"/>
      <path d="M-11.7 -29.25 Q-11.55 -29.45 -11.55 -29.6 -11.55 -29.7 -11.65 -29.85 L-11.9 -30.05 -11.85 -30.1 -11.15 -29.75 Q-10.6 -29.5 -10.35 -29.45 L-9.25 -29.4 Q-8.5 -29.35 -8.3 -29.05 L-8.2 -28.85 -8.1 -28.7 -7.5 -28.7 -7.3 -28.9 Q-7.1 -29.15 -7.05 -29.3 -6.95 -29.65 -6.95 -30.05 -6.95 -30.15 -7.1 -30.4 L-7.3 -30.7 -7.4 -30.75 -7.65 -30.75 -8.2 -30.7 Q-8.2 -30.65 -8.25 -30.6 -8.4 -30.65 -8.55 -30.9 -8.7 -31.1 -8.7 -31.3 -8.7 -31.5 -8.55 -31.8 -8.4 -32.15 -8.2 -32.25 -8.05 -31.75 -7.7 -31.45 -7.15 -30.9 -6.25 -31.0 -5.9 -30.8 -5.8 -30.65 -5.8 -30.55 -5.8 -30.3 -5.8 -29.8 -6.15 -29.45 L-6.9 -28.75 Q-7.1 -28.45 -7.4 -28.2 -7.85 -27.85 -8.2 -27.85 L-9.1 -27.9 Q-10.45 -27.85 -11.25 -28.25 -11.85 -28.6 -11.85 -29.0 L-11.7 -29.25 M-9.55 -31.45 L-9.55 -31.4 -10.1 -31.1 Q-10.4 -30.95 -10.7 -30.8 L-10.8 -30.8 -10.8 -30.95 Q-10.8 -31.05 -10.65 -31.3 -10.5 -31.55 -10.45 -31.55 L-9.8 -31.55 Q-9.65 -31.55 -9.55 -31.45" fill="#cdffb4" fill-rule="evenodd" stroke="none"/>
    </g>
  </defs>
</svg>
