<?xml version="1.0" encoding="UTF-8" standalone="no"?>
<svg xmlns:ffdec="https://www.free-decompiler.com/flash" xmlns:xlink="http://www.w3.org/1999/xlink" ffdec:objectType="frame" height="390.25px" width="320.6px" xmlns="http://www.w3.org/2000/svg">
  <g transform="matrix(1.0, 0.0, 0.0, 1.0, 136.85, 254.1)">
    <use ffdec:characterId="45" height="13.9" transform="matrix(7.0, 0.0, 0.0, 7.0, -52.15, -60.9)" width="17.0" xlink:href="#shape0"/>
  </g>
  <defs>
    <g id="shape0" transform="matrix(1.0, 0.0, 0.0, 1.0, 7.45, 8.7)">
      <path d="M0.55 -7.45 L-0.3 -7.2 -1.0 -7.0 -1.15 -6.95 -1.3 -7.0 Q-1.4 -7.05 -1.45 -7.15 -1.5 -7.25 -1.45 -7.35 -1.4 -7.45 -1.3 -7.5 L-0.4 -8.1 Q0.35 -8.45 1.9 -8.65 L2.2 -8.7 2.95 -8.7 Q3.05 -8.7 3.15 -8.6 L3.35 -8.6 3.8 -8.55 Q3.9 -8.55 4.0 -8.5 4.05 -8.45 4.1 -8.35 4.1 -8.25 4.05 -8.15 L4.05 -8.1 Q4.1 -8.0 4.5 -7.7 5.0 -7.3 5.35 -7.35 L5.45 -7.35 6.1 -7.3 Q7.3 -7.1 8.15 -6.35 8.7 -5.85 9.05 -5.2 9.45 -4.35 9.55 -4.0 L9.55 -3.0 Q9.55 -2.15 9.45 -1.85 9.4 -1.5 9.1 -0.95 L8.65 -0.15 Q7.95 1.1 7.3 1.05 6.25 1.05 5.2 1.9 4.7 2.35 4.35 2.8 4.0 3.4 3.35 3.85 2.1 4.85 0.05 4.85 -1.0 4.85 -1.35 4.65 -1.6 4.5 -1.85 4.5 -2.35 4.5 -2.75 4.7 -2.7 4.75 -2.7 4.8 L-2.75 4.95 -2.85 5.05 -3.0 5.15 -3.15 5.2 -3.35 5.15 -3.45 5.1 Q-5.4 5.1 -6.55 3.55 -7.0 3.0 -7.25 2.3 -7.5 1.75 -7.45 1.4 -7.5 1.25 -7.3 0.5 -7.15 -0.35 -7.05 -0.5 -6.75 -0.95 -6.2 -1.5 -5.6 -2.05 -5.2 -2.05 -4.8 -2.3 -4.65 -2.3 -3.95 -2.3 -3.7 -2.1 -3.6 -2.05 -3.25 -2.05 -2.45 -2.05 -1.05 -3.0 -0.35 -3.5 0.3 -4.05 1.6 -5.0 1.6 -6.05 1.6 -6.4 1.4 -6.9 1.2 -7.3 1.05 -7.4 L0.55 -7.45 M-2.6 -7.1 L-1.8 -7.15 -1.6 -7.1 Q-1.5 -7.05 -1.5 -6.95 -1.45 -6.85 -1.5 -6.75 -1.55 -6.65 -1.6 -6.6 L-3.1 -5.85 -3.4 -5.6 -3.85 -5.25 -3.9 -5.15 Q-4.0 -5.05 -4.15 -5.1 -4.25 -5.05 -4.35 -5.2 L-4.4 -5.3 -4.4 -5.45 Q-4.45 -5.75 -3.95 -6.2 L-3.55 -6.6 Q-3.2 -7.0 -2.65 -7.1 L-2.6 -7.1" fill="#ffff00" fill-rule="evenodd" stroke="none"/>
      <path d="M0.55 -7.7 Q0.35 -7.7 -0.35 -7.5 L-1.1 -7.25 -1.1 -7.3 -1.2 -7.25 -0.25 -7.85 Q0.45 -8.2 1.95 -8.4 1.95 -8.45 2.95 -8.4 L3.3 -8.35 3.8 -8.3 3.8 -8.1 Q3.8 -7.9 4.35 -7.45 4.95 -7.0 5.4 -7.05 L6.05 -7.0 Q7.15 -6.85 7.95 -6.15 8.5 -5.7 8.8 -5.05 9.2 -4.3 9.25 -3.95 L9.25 -3.0 Q9.25 -2.2 9.2 -1.9 9.1 -1.6 8.8 -1.05 L8.4 -0.3 Q7.8 0.75 7.3 0.75 6.15 0.75 5.05 1.7 4.45 2.15 4.1 2.65 3.8 3.2 3.2 3.65 1.95 4.55 0.05 4.55 -0.9 4.55 -1.2 4.4 -1.55 4.25 -1.85 4.25 -2.7 4.25 -3.15 4.6 -3.1 4.6 -3.1 4.7 -3.0 4.75 -3.0 4.8 L-3.15 4.9 -3.35 4.85 -3.4 4.85 Q-5.2 4.85 -6.35 3.4 -6.75 2.85 -7.0 2.2 -7.2 1.7 -7.2 1.4 -7.2 1.25 -7.05 0.55 -6.85 -0.2 -6.8 -0.35 -6.55 -0.75 -6.0 -1.25 -5.45 -1.8 -5.15 -1.8 -4.75 -2.0 -4.65 -2.0 -4.05 -2.0 -3.9 -1.9 -3.7 -1.75 -3.25 -1.75 -2.35 -1.75 -0.9 -2.75 -0.15 -3.25 0.45 -3.8 1.9 -4.85 1.9 -6.05 1.9 -6.45 1.65 -7.0 1.35 -7.65 1.1 -7.7 L0.55 -7.7 M-2.55 -6.45 L-3.25 -6.1 -3.6 -5.85 -4.1 -5.4 -4.1 -5.45 Q-4.1 -5.65 -3.75 -6.0 L-3.35 -6.4 Q-3.05 -6.75 -2.6 -6.8 L-1.75 -6.85 -2.55 -6.45" fill="#ff9a2b" fill-rule="evenodd" stroke="none"/>
      <path d="M0.8 -2.55 L0.65 -2.1 0.45 -1.7 Q0.4 -1.7 0.15 -1.85 -0.85 -1.65 -1.4 -0.6 -1.8 0.2 -1.8 1.0 -1.8 1.65 -1.4 2.4 -0.85 3.5 0.2 3.5 L1.1 3.45 1.0 3.5 Q1.0 3.6 1.0 3.65 L1.05 3.65 1.45 3.7 Q2.4 3.35 3.05 2.95 L3.5 2.6 3.5 2.65 Q3.35 2.95 3.1 3.15 L2.6 3.45 Q1.65 4.1 -0.35 4.1 L-1.7 3.55 Q-1.95 3.5 -2.25 3.05 L-2.3 3.05 -2.75 2.5 -2.9 2.15 -2.95 2.1 Q-3.05 1.95 -3.15 1.6 L-3.25 1.35 Q-3.35 0.85 -3.35 0.55 -3.35 0.1 -3.3 -0.15 L-3.25 -0.25 -3.25 -0.4 -3.1 -0.65 -3.1 -0.7 -3.25 -0.6 -3.3 -0.65 -3.3 -0.8 Q-3.3 -0.95 -3.1 -1.3 -2.9 -1.7 -2.75 -1.7 -2.75 -1.65 -2.75 -1.55 -2.3 -1.65 -1.3 -2.25 L-0.1 -2.9 -0.1 -2.95 -0.05 -3.05 0.3 -3.05 Q0.45 -2.95 0.55 -2.9 L0.8 -2.55 M3.85 -0.6 L3.95 -0.45 3.8 -0.35 3.7 -0.45 Q3.65 -0.5 3.65 -0.65 3.65 -0.75 3.7 -0.75 L3.7 -0.8 3.85 -0.6 M4.1 1.15 L4.1 1.3 4.05 1.5 4.0 1.65 3.85 1.65 Q3.8 1.6 3.8 1.4 3.8 1.15 4.05 1.05 L4.1 1.15" fill="#ffd327" fill-rule="evenodd" stroke="none"/>
      <path d="M0.55 -2.95 Q1.5 -2.95 1.8 -2.75 L1.8 -2.7 0.55 -2.95 M2.2 -2.8 L2.55 -2.6 3.05 -2.3 3.2 -2.15 Q3.95 -1.35 4.15 -0.55 3.55 -1.8 2.2 -2.8 M4.0 -0.5 L4.0 -0.55 4.15 -0.5 Q4.3 -0.45 4.35 -0.05 4.4 0.3 4.35 0.35 4.2 0.25 4.1 -0.1 L4.0 -0.5 M3.25 3.4 L3.0 3.6 Q2.05 4.25 0.85 4.3 L0.35 4.2 -0.35 4.2 -0.1 4.25 0.75 4.4 0.75 4.45 Q0.0 4.4 -0.7 4.15 -1.15 4.1 -1.5 3.85 L-1.65 3.75 -2.0 3.6 Q-2.25 3.4 -2.3 3.15 L-2.2 3.2 -2.15 3.1 -2.0 3.1 -2.05 3.15 -1.9 3.2 -1.45 3.5 -0.95 3.75 -0.4 3.95 Q0.25 4.05 1.0 3.95 2.55 3.75 3.65 2.6 4.05 1.85 4.1 1.55 4.15 1.1 3.9 -0.35 4.75 1.1 3.75 2.75 3.5 3.1 3.25 3.4" fill="#ffffff" fill-rule="evenodd" stroke="none"/>
    </g>
  </defs>
</svg>
