<?xml version="1.0" encoding="UTF-8" standalone="no"?>
<svg xmlns:ffdec="https://www.free-decompiler.com/flash" xmlns:xlink="http://www.w3.org/1999/xlink" ffdec:objectType="frame" height="390.25px" width="320.6px" xmlns="http://www.w3.org/2000/svg">
  <g transform="matrix(1.0, 0.0, 0.0, 1.0, 136.85, 254.1)">
    <use ffdec:characterId="42" height="12.6" transform="matrix(7.0, 0.0, 0.0, 7.0, -66.85, -41.3)" width="20.5" xlink:href="#shape0"/>
  </g>
  <defs>
    <g id="shape0" transform="matrix(1.0, 0.0, 0.0, 1.0, 9.55, 5.9)">
      <path d="M3.2 -5.85 L3.5 -5.8 3.65 -5.75 Q3.95 -5.45 3.9 -5.3 L3.9 -5.2 Q3.95 -5.3 4.05 -5.3 4.55 -5.35 4.65 -5.0 L5.05 -4.95 5.05 -5.0 Q5.25 -5.2 5.55 -5.2 L5.95 -5.2 6.15 -5.1 6.5 -4.7 6.55 -4.65 Q6.7 -4.45 6.7 -4.15 6.75 -3.85 6.1 -3.15 5.7 -2.65 5.65 -2.3 5.95 -2.1 6.2 -1.45 6.35 -0.95 6.35 -0.65 6.35 -0.1 6.1 0.15 L6.1 0.2 5.6 0.7 5.6 0.85 Q5.65 0.95 6.05 1.15 6.9 1.5 6.95 1.7 L7.0 1.7 Q7.05 1.8 7.15 2.2 7.25 2.6 7.25 2.75 7.25 4.4 5.5 5.65 4.0 6.75 2.95 6.7 L2.25 6.7 1.6 6.65 1.65 6.65 1.05 6.6 1.0 6.6 0.75 6.55 0.65 6.5 Q0.25 6.3 0.25 5.75 L0.3 5.4 Q0.15 5.2 -0.05 5.1 -0.15 5.0 -0.6 4.85 L-0.9 4.85 Q-1.9 4.9 -3.15 4.2 -4.1 3.7 -4.5 3.6 -4.85 3.6 -4.85 3.45 -4.85 3.55 -4.9 3.6 -5.0 3.9 -5.25 3.8 L-5.4 3.8 Q-5.65 3.8 -5.95 3.6 L-6.15 3.55 Q-6.1 3.6 -6.05 3.8 L-6.1 3.8 Q-6.05 3.85 -6.05 3.95 L-6.05 4.0 Q-5.95 4.05 -5.95 4.15 L-5.85 4.3 Q-5.8 4.25 -5.7 4.25 L-5.5 4.25 -5.4 4.2 -5.25 4.25 Q-5.15 4.25 -5.1 4.3 -5.05 4.3 -5.0 4.4 -4.9 4.55 -5.0 4.7 L-5.0 4.75 Q-4.7 4.9 -4.4 5.05 -4.3 5.1 -4.3 5.15 -4.25 5.25 -4.25 5.35 -4.25 5.45 -4.35 5.5 L-4.35 5.55 -4.55 5.65 -4.85 5.7 Q-5.95 5.7 -6.35 5.1 -6.6 4.75 -6.55 4.4 L-6.55 4.2 -6.75 4.15 -6.85 4.0 Q-6.95 3.7 -6.7 3.55 L-6.7 3.5 Q-6.6 3.4 -6.4 3.45 -6.75 3.25 -7.0 2.85 -7.3 2.3 -7.3 1.6 -7.3 1.1 -7.25 0.8 -7.2 0.35 -7.0 0.15 -6.8 -0.25 -6.35 -0.9 -6.0 -1.3 -5.55 -1.7 -4.65 -2.45 -3.95 -2.45 L-3.55 -2.45 -3.4 -2.4 -3.3 -2.35 -3.0 -1.95 Q-2.8 -1.75 -2.7 -1.75 -1.65 -1.75 0.05 -2.25 1.2 -2.65 2.1 -3.05 2.75 -3.35 3.4 -3.9 3.9 -4.35 4.0 -4.6 3.9 -4.7 3.9 -4.8 L3.85 -4.85 Q3.8 -4.9 3.8 -5.0 L3.85 -5.1 3.8 -5.05 Q3.75 -4.95 3.55 -4.95 L3.2 -4.95 Q3.1 -5.0 3.05 -5.05 L3.0 -5.1 2.7 -5.2 Q2.6 -5.2 2.55 -5.25 2.5 -5.3 2.5 -5.4 L2.45 -5.45 Q2.45 -5.55 2.45 -5.65 2.55 -5.85 2.7 -5.9 L2.8 -5.9 3.2 -5.85 M10.75 -0.3 Q10.95 0.1 10.95 0.35 10.95 0.65 10.9 0.75 10.8 0.9 10.5 1.15 L10.35 1.2 10.25 1.2 10.2 1.15 10.05 1.05 Q10.0 1.0 10.0 0.9 L10.0 0.75 Q10.0 0.65 10.1 0.35 L10.15 0.1 9.8 -0.3 Q9.75 -0.35 9.75 -0.45 9.7 -0.55 9.75 -0.6 L9.85 -0.75 9.9 -0.8 10.05 -0.8 Q10.45 -0.95 10.75 -0.3 M9.95 2.35 L9.95 2.35 M10.0 2.4 L10.0 2.5 9.95 2.65 9.8 2.85 Q9.65 2.95 9.55 2.95 L9.35 2.95 Q9.25 2.85 9.2 2.75 L9.15 2.65 9.15 2.55 9.2 2.45 Q9.25 2.3 9.4 2.25 L9.4 2.1 Q9.4 1.5 10.15 1.5 10.35 1.7 10.35 1.8 L10.35 2.0 Q10.25 2.25 10.0 2.35 L10.0 2.4 M-8.3 0.35 Q-8.25 0.4 -8.25 0.5 -8.25 0.6 -8.3 0.7 -8.55 0.95 -8.6 1.15 -8.7 1.3 -8.7 1.6 L-8.6 1.9 -8.5 2.3 -8.25 2.3 Q-8.1 2.35 -7.95 2.65 -7.9 2.7 -7.9 2.75 L-7.95 2.9 Q-8.05 3.15 -8.2 3.15 L-8.4 3.15 Q-8.65 3.3 -8.75 2.95 L-8.8 2.85 Q-8.9 2.85 -9.0 2.75 -9.45 2.3 -9.5 2.0 -9.55 1.9 -9.55 1.4 -9.55 0.9 -9.35 0.65 L-9.05 0.4 Q-8.7 0.2 -8.5 0.25 -8.4 0.25 -8.3 0.35" fill="#ffff00" fill-rule="evenodd" stroke="none"/>
      <path d="M3.6 -5.3 L3.6 -5.25 Q3.55 -5.25 3.5 -5.2 L3.25 -5.25 3.1 -5.35 2.75 -5.45 2.75 -5.55 2.8 -5.6 3.15 -5.6 3.45 -5.55 3.6 -5.3 M4.1 -5.0 Q4.35 -5.05 4.4 -4.9 L4.4 -4.85 4.55 -4.7 Q5.1 -4.65 5.25 -4.75 5.35 -4.9 5.55 -4.9 L5.95 -4.9 6.3 -4.5 Q6.4 -4.35 6.4 -4.15 6.4 -3.9 5.9 -3.3 5.35 -2.7 5.35 -2.25 L5.35 -2.15 5.4 -2.1 Q5.7 -1.95 5.9 -1.4 6.05 -0.95 6.05 -0.65 6.05 -0.25 5.9 0.0 L5.35 0.55 5.35 0.65 5.3 0.85 Q5.3 1.1 5.95 1.4 6.65 1.7 6.75 1.85 L6.95 2.75 Q6.95 4.25 5.3 5.45 3.95 6.45 2.95 6.45 L2.25 6.4 1.05 6.3 0.8 6.25 Q0.55 6.1 0.55 5.75 0.55 5.35 0.5 5.25 0.35 4.95 0.1 4.85 L-0.6 4.55 -0.9 4.6 Q-1.85 4.6 -3.05 3.95 -4.05 3.45 -4.5 3.3 -5.15 3.3 -5.15 3.45 -5.15 3.55 -5.2 3.55 L-5.35 3.5 Q-5.6 3.5 -5.85 3.35 -6.4 3.25 -6.75 2.7 -7.05 2.2 -7.05 1.6 -7.05 1.1 -7.0 0.85 -6.9 0.45 -6.75 0.35 -6.55 -0.1 -6.1 -0.7 -5.8 -1.1 -5.35 -1.5 -4.55 -2.15 -3.95 -2.15 L-3.55 -2.15 -3.2 -1.75 Q-2.9 -1.45 -2.7 -1.45 -1.6 -1.45 0.1 -2.0 1.35 -2.35 2.2 -2.8 2.95 -3.1 3.6 -3.7 4.3 -4.3 4.3 -4.7 L4.25 -4.75 4.15 -4.9 4.15 -4.95 4.1 -5.0 M10.5 -0.15 Q10.65 0.15 10.65 0.35 L10.6 0.6 Q10.55 0.75 10.3 0.9 L10.3 0.75 Q10.3 0.7 10.35 0.45 L10.45 0.1 Q10.45 -0.1 10.0 -0.5 L10.05 -0.55 Q10.3 -0.6 10.5 -0.15 M10.05 1.95 L9.95 2.1 Q9.85 2.2 9.75 2.2 9.7 2.25 9.7 2.1 9.7 1.9 9.85 1.85 L9.9 1.85 10.05 1.8 10.05 1.95 M9.7 2.5 L9.6 2.6 9.45 2.7 9.45 2.55 9.55 2.5 Q9.6 2.45 9.7 2.45 L9.7 2.5 M-5.25 4.6 L-5.3 4.75 Q-5.3 4.9 -5.15 5.0 L-4.55 5.3 -4.55 5.35 -4.65 5.35 -4.85 5.4 Q-5.75 5.4 -6.1 4.9 -6.3 4.7 -6.3 4.4 L-6.3 4.3 -6.25 4.25 -6.2 4.25 Q-6.0 4.65 -5.95 4.7 L-5.7 4.7 -5.7 4.55 -5.45 4.5 -5.25 4.5 -5.25 4.6 M-8.35 2.55 Q-8.3 2.6 -8.2 2.75 L-8.3 2.85 -8.45 2.85 Q-8.5 2.95 -8.5 2.75 -8.5 2.65 -8.45 2.6 L-8.35 2.55 M-6.55 2.5 L-6.4 2.7 -6.65 2.3 -6.55 2.5 M-8.95 1.6 L-8.9 1.95 -8.7 2.5 -8.8 2.55 Q-9.15 2.15 -9.25 1.95 -9.25 1.85 -9.25 1.4 -9.25 1.0 -9.1 0.8 L-8.9 0.65 Q-8.7 0.5 -8.55 0.5 -8.8 0.85 -8.9 1.05 -8.95 1.25 -8.95 1.6 M-6.35 3.85 L-6.35 3.95 Q-6.45 4.0 -6.55 3.9 -6.6 3.8 -6.55 3.75 L-6.4 3.75 -6.35 3.85" fill="#ff9a2b" fill-rule="evenodd" stroke="none"/>
      <path d="M0.0 -1.15 L1.4 -1.0 2.65 -0.7 2.75 -0.65 2.85 -0.65 3.4 -0.45 3.5 -0.4 Q4.15 0.0 5.2 0.0 L5.25 0.0 Q4.95 0.25 4.95 0.45 L4.95 0.8 Q5.0 0.9 5.05 1.0 L5.05 1.6 Q5.0 2.2 4.4 2.85 L4.2 3.05 4.0 3.35 4.05 3.35 4.3 3.25 4.8 2.9 Q5.45 2.05 5.3 1.35 L5.35 1.45 Q5.45 1.55 5.55 1.6 L5.85 1.65 Q6.0 1.8 6.05 1.9 L6.05 2.45 6.0 2.6 Q5.75 2.85 5.3 3.1 4.95 3.3 4.7 3.4 4.45 3.5 4.05 3.75 L3.8 3.9 3.9 3.9 3.45 4.2 Q3.25 4.35 3.15 4.5 L2.4 4.75 2.1 4.8 2.0 4.85 1.4 4.9 1.0 4.9 Q0.55 4.55 -0.3 4.45 L-1.55 4.25 Q-2.35 4.15 -2.85 3.95 -3.45 3.7 -4.0 3.0 L-4.4 2.5 Q-4.6 2.0 -4.6 1.45 -4.6 0.65 -3.95 -0.05 -3.45 -0.55 -2.7 -0.85 L-2.65 -0.8 -1.95 -0.75 -0.55 -1.1 -0.4 -1.1 0.0 -1.15 M3.85 3.4 L3.85 3.4" fill="#ffd327" fill-rule="evenodd" stroke="none"/>
      <path d="M0.95 4.45 L1.1 4.5 0.5 4.6 -0.05 4.7 -0.45 4.7 -0.6 4.5 -0.6 4.35 -0.55 4.35 Q-0.45 4.4 -0.45 4.55 L0.3 4.5 0.85 4.45 0.95 4.45 M0.45 3.85 L0.45 3.75 Q1.15 3.8 1.95 3.45 L3.0 2.9 Q2.65 3.3 2.25 3.5 1.6 3.9 0.8 3.95 0.45 3.9 0.45 3.85 M-1.9 3.35 L-1.15 3.85 -0.85 3.85 -0.7 3.9 Q-0.55 3.9 -0.55 3.95 L-0.85 4.0 Q-1.5 4.0 -2.05 3.5 -2.35 3.3 -2.55 3.0 L-2.5 2.95 Q-2.4 3.0 -1.9 3.35" fill="#ffffff" fill-rule="evenodd" stroke="none"/>
    </g>
  </defs>
</svg>
