<?xml version="1.0" encoding="UTF-8" standalone="no"?>
<svg xmlns:ffdec="https://www.free-decompiler.com/flash" xmlns:xlink="http://www.w3.org/1999/xlink" ffdec:objectType="frame" height="159.25px" width="118.65px" xmlns="http://www.w3.org/2000/svg">
  <g transform="matrix(1.0, 0.0, 0.0, 1.0, 53.55, 159.6)">
    <use ffdec:characterId="511" height="22.75" transform="matrix(7.0, 0.0, 0.0, 7.0, -53.55, -159.6)" width="16.95" xlink:href="#shape0"/>
  </g>
  <defs>
    <g id="shape0" transform="matrix(1.0, 0.0, 0.0, 1.0, 7.65, 22.8)">
      <path d="M0.65 -22.15 Q1.25 -22.45 1.9 -22.65 L2.15 -22.7 2.2 -22.75 2.75 -22.8 3.35 -22.8 Q4.0 -22.8 4.5 -22.65 L4.9 -22.55 Q5.45 -22.4 5.75 -21.9 6.0 -21.35 6.25 -21.0 6.65 -20.55 7.3 -20.15 L7.4 -20.2 7.6 -20.25 Q8.25 -19.75 8.75 -19.25 9.3 -18.7 9.3 -18.55 9.3 -16.95 7.85 -15.45 6.5 -14.1 5.45 -14.1 4.95 -14.1 4.3 -14.8 L3.9 -15.35 Q3.7 -14.8 2.65 -14.4 L2.65 -14.35 Q2.45 -14.25 2.3 -14.2 L1.8 -14.0 1.75 -14.0 Q1.7 -13.95 1.45 -13.85 0.35 -13.4 -0.1 -13.0 -0.55 -12.6 -0.55 -11.9 -0.55 -10.7 -0.2 -9.3 L0.1 -8.25 0.2 -7.95 Q0.2 -5.7 -0.55 -3.7 -1.4 -1.3 -3.05 -0.5 -3.4 -0.3 -3.7 -0.25 L-3.75 -0.2 Q-4.35 -0.05 -5.05 -0.05 -5.75 -0.05 -6.2 -0.25 -6.45 -0.4 -6.55 -0.6 L-6.6 -0.65 Q-6.85 -0.8 -7.1 -1.0 -7.65 -1.55 -7.65 -2.4 -7.65 -2.8 -7.35 -3.5 -7.1 -4.05 -6.8 -4.15 -6.85 -3.75 -6.8 -3.4 L-6.8 -3.35 -6.85 -3.3 -6.75 -3.1 Q-6.6 -2.5 -6.2 -2.45 L-6.1 -2.45 Q-5.7 -2.45 -5.4 -2.9 -5.15 -3.3 -5.15 -3.6 L-5.15 -4.7 Q-5.25 -5.25 -5.45 -6.05 L-5.5 -6.25 -5.5 -6.35 Q-5.75 -7.2 -5.8 -8.25 L-5.85 -9.3 Q-5.85 -11.2 -4.7 -13.9 L-4.6 -14.1 Q-4.55 -14.9 -4.35 -16.05 L-4.2 -16.75 -4.05 -17.5 -4.0 -17.85 -3.75 -18.65 Q-3.55 -19.05 -3.4 -19.25 L-3.0 -19.65 Q-1.85 -21.25 0.05 -21.7 0.4 -22.0 0.65 -22.15 M1.2 -21.8 L1.25 -21.75 1.45 -21.7 1.7 -21.75 1.55 -21.7 1.75 -21.65 2.85 -21.85 3.2 -21.85 3.35 -21.8 3.55 -21.75 Q4.3 -21.5 5.05 -20.75 5.55 -20.25 5.9 -19.7 L6.1 -19.8 Q6.3 -19.9 6.55 -20.0 L6.45 -20.15 5.75 -21.05 Q5.1 -21.85 4.35 -22.15 L3.15 -22.35 2.6 -22.3 2.5 -22.25 Q1.7 -22.2 1.2 -21.8 M5.15 -19.85 Q4.85 -20.3 4.4 -20.65 3.8 -21.1 2.9 -21.4 L2.15 -21.55 Q1.05 -21.6 -0.15 -21.2 -1.75 -20.6 -2.7 -19.3 L-2.8 -19.15 Q-3.15 -18.75 -3.3 -18.25 L-3.35 -18.05 Q-3.85 -16.8 -3.85 -15.2 L-3.85 -14.95 -3.8 -14.95 -3.95 -14.7 -3.85 -14.7 -3.8 -14.95 -3.65 -15.35 -3.6 -15.5 -3.6 -15.3 -3.55 -15.15 -3.6 -15.1 -3.6 -15.05 -3.55 -14.95 -3.1 -15.75 Q-2.6 -16.55 -2.1 -17.0 -1.85 -17.2 -1.45 -17.7 -1.1 -18.15 -0.85 -18.35 0.05 -19.05 2.35 -18.95 L4.6 -19.0 4.9 -18.9 5.1 -19.1 4.55 -19.3 Q3.75 -19.6 3.45 -19.65 L2.1 -19.75 Q-1.05 -19.75 -2.7 -17.45 L-2.9 -17.1 -2.85 -17.3 -2.65 -17.55 Q-1.0 -19.9 1.8 -19.9 L3.55 -19.75 4.35 -19.65 4.95 -19.5 5.0 -19.45 Q5.2 -19.4 5.35 -19.3 L5.45 -19.4 5.15 -19.85 M1.5 -21.65 L1.35 -21.6 1.5 -21.6 1.5 -21.65 M2.35 -21.6 Q3.55 -21.4 4.5 -20.75 5.35 -20.15 5.55 -19.5 L5.7 -19.6 Q5.35 -20.1 4.75 -20.7 3.75 -21.75 3.1 -21.75 L2.35 -21.6 M5.1 -18.7 L4.95 -18.5 4.8 -18.2 4.7 -17.95 4.7 -17.9 Q4.45 -17.2 4.4 -16.6 L4.4 -16.3 Q4.4 -14.85 5.25 -14.85 6.55 -14.85 7.7 -15.95 8.75 -16.95 8.75 -17.7 8.75 -18.35 8.35 -18.95 8.0 -19.5 7.5 -19.7 L7.05 -19.7 6.95 -19.75 6.8 -19.75 Q6.0 -19.4 5.6 -19.15 L5.25 -18.85 5.25 -18.8 5.1 -18.7 M4.65 -18.55 L4.75 -18.7 4.65 -18.7 4.6 -18.75 2.35 -18.8 1.85 -18.85 1.7 -18.85 1.25 -18.9 1.2 -18.9 Q-0.7 -18.9 -2.25 -16.6 L-2.7 -15.85 -3.15 -15.25 Q-3.45 -14.8 -3.7 -14.4 -3.7 -14.55 -3.6 -14.7 L-3.65 -14.65 -3.7 -14.35 -3.9 -14.0 -4.15 -13.6 Q-4.85 -12.25 -5.05 -11.7 -5.45 -10.5 -5.45 -8.85 L-5.4 -8.25 -5.3 -7.6 -5.25 -7.35 -5.1 -6.25 -4.95 -5.3 -4.8 -4.4 Q-4.8 -4.15 -4.85 -3.95 -4.85 -3.45 -5.0 -3.0 -5.35 -1.95 -6.2 -1.9 L-6.55 -1.9 Q-6.75 -2.0 -6.9 -2.2 -7.05 -2.45 -7.05 -2.7 L-7.05 -2.85 -7.1 -2.9 -7.15 -2.8 -7.2 -2.8 -7.2 -2.55 -7.15 -2.55 Q-7.15 -2.1 -7.05 -1.85 L-6.9 -1.65 Q-6.85 -1.6 -6.75 -1.5 L-6.7 -1.5 -6.6 -1.35 Q-6.45 -1.2 -6.2 -1.15 L-6.05 -1.15 -5.8 -1.0 Q-4.7 -1.0 -4.15 -1.5 -4.7 -0.75 -5.35 -0.75 L-6.05 -0.8 -6.1 -0.8 Q-5.7 -0.45 -5.35 -0.45 -3.8 -0.45 -3.05 -1.55 L-2.95 -1.75 -2.85 -2.3 Q-2.6 -2.75 -2.45 -3.2 -2.25 -3.65 -2.15 -4.2 -2.05 -4.7 -2.0 -5.2 -1.95 -5.65 -1.95 -6.15 L-2.0 -8.35 Q-2.05 -8.45 -2.05 -8.6 L-2.05 -9.45 -1.95 -8.25 -1.95 -8.0 -1.85 -7.45 Q-1.8 -7.05 -1.7 -6.8 L-1.7 -5.95 Q-1.75 -4.6 -2.25 -3.0 L-2.35 -2.7 -2.45 -2.4 Q-2.6 -1.95 -3.1 -1.25 L-3.3 -1.0 -2.9 -1.15 Q-1.95 -1.9 -1.25 -3.75 -0.45 -5.95 -0.45 -7.75 L-0.45 -8.25 Q-0.55 -8.85 -0.8 -9.95 -1.05 -11.15 -1.15 -11.65 L-1.15 -11.95 Q-1.15 -12.55 -0.65 -14.0 L-0.55 -14.3 Q0.2 -15.3 1.15 -16.0 2.3 -16.75 3.4 -16.85 3.8 -16.9 4.0 -16.85 L4.15 -17.3 4.25 -17.5 2.95 -17.6 Q1.05 -17.6 -0.25 -15.95 -0.8 -15.45 -1.2 -14.65 -1.85 -13.45 -1.85 -12.4 L-1.85 -12.35 -1.95 -11.7 -1.95 -11.5 -2.0 -10.75 -2.05 -9.95 -2.05 -9.8 -2.05 -9.75 -2.1 -11.8 -2.1 -12.35 Q-2.25 -12.05 -2.45 -11.75 L-3.3 -10.5 -3.55 -10.1 -3.6 -10.0 Q-3.9 -9.35 -4.05 -8.25 L-4.15 -7.0 Q-4.1 -6.25 -3.8 -4.85 L-3.5 -3.5 -3.45 -3.45 -3.45 -3.15 -3.4 -2.65 -3.65 -1.95 Q-3.7 -1.85 -3.85 -1.6 L-4.05 -1.4 -3.85 -1.85 Q-3.65 -2.25 -3.65 -2.9 -3.65 -3.15 -3.75 -3.4 L-4.05 -4.75 -4.1 -5.15 -4.15 -5.15 -4.3 -5.75 -4.5 -6.75 Q-4.65 -7.7 -4.65 -8.25 L-4.65 -8.35 Q-4.65 -9.4 -4.25 -10.8 -3.75 -12.4 -2.95 -13.85 -0.8 -17.5 2.45 -18.25 L4.55 -18.25 4.6 -18.3 4.65 -18.55 M-3.45 -10.5 L-3.15 -10.95 Q-2.6 -11.6 -2.15 -13.0 L-1.95 -13.45 -1.9 -13.55 Q-1.65 -14.5 -1.0 -15.45 0.7 -17.9 4.25 -17.9 L4.35 -17.8 4.5 -18.15 Q2.45 -18.25 0.75 -17.4 -1.2 -16.45 -2.6 -14.15 -3.55 -12.65 -4.1 -10.75 -4.55 -9.3 -4.55 -8.35 L-4.55 -8.25 Q-4.5 -7.7 -4.35 -6.75 L-4.3 -6.6 Q-4.25 -6.95 -4.25 -7.35 L-4.2 -8.1 -4.15 -8.25 -4.0 -8.9 Q-3.8 -9.85 -3.45 -10.5 M3.25 -16.3 L3.0 -16.4 Q1.3 -16.2 0.1 -14.9 -0.35 -14.4 -0.65 -13.85 L-0.7 -13.45 Q-0.45 -13.6 -0.05 -13.7 1.05 -14.1 1.55 -14.3 2.65 -14.8 3.8 -15.7 L3.85 -16.05 3.25 -16.3" fill="#111111" fill-rule="evenodd" stroke="none"/>
      <path d="M1.2 -21.8 Q1.7 -22.2 2.5 -22.25 L2.6 -22.3 3.15 -22.35 4.35 -22.15 Q5.1 -21.85 5.75 -21.05 L6.45 -20.15 6.55 -20.0 Q6.3 -19.9 6.1 -19.8 L5.9 -19.7 Q5.55 -20.25 5.05 -20.75 4.3 -21.5 3.55 -21.75 L3.35 -21.8 3.2 -21.85 2.85 -21.85 1.75 -21.65 1.55 -21.7 1.7 -21.75 1.45 -21.7 1.25 -21.75 1.2 -21.8 M-3.6 -15.5 L-3.65 -15.35 -3.8 -14.95 -3.85 -14.7 -3.95 -14.7 -3.8 -14.95 -3.85 -14.95 -3.85 -15.2 Q-3.85 -16.8 -3.35 -18.05 L-3.3 -18.25 Q-3.15 -18.75 -2.8 -19.15 L-2.7 -19.3 Q-1.75 -20.6 -0.15 -21.2 1.05 -21.6 2.15 -21.55 L2.9 -21.4 Q3.8 -21.1 4.4 -20.65 4.85 -20.3 5.15 -19.85 4.35 -20.5 2.85 -20.85 1.4 -20.95 -0.5 -20.25 -2.4 -19.55 -2.4 -18.95 L-2.35 -18.8 -2.35 -18.85 Q-1.65 -19.65 -1.0 -19.9 -0.05 -20.35 1.65 -20.35 3.25 -20.35 4.3 -19.65 L4.35 -19.65 3.55 -19.75 1.8 -19.9 Q-1.0 -19.9 -2.65 -17.55 L-2.85 -17.3 -2.9 -17.1 -3.25 -16.35 -3.6 -15.5 M1.5 -21.65 L1.5 -21.6 1.35 -21.6 1.5 -21.65 M1.85 -18.85 L1.9 -18.85 Q1.0 -18.6 0.4 -18.3 -0.8 -17.65 -1.75 -16.55 -2.15 -16.1 -3.1 -14.7 -3.95 -13.5 -4.6 -11.15 -5.1 -9.5 -5.25 -8.25 L-5.3 -7.6 -5.4 -8.25 -5.45 -8.85 Q-5.45 -10.5 -5.05 -11.7 -4.85 -12.25 -4.15 -13.6 L-3.9 -14.0 -3.7 -14.35 -3.65 -14.65 -3.6 -14.7 Q-3.7 -14.55 -3.7 -14.4 -3.45 -14.8 -3.15 -15.25 L-2.7 -15.85 -2.25 -16.6 Q-0.7 -18.9 1.2 -18.9 L1.25 -18.9 1.7 -18.85 1.85 -18.85 M-4.85 -3.95 Q-4.6 -3.45 -4.6 -2.95 -4.6 -2.3 -4.7 -2.05 -4.95 -1.3 -5.95 -1.3 L-6.2 -1.3 Q-6.5 -1.35 -6.7 -1.5 L-6.75 -1.5 Q-6.95 -1.65 -7.05 -1.85 -7.15 -2.1 -7.15 -2.55 L-7.2 -2.55 -7.2 -2.8 -7.15 -2.8 -7.1 -2.9 -7.05 -2.85 -7.05 -2.7 Q-7.05 -2.45 -6.9 -2.2 -6.75 -2.0 -6.55 -1.9 L-6.2 -1.9 Q-5.35 -1.95 -5.0 -3.0 -4.85 -3.45 -4.85 -3.95 M-2.15 -4.2 L-2.05 -4.75 -2.0 -5.2 Q-2.05 -4.7 -2.15 -4.2 M-1.85 -7.45 L-1.9 -8.25 -2.05 -9.8 -2.05 -9.95 -2.05 -10.05 -2.0 -10.25 -2.0 -10.75 -1.95 -11.5 -1.95 -11.7 -1.85 -12.35 -1.85 -12.4 Q-1.85 -13.45 -1.2 -14.65 -0.8 -15.45 -0.25 -15.95 1.05 -17.6 2.95 -17.6 L4.25 -17.5 3.1 -17.4 Q2.1 -17.3 1.7 -17.1 -0.1 -16.25 -0.85 -14.5 -1.35 -13.45 -1.55 -11.8 L-1.7 -10.25 -1.6 -8.85 -1.55 -8.25 -1.45 -6.95 Q-1.45 -5.75 -1.65 -4.65 -1.9 -3.35 -2.4 -2.55 L-2.35 -2.65 -2.35 -2.7 -2.25 -3.0 Q-1.75 -4.6 -1.7 -5.95 L-1.7 -6.8 Q-1.8 -7.05 -1.85 -7.45 M-2.1 -11.8 Q-2.3 -11.2 -2.3 -11.1 L-2.35 -11.05 -2.4 -11.15 -2.4 -11.3 Q-3.35 -10.25 -3.65 -8.25 -3.75 -7.3 -3.75 -5.0 L-3.8 -4.85 Q-4.1 -6.25 -4.15 -7.0 L-4.05 -8.25 Q-3.9 -9.35 -3.6 -10.0 L-3.55 -10.1 -3.3 -10.5 -2.45 -11.75 Q-2.25 -12.05 -2.1 -12.35 L-2.1 -11.8 M-3.45 -3.45 L-3.45 -3.65 -3.55 -4.25 -3.6 -4.8 Q-3.6 -5.3 -3.25 -7.8 L-3.15 -8.25 -2.95 -9.3 Q-2.7 -10.25 -2.3 -10.6 L-2.65 -9.4 Q-2.85 -8.6 -2.85 -8.25 L-2.85 -8.2 -2.7 -5.4 Q-2.7 -5.05 -3.05 -3.6 -3.45 -1.95 -3.8 -1.5 L-3.85 -1.55 -3.85 -1.6 Q-3.7 -1.85 -3.65 -1.95 L-3.4 -2.65 -3.45 -3.15 -3.45 -3.45 M2.45 -18.25 Q3.45 -18.55 4.65 -18.55 L4.6 -18.3 4.55 -18.25 2.45 -18.25 M0.75 -17.4 Q-0.15 -16.75 -0.85 -16.0 -2.2 -14.6 -2.95 -12.6 -3.2 -11.9 -3.45 -10.5 -3.8 -9.85 -4.0 -8.9 L-4.15 -8.25 -4.2 -8.1 -4.25 -7.35 Q-4.25 -6.95 -4.3 -6.6 L-4.35 -6.75 Q-4.5 -7.7 -4.55 -8.25 L-4.55 -8.35 Q-4.55 -9.3 -4.1 -10.75 -3.55 -12.65 -2.6 -14.15 -1.2 -16.45 0.75 -17.4" fill="#ffffff" fill-rule="evenodd" stroke="none"/>
      <path d="M5.1 -18.7 L5.25 -18.8 5.25 -18.85 5.6 -19.15 Q6.0 -19.4 6.8 -19.75 L6.95 -19.75 7.05 -19.7 7.5 -19.7 Q8.0 -19.5 8.35 -18.95 8.75 -18.35 8.75 -17.7 8.75 -16.95 7.7 -15.95 6.55 -14.85 5.25 -14.85 4.4 -14.85 4.4 -16.3 L4.4 -16.6 Q4.45 -17.2 4.7 -17.9 L4.7 -17.95 4.8 -18.2 4.95 -18.5 5.1 -18.7" fill="#5099eb" fill-rule="evenodd" stroke="none"/>
      <path d="M-3.6 -15.5 L-3.25 -16.35 -2.9 -17.1 -2.7 -17.45 Q-1.05 -19.75 2.1 -19.75 L3.45 -19.65 Q3.75 -19.6 4.55 -19.3 L5.1 -19.1 4.9 -18.9 4.6 -19.0 2.35 -18.95 Q0.05 -19.05 -0.85 -18.35 -1.1 -18.15 -1.45 -17.7 -1.85 -17.2 -2.1 -17.0 -2.6 -16.55 -3.1 -15.75 L-3.55 -14.95 -3.6 -15.05 -3.6 -15.1 -3.55 -15.15 -3.6 -15.3 -3.6 -15.5 M4.35 -19.65 L4.3 -19.65 Q3.25 -20.35 1.65 -20.35 -0.05 -20.35 -1.0 -19.9 -1.65 -19.65 -2.35 -18.85 L-2.35 -18.8 -2.4 -18.95 Q-2.4 -19.55 -0.5 -20.25 1.4 -20.95 2.85 -20.85 4.35 -20.5 5.15 -19.85 L5.45 -19.4 5.35 -19.3 Q5.2 -19.4 5.0 -19.45 L4.95 -19.5 4.35 -19.65 M2.35 -21.6 L3.1 -21.75 Q3.75 -21.75 4.75 -20.7 5.35 -20.1 5.7 -19.6 L5.55 -19.5 Q5.35 -20.15 4.5 -20.75 3.55 -21.4 2.35 -21.6 M1.85 -18.85 L2.35 -18.8 4.6 -18.75 4.65 -18.7 4.75 -18.7 4.65 -18.55 Q3.45 -18.55 2.45 -18.25 -0.8 -17.5 -2.95 -13.85 -3.75 -12.4 -4.25 -10.8 -4.65 -9.4 -4.65 -8.35 L-4.65 -8.25 Q-4.65 -7.7 -4.5 -6.75 L-4.3 -5.75 -4.15 -5.15 -4.1 -5.15 -4.05 -4.75 -3.75 -3.4 Q-3.65 -3.15 -3.65 -2.9 -3.65 -2.25 -3.85 -1.85 L-4.05 -1.4 -3.85 -1.6 -3.85 -1.55 -3.8 -1.5 Q-3.45 -1.95 -3.05 -3.6 -2.7 -5.05 -2.7 -5.4 L-2.85 -8.2 -2.85 -8.25 Q-2.85 -8.6 -2.65 -9.4 L-2.3 -10.6 Q-2.7 -10.25 -2.95 -9.3 L-3.15 -8.25 -3.25 -7.8 Q-3.6 -5.3 -3.6 -4.8 L-3.55 -4.25 -3.45 -3.65 -3.45 -3.45 -3.5 -3.5 -3.8 -4.85 -3.75 -5.0 Q-3.75 -7.3 -3.65 -8.25 -3.35 -10.25 -2.4 -11.3 L-2.4 -11.15 -2.35 -11.05 -2.3 -11.1 Q-2.3 -11.2 -2.1 -11.8 L-2.05 -9.75 -2.05 -9.8 -1.9 -8.25 -1.85 -7.45 -1.95 -8.0 -1.95 -8.25 -2.05 -9.45 -2.05 -8.6 Q-2.05 -8.45 -2.0 -8.35 L-1.95 -6.15 Q-1.95 -5.65 -2.0 -5.2 L-2.05 -4.75 -2.15 -4.2 Q-2.25 -3.65 -2.45 -3.2 -2.6 -2.75 -2.85 -2.3 L-2.95 -1.75 -3.05 -1.55 Q-3.8 -0.45 -5.35 -0.45 -5.7 -0.45 -6.1 -0.8 L-6.05 -0.8 -5.35 -0.75 Q-4.7 -0.75 -4.15 -1.5 -4.7 -1.0 -5.8 -1.0 L-6.05 -1.15 -6.2 -1.15 Q-6.45 -1.2 -6.6 -1.35 L-6.7 -1.5 Q-6.5 -1.35 -6.2 -1.3 L-5.95 -1.3 Q-4.95 -1.3 -4.7 -2.05 -4.6 -2.3 -4.6 -2.95 -4.6 -3.45 -4.85 -3.95 -4.8 -4.15 -4.8 -4.4 L-4.95 -5.3 -5.1 -6.25 -5.25 -7.35 -5.3 -7.6 -5.25 -8.25 Q-5.1 -9.5 -4.6 -11.15 -3.95 -13.5 -3.1 -14.7 -2.15 -16.1 -1.75 -16.55 -0.8 -17.65 0.4 -18.3 1.0 -18.6 1.9 -18.85 L1.85 -18.85 M0.75 -17.4 Q2.45 -18.25 4.5 -18.15 L4.35 -17.8 4.25 -17.9 Q0.7 -17.9 -1.0 -15.45 -1.65 -14.5 -1.9 -13.55 L-1.95 -13.45 -2.15 -13.0 Q-2.6 -11.6 -3.15 -10.95 L-3.45 -10.5 Q-3.2 -11.9 -2.95 -12.6 -2.2 -14.6 -0.85 -16.0 -0.15 -16.75 0.75 -17.4 M4.25 -17.5 L4.15 -17.3 4.0 -16.85 Q3.8 -16.9 3.4 -16.85 2.3 -16.75 1.15 -16.0 0.2 -15.3 -0.55 -14.3 L-0.65 -14.0 Q-1.15 -12.55 -1.15 -11.95 L-1.15 -11.65 Q-1.05 -11.15 -0.8 -9.95 -0.55 -8.85 -0.45 -8.25 L-0.45 -7.75 Q-0.45 -5.95 -1.25 -3.75 -1.95 -1.9 -2.9 -1.15 L-3.3 -1.0 -3.1 -1.25 Q-2.6 -1.95 -2.45 -2.4 L-2.35 -2.7 -2.35 -2.65 -2.4 -2.55 Q-1.9 -3.35 -1.65 -4.65 -1.45 -5.75 -1.45 -6.95 L-1.55 -8.25 -1.6 -8.85 -1.7 -10.25 -1.55 -11.8 Q-1.35 -13.45 -0.85 -14.5 -0.1 -16.25 1.7 -17.1 2.1 -17.3 3.1 -17.4 L4.25 -17.5 M3.25 -16.3 L3.85 -16.05 3.8 -15.7 Q2.65 -14.8 1.55 -14.3 1.05 -14.1 -0.05 -13.7 -0.45 -13.6 -0.7 -13.45 L-0.65 -13.85 Q-0.35 -14.4 0.1 -14.9 1.3 -16.2 3.0 -16.4 L3.25 -16.3 M-2.0 -10.75 L-2.0 -10.25 -2.05 -10.05 -2.05 -9.95 -2.0 -10.75 M-6.75 -1.5 Q-6.85 -1.6 -6.9 -1.65 L-7.05 -1.85 Q-6.95 -1.65 -6.75 -1.5" fill="#d2dde3" fill-rule="evenodd" stroke="none"/>
    </g>
  </defs>
</svg>
