<?xml version="1.0" encoding="UTF-8" standalone="no"?>
<svg xmlns:ffdec="https://www.free-decompiler.com/flash" xmlns:xlink="http://www.w3.org/1999/xlink" ffdec:objectType="frame" height="124.5px" width="154.65px" xmlns="http://www.w3.org/2000/svg">
  <g transform="matrix(1.0, 0.0, 0.0, 1.0, 76.5, 114.5)">
    <use ffdec:characterId="2825" height="1.5" transform="matrix(-4.0086, 0.0, -0.1586, 2.681, 40.1666, 5.1935)" width="11.05" xlink:href="#shape0"/>
    <use ffdec:characterId="2824" height="8.9" transform="matrix(-4.0086, 0.0, -0.1586, 2.681, 27.3816, -15.8524)" width="6.05" xlink:href="#shape1"/>
    <use ffdec:characterId="2826" height="7.15" transform="matrix(-4.0086, 0.0, -0.1586, 2.681, 26.3102, -11.2947)" width="5.95" xlink:href="#shape2"/>
    <use ffdec:characterId="2812" height="1.5" transform="matrix(-4.0086, 0.0, -0.1586, 2.681, 57.1666, -8.8065)" width="11.05" xlink:href="#shape3"/>
    <use ffdec:characterId="2809" height="2.6" transform="matrix(-4.0086, 0.0, -0.1586, 2.681, 43.0687, -14.4366)" width="4.6" xlink:href="#shape4"/>
    <use ffdec:characterId="2813" height="4.0" transform="matrix(-4.0086, 0.0, -0.1586, 2.681, 43.8127, -16.8495)" width="4.8" xlink:href="#shape5"/>
    <use ffdec:characterId="2817" height="1.5" transform="matrix(7.0, 0.0, 0.0, 4.6817, -69.7, -8.0068)" width="11.05" xlink:href="#shape6"/>
    <use ffdec:characterId="2820" height="5.35" transform="matrix(7.0, 0.0, 0.0, 4.6817, -44.15, -31.4154)" width="5.05" xlink:href="#shape7"/>
    <use ffdec:characterId="2822" height="8.9" transform="matrix(7.0, 0.0, 0.0, 4.6817, -45.2, -44.7583)" width="6.05" xlink:href="#shape8"/>
    <use ffdec:characterId="2812" height="1.5" transform="matrix(5.1539, 0.0, 0.0, 3.447, -76.5079, -15.9012)" width="11.05" xlink:href="#shape3"/>
    <use ffdec:characterId="2815" height="4.0" transform="matrix(5.1539, 0.0, 0.0, 3.447, -58.727, -26.2422)" width="4.8" xlink:href="#shape9"/>
    <use ffdec:characterId="2813" height="4.0" transform="matrix(5.1539, 0.0, 0.0, 3.447, -58.727, -26.2422)" width="4.8" xlink:href="#shape5"/>
    <use ffdec:characterId="2838" height="24.1" transform="matrix(4.906, 0.0, 0.0, 3.2812, -0.256, -89.509)" width="5.15" xlink:href="#shape10"/>
    <use ffdec:characterId="2803" height="1.5" transform="matrix(5.8262, 0.0, 0.0, 4.6817, -36.4287, 2.9932)" width="6.65" xlink:href="#shape11"/>
    <use ffdec:characterId="2803" height="1.5" transform="matrix(7.0, 0.0, 0.0, 4.6817, -40.3, 2.9932)" width="6.65" xlink:href="#shape11"/>
    <use ffdec:characterId="2806" height="1.9" transform="matrix(7.0, 0.0, 0.0, 4.6817, -28.05, -3.093)" width="3.95" xlink:href="#shape12"/>
    <use ffdec:characterId="2804" height="1.9" transform="matrix(7.0, 0.0, 0.0, 4.6817, -28.05, -3.093)" width="3.95" xlink:href="#shape13"/>
  </g>
  <defs>
    <g id="shape0" transform="matrix(1.0, 0.0, 0.0, 1.0, 5.25, 0.45)">
      <path d="M5.8 -0.1 Q5.8 0.2 5.15 0.45 L4.2 0.7 3.75 0.8 0.3 1.05 -3.65 0.7 -4.6 0.45 Q-5.25 0.2 -5.25 -0.1 L-5.2 -0.15 -3.65 -0.35 0.3 -0.45 3.9 -0.4 4.2 -0.35 5.75 -0.15 5.8 -0.1" fill="#ffffff" fill-opacity="0.5019608" fill-rule="evenodd" stroke="none"/>
      <path d="M4.65 -0.1 Q4.65 0.2 4.15 0.45 L3.75 0.6 3.35 0.7 0.3 1.05 -2.8 0.7 -3.55 0.45 Q-4.1 0.2 -4.1 -0.1 L-4.05 -0.15 -2.8 -0.35 0.3 -0.45 3.35 -0.35 3.75 -0.3 4.6 -0.15 4.65 -0.1" fill="#ffffff" fill-opacity="0.5019608" fill-rule="evenodd" stroke="none"/>
    </g>
    <g id="shape1" transform="matrix(1.0, 0.0, 0.0, 1.0, 1.75, 8.3)">
      <path d="M0.85 -7.65 L0.9 -7.7 1.05 -7.95 Q1.2 -8.1 1.45 -8.2 L1.7 -8.25 2.05 -8.25 Q2.7 -7.95 2.85 -7.3 3.05 -6.65 3.3 -6.4 L3.85 -6.35 4.0 -6.25 Q4.15 -6.1 4.2 -5.9 L4.2 -5.0 4.05 -4.55 4.0 -4.5 3.95 -4.5 3.9 -4.4 3.85 -4.4 3.85 -4.6 3.9 -4.85 3.8 -5.15 3.65 -5.2 3.2 -5.0 Q3.05 -4.7 2.9 -4.3 2.7 -3.45 2.4 -3.45 L2.35 -3.45 Q2.15 -2.8 2.15 -2.1 2.15 -1.85 2.25 -1.4 L2.25 -1.3 Q2.35 -0.65 2.5 -0.6 2.65 -0.7 2.75 -0.85 L2.8 -0.85 2.85 -1.05 2.95 -1.3 3.0 -1.45 Q3.1 -1.85 3.1 -2.15 L3.1 -2.25 3.15 -2.4 3.2 -2.4 3.25 -1.75 3.3 -1.45 3.3 -1.4 3.25 -1.45 3.35 -1.3 3.4 -1.15 Q3.5 -0.9 3.7 -0.75 3.9 -0.5 4.25 -0.4 L4.3 -0.35 4.3 -0.3 4.25 -0.25 4.2 -0.25 3.9 -0.4 Q3.85 -0.4 3.8 -0.45 L3.85 -0.4 3.8 -0.3 3.6 -0.3 3.3 -0.35 2.75 -0.2 2.7 -0.15 2.45 0.3 Q2.35 0.3 2.35 0.05 L2.35 -0.15 2.3 -0.25 2.25 -0.25 1.55 -0.3 1.2 -0.45 0.35 -0.3 Q0.25 -0.3 0.2 -0.45 0.15 -0.35 0.1 -0.35 L-0.1 -0.25 -0.25 -0.2 -0.25 -0.15 Q-0.35 0.3 -0.45 0.3 -0.6 0.3 -0.65 -0.15 L-0.7 -0.3 -0.8 -0.3 -0.95 -0.25 -1.0 -0.25 Q-1.1 -0.3 -1.2 -0.5 L-1.25 -0.3 -1.25 0.45 Q-1.3 0.75 -1.3 0.45 L-1.3 -0.15 -1.25 -0.25 -1.4 -0.25 -1.5 -0.35 -1.6 -0.2 -1.7 -0.25 -1.5 -0.75 -1.4 -1.3 -1.3 -1.5 -1.3 -1.55 -1.25 -1.6 -1.2 -2.05 -1.15 -2.05 -1.2 -1.95 -1.2 -1.75 -1.15 -1.5 -1.15 -1.6 -1.1 -1.55 -1.1 -1.15 Q-1.05 -0.45 -0.8 -0.45 L-0.75 -0.5 Q-0.75 -1.1 -0.45 -1.2 -0.1 -1.25 -0.1 -0.75 L-0.1 -0.7 0.0 -0.55 Q0.2 -0.55 0.3 -1.3 L0.3 -1.4 0.4 -2.05 0.35 -2.25 Q0.3 -2.25 0.25 -2.3 L0.2 -2.35 0.15 -2.3 0.0 -2.2 -0.05 -2.1 Q-0.25 -1.85 -0.3 -1.85 -0.55 -1.85 -0.65 -1.95 L-0.7 -2.2 -0.7 -2.6 -0.75 -2.8 -0.85 -3.05 -0.85 -3.1 Q-1.05 -2.7 -1.05 -2.3 L-1.1 -2.3 -1.1 -2.4 -1.15 -2.2 -1.2 -2.05 Q-1.3 -2.7 -1.4 -3.1 L-1.4 -3.05 -1.75 -4.1 Q-1.75 -4.6 -1.55 -4.75 L-1.05 -4.9 Q-0.2 -5.05 0.15 -6.15 L0.6 -7.2 Q0.7 -7.45 0.85 -7.65 M1.35 -8.05 L1.35 -8.05 M2.35 -6.8 Q2.2 -6.8 2.2 -6.55 L2.2 -6.45 Q2.25 -6.4 2.4 -6.4 2.55 -6.4 2.6 -6.5 2.7 -6.75 2.75 -6.8 L2.35 -6.8 M4.05 -4.65 L4.05 -4.65 M0.7 -7.25 L0.7 -7.25 M0.5 -2.1 L0.5 -2.1 M0.05 -2.75 L0.1 -2.95 Q0.1 -3.25 -0.15 -3.2 -0.4 -3.2 -0.4 -3.0 L-0.35 -2.8 Q-0.25 -2.6 -0.1 -2.6 0.0 -2.6 0.05 -2.75 M3.2 -2.2 L3.2 -2.2 M3.2 -1.3 L3.2 -1.3 M3.1 -1.8 L3.1 -1.8 M-0.35 -3.4 Q-0.35 -3.55 -0.5 -3.55 -0.6 -3.55 -0.6 -3.4 L-0.6 -3.3 -0.5 -3.25 -0.4 -3.3 -0.35 -3.4 M-1.25 -0.95 L-1.25 -0.95" fill="#ffffff" fill-opacity="0.5019608" fill-rule="evenodd" stroke="none"/>
    </g>
    <g id="shape2" transform="matrix(1.0, 0.0, 0.0, 1.0, 1.55, 6.6)">
      <path d="M3.25 -6.05 L3.3 -6.3 Q3.3 -6.6 3.5 -6.6 L3.65 -6.55 3.65 -6.5 3.7 -6.25 4.05 -5.95 4.15 -5.95 Q4.4 -5.9 4.4 -5.7 L4.35 -5.5 4.15 -5.45 3.85 -5.45 Q3.7 -5.55 3.6 -5.7 L3.5 -5.9 3.45 -5.9 Q3.3 -5.9 3.3 -6.0 L3.25 -6.05 M3.9 -5.75 L3.8 -5.8 3.9 -5.7 3.9 -5.75 M0.05 -5.8 Q-0.05 -5.7 -0.15 -5.7 L-0.5 -5.7 -0.95 -5.5 -1.0 -5.5 Q-1.05 -5.4 -1.15 -5.4 L-1.35 -5.4 -1.35 -5.65 Q-1.35 -5.8 -1.2 -5.85 L-1.05 -5.8 Q-0.9 -6.15 -0.65 -6.25 L-0.25 -6.4 Q0.2 -6.4 0.2 -6.05 0.2 -5.95 0.05 -5.8 M1.15 -0.15 L2.3 -0.15 1.4 -0.1 1.15 -0.15 M-1.35 -0.8 L-1.15 -1.3 -0.9 -0.35 -0.95 -0.15 Q-1.05 -0.15 -1.1 -0.25 L-1.2 -0.45 -1.35 -0.2 -1.4 -0.15 -1.5 0.45 -1.5 0.55 -1.55 0.45 -1.55 -0.15 -1.35 -0.8" fill="#ffffff" fill-opacity="0.5019608" fill-rule="evenodd" stroke="none"/>
    </g>
    <g id="shape3" transform="matrix(1.0, 0.0, 0.0, 1.0, 5.25, 0.45)">
      <path d="M4.65 -0.1 Q4.65 0.2 4.15 0.45 L3.75 0.6 3.35 0.7 0.3 1.05 -2.8 0.7 -3.55 0.45 Q-4.1 0.2 -4.1 -0.1 L-4.05 -0.15 -2.8 -0.35 0.3 -0.45 3.35 -0.35 3.75 -0.3 4.6 -0.15 4.65 -0.1" fill="#ffffff" fill-opacity="0.5019608" fill-rule="evenodd" stroke="none"/>
      <path d="M5.8 -0.1 Q5.8 0.2 5.15 0.45 L4.2 0.7 3.75 0.8 0.3 1.05 -3.65 0.7 -4.6 0.45 Q-5.25 0.2 -5.25 -0.1 L-5.2 -0.15 -3.65 -0.35 0.3 -0.45 3.9 -0.4 4.2 -0.35 5.75 -0.15 5.8 -0.1" fill="#ffffff" fill-opacity="0.5019608" fill-rule="evenodd" stroke="none"/>
    </g>
    <g id="shape4" transform="matrix(1.0, 0.0, 0.0, 1.0, 1.65, 2.55)">
      <path d="M0.85 -2.55 Q1.2 -2.6 1.5 -2.2 L1.85 -1.65 1.9 -1.55 2.05 -1.35 2.1 -1.3 2.35 -0.9 Q2.45 -0.75 2.7 -0.6 L2.95 -0.25 2.7 -0.2 Q2.6 -0.2 2.45 -0.35 L2.35 -0.3 2.25 -0.35 2.2 -0.3 2.05 -0.3 2.05 -0.25 Q2.0 -0.2 1.95 -0.2 1.9 -0.2 1.85 -0.25 L1.85 -0.3 1.5 -0.3 1.2 -0.25 1.05 -0.25 Q1.0 -0.25 0.95 -0.3 L0.95 -0.4 0.15 -0.25 -0.1 -0.15 -0.3 0.05 Q-0.35 0.05 -0.4 -0.15 L-0.4 -0.2 -0.6 -0.3 -1.2 -0.15 -1.25 -0.1 -1.3 -0.15 Q-1.35 -0.2 -1.35 -0.3 L-1.35 -0.4 Q-1.45 -0.25 -1.5 -0.25 L-1.6 -0.25 -1.65 -0.3 -1.45 -0.45 -1.4 -0.5 -1.45 -0.5 -1.25 -0.8 -1.1 -1.15 -0.9 -1.35 -0.75 -1.4 -0.3 -1.45 -0.2 -1.5 -0.1 -1.6 Q0.0 -1.95 0.3 -2.25 0.55 -2.5 0.85 -2.55" fill="#ffffff" fill-opacity="0.5019608" fill-rule="evenodd" stroke="none"/>
    </g>
    <g id="shape5" transform="matrix(1.0, 0.0, 0.0, 1.0, 1.8, 3.45)">
      <path d="M0.5 -3.2 L0.9 -3.4 1.05 -3.45 1.35 -3.45 1.65 -3.35 Q2.0 -3.3 2.2 -2.85 2.3 -2.5 2.3 -2.2 L2.25 -1.8 2.3 -1.65 Q2.35 -1.55 2.45 -1.5 L2.75 -1.3 2.85 -1.15 2.9 -0.7 2.9 -0.65 3.0 -0.15 3.0 0.45 2.95 -0.15 2.9 -0.45 2.9 -0.3 2.85 -0.4 2.85 -0.3 2.65 -0.3 2.55 -0.35 2.1 -0.4 1.2 -0.3 0.5 -0.3 -0.45 -0.25 -0.65 -0.3 -0.7 -0.4 -1.35 -0.25 -1.45 -0.3 -1.5 -0.15 Q-1.6 0.1 -1.7 0.1 -1.75 0.1 -1.75 0.05 L-1.8 -0.1 -1.8 -0.15 -1.65 -0.3 -1.7 -0.3 -1.7 -0.35 -1.65 -0.35 -1.6 -0.4 Q-1.45 -0.6 -1.35 -0.9 L-1.3 -1.2 -1.3 -1.3 -1.25 -1.3 -1.15 -1.6 Q-1.05 -1.8 -0.8 -1.9 L-0.2 -2.0 0.1 -2.6 0.5 -3.2" fill="#ffffff" fill-opacity="0.5019608" fill-rule="evenodd" stroke="none"/>
    </g>
    <g id="shape6" transform="matrix(1.0, 0.0, 0.0, 1.0, 5.25, 0.45)">
      <path d="M5.8 -0.1 Q5.8 0.2 5.15 0.45 L4.2 0.7 3.75 0.8 0.3 1.05 -3.65 0.7 -4.6 0.45 Q-5.25 0.2 -5.25 -0.1 L-5.2 -0.15 -3.65 -0.35 0.3 -0.45 3.9 -0.4 4.2 -0.35 5.75 -0.15 5.8 -0.1" fill="#ffffff" fill-opacity="0.5019608" fill-rule="evenodd" stroke="none"/>
      <path d="M5.8 -0.1 Q5.8 0.2 5.15 0.45 L4.2 0.7 3.75 0.8 0.3 1.05 -3.65 0.7 -4.6 0.45 Q-5.25 0.2 -5.25 -0.1 L-5.2 -0.15 -3.65 -0.35 0.3 -0.45 3.9 -0.4 4.2 -0.35 5.75 -0.15 5.8 -0.1" fill="#ffffff" fill-opacity="0.5019608" fill-rule="evenodd" stroke="none"/>
    </g>
    <g id="shape7" transform="matrix(1.0, 0.0, 0.0, 1.0, 1.6, 5.45)">
      <path d="M2.8 -4.05 L2.85 -3.55 2.95 -3.4 2.9 -3.45 Q2.9 -3.4 2.95 -3.4 L3.1 -3.45 3.3 -3.45 3.35 -3.4 Q3.45 -3.3 3.45 -3.1 L3.45 -3.05 3.25 -2.3 3.15 -1.85 3.2 -1.7 3.25 -1.5 3.25 -1.3 3.2 -1.0 3.1 -0.75 3.05 -0.4 Q3.0 -0.4 3.0 -0.45 L2.95 -0.35 2.95 -0.45 3.0 -0.65 3.05 -1.1 3.05 -1.3 Q3.05 -1.6 2.85 -1.6 L2.7 -1.6 Q2.45 -1.5 2.35 -1.3 2.3 -1.1 2.3 -0.75 L2.3 -0.3 2.25 -0.3 2.25 -0.45 Q2.15 -0.2 1.5 -0.2 L0.85 -0.25 0.4 -0.15 0.15 -0.1 0.1 -0.15 0.1 -0.2 -0.45 -0.2 -0.35 -0.4 Q-0.25 -0.7 -0.25 -0.85 -0.25 -1.15 -0.3 -1.3 L-0.6 -1.4 -0.75 -1.3 Q-0.95 -1.1 -0.95 -0.5 L-0.9 -0.25 -0.9 -0.2 -1.2 -0.2 -1.45 -0.3 -1.45 -0.25 -1.5 -0.2 -1.55 -0.35 -1.6 -0.4 Q-1.6 -0.5 -1.55 -0.55 L-1.45 -1.0 -1.3 -1.45 Q-1.3 -1.65 -1.4 -1.85 L-1.45 -2.1 Q-1.45 -2.85 -1.15 -3.05 L-0.95 -3.15 Q-0.4 -3.45 -0.15 -3.8 L0.25 -4.45 0.7 -5.15 Q1.2 -5.65 2.15 -5.35 2.4 -5.25 2.55 -5.1 L2.65 -4.75 2.8 -4.05 M3.1 -2.95 Q2.9 -2.95 2.9 -2.75 L2.9 -2.65 Q2.95 -2.55 3.05 -2.55 3.25 -2.55 3.25 -2.8 3.25 -2.95 3.1 -2.95 M0.0 -3.1 Q0.2 -3.1 0.2 -3.45 0.2 -3.75 0.0 -3.65 -0.2 -3.6 -0.2 -3.35 -0.15 -3.1 0.0 -3.1" fill="#ffffff" fill-opacity="0.5019608" fill-rule="evenodd" stroke="none"/>
    </g>
    <g id="shape8" transform="matrix(1.0, 0.0, 0.0, 1.0, 1.75, 8.3)">
      <path d="M0.9 -7.7 L1.05 -7.95 Q1.2 -8.1 1.45 -8.2 L1.7 -8.25 2.05 -8.25 Q2.7 -7.95 2.85 -7.3 3.05 -6.65 3.3 -6.4 L3.85 -6.35 4.0 -6.25 Q4.15 -6.1 4.2 -5.9 L4.2 -5.0 4.05 -4.55 4.0 -4.5 3.95 -4.5 3.9 -4.4 3.85 -4.4 3.85 -4.6 3.9 -4.85 3.8 -5.15 3.65 -5.2 3.2 -5.0 Q3.05 -4.7 2.9 -4.3 2.7 -3.45 2.4 -3.45 L2.35 -3.45 Q2.15 -2.8 2.15 -2.1 2.15 -1.85 2.25 -1.4 L2.25 -1.3 Q2.35 -0.65 2.5 -0.6 2.65 -0.7 2.75 -0.85 L2.8 -0.85 2.85 -1.05 2.95 -1.3 3.0 -1.45 Q3.1 -1.85 3.1 -2.15 L3.1 -2.25 3.15 -2.4 3.2 -2.4 3.25 -1.75 3.3 -1.45 3.3 -1.4 3.25 -1.45 3.35 -1.3 3.4 -1.15 Q3.5 -0.9 3.7 -0.75 3.9 -0.5 4.25 -0.4 L4.3 -0.35 4.3 -0.3 4.25 -0.25 4.2 -0.25 3.9 -0.4 Q3.85 -0.4 3.8 -0.45 L3.85 -0.4 3.8 -0.3 3.6 -0.3 3.3 -0.35 2.75 -0.2 2.7 -0.15 2.45 0.3 Q2.35 0.3 2.35 0.05 L2.35 -0.15 2.3 -0.25 2.25 -0.25 1.55 -0.3 1.2 -0.45 0.35 -0.3 Q0.25 -0.3 0.2 -0.45 0.15 -0.35 0.1 -0.35 L-0.1 -0.25 -0.25 -0.2 -0.25 -0.15 Q-0.35 0.3 -0.45 0.3 -0.6 0.3 -0.65 -0.15 L-0.7 -0.3 -0.8 -0.3 -0.95 -0.25 -1.0 -0.25 Q-1.1 -0.3 -1.2 -0.5 L-1.25 -0.3 -1.25 0.45 Q-1.3 0.75 -1.3 0.45 L-1.3 -0.15 -1.25 -0.25 -1.4 -0.25 -1.5 -0.35 -1.6 -0.2 -1.7 -0.25 -1.5 -0.75 -1.4 -1.3 -1.3 -1.5 -1.3 -1.55 -1.25 -1.6 -1.2 -2.05 -1.15 -2.05 -1.2 -1.95 -1.2 -1.75 -1.15 -1.5 -1.15 -1.6 -1.1 -1.55 -1.1 -1.15 Q-1.05 -0.45 -0.8 -0.45 L-0.75 -0.5 Q-0.75 -1.1 -0.45 -1.2 -0.1 -1.25 -0.1 -0.75 L-0.1 -0.7 0.0 -0.55 Q0.2 -0.55 0.3 -1.3 L0.3 -1.4 0.4 -2.05 0.35 -2.25 Q0.3 -2.25 0.25 -2.3 L0.2 -2.35 0.15 -2.3 0.0 -2.2 -0.05 -2.1 Q-0.25 -1.85 -0.3 -1.85 -0.55 -1.85 -0.65 -1.95 L-0.7 -2.2 -0.7 -2.6 -0.75 -2.8 -0.85 -3.05 -0.85 -3.1 Q-1.05 -2.7 -1.05 -2.3 L-1.1 -2.3 -1.1 -2.4 -1.15 -2.2 -1.2 -2.05 Q-1.3 -2.7 -1.4 -3.1 L-1.4 -3.05 -1.75 -4.1 Q-1.75 -4.6 -1.55 -4.75 L-1.05 -4.9 Q-0.2 -5.05 0.15 -6.15 L0.6 -7.2 Q0.7 -7.45 0.85 -7.65 L0.9 -7.7 M1.35 -8.05 L1.35 -8.05 M2.35 -6.8 Q2.2 -6.8 2.2 -6.55 L2.2 -6.45 Q2.25 -6.4 2.4 -6.4 2.55 -6.4 2.6 -6.5 2.7 -6.75 2.75 -6.8 L2.35 -6.8 M4.05 -4.65 L4.05 -4.65 M0.7 -7.25 L0.7 -7.25 M0.5 -2.1 L0.5 -2.1 M0.05 -2.75 L0.1 -2.95 Q0.1 -3.25 -0.15 -3.2 -0.4 -3.2 -0.4 -3.0 L-0.35 -2.8 Q-0.25 -2.6 -0.1 -2.6 0.0 -2.6 0.05 -2.75 M3.2 -2.2 L3.2 -2.2 M3.2 -1.3 L3.2 -1.3 M3.1 -1.8 L3.1 -1.8 M-0.35 -3.4 Q-0.35 -3.55 -0.5 -3.55 -0.6 -3.55 -0.6 -3.4 L-0.6 -3.3 -0.5 -3.25 -0.4 -3.3 -0.35 -3.4 M-1.25 -0.95 L-1.25 -0.95" fill="#ffffff" fill-opacity="0.5019608" fill-rule="evenodd" stroke="none"/>
    </g>
    <g id="shape9" transform="matrix(1.0, 0.0, 0.0, 1.0, 1.8, 3.45)">
      <path d="M0.5 -3.2 L0.9 -3.4 1.05 -3.45 1.35 -3.45 1.65 -3.35 Q2.0 -3.3 2.2 -2.85 2.3 -2.5 2.3 -2.2 L2.25 -1.8 2.3 -1.65 Q2.35 -1.55 2.45 -1.5 L2.75 -1.3 2.85 -1.15 2.9 -0.7 2.9 -0.65 3.0 -0.15 3.0 0.45 2.95 -0.15 2.9 -0.45 2.9 -0.3 2.85 -0.4 2.85 -0.3 2.65 -0.3 2.55 -0.35 2.1 -0.4 1.2 -0.3 0.5 -0.3 -0.45 -0.25 -0.65 -0.3 -0.7 -0.4 -1.35 -0.25 -1.45 -0.3 -1.5 -0.15 Q-1.6 0.1 -1.7 0.1 -1.75 0.1 -1.75 0.05 L-1.8 -0.1 -1.8 -0.15 -1.65 -0.3 -1.7 -0.3 -1.7 -0.35 -1.65 -0.35 -1.6 -0.4 Q-1.45 -0.6 -1.35 -0.9 L-1.3 -1.2 -1.3 -1.3 -1.25 -1.3 -1.15 -1.6 Q-1.05 -1.8 -0.8 -1.9 L-0.2 -2.0 0.1 -2.6 0.5 -3.2" fill="#ffffff" fill-opacity="0.5019608" fill-rule="evenodd" stroke="none"/>
    </g>
    <g id="shape10" transform="matrix(1.0, 0.0, 0.0, 1.0, 1.0, 23.5)">
      <path d="M1.55 -0.1 Q1.55 0.2 1.15 0.4 L1.05 0.45 0.3 0.6 -0.5 0.45 -0.6 0.4 Q-1.0 0.2 -1.0 -0.1 L-0.95 -0.15 -0.6 -0.25 0.3 -0.3 1.15 -0.25 1.5 -0.15 1.55 -0.1" fill="#ffffff" fill-opacity="0.5019608" fill-rule="evenodd" stroke="none"/>
      <path d="M0.65 -0.15 L0.7 -0.1 0.6 0.1 0.3 0.15 -0.05 0.1 Q-0.15 0.05 -0.15 -0.1 L-0.05 -0.2 0.6 -0.2 0.65 -0.15" fill="#ffffff" fill-opacity="0.5019608" fill-rule="evenodd" stroke="none"/>
      <path d="M1.2 -23.5 L1.45 -23.4 1.5 -23.2 Q1.45 -23.0 1.3 -22.95 L1.1 -22.85 1.05 -23.05 1.1 -23.2 Q1.15 -23.45 1.2 -23.5 M2.55 -23.05 Q2.35 -22.65 2.2 -22.4 L2.0 -22.25 1.85 -22.3 1.8 -22.4 Q1.75 -22.45 1.75 -22.5 L1.8 -22.5 Q1.8 -22.45 1.85 -22.45 2.1 -22.45 2.3 -23.15 2.55 -23.15 2.55 -23.05 M3.35 -21.8 L3.35 -21.45 Q3.3 -21.3 3.2 -21.3 L3.2 -21.8 3.35 -21.8 M3.95 -20.55 Q4.05 -20.9 4.15 -20.9 L4.15 -20.7 Q4.15 -20.6 4.1 -20.55 4.0 -20.45 3.95 -20.55 M1.85 -19.2 L1.85 -18.95 1.65 -18.95 1.75 -19.25 Q1.75 -19.3 1.85 -19.2 M0.15 -17.35 L0.15 -17.65 0.45 -17.55 Q0.4 -17.3 0.25 -17.3 L0.15 -17.35 M2.4 -17.05 L2.5 -17.2 2.55 -17.35 2.6 -17.2 2.45 -16.9 2.45 -16.95 2.4 -17.05 M-0.7 -21.7 L-0.9 -21.4 -0.9 -21.45 Q-0.85 -21.8 -0.75 -21.8 L-0.7 -21.7 M-0.65 -18.75 L-0.75 -18.6 Q-0.85 -18.5 -0.9 -18.5 -1.0 -18.5 -1.0 -18.55 L-1.0 -18.65 -0.95 -18.75 Q-0.8 -18.95 -0.6 -18.9 L-0.6 -18.8 -0.65 -18.75" fill="#ffffff" fill-opacity="0.5019608" fill-rule="evenodd" stroke="none"/>
      <path d="M1.2 -23.5 L1.45 -23.4 1.5 -23.2 Q1.45 -23.0 1.3 -22.95 L1.1 -22.85 1.05 -23.05 1.1 -23.2 Q1.15 -23.45 1.2 -23.5 M2.55 -23.05 Q2.35 -22.65 2.2 -22.4 L2.0 -22.25 1.85 -22.3 1.8 -22.4 Q1.75 -22.45 1.75 -22.5 L1.8 -22.5 Q1.8 -22.45 1.85 -22.45 2.1 -22.45 2.3 -23.15 2.55 -23.15 2.55 -23.05 M3.35 -21.8 L3.35 -21.45 Q3.3 -21.3 3.2 -21.3 L3.2 -21.8 3.35 -21.8 M3.95 -20.55 Q4.05 -20.9 4.15 -20.9 L4.15 -20.7 Q4.15 -20.6 4.1 -20.55 4.0 -20.45 3.95 -20.55 M1.85 -19.2 L1.85 -18.95 1.65 -18.95 1.75 -19.25 Q1.75 -19.3 1.85 -19.2 M0.15 -17.35 L0.15 -17.65 0.45 -17.55 Q0.4 -17.3 0.25 -17.3 L0.15 -17.35 M2.4 -17.05 L2.5 -17.2 2.55 -17.35 2.6 -17.2 2.45 -16.9 2.45 -16.95 2.4 -17.05 M-0.7 -21.7 L-0.9 -21.4 -0.9 -21.45 Q-0.85 -21.8 -0.75 -21.8 L-0.7 -21.7 M-0.65 -18.75 L-0.75 -18.6 Q-0.85 -18.5 -0.9 -18.5 -1.0 -18.5 -1.0 -18.55 L-1.0 -18.65 -0.95 -18.75 Q-0.8 -18.95 -0.6 -18.9 L-0.6 -18.8 -0.65 -18.75" fill="#ffffff" fill-opacity="0.5019608" fill-rule="evenodd" stroke="none"/>
    </g>
    <g id="shape11" transform="matrix(1.0, 0.0, 0.0, 1.0, 3.0, 0.45)">
      <path d="M3.65 -0.1 Q3.65 0.2 3.3 0.45 L2.7 0.7 Q1.7 1.05 0.35 1.05 -1.05 1.05 -2.05 0.7 -2.4 0.6 -2.6 0.45 -3.0 0.2 -3.0 -0.1 L-3.0 -0.15 -2.05 -0.35 0.35 -0.45 2.7 -0.35 3.65 -0.15 3.65 -0.1" fill="#ffffff" fill-opacity="0.5019608" fill-rule="evenodd" stroke="none"/>
    </g>
    <g id="shape12" transform="matrix(1.0, 0.0, 0.0, 1.0, 1.3, 1.75)">
      <path d="M0.55 -0.25 L0.5 -0.2 Q0.45 -0.2 0.45 -0.25 L0.2 -0.3 0.25 -0.2 Q0.15 -0.25 0.0 -0.35 L-0.05 -0.3 -0.15 -0.3 -0.55 -0.25 -0.8 -0.3 -0.9 -0.25 -1.05 -0.25 -1.1 -0.15 -1.15 0.15 -1.15 -0.2 -1.25 -0.2 -1.3 -0.25 -1.1 -0.35 -1.0 -0.5 Q-0.85 -0.7 -0.75 -0.8 -0.7 -0.9 -0.55 -0.9 L-0.25 -1.0 Q-0.2 -1.0 -0.15 -1.1 L-0.05 -1.3 0.2 -1.55 Q0.6 -1.85 1.15 -1.7 L1.2 -1.65 1.45 -1.5 1.65 -1.3 1.8 -1.1 2.15 -0.65 Q2.45 -0.35 2.65 -0.25 L2.5 -0.2 2.1 -0.3 1.95 -0.2 1.9 -0.25 1.8 -0.25 1.3 -0.2 0.65 -0.3 0.55 -0.25" fill="#ffffff" fill-opacity="0.5019608" fill-rule="evenodd" stroke="none"/>
    </g>
    <g id="shape13" transform="matrix(1.0, 0.0, 0.0, 1.0, 1.3, 1.75)">
      <path d="M0.55 -0.25 L0.5 -0.2 Q0.45 -0.2 0.45 -0.25 L0.2 -0.3 0.25 -0.2 Q0.15 -0.25 0.0 -0.35 L-0.05 -0.3 -0.15 -0.3 -0.55 -0.25 -0.8 -0.3 -0.9 -0.25 -1.05 -0.25 -1.1 -0.15 -1.15 0.15 -1.15 -0.2 -1.25 -0.2 -1.3 -0.25 -1.1 -0.35 -1.0 -0.5 Q-0.85 -0.7 -0.75 -0.8 -0.7 -0.9 -0.55 -0.9 L-0.25 -1.0 Q-0.2 -1.0 -0.15 -1.1 L-0.05 -1.3 0.2 -1.55 Q0.6 -1.85 1.15 -1.7 L1.2 -1.65 1.45 -1.5 1.65 -1.3 1.8 -1.1 2.15 -0.65 Q2.45 -0.35 2.65 -0.25 L2.5 -0.2 2.1 -0.3 1.95 -0.2 1.9 -0.25 1.8 -0.25 1.3 -0.2 0.65 -0.3 0.55 -0.25" fill="#ffffff" fill-opacity="0.5019608" fill-rule="evenodd" stroke="none"/>
    </g>
  </defs>
</svg>
