<?xml version="1.0" encoding="UTF-8" standalone="no"?>
<svg xmlns:ffdec="https://www.free-decompiler.com/flash" xmlns:xlink="http://www.w3.org/1999/xlink" ffdec:objectType="frame" height="35.0px" width="36.75px" xmlns="http://www.w3.org/2000/svg">
  <g transform="matrix(1.0, 0.0, 0.0, 1.0, 0.0, 33.95)">
    <use ffdec:characterId="11" height="5.0" transform="matrix(7.0, 0.0, 0.0, 7.0, 0.0, -33.95)" width="5.25" xlink:href="#shape0"/>
  </g>
  <defs>
    <g id="shape0" transform="matrix(1.0, 0.0, 0.0, 1.0, 0.0, 4.85)">
      <path d="M4.2 -4.2 Q4.2 -4.15 4.2 -4.1 4.25 -4.0 4.4 -4.0 4.55 -4.0 4.55 -4.2 4.55 -4.4 4.4 -4.4 4.2 -4.4 4.2 -4.2 M3.35 -3.95 L3.35 -4.05 Q3.3 -4.05 3.25 -3.95 L3.35 -3.95 M3.55 -4.1 L3.55 -4.05 3.65 -4.05 3.7 -4.1 3.65 -4.15 3.55 -4.15 3.55 -4.1 M3.5 -3.25 L3.7 -3.55 Q3.9 -3.85 4.2 -3.75 4.2 -3.7 4.25 -3.6 L4.3 -3.5 Q4.3 -3.45 4.0 -3.15 3.7 -2.95 3.5 -2.85 3.5 -2.95 3.5 -3.1 L3.6 -3.2 3.5 -3.25 M4.3 -3.85 L3.9 -3.85 Q3.35 -3.6 3.35 -2.9 L3.35 -2.8 Q3.35 -2.65 3.5 -2.65 3.8 -2.65 4.45 -3.5 4.45 -3.75 4.3 -3.85 M4.8 -3.8 Q4.65 -3.8 4.6 -3.7 L4.6 -3.65 4.7 -3.6 Q4.8 -3.6 4.8 -3.7 L4.8 -3.8 M2.9 -4.45 Q3.65 -4.65 4.25 -4.5 5.0 -4.3 5.0 -3.6 L5.0 -3.4 Q4.85 -3.25 4.7 -3.0 4.4 -2.55 4.1 -2.4 L4.0 -2.35 Q3.85 -2.25 3.6 -2.1 3.2 -1.75 3.1 -1.75 2.9 -1.75 2.8 -1.9 2.75 -2.15 2.75 -2.3 L2.85 -3.0 Q2.9 -3.55 2.9 -3.95 L2.9 -4.45 M4.55 -2.55 L4.45 -2.4 Q3.75 -1.35 3.2 -1.35 L3.1 -1.4 3.4 -1.65 4.15 -2.2 4.55 -2.55 M3.9 -3.3 Q4.05 -3.3 4.05 -3.4 4.05 -3.55 3.9 -3.55 3.8 -3.5 3.8 -3.4 3.8 -3.3 3.9 -3.3" fill="#9db39d" fill-rule="evenodd" stroke="none"/>
      <path d="M4.85 -4.6 L5.1 -4.35 Q5.25 -4.1 5.25 -3.65 5.25 -3.4 5.15 -3.15 L5.05 -2.9 5.05 -2.5 Q5.05 -2.1 4.75 -1.55 4.35 -0.9 3.8 -0.85 L3.25 -0.3 Q2.85 0.15 2.15 0.15 1.65 0.15 1.0 -0.25 0.7 -0.4 0.5 -0.55 L0.4 -0.65 Q0.1 -0.85 0.05 -1.1 0.0 -1.2 0.0 -1.55 0.0 -2.6 0.8 -3.5 1.55 -4.25 2.6 -4.6 3.65 -5.0 4.4 -4.8 4.65 -4.75 4.85 -4.6 M5.0 -3.4 L5.0 -3.6 Q5.0 -4.3 4.25 -4.5 3.65 -4.65 2.9 -4.45 L2.6 -4.35 2.55 -4.3 Q1.6 -3.95 1.0 -3.3 0.25 -2.45 0.25 -1.5 0.25 -1.1 1.0 -0.6 1.35 -0.4 1.6 -0.25 L2.1 -0.2 2.45 -0.25 Q2.8 -0.3 3.15 -0.55 3.65 -0.85 4.05 -1.4 L4.15 -1.5 4.15 -1.6 4.35 -1.85 4.4 -1.95 Q4.65 -2.4 4.85 -2.95 L5.0 -3.4 M3.85 -0.95 Q4.8 -1.45 4.95 -2.6 4.7 -2.05 4.25 -1.45 L3.85 -0.95 M3.3 -0.45 L3.75 -0.85 3.55 -0.7 3.3 -0.45" fill="#111111" fill-rule="evenodd" stroke="none"/>
      <path d="M3.85 -0.95 L4.25 -1.45 Q4.7 -2.05 4.95 -2.6 4.8 -1.45 3.85 -0.95" fill="#402626" fill-rule="evenodd" stroke="none"/>
      <path d="M3.55 -4.1 L3.55 -4.15 3.65 -4.15 3.7 -4.1 3.65 -4.05 3.55 -4.05 3.55 -4.1 M3.35 -3.95 L3.25 -3.95 Q3.3 -4.05 3.35 -4.05 L3.35 -3.95 M4.2 -4.2 Q4.2 -4.4 4.4 -4.4 4.55 -4.4 4.55 -4.2 4.55 -4.0 4.4 -4.0 4.25 -4.0 4.2 -4.1 4.2 -4.15 4.2 -4.2 M3.5 -3.25 L3.6 -3.2 3.5 -3.1 3.5 -3.25 M4.8 -3.8 L4.8 -3.7 Q4.8 -3.6 4.7 -3.6 L4.6 -3.65 4.6 -3.7 Q4.65 -3.8 4.8 -3.8 M2.9 -4.45 L2.9 -3.95 Q2.9 -3.55 2.85 -3.0 L2.75 -2.3 Q2.75 -2.15 2.8 -1.9 2.9 -1.75 3.1 -1.75 3.2 -1.75 3.6 -2.1 3.85 -2.25 4.0 -2.35 L4.1 -2.4 Q4.4 -2.55 4.7 -3.0 4.85 -3.25 5.0 -3.4 L4.85 -2.95 Q4.65 -2.4 4.4 -1.95 L4.35 -1.85 4.15 -1.6 4.15 -1.5 4.05 -1.4 Q3.65 -0.85 3.15 -0.55 2.8 -0.3 2.45 -0.25 L2.1 -0.2 1.6 -0.25 Q1.35 -0.4 1.0 -0.6 0.25 -1.1 0.25 -1.5 0.25 -2.45 1.0 -3.3 1.6 -3.95 2.55 -4.3 L2.6 -4.35 2.9 -4.45 M4.55 -2.55 L4.15 -2.2 3.4 -1.65 3.1 -1.4 3.2 -1.35 Q3.75 -1.35 4.45 -2.4 L4.55 -2.55" fill="#708070" fill-rule="evenodd" stroke="none"/>
      <path d="M3.5 -3.1 Q3.5 -2.95 3.5 -2.85 3.7 -2.95 4.0 -3.15 4.3 -3.45 4.3 -3.5 L4.25 -3.6 Q4.2 -3.7 4.2 -3.75 3.9 -3.85 3.7 -3.55 L3.5 -3.25 3.5 -3.1 M4.3 -3.85 Q4.45 -3.75 4.45 -3.5 3.8 -2.65 3.5 -2.65 3.35 -2.65 3.35 -2.8 L3.35 -2.9 Q3.35 -3.6 3.9 -3.85 L4.3 -3.85 M3.9 -3.3 Q3.8 -3.3 3.8 -3.4 3.8 -3.5 3.9 -3.55 4.05 -3.55 4.05 -3.4 4.05 -3.3 3.9 -3.3" fill="#e0ffe0" fill-rule="evenodd" stroke="none"/>
    </g>
  </defs>
</svg>
