<?xml version="1.0" encoding="UTF-8" standalone="no"?>
<svg xmlns:ffdec="https://www.free-decompiler.com/flash" xmlns:xlink="http://www.w3.org/1999/xlink" ffdec:objectType="frame" height="240.45px" width="436.45px" xmlns="http://www.w3.org/2000/svg">
  <g transform="matrix(1.0, 0.0, 0.0, 1.0, 219.05, 217.85)">
    <use ffdec:characterId="1685" height="3.05" transform="matrix(-9.4674, 0.0, 0.0, 7.0, -63.8021, -16.0)" width="6.7" xlink:href="#shape0"/>
    <use ffdec:characterId="1707" height="18.5" transform="matrix(7.0, 0.0, 1.4976, 5.8573, -126.0551, -98.3109)" width="12.05" xlink:href="#shape1"/>
    <use ffdec:characterId="1691" height="10.8" transform="matrix(7.0, 0.0, 0.0, 5.1756, 67.55, -34.0489)" width="14.9" xlink:href="#shape2"/>
    <use ffdec:characterId="1709" height="24.85" transform="matrix(-8.3656, 0.0, -2.3455, 7.0, 184.5385, -158.0)" width="14.75" xlink:href="#shape3"/>
  </g>
  <defs>
    <g id="shape0" transform="matrix(1.0, 0.0, 0.0, 1.0, 1.6, 6.15)">
      <path d="M1.5 -3.45 L1.45 -3.45 1.1 -3.35 Q1.2 -3.45 1.35 -3.55 L1.5 -3.45" fill="#a06bb3" fill-rule="evenodd" stroke="none"/>
      <path d="M0.3 -3.25 L0.0 -3.2 -0.15 -3.25 -1.15 -3.1 -1.55 -3.1 Q-1.6 -3.1 -1.6 -3.25 -1.55 -3.45 -1.35 -3.55 -1.4 -3.6 -1.45 -3.85 -1.55 -4.1 -1.55 -4.2 L-1.55 -4.3 -1.5 -4.4 -1.5 -4.45 -1.55 -4.5 -1.55 -4.95 Q-1.4 -5.0 -1.1 -4.75 L-1.05 -4.7 -0.9 -4.65 -0.65 -4.5 Q-0.15 -4.25 0.25 -4.25 0.85 -4.25 1.3 -4.55 L1.8 -5.0 1.9 -4.95 1.9 -4.8 1.75 -4.35 2.15 -4.4 Q2.55 -4.4 3.65 -5.2 4.9 -6.1 5.05 -6.15 L5.1 -6.15 5.1 -6.0 Q5.1 -5.85 4.65 -5.15 L4.2 -4.45 4.2 -4.5 4.45 -4.5 4.45 -4.45 4.5 -4.35 Q4.5 -4.3 4.35 -4.05 L4.2 -3.75 Q4.35 -3.65 4.4 -3.55 L4.4 -3.45 Q4.35 -3.4 4.25 -3.4 L3.75 -3.45 3.4 -3.45 3.45 -3.45 Q3.7 -3.85 3.7 -4.15 3.7 -4.55 3.5 -4.6 3.35 -4.6 3.05 -4.35 2.9 -4.2 2.8 -4.05 L2.75 -4.05 Q2.5 -3.95 1.9 -4.1 1.6 -4.15 1.35 -4.25 1.2 -4.25 0.75 -3.95 0.3 -3.6 0.3 -3.45 L0.3 -3.25 M-0.8 -3.35 L-0.8 -3.35 M-0.7 -3.35 L-0.7 -3.35" fill="#523e59" fill-rule="evenodd" stroke="none"/>
      <path d="M3.4 -3.45 L1.5 -3.45 1.35 -3.55 Q1.2 -3.45 1.1 -3.35 L0.95 -3.35 0.4 -3.25 0.3 -3.25 0.3 -3.45 Q0.3 -3.6 0.75 -3.95 1.2 -4.25 1.35 -4.25 1.6 -4.15 1.9 -4.1 2.5 -3.95 2.75 -4.05 L2.8 -4.05 Q2.9 -4.2 3.05 -4.35 3.35 -4.6 3.5 -4.6 3.7 -4.55 3.7 -4.15 3.7 -3.85 3.45 -3.45 L3.4 -3.45 M2.85 -3.75 L3.0 -3.8 2.9 -3.75 2.85 -3.75 M3.25 -3.65 L3.25 -3.65" fill="#ba5fbf" fill-rule="evenodd" stroke="none"/>
    </g>
    <g id="shape1" transform="matrix(1.0, 0.0, 0.0, 1.0, 8.75, 18.5)">
      <path d="M-3.95 -15.3 L-3.9 -15.35 -3.9 -15.3 -3.95 -15.3 M-4.1 -12.7 Q-4.05 -12.8 -4.0 -13.0 L-4.1 -12.55 -4.1 -12.7 M-4.4 -10.7 L-4.4 -10.25 Q-4.4 -10.5 -4.4 -10.7 M-6.8 -12.95 L-6.8 -12.8 -6.85 -12.75 -6.8 -12.95 M-2.85 -4.75 L-2.8 -4.7 -2.85 -4.7 -2.85 -4.75 M-3.6 -6.45 L-3.6 -6.65 Q-3.6 -6.8 -3.55 -7.1 L-3.55 -6.3 -3.6 -6.45" fill="#d08ae6" fill-rule="evenodd" stroke="none"/>
      <path d="M-8.0 -9.6 L-8.0 -9.65 Q-8.1 -10.25 -7.75 -11.25 -7.55 -11.85 -7.5 -12.0 -7.35 -12.45 -7.35 -12.8 -7.35 -13.0 -7.55 -13.05 -7.75 -13.1 -7.85 -12.85 L-7.9 -12.75 -7.8 -13.05 -7.8 -13.0 -7.95 -12.8 -8.0 -12.8 Q-8.0 -12.85 -8.0 -12.95 -8.0 -13.15 -7.75 -13.8 L-7.45 -14.5 Q-7.25 -14.95 -7.1 -15.25 -7.05 -15.3 -6.95 -15.65 -6.8 -15.95 -6.55 -15.85 L-6.55 -15.7 -6.65 -15.45 Q-6.45 -15.7 -6.3 -15.85 L-6.3 -15.9 Q-6.05 -16.3 -5.85 -16.4 -5.75 -16.4 -5.65 -16.35 -5.6 -16.35 -5.55 -16.25 L-5.4 -16.5 Q-5.25 -16.7 -5.15 -16.7 L-4.95 -16.7 Q-4.75 -16.65 -4.65 -16.4 -4.65 -16.05 -4.6 -15.95 L-4.35 -16.25 -4.0 -16.75 -3.65 -17.2 -2.85 -18.2 -2.75 -18.2 Q-2.65 -18.2 -2.65 -18.1 L-2.6 -17.9 Q-2.55 -18.0 -2.5 -18.05 L-2.3 -18.35 -2.25 -18.35 Q-2.05 -18.55 -1.9 -18.45 L-1.9 -18.2 Q-1.9 -17.95 -2.1 -17.3 -2.2 -16.85 -2.25 -16.6 L-2.2 -16.65 Q-2.0 -16.9 -1.95 -16.9 L-1.75 -16.9 Q-1.55 -16.85 -1.55 -16.65 L-1.3 -16.75 -1.25 -16.8 -1.1 -16.9 Q-0.8 -17.2 -0.45 -17.2 L-0.35 -17.1 -0.25 -17.1 -0.25 -17.0 Q-0.45 -16.65 -0.85 -16.15 L-1.5 -15.3 Q-2.25 -14.25 -2.4 -13.6 -2.75 -12.45 -2.8 -11.7 L-2.75 -10.05 Q-2.75 -10.0 -2.8 -9.9 L-2.8 -9.75 -2.85 -9.75 -2.9 -10.65 -2.95 -10.95 -2.95 -10.55 Q-2.95 -8.7 -2.6 -7.5 -2.4 -6.7 -1.75 -5.2 L-1.7 -5.35 Q-1.6 -5.6 -1.5 -5.65 L-1.3 -5.65 Q-1.05 -5.3 -0.85 -4.6 -0.7 -3.85 -0.6 -3.5 -0.5 -3.15 -0.05 -2.45 0.6 -1.55 1.1 -1.55 1.3 -1.55 1.3 -1.9 1.3 -2.1 1.3 -2.3 1.3 -2.55 1.3 -2.6 1.35 -2.8 1.45 -2.85 1.6 -2.65 1.8 -2.25 2.0 -1.7 2.1 -1.55 2.15 -1.45 2.3 -1.25 L2.6 -0.85 Q2.7 -0.7 2.95 -0.55 L3.15 -0.5 3.15 -0.4 3.25 -0.35 3.1 -0.35 3.1 -0.3 Q3.05 -0.25 2.8 -0.2 L2.65 -0.2 2.6 -0.3 Q2.55 -0.4 2.4 -0.45 1.95 -0.6 1.9 -0.65 L1.65 -0.95 Q1.35 -1.2 1.1 -1.2 L0.7 -1.1 Q0.65 -1.15 0.3 -1.5 -0.05 -1.85 -0.25 -1.85 L-0.35 -1.95 Q-0.75 -2.35 -0.85 -2.85 -0.85 -2.9 -0.9 -3.25 -0.9 -3.6 -0.95 -3.8 -1.05 -4.5 -1.5 -4.5 L-1.8 -4.2 -2.1 -4.5 Q-2.25 -4.8 -2.4 -4.9 L-2.35 -4.9 Q-2.85 -5.6 -3.05 -6.6 -3.25 -7.5 -3.25 -9.05 -3.25 -9.7 -3.1 -10.7 L-2.85 -12.35 -2.75 -13.15 -2.65 -13.55 -2.6 -13.7 -2.6 -13.75 -2.65 -13.6 -2.6 -13.95 Q-2.6 -14.05 -2.3 -14.8 -2.05 -15.45 -2.05 -15.65 -2.05 -15.7 -2.1 -15.8 -2.15 -15.9 -2.3 -16.05 L-2.55 -16.05 Q-2.6 -16.0 -3.0 -15.7 L-3.05 -15.8 Q-3.05 -15.9 -3.05 -16.0 -3.05 -16.05 -2.85 -16.4 -2.65 -16.8 -2.65 -17.0 -2.65 -17.1 -2.7 -17.15 L-2.7 -17.25 Q-3.1 -17.3 -3.5 -16.85 L-4.0 -16.15 Q-4.1 -16.0 -4.25 -15.7 L-4.45 -15.3 Q-4.75 -14.85 -5.25 -14.9 -5.25 -15.05 -5.45 -15.4 -5.65 -15.75 -5.8 -15.75 -6.0 -15.75 -6.25 -15.05 -6.6 -14.3 -6.7 -14.15 L-6.75 -14.3 Q-6.8 -14.35 -6.9 -14.35 -6.95 -14.35 -7.05 -14.25 -7.15 -14.15 -7.4 -14.1 -7.5 -13.85 -7.5 -13.5 -7.5 -13.4 -7.45 -13.4 L-7.35 -13.4 Q-7.1 -13.45 -7.05 -13.25 L-7.15 -12.25 Q-7.15 -11.95 -7.2 -11.7 L-7.25 -11.7 -7.25 -11.5 -7.3 -11.15 Q-7.5 -10.5 -7.85 -9.9 -7.9 -9.75 -7.95 -9.6 L-8.0 -9.6 M-8.3 -0.45 Q-8.55 -0.45 -8.7 -0.5 -8.75 -0.55 -8.75 -0.65 -8.75 -0.7 -8.7 -0.8 -8.6 -0.9 -8.45 -0.85 -8.4 -1.1 -8.4 -1.8 -8.4 -2.4 -8.1 -2.3 -7.85 -2.2 -7.75 -1.95 -7.65 -2.4 -7.65 -2.65 L-7.9 -4.2 -8.0 -4.7 -7.95 -4.7 Q-8.2 -6.25 -8.2 -6.75 L-8.3 -7.7 Q-8.4 -8.65 -8.4 -8.85 -8.4 -10.05 -8.25 -11.1 L-8.25 -10.95 Q-8.25 -10.8 -8.25 -10.65 -8.2 -10.4 -8.15 -10.3 -8.05 -10.15 -8.05 -9.9 -8.05 -9.65 -8.05 -9.6 L-8.05 -8.8 Q-8.05 -8.55 -8.05 -8.5 -8.0 -8.3 -7.8 -8.2 L-7.65 -7.4 Q-7.7 -7.45 -7.75 -7.45 -7.9 -7.45 -7.9 -7.4 -7.95 -7.35 -7.95 -7.2 -7.9 -6.8 -7.85 -6.45 -7.75 -5.7 -7.55 -5.7 L-7.45 -5.75 -7.4 -5.75 -7.0 -2.95 Q-7.3 -3.05 -7.35 -2.9 -7.35 -2.85 -7.35 -2.7 L-7.35 -2.3 -7.25 -1.75 Q-7.3 -1.7 -7.7 -1.4 -7.85 -1.3 -7.9 -1.15 -8.05 -1.1 -8.1 -1.05 -8.3 -0.85 -8.3 -0.45 M-2.8 -17.8 L-2.75 -17.8 -2.8 -17.95 -2.85 -17.9 Q-2.8 -17.85 -2.8 -17.8 M-1.35 -16.35 L-1.45 -16.35 -1.45 -16.3 -1.35 -16.35 M-2.4 -14.6 L-2.4 -14.55 -2.35 -14.6 -2.4 -14.6 M-3.15 -9.25 L-3.15 -9.35 Q-3.15 -9.4 -3.15 -9.45 L-3.15 -9.25 M-3.1 -8.75 L-3.1 -8.75" fill="#523e59" fill-rule="evenodd" stroke="none"/>
      <path d="M2.65 -0.2 L2.25 -0.2 2.2 -0.15 1.65 -0.1 1.4 -0.05 0.5 -0.1 Q-0.15 -0.1 -0.15 -0.05 L-0.15 0.0 Q-1.1 -0.05 -1.35 -0.15 L-1.5 -0.25 Q-1.55 -0.3 -1.75 -0.3 L-2.45 -0.35 -3.95 -0.35 -5.2 -0.45 -5.75 -0.5 Q-6.3 -0.5 -6.45 -0.4 L-6.5 -0.3 Q-6.55 -0.3 -6.65 -0.3 L-7.05 -0.35 -7.3 -0.3 -7.6 -0.35 -7.8 -0.4 -7.95 -0.4 -8.3 -0.45 Q-8.3 -0.85 -8.1 -1.05 -8.05 -1.1 -7.9 -1.15 -7.85 -1.3 -7.7 -1.4 -7.3 -1.7 -7.25 -1.75 L-7.35 -2.3 -7.35 -2.7 Q-7.35 -2.85 -7.35 -2.9 -7.3 -3.05 -7.0 -2.95 L-7.4 -5.75 Q-7.35 -5.8 -7.35 -5.85 -7.35 -6.15 -7.45 -6.7 -7.55 -7.25 -7.65 -7.4 L-7.8 -8.2 Q-8.0 -8.3 -8.05 -8.5 -8.05 -8.55 -8.05 -8.8 L-8.05 -9.6 -8.0 -9.6 -7.95 -9.6 Q-7.9 -9.75 -7.85 -9.9 -7.5 -10.5 -7.3 -11.15 L-7.25 -11.5 -7.25 -11.7 -7.2 -11.7 Q-7.15 -11.95 -7.15 -12.25 L-7.05 -13.25 Q-7.1 -13.45 -7.35 -13.4 L-7.45 -13.4 Q-7.5 -13.4 -7.5 -13.5 -7.5 -13.85 -7.4 -14.1 -7.15 -14.15 -7.05 -14.25 -6.95 -14.35 -6.9 -14.35 -6.8 -14.35 -6.75 -14.3 L-6.7 -14.15 Q-6.6 -14.3 -6.25 -15.05 -6.0 -15.75 -5.8 -15.75 -5.65 -15.75 -5.45 -15.4 -5.25 -15.05 -5.25 -14.9 -4.75 -14.85 -4.45 -15.3 L-4.25 -15.7 Q-4.1 -16.0 -4.0 -16.15 L-3.5 -16.85 Q-3.1 -17.3 -2.7 -17.25 L-2.7 -17.15 Q-2.65 -17.1 -2.65 -17.0 -2.65 -16.8 -2.85 -16.4 -3.05 -16.05 -3.05 -16.0 -3.05 -15.9 -3.05 -15.8 L-3.0 -15.7 Q-2.6 -16.0 -2.55 -16.05 L-2.3 -16.05 Q-2.15 -15.9 -2.1 -15.8 -2.05 -15.7 -2.05 -15.65 -2.05 -15.45 -2.3 -14.8 -2.6 -14.05 -2.6 -13.95 L-2.65 -13.6 -2.65 -13.55 -2.65 -13.55 -2.75 -13.15 -2.85 -12.35 -3.1 -10.7 Q-3.25 -9.7 -3.25 -9.05 -3.25 -7.5 -3.05 -6.6 -2.85 -5.6 -2.35 -4.9 L-2.4 -4.9 Q-2.25 -4.8 -2.1 -4.5 L-1.8 -4.2 -1.5 -4.5 Q-1.05 -4.5 -0.95 -3.8 -0.9 -3.6 -0.9 -3.25 -0.85 -2.9 -0.85 -2.85 -0.75 -2.35 -0.35 -1.95 L-0.25 -1.85 Q-0.05 -1.85 0.3 -1.5 0.65 -1.15 0.7 -1.1 L1.1 -1.2 Q1.35 -1.2 1.65 -0.95 L1.9 -0.65 Q1.95 -0.6 2.4 -0.45 2.55 -0.4 2.6 -0.3 L2.65 -0.2 M-3.95 -15.3 L-3.9 -15.3 -3.9 -15.35 -3.95 -15.3 M-4.1 -12.7 L-4.1 -12.55 -4.0 -13.0 Q-4.05 -12.8 -4.1 -12.7 M-4.4 -10.7 Q-4.4 -10.5 -4.4 -10.25 L-4.4 -10.7 M-3.15 -11.9 L-3.15 -11.6 Q-3.15 -11.7 -3.15 -11.8 L-3.15 -11.9 M-5.7 -12.4 Q-5.75 -12.75 -5.9 -12.8 -6.0 -12.8 -6.1 -12.5 -6.2 -12.15 -6.2 -11.5 L-6.2 -10.85 Q-6.15 -10.45 -6.0 -10.2 -5.8 -9.9 -5.75 -9.5 -5.75 -9.3 -5.75 -8.9 L-5.7 -8.9 -5.7 -9.4 -5.75 -9.75 -5.8 -10.05 Q-5.8 -10.25 -5.7 -10.7 -5.6 -11.15 -5.6 -11.35 -5.6 -12.0 -5.7 -12.4 M-6.8 -12.95 L-6.85 -12.75 -6.8 -12.8 -6.8 -12.95 M-7.25 -7.2 L-7.3 -7.15 Q-7.35 -7.1 -7.35 -6.85 L-7.35 -6.8 -7.15 -6.0 -7.15 -5.95 -7.1 -5.85 Q-6.8 -4.8 -6.6 -4.8 L-6.5 -4.85 -6.45 -4.85 -6.4 -4.95 Q-6.4 -5.05 -6.55 -5.55 -6.7 -6.15 -6.8 -6.35 -6.9 -6.95 -7.15 -7.15 -7.2 -7.25 -7.25 -7.2 M-6.4 -6.4 L-6.4 -6.15 Q-6.4 -5.7 -6.0 -4.8 -5.65 -4.1 -5.3 -3.6 L-5.3 -3.65 Q-5.3 -3.7 -5.35 -3.95 L-5.4 -4.25 Q-5.4 -4.7 -5.75 -5.55 -6.1 -6.5 -6.4 -6.4 M-3.6 -6.45 L-3.55 -6.3 -3.55 -7.1 Q-3.6 -6.8 -3.6 -6.65 L-3.6 -6.45 M-2.85 -4.75 L-2.85 -4.7 -2.8 -4.7 -2.85 -4.75" fill="#ba5fbf" fill-rule="evenodd" stroke="none"/>
    </g>
    <g id="shape2" transform="matrix(1.0, 0.0, 0.0, 1.0, 4.0, 11.95)">
      <path d="M6.35 -4.75 L6.35 -4.75 M5.9 -3.5 L6.0 -3.45 5.8 -3.3 Q5.85 -3.4 5.9 -3.5 M6.95 -5.8 L6.95 -5.8" fill="#a06bb3" fill-rule="evenodd" stroke="none"/>
      <path d="M0.4 -3.3 L-0.2 -3.2 -1.85 -3.15 Q-2.0 -3.05 -3.3 -2.95 L-3.55 -3.0 -3.55 -2.95 Q-3.6 -2.95 -3.6 -3.1 -3.6 -3.3 -3.45 -3.3 L-3.45 -3.35 Q-3.7 -3.65 -3.7 -3.75 -3.7 -3.85 -3.65 -3.85 L-3.55 -3.9 Q-3.1 -3.85 -3.0 -3.75 L-2.8 -3.7 Q-2.95 -4.0 -3.4 -4.6 -3.75 -5.15 -3.7 -5.6 L-3.6 -5.65 Q-3.3 -5.6 -3.1 -5.3 -2.9 -5.1 -2.7 -5.0 -3.1 -5.9 -3.65 -6.95 -4.0 -7.75 -4.0 -8.75 -4.0 -8.9 -3.95 -8.95 L-3.9 -9.0 -3.85 -8.95 -3.75 -8.95 -2.75 -7.7 -2.55 -7.4 Q-1.95 -6.65 -1.8 -6.25 L-1.8 -6.2 Q-1.85 -6.2 -1.85 -6.15 L-2.0 -6.25 Q-2.25 -6.65 -2.3 -6.65 -2.4 -6.65 -2.4 -6.6 -2.4 -6.55 -2.45 -6.55 -2.35 -6.2 -2.1 -5.8 L-1.95 -5.5 -1.85 -5.35 Q-1.65 -5.0 -1.1 -4.65 -0.65 -4.3 -0.5 -4.3 0.1 -4.3 0.3 -4.45 L0.4 -4.55 Q0.75 -4.7 1.15 -5.1 1.65 -5.6 1.9 -6.0 L2.6 -6.95 Q3.25 -7.9 3.25 -8.1 L3.25 -8.35 3.2 -8.35 Q2.8 -8.3 2.4 -7.8 2.9 -8.75 3.55 -9.6 4.75 -11.1 4.75 -9.6 4.75 -9.15 4.35 -8.25 4.2 -7.8 3.9 -7.2 3.5 -6.4 3.25 -5.85 L3.9 -6.5 4.9 -7.45 Q5.35 -7.85 5.85 -8.35 6.4 -8.95 6.65 -9.35 L6.8 -9.35 Q6.75 -9.2 6.75 -9.1 6.75 -9.05 6.75 -8.95 6.8 -8.8 6.95 -8.8 7.5 -8.8 8.1 -10.55 L8.05 -10.7 8.05 -10.8 Q7.8 -10.85 7.6 -10.7 7.65 -10.85 8.05 -11.35 8.5 -11.85 8.65 -11.95 L8.8 -11.9 Q8.95 -11.85 8.95 -11.65 L9.0 -11.35 Q9.0 -11.1 8.9 -10.75 8.9 -10.2 8.7 -9.65 8.25 -8.6 8.2 -8.4 8.85 -8.65 9.6 -9.5 10.35 -10.4 10.7 -10.55 L10.85 -10.5 10.9 -10.45 10.9 -10.3 Q10.9 -9.65 10.25 -8.35 9.55 -7.0 9.4 -6.55 L9.35 -6.5 9.55 -6.65 Q9.65 -6.75 9.8 -6.8 L10.1 -6.75 10.15 -6.65 10.15 -6.45 Q10.15 -6.05 9.55 -5.15 9.0 -4.4 8.65 -4.05 8.15 -3.6 7.55 -3.15 L7.45 -3.0 Q6.95 -2.55 6.45 -2.25 5.1 -1.5 2.9 -1.15 L2.75 -1.25 3.2 -1.4 3.05 -1.4 2.85 -1.3 2.7 -1.3 Q2.65 -1.35 2.65 -1.45 2.65 -1.6 2.7 -1.6 L2.8 -1.6 Q2.95 -1.65 3.05 -1.7 3.25 -1.7 3.5 -1.7 L3.6 -1.65 Q4.35 -1.85 4.85 -2.2 5.0 -2.3 5.15 -2.45 L5.3 -2.45 6.6 -3.6 Q7.7 -4.7 7.7 -5.1 L7.7 -5.3 Q7.65 -5.3 7.6 -5.35 L7.4 -5.35 Q7.15 -5.25 6.95 -5.05 L6.6 -4.65 6.6 -4.7 7.45 -6.0 Q8.0 -6.9 8.2 -7.45 L8.2 -7.65 8.0 -7.65 Q7.6 -7.15 6.85 -6.3 5.85 -5.25 5.2 -4.75 L5.2 -4.8 Q5.35 -5.05 5.55 -5.5 5.85 -6.1 5.85 -6.35 L5.85 -6.6 5.65 -6.6 Q4.45 -5.65 3.7 -5.0 2.6 -4.1 2.35 -3.7 L2.35 -3.8 2.6 -4.6 2.9 -5.4 Q2.9 -6.45 1.55 -4.8 1.0 -4.15 0.4 -3.3 M5.35 -3.2 L5.05 -3.3 Q4.6 -3.45 4.35 -3.55 L4.05 -3.6 3.8 -3.65 3.15 -3.6 3.45 -3.9 Q4.15 -4.65 4.5 -4.7 L4.5 -4.6 Q4.5 -4.5 4.45 -4.2 4.35 -3.85 4.35 -3.7 L4.35 -3.55 4.4 -3.6 4.4 -3.55 4.6 -3.55 Q4.7 -3.55 4.9 -3.7 5.1 -3.9 5.45 -3.95 5.5 -3.8 5.55 -3.65 5.5 -3.45 5.35 -3.2 M1.65 -3.5 L1.35 -3.5 1.7 -3.8 1.7 -3.75 Q1.65 -3.65 1.65 -3.5 M4.15 -8.8 Q4.15 -9.1 4.05 -9.2 4.0 -9.3 3.85 -9.25 3.6 -9.15 3.6 -8.65 3.6 -8.45 3.6 -8.35 3.65 -8.3 3.75 -8.25 3.9 -8.35 4.0 -8.55 4.15 -8.75 4.15 -8.8 M3.4 -8.5 Q3.35 -8.15 2.9 -7.45 L2.85 -7.35 Q3.35 -8.0 3.4 -8.45 L3.4 -8.5 M-3.2 -6.45 L-3.3 -6.65 Q-3.6 -7.4 -3.75 -7.9 -3.6 -7.4 -3.25 -6.55 L-3.2 -6.45" fill="#523e59" fill-rule="evenodd" stroke="none"/>
      <path d="M0.4 -3.3 Q1.0 -4.15 1.55 -4.8 2.9 -6.45 2.9 -5.4 L2.6 -4.6 2.35 -3.8 2.35 -3.7 Q2.6 -4.1 3.7 -5.0 4.45 -5.65 5.65 -6.6 L5.85 -6.6 5.85 -6.35 Q5.85 -6.1 5.55 -5.5 5.35 -5.05 5.2 -4.8 L5.2 -4.75 Q5.85 -5.25 6.85 -6.3 7.6 -7.15 8.0 -7.65 L8.2 -7.65 8.2 -7.45 Q8.0 -6.9 7.45 -6.0 L6.6 -4.7 6.6 -4.65 6.95 -5.05 Q7.15 -5.25 7.4 -5.35 L7.6 -5.35 Q7.65 -5.3 7.7 -5.3 L7.7 -5.1 Q7.7 -4.7 6.6 -3.6 L5.3 -2.45 5.15 -2.45 5.35 -2.65 5.55 -2.8 5.5 -2.8 5.65 -3.05 Q5.55 -3.15 5.35 -3.2 5.5 -3.45 5.55 -3.65 5.5 -3.8 5.45 -3.95 5.1 -3.9 4.9 -3.7 4.7 -3.55 4.6 -3.55 L4.4 -3.55 4.4 -3.6 4.35 -3.55 4.35 -3.7 Q4.35 -3.85 4.45 -4.2 4.5 -4.5 4.5 -4.6 L4.5 -4.7 Q4.15 -4.65 3.45 -3.9 L3.15 -3.6 1.65 -3.5 Q1.65 -3.65 1.7 -3.75 L1.7 -3.8 1.35 -3.5 1.2 -3.45 0.95 -3.45 0.9 -3.4 0.45 -3.3 0.4 -3.3 M4.15 -8.8 Q4.15 -8.75 4.0 -8.55 3.9 -8.35 3.75 -8.25 3.65 -8.3 3.6 -8.35 3.6 -8.45 3.6 -8.65 3.6 -9.15 3.85 -9.25 4.0 -9.3 4.05 -9.2 4.15 -9.1 4.15 -8.8 M6.95 -5.8 L6.95 -5.8 M5.9 -3.5 Q5.85 -3.4 5.8 -3.3 L6.0 -3.45 5.9 -3.5 M6.35 -4.75 L6.35 -4.75" fill="#ba5fbf" fill-rule="evenodd" stroke="none"/>
    </g>
    <g id="shape3" transform="matrix(1.0, 0.0, 0.0, 1.0, 10.0, 24.7)">
      <path d="M-5.8 -0.4 L-5.8 -0.35 Q-5.8 -0.25 -5.8 -0.4" fill="#ffffff" fill-rule="evenodd" stroke="none"/>
      <path d="M-2.85 -17.65 L-2.85 -17.65 M-4.7 -12.75 L-4.7 -12.7 -4.7 -12.75 M-4.65 -15.9 L-4.95 -15.55 -5.1 -15.35 -5.15 -15.15 Q-5.2 -15.1 -5.3 -15.0 L-5.5 -14.45 -5.5 -14.4 -5.5 -14.65 Q-5.4 -14.9 -5.2 -15.25 L-4.95 -15.75 Q-4.85 -15.95 -4.75 -15.95 L-4.65 -15.9 M-6.15 -0.3 L-6.15 -0.3" fill="#d08ae6" fill-rule="evenodd" stroke="none"/>
      <path d="M-9.3 -0.5 L-9.45 -0.4 -9.55 -0.45 Q-9.55 -0.5 -9.5 -0.7 -9.5 -0.9 -9.5 -1.0 -9.5 -1.1 -9.6 -1.3 -9.7 -1.55 -9.75 -1.7 L-9.85 -2.4 -9.85 -3.05 -9.95 -3.4 Q-10.0 -3.65 -10.0 -3.75 -10.0 -3.85 -9.95 -4.05 -9.9 -4.25 -9.85 -4.4 -9.75 -4.15 -9.45 -3.4 -9.2 -2.65 -9.05 -2.35 L-9.0 -2.35 -8.95 -2.45 Q-9.1 -3.0 -9.25 -3.8 -9.4 -4.4 -9.4 -5.05 -9.4 -5.3 -9.35 -5.35 -9.35 -5.55 -9.2 -5.6 L-8.95 -5.55 Q-8.55 -5.05 -8.3 -4.05 L-8.1 -3.25 Q-8.1 -4.6 -7.9 -5.1 -7.65 -4.9 -7.6 -4.35 -7.6 -3.7 -7.55 -3.55 L-7.3 -2.75 Q-7.2 -2.5 -7.05 -2.25 -7.15 -2.55 -7.15 -2.95 -7.2 -3.35 -7.2 -4.0 L-7.2 -4.15 Q-6.95 -4.15 -6.8 -3.7 -6.65 -3.1 -6.55 -2.85 -6.3 -2.3 -6.2 -2.05 -6.0 -1.65 -5.7 -1.35 -5.6 -1.6 -5.55 -1.8 -5.5 -2.1 -5.5 -2.4 L-5.5 -2.45 -5.35 -2.45 Q-5.2 -2.45 -5.1 -2.15 L-5.1 -2.1 Q-4.9 -1.9 -4.7 -1.6 -4.45 -1.25 -4.25 -1.05 L-4.05 -1.05 -4.0 -1.15 -4.0 -1.35 Q-4.0 -1.6 -4.2 -2.3 -4.25 -2.7 -4.4 -3.15 L-4.6 -4.05 Q-4.7 -4.7 -4.75 -4.9 L-5.1 -6.7 Q-5.3 -7.75 -5.6 -8.45 -5.6 -8.35 -5.7 -8.1 L-5.8 -7.8 -5.9 -7.8 Q-5.95 -8.45 -6.25 -10.5 -6.25 -10.55 -6.4 -10.7 -6.55 -10.85 -6.6 -10.9 -6.75 -10.65 -6.85 -10.4 -6.9 -10.1 -6.9 -9.85 L-6.95 -9.85 -6.95 -9.5 Q-7.0 -9.45 -7.05 -9.45 -7.1 -9.55 -7.2 -9.8 -7.25 -10.05 -7.4 -10.05 -7.65 -10.05 -7.85 -9.7 L-8.05 -9.3 -8.2 -9.25 Q-8.4 -9.3 -8.4 -9.5 -8.4 -9.6 -8.4 -9.8 L-8.4 -10.35 -8.45 -10.85 Q-8.45 -11.0 -8.4 -11.15 L-8.4 -11.2 Q-8.4 -11.65 -8.2 -12.15 L-8.15 -12.1 Q-8.15 -12.05 -8.15 -11.95 -8.05 -12.1 -7.95 -12.1 L-8.05 -11.65 Q-8.15 -11.2 -8.15 -11.1 -8.15 -11.0 -8.1 -10.9 L-8.05 -10.7 Q-7.8 -10.95 -7.6 -11.55 -7.45 -12.0 -7.25 -12.25 -7.15 -12.4 -7.05 -12.5 -7.0 -12.4 -6.95 -12.35 L-6.9 -12.25 -6.45 -13.95 Q-6.05 -15.55 -6.05 -16.05 -6.05 -16.15 -6.1 -16.2 L-6.1 -16.25 -6.2 -16.3 -6.3 -16.25 Q-6.6 -15.75 -6.75 -15.5 -7.0 -15.1 -7.25 -14.75 -7.4 -14.8 -7.45 -14.85 -7.55 -14.7 -7.6 -14.65 -7.7 -14.4 -7.75 -14.35 L-7.85 -14.35 -7.85 -14.3 Q-7.9 -14.35 -7.9 -14.45 L-7.9 -14.45 Q-7.8 -14.9 -7.7 -15.6 L-7.55 -16.8 Q-7.35 -18.3 -6.8 -19.1 -6.75 -18.6 -6.8 -18.0 -6.6 -18.2 -6.45 -18.6 -6.35 -18.85 -6.2 -19.3 -5.9 -20.2 -5.4 -20.55 L-5.25 -20.55 Q-5.15 -20.25 -5.15 -20.0 -5.15 -19.7 -5.15 -19.45 -5.2 -19.15 -5.3 -18.95 -5.3 -18.85 -5.35 -18.75 -5.45 -18.45 -5.5 -18.4 -5.6 -18.6 -5.5 -18.85 L-5.5 -18.9 Q-5.7 -18.8 -5.8 -18.65 -5.8 -18.55 -5.85 -18.3 L-5.95 -18.0 Q-6.0 -17.85 -6.0 -17.75 -6.0 -17.65 -5.95 -17.5 L-5.9 -17.3 Q-5.75 -17.3 -5.65 -17.5 L-5.7 -17.55 Q-5.3 -18.05 -4.95 -18.95 L-4.45 -20.3 -4.3 -20.3 -4.2 -20.05 Q-4.15 -19.9 -4.2 -19.75 L-4.2 -18.95 Q-4.1 -19.15 -4.0 -19.45 -3.85 -19.85 -3.75 -20.05 L-3.7 -20.05 -3.55 -20.45 Q-3.25 -21.0 -2.75 -21.9 -2.15 -22.85 -1.5 -23.7 -0.7 -24.65 -0.35 -24.7 L-0.2 -24.7 Q-0.05 -24.6 0.0 -24.35 0.0 -24.25 0.0 -24.0 0.0 -23.6 -0.15 -23.3 -0.45 -22.9 -0.65 -22.4 L-0.7 -22.4 -0.5 -22.45 Q-0.4 -22.5 -0.25 -22.6 L0.0 -22.55 0.05 -22.5 Q0.05 -22.45 0.05 -22.35 0.05 -22.05 -0.3 -21.25 L-0.75 -20.2 -0.85 -20.1 -0.9 -20.1 Q-0.95 -20.3 -0.85 -20.55 L-0.85 -20.85 Q-1.1 -20.75 -1.35 -19.75 -1.6 -18.9 -1.6 -18.25 L-1.55 -17.85 -1.5 -17.8 Q-0.4 -18.25 0.35 -19.2 0.5 -19.35 0.7 -19.65 0.6 -19.65 0.55 -19.65 0.65 -19.9 1.15 -20.7 1.55 -21.4 1.7 -21.75 L1.7 -21.8 Q1.35 -21.7 1.05 -21.4 0.7 -21.05 0.6 -21.0 L0.55 -20.95 Q0.55 -21.0 0.55 -21.1 0.55 -21.2 0.85 -21.5 L1.15 -21.9 1.35 -22.3 Q1.5 -22.55 1.7 -22.7 2.5 -23.5 2.85 -23.7 3.2 -23.7 3.4 -23.4 3.5 -23.2 3.5 -22.9 3.5 -22.8 3.5 -22.7 L3.4 -22.55 Q3.6 -22.65 3.75 -22.8 3.85 -22.9 4.0 -22.9 4.2 -22.9 4.25 -22.6 L4.25 -22.25 Q4.25 -21.75 3.6 -20.9 L3.0 -20.2 Q2.65 -19.8 2.5 -19.5 L2.45 -19.45 Q2.8 -19.45 2.85 -19.55 3.0 -19.6 3.15 -19.65 L3.4 -19.65 Q3.65 -19.7 3.7 -19.7 4.45 -19.65 4.55 -19.6 L4.6 -19.5 Q4.65 -19.45 4.75 -19.4 L4.75 -19.1 4.7 -19.05 4.55 -19.0 4.5 -18.95 Q4.45 -18.95 4.45 -19.0 2.15 -18.5 0.35 -17.0 -1.05 -15.85 -2.0 -14.3 -2.9 -12.8 -3.4 -11.7 -4.0 -10.25 -4.0 -9.05 -4.0 -8.25 -3.7 -7.05 L-3.55 -6.55 -3.55 -6.6 Q-3.3 -6.45 -3.2 -5.95 -3.0 -5.35 -2.9 -5.2 L-2.55 -4.45 Q-2.35 -3.95 -1.95 -3.75 L-1.7 -3.8 Q-1.65 -3.9 -1.65 -4.1 L-1.6 -4.5 -1.6 -5.35 -1.65 -5.15 Q-1.65 -4.95 -1.7 -4.9 -1.85 -5.15 -1.85 -5.55 L-1.9 -6.25 Q-1.9 -7.15 -1.6 -7.85 -1.4 -8.4 -1.05 -8.7 -0.85 -8.95 -0.6 -9.0 L-0.55 -9.0 Q-0.3 -9.25 0.05 -9.05 0.1 -8.9 0.15 -8.8 L0.2 -8.7 Q0.2 -8.55 0.0 -8.1 L-0.35 -7.25 Q-0.85 -5.9 -0.85 -5.15 -0.85 -4.5 -0.35 -3.5 0.05 -2.7 0.55 -2.15 0.5 -2.3 0.45 -2.5 0.45 -2.75 0.45 -3.05 0.45 -3.8 0.5 -4.05 0.65 -4.65 1.15 -5.05 L1.35 -5.05 1.4 -5.0 1.45 -5.05 1.6 -5.0 1.7 -4.9 Q1.7 -4.8 1.7 -4.7 1.7 -4.4 1.6 -3.7 1.5 -3.05 1.5 -2.7 1.5 -2.05 1.9 -1.35 2.4 -0.6 3.05 -0.35 L3.1 -0.2 3.1 -0.15 Q3.05 -0.1 2.95 -0.1 2.85 -0.1 2.7 -0.15 L2.45 -0.15 2.1 -0.1 2.05 -0.15 Q1.75 -0.55 1.7 -0.75 1.35 -1.55 1.05 -1.65 0.8 -1.7 0.8 -1.05 L0.85 -0.5 0.9 -0.3 Q0.45 -0.4 0.2 -0.7 0.05 -0.9 -0.15 -1.25 L-0.15 -1.3 -0.4 -1.8 Q-0.75 -2.45 -0.75 -2.6 -0.75 -2.95 -0.85 -3.15 -1.0 -3.45 -1.15 -3.9 -1.25 -3.8 -1.3 -3.4 L-1.35 -3.35 -1.4 -3.35 -1.4 -3.1 -1.35 -3.05 -1.4 -2.9 -1.35 -2.65 -1.45 -2.5 Q-1.5 -2.4 -1.5 -2.25 -1.5 -2.2 -1.45 -2.15 L-1.3 -2.0 -1.3 -1.8 -1.25 -1.35 -1.25 -1.3 -1.35 -1.15 -1.7 -1.35 Q-2.1 -1.55 -2.3 -1.75 -2.65 -2.05 -2.75 -2.5 -2.8 -2.7 -2.95 -3.05 -3.1 -3.45 -3.15 -3.65 -3.25 -3.8 -3.35 -4.25 -3.45 -4.55 -3.8 -4.45 -3.85 -4.45 -3.85 -4.3 -3.85 -3.85 -3.7 -3.3 -3.55 -2.6 -3.5 -2.1 -3.5 -1.9 -3.5 -1.5 L-3.5 -1.4 -3.6 -1.3 Q-3.6 -1.05 -3.7 -0.65 L-4.05 -0.65 -4.35 -0.7 Q-4.4 -0.75 -4.65 -1.25 -4.95 -1.7 -5.1 -1.7 -5.2 -1.7 -5.25 -1.65 L-5.3 -1.6 Q-5.3 -1.4 -5.35 -1.1 -5.45 -0.7 -5.55 -0.7 L-5.9 -0.75 Q-6.0 -0.85 -6.4 -1.5 -6.75 -2.1 -6.8 -2.1 -6.95 -2.1 -7.0 -1.95 L-7.05 -1.75 Q-7.2 -2.25 -7.25 -2.45 -7.45 -2.95 -7.65 -2.95 L-7.8 -2.95 -7.85 -2.9 Q-7.9 -2.4 -7.9 -2.25 -8.1 -3.45 -8.45 -3.75 -8.6 -3.85 -8.7 -3.7 -8.8 -3.5 -8.8 -3.0 -8.8 -2.85 -8.65 -2.25 L-8.5 -1.6 Q-8.5 -1.5 -8.55 -1.45 L-8.6 -1.4 Q-8.65 -1.4 -8.75 -1.6 -8.9 -1.8 -9.05 -1.8 -9.3 -1.8 -9.35 -1.45 -9.35 -1.3 -9.35 -0.8 -9.35 -0.65 -9.3 -0.5 M2.9 -21.4 Q2.9 -21.45 2.85 -21.55 L2.7 -21.7 2.4 -21.7 1.85 -21.2 Q1.35 -20.8 1.35 -20.5 1.35 -20.35 1.4 -20.2 L1.4 -20.05 Q1.4 -19.9 0.85 -19.3 0.7 -19.1 0.45 -18.65 0.25 -18.2 0.1 -18.0 0.9 -18.4 1.85 -19.4 2.9 -20.55 2.9 -21.4 M0.9 -4.1 L1.0 -4.35 Q0.9 -4.2 0.8 -3.9 0.7 -3.5 0.7 -3.25 0.7 -3.15 0.8 -2.8 L0.8 -3.2 Q0.8 -3.15 0.85 -3.05 0.9 -2.8 1.05 -2.7 L1.35 -3.35 Q1.55 -3.95 1.55 -4.05 1.55 -4.3 1.45 -4.4 L1.15 -4.4 Q1.0 -4.3 0.9 -4.1 M-5.85 -13.35 L-5.9 -13.15 Q-6.0 -12.9 -6.05 -12.4 -6.1 -12.0 -6.1 -11.75 -6.05 -11.1 -5.95 -10.45 -5.75 -9.2 -5.45 -9.2 -5.3 -9.2 -5.25 -9.35 -5.25 -9.4 -5.2 -9.6 -5.2 -8.85 -4.85 -7.6 -4.5 -6.25 -4.0 -5.4 L-3.95 -5.45 -3.9 -5.55 Q-3.9 -5.85 -4.05 -6.5 -4.2 -7.3 -4.25 -7.45 -4.25 -7.65 -4.45 -8.45 -4.55 -9.0 -4.55 -9.45 -4.55 -9.8 -4.1 -11.35 L-3.95 -12.05 -3.6 -12.85 Q-3.15 -13.9 -2.8 -14.45 -2.6 -14.8 -2.3 -15.2 -2.05 -15.6 -1.8 -15.85 -1.7 -16.0 -1.2 -16.45 -0.75 -16.9 -0.75 -17.1 -0.75 -17.2 -0.8 -17.25 L-0.95 -17.4 Q-1.25 -17.5 -1.45 -17.35 -1.55 -17.3 -1.75 -17.15 -1.9 -17.15 -2.0 -17.2 -2.0 -17.3 -2.0 -17.45 -2.05 -17.65 -2.05 -17.75 -2.05 -17.85 -1.9 -18.5 L-1.75 -19.15 Q-1.75 -19.25 -1.75 -19.3 L-1.8 -19.3 -1.85 -19.25 Q-1.75 -19.5 -1.55 -20.25 -1.35 -21.1 -1.35 -21.2 -1.35 -21.55 -1.5 -21.65 L-1.85 -21.65 Q-2.1 -21.55 -2.3 -21.35 -2.5 -21.1 -2.6 -20.8 -2.75 -20.3 -2.9 -19.95 -3.05 -19.55 -3.25 -19.25 L-3.25 -19.35 Q-3.3 -19.4 -3.4 -19.4 -3.7 -19.4 -3.9 -18.8 L-4.0 -18.55 -4.05 -18.45 Q-4.15 -18.2 -4.15 -17.95 -4.15 -17.75 -4.1 -17.6 -4.05 -17.25 -3.85 -17.25 -3.6 -17.25 -3.25 -17.8 L-3.25 -17.75 Q-3.25 -17.7 -3.2 -17.55 L-3.15 -17.5 Q-3.45 -17.3 -3.85 -16.75 L-4.15 -16.25 -4.15 -16.4 Q-4.15 -16.7 -4.4 -17.2 -4.55 -17.55 -4.6 -17.7 -4.45 -17.85 -4.45 -18.3 -4.45 -18.45 -4.5 -18.5 -4.5 -18.55 -4.55 -18.6 L-4.7 -18.35 Q-4.95 -18.15 -5.05 -17.9 -5.1 -17.8 -5.1 -17.65 L-5.1 -17.6 Q-5.4 -16.85 -5.55 -16.6 -5.6 -16.6 -5.85 -16.8 -6.05 -16.95 -6.3 -17.0 L-6.3 -17.55 Q-6.3 -17.95 -6.55 -17.95 -6.8 -17.95 -7.05 -17.35 -7.25 -16.85 -7.25 -16.55 -7.25 -16.4 -7.15 -16.2 -7.05 -15.95 -6.9 -15.95 -6.75 -15.95 -6.55 -16.2 -6.35 -16.55 -6.25 -16.6 L-6.25 -16.35 -6.2 -16.3 Q-5.95 -16.3 -5.95 -16.1 L-5.95 -15.0 Q-5.95 -14.65 -6.0 -14.45 -6.05 -14.3 -6.2 -13.95 -6.3 -13.65 -6.3 -13.45 -6.3 -13.3 -6.25 -13.1 -6.2 -12.85 -6.15 -12.65 -5.95 -12.95 -5.8 -13.65 L-5.75 -13.85 Q-5.7 -13.9 -5.65 -13.95 -5.8 -13.6 -5.85 -13.35 M-3.75 -14.95 L-4.15 -13.45 -4.3 -12.9 -4.45 -12.7 -4.4 -13.1 Q-4.4 -13.25 -4.45 -13.35 L-3.95 -14.5 -3.75 -14.95 M-4.65 -15.9 L-4.5 -15.9 Q-4.4 -15.95 -4.35 -15.95 L-4.6 -15.6 Q-4.65 -15.6 -4.65 -15.85 L-4.65 -15.9 M-1.2 -7.7 Q-1.4 -7.5 -1.5 -7.15 -1.65 -6.8 -1.65 -6.6 -1.65 -6.55 -1.55 -6.05 L-1.35 -5.35 -1.3 -5.4 Q-1.2 -5.85 -0.95 -6.35 -0.75 -6.8 -0.75 -7.4 -0.75 -7.9 -0.9 -7.95 -1.0 -8.0 -1.2 -7.7 M-1.1 -8.15 Q-1.2 -8.0 -1.25 -7.85 L-1.1 -8.15 M-6.85 -10.85 Q-6.6 -11.1 -6.6 -11.4 -6.6 -11.8 -6.75 -11.95 L-7.0 -11.9 Q-7.2 -11.8 -7.3 -11.5 -7.45 -11.2 -7.45 -10.8 -7.45 -10.7 -7.4 -10.6 -7.35 -10.55 -7.25 -10.55 L-6.85 -10.85 M-1.9 -3.5 Q-1.85 -3.5 -1.8 -3.55 -2.0 -3.45 -2.25 -3.7 L-2.45 -3.95 -2.35 -3.7 Q-2.2 -3.5 -1.95 -3.5 L-1.9 -3.5" fill="#523e59" fill-rule="evenodd" stroke="none"/>
      <path d="M2.1 -0.1 L2.05 -0.05 1.45 0.0 Q0.85 0.05 0.3 0.05 L0.15 0.1 -0.05 0.15 -0.75 0.1 -1.05 0.0 -1.5 0.0 -1.6 -0.05 -2.0 -0.1 -2.05 -0.1 -2.1 -0.15 -2.2 -0.15 -2.5 -0.2 -2.6 -0.2 -3.2 -0.25 -4.3 -0.25 -4.85 -0.3 -5.0 -0.3 -5.45 -0.4 -5.8 -0.4 Q-5.8 -0.3 -6.1 -0.3 L-6.15 -0.3 -6.35 -0.3 -6.6 -0.3 -6.65 -0.25 -7.45 -0.25 -7.95 -0.35 Q-8.4 -0.45 -8.5 -0.5 L-8.85 -0.5 Q-8.95 -0.45 -8.95 -0.35 -8.95 -0.3 -9.05 -0.3 -9.2 -0.3 -9.3 -0.55 L-9.3 -0.5 Q-9.35 -0.65 -9.35 -0.8 -9.35 -1.3 -9.35 -1.45 -9.3 -1.8 -9.05 -1.8 -8.9 -1.8 -8.75 -1.6 -8.65 -1.4 -8.6 -1.4 L-8.55 -1.45 Q-8.5 -1.5 -8.5 -1.6 L-8.65 -2.25 Q-8.8 -2.85 -8.8 -3.0 -8.8 -3.5 -8.7 -3.7 -8.6 -3.85 -8.45 -3.75 -8.1 -3.45 -7.9 -2.25 -7.9 -2.4 -7.85 -2.9 L-7.8 -2.95 -7.65 -2.95 Q-7.45 -2.95 -7.25 -2.45 -7.2 -2.25 -7.05 -1.75 L-7.0 -1.95 Q-6.95 -2.1 -6.8 -2.1 -6.75 -2.1 -6.4 -1.5 -6.0 -0.85 -5.9 -0.75 L-5.55 -0.7 Q-5.45 -0.7 -5.35 -1.1 -5.3 -1.4 -5.3 -1.6 L-5.25 -1.65 Q-5.2 -1.7 -5.1 -1.7 -4.95 -1.7 -4.65 -1.25 -4.4 -0.75 -4.35 -0.7 L-4.05 -0.65 -3.7 -0.65 Q-3.6 -1.05 -3.6 -1.3 L-3.5 -1.4 -3.5 -1.5 Q-3.5 -1.9 -3.5 -2.1 -3.55 -2.6 -3.7 -3.3 -3.85 -3.85 -3.85 -4.3 -3.85 -4.45 -3.8 -4.45 -3.45 -4.55 -3.35 -4.25 -3.25 -3.8 -3.15 -3.65 -3.1 -3.45 -2.95 -3.05 -2.8 -2.7 -2.75 -2.5 -2.65 -2.05 -2.3 -1.75 -2.1 -1.55 -1.7 -1.35 L-1.35 -1.15 -1.25 -1.3 -1.25 -1.35 -1.3 -1.8 -1.3 -2.0 -1.45 -2.15 Q-1.5 -2.2 -1.5 -2.25 -1.5 -2.4 -1.45 -2.5 L-1.35 -2.65 -1.4 -2.9 -1.35 -3.05 -1.4 -3.1 -1.4 -3.35 -1.35 -3.35 -1.3 -3.4 Q-1.25 -3.8 -1.15 -3.9 -1.0 -3.45 -0.85 -3.15 -0.75 -2.95 -0.75 -2.6 -0.75 -2.45 -0.4 -1.8 L-0.15 -1.3 -0.15 -1.25 Q0.05 -0.9 0.2 -0.7 0.45 -0.4 0.9 -0.3 L0.85 -0.5 0.8 -1.05 Q0.8 -1.7 1.05 -1.65 1.35 -1.55 1.7 -0.75 1.75 -0.55 2.05 -0.15 L2.1 -0.1 M2.9 -21.4 Q2.9 -20.55 1.85 -19.4 0.9 -18.4 0.1 -18.0 0.25 -18.2 0.45 -18.65 0.7 -19.1 0.85 -19.3 1.4 -19.9 1.4 -20.05 L1.4 -20.2 Q1.35 -20.35 1.35 -20.5 1.35 -20.8 1.85 -21.2 L2.4 -21.7 2.7 -21.7 2.85 -21.55 Q2.9 -21.45 2.9 -21.4 M0.9 -4.1 Q1.0 -4.3 1.15 -4.4 L1.45 -4.4 Q1.55 -4.3 1.55 -4.05 1.55 -3.95 1.35 -3.35 L1.05 -2.7 Q0.9 -2.8 0.85 -3.05 0.8 -3.15 0.8 -3.2 L0.85 -3.65 Q0.85 -3.9 0.9 -4.1 M-3.15 -17.5 L-3.2 -17.55 Q-3.25 -17.7 -3.25 -17.75 L-3.25 -17.8 Q-3.6 -17.25 -3.85 -17.25 -4.05 -17.25 -4.1 -17.6 -4.15 -17.75 -4.15 -17.95 -4.15 -18.2 -4.05 -18.45 L-4.0 -18.55 -3.9 -18.8 Q-3.7 -19.4 -3.4 -19.4 -3.3 -19.4 -3.25 -19.35 L-3.25 -19.25 Q-3.05 -19.55 -2.9 -19.95 -2.75 -20.3 -2.6 -20.8 -2.5 -21.1 -2.3 -21.35 -2.1 -21.55 -1.85 -21.65 L-1.5 -21.65 Q-1.35 -21.55 -1.35 -21.2 -1.35 -21.1 -1.55 -20.25 -1.75 -19.5 -1.85 -19.25 L-1.8 -19.3 -1.75 -19.3 Q-1.75 -19.25 -1.75 -19.15 L-1.9 -18.5 Q-2.05 -17.85 -2.05 -17.75 -2.05 -17.65 -2.0 -17.45 -2.0 -17.3 -2.0 -17.2 -1.9 -17.15 -1.75 -17.15 -1.55 -17.3 -1.45 -17.35 -1.25 -17.5 -0.95 -17.4 L-0.8 -17.25 Q-0.75 -17.2 -0.75 -17.1 -0.75 -16.9 -1.2 -16.45 -1.7 -16.0 -1.8 -15.85 -2.05 -15.6 -2.3 -15.2 -2.6 -14.8 -2.8 -14.45 -3.15 -13.9 -3.6 -12.85 L-3.95 -12.05 -4.1 -11.35 Q-4.55 -9.8 -4.55 -9.45 -4.55 -9.0 -4.45 -8.45 -4.25 -7.65 -4.25 -7.45 -4.2 -7.3 -4.05 -6.5 -3.9 -5.85 -3.9 -5.55 L-3.95 -5.45 -4.0 -5.4 Q-4.5 -6.25 -4.85 -7.6 -5.2 -8.85 -5.2 -9.6 -5.25 -9.4 -5.25 -9.35 -5.3 -9.2 -5.45 -9.2 -5.75 -9.2 -5.95 -10.45 -6.05 -11.1 -6.1 -11.75 -6.1 -12.0 -6.05 -12.4 -6.0 -12.9 -5.9 -13.15 L-5.85 -13.35 -5.85 -13.3 -5.8 -13.35 Q-5.6 -13.35 -5.55 -13.3 -5.75 -12.85 -5.85 -12.3 L-5.9 -11.8 Q-5.9 -11.45 -5.8 -10.85 -5.7 -10.05 -5.65 -9.75 L-5.3 -11.15 Q-5.15 -11.6 -5.0 -11.95 -4.9 -12.25 -4.7 -12.7 L-4.7 -12.75 -4.55 -13.15 -4.45 -13.35 Q-4.4 -13.25 -4.4 -13.1 L-4.45 -12.7 -4.3 -12.9 -4.15 -13.45 -3.75 -14.95 -3.7 -15.0 -3.05 -16.55 -2.9 -16.85 -2.7 -17.4 -2.65 -17.55 -2.65 -17.65 -2.85 -17.65 Q-3.0 -17.6 -3.15 -17.5 M-5.65 -13.95 Q-5.7 -13.9 -5.75 -13.85 L-5.8 -13.65 Q-5.95 -12.95 -6.15 -12.65 -6.2 -12.85 -6.25 -13.1 -6.3 -13.3 -6.3 -13.45 -6.3 -13.65 -6.2 -13.95 -6.05 -14.3 -6.0 -14.45 -5.95 -14.65 -5.95 -15.0 L-5.95 -16.1 Q-5.95 -16.3 -6.2 -16.3 L-6.25 -16.35 -6.25 -16.6 Q-6.35 -16.55 -6.55 -16.2 -6.75 -15.95 -6.9 -15.95 -7.05 -15.95 -7.15 -16.2 -7.25 -16.4 -7.25 -16.55 -7.25 -16.85 -7.05 -17.35 -6.8 -17.95 -6.55 -17.95 -6.3 -17.95 -6.3 -17.55 L-6.3 -17.0 Q-6.05 -16.95 -5.85 -16.8 -5.6 -16.6 -5.55 -16.6 -5.4 -16.85 -5.1 -17.6 L-5.1 -17.65 Q-5.1 -17.8 -5.05 -17.9 -4.95 -18.15 -4.7 -18.35 L-4.55 -18.6 Q-4.5 -18.55 -4.5 -18.5 -4.45 -18.45 -4.45 -18.3 -4.45 -17.85 -4.6 -17.7 -4.55 -17.55 -4.4 -17.2 -4.15 -16.7 -4.15 -16.4 L-4.15 -16.25 -4.35 -15.95 Q-4.4 -15.95 -4.5 -15.9 L-4.65 -15.9 -4.75 -15.95 Q-4.85 -15.95 -4.95 -15.75 L-5.2 -15.25 Q-5.4 -14.9 -5.5 -14.65 L-5.5 -14.4 -5.65 -13.95 M-2.85 -17.65 L-2.85 -17.65 M-6.05 -16.5 Q-6.0 -16.5 -5.95 -16.4 L-5.95 -16.45 -6.0 -16.5 -6.05 -16.5 M-1.2 -7.7 Q-1.0 -8.0 -0.9 -7.95 -0.75 -7.9 -0.75 -7.4 -0.75 -6.8 -0.95 -6.35 -1.2 -5.85 -1.3 -5.4 L-1.35 -5.35 -1.55 -6.05 Q-1.65 -6.55 -1.65 -6.6 -1.65 -6.8 -1.5 -7.15 -1.4 -7.5 -1.2 -7.7 M-6.85 -10.85 L-7.25 -10.55 Q-7.35 -10.55 -7.4 -10.6 -7.45 -10.7 -7.45 -10.8 -7.45 -11.2 -7.3 -11.5 -7.2 -11.8 -7.0 -11.9 L-6.75 -11.95 Q-6.6 -11.8 -6.6 -11.4 -6.6 -11.1 -6.85 -10.85 M-7.9 -7.05 L-7.9 -7.0 -7.95 -6.85 -8.0 -6.85 Q-8.05 -6.85 -8.05 -7.1 L-7.95 -7.1 -7.9 -7.05 M-6.7 -6.15 L-6.45 -6.15 -6.45 -6.1 Q-6.45 -6.05 -6.45 -5.95 L-6.45 -5.85 -6.5 -5.8 -6.55 -5.8 Q-6.6 -5.85 -6.65 -5.95 -6.7 -6.0 -6.7 -6.05 -6.7 -6.25 -6.7 -6.15 M-5.7 -3.65 Q-5.55 -3.6 -5.5 -3.45 L-5.4 -3.1 -5.45 -3.0 -5.5 -2.95 Q-5.75 -3.1 -5.8 -3.25 L-5.8 -3.45 Q-5.8 -3.55 -5.75 -3.6 L-5.7 -3.65 M-6.15 -0.3 L-6.15 -0.3" fill="#ba5fbf" fill-rule="evenodd" stroke="none"/>
    </g>
  </defs>
</svg>
