<?xml version="1.0" encoding="UTF-8" standalone="no"?>
<svg xmlns:ffdec="https://www.free-decompiler.com/flash" xmlns:xlink="http://www.w3.org/1999/xlink" ffdec:objectType="frame" height="89.6px" width="217.35px" xmlns="http://www.w3.org/2000/svg">
  <g transform="matrix(1.0, 0.0, 0.0, 1.0, 31.85, 0.7)">
    <use ffdec:characterId="35" height="12.75" transform="matrix(7.0, 0.0, 0.0, 7.0, -31.85, -0.7)" width="31.05" xlink:href="#shape0"/>
  </g>
  <defs>
    <g id="shape0" transform="matrix(1.0, 0.0, 0.0, 1.0, 4.55, 0.1)">
      <path d="M5.6 12.15 Q-1.25 10.55 -1.05 3.45 -0.95 0.0 1.15 -0.1 3.75 14.2 26.45 10.15 12.35 13.8 5.6 12.15" fill="url(#gradient0)" fill-rule="evenodd" stroke="none"/>
      <path d="M5.55 11.35 Q-1.1 10.55 -3.5 7.8 -4.5 6.6 -4.55 5.25 -4.6 4.0 -3.85 2.8 -3.1 1.65 -1.8 0.9 -0.45 0.1 1.15 -0.1 -7.05 12.0 26.5 10.15 13.55 12.35 5.55 11.35" fill="url(#gradient1)" fill-rule="evenodd" stroke="none"/>
    </g>
    <linearGradient gradientTransform="matrix(0.0123, 0.0027, -0.0016, 0.0074, 10.7, 4.8)" gradientUnits="userSpaceOnUse" id="gradient0" spreadMethod="pad" x1="-819.2" x2="819.2">
      <stop offset="0.00784313725490196" stop-color="#ffffff" stop-opacity="0.0"/>
      <stop offset="0.39215686274509803" stop-color="#ffffff" stop-opacity="0.7019608"/>
      <stop offset="1.0" stop-color="#ffffff" stop-opacity="0.0"/>
    </linearGradient>
    <linearGradient gradientTransform="matrix(-0.0072, -0.0088, 0.0056, -0.0045, 2.35, 7.2)" gradientUnits="userSpaceOnUse" id="gradient1" spreadMethod="pad" x1="-819.2" x2="819.2">
      <stop offset="0.00784313725490196" stop-color="#ffffff" stop-opacity="0.0"/>
      <stop offset="0.2196078431372549" stop-color="#ffffff" stop-opacity="0.7529412"/>
      <stop offset="0.39215686274509803" stop-color="#ffffff" stop-opacity="0.7529412"/>
      <stop offset="0.6274509803921569" stop-color="#ffffff" stop-opacity="0.7490196"/>
      <stop offset="1.0" stop-color="#ffffff" stop-opacity="0.0"/>
    </linearGradient>
  </defs>
</svg>
