<?xml version="1.0" encoding="UTF-8" standalone="no"?>
<svg xmlns:ffdec="https://www.free-decompiler.com/flash" xmlns:xlink="http://www.w3.org/1999/xlink" ffdec:objectType="frame" height="461.7px" width="561.9px" xmlns="http://www.w3.org/2000/svg">
  <g transform="matrix(1.0, 0.0, 0.0, 1.0, 21.4, 51.0)">
    <use ffdec:characterId="22" ffdec:characterName="Animation_Environmentals_fla.a_SpirePuff_194" height="89.05" transform="matrix(-0.8722, 0.5814, 0.8312, 0.3118, 64.9272, 120.2117)" width="79.85" xlink:href="#sprite0"/>
    <use ffdec:characterId="24" height="76.85" transform="matrix(-0.6661, 0.7372, 1.1983, 0.1419, 59.027, 134.0363)" width="92.05" xlink:href="#sprite1"/>
    <use ffdec:characterId="24" height="76.85" transform="matrix(-0.7413, 0.6985, 1.0991, 0.198, 54.0748, 98.3445)" width="92.05" xlink:href="#sprite1"/>
    <use ffdec:characterId="22" ffdec:characterName="Animation_Environmentals_fla.a_SpirePuff_194" height="89.05" transform="matrix(-0.8722, 0.3704, 0.8312, 0.7808, 281.1772, 97.291)" width="79.85" xlink:href="#sprite0"/>
    <use ffdec:characterId="24" height="76.85" transform="matrix(-0.6661, 0.6668, 1.1983, 0.7228, 275.277, 112.72)" width="92.05" xlink:href="#sprite1"/>
    <use ffdec:characterId="24" height="76.85" transform="matrix(-0.7413, 0.5824, 1.0991, 0.7518, 270.3248, 63.8175)" width="92.05" xlink:href="#sprite1"/>
    <use ffdec:characterId="22" ffdec:characterName="Animation_Environmentals_fla.a_SpirePuff_194" height="89.05" transform="matrix(0.9868, -1.0753, -1.2284, -1.2598, 184.6963, 245.998)" width="79.85" xlink:href="#sprite0"/>
    <use ffdec:characterId="24" height="76.85" transform="matrix(0.8302, -1.3513, -1.466, -1.1447, 194.7894, 302.0087)" width="92.05" xlink:href="#sprite1"/>
    <use ffdec:characterId="22" ffdec:characterName="Animation_Environmentals_fla.a_SpirePuff_194" height="89.05" transform="matrix(-1.3043, 0.3042, 0.7337, 1.2166, 218.5585, 62.719)" width="79.85" xlink:href="#sprite0"/>
    <use ffdec:characterId="24" height="76.85" transform="matrix(-1.2504, 0.5302, 0.9986, 1.2316, 228.2062, 24.6978)" width="92.05" xlink:href="#sprite1"/>
    <use ffdec:characterId="22" ffdec:characterName="Animation_Environmentals_fla.a_SpirePuff_194" height="89.05" transform="matrix(-0.8096, 0.9794, 0.9794, 0.8096, 168.2807, -7.7552)" width="79.85" xlink:href="#sprite0"/>
    <use ffdec:characterId="24" height="76.85" transform="matrix(-0.6861, 1.1728, 1.1728, 0.6861, 160.7762, -50.0819)" width="92.05" xlink:href="#sprite1"/>
    <use ffdec:characterId="22" ffdec:characterName="Animation_Environmentals_fla.a_SpirePuff_194" height="89.05" transform="matrix(-0.2064, 0.6734, 0.6734, 0.2065, 226.6165, 76.7457)" width="79.85" xlink:href="#sprite0"/>
    <use ffdec:characterId="24" height="76.85" transform="matrix(0.0998, 0.8404, 0.8403, -0.0997, 227.6332, 90.3602)" width="92.05" xlink:href="#sprite1"/>
    <use ffdec:characterId="24" height="76.85" transform="matrix(-0.0342, 0.7907, 0.7907, 0.0343, 202.5827, 57.3314)" width="92.05" xlink:href="#sprite1"/>
    <use ffdec:characterId="24" height="76.85" transform="matrix(0.1151, 0.8442, 0.8442, -0.1151, 215.5761, 94.3347)" width="92.05" xlink:href="#sprite1"/>
    <use ffdec:characterId="22" ffdec:characterName="Animation_Environmentals_fla.a_SpirePuff_194" height="89.05" transform="matrix(-0.2064, 0.6734, 0.6734, 0.2065, 59.3165, 103.0957)" width="79.85" xlink:href="#sprite0"/>
    <use ffdec:characterId="24" height="76.85" transform="matrix(0.0998, 0.8404, 0.8403, -0.0997, 60.3332, 116.7102)" width="92.05" xlink:href="#sprite1"/>
    <use ffdec:characterId="24" height="76.85" transform="matrix(-0.0342, 0.7907, 0.7907, 0.0343, 35.2827, 83.6814)" width="92.05" xlink:href="#sprite1"/>
    <use ffdec:characterId="24" height="76.85" transform="matrix(0.1151, 0.8442, 0.8442, -0.1151, 48.2761, 120.6847)" width="92.05" xlink:href="#sprite1"/>
    <use ffdec:characterId="22" ffdec:characterName="Animation_Environmentals_fla.a_SpirePuff_194" height="89.05" transform="matrix(-0.948, 0.7586, 1.1469, 0.2973, 148.323, 163.9477)" width="79.85" xlink:href="#sprite0"/>
    <use ffdec:characterId="24" height="76.85" transform="matrix(-0.8034, 0.8517, 1.3733, 0.1834, 139.5156, 139.7573)" width="92.05" xlink:href="#sprite1"/>
    <use ffdec:characterId="22" ffdec:characterName="Animation_Environmentals_fla.a_SpirePuff_194" height="89.05" transform="matrix(-0.948, 0.5685, 1.1469, 0.9034, 401.473, 132.5632)" width="79.85" xlink:href="#sprite0"/>
    <use ffdec:characterId="24" height="76.85" transform="matrix(-0.8034, 0.7552, 1.3733, 0.8556, 392.6656, 96.8279)" width="92.05" xlink:href="#sprite1"/>
    <use ffdec:characterId="22" ffdec:characterName="Animation_Environmentals_fla.a_SpirePuff_194" height="89.05" transform="matrix(1.0539, -1.457, -1.6108, -1.404, 307.4363, 320.0186)" width="79.85" xlink:href="#sprite0"/>
    <use ffdec:characterId="24" height="76.85" transform="matrix(0.9427, -1.6259, -1.7532, -1.3171, 311.4645, 380.2827)" width="92.05" xlink:href="#sprite1"/>
    <use ffdec:characterId="22" ffdec:characterName="Animation_Environmentals_fla.a_SpirePuff_194" height="89.05" transform="matrix(-1.4987, 0.5144, 1.047, 1.4431, 330.1326, 90.3731)" width="79.85" xlink:href="#sprite0"/>
    <use ffdec:characterId="24" height="76.85" transform="matrix(-1.451, 0.6582, 1.2119, 1.4411, 346.9298, 51.9675)" width="92.05" xlink:href="#sprite1"/>
    <use ffdec:characterId="22" ffdec:characterName="Animation_Environmentals_fla.a_SpirePuff_194" height="89.05" transform="matrix(-0.8681, 1.287, 1.287, 0.8681, 270.2595, 11.681)" width="79.85" xlink:href="#sprite0"/>
    <use ffdec:characterId="24" height="76.85" transform="matrix(-0.78, 1.4031, 1.4031, 0.78, 267.6664, -34.8005)" width="92.05" xlink:href="#sprite1"/>
    <use ffdec:characterId="22" ffdec:characterName="Animation_Environmentals_fla.a_SpirePuff_194" height="89.05" transform="matrix(-0.1416, 0.8671, 0.8671, 0.1417, 339.0443, 113.9922)" width="79.85" xlink:href="#sprite0"/>
    <use ffdec:characterId="24" height="76.85" transform="matrix(0.1397, 0.9901, 0.99, -0.1396, 346.4566, 130.9464)" width="92.05" xlink:href="#sprite1"/>
    <use ffdec:characterId="24" height="76.85" transform="matrix(0.0523, 0.9655, 0.9654, -0.0523, 312.7921, 92.3462)" width="92.05" xlink:href="#sprite1"/>
    <use ffdec:characterId="22" ffdec:characterName="Animation_Environmentals_fla.a_SpirePuff_194" height="89.05" transform="matrix(-0.1416, 0.8671, 0.8671, 0.1417, 143.1443, 144.7922)" width="79.85" xlink:href="#sprite0"/>
    <use ffdec:characterId="24" height="76.85" transform="matrix(0.1397, 0.9901, 0.99, -0.1396, 150.5566, 161.7464)" width="92.05" xlink:href="#sprite1"/>
    <use ffdec:characterId="24" height="76.85" transform="matrix(0.0523, 0.9655, 0.9654, -0.0523, 116.8921, 123.1462)" width="92.05" xlink:href="#sprite1"/>
    <use ffdec:characterId="22" ffdec:characterName="Animation_Environmentals_fla.a_SpirePuff_194" height="89.05" transform="matrix(-0.8302, 0.8372, 1.3367, 0.2036, 84.1624, 162.2163)" width="79.85" xlink:href="#sprite0"/>
    <use ffdec:characterId="22" ffdec:characterName="Animation_Environmentals_fla.a_SpirePuff_194" height="89.05" transform="matrix(-0.8302, 0.7242, 1.3367, 0.8657, 337.3124, 125.5793)" width="79.85" xlink:href="#sprite0"/>
    <use ffdec:characterId="22" ffdec:characterName="Animation_Environmentals_fla.a_SpirePuff_194" height="89.05" transform="matrix(0.9487, -1.6162, -1.745, -1.3217, 263.038, 323.6493)" width="79.85" xlink:href="#sprite0"/>
    <use ffdec:characterId="22" ffdec:characterName="Animation_Environmentals_fla.a_SpirePuff_194" height="89.05" transform="matrix(-1.4534, 0.6501, 1.2025, 1.4409, 270.5698, 83.4768)" width="79.85" xlink:href="#sprite0"/>
    <use ffdec:characterId="22" ffdec:characterName="Animation_Environmentals_fla.a_SpirePuff_194" height="89.05" transform="matrix(-0.7847, 1.3964, 1.3964, 0.7847, 210.3617, 8.3641)" width="79.85" xlink:href="#sprite0"/>
    <use ffdec:characterId="22" ffdec:characterName="Animation_Environmentals_fla.a_SpirePuff_194" height="89.05" transform="matrix(0.0086, 0.9474, 0.9474, -0.0086, 276.3928, 113.8099)" width="79.85" xlink:href="#sprite0"/>
    <use ffdec:characterId="24" height="76.85" transform="matrix(0.1348, 0.9885, 0.9885, -0.1348, 255.376, 92.1144)" width="92.05" xlink:href="#sprite1"/>
    <use ffdec:characterId="22" ffdec:characterName="Animation_Environmentals_fla.a_SpirePuff_194" height="89.05" transform="matrix(0.0086, 0.9474, 0.9474, -0.0086, 80.4928, 144.6099)" width="79.85" xlink:href="#sprite0"/>
    <use ffdec:characterId="24" height="76.85" transform="matrix(0.1348, 0.9885, 0.9885, -0.1348, 59.476, 122.9144)" width="92.05" xlink:href="#sprite1"/>
    <use ffdec:characterId="22" ffdec:characterName="Animation_Environmentals_fla.a_SpirePuff_194" height="89.05" transform="matrix(0.1166, 0.8549, 0.8549, -0.1165, 267.4069, 182.6607)" width="79.85" xlink:href="#sprite0"/>
    <use ffdec:characterId="22" ffdec:characterName="Animation_Environmentals_fla.a_SpirePuff_194" height="89.05" transform="matrix(0.1166, 0.8549, 0.8549, -0.1165, 97.9569, 209.3107)" width="79.85" xlink:href="#sprite0"/>
    <use ffdec:characterId="24" height="76.85" transform="matrix(-0.8883, 0.2568, 0.2019, 0.4276, 93.6968, 153.0495)" width="92.05" xlink:href="#sprite1"/>
    <use ffdec:characterId="24" height="76.85" transform="matrix(-0.8115, 0.1573, 0.0359, 0.416, 81.1864, 122.7457)" width="92.05" xlink:href="#sprite1"/>
    <use ffdec:characterId="24" height="76.85" transform="matrix(-0.906, 0.2926, 0.2649, 0.4261, 75.5357, 151.074)" width="92.05" xlink:href="#sprite1"/>
    <use ffdec:characterId="22" ffdec:characterName="Animation_Environmentals_fla.a_SpirePuff_194" height="89.05" transform="matrix(-1.2459, 0.499, 0.5502, 0.5542, 112.4934, 126.299)" width="79.85" xlink:href="#sprite0"/>
    <use ffdec:characterId="24" height="76.85" transform="matrix(-0.8883, -0.0619, 0.2019, 0.6505, 309.9468, 153.2046)" width="92.05" xlink:href="#sprite1"/>
    <use ffdec:characterId="24" height="76.85" transform="matrix(-0.8115, -0.1577, 0.0359, 0.5609, 297.4364, 107.8589)" width="92.05" xlink:href="#sprite1"/>
    <use ffdec:characterId="24" height="76.85" transform="matrix(-0.906, -0.0229, 0.2649, 0.6767, 291.7857, 142.4555)" width="92.05" xlink:href="#sprite1"/>
    <use ffdec:characterId="22" ffdec:characterName="Animation_Environmentals_fla.a_SpirePuff_194" height="89.05" transform="matrix(-1.2459, 0.0951, 0.5502, 0.9723, 328.7434, 126.5231)" width="79.85" xlink:href="#sprite0"/>
    <use ffdec:characterId="22" ffdec:characterName="Animation_Environmentals_fla.a_SpirePuff_194" height="89.05" transform="matrix(0.9792, 0.1731, -0.0182, -1.0149, 151.6266, 175.8493)" width="79.85" xlink:href="#sprite0"/>
    <use ffdec:characterId="24" height="76.85" transform="matrix(1.1346, -0.2238, -0.432, -1.2564, 139.4591, 148.5545)" width="92.05" xlink:href="#sprite1"/>
    <use ffdec:characterId="24" height="76.85" transform="matrix(1.0495, 0.0607, -0.1403, -1.1113, 153.4797, 226.0179)" width="92.05" xlink:href="#sprite1"/>
    <use ffdec:characterId="24" height="76.85" transform="matrix(1.1452, -0.3178, -0.525, -1.2856, 163.4839, 166.3475)" width="92.05" xlink:href="#sprite1"/>
    <use ffdec:characterId="22" ffdec:characterName="Animation_Environmentals_fla.a_SpirePuff_194" height="89.05" transform="matrix(1.4306, -0.6663, -0.9166, -1.6571, 124.8908, 200.021)" width="79.85" xlink:href="#sprite0"/>
    <use ffdec:characterId="22" ffdec:characterName="Animation_Environmentals_fla.a_SpirePuff_194" height="89.05" transform="matrix(-0.8696, -0.4595, -0.3304, 0.6296, 225.9041, 117.7744)" width="79.85" xlink:href="#sprite0"/>
    <use ffdec:characterId="24" height="76.85" transform="matrix(-1.1529, -0.2719, -0.0206, 0.9272, 228.0534, 138.9727)" width="92.05" xlink:href="#sprite1"/>
    <use ffdec:characterId="24" height="76.85" transform="matrix(-0.9747, -0.4159, -0.2475, 0.7329, 241.3426, 86.2537)" width="92.05" xlink:href="#sprite1"/>
    <use ffdec:characterId="24" height="76.85" transform="matrix(-1.1951, -0.218, 0.0577, 0.9787, 211.3765, 119.3053)" width="92.05" xlink:href="#sprite1"/>
    <use ffdec:characterId="22" ffdec:characterName="Animation_Environmentals_fla.a_SpirePuff_194" height="89.05" transform="matrix(-1.5853, -0.107, 0.3019, 1.3481, 259.4957, 112.5493)" width="79.85" xlink:href="#sprite0"/>
    <use ffdec:characterId="22" ffdec:characterName="Animation_Environmentals_fla.a_SpirePuff_194" height="89.05" transform="matrix(-0.7899, 0.0036, 0.0036, 0.7899, 194.202, 42.3282)" width="79.85" xlink:href="#sprite0"/>
    <use ffdec:characterId="24" height="76.85" transform="matrix(-0.9198, 0.3355, 0.3355, 0.9198, 203.8364, 61.9773)" width="92.05" xlink:href="#sprite1"/>
    <use ffdec:characterId="24" height="76.85" transform="matrix(-0.8479, 0.1013, 0.1013, 0.8479, 193.3627, 3.4651)" width="92.05" xlink:href="#sprite1"/>
    <use ffdec:characterId="24" height="76.85" transform="matrix(-0.9294, 0.4104, 0.4104, 0.9294, 184.612, 51.4459)" width="92.05" xlink:href="#sprite1"/>
    <use ffdec:characterId="22" ffdec:characterName="Animation_Environmentals_fla.a_SpirePuff_194" height="89.05" transform="matrix(-1.164, 0.723, 0.723, 1.164, 216.0655, 19.712)" width="79.85" xlink:href="#sprite0"/>
    <use ffdec:characterId="24" height="76.85" transform="matrix(-0.3831, 0.3689, 0.3689, 0.3831, 263.8672, 104.7024)" width="92.05" xlink:href="#sprite1"/>
    <use ffdec:characterId="24" height="76.85" transform="matrix(-0.391, 0.2985, 0.2985, 0.391, 232.5007, 76.5212)" width="92.05" xlink:href="#sprite1"/>
    <use ffdec:characterId="24" height="76.85" transform="matrix(-0.375, 0.4003, 0.4003, 0.3751, 251.7574, 106.9779)" width="92.05" xlink:href="#sprite1"/>
    <use ffdec:characterId="22" ffdec:characterName="Animation_Environmentals_fla.a_SpirePuff_194" height="89.05" transform="matrix(-0.497, 0.6692, 0.6692, 0.4971, 259.2409, 72.85)" width="79.85" xlink:href="#sprite0"/>
    <use ffdec:characterId="24" height="76.85" transform="matrix(-0.3831, 0.3689, 0.3689, 0.3831, 96.5672, 131.0524)" width="92.05" xlink:href="#sprite1"/>
    <use ffdec:characterId="24" height="76.85" transform="matrix(-0.391, 0.2985, 0.2985, 0.391, 65.2007, 102.8712)" width="92.05" xlink:href="#sprite1"/>
    <use ffdec:characterId="24" height="76.85" transform="matrix(-0.375, 0.4003, 0.4003, 0.3751, 84.4574, 133.3279)" width="92.05" xlink:href="#sprite1"/>
    <use ffdec:characterId="22" ffdec:characterName="Animation_Environmentals_fla.a_SpirePuff_194" height="89.05" transform="matrix(-0.497, 0.6692, 0.6692, 0.4971, 91.9409, 99.2)" width="79.85" xlink:href="#sprite0"/>
    <use ffdec:characterId="22" ffdec:characterName="Animation_Environmentals_fla.a_SpirePuff_194" height="89.05" transform="matrix(-0.9249, 0.1602, 0.0042, 0.4805, 178.7294, 189.3258)" width="79.85" xlink:href="#sprite0"/>
    <use ffdec:characterId="24" height="76.85" transform="matrix(-1.0771, 0.3884, 0.3929, 0.4933, 189.9012, 199.3442)" width="92.05" xlink:href="#sprite1"/>
    <use ffdec:characterId="24" height="76.85" transform="matrix(-0.9928, 0.2313, 0.1186, 0.4963, 177.6735, 165.8218)" width="92.05" xlink:href="#sprite1"/>
    <use ffdec:characterId="24" height="76.85" transform="matrix(-1.0883, 0.4359, 0.4806, 0.4841, 167.4458, 196.7699)" width="92.05" xlink:href="#sprite1"/>
    <use ffdec:characterId="22" ffdec:characterName="Animation_Environmentals_fla.a_SpirePuff_194" height="89.05" transform="matrix(-1.363, 0.6733, 0.8466, 0.5645, 204.35, 171.1186)" width="79.85" xlink:href="#sprite0"/>
    <use ffdec:characterId="22" ffdec:characterName="Animation_Environmentals_fla.a_SpirePuff_194" height="89.05" transform="matrix(-0.9249, -0.2048, 0.0042, 0.631, 431.8794, 179.3592)" width="79.85" xlink:href="#sprite0"/>
    <use ffdec:characterId="24" height="76.85" transform="matrix(-1.0771, 0.0258, 0.3929, 0.822, 443.0512, 197.5032)" width="92.05" xlink:href="#sprite1"/>
    <use ffdec:characterId="24" height="76.85" transform="matrix(-0.9928, -0.1421, 0.1186, 0.703, 430.8235, 148.1038)" width="92.05" xlink:href="#sprite1"/>
    <use ffdec:characterId="24" height="76.85" transform="matrix(-1.0883, 0.0831, 0.4806, 0.8493, 420.5958, 184.0847)" width="92.05" xlink:href="#sprite1"/>
    <use ffdec:characterId="22" ffdec:characterName="Animation_Environmentals_fla.a_SpirePuff_194" height="89.05" transform="matrix(-1.363, 0.2708, 0.8466, 1.1187, 457.5, 166.9631)" width="79.85" xlink:href="#sprite0"/>
    <use ffdec:characterId="22" ffdec:characterName="Animation_Environmentals_fla.a_SpirePuff_194" height="89.05" transform="matrix(1.1774, 0.1598, -0.0687, -1.2294, 257.8046, 233.9701)" width="79.85" xlink:href="#sprite0"/>
    <use ffdec:characterId="24" height="76.85" transform="matrix(1.3432, -0.4941, -0.7333, -1.5309, 248.8644, 213.3761)" width="92.05" xlink:href="#sprite1"/>
    <use ffdec:characterId="24" height="76.85" transform="matrix(1.2854, -0.0695, -0.3112, -1.3885, 260.193, 298.9069)" width="92.05" xlink:href="#sprite1"/>
    <use ffdec:characterId="24" height="76.85" transform="matrix(1.3356, -0.622, -0.8557, -1.547, 278.722, 234.5927)" width="92.05" xlink:href="#sprite1"/>
    <use ffdec:characterId="22" ffdec:characterName="Animation_Environmentals_fla.a_SpirePuff_194" height="89.05" transform="matrix(1.5052, -1.04, -1.2926, -1.8078, 239.3723, 266.574)" width="79.85" xlink:href="#sprite0"/>
    <use ffdec:characterId="22" ffdec:characterName="Animation_Environmentals_fla.a_SpirePuff_194" height="89.05" transform="matrix(-1.0621, -0.5228, -0.3559, 0.7796, 347.6528, 161.1743)" width="79.85" xlink:href="#sprite0"/>
    <use ffdec:characterId="24" height="76.85" transform="matrix(-1.4433, -0.1812, 0.1712, 1.2044, 349.0951, 177.019)" width="92.05" xlink:href="#sprite1"/>
    <use ffdec:characterId="24" height="76.85" transform="matrix(-1.2431, -0.421, -0.1803, 0.9648, 367.6899, 120.4126)" width="92.05" xlink:href="#sprite1"/>
    <use ffdec:characterId="24" height="76.85" transform="matrix(-1.4799, -0.0999, 0.2819, 1.2585, 328.1142, 153.2298)" width="92.05" xlink:href="#sprite1"/>
    <use ffdec:characterId="22" ffdec:characterName="Animation_Environmentals_fla.a_SpirePuff_194" height="89.05" transform="matrix(-1.784, 0.0956, 0.607, 1.5762, 376.347, 147.8622)" width="79.85" xlink:href="#sprite0"/>
    <use ffdec:characterId="22" ffdec:characterName="Animation_Environmentals_fla.a_SpirePuff_194" height="89.05" transform="matrix(-0.9502, 0.0421, 0.0421, 0.9502, 309.4768, 71.922)" width="79.85" xlink:href="#sprite0"/>
    <use ffdec:characterId="24" height="76.85" transform="matrix(-1.0914, 0.5761, 0.5761, 1.0914, 316.4895, 86.6911)" width="92.05" xlink:href="#sprite1"/>
    <use ffdec:characterId="24" height="76.85" transform="matrix(-1.0401, 0.2364, 0.2364, 1.0401, 308.2712, 21.5045)" width="92.05" xlink:href="#sprite1"/>
    <use ffdec:characterId="24" height="76.85" transform="matrix(-1.0867, 0.675, 0.6749, 1.0867, 292.5601, 74.3073)" width="92.05" xlink:href="#sprite1"/>
    <use ffdec:characterId="22" ffdec:characterName="Animation_Environmentals_fla.a_SpirePuff_194" height="89.05" transform="matrix(-1.2284, 1.0254, 1.0253, 1.2284, 324.729, 43.8352)" width="79.85" xlink:href="#sprite0"/>
    <use ffdec:characterId="24" height="76.85" transform="matrix(-0.4278, 0.5082, 0.5082, 0.4279, 387.7743, 143.5914)" width="92.05" xlink:href="#sprite1"/>
    <use ffdec:characterId="24" height="76.85" transform="matrix(-0.4562, 0.3779, 0.3779, 0.4562, 353.0023, 112.8053)" width="92.05" xlink:href="#sprite1"/>
    <use ffdec:characterId="24" height="76.85" transform="matrix(-0.4104, 0.5526, 0.5526, 0.4104, 372.9082, 145.8878)" width="92.05" xlink:href="#sprite1"/>
    <use ffdec:characterId="22" ffdec:characterName="Animation_Environmentals_fla.a_SpirePuff_194" height="89.05" transform="matrix(-0.4827, 0.8681, 0.8681, 0.4827, 378.7864, 108.9989)" width="79.85" xlink:href="#sprite0"/>
    <use ffdec:characterId="24" height="76.85" transform="matrix(-0.4278, 0.5082, 0.5082, 0.4279, 191.8743, 174.3914)" width="92.05" xlink:href="#sprite1"/>
    <use ffdec:characterId="24" height="76.85" transform="matrix(-0.4562, 0.3779, 0.3779, 0.4562, 157.1023, 143.6053)" width="92.05" xlink:href="#sprite1"/>
    <use ffdec:characterId="24" height="76.85" transform="matrix(-0.4104, 0.5526, 0.5526, 0.4104, 177.0082, 176.6878)" width="92.05" xlink:href="#sprite1"/>
    <use ffdec:characterId="22" ffdec:characterName="Animation_Environmentals_fla.a_SpirePuff_194" height="89.05" transform="matrix(-0.4827, 0.8681, 0.8681, 0.4827, 182.8864, 139.7989)" width="79.85" xlink:href="#sprite0"/>
    <use ffdec:characterId="22" ffdec:characterName="Animation_Environmentals_fla.a_SpirePuff_194" height="89.05" transform="matrix(-0.97, 0.2056, 0.0767, 0.4915, 126.8715, 185.6134)" width="79.85" xlink:href="#sprite0"/>
    <use ffdec:characterId="24" height="76.85" transform="matrix(-1.0867, 0.5368, 0.6749, 0.4501, 130.8101, 191.0019)" width="92.05" xlink:href="#sprite1"/>
    <use ffdec:characterId="24" height="76.85" transform="matrix(-1.0608, 0.3426, 0.3102, 0.4989, 125.0615, 158.4216)" width="92.05" xlink:href="#sprite1"/>
    <use ffdec:characterId="24" height="76.85" transform="matrix(-1.0732, 0.5868, 0.7756, 0.4259, 106.3302, 188.7544)" width="92.05" xlink:href="#sprite1"/>
    <use ffdec:characterId="22" ffdec:characterName="Animation_Environmentals_fla.a_SpirePuff_194" height="89.05" transform="matrix(-1.1419, 0.7612, 1.0882, 0.4082, 137.4247, 170.0651)" width="79.85" xlink:href="#sprite0"/>
    <use ffdec:characterId="22" ffdec:characterName="Animation_Environmentals_fla.a_SpirePuff_194" height="89.05" transform="matrix(-0.97, -0.1655, 0.0767, 0.678, 380.0215, 175.3367)" width="79.85" xlink:href="#sprite0"/>
    <use ffdec:characterId="24" height="76.85" transform="matrix(-1.0867, 0.2159, 0.6749, 0.8919, 383.9601, 184.1914)" width="92.05" xlink:href="#sprite1"/>
    <use ffdec:characterId="24" height="76.85" transform="matrix(-1.0608, -0.0268, 0.3102, 0.7924, 378.2115, 138.9767)" width="92.05" xlink:href="#sprite1"/>
    <use ffdec:characterId="24" height="76.85" transform="matrix(-1.0732, 0.2875, 0.7756, 0.9053, 359.4802, 170.3164)" width="92.05" xlink:href="#sprite1"/>
    <use ffdec:characterId="22" ffdec:characterName="Animation_Environmentals_fla.a_SpirePuff_194" height="89.05" transform="matrix(-1.1419, 0.485, 1.0882, 1.0223, 390.5747, 159.6889)" width="79.85" xlink:href="#sprite0"/>
    <use ffdec:characterId="22" ffdec:characterName="Animation_Environmentals_fla.a_SpirePuff_194" height="89.05" transform="matrix(1.2571, 0.0041, -0.2346, -1.3442, 204.1097, 243.6253)" width="79.85" xlink:href="#sprite0"/>
    <use ffdec:characterId="24" height="76.85" transform="matrix(1.287, -0.8893, -1.1053, -1.5458, 208.0207, 234.3525)" width="92.05" xlink:href="#sprite1"/>
    <use ffdec:characterId="24" height="76.85" transform="matrix(1.3409, -0.3721, -0.6148, -1.5053, 210.3107, 317.5861)" width="92.05" xlink:href="#sprite1"/>
    <use ffdec:characterId="24" height="76.85" transform="matrix(1.2493, -1.0197, -1.2244, -1.5301, 239.5535, 254.6519)" width="92.05" xlink:href="#sprite1"/>
    <use ffdec:characterId="22" ffdec:characterName="Animation_Environmentals_fla.a_SpirePuff_194" height="89.05" transform="matrix(1.1354, -1.2372, -1.4135, -1.4496, 199.4071, 264.5269)" width="79.85" xlink:href="#sprite0"/>
    <use ffdec:characterId="22" ffdec:characterName="Animation_Environmentals_fla.a_SpirePuff_194" height="89.05" transform="matrix(-1.191, -0.456, -0.2379, 0.9099, 298.9383, 153.8334)" width="79.85" xlink:href="#sprite0"/>
    <use ffdec:characterId="24" height="76.85" transform="matrix(-1.5254, 0.0817, 0.519, 1.3478, 292.0803, 158.1018)" width="92.05" xlink:href="#sprite1"/>
    <use ffdec:characterId="24" height="76.85" transform="matrix(-1.3994, -0.2553, 0.0676, 1.146, 318.4248, 106.1796)" width="92.05" xlink:href="#sprite1"/>
    <use ffdec:characterId="24" height="76.85" transform="matrix(-1.5342, 0.1754, 0.6374, 1.3811, 269.1446, 134.3152)" width="92.05" xlink:href="#sprite1"/>
    <use ffdec:characterId="22" ffdec:characterName="Animation_Environmentals_fla.a_SpirePuff_194" height="89.05" transform="matrix(-1.5008, 0.35, 0.8443, 1.3999, 310.6038, 142.6923)" width="79.85" xlink:href="#sprite0"/>
    <use ffdec:characterId="22" ffdec:characterName="Animation_Environmentals_fla.a_SpirePuff_194" height="89.05" transform="matrix(-1.0164, 0.1749, 0.1749, 1.0164, 257.0801, 62.4715)" width="79.85" xlink:href="#sprite0"/>
    <use ffdec:characterId="24" height="76.85" transform="matrix(-1.0504, 0.8768, 0.8768, 1.0504, 253.8093, 70.2213)" width="92.05" xlink:href="#sprite1"/>
    <use ffdec:characterId="24" height="76.85" transform="matrix(-1.0883, 0.4806, 0.4806, 1.0883, 252.9458, 5.5784)" width="92.05" xlink:href="#sprite1"/>
    <use ffdec:characterId="24" height="76.85" transform="matrix(-1.0212, 0.9732, 0.9732, 1.0213, 228.612, 58.8801)" width="92.05" xlink:href="#sprite1"/>
    <use ffdec:characterId="22" ffdec:characterName="Animation_Environmentals_fla.a_SpirePuff_194" height="89.05" transform="matrix(-0.9316, 1.127, 1.127, 0.9316, 261.1815, 45.5531)" width="79.85" xlink:href="#sprite0"/>
    <use ffdec:characterId="22" ffdec:characterName="Animation_Environmentals_fla.a_SpirePuff_194" height="89.05" transform="matrix(-0.4579, 0.3597, 0.3597, 0.4579, 316.3351, 130.4006)" width="79.85" xlink:href="#sprite0"/>
    <use ffdec:characterId="24" height="76.85" transform="matrix(-0.36, 0.6476, 0.6476, 0.3601, 328.0255, 136.1671)" width="92.05" xlink:href="#sprite1"/>
    <use ffdec:characterId="24" height="76.85" transform="matrix(-0.4391, 0.4687, 0.4687, 0.4392, 297.6513, 106.9521)" width="92.05" xlink:href="#sprite1"/>
    <use ffdec:characterId="24" height="76.85" transform="matrix(-0.3257, 0.6962, 0.6962, 0.3257, 311.7255, 138.6287)" width="92.05" xlink:href="#sprite1"/>
    <use ffdec:characterId="22" ffdec:characterName="Animation_Environmentals_fla.a_SpirePuff_194" height="89.05" transform="matrix(-0.293, 0.9558, 0.9558, 0.293, 315.9313, 108.7367)" width="79.85" xlink:href="#sprite0"/>
    <use ffdec:characterId="22" ffdec:characterName="Animation_Environmentals_fla.a_SpirePuff_194" height="89.05" transform="matrix(-0.4579, 0.3597, 0.3597, 0.4579, 120.4351, 161.2006)" width="79.85" xlink:href="#sprite0"/>
    <use ffdec:characterId="24" height="76.85" transform="matrix(-0.36, 0.6476, 0.6476, 0.3601, 132.1255, 166.9671)" width="92.05" xlink:href="#sprite1"/>
    <use ffdec:characterId="24" height="76.85" transform="matrix(-0.4391, 0.4687, 0.4687, 0.4392, 101.7513, 137.7521)" width="92.05" xlink:href="#sprite1"/>
    <use ffdec:characterId="24" height="76.85" transform="matrix(-0.3257, 0.6962, 0.6962, 0.3257, 115.8255, 169.4287)" width="92.05" xlink:href="#sprite1"/>
    <use ffdec:characterId="22" ffdec:characterName="Animation_Environmentals_fla.a_SpirePuff_194" height="89.05" transform="matrix(-0.293, 0.9558, 0.9558, 0.293, 120.0313, 139.5367)" width="79.85" xlink:href="#sprite0"/>
    <use ffdec:characterId="22" ffdec:characterName="Animation_Environmentals_fla.a_SpirePuff_194" height="89.05" transform="matrix(-0.9175, 0.2963, 0.2683, 0.4315, 143.5716, 236.7615)" width="79.85" xlink:href="#sprite0"/>
    <use ffdec:characterId="24" height="76.85" transform="matrix(-0.8534, 0.6244, 0.92, 0.2868, 134.4018, 241.8277)" width="92.05" xlink:href="#sprite1"/>
    <use ffdec:characterId="24" height="76.85" transform="matrix(-0.9399, 0.4642, 0.5838, 0.3893, 136.5544, 211.1996)" width="92.05" xlink:href="#sprite1"/>
    <use ffdec:characterId="24" height="76.85" transform="matrix(-0.82, 0.6561, 0.9919, 0.2572, 112.5978, 240.84)" width="92.05" xlink:href="#sprite1"/>
    <use ffdec:characterId="22" ffdec:characterName="Animation_Environmentals_fla.a_SpirePuff_194" height="89.05" transform="matrix(-0.5971, 0.5626, 0.8853, 0.1595, 147.0455, 236.2777)" width="79.85" xlink:href="#sprite0"/>
    <use ffdec:characterId="22" ffdec:characterName="Animation_Environmentals_fla.a_SpirePuff_194" height="89.05" transform="matrix(-0.9175, -0.0232, 0.2683, 0.6853, 362.5216, 225.5743)" width="79.85" xlink:href="#sprite0"/>
    <use ffdec:characterId="24" height="76.85" transform="matrix(-0.8534, 0.4352, 0.92, 0.7879, 353.3518, 228.1378)" width="92.05" xlink:href="#sprite1"/>
    <use ffdec:characterId="24" height="76.85" transform="matrix(-0.9399, 0.1867, 0.5838, 0.7714, 355.5044, 188.9347)" width="92.05" xlink:href="#sprite1"/>
    <use ffdec:characterId="24" height="76.85" transform="matrix(-0.82, 0.4917, 0.9919, 0.7813, 331.5478, 217.0456)" width="92.05" xlink:href="#sprite1"/>
    <use ffdec:characterId="22" ffdec:characterName="Animation_Environmentals_fla.a_SpirePuff_194" height="89.05" transform="matrix(-0.5971, 0.4691, 0.8853, 0.6056, 365.9955, 226.6182)" width="79.85" xlink:href="#sprite0"/>
    <use ffdec:characterId="22" ffdec:characterName="Animation_Environmentals_fla.a_SpirePuff_194" height="89.05" transform="matrix(1.1598, -0.3218, -0.5317, -1.302, 215.7392, 314.3868)" width="79.85" xlink:href="#sprite0"/>
    <use ffdec:characterId="24" height="76.85" transform="matrix(0.9538, -1.1801, -1.3236, -1.2444, 231.7763, 304.4549)" width="92.05" xlink:href="#sprite1"/>
    <use ffdec:characterId="24" height="76.85" transform="matrix(1.1132, -0.7691, -0.956, -1.337, 229.2495, 382.8942)" width="92.05" xlink:href="#sprite1"/>
    <use ffdec:characterId="24" height="76.85" transform="matrix(0.9115, -1.2601, -1.3931, -1.2144, 258.4595, 319.7684)" width="92.05" xlink:href="#sprite1"/>
    <use ffdec:characterId="22" ffdec:characterName="Animation_Environmentals_fla.a_SpirePuff_194" height="89.05" transform="matrix(0.5309, -0.8641, -0.9374, -0.732, 204.7352, 290.9291)" width="79.85" xlink:href="#sprite0"/>
    <use ffdec:characterId="22" ffdec:characterName="Animation_Environmentals_fla.a_SpirePuff_194" height="89.05" transform="matrix(-1.2104, -0.2208, 0.0584, 0.9911, 295.5942, 201.0161)" width="79.85" xlink:href="#sprite0"/>
    <use ffdec:characterId="24" height="76.85" transform="matrix(-1.3089, 0.3805, 0.8293, 1.2415, 276.9975, 201.42)" width="92.05" xlink:href="#sprite1"/>
    <use ffdec:characterId="24" height="76.85" transform="matrix(-1.3194, 0.0707, 0.4489, 1.1657, 306.2484, 154.1115)" width="92.05" xlink:href="#sprite1"/>
    <use ffdec:characterId="24" height="76.85" transform="matrix(-1.2962, 0.4449, 0.9056, 1.2481, 256.8244, 182.3326)" width="92.05" xlink:href="#sprite1"/>
    <use ffdec:characterId="22" ffdec:characterName="Animation_Environmentals_fla.a_SpirePuff_194" height="89.05" transform="matrix(-0.7995, 0.339, 0.6385, 0.7876, 297.9837, 219.499)" width="79.85" xlink:href="#sprite0"/>
    <use ffdec:characterId="22" ffdec:characterName="Animation_Environmentals_fla.a_SpirePuff_194" height="89.05" transform="matrix(-0.9413, 0.4156, 0.4156, 0.9413, 253.0967, 120.8904)" width="79.85" xlink:href="#sprite0"/>
    <use ffdec:characterId="24" height="76.85" transform="matrix(-0.7841, 1.0566, 1.0566, 0.7841, 240.0272, 130.9847)" width="92.05" xlink:href="#sprite1"/>
    <use ffdec:characterId="24" height="76.85" transform="matrix(-0.9085, 0.7583, 0.7583, 0.9085, 242.95, 69.3319)" width="92.05" xlink:href="#sprite1"/>
    <use ffdec:characterId="24" height="76.85" transform="matrix(-0.7508, 1.1131, 1.1131, 0.7508, 218.5678, 122.7394)" width="92.05" xlink:href="#sprite1"/>
    <use ffdec:characterId="22" ffdec:characterName="Animation_Environmentals_fla.a_SpirePuff_194" height="89.05" transform="matrix(-0.4387, 0.7499, 0.7499, 0.4387, 261.7511, 137.7005)" width="79.85" xlink:href="#sprite0"/>
    <use ffdec:characterId="22" ffdec:characterName="Animation_Environmentals_fla.a_SpirePuff_194" height="89.05" transform="matrix(-0.3798, 0.4054, 0.4054, 0.3799, 305.0756, 190.8033)" width="79.85" xlink:href="#sprite0"/>
    <use ffdec:characterId="24" height="76.85" transform="matrix(-0.1664, 0.718, 0.718, 0.1664, 306.2381, 195.1693)" width="92.05" xlink:href="#sprite1"/>
    <use ffdec:characterId="24" height="76.85" transform="matrix(-0.3114, 0.5601, 0.5601, 0.3114, 284.8216, 167.7091)" width="92.05" xlink:href="#sprite1"/>
    <use ffdec:characterId="24" height="76.85" transform="matrix(-0.1225, 0.75, 0.75, 0.1226, 291.691, 198.4967)" width="92.05" xlink:href="#sprite1"/>
    <use ffdec:characterId="22" ffdec:characterName="Animation_Environmentals_fla.a_SpirePuff_194" height="89.05" transform="matrix(-0.034, 0.7869, 0.7869, 0.0341, 301.3454, 182.182)" width="79.85" xlink:href="#sprite0"/>
    <use ffdec:characterId="22" ffdec:characterName="Animation_Environmentals_fla.a_SpirePuff_194" height="89.05" transform="matrix(-0.3798, 0.4054, 0.4054, 0.3799, 135.6256, 217.4533)" width="79.85" xlink:href="#sprite0"/>
    <use ffdec:characterId="24" height="76.85" transform="matrix(-0.1664, 0.718, 0.718, 0.1664, 136.7881, 221.8193)" width="92.05" xlink:href="#sprite1"/>
    <use ffdec:characterId="24" height="76.85" transform="matrix(-0.3114, 0.5601, 0.5601, 0.3114, 115.3716, 194.3591)" width="92.05" xlink:href="#sprite1"/>
    <use ffdec:characterId="24" height="76.85" transform="matrix(-0.1225, 0.75, 0.75, 0.1226, 122.241, 225.1467)" width="92.05" xlink:href="#sprite1"/>
    <use ffdec:characterId="22" ffdec:characterName="Animation_Environmentals_fla.a_SpirePuff_194" height="89.05" transform="matrix(-0.034, 0.7869, 0.7869, 0.0341, 131.8954, 208.832)" width="79.85" xlink:href="#sprite0"/>
  </g>
  <defs>
    <g id="sprite0" transform="matrix(1.0, 0.0, 0.0, 1.0, 79.85, 89.05)">
      <use ffdec:characterId="7" height="16.45" transform="matrix(5.4133, 0.0, 0.0, 5.4133, -79.8455, -89.048)" width="14.75" xlink:href="#shape0"/>
    </g>
    <g id="shape0" transform="matrix(1.0, 0.0, 0.0, 1.0, 14.75, 16.45)">
      <path d="M-12.7 -14.8 Q-12.75 -15.2 -13.05 -15.45 -13.35 -15.75 -13.8 -15.75 -14.25 -15.75 -14.55 -15.5 L-14.6 -15.45 Q-14.55 -15.7 -14.35 -15.95 -14.05 -16.3 -13.6 -16.4 -13.15 -16.5 -12.8 -16.3 -12.45 -16.1 -12.45 -15.55 -12.45 -15.25 -12.7 -14.8 M-14.7 -7.45 Q-14.55 -9.25 -12.95 -10.85 -11.2 -12.6 -8.95 -13.0 -6.55 -13.45 -5.0 -11.9 -3.25 -10.15 -3.2 -6.25 -1.95 -6.35 -1.0 -5.75 0.0 -5.05 0.0 -3.95 0.0 -3.25 -0.85 -2.2 -1.0 -2.7 -1.35 -3.15 -2.3 -4.35 -4.65 -4.1 -4.2 -5.9 -5.9 -7.4 -7.45 -8.8 -9.85 -9.05 -12.4 -9.3 -14.05 -8.05 -14.45 -7.8 -14.7 -7.45" fill="#eff2cd" fill-opacity="0.67058825" fill-rule="evenodd" stroke="none"/>
      <path d="M-14.6 -15.45 L-14.55 -15.5 Q-14.25 -15.75 -13.8 -15.75 -13.35 -15.75 -13.05 -15.45 -12.75 -15.2 -12.7 -14.8 L-12.9 -14.5 Q-13.35 -13.85 -13.75 -13.85 -14.3 -13.85 -14.55 -14.4 -14.7 -14.7 -14.7 -15.05 L-14.6 -15.45 M-0.85 -2.2 L-1.35 -1.65 Q-2.85 0.0 -4.35 0.0 -5.7 0.0 -6.2 -0.8 -7.55 -0.15 -9.5 -0.15 -12.65 -0.15 -14.0 -3.65 -14.4 -4.75 -14.6 -6.05 L-14.75 -7.05 -14.7 -7.45 Q-14.45 -7.8 -14.05 -8.05 -12.4 -9.3 -9.85 -9.05 -7.45 -8.8 -5.9 -7.4 -4.2 -5.9 -4.65 -4.1 -2.3 -4.35 -1.35 -3.15 -1.0 -2.7 -0.85 -2.2" fill="#c8cd99" fill-opacity="0.67058825" fill-rule="evenodd" stroke="none"/>
    </g>
    <g id="sprite1" transform="matrix(1.0, 0.0, 0.0, 1.0, 92.05, 76.85)">
      <use ffdec:characterId="23" height="14.2" transform="matrix(5.4133, 0.0, 0.0, 5.4133, -92.0253, -76.8682)" width="17.0" xlink:href="#shape1"/>
    </g>
    <g id="shape1" transform="matrix(1.0, 0.0, 0.0, 1.0, 17.0, 14.2)">
      <path d="M-16.9 -2.8 L-16.85 -2.85 Q-16.2 -3.35 -15.3 -3.4 -14.4 -3.45 -13.75 -3.0 L-13.65 -2.95 -13.65 -3.1 Q-13.65 -4.25 -12.8 -4.9 -12.0 -5.5 -10.85 -5.45 -9.7 -5.35 -8.9 -4.7 -8.05 -3.95 -8.05 -2.75 L-8.05 -2.7 Q-8.3 -2.25 -8.75 -1.7 -10.05 -0.2 -11.2 -0.2 -12.4 -0.2 -13.1 -0.75 L-13.2 -1.05 -13.3 -0.85 Q-14.15 -0.2 -15.2 -0.2 -16.2 -0.2 -16.7 -1.2 -16.85 -1.55 -16.95 -1.95 L-17.0 -2.3 -17.0 -2.35 -16.9 -2.8 M-8.7 -10.3 L-8.5 -10.6 Q-7.6 -11.6 -5.85 -11.6 -3.8 -11.6 -2.5 -9.75 -1.5 -8.35 -1.5 -7.1 -1.5 -6.2 -1.65 -5.85 -2.0 -5.15 -3.15 -5.15 -3.45 -5.15 -3.65 -5.0 L-3.75 -4.85 -3.95 -4.85 Q-7.35 -4.85 -8.45 -6.9 -8.8 -7.5 -8.85 -8.3 L-8.85 -9.05 Q-8.85 -9.7 -8.7 -10.3 M-4.2 -0.05 L-4.55 0.0 Q-5.2 0.0 -5.55 -0.8 L-5.75 -1.6 Q-5.75 -2.15 -5.2 -2.6 L-5.2 -2.65 -5.05 -2.65 Q-4.4 -2.75 -3.95 -2.5 -3.45 -2.2 -3.45 -1.5 -3.45 -1.05 -4.1 -0.2 L-4.2 -0.05" fill="#c8cd99" fill-opacity="0.0" fill-rule="evenodd" stroke="none"/>
      <path d="M-8.05 -2.7 L-8.05 -2.75 Q-8.05 -3.95 -8.9 -4.7 -9.7 -5.35 -10.85 -5.45 -12.0 -5.5 -12.8 -4.9 -13.65 -4.25 -13.65 -3.1 L-13.65 -2.95 -13.75 -3.0 Q-14.4 -3.45 -15.3 -3.4 -16.2 -3.35 -16.85 -2.85 L-16.9 -2.8 Q-16.7 -3.25 -16.2 -3.65 -15.5 -4.25 -14.45 -4.55 L-13.55 -4.65 Q-13.3 -5.4 -12.9 -6.0 -12.05 -7.15 -10.75 -7.25 -9.5 -7.35 -8.65 -6.45 -7.65 -5.45 -7.65 -3.7 -7.65 -3.35 -8.05 -2.7 M-3.75 -4.85 L-3.65 -5.0 Q-3.45 -5.15 -3.15 -5.15 -2.0 -5.15 -1.65 -5.85 -1.5 -6.2 -1.5 -7.1 -1.5 -8.35 -2.5 -9.75 -3.8 -11.6 -5.85 -11.6 -7.6 -11.6 -8.5 -10.6 L-8.7 -10.3 Q-8.4 -11.45 -7.5 -12.45 -6.2 -13.85 -4.45 -14.15 -2.6 -14.45 -1.4 -13.35 0.0 -12.05 0.0 -9.25 0.0 -8.05 -0.75 -6.75 -1.8 -4.9 -3.75 -4.85 M-5.2 -2.65 Q-4.75 -3.05 -4.1 -3.2 -3.45 -3.35 -3.0 -3.1 -2.5 -2.85 -2.5 -2.15 -2.5 -1.75 -3.15 -0.9 -3.65 -0.25 -4.2 -0.05 L-4.1 -0.2 Q-3.45 -1.05 -3.45 -1.5 -3.45 -2.2 -3.95 -2.5 -4.4 -2.75 -5.05 -2.65 L-5.2 -2.65" fill="#eff2cd" fill-opacity="0.0" fill-rule="evenodd" stroke="none"/>
      <path d="M-13.3 -0.85 L-13.2 -1.05 -13.1 -0.75 -13.25 -0.9 -13.3 -0.85" fill="#f2f2f2" fill-opacity="0.0" fill-rule="evenodd" stroke="none"/>
    </g>
  </defs>
</svg>
