<?xml version="1.0" encoding="UTF-8" standalone="no"?>
<svg xmlns:ffdec="https://www.free-decompiler.com/flash" xmlns:xlink="http://www.w3.org/1999/xlink" ffdec:objectType="frame" height="189.1px" width="1065.45px" xmlns="http://www.w3.org/2000/svg">
  <g transform="matrix(1.0, 0.0, 0.0, 1.0, 63.4, 30.3)">
    <use ffdec:characterId="887" height="189.1" transform="matrix(1.0, 0.0, 0.0, 1.0, -63.4, -30.3)" width="1065.45" xlink:href="#shape0"/>
  </g>
  <defs>
    <g id="shape0" transform="matrix(1.0, 0.0, 0.0, 1.0, 63.4, 30.3)">
      <path d="M977.55 66.15 L977.75 66.15 978.9 66.15 982.2 66.15 985.3 66.1 986.05 66.1 982.7 64.9 939.9 50.35 889.35 33.2 867.2 26.3 850.1 20.95 Q807.35 7.5 772.35 -4.15 755.4 -9.8 740.35 -15.05 720.45 -20.4 700.05 -24.95 L698.6 -24.95 699.15 -25.1 698.65 -25.25 698.4 -25.15 696.45 -25.15 696.45 -24.5 696.2 -24.45 673.2 -24.3 664.15 -25.0 651.4 -24.8 643.3 -24.8 641.4 -24.85 616.4 -24.5 609.95 -25.05 609.95 -24.85 610.0 -23.75 607.3 -23.75 606.1 -24.7 607.2 -23.75 604.65 -23.75 604.45 -23.95 604.1 -24.1 603.85 -24.2 603.8 -24.2 603.6 -24.2 603.45 -24.05 603.3 -23.85 603.3 -24.2 603.15 -24.2 603.2 -24.35 603.3 -24.55 603.45 -24.75 603.9 -25.25 583.5 -25.3 582.25 -25.1 574.15 -23.95 573.05 -23.75 532.9 -23.75 532.25 -24.1 530.25 -23.95 527.35 -23.75 526.9 -23.75 524.3 -23.75 512.2 -24.7 508.4 -24.7 491.45 -24.7 489.1 -24.6 483.0 -24.35 481.0 -24.45 480.9 -24.2 442.7 -24.75 440.35 -24.55 439.8 -24.75 428.05 -24.95 425.0 -25.75 410.4 -25.8 406.3 -25.25 352.25 -25.9 344.25 -25.3 341.95 -25.15 331.2 -24.35 330.55 -24.35 328.7 -24.25 322.25 -23.75 297.25 -24.5 295.35 -24.45 287.25 -24.55 274.5 -24.95 265.45 -24.45 242.45 -24.85 242.2 -24.95 242.2 -25.6 240.25 -25.65 240.0 -25.75 239.5 -25.6 240.05 -25.4 238.6 -25.4 Q218.2 -21.2 198.3 -16.15 L166.3 -5.75 Q131.3 5.4 88.55 18.15 L71.45 23.25 49.3 29.8 -1.25 46.15 -44.05 60.1 -47.4 61.25 -46.65 61.25 -43.55 61.35 -40.25 61.35 -39.1 61.4 -38.9 61.4 -29.4 61.35 -27.7 62.65 -28.25 62.85 -28.75 62.95 -34.2 62.55 -39.35 62.3 -39.35 63.1 Q-46.45 61.6 -51.05 63.6 -52.2 62.55 -54.25 62.6 -56.1 62.7 -57.65 63.8 -59.25 65.05 -59.5 66.6 L-59.65 71.25 -59.8 79.85 Q-59.75 88.25 -60.3 106.05 -60.3 117.25 -59.65 126.85 L-59.0 134.55 -59.15 134.55 Q-57.35 144.9 -57.35 147.0 L-57.45 147.25 -27.45 150.2 1.55 150.6 2.5 151.0 42.5 151.6 Q43.45 151.25 61.5 151.25 L71.35 150.5 87.35 149.25 124.4 149.45 125.3 149.0 149.8 149.4 165.45 150.85 189.8 153.25 225.85 153.8 235.7 153.35 237.5 153.2 254.5 153.3 254.2 153.75 255.9 153.3 264.55 153.35 271.7 153.3 288.6 152.75 291.4 152.85 291.7 152.85 309.85 151.05 310.1 150.8 310.1 150.6 Q310.1 149.45 310.9 145.5 L311.45 142.4 311.6 141.2 311.7 139.5 311.9 134.15 311.85 134.15 311.9 129.85 Q311.25 113.0 311.4 104.55 L311.9 104.55 Q311.9 112.45 312.55 128.7 L312.75 128.7 313.45 134.0 314.15 139.15 314.3 140.25 314.6 142.2 Q315.4 146.95 316.25 150.5 L316.35 150.7 321.4 150.45 323.9 149.75 352.65 151.45 366.1 151.45 366.7 151.35 372.05 148.75 Q372.55 147.55 373.45 147.2 L375.35 147.0 376.2 146.6 387.45 144.35 380.1 148.8 382.7 150.35 398.05 149.45 441.35 149.45 Q456.8 149.95 458.15 151.1 L484.7 151.45 485.2 150.45 500.9 151.6 517.65 153.05 590.15 152.85 589.4 152.75 590.8 151.0 Q588.65 150.55 585.9 148.45 L580.6 144.15 579.0 143.05 Q574.5 140.0 569.15 139.0 L569.2 138.5 582.85 142.4 583.9 142.7 588.1 143.9 618.3 152.45 616.95 152.8 624.05 152.8 623.95 151.1 Q623.95 149.7 624.75 144.4 L624.95 142.9 Q625.5 138.75 625.5 136.35 L626.3 136.35 626.35 136.5 626.35 136.6 626.45 137.2 626.5 137.25 626.65 141.15 626.65 141.55 626.65 141.9 626.6 142.85 626.45 145.0 Q626.55 150.05 629.95 152.8 L674.8 152.7 674.9 152.6 676.55 152.7 752.45 152.55 767.15 151.25 777.9 150.45 775.3 152.3 788.85 151.25 813.35 151.25 814.25 151.7 851.3 152.05 Q858.75 152.2 867.3 153.55 L877.15 154.5 896.15 155.1 936.15 155.1 937.1 154.75 966.1 154.75 996.1 152.3 996.0 152.05 Q996.0 149.95 997.8 139.6 L997.65 139.6 998.3 131.9 Q998.95 122.3 998.95 111.1 998.4 93.3 998.45 84.9 L998.3 76.3 998.15 71.65 Q997.9 70.05 996.3 68.8 994.75 67.7 992.9 67.6 990.85 67.45 989.7 68.5 985.1 66.45 978.0 67.85 L978.0 67.0 972.85 67.2 967.4 67.6 966.9 67.45 Q966.35 67.35 966.35 67.2 L968.05 65.95 977.55 66.15 M49.15 62.55 L71.15 62.7 71.6 63.15 78.9 63.4 88.1 63.7 88.25 63.8 90.5 63.85 105.95 64.85 111.15 64.95 112.2 64.85 Q115.8 64.6 131.8 64.65 L132.1 64.65 121.95 65.2 112.2 65.4 111.8 65.4 105.8 65.85 98.85 66.0 91.15 65.45 71.8 64.8 68.65 64.15 65.4 63.85 49.25 63.9 Q45.4 64.35 27.35 64.1 27.15 64.35 13.05 64.45 L-1.0 64.45 -4.9 64.4 -11.95 63.6 -18.8 62.95 -18.6 62.15 -6.2 62.35 -1.0 63.2 26.7 63.65 39.9 63.05 49.15 62.55 M229.6 66.1 L238.9 66.15 234.8 66.85 229.4 67.4 221.45 67.9 217.25 67.6 199.85 67.1 199.55 66.95 199.35 66.9 194.65 66.4 194.3 66.4 192.7 66.25 192.4 66.2 192.35 66.2 190.95 66.15 186.0 65.7 186.2 64.95 184.85 65.1 181.15 65.3 170.1 65.6 159.25 65.6 150.75 65.05 142.55 64.65 130.45 66.25 128.05 66.7 120.15 66.35 131.6 64.95 139.55 63.7 142.6 63.4 158.65 63.9 158.8 63.95 159.35 64.05 172.35 64.7 172.6 64.7 173.15 64.7 175.35 64.8 175.9 64.8 176.5 64.85 177.0 64.85 177.55 64.85 177.85 64.85 180.2 64.9 180.55 64.9 184.7 64.45 188.55 64.4 186.2 64.95 198.65 65.15 198.8 65.4 199.35 65.85 229.6 66.1 M252.55 67.5 L250.55 67.25 246.55 66.65 254.05 66.2 256.8 66.65 259.6 66.45 262.1 66.5 303.65 66.6 303.95 66.6 310.9 65.9 312.3 65.65 316.4 65.75 315.75 66.6 317.85 66.35 318.0 66.6 318.15 66.95 315.45 67.1 Q312.85 70.9 312.45 76.4 L312.4 78.05 312.4 78.15 Q312.35 80.9 312.65 86.45 312.75 91.3 311.9 94.55 L311.4 94.55 Q311.25 89.8 311.25 80.35 L311.45 72.45 311.45 71.0 311.4 69.8 311.4 68.95 Q311.45 67.95 311.75 67.15 L310.95 67.4 309.5 67.85 309.1 67.95 308.5 68.15 308.15 67.9 308.35 67.85 Q309.6 67.35 310.9 66.95 L312.0 66.6 312.1 66.4 310.9 66.5 306.1 66.85 306.05 66.85 302.1 67.1 301.7 67.1 291.4 67.35 280.65 67.35 259.8 67.35 257.05 67.75 254.6 67.95 252.55 67.5 M376.05 66.65 L370.25 65.75 335.7 65.15 335.9 64.55 336.1 64.15 Q370.5 64.45 371.15 65.15 383.9 65.75 384.65 66.45 L431.0 66.45 433.75 65.55 437.15 64.85 490.85 64.85 Q507.0 65.2 508.45 66.45 L538.35 66.45 568.4 65.35 Q579.0 65.2 595.6 65.45 L595.7 65.35 596.1 64.85 613.6 66.65 620.25 67.45 621.85 67.6 623.55 67.45 634.2 66.2 646.5 64.85 654.9 65.15 Q708.75 65.75 709.0 66.45 L708.6 66.7 709.05 66.7 739.3 66.95 739.85 66.5 740.0 66.25 752.45 66.25 752.65 67.0 747.7 67.4 746.3 67.45 746.25 67.45 745.95 67.45 744.35 67.6 744.0 67.6 739.3 68.0 739.1 68.1 738.8 68.2 721.4 68.4 717.2 68.65 709.25 68.0 703.85 67.4 700.5 66.85 691.75 66.9 692.1 67.0 688.1 67.6 686.1 67.85 684.05 68.2 681.6 68.0 680.0 67.85 681.95 66.95 654.9 67.1 642.55 67.5 Q641.3 67.75 640.25 68.15 633.45 70.55 627.5 70.9 L627.5 76.4 627.25 76.55 627.4 79.7 627.25 93.9 626.75 93.9 Q625.9 90.65 626.0 85.8 L626.25 77.55 626.25 77.4 626.2 76.1 Q625.0 73.5 624.45 69.9 L610.3 68.6 609.75 68.5 601.15 67.4 601.1 67.4 597.7 68.8 Q596.6 67.6 595.05 67.1 L589.4 68.5 Q590.65 67.9 591.85 67.4 L593.3 67.4 593.25 67.1 571.4 67.25 568.1 67.35 567.0 67.35 561.8 67.4 558.2 67.5 538.35 68.4 507.9 67.6 Q507.55 67.2 504.2 67.15 L490.85 67.25 437.15 67.25 432.95 67.95 431.0 68.4 407.5 67.95 383.6 67.1 377.1 66.7 376.05 66.65 M848.15 66.6 L850.4 66.6 850.55 66.5 Q852.4 66.35 859.75 66.35 L867.05 66.2 867.5 65.75 889.5 65.95 898.75 66.6 911.95 67.4 939.65 67.4 944.85 66.6 957.25 66.6 957.45 67.4 950.6 67.95 943.55 68.65 939.65 68.65 925.6 68.4 911.3 67.85 Q893.25 67.85 889.4 67.35 L873.25 67.0 870.0 67.25 866.85 67.85 847.5 68.2 839.8 68.65 832.85 68.4 826.85 67.85 816.7 67.5 806.55 66.75 806.85 66.75 827.5 67.4 832.7 67.4 848.15 66.6 M667.25 -30.3 L683.55 -29.05 711.1 -27.35 708.3 -27.25 Q711.6 -25.8 715.6 -24.3 736.0 -16.7 753.9 -14.65 L754.5 -14.4 Q760.65 -12.05 766.7 -10.35 776.05 -6.95 779.65 -5.8 L791.5 -2.4 793.15 -1.85 797.95 0.8 Q805.3 4.45 813.35 6.65 822.75 9.2 838.45 14.25 847.15 16.85 856.05 18.85 L866.7 22.15 Q872.55 24.7 876.5 25.95 L950.2 49.2 Q971.8 56.95 991.95 62.4 995.25 63.9 997.25 65.2 L997.7 65.3 997.7 65.55 Q999.5 66.75 1000.05 67.85 1002.05 69.45 1002.05 71.05 1002.05 77.75 1000.8 98.2 1001.35 100.7 1001.55 103.3 L1001.7 112.85 Q1001.7 117.5 1000.7 127.55 L1000.75 129.85 1000.1 146.1 1000.35 147.3 1001.05 152.0 Q1001.05 154.9 990.6 156.05 L956.45 157.95 946.45 158.2 935.8 158.8 896.5 158.8 895.5 158.35 877.15 158.05 867.9 157.55 851.7 156.1 833.05 155.85 Q814.25 155.55 813.6 155.3 L790.15 154.9 Q779.4 156.45 754.7 158.05 L750.65 158.05 749.5 156.95 623.5 156.65 622.8 156.45 Q614.2 154.5 607.05 154.0 597.15 149.8 595.1 154.35 591.65 154.4 587.3 156.55 L524.15 156.4 520.15 156.45 508.65 157.3 507.15 157.1 491.25 155.55 484.7 155.35 457.1 155.05 Q456.75 154.55 453.65 154.5 450.95 154.4 441.35 154.65 L398.05 154.65 386.7 154.25 380.3 155.3 Q378.9 153.55 378.0 151.75 374.3 152.1 370.3 156.15 L369.9 156.4 354.0 157.2 346.9 156.1 Q326.0 153.2 317.0 154.25 314.1 152.5 311.4 153.4 309.8 154.0 307.65 155.55 L300.4 156.45 297.35 155.85 291.4 155.9 287.45 155.9 287.3 156.0 277.25 156.4 Q271.8 157.6 264.55 157.4 L237.8 157.2 236.85 157.45 183.95 156.65 Q159.25 154.75 148.5 153.05 L125.05 153.05 Q124.55 153.25 112.2 153.3 L105.6 153.3 86.95 153.3 70.75 154.5 61.5 154.8 43.15 154.85 42.15 155.3 2.85 154.65 -7.8 153.9 -17.8 153.55 -51.95 151.1 Q-62.4 149.8 -62.4 146.9 L-61.7 142.2 -61.45 140.95 -62.1 124.75 -62.05 122.4 Q-63.05 112.4 -63.05 107.75 L-62.9 98.2 Q-62.7 95.6 -62.15 93.1 -63.4 72.6 -63.4 65.95 -63.4 64.35 -61.4 62.7 -60.85 61.65 -59.05 60.5 L-59.05 60.25 -58.6 60.15 Q-55.95 58.55 -51.1 56.5 L-26.35 49.35 62.15 22.75 Q66.1 21.6 71.95 19.1 L82.6 15.95 Q91.5 14.1 100.2 11.6 115.9 6.8 125.3 4.4 133.35 2.35 140.7 -1.2 L145.5 -3.75 147.15 -4.3 159.0 -7.55 171.95 -11.9 Q178.0 -13.45 184.15 -15.75 L184.75 -15.95 Q202.65 -17.75 223.05 -25.05 L232.65 -28.85 237.1 -29.2 237.95 -29.15 238.55 -29.35 238.45 -29.4 239.65 -29.6 239.45 -29.1 241.3 -29.2 260.55 -28.45 266.0 -28.1 270.8 -28.55 276.4 -28.8 291.45 -27.85 294.45 -27.8 307.05 -28.0 Q306.7 -28.15 306.7 -28.35 L321.65 -29.3 667.25 -30.3 M601.05 67.4 L599.0 67.1 598.4 67.4 601.05 67.4 M605.55 152.85 L604.85 152.75 604.85 152.85 605.55 152.85 M604.25 152.8 L604.25 152.85 604.3 152.85 604.25 152.8 M997.85 139.25 L998.0 138.35 998.0 137.9 997.85 139.25 M818.5 68.65 L810.6 68.9 808.2 68.45 796.1 66.65 787.9 66.9 779.4 67.35 768.55 67.15 757.5 66.65 753.8 66.4 Q750.1 66.0 750.1 65.65 L753.95 65.75 758.1 66.25 758.45 66.25 760.8 66.25 761.1 66.25 761.65 66.25 762.15 66.25 762.75 66.25 763.3 66.25 765.5 66.2 766.05 66.2 766.3 66.2 779.3 65.75 779.85 65.7 780.0 65.65 Q796.05 65.65 796.05 65.4 L799.1 65.7 807.05 67.1 Q814.4 68.45 818.5 68.65 M-59.35 132.9 L-59.35 133.3 -59.2 134.2 -59.35 132.9" fill="#7fa33f" fill-rule="evenodd" stroke="none"/>
      <path d="M610.0 -23.75 L609.95 -24.85 609.95 -25.05 616.4 -24.5 641.4 -24.85 643.3 -24.8 651.4 -24.8 664.15 -25.0 673.2 -24.3 696.2 -24.45 696.45 -24.5 696.45 -25.15 698.4 -25.15 698.65 -25.25 699.15 -25.1 698.6 -24.95 700.05 -24.95 Q720.45 -20.4 740.35 -15.05 755.4 -9.8 772.35 -4.15 807.35 7.5 850.1 20.95 L867.2 26.3 889.35 33.2 939.9 50.35 982.7 64.9 986.05 66.1 985.3 66.1 982.2 66.15 978.9 66.15 977.75 66.15 977.55 66.15 972.55 65.45 946.7 65.45 944.85 65.95 889.5 65.95 867.5 65.75 867.05 66.2 859.75 66.35 Q852.4 66.35 850.55 66.5 L850.4 66.6 848.15 66.6 809.45 66.6 Q800.55 65.3 785.65 64.95 L754.7 64.95 Q744.95 62.45 721.55 65.05 L709.05 66.7 708.6 66.7 709.0 66.45 Q708.75 65.75 654.9 65.15 L646.5 64.85 634.2 66.2 623.55 67.45 620.25 67.45 613.6 66.65 596.1 64.85 595.7 65.35 595.6 65.45 Q579.0 65.2 568.4 65.35 L538.35 66.45 508.45 66.45 Q507.0 65.2 490.85 64.85 L437.15 64.85 433.75 65.55 431.0 66.45 384.65 66.45 Q383.9 65.75 371.15 65.15 370.5 64.45 336.1 64.15 L335.9 64.55 335.7 65.15 370.25 65.75 376.05 66.65 325.85 65.95 316.4 65.75 312.3 65.65 309.3 65.6 304.8 66.25 303.2 66.25 291.4 65.95 289.55 65.9 266.55 64.9 Q265.25 65.85 262.1 66.5 L259.6 66.45 256.8 66.65 254.05 66.2 246.55 66.65 250.55 67.25 252.55 67.5 243.25 67.75 234.8 66.85 238.9 66.15 229.6 66.1 217.1 64.2 Q193.7 61.3 183.95 63.6 L153.0 63.15 129.2 64.4 90.5 63.85 88.25 63.8 88.1 63.7 78.9 63.4 71.6 63.15 71.15 62.7 49.15 62.55 -6.2 61.75 Q-7.9 61.35 -8.05 61.15 L-33.9 60.8 -38.9 61.4 -39.1 61.4 -40.25 61.35 -43.55 61.35 -46.65 61.25 -47.4 61.25 -44.05 60.1 -1.25 46.15 49.3 29.8 71.45 23.25 88.55 18.15 Q131.3 5.4 166.3 -5.75 L198.3 -16.15 Q218.2 -21.2 238.6 -25.4 L240.05 -25.4 239.5 -25.6 240.0 -25.75 240.25 -25.65 242.2 -25.6 242.2 -24.95 242.45 -24.85 265.45 -24.45 274.5 -24.95 287.25 -24.55 295.35 -24.45 297.25 -24.5 322.25 -23.75 328.7 -24.25 330.55 -24.35 331.2 -24.35 341.95 -25.15 344.25 -25.3 352.25 -25.9 406.3 -25.25 410.4 -25.8 425.0 -25.75 428.05 -24.95 439.8 -24.75 440.35 -24.55 442.7 -24.75 480.9 -24.2 481.0 -24.45 483.0 -24.35 489.1 -24.6 491.45 -24.7 508.4 -24.7 512.2 -24.7 524.3 -23.75 476.4 -23.75 Q463.6 -23.85 459.4 -22.2 458.55 -21.85 457.95 -21.3 457.85 -15.85 452.55 -16.35 445.4 -18.1 441.85 -18.1 412.0 -18.1 389.35 -11.25 L386.25 -11.55 Q397.15 -16.0 411.9 -19.45 L356.2 -20.3 355.55 -20.25 349.95 -19.9 336.2 -18.95 330.45 -18.65 328.75 -18.5 325.25 -18.35 Q302.55 -17.15 299.15 -17.95 L280.8 -18.1 278.05 -17.5 Q263.8 -18.5 261.3 -19.4 L242.6 -19.65 Q205.95 -8.6 114.7 17.1 L100.85 21.1 73.95 28.75 74.6 29.1 Q96.9 35.2 119.9 38.15 L106.9 37.5 88.5 38.5 82.15 39.7 Q80.95 39.7 75.8 37.8 70.65 35.95 67.45 35.9 66.6 35.9 64.45 36.75 62.3 37.65 61.5 37.55 L57.0 36.7 50.85 35.85 51.05 35.45 Q15.4 46.0 -13.25 55.05 L-11.95 55.45 Q-8.8 55.2 2.45 55.8 L12.65 56.35 15.2 56.5 19.85 56.75 32.35 56.95 45.35 55.75 49.9 55.05 234.25 57.85 Q252.4 62.4 282.05 59.4 L309.75 60.55 323.75 60.5 330.75 60.55 329.65 60.85 333.3 60.85 336.5 60.8 337.15 60.9 366.8 61.9 372.2 62.25 378.3 61.9 386.75 60.9 389.6 60.65 Q393.4 57.2 413.9 52.55 432.0 48.5 440.9 47.5 450.85 46.0 472.25 41.2 497.2 35.6 502.8 32.8 507.55 30.5 562.5 17.35 619.5 3.75 634.0 3.3 L638.8 -6.95 Q642.0 -14.25 642.8 -19.05 L637.9 -19.8 Q634.2 -20.75 632.8 -22.95 L633.2 -23.75 610.0 -23.75 M681.9 -19.2 L677.35 -19.2 675.15 -18.75 673.7 -18.85 Q668.05 -19.1 659.45 -21.25 653.75 -20.2 642.5 -21.4 643.5 -20.75 643.75 -20.1 644.05 -19.3 644.05 -17.0 644.05 -14.65 640.6 -5.95 637.65 1.35 636.15 3.45 637.2 3.75 638.45 4.75 640.3 6.25 641.85 6.25 L642.95 6.25 643.0 6.25 Q666.25 1.7 668.55 1.7 638.2 11.55 616.0 13.45 L605.3 15.2 567.3 21.4 Q526.8 29.35 485.05 39.5 431.6 52.45 423.35 58.6 L422.9 58.55 420.65 58.45 420.55 58.45 420.5 58.45 403.2 59.6 392.8 60.4 556.45 59.6 558.9 59.6 562.05 59.6 597.15 60.1 656.9 60.1 664.45 59.5 677.15 60.55 677.8 60.8 Q693.25 61.1 704.4 58.45 L728.8 58.45 759.1 58.45 841.4 58.45 862.15 58.45 864.05 58.6 870.2 59.0 878.15 59.25 Q880.95 59.25 883.05 58.45 L888.75 58.45 893.3 59.25 906.3 60.6 918.8 60.6 923.45 60.4 926.0 60.35 936.2 59.9 Q947.45 59.5 950.6 59.8 L951.9 59.4 Q926.75 51.1 896.3 41.55 890.7 39.55 882.4 37.2 L882.3 37.2 881.6 36.95 878.0 35.9 877.9 35.85 877.8 35.85 864.7 31.8 864.05 32.1 863.25 32.35 874.1 34.9 865.15 35.0 852.85 33.95 838.1 33.1 Q837.35 33.65 836.55 33.8 835.0 34.1 835.0 32.15 835.0 31.95 842.6 30.05 L852.05 27.95 837.8 23.7 823.95 19.5 790.65 9.6 786.8 8.45 734.15 -7.4 728.4 -7.15 Q719.25 -7.15 713.2 -8.45 L708.9 -9.8 671.7 -0.05 Q680.35 -3.65 693.0 -10.8 699.6 -14.55 703.95 -16.7 L696.1 -19.2 681.9 -19.2 M696.65 -24.25 L696.4 -24.2 696.65 -24.2 696.65 -24.25 M242.0 -24.7 L242.0 -24.6 242.25 -24.6 242.0 -24.7 M637.65 -2.0 Q638.65 -3.0 639.3 -4.5 639.95 -6.1 639.5 -6.55 L639.5 -6.25 Q638.15 -4.05 637.65 -2.65 L637.65 -2.0 M610.4 44.45 Q605.95 46.55 603.4 46.25 602.15 45.75 601.55 44.8 604.7 42.4 608.1 41.25 611.5 40.15 614.35 40.6 L615.3 41.55 Q613.9 42.8 610.4 44.45 M472.35 14.65 Q473.2 13.9 475.15 13.9 477.1 13.9 479.65 15.05 L484.9 17.45 Q489.75 19.35 495.95 19.7 489.45 20.1 485.2 21.2 478.45 22.95 476.4 22.95 L453.4 20.2 446.2 19.25 Q430.1 26.0 418.4 30.15 433.45 23.15 443.1 18.85 L395.15 13.4 Q395.15 13.05 395.45 12.85 L395.75 12.5 426.8 16.0 458.25 18.75 Q468.5 18.75 471.0 16.35 L472.35 14.65 M448.65 18.2 L445.25 17.9 Q447.15 17.05 448.8 16.35 469.35 7.4 477.3 5.6 461.6 12.7 448.65 18.2 M380.8 25.95 Q378.35 26.5 377.8 26.85 L376.8 27.7 Q375.75 28.2 375.75 26.25 375.75 24.2 377.95 24.3 L383.55 25.3 380.8 25.95 M298.35 48.65 Q298.35 47.4 298.65 47.55 L299.0 47.8 Q299.9 48.45 306.05 50.45 309.55 51.6 310.35 53.2 L295.0 53.5 291.5 53.65 279.2 52.45 266.75 51.35 272.8 50.65 280.0 50.35 Q284.45 50.4 286.3 51.75 288.15 53.05 294.6 53.2 298.85 51.6 299.65 50.85 299.3 50.5 298.75 50.35 298.35 49.9 298.35 48.65 M265.1 11.45 L264.2 10.3 Q265.85 8.35 268.65 7.45 L272.3 6.85 272.95 8.55 270.0 10.85 Q268.3 11.85 267.5 11.85 265.55 11.85 265.1 11.45 M249.5 5.75 Q249.5 7.85 247.7 8.5 L243.55 8.9 Q240.15 8.9 237.8 7.5 L237.5 6.05 238.45 4.1 Q238.8 3.3 239.45 3.05 L248.75 3.55 249.15 3.8 Q249.5 3.9 249.5 5.75 M235.2 48.4 L239.1 47.1 Q239.7 47.1 242.3 48.95 L241.8 49.9 240.4 50.1 Q239.5 50.1 237.85 49.45 L235.2 48.4 M167.65 44.15 L164.6 44.35 Q153.85 44.15 134.95 40.2 L126.45 38.8 169.5 43.7 167.65 44.15 M83.05 48.15 Q82.85 48.65 81.65 49.15 L79.2 49.7 Q76.5 49.65 75.4 48.8 74.55 48.1 74.15 46.4 76.5 45.35 78.2 45.15 81.45 44.8 83.05 48.15 M58.55 33.8 L60.65 32.65 52.3 35.1 58.55 33.8 M44.2 44.6 Q43.5 45.5 42.15 45.5 37.95 45.4 37.95 42.0 37.95 40.8 38.35 40.6 L38.75 40.4 Q42.5 39.9 43.9 40.75 44.9 41.45 45.1 43.3 L44.2 44.6 M748.4 20.7 Q742.4 22.3 727.5 22.0 L726.65 21.25 725.3 20.0 727.6 19.0 Q728.55 18.6 728.55 18.4 L743.35 18.7 752.0 18.75 Q751.45 19.85 748.4 20.7 M690.15 38.55 L686.4 41.0 Q682.95 43.05 680.75 42.95 L678.9 42.8 Q678.25 42.6 678.25 40.6 678.25 38.1 681.1 37.15 684.3 36.1 689.5 37.65 L690.15 38.55" fill="#c2d59f" fill-rule="evenodd" stroke="none"/>
      <path d="M696.65 -24.25 L696.65 -24.2 696.4 -24.2 696.65 -24.25 M242.0 -24.7 L242.25 -24.6 242.0 -24.6 242.0 -24.7" fill="#466c4b" fill-rule="evenodd" stroke="none"/>
      <path d="M610.0 -23.75 L633.2 -23.75 632.8 -22.95 Q634.2 -20.75 637.9 -19.8 L642.8 -19.05 Q642.0 -14.25 638.8 -6.95 L634.0 3.3 Q619.5 3.75 562.5 17.35 507.55 30.5 502.8 32.8 497.2 35.6 472.25 41.2 450.85 46.0 440.9 47.5 432.0 48.5 413.9 52.55 393.4 57.2 389.6 60.65 L386.75 60.9 378.3 61.9 372.2 62.25 366.8 61.9 337.15 60.9 336.5 60.8 333.3 60.85 333.95 60.65 330.75 60.55 323.75 60.5 309.75 60.55 282.05 59.4 Q252.4 62.4 234.25 57.85 L49.9 55.05 45.35 55.75 32.35 56.95 19.85 56.75 15.2 56.5 12.65 56.35 2.45 55.8 Q-8.8 55.2 -11.95 55.45 L-13.25 55.05 Q15.4 46.0 51.05 35.45 L50.85 35.85 57.0 36.7 61.5 37.55 Q62.3 37.65 64.45 36.75 66.6 35.9 67.45 35.9 70.65 35.95 75.8 37.8 80.95 39.7 82.15 39.7 L88.5 38.5 106.9 37.5 119.9 38.15 Q96.9 35.2 74.6 29.1 L73.95 28.75 100.85 21.1 114.7 17.1 Q205.95 -8.6 242.6 -19.65 L261.3 -19.4 Q263.8 -18.5 278.05 -17.5 L280.8 -18.1 299.15 -17.95 Q302.55 -17.15 325.25 -18.35 L328.75 -18.5 330.45 -18.65 336.2 -18.95 349.95 -19.9 355.55 -20.25 356.2 -20.3 411.9 -19.45 Q397.15 -16.0 386.25 -11.55 L389.35 -11.25 Q412.0 -18.1 441.85 -18.1 445.4 -18.1 452.55 -16.35 457.85 -15.85 457.95 -21.3 458.55 -21.85 459.4 -22.2 463.6 -23.85 476.4 -23.75 L524.3 -23.75 526.9 -23.75 527.35 -23.75 532.9 -23.75 573.05 -23.75 603.8 -23.75 604.1 -24.1 604.45 -23.95 604.65 -23.75 607.2 -23.75 607.3 -23.75 610.0 -23.75 M681.9 -19.2 Q680.75 -17.9 680.75 -16.4 680.75 -14.45 681.1 -14.35 L681.4 -14.65 684.65 -14.05 Q686.4 -15.05 692.75 -17.5 694.8 -18.25 696.25 -19.1 L696.1 -19.2 703.95 -16.7 Q699.6 -14.55 693.0 -10.8 680.35 -3.65 671.7 -0.05 L708.9 -9.8 713.2 -8.45 Q719.25 -7.15 728.4 -7.15 L734.15 -7.4 786.8 8.45 778.75 10.3 Q763.4 14.15 761.4 17.0 764.85 16.6 778.0 13.4 L791.2 9.75 790.65 9.6 823.95 19.5 837.8 23.7 852.05 27.95 842.6 30.05 Q835.0 31.95 835.0 32.15 835.0 34.1 836.55 33.8 837.35 33.65 838.1 33.1 L852.85 33.95 865.15 35.0 874.1 34.9 878.1 36.0 878.0 35.9 881.6 36.95 882.3 37.2 882.4 37.2 Q890.7 39.55 896.3 41.55 926.75 51.1 951.9 59.4 L950.6 59.8 Q947.45 59.5 936.2 59.9 L926.0 60.35 923.45 60.4 918.8 60.6 906.3 60.6 893.3 59.25 888.75 58.45 883.05 58.45 Q880.95 59.25 878.15 59.25 L870.2 59.0 Q860.15 56.15 846.1 53.1 821.45 47.8 792.95 43.55 L792.65 43.95 Q792.3 44.15 792.3 44.5 805.7 47.1 816.85 50.3 831.2 54.35 837.8 55.9 L841.4 58.45 759.1 58.45 Q750.7 55.7 742.95 53.7 724.55 48.95 715.9 50.15 L707.95 50.45 Q706.3 50.45 704.7 49.6 703.1 48.75 702.0 48.75 L702.65 49.65 Q703.3 50.35 706.35 51.1 L715.9 52.65 Q719.45 56.35 728.55 57.15 L728.8 58.45 704.4 58.45 Q693.25 61.1 677.8 60.8 L677.15 60.55 664.45 59.5 656.9 60.1 597.15 60.1 562.05 59.6 560.15 58.95 558.6 58.95 558.9 59.6 556.45 59.6 556.2 58.95 541.15 59.0 520.8 59.6 447.55 59.6 426.9 58.85 423.35 58.6 Q431.6 52.45 485.05 39.5 526.8 29.35 567.3 21.4 L605.3 15.2 616.0 13.45 Q638.2 11.55 668.55 1.7 666.25 1.7 643.0 6.25 L642.95 6.25 641.85 6.25 Q640.3 6.25 638.45 4.75 637.2 3.75 636.15 3.45 637.65 1.35 640.6 -5.95 644.05 -14.65 644.05 -17.0 644.05 -19.3 643.75 -20.1 643.5 -20.75 642.5 -21.4 653.75 -20.2 659.45 -21.25 668.05 -19.1 673.7 -18.85 L675.15 -18.75 677.35 -19.2 681.9 -19.2 M666.7 -16.75 Q664.35 -16.25 664.35 -14.2 664.35 -12.25 664.7 -12.3 L665.0 -12.8 664.9 -12.45 667.15 -12.15 Q669.1 -12.15 670.1 -13.5 671.6 -15.5 673.4 -16.4 673.25 -16.9 672.3 -16.9 L671.4 -17.0 666.7 -16.75 M308.75 -1.7 L320.7 -0.45 328.75 -0.15 331.5 -2.55 Q334.15 -5.0 336.85 -5.0 L346.05 -2.7 Q355.2 -0.45 356.4 -0.45 358.8 -0.45 360.0 -1.2 360.6 -1.6 361.8 -3.1 364.4 -6.4 370.6 -7.95 369.55 -9.2 364.65 -10.3 L357.65 -11.25 Q355.05 -11.25 352.45 -9.45 L350.0 -7.65 Q348.2 -7.65 343.15 -9.35 338.8 -10.85 334.8 -10.15 329.9 -9.2 328.6 -7.45 L327.65 -4.45 Q326.4 -1.15 308.75 -1.7 M422.3 -2.95 Q422.3 -1.4 422.95 -0.75 L427.5 -1.25 432.5 -2.0 Q427.5 -3.75 422.3 -2.95 M605.0 -15.6 L605.3 -14.35 Q606.05 -13.6 607.05 -13.35 L610.45 -13.1 Q612.95 -13.1 615.6 -14.4 L619.5 -16.4 619.2 -17.0 612.2 -17.3 Q606.9 -16.85 605.0 -15.6 M637.65 -2.0 L637.65 -2.65 Q638.15 -4.05 639.5 -6.25 L639.5 -6.55 Q639.95 -6.1 639.3 -4.5 638.65 -3.0 637.65 -2.0 M610.4 44.45 Q613.9 42.8 615.3 41.55 L614.35 40.6 Q611.5 40.15 608.1 41.25 604.7 42.4 601.55 44.8 602.15 45.75 603.4 46.25 605.95 46.55 610.4 44.45 M567.6 44.6 Q569.45 43.8 570.15 42.5 562.75 39.8 560.1 40.9 558.85 41.45 557.65 44.5 559.2 44.5 559.2 45.15 L560.15 45.3 563.4 45.45 Q565.75 45.45 567.6 44.6 M639.9 49.9 L640.15 49.55 Q636.9 49.45 633.85 49.6 L632.6 49.95 Q630.4 50.65 629.25 51.6 L638.4 51.6 640.85 51.5 639.0 50.4 639.9 49.9 M611.6 51.45 L613.9 51.5 613.8 51.45 612.95 51.25 611.6 51.45 M544.0 7.5 Q539.55 8.0 537.0 9.5 L537.65 10.3 539.1 11.45 542.15 11.85 Q544.1 11.85 546.1 10.75 L549.65 7.95 Q548.35 7.0 544.0 7.5 M536.95 2.85 Q537.6 2.05 537.95 0.75 533.6 -0.05 530.9 0.85 529.1 1.5 526.7 3.75 L529.45 4.2 532.5 4.35 Q535.8 4.35 536.95 2.85 M514.05 54.05 L513.4 52.3 507.7 51.8 Q506.2 51.95 504.2 52.95 L504.7 54.65 505.15 56.25 511.85 55.4 Q513.45 54.9 514.05 54.05 M448.65 18.2 Q461.6 12.7 477.3 5.6 469.35 7.4 448.8 16.35 447.15 17.05 445.25 17.9 L448.65 18.2 M472.35 14.65 L471.0 16.35 Q468.5 18.75 458.25 18.75 L426.8 16.0 395.75 12.5 395.45 12.85 Q395.15 13.05 395.15 13.4 L443.1 18.85 Q433.45 23.15 418.4 30.15 430.1 26.0 446.2 19.25 L453.4 20.2 476.4 22.95 Q478.45 22.95 485.2 21.2 489.45 20.1 495.95 19.7 489.75 19.35 484.9 17.45 L479.65 15.05 Q477.1 13.9 475.15 13.9 473.2 13.9 472.35 14.65 M418.4 45.75 Q412.35 44.9 410.25 43.2 408.55 41.85 406.05 41.85 403.2 41.85 398.2 40.15 391.3 37.8 389.1 37.3 376.85 34.45 364.8 41.85 365.55 42.8 368.75 43.55 L380.9 43.55 380.65 47.95 Q381.45 51.05 386.7 51.05 390.1 51.05 394.1 49.3 398.05 47.5 400.3 47.5 L402.25 48.3 Q404.2 49.25 405.95 49.55 411.9 50.6 418.4 45.75 M432.2 42.6 L424.35 43.1 436.3 43.05 435.0 42.8 432.2 42.6 M380.8 25.95 L383.55 25.3 377.95 24.3 Q375.75 24.2 375.75 26.25 375.75 28.2 376.8 27.7 L377.8 26.85 Q378.35 26.5 380.8 25.95 M351.25 13.9 L354.1 13.5 355.15 13.1 355.15 11.25 Q351.55 9.35 349.8 10.2 L347.5 12.5 348.55 13.55 351.25 13.9 M346.55 16.7 L346.55 14.8 Q342.4 13.5 340.15 14.05 339.45 14.25 337.15 15.75 L340.2 16.75 344.2 17.3 346.55 17.0 Q346.75 16.85 346.55 16.7 M354.9 45.1 L357.05 45.05 357.1 44.55 354.9 45.1 M325.35 52.2 L324.85 52.25 321.65 52.95 326.9 52.85 Q326.15 52.45 325.35 52.2 M298.35 48.65 Q298.35 49.9 298.75 50.35 299.3 50.5 299.65 50.85 298.85 51.6 294.6 53.2 288.15 53.05 286.3 51.75 284.45 50.4 280.0 50.35 L272.8 50.65 266.75 51.35 279.2 52.45 291.5 53.65 295.0 53.5 310.35 53.2 Q309.55 51.6 306.05 50.45 299.9 48.45 299.0 47.8 L298.65 47.55 Q298.35 47.4 298.35 48.65 M275.9 3.25 Q277.3 2.9 280.0 1.4 L279.35 0.45 Q276.8 -0.45 272.85 -0.3 268.9 -0.15 267.5 0.75 L268.25 2.15 268.75 3.25 275.9 3.25 M249.5 5.75 Q249.5 3.9 249.15 3.8 L248.75 3.55 239.45 3.05 Q238.8 3.3 238.45 4.1 L237.5 6.05 237.8 7.5 Q240.15 8.9 243.55 8.9 L247.7 8.5 Q249.5 7.85 249.5 5.75 M265.1 11.45 Q265.55 11.85 267.5 11.85 268.3 11.85 270.0 10.85 L272.95 8.55 272.3 6.85 268.65 7.45 Q265.85 8.35 264.2 10.3 L265.1 11.45 M275.5 26.35 L277.8 25.3 277.5 24.8 271.75 25.2 Q269.25 25.75 268.75 26.55 L268.9 26.85 271.4 27.15 Q273.35 27.15 275.5 26.35 M206.55 5.0 L206.85 4.05 Q202.05 2.35 196.7 1.45 L190.15 1.05 Q190.15 2.2 190.6 3.15 L191.05 4.05 Q194.5 3.7 200.25 4.1 205.8 4.5 206.55 5.0 M206.9 26.9 L205.9 26.25 198.8 26.7 Q193.6 27.6 191.4 29.2 192.85 30.75 197.15 30.75 199.1 30.75 203.0 29.5 L208.1 27.8 Q207.95 27.45 206.9 26.9 M235.2 48.4 L237.85 49.45 Q239.5 50.1 240.4 50.1 L241.8 49.9 242.3 48.95 Q239.7 47.1 239.1 47.1 L235.2 48.4 M187.5 24.2 Q187.2 23.65 185.4 23.0 183.4 22.3 181.25 22.3 178.8 22.3 177.25 22.95 175.0 23.9 175.0 26.05 175.0 28.1 175.7 28.45 L177.8 28.9 Q182.45 27.7 184.05 26.55 L187.5 24.2 M167.65 44.15 L169.5 43.7 126.45 38.8 134.95 40.2 Q153.85 44.15 164.6 44.35 L167.65 44.15 M83.05 48.15 Q81.45 44.8 78.2 45.15 76.5 45.35 74.15 46.4 74.55 48.1 75.4 48.8 76.5 49.65 79.2 49.7 L81.65 49.15 Q82.85 48.65 83.05 48.15 M44.2 44.6 L45.1 43.3 Q44.9 41.45 43.9 40.75 42.5 39.9 38.75 40.4 L38.35 40.6 Q37.95 40.8 37.95 42.0 37.95 45.4 42.15 45.5 43.5 45.5 44.2 44.6 M813.25 26.55 L812.65 24.8 809.15 24.3 Q807.9 24.4 805.9 25.3 L806.0 26.7 Q806.2 27.45 806.85 28.1 L806.75 28.45 809.05 28.75 Q811.1 28.75 812.1 28.0 L813.25 26.55 M827.65 39.8 L827.2 39.4 821.65 40.15 822.5 40.15 827.65 39.8 M771.4 39.65 L770.75 38.75 Q767.75 38.05 765.8 38.1 L763.9 38.25 763.9 40.9 764.35 41.1 767.15 41.25 769.85 40.8 771.4 39.65 M690.15 38.55 L689.5 37.65 Q684.3 36.1 681.1 37.15 678.25 38.1 678.25 40.6 678.25 42.6 678.9 42.8 L680.75 42.95 Q682.95 43.05 686.4 41.0 L690.15 38.55 M748.4 20.7 Q751.45 19.85 752.0 18.75 L743.35 18.7 728.55 18.4 Q728.55 18.6 727.6 19.0 L725.3 20.0 726.65 21.25 727.5 22.0 Q742.4 22.3 748.4 20.7 M669.8 19.35 L669.5 18.4 Q668.3 17.4 665.8 17.3 L661.25 17.8 Q661.45 19.05 662.5 20.6 L662.7 20.95 665.3 21.25 Q667.4 21.25 668.5 20.65 L669.8 19.35 M658.65 50.2 Q655.55 50.2 653.7 50.9 L662.0 50.4 658.65 50.2" fill="#b0c981" fill-rule="evenodd" stroke="none"/>
      <path d="M666.7 -16.75 L671.4 -17.0 672.3 -16.9 Q673.25 -16.9 673.4 -16.4 671.6 -15.5 670.1 -13.5 669.1 -12.15 667.15 -12.15 L664.9 -12.45 665.0 -12.8 664.7 -12.3 Q664.35 -12.25 664.35 -14.2 664.35 -16.25 666.7 -16.75 M696.1 -19.2 L696.25 -19.1 Q694.8 -18.25 692.75 -17.5 686.4 -15.05 684.65 -14.05 L681.4 -14.65 681.1 -14.35 Q680.75 -14.45 680.75 -16.4 680.75 -17.9 681.9 -19.2 L696.1 -19.2 M728.8 58.45 L728.55 57.15 Q719.45 56.35 715.9 52.65 L706.35 51.1 Q703.3 50.35 702.65 49.65 L702.0 48.75 Q703.1 48.75 704.7 49.6 706.3 50.45 707.95 50.45 L715.9 50.15 Q724.55 48.95 742.95 53.7 750.7 55.7 759.1 58.45 L728.8 58.45 M308.75 -1.7 Q326.4 -1.15 327.65 -4.45 L328.6 -7.45 Q329.9 -9.2 334.8 -10.15 338.8 -10.85 343.15 -9.35 348.2 -7.65 350.0 -7.65 L352.45 -9.45 Q355.05 -11.25 357.65 -11.25 L364.65 -10.3 Q369.55 -9.2 370.6 -7.95 364.4 -6.4 361.8 -3.1 360.6 -1.6 360.0 -1.2 358.8 -0.45 356.4 -0.45 355.2 -0.45 346.05 -2.7 L336.85 -5.0 Q334.15 -5.0 331.5 -2.55 L328.75 -0.15 320.7 -0.45 308.75 -1.7 M605.0 -15.6 Q606.9 -16.85 612.2 -17.3 L619.2 -17.0 619.5 -16.4 615.6 -14.4 Q612.95 -13.1 610.45 -13.1 L607.05 -13.35 Q606.05 -13.6 605.3 -14.35 L605.0 -15.6 M544.0 7.5 Q548.35 7.0 549.65 7.95 L546.1 10.75 Q544.1 11.85 542.15 11.85 L539.1 11.45 537.65 10.3 537.0 9.5 Q539.55 8.0 544.0 7.5 M514.05 54.05 Q513.45 54.9 511.85 55.4 L505.15 56.25 504.7 54.65 504.2 52.95 Q506.2 51.95 507.7 51.8 L513.4 52.3 514.05 54.05 M418.4 45.75 Q411.9 50.6 405.95 49.55 404.2 49.25 402.25 48.3 L400.3 47.5 Q398.05 47.5 394.1 49.3 390.1 51.05 386.7 51.05 381.45 51.05 380.65 47.95 L380.9 43.55 368.75 43.55 Q365.55 42.8 364.8 41.85 376.85 34.45 389.1 37.3 391.3 37.8 398.2 40.15 403.2 41.85 406.05 41.85 408.55 41.85 410.25 43.2 412.35 44.9 418.4 45.75 M275.9 3.25 L268.75 3.25 268.25 2.15 267.5 0.75 Q268.9 -0.15 272.85 -0.3 276.8 -0.45 279.35 0.45 L280.0 1.4 Q277.3 2.9 275.9 3.25 M206.55 5.0 Q205.8 4.5 200.25 4.1 194.5 3.7 191.05 4.05 L190.6 3.15 Q190.15 2.2 190.15 1.05 L196.7 1.45 Q202.05 2.35 206.85 4.05 L206.55 5.0 M669.8 19.35 L668.5 20.65 Q667.4 21.25 665.3 21.25 L662.7 20.95 662.5 20.6 Q661.45 19.05 661.25 17.8 L665.8 17.3 Q668.3 17.4 669.5 18.4 L669.8 19.35" fill="#cdb97e" fill-rule="evenodd" stroke="none"/>
      <path d="M569.2 138.5 L569.15 139.0 Q562.3 137.75 554.1 140.0 L539.4 133.75 531.55 134.45 Q530.9 134.45 515.15 128.4 L510.75 128.4 509.25 127.95 Q489.8 122.1 472.95 115.25 455.9 122.4 436.2 128.4 L432.85 128.4 416.0 133.15 Q405.1 136.0 397.2 139.1 L394.9 140.0 Q393.9 140.4 387.45 144.35 L376.2 146.6 377.75 145.75 Q385.2 141.9 390.8 139.3 L395.9 136.95 397.6 136.25 412.65 130.7 413.65 130.4 413.7 130.4 417.35 128.4 420.9 128.4 Q453.15 119.85 468.4 113.35 L472.7 111.4 476.7 109.15 Q479.3 107.6 485.2 105.1 492.95 101.9 506.45 97.15 506.7 97.0 506.95 96.95 L511.4 95.35 545.5 83.7 Q572.1 75.15 582.65 71.2 L583.4 70.95 589.2 68.6 589.4 68.5 595.05 67.1 Q596.6 67.6 597.7 68.8 L601.1 67.4 601.15 67.4 609.75 68.5 610.3 68.6 611.2 68.95 Q615.85 71.4 617.5 77.85 619.2 84.55 619.2 101.4 619.2 116.05 619.0 119.2 618.7 124.1 617.95 128.4 L613.15 131.9 Q608.4 135.05 605.15 135.05 599.6 135.05 578.45 131.1 L566.35 128.9 539.65 121.55 538.6 121.25 537.55 120.45 Q529.65 114.25 524.3 114.25 522.45 114.25 509.25 99.5 L508.7 99.7 510.55 101.9 Q511.85 103.45 514.45 109.25 L517.25 115.1 490.85 107.0 490.1 107.3 Q483.95 110.4 477.45 113.25 490.9 118.45 513.15 124.85 520.1 125.0 525.1 126.1 L530.6 127.4 547.15 132.2 551.95 132.7 554.75 134.4 554.8 134.4 555.8 134.7 569.2 138.5 M841.4 58.45 L837.8 55.9 Q831.2 54.35 816.85 50.3 805.7 47.1 792.3 44.5 792.3 44.15 792.65 43.95 L792.95 43.55 Q821.45 47.8 846.1 53.1 860.15 56.15 870.2 59.0 L864.05 58.6 862.15 58.45 841.4 58.45 M790.65 9.6 L791.2 9.75 778.0 13.4 Q764.85 16.6 761.4 17.0 763.4 14.15 778.75 10.3 L786.8 8.45 790.65 9.6 M422.3 -2.95 Q427.5 -3.75 432.5 -2.0 L427.5 -1.25 422.95 -0.75 Q422.3 -1.4 422.3 -2.95 M567.6 44.6 Q565.75 45.45 563.4 45.45 L560.15 45.3 559.2 45.15 Q559.2 44.5 557.65 44.5 558.85 41.45 560.1 40.9 562.75 39.8 570.15 42.5 569.45 43.8 567.6 44.6 M634.85 93.75 Q634.05 88.1 634.55 85.15 635.45 79.65 642.1 77.4 L672.15 77.3 Q673.85 77.0 674.25 76.6 L700.5 76.5 700.9 76.4 Q714.0 82.1 722.75 93.55 L730.5 104.55 Q735.15 111.15 739.2 115.15 743.75 119.55 748.55 127.65 L755.75 139.85 748.55 141.05 739.2 142.45 737.3 142.55 737.25 142.55 731.15 142.1 722.35 142.05 Q709.15 140.05 686.55 133.2 L655.4 123.05 655.25 123.3 Q655.1 123.4 655.1 123.65 661.95 125.45 689.05 134.85 703.25 139.75 712.7 141.95 L694.05 141.8 681.95 143.1 674.75 144.1 674.45 143.8 648.75 143.35 649.55 143.35 Q643.15 141.4 638.9 137.35 637.6 136.2 634.8 132.0 L634.4 131.45 634.0 119.5 633.55 110.6 634.2 103.45 634.85 93.75 M536.95 2.85 Q535.8 4.35 532.5 4.35 L529.45 4.2 526.7 3.75 Q529.1 1.5 530.9 0.85 533.6 -0.05 537.95 0.75 537.6 2.05 536.95 2.85 M488.45 75.35 L506.75 74.8 Q523.05 74.1 532.35 74.1 534.15 75.85 535.2 77.55 534.0 79.6 530.55 82.65 L514.75 87.45 502.05 91.35 501.55 91.5 Q487.35 95.9 481.7 98.1 L473.55 101.15 460.95 105.5 455.2 107.35 Q442.25 111.45 425.95 116.15 425.15 114.35 423.05 114.0 L424.2 111.55 Q426.8 105.8 428.1 104.25 L433.95 97.65 436.25 95.05 441.25 89.35 442.95 87.45 453.55 75.15 480.6 75.4 482.25 75.4 482.2 75.5 483.2 76.6 Q483.95 77.3 484.95 77.3 486.7 77.35 488.05 76.0 L488.4 75.55 488.45 75.35 M555.3 113.2 L555.1 111.9 552.35 111.65 Q550.65 111.8 549.7 112.4 549.7 112.9 550.2 114.5 L553.6 114.5 Q554.95 114.15 555.3 113.2 M533.45 142.65 L522.35 140.3 433.55 140.5 428.95 140.15 428.15 139.9 Q426.05 139.25 425.35 138.1 L423.8 136.05 Q425.75 135.2 446.45 129.95 L451.8 128.4 486.65 128.4 497.05 131.3 Q516.65 136.75 534.45 141.2 L534.7 140.85 533.45 142.65 M582.9 100.8 Q579.9 101.5 578.7 102.7 578.7 103.3 579.2 104.95 L581.95 105.1 Q583.85 105.1 585.4 104.45 587.4 103.5 587.75 101.7 587.45 100.7 586.45 100.05 L582.9 100.8 M595.6 116.7 Q596.0 117.45 597.1 118.2 598.25 119.0 599.05 119.0 600.15 119.0 600.65 118.45 L601.45 116.95 Q600.95 114.4 598.85 114.35 596.75 114.25 595.6 116.7 M435.75 94.85 L433.45 97.45 Q421.0 111.4 416.55 115.15 L413.2 116.5 Q408.15 117.0 401.1 122.4 L400.05 123.15 399.0 123.5 370.5 130.9 373.25 130.85 377.45 129.7 381.3 129.65 Q377.95 130.75 374.6 132.2 365.0 136.2 361.8 139.8 L352.65 140.0 336.4 140.6 334.15 140.35 Q323.6 139.15 320.75 129.25 319.95 124.9 319.65 119.95 319.45 116.8 319.45 102.15 319.45 87.0 320.85 80.05 326.35 70.9 333.9 70.9 L356.65 72.2 Q377.05 73.75 382.55 75.4 L449.65 75.4 453.25 74.5 440.7 89.2 436.0 94.55 435.75 94.85 M346.55 16.7 Q346.75 16.85 346.55 17.0 L344.2 17.3 340.2 16.75 337.15 15.75 Q339.45 14.25 340.15 14.05 342.4 13.5 346.55 14.8 L346.55 16.7 M351.25 13.9 L348.55 13.55 347.5 12.5 349.8 10.2 Q351.55 9.35 355.15 11.25 L355.15 13.1 354.1 13.5 351.25 13.9 M388.95 114.2 Q388.0 113.5 386.3 113.4 L383.55 113.6 383.35 114.9 Q383.7 115.8 385.05 116.25 L388.45 116.3 388.95 114.2 M359.95 104.05 Q358.75 102.8 355.75 102.15 L352.2 101.3 Q351.2 101.9 350.9 102.9 351.25 104.7 353.25 105.7 354.8 106.35 356.7 106.4 L359.45 106.25 359.95 104.05 M338.0 119.45 Q338.5 120.0 339.6 120.05 340.4 120.05 341.55 119.25 L343.05 117.75 Q341.9 115.35 339.8 115.4 337.7 115.4 337.2 117.95 L338.0 119.45 M275.5 26.35 Q273.35 27.15 271.4 27.15 L268.9 26.85 268.75 26.55 Q269.25 25.75 271.75 25.2 L277.5 24.8 277.8 25.3 275.5 26.35 M266.5 77.25 L296.55 77.8 Q303.2 80.15 304.1 85.65 304.6 88.6 303.8 94.2 303.8 97.35 304.45 103.95 L305.1 111.1 304.65 120.0 304.35 127.2 300.9 136.1 298.35 141.6 296.2 142.45 291.4 144.2 282.6 146.4 Q274.2 146.95 262.35 146.75 L257.35 146.1 252.25 145.2 233.6 144.95 231.3 145.45 204.05 145.0 Q212.55 143.15 217.8 142.65 228.35 141.45 249.6 134.55 276.7 125.55 283.55 123.85 L283.4 123.5 283.25 123.25 Q281.95 123.5 252.1 132.9 220.2 142.05 207.0 141.85 L203.35 141.6 199.45 141.35 Q197.1 141.35 190.1 139.8 L182.9 138.5 190.1 126.4 Q194.9 118.4 199.45 114.0 203.5 110.1 208.15 103.55 L215.9 92.65 Q224.65 81.35 237.75 75.9 L238.15 76.0 264.4 76.5 Q264.8 76.85 266.5 77.25 M206.9 26.9 Q207.95 27.45 208.1 27.8 L203.0 29.5 Q199.1 30.75 197.15 30.75 192.85 30.75 191.4 29.2 193.6 27.6 198.8 26.7 L205.9 26.25 206.9 26.9 M187.5 24.2 L184.05 26.55 Q182.45 27.7 177.8 28.9 L175.7 28.45 Q175.0 28.1 175.0 26.05 175.0 23.9 177.25 22.95 178.8 22.3 181.25 22.3 183.4 22.3 185.4 23.0 187.2 23.65 187.5 24.2 M201.05 73.95 L207.2 74.7 226.15 75.1 Q221.95 82.65 213.85 93.25 L199.3 111.55 Q193.6 118.7 184.4 127.3 L185.25 126.15 183.55 126.1 181.35 126.65 Q174.5 126.55 166.1 122.85 L176.2 128.75 176.55 129.4 176.0 129.6 Q175.4 129.9 175.25 130.15 L176.7 130.85 Q176.75 132.2 175.1 134.3 L173.4 136.8 Q169.9 139.55 167.15 141.1 L161.1 143.05 111.8 142.3 103.7 142.85 96.1 143.4 65.9 142.9 Q54.1 141.85 49.85 142.7 43.15 144.0 39.25 144.15 L21.5 144.0 19.25 144.65 -6.35 144.25 Q-40.8 140.0 -48.2 136.0 -52.3 133.75 -53.45 129.95 -54.2 127.55 -54.2 120.8 L-53.55 108.8 -52.9 96.7 -53.55 87.75 -53.65 86.9 -52.75 86.4 Q-48.05 83.7 -41.3 83.6 L-40.5 82.95 -40.0 82.4 -41.75 82.45 -44.45 82.7 Q-46.55 82.7 -54.1 80.9 L-54.2 78.7 Q-54.2 74.55 -51.55 71.85 -48.3 68.5 -41.55 67.9 L-19.45 68.25 Q-11.85 68.35 -2.45 70.0 7.0 71.65 20.3 71.8 L29.5 71.45 43.95 74.3 54.6 76.4 Q61.05 78.7 65.25 80.7 72.3 84.1 84.9 89.25 L112.2 100.4 113.4 100.9 114.7 101.05 112.2 99.9 Q104.35 96.25 87.6 89.05 73.05 82.85 65.4 78.15 L63.95 77.35 64.25 76.8 62.65 74.75 Q62.9 73.55 63.65 71.75 L104.9 72.45 112.2 73.3 114.55 73.5 124.4 74.25 137.85 73.5 Q142.7 72.8 143.65 72.25 L195.25 73.0 201.05 73.95 M62.0 128.05 L56.05 129.15 62.15 130.5 66.7 131.4 Q68.85 131.4 69.95 130.35 L70.2 129.2 69.95 127.35 62.0 128.05 M8.05 135.55 Q8.05 133.15 5.45 132.65 2.25 132.0 -2.45 135.75 -2.35 137.6 -1.9 138.05 -1.05 138.9 2.2 139.0 4.1 139.0 6.1 137.85 8.05 136.7 8.05 135.55 M154.35 115.7 L153.6 115.75 Q152.85 115.95 152.75 116.2 L159.2 119.25 Q156.4 117.5 154.35 115.7 M142.4 110.7 L129.9 106.05 Q119.55 102.25 117.0 101.4 L116.25 101.55 Q115.45 101.75 115.35 101.95 119.05 103.5 127.8 106.35 137.0 109.35 142.4 110.7 M978.0 122.85 Q977.25 121.2 974.4 121.35 972.0 121.55 970.6 122.6 L971.7 123.65 Q972.65 124.25 973.75 124.25 974.75 124.25 975.95 123.75 L978.0 122.85 M979.15 87.75 L979.95 88.35 Q986.7 88.55 991.4 91.35 L992.3 91.85 992.2 92.75 991.55 101.7 992.2 113.75 992.85 125.8 Q992.85 132.5 992.1 134.95 990.95 138.65 986.85 140.85 979.45 144.75 945.0 148.5 L919.4 148.5 917.15 147.8 899.4 147.7 Q895.5 147.5 888.8 146.1 884.55 145.15 872.75 146.1 L842.55 146.1 834.95 145.4 826.85 144.7 777.55 144.7 771.5 142.7 Q768.75 141.1 765.25 138.3 L763.55 135.8 Q761.9 133.65 761.95 132.25 L763.4 131.65 762.65 131.1 762.1 130.85 762.45 130.2 Q766.65 127.6 772.55 124.5 764.15 128.05 757.3 128.05 L755.1 127.45 Q753.9 127.1 753.4 127.45 L754.25 128.6 Q745.05 119.85 739.35 112.65 L724.8 94.1 Q716.7 83.4 712.5 75.8 L731.45 75.65 737.6 75.0 743.4 74.2 795.0 74.2 Q795.95 74.8 800.8 75.55 L814.25 76.5 824.1 75.9 833.75 75.0 875.0 74.95 876.0 77.9 874.4 79.95 Q874.4 80.3 874.7 80.55 L873.25 81.35 Q865.6 85.9 851.05 91.85 831.35 100.0 823.95 103.5 L825.25 103.3 853.75 92.1 Q866.35 87.15 873.4 83.9 877.6 81.95 884.05 79.7 L894.7 77.8 909.15 75.1 918.35 75.65 941.1 74.2 Q950.5 72.7 958.1 72.7 L980.2 72.7 Q986.95 73.35 990.2 76.8 992.85 79.55 992.85 83.7 L992.75 85.9 Q985.2 87.55 983.1 87.55 L980.4 87.25 978.65 87.15 979.15 87.75 M965.75 91.35 L967.0 91.6 Q968.8 91.6 970.05 90.75 971.75 89.5 972.85 89.2 971.75 86.95 968.45 87.3 965.25 87.75 965.25 89.55 965.25 90.8 965.4 90.85 L965.7 91.05 965.75 91.35 M813.25 26.55 L812.1 28.0 Q811.1 28.75 809.05 28.75 L806.75 28.45 806.85 28.1 Q806.2 27.45 806.0 26.7 L805.9 25.3 Q807.9 24.4 809.15 24.3 L812.65 24.8 813.25 26.55 M868.7 130.45 L868.45 132.25 868.7 133.45 Q869.8 134.5 871.95 134.5 L876.5 133.7 882.6 132.45 876.65 131.2 868.7 130.45 M822.4 103.95 L821.65 103.75 808.75 108.25 796.25 112.7 810.85 108.55 823.3 104.3 Q823.2 104.1 822.4 103.95 M936.45 143.1 Q939.7 143.1 940.55 142.2 941.0 141.8 941.1 139.9 936.4 136.1 933.2 136.7 930.6 137.2 930.6 139.6 930.6 140.7 932.55 141.9 934.55 143.1 936.45 143.1 M771.4 39.65 L769.85 40.8 767.15 41.25 764.35 41.1 763.9 40.9 763.9 38.25 765.8 38.1 Q767.75 38.05 770.75 38.75 L771.4 39.65 M785.9 118.0 Q785.8 117.75 785.05 117.55 L784.3 117.5 779.45 121.0 Q782.9 119.3 785.9 118.0 M-29.8 82.7 Q-33.1 82.25 -34.2 84.5 -33.1 84.8 -31.4 86.15 -30.15 87.0 -28.35 87.0 L-27.1 86.8 -27.05 86.5 -26.75 86.3 Q-26.6 86.25 -26.6 85.0 -26.6 83.2 -29.8 82.7 M-35.75 116.7 Q-38.6 116.45 -39.35 118.15 L-37.3 119.0 -35.1 119.55 Q-34.0 119.55 -33.05 119.0 -32.2 118.5 -31.95 118.0 -33.35 116.9 -35.75 116.7" fill="#9bbb62" fill-rule="evenodd" stroke="none"/>
      <path d="M532.9 -23.75 L527.35 -23.75 530.25 -23.95 532.25 -24.1 532.9 -23.75 M573.05 -23.75 L574.15 -23.95 582.25 -25.1 583.5 -25.3 603.9 -25.25 603.45 -24.75 603.3 -24.55 603.2 -24.35 603.15 -24.2 603.3 -24.2 603.3 -23.85 603.45 -24.05 603.6 -24.2 603.8 -24.2 603.85 -24.2 604.1 -24.1 603.8 -23.75 573.05 -23.75 M607.2 -23.75 L606.1 -24.7 607.3 -23.75 607.2 -23.75 M571.4 67.25 L593.25 67.1 593.3 67.4 591.85 67.4 572.0 67.35 571.4 67.25 M642.55 67.5 L654.9 67.1 681.95 66.95 680.0 67.85 677.75 68.35 668.3 67.6 642.55 67.5 M686.1 67.85 L688.1 67.6 692.1 67.0 691.75 66.9 700.5 66.85 703.85 67.4 695.4 68.2 686.1 67.85 M601.05 67.4 L598.4 67.4 599.0 67.1 601.05 67.4 M611.6 51.45 L612.95 51.25 613.8 51.45 613.9 51.5 611.6 51.45 M354.9 45.1 L357.1 44.55 357.05 45.05 354.9 45.1 M325.35 52.2 Q326.15 52.45 326.9 52.85 L321.65 52.95 324.85 52.25 325.35 52.2" fill="#b7d5aa" fill-rule="evenodd" stroke="none"/>
      <path d="M-38.9 61.4 L-33.9 60.8 -8.05 61.15 Q-7.9 61.35 -6.2 61.75 L49.15 62.55 39.9 63.05 26.7 63.65 -1.0 63.2 -6.2 62.35 -18.6 62.15 -18.8 62.95 -11.95 63.6 -4.9 64.4 -1.0 64.45 13.05 64.45 Q27.15 64.35 27.35 64.1 45.4 64.35 49.25 63.9 L65.4 63.85 68.65 64.15 71.8 64.8 91.15 65.45 98.85 66.0 105.8 65.85 111.8 65.4 112.2 65.4 121.95 65.2 132.1 64.65 131.8 64.65 Q115.8 64.6 112.2 64.85 L111.15 64.95 105.95 64.85 90.5 63.85 129.2 64.4 153.0 63.15 183.95 63.6 Q193.7 61.3 217.1 64.2 L229.6 66.1 199.35 65.85 198.8 65.4 198.65 65.15 186.2 64.95 188.55 64.4 184.7 64.45 180.55 64.9 180.2 64.9 177.85 64.85 177.55 64.85 177.0 64.85 176.5 64.85 175.9 64.8 175.35 64.8 173.15 64.7 172.6 64.7 172.35 64.7 159.35 64.05 158.8 63.95 158.65 63.9 142.6 63.4 139.55 63.7 131.6 64.95 120.15 66.35 128.05 66.7 130.45 66.25 142.55 64.65 150.75 65.05 159.25 65.6 170.1 65.6 181.15 65.3 184.85 65.1 186.2 64.95 186.0 65.7 190.95 66.15 192.35 66.2 192.4 66.2 192.7 66.25 194.3 66.4 194.65 66.4 199.35 66.9 199.55 66.95 199.85 67.1 217.25 67.6 221.45 67.9 229.4 67.4 234.8 66.85 243.25 67.75 252.55 67.5 254.6 67.95 257.05 67.75 259.8 67.35 280.65 67.35 291.4 67.35 301.7 67.1 302.1 67.1 306.05 66.85 306.1 66.85 310.9 66.5 312.1 66.4 312.0 66.6 310.9 66.95 Q309.6 67.35 308.35 67.85 L308.15 67.9 308.5 68.15 309.1 67.95 309.5 67.85 310.95 67.4 311.75 67.15 Q311.45 67.95 311.4 68.95 L310.35 68.2 311.45 71.0 311.45 72.45 311.25 80.35 Q311.25 89.8 311.4 94.55 L311.9 94.55 Q312.75 91.3 312.65 86.45 312.35 80.9 312.4 78.15 L312.4 78.05 312.45 76.4 Q312.85 70.9 315.45 67.1 L318.15 66.95 318.0 66.6 317.85 66.35 315.75 66.6 316.4 65.75 325.85 65.95 376.05 66.65 377.1 66.7 383.6 67.1 407.5 67.95 431.0 68.4 432.95 67.95 437.15 67.25 490.85 67.25 504.2 67.15 Q507.55 67.2 507.9 67.6 L538.35 68.4 558.2 67.5 561.8 67.4 567.0 67.35 Q569.05 67.6 570.0 68.2 L568.6 68.9 572.0 67.35 591.85 67.4 Q590.65 67.9 589.4 68.5 L589.2 68.6 583.4 70.95 582.65 71.2 Q572.1 75.15 545.5 83.7 L511.4 95.35 506.95 96.95 Q506.7 97.0 506.45 97.15 492.95 101.9 485.2 105.1 479.3 107.6 476.7 109.15 L472.7 111.4 468.4 113.35 Q453.15 119.85 420.9 128.4 L417.35 128.4 413.7 130.4 413.65 130.4 412.65 130.7 397.6 136.25 395.9 136.95 390.8 139.3 Q385.2 141.9 377.75 145.75 L376.2 146.6 375.35 147.0 373.45 147.2 Q372.55 147.55 372.05 148.75 L366.7 151.35 366.1 151.45 352.65 151.45 323.9 149.75 321.4 150.45 316.35 150.7 316.25 150.5 Q315.4 146.95 314.6 142.2 L315.1 142.15 314.85 142.15 314.4 140.8 314.3 140.25 314.15 139.15 313.45 134.0 312.75 128.7 312.55 128.7 Q311.9 112.45 311.9 104.55 L311.4 104.55 Q311.25 113.0 311.9 129.85 L311.85 134.15 311.9 134.15 311.7 139.5 311.6 141.2 310.2 142.45 310.4 142.45 311.45 142.4 310.9 145.5 Q310.1 149.45 310.1 150.6 L310.1 150.8 309.85 151.05 291.7 152.85 291.4 152.85 288.6 152.75 271.7 153.3 264.55 153.35 255.9 153.3 254.2 153.75 254.5 153.3 237.5 153.2 235.7 153.35 225.85 153.8 189.8 153.25 165.45 150.85 149.8 149.4 125.3 149.0 124.4 149.45 87.35 149.25 71.35 150.5 61.5 151.25 Q43.45 151.25 42.5 151.6 L2.5 151.0 1.55 150.6 -27.45 150.2 -57.45 147.25 -57.35 147.0 Q-57.35 144.9 -59.15 134.55 L-59.0 134.55 -59.65 126.85 Q-60.3 117.25 -60.3 106.05 -59.75 88.25 -59.8 79.85 L-59.65 71.25 -59.5 66.6 Q-59.25 65.05 -57.65 63.8 -56.1 62.7 -54.25 62.6 -52.2 62.55 -51.05 63.6 -46.45 61.6 -39.35 63.1 L-39.35 62.3 -34.2 62.55 -28.75 62.95 -28.25 62.85 -27.7 62.65 -29.4 61.35 -38.9 61.4 M709.05 66.7 L721.55 65.05 Q744.95 62.45 754.7 64.95 L785.65 64.95 Q800.55 65.3 809.45 66.6 L848.15 66.6 832.7 67.4 827.5 67.4 806.85 66.75 806.55 66.75 816.7 67.5 826.85 67.85 832.85 68.4 839.8 68.65 847.5 68.2 866.85 67.85 870.0 67.25 873.25 67.0 889.4 67.35 Q893.25 67.85 911.3 67.85 L925.6 68.4 939.65 68.65 943.55 68.65 950.6 67.95 957.45 67.4 957.25 66.6 944.85 66.6 939.65 67.4 911.95 67.4 898.75 66.6 889.5 65.95 944.85 65.95 946.7 65.45 972.55 65.45 977.55 66.15 968.05 65.95 966.35 67.2 Q966.35 67.35 966.9 67.45 L967.4 67.6 972.85 67.2 978.0 67.0 978.0 67.85 Q985.1 66.45 989.7 68.5 990.85 67.45 992.9 67.6 994.75 67.7 996.3 68.8 997.9 70.05 998.15 71.65 L998.3 76.3 998.45 84.9 Q998.4 93.3 998.95 111.1 998.95 122.3 998.3 131.9 L997.65 139.6 997.8 139.6 Q996.0 149.95 996.0 152.05 L996.1 152.3 966.1 154.75 937.1 154.75 936.15 155.1 896.15 155.1 877.15 154.5 867.3 153.55 Q858.75 152.2 851.3 152.05 L814.25 151.7 813.35 151.25 788.85 151.25 775.3 152.3 777.9 150.45 767.15 151.25 752.45 152.55 676.55 152.7 674.9 152.6 674.8 152.7 629.95 152.8 Q626.55 150.05 626.45 145.0 L626.6 142.85 627.0 142.85 626.65 141.9 626.65 141.55 626.65 141.15 626.5 137.25 626.45 137.2 626.35 136.6 626.35 136.5 626.3 136.35 625.5 136.35 Q625.5 138.75 624.95 142.9 L624.75 144.4 Q623.95 149.7 623.95 151.1 L624.05 152.8 616.95 152.8 618.3 152.45 588.1 143.9 583.9 142.7 582.85 142.4 569.2 138.5 555.8 134.7 554.8 134.4 554.75 134.4 551.95 132.7 547.15 132.2 530.6 127.4 525.1 126.1 Q520.1 125.0 513.15 124.85 490.9 118.45 477.45 113.25 483.95 110.4 490.1 107.3 L490.85 107.0 517.25 115.1 514.45 109.25 Q511.85 103.45 510.55 101.9 L508.7 99.7 509.25 99.5 Q522.45 114.25 524.3 114.25 529.65 114.25 537.55 120.45 L538.6 121.25 539.65 121.55 566.35 128.9 578.45 131.1 Q599.6 135.05 605.15 135.05 608.4 135.05 613.15 131.9 L617.95 128.4 Q618.7 124.1 619.0 119.2 619.2 116.05 619.2 101.4 619.2 84.55 617.5 77.85 615.85 71.4 611.2 68.95 L610.3 68.6 624.45 69.9 Q625.0 73.5 626.2 76.1 L626.25 77.4 626.25 77.55 626.0 85.8 Q625.9 90.65 626.75 93.9 L627.25 93.9 627.4 79.7 627.25 76.55 627.5 76.4 627.5 70.9 Q633.45 70.55 640.25 68.15 641.3 67.75 642.55 67.5 L668.3 67.6 677.75 68.35 680.0 67.85 681.6 68.0 684.05 68.2 686.1 67.85 695.4 68.2 703.85 67.4 709.25 68.0 717.2 68.65 721.4 68.4 738.8 68.2 739.1 68.1 739.3 68.0 744.0 67.6 744.35 67.6 745.95 67.45 746.25 67.45 746.3 67.45 747.7 67.4 752.65 67.0 752.45 66.25 740.0 66.25 739.85 66.5 739.3 66.95 709.05 66.7 M569.15 139.0 Q574.5 140.0 579.0 143.05 L580.6 144.15 585.9 148.45 Q588.65 150.55 590.8 151.0 L589.4 152.75 590.15 152.85 517.65 153.05 500.9 151.6 485.2 150.45 484.7 151.45 458.15 151.1 Q456.8 149.95 441.35 149.45 L398.05 149.45 382.7 150.35 380.1 148.8 387.45 144.35 Q393.9 140.4 394.9 140.0 L397.2 139.1 Q405.1 136.0 416.0 133.15 L432.85 128.4 436.2 128.4 Q455.9 122.4 472.95 115.25 489.8 122.1 509.25 127.95 L510.75 128.4 515.15 128.4 Q530.9 134.45 531.55 134.45 L539.4 133.75 554.1 140.0 Q562.3 137.75 569.15 139.0 M634.85 93.75 L634.2 103.45 633.55 110.6 634.0 119.5 634.4 131.45 634.8 132.0 Q637.6 136.2 638.9 137.35 643.15 141.4 649.55 143.35 L648.75 143.35 674.45 143.8 674.75 144.1 681.95 143.1 694.05 141.8 712.7 141.95 Q703.25 139.75 689.05 134.85 661.95 125.45 655.1 123.65 655.1 123.4 655.25 123.3 L655.4 123.05 686.55 133.2 Q709.15 140.05 722.35 142.05 L731.15 142.1 737.25 142.55 737.3 142.55 739.2 142.45 748.55 141.05 755.75 139.85 748.55 127.65 Q743.75 119.55 739.2 115.15 735.15 111.15 730.5 104.55 L722.75 93.55 Q714.0 82.1 700.9 76.4 L700.5 76.5 674.25 76.6 Q673.85 77.0 672.15 77.3 L642.1 77.4 Q635.45 79.65 634.55 85.15 634.05 88.1 634.85 93.75 M488.45 75.35 L488.4 75.55 488.05 76.0 Q486.7 77.35 484.95 77.3 483.95 77.3 483.2 76.6 L482.2 75.5 482.25 75.4 480.6 75.4 453.55 75.15 442.95 87.45 441.25 89.35 436.25 95.05 433.95 97.65 428.1 104.25 Q426.8 105.8 424.2 111.55 L423.05 114.0 Q425.15 114.35 425.95 116.15 442.25 111.45 455.2 107.35 L460.95 105.5 473.55 101.15 481.7 98.1 Q487.35 95.9 501.55 91.5 L502.05 91.35 514.75 87.45 530.55 82.65 Q534.0 79.6 535.2 77.55 534.15 75.85 532.35 74.1 523.05 74.1 506.75 74.8 L488.45 75.35 M550.9 75.9 L552.35 75.4 552.3 75.35 550.95 74.7 550.95 75.3 550.9 75.9 M555.3 113.2 Q554.95 114.15 553.6 114.5 L550.2 114.5 Q549.7 112.9 549.7 112.4 550.65 111.8 552.35 111.65 L555.1 111.9 555.3 113.2 M533.45 142.65 L534.7 140.85 534.45 141.2 Q516.65 136.75 497.05 131.3 L486.65 128.4 451.8 128.4 446.45 129.95 Q425.75 135.2 423.8 136.05 L425.35 138.1 Q426.05 139.25 428.15 139.9 L428.95 140.15 433.55 140.5 522.35 140.3 533.45 142.65 M627.25 103.95 L626.75 103.95 626.1 129.0 625.75 136.2 626.85 136.05 626.75 129.2 Q627.4 112.4 627.25 103.95 M595.6 116.7 Q596.75 114.25 598.85 114.35 600.95 114.4 601.45 116.95 L600.65 118.45 Q600.15 119.0 599.05 119.0 598.25 119.0 597.1 118.2 596.0 117.45 595.6 116.7 M582.9 100.8 L586.45 100.05 Q587.45 100.7 587.75 101.7 587.4 103.5 585.4 104.45 583.85 105.1 581.95 105.1 L579.2 104.95 Q578.7 103.3 578.7 102.7 579.9 101.5 582.9 100.8 M435.75 94.85 L436.0 94.55 440.7 89.2 453.25 74.5 449.65 75.4 382.55 75.4 Q377.05 73.75 356.65 72.2 L333.9 70.9 Q326.35 70.9 320.85 80.05 319.45 87.0 319.45 102.15 319.45 116.8 319.65 119.95 319.95 124.9 320.75 129.25 323.6 139.15 334.15 140.35 L336.4 140.6 352.65 140.0 361.8 139.8 Q365.0 136.2 374.6 132.2 377.95 130.75 381.3 129.65 L377.45 129.7 373.25 130.85 370.5 130.9 399.0 123.5 400.05 123.15 401.1 122.4 Q408.15 117.0 413.2 116.5 L416.55 115.15 Q421.0 111.4 433.45 97.45 L435.75 94.85 M338.0 119.45 L337.2 117.95 Q337.7 115.4 339.8 115.4 341.9 115.35 343.05 117.75 L341.55 119.25 Q340.4 120.05 339.6 120.05 338.5 120.0 338.0 119.45 M359.95 104.05 L359.45 106.25 356.7 106.4 Q354.8 106.35 353.25 105.7 351.25 104.7 350.9 102.9 351.2 101.9 352.2 101.3 L355.75 102.15 Q358.75 102.8 359.95 104.05 M388.95 114.2 L388.45 116.3 385.05 116.25 Q383.7 115.8 383.35 114.9 L383.55 113.6 386.3 113.4 Q388.0 113.5 388.95 114.2 M266.5 77.25 Q264.8 76.85 264.4 76.5 L238.15 76.0 237.75 75.9 Q224.65 81.35 215.9 92.65 L208.15 103.55 Q203.5 110.1 199.45 114.0 194.9 118.4 190.1 126.4 L182.9 138.5 190.1 139.8 Q197.1 141.35 199.45 141.35 L203.35 141.6 207.0 141.85 Q220.2 142.05 252.1 132.9 281.95 123.5 283.25 123.25 L283.4 123.5 283.55 123.85 Q276.7 125.55 249.6 134.55 228.35 141.45 217.8 142.65 212.55 143.15 204.05 145.0 L231.3 145.45 233.6 144.95 252.25 145.2 257.35 146.1 262.35 146.75 Q274.2 146.95 282.6 146.4 L291.4 144.2 296.2 142.45 298.35 141.6 300.9 136.1 304.35 127.2 304.65 120.0 305.1 111.1 304.45 103.95 Q303.8 97.35 303.8 94.2 304.6 88.6 304.1 85.65 303.2 80.15 296.55 77.8 L266.5 77.25 M201.05 73.95 L195.25 73.0 143.65 72.25 Q142.7 72.8 137.85 73.5 L124.4 74.25 114.55 73.5 112.2 73.3 104.9 72.45 63.65 71.75 Q62.9 73.55 62.65 74.75 L64.25 76.8 63.95 77.35 65.4 78.15 Q73.05 82.85 87.6 89.05 104.35 96.25 112.2 99.9 L114.7 101.05 113.4 100.9 112.2 100.4 84.9 89.25 Q72.3 84.1 65.25 80.7 61.05 78.7 54.6 76.4 L43.95 74.3 29.5 71.45 20.3 71.8 Q7.0 71.65 -2.45 70.0 -11.85 68.35 -19.45 68.25 L-41.55 67.9 Q-48.3 68.5 -51.55 71.85 -54.2 74.55 -54.2 78.7 L-54.1 80.9 Q-46.55 82.7 -44.45 82.7 L-41.75 82.45 -40.0 82.4 -40.5 82.95 -41.3 83.6 Q-48.05 83.7 -52.75 86.4 L-53.65 86.9 -53.55 87.75 -52.9 96.7 -53.55 108.8 -54.2 120.8 Q-54.2 127.55 -53.45 129.95 -52.3 133.75 -48.2 136.0 -40.8 140.0 -6.35 144.25 L19.25 144.65 21.5 144.0 39.25 144.15 Q43.15 144.0 49.85 142.7 54.1 141.85 65.9 142.9 L96.1 143.4 103.7 142.85 111.8 142.3 161.1 143.05 167.15 141.1 Q169.9 139.55 173.4 136.8 L175.1 134.3 Q176.75 132.2 176.7 130.85 L175.25 130.15 Q175.4 129.9 176.0 129.6 L176.55 129.4 176.2 128.75 166.1 122.85 Q174.5 126.55 181.35 126.65 L183.55 126.1 185.25 126.15 184.4 127.3 Q193.6 118.7 199.3 111.55 L213.85 93.25 Q221.95 82.65 226.15 75.1 L207.2 74.7 201.05 73.95 M233.6 75.35 L233.8 75.25 233.55 75.25 233.6 75.35 M8.05 135.55 Q8.05 136.7 6.1 137.85 4.1 139.0 2.2 139.0 -1.05 138.9 -1.9 138.05 -2.35 137.6 -2.45 135.75 2.25 132.0 5.45 132.65 8.05 133.15 8.05 135.55 M62.0 128.05 L69.95 127.35 70.2 129.2 69.95 130.35 Q68.85 131.4 66.7 131.4 L62.15 130.5 56.05 129.15 62.0 128.05 M979.15 87.75 L978.65 87.15 980.4 87.25 983.1 87.55 Q985.2 87.55 992.75 85.9 L992.85 83.7 Q992.85 79.55 990.2 76.8 986.95 73.35 980.2 72.7 L958.1 72.7 Q950.5 72.7 941.1 74.2 L918.35 75.65 909.15 75.1 894.7 77.8 884.05 79.7 Q877.6 81.95 873.4 83.9 866.35 87.15 853.75 92.1 L825.25 103.3 823.95 103.5 Q831.35 100.0 851.05 91.85 865.6 85.9 873.25 81.35 L874.7 80.55 Q874.4 80.3 874.4 79.95 L876.0 77.9 875.0 74.95 833.75 75.0 824.1 75.9 814.25 76.5 800.8 75.55 Q795.95 74.8 795.0 74.2 L743.4 74.2 737.6 75.0 731.45 75.65 712.5 75.8 Q716.7 83.4 724.8 94.1 L739.35 112.65 Q745.05 119.85 754.25 128.6 L753.4 127.45 Q753.9 127.1 755.1 127.45 L757.3 128.05 Q764.15 128.05 772.55 124.5 766.65 127.6 762.45 130.2 L762.1 130.85 762.65 131.1 763.4 131.65 761.95 132.25 Q761.9 133.65 763.55 135.8 L765.25 138.3 Q768.75 141.1 771.5 142.7 L777.55 144.7 826.85 144.7 834.95 145.4 842.55 146.1 872.75 146.1 Q884.55 145.15 888.8 146.1 895.5 147.5 899.4 147.7 L917.15 147.8 919.4 148.5 945.0 148.5 Q979.45 144.75 986.85 140.85 990.95 138.65 992.1 134.95 992.85 132.5 992.85 125.8 L992.2 113.75 991.55 101.7 992.2 92.75 992.3 91.85 991.4 91.35 Q986.7 88.55 979.95 88.35 L979.15 87.75 M978.0 122.85 L975.95 123.75 Q974.75 124.25 973.75 124.25 972.65 124.25 971.7 123.65 L970.6 122.6 Q972.0 121.55 974.4 121.35 977.25 121.2 978.0 122.85 M965.75 91.35 L965.7 91.05 965.4 90.85 Q965.25 90.8 965.25 89.55 965.25 87.75 968.45 87.3 971.75 86.95 972.85 89.2 971.75 89.5 970.05 90.75 968.8 91.6 967.0 91.6 L965.75 91.35 M818.5 68.65 Q814.4 68.45 807.05 67.1 L799.1 65.7 796.05 65.4 Q796.05 65.65 780.0 65.65 L779.85 65.7 779.3 65.75 766.3 66.2 766.05 66.2 765.5 66.2 763.3 66.25 762.75 66.25 762.15 66.25 761.65 66.25 761.1 66.25 760.8 66.25 758.45 66.25 758.1 66.25 753.95 65.75 750.1 65.65 Q750.1 66.0 753.8 66.4 L757.5 66.65 768.55 67.15 779.4 67.35 787.9 66.9 796.1 66.65 808.2 68.45 810.6 68.9 818.5 68.65 M868.7 130.45 L876.65 131.2 882.6 132.45 876.5 133.7 871.95 134.5 Q869.8 134.5 868.7 133.45 L868.45 132.25 868.7 130.45 M936.45 143.1 Q934.55 143.1 932.55 141.9 930.6 140.7 930.6 139.6 930.6 137.2 933.2 136.7 936.4 136.1 941.1 139.9 941.0 141.8 940.55 142.2 939.7 143.1 936.45 143.1 M704.85 75.8 L705.05 75.9 705.1 75.8 704.85 75.8 M-35.75 116.7 Q-33.35 116.9 -31.95 118.0 -32.2 118.5 -33.05 119.0 -34.0 119.55 -35.1 119.55 L-37.3 119.0 -39.35 118.15 Q-38.6 116.45 -35.75 116.7 M-29.8 82.7 Q-26.6 83.2 -26.6 85.0 -26.6 86.25 -26.75 86.3 L-27.05 86.5 -27.1 86.8 -28.35 87.0 Q-30.15 87.0 -31.4 86.15 -33.1 84.8 -34.2 84.5 -33.1 82.25 -29.8 82.7" fill="#aac578" fill-rule="evenodd" stroke="none"/>
      <path d="M262.1 66.5 Q265.25 65.85 266.55 64.9 L289.55 65.9 291.4 65.95 303.2 66.25 304.8 66.25 303.5 66.5 303.55 66.5 303.95 66.6 303.65 66.6 262.1 66.5 M626.6 142.85 L626.65 141.9 627.0 142.85 626.6 142.85 M314.6 142.2 L314.3 140.25 314.4 140.8 314.85 142.15 315.1 142.15 314.6 142.2 M311.6 141.2 L311.45 142.4 310.4 142.45 310.2 142.45 311.6 141.2 M423.35 58.6 L426.9 58.85 447.55 59.6 520.8 59.6 541.15 59.0 556.2 58.95 556.45 59.6 392.8 60.4 403.2 59.6 420.5 58.45 420.55 58.45 420.65 58.45 422.9 58.55 423.35 58.6 M558.9 59.6 L558.6 58.95 560.15 58.95 562.05 59.6 558.9 59.6 M878.0 35.9 L878.1 36.0 874.1 34.9 863.25 32.35 864.05 32.1 864.7 31.8 877.8 35.85 877.9 35.85 878.0 35.9 M571.4 67.25 L572.0 67.35 568.6 68.9 570.0 68.2 Q569.05 67.6 567.0 67.35 L568.1 67.35 571.4 67.25 M639.9 49.9 L639.0 50.4 640.85 51.5 638.4 51.6 629.25 51.6 Q630.4 50.65 632.6 49.95 L633.85 49.6 Q636.9 49.45 640.15 49.55 L639.9 49.9 M550.9 75.9 L550.95 75.3 550.95 74.7 552.3 75.35 552.35 75.4 550.9 75.9 M432.2 42.6 L435.0 42.8 436.3 43.05 424.35 43.1 432.2 42.6 M311.4 68.95 L311.4 69.8 311.45 71.0 310.35 68.2 311.4 68.95 M233.6 75.35 L233.55 75.25 233.8 75.25 233.6 75.35 M827.65 39.8 L822.5 40.15 821.65 40.15 827.2 39.4 827.65 39.8 M658.65 50.2 L662.0 50.4 653.7 50.9 Q655.55 50.2 658.65 50.2 M704.85 75.8 L705.1 75.8 705.05 75.9 704.85 75.8" fill="#91bd7d" fill-rule="evenodd" stroke="none"/>
      <path d="M304.8 66.25 L309.3 65.6 312.3 65.65 310.9 65.9 303.95 66.6 303.55 66.5 303.5 66.5 304.8 66.25 M620.25 67.45 L623.55 67.45 621.85 67.6 620.25 67.45 M604.25 152.8 L604.3 152.85 604.25 152.85 604.25 152.8 M605.55 152.85 L604.85 152.85 604.85 152.75 605.55 152.85 M58.55 33.8 L52.3 35.1 60.65 32.65 58.55 33.8 M142.4 110.7 Q137.0 109.35 127.8 106.35 119.05 103.5 115.35 101.95 115.45 101.75 116.25 101.55 L117.0 101.4 Q119.55 102.25 129.9 106.05 L142.4 110.7 M154.35 115.7 Q156.4 117.5 159.2 119.25 L152.75 116.2 Q152.85 115.95 153.6 115.75 L154.35 115.7 M822.4 103.95 Q823.2 104.1 823.3 104.3 L810.85 108.55 796.25 112.7 808.75 108.25 821.65 103.75 822.4 103.95 M785.9 118.0 Q782.9 119.3 779.45 121.0 L784.3 117.5 785.05 117.55 Q785.8 117.75 785.9 118.0" fill="#a4c994" fill-rule="evenodd" stroke="none"/>
      <path d="M333.3 60.85 L329.65 60.85 330.75 60.55 333.95 60.65 333.3 60.85 M627.25 103.95 Q627.4 112.4 626.75 129.2 L626.85 136.05 625.75 136.2 626.1 129.0 626.75 103.95 627.25 103.95" fill="#6b9155" fill-rule="evenodd" stroke="none"/>
    </g>
  </defs>
</svg>
