<?xml version="1.0" encoding="UTF-8" standalone="no"?>
<svg xmlns:ffdec="https://www.free-decompiler.com/flash" xmlns:xlink="http://www.w3.org/1999/xlink" ffdec:objectType="frame" height="27.7px" width="27.8px" xmlns="http://www.w3.org/2000/svg">
  <g transform="matrix(1.0, 0.0, 0.0, 1.0, -2.2, 0.0)">
    <use ffdec:characterId="180" height="27.7" transform="matrix(1.0, 0.0, 0.0, 1.0, 2.2, 0.0)" width="27.8" xlink:href="#shape0"/>
  </g>
  <defs>
    <g id="shape0" transform="matrix(1.0, 0.0, 0.0, 1.0, -2.2, 0.0)">
      <path d="M19.4 17.25 L19.3 17.1 19.35 17.15 19.4 17.25" fill="#333333" fill-rule="evenodd" stroke="none"/>
      <path d="M12.45 27.7 L11.7 27.7 9.85 27.55 12.45 27.7" fill="#b28e2d" fill-rule="evenodd" stroke="none"/>
      <path d="M4.9 18.45 L4.8 17.85 4.6 17.4 4.55 16.95 4.3 15.95 Q4.05 15.5 4.05 14.95 L3.7 13.9 3.7 13.85 3.5 12.45 3.5 12.15 3.5 12.1 Q3.5 11.65 3.65 11.2 L3.15 11.15 2.95 11.15 2.85 11.15 2.6 10.95 Q2.45 10.85 2.45 10.55 2.4 10.25 3.05 9.75 L2.8 9.6 Q2.45 9.35 2.45 8.95 2.4 8.5 2.9 8.4 L3.8 8.2 3.4 7.45 Q3.3 6.9 4.15 6.8 L5.65 6.8 6.7 7.0 6.75 7.0 7.05 6.95 7.4 6.85 7.7 6.75 8.05 6.6 8.1 6.55 8.85 6.05 8.05 5.25 7.95 5.0 Q7.9 4.8 8.3 4.5 L8.55 4.4 9.0 4.4 8.9 3.95 8.95 3.75 9.3 3.35 10.0 3.4 10.35 3.5 11.35 3.65 11.6 3.6 11.7 3.4 11.85 3.2 11.95 3.05 Q12.4 2.3 13.15 2.15 L13.2 2.15 13.5 2.15 Q14.35 2.15 14.85 1.75 L15.0 1.65 15.05 1.65 15.4 1.4 15.5 1.3 15.6 1.25 Q15.85 0.95 16.7 0.75 L17.2 0.7 17.4 0.75 17.6 0.6 18.2 0.25 18.25 0.2 19.2 0.0 Q19.7 0.05 19.7 0.65 L19.7 0.95 20.15 0.75 20.1 0.75 Q20.95 0.25 21.0 0.3 21.5 0.3 21.6 0.85 L21.6 0.9 21.6 1.25 21.4 2.5 21.4 2.55 21.05 3.4 20.95 3.55 20.95 3.6 21.8 5.0 21.85 5.15 21.9 5.25 22.05 5.45 22.05 5.5 22.15 5.6 22.2 5.65 22.2 5.7 22.65 6.3 22.7 6.45 22.8 6.6 22.85 6.7 22.9 6.75 23.1 7.25 23.15 7.4 23.35 7.85 23.75 8.9 23.8 9.15 23.85 9.3 24.0 9.8 24.05 9.85 24.1 10.2 24.4 12.05 24.4 12.1 24.45 12.7 24.45 12.95 25.0 13.2 25.55 13.55 Q26.05 13.5 26.55 12.65 L27.1 11.45 Q27.75 9.7 28.55 10.05 29.15 10.2 29.2 11.1 L29.3 11.5 Q29.3 12.4 28.7 13.65 L28.5 14.05 27.4 15.75 27.2 15.95 27.15 16.0 27.4 16.6 27.4 16.85 27.35 16.95 28.45 17.2 Q30.0 17.7 30.0 18.45 29.85 19.65 29.55 19.85 L28.95 20.3 28.25 20.15 27.8 19.95 27.75 19.95 27.45 19.9 27.0 20.05 26.6 20.2 26.5 20.2 25.7 20.5 25.15 20.75 24.95 20.8 24.1 21.05 24.05 20.95 23.9 21.05 23.7 21.05 23.35 21.1 23.25 21.15 23.15 21.15 23.1 21.15 22.35 21.05 21.9 20.9 Q21.15 20.65 20.5 19.95 L20.15 19.5 20.0 19.25 19.95 19.15 19.9 19.05 19.75 18.8 19.65 18.65 19.6 18.6 19.45 18.35 19.4 18.3 19.3 18.2 19.25 18.1 19.15 17.9 18.95 17.6 18.75 17.5 18.55 17.1 18.5 17.2 18.45 17.1 18.5 17.65 18.45 17.7 18.5 17.85 18.65 18.3 18.65 18.35 18.75 18.75 18.9 18.95 18.95 19.0 18.95 19.05 18.85 19.0 19.0 19.35 19.15 19.55 19.15 19.6 19.2 19.65 19.65 20.55 19.7 20.6 19.75 20.8 19.6 21.2 19.5 21.3 19.3 21.45 Q19.15 21.5 18.95 21.65 L18.35 21.85 16.6 22.0 16.35 22.0 16.2 22.0 15.95 21.95 16.0 22.0 15.95 22.1 15.95 22.2 Q15.95 22.8 14.3 23.1 L14.25 23.1 13.45 23.25 12.6 23.25 11.5 23.2 10.1 22.85 Q9.15 22.55 9.15 22.1 L9.3 21.8 8.8 21.9 8.45 21.9 8.35 21.95 6.5 21.9 6.0 21.85 5.0 21.6 Q4.3 21.35 4.3 21.0 L4.55 20.1 4.7 19.9 4.75 19.95 4.8 19.85 4.8 19.75 4.85 19.75 4.9 19.7 4.9 19.65 5.05 19.45 5.05 19.4 5.0 19.35 5.0 19.25 4.95 19.05 4.95 18.95 4.95 18.75 4.9 18.75 4.85 18.7 4.85 18.6 4.9 18.5 4.9 18.45 M17.6 3.25 L18.55 3.4 18.8 3.4 19.85 3.2 20.25 2.75 Q20.8 2.05 20.8 1.4 L20.8 1.35 20.75 1.35 19.8 1.8 18.9 2.15 18.45 2.15 18.4 1.9 18.55 1.5 18.85 1.0 18.8 0.9 18.5 1.1 18.25 1.3 18.15 1.35 17.75 1.65 17.1 1.75 17.05 1.8 Q16.55 1.85 16.15 2.05 L15.65 2.35 15.55 2.45 15.5 2.5 15.3 2.75 15.2 2.95 15.0 3.2 14.85 3.4 14.75 3.55 14.55 3.9 14.2 4.3 14.15 4.3 14.25 3.85 14.5 3.4 14.55 3.35 14.65 3.05 14.7 3.0 14.75 2.95 14.9 2.8 13.45 3.0 12.9 3.4 Q12.35 3.9 12.1 4.65 L11.9 5.6 11.9 5.95 11.95 6.3 12.1 6.9 12.1 6.95 12.15 7.05 12.15 7.1 12.25 7.15 12.45 7.15 12.55 7.15 12.6 7.15 13.7 7.7 13.75 7.75 13.85 7.85 13.95 8.0 14.15 8.3 14.25 8.45 14.25 8.55 14.25 8.6 13.75 8.15 13.6 8.0 13.2 7.85 12.75 7.65 12.5 7.55 12.45 7.55 12.2 7.55 11.55 7.65 10.95 7.85 10.45 8.45 Q10.2 8.95 10.2 9.65 L10.4 10.35 10.65 10.85 10.85 11.2 11.1 11.55 11.55 11.95 12.25 12.8 12.5 13.15 12.5 13.25 12.6 13.35 13.0 13.95 13.6 14.25 14.15 14.05 14.2 14.0 14.85 13.8 15.5 13.55 15.85 13.15 15.95 13.4 15.9 13.55 15.75 13.7 15.7 13.75 15.65 13.75 15.6 13.85 15.3 14.05 14.6 14.35 14.55 14.35 14.5 14.4 14.45 14.4 14.45 14.45 14.4 14.45 14.05 14.6 13.85 14.75 13.3 14.9 13.05 14.75 12.7 14.45 12.55 14.3 12.1 13.7 10.8 12.05 9.7 10.65 Q9.55 10.2 9.55 9.25 9.55 8.3 10.0 7.75 10.5 7.2 11.35 7.15 L11.45 7.15 11.65 7.15 Q11.4 6.75 11.4 6.15 L11.35 5.75 11.35 5.6 11.45 5.05 11.5 4.9 11.55 4.85 11.6 4.65 11.55 4.65 11.4 4.6 11.35 4.6 10.7 4.5 9.9 4.3 10.0 4.4 10.25 4.9 10.25 5.0 10.1 5.2 9.6 5.25 9.25 5.25 Q9.9 5.4 10.1 5.65 L10.15 5.75 10.15 5.85 10.15 6.0 10.05 6.1 10.0 6.1 9.95 6.3 9.6 6.8 9.5 6.9 8.55 8.15 8.2 8.35 8.0 8.25 8.2 8.1 8.9 7.3 8.85 7.35 8.5 7.55 8.4 7.55 8.1 7.7 7.5 7.85 7.45 7.9 7.35 8.0 6.3 8.1 5.5 7.95 4.55 7.7 4.75 7.9 4.8 7.9 4.95 8.05 5.15 8.25 5.35 8.55 5.15 8.85 4.5 9.0 3.9 9.05 3.85 9.05 3.75 9.05 3.7 9.05 4.3 9.25 4.6 9.3 4.75 9.5 4.75 9.55 4.55 9.75 4.0 10.15 3.95 10.2 3.8 10.25 4.3 10.3 4.35 10.3 4.75 10.35 4.9 10.25 5.3 10.1 5.4 10.05 5.7 9.95 5.8 9.95 5.8 10.0 5.85 10.1 5.8 10.35 5.55 10.6 5.1 10.8 5.05 10.8 Q4.5 12.1 4.5 12.5 4.5 13.4 5.15 14.4 L5.75 15.25 5.85 15.4 5.85 15.45 5.95 15.55 6.1 15.9 6.1 15.95 6.05 16.05 6.0 16.05 5.6 15.75 5.45 15.65 5.35 15.6 5.35 15.8 5.4 16.0 5.6 17.0 5.9 19.0 5.95 19.0 6.15 19.0 6.4 19.15 6.45 19.2 6.55 19.4 6.9 19.1 7.1 18.95 7.4 18.9 7.45 18.9 Q7.85 18.9 8.15 19.2 L8.35 19.45 8.4 19.4 Q8.85 18.85 9.3 18.8 L9.75 18.95 9.85 19.0 9.75 18.7 9.7 18.6 9.7 18.55 9.7 18.35 9.7 18.1 9.6 17.25 9.6 17.2 9.5 16.95 8.95 16.75 8.6 16.55 8.4 16.45 8.4 16.4 7.75 15.8 7.2 15.25 7.05 15.1 6.4 14.25 5.8 13.25 5.7 13.0 5.6 12.75 5.55 12.65 5.85 12.9 5.95 13.0 6.15 13.25 6.85 14.15 7.0 14.3 7.0 14.35 7.15 14.5 7.45 14.75 7.8 15.05 8.05 15.25 8.25 15.4 9.4 16.1 9.5 16.05 9.55 16.1 9.55 16.0 9.55 15.95 9.5 15.75 9.5 15.25 9.5 14.15 9.5 13.75 9.6 12.8 9.85 12.15 9.85 12.7 9.9 12.95 10.0 14.75 10.0 14.8 10.0 15.25 10.0 15.45 10.0 15.55 10.0 15.65 10.05 16.5 10.15 17.75 10.25 18.1 10.4 18.95 10.65 20.35 Q10.85 20.15 11.05 20.1 L11.55 20.25 Q11.65 20.25 11.75 20.4 L11.95 20.7 12.15 20.45 12.2 20.35 Q12.35 20.2 12.75 20.2 L13.15 20.25 13.35 20.4 13.6 20.65 13.85 20.45 14.1 20.35 14.35 20.3 14.6 20.35 14.2 18.6 14.15 18.6 14.15 17.45 14.35 16.5 14.4 16.3 14.45 15.9 14.6 15.25 14.7 14.55 14.8 15.25 14.85 15.85 14.85 16.05 14.85 16.25 14.85 16.35 14.85 16.6 14.85 16.8 14.8 16.85 14.85 16.85 15.8 16.7 16.7 16.5 17.05 16.35 17.2 16.3 17.25 16.3 17.55 16.2 17.95 16.05 18.0 16.0 17.9 15.85 17.6 15.45 17.45 15.4 17.35 15.4 17.3 15.35 17.1 15.25 16.5 14.8 Q16.1 14.3 16.05 13.5 L16.05 13.35 Q16.05 12.5 16.4 12.0 L16.5 11.9 16.55 11.85 16.55 11.9 16.55 12.05 16.55 12.15 16.55 12.3 16.55 12.4 16.55 12.55 16.45 13.25 Q16.5 13.9 16.7 14.15 L16.75 14.15 17.3 14.65 17.75 14.9 17.75 14.85 17.75 14.6 17.85 14.2 Q18.1 13.4 19.05 13.25 L19.15 13.2 19.55 13.1 19.55 13.15 20.2 13.25 20.25 13.2 20.15 13.1 20.25 13.15 20.2 13.0 20.15 12.85 20.1 12.75 19.95 12.6 19.85 12.55 19.55 12.3 19.55 12.25 19.5 12.2 19.55 12.2 19.8 12.3 19.9 12.35 19.95 12.35 19.95 12.3 20.5 12.65 20.7 13.1 20.75 13.3 20.6 13.9 20.8 14.2 20.95 14.55 21.05 14.7 21.15 14.85 21.3 15.05 21.4 15.2 21.45 15.25 21.55 15.35 21.8 15.7 22.4 16.45 23.0 17.05 22.85 16.55 22.85 16.45 22.9 15.95 22.95 15.25 23.0 14.9 23.35 13.95 23.55 12.95 23.5 12.8 23.5 12.7 23.5 12.6 23.4 11.9 23.25 10.8 23.2 10.45 23.2 10.4 23.05 9.8 22.7 8.75 21.95 7.1 21.55 6.35 21.15 5.85 21.05 5.7 21.0 5.6 19.8 3.9 19.75 3.9 19.25 3.95 18.2 3.8 Q17.9 3.75 17.75 3.6 L17.65 3.6 17.45 3.5 17.45 3.35 Q17.45 3.25 17.6 3.25 M28.3 11.15 L28.2 11.15 27.85 11.65 27.5 12.35 27.4 12.55 27.4 12.65 27.35 12.75 26.95 13.55 26.4 14.1 26.35 14.2 26.15 14.3 25.65 14.4 24.6 14.15 24.25 14.05 24.15 14.0 24.0 13.95 23.9 13.9 23.85 14.2 23.8 14.25 23.8 14.3 23.75 14.55 23.65 14.8 23.6 15.15 23.55 15.2 23.75 15.25 23.8 15.25 24.1 15.3 24.2 15.35 25.05 15.55 25.9 15.55 26.05 15.55 26.35 15.45 26.7 15.25 27.75 13.7 Q28.45 12.25 28.45 11.35 L28.4 11.2 28.3 11.15 M20.2 18.1 L20.75 18.6 Q21.8 19.45 22.65 19.45 24.25 19.45 25.3 18.8 L25.9 18.3 26.2 18.0 26.75 16.75 26.75 16.6 26.7 16.25 26.0 16.7 25.5 17.1 25.35 17.25 24.35 17.9 24.25 17.95 24.2 17.95 23.9 18.05 23.85 18.05 23.45 17.95 23.3 17.9 23.3 17.85 23.05 17.65 23.0 17.55 22.85 17.35 21.85 16.3 21.15 15.4 21.05 15.25 20.1 13.85 19.85 13.85 19.45 13.85 19.3 13.85 18.5 14.35 Q18.35 14.6 18.35 14.95 L18.45 15.25 18.45 15.3 18.4 15.45 18.5 15.6 18.65 15.95 18.95 16.5 19.15 16.8 19.2 16.9 19.3 17.1 19.4 17.25 19.65 17.55 20.2 18.1 M26.5 18.35 L26.4 18.45 26.15 18.7 26.1 18.75 25.6 19.1 25.05 19.35 24.55 19.65 23.85 19.8 23.7 19.85 23.5 19.85 23.1 19.9 23.05 19.95 22.35 19.9 22.35 19.95 21.15 19.6 21.5 19.95 22.1 20.35 22.85 20.55 22.95 20.55 25.25 20.1 25.8 19.85 25.85 19.85 Q26.9 19.25 27.35 19.25 L28.3 19.45 28.8 19.7 29.15 19.25 29.25 18.95 29.35 18.65 29.25 18.4 29.1 18.25 28.75 18.05 28.55 17.95 27.7 17.7 27.4 17.7 27.1 17.75 26.85 17.9 26.85 17.85 26.5 18.35 M24.0 17.2 L24.1 17.25 24.15 17.15 25.15 16.45 23.8 16.4 23.95 17.2 24.0 17.2 M13.0 8.45 L13.2 8.5 13.7 8.95 13.85 9.05 13.9 9.2 13.9 9.25 14.25 9.9 15.2 10.95 Q14.65 10.85 13.85 9.7 L13.85 9.65 13.55 9.3 13.3 9.15 13.15 9.1 Q12.9 8.85 12.6 8.75 11.85 8.75 11.7 9.3 L11.65 9.55 11.85 10.5 12.25 11.0 12.4 11.15 12.75 11.6 12.8 11.65 13.15 12.1 13.55 12.4 14.45 12.6 14.65 12.6 14.8 12.5 14.9 12.3 14.95 11.95 14.9 11.65 15.15 11.95 15.25 12.2 15.25 12.3 15.15 12.7 Q15.0 12.9 14.65 12.95 L14.6 12.95 14.6 13.0 14.4 13.0 13.45 12.7 13.0 12.4 12.5 11.85 12.3 11.65 11.95 11.4 11.45 10.8 11.2 10.2 11.2 9.75 Q11.2 8.65 11.95 8.4 L12.25 8.35 12.55 8.35 13.0 8.45 M19.1 8.25 Q19.5 8.5 19.5 9.1 L19.3 9.65 19.25 9.7 18.65 10.25 18.35 10.25 18.2 10.25 17.75 10.2 17.7 10.2 17.55 10.15 Q17.2 10.0 17.0 9.7 L16.75 8.9 16.95 8.3 17.0 8.2 Q17.25 7.75 18.15 7.8 18.8 7.8 19.1 8.25 M18.3 8.8 L18.25 8.85 18.2 9.05 18.4 9.25 18.65 9.3 18.8 9.2 18.95 9.05 18.9 8.8 18.3 8.8 M8.9 19.5 L8.5 20.2 8.4 20.5 8.25 21.15 8.35 21.1 8.7 21.05 9.1 21.0 9.55 20.95 9.6 20.9 9.6 20.95 9.9 20.45 9.8 19.9 9.4 19.35 9.3 19.35 Q9.05 19.35 8.9 19.5 M7.75 19.5 L7.65 19.4 7.4 19.45 7.1 19.55 Q6.85 19.75 6.75 20.1 L6.6 21.1 6.6 21.15 6.65 21.15 6.95 21.15 7.05 21.15 7.1 21.15 7.5 21.15 7.95 21.15 7.9 20.95 7.95 20.6 8.05 20.2 7.9 19.75 7.75 19.5 M5.9 21.1 L6.25 21.15 6.4 21.15 Q6.1 21.15 6.15 20.7 L6.25 20.25 6.25 20.15 6.2 19.95 6.15 19.8 6.05 19.5 6.0 19.5 5.4 20.4 5.2 20.85 5.15 20.95 5.2 20.95 5.6 21.05 5.65 21.05 5.9 21.1 M10.1 21.9 L10.05 22.0 10.1 22.0 10.1 21.9 M14.85 17.65 L14.8 18.15 14.8 18.35 14.8 18.6 14.85 18.7 14.85 18.8 14.95 19.15 15.25 19.95 15.5 19.55 Q15.8 19.25 16.15 19.25 16.7 19.25 16.8 19.65 L16.85 19.6 17.1 19.25 17.3 19.15 Q17.6 19.0 18.0 19.15 L18.2 19.15 18.0 18.7 17.95 18.55 17.6 17.65 17.6 17.45 17.65 17.2 17.65 17.15 17.65 17.05 17.65 17.0 17.6 17.0 17.3 17.05 17.25 17.0 17.2 17.05 17.1 17.1 16.6 17.3 16.4 17.35 16.05 17.4 16.0 17.45 15.95 17.45 15.6 17.55 15.25 17.55 14.9 17.55 14.85 17.55 14.85 17.65 M12.9 20.75 L12.8 20.8 12.75 20.85 12.65 20.95 12.4 21.2 12.25 21.55 12.2 21.8 12.15 22.3 12.15 22.4 12.15 22.45 12.2 22.45 12.5 22.45 12.75 22.45 13.2 22.45 13.4 22.45 13.2 21.8 12.95 20.75 12.9 20.7 12.9 20.75 M14.6 22.2 L14.75 22.15 14.7 21.45 14.4 20.8 14.2 21.0 13.9 21.6 13.75 22.4 14.6 22.2 M11.35 20.7 L11.25 20.6 10.8 20.95 10.45 22.05 10.45 22.15 10.5 22.2 10.65 22.25 10.95 22.3 11.3 22.4 11.65 22.45 11.65 22.4 Q11.65 21.25 11.45 20.85 L11.35 20.7 M17.9 19.5 L17.4 19.7 17.25 19.95 17.15 20.25 17.2 20.8 17.2 21.0 17.2 21.1 17.95 21.1 18.7 20.85 18.75 20.85 18.6 20.3 18.4 19.7 17.9 19.5 M15.55 20.7 L15.6 20.85 15.65 20.95 15.75 21.0 15.8 21.0 15.95 21.05 16.75 21.1 16.55 20.55 16.2 19.75 Q15.7 19.75 15.6 20.3 L15.55 20.65 15.55 20.7" fill="#002e5b" fill-rule="evenodd" stroke="none"/>
      <path d="M12.15 20.45 L11.95 20.7 11.75 20.4 Q11.65 20.25 11.55 20.25 L11.05 20.1 11.05 20.0 10.9 19.25 11.0 18.6 Q11.1 18.3 11.3 18.3 L11.6 18.6 12.0 19.75 12.15 20.45 M7.45 18.9 L7.4 18.9 7.1 18.95 7.05 18.05 Q7.05 17.6 6.65 17.2 6.25 16.85 6.25 17.5 L6.35 18.4 6.35 18.7 6.4 19.1 6.4 19.15 6.15 19.0 6.15 18.8 6.15 18.75 6.15 18.4 6.0 17.75 5.9 16.95 6.0 16.05 6.05 16.05 6.1 15.95 6.1 15.9 Q6.25 15.65 6.55 15.9 7.25 16.45 7.25 17.15 L7.25 17.45 7.35 17.65 7.45 18.25 7.45 18.5 7.45 18.9 M5.1 10.8 L5.55 10.6 5.8 10.35 5.8 10.4 6.3 10.65 Q6.85 10.65 7.4 9.85 L7.9 9.05 Q7.9 8.3 6.85 8.85 5.95 9.4 5.8 9.95 L5.7 9.95 5.4 10.05 5.4 9.95 5.3 9.95 Q5.75 9.05 7.0 8.4 L8.2 8.1 8.0 8.25 8.2 8.35 8.55 8.15 Q8.95 8.3 8.95 8.85 8.95 9.45 7.8 10.35 L6.05 11.55 5.55 11.55 5.1 11.25 5.1 10.9 5.1 10.8 M11.1 11.55 L10.85 11.2 10.65 10.85 10.4 10.35 10.5 10.35 10.6 10.35 10.65 10.3 10.65 10.1 10.7 9.65 Q10.7 10.1 11.0 10.6 L11.3 11.2 11.3 11.45 11.15 11.55 11.1 11.55 M11.55 7.65 L12.2 7.55 12.45 7.55 12.5 7.55 12.75 7.65 Q12.75 7.95 12.55 7.95 L12.2 7.95 Q11.2 7.95 10.7 9.4 10.8 8.9 11.05 8.5 L11.55 7.65 M12.55 7.15 L12.45 7.15 12.25 7.15 12.55 7.15 M14.7 3.0 L14.65 3.05 14.55 3.35 14.1 3.4 13.8 3.55 Q12.75 4.2 12.75 4.75 L12.8 5.0 Q12.95 5.3 13.55 5.3 14.05 5.3 14.45 4.65 L14.8 3.9 14.75 3.55 14.85 3.4 15.0 3.2 15.2 2.95 17.05 1.8 17.1 1.75 17.75 1.65 18.15 1.35 18.3 1.75 17.5 3.0 17.15 3.4 16.55 4.05 15.15 5.3 14.8 5.6 13.85 6.25 Q12.85 6.25 12.55 5.65 L12.55 5.6 12.45 5.05 Q12.45 4.4 12.85 3.9 L13.5 3.4 14.7 3.0 M27.7 17.7 L28.55 17.95 28.7 18.05 29.1 18.25 29.25 18.4 27.7 17.7 M20.2 17.7 Q20.45 17.9 20.7 17.9 L20.75 17.9 20.85 17.95 20.95 17.9 20.95 17.8 20.65 17.45 20.2 16.9 Q19.65 16.3 19.65 16.85 L19.9 17.4 19.4 16.7 19.0 15.95 19.35 16.1 19.65 15.8 Q19.65 15.35 19.25 15.25 L19.0 15.25 18.9 15.5 18.9 15.8 18.7 15.25 18.65 14.95 Q18.65 14.4 19.2 14.65 L19.7 15.25 19.7 15.55 Q19.7 16.1 20.75 17.05 L21.8 18.1 21.6 18.3 Q20.85 18.3 20.2 17.7 M17.5 2.35 L17.6 2.1 Q17.6 1.75 17.3 1.85 16.95 1.9 16.95 2.2 16.95 2.5 17.3 2.5 L17.5 2.35 M7.1 21.15 L7.05 21.15 7.1 21.05 7.15 21.1 7.1 21.15 M7.1 19.55 L7.4 19.45 7.4 19.5 7.1 19.6 7.1 19.55 M5.9 21.1 L5.65 21.05 5.75 21.0 5.8 20.75 5.9 21.1 M10.5 14.4 Q10.5 12.7 11.15 13.6 11.65 14.25 11.8 15.25 L11.85 16.15 11.75 17.0 Q11.65 17.75 11.25 17.75 10.8 17.75 10.6 16.05 L10.55 15.25 10.5 14.4 M11.35 14.8 Q11.15 14.35 10.85 14.5 L10.65 14.85 10.65 15.5 Q10.75 16.15 11.2 16.15 11.5 16.15 11.5 15.65 L11.45 15.25 11.35 14.8 M12.2 22.45 L12.15 22.45 12.15 22.4 12.2 22.45 M11.3 22.4 L10.95 22.3 10.95 22.25 11.05 22.05 11.25 22.3 11.3 22.4" fill="#53a9ff" fill-rule="evenodd" stroke="none"/>
      <path d="M20.75 1.35 L20.35 2.0 20.3 2.1 20.25 2.1 20.2 2.2 20.15 2.2 20.0 2.3 19.25 2.9 19.15 2.95 19.0 3.05 18.35 3.15 18.05 3.15 17.85 3.2 17.6 3.2 17.6 3.25 Q17.45 3.25 17.45 3.35 L17.45 3.5 17.65 3.6 Q17.6 3.95 18.3 4.45 L18.65 4.7 18.65 4.75 19.65 5.6 21.05 7.7 21.85 10.9 21.85 11.05 21.95 11.35 21.9 12.55 21.45 13.75 21.25 14.35 21.05 14.65 21.05 14.7 20.95 14.55 20.8 14.2 20.6 13.9 20.75 13.3 20.7 13.1 20.5 12.65 19.95 12.3 19.95 12.35 19.9 12.35 19.8 12.3 19.55 12.2 19.05 11.75 19.0 11.75 18.6 11.45 18.9 11.9 19.55 12.95 19.55 13.1 19.15 13.2 19.05 13.25 Q18.1 13.4 17.85 14.2 L17.75 14.6 17.75 14.85 17.75 14.9 17.3 14.65 16.75 14.15 16.7 14.15 Q16.5 13.9 16.45 13.25 L16.55 12.55 16.55 12.4 16.55 12.3 16.55 12.15 16.55 12.05 16.55 11.9 16.55 11.85 16.5 11.9 16.25 11.85 15.75 12.5 15.2 13.1 Q14.6 13.55 13.65 13.55 L13.3 13.4 12.9 13.25 12.6 13.35 12.5 13.25 12.5 13.15 12.25 12.8 11.55 11.95 11.1 11.55 11.15 11.55 11.3 11.45 11.3 11.2 11.0 10.6 Q10.7 10.1 10.7 9.65 L10.7 9.4 Q11.2 7.95 12.2 7.95 L12.55 7.95 Q12.75 7.95 12.75 7.65 L13.2 7.85 13.6 8.0 13.75 8.15 14.25 8.6 14.25 8.55 14.25 8.45 14.9 9.15 15.05 9.05 15.05 8.9 Q15.05 8.0 13.75 7.3 L12.75 6.65 11.95 6.3 11.9 5.95 11.9 5.6 12.1 4.65 Q12.35 3.9 12.9 3.4 L13.45 3.0 14.9 2.8 14.75 2.95 14.7 3.0 13.5 3.4 12.85 3.9 Q12.45 4.4 12.45 5.05 L12.55 5.6 12.55 5.65 Q12.85 6.25 13.85 6.25 L14.8 5.6 15.15 5.3 16.55 4.05 17.15 3.4 17.5 3.0 18.3 1.75 18.15 1.35 18.25 1.3 18.5 1.1 18.8 0.9 18.85 1.0 18.55 1.5 18.4 1.9 18.45 2.15 18.9 2.15 19.8 1.8 20.75 1.35 M21.3 15.05 L21.15 14.85 21.2 14.85 21.3 15.05 M20.15 13.1 L20.25 13.2 20.2 13.25 19.55 13.15 19.55 13.1 20.15 13.1 M13.15 20.25 L12.75 20.2 Q12.35 20.2 12.2 20.35 L12.15 20.45 12.0 19.75 11.6 18.6 11.3 18.3 Q11.1 18.3 11.0 18.6 L10.9 19.25 11.05 20.0 11.05 20.1 Q10.85 20.15 10.65 20.35 L10.4 18.95 10.25 18.1 10.15 17.75 10.05 16.5 10.25 16.2 10.1 15.25 10.0 14.8 10.0 14.75 9.9 12.95 9.95 12.8 9.85 12.7 9.85 12.15 9.6 12.8 Q9.45 12.85 9.25 13.0 L7.7 13.65 6.75 13.5 6.5 13.6 6.15 13.25 5.85 12.9 5.55 12.65 5.6 12.75 5.7 13.0 5.7 13.15 5.75 13.5 Q5.8 14.1 6.15 14.55 L6.3 14.7 6.65 15.25 6.85 15.55 6.9 15.65 8.25 17.55 8.35 17.75 8.45 18.2 8.45 18.3 8.5 18.85 8.5 19.0 8.4 19.4 8.35 19.45 8.15 19.2 Q7.85 18.9 7.45 18.9 L7.45 18.5 7.45 18.25 7.35 17.65 7.25 17.45 7.25 17.15 Q7.25 16.45 6.55 15.9 6.25 15.65 6.1 15.9 L5.95 15.55 5.85 15.45 5.85 15.4 5.75 15.25 5.15 14.4 Q4.5 13.4 4.5 12.5 4.5 12.1 5.05 10.8 L5.1 10.8 5.1 10.9 5.1 11.25 5.55 11.55 6.05 11.55 7.8 10.35 Q8.95 9.45 8.95 8.85 8.95 8.3 8.55 8.15 L9.5 6.9 9.6 6.8 9.95 6.3 10.0 6.1 10.05 6.1 10.15 6.0 10.15 5.85 10.15 5.75 10.1 5.65 10.15 5.65 10.25 5.55 9.7 5.3 9.6 5.25 10.1 5.2 10.25 5.0 10.55 5.1 10.55 5.05 10.25 4.55 10.1 4.45 10.05 4.4 10.0 4.4 9.9 4.3 10.7 4.5 11.35 4.6 11.4 4.6 11.55 4.65 11.6 4.65 11.55 4.85 11.5 4.9 11.45 5.05 11.35 5.6 11.35 5.75 11.4 6.15 Q11.4 6.75 11.65 7.15 L11.45 7.15 11.35 7.15 Q10.5 7.2 10.0 7.75 9.55 8.3 9.55 9.25 9.55 10.2 9.7 10.65 L10.8 12.05 12.1 13.7 12.55 14.3 12.7 14.45 13.05 14.75 13.05 14.9 13.05 15.25 12.95 16.65 13.0 17.15 12.95 18.0 12.95 18.1 12.95 18.2 12.95 18.55 13.15 20.25 M6.15 19.0 L5.95 19.0 5.9 19.0 5.6 17.0 5.4 16.0 5.35 15.8 5.35 15.6 5.45 15.65 5.6 15.75 6.0 16.05 5.9 16.95 6.0 17.75 6.15 18.4 6.15 18.75 6.15 18.8 6.15 19.0 M5.4 10.05 L5.3 10.1 4.65 9.9 Q4.35 9.85 4.0 10.2 L3.95 10.2 4.0 10.15 4.55 9.75 4.75 9.55 4.75 9.5 4.85 9.5 4.85 9.3 4.4 9.15 3.9 9.05 4.5 9.0 5.15 8.85 5.35 8.55 5.15 8.25 4.95 8.05 4.8 7.9 4.75 7.9 4.55 7.7 5.5 7.95 6.3 8.1 7.35 8.0 7.45 7.9 7.5 7.85 8.1 7.7 8.4 7.55 8.5 7.55 8.85 7.35 8.9 7.3 8.2 8.1 7.0 8.4 Q5.75 9.05 5.3 9.95 L5.4 9.95 5.4 10.05 M12.25 7.15 L12.15 7.1 12.15 7.05 12.25 7.15 M15.2 2.95 L15.3 2.75 15.5 2.5 15.55 2.45 15.65 2.35 16.15 2.05 Q16.55 1.85 17.05 1.8 L15.2 2.95 M24.1 15.3 L23.8 15.25 23.75 15.25 23.55 15.2 23.6 15.15 24.05 15.25 24.1 15.3 M20.2 18.1 L19.65 17.55 19.4 17.25 19.35 17.15 19.3 17.1 19.2 16.9 19.15 16.8 18.95 16.5 18.65 15.95 18.5 15.6 18.4 15.45 18.45 15.3 18.45 15.25 18.35 14.95 Q18.35 14.6 18.5 14.35 L19.3 13.85 19.45 13.85 20.1 15.25 20.6 16.05 Q22.05 18.2 23.45 18.2 L23.65 18.1 23.75 18.1 23.85 18.05 23.6 18.05 23.45 18.05 23.4 18.05 23.25 18.05 23.0 17.85 22.1 17.1 21.65 16.45 21.35 16.0 20.8 15.25 20.4 14.65 19.95 13.9 19.85 13.85 20.1 13.85 21.05 15.25 21.15 15.4 21.85 16.3 22.85 17.35 23.0 17.55 23.05 17.65 23.3 17.85 23.3 17.9 23.45 17.95 23.85 18.05 23.9 18.05 24.2 17.95 24.25 17.95 24.35 17.9 25.35 17.25 25.5 17.1 26.0 16.7 26.7 16.25 26.5 16.5 26.1 17.1 25.85 17.65 24.75 18.35 23.1 19.1 Q21.95 19.1 21.05 18.6 L20.2 18.1 M29.25 18.95 Q29.0 18.65 28.35 18.35 27.45 17.95 26.5 18.35 L26.85 17.85 26.85 17.9 27.1 17.75 27.4 17.7 27.7 17.7 29.25 18.4 29.35 18.65 29.25 18.95 M20.2 17.7 Q20.85 18.3 21.6 18.3 L21.8 18.1 20.75 17.05 Q19.7 16.1 19.7 15.55 L19.7 15.25 19.2 14.65 Q18.65 14.4 18.65 14.95 L18.7 15.25 18.9 15.8 19.0 15.95 19.4 16.7 19.9 17.4 20.2 17.7 M13.0 8.45 L13.0 8.4 Q11.8 7.95 11.3 8.65 L11.05 9.0 10.85 9.45 11.15 10.3 11.4 11.1 11.7 11.45 12.4 12.2 Q13.0 12.75 13.3 12.75 L13.45 12.7 14.4 13.0 14.6 13.0 14.6 12.95 14.65 12.95 Q15.0 12.9 15.15 12.7 L15.25 12.3 15.25 12.2 Q15.25 11.9 15.4 11.7 L15.6 11.25 15.45 10.9 14.7 10.3 14.25 9.75 14.05 9.3 13.9 9.2 13.85 9.05 13.7 8.95 13.2 8.5 13.0 8.45 M19.1 8.25 Q18.8 7.8 18.15 7.8 17.25 7.75 17.0 8.2 L16.95 8.3 16.75 8.9 17.0 9.7 Q17.2 10.0 17.55 10.15 L17.7 10.2 17.75 10.2 18.2 10.25 18.35 10.25 18.65 10.25 19.25 9.7 19.3 9.65 19.5 9.1 Q19.5 8.5 19.1 8.25 M7.4 19.45 L7.65 19.4 7.75 19.5 7.5 19.5 7.4 19.5 7.4 19.45 M7.5 21.15 L7.1 21.15 7.15 21.1 7.1 21.05 7.05 21.15 6.95 21.15 Q6.75 20.25 7.35 19.8 L7.5 19.7 7.5 21.15 M6.65 21.15 L6.6 21.15 6.6 21.1 6.65 21.15 M6.15 19.8 L6.2 19.95 6.25 20.15 6.25 20.25 6.15 20.7 Q6.1 21.15 6.4 21.15 L6.25 21.15 5.9 21.1 5.8 20.75 5.75 21.0 5.65 21.05 5.6 21.05 5.6 21.0 5.6 20.85 5.85 20.3 6.15 19.8 M5.2 20.95 L5.15 20.95 5.2 20.85 5.2 20.95 M10.1 21.9 L10.1 22.0 10.05 22.0 10.1 21.9 M17.0 17.55 L17.0 17.5 17.05 17.4 17.05 17.45 17.0 17.55 M10.5 14.4 L10.55 15.25 10.6 16.05 Q10.8 17.75 11.25 17.75 11.65 17.75 11.75 17.0 L11.85 16.15 11.8 15.25 Q11.65 14.25 11.15 13.6 10.5 12.7 10.5 14.4 M12.9 20.75 L12.9 20.7 12.95 20.75 12.9 20.75 M12.75 22.45 L12.5 22.45 12.8 21.2 12.75 22.45 M12.15 22.4 L12.15 22.3 12.2 21.8 12.2 22.15 12.2 22.35 12.2 22.45 12.15 22.4 M12.25 21.55 L12.4 21.2 12.35 21.35 12.35 21.45 12.25 21.55 M12.65 20.95 L12.75 20.85 12.8 20.8 12.8 20.85 12.75 20.85 12.7 20.95 12.65 20.95 M10.8 20.95 L11.25 20.6 11.35 20.7 Q11.05 20.65 10.8 20.95 M11.45 20.85 Q11.65 21.25 11.65 22.4 L11.65 22.45 11.3 22.4 11.25 22.3 11.05 22.05 11.2 21.15 11.2 21.1 11.45 20.85 M15.75 21.0 L15.65 20.95 15.6 20.85 15.75 21.0" fill="#3399ff" fill-rule="evenodd" stroke="none"/>
      <path d="M7.1 18.95 L6.9 19.1 6.55 19.4 6.45 19.2 6.4 19.15 6.4 19.1 6.35 18.7 6.35 18.4 6.25 17.5 Q6.25 16.85 6.65 17.2 7.05 17.6 7.05 18.05 L7.1 18.95 M5.8 10.35 L5.85 10.1 5.8 10.0 5.8 9.95 Q5.95 9.4 6.85 8.85 7.9 8.3 7.9 9.05 L7.4 9.85 Q6.85 10.65 6.3 10.65 L5.8 10.4 5.8 10.35 M10.4 10.35 L10.2 9.65 Q10.2 8.95 10.45 8.45 L10.95 7.85 11.55 7.65 11.05 8.5 Q10.8 8.9 10.7 9.4 L10.7 9.65 10.65 10.1 10.65 10.3 10.6 10.35 10.5 10.35 10.4 10.35 M14.55 3.35 L14.5 3.4 14.25 3.85 14.15 4.3 14.2 4.3 14.55 3.9 14.75 3.55 14.8 3.9 14.45 4.65 Q14.05 5.3 13.55 5.3 12.95 5.3 12.8 5.0 L12.75 4.75 Q12.75 4.2 13.8 3.55 L14.1 3.4 14.55 3.35 M28.55 17.95 L28.75 18.05 29.1 18.25 28.7 18.05 28.55 17.95 M19.9 17.4 L19.65 16.85 Q19.65 16.3 20.2 16.9 L20.65 17.45 20.95 17.8 20.95 17.9 20.85 17.95 20.75 17.9 20.7 17.9 Q20.45 17.9 20.2 17.7 L19.9 17.4 M18.9 15.8 L18.9 15.5 19.0 15.25 19.25 15.25 Q19.65 15.35 19.65 15.8 L19.35 16.1 19.0 15.95 18.9 15.8 M17.5 2.35 L17.3 2.5 Q16.95 2.5 16.95 2.2 16.95 1.9 17.3 1.85 17.6 1.75 17.6 2.1 L17.5 2.35 M18.3 8.8 L18.9 8.8 18.95 9.05 18.8 9.2 18.65 9.3 18.4 9.25 18.2 9.05 18.25 8.85 18.3 8.8 M9.3 19.4 L9.4 19.4 9.3 19.7 9.0 20.3 8.7 21.05 8.35 21.1 8.35 20.7 8.4 20.5 8.5 20.2 8.9 19.5 9.3 19.4 M6.95 21.15 L6.65 21.15 6.6 21.1 6.75 20.1 Q6.85 19.75 7.1 19.55 L7.1 19.6 7.4 19.5 7.5 19.5 7.55 19.5 7.65 19.65 7.5 19.7 7.35 19.8 Q6.75 20.25 6.95 21.15 M5.6 21.05 L5.2 20.95 5.2 20.85 5.4 20.4 6.0 19.5 6.05 19.5 6.15 19.8 5.85 20.3 5.6 20.85 5.6 21.0 5.6 21.05 M11.35 14.8 L11.45 15.25 11.5 15.65 Q11.5 16.15 11.2 16.15 10.75 16.15 10.65 15.5 L10.65 14.85 10.85 14.5 Q11.15 14.35 11.35 14.8 M12.5 22.45 L12.2 22.45 12.2 22.35 12.2 22.15 12.2 21.8 12.25 21.55 12.35 21.45 12.35 21.35 12.4 21.2 12.65 20.95 12.7 20.95 12.85 20.95 12.8 21.05 12.85 21.15 12.8 21.2 12.5 22.45 M10.8 20.95 Q11.05 20.65 11.35 20.7 L11.45 20.85 11.2 21.1 11.2 21.15 11.05 22.05 10.95 22.25 10.95 22.3 10.65 22.25 10.5 22.2 10.45 22.15 10.45 22.05 10.8 20.95" fill="#99ccff" fill-rule="evenodd" stroke="none"/>
      <path d="M20.75 1.35 L20.8 1.35 20.8 1.4 Q20.8 2.05 20.25 2.75 L19.85 3.2 18.8 3.4 18.55 3.4 17.6 3.25 17.6 3.2 17.85 3.2 18.05 3.15 18.35 3.15 19.0 3.05 19.15 2.95 19.25 2.9 20.0 2.3 20.15 2.2 20.2 2.2 20.25 2.1 20.3 2.1 20.35 2.0 20.75 1.35 M17.65 3.6 L17.75 3.6 Q17.9 3.75 18.2 3.8 L19.25 3.95 19.75 3.9 19.8 3.9 21.0 5.6 21.05 5.7 21.15 5.85 22.1 7.75 22.25 8.5 22.55 10.95 Q22.55 12.4 21.95 13.8 L21.4 15.2 21.3 15.05 21.2 14.85 21.15 14.85 21.05 14.7 21.05 14.65 21.25 14.35 21.45 13.75 21.9 12.55 21.95 11.35 21.85 11.05 21.85 10.9 21.05 7.7 19.65 5.6 18.65 4.75 18.65 4.7 18.3 4.45 Q17.6 3.95 17.65 3.6 M19.55 12.2 L19.5 12.2 19.55 12.25 19.55 12.3 19.85 12.55 19.95 12.6 20.05 12.9 20.15 13.1 19.55 13.1 19.55 12.95 18.9 11.9 18.6 11.45 19.0 11.75 19.05 11.75 19.55 12.2 M16.5 11.9 L16.4 12.0 Q16.05 12.5 16.05 13.35 L16.05 13.5 15.95 13.55 15.9 13.55 15.95 13.4 15.85 13.15 15.5 13.55 14.85 13.8 14.2 14.0 14.15 14.05 13.6 14.25 13.0 13.95 12.6 13.35 12.9 13.25 13.3 13.4 13.65 13.55 Q14.6 13.55 15.2 13.1 L15.75 12.5 16.25 11.85 16.5 11.9 M16.7 16.5 L15.8 16.7 15.75 16.6 15.75 16.35 Q15.75 15.75 16.35 15.75 L16.7 16.0 16.75 16.1 16.7 16.5 M14.1 20.35 L13.85 20.45 13.6 20.65 13.35 20.4 13.15 20.25 12.95 18.55 12.95 18.2 12.95 18.1 12.95 18.0 13.0 17.15 12.95 16.65 13.05 15.25 13.05 14.9 13.05 14.75 13.3 14.9 13.85 14.75 14.05 14.6 14.4 14.45 14.45 14.45 14.15 15.25 14.1 15.5 13.95 17.1 13.85 18.05 13.85 18.1 13.8 18.55 13.85 19.35 14.1 20.35 M10.05 16.5 L10.0 15.65 10.0 15.55 10.0 15.45 10.0 15.25 10.0 14.8 10.1 15.25 10.25 16.2 10.05 16.5 M9.9 12.95 L9.85 12.7 9.95 12.8 9.9 12.95 M9.6 12.8 L9.5 13.75 9.25 13.85 9.0 14.1 8.0 14.2 7.65 14.25 7.4 14.1 6.85 14.15 6.15 13.25 5.95 13.0 5.85 12.9 6.15 13.25 6.5 13.6 6.75 13.5 7.7 13.65 9.25 13.0 Q9.45 12.85 9.6 12.8 M7.15 14.5 L7.0 14.35 7.2 14.45 7.15 14.5 M5.7 13.0 L5.8 13.25 6.4 14.25 7.05 15.1 7.2 15.25 7.75 15.8 8.4 16.4 8.4 16.45 8.6 16.55 Q9.2 17.3 9.2 17.8 L9.3 18.8 Q8.85 18.85 8.4 19.4 L8.5 19.0 8.5 18.85 8.45 18.3 8.45 18.2 8.35 17.75 8.25 17.55 6.9 15.65 6.85 15.55 6.65 15.25 6.3 14.7 6.15 14.55 Q5.8 14.1 5.75 13.5 L5.7 13.15 5.7 13.0 M5.3 10.1 L4.9 10.25 4.75 10.35 4.35 10.3 4.3 10.3 3.8 10.25 3.95 10.2 4.0 10.2 Q4.35 9.85 4.65 9.9 L5.3 10.1 M4.75 9.5 L4.6 9.3 4.3 9.25 3.7 9.05 3.75 9.05 3.85 9.05 3.9 9.05 4.4 9.15 4.85 9.3 4.85 9.5 4.75 9.5 M10.1 5.65 Q9.9 5.4 9.25 5.25 L9.6 5.25 9.7 5.3 10.25 5.55 10.15 5.65 10.1 5.65 M10.25 5.0 L10.25 4.9 10.0 4.4 10.05 4.4 10.1 4.45 10.25 4.55 10.55 5.05 10.55 5.1 10.25 5.0 M14.25 8.45 L14.15 8.3 13.95 8.0 13.85 7.85 13.75 7.75 13.7 7.7 12.6 7.15 12.55 7.15 12.25 7.15 12.15 7.05 12.1 6.95 12.1 6.9 11.95 6.3 12.75 6.65 13.75 7.3 Q15.05 8.0 15.05 8.9 L15.05 9.05 14.9 9.15 14.25 8.45 M26.15 14.3 L26.35 14.2 26.4 14.1 26.95 13.55 27.35 12.75 27.4 12.65 27.4 12.55 27.5 12.35 27.85 11.65 28.2 11.15 28.3 11.15 28.25 11.45 27.95 12.5 27.4 13.4 26.6 14.35 26.3 14.35 26.15 14.3 M26.35 15.45 L26.05 15.55 25.9 15.55 26.35 15.45 M23.6 15.15 L23.65 14.8 23.65 14.95 24.05 15.25 23.6 15.15 M23.85 14.2 L23.9 13.9 24.0 13.95 23.85 14.2 M26.7 16.25 L26.75 16.6 26.75 16.75 26.2 18.0 25.9 18.3 25.3 18.8 Q24.25 19.45 22.65 19.45 21.8 19.45 20.75 18.6 L20.2 18.1 21.05 18.6 Q21.95 19.1 23.1 19.1 L24.75 18.35 25.85 17.65 26.1 17.1 26.5 16.5 26.7 16.25 M19.45 13.85 L19.85 13.85 19.95 13.9 20.4 14.65 20.8 15.25 21.35 16.0 21.65 16.45 22.1 17.1 23.0 17.85 23.25 18.05 23.4 18.05 23.45 18.05 23.6 18.05 23.85 18.05 23.75 18.1 23.65 18.1 23.45 18.2 Q22.05 18.2 20.6 16.05 L20.1 15.25 19.45 13.85 M23.85 19.8 L24.55 19.65 25.05 19.35 25.6 19.1 26.1 18.75 26.15 18.7 26.4 18.45 26.5 18.35 Q27.45 17.95 28.35 18.35 29.0 18.65 29.25 18.95 L29.15 19.25 29.0 19.1 Q28.9 18.2 26.65 18.9 L24.8 19.6 23.85 19.8 M13.45 12.7 L13.3 12.75 Q13.0 12.75 12.4 12.2 L11.7 11.45 11.4 11.1 11.15 10.3 10.85 9.45 11.05 9.0 11.3 8.65 Q11.8 7.95 13.0 8.4 L13.0 8.45 12.55 8.35 12.25 8.35 11.95 8.4 Q11.2 8.65 11.2 9.75 L11.2 10.2 11.45 10.8 11.95 11.4 12.3 11.65 12.5 11.85 13.0 12.4 13.45 12.7 M13.9 9.2 L14.05 9.3 14.25 9.75 14.7 10.3 15.45 10.9 15.6 11.25 15.4 11.7 Q15.25 11.9 15.25 12.2 L15.15 11.95 14.9 11.65 14.95 11.95 14.9 12.3 14.8 12.5 14.65 12.6 14.65 12.5 13.8 11.45 Q12.85 10.35 12.85 9.75 L13.15 9.25 13.3 9.15 13.55 9.3 13.85 9.65 13.85 9.7 Q14.65 10.85 15.2 10.95 L14.25 9.9 13.9 9.25 13.9 9.2 M9.3 19.4 L8.9 19.5 Q9.05 19.35 9.3 19.35 L9.3 19.4 M8.4 20.5 L8.35 20.7 8.35 21.1 8.25 21.15 8.4 20.5 M8.7 21.05 L9.0 20.3 9.3 19.7 9.05 20.7 9.1 21.0 8.7 21.05 M7.75 19.5 L7.9 19.75 8.05 20.2 7.95 20.6 7.9 20.95 7.95 21.15 7.5 21.15 7.5 19.7 7.65 19.65 7.55 19.5 7.5 19.5 7.75 19.5 M16.6 17.3 L16.55 17.35 16.4 17.35 16.6 17.3 M14.9 17.55 L14.85 17.65 14.85 17.55 14.9 17.55 M17.05 17.45 L17.05 17.55 17.0 17.55 17.05 17.45 M12.8 20.8 L12.9 20.75 12.95 20.75 13.2 21.8 13.4 22.45 13.2 22.45 12.75 22.45 12.8 21.2 12.85 21.15 12.8 21.05 12.85 20.95 12.7 20.95 12.75 20.85 12.8 20.85 12.8 20.8 M14.2 21.0 L14.2 21.5 Q14.3 22.1 14.6 22.2 L13.75 22.4 13.9 21.6 14.2 21.0 M15.6 20.85 L15.55 20.7 15.6 20.7 15.8 21.0 15.75 21.0 15.6 20.85" fill="#006ddb" fill-rule="evenodd" stroke="none"/>
      <path d="M21.15 5.85 L21.55 6.35 21.95 7.1 22.7 8.75 23.05 9.8 23.2 10.4 23.2 10.45 23.25 10.8 23.4 11.9 23.5 12.6 23.5 12.7 23.5 12.8 23.55 12.95 23.35 13.95 23.0 14.9 22.95 15.25 22.9 15.95 22.85 16.45 22.85 16.55 23.0 17.05 22.4 16.45 21.8 15.7 21.55 15.35 21.45 15.25 21.4 15.2 21.95 13.8 Q22.55 12.4 22.55 10.95 L22.25 8.5 22.1 7.75 21.15 5.85 M19.95 12.6 L20.1 12.75 20.15 12.85 20.2 13.0 20.25 13.15 20.15 13.1 20.05 12.9 19.95 12.6 M16.05 13.5 Q16.1 14.3 16.5 14.8 L17.1 15.25 17.3 15.35 17.35 15.4 17.45 15.4 17.6 15.45 17.9 15.85 18.0 16.0 17.95 16.05 17.55 16.2 17.25 16.3 17.2 16.3 17.05 16.35 16.7 16.5 16.75 16.1 16.7 16.0 16.35 15.75 Q15.75 15.75 15.75 16.35 L15.75 16.6 15.8 16.7 14.85 16.85 14.8 16.85 14.85 16.8 14.85 16.6 14.85 16.35 14.85 16.25 14.85 16.05 14.85 15.85 14.8 15.25 14.7 14.55 14.6 15.25 14.45 15.9 14.4 16.3 14.35 16.5 14.15 17.45 14.15 18.6 14.2 18.6 14.6 20.35 14.35 20.3 14.1 20.35 13.85 19.35 13.8 18.55 13.85 18.1 13.85 18.05 13.95 17.1 14.1 15.5 14.15 15.25 14.45 14.45 14.45 14.4 14.5 14.4 14.55 14.35 14.6 14.35 15.3 14.05 15.6 13.85 15.65 13.75 15.7 13.75 15.75 13.7 15.9 13.55 15.95 13.55 16.05 13.5 M9.5 13.75 L9.5 14.15 9.5 15.25 9.5 15.75 9.55 15.95 9.55 16.0 9.55 16.1 9.5 16.05 9.4 16.1 8.25 15.4 8.05 15.25 7.8 15.05 7.45 14.75 7.15 14.5 7.2 14.45 7.0 14.35 7.0 14.3 6.85 14.15 7.4 14.1 7.65 14.25 8.0 14.2 9.0 14.1 9.25 13.85 9.5 13.75 M8.6 16.55 L8.95 16.75 9.5 16.95 9.6 17.2 9.6 17.25 9.7 18.1 9.7 18.35 9.7 18.55 9.7 18.6 9.75 18.7 9.85 19.0 9.75 18.95 9.3 18.8 9.2 17.8 Q9.2 17.3 8.6 16.55 M26.15 14.3 L26.3 14.35 26.6 14.35 27.4 13.4 27.95 12.5 28.25 11.45 28.3 11.15 28.4 11.2 28.45 11.35 Q28.45 12.25 27.75 13.7 L26.7 15.25 26.35 15.45 25.9 15.55 25.05 15.55 24.2 15.35 24.1 15.3 24.05 15.25 23.65 14.95 23.65 14.8 23.75 14.55 23.8 14.3 23.8 14.25 23.85 14.2 24.0 13.95 24.15 14.0 24.25 14.05 24.6 14.15 25.65 14.4 26.15 14.3 M23.85 19.8 L24.8 19.6 26.65 18.9 Q28.9 18.2 29.0 19.1 L29.15 19.25 28.8 19.7 28.3 19.45 27.35 19.25 Q26.9 19.25 25.85 19.85 L25.8 19.85 25.25 20.1 22.95 20.55 22.85 20.55 22.1 20.35 21.5 19.95 21.15 19.6 22.35 19.95 22.35 19.9 23.05 19.95 23.1 19.9 23.5 19.85 23.7 19.85 23.85 19.8 M14.65 12.6 L14.45 12.6 13.55 12.4 13.15 12.1 12.8 11.65 12.75 11.6 12.4 11.15 12.25 11.0 11.85 10.5 11.65 9.55 11.7 9.3 Q11.85 8.75 12.6 8.75 12.9 8.85 13.15 9.1 L13.3 9.15 13.15 9.25 12.85 9.75 Q12.85 10.35 13.8 11.45 L14.65 12.5 14.65 12.6 M9.3 19.7 L9.4 19.4 9.3 19.4 9.3 19.35 9.4 19.35 9.8 19.9 9.9 20.45 9.6 20.95 9.6 20.9 9.55 20.95 9.1 21.0 9.05 20.7 9.3 19.7 M16.6 17.3 L17.1 17.1 17.2 17.05 17.25 17.0 17.3 17.05 17.6 17.0 17.65 17.0 17.65 17.05 17.65 17.15 17.65 17.2 17.6 17.45 17.6 17.65 17.95 18.55 18.0 18.7 18.2 19.15 18.0 19.15 Q17.6 19.0 17.3 19.15 L17.1 19.25 16.85 19.6 16.8 19.65 Q16.7 19.25 16.15 19.25 15.8 19.25 15.5 19.55 L15.25 19.95 14.95 19.15 14.85 18.8 14.85 18.7 14.8 18.6 14.8 18.35 14.8 18.15 14.85 17.65 14.9 17.55 15.25 17.55 15.6 17.55 15.95 17.45 16.0 17.45 16.05 17.4 16.4 17.35 16.55 17.35 16.6 17.3 M17.05 17.45 L17.05 17.4 17.0 17.5 17.0 17.55 17.05 17.55 17.05 17.45 M14.2 21.0 L14.4 20.8 14.7 21.45 14.75 22.15 14.6 22.2 Q14.3 22.1 14.2 21.5 L14.2 21.0 M17.9 19.5 L18.4 19.7 18.6 20.3 18.75 20.85 18.7 20.85 17.95 21.1 17.2 21.1 17.2 21.0 17.2 20.8 17.15 20.25 17.25 19.95 17.4 19.7 17.9 19.5 M15.55 20.7 L15.55 20.65 15.6 20.3 Q15.7 19.75 16.2 19.75 L16.55 20.55 16.75 21.1 15.95 21.05 15.8 21.0 15.6 20.7 15.55 20.7" fill="#005ab5" fill-rule="evenodd" stroke="none"/>
      <path d="M4.9 18.45 L4.9 18.5 4.85 18.6 4.85 18.5 4.85 18.45 4.9 18.45 M4.9 18.75 L4.95 18.75 4.95 18.95 4.95 19.05 5.0 19.25 5.0 19.35 5.05 19.4 5.05 19.45 4.9 19.65 4.9 19.7 4.85 19.75 4.8 19.75 4.8 19.85 4.75 19.95 4.7 19.9 4.7 19.85 4.65 19.8 3.45 20.5 3.1 20.95 3.1 21.65 Q3.45 22.15 4.5 22.55 L5.25 22.85 5.9 23.05 Q8.9 23.85 13.15 23.85 L20.5 23.05 21.1 22.85 21.9 22.55 22.5 22.25 23.3 21.55 23.3 21.3 23.25 21.3 23.3 21.3 23.2 21.2 23.25 21.15 23.35 21.1 23.7 21.05 23.9 21.05 24.05 20.95 24.1 21.05 24.2 21.2 24.2 21.4 24.2 21.45 24.2 21.5 24.2 21.65 24.25 24.25 24.15 24.55 24.15 24.65 23.6 25.5 Q22.75 26.25 20.7 26.85 L14.3 27.7 12.45 27.7 9.85 27.55 5.7 26.85 Q2.7 26.0 2.3 24.8 L2.3 24.75 2.25 24.55 2.25 24.4 2.25 21.5 2.2 21.1 2.2 20.85 2.25 20.8 Q2.35 20.2 3.05 19.7 3.45 19.35 4.15 19.05 L4.25 19.0 4.8 18.8 4.9 18.75 M18.95 19.05 L18.95 19.0 18.9 18.95 18.75 18.75 18.65 18.35 18.65 18.3 18.7 18.35 18.75 18.3 18.85 18.3 19.2 18.35 19.45 18.35 19.6 18.6 19.65 18.65 19.75 18.8 19.9 19.05 19.95 19.15 20.0 19.25 20.0 19.3 19.8 19.25 19.8 19.2 19.1 19.05 19.1 19.1 19.0 19.1 18.95 19.05 M22.5 22.6 L22.0 22.8 21.65 22.95 21.6 22.95 21.05 23.15 20.55 23.3 Q17.5 24.1 13.15 24.1 L6.4 23.45 5.8 23.3 5.7 23.3 4.6 22.9 4.4 22.8 4.35 22.8 4.3 22.75 3.95 22.6 3.5 22.35 3.1 22.05 3.1 24.45 3.15 24.45 3.55 24.95 4.05 25.3 4.7 25.6 5.6 25.9 5.95 26.0 6.1 26.05 6.15 26.05 6.4 26.1 6.55 26.15 6.6 26.15 9.35 26.6 13.2 26.8 Q17.45 26.8 20.45 26.0 L21.9 25.5 22.5 25.2 23.1 24.7 23.3 24.4 23.35 24.3 23.3 22.0 23.2 22.1 22.5 22.6 M19.9 19.35 L19.9 19.4 19.85 19.35 19.9 19.35" fill="#746303" fill-rule="evenodd" stroke="none"/>
      <path d="M19.2 19.65 L19.15 19.6 19.15 19.55 19.0 19.35 18.85 19.0 18.95 19.05 19.0 19.1 19.1 19.1 19.1 19.05 19.8 19.2 19.8 19.25 20.0 19.3 20.0 19.25 20.15 19.5 20.5 19.95 19.65 19.7 19.2 19.65 M22.35 21.05 L23.1 21.15 23.15 21.15 23.25 21.15 23.2 21.2 23.3 21.3 23.25 21.3 23.3 21.3 23.3 21.55 22.5 22.25 22.7 21.95 22.75 21.9 22.75 21.7 22.55 21.35 22.35 21.05 M22.5 25.2 L22.45 24.7 22.4 24.05 22.45 23.55 22.45 22.95 22.5 22.6 23.2 22.1 23.25 22.2 23.15 23.85 23.2 24.05 23.15 24.55 23.1 24.65 23.1 24.7 22.5 25.2 M19.9 19.35 L19.85 19.35 19.9 19.4 19.9 19.35" fill="#968105" fill-rule="evenodd" stroke="none"/>
      <path d="M15.95 22.1 L16.0 22.0 15.95 21.95 16.2 22.0 16.35 22.0 15.95 22.1 M19.3 21.45 L19.5 21.3 19.6 21.2 19.75 20.8 19.7 20.6 19.65 20.55 19.2 19.65 19.65 19.7 20.5 19.95 Q21.15 20.65 21.9 20.9 L22.35 21.05 22.55 21.35 22.75 21.7 22.75 21.9 22.7 21.95 22.5 22.25 21.9 22.55 21.1 22.85 21.05 22.85 21.1 22.7 Q21.1 22.3 19.9 21.7 L19.85 21.65 19.35 21.45 19.3 21.45 M21.05 23.15 L21.6 22.95 21.65 22.95 22.0 22.8 22.5 22.6 22.45 22.95 22.45 23.55 22.4 24.05 22.45 24.7 22.5 25.2 21.9 25.5 20.45 26.0 Q17.45 26.8 13.2 26.8 L9.35 26.6 10.5 26.55 11.05 26.55 11.15 26.55 13.55 26.45 16.85 26.15 17.5 26.0 19.55 25.6 19.85 25.5 21.0 24.85 21.0 24.3 21.0 24.25 21.0 24.15 21.05 23.15 M23.2 22.1 L23.3 22.0 23.35 24.3 23.3 24.4 23.1 24.7 23.1 24.65 23.15 24.55 23.2 24.05 23.15 23.85 23.25 22.2 23.2 22.1 M19.65 21.9 L19.7 21.9 19.8 22.0 19.65 21.9" fill="#c5a807" fill-rule="evenodd" stroke="none"/>
      <path d="M6.0 21.85 L6.5 21.9 8.35 21.95 8.45 21.9 8.8 21.9 9.3 21.8 9.15 22.1 Q9.15 22.55 10.1 22.85 L11.5 23.2 12.6 23.25 13.45 23.25 14.25 23.1 14.3 23.1 Q15.95 22.8 15.95 22.2 L15.95 22.1 16.35 22.0 16.6 22.0 18.35 21.85 18.95 21.65 Q19.15 21.5 19.3 21.45 L19.35 21.45 19.85 21.65 19.9 21.7 Q21.1 22.3 21.1 22.7 L21.05 22.85 21.1 22.85 20.5 23.05 13.15 23.85 Q8.9 23.85 5.9 23.05 L5.25 22.85 4.5 22.55 Q3.45 22.15 3.1 21.65 L3.1 20.95 3.45 20.5 4.65 19.8 4.7 19.85 Q3.75 20.3 3.55 20.7 L3.45 20.9 Q3.45 21.55 4.55 22.1 L5.4 22.45 8.35 23.15 9.95 23.35 11.95 23.45 11.95 23.5 12.0 23.5 12.0 23.45 12.05 23.45 12.55 23.5 12.75 23.45 12.85 23.4 8.4 22.7 6.1 21.9 6.0 21.85 M21.05 23.15 L21.0 24.15 21.0 24.25 21.0 24.3 21.0 24.85 19.85 25.5 19.55 25.6 17.5 26.0 16.85 26.15 13.55 26.45 11.15 26.55 11.05 26.55 10.5 26.55 9.35 26.6 6.6 26.15 6.55 26.15 6.4 26.1 6.45 26.0 6.4 24.65 6.35 23.85 6.35 23.8 6.35 23.7 6.4 23.45 13.15 24.1 Q17.5 24.1 20.55 23.3 L21.05 23.15 M3.5 22.35 L3.45 22.45 3.45 22.5 3.4 22.6 3.5 24.25 3.55 24.95 3.15 24.45 3.1 24.45 3.1 22.05 3.5 22.35 M19.65 21.9 L19.8 22.0 19.7 21.9 19.65 21.9 M6.1 26.05 L6.1 26.0 6.15 26.05 6.1 26.05" fill="#f8dd45" fill-rule="evenodd" stroke="none"/>
      <path d="M4.7 19.9 L4.55 20.1 4.3 21.0 Q4.3 21.35 5.0 21.6 L6.0 21.85 6.1 21.9 8.4 22.7 12.85 23.4 12.75 23.45 12.55 23.5 12.05 23.45 12.0 23.45 12.0 23.5 11.95 23.5 11.95 23.45 9.95 23.35 8.35 23.15 5.4 22.45 4.55 22.1 Q3.45 21.55 3.45 20.9 L3.55 20.7 Q3.75 20.3 4.7 19.85 L4.7 19.9 M6.4 23.45 L6.35 23.7 6.35 23.8 6.35 23.85 6.4 24.65 6.45 26.0 6.4 26.1 6.15 26.05 6.1 26.0 6.1 26.05 5.95 26.0 5.6 25.9 4.7 25.6 4.75 25.35 4.75 25.25 4.8 24.75 4.7 23.7 4.6 22.95 4.6 22.9 5.7 23.3 5.8 23.3 6.4 23.45 M4.25 20.55 L4.35 20.4 3.95 20.35 Q3.6 20.65 3.6 20.8 L3.95 21.35 4.35 21.7 Q5.15 22.45 5.9 22.45 L6.05 22.45 6.05 22.3 5.1 21.85 Q4.2 21.35 4.2 20.7 L4.25 20.55 M4.35 22.8 L4.3 22.8 4.3 22.75 4.35 22.8 M3.95 22.6 L3.85 22.8 3.85 23.25 3.9 24.55 3.9 24.65 Q3.9 25.05 4.05 25.3 L3.55 24.95 3.5 24.25 3.4 22.6 3.45 22.5 3.45 22.45 3.5 22.35 3.95 22.6" fill="#fdf3bf" fill-rule="evenodd" stroke="none"/>
      <path d="M4.25 20.55 L4.2 20.7 Q4.2 21.35 5.1 21.85 L6.05 22.3 6.05 22.45 5.9 22.45 Q5.15 22.45 4.35 21.7 L3.95 21.35 3.6 20.8 Q3.6 20.65 3.95 20.35 L4.35 20.4 4.25 20.55 M4.3 22.75 L4.3 22.8 4.35 22.8 4.4 22.8 4.6 22.9 4.6 22.95 4.7 23.7 4.8 24.75 4.75 25.25 4.75 25.35 4.7 25.6 4.05 25.3 Q3.9 25.05 3.9 24.65 L3.9 24.55 3.85 23.25 3.85 22.8 3.95 22.6 4.3 22.75" fill="#fefbeb" fill-rule="evenodd" stroke="none"/>
    </g>
  </defs>
</svg>
