<?xml version="1.0" encoding="UTF-8" standalone="no"?>
<svg xmlns:ffdec="https://www.free-decompiler.com/flash" xmlns:xlink="http://www.w3.org/1999/xlink" ffdec:objectType="frame" height="680.15px" width="154.9px" xmlns="http://www.w3.org/2000/svg">
  <g transform="matrix(1.0, 0.0, 0.0, 1.0, 0.0, 0.0)">
    <use ffdec:characterId="1490" height="680.15" transform="matrix(1.0, 0.0, 0.0, 1.0, 0.0, 0.0)" width="154.9" xlink:href="#shape0"/>
  </g>
  <defs>
    <g id="shape0" transform="matrix(1.0, 0.0, 0.0, 1.0, 0.0, 0.0)">
      <path d="M128.3 118.45 Q128.0 114.85 127.5 112.5 L127.5 65.25 Q126.55 55.4 126.0 32.65 125.45 11.6 124.0 0.0 L124.75 0.0 Q126.7 12.2 127.6 32.65 128.65 56.95 129.5 65.25 L129.5 112.5 129.8 117.65 130.0 122.15 Q130.55 135.4 130.75 156.35 130.75 161.35 128.9 183.95 127.9 195.9 127.45 205.85 L127.75 205.75 Q128.0 207.1 129.75 213.25 L131.6 219.75 132.45 222.65 136.75 237.4 Q144.5 263.9 144.5 267.25 144.5 270.15 143.25 274.45 L142.05 278.0 139.4 285.35 137.5 290.5 137.5 313.75 137.5 316.75 137.5 317.5 137.5 340.0 Q138.0 340.75 138.0 342.25 L137.0 342.5 136.95 342.25 137.0 345.35 136.55 357.85 135.5 375.75 135.3 376.2 134.5 377.0 134.45 375.3 Q133.65 393.25 138.05 426.15 L139.55 437.35 140.05 441.1 141.9 455.45 142.85 464.85 Q143.75 475.2 143.75 483.25 143.75 500.8 142.2 513.25 L141.75 516.7 142.75 517.1 142.6 517.9 Q143.35 518.1 143.5 518.35 L142.7 518.8 142.45 518.9 Q142.05 521.6 141.8 525.45 L141.25 534.35 140.5 534.85 Q139.5 532.7 139.3 528.1 137.1 535.35 133.75 538.1 L133.75 555.35 134.0 555.6 154.9 537.5 154.9 542.45 140.45 554.05 134.25 558.8 134.25 559.25 Q134.25 560.8 133.9 560.6 L133.5 560.1 132.8 559.85 131.75 560.6 131.4 561.0 Q131.0 561.05 131.0 559.5 L131.0 559.25 130.55 559.1 130.45 559.05 129.7 558.8 128.5 558.85 Q127.65 558.85 123.9 557.0 120.3 555.25 114.75 555.6 L113.75 554.65 113.75 556.6 113.2 566.35 112.5 579.85 111.65 580.3 Q112.0 581.95 112.0 584.35 112.0 587.05 110.15 590.9 L103.75 602.35 Q99.85 609.25 97.5 611.55 90.5 618.6 79.5 618.6 L76.8 618.55 Q67.45 626.45 44.05 644.1 L25.65 658.15 Q23.55 660.15 21.3 661.55 L21.2 661.6 Q19.9 665.25 17.05 668.5 12.05 674.15 3.0 677.6 L2.65 677.25 2.25 676.85 Q5.6 670.85 13.2 665.15 21.7 658.75 22.0 658.35 L22.0 658.45 Q24.7 655.75 34.7 648.2 L39.2 644.85 52.5 635.35 55.6 632.85 66.6 623.2 Q71.05 619.25 74.25 617.65 L74.25 616.5 Q74.25 612.5 78.6 603.2 82.9 593.95 85.5 592.1 L96.15 591.8 98.7 591.85 100.75 591.85 102.05 591.55 Q104.0 590.55 106.3 586.7 109.1 581.95 109.5 578.35 L110.2 578.35 111.0 578.35 111.4 579.3 111.1 575.1 110.8 564.45 110.55 552.7 110.25 552.6 110.25 550.6 110.45 550.55 110.25 548.35 110.25 541.8 110.25 510.1 Q109.55 504.5 109.35 494.45 L109.25 483.75 Q109.25 478.95 112.05 463.95 114.85 448.65 120.55 422.7 128.45 387.0 132.75 369.75 L133.75 369.75 134.25 370.75 134.3 370.75 Q132.55 327.15 128.0 291.2 124.0 259.65 124.0 222.35 124.0 205.35 124.3 201.35 L127.0 174.0 Q127.95 164.15 128.3 145.05 L128.5 128.45 128.5 126.0 128.3 118.45 M127.6 210.1 L127.3 208.9 127.25 210.2 127.0 222.0 Q127.0 231.55 127.3 241.15 L127.45 244.85 127.85 253.8 Q131.2 256.25 135.55 259.9 L142.5 266.2 Q142.3 263.25 135.15 238.25 129.4 218.2 127.6 210.1 M127.95 255.7 Q128.7 268.65 129.95 281.8 L133.75 284.25 136.75 286.65 140.15 277.3 Q142.15 271.75 142.45 267.75 L135.5 261.95 Q131.15 258.2 127.95 255.7 M130.2 284.1 L132.0 299.95 133.3 309.9 133.4 310.5 135.45 325.85 135.55 326.45 135.5 315.1 135.5 290.0 136.15 288.35 132.5 286.0 130.2 284.1 M132.15 384.1 L125.6 413.05 123.15 423.85 Q118.3 445.95 115.5 460.1 L115.0 462.65 113.85 468.85 Q111.75 480.25 111.75 483.75 111.75 500.35 112.75 508.6 L112.75 547.6 113.3 549.85 Q115.55 549.7 118.5 550.55 L119.9 550.95 123.45 552.35 131.05 556.3 Q131.15 546.15 132.25 539.95 L132.25 539.7 132.25 539.65 132.65 537.45 Q133.25 534.6 134.7 531.4 L134.75 531.25 136.25 528.15 Q138.25 524.45 139.3 520.5 L139.35 519.5 138.5 519.6 131.5 519.6 130.0 518.6 128.0 516.85 138.5 517.1 139.45 517.25 139.5 516.35 140.2 516.35 Q141.5 508.1 141.5 493.5 141.5 482.4 140.8 471.5 139.75 455.8 137.25 440.5 135.25 428.25 134.05 417.6 132.25 401.55 132.25 389.1 L132.4 386.55 132.8 381.25 132.15 384.1 M91.75 486.1 L92.0 486.85 92.0 525.85 Q94.55 537.4 95.0 541.8 L95.25 554.75 Q95.25 561.2 93.25 573.55 91.0 587.0 90.75 591.85 89.6 591.3 89.2 590.45 88.75 589.6 88.75 587.75 L91.4 566.75 Q94.0 545.4 94.0 542.75 94.0 541.05 92.5 533.25 L91.0 525.85 91.0 486.1 91.75 486.1 M77.7 613.05 L77.25 615.35 76.75 615.85 Q89.8 614.4 96.5 607.45 100.5 603.3 102.25 596.85 101.95 596.65 102.0 596.05 102.0 595.55 101.35 595.3 L86.75 594.85 85.85 595.65 Q80.2 600.85 77.7 613.05" fill="#716143" fill-rule="evenodd" stroke="none"/>
      <path d="M128.3 118.45 L128.5 126.0 128.5 128.45 123.45 129.3 121.45 131.3 Q120.45 131.3 119.65 131.7 103.8 139.35 88.45 147.3 87.15 186.2 83.4 222.3 81.55 181.05 84.4 141.3 L85.35 141.1 108.2 129.1 Q106.2 90.15 112.95 55.55 L113.0 55.4 Q114.25 68.5 112.3 90.3 110.65 109.05 111.95 127.15 L128.3 118.45 M112.05 463.95 Q109.25 478.95 109.25 483.75 L109.35 494.45 Q108.15 507.7 108.9 522.45 109.35 532.15 110.25 541.8 L110.25 548.35 110.45 550.55 110.25 550.6 110.25 552.6 110.55 552.7 110.8 564.45 111.1 575.1 110.2 578.35 109.5 578.35 Q109.1 581.95 106.3 586.7 104.0 590.55 102.05 591.55 L98.7 591.85 96.15 591.8 85.5 592.1 Q82.9 593.95 78.6 603.2 74.25 612.5 74.25 616.5 L74.25 617.65 Q71.05 619.25 66.6 623.2 L55.6 632.85 41.4 641.4 Q40.65 643.3 39.2 644.85 L34.7 648.2 Q24.7 655.75 22.0 658.45 L22.0 658.35 Q21.7 658.75 13.2 665.15 5.6 670.85 2.25 676.85 L2.65 677.25 2.05 677.95 0.0 680.15 0.05 662.4 0.6 532.25 0.6 415.7 5.4 424.35 Q4.3 415.25 7.4 412.35 9.45 421.3 10.85 430.3 12.1 438.35 14.4 445.35 15.4 445.85 15.65 446.6 17.65 452.95 23.4 453.35 26.25 446.95 30.4 440.35 L34.4 441.35 35.4 441.35 Q37.9 441.1 38.4 438.35 L39.5 437.95 Q51.35 455.45 71.4 454.35 L72.25 452.3 Q75.6 442.55 78.4 446.35 84.75 430.2 85.45 411.35 90.9 440.5 104.45 465.35 L105.45 465.35 Q110.05 465.55 112.05 463.95 M154.9 537.5 L134.0 555.6 133.75 555.35 133.75 538.1 Q137.1 535.35 139.3 528.1 139.5 532.7 140.5 534.85 L141.25 534.35 141.8 525.45 Q142.05 521.6 142.45 518.9 L142.7 518.8 143.5 518.35 Q143.35 518.1 142.6 517.9 L142.75 517.1 141.75 516.7 142.2 513.25 Q143.75 500.8 143.75 483.25 143.75 475.2 142.85 464.85 142.85 451.0 140.05 441.1 L139.55 437.35 146.0 443.8 Q148.4 446.3 153.45 445.35 L154.9 441.0 154.9 537.5 M130.0 122.15 L129.8 117.65 130.45 117.3 130.0 122.15 M115.0 462.65 L115.45 463.35 113.85 468.85 115.0 462.65 M132.25 539.65 L132.45 534.4 134.75 531.25 134.7 531.4 Q133.25 534.6 132.65 537.45 L132.25 539.65 M91.75 486.1 L91.0 486.1 91.0 525.85 92.5 533.25 Q94.0 541.05 94.0 542.75 94.0 545.4 91.4 566.75 L88.75 587.75 Q88.75 589.6 89.2 590.45 89.6 591.3 90.75 591.85 91.0 587.0 93.25 573.55 95.25 561.2 95.25 554.75 L95.0 541.8 Q94.55 537.4 92.0 525.85 L92.0 486.85 91.75 486.1 M85.85 595.65 Q83.0 601.45 80.8 606.95 79.55 610.1 77.7 613.05 80.2 600.85 85.85 595.65" fill="#9e885f" fill-rule="evenodd" stroke="none"/>
      <path d="M130.45 559.05 L130.55 559.1 130.5 559.1 130.45 559.05 M137.5 317.5 L137.5 316.75 137.55 316.9 137.7 317.4 137.5 317.5 M137.5 313.75 L137.5 290.5 139.4 285.35 Q138.25 289.45 138.25 292.0 L138.1 304.75 137.5 313.75 M143.25 274.45 Q144.5 270.15 144.5 267.25 144.5 263.9 136.75 237.4 L132.45 222.65 Q135.4 229.6 138.7 240.75 142.55 253.8 145.25 266.5 145.25 268.65 143.25 274.45 M131.6 219.75 L129.75 213.25 Q130.8 215.6 131.35 218.35 L131.6 219.75 M127.25 210.2 L127.6 210.1 Q129.4 218.2 135.15 238.25 142.3 263.25 142.5 266.2 L135.55 259.9 Q131.2 256.25 127.85 253.8 L127.45 244.85 127.5 244.1 127.3 241.15 Q127.0 231.55 127.0 222.0 L127.25 210.2 M130.2 284.1 L132.5 286.0 136.15 288.35 135.5 290.0 135.5 315.1 135.55 326.45 135.45 325.85 133.4 310.5 133.3 309.9 132.0 299.95 130.2 284.1 M127.95 255.7 Q131.15 258.2 135.5 261.95 L142.45 267.75 Q142.15 271.75 140.15 277.3 L136.75 286.65 133.75 284.25 129.95 281.8 Q128.7 268.65 127.95 255.7 M132.15 384.1 L132.4 386.55 132.25 389.1 Q132.25 401.55 134.05 417.6 L134.2 422.35 137.1 442.75 Q139.45 459.8 140.8 471.5 141.5 482.4 141.5 493.5 141.5 508.1 140.2 516.35 L139.5 516.35 139.45 517.25 138.5 517.1 128.0 516.85 130.0 518.6 131.5 519.6 138.5 519.6 139.35 519.5 139.3 520.5 Q138.25 524.45 136.25 528.15 L134.75 531.25 132.45 534.4 132.25 539.65 132.25 539.7 132.25 539.95 Q131.15 546.15 131.05 556.3 L123.45 552.35 119.9 550.95 118.5 550.35 118.5 550.55 Q115.55 549.7 113.3 549.85 L112.75 547.6 112.75 508.6 Q111.75 500.35 111.75 483.75 111.75 480.25 113.85 468.85 L115.45 463.35 115.0 462.65 115.5 460.1 120.3 438.35 125.6 413.05 132.15 384.1 M122.6 547.6 Q122.25 546.95 122.0 545.6 L121.15 546.4 122.75 547.85 122.6 547.6" fill="#8b7854" fill-rule="evenodd" stroke="none"/>
      <path d="M122.6 547.6 L122.75 547.85 121.15 546.4 122.0 545.6 Q122.25 546.95 122.6 547.6" fill="#ac996d" fill-rule="evenodd" stroke="none"/>
      <path d="M140.45 554.05 L154.9 542.45 154.9 556.6 140.45 554.05" fill="#96815a" fill-rule="evenodd" stroke="none"/>
    </g>
  </defs>
</svg>
