<?xml version="1.0" encoding="UTF-8" standalone="no"?>
<svg xmlns:ffdec="https://www.free-decompiler.com/flash" xmlns:xlink="http://www.w3.org/1999/xlink" ffdec:objectType="frame" height="453.25px" width="399.7px" xmlns="http://www.w3.org/2000/svg">
  <g transform="matrix(1.0, 0.0, 0.0, 1.0, 453.25, 241.5)">
    <use ffdec:characterId="1161" height="39.05" transform="matrix(7.0, 0.0, 0.0, 7.0, -146.3, -155.4)" width="13.25" xlink:href="#shape0"/>
    <use ffdec:characterId="1162" height="59.9" transform="matrix(7.0, 0.0, 0.0, 7.0, -287.7, -235.55)" width="20.65" xlink:href="#shape1"/>
  </g>
  <defs>
    <g id="shape0" transform="matrix(1.0, 0.0, 0.0, 1.0, 20.9, 22.2)">
      <path d="M-11.45 -20.6 Q-11.65 -21.05 -11.95 -21.35 -12.4 -21.9 -12.9 -21.9 L-12.95 -21.95 Q-14.35 -21.75 -15.45 -19.85 L-16.25 -18.3 Q-16.75 -17.4 -17.05 -17.0 L-16.55 -18.3 Q-16.2 -19.15 -15.85 -19.75 -15.2 -20.8 -14.35 -21.45 -13.55 -22.0 -13.2 -22.1 L-13.15 -22.1 -13.15 -22.2 Q-12.6 -22.25 -12.0 -21.9 -11.5 -21.6 -11.15 -21.1 -9.95 -19.2 -9.35 -17.1 -8.7 -14.85 -8.35 -12.6 -8.0 -10.5 -7.85 -8.35 -7.6 -6.05 -7.65 -3.7 -7.65 -1.45 -7.8 0.8 -7.95 3.05 -8.25 5.25 -8.55 7.7 -9.15 10.1 -9.6 11.9 -10.4 13.55 L-10.5 13.95 Q-11.05 15.65 -12.55 16.7 L-13.55 16.85 Q-13.95 16.75 -14.35 16.55 L-14.4 16.55 Q-15.55 15.75 -16.65 13.05 -17.55 10.8 -17.9 8.6 L-18.15 7.0 -18.05 6.95 Q-17.55 10.1 -17.0 11.85 -16.3 13.85 -15.05 15.5 L-14.65 15.55 -14.55 15.6 Q-14.05 15.55 -13.55 15.15 -13.25 14.95 -13.05 14.7 L-12.9 14.5 Q-12.15 13.85 -11.55 12.25 -11.1 10.7 -10.85 8.95 -10.7 7.8 -10.6 5.05 -10.5 2.65 -10.25 1.2 -10.05 -0.4 -9.5 -1.8 -9.45 -3.65 -9.05 -4.95 L-8.95 -5.25 -9.0 -6.0 -9.0 -7.6 Q-9.05 -8.4 -9.15 -9.3 L-9.25 -10.15 -9.65 -11.65 Q-10.1 -13.65 -10.25 -14.1 L-10.95 -16.45 -11.5 -17.55 Q-11.85 -18.15 -12.3 -18.6 -12.1 -18.65 -11.9 -18.5 L-12.0 -18.75 -11.75 -18.3 -11.55 -18.05 Q-10.55 -16.55 -9.85 -14.4 -9.2 -12.55 -8.8 -10.4 -8.75 -10.95 -8.85 -11.5 L-9.0 -12.2 -9.0 -12.65 Q-9.2 -13.85 -9.5 -14.85 L-9.55 -15.15 Q-9.85 -17.05 -10.7 -19.0 -11.0 -19.8 -11.35 -20.3 L-11.45 -20.6 M-17.9 -13.15 Q-17.85 -13.0 -18.05 -11.1 L-18.25 -8.5 -18.4 -6.2 Q-18.2 -6.55 -17.9 -6.85 -18.2 -6.05 -18.2 -5.0 L-18.1 -3.85 Q-18.05 -3.2 -18.05 -2.8 -18.1 -2.2 -18.1 -0.4 L-18.05 0.75 -18.15 0.7 -18.15 0.6 Q-18.3 0.25 -18.45 -0.4 L-18.35 0.8 -18.1 5.35 -18.2 5.3 -18.35 4.45 -18.4 4.15 -18.5 3.7 Q-18.95 0.8 -18.8 -3.55 L-18.8 -4.0 -18.75 -4.85 Q-18.55 -8.9 -18.0 -13.25 L-17.9 -13.3 -17.9 -13.15 M-16.15 -18.0 L-16.2 -18.1 Q-16.05 -18.25 -15.85 -18.6 L-15.4 -19.1 -14.9 -19.2 -14.85 -19.2 -14.8 -19.15 Q-15.5 -18.9 -15.85 -18.5 -16.05 -18.15 -16.15 -18.0 M-10.15 -14.6 L-10.3 -14.9 -10.2 -14.65 -10.15 -14.6" fill="#b1ffff" fill-opacity="0.5019608" fill-rule="evenodd" stroke="none"/>
      <path d="M-13.75 -0.85 L-13.55 -1.9 -13.55 -1.95 -13.5 -1.9 -13.5 -2.4 -13.4 -2.4 Q-13.45 -1.95 -13.55 0.7 -13.65 2.55 -13.95 3.8 -14.45 5.85 -14.7 6.8 L-14.7 7.0 -14.75 7.0 Q-15.3 8.7 -16.2 10.0 L-16.5 10.25 Q-16.8 10.4 -17.15 10.5 -17.4 10.4 -17.7 10.1 -18.0 9.9 -18.2 9.85 L-18.1 9.8 -17.6 10.15 Q-17.4 10.2 -17.25 10.3 L-16.8 10.25 Q-15.75 9.55 -14.95 7.05 L-15.0 7.05 -14.9 6.95 -14.7 6.2 -14.7 6.0 Q-14.7 5.15 -14.6 4.85 -14.55 4.45 -14.55 3.75 L-14.55 2.6 Q-14.55 2.05 -14.4 1.45 -14.3 0.75 -14.0 0.3 -13.9 -0.1 -13.75 -0.85 M-20.7 -7.55 L-20.65 -7.6 Q-20.75 -5.55 -20.75 -3.95 L-20.7 -4.2 -20.7 -3.05 -20.75 -3.85 -20.75 -2.9 Q-20.8 -0.3 -20.55 1.7 L-20.6 1.75 -20.7 1.3 Q-20.95 -0.25 -20.9 -3.2 -20.85 -5.2 -20.7 -7.55 M-16.75 -15.75 Q-16.75 -15.8 -16.55 -15.85 -15.95 -15.55 -15.55 -14.8 L-15.2 -14.1 -15.3 -14.35 Q-15.15 -14.25 -14.95 -13.65 L-14.95 -13.6 Q-14.75 -13.05 -14.5 -12.05 -14.05 -10.1 -13.85 -8.95 -13.7 -8.15 -13.7 -7.75 L-13.75 -7.8 Q-13.9 -8.95 -14.35 -11.1 -14.5 -11.8 -14.75 -12.75 L-15.1 -13.7 Q-15.3 -14.05 -15.6 -14.7 -15.95 -15.3 -16.5 -15.7 L-16.75 -15.75" fill="#d4ffff" fill-rule="evenodd" stroke="none"/>
    </g>
    <g id="shape1" transform="matrix(1.0, 0.0, 0.0, 1.0, 41.1, 33.65)">
      <path d="M-33.45 23.5 L-33.4 23.35 Q-33.4 23.25 -33.3 23.5 L-33.6 24.3 Q-33.2 23.6 -32.95 23.3 L-32.8 23.25 -32.65 23.6 Q-33.3 25.1 -33.9 25.85 L-34.05 25.85 -34.05 26.05 -34.15 26.1 -34.35 26.25 -34.35 26.15 -34.3 26.05 -34.35 25.75 Q-34.4 25.45 -34.15 24.65 -33.85 23.75 -33.45 23.5 M-34.55 6.0 Q-34.5 6.1 -34.5 6.4 -34.4 6.75 -34.7 7.25 -34.95 7.75 -35.45 8.15 L-35.75 8.05 -35.8 8.15 -35.8 7.95 -35.85 7.8 -35.4 6.75 Q-35.05 6.05 -34.6 5.95 L-34.55 6.0 M-20.6 17.6 L-20.6 17.55 -20.5 17.55 -20.55 17.75 -20.45 18.2 Q-20.4 18.65 -20.5 19.65 -20.65 20.7 -20.85 21.1 L-20.95 21.25 Q-21.05 21.35 -21.1 21.05 L-21.1 21.0 -21.2 20.7 Q-21.3 20.25 -21.1 19.65 L-21.05 19.35 -20.85 17.65 -20.6 17.6 M-20.7 16.05 L-20.7 15.95 -20.55 15.95 Q-20.55 16.1 -20.7 16.4 L-20.6 16.8 -20.75 16.85 -20.8 16.65 -20.95 16.85 -20.85 16.5 -20.9 16.0 -20.75 15.95 -20.7 16.05 M-39.6 -22.05 L-39.6 -22.1 Q-39.55 -22.05 -39.5 -21.75 -39.45 -21.65 -39.5 -21.55 L-39.35 -21.5 -39.5 -21.5 -39.5 -21.45 -39.55 -21.5 -39.65 -21.5 -39.8 -21.4 -40.7 -21.25 Q-40.85 -21.25 -41.0 -21.4 -41.1 -21.5 -41.1 -21.6 L-41.05 -21.8 Q-40.8 -21.95 -39.9 -22.05 L-39.6 -22.05 M-26.6 -17.55 Q-26.25 -17.45 -26.2 -17.25 -26.15 -16.95 -26.15 -16.9 L-26.2 -16.9 Q-26.25 -16.8 -26.3 -16.75 -26.35 -16.7 -26.65 -16.65 L-27.1 -16.65 -27.2 -16.7 Q-27.25 -16.75 -27.3 -17.0 L-27.3 -17.35 -27.25 -17.4 Q-27.0 -17.65 -26.6 -17.55 M-33.3 -21.65 Q-33.2 -21.65 -33.1 -21.6 L-32.85 -21.3 -32.9 -21.15 -32.85 -21.15 -33.15 -21.05 -33.2 -21.1 Q-33.2 -21.05 -33.25 -21.05 L-33.55 -21.0 Q-33.7 -21.05 -33.8 -21.15 L-33.95 -21.6 -33.8 -21.9 Q-33.6 -21.85 -33.4 -21.7 L-33.3 -21.65" fill="#ffffff" fill-rule="evenodd" stroke="none"/>
      <path d="M-21.0 -32.15 Q-20.95 -31.75 -21.15 -31.5 L-21.35 -33.6 -21.25 -33.65 Q-21.15 -33.45 -21.05 -32.9 -20.95 -32.3 -21.0 -32.15" fill="#ffffff" fill-opacity="0.8" fill-rule="evenodd" stroke="none"/>
    </g>
  </defs>
</svg>
