<?xml version="1.0" encoding="UTF-8" standalone="no"?>
<svg xmlns:ffdec="https://www.free-decompiler.com/flash" xmlns:xlink="http://www.w3.org/1999/xlink" ffdec:objectType="frame" height="1245.0px" width="2685.0px" xmlns="http://www.w3.org/2000/svg">
  <g transform="matrix(1.0, 0.0, 0.0, 1.0, -77.5, 602.5)">
    <use ffdec:characterId="1041" height="1245.0" transform="matrix(1.0, 0.0, 0.0, 1.0, 77.5, -602.5)" width="2685.0" xlink:href="#shape0"/>
    <use ffdec:characterId="1043" height="225.0" id="am_DoorLocal_F" transform="matrix(1.0, 0.0, 0.0, 1.0, 217.5, -302.5)" width="5.0" xlink:href="#sprite0"/>
  </g>
  <defs>
    <g id="shape0" transform="matrix(1.0, 0.0, 0.0, 1.0, -77.5, 602.5)">
      <path d="M1840.0 120.0 L1680.0 -20.0 1040.0 -20.0 520.0 20.0 180.0 -120.0 80.0 -120.0 M2760.0 -560.0 L2080.0 -540.0 1660.0 -580.0 1080.0 -580.0 420.0 -520.0 420.0 -240.0 360.0 -240.0 180.0 -320.0 180.0 -120.0 M1840.0 120.0 L2040.0 300.0 2380.0 480.0 2620.0 500.0 2760.0 500.0" fill="none" stroke="#00ffff" stroke-linecap="round" stroke-linejoin="round" stroke-width="5.0"/>
      <path d="M80.0 -120.0 L80.0 40.0 80.0 260.0 M80.0 -120.0 L80.0 -600.0" fill="none" stroke="#ffff00" stroke-linecap="round" stroke-linejoin="round" stroke-width="5.0"/>
      <path d="M1680.0 -20.0 L1860.0 -20.0 2140.0 60.0 2220.0 60.0 2260.0 80.0 M2240.0 -320.0 L2260.0 -340.0 2580.0 -280.0 2760.0 -200.0" fill="none" stroke="#ff0000" stroke-linecap="round" stroke-linejoin="round" stroke-width="5.0"/>
      <path d="M80.0 260.0 L1760.0 260.0 2220.0 560.0 2420.0 640.0 2760.0 640.0" fill="none" stroke="#666666" stroke-linecap="round" stroke-linejoin="round" stroke-width="5.0"/>
      <path d="M80.0 40.0 L1480.0 40.0 1700.0 120.0 1840.0 120.0 2760.0 120.0" fill="none" stroke="#00ff00" stroke-linecap="round" stroke-linejoin="round" stroke-width="5.0"/>
    </g>
    <g id="sprite0" transform="matrix(1.0, 0.0, 0.0, 1.0, 2.5, 282.5)">
      <use ffdec:characterId="1042" height="225.0" transform="matrix(1.0, 0.0, 0.0, 1.0, -2.5, -282.5)" width="5.0" xlink:href="#shape1"/>
    </g>
    <g id="shape1" transform="matrix(1.0, 0.0, 0.0, 1.0, 2.5, 282.5)">
      <path d="M0.0 -60.0 L0.0 -280.0" fill="none" stroke="#ffffff" stroke-linecap="round" stroke-linejoin="round" stroke-width="5.0"/>
    </g>
  </defs>
</svg>
