<?xml version="1.0" encoding="UTF-8" standalone="no"?>
<svg xmlns:ffdec="https://www.free-decompiler.com/flash" xmlns:xlink="http://www.w3.org/1999/xlink" ffdec:objectType="frame" height="472.85px" width="665.7px" xmlns="http://www.w3.org/2000/svg">
  <g transform="matrix(1.0, 0.0, 0.0, 1.0, 337.05, 458.85)">
    <use ffdec:characterId="1662" height="52.1" transform="matrix(7.0, 0.0, 0.0, 7.0, -331.45, -370.3)" width="93.7" xlink:href="#shape0"/>
  </g>
  <defs>
    <g id="shape0" transform="matrix(1.0, 0.0, 0.0, 1.0, 47.35, 52.9)">
      <path d="M24.6 -43.95 L25.3 -43.3 Q25.8 -42.85 25.8 -42.7 25.85 -42.4 25.5 -41.65 25.2 -40.9 25.15 -40.8 L25.1 -40.7 25.0 -40.65 Q24.7 -40.65 24.55 -41.3 24.45 -41.75 24.25 -41.85 L24.05 -41.85 Q23.9 -41.85 23.85 -41.9 L23.75 -41.85 Q23.65 -41.8 23.65 -41.75 L23.65 -41.65 23.6 -41.6 23.4 -41.55 23.35 -41.55 23.05 -41.5 23.1 -41.5 22.7 -41.45 22.7 -41.4 22.85 -40.75 22.85 -40.65 Q22.8 -40.5 22.7 -40.45 L22.6 -40.45 Q21.85 -40.65 21.6 -41.0 21.4 -41.2 21.3 -41.7 21.2 -42.3 21.6 -43.1 L22.55 -44.65 22.6 -44.7 22.65 -44.7 Q23.05 -44.7 23.7 -44.45 24.4 -44.2 24.6 -43.95 M24.25 -37.45 Q24.6 -37.85 26.85 -37.25 L26.95 -37.15 Q26.95 -36.85 26.9 -36.4 L26.85 -35.75 Q26.85 -35.6 27.0 -35.15 27.15 -34.6 27.15 -34.45 27.15 -33.85 27.1 -33.75 26.95 -33.3 26.25 -33.0 L26.15 -33.0 26.05 -33.05 Q25.95 -33.2 26.0 -33.4 L26.0 -33.5 Q25.6 -33.2 25.25 -32.65 24.9 -32.0 24.9 -31.55 L24.9 -30.85 Q24.9 -30.4 24.95 -30.15 25.0 -29.85 25.25 -29.4 L25.65 -28.7 25.65 -28.55 25.7 -28.45 Q25.75 -28.1 25.65 -27.85 L26.3 -27.85 Q26.6 -27.65 27.4 -26.75 28.15 -25.85 28.15 -25.75 28.15 -25.5 27.75 -24.4 L27.35 -23.25 27.3 -23.2 27.0 -23.2 26.95 -23.25 Q26.85 -23.35 26.9 -23.55 L26.95 -23.75 26.85 -23.8 26.5 -23.8 Q26.1 -23.75 25.75 -22.6 25.45 -21.65 25.45 -21.0 25.45 -20.7 25.75 -20.2 26.15 -19.55 26.15 -19.25 26.15 -19.05 26.0 -18.6 25.9 -18.2 25.9 -18.05 25.9 -17.7 25.5 -17.25 25.1 -16.8 25.05 -16.65 L24.95 -16.55 Q23.85 -16.4 23.4 -16.1 L23.2 -15.75 22.95 -15.35 23.05 -15.35 23.15 -15.3 23.2 -15.25 Q23.3 -14.6 23.3 -13.75 23.3 -13.05 22.4 -12.0 L21.1 -10.45 Q20.9 -10.2 20.85 -9.65 20.8 -9.15 20.5 -8.85 L19.75 -8.05 19.7 -8.05 19.25 -7.7 19.2 -7.45 Q19.15 -7.0 18.9 -6.75 L18.3 -6.2 17.8 -5.8 Q17.8 -5.75 17.75 -5.75 L17.55 -5.75 Q17.4 -5.65 17.35 -5.9 L17.3 -6.1 Q17.3 -6.25 17.55 -6.75 17.75 -7.15 17.75 -7.25 17.75 -7.4 17.7 -7.45 L17.4 -7.7 Q15.65 -7.15 15.0 -6.8 L15.05 -6.8 Q14.15 -6.35 14.05 -5.75 14.05 -5.3 12.9 -4.35 L11.45 -3.1 11.35 -3.05 11.3 -3.1 Q11.25 -3.1 11.25 -3.15 11.15 -3.35 11.15 -3.9 11.05 -4.25 10.6 -4.45 10.3 -4.45 10.2 -4.45 L9.85 -4.35 8.65 -4.45 7.05 -4.7 Q7.0 -4.7 6.95 -4.75 6.3 -5.55 5.8 -6.05 5.05 -6.75 4.15 -7.05 L3.9 -7.1 3.6 -7.0 2.55 -6.75 Q1.4 -6.4 0.9 -5.6 L0.85 -5.55 0.7 -5.55 Q0.4 -5.75 -0.2 -6.45 L-1.05 -7.45 -1.35 -7.55 -1.4 -7.55 Q-1.7 -7.6 -1.8 -7.65 -2.35 -7.65 -2.6 -7.45 -2.75 -7.05 -2.95 -7.0 L-3.05 -7.0 Q-3.3 -7.1 -3.75 -7.55 -4.2 -8.05 -4.2 -8.1 -4.2 -8.15 -3.8 -8.85 L-3.5 -9.45 Q-3.5 -9.95 -4.55 -11.05 L-4.5 -11.05 Q-5.15 -11.75 -6.05 -12.55 -7.65 -12.2 -8.4 -11.6 -9.15 -11.1 -9.2 -10.35 -9.15 -10.2 -8.75 -9.4 L-8.3 -8.5 -8.35 -8.1 -8.35 -7.9 Q-8.35 -7.85 -8.4 -7.8 -8.45 -7.75 -8.5 -7.75 L-8.55 -7.75 -8.6 -7.65 -8.75 -7.65 Q-9.55 -7.85 -10.1 -7.65 L-10.6 -7.4 -10.65 -7.4 Q-11.0 -7.25 -11.4 -7.15 -11.55 -6.95 -11.55 -6.65 -11.6 -6.2 -11.75 -6.1 -11.8 -6.05 -11.85 -6.05 L-12.2 -6.15 -12.65 -6.25 -12.7 -6.25 -12.75 -6.3 -13.35 -7.3 -13.35 -7.35 Q-13.95 -8.05 -14.7 -8.05 -16.45 -8.05 -17.05 -7.3 -17.25 -7.1 -17.3 -6.8 L-17.25 -6.6 -17.25 -6.5 -17.2 -6.45 -17.2 -6.35 -17.25 -6.3 -17.35 -6.15 -17.4 -6.1 -17.65 -5.9 -17.75 -5.9 Q-18.2 -6.05 -18.75 -6.4 -19.15 -6.7 -19.35 -6.95 -19.9 -7.0 -20.25 -7.65 -20.65 -8.3 -21.2 -8.5 L-21.75 -8.45 -21.8 -8.45 Q-21.75 -8.35 -21.75 -8.3 L-21.75 -8.25 Q-21.75 -8.05 -22.15 -8.05 -23.0 -8.05 -23.6 -10.1 -23.75 -10.7 -23.9 -11.3 -24.15 -11.6 -24.25 -12.15 L-24.4 -13.05 Q-24.9 -13.85 -25.35 -14.35 -25.55 -14.55 -26.05 -14.85 L-26.05 -14.9 Q-26.5 -15.25 -26.55 -15.9 -26.6 -16.1 -26.7 -16.6 L-26.75 -16.9 -26.8 -16.9 -26.95 -17.3 -27.05 -17.4 -27.15 -17.6 -27.15 -17.8 -27.2 -18.0 -27.15 -18.2 Q-27.1 -18.4 -27.0 -18.55 -26.85 -18.9 -26.3 -19.0 L-26.25 -19.0 Q-26.05 -19.0 -25.75 -18.85 L-25.65 -18.8 -25.55 -19.3 -25.55 -19.35 Q-25.9 -19.95 -26.75 -21.0 L-27.7 -22.2 -27.75 -22.3 Q-27.75 -22.4 -27.5 -22.95 L-27.2 -23.55 Q-27.15 -23.55 -27.1 -23.55 L-26.35 -23.55 Q-26.3 -23.6 -26.3 -23.75 -26.35 -23.85 -26.5 -24.0 -26.65 -24.1 -26.85 -24.15 L-26.9 -24.2 -27.0 -24.2 Q-27.05 -24.25 -27.05 -24.55 -27.05 -24.75 -26.9 -25.4 -26.75 -26.0 -26.75 -26.15 -26.75 -26.85 -26.8 -26.95 -26.9 -27.35 -27.35 -27.8 L-27.65 -27.75 -27.95 -27.35 -28.15 -26.95 -28.2 -26.9 Q-28.25 -26.85 -28.3 -26.85 L-28.35 -26.9 Q-28.65 -27.05 -28.95 -27.65 -29.25 -28.2 -29.25 -28.25 -29.25 -28.45 -29.05 -28.8 -28.95 -29.05 -28.95 -29.25 -28.95 -29.45 -29.0 -29.65 L-29.2 -30.1 -29.2 -30.15 -29.15 -30.25 -28.7 -30.65 -28.7 -30.6 -28.35 -30.9 -28.25 -30.95 Q-27.95 -30.9 -27.85 -30.8 L-27.4 -30.85 -27.0 -31.25 -27.0 -31.3 Q-26.65 -31.6 -26.4 -31.6 -26.35 -31.6 -26.3 -31.55 L-25.65 -31.5 -25.55 -31.5 Q-25.3 -31.55 -25.15 -30.95 L-25.1 -30.75 -24.85 -31.35 Q-24.5 -32.2 -24.5 -32.55 -24.5 -32.75 -24.55 -32.95 L-24.6 -33.05 -24.65 -33.05 Q-24.7 -33.05 -24.75 -33.1 L-24.8 -33.15 -25.1 -33.0 -25.2 -33.05 Q-25.3 -33.05 -25.3 -33.4 -25.3 -33.6 -25.1 -33.9 -25.0 -34.1 -25.0 -34.25 -25.0 -34.65 -24.4 -35.5 L-23.95 -36.2 -24.0 -36.2 -24.6 -36.25 -25.3 -36.3 Q-25.55 -36.1 -25.65 -35.9 L-25.7 -35.85 -25.9 -35.7 -26.1 -35.5 -26.2 -35.5 -26.3 -35.55 -26.3 -35.65 Q-26.25 -36.1 -26.25 -36.25 L-26.25 -36.7 Q-26.25 -37.2 -26.3 -37.5 L-26.35 -37.6 -26.35 -37.65 -26.3 -38.1 Q-26.2 -38.45 -26.05 -38.65 L-25.1 -39.7 Q-24.15 -40.7 -24.0 -40.7 -23.7 -40.7 -23.35 -40.45 L-23.05 -40.25 -22.7 -40.1 Q-22.4 -40.05 -22.3 -39.95 L-22.2 -39.85 Q-22.15 -39.15 -22.05 -38.8 -21.0 -39.15 -20.45 -40.3 -20.0 -41.2 -20.0 -42.2 -20.0 -43.0 -20.45 -43.95 L-20.5 -43.9 Q-20.65 -43.7 -20.7 -43.75 L-20.75 -43.75 -20.85 -43.8 -20.9 -43.8 Q-21.05 -43.85 -21.1 -44.0 L-21.1 -44.25 -21.15 -44.3 Q-21.25 -44.4 -21.25 -44.7 -21.25 -44.85 -21.05 -45.3 -20.95 -45.65 -20.95 -46.3 -20.9 -46.75 -20.4 -47.2 -20.1 -47.45 -19.65 -47.65 -18.6 -48.1 -17.95 -48.8 -17.1 -49.65 -16.85 -49.6 L-16.8 -49.55 -16.35 -49.5 Q-15.95 -49.5 -15.3 -49.65 L-15.25 -49.65 -15.2 -49.6 Q-14.85 -49.3 -14.2 -48.25 -13.6 -47.25 -13.6 -47.2 -13.6 -47.0 -13.7 -46.75 L-13.9 -46.5 -13.05 -46.85 -13.05 -47.0 -12.95 -47.05 Q-12.8 -47.1 -12.5 -47.3 L-12.2 -47.5 Q-12.25 -47.6 -12.55 -48.15 L-12.95 -48.85 Q-12.95 -49.2 -11.45 -51.1 L-11.4 -51.15 -11.3 -51.15 Q-10.65 -51.05 -9.55 -51.45 L-8.6 -51.85 Q-8.4 -52.05 -8.2 -52.0 L-8.15 -52.0 Q-7.75 -51.85 -7.2 -51.75 L-7.15 -51.7 Q-7.0 -51.6 -6.8 -51.15 L-6.55 -50.55 Q-5.8 -50.6 -5.4 -50.8 L-4.45 -51.25 -3.9 -51.75 Q-3.5 -52.1 -3.45 -52.05 L-3.0 -52.0 -2.25 -51.9 -2.15 -51.85 -2.1 -51.8 Q-1.8 -51.2 -1.8 -50.7 L-1.8 -50.45 -1.85 -50.35 Q-1.9 -50.3 -2.0 -50.35 L-2.3 -50.3 -2.4 -50.25 -2.45 -50.1 Q-2.4 -49.95 -2.15 -49.7 L-2.2 -49.7 -1.85 -49.35 Q-1.65 -49.25 -1.35 -49.25 -0.1 -49.25 0.3 -49.6 L0.55 -49.85 0.7 -50.05 0.7 -50.1 0.75 -50.15 Q0.85 -50.35 1.1 -50.4 1.1 -50.5 1.1 -50.65 L1.0 -50.65 0.95 -50.55 0.85 -50.55 Q0.8 -50.55 0.75 -50.55 0.6 -50.7 0.45 -50.95 L0.4 -51.2 0.2 -51.1 Q0.15 -51.1 0.1 -51.15 L0.05 -51.25 0.1 -51.3 0.3 -51.6 0.3 -51.65 Q0.75 -52.25 1.4 -52.6 2.5 -53.25 3.55 -52.45 L3.6 -52.4 3.85 -52.0 Q3.85 -51.9 3.8 -51.75 4.0 -51.65 4.35 -51.5 L5.25 -51.1 Q5.5 -51.15 5.7 -51.25 5.95 -51.35 6.15 -51.35 6.6 -51.35 7.15 -51.0 L8.1 -50.3 Q8.55 -50.0 8.6 -49.5 L8.65 -48.85 8.7 -48.8 Q8.7 -48.65 8.5 -48.5 L8.45 -48.5 Q8.4 -48.5 8.35 -48.5 L8.35 -48.55 8.15 -48.4 8.15 -48.3 8.1 -48.25 Q8.1 -48.05 8.15 -48.0 L8.15 -47.95 8.25 -47.85 8.5 -47.8 8.55 -47.75 Q8.75 -47.6 8.75 -47.2 8.75 -46.9 8.8 -46.8 9.0 -46.45 10.75 -46.65 L10.8 -46.65 10.85 -46.6 Q11.15 -46.3 11.2 -46.0 11.3 -45.75 11.6 -45.45 L12.95 -45.45 13.05 -45.4 13.05 -45.3 13.2 -45.15 Q13.95 -44.95 14.25 -44.75 14.6 -44.55 14.8 -43.85 14.95 -43.6 15.55 -43.25 16.35 -42.8 16.55 -42.6 L17.05 -42.6 Q17.35 -42.65 17.4 -42.85 L17.45 -43.25 17.45 -43.35 17.55 -43.4 17.65 -43.35 Q18.45 -42.95 18.35 -42.6 L18.3 -42.55 Q18.1 -42.3 18.1 -42.1 18.1 -41.75 18.55 -41.35 L19.25 -40.6 19.8 -41.15 19.85 -41.15 20.8 -41.1 20.9 -41.05 Q21.9 -40.05 21.85 -39.9 21.85 -39.65 21.6 -39.3 21.45 -39.05 21.45 -38.9 21.45 -38.7 21.7 -37.85 L21.9 -37.2 22.25 -37.2 Q22.7 -37.25 22.8 -37.3 L22.85 -37.3 Q23.15 -37.3 23.45 -37.1 23.65 -36.95 23.8 -36.95 24.0 -36.95 24.1 -37.1 L24.1 -37.05 24.25 -37.4 24.25 -37.45 M15.45 -50.15 L15.55 -50.15 Q16.15 -50.0 16.9 -49.25 L17.15 -49.05 17.15 -48.9 Q17.05 -48.6 17.05 -48.35 17.1 -47.85 17.9 -46.15 L18.1 -45.7 18.1 -45.65 Q18.1 -44.9 18.2 -44.2 L18.2 -44.1 18.15 -44.05 18.05 -44.05 Q18.0 -44.05 17.95 -44.1 17.8 -44.4 17.5 -44.65 L17.15 -44.85 17.1 -44.9 Q17.0 -45.15 16.8 -45.4 16.45 -45.85 15.9 -46.1 15.35 -46.4 15.0 -46.3 14.7 -46.25 14.7 -45.95 14.7 -45.8 14.75 -45.7 L14.75 -45.65 14.7 -45.55 14.65 -45.5 14.1 -45.2 14.0 -45.2 Q13.9 -45.2 13.9 -45.25 13.75 -45.35 13.6 -46.25 13.45 -47.05 13.45 -47.25 13.45 -47.55 13.6 -47.75 13.7 -47.9 13.85 -47.9 L13.95 -48.05 13.85 -48.4 13.8 -48.75 13.8 -48.8 13.9 -48.9 14.8 -49.75 Q14.85 -49.8 15.45 -50.15 M2.85 -49.55 L3.75 -49.6 4.35 -49.6 4.45 -49.5 4.6 -49.4 4.75 -49.25 5.8 -49.1 6.25 -49.1 Q6.05 -49.2 5.65 -49.35 L5.7 -49.35 Q5.0 -49.65 4.75 -49.75 L3.05 -49.75 2.8 -49.6 2.85 -49.55 M9.65 -4.1 L9.7 -4.1 10.5 -3.35 Q11.3 -2.65 11.25 -2.55 11.25 -2.05 10.1 -1.05 L10.0 -1.0 9.95 -1.0 9.9 -1.05 Q9.6 -1.5 9.65 -1.6 L9.4 -1.7 9.35 -1.45 9.2 -1.0 9.15 -0.95 9.1 -0.85 Q9.05 -0.85 9.0 -0.8 L8.9 -0.85 8.85 -0.95 Q8.75 -1.7 8.6 -2.05 8.4 -2.55 7.7 -2.55 L6.7 -2.55 6.5 -2.25 6.4 -2.2 6.3 -2.2 Q6.05 -2.3 5.95 -2.4 5.85 -2.55 5.85 -2.85 5.85 -3.55 6.6 -4.25 6.85 -4.55 7.25 -4.3 L7.9 -3.85 Q8.85 -3.95 9.2 -4.15 L9.3 -4.15 9.65 -4.1 M16.6 -5.65 L16.7 -5.6 16.75 -5.55 16.85 -5.0 Q17.0 -4.65 17.3 -4.45 L17.35 -4.35 17.35 -4.25 Q17.1 -3.85 16.25 -3.2 15.25 -2.45 14.7 -2.45 14.3 -2.45 14.05 -2.8 13.9 -3.05 13.9 -3.3 13.9 -3.45 14.15 -3.75 L14.15 -3.8 14.6 -4.2 14.6 -4.25 14.4 -4.2 Q14.3 -4.2 14.25 -4.25 14.25 -4.3 14.2 -4.35 L14.2 -4.65 Q14.4 -4.85 15.15 -5.25 L15.95 -5.65 16.0 -5.7 16.6 -5.65 M-4.05 -49.6 Q-4.3 -49.6 -4.5 -49.45 L-4.3 -49.5 -4.05 -49.6 M-7.6 -49.5 Q-8.7 -49.65 -9.8 -49.05 -10.75 -48.6 -11.05 -48.0 L-10.45 -48.15 -10.3 -48.15 -10.25 -48.05 -10.2 -47.85 -10.2 -47.8 Q-10.2 -47.75 -10.35 -47.55 -9.8 -47.6 -9.5 -47.8 -9.3 -47.95 -9.1 -48.15 L-9.05 -48.2 -8.4 -48.65 -7.95 -48.95 Q-8.0 -49.05 -7.75 -49.2 L-7.8 -49.2 -7.5 -49.4 -7.6 -49.5 M-8.45 -47.4 L-8.55 -47.4 Q-9.05 -47.3 -9.4 -46.95 -9.8 -46.55 -9.8 -46.0 -9.8 -45.75 -9.7 -45.6 L-9.65 -45.55 -8.85 -46.1 -8.7 -46.1 -8.65 -46.05 Q-8.6 -45.85 -8.6 -45.6 L-8.6 -45.45 -8.55 -45.45 -8.45 -45.3 -8.15 -45.3 Q-7.5 -45.5 -7.4 -46.15 L-7.4 -46.25 -7.45 -46.4 Q-7.7 -46.4 -7.85 -46.5 -8.05 -46.6 -7.95 -46.85 L-7.95 -46.9 -7.85 -47.1 -8.0 -47.15 Q-8.35 -47.25 -8.4 -47.35 L-8.45 -47.4 M-18.8 -44.95 L-19.05 -44.5 -19.2 -44.1 Q-19.2 -43.9 -18.95 -43.45 L-18.65 -42.9 -17.6 -43.55 -16.3 -44.35 -15.95 -44.6 Q-15.7 -44.8 -15.7 -45.05 -15.7 -45.55 -15.55 -45.95 -16.15 -46.2 -16.9 -45.75 L-17.7 -45.3 -17.75 -45.25 Q-18.25 -45.0 -18.8 -44.95 M-5.65 -42.25 Q-6.55 -41.8 -7.35 -40.9 -7.75 -40.45 -8.0 -40.05 L-8.05 -39.75 -8.15 -38.85 -8.1 -38.75 -8.1 -38.65 -8.15 -38.6 -8.2 -38.3 Q-8.25 -38.25 -8.25 -38.2 -8.3 -38.2 -8.35 -38.2 L-8.45 -38.2 -8.5 -38.25 -8.55 -37.85 -8.7 -37.15 -8.65 -36.8 -8.65 -36.65 -8.5 -35.85 -8.3 -35.2 -8.15 -35.25 Q-8.1 -35.2 -8.0 -34.9 L-7.75 -34.9 Q-6.7 -35.9 -6.4 -36.25 L-6.35 -36.4 -6.3 -36.45 Q-5.95 -36.65 -5.8 -37.25 L-5.7 -37.55 -5.65 -37.6 -5.55 -37.65 -5.5 -37.65 -5.2 -37.55 -5.15 -37.6 Q-4.9 -37.9 -4.7 -38.3 L-4.6 -38.95 -4.55 -39.2 Q-4.6 -39.95 -4.85 -40.85 -5.1 -41.85 -5.35 -42.2 L-5.65 -42.25 M-6.2 -34.65 L-6.25 -34.55 Q-6.3 -34.55 -6.25 -34.55 L-6.3 -34.45 -6.2 -34.4 -6.2 -34.45 -6.15 -34.5 -6.2 -34.65 M-23.8 -36.65 L-23.8 -36.5 -23.7 -36.65 -23.8 -36.65 M-26.6 -31.35 L-26.7 -31.35 -26.65 -31.3 -26.6 -31.35 M-32.85 -24.0 Q-32.3 -24.2 -31.65 -24.6 L-31.55 -24.65 -31.5 -24.6 -30.65 -23.95 Q-30.15 -23.55 -30.0 -23.1 -29.95 -22.9 -29.85 -22.3 -29.8 -21.8 -29.65 -21.55 L-29.65 -21.45 -29.7 -21.35 -29.75 -21.3 -29.85 -21.25 -29.95 -21.25 Q-30.4 -21.55 -30.65 -22.25 -30.9 -22.75 -31.55 -23.0 -32.1 -22.95 -32.45 -22.8 L-32.85 -22.6 -32.95 -22.6 -33.05 -22.65 -33.05 -22.7 -33.15 -22.75 -33.15 -23.05 Q-33.15 -23.85 -32.85 -24.0 M-31.9 -21.4 L-31.3 -21.45 Q-31.2 -21.5 -30.9 -21.2 L-30.85 -21.15 -30.8 -20.9 -30.75 -20.85 -30.75 -20.8 Q-30.7 -20.65 -31.1 -20.65 -31.35 -20.65 -31.55 -20.75 L-31.95 -21.0 -32.05 -21.1 -32.05 -21.3 -32.0 -21.35 -31.9 -21.4 M-13.55 -5.25 Q-13.5 -5.25 -13.45 -5.2 L-13.3 -4.95 -13.25 -4.85 -12.65 -5.0 -12.2 -5.1 -12.1 -5.15 Q-11.85 -5.1 -11.75 -4.95 L-11.7 -4.9 Q-11.65 -4.65 -11.7 -4.55 -11.75 -4.3 -12.15 -4.25 L-11.95 -3.45 -11.95 -3.35 -12.0 -3.3 -12.1 -3.3 Q-12.25 -3.3 -12.6 -3.15 -12.6 -2.95 -12.5 -2.85 -12.4 -2.8 -12.4 -2.7 -12.35 -2.6 -12.4 -2.55 -12.45 -2.5 -12.5 -2.5 L-12.7 -2.45 -14.25 -2.6 -14.3 -2.65 -15.0 -3.3 Q-15.65 -3.8 -16.25 -3.9 L-16.3 -3.9 -16.35 -3.95 -16.4 -4.05 -16.45 -4.35 Q-16.45 -4.6 -16.2 -4.75 -16.15 -4.8 -16.15 -4.9 L-16.55 -5.7 -16.55 -5.8 -16.45 -5.9 -16.15 -5.9 -15.65 -5.45 Q-15.3 -5.1 -14.95 -4.85 L-14.0 -4.9 Q-13.85 -5.1 -13.65 -5.25 L-13.55 -5.25 M-5.25 -11.65 Q-4.6 -11.2 -4.5 -10.85 -4.45 -10.7 -4.45 -10.15 -4.45 -9.7 -4.5 -9.55 -4.65 -9.1 -5.25 -8.85 L-5.4 -8.85 -5.8 -8.9 -6.2 -8.85 Q-6.3 -8.6 -6.75 -8.5 L-6.85 -8.5 -6.9 -8.6 Q-7.05 -9.0 -7.0 -9.2 L-7.2 -9.45 -7.5 -9.5 -7.6 -9.55 -7.75 -9.7 -7.8 -9.7 Q-7.95 -9.85 -7.95 -10.15 -7.95 -10.5 -7.65 -11.0 -7.3 -11.55 -6.9 -11.65 L-6.85 -11.7 -6.3 -11.65 -6.1 -11.65 -6.05 -11.7 -5.35 -11.7 -5.25 -11.65 M-6.9 -3.6 L-7.45 -3.7 Q-7.65 -3.7 -7.75 -3.45 L-7.85 -3.0 Q-7.9 -2.95 -7.95 -2.9 L-8.05 -2.9 Q-8.75 -3.1 -9.05 -3.5 -9.25 -3.75 -9.25 -4.25 -9.25 -4.95 -8.9 -5.5 -8.45 -6.2 -7.6 -6.4 L-7.55 -6.4 Q-5.35 -6.35 -5.0 -6.05 L-4.65 -5.8 Q-4.3 -5.65 -3.5 -5.55 -3.45 -5.55 -3.4 -5.5 L-3.35 -5.4 -3.2 -4.7 -3.0 -3.8 -3.0 -3.75 -3.05 -3.65 -3.3 -3.65 -3.6 -3.7 -4.1 -3.65 Q-4.5 -3.4 -4.85 -2.75 -5.2 -2.15 -6.0 -2.15 L-6.1 -2.15 -6.15 -2.25 -6.15 -2.3 -6.1 -2.4 -5.95 -2.55 Q-5.85 -2.65 -5.85 -2.8 L-5.95 -3.0 -5.95 -2.95 -6.35 -3.45 -6.9 -3.6" fill="#ffffff" fill-opacity="0.5019608" fill-rule="evenodd" stroke="none"/>
      <path d="M25.65 -42.7 Q25.7 -42.4 25.4 -41.7 25.05 -40.95 25.0 -40.8 24.8 -40.8 24.7 -41.35 24.55 -41.9 24.25 -42.0 L24.1 -42.0 Q23.9 -42.0 23.85 -42.05 L23.65 -42.0 Q23.5 -41.85 23.5 -41.75 23.45 -41.7 23.35 -41.7 L23.05 -41.65 22.65 -41.55 22.55 -41.55 Q22.6 -41.0 22.7 -40.7 L22.65 -40.55 Q21.95 -40.8 21.7 -41.1 21.5 -41.3 21.45 -41.7 21.35 -42.25 21.75 -43.05 L22.65 -44.55 Q23.0 -44.55 23.65 -44.3 24.3 -44.05 24.5 -43.85 24.65 -43.7 25.2 -43.2 25.65 -42.8 25.65 -42.7 M24.2 -37.0 L24.4 -37.35 Q24.7 -37.7 26.8 -37.1 26.85 -36.85 26.8 -36.4 L26.7 -35.75 Q26.7 -35.6 26.85 -35.1 27.0 -34.6 27.0 -34.45 27.0 -33.9 26.95 -33.8 26.8 -33.4 26.2 -33.15 26.1 -33.25 26.15 -33.35 26.15 -33.55 26.25 -33.7 L26.25 -33.8 Q25.6 -33.5 25.15 -32.7 24.75 -32.05 24.75 -31.55 L24.75 -30.85 Q24.75 -30.4 24.8 -30.15 24.85 -29.8 25.15 -29.35 L25.55 -28.65 25.5 -28.6 25.55 -28.4 Q25.65 -28.0 25.45 -27.75 L25.45 -27.7 26.2 -27.7 Q26.5 -27.55 27.3 -26.65 28.0 -25.85 28.0 -25.75 28.0 -25.5 27.65 -24.45 27.3 -23.45 27.25 -23.35 L27.05 -23.3 Q27.0 -23.4 27.05 -23.55 27.05 -23.65 27.15 -23.75 L26.9 -23.95 26.5 -23.95 Q26.0 -23.9 25.6 -22.65 25.3 -21.65 25.3 -21.0 25.3 -20.7 25.65 -20.1 26.0 -19.55 26.0 -19.25 26.0 -19.05 25.9 -18.65 25.75 -18.25 25.75 -18.05 25.75 -17.75 25.4 -17.35 25.0 -16.85 24.95 -16.7 23.75 -16.55 23.3 -16.15 L23.1 -15.8 Q22.85 -15.45 22.7 -15.3 L23.05 -15.2 Q23.15 -14.55 23.15 -13.75 23.15 -13.05 22.3 -12.1 L20.95 -10.55 Q20.75 -10.25 20.7 -9.7 20.7 -9.2 20.4 -8.95 L19.65 -8.15 19.15 -7.8 19.1 -7.45 Q19.0 -7.05 18.8 -6.85 L18.2 -6.35 17.7 -5.9 17.5 -5.85 Q17.45 -5.85 17.45 -6.1 17.45 -6.25 17.7 -6.7 17.9 -7.1 17.9 -7.25 17.9 -7.45 17.8 -7.55 17.6 -7.7 17.45 -7.85 15.65 -7.3 14.95 -6.95 14.0 -6.45 13.95 -5.8 13.9 -5.35 12.8 -4.45 L11.35 -3.2 Q11.3 -3.4 11.3 -3.9 11.2 -4.35 10.65 -4.55 10.3 -4.6 10.15 -4.55 L9.85 -4.5 8.65 -4.6 7.05 -4.8 Q6.4 -5.65 5.9 -6.15 5.1 -6.85 4.2 -7.15 L3.9 -7.25 3.6 -7.15 2.5 -6.9 Q1.3 -6.55 0.8 -5.7 0.5 -5.85 -0.05 -6.55 L-1.0 -7.6 -1.35 -7.65 Q-1.7 -7.75 -1.75 -7.8 -2.45 -7.8 -2.7 -7.55 -2.85 -7.2 -3.0 -7.15 -3.2 -7.2 -3.65 -7.65 -4.05 -8.05 -4.05 -8.1 L-3.7 -8.8 -3.35 -9.45 Q-3.35 -10.0 -4.4 -11.15 -5.1 -11.9 -6.0 -12.7 -7.7 -12.3 -8.5 -11.75 -9.3 -11.15 -9.3 -10.35 -9.3 -10.15 -8.9 -9.3 L-8.45 -8.5 -8.5 -8.15 -8.5 -7.9 -8.65 -7.85 -8.7 -7.8 Q-9.55 -8.0 -10.15 -7.8 L-10.7 -7.55 Q-11.05 -7.35 -11.45 -7.3 -11.7 -7.05 -11.7 -6.65 -11.75 -6.3 -11.85 -6.2 L-12.15 -6.3 -12.65 -6.4 -13.25 -7.4 Q-13.9 -8.2 -14.7 -8.2 -16.55 -8.2 -17.2 -7.4 -17.4 -7.15 -17.4 -6.8 L-17.4 -6.6 Q-17.4 -6.5 -17.35 -6.45 L-17.35 -6.35 Q-17.4 -6.3 -17.45 -6.25 L-17.45 -6.2 -17.7 -6.05 Q-18.15 -6.2 -18.65 -6.55 -19.1 -6.85 -19.25 -7.05 -19.8 -7.1 -20.1 -7.7 -20.55 -8.45 -21.2 -8.65 L-21.85 -8.6 Q-21.95 -8.5 -21.95 -8.4 L-21.9 -8.3 Q-21.9 -8.2 -22.15 -8.2 -22.9 -8.2 -23.45 -10.15 -23.65 -10.75 -23.75 -11.35 -24.0 -11.65 -24.1 -12.15 L-24.3 -13.1 Q-24.75 -13.95 -25.25 -14.45 L-25.95 -15.0 Q-26.35 -15.35 -26.45 -15.95 -26.45 -16.15 -26.55 -16.65 L-26.65 -16.95 Q-26.7 -17.2 -26.85 -17.5 L-26.95 -17.45 -27.0 -17.65 -27.0 -17.8 -27.05 -18.0 Q-27.05 -18.1 -27.0 -18.15 -26.95 -18.35 -26.9 -18.5 -26.75 -18.75 -26.3 -18.85 L-25.55 -18.6 -25.5 -18.65 Q-25.5 -18.95 -25.4 -19.25 L-25.35 -19.35 Q-25.75 -19.95 -26.65 -21.1 L-27.6 -22.3 Q-27.6 -22.4 -27.4 -22.9 L-27.1 -23.45 -26.35 -23.4 -26.25 -23.45 Q-26.2 -23.5 -26.2 -23.75 -26.2 -23.95 -26.4 -24.1 -26.6 -24.25 -26.8 -24.3 -26.85 -24.35 -26.9 -24.3 L-26.9 -24.55 Q-26.9 -24.75 -26.75 -25.35 -26.6 -26.0 -26.6 -26.15 -26.6 -26.85 -26.65 -27.0 -26.75 -27.45 -27.3 -27.95 L-27.7 -27.9 Q-27.85 -27.8 -28.05 -27.4 L-28.3 -27.0 Q-28.55 -27.15 -28.85 -27.75 -29.1 -28.2 -29.1 -28.25 -29.1 -28.45 -28.95 -28.75 -28.8 -29.05 -28.8 -29.25 -28.8 -29.45 -28.85 -29.7 L-29.05 -30.15 -28.65 -30.5 -28.3 -30.8 Q-28.0 -30.75 -27.85 -30.65 L-27.35 -30.7 -26.9 -31.15 Q-26.6 -31.45 -26.4 -31.45 L-26.6 -31.2 -26.5 -31.25 -26.5 -31.3 -26.35 -31.35 -26.3 -31.45 -25.7 -31.35 -25.55 -31.35 Q-25.4 -31.35 -25.3 -30.9 -25.2 -30.55 -25.2 -30.4 -25.05 -30.5 -24.7 -31.3 -24.35 -32.2 -24.35 -32.55 -24.35 -32.8 -24.45 -33.0 L-24.5 -33.15 -24.65 -33.2 -24.8 -33.35 Q-24.9 -33.25 -25.05 -33.2 L-25.1 -33.15 Q-25.15 -33.15 -25.15 -33.4 -25.15 -33.55 -25.0 -33.8 -24.85 -34.05 -24.85 -34.25 -24.85 -34.6 -24.3 -35.45 -23.65 -36.35 -23.55 -36.7 L-23.45 -36.8 Q-23.95 -36.8 -23.95 -36.65 -23.95 -36.4 -24.0 -36.3 L-24.6 -36.4 -25.3 -36.45 Q-25.65 -36.25 -25.8 -36.0 L-26.0 -35.8 -26.15 -35.6 Q-26.1 -36.1 -26.1 -36.25 L-26.1 -36.7 Q-26.1 -37.2 -26.2 -37.55 L-26.2 -37.6 -26.15 -38.05 Q-26.1 -38.35 -25.95 -38.55 L-25.0 -39.6 Q-24.15 -40.55 -24.0 -40.55 -23.75 -40.55 -23.4 -40.3 L-23.15 -40.1 -22.75 -40.0 Q-22.5 -39.9 -22.35 -39.8 -22.3 -38.95 -22.15 -38.6 -20.9 -38.95 -20.3 -40.25 -19.85 -41.2 -19.85 -42.2 -19.85 -43.1 -20.4 -44.15 -20.5 -44.1 -20.6 -44.0 L-20.7 -43.9 -20.85 -43.9 -20.95 -44.05 -20.95 -44.35 -21.05 -44.4 Q-21.1 -44.45 -21.1 -44.7 -21.1 -44.85 -20.95 -45.25 -20.8 -45.6 -20.8 -46.3 -20.75 -46.7 -20.35 -47.1 -20.0 -47.35 -19.55 -47.55 -18.55 -47.95 -17.85 -48.7 -17.1 -49.45 -16.85 -49.45 L-16.4 -49.35 Q-15.95 -49.35 -15.3 -49.5 -14.95 -49.2 -14.3 -48.2 -13.75 -47.25 -13.75 -47.2 -13.75 -47.0 -13.85 -46.85 -13.95 -46.55 -14.2 -46.45 L-14.0 -46.3 Q-13.4 -46.6 -12.85 -46.8 L-12.95 -46.9 Q-12.75 -46.95 -12.4 -47.2 -12.05 -47.4 -12.05 -47.5 -12.05 -47.65 -12.45 -48.25 L-12.8 -48.85 Q-12.8 -49.2 -11.35 -51.05 -10.65 -50.9 -9.5 -51.3 L-8.5 -51.7 Q-8.35 -51.9 -8.2 -51.85 L-7.25 -51.6 Q-7.15 -51.5 -6.95 -51.1 L-6.65 -50.45 Q-5.8 -50.45 -5.35 -50.7 L-4.35 -51.15 -3.85 -51.65 -3.45 -51.95 -3.0 -51.85 -2.25 -51.75 Q-1.95 -51.15 -1.95 -50.7 L-1.95 -50.5 -2.0 -50.5 -2.3 -50.45 -2.5 -50.35 Q-2.55 -50.3 -2.55 -50.1 -2.55 -49.95 -2.3 -49.6 L-1.95 -49.25 Q-1.7 -49.1 -1.35 -49.1 -0.05 -49.1 0.4 -49.45 L0.65 -49.8 0.8 -49.95 0.85 -50.1 Q0.95 -50.25 1.3 -50.3 1.2 -50.4 1.2 -50.8 L1.05 -50.8 Q0.9 -50.8 0.85 -50.7 0.7 -50.8 0.6 -51.05 0.55 -51.2 0.5 -51.3 L0.5 -51.45 0.2 -51.25 0.4 -51.55 0.45 -51.6 Q0.85 -52.15 1.45 -52.5 2.5 -53.05 3.45 -52.3 L3.7 -51.95 Q3.7 -51.9 3.6 -51.75 3.75 -51.6 4.25 -51.35 L5.2 -50.95 Q5.5 -51.0 5.75 -51.1 6.0 -51.2 6.15 -51.2 6.55 -51.2 7.05 -50.9 L8.05 -50.2 Q8.4 -49.9 8.45 -49.5 L8.55 -48.8 Q8.55 -48.7 8.45 -48.65 L8.4 -48.75 8.05 -48.5 8.0 -48.35 7.95 -48.35 7.95 -48.25 Q7.95 -48.05 8.05 -47.9 L8.1 -47.7 8.45 -47.65 Q8.6 -47.5 8.6 -47.2 8.6 -46.85 8.65 -46.75 8.85 -46.3 10.75 -46.5 11.0 -46.25 11.1 -45.95 11.15 -45.7 11.55 -45.3 L12.95 -45.3 13.0 -45.2 13.1 -45.05 13.1 -45.0 Q13.85 -44.85 14.15 -44.65 14.45 -44.45 14.7 -43.8 14.8 -43.5 15.5 -43.1 16.35 -42.65 16.5 -42.45 L17.05 -42.45 Q17.45 -42.55 17.5 -42.8 L17.55 -43.25 Q18.25 -42.9 18.2 -42.6 17.95 -42.3 17.95 -42.1 17.95 -41.7 18.45 -41.25 L19.2 -40.35 19.85 -41.0 20.8 -40.95 Q21.7 -40.0 21.7 -39.9 21.7 -39.7 21.5 -39.35 21.3 -39.05 21.3 -38.9 21.3 -38.7 21.55 -37.8 L21.8 -37.05 22.25 -37.1 22.85 -37.2 Q23.1 -37.15 23.4 -37.0 23.6 -36.8 23.8 -36.8 24.1 -36.8 24.2 -37.0 M14.9 -49.65 Q14.95 -49.7 15.5 -50.0 16.1 -49.85 16.8 -49.15 L17.05 -48.95 Q16.95 -48.65 16.95 -48.35 16.95 -47.85 17.75 -46.1 L17.95 -45.65 Q17.95 -44.9 18.1 -44.2 17.9 -44.5 17.6 -44.75 L17.25 -44.95 Q17.1 -45.25 16.9 -45.5 16.55 -45.95 15.95 -46.25 15.4 -46.55 15.0 -46.45 14.55 -46.4 14.55 -45.95 14.55 -45.8 14.6 -45.65 L14.55 -45.65 Q14.2 -45.45 14.0 -45.3 13.9 -45.45 13.75 -46.25 13.6 -47.05 13.6 -47.25 13.6 -47.5 13.7 -47.65 13.8 -47.75 13.9 -47.75 L13.9 -47.65 Q14.05 -47.9 14.05 -48.05 L14.0 -48.45 13.95 -48.75 14.0 -48.8 14.9 -49.65 M3.0 -49.9 Q2.7 -49.7 2.6 -49.6 L2.8 -49.4 3.75 -49.45 4.3 -49.45 4.5 -49.3 4.65 -49.1 Q5.75 -49.05 5.8 -48.95 L6.3 -48.95 6.5 -49.0 Q6.4 -49.2 5.75 -49.5 5.0 -49.8 4.8 -49.9 L3.0 -49.9 M9.65 -3.95 L10.4 -3.25 11.1 -2.55 Q11.1 -2.1 10.0 -1.15 9.75 -1.5 9.8 -1.55 L9.85 -1.7 Q9.55 -1.8 9.35 -1.9 9.3 -1.8 9.2 -1.5 L9.05 -1.05 9.0 -0.95 Q8.85 -1.75 8.75 -2.1 8.5 -2.7 7.7 -2.7 L6.65 -2.7 6.35 -2.3 Q6.15 -2.4 6.1 -2.5 6.0 -2.6 6.0 -2.85 6.0 -3.5 6.7 -4.15 6.9 -4.35 7.2 -4.15 L7.85 -3.7 Q8.9 -3.8 9.3 -4.0 L9.65 -3.95 M16.6 -5.5 L16.75 -5.0 Q16.85 -4.55 17.2 -4.3 16.95 -3.95 16.15 -3.3 15.2 -2.6 14.7 -2.6 14.35 -2.6 14.2 -2.9 14.05 -3.1 14.05 -3.3 14.05 -3.45 14.25 -3.7 L14.7 -4.15 Q14.8 -4.35 14.9 -4.45 L14.35 -4.35 14.3 -4.55 Q14.5 -4.75 15.2 -5.1 L16.0 -5.55 16.6 -5.5 M-4.05 -49.75 Q-4.4 -49.7 -4.7 -49.55 -4.65 -49.45 -4.65 -49.25 -4.55 -49.25 -4.25 -49.4 -3.95 -49.5 -3.55 -49.55 -3.65 -49.8 -4.05 -49.75 M-7.35 -49.5 L-7.5 -49.6 Q-8.65 -49.8 -9.85 -49.2 -10.95 -48.65 -11.2 -47.95 L-11.2 -47.85 -10.4 -48.05 -10.35 -47.8 Q-10.35 -47.75 -10.5 -47.55 L-10.65 -47.45 -10.65 -47.4 Q-9.8 -47.4 -9.4 -47.7 -9.2 -47.85 -9.0 -48.05 -8.85 -48.15 -8.3 -48.55 L-7.8 -48.95 -7.7 -49.1 -7.25 -49.45 -7.35 -49.5 M-7.7 -47.2 L-7.95 -47.3 Q-8.25 -47.35 -8.3 -47.45 L-8.2 -47.5 -8.15 -47.55 -8.55 -47.55 Q-9.1 -47.45 -9.5 -47.05 -9.95 -46.65 -9.95 -46.0 -9.95 -45.7 -9.8 -45.5 L-9.7 -45.35 -8.8 -45.95 Q-8.7 -45.85 -8.75 -45.65 L-8.75 -45.35 -8.7 -45.35 -8.55 -45.2 -8.4 -45.15 -8.15 -45.15 Q-7.35 -45.4 -7.25 -46.15 L-7.25 -46.3 -7.35 -46.55 Q-7.9 -46.55 -7.85 -46.85 -7.8 -46.95 -7.7 -47.15 L-7.7 -47.2 M-19.2 -44.55 L-19.35 -44.1 Q-19.35 -43.9 -19.1 -43.35 L-18.7 -42.7 -17.55 -43.45 -16.25 -44.25 -15.85 -44.5 Q-15.55 -44.75 -15.55 -45.05 -15.55 -45.55 -15.4 -46.0 -16.05 -46.4 -16.95 -45.9 L-17.8 -45.4 Q-18.35 -45.15 -18.85 -45.05 -19.0 -44.95 -19.2 -44.55 M-5.3 -42.35 L-5.7 -42.4 Q-6.6 -41.95 -7.45 -41.0 -7.9 -40.55 -8.15 -40.15 L-8.2 -39.75 -8.3 -38.8 -8.25 -38.7 -8.3 -38.65 -8.35 -38.3 -8.55 -38.45 -8.65 -38.35 -8.7 -37.85 -8.8 -37.2 -8.8 -36.65 -8.4 -34.95 -8.35 -34.95 -8.25 -35.1 Q-8.2 -35.1 -8.15 -34.75 L-7.7 -34.8 Q-6.55 -35.8 -6.3 -36.2 L-6.2 -36.3 Q-5.85 -36.55 -5.65 -37.2 L-5.55 -37.5 -5.4 -37.45 -5.05 -37.45 Q-4.75 -37.8 -4.55 -38.25 L-4.45 -38.95 -4.4 -39.2 Q-4.45 -39.95 -4.7 -40.9 -5.0 -42.0 -5.3 -42.35 M-6.2 -34.55 L-6.25 -34.55 Q-6.35 -34.55 -6.2 -34.55 M-32.95 -22.75 L-33.0 -22.8 -33.0 -23.05 Q-33.0 -23.75 -32.8 -23.85 -32.25 -24.1 -31.55 -24.5 L-30.75 -23.85 Q-30.3 -23.45 -30.15 -23.05 -30.05 -22.85 -30.0 -22.3 -29.95 -21.75 -29.8 -21.45 L-29.85 -21.4 Q-30.25 -21.65 -30.55 -22.3 -30.8 -22.9 -31.55 -23.15 -32.1 -23.1 -32.55 -22.95 L-32.95 -22.75 M-31.3 -21.3 Q-31.2 -21.3 -31.0 -21.1 L-30.95 -20.8 -31.1 -20.8 Q-31.3 -20.8 -31.5 -20.9 L-31.9 -21.1 -31.9 -21.3 -31.3 -21.3 M-17.65 -6.5 L-17.65 -6.5 M-13.3 -4.7 Q-12.95 -4.75 -12.6 -4.85 -12.25 -4.95 -12.15 -5.0 -11.95 -4.95 -11.85 -4.85 -11.8 -4.7 -11.85 -4.6 -11.9 -4.4 -12.3 -4.4 L-12.05 -3.45 Q-12.3 -3.5 -12.75 -3.25 -12.75 -2.95 -12.6 -2.7 L-12.55 -2.65 Q-12.5 -2.6 -12.7 -2.6 L-14.2 -2.75 -14.9 -3.45 Q-15.6 -3.95 -16.2 -4.05 L-16.3 -4.1 -16.3 -4.35 Q-16.3 -4.55 -16.15 -4.6 -16.0 -4.7 -16.0 -4.9 -16.0 -4.95 -16.15 -5.25 L-16.4 -5.75 -16.25 -5.8 -15.75 -5.35 Q-15.4 -4.95 -15.0 -4.7 -14.1 -4.7 -13.9 -4.8 -13.75 -5.0 -13.55 -5.1 L-13.45 -4.9 -13.3 -4.7 M-4.6 -10.8 Q-4.55 -10.65 -4.55 -10.15 -4.55 -9.75 -4.6 -9.6 -4.75 -9.2 -5.3 -9.0 L-5.4 -9.0 -5.8 -9.05 Q-6.3 -9.05 -6.35 -8.9 -6.45 -8.75 -6.8 -8.65 -6.95 -9.05 -6.85 -9.25 L-7.1 -9.55 -7.5 -9.65 -7.7 -9.8 Q-7.8 -9.95 -7.8 -10.15 -7.8 -10.45 -7.5 -10.95 -7.2 -11.4 -6.85 -11.55 L-6.3 -11.5 -6.0 -11.55 -5.35 -11.55 Q-4.75 -11.1 -4.6 -10.8 M-6.85 -3.75 L-7.45 -3.85 Q-7.75 -3.85 -7.9 -3.5 L-8.0 -3.05 Q-8.65 -3.2 -8.9 -3.55 -9.1 -3.8 -9.1 -4.25 -9.1 -4.9 -8.75 -5.45 -8.35 -6.1 -7.55 -6.25 -5.45 -6.2 -5.1 -5.9 -4.85 -5.7 -4.75 -5.65 -4.35 -5.5 -3.5 -5.4 L-3.35 -4.65 -3.15 -3.8 -4.2 -3.8 Q-4.6 -3.55 -5.0 -2.8 -5.25 -2.3 -6.0 -2.3 L-5.85 -2.45 Q-5.7 -2.6 -5.7 -2.8 -5.7 -2.9 -5.85 -3.05 L-6.25 -3.55 -6.85 -3.75" fill="#80ffff" fill-rule="evenodd" stroke="none"/>
      <path d="M17.3 -31.45 L16.65 -31.15 Q15.6 -30.7 15.6 -30.45 15.6 -30.25 15.75 -30.0 15.9 -29.7 15.9 -29.55 15.8 -29.2 15.85 -29.0 15.85 -28.6 16.3 -28.5 L15.7 -27.75 Q15.45 -27.3 15.45 -26.75 15.45 -26.5 15.9 -26.05 16.35 -25.65 16.35 -25.55 16.35 -25.25 15.95 -24.35 15.55 -23.5 15.55 -23.25 15.55 -23.05 15.7 -22.65 15.9 -22.15 16.2 -22.15 L16.45 -22.2 16.55 -22.45 Q16.55 -22.55 16.55 -22.65 17.45 -22.0 18.15 -23.35 18.7 -24.4 18.7 -25.45 L18.65 -25.95 Q18.55 -26.25 18.55 -26.3 18.55 -26.55 18.7 -26.75 L18.7 -26.95 19.05 -27.8 19.2 -28.3 19.2 -28.5 19.25 -28.85 Q19.2 -29.75 18.65 -30.55 18.1 -31.3 17.3 -31.45 M24.5 -34.1 Q24.2 -33.95 23.95 -33.65 23.25 -32.9 23.25 -31.8 23.25 -31.1 23.7 -30.55 L23.85 -30.4 Q23.8 -30.2 23.8 -29.85 23.8 -29.5 24.05 -28.7 24.1 -28.5 24.15 -28.4 L24.15 -28.35 Q24.15 -28.3 24.25 -28.15 L24.35 -27.95 Q24.45 -27.75 24.75 -27.6 L24.95 -27.35 Q25.7 -26.3 25.7 -25.0 25.7 -24.8 25.55 -24.1 L25.45 -23.5 Q25.3 -23.2 25.2 -22.8 24.85 -21.7 24.85 -21.0 24.85 -20.6 25.3 -19.9 25.55 -19.45 25.55 -19.25 25.55 -19.1 25.45 -18.75 25.3 -18.25 25.3 -18.05 25.3 -17.85 25.1 -17.6 L24.65 -17.1 Q23.85 -17.0 23.4 -16.75 L23.4 -16.95 Q23.4 -17.6 23.2 -18.4 L22.8 -19.75 Q22.55 -20.7 21.9 -20.7 21.7 -20.25 21.65 -20.05 L21.4 -19.65 Q21.25 -19.4 21.2 -19.3 L20.7 -18.8 Q20.2 -18.2 19.8 -17.45 19.4 -16.7 19.4 -16.4 19.4 -15.95 19.5 -15.55 L19.15 -15.2 19.2 -15.15 Q19.4 -15.1 19.45 -15.05 L19.35 -14.95 Q19.5 -14.85 19.55 -14.75 19.55 -14.7 19.55 -14.3 19.55 -13.95 19.4 -13.7 19.2 -13.4 18.7 -12.95 18.5 -13.05 18.55 -13.25 L18.65 -13.55 Q18.65 -13.75 18.25 -14.0 L17.95 -14.3 17.05 -14.05 17.05 -14.0 Q17.0 -14.05 17.0 -14.25 L17.2 -14.6 17.45 -15.0 Q17.45 -15.25 17.15 -15.65 L16.9 -15.95 16.3 -16.05 16.15 -16.05 15.05 -16.1 Q15.0 -16.15 14.8 -16.3 14.55 -16.55 14.45 -16.75 L16.35 -16.85 Q16.65 -17.1 16.6 -17.4 L16.55 -18.1 16.25 -18.35 15.95 -18.7 15.3 -18.7 14.65 -18.9 13.7 -19.9 Q12.9 -20.75 12.3 -21.2 11.1 -21.65 10.4 -21.85 L10.25 -21.85 10.2 -20.7 10.15 -20.65 10.3 -20.25 Q10.55 -19.6 10.7 -19.35 10.7 -19.15 10.65 -19.05 10.2 -19.2 9.85 -19.85 9.65 -20.25 9.6 -20.6 L9.55 -20.6 Q9.5 -20.7 9.55 -20.9 L9.55 -21.05 9.6 -21.4 Q9.55 -21.6 9.2 -22.0 8.75 -22.6 8.7 -22.7 L8.75 -22.9 8.6 -23.1 Q8.95 -23.45 9.35 -23.7 9.5 -23.8 9.5 -24.05 9.5 -24.95 9.35 -25.25 9.2 -25.6 8.5 -26.3 8.45 -26.5 7.8 -26.8 7.15 -27.05 6.85 -27.05 L6.65 -26.9 6.85 -26.65 Q6.75 -26.55 6.75 -26.0 7.0 -24.7 7.4 -24.35 7.25 -24.25 7.15 -24.2 6.8 -24.3 6.65 -24.75 L6.5 -25.1 5.7 -25.2 4.6 -25.3 4.35 -25.6 2.6 -25.8 1.55 -26.05 -0.05 -25.65 0.35 -25.2 Q0.1 -25.1 -0.15 -25.1 -0.3 -25.1 -0.6 -25.2 L-1.7 -25.1 Q-1.15 -25.35 -0.8 -25.5 L-0.9 -25.55 -1.35 -25.85 Q-1.95 -26.1 -3.0 -25.6 L-3.2 -25.6 Q-3.3 -25.65 -3.3 -25.85 -3.3 -26.05 -2.4 -26.4 -2.05 -26.55 -1.75 -26.65 L-1.7 -26.65 -1.3 -26.7 Q-1.2 -26.75 -1.15 -26.85 -1.3 -27.25 -1.7 -27.45 -3.35 -27.5 -4.25 -27.2 -4.95 -26.95 -4.95 -26.55 L-5.0 -26.5 Q-5.4 -26.05 -5.4 -25.55 -5.45 -25.3 -5.35 -25.1 -5.25 -24.8 -4.9 -24.7 -5.05 -24.55 -5.3 -24.55 -5.35 -24.55 -5.6 -24.75 L-6.0 -25.05 -6.85 -25.05 -8.9 -24.55 Q-10.05 -24.25 -10.45 -24.0 -10.95 -23.7 -11.55 -23.05 -12.0 -22.5 -12.05 -22.5 L-12.5 -22.55 -13.2 -22.65 -14.0 -23.95 -14.3 -24.4 -14.3 -24.45 Q-14.3 -24.9 -14.8 -25.05 -15.25 -25.2 -15.8 -24.95 -16.85 -24.45 -17.15 -23.05 -17.4 -22.8 -17.65 -22.5 -17.9 -22.15 -18.0 -21.25 -18.05 -20.8 -18.05 -19.95 -18.1 -19.15 -18.05 -18.35 L-17.95 -17.9 Q-18.45 -18.5 -19.1 -18.85 L-19.0 -19.1 -19.5 -20.0 -19.95 -20.95 -19.95 -21.1 Q-19.95 -22.75 -20.2 -23.25 L-20.7 -24.2 Q-21.2 -25.1 -21.7 -26.15 L-22.15 -26.15 -22.6 -25.75 -22.7 -25.65 Q-22.85 -25.55 -23.1 -25.3 -24.0 -24.25 -24.15 -23.85 L-24.15 -22.7 -24.1 -22.1 -24.0 -21.45 Q-23.95 -20.95 -23.75 -20.55 -23.55 -20.15 -23.55 -20.05 L-23.8 -19.55 Q-24.05 -19.15 -24.05 -19.0 -24.05 -18.8 -23.95 -18.65 -23.9 -18.5 -23.95 -18.45 L-25.15 -20.65 Q-26.0 -22.2 -26.0 -22.35 -26.0 -22.6 -25.75 -23.3 -25.75 -23.45 -25.75 -23.6 L-25.75 -23.75 Q-25.7 -24.15 -26.15 -24.45 L-26.45 -24.6 -26.35 -25.25 Q-26.15 -25.95 -26.2 -26.15 L-26.2 -27.0 Q-25.7 -27.65 -25.0 -28.75 -23.25 -31.45 -23.25 -32.45 -23.25 -32.6 -23.4 -32.8 -23.55 -32.95 -23.55 -33.15 -23.55 -34.0 -23.15 -34.65 -22.85 -35.15 -22.15 -35.85 L-20.7 -37.25 Q-19.8 -38.2 -19.05 -39.25 -18.9 -39.45 -18.65 -40.0 -18.3 -40.45 -17.8 -40.75 -17.3 -41.0 -16.65 -41.55 -16.15 -41.95 -15.85 -42.25 L-14.1 -43.95 Q-13.2 -44.85 -12.65 -45.25 -12.5 -44.9 -11.75 -44.75 L-10.1 -44.35 Q-10.2 -44.05 -10.15 -43.8 -9.95 -43.3 -8.95 -43.3 -7.45 -43.3 -6.05 -45.0 -5.55 -45.55 -5.2 -46.2 -4.9 -46.7 -4.9 -46.8 -4.9 -47.1 -5.3 -48.3 -4.75 -48.3 -4.6 -48.2 -4.5 -48.1 -4.5 -47.85 -4.5 -47.65 -4.35 -47.55 -4.1 -47.45 -3.45 -47.45 -3.25 -47.45 -2.8 -47.55 -2.4 -47.7 -2.2 -47.7 -2.05 -47.7 -1.5 -47.55 L-0.8 -47.45 Q0.75 -47.45 1.7 -47.65 L2.65 -47.9 3.25 -47.3 Q3.9 -46.7 4.5 -46.7 L5.4 -46.85 6.3 -46.8 Q6.45 -46.7 6.65 -46.3 6.8 -46.0 7.3 -45.85 L8.3 -45.85 Q8.75 -45.8 9.0 -45.7 9.2 -44.95 10.0 -44.6 10.6 -44.35 12.55 -43.95 12.55 -43.65 12.7 -43.5 L12.7 -43.2 Q12.7 -42.95 12.85 -42.8 13.1 -42.5 13.75 -42.5 13.75 -41.7 14.25 -41.45 14.35 -41.4 15.45 -41.15 15.45 -41.0 15.55 -40.7 15.65 -40.4 15.65 -40.25 L15.65 -39.9 Q15.7 -39.8 15.8 -39.75 16.3 -39.45 16.9 -38.8 17.15 -38.5 17.3 -38.35 17.55 -38.2 17.75 -38.2 L18.0 -38.3 18.2 -38.3 Q18.15 -38.15 18.35 -38.05 18.55 -37.9 18.85 -37.9 L19.0 -37.9 19.05 -37.75 Q19.3 -37.1 19.8 -37.05 19.3 -36.6 20.0 -36.25 20.45 -36.0 20.95 -35.95 L20.95 -35.9 Q21.0 -35.65 21.8 -35.25 22.5 -34.9 22.7 -34.9 22.9 -34.9 23.7 -34.45 24.2 -34.25 24.5 -34.1 M11.55 -18.4 Q12.5 -18.05 12.55 -18.0 13.0 -17.7 13.15 -17.15 13.05 -17.05 12.9 -17.05 L12.6 -17.15 Q12.45 -17.4 12.05 -17.75 11.7 -18.05 11.55 -18.4 M22.6 -14.35 L22.7 -14.45 22.7 -13.75 Q22.7 -13.2 21.95 -12.35 L21.65 -12.0 21.75 -12.4 Q21.95 -13.15 22.3 -13.8 22.55 -14.15 22.6 -14.35 M6.3 -23.75 L5.5 -23.2 Q5.0 -22.9 4.8 -22.7 L4.45 -22.7 4.45 -22.65 Q4.4 -22.65 4.4 -22.85 4.4 -23.1 4.5 -23.25 L4.7 -23.55 Q3.9 -24.25 3.7 -24.35 2.95 -24.75 1.6 -24.9 L1.3 -25.1 Q1.3 -25.15 1.35 -25.2 L1.45 -25.3 2.5 -25.15 5.8 -24.8 6.05 -24.3 Q6.2 -23.85 6.3 -23.75 M1.3 -21.55 L2.7 -21.35 Q4.05 -21.15 4.5 -21.25 4.65 -20.85 4.75 -20.4 4.8 -20.0 4.8 -19.7 4.8 -19.5 4.3 -19.1 3.85 -18.75 3.55 -18.7 3.5 -18.65 3.45 -18.65 3.3 -18.65 3.3 -18.85 3.3 -19.0 3.5 -19.35 3.7 -19.55 3.75 -19.7 L3.7 -19.85 3.45 -20.2 3.05 -20.45 Q2.25 -20.9 2.15 -21.1 1.45 -21.25 1.05 -21.35 L1.05 -21.45 1.2 -21.55 1.3 -21.55 M15.15 -12.8 L15.25 -12.8 Q15.35 -12.9 15.45 -12.9 L15.4 -12.75 15.7 -12.65 Q16.0 -12.55 16.3 -12.55 16.4 -12.5 16.5 -12.35 L16.55 -12.2 16.45 -11.95 15.45 -11.8 14.55 -11.7 Q13.65 -11.6 13.05 -11.05 L13.35 -10.65 Q13.35 -10.55 13.2 -10.5 L12.95 -10.6 12.8 -10.75 Q12.75 -10.8 12.75 -10.85 L12.7 -10.85 Q12.65 -10.85 12.65 -11.1 12.65 -11.15 12.75 -11.25 12.75 -11.45 12.95 -11.65 L13.35 -12.1 13.5 -12.05 14.05 -12.05 Q14.55 -12.3 14.75 -12.3 14.8 -12.5 14.95 -12.65 L15.15 -12.8 M16.75 -9.15 Q16.75 -8.65 16.1 -8.4 15.35 -8.2 15.15 -8.1 14.9 -8.0 14.35 -7.55 L13.7 -7.05 13.5 -7.1 Q13.9 -7.85 14.8 -8.3 15.35 -8.55 16.4 -9.05 L16.4 -9.25 Q16.55 -9.45 16.05 -9.35 L15.45 -9.2 Q15.2 -9.2 15.1 -9.25 15.05 -9.3 14.95 -9.4 L14.95 -9.7 Q16.0 -9.95 16.4 -9.8 16.75 -9.65 16.75 -9.15 M12.7 -6.1 L12.5 -6.15 Q12.3 -6.2 12.25 -6.25 12.4 -6.35 12.6 -6.45 12.85 -6.55 13.05 -6.55 12.85 -6.2 12.7 -6.1 M-8.4 -34.7 L-8.15 -34.8 Q-7.95 -34.85 -8.0 -34.75 L-8.1 -34.65 Q-8.2 -34.5 -8.35 -34.5 L-8.5 -34.5 -8.55 -34.7 Q-8.6 -34.85 -8.4 -34.7 M-19.55 -32.25 Q-19.75 -33.0 -20.0 -33.15 L-20.45 -33.15 Q-20.8 -33.15 -21.25 -32.5 -21.7 -31.8 -21.85 -31.65 -21.85 -30.9 -22.2 -30.55 -22.5 -30.2 -22.5 -30.0 -22.5 -29.8 -22.75 -29.4 -22.95 -29.05 -22.95 -28.7 -23.0 -28.4 -22.95 -28.2 -22.9 -27.75 -22.5 -27.75 -22.25 -27.75 -22.2 -27.85 L-22.1 -28.1 Q-21.6 -28.1 -21.4 -28.45 -21.35 -28.6 -21.3 -28.8 -21.25 -28.95 -20.85 -29.2 -20.45 -29.5 -20.4 -29.55 -19.8 -30.2 -19.6 -30.5 -19.3 -30.95 -19.3 -31.35 -19.3 -31.65 -19.55 -32.25 M-6.15 -43.25 L-6.35 -43.25 Q-6.95 -43.15 -7.8 -42.55 -8.65 -41.9 -9.25 -41.15 -9.55 -40.7 -9.75 -40.3 -10.0 -39.9 -10.0 -39.3 -10.0 -38.65 -9.8 -38.4 -9.65 -38.15 -9.3 -38.05 L-9.35 -37.95 Q-9.45 -37.6 -9.35 -37.05 L-9.15 -36.2 -9.05 -35.7 -8.8 -34.8 Q-8.75 -34.7 -8.65 -34.6 -8.55 -34.55 -8.5 -34.5 L-8.4 -34.4 Q-8.3 -34.3 -8.1 -34.3 L-7.7 -34.35 Q-7.55 -34.35 -7.45 -34.45 L-7.1 -34.75 Q-6.9 -35.05 -6.55 -35.4 -6.25 -35.7 -6.0 -35.9 L-5.95 -35.9 -5.95 -35.95 -5.65 -36.25 -5.15 -36.25 Q-4.65 -36.3 -3.8 -36.85 -2.95 -37.4 -2.95 -37.75 -2.95 -37.95 -3.05 -38.35 L-3.15 -38.95 Q-3.15 -39.4 -2.9 -39.7 -2.65 -39.95 -2.65 -40.1 -2.65 -40.25 -2.7 -40.55 -2.8 -40.75 -2.75 -40.85 L-2.6 -41.25 Q-2.55 -41.5 -2.55 -41.7 -2.55 -41.9 -2.95 -42.35 -3.35 -42.8 -3.55 -42.8 -3.4 -43.05 -3.4 -43.35 -3.45 -43.75 -3.85 -43.85 -5.3 -43.85 -6.15 -43.25 M-26.65 -24.65 L-26.6 -24.6 -26.55 -24.6 -26.65 -24.65 -27.1 -24.7 Q-26.95 -24.8 -26.85 -24.8 -26.7 -24.8 -26.6 -24.65 L-26.75 -24.7 -26.65 -24.65 M-32.55 -23.5 Q-32.1 -23.7 -31.6 -24.0 L-31.05 -23.5 -30.7 -23.2 Q-31.0 -23.4 -31.4 -23.55 L-31.55 -23.55 Q-32.1 -23.55 -32.55 -23.4 L-32.55 -23.5 M-31.35 -20.9 L-31.3 -20.9 -31.35 -20.85 -31.35 -20.9 M-24.85 -16.8 Q-24.85 -16.65 -24.65 -16.25 -24.45 -15.8 -24.45 -15.7 L-24.5 -15.65 Q-24.5 -15.6 -24.55 -15.55 -24.9 -16.0 -25.4 -16.3 -25.55 -16.4 -25.55 -16.85 -25.55 -17.3 -25.35 -17.75 L-25.0 -17.65 -24.4 -17.6 -24.65 -17.25 Q-24.85 -16.9 -24.85 -16.8 M-4.8 -21.5 L-4.15 -22.0 Q-3.6 -22.4 -3.45 -22.45 L-3.05 -22.45 Q-2.7 -22.25 -2.55 -22.1 L-2.55 -22.0 -2.8 -22.0 Q-3.05 -22.05 -3.05 -21.8 -3.05 -21.65 -3.15 -21.65 L-3.6 -21.7 Q-3.75 -21.45 -3.75 -21.25 L-3.75 -21.05 Q-3.75 -20.85 -3.8 -20.85 L-3.85 -20.95 Q-4.25 -21.1 -4.35 -21.25 L-4.8 -21.35 -4.8 -21.5 M-8.7 -24.3 Q-8.4 -24.5 -7.55 -24.55 L-6.1 -24.55 -6.05 -24.5 Q-6.05 -24.4 -6.05 -24.2 -6.05 -24.0 -6.25 -23.75 -6.5 -23.45 -6.85 -23.3 L-7.2 -23.3 Q-7.3 -23.45 -7.05 -23.65 -7.5 -23.85 -8.1 -23.95 -8.7 -24.05 -9.05 -23.95 L-8.7 -24.3 M-8.3 -20.15 Q-8.5 -20.25 -8.8 -20.55 -8.75 -20.7 -8.05 -20.7 L-7.8 -20.6 Q-7.6 -20.5 -7.55 -20.45 L-7.8 -19.95 Q-7.95 -19.7 -8.25 -19.55 -8.3 -19.65 -8.25 -19.75 -8.2 -19.95 -8.2 -20.1 -8.2 -20.15 -8.3 -20.15 M-0.1 -19.6 Q-0.15 -19.45 -0.3 -19.4 L-0.9 -19.45 -1.95 -19.55 -2.3 -19.35 Q-2.55 -19.2 -2.65 -19.2 L-2.8 -19.3 Q-2.85 -19.4 -2.85 -19.6 -2.85 -20.35 -0.65 -19.95 -0.6 -19.9 -0.35 -19.8 L-0.1 -19.6 M-19.4 -17.7 L-19.4 -17.35 Q-19.4 -17.25 -19.6 -16.95 -19.85 -16.6 -19.85 -16.5 -19.85 -16.3 -19.5 -16.1 -19.1 -15.9 -19.0 -15.7 L-19.15 -15.55 Q-20.15 -15.6 -20.35 -16.0 -20.45 -16.1 -20.45 -16.7 -20.45 -16.95 -20.35 -17.05 L-20.1 -17.2 Q-19.8 -17.3 -19.7 -17.95 L-19.5 -17.95 -19.4 -17.7 M-13.4 -20.5 Q-13.3 -20.55 -13.0 -20.45 L-13.25 -19.8 Q-13.4 -19.4 -13.2 -19.15 L-13.2 -19.1 -13.3 -19.05 Q-13.75 -19.35 -13.85 -20.0 -13.85 -20.15 -13.4 -20.5 M-16.8 -16.1 L-16.4 -16.4 Q-16.1 -16.65 -16.0 -16.8 -15.85 -16.75 -15.85 -16.55 L-15.8 -16.3 -15.35 -16.2 -14.8 -16.05 Q-14.4 -15.55 -14.3 -15.35 -14.3 -15.3 -14.3 -14.8 -14.3 -14.55 -14.35 -14.2 L-14.55 -13.6 -14.8 -13.55 Q-14.85 -13.75 -14.8 -14.0 -14.75 -14.35 -14.75 -14.5 -14.75 -14.85 -15.7 -15.5 -16.1 -15.75 -16.8 -16.1 M-17.2 -12.35 Q-17.3 -12.15 -17.6 -11.75 -17.9 -11.4 -17.9 -11.2 -17.9 -11.0 -17.8 -10.85 L-17.6 -10.6 -17.7 -10.45 Q-18.1 -10.55 -18.2 -10.7 -18.2 -10.75 -18.2 -11.1 L-18.15 -11.75 Q-18.1 -12.2 -18.1 -12.45 L-17.35 -12.45 Q-17.25 -12.45 -17.2 -12.35" fill="#b6ffff" fill-rule="evenodd" stroke="none"/>
      <path d="M23.7 -43.5 L23.9 -43.35 Q24.05 -43.3 24.15 -43.25 L24.2 -43.2 24.2 -42.9 24.15 -42.85 23.3 -42.6 22.7 -42.35 22.4 -42.35 22.2 -42.55 Q22.35 -42.65 22.4 -42.85 22.4 -42.95 22.55 -42.95 L22.7 -42.95 22.65 -42.75 Q23.05 -42.75 23.45 -42.95 L23.85 -43.2 23.75 -43.25 Q23.7 -43.25 23.7 -43.35 L23.7 -43.5 M25.45 -34.5 Q25.45 -34.2 25.3 -34.05 25.2 -34.0 24.9 -33.9 24.15 -33.65 23.75 -33.05 23.45 -32.55 23.45 -31.45 23.45 -31.25 23.75 -30.6 L24.1 -29.9 24.1 -29.6 Q24.1 -29.5 23.9 -29.15 23.75 -28.8 23.75 -28.65 23.7 -28.05 23.65 -27.75 23.55 -28.05 23.55 -28.45 L23.35 -28.05 23.2 -27.9 23.05 -27.9 23.1 -28.0 Q22.85 -28.1 22.5 -28.65 L22.0 -29.5 Q21.9 -29.65 21.55 -30.2 L21.45 -30.35 21.4 -30.35 21.1 -30.7 21.05 -31.05 Q20.95 -31.05 20.85 -31.0 20.75 -30.9 20.7 -30.9 L20.7 -31.3 20.65 -31.7 20.5 -32.15 Q20.45 -32.3 20.45 -32.4 L20.2 -32.8 20.1 -32.85 20.0 -32.75 19.85 -32.65 19.8 -32.7 19.7 -32.75 19.7 -32.85 Q19.55 -33.1 19.3 -33.65 19.0 -34.3 18.5 -34.6 L18.4 -34.6 18.2 -34.8 Q17.9 -34.95 17.7 -34.95 15.75 -34.95 14.9 -34.5 14.5 -34.25 14.3 -33.85 L14.05 -33.1 14.15 -33.15 Q14.2 -33.15 14.2 -32.9 14.2 -32.65 13.3 -32.4 12.45 -32.1 12.6 -31.7 L12.55 -31.5 Q12.2 -31.25 11.85 -31.25 10.2 -31.25 9.95 -31.45 L9.7 -31.65 Q9.55 -31.85 9.3 -32.0 9.4 -32.2 9.55 -32.25 L9.65 -32.3 9.85 -32.55 Q10.0 -32.7 10.0 -32.85 10.0 -33.25 9.7 -33.65 9.4 -34.0 8.7 -34.5 L8.15 -34.55 Q7.1 -34.55 6.85 -34.35 6.8 -34.15 6.7 -34.05 L6.8 -34.0 Q6.65 -33.9 6.35 -33.8 6.05 -33.65 5.8 -33.65 L5.35 -33.7 4.5 -33.8 4.45 -33.85 4.2 -33.85 4.05 -33.75 Q3.9 -33.9 3.85 -34.1 L3.2 -34.1 2.5 -34.0 Q1.85 -33.95 1.5 -34.0 1.1 -33.6 0.95 -33.3 0.8 -33.0 0.7 -32.9 L0.35 -32.95 0.25 -32.9 0.25 -32.85 Q-0.7 -32.95 -1.5 -32.75 -2.4 -32.5 -2.45 -31.95 L-2.45 -31.75 -2.5 -31.7 -2.55 -31.75 -3.5 -31.7 Q-4.7 -31.65 -5.45 -31.5 -5.6 -31.5 -6.1 -31.2 -6.75 -30.8 -6.85 -30.75 L-6.95 -30.75 Q-7.0 -30.8 -7.0 -31.0 -7.0 -31.15 -6.3 -31.95 -5.55 -32.8 -5.45 -33.4 -5.55 -33.9 -5.0 -34.65 -4.4 -35.45 -4.4 -35.7 -4.4 -35.95 -4.5 -36.15 L-4.65 -36.5 -4.7 -36.45 -4.7 -36.7 -4.2 -37.35 -3.7 -38.05 Q-3.7 -38.3 -3.85 -38.4 L-4.0 -38.55 -3.95 -38.75 -3.65 -38.7 -3.6 -38.85 Q-3.5 -39.05 -3.5 -39.25 -3.5 -39.45 -3.8 -40.15 -4.05 -40.8 -4.05 -40.85 -4.05 -41.05 -3.95 -41.25 -3.8 -41.5 -3.8 -41.7 -3.8 -42.0 -4.3 -42.65 -4.75 -43.3 -4.95 -43.4 L-5.9 -43.05 Q-6.3 -42.95 -6.65 -42.95 -6.9 -42.65 -7.25 -42.35 -7.4 -42.1 -7.8 -41.8 -8.15 -41.55 -8.5 -41.3 L-8.7 -41.15 -8.95 -40.95 -9.35 -40.4 -9.7 -39.85 -9.75 -39.4 -9.75 -39.05 Q-9.65 -38.75 -9.35 -38.55 L-9.4 -38.5 -9.6 -38.55 -9.55 -38.5 Q-9.35 -38.45 -9.35 -38.35 L-9.4 -38.35 -9.75 -38.25 -10.35 -37.5 -11.35 -37.4 Q-11.5 -36.85 -11.5 -35.7 -11.5 -34.6 -11.15 -33.45 -10.85 -32.45 -10.85 -32.25 -10.85 -32.05 -10.95 -31.95 L-11.1 -31.85 -11.55 -31.75 -12.15 -31.65 Q-12.15 -31.55 -12.35 -31.35 -12.6 -31.45 -12.8 -32.0 -13.05 -32.65 -13.35 -32.9 -13.5 -33.05 -14.2 -33.6 -15.0 -34.15 -15.1 -34.15 L-15.75 -34.1 Q-16.45 -33.95 -16.65 -33.6 L-16.85 -34.05 Q-17.05 -34.5 -17.05 -34.6 L-16.85 -35.1 Q-16.6 -35.55 -16.6 -35.75 L-17.15 -36.85 -17.2 -36.9 -17.25 -37.0 Q-17.65 -37.35 -18.25 -37.35 -18.85 -37.35 -19.55 -36.65 L-20.25 -35.7 -20.2 -35.65 Q-21.5 -34.95 -22.05 -34.5 -23.0 -33.75 -23.05 -32.6 -23.05 -32.2 -23.1 -31.8 L-23.2 -31.1 -23.25 -31.1 -23.35 -30.75 Q-23.5 -30.25 -23.9 -29.8 -24.2 -29.45 -24.2 -29.05 -24.2 -28.85 -24.05 -28.6 -23.85 -28.35 -23.85 -28.2 -23.85 -28.0 -24.6 -27.45 -25.3 -26.9 -25.6 -26.8 -25.5 -27.25 -25.35 -27.85 -25.3 -28.05 -25.35 -28.3 L-25.35 -28.8 Q-25.35 -29.2 -25.1 -29.4 L-24.3 -30.1 Q-24.2 -30.2 -24.1 -30.6 L-23.85 -31.25 Q-23.6 -31.8 -23.55 -32.5 L-23.55 -32.6 -23.6 -32.9 Q-23.75 -33.65 -23.8 -34.05 L-23.8 -34.2 Q-23.8 -34.35 -23.6 -34.6 L-23.35 -34.95 Q-22.25 -36.3 -22.2 -37.05 L-22.25 -37.1 -22.05 -37.35 Q-20.4 -37.95 -19.55 -39.25 -18.8 -40.35 -18.85 -41.5 L-18.8 -41.45 -18.8 -41.9 Q-17.7 -42.15 -17.1 -42.4 -16.3 -42.75 -15.65 -43.3 -15.2 -43.7 -14.75 -44.4 L-14.7 -44.55 -14.7 -44.7 -14.65 -45.1 -14.65 -45.2 -14.6 -45.35 Q-13.2 -45.4 -12.25 -46.1 L-11.85 -46.45 -11.75 -46.6 -11.55 -46.85 -11.5 -46.85 -11.15 -46.8 -10.8 -46.85 Q-10.65 -46.75 -10.45 -46.65 L-10.45 -46.55 -10.5 -46.4 -10.6 -46.35 Q-10.65 -46.2 -10.75 -46.0 -10.85 -45.75 -10.85 -45.55 -10.85 -45.2 -10.55 -44.8 -10.2 -44.4 -9.85 -44.4 -7.6 -44.4 -6.75 -45.25 -6.35 -45.75 -6.35 -46.55 -6.35 -46.7 -6.65 -46.85 -6.9 -47.05 -7.05 -47.05 L-7.0 -47.15 Q-6.95 -47.3 -6.95 -47.5 -6.95 -47.7 -7.15 -47.75 L-7.4 -47.8 Q-7.15 -48.1 -6.75 -48.45 -6.4 -48.7 -6.1 -48.85 L-5.5 -48.8 -5.3 -48.4 -4.15 -48.25 -3.45 -48.15 Q-3.2 -48.15 -3.1 -48.25 L-2.85 -48.5 -2.7 -48.4 Q-1.8 -48.2 0.45 -48.15 0.8 -48.2 0.9 -48.3 0.95 -48.35 0.95 -48.5 1.2 -48.5 1.8 -48.35 2.5 -48.15 3.35 -48.0 L3.45 -47.9 4.05 -47.75 4.1 -47.75 4.9 -47.6 5.8 -47.75 6.35 -47.85 Q6.4 -47.45 6.8 -47.05 L6.85 -47.0 7.0 -46.8 7.2 -46.65 Q7.45 -46.45 7.75 -46.25 L8.2 -46.05 8.3 -46.0 9.35 -45.95 10.05 -45.9 Q10.1 -45.75 10.1 -45.6 L10.2 -45.3 Q10.3 -45.05 10.45 -44.95 10.9 -44.55 12.7 -44.4 L12.85 -44.1 Q13.05 -43.65 13.4 -43.35 13.95 -42.6 15.3 -42.15 L16.1 -41.85 Q16.25 -41.65 16.4 -41.55 16.75 -41.35 17.45 -41.35 17.5 -41.1 17.7 -40.8 18.1 -40.2 18.8 -40.05 19.25 -39.8 19.8 -39.75 L20.15 -39.75 Q20.3 -39.45 20.55 -38.35 20.85 -36.9 20.9 -36.3 21.2 -36.3 21.3 -36.35 21.4 -36.45 21.5 -36.5 L21.55 -36.45 21.6 -36.45 21.9 -35.8 Q22.45 -35.65 23.05 -35.15 L23.55 -34.7 23.8 -34.6 23.9 -34.6 Q23.95 -34.6 24.1 -34.7 24.4 -34.85 24.85 -34.8 L25.15 -34.85 25.4 -34.8 Q25.45 -34.75 25.45 -34.5 M14.8 -48.55 L14.95 -48.55 Q14.95 -48.3 15.3 -48.0 15.7 -47.6 16.2 -47.55 16.5 -47.5 16.65 -47.15 16.75 -46.75 16.85 -46.55 16.95 -46.45 16.8 -46.45 16.7 -46.45 15.95 -46.85 15.2 -47.25 14.8 -47.25 L14.65 -47.2 Q14.6 -47.15 14.45 -47.05 L14.4 -47.15 14.4 -47.3 Q14.4 -47.4 14.45 -47.5 L14.6 -47.8 Q14.7 -48.0 14.7 -48.1 L14.65 -48.2 Q14.65 -48.25 14.65 -48.35 14.65 -48.45 14.7 -48.5 L14.8 -48.55 M9.9 -45.5 L9.9 -45.6 9.85 -45.6 9.9 -45.5 M0.5 -32.5 L0.2 -32.3 Q0.25 -32.25 0.2 -32.2 L0.3 -32.2 Q0.6 -32.2 0.65 -32.15 0.35 -31.85 0.25 -32.0 0.1 -32.15 -0.2 -31.95 L-0.95 -31.95 -1.2 -32.2 -1.5 -32.2 -1.9 -32.25 -1.9 -32.35 -1.8 -32.5 -1.3 -32.65 -0.2 -32.6 0.3 -32.55 Q0.45 -32.55 0.5 -32.5 M8.1 -30.15 L7.95 -30.55 7.85 -30.95 Q7.85 -31.0 8.25 -31.15 8.6 -31.3 8.7 -31.3 L8.7 -31.2 8.8 -31.2 8.85 -31.1 9.0 -30.95 9.3 -30.9 9.5 -30.9 Q9.7 -30.85 9.7 -30.8 L9.75 -30.75 Q9.7 -30.65 9.15 -30.6 L9.1 -30.6 Q9.35 -30.35 9.7 -30.2 L9.7 -30.1 9.65 -30.05 9.2 -30.1 Q8.9 -30.1 8.7 -30.2 L8.3 -30.2 8.1 -30.15 M10.8 -28.75 L10.85 -28.75 11.0 -28.6 11.0 -28.55 11.15 -28.4 Q11.2 -28.3 11.45 -28.15 11.75 -28.0 11.95 -27.95 12.05 -27.9 12.25 -27.6 12.4 -27.25 12.4 -27.15 12.4 -27.0 12.4 -27.05 L12.35 -27.05 Q12.2 -27.1 12.05 -27.3 11.9 -27.55 11.8 -27.6 L11.25 -27.95 10.9 -28.0 Q10.8 -28.0 10.75 -28.2 L10.8 -28.45 10.8 -28.75 M10.95 -28.4 L10.95 -28.4 M14.1 -32.0 L14.2 -31.95 14.2 -31.8 14.15 -31.5 14.1 -31.15 Q14.1 -30.95 14.05 -30.75 13.95 -30.6 13.85 -30.55 L13.5 -30.5 13.35 -30.25 Q13.25 -30.15 13.0 -30.05 L12.8 -30.1 Q12.7 -30.25 12.55 -30.45 L12.2 -30.5 12.1 -30.6 12.0 -30.65 12.5 -30.9 Q12.75 -31.0 13.15 -31.25 L13.05 -31.35 Q13.0 -31.45 13.0 -31.5 L13.95 -32.0 14.1 -32.0 M20.5 -30.65 L20.7 -30.65 20.7 -30.5 Q20.7 -30.05 21.65 -28.85 L22.95 -27.3 23.15 -27.45 23.45 -27.6 Q23.6 -27.7 23.6 -27.5 L23.55 -27.4 23.6 -27.45 23.65 -27.35 23.65 -26.95 Q23.4 -26.8 23.2 -26.6 L23.1 -26.5 23.1 -25.95 23.0 -25.85 Q22.85 -25.95 22.8 -26.35 22.7 -26.7 22.35 -26.9 L22.2 -26.9 Q22.0 -27.15 21.75 -27.7 21.45 -28.35 21.3 -28.6 L20.95 -28.95 Q20.65 -29.25 20.65 -29.45 L20.65 -29.85 Q20.45 -30.4 20.45 -30.5 L20.5 -30.65 M20.35 -25.65 Q20.25 -25.35 20.05 -25.35 L20.0 -25.3 Q19.95 -25.3 19.95 -25.4 L20.1 -25.95 Q20.25 -26.35 20.15 -26.75 L20.2 -26.75 20.3 -26.8 Q20.4 -26.45 20.4 -26.1 20.4 -25.85 20.35 -25.65 M21.65 -25.35 L21.8 -25.2 Q21.8 -25.0 21.75 -24.85 21.65 -24.55 21.45 -24.55 21.4 -24.4 21.25 -24.15 21.1 -23.95 21.05 -23.75 L20.95 -23.65 Q20.85 -23.75 20.85 -23.85 L20.85 -24.1 Q20.85 -24.4 21.05 -24.8 21.25 -25.2 21.5 -25.45 L21.65 -25.35 M19.55 -22.95 L19.5 -22.5 19.45 -21.95 Q19.2 -22.1 19.2 -22.55 19.2 -22.75 19.25 -22.8 19.3 -22.9 19.55 -23.05 19.55 -23.15 19.55 -22.95 M14.5 -27.4 L14.35 -27.1 13.9 -27.05 Q13.7 -26.95 13.6 -26.9 L13.5 -27.0 13.85 -27.25 14.2 -27.55 Q14.3 -27.65 14.4 -27.8 L14.45 -28.05 14.5 -27.95 14.55 -27.75 Q14.55 -27.6 14.5 -27.4 M13.1 -26.55 Q12.95 -26.55 12.95 -26.6 L13.05 -26.6 13.25 -26.55 13.1 -26.55 M13.1 -23.05 Q12.9 -23.05 12.7 -23.0 12.2 -23.05 11.9 -23.35 11.7 -23.55 11.65 -23.8 L11.7 -23.8 12.0 -23.55 12.25 -23.35 12.65 -23.35 Q13.05 -23.4 13.3 -23.55 L13.7 -23.7 14.1 -23.75 14.1 -23.7 Q13.75 -23.5 13.45 -23.2 13.25 -23.0 13.1 -23.05 M24.8 -23.4 Q24.8 -23.2 24.55 -22.8 24.3 -22.35 24.3 -22.25 24.3 -22.15 24.45 -21.85 24.6 -21.5 24.6 -21.35 24.6 -21.25 24.45 -21.25 24.25 -21.25 24.1 -21.5 L23.95 -21.85 23.8 -22.15 Q23.75 -22.3 23.75 -22.35 L23.95 -22.7 Q24.2 -23.05 24.2 -23.1 L24.1 -23.45 Q24.05 -23.65 24.05 -23.75 24.05 -23.95 24.15 -24.1 L24.35 -24.3 24.45 -23.8 24.65 -23.6 Q24.8 -23.45 24.8 -23.4 M24.7 -20.8 Q24.75 -20.7 24.75 -20.6 L24.7 -20.45 24.65 -20.4 Q24.45 -20.6 24.45 -20.75 24.45 -21.0 24.6 -21.0 L24.7 -20.8 M-3.2 -50.8 L-2.9 -50.5 Q-2.95 -50.45 -3.1 -50.35 L-4.0 -50.3 Q-4.3 -50.25 -4.5 -50.05 L-4.6 -50.05 Q-4.65 -50.05 -4.65 -50.15 -4.65 -50.45 -3.5 -50.8 L-3.2 -50.8 M-10.75 -50.05 L-10.35 -50.1 -9.85 -50.1 -9.35 -50.3 -8.95 -50.5 Q-8.65 -50.65 -7.8 -50.5 L-7.65 -50.3 -7.6 -50.3 Q-7.5 -50.2 -7.45 -50.15 L-7.5 -50.05 -7.85 -50.1 -8.2 -50.1 -9.1 -49.8 -10.25 -49.4 Q-10.85 -49.15 -11.15 -48.85 -11.45 -48.55 -11.45 -48.3 L-11.45 -48.2 -11.5 -48.25 -11.55 -48.2 Q-11.75 -48.4 -11.75 -48.65 L-11.7 -48.85 -11.7 -48.9 Q-11.7 -49.1 -11.35 -49.55 -11.0 -50.0 -10.75 -50.05 M-8.85 -50.3 L-8.85 -50.3 M-2.2 -48.1 L-2.05 -48.1 -2.35 -48.2 -2.2 -48.1 M-17.7 -33.55 Q-17.5 -33.75 -17.3 -33.75 -17.2 -33.35 -16.9 -33.25 L-16.4 -33.1 -16.45 -33.0 -15.6 -32.85 Q-15.65 -32.75 -15.85 -32.65 L-16.2 -32.4 -16.15 -32.2 Q-16.15 -32.05 -16.35 -32.0 -17.3 -31.8 -17.6 -31.4 -17.75 -31.0 -17.95 -30.85 -18.1 -31.0 -18.1 -31.2 -18.1 -31.4 -17.9 -32.05 -17.75 -32.7 -17.75 -32.8 -17.75 -32.9 -17.85 -33.0 L-18.0 -33.25 -17.7 -33.55 M-11.65 -30.6 L-11.3 -30.6 Q-10.85 -30.75 -10.6 -31.2 L-10.25 -31.7 -10.2 -31.2 -10.2 -30.75 -10.05 -30.35 Q-9.95 -29.95 -9.95 -29.8 -9.95 -29.6 -10.25 -29.3 L-10.25 -29.25 Q-10.25 -29.15 -10.3 -29.1 L-10.5 -28.9 Q-11.05 -28.8 -11.3 -28.7 -11.65 -28.55 -12.5 -28.35 -12.85 -28.1 -12.9 -27.65 L-12.9 -27.25 -12.85 -27.15 -12.9 -27.1 -12.9 -27.0 -12.95 -27.0 -13.0 -27.05 Q-13.15 -27.15 -13.2 -27.3 L-13.3 -27.6 -13.5 -28.1 Q-13.5 -28.4 -13.05 -28.7 -12.65 -29.0 -12.65 -29.4 L-12.65 -29.5 -12.6 -29.5 -12.5 -29.6 -12.6 -29.6 -12.55 -29.75 -12.35 -29.8 -12.05 -29.85 -11.95 -30.2 Q-11.95 -30.45 -11.95 -30.65 L-11.8 -30.65 Q-11.7 -30.65 -11.65 -30.6 M-10.4 -37.75 L-10.45 -37.75 -10.55 -37.7 -10.5 -37.7 -10.4 -37.75 M-6.7 -31.95 Q-7.2 -31.6 -7.45 -31.1 L-7.7 -30.2 Q-7.75 -30.25 -7.85 -30.5 -7.9 -30.7 -8.1 -30.75 L-8.15 -30.75 -8.15 -30.9 Q-8.15 -31.05 -7.95 -31.3 L-7.65 -31.7 Q-7.5 -32.0 -7.35 -32.05 L-6.8 -32.05 -6.7 -31.95 M-11.05 -28.85 L-11.05 -28.85 M-6.8 -30.15 L-5.5 -30.15 Q-5.65 -30.0 -5.65 -29.65 L-5.55 -29.05 Q-5.55 -29.0 -5.8 -28.6 L-6.05 -28.15 Q-6.1 -28.05 -6.55 -27.7 -6.95 -27.4 -7.15 -27.3 L-7.25 -27.3 -7.25 -27.4 Q-7.25 -27.5 -6.85 -27.85 -6.4 -28.25 -6.3 -28.4 -6.25 -28.45 -6.1 -28.8 -6.0 -29.2 -6.0 -29.3 -6.0 -29.35 -6.15 -29.5 -6.3 -29.65 -6.3 -29.85 -6.65 -29.95 -6.8 -30.1 L-6.8 -30.15 M-14.05 -27.05 L-14.0 -26.7 Q-14.0 -26.65 -13.75 -26.45 L-13.45 -26.25 -12.95 -25.75 -12.5 -25.2 -12.3 -25.2 Q-12.15 -25.3 -11.9 -25.35 -11.85 -25.4 -11.85 -25.3 L-11.6 -25.35 -11.6 -25.25 -12.0 -25.0 -12.35 -24.8 Q-12.45 -24.8 -12.7 -25.05 L-13.35 -25.7 -13.75 -26.15 Q-14.0 -26.45 -14.15 -26.4 L-14.2 -26.4 -14.2 -26.5 -14.15 -26.85 Q-14.15 -27.1 -14.2 -27.3 L-14.1 -27.3 Q-14.05 -27.2 -14.05 -27.05 M-18.25 -28.0 Q-18.25 -27.95 -18.3 -27.85 -18.35 -27.75 -18.35 -27.7 -18.35 -27.6 -18.3 -27.6 -18.2 -27.65 -18.2 -27.55 -18.2 -27.4 -18.6 -27.1 -19.05 -26.8 -19.1 -26.65 L-19.2 -26.2 -19.25 -25.8 Q-19.45 -25.95 -19.45 -26.15 -19.45 -26.25 -19.2 -26.85 L-18.95 -27.45 Q-18.95 -27.55 -19.0 -27.55 L-19.1 -27.6 Q-19.05 -27.7 -18.7 -27.9 -18.35 -28.1 -18.25 -28.1 -18.25 -28.2 -18.25 -28.0 M-18.0 -25.05 Q-17.9 -24.8 -17.9 -24.7 -17.9 -24.5 -17.9 -24.4 -18.0 -24.2 -18.3 -24.1 -18.35 -24.25 -18.3 -24.4 -18.3 -24.55 -18.3 -24.7 -18.4 -24.75 -18.65 -24.85 -18.8 -24.9 -18.8 -25.1 L-18.6 -25.25 Q-18.4 -25.4 -18.3 -25.4 -18.1 -25.4 -18.0 -25.05" fill="#ffffff" fill-rule="evenodd" stroke="none"/>
      <path d="M34.6 -35.45 Q34.0 -35.1 33.45 -34.65 L33.15 -34.45 33.15 -34.4 Q33.1 -34.25 32.65 -33.75 L32.6 -33.75 32.05 -33.2 31.35 -32.6 31.3 -32.6 Q30.6 -32.05 30.35 -32.05 29.35 -32.05 28.9 -32.3 L28.6 -32.55 28.65 -32.55 Q28.5 -32.6 28.35 -32.65 L28.15 -32.65 Q27.5 -32.15 27.35 -31.95 L27.3 -31.9 26.75 -31.9 26.25 -32.0 25.6 -31.95 Q25.05 -31.4 24.85 -31.3 L24.8 -31.3 24.6 -31.35 24.5 -31.4 Q24.5 -31.45 24.5 -31.5 L24.5 -31.55 25.4 -32.35 25.45 -32.4 25.5 -32.4 25.85 -32.35 27.1 -32.35 27.75 -32.95 27.2 -32.85 26.6 -32.75 26.3 -32.8 26.25 -32.85 26.15 -33.05 26.15 -33.25 Q26.15 -33.3 26.2 -33.35 26.25 -33.4 26.3 -33.4 L26.7 -33.45 27.25 -33.5 28.2 -33.5 28.3 -33.45 28.85 -33.05 Q29.05 -33.05 29.05 -32.95 L29.05 -32.9 Q29.5 -32.6 29.95 -32.6 30.7 -32.6 31.7 -33.5 32.6 -34.3 32.8 -34.85 L33.2 -36.05 Q33.6 -36.9 34.45 -37.35 L34.55 -37.35 38.85 -37.4 38.95 -37.45 39.0 -37.45 39.05 -37.5 39.35 -37.45 39.45 -37.4 40.1 -36.65 40.2 -36.65 40.25 -36.55 40.3 -36.5 40.4 -36.35 40.9 -36.15 41.55 -35.95 41.6 -35.95 41.65 -35.9 41.7 -35.9 Q41.9 -35.8 41.9 -35.55 41.9 -35.4 41.8 -35.05 41.7 -34.75 41.7 -34.6 L41.7 -34.15 Q41.7 -33.75 41.4 -33.6 L40.85 -33.35 41.05 -33.25 Q42.15 -32.95 42.25 -32.6 L42.25 -31.85 Q42.3 -31.4 42.35 -31.1 42.5 -30.6 42.85 -29.65 L43.1 -29.0 43.15 -28.95 Q43.25 -28.8 43.3 -28.55 L43.3 -28.5 43.45 -28.1 43.45 -28.0 43.4 -27.95 43.3 -27.9 Q42.75 -27.85 41.95 -26.35 41.1 -24.85 41.1 -24.15 41.1 -24.0 41.25 -23.55 41.35 -23.05 41.35 -22.9 41.35 -22.75 41.25 -22.4 41.05 -22.05 40.8 -21.85 L40.75 -21.8 40.55 -21.75 40.25 -21.35 39.7 -20.7 Q39.55 -20.45 39.4 -20.0 L39.4 -20.05 39.3 -19.75 39.55 -19.1 39.8 -18.3 39.85 -18.25 Q39.85 -18.05 39.6 -17.5 L39.35 -16.9 39.25 -16.35 39.1 -15.7 39.0 -15.6 38.65 -15.45 38.65 -15.4 Q38.15 -13.95 38.1 -12.95 38.0 -11.65 37.15 -11.2 36.9 -11.05 36.45 -10.95 L35.85 -10.8 Q32.4 -9.7 30.15 -8.8 L29.65 -8.6 29.5 -8.5 29.4 -8.5 28.75 -8.15 Q28.2 -7.3 27.5 -6.05 L27.45 -6.0 27.35 -5.95 26.25 -5.95 Q26.2 -5.95 26.15 -6.0 L26.15 -6.05 Q23.5 -6.05 23.1 -6.1 L23.05 -6.1 Q22.7 -6.35 22.45 -7.0 L22.05 -7.8 Q21.95 -7.95 21.7 -8.65 21.6 -9.0 21.35 -9.1 L21.25 -9.15 21.25 -9.3 21.6 -10.1 Q21.8 -10.65 21.8 -10.8 L21.85 -10.85 21.85 -10.9 21.8 -11.3 Q21.7 -12.0 21.65 -12.55 L21.45 -12.55 21.4 -12.6 Q21.35 -12.65 21.35 -12.7 21.35 -13.0 21.6 -13.35 21.8 -13.6 21.95 -13.7 L22.1 -13.7 22.3 -13.5 22.3 -13.4 Q22.85 -13.2 23.2 -13.0 23.9 -12.6 23.95 -12.2 L24.1 -11.4 Q24.15 -10.85 24.1 -10.5 24.0 -9.75 24.3 -9.0 24.55 -8.35 25.1 -7.8 26.15 -7.2 26.35 -7.2 26.45 -7.2 27.55 -7.9 28.8 -8.7 29.05 -8.8 L29.0 -8.8 Q29.55 -9.1 30.2 -9.3 30.95 -9.55 31.4 -9.75 32.05 -10.05 32.85 -10.25 L33.3 -10.35 33.35 -10.45 Q33.6 -10.7 34.0 -11.25 L34.0 -11.3 Q34.5 -11.8 35.35 -12.0 L35.45 -11.95 35.5 -11.9 35.5 -11.85 35.85 -11.9 36.3 -11.95 Q36.3 -12.0 36.35 -12.0 L36.95 -12.05 37.4 -12.55 Q37.55 -12.75 37.6 -12.9 L37.65 -13.0 37.7 -13.0 37.7 -13.15 37.85 -13.7 37.9 -14.15 Q37.9 -14.35 38.05 -14.8 L38.0 -15.1 Q37.9 -15.5 37.9 -15.65 L38.15 -16.15 Q38.3 -16.5 38.35 -16.75 38.35 -17.2 38.35 -17.75 38.35 -18.6 38.85 -19.95 L38.85 -20.05 Q38.85 -20.4 38.9 -20.5 38.95 -20.75 39.3 -20.85 39.9 -22.1 40.35 -22.25 L40.7 -22.7 Q40.95 -22.95 40.95 -23.2 40.95 -23.3 40.8 -23.7 40.65 -24.1 40.65 -24.25 40.65 -24.5 41.0 -25.35 L41.4 -26.4 Q41.6 -26.8 42.3 -27.55 42.65 -27.9 42.8 -28.1 L42.85 -28.2 42.75 -28.2 42.7 -28.25 Q42.7 -28.3 42.65 -28.35 42.55 -29.1 42.2 -29.75 41.75 -30.5 41.05 -30.85 L40.9 -30.85 40.9 -30.75 40.85 -30.7 40.75 -30.65 40.65 -30.65 Q40.6 -30.65 40.55 -30.7 L39.75 -31.95 39.25 -32.65 Q38.65 -32.5 37.85 -32.3 L37.75 -32.3 37.65 -32.25 37.5 -32.3 37.5 -32.35 37.2 -32.4 Q35.65 -32.2 34.8 -31.8 34.0 -31.45 33.55 -30.8 32.95 -29.85 32.75 -29.7 32.1 -29.1 30.6 -28.85 L30.2 -28.9 Q30.1 -28.9 30.1 -28.95 29.75 -29.25 28.4 -29.7 L27.2 -30.1 27.15 -30.1 27.15 -30.05 Q26.75 -30.0 26.4 -30.2 L25.45 -30.2 25.4 -30.3 25.4 -30.35 Q24.7 -30.35 24.25 -30.2 23.85 -30.1 23.55 -29.85 L23.55 -29.7 Q22.65 -28.65 21.85 -27.25 21.1 -25.95 20.65 -24.65 L20.6 -24.55 18.8 -24.55 Q18.75 -24.55 18.7 -24.6 L18.65 -24.65 17.85 -24.7 16.9 -24.8 16.9 -24.75 16.2 -24.8 15.4 -24.9 14.7 -24.95 Q13.6 -24.9 13.0 -24.7 12.3 -24.45 10.85 -23.5 L10.75 -23.5 Q10.15 -23.55 9.75 -23.85 L9.35 -24.2 9.35 -24.15 Q8.95 -24.35 8.9 -24.4 8.55 -24.45 8.15 -24.65 L7.85 -24.85 7.8 -24.85 Q7.75 -24.85 7.7 -24.9 L7.65 -25.0 7.65 -25.05 7.1 -25.55 6.7 -25.85 6.65 -25.85 6.6 -25.9 Q6.45 -25.9 6.25 -26.05 L6.1 -26.05 4.25 -25.85 2.85 -25.6 1.9 -25.4 1.45 -25.3 0.85 -25.05 Q0.45 -24.9 0.25 -24.85 L-0.75 -24.55 -1.45 -24.3 -2.0 -24.2 Q-2.25 -24.2 -2.4 -24.05 L-2.85 -23.75 -2.85 -23.8 -3.5 -23.25 -2.65 -23.35 -2.55 -23.3 -2.5 -23.25 Q-2.45 -23.15 -2.55 -23.05 L-2.6 -23.0 -2.55 -22.95 -2.5 -22.6 -2.3 -22.15 -1.35 -22.0 Q-0.1 -22.05 0.4 -22.2 0.7 -22.3 0.75 -22.55 L0.85 -23.1 0.9 -23.15 Q1.05 -23.5 1.85 -23.65 L1.9 -23.65 2.35 -23.6 2.4 -23.6 2.45 -23.55 2.55 -23.4 2.65 -23.3 3.15 -23.35 Q3.2 -23.5 3.3 -23.5 L3.35 -23.55 Q4.4 -23.6 4.7 -24.05 L4.9 -24.5 4.9 -24.55 Q5.1 -24.85 5.35 -25.1 L5.45 -25.15 6.1 -25.15 6.25 -25.05 6.35 -24.95 6.35 -24.85 6.25 -24.75 Q6.15 -24.7 5.55 -24.65 5.35 -24.4 5.3 -24.1 5.2 -23.7 4.95 -23.55 4.55 -23.45 4.3 -23.3 4.05 -23.1 3.5 -23.0 L3.3 -22.85 2.5 -22.85 Q2.4 -22.85 2.4 -22.9 L2.15 -23.1 1.85 -23.15 Q1.4 -22.95 1.3 -22.65 L1.25 -22.3 Q1.2 -22.1 1.05 -21.95 L0.95 -21.9 0.75 -21.85 0.7 -21.65 Q0.65 -21.55 0.65 -21.3 L0.65 -21.2 0.55 -21.15 -0.2 -20.85 -0.3 -20.8 -0.35 -20.75 -0.9 -20.85 -1.35 -20.9 Q-1.4 -20.9 -1.45 -20.95 -1.6 -21.2 -1.85 -21.35 -2.15 -21.55 -2.5 -21.6 -2.55 -21.65 -2.6 -21.65 L-2.65 -21.75 -2.85 -21.8 -2.95 -21.85 -3.2 -21.9 -3.9 -21.8 -4.45 -21.7 -4.7 -21.6 -5.15 -21.6 -5.5 -21.2 -6.55 -19.9 -6.6 -19.9 -7.95 -18.5 -8.05 -18.4 -8.65 -17.75 -8.65 -17.6 -8.45 -17.55 -8.5 -17.55 -8.3 -17.5 -7.0 -17.6 -5.6 -17.9 -4.85 -18.05 -3.85 -18.3 Q-3.7 -18.4 -3.55 -18.35 -3.4 -18.3 -3.2 -18.05 -2.9 -17.6 -2.8 -17.45 L-2.75 -17.45 Q-2.6 -17.2 -2.05 -16.9 -1.5 -16.55 -1.55 -16.25 L-1.65 -15.45 Q-1.65 -15.15 -1.55 -14.55 L-1.45 -14.1 -1.25 -14.15 -1.2 -14.15 -1.1 -14.25 -1.0 -14.25 -0.95 -14.2 Q-0.7 -14.0 -0.7 -13.85 -0.7 -13.7 -0.75 -13.65 -0.8 -13.6 -1.0 -13.5 L-1.15 -13.5 -1.15 -13.45 Q-1.2 -13.3 -1.4 -13.3 L-1.8 -13.25 -1.9 -13.1 Q-1.95 -12.95 -2.2 -12.85 L-2.3 -12.85 -2.4 -12.9 -4.1 -12.9 -4.5 -12.85 -4.55 -12.85 -5.05 -12.8 -5.25 -12.75 -5.55 -12.7 -6.15 -12.7 -6.65 -12.75 Q-7.15 -12.85 -7.4 -13.1 L-7.75 -13.5 -8.35 -14.2 -9.5 -15.45 -9.75 -15.35 -9.85 -15.35 -9.95 -15.4 -9.95 -15.45 -10.0 -15.6 Q-10.0 -16.0 -9.25 -17.5 -9.25 -17.65 -9.1 -17.9 L-9.05 -18.05 -8.95 -18.1 -8.45 -18.7 Q-8.4 -19.0 -7.65 -19.8 L-6.85 -20.55 -6.05 -21.5 -5.95 -21.6 -6.05 -21.6 Q-6.55 -21.75 -7.15 -22.1 -7.7 -22.4 -8.1 -22.75 L-8.45 -23.1 Q-8.6 -23.3 -8.7 -23.35 L-8.7 -23.4 Q-9.15 -23.7 -10.6 -23.8 -10.65 -23.8 -10.7 -23.85 -11.25 -24.45 -11.4 -25.4 L-11.65 -26.65 -12.15 -26.7 -12.2 -26.75 -12.25 -26.85 -12.25 -27.1 -12.15 -27.15 -12.05 -27.15 -11.4 -27.05 -11.35 -27.05 -11.3 -26.95 Q-11.2 -26.75 -11.0 -25.5 -10.85 -24.7 -10.4 -24.2 -9.2 -24.25 -7.7 -23.05 L-6.65 -22.25 Q-6.2 -21.95 -5.7 -21.9 -5.55 -22.2 -5.45 -22.4 -5.4 -22.55 -5.1 -22.9 L-4.7 -23.4 -4.4 -23.85 -4.05 -24.3 Q-3.7 -24.65 -3.3 -25.2 L-2.65 -26.15 -2.6 -26.2 -2.55 -26.2 Q-1.9 -26.3 -1.6 -26.4 L-1.0 -26.55 Q0.0 -26.8 4.6 -26.95 L4.65 -27.0 4.7 -27.0 5.7 -26.95 Q5.8 -26.95 6.3 -26.6 L6.65 -26.3 6.75 -26.3 Q7.1 -26.15 7.3 -26.0 L7.35 -25.95 Q7.65 -25.6 7.95 -25.4 L8.05 -25.35 Q8.55 -25.15 9.25 -24.75 L9.5 -24.6 10.0 -24.4 10.15 -24.4 Q10.25 -24.5 10.25 -24.6 L10.25 -24.8 Q10.25 -25.05 10.2 -25.55 L10.1 -25.55 10.05 -25.6 9.15 -26.45 8.3 -27.25 Q7.85 -27.45 7.45 -27.75 L7.05 -28.05 Q6.55 -28.5 6.2 -28.45 L6.15 -28.45 6.05 -28.4 Q5.0 -28.65 3.0 -28.75 L2.7 -28.65 1.95 -28.55 1.25 -28.55 0.7 -28.65 -1.6 -28.8 -3.25 -28.95 -3.65 -29.05 Q-3.7 -29.05 -3.75 -29.05 L-3.85 -29.2 -4.2 -29.2 -4.25 -29.25 -4.35 -29.45 -4.45 -29.45 -4.6 -29.5 -4.65 -29.5 -4.75 -29.45 -5.85 -29.5 -6.6 -29.4 Q-7.65 -29.2 -8.0 -28.9 L-8.0 -28.85 -8.05 -28.8 -8.15 -28.75 Q-8.6 -28.75 -9.4 -28.6 -10.2 -28.4 -10.55 -28.4 L-11.9 -28.5 -14.15 -28.25 -14.9 -28.3 -14.95 -28.3 -15.0 -28.4 Q-15.2 -28.85 -15.4 -29.05 -15.85 -29.5 -16.65 -29.55 -16.7 -29.6 -16.75 -29.6 -17.0 -29.9 -17.7 -31.0 -18.45 -32.0 -19.35 -32.3 L-19.8 -32.35 -20.15 -32.4 -21.45 -32.0 Q-22.2 -31.75 -23.25 -31.25 -23.7 -31.0 -23.9 -30.4 -24.15 -29.6 -24.5 -29.35 L-24.55 -29.35 -25.3 -29.2 Q-26.05 -28.85 -27.75 -28.35 -30.45 -27.6 -31.0 -27.25 L-31.1 -27.25 Q-32.15 -27.4 -32.95 -28.35 L-32.95 -28.4 Q-33.3 -28.8 -33.45 -28.95 -33.7 -29.15 -34.05 -29.1 L-34.1 -29.1 -34.2 -29.15 -34.2 -29.2 -34.35 -30.55 -34.4 -30.8 -34.55 -31.0 -35.4 -31.65 Q-36.05 -32.15 -36.25 -32.15 -36.5 -32.15 -36.7 -31.7 -36.9 -31.3 -36.9 -31.15 -36.85 -31.0 -36.5 -30.45 L-36.5 -30.3 Q-36.75 -29.9 -36.95 -29.3 -37.3 -28.25 -37.3 -27.05 -37.3 -26.2 -37.2 -25.8 -37.15 -25.6 -36.95 -25.35 L-36.9 -25.3 -36.9 -25.2 -37.0 -24.95 Q-37.3 -23.95 -37.45 -22.8 L-37.6 -21.55 -37.65 -20.65 Q-37.65 -20.3 -37.4 -19.75 L-37.25 -19.35 -37.2 -19.3 -37.25 -19.1 Q-37.25 -18.75 -37.1 -18.5 -37.0 -18.3 -36.85 -18.2 L-36.8 -18.2 -36.65 -18.0 -36.1 -17.65 -35.8 -17.5 -35.7 -17.4 -35.65 -17.2 Q-35.45 -16.85 -35.2 -16.5 -34.7 -16.0 -34.0 -15.75 L-33.95 -15.75 -33.65 -15.55 Q-32.75 -15.05 -29.5 -14.2 L-29.45 -14.15 -29.1 -13.9 Q-28.65 -13.6 -28.25 -13.4 -27.15 -13.9 -25.45 -14.2 L-24.15 -14.4 Q-24.2 -14.55 -24.35 -14.85 -24.65 -15.25 -24.65 -15.4 -24.65 -15.65 -24.55 -15.75 L-24.5 -15.75 -24.4 -15.8 -24.35 -15.85 Q-23.6 -15.9 -22.9 -16.2 -22.45 -16.4 -22.2 -16.55 L-22.1 -16.55 Q-21.45 -16.55 -20.5 -16.3 -19.9 -16.15 -19.0 -16.2 L-18.9 -16.45 -18.85 -16.5 -18.8 -16.5 -18.4 -16.55 Q-18.35 -16.55 -18.3 -16.55 L-18.25 -16.5 Q-18.2 -16.45 -18.2 -16.2 -18.15 -15.75 -19.65 -14.9 -20.05 -14.7 -20.4 -14.55 -20.95 -14.05 -21.4 -13.35 -21.95 -12.65 -22.7 -11.3 L-22.75 -11.25 -23.25 -11.25 -23.3 -11.3 Q-23.7 -11.45 -23.8 -11.6 -24.05 -11.75 -25.45 -11.95 L-25.55 -12.05 -25.8 -12.15 -26.1 -12.35 -26.55 -12.35 Q-28.2 -11.8 -29.1 -11.8 L-29.9 -11.8 -29.95 -11.85 -31.4 -12.85 -31.35 -12.85 Q-31.95 -13.2 -33.45 -13.6 L-33.5 -13.6 -33.55 -13.65 -33.75 -13.95 Q-34.55 -14.35 -35.05 -15.25 L-35.25 -15.65 -35.9 -16.2 -35.85 -16.2 Q-37.0 -17.1 -37.35 -16.85 -37.35 -16.8 -37.4 -16.8 L-37.5 -16.8 -37.55 -16.85 Q-37.8 -17.35 -37.95 -18.3 L-37.95 -18.55 -38.05 -18.8 -38.2 -19.6 -38.2 -19.8 -38.25 -20.55 -38.25 -22.1 Q-38.2 -23.6 -38.25 -24.4 -38.25 -25.05 -38.15 -26.3 -38.0 -27.65 -38.0 -28.2 L-38.2 -29.85 -38.35 -31.0 -38.55 -31.45 Q-38.6 -31.6 -39.2 -32.15 L-39.25 -32.2 Q-40.0 -33.4 -41.0 -33.8 L-41.05 -33.85 -41.1 -33.95 -41.1 -34.8 -41.05 -34.9 -41.0 -35.05 -41.0 -35.15 -40.9 -35.35 -40.85 -35.35 Q-40.8 -35.55 -40.7 -35.6 -40.4 -36.15 -40.2 -37.15 -40.0 -37.9 -38.65 -38.4 -37.85 -38.7 -37.2 -38.75 L-37.1 -38.75 -37.05 -38.7 -36.95 -38.7 -35.9 -38.6 Q-33.8 -38.65 -32.35 -39.0 -31.3 -39.35 -31.15 -39.35 L-31.0 -39.35 Q-30.9 -39.35 -30.65 -39.1 -30.4 -38.95 -29.95 -38.8 L-28.6 -38.4 -28.55 -38.4 -28.5 -38.35 -28.35 -38.15 Q-28.0 -37.85 -27.75 -37.4 -27.5 -36.8 -27.35 -36.5 -26.75 -35.5 -24.6 -35.45 L-24.55 -35.45 Q-24.35 -35.3 -24.35 -35.1 L-24.35 -34.95 Q-24.4 -34.9 -24.55 -34.85 L-24.85 -34.85 -25.2 -34.7 -25.85 -34.3 -26.0 -34.3 Q-26.3 -34.4 -27.1 -34.85 -27.85 -35.25 -28.25 -35.4 -28.3 -35.4 -28.35 -35.45 -28.65 -35.9 -28.65 -36.55 L-28.6 -37.6 Q-28.65 -38.15 -29.75 -38.4 L-30.65 -38.65 Q-30.95 -38.75 -31.1 -38.9 -31.15 -38.75 -31.2 -38.7 -31.45 -38.5 -32.85 -38.45 L-34.05 -38.25 Q-34.8 -38.1 -36.05 -38.2 -36.8 -38.35 -37.85 -37.65 -38.7 -37.05 -38.75 -37.0 -38.75 -36.85 -38.5 -36.1 -38.3 -35.5 -38.3 -35.25 -37.7 -35.15 -37.5 -34.85 L-37.45 -34.85 -37.3 -34.6 -37.25 -34.6 -36.7 -34.55 -36.6 -34.5 -36.5 -34.3 Q-36.35 -34.25 -36.4 -34.15 L-36.0 -33.9 Q-35.25 -33.45 -35.1 -33.15 L-34.55 -32.45 -34.4 -32.25 -34.3 -32.25 -34.25 -32.2 -34.2 -32.1 -34.2 -31.95 -34.1 -31.75 Q-33.95 -31.25 -33.15 -30.45 L-31.9 -29.2 -30.85 -29.05 -30.3 -28.95 Q-29.1 -28.95 -27.0 -29.35 L-25.25 -29.7 -24.8 -29.8 -24.7 -29.8 Q-24.55 -30.1 -24.4 -30.7 -24.15 -31.35 -23.45 -31.65 -22.5 -32.15 -21.75 -32.5 L-21.7 -32.55 Q-21.35 -32.7 -21.15 -32.8 L-20.8 -32.85 Q-19.7 -33.25 -18.9 -33.25 L-17.0 -33.2 -16.9 -33.15 -16.9 -33.05 -16.65 -33.0 Q-16.6 -33.0 -16.55 -32.95 L-15.3 -31.45 Q-14.5 -30.5 -14.15 -30.0 L-13.15 -29.4 Q-12.85 -29.2 -12.5 -29.05 L-10.65 -29.15 Q-10.45 -29.15 -10.35 -29.0 L-10.3 -29.0 -9.65 -29.05 -8.45 -29.25 -8.4 -29.45 Q-8.35 -29.7 -8.35 -29.9 L-8.3 -30.0 -8.2 -30.05 -8.15 -30.05 -8.05 -30.1 -8.0 -30.15 -7.55 -30.05 -7.5 -30.05 Q-7.45 -30.1 -7.4 -30.1 -7.1 -30.1 -7.05 -30.0 L-7.0 -29.95 -5.85 -29.9 -4.9 -29.95 -4.7 -30.0 -4.6 -30.0 -4.3 -29.95 -3.95 -29.95 -3.9 -29.9 -3.65 -29.85 -3.55 -29.8 -3.55 -29.7 Q-1.35 -29.75 0.3 -30.25 L1.4 -30.6 Q1.9 -30.8 2.2 -30.8 L2.9 -30.6 Q3.6 -30.4 4.1 -30.3 L6.8 -29.75 6.9 -29.7 Q7.1 -29.5 7.45 -28.8 L7.7 -28.35 7.75 -28.35 8.35 -27.75 Q9.4 -27.1 10.5 -26.6 10.55 -26.6 10.6 -26.65 10.7 -26.8 10.95 -26.8 11.1 -26.8 11.25 -26.65 L11.3 -26.65 11.5 -26.45 Q11.85 -26.2 12.7 -26.2 L16.25 -26.0 Q16.45 -26.0 16.45 -25.8 L16.5 -25.8 17.65 -26.2 18.95 -26.65 Q19.9 -26.95 20.2 -27.05 20.75 -27.35 20.95 -27.7 21.0 -27.9 21.6 -28.5 L22.1 -28.95 Q22.35 -29.4 22.7 -29.65 L22.75 -29.75 Q23.0 -30.25 23.35 -30.45 L23.4 -30.5 24.2 -30.7 Q24.95 -30.9 25.6 -30.95 L25.65 -31.0 25.75 -31.0 Q26.2 -30.95 26.55 -30.8 L26.75 -30.7 26.8 -30.75 26.95 -30.8 27.05 -30.8 28.35 -30.5 Q29.25 -30.25 29.45 -30.25 30.1 -30.25 30.65 -30.6 31.65 -31.15 31.75 -31.2 32.2 -31.4 32.5 -31.75 33.0 -32.35 33.1 -32.4 33.1 -32.45 33.15 -32.45 33.45 -32.5 34.0 -32.8 34.75 -33.05 36.4 -33.05 L37.0 -32.95 37.55 -32.85 Q37.65 -32.85 38.3 -33.4 L39.05 -34.15 Q39.2 -34.3 39.6 -34.8 39.7 -34.95 40.1 -35.2 L40.4 -35.45 39.85 -36.05 Q39.7 -36.1 39.55 -36.2 L39.4 -36.35 39.35 -36.35 Q38.5 -36.15 38.4 -35.65 L38.35 -35.0 Q38.3 -34.55 38.0 -34.25 37.95 -34.2 37.9 -34.2 L37.4 -34.2 36.0 -34.25 35.9 -34.25 35.85 -34.3 Q35.3 -35.2 35.05 -35.45 L34.6 -35.45 M38.0 -35.85 Q38.0 -36.25 38.25 -36.45 36.65 -36.4 35.3 -35.75 L35.8 -35.15 36.2 -34.65 37.4 -34.65 37.75 -34.7 Q37.9 -34.9 37.9 -35.2 L38.0 -35.85 M39.7 -32.8 L40.15 -32.15 Q40.6 -31.4 41.2 -31.2 41.6 -31.1 42.05 -30.65 L41.85 -31.15 41.85 -31.85 Q41.85 -32.15 41.75 -32.35 41.45 -32.8 40.35 -33.1 L40.0 -32.9 39.7 -32.8 M23.0 -26.95 L23.3 -27.2 Q23.65 -27.5 23.75 -27.45 L23.8 -27.45 26.2 -26.65 28.05 -26.7 28.05 -27.1 28.1 -27.2 28.15 -27.2 28.25 -27.3 28.35 -27.3 28.85 -27.25 Q30.0 -27.4 30.65 -27.8 31.2 -28.15 31.7 -28.15 32.15 -28.15 32.4 -27.9 32.6 -27.7 32.9 -27.7 L32.95 -27.7 Q33.2 -27.65 33.25 -27.55 L33.3 -27.45 33.25 -27.35 33.0 -27.1 32.5 -27.1 32.1 -27.35 31.7 -27.65 Q31.3 -27.55 31.1 -27.4 L30.75 -27.1 Q30.4 -26.8 28.6 -26.8 L28.65 -26.7 Q28.65 -26.45 28.55 -26.35 L28.5 -26.35 28.4 -26.25 28.35 -26.25 28.3 -26.2 26.15 -26.2 Q26.05 -26.2 26.05 -26.25 L26.0 -26.3 Q25.25 -26.4 24.65 -26.6 24.0 -26.8 23.75 -26.95 L23.4 -26.75 23.35 -26.7 23.1 -26.7 Q23.05 -26.7 23.0 -26.75 22.95 -26.8 22.95 -26.85 22.95 -26.9 23.0 -26.95 M14.05 -25.2 L14.0 -25.25 14.0 -25.15 14.05 -25.2 M0.15 -21.65 L-0.45 -21.6 -1.05 -21.6 -1.55 -21.65 -1.6 -21.7 -1.6 -21.65 Q-1.3 -21.45 -1.15 -21.3 -0.95 -21.2 -0.75 -21.2 -0.15 -21.2 0.1 -21.55 L0.15 -21.65 M22.25 -12.9 L22.35 -11.9 Q22.45 -10.9 22.45 -10.15 22.45 -9.75 22.65 -9.45 22.95 -9.0 23.75 -8.55 L23.85 -8.5 Q23.8 -8.65 23.75 -8.8 23.65 -9.15 23.65 -9.7 L23.65 -10.55 Q23.6 -11.65 23.4 -12.05 23.1 -12.75 22.3 -13.05 L22.25 -12.9 M22.0 -9.7 L21.95 -9.95 21.75 -9.55 Q21.75 -9.3 22.45 -8.0 L22.75 -7.2 Q22.95 -6.75 23.3 -6.5 L24.75 -6.45 26.3 -6.35 27.2 -6.4 Q27.35 -6.8 27.75 -7.4 L27.9 -7.6 26.6 -6.75 26.5 -6.75 25.25 -7.1 25.15 -7.1 25.05 -7.15 25.0 -7.2 Q24.1 -7.5 23.55 -7.95 L22.7 -8.55 Q22.05 -9.15 22.0 -9.7 M43.0 -22.25 L43.05 -22.3 43.15 -22.35 43.5 -22.3 43.6 -22.2 43.8 -21.9 43.75 -21.9 44.0 -21.45 44.0 -21.35 43.9 -21.25 43.5 -21.25 Q43.45 -21.25 43.4 -21.3 43.35 -21.35 43.35 -21.4 L43.3 -21.7 43.25 -21.9 43.0 -21.95 42.95 -22.0 42.9 -22.1 Q42.9 -22.2 43.0 -22.25 M39.1 -19.1 Q38.9 -18.45 38.85 -17.65 L38.8 -16.35 Q38.8 -16.2 38.7 -16.1 L38.6 -16.05 38.55 -15.9 Q38.8 -16.05 38.85 -16.15 L38.85 -16.9 39.25 -17.65 39.25 -17.6 Q39.4 -18.0 39.45 -18.25 L39.15 -19.0 39.1 -19.1 M45.85 -19.75 L45.95 -19.7 45.95 -19.6 46.0 -19.25 Q46.0 -19.05 46.2 -18.85 L46.2 -18.65 46.1 -18.6 46.0 -18.6 Q45.55 -18.85 45.55 -19.0 L45.55 -19.05 Q45.55 -19.1 45.65 -19.3 L45.65 -19.35 45.45 -19.4 45.35 -19.45 45.35 -19.55 Q45.35 -19.65 45.4 -19.7 L45.5 -19.75 45.55 -19.8 45.85 -19.75 M45.95 -18.0 L46.1 -18.0 46.25 -17.7 Q46.35 -17.5 46.35 -17.3 L46.35 -17.05 Q46.25 -16.8 45.9 -16.7 L45.8 -16.7 Q45.65 -16.7 45.65 -17.05 45.65 -17.3 45.8 -17.35 L45.75 -17.5 Q45.75 -17.7 45.8 -17.75 L45.8 -17.85 45.85 -17.95 Q45.9 -18.0 45.95 -18.0 M43.4 -14.3 Q43.5 -14.45 43.6 -14.5 L43.7 -14.55 43.8 -14.65 43.85 -14.65 44.2 -14.75 44.5 -14.75 44.55 -14.65 44.55 -14.6 Q44.5 -14.45 44.4 -14.35 L44.35 -14.3 44.0 -14.2 43.95 -14.2 43.9 -14.15 43.85 -14.2 43.55 -14.1 43.5 -14.05 Q43.45 -14.1 43.4 -14.1 L43.35 -14.2 43.4 -14.3 M34.0 -10.6 L34.15 -10.65 36.0 -11.25 36.7 -11.55 36.4 -11.5 Q34.75 -11.45 34.25 -10.95 L34.0 -10.6 M-46.45 -24.55 L-46.4 -24.55 -46.25 -24.65 -46.35 -24.75 Q-46.35 -25.05 -46.2 -25.1 L-46.1 -25.1 Q-45.5 -25.1 -45.45 -24.9 L-45.45 -24.85 -45.5 -24.8 Q-45.8 -24.2 -46.3 -24.1 -46.25 -24.1 -46.25 -24.0 -46.25 -23.85 -46.15 -23.65 L-46.05 -23.55 Q-45.75 -23.8 -45.6 -23.6 L-45.55 -23.55 -45.6 -23.5 Q-45.5 -23.55 -45.35 -23.6 L-44.9 -23.95 -44.85 -23.95 Q-44.8 -23.95 -44.75 -23.9 L-44.55 -23.7 -44.55 -23.65 -44.45 -23.55 Q-44.4 -23.4 -44.4 -23.15 -44.4 -23.1 -44.45 -23.05 L-44.5 -23.0 -44.55 -23.0 -44.6 -22.95 -45.0 -23.0 -45.1 -23.05 -45.15 -23.15 Q-45.2 -23.25 -45.0 -23.35 L-44.8 -23.4 -44.65 -23.4 -44.75 -23.5 -44.85 -23.5 -45.0 -23.4 -45.3 -23.15 Q-45.35 -23.1 -45.4 -23.1 L-45.9 -23.1 Q-46.5 -23.25 -46.6 -23.55 -46.65 -23.6 -46.65 -24.0 -46.65 -24.35 -46.45 -24.55 M-47.35 -21.65 L-47.25 -21.7 -47.05 -21.75 -47.05 -21.8 -47.0 -21.85 -46.9 -21.85 Q-46.55 -21.85 -46.5 -21.7 -46.5 -21.65 -46.5 -21.6 L-46.6 -21.5 Q-46.8 -21.4 -46.95 -21.35 L-46.75 -21.15 Q-46.5 -21.0 -46.2 -21.25 L-46.05 -21.25 Q-45.7 -21.05 -45.6 -20.75 -45.55 -20.7 -45.55 -20.35 -45.55 -20.1 -45.6 -20.05 L-45.6 -20.0 Q-45.65 -19.85 -45.9 -19.8 L-45.9 -19.7 -45.65 -19.65 Q-45.25 -19.6 -45.25 -19.5 L-45.25 -19.4 -45.3 -19.3 -45.35 -19.3 -45.45 -19.25 -46.05 -19.3 -46.1 -19.3 -46.25 -19.45 Q-46.35 -19.55 -46.35 -19.8 -46.35 -19.9 -46.1 -20.15 -46.0 -20.3 -45.95 -20.4 -46.0 -20.6 -46.25 -20.8 L-46.85 -20.8 -47.15 -20.9 -47.25 -21.0 Q-47.35 -21.15 -47.35 -21.6 L-47.35 -21.65 M-37.05 -38.65 L-37.05 -38.65 M-6.8 -29.75 L-6.9 -29.85 -6.95 -29.75 -6.8 -29.75 M-40.7 -34.65 L-40.7 -34.15 -40.5 -34.1 -40.45 -34.1 -38.8 -32.5 -38.55 -32.25 -38.7 -32.65 -38.75 -32.65 -38.75 -32.7 -38.8 -32.75 -38.8 -32.8 -38.95 -33.2 -39.15 -33.45 -40.15 -34.8 -40.65 -34.8 -40.7 -34.65 M-44.05 -28.65 L-44.0 -28.65 -44.0 -28.7 Q-42.9 -29.2 -42.6 -29.25 -42.25 -29.35 -41.55 -28.8 L-41.5 -28.75 Q-41.5 -28.7 -41.5 -28.65 L-41.6 -28.55 Q-41.7 -28.5 -41.75 -28.4 L-41.75 -28.35 Q-41.85 -28.15 -42.1 -28.1 L-42.2 -28.1 -42.25 -28.15 -42.25 -28.25 Q-42.3 -28.35 -42.15 -28.6 L-42.65 -28.85 Q-42.7 -28.85 -43.0 -28.65 -43.35 -28.4 -43.7 -28.3 L-43.45 -27.6 Q-43.3 -27.2 -43.25 -26.85 L-42.85 -26.85 -42.75 -26.8 -41.8 -26.05 -41.8 -26.0 -41.05 -25.4 -40.75 -25.55 Q-40.5 -25.7 -40.4 -25.8 -40.65 -25.9 -40.75 -26.0 L-40.85 -26.1 -40.9 -26.2 -40.8 -26.3 Q-40.65 -26.4 -40.5 -26.25 L-40.4 -26.2 Q-39.75 -26.1 -39.65 -26.0 L-39.45 -25.8 -39.45 -25.65 -39.55 -25.55 -39.65 -25.55 Q-40.15 -25.6 -40.5 -25.35 -40.95 -24.95 -41.0 -24.95 L-42.0 -25.7 Q-43.0 -26.4 -43.45 -26.35 -43.55 -26.35 -43.55 -26.4 -43.6 -26.4 -43.65 -26.5 L-43.65 -26.95 Q-43.65 -27.25 -43.7 -27.4 -43.75 -27.55 -44.1 -28.25 L-44.15 -28.35 -44.1 -28.6 -44.05 -28.65 M-37.25 -34.05 L-37.25 -34.1 -38.05 -34.3 -38.6 -34.45 -38.65 -34.1 Q-38.65 -33.85 -38.5 -33.45 -38.1 -32.95 -37.95 -32.5 L-37.4 -31.7 -37.4 -31.65 Q-37.3 -31.55 -37.3 -31.5 L-36.95 -32.3 -36.9 -32.35 Q-36.7 -32.65 -36.15 -32.55 -35.8 -32.5 -35.45 -32.3 L-35.45 -32.25 -34.75 -31.75 -34.75 -32.05 Q-35.0 -32.45 -35.35 -32.85 -36.15 -33.7 -37.2 -34.0 L-37.25 -34.05 M-39.1 -34.6 L-39.6 -34.75 -39.2 -34.3 -39.1 -34.6 M-23.65 -14.5 L-22.55 -14.65 -21.9 -14.8 Q-21.3 -15.1 -20.85 -15.1 L-20.7 -15.1 -20.4 -15.2 -19.75 -15.6 -19.65 -15.65 -19.55 -15.6 -19.3 -15.85 -19.55 -15.8 -19.6 -15.8 -20.7 -15.95 -21.55 -16.05 -22.05 -16.05 Q-22.25 -15.95 -22.85 -15.75 L-24.15 -15.35 -23.9 -14.95 -23.65 -14.5 M-44.7 -17.9 L-44.65 -17.95 -44.55 -17.9 Q-44.05 -17.55 -44.05 -17.15 L-44.05 -16.8 -44.1 -16.65 Q-44.1 -16.6 -44.15 -16.55 -44.2 -16.5 -44.25 -16.5 -44.3 -16.5 -44.35 -16.55 -44.75 -17.0 -44.6 -17.2 L-44.5 -17.35 -44.5 -17.45 Q-44.6 -17.55 -44.7 -17.55 L-44.8 -17.6 -44.8 -17.7 Q-44.8 -17.8 -44.75 -17.85 L-44.7 -17.9 M-42.8 -14.55 L-42.75 -14.6 -42.65 -14.65 -42.55 -14.65 -42.5 -14.6 -42.45 -14.5 -41.95 -14.55 -41.65 -14.55 -41.5 -14.6 -41.4 -14.6 Q-41.3 -14.7 -41.2 -14.6 -41.1 -14.6 -41.1 -14.3 -41.1 -14.05 -41.15 -14.0 L-41.2 -13.95 -41.2 -13.9 -41.3 -13.85 -41.5 -13.85 -41.55 -13.9 -41.7 -14.15 -41.9 -14.05 -41.95 -14.05 -42.6 -14.1 Q-42.65 -14.1 -42.7 -14.15 -42.85 -14.3 -42.85 -14.5 L-42.8 -14.55 M-37.05 -17.55 L-37.15 -17.6 -37.2 -17.6 -37.3 -17.7 -37.3 -17.45 Q-36.8 -17.25 -36.35 -17.05 L-36.4 -17.05 Q-36.9 -17.35 -37.05 -17.55 M-25.5 -12.6 L-24.95 -12.45 -24.25 -12.3 -23.05 -11.75 -22.85 -12.1 -22.2 -13.15 Q-21.85 -13.7 -21.45 -14.15 L-21.7 -14.1 -21.75 -14.1 Q-22.35 -13.8 -22.95 -13.3 L-23.05 -13.25 Q-24.15 -13.05 -25.6 -12.65 L-25.55 -12.6 -25.5 -12.6 M-4.45 -22.3 L-4.45 -22.2 -3.35 -22.35 -3.0 -22.3 -2.75 -22.2 -2.8 -22.3 Q-2.95 -22.65 -3.0 -22.9 L-3.65 -22.75 -4.15 -22.65 -4.45 -22.35 -4.45 -22.3 M-9.35 -16.05 L-9.4 -16.1 -9.4 -16.15 -9.5 -15.9 -9.4 -15.9 -9.3 -15.85 -7.75 -14.05 Q-6.95 -13.15 -6.55 -13.15 L-5.25 -13.2 -4.1 -13.4 -4.05 -13.4 -3.3 -13.35 -2.35 -13.35 -2.8 -13.75 Q-3.05 -13.8 -3.4 -14.25 -3.55 -14.4 -3.75 -14.4 -4.05 -14.45 -4.25 -14.6 L-4.9 -14.6 -5.05 -14.45 -5.25 -14.3 -5.3 -14.3 -5.5 -14.35 -5.55 -14.35 Q-6.25 -14.85 -7.1 -15.2 -7.55 -15.35 -8.25 -15.65 -8.8 -15.9 -9.25 -16.0 L-9.35 -16.05 M-6.6 -16.55 L-5.65 -16.55 Q-4.5 -16.55 -4.0 -16.1 L-3.4 -15.3 Q-2.95 -14.65 -2.05 -13.85 L-2.0 -13.85 -1.85 -13.95 -1.9 -14.1 -2.0 -14.7 Q-2.05 -15.05 -2.05 -15.8 L-2.0 -16.05 Q-1.95 -16.2 -1.95 -16.25 L-2.35 -16.6 Q-2.95 -17.0 -3.0 -17.1 L-3.45 -17.65 -3.65 -17.95 -5.4 -17.5 Q-7.35 -17.05 -8.3 -17.05 L-8.8 -17.15 Q-8.75 -17.05 -8.65 -17.0 -8.3 -16.75 -6.85 -16.55 L-6.6 -16.55" fill="#00ffff" fill-opacity="0.5019608" fill-rule="evenodd" stroke="none"/>
      <path d="M34.55 -37.2 L38.9 -37.25 39.0 -37.3 39.05 -37.35 39.35 -37.3 40.05 -36.55 40.15 -36.55 40.15 -36.4 40.25 -36.3 40.3 -36.2 40.85 -36.05 41.5 -35.85 Q41.55 -35.8 41.65 -35.75 41.75 -35.7 41.75 -35.55 41.75 -35.4 41.65 -35.1 41.55 -34.75 41.55 -34.6 L41.55 -34.15 Q41.55 -33.85 41.3 -33.75 L40.5 -33.3 41.0 -33.15 Q42.0 -32.85 42.15 -32.55 L42.1 -31.85 Q42.15 -31.4 42.2 -31.1 42.35 -30.55 42.7 -29.6 L43.0 -28.85 43.05 -28.85 Q43.1 -28.75 43.15 -28.55 L43.15 -28.5 43.3 -28.05 Q42.7 -28.0 41.8 -26.4 40.95 -24.9 40.95 -24.15 40.95 -24.0 41.1 -23.5 41.25 -23.05 41.25 -22.9 41.25 -22.75 41.1 -22.5 40.95 -22.15 40.7 -21.95 L40.45 -21.85 40.1 -21.45 39.55 -20.75 Q39.4 -20.55 39.25 -20.05 L39.15 -19.75 Q39.25 -19.5 39.4 -19.05 L39.7 -18.25 Q39.7 -18.05 39.45 -17.55 L39.25 -16.95 38.95 -15.75 38.35 -15.5 38.3 -15.2 Q38.4 -15.45 38.5 -15.55 L38.55 -15.45 Q38.0 -14.0 37.95 -12.95 37.85 -11.75 37.1 -11.35 36.85 -11.2 36.45 -11.1 L35.8 -10.95 Q32.35 -9.85 30.05 -8.95 L29.6 -8.75 29.45 -8.65 29.4 -8.65 Q29.0 -8.45 28.65 -8.25 28.05 -7.4 27.35 -6.1 L26.25 -6.1 26.2 -6.15 Q23.5 -6.15 23.1 -6.25 22.85 -6.45 22.55 -7.05 22.3 -7.7 22.2 -7.85 22.1 -8.0 21.85 -8.7 21.7 -9.15 21.35 -9.25 L21.7 -10.05 Q21.95 -10.65 21.95 -10.8 L22.0 -10.8 21.9 -11.35 Q21.8 -12.1 21.8 -12.7 L21.5 -12.7 Q21.5 -13.0 21.7 -13.3 21.9 -13.5 22.0 -13.55 L22.05 -13.55 22.15 -13.45 22.2 -13.3 Q22.75 -13.1 23.15 -12.9 23.75 -12.55 23.8 -12.2 L23.95 -11.35 Q24.0 -10.9 23.95 -10.55 23.85 -9.75 24.15 -8.95 24.45 -8.25 25.0 -7.65 26.1 -7.05 26.35 -7.05 26.5 -7.05 27.6 -7.75 28.85 -8.6 29.1 -8.7 29.6 -8.95 30.25 -9.15 31.0 -9.4 31.45 -9.6 32.1 -9.9 32.9 -10.1 33.7 -10.3 34.2 -10.5 L36.05 -11.15 Q37.55 -11.65 37.7 -12.05 37.8 -12.25 37.85 -12.55 L37.85 -13.1 37.95 -13.65 38.05 -14.15 Q38.05 -14.3 38.2 -14.8 L38.1 -15.15 Q38.05 -15.5 38.05 -15.65 L38.3 -16.1 Q38.45 -16.45 38.5 -16.75 38.45 -17.2 38.45 -17.75 38.45 -18.6 39.0 -19.95 L39.0 -20.05 Q39.0 -20.35 39.05 -20.45 39.1 -20.65 39.4 -20.75 40.0 -22.05 40.45 -22.1 L40.85 -22.6 Q41.1 -22.9 41.1 -23.2 41.1 -23.35 40.95 -23.75 40.8 -24.15 40.8 -24.25 40.8 -24.5 41.1 -25.3 L41.55 -26.35 Q41.7 -26.75 42.4 -27.45 42.85 -27.9 43.0 -28.15 L42.9 -28.15 42.85 -28.25 42.85 -28.35 42.8 -28.35 Q42.7 -29.15 42.3 -29.8 41.85 -30.65 41.1 -30.95 40.85 -31.05 40.75 -31.1 L40.75 -30.85 40.65 -30.75 39.85 -32.05 39.3 -32.8 37.8 -32.45 37.75 -32.45 37.6 -32.4 37.6 -32.45 37.2 -32.55 Q35.6 -32.3 34.7 -31.95 33.9 -31.55 33.45 -30.85 32.85 -29.95 32.65 -29.8 32.0 -29.25 30.6 -29.0 L30.2 -29.05 Q29.85 -29.35 28.45 -29.85 L27.15 -30.25 27.1 -30.2 Q26.8 -30.15 26.45 -30.3 L26.4 -30.35 25.55 -30.35 Q25.6 -30.45 25.7 -30.5 24.75 -30.5 24.2 -30.35 23.7 -30.2 23.35 -29.8 L23.45 -29.8 Q22.5 -28.75 21.7 -27.3 21.0 -26.0 20.5 -24.7 L18.8 -24.7 18.7 -24.8 17.85 -24.85 16.9 -24.9 16.2 -24.95 15.4 -25.05 14.75 -25.1 Q13.6 -25.05 12.95 -24.8 12.25 -24.6 10.8 -23.65 10.2 -23.7 9.85 -24.0 L9.4 -24.3 Q9.0 -24.5 8.9 -24.55 8.55 -24.6 8.2 -24.8 L7.85 -25.05 7.8 -25.0 7.8 -25.1 Q7.6 -25.35 7.2 -25.7 L6.7 -26.0 6.65 -26.0 Q6.6 -26.0 6.3 -26.15 L6.3 -26.2 6.1 -26.2 4.25 -26.0 2.8 -25.75 1.9 -25.55 1.4 -25.4 0.8 -25.15 0.25 -25.0 -0.75 -24.7 -1.5 -24.45 -2.0 -24.35 Q-2.3 -24.3 -2.5 -24.2 L-2.95 -23.9 Q-3.5 -23.45 -4.05 -22.95 -3.55 -23.15 -2.65 -23.2 -2.6 -23.2 -2.65 -23.15 -2.7 -23.1 -2.7 -22.95 L-2.6 -22.55 -2.4 -22.0 -1.4 -21.85 Q-0.1 -21.9 0.45 -22.1 0.8 -22.2 0.9 -22.55 L1.0 -23.05 Q1.2 -23.35 1.85 -23.55 L2.35 -23.45 2.65 -23.15 3.25 -23.2 Q3.3 -23.35 3.35 -23.4 4.5 -23.5 4.8 -24.0 L5.05 -24.45 Q5.2 -24.8 5.45 -25.0 L6.05 -25.0 6.15 -24.95 6.2 -24.9 5.5 -24.75 Q5.2 -24.5 5.15 -24.1 5.05 -23.8 4.9 -23.7 4.45 -23.6 4.2 -23.4 3.95 -23.25 3.4 -23.15 L3.25 -22.95 2.5 -23.0 2.25 -23.25 1.85 -23.3 Q1.25 -23.05 1.15 -22.65 L1.1 -22.35 Q1.05 -22.15 0.95 -22.05 L0.65 -21.95 0.55 -21.7 Q0.5 -21.55 0.5 -21.3 L-0.35 -20.9 -0.85 -20.95 -1.35 -21.05 Q-1.5 -21.3 -1.75 -21.45 -2.1 -21.7 -2.5 -21.75 L-2.5 -21.9 -2.75 -21.95 -2.85 -22.0 -3.2 -22.05 -3.9 -21.95 -4.5 -21.85 -4.75 -21.75 -5.2 -21.7 -5.6 -21.25 -6.7 -20.0 -8.05 -18.6 -8.15 -18.5 Q-8.6 -18.1 -8.8 -17.8 L-8.8 -17.45 -8.5 -17.4 -8.3 -17.35 -6.95 -17.45 -5.6 -17.75 -4.85 -17.9 -3.75 -18.15 Q-3.6 -18.35 -3.35 -18.0 -3.0 -17.5 -2.9 -17.35 -2.7 -17.1 -2.15 -16.75 -1.7 -16.45 -1.7 -16.25 L-1.8 -15.45 Q-1.8 -15.1 -1.7 -14.55 L-1.55 -13.95 -1.2 -14.0 -1.15 -13.95 -1.05 -14.1 Q-0.85 -13.95 -0.85 -13.85 L-0.85 -13.75 Q-0.9 -13.7 -1.05 -13.65 L-1.2 -13.65 -1.2 -13.7 -1.35 -13.6 -1.3 -13.5 Q-1.35 -13.45 -1.4 -13.4 L-1.85 -13.4 -2.0 -13.15 Q-2.05 -13.05 -2.25 -13.0 L-2.4 -13.0 -2.55 -13.05 -4.15 -13.05 -4.55 -13.0 -5.1 -12.9 -5.3 -12.9 -5.55 -12.85 -6.15 -12.85 -6.6 -12.9 Q-7.1 -12.95 -7.3 -13.2 -7.45 -13.3 -7.6 -13.6 L-8.25 -14.3 Q-8.5 -14.5 -9.45 -15.65 L-9.8 -15.5 -9.85 -15.5 -9.85 -15.6 Q-9.85 -15.95 -9.1 -17.45 -9.1 -17.6 -8.95 -17.85 L-8.9 -18.0 -8.85 -18.0 -8.3 -18.65 Q-8.3 -18.9 -7.55 -19.7 L-6.75 -20.45 -5.9 -21.4 -5.7 -21.7 -6.0 -21.75 Q-6.5 -21.9 -7.1 -22.25 -7.6 -22.55 -8.05 -22.9 L-8.3 -23.2 Q-8.5 -23.4 -8.6 -23.5 -9.1 -23.85 -10.6 -23.95 -11.1 -24.5 -11.25 -25.4 L-11.55 -26.8 -12.1 -26.85 -12.1 -27.05 -11.45 -26.9 Q-11.35 -26.7 -11.15 -25.5 -11.0 -24.6 -10.5 -24.05 -9.25 -24.1 -7.8 -22.95 L-6.75 -22.15 Q-6.2 -21.75 -5.65 -21.75 -5.4 -22.1 -5.3 -22.35 -5.25 -22.5 -4.95 -22.8 L-4.25 -23.8 -3.95 -24.2 Q-3.55 -24.6 -3.2 -25.1 L-2.55 -26.1 Q-1.85 -26.15 -1.55 -26.25 L-1.0 -26.45 Q0.0 -26.65 4.7 -26.85 L5.7 -26.8 Q5.8 -26.8 6.2 -26.5 L6.6 -26.2 6.7 -26.15 Q7.05 -26.05 7.2 -25.9 7.55 -25.5 7.85 -25.3 L8.0 -25.2 Q8.5 -25.0 9.2 -24.6 L9.45 -24.5 10.0 -24.25 10.2 -24.3 Q10.35 -24.4 10.4 -24.55 L10.4 -24.8 Q10.4 -25.1 10.3 -25.65 L10.15 -25.7 9.25 -26.55 Q9.1 -26.65 8.4 -27.35 L8.4 -27.4 Q7.95 -27.55 7.55 -27.9 L7.15 -28.15 Q6.55 -28.65 6.2 -28.6 L6.1 -28.55 Q5.05 -28.8 3.0 -28.85 L1.95 -28.7 1.25 -28.7 0.7 -28.75 -1.6 -28.95 -3.25 -29.1 -3.65 -29.15 -3.8 -29.35 -4.1 -29.35 -4.25 -29.5 -4.2 -29.55 -4.6 -29.65 -4.75 -29.6 -5.85 -29.65 -6.65 -29.55 Q-7.75 -29.35 -8.1 -28.95 L-8.15 -29.0 -8.15 -28.9 Q-8.6 -28.9 -9.4 -28.7 -10.2 -28.55 -10.55 -28.55 L-11.9 -28.65 -12.4 -28.6 -14.15 -28.4 -14.9 -28.45 Q-15.1 -28.9 -15.3 -29.15 -15.75 -29.65 -16.65 -29.7 -16.9 -30.0 -17.55 -31.1 -18.35 -32.1 -19.35 -32.45 L-19.8 -32.5 -20.15 -32.5 -21.5 -32.15 Q-22.25 -31.9 -23.35 -31.35 -23.8 -31.1 -24.05 -30.45 -24.3 -29.7 -24.55 -29.5 L-25.3 -29.35 Q-26.1 -29.0 -27.8 -28.5 -30.5 -27.7 -31.05 -27.35 -32.1 -27.5 -32.85 -28.45 -33.2 -28.95 -33.35 -29.05 -33.65 -29.3 -34.05 -29.25 L-34.2 -30.55 -34.25 -30.85 -34.45 -31.1 -35.3 -31.8 Q-36.05 -32.3 -36.25 -32.3 -36.6 -32.3 -36.85 -31.75 -37.05 -31.35 -37.05 -31.15 -37.05 -31.0 -36.65 -30.4 -36.9 -30.0 -37.1 -29.35 -37.45 -28.3 -37.45 -27.05 -37.45 -26.2 -37.35 -25.8 -37.3 -25.55 -37.05 -25.25 L-37.1 -25.0 Q-37.45 -24.0 -37.6 -22.85 L-37.7 -21.6 -37.75 -20.65 Q-37.75 -20.3 -37.55 -19.7 L-37.35 -19.3 -37.35 -19.1 Q-37.35 -18.7 -37.2 -18.4 -37.1 -18.2 -36.9 -18.1 L-36.75 -17.9 -36.15 -17.55 -35.85 -17.4 -35.75 -17.15 Q-35.6 -16.75 -35.3 -16.45 -34.8 -15.85 -34.05 -15.6 -33.9 -15.5 -33.7 -15.4 -32.8 -14.9 -29.55 -14.05 L-29.2 -13.8 Q-28.65 -13.45 -28.25 -13.25 -27.15 -13.75 -25.45 -14.1 L-24.0 -14.3 -24.0 -14.4 Q-24.0 -14.55 -24.25 -14.9 -24.5 -15.25 -24.5 -15.4 -24.5 -15.6 -24.45 -15.65 L-24.35 -15.7 Q-23.6 -15.75 -22.85 -16.05 -22.35 -16.25 -22.15 -16.45 -21.5 -16.4 -20.55 -16.15 -19.9 -16.0 -18.95 -16.05 -18.85 -16.2 -18.75 -16.4 L-18.4 -16.45 -18.35 -16.4 Q-18.35 -16.35 -18.35 -16.2 -18.35 -15.8 -19.7 -15.05 -20.15 -14.85 -20.45 -14.65 -21.05 -14.15 -21.55 -13.45 -22.05 -12.7 -22.85 -11.4 L-23.25 -11.4 Q-23.6 -11.55 -23.65 -11.7 -23.9 -11.85 -25.45 -12.1 L-25.7 -12.3 Q-26.0 -12.45 -26.05 -12.5 L-26.6 -12.45 Q-28.2 -11.95 -29.1 -11.95 L-29.85 -11.95 Q-30.6 -12.45 -31.3 -12.95 -31.85 -13.3 -33.45 -13.75 L-33.65 -14.05 Q-34.4 -14.4 -34.9 -15.3 L-35.1 -15.75 -35.8 -16.3 Q-37.0 -17.3 -37.45 -16.95 -37.7 -17.4 -37.8 -18.3 L-37.8 -18.55 -37.9 -18.85 Q-38.0 -19.15 -38.05 -19.65 L-38.05 -19.8 -38.15 -20.55 -38.1 -22.1 Q-38.05 -23.6 -38.1 -24.4 -38.1 -25.05 -38.0 -26.3 -37.85 -27.65 -37.85 -28.2 L-38.05 -29.85 -38.2 -31.0 -38.4 -31.5 Q-38.5 -31.65 -39.1 -32.25 -39.9 -33.55 -40.95 -33.95 L-40.95 -34.8 Q-40.9 -34.85 -40.8 -35.1 L-40.85 -35.15 -40.75 -35.25 -40.65 -35.5 -40.65 -35.45 Q-40.3 -36.05 -40.05 -37.1 -39.9 -37.8 -38.6 -38.25 -37.85 -38.55 -37.15 -38.6 L-37.25 -38.55 -37.0 -38.5 -36.95 -38.55 -35.95 -38.45 Q-33.8 -38.5 -32.3 -38.85 L-31.15 -39.2 -31.2 -39.0 Q-31.25 -38.85 -31.3 -38.8 -31.5 -38.65 -32.85 -38.6 L-34.1 -38.35 Q-34.8 -38.25 -36.05 -38.35 -36.8 -38.5 -37.9 -37.75 -38.9 -37.15 -38.9 -37.0 -38.9 -36.85 -38.65 -36.05 -38.4 -35.3 -38.4 -35.1 -37.8 -35.05 -37.6 -34.8 -37.5 -34.6 -37.4 -34.5 L-37.25 -34.45 -36.7 -34.4 Q-36.7 -34.35 -36.55 -34.2 L-36.55 -34.15 -36.6 -34.15 -36.05 -33.8 Q-35.35 -33.35 -35.2 -33.1 L-34.7 -32.4 -34.5 -32.15 -34.4 -32.15 -34.35 -32.05 -34.35 -31.9 -34.25 -31.7 Q-34.05 -31.2 -33.25 -30.35 L-32.0 -29.05 -30.9 -28.9 -30.3 -28.85 Q-29.1 -28.85 -26.95 -29.2 L-25.2 -29.55 -24.75 -29.7 -24.85 -29.65 -24.65 -29.65 Q-24.45 -29.95 -24.25 -30.65 -24.0 -31.25 -23.4 -31.55 -22.35 -32.05 -21.6 -32.4 -21.3 -32.6 -21.1 -32.65 L-20.8 -32.7 Q-19.7 -33.1 -18.9 -33.1 L-17.05 -33.05 Q-17.1 -32.95 -16.65 -32.85 L-15.4 -31.35 Q-14.6 -30.4 -14.25 -29.9 L-13.25 -29.25 Q-12.9 -29.05 -12.5 -28.9 L-10.65 -29.05 Q-10.5 -29.0 -10.45 -28.9 L-10.4 -28.85 -10.5 -28.8 -9.65 -28.9 -8.3 -29.1 -8.25 -29.45 Q-8.2 -29.7 -8.2 -29.9 L-8.0 -30.0 -7.6 -29.95 -7.45 -29.9 -7.4 -29.95 Q-7.2 -29.95 -7.15 -29.9 L-7.05 -29.8 -5.85 -29.75 -4.9 -29.8 -4.65 -29.85 -4.3 -29.85 -4.05 -29.8 Q-4.0 -29.75 -3.65 -29.7 L-3.75 -29.55 Q-1.4 -29.6 0.35 -30.1 L1.45 -30.5 Q1.95 -30.65 2.2 -30.65 L2.85 -30.5 Q3.55 -30.25 4.1 -30.15 L6.75 -29.65 Q6.95 -29.4 7.35 -28.75 L7.6 -28.25 7.65 -28.25 8.25 -27.65 Q9.35 -27.0 10.45 -26.45 10.6 -26.45 10.7 -26.55 10.8 -26.65 10.95 -26.65 11.05 -26.65 11.15 -26.55 L11.4 -26.35 Q11.8 -26.05 12.7 -26.05 L16.25 -25.85 Q16.3 -25.85 16.3 -25.75 16.3 -25.65 16.5 -25.65 16.55 -25.65 17.7 -26.1 L19.0 -26.55 Q19.95 -26.8 20.25 -26.95 20.9 -27.25 21.05 -27.65 21.1 -27.85 21.7 -28.4 L22.25 -28.85 22.25 -28.9 Q22.5 -29.35 22.85 -29.55 L22.9 -29.7 Q23.1 -30.15 23.45 -30.35 L24.25 -30.6 Q25.0 -30.75 25.75 -30.8 L25.75 -30.85 Q26.15 -30.8 26.5 -30.65 L27.0 -30.5 26.95 -30.5 26.85 -30.6 27.0 -30.7 28.3 -30.35 Q29.25 -30.15 29.45 -30.15 30.1 -30.15 30.7 -30.5 31.7 -31.05 31.8 -31.1 32.3 -31.25 32.6 -31.65 33.05 -32.2 33.15 -32.3 33.5 -32.35 34.05 -32.65 34.75 -32.9 36.4 -32.9 L36.95 -32.8 37.55 -32.7 Q37.7 -32.7 38.35 -33.3 L39.15 -34.05 Q39.35 -34.2 39.7 -34.75 L40.6 -35.45 39.9 -36.25 39.85 -36.2 Q39.75 -36.25 39.65 -36.3 L39.45 -36.5 39.35 -36.5 Q38.35 -36.3 38.25 -35.65 L38.2 -35.0 Q38.15 -34.6 37.9 -34.35 L37.45 -34.35 36.0 -34.4 Q35.35 -35.4 35.1 -35.6 L34.55 -35.55 34.5 -35.55 Q33.9 -35.2 33.35 -34.75 L33.05 -34.55 33.05 -34.45 Q32.95 -34.3 32.5 -33.85 L31.95 -33.3 31.25 -32.7 Q30.6 -32.2 30.35 -32.2 29.4 -32.2 29.0 -32.45 28.9 -32.5 28.7 -32.65 L28.35 -32.8 28.1 -32.8 Q27.4 -32.25 27.25 -32.05 L26.75 -32.05 26.25 -32.15 25.55 -32.1 Q25.0 -31.5 24.8 -31.45 L24.65 -31.5 25.05 -31.85 25.5 -32.25 25.85 -32.25 26.35 -32.2 27.15 -32.2 28.05 -32.95 28.25 -32.95 28.15 -33.1 27.15 -33.0 26.6 -32.9 26.35 -32.95 26.3 -33.05 26.3 -33.25 26.7 -33.3 27.25 -33.35 28.2 -33.35 28.8 -32.9 28.9 -32.9 28.85 -32.85 28.9 -32.85 Q29.45 -32.45 29.95 -32.45 30.75 -32.45 31.8 -33.4 32.7 -34.2 32.9 -34.8 L33.35 -36.0 Q33.75 -36.8 34.55 -37.2 M35.15 -35.7 L35.65 -35.05 36.1 -34.5 37.45 -34.5 37.8 -34.55 Q38.0 -34.8 38.05 -35.2 L38.1 -35.85 Q38.2 -36.4 38.75 -36.6 36.6 -36.6 34.85 -35.7 L35.15 -35.7 M40.0 -32.1 Q40.55 -31.25 41.15 -31.1 41.7 -30.95 42.35 -30.05 L42.5 -29.85 Q42.0 -31.1 42.0 -31.15 L42.0 -31.85 Q42.0 -32.2 41.85 -32.45 41.55 -32.9 40.35 -33.25 L39.95 -33.0 39.45 -32.85 Q39.7 -32.55 40.0 -32.1 M14.05 -25.2 L14.05 -25.2 M0.4 -21.85 L0.35 -21.85 Q-0.1 -21.75 -0.45 -21.75 L-1.05 -21.75 -1.5 -21.8 -2.1 -21.85 -2.25 -21.85 Q-1.95 -21.75 -1.65 -21.55 -1.35 -21.35 -1.25 -21.15 -1.05 -21.05 -0.75 -21.05 -0.05 -21.05 0.2 -21.45 0.35 -21.65 0.4 -21.85 M22.1 -12.9 L22.2 -11.85 Q22.3 -10.9 22.3 -10.15 22.3 -9.7 22.5 -9.35 22.85 -8.85 23.7 -8.45 L24.2 -8.15 Q24.0 -8.45 23.9 -8.85 23.8 -9.2 23.8 -9.7 L23.8 -10.55 Q23.75 -11.7 23.55 -12.1 23.2 -12.95 22.2 -13.2 L22.2 -13.15 Q22.2 -13.05 22.1 -12.9 M22.05 -10.5 L21.85 -10.05 21.6 -9.55 Q21.6 -9.3 22.3 -7.95 22.45 -7.7 22.65 -7.15 22.85 -6.65 23.25 -6.35 L24.75 -6.3 26.3 -6.25 27.3 -6.25 Q27.4 -6.65 27.9 -7.35 28.3 -7.95 28.6 -8.2 L27.85 -7.75 26.55 -6.9 25.25 -7.25 25.2 -7.25 25.1 -7.3 25.05 -7.3 Q24.15 -7.6 23.6 -8.1 23.1 -8.4 22.8 -8.7 22.2 -9.2 22.15 -9.75 L22.05 -10.5 M43.1 -22.15 L43.1 -22.2 43.5 -22.15 Q43.55 -22.05 43.65 -21.8 L43.85 -21.4 43.8 -21.35 43.5 -21.4 43.4 -22.0 43.05 -22.1 43.1 -22.15 M39.3 -19.05 L39.1 -19.55 39.05 -19.3 Q38.75 -18.55 38.7 -17.7 L38.65 -16.35 Q38.65 -16.25 38.6 -16.2 L38.55 -16.45 Q38.45 -16.1 38.4 -15.7 38.95 -15.85 39.0 -16.15 L39.0 -16.85 39.35 -17.55 Q39.55 -18.0 39.55 -18.25 L39.3 -19.05 M45.5 -19.55 L45.5 -19.6 45.55 -19.65 45.85 -19.6 45.85 -19.25 Q45.9 -19.0 46.05 -18.75 45.7 -18.9 45.7 -19.05 45.7 -19.1 45.75 -19.25 45.75 -19.45 45.7 -19.5 L45.5 -19.55 M45.95 -17.85 L46.05 -17.85 46.15 -17.65 Q46.2 -17.5 46.2 -17.3 L46.2 -17.1 Q46.15 -16.9 45.9 -16.85 L45.8 -16.85 45.8 -17.05 Q45.8 -17.2 45.85 -17.25 L46.05 -17.3 45.95 -17.35 Q45.9 -17.35 45.9 -17.5 L45.95 -17.75 45.95 -17.85 M43.65 -14.35 L43.8 -14.4 43.85 -14.5 44.2 -14.6 44.4 -14.65 Q44.4 -14.55 44.3 -14.45 43.95 -14.35 43.9 -14.3 L43.8 -14.35 43.5 -14.2 43.65 -14.35 M32.15 -27.5 Q31.9 -27.65 31.75 -27.8 31.25 -27.7 31.0 -27.5 L30.7 -27.2 Q30.3 -26.95 28.45 -26.95 28.4 -26.95 28.45 -26.9 28.5 -26.85 28.5 -26.7 28.5 -26.55 28.4 -26.45 L28.3 -26.35 26.15 -26.35 26.05 -26.4 Q25.3 -26.55 24.7 -26.75 23.9 -26.95 23.75 -27.1 23.35 -26.9 23.3 -26.85 L23.1 -26.85 23.4 -27.1 Q23.7 -27.3 23.75 -27.3 L26.2 -26.55 28.2 -26.55 Q28.2 -26.6 28.2 -26.75 L28.2 -27.1 28.25 -27.1 Q28.3 -27.1 28.35 -27.15 L28.85 -27.1 Q30.05 -27.25 30.7 -27.65 31.25 -28.0 31.7 -28.0 32.1 -28.0 32.3 -27.8 32.55 -27.6 32.9 -27.55 33.1 -27.55 33.15 -27.45 L32.9 -27.25 32.55 -27.25 32.15 -27.5 M33.85 -10.65 Q33.7 -10.4 33.5 -10.3 L33.45 -10.35 Q33.7 -10.6 34.1 -11.2 34.55 -11.65 35.35 -11.85 L35.3 -11.7 35.85 -11.75 36.4 -11.85 37.05 -11.95 37.5 -12.45 Q37.65 -12.7 37.7 -12.9 L37.8 -12.9 37.85 -12.7 Q37.75 -12.35 37.6 -12.15 37.3 -11.7 36.4 -11.65 34.65 -11.6 34.15 -11.05 34.05 -10.95 33.85 -10.65 M-46.65 -21.65 Q-46.95 -21.5 -47.1 -21.45 -47.05 -21.2 -46.85 -21.05 -46.5 -20.8 -46.1 -21.1 -45.8 -20.95 -45.75 -20.75 -45.7 -20.65 -45.7 -20.35 L-45.75 -20.1 Q-45.8 -19.95 -46.05 -19.95 L-46.05 -19.75 Q-46.05 -19.65 -45.95 -19.6 L-45.65 -19.55 -45.35 -19.45 -45.45 -19.4 -46.05 -19.45 -46.15 -19.55 -46.2 -19.8 Q-46.2 -19.85 -46.0 -20.05 -45.85 -20.25 -45.85 -20.4 -45.85 -20.7 -46.2 -20.95 L-46.8 -20.95 -47.1 -21.05 Q-47.25 -21.25 -47.25 -21.6 -46.95 -21.7 -46.95 -21.75 -46.65 -21.7 -46.65 -21.65 M-46.4 -24.2 L-46.4 -24.0 Q-46.4 -23.8 -46.25 -23.6 -46.1 -23.35 -45.95 -23.45 -45.8 -23.6 -45.7 -23.5 L-45.6 -23.35 Q-45.5 -23.35 -45.25 -23.5 L-44.85 -23.8 -44.7 -23.65 -44.85 -23.65 -45.1 -23.5 -45.4 -23.25 -45.9 -23.25 Q-46.4 -23.4 -46.5 -23.6 L-46.55 -24.0 Q-46.55 -24.3 -46.35 -24.45 L-45.85 -24.75 -45.85 -24.85 -46.2 -24.75 Q-46.2 -24.95 -46.15 -24.95 -45.65 -24.95 -45.6 -24.85 -45.95 -24.3 -46.4 -24.2 M-6.85 -29.7 L-7.0 -29.7 -6.9 -29.65 -6.95 -29.6 -6.85 -29.6 -6.55 -29.65 -6.85 -29.7 M-40.85 -34.7 L-40.85 -34.05 -40.55 -34.0 -38.9 -32.4 Q-38.45 -31.95 -38.2 -31.6 L-38.2 -31.95 Q-38.4 -32.25 -38.6 -32.7 L-38.65 -32.75 -38.65 -32.8 -38.8 -33.25 -39.0 -33.55 -40.05 -34.95 -40.75 -34.95 Q-40.8 -34.8 -40.85 -34.7 M-44.0 -28.55 L-43.95 -28.55 Q-42.85 -29.05 -42.6 -29.1 -42.3 -29.15 -41.65 -28.7 -41.8 -28.65 -41.9 -28.45 -41.95 -28.25 -42.15 -28.25 -42.15 -28.35 -41.95 -28.65 L-42.65 -29.0 Q-42.75 -29.0 -43.1 -28.75 -43.45 -28.45 -43.85 -28.4 L-43.6 -27.6 Q-43.4 -27.05 -43.4 -26.65 -43.3 -26.65 -43.25 -26.7 L-42.85 -26.7 -41.9 -25.9 -41.05 -25.25 -40.7 -25.45 Q-40.4 -25.6 -40.3 -25.7 L-40.2 -25.8 -39.95 -25.85 -40.25 -25.9 Q-40.6 -26.0 -40.6 -26.1 L-40.65 -26.1 -40.75 -26.2 Q-40.7 -26.2 -40.6 -26.15 L-40.5 -26.05 Q-39.85 -26.0 -39.75 -25.9 L-39.55 -25.75 -39.65 -25.65 Q-40.2 -25.75 -40.6 -25.45 L-41.0 -25.1 -41.95 -25.85 Q-43.0 -26.55 -43.5 -26.5 L-43.5 -26.95 Q-43.5 -27.25 -43.55 -27.45 -43.6 -27.6 -44.0 -28.35 L-44.0 -28.55 M-37.1 -34.2 L-38.0 -34.45 -38.75 -34.65 -38.75 -34.55 -38.8 -34.1 Q-38.8 -33.85 -38.6 -33.35 -38.25 -32.85 -38.1 -32.45 L-37.55 -31.6 -37.5 -31.5 -37.45 -31.5 Q-37.45 -31.45 -37.55 -31.45 L-37.25 -31.05 -37.3 -31.1 Q-37.3 -31.2 -36.8 -32.25 -36.6 -32.5 -36.15 -32.4 -35.85 -32.35 -35.55 -32.15 -34.8 -31.65 -34.35 -31.25 L-34.45 -31.6 -34.5 -31.6 -34.55 -31.7 Q-34.6 -31.75 -34.6 -31.9 L-34.6 -32.05 Q-34.85 -32.55 -35.25 -32.95 -36.1 -33.8 -37.15 -34.15 L-37.1 -34.2 M-38.9 -34.7 L-39.65 -34.9 -39.95 -34.95 -39.0 -33.85 -39.05 -34.05 Q-39.05 -34.3 -38.95 -34.65 L-38.9 -34.7 M-28.45 -37.6 Q-28.5 -38.25 -29.75 -38.55 L-30.6 -38.8 Q-31.05 -38.95 -31.1 -39.15 L-31.1 -39.2 -31.05 -39.25 -30.75 -39.0 Q-30.5 -38.8 -30.0 -38.65 L-28.6 -38.25 -28.45 -38.05 Q-28.1 -37.8 -27.9 -37.35 -27.65 -36.7 -27.45 -36.4 -26.85 -35.35 -24.65 -35.3 -24.5 -35.2 -24.5 -35.1 L-24.5 -35.05 -24.55 -35.0 -24.9 -35.0 -25.3 -34.8 -25.95 -34.45 Q-26.25 -34.55 -27.0 -34.95 -27.8 -35.4 -28.2 -35.5 -28.5 -35.95 -28.5 -36.55 L-28.45 -37.6 M-23.8 -14.35 L-22.55 -14.55 -21.85 -14.65 Q-21.25 -14.95 -20.85 -14.95 L-20.7 -14.95 -20.35 -15.05 -19.7 -15.5 -19.55 -15.45 Q-19.15 -15.7 -18.95 -16.0 L-19.05 -16.0 -19.6 -15.95 -20.7 -16.1 -21.55 -16.2 -22.05 -16.2 Q-22.25 -16.05 -22.85 -15.9 L-24.4 -15.45 -24.0 -14.85 Q-23.8 -14.45 -23.8 -14.35 M-44.65 -23.6 L-44.6 -23.5 Q-44.55 -23.35 -44.55 -23.15 L-44.6 -23.1 -45.0 -23.15 -44.95 -23.2 -44.65 -23.3 -44.65 -23.6 M-44.6 -17.8 Q-44.2 -17.5 -44.2 -17.15 L-44.2 -16.85 -44.25 -16.65 Q-44.55 -17.0 -44.5 -17.1 L-44.35 -17.35 -44.4 -17.5 Q-44.5 -17.65 -44.65 -17.7 L-44.65 -17.75 -44.6 -17.8 M-42.55 -14.35 L-41.95 -14.4 -41.7 -14.4 -41.65 -14.35 -41.95 -14.2 -42.6 -14.25 Q-42.7 -14.35 -42.7 -14.5 L-42.6 -14.5 -42.55 -14.35 M-41.3 -14.5 Q-41.25 -14.45 -41.25 -14.3 L-41.25 -14.05 -41.3 -14.0 -41.45 -14.0 Q-41.55 -14.2 -41.6 -14.45 L-41.3 -14.45 -41.3 -14.5 M-37.5 -18.05 L-37.45 -17.35 Q-36.25 -16.95 -35.35 -16.2 L-35.65 -16.65 Q-35.75 -16.85 -36.3 -17.15 -36.8 -17.5 -37.0 -17.65 L-37.1 -17.7 Q-37.35 -17.85 -37.5 -18.05 M-25.6 -12.45 L-25.0 -12.3 -24.35 -12.15 -23.1 -11.6 Q-23.0 -11.6 -22.7 -12.0 L-22.05 -13.05 Q-21.55 -13.85 -21.0 -14.45 -21.45 -14.3 -21.75 -14.25 L-21.8 -14.2 Q-22.4 -13.9 -23.05 -13.4 -24.35 -13.2 -26.05 -12.65 L-25.95 -12.6 -25.6 -12.45 M-4.55 -22.45 L-4.6 -22.3 Q-4.65 -22.1 -4.8 -22.0 -4.25 -22.2 -3.35 -22.2 L-3.05 -22.15 -2.75 -22.05 -2.55 -22.0 -2.65 -22.4 Q-2.85 -22.8 -2.85 -23.05 -2.95 -23.1 -3.7 -22.9 L-4.25 -22.75 -4.55 -22.45 M-5.7 -21.35 L-5.4 -21.7 -5.45 -21.7 -5.7 -21.35 M-5.05 -21.9 L-4.85 -21.95 -5.0 -22.0 -5.05 -21.9 M-9.1 -17.15 L-9.1 -17.3 -9.35 -16.75 -9.7 -15.75 -9.7 -15.7 -9.55 -15.75 -9.4 -15.75 -7.85 -14.0 Q-7.0 -13.0 -6.55 -13.0 L-5.25 -13.05 -4.05 -13.25 -3.3 -13.25 -2.5 -13.2 -2.3 -13.2 -2.1 -13.4 -2.2 -13.45 -2.75 -13.9 Q-2.95 -13.9 -3.3 -14.35 -3.45 -14.55 -3.7 -14.55 -4.0 -14.6 -4.2 -14.75 L-4.95 -14.7 -5.15 -14.6 -5.3 -14.45 -5.5 -14.45 Q-6.2 -14.95 -7.05 -15.3 L-8.2 -15.8 Q-8.75 -16.05 -9.25 -16.1 L-9.25 -16.25 Q-9.25 -16.5 -9.15 -17.0 L-9.1 -17.15 M-8.95 -17.5 L-8.95 -17.4 Q-8.95 -17.0 -8.75 -16.85 -8.35 -16.65 -6.8 -16.4 L-6.6 -16.45 -5.65 -16.4 Q-4.6 -16.4 -4.1 -16.0 -4.05 -15.95 -3.5 -15.25 -3.05 -14.55 -2.1 -13.7 L-1.95 -13.7 -1.7 -13.85 -1.65 -13.9 -1.75 -14.15 -1.85 -14.7 Q-1.9 -15.1 -1.9 -15.8 L-1.85 -16.05 -1.8 -16.25 Q-1.8 -16.35 -2.3 -16.7 L-2.9 -17.2 -3.3 -17.75 Q-3.6 -18.1 -3.65 -18.1 L-5.45 -17.65 Q-7.35 -17.2 -8.3 -17.2 -8.45 -17.2 -8.85 -17.35 -8.95 -17.35 -8.95 -17.5" fill="#ffffff" fill-rule="evenodd" stroke="none"/>
    </g>
  </defs>
</svg>
