<?xml version="1.0" encoding="UTF-8" standalone="no"?>
<svg xmlns:ffdec="https://www.free-decompiler.com/flash" xmlns:xlink="http://www.w3.org/1999/xlink" ffdec:objectType="frame" height="150.25px" width="1977.45px" xmlns="http://www.w3.org/2000/svg">
  <g transform="matrix(1.0, 0.0, 0.0, 1.0, 1028.2, -47.1)">
    <use ffdec:characterId="1032" ffdec:characterName="ac_NephitDragonMarker" height="0.0" transform="matrix(1.0, 0.0, 0.0, 1.0, 189.25, 187.1)" width="0.0" xlink:href="#sprite0"/>
    <use ffdec:characterId="1032" ffdec:characterName="ac_NephitDragonMarker" height="0.0" transform="matrix(1.0, 0.0, 0.0, 1.0, 89.25, 187.1)" width="0.0" xlink:href="#sprite0"/>
    <use ffdec:characterId="1032" ffdec:characterName="ac_NephitDragonMarker" height="0.0" transform="matrix(1.0, 0.0, 0.0, 1.0, 309.25, 187.1)" width="0.0" xlink:href="#sprite0"/>
    <use ffdec:characterId="1032" ffdec:characterName="ac_NephitDragonMarker" height="0.0" transform="matrix(1.0, 0.0, 0.0, 1.0, 429.25, 187.1)" width="0.0" xlink:href="#sprite0"/>
    <use ffdec:characterId="1032" ffdec:characterName="ac_NephitDragonMarker" height="0.0" transform="matrix(1.0, 0.0, 0.0, 1.0, 529.25, 167.1)" width="0.0" xlink:href="#sprite0"/>
    <use ffdec:characterId="1032" ffdec:characterName="ac_NephitDragonMarker" height="0.0" transform="matrix(1.0, 0.0, 0.0, 1.0, 629.25, 147.1)" width="0.0" xlink:href="#sprite0"/>
    <use ffdec:characterId="1032" ffdec:characterName="ac_NephitDragonMarker" height="0.0" transform="matrix(1.0, 0.0, 0.0, 1.0, 729.25, 120.3)" width="0.0" xlink:href="#sprite0"/>
    <use ffdec:characterId="1032" ffdec:characterName="ac_NephitDragonMarker" height="0.0" transform="matrix(1.0, 0.0, 0.0, 1.0, 841.25, 92.8)" width="0.0" xlink:href="#sprite0"/>
    <use ffdec:characterId="1032" ffdec:characterName="ac_NephitDragonMarker" height="0.0" transform="matrix(1.0, 0.0, 0.0, 1.0, 949.25, 47.1)" width="0.0" xlink:href="#sprite0"/>
    <use ffdec:characterId="1032" ffdec:characterName="ac_NephitDragonMarker" height="0.0" transform="matrix(1.0, 0.0, 0.0, 1.0, -30.75, 167.1)" width="0.0" xlink:href="#sprite0"/>
    <use ffdec:characterId="1032" ffdec:characterName="ac_NephitDragonMarker" height="0.0" transform="matrix(1.0, 0.0, 0.0, 1.0, -144.15, 147.1)" width="0.0" xlink:href="#sprite0"/>
    <use ffdec:characterId="1032" ffdec:characterName="ac_NephitDragonMarker" height="0.0" transform="matrix(1.0, 0.0, 0.0, 1.0, -264.15, 133.7)" width="0.0" xlink:href="#sprite0"/>
    <use ffdec:characterId="1032" ffdec:characterName="ac_NephitDragonMarker" height="0.0" transform="matrix(1.0, 0.0, 0.0, 1.0, -390.8, 131.7)" width="0.0" xlink:href="#sprite0"/>
    <use ffdec:characterId="1032" ffdec:characterName="ac_NephitDragonMarker" height="0.0" transform="matrix(1.0, 0.0, 0.0, 1.0, -517.9, 138.05)" width="0.0" xlink:href="#sprite0"/>
    <use ffdec:characterId="1032" ffdec:characterName="ac_NephitDragonMarker" height="0.0" transform="matrix(1.0, 0.0, 0.0, 1.0, -638.55, 151.7)" width="0.0" xlink:href="#sprite0"/>
    <use ffdec:characterId="1032" ffdec:characterName="ac_NephitDragonMarker" height="0.0" transform="matrix(1.0, 0.0, 0.0, 1.0, -765.65, 173.0)" width="0.0" xlink:href="#sprite0"/>
    <use ffdec:characterId="1032" ffdec:characterName="ac_NephitDragonMarker" height="0.0" transform="matrix(1.0, 0.0, 0.0, 1.0, -905.35, 197.35)" width="0.0" xlink:href="#sprite0"/>
    <use ffdec:characterId="1032" ffdec:characterName="ac_NephitDragonMarker" height="0.0" transform="matrix(1.0, 0.0, 0.0, 1.0, -1028.2, 176.2)" width="0.0" xlink:href="#sprite0"/>
  </g>
  <defs/>
</svg>
