<?xml version="1.0" encoding="UTF-8" standalone="no"?>
<svg xmlns:ffdec="https://www.free-decompiler.com/flash" xmlns:xlink="http://www.w3.org/1999/xlink" ffdec:objectType="frame" height="911.25px" width="1068.5px" xmlns="http://www.w3.org/2000/svg">
  <g transform="matrix(1.0, 0.0, 0.0, 1.0, 158.8, 548.6)">
    <use ffdec:characterId="4609" height="304.85" transform="matrix(0.6142, 1.597, -1.597, 0.6142, 453.6, -362.75)" width="304.85" xlink:href="#sprite0"/>
    <use ffdec:characterId="4651" height="74.7" transform="matrix(7.0, 0.0, 0.0, 7.0, 5.6, -307.3)" width="78.5" xlink:href="#shape1"/>
  </g>
  <defs>
    <g id="sprite0" transform="matrix(1.0, 0.0, 0.0, 1.0, 0.0, 0.0)">
      <use ffdec:characterId="4608" height="43.55" transform="matrix(7.0, 0.0, 0.0, 7.0, 0.0, 0.0)" width="43.55" xlink:href="#shape0"/>
    </g>
    <g id="shape0" transform="matrix(1.0, 0.0, 0.0, 1.0, 0.0, 0.0)">
      <path d="M40.75 21.8 Q40.75 13.9 35.2 8.35 29.65 2.8 21.8 2.8 13.9 2.8 8.35 8.35 2.8 13.9 2.8 21.8 2.8 29.65 8.35 35.2 13.9 40.75 21.8 40.75 29.65 40.75 35.2 35.2 40.75 29.65 40.75 21.8 M43.55 21.8 Q43.55 30.8 37.15 37.15 30.8 43.55 21.8 43.55 12.75 43.55 6.35 37.15 0.0 30.8 0.0 21.8 0.0 12.75 6.35 6.35 12.75 0.0 21.8 0.0 30.8 0.0 37.15 6.35 43.55 12.75 43.55 21.8" fill="#ff9a2b" fill-opacity="0.078431375" fill-rule="evenodd" stroke="none"/>
      <path d="M37.95 21.8 Q37.95 15.05 33.2 10.35 28.5 5.6 21.8 5.6 15.1 5.6 10.35 10.35 5.6 15.05 5.6 21.8 5.6 28.5 10.35 33.2 15.1 37.95 21.8 37.95 28.5 37.95 33.2 33.2 37.95 28.5 37.95 21.8 M40.75 21.8 Q40.75 29.65 35.2 35.2 29.65 40.75 21.8 40.75 13.9 40.75 8.35 35.2 2.8 29.65 2.8 21.8 2.8 13.9 8.35 8.35 13.9 2.8 21.8 2.8 29.65 2.8 35.2 8.35 40.75 13.9 40.75 21.8" fill="#ff9a2b" fill-opacity="0.1254902" fill-rule="evenodd" stroke="none"/>
      <path d="M37.95 21.8 Q37.95 28.5 33.2 33.2 28.5 37.95 21.8 37.95 15.1 37.95 10.35 33.2 5.6 28.5 5.6 21.8 5.6 15.05 10.35 10.35 15.1 5.6 21.8 5.6 28.5 5.6 33.2 10.35 37.95 15.05 37.95 21.8 M35.15 21.8 Q35.15 16.25 31.2 12.35 27.35 8.4 21.8 8.4 16.2 8.4 12.3 12.35 8.4 16.25 8.4 21.8 8.4 27.35 12.3 31.25 16.2 35.15 21.8 35.15 27.35 35.15 31.2 31.25 35.15 27.35 35.15 21.8" fill="#ff9a2b" fill-opacity="0.15686275" fill-rule="evenodd" stroke="none"/>
      <path d="M35.15 21.8 Q35.15 27.35 31.2 31.25 27.35 35.15 21.8 35.15 16.2 35.15 12.3 31.25 8.4 27.35 8.4 21.8 8.4 16.25 12.3 12.35 16.2 8.4 21.8 8.4 27.35 8.4 31.2 12.35 35.15 16.25 35.15 21.8" fill="#ff9a2b" fill-opacity="0.2509804" fill-rule="evenodd" stroke="none"/>
    </g>
    <g id="shape1" transform="matrix(1.0, 0.0, 0.0, 1.0, -0.8, 43.9)">
      <path d="M26.9 -42.95 Q27.7 -42.6 29.3 -40.9 30.6 -39.55 31.0 -39.3 31.2 -39.25 31.25 -39.1 31.35 -38.95 31.35 -38.75 31.35 -38.6 31.25 -38.45 L30.75 -37.8 Q30.6 -37.6 30.55 -37.45 30.65 -36.45 31.95 -35.45 33.4 -34.3 36.2 -33.4 36.3 -33.35 36.4 -33.25 36.8 -32.85 36.8 -32.4 36.8 -32.3 36.7 -32.15 36.65 -32.05 36.55 -31.95 L36.3 -31.8 Q36.15 -31.7 35.95 -31.7 35.35 -31.75 34.75 -31.95 34.35 -32.1 34.15 -32.2 L34.05 -32.2 34.65 -31.6 35.05 -31.15 Q35.35 -31.35 35.85 -31.35 36.9 -31.4 38.2 -30.7 L39.05 -30.2 Q38.95 -31.0 38.95 -31.8 L38.9 -33.25 38.9 -33.3 Q38.9 -34.05 39.1 -34.5 L39.1 -34.55 Q39.3 -35.15 40.0 -35.85 41.05 -37.8 43.2 -38.75 L43.45 -38.8 44.95 -38.7 45.2 -38.65 45.4 -38.45 46.1 -37.4 Q46.3 -37.1 46.9 -36.6 47.3 -36.45 48.1 -36.05 49.4 -35.4 49.8 -35.0 L49.95 -34.75 51.0 -34.95 51.6 -35.05 52.25 -35.45 Q52.35 -35.55 52.45 -35.55 L52.7 -35.55 Q55.75 -34.75 57.05 -33.05 L57.1 -33.0 Q57.35 -32.7 58.1 -31.1 58.75 -29.6 58.8 -29.3 58.8 -29.05 58.7 -28.85 L58.7 -27.7 Q58.7 -27.5 58.55 -27.35 58.45 -27.2 58.2 -27.15 L57.55 -27.0 Q57.35 -26.95 57.15 -26.8 L57.2 -26.8 57.1 -26.75 Q57.35 -25.95 59.45 -25.1 61.4 -24.25 64.25 -23.7 L64.3 -23.7 Q64.55 -24.2 65.25 -24.8 L66.8 -26.05 Q66.9 -26.1 67.05 -26.15 L67.0 -26.15 Q67.15 -26.15 67.25 -26.15 74.0 -24.55 77.05 -17.8 79.1 -13.35 79.15 -7.8 79.3 -7.45 79.3 -7.25 79.3 -6.9 79.2 -6.75 79.15 -6.5 79.0 -6.4 78.95 -6.0 79.05 -5.75 L79.05 -5.55 Q79.1 -5.05 78.6 -4.75 L78.7 -4.15 78.75 -3.55 78.8 -3.45 78.8 -3.4 Q79.15 -2.0 79.15 1.1 79.15 2.4 77.8 5.95 L77.8 6.0 77.7 6.25 77.55 6.45 Q76.75 7.15 75.9 8.35 74.9 9.8 74.2 11.5 73.6 12.85 73.55 13.4 L73.55 13.45 73.5 13.8 Q73.5 14.05 73.55 14.25 L73.55 14.4 Q73.55 14.55 73.5 14.7 72.45 16.45 69.4 18.55 65.7 21.2 62.1 22.0 L62.05 22.0 Q60.3 22.15 60.25 21.3 L60.25 21.2 Q59.4 21.3 58.5 21.9 57.0 23.1 56.1 23.5 55.5 23.85 52.95 24.05 50.8 24.2 50.0 24.65 49.85 24.75 49.65 24.7 L48.95 24.65 Q48.75 24.6 48.65 24.5 48.5 24.4 48.45 24.2 L48.45 24.05 47.65 23.95 Q47.45 23.9 47.3 23.75 L47.15 23.6 Q46.75 23.35 46.65 23.2 L46.7 23.2 Q46.55 23.0 46.6 22.75 46.6 22.55 46.8 22.4 L47.0 22.25 47.05 22.25 47.05 22.2 47.35 22.1 47.3 22.0 46.85 21.35 Q45.5 20.9 44.7 19.9 L44.25 20.5 44.2 20.55 Q43.35 21.55 42.8 21.8 40.45 22.9 39.9 22.65 39.75 22.65 39.5 22.3 39.2 22.3 38.8 22.6 L38.75 22.6 Q38.15 23.0 37.65 23.15 L37.6 23.35 37.5 23.6 Q37.4 23.75 37.4 23.95 L37.75 24.0 Q37.9 24.05 37.95 24.15 L38.3 24.35 38.35 24.4 Q38.9 24.75 39.35 25.4 L39.4 25.55 39.45 25.75 39.5 25.8 Q39.7 25.8 39.8 25.95 39.95 26.1 39.95 26.35 39.95 26.55 39.85 26.7 39.7 26.9 39.45 26.9 L39.0 26.95 Q38.35 27.8 36.35 29.15 33.85 30.85 32.85 30.8 L31.0 30.65 29.6 30.5 Q24.7 29.4 23.0 27.05 L21.8 26.95 Q21.65 26.9 21.55 26.85 21.0 26.85 21.0 25.8 21.0 25.25 21.3 24.75 L21.35 24.7 21.6 24.3 Q21.7 24.1 21.85 24.0 22.1 23.7 22.75 24.1 L23.2 23.5 23.5 23.0 23.45 23.0 Q22.95 22.6 22.95 21.95 22.9 21.25 23.5 20.55 24.05 19.9 24.95 19.5 27.05 18.55 29.65 19.3 29.85 19.35 29.95 19.5 L30.2 19.85 30.2 19.75 Q30.2 19.6 30.25 19.5 L30.3 19.5 Q30.35 19.35 30.45 19.3 30.55 19.2 30.75 18.75 L31.0 18.3 Q30.95 17.65 30.4 17.1 29.65 16.45 28.4 16.1 L28.3 16.05 Q28.1 16.05 27.95 15.95 27.8 15.8 27.8 15.65 L27.75 15.65 Q27.75 15.45 27.8 15.3 L27.9 15.05 Q28.15 14.25 28.15 13.4 28.15 12.45 28.1 12.35 L28.1 12.15 28.15 12.2 Q27.85 11.75 27.3 10.6 26.6 9.75 25.85 9.8 L25.8 9.8 Q25.6 9.85 25.5 9.95 L25.45 9.95 25.4 10.0 25.3 10.15 25.3 10.2 25.25 10.2 25.15 10.4 25.15 10.45 Q25.2 10.7 25.2 11.4 L25.25 12.3 25.25 12.35 Q25.25 12.9 25.0 13.3 24.65 13.85 22.6 15.3 L22.4 15.4 22.15 15.4 Q20.7 15.05 19.95 15.1 19.55 15.15 19.2 15.4 L18.25 16.15 Q17.5 16.55 16.3 16.55 13.0 16.55 11.45 16.15 10.0 15.7 9.6 14.85 9.45 14.6 9.35 14.15 L9.35 14.1 9.2 13.7 Q9.0 13.35 8.35 13.2 8.15 13.15 8.05 12.95 7.9 12.8 7.95 12.55 7.95 12.35 8.15 12.2 10.4 10.35 10.85 9.85 11.45 9.1 11.45 7.7 11.4 5.85 10.2 4.25 8.55 2.05 5.5 1.55 5.25 1.55 5.15 1.35 4.9 1.05 4.65 0.5 L4.55 0.3 3.8 0.2 Q3.1 0.1 2.95 -0.25 2.85 -0.45 2.85 -0.65 2.9 -0.85 3.05 -1.0 L3.45 -1.4 3.55 -1.55 3.35 -1.7 Q3.05 -1.9 2.55 -2.1 2.35 -2.15 2.25 -2.35 L2.25 -2.3 Q2.1 -2.5 2.05 -3.05 L1.95 -3.45 1.75 -3.6 0.95 -4.15 Q0.85 -4.25 0.8 -4.4 0.75 -4.55 0.8 -4.75 0.85 -4.9 0.95 -5.0 1.45 -5.45 2.25 -5.9 3.15 -6.45 3.75 -6.5 L4.5 -7.3 5.3 -8.25 Q6.7 -9.75 7.45 -8.95 7.6 -8.85 7.75 -8.7 8.55 -9.55 9.05 -10.25 10.05 -11.55 10.45 -12.85 L10.5 -12.85 Q10.95 -14.2 10.95 -15.9 10.95 -17.1 10.35 -17.95 9.65 -19.0 8.4 -19.0 8.2 -19.0 8.05 -19.15 7.9 -19.25 7.85 -19.45 L7.8 -19.75 Q7.75 -19.95 7.85 -20.15 8.5 -21.4 9.85 -21.8 L9.85 -21.85 10.7 -22.1 Q11.0 -22.2 11.25 -22.35 11.4 -23.25 12.15 -24.05 13.25 -25.35 15.15 -25.35 20.15 -25.35 22.0 -23.35 L22.35 -22.95 Q22.3 -23.15 22.3 -23.55 22.3 -24.8 23.1 -25.8 L23.1 -25.85 Q24.0 -27.0 26.05 -27.95 L26.35 -28.0 Q27.75 -27.85 28.7 -27.6 L29.35 -27.5 Q29.15 -27.85 28.8 -28.2 L28.75 -28.25 Q28.05 -28.95 27.3 -29.3 L25.35 -29.5 25.25 -29.5 Q22.6 -29.9 20.75 -31.0 19.4 -31.8 18.35 -33.05 17.8 -33.7 17.65 -34.15 17.55 -34.4 17.5 -34.95 17.45 -35.55 16.75 -36.45 L16.45 -36.5 16.4 -36.55 Q15.95 -36.65 15.75 -36.7 14.2 -36.8 13.35 -37.05 L13.3 -37.05 12.5 -37.3 12.3 -37.3 12.3 -37.25 12.1 -37.0 12.05 -36.9 12.35 -36.5 12.35 -36.45 Q12.9 -35.75 12.85 -35.2 L12.85 -35.05 Q12.7 -34.7 12.6 -34.55 L12.6 -34.6 Q12.4 -34.25 12.0 -34.15 11.8 -34.1 11.6 -34.2 9.15 -35.4 8.3 -36.5 7.45 -37.5 7.45 -39.25 L7.45 -39.3 Q7.35 -40.2 8.95 -41.65 10.55 -43.05 11.55 -43.0 12.2 -43.0 12.45 -42.8 L12.5 -42.75 12.55 -42.75 12.45 -42.8 Q12.9 -42.55 12.85 -42.25 L12.85 -42.2 12.8 -41.85 12.8 -41.2 12.95 -41.15 15.05 -41.45 15.1 -41.45 18.65 -41.7 Q19.5 -43.05 20.7 -43.5 22.9 -44.45 26.85 -42.95 L26.9 -42.95 M33.95 -32.2 L34.0 -32.25 34.0 -32.35 33.95 -32.25 33.95 -32.2 33.95 -32.25 33.7 -32.35 33.65 -32.35 33.85 -32.15 33.95 -32.2 M33.9 -32.15 L33.9 -32.15 34.0 -32.05 34.0 -32.15 33.9 -32.15 M34.0 -32.2 L34.0 -32.2 M22.6 -22.55 Q23.05 -21.7 23.05 -20.6 23.1 -20.3 22.15 -18.05 L22.35 -18.05 Q22.55 -18.35 22.7 -18.85 L22.7 -19.0 Q23.05 -19.8 24.3 -20.0 L24.3 -20.25 Q24.3 -20.75 24.2 -21.1 L24.2 -21.05 Q23.95 -22.0 22.8 -22.4 22.65 -22.45 22.6 -22.55 M22.45 -22.75 L22.35 -22.95 Q22.35 -22.8 22.4 -22.75 L22.4 -22.75 22.5 -22.6 22.45 -22.75 M41.45 -25.7 Q41.25 -25.4 40.85 -24.95 40.45 -24.5 40.45 -24.15 L40.45 -23.5 Q40.65 -23.35 41.2 -23.15 L41.8 -23.2 42.0 -23.5 42.0 -23.55 Q42.15 -23.8 42.15 -24.1 41.9 -24.25 41.8 -24.4 L41.65 -24.6 Q41.55 -24.8 41.6 -25.05 41.6 -25.25 41.8 -25.4 L41.45 -25.7 M76.8 -7.8 L77.35 -7.25 Q77.45 -7.5 77.45 -7.7 L77.45 -7.75 77.2 -8.05 76.95 -8.0 76.8 -7.8 M25.7 6.15 Q25.5 6.7 25.5 7.05 L25.5 7.1 Q25.5 7.45 25.6 7.7 25.8 8.15 26.25 8.15 26.55 8.05 27.65 9.15 28.45 9.85 29.15 9.85 29.7 9.85 30.0 9.55 30.15 9.25 30.15 8.9 30.15 8.55 29.85 7.85 29.5 6.95 29.0 6.3 27.75 4.65 26.3 5.3 25.95 5.55 25.7 6.15 M31.05 20.4 L30.7 20.35 30.75 20.4 31.3 20.45 31.15 20.45 31.05 20.4 M39.5 26.1 L39.5 26.1 M22.9 24.25 L22.95 24.2 22.8 24.15 22.9 24.2 22.9 24.25" fill="#ff9a2b" fill-opacity="0.7019608" fill-rule="evenodd" stroke="none"/>
      <path d="M30.3 -38.15 Q30.0 -37.75 30.0 -37.5 30.0 -36.2 31.6 -35.0 33.15 -33.8 36.0 -32.85 36.2 -32.65 36.2 -32.45 L36.0 -32.3 Q35.45 -32.35 34.9 -32.5 34.4 -32.65 34.3 -32.8 L33.65 -32.7 Q33.65 -32.65 33.55 -32.6 33.45 -32.5 33.45 -32.05 L34.2 -31.25 35.0 -30.35 Q35.2 -30.75 35.9 -30.75 36.75 -30.8 37.95 -30.2 39.25 -29.55 40.05 -28.55 L40.25 -28.35 Q39.5 -29.95 39.5 -31.8 L39.5 -33.25 Q39.5 -33.9 39.65 -34.3 39.8 -34.85 40.5 -35.5 L40.5 -35.55 Q41.4 -37.35 43.45 -38.2 L44.95 -38.15 45.65 -37.05 Q45.9 -36.7 46.6 -36.1 47.0 -35.95 47.85 -35.55 49.0 -34.95 49.45 -34.55 L49.3 -34.35 48.65 -34.3 49.05 -34.0 Q49.5 -34.05 51.1 -34.4 L51.8 -34.5 Q52.4 -34.9 52.55 -35.0 55.45 -34.25 56.65 -32.65 56.9 -32.35 57.55 -30.85 58.2 -29.45 58.2 -29.3 58.2 -29.15 58.15 -28.95 L58.15 -27.7 57.35 -27.55 Q57.1 -27.45 56.85 -27.25 L56.75 -27.2 Q56.5 -27.0 56.5 -26.9 56.5 -25.7 59.2 -24.6 61.25 -23.7 64.25 -23.1 L64.7 -23.15 Q64.85 -23.7 65.6 -24.35 66.05 -24.75 67.15 -25.55 73.6 -24.05 76.55 -17.6 78.55 -13.15 78.55 -7.65 78.7 -7.4 78.7 -7.25 78.7 -6.8 78.55 -6.8 L78.5 -6.85 78.45 -6.5 Q78.4 -5.95 78.5 -5.55 78.5 -5.35 78.3 -5.2 77.55 -5.65 77.7 -6.4 L77.9 -7.05 Q78.0 -7.45 78.0 -7.7 L78.0 -7.9 77.95 -7.95 77.45 -8.65 76.7 -8.55 Q76.4 -8.35 76.1 -7.7 76.75 -7.05 77.65 -6.0 77.9 -5.6 78.15 -4.05 L78.2 -3.45 78.25 -3.3 Q78.55 -1.9 78.55 1.1 78.55 2.35 77.3 5.75 L77.2 6.0 Q76.3 6.75 75.45 8.05 74.4 9.5 73.65 11.25 73.0 12.8 73.0 13.45 L72.95 13.75 Q72.9 14.1 73.0 14.4 72.0 16.05 69.1 18.1 65.5 20.65 62.0 21.45 60.9 21.5 60.85 21.2 60.8 21.1 60.85 20.9 60.9 20.7 60.85 20.65 59.6 20.5 58.2 21.4 56.7 22.6 55.85 23.0 55.3 23.3 52.9 23.45 50.6 23.65 49.7 24.15 L49.0 24.05 Q49.35 23.85 49.8 23.65 L49.7 23.65 48.65 23.55 47.7 23.35 Q47.7 23.3 47.5 23.15 L47.15 22.85 47.3 22.7 Q47.6 22.55 48.15 22.45 48.25 22.1 48.5 21.85 L47.8 21.7 Q47.7 21.5 47.2 20.9 45.8 20.45 45.1 19.45 44.9 19.15 44.7 18.8 44.4 19.4 43.75 20.2 43.05 21.05 42.55 21.3 40.45 22.3 40.1 22.1 L39.9 21.9 Q39.8 21.7 39.5 21.7 39.1 21.7 38.5 22.1 37.8 22.55 37.3 22.65 L37.1 22.95 37.05 23.3 Q36.8 23.7 36.8 24.1 36.8 24.2 36.95 24.5 37.1 24.85 37.35 25.2 37.3 24.95 37.3 24.55 L37.5 24.5 Q37.55 24.6 38.0 24.85 38.5 25.15 38.85 25.7 L38.95 25.95 38.8 26.2 39.4 26.35 Q39.05 26.4 38.7 26.35 38.25 27.2 36.0 28.7 33.75 30.2 32.85 30.2 L31.05 30.1 Q29.75 30.0 29.7 29.95 24.9 28.85 23.3 26.5 L21.85 26.35 21.65 26.3 Q21.55 26.25 21.55 25.8 21.55 25.4 21.8 25.05 22.05 24.7 22.15 24.5 22.25 24.45 22.5 24.6 22.75 24.75 22.8 24.85 23.2 24.5 23.65 23.8 24.05 23.2 24.05 23.05 24.05 22.7 23.8 22.5 23.5 22.3 23.5 21.95 23.5 21.45 23.95 20.9 24.4 20.35 25.2 20.0 27.1 19.15 29.5 19.85 30.05 20.55 30.45 20.95 L32.35 21.0 Q33.75 20.95 33.85 21.0 33.85 21.05 33.65 21.15 35.95 20.75 36.95 20.45 L35.45 20.7 Q34.2 20.8 32.8 20.35 31.35 19.85 31.15 19.85 L30.8 19.8 30.8 19.75 Q31.0 19.6 31.3 19.05 L31.55 18.4 Q31.55 17.45 30.8 16.7 29.95 15.9 28.5 15.5 L28.35 15.5 28.45 15.2 Q28.7 14.35 28.7 13.4 28.7 12.3 28.65 12.15 L27.8 10.3 Q26.85 9.1 25.75 9.25 25.4 9.3 25.15 9.45 L25.0 9.6 Q24.85 9.75 24.8 9.9 L24.65 10.1 24.5 10.35 24.6 10.6 Q24.65 10.8 24.65 11.4 L24.65 12.35 Q24.65 12.75 24.5 13.0 24.25 13.45 22.3 14.85 20.7 14.45 19.9 14.5 19.3 14.6 18.8 14.95 L18.0 15.65 Q17.35 16.0 16.3 16.0 13.1 16.0 11.6 15.6 10.45 15.25 10.1 14.6 10.0 14.4 9.9 14.0 L9.75 13.45 Q9.5 12.85 8.5 12.65 10.9 10.7 11.3 10.2 12.0 9.3 12.0 7.7 12.0 5.7 10.65 3.9 8.9 1.55 5.55 1.0 5.35 0.75 5.15 0.3 L4.95 -0.3 3.9 -0.35 Q3.55 -0.4 3.45 -0.55 L3.85 -1.0 Q4.25 -1.4 4.3 -1.65 L3.7 -2.15 Q3.35 -2.45 2.7 -2.65 2.65 -2.75 2.6 -3.1 L2.5 -3.7 Q2.5 -3.8 2.05 -4.05 1.55 -4.4 1.35 -4.55 1.8 -4.95 2.5 -5.4 3.5 -5.95 4.0 -5.95 L4.9 -6.95 5.7 -7.85 Q6.65 -8.85 7.1 -8.55 7.35 -8.35 7.45 -8.0 7.7 -8.0 8.1 -8.25 8.95 -9.15 9.55 -9.9 10.55 -11.3 11.0 -12.65 11.5 -14.1 11.5 -15.9 11.5 -17.25 10.8 -18.3 10.0 -19.55 8.45 -19.55 L8.35 -19.9 Q8.9 -20.9 10.0 -21.3 L10.9 -21.55 Q11.45 -21.75 11.8 -22.05 11.85 -22.9 12.55 -23.7 13.5 -24.8 15.15 -24.8 19.8 -24.8 21.6 -22.95 22.5 -21.95 22.5 -20.55 22.5 -20.3 21.45 -17.8 L21.35 -17.45 22.65 -17.5 Q23.05 -17.9 23.25 -18.75 23.55 -19.4 24.95 -19.5 24.9 -19.7 24.85 -20.25 24.85 -20.85 24.75 -21.2 24.45 -22.4 23.0 -22.95 L22.9 -23.05 Q22.85 -23.1 22.85 -23.55 22.85 -24.65 23.55 -25.5 24.4 -26.55 26.3 -27.45 L28.6 -27.05 29.7 -26.85 Q29.95 -26.95 29.95 -27.25 L29.95 -27.5 Q29.75 -28.05 29.15 -28.65 28.35 -29.5 27.4 -29.85 L25.35 -30.05 Q22.8 -30.45 21.05 -31.5 19.8 -32.25 18.8 -33.45 18.3 -34.0 18.2 -34.35 18.1 -34.55 18.1 -34.95 18.05 -35.75 17.05 -37.0 L16.55 -37.1 Q16.0 -37.2 15.95 -37.3 14.35 -37.35 13.45 -37.6 L12.5 -37.85 11.95 -37.8 11.8 -37.55 11.65 -37.4 Q11.5 -37.25 11.5 -36.8 11.5 -36.7 11.9 -36.15 12.3 -35.6 12.3 -35.2 L12.15 -34.9 Q12.05 -34.75 11.85 -34.7 9.55 -35.8 8.7 -36.85 8.0 -37.75 8.0 -39.3 8.0 -40.0 9.35 -41.2 10.7 -42.45 11.55 -42.45 12.0 -42.45 12.2 -42.3 L12.3 -42.2 12.25 -41.9 Q12.2 -41.65 12.2 -41.25 12.2 -40.8 12.45 -40.7 12.75 -40.65 12.85 -40.55 L15.15 -40.9 19.0 -41.15 Q19.8 -42.55 20.9 -43.0 22.95 -43.8 26.65 -42.45 27.4 -42.05 28.85 -40.55 30.3 -39.0 30.8 -38.8 L30.3 -38.15 M41.0 -26.2 Q41.0 -25.95 40.45 -25.35 39.85 -24.7 39.85 -24.15 39.85 -23.4 39.95 -23.25 40.15 -22.85 41.15 -22.55 L42.05 -22.65 Q42.4 -23.0 42.55 -23.25 42.8 -23.8 42.7 -24.35 L43.05 -24.35 42.85 -24.4 Q42.4 -24.6 42.3 -24.7 L42.15 -24.95 Q42.4 -25.15 42.65 -25.2 L42.95 -25.25 Q41.65 -26.05 40.8 -27.3 41.0 -26.75 41.0 -26.2 M43.25 -24.3 L43.3 -24.2 43.3 -24.3 43.25 -24.3 M48.2 -34.25 L48.2 -34.2 Q48.3 -34.15 48.4 -34.1 L48.2 -34.25 M53.7 -34.6 L53.7 -34.6 M26.0 4.8 Q25.5 5.1 25.15 5.95 24.95 6.6 24.95 7.05 24.95 7.55 25.1 7.95 25.4 8.7 26.3 8.7 26.4 8.7 27.25 9.55 28.25 10.45 29.15 10.45 30.05 10.45 30.45 9.85 30.7 9.45 30.7 8.9 30.7 8.45 30.4 7.65 30.0 6.7 29.45 5.95 27.9 3.9 26.0 4.8" fill="#ffd327" fill-rule="evenodd" stroke="none"/>
      <path d="M26.2 -39.35 Q27.5 -38.05 27.5 -37.8 27.5 -37.5 27.05 -37.05 26.65 -36.65 26.65 -36.55 26.65 -36.05 28.8 -34.05 31.15 -31.85 31.5 -31.05 31.55 -31.0 31.5 -30.95 31.4 -30.85 30.95 -30.85 30.7 -30.85 30.3 -31.15 L29.55 -31.85 Q28.4 -32.85 27.55 -32.85 27.2 -32.85 26.65 -32.55 26.05 -32.3 25.7 -32.3 21.7 -32.3 20.2 -34.3 19.45 -35.35 19.45 -36.85 19.45 -37.2 19.55 -37.95 19.7 -38.7 19.7 -39.0 L20.3 -39.45 Q20.95 -39.95 21.05 -40.05 20.75 -40.55 20.85 -41.35 L22.2 -41.35 Q23.15 -41.3 24.45 -41.05 L26.2 -39.35 M45.15 -34.75 L45.45 -34.65 Q46.15 -34.5 46.3 -34.3 L46.15 -34.15 Q45.9 -34.0 45.5 -33.85 L45.45 -33.95 Q45.35 -34.0 45.35 -33.55 45.35 -33.45 45.8 -33.05 L46.3 -32.55 49.4 -32.65 Q50.5 -32.7 51.2 -32.65 L52.0 -33.05 53.5 -33.0 Q54.05 -32.35 54.8 -30.9 55.65 -29.15 55.95 -28.7 55.9 -28.55 55.7 -28.5 55.55 -28.45 55.5 -28.55 53.7 -27.95 53.35 -27.55 53.15 -27.35 53.1 -27.0 53.05 -26.85 53.05 -26.25 53.05 -26.05 53.15 -25.85 L53.2 -25.85 53.3 -25.55 53.35 -25.5 53.7 -24.95 Q53.65 -24.7 53.45 -24.55 L52.85 -24.65 Q52.7 -24.6 52.6 -24.45 52.75 -24.05 53.55 -23.7 54.0 -23.5 55.8 -22.85 L55.95 -22.8 56.05 -22.8 56.4 -22.9 Q57.2 -23.05 57.7 -23.05 L58.8 -22.95 60.65 -22.7 Q61.3 -22.05 62.05 -21.35 63.0 -20.5 63.35 -20.3 L65.15 -20.3 65.95 -20.5 67.15 -20.7 Q67.15 -21.35 67.45 -21.7 70.6 -21.05 71.85 -19.9 72.35 -19.45 72.75 -18.75 L73.5 -17.45 Q74.15 -16.3 75.25 -14.85 76.05 -13.65 76.05 -12.6 76.05 -12.2 75.9 -11.65 L75.65 -10.8 Q75.55 -10.75 75.4 -10.85 75.2 -11.0 74.8 -11.0 74.25 -11.0 73.95 -10.0 73.7 -9.35 73.7 -8.95 73.7 -8.55 74.55 -6.95 75.3 -5.55 75.85 -4.8 77.25 -2.9 77.35 -2.65 77.5 -2.3 77.5 -1.05 77.5 -0.2 76.65 2.35 75.85 4.65 75.55 5.05 73.65 8.1 72.15 8.4 71.7 8.5 71.6 8.65 71.5 8.95 71.5 10.2 71.5 11.05 71.0 12.1 70.4 13.35 69.35 14.4 66.65 17.15 62.0 17.85 L60.95 17.8 Q60.8 17.65 60.75 17.45 60.7 17.3 60.7 16.7 60.7 16.35 61.0 15.5 61.3 14.55 61.35 14.15 61.45 14.05 61.7 14.1 L62.45 14.15 Q64.25 14.15 64.8 12.55 64.95 12.1 65.1 11.25 65.2 10.4 65.3 10.15 65.0 10.35 63.55 11.9 L61.7 13.8 60.85 13.8 Q60.05 14.1 59.1 15.3 57.9 16.9 57.7 17.05 56.8 18.1 55.9 18.7 54.2 19.8 51.7 19.8 L50.65 19.75 50.05 19.7 Q49.45 19.05 49.35 18.7 L48.65 18.55 47.65 17.55 Q41.35 17.2 38.85 13.9 37.45 12.1 37.35 9.7 L37.35 9.25 Q37.35 8.65 37.75 8.1 L37.5 8.25 37.6 7.95 37.85 7.95 38.0 7.8 Q38.2 7.55 38.5 7.4 38.85 6.85 39.55 6.15 41.0 4.7 42.75 3.9 43.65 3.5 44.4 3.4 L45.05 2.4 Q46.3 0.25 46.3 -1.45 L46.3 -2.0 46.35 -2.4 46.35 -2.7 Q46.6 -3.45 47.55 -3.95 46.95 -3.95 46.05 -3.4 L46.05 -3.35 45.8 -3.35 45.7 -3.1 Q45.4 -2.9 45.15 -2.65 L45.45 -2.2 Q45.25 -1.45 45.05 -1.0 44.65 0.1 43.8 0.85 43.15 1.2 42.55 1.5 L42.4 1.5 Q41.1 3.15 40.65 3.85 L39.7 4.2 39.05 4.1 37.85 4.05 Q37.35 4.75 36.8 5.8 L36.05 7.15 Q36.05 7.55 35.6 8.45 35.15 9.3 35.15 9.8 35.15 11.15 37.85 14.05 38.9 15.2 40.0 16.1 41.05 17.05 41.55 17.2 L41.65 17.1 Q41.7 17.1 41.7 17.55 41.7 17.9 41.1 18.35 L40.3 18.85 38.85 18.85 Q38.1 18.25 37.75 18.2 36.5 18.25 33.5 18.2 32.5 17.8 32.4 17.0 L32.3 16.2 Q32.2 15.65 32.0 15.2 31.9 15.0 31.85 14.5 31.8 13.9 31.7 13.7 31.5 13.25 31.05 13.0 30.65 12.85 30.65 12.55 30.65 12.35 30.9 12.15 31.4 11.7 32.65 11.35 32.8 11.05 33.15 10.5 33.45 10.0 33.45 9.65 33.45 9.3 33.15 8.85 L32.95 8.5 Q32.2 8.25 31.8 7.1 31.6 6.6 31.5 6.05 31.45 5.65 31.45 5.55 L31.45 5.15 Q30.9 5.05 30.15 4.05 29.45 3.1 29.45 2.85 29.45 2.4 29.7 1.9 29.85 1.55 30.25 0.9 31.05 -0.6 31.05 -2.3 31.05 -4.3 30.15 -6.9 29.25 -9.55 27.95 -11.2 27.9 -10.25 28.25 -8.95 L29.0 -6.7 29.0 -5.9 Q29.25 -5.25 29.55 -4.15 30.0 -2.45 30.0 -1.85 30.0 -1.65 29.55 -0.8 29.15 0.05 29.15 0.3 29.15 1.45 28.7 2.2 L27.95 2.45 26.7 3.95 25.85 3.95 Q25.7 3.65 25.45 3.45 24.95 3.05 24.15 3.05 24.05 2.9 24.0 2.85 24.0 2.75 24.0 2.2 24.0 1.85 24.3 1.2 24.55 0.55 24.55 0.2 24.55 -0.15 24.15 -0.95 23.75 -1.75 23.7 -2.7 23.7 -3.35 23.45 -4.05 23.2 -4.7 22.85 -5.05 L22.15 -5.2 Q20.5 -6.9 20.3 -9.5 20.15 -10.95 20.55 -13.8 20.55 -14.0 20.5 -14.15 20.25 -13.7 19.7 -11.7 19.15 -9.7 19.15 -9.2 19.15 -8.7 19.65 -6.4 20.2 -4.15 20.3 -4.05 20.45 -3.85 20.9 -3.55 L21.65 -2.95 Q22.65 -2.2 22.7 -1.5 22.75 -1.1 23.1 -0.2 23.35 0.6 23.35 0.95 23.35 1.45 23.1 1.65 22.8 1.85 21.7 2.3 21.95 3.3 22.45 4.2 22.7 4.6 23.3 5.45 23.8 6.15 24.0 6.6 24.3 7.3 24.3 8.15 24.3 9.35 23.65 10.85 22.95 12.5 22.0 12.8 21.15 12.75 20.6 12.55 20.15 12.4 20.05 12.3 L19.0 12.35 Q18.85 12.5 18.2 12.65 L17.85 13.15 17.45 13.65 17.0 13.8 Q16.45 13.95 16.0 13.95 13.9 13.95 12.85 13.05 12.15 12.5 12.05 11.8 12.1 11.65 12.45 11.55 L13.3 11.45 Q14.2 10.7 14.65 9.25 15.0 8.1 15.0 6.65 15.0 4.85 14.75 3.95 14.25 2.15 12.7 1.55 11.85 -0.3 12.2 -1.45 L12.55 -2.25 Q12.8 -2.75 12.8 -3.15 12.8 -3.45 12.45 -3.85 12.0 -4.35 11.8 -5.05 11.65 -5.6 11.6 -5.95 11.5 -6.4 11.5 -6.9 11.5 -7.8 12.45 -9.1 13.5 -10.6 13.65 -11.05 13.85 -11.9 14.0 -13.2 14.05 -14.2 14.05 -14.95 14.05 -15.85 13.8 -16.65 13.4 -17.95 13.15 -19.15 L11.55 -19.3 Q11.5 -19.5 11.5 -20.05 L11.55 -20.15 Q11.65 -20.15 11.75 -20.05 11.7 -20.2 11.7 -20.35 L12.1 -20.25 Q12.5 -20.15 12.55 -20.05 13.05 -20.75 13.0 -20.85 12.95 -20.9 12.85 -20.9 12.85 -21.0 13.3 -21.1 13.8 -21.35 13.8 -22.3 L14.15 -22.7 Q15.75 -23.3 17.5 -23.3 18.15 -22.75 19.5 -22.1 20.5 -21.4 20.5 -20.35 20.5 -19.85 20.35 -18.8 L20.0 -17.0 19.35 -17.05 Q19.3 -16.85 19.3 -16.55 19.3 -16.15 19.55 -15.95 19.9 -15.6 19.95 -15.5 L20.3 -15.35 Q20.7 -15.25 20.8 -15.15 L21.35 -15.95 Q21.75 -16.4 22.3 -16.8 L24.3 -16.7 Q24.35 -16.95 24.45 -17.15 24.75 -17.8 25.7 -18.55 L26.7 -18.5 Q27.25 -17.65 27.85 -17.1 28.7 -16.3 29.45 -16.3 29.8 -16.3 30.1 -16.55 30.45 -16.85 30.85 -16.95 L31.4 -17.85 Q31.7 -18.45 31.7 -18.85 31.7 -19.15 30.9 -20.5 29.95 -22.05 29.35 -22.45 L27.7 -22.35 Q27.55 -22.25 27.5 -21.95 L27.5 -21.9 27.6 -21.8 Q27.6 -21.75 27.5 -21.75 L27.45 -21.55 27.0 -21.65 27.0 -21.75 Q26.35 -21.85 26.0 -22.7 25.7 -23.4 25.7 -23.8 25.7 -23.95 25.85 -24.35 26.0 -24.9 26.25 -25.25 26.95 -26.25 28.15 -25.35 L28.55 -25.0 28.7 -24.9 28.85 -24.9 28.85 -24.95 28.95 -25.05 Q29.1 -25.1 29.45 -24.95 29.85 -24.8 30.0 -24.65 L31.45 -24.7 Q31.65 -24.9 32.35 -25.8 33.05 -26.75 33.05 -26.95 33.05 -27.3 32.8 -27.45 32.5 -27.55 32.5 -27.95 32.5 -29.75 37.3 -29.65 37.9 -29.2 38.45 -28.25 39.05 -27.35 39.05 -26.85 L38.9 -25.8 Q38.7 -24.95 38.7 -24.5 38.7 -23.7 38.05 -24.0 37.4 -23.6 37.25 -23.45 37.1 -23.3 37.05 -23.05 L36.9 -22.8 Q36.8 -22.55 36.8 -22.1 36.8 -22.0 37.0 -21.95 L37.45 -21.8 Q38.15 -21.5 38.15 -20.5 L39.2 -20.35 Q39.65 -20.35 39.65 -19.75 39.55 -19.05 39.55 -18.85 39.6 -18.75 39.7 -18.6 L40.25 -19.0 39.7 -18.5 Q38.5 -17.5 38.0 -17.0 37.05 -16.0 37.05 -15.3 37.05 -14.85 37.15 -14.8 37.2 -14.8 37.2 -14.85 37.65 -15.1 38.05 -15.55 L38.75 -16.35 Q39.7 -17.4 40.8 -17.7 41.65 -17.95 42.7 -18.15 43.4 -18.25 43.5 -18.35 44.0 -18.8 44.35 -19.1 L44.8 -19.05 Q46.65 -19.05 46.95 -20.55 47.1 -21.3 46.85 -22.15 46.85 -22.4 47.1 -22.65 46.95 -23.4 46.95 -24.2 46.8 -24.9 46.2 -25.75 45.75 -26.4 45.3 -26.5 L45.0 -26.45 44.9 -26.5 Q44.75 -26.45 44.55 -26.35 44.3 -26.5 43.5 -27.85 L42.95 -28.8 Q42.65 -29.15 42.45 -29.45 L42.35 -29.65 Q42.0 -30.1 41.75 -31.3 41.5 -32.35 41.5 -33.05 41.5 -33.35 41.95 -34.2 42.4 -34.95 42.65 -35.2 43.2 -35.8 43.95 -35.6 44.25 -35.55 45.0 -35.05 L44.7 -35.05 45.15 -34.75 M11.95 -19.75 L11.95 -19.75 M8.55 -7.3 Q9.4 -6.8 10.1 -5.4 10.7 -4.15 10.7 -3.45 10.7 -3.1 10.4 -2.55 10.05 -2.05 10.05 -1.7 10.05 -1.1 10.0 -0.95 9.8 -0.35 9.15 -0.35 L6.7 -0.35 Q6.45 -0.75 6.3 -1.3 L6.0 -2.3 Q5.9 -2.55 5.3 -3.25 4.7 -3.85 4.7 -4.2 4.7 -4.25 5.25 -4.7 5.85 -5.15 6.15 -5.95 6.25 -6.2 6.35 -6.8 6.45 -7.3 6.85 -7.3 L8.55 -7.3 M39.45 -4.1 Q39.45 -5.2 39.8 -6.35 39.65 -6.5 39.25 -6.6 L38.85 -6.65 Q37.85 -6.05 36.2 -3.6 34.5 -1.0 34.5 0.3 34.5 0.75 34.5 0.8 L34.65 0.85 35.0 0.85 Q35.2 0.6 35.45 -0.2 35.8 -1.2 36.0 -1.65 36.85 -3.5 38.55 -3.5 L39.35 -3.45 39.4 -3.5 39.45 -4.1 M28.85 21.8 Q28.95 21.85 29.1 21.85 L29.7 21.8 Q30.35 21.8 30.75 21.95 L31.3 22.35 Q32.0 22.95 33.7 22.95 34.2 22.95 34.3 23.1 34.4 23.2 34.3 23.35 L35.0 23.45 Q35.15 23.45 35.15 23.95 35.15 24.3 34.95 24.55 34.75 24.9 34.3 25.2 34.45 25.45 34.75 25.55 L35.55 25.8 Q35.2 26.35 34.6 27.05 33.85 27.85 33.45 28.0 L32.15 27.95 Q30.9 27.9 30.8 27.8 27.7 27.65 26.8 27.05 26.5 26.85 26.35 26.55 L26.05 26.05 Q25.55 25.5 25.45 25.45 25.15 25.4 24.55 25.15 24.7 24.95 25.2 24.5 25.75 24.1 26.0 23.7 26.0 23.55 25.75 23.0 25.5 22.5 25.5 22.1 25.5 21.6 26.7 21.0 27.95 20.35 28.95 20.7 28.95 20.85 28.9 21.05 28.8 21.25 28.8 21.35 L28.85 21.8" fill="#ffff00" fill-rule="evenodd" stroke="none"/>
    </g>
  </defs>
</svg>
