<?xml version="1.0" encoding="UTF-8" standalone="no"?>
<svg xmlns:ffdec="https://www.free-decompiler.com/flash" xmlns:xlink="http://www.w3.org/1999/xlink" ffdec:objectType="frame" height="78.35px" width="140.65px" xmlns="http://www.w3.org/2000/svg">
  <g transform="matrix(1.0, 0.0, 0.0, 1.0, 3.1, 3.05)">
    <use ffdec:characterId="4254" height="78.35" transform="matrix(1.0, 0.0, 0.0, 1.0, -3.1, -3.05)" width="140.65" xlink:href="#shape0"/>
  </g>
  <defs>
    <g id="shape0" transform="matrix(1.0, 0.0, 0.0, 1.0, 3.1, 3.05)">
      <path d="M114.05 17.45 Q117.9 21.95 119.55 25.3 122.0 30.15 130.75 56.5 L130.65 57.2 Q130.5 57.25 130.5 57.55 L130.15 57.9 Q129.75 58.25 129.0 58.25 127.95 58.25 126.4 57.15 122.55 55.6 115.45 47.7 109.9 41.55 103.5 33.0 101.45 30.35 97.3 26.65 93.5 23.3 89.25 20.25 L86.7 18.25 Q76.5 13.7 67.6 11.7 L64.05 11.0 Q63.45 10.45 62.5 10.25 55.95 8.85 49.25 8.6 L41.55 8.35 41.5 7.6 Q41.5 4.1 51.15 0.95 60.35 -2.05 72.0 -2.75 79.95 -4.05 91.5 0.4 102.15 4.5 106.8 9.55 L114.05 17.45 M107.25 16.05 Q103.9 12.35 99.75 9.3 94.05 5.2 84.85 2.75 70.2 -1.1 56.8 3.75 55.55 4.05 55.25 4.3 76.2 5.8 82.15 8.2 86.0 9.75 90.75 14.05 95.75 17.15 99.3 20.35 102.25 22.95 105.05 26.5 L114.2 38.5 Q120.2 46.55 123.8 50.75 L119.9 37.05 Q117.05 28.6 113.05 23.25 109.7 18.7 107.25 16.05 M86.95 35.45 Q82.6 31.0 78.5 28.3 73.9 25.25 63.45 21.75 52.45 18.05 46.75 18.05 41.9 18.05 33.8 21.75 L28.65 24.35 30.0 24.55 30.8 25.35 31.3 26.5 Q31.3 27.65 28.6 28.95 25.45 30.5 24.5 32.5 22.35 36.6 22.25 38.5 22.15 39.85 21.05 44.05 20.05 47.95 20.05 49.85 L20.55 52.85 21.05 55.85 Q21.05 58.55 17.25 58.55 14.35 58.55 9.2 55.9 4.55 53.3 4.05 53.25 6.7 60.3 17.75 65.3 26.5 69.25 31.75 69.25 45.4 69.25 57.3 63.6 L65.9 59.65 Q70.75 57.85 75.8 57.75 L77.05 57.3 73.25 57.25 Q67.7 57.25 61.15 59.15 54.55 61.05 48.75 61.05 39.05 61.05 35.0 53.5 32.8 49.4 32.8 45.15 32.8 42.1 33.8 39.45 L33.55 39.5 33.1 39.3 33.0 38.5 Q33.0 38.05 33.95 37.35 34.4 36.45 36.35 35.2 41.25 29.5 52.0 29.5 62.3 29.5 75.05 36.0 86.4 41.8 92.0 48.3 96.35 53.35 105.1 58.45 113.95 63.6 123.75 66.75 L124.35 66.65 120.9 65.1 Q111.55 60.7 109.0 58.0 100.9 49.05 94.75 43.3 L86.95 35.45 M101.05 39.3 L108.2 47.5 Q112.9 52.85 116.55 55.8 L120.95 58.75 123.35 60.05 124.55 61.0 126.35 61.85 Q128.55 64.0 131.75 65.5 134.45 66.75 137.0 67.4 L137.55 67.65 Q137.5 69.15 136.0 69.55 L132.7 70.0 130.25 70.75 127.0 70.7 124.25 70.75 Q121.7 70.75 117.8 69.6 L115.35 69.0 109.9 67.35 103.75 64.8 100.55 63.3 100.55 63.35 Q100.45 64.9 98.95 65.6 L94.8 64.6 94.5 64.55 93.6 64.2 Q89.95 62.75 82.85 62.75 74.7 62.75 68.65 64.65 65.5 65.6 59.1 68.75 L57.25 69.65 Q55.95 71.15 53.3 72.3 49.95 73.7 44.25 74.35 L30.25 75.3 Q26.15 75.3 18.5 72.9 12.65 71.1 10.3 69.7 L6.5 65.75 Q0.25 59.05 -1.05 50.45 -1.85 45.3 -3.1 41.1 -2.4 40.25 -1.0 40.25 0.6 40.25 2.35 42.9 L4.3 46.05 7.85 49.15 Q10.5 51.15 13.5 52.05 L14.75 52.3 Q13.8 46.65 15.6 39.95 16.45 36.7 17.85 33.6 L17.5 33.8 Q15.8 33.8 15.25 32.5 L15.05 30.9 Q15.05 29.65 17.0 27.45 18.15 24.35 26.9 19.1 37.2 12.9 43.0 13.0 48.7 11.4 56.35 13.15 64.0 13.4 68.6 15.95 L72.45 18.4 Q78.7 20.95 83.5 24.0 90.85 28.65 101.05 39.3 M92.15 55.6 L88.25 52.25 Q83.05 47.1 76.35 42.85 69.7 38.65 63.05 36.55 57.55 35.3 52.35 35.3 46.1 35.3 42.4 36.5 39.1 38.55 38.35 42.4 37.1 44.2 37.7 47.1 38.5 51.15 40.8 52.6 L41.5 54.2 Q43.0 55.55 48.85 55.55 51.3 55.55 61.05 53.65 70.75 51.75 73.25 51.75 82.3 51.75 87.3 53.5 89.45 54.25 92.15 55.6" fill="#ac823c" fill-rule="evenodd" stroke="none"/>
      <path d="M110.6 18.25 Q113.5 22.1 116.95 29.75 119.75 33.85 120.5 36.55 L121.2 38.85 128.05 55.35 124.95 53.0 124.95 52.95 Q116.15 44.4 109.15 34.3 92.8 10.7 64.6 7.35 L64.45 7.35 61.5 7.05 61.15 7.2 48.0 6.8 44.95 7.8 45.45 7.4 46.55 6.7 46.5 6.55 Q53.35 1.75 63.25 0.45 72.25 -0.75 81.8 1.1 91.0 2.9 97.65 6.9 100.85 8.8 102.95 10.95 105.45 12.5 107.45 14.6 L108.6 15.85 Q109.7 17.0 110.6 18.25 M93.75 36.8 Q99.3 43.4 103.65 47.85 L105.5 50.05 Q108.9 53.8 112.45 56.8 L114.0 58.1 121.15 63.15 Q127.1 67.0 133.1 68.8 L132.75 68.8 132.0 68.8 128.65 68.55 Q112.7 68.1 99.65 57.45 L99.25 57.2 Q93.65 51.8 87.45 47.7 83.5 43.65 79.0 40.45 66.6 31.55 51.0 31.55 44.75 31.55 40.1 33.35 L38.75 34.2 37.1 35.3 35.95 36.85 35.05 38.15 35.0 38.2 Q33.0 41.9 33.0 44.9 33.0 50.4 36.65 55.3 37.95 57.0 39.5 58.25 L43.3 59.5 44.9 60.0 49.5 59.55 59.4 57.35 60.1 57.2 Q66.7 54.8 75.0 54.8 L84.6 55.25 Q92.1 57.1 97.35 62.55 94.1 60.85 89.95 60.5 L87.8 60.35 81.0 59.8 78.2 59.85 74.0 59.8 73.1 60.2 68.25 60.9 65.75 61.9 Q62.4 63.35 60.5 64.55 55.4 67.9 50.3 69.55 43.15 71.8 33.5 71.8 L27.0 71.1 Q15.65 69.75 8.3 62.05 L5.55 58.7 Q0.0 51.9 0.0 45.8 L0.1 44.4 0.7 45.55 1.9 47.6 3.85 49.55 5.4 51.05 6.35 51.8 8.85 53.7 Q12.6 55.95 18.65 57.15 L18.3 53.05 Q18.0 51.15 18.0 48.8 18.0 37.35 24.95 30.05 26.1 28.1 27.35 27.0 L24.5 27.3 24.45 27.3 22.05 28.25 Q20.1 29.05 18.3 30.2 L18.25 30.05 Q18.9 28.2 24.05 24.8 L24.0 24.8 21.7 25.8 23.6 24.55 Q24.9 23.85 26.45 23.25 44.15 10.85 67.5 20.1 81.05 25.5 93.75 36.8" fill="#83512c" fill-rule="evenodd" stroke="none"/>
      <path d="M46.15 6.95 L46.55 6.7 46.5 6.55 Q53.35 1.75 63.25 0.45 72.25 -0.75 81.8 1.1 91.0 2.9 97.65 6.9 100.85 8.8 102.95 10.95 105.45 12.5 107.45 14.6 L108.6 15.85 Q109.7 17.0 110.6 18.25 113.5 22.1 116.95 29.75 119.75 33.85 120.5 36.55 L121.2 38.85 127.9 55.0 126.25 52.7 119.55 43.55 117.2 40.1 116.0 37.2 Q114.0 32.45 111.75 29.5 L106.95 23.0 Q103.15 18.05 99.15 14.6 88.05 5.0 73.55 4.3 L71.85 3.95 Q68.4 3.35 65.45 3.95 62.65 3.9 60.05 4.8 L57.5 4.75 57.5 5.0 Q51.95 4.9 46.15 6.95 M113.75 61.7 L110.05 58.95 Q99.55 50.8 94.75 44.55 88.25 36.2 75.0 29.25 59.8 21.25 45.75 21.25 34.85 21.25 26.2 26.05 L27.05 27.0 27.1 27.05 24.5 27.3 24.45 27.3 22.05 28.25 Q20.1 29.05 18.3 30.2 L18.25 30.05 Q18.9 28.2 24.05 24.8 L24.0 24.8 21.7 25.8 23.6 24.55 Q24.9 23.85 26.45 23.25 44.15 10.85 67.5 20.1 81.05 25.5 93.75 36.8 99.3 43.4 103.65 47.85 L105.5 50.05 Q108.9 53.8 112.45 56.8 L114.0 58.1 121.15 63.15 Q124.3 65.2 127.5 66.7 119.4 64.7 113.75 61.7 M94.35 59.9 L93.5 59.55 Q88.35 57.75 79.65 57.55 L78.6 57.5 78.5 57.5 78.05 57.5 77.0 57.5 75.8 57.65 75.65 57.65 75.6 57.65 66.85 58.2 Q59.2 59.4 52.95 62.2 L50.05 62.8 48.5 62.8 Q41.5 62.8 37.5 58.8 34.05 55.35 33.8 49.85 34.7 52.65 36.65 55.3 37.95 57.0 39.5 58.25 L43.3 59.5 44.9 60.0 49.5 59.55 59.4 57.35 60.1 57.2 Q66.7 54.8 75.0 54.8 L84.6 55.25 Q90.1 56.6 94.35 59.9 M23.55 39.4 Q22.7 41.0 22.5 41.95 22.25 42.85 22.25 48.1 L22.4 48.95 22.3 49.8 Q22.3 50.45 22.95 52.7 L23.15 54.3 23.3 55.55 23.4 55.8 23.75 58.25 24.55 61.8 Q24.15 62.2 23.5 62.25 L22.1 62.3 Q16.35 61.15 11.95 58.55 6.8 55.5 3.8 50.75 L2.45 48.1 3.85 49.55 5.4 51.05 6.35 51.8 8.85 53.7 Q12.6 55.95 18.65 57.15 L18.3 53.05 Q18.0 51.15 18.0 48.8 18.0 37.35 24.95 30.05 26.05 28.15 27.3 27.1 L28.75 27.0 29.1 27.15 29.25 28.05 26.85 31.2 26.45 31.85 25.9 32.85 Q23.8 36.85 23.55 39.4" fill="#674023" fill-rule="evenodd" stroke="none"/>
      <path d="M127.9 55.0 L128.05 55.35 124.95 53.0 124.95 52.95 Q120.75 48.9 117.0 44.45 111.9 37.1 106.8 28.05 108.5 27.05 110.3 29.85 L113.25 34.55 117.2 40.1 119.55 43.55 126.25 52.7 127.9 55.0 M73.55 4.3 Q76.45 5.0 80.0 6.55 L80.05 7.0 79.8 7.1 Q82.05 7.75 82.05 8.3 L82.0 9.25 81.75 9.75 81.0 10.0 77.4 9.35 71.05 8.25 70.3 8.25 64.6 7.35 64.45 7.35 61.5 7.05 61.15 7.2 48.0 6.8 44.95 7.8 45.45 7.4 46.15 6.95 Q51.95 4.9 57.5 5.0 L57.5 4.75 60.05 4.8 Q62.65 3.9 65.45 3.95 68.4 3.35 71.85 3.95 L73.55 4.3 M113.75 61.7 Q119.4 64.7 127.5 66.7 L133.1 68.8 132.75 68.8 132.0 68.8 128.65 68.55 Q121.05 68.35 114.15 65.85 L108.8 63.05 Q105.85 61.45 101.05 57.1 95.75 52.2 95.75 50.35 95.75 47.45 98.2 49.65 L101.3 53.25 Q105.35 56.6 111.3 60.3 L113.75 61.7 M94.35 59.9 L97.35 62.55 Q94.1 60.85 89.95 60.5 L87.8 60.35 81.0 59.8 78.2 59.85 74.0 59.8 73.1 60.2 68.25 60.9 65.75 61.9 Q62.4 63.35 60.5 64.55 L59.55 65.2 56.05 66.1 54.75 66.5 47.15 70.4 Q41.1 71.8 33.5 71.8 L30.8 71.7 Q31.65 71.1 32.95 70.6 L40.5 68.05 43.95 66.6 Q43.3 66.15 43.3 65.35 43.3 64.1 48.1 63.15 L50.05 62.8 52.95 62.2 Q59.2 59.4 66.85 58.2 L75.6 57.65 75.65 57.65 75.8 57.65 77.0 57.5 78.05 57.5 78.5 57.5 78.6 57.5 79.65 57.55 Q88.35 57.75 93.5 59.55 L94.35 59.9 M23.55 39.4 L24.35 38.0 24.45 37.55 Q26.45 30.45 31.25 28.3 L31.75 29.05 Q28.45 32.65 26.75 37.1 L25.9 40.1 25.2 43.05 Q24.8 45.8 24.8 49.0 L24.8 49.7 Q25.0 53.7 25.9 57.15 L26.15 58.1 26.9 59.4 Q28.3 61.85 28.3 62.85 L28.3 63.2 Q28.55 63.3 28.55 64.05 L28.55 64.15 30.0 67.05 29.65 67.8 Q29.3 68.25 28.5 68.25 27.1 68.25 25.85 65.6 L23.75 65.75 Q16.6 65.75 8.6 60.15 L3.4 55.75 Q0.0 50.55 0.0 45.8 L0.1 44.4 0.7 45.55 1.9 47.6 2.45 48.1 3.8 50.75 Q6.8 55.5 11.95 58.55 16.35 61.15 22.1 62.3 L24.85 62.75 24.55 61.8 23.75 58.25 23.4 55.8 23.3 55.55 23.15 54.3 22.95 52.7 22.4 48.95 22.25 48.1 Q22.25 42.85 22.5 41.95 22.7 41.0 23.55 39.4" fill="#83512c" fill-rule="evenodd" stroke="none"/>
    </g>
  </defs>
</svg>
