<?xml version="1.0" encoding="UTF-8" standalone="no"?>
<svg xmlns:ffdec="https://www.free-decompiler.com/flash" xmlns:xlink="http://www.w3.org/1999/xlink" ffdec:objectType="frame" height="665.0px" width="1165.0px" xmlns="http://www.w3.org/2000/svg">
  <g transform="matrix(1.0, 0.0, 0.0, 1.0, 322.5, 342.5)">
    <use ffdec:characterId="2697" height="665.0" transform="matrix(1.0, 0.0, 0.0, 1.0, -322.5, -342.5)" width="1145.0" xlink:href="#shape0"/>
    <use ffdec:characterId="2397" height="325.0" id="am_DoorLocal_KK" transform="matrix(1.0, 0.0, 0.0, 1.0, 777.5, -122.5)" width="5.0" xlink:href="#sprite0"/>
    <use ffdec:characterId="2397" height="325.0" id="am_DoorLocal_RR" transform="matrix(1.0, 0.0, 0.0, 1.0, -282.5, -62.5)" width="5.0" xlink:href="#sprite0"/>
    <use ffdec:characterId="2698" height="5.0" transform="matrix(1.0, 0.0, 0.0, 1.0, -322.5, 317.5)" width="1165.0" xlink:href="#shape2"/>
  </g>
  <defs>
    <g id="shape0" transform="matrix(1.0, 0.0, 0.0, 1.0, 322.5, 342.5)">
      <path d="M780.0 -120.0 L780.0 -340.0 -280.0 -340.0 -280.0 -60.0 M-280.0 260.0 L40.0 260.0 440.0 280.0 580.0 200.0 800.0 200.0" fill="none" stroke="#00ffff" stroke-linecap="round" stroke-linejoin="round" stroke-width="5.0"/>
      <path d="M820.0 -340.0 L820.0 320.0 M-320.0 -340.0 L-320.0 320.0" fill="none" stroke="#ffff00" stroke-linecap="round" stroke-linejoin="round" stroke-width="5.0"/>
    </g>
    <g id="sprite0" transform="matrix(1.0, 0.0, 0.0, 1.0, 2.5, 82.5)">
      <use ffdec:characterId="2396" height="325.0" transform="matrix(1.0, 0.0, 0.0, 1.0, -2.5, -82.5)" width="5.0" xlink:href="#shape1"/>
    </g>
    <g id="shape1" transform="matrix(1.0, 0.0, 0.0, 1.0, 2.5, 82.5)">
      <path d="M0.0 -80.0 L0.0 240.0" fill="none" stroke="#00ffff" stroke-linecap="round" stroke-linejoin="round" stroke-width="5.0"/>
    </g>
    <g id="shape2" transform="matrix(1.0, 0.0, 0.0, 1.0, 322.5, -317.5)">
      <path d="M-320.0 320.0 L840.0 320.0" fill="none" stroke="#666666" stroke-linecap="round" stroke-linejoin="round" stroke-width="5.0"/>
    </g>
  </defs>
</svg>
