<?xml version="1.0" encoding="UTF-8" standalone="no"?>
<svg xmlns:ffdec="https://www.free-decompiler.com/flash" xmlns:xlink="http://www.w3.org/1999/xlink" ffdec:objectType="frame" height="137.55px" width="360.5px" xmlns="http://www.w3.org/2000/svg">
  <g transform="matrix(1.0, 0.0, 0.0, 1.0, 164.15, 129.15)">
    <use ffdec:characterId="1178" height="9.95" transform="matrix(7.0, 0.0, 0.0, 7.0, -159.6, -61.25)" width="43.9" xlink:href="#shape0"/>
  </g>
  <defs>
    <g id="shape0" transform="matrix(1.0, 0.0, 0.0, 1.0, 22.8, 8.75)">
      <path d="M8.5 -6.0 Q8.75 -5.7 9.4 -5.25 L10.9 -4.85 11.05 -4.65 Q11.15 -4.5 11.35 -4.45 L12.0 -4.25 Q12.45 -4.1 12.75 -4.05 L12.95 -3.7 Q13.1 -3.5 13.2 -3.45 13.15 -3.4 13.2 -3.35 L13.3 -3.2 Q13.3 -3.1 12.6 -3.1 L12.7 -3.0 13.1 -2.85 13.35 -2.75 13.75 -2.35 14.4 -2.3 14.5 -2.1 15.55 -2.1 Q17.25 -2.1 18.7 -2.45 19.85 -2.8 20.3 -3.2 21.0 -3.2 21.1 -3.1 21.15 -2.95 21.05 -2.95 20.2 -2.8 19.65 -2.55 19.1 -2.25 18.35 -2.15 18.15 -2.1 17.45 -1.7 16.75 -1.35 15.65 -1.15 L15.55 -1.15 Q15.5 -1.15 15.55 -1.0 15.6 -0.8 15.55 -0.85 L15.45 -0.9 Q14.45 -0.7 13.65 -0.2 L12.75 0.45 12.8 0.5 Q12.8 0.6 12.5 0.75 L12.15 0.7 11.9 0.7 Q11.5 0.6 11.25 0.6 L9.6 0.6 Q9.5 0.75 7.2 0.9 L4.9 1.1 4.95 1.2 4.8 1.15 4.3 1.1 2.55 1.05 0.8 0.95 -0.15 0.85 -0.55 0.75 -1.0 0.7 -1.5 0.65 -5.55 -0.35 -9.8 -1.25 -10.05 -1.4 -11.4 -1.5 -13.95 -1.65 Q-14.65 -1.7 -14.95 -1.65 L-16.25 -1.55 -16.45 -1.55 -16.5 -1.6 -16.8 -1.7 Q-17.0 -1.85 -17.2 -1.95 -17.3 -2.0 -17.35 -2.2 -17.4 -2.35 -17.35 -2.45 L-17.25 -2.6 -17.3 -2.6 Q-17.4 -2.65 -17.45 -2.8 -17.5 -2.95 -17.35 -2.9 -17.25 -2.9 -17.3 -3.05 -17.4 -3.4 -18.35 -3.85 -19.35 -4.35 -19.5 -4.7 -20.1 -4.85 -20.5 -5.1 -21.0 -5.35 -22.6 -5.5 -22.65 -5.55 -22.7 -5.6 L-22.75 -5.8 Q-22.8 -6.0 -22.8 -6.15 L-22.8 -6.3 Q-22.7 -6.5 -22.5 -6.45 L-22.45 -6.5 Q-22.2 -6.65 -21.95 -6.7 L-21.95 -6.75 Q-21.9 -6.75 -21.85 -6.6 -21.8 -6.4 -21.9 -6.4 L-22.05 -6.35 -21.45 -6.15 -21.3 -5.95 Q-21.15 -5.8 -21.0 -5.75 -20.15 -5.65 -19.45 -5.4 L-18.3 -5.15 Q-18.1 -4.95 -17.7 -4.35 -17.3 -3.85 -17.2 -3.65 L-16.7 -3.7 -16.6 -3.7 -16.35 -3.9 Q-15.9 -4.15 -15.95 -4.35 -16.0 -4.5 -16.15 -4.65 -16.3 -4.8 -16.35 -4.95 -16.4 -5.1 -16.4 -5.3 L-16.3 -5.7 -17.15 -5.95 -17.1 -5.9 -17.3 -5.9 -17.35 -5.95 Q-17.55 -6.15 -18.55 -6.25 L-18.6 -6.4 -18.8 -6.45 -19.05 -6.4 -19.4 -6.35 -19.6 -6.35 -19.85 -6.45 -19.65 -6.7 -19.6 -6.7 Q-19.65 -6.85 -19.6 -6.85 L-19.45 -6.85 -19.5 -6.9 -19.8 -6.95 -20.45 -6.9 Q-20.95 -6.8 -21.0 -6.75 L-21.45 -6.75 -21.55 -6.95 Q-21.55 -7.05 -20.8 -7.35 -20.0 -7.7 -18.8 -8.0 -15.7 -8.75 -13.05 -8.75 L-11.65 -8.75 -10.4 -8.65 -9.55 -8.65 -8.55 -8.55 Q-6.8 -8.45 -5.4 -8.25 L-3.15 -7.95 -2.8 -7.7 -2.35 -7.3 -0.7 -7.15 Q4.0 -6.95 6.25 -6.55 L7.5 -6.2 8.5 -6.0 M-18.6 -6.45 L-18.55 -6.5 -18.65 -6.45 -18.6 -6.45" fill="#ffd327" fill-rule="evenodd" stroke="none"/>
    </g>
  </defs>
</svg>
