<?xml version="1.0" encoding="UTF-8" standalone="no"?>
<svg xmlns:ffdec="https://www.free-decompiler.com/flash" xmlns:xlink="http://www.w3.org/1999/xlink" ffdec:objectType="frame" height="457.45px" width="633.5px" xmlns="http://www.w3.org/2000/svg">
  <g transform="matrix(1.0, 0.0, 0.0, 1.0, 264.25, 424.55)">
    <use ffdec:characterId="992" height="17.3" transform="matrix(6.6635, 0.0, 0.0, 6.6635, 106.7591, -269.9727)" width="16.45" xlink:href="#shape0"/>
    <use ffdec:characterId="990" height="15.15" transform="matrix(6.2609, 0.0, 0.0, 6.2609, 118.2, -261.7739)" width="14.3" xlink:href="#shape1"/>
    <use ffdec:characterId="1068" height="33.1" transform="matrix(7.0, 0.0, 0.0, 7.0, 65.45, -330.05)" width="26.6" xlink:href="#shape2"/>
  </g>
  <defs>
    <g id="shape0" transform="matrix(1.0, 0.0, 0.0, 1.0, 8.2, 8.7)">
      <path d="M8.25 -0.05 Q8.25 3.55 5.85 6.05 3.45 8.6 0.05 8.6 -3.4 8.6 -5.8 6.05 -8.2 3.55 -8.2 -0.05 -8.2 -3.65 -5.8 -6.15 -3.4 -8.7 0.05 -8.7 3.45 -8.7 5.85 -6.15 8.25 -3.65 8.25 -0.05" fill="#99ffff" fill-opacity="0.5019608" fill-rule="evenodd" stroke="none"/>
    </g>
    <g id="shape1" transform="matrix(1.0, 0.0, 0.0, 1.0, 6.9, 7.95)">
      <path d="M2.65 -7.05 Q3.25 -6.3 4.05 -5.5 5.3 -4.25 6.05 -2.9 6.05 -4.3 5.05 -5.45 4.45 -6.15 3.75 -6.8 4.3 -6.6 4.8 -6.35 5.15 -6.15 5.3 -5.75 5.85 -4.55 6.7 -3.55 7.3 -2.8 7.4 -2.0 6.0 -1.75 5.15 -0.6 4.7 0.05 5.4 0.4 L5.6 0.5 5.45 0.55 Q4.7 0.9 4.65 1.75 4.65 2.05 4.5 2.3 4.55 2.8 4.4 3.35 4.3 4.0 4.1 4.6 L4.05 4.55 Q4.0 5.1 3.8 5.5 4.3 3.3 3.7 1.15 3.55 2.6 3.15 4.15 2.8 5.55 2.4 6.85 1.65 7.2 0.5 7.2 L0.0 7.2 Q0.7 7.0 1.3 6.7 L0.65 6.6 Q-0.6 6.65 -1.85 6.65 -2.2 6.4 -2.5 6.15 -0.4 6.6 1.5 5.75 -0.1 5.45 -1.85 5.55 -2.55 5.55 -3.15 5.3 L-3.5 4.5 Q-3.1 4.4 -2.65 4.0 L-3.2 4.0 Q-2.9 3.55 -3.0 3.0 -3.15 2.2 -4.0 2.2 -4.15 2.2 -4.3 2.35 -5.2 2.95 -4.9 3.7 -5.25 3.55 -5.6 3.5 L-5.8 3.4 Q-6.8 1.45 -4.2 0.3 -4.0 0.2 -3.85 0.05 -2.1 0.7 -0.35 -0.8 -1.2 -0.6 -2.1 -0.5 L-2.5 -0.5 Q-1.6 -1.1 -1.4 -2.1 -1.05 -3.75 -3.0 -3.6 -3.7 -3.4 -4.25 -2.95 L-4.3 -3.35 Q-4.55 -4.65 -3.15 -5.35 L-2.6 -5.65 -1.85 -5.6 Q-0.45 -5.55 0.75 -6.1 0.15 -6.25 -0.5 -6.4 -1.15 -6.5 -1.75 -6.45 L-2.0 -6.4 Q-1.8 -6.65 -1.55 -7.0 -1.35 -7.3 -1.1 -7.5 L-0.6 -7.95 Q-0.05 -7.65 0.6 -7.6 1.05 -7.55 1.25 -7.15 L2.65 -7.05 M-6.8 5.85 Q-6.55 5.75 -6.75 5.95 -7.0 6.25 -6.8 5.85 M-5.8 -2.4 Q-5.6 -2.75 -5.35 -3.0 -5.25 -2.7 -5.55 -2.25 -5.8 -1.9 -5.95 -1.9 -5.95 -2.15 -5.8 -2.4" fill="#ffffff" fill-opacity="0.5019608" fill-rule="evenodd" stroke="none"/>
      <path d="M2.95 -4.4 Q3.15 -4.2 3.1 -3.8 3.05 -3.55 2.8 -3.5 L2.45 -3.4 Q2.15 -3.6 2.05 -3.85 2.0 -4.05 2.0 -4.3 L2.0 -4.4 2.15 -4.6 2.25 -4.7 2.25 -4.75 Q2.65 -4.7 2.95 -4.4 M0.1 -4.0 Q0.0 -3.7 -0.3 -3.7 -0.7 -3.75 -0.85 -4.15 L-0.85 -4.35 Q-0.75 -4.6 -0.55 -4.7 L-0.4 -4.7 Q-0.1 -4.7 0.05 -4.45 0.2 -4.25 0.1 -4.0 M-2.3 -0.75 Q-2.5 -1.1 -2.2 -1.8 -1.65 -3.05 -0.25 -2.9 L0.25 -2.85 0.55 -2.75 0.6 -2.65 0.8 -2.3 Q0.95 -2.05 0.95 -1.75 1.9 -2.0 2.75 -1.65 3.15 -1.5 3.3 -1.15 3.25 -0.3 2.6 0.25 L2.2 0.6 Q4.35 2.55 1.95 3.05 1.6 3.15 1.55 2.7 1.5 1.55 2.0 0.75 L1.7 1.0 Q1.4 1.2 0.95 1.2 L0.8 1.1 Q0.65 0.9 0.6 0.7 0.55 0.55 0.55 0.35 0.6 0.25 0.75 0.2 1.2 0.05 1.55 0.4 L1.6 0.5 2.0 0.25 Q2.4 -0.05 2.5 -0.6 L2.55 -0.8 2.5 -0.85 Q2.1 -1.15 1.65 -1.1 L1.65 -1.0 Q1.75 -0.8 1.6 -0.6 L1.25 -0.3 Q0.65 -0.5 0.2 -0.15 -0.2 0.15 -0.65 0.05 L-0.85 -0.15 -0.85 -0.3 -1.85 -0.4 Q-1.4 -0.65 -0.95 -1.05 L-2.3 -0.75 M4.0 -0.75 L4.15 -0.65 4.35 -0.5 4.4 -0.4 Q4.45 -0.2 4.4 0.05 4.35 0.4 4.05 0.6 3.25 0.6 3.45 -0.25 3.55 -0.7 4.0 -0.75 M-1.5 -0.1 Q-1.4 -0.05 -1.3 0.05 -1.15 0.4 -1.25 0.7 -1.4 1.15 -1.8 1.45 -2.95 1.4 -2.5 0.35 -2.3 -0.1 -1.85 -0.2 L-1.5 -0.1 M-0.75 1.5 L-0.2 1.5 Q0.05 1.55 0.15 1.8 0.35 2.35 0.0 2.85 -0.5 3.5 -1.35 3.05 -1.65 2.75 -1.55 2.3 -1.45 1.65 -0.75 1.5" fill="#ffffff" fill-rule="evenodd" stroke="none"/>
      <path d="M2.95 -4.4 Q3.15 -4.2 3.1 -3.8 3.05 -3.55 2.8 -3.5 L2.45 -3.4 Q2.15 -3.6 2.05 -3.85 2.0 -4.05 2.0 -4.3 L2.0 -4.4 2.15 -4.6 2.25 -4.7 2.25 -4.75 Q2.65 -4.7 2.95 -4.4 M0.1 -4.0 Q0.0 -3.7 -0.3 -3.7 -0.7 -3.75 -0.85 -4.15 L-0.85 -4.35 Q-0.75 -4.6 -0.55 -4.7 L-0.4 -4.7 Q-0.1 -4.7 0.05 -4.45 0.2 -4.25 0.1 -4.0 M-2.3 -0.75 Q-2.5 -1.1 -2.2 -1.8 -1.65 -3.05 -0.25 -2.9 L0.25 -2.85 0.55 -2.75 0.6 -2.65 0.8 -2.3 Q0.95 -2.05 0.95 -1.75 1.9 -2.0 2.75 -1.65 3.15 -1.5 3.3 -1.15 3.25 -0.3 2.6 0.25 L2.2 0.6 Q4.35 2.55 1.95 3.05 1.6 3.15 1.55 2.7 1.5 1.55 2.0 0.75 L1.7 1.0 Q1.4 1.2 0.95 1.2 L0.8 1.1 Q0.65 0.9 0.6 0.7 0.55 0.55 0.55 0.35 0.6 0.25 0.75 0.2 1.2 0.05 1.55 0.4 L1.6 0.5 2.0 0.25 Q2.4 -0.05 2.5 -0.6 L2.55 -0.8 2.5 -0.85 Q2.1 -1.15 1.65 -1.1 L1.65 -1.0 Q1.75 -0.8 1.6 -0.6 L1.25 -0.3 Q0.65 -0.5 0.2 -0.15 -0.2 0.15 -0.65 0.05 L-0.85 -0.15 -0.85 -0.3 -1.85 -0.4 M4.0 -0.75 L4.15 -0.65 4.35 -0.5 4.4 -0.4 Q4.45 -0.2 4.4 0.05 4.35 0.4 4.05 0.6 3.25 0.6 3.45 -0.25 3.55 -0.7 4.0 -0.75 M-1.5 -0.1 Q-1.4 -0.05 -1.3 0.05 -1.15 0.4 -1.25 0.7 -1.4 1.15 -1.8 1.45 -2.95 1.4 -2.5 0.35 -2.3 -0.1 -1.85 -0.2 L-1.5 -0.1 M-0.75 1.5 L-0.2 1.5 Q0.05 1.55 0.15 1.8 0.35 2.35 0.0 2.85 -0.5 3.5 -1.35 3.05 -1.65 2.75 -1.55 2.3 -1.45 1.65 -0.75 1.5 Z" fill="none" stroke="#ffffff" stroke-linecap="round" stroke-linejoin="round" stroke-opacity="0.3529412" stroke-width="1.25"/>
    </g>
    <g id="shape2" transform="matrix(1.0, 0.0, 0.0, 1.0, -9.35, 47.15)">
      <path d="M23.3 -37.05 Q23.45 -38.05 23.3 -39.05 L23.05 -39.35 Q22.65 -39.4 22.4 -39.6 L22.45 -39.9 22.55 -39.85 22.45 -39.95 Q22.7 -42.05 20.05 -42.0 19.6 -41.1 18.95 -40.1 18.35 -39.15 18.45 -38.25 18.2 -37.2 18.15 -36.15 L18.25 -35.75 Q18.5 -34.6 17.85 -33.9 17.45 -33.7 17.1 -33.85 L17.0 -33.85 Q16.55 -34.0 16.25 -34.45 16.0 -34.9 15.5 -35.05 L15.45 -35.05 Q14.55 -34.0 14.85 -32.6 15.55 -32.1 16.2 -31.45 16.75 -31.0 17.2 -30.4 L16.95 -30.4 17.1 -30.15 Q16.55 -30.25 16.1 -30.4 16.65 -29.95 17.35 -30.05 L17.45 -29.95 Q17.4 -29.75 17.3 -29.6 L17.15 -29.45 17.1 -29.5 Q16.05 -29.85 15.5 -30.55 12.45 -31.7 11.35 -35.15 L11.3 -35.25 11.1 -36.1 Q11.0 -36.5 11.2 -37.15 12.25 -40.9 15.35 -42.4 15.35 -41.75 15.2 -41.05 L14.9 -41.2 Q14.2 -39.8 13.7 -38.2 13.2 -36.5 13.6 -34.95 15.25 -35.3 15.75 -37.4 L15.9 -37.85 Q17.5 -41.45 18.3 -45.05 18.35 -45.3 18.5 -45.45 19.85 -44.9 20.95 -44.1 L19.85 -44.35 Q19.6 -42.85 22.15 -41.9 22.85 -41.6 23.45 -41.4 L23.55 -41.35 Q24.65 -40.2 25.45 -38.75 25.3 -38.35 24.85 -38.2 24.9 -37.6 24.7 -36.85 24.15 -34.9 23.1 -33.85 23.05 -33.4 23.1 -33.0 23.55 -32.85 23.85 -33.3 24.2 -33.85 24.75 -33.55 L24.85 -33.45 Q25.45 -31.6 22.85 -31.85 21.85 -31.95 21.45 -32.8 22.25 -33.9 22.75 -35.15 22.95 -36.1 23.3 -37.05 M26.4 -30.9 Q26.45 -31.4 26.65 -31.7 28.7 -31.6 30.1 -29.45 L30.35 -29.05 Q30.1 -28.25 30.0 -27.4 29.8 -25.7 31.0 -24.8 31.85 -25.45 32.1 -26.7 L32.65 -26.6 Q33.0 -26.5 33.35 -26.25 L34.2 -25.55 33.5 -24.7 32.85 -24.65 Q32.0 -24.35 31.35 -23.8 30.7 -23.05 30.7 -22.0 30.65 -20.75 31.2 -19.65 31.35 -19.4 31.45 -19.25 29.65 -18.45 27.7 -18.2 27.95 -16.55 30.8 -17.05 32.25 -17.3 33.35 -17.9 32.4 -15.35 28.35 -15.85 23.7 -16.45 23.75 -20.95 23.55 -21.1 23.35 -21.35 22.95 -21.8 23.15 -22.4 24.25 -22.7 25.4 -21.65 25.9 -21.25 25.8 -20.6 26.3 -20.45 26.55 -20.0 L26.6 -19.95 Q26.75 -19.9 26.95 -19.75 27.2 -19.65 27.45 -19.6 28.1 -19.7 28.45 -20.0 28.45 -20.8 28.7 -21.6 28.85 -22.15 28.75 -22.65 L27.95 -22.65 Q27.45 -23.0 27.15 -23.6 26.95 -24.0 27.1 -24.55 27.45 -25.1 28.05 -25.1 28.15 -25.1 28.25 -25.15 28.2 -26.35 27.5 -27.4 27.25 -27.25 26.85 -27.5 L26.15 -27.95 Q25.8 -27.95 25.5 -27.6 25.15 -27.2 24.8 -27.6 24.25 -28.55 25.15 -29.6 25.35 -29.85 25.6 -30.0 25.5 -30.3 25.45 -30.6 L25.9 -30.15 26.05 -30.2 Q26.35 -30.5 26.4 -30.9 M14.9 -34.55 Q14.8 -34.3 14.75 -33.95 14.7 -33.45 14.7 -32.85 L14.6 -32.8 Q14.55 -32.75 14.5 -32.7 L14.55 -32.7 14.6 -32.8 14.75 -32.65 14.75 -33.3 Q14.75 -34.05 14.9 -34.55 M30.9 -23.3 L30.75 -23.05 30.75 -23.0 30.95 -23.3 30.9 -23.3 M33.2 -25.0 L33.05 -24.75 Q33.2 -24.85 33.2 -25.0 M28.5 -19.55 L28.4 -19.5 28.55 -19.4 28.5 -19.55" fill="#ffffff" fill-rule="evenodd" stroke="none"/>
      <path d="M23.3 -37.05 Q22.95 -36.1 22.75 -35.15 22.25 -33.9 21.45 -32.8 21.85 -31.95 22.85 -31.85 25.45 -31.6 24.85 -33.45 L24.75 -33.55 Q24.2 -33.85 23.85 -33.3 23.55 -32.85 23.1 -33.0 23.05 -33.4 23.1 -33.85 24.15 -34.9 24.7 -36.85 24.9 -37.6 24.85 -38.2 25.3 -38.35 25.45 -38.75 24.65 -40.2 23.55 -41.35 L23.45 -41.4 Q22.85 -41.6 22.15 -41.9 19.6 -42.85 19.85 -44.35 L20.95 -44.1 Q19.85 -44.9 18.5 -45.45 18.35 -45.3 18.3 -45.05 17.5 -41.45 15.9 -37.85 L15.75 -37.4 Q15.25 -35.3 13.6 -34.95 13.2 -36.5 13.7 -38.2 14.2 -39.8 14.9 -41.2 L15.2 -41.05 Q15.35 -41.75 15.35 -42.4 12.25 -40.9 11.2 -37.15 11.0 -36.5 11.1 -36.1 L11.3 -35.25 11.35 -35.15 Q12.45 -31.7 15.5 -30.55 16.05 -29.85 17.1 -29.5 L17.15 -29.45 17.3 -29.6 Q17.4 -29.75 17.45 -29.95 L17.35 -30.05 Q16.65 -29.95 16.1 -30.4 16.55 -30.25 17.1 -30.15 L16.95 -30.4 17.2 -30.4 Q16.75 -31.0 16.2 -31.45 15.55 -32.1 14.85 -32.6 14.55 -34.0 15.45 -35.05 L15.5 -35.05 Q16.0 -34.9 16.25 -34.45 16.55 -34.0 17.0 -33.85 L17.1 -33.85 Q17.45 -33.7 17.85 -33.9 18.5 -34.6 18.25 -35.75 L18.15 -36.15 Q18.2 -37.2 18.45 -38.25 18.35 -39.15 18.95 -40.1 19.6 -41.1 20.05 -42.0 22.7 -42.05 22.45 -39.95 L22.55 -39.85 22.45 -39.9 22.4 -39.6 Q22.65 -39.4 23.05 -39.35 L23.3 -39.05 Q23.45 -38.05 23.3 -37.05 M26.4 -30.9 Q26.45 -31.4 26.65 -31.7 28.7 -31.6 30.1 -29.45 L30.35 -29.05 Q30.1 -28.25 30.0 -27.4 29.8 -25.7 31.0 -24.8 31.85 -25.45 32.1 -26.7 L32.65 -26.6 Q33.0 -26.5 33.35 -26.25 L34.2 -25.55 33.5 -24.7 32.85 -24.65 Q32.0 -24.35 31.35 -23.8 30.7 -23.05 30.7 -22.0 30.65 -20.75 31.2 -19.65 31.35 -19.4 31.45 -19.25 29.65 -18.45 27.7 -18.2 27.95 -16.55 30.8 -17.05 32.25 -17.3 33.35 -17.9 32.4 -15.35 28.35 -15.85 23.7 -16.45 23.75 -20.95 23.55 -21.1 23.35 -21.35 22.95 -21.8 23.15 -22.4 24.25 -22.7 25.4 -21.65 25.9 -21.25 25.8 -20.6 26.3 -20.45 26.55 -20.0 L26.6 -19.95 Q26.75 -19.9 26.95 -19.75 27.2 -19.65 27.45 -19.6 28.1 -19.7 28.45 -20.0 28.45 -20.8 28.7 -21.6 28.85 -22.15 28.75 -22.65 L27.95 -22.65 Q27.45 -23.0 27.15 -23.6 26.95 -24.0 27.1 -24.55 27.45 -25.1 28.05 -25.1 28.15 -25.1 28.25 -25.15 28.2 -26.35 27.5 -27.4 27.25 -27.25 26.85 -27.5 L26.15 -27.95 Q25.8 -27.95 25.5 -27.6 25.15 -27.2 24.8 -27.6 24.25 -28.55 25.15 -29.6 25.35 -29.85 25.6 -30.0 25.5 -30.3 25.45 -30.6 L25.9 -30.15 26.05 -30.2 Q26.35 -30.5 26.4 -30.9 M14.9 -34.55 Q14.75 -34.05 14.75 -33.3 L14.75 -32.65 14.6 -32.8 14.55 -32.7 14.5 -32.7 Q14.55 -32.75 14.6 -32.8 L14.7 -32.85 Q14.7 -33.45 14.75 -33.95 14.8 -34.3 14.9 -34.55 M30.9 -23.3 L30.75 -23.05 30.75 -23.0 30.95 -23.3 30.9 -23.3 M33.2 -25.0 L33.05 -24.75 Q33.2 -24.85 33.2 -25.0 M28.5 -19.55 L28.4 -19.5 28.55 -19.4 28.5 -19.55 Z" fill="none" stroke="#ffffff" stroke-linecap="round" stroke-linejoin="round" stroke-opacity="0.3019608" stroke-width="1.1500000000000001"/>
    </g>
  </defs>
</svg>
