<?xml version="1.0" encoding="UTF-8" standalone="no"?>
<svg xmlns:ffdec="https://www.free-decompiler.com/flash" xmlns:xlink="http://www.w3.org/1999/xlink" ffdec:objectType="frame" height="332.15px" width="498.75px" xmlns="http://www.w3.org/2000/svg">
  <g transform="matrix(1.0, 0.0, 0.0, 1.0, 263.55, 283.5)">
    <use ffdec:characterId="974" height="45.8" transform="matrix(7.0, 0.0, 0.0, 7.0, -219.8, -277.2)" width="53.35" xlink:href="#shape0"/>
  </g>
  <defs>
    <g id="shape0" transform="matrix(1.0, 0.0, 0.0, 1.0, 31.4, 39.6)">
      <path d="M2.0 -32.8 Q2.7 -32.7 3.2 -32.25 3.55 -31.85 3.65 -31.45 L3.5 -31.4 Q3.0 -32.55 1.95 -32.7 L1.95 -32.75 2.0 -32.8 M4.2 -30.3 L4.2 -29.55 4.05 -29.55 4.05 -30.3 4.2 -30.3 M19.9 -33.2 Q20.65 -31.65 21.15 -30.05 21.7 -28.3 21.7 -27.0 L21.65 -26.65 21.65 -26.45 Q21.65 -26.3 21.55 -26.25 L20.95 -29.75 Q20.5 -31.8 19.8 -33.2 L19.9 -33.2 M21.75 -25.45 L21.8 -24.7 Q21.8 -24.55 21.6 -23.85 L21.3 -23.1 21.2 -23.1 Q21.4 -23.55 21.55 -24.3 21.65 -24.95 21.65 -25.45 L21.75 -25.45 M4.15 -25.7 L4.2 -25.5 Q4.2 -24.75 2.9 -23.9 1.55 -23.0 -0.25 -22.55 1.6 -23.25 2.85 -24.05 4.25 -25.0 4.1 -25.7 L4.15 -25.7 M1.05 -4.5 Q0.9 -4.55 0.9 -4.6 1.05 -4.75 1.5 -4.9 L2.05 -5.05 1.15 -4.45 1.05 -4.5 M16.75 -13.45 L17.55 -14.0 Q17.9 -14.3 18.05 -14.3 17.2 -13.5 16.6 -13.15 16.2 -13.0 15.3 -12.7 L15.25 -12.55 15.4 -12.65 15.6 -12.75 15.2 -12.4 15.0 -12.2 15.1 -12.1 Q15.35 -11.8 15.65 -11.3 15.25 -11.25 14.8 -11.65 14.65 -11.85 14.25 -12.4 L14.2 -12.4 Q13.85 -12.6 14.65 -12.8 L15.75 -13.0 16.25 -13.2 16.75 -13.45 M14.6 -12.45 L14.65 -12.5 14.55 -12.5 14.6 -12.45 M16.6 -9.9 Q16.7 -9.6 16.95 -9.05 17.15 -8.6 17.2 -8.3 L17.05 -8.25 Q16.8 -9.05 16.45 -9.75 16.5 -9.9 16.6 -9.9 M-14.4 -35.8 L-14.6 -35.8 Q-14.6 -35.9 -14.05 -36.05 L-13.35 -36.2 -13.9 -35.9 -14.4 -35.8 M-4.1 -39.45 Q-4.1 -39.35 -4.35 -38.95 -4.65 -38.55 -4.7 -38.4 L-4.8 -38.4 Q-4.8 -38.75 -4.55 -39.05 -4.35 -39.35 -4.1 -39.45 M-5.1 -37.45 Q-5.1 -37.2 -4.85 -36.5 -4.6 -35.7 -4.55 -35.3 L-4.5 -35.25 -4.45 -35.25 -4.7 -35.2 Q-5.0 -35.2 -5.2 -35.65 -5.3 -35.95 -5.3 -36.1 L-5.25 -36.8 Q-5.2 -37.3 -5.2 -37.45 L-5.1 -37.45 M-26.25 -28.6 Q-26.35 -28.45 -26.6 -28.3 -26.85 -28.15 -26.9 -28.15 L-27.2 -28.2 -27.25 -28.3 -26.65 -28.5 -26.25 -28.6 M-24.55 -28.65 Q-24.4 -28.6 -24.15 -28.5 -23.9 -28.35 -23.85 -28.3 L-24.1 -28.25 -24.5 -28.35 -24.6 -28.55 -24.6 -28.6 -24.55 -28.65 M-31.25 -23.25 L-31.25 -23.5 Q-31.25 -23.9 -30.95 -24.55 -30.6 -25.25 -30.25 -25.3 L-30.65 -24.3 -31.05 -23.2 -31.2 -23.2 -31.25 -23.25 M-23.2 -17.25 Q-23.9 -17.2 -24.55 -16.4 L-25.1 -15.6 -25.1 -15.55 Q-25.1 -15.35 -25.3 -15.0 -25.5 -14.7 -25.5 -14.55 -25.5 -14.35 -25.3 -14.35 L-25.0 -14.3 Q-25.0 -14.2 -25.1 -13.95 -25.15 -14.0 -25.2 -14.15 L-25.7 -14.2 -25.9 -14.15 Q-25.95 -14.15 -25.95 -14.35 L-25.65 -15.3 Q-25.35 -16.15 -25.35 -16.3 -25.35 -16.35 -25.45 -16.5 L-25.75 -16.9 Q-25.6 -17.05 -25.35 -17.2 -24.9 -17.4 -24.2 -17.45 L-23.2 -17.45 -22.2 -17.4 -23.15 -17.3 -23.2 -17.3 -23.2 -17.25 M-20.95 -26.75 Q-20.8 -24.9 -20.25 -23.7 -19.45 -22.0 -17.6 -20.7 -19.1 -21.3 -20.0 -22.9 -20.5 -23.8 -21.05 -25.7 L-21.05 -26.75 -20.95 -26.75 M-12.1 -17.85 Q-11.75 -17.75 -11.7 -17.45 -11.7 -17.1 -11.6 -16.95 L-11.7 -16.55 -11.9 -17.05 Q-12.1 -17.45 -12.25 -17.7 L-12.2 -17.8 -12.1 -17.85 M-15.85 -20.65 L-15.95 -20.55 Q-16.05 -20.5 -16.05 -20.7 L-16.0 -20.9 Q-15.85 -21.1 -15.35 -21.45 L-15.45 -21.1 Q-15.55 -20.8 -15.85 -20.65 M-12.2 -11.4 Q-12.45 -10.9 -12.5 -10.55 L-12.6 -10.55 -12.3 -11.4 Q-12.1 -12.0 -11.95 -12.05 -11.95 -11.9 -12.2 -11.4 M-13.35 -9.4 Q-13.25 -9.55 -13.05 -10.5 -12.9 -11.2 -12.5 -11.45 -12.5 -11.05 -12.7 -10.4 -12.9 -9.85 -13.15 -9.45 L-13.35 -9.4 M-22.05 -0.9 L-21.2 -0.35 -19.75 0.55 -19.7 0.6 -19.95 0.65 Q-20.35 0.65 -21.1 0.1 -21.8 -0.45 -22.05 -0.85 L-22.05 -0.9 M-16.3 -1.9 Q-16.3 -1.4 -16.05 -0.75 -15.8 0.0 -15.7 0.3 -14.65 0.05 -14.0 0.65 -13.8 0.85 -13.35 1.65 L-13.35 1.75 Q-13.65 1.75 -13.85 1.5 L-14.3 0.95 Q-14.75 0.6 -15.15 0.7 -15.4 0.75 -15.55 0.85 L-15.65 0.8 -16.1 0.95 -16.35 0.9 Q-15.95 0.65 -15.9 0.65 L-15.85 0.6 Q-16.05 0.3 -16.25 -0.5 -16.4 -1.2 -16.5 -1.9 -16.5 -2.15 -16.4 -2.55 -16.35 -2.9 -16.25 -3.05 -16.2 -2.85 -16.25 -2.5 L-16.3 -1.9 M-10.25 1.5 Q-10.8 1.85 -11.7 1.85 -12.2 1.8 -12.25 1.7 L-12.35 1.55 -10.9 1.25 -9.55 0.95 Q-9.8 1.05 -10.25 1.5 M-11.15 6.0 L-11.8 5.9 -11.7 5.8 Q-11.1 5.8 -10.95 5.95 L-10.95 6.05 -11.15 6.0 M-14.25 4.1 Q-14.2 4.25 -13.8 4.65 -13.2 5.25 -12.95 5.55 L-13.0 5.6 Q-13.4 5.6 -13.9 5.1 -14.4 4.6 -14.35 4.35 L-14.35 4.1 -14.25 4.1" fill="#ffffff" fill-rule="evenodd" stroke="none"/>
      <path d="M3.3 -32.35 Q3.7 -31.9 3.8 -31.45 L3.75 -31.35 Q3.75 -31.3 3.7 -31.3 L3.55 -31.25 3.45 -31.25 3.35 -31.35 Q2.9 -32.45 1.9 -32.55 1.85 -32.55 1.8 -32.6 L1.8 -32.7 Q1.8 -32.8 1.9 -32.85 L2.0 -32.95 Q2.8 -32.85 3.3 -32.35 M2.0 -32.8 L1.95 -32.75 1.95 -32.7 Q3.0 -32.55 3.5 -31.4 L3.65 -31.45 Q3.55 -31.85 3.2 -32.25 2.7 -32.7 2.0 -32.8 M3.95 -30.4 L4.05 -30.45 4.25 -30.45 4.3 -30.35 4.35 -29.55 4.35 -29.5 4.25 -29.45 4.1 -29.4 4.0 -29.4 3.95 -29.45 3.95 -30.4 M19.9 -33.2 L19.8 -33.2 Q20.5 -31.8 20.95 -29.75 L21.55 -26.25 Q21.65 -26.3 21.65 -26.45 L21.65 -26.65 21.7 -27.0 Q21.7 -28.3 21.15 -30.05 20.65 -31.65 19.9 -33.2 M4.2 -30.3 L4.05 -30.3 4.05 -29.55 4.2 -29.55 4.2 -30.3 M19.65 -33.2 L19.7 -33.3 19.95 -33.3 20.0 -33.25 Q20.8 -31.7 21.3 -30.1 21.8 -28.35 21.8 -27.0 L21.8 -26.45 Q21.8 -26.25 21.65 -26.15 L21.6 -26.1 21.5 -26.15 Q21.45 -26.15 21.45 -26.2 L20.8 -29.7 Q20.35 -31.75 19.65 -33.1 19.65 -33.15 19.65 -33.2 M21.55 -25.6 L21.75 -25.6 21.85 -25.55 21.9 -25.5 Q21.95 -25.05 21.95 -24.7 21.95 -24.55 21.75 -23.8 21.5 -23.05 21.4 -23.0 21.4 -22.95 21.3 -22.95 L21.2 -22.95 21.1 -23.05 21.1 -23.15 Q21.3 -23.6 21.4 -24.3 L21.45 -24.7 Q21.55 -24.95 21.55 -25.15 L21.55 -25.6 M21.75 -25.45 L21.65 -25.45 Q21.65 -24.95 21.55 -24.3 21.4 -23.55 21.2 -23.1 L21.3 -23.1 21.6 -23.85 Q21.8 -24.55 21.8 -24.7 L21.75 -25.45 M18.1 -14.45 L18.15 -14.4 18.2 -14.3 18.15 -14.2 Q17.3 -13.35 16.65 -13.05 16.35 -12.9 15.75 -12.7 L15.7 -12.65 15.3 -12.3 15.2 -12.2 Q15.45 -11.9 15.75 -11.35 L15.8 -11.25 15.75 -11.2 15.65 -11.15 Q15.2 -11.1 14.7 -11.55 14.55 -11.7 14.2 -12.25 L14.15 -12.25 Q14.0 -12.35 13.95 -12.45 13.9 -12.6 14.05 -12.7 14.2 -12.85 14.65 -12.95 L15.7 -13.15 15.75 -13.15 16.2 -13.3 16.7 -13.55 17.45 -14.1 Q17.85 -14.45 18.0 -14.45 L18.1 -14.45 M4.15 -25.7 L4.1 -25.7 Q4.25 -25.0 2.85 -24.05 1.6 -23.25 -0.25 -22.55 1.55 -23.0 2.9 -23.9 4.2 -24.75 4.2 -25.5 L4.15 -25.7 M4.25 -25.85 L4.3 -25.8 Q4.35 -25.7 4.35 -25.5 4.35 -24.7 2.95 -23.75 1.65 -22.85 -0.2 -22.4 L-0.3 -22.4 -0.4 -22.5 -0.4 -22.6 -0.3 -22.7 Q1.55 -23.35 2.75 -24.2 4.05 -25.05 3.95 -25.7 L4.0 -25.8 4.05 -25.85 4.25 -25.85 M1.05 -4.5 L1.15 -4.45 2.05 -5.05 1.5 -4.9 Q1.05 -4.75 0.9 -4.6 0.9 -4.55 1.05 -4.5 M0.75 -4.65 L0.8 -4.7 Q0.95 -4.85 1.5 -5.05 1.95 -5.2 2.05 -5.2 L2.15 -5.1 2.15 -5.0 2.1 -4.9 Q1.85 -4.7 1.2 -4.35 L1.1 -4.3 1.0 -4.35 0.95 -4.35 Q0.8 -4.45 0.75 -4.55 L0.75 -4.65 M14.6 -12.45 L14.55 -12.5 14.65 -12.5 14.6 -12.45 M16.75 -13.45 L16.25 -13.2 15.75 -13.0 14.65 -12.8 Q13.85 -12.6 14.2 -12.4 L14.25 -12.4 Q14.65 -11.85 14.8 -11.65 15.25 -11.25 15.65 -11.3 15.35 -11.8 15.1 -12.1 L15.0 -12.2 15.2 -12.4 15.6 -12.75 15.4 -12.65 15.25 -12.55 15.3 -12.7 Q16.2 -13.0 16.6 -13.15 17.2 -13.5 18.05 -14.3 17.9 -14.3 17.55 -14.0 L16.75 -13.45 M16.75 -9.95 Q16.85 -9.65 17.1 -9.1 17.3 -8.6 17.35 -8.3 L17.35 -8.2 17.25 -8.15 17.1 -8.1 17.0 -8.1 16.95 -8.2 Q16.7 -8.95 16.35 -9.7 16.3 -9.75 16.35 -9.8 16.4 -10.05 16.6 -10.05 L16.7 -10.0 16.75 -9.95 M16.6 -9.9 Q16.5 -9.9 16.45 -9.75 16.8 -9.05 17.05 -8.25 L17.2 -8.3 Q17.15 -8.6 16.95 -9.05 16.7 -9.6 16.6 -9.9 M-14.7 -35.7 L-14.75 -35.8 -14.75 -35.9 Q-14.7 -36.0 -14.05 -36.15 L-13.4 -36.3 -13.3 -36.3 -13.25 -36.25 -13.25 -36.15 Q-13.25 -36.1 -13.3 -36.05 L-13.85 -35.75 -13.9 -35.75 -14.4 -35.65 -14.45 -35.65 -14.65 -35.7 -14.7 -35.7 M-14.4 -35.8 L-13.9 -35.9 -13.35 -36.2 -14.05 -36.05 Q-14.6 -35.9 -14.6 -35.8 L-14.4 -35.8 M-4.0 -39.55 Q-3.95 -39.5 -3.95 -39.45 -3.95 -39.35 -4.25 -38.9 L-4.55 -38.35 Q-4.55 -38.3 -4.6 -38.3 L-4.7 -38.25 -4.8 -38.25 Q-4.85 -38.25 -4.9 -38.3 L-4.95 -38.4 Q-4.95 -38.8 -4.65 -39.15 -4.45 -39.5 -4.15 -39.6 L-4.05 -39.6 Q-4.0 -39.6 -4.0 -39.55 M-5.1 -37.45 L-5.2 -37.45 Q-5.2 -37.3 -5.25 -36.8 L-5.3 -36.1 Q-5.3 -35.95 -5.2 -35.65 -5.0 -35.2 -4.7 -35.2 L-4.45 -35.25 -4.5 -35.25 -4.55 -35.3 Q-4.6 -35.7 -4.85 -36.5 -5.1 -37.2 -5.1 -37.45 M-4.1 -39.45 Q-4.35 -39.35 -4.55 -39.05 -4.8 -38.75 -4.8 -38.4 L-4.7 -38.4 Q-4.65 -38.55 -4.35 -38.95 -4.1 -39.35 -4.1 -39.45 M-5.3 -37.55 L-5.2 -37.6 -5.1 -37.6 -5.0 -37.55 -4.95 -37.45 Q-4.95 -37.2 -4.7 -36.55 -4.45 -35.8 -4.4 -35.35 -4.3 -35.35 -4.3 -35.25 -4.3 -35.05 -4.7 -35.05 -5.05 -35.05 -5.3 -35.6 -5.45 -35.95 -5.45 -36.1 L-5.4 -36.8 Q-5.35 -37.3 -5.35 -37.45 L-5.3 -37.55 M-27.3 -28.45 L-26.7 -28.65 -26.25 -28.75 Q-26.15 -28.75 -26.15 -28.7 L-26.1 -28.6 Q-26.1 -28.55 -26.1 -28.5 -26.25 -28.35 -26.55 -28.15 -26.85 -28.0 -26.9 -28.0 L-27.25 -28.05 Q-27.35 -28.15 -27.35 -28.2 L-27.35 -28.4 -27.3 -28.45 M-26.25 -28.6 L-26.65 -28.5 -27.25 -28.3 -27.2 -28.2 -26.9 -28.15 Q-26.85 -28.15 -26.6 -28.3 -26.35 -28.45 -26.25 -28.6 M-24.65 -28.7 L-24.6 -28.75 -24.5 -28.8 Q-24.35 -28.75 -24.1 -28.6 -23.8 -28.45 -23.75 -28.35 -23.7 -28.3 -23.75 -28.25 -23.75 -28.2 -23.8 -28.15 -23.9 -28.1 -24.1 -28.1 L-24.5 -28.2 -24.6 -28.3 -24.75 -28.5 -24.75 -28.65 -24.7 -28.7 -24.65 -28.7 M-24.55 -28.65 L-24.6 -28.6 -24.6 -28.55 -24.5 -28.35 -24.1 -28.25 -23.85 -28.3 Q-23.9 -28.35 -24.15 -28.5 -24.4 -28.6 -24.55 -28.65 M-30.15 -25.45 L-30.1 -25.35 -30.1 -25.25 -30.5 -24.25 -30.9 -23.15 Q-30.95 -23.1 -30.95 -23.05 L-31.25 -23.05 -31.4 -23.2 -31.4 -23.5 Q-31.4 -23.95 -31.1 -24.6 -30.7 -25.4 -30.25 -25.45 L-30.15 -25.45 M-31.25 -23.25 L-31.2 -23.2 -31.05 -23.2 -30.65 -24.3 -30.25 -25.3 Q-30.6 -25.25 -30.95 -24.55 -31.25 -23.9 -31.25 -23.5 L-31.25 -23.25 M-26.1 -14.35 L-25.75 -15.35 Q-25.5 -16.2 -25.5 -16.3 L-25.6 -16.4 -25.6 -16.45 -25.9 -16.8 -25.9 -16.9 -25.85 -17.0 Q-25.7 -17.15 -25.4 -17.3 -24.9 -17.5 -24.2 -17.55 L-23.2 -17.6 Q-22.1 -17.6 -22.05 -17.45 -22.05 -17.4 -22.05 -17.35 L-22.15 -17.25 -23.05 -17.15 -23.1 -17.15 Q-23.15 -17.1 -23.2 -17.1 -23.85 -17.05 -24.4 -16.35 L-24.95 -15.55 Q-24.95 -15.3 -25.15 -14.95 -25.35 -14.7 -25.35 -14.55 -25.35 -14.5 -25.25 -14.5 -24.95 -14.45 -24.9 -14.4 -24.85 -14.35 -24.85 -14.3 -24.85 -14.15 -24.95 -13.9 L-25.0 -13.85 -25.1 -13.8 -25.15 -13.85 -25.3 -14.05 Q-25.4 -14.05 -25.7 -14.05 L-25.85 -14.0 Q-26.05 -13.95 -26.05 -14.2 L-26.1 -14.35 M-23.2 -17.25 L-23.2 -17.3 -23.15 -17.3 -22.2 -17.4 -23.2 -17.45 -24.2 -17.45 Q-24.9 -17.4 -25.35 -17.2 -25.6 -17.05 -25.75 -16.9 L-25.45 -16.5 Q-25.35 -16.35 -25.35 -16.3 -25.35 -16.15 -25.65 -15.3 L-25.95 -14.35 Q-25.95 -14.15 -25.9 -14.15 L-25.7 -14.2 -25.2 -14.15 Q-25.15 -14.0 -25.1 -13.95 -25.0 -14.2 -25.0 -14.3 L-25.3 -14.35 Q-25.5 -14.35 -25.5 -14.55 -25.5 -14.7 -25.3 -15.0 -25.1 -15.35 -25.1 -15.55 L-25.1 -15.6 -24.55 -16.4 Q-23.9 -17.2 -23.2 -17.25 M-11.5 -17.05 L-11.45 -16.95 -11.55 -16.5 -11.6 -16.45 Q-11.6 -16.4 -11.65 -16.4 L-11.75 -16.4 -12.05 -17.0 Q-12.2 -17.4 -12.4 -17.65 L-12.4 -17.8 -12.25 -17.9 -12.25 -17.95 -12.15 -18.0 -12.1 -18.0 Q-11.6 -17.85 -11.55 -17.45 -11.55 -17.15 -11.5 -17.05 M-15.25 -21.55 L-15.25 -21.45 -15.3 -21.05 Q-15.45 -20.7 -15.75 -20.5 L-15.85 -20.45 -15.9 -20.4 Q-16.05 -20.35 -16.15 -20.5 -16.2 -20.55 -16.2 -20.7 -16.2 -20.9 -16.15 -21.0 -16.0 -21.2 -15.45 -21.6 L-15.35 -21.6 Q-15.3 -21.6 -15.25 -21.55 M-21.15 -26.85 L-21.05 -26.9 -20.95 -26.9 Q-20.9 -26.9 -20.85 -26.85 L-20.8 -26.75 Q-20.65 -24.95 -20.1 -23.75 -19.35 -22.1 -17.55 -20.8 L-17.5 -20.7 -17.5 -20.6 -17.55 -20.55 -17.7 -20.55 Q-19.2 -21.2 -20.1 -22.85 -20.6 -23.75 -21.2 -25.65 L-21.2 -26.75 -21.15 -26.85 M-15.85 -20.65 Q-15.55 -20.8 -15.45 -21.1 L-15.35 -21.45 Q-15.85 -21.1 -16.0 -20.9 L-16.05 -20.7 Q-16.05 -20.5 -15.95 -20.55 L-15.85 -20.65 M-12.1 -17.85 L-12.2 -17.8 -12.25 -17.7 Q-12.1 -17.45 -11.9 -17.05 L-11.7 -16.55 -11.6 -16.95 Q-11.7 -17.1 -11.7 -17.45 -11.75 -17.75 -12.1 -17.85 M-20.95 -26.75 L-21.05 -26.75 -21.05 -25.7 Q-20.5 -23.8 -20.0 -22.9 -19.1 -21.3 -17.6 -20.7 -19.45 -22.0 -20.25 -23.7 -20.8 -24.9 -20.95 -26.75 M-11.85 -12.15 L-11.8 -12.1 -11.8 -12.0 Q-11.8 -11.9 -12.1 -11.3 -12.3 -10.85 -12.35 -10.5 L-12.4 -10.45 Q-12.45 -10.4 -12.5 -10.4 L-12.6 -10.4 Q-12.8 -9.75 -13.05 -9.35 L-13.05 -9.3 -13.15 -9.3 -13.3 -9.25 -13.4 -9.25 -13.45 -9.35 -13.45 -9.45 Q-13.4 -9.65 -13.2 -10.55 -13.0 -11.3 -12.6 -11.6 L-12.5 -11.6 -12.4 -11.55 Q-12.15 -12.2 -11.95 -12.2 L-11.85 -12.15 M-22.05 -0.9 L-22.05 -0.85 Q-21.8 -0.45 -21.1 0.1 -20.35 0.65 -19.95 0.65 L-19.7 0.6 -19.75 0.55 -21.2 -0.35 -22.05 -0.9 M-13.35 -9.4 L-13.15 -9.45 Q-12.9 -9.85 -12.7 -10.4 -12.5 -11.05 -12.5 -11.45 -12.9 -11.2 -13.05 -10.5 -13.25 -9.55 -13.35 -9.4 M-12.2 -11.4 Q-11.95 -11.9 -11.95 -12.05 -12.1 -12.0 -12.3 -11.4 L-12.6 -10.55 -12.5 -10.55 Q-12.45 -10.9 -12.2 -11.4 M-22.2 -0.9 L-22.15 -1.0 -22.05 -1.05 -21.95 -1.0 -21.1 -0.45 Q-20.4 0.05 -19.7 0.45 L-19.65 0.45 -19.65 0.5 -19.6 0.55 -19.6 0.6 Q-19.55 0.8 -19.95 0.8 -20.35 0.8 -21.15 0.2 -21.9 -0.35 -22.15 -0.8 L-22.2 -0.85 -22.2 -0.9 M-16.25 -3.2 L-16.15 -3.15 -16.1 -3.05 Q-16.05 -2.85 -16.1 -2.45 L-16.15 -1.9 Q-16.15 -1.45 -15.95 -0.75 -15.7 -0.2 -15.6 0.15 -14.55 -0.1 -13.9 0.55 -13.7 0.75 -13.2 1.6 L-13.2 1.7 -13.25 1.8 -13.35 1.9 Q-13.7 1.9 -14.0 1.55 L-14.4 1.1 -14.4 1.05 Q-14.75 0.75 -15.15 0.85 -15.3 0.85 -15.45 0.95 -15.5 1.0 -15.55 1.0 L-15.7 0.95 -16.1 1.05 -16.35 1.05 -16.45 1.0 -16.45 0.85 -16.4 0.75 -16.05 0.55 Q-16.2 0.2 -16.35 -0.45 -16.55 -1.15 -16.65 -1.85 L-16.65 -1.9 Q-16.65 -2.2 -16.55 -2.55 -16.45 -3.0 -16.35 -3.15 -16.3 -3.15 -16.25 -3.2 M-16.3 -1.9 L-16.25 -2.5 Q-16.2 -2.85 -16.25 -3.05 -16.35 -2.9 -16.4 -2.55 -16.5 -2.15 -16.5 -1.9 -16.4 -1.2 -16.25 -0.5 -16.05 0.3 -15.85 0.6 L-15.9 0.65 Q-15.95 0.65 -16.35 0.9 L-16.1 0.95 -15.65 0.8 -15.55 0.85 Q-15.4 0.75 -15.15 0.7 -14.75 0.6 -14.3 0.95 L-13.85 1.5 Q-13.65 1.75 -13.35 1.75 L-13.35 1.65 Q-13.8 0.85 -14.0 0.65 -14.65 0.05 -15.7 0.3 -15.8 0.0 -16.05 -0.75 -16.3 -1.4 -16.3 -1.9 M-9.45 0.85 L-9.4 0.95 Q-9.4 1.0 -9.4 1.05 L-9.5 1.1 Q-9.7 1.2 -10.15 1.6 L-10.2 1.6 Q-10.75 2.0 -11.7 2.0 L-11.75 2.0 Q-12.3 1.9 -12.4 1.75 L-12.5 1.55 -12.45 1.45 -12.35 1.45 -10.9 1.15 -9.55 0.85 -9.45 0.85 M-10.25 1.5 Q-9.8 1.05 -9.55 0.95 L-10.9 1.25 -12.35 1.55 -12.25 1.7 Q-12.2 1.8 -11.7 1.85 -10.8 1.85 -10.25 1.5 M-10.8 5.95 L-10.8 6.05 Q-10.8 6.1 -10.85 6.15 -10.9 6.2 -10.95 6.2 L-11.2 6.15 -11.8 6.05 -11.9 6.0 -11.95 5.9 Q-11.95 5.8 -11.85 5.7 L-11.8 5.65 -11.7 5.65 Q-11.05 5.7 -10.9 5.8 L-10.85 5.85 -10.8 5.95 M-11.15 6.0 L-10.95 6.05 -10.95 5.95 Q-11.1 5.8 -11.7 5.8 L-11.8 5.9 -11.15 6.0 M-14.5 4.3 L-14.5 4.1 -14.45 4.0 -14.35 3.95 -14.25 3.95 Q-14.2 3.95 -14.15 4.0 -14.1 4.05 -14.1 4.1 -14.05 4.2 -13.7 4.55 -13.1 5.15 -12.85 5.45 L-12.8 5.5 -12.8 5.6 -12.85 5.65 -12.9 5.75 -13.0 5.75 Q-13.45 5.75 -14.0 5.2 -14.55 4.65 -14.5 4.35 L-14.5 4.3 M-14.25 4.1 L-14.35 4.1 -14.35 4.35 Q-14.4 4.6 -13.9 5.1 -13.4 5.6 -13.0 5.6 L-12.95 5.55 Q-13.2 5.25 -13.8 4.65 -14.2 4.25 -14.25 4.1" fill="#9bebeb" fill-opacity="0.49803922" fill-rule="evenodd" stroke="none"/>
    </g>
  </defs>
</svg>
