<?xml version="1.0" encoding="UTF-8" standalone="no"?>
<svg xmlns:ffdec="https://www.free-decompiler.com/flash" xmlns:xlink="http://www.w3.org/1999/xlink" ffdec:objectType="frame" height="375.7px" width="763.8px" xmlns="http://www.w3.org/2000/svg">
  <g transform="matrix(1.0, 0.0, 0.0, 1.0, 361.4, 335.85)">
    <use ffdec:characterId="2486" height="18.0" transform="matrix(-7.0, 0.0, 0.0, 7.0, 361.1, -103.15)" width="47.4" xlink:href="#shape0"/>
    <use ffdec:characterId="2475" height="27.75" transform="matrix(7.0, 0.0, 0.0, 7.0, -212.3, -314.25)" width="18.25" xlink:href="#shape1"/>
    <use ffdec:characterId="2472" height="28.35" transform="matrix(-7.0, 0.0, 0.0, 7.0, 158.85, -247.5)" width="30.5" xlink:href="#shape2"/>
  </g>
  <defs>
    <g id="shape0" transform="matrix(1.0, 0.0, 0.0, 1.0, 23.2, 15.7)">
      <path d="M18.55 -14.3 L19.05 -13.85 19.95 -13.05 Q20.25 -12.7 20.4 -12.25 20.45 -11.9 20.45 -11.35 L20.55 -11.15 Q20.6 -11.0 20.75 -10.95 L21.85 -10.85 Q22.05 -10.75 22.55 -10.5 22.9 -10.35 23.05 -10.15 L23.25 -9.75 23.35 -9.25 Q23.35 -9.1 23.2 -8.65 L23.05 -8.25 Q23.05 -8.1 23.25 -7.85 L23.65 -7.25 Q24.2 -6.4 24.2 -5.5 24.2 -4.8 23.5 -3.65 22.9 -2.75 22.55 -2.45 21.85 -1.9 19.9 -1.15 18.15 -0.5 17.8 -0.5 L17.5 -0.55 Q17.35 -0.6 17.3 -0.65 L17.2 -0.7 17.3 -0.75 17.25 -0.75 Q17.2 -0.7 17.05 -0.7 L16.75 -0.7 16.65 -0.8 16.35 -0.85 16.3 -0.85 Q16.1 -1.0 15.15 -0.95 L15.05 -0.95 Q15.0 -1.0 15.0 -1.1 15.0 -1.25 15.15 -1.35 L15.55 -1.6 Q15.75 -1.75 15.75 -1.9 L15.7 -2.1 Q15.7 -2.2 15.95 -2.35 16.2 -2.5 16.3 -2.65 16.45 -2.95 16.45 -3.2 16.45 -3.6 16.2 -3.85 15.85 -4.3 14.95 -4.25 14.85 -4.25 14.7 -4.4 L14.4 -4.7 Q13.9 -5.05 13.8 -5.05 13.65 -5.1 12.5 -5.55 12.05 -5.75 11.1 -5.8 L10.65 -5.8 10.6 -5.95 10.55 -6.15 Q10.5 -6.25 10.35 -6.25 L8.6 -6.05 8.0 -5.95 Q7.2 -5.6 6.9 -5.55 L6.75 -5.5 6.4 -5.4 7.05 -5.65 Q7.5 -5.9 8.45 -6.35 L9.0 -6.65 Q9.4 -6.95 9.65 -7.25 L9.55 -7.35 Q9.5 -7.45 9.45 -7.5 L9.3 -7.7 Q9.1 -7.95 9.05 -8.05 8.95 -8.25 8.95 -8.65 8.95 -8.85 9.15 -9.25 L9.4 -9.75 Q9.6 -10.1 10.25 -10.3 L11.15 -10.55 11.2 -10.6 Q11.25 -10.6 11.25 -10.7 L11.1 -11.1 Q10.95 -11.5 10.95 -11.6 10.95 -11.9 11.3 -12.4 11.65 -13.0 12.35 -13.45 14.2 -14.75 17.45 -14.6 18.2 -14.55 18.55 -14.3 M11.35 -11.1 L11.5 -10.7 Q11.5 -10.6 11.2 -10.35 L10.7 -10.05 Q10.65 -10.1 10.45 -10.1 L10.1 -10.05 9.8 -9.95 9.3 -9.2 Q9.15 -8.8 9.15 -8.4 9.15 -8.15 9.4 -7.85 L9.55 -7.65 9.6 -7.65 9.75 -7.6 9.8 -7.55 9.85 -7.4 9.85 -7.35 9.9 -7.35 Q9.95 -6.85 9.0 -6.45 L8.65 -6.25 9.65 -6.4 10.05 -6.4 10.6 -6.35 Q10.8 -6.3 10.8 -6.2 11.2 -6.35 12.65 -6.05 L13.35 -5.85 14.05 -5.9 14.15 -5.9 Q15.45 -6.0 16.0 -6.4 16.2 -6.6 16.35 -6.8 16.75 -7.55 16.7 -8.95 L16.7 -9.0 Q16.7 -9.15 16.7 -9.25 L16.7 -9.45 16.65 -9.75 Q16.65 -10.35 16.7 -10.8 L16.7 -11.0 Q16.7 -11.4 16.85 -11.75 L17.25 -12.65 Q17.4 -13.05 18.35 -13.35 18.7 -13.5 18.95 -13.5 L18.8 -13.65 Q18.7 -13.9 18.45 -14.05 18.05 -14.35 17.15 -14.35 14.95 -14.35 13.4 -13.8 12.75 -13.55 12.2 -13.15 11.8 -12.85 11.5 -12.4 11.2 -11.95 11.2 -11.65 11.2 -11.55 11.35 -11.1 M2.95 -7.45 L3.2 -7.0 3.35 -6.6 Q3.75 -6.6 3.85 -6.2 L3.9 -5.8 Q3.9 -5.4 3.8 -5.25 L3.2 -4.65 3.0 -4.65 2.95 -4.85 2.85 -5.0 1.95 -5.2 Q0.8 -5.15 0.6 -5.05 0.5 -4.85 0.2 -4.75 L0.05 -4.7 Q-0.4 -4.8 -0.4 -5.15 -0.4 -5.55 -0.8 -5.6 L-0.85 -5.7 -0.55 -6.3 Q-0.4 -6.65 -0.2 -6.8 0.15 -6.75 0.25 -6.85 L0.45 -6.85 0.55 -6.75 Q0.6 -6.65 0.7 -6.65 0.85 -6.65 1.25 -7.15 1.85 -7.6 2.95 -7.45 M3.65 -5.5 L3.55 -5.3 3.65 -5.4 3.65 -5.5 M3.2 -4.95 L3.2 -4.95 M1.2 -5.35 L0.85 -5.3 1.15 -5.35 1.2 -5.35 M-13.35 -15.45 Q-12.35 -15.5 -11.5 -14.6 -10.7 -13.85 -10.65 -13.2 L-10.65 -12.7 Q-10.6 -12.2 -10.85 -11.95 -11.1 -11.7 -11.1 -11.35 -11.05 -11.1 -11.0 -11.05 L-10.45 -11.05 Q-10.3 -11.0 -10.3 -10.95 -10.15 -10.95 -10.05 -10.9 -9.95 -10.75 -9.85 -10.8 L-9.75 -10.65 -9.75 -10.55 Q-9.35 -10.3 -9.05 -9.75 -8.7 -9.15 -8.65 -8.55 -8.65 -8.35 -8.8 -8.0 L-8.8 -7.75 Q-8.85 -7.55 -9.0 -7.45 L-9.3 -7.4 Q-9.45 -7.1 -9.3 -6.9 L-9.35 -6.9 Q-9.05 -6.6 -8.4 -6.2 -7.3 -5.55 -6.9 -5.25 -7.6 -5.4 -8.2 -5.75 L-8.5 -5.85 Q-9.05 -6.0 -9.45 -5.95 L-9.6 -5.5 -10.7 -5.5 Q-11.45 -5.4 -12.1 -4.85 -12.85 -4.25 -12.7 -3.6 L-12.75 -2.7 Q-12.65 -2.45 -12.65 -2.3 -12.65 -2.05 -13.1 -1.9 L-12.8 -1.55 Q-12.6 -1.3 -12.3 -1.25 -12.1 -1.2 -12.1 -1.1 L-12.25 -1.0 -12.65 -1.0 -12.65 -0.9 -13.75 -1.05 -14.3 -1.2 -14.9 -1.3 -15.25 -1.2 Q-16.3 -1.1 -16.8 -1.55 -17.05 -1.75 -17.15 -2.05 -19.1 -1.65 -20.65 -2.8 -21.2 -3.2 -21.55 -3.75 -21.85 -4.2 -21.9 -4.5 L-21.8 -4.8 Q-21.75 -5.0 -21.75 -5.1 -21.8 -5.2 -21.85 -5.3 L-21.95 -5.5 Q-22.65 -5.75 -22.95 -6.4 -23.15 -6.9 -23.2 -7.65 -23.25 -8.85 -23.0 -9.5 -22.75 -10.2 -22.0 -10.75 L-21.8 -11.0 Q-21.45 -11.35 -21.1 -11.35 L-20.55 -11.35 -20.2 -11.15 -19.95 -11.2 Q-19.9 -11.25 -19.75 -11.6 -19.65 -11.8 -19.3 -11.85 L-19.15 -12.05 Q-18.4 -11.95 -18.1 -12.8 -18.1 -12.9 -17.95 -13.45 L-17.95 -13.5 Q-18.0 -13.75 -17.75 -14.15 -17.5 -14.65 -17.0 -15.05 -15.65 -16.05 -13.35 -15.45 M-12.5 -14.75 Q-12.7 -14.9 -12.7 -15.0 L-12.7 -15.05 Q-13.9 -15.5 -15.75 -15.3 -16.95 -15.2 -17.5 -14.15 -17.9 -13.4 -17.85 -12.95 L-17.85 -13.0 -17.9 -12.8 Q-18.0 -12.2 -18.6 -11.8 L-18.7 -11.8 -18.85 -11.85 -19.1 -11.8 Q-19.15 -11.65 -19.3 -11.55 L-19.45 -11.45 -19.6 -11.25 Q-19.7 -11.05 -19.9 -10.95 L-20.25 -10.95 -20.6 -11.0 Q-20.65 -11.0 -20.8 -11.1 -21.35 -11.05 -21.7 -10.8 L-22.15 -10.45 -22.1 -10.6 -22.2 -10.5 Q-22.4 -10.35 -22.5 -10.05 L-22.7 -9.6 -22.85 -9.2 -23.0 -8.75 Q-23.05 -8.4 -23.0 -7.95 -23.0 -7.65 -22.9 -7.35 L-22.7 -6.9 Q-22.5 -6.5 -22.1 -6.4 -21.7 -6.2 -21.2 -6.05 -20.2 -5.7 -19.55 -5.7 -18.8 -5.7 -17.85 -5.9 -17.65 -6.25 -17.1 -6.65 -16.6 -7.0 -15.25 -7.8 -13.9 -8.6 -13.4 -9.0 -12.55 -9.65 -12.55 -10.15 -12.55 -10.2 -12.65 -10.4 L-12.75 -10.55 Q-13.15 -10.95 -13.15 -11.2 -13.15 -11.75 -12.5 -12.2 -11.85 -12.6 -11.85 -13.1 -11.85 -13.25 -12.1 -14.05 L-12.2 -14.3 Q-12.2 -14.45 -12.3 -14.55 L-12.5 -14.75 M-2.45 -5.5 Q-2.6 -5.3 -2.6 -5.1 L-2.75 -5.25 -3.0 -5.45 -3.1 -5.4 -3.3 -5.35 Q-3.35 -5.35 -3.45 -5.5 -3.6 -5.65 -3.75 -5.7 L-3.8 -5.75 -3.85 -5.9 -3.8 -6.0 -3.65 -6.2 -3.15 -6.25 -2.7 -6.2 -2.5 -5.95 Q-2.35 -5.8 -2.35 -5.7 -2.35 -5.6 -2.45 -5.5" fill="#cccccc" fill-rule="evenodd" stroke="none"/>
      <path d="M11.35 -11.1 Q11.2 -11.55 11.2 -11.65 11.2 -11.95 11.5 -12.4 11.8 -12.85 12.2 -13.15 12.75 -13.55 13.4 -13.8 14.95 -14.35 17.15 -14.35 18.05 -14.35 18.45 -14.05 18.7 -13.9 18.8 -13.65 L18.95 -13.5 Q18.7 -13.5 18.35 -13.35 17.4 -13.05 17.25 -12.65 L16.85 -11.75 Q16.7 -11.4 16.7 -11.0 L16.7 -10.8 Q16.65 -10.35 16.65 -9.75 L16.7 -9.45 16.7 -9.25 Q16.7 -9.15 16.7 -9.0 L16.7 -8.95 Q16.75 -7.55 16.35 -6.8 16.2 -6.6 16.0 -6.4 15.45 -6.0 14.15 -5.9 L14.05 -5.9 13.35 -5.85 12.65 -6.05 Q11.2 -6.35 10.8 -6.2 10.8 -6.3 10.6 -6.35 L10.05 -6.4 9.65 -6.4 8.65 -6.25 9.0 -6.45 Q9.95 -6.85 9.9 -7.35 L9.85 -7.35 9.85 -7.4 9.8 -7.55 9.75 -7.6 9.6 -7.65 9.55 -7.65 9.4 -7.85 Q9.15 -8.15 9.15 -8.4 9.15 -8.8 9.3 -9.2 L9.8 -9.95 10.1 -10.05 10.45 -10.1 Q10.65 -10.1 10.7 -10.05 L11.2 -10.35 Q11.5 -10.6 11.5 -10.7 L11.35 -11.1 M-12.5 -14.75 L-12.3 -14.55 Q-12.2 -14.45 -12.2 -14.3 L-12.1 -14.05 Q-11.85 -13.25 -11.85 -13.1 -11.85 -12.6 -12.5 -12.2 -13.15 -11.75 -13.15 -11.2 -13.15 -10.95 -12.75 -10.55 L-12.65 -10.4 Q-12.55 -10.2 -12.55 -10.15 -12.55 -9.65 -13.4 -9.0 -13.9 -8.6 -15.25 -7.8 -16.6 -7.0 -17.1 -6.65 -17.65 -6.25 -17.85 -5.9 -18.8 -5.7 -19.55 -5.7 -20.2 -5.7 -21.2 -6.05 -21.7 -6.2 -22.1 -6.4 -22.5 -6.5 -22.7 -6.9 L-22.9 -7.35 Q-23.0 -7.65 -23.0 -7.95 -23.05 -8.4 -23.0 -8.75 L-22.85 -9.2 -22.7 -9.6 -22.5 -10.05 Q-22.4 -10.35 -22.2 -10.5 L-22.1 -10.6 -22.15 -10.45 -21.7 -10.8 Q-21.35 -11.05 -20.8 -11.1 -20.65 -11.0 -20.6 -11.0 L-20.25 -10.95 -19.9 -10.95 Q-19.7 -11.05 -19.6 -11.25 L-19.45 -11.45 -19.3 -11.55 Q-19.15 -11.65 -19.1 -11.8 L-18.85 -11.85 -18.7 -11.8 -18.6 -11.8 Q-18.0 -12.2 -17.9 -12.8 L-17.85 -13.0 -17.85 -12.95 Q-17.9 -13.4 -17.5 -14.15 -16.95 -15.2 -15.75 -15.3 -13.9 -15.5 -12.7 -15.05 L-12.7 -15.0 Q-12.7 -14.9 -12.5 -14.75" fill="#ffffcc" fill-rule="evenodd" stroke="none"/>
      <path d="M3.3 -3.95 L3.15 -4.0 Q4.8 -4.2 6.6 -5.1 L7.2 -5.4 Q7.55 -5.55 8.3 -6.0 8.2 -5.8 8.2 -5.65 8.15 -5.6 8.2 -5.5 L8.2 -5.25 8.55 -5.2 Q8.65 -5.2 9.0 -5.35 L9.0 -5.3 Q9.0 -5.25 9.0 -5.15 9.05 -5.0 9.35 -5.0 10.1 -5.0 11.55 -6.05 11.95 -6.25 12.55 -6.6 13.6 -7.2 14.35 -7.8 15.3 -8.5 15.75 -8.9 L15.8 -8.95 15.95 -9.05 16.05 -9.1 15.2 -8.25 14.3 -7.3 Q13.8 -6.7 13.8 -6.3 12.45 -4.85 11.7 -3.85 L11.95 -3.55 Q12.25 -3.55 12.5 -3.45 12.7 -3.35 12.85 -3.35 13.35 -3.35 16.15 -4.6 L16.75 -4.95 18.1 -5.5 Q17.65 -5.3 17.3 -5.05 16.9 -4.75 16.9 -4.6 L16.9 -4.55 16.75 -4.45 Q16.4 -4.35 15.85 -4.1 14.8 -3.6 14.8 -3.15 14.8 -3.05 14.85 -2.95 14.9 -2.8 15.2 -2.8 L15.4 -2.85 15.45 -2.85 Q16.0 -3.0 16.2 -2.95 L16.1 -2.85 15.6 -2.75 15.5 -2.75 14.7 -2.5 Q13.1 -2.05 11.95 -1.55 10.9 -1.1 10.75 -0.8 9.4 -0.15 9.4 0.05 9.4 0.15 9.4 0.2 L9.45 0.2 9.5 0.25 9.7 0.25 9.8 0.2 11.55 0.2 11.75 0.3 Q10.05 0.4 8.85 0.7 8.0 0.9 7.7 1.15 7.55 1.25 7.5 1.45 L7.5 1.45 Q7.45 1.5 7.45 1.6 L7.6 2.1 7.7 2.3 7.65 2.3 Q7.5 2.05 6.95 1.8 6.05 1.4 4.7 1.35 L4.7 1.4 3.4 1.5 2.35 1.45 Q1.65 1.45 1.15 1.65 0.75 1.75 0.65 1.95 L0.55 1.9 Q0.4 1.6 -0.05 1.45 -0.7 1.2 -1.65 1.3 -2.45 1.35 -3.1 1.6 L-3.15 1.6 -3.15 1.55 Q-3.15 1.0 -4.15 0.8 -5.0 0.6 -6.25 0.8 -6.95 0.9 -7.5 1.05 L-7.55 0.9 Q-7.75 0.45 -8.15 0.25 L-9.25 -0.05 Q-10.35 -0.3 -10.55 -0.45 L-11.8 -0.55 -12.0 -0.6 Q-12.25 -0.7 -12.25 -0.75 -11.95 -0.95 -10.4 -1.0 -10.75 -1.1 -10.8 -1.3 L-10.8 -1.6 -10.1 -1.5 -11.1 -1.9 Q-12.35 -2.45 -13.3 -2.95 -13.75 -3.15 -14.65 -3.95 -15.65 -4.65 -16.65 -4.8 -16.7 -4.9 -17.15 -5.25 L-17.4 -5.4 Q-17.7 -5.55 -17.95 -5.7 L-17.9 -5.75 -17.95 -5.8 -17.85 -5.75 -17.85 -5.8 -17.75 -5.75 -16.75 -5.3 Q-15.8 -4.9 -14.35 -4.4 L-12.65 -3.85 Q-12.65 -4.0 -12.6 -3.85 L-12.25 -3.7 -11.85 -3.6 -11.65 -3.5 -11.6 -3.5 -11.55 -3.45 Q-11.2 -3.35 -11.05 -3.25 -10.95 -3.35 -10.85 -3.4 L-10.1 -3.45 -10.05 -3.6 Q-9.95 -3.7 -9.7 -3.75 L-10.35 -4.45 Q-10.85 -4.95 -10.95 -5.15 -10.75 -5.3 -10.55 -5.4 L-11.75 -6.7 -13.5 -8.7 -13.45 -8.75 -13.45 -8.8 -13.35 -8.75 -13.55 -9.05 -13.4 -9.05 Q-12.3 -7.95 -10.8 -6.95 -9.15 -5.9 -7.4 -5.3 L-6.8 -5.4 Q-6.35 -5.45 -6.2 -5.4 L-7.85 -7.05 -7.9 -7.15 Q-7.9 -7.35 -7.85 -7.15 L-7.85 -7.2 Q-7.15 -6.8 -6.7 -6.45 L-5.7 -5.9 -5.3 -5.65 -5.35 -5.7 -5.3 -5.75 -5.3 -5.8 Q-5.0 -5.7 -4.4 -5.3 L-4.0 -5.05 -4.0 -5.1 Q-4.0 -5.25 -4.1 -5.55 -3.4 -5.0 -2.75 -4.65 L-2.45 -4.5 Q-1.9 -4.2 -1.35 -4.0 -2.25 -4.0 -2.7 -3.75 -2.9 -3.6 -2.95 -3.4 L-3.0 -3.35 -3.25 -3.45 Q-4.3 -4.0 -5.05 -3.85 -5.7 -3.75 -5.7 -3.25 -5.7 -3.15 -5.65 -3.0 L-5.65 -2.85 -5.95 -2.8 Q-6.6 -2.75 -6.8 -2.45 -6.85 -2.35 -6.85 -1.9 -6.85 -1.55 -6.7 -1.3 -6.5 -0.95 -6.1 -0.85 -5.9 -0.7 -5.55 -0.55 -4.3 0.1 -2.05 0.15 -1.95 0.4 -1.6 0.5 -0.7 0.8 2.05 0.8 2.95 0.8 3.55 0.6 L4.35 0.4 Q4.65 0.3 4.9 0.2 L4.95 0.1 5.0 0.05 5.4 0.05 5.65 0.0 5.7 -0.05 5.9 -0.05 Q6.35 -0.15 6.8 -0.35 L7.5 -0.65 7.5 -0.7 Q7.5 -0.85 9.15 -2.0 L9.15 -2.05 Q8.95 -2.0 8.85 -1.95 L8.6 -1.95 Q8.15 -1.85 7.95 -1.85 L7.4 -1.85 Q7.35 -1.85 7.35 -2.0 L7.55 -2.3 Q7.8 -2.55 7.8 -2.65 L7.8 -2.7 6.85 -2.5 Q6.95 -2.75 6.95 -3.0 6.95 -3.5 6.45 -3.65 6.0 -3.85 5.35 -3.75 4.8 -3.65 4.35 -3.45 3.85 -3.85 3.3 -3.95 M8.75 -2.3 L8.55 -2.25 8.7 -2.25 8.8 -2.3 8.75 -2.3 M19.75 -6.05 L19.45 -5.9 Q19.1 -5.9 18.7 -5.7 L19.75 -6.2 19.9 -6.2 19.75 -6.05 M-4.9 -3.0 L-4.9 -3.0" fill="#ffffff" fill-rule="evenodd" stroke="none"/>
    </g>
    <g id="shape1" transform="matrix(1.0, 0.0, 0.0, 1.0, 7.8, 43.0)">
      <path d="M2.0 -42.5 L1.8 -42.45 0.8 -42.35 0.8 -42.1 0.8 -41.85 0.75 -41.1 Q0.75 -40.85 0.8 -40.25 L0.75 -40.25 0.1 -40.2 0.05 -40.2 0.0 -41.35 0.0 -42.25 -0.45 -42.2 -1.15 -42.15 -1.3 -42.2 -1.35 -42.1 Q-1.45 -41.9 -1.45 -41.6 L-1.45 -40.45 -1.45 -40.1 -1.4 -40.1 -1.5 -40.05 -2.65 -39.95 -4.35 -40.0 Q-5.0 -40.05 -5.75 -40.2 L-6.35 -40.35 -6.4 -40.6 -6.45 -40.95 -6.35 -42.35 -6.2 -42.4 -5.85 -42.35 -5.6 -42.3 -3.65 -42.25 -3.2 -42.25 -2.25 -42.3 -0.8 -42.3 -0.1 -42.35 -0.05 -42.35 0.85 -42.4 0.95 -42.45 1.1 -42.45 2.0 -42.5 M4.45 -42.25 L4.4 -42.25 4.35 -42.3 4.4 -42.35 4.4 -42.3 4.45 -42.3 4.55 -42.25 4.45 -42.25 M3.45 -39.7 L3.5 -39.7 Q4.0 -39.8 4.5 -39.5 L4.55 -39.45 4.7 -39.45 4.75 -39.4 4.8 -39.4 4.8 -39.35 4.9 -39.35 5.15 -39.15 5.35 -38.8 Q5.6 -38.5 5.85 -38.5 L6.6 -38.15 Q7.45 -37.75 7.7 -37.25 L7.95 -36.75 8.1 -36.15 Q8.3 -35.5 8.5 -35.05 L9.1 -33.85 Q9.5 -32.95 9.55 -32.85 L9.55 -32.8 9.45 -32.6 9.4 -32.6 9.2 -32.25 Q8.85 -31.7 8.7 -31.6 L8.65 -31.5 8.4 -31.3 8.3 -31.2 8.7 -32.0 8.85 -32.4 Q8.95 -32.55 8.95 -32.7 8.95 -32.85 8.8 -32.95 8.7 -33.0 8.6 -33.05 8.7 -33.2 8.7 -33.25 L8.7 -33.35 8.85 -33.35 8.85 -33.6 Q8.85 -33.75 8.7 -34.05 L8.45 -34.5 8.15 -34.9 Q7.9 -35.2 7.75 -35.25 7.75 -35.15 7.8 -35.05 L7.5 -35.3 7.1 -35.35 Q6.9 -35.25 6.75 -35.15 L6.6 -35.0 6.5 -34.85 6.45 -34.85 6.45 -34.8 6.3 -34.65 6.25 -34.6 6.2 -34.65 6.2 -34.8 Q6.2 -35.1 6.45 -35.35 L6.45 -35.25 7.0 -35.6 Q7.4 -35.85 7.45 -36.0 L7.45 -36.15 Q7.45 -36.4 7.15 -36.95 L6.8 -37.7 Q6.65 -37.85 6.05 -38.2 5.15 -38.65 4.9 -38.8 L4.9 -38.75 Q4.8 -38.8 4.7 -38.95 4.45 -39.25 4.35 -39.35 L3.85 -39.55 3.45 -39.7 M5.4 -38.15 L5.2 -38.25 5.1 -38.45 5.4 -38.15 M6.45 -37.5 L6.55 -37.45 6.6 -37.4 6.45 -37.5 M2.2 -39.8 L2.15 -39.8 2.2 -39.8 M1.25 -39.8 Q0.9 -39.7 0.65 -39.5 0.05 -39.0 0.15 -38.5 L0.05 -37.4 0.0 -36.65 0.0 -35.75 -0.05 -35.7 Q0.0 -34.85 -0.05 -33.5 L-0.15 -31.35 Q-0.1 -30.7 -0.15 -30.5 -0.15 -30.3 -0.5 -29.35 L-0.75 -29.0 Q-0.85 -28.8 -0.95 -28.75 -1.1 -28.6 -1.4 -28.6 L-1.75 -28.65 -1.8 -28.65 -1.95 -28.75 Q-2.1 -28.85 -2.15 -28.95 L-2.2 -29.15 Q-2.25 -29.5 -2.35 -29.7 L-3.1 -31.2 Q-3.35 -31.4 -3.55 -31.15 -3.65 -31.0 -3.9 -30.45 -4.1 -29.9 -4.35 -29.6 L-5.0 -29.15 -5.25 -29.15 Q-5.85 -29.6 -6.0 -30.35 -6.1 -30.8 -6.15 -31.65 -6.2 -32.5 -6.15 -34.25 -6.15 -36.4 -6.05 -37.25 -5.75 -39.3 -4.7 -39.5 L-4.7 -39.55 -4.35 -39.5 -2.15 -39.5 -1.5 -39.55 -1.35 -39.55 -1.35 -39.5 -1.25 -39.45 Q-1.2 -39.1 -1.05 -38.35 -0.85 -37.55 -0.85 -37.1 L-0.8 -37.15 -0.7 -36.7 Q-0.7 -36.75 -0.7 -36.8 -0.6 -37.25 -0.5 -38.25 -0.3 -39.1 0.1 -39.6 L0.05 -39.65 0.25 -39.65 1.25 -39.8 M-6.3 -29.5 L-5.85 -28.7 -5.9 -28.55 Q-6.25 -29.0 -6.3 -29.5 M-5.4 -28.4 L-4.85 -28.2 -4.65 -28.15 -4.7 -28.1 -5.1 -28.2 Q-5.3 -28.3 -5.4 -28.4 M-3.15 -28.05 L-2.45 -27.5 -2.3 -27.3 -2.3 -27.25 -2.65 -27.4 -3.2 -27.75 Q-3.0 -27.75 -2.95 -27.95 L-3.15 -28.05 M-2.3 -27.8 Q-2.4 -27.95 -2.4 -28.1 L-2.35 -28.1 Q-2.25 -27.95 -1.95 -27.7 -1.6 -27.4 -1.4 -27.4 -1.25 -27.4 -1.2 -27.5 L-0.9 -27.45 -0.75 -27.45 -0.25 -27.6 0.3 -27.8 Q0.3 -27.9 0.3 -27.7 0.3 -27.55 -0.3 -27.3 L-0.4 -27.25 -0.6 -27.1 Q-0.7 -27.15 -0.8 -27.05 L-0.75 -27.0 -0.95 -27.05 Q-1.05 -27.0 -1.15 -26.9 L-1.0 -26.75 -0.85 -26.65 0.15 -26.8 0.35 -26.8 -0.75 -26.45 Q-0.85 -26.45 -1.5 -26.85 L-1.35 -26.8 -1.2 -26.85 -1.15 -26.95 Q-1.1 -26.95 -1.15 -27.0 L-1.15 -27.1 Q-1.3 -27.25 -1.5 -27.3 -1.85 -27.35 -2.0 -27.45 -2.1 -27.5 -2.2 -27.65 L-2.25 -27.7 -2.3 -27.8 M1.95 -27.85 L1.95 -27.9 1.85 -27.95 1.65 -28.0 Q1.45 -28.05 1.45 -28.2 L1.5 -28.5 Q1.55 -28.7 1.55 -28.8 1.45 -29.05 1.3 -29.0 1.2 -28.95 1.25 -29.35 1.25 -29.75 1.15 -30.55 L1.2 -31.1 1.2 -31.4 Q1.35 -31.5 1.6 -31.5 L1.65 -31.35 1.65 -31.2 Q1.65 -31.1 1.9 -30.3 2.1 -29.55 2.1 -29.4 L2.1 -29.15 Q2.05 -28.95 1.9 -28.95 1.8 -28.95 1.7 -29.05 L1.55 -29.2 1.5 -29.15 1.5 -29.0 Q1.5 -28.95 1.65 -28.7 1.8 -28.4 1.95 -28.4 L2.0 -28.4 2.0 -28.35 Q2.0 -28.2 2.35 -27.95 L2.6 -27.85 2.4 -27.85 2.6 -27.7 2.15 -27.85 1.95 -27.85 M2.45 -28.4 L2.65 -28.4 2.9 -28.65 2.85 -28.75 2.8 -28.75 2.95 -28.8 3.05 -28.85 3.15 -28.85 Q3.3 -28.85 3.55 -28.65 3.75 -28.45 4.3 -28.5 L4.5 -28.45 4.7 -28.45 4.85 -28.4 Q5.45 -28.6 5.8 -28.6 5.55 -28.25 4.75 -28.0 L4.7 -28.05 4.6 -28.05 4.55 -28.1 4.15 -28.1 Q3.85 -28.05 3.85 -27.85 3.85 -27.8 3.9 -27.75 L3.9 -27.7 3.9 -27.6 4.45 -27.05 Q4.85 -26.8 5.45 -26.8 L6.65 -27.7 6.9 -28.05 7.15 -28.25 7.2 -28.25 Q7.35 -28.35 7.45 -28.6 L7.5 -28.7 7.55 -28.75 7.6 -28.95 7.6 -28.9 7.65 -28.8 Q7.65 -28.6 7.55 -28.4 L7.0 -27.75 6.1 -26.9 Q5.65 -26.55 5.2 -26.3 L4.9 -26.3 4.25 -26.75 3.8 -27.0 3.95 -27.15 3.8 -27.35 3.85 -27.35 3.8 -27.45 3.85 -27.5 3.85 -27.6 3.8 -27.7 Q3.65 -27.95 2.8 -28.2 2.6 -28.25 2.45 -28.4 M7.2 -28.9 L7.1 -28.75 6.8 -28.15 6.55 -28.25 6.85 -28.7 Q7.1 -29.1 7.1 -29.3 7.1 -29.8 6.85 -30.7 L6.7 -31.3 Q6.55 -31.4 6.45 -31.7 6.35 -32.0 6.3 -32.15 L6.45 -32.65 Q6.55 -33.0 6.8 -33.1 L6.7 -33.2 6.65 -33.3 6.5 -33.55 6.3 -33.95 6.35 -33.95 6.3 -34.0 6.4 -33.95 6.4 -34.0 6.45 -34.05 6.45 -34.0 6.5 -34.0 6.5 -33.95 6.6 -33.8 6.7 -33.7 6.95 -33.3 7.0 -33.2 7.0 -33.15 6.95 -32.9 6.9 -32.7 6.9 -32.6 Q6.9 -32.5 6.95 -32.45 L6.9 -32.4 6.9 -32.15 Q6.9 -31.95 7.0 -31.55 L7.1 -31.3 7.05 -31.3 7.05 -31.15 7.2 -30.7 7.2 -30.65 7.25 -30.65 7.2 -30.6 7.2 -30.45 7.15 -30.25 7.15 -30.05 7.25 -29.8 7.25 -29.75 7.25 -29.65 7.25 -29.55 7.3 -29.5 7.3 -29.45 7.25 -29.15 7.25 -29.0 7.2 -28.9 M4.55 -40.1 Q4.8 -40.25 4.9 -40.5 L4.9 -40.15 4.85 -40.15 4.55 -40.1 M8.6 -32.25 L8.55 -32.15 8.55 -32.2 8.6 -32.25 M-5.05 -28.4 L-5.0 -28.35 -4.7 -28.2 Q-4.9 -28.3 -5.0 -28.35 L-5.05 -28.4 M-5.4 -28.55 L-5.4 -28.55 M-2.2 -28.6 L-2.2 -28.6" fill="#666666" fill-rule="evenodd" stroke="none"/>
      <path d="M0.8 -42.1 L0.8 -42.35 1.8 -42.45 2.0 -42.5 2.85 -42.55 3.25 -42.5 3.6 -42.45 4.0 -42.4 4.15 -42.4 4.25 -42.35 4.4 -42.35 4.35 -42.3 4.4 -42.25 4.45 -42.25 4.4 -42.2 4.4 -42.15 4.45 -42.1 4.6 -41.8 4.7 -41.55 Q4.75 -41.25 4.7 -40.95 4.6 -40.45 4.3 -40.4 4.25 -40.4 4.25 -40.45 4.15 -40.55 4.05 -40.55 3.85 -40.55 3.85 -40.45 L3.9 -40.4 3.9 -40.35 4.05 -40.15 3.65 -40.25 3.2 -40.3 1.05 -40.3 1.05 -40.4 Q1.05 -40.65 0.85 -41.35 0.75 -42.0 1.1 -42.35 0.85 -42.4 0.8 -42.15 L0.8 -42.1 M-1.4 -40.1 L-1.45 -40.1 -1.45 -40.45 -1.35 -40.1 -1.4 -40.1 M-1.15 -42.15 L-0.45 -42.2 0.0 -42.25 0.0 -41.35 0.05 -40.2 -0.3 -40.15 -1.1 -40.1 -1.2 -40.1 Q-1.15 -40.4 -1.2 -40.95 -1.3 -41.7 -1.05 -42.05 -1.05 -42.1 -1.15 -42.15 M3.45 -39.7 L3.85 -39.55 4.35 -39.35 Q4.45 -39.25 4.7 -38.95 4.8 -38.8 4.9 -38.75 4.95 -38.6 5.1 -38.45 L5.2 -38.25 5.4 -38.15 5.5 -38.05 Q5.6 -37.95 6.05 -37.7 L6.45 -37.5 6.6 -37.4 6.75 -37.1 6.9 -36.65 6.95 -36.2 7.05 -35.95 6.8 -35.8 Q6.45 -35.55 6.45 -35.45 L6.45 -35.35 Q6.2 -35.1 6.2 -34.8 L6.2 -34.65 6.25 -34.6 6.3 -34.65 Q6.15 -34.45 6.15 -34.35 L6.15 -34.3 6.25 -34.2 6.3 -34.2 6.45 -34.05 6.4 -34.0 6.4 -33.95 6.3 -34.0 6.35 -33.95 6.3 -33.95 6.5 -33.55 6.65 -33.3 6.7 -33.2 Q6.45 -33.3 6.3 -33.05 6.15 -32.8 6.15 -32.55 6.15 -32.3 6.25 -32.1 L6.3 -32.15 Q6.35 -32.0 6.45 -31.7 6.55 -31.4 6.7 -31.3 L6.85 -30.7 Q7.1 -29.8 7.1 -29.3 7.1 -29.1 6.85 -28.7 L6.55 -28.25 6.8 -28.15 7.1 -28.75 7.2 -28.9 7.15 -28.75 7.0 -28.45 6.95 -28.45 6.95 -28.35 Q6.95 -28.3 7.15 -28.25 L6.9 -28.05 6.65 -27.7 5.45 -26.8 Q4.85 -26.8 4.45 -27.05 L3.9 -27.6 3.9 -27.7 4.0 -27.65 4.1 -27.65 4.15 -27.7 4.3 -27.7 4.5 -27.75 Q4.7 -27.75 4.8 -27.85 L4.85 -27.9 4.85 -27.95 4.75 -28.0 Q5.55 -28.25 5.8 -28.6 5.45 -28.6 4.85 -28.4 L4.7 -28.45 4.5 -28.45 4.3 -28.5 Q3.75 -28.45 3.55 -28.65 3.3 -28.85 3.15 -28.85 L3.05 -28.85 2.95 -28.8 2.8 -28.75 2.85 -28.75 2.9 -28.65 2.65 -28.4 2.45 -28.4 2.4 -28.45 2.4 -28.5 2.3 -28.6 2.3 -28.65 2.25 -28.65 2.2 -28.75 2.2 -28.8 2.15 -28.85 2.0 -28.85 1.95 -28.8 1.95 -28.7 2.0 -28.65 1.95 -28.65 2.0 -28.4 1.95 -28.4 Q1.8 -28.4 1.65 -28.7 1.5 -28.95 1.5 -29.0 L1.5 -29.15 1.55 -29.2 1.7 -29.05 Q1.8 -28.95 1.9 -28.95 2.05 -28.95 2.1 -29.15 L2.1 -29.4 Q2.1 -29.55 1.9 -30.3 1.65 -31.1 1.65 -31.2 L1.65 -31.35 1.6 -31.5 Q1.35 -31.5 1.2 -31.4 L1.2 -31.1 1.15 -30.55 Q1.25 -29.75 1.25 -29.35 1.2 -28.95 1.3 -29.0 1.45 -29.05 1.55 -28.8 1.55 -28.7 1.5 -28.5 L1.45 -28.2 Q1.45 -28.05 1.65 -28.0 L1.85 -27.95 1.95 -27.9 1.95 -27.85 Q1.5 -27.9 1.45 -27.6 L1.75 -27.6 Q1.6 -27.55 1.6 -27.35 L1.55 -27.35 Q1.3 -27.2 0.95 -27.1 L0.35 -26.8 0.15 -26.8 -0.85 -26.65 -1.0 -26.75 -1.15 -26.9 Q-1.05 -27.0 -0.95 -27.05 L-0.75 -27.0 -0.8 -27.05 Q-0.7 -27.15 -0.6 -27.1 L-0.4 -27.25 -0.3 -27.3 Q0.3 -27.55 0.3 -27.7 0.3 -27.9 0.3 -27.8 L-0.25 -27.6 -0.75 -27.45 -0.9 -27.45 -1.2 -27.5 Q-1.25 -27.4 -1.4 -27.4 -1.6 -27.4 -1.95 -27.7 -2.25 -27.95 -2.35 -28.1 L-2.4 -28.1 Q-2.4 -27.95 -2.3 -27.8 L-2.35 -27.8 -2.4 -27.75 -2.45 -27.5 -3.15 -28.05 Q-3.8 -28.5 -4.4 -28.15 L-4.45 -28.2 -4.65 -28.15 -4.85 -28.2 -5.4 -28.4 -5.55 -28.55 -5.85 -28.7 -6.3 -29.5 -6.3 -29.8 -6.35 -30.05 -6.35 -30.15 -6.3 -30.15 -6.25 -30.2 -6.25 -30.35 Q-6.2 -30.85 -6.25 -31.15 L-6.4 -34.25 -6.45 -34.65 -6.4 -34.7 Q-6.3 -34.95 -6.3 -35.05 L-6.35 -35.7 Q-6.3 -35.75 -6.3 -35.85 L-6.3 -36.85 Q-6.3 -37.4 -6.3 -37.95 L-6.25 -38.2 -6.3 -38.25 -6.3 -38.5 -6.25 -38.8 -6.25 -38.85 Q-6.2 -38.95 -6.15 -39.05 -6.15 -39.25 -6.0 -39.35 -5.9 -39.45 -5.7 -39.55 L-5.65 -39.45 Q-5.6 -39.4 -5.5 -39.4 -5.35 -39.4 -5.25 -39.5 L-5.05 -39.55 -4.7 -39.55 -4.7 -39.5 Q-5.75 -39.3 -6.05 -37.25 -6.15 -36.4 -6.15 -34.25 -6.2 -32.5 -6.15 -31.65 -6.1 -30.8 -6.0 -30.35 -5.85 -29.6 -5.25 -29.15 L-5.0 -29.15 -5.0 -29.1 -4.6 -29.1 Q-4.4 -29.2 -4.15 -29.4 L-3.9 -29.75 Q-3.9 -29.95 -3.75 -30.3 L-4.15 -29.8 -4.35 -29.6 Q-4.1 -29.9 -3.9 -30.45 -3.65 -31.0 -3.55 -31.15 -3.35 -31.4 -3.1 -31.2 L-2.35 -29.7 Q-2.25 -29.5 -2.2 -29.15 L-2.15 -28.95 Q-2.1 -28.85 -1.95 -28.75 L-1.8 -28.65 -1.75 -28.65 -1.4 -28.6 Q-1.1 -28.6 -0.95 -28.75 -0.85 -28.8 -0.75 -29.0 L-0.5 -29.35 -0.55 -29.25 Q-0.15 -29.25 0.05 -30.0 0.25 -30.65 0.2 -31.4 0.15 -32.2 0.25 -33.75 L0.2 -34.75 Q0.1 -35.45 0.0 -35.75 L0.0 -36.65 0.05 -37.4 0.15 -38.5 Q0.05 -39.0 0.65 -39.5 0.9 -39.7 1.25 -39.8 1.6 -39.8 2.0 -39.8 L2.15 -39.8 2.2 -39.8 3.15 -39.8 3.45 -39.7 M6.6 -35.0 L6.75 -35.15 Q6.9 -35.25 7.1 -35.35 L7.5 -35.3 7.8 -35.05 Q7.9 -34.8 8.2 -34.35 L8.5 -33.75 Q8.65 -33.4 8.7 -33.35 L8.7 -33.25 Q8.7 -33.2 8.6 -33.05 L8.55 -33.05 8.5 -32.7 Q8.5 -32.6 8.55 -32.65 L8.6 -32.6 8.65 -32.6 8.65 -32.55 8.6 -32.25 8.55 -32.2 8.55 -32.15 8.55 -32.0 8.7 -32.0 8.3 -31.2 8.2 -31.1 7.9 -30.75 7.9 -30.8 7.85 -30.85 7.75 -30.85 7.75 -30.8 7.5 -31.4 Q7.2 -32.05 7.2 -32.45 L7.2 -32.6 Q7.2 -32.7 7.25 -32.9 L7.3 -33.1 7.4 -33.2 Q7.35 -33.35 7.2 -33.65 L7.1 -33.95 6.95 -34.25 Q6.95 -34.45 6.95 -34.9 7.0 -35.05 7.0 -35.1 L6.9 -35.2 6.85 -35.15 6.65 -35.05 6.6 -35.0 M5.3 -41.7 Q5.4 -41.55 5.5 -41.25 5.55 -40.95 5.55 -40.65 L5.55 -40.25 5.5 -40.1 5.45 -40.1 5.45 -40.15 5.4 -40.25 5.4 -40.4 Q5.3 -41.2 5.3 -41.4 L5.3 -41.7 M4.4 -42.05 Q4.4 -42.25 4.35 -42.2 4.25 -42.15 4.1 -41.9 3.9 -41.65 3.9 -41.5 3.9 -41.05 4.05 -40.6 4.05 -40.85 4.05 -41.45 4.05 -41.7 4.2 -41.9 L4.4 -42.05 M0.05 -39.65 L0.1 -39.6 Q-0.3 -39.1 -0.5 -38.25 -0.6 -37.25 -0.7 -36.8 -0.7 -36.75 -0.7 -36.7 L-0.8 -37.15 -0.85 -37.1 Q-0.85 -37.55 -1.05 -38.35 -1.2 -39.1 -1.25 -39.45 L-1.35 -39.5 -1.35 -39.55 Q-1.2 -39.5 -1.15 -39.45 L-1.05 -39.4 Q-1.0 -39.25 -0.85 -39.15 -0.7 -39.4 -0.3 -39.65 L0.05 -39.65 M2.6 -27.85 L2.9 -27.7 3.1 -27.65 3.55 -27.45 3.6 -27.4 3.65 -27.4 3.8 -27.45 3.85 -27.35 3.8 -27.35 3.95 -27.15 3.8 -27.0 3.75 -27.05 3.65 -27.1 3.6 -27.2 Q3.5 -27.5 2.7 -27.65 L2.6 -27.7 2.4 -27.85 2.6 -27.85 M7.3 -29.45 L7.3 -29.5 7.3 -29.45 M7.25 -29.65 L7.25 -29.75 7.3 -29.7 7.25 -29.65 M0.55 -27.7 L0.5 -27.7 Q0.35 -27.7 0.25 -27.5 L-0.05 -27.4 Q-0.35 -27.25 -0.35 -27.15 -0.35 -27.0 -0.25 -27.0 L-0.15 -27.0 Q0.3 -27.1 0.45 -27.2 0.6 -27.3 0.65 -27.45 L0.55 -27.7 M-6.85 -41.05 L-6.8 -41.3 -6.75 -41.6 -6.8 -41.35 -6.75 -40.6 Q-6.85 -40.85 -6.85 -41.05 M-5.4 -28.55 L-5.4 -28.55 M-5.05 -28.4 L-5.0 -28.35 Q-4.9 -28.3 -4.7 -28.2 L-5.0 -28.35 -5.05 -28.4 M-2.2 -28.6 L-2.2 -28.6 M-2.3 -27.25 L-2.3 -27.3 -2.3 -27.25" fill="#333333" fill-rule="evenodd" stroke="none"/>
      <path d="M8.6 -33.05 Q8.7 -33.0 8.8 -32.95 8.95 -32.85 8.95 -32.7 8.95 -32.55 8.85 -32.4 L8.7 -32.0 8.55 -32.0 8.55 -32.15 8.6 -32.25 8.65 -32.55 8.65 -32.6 8.6 -32.6 8.55 -32.65 Q8.5 -32.6 8.5 -32.7 L8.55 -33.05 8.6 -33.05 M6.3 -32.15 L6.25 -32.1 Q6.15 -32.3 6.15 -32.55 6.15 -32.8 6.3 -33.05 6.45 -33.3 6.7 -33.2 L6.8 -33.1 Q6.55 -33.0 6.45 -32.65 L6.3 -32.15" fill="#23231e" fill-rule="evenodd" stroke="none"/>
      <path d="M0.8 -42.85 L1.65 -42.95 2.55 -42.95 Q3.25 -43.05 4.05 -42.85 L4.55 -42.7 4.65 -42.7 4.7 -42.65 4.85 -42.6 Q5.35 -42.35 5.35 -42.2 L5.35 -42.05 5.4 -42.05 5.45 -42.0 Q5.65 -41.8 5.75 -41.55 L5.75 -41.1 Q5.75 -40.95 5.85 -40.65 L5.9 -40.25 Q5.9 -40.1 5.8 -39.95 5.65 -39.8 5.55 -39.8 L5.5 -39.8 5.5 -39.45 Q5.65 -39.3 5.9 -38.9 L6.55 -38.6 Q6.95 -38.4 7.2 -38.35 7.5 -38.25 7.7 -38.0 L8.0 -37.6 Q8.05 -37.55 8.35 -37.0 L8.35 -36.95 Q8.4 -36.65 8.55 -36.3 L8.95 -35.35 8.95 -35.3 9.0 -35.25 9.15 -34.8 9.35 -34.55 9.4 -34.4 Q9.95 -33.25 9.9 -33.15 9.9 -32.7 9.75 -32.4 L9.25 -31.5 Q9.2 -31.4 8.45 -30.75 8.4 -30.65 8.15 -30.35 L8.0 -30.2 8.0 -30.1 8.1 -29.9 8.2 -29.55 8.25 -29.45 Q8.3 -29.25 8.3 -29.0 8.3 -28.75 8.15 -28.45 L8.1 -28.35 Q8.0 -28.1 7.85 -27.9 L7.5 -27.6 6.95 -26.95 6.85 -26.85 6.5 -26.55 6.4 -26.45 5.2 -25.8 Q4.85 -25.8 4.45 -26.0 L3.65 -26.45 Q3.35 -26.6 2.55 -26.8 L1.6 -26.9 1.4 -26.8 Q0.85 -26.55 0.75 -26.5 0.45 -26.3 -0.15 -26.15 L-0.75 -26.05 Q-1.0 -26.0 -1.75 -26.45 -2.9 -26.85 -2.95 -26.9 L-3.5 -27.4 -4.1 -27.4 -4.3 -27.3 -4.7 -27.5 -4.7 -27.45 -5.6 -27.8 Q-6.0 -27.95 -6.2 -28.1 L-6.25 -28.15 Q-6.4 -28.3 -6.55 -28.6 -6.75 -29.05 -6.75 -29.4 L-6.65 -30.9 -6.85 -34.75 -6.85 -34.8 -6.8 -34.95 -6.85 -35.35 Q-6.8 -35.9 -6.8 -36.2 L-6.8 -36.55 -6.75 -37.85 -6.75 -37.9 -6.7 -37.9 -6.7 -38.9 Q-6.7 -39.45 -6.65 -39.6 L-6.55 -39.85 -6.65 -40.05 Q-6.95 -40.05 -7.1 -40.55 -7.15 -40.8 -7.15 -41.05 L-7.05 -41.35 -7.05 -41.4 Q-7.0 -41.6 -7.0 -41.7 -7.0 -42.2 -6.75 -42.35 L-6.7 -42.7 -6.7 -42.75 -6.65 -42.8 -6.45 -42.75 -6.4 -42.75 -6.1 -42.8 -5.85 -42.8 -5.75 -42.75 -4.05 -42.75 -3.6 -42.7 -0.5 -42.7 -0.35 -42.75 0.05 -42.8 0.4 -42.8 0.75 -42.85 0.8 -42.85 M0.8 -42.1 L0.8 -42.15 Q0.85 -42.4 1.1 -42.35 0.75 -42.0 0.85 -41.35 1.05 -40.65 1.05 -40.4 L1.05 -40.3 3.2 -40.3 3.65 -40.25 4.05 -40.15 3.9 -40.35 3.9 -40.4 3.85 -40.45 Q3.85 -40.55 4.05 -40.55 4.15 -40.55 4.25 -40.45 4.25 -40.4 4.3 -40.4 4.6 -40.45 4.7 -40.95 4.75 -41.25 4.7 -41.55 L4.6 -41.8 4.45 -42.1 4.4 -42.15 4.4 -42.2 4.45 -42.25 4.55 -42.25 4.45 -42.3 4.4 -42.3 4.4 -42.35 4.25 -42.35 4.15 -42.4 4.0 -42.4 3.6 -42.45 3.25 -42.5 2.85 -42.55 2.0 -42.5 1.1 -42.45 0.95 -42.45 0.85 -42.4 -0.05 -42.35 -0.1 -42.35 -0.8 -42.3 -2.25 -42.3 -3.2 -42.25 -3.65 -42.25 -5.6 -42.3 -5.85 -42.35 -6.2 -42.4 -6.35 -42.35 -6.45 -40.95 -6.4 -40.6 -6.35 -40.35 -5.75 -40.2 Q-5.0 -40.05 -4.35 -40.0 L-2.65 -39.95 -1.5 -40.05 -1.4 -40.1 -1.35 -40.1 -1.45 -40.45 -1.45 -41.6 Q-1.45 -41.9 -1.35 -42.1 L-1.3 -42.2 -1.15 -42.15 Q-1.05 -42.1 -1.05 -42.05 -1.3 -41.7 -1.2 -40.95 -1.15 -40.4 -1.2 -40.1 L-1.1 -40.1 -0.3 -40.15 0.05 -40.2 0.1 -40.2 0.75 -40.25 0.8 -40.25 Q0.75 -40.85 0.75 -41.1 L0.8 -41.85 0.8 -42.1 M8.3 -31.2 L8.4 -31.3 8.65 -31.5 8.7 -31.6 Q8.85 -31.7 9.2 -32.25 L9.4 -32.6 9.45 -32.6 9.55 -32.8 9.55 -32.85 Q9.5 -32.95 9.1 -33.85 L8.5 -35.05 Q8.3 -35.5 8.1 -36.15 L7.95 -36.75 7.7 -37.25 Q7.45 -37.75 6.6 -38.15 L5.85 -38.5 Q5.6 -38.5 5.35 -38.8 L5.15 -39.15 4.9 -39.35 4.8 -39.35 4.8 -39.4 4.75 -39.4 4.7 -39.45 4.55 -39.45 4.5 -39.5 Q4.0 -39.8 3.5 -39.7 L3.45 -39.7 3.15 -39.8 2.2 -39.8 2.15 -39.8 2.0 -39.8 Q1.6 -39.8 1.25 -39.8 L0.25 -39.65 0.05 -39.65 -0.3 -39.65 Q-0.7 -39.4 -0.85 -39.15 -1.0 -39.25 -1.05 -39.4 L-1.15 -39.45 Q-1.2 -39.5 -1.35 -39.55 L-1.5 -39.55 -2.15 -39.5 -4.35 -39.5 -4.7 -39.55 -5.05 -39.55 -5.25 -39.5 Q-5.35 -39.4 -5.5 -39.4 -5.6 -39.4 -5.65 -39.45 L-5.7 -39.55 Q-5.9 -39.45 -6.0 -39.35 -6.15 -39.25 -6.15 -39.05 -6.2 -38.95 -6.25 -38.85 L-6.25 -38.8 -6.3 -38.5 -6.3 -38.25 -6.25 -38.2 -6.3 -37.95 Q-6.3 -37.4 -6.3 -36.85 L-6.3 -35.85 Q-6.3 -35.75 -6.35 -35.7 L-6.3 -35.05 Q-6.3 -34.95 -6.4 -34.7 L-6.45 -34.65 -6.4 -34.25 -6.25 -31.15 Q-6.2 -30.85 -6.25 -30.35 L-6.25 -30.2 -6.3 -30.15 -6.35 -30.15 -6.35 -30.05 -6.3 -29.8 -6.3 -29.5 Q-6.25 -29.0 -5.9 -28.55 L-5.85 -28.7 -5.55 -28.55 -5.4 -28.4 Q-5.3 -28.3 -5.1 -28.2 L-4.7 -28.1 -4.65 -28.15 -4.45 -28.2 -4.4 -28.15 Q-3.8 -28.5 -3.15 -28.05 L-2.95 -27.95 Q-3.0 -27.75 -3.2 -27.75 L-2.65 -27.4 -2.3 -27.25 -2.3 -27.3 -2.45 -27.5 -2.4 -27.75 -2.35 -27.8 -2.3 -27.8 -2.25 -27.7 -2.2 -27.65 Q-2.1 -27.5 -2.0 -27.45 -1.85 -27.35 -1.5 -27.3 -1.3 -27.25 -1.15 -27.1 L-1.15 -27.0 Q-1.1 -26.95 -1.15 -26.95 L-1.2 -26.85 -1.35 -26.8 -1.5 -26.85 Q-0.85 -26.45 -0.75 -26.45 L0.35 -26.8 0.95 -27.1 Q1.3 -27.2 1.55 -27.35 L1.6 -27.35 Q1.6 -27.55 1.75 -27.6 L1.45 -27.6 Q1.5 -27.9 1.95 -27.85 L2.15 -27.85 2.6 -27.7 2.7 -27.65 Q3.5 -27.5 3.6 -27.2 L3.65 -27.1 3.75 -27.05 3.8 -27.0 4.25 -26.75 4.9 -26.3 5.2 -26.3 Q5.65 -26.55 6.1 -26.9 L7.0 -27.75 7.55 -28.4 Q7.65 -28.6 7.65 -28.8 L7.6 -28.9 7.6 -28.95 7.55 -28.75 7.5 -28.7 7.45 -28.6 Q7.35 -28.35 7.2 -28.25 L7.15 -28.25 Q6.95 -28.3 6.95 -28.35 L6.95 -28.45 7.0 -28.45 7.15 -28.75 7.2 -28.9 7.25 -29.0 7.25 -29.15 7.3 -29.45 7.3 -29.5 7.25 -29.55 7.25 -29.65 7.3 -29.7 7.25 -29.75 7.25 -29.8 7.15 -30.05 7.15 -30.25 7.2 -30.45 7.2 -30.6 7.25 -30.65 7.2 -30.65 7.2 -30.7 7.05 -31.15 7.05 -31.3 7.1 -31.3 7.0 -31.55 Q6.9 -31.95 6.9 -32.15 L6.9 -32.4 6.95 -32.45 Q6.9 -32.5 6.9 -32.6 L6.9 -32.7 6.95 -32.9 7.0 -33.15 7.0 -33.2 6.95 -33.3 6.7 -33.7 6.6 -33.8 6.5 -33.95 6.5 -34.0 6.45 -34.0 6.45 -34.05 6.3 -34.2 6.25 -34.2 6.15 -34.3 6.15 -34.35 Q6.15 -34.45 6.3 -34.65 L6.45 -34.8 6.45 -34.85 6.5 -34.85 6.6 -35.0 6.65 -35.05 6.85 -35.15 6.9 -35.2 7.0 -35.1 Q7.0 -35.05 6.95 -34.9 6.95 -34.45 6.95 -34.25 L7.1 -33.95 7.2 -33.65 Q7.35 -33.35 7.4 -33.2 L7.3 -33.1 7.25 -32.9 Q7.2 -32.7 7.2 -32.6 L7.2 -32.45 Q7.2 -32.05 7.5 -31.4 L7.75 -30.8 7.75 -30.85 7.85 -30.85 7.9 -30.8 7.9 -30.75 8.2 -31.1 8.3 -31.2 M4.9 -38.75 L4.9 -38.8 Q5.15 -38.65 6.05 -38.2 6.65 -37.85 6.8 -37.7 L7.15 -36.95 Q7.45 -36.4 7.45 -36.15 L7.45 -36.0 Q7.4 -35.85 7.0 -35.6 L6.45 -35.25 6.45 -35.35 6.45 -35.45 Q6.45 -35.55 6.8 -35.8 L7.05 -35.95 6.95 -36.2 6.9 -36.65 6.75 -37.1 6.6 -37.4 6.55 -37.45 6.45 -37.5 6.05 -37.7 Q5.6 -37.95 5.5 -38.05 L5.4 -38.15 5.1 -38.45 Q4.95 -38.6 4.9 -38.75 M7.8 -35.05 Q7.75 -35.15 7.75 -35.25 7.9 -35.2 8.15 -34.9 L8.45 -34.5 8.7 -34.05 Q8.85 -33.75 8.85 -33.6 L8.85 -33.35 8.7 -33.35 Q8.65 -33.4 8.5 -33.75 L8.2 -34.35 Q7.9 -34.8 7.8 -35.05 M4.4 -42.05 L4.2 -41.9 Q4.05 -41.7 4.05 -41.45 4.05 -40.85 4.05 -40.6 3.9 -41.05 3.9 -41.5 3.9 -41.65 4.1 -41.9 4.25 -42.15 4.35 -42.2 4.4 -42.25 4.4 -42.05 M5.3 -41.7 L5.3 -41.4 Q5.3 -41.2 5.4 -40.4 L5.4 -40.25 5.45 -40.15 5.45 -40.1 5.5 -40.1 5.55 -40.25 5.55 -40.65 Q5.55 -40.95 5.5 -41.25 5.4 -41.55 5.3 -41.7 M0.0 -35.75 Q0.1 -35.45 0.2 -34.75 L0.25 -33.75 Q0.15 -32.2 0.2 -31.4 0.25 -30.65 0.05 -30.0 -0.15 -29.25 -0.55 -29.25 L-0.5 -29.35 Q-0.15 -30.3 -0.15 -30.5 -0.1 -30.7 -0.15 -31.35 L-0.05 -33.5 Q0.0 -34.85 -0.05 -35.7 L0.0 -35.75 M-4.35 -29.6 L-4.15 -29.8 -3.75 -30.3 Q-3.9 -29.95 -3.9 -29.75 L-4.15 -29.4 Q-4.4 -29.2 -4.6 -29.1 L-5.0 -29.1 -5.0 -29.15 -4.35 -29.6 M2.0 -28.4 L1.95 -28.65 2.0 -28.65 1.95 -28.7 1.95 -28.8 2.0 -28.85 2.15 -28.85 2.2 -28.8 2.2 -28.75 2.25 -28.65 2.3 -28.65 2.3 -28.6 2.4 -28.5 2.4 -28.45 2.45 -28.4 Q2.6 -28.25 2.8 -28.2 3.65 -27.95 3.8 -27.7 L3.85 -27.6 3.85 -27.5 3.8 -27.45 3.65 -27.4 3.6 -27.4 3.55 -27.45 3.1 -27.65 2.9 -27.7 2.6 -27.85 2.35 -27.95 Q2.0 -28.2 2.0 -28.35 L2.0 -28.4 M4.75 -28.0 L4.85 -27.95 4.85 -27.9 4.8 -27.85 Q4.7 -27.75 4.5 -27.75 L4.3 -27.7 4.15 -27.7 4.1 -27.65 4.0 -27.65 3.9 -27.7 3.9 -27.75 Q3.85 -27.8 3.85 -27.85 3.85 -28.05 4.15 -28.1 L4.55 -28.1 4.6 -28.05 4.7 -28.05 4.75 -28.0 M4.55 -40.1 L4.85 -40.15 4.9 -40.15 4.9 -40.5 Q4.8 -40.25 4.55 -40.1 M0.55 -27.7 L0.65 -27.45 Q0.6 -27.3 0.45 -27.2 0.3 -27.1 -0.15 -27.0 L-0.25 -27.0 Q-0.35 -27.0 -0.35 -27.15 -0.35 -27.25 -0.05 -27.4 L0.25 -27.5 Q0.35 -27.7 0.5 -27.7 L0.55 -27.7 M-6.85 -41.05 Q-6.85 -40.85 -6.75 -40.6 L-6.8 -41.35 -6.75 -41.6 -6.8 -41.3 -6.85 -41.05" fill="#191916" fill-rule="evenodd" stroke="none"/>
      <path d="M1.5 -33.65 L1.65 -33.55 1.35 -33.65 1.3 -33.65 1.4 -33.6 1.55 -33.55 1.5 -33.55 1.15 -33.6 0.85 -33.6 0.9 -33.65 1.2 -33.75 1.5 -33.75 Q1.7 -33.7 1.65 -33.65 L1.5 -33.65 M2.5 -33.0 Q2.55 -32.85 2.6 -32.85 L2.6 -32.8 2.45 -32.8 2.35 -32.95 2.35 -33.0 Q2.35 -33.15 2.35 -33.1 2.45 -33.05 2.5 -33.0 M1.65 -30.4 L1.7 -30.35 1.7 -30.15 Q1.65 -30.15 1.65 -30.2 1.15 -30.15 1.1 -29.9 1.1 -29.8 1.1 -29.7 L1.1 -29.5 0.95 -29.45 Q1.05 -29.6 1.05 -29.75 L1.0 -29.85 1.1 -30.05 1.15 -30.1 1.15 -30.15 1.2 -30.25 1.35 -30.4 Q1.4 -30.45 1.6 -30.4 L1.65 -30.4 M0.55 -29.25 L0.45 -29.25 0.3 -29.3 Q-0.15 -29.1 -0.2 -28.95 L-0.25 -28.95 -0.25 -29.1 Q-0.2 -29.25 -0.2 -29.35 L-0.1 -29.3 Q0.0 -29.3 0.1 -29.45 0.3 -29.55 0.55 -29.25 M5.7 -30.75 Q5.7 -30.85 5.9 -31.0 L6.05 -31.0 6.1 -30.85 6.4 -30.4 6.45 -30.3 6.45 -30.25 6.4 -30.2 6.4 -30.05 6.45 -29.9 6.45 -29.6 6.4 -29.95 6.35 -30.0 6.25 -30.3 Q6.15 -30.4 6.05 -30.4 L5.75 -30.35 Q5.65 -30.1 5.6 -30.05 L5.55 -30.05 5.7 -30.55 5.7 -30.75 M5.1 -28.35 Q5.05 -28.35 4.95 -28.25 L4.7 -27.9 4.65 -27.95 4.65 -28.0 Q4.65 -28.2 5.2 -28.7 L5.2 -28.65 5.15 -28.45 5.1 -28.35 M8.6 -30.45 L8.6 -30.5 8.75 -30.7 Q8.9 -30.85 8.95 -31.05 9.0 -31.5 9.15 -31.6 L9.15 -31.5 9.1 -31.4 Q9.1 -31.3 9.2 -31.2 L9.25 -31.0 9.1 -30.75 8.9 -30.45 Q8.85 -30.45 8.85 -30.5 L8.75 -30.45 8.6 -30.45 M6.05 -29.75 L6.25 -29.35 Q6.3 -29.1 6.3 -28.95 6.3 -28.75 6.4 -28.55 6.55 -28.3 6.8 -28.3 L7.0 -28.25 7.1 -28.3 Q7.35 -28.4 7.4 -28.4 7.45 -28.5 7.65 -28.6 7.75 -28.8 7.75 -29.0 7.75 -29.05 7.9 -29.25 L8.1 -29.6 Q8.2 -29.85 8.3 -29.85 8.1 -29.3 8.1 -29.25 L8.1 -29.1 Q8.2 -28.95 8.4 -28.95 8.5 -28.55 8.5 -28.3 8.4 -27.35 8.15 -27.35 L8.1 -27.35 8.0 -27.4 8.2 -27.7 8.1 -27.8 7.85 -27.85 Q7.6 -27.85 7.5 -27.6 7.45 -27.3 7.35 -27.2 7.3 -27.1 7.1 -27.05 L6.85 -26.9 Q6.55 -26.75 6.45 -26.55 L6.45 -26.4 Q6.4 -26.3 6.35 -26.25 6.35 -26.2 6.15 -26.1 L5.9 -25.95 5.75 -25.65 Q5.6 -25.4 5.6 -25.3 L5.7 -25.1 5.8 -24.95 6.25 -25.0 6.35 -25.05 6.4 -25.05 6.4 -25.0 6.05 -24.5 Q5.9 -24.2 5.7 -24.15 L5.4 -24.15 Q5.4 -24.1 5.25 -24.1 L4.85 -24.15 5.05 -24.3 Q4.95 -24.35 4.9 -24.45 4.9 -24.55 4.8 -24.6 L4.5 -24.6 4.45 -24.65 Q4.35 -24.75 4.25 -24.75 L4.1 -24.7 4.15 -24.55 Q4.05 -24.6 4.0 -24.65 L3.55 -24.75 3.45 -25.05 Q3.5 -25.0 3.4 -25.0 3.15 -25.0 3.15 -25.25 L3.05 -25.65 Q2.95 -25.65 2.85 -25.75 2.75 -25.85 2.65 -25.85 L2.6 -25.8 2.45 -25.8 2.6 -25.65 2.45 -25.55 Q2.3 -25.55 2.15 -25.65 L1.95 -25.8 1.85 -26.0 Q1.8 -26.1 1.8 -26.15 L1.55 -26.3 1.35 -26.25 1.3 -26.2 1.25 -26.1 Q1.25 -26.05 1.3 -26.0 L1.35 -25.95 1.35 -25.85 1.3 -25.85 1.2 -25.8 1.25 -25.7 Q1.25 -25.65 1.35 -25.6 1.35 -25.55 1.3 -25.5 L0.85 -25.5 Q0.8 -25.65 0.85 -25.85 0.85 -26.05 0.65 -26.15 0.65 -26.25 0.2 -26.55 L0.1 -26.45 -0.4 -26.4 -0.6 -26.4 -0.8 -26.2 Q-0.8 -26.15 -0.95 -26.15 L-1.2 -26.15 -1.35 -26.3 -1.7 -26.3 -1.55 -26.5 Q-1.45 -26.6 -1.35 -26.6 -1.3 -26.6 -1.3 -26.55 L-1.35 -26.5 -0.3 -26.6 -0.1 -26.65 0.05 -26.75 0.15 -26.8 0.5 -27.15 0.5 -27.45 0.25 -27.45 0.25 -27.5 Q0.25 -27.75 0.35 -27.85 L0.8 -28.05 0.9 -28.05 Q1.0 -28.05 1.0 -27.95 L1.0 -27.9 1.05 -27.85 1.1 -27.85 1.1 -27.75 Q1.05 -27.75 1.05 -27.8 L0.95 -27.7 0.95 -27.6 Q0.95 -27.55 0.95 -27.5 L1.0 -27.5 Q1.15 -27.45 1.1 -27.4 L1.2 -27.45 Q1.4 -27.4 1.4 -27.35 L1.4 -27.3 1.55 -27.25 1.7 -27.1 1.7 -27.05 1.65 -27.05 Q1.7 -27.0 1.75 -26.95 L2.3 -26.8 2.8 -26.65 3.0 -26.65 3.3 -26.85 3.35 -26.9 3.4 -26.9 3.35 -27.0 3.25 -27.0 Q3.1 -27.0 3.0 -26.95 L2.95 -26.95 3.35 -27.3 Q3.5 -27.25 3.7 -27.4 L4.0 -27.55 4.3 -27.5 Q4.15 -27.5 3.95 -27.35 3.7 -27.2 3.7 -27.1 L3.9 -27.0 3.9 -26.95 Q4.4 -26.95 4.55 -27.05 L4.7 -27.25 5.1 -27.55 Q5.2 -27.65 5.35 -27.9 L5.55 -28.3 Q5.85 -28.7 6.0 -28.95 6.2 -29.4 6.0 -29.75 L6.05 -29.75 M9.95 -26.05 L9.9 -26.0 9.95 -26.0 9.95 -26.05 M10.0 -26.25 Q10.25 -26.5 10.45 -26.15 L10.4 -26.1 10.3 -26.15 Q10.15 -26.15 10.0 -25.9 9.9 -25.7 9.9 -25.6 L9.9 -25.55 9.85 -25.6 9.8 -25.7 Q9.8 -26.05 10.0 -26.25 M9.9 -24.85 L9.7 -24.85 Q9.35 -24.8 9.25 -24.65 9.1 -24.45 8.9 -24.35 9.0 -24.65 9.25 -24.85 9.6 -25.15 10.25 -25.15 L10.2 -25.45 10.3 -25.45 10.3 -25.0 10.25 -24.95 10.15 -24.9 10.05 -24.9 9.9 -24.85 M7.1 -24.9 L7.55 -24.75 7.35 -24.7 Q7.3 -24.65 7.1 -24.55 L6.9 -24.5 6.85 -24.35 6.85 -24.3 Q6.85 -24.2 6.9 -24.15 7.3 -24.0 7.7 -23.85 L7.8 -23.75 8.0 -23.45 8.0 -23.4 7.7 -23.75 Q7.6 -23.8 7.4 -23.85 L6.8 -24.05 6.65 -24.15 6.65 -24.2 Q6.65 -24.25 6.75 -24.35 L6.75 -24.45 Q6.75 -24.55 6.9 -24.65 L6.75 -24.65 Q6.6 -24.6 6.35 -24.3 L6.25 -24.35 Q6.3 -24.45 6.5 -24.6 L6.75 -24.85 Q6.9 -25.0 7.1 -24.9 M8.2 -23.2 L8.25 -23.15 8.05 -23.25 8.1 -23.25 Q8.2 -23.25 8.2 -23.2 M8.4 -23.2 L8.3 -23.2 Q8.4 -23.25 8.7 -23.4 L9.1 -23.6 9.25 -23.7 9.25 -23.75 Q9.25 -23.85 9.2 -23.8 L9.15 -23.8 8.9 -23.95 8.9 -24.0 9.0 -23.9 Q9.05 -23.85 9.3 -23.85 L9.4 -23.8 9.4 -23.5 Q8.9 -23.45 8.65 -23.35 L8.4 -23.2 M9.3 -23.55 L9.35 -23.55 9.35 -23.65 9.3 -23.55 M0.85 -24.9 L1.45 -25.45 1.5 -25.5 1.6 -25.4 1.55 -25.35 Q1.55 -25.25 1.6 -25.25 L1.65 -25.15 1.6 -25.0 1.5 -24.85 Q1.5 -24.8 1.5 -24.7 L1.5 -24.45 1.2 -24.3 Q1.15 -24.4 1.15 -24.45 L1.05 -24.55 Q0.95 -24.55 0.85 -24.45 0.65 -24.35 0.6 -24.3 L0.35 -24.3 -0.05 -24.35 -0.15 -24.35 -0.45 -24.4 -0.55 -24.4 -0.65 -24.45 -0.45 -24.45 -0.5 -24.5 -0.05 -24.45 Q0.25 -24.5 0.45 -24.6 L0.75 -24.8 0.85 -24.9 M1.55 -25.3 L1.6 -25.15 1.6 -25.2 1.55 -25.3 M2.15 -23.75 L2.45 -23.7 2.35 -23.65 2.45 -23.5 Q2.75 -23.55 2.85 -23.65 2.9 -23.7 3.0 -23.7 L2.85 -23.55 2.7 -23.5 2.75 -23.5 2.75 -23.4 2.4 -23.4 2.25 -23.55 Q2.1 -23.55 1.95 -23.5 L1.7 -23.35 1.9 -23.55 Q2.1 -23.75 2.15 -23.75 M0.15 -24.4 L0.15 -24.4 M0.15 -23.15 Q0.1 -22.95 0.15 -22.85 L0.15 -22.8 Q-0.05 -22.85 -0.05 -23.1 0.0 -23.4 -0.2 -23.5 L-0.45 -23.45 -0.6 -23.4 -0.75 -23.3 Q-0.8 -23.15 -0.9 -23.05 L-0.95 -23.05 -0.65 -23.55 Q-0.4 -23.85 -0.05 -23.7 L0.1 -23.6 0.2 -23.45 0.15 -23.15 M0.3 -22.05 Q0.45 -21.9 0.45 -21.65 0.45 -21.45 0.3 -21.35 0.1 -21.25 0.0 -21.1 -0.1 -21.1 -0.1 -21.15 -0.1 -21.2 -0.2 -21.25 -0.3 -21.2 -0.45 -20.95 L-0.6 -20.7 -0.7 -20.7 -0.7 -21.15 Q-0.4 -21.7 -0.2 -21.5 L0.05 -21.5 0.1 -21.6 0.15 -21.75 0.1 -21.9 Q0.05 -22.0 0.05 -22.05 0.05 -22.2 0.05 -22.15 L0.1 -22.1 0.1 -22.0 0.2 -22.0 0.3 -22.05 M1.0 -21.9 L1.0 -21.85 1.05 -21.9 1.0 -21.9 M0.9 -21.7 L0.9 -21.75 0.85 -21.85 Q0.85 -21.95 1.15 -22.15 L1.6 -22.45 Q1.8 -22.6 2.0 -22.45 2.2 -22.35 2.2 -22.2 2.2 -22.15 2.15 -22.1 L2.1 -22.05 2.2 -21.85 2.2 -21.8 2.1 -21.95 2.05 -22.0 2.0 -22.0 1.9 -22.1 Q1.4 -21.95 1.15 -21.85 L1.0 -21.7 1.0 -21.55 0.95 -21.55 0.9 -21.5 0.8 -21.5 0.85 -21.6 0.95 -21.75 0.9 -21.7 M2.7 -21.6 L2.7 -21.7 2.85 -21.75 Q3.0 -21.75 2.95 -21.65 L2.75 -21.6 2.7 -21.6 M4.15 -22.65 L4.0 -22.65 3.75 -22.35 3.7 -22.2 3.45 -21.95 3.65 -22.3 3.65 -22.4 Q3.6 -22.6 3.55 -22.8 3.65 -22.85 3.75 -22.95 L4.25 -22.95 Q4.5 -22.6 4.55 -22.4 4.6 -22.35 4.45 -22.35 4.4 -22.35 4.3 -22.45 L4.15 -22.6 4.15 -22.65 M5.55 -20.55 L5.7 -20.5 Q5.4 -20.45 5.2 -20.35 L4.95 -20.15 Q4.75 -20.2 4.5 -20.25 4.5 -20.35 4.55 -20.35 4.6 -20.4 4.6 -20.3 L5.0 -20.4 5.55 -20.5 5.55 -20.55 M3.8 -18.5 Q4.0 -18.75 4.35 -18.9 L4.65 -18.85 Q5.0 -18.3 5.45 -18.1 L5.45 -17.85 5.4 -17.55 Q5.35 -17.25 5.4 -17.1 L5.0 -17.65 Q4.65 -18.2 4.2 -18.2 L3.95 -18.2 Q3.8 -18.15 3.65 -17.95 L3.55 -17.65 3.55 -17.95 Q3.6 -18.3 3.8 -18.5 M0.0 -19.9 Q-0.05 -20.0 -0.05 -20.15 -0.05 -20.25 -0.4 -20.25 L-0.2 -20.35 -0.15 -20.45 -0.1 -20.5 0.05 -20.45 0.1 -20.35 0.0 -19.9 M2.7 -17.15 Q2.7 -17.3 2.8 -17.45 2.9 -17.6 3.0 -17.65 L3.2 -17.65 3.25 -17.5 3.4 -17.6 3.55 -17.45 Q2.95 -17.35 2.75 -17.05 2.65 -16.65 2.55 -16.6 L2.5 -16.6 2.5 -16.7 Q2.5 -16.8 2.6 -16.95 L2.7 -17.15 M2.3 -15.95 L2.15 -15.8 1.95 -15.85 1.8 -15.85 2.05 -16.1 2.35 -16.35 2.35 -16.1 2.3 -15.95 M0.95 -15.75 L1.25 -15.75 1.35 -15.7 Q1.3 -15.7 1.0 -15.65 L1.1 -15.55 1.0 -15.55 Q0.95 -15.55 0.95 -15.6 L0.45 -15.6 Q0.2 -15.4 0.1 -15.25 L0.0 -15.35 -0.05 -15.5 Q-0.05 -15.7 0.1 -15.8 0.35 -16.0 0.85 -15.95 L0.9 -15.75 0.95 -15.75 M7.5 -20.55 L7.3 -20.55 7.1 -20.6 6.8 -20.6 6.45 -20.55 6.3 -20.55 Q6.4 -20.65 6.65 -20.7 L7.2 -20.8 7.65 -20.5 Q7.85 -20.35 7.85 -20.2 L7.85 -20.15 7.8 -20.15 7.8 -20.2 7.7 -20.25 7.5 -20.55 M8.1 -19.7 Q8.1 -19.8 8.15 -19.75 8.35 -19.6 8.4 -19.35 8.3 -19.35 8.2 -19.5 8.1 -19.6 8.1 -19.7 M-6.6 -31.2 Q-6.5 -31.2 -6.35 -31.05 -6.2 -30.85 -6.0 -30.8 -5.8 -30.65 -5.8 -30.4 L-5.8 -29.9 Q-5.9 -29.95 -6.0 -30.15 L-6.15 -30.45 -6.5 -30.45 Q-6.65 -30.4 -6.8 -30.1 -6.95 -29.85 -6.95 -29.7 -6.95 -29.55 -6.85 -29.45 L-6.9 -29.45 Q-7.0 -29.45 -7.0 -29.6 L-7.1 -29.75 -7.15 -29.8 -7.05 -30.0 -6.95 -30.3 Q-6.9 -30.4 -6.9 -30.75 L-6.75 -31.0 Q-6.65 -31.15 -6.6 -31.2 M-7.25 -29.7 L-7.05 -29.45 Q-6.9 -29.25 -6.8 -29.25 -6.6 -29.25 -6.5 -29.35 -6.45 -29.45 -6.45 -29.5 -6.45 -29.55 -6.5 -29.5 -6.55 -29.5 -6.55 -29.55 L-6.35 -29.85 -6.25 -29.75 -6.3 -29.7 -6.3 -29.6 Q-6.3 -29.55 -6.2 -29.45 -6.05 -29.3 -5.95 -29.3 L-5.4 -29.4 -5.1 -29.55 Q-4.9 -29.65 -4.85 -29.75 -4.85 -29.85 -4.9 -30.2 L-4.85 -30.1 -4.55 -30.1 -4.5 -29.95 -4.3 -29.9 -4.3 -29.85 Q-3.95 -29.9 -3.8 -30.05 L-3.65 -30.05 -3.55 -30.35 -3.6 -30.4 -3.7 -30.45 -3.25 -30.9 Q-3.0 -31.05 -2.9 -30.9 L-2.9 -30.85 -2.85 -30.9 Q-2.8 -30.9 -2.8 -30.85 L-2.7 -30.85 -2.6 -31.0 Q-2.55 -31.05 -2.5 -31.05 L-2.3 -31.05 -2.15 -30.9 -2.0 -30.65 -2.05 -30.6 -2.15 -30.75 Q-2.45 -30.8 -2.65 -30.65 L-2.75 -30.45 -2.7 -30.3 -2.7 -30.2 Q-2.7 -30.1 -2.75 -30.0 L-2.8 -29.8 -2.75 -29.5 -2.55 -29.15 -2.6 -29.1 Q-2.65 -29.05 -2.7 -29.05 L-2.95 -29.2 Q-3.1 -29.2 -3.15 -28.7 -3.15 -28.05 -2.45 -27.9 -2.35 -27.75 -2.3 -27.65 L-2.25 -27.35 -1.95 -27.35 -1.7 -27.2 -1.65 -27.05 -1.65 -27.0 Q-1.6 -26.95 -1.6 -26.85 -1.6 -26.8 -1.75 -26.65 L-1.95 -26.85 -2.25 -26.95 -2.55 -26.65 -2.8 -26.7 -2.85 -26.7 -2.95 -26.65 -3.0 -26.65 -3.3 -26.35 -3.9 -26.3 -4.0 -26.3 -3.9 -26.45 -3.65 -26.5 Q-3.6 -26.55 -3.5 -26.7 -3.45 -26.85 -3.45 -26.9 L-3.7 -27.4 Q-3.9 -27.7 -4.05 -27.85 L-4.55 -28.2 Q-4.95 -28.45 -5.35 -28.55 L-5.75 -28.5 -5.75 -28.35 -5.95 -28.35 -6.15 -28.4 -6.2 -28.4 Q-6.3 -28.45 -6.4 -28.3 -6.5 -28.2 -6.45 -28.1 L-6.45 -28.05 Q-6.55 -28.1 -6.6 -28.3 L-6.65 -28.65 Q-6.7 -28.8 -6.8 -28.95 -6.95 -29.2 -7.1 -29.3 L-7.25 -29.3 -7.25 -29.2 -7.3 -29.15 Q-7.4 -29.25 -7.45 -29.35 L-7.45 -29.5 Q-7.45 -29.7 -7.4 -29.75 L-7.25 -29.7 M-1.05 -34.65 L-1.2 -34.65 -1.2 -34.7 -1.05 -34.7 -1.0 -34.65 -1.05 -34.65 M-1.9 -34.75 L-1.85 -34.75 -1.65 -34.8 -1.5 -34.75 Q-1.55 -34.7 -1.6 -34.7 L-1.85 -34.65 -1.9 -34.65 -1.95 -34.6 -2.0 -34.6 -1.95 -34.7 -1.95 -34.75 -1.9 -34.75 M-3.45 -33.9 L-3.55 -33.75 Q-3.6 -33.75 -3.6 -33.8 -3.2 -34.2 -2.85 -34.05 L-3.15 -34.0 -3.35 -33.8 -3.4 -33.8 -3.45 -33.85 -3.45 -33.9 M-3.75 -33.55 L-3.75 -33.35 Q-3.8 -33.35 -3.9 -33.45 L-3.85 -33.55 -3.75 -33.55 M-4.15 -31.3 L-4.15 -31.15 Q-4.15 -31.1 -4.2 -31.1 L-4.2 -31.2 Q-4.8 -31.15 -5.05 -30.95 -5.2 -30.75 -5.3 -30.65 L-5.3 -30.75 -5.25 -30.95 Q-5.15 -31.15 -5.15 -31.2 -4.95 -31.3 -4.8 -31.4 L-4.6 -31.5 -4.4 -31.5 -4.3 -31.4 Q-4.25 -31.3 -4.15 -31.3 M-5.2 -25.25 L-5.3 -25.35 Q-5.3 -25.4 -5.15 -25.45 -4.95 -25.6 -4.9 -25.65 -4.35 -25.6 -4.1 -25.35 L-3.75 -24.95 -3.8 -24.9 Q-4.15 -25.25 -4.35 -25.4 -4.85 -25.4 -5.05 -25.25 -5.2 -25.05 -5.3 -25.0 L-5.35 -25.0 -5.2 -25.25 M-4.6 -25.55 L-4.6 -25.55 M-4.95 -22.25 L-5.1 -22.45 -5.2 -22.55 -5.35 -22.65 -5.55 -22.65 -5.5 -22.7 -5.2 -22.75 Q-4.9 -22.45 -4.9 -22.25 L-4.95 -22.25 M-4.8 -22.05 L-4.8 -21.95 Q-4.8 -21.9 -4.8 -21.85 L-4.8 -21.75 -4.85 -21.75 -4.85 -21.9 Q-4.85 -22.0 -4.85 -22.05 L-4.85 -22.1 -4.8 -22.05 M-2.05 -22.7 Q-1.85 -22.75 -1.85 -22.8 L-1.5 -22.7 Q-1.9 -22.55 -2.05 -22.35 -2.15 -22.05 -2.25 -21.9 L-2.35 -21.9 Q-2.3 -21.95 -2.25 -22.25 L-2.15 -22.45 -2.05 -22.7 M-7.4 -25.5 Q-7.4 -25.7 -7.3 -25.9 -7.15 -26.1 -6.95 -26.1 -7.0 -25.9 -7.15 -25.85 -7.2 -25.8 -7.2 -25.65 -7.2 -25.55 -7.05 -25.35 L-6.8 -25.0 Q-7.05 -25.15 -7.3 -25.2 -7.4 -25.3 -7.4 -25.5 M-7.65 -25.05 L-7.45 -25.05 -7.5 -24.95 -7.45 -24.95 -7.35 -24.9 -7.6 -24.9 -7.65 -24.85 Q-7.7 -24.8 -7.75 -24.85 L-7.75 -24.8 -7.8 -24.9 Q-7.8 -24.95 -7.75 -24.95 L-7.7 -24.95 -7.65 -25.05 M-7.3 -24.9 L-7.15 -24.7 -7.0 -24.55 -7.0 -24.45 -7.05 -24.5 -7.15 -24.65 Q-7.2 -24.8 -7.35 -24.85 L-7.3 -24.9 M-6.15 -25.2 L-6.15 -25.2 M-6.25 -25.0 L-6.0 -25.0 -5.8 -24.95 -6.25 -24.9 -6.3 -24.9 -6.3 -24.95 -6.25 -25.0 M-6.3 -24.0 L-6.35 -23.95 -6.45 -24.05 -6.5 -24.15 -6.65 -24.15 -6.75 -24.25 -6.55 -24.4 Q-6.45 -24.3 -6.4 -24.2 L-6.3 -24.0 M-6.3 -23.45 L-6.3 -23.6 -6.35 -23.7 -6.25 -23.75 -6.25 -23.45 -6.3 -23.45 M-5.95 -22.55 L-6.0 -22.6 -5.95 -22.65 -5.75 -22.7 -5.8 -22.65 -5.95 -22.55 M-3.5 -20.7 L-3.7 -20.7 Q-3.9 -20.55 -4.05 -20.45 L-4.15 -20.45 Q-4.4 -20.2 -4.6 -20.2 L-4.8 -20.25 -4.85 -20.3 -4.9 -20.3 Q-5.05 -20.3 -5.05 -20.35 L-4.9 -20.35 -4.9 -20.4 -4.85 -20.35 -4.25 -20.5 -3.9 -20.85 -3.85 -20.8 Q-3.7 -20.95 -3.55 -20.85 L-3.35 -20.6 -3.35 -20.55 -3.5 -20.65 -3.5 -20.7 M-3.85 -20.7 L-3.85 -20.7 M-4.1 -17.8 L-4.15 -17.75 -4.15 -17.85 -3.95 -17.95 -3.95 -18.0 -3.9 -18.0 Q-3.75 -17.75 -3.75 -17.55 L-3.8 -17.5 -3.9 -17.7 Q-3.9 -17.8 -4.0 -17.85 L-4.1 -17.8 M-4.5 -17.6 Q-4.4 -17.7 -4.35 -17.7 -4.35 -17.65 -4.4 -17.6 L-4.5 -17.6" fill="#ffdc45" fill-rule="evenodd" stroke="none"/>
      <path d="M7.75 -28.4 L7.85 -28.5 7.85 -28.55 8.05 -28.8 Q8.15 -28.75 8.25 -28.75 L8.3 -28.35 8.25 -28.15 8.2 -28.2 7.55 -28.2 7.7 -28.4 7.75 -28.4 M6.8 -27.9 L7.1 -27.95 Q6.8 -27.5 6.65 -27.45 6.3 -27.3 6.1 -27.0 L6.05 -26.85 Q5.75 -26.85 5.5 -26.55 L5.5 -26.5 Q5.2 -26.25 5.0 -25.55 L4.8 -25.05 4.35 -25.3 4.1 -25.4 Q4.0 -25.65 3.8 -25.9 3.55 -26.15 3.25 -26.3 L3.4 -26.4 Q3.6 -26.5 3.65 -26.6 4.2 -26.4 4.85 -26.75 5.45 -27.1 5.9 -27.8 L6.2 -28.35 Q6.2 -28.25 6.3 -28.15 6.45 -27.9 6.8 -27.9 M2.0 -26.65 L2.25 -26.6 2.35 -26.45 2.35 -26.4 2.2 -26.3 1.75 -26.5 Q1.4 -26.7 0.85 -26.65 L0.85 -26.7 Q0.85 -27.0 0.9 -27.05 L1.45 -27.0 Q1.55 -26.8 1.6 -26.8 L1.65 -26.75 1.75 -26.7 2.0 -26.65 M-3.0 -30.5 L-3.0 -30.25 Q-3.05 -30.0 -3.05 -29.7 L-3.1 -29.55 -3.15 -29.45 -3.35 -29.4 Q-3.65 -29.25 -3.65 -28.8 -3.65 -28.6 -3.35 -28.2 L-3.3 -28.1 -3.25 -28.05 Q-3.0 -27.6 -2.65 -27.5 L-2.55 -27.4 Q-2.75 -27.35 -2.95 -27.2 -3.0 -27.15 -3.05 -27.0 -3.15 -27.45 -3.5 -27.85 -3.9 -28.4 -4.55 -28.7 -4.85 -28.8 -5.1 -28.85 L-5.2 -28.9 Q-4.85 -29.0 -4.6 -29.3 L-4.3 -29.3 Q-4.15 -29.3 -3.85 -29.4 -3.6 -29.55 -3.45 -29.65 -3.35 -29.8 -3.3 -30.0 L-3.2 -30.3 -3.0 -30.5 M-6.05 -28.95 L-6.1 -28.9 Q-6.25 -28.8 -6.3 -28.6 L-6.35 -28.6 -6.35 -28.7 Q-6.35 -28.95 -6.45 -29.15 L-6.35 -29.2 Q-6.25 -29.05 -6.05 -28.95" fill="#ffff93" fill-rule="evenodd" stroke="none"/>
    </g>
    <g id="shape2" transform="matrix(1.0, 0.0, 0.0, 1.0, 14.45, 38.75)">
      <path d="M9.6 -27.25 L9.6 -27.25 M9.85 -28.25 L9.85 -28.25" fill="#333333" fill-rule="evenodd" stroke="none"/>
      <path d="M6.55 -37.55 L6.75 -37.45 7.0 -37.25 Q7.5 -36.9 7.65 -36.65 L7.7 -36.5 7.7 -36.45 7.75 -36.35 Q7.95 -36.1 7.95 -35.9 7.95 -35.55 7.85 -35.25 7.8 -35.0 7.7 -34.85 L7.7 -34.7 Q7.7 -34.45 7.6 -34.3 L7.55 -34.35 7.4 -34.3 8.2 -33.15 8.75 -31.95 10.55 -29.45 10.6 -29.25 Q10.8 -28.45 10.8 -27.85 10.8 -27.4 10.7 -26.95 L10.25 -24.7 Q10.25 -24.25 8.75 -24.25 L-5.75 -28.8 -6.05 -29.1 -6.15 -31.9 -5.8 -33.4 -5.6 -34.15 -5.5 -34.85 -5.4 -35.6 Q-5.35 -35.9 -5.25 -36.15 L-5.35 -36.5 -5.4 -36.65 -5.5 -36.75 -5.55 -36.85 Q-5.6 -37.15 -5.6 -37.4 -5.6 -37.7 -5.45 -38.0 L-5.4 -38.15 Q-5.25 -38.4 -5.05 -38.45 L-5.05 -38.5 -5.15 -38.4 -5.1 -38.55 -5.1 -38.6 -5.05 -38.65 -5.1 -38.65 -5.05 -38.7 -5.05 -38.75 -5.0 -38.7 -5.0 -38.75 Q-4.9 -38.8 -4.8 -38.75 L-4.65 -38.65 -4.2 -38.5 -4.15 -38.5 -4.0 -38.45 -2.85 -38.3 -1.3 -38.3 1.65 -38.35 3.55 -38.35 Q4.05 -38.35 4.85 -38.15 L5.1 -38.1 Q6.05 -37.9 6.4 -37.65 L6.55 -37.55 M6.65 -36.9 Q6.8 -36.85 6.9 -36.6 L6.95 -36.55 Q7.05 -36.3 7.05 -35.95 7.05 -35.65 6.8 -35.3 6.5 -34.95 6.25 -35.0 L6.2 -35.05 5.9 -35.1 Q5.7 -35.3 5.7 -35.35 L5.75 -35.45 5.95 -35.3 6.2 -35.3 6.4 -35.35 Q6.6 -35.4 6.7 -35.75 6.8 -36.05 6.8 -36.25 6.8 -36.35 6.7 -36.55 L6.4 -36.85 6.4 -36.95 6.45 -36.95 6.5 -37.0 6.65 -36.9 M7.3 -36.65 L7.15 -36.75 7.15 -36.8 Q6.65 -37.15 6.5 -37.25 L5.8 -37.55 5.6 -37.6 5.55 -37.6 5.35 -37.65 5.05 -37.75 4.2 -37.9 3.55 -37.95 3.3 -38.0 2.65 -38.1 1.25 -37.95 0.95 -37.95 Q0.9 -37.7 0.95 -37.5 L0.8 -37.5 0.8 -37.7 0.8 -37.95 0.2 -37.9 -1.1 -37.85 -1.65 -37.85 -3.8 -38.15 -3.9 -38.15 -4.0 -38.2 Q-4.75 -38.35 -4.85 -38.4 L-4.9 -38.45 -4.9 -38.35 -4.95 -38.15 Q-5.0 -37.55 -5.15 -36.85 L-5.15 -36.8 -5.05 -36.6 -5.0 -36.4 Q-4.65 -36.0 -3.85 -35.7 L-3.65 -35.6 -3.05 -35.45 -2.75 -35.35 -2.25 -35.25 -1.75 -35.1 -1.15 -35.0 -0.75 -34.95 -0.6 -34.95 -0.75 -35.0 -0.7 -35.0 -0.35 -34.95 0.25 -34.95 0.8 -34.95 0.85 -35.0 0.95 -35.0 Q0.85 -35.15 0.85 -35.3 L0.9 -35.6 0.9 -35.65 0.95 -35.65 Q0.95 -35.55 1.05 -35.25 L1.1 -35.0 1.3 -35.0 Q1.5 -35.1 1.75 -35.1 L2.05 -35.05 2.15 -35.05 2.3 -35.1 3.05 -35.15 3.9 -35.2 3.85 -35.2 5.45 -35.1 6.65 -34.8 6.9 -34.7 6.95 -34.7 7.2 -34.65 7.25 -34.65 7.3 -34.6 7.3 -34.65 7.3 -34.7 Q7.15 -34.75 7.1 -34.85 L7.2 -34.9 7.25 -34.9 7.25 -34.85 7.35 -34.85 Q7.55 -34.85 7.65 -35.25 L7.75 -35.65 Q7.75 -35.8 7.6 -36.05 L7.45 -36.3 7.4 -36.25 7.35 -36.25 7.35 -36.6 7.3 -36.65 M0.8 -29.5 L0.85 -29.1 0.85 -28.55 0.9 -28.35 0.9 -27.55 5.3 -24.9 9.65 -24.7 Q9.7 -24.95 10.05 -25.85 L10.15 -26.35 10.3 -27.05 10.35 -27.1 Q10.4 -27.6 10.4 -28.05 L10.35 -29.05 10.35 -29.2 10.25 -29.45 10.0 -29.9 8.45 -32.0 Q8.3 -32.15 7.85 -32.8 L7.05 -34.1 7.0 -34.15 6.95 -34.1 Q6.9 -33.95 6.9 -33.9 6.9 -33.8 7.3 -33.05 L7.85 -32.15 Q7.95 -31.9 8.35 -31.35 L8.95 -30.55 8.8 -30.4 Q8.65 -30.4 8.3 -31.05 L7.65 -32.2 7.2 -33.05 Q6.8 -33.9 6.8 -34.05 6.8 -34.1 6.85 -34.25 L6.9 -34.3 6.85 -34.35 Q6.75 -34.4 6.6 -34.5 L6.35 -34.6 6.05 -34.7 Q5.05 -34.9 4.25 -34.9 L2.95 -34.85 Q2.65 -34.75 1.35 -34.6 L1.15 -34.6 -0.05 -34.6 Q-1.3 -34.6 -2.15 -34.85 L-4.3 -35.4 Q-4.5 -35.45 -4.65 -35.55 L-4.7 -35.6 Q-4.75 -35.75 -5.0 -35.95 L-5.05 -35.75 -5.15 -35.2 -5.2 -34.7 -5.2 -34.3 Q-5.2 -34.25 -5.25 -34.05 L-5.3 -33.75 Q-5.3 -33.6 -5.4 -33.35 -5.5 -33.1 -5.5 -32.85 -5.5 -32.75 -5.6 -32.4 -5.7 -32.1 -5.7 -31.75 -5.7 -31.65 -5.8 -31.25 L-5.9 -30.85 -5.95 -29.8 Q-5.9 -29.6 -5.8 -29.5 L-4.05 -28.6 -3.85 -30.2 Q-3.7 -31.6 -3.7 -31.75 L-3.65 -31.75 -3.6 -30.9 Q-3.7 -30.05 -3.7 -29.65 L-3.7 -28.4 0.6 -27.8 0.65 -29.05 0.75 -29.55 0.8 -29.55 0.8 -29.5 M9.85 -29.3 L10.0 -28.95 Q10.1 -28.45 10.1 -28.25 10.1 -28.0 10.0 -27.65 L10.0 -27.6 9.95 -27.45 9.9 -26.6 Q9.9 -26.45 9.8 -26.15 L9.4 -25.7 9.4 -26.2 Q9.4 -26.3 9.5 -26.75 L9.55 -26.9 9.55 -26.95 Q9.45 -27.0 9.45 -27.1 9.45 -27.2 9.8 -28.15 9.8 -28.4 9.5 -29.1 9.15 -29.8 9.15 -29.85 9.6 -29.95 9.85 -29.3 M9.85 -28.25 L9.85 -28.25 M9.6 -27.25 L9.6 -27.25 M-5.15 -38.15 L-5.45 -37.4 Q-5.45 -37.3 -5.35 -37.1 L-5.3 -37.5 -5.15 -38.15" fill="#dede9a" fill-rule="evenodd" stroke="none"/>
      <path d="M6.65 -36.9 L6.5 -37.0 6.45 -36.95 6.4 -36.95 6.4 -36.85 6.7 -36.55 Q6.8 -36.35 6.8 -36.25 6.8 -36.05 6.7 -35.75 6.6 -35.4 6.4 -35.35 L6.2 -35.3 5.95 -35.3 5.75 -35.45 5.7 -35.35 Q5.7 -35.3 5.9 -35.1 L6.2 -35.05 6.25 -35.0 Q6.5 -34.95 6.8 -35.3 7.05 -35.65 7.05 -35.95 7.05 -36.3 6.95 -36.55 L6.9 -36.6 Q6.8 -36.85 6.65 -36.9 M0.8 -37.7 L0.8 -37.5 0.95 -37.5 Q0.9 -37.7 0.95 -37.95 L1.25 -37.95 2.65 -38.1 3.3 -38.0 3.55 -37.95 4.2 -37.9 5.05 -37.75 5.35 -37.65 5.55 -37.6 5.6 -37.6 5.8 -37.55 6.5 -37.25 Q6.65 -37.15 7.15 -36.8 L7.15 -36.75 7.3 -36.65 7.35 -36.6 7.35 -36.25 7.4 -36.25 7.45 -36.3 7.6 -36.05 Q7.75 -35.8 7.75 -35.65 L7.65 -35.25 Q7.55 -34.85 7.35 -34.85 L7.25 -34.85 7.25 -34.9 7.2 -34.9 7.1 -34.85 Q7.15 -34.75 7.3 -34.7 L7.3 -34.65 7.25 -34.65 7.2 -34.65 6.95 -34.7 6.9 -34.7 6.65 -34.8 5.45 -35.1 3.85 -35.2 3.9 -35.2 3.05 -35.15 2.3 -35.1 2.15 -35.05 2.05 -35.05 1.75 -35.1 Q1.5 -35.1 1.3 -35.0 L1.1 -35.0 1.05 -35.25 Q0.95 -35.55 0.95 -35.65 L0.9 -35.65 0.9 -35.6 0.9 -35.85 Q0.75 -36.65 0.75 -36.95 0.75 -37.35 0.8 -37.7 M0.25 -34.95 L-0.35 -34.95 -0.7 -35.0 -0.75 -35.0 -0.75 -34.95 -1.15 -35.0 Q-1.25 -35.2 -1.3 -35.75 -1.3 -37.05 -1.15 -37.65 L-1.15 -37.75 -1.1 -37.85 0.2 -37.9 0.15 -37.75 0.05 -37.6 0.05 -37.45 -0.05 -36.4 0.0 -35.7 Q0.1 -35.05 0.25 -35.0 L0.25 -34.95 M1.15 -34.6 L1.35 -34.6 Q2.65 -34.75 2.95 -34.85 L4.25 -34.9 Q5.05 -34.9 6.05 -34.7 L6.35 -34.6 6.6 -34.5 Q6.75 -34.4 6.85 -34.35 L6.9 -34.3 6.85 -34.25 Q6.8 -34.1 6.8 -34.05 6.8 -33.9 7.2 -33.05 L7.65 -32.2 8.3 -31.05 Q8.65 -30.4 8.8 -30.4 L8.95 -30.55 8.35 -31.35 Q7.95 -31.9 7.85 -32.15 L7.3 -33.05 Q6.9 -33.8 6.9 -33.9 6.9 -33.95 6.95 -34.1 L7.0 -34.15 7.05 -34.1 7.85 -32.8 Q8.3 -32.15 8.45 -32.0 L10.0 -29.9 10.25 -29.45 10.35 -29.2 10.35 -29.05 10.4 -28.05 Q10.4 -27.6 10.35 -27.1 L10.3 -27.05 10.15 -26.35 10.05 -25.85 Q9.7 -24.95 9.65 -24.7 L5.3 -24.9 0.9 -27.55 0.9 -28.35 0.85 -28.55 0.85 -29.1 0.8 -29.5 Q0.95 -29.4 1.05 -29.1 L1.1 -28.75 Q1.3 -28.3 1.9 -28.05 2.1 -28.35 2.25 -29.25 2.35 -30.1 2.35 -30.7 2.35 -31.15 2.15 -32.3 1.85 -32.65 1.65 -33.45 1.45 -34.25 1.15 -34.6 M9.85 -29.3 Q9.6 -29.95 9.15 -29.85 9.15 -29.8 9.5 -29.1 9.8 -28.4 9.8 -28.15 9.45 -27.2 9.45 -27.1 9.45 -27.0 9.55 -26.95 L9.55 -26.9 9.5 -26.75 Q9.4 -26.3 9.4 -26.2 L9.4 -25.7 9.8 -26.15 Q9.9 -26.45 9.9 -26.6 L9.95 -27.45 10.0 -27.6 10.0 -27.65 Q10.1 -28.0 10.1 -28.25 10.1 -28.45 10.0 -28.95 L9.85 -29.3" fill="#bf8747" fill-rule="evenodd" stroke="none"/>
      <path d="M0.9 -35.6 L0.85 -35.3 Q0.85 -35.15 0.95 -35.0 L0.85 -35.0 0.8 -34.95 0.25 -34.95 0.25 -35.0 Q0.1 -35.05 0.0 -35.7 L-0.05 -36.4 0.05 -37.45 0.05 -37.6 0.15 -37.75 0.2 -37.9 0.8 -37.95 0.8 -37.7 Q0.75 -37.35 0.75 -36.95 0.75 -36.65 0.9 -35.85 L0.9 -35.6 M-1.15 -35.0 L-1.75 -35.1 -2.25 -35.25 -2.75 -35.35 -3.05 -35.45 -3.65 -35.6 -3.85 -35.7 Q-4.65 -36.0 -5.0 -36.4 L-5.05 -36.6 -5.15 -36.8 -5.15 -36.85 Q-5.0 -37.55 -4.95 -38.15 L-4.9 -38.35 -4.9 -38.45 -4.85 -38.4 Q-4.75 -38.35 -4.0 -38.2 L-3.9 -38.15 -3.8 -38.15 -1.65 -37.85 -1.1 -37.85 -1.15 -37.75 -1.15 -37.65 Q-1.3 -37.05 -1.3 -35.75 -1.25 -35.2 -1.15 -35.0 M1.15 -34.6 Q1.45 -34.25 1.65 -33.45 1.85 -32.65 2.15 -32.3 2.35 -31.15 2.35 -30.7 2.35 -30.1 2.25 -29.25 2.1 -28.35 1.9 -28.05 1.3 -28.3 1.1 -28.75 L1.05 -29.1 Q0.95 -29.4 0.8 -29.5 L0.8 -29.55 0.75 -29.55 0.65 -29.05 0.6 -27.8 -3.7 -28.4 -3.7 -29.65 Q-3.7 -30.05 -3.6 -30.9 L-3.65 -31.75 -3.7 -31.75 Q-3.7 -31.6 -3.85 -30.2 L-4.05 -28.6 -5.8 -29.5 Q-5.9 -29.6 -5.95 -29.8 L-5.9 -30.85 -5.8 -31.25 Q-5.7 -31.65 -5.7 -31.75 -5.7 -32.1 -5.6 -32.4 -5.5 -32.75 -5.5 -32.85 -5.5 -33.1 -5.4 -33.35 -5.3 -33.6 -5.3 -33.75 L-5.25 -34.05 Q-5.2 -34.25 -5.2 -34.3 L-5.2 -34.7 -5.15 -35.2 -5.05 -35.75 -5.0 -35.95 Q-4.75 -35.75 -4.7 -35.6 L-4.65 -35.55 Q-4.5 -35.45 -4.3 -35.4 L-2.15 -34.85 Q-1.3 -34.6 -0.05 -34.6 L1.15 -34.6 M-5.15 -38.15 L-5.3 -37.5 -5.35 -37.1 Q-5.45 -37.3 -5.45 -37.4 L-5.15 -38.15" fill="#a3a383" fill-rule="evenodd" stroke="none"/>
      <path d="M6.3 -36.35 L6.5 -35.95 Q6.55 -35.85 6.85 -35.55 7.1 -35.25 7.15 -35.1 L7.35 -34.45 Q7.35 -34.35 7.55 -34.2 L7.85 -34.0 Q8.0 -33.85 8.05 -33.75 L8.25 -33.35 8.2 -33.3 8.3 -33.2 Q8.65 -33.1 8.75 -32.85 L8.85 -32.45 8.85 -32.4 8.8 -32.4 8.8 -32.35 8.9 -32.0 Q8.95 -31.85 9.2 -31.45 9.3 -31.25 9.7 -30.9 L10.1 -30.55 10.15 -30.55 10.2 -30.45 10.3 -30.35 10.25 -30.35 Q10.55 -29.8 10.7 -29.05 L10.75 -28.75 10.65 -29.0 Q10.45 -29.7 10.05 -29.7 9.45 -29.7 9.1 -29.35 8.9 -29.15 8.9 -29.0 L8.9 -28.85 Q8.9 -28.8 8.75 -28.75 L8.55 -28.7 Q8.25 -28.5 8.2 -28.0 8.15 -27.85 8.15 -27.35 8.15 -27.05 8.15 -26.8 8.25 -26.25 8.6 -26.25 8.75 -26.25 9.0 -26.4 L9.25 -26.15 9.5 -26.15 Q10.1 -26.55 10.45 -27.0 10.8 -27.55 10.8 -28.0 L10.75 -28.5 10.95 -27.5 10.9 -27.45 10.9 -27.35 10.95 -27.15 Q10.95 -26.85 10.8 -26.45 L10.6 -25.75 Q10.55 -25.55 10.5 -25.05 L10.4 -24.5 10.4 -24.3 10.5 -23.9 10.4 -23.5 10.2 -23.05 Q9.9 -22.6 9.9 -22.15 9.9 -21.9 9.95 -21.8 L10.0 -21.5 Q10.0 -21.4 9.85 -21.15 9.75 -20.9 9.65 -20.9 9.55 -20.9 9.45 -21.0 L9.45 -21.05 Q9.2 -20.9 9.0 -20.45 8.8 -20.0 8.8 -19.65 L8.6 -19.35 Q8.35 -18.95 8.2 -18.65 8.2 -18.35 8.1 -18.15 L8.05 -18.05 8.05 -18.0 8.0 -17.7 7.95 -17.7 7.75 -17.8 7.4 -17.8 Q7.2 -17.8 7.1 -17.9 6.8 -18.0 6.5 -18.4 6.2 -18.4 6.0 -18.15 L5.9 -17.8 5.85 -17.65 Q5.85 -17.5 5.9 -17.3 5.95 -17.1 6.05 -17.05 L6.25 -16.95 6.3 -17.0 Q6.4 -17.05 6.85 -17.0 7.25 -16.95 7.45 -16.85 L7.7 -16.6 7.9 -16.6 7.95 -16.65 7.95 -16.75 8.0 -16.8 8.05 -16.75 8.05 -16.7 8.1 -16.7 8.1 -16.55 Q8.15 -16.4 8.4 -16.05 8.7 -15.5 8.7 -15.3 8.7 -15.2 8.65 -15.0 8.55 -14.85 8.45 -14.8 8.45 -14.85 8.4 -14.8 L8.35 -14.8 8.25 -14.85 8.15 -14.85 8.05 -14.8 8.0 -14.8 8.3 -15.1 Q8.35 -15.25 8.35 -15.4 8.35 -15.6 8.25 -15.85 8.1 -16.05 7.85 -16.15 L7.05 -16.2 Q6.95 -16.2 6.7 -16.1 L6.4 -15.95 Q6.25 -15.95 6.15 -15.8 L6.1 -15.6 6.05 -15.75 Q5.85 -16.45 5.55 -16.35 L5.55 -16.7 5.6 -17.3 5.6 -17.45 Q5.6 -17.55 5.65 -17.6 L5.8 -17.75 Q5.8 -18.0 5.9 -18.15 L6.0 -19.05 6.0 -19.4 5.95 -19.6 Q5.85 -19.9 5.85 -20.15 5.85 -20.4 5.9 -20.75 L5.9 -20.9 5.55 -20.4 5.3 -19.85 4.85 -18.75 Q4.6 -18.0 4.6 -17.8 L4.75 -17.7 5.05 -17.4 5.1 -17.1 5.15 -16.7 Q5.15 -16.55 5.05 -16.5 4.95 -16.4 4.9 -16.15 L4.8 -16.15 4.8 -16.1 4.6 -15.7 Q4.55 -15.6 4.5 -15.3 4.45 -15.1 4.3 -14.95 L3.9 -14.6 Q3.7 -14.4 3.4 -14.25 3.2 -14.2 2.9 -14.0 L2.45 -13.65 2.35 -13.7 1.7 -13.25 Q1.05 -12.85 0.7 -12.7 L0.55 -12.7 Q0.55 -12.75 0.55 -12.8 L0.4 -12.75 Q0.35 -12.65 0.15 -12.6 L-0.05 -12.6 Q-0.5 -12.3 -1.05 -12.1 L-1.6 -11.75 Q-1.9 -11.55 -2.45 -11.35 -2.9 -11.2 -3.35 -11.1 L-3.4 -11.1 -3.4 -11.15 -3.05 -11.35 Q-2.65 -11.5 -2.55 -11.6 L-2.3 -11.85 Q-2.15 -12.0 -1.85 -11.9 -1.55 -11.95 -1.25 -12.15 L-1.05 -12.4 Q-0.75 -12.7 -0.6 -12.9 -0.5 -13.2 -0.4 -13.35 L-0.3 -13.55 Q-0.2 -13.75 -0.2 -13.8 -0.2 -13.9 -0.35 -14.15 -0.55 -14.4 -0.55 -14.5 L-0.55 -15.25 Q-0.65 -15.25 -0.65 -15.35 L-0.4 -15.7 Q-0.15 -16.1 -0.15 -16.4 -0.15 -16.55 -0.2 -16.65 -0.25 -16.8 -0.35 -16.75 L-0.4 -16.8 -0.2 -17.0 -0.15 -17.1 Q-0.2 -17.05 -0.25 -17.0 L-0.5 -16.9 -0.55 -16.9 -0.55 -16.95 -0.45 -17.05 -0.65 -17.05 Q-1.25 -16.65 -1.45 -16.55 L-2.2 -16.1 -2.5 -15.95 -2.55 -15.95 -2.55 -16.0 -2.6 -16.0 -2.7 -15.95 -2.8 -15.95 -2.75 -16.1 -3.4 -15.75 Q-3.55 -15.65 -3.85 -15.55 L-4.15 -15.45 -4.2 -15.4 -4.2 -15.45 -4.25 -15.45 -4.1 -15.8 -3.95 -16.25 -3.85 -16.65 -3.8 -16.6 -3.8 -16.55 Q-3.85 -16.35 -3.65 -16.35 -3.55 -16.35 -3.25 -16.7 -3.05 -17.0 -2.9 -17.3 L-3.05 -17.1 -3.1 -17.1 -3.05 -17.3 Q-3.0 -17.4 -3.0 -17.45 -3.0 -17.55 -3.05 -17.6 -3.35 -17.85 -3.55 -17.65 L-3.65 -17.5 -3.7 -17.65 -3.65 -17.9 Q-3.6 -18.15 -3.5 -18.4 L-3.5 -18.95 Q-3.55 -18.95 -3.6 -19.05 L-3.65 -18.9 Q-3.7 -18.8 -3.8 -18.75 L-3.8 -19.2 -3.75 -19.55 -3.75 -20.0 -4.0 -19.45 Q-4.2 -18.95 -4.4 -18.55 L-4.45 -18.55 -4.45 -18.6 -4.35 -19.0 Q-4.25 -19.3 -4.25 -19.45 -4.2 -19.85 -4.2 -20.25 L-4.2 -20.3 -4.25 -20.35 -4.3 -20.25 -4.45 -21.0 Q-4.5 -21.35 -4.65 -21.65 -4.7 -21.6 -4.8 -21.6 -5.05 -21.6 -5.2 -21.8 L-5.25 -21.8 -5.4 -21.95 -5.5 -22.1 -5.9 -22.45 -6.15 -22.65 -6.65 -22.65 -6.6 -22.55 -6.65 -22.5 Q-7.0 -22.9 -7.05 -23.5 -7.1 -23.9 -7.1 -24.35 -7.1 -25.05 -7.2 -25.35 -7.3 -25.65 -7.3 -26.0 -7.3 -26.45 -7.15 -26.9 -6.95 -27.6 -6.85 -28.0 L-6.75 -29.0 -6.55 -29.5 Q-6.45 -29.85 -6.45 -30.0 L-6.4 -30.6 Q-6.4 -31.25 -6.65 -31.35 L-6.65 -31.3 -6.7 -31.4 Q-6.7 -31.45 -6.55 -31.6 -6.4 -31.75 -6.35 -31.9 L-6.35 -31.95 -6.25 -32.1 -6.25 -32.15 Q-6.2 -32.25 -6.15 -32.3 L-6.2 -32.15 -6.15 -32.15 -6.05 -32.05 Q-6.0 -32.0 -5.95 -32.0 -5.8 -32.0 -5.75 -32.2 -5.65 -32.35 -5.5 -32.35 L-5.05 -33.2 -5.0 -33.3 -4.75 -33.75 -4.75 -33.7 -4.65 -33.85 -4.75 -33.75 -4.55 -34.05 Q-4.6 -33.9 -4.75 -33.6 L-4.85 -33.3 -5.0 -32.95 -5.1 -32.7 Q-5.25 -32.3 -5.25 -32.2 L-5.2 -31.75 -5.15 -31.7 -5.05 -31.8 Q-4.9 -31.7 -4.9 -31.5 -4.9 -31.25 -4.85 -31.2 L-4.7 -31.05 -4.45 -30.9 -4.1 -30.65 -4.0 -30.65 -3.9 -30.75 -3.8 -30.8 Q-3.8 -30.9 -3.75 -30.95 L-3.65 -30.95 -3.5 -31.05 -3.3 -31.2 -3.3 -31.35 -3.4 -31.35 -3.4 -31.4 Q-3.4 -31.65 -3.2 -32.0 -2.95 -32.4 -2.75 -32.45 L-2.45 -32.4 -2.3 -32.4 -2.3 -32.6 Q-2.25 -32.7 -2.15 -32.8 -1.6 -32.9 -1.35 -32.8 -1.05 -32.65 -0.85 -32.65 L-0.75 -32.5 Q-0.65 -32.45 -0.45 -32.45 L-0.4 -32.45 -0.4 -32.35 Q-0.4 -32.3 -0.5 -32.3 L-0.55 -32.2 Q-0.3 -31.8 0.1 -31.8 L0.6 -31.85 0.65 -31.85 0.8 -32.0 Q1.3 -32.0 1.6 -31.8 L1.8 -31.6 1.9 -31.55 2.0 -31.45 2.25 -31.5 Q2.35 -31.5 2.5 -31.3 L2.65 -31.05 Q2.75 -31.0 2.8 -30.85 2.8 -30.7 2.85 -30.65 L3.0 -30.65 3.15 -30.95 Q3.2 -31.1 3.2 -31.25 L3.65 -31.3 3.85 -31.3 Q4.05 -31.15 4.1 -30.85 L4.05 -30.8 4.0 -30.95 3.95 -30.95 Q3.75 -30.95 3.55 -30.45 3.45 -30.1 3.45 -29.95 3.45 -29.85 3.45 -29.75 L3.55 -29.55 3.5 -29.4 3.5 -29.3 3.55 -29.1 Q3.4 -29.15 3.2 -29.15 2.95 -29.2 2.75 -29.1 2.5 -28.95 2.5 -28.7 2.5 -28.55 2.7 -28.45 2.9 -28.35 2.9 -28.25 2.9 -27.8 3.05 -27.55 3.35 -27.05 4.15 -27.05 4.5 -27.05 4.7 -27.15 L4.8 -27.3 Q5.05 -27.25 5.3 -27.6 5.55 -27.95 5.55 -28.15 L5.5 -28.3 Q5.5 -28.45 5.3 -28.45 L4.85 -28.4 4.45 -28.3 Q4.25 -28.3 4.1 -28.4 L4.2 -28.35 Q4.6 -28.35 4.95 -28.6 L5.1 -28.75 5.25 -28.85 5.4 -28.85 Q5.85 -28.85 6.3 -29.25 L6.75 -29.7 6.9 -29.95 Q7.0 -30.05 6.95 -30.2 6.95 -30.35 7.1 -30.4 L7.4 -30.55 7.6 -30.3 8.05 -30.35 8.15 -30.5 8.3 -30.55 8.4 -30.65 8.45 -30.65 8.5 -31.0 8.55 -31.45 Q8.55 -31.8 8.3 -32.35 8.25 -32.5 8.2 -32.75 L8.2 -33.1 8.05 -33.25 8.05 -33.3 Q6.65 -35.0 5.95 -36.8 L6.0 -36.8 6.3 -36.35 M3.5 -34.05 Q3.6 -34.1 3.65 -34.3 4.25 -34.1 4.35 -33.6 4.4 -33.0 4.5 -32.8 L4.45 -32.8 Q4.3 -33.25 4.0 -33.95 L3.9 -33.95 3.8 -34.0 Q3.7 -34.0 3.65 -33.95 L3.6 -33.9 3.55 -33.9 Q3.45 -33.9 3.45 -33.95 L3.25 -33.95 3.1 -33.7 Q3.05 -33.55 2.8 -33.5 L3.0 -33.75 Q3.1 -33.9 3.1 -34.0 3.15 -34.25 3.2 -34.3 L3.35 -34.4 3.35 -34.2 Q3.4 -34.1 3.5 -34.05 M0.3 -33.65 L0.05 -33.55 Q0.05 -33.5 0.0 -33.5 -0.05 -33.5 -0.05 -33.6 -0.05 -33.7 0.05 -33.7 L0.25 -33.7 0.3 -33.65 M0.9 -33.9 Q0.95 -33.85 1.0 -33.75 1.0 -33.7 1.1 -33.65 L1.1 -33.25 1.05 -33.25 0.95 -33.5 0.9 -33.6 0.7 -33.75 0.85 -33.85 0.9 -33.9 M0.85 -33.75 L0.85 -33.75 M1.05 -28.5 Q1.15 -28.5 1.45 -28.6 1.75 -28.75 1.75 -28.85 1.75 -28.9 1.95 -29.15 2.2 -29.4 2.2 -29.85 2.2 -30.05 2.0 -30.2 1.75 -30.45 1.1 -30.4 1.1 -31.2 -0.3 -31.55 -0.35 -31.65 -0.55 -31.8 -0.85 -32.0 -1.15 -31.9 L-1.8 -31.7 Q-2.1 -31.6 -2.1 -31.35 -2.05 -31.1 -2.1 -31.05 -2.35 -31.15 -2.45 -30.8 -2.45 -30.7 -2.5 -30.55 L-2.55 -30.25 Q-2.55 -30.15 -2.4 -29.95 L-2.25 -29.95 -2.1 -30.1 -1.9 -30.25 -1.75 -30.25 Q-1.2 -30.1 -0.95 -29.8 L-0.75 -29.35 Q-0.6 -29.1 -0.3 -28.9 0.25 -28.5 1.05 -28.5 M9.4 -33.15 Q9.55 -32.95 9.55 -32.8 9.55 -32.7 9.4 -32.45 9.3 -32.2 9.2 -32.2 L9.1 -32.2 9.1 -32.25 9.2 -32.75 Q9.2 -32.95 9.05 -33.25 8.9 -33.6 8.7 -33.8 8.65 -33.85 8.35 -33.95 8.1 -34.05 8.05 -34.1 L7.65 -34.45 Q7.65 -34.35 7.5 -34.35 L7.85 -34.7 Q7.9 -34.4 8.0 -34.35 L8.25 -34.15 8.65 -34.2 Q8.85 -34.2 9.15 -33.5 9.2 -33.35 9.4 -33.15 M7.8 -34.55 L7.85 -34.45 7.9 -34.45 7.9 -34.5 7.8 -34.55 M6.05 -34.65 Q6.05 -34.55 6.15 -34.0 L6.3 -33.45 6.3 -33.4 Q5.95 -33.75 5.7 -35.3 5.7 -35.4 5.75 -35.5 5.8 -35.55 5.9 -35.6 L6.05 -35.3 Q6.2 -35.1 6.2 -35.0 L6.1 -34.85 6.05 -34.65 M11.4 -29.55 Q11.45 -29.6 11.6 -29.65 L11.8 -29.8 Q11.8 -29.7 12.05 -29.55 12.2 -29.45 12.4 -29.4 L12.45 -29.2 12.45 -28.8 12.4 -28.75 Q12.3 -28.8 12.25 -28.95 12.25 -29.15 12.2 -29.25 12.0 -29.45 11.8 -29.5 L11.35 -29.5 11.35 -29.55 11.4 -29.55 M12.5 -28.65 L12.55 -28.55 12.75 -28.6 13.0 -28.3 12.95 -28.05 Q12.85 -27.9 12.8 -27.9 L12.75 -27.9 Q12.85 -28.25 12.65 -28.4 12.55 -28.5 12.45 -28.55 L12.45 -28.65 12.5 -28.65 M12.4 -23.9 Q12.25 -23.65 12.1 -23.55 L12.05 -23.55 12.25 -23.8 12.25 -24.05 Q12.25 -24.2 12.2 -24.3 12.05 -24.4 11.65 -24.45 L11.6 -24.45 11.6 -24.6 11.7 -24.65 Q11.75 -24.5 11.8 -24.5 L12.4 -24.5 12.5 -24.4 12.5 -24.3 Q12.5 -24.15 12.4 -23.9 M14.3 -18.6 L14.3 -18.45 Q14.3 -18.6 14.15 -18.85 L13.8 -19.2 13.35 -19.25 Q13.2 -19.25 13.1 -19.1 L13.05 -19.2 13.2 -19.25 13.8 -19.3 Q14.05 -19.2 14.2 -18.95 14.3 -18.8 14.3 -18.6 M13.75 -19.3 L13.45 -19.25 13.75 -19.25 13.75 -19.3 M14.05 -17.3 L14.3 -17.3 14.55 -17.25 14.85 -17.25 14.9 -16.9 14.9 -16.85 14.85 -16.85 Q14.9 -16.95 14.7 -17.05 L14.4 -17.2 14.1 -17.2 Q14.05 -17.15 14.0 -17.15 L14.05 -17.3 M12.05 -16.15 L12.1 -16.25 12.35 -16.2 Q12.5 -16.05 12.55 -15.95 L12.5 -15.9 12.4 -16.0 Q12.35 -16.1 12.2 -16.1 L11.75 -16.05 Q11.8 -16.1 12.05 -16.15 M16.05 -16.3 L16.0 -16.15 15.9 -15.95 15.95 -16.15 Q15.95 -16.3 15.85 -16.4 L15.75 -16.65 Q15.6 -16.75 15.4 -16.7 L15.2 -16.7 15.15 -16.75 15.15 -16.8 15.35 -16.8 15.55 -16.9 Q15.65 -16.8 15.85 -16.8 L16.0 -16.55 Q16.05 -16.4 16.05 -16.3 M5.6 -15.1 L5.6 -15.2 5.75 -15.0 Q5.85 -14.9 6.3 -14.9 L6.5 -14.55 6.6 -14.35 6.6 -14.4 6.85 -14.15 6.8 -14.1 6.6 -14.1 Q6.25 -14.15 5.9 -14.5 5.6 -14.85 5.6 -15.05 L5.6 -15.1 M10.8 -15.15 Q11.0 -14.9 11.25 -14.9 11.35 -14.8 11.35 -14.55 L11.4 -14.4 11.45 -14.2 Q11.45 -14.1 11.35 -13.9 11.2 -13.7 11.1 -13.6 L11.1 -13.65 11.25 -13.95 11.3 -14.2 Q11.3 -14.45 11.15 -14.7 10.95 -15.0 10.65 -15.0 10.55 -14.95 10.55 -15.0 L10.65 -15.15 10.8 -15.15 M11.0 -14.95 L10.95 -15.0 10.9 -15.0 11.0 -14.95 M-4.5 -37.05 Q-4.25 -37.2 -4.15 -37.1 L-4.1 -37.1 -4.05 -37.0 Q-4.0 -36.9 -4.0 -36.75 L-4.1 -36.8 -4.45 -36.8 -4.75 -36.5 Q-4.85 -36.4 -4.9 -36.2 L-5.05 -36.25 Q-5.3 -36.05 -5.45 -35.85 L-5.5 -35.75 -5.6 -35.4 -5.65 -35.4 -5.7 -35.15 -5.75 -35.15 -5.75 -35.25 -5.7 -35.5 Q-5.7 -35.75 -5.55 -35.9 L-5.45 -36.25 -5.35 -36.5 -5.1 -37.0 -5.05 -36.95 -5.15 -36.65 Q-5.05 -36.6 -4.85 -36.8 L-4.5 -37.05 M-5.35 -36.15 L-5.35 -36.15 M-4.55 -35.9 L-4.55 -35.8 -4.7 -35.6 Q-4.8 -35.4 -4.9 -35.35 L-4.95 -35.45 -4.95 -35.6 -4.85 -35.75 -4.6 -35.95 -4.55 -35.9 M-5.85 -34.1 L-5.95 -33.6 Q-6.1 -33.15 -6.15 -32.9 L-6.2 -32.9 -6.3 -33.5 -6.25 -33.7 -6.1 -33.95 Q-6.0 -34.05 -5.95 -34.2 -5.85 -34.4 -5.9 -34.5 L-5.85 -34.5 -5.85 -34.1 M-10.9 -25.45 L-10.85 -25.5 Q-10.8 -25.55 -10.65 -25.6 L-10.25 -25.6 -10.2 -25.5 -10.55 -25.5 -10.85 -25.1 -10.9 -25.1 -10.95 -25.2 -10.9 -25.45 M-9.25 -25.65 L-9.15 -25.5 -9.15 -25.45 -9.2 -25.4 -9.4 -25.5 -9.7 -25.55 -9.75 -25.65 -9.55 -25.8 -9.35 -25.75 -9.25 -25.65 M-11.3 -23.95 L-11.4 -24.05 Q-11.55 -24.05 -11.6 -24.1 L-11.8 -24.15 Q-12.15 -24.15 -12.3 -24.05 -12.35 -23.95 -12.4 -23.95 -12.4 -24.0 -12.3 -24.1 -12.2 -24.2 -12.0 -24.25 L-11.95 -24.3 -11.9 -24.25 -11.75 -24.2 -11.35 -24.2 Q-11.3 -24.15 -11.3 -24.0 L-11.3 -23.95 M-10.3 -22.3 L-10.35 -22.25 -10.3 -22.2 -10.3 -22.3 M-10.15 -22.4 L-10.15 -22.45 -10.2 -22.4 -10.15 -22.4 M-10.25 -22.4 L-10.15 -22.55 -10.05 -22.4 -10.05 -22.35 -10.1 -22.3 -10.2 -22.25 -10.2 -22.05 Q-10.1 -21.85 -10.1 -21.75 -10.05 -21.55 -9.9 -21.45 -9.8 -21.4 -9.8 -21.25 -9.8 -21.15 -9.95 -20.85 L-10.25 -20.45 -10.3 -20.5 -10.3 -20.55 -10.2 -20.9 Q-10.05 -21.2 -10.05 -21.35 -10.05 -21.55 -10.15 -21.8 -10.25 -22.05 -10.4 -22.2 L-10.25 -22.4 M-8.9 -22.25 L-8.55 -22.65 -8.2 -22.85 Q-7.95 -23.0 -7.9 -23.0 -7.75 -22.9 -7.55 -22.6 -7.35 -22.3 -7.35 -22.15 -7.35 -22.1 -7.45 -22.0 L-7.6 -21.8 -7.7 -21.55 -7.8 -21.45 -7.75 -21.45 -7.65 -21.4 -7.9 -21.3 Q-8.05 -21.2 -8.25 -21.15 L-8.8 -20.6 -8.85 -20.8 -8.8 -21.05 -8.85 -21.05 -8.55 -21.45 Q-8.3 -21.8 -8.3 -21.9 -8.3 -22.0 -8.45 -22.05 L-8.75 -22.1 -8.7 -22.25 -8.9 -22.25 M-6.3 -21.1 L-5.95 -20.85 -5.95 -20.7 Q-5.95 -20.35 -6.35 -19.95 L-7.05 -19.25 -7.05 -19.2 -7.1 -19.25 -6.85 -19.65 Q-6.6 -20.1 -6.6 -20.25 -6.6 -20.35 -6.7 -20.5 -6.8 -20.7 -6.9 -20.75 -6.85 -20.85 -6.4 -21.1 L-6.3 -21.1 M-8.2 -20.85 L-8.3 -20.8 Q-8.35 -20.7 -8.45 -20.75 -8.35 -20.8 -8.2 -20.9 L-8.2 -20.85 M-7.5 -18.95 L-7.4 -18.95 -7.3 -19.0 -7.35 -18.95 -7.3 -18.9 -8.05 -18.45 -8.05 -18.5 Q-8.05 -18.65 -7.75 -18.9 -7.45 -19.2 -7.55 -18.95 L-7.5 -18.95 M-11.5 -19.55 L-11.6 -19.65 Q-11.8 -19.6 -11.95 -19.5 L-12.2 -19.25 -12.2 -19.2 Q-12.2 -19.15 -12.15 -19.05 L-12.05 -19.05 -11.9 -18.8 Q-11.85 -18.75 -11.85 -18.65 -11.85 -18.55 -11.9 -18.4 L-12.0 -18.4 Q-11.95 -18.5 -11.95 -18.6 -11.95 -18.7 -12.1 -18.9 -12.25 -19.1 -12.25 -19.2 L-12.2 -19.3 -12.2 -19.35 Q-12.15 -19.6 -11.85 -19.7 -11.75 -19.7 -11.65 -19.75 L-11.6 -19.8 -11.45 -19.7 -11.4 -19.6 Q-11.4 -19.55 -11.45 -19.5 L-11.55 -19.4 -11.5 -19.5 -11.5 -19.55 M-10.15 -18.0 L-9.9 -18.0 Q-9.8 -18.0 -9.7 -17.95 L-9.6 -17.8 -9.55 -17.65 -9.5 -17.4 -9.6 -17.25 -9.7 -17.05 -9.8 -16.9 Q-9.85 -16.8 -10.0 -16.8 -9.85 -17.0 -9.8 -17.1 L-9.8 -17.35 Q-9.8 -17.45 -9.85 -17.65 -9.95 -17.9 -10.0 -17.9 -10.15 -17.95 -10.25 -18.0 -10.35 -18.0 -10.45 -17.85 -10.45 -17.95 -10.3 -18.05 L-10.15 -18.0 M-9.0 -16.8 L-9.05 -16.65 -9.05 -16.55 Q-9.05 -16.5 -9.1 -16.5 L-9.15 -16.65 Q-9.15 -16.8 -9.3 -16.85 L-9.25 -16.9 -9.1 -17.0 -9.0 -16.95 -9.0 -16.8 M-11.15 -16.5 L-11.55 -16.35 -11.55 -16.3 -11.6 -16.3 Q-11.5 -16.45 -11.35 -16.55 L-10.95 -16.7 Q-10.8 -16.75 -10.8 -16.6 L-10.75 -16.45 Q-10.75 -16.35 -10.65 -16.35 L-10.6 -16.35 -10.5 -16.4 Q-10.45 -16.4 -10.35 -16.45 L-10.15 -16.6 -10.15 -16.55 Q-10.2 -16.5 -10.4 -16.4 L-10.4 -16.35 -10.5 -16.3 -10.7 -16.3 -10.9 -16.5 -11.15 -16.5 M-7.2 -16.0 L-7.35 -16.0 -7.5 -15.85 Q-7.7 -15.8 -7.85 -15.8 L-8.1 -15.95 Q-8.4 -16.2 -8.4 -16.35 L-8.5 -16.4 -8.65 -16.35 -8.65 -16.3 Q-8.7 -16.3 -8.7 -16.35 L-8.5 -16.45 -8.3 -16.4 -8.2 -16.2 Q-8.1 -16.0 -8.0 -16.0 L-7.6 -16.0 -7.5 -16.1 -7.25 -16.1 -7.2 -16.05 -7.2 -16.0 M-5.8 -17.45 L-5.75 -17.55 -5.7 -17.7 -5.6 -17.8 Q-5.55 -17.85 -5.55 -17.9 L-5.6 -17.95 -5.65 -17.95 -5.4 -18.1 -5.2 -18.2 -5.2 -18.15 Q-5.2 -18.05 -5.0 -17.9 -4.85 -17.75 -4.85 -17.55 -4.85 -17.45 -4.9 -17.35 L-5.05 -17.1 Q-4.95 -17.1 -4.8 -17.25 L-4.55 -17.45 -4.55 -17.4 Q-4.65 -17.2 -5.0 -16.95 -5.35 -16.7 -5.75 -16.6 L-5.8 -16.6 -5.4 -17.1 -5.4 -17.25 -5.5 -17.25 -5.5 -17.4 -5.55 -17.5 -5.6 -17.55 -5.75 -17.4 -5.8 -17.4 -5.8 -17.45 M-7.55 -15.1 Q-7.4 -14.9 -7.4 -14.85 -7.4 -14.75 -7.7 -14.4 -7.6 -14.6 -7.65 -14.8 -7.75 -15.15 -8.2 -15.15 -8.2 -15.2 -8.4 -15.15 -8.65 -15.05 -8.8 -14.95 -8.75 -15.1 -8.55 -15.2 L-7.7 -15.3 -7.55 -15.1 M-7.65 -14.35 L-7.7 -14.25 -7.75 -14.2 -7.65 -14.1 Q-7.65 -14.05 -7.75 -14.0 L-8.05 -13.85 Q-8.1 -13.85 -8.1 -13.9 L-7.65 -14.35 M-6.9 -14.2 L-7.0 -14.25 -6.2 -14.8 Q-5.8 -15.15 -5.75 -15.4 -4.8 -15.65 -4.7 -15.75 L-4.6 -15.75 -4.6 -15.6 Q-4.6 -15.5 -4.65 -15.35 -4.75 -15.2 -4.85 -15.15 L-4.9 -15.2 -4.9 -15.25 Q-5.4 -15.15 -6.0 -14.75 -6.65 -14.35 -6.9 -14.2 M-2.4 -14.45 Q-2.15 -14.85 -2.05 -14.85 -1.9 -14.75 -1.65 -14.75 -1.55 -14.75 -1.55 -14.55 L-1.6 -14.4 -1.55 -14.0 Q-1.55 -13.85 -1.8 -13.6 -2.05 -13.4 -2.3 -13.3 L-2.4 -13.35 -2.45 -13.35 Q-2.15 -13.55 -2.1 -13.85 L-2.05 -14.0 Q-2.05 -14.05 -1.9 -14.05 L-1.9 -14.35 -2.0 -14.3 -2.05 -14.3 -2.25 -14.4 Q-2.35 -14.4 -2.45 -14.3 L-2.45 -14.35 -2.4 -14.45 M-12.9 -23.6 L-13.2 -23.5 Q-13.25 -23.45 -13.35 -23.4 L-13.4 -23.4 -13.45 -23.45 -13.35 -23.6 Q-13.3 -23.65 -13.2 -23.65 L-12.9 -23.65 -12.8 -23.75 -12.9 -23.6 M-14.0 -18.2 Q-13.9 -18.3 -13.65 -18.4 L-13.5 -18.4 -13.5 -18.35 Q-13.4 -18.35 -13.4 -18.3 L-13.4 -18.2 Q-13.4 -18.1 -13.45 -18.0 L-13.65 -18.2 -13.95 -18.2 -14.05 -18.15 -14.0 -18.2 M-14.2 -17.9 L-14.2 -17.85 Q-14.2 -17.8 -14.1 -17.75 -14.05 -17.65 -14.05 -17.6 L-14.05 -17.55 -14.2 -17.45 -14.4 -17.2 -14.45 -17.2 -14.35 -17.45 Q-14.25 -17.6 -14.25 -17.7 L-14.25 -17.75 -14.3 -17.85 -14.25 -17.9 -14.25 -17.95 -14.15 -18.0 -14.15 -17.95 -14.2 -17.9 M-12.55 -18.65 L-12.5 -18.65 -12.8 -18.55 Q-13.1 -18.5 -13.15 -18.4 L-12.85 -18.65 -12.65 -18.7 -12.55 -18.65 M-4.8 -12.4 L-4.75 -12.25 -4.85 -11.85 -4.85 -11.8 -4.9 -12.1 Q-4.95 -12.25 -5.2 -12.35 -5.85 -12.3 -6.1 -12.05 -6.25 -11.75 -6.4 -11.65 L-6.45 -11.85 Q-6.45 -11.95 -6.05 -12.2 L-5.55 -12.5 -5.0 -12.6 Q-4.9 -12.6 -4.9 -12.55 L-4.8 -12.4 M-7.0 -12.5 L-6.85 -12.3 Q-6.85 -12.25 -6.85 -12.2 -6.85 -12.1 -6.9 -12.0 -6.9 -12.05 -7.05 -12.3 -7.1 -12.3 -7.2 -12.4 L-7.4 -12.4 Q-7.45 -12.4 -7.4 -12.4 -7.5 -12.4 -7.5 -12.3 L-7.55 -12.3 -7.55 -12.35 -7.5 -12.45 Q-7.35 -12.45 -7.2 -12.55 -7.1 -12.6 -7.0 -12.5 M-8.55 -11.1 L-8.55 -10.65 -8.6 -10.65 Q-8.6 -10.95 -8.95 -11.15 L-9.15 -11.2 -9.5 -11.1 -9.25 -11.3 Q-9.0 -11.45 -8.85 -11.45 L-8.8 -11.45 -8.7 -11.3 -8.55 -11.2 Q-8.55 -11.15 -8.55 -11.1 M-6.4 -11.85 L-6.3 -11.9 -6.25 -11.95 -6.4 -11.85 M-7.85 -10.55 L-7.8 -10.45 -7.9 -10.45 -7.95 -10.4 -8.1 -10.4 -7.95 -10.55 -7.85 -10.55" fill="#ffdc45" fill-rule="evenodd" stroke="none"/>
      <path d="M1.9 -31.0 L2.0 -31.0 2.2 -30.6 Q2.6 -29.95 3.2 -29.95 3.2 -29.8 3.25 -29.65 L3.35 -29.55 3.3 -29.5 3.3 -29.4 3.25 -29.4 2.8 -29.35 2.65 -29.3 2.3 -29.2 Q2.4 -29.45 2.4 -29.85 2.4 -30.1 2.15 -30.35 1.9 -30.6 1.3 -30.6 1.25 -31.0 0.9 -31.25 L1.25 -31.25 1.6 -31.1 Q1.85 -31.0 1.9 -31.0 M5.25 -28.65 L5.25 -28.65 M6.0 -35.0 L6.0 -35.0 M8.65 -32.15 L8.65 -32.15 M6.75 -28.75 L7.25 -29.25 7.25 -29.3 7.45 -29.6 7.6 -29.65 Q8.3 -29.65 8.45 -29.9 L8.55 -29.95 8.7 -30.05 8.9 -30.2 9.05 -30.4 9.25 -30.2 Q8.95 -30.05 8.7 -29.85 L8.7 -29.8 Q8.35 -29.5 8.25 -29.25 L8.2 -29.25 8.2 -29.2 Q7.7 -28.9 7.55 -28.15 7.5 -27.95 7.5 -27.4 7.5 -27.05 7.55 -26.7 L7.55 -26.65 Q7.75 -25.45 8.6 -25.6 L8.85 -25.6 Q9.05 -25.5 9.25 -25.5 L9.5 -25.5 Q9.7 -25.5 9.85 -25.6 L9.9 -25.65 9.85 -25.1 9.75 -24.65 9.75 -24.45 9.8 -24.1 9.85 -23.9 9.8 -23.75 9.8 -23.7 9.65 -23.4 Q9.25 -22.8 9.25 -22.15 9.25 -21.85 9.3 -21.7 9.2 -21.65 9.1 -21.6 L9.05 -21.6 Q8.7 -21.35 8.4 -20.7 8.2 -20.25 8.2 -19.85 L8.05 -19.7 8.1 -19.7 Q7.8 -19.25 7.6 -18.9 7.55 -18.8 7.55 -18.7 L7.55 -18.45 7.6 -18.45 7.55 -18.4 7.35 -18.5 Q7.2 -18.6 7.0 -18.85 L6.95 -18.85 Q6.85 -18.95 6.7 -19.05 L6.65 -19.05 6.6 -19.5 6.6 -19.6 6.55 -19.75 Q6.5 -19.95 6.5 -20.15 6.5 -20.35 6.55 -20.7 L6.55 -20.85 Q6.6 -21.05 6.5 -21.25 6.35 -21.45 6.15 -21.55 L5.7 -21.55 Q5.5 -21.5 5.4 -21.3 L5.35 -21.3 5.35 -21.2 5.05 -20.75 5.0 -20.7 4.7 -20.15 Q4.5 -19.7 4.25 -18.95 3.95 -18.05 3.95 -17.85 L3.95 -17.8 Q3.95 -17.65 4.05 -17.5 4.1 -17.35 4.25 -17.25 L4.35 -17.2 4.4 -17.15 4.45 -17.15 4.45 -17.0 4.5 -16.8 4.35 -16.6 4.35 -16.5 4.25 -16.4 4.05 -16.0 4.0 -16.0 Q3.95 -15.8 3.85 -15.45 L3.85 -15.4 3.5 -15.1 3.5 -15.05 Q3.35 -14.95 3.1 -14.85 L2.55 -14.5 2.5 -14.5 2.3 -14.35 Q2.15 -14.35 2.05 -14.25 L1.35 -13.8 0.7 -13.4 0.35 -13.4 0.05 -12.8 0.0 -12.65 0.0 -12.95 0.1 -13.05 0.2 -13.1 0.2 -13.2 0.25 -13.2 0.2 -13.25 0.0 -13.25 -0.1 -13.2 -0.1 -13.15 -0.15 -13.15 -0.25 -13.2 -0.1 -13.25 0.0 -13.25 0.1 -13.3 0.1 -13.35 Q0.2 -13.4 0.35 -13.4 0.5 -13.7 0.45 -13.8 0.45 -14.1 0.2 -14.5 L0.1 -14.6 0.1 -15.3 0.15 -15.35 Q0.5 -15.9 0.5 -16.4 0.5 -16.65 0.45 -16.8 0.5 -16.95 0.5 -17.1 0.5 -17.35 0.3 -17.55 0.15 -17.7 -0.1 -17.75 L-0.35 -17.7 -0.65 -17.7 Q-0.85 -17.7 -1.05 -17.6 L-1.75 -17.15 -1.8 -17.1 -2.25 -16.85 -2.3 -16.8 -2.45 -16.75 -2.45 -16.8 -2.3 -17.0 Q-2.2 -17.2 -2.25 -17.45 L-2.35 -17.6 Q-2.4 -17.8 -2.55 -18.05 L-2.7 -18.15 -2.9 -18.25 -2.85 -18.3 -2.85 -18.6 -2.9 -19.05 Q-2.9 -19.2 -2.95 -19.25 L-3.1 -19.45 -3.1 -20.05 Q-3.1 -20.3 -3.3 -20.45 -3.45 -20.65 -3.65 -20.65 L-3.75 -20.65 -3.75 -20.75 -3.8 -21.1 -3.8 -21.15 Q-3.9 -21.6 -4.1 -21.95 -4.2 -22.15 -4.4 -22.2 -4.6 -22.3 -4.8 -22.25 L-4.75 -22.25 -4.6 -22.2 -4.7 -22.2 Q-4.7 -22.15 -4.7 -22.2 L-4.75 -22.15 -4.8 -22.2 -4.8 -22.25 -4.9 -22.35 -4.9 -22.4 -5.45 -22.95 -5.5 -22.95 -5.8 -23.15 -5.85 -23.2 -6.0 -23.25 -6.35 -23.3 -6.4 -23.55 -6.4 -23.65 Q-6.45 -23.95 -6.45 -24.3 L-6.45 -24.35 Q-6.45 -25.2 -6.6 -25.55 -6.65 -25.75 -6.65 -26.0 -6.65 -26.35 -6.55 -26.7 -6.3 -27.45 -6.2 -27.85 L-6.15 -28.45 -6.1 -28.85 -5.95 -29.25 Q-5.8 -29.8 -5.8 -30.0 L-5.75 -30.55 -5.75 -30.6 Q-5.75 -31.05 -5.85 -31.35 L-5.9 -31.4 -5.9 -31.45 Q-5.75 -31.3 -5.55 -31.2 L-5.5 -31.15 Q-5.45 -30.9 -5.35 -30.8 L-5.1 -30.55 -5.05 -30.55 -4.8 -30.35 -4.4 -30.1 -4.35 -30.1 -4.15 -30.0 -3.75 -30.05 -3.7 -30.1 -3.65 -30.1 -3.35 -29.85 -3.35 -29.8 Q-3.05 -29.55 -2.8 -29.5 -2.7 -29.35 -2.45 -29.3 L-2.3 -29.3 Q-2.1 -29.3 -1.95 -29.4 L-1.7 -29.55 Q-1.6 -29.5 -1.5 -29.4 L-1.35 -29.05 -1.3 -29.0 Q-1.15 -28.65 -0.7 -28.35 0.0 -27.85 1.05 -27.85 1.2 -27.8 1.7 -28.05 L1.95 -28.15 2.0 -28.2 2.05 -28.15 2.3 -27.95 2.45 -27.85 2.65 -27.8 2.6 -27.8 Q2.5 -27.7 2.45 -27.55 2.4 -27.4 2.5 -27.25 2.9 -26.4 4.15 -26.4 4.7 -26.4 5.0 -26.6 L5.05 -26.6 5.05 -26.65 Q5.45 -26.7 5.85 -27.25 6.2 -27.8 6.15 -28.15 L6.15 -28.35 Q6.45 -28.5 6.75 -28.75 M8.25 -29.15 L8.25 -29.15 M5.75 -16.7 Q6.0 -16.6 6.3 -16.55 L7.0 -16.4 6.6 -16.3 6.35 -16.2 Q6.25 -16.2 6.15 -16.1 5.95 -16.5 5.75 -16.6 L5.75 -16.7 M7.5 -18.4 L7.5 -18.4 M-1.85 -31.9 Q-2.35 -31.7 -2.3 -31.35 L-2.3 -31.25 Q-2.4 -31.25 -2.5 -31.15 L-2.6 -31.1 Q-2.8 -31.05 -2.9 -31.0 -2.85 -31.2 -2.85 -31.5 L-2.35 -31.95 Q-2.15 -32.15 -2.05 -32.35 -1.65 -32.15 -1.2 -32.1 L-1.25 -32.1 -1.85 -31.9 M-1.65 -29.65 L-1.55 -29.7 -1.6 -29.7 -1.65 -29.65 -1.65 -29.6 -1.6 -29.65 -1.65 -29.65 M-4.85 -22.25 L-4.85 -22.25 M-7.55 -22.15 L-7.6 -22.15 -7.8 -21.95 -7.8 -21.9 -7.9 -21.65 -7.95 -21.55 -7.95 -21.5 -8.05 -21.5 -8.15 -21.4 Q-8.0 -21.7 -8.0 -21.95 -8.0 -22.35 -8.2 -22.6 L-8.05 -22.7 -7.95 -22.75 -7.75 -22.5 Q-7.6 -22.25 -7.55 -22.15 M-0.35 -16.95 L-0.3 -16.9 -0.35 -16.85 -0.35 -16.95 M-0.55 -17.1 L-0.55 -17.1 M-6.35 -20.4 Q-6.35 -20.65 -6.45 -20.85 L-6.35 -20.9 Q-6.2 -20.8 -6.15 -20.75 L-6.15 -20.7 Q-6.15 -20.45 -6.4 -20.2 L-6.35 -20.4 M-2.05 -11.75 L-2.05 -11.75" fill="#ffff93" fill-rule="evenodd" stroke="none"/>
    </g>
  </defs>
</svg>
