<?xml version="1.0" encoding="UTF-8" standalone="no"?>
<svg xmlns:ffdec="https://www.free-decompiler.com/flash" xmlns:xlink="http://www.w3.org/1999/xlink" ffdec:objectType="frame" height="420.35px" width="690.55px" xmlns="http://www.w3.org/2000/svg">
  <g transform="matrix(1.0, 0.0, 0.0, 1.0, 277.55, 397.95)">
    <use ffdec:characterId="1393" height="55.75" transform="matrix(7.0, 0.0, 0.0, 7.0, -269.85, -394.1)" width="97.55" xlink:href="#shape0"/>
  </g>
  <defs>
    <g id="shape0" transform="matrix(1.0, 0.0, 0.0, 1.0, 38.55, 56.3)">
      <path d="M42.55 -54.55 Q42.8 -53.7 42.8 -53.25 42.8 -53.05 42.55 -52.85 42.5 -52.8 42.1 -52.5 41.45 -52.0 41.45 -51.35 41.45 -50.95 41.7 -50.7 42.0 -50.5 42.0 -50.35 L43.3 -50.75 Q43.95 -50.95 44.7 -51.05 L45.0 -50.65 Q45.25 -50.35 45.7 -50.35 46.0 -50.35 46.6 -50.75 L47.15 -51.15 Q48.75 -51.15 49.35 -49.6 49.7 -48.65 49.7 -47.3 49.7 -47.0 49.15 -46.55 48.55 -46.15 48.55 -46.05 48.55 -45.7 48.85 -45.0 49.15 -44.35 49.15 -44.0 49.15 -42.95 49.1 -42.7 48.85 -41.8 47.85 -41.8 47.5 -41.8 47.05 -42.45 46.65 -43.05 46.55 -43.05 46.4 -43.05 45.65 -42.65 44.8 -42.2 44.3 -42.05 L44.55 -41.85 Q44.85 -41.65 44.85 -41.2 44.85 -40.9 44.7 -40.5 44.4 -39.85 43.85 -39.5 L41.55 -39.5 Q41.1 -39.5 41.1 -39.85 41.05 -40.05 41.15 -40.5 40.95 -40.5 40.5 -40.7 40.05 -40.9 39.95 -41.0 39.4 -40.45 39.05 -40.0 L38.75 -39.65 Q38.65 -39.6 38.45 -39.65 L37.65 -39.7 Q36.25 -39.7 35.15 -37.7 34.8 -37.05 34.5 -36.3 34.3 -35.7 34.3 -35.6 34.3 -35.3 34.3 -35.2 34.35 -35.15 34.45 -35.1 35.05 -34.95 35.55 -34.55 35.6 -34.35 35.4 -33.95 35.15 -33.45 35.15 -33.05 35.15 -32.8 36.35 -32.2 L37.55 -31.65 37.55 -31.6 Q37.95 -31.5 38.0 -31.3 L38.05 -30.85 Q38.1 -30.6 38.35 -30.35 L39.8 -30.3 Q40.2 -30.25 40.35 -30.15 42.75 -30.8 42.85 -31.5 42.9 -31.7 42.7 -32.15 42.5 -32.65 42.5 -32.9 42.5 -33.25 42.8 -33.75 43.15 -34.3 43.7 -34.65 46.7 -34.55 47.55 -35.45 48.0 -35.9 47.85 -37.05 49.25 -39.4 49.7 -39.8 54.25 -40.0 56.0 -38.95 56.95 -38.35 56.95 -37.5 56.95 -37.3 56.75 -37.25 L56.35 -37.15 Q55.8 -36.9 55.8 -35.55 56.85 -35.25 58.0 -33.1 58.4 -32.4 58.75 -31.6 L59.0 -30.9 Q59.0 -29.75 58.2 -28.95 L57.15 -28.15 55.7 -27.0 Q54.5 -26.65 53.5 -27.7 53.15 -28.05 52.9 -28.5 52.7 -28.8 52.7 -28.9 52.7 -29.35 52.9 -29.45 L53.65 -29.65 53.25 -30.3 Q52.9 -30.9 52.5 -31.3 51.5 -31.25 51.05 -31.05 50.7 -30.8 50.55 -30.8 L48.35 -30.65 Q47.1 -30.5 46.8 -30.35 L47.15 -29.45 Q47.3 -29.0 47.3 -28.55 47.3 -28.3 46.45 -27.7 L45.45 -26.95 44.7 -27.0 Q44.55 -27.45 44.2 -27.85 L43.55 -28.35 Q43.55 -28.45 43.4 -28.5 43.15 -28.65 42.7 -28.65 L42.0 -28.2 41.2 -27.65 41.05 -27.5 41.25 -27.45 42.45 -27.45 Q42.65 -27.0 42.65 -25.85 42.65 -25.3 42.15 -24.6 41.55 -23.7 40.85 -23.7 40.3 -23.7 40.05 -24.05 39.85 -24.45 39.7 -24.55 38.35 -24.7 37.65 -23.7 37.05 -22.5 36.55 -22.05 36.4 -21.95 36.1 -21.3 L35.7 -20.65 34.95 -20.05 Q34.8 -19.9 34.8 -19.7 L34.8 -19.05 Q34.85 -18.75 35.1 -18.6 35.5 -18.3 38.15 -17.45 L38.65 -16.7 Q38.95 -16.3 38.95 -16.15 44.6 -16.9 44.05 -18.2 L43.8 -18.6 Q43.65 -18.8 43.65 -18.95 43.7 -19.2 45.2 -19.2 45.65 -19.2 45.8 -19.3 L45.95 -19.45 45.95 -20.7 49.05 -20.9 Q49.25 -20.95 49.35 -21.0 L49.7 -21.2 51.85 -21.15 Q52.35 -20.45 53.1 -19.6 53.65 -19.4 53.85 -19.05 54.05 -18.75 54.05 -17.95 54.05 -17.6 53.8 -16.8 53.45 -15.9 52.9 -15.1 51.5 -12.8 49.7 -12.8 49.25 -12.8 49.15 -13.1 49.15 -13.3 49.2 -13.7 47.85 -14.15 47.4 -13.3 47.25 -13.0 47.15 -12.35 L47.0 -11.15 Q46.8 -9.55 46.1 -8.75 45.1 -7.65 42.85 -7.65 L41.75 -7.7 41.2 -7.7 40.15 -8.4 Q39.55 -8.8 39.3 -9.0 39.0 -8.7 38.85 -8.3 38.65 -7.85 38.65 -7.35 38.65 -6.55 37.6 -6.45 36.35 -6.45 36.0 -6.3 34.5 -6.1 34.25 -7.05 34.05 -7.6 34.35 -8.55 L33.95 -8.65 Q33.55 -8.8 33.5 -8.95 L33.55 -9.2 33.4 -9.1 Q33.35 -9.6 33.35 -10.15 33.45 -12.25 32.55 -12.6 L31.95 -12.75 Q31.85 -12.8 31.8 -12.8 L31.75 -12.85 31.65 -13.1 31.3 -13.7 Q30.8 -14.55 30.3 -14.55 L29.9 -14.6 Q29.5 -14.7 29.45 -14.8 L28.9 -14.15 Q28.3 -13.5 28.0 -13.45 L27.0 -13.5 Q26.8 -13.7 25.55 -14.2 24.55 -14.65 24.55 -15.2 24.55 -15.55 24.85 -15.8 25.15 -16.1 25.15 -16.45 25.15 -17.25 22.3 -18.65 21.8 -18.1 21.65 -17.95 L21.15 -17.15 20.65 -17.1 20.7 -17.05 20.15 -17.05 19.95 -17.0 18.85 -16.85 Q18.6 -16.85 18.3 -17.05 L18.15 -17.05 17.9 -17.45 Q17.7 -17.7 17.4 -18.1 16.9 -18.9 16.75 -19.25 15.8 -20.65 15.55 -20.65 15.45 -20.65 14.75 -20.4 13.85 -20.15 13.15 -19.8 12.5 -19.85 12.25 -20.05 12.05 -20.15 12.05 -20.3 L10.7 -20.2 Q10.35 -19.85 9.45 -19.25 8.55 -18.65 8.3 -18.35 L8.85 -17.65 Q9.35 -17.0 9.35 -16.75 9.35 -16.5 8.85 -16.05 L8.0 -15.3 7.85 -15.15 7.8 -15.05 7.75 -15.05 Q7.35 -14.8 6.85 -14.8 4.3 -14.8 3.5 -15.5 3.2 -15.75 3.15 -16.05 3.1 -16.2 3.1 -16.35 2.85 -16.55 2.85 -16.8 L2.65 -17.15 2.5 -17.4 Q2.1 -17.5 1.35 -17.8 L0.05 -18.35 Q-1.15 -18.25 -1.45 -18.05 -1.85 -17.8 -2.8 -17.75 L-3.2 -17.55 -3.55 -17.0 Q-3.85 -16.45 -3.95 -16.2 L-4.15 -16.2 Q-4.15 -16.5 -3.9 -16.95 -4.5 -16.35 -4.55 -16.15 -4.75 -15.65 -5.1 -15.2 -5.5 -14.65 -6.0 -14.3 -6.35 -14.3 -6.55 -14.55 -6.8 -14.8 -7.15 -14.8 -7.7 -14.8 -8.3 -13.95 L-8.85 -13.0 Q-7.8 -12.75 -7.55 -11.95 -7.45 -11.65 -7.45 -10.95 -7.45 -10.0 -7.75 -9.15 -8.25 -7.75 -9.35 -8.0 -10.0 -7.5 -10.0 -6.55 -10.0 -6.2 -9.5 -5.75 L-8.45 -5.0 Q-6.85 -3.85 -6.85 -2.7 -6.85 -2.25 -7.05 -1.85 -7.25 -1.25 -7.7 -0.95 L-8.45 -0.75 -9.3 -0.65 Q-11.0 -0.65 -11.85 -1.25 L-11.9 -1.3 -12.0 -1.3 Q-12.85 -1.3 -14.05 -2.75 L-14.9 -3.8 Q-15.2 -4.0 -15.6 -4.35 L-15.9 -4.65 -16.15 -4.7 Q-16.25 -4.75 -16.3 -5.1 -16.45 -5.35 -16.45 -5.45 -16.45 -5.85 -16.15 -6.35 -15.9 -6.95 -15.85 -7.05 -16.35 -7.3 -16.95 -7.75 -17.85 -8.4 -18.15 -8.95 -18.5 -8.9 -18.8 -8.7 L-19.15 -8.45 -19.55 -8.5 Q-19.45 -9.0 -18.85 -9.7 -18.3 -10.3 -18.3 -10.85 -18.3 -11.1 -18.5 -11.35 L-18.95 -11.8 Q-19.65 -12.45 -19.65 -13.2 -19.65 -13.55 -20.05 -14.35 -20.55 -15.25 -20.65 -15.55 -20.75 -15.55 -20.95 -15.35 L-21.3 -14.95 Q-23.5 -15.3 -24.75 -16.55 -25.9 -17.7 -25.7 -19.05 L-26.55 -19.15 Q-27.2 -19.15 -27.45 -18.95 L-27.7 -18.8 Q-27.95 -18.75 -27.95 -19.2 -27.95 -19.35 -27.25 -19.9 -26.55 -20.5 -26.45 -20.8 L-26.05 -21.45 Q-25.7 -22.05 -25.55 -22.5 -25.6 -22.65 -25.6 -22.8 L-25.65 -22.85 -26.45 -23.45 Q-27.3 -23.55 -27.85 -23.45 L-28.85 -23.3 Q-29.2 -23.3 -29.7 -23.75 -30.2 -24.2 -30.5 -24.2 -30.9 -24.2 -31.0 -23.85 -31.1 -23.45 -31.15 -23.45 L-32.0 -23.45 Q-33.05 -24.0 -33.55 -24.55 -34.15 -25.25 -34.15 -26.05 -34.15 -26.5 -33.9 -27.1 L-33.55 -28.0 Q-33.35 -28.7 -33.3 -29.1 -33.3 -29.4 -33.3 -29.95 -33.3 -30.3 -31.7 -31.85 L-30.45 -31.85 -29.15 -31.95 -27.65 -31.85 Q-27.15 -31.4 -26.6 -30.75 L-25.8 -29.7 -24.5 -29.55 -24.25 -28.95 Q-24.05 -28.5 -24.05 -28.05 -24.05 -27.5 -24.95 -26.95 -25.85 -26.35 -25.85 -25.9 -25.85 -24.95 -25.65 -24.55 -25.5 -24.2 -25.05 -23.9 L-23.95 -23.25 Q-23.15 -22.65 -22.35 -21.7 -19.65 -22.4 -18.75 -22.9 -17.7 -23.5 -17.7 -24.55 -17.7 -25.1 -17.1 -25.6 -16.55 -26.0 -15.3 -26.55 L-14.15 -26.3 Q-13.5 -25.95 -13.2 -25.25 -12.95 -24.55 -13.05 -23.95 L-12.15 -23.7 Q-11.8 -23.2 -11.55 -22.8 -11.35 -22.4 -11.35 -22.2 -11.35 -22.05 -11.6 -21.75 -11.85 -21.35 -12.7 -20.5 -12.7 -20.3 -12.3 -19.75 -11.9 -19.1 -11.65 -19.0 -9.7 -19.0 -8.6 -20.05 -8.25 -20.4 -8.15 -20.4 -7.95 -20.4 -7.65 -19.85 L-6.95 -19.95 -6.7 -20.35 -6.8 -20.35 -6.65 -20.45 -6.55 -20.7 -6.5 -20.85 -6.7 -20.8 -6.8 -20.95 -6.8 -21.55 Q-6.8 -22.4 -6.45 -22.75 -6.2 -23.05 -5.6 -23.1 L-4.5 -23.15 -4.05 -23.25 -3.2 -24.55 Q-2.8 -25.35 -2.8 -26.15 -2.8 -26.5 -2.9 -26.6 L-3.15 -26.75 Q-3.65 -26.95 -4.0 -28.0 -4.25 -27.9 -4.45 -27.65 L-4.7 -27.2 -6.2 -27.2 Q-7.35 -28.3 -7.35 -28.7 -7.35 -28.9 -6.95 -29.8 -6.5 -30.65 -6.5 -30.95 -6.5 -31.2 -6.65 -31.4 L-7.0 -31.75 Q-7.45 -32.35 -7.35 -33.65 -8.2 -33.9 -9.0 -33.8 L-9.05 -33.75 Q-9.15 -33.75 -9.15 -34.2 L-9.3 -34.2 -9.15 -34.35 Q-9.1 -34.85 -8.6 -34.8 -8.1 -35.15 -8.0 -35.3 L-6.2 -35.2 Q-6.15 -35.0 -6.15 -34.55 -6.05 -34.55 -5.95 -34.65 L-5.45 -34.7 -4.4 -34.7 -3.95 -34.65 -3.7 -34.4 Q-3.4 -34.1 -2.8 -33.8 L-2.7 -33.35 Q-2.7 -33.25 -2.95 -33.0 -3.25 -32.75 -3.3 -32.65 L-3.3 -32.5 Q-2.75 -32.55 -2.25 -32.85 -2.0 -33.05 -1.65 -33.35 -0.7 -34.0 -0.55 -33.8 -0.4 -33.55 0.55 -34.2 1.05 -33.55 1.45 -32.75 1.95 -31.8 1.95 -31.25 L1.95 -31.2 2.05 -31.2 Q2.1 -31.1 2.05 -30.8 1.95 -30.45 1.95 -30.35 1.85 -30.3 1.9 -30.25 1.95 -30.15 2.4 -30.15 2.5 -30.15 4.3 -31.45 5.45 -31.8 6.8 -30.15 7.3 -29.55 7.65 -28.85 8.0 -28.2 8.0 -27.9 8.0 -27.5 7.55 -27.05 L6.8 -26.5 Q6.75 -26.4 6.8 -26.15 6.85 -25.8 6.85 -25.45 L6.85 -24.05 Q6.8 -23.55 6.6 -23.25 6.45 -23.0 5.95 -22.65 L4.65 -21.85 Q4.8 -21.75 4.9 -21.6 L5.15 -21.3 Q5.5 -20.95 7.0 -20.5 L7.8 -20.55 7.7 -20.85 Q7.55 -21.1 7.55 -21.55 7.55 -22.0 7.75 -22.1 L7.95 -22.2 8.35 -22.8 Q8.85 -23.45 9.45 -23.55 L10.0 -23.15 Q10.25 -22.85 10.15 -22.5 L10.55 -22.45 11.45 -22.35 Q12.0 -22.35 16.35 -24.35 17.05 -24.75 17.0 -25.85 17.0 -26.4 16.85 -27.2 16.85 -28.1 18.0 -29.1 L18.8 -29.8 Q19.15 -30.25 19.15 -30.65 19.15 -31.1 18.9 -31.4 L18.85 -31.45 Q18.75 -31.55 18.65 -31.7 L18.45 -31.95 18.5 -32.05 18.45 -32.55 Q18.35 -33.0 17.55 -33.05 L17.35 -32.75 17.2 -32.5 Q17.05 -32.35 16.15 -32.35 L14.45 -32.45 13.6 -32.85 Q13.05 -33.1 12.45 -33.3 L12.35 -33.95 Q12.3 -34.3 12.15 -34.55 12.25 -34.65 12.45 -34.65 L12.8 -34.55 13.05 -35.6 Q13.25 -36.25 13.3 -36.65 12.05 -37.2 11.65 -37.2 11.2 -37.05 10.55 -37.05 10.1 -37.05 9.55 -37.25 L8.45 -37.65 Q8.1 -38.1 7.2 -39.05 6.7 -39.6 6.7 -40.15 6.7 -41.25 8.1 -41.5 8.85 -41.6 9.7 -41.5 9.75 -42.05 10.1 -42.6 10.45 -43.2 10.95 -43.5 12.2 -44.25 13.05 -42.55 L13.45 -42.5 13.35 -42.2 Q13.3 -41.95 13.3 -41.55 13.3 -41.05 13.45 -40.75 13.55 -40.55 13.8 -40.35 14.8 -40.25 15.05 -40.0 L15.95 -40.05 Q16.0 -40.25 15.95 -40.7 15.95 -41.15 16.0 -41.35 16.15 -42.15 17.5 -42.15 17.75 -42.15 18.1 -41.55 18.45 -40.95 18.45 -40.5 L19.2 -40.35 Q19.25 -40.2 19.55 -39.6 19.85 -39.05 19.85 -38.65 19.85 -37.95 19.3 -37.5 18.2 -36.55 17.95 -36.2 18.15 -35.95 18.6 -35.5 19.2 -34.95 19.45 -34.85 20.75 -35.0 21.45 -35.35 L21.8 -35.2 21.75 -35.15 21.8 -35.15 Q22.3 -35.15 22.35 -34.9 L22.35 -34.5 Q22.65 -34.6 23.15 -35.25 23.9 -35.85 25.3 -36.2 L25.55 -36.7 Q25.7 -36.95 25.7 -37.4 25.7 -37.75 25.45 -38.1 25.15 -38.45 25.15 -38.8 25.15 -39.35 25.2 -39.55 25.45 -40.15 26.3 -40.3 26.8 -40.25 27.1 -40.1 27.4 -39.95 27.7 -39.95 28.0 -39.95 29.25 -40.45 30.8 -41.05 31.15 -41.55 L31.15 -43.05 Q30.9 -43.25 30.4 -43.3 29.9 -43.35 29.3 -43.85 29.1 -44.0 28.65 -44.6 L27.95 -45.55 Q26.9 -45.8 26.45 -45.95 25.9 -46.15 25.8 -46.3 L24.4 -45.9 Q23.7 -45.7 23.15 -45.7 L22.45 -45.85 22.2 -46.2 Q22.05 -46.5 22.05 -46.95 L22.1 -47.45 22.15 -47.55 22.95 -47.8 23.45 -48.05 23.1 -48.3 Q22.85 -48.5 22.85 -48.95 22.85 -50.3 24.05 -50.8 24.35 -50.9 25.15 -51.1 25.9 -51.25 26.3 -51.45 27.35 -51.45 28.05 -50.85 28.3 -50.6 28.4 -50.4 28.45 -50.15 28.3 -50.0 28.0 -49.8 28.05 -49.7 28.05 -49.65 28.35 -49.6 29.05 -49.4 29.15 -49.15 29.15 -49.1 29.0 -49.0 28.85 -48.9 28.85 -48.5 28.85 -48.25 29.3 -48.05 29.8 -47.85 29.95 -47.5 L32.1 -47.45 33.0 -47.45 Q33.45 -47.45 34.2 -48.0 34.6 -48.3 35.0 -48.7 36.1 -49.8 35.9 -50.05 35.9 -50.15 35.65 -50.2 35.5 -50.25 35.5 -50.35 35.5 -50.7 35.8 -50.95 36.05 -51.2 36.05 -51.55 36.05 -51.85 35.65 -52.15 L34.65 -52.6 Q33.2 -53.25 33.2 -53.8 33.2 -54.35 33.85 -55.0 34.45 -55.65 34.85 -55.65 35.2 -55.65 35.85 -55.3 36.5 -54.95 36.85 -54.95 L37.85 -55.05 39.05 -55.3 39.5 -56.3 40.45 -56.1 Q41.35 -55.9 42.15 -55.95 L42.55 -54.55 M25.7 -29.15 L24.95 -28.75 Q24.2 -28.3 24.2 -27.45 24.2 -26.95 24.5 -26.5 25.1 -25.65 26.7 -25.65 27.6 -25.65 27.95 -25.85 28.25 -26.0 28.4 -26.5 28.7 -27.35 28.85 -27.6 29.25 -28.4 30.05 -29.2 L29.85 -29.25 29.85 -29.85 Q29.85 -30.35 29.55 -30.75 29.25 -31.1 28.85 -31.2 28.45 -31.35 28.15 -31.1 27.85 -30.8 27.85 -30.15 27.85 -29.85 27.9 -29.65 L26.55 -29.8 Q26.2 -29.45 25.7 -29.15 M30.15 -9.3 L30.9 -9.5 Q31.6 -9.7 32.3 -10.0 L33.0 -9.95 33.2 -9.5 Q32.95 -9.0 32.7 -8.8 32.35 -8.5 31.7 -8.5 31.25 -8.5 31.15 -7.8 31.0 -7.15 30.55 -7.15 L29.95 -7.2 29.85 -7.2 Q29.75 -7.35 29.75 -7.5 29.7 -7.65 29.7 -8.2 29.7 -8.8 29.8 -9.0 29.85 -9.25 30.15 -9.3 M54.5 -16.2 L54.4 -16.45 Q54.55 -17.0 54.8 -17.5 55.2 -16.8 55.2 -16.1 L55.15 -15.65 54.55 -15.7 54.4 -15.85 Q54.5 -16.1 54.5 -16.2 M-9.65 -44.8 L-9.0 -44.85 -8.6 -45.35 -8.0 -45.95 Q-5.6 -46.1 -4.85 -44.8 -4.7 -44.55 -4.45 -43.8 -4.3 -43.3 -4.05 -43.15 -3.4 -43.05 -3.0 -42.85 -2.65 -42.65 -2.65 -42.55 L-0.7 -42.5 Q-0.6 -42.35 -0.6 -42.25 L-0.55 -41.65 Q-0.55 -41.15 -0.7 -40.75 -0.85 -40.5 -1.15 -40.0 -2.1 -40.05 -3.0 -40.0 -3.9 -39.95 -4.0 -39.85 L-4.35 -39.95 Q-4.7 -40.1 -4.7 -40.35 L-4.8 -40.4 -5.0 -40.55 -6.35 -40.55 -7.2 -40.1 Q-7.75 -39.85 -8.0 -39.55 -8.2 -39.35 -8.85 -39.0 -9.05 -38.9 -8.9 -38.75 -8.75 -38.55 -8.7 -38.45 -8.75 -38.3 -9.05 -38.0 L-9.45 -37.55 Q-10.8 -38.25 -11.15 -37.4 -11.3 -37.15 -11.3 -36.7 L-11.3 -35.7 Q-11.3 -35.5 -11.2 -35.4 -10.75 -35.05 -9.95 -34.35 -10.1 -33.75 -11.45 -32.45 L-13.65 -32.05 Q-13.75 -31.8 -13.95 -31.65 -14.25 -31.35 -14.7 -31.35 -15.35 -31.35 -16.8 -32.3 L-17.15 -32.55 Q-17.7 -32.85 -18.0 -33.2 -18.7 -33.85 -18.7 -35.0 -18.7 -35.55 -18.4 -36.4 -18.05 -37.35 -17.55 -37.8 L-16.9 -38.05 Q-16.6 -38.2 -16.2 -38.3 L-16.15 -38.5 -16.15 -40.65 -17.0 -40.8 Q-17.0 -41.05 -16.5 -41.75 -16.35 -42.15 -15.75 -42.85 -15.4 -43.4 -15.3 -43.8 L-14.3 -44.15 Q-13.6 -44.65 -13.05 -44.65 L-13.1 -44.6 -12.85 -44.7 -10.85 -44.8 -9.65 -44.8 M-34.7 -16.2 Q-34.75 -16.15 -34.7 -16.05 -34.6 -15.95 -34.15 -15.95 -33.4 -15.95 -32.75 -16.5 L-32.0 -17.3 -30.3 -17.35 -29.65 -17.2 -29.6 -17.05 -29.55 -17.05 -29.15 -16.7 Q-28.95 -16.45 -28.95 -16.0 -28.95 -15.45 -30.1 -14.25 -31.3 -13.0 -32.0 -13.2 L-32.7 -13.15 Q-32.85 -12.7 -33.7 -11.85 L-34.0 -11.9 -34.15 -11.8 -34.85 -11.7 Q-35.25 -11.75 -35.7 -12.1 -36.15 -12.4 -36.35 -12.8 -37.35 -13.5 -37.35 -14.2 -37.35 -14.55 -37.05 -14.8 -36.8 -15.1 -36.8 -15.45 -36.8 -16.2 -37.05 -16.65 -37.25 -16.9 -37.7 -17.2 -38.15 -17.5 -38.3 -17.7 -38.55 -18.1 -38.55 -18.8 -38.55 -19.8 -37.85 -19.95 L-37.8 -19.85 -37.55 -20.3 Q-36.8 -21.35 -35.95 -21.0 -35.0 -20.7 -34.8 -20.25 -34.7 -19.95 -34.9 -19.45 -35.05 -19.0 -34.95 -18.85 -34.75 -18.55 -33.8 -18.5 -33.75 -17.4 -34.7 -16.55 L-34.7 -16.2 M-27.3 -7.65 Q-26.85 -7.65 -26.85 -7.7 L-26.15 -7.65 Q-26.05 -7.25 -26.1 -6.7 L-26.2 -5.7 -26.2 -5.5 -25.0 -5.35 -24.5 -4.85 Q-24.3 -4.6 -24.3 -4.2 -24.3 -3.75 -24.6 -3.5 L-24.95 -3.2 -23.45 -3.05 -23.55 -2.85 Q-23.7 -2.7 -23.7 -2.3 -23.7 -1.95 -23.45 -2.15 -23.15 -2.35 -23.15 -2.0 -23.15 -1.65 -23.35 -1.3 -23.65 -0.75 -24.3 -0.55 -25.05 -0.65 -25.55 -0.8 L-26.45 -1.0 Q-27.0 -1.55 -27.25 -2.7 -27.45 -3.7 -27.35 -4.45 -27.45 -4.5 -27.5 -4.45 -27.6 -4.35 -28.0 -4.35 -28.3 -4.35 -28.55 -4.85 -28.8 -5.3 -28.8 -5.5 -28.8 -6.1 -28.6 -6.45 -28.4 -6.9 -27.7 -7.65 L-27.3 -7.65 M-6.75 -18.95 L-6.7 -18.95 Q-7.35 -18.5 -7.75 -17.9 -8.2 -17.2 -8.0 -16.7 -8.05 -16.65 -8.0 -16.6 -7.9 -16.5 -7.45 -16.5 -7.4 -16.5 -6.95 -16.85 L-6.45 -17.35 -4.85 -17.55 Q-3.9 -18.2 -3.6 -19.2 -3.45 -19.75 -3.35 -20.55 -3.85 -20.65 -4.1 -20.9 -4.2 -21.0 -4.2 -21.15 -4.55 -21.1 -5.55 -20.75 L-5.65 -20.7 Q-5.8 -19.85 -6.45 -19.15 L-6.75 -18.95" fill="#999999" fill-opacity="0.4" fill-rule="evenodd" stroke="none"/>
    </g>
  </defs>
</svg>
