<?xml version="1.0" encoding="UTF-8" standalone="no"?>
<svg xmlns:ffdec="https://www.free-decompiler.com/flash" xmlns:xlink="http://www.w3.org/1999/xlink" ffdec:objectType="frame" height="89.6px" width="258.65px" xmlns="http://www.w3.org/2000/svg">
  <g transform="matrix(1.0, 0.0, 0.0, 1.0, 129.15, 89.6)">
    <use ffdec:characterId="678" height="12.8" transform="matrix(7.0, 0.0, 0.0, 7.0, -129.15, -89.6)" width="36.95" xlink:href="#shape0"/>
  </g>
  <defs>
    <g id="shape0" transform="matrix(1.0, 0.0, 0.0, 1.0, 18.45, 12.8)">
      <path d="M16.9 -6.35 Q12.8 -1.95 5.5 -0.6 -2.45 0.9 -12.85 -1.45 -14.9 -1.9 -16.5 -3.75 -17.9 -5.4 -18.3 -7.4 -18.75 -9.4 -17.9 -10.45 -17.0 -11.65 -14.8 -11.05 -5.05 -8.35 3.75 -8.95 11.8 -9.5 18.4 -12.8 18.85 -9.15 16.9 -6.35" fill="url(#gradient0)" fill-rule="evenodd" stroke="none"/>
    </g>
    <linearGradient gradientTransform="matrix(0.0226, 0.0, 0.0, 0.0078, 0.0, -6.4)" gradientUnits="userSpaceOnUse" id="gradient0" spreadMethod="pad" x1="-819.2" x2="819.2">
      <stop offset="0.0" stop-color="#ffffff" stop-opacity="0.0"/>
      <stop offset="1.0" stop-color="#ffffff"/>
    </linearGradient>
  </defs>
</svg>
