<?xml version="1.0" encoding="UTF-8" standalone="no"?>
<svg xmlns:ffdec="https://www.free-decompiler.com/flash" xmlns:xlink="http://www.w3.org/1999/xlink" ffdec:objectType="frame" height="121.6px" width="315.55px" xmlns="http://www.w3.org/2000/svg">
  <g transform="matrix(1.0, 0.0, 0.0, 1.0, 162.5, 63.4)">
    <use ffdec:characterId="1603" height="386.85" transform="matrix(0.3353, -0.0869, 0.0873, 0.2076, -161.2459, -29.8339)" width="257.85" xlink:href="#shape0"/>
    <use ffdec:characterId="1609" height="376.6" transform="matrix(-0.3459, 0.0, -0.0566, 0.2225, 151.4625, -43.8854)" width="253.55" xlink:href="#shape1"/>
    <use ffdec:characterId="1604" height="365.45" transform="matrix(0.3755, -0.0903, 0.0578, 0.2403, -12.3509, -32.8891)" width="230.75" xlink:href="#shape2"/>
    <use ffdec:characterId="1605" height="354.5" transform="matrix(-0.387, 0.0, 0.0, 0.2491, -8.2253, -44.1556)" width="197.55" xlink:href="#shape3"/>
    <use ffdec:characterId="1610" height="292.3" transform="matrix(0.4545, 0.0, 0.0, 0.2925, -49.6329, -39.9064)" width="187.15" xlink:href="#shape4"/>
    <use ffdec:characterId="1607" height="277.8" transform="matrix(0.4545, 0.0, 0.0, 0.2925, -42.1797, -36.9963)" width="160.1" xlink:href="#shape5"/>
    <use ffdec:characterId="1611" height="289.25" transform="matrix(0.4545, 0.0, 0.0, 0.2925, -45.9518, -37.8298)" width="172.55" xlink:href="#shape6"/>
  </g>
  <defs>
    <g id="shape0" transform="matrix(1.0, 0.0, 0.0, 1.0, 132.4, 364.75)">
      <path d="M110.15 -303.45 Q102.05 -298.85 81.7 -293.95 76.45 -295.4 75.1 -298.0 74.55 -299.0 74.55 -302.4 74.55 -309.2 81.45 -315.5 87.7 -321.25 96.65 -324.1 105.7 -327.0 111.85 -325.15 118.75 -323.1 118.75 -315.7 118.75 -308.3 110.15 -303.45 M17.0 -363.85 Q21.9 -361.65 21.9 -354.9 21.9 -349.55 18.05 -345.6 12.9 -340.4 2.6 -340.4 L-3.9 -340.75 Q-8.05 -341.15 -9.1 -343.75 -9.4 -344.55 -9.4 -347.75 -9.4 -352.65 -4.5 -357.35 0.05 -361.7 6.25 -363.7 12.75 -365.75 17.0 -363.85 M29.7 -343.85 Q42.15 -343.6 46.4 -340.3 49.2 -338.15 49.2 -333.25 49.2 -329.8 46.75 -327.4 43.4 -324.1 34.9 -321.9 25.85 -325.3 22.7 -328.5 20.6 -330.65 20.6 -333.75 20.6 -337.1 22.15 -339.75 24.55 -343.85 29.7 -343.85 M42.35 -252.65 Q41.35 -253.9 40.5 -256.6 L40.45 -256.75 40.75 -252.85 Q40.75 -250.75 39.45 -249.25 41.45 -250.6 43.45 -251.6 L42.35 -252.65 M51.15 -262.4 Q53.8 -259.5 61.4 -260.55 70.3 -261.8 72.95 -260.8 76.0 -259.75 78.1 -257.3 L81.05 -253.0 Q83.65 -248.6 83.65 -237.55 83.65 -230.45 82.05 -223.9 81.75 -222.7 78.05 -217.65 74.55 -212.85 74.55 -211.25 L76.55 -206.4 76.6 -207.65 Q76.9 -210.2 78.15 -211.9 79.65 -214.05 85.6 -220.65 L87.5 -222.15 91.8 -225.2 94.7 -225.55 103.15 -225.85 Q117.05 -225.85 122.6 -214.5 125.45 -208.6 125.45 -201.8 125.45 -195.7 124.2 -193.0 121.9 -188.05 114.2 -184.6 104.35 -185.5 95.55 -191.05 89.85 -194.6 89.75 -194.7 86.8 -196.3 84.3 -196.3 82.95 -196.3 77.75 -193.3 76.45 -190.05 73.6 -185.75 68.4 -177.85 68.4 -176.15 68.4 -174.5 69.85 -164.9 L71.3 -153.7 Q71.3 -143.9 68.05 -135.25 64.8 -126.6 64.8 -124.45 64.8 -119.9 67.45 -114.85 L73.25 -105.25 Q81.7 -91.15 81.7 -73.9 81.7 -65.3 79.85 -54.25 78.0 -43.2 75.2 -34.9 69.2 -17.1 61.2 -9.4 50.35 0.9 32.3 -1.95 27.65 5.7 22.85 11.3 13.65 22.1 3.9 22.1 -8.8 22.1 -28.7 7.85 -44.45 -3.5 -52.15 -13.15 L-63.2 -27.1 -64.8 -27.1 Q-85.0 -27.1 -91.8 -44.65 -95.25 -53.5 -94.7 -63.2 -94.7 -74.85 -90.05 -83.6 -87.9 -87.55 -79.75 -97.65 -72.6 -106.45 -69.45 -114.3 -64.8 -125.95 -64.8 -142.5 -64.8 -150.25 -66.45 -154.75 -70.45 -165.4 -82.55 -165.4 -90.9 -165.4 -95.55 -162.3 -98.5 -160.35 -101.65 -155.35 -105.0 -150.0 -107.4 -148.05 -111.75 -144.55 -119.4 -143.95 L-122.2 -144.6 Q-128.7 -151.1 -130.95 -159.35 -132.4 -164.65 -132.4 -173.35 -132.4 -175.3 -131.5 -179.75 -130.25 -186.1 -128.0 -191.4 -121.05 -207.65 -107.7 -207.65 -99.75 -207.65 -89.65 -204.4 -81.3 -201.75 -79.75 -200.2 L-78.45 -200.5 Q-80.95 -202.4 -81.55 -206.85 L-81.7 -213.65 Q-81.7 -219.55 -80.85 -222.85 -79.95 -226.4 -77.45 -229.55 -75.0 -232.6 -57.35 -247.15 -54.55 -249.5 -35.65 -253.35 -16.3 -257.35 -11.85 -260.45 -9.1 -262.35 -7.7 -266.75 L-8.05 -267.8 Q-8.45 -269.2 -8.45 -272.8 -8.65 -274.0 -9.75 -275.6 L-10.45 -274.6 Q-13.05 -271.0 -16.85 -267.6 -27.1 -258.5 -37.5 -258.5 -43.75 -258.5 -46.3 -262.1 -47.55 -263.95 -47.6 -266.0 -47.6 -275.75 -41.45 -282.0 -36.1 -287.35 -27.85 -288.8 L-21.8 -289.25 -24.2 -291.5 Q-26.15 -293.75 -26.15 -299.15 -26.15 -310.25 -13.05 -309.7 -8.05 -309.55 -3.25 -307.55 1.4 -305.65 2.75 -303.35 8.0 -299.3 11.65 -292.65 14.7 -287.15 15.05 -283.0 16.35 -282.6 16.95 -280.9 23.2 -277.15 30.7 -277.05 36.3 -276.75 43.05 -270.85 45.8 -268.45 51.15 -262.4 M16.25 -271.35 L15.6 -271.8 15.25 -271.3 16.25 -271.35 M4.05 -254.3 Q4.4 -253.65 7.1 -250.9 L10.55 -247.15 Q15.75 -257.5 15.4 -258.85 11.1 -259.05 8.55 -257.25 L4.05 -254.3 M1.55 -212.9 Q1.5 -214.5 0.8 -215.35 0.05 -216.35 -9.1 -221.65 -8.8 -220.0 -8.95 -216.55 -9.15 -213.05 -8.85 -211.35 -7.9 -205.25 0.0 -202.15 1.0 -203.5 1.25 -204.8 1.45 -205.75 1.45 -208.45 L1.55 -212.9 M110.95 -206.7 Q110.3 -207.65 107.05 -207.65 L109.2 -206.35 110.1 -206.3 Q110.95 -206.3 110.95 -206.7 M1.25 -184.95 L2.1 -184.9 Q3.5 -184.9 4.8 -186.05 L1.25 -184.95 M-105.75 -266.55 Q-107.55 -269.95 -107.05 -273.65 -107.05 -278.1 -103.45 -280.95 -99.05 -284.5 -90.15 -284.5 -75.6 -284.5 -70.95 -279.3 -69.05 -277.15 -69.05 -273.0 -69.05 -267.65 -75.55 -263.7 -82.0 -259.8 -90.8 -259.8 -102.2 -259.8 -105.75 -266.55 M-68.65 -213.65 Q-66.95 -217.55 -64.25 -222.55 L-62.75 -225.3 Q-64.95 -222.55 -66.5 -219.65 -68.5 -216.0 -68.65 -213.65 M-10.85 -243.05 Q-12.65 -244.15 -13.25 -246.0 L-16.85 -244.45 Q-15.1 -242.75 -13.8 -240.4 L-11.2 -242.8 -10.85 -243.05 M-33.2 -170.25 L-33.3 -170.3 -33.3 -170.25 -33.2 -170.25" fill="#ff0000" fill-opacity="0.11764706" fill-rule="evenodd" stroke="none"/>
      <path d="M98.7 -317.2 L106.4 -316.95 Q106.7 -316.7 108.3 -316.1 L110.25 -315.1 110.5 -314.3 108.9 -313.0 Q96.05 -312.05 92.0 -308.8 L89.3 -306.05 Q87.65 -304.4 85.3 -303.55 L84.5 -302.95 Q83.7 -302.7 83.7 -304.35 83.7 -305.25 90.35 -311.0 97.05 -316.7 98.7 -317.2 M13.25 -352.1 Q11.65 -352.2 5.7 -349.75 -0.35 -347.25 -1.7 -347.25 L-2.05 -346.85 Q-2.45 -346.8 -2.45 -348.45 -2.45 -353.05 3.0 -354.9 8.45 -356.8 13.25 -353.7 L13.25 -352.1 M37.6 -333.8 Q37.1 -333.35 35.3 -333.35 L33.2 -333.6 Q32.95 -333.75 33.05 -333.9 L32.75 -335.05 32.25 -336.25 Q34.15 -337.4 34.75 -337.45 36.5 -337.65 38.15 -335.2 37.95 -334.05 37.6 -333.8 M7.6 -283.35 Q7.6 -278.9 6.8 -274.55 L6.55 -274.1 4.95 -274.05 Q3.55 -274.05 1.45 -276.5 L-2.95 -282.15 Q-9.95 -291.15 -17.15 -293.85 L-17.55 -293.6 Q-17.95 -293.65 -17.95 -295.3 -17.95 -296.25 -17.25 -296.95 -16.4 -297.8 -14.3 -298.7 -3.95 -297.2 2.5 -291.55 7.6 -287.05 7.6 -283.35 M35.8 -238.7 L46.5 -242.8 Q50.5 -244.3 53.6 -244.85 L50.0 -245.15 Q43.4 -245.15 35.5 -240.1 L31.95 -237.4 35.8 -238.7 M26.6 -237.3 L31.2 -240.45 Q35.5 -243.4 39.1 -245.15 50.65 -250.65 58.0 -245.4 L58.3 -245.2 Q60.55 -245.0 61.95 -243.95 63.7 -242.8 65.75 -235.85 67.55 -229.6 67.55 -227.15 67.55 -224.1 60.6 -203.15 57.45 -193.75 56.05 -187.5 L55.35 -182.2 Q54.65 -173.95 56.0 -164.15 56.9 -158.25 55.05 -146.5 52.85 -132.85 52.85 -128.35 52.85 -122.25 59.15 -98.9 65.45 -75.55 65.45 -65.45 65.45 -49.15 61.0 -36.2 53.15 -13.25 33.85 -13.25 29.45 -13.25 24.15 -9.9 21.75 -8.4 14.5 -2.55 8.15 2.5 3.85 4.75 -2.5 8.1 -8.75 8.1 -16.9 8.1 -29.2 -2.65 -35.55 -8.2 -42.1 -15.6 -42.6 -16.1 -49.6 -20.95 -55.3 -24.85 -56.55 -27.65 -56.9 -28.5 -57.75 -34.5 -58.35 -38.8 -61.15 -40.8 L-65.25 -41.35 -65.95 -41.5 Q-66.3 -41.25 -66.8 -41.05 -76.1 -44.45 -80.1 -48.6 -84.0 -52.6 -84.0 -58.5 -84.0 -67.25 -75.8 -79.6 -71.5 -86.05 -58.5 -101.7 -55.0 -105.95 -53.4 -111.85 -54.2 -115.2 -54.2 -118.65 L-53.5 -124.95 Q-52.85 -130.25 -52.85 -132.8 -52.0 -134.05 -50.5 -136.95 -49.4 -141.15 -45.9 -146.45 L-45.2 -146.0 Q-44.85 -145.8 -44.85 -144.2 -44.85 -142.95 -46.05 -135.0 L-46.4 -129.25 -46.7 -119.4 -46.45 -118.95 Q-46.4 -118.5 -44.85 -118.5 -40.6 -118.5 -35.75 -124.45 L-29.6 -132.3 Q-21.0 -145.65 -21.0 -155.9 -21.0 -161.4 -25.1 -169.9 -29.25 -178.45 -29.25 -180.95 L-28.55 -188.0 Q-27.8 -193.3 -26.9 -197.1 L-27.3 -197.5 Q-27.35 -197.9 -25.7 -197.9 -25.4 -197.9 -21.25 -193.1 -16.65 -187.8 -14.3 -186.1 -13.7 -185.7 -5.25 -181.5 3.25 -177.3 3.5 -177.3 12.35 -177.3 16.1 -194.75 18.05 -203.55 18.2 -213.4 18.2 -216.45 16.65 -222.75 15.05 -229.05 15.05 -229.95 L15.1 -234.15 15.6 -236.35 Q15.35 -238.05 15.6 -240.55 L15.55 -240.95 Q15.7 -241.35 17.3 -241.35 18.55 -241.35 18.9 -240.25 L19.45 -238.9 21.25 -237.0 26.6 -237.3 M78.6 -200.0 Q80.1 -200.7 82.55 -203.65 85.4 -207.1 87.5 -208.7 95.6 -214.75 112.45 -212.1 113.0 -211.65 115.05 -207.25 117.2 -202.8 117.2 -201.95 L116.55 -197.9 Q115.85 -195.15 115.85 -193.55 115.5 -193.55 114.9 -193.15 114.15 -192.65 113.5 -192.5 112.15 -193.9 110.9 -196.65 109.75 -199.1 107.85 -200.65 107.25 -200.75 103.95 -202.95 100.75 -205.1 99.75 -205.1 88.15 -204.0 85.45 -201.85 84.75 -201.3 84.15 -200.05 83.6 -198.95 82.65 -198.45 L80.05 -198.9 Q79.35 -199.25 78.6 -200.0 M-91.45 -276.15 L-84.75 -275.85 Q-84.0 -275.35 -81.75 -274.8 -81.15 -273.95 -80.75 -272.45 L-79.9 -270.2 Q-79.6 -269.95 -79.65 -269.75 -79.7 -269.3 -81.35 -269.3 -82.6 -269.3 -84.4 -270.25 -86.25 -271.25 -88.2 -271.4 -89.95 -271.5 -91.1 -270.75 -92.35 -269.95 -93.55 -269.95 L-95.5 -270.15 -96.05 -270.9 -93.8 -273.6 -91.45 -276.15 M-33.2 -272.35 Q-36.5 -267.05 -38.05 -265.5 L-39.1 -266.15 Q-39.5 -266.65 -39.5 -268.4 -39.5 -272.0 -37.8 -275.4 -35.3 -280.45 -30.3 -280.45 L-24.65 -280.2 -21.0 -279.95 -16.9 -276.8 Q-17.4 -275.45 -20.45 -274.8 L-23.3 -275.9 Q-25.35 -276.8 -26.9 -276.8 -29.9 -276.8 -33.2 -272.35 M-62.1 -205.4 L-54.95 -204.6 Q-37.8 -194.65 -37.8 -174.15 -37.8 -169.4 -39.95 -161.8 L-43.7 -149.1 -44.7 -149.1 -45.05 -148.9 Q-45.85 -148.45 -46.7 -148.3 L-46.55 -150.2 -46.4 -150.65 -46.45 -152.25 -46.2 -153.5 Q-46.5 -156.9 -49.95 -160.85 -53.4 -164.8 -58.25 -167.6 -60.1 -168.55 -67.25 -170.4 -74.7 -172.3 -76.1 -172.95 L-82.15 -175.7 Q-85.9 -177.05 -90.65 -177.05 -103.55 -177.05 -110.85 -167.65 L-115.05 -161.2 Q-116.9 -158.25 -118.25 -158.25 L-120.0 -158.3 -121.25 -158.8 -121.25 -176.5 -119.95 -179.55 Q-118.3 -182.8 -116.15 -185.5 -109.5 -193.95 -100.25 -193.95 -93.95 -193.95 -88.1 -189.3 L-81.5 -183.2 Q-78.85 -181.2 -73.7 -178.1 -68.2 -174.8 -64.7 -173.25 L-59.55 -173.5 Q-56.75 -175.4 -56.05 -178.1 -55.75 -179.2 -55.75 -182.8 -55.75 -187.25 -58.15 -192.35 -60.7 -197.85 -65.45 -202.75 L-64.7 -203.15 -67.3 -203.3 -67.55 -204.85 -62.1 -205.4 M-45.65 -114.05 L-45.25 -114.3 -45.95 -114.35 -45.65 -114.05" fill="#f28420" fill-rule="evenodd" stroke="none"/>
      <path d="M10.0 -249.35 L11.3 -242.5 11.35 -242.4 Q12.7 -238.6 12.7 -236.75 12.7 -235.8 11.9 -234.35 L11.6 -231.35 Q10.8 -229.4 6.0 -225.45 L4.35 -225.45 Q3.95 -225.5 3.85 -226.3 L3.25 -226.45 Q4.3 -227.95 5.05 -229.85 6.55 -233.6 6.55 -237.55 6.55 -241.1 6.15 -242.1 4.95 -244.75 0.0 -247.25 -3.5 -248.2 -5.55 -246.95 -5.2 -248.35 -4.15 -250.2 -3.65 -251.45 -2.4 -253.2 L-0.5 -255.55 Q2.2 -258.8 5.7 -261.35 12.05 -265.9 18.1 -265.6 L21.8 -264.95 26.1 -264.2 Q27.45 -263.15 29.5 -259.8 L31.2 -257.75 31.2 -256.8 Q32.25 -254.9 32.25 -254.2 L32.0 -251.9 31.2 -250.75 31.2 -250.15 31.15 -250.05 31.2 -249.35 30.95 -248.55 28.4 -251.95 Q26.25 -254.5 25.2 -254.75 L15.85 -254.75 12.85 -252.5 Q10.25 -250.4 10.0 -249.35 M40.0 -229.55 L41.25 -231.15 Q41.75 -232.25 43.4 -233.7 L46.4 -237.15 Q50.55 -241.6 52.35 -242.15 L54.95 -241.85 Q58.2 -240.3 59.35 -238.4 60.1 -237.15 60.1 -235.3 L60.1 -234.85 60.6 -232.1 59.3 -233.0 Q55.65 -235.2 50.9 -235.05 45.8 -234.9 42.5 -232.0 41.15 -230.8 40.3 -229.25 L40.0 -229.55 M8.35 -236.45 L7.8 -233.8 8.4 -235.45 8.35 -236.45 M53.4 -200.1 Q53.15 -199.95 53.15 -201.6 53.15 -203.1 54.7 -204.55 55.95 -205.75 57.75 -206.55 62.65 -208.2 65.2 -206.0 67.05 -204.35 67.05 -201.6 67.05 -197.85 66.25 -194.6 L63.85 -197.45 60.6 -200.65 53.65 -200.55 53.4 -200.1 M22.8 -128.4 Q23.05 -125.95 24.6 -124.3 26.55 -122.15 38.45 -116.0 L38.7 -115.55 Q41.95 -112.8 43.85 -108.7 46.2 -103.6 46.2 -93.7 L45.95 -85.75 Q45.2 -80.8 42.1 -80.15 L38.95 -80.15 Q37.55 -81.0 36.0 -86.45 34.65 -91.05 34.65 -92.25 34.65 -98.45 30.4 -106.05 26.1 -113.65 22.55 -113.75 13.7 -113.05 10.7 -111.6 8.1 -109.75 4.55 -108.65 L-8.75 -109.7 Q-16.2 -109.7 -22.6 -102.7 -24.7 -100.45 -28.2 -94.75 -30.45 -91.25 -34.9 -86.9 -41.15 -80.7 -45.15 -80.7 L-52.1 -80.95 Q-55.2 -84.0 -55.8 -86.35 -56.0 -87.1 -56.0 -91.7 -56.0 -100.25 -49.6 -107.85 -43.0 -115.65 -31.6 -118.05 -29.95 -119.1 -27.45 -120.15 L-22.55 -119.7 Q-16.1 -119.7 -10.05 -123.6 L-7.45 -123.6 Q-3.6 -126.45 -1.3 -133.25 1.35 -141.05 1.95 -141.85 3.15 -140.65 4.7 -137.8 L7.5 -132.8 Q11.3 -126.55 16.4 -125.7 L17.95 -129.2 Q19.75 -132.15 22.8 -131.8 L22.8 -128.4 M13.1 -115.25 L15.35 -116.15 12.8 -115.95 11.25 -115.35 9.45 -114.8 11.65 -114.8 13.1 -115.25 M27.25 -75.65 L24.5 -70.6 21.75 -70.85 Q20.9 -71.95 19.15 -75.6 17.3 -79.7 15.9 -81.75 10.9 -89.35 2.2 -89.35 -2.4 -89.35 -11.8 -80.5 -21.2 -71.65 -23.6 -71.65 L-30.55 -71.9 -32.35 -74.0 Q-33.05 -75.15 -33.05 -76.9 -33.05 -79.5 -30.5 -84.0 -27.7 -88.95 -24.65 -90.4 -23.35 -91.05 -16.5 -92.7 -10.6 -94.15 -8.65 -95.8 L-5.3 -99.1 Q-3.0 -101.25 -1.05 -101.95 17.35 -108.4 25.0 -96.45 29.25 -89.85 29.25 -81.1 29.25 -79.3 27.25 -75.65 M26.9 -50.25 L28.5 -49.5 Q29.5 -48.75 29.5 -47.6 L29.0 -46.65 Q28.9 -45.05 27.8 -43.05 26.3 -40.35 24.0 -39.8 20.75 -36.75 17.3 -36.75 L8.7 -37.95 0.1 -39.2 Q-0.95 -39.2 -6.45 -37.15 -12.0 -35.15 -20.05 -35.15 -24.25 -35.15 -26.35 -37.95 -27.65 -39.7 -27.65 -41.05 L-27.2 -44.15 Q-26.9 -45.55 -27.3 -46.45 -26.2 -46.45 -23.8 -47.8 -21.2 -49.25 -19.0 -49.45 L11.8 -51.3 25.8 -50.55 26.9 -50.25 M20.2 -45.55 L20.55 -46.05 18.6 -45.65 20.2 -45.55 M-58.1 -211.55 Q-58.1 -209.7 -57.4 -207.15 -56.6 -204.15 -55.25 -202.25 -49.25 -204.3 -37.55 -210.6 -29.15 -215.1 -23.6 -215.1 -20.0 -215.1 -18.2 -210.5 L-17.15 -205.65 Q-17.15 -201.85 -18.0 -200.35 L-23.6 -192.8 Q-24.05 -193.9 -23.65 -195.7 -23.1 -198.15 -23.1 -199.1 -23.1 -201.25 -24.3 -202.95 L-28.0 -206.75 -32.1 -206.3 -34.3 -206.15 Q-37.5 -205.25 -41.55 -203.3 -50.55 -198.95 -51.45 -198.95 L-57.2 -199.2 Q-60.2 -200.95 -60.95 -205.3 -61.15 -206.5 -61.15 -211.15 -61.15 -222.15 -54.4 -230.3 -48.55 -237.3 -39.55 -240.35 -31.1 -243.15 -24.7 -241.1 -17.95 -238.9 -17.95 -232.4 L-18.2 -226.1 -18.55 -225.75 Q-19.15 -225.35 -20.3 -225.2 -22.55 -229.0 -30.05 -231.5 -47.05 -231.5 -54.15 -222.3 -58.1 -217.2 -58.1 -211.55 M-35.7 -208.15 L-36.25 -207.85 -35.7 -208.0 -35.7 -208.15 M-26.4 -206.9 L-24.2 -204.3 Q-22.1 -201.55 -22.05 -200.0 L-21.4 -201.15 -25.95 -206.95 -26.4 -206.9 M4.95 -113.4 L-1.4 -112.7 Q3.7 -112.05 4.95 -113.4" fill="#ffcc00" fill-rule="evenodd" stroke="none"/>
      <path d="M108.95 -309.7 L100.9 -310.2 Q100.25 -310.0 93.3 -304.6 86.7 -299.45 84.3 -299.45 81.55 -299.45 80.4 -302.1 79.75 -303.55 79.75 -305.0 79.75 -308.0 83.25 -311.1 L93.4 -318.65 Q100.35 -323.65 107.55 -321.65 114.2 -319.85 114.2 -315.05 114.2 -309.65 108.95 -309.7 M17.95 -356.95 Q19.0 -355.6 19.0 -354.55 19.0 -351.3 17.15 -349.8 14.95 -348.05 7.95 -346.45 5.85 -346.0 1.5 -344.0 -2.25 -342.35 -3.9 -342.35 -6.35 -342.35 -7.15 -344.35 -7.45 -345.15 -7.45 -346.75 3.7 -363.65 12.8 -360.55 16.3 -359.0 17.95 -356.95 M34.25 -326.75 Q30.3 -326.75 28.5 -329.85 27.45 -331.6 27.45 -333.25 27.45 -336.4 29.7 -338.2 31.7 -339.85 34.6 -339.85 37.5 -339.85 39.5 -338.3 41.75 -336.55 41.75 -333.75 41.75 -331.65 39.8 -329.4 37.45 -326.75 34.25 -326.75 M12.5 -280.15 Q12.5 -277.55 10.9 -274.8 8.8 -271.2 5.2 -271.2 -1.85 -271.2 -4.75 -276.55 L-6.4 -280.8 Q-7.2 -283.15 -7.8 -283.85 -12.1 -288.8 -18.75 -291.6 -21.4 -292.7 -22.15 -293.35 -23.4 -294.4 -23.4 -296.4 -23.4 -302.35 -17.8 -303.5 -12.7 -304.55 -5.45 -301.4 1.9 -298.25 6.9 -292.8 12.5 -286.65 12.5 -280.15 M8.55 -257.25 L4.05 -254.3 Q4.4 -253.65 7.1 -250.9 L10.55 -247.15 Q15.75 -257.5 15.4 -258.85 11.1 -259.05 8.55 -257.25 M23.2 -248.2 Q22.55 -247.1 22.55 -245.2 22.55 -243.05 23.9 -241.75 25.05 -240.65 26.45 -240.65 27.95 -240.65 31.05 -242.95 L37.2 -247.65 34.9 -247.15 Q33.3 -247.15 31.1 -248.45 28.95 -249.75 27.3 -249.75 L24.35 -249.65 23.85 -249.6 23.2 -248.2 M36.9 -264.85 Q40.75 -260.25 40.75 -252.85 40.75 -250.7 39.4 -249.2 48.45 -255.25 57.0 -255.25 67.7 -255.25 73.3 -245.85 77.5 -238.8 77.5 -229.9 77.5 -224.6 74.6 -219.3 L68.1 -209.5 70.15 -207.8 Q73.6 -204.25 73.6 -198.9 73.6 -195.4 71.95 -193.55 70.65 -192.1 64.8 -188.5 63.05 -187.4 62.05 -183.75 61.25 -180.85 61.25 -178.25 61.25 -176.6 62.9 -166.05 64.5 -155.45 64.5 -153.85 64.5 -146.8 61.25 -138.1 58.0 -129.35 58.0 -126.55 58.0 -121.25 60.1 -115.25 60.8 -113.15 64.65 -104.2 71.3 -88.75 71.3 -74.55 71.3 -62.45 71.0 -57.95 70.15 -45.2 66.9 -35.8 57.45 -8.35 28.4 -10.2 25.0 -4.35 20.0 0.85 10.15 11.05 -1.3 11.05 -16.9 11.05 -30.9 -0.3 -35.05 -3.65 -39.35 -8.35 L-43.35 -12.5 Q-50.8 -16.65 -56.95 -25.0 -59.0 -27.75 -63.5 -35.55 -78.65 -33.2 -85.15 -46.95 -88.85 -54.8 -88.85 -63.85 -88.85 -70.9 -86.55 -75.55 -84.9 -78.85 -80.5 -83.35 -74.5 -89.45 -72.1 -92.55 -66.75 -99.35 -62.55 -108.55 -60.75 -112.65 -60.35 -119.2 L-60.25 -130.95 Q-60.25 -134.1 -58.15 -141.9 -56.05 -149.7 -56.05 -151.9 -56.05 -157.2 -70.7 -165.05 -78.0 -169.0 -85.45 -171.9 -103.45 -171.9 -107.8 -160.85 -109.3 -155.3 -110.05 -153.25 -111.3 -149.8 -114.2 -149.8 -117.5 -149.8 -119.05 -154.75 -124.3 -157.2 -126.1 -164.1 -127.0 -167.55 -126.95 -171.9 L-126.75 -176.3 Q-126.75 -184.15 -123.35 -190.45 -118.05 -200.2 -106.4 -200.2 -98.3 -200.2 -83.8 -191.5 L-73.15 -184.9 Q-67.6 -181.55 -64.8 -180.7 L-61.55 -181.0 -59.95 -184.9 Q-61.0 -190.35 -66.6 -195.25 -71.65 -199.75 -71.65 -203.9 -71.65 -208.85 -64.25 -222.55 -57.4 -235.25 -55.4 -236.6 -31.45 -253.6 -19.35 -246.35 -15.1 -243.75 -12.85 -238.45 -11.2 -234.45 -11.2 -230.75 -11.2 -226.4 -13.9 -222.4 L-17.55 -216.8 Q-15.0 -215.35 -12.65 -212.2 -8.75 -206.9 -8.75 -202.15 -8.75 -196.25 -6.1 -191.1 -2.95 -184.9 2.1 -184.9 6.2 -184.9 9.55 -195.0 12.15 -202.75 12.15 -205.7 12.15 -211.85 10.85 -215.45 10.15 -217.45 5.1 -219.4 0.2 -221.3 -0.3 -223.25 -1.05 -226.05 -0.55 -232.4 0.0 -238.95 -0.65 -241.8 -13.65 -240.5 -13.65 -248.45 -13.65 -254.35 -6.75 -261.4 1.65 -270.0 14.1 -271.2 30.35 -272.65 36.9 -264.85 M83.0 -198.7 Q78.15 -199.05 78.15 -203.75 78.15 -208.85 85.05 -213.35 91.6 -217.7 100.2 -218.95 109.4 -220.3 115.3 -217.05 122.2 -213.3 122.2 -204.25 122.2 -199.5 121.2 -195.95 119.25 -189.15 114.2 -189.15 112.25 -189.15 105.35 -194.15 98.5 -199.2 94.7 -199.2 L83.0 -198.7 M110.1 -206.3 Q110.95 -206.3 110.95 -206.7 110.3 -207.65 107.05 -207.65 L109.2 -206.35 110.1 -206.3 M-93.4 -265.35 Q-100.55 -265.65 -100.55 -272.35 -100.55 -276.55 -96.6 -278.45 -93.15 -280.1 -87.85 -279.65 -82.9 -279.25 -79.15 -277.25 -75.2 -275.15 -75.2 -272.5 -75.2 -271.4 -76.35 -270.1 L-79.1 -267.6 -86.4 -266.45 Q-90.55 -265.5 -93.4 -265.35 M-22.75 -283.4 Q-19.0 -281.0 -19.0 -276.25 -19.0 -272.9 -25.55 -267.95 -32.0 -263.05 -36.2 -263.05 -41.45 -263.05 -42.75 -266.6 -43.05 -267.5 -43.05 -271.5 -43.05 -277.15 -39.3 -280.9 -35.95 -284.2 -31.0 -284.9 -26.2 -285.55 -22.75 -283.4 M-45.3 -213.2 Q-37.1 -211.45 -32.3 -216.45 -29.05 -219.9 -29.05 -222.45 -29.05 -223.0 -29.95 -223.8 -31.15 -224.9 -33.6 -225.85 -40.2 -224.1 -43.1 -219.5 -44.65 -217.15 -45.3 -213.2 M-27.9 -162.55 Q-32.0 -169.25 -33.3 -170.3 -42.7 -137.15 -42.7 -129.35 -42.7 -125.45 -42.4 -123.5 L-41.75 -122.5 Q-34.4 -124.25 -28.55 -136.15 -23.55 -146.35 -23.55 -153.7 -23.55 -155.5 -27.9 -162.55" fill="#ffcc33" fill-opacity="0.3529412" fill-rule="evenodd" stroke="none"/>
    </g>
    <g id="shape1" transform="matrix(1.0, 0.0, 0.0, 1.0, 132.0, 362.25)">
      <path d="M83.0 -312.45 Q83.0 -314.4 86.45 -318.05 90.0 -321.85 94.05 -324.05 98.75 -326.6 101.65 -325.45 105.1 -324.05 105.1 -317.35 105.1 -313.3 103.35 -311.0 99.85 -306.45 89.5 -305.0 L86.6 -305.65 Q84.95 -307.75 83.9 -309.9 83.0 -311.7 83.0 -312.45 M15.75 -346.95 Q11.45 -342.7 5.0 -342.7 L-1.6 -343.35 Q-5.4 -345.25 -6.25 -347.65 L-6.5 -351.65 Q-6.5 -356.4 -2.45 -359.3 1.1 -361.9 6.4 -362.2 11.6 -362.45 15.25 -360.3 19.3 -357.95 19.3 -353.75 19.3 -350.45 15.75 -346.95 M39.45 -342.65 Q42.7 -340.5 42.7 -336.85 42.7 -331.0 33.6 -328.4 L25.5 -330.35 Q23.85 -332.45 22.8 -334.6 21.9 -336.4 21.9 -337.15 21.9 -340.55 25.15 -342.6 28.1 -344.5 32.3 -344.5 36.55 -344.5 39.45 -342.65 M8.2 -297.3 Q10.2 -294.7 10.2 -293.8 L9.9 -291.6 10.2 -289.4 Q10.2 -288.75 9.5 -288.05 8.65 -287.3 7.1 -286.75 3.35 -282.35 -2.6 -281.6 -14.65 -288.75 -18.7 -292.5 -24.05 -297.55 -24.05 -303.7 -24.05 -306.85 -22.8 -308.55 -21.05 -310.85 -16.9 -310.85 -6.75 -310.85 2.6 -303.05 5.85 -300.3 8.2 -297.3 M49.85 -286.8 Q56.05 -286.8 58.35 -284.2 59.6 -282.8 59.6 -280.3 59.6 -277.85 57.25 -275.3 55.55 -273.45 53.1 -272.7 L56.0 -272.5 Q64.8 -271.15 71.65 -262.4 73.0 -260.3 76.05 -252.8 79.1 -245.25 79.1 -243.9 79.1 -223.45 71.8 -210.35 67.45 -202.55 66.8 -200.9 64.5 -195.25 64.5 -188.0 64.5 -182.95 70.35 -165.1 76.2 -147.2 76.2 -143.15 76.2 -135.0 71.65 -124.6 67.1 -114.2 67.1 -108.55 67.1 -106.45 68.75 -101.3 L72.45 -90.35 Q77.8 -73.6 77.8 -60.9 77.8 -52.25 72.15 -40.2 65.3 -25.65 55.4 -20.95 46.5 -16.75 38.4 -10.7 31.25 -5.35 28.1 -1.3 25.15 4.95 21.25 9.1 18.1 12.45 14.0 14.35 -16.3 13.85 -40.75 -6.3 -47.15 -11.5 -53.7 -19.7 L-63.7 -31.85 Q-69.65 -37.95 -77.85 -44.9 L-88.1 -54.05 Q-90.8 -56.85 -92.55 -59.75 L-93.35 -64.45 Q-93.1 -73.45 -88.95 -85.75 -84.55 -98.8 -79.75 -104.0 -75.15 -108.9 -71.9 -114.7 L-67.1 -124.45 Q-65.2 -128.45 -64.0 -132.55 L-62.55 -137.75 Q-61.9 -139.8 -60.7 -140.55 -59.4 -141.35 -56.35 -141.35 -51.0 -141.35 -48.5 -139.7 -46.35 -137.6 -44.65 -136.8 -44.05 -137.4 -41.4 -143.8 -38.8 -150.2 -38.8 -150.95 -38.8 -154.05 -44.65 -167.05 L-51.75 -161.95 Q-57.0 -158.6 -59.6 -158.6 -69.35 -158.6 -72.6 -168.05 L-72.9 -169.1 -73.9 -169.0 Q-76.15 -168.9 -80.95 -170.05 -86.0 -171.25 -88.2 -171.25 -97.05 -171.25 -106.7 -164.4 L-113.5 -159.75 Q-117.1 -157.6 -120.05 -157.6 -129.1 -157.6 -131.35 -166.1 -132.45 -170.35 -131.75 -174.85 -131.75 -184.75 -128.45 -193.0 -124.0 -204.15 -114.2 -209.95 -106.3 -214.6 -96.9 -211.25 -94.0 -210.2 -90.95 -208.4 L-88.2 -206.7 Q-81.55 -205.25 -79.55 -204.3 -78.25 -203.65 -76.4 -202.0 L-76.5 -203.45 Q-76.5 -209.65 -72.6 -214.15 -67.05 -220.65 -55.05 -220.65 -45.95 -220.65 -42.8 -218.1 -41.9 -217.35 -40.9 -215.85 -39.9 -214.4 -39.15 -213.85 -38.4 -218.65 -33.45 -224.6 -27.15 -232.2 -19.5 -232.2 -10.75 -232.2 -7.8 -225.55 -6.5 -222.65 -6.5 -217.75 -6.5 -216.1 -7.8 -211.15 -9.1 -206.15 -9.1 -204.55 -9.1 -201.9 -4.55 -198.25 L1.95 -193.35 7.8 -193.7 Q13.95 -195.6 16.6 -201.9 L17.5 -204.45 Q14.6 -202.7 10.2 -201.15 L7.3 -201.8 Q2.65 -205.7 1.7 -208.7 1.3 -209.85 1.3 -214.95 1.3 -220.8 4.7 -224.4 7.1 -226.9 10.35 -227.5 L7.8 -230.35 Q5.85 -232.9 5.85 -235.45 5.85 -240.55 16.95 -251.55 L17.1 -251.7 16.7 -251.7 11.2 -252.35 Q9.75 -256.55 7.7 -256.95 L3.9 -256.55 Q-1.5 -256.55 -3.2 -260.3 -4.1 -262.15 -3.9 -264.35 -3.9 -266.55 2.15 -270.5 8.45 -274.55 15.5 -276.55 23.8 -278.9 28.85 -276.75 34.9 -274.15 34.9 -265.35 L34.85 -263.9 38.15 -264.7 Q43.25 -270.75 49.25 -272.25 L46.6 -272.5 43.7 -273.15 Q42.05 -275.25 41.0 -277.4 40.1 -279.2 40.1 -279.95 40.1 -283.3 42.15 -284.9 44.45 -286.8 49.85 -286.8 M79.2 -209.4 Q80.05 -212.85 81.7 -215.45 83.5 -217.9 86.6 -220.45 91.7 -224.7 96.0 -224.9 105.1 -225.45 111.65 -221.15 L113.85 -219.95 Q116.95 -217.9 118.3 -214.55 121.55 -209.9 121.55 -205.05 121.55 -202.65 120.65 -200.0 119.8 -197.4 118.3 -195.3 116.65 -192.9 107.95 -191.15 101.4 -189.8 98.6 -189.8 86.5 -189.8 81.4 -196.0 78.45 -199.55 78.45 -203.75 78.45 -206.5 79.2 -209.4 M-85.5 -281.45 Q-81.7 -278.7 -81.7 -274.45 -81.7 -270.3 -84.0 -267.6 -87.4 -263.7 -95.35 -263.7 -103.3 -263.7 -105.5 -267.75 -106.6 -269.8 -106.1 -272.15 -106.1 -278.1 -102.3 -281.3 -98.95 -284.15 -93.9 -284.1 -89.05 -284.05 -85.5 -281.45 M-17.8 -272.8 Q-22.0 -269.9 -30.55 -269.9 -40.75 -269.9 -44.65 -274.45 -46.65 -276.7 -46.6 -279.3 -46.6 -285.45 -41.55 -288.35 -37.15 -290.9 -30.45 -290.3 -24.05 -289.75 -19.35 -286.7 -14.3 -283.45 -14.3 -279.15 -14.3 -275.25 -17.8 -272.8 M-18.8 -248.2 Q-13.0 -245.2 -13.0 -240.95 -13.0 -236.2 -18.2 -233.5 -22.95 -231.05 -30.35 -231.05 -45.4 -231.05 -49.25 -235.3 -50.45 -236.65 -50.45 -238.4 L-50.2 -240.15 Q-50.2 -246.0 -44.4 -248.95 -39.3 -251.55 -31.6 -251.25 -24.2 -250.95 -18.8 -248.2 M-51.5 -201.15 L-47.6 -197.6 -48.9 -199.15 Q-50.3 -200.7 -51.8 -201.5 L-51.5 -201.15 M-37.3 -195.95 L-36.45 -193.5 -36.35 -196.1 -37.3 -195.95 M-66.65 -185.95 L-64.8 -186.85 -67.55 -189.85 Q-66.9 -187.95 -66.65 -185.95 M-28.7 8.85 Q-24.3 11.5 -19.6 13.55 -23.3 12.35 -26.95 10.7 L-28.7 8.85 M-56.2 -15.3 L-51.55 -10.3 Q-54.35 -12.75 -55.8 -14.75 L-56.2 -15.3 M-82.85 -39.2 L-81.85 -38.0 Q-84.95 -40.0 -87.25 -43.05 L-82.85 -39.2" fill="#ff0000" fill-opacity="0.11764706" fill-rule="evenodd" stroke="none"/>
      <path d="M97.65 -319.3 L99.35 -319.25 102.2 -318.8 103.0 -318.0 Q101.4 -316.45 98.7 -315.1 L94.5 -312.9 93.45 -312.9 Q93.15 -312.9 93.15 -314.45 93.15 -315.15 95.05 -317.0 L97.65 -319.3 M6.55 -355.25 Q8.65 -354.5 9.7 -353.7 9.7 -353.35 9.35 -353.05 8.7 -352.4 7.05 -352.4 L-1.4 -353.45 -1.1 -354.95 Q-0.7 -355.95 0.0 -356.3 5.6 -356.05 6.55 -355.25 M36.55 -338.15 L37.1 -337.05 Q36.4 -335.5 32.8 -335.2 L31.4 -335.45 Q30.95 -335.65 30.95 -337.3 30.95 -338.95 32.3 -339.1 L36.2 -339.15 Q36.2 -338.85 36.55 -338.15 M48.15 -277.05 L48.0 -277.3 47.75 -276.9 Q47.5 -276.85 47.5 -278.5 47.5 -281.1 47.75 -280.2 L49.15 -280.25 52.6 -279.95 53.15 -278.35 Q52.8 -277.55 52.45 -277.25 51.9 -276.8 50.25 -276.8 L48.15 -277.05 M63.7 -252.45 Q65.95 -250.3 67.45 -247.15 68.6 -244.8 68.6 -243.85 68.6 -242.5 67.3 -235.75 L66.9 -233.6 66.8 -232.95 66.75 -232.7 66.55 -229.35 Q65.55 -224.0 60.3 -216.4 L59.95 -215.7 58.15 -211.75 53.15 -201.6 Q52.5 -200.2 50.75 -191.25 49.05 -182.5 49.05 -181.1 49.05 -171.8 52.75 -155.6 56.4 -139.4 56.4 -130.95 56.4 -127.5 54.9 -118.0 L53.8 -111.1 Q55.4 -104.85 58.3 -88.6 61.4 -71.15 61.4 -68.6 61.4 -57.25 59.2 -45.9 56.25 -30.6 50.5 -25.3 43.6 -18.9 31.95 -15.75 L23.85 -13.5 Q19.75 -12.15 17.55 -10.2 L13.75 -5.75 Q11.05 -2.25 8.9 -0.35 1.6 6.15 -10.75 6.15 -18.9 6.15 -27.95 -1.95 -34.2 -7.5 -37.5 -12.95 -39.75 -16.75 -47.0 -22.2 -53.5 -27.1 -55.25 -31.85 L-55.3 -36.65 Q-55.35 -40.3 -57.85 -42.65 -58.9 -43.6 -62.65 -46.15 L-68.6 -50.1 Q-77.2 -55.85 -79.55 -58.85 -82.25 -62.25 -82.25 -68.35 -82.25 -77.2 -78.3 -84.3 -75.8 -88.8 -69.6 -95.4 -63.15 -102.3 -60.9 -105.95 -56.9 -112.55 -56.8 -120.45 L-54.95 -120.45 -54.5 -119.9 -54.45 -119.95 Q-53.6 -119.05 -52.4 -116.95 -51.3 -115.1 -50.1 -114.05 -42.35 -117.65 -34.1 -133.4 -26.35 -148.2 -26.35 -156.45 -26.35 -161.35 -29.6 -168.9 -32.9 -176.45 -32.9 -185.3 -32.9 -193.55 -30.45 -200.0 -27.75 -207.05 -21.5 -213.8 -20.25 -213.15 -19.95 -211.15 -20.25 -209.85 -20.25 -206.25 L-20.45 -204.45 -20.35 -203.4 Q-20.7 -197.95 -18.45 -192.7 -13.6 -181.5 1.4 -181.5 16.5 -181.5 24.3 -198.4 26.85 -204.0 28.25 -210.7 29.25 -215.45 29.25 -217.7 29.25 -225.65 25.85 -228.5 23.5 -230.55 21.4 -231.2 21.95 -232.85 24.75 -235.55 L31.5 -241.85 33.05 -243.5 Q35.6 -247.0 39.1 -250.0 44.6 -254.75 49.65 -255.45 57.95 -258.05 63.7 -252.45 M6.25 -287.3 Q6.15 -287.45 6.0 -287.15 4.3 -286.35 3.25 -285.6 2.95 -285.95 1.5 -289.2 0.35 -291.75 -1.4 -292.55 -11.2 -296.75 -13.75 -298.45 L-14.3 -299.25 Q-3.75 -302.45 2.15 -297.1 6.3 -293.35 6.3 -289.0 L6.25 -287.3 M13.25 -208.4 Q12.15 -207.35 11.25 -207.35 8.9 -207.35 6.8 -211.8 6.8 -219.4 10.7 -217.65 12.2 -216.95 13.35 -215.1 14.55 -213.1 14.55 -211.15 14.55 -209.65 13.25 -208.4 M87.45 -209.05 Q88.1 -210.85 90.35 -213.0 93.7 -216.15 98.7 -218.25 110.95 -218.35 113.6 -214.85 114.4 -213.85 114.7 -211.8 115.05 -209.7 115.6 -208.95 L115.35 -207.35 114.85 -206.8 115.1 -203.3 114.75 -203.0 114.05 -202.5 Q112.15 -202.8 109.2 -205.3 107.8 -206.5 104.85 -209.45 L94.5 -209.2 Q93.75 -208.75 90.55 -205.2 88.0 -202.4 85.8 -202.25 86.35 -203.6 84.75 -203.3 L86.55 -207.2 87.45 -209.05 M57.2 -183.15 L57.1 -182.8 56.95 -182.7 57.2 -183.15 M-94.35 -272.75 Q-95.0 -272.9 -95.0 -274.55 -95.0 -275.8 -93.5 -277.25 -91.5 -279.2 -88.3 -278.35 L-85.8 -277.85 Q-85.05 -277.4 -84.3 -276.4 L-83.45 -274.8 -83.45 -274.05 -85.2 -274.1 Q-86.65 -274.8 -87.9 -274.8 -89.5 -274.8 -90.8 -273.85 L-92.5 -272.7 -94.35 -272.75 M-18.5 -275.6 Q-20.25 -276.4 -22.15 -277.85 -23.9 -278.9 -26.9 -278.9 L-31.85 -278.6 Q-33.7 -278.05 -35.55 -276.35 -37.25 -274.85 -38.85 -274.55 L-39.15 -275.45 -39.2 -277.7 Q-39.2 -279.6 -38.65 -280.55 -37.85 -282.0 -34.9 -284.0 -22.25 -283.35 -17.7 -276.8 -17.7 -276.15 -18.5 -275.6 M-68.2 -202.2 Q-68.6 -202.5 -68.6 -204.2 -68.6 -207.45 -62.9 -207.9 -57.55 -208.35 -54.2 -206.3 -50.2 -204.65 -47.5 -202.1 -45.4 -200.35 -43.65 -198.1 L-43.05 -197.3 Q-40.0 -194.05 -39.25 -189.25 -38.6 -186.7 -38.55 -184.0 -38.55 -183.3 -38.85 -182.8 L-38.3 -178.85 -38.95 -177.55 Q-40.2 -178.9 -43.05 -183.4 -46.1 -188.15 -48.25 -190.75 -55.85 -200.0 -66.8 -201.7 L-68.2 -202.2 M-53.2 -182.5 Q-51.15 -179.9 -51.15 -176.9 -51.15 -173.7 -53.7 -171.4 -56.0 -169.4 -58.5 -169.4 -64.05 -169.4 -64.05 -173.25 L-62.3 -174.9 Q-60.4 -176.45 -59.85 -178.6 L-58.1 -183.75 Q-55.5 -185.35 -53.2 -182.5 M-80.7 -180.7 Q-81.9 -181.15 -85.45 -185.25 -88.35 -188.6 -92.75 -188.6 -102.45 -188.6 -109.45 -183.85 -114.4 -180.5 -115.6 -177.3 L-118.2 -172.05 Q-120.05 -168.2 -120.2 -165.75 L-122.05 -165.5 Q-122.85 -171.75 -122.85 -177.15 -122.85 -182.65 -120.6 -186.7 -117.75 -191.85 -110.25 -197.1 -95.0 -207.75 -79.65 -182.95 L-79.7 -181.45 -79.9 -181.5 -80.7 -180.7" fill="#f28420" fill-rule="evenodd" stroke="none"/>
      <path d="M10.2 -260.4 L7.05 -260.5 Q6.3 -260.6 6.3 -262.2 6.3 -263.85 8.3 -266.15 10.45 -268.65 13.45 -269.95 21.55 -273.4 28.45 -265.25 28.45 -264.3 27.95 -263.0 L24.7 -263.25 20.45 -263.9 Q17.15 -263.9 13.7 -262.25 L10.2 -260.4 M57.75 -244.25 L58.0 -242.4 Q58.0 -240.8 57.65 -240.05 L56.95 -238.7 55.35 -238.35 Q51.95 -239.65 51.55 -239.9 50.75 -240.4 50.75 -241.5 50.75 -243.55 51.65 -244.4 53.2 -245.85 57.45 -244.75 L57.75 -244.25 M35.4 -129.5 Q42.05 -123.2 42.3 -119.0 42.35 -117.7 41.85 -115.05 41.3 -112.2 41.3 -110.25 41.3 -110.0 44.65 -104.55 48.0 -99.15 48.0 -95.25 L47.75 -89.8 Q47.05 -86.45 44.1 -84.25 L41.6 -84.5 Q37.4 -87.75 35.5 -92.4 L35.3 -93.0 35.15 -92.9 Q31.65 -90.4 28.7 -90.4 25.25 -90.4 24.05 -92.25 23.2 -93.55 23.3 -96.65 L23.4 -102.15 23.3 -103.25 17.7 -105.3 9.55 -107.55 3.8 -106.8 3.0 -106.2 3.0 -105.9 Q3.0 -105.0 -2.75 -96.85 L-3.8 -94.1 Q-7.15 -85.1 -14.3 -82.95 -21.25 -84.3 -23.05 -88.6 -23.6 -89.95 -23.6 -94.5 -23.6 -97.35 -22.05 -100.85 -27.3 -94.55 -29.25 -92.75 -34.15 -88.2 -38.95 -88.2 L-44.85 -88.3 Q-48.05 -90.15 -50.35 -93.35 -52.6 -96.5 -52.6 -98.8 -52.6 -105.3 -49.2 -109.4 -43.9 -115.85 -31.6 -114.05 -26.3 -113.3 -22.2 -115.2 -19.7 -116.35 -15.8 -119.8 -11.8 -123.35 -9.35 -124.55 -6.75 -125.8 -3.65 -126.05 L-2.05 -128.35 Q0.15 -131.25 1.95 -132.3 3.0 -131.0 3.8 -128.25 L4.7 -124.95 Q5.45 -123.1 8.4 -120.6 11.0 -118.45 11.0 -117.2 11.0 -115.2 9.7 -114.35 8.85 -113.75 7.6 -113.75 3.95 -113.75 1.3 -117.15 -5.0 -116.9 -10.75 -112.65 -13.55 -110.55 -17.05 -106.7 -15.1 -106.2 -14.8 -105.5 L-16.0 -104.5 -15.05 -103.0 -16.55 -99.3 -15.85 -98.7 -11.25 -98.7 Q-9.95 -99.85 -5.6 -106.15 -0.3 -111.8 7.6 -111.8 14.25 -111.8 16.85 -109.95 L23.1 -109.95 24.5 -107.95 26.9 -108.15 27.8 -112.35 28.25 -113.35 25.4 -116.0 25.2 -115.35 23.1 -114.8 20.35 -115.55 Q18.9 -115.8 17.55 -115.1 L17.05 -116.65 15.4 -116.85 14.8 -117.7 17.8 -119.5 Q19.2 -123.0 20.45 -124.15 L21.75 -122.9 22.6 -123.85 Q26.45 -128.25 29.75 -130.05 L31.6 -130.0 35.4 -129.5 M2.4 -107.65 L3.7 -108.1 1.75 -107.75 2.4 -107.65 M13.25 -56.4 Q8.85 -50.85 4.75 -46.45 -3.25 -37.9 -10.2 -37.9 -20.1 -37.9 -26.2 -45.1 -31.35 -51.25 -31.35 -58.65 -31.35 -64.35 -30.25 -66.75 -27.9 -72.15 -20.05 -72.15 -16.6 -72.15 -10.65 -70.55 L-4.3 -69.0 Q-3.8 -69.0 -0.25 -71.85 L7.5 -77.7 Q19.3 -85.55 26.6 -81.9 37.4 -74.05 37.4 -63.9 37.4 -58.75 36.6 -56.5 35.25 -52.8 30.8 -49.85 26.2 -49.85 22.35 -52.1 19.35 -53.85 17.15 -56.7 L13.25 -56.4 M-19.0 -238.7 L-18.95 -237.75 Q-19.1 -237.3 -20.7 -237.3 -22.1 -237.3 -22.6 -237.85 L-23.4 -239.05 Q-24.95 -240.8 -32.65 -240.8 L-38.95 -239.25 -45.65 -237.3 Q-44.75 -239.25 -40.0 -242.5 -36.0 -245.2 -31.85 -247.25 L-26.75 -246.4 -22.05 -245.0 Q-20.55 -244.25 -19.45 -242.3 -18.25 -240.15 -19.0 -238.7 M-22.05 -218.9 Q-20.05 -218.25 -19.25 -217.45 L-19.0 -216.3 -27.65 -210.5 -32.25 -210.5 -32.65 -211.7 -28.8 -216.25 -25.7 -219.15 -22.05 -218.9 M-9.0 -88.4 Q-7.95 -89.3 -7.15 -90.55 L-6.8 -91.3 -9.0 -88.4" fill="#ffcc00" fill-rule="evenodd" stroke="none"/>
      <path d="M96.0 -309.85 L90.8 -310.85 90.65 -311.7 Q90.5 -312.35 90.5 -314.25 90.5 -316.35 94.15 -318.35 97.9 -320.4 101.85 -320.25 L102.3 -319.4 Q102.7 -318.75 102.7 -316.85 102.7 -315.1 101.2 -312.95 99.2 -310.1 96.0 -309.85 M11.2 -349.75 Q9.45 -347.1 6.5 -347.1 0.95 -347.1 -1.25 -349.55 -2.6 -351.05 -2.6 -353.25 -2.6 -356.35 -0.25 -358.3 1.9 -360.05 4.95 -360.15 8.05 -360.25 10.15 -358.55 12.5 -356.65 12.5 -353.25 12.5 -351.7 11.2 -349.75 M38.1 -340.25 Q40.05 -338.75 39.8 -336.2 L39.15 -333.25 38.9 -332.9 36.2 -332.6 Q35.3 -332.6 32.2 -333.7 28.35 -335.05 27.45 -336.5 27.35 -338.85 29.3 -340.3 31.15 -341.6 33.75 -341.6 36.4 -341.6 38.1 -340.25 M56.35 -280.3 Q56.35 -277.75 54.35 -275.4 52.2 -272.8 49.2 -272.8 45.65 -272.8 44.65 -275.4 44.35 -276.2 44.35 -278.35 44.35 -284.85 50.35 -284.8 52.7 -284.75 54.5 -283.5 56.35 -282.2 56.35 -280.3 M70.4 -255.6 Q74.55 -250.1 74.55 -239.65 74.55 -233.0 71.55 -225.1 70.05 -221.15 65.0 -210.85 60.35 -201.5 58.4 -195.55 55.4 -186.5 55.4 -177.9 55.4 -171.7 57.05 -167.25 58.0 -164.8 60.75 -160.5 63.35 -156.4 64.45 -153.3 66.1 -148.35 66.1 -141.35 66.1 -136.5 63.2 -124.5 60.25 -113.3 60.25 -112.75 60.25 -109.45 63.55 -100.85 L67.4 -90.8 Q69.05 -84.15 69.05 -70.35 69.05 -51.75 68.45 -47.75 66.75 -36.05 58.95 -25.5 56.0 -21.45 50.55 -19.15 47.45 -17.8 40.1 -16.05 33.05 -14.3 29.65 -12.75 24.25 -10.25 21.25 -5.85 18.5 0.65 15.0 4.95 8.3 13.15 -2.6 13.15 -13.25 13.15 -25.85 5.1 -33.45 0.25 -38.8 -5.2 L-58.95 -26.45 Q-60.4 -28.05 -60.75 -31.35 L-61.25 -37.2 Q-61.35 -38.55 -65.95 -41.75 -71.85 -45.8 -73.25 -47.25 -83.0 -57.25 -84.05 -59.45 -84.8 -60.95 -84.8 -63.1 L-84.65 -68.7 Q-84.65 -88.35 -72.95 -100.9 -69.5 -104.6 -66.45 -109.05 -63.25 -113.75 -62.55 -116.35 -61.9 -117.7 -62.6 -124.2 -62.2 -130.0 -55.7 -130.0 -50.8 -130.0 -49.3 -127.4 -48.55 -124.45 -47.9 -123.8 -44.2 -128.0 -37.65 -139.15 -30.05 -152.0 -30.05 -156.3 -30.05 -158.4 -32.6 -164.0 -35.4 -170.15 -35.9 -172.9 L-36.35 -177.2 Q-38.2 -173.55 -42.05 -173.55 -45.1 -173.55 -47.15 -175.8 -47.7 -174.05 -48.55 -172.25 -52.2 -164.75 -59.6 -164.75 -63.25 -164.75 -64.8 -166.4 -66.1 -167.85 -66.1 -170.75 -66.1 -175.55 -63.0 -180.3 -60.2 -184.65 -56.2 -186.95 -54.65 -187.9 -53.25 -188.25 -55.45 -190.85 -57.95 -192.3 -60.15 -193.55 -69.7 -197.25 -71.15 -198.7 -71.55 -199.95 -71.95 -201.1 -71.95 -203.6 -71.95 -215.75 -57.15 -213.3 -52.2 -212.5 -46.7 -210.2 -42.05 -208.25 -41.4 -207.35 L-37.7 -197.05 -36.45 -193.5 Q-36.2 -200.65 -35.3 -205.05 -34.6 -208.5 -33.5 -211.15 L-34.75 -212.05 Q-35.9 -213.0 -35.9 -213.85 -35.9 -217.15 -32.95 -220.1 -30.2 -222.8 -26.4 -223.9 L-19.85 -223.65 Q-16.9 -222.1 -16.9 -217.75 L-16.9 -216.9 Q-16.45 -215.85 -16.45 -214.45 -16.45 -212.8 -17.05 -210.7 L-17.7 -208.8 Q-17.7 -203.25 -14.45 -195.7 -9.85 -184.9 -1.95 -184.9 15.05 -184.9 22.6 -197.9 26.4 -204.5 26.8 -211.55 26.8 -218.15 20.8 -227.05 L16.65 -232.8 Q14.75 -235.45 14.75 -236.4 35.55 -259.65 45.3 -261.45 63.45 -264.85 70.4 -255.6 M0.0 -283.55 Q-0.95 -283.55 -8.75 -291.0 -16.4 -298.35 -16.4 -298.8 -16.4 -301.55 -14.3 -302.7 -12.45 -303.7 -8.45 -303.7 -0.45 -303.7 5.3 -298.2 10.2 -293.55 10.2 -289.4 10.2 -288.75 9.5 -288.05 8.35 -287.0 5.85 -286.45 5.25 -286.35 3.45 -284.9 1.85 -283.55 0.0 -283.55 M10.55 -270.95 Q16.5 -276.5 21.9 -274.45 25.7 -273.35 29.0 -270.05 32.3 -266.7 32.3 -264.05 32.3 -261.75 28.45 -259.5 24.45 -257.2 19.95 -257.2 5.35 -257.2 5.35 -263.05 5.35 -266.15 10.55 -270.95 M16.0 -223.65 Q18.35 -222.35 18.35 -219.35 18.35 -212.9 18.05 -211.55 16.8 -206.35 11.5 -206.35 6.75 -206.35 4.6 -210.95 3.55 -213.25 3.4 -215.8 3.4 -219.0 5.75 -221.4 7.85 -223.5 10.9 -224.15 13.9 -224.8 16.0 -223.65 M97.4 -212.8 L97.4 -213.0 97.0 -212.85 97.4 -212.8 M84.0 -206.5 Q84.0 -212.75 89.55 -217.3 94.6 -221.5 101.7 -222.35 109.0 -223.2 113.85 -219.95 119.4 -216.25 119.4 -208.45 119.4 -204.85 118.25 -202.15 116.7 -198.55 113.55 -198.55 109.85 -198.55 109.25 -199.6 108.3 -201.25 104.65 -202.45 L96.25 -202.6 84.3 -203.1 84.15 -203.95 Q84.0 -204.6 84.0 -206.5 M111.15 -210.6 L110.15 -211.8 109.0 -210.85 111.15 -210.6 M-87.25 -271.9 Q-90.05 -269.25 -92.1 -269.25 L-94.7 -269.7 -96.35 -270.85 -97.0 -274.75 Q-95.25 -283.5 -89.85 -282.05 -87.75 -281.5 -86.2 -279.5 -84.65 -277.5 -84.65 -275.25 -84.65 -274.3 -87.25 -271.9 M-24.35 -275.0 Q-28.2 -274.1 -31.0 -274.1 L-37.5 -274.45 -40.95 -277.1 Q-42.05 -278.05 -42.05 -279.0 -42.05 -283.35 -39.2 -285.45 -36.6 -287.4 -32.45 -286.95 -28.4 -286.55 -24.6 -284.05 -20.5 -281.4 -18.35 -277.35 -20.05 -276.0 -24.35 -275.0 M-47.15 -238.5 Q-48.25 -239.55 -48.25 -240.3 -48.25 -244.8 -43.5 -247.25 -39.3 -249.4 -32.95 -249.3 -26.9 -249.25 -22.45 -247.2 -17.7 -245.0 -17.7 -241.6 -17.7 -239.6 -18.85 -238.95 -19.7 -238.5 -22.35 -238.35 -31.25 -238.0 -37.5 -235.95 L-44.0 -235.95 -47.15 -238.5 M-51.5 -201.15 L-47.6 -197.6 -48.9 -199.15 Q-50.3 -200.7 -51.8 -201.5 L-51.5 -201.15 M-77.8 -179.65 Q-79.85 -178.4 -84.3 -178.4 L-91.15 -182.0 Q-103.2 -181.1 -109.45 -173.1 -113.15 -168.3 -113.75 -167.75 -116.3 -165.4 -120.05 -165.4 -124.45 -165.4 -125.25 -170.4 -125.7 -172.95 -125.25 -175.8 -125.25 -190.7 -117.5 -197.8 -110.9 -203.8 -100.4 -203.05 -90.85 -202.4 -83.3 -196.85 -75.55 -191.1 -75.55 -184.25 -75.55 -181.05 -77.8 -179.65" fill="#ffcc33" fill-opacity="0.3529412" fill-rule="evenodd" stroke="none"/>
    </g>
    <g id="shape2" transform="matrix(1.0, 0.0, 0.0, 1.0, 122.0, 347.75)">
      <path d="M25.95 -330.85 Q20.85 -321.0 19.3 -317.0 34.25 -310.4 39.1 -303.65 42.7 -298.65 42.7 -289.4 42.7 -283.15 40.3 -279.55 34.95 -271.5 31.65 -264.05 L31.0 -263.05 Q31.8 -263.6 33.8 -266.1 35.7 -268.5 37.6 -269.6 43.8 -273.35 57.65 -269.55 57.35 -272.25 52.7 -277.2 48.25 -282.0 48.25 -285.5 48.25 -290.7 56.1 -297.2 65.05 -304.65 75.85 -304.65 92.05 -304.65 99.95 -283.8 102.45 -277.25 103.8 -269.35 L104.65 -262.6 Q104.65 -252.65 100.4 -244.95 97.65 -239.95 91.1 -233.15 84.0 -225.85 81.75 -222.35 77.5 -215.7 77.5 -207.65 77.5 -200.3 79.95 -196.9 81.85 -194.3 86.05 -193.2 L93.9 -191.35 Q98.6 -189.8 101.55 -186.2 107.5 -178.8 108.45 -173.25 108.85 -171.15 108.75 -168.1 L108.55 -162.3 Q108.55 -153.25 102.3 -143.3 98.35 -136.95 88.65 -126.1 78.3 -114.55 74.95 -109.55 68.7 -100.4 68.7 -92.75 68.7 -88.1 70.65 -70.1 L72.6 -51.8 Q72.6 -41.15 67.25 -33.25 60.3 -22.95 44.0 -16.4 39.95 -14.75 34.85 -8.9 L25.45 2.6 Q12.35 17.7 -2.6 17.7 -10.8 17.7 -16.55 16.15 L-24.85 13.65 Q-36.8 0.5 -39.8 -1.95 -41.3 -3.3 -50.0 -9.75 -57.65 -15.45 -59.3 -17.35 -63.85 -22.7 -68.1 -34.05 -71.85 -44.1 -77.15 -48.55 -104.9 -71.85 -112.15 -81.05 -122.0 -93.55 -122.0 -110.0 -122.0 -125.35 -115.8 -134.45 -105.7 -149.35 -78.45 -153.4 L-76.45 -155.45 Q-74.9 -157.0 -74.9 -157.3 -74.9 -162.15 -76.95 -171.55 -79.1 -181.55 -81.05 -183.6 -105.35 -185.9 -112.1 -198.7 -114.45 -203.2 -114.85 -209.6 -115.1 -213.2 -114.85 -219.35 L-114.7 -225.75 Q-114.15 -232.45 -112.3 -237.9 -106.45 -254.95 -89.5 -254.95 -75.4 -254.95 -72.55 -253.85 -71.55 -253.45 -71.2 -252.6 L-70.35 -251.05 Q-65.1 -254.65 -65.4 -258.7 L-66.1 -262.5 Q-66.75 -265.1 -66.75 -266.95 L-66.85 -268.75 Q-66.8 -270.85 -66.1 -272.45 -63.8 -277.55 -55.7 -275.75 -49.75 -273.75 -47.85 -268.3 L-46.25 -263.8 Q-45.0 -261.25 -42.7 -259.5 -34.1 -260.85 -31.6 -262.0 -29.05 -263.2 -29.05 -266.0 -29.05 -271.7 -34.9 -278.45 L-38.9 -283.15 Q-40.75 -285.6 -40.75 -287.45 -40.75 -298.45 -17.7 -294.25 -19.25 -304.05 -18.6 -310.0 -17.55 -319.05 -11.7 -326.1 L-5.25 -332.85 Q-0.3 -337.95 2.75 -341.7 8.0 -348.05 18.1 -347.75 22.4 -347.65 25.15 -346.0 28.1 -344.25 28.1 -341.4 28.1 -334.95 25.95 -330.85 M25.55 -248.35 L26.8 -247.0 29.1 -248.35 27.1 -248.3 25.55 -248.35 M68.2 -182.6 Q64.65 -185.6 62.95 -187.5 L63.15 -186.55 Q63.8 -184.65 66.45 -182.0 L68.45 -182.4 68.2 -182.6 M-9.35 -282.45 L-9.9 -282.35 -9.35 -282.1 -9.35 -282.45" fill="#ff0000" fill-opacity="0.11764706" fill-rule="evenodd" stroke="none"/>
      <path d="M6.0 -306.3 Q6.0 -301.4 9.4 -299.3 11.05 -298.25 16.85 -296.85 22.05 -295.55 24.25 -293.55 27.65 -290.5 27.65 -284.0 27.65 -279.65 26.0 -274.95 24.15 -269.8 21.0 -266.55 L20.4 -266.65 Q19.75 -266.85 19.4 -267.35 19.5 -268.75 20.55 -272.65 21.5 -276.35 21.5 -277.7 21.5 -283.4 19.1 -285.05 16.75 -286.7 9.1 -286.9 L7.2 -286.9 7.05 -286.9 2.2 -286.9 Q1.7 -287.4 -0.75 -287.8 -3.45 -290.35 -4.1 -293.7 L-4.1 -293.85 Q-5.1 -296.6 -4.85 -299.6 -4.85 -307.65 -0.7 -315.05 2.65 -321.15 8.35 -325.85 L11.55 -329.3 10.9 -327.85 12.2 -328.75 13.6 -328.5 Q14.0 -328.3 14.0 -326.65 14.0 -325.8 10.0 -318.85 6.0 -311.9 6.0 -306.3 M73.4 -278.9 L72.75 -280.1 72.7 -280.2 72.65 -280.3 71.6 -281.75 Q69.05 -284.85 65.7 -285.9 79.55 -291.1 86.45 -284.65 92.5 -278.95 92.5 -265.35 92.5 -257.35 89.4 -251.25 84.25 -241.05 71.65 -239.0 67.75 -238.35 65.95 -234.5 64.45 -231.35 64.7 -226.9 L64.7 -223.85 64.95 -218.9 64.85 -216.55 64.7 -216.15 Q64.4 -215.35 63.65 -214.85 L63.35 -213.8 62.05 -213.5 62.1 -214.0 Q62.8 -215.5 63.2 -217.35 63.65 -219.8 63.65 -224.7 63.65 -226.6 61.8 -230.95 59.65 -235.95 57.45 -237.55 45.95 -240.6 41.75 -231.1 L41.6 -230.7 Q37.5 -233.95 36.65 -235.75 36.2 -236.75 36.2 -241.2 36.2 -244.85 38.2 -248.05 39.9 -250.8 42.6 -251.9 L50.0 -251.05 Q54.45 -250.7 56.65 -248.65 58.7 -246.75 62.6 -246.75 66.7 -246.75 69.8 -251.25 71.9 -252.8 73.6 -255.5 76.75 -260.5 76.75 -265.1 L75.7 -270.2 75.7 -270.6 Q75.7 -274.25 73.4 -278.9 M12.4 -258.8 L11.9 -261.95 Q17.85 -259.7 18.35 -257.85 18.05 -254.0 18.2 -249.35 18.2 -238.85 20.45 -230.85 21.7 -226.2 27.15 -222.55 34.65 -218.3 39.2 -215.35 44.25 -212.1 45.85 -206.5 46.9 -199.9 47.5 -196.85 L48.0 -196.35 Q48.9 -197.0 51.5 -200.8 54.15 -204.7 55.35 -205.65 L57.45 -205.55 57.55 -205.5 58.8 -206.15 59.35 -206.35 Q59.85 -206.2 59.85 -204.6 59.85 -203.9 57.3 -197.8 54.7 -191.7 54.7 -188.05 54.7 -183.5 56.45 -179.15 57.75 -175.9 59.7 -174.45 61.25 -173.7 63.25 -173.25 L70.9 -174.35 78.6 -175.45 Q91.2 -175.45 91.2 -162.45 91.2 -155.0 86.65 -146.3 82.35 -138.15 76.05 -133.1 73.7 -131.0 70.85 -129.0 60.8 -121.95 56.9 -114.85 L55.6 -111.95 Q54.95 -107.75 54.4 -101.75 53.9 -96.0 53.9 -93.8 53.9 -86.9 55.55 -71.4 57.2 -55.9 57.2 -48.3 57.2 -46.95 55.15 -40.1 53.1 -33.3 52.6 -32.8 50.85 -31.0 49.9 -28.5 49.0 -26.15 48.25 -25.5 46.9 -24.3 42.2 -23.7 40.0 -22.45 37.05 -22.15 35.45 -21.95 29.9 -22.15 20.7 -22.4 17.15 -17.15 15.8 -15.2 14.75 -12.2 13.65 -9.3 12.6 -7.85 L9.15 -3.2 Q7.15 -0.65 5.2 0.75 0.0 4.55 -11.25 4.55 -20.65 4.55 -29.1 -6.4 -33.55 -12.15 -38.55 -21.0 L-38.25 -21.65 -38.55 -21.5 -43.95 -21.5 Q-51.4 -26.2 -53.65 -32.55 -54.65 -35.35 -55.25 -43.8 -55.75 -50.7 -58.55 -54.6 -62.55 -60.2 -73.2 -64.15 -75.65 -65.05 -77.9 -66.25 -82.55 -67.85 -84.75 -69.0 -86.95 -70.1 -90.55 -74.2 -93.7 -77.75 -95.9 -81.2 -99.55 -86.75 -101.95 -94.35 -104.3 -101.75 -104.3 -107.35 -104.3 -116.7 -99.6 -124.15 -96.35 -130.45 -89.25 -136.75 -88.2 -137.7 -84.0 -138.35 L-77.3 -139.35 -75.4 -140.0 -64.7 -143.6 Q-60.65 -146.15 -58.5 -149.85 L-55.9 -157.05 -53.7 -163.8 -55.2 -168.7 -57.85 -177.05 -57.8 -178.2 -57.85 -178.35 -57.75 -178.4 Q-57.2 -182.3 -53.15 -178.55 -50.05 -175.7 -45.9 -169.55 -43.6 -165.35 -43.1 -161.85 -42.9 -160.3 -42.9 -154.2 L-43.75 -141.5 -44.25 -135.05 -39.45 -146.15 Q-32.25 -165.05 -32.25 -179.0 -32.25 -190.8 -38.4 -201.3 -42.0 -207.35 -42.65 -208.85 -44.6 -213.15 -44.6 -217.6 -44.6 -230.2 -41.0 -238.95 -35.3 -252.75 -22.55 -247.5 L-19.65 -248.05 Q-16.05 -252.95 -15.4 -255.1 -15.05 -256.15 -15.05 -260.0 -15.05 -261.2 -16.6 -265.85 -18.2 -270.5 -18.2 -271.15 L-18.15 -273.05 -17.95 -274.05 Q-9.75 -277.75 -2.2 -263.05 0.5 -257.8 2.4 -251.55 4.05 -246.05 4.05 -243.7 4.05 -238.05 3.6 -236.7 L3.4 -236.05 3.0 -234.5 Q2.15 -231.75 -1.4 -225.85 -3.35 -226.2 -5.05 -227.35 L-8.65 -230.05 -13.1 -229.8 Q-18.75 -226.55 -20.0 -223.25 -20.45 -222.1 -20.45 -217.45 -20.45 -212.0 -19.9 -210.85 -18.4 -207.8 -11.25 -204.6 -0.7 -211.4 4.95 -220.3 6.55 -224.4 7.8 -229.5 11.55 -244.45 11.55 -258.8 L12.4 -258.8 M9.6 -230.4 Q10.5 -233.3 11.1 -236.75 9.75 -231.35 7.55 -225.55 L6.7 -223.3 Q8.45 -226.7 9.6 -230.4 M51.3 -241.85 L49.1 -241.35 54.15 -241.35 51.3 -241.85 M80.5 -170.75 L80.4 -170.8 80.2 -170.8 80.5 -170.75 M-90.0 -236.65 L-84.75 -237.0 Q-79.25 -237.0 -76.05 -235.55 -72.85 -234.15 -66.8 -234.15 -65.05 -234.15 -63.4 -234.9 L-58.8 -234.9 -58.15 -235.2 -55.65 -238.1 -55.35 -239.05 -54.25 -240.25 Q-52.85 -242.15 -52.85 -246.2 L-52.95 -248.0 -52.85 -248.05 Q-51.55 -244.25 -51.55 -239.25 -51.55 -235.1 -55.25 -231.75 -59.2 -228.2 -64.8 -228.2 -65.8 -228.2 -69.25 -228.95 L-71.9 -228.65 Q-81.2 -227.7 -85.15 -224.95 L-86.4 -224.0 -86.5 -223.85 -90.25 -217.8 Q-91.2 -214.75 -91.2 -210.75 -91.2 -208.95 -89.9 -205.75 -88.1 -203.6 -85.3 -201.7 L-83.1 -201.9 -79.35 -205.55 -79.2 -205.65 -76.6 -208.95 Q-73.15 -212.55 -67.85 -213.8 L-60.6 -213.8 Q-54.8 -209.7 -53.3 -205.5 -52.6 -203.5 -52.6 -197.9 -52.6 -196.15 -52.9 -194.35 -53.0 -192.2 -53.3 -191.55 L-53.9 -190.55 Q-55.55 -185.55 -58.45 -184.25 L-58.25 -184.75 Q-56.0 -189.85 -56.0 -193.3 -56.0 -198.45 -60.05 -201.2 -63.9 -203.8 -69.0 -202.95 -74.4 -202.1 -77.95 -197.75 L-78.5 -197.0 -81.2 -195.3 -83.5 -195.4 -83.7 -195.0 -86.1 -195.0 -86.45 -194.8 Q-86.7 -194.9 -86.8 -195.55 L-86.85 -195.55 -88.1 -196.05 -88.3 -196.05 -89.1 -196.75 -89.5 -197.1 -91.0 -198.5 -93.55 -201.15 Q-95.65 -203.5 -96.3 -205.1 -96.65 -206.0 -96.75 -209.05 -97.8 -213.35 -97.9 -218.0 -97.9 -231.4 -90.0 -236.65" fill="#f28420" fill-rule="evenodd" stroke="none"/>
      <path d="M14.15 -212.65 Q12.5 -207.05 9.95 -200.25 9.25 -193.85 8.5 -184.05 L7.85 -172.85 Q7.8 -167.4 8.9 -162.2 10.5 -154.7 13.95 -152.65 L14.3 -151.85 17.3 -151.85 Q24.8 -152.4 24.8 -168.35 24.8 -174.7 23.85 -179.15 L22.2 -181.55 22.8 -181.8 22.05 -181.75 21.8 -181.3 Q21.5 -181.15 21.5 -182.8 21.5 -183.55 22.55 -184.7 23.7 -186.0 24.5 -185.55 29.4 -185.55 33.3 -184.25 34.05 -183.7 36.25 -179.25 38.45 -174.95 38.45 -174.3 38.45 -167.2 37.7 -161.45 L37.45 -159.65 38.1 -160.45 Q45.15 -168.65 48.8 -168.35 L49.1 -168.75 Q49.35 -168.8 49.35 -167.2 49.35 -166.25 47.45 -163.1 L47.15 -162.45 46.9 -162.2 45.4 -159.95 Q40.9 -153.25 39.5 -149.1 L37.1 -141.0 36.5 -138.55 36.45 -137.65 Q36.45 -133.25 37.4 -123.65 37.95 -118.0 38.7 -114.0 L41.05 -109.95 44.6 -97.35 Q44.25 -96.8 43.3 -96.5 L43.55 -87.65 Q43.55 -83.55 40.85 -77.95 38.2 -72.5 35.95 -71.4 L29.9 -71.65 Q26.15 -74.4 25.6 -79.7 25.0 -85.2 22.3 -87.5 L18.35 -87.25 Q14.6 -83.4 14.1 -82.35 13.75 -81.65 13.75 -78.2 13.75 -75.35 15.85 -71.6 17.95 -67.85 17.95 -65.1 17.95 -60.8 15.05 -57.3 L7.05 -49.05 2.2 -49.35 Q1.15 -50.05 -0.45 -52.55 L-3.25 -57.05 Q-9.9 -56.8 -13.95 -54.3 L-20.45 -49.05 Q-29.2 -50.9 -31.3 -55.75 -32.0 -57.35 -32.0 -63.9 L-31.75 -68.55 Q-31.0 -71.05 -27.65 -73.2 L-24.15 -72.95 -20.05 -69.65 -15.35 -70.6 Q-11.4 -74.45 -10.55 -77.25 -10.2 -78.45 -10.2 -83.7 -10.2 -88.25 -10.6 -89.85 -11.65 -94.3 -15.6 -96.05 L-24.65 -95.8 Q-29.1 -93.6 -30.3 -90.4 L-31.1 -84.8 Q-31.6 -81.5 -34.35 -79.6 -38.1 -76.95 -47.25 -75.3 -50.65 -76.3 -51.55 -81.55 L-51.8 -88.45 Q-51.8 -95.65 -51.4 -97.1 -50.75 -101.25 -47.35 -106.0 -45.65 -108.35 -38.45 -116.35 -32.65 -122.8 -30.5 -127.0 -27.45 -133.05 -29.25 -138.7 -28.65 -141.3 -28.15 -145.05 L-28.45 -149.85 Q-28.45 -158.8 -26.05 -168.15 -22.95 -180.05 -17.45 -184.25 L-15.65 -184.3 Q-15.05 -184.2 -15.05 -182.55 -15.05 -181.2 -16.1 -179.65 L-16.75 -178.45 -16.65 -174.65 -16.9 -168.9 -16.9 -168.55 -16.4 -165.0 -14.85 -159.75 Q-13.35 -174.7 -4.65 -191.6 4.8 -210.05 14.15 -212.65 M34.45 -155.8 L35.05 -159.35 35.6 -163.6 34.4 -159.5 31.7 -150.95 Q32.45 -153.0 34.45 -155.8 M31.2 -148.7 L31.45 -150.3 30.95 -148.8 30.95 -148.3 31.2 -148.6 31.2 -148.7" fill="#ffcc00" fill-rule="evenodd" stroke="none"/>
      <path d="M17.05 -323.8 Q13.8 -316.95 13.8 -312.0 13.8 -308.05 17.0 -305.25 18.6 -303.85 24.05 -300.9 28.95 -298.2 31.05 -295.85 34.25 -292.3 34.25 -287.1 31.95 -277.95 29.5 -271.85 L29.7 -269.9 Q29.7 -269.15 26.8 -263.25 23.85 -257.35 23.85 -253.8 23.85 -249.6 26.8 -247.0 29.75 -248.35 36.8 -254.6 41.95 -259.15 47.9 -259.15 52.2 -259.15 56.35 -256.55 59.9 -254.35 61.9 -251.35 66.45 -254.95 67.45 -259.05 67.75 -260.25 67.75 -266.3 67.75 -273.1 61.75 -275.75 58.4 -277.2 57.6 -277.9 55.7 -279.45 55.7 -282.4 55.7 -287.35 62.2 -291.7 68.4 -295.9 74.55 -295.9 88.85 -295.9 96.3 -283.2 101.2 -274.85 101.2 -267.6 101.2 -265.5 97.9 -255.1 94.55 -244.55 93.1 -242.45 92.25 -241.3 84.6 -236.95 L74.9 -231.7 Q67.45 -228.0 67.8 -225.6 67.85 -225.1 68.8 -223.25 69.7 -221.55 69.7 -220.0 L69.7 -219.85 70.65 -221.0 72.55 -218.8 Q73.25 -217.7 73.25 -215.6 73.25 -214.0 71.65 -211.15 L68.05 -205.25 Q62.85 -196.5 62.85 -189.3 62.85 -187.35 63.15 -186.55 63.8 -184.65 66.45 -182.0 101.2 -189.15 101.2 -163.8 101.2 -153.0 94.55 -143.75 90.95 -138.75 79.95 -128.5 69.55 -118.9 65.3 -112.15 58.65 -101.7 58.65 -88.85 58.65 -83.7 60.6 -66.75 62.55 -49.8 62.55 -47.45 L62.5 -38.45 Q62.05 -33.5 59.7 -30.05 53.6 -21.1 30.05 -16.05 26.3 -15.3 23.35 -10.45 20.1 -4.05 18.05 -0.55 14.45 5.75 9.8 8.95 3.6 13.15 -5.85 13.15 -14.5 13.15 -25.2 5.7 -30.6 1.95 -34.6 -2.1 -37.2 -4.85 -38.4 -10.9 -39.55 -16.6 -42.05 -18.65 -56.25 -19.5 -60.85 -27.8 -63.6 -32.85 -62.55 -40.1 -61.55 -46.8 -64.45 -51.2 -68.35 -57.15 -81.05 -63.5 -96.4 -71.1 -104.85 -85.75 -111.95 -98.0 -111.95 -110.15 -111.95 -120.2 -108.45 -126.45 -103.4 -135.55 -89.5 -142.0 -81.0 -145.3 -77.35 -147.15 -71.2 -150.35 -68.4 -155.65 -64.85 -162.25 -64.25 -164.6 -63.85 -166.05 -63.85 -170.75 -63.85 -172.35 -65.15 -176.85 -66.45 -181.3 -66.45 -182.95 -66.45 -186.5 -65.2 -187.9 -64.15 -189.0 -61.95 -189.45 -62.65 -192.85 -64.8 -195.0 -68.75 -193.55 -75.75 -189.9 -80.8 -187.2 -83.0 -187.2 -96.0 -187.2 -101.2 -203.75 -103.8 -212.05 -103.8 -220.8 -103.8 -228.05 -101.2 -234.0 -96.9 -243.9 -86.9 -243.9 -81.95 -243.9 -78.55 -242.7 -76.05 -241.8 -74.9 -240.5 -67.95 -240.95 -64.05 -244.45 -60.9 -247.25 -60.9 -250.55 -60.9 -252.15 -62.2 -253.85 -63.5 -255.55 -63.5 -257.2 -63.5 -262.25 -60.45 -262.45 -57.7 -262.6 -53.75 -259.0 -49.8 -255.45 -47.05 -250.4 L-46.2 -248.75 Q-38.25 -259.45 -22.1 -256.9 -20.65 -258.45 -20.2 -259.6 -19.65 -260.9 -19.65 -263.25 -19.65 -268.9 -25.5 -274.65 L-29.5 -278.55 Q-31.35 -280.5 -31.35 -281.9 -31.35 -284.7 -28.75 -285.5 L-25.35 -285.8 Q-13.0 -285.8 -4.0 -278.6 -1.1 -276.25 2.15 -272.55 L6.5 -267.6 Q6.5 -271.75 1.95 -279.6 L0.45 -282.25 Q-3.05 -283.15 -4.85 -284.85 -6.25 -286.1 -8.65 -289.6 -11.2 -293.35 -11.2 -294.6 -11.2 -296.0 -11.85 -299.35 L-12.5 -304.35 Q-12.5 -309.75 -7.35 -317.95 -2.65 -325.5 3.9 -331.6 10.65 -337.95 15.2 -338.7 20.3 -339.55 20.3 -332.45 20.3 -330.6 17.05 -323.8 M45.65 -230.05 Q41.4 -225.9 41.4 -221.3 41.4 -220.6 44.1 -217.4 47.0 -213.85 48.55 -213.85 54.5 -213.85 55.8 -220.65 56.45 -224.15 56.05 -228.8 L55.4 -231.7 Q50.45 -234.7 45.65 -230.05 M-74.9 -218.4 L-75.85 -217.4 -65.55 -218.15 -55.7 -219.35 Q-53.35 -217.4 -51.55 -215.7 -52.8 -220.6 -52.8 -226.0 -59.9 -221.6 -72.3 -220.35 -73.25 -219.35 -74.9 -218.4 M-1.3 -217.75 Q-1.6 -218.25 -5.9 -220.4 -10.1 -222.5 -11.05 -224.25 L-13.45 -221.35 Q-15.6 -218.75 -15.6 -217.4 L-13.55 -214.55 Q-11.45 -212.0 -10.55 -211.55 L-6.5 -211.9 -3.45 -214.8 Q-1.7 -216.55 -1.3 -217.75 M-38.6 -176.45 Q-39.0 -183.6 -40.75 -189.65 -42.15 -194.45 -45.3 -200.85 -45.5 -198.3 -48.85 -187.55 -42.8 -184.35 -38.6 -176.45" fill="#ffcc33" fill-opacity="0.3529412" fill-rule="evenodd" stroke="none"/>
    </g>
    <g id="shape3" transform="matrix(1.0, 0.0, 0.0, 1.0, 103.8, 340.85)">
      <path d="M21.25 -306.6 Q21.25 -304.6 22.2 -296.0 L23.85 -281.25 Q24.8 -273.95 29.5 -265.55 34.55 -256.55 38.8 -256.55 44.95 -256.55 49.95 -262.75 53.75 -267.5 53.75 -269.55 53.75 -271.15 52.45 -275.4 51.15 -279.6 51.15 -281.25 51.15 -285.55 52.85 -288.1 55.9 -292.65 64.15 -292.65 83.0 -292.65 90.25 -272.85 92.5 -266.6 93.35 -259.05 L93.75 -252.35 Q93.75 -244.95 91.7 -239.7 90.5 -236.65 87.3 -231.95 84.2 -227.5 83.2 -224.5 81.5 -219.55 82.05 -212.55 82.55 -206.75 82.45 -203.05 82.35 -197.4 81.05 -193.05 79.8 -189.1 73.55 -181.45 67.75 -174.35 67.75 -173.55 67.75 -172.3 69.4 -168.9 L72.95 -161.4 Q78.15 -149.65 78.15 -139.4 78.15 -124.35 69.7 -112.05 65.5 -106.35 63.9 -103.7 61.25 -99.3 61.25 -95.2 61.25 -93.1 63.2 -83.4 65.15 -73.65 65.15 -65.0 65.15 -51.95 61.8 -41.85 56.5 -26.15 44.0 -21.9 35.9 -19.25 29.85 -12.35 25.8 -7.8 23.2 -2.1 20.75 3.55 14.1 8.15 6.15 13.65 -3.25 13.65 -13.45 13.65 -30.5 4.2 -45.4 -4.0 -49.55 -9.25 -53.15 -13.8 -58.3 -22.5 -63.25 -30.9 -67.1 -35.55 -69.9 -39.05 -81.75 -48.6 -92.65 -57.4 -95.35 -61.9 -98.05 -66.5 -98.85 -74.15 -99.25 -78.1 -99.25 -86.75 -99.25 -104.4 -92.4 -116.4 -88.45 -123.45 -87.75 -125.15 -85.6 -130.3 -85.6 -136.8 -85.6 -144.55 -94.7 -162.2 -103.8 -179.9 -103.8 -186.55 -103.8 -190.0 -101.4 -197.15 -98.35 -206.2 -93.4 -213.85 -79.15 -236.1 -56.35 -236.1 -49.45 -236.1 -46.05 -232.35 -45.0 -231.2 -44.35 -229.65 L-43.7 -228.15 -38.7 -239.1 Q-35.25 -246.25 -35.25 -247.15 -35.25 -252.6 -38.0 -259.45 -40.75 -266.3 -40.75 -269.1 L-40.9 -271.7 Q-40.85 -273.15 -39.8 -274.05 -36.95 -276.5 -24.2 -277.35 -24.3 -285.2 -20.25 -294.7 -16.0 -304.55 -8.1 -314.1 L-1.25 -322.9 Q4.85 -330.45 9.55 -334.85 23.85 -348.3 23.85 -331.5 L22.55 -319.05 Q21.25 -308.2 21.25 -306.6 M29.9 -246.7 L28.75 -247.7 28.6 -245.5 29.9 -246.7 M-7.3 -252.45 L-3.55 -247.15 -4.25 -256.65 Q-5.2 -253.65 -7.3 -252.45" fill="#ff0000" fill-opacity="0.11764706" fill-rule="evenodd" stroke="none"/>
      <path d="M8.2 -306.05 L8.45 -305.3 9.45 -305.65 8.65 -303.55 8.65 -303.3 Q8.65 -301.95 7.35 -295.4 6.0 -288.85 6.0 -287.55 6.0 -277.95 13.1 -266.6 16.8 -260.7 18.0 -258.0 20.2 -252.95 20.2 -247.8 20.2 -242.9 16.6 -231.2 12.95 -219.55 12.95 -215.35 12.95 -212.55 17.5 -208.15 18.55 -207.1 26.35 -200.55 29.0 -198.3 32.15 -194.15 L37.4 -186.9 Q41.25 -181.55 41.05 -171.55 L40.65 -163.4 Q40.45 -158.7 40.8 -155.9 43.65 -160.7 43.4 -171.3 43.15 -182.25 45.9 -187.65 L47.85 -188.6 48.8 -189.1 48.85 -188.85 Q49.45 -188.65 49.45 -187.4 L49.2 -184.65 Q50.5 -169.35 53.15 -160.65 54.45 -156.4 59.15 -145.8 61.95 -139.5 61.95 -133.2 61.95 -117.1 55.25 -109.75 51.9 -106.5 50.65 -104.7 48.55 -101.7 48.55 -97.1 48.55 -93.3 50.05 -85.7 51.55 -78.1 51.55 -70.6 51.55 -62.4 50.1 -53.65 48.65 -44.6 45.9 -36.85 43.7 -30.6 37.4 -27.65 34.35 -26.2 25.0 -24.1 16.95 -22.3 13.4 -19.7 12.05 -18.7 11.0 -17.4 10.75 -13.15 7.45 -8.7 L7.35 -7.85 6.95 -8.0 6.0 -6.85 Q0.15 0.0 -8.1 0.0 -20.25 0.0 -26.1 -4.8 -30.85 -8.7 -37.0 -21.5 -37.45 -22.5 -38.6 -23.85 -46.15 -26.5 -50.8 -33.55 -54.95 -39.8 -54.95 -46.05 L-54.75 -49.85 Q-57.1 -53.75 -60.9 -57.25 L-72.15 -66.8 Q-82.25 -76.7 -82.25 -89.6 -82.25 -99.25 -80.15 -106.7 -78.4 -112.9 -74.4 -119.95 L-65.75 -134.15 Q-60.15 -143.35 -55.75 -152.3 L-55.75 -152.35 Q-55.75 -153.95 -55.1 -154.3 L-54.45 -154.45 -52.1 -154.2 -51.75 -151.65 Q-49.9 -149.3 -49.35 -145.9 -49.05 -144.15 -49.05 -138.2 -49.05 -132.3 -49.25 -130.8 -49.7 -127.1 -51.8 -123.9 L-52.1 -123.1 Q-44.2 -123.45 -37.05 -140.95 -34.45 -147.4 -32.7 -154.45 -31.1 -160.75 -31.1 -163.65 -31.1 -170.05 -35.0 -178.4 -38.95 -186.8 -38.95 -190.15 -38.95 -199.65 -35.45 -206.95 -33.0 -212.1 -27.8 -217.7 L-20.15 -226.15 Q-16.65 -230.9 -16.65 -236.1 L-18.0 -240.65 -17.95 -242.15 -17.95 -243.85 -17.95 -245.4 -18.0 -247.35 Q-17.0 -245.4 -15.75 -241.65 L-15.4 -240.6 -15.65 -241.85 Q-16.35 -244.8 -18.0 -247.7 -18.2 -251.05 -18.9 -254.2 -17.4 -254.75 -15.65 -252.7 -12.3 -247.4 -10.75 -245.7 -8.55 -242.75 -7.95 -238.75 -7.7 -237.0 -7.7 -232.3 -7.7 -226.8 -9.05 -222.15 L-11.8 -214.7 Q-14.75 -206.95 -13.8 -196.9 L-7.55 -204.25 Q-0.15 -212.7 1.7 -218.0 2.9 -221.4 4.8 -230.15 7.05 -240.5 7.05 -245.0 7.05 -249.5 3.0 -265.2 -1.05 -280.9 -1.05 -282.8 -1.05 -288.9 1.65 -296.0 2.7 -298.75 3.85 -300.7 5.05 -303.85 7.35 -308.0 L8.2 -306.05 M63.9 -276.15 Q65.95 -276.4 67.75 -274.8 72.7 -275.0 77.3 -268.9 79.65 -265.8 81.25 -261.85 82.65 -258.3 82.65 -256.2 82.65 -243.7 73.0 -234.2 L66.35 -227.8 Q63.35 -224.4 63.35 -221.15 63.35 -219.8 64.4 -213.25 L65.45 -205.4 Q65.45 -195.95 65.0 -193.85 63.55 -187.35 56.95 -181.1 L56.2 -181.65 Q56.0 -181.85 56.0 -183.45 L56.4 -184.95 56.0 -186.1 Q55.75 -187.25 55.75 -189.0 55.75 -190.3 56.75 -193.45 57.75 -196.6 57.75 -197.9 L57.9 -202.35 Q57.9 -206.75 57.5 -210.25 56.2 -221.25 50.65 -221.25 48.3 -221.25 47.2 -218.7 L46.2 -215.35 45.2 -215.25 45.05 -214.9 Q44.7 -214.45 43.55 -214.3 L42.95 -215.4 42.75 -215.4 Q42.55 -215.5 42.5 -216.45 41.95 -218.0 41.55 -219.95 41.05 -222.7 41.05 -225.2 41.05 -231.25 45.3 -234.8 47.25 -236.45 54.65 -239.9 61.15 -242.95 64.0 -246.35 68.25 -251.3 68.25 -259.85 68.25 -262.1 65.8 -268.45 L63.35 -274.55 63.4 -276.05 63.9 -276.15 M61.95 -205.1 L61.65 -208.1 61.65 -206.3 61.3 -201.4 61.95 -205.1 M-58.15 -218.3 Q-57.75 -218.0 -57.75 -216.3 -57.75 -215.45 -61.45 -209.3 -65.2 -203.1 -65.2 -197.4 -65.2 -190.2 -60.6 -180.9 -56.0 -171.6 -56.0 -168.5 -56.0 -163.05 -59.2 -155.65 -62.8 -147.45 -67.55 -144.6 L-67.95 -144.2 Q-68.35 -144.15 -68.35 -145.8 -68.35 -147.1 -67.3 -151.05 -66.25 -154.95 -66.25 -156.3 -66.25 -159.65 -69.0 -162.35 L-74.95 -166.9 Q-83.7 -173.4 -83.7 -183.75 -83.7 -194.55 -78.9 -201.15 -74.95 -206.6 -59.55 -218.75 L-58.15 -218.3" fill="#f28420" fill-rule="evenodd" stroke="none"/>
      <path d="M4.55 -189.35 L4.1 -181.6 3.85 -173.1 Q3.0 -168.25 3.0 -167.05 3.0 -163.05 4.7 -155.45 5.25 -152.9 5.9 -150.95 8.15 -142.65 12.7 -142.65 19.9 -142.65 22.55 -159.1 L23.35 -165.6 Q25.75 -161.8 27.0 -156.65 28.45 -150.65 28.45 -141.45 L27.7 -139.05 28.3 -133.95 28.5 -131.85 28.55 -131.85 29.3 -134.35 Q29.55 -137.65 31.3 -140.7 33.15 -144.0 36.45 -146.7 L36.8 -146.3 36.85 -144.5 35.4 -133.35 35.4 -133.1 Q36.7 -124.85 38.85 -117.5 41.6 -108.05 41.6 -99.6 41.6 -87.2 40.95 -84.5 39.6 -79.05 34.45 -73.4 L34.85 -72.65 34.65 -72.5 31.3 -69.7 31.35 -70.3 30.8 -69.8 26.6 -69.8 Q25.4 -70.1 23.7 -73.45 22.1 -76.65 19.4 -77.0 L14.9 -76.7 11.1 -71.8 8.15 -67.45 8.1 -65.75 Q8.1 -59.7 4.65 -52.6 -0.05 -42.9 -8.1 -42.9 -18.65 -42.9 -24.65 -50.15 -29.0 -55.4 -29.0 -60.1 -29.0 -62.6 -26.9 -64.45 L-22.3 -67.4 Q-15.6 -71.45 -15.6 -77.7 -15.6 -80.55 -18.5 -85.05 -21.6 -89.9 -24.25 -89.9 L-28.7 -89.35 Q-31.95 -87.75 -35.1 -82.0 -37.95 -76.75 -42.1 -75.6 L-42.25 -75.6 -42.35 -74.65 -42.35 -74.3 -44.75 -74.0 -47.95 -73.8 -47.6 -74.7 -48.3 -74.65 Q-51.75 -74.65 -52.9 -81.2 -53.5 -84.55 -53.4 -88.2 -53.4 -97.6 -47.85 -105.35 -45.1 -109.15 -35.85 -117.8 -27.6 -125.5 -24.35 -131.35 L-23.3 -133.35 -23.35 -138.85 -22.8 -146.85 -22.05 -158.0 Q-19.3 -158.7 -15.7 -152.6 L-11.45 -145.4 -11.25 -145.4 Q-9.7 -145.4 -9.3 -145.8 L-8.9 -146.2 Q-9.75 -153.85 -7.75 -163.65 -6.05 -171.9 -2.75 -180.2 -1.15 -184.1 1.65 -188.45 L1.75 -188.6 4.55 -189.35" fill="#ffcc00" fill-rule="evenodd" stroke="none"/>
      <path d="M15.95 -325.95 L16.05 -322.55 Q16.05 -319.15 14.1 -312.3 12.15 -305.45 12.15 -302.55 12.15 -290.4 14.75 -282.75 16.45 -277.7 20.45 -272.45 24.85 -266.65 26.15 -263.7 28.75 -257.85 28.75 -248.6 28.75 -243.65 26.8 -235.95 24.85 -228.2 24.85 -223.75 24.85 -219.15 28.75 -210.6 33.85 -199.55 40.6 -199.55 45.65 -199.55 46.25 -204.95 L46.35 -205.8 45.5 -206.25 Q44.55 -205.7 43.35 -205.7 40.9 -205.7 39.05 -207.2 33.6 -210.65 33.6 -224.9 33.6 -231.65 39.05 -238.45 46.05 -247.2 58.65 -249.6 60.75 -251.35 62.85 -258.7 62.85 -264.9 59.45 -269.6 56.05 -274.25 56.05 -277.7 56.05 -279.6 56.3 -279.25 L57.0 -278.35 57.0 -278.65 57.1 -278.6 56.7 -279.0 Q58.35 -281.7 60.2 -283.1 63.45 -286.8 71.95 -282.7 80.55 -278.55 84.0 -273.45 85.95 -270.5 87.9 -263.75 89.85 -257.0 89.85 -253.0 89.85 -240.2 81.25 -231.8 L75.3 -225.8 Q72.6 -222.3 72.6 -218.05 72.6 -216.4 73.9 -212.45 75.2 -208.45 75.2 -206.85 75.2 -198.6 70.2 -189.6 67.4 -184.5 63.85 -181.0 61.85 -178.6 59.75 -177.65 L56.85 -176.0 Q57.3 -171.95 59.2 -168.25 60.25 -166.15 64.65 -159.85 72.6 -148.5 72.6 -135.65 72.6 -125.5 64.0 -114.9 L58.1 -107.35 Q55.4 -103.15 55.4 -99.25 55.4 -98.75 57.35 -88.95 59.3 -79.15 59.3 -71.95 59.3 -61.4 56.2 -51.7 53.1 -42.05 45.65 -29.05 43.65 -25.5 39.8 -23.45 37.85 -22.45 32.4 -20.65 27.65 -19.1 25.4 -17.5 22.0 -15.05 20.6 -10.85 18.55 -4.6 14.9 -0.45 7.7 7.8 -4.55 7.8 -22.35 7.8 -34.0 -3.55 -39.95 -9.35 -43.35 -16.4 L-56.05 -29.05 Q-57.05 -30.1 -58.7 -35.45 -60.25 -40.4 -62.2 -41.75 -78.7 -53.4 -86.5 -66.65 -93.4 -78.35 -93.4 -91.0 -93.4 -100.75 -83.5 -119.45 L-76.7 -132.25 Q-73.6 -138.5 -73.6 -141.05 -73.6 -146.95 -76.9 -153.05 -78.9 -156.8 -84.15 -163.5 -89.45 -170.35 -91.4 -173.85 -94.7 -179.75 -94.7 -185.4 -94.7 -197.4 -85.95 -207.95 -76.2 -219.75 -58.3 -225.85 L-54.4 -225.85 Q-51.6 -225.1 -50.8 -223.25 -50.5 -222.55 -50.5 -220.8 -50.5 -219.3 -53.7 -213.2 -56.95 -207.0 -57.0 -205.7 L-58.0 -197.8 -58.65 -191.1 Q-58.65 -182.25 -52.65 -173.15 L-47.0 -164.65 Q-43.45 -159.05 -41.1 -153.4 -40.4 -154.3 -40.2 -155.75 L-40.1 -159.55 Q-40.1 -164.9 -42.7 -173.45 -45.3 -182.0 -45.3 -191.75 -45.3 -203.4 -41.7 -211.05 -39.25 -216.15 -33.75 -221.55 -27.5 -227.75 -25.85 -230.3 -22.25 -235.95 -22.25 -244.2 -22.25 -246.2 -24.85 -253.05 L-27.45 -260.15 -27.3 -263.05 Q-17.9 -262.6 -11.1 -256.5 -7.4 -253.25 -3.55 -247.15 -3.55 -248.75 -4.85 -263.0 L-6.15 -278.85 Q-6.15 -295.3 -0.9 -310.85 5.5 -329.8 15.4 -328.4 L15.95 -325.95" fill="#ffcc33" fill-opacity="0.3529412" fill-rule="evenodd" stroke="none"/>
    </g>
    <g id="shape4" transform="matrix(1.0, 0.0, 0.0, 1.0, 102.5, 284.5)">
      <path d="M1.65 -257.45 Q1.0 -262.05 1.1 -264.65 1.45 -273.8 10.2 -273.8 20.4 -273.8 26.05 -260.85 27.85 -256.7 28.95 -251.7 L29.7 -247.15 Q29.7 -246.35 30.05 -245.85 L35.3 -249.05 43.05 -253.3 Q39.1 -256.7 34.7 -259.7 32.3 -261.7 32.3 -265.0 32.3 -271.8 38.5 -277.65 45.7 -284.5 57.0 -284.5 74.15 -284.5 81.05 -271.85 83.25 -267.8 84.15 -262.85 84.65 -260.2 84.65 -258.2 84.65 -251.55 80.55 -240.9 75.3 -228.35 72.95 -221.3 71.95 -218.3 71.45 -212.05 70.9 -205.15 70.35 -202.8 69.75 -200.3 64.65 -194.05 59.95 -188.3 59.95 -185.7 59.95 -183.7 60.95 -181.05 61.4 -177.55 63.2 -173.45 L68.65 -162.65 Q76.5 -147.1 76.5 -132.1 76.5 -124.3 75.1 -118.95 74.35 -116.05 72.0 -110.9 67.5 -101.0 67.5 -86.75 L68.5 -73.8 69.5 -60.85 Q69.5 -47.4 66.6 -37.85 62.25 -23.6 51.5 -17.0 L48.85 -15.55 46.1 -14.4 45.7 -14.25 43.25 -13.4 34.85 -10.65 Q29.45 -8.55 26.05 -4.8 L24.9 -3.95 24.15 -3.2 22.25 -3.5 Q20.5 -0.7 14.45 2.9 6.15 7.8 0.65 7.8 -10.85 7.8 -26.8 1.75 -31.15 0.1 -34.65 -1.55 L-37.25 -4.0 -45.15 -11.2 Q-50.95 -16.5 -52.0 -18.25 L-57.2 -26.0 -62.0 -33.25 Q-67.2 -41.9 -74.4 -50.85 L-85.4 -64.15 Q-90.85 -71.0 -93.25 -76.4 -96.25 -83.15 -96.25 -91.0 -96.25 -102.55 -91.5 -114.9 L-87.2 -125.45 -81.75 -133.7 Q-78.15 -139.45 -78.15 -141.7 -78.15 -145.0 -86.65 -150.7 -96.65 -157.4 -97.95 -159.25 -101.8 -164.65 -102.4 -168.5 L-102.5 -176.3 Q-102.5 -179.5 -101.05 -185.7 -99.2 -193.6 -96.05 -200.2 -87.05 -219.35 -71.95 -219.35 -67.35 -219.35 -65.55 -216.7 -64.25 -214.9 -63.6 -210.05 -62.8 -203.75 -62.0 -201.1 -60.3 -195.65 -56.35 -191.75 -53.25 -196.1 -48.2 -209.95 -43.4 -223.05 -39.15 -228.15 -37.5 -230.1 -30.7 -235.8 -24.7 -241.6 -24.7 -246.5 L-25.5 -249.95 Q-26.2 -253.1 -25.95 -255.2 -25.25 -262.1 -14.95 -262.1 -7.6 -262.1 -2.5 -257.45 1.4 -252.65 2.1 -252.35 2.25 -253.3 1.65 -257.45 M39.8 -228.75 L40.65 -229.1 Q40.75 -230.4 40.45 -230.75 L40.45 -230.4 Q40.05 -229.85 39.8 -228.75 M-4.55 -216.4 L-4.55 -215.8 -4.25 -216.15 -4.55 -216.4 M-51.85 -178.6 L-50.2 -178.75 -50.0 -179.5 -51.85 -178.6" fill="#ff0000" fill-opacity="0.11764706" fill-rule="evenodd" stroke="none"/>
    </g>
    <g id="shape5" transform="matrix(1.0, 0.0, 0.0, 1.0, 86.1, 274.55)">
      <path d="M51.1 -272.4 Q52.5 -273.7 54.85 -274.2 L55.35 -274.55 64.15 -274.3 Q70.2 -271.0 72.55 -264.05 74.0 -259.65 74.0 -253.15 74.0 -246.45 69.2 -239.2 63.15 -230.05 60.9 -221.55 60.15 -218.85 60.25 -214.35 L60.55 -206.2 Q60.7 -195.9 56.0 -190.4 L56.55 -200.3 56.95 -208.15 Q56.95 -214.7 56.05 -217.5 53.95 -223.9 47.25 -223.9 44.45 -223.9 41.7 -220.15 39.75 -217.45 39.2 -215.6 L39.3 -215.35 37.4 -215.1 Q35.95 -215.1 34.4 -218.5 33.05 -221.35 33.05 -222.2 33.05 -233.75 37.6 -238.2 40.6 -241.2 47.55 -241.85 55.4 -242.55 57.5 -243.75 62.05 -246.3 62.05 -254.6 62.05 -256.65 57.65 -261.25 L52.2 -266.55 47.25 -264.6 45.55 -265.1 Q44.85 -265.6 44.85 -267.35 44.85 -269.55 48.65 -271.25 L51.05 -272.3 51.1 -272.4 M15.4 -248.2 Q16.25 -243.65 15.85 -238.45 L14.8 -228.2 14.0 -220.5 Q14.0 -214.0 18.45 -208.1 19.8 -206.25 28.2 -197.65 34.85 -190.85 37.9 -184.8 39.65 -181.35 40.75 -177.5 L41.3 -183.45 41.45 -194.45 Q42.3 -201.7 47.75 -202.75 L47.6 -193.05 Q47.4 -186.95 48.0 -183.45 48.85 -178.45 50.45 -172.05 51.05 -169.7 51.05 -164.15 L54.7 -157.05 Q58.6 -149.4 59.55 -144.9 60.5 -140.5 61.3 -134.55 62.05 -129.0 62.05 -126.9 62.05 -119.7 58.15 -111.5 54.2 -103.3 54.2 -93.3 54.2 -89.05 55.7 -79.05 57.2 -69.05 57.2 -64.7 57.2 -53.9 55.1 -45.85 52.25 -34.8 45.15 -26.1 41.1 -21.2 31.0 -18.0 20.3 -14.7 16.65 -11.0 13.55 -6.2 9.3 -2.95 1.2 3.25 -12.3 3.25 -16.5 3.25 -19.6 1.95 L-20.45 1.95 -21.95 0.65 -23.45 -0.6 -30.9 -6.5 Q-38.1 -12.4 -43.95 -18.6 -47.9 -22.8 -50.85 -29.45 L-55.25 -41.05 Q-56.7 -45.05 -62.9 -51.4 -68.05 -56.65 -75.3 -62.45 -83.2 -68.7 -85.1 -73.85 -86.1 -76.55 -86.1 -84.75 -86.1 -105.55 -72.55 -121.5 L-63.3 -132.05 Q-59.05 -137.5 -59.05 -142.25 -59.05 -148.15 -63.0 -151.1 -64.8 -152.45 -71.65 -154.95 -77.65 -157.1 -80.3 -160.0 -84.25 -164.3 -84.25 -172.45 -84.25 -178.8 -82.15 -185.65 -79.7 -193.85 -75.75 -195.95 -74.95 -198.35 -73.5 -199.2 -73.2 -198.35 -73.4 -197.3 L-73.75 -194.6 Q-73.75 -187.4 -72.75 -185.4 -71.9 -183.7 -64.15 -175.05 -50.7 -170.4 -46.1 -159.45 -43.4 -153.05 -43.4 -141.2 -43.05 -136.75 -43.75 -132.55 L-43.75 -132.5 Q-34.65 -148.2 -34.65 -159.7 -34.65 -160.95 -36.35 -171.3 -38.05 -181.65 -38.05 -184.0 -38.05 -191.5 -35.4 -199.3 -32.4 -208.05 -26.6 -215.6 -23.05 -220.25 -21.05 -223.4 -18.15 -227.85 -16.65 -231.75 -15.9 -233.8 -15.45 -240.1 -15.1 -245.0 -13.35 -246.45 -12.0 -244.75 -11.15 -239.25 -10.5 -235.1 -10.5 -232.15 L-10.5 -231.45 Q-9.9 -231.4 -9.7 -230.85 L-10.95 -227.55 -12.05 -220.95 -13.1 -214.85 Q-13.0 -208.3 -11.9 -202.7 L-11.55 -201.5 -10.5 -198.0 Q4.45 -204.1 9.15 -226.8 10.45 -233.05 10.85 -242.0 L11.25 -257.35 Q14.3 -254.2 15.4 -248.2" fill="#f28420" fill-rule="evenodd" stroke="none"/>
    </g>
    <g id="shape6" transform="matrix(1.0, 0.0, 0.0, 1.0, 94.4, 277.4)">
      <path d="M1.75 -188.6 L4.55 -189.35 4.1 -181.6 3.85 -173.1 Q3.0 -168.25 3.0 -167.05 3.0 -163.05 4.7 -155.45 5.25 -152.9 5.9 -150.95 8.15 -142.65 12.7 -142.65 19.9 -142.65 22.55 -159.1 L23.35 -165.6 Q25.75 -161.8 27.0 -156.65 28.45 -150.65 28.45 -141.45 L27.7 -139.05 28.3 -133.95 28.5 -131.85 28.55 -131.85 29.3 -134.35 Q29.55 -137.65 31.3 -140.7 33.15 -144.0 36.45 -146.7 L36.8 -146.3 36.85 -144.5 35.4 -133.35 35.4 -133.1 Q36.7 -124.85 38.85 -117.5 41.6 -108.05 41.6 -99.6 41.6 -87.2 40.95 -84.5 39.6 -79.05 34.45 -73.4 L34.85 -72.65 34.65 -72.5 31.3 -69.7 31.35 -70.3 30.8 -69.8 26.6 -69.8 Q25.4 -70.1 23.7 -73.45 22.1 -76.65 19.4 -77.0 L14.9 -76.7 11.1 -71.8 8.15 -67.45 8.1 -65.75 Q8.1 -59.7 4.65 -52.6 -0.05 -42.9 -8.1 -42.9 -18.65 -42.9 -24.65 -50.15 -29.0 -55.4 -29.0 -60.1 -29.0 -62.6 -26.9 -64.45 L-22.3 -67.4 Q-15.6 -71.45 -15.6 -77.7 -15.6 -80.55 -18.5 -85.05 -21.6 -89.9 -24.25 -89.9 L-28.7 -89.35 Q-31.95 -87.75 -35.1 -82.0 -37.95 -76.75 -42.1 -75.6 L-42.25 -75.6 -42.35 -74.65 -42.35 -74.3 -44.75 -74.0 -47.95 -73.8 -47.6 -74.7 -48.3 -74.65 Q-51.75 -74.65 -52.9 -81.2 -53.5 -84.55 -53.4 -88.2 -53.4 -97.6 -47.85 -105.35 -45.1 -109.15 -35.85 -117.8 -27.6 -125.5 -24.35 -131.35 L-23.3 -133.35 -23.35 -138.85 -22.8 -146.85 -22.05 -158.0 Q-19.3 -158.7 -15.7 -152.6 L-11.45 -145.4 -11.25 -145.4 Q-9.7 -145.4 -9.3 -145.8 L-8.9 -146.2 Q-9.75 -153.85 -7.75 -163.65 -6.05 -171.9 -2.75 -180.2 -1.15 -184.1 1.65 -188.45 L1.75 -188.6" fill="#ffcc00" fill-rule="evenodd" stroke="none"/>
      <path d="M49.9 -259.05 L47.25 -259.15 Q43.15 -259.15 41.75 -261.75 41.1 -262.9 41.1 -264.7 41.1 -265.8 43.0 -268.2 45.1 -270.9 48.0 -273.1 56.0 -279.15 63.5 -276.7 67.85 -275.25 73.2 -268.35 78.15 -262.0 78.15 -259.5 78.15 -248.4 76.55 -242.85 74.4 -235.5 66.75 -224.55 64.25 -220.85 62.25 -204.85 L61.9 -202.3 62.2 -200.65 Q62.2 -196.4 60.35 -194.4 L59.7 -193.8 Q58.5 -191.4 57.0 -191.4 L55.1 -191.6 Q53.2 -190.75 52.35 -189.8 50.5 -187.8 50.5 -183.45 50.5 -179.7 53.95 -173.9 L61.55 -162.2 Q72.6 -144.75 72.6 -128.85 72.6 -122.4 71.2 -117.55 70.35 -114.75 68.05 -110.0 63.5 -100.65 63.5 -90.0 63.5 -88.35 64.8 -80.0 66.1 -71.6 66.1 -70.0 66.1 -59.45 62.35 -47.7 58.35 -35.15 51.15 -25.15 48.25 -21.15 43.15 -18.9 40.2 -17.6 33.5 -15.95 29.25 -14.95 26.55 -13.95 23.05 -9.45 19.95 -4.65 L14.0 4.7 Q11.3 8.6 8.55 10.1 5.35 11.85 -0.15 11.85 -11.3 11.85 -24.65 1.2 -30.75 -3.15 -37.2 -10.1 -40.3 -13.45 -49.4 -24.4 -55.55 -31.85 -58.3 -33.6 L-58.0 -35.2 -61.25 -36.55 -61.55 -37.2 Q-63.55 -41.4 -72.05 -49.85 -81.2 -59.0 -84.0 -63.5 -90.2 -73.55 -90.85 -77.0 -91.4 -79.85 -90.8 -88.85 -90.8 -105.9 -79.6 -124.35 L-71.9 -136.0 Q-68.4 -141.15 -68.4 -142.8 -68.4 -146.05 -72.45 -149.85 -74.9 -152.1 -81.4 -157.0 -94.4 -167.55 -94.4 -179.4 -94.4 -186.65 -91.2 -193.1 -86.9 -201.8 -77.8 -205.7 -72.25 -205.05 -69.1 -200.3 -67.5 -197.9 -64.95 -190.55 -62.75 -184.1 -60.35 -181.65 -56.75 -177.9 -50.2 -178.75 L-48.0 -188.55 Q-46.6 -194.8 -45.2 -198.95 -41.2 -211.2 -33.3 -218.7 -28.7 -223.05 -25.55 -228.05 -22.15 -233.45 -21.45 -238.05 -21.3 -239.1 -21.55 -242.75 -21.75 -246.35 -21.5 -248.3 -20.5 -254.95 -13.0 -254.95 -5.45 -254.95 -2.95 -244.55 -2.15 -241.25 -2.0 -237.35 L-1.95 -234.0 Q-1.95 -231.6 -2.75 -226.2 -3.55 -220.95 -4.55 -216.45 L-4.55 -215.8 Q2.85 -224.4 5.35 -237.3 7.2 -247.0 6.5 -260.8 12.8 -268.8 17.15 -261.2 20.4 -255.55 20.6 -248.45 20.6 -244.0 19.8 -235.35 L19.0 -225.7 Q19.0 -219.85 19.9 -216.6 20.75 -213.65 22.95 -210.75 30.45 -202.85 37.5 -192.7 37.2 -198.8 41.45 -206.15 45.05 -212.35 50.3 -214.85 L50.2 -215.45 50.45 -215.95 Q50.55 -216.45 48.55 -216.45 47.3 -216.45 43.85 -215.1 40.2 -213.7 36.2 -213.5 29.65 -217.25 28.3 -220.05 27.75 -221.3 27.75 -226.85 27.75 -236.05 31.65 -240.85 36.5 -246.8 53.45 -255.9 50.9 -258.65 49.9 -259.05 M40.45 -230.4 Q40.0 -229.75 39.7 -228.45 L39.45 -226.5 39.8 -226.2 Q40.45 -227.3 40.6 -228.95 40.75 -230.4 40.45 -230.75 L40.45 -230.4" fill="#ffcc33" fill-opacity="0.3529412" fill-rule="evenodd" stroke="none"/>
    </g>
  </defs>
</svg>
