<?xml version="1.0" encoding="UTF-8" standalone="no"?>
<svg xmlns:ffdec="https://www.free-decompiler.com/flash" xmlns:xlink="http://www.w3.org/1999/xlink" ffdec:objectType="frame" height="45.15px" width="45.4px" xmlns="http://www.w3.org/2000/svg">
  <g transform="matrix(1.0, 0.0, 0.0, 1.0, 0.35, 2.55)">
    <use ffdec:characterId="2154" height="45.15" transform="matrix(1.0, 0.0, 0.0, 1.0, -0.35, -2.55)" width="45.4" xlink:href="#shape0"/>
  </g>
  <defs>
    <g id="shape0" transform="matrix(1.0, 0.0, 0.0, 1.0, 0.35, 2.55)">
      <path d="M45.05 -2.55 L44.35 -1.35 44.3 -1.3 Q39.0 7.3 35.25 11.15 34.45 11.95 32.7 14.6 31.15 16.95 29.8 18.0 27.75 19.55 26.1 22.3 L24.8 24.7 24.9 24.7 24.8 24.85 24.7 24.95 24.55 25.15 24.2 25.2 23.35 25.35 23.25 25.45 22.15 25.75 21.25 25.95 19.95 26.55 19.3 26.8 19.2 26.9 15.2 30.4 15.1 30.4 14.25 31.35 12.25 33.75 12.0 33.9 11.15 35.05 10.7 35.6 Q9.55 37.05 9.15 38.85 8.7 41.2 8.45 41.35 L8.0 41.6 Q7.15 42.25 4.9 42.6 L4.8 42.6 Q2.3 42.3 0.85 40.85 0.25 40.25 -0.35 38.75 L-0.3 37.4 Q0.05 35.15 0.7 34.3 L0.75 34.25 0.95 33.85 3.45 33.15 Q5.2 32.7 6.7 31.6 L7.25 31.15 8.4 30.3 8.55 30.05 10.95 28.05 12.1 27.1 14.95 23.85 15.5 23.0 15.75 22.35 16.35 21.05 16.45 20.55 17.0 18.9 17.0 18.8 17.1 18.0 17.15 17.95 17.15 17.75 19.95 16.15 Q22.75 14.55 24.3 12.5 25.35 11.15 27.7 9.6 L31.15 7.05 Q34.95 3.35 43.3 -1.8 L45.05 -2.55 M41.8 0.4 L37.55 3.35 Q29.95 8.45 24.55 13.85 L21.3 16.5 19.5 17.6 18.0 18.7 Q17.8 18.9 17.75 19.45 L17.6 20.4 17.35 21.15 17.55 21.45 Q19.05 21.25 20.8 19.5 L21.05 18.95 21.35 18.4 Q21.8 17.95 23.3 17.3 24.8 16.6 25.9 15.5 L29.0 13.4 30.55 12.1 31.2 11.3 31.5 11.0 32.9 9.2 34.5 7.2 38.55 3.45 40.15 2.35 41.65 0.65 41.8 0.4 M40.15 2.95 L41.2 1.7 Q41.0 1.65 40.15 2.35 L38.8 3.6 37.8 4.7 37.25 5.15 35.95 6.7 34.7 7.4 32.9 9.3 Q32.45 9.75 32.2 10.45 L30.3 12.9 29.75 13.35 22.7 21.9 Q22.0 22.6 20.95 24.85 L21.1 24.9 21.9 24.7 22.85 24.55 23.6 24.3 24.7 22.8 25.8 21.0 28.45 17.75 Q33.85 12.35 38.95 4.75 L40.15 2.95 M28.1 14.55 L24.15 17.15 Q21.75 18.65 20.6 19.9 L18.25 22.25 18.45 22.55 19.05 23.25 19.75 23.85 20.4 24.3 Q20.8 23.3 22.5 21.2 L23.95 20.05 25.3 18.55 25.85 17.45 28.2 14.7 28.1 14.55 M16.9 21.8 L16.7 21.9 Q16.45 22.15 16.5 22.8 L16.55 23.45 17.05 24.05 17.4 24.3 18.3 25.2 18.65 25.65 18.85 25.75 19.5 25.8 20.4 25.6 20.5 25.4 19.15 23.85 18.9 23.7 18.75 23.55 18.6 23.4 18.45 23.15 16.9 21.8 M17.35 25.05 L16.65 24.35 16.6 24.3 Q16.25 23.95 15.75 24.45 L15.65 24.55 15.7 24.7 15.7 25.1 16.6 26.3 17.1 26.8 17.3 27.0 17.35 27.05 17.4 27.0 17.95 26.85 18.1 26.2 18.0 25.7 17.9 25.6 17.35 25.05 M14.25 27.75 L15.9 28.7 16.0 28.6 16.35 28.45 16.6 28.0 17.0 27.6 Q16.8 26.9 16.0 26.1 L15.9 26.0 15.0 25.1 13.9 26.1 13.15 26.85 13.3 26.9 13.25 26.95 13.2 27.1 14.25 27.75 M13.3 28.9 L13.35 28.95 13.7 29.4 14.5 30.1 15.5 29.1 15.3 29.0 Q15.4 28.6 14.5 28.0 L14.45 27.95 14.3 27.9 Q13.35 27.35 13.0 27.6 12.9 27.6 12.75 27.75 L12.65 27.95 12.7 28.1 12.95 28.45 13.0 28.5 13.0 28.6 13.3 28.9 M13.15 29.05 L13.05 28.95 13.0 28.9 12.55 28.55 12.1 28.0 11.85 28.25 10.4 29.7 10.35 29.75 10.2 30.0 10.2 30.2 10.9 31.1 11.1 31.3 11.9 31.9 12.05 32.05 12.35 32.25 12.5 32.1 12.75 31.85 12.95 31.55 13.9 30.6 14.1 30.5 14.2 30.3 14.15 30.15 13.35 29.25 13.15 29.05 M9.3 32.4 L9.55 32.75 9.9 33.0 10.1 33.3 10.4 33.5 10.9 33.5 10.95 33.45 11.25 33.25 11.3 33.2 12.0 32.6 11.65 32.15 11.55 32.05 11.4 31.9 10.85 31.35 10.05 30.65 9.65 30.35 9.1 31.0 9.05 31.05 8.85 31.35 8.8 31.4 8.8 31.9 9.0 32.2 9.3 32.4 M3.0 34.5 L2.85 34.55 2.4 34.7 2.25 34.65 Q1.8 35.1 1.9 35.5 L2.75 35.55 2.8 35.3 3.1 35.4 3.2 35.3 Q3.45 35.05 3.75 35.05 L3.95 35.05 4.95 35.35 5.2 35.2 5.55 34.95 5.5 35.0 5.7 34.9 5.45 35.55 5.5 35.7 5.4 35.8 5.0 36.5 3.0 36.3 2.85 36.25 2.75 36.8 Q2.5 37.25 2.6 37.6 L2.4 37.6 Q2.15 37.15 2.35 36.65 L2.5 36.3 2.55 36.25 2.3 36.2 2.25 36.25 2.2 36.2 Q1.15 35.95 0.95 35.45 L0.75 35.75 Q0.0 36.6 0.6 38.3 1.0 39.5 1.8 40.5 L2.35 40.85 2.55 40.75 2.5 40.7 2.95 40.25 3.2 39.8 3.1 39.7 Q3.4 39.4 3.2 38.5 L3.6 39.1 3.45 39.45 3.3 40.7 3.35 40.75 3.45 40.85 3.8 41.6 4.0 41.7 6.55 41.55 7.15 40.95 Q6.5 41.1 6.1 39.7 5.85 38.95 5.7 37.6 L5.75 37.35 5.7 37.3 5.8 37.2 6.0 36.9 6.25 36.65 6.5 36.6 7.15 36.45 7.1 36.5 6.85 37.05 6.9 37.1 7.1 37.3 Q7.5 37.7 7.25 38.75 L7.05 39.25 6.7 39.5 6.55 39.75 Q6.75 40.25 7.0 40.2 L7.2 40.0 7.3 39.8 7.45 40.05 Q7.9 38.6 9.85 35.75 L10.05 34.95 10.1 35.0 10.05 34.85 10.1 34.6 10.0 34.7 9.6 35.2 Q9.2 35.6 8.85 35.45 L9.9 34.05 9.9 34.0 9.7 33.7 9.4 33.3 9.4 33.4 9.1 33.7 8.1 34.5 7.9 34.3 8.8 32.95 8.9 32.8 8.55 32.65 8.4 32.55 7.95 32.95 Q7.2 33.7 6.7 33.3 L7.0 32.8 7.8 32.2 7.45 32.25 7.3 32.2 6.55 32.45 3.0 34.5 M5.95 36.15 L5.95 35.95 Q5.9 35.6 6.0 35.2 L6.35 34.35 6.5 34.2 6.7 34.1 Q6.8 34.1 6.95 34.25 L7.05 34.85 6.95 35.25 7.9 35.2 7.95 35.45 7.85 35.75 7.75 35.85 7.65 35.95 7.55 36.05 7.4 36.1 6.6 36.2 6.45 36.15 6.25 36.15 6.0 36.2 5.95 36.15 M2.7 37.7 L2.9 37.9 3.1 38.2 3.05 38.25 2.7 37.7" fill="#111111" fill-rule="evenodd" stroke="none"/>
      <path d="M41.8 0.4 L41.65 0.65 40.15 2.35 38.55 3.45 34.5 7.2 32.9 9.2 31.5 11.0 31.2 11.3 30.55 12.1 29.0 13.4 25.9 15.5 Q24.8 16.6 23.3 17.3 21.8 17.95 21.35 18.4 L21.05 18.95 20.8 19.5 Q19.05 21.25 17.55 21.45 L17.35 21.15 17.6 20.4 17.75 19.45 Q17.8 18.9 18.0 18.7 L19.5 17.6 21.3 16.5 24.55 13.85 Q29.95 8.45 37.55 3.35 L41.8 0.4 M28.1 14.55 L28.2 14.7 25.85 17.45 25.3 18.55 23.95 20.05 22.5 21.2 Q20.8 23.3 20.4 24.3 L19.75 23.85 19.05 23.25 18.45 22.55 18.25 22.25 20.6 19.9 Q21.75 18.65 24.15 17.15 L28.1 14.55 M3.0 34.5 L6.55 32.45 7.3 32.2 7.45 32.25 7.8 32.2 7.0 32.8 6.7 33.3 Q7.2 33.7 7.95 32.95 L8.4 32.55 8.55 32.65 8.9 32.8 8.8 32.95 7.9 34.3 7.05 34.85 6.95 34.25 Q6.8 34.1 6.7 34.1 L6.5 34.2 6.35 34.35 6.0 35.2 Q5.9 35.6 5.95 35.95 L5.95 36.15 5.65 36.55 5.55 36.65 Q5.35 36.85 4.9 38.4 4.45 39.95 3.9 40.5 L3.45 40.85 3.35 40.75 3.3 40.7 3.45 39.45 3.6 39.1 3.2 38.5 Q3.4 39.4 3.1 39.7 L3.2 39.8 2.95 40.25 2.5 40.7 2.55 40.75 2.35 40.85 1.8 40.5 Q1.0 39.5 0.6 38.3 0.0 36.6 0.75 35.75 L0.95 35.45 Q1.15 35.95 2.2 36.2 L2.25 36.25 2.5 36.3 2.35 36.65 Q2.15 37.15 2.4 37.6 L2.6 37.6 Q2.5 37.25 2.75 36.8 L2.85 36.25 2.9 36.3 3.0 36.3 5.0 36.5 5.4 35.8 5.5 35.7 5.45 35.55 5.7 34.9 5.5 35.0 5.55 34.95 5.2 35.2 4.95 35.35 3.95 35.05 3.75 35.05 3.0 34.5 M6.9 37.1 L6.85 37.05 7.1 36.5 7.15 36.45 7.45 36.15 7.4 36.1 7.55 36.05 7.65 35.95 7.8 36.1 7.95 36.35 8.25 36.55 8.1 36.8 8.1 37.0 Q8.15 37.65 7.85 37.95 L7.35 37.25 7.1 37.2 6.9 37.1 M2.7 37.7 L3.05 38.25 3.1 38.2 2.9 37.9 2.7 37.7" fill="#f0e1a8" fill-rule="evenodd" stroke="none"/>
      <path d="M16.9 21.8 L18.45 23.15 18.6 23.4 18.75 23.55 18.9 23.7 19.15 23.85 20.5 25.4 20.4 25.6 19.5 25.8 18.85 25.75 18.65 25.65 18.3 25.2 17.4 24.3 17.05 24.05 16.55 23.45 16.5 22.8 Q16.45 22.15 16.7 21.9 L16.9 21.8" fill="#404040" fill-rule="evenodd" stroke="none"/>
      <path d="M16.6 26.3 L15.7 25.1 15.7 24.7 15.65 24.55 15.75 24.45 Q16.25 23.95 16.6 24.3 L16.65 24.35 17.35 25.05 Q16.85 25.55 16.6 26.3 M14.25 27.75 L13.2 27.1 13.25 26.95 13.3 26.9 13.15 26.85 13.9 26.1 15.0 25.1 15.9 26.0 16.0 26.1 14.8 27.1 14.25 27.75 M14.3 27.9 L14.1 28.1 13.3 28.9 13.0 28.6 13.0 28.5 12.95 28.45 12.7 28.1 12.65 27.95 12.75 27.75 Q12.9 27.6 13.0 27.6 13.35 27.35 14.3 27.9 M11.1 31.3 L10.9 31.1 10.2 30.2 10.2 30.0 10.35 29.75 10.4 29.7 11.85 28.25 12.1 28.0 12.55 28.55 13.0 28.9 13.05 28.95 13.15 29.05 11.1 31.3 M10.85 31.35 L10.45 31.55 9.3 32.4 9.0 32.2 8.8 31.9 8.8 31.4 8.85 31.35 9.05 31.05 9.1 31.0 9.65 30.35 10.05 30.65 10.85 31.35" fill="#816f4b" fill-rule="evenodd" stroke="none"/>
      <path d="M40.15 2.95 L38.95 4.75 Q33.85 12.35 28.45 17.75 L25.8 21.0 24.7 22.8 23.6 24.3 22.85 24.55 21.9 24.7 21.1 24.9 20.95 24.85 Q22.0 22.6 22.7 21.9 L29.75 13.35 30.3 12.9 32.2 10.45 Q32.45 9.75 32.9 9.3 L34.7 7.4 35.95 6.7 37.25 5.15 37.8 4.7 38.8 3.6 40.15 2.35 Q41.0 1.65 41.2 1.7 L40.15 2.95 M3.75 35.05 Q3.45 35.05 3.2 35.3 L3.1 35.4 2.8 35.3 2.75 35.55 1.9 35.5 Q1.8 35.1 2.25 34.65 L2.4 34.7 2.85 34.55 3.0 34.5 3.75 35.05 M7.9 34.3 L8.1 34.5 9.1 33.7 9.4 33.4 9.4 33.3 9.7 33.7 9.9 34.0 9.9 34.05 8.85 35.45 Q9.2 35.6 9.6 35.2 L10.0 34.7 10.1 34.6 10.05 34.85 10.1 35.0 10.05 34.95 9.85 35.75 Q7.9 38.6 7.45 40.05 L7.3 39.8 7.2 40.0 7.0 40.2 Q6.75 40.25 6.55 39.75 L6.7 39.5 7.05 39.25 7.25 38.75 Q7.5 37.7 7.1 37.3 L6.9 37.1 7.1 37.2 7.35 37.25 7.85 37.95 Q8.15 37.65 8.1 37.0 L8.1 36.8 8.25 36.55 7.95 36.35 7.8 36.1 7.65 35.95 7.75 35.85 7.85 35.75 7.95 35.45 7.9 35.2 6.95 35.25 7.05 34.85 7.9 34.3 M7.15 36.45 L6.5 36.6 6.25 36.65 6.0 36.9 5.8 37.2 5.7 37.3 5.75 37.35 5.7 37.6 Q5.85 38.95 6.1 39.7 6.5 41.1 7.15 40.95 L6.55 41.55 4.0 41.7 3.8 41.6 3.45 40.85 3.9 40.5 Q4.45 39.95 4.9 38.4 5.35 36.85 5.55 36.65 L5.65 36.55 5.95 36.15 6.0 36.2 6.25 36.15 6.45 36.15 6.6 36.2 7.4 36.1 7.45 36.15 7.15 36.45 M2.25 36.25 L2.3 36.2 2.55 36.25 2.5 36.3 2.25 36.25 M2.85 36.25 L3.0 36.3 2.9 36.3 2.85 36.25" fill="#abb76a" fill-rule="evenodd" stroke="none"/>
      <path d="M17.35 25.05 L17.9 25.6 18.0 25.7 18.1 26.2 17.95 26.85 17.4 27.0 17.35 27.05 17.3 27.0 17.1 26.8 16.6 26.3 Q16.85 25.55 17.35 25.05 M16.0 26.1 Q16.8 26.9 17.0 27.6 L16.6 28.0 16.35 28.45 16.0 28.6 15.9 28.7 14.25 27.75 14.8 27.1 16.0 26.1 M14.3 27.9 L14.45 27.95 14.5 28.0 Q15.4 28.6 15.3 29.0 L15.5 29.1 14.5 30.1 13.7 29.4 13.35 28.95 13.3 28.9 14.1 28.1 14.3 27.9 M11.1 31.3 L13.15 29.05 13.35 29.25 14.15 30.15 14.2 30.3 14.1 30.5 13.9 30.6 12.95 31.55 12.75 31.85 12.5 32.1 12.35 32.25 12.05 32.05 11.9 31.9 11.1 31.3 M10.85 31.35 L11.4 31.9 11.55 32.05 11.65 32.15 12.0 32.6 11.3 33.2 11.25 33.25 10.95 33.45 10.9 33.5 10.4 33.5 10.1 33.3 9.9 33.0 9.55 32.75 9.3 32.4 10.45 31.55 10.85 31.35" fill="#55543c" fill-rule="evenodd" stroke="none"/>
    </g>
  </defs>
</svg>
