<?xml version="1.0" encoding="UTF-8" standalone="no"?>
<svg xmlns:ffdec="https://www.free-decompiler.com/flash" xmlns:xlink="http://www.w3.org/1999/xlink" ffdec:objectType="frame" height="210.95px" width="288.85px" xmlns="http://www.w3.org/2000/svg">
  <g transform="matrix(1.0, 0.0, 0.0, 1.0, 230.7, 173.4)">
    <use ffdec:characterId="1023" ffdec:characterName="a_EB_MistPart1Frame07" height="127.4" transform="matrix(1.0, 0.0, 0.0, 1.0, -145.45, -94.15)" width="172.2" xlink:href="#sprite0"/>
    <use ffdec:characterId="1025" ffdec:characterName="a_EB_MistPart1Frame03" height="62.65" transform="matrix(1.0, 0.0, 0.0, 1.0, -61.9, -45.9)" width="113.4" xlink:href="#sprite1"/>
  </g>
  <defs>
    <g id="sprite0" transform="matrix(1.0, 0.0, 0.0, 1.0, 86.1, 63.7)">
      <use ffdec:characterId="1022" height="18.2" transform="matrix(7.0, 0.0, 0.0, 7.0, -86.1, -63.7)" width="24.6" xlink:href="#shape0"/>
    </g>
    <g id="shape0" transform="matrix(1.0, 0.0, 0.0, 1.0, 12.3, 9.1)">
      <path d="M0.9 -4.55 Q1.15 -4.4 1.35 -4.2 1.5 -4.05 1.55 -3.85 2.25 -3.55 2.7 -2.75 3.05 -2.2 3.5 -1.7 4.4 -1.3 5.15 -0.65 6.4 0.35 7.9 0.8 9.1 1.15 10.3 1.3 7.65 1.5 5.45 0.05 5.1 -0.05 4.8 -0.2 L4.7 -0.25 Q4.15 -0.5 3.7 -0.85 L3.25 -1.2 2.95 -1.45 Q2.3 -1.6 1.6 -1.5 L1.5 -1.5 Q1.55 -1.4 1.4 -1.25 L1.4 -1.2 1.35 -1.1 Q1.25 -0.85 1.3 -0.6 1.35 -0.4 1.25 -0.1 L1.3 0.0 1.45 0.1 1.7 0.3 Q1.75 0.35 1.8 0.45 L1.8 0.55 Q1.55 0.7 1.35 0.75 1.55 0.9 1.6 1.1 L1.85 0.95 2.05 0.9 2.1 0.9 2.2 0.85 Q2.5 0.7 2.8 0.65 5.15 0.15 6.3 1.95 7.25 3.4 8.95 3.9 9.75 3.9 10.45 4.2 10.95 4.2 11.45 4.2 10.65 4.45 9.95 4.5 L8.7 4.4 7.15 4.0 Q5.35 3.45 4.0 4.55 3.85 4.65 3.75 4.9 L3.85 5.1 4.1 5.4 Q4.15 5.45 4.2 5.45 L4.5 5.7 4.65 5.8 4.7 5.85 4.7 5.95 4.9 6.05 3.85 6.15 Q3.4 6.4 3.0 6.35 2.15 6.85 1.45 6.0 1.05 5.6 0.8 5.15 0.6 4.75 0.75 4.45 L0.8 4.25 0.6 4.15 0.3 3.85 0.1 3.7 Q-1.95 2.6 -2.8 4.7 -2.9 4.95 -3.05 5.2 L-3.05 5.7 -3.0 5.75 -2.9 5.95 Q-2.7 6.1 -2.65 6.35 L-2.65 6.4 Q-2.1 6.55 -1.45 6.4 -0.9 6.25 -0.7 6.7 L-0.65 6.8 Q-2.8 9.55 -7.25 9.05 -8.85 8.85 -10.4 8.55 -11.65 8.25 -12.2 7.1 L-12.2 7.0 -12.15 6.9 -12.0 6.7 Q-12.7 5.25 -11.65 3.85 -10.1 1.85 -8.25 3.5 -7.45 4.2 -7.2 5.3 -5.5 6.1 -4.5 4.25 -4.05 3.35 -3.65 2.35 -3.55 2.1 -3.4 1.95 L-3.45 1.75 Q-3.5 1.45 -3.4 1.25 -3.3 1.0 -3.05 0.85 L-2.95 0.75 Q-1.45 1.0 0.0 0.7 L0.35 0.6 Q-0.2 0.25 -0.7 -0.5 -1.55 -1.9 -0.95 -3.45 -0.55 -4.4 0.3 -4.7 0.6 -4.65 0.9 -4.55 M0.8 -3.65 L0.55 -3.75 Q0.3 -3.7 0.1 -3.45 -0.25 -3.05 -0.15 -2.5 -0.1 -1.9 0.45 -1.7 0.7 -1.75 0.85 -2.0 L1.05 -2.2 1.05 -2.95 Q1.05 -3.2 1.0 -3.35 L0.9 -3.55 0.8 -3.65 M11.95 7.1 Q9.45 8.85 6.6 7.55 6.1 7.3 6.0 6.65 L6.0 6.55 6.05 6.5 Q6.1 6.35 6.15 6.3 L6.25 6.2 Q6.5 5.95 6.75 5.75 6.95 5.6 7.15 5.55 L8.0 5.25 Q8.7 5.0 9.3 5.1 10.15 5.25 10.9 5.45 11.75 5.7 12.25 6.35 12.3 6.85 11.95 7.1 M5.3 2.85 Q5.7 2.55 5.55 2.0 5.4 1.75 5.05 1.65 L4.2 1.35 Q3.75 1.2 3.35 1.15 L3.2 1.2 Q2.9 1.4 2.65 1.65 2.5 1.8 2.4 2.0 2.35 2.1 2.35 2.25 2.35 2.55 2.4 2.75 2.55 3.05 2.85 3.15 4.2 3.75 5.3 2.85 M7.65 6.05 Q7.15 6.4 7.5 6.8 8.4 8.05 9.7 7.0 10.05 6.7 9.95 6.25 L9.8 6.05 Q9.55 5.85 9.25 5.85 L8.25 5.8 Q7.95 5.85 7.65 6.05 M1.5 1.5 L1.45 1.5 1.45 1.55 1.5 1.5 M-8.05 -4.25 L-8.15 -4.3 -8.4 -4.35 -8.75 -4.4 Q-9.3 -4.2 -9.65 -3.6 -10.0 -3.0 -10.05 -2.25 -10.05 -1.8 -9.85 -1.45 -9.2 -1.05 -8.75 -1.65 -8.3 -2.3 -7.95 -3.1 -7.75 -3.7 -8.05 -4.25 M-3.65 -7.5 Q-4.3 -8.2 -5.25 -8.1 -6.15 -7.9 -6.95 -7.25 -7.4 -6.9 -7.1 -6.5 -5.5 -4.7 -2.5 -5.25 -2.25 -5.7 -2.55 -6.15 -3.05 -6.85 -3.65 -7.5 M-7.7 -0.8 Q-7.8 0.0 -8.4 0.6 L-8.5 0.65 Q-9.1 0.9 -9.55 0.5 -9.7 0.4 -9.7 0.25 L-9.7 0.15 -9.65 0.1 Q-12.0 -0.9 -11.25 -4.0 -10.2 -8.15 -6.1 -9.1 -4.75 -9.25 -3.55 -8.7 -2.35 -8.15 -1.5 -7.05 -1.2 -6.65 -0.7 -6.35 -0.5 -6.25 -0.45 -6.1 -0.6 -5.35 -0.85 -4.9 L-0.75 -4.95 Q-1.7 -3.35 -3.5 -4.2 -5.35 -5.05 -6.7 -3.35 -7.5 -2.25 -7.7 -0.8 M-5.9 -2.85 Q-5.6 -3.25 -5.25 -3.3 L-4.35 -3.3 Q-3.95 -3.3 -3.7 -3.0 -3.6 -2.9 -3.55 -2.7 -3.55 -2.45 -3.65 -2.2 -4.1 -1.2 -5.1 -0.75 -6.05 -0.3 -6.55 -1.15 L-6.55 -1.2 -6.4 -1.8 Q-6.2 -2.35 -5.9 -2.85 M-9.5 4.45 Q-10.0 4.6 -10.25 5.1 -10.75 6.15 -10.3 7.1 -9.4 8.8 -7.2 8.3 L-7.1 8.2 Q-6.9 7.95 -6.55 7.9 -6.3 7.85 -6.35 7.7 L-6.5 7.65 Q-6.8 7.55 -6.7 7.3 -6.6 7.05 -6.6 6.75 -6.6 6.1 -7.25 5.9 -7.55 5.75 -7.9 5.7 -7.95 5.4 -8.1 5.15 -8.35 4.8 -8.7 4.65 -9.1 4.5 -9.5 4.45" fill="#ffffff" fill-opacity="0.7529412" fill-rule="evenodd" stroke="none"/>
      <path d="M0.8 -3.65 L0.9 -3.55 1.0 -3.35 Q1.05 -3.2 1.05 -2.95 L1.05 -2.2 0.85 -2.0 Q0.7 -1.75 0.45 -1.7 -0.1 -1.9 -0.15 -2.5 -0.25 -3.05 0.1 -3.45 0.3 -3.7 0.55 -3.75 L0.8 -3.65 M7.65 6.05 Q7.95 5.85 8.25 5.8 L9.25 5.85 Q9.55 5.85 9.8 6.05 L9.95 6.25 Q10.05 6.7 9.7 7.0 8.4 8.05 7.5 6.8 7.15 6.4 7.65 6.05 M5.3 2.85 Q4.2 3.75 2.85 3.15 2.55 3.05 2.4 2.75 2.35 2.55 2.35 2.25 2.35 2.1 2.4 2.0 2.5 1.8 2.65 1.65 2.9 1.4 3.2 1.2 L3.35 1.15 Q3.75 1.2 4.2 1.35 L5.05 1.65 Q5.4 1.75 5.55 2.0 5.7 2.55 5.3 2.85 M-3.65 -7.5 Q-3.05 -6.85 -2.55 -6.15 -2.25 -5.7 -2.5 -5.25 -5.5 -4.7 -7.1 -6.5 -7.4 -6.9 -6.95 -7.25 -6.15 -7.9 -5.25 -8.1 -4.3 -8.2 -3.65 -7.5 M-8.05 -4.25 Q-7.75 -3.7 -7.95 -3.1 -8.3 -2.3 -8.75 -1.65 -9.2 -1.05 -9.85 -1.45 -10.05 -1.8 -10.05 -2.25 -10.0 -3.0 -9.65 -3.6 -9.3 -4.2 -8.75 -4.4 L-8.4 -4.35 -8.15 -4.3 -8.05 -4.25 M-9.5 4.45 Q-9.1 4.5 -8.7 4.65 -8.35 4.8 -8.1 5.15 -7.95 5.4 -7.9 5.7 -7.55 5.75 -7.25 5.9 -6.6 6.1 -6.6 6.75 -6.6 7.05 -6.7 7.3 -6.8 7.55 -6.5 7.65 L-6.35 7.7 Q-6.3 7.85 -6.55 7.9 -6.9 7.95 -7.1 8.2 L-7.2 8.3 Q-9.4 8.8 -10.3 7.1 -10.75 6.15 -10.25 5.1 -10.0 4.6 -9.5 4.45" fill="#ffffff" fill-opacity="0.5019608" fill-rule="evenodd" stroke="none"/>
    </g>
    <g id="sprite1" transform="matrix(1.0, 0.0, 0.0, 1.0, 56.7, 31.5)">
      <use ffdec:characterId="1024" height="8.95" transform="matrix(7.0, 0.0, 0.0, 7.0, -56.7, -31.5)" width="16.2" xlink:href="#shape1"/>
    </g>
    <g id="shape1" transform="matrix(1.0, 0.0, 0.0, 1.0, 8.1, 4.5)">
      <path d="M2.25 -0.2 Q2.2 0.1 1.9 0.1 L1.35 0.15 0.45 0.25 Q1.35 0.65 2.1 1.4 3.35 2.8 3.9 1.0 4.0 0.6 3.65 0.4 L3.35 0.35 2.95 0.3 Q2.8 0.25 2.7 0.1 L2.65 0.0 2.7 -0.3 Q2.7 -0.4 2.8 -0.5 2.85 -0.6 3.0 -0.65 L3.3 -0.75 3.65 -0.6 3.75 -0.65 Q4.15 -0.65 4.45 -0.8 8.25 -0.5 7.35 1.65 L7.45 1.7 7.8 1.85 Q8.0 1.9 8.1 2.15 L8.1 2.25 Q8.0 2.6 7.6 2.75 L6.7 2.7 6.65 2.8 Q6.0 3.6 5.0 4.0 1.05 5.4 -1.8 2.7 -2.3 2.2 -3.05 2.05 -3.7 1.95 -3.95 1.45 -6.55 1.75 -7.75 -0.2 -8.35 -1.2 -7.95 -2.35 -7.55 -3.5 -6.6 -4.2 -6.35 -4.4 -6.1 -4.5 L-5.7 -4.45 -5.25 -4.4 Q-5.0 -4.35 -4.9 -4.2 -4.75 -4.1 -4.65 -4.0 -3.75 -3.6 -3.5 -2.7 -3.3 -2.0 -2.9 -1.35 -2.55 -0.85 -1.9 -0.6 L-1.85 -0.65 -1.3 -0.75 -1.1 -0.8 0.15 -0.7 0.35 -0.7 1.9 -0.55 Q2.2 -0.5 2.25 -0.2 M1.45 -3.25 Q1.5 -3.3 1.6 -3.35 2.2 -3.35 2.65 -3.0 3.1 -2.75 3.55 -2.55 4.05 -2.3 3.95 -1.85 3.45 -1.0 2.45 -1.55 1.75 -1.9 1.4 -2.5 1.15 -2.9 1.45 -3.25 M-4.1 -2.8 L-4.15 -2.9 -4.1 -2.35 -4.1 -2.8" fill="#ffffff" fill-opacity="0.7529412" fill-rule="evenodd" stroke="none"/>
    </g>
  </defs>
</svg>
