<?xml version="1.0" encoding="UTF-8" standalone="no"?>
<svg xmlns:ffdec="https://www.free-decompiler.com/flash" xmlns:xlink="http://www.w3.org/1999/xlink" ffdec:objectType="frame" height="471.35px" width="571.55px" xmlns="http://www.w3.org/2000/svg">
  <g transform="matrix(1.0, 0.0, 0.0, 1.0, 201.25, 410.2)">
    <use ffdec:characterId="1558" height="56.95" transform="matrix(7.0, 0.0, 0.0, 7.0, -26.95, -379.75)" width="33.65" xlink:href="#shape0"/>
  </g>
  <defs>
    <g id="shape0" transform="matrix(1.0, 0.0, 0.0, 1.0, 3.85, 54.25)">
      <path d="M24.3 -47.0 Q24.9 -46.5 25.15 -45.7 L25.35 -44.95 25.45 -44.9 Q25.65 -44.75 25.65 -44.5 25.65 -44.35 25.55 -44.15 L25.35 -44.0 25.4 -43.45 Q25.45 -43.15 25.8 -42.8 L25.95 -42.65 Q26.05 -42.75 26.05 -42.8 26.05 -42.95 26.05 -42.9 26.8 -43.0 27.2 -42.1 27.45 -41.5 27.45 -40.85 27.45 -40.6 27.4 -40.35 27.3 -40.0 27.05 -40.0 26.8 -40.0 26.7 -40.25 26.7 -40.4 26.7 -40.65 L26.55 -41.0 26.35 -41.25 26.0 -41.3 Q25.65 -41.0 25.4 -40.45 L25.05 -39.6 Q24.85 -39.15 24.7 -38.45 25.0 -38.4 25.1 -38.25 25.2 -38.0 25.25 -37.85 25.65 -37.9 25.9 -37.6 26.05 -37.4 26.05 -37.25 26.05 -36.9 25.85 -36.35 25.65 -35.75 25.35 -35.7 L25.2 -35.7 Q25.4 -35.6 25.5 -35.45 L25.55 -35.2 Q25.55 -34.75 25.3 -34.2 L25.25 -34.0 Q25.4 -34.3 25.9 -34.7 L26.0 -34.75 26.2 -34.8 26.3 -34.85 Q26.55 -34.8 26.7 -34.7 L26.75 -34.8 26.8 -34.85 26.55 -34.85 Q26.45 -34.85 26.4 -34.95 26.35 -35.0 26.3 -35.1 26.3 -35.2 26.35 -35.25 L26.7 -35.85 Q27.05 -36.3 27.3 -36.35 L27.4 -36.35 Q28.7 -36.2 28.9 -35.8 29.0 -35.6 28.95 -35.35 L28.9 -35.25 29.0 -34.9 29.2 -34.95 29.25 -34.95 Q29.65 -35.05 29.8 -34.2 L29.8 -34.15 Q29.8 -34.1 29.65 -33.7 L29.55 -33.5 29.7 -33.35 29.75 -33.15 Q29.75 -33.05 29.65 -33.0 L29.65 -32.95 Q29.55 -32.85 29.45 -32.85 28.95 -32.85 28.65 -32.5 L28.65 -32.45 Q28.4 -32.15 28.4 -31.9 L28.4 -31.8 28.55 -31.75 Q28.65 -31.7 28.75 -31.65 28.85 -31.5 28.85 -31.4 L28.85 -31.25 Q28.85 -30.95 28.8 -30.8 L28.8 -30.85 Q28.7 -30.6 28.4 -30.3 L28.2 -30.2 28.0 -30.25 27.85 -30.05 Q27.75 -30.0 27.7 -30.0 27.6 -30.0 27.5 -30.05 27.45 -30.15 27.4 -30.2 L27.4 -30.3 Q27.35 -30.4 27.4 -30.45 27.5 -30.9 27.5 -31.15 27.5 -31.6 27.25 -31.9 L27.25 -31.95 Q27.0 -32.25 26.35 -32.75 L25.9 -32.75 25.85 -32.7 Q25.75 -32.5 25.7 -32.45 25.6 -32.4 25.5 -32.4 25.4 -32.4 25.35 -32.45 25.1 -32.6 25.05 -32.9 L25.0 -33.0 25.0 -32.95 24.95 -32.8 Q24.85 -32.7 24.7 -32.7 24.3 -32.7 24.2 -32.85 L24.2 -32.9 Q24.05 -32.65 23.85 -32.4 L23.65 -32.15 23.5 -31.95 Q23.25 -31.65 23.0 -31.55 22.65 -30.75 21.55 -29.5 19.95 -27.8 18.8 -27.4 L18.8 -27.4 18.7 -27.35 18.5 -27.35 18.5 -27.4 18.45 -27.5 18.4 -27.55 18.4 -27.6 Q18.35 -27.75 18.4 -27.8 17.85 -27.75 16.75 -27.4 16.65 -27.1 16.15 -26.85 15.7 -26.6 15.15 -26.55 14.8 -26.4 14.45 -26.4 L13.65 -26.45 13.65 -26.55 13.55 -26.65 13.55 -26.75 13.4 -26.75 12.25 -26.55 Q11.75 -26.45 11.45 -26.25 L11.0 -25.95 Q11.05 -25.9 11.1 -25.8 L11.1 -25.6 Q11.1 -25.05 9.8 -24.55 L8.45 -24.1 Q7.9 -24.1 7.35 -24.3 L7.55 -24.2 7.5 -24.2 7.35 -24.3 Q7.0 -24.4 6.55 -24.6 5.7 -25.05 5.7 -25.2 5.7 -25.35 5.8 -25.4 6.05 -25.45 6.2 -25.55 L5.9 -25.75 Q5.85 -25.8 5.85 -25.85 L5.85 -25.9 Q5.8 -26.0 5.8 -26.1 L5.7 -26.5 Q5.65 -26.6 5.35 -26.75 5.1 -26.9 4.9 -26.95 L4.45 -26.9 4.25 -26.8 Q4.2 -26.7 4.05 -26.7 L3.9 -26.75 3.8 -26.75 3.8 -26.65 Q3.8 -26.3 2.65 -26.15 2.8 -25.95 3.0 -25.85 3.1 -25.8 3.1 -25.7 3.1 -25.6 2.95 -25.5 2.75 -25.4 2.3 -25.4 1.7 -25.4 1.05 -25.75 0.4 -26.05 0.2 -26.4 0.05 -26.6 0.05 -27.05 0.05 -27.3 0.0 -27.4 L-0.05 -27.65 Q-0.05 -28.0 0.2 -28.5 0.55 -29.1 1.05 -29.1 L1.55 -28.6 Q1.75 -28.3 1.65 -28.1 L1.95 -27.95 2.0 -27.95 2.1 -28.25 2.1 -28.3 2.05 -28.3 1.95 -28.25 Q1.8 -28.25 1.75 -28.4 L1.7 -28.55 1.75 -28.8 Q1.65 -28.85 1.7 -29.0 L1.75 -29.3 1.65 -29.95 Q1.65 -30.2 1.4 -30.55 L0.9 -31.2 0.85 -31.15 0.7 -31.1 Q0.3 -31.1 0.2 -31.6 0.15 -31.9 0.2 -32.15 0.2 -32.55 0.2 -32.65 0.3 -32.95 0.55 -33.15 L1.3 -33.0 Q1.15 -33.2 0.95 -33.7 0.7 -34.1 0.3 -34.35 L0.3 -34.3 0.25 -34.35 0.05 -34.2 -0.15 -34.2 -0.2 -34.25 -0.25 -34.25 -0.4 -34.4 -0.35 -34.3 -0.45 -34.4 -0.45 -34.45 -1.0 -34.95 Q-1.85 -35.65 -2.45 -35.65 -2.8 -35.65 -3.2 -35.45 L-3.65 -35.2 Q-3.8 -35.2 -3.85 -35.35 L-3.85 -35.55 -3.8 -35.8 -3.7 -36.1 -3.7 -36.65 -3.65 -37.7 Q-3.65 -38.05 -3.0 -38.7 -2.2 -39.45 -1.5 -39.45 -0.8 -39.45 -0.65 -38.9 L-0.6 -38.5 Q-0.55 -38.3 -0.45 -38.3 -0.2 -38.3 -0.05 -38.65 0.0 -38.85 0.05 -39.0 L0.0 -39.1 0.0 -39.15 -0.1 -39.25 Q-0.25 -39.35 -0.25 -39.5 L0.05 -40.5 Q0.4 -41.5 0.4 -41.85 0.4 -42.0 0.3 -42.25 0.2 -42.6 0.0 -42.65 L-0.1 -42.65 Q-0.25 -42.65 -0.3 -42.6 L-0.45 -42.45 Q-0.6 -42.6 -0.6 -42.9 -0.6 -43.45 -0.35 -43.9 -0.1 -44.45 0.55 -44.85 1.85 -45.7 2.55 -45.1 2.8 -44.9 3.05 -44.3 L3.1 -44.2 Q3.2 -44.0 3.2 -43.9 3.2 -43.8 3.15 -43.8 L3.0 -43.7 Q3.1 -43.3 3.25 -43.3 3.35 -43.3 3.55 -43.4 4.05 -43.4 4.55 -42.95 4.95 -42.6 4.95 -42.35 4.95 -42.1 4.75 -42.0 L4.75 -42.05 4.7 -42.0 4.65 -42.0 Q4.1 -42.2 3.95 -42.2 3.0 -42.2 1.95 -40.8 1.6 -40.3 1.3 -39.8 1.1 -39.3 1.1 -39.2 1.1 -39.1 1.2 -39.0 L1.3 -38.8 1.25 -38.65 1.15 -38.5 1.05 -38.3 Q0.95 -38.1 1.0 -37.85 L1.0 -37.8 1.4 -37.25 1.45 -37.25 Q1.3 -37.5 1.45 -37.85 1.5 -38.05 1.85 -38.4 L1.9 -38.4 1.9 -38.35 Q2.0 -37.65 2.1 -37.4 2.15 -37.25 2.3 -36.95 2.55 -36.7 2.85 -36.55 L3.3 -36.5 Q3.6 -36.5 3.75 -36.35 L4.15 -35.95 4.3 -35.55 4.4 -35.05 4.4 -35.0 4.35 -34.95 4.15 -34.9 4.05 -34.95 3.95 -34.95 Q3.85 -34.6 3.65 -34.65 L3.15 -34.7 Q3.15 -33.85 4.55 -33.45 L5.55 -33.2 Q6.05 -33.05 6.05 -32.8 6.05 -32.45 4.75 -32.55 L4.7 -32.45 4.55 -32.4 4.35 -32.45 4.4 -32.4 4.3 -32.4 Q4.35 -32.2 4.6 -31.95 4.7 -31.9 4.9 -31.75 5.5 -31.5 5.75 -31.35 L5.7 -31.3 Q5.75 -31.25 5.75 -31.2 5.75 -31.1 5.5 -30.95 5.7 -30.85 5.85 -30.8 L6.95 -30.7 Q8.55 -30.7 8.9 -31.1 L9.1 -31.3 9.3 -31.45 9.3 -31.5 9.35 -31.5 9.35 -31.55 Q9.25 -31.6 9.25 -31.7 L9.25 -31.8 Q9.25 -32.0 9.4 -32.2 9.55 -32.45 9.8 -32.4 L9.7 -32.55 Q9.65 -32.65 9.45 -32.65 L9.2 -32.65 9.0 -32.55 8.75 -32.45 8.2 -32.6 7.15 -32.65 6.85 -32.65 6.85 -32.6 6.8 -32.6 6.7 -32.65 6.65 -32.7 6.5 -32.8 Q6.5 -32.85 6.5 -32.9 L6.5 -32.95 6.45 -33.0 Q6.45 -33.15 6.95 -33.3 7.45 -33.45 7.55 -33.65 7.7 -33.9 7.8 -34.0 8.05 -34.2 8.6 -34.3 9.5 -34.45 10.5 -34.15 11.6 -33.85 11.6 -33.25 L11.6 -33.2 11.65 -33.15 11.7 -32.95 12.95 -32.95 13.3 -33.0 Q13.5 -33.0 13.55 -32.9 L13.6 -32.75 Q14.0 -32.75 14.2 -32.9 L14.45 -33.1 Q14.6 -33.2 14.85 -33.25 L15.15 -33.3 15.45 -33.6 15.85 -33.95 Q16.1 -34.25 16.35 -34.75 L16.7 -35.55 16.7 -35.6 16.55 -35.6 Q16.5 -35.6 16.3 -35.55 L16.05 -35.45 15.95 -35.5 15.95 -35.65 Q15.95 -35.8 16.0 -35.95 16.0 -36.2 16.5 -36.95 L17.05 -37.75 Q17.25 -38.2 17.35 -38.2 L17.35 -38.65 17.4 -39.15 17.45 -39.5 Q17.45 -39.95 17.25 -40.4 17.1 -40.8 16.85 -40.95 L16.75 -40.9 16.7 -40.9 Q16.55 -40.95 16.5 -41.15 L16.5 -41.4 Q16.5 -41.5 16.8 -42.25 16.8 -42.8 16.1 -43.4 L15.4 -43.9 Q14.15 -44.8 13.75 -45.0 13.3 -45.2 12.5 -45.2 12.05 -45.2 11.9 -44.85 L11.85 -44.75 11.9 -44.75 12.5 -44.7 12.5 -44.65 Q12.65 -44.65 13.0 -44.45 L13.05 -44.35 13.15 -44.2 Q13.2 -44.1 13.2 -44.05 13.2 -43.95 13.15 -43.85 L13.0 -43.75 Q12.55 -43.7 12.3 -43.5 12.15 -43.4 12.1 -43.25 L12.05 -43.15 11.95 -43.05 Q11.85 -42.9 11.6 -43.1 L11.55 -43.1 Q11.45 -43.1 11.35 -42.95 11.15 -42.5 11.0 -42.3 10.95 -42.25 10.85 -42.25 L10.7 -42.25 Q10.65 -42.25 10.6 -42.3 10.45 -42.45 10.4 -42.55 L10.35 -42.75 Q10.3 -42.85 10.3 -43.0 L10.3 -43.2 Q10.2 -43.1 10.2 -42.95 10.2 -42.9 10.3 -42.65 L10.45 -42.35 10.4 -42.2 10.3 -42.05 10.2 -42.0 10.1 -42.0 9.6 -42.1 9.5 -42.25 Q9.2 -42.35 9.05 -42.65 8.9 -42.95 8.9 -43.25 8.9 -43.55 8.6 -43.85 8.2 -44.3 7.55 -44.3 L7.35 -44.25 Q7.25 -44.25 7.15 -44.15 L7.05 -44.0 6.4 -44.05 6.3 -44.2 Q6.2 -44.3 6.2 -44.4 6.15 -44.55 6.15 -44.85 6.15 -45.0 6.2 -45.25 L6.3 -45.5 5.9 -45.85 Q5.45 -46.15 5.3 -46.65 L5.1 -47.25 Q5.05 -47.35 5.05 -47.75 5.05 -48.0 5.15 -48.65 5.25 -49.3 5.25 -49.65 5.3 -50.05 5.65 -50.55 6.05 -51.05 6.65 -51.4 L6.85 -51.35 Q6.95 -51.3 7.05 -51.3 7.1 -51.3 7.3 -51.6 L7.5 -52.0 Q7.25 -52.15 7.25 -52.45 7.25 -52.95 7.8 -53.3 8.3 -53.6 8.65 -53.5 8.75 -53.4 8.75 -53.25 L8.75 -53.05 Q9.75 -53.05 10.1 -53.2 10.2 -53.25 10.3 -53.3 10.3 -53.45 10.5 -53.65 10.7 -53.85 11.05 -54.0 11.5 -54.2 12.95 -54.25 L14.4 -54.2 Q14.7 -54.2 15.5 -53.95 L16.5 -53.55 Q16.75 -53.45 17.1 -53.25 L17.3 -53.1 17.75 -53.15 Q18.65 -53.15 19.8 -52.25 20.65 -51.6 20.8 -51.2 21.0 -51.05 21.0 -50.9 21.0 -50.6 20.85 -50.45 L20.75 -50.45 20.75 -50.4 20.65 -50.4 Q20.55 -50.4 20.35 -50.55 L20.05 -50.8 Q19.9 -50.6 19.9 -50.45 19.9 -50.1 20.6 -49.1 20.85 -48.75 21.5 -48.45 L21.65 -48.35 Q21.9 -48.75 22.7 -48.25 L23.6 -47.55 24.3 -47.0 M23.75 -35.6 Q24.1 -35.6 24.25 -35.15 L24.4 -35.35 Q24.7 -35.7 25.2 -35.7 25.0 -35.75 25.05 -36.0 L25.1 -36.35 Q25.1 -36.45 24.65 -36.65 24.55 -36.65 24.45 -36.5 L24.25 -36.35 24.05 -36.35 23.9 -36.45 Q23.55 -35.85 23.45 -35.5 L23.55 -35.55 23.75 -35.6 M25.0 -33.3 Q25.0 -33.55 25.15 -33.8 L24.85 -33.45 Q25.0 -33.35 25.0 -33.15 L25.0 -33.3 M5.25 -42.85 Q5.6 -43.25 5.95 -43.45 6.65 -43.85 7.1 -43.5 L7.2 -43.45 7.35 -43.1 7.4 -43.0 Q7.45 -42.9 7.45 -42.8 7.45 -42.7 7.4 -42.6 L7.35 -42.6 Q7.3 -42.55 7.2 -42.5 6.55 -42.4 6.15 -42.1 5.55 -41.65 5.4 -41.65 L5.2 -41.65 Q5.1 -41.7 5.05 -41.8 5.0 -41.9 5.05 -42.0 L5.3 -42.4 Q5.2 -42.45 5.2 -42.5 5.15 -42.6 5.15 -42.7 5.15 -42.75 5.25 -42.85 M9.5 -35.45 Q9.6 -35.6 9.7 -35.65 L9.7 -35.7 10.1 -35.65 Q10.2 -35.7 10.3 -35.85 L10.35 -36.1 Q10.35 -36.5 10.75 -36.45 L10.9 -36.45 11.05 -36.4 11.1 -36.3 11.2 -36.2 11.2 -36.15 11.4 -36.0 Q11.5 -35.95 11.55 -35.85 11.55 -35.7 11.5 -35.6 L11.25 -35.15 Q10.95 -34.75 10.5 -34.65 L10.45 -34.65 Q10.25 -34.65 10.15 -34.7 L10.1 -34.65 Q9.8 -34.45 9.45 -34.45 8.95 -34.45 8.75 -34.55 8.7 -34.45 8.65 -34.5 L8.6 -34.45 8.35 -34.5 Q8.1 -34.45 8.1 -34.9 8.1 -35.1 8.3 -35.25 L8.35 -35.3 Q8.5 -35.45 8.85 -35.35 8.95 -35.35 9.0 -35.25 L9.05 -35.2 9.35 -35.3 9.5 -35.4 9.5 -35.45 M5.75 -42.35 L5.75 -42.35 M0.0 -38.9 L0.0 -38.9 M8.0 -32.65 L8.0 -32.65 M23.05 -7.2 L23.15 -7.25 23.4 -7.25 23.55 -7.2 Q23.75 -7.05 23.8 -6.85 L23.8 -6.8 Q23.8 -6.65 23.65 -6.5 23.55 -6.4 23.45 -6.4 23.35 -6.4 23.25 -6.45 L23.2 -6.45 Q23.1 -6.45 22.9 -6.75 22.85 -6.8 22.85 -6.9 22.85 -7.0 22.9 -7.05 L22.95 -7.1 Q22.95 -7.2 23.05 -7.2 M22.45 -7.15 L22.55 -7.0 22.5 -6.85 22.55 -6.7 Q22.55 -6.6 22.45 -6.5 22.4 -6.45 22.3 -6.4 22.2 -6.4 21.95 -6.5 L21.85 -6.55 21.25 -6.45 Q21.15 -6.45 21.1 -6.55 21.0 -6.6 21.0 -6.7 20.95 -6.75 21.0 -6.85 21.3 -7.6 21.8 -7.55 22.1 -7.55 22.45 -7.15 M18.85 -3.65 L19.0 -3.7 19.2 -3.7 19.25 -3.65 19.35 -3.65 Q19.5 -3.6 19.5 -3.25 L19.5 -3.05 19.45 -2.95 19.35 -2.85 19.15 -2.75 18.95 -2.75 Q18.8 -2.8 18.75 -2.85 L18.75 -2.9 Q18.65 -2.95 18.65 -3.25 18.65 -3.5 18.75 -3.6 L18.85 -3.65 M29.55 -23.35 Q29.7 -23.05 29.7 -22.95 L29.65 -22.7 29.6 -22.4 29.6 -22.35 29.65 -22.35 29.75 -22.2 29.8 -22.05 Q29.75 -21.7 29.7 -21.55 L29.6 -21.45 Q29.5 -21.4 29.45 -21.4 L29.4 -21.4 Q29.3 -21.4 29.25 -21.4 L29.15 -21.55 Q29.05 -21.65 29.05 -21.9 29.05 -22.1 29.15 -22.2 L29.1 -22.25 28.75 -22.2 Q28.75 -22.1 28.5 -21.8 L28.35 -21.65 28.35 -21.5 Q28.3 -21.35 28.2 -21.15 L28.25 -21.15 Q28.1 -20.95 27.8 -20.8 L27.6 -20.75 Q27.5 -20.8 27.45 -20.85 27.4 -20.95 27.4 -21.05 27.4 -21.15 27.45 -21.3 L27.4 -21.4 Q27.35 -21.5 27.35 -21.55 27.4 -21.65 27.45 -21.7 27.55 -21.8 27.8 -21.9 L27.8 -22.0 27.7 -22.1 27.55 -22.2 Q27.45 -22.15 27.35 -22.15 L26.95 -22.15 Q26.65 -22.2 26.5 -22.55 26.35 -22.8 26.35 -23.1 26.35 -23.3 26.45 -23.5 26.3 -23.55 26.25 -23.7 26.2 -23.75 26.2 -23.85 26.2 -24.1 26.4 -24.2 L26.5 -24.25 26.5 -24.55 Q26.5 -24.75 26.3 -25.0 L26.0 -25.4 25.7 -25.5 25.5 -25.55 Q25.3 -25.55 25.2 -25.45 25.15 -25.4 25.0 -25.4 L24.9 -25.4 24.85 -25.35 Q24.8 -25.3 24.8 -25.2 L24.8 -24.8 Q24.8 -24.65 24.7 -24.55 24.65 -24.5 24.5 -24.45 24.4 -24.45 24.3 -24.55 24.15 -24.65 24.1 -24.9 23.95 -25.0 23.95 -25.25 23.9 -25.6 24.25 -25.8 24.4 -25.9 24.5 -25.9 L24.5 -25.95 Q24.5 -26.3 24.7 -26.6 24.95 -26.9 25.25 -26.95 L25.3 -27.15 Q25.55 -27.55 26.55 -27.45 26.65 -27.45 26.7 -27.4 L26.8 -27.25 26.85 -27.15 27.0 -27.15 Q27.0 -27.25 27.1 -27.35 L27.15 -27.4 Q27.25 -27.5 27.35 -27.45 L27.8 -27.45 27.95 -27.4 Q28.15 -27.3 28.4 -26.75 28.6 -26.3 28.55 -26.1 L28.55 -25.65 28.45 -25.45 Q28.55 -25.35 28.55 -25.05 28.6 -24.85 28.35 -24.5 L28.1 -24.15 28.35 -24.15 Q28.7 -24.1 29.3 -23.75 29.45 -23.6 29.55 -23.35 M27.25 -23.9 L27.15 -23.9 Q27.2 -23.85 27.25 -23.75 L27.45 -23.8 27.55 -23.95 27.3 -23.9 27.25 -23.9 M27.2 -20.5 L27.4 -20.4 Q27.5 -20.35 27.5 -20.1 27.5 -19.95 27.25 -19.5 27.15 -19.3 27.15 -19.15 L27.15 -19.05 27.1 -18.9 27.05 -18.85 Q27.0 -18.8 26.9 -18.8 L26.75 -18.8 Q26.4 -18.9 26.25 -19.4 26.2 -19.55 26.2 -19.65 L26.1 -19.8 26.1 -19.85 Q26.05 -20.0 26.1 -20.1 26.25 -20.35 26.45 -20.45 L26.5 -20.45 26.9 -20.5 26.95 -20.45 27.0 -20.5 27.2 -20.5 M26.95 -18.7 Q27.4 -18.5 27.45 -17.9 L27.55 -17.9 Q28.2 -17.9 28.2 -17.3 28.2 -17.05 28.0 -16.75 27.8 -16.5 27.6 -16.4 L27.45 -16.2 27.35 -16.05 27.2 -16.0 Q27.1 -16.05 27.0 -16.1 26.95 -16.15 26.95 -16.25 26.8 -16.75 26.7 -17.0 26.5 -17.4 26.2 -17.55 26.1 -17.4 25.75 -17.4 L25.6 -17.4 Q25.55 -17.45 25.5 -17.5 25.2 -17.95 25.25 -18.05 25.2 -18.25 25.5 -18.6 L25.55 -18.6 Q25.8 -18.9 25.9 -18.95 L26.05 -18.95 Q26.15 -18.95 26.2 -18.9 L26.35 -18.75 26.85 -18.75 26.95 -18.7 M25.2 -8.05 L25.4 -8.2 25.45 -8.25 25.55 -8.3 25.95 -8.3 26.1 -8.25 26.2 -8.2 Q26.3 -7.95 26.25 -7.85 L26.3 -7.75 Q26.55 -7.45 26.55 -7.25 L26.55 -7.1 26.5 -6.95 Q26.4 -6.85 26.35 -6.85 L26.25 -6.8 26.05 -6.85 Q25.95 -6.85 25.9 -6.95 L25.8 -7.1 25.65 -7.05 25.4 -6.9 25.25 -6.85 Q25.0 -6.9 25.0 -6.95 24.85 -7.05 24.85 -7.35 24.85 -7.6 25.1 -7.8 L25.1 -7.85 Q25.15 -7.95 25.2 -8.05 M3.25 1.35 L3.2 1.85 3.1 2.45 3.05 2.65 Q2.95 2.7 2.85 2.7 L2.8 2.7 Q2.65 2.75 2.6 2.65 2.5 2.6 2.5 2.5 2.45 2.35 2.45 2.05 2.45 1.25 2.75 1.05 2.85 0.95 2.95 0.95 3.25 0.85 3.25 1.35 M-0.05 -34.4 L0.0 -34.4 -0.05 -34.45 -0.05 -34.4" fill="#e1ffd2" fill-opacity="0.5019608" fill-rule="evenodd" stroke="none"/>
      <path d="M25.0 -44.4 Q24.95 -44.4 24.95 -44.3 L25.05 -43.7 25.2 -43.15 Q25.25 -42.85 25.35 -42.65 25.55 -42.3 26.05 -42.15 L26.2 -42.35 Q26.25 -42.55 26.35 -42.6 26.75 -42.3 26.95 -41.75 27.1 -41.35 27.1 -40.9 L27.1 -40.45 27.05 -40.45 26.95 -41.05 Q26.8 -41.45 26.45 -41.55 25.25 -42.1 24.35 -38.65 24.35 -38.45 24.45 -38.0 L24.55 -38.05 24.6 -38.15 Q24.85 -38.1 24.85 -37.95 24.85 -37.75 24.95 -37.7 L25.0 -37.7 Q25.05 -37.7 25.05 -37.6 25.05 -37.5 24.95 -37.35 L24.9 -37.2 24.9 -37.15 25.15 -37.2 25.25 -37.4 25.2 -37.45 25.25 -37.55 25.3 -37.55 25.4 -37.5 25.6 -37.45 25.7 -37.3 25.75 -37.1 Q25.75 -37.0 25.7 -36.9 L25.6 -36.8 25.65 -36.75 25.7 -36.6 Q25.7 -36.5 25.55 -36.25 L25.45 -35.95 25.3 -35.95 Q25.3 -36.0 25.35 -36.15 L25.35 -36.35 Q25.35 -36.55 25.15 -36.7 L24.7 -36.9 24.4 -36.9 24.3 -36.7 24.2 -36.6 24.1 -36.75 24.0 -36.85 23.8 -36.85 23.4 -36.4 23.65 -36.6 Q23.15 -36.1 23.15 -35.45 23.15 -35.25 23.2 -35.2 L23.45 -34.95 23.6 -35.1 23.7 -35.25 Q23.95 -35.1 24.05 -34.7 L24.05 -34.1 Q24.05 -33.4 23.85 -32.95 23.6 -32.3 22.9 -31.9 22.85 -32.0 22.95 -32.15 22.6 -31.75 22.3 -31.25 L21.8 -30.3 Q21.55 -29.85 21.05 -29.4 20.65 -29.0 20.2 -28.75 L20.15 -28.7 18.85 -27.7 18.8 -27.65 Q18.7 -27.65 18.7 -27.75 18.7 -27.85 18.75 -27.95 L18.85 -28.05 18.85 -28.15 18.2 -28.2 Q16.65 -27.7 16.25 -27.4 16.4 -27.35 16.45 -27.3 16.2 -27.05 15.8 -27.0 L14.2 -26.7 14.05 -26.7 Q13.9 -26.75 13.85 -26.75 L13.9 -26.85 Q14.2 -26.85 14.3 -26.95 L14.35 -27.1 Q12.5 -26.95 11.75 -26.7 11.05 -26.4 10.5 -26.2 L10.45 -26.15 10.8 -26.15 10.35 -25.7 10.35 -25.65 10.65 -25.7 10.75 -25.7 Q10.8 -25.7 10.8 -25.6 10.8 -25.35 9.9 -24.9 8.95 -24.4 8.3 -24.4 L7.9 -24.45 7.55 -24.5 Q6.85 -24.6 6.55 -24.8 L6.05 -25.15 6.4 -25.3 Q6.65 -25.45 6.7 -25.55 L6.6 -25.7 6.3 -25.85 6.35 -25.9 6.3 -25.9 6.25 -26.0 6.4 -26.15 5.9 -26.65 Q5.25 -27.15 4.65 -27.15 L4.2 -27.15 4.15 -27.1 Q3.55 -27.05 3.35 -26.95 3.25 -26.9 3.2 -26.8 3.2 -26.7 3.4 -26.6 L3.2 -26.6 3.05 -26.5 2.3 -26.55 2.05 -26.7 1.8 -26.75 1.75 -26.65 Q1.7 -26.6 1.7 -26.5 1.7 -26.4 2.2 -26.15 2.7 -25.8 2.75 -25.75 2.75 -25.7 2.45 -25.7 1.75 -25.7 1.4 -25.85 0.95 -26.05 0.45 -26.55 0.3 -26.75 0.3 -27.1 L0.25 -27.35 Q0.2 -27.55 0.2 -27.65 0.2 -27.85 0.4 -28.3 0.65 -28.75 0.8 -28.8 L1.1 -28.8 1.2 -28.55 1.25 -28.5 1.25 -28.45 1.3 -28.35 Q1.4 -28.3 1.25 -28.3 L1.2 -28.25 1.1 -28.25 Q1.25 -27.75 2.05 -27.65 L2.4 -27.65 Q2.35 -27.7 2.45 -27.8 2.2 -27.95 2.2 -28.1 L2.35 -28.3 2.2 -28.55 2.2 -28.65 2.05 -28.6 2.05 -28.55 Q2.0 -28.55 2.0 -28.65 2.0 -28.75 2.1 -28.95 L2.15 -29.3 Q2.15 -29.8 1.85 -30.4 1.5 -30.95 0.95 -31.5 L0.7 -31.45 0.65 -31.4 Q0.5 -31.6 0.45 -31.75 L0.45 -32.5 Q0.5 -32.75 0.65 -32.9 0.85 -32.95 1.2 -32.75 1.5 -32.6 1.55 -32.45 L1.65 -32.55 Q1.7 -32.65 1.7 -32.75 1.7 -33.25 1.1 -33.95 0.6 -34.5 0.15 -34.75 L-0.05 -34.75 Q-0.1 -34.85 -0.1 -34.7 L-0.1 -34.6 0.0 -34.45 0.05 -34.45 0.0 -34.35 Q-0.15 -34.4 -0.2 -34.5 L-0.2 -34.55 -0.9 -35.2 Q-1.5 -35.7 -2.05 -35.9 L-2.6 -35.9 Q-3.05 -35.9 -3.35 -35.7 -3.55 -35.55 -3.65 -35.4 L-3.65 -35.5 -3.6 -35.8 Q-3.5 -36.05 -3.2 -36.05 -3.2 -36.2 -3.25 -36.3 -3.25 -36.2 -3.3 -36.15 L-3.4 -36.2 -3.4 -37.45 Q-3.35 -37.85 -3.15 -38.05 -2.1 -39.05 -1.85 -39.05 -0.95 -39.05 -0.85 -38.7 -0.85 -38.6 -0.9 -38.5 L-0.95 -38.3 Q-0.95 -38.2 -0.9 -38.15 L-0.8 -38.1 Q-0.65 -38.05 -0.55 -37.95 -0.45 -37.9 -0.35 -37.9 -0.05 -37.9 0.15 -38.4 0.25 -38.65 0.3 -38.9 L0.25 -39.2 0.2 -39.55 0.15 -39.5 0.1 -39.4 0.05 -39.4 0.05 -39.55 0.0 -39.6 0.1 -39.65 0.4 -40.75 Q0.6 -41.4 0.6 -41.95 0.6 -42.15 0.45 -42.5 0.3 -42.8 0.2 -42.95 L-0.15 -42.9 -0.3 -42.8 Q-0.35 -42.7 -0.45 -42.7 -0.55 -43.25 0.1 -44.0 0.75 -44.75 1.5 -44.9 2.15 -44.95 2.5 -44.65 2.85 -44.4 2.85 -43.95 L2.75 -43.8 Q2.65 -43.7 2.65 -43.65 2.65 -43.5 2.75 -43.3 2.9 -43.05 3.25 -42.95 L3.2 -42.95 3.25 -42.85 3.45 -43.05 4.0 -43.0 4.35 -42.7 4.6 -42.4 4.55 -42.35 Q4.5 -42.4 4.3 -42.55 L3.6 -42.55 Q2.25 -41.8 1.45 -40.7 0.65 -39.65 0.85 -38.8 L0.95 -38.8 0.95 -38.65 0.9 -38.65 0.9 -38.7 0.85 -38.7 0.9 -38.6 0.8 -38.6 0.7 -38.4 Q0.6 -38.2 0.6 -38.1 0.6 -37.7 0.9 -37.3 1.2 -36.9 1.55 -36.85 L1.7 -36.85 Q1.65 -37.2 1.65 -37.5 L1.7 -37.85 Q1.7 -37.4 2.0 -36.95 2.3 -36.4 2.95 -36.05 L2.95 -36.0 3.0 -36.0 3.15 -36.05 3.1 -36.15 3.15 -36.2 3.35 -36.15 Q3.6 -36.1 3.85 -35.75 4.05 -35.4 4.1 -35.2 L4.0 -35.2 3.85 -35.25 3.7 -35.15 3.55 -35.0 Q3.5 -35.0 3.4 -35.05 3.3 -35.15 3.2 -35.15 3.05 -35.15 2.95 -34.9 2.9 -34.7 2.9 -34.55 2.9 -34.25 3.1 -33.95 3.5 -33.6 3.7 -33.5 4.2 -33.25 5.45 -33.0 L5.6 -32.9 5.55 -32.85 5.15 -32.8 Q4.6 -32.75 4.6 -32.7 L4.55 -32.65 4.5 -32.65 4.35 -32.7 4.2 -32.7 Q4.15 -32.65 3.95 -32.6 L3.95 -32.55 Q3.9 -32.5 3.9 -32.35 3.9 -32.1 4.2 -31.85 4.6 -31.55 5.2 -31.4 L5.3 -31.35 5.45 -31.25 4.75 -31.2 4.65 -31.0 Q4.9 -30.8 5.4 -30.65 6.2 -30.4 7.65 -30.4 8.4 -30.4 8.95 -30.75 L9.3 -30.95 9.2 -31.0 9.55 -31.3 9.55 -31.35 Q9.75 -31.55 9.8 -31.7 L9.6 -31.7 Q9.55 -31.7 9.55 -31.85 L9.6 -31.95 Q9.7 -32.05 10.05 -32.1 10.1 -32.3 10.2 -32.45 L9.45 -32.95 8.75 -32.9 8.9 -32.75 8.65 -32.7 Q8.5 -32.75 8.45 -32.8 L8.0 -32.9 6.95 -32.85 6.9 -32.85 6.9 -32.9 Q6.75 -32.9 6.75 -32.95 L7.55 -33.15 Q7.85 -33.25 7.85 -33.45 7.85 -33.55 7.95 -33.6 L8.05 -33.75 8.45 -33.9 9.45 -34.0 9.45 -34.05 Q11.1 -33.85 11.25 -33.35 11.35 -33.05 11.25 -32.85 L11.4 -32.65 Q11.6 -32.5 12.0 -32.5 L12.5 -32.5 Q12.9 -32.55 13.2 -32.7 L13.35 -32.65 13.4 -32.6 13.3 -32.55 13.35 -32.45 Q13.3 -32.4 13.3 -32.3 L13.25 -32.25 Q13.95 -32.4 14.55 -32.7 L14.75 -32.65 Q15.45 -32.9 16.25 -33.85 16.95 -34.8 16.95 -35.4 L16.95 -35.65 Q16.9 -35.85 16.7 -35.9 L16.2 -35.75 16.45 -36.2 17.05 -37.2 Q17.65 -37.7 17.65 -38.2 L17.6 -38.6 Q17.7 -39.2 17.7 -39.45 L17.7 -39.9 17.55 -40.5 Q17.2 -41.5 16.85 -41.15 L16.8 -41.15 16.8 -41.3 Q16.8 -41.4 16.95 -41.65 L17.15 -41.95 17.2 -42.05 Q17.2 -42.25 17.0 -42.6 L16.75 -43.1 16.4 -43.55 Q16.2 -43.8 16.05 -43.9 15.85 -43.95 14.95 -44.7 14.25 -45.3 13.45 -45.45 L13.2 -45.5 12.9 -45.55 Q12.2 -45.5 11.9 -45.4 L11.45 -45.1 11.45 -45.05 11.6 -44.85 11.55 -44.8 Q11.55 -44.75 11.4 -44.6 11.25 -44.45 11.15 -44.4 L11.1 -44.35 10.45 -43.6 10.25 -43.6 10.05 -43.65 Q9.95 -43.3 9.95 -43.15 9.95 -43.0 10.0 -42.8 L10.15 -42.4 10.05 -42.35 Q9.5 -42.45 9.3 -42.85 9.2 -43.1 9.15 -43.5 9.1 -43.7 8.7 -44.05 8.2 -44.55 7.65 -44.55 L7.25 -44.55 7.05 -44.35 6.95 -44.2 Q6.65 -44.25 6.55 -44.45 6.45 -44.6 6.45 -44.75 6.45 -44.95 6.7 -45.35 L6.8 -45.4 6.6 -45.55 Q5.85 -46.0 5.7 -46.4 5.4 -47.0 5.4 -47.3 L5.35 -48.0 Q5.35 -48.95 5.55 -49.65 5.65 -49.9 6.0 -50.5 6.4 -51.1 6.55 -51.1 6.65 -51.1 6.75 -51.0 L6.9 -50.8 Q7.2 -51.05 7.5 -51.5 7.8 -51.95 7.8 -52.2 7.8 -52.35 7.55 -52.3 L7.5 -52.4 7.55 -52.45 Q7.5 -52.65 7.8 -52.9 8.0 -53.05 8.2 -53.15 L8.4 -53.2 8.45 -53.15 8.4 -53.1 8.45 -53.05 8.45 -52.95 Q8.45 -52.85 8.5 -52.8 L8.6 -52.75 8.6 -52.7 8.8 -52.7 Q9.55 -52.7 10.15 -52.85 10.45 -52.95 10.8 -53.1 L10.85 -53.15 10.6 -53.15 10.6 -53.25 Q10.7 -53.35 10.85 -53.5 11.0 -53.6 11.15 -53.7 11.65 -53.85 13.7 -53.95 13.8 -53.95 14.15 -53.8 14.65 -54.0 15.75 -53.55 16.7 -53.2 16.95 -52.9 L17.05 -52.85 17.85 -52.65 17.95 -52.65 17.8 -52.75 17.8 -52.8 17.75 -52.85 Q18.65 -52.95 19.7 -52.05 20.6 -51.3 20.7 -50.7 L20.65 -50.7 Q20.55 -50.75 20.5 -50.9 20.4 -51.05 20.0 -51.05 19.75 -51.05 19.6 -50.85 19.55 -50.7 19.55 -50.55 19.55 -49.95 20.3 -49.0 21.05 -48.0 21.7 -47.85 L21.95 -47.8 21.85 -48.15 21.95 -48.2 Q23.45 -47.55 24.3 -46.45 24.85 -45.7 25.3 -44.4 L25.3 -44.35 25.25 -44.3 25.15 -44.35 25.05 -44.45 25.0 -44.4 M25.0 -35.45 Q25.25 -35.4 25.25 -34.95 25.25 -34.7 24.95 -34.1 L24.5 -33.35 24.45 -33.4 24.35 -33.45 Q24.5 -33.65 24.5 -33.85 L24.5 -33.95 24.3 -34.0 Q24.3 -34.1 24.3 -34.25 24.3 -34.4 24.3 -34.5 24.35 -34.6 24.55 -34.7 L24.6 -34.75 24.5 -34.75 Q24.45 -34.8 24.45 -34.9 24.45 -35.05 24.6 -35.15 L24.95 -35.4 25.0 -35.45 M27.35 -36.05 Q28.45 -35.95 28.65 -35.65 28.7 -35.55 28.65 -35.4 L28.65 -35.2 Q28.75 -34.7 28.8 -34.65 L29.25 -34.7 Q29.4 -34.7 29.5 -34.15 L29.4 -33.8 29.25 -33.5 29.45 -33.2 29.45 -33.15 Q28.85 -33.15 28.45 -32.65 28.1 -32.25 28.1 -31.9 28.1 -31.7 28.15 -31.65 28.2 -31.5 28.5 -31.45 L28.55 -31.4 28.55 -31.25 28.5 -30.9 Q28.45 -30.75 28.2 -30.5 L27.8 -30.45 27.7 -30.3 27.65 -30.4 Q27.8 -30.85 27.8 -31.15 27.8 -31.65 27.45 -32.1 27.2 -32.5 26.45 -33.05 L25.75 -33.05 25.6 -32.8 25.5 -32.65 Q25.35 -32.8 25.3 -32.95 L25.3 -33.3 Q25.3 -33.6 25.45 -33.85 25.65 -34.1 26.05 -34.45 L26.3 -34.55 26.55 -34.45 Q26.6 -34.4 26.7 -34.4 26.9 -34.4 27.0 -34.65 L27.1 -34.9 Q27.1 -35.05 26.95 -35.1 L26.6 -35.1 26.95 -35.7 Q27.2 -36.0 27.35 -36.05 M24.5 -33.2 L24.65 -33.15 24.75 -33.0 Q24.75 -32.95 24.7 -32.9 24.5 -33.05 24.5 -33.1 L24.5 -33.2 M12.85 -44.2 L12.95 -44.05 Q12.45 -43.95 12.1 -43.75 11.85 -43.55 11.85 -43.3 L11.75 -43.35 11.55 -43.4 Q11.3 -43.4 11.1 -43.05 L10.8 -42.5 Q10.6 -42.7 10.6 -43.0 10.6 -43.25 10.7 -43.35 L11.1 -43.6 11.1 -43.65 10.95 -43.65 10.8 -43.7 11.15 -44.1 11.65 -44.45 12.45 -44.4 Q12.6 -44.35 12.85 -44.2 M5.5 -42.6 L5.45 -42.65 Q5.8 -43.05 6.1 -43.2 6.6 -43.5 6.95 -43.25 L7.1 -43.05 7.2 -42.85 7.15 -42.8 Q6.4 -42.65 5.95 -42.3 L5.3 -41.9 Q5.35 -42.0 5.8 -42.55 L5.8 -42.6 5.5 -42.6 M10.85 -36.15 L11.0 -36.0 Q11.1 -35.85 11.25 -35.75 L11.0 -35.3 Q10.8 -35.0 10.45 -34.95 10.3 -34.95 10.25 -35.0 10.2 -35.05 10.1 -35.05 L9.9 -34.9 Q9.7 -34.7 9.45 -34.7 8.95 -34.7 8.95 -34.8 8.95 -34.85 9.0 -34.9 9.3 -34.95 9.5 -35.05 L9.7 -35.2 9.8 -35.3 9.85 -35.45 9.9 -35.45 Q10.0 -35.4 10.05 -35.4 10.4 -35.4 10.55 -35.7 10.65 -35.9 10.65 -36.05 10.65 -36.2 10.75 -36.2 L10.85 -36.15 M8.45 -34.75 Q8.4 -34.75 8.4 -34.9 8.4 -35.0 8.5 -35.05 L8.8 -35.1 8.55 -34.75 8.45 -34.75 M5.95 -27.85 L5.65 -27.95 5.45 -28.0 4.55 -28.0 4.6 -27.95 4.6 -27.8 Q4.6 -27.7 4.55 -27.65 L4.45 -27.65 4.35 -27.6 4.4 -27.55 4.6 -27.5 Q5.2 -27.5 5.3 -27.7 5.4 -27.85 5.85 -27.85 L5.95 -27.85 M22.15 -6.8 L22.25 -6.7 Q22.2 -6.7 22.1 -6.75 21.95 -6.8 21.95 -6.85 L21.45 -6.8 21.25 -6.75 Q21.45 -7.25 21.75 -7.25 22.0 -7.25 22.25 -6.95 L22.1 -6.9 22.15 -6.8 M19.2 -3.25 L19.2 -3.05 Q19.15 -3.05 19.05 -3.0 L18.95 -3.05 Q18.95 -3.1 18.95 -3.25 18.95 -3.35 18.95 -3.4 L19.05 -3.45 19.2 -3.4 19.2 -3.25 M29.2 -22.6 L28.75 -22.6 28.55 -22.45 Q28.4 -22.3 28.4 -22.15 L28.3 -21.9 Q28.2 -21.75 28.1 -21.65 28.1 -21.7 28.1 -21.8 L28.15 -22.0 Q28.15 -22.1 27.8 -22.45 L27.35 -22.4 27.1 -22.4 26.95 -22.45 26.8 -22.7 Q26.65 -22.95 26.65 -23.0 L26.7 -23.15 Q26.8 -23.3 26.8 -23.6 26.9 -23.65 27.1 -23.65 L27.05 -23.5 27.1 -23.4 27.8 -23.4 Q27.8 -23.55 27.7 -23.65 L27.95 -23.75 Q28.75 -23.7 29.15 -23.3 29.4 -23.05 29.4 -22.7 L29.35 -22.45 29.2 -22.6 M29.45 -21.65 L29.4 -21.65 Q29.35 -21.75 29.35 -21.9 29.35 -22.0 29.4 -22.05 L29.5 -22.1 Q29.5 -21.8 29.45 -21.65 M28.1 -26.65 Q28.3 -26.25 28.3 -26.1 L28.25 -25.75 Q28.2 -25.6 28.0 -25.4 L28.0 -25.1 28.15 -25.15 28.25 -25.15 Q28.3 -25.15 28.3 -25.05 28.3 -24.9 28.1 -24.65 L27.9 -24.35 Q27.6 -24.2 27.3 -24.2 L26.85 -24.15 Q26.8 -24.2 26.8 -24.55 26.8 -24.85 26.55 -25.15 26.4 -25.4 26.15 -25.65 L25.85 -25.75 Q25.65 -25.85 25.5 -25.85 25.2 -25.85 25.0 -25.65 L24.8 -25.65 Q24.8 -25.7 24.8 -25.95 24.8 -26.2 24.95 -26.45 25.15 -26.75 25.5 -26.65 L25.55 -27.0 Q25.75 -27.25 26.55 -27.2 L26.65 -26.85 Q27.5 -26.9 27.5 -26.95 27.35 -27.05 27.3 -27.15 L27.35 -27.2 27.8 -27.15 Q27.95 -27.05 28.1 -26.65 M24.55 -24.85 L24.5 -24.75 Q24.4 -24.85 24.4 -25.05 L24.3 -25.1 Q24.2 -25.15 24.2 -25.25 24.2 -25.45 24.4 -25.55 24.55 -25.65 24.65 -25.65 L24.7 -25.55 Q24.5 -25.45 24.5 -25.2 L24.55 -24.85 M26.8 -23.9 Q26.75 -23.8 26.7 -23.8 L26.6 -23.9 Q26.6 -23.95 26.65 -23.95 L26.8 -23.95 26.8 -23.9 M28.0 -21.3 Q27.85 -21.15 27.7 -21.05 27.7 -21.15 27.8 -21.3 27.8 -21.4 27.65 -21.5 27.7 -21.55 27.9 -21.6 L28.1 -21.65 Q28.1 -21.5 28.0 -21.3 M26.55 -19.85 L26.4 -19.9 26.35 -19.95 Q26.45 -20.15 26.6 -20.2 26.8 -20.35 26.9 -20.1 26.95 -20.1 27.05 -20.15 L27.15 -20.25 27.2 -20.2 27.2 -20.1 Q27.2 -20.0 27.0 -19.65 26.85 -19.35 26.9 -19.1 L26.85 -19.1 Q26.6 -19.15 26.55 -19.45 26.45 -19.75 26.55 -19.85 M26.8 -18.45 Q27.2 -18.25 27.15 -17.6 L27.35 -17.5 Q27.4 -17.5 27.45 -17.55 27.5 -17.6 27.55 -17.6 27.9 -17.6 27.9 -17.3 27.9 -17.1 27.75 -16.9 27.6 -16.7 27.4 -16.6 L27.2 -16.3 Q27.1 -16.85 26.95 -17.15 26.7 -17.65 26.2 -17.85 L25.95 -17.8 Q25.9 -17.7 25.95 -17.7 25.95 -17.65 25.75 -17.65 25.55 -18.0 25.55 -18.05 25.55 -18.2 25.75 -18.45 25.95 -18.65 26.0 -18.7 L26.2 -18.45 26.8 -18.45 M25.95 -8.0 L25.95 -7.85 Q25.95 -7.8 26.1 -7.6 26.25 -7.4 26.25 -7.25 L26.25 -7.1 26.2 -7.1 25.95 -7.4 Q25.75 -7.4 25.55 -7.3 L25.3 -7.15 25.2 -7.2 Q25.15 -7.2 25.15 -7.35 25.15 -7.5 25.3 -7.6 L25.55 -7.75 25.4 -7.85 25.65 -8.05 25.95 -8.0 M23.45 -6.7 L23.3 -6.75 Q23.25 -6.75 23.15 -6.9 L23.2 -6.95 23.4 -7.0 Q23.5 -6.9 23.5 -6.85 L23.45 -6.7 M2.95 1.25 L2.95 1.35 2.9 1.8 2.8 2.45 2.75 2.45 Q2.7 2.3 2.7 2.05 2.75 1.45 2.95 1.25" fill="#ffffff" fill-rule="evenodd" stroke="none"/>
      <path d="M23.5 -43.45 Q23.5 -43.1 23.45 -42.7 L23.4 -42.7 23.4 -42.65 23.2 -41.85 23.05 -41.8 23.25 -42.3 23.05 -41.95 Q22.65 -41.15 22.6 -40.85 L22.5 -40.75 22.45 -40.65 22.4 -40.6 Q22.35 -40.55 22.35 -40.8 L22.35 -40.95 Q22.35 -41.25 22.45 -41.9 L22.5 -42.75 Q22.5 -43.0 22.4 -43.45 L22.2 -44.15 Q22.1 -44.15 22.1 -44.1 L22.05 -43.95 21.8 -43.95 21.8 -45.55 21.95 -45.75 21.9 -45.8 Q21.85 -45.85 21.85 -46.05 21.85 -46.2 22.05 -46.35 L22.3 -46.5 Q23.25 -45.9 23.6 -44.75 23.9 -43.45 24.05 -42.85 L24.0 -42.75 Q23.9 -42.9 23.75 -43.15 23.6 -43.35 23.6 -43.45 L23.5 -43.45 M18.05 -49.8 L19.2 -48.65 Q20.5 -47.35 20.95 -46.25 20.95 -46.15 20.85 -46.1 20.35 -46.55 19.2 -47.85 18.0 -49.05 16.3 -49.7 15.7 -49.65 15.8 -49.55 L15.8 -49.35 15.7 -49.15 15.1 -49.25 Q14.75 -49.35 14.7 -49.4 14.2 -49.35 14.1 -49.25 16.25 -47.75 16.85 -47.1 17.8 -46.15 17.8 -45.1 17.8 -44.85 17.7 -44.9 L17.55 -44.9 17.8 -44.5 Q17.85 -44.6 17.9 -44.6 18.0 -44.05 18.2 -43.9 L18.65 -43.6 Q18.7 -43.6 18.75 -43.7 L18.8 -43.9 Q19.05 -43.65 19.1 -43.45 L19.1 -42.85 Q19.1 -41.65 18.65 -40.25 L18.5 -40.25 Q18.35 -42.15 18.0 -43.55 L17.6 -44.25 Q17.2 -44.9 16.9 -45.3 15.9 -46.55 14.45 -47.1 L14.3 -47.1 14.5 -46.95 14.75 -46.75 Q15.05 -46.7 15.05 -46.65 L15.0 -46.6 14.8 -46.6 14.7 -46.5 14.5 -46.6 Q14.35 -46.65 14.15 -46.75 13.55 -47.0 13.15 -47.0 L12.25 -47.0 Q12.15 -46.9 11.65 -46.8 L10.75 -46.6 Q9.9 -46.4 9.75 -46.05 10.05 -46.0 10.05 -45.9 L10.0 -45.7 Q9.95 -45.6 9.7 -45.6 L9.2 -45.65 8.95 -45.65 8.9 -45.85 8.75 -46.1 8.2 -46.25 8.2 -46.35 8.5 -46.35 8.55 -46.6 8.65 -47.0 Q7.85 -47.0 7.6 -47.15 7.3 -47.35 7.05 -47.35 6.65 -47.9 6.65 -48.8 6.65 -49.3 6.7 -49.45 6.75 -49.8 7.15 -50.05 7.45 -49.85 7.4 -49.8 L7.35 -49.7 Q7.8 -49.75 8.45 -50.2 9.1 -50.65 9.35 -51.0 L9.5 -51.1 8.85 -51.05 8.65 -51.1 Q9.0 -51.5 9.5 -51.6 L9.95 -51.65 Q11.1 -51.65 11.35 -51.85 11.5 -51.95 11.45 -52.3 11.4 -52.6 11.7 -52.75 12.2 -52.95 13.7 -53.0 L13.7 -53.05 Q14.0 -53.05 14.45 -52.8 14.85 -52.6 14.95 -52.5 14.9 -52.4 14.8 -52.4 L14.95 -52.25 14.6 -52.25 13.85 -52.2 13.3 -52.05 13.0 -52.0 14.45 -51.85 Q14.45 -51.75 14.3 -51.7 14.1 -51.6 13.65 -51.55 14.0 -51.45 14.15 -51.35 15.6 -51.35 16.45 -51.15 L16.2 -51.3 Q16.45 -51.3 16.9 -51.0 L17.0 -50.95 17.65 -50.5 Q18.1 -50.1 18.45 -49.9 L18.45 -49.8 Q18.35 -49.85 17.85 -50.15 18.05 -49.95 18.05 -49.8 M20.1 -38.35 Q20.1 -37.8 19.45 -36.3 18.75 -34.8 18.35 -34.55 18.8 -35.4 19.1 -36.8 L19.45 -38.8 Q19.65 -38.75 19.65 -38.3 L19.7 -38.4 19.85 -38.55 20.05 -38.55 Q20.1 -38.55 20.1 -38.35 M22.2 -38.8 L22.25 -38.75 22.25 -38.5 Q22.25 -38.25 21.95 -37.4 L21.65 -36.45 21.5 -36.4 21.65 -36.9 Q21.75 -37.2 21.75 -37.4 21.75 -37.6 21.9 -38.05 22.0 -38.55 22.05 -38.8 L22.2 -38.8 M19.9 -32.9 Q19.8 -32.7 19.7 -32.6 L19.5 -32.6 Q19.45 -32.6 19.45 -32.8 19.45 -33.1 19.95 -33.25 19.95 -33.1 19.9 -32.9" fill="#e1ffd2" fill-rule="evenodd" stroke="none"/>
    </g>
  </defs>
</svg>
