<?xml version="1.0" encoding="UTF-8" standalone="no"?>
<svg xmlns:ffdec="https://www.free-decompiler.com/flash" xmlns:xlink="http://www.w3.org/1999/xlink" ffdec:objectType="frame" height="355.25px" width="893.55px" xmlns="http://www.w3.org/2000/svg">
  <g transform="matrix(1.0, 0.0, 0.0, 1.0, 425.6, 287.7)">
    <use ffdec:characterId="1298" height="46.1" transform="matrix(7.0, 0.0, 0.0, 7.0, -200.9, -279.3)" width="55.75" xlink:href="#shape0"/>
    <use ffdec:characterId="1299" height="39.2" transform="matrix(7.0, 0.0, 0.0, 7.0, -378.35, -206.85)" width="120.9" xlink:href="#shape1"/>
    <use ffdec:characterId="1300" height="17.15" transform="matrix(7.0, 0.0, 0.0, 7.0, -410.55, -98.7)" width="120.05" xlink:href="#shape2"/>
  </g>
  <defs>
    <g id="shape0" transform="matrix(1.0, 0.0, 0.0, 1.0, 28.7, 39.9)">
      <path d="M8.5 -37.25 L8.5 -37.05 8.4 -36.9 Q8.35 -36.85 8.25 -36.8 L8.2 -36.75 Q8.05 -36.55 7.55 -36.55 L6.8 -36.65 Q5.0 -36.4 3.65 -36.1 L2.35 -35.8 1.4 -35.55 Q0.65 -35.3 -1.2 -34.5 L-1.4 -34.5 Q-2.2 -34.6 -3.4 -33.85 -5.75 -32.4 -7.2 -31.0 -8.0 -30.25 -8.55 -29.35 L-8.8 -29.0 -8.8 -28.9 Q-9.25 -28.1 -9.5 -27.2 L-9.5 -27.1 -9.55 -27.1 Q-9.85 -26.65 -9.9 -26.35 L-9.95 -25.3 -9.85 -23.85 -9.7 -21.75 -9.7 -21.7 Q-9.75 -21.25 -9.25 -19.95 -8.85 -18.8 -8.75 -18.25 -8.55 -17.9 -8.25 -17.6 L-7.7 -17.0 -7.65 -17.0 -7.65 -16.95 -7.5 -16.8 -7.5 -16.75 -7.45 -16.7 -7.15 -16.35 -5.95 -15.1 Q-4.25 -13.5 -2.85 -13.05 -2.8 -13.0 -2.75 -12.95 L-2.7 -12.9 Q-2.1 -12.5 -1.9 -12.25 L-1.35 -12.0 -1.0 -11.95 -0.95 -12.0 -0.75 -12.0 -0.4 -11.95 -0.3 -11.95 -0.1 -11.85 0.4 -11.8 1.1 -11.75 1.1 -11.8 Q1.2 -11.85 1.3 -11.85 L2.05 -11.85 2.8 -11.75 Q3.8 -11.8 4.75 -12.0 L4.8 -12.05 4.9 -12.05 6.1 -12.0 Q7.7 -12.0 10.3 -13.1 L10.85 -13.35 10.9 -13.35 11.4 -13.55 Q11.45 -13.6 11.55 -13.65 L12.25 -13.95 12.3 -14.0 Q13.35 -14.4 13.95 -14.5 L15.5 -14.65 15.9 -14.7 16.2 -14.6 Q18.35 -14.6 19.2 -14.1 19.75 -13.8 20.35 -12.95 20.8 -12.5 21.2 -11.95 21.65 -11.4 21.8 -11.05 22.3 -9.5 22.45 -8.25 L22.5 -8.25 Q22.9 -8.7 23.3 -8.5 23.55 -8.65 23.85 -8.4 L24.0 -8.25 Q24.15 -8.3 24.25 -8.3 L24.3 -8.3 Q24.4 -8.35 24.45 -8.25 24.55 -8.2 24.6 -8.1 L24.6 -7.8 24.55 -7.7 24.55 -7.65 Q24.4 -7.3 24.2 -6.75 23.8 -5.5 23.15 -4.75 22.85 -3.85 22.65 -3.7 L22.65 -3.65 Q22.4 -3.45 21.6 -2.5 20.9 -1.7 20.1 -1.2 18.9 -0.2 17.35 0.85 15.75 1.85 14.45 2.35 L14.35 2.45 14.35 2.5 14.3 2.55 14.15 2.6 14.05 2.65 13.8 2.6 13.75 2.65 Q13.15 3.05 12.05 3.45 10.65 4.0 9.85 4.0 L9.65 4.0 Q9.55 4.0 9.5 3.9 9.4 3.85 9.4 3.75 L9.4 3.7 Q9.4 3.65 9.45 3.55 9.5 3.45 9.6 3.45 L9.65 3.45 Q10.3 3.25 10.85 2.65 L10.9 2.65 Q12.8 1.25 13.6 -0.1 14.25 -1.3 14.25 -2.85 L14.3 -4.2 Q14.3 -4.7 14.15 -5.05 L14.15 -5.1 Q13.75 -5.95 11.9 -7.25 L11.85 -7.25 Q11.55 -7.5 10.65 -7.55 L9.65 -7.65 Q9.6 -7.7 9.55 -7.7 L9.5 -7.7 Q8.1 -8.5 6.35 -8.5 3.65 -8.5 2.05 -8.15 L1.95 -8.1 1.75 -8.1 1.15 -8.2 -0.2 -7.8 -1.35 -7.45 -1.4 -7.45 -1.75 -7.3 Q-5.15 -6.2 -7.65 -6.2 -9.4 -6.2 -11.4 -6.65 -12.2 -6.65 -12.65 -6.95 -14.85 -7.55 -17.35 -8.65 -19.1 -9.4 -20.45 -10.15 L-22.45 -10.45 -23.75 -10.45 Q-24.25 -10.25 -24.5 -9.95 L-24.55 -9.9 -24.55 -9.85 -24.6 -9.85 -24.6 -9.7 Q-24.65 -9.55 -24.65 -8.85 L-24.65 -7.7 Q-24.65 -7.45 -24.5 -7.1 -24.45 -6.95 -24.5 -6.85 L-24.65 -6.7 -24.8 -6.7 Q-24.9 -6.7 -25.0 -6.75 -25.25 -6.95 -25.55 -7.5 -25.8 -7.5 -25.9 -7.65 -26.1 -7.8 -26.15 -8.2 L-26.25 -8.45 Q-26.4 -8.8 -26.4 -9.0 -26.45 -9.1 -26.6 -9.45 -26.85 -9.95 -26.85 -10.05 L-26.85 -10.1 -26.8 -10.35 Q-27.0 -11.05 -27.0 -11.4 L-27.0 -11.75 -26.95 -11.75 Q-26.85 -12.2 -26.3 -12.2 -26.0 -12.2 -25.7 -11.95 L-25.45 -11.7 -25.15 -12.8 -24.8 -13.75 Q-24.5 -15.1 -23.85 -16.7 L-23.85 -16.75 Q-23.45 -18.55 -22.8 -20.2 -22.85 -20.6 -22.6 -21.15 L-22.6 -21.2 Q-22.4 -21.6 -22.15 -22.3 -22.15 -22.75 -22.05 -22.95 L-21.95 -23.2 -22.0 -23.25 -22.15 -23.35 Q-22.5 -22.6 -23.0 -21.75 -24.65 -18.8 -25.15 -18.85 -25.55 -18.85 -25.7 -19.05 L-25.8 -19.25 -25.8 -19.35 Q-25.8 -20.2 -25.65 -21.6 L-25.35 -22.7 -25.3 -22.95 -25.4 -23.0 -25.45 -23.05 -25.5 -23.05 -25.5 -23.1 -25.55 -23.15 Q-25.7 -23.35 -25.75 -23.6 L-25.75 -23.7 -25.35 -25.2 Q-25.15 -25.85 -24.75 -26.8 L-24.65 -27.1 -24.6 -27.15 -24.6 -27.2 -24.35 -27.6 Q-23.55 -28.85 -22.55 -30.55 L-22.55 -30.6 -22.45 -30.65 -22.0 -31.0 Q-21.9 -31.2 -21.8 -31.15 L-21.25 -31.6 -20.15 -32.85 -19.5 -33.5 -19.35 -33.6 -19.05 -33.85 -19.05 -33.9 -19.0 -33.9 Q-18.7 -34.15 -18.45 -34.2 L-17.5 -34.75 -17.5 -34.8 -14.6 -36.55 Q-12.8 -37.65 -12.15 -37.6 L-11.75 -37.6 -11.55 -37.55 Q-11.15 -37.75 -10.9 -37.75 L-10.8 -37.8 -10.75 -37.8 Q-10.35 -38.0 -9.9 -37.75 L-8.15 -38.15 -8.05 -38.15 -7.9 -38.2 -6.0 -38.5 -5.85 -38.55 Q-5.0 -38.45 -4.95 -38.2 L-4.95 -38.05 Q-4.95 -38.0 -5.0 -37.9 -5.05 -37.85 -5.15 -37.85 L-5.15 -37.8 -6.95 -37.4 Q-7.85 -37.0 -9.65 -36.15 L-9.75 -36.1 -10.05 -35.9 -9.55 -36.1 -9.55 -36.15 Q-7.85 -36.8 -6.65 -37.05 L-6.6 -37.05 Q-6.1 -37.15 -5.35 -37.45 -4.4 -37.8 -3.95 -37.95 L-3.9 -37.95 Q-2.1 -38.45 0.9 -38.35 L4.6 -38.55 4.65 -38.55 Q7.05 -38.25 7.6 -38.05 8.25 -37.85 8.3 -37.4 8.45 -37.3 8.5 -37.25 M9.1 -37.35 L9.25 -37.35 9.35 -37.3 9.9 -37.15 10.0 -37.2 Q10.15 -37.15 10.45 -37.0 L10.5 -36.95 10.7 -36.85 11.1 -36.55 11.15 -36.5 11.2 -36.5 11.45 -36.3 11.5 -36.3 11.85 -35.95 Q12.2 -35.65 12.15 -35.4 L12.15 -35.2 Q12.1 -35.05 12.05 -35.0 11.95 -34.85 11.8 -34.9 L11.7 -34.9 11.6 -34.85 10.6 -34.85 10.5 -34.9 10.45 -34.9 Q9.45 -35.35 9.15 -35.5 8.5 -35.9 8.55 -36.25 8.55 -36.6 8.7 -36.7 L8.7 -36.85 Q8.7 -37.05 8.75 -37.15 8.85 -37.4 9.1 -37.35 M9.0 -36.6 L8.9 -36.6 8.95 -36.5 9.0 -36.6 M15.55 -34.1 L15.55 -34.05 Q16.2 -33.45 16.6 -33.2 17.1 -32.95 17.7 -32.35 18.45 -31.6 18.45 -31.25 L18.4 -31.0 Q18.35 -30.75 18.15 -30.75 L17.85 -30.75 17.8 -30.7 Q17.7 -30.6 17.55 -30.65 L17.55 -30.6 17.4 -30.55 17.25 -30.55 17.15 -30.6 17.1 -30.65 Q16.85 -30.95 15.45 -32.1 L15.25 -32.3 15.15 -32.3 Q14.95 -32.3 14.45 -32.8 L14.4 -32.8 14.4 -32.85 Q14.25 -32.95 14.0 -33.15 L13.95 -33.15 13.95 -33.2 Q13.6 -33.5 13.6 -33.85 L13.6 -33.95 Q13.25 -34.25 13.15 -34.35 13.05 -34.45 13.05 -34.55 13.05 -34.7 13.15 -34.75 13.2 -34.85 13.35 -34.85 13.85 -34.85 14.55 -34.5 15.05 -34.45 15.5 -34.1 L15.55 -34.1 M14.85 -28.45 Q15.6 -28.6 16.5 -28.05 16.85 -27.85 18.6 -27.2 L19.4 -26.9 19.4 -26.95 18.7 -28.45 18.3 -28.95 18.25 -28.95 Q18.2 -29.0 18.2 -29.1 18.2 -29.2 18.2 -29.25 L18.3 -29.5 18.4 -29.6 18.5 -29.65 Q19.05 -29.75 19.35 -29.55 19.55 -29.45 19.8 -29.05 19.85 -28.9 20.0 -28.85 L20.6 -28.5 20.65 -28.45 Q21.05 -28.25 21.45 -27.55 L21.5 -27.55 Q21.85 -26.85 22.0 -26.65 L22.05 -26.65 22.05 -26.6 Q23.85 -23.2 23.85 -22.7 23.85 -22.3 23.7 -22.25 L23.65 -22.2 Q23.55 -22.1 23.45 -22.1 23.35 -22.1 23.25 -22.15 L23.25 -22.2 22.75 -22.65 Q22.85 -22.25 22.85 -21.95 L22.85 -21.5 22.8 -21.4 22.7 -21.3 Q22.6 -21.0 22.4 -20.7 21.65 -19.65 19.6 -19.65 18.15 -19.65 16.3 -21.0 14.75 -22.15 14.4 -22.9 L14.4 -22.95 13.8 -23.8 13.75 -23.8 Q13.35 -24.5 13.35 -24.95 L13.2 -26.0 Q13.05 -26.75 13.05 -26.95 L13.2 -27.65 13.2 -27.7 Q13.55 -28.5 14.25 -28.45 L14.85 -28.45 M3.6 -6.1 L3.7 -6.2 3.75 -6.2 3.8 -6.15 3.8 -6.0 Q3.75 -5.95 3.7 -5.95 L3.6 -6.0 Q3.55 -6.0 3.55 -6.05 L3.55 -6.1 3.6 -6.1 M9.4 -4.45 L9.45 -4.3 Q9.45 -4.2 9.4 -4.1 L9.35 -4.1 Q9.3 -4.05 9.2 -4.0 9.1 -4.0 9.0 -4.05 L9.0 -4.1 8.25 -4.55 8.1 -4.7 Q8.1 -4.8 8.1 -4.9 L8.15 -4.9 8.25 -5.05 8.4 -5.1 8.65 -5.05 8.75 -5.05 8.8 -5.0 Q9.2 -4.75 9.4 -4.5 L9.4 -4.45 M7.6 -6.8 L7.6 -6.75 7.55 -6.7 7.45 -6.65 7.4 -6.7 7.35 -6.7 Q7.3 -6.75 7.3 -6.8 L7.35 -6.85 7.35 -6.9 7.55 -6.9 7.6 -6.85 7.6 -6.8 M7.25 -6.65 L7.3 -6.6 7.3 -6.45 7.25 -6.4 7.2 -6.4 7.15 -6.35 7.05 -6.35 7.05 -6.45 7.1 -6.5 7.15 -6.5 7.1 -6.55 7.1 -6.6 7.15 -6.65 7.25 -6.65 M6.6 -6.5 L6.7 -6.4 6.7 -6.3 6.65 -6.25 6.5 -6.25 6.45 -6.3 6.45 -6.35 6.5 -6.45 6.55 -6.5 6.6 -6.5 M6.25 -5.95 Q6.3 -5.95 6.35 -5.95 L6.4 -5.95 6.6 -5.95 6.65 -5.9 6.7 -5.9 6.7 -5.85 6.6 -5.75 6.6 -5.7 6.45 -5.7 6.4 -5.75 6.45 -5.8 6.4 -5.85 6.35 -5.75 6.35 -5.7 6.25 -5.7 6.2 -5.75 Q6.2 -5.8 6.2 -5.85 L6.2 -5.9 6.25 -5.9 6.25 -5.95 M6.0 -6.05 L6.05 -6.05 6.1 -6.0 6.1 -5.95 6.0 -5.85 5.9 -5.8 5.85 -5.85 5.85 -6.0 5.9 -6.05 6.0 -6.05 M19.3 0.4 Q19.3 0.5 19.2 0.6 L18.6 1.05 18.3 1.05 18.3 1.0 18.25 1.0 18.2 0.95 Q18.15 0.85 18.15 0.75 L18.15 0.7 Q18.2 0.6 18.25 0.55 L18.3 0.55 18.6 0.35 18.8 0.15 18.85 0.15 Q18.9 0.1 19.0 0.1 L19.05 0.1 Q19.15 0.1 19.2 0.2 19.3 0.3 19.3 0.4 M8.55 3.45 L8.75 3.45 Q8.85 3.5 8.9 3.55 L8.9 3.6 Q8.95 3.65 8.95 3.75 8.95 3.85 8.85 3.95 L8.85 4.0 8.7 4.05 8.45 4.05 Q8.35 4.05 8.25 3.95 8.15 3.85 8.15 3.75 8.15 3.65 8.25 3.55 L8.3 3.5 Q8.35 3.45 8.45 3.45 8.5 3.4 8.55 3.45 M-13.65 -33.95 L-13.15 -34.25 -13.15 -34.3 -13.1 -34.3 -13.65 -33.95 M-24.65 -9.95 L-24.65 -10.0 -24.7 -10.0 -24.65 -9.95 M-19.05 -0.9 L-19.05 -0.95 -19.0 -1.1 -18.9 -1.25 -18.7 -1.3 Q-18.25 -1.3 -17.55 -0.95 L-17.45 -1.0 -17.25 -1.0 Q-16.7 -0.85 -16.25 -0.55 L-15.9 -0.3 -15.9 -0.25 -15.65 -0.15 Q-15.65 -0.55 -15.5 -0.65 -15.4 -0.7 -15.2 -0.8 -15.1 -0.85 -15.0 -0.8 -14.9 -0.75 -14.85 -0.7 -14.4 -0.15 -11.7 1.05 L-9.4 2.05 -9.15 2.1 Q-8.75 2.15 -7.25 2.6 -5.8 3.0 -4.15 3.15 -3.6 3.25 -3.4 3.3 -3.05 3.45 -3.05 3.85 -3.05 4.25 -3.1 4.3 L-3.3 4.45 -4.15 4.45 -5.5 4.5 -5.95 4.5 Q-6.0 4.6 -6.1 4.6 L-6.95 4.75 -7.0 4.75 Q-10.85 3.85 -12.75 3.15 -13.95 2.65 -14.75 2.1 L-14.8 2.1 -14.8 2.05 Q-18.5 -0.15 -18.95 -0.7 L-19.0 -0.75 -19.0 -0.8 -19.05 -0.9" fill="#cdffb4" fill-opacity="0.49019608" fill-rule="evenodd" stroke="none"/>
      <path d="M8.05 -37.2 Q8.2 -37.15 8.2 -37.1 L8.05 -37.1 8.0 -37.0 7.95 -36.95 Q7.9 -36.85 7.55 -36.85 L6.85 -36.9 6.8 -36.95 Q4.95 -36.65 3.55 -36.4 L2.3 -36.1 1.35 -35.85 Q0.55 -35.6 -1.35 -34.75 -2.25 -34.9 -3.55 -34.1 -5.95 -32.6 -7.4 -31.2 -8.2 -30.4 -8.8 -29.55 L-9.1 -29.05 -9.05 -29.05 Q-9.55 -28.15 -9.75 -27.25 -10.1 -26.75 -10.2 -26.4 -10.25 -26.25 -10.25 -25.3 L-10.15 -23.8 -10.0 -21.7 Q-10.05 -21.25 -9.55 -19.85 -9.1 -18.65 -9.0 -18.1 L-8.5 -17.4 -7.85 -16.8 -7.75 -16.65 -7.75 -16.6 -7.35 -16.15 -6.15 -14.9 Q-4.4 -13.25 -2.95 -12.75 L-2.9 -12.65 Q-2.25 -12.25 -2.1 -12.0 L-1.4 -11.7 -0.75 -11.65 -0.85 -11.7 -0.45 -11.65 -0.1 -11.55 0.4 -11.55 1.2 -11.45 1.3 -11.55 1.35 -11.55 1.95 -11.6 Q2.35 -11.5 2.75 -11.45 3.8 -11.5 4.85 -11.75 L6.1 -11.7 Q7.7 -11.7 10.45 -12.85 L10.95 -13.1 11.8 -13.35 11.7 -13.4 11.65 -13.4 12.4 -13.7 Q13.45 -14.15 14.0 -14.2 L15.5 -14.35 15.95 -14.4 16.1 -14.3 Q18.2 -14.35 19.05 -13.85 19.55 -13.55 20.1 -12.8 20.55 -12.35 21.0 -11.8 21.4 -11.25 21.5 -10.95 22.1 -9.3 22.2 -7.95 L22.6 -7.95 Q23.0 -8.4 23.3 -8.2 L23.7 -8.15 Q23.85 -8.05 23.95 -7.9 24.1 -8.0 24.3 -8.05 L24.3 -7.8 Q24.15 -7.4 23.95 -6.85 23.55 -5.6 22.9 -4.85 22.6 -4.0 22.45 -3.9 22.2 -3.65 21.4 -2.7 20.7 -1.9 19.95 -1.45 18.75 -0.4 17.2 0.6 15.55 1.65 14.25 2.15 L14.05 2.35 Q13.85 2.35 13.8 2.3 L13.6 2.45 Q13.05 2.8 11.95 3.2 10.6 3.7 9.85 3.7 L9.7 3.7 Q10.45 3.5 11.05 2.85 13.0 1.4 13.85 0.05 14.55 -1.2 14.55 -2.85 L14.55 -4.15 Q14.55 -4.75 14.4 -5.15 14.05 -6.05 12.05 -7.5 11.7 -7.75 10.65 -7.85 L9.7 -7.95 Q8.2 -8.8 6.35 -8.8 3.55 -8.8 1.9 -8.4 L1.8 -8.35 1.2 -8.5 -0.25 -8.05 Q-0.85 -7.85 -1.45 -7.7 L-1.85 -7.6 Q-5.2 -6.5 -7.65 -6.5 -9.35 -6.5 -11.35 -6.95 -12.1 -6.95 -12.5 -7.2 -14.7 -7.8 -17.2 -8.9 -19.0 -9.65 -20.4 -10.45 L-22.4 -10.7 -23.8 -10.7 Q-24.4 -10.5 -24.7 -10.15 L-24.7 -10.2 -24.8 -10.2 -24.85 -9.95 -24.9 -9.85 Q-24.95 -9.65 -24.95 -8.85 L-24.9 -8.25 -24.95 -7.7 Q-24.95 -7.4 -24.8 -6.95 -25.05 -7.15 -25.35 -7.8 -25.6 -7.75 -25.7 -7.85 -25.85 -7.95 -25.85 -8.3 L-26.0 -8.55 Q-26.15 -8.85 -26.15 -9.0 -26.15 -9.15 -26.35 -9.55 -26.55 -10.0 -26.55 -10.05 -26.55 -10.2 -26.5 -10.35 -26.7 -11.05 -26.7 -11.4 L-26.7 -11.65 Q-26.65 -11.9 -26.3 -11.9 -26.1 -11.9 -25.9 -11.75 L-25.3 -11.2 -24.85 -12.7 Q-24.7 -13.3 -24.5 -13.7 -24.25 -15.0 -23.6 -16.6 L-23.6 -16.65 Q-23.15 -18.45 -22.55 -20.15 -22.55 -20.5 -22.35 -21.05 L-21.85 -22.25 Q-21.85 -22.65 -21.8 -22.85 L-21.4 -23.7 Q-21.6 -23.6 -21.8 -23.45 -22.15 -23.7 -22.2 -23.85 L-22.25 -23.8 Q-22.7 -22.9 -23.25 -21.9 -24.8 -19.15 -25.15 -19.15 -25.4 -19.15 -25.45 -19.25 L-25.55 -19.3 Q-25.5 -20.2 -25.35 -21.55 L-25.05 -22.65 Q-24.9 -23.15 -24.85 -23.45 -25.0 -23.3 -25.15 -23.2 L-25.25 -23.25 -25.35 -23.35 Q-25.45 -23.45 -25.5 -23.65 L-25.05 -25.1 Q-24.9 -25.8 -24.5 -26.7 L-24.35 -27.05 -24.1 -27.45 Q-23.3 -28.7 -22.3 -30.45 L-21.8 -30.8 -21.75 -30.85 -21.05 -31.4 -19.9 -32.7 -19.2 -33.4 -18.85 -33.65 Q-18.6 -33.85 -18.4 -33.9 L-18.4 -33.85 -17.35 -34.55 -14.45 -36.35 Q-12.8 -37.3 -12.15 -37.3 L-11.5 -37.3 Q-11.05 -37.45 -10.85 -37.45 L-10.65 -37.55 Q-10.35 -37.65 -9.95 -37.45 L-8.1 -37.85 -7.95 -37.9 -7.95 -37.85 -5.85 -38.2 -5.85 -38.25 Q-5.25 -38.2 -5.2 -38.1 L-7.05 -37.7 Q-7.95 -37.25 -9.8 -36.4 L-9.9 -36.35 Q-10.2 -36.15 -10.7 -35.85 L-11.9 -35.15 -13.15 -34.45 -14.05 -33.9 -15.8 -32.8 Q-16.3 -32.4 -17.15 -31.65 L-18.35 -30.45 Q-18.65 -30.1 -18.95 -29.5 L-17.5 -30.9 Q-16.15 -32.35 -13.65 -33.8 L-12.65 -34.35 Q-12.85 -34.4 -12.85 -34.45 -11.55 -34.95 -9.45 -35.85 -7.75 -36.55 -6.55 -36.75 -6.0 -36.85 -5.25 -37.15 L-3.8 -37.7 Q-2.05 -38.2 0.95 -38.05 L4.6 -38.25 Q6.95 -37.95 7.55 -37.8 8.05 -37.65 8.05 -37.25 L8.05 -37.2 M18.45 -29.15 L18.6 -29.35 Q18.95 -29.45 19.2 -29.3 19.35 -29.2 19.55 -28.9 19.65 -28.7 19.85 -28.55 L20.45 -28.25 Q20.85 -28.05 21.25 -27.4 21.6 -26.7 21.8 -26.45 23.55 -23.15 23.55 -22.7 L23.55 -22.45 23.45 -22.4 Q23.1 -22.65 22.55 -23.25 L21.85 -24.1 Q22.6 -22.6 22.6 -21.95 L22.55 -21.65 22.55 -21.55 22.45 -21.55 Q22.4 -21.2 22.15 -20.85 21.45 -19.95 19.6 -19.95 18.25 -19.95 16.5 -21.25 15.0 -22.3 14.65 -23.05 L14.0 -24.0 Q13.6 -24.6 13.6 -24.95 L13.45 -26.05 Q13.35 -26.8 13.35 -26.95 L13.45 -27.6 Q13.7 -28.2 14.25 -28.2 L14.9 -28.15 Q15.55 -28.3 16.35 -27.8 16.7 -27.6 18.5 -26.9 L20.0 -26.35 19.65 -27.1 Q19.15 -28.1 18.9 -28.6 L18.45 -29.15 M15.2 -32.6 Q15.05 -32.6 14.6 -33.05 L14.15 -33.4 Q13.9 -33.6 13.9 -33.85 L13.9 -34.05 13.35 -34.55 Q13.8 -34.55 14.45 -34.2 14.95 -34.2 15.35 -33.85 16.05 -33.2 16.45 -32.95 16.9 -32.7 17.5 -32.15 18.15 -31.5 18.15 -31.25 18.15 -31.05 18.1 -31.05 L17.75 -31.05 17.65 -31.1 Q17.65 -30.95 17.6 -30.95 L17.6 -31.0 Q17.25 -31.15 16.9 -31.45 L17.4 -30.9 17.35 -30.8 15.65 -32.3 15.35 -32.55 15.2 -32.6 M9.95 -36.9 Q10.1 -36.9 10.35 -36.75 L10.55 -36.6 10.95 -36.35 11.0 -36.3 11.25 -36.1 11.65 -35.75 Q11.85 -35.55 11.85 -35.4 L11.85 -35.2 11.8 -35.25 Q11.8 -35.2 11.7 -35.2 L11.45 -35.15 10.6 -35.15 Q9.6 -35.6 9.3 -35.75 8.85 -36.05 8.85 -36.25 8.85 -36.45 8.9 -36.5 L8.95 -36.45 9.5 -36.3 9.85 -36.2 9.75 -36.2 Q9.7 -36.3 9.7 -36.45 9.3 -36.65 9.05 -36.7 L9.0 -36.65 Q8.95 -36.65 8.95 -36.85 8.95 -37.1 9.05 -37.05 L9.15 -37.05 9.3 -37.0 9.95 -36.9 M3.75 -6.2 Q5.8 -6.8 7.35 -6.85 L7.1 -6.65 6.25 -6.5 6.55 -6.15 6.4 -5.95 6.1 -6.1 5.8 -6.3 5.85 -6.25 5.85 -6.05 4.9 -6.15 3.75 -6.2 M8.6 -4.8 Q9.0 -4.55 9.15 -4.3 L8.4 -4.8 8.6 -4.8 M18.75 0.55 L19.0 0.4 18.85 0.55 Q18.65 0.65 18.45 0.8 L18.75 0.55 M-18.75 -0.85 L-18.7 -1.05 Q-18.2 -1.0 -17.25 -0.45 L-16.75 -0.2 -17.35 -0.7 Q-16.8 -0.55 -16.4 -0.3 L-16.05 -0.05 -15.3 0.35 -13.25 1.45 -13.1 1.55 -12.7 1.65 Q-15.4 0.45 -15.4 -0.15 -15.4 -0.4 -15.3 -0.45 L-15.1 -0.55 Q-14.7 0.05 -11.8 1.3 L-9.5 2.35 -9.2 2.35 Q-8.8 2.45 -7.3 2.85 -5.85 3.25 -4.2 3.45 -3.65 3.5 -3.5 3.55 -3.3 3.65 -3.3 3.85 L-3.35 4.1 -3.4 4.2 -3.9 4.2 -4.2 4.15 -4.15 4.2 -5.55 4.2 Q-6.05 4.2 -7.0 4.0 L-6.25 4.2 Q-6.2 4.25 -6.2 4.3 L-6.15 4.3 -6.95 4.45 Q-10.75 3.6 -12.65 2.85 -13.85 2.4 -14.65 1.85 -18.3 -0.35 -18.75 -0.85 M-22.85 -18.3 L-22.8 -18.4 -22.6 -18.85 -22.85 -18.3 M8.65 3.75 L8.45 3.75 8.5 3.7 8.65 3.75" fill="#ffffff" fill-rule="evenodd" stroke="none"/>
      <path d="M8.45 -38.55 Q6.8 -38.95 3.3 -39.3 L3.1 -39.35 Q2.95 -39.4 2.95 -39.5 6.7 -39.2 8.5 -38.8 9.65 -38.55 12.05 -37.75 12.65 -37.65 14.15 -36.9 15.7 -36.1 16.05 -35.65 L16.05 -35.4 Q16.0 -35.15 16.25 -35.0 L16.65 -34.7 17.0 -34.35 18.25 -33.2 Q18.25 -33.1 18.15 -33.0 L14.75 -35.35 Q12.3 -36.95 10.2 -37.6 10.2 -37.7 10.4 -37.8 10.55 -37.95 10.85 -38.0 L8.45 -38.55 M1.45 -38.6 L-2.7 -38.6 Q-5.75 -38.2 -6.6 -37.95 L-10.5 -36.5 -10.65 -36.5 Q-7.55 -37.95 -6.7 -38.2 L-2.45 -39.0 Q3.35 -39.1 5.35 -38.35 L1.45 -38.6 M12.85 -37.15 L13.05 -37.1 12.8 -37.25 12.55 -37.3 12.85 -37.15 M13.2 -37.0 L13.25 -36.95 13.4 -36.9 Q13.6 -36.8 13.7 -36.8 13.35 -37.0 13.2 -37.0 M18.8 -33.7 Q18.8 -33.75 18.85 -33.85 21.45 -32.05 23.8 -27.6 24.75 -25.85 25.3 -24.25 25.85 -22.7 25.75 -22.0 25.7 -21.85 25.45 -21.85 24.75 -24.75 23.1 -27.65 21.4 -30.75 18.8 -33.6 L18.8 -33.7 M22.05 -4.15 Q23.75 -7.2 24.5 -9.65 25.3 -12.3 25.3 -15.05 L25.3 -15.45 25.25 -15.05 Q25.0 -13.35 24.85 -12.75 24.8 -12.4 24.65 -11.55 L24.45 -10.4 24.3 -10.1 24.45 -11.2 Q24.85 -14.3 24.85 -14.9 24.85 -16.65 24.55 -19.05 L24.25 -20.35 23.6 -22.65 23.35 -23.1 23.45 -23.15 23.5 -23.15 23.4 -23.5 Q23.4 -23.85 23.45 -23.65 L23.65 -23.7 23.8 -23.35 Q23.5 -24.35 23.2 -24.85 23.3 -25.0 23.5 -25.0 24.5 -23.25 25.0 -20.1 L25.25 -18.5 Q25.65 -18.0 25.8 -16.95 25.8 -16.55 25.8 -14.95 25.8 -8.95 22.15 -4.05 L22.05 -4.15 M26.8 -18.0 Q27.0 -16.7 27.05 -16.35 L27.05 -14.85 26.95 -14.8 Q26.95 -15.65 26.75 -17.1 L26.35 -19.4 26.45 -19.45 Q26.7 -18.95 26.8 -18.0 M25.8 -9.7 Q24.85 -6.25 23.35 -3.9 21.4 -0.75 17.7 1.85 17.35 1.8 17.3 1.7 20.2 0.2 22.95 -4.35 23.8 -5.7 24.75 -7.6 L25.8 -9.7 M26.05 -9.25 L25.95 -9.25 Q26.2 -10.0 26.2 -10.3 L26.3 -10.3 26.35 -10.1 Q26.3 -9.7 26.05 -9.25 M24.85 -4.15 L24.05 -3.75 24.3 -4.0 Q24.65 -4.65 24.9 -4.9 24.9 -4.55 24.85 -4.15 M11.75 4.05 Q9.7 5.2 8.95 5.2 L8.6 5.2 8.5 5.15 7.25 5.5 Q5.05 6.15 3.55 6.15 L2.45 6.05 Q1.55 5.95 1.5 5.9 1.55 5.75 1.7 5.7 7.0 5.3 11.35 3.4 14.65 1.95 17.05 -0.2 17.05 -0.05 16.95 0.15 L19.05 -1.35 Q18.75 -0.65 17.65 0.3 18.8 -0.45 19.2 -0.95 18.6 0.6 14.2 2.8 L12.5 3.6 11.75 4.05 M-15.0 -36.95 L-14.85 -37.05 -14.8 -37.1 -15.0 -36.95 M-12.55 -38.0 Q-11.25 -38.6 -10.2 -38.85 -9.2 -39.15 -7.6 -39.35 L-3.45 -39.9 -2.1 -39.85 -2.05 -39.65 -7.05 -39.0 Q-9.0 -38.7 -10.05 -38.45 -11.15 -38.15 -12.4 -37.55 -13.3 -37.1 -15.65 -35.85 -18.05 -34.55 -20.0 -32.6 -20.9 -31.75 -22.95 -29.25 L-23.0 -29.25 -23.05 -29.5 Q-23.05 -29.85 -22.05 -31.05 -22.0 -31.25 -21.85 -31.5 -21.65 -31.65 -21.55 -31.75 L-21.55 -31.7 Q-20.9 -32.45 -20.4 -32.9 -19.35 -33.95 -18.6 -34.6 -17.35 -35.6 -16.1 -36.25 -13.55 -37.55 -12.55 -38.0 M-21.1 -30.1 Q-20.3 -31.05 -19.95 -31.1 L-19.85 -31.0 Q-23.6 -27.05 -24.9 -21.8 -25.35 -20.05 -25.7 -17.25 L-25.9 -15.65 Q-25.85 -13.85 -25.7 -12.3 L-25.4 -11.05 Q-25.45 -11.05 -25.55 -11.1 -25.1 -7.9 -24.1 -5.8 L-24.2 -5.7 Q-25.55 -8.05 -26.05 -11.5 L-26.1 -11.75 -26.25 -12.1 -26.25 -12.0 -26.2 -11.3 Q-26.25 -11.35 -26.3 -11.4 L-26.4 -10.4 -26.5 -10.4 Q-26.5 -10.9 -26.55 -11.9 L-26.55 -12.0 -26.6 -12.15 -26.85 -13.45 -27.0 -14.8 -27.05 -15.9 Q-27.05 -18.15 -26.45 -21.15 -26.0 -23.4 -25.4 -24.7 -24.85 -26.5 -24.25 -26.75 -25.2 -24.1 -25.75 -21.3 L-25.85 -20.65 -25.9 -20.05 -25.9 -19.75 -25.8 -20.35 Q-25.65 -21.4 -25.55 -22.0 -25.3 -23.25 -24.55 -24.8 -23.65 -27.25 -22.5 -28.3 -21.8 -29.35 -21.1 -30.1 M-27.2 -21.75 Q-27.8 -18.45 -27.8 -15.45 L-27.8 -14.75 -28.05 -13.6 Q-27.9 -12.45 -27.7 -11.2 -27.25 -8.4 -26.45 -5.95 L-26.55 -5.9 Q-28.7 -10.2 -28.7 -16.55 -28.7 -19.55 -27.95 -21.35 L-27.8 -21.9 -27.45 -23.7 Q-27.15 -24.95 -26.9 -25.75 -26.2 -28.15 -25.45 -27.85 -26.55 -25.15 -27.2 -21.75 M-24.35 -4.15 Q-23.45 -2.75 -22.65 -1.8 -20.25 0.9 -15.8 2.65 -15.55 2.75 -15.35 2.85 -20.35 1.65 -23.0 -1.4 -23.9 -2.5 -24.75 -4.05 L-25.95 -6.45 -25.8 -6.45 -24.35 -4.15 M-0.45 5.9 Q0.2 5.95 0.2 6.05 L-0.35 6.15 -1.15 6.2 -2.55 6.15 -4.9 6.05 -6.0 5.9 -7.4 5.7 -7.6 5.55 Q-7.7 5.45 -7.7 5.3 L-3.95 5.55 -0.45 5.9 M-8.4 3.75 Q-6.5 4.15 2.8 4.6 L-3.0 4.85 Q-7.4 4.85 -12.65 3.15 -14.8 2.45 -16.45 1.65 -18.0 0.9 -18.55 0.3 -17.75 0.25 -16.75 0.75 -15.65 1.4 -15.1 1.6 -14.35 2.0 -12.8 2.55 -11.35 3.0 -11.0 3.05 -9.95 3.2 -9.4 3.4 -8.75 3.7 -8.4 3.75 M-16.85 3.9 Q-16.7 3.95 -16.7 4.05 -18.6 3.4 -20.4 2.45 -22.1 1.55 -23.1 0.7 L-22.95 0.65 Q-20.25 2.3 -16.95 3.8 L-16.85 3.9" fill="#cdffb4" fill-opacity="0.2901961" fill-rule="evenodd" stroke="none"/>
    </g>
    <g id="shape1" transform="matrix(1.0, 0.0, 0.0, 1.0, 54.05, 29.55)">
      <path d="M29.95 -28.35 L30.05 -28.3 30.1 -28.25 30.15 -28.0 30.15 -27.95 30.0 -27.65 30.3 -27.8 30.45 -27.95 Q31.5 -28.7 31.7 -28.8 L31.8 -28.8 31.85 -28.75 31.9 -28.65 Q32.4 -29.15 32.7 -29.5 L32.8 -29.55 32.9 -29.55 32.95 -29.45 32.95 -29.35 Q32.85 -29.1 32.6 -28.8 L32.65 -28.8 32.75 -28.75 32.8 -28.65 32.8 -28.6 32.4 -28.1 Q32.0 -27.65 31.1 -26.9 L30.45 -26.3 30.25 -25.95 30.2 -25.9 30.05 -25.9 Q29.8 -25.6 29.65 -25.4 L29.65 -25.35 29.6 -25.3 29.6 -25.35 29.45 -25.3 29.35 -25.3 29.25 -25.35 29.25 -25.4 Q29.25 -25.45 29.25 -25.5 29.35 -25.75 29.75 -26.2 L29.7 -26.25 Q29.7 -26.3 29.7 -26.35 L29.75 -26.4 30.05 -26.8 Q29.6 -26.45 29.15 -26.2 L29.1 -26.2 Q29.05 -26.2 29.0 -26.25 L28.95 -26.3 28.95 -26.35 28.3 -25.65 28.25 -25.6 28.1 -25.6 Q28.1 -25.65 28.05 -25.7 28.05 -25.75 28.05 -25.8 28.35 -26.45 28.85 -27.2 29.35 -27.9 29.85 -28.3 L29.95 -28.35 M20.75 -25.95 L20.85 -25.95 20.95 -25.85 20.95 -25.75 Q20.85 -25.45 20.55 -24.95 L20.15 -24.25 Q19.65 -23.35 19.15 -22.9 L19.05 -22.9 Q19.0 -22.9 18.95 -22.9 L18.9 -23.0 Q18.9 -23.05 18.95 -23.1 L19.05 -23.25 19.0 -23.2 18.85 -23.2 18.8 -23.3 18.75 -23.3 18.8 -23.4 18.85 -23.55 18.6 -23.65 Q18.55 -23.65 18.5 -23.7 L18.3 -23.5 18.15 -23.3 18.05 -23.2 18.05 -23.25 17.9 -23.2 17.8 -23.2 17.75 -23.25 Q17.7 -23.3 17.7 -23.35 L17.75 -23.4 18.2 -24.3 18.25 -24.3 Q18.45 -24.7 18.7 -24.9 19.15 -25.5 19.55 -25.75 L19.65 -25.8 19.75 -25.75 19.75 -25.6 19.15 -24.6 Q20.05 -25.55 20.5 -25.65 L20.75 -25.95 M9.25 -4.45 L9.1 -4.3 Q9.0 -4.2 9.0 -4.05 9.0 -3.75 8.2 -3.15 7.5 -2.65 7.15 -2.5 L7.05 -2.5 Q7.0 -2.5 6.95 -2.55 L6.95 -2.75 Q7.3 -3.15 7.9 -4.1 L7.95 -4.1 Q8.6 -4.9 9.25 -4.7 L9.2 -4.7 9.3 -4.65 9.3 -4.5 Q9.3 -4.45 9.25 -4.45 M10.35 -3.9 L10.4 -3.9 10.45 -3.85 Q10.8 -4.25 11.1 -4.25 L11.2 -4.2 11.25 -4.15 11.25 -4.05 11.2 -3.95 11.55 -4.15 12.35 -4.65 12.45 -4.65 12.55 -4.6 12.55 -4.45 Q12.35 -4.1 11.75 -3.5 11.25 -3.0 10.7 -2.55 L10.6 -2.5 10.55 -2.5 10.45 -2.55 10.4 -2.65 10.4 -2.75 10.45 -2.8 10.55 -2.95 10.5 -2.9 10.4 -2.9 10.2 -2.95 Q10.15 -2.95 10.1 -3.0 L10.1 -3.1 9.9 -2.95 Q9.9 -2.9 9.85 -2.9 L9.8 -2.9 9.6 -2.95 9.5 -3.0 Q9.5 -3.05 9.5 -3.1 L9.55 -3.2 9.9 -3.65 Q10.15 -3.95 10.35 -3.9 M43.0 -22.7 Q43.45 -22.9 43.7 -22.95 L43.8 -22.95 43.9 -22.85 43.85 -22.75 Q43.75 -22.5 42.45 -21.8 L42.4 -21.8 Q41.15 -21.15 41.0 -20.95 L40.95 -20.95 40.95 -20.9 40.85 -20.9 40.5 -20.95 Q40.45 -20.95 40.4 -21.0 L40.35 -21.05 40.35 -21.1 40.3 -21.1 Q40.25 -21.15 40.2 -21.15 L40.2 -21.25 40.25 -21.35 Q40.7 -21.7 41.6 -22.2 L42.8 -22.8 42.9 -22.8 43.0 -22.75 43.0 -22.7 M36.2 -24.4 L36.25 -24.35 36.3 -24.15 36.3 -24.1 36.25 -24.0 34.55 -22.7 Q33.65 -22.05 33.05 -21.85 L32.95 -21.85 32.9 -21.9 32.85 -22.0 32.9 -22.05 33.1 -22.3 32.85 -22.15 32.75 -22.1 32.5 -22.15 32.4 -22.25 32.4 -22.35 Q32.6 -22.6 33.25 -23.15 L33.95 -23.7 34.05 -23.7 34.15 -23.6 34.15 -23.5 Q34.05 -23.35 33.8 -23.05 L34.35 -23.5 35.7 -24.45 35.8 -24.5 36.1 -24.45 36.2 -24.4 M34.9 -22.0 Q35.15 -22.25 35.4 -22.35 36.3 -22.85 36.45 -22.6 L36.5 -22.5 Q36.65 -22.5 36.8 -22.6 L37.35 -22.8 37.35 -22.85 37.4 -22.85 37.4 -22.9 Q37.5 -22.9 37.55 -22.85 L37.65 -22.7 37.65 -22.5 Q37.65 -22.15 37.4 -22.1 L37.3 -22.1 37.3 -22.05 37.35 -22.0 37.3 -21.9 37.25 -21.85 Q36.9 -21.75 36.1 -21.4 L35.1 -20.95 Q35.0 -20.85 34.95 -20.85 34.75 -20.8 34.7 -20.95 34.65 -21.05 34.65 -21.2 34.65 -21.35 34.7 -21.5 L34.65 -21.55 34.65 -21.65 Q34.7 -21.75 34.9 -21.95 L34.9 -22.0 M43.1 -16.75 L43.15 -16.8 Q43.95 -17.1 44.85 -17.5 45.55 -17.85 45.95 -18.15 46.4 -18.4 46.65 -18.35 L47.0 -18.25 Q47.2 -18.3 47.8 -18.6 48.45 -18.9 48.55 -18.9 L48.65 -18.8 48.65 -18.7 49.1 -18.9 Q50.4 -19.5 52.4 -20.25 L52.5 -20.25 52.55 -20.2 52.6 -20.1 52.55 -20.0 Q52.15 -19.55 49.5 -18.25 47.6 -17.3 46.25 -16.75 L46.15 -16.75 Q46.1 -16.75 46.05 -16.8 L46.05 -16.95 Q46.3 -17.35 47.05 -17.85 L46.2 -17.45 Q44.65 -16.7 43.1 -16.3 L43.0 -16.3 Q42.95 -16.35 42.9 -16.4 42.9 -16.45 42.9 -16.5 L42.95 -16.55 Q43.0 -16.7 43.1 -16.75 M30.9 -25.05 L31.0 -25.0 31.0 -24.9 30.95 -24.8 30.8 -24.45 Q30.65 -24.15 30.5 -23.95 L30.45 -23.95 30.45 -23.9 30.35 -23.9 30.0 -23.95 Q29.95 -23.95 29.9 -23.95 L29.85 -24.05 29.65 -24.1 Q29.6 -24.1 29.6 -24.15 29.55 -24.2 29.55 -24.25 L29.6 -24.35 Q29.85 -24.55 30.25 -24.8 30.65 -25.0 30.85 -25.05 L30.9 -25.05 M31.5 -23.0 Q32.1 -23.55 32.35 -23.55 L32.45 -23.5 32.5 -23.45 32.5 -23.35 Q32.4 -23.2 31.85 -22.7 L31.25 -22.15 31.05 -22.15 Q31.0 -22.15 30.95 -22.15 L30.95 -22.2 Q30.9 -22.2 30.9 -22.25 L30.95 -22.35 31.5 -23.0 M28.0 -27.65 L28.0 -27.55 Q27.9 -27.2 27.45 -26.65 L27.25 -26.45 27.2 -26.35 Q26.8 -25.75 26.35 -25.35 26.3 -25.3 26.25 -25.3 L26.1 -25.3 Q26.05 -25.3 26.0 -25.3 L25.95 -25.4 Q25.95 -25.45 26.0 -25.5 L26.9 -26.7 Q27.4 -27.4 27.6 -27.55 L27.8 -27.7 27.85 -27.75 27.95 -27.75 28.0 -27.65 M26.1 -26.7 L26.1 -26.4 Q26.1 -26.25 25.1 -25.25 24.2 -24.35 24.0 -24.25 L23.9 -24.25 Q23.85 -24.25 23.85 -24.3 L23.75 -24.35 Q23.7 -24.4 23.7 -24.45 23.7 -24.5 23.75 -24.55 L24.15 -25.0 Q23.95 -24.8 23.75 -24.7 L23.7 -24.7 Q23.65 -24.7 23.6 -24.75 L23.55 -24.85 Q23.55 -25.15 23.9 -25.55 L23.9 -25.6 Q24.2 -25.95 24.5 -26.1 L24.6 -26.1 24.7 -26.05 24.7 -25.9 Q24.6 -25.6 24.4 -25.3 L24.2 -25.05 24.8 -25.75 Q25.55 -26.6 25.8 -26.8 25.85 -26.85 25.9 -26.85 L26.0 -26.85 26.05 -26.8 26.1 -26.7 M38.6 -4.15 Q37.05 -4.2 37.05 -4.4 37.05 -4.45 37.1 -4.5 37.15 -4.55 37.2 -4.55 39.15 -4.6 40.25 -4.9 L40.65 -5.0 40.7 -5.0 Q40.8 -5.0 40.9 -4.75 L41.05 -4.75 41.4 -4.85 41.5 -4.85 Q41.95 -4.8 41.95 -4.65 L42.0 -4.6 41.95 -4.5 41.9 -4.45 41.7 -4.4 45.9 -5.1 46.05 -5.15 46.25 -5.15 48.5 -5.5 48.6 -5.6 48.65 -5.6 Q49.5 -5.55 49.6 -5.4 L49.6 -5.25 49.5 -5.2 47.85 -4.9 Q47.95 -4.85 47.95 -4.75 L47.95 -4.65 47.9 -4.55 47.9 -4.5 47.8 -4.45 46.6 -4.2 46.5 -4.15 Q47.6 -4.2 48.15 -4.15 L48.25 -4.1 48.25 -3.9 48.15 -3.85 Q47.6 -3.65 44.65 -3.4 L40.9 -3.05 40.85 -3.05 40.5 -3.1 Q40.45 -3.1 40.4 -3.15 L40.35 -3.25 40.35 -3.35 40.4 -3.35 40.45 -3.4 Q41.7 -3.75 44.25 -4.0 L44.25 -4.05 44.3 -4.1 44.45 -4.2 Q43.1 -3.95 42.65 -3.95 L42.0 -4.0 Q41.5 -4.05 41.55 -4.25 L41.6 -4.35 41.65 -4.4 41.2 -4.3 Q40.5 -4.1 40.25 -4.1 L38.6 -4.15 M37.55 -1.8 Q37.6 -1.85 37.65 -1.85 L37.95 -1.85 38.0 -1.95 38.1 -2.0 41.55 -2.25 43.9 -2.3 45.95 -2.45 46.05 -2.4 46.05 -2.25 46.0 -2.15 Q44.8 -1.75 41.8 -1.55 L38.75 -1.4 38.05 -1.45 Q37.45 -1.5 37.5 -1.7 L37.55 -1.8 M60.55 -15.9 L60.6 -15.95 60.8 -15.95 61.15 -15.9 61.35 -15.9 61.4 -15.85 62.6 -16.05 62.7 -16.05 62.75 -16.0 62.8 -15.9 62.8 -15.75 62.7 -15.7 61.35 -15.3 61.25 -15.2 61.25 -15.25 60.7 -15.1 60.7 -14.95 Q60.65 -14.95 60.6 -14.95 L58.75 -14.6 58.7 -14.6 57.5 -14.3 57.2 -14.35 55.95 -14.1 55.9 -14.1 55.6 -14.0 55.45 -14.0 53.6 -13.7 53.2 -13.75 53.15 -13.75 53.1 -13.8 53.1 -14.0 Q53.15 -14.1 53.25 -14.15 L53.3 -14.15 54.0 -14.25 54.0 -14.4 53.0 -14.3 52.6 -14.35 52.55 -14.35 52.5 -14.4 52.5 -14.6 Q52.55 -14.7 52.65 -14.75 L52.7 -14.75 55.8 -15.3 57.25 -15.5 58.7 -15.9 58.8 -15.9 58.85 -15.85 58.9 -15.75 58.85 -15.7 59.7 -15.75 60.3 -15.95 60.35 -15.95 60.55 -15.9 M60.85 -14.25 L60.9 -14.25 60.9 -14.2 60.95 -14.2 60.8 -14.15 Q60.8 -14.2 60.85 -14.25 M57.6 -12.9 L57.6 -12.95 57.65 -12.9 57.6 -12.9 M56.3 -13.25 L56.25 -13.2 56.25 -13.25 56.3 -13.25 M55.85 -12.95 L55.85 -13.0 55.95 -12.9 55.9 -12.85 55.85 -12.9 55.85 -12.95 M54.2 -10.85 L54.2 -10.9 54.4 -11.1 58.2 -11.8 60.15 -12.05 60.25 -12.05 60.25 -12.0 60.3 -11.95 60.3 -11.85 60.2 -11.75 60.2 -11.8 Q59.55 -11.45 57.55 -11.1 L54.55 -10.55 54.45 -10.55 54.25 -10.6 Q54.2 -10.6 54.2 -10.65 L54.15 -10.65 Q54.15 -10.7 54.15 -10.75 L54.15 -10.8 54.2 -10.85 M52.95 -8.3 L52.75 -8.35 52.65 -8.4 52.65 -8.55 52.7 -8.6 52.7 -8.65 52.9 -8.85 56.95 -9.5 59.55 -9.7 59.65 -9.65 59.65 -9.45 59.55 -9.4 58.45 -9.2 58.45 -9.15 61.2 -9.5 64.75 -9.75 66.7 -10.0 66.8 -9.95 66.85 -9.9 66.85 -9.75 Q66.8 -9.75 66.75 -9.7 L65.95 -9.5 65.85 -9.4 65.5 -9.35 65.5 -9.3 Q65.45 -9.3 65.4 -9.25 63.5 -8.75 60.5 -8.35 L57.25 -8.0 Q57.2 -7.95 57.1 -7.95 56.95 -7.9 56.9 -8.05 56.85 -8.15 56.85 -8.3 56.85 -8.35 56.85 -8.4 L56.55 -8.4 56.4 -8.35 56.35 -8.35 56.25 -8.4 56.25 -8.5 Q56.05 -8.6 56.05 -8.7 L56.05 -8.65 Q56.05 -8.7 56.05 -8.75 L53.0 -8.3 52.95 -8.3 M60.85 -13.85 L60.85 -13.8 61.05 -13.8 60.85 -13.75 60.75 -13.75 60.7 -13.85 60.85 -13.85 M58.3 -13.75 L58.3 -13.75 M58.45 -13.1 L58.45 -13.0 58.4 -13.0 58.35 -13.05 58.35 -13.1 58.4 -13.15 58.45 -13.1 M58.05 -12.85 L58.05 -12.85 M57.9 -12.85 L57.95 -12.85 57.95 -12.75 57.9 -12.75 57.9 -12.7 57.85 -12.85 57.9 -12.85 M40.55 0.85 Q40.65 0.85 40.8 0.95 L40.8 1.0 41.05 1.0 41.15 1.05 41.2 1.1 41.2 1.35 Q41.15 1.5 40.85 1.5 L40.8 1.55 40.35 1.55 Q40.35 1.65 40.2 1.7 L39.8 1.75 39.7 1.75 39.65 1.8 39.45 1.8 37.3 1.5 Q35.55 1.2 35.25 1.1 L35.25 1.05 Q35.1 0.95 35.1 0.85 35.1 0.8 35.15 0.75 35.2 0.7 35.25 0.7 L36.05 0.8 36.15 0.7 36.15 0.65 Q36.25 0.55 36.3 0.55 L36.4 0.5 36.75 0.55 36.9 0.5 36.75 0.35 36.75 0.3 Q36.7 0.2 36.85 0.15 L36.9 0.1 37.0 0.05 38.9 0.2 Q40.25 0.3 40.35 0.5 L40.35 0.55 Q40.3 0.7 40.15 0.75 L40.0 0.7 39.8 0.7 39.85 0.85 39.9 0.85 40.25 0.9 40.5 0.85 40.55 0.85 M34.9 2.15 L33.65 2.05 33.45 2.0 Q33.1 1.85 33.15 1.7 33.15 1.65 33.2 1.6 33.25 1.55 33.3 1.55 L36.75 1.8 Q36.8 1.8 36.85 1.85 L36.9 1.95 36.9 2.0 36.75 2.15 36.7 2.15 35.6 2.2 34.9 2.15 M-48.85 -12.65 Q-48.3 -12.6 -47.0 -12.15 L-46.65 -12.05 -46.5 -12.2 -46.4 -12.2 -45.7 -12.05 Q-45.4 -12.0 -45.2 -11.85 L-45.15 -11.85 -44.4 -11.6 Q-43.75 -11.35 -43.7 -11.1 L-42.5 -10.8 Q-41.05 -10.4 -40.85 -10.25 L-40.8 -10.15 Q-40.8 -10.1 -40.8 -10.05 L-40.85 -10.0 -40.95 -9.95 Q-42.7 -10.4 -43.45 -10.65 L-44.15 -10.85 -43.65 -10.6 -43.65 -10.5 -43.7 -10.4 -43.8 -10.4 Q-44.4 -10.45 -46.1 -11.1 L-49.0 -12.25 -49.05 -12.3 -49.05 -12.4 Q-49.05 -12.5 -49.0 -12.55 L-48.9 -12.65 -48.85 -12.65 M-50.1 -11.55 L-48.85 -11.2 -45.55 -10.2 Q-45.3 -10.1 -45.15 -9.95 L-45.05 -9.9 -45.1 -9.9 Q-45.05 -9.85 -45.1 -9.8 -45.1 -9.75 -45.15 -9.75 L-45.25 -9.7 -45.4 -9.75 -45.4 -9.7 -44.85 -9.55 Q-44.4 -9.45 -44.35 -9.3 L-44.35 -9.25 -43.9 -9.1 -43.8 -9.05 -43.8 -8.75 Q-43.8 -8.7 -43.85 -8.7 L-43.95 -8.65 -44.0 -8.65 Q-45.0 -8.8 -45.7 -9.2 L-45.75 -9.2 -49.3 -10.4 -49.35 -10.4 Q-51.3 -10.85 -53.35 -11.75 L-53.95 -11.95 -54.0 -12.0 -54.05 -12.1 -54.05 -12.3 -54.0 -12.4 -53.95 -12.45 -53.8 -12.45 -53.75 -12.5 -53.65 -12.5 -53.45 -12.45 -53.3 -12.45 -52.75 -12.25 -52.6 -12.2 -52.65 -12.35 -52.55 -12.45 -52.45 -12.45 Q-52.1 -12.35 -50.15 -11.55 L-50.1 -11.55 M-50.4 -9.85 L-50.35 -9.9 -50.25 -9.95 Q-49.5 -9.85 -48.5 -9.6 -47.35 -9.35 -47.3 -9.1 L-46.6 -8.95 -45.5 -8.8 Q-45.2 -8.65 -45.0 -8.55 -44.95 -8.55 -44.95 -8.5 L-44.95 -8.4 -45.0 -8.3 Q-45.05 -8.3 -45.1 -8.3 -46.5 -8.45 -47.6 -8.75 L-50.4 -9.55 -50.45 -9.6 -50.5 -9.7 Q-50.5 -9.8 -50.4 -9.85 M-34.2 -21.7 L-34.2 -21.8 -34.15 -21.85 -34.05 -21.9 Q-34.0 -21.9 -33.95 -21.85 L-33.6 -21.5 Q-33.05 -21.15 -32.25 -20.5 L-30.4 -19.1 -30.35 -19.05 -30.35 -19.0 -30.4 -18.9 -30.35 -18.9 Q-28.2 -17.35 -27.4 -16.7 -27.35 -16.65 -27.35 -16.6 L-27.35 -16.5 -27.45 -16.45 -27.55 -16.45 -27.8 -16.55 -27.85 -16.45 Q-27.85 -16.4 -27.9 -16.4 L-28.05 -16.4 -27.45 -15.9 -27.4 -15.85 -27.4 -15.7 Q-27.4 -15.6 -27.45 -15.6 -27.45 -15.55 -27.5 -15.55 L-27.6 -15.55 Q-28.6 -16.3 -31.25 -18.65 -32.3 -19.5 -32.95 -20.1 L-34.1 -20.8 -34.1 -20.85 -34.2 -20.95 -34.2 -21.05 -34.15 -21.15 -34.05 -21.2 -34.0 -21.25 -34.05 -21.45 -34.2 -21.7 M-31.0 -18.35 Q-30.95 -18.3 -31.0 -18.25 L-31.05 -18.2 -31.2 -18.2 -31.4 -18.3 -30.0 -17.4 -29.95 -17.35 Q-29.9 -17.3 -29.95 -17.2 L-29.95 -17.25 -30.0 -17.15 -30.1 -17.15 Q-30.65 -17.35 -31.75 -18.0 L-32.85 -18.7 Q-32.85 -18.65 -32.9 -18.6 L-32.8 -18.55 -32.75 -18.45 -32.65 -18.4 -32.65 -18.3 Q-32.65 -18.25 -32.65 -18.2 L-32.75 -18.15 -32.8 -18.15 -32.95 -18.2 -33.1 -18.2 Q-33.65 -18.15 -34.65 -19.1 L-36.45 -20.25 -36.5 -20.35 -36.5 -20.4 -36.45 -20.45 -36.3 -20.65 -36.45 -20.8 Q-38.5 -22.3 -39.6 -23.45 L-39.65 -23.55 Q-39.65 -23.65 -39.55 -23.7 L-39.55 -23.75 -39.45 -23.8 -39.35 -23.75 Q-38.6 -23.4 -37.05 -22.3 L-36.1 -21.55 -36.05 -21.55 -36.05 -21.65 -35.95 -21.75 -35.8 -21.75 Q-35.75 -21.75 -35.75 -21.7 L-33.55 -20.05 Q-32.3 -19.1 -31.05 -18.45 L-31.0 -18.35 M-33.45 -19.15 L-33.5 -19.2 -33.6 -19.05 -33.5 -19.0 -33.5 -19.05 -33.55 -19.1 -33.5 -19.1 -33.5 -19.15 -33.45 -19.15 M-32.2 -16.3 L-32.1 -16.2 -32.05 -16.1 -32.1 -16.1 Q-31.85 -15.95 -31.6 -15.85 L-31.5 -15.75 -31.5 -15.65 -31.6 -15.6 -31.7 -15.6 Q-32.45 -15.8 -33.25 -16.25 -34.5 -16.7 -35.75 -17.65 L-36.45 -18.15 -36.5 -18.2 Q-37.3 -18.6 -37.85 -18.85 L-37.95 -18.95 -37.9 -19.05 -38.7 -19.6 -38.8 -19.7 Q-38.8 -19.8 -38.7 -19.85 L-38.6 -19.9 -38.55 -19.9 -38.55 -19.95 Q-37.85 -19.8 -37.35 -19.55 L-37.35 -19.6 -37.25 -19.6 Q-36.85 -19.55 -35.75 -18.95 -34.55 -18.25 -33.95 -17.65 L-33.95 -17.6 Q-33.95 -17.55 -33.95 -17.5 -34.0 -17.45 -34.05 -17.45 L-34.15 -17.45 -34.25 -17.5 -33.95 -17.3 -32.35 -16.35 -32.2 -16.3 M-34.2 -14.3 L-34.2 -14.45 -34.3 -14.5 -34.35 -14.35 -34.2 -14.3 M-28.2 -18.3 L-28.15 -18.4 -27.9 -18.65 -27.8 -18.6 -26.85 -18.05 -26.85 -18.0 Q-26.2 -17.55 -26.1 -17.1 L-26.1 -16.95 -26.15 -16.9 -26.15 -16.85 -26.3 -16.85 Q-26.95 -17.1 -27.5 -17.5 -27.95 -17.85 -28.2 -18.2 L-28.2 -18.3 M-41.35 -18.65 Q-41.15 -18.65 -40.7 -18.4 L-40.65 -18.45 -40.55 -18.4 -38.05 -16.9 -38.05 -16.95 -38.0 -17.0 -38.0 -17.05 -37.65 -17.05 Q-37.15 -17.1 -35.35 -15.8 L-32.75 -14.05 -32.7 -14.0 -32.7 -13.75 Q-32.75 -13.7 -32.8 -13.7 L-32.85 -13.7 -33.35 -13.9 Q-33.25 -13.8 -33.2 -13.7 L-33.1 -13.55 -33.05 -13.45 -33.1 -13.35 -33.2 -13.3 -33.25 -13.25 -33.35 -13.3 Q-34.85 -14.3 -38.1 -16.2 -41.35 -18.1 -41.45 -18.2 L-41.55 -18.3 Q-41.55 -18.45 -41.5 -18.55 L-41.45 -18.6 -41.35 -18.65 M-36.6 -18.8 L-36.55 -18.8 -36.55 -18.85 -36.6 -18.8 M-36.55 -18.65 L-36.55 -18.65 M-36.5 -18.7 L-36.5 -18.7 -36.55 -18.7 -36.5 -18.65 -36.45 -18.7 -36.5 -18.7 M-38.3 -10.8 Q-37.35 -10.5 -36.7 -10.3 -36.35 -10.2 -36.25 -10.05 L-36.25 -9.95 -36.3 -9.9 Q-36.3 -9.85 -36.35 -9.85 L-36.45 -9.85 -36.85 -9.95 -37.0 -9.95 Q-38.25 -10.1 -40.05 -10.75 -41.8 -11.4 -42.05 -11.75 L-42.1 -11.85 -42.1 -11.95 -42.0 -12.05 -41.95 -12.05 -41.9 -12.1 -41.8 -12.1 -41.65 -12.05 Q-41.35 -12.05 -40.2 -11.6 L-38.3 -10.85 -38.3 -10.8 M-44.4 -7.35 L-41.25 -6.8 -41.15 -6.7 -41.1 -6.6 -41.1 -6.5 -41.15 -6.4 -41.25 -6.4 Q-42.15 -6.45 -43.1 -6.65 L-44.55 -6.95 -44.6 -7.0 -44.65 -7.1 Q-44.65 -7.2 -44.55 -7.3 L-44.5 -7.35 -44.4 -7.35 M-42.05 -0.35 Q-41.7 -0.4 -39.0 -0.4 L-38.95 -0.4 -38.55 -0.25 -36.55 -0.25 -36.45 -0.2 Q-36.4 -0.2 -36.4 -0.15 L-36.35 0.0 -36.35 0.1 -36.4 0.15 -36.25 0.2 -36.25 0.25 -36.2 0.35 -36.3 0.45 -37.95 0.6 -39.8 0.7 -40.35 0.65 -41.35 0.75 -41.8 0.75 Q-41.85 0.75 -41.9 0.7 L-41.95 0.6 Q-41.95 0.55 -41.9 0.5 -41.95 0.4 -41.95 0.35 L-41.9 0.25 Q-41.85 0.2 -41.8 0.2 L-41.45 0.2 -41.15 0.15 -41.1 0.1 -41.7 0.1 -41.95 0.05 -42.2 0.05 -42.3 0.0 -42.35 -0.1 Q-42.35 -0.2 -42.25 -0.3 L-42.15 -0.35 -42.05 -0.35 M-21.0 -18.0 L-20.9 -18.05 -20.9 -18.15 -20.8 -18.2 -20.8 -18.4 Q-20.75 -18.5 -20.7 -18.55 L-20.65 -18.55 -20.55 -18.5 -20.5 -18.5 -20.45 -18.45 Q-20.15 -18.1 -19.6 -17.65 L-18.9 -17.05 -18.95 -17.15 -18.9 -17.25 -18.85 -17.3 -18.6 -17.3 Q-18.25 -17.1 -18.1 -16.75 -17.9 -16.4 -17.8 -16.3 L-17.8 -16.25 Q-17.8 -16.2 -17.8 -16.15 L-17.85 -16.05 -17.95 -15.95 -18.05 -16.0 Q-18.35 -16.25 -18.5 -16.45 L-18.55 -16.5 -18.6 -16.45 -18.65 -16.45 Q-18.7 -16.45 -19.6 -16.85 L-20.1 -17.1 Q-19.95 -16.9 -19.95 -16.8 L-19.95 -16.65 Q-20.0 -16.55 -20.1 -16.5 L-20.15 -16.5 Q-20.2 -16.5 -20.25 -16.55 -20.3 -16.6 -20.65 -16.75 -21.05 -16.9 -21.2 -17.2 L-21.2 -17.35 -21.1 -17.4 -20.85 -17.4 -21.05 -17.7 -21.05 -17.8 Q-21.1 -17.9 -21.0 -18.0 M-20.7 -17.3 L-20.7 -17.25 -20.75 -17.2 -20.7 -17.2 -20.6 -17.3 -20.7 -17.35 -20.7 -17.3 M-16.65 -17.35 Q-16.35 -17.25 -15.95 -16.75 L-15.95 -16.6 -16.0 -16.45 -16.05 -16.4 Q-16.1 -16.35 -16.15 -16.35 L-16.2 -16.4 Q-16.4 -16.5 -16.6 -16.75 L-16.65 -16.75 -16.9 -17.05 -16.95 -17.15 Q-16.95 -17.2 -16.85 -17.3 L-16.75 -17.35 -16.65 -17.35 M-27.25 4.4 L-27.3 4.5 Q-27.4 4.55 -27.8 4.65 L-27.7 4.7 Q-27.7 4.75 -27.7 4.8 L-27.7 4.85 -27.75 4.95 -28.9 5.1 Q-30.1 5.25 -30.7 5.45 L-30.75 5.45 Q-31.4 5.4 -31.5 5.25 L-33.7 5.6 -33.75 5.6 -34.0 5.55 -34.05 5.5 -34.1 5.4 -34.1 5.35 -33.95 5.1 -33.9 5.1 -33.9 5.05 -33.8 5.05 -33.75 5.0 Q-33.4 4.65 -33.2 4.9 L-33.15 4.9 -33.15 4.95 -31.95 4.85 -31.75 4.6 -31.65 4.55 -27.85 4.2 -27.85 4.15 -27.8 4.1 -27.7 4.1 -27.55 4.15 -27.5 4.15 Q-27.25 4.2 -27.25 4.3 -27.2 4.35 -27.25 4.4 M-28.7 4.05 L-30.1 4.3 -32.05 4.55 -32.1 4.55 Q-33.05 4.5 -33.05 4.25 L-33.0 4.15 Q-32.95 4.1 -32.9 4.1 L-29.35 3.75 -29.35 3.7 -29.3 3.65 -29.2 3.65 -29.0 3.7 -28.95 3.7 Q-28.6 3.75 -28.6 3.9 L-28.6 4.0 -28.7 4.05 M-28.45 5.85 L-28.4 5.85 -28.15 5.7 Q-26.8 5.15 -25.75 5.05 L-25.65 5.05 -25.6 5.15 -25.6 5.25 -25.65 5.3 Q-25.7 5.45 -25.8 5.5 L-25.85 5.55 -26.8 5.85 -26.8 6.0 -26.85 6.05 Q-27.45 6.4 -27.9 6.6 L-27.95 6.6 -29.15 7.05 -29.6 7.05 -29.7 7.0 -29.75 6.9 -30.1 6.95 -31.05 7.2 -31.55 7.2 Q-31.6 7.2 -31.65 7.15 L-31.7 7.05 Q-31.7 6.9 -31.55 6.8 L-31.5 6.8 Q-30.25 6.5 -29.05 6.05 L-29.0 6.0 Q-28.95 5.95 -28.9 5.95 L-28.45 5.85 M-30.5 2.9 L-30.55 2.95 -30.65 3.0 -32.45 3.15 -29.35 3.15 Q-29.3 3.15 -29.25 3.2 -29.2 3.25 -29.2 3.3 L-29.2 3.55 -29.3 3.65 -32.9 3.75 -33.55 3.8 -35.05 4.0 -40.9 4.0 -41.3 4.05 -41.35 4.05 -41.4 4.0 -41.65 4.0 -42.35 3.95 Q-43.55 3.85 -43.55 3.65 L-43.5 3.55 Q-43.45 3.5 -43.4 3.5 L-41.75 3.35 -40.1 3.35 Q-40.15 3.3 -40.15 3.25 L-40.15 3.2 Q-40.1 3.05 -39.9 2.95 L-39.85 2.95 -31.35 2.55 -31.3 2.55 -31.0 2.6 Q-30.55 2.7 -30.55 2.8 L-30.5 2.9 M-31.05 9.55 L-31.1 9.5 -31.1 9.4 -31.05 9.35 Q-31.0 9.3 -29.35 8.45 -28.0 7.75 -27.8 7.6 L-27.75 7.55 -27.7 7.55 -27.55 7.65 Q-27.45 7.75 -27.4 7.9 L-27.3 7.85 -27.15 7.85 -27.1 7.9 -27.05 7.9 Q-26.6 7.9 -26.15 7.75 L-25.05 7.45 -24.95 7.45 Q-24.9 7.5 -24.9 7.55 -24.85 7.6 -24.9 7.65 L-24.95 7.7 Q-25.95 8.2 -28.1 8.9 -30.0 9.55 -30.55 9.65 L-30.6 9.65 -30.95 9.6 -31.05 9.55" fill="#ffffff" fill-opacity="0.5019608" fill-rule="evenodd" stroke="none"/>
      <path d="M32.2 -28.55 L31.45 -27.65 31.65 -27.8 Q32.45 -28.5 32.65 -28.65 L32.3 -28.2 Q31.9 -27.75 31.0 -27.0 L30.35 -26.4 30.1 -26.05 30.0 -26.05 29.55 -25.45 29.4 -25.45 Q29.5 -25.75 30.0 -26.25 L30.05 -26.4 30.05 -26.35 29.85 -26.35 30.5 -27.05 31.0 -27.6 31.95 -28.45 32.8 -29.4 Q32.65 -29.05 32.2 -28.55 M20.45 -25.05 L20.0 -24.3 Q19.55 -23.45 19.05 -23.05 L19.55 -23.9 19.65 -24.05 18.9 -23.35 Q19.2 -23.8 19.9 -24.75 L20.0 -24.9 19.65 -24.45 Q19.15 -23.8 19.0 -23.65 18.9 -23.75 18.6 -23.8 20.05 -25.4 20.55 -25.55 L20.85 -25.8 Q20.75 -25.5 20.45 -25.05 M19.65 -25.65 L19.0 -24.6 Q18.6 -23.95 18.15 -23.6 L18.0 -23.35 17.85 -23.35 Q18.0 -23.5 18.35 -24.25 18.55 -24.6 18.8 -24.85 19.2 -25.4 19.65 -25.65 M10.35 -3.75 L10.25 -3.5 Q10.15 -3.3 9.85 -3.05 L9.65 -3.1 10.0 -3.55 Q10.2 -3.75 10.35 -3.75 M11.0 -3.6 L10.75 -3.25 Q10.65 -3.15 10.45 -3.05 L10.25 -3.1 Q10.3 -3.4 10.55 -3.75 10.85 -4.1 11.1 -4.1 10.9 -3.75 10.55 -3.45 L11.65 -4.05 12.45 -4.5 Q12.25 -4.2 11.65 -3.6 L10.6 -2.65 10.55 -2.7 11.55 -3.75 11.35 -3.7 11.0 -3.6 M8.85 -4.05 Q8.85 -3.8 8.1 -3.3 7.45 -2.8 7.1 -2.65 7.4 -3.05 8.05 -4.0 8.65 -4.75 9.2 -4.55 L9.0 -4.4 Q8.85 -4.3 8.85 -4.05 M42.35 -21.95 Q41.05 -21.25 40.85 -21.05 L40.5 -21.1 40.7 -21.3 40.35 -21.25 Q40.8 -21.6 41.65 -22.05 L42.85 -22.65 42.85 -22.5 Q43.4 -22.75 43.75 -22.8 43.6 -22.6 42.35 -21.95 M36.15 -24.15 L34.45 -22.85 Q33.6 -22.2 33.0 -22.0 33.6 -22.75 34.45 -23.35 L35.75 -24.35 36.1 -24.3 36.15 -24.15 M34.8 -21.6 Q34.8 -21.7 35.0 -21.9 35.2 -22.1 35.45 -22.25 36.25 -22.65 36.35 -22.55 36.4 -22.45 36.35 -22.3 36.55 -22.3 36.9 -22.45 L37.4 -22.7 37.45 -22.75 Q37.5 -22.75 37.5 -22.5 37.5 -22.3 37.35 -22.25 L37.1 -22.25 Q37.0 -22.2 37.1 -22.1 L37.2 -22.0 Q36.85 -21.85 36.05 -21.5 35.3 -21.2 35.0 -21.05 34.95 -21.0 34.9 -21.0 34.8 -20.95 34.8 -21.2 34.8 -21.4 34.95 -21.5 L35.15 -21.65 34.95 -21.6 Q34.85 -21.55 34.8 -21.6 M43.05 -16.45 L43.1 -16.5 43.2 -16.65 Q44.0 -16.95 44.9 -17.4 45.65 -17.75 46.05 -18.0 46.4 -18.25 46.6 -18.2 L47.0 -18.1 Q47.2 -18.15 47.85 -18.45 48.45 -18.75 48.55 -18.75 46.85 -17.9 46.15 -17.55 44.6 -16.85 43.05 -16.45 M30.55 -27.8 Q31.55 -28.6 31.75 -28.65 31.6 -28.45 31.0 -27.95 L31.6 -28.2 30.45 -27.3 Q29.7 -26.7 29.1 -26.35 29.1 -26.45 28.95 -26.5 L29.05 -26.65 28.2 -25.75 Q28.45 -26.4 28.95 -27.1 29.45 -27.8 29.95 -28.2 L30.0 -28.0 Q29.9 -27.65 29.5 -27.2 29.75 -27.4 30.05 -27.55 L30.4 -27.7 30.55 -27.8 M30.25 -24.4 L30.1 -24.3 29.9 -24.2 29.7 -24.25 30.3 -24.65 Q30.7 -24.85 30.85 -24.9 L30.7 -24.55 Q30.55 -24.2 30.35 -24.05 L30.0 -24.1 Q30.05 -24.2 30.25 -24.4 M31.6 -22.9 Q32.1 -23.4 32.35 -23.4 L31.75 -22.8 31.15 -22.3 31.05 -22.3 31.6 -22.9 M34.0 -23.55 Q33.9 -23.35 33.45 -22.9 33.05 -22.45 32.75 -22.25 L32.55 -22.3 Q32.7 -22.5 33.35 -23.05 33.9 -23.5 34.0 -23.55 M27.15 -26.55 L27.05 -26.45 Q26.65 -25.85 26.25 -25.45 L26.1 -25.45 27.0 -26.65 Q27.55 -27.3 27.7 -27.45 L27.9 -27.6 Q27.8 -27.25 27.35 -26.75 L27.15 -26.55 M24.3 -25.4 Q24.0 -24.95 23.7 -24.85 23.7 -25.15 24.0 -25.5 24.3 -25.8 24.6 -25.95 24.45 -25.65 24.3 -25.4 M25.95 -26.7 L25.95 -26.4 Q25.95 -26.3 25.0 -25.35 24.1 -24.5 23.95 -24.4 L23.85 -24.45 24.9 -25.65 Q25.7 -26.55 25.95 -26.7 M40.3 -4.75 L40.65 -4.85 Q40.7 -4.85 40.8 -4.6 L41.1 -4.65 41.45 -4.7 Q41.8 -4.65 41.85 -4.6 L41.15 -4.4 Q40.5 -4.25 40.25 -4.25 L38.6 -4.3 37.2 -4.4 Q39.15 -4.45 40.3 -4.75 M38.55 -1.75 Q38.1 -1.8 38.1 -1.85 L41.55 -2.1 43.9 -2.15 45.95 -2.3 Q44.75 -1.85 41.8 -1.65 L38.75 -1.55 38.05 -1.6 Q37.65 -1.65 37.65 -1.7 L38.55 -1.75 M46.25 -5.0 L48.65 -5.4 48.65 -5.45 49.5 -5.35 46.95 -4.85 47.3 -4.85 Q47.8 -4.8 47.85 -4.7 L47.8 -4.6 46.6 -4.35 45.85 -4.2 45.9 -4.15 45.8 -4.1 45.5 -4.15 44.4 -4.0 45.1 -4.45 45.25 -4.5 Q43.2 -4.1 42.65 -4.1 L42.05 -4.15 Q41.7 -4.2 41.7 -4.25 L45.95 -4.95 46.1 -5.0 46.25 -5.0 M40.85 -3.2 L40.5 -3.25 Q41.85 -3.65 44.65 -3.9 L48.15 -4.0 Q47.55 -3.8 44.65 -3.55 L40.85 -3.2 M60.65 -15.8 L60.8 -15.8 61.15 -15.75 61.3 -15.75 61.3 -15.7 61.35 -15.7 62.65 -15.9 62.7 -15.85 61.25 -15.45 61.2 -15.35 Q61.1 -15.3 60.3 -15.15 60.55 -15.15 60.6 -15.1 L58.7 -14.75 57.5 -14.45 57.2 -14.45 55.9 -14.25 55.55 -14.15 55.4 -14.15 53.6 -13.85 53.25 -13.9 53.25 -13.95 53.3 -14.0 55.1 -14.3 55.15 -14.4 54.65 -14.3 54.5 -14.3 54.15 -14.35 54.15 -14.4 54.2 -14.45 54.45 -14.5 54.45 -14.55 54.5 -14.6 54.6 -14.65 53.0 -14.45 52.65 -14.5 52.65 -14.55 Q52.65 -14.6 52.7 -14.6 L55.8 -15.15 57.25 -15.35 Q58.5 -15.7 58.75 -15.75 L58.5 -15.5 59.7 -15.65 60.35 -15.8 60.6 -15.75 60.65 -15.75 60.65 -15.8 M57.5 -14.7 L57.35 -14.7 57.1 -14.6 57.25 -14.6 57.5 -14.7 M52.45 -20.1 Q52.05 -19.65 49.45 -18.4 47.55 -17.45 46.2 -16.9 46.65 -17.65 49.15 -18.75 50.5 -19.35 52.45 -20.1 M57.75 -13.05 L56.3 -12.8 55.95 -12.85 55.95 -12.9 56.1 -13.05 56.7 -13.15 56.4 -13.15 Q57.0 -13.4 58.35 -13.6 L58.55 -13.75 Q59.15 -13.95 60.9 -14.1 L60.95 -14.15 Q61.45 -14.1 61.5 -14.05 L60.1 -13.75 60.75 -13.75 59.9 -13.55 59.75 -13.5 61.0 -13.65 Q60.25 -13.45 58.55 -13.15 L58.4 -13.15 Q58.1 -13.05 57.95 -12.95 L57.85 -12.85 Q57.75 -12.8 57.75 -13.05 M54.3 -10.75 L54.3 -10.8 54.45 -10.95 58.2 -11.65 60.15 -11.9 Q59.5 -11.6 57.5 -11.25 L54.5 -10.7 54.3 -10.75 M52.8 -8.5 L52.8 -8.55 52.95 -8.7 57.0 -9.35 59.55 -9.55 Q58.0 -9.2 53.0 -8.4 L52.8 -8.5 M57.1 -9.05 L57.95 -9.2 Q58.3 -9.15 58.35 -9.1 L58.0 -9.0 61.25 -9.35 64.75 -9.6 66.7 -9.85 65.65 -9.6 65.8 -9.55 64.45 -9.35 65.4 -9.4 Q63.5 -8.85 60.5 -8.5 L57.2 -8.15 57.1 -8.1 Q57.0 -8.05 57.0 -8.3 57.0 -8.5 57.65 -8.65 L56.55 -8.55 56.4 -8.5 56.4 -8.6 Q56.2 -8.65 56.2 -8.7 56.35 -8.9 57.1 -9.05 M40.7 1.05 L40.7 1.1 41.05 1.15 41.05 1.3 Q41.0 1.35 40.8 1.35 L40.7 1.4 40.0 1.4 Q40.15 1.45 40.2 1.5 40.2 1.6 39.8 1.6 L39.65 1.6 Q39.65 1.65 39.45 1.65 L37.35 1.35 Q35.6 1.05 35.3 0.95 35.25 0.9 35.25 0.85 L36.6 1.1 38.55 1.45 38.35 1.4 36.9 1.1 37.2 1.1 36.95 1.05 Q36.9 1.0 36.65 0.95 L36.65 0.9 36.15 0.9 36.25 0.75 36.35 0.65 36.75 0.7 37.5 0.7 38.25 0.8 39.3 0.9 39.85 1.0 40.25 1.05 40.55 1.0 Q40.6 1.0 40.7 1.05 M40.1 0.6 Q40.05 0.6 40.05 0.55 L39.6 0.6 Q39.55 0.65 39.65 0.75 L39.7 0.9 39.15 0.85 Q38.7 0.75 38.7 0.7 L38.0 0.65 37.35 0.55 37.05 0.45 36.9 0.3 36.95 0.25 36.95 0.2 38.9 0.35 Q40.15 0.45 40.2 0.5 40.15 0.6 40.1 0.6 M39.35 1.2 L39.1 1.2 39.65 1.25 39.45 1.2 39.35 1.2 M38.4 0.95 L38.6 0.95 38.85 1.0 38.4 0.95 M34.95 2.0 L33.65 1.9 33.5 1.85 Q33.3 1.75 33.3 1.7 L36.75 1.95 36.65 2.0 35.6 2.05 34.95 2.0 M-46.45 -12.05 L-45.7 -11.95 Q-45.45 -11.85 -45.25 -11.75 L-44.45 -11.45 Q-43.85 -11.25 -43.85 -11.05 L-42.55 -10.65 Q-41.15 -10.25 -40.95 -10.1 -42.65 -10.55 -43.45 -10.75 -45.25 -11.3 -46.5 -11.95 L-46.45 -12.05 M-48.9 -12.45 L-48.85 -12.5 Q-48.3 -12.5 -47.05 -12.05 L-45.55 -11.45 Q-45.35 -11.2 -44.6 -10.85 L-43.8 -10.55 Q-44.35 -10.6 -46.05 -11.25 L-48.95 -12.4 -48.9 -12.45 M-50.55 -11.2 L-50.5 -11.2 -50.55 -11.25 -50.6 -11.25 -50.8 -11.3 -50.6 -11.2 -50.55 -11.2 M-50.3 -9.75 L-50.3 -9.8 Q-49.55 -9.7 -48.5 -9.45 -47.45 -9.2 -47.45 -9.05 -47.45 -9.0 -46.65 -8.8 L-45.55 -8.65 Q-45.25 -8.55 -45.05 -8.45 -46.45 -8.6 -47.55 -8.9 L-50.35 -9.7 -50.3 -9.75 M-49.3 -10.55 Q-51.25 -11.0 -53.3 -11.9 L-53.9 -12.1 -53.9 -12.3 -53.75 -12.25 -53.7 -12.35 -53.5 -12.3 -53.35 -12.3 -52.8 -12.1 -52.15 -11.9 -51.85 -11.85 Q-52.15 -12.0 -52.35 -12.1 -52.5 -12.25 -52.5 -12.3 L-50.2 -11.4 -48.9 -11.05 -45.6 -10.05 Q-45.35 -9.95 -45.2 -9.85 L-46.35 -10.15 -46.25 -10.05 -45.55 -9.75 -45.55 -9.7 -46.1 -9.85 -46.05 -9.8 -44.85 -9.4 Q-44.55 -9.3 -44.5 -9.25 L-44.55 -9.2 -45.85 -9.6 -45.8 -9.6 -45.3 -9.35 Q-44.5 -9.15 -43.95 -8.95 L-44.05 -8.95 -44.3 -8.9 -43.95 -8.8 -44.0 -8.8 Q-44.95 -8.95 -45.65 -9.3 L-49.25 -10.55 -49.3 -10.55 M-34.05 -21.75 L-33.65 -21.4 Q-33.15 -21.05 -32.3 -20.4 L-30.5 -19.0 -31.05 -19.25 -30.5 -18.8 -30.45 -18.8 Q-28.3 -17.25 -27.5 -16.55 -27.75 -16.65 -28.1 -16.85 L-28.1 -16.8 -28.95 -17.45 -27.95 -16.55 Q-28.2 -16.65 -28.6 -16.9 L-28.2 -16.55 -28.2 -16.45 -28.25 -16.4 -27.55 -15.8 -27.55 -15.7 Q-28.5 -16.4 -31.2 -18.75 L-32.85 -20.25 Q-33.5 -20.6 -34.0 -20.95 L-34.05 -21.05 -33.75 -21.05 -33.95 -21.15 -33.8 -21.2 Q-33.95 -21.3 -33.95 -21.45 L-33.9 -21.45 -34.05 -21.75 M-31.7 -18.55 L-32.15 -18.65 -32.2 -18.65 -31.65 -18.3 Q-30.5 -17.55 -30.05 -17.3 -30.6 -17.45 -31.65 -18.15 -32.9 -18.9 -33.45 -19.15 -33.8 -19.3 -34.3 -19.65 L-34.1 -19.45 -34.05 -19.45 Q-33.55 -19.0 -33.0 -18.7 L-33.7 -19.1 -33.25 -18.7 -33.0 -18.5 -32.9 -18.45 -32.9 -18.4 -32.8 -18.3 -32.95 -18.35 -33.1 -18.3 Q-33.6 -18.3 -34.55 -19.25 L-36.35 -20.4 Q-36.15 -20.7 -35.9 -20.5 L-36.2 -20.8 -36.35 -20.9 Q-38.4 -22.45 -39.5 -23.55 L-39.45 -23.6 -39.45 -23.65 Q-38.65 -23.25 -37.15 -22.15 L-36.15 -21.45 -35.7 -21.15 -35.2 -20.85 -35.3 -20.9 Q-35.75 -21.25 -35.95 -21.6 L-35.8 -21.6 -33.65 -19.95 Q-32.35 -19.0 -31.1 -18.35 L-31.7 -18.55 M-32.25 -16.15 L-32.25 -16.15 -32.3 -16.1 -32.4 -16.1 -32.45 -16.15 -32.55 -16.15 Q-32.1 -15.9 -31.65 -15.7 -32.45 -15.95 -33.2 -16.4 -34.4 -16.85 -35.65 -17.75 L-36.35 -18.25 -36.45 -18.3 Q-37.25 -18.75 -37.8 -18.95 L-37.75 -19.05 -37.7 -19.05 -37.55 -19.0 -38.65 -19.7 -38.55 -19.8 Q-37.9 -19.65 -37.4 -19.4 L-37.3 -19.35 -37.1 -19.3 -37.25 -19.45 Q-36.9 -19.4 -35.8 -18.8 -34.65 -18.15 -34.05 -17.55 -34.6 -17.8 -34.8 -17.85 L-34.9 -17.85 -34.35 -17.4 -34.05 -17.15 -32.4 -16.25 -32.25 -16.2 -32.25 -16.15 M-27.85 -18.5 L-26.9 -17.9 Q-26.35 -17.45 -26.25 -17.05 L-26.25 -16.95 Q-26.9 -17.2 -27.4 -17.6 -27.8 -17.95 -28.05 -18.3 L-27.9 -18.4 -27.85 -18.5 M-41.35 -18.5 Q-41.1 -18.5 -40.45 -18.1 L-39.45 -17.45 -39.4 -17.45 -39.95 -17.8 Q-40.45 -18.1 -40.65 -18.3 L-36.0 -15.4 -36.8 -16.0 -36.75 -16.0 -36.7 -16.05 -37.95 -16.9 -37.9 -16.9 -37.65 -16.95 Q-37.2 -16.95 -35.4 -15.7 L-32.8 -13.95 -32.8 -13.8 Q-33.4 -14.05 -34.1 -14.4 L-35.05 -14.85 -35.4 -15.05 -33.45 -13.8 -33.3 -13.6 -33.2 -13.45 -33.3 -13.4 Q-34.75 -14.4 -38.0 -16.35 -41.25 -18.25 -41.4 -18.3 L-41.35 -18.5 M-34.95 -20.55 L-34.9 -20.55 -34.7 -20.4 -34.85 -20.55 -34.95 -20.55 M-36.65 -18.8 L-36.5 -18.7 -36.45 -18.7 -36.6 -18.8 -36.65 -18.8 M-38.35 -10.7 Q-37.35 -10.35 -36.75 -10.2 -36.45 -10.05 -36.4 -9.95 L-37.65 -10.4 -37.55 -10.35 -37.55 -10.3 -36.95 -10.1 -37.0 -10.05 Q-38.2 -10.2 -40.0 -10.9 -41.7 -11.55 -41.95 -11.85 L-41.85 -11.95 -41.7 -11.9 -41.65 -11.9 Q-41.4 -11.95 -40.25 -11.45 -39.65 -11.25 -38.35 -10.7 M-41.45 -11.55 L-40.45 -11.25 -41.1 -11.5 -41.2 -11.55 -41.25 -11.55 -41.55 -11.7 -41.45 -11.55 M-44.45 -7.2 L-41.3 -6.65 -41.25 -6.55 Q-42.15 -6.6 -43.1 -6.75 L-44.5 -7.1 -44.45 -7.15 -44.45 -7.2 M-41.7 0.0 L-41.95 -0.1 -42.2 -0.1 -42.15 -0.15 -42.15 -0.2 -42.05 -0.2 Q-41.7 -0.25 -39.0 -0.25 -38.65 -0.2 -38.6 -0.1 L-36.55 -0.1 -36.5 0.05 -36.85 0.05 -36.8 0.2 -37.85 0.2 -36.35 0.3 -37.95 0.45 -39.8 0.55 -40.35 0.5 -41.35 0.6 -41.45 0.65 -41.45 0.6 -41.8 0.6 Q-41.8 0.55 -41.65 0.5 L-41.55 0.45 Q-41.8 0.4 -41.8 0.35 L-41.45 0.35 -41.45 0.3 -41.1 0.3 -40.95 0.2 -39.3 0.15 -39.45 0.15 -40.25 0.1 Q-40.3 0.0 -40.5 0.0 L-41.7 0.0 M-20.85 -17.9 L-20.8 -18.05 -20.6 -17.9 -20.3 -17.7 -20.25 -17.7 Q-20.65 -18.1 -20.65 -18.25 L-20.65 -18.4 -20.55 -18.3 -20.55 -18.35 Q-20.25 -18.0 -19.7 -17.55 -19.15 -17.1 -18.65 -16.55 L-19.5 -17.0 Q-20.35 -17.4 -20.4 -17.4 -20.35 -17.3 -20.25 -17.05 L-20.05 -16.75 -20.1 -16.7 Q-20.1 -16.65 -20.15 -16.65 -20.25 -16.7 -20.6 -16.85 -20.95 -17.05 -21.05 -17.3 -21.0 -17.3 -20.8 -17.2 L-20.45 -17.0 -20.95 -17.8 -20.85 -17.9 M-17.95 -16.1 Q-18.25 -16.35 -18.4 -16.5 L-18.8 -17.15 -18.7 -17.2 Q-18.4 -17.0 -18.2 -16.7 L-17.95 -16.2 -17.95 -16.1 M-16.05 -16.65 L-16.15 -16.5 Q-16.3 -16.6 -16.55 -16.85 L-16.8 -17.15 -16.75 -17.2 -16.7 -17.2 Q-16.45 -17.1 -16.05 -16.65 M-28.95 4.95 Q-30.15 5.1 -30.75 5.3 -31.4 5.25 -31.4 5.15 -28.25 4.7 -27.8 4.8 L-28.95 4.95 M-27.75 4.25 L-27.55 4.25 Q-27.4 4.3 -27.35 4.35 -27.6 4.5 -28.85 4.7 L-30.0 4.85 -30.65 4.95 -33.75 5.45 -33.95 5.4 -33.8 5.2 -33.35 5.15 -33.65 5.1 Q-33.4 4.9 -33.3 5.0 L-33.2 5.1 -31.9 4.95 -31.65 4.7 -27.75 4.3 -27.75 4.25 M-28.4 6.0 L-28.1 5.85 Q-26.75 5.3 -25.75 5.2 L-25.75 5.25 -25.9 5.4 -27.35 5.9 -27.95 6.15 Q-28.85 6.6 -30.15 6.8 L-31.1 7.05 -31.55 7.05 Q-31.55 7.0 -31.5 6.95 -30.2 6.65 -28.95 6.2 L-28.85 6.1 -28.4 6.0 M-26.95 5.95 Q-27.5 6.3 -28.0 6.5 L-29.2 6.9 -29.6 6.9 Q-29.55 6.8 -28.45 6.35 -27.25 5.9 -26.95 5.95 M-29.3 3.5 L-32.9 3.6 -33.6 3.65 -35.1 3.85 -40.95 3.85 -41.3 3.9 -42.35 3.8 Q-43.4 3.7 -43.4 3.65 -41.85 3.6 -41.7 3.5 L-39.5 3.5 -39.45 3.45 -38.6 3.45 -39.3 3.4 Q-39.95 3.3 -40.0 3.25 -39.95 3.15 -39.85 3.1 L-31.35 2.7 -31.0 2.75 Q-30.7 2.8 -30.65 2.85 L-35.3 3.3 -29.35 3.3 -29.3 3.5 M-32.9 4.25 L-29.25 3.85 -29.25 3.8 -29.0 3.8 Q-28.75 3.85 -28.7 3.9 L-30.1 4.15 -32.1 4.4 Q-32.9 4.35 -32.9 4.25 M-29.3 8.6 Q-27.9 7.85 -27.75 7.7 L-27.65 7.75 Q-27.55 7.8 -27.55 7.95 L-27.6 7.95 Q-27.7 8.0 -27.8 8.05 L-27.25 8.0 Q-27.0 8.0 -27.35 8.05 -26.7 8.05 -26.15 7.9 L-25.0 7.6 Q-26.0 8.05 -28.15 8.75 -30.05 9.4 -30.6 9.5 L-30.95 9.45 -29.3 8.6" fill="#cdffb4" fill-opacity="0.7019608" fill-rule="evenodd" stroke="none"/>
    </g>
    <g id="shape2" transform="matrix(1.0, 0.0, 0.0, 1.0, 58.65, 14.1)">
      <path d="M0.45 -1.75 L0.5 -1.75 Q1.0 -1.65 1.05 -1.5 L1.1 -1.35 1.15 -1.35 1.5 -1.3 2.55 -1.3 2.75 -1.35 3.65 -1.35 4.5 -1.3 6.15 -1.3 6.6 -1.55 7.2 -1.75 7.3 -1.75 17.15 -1.8 22.6 -2.2 26.0 -2.4 Q27.95 -2.65 28.7 -2.8 L31.7 -2.8 Q32.0 -3.05 34.15 -3.2 L34.2 -3.25 34.45 -3.3 35.05 -3.25 Q35.9 -3.15 35.9 -2.85 36.0 -2.75 35.95 -2.6 35.95 -2.45 35.85 -2.35 35.75 -2.3 35.6 -2.25 L34.4 -2.1 32.35 -1.9 32.1 -1.9 30.9 -1.8 30.3 -1.7 29.25 -1.5 28.95 -1.5 29.15 -1.45 28.4 -1.4 Q28.45 -1.35 28.55 -1.3 L29.45 -1.25 29.7 -1.0 29.8 -0.85 29.7 -0.7 29.45 -0.45 29.15 -0.45 Q28.7 -0.35 27.8 -0.2 L28.85 -0.25 38.15 -0.7 38.95 -0.7 Q39.9 -0.6 39.9 -0.4 40.0 -0.25 40.0 -0.1 40.0 0.05 39.9 0.15 39.8 0.25 39.65 0.3 37.45 0.55 30.9 0.95 L23.15 1.35 20.0 1.25 19.9 1.25 Q19.1 1.1 19.2 0.65 L19.2 0.6 10.55 0.55 9.9 0.55 9.3 0.6 4.55 0.6 1.9 0.5 Q-0.2 0.5 -0.45 0.45 L-0.5 0.5 Q-0.55 0.5 -0.55 0.3 -0.55 0.05 -0.05 -0.1 L-0.05 -0.25 -0.3 -0.3 -0.8 -0.3 -0.85 -0.35 Q-0.95 -0.35 -0.95 -0.55 L-2.0 -0.55 -4.15 -0.45 -4.25 -0.45 Q-4.85 -0.55 -4.95 -0.75 -5.15 -0.9 -5.15 -1.05 -5.2 -1.2 -5.15 -1.35 -5.1 -1.45 -5.0 -1.55 -4.9 -1.6 -4.6 -1.65 L-4.55 -1.65 -4.35 -1.7 -3.75 -1.7 Q-3.6 -1.9 -3.75 -1.8 L-3.75 -1.8 -3.6 -1.9 -3.2 -1.9 Q-2.85 -1.8 -2.75 -1.7 L-2.1 -1.7 0.05 -1.8 0.2 -1.8 0.45 -1.75 M34.55 -12.65 L34.7 -12.7 36.35 -12.7 34.8 -12.75 Q33.0 -12.85 33.0 -12.65 L33.0 -12.55 32.25 -12.6 31.8 -12.55 30.85 -12.6 30.45 -12.65 Q30.5 -12.55 30.45 -12.55 L30.35 -12.65 29.8 -12.6 29.8 -12.65 Q29.75 -12.75 29.75 -12.95 29.75 -13.25 30.65 -13.35 L32.05 -13.55 Q32.75 -13.85 34.7 -14.0 L34.8 -14.05 35.0 -14.05 34.95 -14.0 Q36.65 -14.1 39.2 -14.1 L44.85 -13.85 Q47.6 -13.65 48.6 -13.35 L48.7 -13.15 48.7 -13.05 50.45 -12.8 Q51.3 -12.6 52.8 -12.05 53.8 -11.7 54.4 -11.5 L54.45 -11.6 Q54.5 -11.7 54.65 -11.75 56.3 -12.4 58.95 -10.7 59.9 -10.1 60.6 -9.4 61.45 -8.55 61.4 -8.1 61.4 -6.55 59.7 -4.9 57.9 -3.2 55.1 -2.5 L54.95 -2.5 Q54.85 -2.5 54.75 -2.55 L54.65 -2.65 Q54.5 -2.75 54.5 -2.9 54.45 -3.05 54.5 -3.2 54.55 -3.3 54.7 -3.4 56.8 -4.35 58.45 -5.7 60.0 -7.0 60.05 -7.7 60.0 -8.4 58.6 -9.35 56.8 -10.55 54.75 -10.8 L54.55 -10.9 54.25 -10.95 Q54.7 -10.65 54.85 -10.25 L54.95 -10.0 55.05 -9.95 55.05 -9.7 55.1 -9.65 55.35 -9.65 Q55.5 -9.55 55.55 -9.4 L55.65 -9.0 Q55.7 -8.9 55.65 -8.75 L55.55 -8.45 Q55.55 -8.3 55.4 -8.2 55.25 -8.1 55.1 -8.1 54.95 -8.15 54.85 -8.2 54.55 -7.8 53.45 -7.05 L53.05 -6.75 53.1 -6.7 53.55 -6.8 53.65 -6.7 Q53.7 -6.6 53.7 -6.4 53.7 -6.05 52.95 -5.75 L51.65 -5.15 Q51.2 -4.8 50.8 -4.6 50.7 -4.2 49.8 -3.9 49.15 -3.7 47.15 -3.3 46.8 -3.25 46.35 -3.05 L45.4 -2.7 Q44.45 -2.4 43.25 -2.3 43.15 -2.25 43.0 -2.2 L42.1 -2.15 42.05 -2.1 Q42.0 -1.95 41.85 -1.85 41.5 -1.65 39.0 -1.5 L36.2 -1.3 36.15 -1.35 35.75 -1.4 Q35.6 -1.45 35.5 -1.55 35.45 -1.65 35.4 -1.75 35.4 -1.9 35.45 -2.05 35.55 -2.15 35.65 -2.2 36.0 -2.35 36.4 -2.45 L36.4 -2.5 Q36.4 -2.65 36.7 -2.7 L36.7 -2.7 Q36.7 -2.8 36.7 -3.0 36.7 -3.4 42.55 -4.25 L42.35 -4.45 Q42.3 -4.6 42.3 -4.7 42.3 -4.85 42.35 -4.95 42.4 -5.05 42.55 -5.1 43.4 -5.5 46.9 -6.95 49.6 -8.2 49.7 -8.85 49.6 -9.2 48.1 -9.85 46.55 -10.55 45.65 -10.7 L42.3 -11.1 Q39.85 -11.3 37.3 -11.15 L37.2 -11.15 36.7 -11.35 33.3 -11.3 Q33.15 -11.3 33.0 -11.4 32.9 -11.5 32.85 -11.65 L32.85 -11.8 Q32.8 -12.0 32.9 -12.15 33.0 -12.3 33.15 -12.3 L33.35 -12.35 33.4 -12.35 34.3 -12.45 Q34.4 -12.6 34.55 -12.65 M31.85 -12.15 Q31.9 -12.05 31.9 -11.9 31.9 -11.8 31.8 -11.7 31.75 -11.6 31.6 -11.55 L29.9 -11.4 26.35 -11.2 26.3 -11.2 25.75 -11.25 Q25.65 -11.25 25.55 -11.35 25.45 -11.4 25.4 -11.5 25.35 -11.65 25.4 -11.75 L25.4 -11.8 25.45 -11.95 Q25.55 -12.1 25.7 -12.2 L25.8 -12.2 27.85 -12.4 29.3 -12.5 Q29.35 -12.55 29.45 -12.55 L30.45 -12.55 31.6 -12.45 31.65 -12.4 Q31.75 -12.35 31.85 -12.25 L31.85 -12.15 M41.35 -12.85 L39.4 -12.85 39.4 -12.75 41.9 -12.75 41.35 -12.85 M36.95 -12.7 L36.95 -12.7 M45.7 -1.8 L45.75 -1.95 Q45.9 -2.05 46.05 -2.05 L46.55 -2.15 47.1 -2.2 49.1 -2.75 49.15 -2.75 Q50.95 -3.3 53.5 -4.4 54.3 -4.75 55.35 -5.7 L55.2 -5.8 55.15 -5.85 Q55.0 -6.0 55.0 -6.2 55.0 -6.35 55.15 -6.5 55.3 -6.65 55.8 -7.35 56.25 -8.05 56.3 -8.2 56.3 -8.55 56.05 -8.75 55.5 -9.3 55.35 -9.9 55.3 -10.05 55.35 -10.2 55.4 -10.35 55.55 -10.4 L55.85 -10.45 Q56.0 -10.4 56.1 -10.3 56.3 -10.0 56.95 -9.4 57.4 -8.95 57.4 -8.1 57.4 -8.0 57.35 -7.85 57.7 -8.2 57.95 -8.35 58.05 -8.45 58.25 -8.45 58.4 -8.4 58.5 -8.3 58.6 -8.2 58.6 -8.0 58.65 -6.85 57.05 -5.35 56.4 -4.75 54.3 -3.2 53.25 -2.4 51.75 -2.0 L49.65 -1.6 Q48.6 -1.15 47.6 -0.9 45.7 -0.3 43.85 -0.45 43.7 -0.45 43.55 -0.55 43.45 -0.65 43.45 -0.8 43.4 -0.95 43.5 -1.1 43.6 -1.25 43.75 -1.25 L45.7 -1.8 M52.35 -10.4 L50.7 -10.65 49.3 -10.9 Q51.2 -9.95 51.15 -8.8 51.2 -7.8 49.35 -6.65 L50.9 -7.05 51.1 -7.15 52.05 -7.75 Q52.35 -7.95 52.6 -8.2 53.2 -8.8 53.2 -9.3 53.2 -9.55 52.45 -10.3 L52.35 -10.4 M45.4 0.6 Q45.55 0.65 45.65 0.75 45.7 0.85 45.7 1.0 45.7 1.15 45.65 1.25 45.55 1.35 45.45 1.4 43.65 2.05 40.05 2.5 35.5 3.05 29.85 3.05 L28.95 3.05 Q28.85 3.05 28.75 2.95 L28.65 2.95 Q28.2 2.75 28.2 2.55 28.15 2.4 28.2 2.3 28.2 2.2 28.3 2.1 28.4 2.0 28.5 2.0 L33.95 1.45 39.2 1.05 42.9 0.75 45.4 0.6 M24.1 1.6 Q24.2 1.7 24.2 1.9 24.2 2.05 24.1 2.15 24.0 2.3 23.85 2.3 L20.4 2.65 Q18.95 2.75 12.8 2.75 L8.65 2.55 Q8.5 2.55 8.4 2.45 8.3 2.3 8.3 2.2 8.3 2.05 8.35 1.9 L8.45 1.8 8.55 1.65 Q8.65 1.6 8.75 1.6 9.1 1.6 12.2 1.6 16.2 1.6 19.3 1.55 L21.6 1.5 Q23.4 1.45 23.8 1.45 23.95 1.45 24.1 1.6 M3.7 1.2 Q3.85 1.2 3.95 1.35 4.1 1.45 4.05 1.6 4.05 1.8 3.95 1.9 3.85 2.05 3.65 2.05 L-1.7 2.25 -11.7 2.3 -12.5 2.4 -12.55 2.4 -19.3 2.3 -20.6 2.25 -20.65 2.25 Q-21.5 2.1 -21.35 1.65 -21.35 1.45 -21.25 1.35 -21.15 1.25 -20.95 1.2 L-19.3 1.1 -15.3 1.05 Q-13.55 1.05 -12.55 1.0 L-11.65 0.95 Q-11.55 0.9 -11.45 0.9 L-1.7 0.9 1.55 1.0 3.7 1.2 M-58.65 -6.8 L-58.65 -6.8 M-58.55 -6.5 L-58.55 -6.85 Q-58.55 -7.85 -57.6 -7.25 L-57.65 -7.35 Q-57.7 -7.5 -57.7 -8.2 -57.7 -9.05 -57.65 -9.15 L-57.6 -9.15 Q-57.55 -9.35 -56.85 -9.9 -56.75 -10.0 -56.6 -10.0 -56.45 -10.0 -56.35 -9.95 -56.25 -9.85 -56.2 -9.75 L-56.1 -9.5 -56.1 -9.75 Q-56.2 -10.9 -52.2 -11.55 L-51.95 -11.6 Q-51.75 -11.8 -51.15 -12.0 -50.5 -12.3 -49.45 -12.4 L-46.45 -12.8 -42.7 -12.8 Q-38.4 -12.7 -37.5 -12.4 -37.15 -12.3 -36.95 -12.05 L-36.85 -11.9 -36.75 -11.9 -36.65 -12.0 -36.45 -12.05 Q-33.2 -11.95 -31.75 -12.1 -31.35 -12.15 -28.6 -11.65 -28.45 -11.65 -28.35 -11.55 -28.25 -11.45 -28.25 -11.3 -28.2 -11.15 -28.3 -11.05 -28.35 -10.9 -28.5 -10.85 -28.7 -10.75 -29.15 -10.75 L-31.35 -10.8 -31.4 -10.8 -33.1 -10.9 -36.45 -10.95 Q-36.55 -10.95 -36.65 -11.0 L-36.7 -11.05 Q-37.4 -11.05 -38.8 -11.05 L-39.65 -10.95 -39.65 -10.9 -39.75 -10.9 -39.7 -10.8 Q-39.7 -10.45 -40.65 -10.25 L-42.95 -9.95 Q-45.5 -9.7 -47.25 -9.4 -49.5 -8.45 -49.5 -7.75 -49.5 -7.55 -49.35 -7.45 -49.2 -7.3 -49.2 -7.2 -48.75 -6.9 -48.45 -6.75 L-48.25 -6.65 Q-47.95 -6.55 -47.5 -6.45 L-47.45 -6.5 -47.35 -6.55 -47.1 -6.5 -47.15 -6.45 Q-46.85 -6.4 -46.45 -6.45 -46.1 -6.45 -44.7 -6.1 -43.25 -5.8 -42.45 -5.55 L-41.0 -5.25 Q-39.8 -5.05 -39.45 -4.9 -39.15 -4.75 -38.95 -4.45 -38.8 -4.2 -38.7 -4.15 L-36.45 -4.1 -35.95 -4.05 -35.25 -3.95 -35.1 -3.95 Q-34.75 -3.85 -34.65 -3.7 -34.6 -3.6 -34.6 -3.35 -34.6 -2.9 -35.15 -2.75 L-37.3 -2.75 -37.55 -2.8 -38.55 -2.8 Q-41.05 -2.95 -41.9 -3.1 L-42.15 -3.15 Q-42.45 -3.05 -43.05 -3.05 L-43.9 -3.05 -42.5 -2.9 -37.85 -2.65 -35.1 -2.4 -35.0 -2.45 -35.0 -2.5 Q-35.0 -2.7 -34.95 -2.75 -34.8 -2.9 -34.2 -2.95 -34.15 -2.95 -34.2 -3.05 -34.25 -3.15 -34.15 -3.2 L-32.15 -3.3 Q-31.3 -3.3 -28.8 -3.4 L-25.0 -3.5 Q-16.4 -3.2 -12.6 -2.7 -9.05 -2.25 -9.05 -1.55 -9.05 -1.4 -9.15 -1.3 -9.25 -1.15 -9.4 -1.1 L-6.85 -1.1 -6.7 -0.95 -6.3 -0.95 Q-6.1 -0.85 -5.9 -0.55 L-6.6 0.1 -6.6 0.0 Q-6.6 -0.2 -6.9 -0.25 L-7.35 -0.2 Q-7.8 -0.15 -8.55 0.1 L-12.55 0.1 Q-13.55 -0.15 -16.6 -0.25 -19.05 -0.35 -20.15 -0.3 -22.75 -0.1 -23.6 -0.25 L-23.7 -0.3 -23.8 -0.3 -24.25 -0.35 -25.45 -0.45 -25.65 -0.45 -25.7 -0.5 -26.3 -0.55 Q-26.55 -0.6 -26.6 -0.8 L-26.55 -0.85 -29.0 -0.85 -32.2 -1.0 -33.5 -1.15 -34.6 -1.0 -35.85 -0.95 Q-41.8 -0.95 -46.35 -1.8 -46.4 -1.45 -47.0 -1.2 L-47.7 -1.2 -48.25 -1.3 Q-49.55 -1.3 -51.0 -1.65 L-51.15 -1.65 Q-54.15 -2.05 -54.7 -2.4 L-55.85 -3.0 Q-56.5 -3.3 -57.05 -3.7 -57.5 -4.05 -58.0 -5.2 -58.55 -5.9 -58.55 -6.5 M-49.25 -11.45 Q-50.55 -11.4 -50.95 -11.2 L-49.25 -11.45 M-50.5 -9.4 Q-50.45 -9.3 -50.45 -9.15 L-50.5 -8.4 Q-50.45 -8.4 -50.4 -8.35 L-50.3 -8.25 Q-50.1 -8.6 -49.8 -8.9 L-50.05 -8.95 -50.05 -8.9 Q-50.1 -8.9 -50.1 -9.1 -50.1 -9.4 -49.05 -9.7 L-48.15 -10.0 -47.65 -10.25 Q-49.2 -10.1 -50.35 -9.6 L-50.5 -9.4 M-55.9 -9.15 Q-56.0 -9.15 -56.05 -9.25 L-55.95 -9.05 Q-55.85 -8.95 -55.8 -8.8 L-55.8 -8.1 Q-55.8 -7.75 -55.55 -7.3 L-55.4 -7.15 -55.4 -7.1 Q-55.25 -7.05 -55.15 -6.9 -54.8 -6.45 -53.8 -6.15 L-53.75 -6.15 Q-53.6 -6.15 -53.5 -6.05 -53.4 -6.0 -53.35 -5.85 L-53.2 -5.8 Q-53.1 -5.75 -53.05 -5.65 -53.0 -5.55 -53.0 -5.4 -53.0 -5.3 -53.05 -5.2 -53.15 -5.0 -53.6 -4.85 -53.75 -4.7 -54.2 -4.7 -54.35 -4.65 -54.6 -4.75 L-54.9 -4.8 -54.45 -4.3 -54.45 -4.25 -53.45 -3.9 Q-52.65 -3.6 -52.1 -3.45 -52.35 -3.6 -52.55 -3.75 L-52.65 -3.8 -52.7 -3.85 -52.7 -3.9 -52.8 -3.95 Q-52.9 -4.0 -52.95 -4.15 -53.0 -4.25 -52.95 -4.35 L-52.9 -4.8 -52.8 -5.0 Q-52.75 -5.1 -52.6 -5.1 L-52.4 -5.15 Q-52.05 -5.05 -50.2 -4.5 -51.5 -5.05 -52.35 -5.7 -53.2 -6.3 -53.2 -6.75 L-53.15 -6.85 Q-53.3 -7.0 -53.4 -7.2 -53.8 -7.8 -53.8 -8.35 -53.8 -8.95 -53.75 -9.0 -53.65 -9.15 -53.45 -9.25 L-53.45 -9.3 -53.4 -9.35 -53.45 -9.25 -53.35 -9.3 -53.3 -9.6 -53.25 -9.65 -53.7 -9.5 Q-54.0 -9.45 -54.2 -9.45 L-54.45 -9.45 Q-54.85 -9.25 -55.2 -9.05 -55.3 -9.0 -55.4 -8.95 L-55.6 -9.0 -55.7 -9.05 Q-55.8 -9.05 -55.9 -9.15 M-53.0 -3.85 L-53.0 -3.85 M-40.85 -0.35 Q-39.25 -0.45 -36.1 -0.3 L-28.85 -0.3 -25.4 -0.1 Q-22.7 0.0 -22.0 -0.05 L-21.95 -0.05 Q-21.35 -0.05 -21.25 0.2 L-21.25 0.25 Q-21.2 0.4 -21.2 0.55 -21.25 0.65 -21.35 0.75 -21.45 0.85 -21.55 0.9 L-22.95 1.15 -23.0 1.15 -26.8 1.3 -28.5 1.2 -35.85 1.15 -35.9 1.15 Q-36.75 1.05 -41.35 1.1 L-42.5 1.05 -43.65 0.9 -43.8 0.8 -43.9 0.65 -43.95 0.55 Q-44.0 0.4 -43.95 0.3 -43.9 0.15 -43.8 0.05 -43.7 0.0 -43.6 -0.05 L-40.85 -0.35 M-28.45 -2.45 L-24.75 -2.5 -25.0 -2.5 -28.1 -2.45 -28.45 -2.45 M-23.2 -2.1 L-21.4 -2.05 -20.45 -2.15 -18.55 -2.1 -17.4 -2.15 -23.5 -2.45 Q-23.35 -2.3 -23.2 -2.1 M-4.55 -1.65 L-4.65 -1.6 -4.75 -1.45 -4.65 -1.45 -4.65 -1.4 Q-4.25 -1.7 -4.55 -1.65" fill="#ffffff" fill-opacity="0.5019608" fill-rule="evenodd" stroke="none"/>
      <path d="M1.6 -0.2 L3.7 -0.45 13.75 -0.5 24.55 -0.95 Q28.75 -1.2 29.8 -0.95 L23.9 -0.35 13.45 0.2 3.7 0.2 2.15 0.3 1.45 0.25 1.0 0.2 Q1.0 0.15 0.9 0.1 0.75 0.05 0.75 -0.05 L1.6 -0.2 M0.4 -1.35 Q0.65 -1.3 0.65 -1.25 L-0.1 -1.15 0.15 -1.1 Q0.5 -1.0 0.5 -0.95 L-0.15 -0.95 -0.45 -1.0 -2.0 -1.0 -4.2 -0.9 Q-4.55 -0.95 -4.6 -1.05 L-4.55 -1.05 Q-4.75 -1.1 -4.75 -1.2 L-4.5 -1.25 -4.35 -1.3 -2.1 -1.25 0.15 -1.4 0.4 -1.35 M2.75 -0.95 L3.6 -0.95 4.7 -0.8 2.75 -0.8 2.75 -0.95 M6.6 -0.85 L6.2 -0.8 6.75 -1.15 7.3 -1.3 17.2 -1.35 22.65 -1.75 26.25 -1.95 Q24.35 -1.55 21.35 -1.3 L16.9 -0.95 7.25 -0.9 6.6 -0.85 M33.25 -11.9 L33.45 -11.95 34.55 -12.05 Q34.6 -12.2 34.7 -12.25 L40.55 -12.35 Q43.15 -12.35 43.85 -12.25 44.35 -12.2 44.35 -12.1 L43.85 -12.05 44.8 -11.9 46.0 -11.75 47.65 -11.55 47.6 -11.5 46.1 -11.6 Q46.8 -11.4 47.55 -11.2 50.7 -10.1 50.7 -8.8 50.7 -7.7 47.7 -6.25 45.05 -5.05 42.8 -4.6 L42.7 -4.7 Q43.6 -5.1 47.05 -6.55 50.1 -8.0 50.1 -8.85 50.1 -9.4 48.25 -10.25 46.65 -11.0 45.7 -11.1 L42.35 -11.55 Q39.85 -11.7 37.3 -11.6 L37.1 -11.65 Q36.95 -11.7 36.95 -11.75 L37.3 -11.8 37.25 -11.8 33.3 -11.7 33.25 -11.9 M30.5 -12.95 Q31.25 -13.35 33.15 -13.5 L35.0 -13.65 35.0 -13.7 39.85 -13.7 43.55 -13.5 45.05 -13.25 45.0 -13.2 Q44.55 -13.15 43.65 -13.15 L46.85 -12.85 48.85 -12.65 53.15 -12.0 Q53.1 -11.9 52.6 -11.85 L51.85 -11.75 46.4 -12.45 Q40.65 -13.05 37.0 -12.75 L36.65 -12.75 Q36.35 -12.8 36.3 -12.85 L37.75 -13.1 39.4 -13.15 34.8 -13.15 32.65 -12.95 31.15 -12.8 30.8 -12.85 30.7 -12.85 Q30.7 -12.9 30.5 -12.95 M31.5 -11.95 L29.9 -11.8 26.35 -11.65 25.8 -11.7 25.9 -11.8 27.85 -12.0 29.45 -12.1 31.45 -12.05 31.5 -11.95 M28.7 -2.2 Q30.65 -2.4 31.5 -2.1 L26.95 -1.75 Q26.7 -1.8 26.65 -1.9 26.95 -2.1 28.7 -2.2 M34.4 -2.8 L34.4 -2.85 35.0 -2.8 Q35.5 -2.75 35.55 -2.7 L34.35 -2.5 32.3 -2.3 Q31.95 -2.35 31.9 -2.45 32.2 -2.65 34.4 -2.8 M35.85 -1.8 Q36.75 -2.2 38.7 -2.3 L41.0 -2.3 41.0 -2.35 41.65 -2.25 Q41.3 -2.1 38.95 -1.9 L36.2 -1.75 35.85 -1.8 M39.75 -3.2 L42.45 -3.45 44.3 -3.6 44.2 -3.6 44.05 -3.65 44.05 -3.75 Q45.05 -3.85 46.55 -4.3 L45.1 -4.2 Q44.85 -4.2 44.8 -4.25 L44.75 -4.3 44.75 -4.5 Q46.9 -4.55 49.35 -5.25 L49.9 -5.4 52.4 -6.3 52.35 -6.25 53.15 -6.6 Q52.2 -5.6 49.75 -4.9 L48.7 -4.6 Q46.4 -3.75 45.1 -3.6 L45.15 -3.6 Q45.35 -3.6 47.0 -3.95 48.5 -4.2 49.15 -4.1 48.5 -3.75 45.8 -3.2 42.5 -2.55 39.95 -2.55 38.95 -2.55 38.85 -2.65 L37.75 -2.7 37.7 -2.65 Q37.65 -2.65 37.65 -2.85 L37.65 -2.95 36.95 -2.95 37.95 -3.05 Q38.5 -3.15 38.9 -3.3 L39.35 -3.25 39.75 -3.2 M38.9 -0.25 Q39.5 -0.2 39.55 -0.15 37.4 0.15 30.85 0.55 L23.15 0.95 20.0 0.8 Q19.65 0.75 19.65 0.65 L28.9 0.2 38.3 -0.3 38.9 -0.25 M46.25 -1.55 Q46.05 -1.6 46.05 -1.65 L46.6 -1.7 47.2 -1.8 49.25 -2.35 Q51.05 -2.85 53.7 -4.0 54.8 -4.5 56.3 -6.1 L57.4 -7.25 Q57.9 -7.85 58.2 -8.0 58.2 -7.0 56.75 -5.7 56.1 -5.1 54.05 -3.55 53.05 -2.8 51.65 -2.45 L49.55 -2.0 Q48.45 -1.55 47.5 -1.3 45.65 -0.75 43.85 -0.85 L46.25 -1.55 M52.7 -10.9 L53.45 -10.6 Q52.8 -11.0 51.8 -11.25 L50.25 -11.5 48.85 -11.7 Q49.1 -11.7 49.15 -11.75 L49.15 -11.85 Q53.7 -11.15 54.25 -10.65 L54.55 -10.3 54.5 -9.5 Q54.35 -9.85 54.05 -10.15 L54.15 -9.95 Q54.25 -9.7 54.25 -9.45 54.25 -8.3 52.75 -7.2 51.0 -5.85 48.0 -5.55 L47.8 -5.55 Q47.65 -5.6 47.65 -5.65 50.45 -6.2 52.2 -7.4 53.8 -8.45 53.8 -9.5 53.8 -10.0 53.3 -10.4 52.9 -10.75 51.85 -11.2 51.9 -11.25 52.7 -10.9 M54.8 -11.35 Q56.3 -11.9 58.7 -10.35 59.65 -9.75 60.3 -9.1 60.95 -8.4 60.95 -8.1 60.95 -6.7 59.4 -5.25 57.7 -3.6 55.0 -2.95 L54.9 -3.0 Q57.0 -4.0 58.7 -5.35 60.5 -6.8 60.5 -7.7 60.5 -8.55 58.8 -9.7 56.95 -11.0 54.8 -11.25 L54.8 -11.35 M55.15 -9.25 L55.25 -8.9 55.15 -8.55 55.15 -9.25 M56.35 -9.05 Q55.9 -9.55 55.75 -10.05 55.95 -9.75 56.65 -9.05 56.95 -8.75 56.95 -8.1 56.95 -7.85 56.35 -7.05 55.8 -6.2 55.5 -6.1 L55.45 -6.2 Q55.6 -6.35 56.15 -7.1 56.75 -8.0 56.75 -8.2 56.75 -8.7 56.35 -9.05 M-57.9 -6.7 Q-57.5 -6.0 -56.95 -5.45 -55.85 -4.25 -54.6 -3.85 L-54.45 -3.8 -54.5 -3.75 Q-53.85 -3.55 -53.0 -3.45 -51.9 -3.2 -50.35 -2.7 L-47.35 -1.8 Q-47.55 -1.7 -48.0 -1.7 -50.3 -1.7 -52.95 -2.6 L-53.05 -2.7 Q-53.75 -2.85 -55.45 -3.45 -56.35 -3.65 -57.3 -4.7 -58.25 -5.85 -58.25 -6.55 L-58.25 -6.8 -58.2 -6.95 -58.05 -6.95 -57.9 -6.7 M-48.5 -10.75 L-48.3 -10.85 -48.65 -10.75 -48.5 -10.75 M-47.7 -11.55 Q-48.8 -11.3 -50.1 -11.05 L-52.05 -10.7 Q-54.1 -10.3 -55.45 -9.4 L-55.6 -9.45 Q-55.7 -9.5 -55.7 -9.75 -55.7 -10.55 -52.1 -11.15 L-51.2 -11.3 -51.3 -11.45 Q-50.65 -12.0 -45.15 -12.25 -40.05 -12.5 -38.5 -12.25 -39.2 -11.9 -42.75 -11.8 L-47.35 -11.65 -47.85 -11.6 -47.7 -11.55 M-47.7 -10.95 Q-46.25 -11.25 -44.8 -11.15 L-44.75 -11.0 -43.7 -11.05 Q-41.05 -11.3 -40.1 -11.0 -40.15 -10.85 -40.25 -10.8 -41.45 -10.5 -46.05 -9.95 -50.0 -9.35 -50.0 -8.35 -50.0 -8.15 -49.9 -8.05 L-49.7 -7.85 -49.8 -7.6 Q-49.9 -7.5 -50.1 -7.5 -50.65 -7.5 -50.75 -7.9 -50.85 -8.1 -50.8 -8.35 L-50.75 -8.6 -50.85 -8.7 -50.85 -8.75 -51.0 -8.95 Q-51.05 -9.1 -51.05 -9.3 -51.05 -9.8 -50.8 -10.1 L-51.2 -9.9 -51.2 -10.0 Q-51.9 -9.8 -52.3 -9.4 -52.5 -9.25 -52.65 -9.05 L-52.65 -8.95 -52.55 -8.65 -52.5 -8.65 -52.5 -8.5 -52.45 -8.25 Q-52.3 -7.7 -51.95 -7.55 L-51.95 -7.45 -51.9 -7.35 Q-51.95 -7.3 -52.15 -7.3 L-52.3 -7.3 -52.35 -7.35 Q-52.5 -7.35 -52.65 -7.4 L-52.8 -7.4 Q-53.2 -7.75 -53.3 -8.0 L-53.35 -8.45 Q-53.35 -8.7 -53.05 -9.1 L-53.05 -9.15 -53.4 -9.15 -53.4 -9.1 Q-53.45 -9.1 -53.45 -9.3 -53.45 -10.0 -51.7 -10.45 L-51.65 -10.5 -51.55 -10.5 -51.3 -10.55 -50.4 -10.85 Q-49.05 -11.1 -47.15 -11.05 L-47.7 -10.95 M-56.55 -9.55 Q-56.4 -9.15 -56.4 -8.65 L-56.3 -8.8 -56.25 -8.8 -56.2 -8.55 -56.25 -8.35 -56.25 -8.1 Q-56.25 -7.65 -55.9 -7.05 L-55.75 -6.9 -55.7 -6.7 -55.5 -6.65 Q-55.1 -6.1 -53.85 -5.7 L-53.75 -5.7 -53.8 -5.6 -53.85 -5.55 -53.45 -5.45 Q-53.5 -5.35 -53.75 -5.25 L-53.85 -5.25 -53.9 -5.2 Q-53.95 -5.1 -54.2 -5.1 -54.35 -5.1 -54.5 -5.2 -55.35 -5.25 -56.0 -5.8 -56.45 -6.0 -56.8 -6.55 -57.05 -6.95 -57.1 -7.3 L-57.25 -7.5 Q-57.3 -7.65 -57.3 -8.2 -57.3 -8.85 -57.25 -8.95 -57.2 -9.1 -56.55 -9.55 M-52.55 -4.3 L-52.5 -4.7 -49.7 -3.9 Q-47.35 -3.2 -46.4 -3.05 L-44.6 -2.75 -42.5 -2.45 -37.85 -2.2 Q-34.3 -2.0 -33.55 -1.55 -33.65 -1.5 -34.6 -1.45 L-35.85 -1.4 Q-42.8 -1.4 -47.85 -2.55 -51.2 -3.3 -52.3 -4.1 L-52.4 -4.3 -52.55 -4.3 M-47.2 -6.1 L-47.15 -6.15 -47.15 -6.2 -46.6 -5.95 Q-45.6 -5.7 -44.2 -5.45 -44.1 -5.3 -44.1 -5.2 L-42.7 -5.05 -41.1 -4.85 -40.9 -4.8 -40.2 -4.7 -40.45 -4.65 -40.55 -4.65 -40.5 -4.6 Q-40.5 -4.4 -40.65 -4.3 L-40.8 -4.3 -40.85 -4.25 -41.0 -4.25 -41.05 -4.2 -40.3 -4.1 -36.35 -3.8 -36.3 -3.7 -36.5 -3.65 -35.3 -3.55 -35.85 -3.5 -36.45 -3.5 Q-36.3 -3.45 -36.3 -3.4 L-36.75 -3.35 -37.4 -3.3 Q-39.15 -3.3 -40.65 -3.6 L-43.5 -4.1 -44.25 -4.2 -44.8 -4.2 -44.2 -4.1 Q-43.8 -4.05 -43.75 -3.95 L-44.05 -3.9 -44.55 -3.85 Q-46.25 -3.85 -47.9 -4.3 -48.75 -4.55 -49.7 -4.85 -50.45 -5.05 -51.35 -5.6 -52.35 -6.15 -52.5 -6.55 -52.25 -6.65 -50.9 -6.2 L-49.8 -5.85 -49.25 -5.8 -47.45 -5.3 -46.5 -5.05 -46.45 -5.15 -46.4 -5.15 -44.95 -4.85 -44.95 -4.95 Q-45.95 -5.05 -47.0 -5.4 L-47.1 -5.45 Q-48.05 -5.65 -49.1 -6.1 L-49.4 -6.25 -49.45 -6.25 Q-50.4 -6.7 -50.65 -7.0 L-50.65 -7.05 Q-50.35 -7.05 -48.85 -6.4 L-48.35 -6.25 -48.35 -6.3 -47.2 -6.1 M-48.35 -5.05 Q-48.35 -5.0 -48.15 -4.95 L-48.05 -4.95 -48.35 -5.05 M-36.45 -11.6 Q-33.15 -11.5 -31.7 -11.65 -31.3 -11.7 -28.65 -11.25 -28.8 -11.2 -29.15 -11.2 L-31.4 -11.25 -33.05 -11.3 -36.45 -11.4 -36.45 -11.6 M-39.2 -11.75 L-39.2 -11.7 Q-38.0 -11.65 -36.9 -11.4 L-39.2 -11.35 -40.35 -11.35 -40.55 -11.3 -40.9 -11.3 -41.55 -11.25 -42.2 -11.25 -43.25 -11.2 -43.35 -11.1 Q-43.45 -11.05 -43.45 -11.3 L-43.4 -11.35 -43.4 -11.4 -43.5 -11.55 -41.6 -11.7 -39.3 -11.7 -39.2 -11.75 M-43.95 -4.65 L-43.95 -4.65 M-44.7 -4.85 L-44.9 -4.85 -44.6 -4.8 -44.7 -4.85 M-33.25 -2.7 Q-33.1 -2.85 -32.75 -2.85 L-32.15 -2.9 -30.6 -2.75 Q-28.75 -3.05 -22.0 -2.75 -15.35 -2.45 -14.0 -2.15 L-13.65 -2.1 -11.15 -1.8 Q-10.55 -1.75 -10.5 -1.7 L-11.65 -1.55 -12.45 -1.45 -11.15 -1.4 Q-11.1 -1.35 -10.9 -1.25 -10.7 -1.15 -10.7 -1.1 -10.6 -1.05 -10.95 -1.05 L-12.55 -1.1 -14.95 -1.3 -14.9 -1.4 -13.2 -1.5 -14.15 -1.5 -17.15 -1.6 -20.65 -1.6 -18.4 -1.55 -18.1 -1.5 -17.75 -1.4 -18.35 -1.35 -19.15 -1.3 -22.65 -1.3 -22.8 -1.4 -23.0 -1.6 -24.7 -1.6 -27.75 -1.9 Q-27.65 -1.85 -27.6 -1.8 L-28.25 -1.75 -29.1 -1.7 -31.45 -1.8 -33.9 -1.95 Q-33.85 -2.05 -33.4 -2.1 L-31.75 -2.2 -31.45 -2.15 Q-32.3 -2.3 -32.9 -2.5 L-33.05 -2.55 -33.25 -2.7 M-24.6 -0.9 L-21.7 -0.95 -12.55 -0.95 -8.8 -0.8 Q-6.9 -0.75 -6.45 -0.75 -6.1 -0.75 -6.05 -0.7 L-7.35 -0.45 -12.55 -0.2 -21.7 -0.2 Q-24.45 -0.3 -25.05 -0.45 -25.25 -0.5 -25.35 -0.6 -25.5 -0.7 -25.7 -0.75 -25.4 -0.85 -24.6 -0.9 M-3.45 -1.5 L-3.3 -1.45 Q-3.1 -1.45 -3.05 -1.4 L-3.15 -1.35 -3.5 -1.4 -3.5 -1.45 -3.45 -1.5 M-11.45 1.3 L-1.7 1.3 1.5 1.45 3.65 1.6 -1.7 1.8 -11.7 1.85 -12.55 1.95 -19.3 1.9 -20.55 1.8 Q-20.95 1.75 -20.95 1.65 L-19.3 1.55 -15.3 1.5 Q-13.55 1.5 -12.55 1.45 L-11.45 1.35 -11.45 1.3 M-23.05 0.7 L-26.8 0.85 -28.5 0.75 -35.85 0.7 Q-36.7 0.6 -41.35 0.7 L-42.5 0.6 -43.5 0.5 -43.55 0.4 -40.8 0.1 Q-39.2 -0.05 -36.15 0.1 L-28.85 0.15 -21.95 0.4 Q-21.7 0.4 -21.65 0.45 L-23.05 0.7 M45.3 1.0 Q43.55 1.6 40.0 2.05 35.5 2.65 29.85 2.65 L29.3 2.65 29.0 2.6 28.8 2.55 Q28.65 2.45 28.6 2.4 L34.0 1.9 39.2 1.5 42.9 1.15 45.3 1.0 M21.6 1.9 Q23.35 1.85 23.8 1.9 L20.4 2.25 Q18.95 2.3 12.8 2.3 L8.7 2.15 8.8 2.05 Q9.1 2.0 12.2 2.0 16.25 2.0 19.3 1.95 L21.6 1.9" fill="#ffffff" fill-opacity="0.8" fill-rule="evenodd" stroke="none"/>
    </g>
  </defs>
</svg>
