<?xml version="1.0" encoding="UTF-8" standalone="no"?>
<svg xmlns:ffdec="https://www.free-decompiler.com/flash" xmlns:xlink="http://www.w3.org/1999/xlink" ffdec:objectType="frame" height="355.25px" width="893.55px" xmlns="http://www.w3.org/2000/svg">
  <g transform="matrix(1.0, 0.0, 0.0, 1.0, 425.6, 287.7)">
    <use ffdec:characterId="1297" height="41.6" transform="matrix(7.0, 0.0, 0.0, 7.0, -381.85, -239.4)" width="113.5" xlink:href="#shape0"/>
  </g>
  <defs>
    <g id="shape0" transform="matrix(1.0, 0.0, 0.0, 1.0, 54.55, 34.2)">
      <path d="M3.3 -33.15 Q3.65 -33.15 4.15 -33.15 5.95 -33.0 8.2 -32.1 L8.25 -32.1 Q9.0 -32.05 10.95 -31.2 L11.45 -31.0 Q11.6 -30.85 11.8 -30.75 L11.9 -30.65 Q13.45 -29.85 15.05 -28.8 15.95 -28.2 16.6 -27.75 L16.75 -27.5 17.15 -27.15 18.45 -25.55 18.65 -25.2 18.95 -24.95 Q19.8 -23.9 20.25 -23.15 20.85 -22.2 21.05 -21.45 L21.1 -21.05 Q21.45 -20.15 21.65 -18.95 21.95 -17.4 21.95 -15.75 L21.95 -15.35 Q22.1 -14.85 22.1 -14.6 22.1 -13.1 21.8 -12.1 L21.8 -11.55 Q21.85 -11.0 21.75 -10.65 L21.7 -10.3 21.55 -9.55 Q21.35 -8.55 20.95 -8.15 L20.9 -7.7 20.45 -6.75 Q19.85 -5.4 19.0 -4.1 18.0 -2.6 16.55 -1.35 15.1 -0.1 12.95 1.05 L10.75 1.9 Q8.15 2.85 7.8 3.0 L7.45 3.15 7.25 3.15 Q3.75 3.7 0.75 3.85 L-1.05 3.9 -1.1 3.9 -2.05 3.75 -6.1 3.4 -8.9 2.5 -9.5 2.3 Q-10.5 2.15 -11.45 1.75 -12.05 1.5 -13.25 0.8 L-14.3 0.2 -15.4 -0.4 Q-16.35 -0.95 -16.95 -1.4 -17.65 -1.85 -18.1 -2.6 -18.75 -3.25 -19.0 -3.8 -19.1 -3.95 -19.6 -4.8 -20.0 -5.45 -20.2 -6.05 -20.25 -6.25 -20.55 -7.05 -20.8 -7.8 -20.9 -8.2 -20.95 -8.5 -21.55 -10.3 -22.05 -11.85 -22.05 -12.55 -22.05 -13.05 -21.7 -15.7 -21.35 -18.3 -21.2 -18.8 -21.05 -19.3 -20.7 -20.3 L-20.05 -21.9 Q-19.95 -22.15 -19.8 -22.65 -19.65 -23.15 -19.3 -23.5 L-18.9 -23.9 Q-18.65 -24.55 -18.15 -25.2 L-17.45 -26.05 Q-17.1 -26.65 -16.15 -27.45 -15.6 -27.9 -14.35 -28.8 L-14.15 -28.95 Q-13.6 -29.4 -12.8 -30.3 L-12.75 -30.35 -12.0 -30.7 -11.65 -30.8 Q-11.25 -31.1 -10.95 -31.2 -10.45 -31.4 -9.8 -31.55 L-9.7 -31.6 Q-7.55 -32.7 -4.3 -33.15 -1.25 -33.6 1.8 -33.35 L3.3 -33.15 M-16.8 -0.65 L-16.75 -0.65 -16.55 -0.5 -16.7 -0.6 -16.8 -0.65" fill="#edffe5" fill-opacity="0.5019608" fill-rule="evenodd" stroke="none"/>
      <path d="M4.75 -20.9 L4.5 -21.05 4.55 -21.05 4.75 -20.9 M11.55 -22.45 L11.55 -22.25 Q11.55 -21.85 11.3 -21.5 11.3 -21.95 11.55 -22.45 M0.8 -33.1 Q3.9 -33.05 4.85 -32.8 5.25 -32.75 5.45 -32.55 6.2 -32.55 7.65 -32.15 9.25 -31.65 10.95 -30.85 15.2 -28.75 17.1 -26.15 17.35 -25.75 18.55 -24.3 19.55 -23.1 19.9 -22.5 20.1 -22.2 20.4 -21.25 20.9 -21.05 21.25 -19.8 21.55 -18.65 21.55 -17.95 21.55 -17.6 21.5 -17.05 21.4 -16.4 21.3 -16.05 20.95 -16.25 20.8 -17.05 L20.6 -18.35 20.35 -18.6 20.35 -18.45 20.3 -18.35 20.25 -18.35 20.1 -18.3 20.05 -18.3 18.9 -18.2 17.65 -18.15 16.7 -18.3 16.25 -18.65 Q15.55 -19.15 15.25 -19.95 15.55 -20.75 15.55 -21.85 15.55 -23.0 15.15 -24.15 14.7 -25.55 13.8 -26.35 13.1 -26.8 12.45 -27.1 L11.75 -27.55 11.35 -27.7 11.25 -27.9 10.25 -28.15 Q8.95 -28.45 8.35 -28.45 6.55 -28.45 5.1 -28.0 3.95 -27.6 3.65 -27.2 L3.05 -26.4 Q2.75 -25.95 2.6 -25.4 2.3 -24.3 2.15 -23.65 2.0 -22.65 2.05 -21.85 2.0 -21.8 1.75 -21.75 L1.8 -21.05 Q1.9 -19.5 2.35 -18.8 L2.5 -18.6 Q2.8 -17.35 4.0 -16.15 4.5 -15.2 5.25 -14.45 6.25 -13.4 7.5 -13.1 L7.55 -13.15 Q7.7 -13.25 7.95 -13.25 11.65 -13.25 15.25 -12.15 L15.5 -12.05 Q15.85 -12.1 16.35 -12.05 17.35 -11.9 18.25 -11.4 19.15 -11.1 19.55 -10.5 19.75 -10.25 19.8 -9.9 20.15 -9.25 20.55 -8.25 L19.25 -5.0 18.9 -4.5 Q18.2 -3.45 17.3 -2.75 L16.5 -2.1 16.55 -2.0 Q16.15 -1.55 15.65 -1.2 14.8 -0.55 14.35 -0.45 14.0 -0.05 13.85 0.0 13.7 0.05 12.65 0.6 L12.3 0.8 Q10.9 1.55 9.7 2.0 L8.65 2.45 Q7.7 2.85 6.2 3.1 L6.1 3.15 4.15 3.4 3.45 3.4 Q2.95 3.65 2.0 3.65 L1.15 3.6 1.0 3.7 -1.0 3.7 -1.75 3.55 -2.3 3.65 -3.3 3.7 Q-5.5 3.7 -7.95 3.0 -10.2 2.4 -11.3 1.65 -11.0 1.4 -10.75 1.45 L-9.8 1.8 -8.05 2.1 Q-6.95 2.3 -6.45 2.55 L-6.5 2.45 Q-6.45 2.25 -6.3 2.2 L-5.55 2.2 -3.95 2.4 -2.55 2.5 -1.2 2.5 Q0.8 2.35 2.6 1.9 4.05 1.5 5.95 0.7 6.5 0.45 7.1 0.15 7.1 -0.55 6.75 -1.25 6.3 -2.1 5.5 -2.35 5.1 -2.45 3.75 -3.3 1.55 -2.95 0.7 -2.7 -0.25 -2.45 -2.6 -2.15 -4.9 -1.8 -5.65 -1.8 L-6.35 -1.85 Q-7.1 -1.65 -7.8 -1.65 -8.8 -1.65 -11.05 -2.35 -13.4 -3.1 -14.05 -3.7 L-14.05 -3.75 Q-14.6 -3.95 -15.05 -4.25 L-15.3 -4.35 Q-15.75 -4.5 -16.2 -4.85 -17.65 -5.95 -18.7 -7.45 -19.0 -7.85 -19.35 -8.7 -19.8 -9.7 -19.95 -10.0 -20.25 -10.5 -20.5 -11.2 L-20.5 -11.3 Q-20.6 -11.1 -20.9 -10.95 L-21.15 -11.1 -21.2 -10.9 -21.3 -11.25 Q-21.4 -11.45 -21.45 -11.75 L-21.5 -12.6 -21.6 -13.3 Q-21.6 -13.45 -21.35 -14.75 L-21.35 -14.9 -21.3 -15.55 Q-21.3 -17.0 -21.05 -18.25 -20.75 -19.6 -20.05 -20.8 -19.8 -22.0 -19.7 -22.15 L-18.7 -23.75 Q-18.05 -24.8 -17.55 -25.45 -17.0 -26.15 -16.35 -26.6 -15.7 -27.35 -14.7 -28.2 -13.0 -29.65 -11.7 -30.25 -10.45 -30.8 -9.15 -31.15 L-8.2 -31.4 -7.05 -31.9 Q-6.7 -32.0 0.8 -33.1 M3.75 -32.05 L3.7 -32.05 4.2 -32.0 3.75 -32.05 M-7.5 -4.1 L-7.15 -4.05 -7.35 -4.1 -7.5 -4.1" fill="#ffffff" fill-rule="evenodd" stroke="none"/>
      <path d="M4.65 -33.65 Q5.1 -33.5 6.7 -33.25 6.05 -33.7 5.8 -34.1 6.85 -33.7 8.6 -32.8 8.4 -33.0 8.3 -33.15 10.55 -32.25 12.5 -31.15 14.1 -30.25 14.9 -29.55 14.45 -30.1 14.3 -30.3 L14.35 -30.4 Q14.45 -30.4 14.45 -30.45 14.85 -30.25 15.65 -29.4 L14.25 -31.25 Q14.3 -31.4 14.5 -31.4 L16.8 -28.75 Q17.6 -27.95 18.35 -27.05 19.0 -26.3 19.45 -25.65 19.65 -25.6 19.85 -25.25 20.1 -24.85 20.4 -24.0 L20.45 -23.8 Q20.95 -23.5 21.4 -22.3 L21.5 -22.3 Q22.8 -18.2 22.8 -13.95 L22.75 -12.7 Q22.7 -12.35 22.6 -11.9 L22.5 -11.3 22.25 -9.75 22.75 -10.95 22.95 -10.95 22.95 -11.0 Q23.0 -10.95 23.0 -10.75 23.0 -10.55 22.75 -9.9 L22.6 -9.5 22.75 -9.4 22.8 -9.3 Q22.8 -9.0 21.75 -6.9 L20.5 -4.45 Q19.75 -2.95 19.15 -2.15 18.5 -1.35 17.7 -0.65 L16.2 1.45 16.05 1.45 Q16.2 0.9 16.75 0.0 L16.45 0.2 16.35 0.1 16.35 -0.15 Q15.55 0.55 15.05 0.55 15.0 0.55 14.95 0.55 15.1 0.6 15.2 0.7 14.55 1.1 13.6 1.55 13.35 1.8 12.8 2.0 L12.4 2.1 11.55 2.5 8.55 3.6 8.3 3.65 Q8.25 3.65 8.25 3.4 L8.05 3.6 Q7.65 3.75 6.15 4.15 L6.35 4.15 8.95 4.05 Q8.5 4.25 7.35 4.4 L6.15 4.5 7.2 4.45 6.75 4.6 6.0 4.75 3.7 4.7 3.45 4.75 3.0 4.7 2.75 4.7 2.8 4.75 2.7 4.85 2.4 4.9 1.05 4.9 1.05 4.95 -2.35 4.8 -2.8 4.8 -4.95 4.7 -7.5 4.55 Q-7.55 4.5 -7.85 4.4 L-8.05 4.25 -8.0 4.2 -6.9 4.3 -6.0 4.35 -6.9 4.15 Q-8.0 3.9 -8.55 3.55 L-8.5 3.7 Q-8.5 3.75 -8.7 3.75 -9.25 3.75 -11.15 2.7 L-11.4 2.6 -11.5 2.5 -11.65 2.4 -11.85 2.45 Q-12.8 2.45 -14.65 1.1 L-14.9 1.15 -14.7 1.2 -14.7 1.3 -14.65 1.4 Q-14.65 1.5 -14.85 1.5 -15.6 1.5 -17.15 0.0 -17.6 -0.35 -18.15 -0.9 -19.15 -1.85 -19.95 -2.95 -20.15 -3.2 -20.45 -3.75 L-20.95 -4.75 -21.0 -5.05 Q-21.7 -6.2 -21.9 -6.9 L-22.1 -7.3 -22.05 -7.35 -22.0 -7.35 Q-22.75 -9.15 -22.75 -10.85 L-22.75 -11.65 Q-22.85 -12.35 -22.85 -12.95 -22.85 -15.45 -22.45 -18.15 -21.95 -21.2 -21.25 -22.3 -21.95 -20.0 -22.1 -18.0 L-22.05 -18.1 -22.05 -18.25 Q-22.05 -19.3 -21.3 -21.65 -20.55 -24.2 -19.85 -24.95 L-19.55 -24.9 -19.55 -24.85 Q-18.8 -26.35 -17.85 -27.3 -17.7 -27.15 -17.7 -27.05 L-17.7 -26.95 Q-17.65 -26.95 -16.85 -27.75 -16.1 -28.5 -15.85 -28.5 L-15.7 -28.6 -15.75 -28.6 Q-16.15 -28.45 -16.35 -28.45 -17.05 -28.45 -17.15 -28.55 -16.4 -29.35 -14.3 -30.4 L-14.05 -30.6 Q-12.3 -31.8 -11.85 -31.95 L-8.55 -33.05 -8.4 -33.05 -7.55 -33.25 Q-6.1 -33.75 -4.85 -33.9 -3.35 -34.2 -2.2 -34.2 -2.05 -34.0 -2.1 -33.9 L-2.0 -33.9 -0.9 -34.0 Q3.1 -34.35 4.1 -34.1 4.45 -34.05 4.5 -33.95 L3.85 -33.95 4.65 -33.8 4.7 -33.7 4.65 -33.65 M3.5 -32.8 L3.45 -32.75 2.95 -32.7 3.7 -32.6 3.65 -32.8 3.55 -32.9 3.4 -32.9 3.5 -32.8 M4.0 -32.55 Q5.85 -32.3 6.2 -32.1 L6.1 -32.1 5.8 -32.05 4.45 -32.2 2.85 -32.35 Q2.55 -32.4 0.5 -32.4 L-0.2 -32.35 -0.1 -32.25 -0.45 -32.3 Q-3.75 -31.9 -5.25 -31.6 L-5.3 -31.6 Q-7.85 -30.9 -10.35 -29.65 -13.35 -28.15 -15.35 -26.45 L-15.35 -26.5 -15.85 -26.15 -16.4 -25.6 -17.5 -24.15 -18.85 -22.3 -19.0 -21.95 Q-19.5 -20.7 -19.6 -20.35 -19.85 -19.3 -20.05 -17.55 -20.05 -17.45 -20.15 -17.4 -20.2 -17.45 -20.2 -17.8 L-20.25 -17.85 -20.5 -15.75 -20.6 -14.95 Q-20.6 -14.8 -20.45 -14.45 -20.25 -14.0 -20.2 -13.85 -19.9 -11.45 -19.9 -11.05 L-19.9 -10.75 -19.95 -10.65 Q-20.35 -11.4 -20.55 -12.85 L-20.65 -13.45 -20.7 -13.25 -20.8 -12.25 Q-20.75 -11.2 -20.5 -10.1 -20.3 -9.8 -20.1 -9.25 L-19.7 -8.05 Q-19.2 -7.0 -17.95 -5.6 -17.4 -5.05 -15.55 -3.2 L-15.55 -3.1 Q-16.65 -3.85 -17.8 -4.95 -18.6 -5.75 -19.2 -6.45 -18.7 -5.4 -18.0 -4.15 L-17.8 -3.85 Q-17.2 -3.55 -16.55 -2.75 L-16.05 -2.2 -16.0 -2.25 -15.8 -2.35 Q-15.7 -2.35 -15.45 -2.05 L-15.3 -1.9 -15.15 -1.9 Q-14.95 -1.9 -14.2 -1.15 L-13.3 -0.2 Q-13.05 0.0 -11.95 0.65 -10.8 1.25 -10.45 1.4 -7.55 2.45 -7.3 2.5 L-7.25 2.5 -7.3 2.45 -7.25 2.3 Q-8.0 2.0 -8.6 1.8 -9.35 1.6 -9.65 1.25 L-10.05 0.65 -10.05 0.55 -9.95 0.55 Q-7.05 1.9 -4.45 2.45 -3.25 2.7 0.4 3.2 L0.45 3.2 2.65 3.0 2.7 3.0 3.95 2.85 Q5.0 2.7 5.4 2.85 L6.0 2.65 Q6.8 2.4 8.4 1.9 9.5 1.5 9.8 1.45 L9.85 1.55 Q9.0 1.95 6.05 2.85 L5.15 3.1 Q4.6 3.35 3.9 3.55 L5.05 3.4 6.95 3.05 7.55 2.95 7.45 2.9 6.8 2.9 6.85 2.8 Q10.7 2.0 13.55 0.2 14.4 -0.35 15.4 -1.15 L15.35 -1.1 14.0 -0.2 Q12.75 0.65 11.8 1.05 L11.8 0.95 Q11.85 0.9 11.95 0.8 L12.3 0.7 12.55 0.4 12.55 0.3 Q12.55 0.15 14.05 -0.8 15.55 -1.8 15.55 -2.1 L16.85 -3.5 Q18.3 -5.05 19.1 -6.45 19.35 -6.95 20.1 -8.6 L20.25 -8.95 20.5 -9.75 20.65 -10.1 20.75 -10.55 20.65 -11.15 20.65 -11.3 20.55 -11.1 Q20.25 -10.3 20.2 -9.8 L20.05 -9.8 20.05 -10.05 Q20.05 -10.2 20.05 -10.4 20.05 -10.8 20.45 -11.85 L20.55 -12.2 20.55 -12.3 20.6 -13.35 20.75 -13.35 20.8 -12.9 20.85 -13.05 20.95 -14.4 Q21.0 -14.65 21.1 -14.85 21.05 -16.35 20.85 -17.9 L20.7 -18.65 20.5 -19.2 20.5 -19.15 20.35 -19.1 19.5 -21.5 Q18.95 -22.95 18.2 -23.95 17.7 -24.55 17.0 -25.55 16.25 -26.35 15.25 -27.2 13.8 -28.5 12.05 -29.9 11.65 -30.1 11.2 -30.2 L11.0 -30.3 Q10.75 -30.35 10.7 -30.45 L10.8 -30.55 11.55 -30.3 11.75 -30.25 11.8 -30.35 12.15 -30.15 12.2 -30.1 11.55 -30.55 10.45 -31.15 10.3 -31.15 Q9.55 -31.15 6.7 -32.0 L4.45 -32.65 4.0 -32.65 4.0 -32.6 3.9 -32.6 4.0 -32.55 M15.65 -28.45 L15.65 -28.45 M17.6 -25.95 L17.3 -26.2 16.85 -26.6 17.9 -25.3 17.6 -25.95 M19.1 -24.35 Q19.1 -24.7 19.15 -24.5 L19.2 -24.5 19.15 -24.55 19.05 -24.7 19.05 -24.5 19.1 -24.3 19.1 -24.35 M15.45 -27.75 L14.0 -28.8 15.75 -27.35 15.45 -27.75 M21.9 -16.25 L21.9 -16.15 21.95 -15.6 21.9 -16.25 M20.95 -11.6 L21.1 -12.3 21.45 -14.5 Q21.3 -14.15 21.2 -13.55 L21.0 -12.3 20.9 -12.0 20.95 -11.6 M21.5 -11.05 L21.5 -12.4 21.4 -11.65 21.35 -11.2 21.4 -11.15 Q21.4 -11.1 21.5 -11.05 M17.3 -3.15 L17.55 -3.5 17.2 -3.1 17.2 -3.05 17.3 -3.15 M19.85 -6.15 Q19.45 -5.2 18.85 -4.35 L18.75 -4.1 18.7 -4.1 Q18.75 -4.0 18.75 -3.8 19.1 -4.2 19.4 -4.75 L19.55 -5.2 20.05 -6.45 20.05 -6.5 19.85 -6.15 M18.55 -3.65 L18.35 -3.45 18.2 -3.25 Q18.4 -3.4 18.45 -3.4 18.6 -3.5 18.65 -3.65 18.6 -3.7 18.55 -3.65 M18.2 -4.25 Q18.05 -3.95 17.95 -3.85 18.15 -3.85 18.8 -5.25 L18.3 -4.6 18.2 -4.25 M3.8 3.05 L2.95 3.2 Q2.85 3.2 2.8 3.3 3.4 3.3 4.15 3.0 L3.8 3.05 M-9.9 -30.8 Q-8.9 -31.35 -8.15 -31.7 -9.0 -31.35 -9.95 -30.8 L-9.9 -30.8 M-9.9 -31.4 L-9.9 -31.4 -10.5 -31.15 -11.2 -30.75 -11.15 -30.8 Q-10.35 -31.15 -9.9 -31.4 M-5.6 -32.25 L-5.15 -32.35 -4.95 -32.45 -5.6 -32.25 M-4.15 -32.75 L-4.6 -32.45 -4.05 -32.55 -4.2 -32.6 -4.2 -32.7 Q-4.05 -32.75 -3.6 -32.9 L-4.15 -32.75 M-20.15 -20.1 L-20.15 -20.1 M-21.2 -9.75 L-21.3 -10.05 -21.35 -10.1 -21.15 -9.25 -21.2 -9.75 M-18.1 -3.6 L-17.75 -3.2 -18.0 -3.5 -18.1 -3.65 -18.1 -3.6 M-18.9 -4.8 L-19.05 -5.15 Q-19.0 -4.85 -18.85 -4.75 L-18.9 -4.8 M-16.9 -2.2 L-15.35 -0.95 -16.15 -1.7 Q-16.65 -1.95 -17.15 -2.35 L-16.9 -2.2 M-16.15 -0.5 L-15.15 0.3 -14.8 0.5 -16.05 -0.45 -16.15 -0.5 M-4.9 2.9 L-4.65 2.9 -5.8 2.7 -6.2 2.6 -5.65 2.75 -5.45 2.8 -4.9 2.9 M-10.5 2.15 L-10.05 2.2 -9.7 2.25 -10.5 1.9 -10.5 2.15 M-11.35 1.9 L-11.65 1.65 -11.55 1.8 -11.35 1.9 M-9.3 3.2 L-8.6 3.5 Q-8.75 3.4 -8.85 3.3 L-9.3 3.2 M-15.5 0.85 L-15.75 0.6 -15.85 0.6 -15.5 0.85" fill="#cdffb4" fill-opacity="0.5019608" fill-rule="evenodd" stroke="none"/>
      <path d="M23.05 -26.1 L23.15 -26.1 23.15 -26.05 23.2 -26.0 23.2 -25.9 Q23.05 -25.55 22.65 -25.0 L22.35 -24.5 22.4 -24.5 22.45 -24.45 22.85 -24.7 Q23.35 -25.0 23.45 -25.15 L23.5 -25.2 Q23.9 -25.55 24.1 -25.65 L24.2 -25.65 24.25 -25.55 24.25 -25.45 24.2 -25.25 24.55 -25.5 24.7 -25.6 24.7 -25.65 24.9 -25.8 Q24.95 -25.85 25.0 -25.85 L25.05 -25.9 25.1 -25.85 25.35 -26.0 25.45 -25.95 25.5 -25.85 25.5 -25.75 25.15 -25.35 25.5 -25.65 25.55 -25.7 25.6 -25.7 25.75 -25.65 25.9 -25.75 Q26.3 -26.05 26.6 -26.05 26.8 -26.2 26.95 -26.25 L27.05 -26.25 27.1 -26.15 27.1 -26.05 Q27.0 -25.8 26.75 -25.45 L26.85 -25.5 Q27.35 -26.0 27.45 -25.95 L27.55 -25.85 27.55 -25.7 27.6 -25.7 27.75 -25.9 28.05 -26.05 28.95 -26.7 29.0 -26.75 29.05 -26.75 Q29.3 -26.7 29.4 -26.6 L29.5 -26.45 29.6 -26.55 29.65 -26.55 29.75 -26.5 29.85 -26.5 30.1 -26.6 30.2 -26.55 30.45 -26.8 30.55 -26.85 30.65 -26.8 30.7 -26.75 30.7 -26.65 Q30.4 -26.05 29.4 -25.1 L29.4 -25.05 Q29.35 -24.75 28.95 -24.45 L28.8 -24.35 Q28.9 -24.3 28.9 -24.2 L29.25 -24.45 29.35 -24.5 29.7 -24.45 29.8 -24.35 29.8 -24.25 Q29.8 -24.15 29.55 -23.9 L29.65 -24.0 29.7 -24.0 29.8 -24.1 29.85 -24.1 Q30.0 -24.2 30.1 -24.0 L30.1 -23.8 Q30.15 -23.6 29.3 -22.85 L29.25 -22.85 29.0 -22.65 28.85 -22.5 28.45 -22.2 28.45 -22.15 Q28.4 -22.15 28.35 -22.15 L27.9 -22.15 Q27.85 -22.15 27.8 -22.2 27.75 -22.2 27.75 -22.3 27.75 -22.4 27.85 -22.7 L27.85 -22.75 Q27.45 -22.4 27.25 -22.3 L27.15 -22.3 27.05 -22.35 Q26.85 -22.4 26.85 -22.75 26.85 -22.85 26.9 -22.9 L26.95 -23.0 26.9 -22.95 25.85 -22.0 25.35 -22.0 Q25.3 -22.0 25.25 -22.0 25.25 -22.05 25.2 -22.1 25.2 -22.15 25.25 -22.2 25.45 -22.55 25.9 -23.0 L25.8 -23.05 Q25.75 -23.05 25.7 -23.1 L25.7 -23.15 25.65 -23.1 25.6 -23.1 25.35 -23.15 Q25.0 -23.25 25.05 -23.4 L24.8 -23.2 24.6 -23.1 Q24.45 -23.05 24.35 -23.2 24.3 -23.3 24.3 -23.45 24.3 -23.7 24.6 -24.05 L24.6 -24.25 24.65 -24.25 Q24.65 -24.3 24.7 -24.3 L24.75 -24.3 24.75 -24.35 24.7 -24.4 24.2 -23.85 24.15 -23.85 23.55 -23.3 23.25 -23.0 23.1 -22.7 22.95 -22.7 22.6 -22.4 22.5 -22.4 Q22.45 -22.4 22.4 -22.45 L22.4 -22.5 22.35 -22.55 22.35 -22.8 22.3 -22.8 22.2 -22.85 22.2 -23.05 22.45 -23.3 22.4 -23.35 22.35 -23.45 22.4 -23.45 22.4 -23.5 22.3 -23.5 22.25 -23.55 22.15 -23.7 Q21.75 -23.4 21.6 -23.35 L21.5 -23.35 Q21.05 -22.8 20.55 -22.45 L20.45 -22.45 Q20.4 -22.45 20.4 -22.5 L20.3 -22.55 Q20.25 -22.6 20.25 -22.65 L20.3 -22.75 20.4 -22.9 20.45 -22.95 20.4 -22.95 20.4 -23.25 20.45 -23.3 20.6 -23.4 20.65 -23.6 20.85 -24.15 20.9 -24.25 Q20.95 -24.3 21.0 -24.3 21.15 -24.3 21.2 -24.25 L22.0 -25.05 22.95 -26.05 23.05 -26.1 M20.55 -25.0 L20.55 -24.85 20.0 -23.95 20.0 -23.9 19.6 -23.15 Q19.05 -22.1 18.35 -21.25 L18.3 -21.2 18.2 -21.2 17.85 -21.25 Q17.8 -21.25 17.75 -21.3 L17.7 -21.35 17.75 -21.45 18.3 -22.25 18.45 -22.5 18.15 -22.25 18.15 -22.2 17.85 -21.8 17.75 -21.7 Q17.55 -21.7 17.5 -21.8 L16.85 -20.9 15.95 -19.65 15.9 -19.6 15.8 -19.6 Q15.75 -19.6 15.75 -19.65 L15.65 -19.7 15.6 -19.8 15.65 -19.9 17.05 -22.3 Q17.9 -23.7 18.5 -24.25 L18.6 -24.3 18.7 -24.25 18.7 -24.15 Q18.7 -23.9 18.55 -23.6 L18.4 -23.3 18.55 -23.4 19.1 -23.95 19.2 -24.1 19.2 -24.15 Q19.25 -24.15 19.3 -24.2 L19.35 -24.2 Q19.75 -24.95 19.9 -25.15 L19.95 -25.2 20.05 -25.25 Q20.5 -25.25 20.55 -25.0 M12.25 -23.05 L12.3 -23.0 12.3 -22.65 12.1 -22.3 12.0 -22.15 12.1 -22.15 Q12.2 -22.1 12.35 -22.05 12.5 -22.2 12.65 -22.25 L12.7 -22.25 12.9 -22.2 13.0 -22.15 13.0 -22.0 Q12.9 -21.7 12.6 -21.25 12.55 -20.95 12.3 -20.5 L12.05 -20.05 12.0 -20.0 Q11.75 -19.15 11.35 -18.75 L11.35 -18.7 11.05 -18.7 Q11.0 -18.75 11.0 -18.8 L11.0 -18.9 11.55 -20.35 11.65 -20.6 Q11.5 -20.7 11.45 -20.8 11.4 -20.9 11.4 -21.0 L11.1 -20.8 11.0 -20.8 10.9 -20.85 10.85 -20.9 Q10.85 -20.95 10.85 -21.2 L10.85 -21.25 Q10.85 -21.35 11.3 -22.15 11.85 -23.05 12.1 -23.1 L12.2 -23.1 12.25 -23.05 M15.3 -22.65 L15.4 -22.6 15.4 -22.55 15.5 -22.25 15.5 -21.9 15.6 -21.9 15.7 -21.85 15.7 -21.7 Q15.45 -21.3 15.1 -20.55 L14.9 -19.9 14.55 -19.15 14.4 -18.8 14.35 -18.75 14.3 -18.75 14.25 -18.6 14.15 -18.45 13.95 -18.25 13.85 -18.25 Q13.8 -18.25 13.8 -18.3 L13.7 -18.35 13.65 -18.45 13.7 -18.55 13.85 -18.75 13.85 -18.9 Q13.85 -19.2 13.95 -19.5 L13.95 -19.6 13.9 -19.6 13.85 -19.65 Q13.85 -19.7 13.85 -19.75 13.95 -20.1 14.4 -20.8 L14.45 -20.95 14.55 -21.2 Q14.75 -21.7 14.9 -21.95 15.05 -22.4 15.15 -22.6 L15.25 -22.65 15.3 -22.65 M5.7 -2.7 L5.8 -2.7 5.85 -2.6 5.55 -2.0 Q5.85 -2.35 6.25 -2.55 L6.35 -2.55 6.4 -2.5 6.45 -2.4 6.3 -2.1 Q6.85 -2.55 7.1 -2.6 L7.2 -2.65 7.35 -2.65 7.4 -2.55 7.85 -2.85 7.95 -2.85 8.05 -2.8 8.1 -2.75 Q8.15 -2.45 7.45 -1.85 8.05 -1.95 8.65 -2.2 9.25 -2.4 9.45 -2.4 9.5 -2.4 9.75 -2.2 10.0 -2.0 10.25 -1.95 L10.3 -1.9 10.35 -1.8 10.3 -1.75 Q10.8 -2.0 11.25 -1.95 L11.35 -1.9 11.4 -1.8 11.35 -1.7 Q11.2 -1.55 10.75 -1.25 L11.1 -1.4 11.2 -1.35 11.25 -1.3 10.95 -0.7 Q11.25 -0.6 11.25 -0.45 L11.25 -0.3 9.95 0.8 Q9.2 1.4 8.65 1.65 L8.55 1.65 8.45 1.6 8.45 1.5 Q8.45 1.4 8.5 1.4 8.85 1.15 9.65 0.35 L9.6 0.35 9.5 0.25 9.45 0.1 9.45 0.0 Q9.45 -0.1 9.95 -0.55 L10.55 -1.15 10.4 -1.05 Q9.95 -0.8 9.5 -0.55 9.4 -0.5 9.3 -0.45 9.15 -0.45 9.1 -0.6 9.05 -0.65 9.05 -0.85 9.05 -0.95 9.05 -1.0 L8.9 -0.95 8.3 -0.55 7.8 -0.55 7.7 -0.65 Q7.6 -0.65 7.6 -1.0 L7.6 -1.05 Q7.5 -1.0 7.3 -1.0 7.05 -1.0 6.9 -1.1 6.8 -1.2 6.8 -1.3 L6.75 -1.3 6.65 -1.25 5.15 -0.15 Q5.1 -0.1 5.05 -0.1 L5.0 -0.15 5.0 -0.1 Q4.95 -0.1 4.9 -0.1 L4.5 -0.1 4.45 -0.15 4.4 -0.25 4.4 -0.35 Q4.7 -0.75 5.0 -1.05 L5.0 -1.1 4.35 -0.95 Q3.75 -0.75 3.65 -0.7 3.6 -0.7 3.55 -0.75 3.5 -0.8 3.5 -0.85 3.5 -0.9 3.5 -0.95 L3.6 -1.0 3.55 -1.05 Q3.5 -1.05 3.5 -1.1 3.45 -1.15 3.5 -1.2 L3.55 -1.3 3.65 -1.35 3.75 -1.35 Q3.8 -1.35 3.85 -1.3 L4.65 -2.0 Q5.5 -2.7 5.7 -2.7 M9.25 -1.25 L9.25 -1.2 9.35 -1.2 9.3 -1.25 9.25 -1.25 M39.8 -20.7 L39.0 -20.05 Q38.6 -19.65 38.15 -19.3 L37.85 -19.0 37.8 -19.0 37.5 -18.7 Q37.25 -18.45 36.8 -18.05 36.4 -17.65 36.1 -17.45 L35.55 -17.0 35.35 -17.0 Q35.0 -16.7 34.7 -16.6 L34.5 -16.6 Q34.45 -16.6 34.4 -16.6 L34.35 -16.7 34.35 -16.8 34.65 -17.15 34.65 -17.25 33.95 -16.9 33.85 -16.9 Q33.8 -16.9 33.8 -16.95 33.75 -16.95 33.75 -17.0 L33.75 -17.1 33.9 -17.3 33.2 -17.05 33.1 -17.05 Q33.05 -17.05 33.0 -17.1 33.0 -17.2 33.0 -17.25 L33.1 -17.3 Q33.8 -17.65 34.95 -18.4 35.5 -18.6 35.95 -18.95 L36.3 -19.25 36.9 -19.6 Q38.0 -20.15 39.1 -20.65 L39.1 -20.7 39.45 -20.8 39.45 -20.85 39.55 -20.85 39.75 -20.95 39.85 -20.9 39.85 -20.8 39.8 -20.7 M39.65 -15.35 L40.15 -15.6 Q40.65 -16.0 41.65 -16.4 L42.95 -16.95 Q43.3 -17.1 43.65 -17.2 L45.35 -17.85 45.45 -17.85 45.5 -17.8 45.55 -17.7 45.5 -17.6 Q44.95 -16.95 44.35 -16.7 L44.1 -16.6 44.1 -16.55 44.3 -16.7 44.4 -16.7 Q44.8 -16.8 46.0 -17.45 46.9 -17.95 47.5 -18.25 L48.3 -18.6 48.4 -18.6 48.4 -18.65 48.5 -18.65 49.25 -18.9 49.35 -18.9 49.4 -18.85 49.45 -18.75 Q49.45 -18.6 49.25 -18.4 L49.2 -18.4 49.0 -18.3 48.95 -18.25 49.0 -18.25 48.9 -18.2 48.65 -17.95 47.7 -17.45 47.0 -17.05 Q46.3 -16.65 44.65 -15.6 L43.95 -15.15 43.9 -15.15 42.65 -14.55 42.6 -14.55 41.9 -14.35 41.9 -14.25 41.85 -14.2 39.65 -13.15 39.55 -13.15 39.45 -13.2 39.45 -13.25 Q38.95 -13.0 38.6 -12.85 L38.5 -12.85 38.45 -12.9 38.4 -13.0 38.45 -13.1 38.7 -13.4 Q38.65 -13.45 38.65 -13.5 L38.65 -13.55 38.7 -13.65 Q38.8 -13.7 39.05 -13.75 L39.1 -13.75 39.2 -13.8 39.15 -13.85 Q39.15 -13.9 39.15 -13.95 L39.2 -14.0 39.95 -14.4 Q40.55 -14.7 40.7 -14.8 L40.7 -14.85 40.95 -15.05 41.0 -15.1 40.8 -15.0 Q39.7 -14.45 39.45 -14.45 L39.2 -14.3 38.05 -13.75 38.0 -13.7 Q35.95 -12.4 33.15 -11.05 L33.0 -10.95 33.0 -10.9 Q32.85 -10.85 32.75 -11.0 32.7 -11.05 32.7 -11.25 32.7 -11.35 33.0 -11.6 31.1 -10.65 30.1 -10.3 L29.7 -10.3 Q29.65 -10.3 29.6 -10.35 29.55 -10.35 29.55 -10.4 L29.55 -10.5 29.65 -10.6 Q30.55 -10.95 33.85 -12.35 L34.4 -12.6 Q34.6 -12.8 35.05 -13.0 35.65 -13.3 35.7 -13.4 35.7 -13.6 37.25 -14.35 38.35 -14.85 39.0 -15.1 L39.65 -15.35 M41.75 -15.5 L41.15 -15.2 42.05 -15.55 41.9 -15.5 Q41.8 -15.45 41.8 -15.5 L41.75 -15.5 M42.8 -15.55 L42.85 -15.5 42.85 -15.45 42.9 -15.45 42.9 -15.4 42.85 -15.4 42.85 -15.35 42.95 -15.35 42.9 -15.4 42.95 -15.45 42.95 -15.5 42.9 -15.55 42.8 -15.55 M42.85 -15.35 L42.85 -15.4 42.75 -15.4 42.8 -15.35 42.85 -15.35 M46.2 -16.3 L46.25 -16.4 46.55 -16.6 46.65 -16.6 46.75 -16.55 46.75 -16.45 Q46.8 -16.35 46.4 -16.15 L46.3 -16.15 46.2 -16.2 46.25 -16.1 46.1 -15.95 46.0 -16.0 45.95 -16.05 Q45.95 -16.1 45.95 -16.15 45.95 -16.2 46.0 -16.2 L46.05 -16.25 46.15 -16.25 46.2 -16.2 Q46.2 -16.25 46.2 -16.3 M43.6 -16.3 L43.55 -16.25 43.7 -16.35 43.6 -16.3 M28.7 -26.1 L28.65 -26.0 28.75 -26.0 28.7 -26.05 28.7 -26.1 M28.75 -26.0 L28.75 -26.0 M25.0 -24.5 L24.9 -24.5 24.95 -24.45 25.0 -24.45 25.0 -24.5 M27.05 -22.35 Q27.1 -22.35 27.15 -22.35 L27.1 -22.4 27.05 -22.35 M27.35 -18.95 L28.0 -19.5 Q29.2 -20.55 29.6 -20.7 L29.7 -20.7 29.8 -20.65 29.8 -20.55 29.75 -20.45 28.5 -19.2 28.45 -19.0 29.45 -19.75 29.8 -20.0 31.4 -21.15 31.5 -21.15 31.55 -21.1 31.6 -21.0 31.6 -20.95 31.0 -20.05 30.6 -19.55 30.55 -19.5 30.65 -19.5 30.65 -19.45 30.7 -19.4 30.7 -19.35 30.65 -19.1 30.8 -19.2 31.05 -19.2 31.1 -19.25 32.15 -19.8 32.25 -19.8 32.3 -19.75 32.35 -19.65 32.3 -19.55 31.75 -18.95 Q31.65 -18.45 30.3 -17.5 L30.3 -17.45 29.6 -17.0 29.2 -16.65 28.5 -16.15 28.4 -16.1 28.05 -16.15 27.95 -16.15 27.9 -16.25 27.9 -16.35 28.0 -16.5 Q28.0 -16.55 28.05 -16.6 28.1 -16.8 28.65 -17.2 L28.4 -17.2 Q28.35 -17.25 28.35 -17.3 28.3 -17.4 28.3 -17.65 28.25 -17.7 28.4 -17.9 L28.2 -17.8 28.2 -17.75 28.15 -17.75 27.65 -17.65 27.5 -17.65 27.45 -17.7 27.35 -17.75 Q27.35 -17.8 27.35 -17.85 L27.3 -17.85 Q27.25 -17.85 27.2 -17.9 L27.2 -17.95 27.1 -17.85 27.0 -17.8 26.8 -17.8 26.55 -17.6 26.45 -17.6 26.2 -17.65 26.15 -17.7 26.1 -17.7 Q26.1 -17.75 26.1 -17.8 L26.15 -17.9 26.55 -18.25 26.7 -18.45 26.75 -18.5 26.9 -18.55 27.05 -18.65 27.1 -18.75 27.25 -18.9 27.35 -18.95 M28.4 -18.95 L28.35 -18.95 28.2 -18.9 28.3 -18.8 28.4 -18.9 28.45 -19.0 28.4 -18.95 M28.25 -15.3 Q30.35 -16.75 31.7 -17.45 32.2 -17.7 32.6 -17.85 L32.7 -17.85 32.8 -17.8 32.8 -17.7 32.75 -17.6 Q32.3 -17.25 31.85 -16.85 31.3 -16.45 30.65 -16.05 29.4 -15.25 28.45 -14.95 L28.4 -14.95 28.35 -15.0 28.25 -15.05 28.2 -15.15 28.2 -15.2 28.25 -15.3 M27.3 -4.1 L27.35 -4.2 27.55 -4.3 30.2 -4.35 30.8 -4.55 32.35 -4.55 Q32.85 -4.5 32.95 -4.4 L35.4 -4.3 35.5 -4.25 35.55 -4.15 35.5 -4.05 35.45 -4.0 35.45 -3.95 36.25 -4.05 36.35 -4.05 36.4 -4.0 36.4 -3.9 36.45 -3.95 36.55 -3.95 37.6 -3.85 37.9 -3.9 38.5 -3.9 38.55 -3.95 38.85 -3.95 39.3 -4.0 39.8 -4.0 40.65 -4.05 40.75 -3.95 40.75 -3.85 40.7 -3.75 Q40.2 -3.5 39.2 -3.3 L39.2 -3.25 39.1 -3.2 38.25 -3.05 Q38.65 -2.95 38.65 -2.85 L38.7 -2.8 38.7 -2.75 38.65 -2.7 38.55 -2.65 36.05 -2.3 31.55 -1.8 32.15 -1.85 32.2 -1.85 33.35 -1.8 34.05 -1.9 34.1 -1.9 34.2 -1.85 Q35.15 -1.8 35.2 -1.65 L35.25 -1.6 35.25 -1.55 35.2 -1.5 35.1 -1.45 32.85 -1.3 32.7 -1.25 32.65 -1.25 32.6 -1.2 31.95 -1.1 31.5 -1.0 31.45 -1.0 31.3 -0.9 31.25 -0.9 31.85 -0.95 31.9 -0.95 32.55 -0.9 32.6 -0.9 33.1 -0.95 33.2 -0.9 33.25 -0.85 33.3 -0.7 33.25 -0.6 33.1 -0.4 33.05 -0.35 33.0 -0.35 32.65 -0.3 33.25 -0.25 33.55 -0.2 33.6 -0.25 33.7 -0.25 34.05 -0.2 34.1 -0.15 34.35 0.05 Q34.5 0.15 34.8 0.2 L34.9 0.25 34.95 0.3 34.9 0.4 34.85 0.45 34.8 0.45 34.5 0.55 34.4 0.6 34.35 0.65 34.3 0.65 34.3 0.7 34.35 0.8 34.2 0.95 32.75 0.95 31.45 1.0 30.25 0.95 29.15 0.95 29.35 1.0 31.4 1.0 Q32.2 1.0 32.25 1.2 L32.2 1.25 32.1 1.45 32.0 1.55 31.9 1.6 31.3 1.65 30.45 1.6 30.45 1.7 30.4 1.75 Q30.4 1.8 30.05 1.8 29.95 1.9 29.65 1.9 L28.6 1.85 28.05 1.8 27.7 1.8 27.7 1.85 27.55 1.85 27.1 1.8 25.95 1.8 Q25.9 1.8 25.85 1.75 25.8 1.7 25.8 1.65 L25.85 1.6 24.45 1.55 23.95 1.55 23.15 1.5 22.55 1.45 22.45 1.4 Q22.35 1.35 22.35 1.25 L22.4 1.2 22.4 1.05 22.45 1.05 Q22.45 1.0 22.5 1.0 L22.85 1.0 22.85 0.95 22.8 0.9 Q22.8 0.8 22.9 0.75 22.95 0.7 23.0 0.7 L22.95 0.7 23.05 0.65 25.25 0.85 26.8 0.8 26.7 0.75 Q26.65 0.75 26.6 0.7 L26.55 0.65 Q26.55 0.5 26.65 0.45 L26.7 0.4 Q26.75 0.35 26.8 0.35 L28.15 0.4 28.15 0.35 Q28.1 0.2 28.2 0.15 28.25 0.1 28.25 0.05 28.3 0.0 28.35 0.0 L26.75 -0.1 25.2 -0.25 25.15 -0.3 25.0 -0.35 24.9 -0.4 Q23.7 -0.45 23.7 -0.65 23.7 -0.7 23.75 -0.75 23.8 -0.8 23.85 -0.8 25.9 -0.8 27.05 -1.1 L27.3 -1.15 27.3 -1.4 26.8 -1.4 Q26.25 -1.45 26.25 -1.65 L26.25 -1.75 26.35 -1.8 26.3 -1.8 Q27.15 -2.15 28.1 -2.2 L28.15 -2.25 28.6 -2.25 29.25 -2.3 29.35 -2.25 Q30.05 -2.3 30.5 -2.45 L30.55 -2.45 Q31.1 -2.45 31.75 -2.45 L32.55 -2.6 31.5 -2.6 29.5 -2.55 29.4 -2.55 29.4 -2.6 Q28.9 -2.75 28.95 -2.9 L29.0 -3.0 29.1 -3.05 Q31.15 -3.1 33.35 -3.6 L35.15 -3.9 34.3 -3.9 34.25 -3.85 Q33.6 -3.65 32.7 -3.6 L30.9 -3.35 29.7 -3.25 28.55 -3.15 28.35 -3.05 28.1 -3.05 28.0 -3.1 27.75 -3.1 Q27.7 -3.1 27.65 -3.15 L27.4 -3.2 Q26.55 -3.25 26.55 -3.45 L26.55 -3.5 26.6 -3.6 26.85 -3.75 26.95 -3.8 27.15 -3.8 27.25 -3.9 27.3 -3.9 27.4 -3.95 Q27.3 -4.0 27.3 -4.05 L27.3 -4.1 M30.8 -1.75 L30.8 -1.75 M44.85 -13.7 L44.85 -13.8 Q44.85 -13.85 44.9 -13.9 45.2 -14.05 46.4 -14.4 47.5 -14.75 47.65 -14.85 L47.75 -14.9 Q48.2 -14.85 48.25 -14.7 L48.25 -14.55 48.2 -14.5 Q48.0 -14.4 46.65 -14.0 45.25 -13.6 45.0 -13.6 L44.9 -13.65 44.85 -13.7 M46.25 -13.3 L46.3 -13.3 50.1 -14.45 50.15 -14.45 Q51.1 -14.4 51.1 -14.15 L51.05 -14.05 50.95 -14.0 Q50.45 -14.0 49.45 -13.75 L49.15 -13.65 Q49.5 -13.65 49.85 -13.4 L49.9 -13.35 49.9 -13.25 49.85 -13.15 48.45 -12.6 49.2 -12.8 49.25 -12.8 Q49.55 -12.75 49.65 -12.7 L51.5 -13.05 51.6 -13.05 51.65 -13.0 51.7 -12.9 Q51.7 -12.75 51.45 -12.6 L51.4 -12.55 50.15 -12.2 51.45 -12.35 51.55 -12.3 51.6 -12.25 51.6 -12.15 51.5 -12.05 48.75 -11.5 Q48.45 -11.35 48.05 -11.35 L47.75 -11.3 47.65 -11.25 Q47.9 -11.2 47.95 -11.1 L47.95 -10.95 Q48.4 -10.9 48.4 -10.8 L48.4 -10.7 48.35 -10.6 Q47.8 -10.35 47.1 -10.15 49.55 -10.65 50.55 -10.6 50.6 -10.6 50.65 -10.55 L50.65 -10.35 50.55 -10.3 47.75 -9.75 Q48.05 -9.7 48.1 -9.6 L48.1 -9.45 48.0 -9.4 44.45 -8.8 42.95 -8.65 40.6 -8.4 40.5 -8.4 Q40.45 -8.45 40.45 -8.5 L40.45 -8.6 Q40.45 -8.65 40.5 -8.65 L40.85 -8.8 Q40.9 -8.85 40.95 -8.85 L41.0 -8.85 41.65 -9.0 Q42.2 -9.35 43.05 -9.45 L44.6 -9.6 44.65 -9.6 45.5 -9.8 45.3 -9.85 Q45.15 -9.9 45.1 -9.95 L45.05 -10.0 44.25 -9.9 41.95 -9.35 41.9 -9.35 41.55 -9.4 Q41.5 -9.4 41.45 -9.45 L41.4 -9.55 41.4 -9.6 41.45 -9.65 41.45 -9.7 41.6 -9.85 Q41.65 -9.9 41.7 -9.9 L44.3 -10.5 44.25 -10.6 Q44.25 -10.65 44.3 -10.7 L44.5 -10.85 44.35 -10.85 44.0 -10.75 42.4 -10.35 Q41.5 -10.1 40.9 -9.85 L40.85 -9.8 39.5 -9.8 39.25 -9.85 39.2 -9.9 Q39.15 -9.95 39.15 -10.0 L39.2 -10.1 Q39.55 -10.4 41.05 -11.1 L41.25 -11.2 41.25 -11.5 41.3 -11.6 41.35 -11.65 41.9 -11.75 Q42.4 -12.05 45.9 -13.15 L46.0 -13.2 Q46.1 -13.25 46.2 -13.3 L46.25 -13.3 M41.45 -11.1 L41.35 -11.1 41.4 -11.05 41.45 -11.1 M40.85 -7.9 L41.35 -8.05 41.4 -8.05 42.5 -8.1 Q46.2 -8.75 51.4 -9.25 L51.5 -9.2 51.55 -9.15 51.55 -9.05 51.5 -8.95 Q51.15 -8.8 50.6 -8.65 L52.15 -8.7 52.2 -8.7 52.25 -8.6 52.25 -8.55 Q52.2 -8.35 52.05 -8.15 L51.95 -8.15 51.5 -8.05 Q50.45 -7.6 48.0 -7.35 L45.85 -7.15 45.85 -7.05 45.75 -7.0 Q45.35 -6.85 44.1 -6.65 L42.05 -6.5 41.0 -6.5 Q40.05 -6.55 40.0 -6.75 L40.05 -6.85 40.1 -6.9 41.15 -7.2 41.1 -7.2 40.0 -7.3 Q39.95 -7.3 39.95 -7.35 L39.8 -7.5 39.75 -7.6 Q39.75 -7.65 39.8 -7.7 39.8 -7.75 39.85 -7.75 L40.45 -7.9 40.85 -7.9 M45.95 -9.9 L46.0 -9.95 45.55 -9.85 45.95 -9.9 M47.1 -11.15 L47.25 -11.15 47.3 -11.2 47.1 -11.15 M50.4 -8.6 L50.35 -8.65 50.4 -8.65 50.4 -8.7 50.35 -8.75 50.3 -8.6 50.4 -8.6 M30.0 1.6 L30.45 1.6 Q30.4 1.55 30.35 1.55 L30.0 1.5 30.0 1.6 M27.3 2.5 Q27.55 2.55 27.6 2.65 L27.6 2.7 27.55 2.8 27.5 2.85 27.15 2.95 27.05 2.95 25.0 2.65 23.4 2.45 22.35 2.4 Q22.3 2.4 22.3 2.35 L22.3 2.4 22.25 2.3 22.2 2.25 22.25 2.2 22.25 2.15 22.1 2.05 22.05 1.95 22.05 1.9 22.1 1.85 22.05 1.8 Q22.05 1.7 22.15 1.65 L22.2 1.6 22.3 1.55 23.85 1.65 23.9 1.65 24.45 1.75 24.5 1.8 24.55 1.8 Q24.65 1.9 24.55 2.05 L24.7 2.05 27.1 2.4 27.15 2.4 27.3 2.5 M25.95 1.5 L25.95 1.45 25.9 1.5 25.95 1.5 M-48.55 -10.85 L-48.55 -10.95 -48.45 -10.9 -48.55 -10.9 -48.55 -10.85 M-51.1 -11.65 L-51.1 -11.7 -51.05 -11.7 -51.1 -11.65 M-51.15 -11.5 L-51.2 -11.5 -51.2 -11.55 -51.15 -11.5 M-50.2 -10.95 L-50.2 -10.85 -50.25 -10.85 -50.3 -10.9 -50.25 -10.95 -50.2 -10.95 M-30.9 -19.5 Q-30.3 -19.0 -28.5 -17.55 -26.95 -16.3 -26.1 -15.5 L-26.05 -15.4 Q-26.0 -15.35 -26.05 -15.3 -26.1 -15.3 -26.15 -15.25 L-26.25 -15.25 Q-26.65 -15.45 -27.1 -15.75 L-27.1 -15.7 Q-27.2 -15.6 -27.35 -15.55 L-27.4 -15.55 -27.5 -15.6 -27.65 -15.8 Q-28.2 -15.95 -29.3 -16.45 L-29.35 -16.45 -28.05 -15.6 -28.0 -15.5 -28.0 -15.4 -28.15 -15.25 -28.25 -15.25 Q-29.5 -15.85 -30.65 -16.7 L-30.65 -16.65 -30.1 -16.2 -30.05 -16.2 -29.6 -15.9 -28.95 -15.5 -28.9 -15.4 -28.0 -14.8 -27.95 -14.75 -27.95 -14.65 -28.0 -14.55 -28.1 -14.55 -28.7 -14.75 -28.25 -14.45 Q-27.35 -13.9 -26.8 -13.5 L-26.45 -13.35 Q-26.4 -13.35 -26.35 -13.3 L-26.35 -13.1 -26.3 -13.1 -26.05 -12.85 -24.0 -11.35 -23.95 -11.25 -23.95 -11.15 -24.0 -11.1 Q-24.05 -11.1 -24.1 -11.1 -24.6 -11.3 -25.25 -11.65 L-25.35 -11.65 -25.4 -11.7 -26.25 -12.15 -26.4 -12.15 -27.05 -12.6 -27.1 -12.55 -27.2 -12.55 Q-27.55 -12.8 -27.95 -13.0 -29.0 -13.5 -30.55 -14.55 L-30.5 -14.5 -30.5 -14.4 -30.55 -14.3 -30.65 -14.2 -30.7 -14.2 -30.7 -14.15 -30.65 -14.05 -30.7 -14.0 -30.8 -13.95 Q-31.05 -13.9 -32.2 -14.5 -33.5 -15.1 -33.65 -15.55 -33.7 -15.65 -33.55 -15.75 L-33.45 -15.8 -33.35 -15.8 -33.0 -15.6 -33.0 -15.65 -33.05 -15.75 -33.0 -15.85 -32.9 -15.9 -32.8 -15.9 -32.65 -15.75 -32.65 -15.8 -32.6 -15.85 -32.85 -16.05 -33.0 -16.15 -33.1 -16.2 Q-33.85 -16.6 -34.45 -16.85 L-34.55 -16.95 -34.55 -17.0 -34.6 -17.15 -34.6 -17.2 -34.55 -17.35 -34.5 -17.45 -34.4 -17.45 -33.55 -17.2 -33.6 -17.25 -33.65 -17.4 -33.65 -17.45 -33.6 -17.55 -33.35 -17.55 Q-33.65 -17.8 -33.65 -17.85 -33.65 -18.15 -33.55 -18.15 L-33.5 -18.2 -33.4 -18.15 -33.35 -18.15 -33.35 -18.05 -33.3 -18.0 Q-33.1 -17.95 -32.8 -17.8 L-33.85 -18.6 -33.95 -18.7 -34.3 -18.85 -34.4 -18.95 -34.4 -19.05 Q-36.2 -20.5 -36.25 -20.65 L-36.25 -20.75 -36.85 -21.25 -37.85 -22.1 -37.9 -22.15 -37.9 -22.25 -37.8 -22.35 -37.7 -22.4 -37.55 -22.4 -37.05 -22.05 -36.9 -22.05 -36.2 -21.55 -36.2 -21.6 -36.15 -21.7 -36.1 -21.75 -36.0 -21.75 Q-34.45 -20.8 -32.6 -19.4 -32.6 -19.65 -32.5 -19.65 -32.4 -19.7 -32.35 -19.65 L-32.25 -19.5 -31.8 -19.15 -31.55 -18.9 -31.5 -19.15 -32.15 -19.7 -32.2 -19.8 -32.15 -19.9 -32.1 -19.95 -32.0 -19.95 -31.2 -19.45 -31.15 -19.45 -31.05 -19.5 -30.9 -19.5 M-31.35 -18.65 L-31.4 -18.7 -31.45 -18.65 -31.35 -18.6 -31.35 -18.65 M-32.05 -17.35 L-32.1 -17.35 -32.1 -17.3 -32.05 -17.25 -32.05 -17.3 -32.0 -17.3 -32.05 -17.35 M-32.15 -17.4 L-32.3 -17.5 -32.8 -17.8 -32.3 -17.45 -32.15 -17.35 -32.15 -17.4 M-34.1 -15.1 L-34.0 -15.1 -33.5 -15.0 Q-33.15 -14.9 -33.15 -14.6 L-31.15 -13.65 Q-31.0 -13.55 -30.4 -13.2 L-29.6 -12.75 -29.5 -12.7 -29.5 -12.6 -29.45 -12.55 -29.5 -12.45 -29.55 -12.4 -29.75 -12.35 -29.35 -12.1 -29.0 -11.9 -27.05 -10.95 -26.95 -10.85 -26.95 -10.8 -25.05 -9.75 -25.0 -9.65 Q-25.0 -9.6 -25.0 -9.55 L-25.05 -9.5 -25.1 -9.4 -25.2 -9.4 Q-26.4 -9.75 -27.9 -10.5 L-27.95 -10.45 Q-28.0 -10.45 -28.05 -10.45 -29.5 -11.05 -31.05 -12.15 L-32.2 -12.75 Q-33.1 -13.2 -33.8 -13.6 L-33.85 -13.6 Q-34.7 -14.05 -34.8 -14.05 -34.9 -14.05 -35.65 -14.65 L-35.8 -14.75 Q-37.05 -15.3 -37.3 -16.05 L-37.25 -16.15 -37.25 -16.1 -37.2 -16.2 -37.1 -16.2 Q-36.95 -16.15 -35.6 -15.5 L-34.45 -14.9 -34.4 -14.95 -34.25 -14.95 -34.15 -15.0 -34.15 -15.05 -34.1 -15.1 M-30.55 -17.25 L-30.55 -17.2 -30.5 -17.2 -30.5 -17.25 -30.55 -17.25 M-30.65 -14.75 L-30.65 -14.7 -30.75 -14.7 -30.65 -14.65 -30.55 -14.55 -30.6 -14.7 -30.65 -14.75 M-26.1 -17.05 Q-26.05 -17.15 -25.9 -17.15 -25.6 -17.15 -25.0 -16.55 -24.35 -16.4 -23.5 -15.65 -22.2 -14.5 -21.8 -14.3 L-21.75 -14.25 -21.7 -14.15 -21.7 -14.05 Q-21.7 -14.0 -21.75 -13.95 -21.8 -13.9 -21.85 -13.9 -22.0 -13.9 -22.55 -14.3 L-22.7 -14.4 -23.35 -14.75 -23.4 -14.7 Q-23.45 -14.7 -23.5 -14.7 L-23.9 -14.85 -24.0 -14.85 -24.05 -14.8 Q-24.15 -14.8 -24.55 -15.1 -25.1 -15.3 -25.55 -15.7 L-26.85 -16.8 -26.9 -16.85 -26.9 -16.9 -27.35 -17.25 -27.35 -17.3 -27.4 -17.3 -27.4 -17.4 -27.35 -17.5 -27.3 -17.55 -27.2 -17.6 -27.1 -17.55 -27.1 -17.45 Q-27.05 -17.4 -27.0 -17.4 -26.65 -17.35 -26.5 -17.25 -26.25 -17.1 -26.1 -17.05 M-35.55 -11.35 L-34.45 -10.9 -34.15 -10.85 -34.1 -10.85 Q-32.95 -10.3 -32.1 -10.0 -31.3 -9.7 -30.65 -9.55 L-30.6 -9.55 Q-30.55 -9.55 -30.55 -9.5 L-30.5 -9.4 -30.5 -9.35 -30.55 -9.3 Q-30.6 -9.25 -30.65 -9.25 -31.5 -9.35 -32.45 -9.55 L-32.55 -9.55 -32.75 -9.65 Q-33.9 -9.9 -35.65 -10.45 -35.8 -10.5 -36.1 -10.65 L-36.5 -10.8 Q-38.2 -11.25 -39.0 -11.65 L-39.0 -11.7 Q-39.85 -12.0 -40.8 -12.35 L-40.85 -12.4 -40.9 -12.5 -40.85 -12.55 Q-40.8 -12.6 -40.75 -12.6 L-40.75 -12.6 -40.75 -12.65 -40.7 -12.7 -40.6 -12.7 -38.65 -12.2 -38.65 -12.3 -38.6 -12.4 -38.5 -12.45 Q-38.1 -12.45 -37.6 -12.3 -37.25 -12.15 -36.95 -11.95 L-35.55 -11.35 M-39.15 -8.75 L-39.1 -8.75 Q-38.7 -8.6 -37.9 -8.45 L-39.2 -8.7 Q-40.1 -8.95 -41.55 -9.45 L-40.65 -9.15 -39.2 -8.75 -39.15 -8.75 M-40.25 -7.9 L-40.25 -7.85 -40.5 -7.95 -40.6 -7.95 -40.9 -8.05 -41.15 -8.05 -41.15 -8.2 -40.2 -8.0 -40.25 -7.9 M-36.2 -8.1 L-36.2 -8.2 -36.15 -8.25 -36.1 -8.2 -36.1 -8.15 -36.15 -8.1 -36.2 -8.1 M-36.7 -7.5 L-36.65 -7.5 -36.65 -7.4 -36.7 -7.4 -36.9 -7.45 -36.85 -7.6 -36.7 -7.5 M-36.1 -8.05 L-36.0 -8.05 -35.55 -7.95 -34.7 -7.8 -34.75 -7.65 -35.25 -7.8 -35.55 -7.9 -35.6 -7.9 -36.0 -8.05 -36.1 -8.05 M-43.5 -10.4 L-43.5 -10.35 -43.6 -10.35 -43.65 -10.4 -43.6 -10.45 -43.6 -10.5 -43.55 -10.5 -43.5 -10.45 -43.5 -10.4 M-44.4 -8.95 L-45.05 -9.05 -45.15 -9.1 -45.1 -9.1 -45.1 -9.15 -45.0 -9.2 -44.95 -9.2 -44.35 -9.0 -43.05 -8.65 -44.2 -8.95 -44.4 -8.95 M-45.15 -8.9 L-45.2 -9.0 -45.1 -9.0 -45.0 -8.95 -45.0 -8.9 -45.05 -8.9 -45.05 -8.8 -45.15 -8.9 M-40.9 -10.35 L-40.85 -10.35 -40.9 -10.3 -40.9 -10.35 M-41.05 -10.05 L-41.05 -10.1 -40.95 -10.1 -41.0 -10.0 -41.05 -10.05 M-42.9 -9.5 L-42.7 -9.5 -42.7 -9.35 -42.8 -9.4 -42.9 -9.5 M-42.0 -8.45 L-41.9 -8.45 -41.6 -8.35 -41.65 -8.2 -41.95 -8.35 -42.05 -8.35 -42.1 -8.4 -42.05 -8.4 -42.05 -8.45 -42.0 -8.45 M-42.1 -8.35 L-42.05 -8.35 -42.1 -8.25 -42.1 -8.35 M-40.9 -7.35 L-40.85 -7.35 -40.8 -7.3 -40.8 -7.2 -40.9 -7.2 -40.95 -7.25 -40.9 -7.3 -40.9 -7.35 M-41.1 -6.3 L-41.15 -6.4 -41.15 -6.6 -41.1 -6.7 Q-41.05 -6.75 -41.0 -6.75 L-39.6 -6.45 -38.3 -6.15 -38.2 -6.2 -37.8 -6.15 -36.4 -5.85 -35.8 -5.8 Q-35.5 -5.7 -35.4 -5.65 L-33.1 -5.2 Q-32.65 -5.1 -32.6 -4.95 L-32.6 -4.8 Q-32.65 -4.8 -32.7 -4.75 L-32.65 -4.75 -33.0 -4.7 -33.05 -4.7 -33.1 -4.65 Q-33.15 -4.6 -33.2 -4.6 -34.55 -4.65 -35.8 -4.85 L-36.2 -4.95 -37.3 -5.25 -39.0 -5.75 Q-40.05 -6.05 -41.05 -6.25 L-41.1 -6.3 M-35.1 -7.05 L-35.0 -7.0 Q-35.05 -7.0 -35.1 -7.05 M-35.65 -6.7 L-35.65 -6.65 -35.75 -6.65 -35.65 -6.7 M-36.05 -6.6 L-37.05 -6.8 -37.05 -6.9 -36.2 -6.7 -36.15 -6.7 Q-36.1 -6.65 -36.1 -6.6 L-36.05 -6.6 M-36.1 -6.5 L-36.1 -6.45 -36.15 -6.55 -36.05 -6.55 -36.05 -6.5 -36.1 -6.5 M-38.85 -6.55 L-38.85 -6.5 -38.9 -6.45 -38.95 -6.45 -38.9 -6.6 -38.85 -6.55 M-36.75 -0.2 L-36.65 -0.2 -34.95 -0.35 -34.15 -0.35 -32.3 -0.3 -32.8 -0.4 Q-32.85 -0.4 -32.85 -0.45 L-32.9 -0.45 -32.9 -0.55 -32.85 -0.65 -31.25 -0.65 -29.1 -0.55 -29.05 -0.55 Q-28.6 -0.45 -28.55 -0.3 L-28.55 -0.25 Q-28.6 -0.2 -28.6 -0.15 L-28.65 -0.1 -28.7 -0.1 -28.85 0.05 -28.5 0.1 -26.9 0.15 -26.8 0.2 -26.8 0.35 -26.85 0.45 -26.9 0.45 -26.95 0.5 -28.9 0.6 -30.0 0.65 -31.95 0.85 -33.45 0.8 Q-34.85 0.75 -34.9 0.55 L-34.9 0.5 -34.85 0.45 -35.15 0.45 Q-35.2 0.45 -35.25 0.4 L-35.3 0.3 -35.3 0.25 Q-36.8 0.15 -36.8 -0.1 L-36.75 -0.2 M-33.9 -8.3 L-33.65 -8.2 -33.35 -8.15 -33.25 -8.25 -33.25 -8.15 -32.8 -8.1 -32.45 -8.05 Q-32.05 -7.95 -31.95 -7.85 L-31.85 -7.8 -31.95 -7.8 -32.8 -8.0 -33.25 -8.15 -33.25 -8.1 -33.3 -8.1 -33.35 -8.05 -33.4 -8.05 -33.9 -8.15 -33.9 -8.3 M-34.65 -8.7 L-34.55 -8.7 -34.45 -8.65 -34.45 -8.6 -34.5 -8.6 -34.5 -8.55 -34.6 -8.6 -34.65 -8.7 M-33.6 -7.4 L-33.6 -7.5 Q-33.2 -7.4 -32.95 -7.3 -32.55 -7.25 -32.4 -7.15 L-32.3 -7.05 -32.45 -7.05 -33.6 -7.35 -33.6 -7.4 M-32.0 -7.6 L-32.05 -7.55 -32.1 -7.55 -32.25 -7.6 -32.25 -7.7 -32.05 -7.65 -31.95 -7.6 -32.0 -7.6 M-31.45 -7.1 L-31.45 -7.0 -31.55 -7.05 -31.5 -7.05 -31.45 -7.1 M-34.65 -6.1 L-34.65 -6.1 M-20.15 -17.75 L-19.7 -17.3 -19.4 -17.05 -19.4 -17.2 -19.3 -17.25 -19.2 -17.25 Q-18.8 -17.05 -18.25 -16.45 L-17.9 -16.25 -17.9 -16.4 -17.8 -16.5 -17.7 -16.55 -17.6 -16.5 -17.4 -16.35 -17.3 -16.35 -16.9 -16.0 Q-16.15 -15.45 -16.05 -15.25 L-16.0 -15.2 -16.05 -15.15 -16.0 -15.1 -16.0 -15.0 -16.05 -14.9 -16.1 -14.85 Q-16.15 -14.8 -16.2 -14.8 L-16.3 -14.85 -17.05 -15.35 -17.05 -15.3 -17.2 -15.2 -17.05 -15.1 -17.05 -15.0 Q-17.0 -14.95 -17.05 -14.9 L-17.1 -14.85 -17.2 -14.8 -17.25 -14.8 Q-17.35 -14.75 -17.65 -14.8 -17.7 -14.8 -17.75 -14.85 L-17.9 -15.05 -18.25 -15.15 -18.25 -14.95 -18.15 -14.8 -18.1 -14.75 -18.15 -14.65 -18.15 -14.6 Q-18.2 -14.55 -18.25 -14.5 L-18.3 -14.5 Q-18.45 -14.5 -18.9 -14.9 L-19.05 -15.05 -19.1 -15.05 -19.15 -14.95 -19.2 -14.9 -19.3 -14.9 Q-19.45 -14.9 -19.75 -15.1 L-19.75 -14.95 -19.8 -14.75 -19.9 -14.65 -20.0 -14.7 Q-20.15 -14.8 -20.45 -15.05 L-20.5 -15.1 Q-20.95 -15.5 -20.9 -15.65 L-20.9 -15.9 Q-20.85 -16.0 -20.8 -16.0 L-20.95 -16.15 -20.95 -16.3 -20.9 -16.5 -20.85 -16.55 -20.75 -16.55 Q-20.6 -16.55 -20.15 -16.3 -20.0 -16.45 -19.7 -16.45 L-20.5 -17.45 -20.5 -17.6 Q-20.4 -17.75 -20.2 -17.75 L-20.15 -17.75 M-20.7 -15.95 L-20.6 -15.75 -20.5 -15.85 -20.6 -15.9 -20.6 -15.95 -20.65 -15.95 -20.65 -15.9 -20.6 -15.9 -20.7 -15.95 -20.65 -15.95 Q-20.7 -16.05 -20.75 -16.0 L-20.8 -16.0 -20.75 -15.95 -20.7 -15.95 M-15.95 -16.35 Q-15.65 -16.35 -15.1 -15.7 L-14.35 -14.75 Q-14.35 -14.7 -14.35 -14.65 -14.3 -14.6 -14.35 -14.5 -14.45 -14.4 -14.6 -14.35 L-14.7 -14.35 -14.7 -14.4 -14.8 -14.45 -14.85 -14.45 Q-14.85 -14.4 -14.9 -14.4 L-15.0 -14.35 Q-15.05 -14.35 -15.05 -14.4 L-15.85 -15.2 Q-16.45 -15.85 -16.4 -16.2 L-16.4 -16.3 -16.3 -16.35 -16.25 -16.35 -16.1 -16.3 -16.05 -16.35 -15.95 -16.35 M-14.65 4.5 Q-15.95 4.95 -16.85 5.35 L-16.9 5.35 -17.35 5.45 -18.3 5.65 Q-18.5 5.75 -18.85 5.85 L-19.15 6.0 -19.2 6.05 -19.35 6.0 -19.8 6.1 -19.75 6.1 -19.9 6.15 -19.95 6.2 -20.0 6.2 Q-20.6 6.4 -21.25 6.5 L-21.5 6.6 Q-23.4 7.2 -24.4 7.3 L-24.55 7.35 -24.6 7.4 -25.0 7.35 -25.1 7.3 -25.1 7.25 -25.2 7.25 Q-25.25 7.15 -25.3 7.0 L-25.3 6.95 -25.25 6.9 Q-25.15 6.75 -24.8 6.45 L-24.7 6.4 -24.65 6.15 -24.65 6.1 -24.6 6.1 -24.55 6.05 -24.4 6.0 -24.5 5.9 -24.5 5.75 -25.55 5.75 -25.6 5.8 -25.65 5.8 -26.0 5.7 -26.2 5.7 -26.3 5.6 -26.3 5.5 -26.2 5.4 -26.15 5.4 -26.1 5.35 -25.55 5.05 -26.55 5.15 -27.2 5.1 -27.35 5.05 -27.45 4.9 -28.5 4.95 -29.5 4.95 -29.65 5.0 -29.7 5.0 -30.05 4.95 -30.15 4.9 -30.2 4.8 -30.2 4.75 Q-30.1 4.55 -28.65 4.15 L-30.4 4.3 -30.45 4.3 Q-30.8 4.2 -30.85 4.05 L-30.85 3.95 -30.8 3.95 -30.75 3.85 -30.7 3.85 -33.35 3.9 -33.45 3.9 -33.5 3.85 -33.5 3.8 -35.35 3.95 -35.9 3.9 -36.0 3.85 -36.05 3.8 -36.05 3.7 -36.0 3.65 -36.25 3.65 -36.35 3.6 -36.4 3.5 -36.35 3.4 Q-36.35 3.35 -36.25 3.35 L-35.95 3.3 -36.1 3.1 -36.05 3.05 -36.0 2.95 Q-35.85 2.85 -34.8 2.65 -33.7 2.45 -33.0 2.4 L-30.6 2.3 -29.9 2.1 -29.8 2.1 -29.55 2.15 Q-29.45 2.15 -29.35 2.2 L-28.7 2.15 -26.7 2.2 Q-26.65 2.2 -26.6 2.2 L-26.55 2.3 -26.4 2.25 -23.2 2.0 -23.15 2.0 -23.1 1.95 -22.75 2.0 Q-22.3 2.05 -22.3 2.25 L-22.3 2.35 -22.4 2.45 Q-22.45 2.45 -22.5 2.5 L-24.4 2.65 -24.45 2.7 -24.55 2.7 -24.6 2.75 -25.7 2.75 -26.35 2.8 -28.45 3.0 -28.45 3.05 -26.45 3.0 -26.35 3.1 -26.2 3.1 -25.75 3.05 -22.85 2.85 -22.75 2.9 -22.75 3.05 -22.8 3.15 Q-22.8 3.2 -22.75 3.25 L-22.75 3.4 -22.85 3.45 -25.1 3.85 -25.6 3.95 -26.05 4.1 -26.05 4.2 -25.6 4.2 -25.25 4.1 -25.15 4.1 -24.8 4.15 -23.45 4.15 Q-22.45 3.9 -22.25 3.95 L-20.7 4.0 -20.6 4.0 -20.55 4.1 -20.5 4.15 -20.55 4.25 Q-20.95 4.55 -22.45 5.0 L-19.85 5.0 -19.7 4.95 -19.65 4.95 -19.4 5.0 -18.8 5.05 Q-18.75 4.95 -18.7 4.95 -18.65 4.95 -18.6 4.95 -18.55 5.0 -18.5 5.05 L-18.45 5.1 -16.65 4.65 -14.75 4.2 -14.65 4.25 -14.6 4.3 Q-14.55 4.35 -14.6 4.4 L-14.65 4.5 M-29.8 0.05 L-29.1 0.05 -29.8 0.0 -29.8 0.05 M-30.3 3.05 L-30.25 3.0 -30.3 2.95 -30.3 3.05" fill="#ffffff" fill-opacity="0.5019608" fill-rule="evenodd" stroke="none"/>
      <path d="M22.5 -25.05 Q22.25 -24.6 21.85 -24.0 L22.2 -24.25 22.35 -24.35 22.35 -24.25 Q22.45 -24.25 22.95 -24.55 23.45 -24.9 23.55 -25.05 L23.6 -25.05 Q23.95 -25.45 24.15 -25.5 L23.95 -25.1 24.0 -24.95 24.65 -25.4 24.8 -25.55 25.05 -25.7 Q25.05 -25.8 25.05 -25.65 25.3 -25.85 25.35 -25.85 L24.9 -25.25 25.05 -25.35 25.0 -25.1 25.1 -25.05 25.6 -25.55 25.8 -25.5 25.95 -25.65 Q26.35 -25.95 26.65 -25.9 26.85 -26.1 27.0 -26.1 26.85 -25.85 26.45 -25.35 L26.25 -25.15 26.25 -25.1 26.05 -24.9 Q26.7 -25.3 26.9 -25.4 27.35 -25.8 27.45 -25.8 L27.25 -25.6 Q27.35 -25.65 27.45 -25.65 L27.1 -25.35 27.2 -25.3 27.7 -25.6 27.9 -25.8 28.1 -25.9 29.05 -26.6 29.3 -26.5 Q29.35 -26.45 29.4 -26.25 L29.65 -26.4 Q29.75 -26.35 29.8 -26.35 L29.85 -26.35 30.1 -26.45 30.15 -26.35 30.55 -26.7 Q30.3 -26.15 29.25 -25.15 L29.25 -25.1 Q29.2 -24.8 28.85 -24.55 L28.7 -24.45 28.7 -24.4 28.65 -24.15 Q28.8 -24.3 28.8 -24.1 28.8 -24.05 28.5 -23.85 L28.2 -23.55 28.2 -23.5 Q28.45 -23.6 28.8 -23.9 L29.35 -24.35 29.7 -24.3 Q29.65 -24.2 29.35 -23.9 29.0 -23.6 28.95 -23.4 L28.95 -23.35 29.1 -23.4 29.8 -23.9 29.9 -24.0 Q30.0 -24.05 30.0 -23.8 30.0 -23.65 29.15 -22.95 L28.9 -22.75 28.75 -22.6 28.35 -22.3 27.9 -22.3 Q27.9 -22.4 28.0 -22.7 L28.2 -23.2 28.2 -23.25 27.75 -22.85 27.15 -22.45 27.1 -22.5 Q27.0 -22.55 27.0 -22.75 27.0 -22.85 27.3 -23.2 L27.35 -23.3 27.15 -23.0 27.05 -23.0 Q27.0 -23.05 27.0 -23.1 L27.15 -23.35 25.8 -22.15 25.35 -22.15 Q25.6 -22.5 26.1 -22.95 L26.9 -23.7 26.85 -23.75 26.05 -23.15 25.8 -23.2 Q25.8 -23.4 26.15 -23.75 L26.1 -23.75 25.8 -23.5 25.6 -23.25 25.4 -23.3 Q25.2 -23.35 25.2 -23.4 L26.15 -24.35 26.1 -24.4 25.85 -24.3 25.75 -24.25 24.7 -23.3 Q24.65 -23.25 24.6 -23.25 24.45 -23.2 24.45 -23.45 24.45 -23.7 24.75 -24.0 L24.8 -24.05 24.8 -24.1 24.75 -24.15 24.9 -24.2 24.95 -24.3 24.85 -24.5 24.65 -24.55 24.1 -23.95 23.45 -23.4 23.15 -23.1 23.05 -22.85 22.9 -22.85 22.5 -22.55 22.5 -22.9 22.55 -23.1 22.35 -22.95 22.65 -23.3 22.5 -23.4 22.55 -23.5 Q22.5 -23.5 22.5 -23.6 L22.35 -23.65 22.2 -23.85 22.35 -24.0 Q21.7 -23.55 21.55 -23.5 L21.5 -23.55 Q21.0 -22.95 20.5 -22.6 L20.4 -22.65 20.55 -22.85 20.55 -22.9 20.6 -23.0 20.55 -23.0 20.55 -23.2 20.7 -23.35 20.8 -23.55 21.0 -24.15 Q21.15 -24.15 21.15 -23.95 21.3 -24.2 22.1 -24.95 L23.1 -25.95 Q22.9 -25.65 22.5 -25.05 M19.85 -23.95 L19.5 -23.2 Q18.95 -22.2 18.25 -21.35 L17.85 -21.4 18.4 -22.15 18.85 -22.9 18.75 -22.9 18.9 -23.1 18.9 -23.15 18.05 -22.35 Q17.8 -22.0 17.7 -21.85 17.6 -21.85 17.6 -21.9 17.55 -21.95 17.55 -22.05 17.35 -21.9 16.7 -20.95 16.0 -19.9 15.85 -19.75 L15.75 -19.8 17.2 -22.2 Q18.0 -23.6 18.6 -24.15 18.6 -23.95 18.45 -23.7 18.25 -23.35 18.15 -23.1 L18.15 -23.05 Q18.3 -23.1 18.6 -23.25 L18.7 -23.3 19.2 -23.85 19.35 -24.05 19.45 -24.05 20.05 -25.1 Q20.35 -25.1 20.4 -24.95 L19.85 -23.95 M12.2 -22.75 L11.95 -22.35 Q11.75 -22.0 11.75 -21.85 L11.85 -21.9 11.9 -22.05 12.05 -22.0 12.3 -21.9 Q12.3 -21.75 12.05 -21.35 L12.05 -21.25 12.15 -21.35 Q12.35 -21.95 12.7 -22.1 L12.9 -22.05 Q12.8 -21.75 12.45 -21.3 12.45 -21.0 12.2 -20.55 L11.9 -20.1 11.9 -20.05 Q11.6 -19.2 11.25 -18.85 L11.15 -18.85 11.7 -20.3 11.85 -20.65 Q11.65 -20.75 11.6 -20.85 11.5 -21.0 11.55 -21.25 L11.55 -21.35 11.05 -20.95 11.0 -20.95 11.0 -21.25 Q11.0 -21.35 11.4 -22.1 11.9 -22.9 12.15 -22.95 L12.2 -22.75 M15.6 -21.75 Q15.35 -21.4 14.95 -20.55 L14.75 -19.95 14.45 -19.2 14.25 -18.85 14.1 -18.65 14.05 -18.55 14.0 -18.55 13.9 -18.4 13.8 -18.45 14.0 -18.7 14.0 -18.9 Q14.0 -19.25 14.1 -19.5 L14.25 -19.9 14.15 -19.75 14.0 -19.75 Q14.05 -20.05 14.55 -20.75 L14.6 -20.9 14.7 -21.15 Q14.9 -21.65 15.0 -21.9 15.15 -22.35 15.3 -22.5 L15.3 -22.3 Q15.35 -22.3 15.35 -22.05 L15.3 -21.75 15.4 -21.8 15.6 -21.75 M5.7 -2.55 Q5.3 -1.9 5.15 -1.6 5.3 -1.65 5.5 -1.9 L5.55 -1.8 Q5.85 -2.2 6.3 -2.4 L6.0 -1.85 Q5.9 -1.7 5.8 -1.55 L6.4 -2.0 Q6.95 -2.5 7.2 -2.5 L7.25 -2.55 7.25 -2.3 7.95 -2.7 Q7.95 -2.45 7.2 -1.85 7.3 -1.75 7.45 -1.75 8.05 -1.8 8.7 -2.05 9.3 -2.25 9.45 -2.25 L9.65 -2.1 Q9.9 -1.9 10.2 -1.8 10.15 -1.8 9.9 -1.45 L9.65 -1.05 10.2 -1.5 Q10.75 -1.9 11.25 -1.8 11.05 -1.6 10.35 -1.2 9.85 -0.9 9.4 -0.7 9.35 -0.6 9.3 -0.6 9.2 -0.6 9.2 -0.85 L9.2 -1.05 9.45 -1.05 Q9.35 -1.15 9.4 -1.2 L9.5 -1.4 8.2 -0.7 7.85 -0.7 7.9 -0.8 7.85 -0.75 7.8 -0.75 Q7.75 -0.8 7.75 -1.0 L7.75 -1.15 Q7.7 -1.25 7.7 -1.35 L7.6 -1.25 Q7.55 -1.15 7.3 -1.15 7.1 -1.15 7.0 -1.2 6.85 -1.35 7.1 -1.5 L6.7 -1.4 6.6 -1.35 5.05 -0.25 5.0 -0.3 4.9 -0.25 4.55 -0.25 Q4.8 -0.7 5.15 -1.0 L5.15 -1.1 Q5.2 -1.25 5.0 -1.25 4.75 -1.25 4.3 -1.05 L3.65 -0.85 Q3.9 -1.2 4.75 -1.9 5.55 -2.55 5.7 -2.55 M3.75 -1.25 L3.65 -1.15 3.6 -1.15 3.75 -1.25 M11.1 -1.25 Q10.9 -0.75 10.7 -0.6 11.1 -0.55 11.15 -0.4 L9.85 0.7 Q9.1 1.3 8.6 1.5 8.95 1.25 9.9 0.3 9.9 0.25 9.85 0.25 L9.65 0.2 9.6 0.05 Q9.6 0.0 10.05 -0.45 L10.7 -1.1 11.1 -1.25 M39.5 -20.7 L39.2 -20.5 39.0 -20.25 39.75 -20.8 38.9 -20.15 Q38.5 -19.75 38.05 -19.4 L38.0 -19.35 37.75 -19.15 37.8 -19.15 37.75 -19.1 37.45 -18.85 Q37.2 -18.55 36.75 -18.15 L36.0 -17.6 35.45 -17.1 35.3 -17.15 Q34.95 -16.85 34.65 -16.75 L35.15 -17.15 35.1 -17.15 34.5 -16.75 34.85 -17.15 34.8 -17.2 35.05 -17.45 35.3 -17.75 Q34.5 -17.3 33.9 -17.05 34.1 -17.35 34.4 -17.65 33.85 -17.4 33.15 -17.2 33.85 -17.55 35.0 -18.25 35.6 -18.5 36.0 -18.85 L36.4 -19.15 36.95 -19.45 Q38.1 -20.05 39.15 -20.55 L39.5 -20.7 M38.4 -20.05 L38.15 -19.9 38.35 -20.0 38.4 -20.05 M38.05 -19.75 L37.35 -19.3 37.85 -19.55 38.05 -19.75 M39.15 -14.45 L37.8 -13.8 37.9 -13.8 Q35.85 -12.55 33.05 -11.15 L32.95 -11.05 Q32.85 -11.0 32.85 -11.25 32.85 -11.4 34.2 -12.1 34.25 -12.25 34.35 -12.4 L33.05 -11.75 Q31.05 -10.8 30.05 -10.45 L29.7 -10.45 Q30.6 -10.8 33.9 -12.25 L34.45 -12.5 Q34.7 -12.7 35.1 -12.9 35.85 -13.25 35.85 -13.35 35.85 -13.5 37.3 -14.2 38.4 -14.75 39.05 -15.0 L39.7 -15.25 40.25 -15.45 Q40.7 -15.85 41.7 -16.25 L43.0 -16.8 Q43.35 -17.0 43.7 -17.05 L45.4 -17.7 Q44.85 -17.05 44.3 -16.85 L43.8 -16.65 43.95 -16.6 42.4 -16.05 40.75 -15.15 Q39.6 -14.55 39.4 -14.55 L39.45 -14.6 39.15 -14.45 M39.85 -15.1 L39.9 -15.15 39.8 -15.1 39.85 -15.1 M42.85 -16.45 L43.0 -16.5 43.3 -16.65 42.95 -16.55 42.85 -16.45 M41.4 -14.3 L41.3 -14.25 41.4 -14.25 41.4 -14.3 M41.1 -15.0 L42.3 -15.5 Q43.35 -15.95 44.4 -16.55 44.8 -16.6 46.05 -17.35 47.0 -17.85 47.55 -18.1 L48.35 -18.45 48.4 -18.45 48.45 -18.5 48.55 -18.55 49.3 -18.75 Q49.3 -18.65 49.15 -18.55 L48.25 -18.1 48.45 -18.15 48.85 -18.3 48.55 -18.15 48.6 -18.1 47.65 -17.55 Q47.3 -17.35 46.95 -17.15 46.2 -16.8 44.55 -15.7 44.2 -15.5 43.85 -15.3 L42.55 -14.7 Q42.1 -14.55 41.65 -14.4 41.65 -14.35 41.8 -14.35 L39.6 -13.3 39.95 -13.55 39.6 -13.45 Q39.0 -13.15 38.55 -13.0 38.7 -13.2 38.95 -13.4 38.85 -13.45 38.8 -13.5 38.85 -13.55 39.1 -13.6 L39.35 -13.7 39.45 -13.7 39.6 -13.8 39.3 -13.9 40.05 -14.25 Q40.65 -14.6 40.8 -14.7 L41.1 -15.0 M43.1 -15.55 L43.1 -15.55 M42.9 -15.45 L42.8 -15.4 42.9 -15.4 42.9 -15.45 M41.95 -15.7 L42.65 -16.0 Q43.1 -16.2 43.45 -16.35 42.6 -15.9 41.85 -15.6 L41.95 -15.7 M44.15 -17.1 L44.2 -17.1 43.8 -16.9 45.35 -17.65 Q45.15 -17.55 44.35 -17.25 L44.15 -17.1 M29.5 -23.5 L29.55 -23.55 29.45 -23.5 29.5 -23.5 M28.65 -26.1 L28.75 -26.1 28.75 -26.15 28.65 -26.1 M28.75 -26.1 L28.75 -26.05 28.8 -26.05 28.75 -26.1 M24.9 -24.9 L24.9 -24.9 M25.0 -24.5 L24.9 -24.5 24.9 -24.4 25.0 -24.45 25.0 -24.5 M23.95 -24.55 L23.75 -24.45 23.75 -24.35 23.95 -24.55 M25.7 -22.3 L25.75 -22.4 25.75 -22.35 25.7 -22.3 M28.9 -23.8 L29.0 -23.95 28.7 -23.65 28.9 -23.8 M26.4 -23.75 L26.25 -23.65 26.5 -23.8 26.45 -23.8 26.4 -23.75 M27.45 -18.8 L28.1 -19.4 Q29.25 -20.4 29.65 -20.55 L28.4 -19.3 28.4 -19.2 Q28.4 -19.1 27.95 -18.5 L28.4 -18.85 28.45 -18.85 29.55 -19.65 29.9 -19.9 31.45 -21.0 30.85 -20.1 30.5 -19.65 30.05 -19.2 30.05 -19.15 30.25 -19.3 30.55 -19.35 Q30.45 -18.95 30.05 -18.55 L30.35 -18.7 Q30.6 -18.95 30.85 -19.05 30.8 -19.0 30.75 -18.9 L31.0 -19.05 31.05 -19.05 31.15 -19.1 32.2 -19.65 31.6 -19.0 Q31.55 -18.55 30.2 -17.6 L29.5 -17.1 29.1 -16.75 Q28.7 -16.4 28.4 -16.25 L28.05 -16.3 28.2 -16.45 28.15 -16.5 Q28.25 -16.75 29.05 -17.35 L29.35 -17.6 28.95 -17.45 28.8 -17.4 28.7 -17.35 28.5 -17.35 28.55 -17.4 28.5 -17.4 Q28.4 -17.4 28.4 -17.65 28.4 -17.7 28.7 -18.05 L29.0 -18.35 28.1 -17.9 27.6 -17.8 27.65 -17.85 27.55 -17.9 27.5 -17.9 27.45 -17.85 27.4 -18.0 27.35 -18.0 27.3 -18.15 27.3 -18.2 27.0 -17.95 26.85 -17.95 26.45 -17.7 26.25 -17.8 26.7 -18.15 26.7 -18.25 26.8 -18.35 26.95 -18.4 27.3 -18.75 27.45 -18.8 M28.35 -15.15 Q30.45 -16.65 31.75 -17.3 32.25 -17.6 32.65 -17.7 L31.75 -17.0 Q31.2 -16.55 30.55 -16.15 29.35 -15.4 28.4 -15.1 L28.35 -15.15 M29.7 -17.95 L29.85 -18.0 29.85 -18.05 29.7 -17.95 M27.25 -3.65 L27.3 -3.75 28.15 -3.9 Q27.45 -4.0 27.45 -4.05 L27.55 -4.15 30.2 -4.25 30.85 -4.4 32.35 -4.4 Q32.85 -4.35 32.85 -4.3 L32.75 -4.25 35.4 -4.15 35.3 -4.05 34.15 -4.05 34.2 -4.0 Q33.55 -3.8 32.7 -3.75 L30.9 -3.5 28.5 -3.3 28.3 -3.2 28.15 -3.2 28.05 -3.25 27.75 -3.25 27.75 -3.3 27.45 -3.35 Q26.7 -3.4 26.7 -3.45 L26.95 -3.65 27.25 -3.65 M25.05 -0.5 L24.9 -0.5 Q23.85 -0.6 23.85 -0.65 25.95 -0.65 27.1 -0.95 L27.8 -1.1 27.45 -1.15 27.45 -1.45 27.85 -1.35 Q28.05 -1.4 28.2 -1.5 L28.4 -1.5 Q28.5 -1.55 28.55 -1.6 L27.55 -1.5 26.85 -1.55 Q26.4 -1.6 26.4 -1.65 27.25 -2.05 28.2 -2.1 L28.2 -2.15 28.6 -2.1 29.25 -2.15 29.0 -2.1 Q30.0 -2.15 30.55 -2.3 31.15 -2.3 31.8 -2.35 L32.75 -2.45 32.7 -2.45 32.7 -2.7 32.3 -2.7 33.35 -2.9 32.4 -2.75 32.2 -2.7 29.45 -2.7 Q29.1 -2.85 29.1 -2.9 31.15 -2.95 33.4 -3.45 35.6 -3.9 36.25 -3.9 36.25 -3.8 36.1 -3.7 L35.8 -3.65 36.5 -3.75 36.5 -3.8 37.6 -3.75 38.6 -3.75 38.6 -3.8 38.85 -3.8 39.4 -3.85 39.8 -3.85 40.65 -3.9 Q40.15 -3.65 39.15 -3.45 L39.05 -3.35 36.35 -2.85 36.45 -2.8 38.0 -2.95 Q38.5 -2.85 38.55 -2.8 L36.05 -2.45 31.05 -1.9 30.8 -1.9 28.75 -1.6 28.65 -1.5 32.15 -1.7 33.35 -1.65 34.05 -1.75 33.9 -1.7 35.1 -1.6 32.8 -1.45 32.45 -1.35 32.55 -1.3 31.9 -1.2 31.5 -1.15 31.35 -1.1 31.25 -1.0 Q31.05 -0.95 30.65 -0.9 L30.75 -0.7 30.85 -0.7 31.25 -0.75 31.9 -0.8 32.55 -0.75 33.15 -0.8 33.15 -0.7 33.0 -0.45 Q32.4 -0.45 31.5 -0.25 L31.45 -0.25 32.05 -0.2 32.1 -0.2 33.25 -0.1 33.6 -0.05 33.65 -0.1 34.05 -0.05 34.3 0.15 Q34.45 0.3 34.8 0.35 L34.25 0.4 Q34.35 0.45 34.35 0.5 L34.0 0.55 Q34.15 0.55 34.2 0.6 L34.1 0.7 34.05 0.7 34.2 0.75 34.1 0.8 32.75 0.8 31.45 0.85 30.25 0.8 28.1 0.8 27.0 0.75 Q27.0 0.7 26.7 0.65 L26.75 0.55 26.8 0.5 28.25 0.55 Q28.45 0.5 28.35 0.4 28.2 0.3 28.35 0.25 L28.45 0.2 28.35 0.15 Q28.45 0.15 28.45 0.1 L29.15 0.15 Q29.05 0.05 29.35 -0.05 L29.1 -0.05 Q28.85 -0.05 28.75 -0.1 L28.75 -0.15 26.8 -0.25 25.2 -0.4 25.05 -0.5 M29.9 0.0 L30.3 0.0 30.1 -0.05 29.9 0.0 M46.1 -13.05 L46.1 -13.1 46.25 -13.15 46.35 -13.15 50.15 -14.3 Q50.95 -14.25 50.95 -14.15 50.4 -14.1 49.4 -13.9 48.55 -13.7 48.15 -13.55 47.85 -13.45 47.4 -13.25 L48.0 -13.35 48.2 -13.4 48.45 -13.45 48.65 -13.55 48.95 -13.55 Q49.4 -13.55 49.8 -13.3 L47.65 -12.45 47.2 -12.25 Q47.2 -12.15 47.15 -12.15 L47.3 -12.15 49.25 -12.65 Q49.6 -12.6 49.65 -12.55 L51.55 -12.9 Q51.55 -12.8 51.4 -12.7 L48.95 -12.05 49.45 -11.95 51.45 -12.2 48.7 -11.65 Q48.45 -11.5 48.0 -11.5 L47.75 -11.45 Q46.3 -11.15 44.9 -10.55 L44.4 -10.6 Q44.6 -10.85 45.0 -11.0 L44.8 -11.05 44.65 -11.05 44.3 -10.95 44.0 -10.9 42.35 -10.5 Q41.45 -10.25 40.85 -9.95 L39.5 -9.95 39.3 -10.0 Q39.6 -10.3 41.1 -10.95 L41.45 -11.1 41.45 -11.2 41.4 -11.2 41.4 -11.25 Q41.4 -11.4 41.4 -11.5 L41.9 -11.6 Q42.4 -11.9 45.95 -13.05 L46.1 -13.05 M45.9 -12.55 L45.75 -12.5 46.0 -12.55 46.0 -12.6 45.9 -12.55 M45.15 -11.2 L45.3 -11.25 45.25 -11.25 45.15 -11.2 M41.7 -8.85 Q42.25 -9.2 43.05 -9.3 L44.65 -9.45 46.0 -9.8 Q49.35 -10.55 50.55 -10.45 L47.3 -9.8 47.2 -9.7 46.9 -9.65 47.45 -9.65 46.8 -9.5 47.45 -9.6 47.45 -9.65 Q47.95 -9.6 48.0 -9.55 L44.45 -8.95 42.95 -8.8 42.9 -8.8 40.55 -8.55 40.95 -8.7 41.0 -8.7 41.65 -8.85 41.7 -8.85 M41.55 -9.55 L41.6 -9.6 41.7 -9.75 44.75 -10.45 47.0 -11.0 47.5 -10.95 Q47.5 -10.9 47.45 -10.9 L47.25 -10.8 47.4 -10.8 47.6 -10.85 Q48.25 -10.8 48.3 -10.75 47.65 -10.45 46.85 -10.25 L45.5 -9.95 45.3 -10.0 Q45.15 -10.05 45.2 -10.1 L45.35 -10.2 44.2 -10.05 41.9 -9.5 41.55 -9.55 M40.55 -10.2 L40.5 -10.15 Q40.65 -10.15 40.95 -10.25 L40.75 -10.25 40.55 -10.2 M40.85 -7.75 L41.4 -7.9 42.5 -7.95 Q46.2 -8.6 51.45 -9.1 50.8 -8.8 49.45 -8.6 L50.3 -8.6 49.9 -8.5 52.15 -8.55 Q52.1 -8.4 51.95 -8.25 L51.45 -8.2 Q50.45 -7.75 48.0 -7.5 L43.55 -7.05 44.5 -7.1 45.7 -7.15 Q45.3 -7.0 44.05 -6.8 L42.05 -6.6 41.0 -6.65 Q40.2 -6.7 40.15 -6.75 L41.3 -7.1 41.8 -7.2 Q41.7 -7.2 41.7 -7.25 L41.95 -7.3 41.6 -7.35 41.15 -7.35 40.05 -7.45 39.9 -7.6 40.5 -7.75 40.85 -7.75 M47.75 -14.75 Q48.1 -14.7 48.15 -14.65 47.9 -14.55 46.6 -14.15 45.25 -13.75 45.0 -13.75 45.25 -13.9 46.45 -14.3 47.6 -14.65 47.75 -14.75 M46.65 -16.45 Q46.65 -16.4 46.35 -16.25 L46.65 -16.45 M48.2 -12.9 L48.65 -13.05 48.35 -13.0 Q48.25 -12.95 48.15 -12.9 L48.2 -12.9 M47.4 -11.1 L47.45 -11.15 Q47.8 -11.1 47.85 -11.05 L47.75 -11.0 47.4 -11.05 47.4 -11.1 M47.5 -7.95 L47.7 -8.0 47.5 -8.0 47.1 -7.9 47.5 -7.95 M32.75 0.3 L32.75 0.3 M32.0 1.35 L31.9 1.45 31.3 1.5 30.0 1.45 29.8 1.55 Q29.9 1.6 29.95 1.65 L30.3 1.65 30.0 1.7 Q29.95 1.75 29.65 1.75 L28.65 1.7 27.55 1.7 27.15 1.65 25.95 1.65 26.05 1.55 26.65 1.55 26.25 1.45 24.45 1.4 23.95 1.4 23.15 1.35 22.6 1.3 22.5 1.25 22.55 1.25 22.5 1.15 23.3 1.1 23.1 1.05 22.95 0.9 23.05 0.8 25.25 0.95 27.9 0.9 Q27.95 0.9 27.95 0.95 L28.25 1.0 29.35 1.15 31.4 1.15 32.1 1.2 32.0 1.35 M28.75 1.35 L28.75 1.35 M27.45 2.7 L27.1 2.8 25.05 2.5 23.4 2.3 22.35 2.25 22.35 2.2 22.45 2.15 22.5 2.15 Q22.3 2.05 22.2 1.95 L22.2 1.9 22.3 1.9 22.2 1.8 22.3 1.7 23.85 1.8 24.45 1.9 Q24.5 2.0 24.2 2.1 24.55 2.15 24.65 2.2 L27.1 2.55 27.25 2.6 Q27.45 2.65 27.45 2.7 M-48.4 -10.85 Q-47.95 -10.7 -46.0 -10.2 -43.85 -9.65 -43.05 -9.4 L-42.9 -9.35 -42.6 -9.3 -42.35 -9.35 -42.75 -9.5 -42.8 -9.6 Q-41.6 -9.3 -40.7 -9.05 L-39.15 -8.55 -39.15 -8.6 Q-38.45 -8.35 -36.05 -7.9 -33.75 -7.5 -33.0 -7.15 -32.5 -7.05 -32.45 -7.0 L-32.55 -6.95 -32.65 -7.0 -32.75 -6.95 -33.15 -6.9 Q-33.65 -6.9 -34.85 -7.15 L-35.0 -7.15 -35.0 -7.2 -36.35 -7.45 -37.3 -7.7 -37.95 -7.8 -36.75 -7.4 Q-35.2 -7.0 -35.05 -6.9 -34.75 -6.8 -34.7 -6.7 L-34.8 -6.6 -36.0 -6.85 Q-35.85 -6.75 -35.8 -6.7 L-39.45 -7.35 -38.15 -7.05 -37.35 -6.85 -37.25 -6.9 Q-37.15 -6.9 -37.1 -6.8 L-36.2 -6.55 -36.3 -6.5 -36.85 -6.6 -36.4 -6.5 -36.35 -6.45 -35.05 -6.15 Q-34.75 -6.05 -34.7 -5.95 L-34.15 -5.75 -34.15 -5.65 -34.95 -5.9 Q-37.35 -6.1 -38.9 -6.6 -40.4 -6.9 -40.85 -7.15 L-40.8 -7.2 -40.8 -7.25 -40.55 -7.25 -40.8 -7.35 -40.9 -7.4 Q-42.65 -7.75 -45.0 -8.4 L-45.1 -8.45 -45.15 -8.5 -47.0 -8.9 Q-47.3 -9.25 -47.3 -9.35 -47.15 -9.35 -44.85 -8.75 L-44.65 -8.7 -44.7 -8.75 -45.05 -9.0 -45.0 -9.0 -45.0 -9.05 -42.7 -8.4 -42.05 -8.2 -42.05 -8.25 Q-42.05 -8.65 -42.0 -8.25 L-42.0 -8.3 Q-40.9 -7.95 -38.85 -7.55 -40.45 -8.0 -40.65 -8.2 L-40.7 -8.2 -40.55 -8.1 -40.9 -8.2 Q-41.15 -8.2 -41.45 -8.3 L-41.9 -8.45 -44.15 -9.05 Q-45.1 -9.15 -47.35 -9.85 -49.25 -10.45 -50.15 -10.8 L-50.05 -10.9 -49.95 -10.9 Q-50.85 -11.3 -51.05 -11.55 L-51.0 -11.55 -50.95 -11.6 -48.45 -10.75 -48.45 -10.8 -48.4 -10.85 M-31.65 -18.25 L-32.35 -18.55 -32.15 -18.45 Q-31.2 -17.7 -30.95 -17.45 -30.55 -17.2 -30.1 -17.1 L-30.7 -17.6 Q-31.05 -17.9 -31.4 -17.95 L-31.65 -18.25 M-31.3 -18.6 L-31.4 -18.7 Q-31.4 -19.05 -31.35 -19.1 L-29.65 -17.75 -32.05 -19.8 Q-31.5 -19.55 -30.7 -18.9 L-31.1 -19.35 -31.0 -19.35 -28.6 -17.45 Q-27.0 -16.15 -26.15 -15.4 -26.7 -15.65 -27.35 -16.1 -27.85 -16.35 -28.7 -17.0 L-27.2 -15.85 -27.25 -15.8 Q-27.3 -15.7 -27.35 -15.7 L-27.6 -15.9 Q-28.2 -16.1 -29.4 -16.65 L-29.45 -16.7 -29.85 -16.9 Q-30.45 -17.15 -30.85 -17.4 L-30.65 -17.25 -30.7 -17.25 -28.15 -15.45 -28.2 -15.4 Q-29.45 -15.95 -30.55 -16.8 L-30.75 -16.9 -31.0 -16.85 -30.8 -16.7 Q-30.8 -16.65 -30.9 -16.65 L-30.8 -16.6 -30.15 -16.1 -29.7 -15.75 -29.05 -15.35 -29.05 -15.3 Q-28.5 -14.95 -28.05 -14.7 -28.75 -14.9 -29.35 -15.1 L-29.3 -15.1 -29.45 -15.05 -28.3 -14.3 -26.85 -13.35 -26.5 -13.2 -26.75 -13.25 -26.45 -13.0 -26.35 -12.95 -26.15 -12.75 -24.05 -11.25 Q-24.6 -11.45 -25.3 -11.85 L-25.35 -11.8 -26.55 -12.55 -26.3 -12.3 -27.7 -13.25 -28.05 -13.45 -28.15 -13.5 -27.1 -12.75 -27.15 -12.7 -27.85 -13.15 Q-28.95 -13.65 -30.7 -14.8 -31.05 -15.0 -31.3 -15.2 L-31.2 -15.05 Q-30.75 -14.7 -30.65 -14.45 L-30.7 -14.35 -30.75 -14.35 -30.85 -14.4 -31.3 -14.65 -31.85 -15.0 Q-32.75 -15.55 -32.9 -15.75 L-32.05 -15.25 Q-32.35 -15.55 -32.5 -15.75 L-32.4 -15.8 -32.45 -15.9 -32.75 -16.15 -32.95 -16.25 -33.0 -16.3 Q-33.8 -16.75 -34.4 -17.0 L-34.45 -17.2 -34.4 -17.3 Q-33.65 -17.15 -32.85 -16.7 L-33.45 -17.3 -33.5 -17.4 Q-33.2 -17.4 -32.45 -16.8 L-32.4 -16.8 -32.4 -16.85 -32.45 -16.9 -32.45 -16.95 Q-33.5 -17.8 -33.5 -17.85 -33.5 -18.2 -33.45 -17.9 -33.05 -17.85 -31.95 -17.15 L-32.0 -17.2 -31.95 -17.25 -31.95 -17.3 -31.85 -17.25 -31.85 -17.3 -32.05 -17.4 -33.8 -18.75 -33.9 -18.85 -34.25 -19.0 -34.2 -19.05 Q-36.1 -20.55 -36.1 -20.65 L-36.1 -20.8 -36.75 -21.35 -37.75 -22.2 -37.65 -22.3 Q-37.4 -22.2 -37.05 -21.9 L-37.0 -21.9 -34.45 -20.2 Q-33.95 -19.95 -33.4 -19.6 L-36.05 -21.55 -36.05 -21.6 Q-34.55 -20.7 -32.65 -19.3 L-32.5 -19.2 -32.05 -18.85 Q-32.45 -19.2 -32.45 -19.35 -32.45 -19.7 -32.4 -19.35 L-32.4 -19.4 -31.9 -19.05 -31.35 -18.6 -31.3 -18.6 M-32.55 -18.55 L-32.3 -18.35 -32.3 -18.4 -32.65 -18.7 -32.55 -18.55 M-33.45 -15.65 Q-31.2 -14.65 -30.8 -14.1 -31.05 -14.05 -32.15 -14.6 -33.35 -15.2 -33.5 -15.6 L-33.45 -15.6 -33.45 -15.65 M-34.05 -14.9 L-34.05 -14.95 -33.55 -14.85 Q-33.3 -14.8 -33.3 -14.55 -33.3 -14.5 -31.2 -13.5 -31.1 -13.5 -30.45 -13.05 L-29.65 -12.6 -29.6 -12.55 -29.85 -12.45 -30.45 -12.8 -30.35 -12.75 Q-30.8 -12.85 -31.6 -13.2 L-31.7 -13.2 -29.45 -12.0 -29.05 -11.8 -27.1 -10.8 -27.65 -11.0 -25.15 -9.6 -25.2 -9.55 Q-26.35 -9.9 -27.85 -10.65 L-28.05 -10.7 -28.0 -10.6 Q-29.45 -11.15 -30.95 -12.25 L-32.15 -12.85 Q-33.05 -13.35 -33.75 -13.75 -34.75 -14.2 -34.8 -14.2 -34.85 -14.2 -35.55 -14.75 L-35.75 -14.9 Q-36.95 -15.4 -37.15 -16.05 -37.0 -16.05 -35.7 -15.35 L-34.45 -14.7 -34.35 -14.8 -33.95 -14.7 -34.15 -14.85 -34.05 -14.9 M-31.3 -17.4 L-31.1 -17.25 -31.2 -17.35 -31.3 -17.4 M-26.55 -17.1 Q-26.05 -16.85 -26.0 -16.9 -26.0 -17.0 -25.9 -17.0 -25.65 -17.0 -25.05 -16.4 -24.4 -16.3 -23.55 -15.55 -22.3 -14.4 -21.85 -14.15 L-21.85 -14.05 Q-22.0 -14.05 -22.5 -14.4 L-22.65 -14.5 Q-22.85 -14.6 -23.55 -15.05 L-23.75 -15.1 -23.45 -14.85 -23.9 -15.05 -24.05 -14.95 Q-24.15 -14.95 -24.5 -15.25 -25.0 -15.45 -25.45 -15.8 -26.55 -16.8 -26.75 -16.9 L-26.75 -16.95 -27.25 -17.35 -27.2 -17.45 Q-27.2 -17.25 -27.0 -17.25 -26.7 -17.2 -26.55 -17.1 M-36.5 -10.9 Q-38.15 -11.4 -38.9 -11.8 L-40.75 -12.45 -40.65 -12.55 Q-39.35 -12.25 -37.9 -11.85 L-38.15 -11.95 -38.15 -12.0 -38.5 -12.1 -38.5 -12.3 Q-38.1 -12.3 -37.65 -12.15 -37.3 -12.0 -37.05 -11.8 L-35.6 -11.25 -34.5 -10.8 -34.15 -10.7 Q-33.0 -10.15 -32.15 -9.85 -31.35 -9.55 -30.65 -9.4 -31.5 -9.5 -32.5 -9.7 L-32.7 -9.75 Q-33.85 -10.05 -35.6 -10.6 -35.75 -10.65 -36.0 -10.8 L-36.5 -10.9 M-38.3 -9.5 L-38.25 -9.4 -38.05 -9.35 -38.3 -9.5 M-38.85 -9.05 L-37.95 -8.85 -38.85 -9.1 -38.85 -9.05 M-38.35 -9.5 L-38.45 -9.55 Q-38.7 -9.7 -39.2 -9.75 L-38.65 -9.6 -38.35 -9.5 M-35.15 -9.6 L-31.05 -8.35 Q-28.25 -7.5 -26.75 -7.15 L-26.85 -7.1 -30.15 -7.6 Q-32.2 -7.9 -34.4 -8.65 -34.65 -8.9 -34.8 -9.15 L-35.15 -9.6 M-35.6 -8.05 L-35.95 -8.15 -36.15 -8.25 Q-38.55 -8.7 -39.15 -8.85 -40.5 -9.2 -43.55 -10.3 L-43.5 -10.35 -43.5 -10.4 Q-43.0 -10.45 -40.9 -9.95 L-40.4 -9.85 Q-40.65 -9.95 -40.9 -10.05 L-40.85 -10.2 -40.8 -10.3 Q-40.5 -10.2 -40.25 -10.1 -39.0 -9.85 -36.5 -9.05 -35.8 -8.95 -35.05 -8.65 L-33.4 -8.3 -33.4 -8.2 -34.55 -8.4 -34.3 -8.3 -33.7 -8.05 -32.45 -7.9 Q-32.05 -7.8 -32.0 -7.75 L-32.1 -7.7 -32.85 -7.8 -31.35 -7.25 -31.3 -7.15 -31.9 -7.2 -31.6 -7.05 -31.65 -7.0 -33.55 -7.5 Q-34.35 -7.7 -35.2 -7.95 L-35.6 -8.05 M-42.6 -10.05 L-42.0 -9.8 -41.55 -9.75 -42.15 -9.95 -42.65 -10.05 -42.6 -10.05 M-42.55 -9.15 L-42.55 -9.2 -42.8 -9.25 Q-42.7 -9.25 -42.65 -9.2 L-42.55 -9.15 M-41.0 -6.6 L-38.2 -6.0 -38.2 -6.05 -36.4 -5.7 -35.85 -5.65 Q-35.55 -5.6 -35.45 -5.5 L-33.15 -5.05 Q-32.8 -4.95 -32.75 -4.9 L-33.0 -4.85 -33.8 -5.0 -34.95 -5.15 -34.7 -5.1 Q-33.3 -4.9 -33.2 -4.75 -34.5 -4.8 -35.75 -5.0 L-36.15 -5.1 Q-36.7 -5.2 -37.3 -5.35 L-38.95 -5.9 Q-40.05 -6.2 -41.0 -6.4 L-41.0 -6.6 M-34.95 -0.2 L-34.2 -0.25 -30.1 -0.1 -30.0 -0.05 Q-29.95 -0.05 -29.95 0.15 L-29.95 0.2 Q-29.25 0.15 -28.5 0.2 L-26.9 0.3 -27.0 0.35 -28.9 0.45 -30.0 0.5 -31.95 0.7 -33.45 0.65 -34.75 0.55 -33.65 0.5 -33.3 0.5 -33.05 0.45 -33.7 0.4 -33.5 0.3 -35.15 0.3 -35.15 0.1 Q-36.65 0.05 -36.65 -0.1 L-34.95 -0.2 M-28.45 -10.9 L-28.45 -10.95 -29.55 -11.55 -28.45 -10.9 M-34.2 -7.3 L-34.2 -7.3 M-31.8 -0.4 L-32.75 -0.55 -31.8 -0.5 -31.8 -0.55 -31.5 -0.5 -31.25 -0.5 -29.1 -0.4 Q-28.75 -0.35 -28.7 -0.25 L-28.75 -0.25 -29.1 -0.2 -29.3 -0.2 -28.85 -0.1 -28.95 -0.1 -30.2 -0.15 -31.7 -0.25 -31.8 -0.4 M-20.8 -16.3 L-20.75 -16.4 Q-20.65 -16.4 -20.2 -16.15 -20.2 -16.1 -20.1 -16.2 -19.95 -16.3 -19.7 -16.3 -19.5 -16.3 -18.9 -15.6 L-18.9 -15.55 -18.6 -15.5 -18.95 -15.75 Q-19.35 -16.15 -20.35 -17.55 -20.3 -17.6 -20.2 -17.6 -20.1 -17.55 -19.8 -17.2 L-19.25 -16.7 -19.1 -16.7 Q-19.25 -16.95 -19.25 -17.1 -18.9 -16.9 -18.35 -16.35 L-17.7 -16.0 Q-17.5 -15.9 -17.35 -15.85 L-17.75 -16.35 -17.7 -16.4 -17.45 -16.2 -17.35 -16.2 -17.0 -15.9 Q-16.3 -15.35 -16.15 -15.15 L-16.2 -15.1 -16.1 -15.0 -16.2 -14.95 Q-16.7 -15.3 -16.95 -15.5 L-17.05 -15.6 -17.2 -15.4 Q-17.3 -15.3 -17.4 -15.2 L-17.15 -15.0 -17.25 -14.95 Q-17.4 -14.9 -17.6 -14.95 L-17.85 -15.2 Q-18.15 -15.25 -18.45 -15.4 L-18.45 -15.35 Q-18.35 -15.3 -18.35 -15.1 L-18.4 -14.9 -18.25 -14.7 -18.3 -14.65 -18.8 -15.0 -19.0 -15.2 -19.3 -15.3 -19.2 -15.15 -19.25 -15.0 Q-19.5 -15.05 -20.1 -15.55 L-20.45 -15.7 Q-20.45 -15.9 -20.6 -16.05 L-20.8 -16.2 -20.8 -16.3 M-20.7 -15.8 L-19.85 -15.15 -19.9 -14.95 Q-19.9 -14.85 -19.9 -14.8 L-20.4 -15.2 Q-20.75 -15.55 -20.75 -15.65 L-20.75 -15.85 -20.7 -15.75 -20.7 -15.8 M-20.3 -15.75 L-20.3 -15.75 M-15.75 -15.3 Q-16.25 -15.9 -16.25 -16.2 L-15.85 -15.95 -15.95 -16.2 Q-15.7 -16.2 -15.2 -15.6 L-14.45 -14.65 -14.5 -14.6 Q-14.55 -14.5 -14.6 -14.5 -14.9 -14.65 -15.2 -15.05 -15.2 -14.85 -15.1 -14.75 L-14.9 -14.6 -14.95 -14.5 -15.75 -15.3 M-16.9 5.2 L-17.4 5.3 -18.35 5.5 Q-18.55 5.6 -18.9 5.75 L-19.2 5.9 -19.35 5.85 -19.95 6.05 -20.05 6.05 Q-20.65 6.25 -21.25 6.4 L-21.55 6.45 Q-23.5 7.05 -24.4 7.15 L-24.6 7.25 -24.95 7.2 -24.95 7.15 -25.1 7.1 -25.15 7.0 -24.6 6.45 -24.5 6.2 -24.2 6.1 -23.9 5.85 -23.85 5.75 Q-24.1 5.85 -24.15 5.9 L-24.35 5.85 Q-24.35 5.75 -24.2 5.65 L-23.95 5.5 -24.1 5.55 Q-24.25 5.55 -24.3 5.6 L-25.3 5.6 -25.5 5.65 -25.5 5.6 -25.65 5.65 -25.95 5.55 -26.15 5.55 -26.05 5.5 -25.15 5.0 -25.05 4.95 -24.9 4.8 -26.55 5.0 Q-27.4 5.0 -27.3 4.85 L-27.2 4.75 -28.55 4.8 -29.55 4.8 -29.7 4.85 -30.05 4.8 Q-29.95 4.65 -27.7 4.05 L-27.0 3.9 -30.45 4.15 Q-30.65 4.1 -30.7 4.0 -30.5 3.9 -29.55 3.75 L-29.75 3.65 -33.35 3.75 -33.35 3.65 -35.4 3.8 -35.9 3.75 -35.75 3.45 -36.15 3.5 -36.25 3.5 -35.8 3.4 -35.65 3.35 -35.75 3.25 -35.95 3.1 Q-35.8 3.0 -34.8 2.8 -33.65 2.6 -33.0 2.55 L-30.6 2.45 -29.85 2.25 -29.35 2.35 -28.7 2.3 -26.7 2.35 -27.35 2.5 -27.3 2.5 -26.4 2.4 -23.1 2.15 -23.1 2.1 -22.75 2.15 Q-22.45 2.2 -22.4 2.25 L-22.5 2.35 -24.9 2.55 -24.5 2.55 -24.6 2.6 -25.7 2.6 -26.35 2.65 -29.5 2.9 -28.6 2.95 Q-28.6 3.0 -28.75 3.15 L-26.45 3.15 -26.65 3.25 -26.15 3.25 -25.75 3.2 -22.85 3.0 -25.1 3.25 -24.0 3.25 -24.0 3.2 -23.75 3.2 -23.7 3.25 -22.85 3.3 -25.1 3.7 -25.6 3.8 -26.2 4.0 -26.2 4.2 -26.6 4.25 -27.0 4.35 -25.55 4.35 -25.2 4.25 -24.8 4.25 -24.5 4.3 -23.45 4.3 Q-22.45 4.05 -22.25 4.1 L-20.65 4.15 Q-21.1 4.5 -23.1 5.05 L-23.55 5.15 -19.85 5.15 -19.65 5.05 Q-19.5 5.1 -19.4 5.15 L-18.75 5.2 Q-18.75 5.15 -18.7 5.15 L-18.65 5.1 -18.65 5.2 -18.55 5.2 -18.5 5.25 -16.6 4.75 Q-15.5 4.5 -14.7 4.35 -16.0 4.85 -16.9 5.2 M-22.6 5.8 L-22.6 5.8 M-28.4 4.6 L-28.4 4.6 M-27.85 4.45 L-27.85 4.45 M-31.2 0.15 L-30.1 0.15 -30.75 0.1 -31.5 0.15 -31.2 0.15 M-30.35 2.95 L-30.35 3.0 -30.3 2.95 -30.35 2.95" fill="#cdffb4" fill-opacity="0.7019608" fill-rule="evenodd" stroke="none"/>
      <path d="M28.8 -25.8 L28.55 -25.45 Q28.7 -25.6 28.85 -25.6 29.05 -25.75 29.2 -25.65 L28.45 -24.7 27.7 -23.8 27.5 -23.8 28.4 -25.15 Q27.9 -24.7 27.8 -24.45 L27.65 -24.4 Q27.7 -24.55 27.95 -24.85 L27.55 -24.55 27.5 -24.6 28.3 -25.4 28.3 -25.45 Q28.1 -25.2 27.75 -25.0 L27.2 -24.7 Q27.3 -25.2 28.45 -25.95 28.75 -25.9 28.8 -25.8 M45.35 -11.15 L46.35 -11.55 47.55 -11.95 48.5 -12.2 49.2 -12.25 47.65 -11.8 Q46.55 -11.45 45.55 -11.05 L45.45 -10.95 Q45.35 -10.9 45.35 -11.15 M43.8 -11.4 Q44.4 -11.55 45.1 -11.9 L45.5 -12.1 42.85 -11.2 42.7 -11.2 Q42.65 -11.15 42.6 -11.1 42.55 -11.1 42.5 -11.15 L42.05 -11.1 42.1 -11.15 42.2 -11.3 43.55 -11.65 44.6 -12.0 Q46.65 -12.7 46.9 -12.75 L46.55 -12.6 Q48.65 -13.25 49.2 -13.3 L46.2 -12.35 Q46.35 -12.3 46.35 -12.25 45.85 -12.0 45.25 -11.75 44.4 -11.4 44.0 -11.35 L43.8 -11.4 M34.2 0.2 L34.2 0.3 31.7 0.35 31.1 0.35 29.35 0.3 29.4 0.25 29.05 0.2 34.2 0.2 M-31.65 -17.8 L-31.3 -17.5 -31.25 -17.4 Q-32.85 -18.4 -33.55 -18.95 -35.0 -20.0 -35.2 -20.6 L-35.1 -20.6 Q-34.8 -20.1 -33.55 -19.15 L-34.65 -20.15 -34.55 -20.2 -33.1 -18.95 Q-32.25 -18.25 -31.5 -17.7 L-31.65 -17.8 M-32.5 -16.75 L-30.95 -15.8 Q-30.15 -15.3 -29.5 -14.85 -30.0 -15.15 -31.0 -15.75 -32.3 -16.45 -32.65 -16.7 L-32.5 -16.75 M-32.0 -16.0 Q-32.7 -16.5 -33.2 -17.0 L-33.2 -17.05 Q-32.35 -16.35 -31.05 -15.5 L-30.8 -15.3 -29.2 -14.5 Q-28.95 -14.4 -28.8 -14.3 L-29.55 -14.55 Q-28.85 -14.15 -28.2 -13.8 -29.35 -14.2 -30.8 -15.1 L-31.3 -15.4 -33.35 -16.7 -33.25 -16.75 -32.0 -16.0 M-22.55 6.1 L-19.4 5.55 -19.35 5.6 -20.6 5.85 Q-21.85 6.05 -22.8 6.45 L-23.2 6.45 Q-23.1 6.15 -22.7 5.85 L-22.15 5.5 -22.0 5.55 Q-21.8 5.55 -21.8 5.6 L-22.2 5.75 Q-22.45 5.9 -22.55 6.05 L-22.55 6.1 M-29.85 2.9 L-29.6 2.85 -29.45 2.8 -29.2 2.8 Q-28.95 2.85 -28.95 2.9 L-29.4 2.95 -30.0 3.05 -34.2 3.2 -34.2 2.95 -29.85 2.9" fill="#ffffff" fill-opacity="0.8" fill-rule="evenodd" stroke="none"/>
      <path d="M2.55 -4.85 L9.15 -4.85 11.0 -4.75 12.8 -4.65 16.7 -4.65 17.0 -4.7 20.55 -4.8 23.4 -5.15 25.7 -5.3 Q27.1 -5.3 27.7 -4.8 27.95 -4.55 27.95 -4.3 27.95 -4.15 27.85 -3.95 L32.65 -4.2 Q32.55 -4.4 32.55 -4.75 32.55 -5.0 33.3 -5.2 L35.15 -5.6 Q38.2 -6.1 39.05 -6.6 39.15 -7.1 40.55 -7.7 42.05 -8.35 42.05 -8.8 42.05 -8.95 41.45 -9.25 L41.4 -9.25 41.25 -9.3 Q40.5 -9.6 39.2 -9.95 L38.2 -10.2 38.05 -10.15 37.8 -10.15 37.45 -10.2 34.8 -10.25 34.1 -10.3 34.0 -10.25 Q33.9 -10.2 33.85 -10.2 L26.75 -9.65 22.15 -9.25 Q21.95 -9.25 21.85 -9.3 21.7 -9.4 21.65 -9.55 21.6 -9.7 21.7 -9.85 L21.7 -9.9 21.75 -9.95 21.9 -10.2 Q22.0 -10.3 22.1 -10.3 L22.6 -10.4 22.45 -10.55 Q22.45 -10.9 22.75 -11.05 22.95 -11.15 23.6 -11.25 L25.0 -11.45 26.95 -11.85 Q27.75 -12.05 28.4 -12.05 L28.55 -12.05 Q28.6 -12.25 28.75 -12.35 L28.65 -12.45 Q29.0 -12.8 30.8 -13.15 33.4 -13.7 37.85 -14.0 L39.9 -13.95 41.9 -14.0 Q42.85 -14.0 43.4 -13.8 L43.85 -13.8 Q44.2 -13.65 44.3 -13.4 47.45 -13.15 49.75 -12.8 52.85 -12.3 53.2 -11.85 53.45 -11.9 53.8 -11.95 54.75 -12.0 55.9 -11.65 57.2 -11.25 58.0 -10.55 58.95 -9.7 58.95 -8.6 58.95 -8.4 58.85 -8.15 L58.85 -7.95 Q58.85 -7.2 58.45 -6.7 L58.2 -6.4 Q58.1 -6.15 57.95 -5.95 57.75 -5.75 57.4 -5.4 L57.35 -5.4 Q56.75 -4.6 56.2 -4.25 L55.95 -4.0 Q55.1 -3.2 54.15 -3.05 53.95 -2.95 53.7 -2.85 L53.65 -2.8 Q52.85 -2.4 51.9 -2.0 51.15 -1.7 51.05 -1.7 50.15 -1.15 49.5 -1.05 L46.85 -0.45 45.6 -0.15 Q43.45 0.55 40.0 0.8 L39.5 0.8 39.45 0.85 39.3 0.85 39.35 0.8 39.0 0.8 38.6 0.5 Q38.45 0.4 38.45 0.3 38.45 0.05 38.6 -0.2 L35.85 0.15 36.1 0.1 36.3 0.15 36.4 0.15 Q36.55 0.25 36.6 0.4 36.65 0.55 36.55 0.7 36.5 0.85 36.35 0.95 35.2 1.45 32.0 2.0 27.8 2.7 22.85 2.7 18.1 2.7 17.85 2.35 17.7 2.25 17.65 2.1 L17.55 2.1 Q17.4 2.1 17.3 1.95 17.2 1.85 17.2 1.7 L16.2 1.7 16.15 1.8 Q16.05 1.9 15.9 1.95 14.9 2.2 12.9 2.3 L6.6 2.8 -1.1 2.85 -2.45 2.95 Q-6.05 2.95 -6.3 2.75 L-11.4 2.75 -15.0 2.6 Q-18.55 2.45 -19.1 2.1 -19.2 2.0 -19.25 1.85 -19.3 1.75 -19.25 1.6 L-19.25 1.55 -19.85 1.55 -22.8 1.45 -26.75 1.45 -28.25 1.35 -29.0 1.35 -37.2 1.1 Q-41.0 0.8 -41.95 0.5 -42.05 0.45 -42.15 0.3 -42.25 0.15 -42.2 0.05 -42.2 -0.1 -42.1 -0.25 L-41.85 -0.4 -41.95 -0.45 -43.75 -0.7 -43.9 -0.8 Q-44.0 -0.85 -44.05 -0.9 L-44.05 -0.95 -44.45 -1.05 Q-48.95 -1.3 -51.75 -2.85 -53.1 -3.6 -53.85 -4.6 -54.6 -5.5 -54.55 -6.4 L-54.55 -6.9 Q-54.5 -7.1 -54.35 -7.3 L-54.2 -7.45 -54.05 -7.5 Q-53.7 -7.55 -53.15 -7.25 L-53.0 -7.1 -52.85 -7.15 -52.8 -7.15 -52.65 -7.1 Q-52.55 -7.1 -52.45 -7.0 L-52.35 -6.9 -52.4 -7.1 Q-52.4 -7.8 -52.1 -8.1 L-52.1 -8.15 Q-52.35 -8.3 -52.35 -8.95 -52.35 -10.2 -50.6 -11.25 -48.5 -12.55 -44.55 -12.95 L-38.15 -13.0 -35.3 -12.65 Q-33.45 -12.35 -33.1 -12.15 -32.8 -11.95 -32.35 -11.95 L-29.15 -11.7 -21.5 -10.95 Q-18.85 -10.6 -18.85 -10.0 -18.85 -9.9 -19.05 -9.7 -19.2 -9.45 -19.45 -9.3 L-24.35 -9.45 -24.4 -9.45 -27.85 -9.5 -29.9 -9.4 Q-31.45 -9.2 -33.15 -8.85 -34.9 -8.45 -36.7 -7.95 -37.0 -8.15 -37.15 -8.35 -37.2 -8.5 -37.2 -8.6 L-37.2 -8.8 -37.45 -8.75 -37.5 -8.7 Q-38.05 -7.95 -38.05 -7.8 -38.05 -7.65 -37.85 -7.35 L-37.8 -7.25 -37.7 -7.2 -34.85 -6.5 Q-33.0 -6.05 -29.5 -5.75 -25.0 -5.3 -15.9 -4.95 L-8.7 -4.95 Q-8.5 -5.0 -6.8 -4.95 L-3.3 -4.8 2.3 -4.8 2.55 -4.85 M2.45 -3.55 L-3.45 -3.55 2.85 -3.3 3.2 -3.05 3.3 -2.85 Q3.3 -2.5 2.35 -2.35 L1.15 -2.3 -1.85 -2.45 -1.95 -2.5 -1.9 -2.4 -1.85 -2.35 Q-1.75 -2.25 -1.75 -2.15 L-1.75 -2.0 -1.8 -1.9 Q-1.65 -1.85 -1.65 -1.8 L-1.9 -1.8 -2.0 -1.7 -2.05 -1.7 -2.75 -1.6 -2.95 -1.55 -3.85 -1.55 -5.4 -1.35 -8.55 -1.05 -8.05 -1.05 -6.45 -1.2 -0.3 -1.25 Q0.05 -1.1 0.2 -0.95 L0.35 -0.8 4.2 -0.95 Q7.5 -1.2 9.3 -1.55 13.85 -1.55 14.1 -1.5 L17.85 -1.5 25.35 -2.1 25.55 -2.1 25.55 -2.4 25.7 -2.35 26.1 -2.4 26.3 -2.4 26.3 -2.1 26.75 -2.0 Q27.05 -1.85 27.15 -1.55 L27.3 -1.55 27.35 -1.6 27.5 -1.6 27.5 -1.55 Q29.55 -1.55 29.55 -1.0 29.55 -0.7 29.4 -0.6 L29.35 -0.55 35.3 -1.05 Q37.75 -1.2 40.9 -1.9 L40.75 -2.65 41.6 -2.8 44.5 -3.25 Q44.7 -3.7 46.7 -4.2 49.9 -5.0 50.9 -5.45 51.5 -5.7 51.8 -7.1 52.0 -7.8 52.05 -8.5 52.05 -8.7 51.8 -9.0 L51.8 -8.7 Q51.85 -7.85 51.3 -6.85 L50.8 -7.45 50.8 -7.5 50.85 -7.5 Q51.25 -7.95 51.15 -8.65 L51.15 -8.95 50.8 -9.45 50.65 -9.45 50.7 -9.6 50.7 -9.65 50.75 -9.6 50.85 -9.9 50.15 -10.5 49.05 -11.3 46.7 -11.3 Q45.65 -11.3 45.2 -11.5 L45.2 -11.6 45.7 -11.85 46.15 -12.05 46.15 -12.15 Q45.6 -12.1 44.55 -12.35 L43.45 -12.55 42.9 -12.55 42.75 -12.5 39.45 -12.25 39.45 -12.7 35.1 -12.45 32.8 -12.15 32.8 -12.1 33.15 -12.1 Q33.5 -12.05 33.6 -11.95 L33.7 -11.8 Q36.1 -12.0 38.1 -11.65 38.9 -11.5 40.0 -11.2 L41.9 -10.7 Q43.2 -10.15 43.55 -9.6 43.7 -9.3 43.7 -8.7 43.7 -7.85 43.1 -7.2 42.3 -6.45 40.55 -5.95 L39.45 -5.4 Q38.6 -5.05 37.4 -4.85 L35.2 -4.4 Q37.5 -4.7 39.45 -5.2 L40.7 -5.45 Q40.7 -5.6 41.2 -5.85 L42.4 -6.3 Q44.15 -7.1 44.15 -8.4 44.15 -9.0 43.85 -10.0 L43.8 -10.15 43.7 -10.15 43.75 -10.3 43.55 -10.85 Q43.55 -11.55 44.25 -11.5 44.85 -11.4 45.7 -10.8 46.55 -10.25 47.2 -9.5 47.85 -8.7 47.85 -8.2 47.85 -7.3 46.4 -6.3 45.7 -5.85 44.9 -5.55 L44.7 -5.4 Q44.7 -5.35 44.8 -5.2 44.95 -5.05 44.95 -4.85 44.95 -4.55 44.55 -4.4 44.0 -4.15 42.7 -4.05 L39.1 -3.8 37.3 -3.55 33.05 -3.3 Q29.4 -3.1 29.0 -2.8 L25.55 -2.8 24.75 -2.85 24.3 -2.75 24.3 -2.7 Q24.3 -2.55 24.25 -2.45 24.2 -2.35 24.1 -2.3 L23.95 -2.2 23.8 -2.65 23.2 -2.55 Q22.0 -2.3 20.1 -2.1 L17.3 -1.8 16.8 -1.95 16.8 -1.9 Q16.75 -1.9 16.75 -2.1 16.75 -2.5 18.2 -2.8 L20.7 -3.25 21.95 -3.5 22.0 -3.55 Q22.1 -3.7 22.25 -3.75 19.7 -3.5 16.85 -3.45 L12.7 -3.45 10.95 -3.55 9.15 -3.65 2.7 -3.65 2.45 -3.55 M2.05 -2.15 L2.05 -1.3 1.4 -1.4 1.15 -1.35 0.1 -1.25 0.05 -1.25 0.2 -1.3 0.0 -2.1 1.9 -2.15 2.05 -2.15 M24.7 -3.9 L25.35 -4.1 22.4 -3.8 24.4 -3.85 24.7 -3.9 M27.1 -0.4 L23.45 -0.2 17.45 0.5 10.15 0.5 10.75 0.55 18.55 0.5 27.3 -0.35 27.15 -0.4 27.1 -0.4 M45.3 -8.45 L45.3 -7.35 Q45.85 -7.35 46.3 -7.8 46.6 -8.1 46.6 -8.25 46.6 -8.6 45.95 -9.1 45.55 -9.45 45.2 -9.65 45.25 -9.2 45.3 -8.45 M42.1 -2.1 L42.25 -2.1 Q42.45 -2.05 42.5 -1.85 L43.3 -2.2 43.55 -1.45 43.65 -1.45 Q45.65 -1.85 47.35 -2.35 L47.45 -1.95 47.55 -1.65 Q48.55 -1.8 49.45 -2.4 L50.3 -3.05 Q50.8 -3.4 51.15 -3.55 51.45 -3.7 52.4 -3.95 L52.5 -4.0 53.6 -4.5 Q53.85 -4.6 54.05 -4.7 L54.35 -5.0 Q54.45 -5.15 54.75 -5.2 L54.85 -5.4 54.45 -5.3 Q53.8 -5.3 53.6 -5.55 53.5 -5.75 53.45 -5.8 L52.8 -5.3 52.3 -4.95 Q51.7 -4.45 48.8 -3.5 45.95 -2.6 45.2 -2.6 L45.05 -2.6 42.4 -2.15 42.2 -2.15 42.1 -2.1 M40.75 -0.55 L40.7 -0.6 40.7 -0.55 40.65 -0.5 40.75 -0.5 40.75 -0.55 M54.5 -9.65 L53.9 -9.8 52.85 -10.0 52.9 -9.95 52.95 -9.95 Q53.75 -9.95 54.25 -9.05 54.55 -8.55 54.8 -7.7 L54.9 -7.7 54.9 -8.9 54.5 -9.65 M55.7 -9.5 L55.85 -8.95 Q56.05 -7.95 56.05 -7.75 56.05 -7.35 55.95 -6.95 56.2 -7.1 56.4 -7.2 L56.65 -7.6 57.1 -8.35 57.0 -8.65 56.75 -9.15 56.3 -9.2 Q56.0 -9.2 55.7 -9.5 M56.3 -9.0 L56.25 -9.1 56.3 -9.1 56.3 -9.0 M2.95 0.4 L2.95 0.35 Q1.25 0.4 -1.15 0.4 -4.75 0.4 -6.35 0.25 -7.25 0.15 -8.0 0.0 L-8.95 0.0 Q-9.85 0.0 -10.25 -0.05 L-13.85 -0.1 -17.2 -0.8 Q-17.25 -0.8 -17.25 -0.9 L-18.85 -0.95 -19.8 -0.95 -19.95 -1.0 -24.95 -1.35 Q-25.55 -1.1 -26.75 -1.1 L-29.95 -0.95 -32.3 -0.85 Q-34.45 -0.85 -36.95 -1.2 L-36.65 -1.15 -30.7 -0.6 Q-30.15 -0.55 -29.9 -0.45 L-27.05 -0.3 -23.1 -0.3 -19.85 -0.15 -14.7 -0.1 -14.65 -0.1 -10.1 0.25 -5.5 0.4 Q-5.35 0.4 -5.25 0.5 -5.15 0.6 -5.1 0.75 L-5.1 0.95 Q-5.05 1.05 -5.1 1.15 L-5.1 1.2 -3.2 1.2 Q-2.7 1.15 -0.8 1.2 L-0.5 1.2 5.0 1.15 Q4.35 1.0 4.1 0.8 L3.3 0.7 2.95 0.4 M-50.35 -9.1 Q-50.3 -9.05 -50.3 -8.85 -50.3 -8.6 -50.4 -8.3 -50.45 -8.1 -50.55 -8.0 L-50.5 -7.95 -50.15 -7.9 -50.55 -7.2 -50.75 -7.45 -51.05 -7.4 Q-51.05 -6.75 -50.25 -6.2 L-49.45 -6.1 -49.55 -5.85 Q-48.6 -5.4 -46.3 -4.75 L-44.55 -4.3 Q-43.5 -4.0 -42.95 -3.55 -42.55 -3.3 -41.55 -3.15 L-41.5 -3.4 -41.45 -3.8 -39.45 -3.5 -39.4 -3.55 Q-39.3 -3.7 -39.15 -3.8 -37.65 -3.85 -36.0 -3.75 L-34.2 -3.65 Q-34.25 -3.95 -34.1 -4.15 -33.9 -4.35 -33.5 -4.35 L-33.2 -4.3 -29.15 -4.2 Q-28.8 -4.1 -28.7 -3.9 L-28.7 -3.8 -28.1 -3.85 -28.1 -3.55 -27.7 -3.2 -26.4 -3.1 -26.45 -2.45 -26.25 -2.45 -25.15 -2.4 -25.0 -2.4 -24.9 -2.35 -21.0 -2.1 -20.95 -2.7 -19.35 -2.55 -18.7 -2.55 -18.7 -2.0 -17.0 -1.95 -9.75 -2.0 Q-8.85 -2.2 -7.25 -2.35 L-4.7 -2.5 Q-3.75 -2.5 -2.95 -2.3 L-2.75 -2.2 -2.7 -2.25 -2.1 -2.35 -2.1 -2.5 -10.5 -2.9 -11.7 -2.95 -16.45 -2.95 -19.0 -3.15 -19.2 -3.05 -19.25 -2.95 -19.55 -2.85 -19.65 -3.7 Q-18.9 -3.65 -18.2 -3.7 L-17.9 -3.65 -17.6 -3.8 Q-29.35 -4.5 -34.55 -5.45 -36.9 -5.85 -38.05 -6.4 -38.2 -6.3 -38.3 -6.3 -38.6 -6.3 -38.8 -6.65 L-38.85 -6.6 Q-38.95 -6.45 -39.3 -6.45 L-39.45 -6.35 -39.05 -6.3 -39.15 -5.9 -39.15 -5.85 -39.25 -5.45 Q-40.0 -5.7 -40.55 -5.9 L-40.6 -5.8 Q-40.8 -5.6 -41.0 -5.6 L-41.85 -5.6 Q-43.3 -5.5 -44.45 -6.6 -44.9 -7.0 -45.15 -7.5 -45.4 -7.95 -45.4 -8.2 -45.4 -9.1 -44.45 -9.6 -43.2 -10.3 -39.85 -10.5 L-38.85 -10.5 -38.6 -10.3 Q-38.25 -10.45 -37.85 -10.55 L-37.8 -10.15 -37.8 -10.05 Q-37.35 -10.25 -36.85 -10.2 L-35.8 -10.2 -34.8 -10.7 -34.5 -10.8 -34.6 -10.95 -35.05 -10.95 -34.9 -11.0 -34.85 -11.0 -34.95 -11.4 -37.35 -11.7 -40.0 -11.85 -44.45 -11.8 Q-47.85 -11.4 -49.45 -10.65 -50.6 -10.1 -51.25 -9.1 -51.1 -9.2 -50.95 -9.2 L-50.4 -9.2 -50.35 -9.1 M-49.55 -6.45 L-49.3 -6.6 -49.35 -6.35 Q-49.45 -6.4 -49.55 -6.45 M-48.85 -6.8 Q-48.85 -6.65 -49.0 -6.5 L-49.05 -6.7 -48.85 -6.8 M-39.85 -9.5 Q-42.75 -9.2 -43.45 -9.0 -44.2 -8.8 -44.2 -8.2 -44.2 -7.85 -43.65 -7.45 -43.0 -6.95 -42.15 -6.9 -42.15 -7.55 -42.1 -7.9 -41.9 -8.8 -41.45 -8.8 -41.2 -8.8 -40.8 -8.25 -40.45 -7.85 -40.4 -7.7 L-40.3 -7.7 Q-40.4 -8.0 -40.25 -8.5 -40.15 -9.05 -39.9 -9.45 L-39.85 -9.5 M-44.55 -11.15 L-44.55 -11.15 M-44.8 -11.3 L-44.8 -11.25 -44.95 -11.3 -44.8 -11.3 M-44.85 -10.45 L-44.75 -10.8 -44.7 -10.5 -44.85 -10.45 M-40.65 -6.55 L-40.65 -6.55 M-45.7 -3.2 L-45.75 -3.15 -45.05 -2.95 -44.65 -2.85 -45.7 -3.2 M-38.35 -4.9 L-38.4 -4.45 -38.45 -4.05 -38.85 -4.15 -38.55 -4.85 -38.6 -4.9 -38.35 -4.9 M-39.55 -2.9 L-35.6 -2.6 -35.6 -2.75 -36.65 -2.75 Q-38.4 -2.85 -39.7 -3.05 L-39.8 -3.0 -39.85 -3.0 -40.1 -2.95 -40.25 -2.95 -39.55 -2.9 M-32.1 -10.7 L-32.8 -10.35 Q-33.0 -10.25 -33.2 -10.15 L-32.35 -10.25 -31.9 -10.3 -31.9 -10.15 -31.6 -10.2 -29.8 -10.45 -29.45 -10.55 -31.45 -10.75 -32.45 -10.8 -32.3 -10.75 Q-32.15 -10.75 -32.1 -10.7 M-32.6 -2.2 L-32.6 -2.2 M-29.15 -2.45 L-28.75 -2.45 -29.15 -2.5 -29.4 -2.45 -29.15 -2.45 M-5.95 -3.7 L-5.4 -3.7 -5.4 -3.65 -3.6 -3.6 -5.25 -3.7 -7.25 -3.75 -5.95 -3.7" fill="#ffffff" fill-opacity="0.5019608" fill-rule="evenodd" stroke="none"/>
      <path d="M1.9 -1.7 L2.1 -1.75 1.35 -1.8 1.2 -1.8 0.05 -1.7 1.9 -1.7 M0.0 -0.4 L-2.7 -0.3 -8.15 -0.3 Q-10.35 -0.35 -11.65 -0.55 L-12.35 -0.65 -14.15 -0.65 Q-16.15 -0.8 -16.35 -0.9 -16.4 -0.95 -16.4 -1.1 -16.45 -1.3 -16.55 -1.45 L-15.0 -1.35 -14.35 -1.35 -14.3 -1.4 -13.45 -1.45 -17.3 -1.7 -17.75 -1.7 -24.05 -1.9 -32.3 -2.5 -32.35 -2.6 Q-31.9 -2.75 -28.4 -2.8 L-26.45 -2.7 -27.0 -2.75 -29.65 -2.95 -29.85 -3.0 -30.05 -3.15 Q-29.3 -3.4 -28.05 -3.45 L-32.95 -3.7 -32.9 -3.7 -32.5 -3.65 -32.4 -3.45 -32.7 -3.2 Q-33.05 -3.05 -33.55 -3.05 L-34.95 -3.2 -35.4 -3.2 Q-38.05 -3.2 -39.75 -3.5 -39.85 -3.45 -39.9 -3.45 L-40.2 -3.4 -40.75 -3.35 -41.55 -3.4 Q-39.75 -3.05 -35.6 -2.65 L-26.7 -1.7 -26.8 -1.6 -28.15 -1.45 -29.15 -1.4 Q-36.45 -1.4 -42.75 -2.8 -47.1 -3.75 -50.75 -5.3 L-50.85 -5.35 -50.85 -5.6 Q-50.85 -5.95 -49.55 -5.65 L-49.55 -5.7 Q-51.2 -6.2 -51.45 -6.6 L-51.45 -6.7 Q-51.6 -6.85 -51.75 -7.05 -51.95 -7.3 -51.95 -7.5 -51.95 -7.7 -51.85 -7.75 L-51.7 -7.8 Q-51.65 -7.8 -51.5 -7.65 L-50.2 -7.5 Q-50.5 -7.8 -50.5 -8.15 -50.5 -8.45 -50.45 -8.6 L-50.7 -8.9 -50.95 -8.55 -51.0 -8.45 -51.0 -8.3 -51.35 -8.2 Q-51.7 -8.3 -51.85 -8.5 -51.95 -8.6 -51.95 -8.75 -51.95 -8.95 -51.75 -9.1 L-51.8 -9.2 Q-51.8 -9.35 -51.6 -9.5 L-51.6 -9.6 Q-51.6 -9.95 -50.6 -10.55 -50.3 -10.8 -49.75 -11.0 L-49.35 -11.25 Q-48.35 -11.6 -48.05 -11.7 L-47.15 -12.1 -46.65 -12.15 -46.1 -12.1 Q-44.35 -12.45 -42.3 -12.5 -40.3 -12.65 -38.3 -12.55 -36.5 -12.4 -35.55 -12.05 L-34.65 -11.9 -34.35 -11.55 -34.4 -11.45 Q-34.45 -11.4 -34.7 -11.4 L-35.05 -11.4 -28.3 -11.15 -28.1 -11.05 -27.95 -11.0 -27.2 -10.9 -24.45 -10.45 Q-24.25 -10.45 -24.2 -10.4 L-22.15 -10.25 Q-21.35 -10.05 -20.9 -10.05 -20.35 -9.95 -20.3 -9.85 L-20.35 -9.75 Q-24.65 -10.0 -30.2 -9.55 L-36.05 -8.95 -36.1 -9.2 Q-34.15 -9.6 -32.3 -9.85 L-31.85 -9.9 -32.6 -9.85 Q-37.25 -9.65 -39.1 -8.45 L-38.95 -8.1 -38.75 -7.7 Q-38.85 -7.4 -39.2 -7.4 -39.75 -7.4 -39.9 -7.9 -40.0 -8.15 -40.0 -8.45 -40.0 -9.15 -38.75 -9.75 -38.3 -9.95 -37.75 -10.15 L-39.5 -10.05 -41.6 -9.75 -43.35 -9.45 Q-44.05 -9.25 -44.45 -8.75 -44.8 -8.35 -44.8 -8.0 L-44.7 -7.75 -44.55 -7.65 Q-43.55 -6.9 -43.0 -6.8 L-41.7 -6.45 Q-41.0 -6.1 -39.1 -5.85 -41.8 -6.7 -41.8 -7.55 -41.8 -8.05 -41.7 -8.2 -41.55 -8.5 -41.0 -8.45 -40.95 -8.3 -40.95 -8.15 L-41.0 -7.8 Q-41.0 -7.55 -38.6 -6.85 -36.05 -6.15 -34.15 -5.95 L-30.7 -5.5 -28.0 -5.1 Q-27.35 -4.95 -25.85 -4.8 L-25.45 -4.8 -16.45 -4.3 -7.85 -4.35 -5.45 -4.25 -5.2 -4.3 Q-4.85 -4.35 -4.45 -4.2 L-4.3 -4.2 0.95 -3.95 16.75 -3.95 22.2 -4.2 24.1 -4.3 25.3 -4.4 26.05 -4.3 27.05 -4.2 Q25.6 -3.6 24.15 -3.4 L20.9 -3.1 20.75 -3.0 23.55 -2.75 Q23.8 -2.8 23.9 -2.7 L23.75 -2.6 Q25.3 -2.9 27.05 -3.05 L29.3 -3.2 31.25 -3.35 35.9 -3.95 38.45 -4.25 Q40.65 -4.65 43.25 -5.25 L42.45 -5.05 42.2 -5.1 42.05 -5.1 Q41.8 -5.1 41.75 -5.15 L41.75 -5.2 Q42.0 -5.7 43.65 -6.05 L43.75 -6.1 Q45.3 -6.45 45.95 -6.65 L46.25 -6.8 46.6 -6.95 46.75 -7.1 47.25 -7.75 47.4 -7.9 47.4 -8.5 47.35 -8.7 Q47.15 -9.4 46.6 -9.7 45.35 -10.3 44.4 -10.45 L43.75 -10.55 44.25 -10.1 Q44.95 -9.25 44.95 -8.7 44.95 -8.25 44.15 -7.65 44.05 -6.15 39.45 -5.1 37.9 -4.75 36.1 -4.55 L34.45 -4.35 33.85 -4.4 33.55 -4.45 Q33.55 -4.5 33.45 -4.6 33.75 -5.0 36.2 -5.4 39.2 -5.9 40.55 -6.45 L41.7 -7.2 Q42.8 -7.95 43.35 -8.35 L43.35 -8.6 Q43.35 -9.4 42.15 -10.15 L41.3 -10.4 40.4 -10.7 39.45 -10.75 35.55 -10.9 29.05 -10.95 24.05 -10.55 23.95 -10.7 Q23.95 -10.75 24.05 -10.9 L24.3 -11.05 26.3 -11.35 29.3 -11.55 32.0 -11.85 Q32.2 -12.05 32.8 -12.15 31.25 -12.0 29.7 -11.75 29.3 -11.8 29.2 -11.95 30.05 -12.65 32.25 -12.95 L38.45 -13.45 Q41.2 -13.5 42.9 -13.2 L42.95 -13.1 Q42.85 -13.0 42.7 -12.95 L39.45 -12.7 40.75 -12.7 44.3 -12.95 49.55 -12.45 51.1 -12.2 Q52.4 -11.95 52.65 -11.8 L51.65 -11.75 50.55 -11.7 49.8 -11.8 47.1 -11.8 48.55 -11.5 50.95 -10.9 Q51.1 -10.75 51.35 -10.55 L51.6 -10.55 Q52.0 -10.45 52.45 -10.0 52.8 -9.8 52.9 -9.3 52.95 -9.15 52.95 -8.5 52.95 -7.55 52.7 -7.1 L52.7 -6.95 Q52.35 -6.15 51.55 -5.5 50.3 -4.55 46.8 -3.4 L46.85 -3.5 Q46.15 -3.25 45.35 -3.1 L42.35 -2.6 42.15 -2.55 40.8 -2.25 41.65 -2.35 49.05 -3.55 Q49.95 -4.0 50.6 -4.45 L52.4 -5.6 Q53.3 -6.2 53.45 -6.8 53.65 -7.6 53.7 -8.05 53.7 -8.25 53.5 -8.7 53.4 -9.1 53.8 -9.2 53.95 -8.95 54.2 -8.2 54.4 -7.5 54.4 -7.25 54.4 -6.45 54.0 -5.75 55.85 -7.0 55.85 -8.3 55.85 -9.0 55.45 -9.55 55.15 -9.95 54.7 -10.35 L53.65 -10.7 Q53.95 -11.1 55.3 -10.9 56.55 -10.75 57.05 -10.3 57.55 -9.6 57.6 -9.35 L57.65 -8.6 Q57.65 -7.8 57.45 -7.4 L57.4 -7.25 57.4 -7.15 Q57.4 -6.85 57.15 -6.55 57.55 -6.8 57.75 -7.05 57.65 -6.05 55.8 -4.75 54.0 -3.5 51.1 -2.3 48.2 -1.1 45.15 -0.4 41.85 0.4 39.3 0.45 L39.2 0.5 Q39.1 0.5 39.1 0.3 39.1 -0.25 40.4 -0.5 L43.7 -1.05 Q45.75 -1.45 47.45 -1.95 46.2 -1.6 44.75 -1.35 L44.55 -1.3 44.4 -1.25 41.9 -0.8 41.05 -0.8 41.8 -1.1 43.45 -1.8 43.05 -1.7 Q40.8 -1.2 38.7 -0.85 L40.3 -0.95 40.35 -0.8 40.3 -0.75 Q37.7 -0.35 28.8 0.25 18.5 0.95 12.0 0.95 9.1 0.95 7.4 0.9 5.15 0.75 4.4 0.45 L4.3 0.25 Q10.35 0.25 25.15 -0.3 L29.2 -0.5 Q27.4 -0.7 26.95 -0.95 27.2 -1.1 27.6 -1.2 L27.55 -1.2 27.65 -1.3 26.0 -1.3 20.0 -0.8 17.3 -0.85 17.0 -0.85 9.7 -0.8 8.85 -0.7 4.15 -0.7 0.0 -0.4 M22.1 -9.75 L22.2 -9.9 Q23.85 -10.25 27.25 -10.6 31.4 -10.95 33.85 -10.7 L33.8 -10.6 26.7 -10.1 22.05 -9.7 22.1 -9.75 M25.7 -1.95 L26.15 -2.0 26.35 -2.0 25.5 -1.95 25.7 -1.95 M56.65 -9.2 L56.65 -9.2 M50.75 -9.9 Q51.4 -9.25 51.4 -8.7 51.4 -7.95 50.9 -7.1 L51.1 -7.15 51.15 -7.2 Q51.7 -7.75 51.6 -8.7 L51.55 -9.15 Q51.2 -9.6 51.1 -9.8 L50.75 -9.9 M51.05 -10.5 L51.05 -10.5 M36.2 0.55 Q35.05 1.05 31.95 1.55 27.75 2.25 22.85 2.25 18.35 2.25 18.15 2.05 18.1 2.0 18.15 1.95 L18.2 1.85 Q18.2 1.75 17.6 1.7 L29.25 1.0 36.2 0.55 M12.85 1.9 L6.55 2.4 -1.15 2.45 -2.45 2.55 -6.1 2.4 -6.1 2.3 -11.3 2.3 -14.95 2.15 Q-18.35 2.0 -18.85 1.7 -18.2 1.25 -15.75 1.3 L-11.5 1.65 -3.2 1.65 Q-2.7 1.6 -0.8 1.6 L-0.5 1.6 6.95 1.55 Q14.0 1.35 15.85 1.45 L15.8 1.55 Q14.85 1.75 12.85 1.9 M-54.0 -7.05 Q-53.65 -7.1 -53.05 -6.6 -53.05 -6.85 -53.0 -6.7 L-52.8 -6.7 Q-51.85 -5.65 -51.65 -5.45 -50.65 -4.55 -49.2 -4.0 L-46.55 -3.0 -45.15 -2.55 -43.8 -2.25 Q-42.5 -1.95 -42.0 -1.8 L-39.8 -1.35 Q-38.05 -1.05 -36.75 -0.7 L-30.75 -0.2 Q-30.2 -0.1 -30.05 -0.05 L-27.05 0.1 -23.15 0.15 -19.85 0.3 -14.7 0.3 Q-12.8 0.55 -10.1 0.65 L-5.55 0.8 -5.5 1.05 -6.25 1.15 -7.0 1.2 -13.0 1.2 -14.7 1.1 -19.85 1.15 -22.75 1.05 -26.7 1.0 -28.25 0.9 -29.0 0.95 -37.15 0.65 Q-40.85 0.4 -41.8 0.05 -41.35 -0.35 -39.7 -0.35 L-38.8 -0.25 -40.15 -0.5 -41.85 -0.85 -43.7 -1.15 -43.75 -1.3 -44.4 -1.45 Q-48.8 -1.7 -51.55 -3.2 -52.85 -3.95 -53.5 -4.85 -54.15 -5.65 -54.15 -6.4 L-54.1 -6.8 -54.0 -7.05 M-49.2 -6.75 L-49.2 -6.75 M-44.85 -10.9 L-44.85 -10.9 M-38.65 -4.45 L-38.35 -4.45 -38.75 -4.55 -38.65 -4.45 M-19.7 -3.3 Q-18.95 -3.25 -18.2 -3.25 L-14.55 -3.2 -12.15 -3.1 -7.25 -3.15 -6.7 -3.25 -5.4 -3.25 -7.85 -3.35 -16.45 -3.4 -19.15 -3.6 -19.45 -3.35 Q-19.55 -3.3 -19.7 -3.3 M-19.75 -1.45 L-19.7 -1.5 -17.8 -1.4 -19.8 -1.4 -19.75 -1.45 M-18.7 -2.15 L-21.0 -2.25 -19.35 -2.15 -18.7 -2.15 M-6.7 -1.55 L-2.85 -1.55 -2.0 -1.7 Q-2.45 -1.75 -2.55 -1.8 -1.95 -2.0 -1.05 -2.15 L-2.25 -2.15 -2.2 -2.1 -2.8 -2.0 -3.6 -1.95 -4.05 -2.0 Q-4.25 -2.0 -4.6 -2.0 L-5.15 -2.0 Q-5.2 -1.95 -5.3 -1.95 L-7.85 -1.65 -11.75 -1.45 -11.15 -1.4 -9.7 -1.4 -6.7 -1.55" fill="#ffffff" fill-opacity="0.8" fill-rule="evenodd" stroke="none"/>
    </g>
  </defs>
</svg>
