<?xml version="1.0" encoding="UTF-8" standalone="no"?>
<svg xmlns:ffdec="https://www.free-decompiler.com/flash" xmlns:xlink="http://www.w3.org/1999/xlink" ffdec:objectType="frame" height="905.0px" width="1385.05px" xmlns="http://www.w3.org/2000/svg">
  <g transform="matrix(1.0, 0.0, 0.0, 1.0, 2.5, 762.5)">
    <use ffdec:characterId="293" height="905.0" transform="matrix(1.0, 0.0, 0.0, 1.0, -2.5, -762.5)" width="1385.05" xlink:href="#shape0"/>
    <use ffdec:characterId="295" height="765.0" id="am_DoorLocal_G" transform="matrix(1.0, 0.0, 0.0, 1.0, 17.5, -742.5)" width="5.0" xlink:href="#sprite0"/>
  </g>
  <defs>
    <g id="shape0" transform="matrix(1.0, 0.0, 0.0, 1.0, 2.5, 762.5)">
      <path d="M1380.0 20.0 L980.0 20.0 620.0 0.0 480.0 -20.0 360.0 -40.0 220.0 -80.0 100.0 -100.0 0.0 -100.0" fill="none" stroke="#00ffff" stroke-linecap="round" stroke-linejoin="round" stroke-width="5.0"/>
      <path d="M0.0 -100.0 L0.0 140.0 M0.0 -100.0 L0.0 -760.0" fill="none" stroke="#ffff00" stroke-linecap="round" stroke-linejoin="round" stroke-width="5.0"/>
      <path d="M0.0 140.0 L1380.05 140.0" fill="none" stroke="#666666" stroke-linecap="round" stroke-linejoin="round" stroke-width="5.0"/>
    </g>
    <g id="sprite0" transform="matrix(1.0, 0.0, 0.0, 1.0, 2.5, 2.5)">
      <use ffdec:characterId="294" height="765.0" transform="matrix(1.0, 0.0, 0.0, 1.0, -2.5, -2.5)" width="5.0" xlink:href="#shape1"/>
    </g>
    <g id="shape1" transform="matrix(1.0, 0.0, 0.0, 1.0, 2.5, 2.5)">
      <path d="M0.0 0.0 L0.0 760.0" fill="none" stroke="#00ffff" stroke-linecap="round" stroke-linejoin="round" stroke-width="5.0"/>
    </g>
  </defs>
</svg>
