<?xml version="1.0" encoding="UTF-8" standalone="no"?>
<svg xmlns:ffdec="https://www.free-decompiler.com/flash" xmlns:xlink="http://www.w3.org/1999/xlink" ffdec:objectType="frame" height="38.0px" width="206.05px" xmlns="http://www.w3.org/2000/svg">
  <g transform="matrix(1.0, 0.0, 0.0, 1.0, 7.2, 1.5)">
    <clipPath id="clipPath0" transform="matrix(1.0, 0.0, 0.0, 1.0, 0.0, 0.0)">
      <path d="M190.45 -0.5 L190.5 -0.45 Q193.0 0.4 194.8 1.95 L194.8 1.9 Q198.85 5.3 198.85 12.2 L198.85 22.85 Q198.85 29.75 194.8 33.15 190.95 36.5 183.25 36.5 L8.4 36.5 Q-5.25 36.5 -6.9 26.15 L-7.2 22.85 -7.2 12.2 Q-7.3 -1.5 8.4 -1.5 L183.25 -1.5 Q187.25 -1.5 190.2 -0.55 L190.45 -0.5" fill="#ff0000" fill-rule="evenodd" stroke="none"/>
    </clipPath>
    <g clip-path="url(#clipPath0)">
      <filter id="filter0">
        <feColorMatrix in="SourceGraphic" result="filterResult0" type="matrix" values="1.4004409 -0.48106277 0.08062185 0.0 -0.015686275 -0.17278172 1.2641993 -0.09141749 0.0 -0.015686277 -0.3049011 -0.27791142 1.5828125 0.0 -0.015686274 0.0 0.0 0.0 1.0 0.0"/>
      </filter>
      <use ffdec:characterId="74" filter="url(#filter0)" height="26.0" transform="matrix(1.0, 0.0, 0.0, 1.0, -0.8, 4.5)" width="193.35" xlink:href="#sprite0"/>
      <use ffdec:characterId="76" height="8.35" transform="matrix(1.0, 0.0, 0.0, 1.0, 0.7, 5.5)" width="190.3" xlink:href="#sprite1"/>
      <use ffdec:characterId="78" height="9.65" transform="matrix(1.0, 0.0, 0.0, 1.0, 0.7, 19.85)" width="190.55" xlink:href="#sprite2"/>
      <filter id="filter1">
        <feColorMatrix in="SourceGraphic" result="filterResult1" type="matrix" values="-0.5010827 0.7326473 0.76843536 0.0 0.0 0.46555555 0.6072402 -0.07279582 0.0 0.0 -0.18047667 1.7260085 -0.54553205 0.0 0.0 0.0 0.0 0.0 1.0 0.0"/>
        <feColorMatrix in="filterResult1" result="filterResult2" type="matrix" values="0 0 0 0 0.0,0 0 0 0 1.0,0 0 0 0 1.0,0 0 0 1 0"/>
        <feConvolveMatrix divisor="144.0" in="filterResult2" kernelMatrix="1 1 1 1 1 1 1 1 1 1 1 1 1 1 1 1 1 1 1 1 1 1 1 1 1 1 1 1 1 1 1 1 1 1 1 1 1 1 1 1 1 1 1 1 1 1 1 1 1 1 1 1 1 1 1 1 1 1 1 1 1 1 1 1 1 1 1 1 1 1 1 1 1 1 1 1 1 1 1 1 1 1 1 1 1 1 1 1 1 1 1 1 1 1 1 1 1 1 1 1 1 1 1 1 1 1 1 1 1 1 1 1 1 1 1 1 1 1 1 1 1 1 1 1 1 1 1 1 1 1 1 1 1 1 1 1 1 1 1 1 1 1 1 1" order="12 12" result="filterResult3"/>
        <feComposite in="filterResult1" in2="filterResult3" operator="over" result="filterResult4"/>
      </filter>
      <use ffdec:characterId="83" filter="url(#filter1)" height="38.0" transform="matrix(1.0, 0.0, 0.0, 1.0, -7.2, -1.5)" width="206.05" xlink:href="#sprite3"/>
      <filter id="filter14">
        <feColorMatrix in="SourceGraphic" result="filterResult5" type="matrix" values="0 0 0 0 0.0,0 0 0 0 0.33333334,0 0 0 0 0.45882353,0 0 0 1 0"/>
        <feConvolveMatrix divisor="16.0" in="filterResult5" kernelMatrix="1 1 1 1 1 1 1 1 1 1 1 1 1 1 1 1" order="4 4" result="filterResult6"/>
        <feComposite in="SourceGraphic" in2="filterResult6" operator="over" result="filterResult7"/>
      </filter>
      <use ffdec:characterId="175" filter="url(#filter14)" height="25.2" transform="matrix(1.0, 0.0, 0.0, 1.0, -0.45, 5.0)" width="192.6" xlink:href="#text0"/>
    </g>
  </g>
  <defs>
    <g id="sprite0" transform="matrix(1.0, 0.0, 0.0, 1.0, 0.0, 0.0)">
      <use ffdec:characterId="73" height="26.0" transform="matrix(1.0, 0.0, 0.0, 1.0, 0.0, 0.0)" width="193.35" xlink:href="#shape1"/>
    </g>
    <g id="shape1" transform="matrix(1.0, 0.0, 0.0, 1.0, 0.0, 0.0)">
      <path d="M193.35 18.35 L193.25 20.2 Q192.15 26.0 184.15 26.0 L9.2 26.0 8.4 26.0 Q1.2 25.7 0.15 20.2 L0.0 18.35 0.0 7.7 Q0.1 0.35 8.4 0.05 L9.2 0.0 184.15 0.0 Q188.65 0.0 191.05 1.8 192.8 3.25 193.25 5.9 L193.35 7.7 193.35 18.35" fill="url(#gradient0)" fill-rule="evenodd" stroke="none"/>
    </g>
    <linearGradient gradientTransform="matrix(0.0, 0.0181, -0.0159, 0.0, 96.65, 13.0)" gradientUnits="userSpaceOnUse" id="gradient0" spreadMethod="pad" x1="-819.2" x2="819.2">
      <stop offset="0.0" stop-color="#145070"/>
      <stop offset="1.0" stop-color="#84dffd"/>
    </linearGradient>
    <g id="sprite1" transform="matrix(1.0, 0.0, 0.0, 1.0, 78.65, 4.15)">
      <use ffdec:characterId="75" height="8.35" transform="matrix(1.0, 0.0, 0.0, 1.0, -78.65, -4.15)" width="190.3" xlink:href="#shape2"/>
    </g>
    <g id="shape2" transform="matrix(1.0, 0.0, 0.0, 1.0, 78.65, 4.15)">
      <path d="M-3.25 4.2 L-34.5 4.2 -34.5 -4.15 -3.25 -4.15 -3.25 4.2" fill="url(#gradient1)" fill-rule="evenodd" stroke="none"/>
      <path d="M-0.25 4.2 L-3.25 4.2 -3.25 -4.15 -0.25 -4.15 -0.25 4.2" fill="url(#gradient2)" fill-rule="evenodd" stroke="none"/>
      <path d="M-68.5 4.2 L-78.65 4.2 -78.65 2.1 Q-78.45 -4.15 -70.95 -4.15 L-68.5 -4.15 -68.5 4.2" fill="url(#gradient3)" fill-rule="evenodd" stroke="none"/>
      <path d="M-34.5 4.2 L-68.5 4.2 -68.5 -4.15 -34.5 -4.15 -34.5 4.2" fill="url(#gradient4)" fill-rule="evenodd" stroke="none"/>
      <path d="M9.15 4.2 L-0.25 4.2 -0.25 -4.15 9.15 -4.15 9.15 4.2" fill="url(#gradient5)" fill-rule="evenodd" stroke="none"/>
      <path d="M9.15 -4.15 L21.85 -4.15 21.85 4.2 9.15 4.2 9.15 -4.15" fill="url(#gradient6)" fill-rule="evenodd" stroke="none"/>
      <path d="M93.8 -4.15 L103.95 -4.15 Q107.8 -4.15 109.9 -2.7 111.15 -1.6 111.55 0.35 L111.55 0.45 111.65 2.05 111.65 4.2 93.8 4.2 93.8 -4.15" fill="url(#gradient7)" fill-rule="evenodd" stroke="none"/>
      <path d="M87.9 -4.15 L93.8 -4.15 93.8 4.2 87.9 4.2 87.9 -4.15" fill="url(#gradient8)" fill-rule="evenodd" stroke="none"/>
      <path d="M21.85 -4.15 L70.6 -4.15 70.6 4.2 21.85 4.2 21.85 -4.15" fill="url(#gradient9)" fill-rule="evenodd" stroke="none"/>
      <path d="M70.6 -4.15 L87.9 -4.15 87.9 4.2 70.6 4.2 70.6 -4.15" fill="url(#gradient10)" fill-rule="evenodd" stroke="none"/>
    </g>
    <linearGradient gradientTransform="matrix(0.0, 0.0035, -0.0051, 0.0, -0.25, -1.0)" gradientUnits="userSpaceOnUse" id="gradient1" spreadMethod="pad" x1="-819.2" x2="819.2">
      <stop offset="0.0" stop-color="#ffffff" stop-opacity="0.6"/>
      <stop offset="0.596078431372549" stop-color="#ffffff" stop-opacity="0.0"/>
    </linearGradient>
    <linearGradient gradientTransform="matrix(0.0, 0.0035, -0.0051, 0.0, -31.45, -1.0)" gradientUnits="userSpaceOnUse" id="gradient2" spreadMethod="pad" x1="-819.2" x2="819.2">
      <stop offset="0.0" stop-color="#ffffff" stop-opacity="0.6"/>
      <stop offset="0.596078431372549" stop-color="#ffffff" stop-opacity="0.0"/>
    </linearGradient>
    <linearGradient gradientTransform="matrix(0.0, 0.0035, -0.0051, 0.0, -23.65, -1.0)" gradientUnits="userSpaceOnUse" id="gradient3" spreadMethod="pad" x1="-819.2" x2="819.2">
      <stop offset="0.0" stop-color="#ffffff" stop-opacity="0.6"/>
      <stop offset="0.596078431372549" stop-color="#ffffff" stop-opacity="0.0"/>
    </linearGradient>
    <linearGradient gradientTransform="matrix(0.0, 0.0035, -0.0265, 0.0, 143.3, -1.0)" gradientUnits="userSpaceOnUse" id="gradient4" spreadMethod="pad" x1="-819.2" x2="819.2">
      <stop offset="0.0" stop-color="#ffffff" stop-opacity="0.6"/>
      <stop offset="0.596078431372549" stop-color="#ffffff" stop-opacity="0.0"/>
    </linearGradient>
    <linearGradient gradientTransform="matrix(0.0, 0.0035, -0.0342, 0.0, -209.5, -1.0)" gradientUnits="userSpaceOnUse" id="gradient5" spreadMethod="pad" x1="-819.2" x2="819.2">
      <stop offset="0.0" stop-color="#ffffff" stop-opacity="0.6"/>
      <stop offset="0.596078431372549" stop-color="#ffffff" stop-opacity="0.0"/>
    </linearGradient>
    <linearGradient gradientTransform="matrix(0.0, 0.0035, -0.1833, 0.0, -1163.65, -1.0)" gradientUnits="userSpaceOnUse" id="gradient6" spreadMethod="pad" x1="-819.2" x2="819.2">
      <stop offset="0.0" stop-color="#ffffff" stop-opacity="0.6"/>
      <stop offset="0.596078431372549" stop-color="#ffffff" stop-opacity="0.0"/>
    </linearGradient>
    <linearGradient gradientTransform="matrix(0.0, 0.0035, -0.0051, 0.0, 56.15, -1.0)" gradientUnits="userSpaceOnUse" id="gradient7" spreadMethod="pad" x1="-819.2" x2="819.2">
      <stop offset="0.0" stop-color="#ffffff" stop-opacity="0.6"/>
      <stop offset="0.596078431372549" stop-color="#ffffff" stop-opacity="0.0"/>
    </linearGradient>
    <linearGradient gradientTransform="matrix(0.0, 0.0035, -0.0342, 0.0, -145.3, -1.0)" gradientUnits="userSpaceOnUse" id="gradient8" spreadMethod="pad" x1="-819.2" x2="819.2">
      <stop offset="0.0" stop-color="#ffffff" stop-opacity="0.6"/>
      <stop offset="0.596078431372549" stop-color="#ffffff" stop-opacity="0.0"/>
    </linearGradient>
    <linearGradient gradientTransform="matrix(0.0, 0.0035, -0.5323, 0.0, -3420.0, -1.0)" gradientUnits="userSpaceOnUse" id="gradient9" spreadMethod="pad" x1="-819.2" x2="819.2">
      <stop offset="0.0" stop-color="#ffffff" stop-opacity="0.6"/>
      <stop offset="0.596078431372549" stop-color="#ffffff" stop-opacity="0.0"/>
    </linearGradient>
    <linearGradient gradientTransform="matrix(0.0, 0.0035, -0.0992, 0.0, -587.4, -1.0)" gradientUnits="userSpaceOnUse" id="gradient10" spreadMethod="pad" x1="-819.2" x2="819.2">
      <stop offset="0.0" stop-color="#ffffff" stop-opacity="0.6"/>
      <stop offset="0.596078431372549" stop-color="#ffffff" stop-opacity="0.0"/>
    </linearGradient>
    <g id="sprite2" transform="matrix(1.0, 0.0, 0.0, 1.0, 78.65, 4.8)">
      <use ffdec:characterId="77" height="9.65" transform="matrix(1.0, 0.0, 0.0, 1.0, -78.65, -4.8)" width="190.55" xlink:href="#shape3"/>
    </g>
    <g id="shape3" transform="matrix(1.0, 0.0, 0.0, 1.0, 78.65, 4.8)">
      <path d="M3.65 -4.8 L19.0 -4.8 19.0 4.85 3.65 4.85 3.65 -4.8" fill="url(#gradient11)" fill-rule="evenodd" stroke="none"/>
      <path d="M75.15 -4.8 L76.6 -4.8 76.6 4.85 75.15 4.85 75.15 -4.8" fill="url(#gradient12)" fill-rule="evenodd" stroke="none"/>
      <path d="M19.0 -4.8 L75.15 -4.8 75.15 4.85 19.0 4.85 19.0 -4.8" fill="url(#gradient13)" fill-rule="evenodd" stroke="none"/>
      <path d="M92.9 -4.8 L111.9 -4.8 111.9 -1.3 111.8 0.4 Q110.75 4.85 104.2 4.85 L92.9 4.85 92.9 -4.8" fill="url(#gradient14)" fill-rule="evenodd" stroke="none"/>
      <path d="M91.35 -4.8 L92.9 -4.8 92.9 4.85 91.35 4.85 91.35 -4.8" fill="url(#gradient15)" fill-rule="evenodd" stroke="none"/>
      <path d="M76.6 -4.8 L91.35 -4.8 91.35 4.85 76.6 4.85 76.6 -4.8" fill="url(#gradient16)" fill-rule="evenodd" stroke="none"/>
      <path d="M3.65 4.85 L-5.2 4.85 -5.2 -4.8 3.65 -4.8 3.65 4.85" fill="url(#gradient17)" fill-rule="evenodd" stroke="none"/>
      <path d="M-63.0 4.85 L-70.95 4.85 Q-77.5 4.85 -78.5 0.3 L-78.65 -1.3 -78.65 -4.8 -63.0 -4.8 -63.0 4.85" fill="url(#gradient18)" fill-rule="evenodd" stroke="none"/>
      <path d="M-5.2 4.85 L-29.0 4.85 -29.0 -4.8 -5.2 -4.8 -5.2 4.85" fill="url(#gradient19)" fill-rule="evenodd" stroke="none"/>
      <path d="M-29.0 4.85 L-63.0 4.85 -63.0 -4.8 -29.0 -4.8 -29.0 4.85" fill="url(#gradient20)" fill-rule="evenodd" stroke="none"/>
    </g>
    <linearGradient gradientTransform="matrix(0.0, -0.0036, 0.1257, 0.0, 75.4, 1.8)" gradientUnits="userSpaceOnUse" id="gradient11" spreadMethod="pad" x1="-819.2" x2="819.2">
      <stop offset="0.0" stop-color="#094866"/>
      <stop offset="0.8274509803921568" stop-color="#094866" stop-opacity="0.0"/>
    </linearGradient>
    <linearGradient gradientTransform="matrix(0.0, -0.0036, 0.1257, 0.0, 118.1, 1.8)" gradientUnits="userSpaceOnUse" id="gradient12" spreadMethod="pad" x1="-819.2" x2="819.2">
      <stop offset="0.0" stop-color="#094866"/>
      <stop offset="0.8274509803921568" stop-color="#094866" stop-opacity="0.0"/>
    </linearGradient>
    <linearGradient gradientTransform="matrix(0.0, -0.0036, 0.8401, 0.0, 362.25, 1.8)" gradientUnits="userSpaceOnUse" id="gradient13" spreadMethod="pad" x1="-819.2" x2="819.2">
      <stop offset="0.0" stop-color="#094866"/>
      <stop offset="0.8274509803921568" stop-color="#094866" stop-opacity="0.0"/>
    </linearGradient>
    <linearGradient gradientTransform="matrix(0.0, -0.0036, 0.0059, 0.0, 56.6, 1.8)" gradientUnits="userSpaceOnUse" id="gradient14" spreadMethod="pad" x1="-819.2" x2="819.2">
      <stop offset="0.0" stop-color="#094866"/>
      <stop offset="0.8274509803921568" stop-color="#094866" stop-opacity="0.0"/>
    </linearGradient>
    <linearGradient gradientTransform="matrix(0.0, -0.0036, 0.0059, 0.0, 87.8, 1.8)" gradientUnits="userSpaceOnUse" id="gradient15" spreadMethod="pad" x1="-819.2" x2="819.2">
      <stop offset="0.0" stop-color="#094866"/>
      <stop offset="0.8274509803921568" stop-color="#094866" stop-opacity="0.0"/>
    </linearGradient>
    <linearGradient gradientTransform="matrix(0.0, -0.0036, 0.0291, 0.0, 84.7, 1.8)" gradientUnits="userSpaceOnUse" id="gradient16" spreadMethod="pad" x1="-819.2" x2="819.2">
      <stop offset="0.0" stop-color="#094866"/>
      <stop offset="0.8274509803921568" stop-color="#094866" stop-opacity="0.0"/>
    </linearGradient>
    <linearGradient gradientTransform="matrix(0.0, -0.0036, 0.0291, 0.0, 20.25, 1.8)" gradientUnits="userSpaceOnUse" id="gradient17" spreadMethod="pad" x1="-819.2" x2="819.2">
      <stop offset="0.0" stop-color="#094866"/>
      <stop offset="0.8274509803921568" stop-color="#094866" stop-opacity="0.0"/>
    </linearGradient>
    <linearGradient gradientTransform="matrix(0.0, -0.0036, 0.0059, 0.0, -23.45, 1.8)" gradientUnits="userSpaceOnUse" id="gradient18" spreadMethod="pad" x1="-819.2" x2="819.2">
      <stop offset="0.0" stop-color="#094866"/>
      <stop offset="0.8274509803921568" stop-color="#094866" stop-opacity="0.0"/>
    </linearGradient>
    <linearGradient gradientTransform="matrix(0.0, -0.0036, 0.0059, 0.0, -0.05, 1.8)" gradientUnits="userSpaceOnUse" id="gradient19" spreadMethod="pad" x1="-819.2" x2="819.2">
      <stop offset="0.0" stop-color="#094866"/>
      <stop offset="0.8274509803921568" stop-color="#094866" stop-opacity="0.0"/>
    </linearGradient>
    <linearGradient gradientTransform="matrix(0.0, -0.0036, 0.0219, 0.0, 78.55, 1.8)" gradientUnits="userSpaceOnUse" id="gradient20" spreadMethod="pad" x1="-819.2" x2="819.2">
      <stop offset="0.0" stop-color="#094866"/>
      <stop offset="0.8274509803921568" stop-color="#094866" stop-opacity="0.0"/>
    </linearGradient>
    <g id="sprite3" transform="matrix(1.0, 0.0, 0.0, 1.0, -15.3, 1.5)">
      <use ffdec:characterId="82" height="38.0" transform="matrix(1.0, 0.0, 0.0, 1.0, 15.3, -1.5)" width="206.05" xlink:href="#shape4"/>
    </g>
    <g id="shape4" transform="matrix(1.0, 0.0, 0.0, 1.0, -15.3, 1.5)">
      <path d="M76.45 2.65 L74.85 2.65 74.25 2.45 73.1 2.25 Q73.1 1.95 73.4 2.1 L73.4 2.15 74.4 2.2 74.9 2.2 74.9 2.3 76.45 2.35 76.6 2.45 76.45 2.65" fill="#947e05" fill-rule="evenodd" stroke="none"/>
      <path d="M212.7 -0.55 L212.95 -0.5 213.0 -0.45 Q215.5 0.4 217.3 1.95 L217.3 1.9 Q221.35 5.3 221.35 12.2 L221.35 22.85 Q221.35 29.75 217.3 33.15 213.45 36.5 205.75 36.5 L30.9 36.5 Q17.25 36.5 15.6 26.15 15.3 24.6 15.3 22.85 L15.3 12.2 Q15.2 -1.5 30.9 -1.5 L205.75 -1.5 Q209.75 -1.5 212.7 -0.55 M214.95 22.85 L214.95 12.2 214.85 10.4 Q214.4 7.75 212.65 6.3 210.25 4.5 205.75 4.5 L30.9 4.5 Q21.8 4.5 21.7 12.2 L21.7 22.85 21.85 24.7 Q22.95 30.5 30.9 30.5 L205.75 30.5 Q213.75 30.5 214.85 24.7 L214.95 22.85 M76.45 2.65 L76.6 2.45 76.45 2.35 74.9 2.3 74.9 2.2 74.4 2.2 73.4 2.15 73.4 2.1 Q73.1 1.95 73.1 2.25 L74.25 2.45 74.85 2.65 76.45 2.65" fill="#6d591b" fill-rule="evenodd" stroke="none"/>
      <path d="M212.5 0.95 L215.15 2.95 216.3 4.0 Q217.05 4.8 217.45 5.7 218.7 8.55 218.95 11.4 L218.95 16.05 218.8 20.55 218.45 25.75 Q217.8 28.95 216.45 30.6 L216.3 30.8 214.1 32.85 213.4 33.05 213.1 33.2 211.0 33.55 210.2 33.8 25.6 33.8 24.0 33.0 Q20.4 31.35 19.65 29.95 L17.65 26.85 Q17.5 26.6 17.5 25.35 L17.45 25.15 17.5 24.65 17.5 24.5 17.25 19.7 17.5 12.05 17.35 10.4 17.6 9.1 Q18.4 5.45 20.7 3.5 21.65 2.7 22.5 2.2 L22.9 2.2 26.25 1.15 28.15 0.75 28.4 0.7 72.6 0.7 72.75 0.75 73.25 0.75 73.25 0.8 209.9 0.8 210.2 0.95 211.65 1.05 212.25 0.85 212.5 0.95 M20.65 26.8 L21.25 28.35 Q22.5 31.05 23.85 31.05 24.15 31.05 27.3 32.7 L73.25 32.7 73.25 32.75 204.8 32.75 205.2 32.8 205.7 32.95 209.1 32.55 209.15 32.55 Q210.35 32.55 211.85 31.7 213.05 31.55 214.7 29.75 216.3 28.0 216.3 27.35 L216.75 25.35 217.05 22.8 217.05 17.25 217.15 15.55 216.95 12.35 216.65 9.3 216.3 8.3 Q215.35 5.75 214.3 4.4 213.4 3.15 213.2 3.85 211.35 2.3 208.7 2.3 L78.4 2.3 78.35 2.2 78.25 2.25 78.1 2.15 78.05 2.2 75.8 2.2 74.95 2.15 74.85 2.1 73.4 2.1 73.25 2.05 73.1 2.1 69.8 2.1 69.75 2.05 65.85 2.05 65.65 2.1 29.45 2.1 28.35 2.3 26.15 2.65 26.0 2.65 25.1 2.95 Q23.15 3.65 22.7 4.5 L21.5 5.6 Q19.7 7.85 19.5 11.35 L19.5 18.4 Q19.3 18.85 19.3 20.45 19.3 24.2 20.1 25.9 L20.65 26.8" fill="#eee2bc" fill-rule="evenodd" stroke="none"/>
      <path d="M17.45 25.15 L17.5 25.35 Q17.5 26.6 17.65 26.85 L19.65 29.95 Q20.4 31.35 24.0 33.0 L25.6 33.8 210.2 33.8 211.0 33.55 213.1 33.2 213.4 33.05 214.1 32.85 216.3 30.8 216.45 30.6 Q217.8 28.95 218.45 25.75 L218.8 20.55 218.95 16.05 218.95 11.4 Q218.7 8.55 217.45 5.7 217.05 4.8 216.3 4.0 L215.15 2.95 212.5 0.95 Q214.75 1.7 216.3 3.05 219.85 6.1 219.85 12.2 L219.85 22.85 Q219.85 28.95 216.3 32.0 212.8 35.0 205.75 35.0 L30.9 35.0 Q18.65 35.0 17.05 25.85 L17.2 25.45 17.45 25.15 M213.2 3.85 L213.1 4.4 213.55 5.1 Q210.85 3.0 205.75 3.0 L30.9 3.0 Q20.2 3.0 20.2 12.2 L20.2 22.85 Q20.2 23.95 20.35 24.95 L20.25 25.7 20.65 26.8 20.1 25.9 Q19.3 24.2 19.3 20.45 19.3 18.85 19.5 18.4 L19.5 11.35 Q19.7 7.85 21.5 5.6 L22.7 4.5 Q23.15 3.65 25.1 2.95 L26.0 2.65 26.15 2.65 28.35 2.3 29.45 2.1 65.65 2.1 65.85 2.05 69.75 2.05 69.8 2.1 73.1 2.1 73.25 2.05 73.4 2.1 74.85 2.1 74.95 2.15 75.8 2.2 78.05 2.2 78.1 2.15 78.25 2.25 78.35 2.2 78.4 2.3 208.7 2.3 Q211.35 2.3 213.2 3.85" fill="#e1cb88" fill-rule="evenodd" stroke="none"/>
      <path d="M17.45 25.15 L17.2 25.45 17.05 25.85 Q16.8 24.45 16.8 22.85 L16.8 12.2 Q16.8 0.0 30.9 0.0 L205.75 0.0 Q209.5 0.0 212.25 0.85 L211.65 1.05 210.2 0.95 209.9 0.8 73.25 0.8 73.25 0.75 72.75 0.75 72.6 0.7 28.4 0.7 28.15 0.75 26.25 1.15 22.9 2.2 22.5 2.2 Q21.65 2.7 20.7 3.5 18.4 5.45 17.6 9.1 L17.35 10.4 17.5 12.05 17.25 19.7 17.5 24.5 17.5 24.65 17.45 25.15 M213.55 5.1 L213.1 4.4 213.2 3.85 Q213.4 3.15 214.3 4.4 215.35 5.75 216.3 8.3 L216.65 9.3 216.95 12.35 217.15 15.55 217.05 17.25 217.05 22.8 216.75 25.35 216.3 27.35 Q216.3 28.0 214.7 29.75 213.05 31.55 211.85 31.7 210.35 32.55 209.15 32.55 L209.1 32.55 205.7 32.95 205.2 32.8 204.8 32.75 73.25 32.75 73.25 32.7 27.3 32.7 Q24.15 31.05 23.85 31.05 22.5 31.05 21.25 28.35 L20.65 26.8 20.25 25.7 20.35 24.95 Q21.5 32.0 30.9 32.0 L205.75 32.0 Q215.2 32.0 216.3 24.9 L216.45 22.85 216.45 12.2 216.3 10.15 Q215.8 6.9 213.55 5.1" fill="#f8f2e2" fill-rule="evenodd" stroke="none"/>
    </g>
    <g id="text0" transform="matrix(1.0, 0.0, 0.0, 1.0, 2.0, 2.0)">
      <g transform="matrix(1.0, 0.0, 0.0, 1.0, -2.0, -2.0)">
        <use fill="#fcfaf3" height="25.2" transform="matrix(0.0176, 0.0, 0.0, 0.0176, 36.2, 16.5)" width="192.6" xlink:href="#font_Berlin_Sans_FB_Demi_E0"/>
        <use fill="#fcfaf3" height="25.2" transform="matrix(0.0176, 0.0, 0.0, 0.0176, 46.4, 16.5)" width="192.6" xlink:href="#font_Berlin_Sans_FB_Demi_n0"/>
        <use fill="#fcfaf3" height="25.2" transform="matrix(0.0176, 0.0, 0.0, 0.0176, 56.6, 16.5)" width="192.6" xlink:href="#font_Berlin_Sans_FB_Demi_t0"/>
        <use fill="#fcfaf3" height="25.2" transform="matrix(0.0176, 0.0, 0.0, 0.0176, 63.4, 16.5)" width="192.6" xlink:href="#font_Berlin_Sans_FB_Demi_e0"/>
        <use fill="#fcfaf3" height="25.2" transform="matrix(0.0176, 0.0, 0.0, 0.0176, 72.4, 16.5)" width="192.6" xlink:href="#font_Berlin_Sans_FB_Demi_r0"/>
      </g>
      <g transform="matrix(1.0, 0.0, 0.0, 1.0, -2.0, -2.0)">
        <use fill="#fcfaf3" height="25.2" transform="matrix(0.0176, 0.0, 0.0, 0.0176, 83.75, 16.5)" width="192.6" xlink:href="#font_Berlin_Sans_FB_Demi_D0"/>
        <use fill="#fcfaf3" height="25.2" transform="matrix(0.0176, 0.0, 0.0, 0.0176, 96.6, 16.5)" width="192.6" xlink:href="#font_Berlin_Sans_FB_Demi_u0"/>
        <use fill="#fcfaf3" height="25.2" transform="matrix(0.0176, 0.0, 0.0, 0.0176, 107.1, 16.5)" width="192.6" xlink:href="#font_Berlin_Sans_FB_Demi_n0"/>
        <use fill="#fcfaf3" height="25.2" transform="matrix(0.0176, 0.0, 0.0, 0.0176, 117.3, 16.5)" width="192.6" xlink:href="#font_Berlin_Sans_FB_Demi_g0"/>
        <use fill="#fcfaf3" height="25.2" transform="matrix(0.0176, 0.0, 0.0, 0.0176, 127.6, 16.5)" width="192.6" xlink:href="#font_Berlin_Sans_FB_Demi_e0"/>
        <use fill="#fcfaf3" height="25.2" transform="matrix(0.0176, 0.0, 0.0, 0.0176, 136.6, 16.5)" width="192.6" xlink:href="#font_Berlin_Sans_FB_Demi_o0"/>
        <use fill="#fcfaf3" height="25.2" transform="matrix(0.0176, 0.0, 0.0, 0.0176, 146.15, 16.5)" width="192.6" xlink:href="#font_Berlin_Sans_FB_Demi_n0"/>
      </g>
    </g>
    <g id="font_Berlin_Sans_FB_Demi_E0">
      <path d="M558.0 -155.5 Q558.0 -173.5 547.0 -173.5 521.0 -173.5 469.0 -168.5 416.5 -164.0 390.0 -164.0 316.0 -164.0 317.0 -164.0 261.5 -167.5 253.0 -186.5 248.0 -197.5 248.0 -235.5 248.0 -264.0 248.5 -266.5 252.0 -276.5 272.5 -276.5 L325.5 -276.5 Q427.0 -276.5 455.5 -273.5 500.5 -268.5 500.5 -268.5 515.0 -268.5 515.0 -278.5 515.0 -318.5 519.0 -358.5 528.0 -445.5 528.0 -435.0 528.0 -446.5 516.0 -446.5 506.0 -446.5 489.0 -444.5 467.0 -442.5 461.5 -442.0 397.0 -438.5 334.0 -438.5 324.5 -438.5 310.0 -437.5 295.5 -437.0 290.5 -437.0 266.5 -437.0 258.0 -446.5 248.0 -457.5 248.0 -491.5 248.0 -524.0 250.5 -530.0 256.5 -542.5 283.0 -542.5 389.0 -542.5 522.0 -531.5 529.5 -531.0 532.5 -531.0 542.5 -531.0 542.5 -541.5 542.5 -554.0 537.5 -612.0 532.0 -670.5 529.5 -682.0 525.5 -701.5 499.5 -701.5 463.0 -701.5 389.5 -699.5 316.0 -697.5 279.5 -697.5 242.5 -697.5 168.5 -699.5 94.0 -701.5 57.0 -701.5 43.5 -701.5 44.5 -690.0 L45.0 -683.0 Q49.0 -603.5 50.5 -563.5 56.5 -408.0 56.5 -351.0 56.5 -295.0 50.5 -182.5 44.0 -70.5 44.0 -14.5 44.0 0.0 60.5 0.0 98.5 0.0 174.5 0.5 250.5 1.0 289.0 1.0 465.5 1.0 502.0 6.0 512.5 7.5 517.0 7.5 527.5 7.5 533.5 -2.0 540.5 -14.0 549.5 -76.5 558.0 -134.0 558.0 -155.5" fill-rule="evenodd" stroke="none"/>
    </g>
    <g id="font_Berlin_Sans_FB_Demi_n0">
      <path d="M539.5 -14.5 Q539.5 -47.0 539.0 -111.5 538.5 -176.5 538.5 -209.0 L538.5 -368.5 Q538.5 -430.0 491.0 -464.5 448.5 -494.5 385.0 -494.5 340.5 -494.5 281.5 -459.5 222.0 -425.0 227.5 -425.0 222.0 -425.0 219.0 -458.5 216.0 -492.5 210.5 -492.5 200.5 -492.5 121.0 -477.0 68.5 -469.5 37.0 -466.0 29.5 -463.0 29.5 -455.0 29.5 -452.0 30.5 -447.5 50.0 -376.5 50.0 -252.0 50.0 -212.5 49.5 -134.0 49.0 -55.5 49.0 -16.5 49.0 -2.5 64.5 0.0 82.0 3.0 140.5 3.0 194.5 3.0 212.0 1.0 227.5 -1.0 227.5 -17.5 L227.5 -287.5 Q227.5 -306.0 255.5 -325.0 281.5 -342.0 301.0 -342.0 360.5 -342.0 360.5 -273.5 360.5 -255.0 361.5 -218.0 362.5 -181.5 362.5 -163.0 362.5 -139.0 361.0 -91.5 359.5 -44.0 359.5 -20.5 359.5 -3.0 374.5 0.0 389.5 3.0 452.5 3.0 511.5 3.0 525.5 1.0 539.5 -1.0 539.5 -14.5" fill-rule="evenodd" stroke="none"/>
    </g>
    <g id="font_Berlin_Sans_FB_Demi_t0">
      <path d="M377.0 -146.5 Q377.0 -157.5 366.5 -157.5 357.0 -157.5 334.0 -151.5 310.5 -146.0 298.0 -146.0 258.5 -146.0 245.0 -167.5 235.5 -183.5 235.5 -225.5 235.5 -237.0 235.0 -261.0 235.0 -284.5 235.0 -296.5 235.0 -318.5 242.5 -318.5 L280.0 -318.5 Q290.0 -318.5 313.5 -317.5 337.0 -317.0 347.0 -317.0 361.5 -317.0 361.5 -327.5 361.5 -339.5 361.0 -362.5 360.5 -385.5 360.5 -397.5 360.5 -409.0 363.0 -432.0 365.5 -455.0 365.5 -466.5 365.5 -474.0 354.5 -474.0 336.5 -474.0 301.0 -472.5 265.5 -471.0 248.0 -471.0 233.5 -471.0 233.5 -495.5 233.5 -516.0 237.0 -556.5 240.0 -597.0 240.0 -617.0 240.0 -624.5 227.5 -625.5 176.0 -631.5 150.5 -635.0 139.5 -636.0 111.0 -642.5 86.0 -648.5 72.5 -648.5 61.5 -648.5 61.5 -590.5 61.5 -593.5 63.5 -529.0 64.5 -488.0 61.5 -469.0 60.0 -459.5 42.0 -459.0 10.0 -458.0 10.0 -448.0 10.0 -437.5 11.5 -416.0 12.5 -394.5 12.5 -384.0 12.5 -376.0 11.5 -359.5 10.0 -343.0 10.0 -335.0 10.0 -321.5 29.0 -321.5 31.0 -321.5 35.5 -322.0 40.0 -322.0 42.0 -322.0 67.5 -322.0 67.5 -300.0 67.5 -267.0 65.0 -200.5 62.5 -134.5 62.5 -101.5 62.5 9.0 207.0 9.0 285.5 9.0 350.0 -26.5 363.5 -34.0 366.5 -38.0 369.5 -42.0 369.5 -56.0 369.5 -70.5 373.5 -101.0 377.0 -131.5 377.0 -146.5" fill-rule="evenodd" stroke="none"/>
    </g>
    <g id="font_Berlin_Sans_FB_Demi_e0">
      <path d="M325.5 -302.0 Q325.5 -296.5 309.0 -294.0 231.0 -282.5 194.0 -282.5 180.0 -282.5 180.0 -296.0 180.0 -329.0 199.0 -353.5 219.5 -380.0 251.0 -380.0 281.5 -380.0 303.5 -356.5 325.5 -333.0 325.5 -302.0 M500.5 -271.5 Q500.5 -368.0 433.5 -438.0 366.5 -508.0 270.5 -508.0 156.5 -508.0 87.5 -432.0 20.5 -358.5 20.5 -243.5 20.5 -125.5 95.5 -55.0 168.5 14.5 287.5 14.5 416.0 14.5 477.0 -51.0 484.5 -59.0 484.5 -62.5 484.5 -75.0 460.0 -121.0 435.0 -167.0 424.5 -172.0 405.5 -160.0 386.5 -148.0 341.5 -124.0 297.0 -124.0 260.0 -124.0 231.0 -138.0 195.5 -155.0 188.5 -187.5 305.5 -196.5 364.5 -203.0 462.5 -213.0 468.0 -214.0 500.5 -221.0 500.5 -271.5" fill-rule="evenodd" stroke="none"/>
    </g>
    <g id="font_Berlin_Sans_FB_Demi_r0">
      <path d="M374.0 -311.5 Q374.0 -321.0 373.0 -350.5 372.5 -374.5 372.5 -389.0 373.0 -401.5 376.0 -430.0 379.0 -456.5 379.0 -471.0 379.0 -483.0 351.0 -483.0 306.5 -483.0 258.5 -456.5 210.5 -430.5 217.5 -430.5 211.0 -430.5 208.5 -462.0 206.0 -493.5 197.0 -493.5 194.5 -493.5 115.5 -478.0 62.5 -470.0 35.0 -467.0 27.5 -464.5 27.5 -457.0 27.5 -454.0 28.5 -449.5 50.0 -373.5 50.0 -256.0 50.0 -216.0 49.5 -136.0 49.0 -56.5 49.0 -16.5 49.0 -2.0 65.5 0.0 94.0 3.0 141.5 3.0 191.0 3.0 215.0 1.0 231.5 -0.5 231.5 -12.5 231.5 -26.5 229.5 -55.0 227.5 -84.0 227.5 -98.5 227.5 -120.0 227.0 -163.5 226.0 -207.5 226.0 -229.0 226.0 -268.5 241.0 -281.5 256.0 -294.5 297.5 -294.5 306.5 -294.5 325.0 -293.0 343.0 -292.0 352.5 -292.0 374.0 -292.0 374.0 -311.5" fill-rule="evenodd" stroke="none"/>
    </g>
    <g id="font_Berlin_Sans_FB_Demi_D0">
      <path d="M507.0 -354.5 Q507.0 -265.5 460.5 -211.0 411.0 -153.5 324.5 -153.5 244.5 -153.5 244.5 -175.0 244.5 -204.5 243.5 -262.5 242.5 -321.0 242.5 -350.0 242.5 -379.5 243.5 -438.5 244.5 -498.0 244.5 -527.5 244.5 -548.0 321.5 -548.0 405.5 -548.0 456.5 -492.5 507.0 -439.0 507.0 -354.5 M698.5 -354.5 Q698.5 -435.5 663.5 -512.0 627.0 -593.0 564.0 -638.0 497.0 -686.0 378.5 -698.0 333.0 -702.5 179.0 -702.5 98.0 -702.5 62.5 -698.5 48.0 -696.5 48.0 -686.0 48.0 -629.0 52.5 -514.0 56.5 -399.5 56.5 -342.0 56.5 -287.0 52.5 -176.5 48.0 -66.5 48.0 -11.5 48.0 0.0 62.5 0.0 87.0 0.0 136.5 1.5 185.5 3.0 210.0 3.0 340.5 3.0 369.5 2.0 520.5 -3.0 604.0 -99.5 698.5 -207.5 698.5 -354.5" fill-rule="evenodd" stroke="none"/>
    </g>
    <g id="font_Berlin_Sans_FB_Demi_u0">
      <path d="M557.0 -454.5 Q557.0 -462.5 556.0 -466.5 553.5 -474.0 538.5 -474.0 514.0 -474.0 465.0 -474.5 415.5 -475.0 391.0 -475.0 376.0 -475.0 373.0 -470.0 370.5 -467.0 370.5 -450.5 370.5 -218.0 369.5 -199.5 368.5 -178.5 343.0 -159.0 317.0 -139.5 295.0 -139.5 238.5 -139.5 229.5 -194.5 224.0 -226.5 224.0 -313.5 224.0 -383.5 234.5 -451.5 235.5 -458.5 235.5 -462.0 235.5 -475.0 220.0 -475.0 197.0 -475.0 150.0 -475.5 103.0 -476.0 80.0 -476.0 65.0 -476.0 59.5 -455.5 41.0 -389.5 41.0 -275.5 41.0 -170.0 52.0 -114.5 76.5 5.0 209.0 5.0 256.0 5.0 313.5 -29.0 371.0 -63.0 364.0 -63.0 368.5 -63.0 371.0 -40.0 372.5 -25.0 374.0 -10.0 376.5 0.5 386.0 2.0 407.5 5.0 462.0 5.0 523.5 5.0 542.5 0.0 555.0 -3.5 555.0 -17.0 555.0 -52.5 552.5 -124.5 550.0 -196.5 550.0 -232.5 550.0 -269.5 553.5 -343.5 557.0 -417.5 557.0 -454.5" fill-rule="evenodd" stroke="none"/>
    </g>
    <g id="font_Berlin_Sans_FB_Demi_g0">
      <path d="M367.5 -268.5 Q367.5 -232.0 343.5 -205.0 319.0 -178.0 282.5 -178.0 247.0 -178.0 222.5 -204.5 197.5 -231.0 197.5 -267.5 197.5 -304.0 222.0 -331.0 246.0 -358.5 282.5 -358.5 319.0 -358.5 343.5 -331.5 367.5 -305.0 367.5 -268.5 M540.5 -130.0 Q540.5 -150.5 540.0 -191.5 539.5 -232.5 539.5 -253.0 539.5 -287.5 542.0 -356.0 544.0 -424.5 544.0 -459.0 544.0 -469.0 535.5 -472.0 532.5 -473.0 454.0 -481.0 375.5 -489.5 367.5 -489.5 358.5 -489.5 358.5 -449.5 358.5 -431.5 354.0 -431.5 351.0 -431.5 343.0 -442.5 303.0 -496.5 227.5 -496.5 133.0 -496.5 74.5 -431.0 18.5 -368.0 18.5 -272.5 18.5 -177.5 77.0 -112.5 137.5 -45.0 231.5 -45.0 311.5 -45.0 362.5 -93.0 L362.5 -59.5 Q362.5 -27.0 319.5 -5.5 284.0 12.5 248.0 12.5 182.5 12.5 105.5 -25.5 102.5 -27.0 100.0 -27.5 92.5 -27.5 89.0 -13.5 67.5 75.0 67.5 84.5 67.5 107.5 160.0 124.5 232.5 138.0 274.5 138.0 418.5 138.0 480.5 74.5 540.5 12.5 540.5 -130.0" fill-rule="evenodd" stroke="none"/>
    </g>
    <g id="font_Berlin_Sans_FB_Demi_o0">
      <path d="M359.5 -246.0 Q359.5 -205.5 336.0 -176.5 310.5 -145.5 271.5 -145.5 232.0 -145.5 206.5 -176.5 182.5 -205.5 182.5 -246.0 182.5 -286.0 206.5 -315.0 232.0 -346.0 271.5 -346.0 310.5 -346.0 335.0 -315.5 359.5 -285.5 359.5 -246.0 M523.5 -246.0 Q523.5 -359.0 453.5 -429.5 383.5 -500.5 270.5 -500.5 154.5 -500.5 86.5 -428.0 18.5 -356.0 18.5 -240.0 18.5 -130.0 89.5 -60.0 160.5 10.0 270.5 10.0 384.0 10.0 454.0 -61.0 523.5 -132.0 523.5 -246.0" fill-rule="evenodd" stroke="none"/>
    </g>
  </defs>
</svg>
