<?xml version="1.0" encoding="UTF-8" standalone="no"?>
<svg xmlns:ffdec="https://www.free-decompiler.com/flash" xmlns:xlink="http://www.w3.org/1999/xlink" ffdec:objectType="frame" height="33.6px" width="26.25px" xmlns="http://www.w3.org/2000/svg">
  <g transform="matrix(1.0, 0.0, 0.0, 1.0, 14.35, 17.15)">
    <use ffdec:characterId="610" height="4.8" transform="matrix(7.0, 0.0, 0.0, 7.0, -14.35, -17.15)" width="3.75" xlink:href="#shape0"/>
  </g>
  <defs>
    <g id="shape0" transform="matrix(1.0, 0.0, 0.0, 1.0, 2.05, 2.45)">
      <path d="M-0.7 -2.3 Q-0.95 -2.1 -1.1 -1.85 -1.3 -1.5 -1.35 -1.1 -1.35 -0.7 -1.5 -0.35 -1.7 0.2 -1.75 0.8 -1.75 1.5 -1.1 1.75 L-1.05 1.65 Q-1.25 1.25 -1.2 0.85 -1.2 0.35 -0.95 -0.05 L0.5 -0.05 Q0.45 0.05 0.4 0.1 0.25 0.2 0.05 0.2 -0.15 0.5 -0.4 0.8 L-0.55 0.75 Q-0.35 0.5 -0.1 0.25 L-0.3 0.1 -0.85 0.1 Q-1.0 0.4 -1.0 0.65 -1.0 1.2 -0.8 1.65 L0.1 1.65 0.85 1.3 Q0.7 1.55 0.45 1.65 0.05 1.9 -0.45 1.95 L-0.35 2.0 -0.1 2.15 0.3 2.0 Q0.65 1.8 1.0 1.55 0.75 1.9 0.4 2.1 L0.8 2.0 Q1.25 1.8 1.45 1.45 1.3 1.55 1.1 1.55 L1.2 1.45 Q1.6 1.25 1.5 0.7 1.3 0.95 1.05 1.1 1.2 0.85 1.3 0.55 1.4 0.15 1.2 -0.15 L0.65 -0.8 Q0.4 -1.15 0.25 -1.55 L-0.15 -2.3 -0.2 -2.4 0.1 -2.1 0.8 -1.15 1.45 -0.25 Q1.7 0.1 1.55 0.55 L1.65 0.65 Q1.85 1.05 1.55 1.35 L1.55 1.45 Q1.55 1.85 1.2 2.05 0.65 2.4 0.05 2.3 -0.15 2.35 -0.35 2.3 -0.7 2.2 -0.9 2.0 -1.2 2.0 -1.5 1.85 -1.85 1.65 -2.0 1.2 -2.1 0.85 -2.0 0.5 -1.95 0.05 -1.8 -0.35 -1.7 -0.7 -1.65 -1.1 -1.55 -1.5 -1.35 -1.9 -1.15 -2.25 -0.7 -2.3" fill="#000000" fill-rule="evenodd" stroke="none"/>
      <path d="M-0.15 -2.3 L0.25 -1.55 Q0.4 -1.15 0.65 -0.8 L1.2 -0.15 Q1.4 0.15 1.3 0.55 1.2 0.85 1.05 1.1 1.3 0.95 1.5 0.7 1.6 1.25 1.2 1.45 L1.1 1.55 Q1.3 1.55 1.45 1.45 1.25 1.8 0.8 2.0 L0.4 2.1 Q0.75 1.9 1.0 1.55 0.65 1.8 0.3 2.0 L-0.1 2.15 -0.35 2.0 -0.45 1.95 Q0.05 1.9 0.45 1.65 0.7 1.55 0.85 1.3 L0.1 1.65 -0.8 1.65 Q-1.0 1.2 -1.0 0.65 -1.0 0.4 -0.85 0.1 L-0.3 0.1 -0.1 0.25 Q-0.35 0.5 -0.55 0.75 L-0.4 0.8 Q-0.15 0.5 0.05 0.2 0.25 0.2 0.4 0.1 0.45 0.05 0.5 -0.05 L-0.95 -0.05 Q-1.2 0.35 -1.2 0.85 -1.25 1.25 -1.05 1.65 L-1.1 1.75 Q-1.75 1.5 -1.75 0.8 -1.7 0.2 -1.5 -0.35 -1.35 -0.7 -1.35 -1.1 -1.3 -1.5 -1.1 -1.85 -0.95 -2.1 -0.7 -2.3 L-0.6 -2.4 -0.55 -2.4 -0.55 -2.45 -0.25 -2.45 -0.2 -2.4 -0.15 -2.3" fill="#86501a" fill-rule="evenodd" stroke="none"/>
    </g>
  </defs>
</svg>
