<?xml version="1.0" encoding="UTF-8" standalone="no"?>
<svg xmlns:ffdec="https://www.free-decompiler.com/flash" xmlns:xlink="http://www.w3.org/1999/xlink" ffdec:objectType="frame" height="129.5px" width="107.45px" xmlns="http://www.w3.org/2000/svg">
  <g transform="matrix(1.0, 0.0, 0.0, 1.0, 41.3, 126.0)">
    <use ffdec:characterId="724" height="6.3" transform="matrix(7.0, 0.0, 0.0, 7.0, -29.75, -56.0)" width="11.35" xlink:href="#shape0"/>
  </g>
  <defs>
    <g id="shape0" transform="matrix(1.0, 0.0, 0.0, 1.0, 4.25, 8.0)">
      <path d="M6.25 -7.95 Q6.35 -8.0 6.95 -7.45 L7.05 -7.35 7.1 -7.25 Q7.1 -6.95 6.9 -6.8 6.8 -6.75 6.65 -6.7 L6.5 -6.35 6.35 -6.25 6.25 -6.2 6.05 -6.2 Q5.95 -6.2 5.85 -6.3 5.8 -6.4 5.8 -6.5 5.8 -6.85 5.85 -6.9 5.9 -7.1 6.05 -7.25 L5.85 -7.45 Q5.8 -7.55 5.8 -7.65 5.8 -7.75 5.85 -7.85 L6.05 -7.95 6.1 -7.95 Q6.15 -8.0 6.25 -7.95 M4.45 -6.9 Q4.55 -7.0 4.7 -7.0 L4.75 -7.0 Q4.85 -7.0 4.95 -6.95 5.05 -6.85 5.05 -6.7 L5.15 -5.9 5.15 -5.5 Q5.15 -5.4 5.1 -5.3 L4.95 -5.2 4.35 -5.15 4.35 -5.2 4.2 -5.2 4.15 -5.05 4.15 -5.1 4.05 -5.0 Q4.0 -4.85 3.8 -4.7 L3.75 -4.65 3.9 -4.7 3.8 -4.6 3.7 -4.6 3.7 -4.55 3.5 -4.45 Q3.3 -4.45 3.05 -4.3 2.8 -4.15 2.75 -4.15 L2.6 -4.2 Q2.4 -4.3 2.35 -4.4 L2.5 -4.5 2.6 -4.65 3.05 -5.05 Q3.3 -5.25 3.3 -5.5 3.3 -5.7 3.45 -5.75 L4.25 -5.75 Q4.3 -5.85 4.35 -5.85 L4.4 -5.85 4.4 -6.7 Q4.4 -6.8 4.45 -6.9 M-1.2 -7.4 L-1.05 -7.4 Q-0.8 -7.25 -0.85 -7.05 L-0.85 -6.95 Q-0.85 -6.8 -0.9 -6.6 L-0.55 -6.45 Q-0.45 -6.4 -0.4 -6.3 -0.35 -6.2 -0.4 -6.05 -0.45 -5.95 -0.55 -5.9 L-0.6 -5.85 -0.8 -5.85 -1.4 -5.95 -1.65 -6.05 -1.8 -6.15 -1.9 -6.3 -1.85 -6.5 Q-1.6 -6.95 -1.55 -7.05 -1.6 -7.15 -1.55 -7.2 -1.5 -7.3 -1.4 -7.35 L-1.25 -7.4 -1.2 -7.4 M-4.15 -2.3 Q-4.05 -2.4 -3.95 -2.4 L-3.9 -2.4 Q-3.8 -2.4 -3.7 -2.3 -3.65 -2.25 -3.6 -2.15 -3.6 -2.0 -3.65 -1.95 L-3.65 -1.9 Q-3.7 -1.8 -3.8 -1.75 L-4.0 -1.7 Q-4.1 -1.75 -4.2 -1.85 -4.25 -1.95 -4.25 -2.05 -4.25 -2.2 -4.15 -2.3" fill="#00b1ff" fill-opacity="0.5019608" fill-rule="evenodd" stroke="none"/>
      <path d="M6.75 -7.2 Q6.8 -7.0 6.45 -7.0 L6.2 -6.55 6.15 -6.5 6.15 -6.8 Q6.2 -7.05 6.6 -7.15 L6.6 -7.25 6.35 -7.4 6.15 -7.65 6.2 -7.65 6.75 -7.2 M4.85 -5.5 L4.0 -5.5 3.9 -5.2 4.05 -5.25 Q3.95 -4.95 3.7 -4.95 L3.45 -4.8 3.4 -4.65 Q3.35 -4.45 3.15 -4.3 L2.45 -4.4 3.15 -4.45 Q3.2 -4.5 3.3 -4.75 L3.35 -4.8 3.25 -4.85 3.35 -4.9 Q3.4 -5.0 3.4 -5.05 L3.6 -5.15 Q3.85 -5.4 3.95 -5.6 L4.4 -5.55 Q4.6 -5.55 4.5 -5.6 L4.75 -5.65 Q4.75 -5.75 4.7 -5.9 L4.7 -6.7 4.75 -6.7 4.85 -5.85 4.85 -5.5 M-1.2 -7.1 L-1.15 -7.05 -1.15 -6.95 Q-1.15 -6.7 -1.4 -6.45 L-0.7 -6.2 -0.75 -6.15 -1.35 -6.25 -1.55 -6.35 Q-1.25 -6.95 -1.25 -7.1 L-1.2 -7.1 M-3.95 -2.05 L-3.95 -2.05" fill="#ffffff" fill-rule="evenodd" stroke="none"/>
    </g>
  </defs>
</svg>
