<?xml version="1.0" encoding="UTF-8" standalone="no"?>
<svg xmlns:ffdec="https://www.free-decompiler.com/flash" xmlns:xlink="http://www.w3.org/1999/xlink" ffdec:objectType="frame" height="129.5px" width="107.45px" xmlns="http://www.w3.org/2000/svg">
  <g transform="matrix(1.0, 0.0, 0.0, 1.0, 41.3, 126.0)">
    <use ffdec:characterId="690" height="9.85" transform="matrix(7.0, 0.0, 0.0, 7.0, -29.05, -121.8)" width="11.85" xlink:href="#shape0"/>
  </g>
  <defs>
    <g id="shape0" transform="matrix(1.0, 0.0, 0.0, 1.0, 4.15, 17.4)">
      <path d="M1.65 -15.95 L2.35 -15.85 Q2.4 -15.85 2.5 -15.75 2.75 -15.55 2.7 -15.35 2.7 -15.15 2.6 -15.05 2.5 -14.95 2.4 -14.95 2.25 -14.95 2.2 -15.0 2.05 -15.05 2.0 -15.15 L1.7 -15.2 1.65 -15.25 1.5 -15.3 Q1.4 -15.3 1.35 -15.4 1.25 -15.45 1.25 -15.6 1.2 -15.8 1.55 -15.95 L1.65 -15.95 M0.35 -16.05 Q0.25 -16.15 0.25 -16.25 0.2 -16.35 0.25 -16.4 L0.35 -16.55 0.2 -16.6 Q-0.2 -16.8 -0.25 -16.85 -0.3 -16.95 -0.3 -17.05 -0.3 -17.2 -0.25 -17.3 -0.15 -17.4 0.0 -17.4 0.15 -17.4 0.55 -17.25 1.1 -17.05 1.2 -16.85 L1.3 -16.75 1.25 -16.55 Q1.25 -16.45 1.15 -16.35 L1.2 -16.25 Q1.2 -16.05 1.0 -15.85 0.9 -15.75 0.8 -15.75 0.7 -15.7 0.6 -15.75 0.45 -15.8 0.45 -16.0 L0.35 -16.05 M1.45 -15.05 L1.75 -15.0 1.9 -14.9 2.0 -14.8 2.05 -14.65 2.05 -14.6 2.15 -14.65 2.2 -14.65 Q2.3 -14.7 2.4 -14.6 2.65 -14.85 3.05 -14.75 3.6 -14.7 3.8 -14.2 L4.0 -13.75 4.0 -13.7 4.45 -13.7 Q4.6 -13.6 4.65 -13.35 5.15 -13.4 5.05 -12.95 L5.05 -12.85 5.15 -12.85 5.2 -12.9 5.2 -12.85 5.85 -12.9 Q6.8 -12.8 6.9 -12.35 L7.0 -12.35 7.0 -12.25 7.25 -12.25 Q7.7 -12.15 7.7 -11.85 7.7 -11.7 7.55 -11.45 L7.3 -11.3 Q7.3 -11.15 7.15 -11.05 7.15 -10.9 7.05 -10.75 6.9 -10.45 6.55 -10.45 6.45 -10.45 5.65 -10.75 4.95 -11.0 4.75 -11.05 4.6 -11.15 4.5 -11.45 L4.45 -11.45 4.1 -11.4 Q3.8 -11.4 3.7 -11.55 L3.5 -11.85 3.35 -11.9 3.3 -12.0 3.2 -12.0 Q3.1 -11.9 2.9 -11.9 2.75 -11.9 2.65 -12.4 L2.6 -12.55 Q2.35 -12.7 2.1 -13.05 L1.95 -13.15 Q1.9 -13.2 1.8 -13.5 1.7 -13.8 1.7 -13.9 L1.7 -14.0 1.65 -14.0 1.55 -14.05 1.45 -14.15 1.45 -14.25 1.15 -14.25 Q1.05 -14.3 0.95 -14.35 L0.6 -14.7 Q0.35 -14.95 0.25 -15.15 0.2 -15.3 0.25 -15.35 0.25 -15.5 0.35 -15.55 0.45 -15.6 0.55 -15.6 0.65 -15.65 1.1 -15.3 L1.05 -15.3 1.45 -15.05 M2.55 -14.2 L2.55 -14.0 2.45 -13.85 2.45 -13.8 2.4 -13.65 2.4 -13.75 2.35 -13.8 2.3 -13.8 2.25 -13.75 Q2.35 -13.65 2.55 -13.6 L2.6 -13.75 Q2.7 -13.85 2.85 -13.85 3.0 -13.85 3.1 -13.8 L3.1 -13.85 3.3 -13.8 3.25 -14.0 3.05 -14.0 3.0 -14.15 3.2 -14.0 3.2 -14.1 2.6 -14.2 2.55 -14.2 M3.8 -14.25 L3.8 -14.25 M6.65 -11.65 L6.55 -11.65 6.55 -11.4 Q6.65 -11.6 6.85 -11.65 L6.95 -11.8 6.85 -11.8 Q6.8 -11.65 6.65 -11.65 M5.8 -11.85 L5.7 -11.65 5.85 -11.65 Q5.9 -11.7 5.95 -11.8 L5.95 -11.85 5.8 -11.85 M5.95 -11.65 L6.0 -11.65 6.0 -11.7 5.95 -11.65 M5.85 -11.5 L5.75 -11.35 5.85 -11.3 5.85 -11.5 M6.55 -11.25 Q6.5 -11.15 6.4 -11.15 L6.55 -11.1 6.55 -11.25 M7.4 -11.25 Q7.4 -11.15 7.35 -11.05 L7.3 -11.05 Q7.3 -11.1 7.4 -11.25 M4.85 -12.4 Q4.75 -12.3 4.65 -12.3 4.55 -12.3 4.55 -12.4 4.5 -12.45 4.4 -12.45 4.25 -12.45 4.15 -12.35 4.1 -12.2 4.05 -12.2 L3.95 -12.2 4.05 -12.1 4.55 -12.2 Q5.0 -12.2 5.05 -11.7 L5.2 -11.65 5.45 -11.6 5.45 -11.65 5.2 -11.85 5.5 -11.8 5.5 -11.95 5.4 -12.0 5.3 -12.1 Q5.35 -12.2 5.5 -12.25 L5.15 -12.25 4.9 -12.4 4.85 -12.4 M3.4 -12.8 L3.75 -12.7 3.8 -12.75 3.7 -12.75 3.7 -12.8 3.5 -12.95 3.45 -12.85 3.4 -12.8 M3.8 -12.7 L3.8 -12.75 3.75 -12.7 3.8 -12.7 M3.45 -11.85 L3.4 -11.9 3.5 -11.85 3.45 -11.85 M3.55 -11.0 Q3.7 -10.95 3.85 -10.7 L3.95 -10.7 4.1 -10.75 Q4.9 -10.75 4.9 -10.6 5.0 -10.55 5.0 -10.4 5.0 -10.25 4.9 -10.2 L4.9 -10.15 4.75 -10.05 4.2 -10.05 4.05 -9.9 Q4.0 -9.85 3.85 -9.85 L3.65 -9.85 3.5 -9.9 3.4 -10.0 3.15 -10.4 3.05 -10.45 3.05 -10.4 3.0 -10.25 Q2.9 -10.2 2.8 -10.15 L2.65 -10.15 2.45 -10.2 Q2.35 -10.25 2.3 -10.35 2.25 -10.4 2.25 -10.5 2.0 -10.75 2.0 -10.95 2.0 -11.1 2.1 -11.2 2.15 -11.3 2.25 -11.3 L2.5 -11.25 2.75 -11.1 2.85 -11.1 Q3.15 -11.3 3.55 -11.0 M-2.95 -14.25 L-2.9 -14.3 -2.8 -14.35 -2.85 -14.3 Q-2.7 -14.35 -2.6 -14.45 L-2.6 -14.5 -2.5 -14.55 Q-2.5 -14.95 -2.25 -14.8 L-2.2 -14.7 -2.15 -14.7 -2.0 -14.75 -1.95 -14.6 -1.95 -14.55 -2.05 -14.6 -1.95 -14.35 Q-1.95 -14.2 -2.15 -14.1 L-2.4 -13.85 -2.5 -13.7 -2.45 -13.6 -2.55 -13.5 -2.3 -13.25 Q-2.3 -13.1 -2.4 -13.0 -2.55 -12.85 -2.9 -12.7 L-3.15 -12.8 -3.1 -13.05 -3.15 -13.1 -3.15 -13.15 -3.2 -13.25 -3.25 -13.3 -3.25 -13.35 Q-3.4 -13.5 -3.5 -13.75 L-3.55 -13.8 -3.55 -13.85 Q-3.55 -14.1 -3.15 -14.2 L-2.95 -14.25 M-0.85 -15.95 Q-0.8 -15.9 -0.75 -15.75 -0.75 -15.65 -0.85 -15.55 -0.9 -15.45 -1.0 -15.4 L-1.65 -15.3 -1.8 -15.3 -2.05 -15.4 -2.2 -15.5 Q-2.25 -15.55 -2.25 -15.65 L-2.25 -15.7 Q-2.3 -15.85 -2.2 -15.95 -2.15 -16.05 -2.0 -16.05 L-1.45 -16.15 -1.4 -16.15 Q-0.9 -16.05 -0.85 -15.95 M-1.9 -14.1 L-1.95 -14.1 -1.9 -14.15 -1.9 -14.1 M-3.25 -10.05 L-3.15 -10.05 -3.35 -10.0 -3.25 -10.05 M-3.4 -9.9 L-3.4 -9.9 M-3.95 -9.2 Q-3.95 -9.35 -3.05 -10.0 -2.85 -9.95 -2.8 -9.8 -2.8 -9.6 -2.7 -9.5 L-2.65 -9.55 -2.6 -9.75 -2.55 -9.7 -2.5 -10.05 Q-2.4 -10.45 -2.2 -10.45 -2.05 -10.45 -2.0 -10.35 L-1.9 -10.25 -1.85 -10.3 -1.85 -10.25 -1.8 -10.25 -1.3 -10.7 Q-1.0 -10.95 -0.9 -10.25 L-0.85 -10.25 -0.85 -10.2 -0.75 -10.2 -0.65 -10.25 -0.55 -10.25 -0.65 -10.2 -0.25 -10.2 Q-0.05 -10.0 -0.05 -9.95 -0.05 -9.85 -0.3 -9.55 -0.25 -9.45 -0.25 -9.35 L-0.25 -9.15 -0.3 -8.75 Q-0.3 -8.7 -0.5 -8.7 -0.7 -8.7 -0.9 -8.75 L-1.05 -8.65 Q-1.15 -8.5 -1.25 -8.5 L-1.7 -8.55 -2.0 -8.85 Q-2.1 -8.4 -2.15 -8.25 L-2.15 -8.2 -2.2 -8.2 -2.3 -8.1 Q-2.4 -8.05 -2.5 -8.05 L-2.45 -8.1 -2.9 -8.05 -3.2 -8.05 -3.25 -8.0 -3.5 -7.7 -3.65 -7.55 -3.85 -7.55 Q-3.95 -7.55 -4.0 -7.6 -4.1 -7.65 -4.15 -7.75 -4.25 -7.95 -3.9 -8.3 L-3.6 -8.6 -3.5 -8.75 Q-3.4 -8.8 -3.3 -8.8 -3.2 -8.95 -3.0 -8.9 L-2.9 -9.0 -3.05 -9.2 -3.15 -9.25 -3.2 -9.2 -3.25 -9.3 Q-3.4 -9.3 -3.5 -9.15 -3.7 -9.0 -3.8 -8.95 L-3.9 -9.0 Q-3.95 -9.05 -3.95 -9.2 M-4.0 -9.3 L-3.9 -9.5 -3.8 -9.5 -4.0 -9.3 M-3.1 -9.2 L-3.05 -9.2 -3.1 -9.15 -3.1 -9.2 M-1.45 -9.45 L-1.35 -9.4 -1.4 -9.4 -1.35 -9.35 -1.1 -9.55 -1.35 -9.85 Q-1.4 -9.7 -1.45 -9.6 L-1.55 -9.5 -1.55 -9.45 -1.6 -9.4 -1.5 -9.4 -1.45 -9.45 M-2.7 -9.85 L-2.7 -9.85 M-2.65 -9.5 L-2.6 -9.5 -2.6 -9.55 -2.65 -9.5 M-2.8 -8.85 L-2.8 -8.85 M-1.6 -9.45 L-1.65 -9.45 -1.6 -9.4 -1.6 -9.45 M-2.05 -9.5 L-1.95 -9.5 -2.0 -9.55 -2.05 -9.5 M-1.9 -9.5 L-1.9 -9.5 M-1.0 -8.75 L-0.95 -8.75 -0.95 -8.8 -1.0 -8.75" fill="#00b1ff" fill-opacity="0.5019608" fill-rule="evenodd" stroke="none"/>
      <path d="M0.75 -16.15 L0.8 -16.25 0.55 -16.3 Q0.65 -16.5 0.75 -16.65 L0.35 -16.9 0.0 -17.05 0.45 -16.95 Q0.85 -16.8 0.95 -16.65 0.9 -16.5 0.7 -16.5 0.7 -16.45 0.8 -16.4 L0.85 -16.25 Q0.85 -16.15 0.8 -16.1 L0.75 -16.05 0.75 -16.15 M1.3 -14.75 L1.7 -14.65 1.85 -14.4 Q2.1 -14.35 2.2 -14.25 2.25 -14.4 2.25 -14.2 2.25 -14.05 2.2 -14.1 L2.15 -14.15 Q2.05 -14.25 1.75 -14.3 L1.65 -14.55 1.2 -14.6 0.85 -14.9 Q0.6 -15.15 0.55 -15.3 L0.85 -15.05 1.3 -14.75 M2.35 -15.25 Q2.25 -15.35 2.25 -15.45 L1.75 -15.55 1.6 -15.6 1.65 -15.65 2.25 -15.55 Q2.4 -15.45 2.4 -15.35 L2.35 -15.25 M2.65 -14.45 L3.3 -14.5 Q3.4 -14.45 3.45 -14.25 L3.55 -14.05 Q3.7 -13.9 3.7 -13.85 L3.7 -13.8 Q3.65 -13.75 3.65 -13.65 3.65 -13.55 3.7 -13.5 3.8 -13.5 3.8 -13.4 L3.8 -13.15 3.7 -13.05 Q3.45 -13.5 3.4 -13.6 L3.4 -13.85 Q3.4 -14.1 3.3 -14.3 L2.8 -14.35 2.65 -14.45 M6.7 -12.05 L6.95 -12.05 7.3 -12.0 7.35 -11.85 7.3 -11.75 7.5 -11.7 Q7.5 -11.5 7.4 -11.4 L7.15 -11.35 Q7.1 -11.3 7.1 -11.25 L6.8 -11.25 6.8 -10.9 Q6.7 -10.9 6.7 -10.85 L6.4 -10.85 6.45 -10.9 6.2 -10.9 5.6 -11.1 4.9 -11.25 Q4.85 -11.35 4.85 -11.5 4.85 -11.6 4.95 -11.75 L4.45 -11.95 4.4 -11.8 4.0 -11.8 3.65 -12.05 3.6 -12.15 3.0 -12.35 Q2.9 -12.7 2.9 -12.8 2.9 -12.85 2.95 -12.9 L2.85 -12.9 Q2.6 -12.9 2.15 -13.3 1.95 -13.5 1.95 -13.7 L2.0 -14.0 2.05 -14.0 Q2.15 -14.0 2.15 -13.9 L2.1 -13.65 Q2.1 -13.55 2.25 -13.55 L2.45 -13.45 2.7 -13.2 Q2.85 -13.15 3.05 -13.1 L3.05 -13.15 3.0 -13.4 2.9 -13.55 3.0 -13.55 Q3.2 -13.5 3.2 -13.4 L3.25 -13.2 Q3.25 -13.1 3.15 -13.0 3.05 -12.9 3.05 -12.8 L3.1 -12.7 3.45 -12.7 3.65 -12.55 3.9 -12.4 4.0 -12.5 Q4.0 -12.65 4.05 -12.7 L4.35 -12.65 4.4 -12.8 4.35 -12.85 4.2 -12.85 Q4.05 -12.85 4.05 -13.0 L4.0 -13.2 3.9 -13.35 3.8 -13.55 Q4.4 -13.65 4.2 -13.2 4.2 -13.15 4.25 -13.15 L4.25 -13.2 4.35 -13.15 4.4 -13.25 Q4.65 -13.15 4.85 -13.1 L4.85 -12.65 4.75 -12.5 5.25 -12.35 5.3 -12.6 Q5.5 -12.55 5.5 -12.5 L5.8 -12.5 6.45 -12.4 6.7 -12.35 Q6.7 -12.2 6.7 -12.05 M6.4 -12.1 Q5.75 -12.15 5.6 -12.25 L5.45 -12.35 5.45 -12.25 Q5.75 -12.1 5.75 -11.95 5.75 -11.85 5.5 -11.55 L5.2 -11.55 5.2 -11.7 5.15 -11.6 5.15 -11.55 Q5.3 -11.55 5.45 -11.4 5.55 -11.35 6.25 -11.3 L6.2 -11.4 6.2 -11.75 Q6.2 -11.9 6.25 -11.95 L6.45 -12.0 6.4 -12.1 M3.4 -10.75 Q3.5 -10.7 3.6 -10.5 3.75 -10.35 3.75 -10.25 L4.1 -10.45 4.7 -10.4 4.65 -10.35 3.95 -10.35 Q3.95 -10.2 3.85 -10.15 L3.65 -10.15 Q3.4 -10.55 3.4 -10.65 3.25 -10.75 3.05 -10.75 L2.75 -10.6 2.75 -10.5 2.65 -10.55 2.6 -10.5 2.6 -10.6 Q2.35 -10.85 2.35 -11.0 L2.65 -10.7 Q2.75 -10.75 2.95 -10.85 3.15 -10.9 3.4 -10.75 M-1.45 -15.8 L-1.1 -15.75 -1.7 -15.6 -1.95 -15.7 -1.95 -15.75 -1.45 -15.8 M-2.2 -14.35 L-2.05 -14.4 -2.15 -14.3 -2.1 -14.2 Q-2.3 -14.15 -2.45 -14.05 L-2.55 -14.0 -2.9 -13.6 -2.75 -13.45 Q-2.6 -13.35 -2.6 -13.25 -2.6 -13.0 -2.8 -12.85 L-2.85 -12.95 Q-2.85 -13.05 -2.75 -13.15 -2.7 -13.25 -2.7 -13.3 -2.8 -13.3 -2.9 -13.4 L-2.75 -13.25 -2.8 -13.25 Q-2.95 -13.35 -3.0 -13.5 L-3.15 -13.6 Q-3.05 -13.85 -2.9 -13.95 L-2.7 -14.05 -2.7 -14.1 -2.25 -14.35 -2.3 -14.5 -2.25 -14.5 -2.2 -14.35 M-2.95 -13.65 L-2.9 -13.8 -3.0 -13.7 -2.95 -13.65 M-3.15 -9.75 L-3.0 -9.75 -3.0 -9.7 -2.8 -9.45 Q-2.75 -9.4 -2.7 -9.3 L-2.5 -9.35 -2.5 -9.3 -2.45 -9.3 Q-2.45 -9.35 -2.4 -9.3 L-2.35 -9.35 -2.3 -9.7 Q-2.25 -9.85 -2.25 -10.15 -2.2 -10.15 -2.05 -10.0 -1.85 -9.9 -1.8 -9.9 -1.75 -9.9 -1.75 -9.95 L-1.75 -10.0 -1.5 -10.0 -1.5 -10.05 -1.4 -10.25 -1.3 -10.2 -1.25 -10.25 -1.2 -10.25 -1.2 -10.05 -0.9 -9.8 -0.8 -9.9 -0.55 -9.95 -0.3 -9.95 Q-0.3 -9.8 -0.35 -9.65 L-0.65 -9.5 Q-0.6 -9.4 -0.6 -9.3 L-0.6 -9.15 -0.9 -9.15 -1.05 -9.2 Q-1.05 -9.15 -1.1 -9.15 -1.1 -9.05 -1.1 -9.0 L-1.15 -8.95 -1.2 -8.95 -1.2 -8.8 -1.35 -8.8 -1.4 -8.9 -1.45 -8.95 -1.75 -9.05 -1.8 -9.1 -2.2 -9.2 -2.25 -9.1 -2.35 -8.95 -2.45 -8.75 Q-2.45 -8.7 -2.4 -8.7 L-2.35 -8.6 Q-2.35 -8.45 -2.45 -8.4 L-2.5 -8.4 -2.45 -8.35 -2.5 -8.3 -3.4 -8.35 -3.8 -7.85 -3.85 -7.85 Q-3.85 -7.9 -3.65 -8.1 L-3.4 -8.4 -3.3 -8.5 -2.6 -8.5 -2.75 -8.7 -2.6 -8.85 Q-2.55 -9.0 -2.45 -9.2 -2.6 -9.25 -2.65 -9.2 L-2.9 -9.2 -3.0 -9.55 -3.1 -9.65 -3.4 -9.45 -3.5 -9.4 -3.7 -9.15 -3.9 -9.15 -3.7 -9.2 Q-3.7 -9.3 -3.2 -9.75 L-3.15 -9.75 M-3.25 -9.7 L-3.25 -9.65 -3.2 -9.7 -3.25 -9.7 M-3.3 -8.4 L-3.3 -8.4 M-1.3 -9.45 L-1.5 -9.7 -1.55 -9.7 Q-1.55 -9.65 -1.7 -9.65 L-1.75 -9.55 -1.85 -9.55 Q-1.9 -9.7 -2.2 -9.9 L-2.25 -9.45 -2.2 -9.45 -2.15 -9.5 -1.85 -9.3 -1.35 -9.05 Q-1.35 -9.15 -1.35 -9.25 L-1.35 -9.3 -1.3 -9.3 -1.25 -9.4 -1.3 -9.45 M-1.85 -9.8 L-1.85 -9.8 M-1.65 -9.9 L-1.65 -9.9 M-2.55 -8.7 L-2.55 -8.7" fill="#ffffff" fill-rule="evenodd" stroke="none"/>
    </g>
  </defs>
</svg>
