<?xml version="1.0" encoding="UTF-8" standalone="no"?>
<svg xmlns:ffdec="https://www.free-decompiler.com/flash" xmlns:xlink="http://www.w3.org/1999/xlink" ffdec:objectType="frame" height="330.45px" width="504.75px" xmlns="http://www.w3.org/2000/svg">
  <g transform="matrix(1.0, 0.0, 0.0, 1.0, 273.75, 301.35)">
    <use ffdec:characterId="2057" height="7.6" transform="matrix(-5.8836, 0.0, 0.0, 7.0, 78.733, -130.75)" width="14.35" xlink:href="#shape0"/>
    <use ffdec:characterId="2057" height="7.6" transform="matrix(-6.3106, 0.0, 0.0, 6.514, -67.004, -85.3608)" width="14.35" xlink:href="#shape0"/>
    <use ffdec:characterId="2057" height="7.6" transform="matrix(-6.3106, 0.0, 0.0, 4.433, 125.346, -60.0376)" width="14.35" xlink:href="#shape0"/>
    <use ffdec:characterId="2057" height="7.6" transform="matrix(7.0, 0.0, 0.0, 5.1224, -74.85, -118.1223)" width="14.35" xlink:href="#shape0"/>
    <use ffdec:characterId="2058" height="3.75" transform="matrix(7.0, 0.0, 0.0, 7.0, -28.7, -121.45)" width="8.95" xlink:href="#shape1"/>
    <use ffdec:characterId="2059" height="3.0" transform="matrix(7.0, 0.0, 0.0, 7.0, -26.25, -119.0)" width="8.25" xlink:href="#shape2"/>
  </g>
  <defs>
    <g id="shape0" transform="matrix(1.0, 0.0, 0.0, 1.0, 5.3, 13.25)">
      <path d="M-4.75 -12.3 Q-4.75 -12.5 -4.6 -12.8 -4.35 -13.2 -3.9 -13.25 L-3.9 -13.2 Q-3.85 -13.15 -3.85 -13.0 -3.85 -12.8 -4.05 -12.35 -4.25 -11.8 -4.45 -11.75 -4.6 -11.85 -4.7 -11.95 -4.75 -12.1 -4.75 -12.3 M-4.4 -11.65 L-4.35 -11.5 -4.45 -11.3 -4.55 -11.25 -4.75 -11.3 Q-4.75 -11.35 -4.75 -11.55 -4.75 -11.75 -4.7 -11.75 L-4.55 -11.8 Q-4.5 -11.75 -4.4 -11.65" fill="#ffffff" fill-opacity="0.5019608" fill-rule="evenodd" stroke="none"/>
      <path d="M9.05 -12.0 Q9.05 -11.8 9.0 -11.7 L8.7 -11.7 8.7 -11.75 8.65 -11.9 8.7 -12.1 9.0 -12.1 9.05 -12.0 M4.95 -7.95 L4.9 -7.9 Q4.85 -7.85 4.65 -7.85 L4.5 -7.85 4.5 -7.9 4.45 -7.9 4.45 -8.1 Q4.45 -8.4 4.7 -8.5 L4.95 -8.5 4.95 -7.95 M-4.0 -12.85 Q-4.05 -12.75 -4.25 -12.6 L-4.35 -12.6 -4.35 -13.0 -4.3 -13.0 Q-4.25 -13.05 -4.05 -13.0 -4.0 -12.9 -4.0 -12.85 M-4.9 -6.15 Q-4.85 -6.15 -4.85 -5.95 L-4.85 -5.75 -4.9 -5.75 -4.95 -5.7 Q-5.0 -5.65 -5.05 -5.65 L-5.25 -5.65 Q-5.3 -5.7 -5.3 -5.9 -5.3 -6.2 -5.25 -6.2 L-4.95 -6.2 -4.9 -6.15" fill="#ffffff" fill-rule="evenodd" stroke="none"/>
    </g>
    <g id="shape1" transform="matrix(1.0, 0.0, 0.0, 1.0, 4.1, 17.35)">
      <path d="M3.55 -16.75 Q4.9 -16.2 4.85 -15.45 4.9 -14.75 3.5 -14.15 2.1 -13.6 0.0 -13.6 L-1.0 -13.65 Q-2.5 -13.75 -3.25 -14.1 -4.15 -14.55 -4.1 -15.25 -4.15 -15.95 -3.0 -16.6 -2.0 -17.15 -0.5 -17.35 L0.15 -17.35 Q2.25 -17.3 3.55 -16.75 M2.65 -15.15 Q3.1 -15.3 3.4 -15.45 2.0 -16.15 -0.1 -16.15 L-0.25 -16.15 Q-2.3 -16.1 -2.95 -15.35 L-2.8 -15.15 -1.4 -14.85 -0.65 -14.75 0.0 -14.75 Q1.45 -14.75 2.65 -15.15" fill="#9bebeb" fill-opacity="0.49803922" fill-rule="evenodd" stroke="none"/>
    </g>
    <g id="shape2" transform="matrix(1.0, 0.0, 0.0, 1.0, 3.75, 17.0)">
      <path d="M3.4 -16.45 Q4.5 -15.95 4.5 -15.45 4.5 -14.95 3.35 -14.5 2.0 -14.0 0.0 -14.0 L-0.9 -14.0 Q-2.4 -14.1 -3.1 -14.45 -3.75 -14.75 -3.75 -15.25 -3.75 -15.75 -2.8 -16.3 -1.85 -16.8 -0.45 -17.0 L0.05 -17.0 Q2.15 -16.95 3.4 -16.45 M2.75 -14.8 Q3.75 -15.1 4.05 -15.5 2.5 -16.5 -0.1 -16.5 L-0.15 -16.5 Q-2.8 -16.5 -3.4 -15.35 -3.35 -15.2 -2.95 -14.8 L-1.45 -14.5 -0.75 -14.4 0.0 -14.35 Q1.5 -14.35 2.75 -14.8" fill="#ffffff" fill-rule="evenodd" stroke="none"/>
    </g>
  </defs>
</svg>
