<?xml version="1.0" encoding="UTF-8" standalone="no"?>
<svg xmlns:ffdec="https://www.free-decompiler.com/flash" xmlns:xlink="http://www.w3.org/1999/xlink" ffdec:objectType="frame" height="1042.95px" width="1799.4px" xmlns="http://www.w3.org/2000/svg">
  <g transform="matrix(1.0, 0.0, 0.0, 1.0, -0.85, 0.0)">
    <use ffdec:characterId="1371" height="1042.95" transform="matrix(1.0, 0.0, 0.0, 1.0, 0.85, 0.0)" width="1799.4" xlink:href="#shape0"/>
  </g>
  <defs>
    <g id="shape0" transform="matrix(1.0, 0.0, 0.0, 1.0, -0.85, 0.0)">
      <path d="M2.5 672.6 L2.45 672.6 2.45 12.0 22.35 12.0 Q24.4 9.8 26.8 8.0 L91.8 7.5 110.45 6.0 114.75 5.75 138.8 4.0 267.8 4.0 Q276.35 1.2 291.8 3.5 L422.8 4.0 Q429.25 4.35 463.2 2.95 L520.8 0.0 578.8 0.0 579.0 0.05 594.85 1.75 609.8 3.5 672.8 4.0 676.55 4.75 850.0 4.75 890.05 9.65 895.0 9.7 900.0 9.7 904.95 9.7 907.45 9.7 909.95 9.65 950.0 4.75 1123.45 4.75 1127.2 4.0 1190.2 3.5 1205.15 1.75 1221.0 0.05 1221.2 0.0 1279.2 0.0 1336.8 2.95 Q1370.75 4.35 1377.2 4.0 L1508.2 3.5 Q1523.65 1.2 1532.2 4.0 L1661.2 4.0 1685.25 5.75 1689.55 6.0 1708.2 7.5 1773.2 8.0 Q1775.6 9.8 1777.65 12.0 L1799.1 12.0 1799.1 213.0 1795.25 212.55 Q1772.2 212.55 1761.4 214.6 1751.1 216.55 1746.45 221.5 1743.35 224.8 1739.65 234.45 1734.9 246.75 1730.25 254.7 1719.1 249.05 1708.3 253.95 1705.55 255.15 1701.4 257.9 1698.2 260.05 1697.3 260.05 1695.7 260.05 1692.9 258.65 1690.1 257.2 1688.55 257.2 1684.3 257.2 1667.0 272.55 L1650.25 287.85 1638.5 285.2 Q1626.25 282.55 1622.6 282.55 1605.85 282.55 1594.9 292.75 1592.2 295.3 1588.0 300.45 1584.75 304.55 1583.2 305.35 1583.55 303.7 1583.25 302.25 1582.7 299.4 1579.45 299.4 L1549.0 300.75 Q1542.15 301.85 1541.1 304.7 1540.85 305.45 1540.65 307.7 1540.5 309.85 1539.95 311.3 1538.05 316.05 1529.6 320.35 1527.25 311.4 1521.35 304.85 1509.65 291.9 1487.6 291.9 1472.55 291.9 1469.35 295.8 1468.25 297.1 1468.35 299.15 L1468.55 302.2 Q1468.35 304.4 1465.75 305.25 L1460.1 306.3 Q1451.6 307.75 1450.1 314.7 1440.25 314.6 1435.8 316.35 L1433.3 317.6 1431.2 318.15 Q1419.1 318.15 1412.5 321.95 1408.35 324.35 1406.9 327.9 1403.7 325.05 1400.7 325.05 1395.15 325.05 1391.35 331.7 L1387.3 340.65 Q1385.8 339.8 1379.3 338.8 L1370.55 337.85 Q1365.6 337.85 1362.5 339.45 L1357.6 343.0 Q1350.9 348.15 1336.65 348.15 1333.45 345.05 1329.2 341.9 1320.65 335.65 1313.85 335.65 L1307.95 336.15 1295.4 336.9 Q1288.8 329.45 1281.0 324.35 1271.6 318.15 1264.6 318.45 L1241.25 319.6 Q1233.7 320.05 1231.9 321.5 1230.2 322.85 1230.8 327.6 L1232.3 341.3 Q1213.35 342.95 1202.05 351.75 1197.8 355.05 1195.4 358.85 1193.35 362.1 1193.35 364.4 L1186.8 362.45 Q1180.95 360.95 1176.35 360.95 1150.05 360.95 1147.3 364.9 1146.55 366.0 1147.1 369.0 1147.65 372.05 1146.5 373.8 L1144.95 373.8 1143.8 369.95 Q1142.75 367.55 1139.45 367.55 1129.3 367.55 1128.25 365.5 L1127.2 364.1 Q1126.0 363.45 1122.1 363.45 1107.2 363.45 1100.3 374.7 1096.05 381.65 1096.05 388.8 L1096.15 391.6 Q1079.4 393.4 1078.25 397.65 1078.15 398.05 1078.35 401.7 1078.45 404.4 1076.8 406.3 1075.3 409.65 1074.4 409.7 1070.2 409.85 1057.45 413.8 1054.85 414.55 1051.9 417.7 L1049.15 420.65 Q1033.9 420.65 1019.9 424.3 1003.55 428.55 999.45 435.65 997.95 430.9 996.2 427.7 992.8 421.6 985.85 421.6 L977.6 421.9 Q976.2 422.0 975.35 421.35 968.75 416.25 952.9 408.8 951.6 407.45 948.45 406.75 L942.35 405.55 Q934.05 403.7 931.05 397.55 L929.45 393.4 Q928.4 390.9 926.6 389.25 921.45 384.7 906.05 383.45 904.85 382.2 904.05 378.9 903.15 375.2 902.2 373.65 898.3 367.55 882.3 367.85 881.85 358.6 873.0 351.05 864.55 343.8 855.85 343.8 849.05 343.8 845.25 342.5 843.1 341.75 840.15 339.6 834.4 335.35 822.6 335.35 818.85 335.35 815.35 338.45 813.15 340.4 809.7 345.2 806.0 350.3 804.35 351.95 801.2 355.05 798.05 355.05 796.7 355.05 795.9 354.1 794.65 352.65 793.7 352.1 788.65 349.1 770.7 349.1 767.05 349.1 759.55 356.5 752.2 363.75 749.8 369.4 L743.0 367.8 Q738.55 366.6 736.8 366.6 722.35 366.6 714.65 368.6 708.65 370.15 704.8 373.6 L698.1 380.3 697.15 381.1 Q703.55 382.55 708.7 385.1 L708.2 384.9 Q696.15 379.1 677.1 379.1 673.35 379.1 669.5 380.1 L663.95 375.1 Q659.3 370.7 655.85 369.05 650.6 366.55 643.2 366.9 642.75 362.7 639.25 359.95 633.1 355.05 618.55 355.05 608.9 355.05 606.85 356.95 606.15 357.65 606.15 358.8 L606.2 360.65 Q594.0 360.9 586.8 363.9 L582.3 365.85 Q580.05 366.7 577.6 366.6 575.25 357.85 556.8 357.85 545.25 357.85 538.85 363.8 L535.2 367.85 Q533.55 369.7 532.3 369.7 L516.6 368.65 510.35 367.75 Q509.2 367.8 509.0 370.1 508.45 376.2 507.9 379.1 499.95 374.2 493.2 375.5 487.6 376.55 481.65 382.35 478.75 385.2 471.05 394.7 464.05 403.35 459.15 407.55 454.6 405.0 445.95 404.7 436.65 404.4 433.7 403.15 428.2 400.35 423.95 398.3 415.75 394.4 411.95 394.4 407.75 394.4 405.7 395.8 404.75 396.4 403.05 398.8 386.15 395.85 380.45 400.6 377.85 403.3 376.05 404.4 373.0 406.3 367.6 406.3 367.15 406.3 362.6 402.0 357.9 397.55 356.95 395.95 356.25 394.8 348.65 391.65 340.3 388.2 338.05 386.3 334.8 383.55 332.55 379.8 L329.15 374.05 Q324.45 367.95 307.9 364.7 307.5 357.75 287.9 355.35 286.7 353.85 285.35 348.45 283.7 341.8 282.35 338.7 276.85 326.3 261.65 326.3 236.6 326.3 225.2 328.4 215.95 330.15 213.5 333.9 212.05 336.1 211.4 341.3 209.95 346.2 203.7 349.4 198.9 351.8 196.75 355.85 194.95 359.2 195.1 363.45 195.5 372.4 191.2 373.0 188.7 373.35 181.6 369.9 174.7 366.45 172.2 367.0 168.1 367.8 168.85 377.2 L162.15 378.1 152.9 378.8 148.85 375.35 136.5 375.05 Q136.4 370.35 128.05 361.6 120.65 353.95 111.8 347.85 L93.05 347.55 91.35 346.15 Q88.6 343.8 86.65 343.8 80.35 343.8 71.25 348.8 L63.05 353.8 Q59.05 353.8 53.9 349.45 48.75 345.05 47.1 345.05 45.0 345.05 42.85 347.45 40.55 350.05 38.2 350.35 33.15 345.25 18.25 336.25 7.25 329.6 2.5 327.85 L2.5 366.25 2.5 423.8 2.75 426.4 3.05 429.25 2.75 433.2 2.5 436.65 2.5 466.8 2.75 468.3 2.75 469.85 2.5 470.05 2.5 478.15 2.75 478.35 2.75 507.45 2.5 507.95 2.5 672.6 M1799.1 342.35 L1800.25 343.7 1800.25 353.65 1799.1 353.3 1799.1 342.35 M1799.1 617.8 L1800.25 618.35 1800.25 670.6 1800.0 670.85 1800.0 631.15 1799.1 631.15 1799.1 617.8" fill="#ff871a" fill-rule="evenodd" stroke="none"/>
      <path d="M2.5 366.25 L2.5 327.85 Q7.25 329.6 18.25 336.25 33.15 345.25 38.2 350.35 40.55 350.05 42.85 347.45 45.0 345.05 47.1 345.05 48.75 345.05 53.9 349.45 59.05 353.8 63.05 353.8 L71.25 348.8 Q80.35 343.8 86.65 343.8 88.6 343.8 91.35 346.15 L93.05 347.55 111.8 347.85 Q120.65 353.95 128.05 361.6 136.4 370.35 136.5 375.05 L148.85 375.35 152.9 378.8 162.15 378.1 168.85 377.2 Q168.1 367.8 172.2 367.0 174.7 366.45 181.6 369.9 188.7 373.35 191.2 373.0 195.5 372.4 195.1 363.45 194.95 359.2 196.75 355.85 198.9 351.8 203.7 349.4 209.95 346.2 211.4 341.3 212.05 336.1 213.5 333.9 215.95 330.15 225.2 328.4 236.6 326.3 261.65 326.3 276.85 326.3 282.35 338.7 283.7 341.8 285.35 348.45 286.7 353.85 287.9 355.35 307.5 357.75 307.9 364.7 324.45 367.95 329.15 374.05 L332.55 379.8 Q334.8 383.55 338.05 386.3 340.3 388.2 348.65 391.65 356.25 394.8 356.95 395.95 357.9 397.55 362.6 402.0 367.15 406.3 367.6 406.3 373.0 406.3 376.05 404.4 377.85 403.3 380.45 400.6 386.15 395.85 403.05 398.8 404.75 396.4 405.7 395.8 407.75 394.4 411.95 394.4 415.75 394.4 423.95 398.3 428.2 400.35 433.7 403.15 436.65 404.4 445.95 404.7 454.6 405.0 459.15 407.55 464.05 403.35 471.05 394.7 478.75 385.2 481.65 382.35 487.6 376.55 493.2 375.5 499.95 374.2 507.9 379.1 508.45 376.2 509.0 370.1 509.2 367.8 510.35 367.75 L516.6 368.65 532.3 369.7 Q533.55 369.7 535.2 367.85 L538.85 363.8 Q545.25 357.85 556.8 357.85 575.25 357.85 577.6 366.6 580.05 366.7 582.3 365.85 L586.8 363.9 Q594.0 360.9 606.2 360.65 L606.15 358.8 Q606.15 357.65 606.85 356.95 608.9 355.05 618.55 355.05 633.1 355.05 639.25 359.95 642.75 362.7 643.2 366.9 650.6 366.55 655.85 369.05 659.3 370.7 663.95 375.1 L669.5 380.1 Q665.9 380.95 662.3 382.65 654.45 386.3 646.25 393.7 639.25 400.0 634.4 407.1 629.5 414.35 628.35 420.35 600.55 425.0 597.85 430.8 597.0 432.65 598.2 436.3 599.65 440.5 599.45 442.55 560.8 439.25 549.5 451.6 547.7 453.55 546.65 455.9 L542.1 455.65 532.2 456.2 520.25 457.2 Q520.25 458.0 520.9 460.25 521.5 462.5 521.5 464.25 521.5 466.3 520.8 466.95 L518.7 467.85 505.4 468.15 Q499.45 471.7 489.7 474.95 L478.25 478.6 Q475.4 474.7 470.55 471.05 467.55 468.75 461.35 465.05 451.5 464.7 448.35 464.7 440.9 464.7 435.85 462.75 434.95 462.4 427.65 458.45 416.1 452.2 392.9 452.2 378.6 452.2 376.05 456.35 375.85 456.65 374.8 459.85 374.15 461.9 372.3 462.85 371.7 462.45 370.5 462.0 L369.45 461.6 367.2 456.4 Q365.3 452.8 361.85 450.4 351.7 443.4 324.8 443.8 320.25 427.4 310.3 415.55 295.8 398.45 274.45 398.45 L268.05 399.0 257.6 400.05 Q252.4 402.6 250.5 407.05 L249.15 410.45 Q248.35 412.3 247.1 413.45 238.85 411.3 222.45 411.3 222.3 410.4 223.7 407.8 224.8 405.75 223.4 404.8 219.4 401.9 187.1 401.9 185.15 401.9 162.95 419.1 146.85 431.6 137.75 439.1 128.0 437.2 122.5 440.1 118.5 442.2 115.95 447.75 L112.0 456.5 110.45 458.45 Q108.2 460.65 104.8 460.65 L91.5 460.15 78.2 459.4 76.4 445.75 Q75.35 438.55 72.75 433.15 71.15 429.75 59.65 421.5 49.0 413.9 48.7 410.35 48.75 401.85 48.1 397.1 46.9 388.55 40.7 384.7 41.1 381.05 40.2 377.65 39.15 373.65 36.65 371.6 32.3 367.25 16.25 366.4 11.9 366.15 8.3 366.25 L5.4 365.85 2.5 366.25 M708.2 384.9 L708.7 385.1 Q703.55 382.55 697.15 381.1 L698.1 380.3 704.8 373.6 Q708.65 370.15 714.65 368.6 722.35 366.6 736.8 366.6 738.55 366.6 743.0 367.8 L749.8 369.4 Q752.2 363.75 759.55 356.5 767.05 349.1 770.7 349.1 788.65 349.1 793.7 352.1 794.65 352.65 795.9 354.1 796.7 355.05 798.05 355.05 801.2 355.05 804.35 351.95 806.0 350.3 809.7 345.2 813.15 340.4 815.35 338.45 818.85 335.35 822.6 335.35 834.4 335.35 840.15 339.6 843.1 341.75 845.25 342.5 849.05 343.8 855.85 343.8 864.55 343.8 873.0 351.05 881.85 358.6 882.3 367.85 898.3 367.55 902.2 373.65 903.15 375.2 904.05 378.9 904.85 382.2 906.05 383.45 921.45 384.7 926.6 389.25 928.4 390.9 929.45 393.4 L931.05 397.55 Q934.05 403.7 942.35 405.55 L948.45 406.75 Q951.6 407.45 952.9 408.8 968.75 416.25 975.35 421.35 976.2 422.0 977.6 421.9 L985.85 421.6 Q992.8 421.6 996.2 427.7 997.95 430.9 999.45 435.65 1003.55 428.55 1019.9 424.3 1033.9 420.65 1049.15 420.65 L1051.9 417.7 Q1054.85 414.55 1057.45 413.8 1070.2 409.85 1074.4 409.7 1075.3 409.65 1076.8 406.3 1078.45 404.4 1078.35 401.7 1078.15 398.05 1078.25 397.65 1079.4 393.4 1096.15 391.6 L1096.05 388.8 Q1096.05 381.65 1100.3 374.7 1107.2 363.45 1122.1 363.45 1126.0 363.45 1127.2 364.1 L1128.25 365.5 Q1129.3 367.55 1139.45 367.55 1142.75 367.55 1143.8 369.95 L1144.95 373.8 1146.5 373.8 Q1147.65 372.05 1147.1 369.0 1146.55 366.0 1147.3 364.9 1150.05 360.95 1176.35 360.95 1180.95 360.95 1186.8 362.45 L1193.35 364.4 Q1193.35 362.1 1195.4 358.85 1197.8 355.05 1202.05 351.75 1213.35 342.95 1232.3 341.3 L1230.8 327.6 Q1230.2 322.85 1231.9 321.5 1233.7 320.05 1241.25 319.6 L1264.6 318.45 Q1271.6 318.15 1281.0 324.35 1288.8 329.45 1295.4 336.9 L1307.95 336.15 1313.85 335.65 Q1320.65 335.65 1329.2 341.9 1333.45 345.05 1336.65 348.15 1350.9 348.15 1357.6 343.0 L1362.5 339.45 Q1365.6 337.85 1370.55 337.85 L1379.3 338.8 Q1385.8 339.8 1387.3 340.65 L1391.35 331.7 Q1395.15 325.05 1400.7 325.05 1403.7 325.05 1406.9 327.9 1408.35 324.35 1412.5 321.95 1419.1 318.15 1431.2 318.15 L1433.3 317.6 1435.8 316.35 Q1440.25 314.6 1450.1 314.7 1451.6 307.75 1460.1 306.3 L1465.75 305.25 Q1468.35 304.4 1468.55 302.2 L1468.35 299.15 Q1468.25 297.1 1469.35 295.8 1472.55 291.9 1487.6 291.9 1509.65 291.9 1521.35 304.85 1527.25 311.4 1529.6 320.35 1538.05 316.05 1539.95 311.3 1540.5 309.85 1540.65 307.7 1540.85 305.45 1541.1 304.7 1542.15 301.85 1549.0 300.75 L1579.45 299.4 Q1582.7 299.4 1583.25 302.25 1583.55 303.7 1583.2 305.35 1584.75 304.55 1588.0 300.45 1592.2 295.3 1594.9 292.75 1605.85 282.55 1622.6 282.55 1626.25 282.55 1638.5 285.2 L1650.25 287.85 1667.0 272.55 Q1684.3 257.2 1688.55 257.2 1690.1 257.2 1692.9 258.65 1695.7 260.05 1697.3 260.05 1698.2 260.05 1701.4 257.9 1705.55 255.15 1708.3 253.95 1719.1 249.05 1730.25 254.7 1734.9 246.75 1739.65 234.45 1743.35 224.8 1746.45 221.5 1751.1 216.55 1761.4 214.6 1772.2 212.55 1795.25 212.55 L1799.1 213.0 1799.1 273.95 Q1793.25 273.55 1789.35 276.3 1786.55 278.25 1785.5 281.45 1770.0 275.35 1758.85 275.35 1741.2 275.35 1734.75 285.05 1731.05 290.6 1731.05 300.5 1731.05 307.55 1731.8 311.3 1703.25 311.4 1697.25 318.1 1695.4 320.2 1693.9 325.4 1692.25 331.2 1690.1 334.4 1686.4 340.0 1684.95 348.95 1683.9 355.85 1684.3 363.15 1665.6 363.45 1660.9 368.2 1659.45 369.65 1658.8 372.3 1658.05 375.15 1657.45 375.95 1656.15 377.65 1647.8 379.25 L1631.95 381.9 1631.95 380.95 Q1628.25 358.6 1608.15 347.35 1589.95 337.2 1560.85 337.2 1542.6 337.2 1535.65 348.3 1533.15 352.35 1532.85 356.8 1532.65 360.75 1534.15 362.55 1521.1 363.1 1512.9 366.7 1504.95 370.2 1504.95 374.85 L1504.95 375.1 Q1498.2 372.55 1489.8 372.55 1484.05 372.55 1481.1 374.55 1481.95 371.2 1481.4 369.2 1479.35 362.3 1458.7 361.6 1459.55 353.55 1454.6 346.35 1447.0 335.35 1428.35 335.35 1423.45 335.35 1415.6 340.05 1412.65 341.75 1409.35 344.1 1408.35 344.8 1407.5 345.45 1397.6 352.7 1397.6 355.65 1397.6 358.6 1394.4 366.0 1390.2 375.65 1385.1 375.65 1383.85 375.65 1380.1 372.45 L1371.95 365.35 Q1363.65 358.55 1356.95 356.25 1354.55 355.4 1352.35 355.15 1351.8 354.4 1350.55 354.4 L1345.65 355.05 1346.2 355.2 Q1344.05 355.4 1343.25 355.8 1342.85 356.0 1341.2 358.45 L1339.45 358.1 Q1333.75 357.25 1327.2 360.4 1325.05 361.45 1322.75 362.95 1319.55 364.0 1317.05 366.0 1314.55 368.05 1313.2 370.75 1308.2 375.5 1302.45 382.2 1296.45 377.8 1292.45 382.6 1291.3 384.0 1290.0 386.6 L1288.55 389.1 Q1288.2 388.75 1287.65 385.65 1287.0 382.05 1285.95 379.85 1282.4 372.0 1271.7 371.9 L1268.0 370.25 Q1260.35 367.3 1249.5 366.1 1238.05 364.85 1229.1 366.35 1218.85 368.0 1215.25 372.85 1213.8 374.75 1214.0 377.3 L1214.4 381.35 Q1214.15 385.75 1202.9 388.15 1200.35 388.7 1198.0 391.6 1196.85 393.0 1194.1 397.55 1189.2 405.65 1184.6 405.65 1182.35 405.65 1172.45 402.55 1173.8 399.2 1171.6 396.1 1167.3 390.05 1149.8 390.05 1112.75 390.05 1107.6 396.05 1105.9 398.1 1106.8 402.1 1107.95 407.1 1107.6 408.8 1105.6 417.75 1098.95 422.8 1095.8 424.9 1094.7 425.75 1092.9 427.15 1092.9 428.45 1092.9 430.35 1093.05 431.15 L1093.2 431.9 Q1085.65 429.85 1077.4 431.05 1069.0 432.3 1062.85 436.55 1056.2 441.25 1054.15 448.35 1051.85 456.35 1055.85 466.3 1044.05 463.2 1038.3 463.9 1034.25 464.35 1031.35 467.4 1027.35 471.65 1025.55 472.65 1020.75 475.35 1011.5 475.35 1009.95 475.35 1003.05 473.8 996.2 472.2 994.6 472.2 992.65 472.2 991.75 472.7 L991.2 473.15 Q989.9 466.75 987.6 463.1 983.2 455.95 974.8 455.95 960.1 455.95 958.1 457.4 L957.45 458.35 955.1 458.8 Q948.7 458.8 942.85 453.75 939.45 450.8 933.2 442.7 927.05 434.7 923.35 431.65 917.4 426.6 910.7 426.6 908.95 426.6 908.55 427.1 L907.6 427.85 907.6 427.55 Q910.55 419.5 906.15 410.75 901.25 401.1 889.8 396.9 L868.85 396.9 Q855.3 398.6 852.3 400.55 850.35 401.8 834.3 402.55 829.9 405.0 827.0 410.75 824.2 416.4 821.95 417.55 L808.7 417.55 Q807.55 414.6 806.5 413.0 804.55 410.05 800.85 410.05 799.15 410.05 797.0 411.5 794.65 413.0 793.55 413.15 L791.15 407.95 Q789.6 405.05 785.25 405.05 783.7 405.05 780.5 406.3 777.3 407.55 775.7 407.55 L771.2 405.2 Q766.35 402.85 763.35 402.85 755.5 402.85 754.45 407.25 L753.85 411.4 Q753.3 414.0 751.65 415.65 749.8 414.8 748.85 411.95 747.55 408.05 746.75 406.85 742.25 400.4 723.05 401.3 722.0 395.9 717.8 391.55 L717.65 391.4 Q714.95 388.65 711.05 386.4 L710.9 386.3 Q709.6 385.55 708.2 384.9 M238.25 403.05 L239.75 403.5 Q241.9 400.7 238.8 402.1 L238.25 402.5 238.25 403.05 M370.85 419.85 L370.8 419.0 Q368.7 417.05 364.8 418.0 L370.85 419.85 M516.65 445.45 L516.85 445.05 Q516.9 443.35 516.65 445.45" fill="#f86627" fill-rule="evenodd" stroke="none"/>
      <path d="M2.75 478.35 L2.5 478.15 2.5 470.05 2.75 469.85 2.75 468.3 2.5 466.8 2.5 436.65 2.75 433.2 3.05 429.25 2.75 426.4 2.5 423.8 2.5 366.25 5.4 365.85 8.3 366.25 Q11.9 366.15 16.25 366.4 32.3 367.25 36.65 371.6 39.15 373.65 40.2 377.65 41.1 381.05 40.7 384.7 46.9 388.55 48.1 397.1 48.75 401.85 48.7 410.35 49.0 413.9 59.65 421.5 71.15 429.75 72.75 433.15 75.35 438.55 76.4 445.75 L78.2 459.4 91.5 460.15 104.8 460.65 Q108.2 460.65 110.45 458.45 L112.0 456.5 115.95 447.75 Q118.5 442.2 122.5 440.1 128.0 437.2 137.75 439.1 146.85 431.6 162.95 419.1 185.15 401.9 187.1 401.9 219.4 401.9 223.4 404.8 224.8 405.75 223.7 407.8 222.3 410.4 222.45 411.3 238.85 411.3 247.1 413.45 248.35 412.3 249.15 410.45 L250.5 407.05 Q252.4 402.6 257.6 400.05 L268.05 399.0 274.45 398.45 Q295.8 398.45 310.3 415.55 320.25 427.4 324.8 443.8 351.7 443.4 361.85 450.4 365.3 452.8 367.2 456.4 L369.45 461.6 370.5 462.0 Q371.7 462.45 372.3 462.85 374.15 461.9 374.8 459.85 375.85 456.65 376.05 456.35 378.6 452.2 392.9 452.2 416.1 452.2 427.65 458.45 434.95 462.4 435.85 462.75 440.9 464.7 448.35 464.7 451.5 464.7 461.35 465.05 467.55 468.75 470.55 471.05 475.4 474.7 478.25 478.6 L479.0 479.7 478.15 481.75 Q477.2 483.45 475.55 483.45 473.75 483.45 470.25 481.55 464.95 483.9 462.0 486.55 457.0 491.0 456.5 497.85 L452.35 497.6 447.3 496.9 Q443.75 496.9 438.85 499.6 L432.45 503.15 Q426.1 503.35 426.1 500.55 426.1 499.65 426.75 498.45 L427.45 497.2 427.45 496.3 Q426.75 496.45 425.35 497.1 L422.9 497.85 418.85 496.9 Q418.85 490.35 417.4 488.05 413.75 482.2 400.7 482.2 L395.85 487.7 Q390.75 493.15 388.05 493.15 381.55 488.25 373.85 483.3 358.5 473.45 351.35 473.45 349.75 473.45 343.3 475.05 336.8 476.6 335.25 476.6 334.5 475.6 332.8 474.75 329.35 473.15 323.05 474.1 322.45 472.85 322.3 470.8 L322.3 466.6 Q322.3 462.95 318.4 462.85 L312.75 463.45 Q310.7 461.8 307.5 460.2 301.2 456.9 294.3 456.9 283.85 456.9 276.6 448.95 272.8 444.8 270.25 438.8 L252.45 438.45 Q245.65 438.45 240.7 442.25 239.8 442.95 232.85 450.15 228.05 455.15 222.95 456.9 215.8 459.3 204.95 457.2 L205.6 461.6 Q205.95 465.7 204.8 468.75 201.25 478.45 183.35 478.45 181.0 478.45 180.85 477.05 180.55 475.0 178.55 473.8 L151.95 474.1 Q146.4 482.7 130.4 497.55 119.2 494.65 112.5 498.6 L111.95 499.0 110.45 500.95 105.45 507.55 94.9 521.3 96.15 520.85 95.45 521.65 92.55 524.2 90.85 525.95 89.4 525.95 Q85.65 527.55 81.05 527.55 73.15 527.55 68.3 523.25 65.35 520.6 63.2 515.65 62.35 513.7 52.45 508.0 L49.95 506.55 42.9 506.9 Q36.2 506.9 33.55 501.3 32.75 499.55 32.45 497.55 L32.3 496.1 Q32.3 494.7 32.6 493.5 L29.65 489.4 22.9 479.45 20.1 479.4 Q18.5 479.4 16.4 478.15 14.3 476.9 12.75 476.9 10.95 476.9 9.0 477.85 L4.6 479.7 2.75 478.35 M669.5 380.1 Q673.35 379.1 677.1 379.1 696.15 379.1 708.2 384.9 709.6 385.55 710.9 386.3 L711.05 386.4 Q714.95 388.65 717.65 391.4 L717.8 391.55 Q722.0 395.9 723.05 401.3 742.25 400.4 746.75 406.85 747.55 408.05 748.85 411.95 749.8 414.8 751.65 415.65 753.3 414.0 753.85 411.4 L754.45 407.25 Q755.5 402.85 763.35 402.85 766.35 402.85 771.2 405.2 L775.7 407.55 Q777.3 407.55 780.5 406.3 783.7 405.05 785.25 405.05 789.6 405.05 791.15 407.95 L793.55 413.15 Q794.65 413.0 797.0 411.5 799.15 410.05 800.85 410.05 804.55 410.05 806.5 413.0 807.55 414.6 808.7 417.55 L821.95 417.55 Q824.2 416.4 827.0 410.75 829.9 405.0 834.3 402.55 850.35 401.8 852.3 400.55 855.3 398.6 868.85 396.9 L889.8 396.9 Q901.25 401.1 906.15 410.75 910.55 419.5 907.6 427.55 L907.6 427.85 908.55 427.1 Q908.95 426.6 910.7 426.6 917.4 426.6 923.35 431.65 927.05 434.7 933.2 442.7 939.45 450.8 942.85 453.75 948.7 458.8 955.1 458.8 L957.45 458.35 958.1 457.4 Q960.1 455.95 974.8 455.95 983.2 455.95 987.6 463.1 989.9 466.75 991.2 473.15 L991.75 472.7 Q992.65 472.2 994.6 472.2 996.2 472.2 1003.05 473.8 1009.95 475.35 1011.5 475.35 1020.75 475.35 1025.55 472.65 1027.35 471.65 1031.35 467.4 1034.25 464.35 1038.3 463.9 1044.05 463.2 1055.85 466.3 1051.85 456.35 1054.15 448.35 1056.2 441.25 1062.85 436.55 1069.0 432.3 1077.4 431.05 1085.65 429.85 1093.2 431.9 L1093.05 431.15 Q1092.9 430.35 1092.9 428.45 1092.9 427.15 1094.7 425.75 1095.8 424.9 1098.95 422.8 1105.6 417.75 1107.6 408.8 1107.95 407.1 1106.8 402.1 1105.9 398.1 1107.6 396.05 1112.75 390.05 1149.8 390.05 1167.3 390.05 1171.6 396.1 1173.8 399.2 1172.45 402.55 1182.35 405.65 1184.6 405.65 1189.2 405.65 1194.1 397.55 1196.85 393.0 1198.0 391.6 1200.35 388.7 1202.9 388.15 1214.15 385.75 1214.4 381.35 L1214.0 377.3 Q1213.8 374.75 1215.25 372.85 1218.85 368.0 1229.1 366.35 1238.05 364.85 1249.5 366.1 1260.35 367.3 1268.0 370.25 L1271.7 371.9 Q1282.4 372.0 1285.95 379.85 1287.0 382.05 1287.65 385.65 1288.2 388.75 1288.55 389.1 L1290.0 386.6 Q1291.3 384.0 1292.45 382.6 1296.45 377.8 1302.45 382.2 1308.2 375.5 1313.2 370.75 1314.55 368.05 1317.05 366.0 1319.55 364.0 1322.75 362.95 1325.05 361.45 1327.2 360.4 1333.75 357.25 1339.45 358.1 L1341.2 358.45 Q1342.85 356.0 1343.25 355.8 1344.05 355.4 1346.2 355.2 L1350.55 355.05 1352.35 355.15 Q1354.55 355.4 1356.95 356.25 1363.65 358.55 1371.95 365.35 L1380.1 372.45 Q1383.85 375.65 1385.1 375.65 1390.2 375.65 1394.4 366.0 1397.6 358.6 1397.6 355.65 1397.6 352.7 1407.5 345.45 1408.35 344.8 1409.35 344.1 1412.65 341.75 1415.6 340.05 1423.45 335.35 1428.35 335.35 1447.0 335.35 1454.6 346.35 1459.55 353.55 1458.7 361.6 1479.35 362.3 1481.4 369.2 1481.95 371.2 1481.1 374.55 L1480.4 375.1 Q1478.35 376.9 1477.7 380.7 L1477.4 382.5 1476.65 386.25 Q1475.65 388.8 1472.3 388.8 1467.35 388.8 1461.8 385.2 L1456.2 381.6 Q1453.8 381.6 1453.7 382.75 1453.5 384.75 1453.1 385.2 1450.05 388.65 1425.1 388.15 1423.7 388.15 1416.1 390.85 1407.5 393.85 1397.6 395.05 1384.2 396.7 1381.15 404.1 L1379.1 408.9 Q1378.6 409.55 1377.9 410.0 L1379.25 410.95 Q1383.2 413.2 1384.95 415.35 1382.9 419.55 1380.55 419.8 L1379.3 419.95 Q1378.85 420.1 1378.85 421.1 1378.85 423.95 1380.15 427.0 1381.95 431.2 1382.6 434.25 L1381.95 437.2 Q1375.25 435.75 1368.95 441.25 1362.95 446.5 1363.2 452.2 1363.1 452.2 1362.45 452.75 1361.65 453.45 1360.7 453.8 1357.95 452.45 1358.25 449.9 L1358.7 448.45 1358.2 448.45 Q1357.4 448.45 1351.25 443.4 L1350.55 442.85 Q1348.4 443.2 1345.85 444.1 1340.65 439.75 1338.35 437.05 1336.1 434.4 1335.15 432.0 1332.8 431.25 1329.9 430.65 L1328.25 433.35 Q1326.0 436.9 1319.95 436.9 1314.4 436.9 1312.0 432.25 L1310.7 427.55 Q1310.7 424.7 1312.65 421.9 1314.35 419.4 1317.0 418.6 L1316.65 417.85 Q1304.4 417.55 1300.4 415.65 L1298.95 414.85 Q1293.2 416.7 1289.15 420.1 1286.5 422.35 1283.35 426.55 1280.65 430.15 1279.3 430.95 L1274.0 430.95 1273.8 430.1 1260.6 422.7 Q1247.25 415.05 1244.8 415.05 1231.4 415.05 1218.55 423.5 1214.6 426.15 1210.6 429.65 L1206.65 433.15 Q1203.6 432.4 1203.3 430.7 1203.55 428.85 1203.2 428.15 L1190.55 428.45 Q1189.1 431.25 1188.05 432.55 1186.2 434.75 1181.95 435.35 L1150.25 435.95 Q1148.15 438.1 1136.7 446.7 1127.5 453.65 1123.35 459.7 1116.6 469.4 1114.85 474.3 1113.55 477.8 1113.55 483.95 1113.55 489.15 1107.15 494.45 1099.3 500.95 1086.95 500.95 1085.2 500.95 1084.2 499.7 L1082.75 497.55 1072.6 497.85 1071.35 499.25 Q1069.95 500.6 1068.55 501.6 1067.15 501.15 1065.8 499.6 1064.0 497.45 1062.85 496.65 1057.6 492.85 1042.9 492.85 1033.75 492.85 1030.95 499.8 1029.45 503.6 1029.95 510.05 L1028.9 512.05 Q1028.05 513.45 1026.05 513.45 1024.2 513.45 1022.85 512.6 L1020.25 510.8 Q1015.8 508.15 1004.8 508.15 1004.3 508.15 1000.4 510.65 996.0 513.5 994.6 514.1 992.8 513.5 988.7 508.1 985.1 503.45 980.4 503.45 978.85 503.45 975.2 504.9 971.5 506.3 969.95 506.3 968.8 506.3 965.75 503.45 L958.55 497.1 Q946.4 487.8 930.4 487.55 L927.4 484.45 Q924.9 481.7 922.2 479.95 913.25 474.1 896.05 474.1 885.9 474.1 881.0 476.3 876.9 478.1 874.8 482.45 873.5 485.1 871.15 492.05 868.45 498.9 863.85 504.4 L857.3 511.2 Q852.05 516.4 849.45 519.65 840.7 530.5 846.65 536.3 L846.45 537.9 Q846.15 538.8 844.15 538.8 842.6 538.8 840.0 537.4 837.45 535.95 835.85 535.95 L818.55 536.3 Q814.35 536.85 814.2 538.3 814.1 539.25 814.6 542.2 L814.4 543.0 Q814.05 543.8 812.1 543.8 810.2 543.8 809.5 542.65 L809.0 541.3 794.8 541.3 789.75 537.3 Q785.45 533.8 783.7 533.8 783.55 533.8 778.85 536.1 773.95 538.5 772.6 538.8 L769.95 537.85 Q769.3 536.9 769.3 533.15 L768.05 532.55 Q763.2 533.55 760.85 535.35 759.1 536.6 756.05 536.6 754.55 536.6 750.75 532.0 L749.8 532.85 Q746.85 528.25 740.9 526.4 L733.85 525.05 731.35 525.95 Q733.55 530.55 728.25 533.8 725.0 535.8 711.05 540.65 708.85 538.45 708.35 536.65 L707.9 533.45 675.55 532.55 Q667.0 532.55 663.05 535.1 659.65 538.25 656.8 539.4 655.0 538.8 654.55 538.4 653.7 537.6 653.7 535.5 653.7 533.95 655.1 532.7 656.5 531.45 656.5 529.85 656.5 528.2 652.05 522.6 647.25 516.6 646.35 512.55 647.1 507.2 646.95 503.55 646.65 496.6 640.1 496.6 634.85 496.6 632.0 499.95 L630.2 502.4 Q629.25 503.6 628.35 503.8 612.85 503.5 609.85 500.55 L609.05 499.8 606.2 502.2 Q605.35 499.4 605.1 497.4 604.95 496.0 604.95 492.7 L605.1 488.6 Q605.05 486.85 604.1 485.7 602.1 483.45 589.6 478.15 L581.5 478.15 579.2 480.75 Q577.55 482.2 574.15 483.8 571.35 482.25 571.4 478.05 572.05 473.1 571.95 470.95 571.75 470.4 567.65 469.75 L561.5 468.8 561.75 467.95 Q562.65 463.25 557.4 459.65 L556.7 459.2 Q552.5 456.6 546.65 455.9 547.7 453.55 549.5 451.6 560.8 439.25 599.45 442.55 599.65 440.5 598.2 436.3 597.0 432.65 597.85 430.8 600.55 425.0 628.35 420.35 629.5 414.35 634.4 407.1 639.25 400.0 646.25 393.7 654.45 386.3 662.3 382.65 665.9 380.95 669.5 380.1 M1799.1 273.95 L1799.1 342.35 1799.1 353.3 1799.1 412.4 1800.25 413.75 1800.25 423.7 1799.1 423.35 1793.15 420.5 Q1786.8 417.2 1784.8 417.2 1783.85 417.2 1782.35 415.15 L1778.9 410.65 Q1772.95 404.3 1762.9 405.05 L1752.1 405.05 Q1750.15 407.0 1749.1 410.2 1748.55 411.95 1745.25 412.55 1742.35 411.3 1740.65 408.6 1738.8 405.6 1736.65 404.4 L1720.7 404.4 Q1714.8 406.8 1708.75 416.55 L1704.75 422.7 Q1702.65 425.35 1700.85 425.35 1699.4 425.35 1695.0 421.05 1690.25 416.4 1689.15 415.95 L1670.4 415.95 1671.9 420.3 Q1672.9 423.05 1672.9 424.85 1672.9 426.4 1666.45 433.8 1660.15 440.95 1659.6 440.95 1656.95 440.95 1654.15 436.6 1651.35 432.2 1647.3 432.2 1638.05 432.2 1633.1 441.65 L1629.45 449.1 Q1627.25 453.0 1624.45 454.4 1620.05 452.0 1619.95 447.35 L1619.9 443.8 Q1619.75 441.85 1618.7 440.65 1616.7 438.4 1613.85 437.6 L1609.35 436.9 Q1606.95 436.55 1606.0 435.3 1604.75 433.7 1604.8 429.7 1602.45 429.0 1599.05 428.7 L1593.7 428.15 Q1593.7 423.8 1593.2 421.7 1592.1 417.2 1588.7 417.2 1586.9 417.2 1584.8 418.55 1582.25 420.1 1581.35 420.35 L1579.25 419.8 Q1578.55 419.4 1578.55 417.35 1578.55 416.5 1580.45 413.55 L1582.3 410.8 Q1582.3 409.95 1580.45 408.05 1578.25 405.75 1574.85 403.8 1565.2 398.15 1551.8 398.15 1549.15 398.15 1543.7 401.15 1538.2 404.1 1536.95 404.1 1531.25 404.1 1524.65 399.45 1517.3 394.3 1517.3 388.15 1517.3 382.9 1512.35 379.05 L1511.8 378.65 Q1510.35 377.6 1508.5 376.65 L1505.35 375.25 1504.95 375.1 1504.95 374.85 Q1504.95 370.2 1512.9 366.7 1521.1 363.1 1534.15 362.55 1532.65 360.75 1532.85 356.8 1533.15 352.35 1535.65 348.3 1542.6 337.2 1560.85 337.2 1589.95 337.2 1608.15 347.35 1628.25 358.6 1631.95 380.95 L1631.95 381.9 1647.8 379.25 Q1656.15 377.65 1657.45 375.95 1658.05 375.15 1658.8 372.3 1659.45 369.65 1660.9 368.2 1665.6 363.45 1684.3 363.15 1683.9 355.85 1684.95 348.95 1686.4 340.0 1690.1 334.4 1692.25 331.2 1693.9 325.4 1695.4 320.2 1697.25 318.1 1703.25 311.4 1731.8 311.3 1731.05 307.55 1731.05 300.5 1731.05 290.6 1734.75 285.05 1741.2 275.35 1758.85 275.35 1770.0 275.35 1785.5 281.45 1786.55 278.25 1789.35 276.3 1793.25 273.55 1799.1 273.95 M1736.75 383.55 L1736.95 383.15 Q1737.0 381.45 1736.75 383.55 M85.55 489.55 L84.95 486.45 85.3 489.65 85.55 489.55 M638.35 447.55 L638.85 447.6 Q638.7 446.1 637.85 444.55 L638.35 447.55" fill="#e21616" fill-rule="evenodd" stroke="none"/>
      <path d="M1736.75 383.55 Q1737.0 381.45 1736.95 383.15 L1736.75 383.55 M238.25 403.05 L238.25 402.5 238.8 402.1 Q241.9 400.7 239.75 403.5 L238.25 403.05 M638.35 447.55 L637.85 444.55 Q638.7 446.1 638.85 447.6 L638.35 447.55 M516.65 445.45 Q516.9 443.35 516.85 445.05 L516.65 445.45 M370.85 419.85 L364.8 418.0 Q368.7 417.05 370.8 419.0 L370.85 419.85" fill="#504d4f" fill-rule="evenodd" stroke="none"/>
      <path d="M2.5 672.6 L2.5 507.95 2.75 507.45 2.75 478.35 4.6 479.7 9.0 477.85 Q10.95 476.9 12.75 476.9 14.3 476.9 16.4 478.15 18.5 479.4 20.1 479.4 L22.9 479.45 29.65 489.4 32.6 493.5 Q32.3 494.7 32.3 496.1 L32.45 497.55 Q32.75 499.55 33.55 501.3 36.2 506.9 42.9 506.9 L49.95 506.55 52.45 508.0 Q62.35 513.7 63.2 515.65 65.35 520.6 68.3 523.25 73.15 527.55 81.05 527.55 85.65 527.55 89.4 525.95 L90.85 525.95 92.55 524.2 95.45 521.65 96.15 520.85 94.9 521.3 105.45 507.55 110.45 500.95 111.95 499.0 112.5 498.6 Q119.2 494.65 130.4 497.55 146.4 482.7 151.95 474.1 L178.55 473.8 Q180.55 475.0 180.85 477.05 181.0 478.45 183.35 478.45 201.25 478.45 204.8 468.75 205.95 465.7 205.6 461.6 L204.95 457.2 Q215.8 459.3 222.95 456.9 228.05 455.15 232.85 450.15 239.8 442.95 240.7 442.25 245.65 438.45 252.45 438.45 L270.25 438.8 Q272.8 444.8 276.6 448.95 283.85 456.9 294.3 456.9 301.2 456.9 307.5 460.2 310.7 461.8 312.75 463.45 L318.4 462.85 Q322.3 462.95 322.3 466.6 L322.3 470.8 Q322.45 472.85 323.05 474.1 329.35 473.15 332.8 474.75 334.5 475.6 335.25 476.6 336.8 476.6 343.3 475.05 349.75 473.45 351.35 473.45 358.5 473.45 373.85 483.3 381.55 488.25 388.05 493.15 390.75 493.15 395.85 487.7 L400.7 482.2 Q413.75 482.2 417.4 488.05 418.85 490.35 418.85 496.9 L422.9 497.85 425.35 497.1 Q426.75 496.45 427.45 496.3 L427.45 497.2 426.75 498.45 Q426.1 499.65 426.1 500.55 426.1 503.35 432.45 503.15 L438.85 499.6 Q443.75 496.9 447.3 496.9 L452.35 497.6 456.5 497.85 Q457.0 491.0 462.0 486.55 464.95 483.9 470.25 481.55 473.75 483.45 475.55 483.45 477.2 483.45 478.15 481.75 L479.0 479.7 478.25 478.6 489.7 474.95 Q499.45 471.7 505.4 468.15 L518.7 467.85 520.8 466.95 Q521.5 466.3 521.5 464.25 521.5 462.5 520.9 460.25 520.25 458.0 520.25 457.2 L532.2 456.2 542.1 455.65 546.65 455.9 Q552.5 456.6 556.7 459.2 L557.4 459.65 Q562.65 463.25 561.75 467.95 L561.5 468.8 567.65 469.75 Q571.75 470.4 571.95 470.95 572.05 473.1 571.4 478.05 571.35 482.25 574.15 483.8 577.55 482.2 579.2 480.75 L581.5 478.15 589.6 478.15 Q602.1 483.45 604.1 485.7 605.05 486.85 605.1 488.6 L604.95 492.7 Q604.95 496.0 605.1 497.4 605.35 499.4 606.2 502.2 L609.05 499.8 609.85 500.55 Q612.85 503.5 628.35 503.8 629.25 503.6 630.2 502.4 L632.0 499.95 Q634.85 496.6 640.1 496.6 646.65 496.6 646.95 503.55 647.1 507.2 646.35 512.55 647.25 516.6 652.05 522.6 656.5 528.2 656.5 529.85 656.5 531.45 655.1 532.7 653.7 533.95 653.7 535.5 653.7 537.6 654.55 538.4 655.0 538.8 656.8 539.4 659.65 538.25 663.05 535.1 667.0 532.55 675.55 532.55 L707.9 533.45 708.35 536.65 Q708.85 538.45 711.05 540.65 725.0 535.8 728.25 533.8 733.55 530.55 731.35 525.95 L733.85 525.05 740.9 526.4 Q746.85 528.25 749.8 532.85 L750.75 532.0 Q754.55 536.6 756.05 536.6 759.1 536.6 760.85 535.35 763.2 533.55 768.05 532.55 L769.3 533.15 Q769.3 536.9 769.95 537.85 L772.6 538.8 Q773.95 538.5 778.85 536.1 783.55 533.8 783.7 533.8 785.45 533.8 789.75 537.3 L794.8 541.3 809.0 541.3 809.5 542.65 Q810.2 543.8 812.1 543.8 814.05 543.8 814.4 543.0 L814.6 542.2 Q814.1 539.25 814.2 538.3 814.35 536.85 818.55 536.3 L835.85 535.95 Q837.45 535.95 840.0 537.4 842.6 538.8 844.15 538.8 846.15 538.8 846.45 537.9 L846.65 536.3 Q840.7 530.5 849.45 519.65 852.05 516.4 857.3 511.2 L863.85 504.4 Q868.45 498.9 871.15 492.05 873.5 485.1 874.8 482.45 876.9 478.1 881.0 476.3 885.9 474.1 896.05 474.1 913.25 474.1 922.2 479.95 924.9 481.7 927.4 484.45 L930.4 487.55 Q946.4 487.8 958.55 497.1 L965.75 503.45 Q968.8 506.3 969.95 506.3 971.5 506.3 975.2 504.9 978.85 503.45 980.4 503.45 985.1 503.45 988.7 508.1 992.8 513.5 994.6 514.1 996.0 513.5 1000.4 510.65 1004.3 508.15 1004.8 508.15 1015.8 508.15 1020.25 510.8 L1022.85 512.6 Q1024.2 513.45 1026.05 513.45 1028.05 513.45 1028.9 512.05 L1029.95 510.05 Q1029.45 503.6 1030.95 499.8 1033.75 492.85 1042.9 492.85 1057.6 492.85 1062.85 496.65 1064.0 497.45 1065.8 499.6 1067.15 501.15 1068.55 501.6 1069.95 500.6 1071.35 499.25 L1072.6 497.85 1082.75 497.55 1084.2 499.7 Q1085.2 500.95 1086.95 500.95 1099.3 500.95 1107.15 494.45 1113.55 489.15 1113.55 483.95 1113.55 477.8 1114.85 474.3 1116.6 469.4 1123.35 459.7 1127.5 453.65 1136.7 446.7 1148.15 438.1 1150.25 435.95 L1181.95 435.35 Q1186.2 434.75 1188.05 432.55 1189.1 431.25 1190.55 428.45 L1203.2 428.15 Q1203.55 428.85 1203.3 430.7 1203.6 432.4 1206.65 433.15 L1210.6 429.65 Q1214.6 426.15 1218.55 423.5 1231.4 415.05 1244.8 415.05 1247.25 415.05 1260.6 422.7 L1273.8 430.1 1274.0 430.95 1279.3 430.95 Q1280.65 430.15 1283.35 426.55 1286.5 422.35 1289.15 420.1 1293.2 416.7 1298.95 414.85 L1300.4 415.65 Q1304.4 417.55 1316.65 417.85 L1317.0 418.6 Q1314.35 419.4 1312.65 421.9 1310.7 424.7 1310.7 427.55 L1312.0 432.25 Q1314.4 436.9 1319.95 436.9 1326.0 436.9 1328.25 433.35 L1329.9 430.65 Q1332.8 431.25 1335.15 432.0 1336.1 434.4 1338.35 437.05 1340.65 439.75 1345.85 444.1 1348.4 443.2 1350.55 442.85 L1351.25 443.4 Q1357.4 448.45 1358.2 448.45 L1358.7 448.45 1358.25 449.9 Q1357.95 452.45 1360.7 453.8 1361.65 453.45 1362.45 452.75 1363.1 452.2 1363.2 452.2 1362.95 446.5 1368.95 441.25 1375.25 435.75 1381.95 437.2 L1382.6 434.25 Q1381.95 431.2 1380.15 427.0 1378.85 423.95 1378.85 421.1 1378.85 420.1 1379.3 419.95 L1380.55 419.8 Q1382.9 419.55 1384.95 415.35 1383.2 413.2 1379.25 410.95 L1377.9 410.0 Q1378.6 409.55 1379.1 408.9 L1381.15 404.1 Q1384.2 396.7 1397.6 395.05 1407.5 393.85 1416.1 390.85 1423.7 388.15 1425.1 388.15 1450.05 388.65 1453.1 385.2 1453.5 384.75 1453.7 382.75 1453.8 381.6 1456.2 381.6 L1461.8 385.2 Q1467.35 388.8 1472.3 388.8 1475.65 388.8 1476.65 386.25 L1477.4 382.5 1477.7 380.7 Q1478.35 376.9 1480.4 375.1 L1481.1 374.55 Q1484.05 372.55 1489.8 372.55 1498.2 372.55 1504.95 375.1 L1505.35 375.25 1508.5 376.65 Q1510.35 377.6 1511.8 378.65 L1512.35 379.05 Q1517.3 382.9 1517.3 388.15 1517.3 394.3 1524.65 399.45 1531.25 404.1 1536.95 404.1 1538.2 404.1 1543.7 401.15 1549.15 398.15 1551.8 398.15 1565.2 398.15 1574.85 403.8 1578.25 405.75 1580.45 408.05 1582.3 409.95 1582.3 410.8 L1580.45 413.55 Q1578.55 416.5 1578.55 417.35 1578.55 419.4 1579.25 419.8 L1581.35 420.35 Q1582.25 420.1 1584.8 418.55 1586.9 417.2 1588.7 417.2 1592.1 417.2 1593.2 421.7 1593.7 423.8 1593.7 428.15 L1599.05 428.7 Q1602.45 429.0 1604.8 429.7 1604.75 433.7 1606.0 435.3 1606.95 436.55 1609.35 436.9 L1613.85 437.6 Q1616.7 438.4 1618.7 440.65 1619.75 441.85 1619.9 443.8 L1619.95 447.35 Q1620.05 452.0 1624.45 454.4 1627.25 453.0 1629.45 449.1 L1633.1 441.65 Q1638.05 432.2 1647.3 432.2 1651.35 432.2 1654.15 436.6 1656.95 440.95 1659.6 440.95 1660.15 440.95 1666.45 433.8 1672.9 426.4 1672.9 424.85 1672.9 423.05 1671.9 420.3 L1670.4 415.95 1689.15 415.95 Q1690.25 416.4 1695.0 421.05 1699.4 425.35 1700.85 425.35 1702.65 425.35 1704.75 422.7 L1708.75 416.55 Q1714.8 406.8 1720.7 404.4 L1736.65 404.4 Q1738.8 405.6 1740.65 408.6 1742.35 411.3 1745.25 412.55 1748.55 411.95 1749.1 410.2 1750.15 407.0 1752.1 405.05 L1762.9 405.05 Q1772.95 404.3 1778.9 410.65 L1782.35 415.15 Q1783.85 417.2 1784.8 417.2 1786.8 417.2 1793.15 420.5 L1799.1 423.35 1799.1 617.8 1799.1 631.15 1800.0 631.15 1800.0 670.85 1800.0 688.3 1800.25 688.4 1800.25 740.65 1800.0 740.9 1800.0 1042.2 5.7 1042.2 5.7 722.15 Q3.75 716.8 3.05 710.35 L2.5 709.8 2.5 672.6" fill="#b4101d" fill-rule="evenodd" stroke="none"/>
      <path d="M85.55 489.55 L85.3 489.65 84.95 486.45 85.55 489.55" fill="#646063" fill-rule="evenodd" stroke="none"/>
      <path d="M1352.35 355.15 L1350.55 355.05 1346.2 355.2 1345.65 355.05 1350.55 354.4 Q1351.8 354.4 1352.35 355.15" fill="#fa7c1f" fill-rule="evenodd" stroke="none"/>
      <path d="M1132.6 672.9 L1138.15 667.9 Q1142.8 663.5 1146.25 661.85 1151.5 659.35 1158.95 659.7 1159.4 655.5 1162.9 652.75 1169.05 647.85 1183.6 647.85 1193.25 647.85 1195.3 649.75 1196.0 650.45 1196.0 651.6 L1195.95 653.45 Q1208.15 653.7 1215.4 656.7 L1219.9 658.65 Q1222.15 659.5 1224.6 659.4 1226.95 650.65 1245.4 650.65 1256.95 650.65 1263.35 656.6 L1267.0 660.65 Q1268.65 662.5 1269.9 662.5 L1285.65 661.45 Q1290.85 660.45 1291.9 660.55 1293.05 660.6 1293.25 662.9 1293.8 669.0 1294.35 671.9 1302.3 667.0 1309.05 668.3 1314.65 669.35 1320.6 675.15 1323.5 678.0 1331.25 687.5 1338.25 696.15 1343.15 700.35 1347.7 697.8 1356.35 697.5 1365.65 697.2 1368.6 695.95 1374.1 693.15 1378.35 691.1 1386.6 687.2 1390.4 687.2 1394.6 687.2 1396.65 688.6 1397.6 689.2 1399.3 691.6 1416.2 688.65 1421.9 693.4 1424.5 696.1 1426.3 697.2 1429.35 699.1 1434.75 699.1 L1439.75 694.8 Q1444.5 690.35 1445.45 688.75 1446.15 687.6 1453.75 684.45 1462.1 681.0 1464.35 679.1 1467.6 676.35 1469.85 672.6 L1473.25 666.85 Q1477.95 660.75 1494.5 657.5 1494.9 650.55 1514.55 648.15 1515.75 646.65 1517.1 641.25 1518.75 634.6 1520.1 631.5 1525.6 619.1 1540.8 619.1 1565.9 619.1 1577.3 621.2 1586.55 622.95 1589.0 626.7 1590.45 628.9 1591.1 634.1 1592.55 639.0 1598.8 642.2 1603.6 644.6 1605.75 648.65 1607.55 652.0 1607.4 656.25 1607.0 665.2 1611.35 665.8 1613.85 666.15 1620.95 662.7 1627.85 659.25 1630.35 659.8 1634.45 660.6 1633.7 670.0 L1640.4 670.9 1649.65 671.6 Q1651.45 669.8 1653.7 668.15 L1666.05 667.85 Q1666.15 663.15 1674.55 654.4 1681.95 646.75 1690.8 640.65 L1709.55 640.35 1711.25 638.95 Q1714.0 636.6 1715.95 636.6 1722.25 636.6 1731.4 641.6 L1739.6 646.6 Q1743.6 646.6 1748.75 642.25 1753.9 637.85 1755.55 637.85 1757.65 637.85 1759.8 640.25 1762.1 642.85 1764.45 643.15 1769.5 638.05 1784.45 629.05 1795.45 622.4 1800.2 620.65 L1800.2 659.05 1797.3 658.65 1794.4 659.05 Q1790.8 658.95 1786.45 659.2 1770.35 660.05 1766.0 664.4 1763.5 666.45 1762.45 670.45 1761.55 673.85 1761.95 677.5 1755.75 681.35 1754.55 689.9 1753.9 694.65 1753.95 703.15 1753.65 706.7 1743.0 714.3 1731.5 722.55 1729.9 725.95 1727.3 731.35 1726.25 738.55 L1724.45 752.2 1711.1 752.95 1697.8 753.45 Q1694.4 753.45 1692.15 751.25 L1690.6 749.3 1686.65 740.55 Q1684.1 735.0 1680.1 732.9 1674.6 730.0 1664.8 731.9 L1639.6 711.9 Q1617.4 694.7 1615.45 694.7 1583.1 694.7 1579.1 697.6 1577.7 698.55 1578.8 700.6 1580.2 703.2 1580.05 704.1 1563.65 704.1 1555.4 706.25 1554.15 705.1 1553.3 703.25 L1551.95 699.85 Q1550.05 695.4 1544.85 692.85 L1534.4 691.8 1528.0 691.25 Q1506.65 691.25 1492.1 708.35 1482.15 720.2 1477.6 736.6 1450.7 736.2 1440.55 743.2 1437.05 745.6 1435.15 749.2 1434.1 751.2 1432.9 754.4 L1431.85 754.8 Q1430.65 755.25 1430.05 755.65 1428.2 754.7 1427.55 752.65 L1426.3 749.15 Q1423.75 745.0 1409.45 745.0 1386.25 745.0 1374.65 751.25 1367.35 755.2 1366.45 755.55 1361.4 757.5 1353.95 757.5 1350.8 757.5 1340.95 757.85 1334.75 761.55 1331.75 763.85 1326.85 767.5 1324.0 771.4 L1312.55 767.75 Q1302.8 764.5 1296.85 760.95 L1283.55 760.65 1281.45 759.75 Q1280.75 759.1 1280.75 757.05 1280.75 755.3 1281.35 753.05 L1282.0 750.0 1270.0 749.0 1260.1 748.45 1255.55 748.7 Q1254.5 746.35 1252.7 744.4 1241.4 732.05 1202.7 735.35 1202.5 733.3 1203.95 729.1 1205.15 725.45 1204.3 723.6 1201.6 717.8 1173.8 713.15 1172.65 707.15 1167.75 699.9 1162.9 692.8 1155.85 686.5 1147.65 679.1 1139.8 675.45 1136.2 673.75 1132.6 672.9 M2.0 566.75 L2.0 505.8 5.85 505.35 Q28.95 505.35 39.75 507.4 50.05 509.35 54.7 514.3 57.8 517.6 61.5 527.25 66.25 539.55 70.9 547.5 82.05 541.85 92.9 546.75 95.65 547.95 99.8 550.7 103.0 552.85 103.9 552.85 105.5 552.85 108.3 551.45 111.1 550.0 112.65 550.0 116.9 550.0 134.2 565.35 L151.0 580.65 162.75 578.0 Q175.0 575.35 178.65 575.35 195.4 575.35 206.4 585.55 209.1 588.1 213.3 593.25 216.55 597.35 218.1 598.15 217.75 596.5 218.05 595.05 218.6 592.2 221.85 592.2 L252.3 593.55 Q259.2 594.65 260.25 597.5 L260.7 600.5 Q260.85 602.65 261.4 604.1 263.3 608.85 271.75 613.15 274.1 604.2 280.0 597.65 291.7 584.7 313.8 584.7 328.85 584.7 332.05 588.6 333.15 589.9 333.05 591.95 L332.85 595.0 Q333.05 597.2 335.65 598.05 L341.3 599.1 Q349.8 600.55 351.3 607.5 361.15 607.4 365.6 609.15 L368.15 610.4 370.25 610.95 Q382.35 610.95 388.95 614.75 393.1 617.15 394.55 620.7 397.75 617.85 400.75 617.85 406.3 617.85 410.1 624.5 413.2 631.9 414.15 633.45 415.65 632.6 422.15 631.6 L430.95 630.65 Q435.9 630.65 439.0 632.25 L443.9 635.8 Q450.6 640.95 464.85 640.95 468.05 637.85 472.3 634.7 480.9 628.45 487.7 628.45 L493.6 628.95 506.15 629.7 Q512.75 622.25 520.55 617.15 529.95 610.95 537.0 611.25 L560.35 612.4 Q567.9 612.85 569.7 614.3 571.4 615.65 570.8 620.4 569.4 631.6 569.3 634.1 588.25 635.75 599.6 644.55 603.85 647.85 606.25 651.65 608.3 654.9 608.3 657.2 L614.85 655.25 Q620.7 653.75 625.3 653.75 651.65 653.75 654.4 657.7 655.15 658.8 654.6 661.8 654.05 664.85 655.2 666.6 L656.75 666.6 Q657.35 664.1 657.9 662.75 658.95 660.35 662.25 660.35 672.4 660.35 673.45 658.3 674.05 657.15 674.5 656.9 675.7 656.25 679.6 656.25 694.5 656.25 701.4 667.5 705.7 674.45 705.7 681.6 L705.6 684.4 Q722.35 686.2 723.5 690.45 L723.4 694.5 Q723.3 697.2 724.95 699.1 726.45 702.45 727.35 702.5 731.55 702.65 744.3 706.6 746.9 707.35 749.85 710.5 752.35 713.45 752.6 713.45 767.9 713.45 781.9 717.1 798.25 721.35 802.35 728.45 803.85 723.7 805.6 720.5 809.0 714.4 815.95 714.4 L824.25 714.7 Q825.65 714.8 826.5 714.15 833.1 709.05 848.95 701.6 850.25 700.25 853.4 699.55 L859.5 698.35 Q867.8 696.5 870.8 690.35 L872.4 686.2 Q873.45 683.7 875.3 682.05 880.45 677.5 895.85 676.25 897.05 675.0 897.85 671.7 898.75 668.0 899.7 666.45 903.6 660.35 919.6 660.65 920.05 651.4 928.9 643.85 937.4 636.6 946.1 636.6 952.9 636.6 956.7 635.3 958.85 634.55 961.8 632.4 967.55 628.15 979.35 628.15 983.1 628.15 986.6 631.25 988.85 633.2 992.3 638.0 996.0 643.1 997.65 644.75 1000.8 647.85 1003.95 647.85 1005.3 647.85 1006.1 646.9 1007.35 645.45 1008.3 644.9 1013.35 641.9 1031.3 641.9 1034.95 641.9 1042.45 649.3 1049.85 656.55 1052.25 662.2 L1059.05 660.6 Q1063.5 659.4 1065.25 659.4 1079.7 659.4 1087.4 661.4 1093.4 662.95 1097.25 666.4 1101.3 670.75 1104.0 673.1 L1104.95 673.9 Q1098.5 675.35 1093.35 677.9 L1093.85 677.7 Q1092.45 678.35 1091.15 679.1 L1091.0 679.2 Q1087.1 681.45 1084.4 684.2 L1084.25 684.35 Q1080.05 688.7 1079.0 694.1 1059.8 693.2 1055.3 699.65 1054.5 700.85 1053.2 704.75 1052.25 707.6 1050.4 708.45 1048.75 706.8 1048.2 704.2 L1047.6 700.05 Q1046.55 695.65 1038.65 695.65 1035.65 695.65 1030.8 698.0 1028.4 699.2 1026.3 700.35 1024.7 700.35 1021.5 699.1 1018.3 697.85 1016.75 697.85 1012.4 697.85 1010.85 700.75 L1008.45 705.95 Q1007.35 705.8 1005.0 704.3 1002.85 702.85 1001.15 702.85 997.45 702.85 995.5 705.8 994.45 707.4 993.3 710.35 L980.0 710.35 Q977.75 709.2 974.95 703.55 972.05 697.8 967.65 695.35 951.6 694.6 949.65 693.35 946.65 691.4 933.1 689.7 L912.1 689.7 Q900.65 693.9 895.75 703.55 891.35 712.3 894.3 720.35 L894.3 720.65 Q893.8 720.55 893.35 719.9 892.95 719.4 891.2 719.4 884.5 719.4 878.55 724.45 874.8 727.5 868.65 735.5 862.4 743.6 859.0 746.55 853.15 751.6 846.75 751.6 844.75 751.6 844.4 751.15 L843.75 750.2 Q841.75 748.75 827.05 748.75 818.65 748.75 814.2 755.9 811.9 759.55 810.6 765.95 L810.05 765.5 Q809.15 765.0 807.2 765.0 805.6 765.0 798.75 766.6 L790.3 768.15 Q781.05 768.15 776.25 765.45 774.45 764.45 770.45 760.2 767.55 757.15 763.5 756.7 757.7 756.0 745.9 759.1 749.9 749.15 747.6 741.15 745.55 734.05 738.9 729.35 732.75 725.1 724.35 723.85 716.1 722.65 708.55 724.7 L708.7 723.95 708.85 721.25 Q708.85 719.95 707.05 718.55 L702.75 715.6 Q696.1 710.55 694.1 701.6 693.75 699.9 694.9 694.9 695.8 690.9 694.1 688.85 688.95 682.85 651.9 682.85 634.35 682.85 630.05 688.9 627.85 692.0 629.2 695.35 619.3 698.45 617.05 698.45 612.45 698.45 607.55 690.35 604.8 685.8 603.65 684.4 601.3 681.5 598.75 680.95 587.45 678.55 587.2 674.15 L587.6 670.1 Q587.8 667.55 586.35 665.65 582.75 660.8 572.5 659.15 563.55 657.65 552.1 658.9 541.25 660.1 533.55 663.05 531.45 663.85 529.85 664.7 519.15 664.8 515.6 672.65 514.55 674.85 513.9 678.45 513.35 681.55 513.0 681.9 512.65 681.7 511.55 679.4 L509.1 675.4 Q505.1 670.6 499.1 675.0 493.35 668.3 488.35 663.55 487.0 660.85 484.5 658.8 482.0 656.8 478.75 655.75 476.45 654.25 474.3 653.2 467.75 650.05 462.05 650.9 L460.3 651.25 Q458.65 648.8 458.25 648.6 L455.3 648.0 455.85 647.85 450.95 647.2 Q449.7 647.2 449.15 647.95 446.95 648.2 444.55 649.05 437.85 651.35 429.55 658.15 L421.35 665.25 Q417.6 668.45 416.35 668.45 411.25 668.45 407.05 658.8 403.85 651.4 403.85 648.45 403.85 645.5 393.95 638.25 L392.1 636.9 385.85 632.85 Q378.0 628.15 373.1 628.15 354.4 628.15 346.8 639.15 341.85 646.35 342.7 654.4 322.05 655.1 320.0 662.0 319.45 664.0 320.3 667.35 317.35 665.35 311.6 665.35 303.15 665.35 296.4 667.9 L296.4 667.65 Q296.4 663.0 288.45 659.5 280.25 655.9 267.2 655.35 268.7 653.55 268.5 649.6 268.2 645.15 265.7 641.1 258.75 630.0 240.45 630.0 211.35 630.0 193.1 640.15 173.0 651.4 169.3 673.75 L169.3 674.7 153.45 672.05 Q145.1 670.45 143.8 668.75 143.2 667.95 142.45 665.1 141.8 662.45 140.35 661.0 135.6 656.25 116.9 655.95 117.3 648.65 116.25 641.75 114.8 632.8 111.1 627.2 108.95 624.0 107.3 618.2 105.8 613.0 103.95 610.9 97.95 604.2 69.35 604.1 70.1 600.35 70.1 593.3 70.1 583.4 66.4 577.85 59.95 568.15 42.3 568.15 31.15 568.15 15.6 574.25 14.55 571.05 11.75 569.1 7.85 566.35 2.0 566.75 M1431.5 712.65 Q1434.5 711.65 1437.55 710.8 1433.65 709.85 1431.55 711.8 L1431.5 712.65 M1562.75 696.3 L1564.25 695.85 1564.25 695.3 1563.7 694.9 Q1560.6 693.5 1562.75 696.3 M1285.6 738.25 Q1285.35 736.15 1285.4 737.85 L1285.6 738.25" fill="#f86627" fill-rule="evenodd" stroke="none"/>
      <path d="M1132.6 672.9 Q1136.2 673.75 1139.8 675.45 1147.65 679.1 1155.85 686.5 1162.9 692.8 1167.75 699.9 1172.65 707.15 1173.8 713.15 1201.6 717.8 1204.3 723.6 1205.15 725.45 1203.95 729.1 1202.5 733.3 1202.7 735.35 1241.4 732.05 1252.7 744.4 1254.5 746.35 1255.55 748.7 1249.7 749.4 1245.5 752.0 L1244.8 752.45 Q1239.55 756.05 1240.45 760.75 L1240.7 761.6 1234.55 762.55 Q1230.45 763.2 1230.25 763.75 1230.15 765.9 1230.8 770.85 1230.85 775.05 1228.05 776.6 1224.65 775.0 1223.0 773.55 L1220.7 770.95 1212.55 770.95 Q1200.05 776.25 1198.05 778.5 1197.1 779.65 1197.05 781.4 L1197.2 785.5 1197.05 790.2 Q1196.8 792.2 1195.95 795.0 L1193.1 792.6 Q1193.05 792.6 1192.3 793.35 1189.3 796.3 1173.8 796.6 1172.9 796.4 1171.95 795.2 L1170.15 792.75 Q1167.3 789.4 1162.05 789.4 1155.45 789.4 1155.15 796.35 1155.0 800.0 1155.75 805.35 1154.85 809.4 1150.05 815.4 1145.6 821.0 1145.6 822.65 1145.6 824.25 1147.0 825.5 1148.4 826.75 1148.4 828.3 1148.4 830.4 1147.55 831.2 1147.1 831.6 1145.3 832.2 1142.45 831.05 1139.05 827.9 1135.1 825.35 1126.55 825.35 L1094.15 826.25 1093.7 829.45 Q1093.2 831.25 1091.0 833.45 1077.05 828.6 1073.8 826.6 1068.5 823.35 1070.7 818.75 L1068.2 817.85 1061.15 819.2 Q1055.2 821.05 1052.25 825.65 L1051.3 824.8 Q1047.5 829.4 1046.0 829.4 1042.9 829.4 1041.15 828.15 1038.8 826.35 1033.95 825.35 L1032.7 825.95 Q1032.7 829.7 1032.05 830.65 L1029.4 831.6 Q1028.05 831.3 1023.15 828.9 L1018.3 826.6 Q1016.55 826.6 1012.25 830.1 L1007.2 834.1 993.0 834.1 992.5 835.45 Q991.8 836.6 989.9 836.6 987.9 836.6 987.55 835.8 L987.35 835.0 Q987.85 832.05 987.75 831.1 987.6 829.65 983.4 829.1 L966.1 828.75 Q964.5 828.75 961.95 830.2 959.35 831.6 957.8 831.6 955.8 831.6 955.5 830.7 L955.3 829.1 Q961.25 823.3 952.5 812.45 949.9 809.2 944.65 804.0 L938.1 797.2 Q933.5 791.7 930.75 784.85 928.4 777.9 927.1 775.25 925.0 770.9 920.9 769.1 916.0 766.9 905.85 766.9 888.65 766.9 879.7 772.75 877.0 774.5 874.45 777.25 L871.45 780.35 Q855.45 780.6 843.3 789.9 840.9 791.75 836.1 796.25 833.05 799.1 831.9 799.1 830.35 799.1 826.65 797.7 823.0 796.25 821.45 796.25 816.7 796.25 813.1 800.9 809.0 806.3 807.2 806.9 805.8 806.3 801.4 803.45 797.5 800.95 797.0 800.95 786.0 800.95 781.55 803.6 L778.95 805.4 Q777.6 806.25 775.75 806.25 773.75 806.25 772.9 804.85 772.4 804.1 771.85 802.85 772.35 796.4 770.85 792.6 768.05 785.65 758.85 785.65 744.15 785.65 738.9 789.45 737.75 790.25 735.95 792.4 734.6 793.95 733.2 794.4 L730.4 792.05 729.15 790.65 719.0 790.35 717.55 792.5 Q716.55 793.75 714.8 793.75 702.4 793.75 694.55 787.25 688.15 781.95 688.15 776.75 688.15 770.6 686.85 767.1 685.1 762.2 678.35 752.5 674.2 746.45 665.0 739.5 653.55 730.9 651.45 728.75 L619.7 728.15 Q615.45 727.55 613.6 725.35 612.55 724.05 611.1 721.25 L598.45 720.95 Q598.1 721.65 598.35 723.5 598.05 725.2 595.0 725.95 L591.0 722.45 Q587.0 718.95 583.05 716.3 570.2 707.85 556.8 707.85 554.35 707.85 541.0 715.5 L527.75 722.9 527.55 723.75 522.25 723.75 Q520.9 722.95 518.2 719.35 515.05 715.15 512.4 712.9 508.35 709.5 502.6 707.65 L501.15 708.45 Q497.15 710.35 484.9 710.65 L484.55 711.4 Q487.2 712.2 488.9 714.7 490.85 717.5 490.85 720.35 L489.55 725.05 Q487.15 729.7 481.6 729.7 475.5 729.7 473.25 726.15 L471.6 723.45 466.35 724.8 Q465.4 727.2 463.15 729.85 460.85 732.55 455.65 736.9 453.1 736.0 450.95 735.65 L450.25 736.2 Q444.1 741.25 443.3 741.25 L442.8 741.25 443.25 742.7 Q443.55 745.25 440.8 746.6 L439.05 745.55 438.3 745.0 Q438.55 739.3 432.55 734.05 426.25 728.55 419.5 730.0 L418.85 727.05 Q419.5 724.0 421.3 719.8 422.65 716.75 422.65 713.9 422.65 712.9 422.15 712.75 L420.9 712.6 Q418.55 712.35 416.5 708.15 418.25 706.0 422.2 703.75 L423.6 702.8 Q422.9 702.35 422.35 701.7 L420.3 696.9 Q417.25 689.5 403.85 687.85 393.95 686.65 385.35 683.65 377.75 680.95 376.35 680.95 351.35 681.45 348.3 678.0 347.9 677.55 347.7 675.55 347.6 674.4 345.2 674.4 L339.6 678.0 Q334.05 681.6 329.1 681.6 325.75 681.6 324.75 679.05 L324.0 675.3 323.7 673.5 Q323.05 669.7 321.0 667.9 L320.3 667.35 Q319.45 664.0 320.0 662.0 322.05 655.1 342.7 654.4 341.85 646.35 346.8 639.15 354.4 628.15 373.1 628.15 378.0 628.15 385.85 632.85 L392.1 636.9 393.95 638.25 Q403.85 645.5 403.85 648.45 403.85 651.4 407.05 658.8 411.25 668.45 416.35 668.45 417.6 668.45 421.35 665.25 L429.55 658.15 Q437.85 651.35 444.55 649.05 446.95 648.2 449.15 647.95 L450.95 647.85 455.3 648.0 458.25 648.6 Q458.65 648.8 460.3 651.25 L462.05 650.9 Q467.75 650.05 474.3 653.2 476.45 654.25 478.75 655.75 482.0 656.8 484.5 658.8 487.0 660.85 488.35 663.55 493.35 668.3 499.1 675.0 505.1 670.6 509.1 675.4 L511.55 679.4 Q512.65 681.7 513.0 681.9 513.35 681.55 513.9 678.45 514.55 674.85 515.6 672.65 519.15 664.8 529.85 664.7 531.45 663.85 533.55 663.05 541.25 660.1 552.1 658.9 563.55 657.65 572.5 659.15 582.75 660.8 586.35 665.65 587.8 667.55 587.6 670.1 L587.2 674.15 Q587.45 678.55 598.75 680.95 601.3 681.5 603.65 684.4 604.8 685.8 607.55 690.35 612.45 698.45 617.05 698.45 619.3 698.45 629.2 695.35 627.85 692.0 630.05 688.9 634.35 682.85 651.9 682.85 688.95 682.85 694.1 688.85 695.8 690.9 694.9 694.9 693.75 699.9 694.1 701.6 696.1 710.55 702.75 715.6 L707.05 718.55 Q708.85 719.95 708.85 721.25 L708.7 723.95 708.55 724.7 Q716.1 722.65 724.35 723.85 732.75 725.1 738.9 729.35 745.55 734.05 747.6 741.15 749.9 749.15 745.9 759.1 757.7 756.0 763.5 756.7 767.55 757.15 770.45 760.2 774.45 764.45 776.25 765.45 781.05 768.15 790.3 768.15 L798.75 766.6 Q805.6 765.0 807.2 765.0 809.15 765.0 810.05 765.5 L810.6 765.95 Q811.9 759.55 814.2 755.9 818.65 748.75 827.05 748.75 841.75 748.75 843.75 750.2 L844.4 751.15 Q844.75 751.6 846.75 751.6 853.15 751.6 859.0 746.55 862.4 743.6 868.65 735.5 874.8 727.5 878.55 724.45 884.5 719.4 891.2 719.4 892.95 719.4 893.35 719.9 893.8 720.55 894.3 720.65 L894.3 720.35 Q891.35 712.3 895.75 703.55 900.65 693.9 912.1 689.7 L933.1 689.7 Q946.65 691.4 949.65 693.35 951.6 694.6 967.65 695.35 972.05 697.8 974.95 703.55 977.75 709.2 980.0 710.35 L993.3 710.35 Q994.45 707.4 995.5 705.8 997.45 702.85 1001.15 702.85 1002.85 702.85 1005.0 704.3 1007.35 705.8 1008.45 705.95 L1010.85 700.75 Q1012.4 697.85 1016.75 697.85 1018.3 697.85 1021.5 699.1 1024.7 700.35 1026.3 700.35 1028.4 699.2 1030.8 698.0 1035.65 695.65 1038.65 695.65 1046.55 695.65 1047.6 700.05 L1048.2 704.2 Q1048.75 706.8 1050.4 708.45 1052.25 707.6 1053.2 704.75 1054.5 700.85 1055.3 699.65 1059.8 693.2 1079.0 694.1 1080.05 688.7 1084.25 684.35 L1084.4 684.2 Q1087.1 681.45 1091.0 679.2 L1091.15 679.1 Q1092.45 678.35 1093.85 677.7 1105.95 671.9 1125.0 671.9 1128.75 671.9 1132.6 672.9 M1324.0 771.4 Q1326.85 767.5 1331.75 763.85 1334.75 761.55 1340.95 757.85 1350.8 757.5 1353.95 757.5 1361.4 757.5 1366.45 755.55 1367.35 755.2 1374.65 751.25 1386.25 745.0 1409.45 745.0 1423.75 745.0 1426.3 749.15 L1427.55 752.65 Q1428.2 754.7 1430.05 755.65 1430.65 755.25 1431.85 754.8 L1432.9 754.4 Q1434.1 751.2 1435.15 749.2 1437.05 745.6 1440.55 743.2 1450.7 736.2 1477.6 736.6 1482.15 720.2 1492.1 708.35 1506.65 691.25 1528.0 691.25 L1534.4 691.8 1544.85 692.85 Q1550.05 695.4 1551.95 699.85 L1553.3 703.25 Q1554.15 705.1 1555.4 706.25 1563.65 704.1 1580.05 704.1 1580.2 703.2 1578.8 700.6 1577.7 698.55 1579.1 697.6 1583.1 694.7 1615.45 694.7 1617.4 694.7 1639.6 711.9 L1664.8 731.9 Q1674.6 730.0 1680.1 732.9 1684.1 735.0 1686.65 740.55 L1690.6 749.3 1692.15 751.25 Q1694.4 753.45 1697.8 753.45 L1711.1 752.95 1724.45 752.2 1726.25 738.55 Q1727.3 731.35 1729.9 725.95 1731.5 722.55 1743.0 714.3 1753.65 706.7 1753.95 703.15 1753.9 694.65 1754.55 689.9 1755.75 681.35 1761.95 677.5 1761.55 673.85 1762.45 670.45 1763.5 666.45 1766.0 664.4 1770.35 660.05 1786.45 659.2 1790.8 658.95 1794.4 659.05 L1797.3 658.65 1800.2 659.05 1800.2 716.6 1799.95 719.2 1799.65 722.05 1799.95 726.0 1800.2 729.45 1800.2 759.6 1799.95 761.1 1799.95 762.65 1800.2 762.85 1800.2 770.95 1799.95 771.15 1798.1 772.5 1793.7 770.65 Q1791.75 769.7 1789.95 769.7 1788.4 769.7 1786.3 770.95 1784.2 772.2 1782.6 772.2 L1779.8 772.25 1773.0 782.2 1770.05 786.3 1770.35 788.9 1770.2 790.35 Q1769.9 792.35 1769.1 794.1 1766.45 799.7 1759.75 799.7 L1752.7 799.35 1750.2 800.8 Q1740.3 806.5 1739.45 808.45 1737.3 813.4 1734.35 816.05 1729.5 820.35 1721.55 820.35 1716.95 820.35 1713.2 818.75 L1711.75 818.75 1710.05 817.0 1707.15 814.45 1706.45 813.65 1707.7 814.1 1697.15 800.35 1692.15 793.75 1690.65 791.8 1690.1 791.4 Q1683.4 787.45 1672.2 790.35 1656.15 775.5 1650.6 766.9 L1624.0 766.6 Q1622.0 767.8 1621.7 769.85 1621.55 771.25 1619.2 771.25 1601.25 771.25 1597.7 761.55 1596.55 758.5 1596.9 754.4 L1597.55 750.0 Q1586.7 752.1 1579.55 749.7 1574.45 747.95 1569.65 742.95 L1561.8 735.05 Q1556.85 731.25 1550.0 731.25 L1532.2 731.6 Q1529.65 737.6 1525.85 741.75 1518.6 749.7 1508.15 749.7 1501.25 749.7 1494.9 753.0 1491.7 754.6 1489.65 756.25 L1484.0 755.65 Q1480.1 755.75 1480.1 759.4 L1480.1 763.6 Q1479.95 765.65 1479.35 766.9 1473.05 765.95 1469.6 767.55 1467.9 768.4 1467.15 769.4 L1459.1 767.85 Q1452.65 766.25 1451.05 766.25 1443.9 766.25 1428.5 776.1 1420.8 781.05 1414.3 785.95 1411.6 785.95 1406.5 780.5 L1401.65 775.0 Q1388.6 775.0 1384.95 780.85 1383.45 783.15 1383.45 789.7 L1379.4 790.65 1376.95 789.9 Q1375.55 789.25 1374.85 789.1 L1374.85 790.0 1375.55 791.25 Q1376.2 792.45 1376.2 793.35 1376.2 796.15 1369.85 795.95 L1363.45 792.4 Q1358.55 789.7 1355.0 789.7 L1349.95 790.4 1345.8 790.65 Q1345.3 783.8 1340.3 779.35 1337.35 776.7 1332.05 774.35 1328.55 776.25 1326.7 776.25 1325.05 776.25 1324.1 774.55 1323.6 773.7 1323.25 772.5 L1324.0 771.4 M2.0 716.15 L0.85 716.5 0.85 706.55 2.0 705.2 2.0 566.75 Q7.85 566.35 11.75 569.1 14.55 571.05 15.6 574.25 31.15 568.15 42.3 568.15 59.95 568.15 66.4 577.85 70.1 583.4 70.1 593.3 70.1 600.35 69.35 604.1 97.95 604.2 103.95 610.9 105.8 613.0 107.3 618.2 108.95 624.0 111.1 627.2 114.8 632.8 116.25 641.75 117.3 648.65 116.9 655.95 135.6 656.25 140.35 661.0 141.8 662.45 142.45 665.1 143.2 667.95 143.8 668.75 145.1 670.45 153.45 672.05 L169.3 674.7 169.3 673.75 Q173.0 651.4 193.1 640.15 211.35 630.0 240.45 630.0 258.75 630.0 265.7 641.1 268.2 645.15 268.5 649.6 268.7 653.55 267.2 655.35 280.25 655.9 288.45 659.5 296.4 663.0 296.4 667.65 L296.4 667.9 296.0 668.05 292.85 669.45 Q291.0 670.4 289.55 671.45 L289.0 671.85 Q284.05 675.7 284.05 680.95 284.05 687.1 276.7 692.25 270.1 696.9 264.4 696.9 263.15 696.9 257.65 693.95 252.15 690.95 249.5 690.95 236.1 690.95 226.45 696.6 223.05 698.55 220.85 700.85 219.0 702.75 219.0 703.6 L220.85 706.35 Q222.75 709.3 222.75 710.15 222.75 712.2 222.05 712.6 L219.95 713.15 Q219.05 712.9 216.5 711.35 214.4 710.0 212.6 710.0 209.2 710.0 208.1 714.5 207.6 716.6 207.6 720.95 L202.25 721.5 196.5 722.5 Q196.55 726.5 195.25 728.1 194.3 729.35 191.9 729.7 L187.4 730.4 Q184.55 731.2 182.55 733.45 181.5 734.65 181.35 736.6 181.25 737.75 181.3 740.15 181.2 744.8 176.8 747.2 174.0 745.8 171.8 741.9 170.5 739.6 168.15 734.45 163.2 725.0 153.95 725.0 149.9 725.0 147.1 729.4 144.3 733.75 141.65 733.75 141.1 733.75 134.75 726.6 128.3 719.2 128.3 717.65 128.3 715.85 129.3 713.1 L130.8 708.75 112.05 708.75 Q110.95 709.2 106.2 713.85 101.8 718.15 100.35 718.15 98.55 718.15 96.45 715.5 L92.45 709.35 Q86.4 699.6 80.45 697.2 L64.5 697.2 Q62.35 698.4 60.5 701.4 58.8 704.1 55.9 705.35 52.6 704.75 52.05 703.0 51.0 699.8 49.05 697.85 L38.25 697.85 Q28.2 697.1 22.2 703.45 21.3 704.45 18.75 707.95 17.25 710.0 16.3 710.0 14.3 710.0 7.95 713.3 L2.0 716.15 M1717.05 782.35 L1717.3 782.45 1717.65 779.25 1717.05 782.35 M1164.3 737.35 Q1163.45 738.9 1163.3 740.4 L1163.8 740.35 1164.3 737.35 M64.4 676.35 Q64.15 674.25 64.2 675.95 L64.4 676.35" fill="#e21616" fill-rule="evenodd" stroke="none"/>
      <path d="M1255.55 748.7 L1260.1 748.45 1270.0 749.0 1282.0 750.0 1281.35 753.05 Q1280.75 755.3 1280.75 757.05 1280.75 759.1 1281.45 759.75 L1283.55 760.65 1296.85 760.95 Q1302.8 764.5 1312.55 767.75 L1324.0 771.4 1323.25 772.5 Q1323.6 773.7 1324.1 774.55 1325.05 776.25 1326.7 776.25 1328.55 776.25 1332.05 774.35 1337.35 776.7 1340.3 779.35 1345.3 783.8 1345.8 790.65 L1349.95 790.4 1355.0 789.7 Q1358.55 789.7 1363.45 792.4 L1369.85 795.95 Q1376.2 796.15 1376.2 793.35 1376.2 792.45 1375.55 791.25 L1374.85 790.0 1374.85 789.1 Q1375.55 789.25 1376.95 789.9 L1379.4 790.65 1383.45 789.7 Q1383.45 783.15 1384.95 780.85 1388.6 775.0 1401.65 775.0 L1406.5 780.5 Q1411.6 785.95 1414.3 785.95 1420.8 781.05 1428.5 776.1 1443.9 766.25 1451.05 766.25 1452.65 766.25 1459.1 767.85 L1467.15 769.4 Q1467.9 768.4 1469.6 767.55 1473.05 765.95 1479.35 766.9 1479.95 765.65 1480.1 763.6 L1480.1 759.4 Q1480.1 755.75 1484.0 755.65 L1489.65 756.25 Q1491.7 754.6 1494.9 753.0 1501.25 749.7 1508.15 749.7 1518.6 749.7 1525.85 741.75 1529.65 737.6 1532.2 731.6 L1550.0 731.25 Q1556.85 731.25 1561.8 735.05 L1569.65 742.95 Q1574.45 747.95 1579.55 749.7 1586.7 752.1 1597.55 750.0 L1596.9 754.4 Q1596.55 758.5 1597.7 761.55 1601.25 771.25 1619.2 771.25 1621.55 771.25 1621.7 769.85 1622.0 767.8 1624.0 766.6 L1650.6 766.9 Q1656.15 775.5 1672.2 790.35 1683.4 787.45 1690.1 791.4 L1690.65 791.8 1692.15 793.75 1697.15 800.35 1707.7 814.1 1706.45 813.65 1707.15 814.45 1710.05 817.0 1711.75 818.75 1713.2 818.75 Q1716.95 820.35 1721.55 820.35 1729.5 820.35 1734.35 816.05 1737.3 813.4 1739.45 808.45 1740.3 806.5 1750.2 800.8 L1752.7 799.35 1759.75 799.7 Q1766.45 799.7 1769.1 794.1 1769.9 792.35 1770.2 790.35 L1770.35 788.9 1770.05 786.3 1773.0 782.2 1779.8 772.25 1782.6 772.2 Q1784.2 772.2 1786.3 770.95 1788.4 769.7 1789.95 769.7 1791.75 769.7 1793.7 770.65 L1798.1 772.5 1799.95 771.15 1799.95 800.25 1800.2 800.75 1800.2 1002.6 1799.65 1003.15 Q1798.95 1009.6 1797.0 1014.95 L1797.0 1042.95 1.1 1042.95 1.1 1033.7 0.85 1033.45 0.85 981.2 1.1 981.1 1.1 923.95 2.0 923.95 2.0 716.15 7.95 713.3 Q14.3 710.0 16.3 710.0 17.25 710.0 18.75 707.95 21.3 704.45 22.2 703.45 28.2 697.1 38.25 697.85 L49.05 697.85 Q51.0 699.8 52.05 703.0 52.6 704.75 55.9 705.35 58.8 704.1 60.5 701.4 62.35 698.4 64.5 697.2 L80.45 697.2 Q86.4 699.6 92.45 709.35 L96.45 715.5 Q98.55 718.15 100.35 718.15 101.8 718.15 106.2 713.85 110.95 709.2 112.05 708.75 L130.8 708.75 129.3 713.1 Q128.3 715.85 128.3 717.65 128.3 719.2 134.75 726.6 141.1 733.75 141.65 733.75 144.3 733.75 147.1 729.4 149.9 725.0 153.95 725.0 163.2 725.0 168.15 734.45 170.5 739.6 171.8 741.9 174.0 745.8 176.8 747.2 181.2 744.8 181.3 740.15 181.25 737.75 181.35 736.6 181.5 734.65 182.55 733.45 184.55 731.2 187.4 730.4 L191.9 729.7 Q194.3 729.35 195.25 728.1 196.55 726.5 196.5 722.5 L202.25 721.5 207.6 720.95 Q207.6 716.6 208.1 714.5 209.2 710.0 212.6 710.0 214.4 710.0 216.5 711.35 219.05 712.9 219.95 713.15 L222.05 712.6 Q222.75 712.2 222.75 710.15 222.75 709.3 220.85 706.35 L219.0 703.6 Q219.0 702.75 220.85 700.85 223.05 698.55 226.45 696.6 236.1 690.95 249.5 690.95 252.15 690.95 257.65 693.95 263.15 696.9 264.4 696.9 270.1 696.9 276.7 692.25 284.05 687.1 284.05 680.95 284.05 675.7 289.0 671.85 L289.55 671.45 Q291.0 670.4 292.85 669.45 L296.0 668.05 296.4 667.9 Q303.15 665.35 311.6 665.35 317.35 665.35 320.3 667.35 L321.0 667.9 Q323.05 669.7 323.7 673.5 L324.0 675.3 324.75 679.05 Q325.75 681.6 329.1 681.6 334.05 681.6 339.6 678.0 L345.2 674.4 Q347.6 674.4 347.7 675.55 347.9 677.55 348.3 678.0 351.35 681.45 376.35 680.95 377.75 680.95 385.35 683.65 393.95 686.65 403.85 687.85 417.25 689.5 420.3 696.9 L422.35 701.7 Q422.9 702.35 423.6 702.8 L422.2 703.75 Q418.25 706.0 416.5 708.15 418.55 712.35 420.9 712.6 L422.15 712.75 Q422.65 712.9 422.65 713.9 422.65 716.75 421.3 719.8 419.5 724.0 418.85 727.05 L419.5 730.0 Q426.25 728.55 432.55 734.05 438.55 739.3 438.3 745.0 L439.05 745.55 440.8 746.6 Q443.55 745.25 443.25 742.7 L442.8 741.25 443.3 741.25 Q444.1 741.25 450.25 736.2 L450.95 735.65 Q453.1 736.0 455.65 736.9 460.85 732.55 463.15 729.85 465.4 727.2 466.35 724.8 L471.6 723.45 473.25 726.15 Q475.5 729.7 481.6 729.7 487.15 729.7 489.55 725.05 L490.85 720.35 Q490.85 717.5 488.9 714.7 487.2 712.2 484.55 711.4 L484.9 710.65 Q497.15 710.35 501.15 708.45 L502.6 707.65 Q508.35 709.5 512.4 712.9 515.05 715.15 518.2 719.35 520.9 722.95 522.25 723.75 L527.55 723.75 527.75 722.9 541.0 715.5 Q554.35 707.85 556.8 707.85 570.2 707.85 583.05 716.3 587.0 718.95 591.0 722.45 L595.0 725.95 Q598.05 725.2 598.35 723.5 598.1 721.65 598.45 720.95 L611.1 721.25 Q612.55 724.05 613.6 725.35 615.45 727.55 619.7 728.15 L651.45 728.75 Q653.55 730.9 665.0 739.5 674.2 746.45 678.35 752.5 685.1 762.2 686.85 767.1 688.15 770.6 688.15 776.75 688.15 781.95 694.55 787.25 702.4 793.75 714.8 793.75 716.55 793.75 717.55 792.5 L719.0 790.35 729.15 790.65 730.4 792.05 733.2 794.4 Q734.6 793.95 735.95 792.4 737.75 790.25 738.9 789.45 744.15 785.65 758.85 785.65 768.05 785.65 770.85 792.6 772.35 796.4 771.85 802.85 772.4 804.1 772.9 804.85 773.75 806.25 775.75 806.25 777.6 806.25 778.95 805.4 L781.55 803.6 Q786.0 800.95 797.0 800.95 797.5 800.95 801.4 803.45 805.8 806.3 807.2 806.9 809.0 806.3 813.1 800.9 816.7 796.25 821.45 796.25 823.0 796.25 826.65 797.7 830.35 799.1 831.9 799.1 833.05 799.1 836.1 796.25 840.9 791.75 843.3 789.9 855.45 780.6 871.45 780.35 L874.45 777.25 Q877.0 774.5 879.7 772.75 888.65 766.9 905.85 766.9 916.0 766.9 920.9 769.1 925.0 770.9 927.1 775.25 928.4 777.9 930.75 784.85 933.5 791.7 938.1 797.2 L944.65 804.0 Q949.9 809.2 952.5 812.45 961.25 823.3 955.3 829.1 L955.5 830.7 Q955.8 831.6 957.8 831.6 959.35 831.6 961.95 830.2 964.5 828.75 966.1 828.75 L983.4 829.1 Q987.6 829.65 987.75 831.1 987.85 832.05 987.35 835.0 L987.55 835.8 Q987.9 836.6 989.9 836.6 991.8 836.6 992.5 835.45 L993.0 834.1 1007.2 834.1 1012.25 830.1 Q1016.55 826.6 1018.3 826.6 L1023.15 828.9 Q1028.05 831.3 1029.4 831.6 L1032.05 830.65 Q1032.7 829.7 1032.7 825.95 L1033.95 825.35 Q1038.8 826.35 1041.15 828.15 1042.9 829.4 1046.0 829.4 1047.5 829.4 1051.3 824.8 L1052.25 825.65 Q1055.2 821.05 1061.15 819.2 L1068.2 817.85 1070.7 818.75 Q1068.5 823.35 1073.8 826.6 1077.05 828.6 1091.0 833.45 1093.2 831.25 1093.7 829.45 L1094.15 826.25 1126.55 825.35 Q1135.1 825.35 1139.05 827.9 1142.45 831.05 1145.3 832.2 1147.1 831.6 1147.55 831.2 1148.4 830.4 1148.4 828.3 1148.4 826.75 1147.0 825.5 1145.6 824.25 1145.6 822.65 1145.6 821.0 1150.05 815.4 1154.85 809.4 1155.75 805.35 1155.0 800.0 1155.15 796.35 1155.45 789.4 1162.05 789.4 1167.3 789.4 1170.15 792.75 L1171.95 795.2 Q1172.9 796.4 1173.8 796.6 1189.3 796.3 1192.3 793.35 1193.05 792.6 1193.1 792.6 L1195.95 795.0 Q1196.8 792.2 1197.05 790.2 L1197.2 785.5 1197.05 781.4 Q1197.1 779.65 1198.05 778.5 1200.05 776.25 1212.55 770.95 L1220.7 770.95 1223.0 773.55 Q1224.65 775.0 1228.05 776.6 1230.85 775.05 1230.8 770.85 1230.15 765.9 1230.25 763.75 1230.45 763.2 1234.55 762.55 L1240.7 761.6 1240.45 760.75 Q1239.55 756.05 1244.8 752.45 L1245.5 752.0 Q1249.7 749.4 1255.55 748.7" fill="#b4101d" fill-rule="evenodd" stroke="none"/>
    </g>
  </defs>
</svg>
