<?xml version="1.0" encoding="UTF-8" standalone="no"?>
<svg xmlns:ffdec="https://www.free-decompiler.com/flash" xmlns:xlink="http://www.w3.org/1999/xlink" ffdec:objectType="frame" height="98.0px" width="93.45px" xmlns="http://www.w3.org/2000/svg">
  <g transform="matrix(1.0, 0.0, 0.0, 1.0, 48.3, 52.85)">
    <use ffdec:characterId="155" height="4.5" transform="matrix(7.0, 0.0, 0.0, 7.0, -19.25, -15.05)" width="6.7" xlink:href="#shape0"/>
  </g>
  <defs>
    <g id="shape0" transform="matrix(1.0, 0.0, 0.0, 1.0, 2.75, 2.15)">
      <path d="M1.65 1.5 L1.7 1.55 1.7 1.75 1.65 1.8 1.65 1.85 1.6 1.75 1.55 1.7 Q1.5 1.7 1.55 1.6 L1.55 1.45 1.65 1.5 M1.55 1.6 L1.55 1.7 1.65 1.75 1.7 1.7 1.65 1.65 1.65 1.55 1.6 1.55 1.55 1.6" fill="#99ffff" fill-rule="evenodd" stroke="none"/>
      <path d="M1.65 -0.15 L2.0 -0.25 2.3 -0.25 Q2.4 -0.2 2.55 -0.1 L2.8 0.0 2.85 0.1 2.85 0.45 2.8 0.85 Q2.75 0.8 2.5 0.7 L2.35 0.65 2.15 0.55 2.3 0.65 2.1 0.55 1.75 0.4 1.5 0.3 1.45 0.25 1.6 -0.1 1.65 -0.15 M1.65 -0.05 L1.6 0.05 1.6 0.15 Q1.6 0.2 1.75 0.25 L1.95 0.3 1.9 0.25 1.9 0.2 2.05 0.2 2.1 0.25 2.25 0.35 Q2.3 0.4 2.35 0.45 L2.55 0.45 2.6 0.4 2.6 0.3 Q2.55 0.25 2.6 0.2 L2.6 0.0 Q2.55 -0.05 2.45 -0.1 2.35 -0.15 2.3 -0.2 L2.05 -0.2 1.7 -0.1 1.65 -0.05 M3.75 0.0 L3.85 0.05 3.6 0.05 3.5 0.0 3.45 0.0 3.5 -0.05 Q3.55 0.0 3.65 -0.05 L3.75 0.0 M1.55 1.6 L1.6 1.55 1.65 1.55 1.65 1.65 1.7 1.7 1.65 1.75 1.55 1.7 1.55 1.6 M0.3 0.5 L0.35 0.5 0.25 0.6 0.25 0.55 0.3 0.5 M0.9 1.0 Q0.95 1.1 0.9 1.2 L0.8 1.4 0.8 1.2 Q0.8 1.05 0.9 1.0 M-0.25 1.05 L-0.25 1.1 Q-0.25 1.2 -0.4 1.25 -0.55 1.3 -0.65 1.3 L-0.6 1.25 Q-0.55 1.2 -0.35 1.15 L-0.25 1.05" fill="#00cdff" fill-opacity="0.8" fill-rule="evenodd" stroke="none"/>
      <path d="M1.65 -0.05 L1.7 -0.1 2.05 -0.2 2.3 -0.2 Q2.35 -0.15 2.45 -0.1 2.55 -0.05 2.6 0.0 L2.6 0.2 Q2.55 0.25 2.6 0.3 L2.6 0.4 2.55 0.45 2.35 0.45 Q2.3 0.4 2.25 0.35 L2.1 0.25 2.05 0.2 1.9 0.2 1.9 0.25 1.95 0.3 1.75 0.25 Q1.6 0.2 1.6 0.15 L1.6 0.05 1.65 -0.05" fill="#0099ff" fill-opacity="0.5019608" fill-rule="evenodd" stroke="none"/>
      <path d="M1.6 -0.15 L1.65 -0.25 2.0 -0.3 2.3 -0.3 2.6 -0.15 2.75 -0.1 2.8 -0.05 Q2.9 0.0 2.9 0.05 L2.9 0.4 2.8 0.85 2.6 0.8 2.5 0.8 2.2 0.7 1.7 0.65 1.6 0.75 1.6 0.8 1.55 0.85 1.5 0.85 1.4 0.8 1.25 0.7 1.0 0.55 1.05 0.4 1.1 0.35 1.1 0.3 Q1.1 0.2 1.15 0.2 L1.35 0.05 1.6 -0.15 M1.65 -0.15 L1.6 -0.1 1.45 0.25 1.5 0.3 1.75 0.4 2.1 0.55 2.3 0.65 2.15 0.55 2.35 0.65 2.5 0.7 Q2.75 0.8 2.8 0.85 L2.85 0.45 2.85 0.1 2.8 0.0 2.55 -0.1 Q2.4 -0.2 2.3 -0.25 L2.0 -0.25 1.65 -0.15 M3.65 -0.1 L3.7 -0.05 3.75 -0.05 3.95 0.05 3.95 0.1 3.65 0.1 Q3.6 0.1 3.5 0.05 L3.35 -0.05 Q3.35 -0.1 3.4 -0.1 L3.5 -0.05 3.65 -0.1 M3.75 0.0 L3.65 -0.05 Q3.55 0.0 3.5 -0.05 L3.45 0.0 3.5 0.0 3.6 0.05 3.85 0.05 3.75 0.0 M0.9 0.8 L0.95 1.0 0.95 1.05 1.0 1.1 0.95 1.2 0.85 1.35 0.8 1.45 0.75 1.5 Q0.75 1.2 0.8 1.05 L0.9 0.8 M0.3 0.5 L0.25 0.55 0.25 0.6 0.35 0.5 0.3 0.5 M0.15 0.6 L0.15 0.55 0.3 0.45 0.35 0.5 0.4 0.5 0.4 0.55 Q0.4 0.6 0.3 0.65 L0.15 0.6 M0.9 1.0 Q0.8 1.05 0.8 1.2 L0.8 1.4 0.9 1.2 Q0.95 1.1 0.9 1.0 M-0.75 1.35 L-0.7 1.35 -0.65 1.3 -0.6 1.2 -0.5 1.15 -0.35 1.1 -0.35 1.05 -0.15 1.05 -0.25 1.2 -0.4 1.3 -0.45 1.3 -0.55 1.35 -0.75 1.35 M-0.25 1.05 L-0.35 1.15 Q-0.55 1.2 -0.6 1.25 L-0.65 1.3 Q-0.55 1.3 -0.4 1.25 -0.25 1.2 -0.25 1.1 L-0.25 1.05" fill="#caf9ff" fill-rule="evenodd" stroke="none"/>
      <path d="M0.55 -1.45 L0.55 -1.5 0.35 -1.5 0.3 -1.55 0.2 -1.6 -0.15 -1.6 -0.25 -1.55 -0.2 -1.45 Q-0.2 -1.4 -0.25 -1.2 L-0.35 -1.05 -0.3 -1.0 Q-0.3 -0.9 -0.35 -0.85 L-0.3 -0.85 Q-0.2 -0.85 -0.1 -0.9 L0.05 -1.0 0.25 -0.9 0.3 -0.9 0.5 -1.05 0.55 -1.1 0.6 -1.1 0.6 -0.9 0.55 -0.75 0.45 -0.6 0.45 -0.7 0.3 -0.75 0.0 -0.75 -0.4 -0.5 -0.5 -0.6 -0.6 -0.55 -0.7 -0.55 -0.7 -0.5 -0.8 -0.55 -1.1 -0.55 Q-1.1 -0.5 -1.1 -0.45 L-1.1 -0.35 -1.15 -0.25 -1.15 -0.05 -1.1 -0.05 -1.05 0.0 -1.05 0.05 -1.0 0.2 -0.95 0.2 -0.9 0.2 -0.8 0.25 -0.85 0.25 -0.8 0.3 -0.8 0.4 -0.85 0.65 Q-1.25 0.85 -1.35 0.95 L-1.4 1.0 -1.45 0.95 Q-1.5 0.95 -1.45 1.0 L-1.55 1.0 -1.4 1.05 Q-0.95 1.15 -0.8 1.25 L-0.7 1.25 -0.6 1.15 -0.5 1.25 -0.55 1.4 -0.6 1.5 Q-0.3 1.35 -0.15 1.3 L-0.1 1.3 -0.05 1.35 0.15 1.35 0.2 1.4 0.2 1.5 0.6 1.25 0.7 1.1 Q0.7 1.05 0.8 0.95 L1.0 0.8 1.15 0.65 1.25 0.5 1.25 0.4 1.35 0.4 1.45 0.25 1.55 0.05 Q1.6 -0.05 1.6 -0.25 L1.55 -0.5 Q1.55 -0.6 1.4 -0.75 L1.45 -1.2 Q1.45 -1.3 1.35 -1.5 L1.3 -1.6 Q1.25 -1.6 1.25 -1.65 L1.2 -1.75 Q1.15 -1.75 1.1 -1.8 L1.05 -1.8 1.05 -1.65 1.0 -1.6 1.0 -1.55 0.95 -1.55 0.75 -1.45 0.65 -1.35 0.6 -1.45 0.55 -1.45 M0.1 -1.8 L0.2 -1.8 Q0.25 -1.75 0.35 -1.75 L0.65 -1.65 0.75 -1.65 0.75 -1.7 Q1.05 -1.7 1.05 -1.9 L1.2 -1.75 1.25 -1.75 1.25 -1.7 1.3 -1.6 1.5 -1.25 1.45 -0.8 Q1.45 -0.75 1.5 -0.65 L1.6 -0.55 1.65 -0.25 Q1.65 -0.05 1.6 0.05 L1.4 0.45 1.3 0.45 1.15 0.75 Q1.0 0.9 0.8 1.0 0.75 1.05 0.75 1.1 L0.55 1.3 0.35 1.45 0.2 1.55 0.15 1.55 0.15 1.35 -0.05 1.35 -0.1 1.3 Q-0.3 1.35 -0.4 1.45 L-0.6 1.55 Q-0.65 1.45 -0.7 1.4 L-0.7 1.3 -0.8 1.3 Q-0.9 1.2 -1.05 1.15 -1.2 1.1 -1.6 1.0 L-1.5 1.0 -1.5 0.95 -1.45 0.95 Q-1.35 0.85 -1.3 0.7 L-1.25 0.65 -1.2 0.55 -1.1 0.4 Q-1.1 0.3 -1.15 0.25 L-1.25 0.15 -1.25 0.05 Q-1.25 0.0 -1.3 -0.15 L-1.35 -0.25 -1.3 -0.25 Q-1.2 -0.35 -1.2 -0.45 L-1.2 -0.65 -1.05 -0.7 -0.95 -0.7 -0.95 -0.65 -0.8 -0.7 -0.75 -0.75 Q-0.65 -0.75 -0.6 -0.85 L-0.55 -1.05 Q-0.45 -1.0 -0.4 -1.15 L-0.35 -1.3 -0.4 -1.65 -0.5 -1.9 -0.35 -1.9 -0.25 -1.85 0.0 -1.8 0.1 -1.8 M0.55 -0.5 L0.55 -0.5 0.45 -0.45 0.15 -0.15 0.05 -0.15 -0.1 0.05 Q-0.2 0.15 -0.2 0.25 L-0.15 0.35 -0.15 0.45 -0.1 0.45 -0.1 0.6 -0.15 0.8 -0.25 0.8 -0.2 0.7 -0.4 0.85 -0.5 0.85 -0.55 0.8 -0.6 0.8 -0.6 0.65 -0.55 0.5 -0.5 0.55 -0.45 0.65 -0.4 0.65 Q-0.35 0.6 -0.3 0.5 L-0.35 0.35 Q-0.35 0.25 -0.4 0.1 L-0.3 0.0 Q-0.2 -0.05 -0.15 -0.15 L0.0 -0.4 0.2 -0.4 0.25 -0.45 0.3 -0.4 0.45 -0.45 0.55 -0.5" fill="#caf9ff" fill-rule="evenodd" stroke="none"/>
      <path d="M1.05 -1.8 L1.1 -1.8 Q1.15 -1.75 1.2 -1.75 L1.25 -1.65 Q1.25 -1.6 1.3 -1.6 L1.35 -1.5 Q1.45 -1.3 1.45 -1.2 L1.4 -0.75 Q1.55 -0.6 1.55 -0.5 L1.6 -0.25 Q1.6 -0.05 1.55 0.05 L1.45 0.25 1.35 0.4 1.25 0.4 1.25 0.5 1.15 0.65 1.0 0.8 0.8 0.95 Q0.7 1.05 0.7 1.1 L0.6 1.25 0.2 1.5 0.2 1.4 0.15 1.35 -0.05 1.35 -0.1 1.3 -0.15 1.3 Q-0.3 1.35 -0.6 1.5 L-0.55 1.4 -0.5 1.25 -0.6 1.15 -0.7 1.25 -0.8 1.25 Q-0.95 1.15 -1.4 1.05 L-1.55 1.0 -1.45 1.0 Q-1.5 0.95 -1.45 0.95 L-1.4 1.0 -1.35 0.95 Q-1.25 0.85 -0.85 0.65 L-0.8 0.4 -0.8 0.3 -0.85 0.25 -0.8 0.25 -0.9 0.2 -0.95 0.2 -1.0 0.2 -1.05 0.05 -1.05 0.0 -1.1 -0.05 -1.15 -0.05 -1.15 -0.25 -1.1 -0.35 -1.1 -0.45 Q-1.1 -0.5 -1.1 -0.55 L-0.8 -0.55 -0.7 -0.5 -0.7 -0.55 -0.6 -0.55 -0.5 -0.6 -0.4 -0.5 0.0 -0.75 0.3 -0.75 0.45 -0.7 0.45 -0.6 0.55 -0.75 0.6 -0.9 0.6 -1.1 0.55 -1.1 0.5 -1.05 0.3 -0.9 0.25 -0.9 0.05 -1.0 -0.1 -0.9 Q-0.2 -0.85 -0.3 -0.85 L-0.35 -0.85 Q-0.3 -0.9 -0.3 -1.0 L-0.35 -1.05 -0.25 -1.2 Q-0.2 -1.4 -0.2 -1.45 L-0.25 -1.55 -0.15 -1.6 0.2 -1.6 0.3 -1.55 0.35 -1.5 0.55 -1.5 0.55 -1.45 0.45 -1.35 0.35 -1.4 0.3 -1.45 0.15 -1.45 0.0 -1.5 -0.05 -1.35 Q-0.05 -1.25 -0.1 -1.2 L-0.05 -1.15 -0.05 -1.05 0.2 -1.05 0.25 -1.0 0.35 -1.0 0.35 -1.05 0.3 -1.15 0.5 -1.15 0.6 -1.25 0.6 -1.35 0.65 -1.35 0.75 -1.45 0.95 -1.55 1.0 -1.55 1.0 -1.6 1.05 -1.65 1.05 -1.8 M1.15 -1.7 L1.1 -1.55 1.15 -1.6 1.1 -1.5 1.15 -1.35 1.2 -1.15 1.15 -0.9 1.15 -0.6 0.95 -0.9 Q0.95 -0.95 0.95 -1.05 L0.9 -1.05 0.8 -0.85 Q0.8 -0.75 0.7 -0.7 L0.75 -0.55 0.45 -0.15 0.3 -0.05 0.05 0.0 0.0 0.0 0.0 0.15 -0.05 0.35 0.05 0.35 0.05 0.4 0.1 0.5 0.05 0.75 0.15 0.75 Q0.25 0.75 0.3 0.9 L0.3 1.2 0.25 1.4 0.3 1.4 0.6 1.1 0.65 0.95 0.7 0.9 0.75 0.8 1.0 0.7 1.1 0.55 1.15 0.35 1.25 0.2 1.25 0.3 Q1.45 0.05 1.45 -0.25 L1.45 -0.4 1.35 -0.55 1.35 -0.5 1.3 -0.55 1.25 -0.65 1.35 -1.05 Q1.35 -1.55 1.15 -1.7 M0.9 -1.15 L0.95 -1.2 0.95 -1.3 0.9 -1.45 0.75 -1.3 Q0.65 -1.2 0.65 -1.15 L0.65 -0.8 0.75 -0.95 0.9 -1.15 M0.55 -0.5 L0.45 -0.45 0.3 -0.4 0.25 -0.45 0.2 -0.4 0.0 -0.4 -0.15 -0.15 Q-0.2 -0.05 -0.3 0.0 L-0.4 0.1 Q-0.35 0.25 -0.35 0.35 L-0.3 0.5 Q-0.35 0.6 -0.4 0.65 L-0.45 0.65 -0.5 0.55 -0.55 0.5 -0.6 0.65 -0.6 0.8 -0.55 0.8 -0.5 0.85 -0.4 0.85 -0.2 0.7 -0.25 0.8 -0.15 0.8 -0.1 0.6 -0.1 0.45 -0.15 0.45 -0.15 0.35 -0.2 0.25 Q-0.2 0.15 -0.1 0.05 L0.05 -0.15 0.15 -0.15 0.45 -0.45 0.55 -0.5 0.55 -0.5 M0.1 -0.55 L0.15 -0.6 0.2 -0.6 0.2 -0.65 0.15 -0.7 0.1 -0.7 Q0.05 -0.65 -0.2 -0.6 -0.2 -0.5 -0.4 -0.45 L-0.45 -0.45 -0.45 -0.5 -0.55 -0.5 -0.6 -0.45 Q-0.7 -0.45 -1.05 -0.45 L-1.05 -0.4 -1.0 -0.3 -1.0 -0.15 -0.95 -0.2 Q-0.9 -0.05 -0.9 0.1 L-0.75 0.1 -0.6 0.3 -0.5 0.45 -0.45 0.45 -0.4 0.25 -0.45 0.15 -0.4 -0.05 -0.3 -0.05 -0.2 -0.3 -0.05 -0.45 0.1 -0.55 M1.2 -0.45 L1.25 -0.3 1.25 -0.2 1.2 -0.3 1.2 -0.45 M-0.65 0.75 L-0.65 0.6 -0.7 0.7 Q-0.75 0.75 -0.8 0.8 L-0.9 0.75 -1.0 0.9 Q-1.05 0.95 -1.25 1.0 L-1.2 1.05 -1.05 1.05 Q-0.85 1.1 -0.8 1.15 L-0.75 1.15 -0.65 1.05 -0.6 1.05 -0.55 1.0 -0.5 0.9 Q-0.6 0.85 -0.65 0.75 M0.0 0.8 L0.0 0.7 -0.1 0.9 Q-0.15 0.85 -0.2 0.9 L-0.3 0.95 -0.3 0.85 -0.5 1.05 -0.45 1.1 -0.45 1.15 -0.5 1.35 -0.45 1.35 -0.4 1.3 -0.1 1.3 -0.05 1.2 0.0 1.25 0.05 1.25 0.1 1.1 0.15 1.0 0.15 0.9 0.05 0.9 Q0.0 0.9 0.0 0.8" fill="#00cdff" fill-opacity="0.8" fill-rule="evenodd" stroke="none"/>
      <path d="M0.55 -1.45 L0.6 -1.45 0.65 -1.35 0.6 -1.35 0.6 -1.25 0.5 -1.15 0.3 -1.15 0.35 -1.05 0.35 -1.0 0.25 -1.0 0.2 -1.05 -0.05 -1.05 -0.05 -1.15 -0.1 -1.2 Q-0.05 -1.25 -0.05 -1.35 L0.0 -1.5 0.15 -1.45 0.3 -1.45 0.35 -1.4 0.45 -1.35 0.55 -1.45 M1.15 -1.7 Q1.35 -1.55 1.35 -1.05 L1.25 -0.65 1.3 -0.55 1.35 -0.5 1.35 -0.55 1.45 -0.4 1.45 -0.25 Q1.45 0.05 1.25 0.3 L1.25 0.2 1.15 0.35 1.1 0.55 1.0 0.7 0.75 0.8 0.7 0.9 0.65 0.95 0.6 1.1 0.3 1.4 0.25 1.4 0.3 1.2 0.3 0.9 Q0.25 0.75 0.15 0.75 L0.05 0.75 0.1 0.5 0.05 0.4 0.05 0.35 -0.05 0.35 0.0 0.15 0.0 0.0 0.05 0.0 0.3 -0.05 0.45 -0.15 0.75 -0.55 0.7 -0.7 Q0.8 -0.75 0.8 -0.85 L0.9 -1.05 0.95 -1.05 Q0.95 -0.95 0.95 -0.9 L1.15 -0.6 1.15 -0.9 1.2 -1.15 1.15 -1.35 1.1 -1.5 1.15 -1.6 1.1 -1.55 1.15 -1.7 M0.9 -1.15 L0.75 -0.95 0.65 -0.8 0.65 -1.15 Q0.65 -1.2 0.75 -1.3 L0.9 -1.45 0.95 -1.3 0.95 -1.2 0.9 -1.15 M0.1 -0.55 L-0.05 -0.45 -0.2 -0.3 -0.3 -0.05 -0.4 -0.05 -0.45 0.15 -0.4 0.25 -0.45 0.45 -0.5 0.45 -0.6 0.3 -0.75 0.1 -0.9 0.1 Q-0.9 -0.05 -0.95 -0.2 L-1.0 -0.15 -1.0 -0.3 -1.05 -0.4 -1.05 -0.45 Q-0.7 -0.45 -0.6 -0.45 L-0.55 -0.5 -0.45 -0.5 -0.45 -0.45 -0.4 -0.45 Q-0.2 -0.5 -0.2 -0.6 0.05 -0.65 0.1 -0.7 L0.15 -0.7 0.2 -0.65 0.2 -0.6 0.15 -0.6 0.1 -0.55 M1.2 -0.45 L1.2 -0.3 1.25 -0.2 1.25 -0.3 1.2 -0.45 M0.0 0.8 Q0.0 0.9 0.05 0.9 L0.15 0.9 0.15 1.0 0.1 1.1 0.05 1.25 0.0 1.25 -0.05 1.2 -0.1 1.3 -0.4 1.3 -0.45 1.35 -0.5 1.35 -0.45 1.15 -0.45 1.1 -0.5 1.05 -0.3 0.85 -0.3 0.95 -0.2 0.9 Q-0.15 0.85 -0.1 0.9 L0.0 0.7 0.0 0.8 M-0.65 0.75 Q-0.6 0.85 -0.5 0.9 L-0.55 1.0 -0.6 1.05 -0.65 1.05 -0.75 1.15 -0.8 1.15 Q-0.85 1.1 -1.05 1.05 L-1.2 1.05 -1.25 1.0 Q-1.05 0.95 -1.0 0.9 L-0.9 0.75 -0.8 0.8 Q-0.75 0.75 -0.7 0.7 L-0.65 0.6 -0.65 0.75" fill="#0099ff" fill-opacity="0.5019608" fill-rule="evenodd" stroke="none"/>
      <path d="M2.35 -2.0 L2.45 -2.05 2.6 -2.15 2.6 -2.1 2.45 -1.95 2.35 -1.8 2.2 -1.65 1.95 -1.35 0.45 0.15 Q0.45 0.25 0.5 0.3 L0.8 0.6 0.4 0.4 0.2 0.4 0.15 0.45 -0.35 0.75 -0.95 1.15 -1.2 1.3 -1.75 1.75 -2.65 2.35 -2.65 2.3 -2.75 2.35 -1.95 1.55 -1.15 0.85 -0.95 0.6 -0.7 0.35 -0.3 0.05 -0.3 0.0 Q-0.3 -0.1 -0.4 -0.2 L-0.5 -0.35 -0.7 -0.45 -0.65 -0.5 -0.5 -0.35 -0.25 -0.25 -0.05 -0.2 0.2 -0.45 1.15 -1.15 2.05 -1.75 2.3 -1.95 2.35 -2.0" fill="#caf9ff" fill-rule="evenodd" stroke="none"/>
    </g>
  </defs>
</svg>
