<?xml version="1.0" encoding="UTF-8" standalone="no"?>
<svg xmlns:ffdec="https://www.free-decompiler.com/flash" xmlns:xlink="http://www.w3.org/1999/xlink" ffdec:objectType="frame" height="454.7px" width="186.65px" xmlns="http://www.w3.org/2000/svg">
  <g transform="matrix(1.0, 0.0, 0.0, 1.0, 78.3, 324.25)">
    <use ffdec:characterId="232" ffdec:characterName="a_PhoenixPlume3" height="27.3" transform="matrix(1.0, 0.0, 0.0, 1.0, -46.7, -28.3)" width="74.55" xlink:href="#sprite0"/>
    <use ffdec:characterId="230" ffdec:characterName="a_PhoenixTail3" height="101.15" transform="matrix(1.0, 0.0, 0.0, 1.0, -63.5, -13.25)" width="80.15" xlink:href="#sprite1"/>
    <use ffdec:characterId="228" ffdec:characterName="a_PhoenixWingL3" height="25.9" transform="matrix(1.0, 0.0, 0.0, 1.0, 27.15, -27.6)" width="52.85" xlink:href="#sprite2"/>
    <use ffdec:characterId="246" ffdec:characterName="a_PhoenixBody1" height="41.3" transform="matrix(1.0, 0.0, 0.0, 1.0, 7.1, -28.65)" width="32.2" xlink:href="#sprite3"/>
    <use ffdec:characterId="244" ffdec:characterName="a_PhoenixHead1" height="19.95" transform="matrix(1.0, 0.0, 0.0, 1.0, 21.75, -31.6)" width="43.4" xlink:href="#sprite4"/>
    <use ffdec:characterId="226" ffdec:characterName="a_PhoenixWingR3" height="26.95" transform="matrix(1.0, 0.0, 0.0, 1.0, -33.1, -27.85)" width="53.9" xlink:href="#sprite5"/>
  </g>
  <defs>
    <g id="sprite0" transform="matrix(1.0, 0.0, 0.0, 1.0, 0.0, 0.0)">
      <use ffdec:characterId="231" height="3.9" transform="matrix(7.0, 0.0, 0.0, 7.0, 0.0, 0.0)" width="10.65" xlink:href="#shape0"/>
    </g>
    <g id="shape0" transform="matrix(1.0, 0.0, 0.0, 1.0, 0.0, 0.0)">
      <path d="M10.65 0.0 Q10.4 0.5 9.15 1.65 8.0 2.75 7.65 3.0 7.0 3.35 6.5 3.55 5.8 3.85 5.05 3.9 L3.35 3.8 3.1 3.7 3.05 3.7 Q2.3 3.55 1.9 3.35 L1.6 3.2 1.05 2.95 Q0.55 2.6 0.35 2.35 L0.1 2.05 Q0.05 1.95 0.0 1.8 0.05 1.8 0.15 1.9 L0.35 2.0 0.5 2.1 1.05 2.35 Q1.35 2.45 1.6 2.55 L2.75 2.75 2.9 2.8 3.65 2.85 4.4 2.85 Q5.9 2.85 6.9 2.4 7.3 2.25 7.7 1.95 L8.4 1.45 8.65 1.25 9.45 0.45 Q9.75 0.35 10.65 0.0 M9.3 0.95 L8.6 1.6 Q7.75 2.35 6.95 2.7 L6.55 2.8 6.5 2.8 6.2 2.9 6.1 2.9 5.95 2.95 5.75 3.0 4.75 3.05 4.55 3.1 4.45 3.1 Q3.0 3.1 1.4 2.7 L1.25 2.7 1.15 2.65 1.0 2.65 Q0.95 2.6 0.9 2.6 L1.05 2.7 1.85 3.1 2.55 3.35 2.7 3.4 3.2 3.5 3.25 3.5 4.95 3.6 5.25 3.6 Q5.7 3.5 6.15 3.35 L7.2 2.9 Q7.95 2.5 8.75 1.65 L8.85 1.5 9.0 1.35 9.6 0.7 9.35 0.95 9.3 0.95" fill="#111111" fill-rule="evenodd" stroke="none"/>
      <path d="M9.3 0.95 L9.35 0.95 9.6 0.7 9.0 1.35 8.85 1.5 8.75 1.65 Q7.95 2.5 7.2 2.9 L6.15 3.35 Q5.7 3.5 5.25 3.6 L4.95 3.6 3.25 3.5 3.2 3.5 2.7 3.4 2.55 3.35 1.85 3.1 1.05 2.7 0.9 2.6 Q0.95 2.6 1.0 2.65 L1.15 2.65 1.25 2.7 1.4 2.7 Q3.0 3.1 4.45 3.1 L4.55 3.1 4.75 3.05 5.75 3.0 5.95 2.95 6.1 2.9 6.2 2.9 6.5 2.8 6.55 2.8 6.95 2.7 Q7.75 2.35 8.6 1.6 L9.3 0.95" fill="#46ffd6" fill-rule="evenodd" stroke="none"/>
    </g>
    <g id="sprite1" transform="matrix(1.0, 0.0, 0.0, 1.0, 63.35, 13.3)">
      <use ffdec:characterId="229" height="14.45" transform="matrix(7.0, 0.0, 0.0, 7.0, -63.35, -13.3)" width="11.45" xlink:href="#shape1"/>
    </g>
    <g id="shape1" transform="matrix(1.0, 0.0, 0.0, 1.0, 9.05, 1.9)">
      <path d="M1.6 -0.65 L1.55 0.2 Q1.7 0.9 1.4 3.3 1.1 5.5 0.85 6.1 0.5 7.05 0.15 7.7 L-1.25 9.4 Q-2.3 10.35 -3.15 10.75 L-3.5 10.9 -3.6 10.95 Q-4.55 11.45 -5.15 11.55 L-5.3 11.6 -5.65 11.7 -6.45 11.9 -7.8 11.85 Q-8.05 11.85 -8.3 11.75 L-8.65 11.55 -8.4 11.55 -8.05 11.5 -7.8 11.45 -7.0 11.2 Q-6.55 11.1 -6.2 10.95 -5.45 10.6 -4.75 10.15 L-4.55 10.05 -3.65 9.45 Q-3.2 9.1 -2.85 8.85 L0.35 3.75 0.45 3.3 0.65 1.5 Q0.7 0.45 0.9 -0.15 1.15 -1.1 1.85 -1.85 1.95 -1.75 2.0 -1.65 1.8 -1.25 1.6 -0.65 M0.95 2.4 L-1.25 7.8 Q-1.9 8.55 -2.25 8.75 L-2.35 8.9 -2.5 8.95 -2.6 9.05 Q-4.2 10.35 -6.3 11.35 L-6.5 11.45 -6.8 11.55 -6.95 11.65 -6.7 11.6 -6.05 11.5 -5.75 11.45 -5.85 11.45 -5.45 11.35 -4.45 11.0 -4.2 10.95 Q-3.9 10.75 -3.6 10.6 L-3.55 10.55 Q-2.4 10.0 -1.55 9.2 L-1.2 8.85 Q-0.8 8.4 -0.45 7.85 -0.15 7.35 0.25 6.4 0.8 5.3 0.9 3.65 L0.95 2.4" fill="#111111" fill-rule="evenodd" stroke="none"/>
      <path d="M0.95 2.4 L0.9 3.65 Q0.8 5.3 0.25 6.4 -0.15 7.35 -0.45 7.85 -0.8 8.4 -1.2 8.85 L-1.55 9.2 Q-2.4 10.0 -3.55 10.55 L-3.6 10.6 Q-3.9 10.75 -4.2 10.95 L-4.45 11.0 -5.45 11.35 -5.85 11.45 -5.75 11.45 -6.05 11.5 -6.7 11.6 -6.95 11.65 -6.8 11.55 -6.5 11.45 -6.3 11.35 Q-4.2 10.35 -2.6 9.05 L-2.5 8.95 -2.35 8.9 -2.25 8.75 Q-1.9 8.55 -1.25 7.8 L0.95 2.4" fill="#46ffd6" fill-rule="evenodd" stroke="none"/>
      <path d="M1.4 -0.05 L1.65 0.05 Q1.9 0.65 2.1 2.95 2.25 5.05 2.15 5.6 2.0 6.6 1.75 7.25 1.45 8.25 0.8 9.05 0.0 10.1 -0.7 10.65 L-1.0 10.85 -1.05 10.9 Q-1.85 11.55 -2.4 11.8 L-2.55 11.85 -2.8 12.0 -3.55 12.3 Q-4.35 12.5 -4.8 12.5 L-5.3 12.5 -5.65 12.35 -5.45 12.35 -5.4 12.3 -5.15 12.25 -4.9 12.15 -4.2 11.8 Q-3.8 11.55 -3.5 11.4 -2.85 10.9 -2.3 10.4 L-2.1 10.25 -0.8 8.85 Q0.5 7.25 0.9 5.9 1.05 5.35 1.1 4.65 1.15 3.9 1.2 3.5 L1.2 3.1 1.05 1.4 Q0.9 0.45 0.95 -0.15 1.05 -1.1 1.55 -1.9 L1.65 -1.75 Q1.55 -1.35 1.5 -0.75 L1.4 -0.05 M1.5 2.1 L1.5 2.2 1.55 3.5 Q1.55 4.95 1.2 6.05 L1.05 6.55 1.0 6.6 0.65 7.3 0.5 7.55 Q0.05 8.4 -0.25 8.65 L-0.4 8.85 -0.5 9.0 Q-1.75 10.45 -3.5 11.75 L-3.7 11.9 -3.8 12.0 -3.85 12.0 -3.95 12.05 -4.05 12.15 -3.85 12.1 -3.25 11.85 -3.05 11.8 -3.1 11.8 -2.75 11.65 -1.85 11.15 -1.65 11.0 -1.15 10.6 -1.1 10.55 Q-0.2 9.8 0.5 8.9 L0.75 8.55 Q1.05 8.05 1.25 7.45 L1.65 6.0 Q1.9 4.85 1.7 3.35 L1.7 3.1 1.65 2.85 1.45 1.6 1.5 2.1" fill="#111111" fill-rule="evenodd" stroke="none"/>
      <path d="M1.5 2.1 L1.45 1.6 1.65 2.85 1.7 3.1 1.7 3.35 Q1.9 4.85 1.65 6.0 L1.25 7.45 Q1.05 8.05 0.75 8.55 L0.5 8.9 Q-0.2 9.8 -1.1 10.55 L-1.15 10.6 -1.65 11.0 -1.85 11.15 -2.75 11.65 -3.1 11.8 -3.05 11.8 -3.25 11.85 -3.85 12.1 -4.05 12.15 -3.95 12.05 -3.85 12.0 -3.8 12.0 -3.7 11.9 -3.5 11.75 Q-1.75 10.45 -0.5 9.0 L-0.4 8.85 -0.25 8.65 Q0.05 8.4 0.5 7.55 L0.65 7.3 1.0 6.6 1.05 6.55 1.2 6.05 Q1.55 4.95 1.55 3.5 L1.5 2.2 1.5 2.1" fill="#ff3333" fill-rule="evenodd" stroke="none"/>
      <path d="M1.6 0.0 Q1.75 -0.15 1.8 0.15 1.85 0.85 1.3 3.05 0.75 5.1 0.5 5.6 0.05 6.45 -0.4 7.05 -1.0 7.9 -1.85 8.45 -2.95 9.2 -3.8 9.5 L-4.15 9.6 -4.25 9.6 Q-5.2 9.95 -5.8 10.0 L-5.95 10.0 -6.25 10.1 -7.05 10.15 Q-7.85 10.1 -8.3 9.9 -8.55 9.9 -8.75 9.8 L-9.05 9.55 -8.25 9.55 -7.5 9.45 -6.7 9.3 Q-5.95 9.05 -5.25 8.75 L-4.15 8.2 Q-3.65 7.95 -3.3 7.7 -1.6 6.65 -0.8 5.5 -0.45 5.05 -0.2 4.4 L0.25 3.3 0.4 2.95 0.8 1.25 Q0.95 0.3 1.2 -0.25 1.6 -1.1 2.3 -1.7 L2.4 -1.55 1.9 -0.65 1.6 0.0 M1.0 2.1 L0.95 2.15 0.6 3.4 Q0.15 4.75 -0.55 5.75 L-0.85 6.15 -1.2 6.5 -1.3 6.55 -1.45 6.75 -1.7 6.95 Q-2.4 7.6 -2.75 7.7 L-2.85 7.8 -3.0 7.9 -3.1 7.95 Q-4.75 8.95 -6.8 9.65 L-7.05 9.7 -7.15 9.75 -7.2 9.75 -7.35 9.8 -7.45 9.85 -7.25 9.85 -6.6 9.8 -6.45 9.8 -6.05 9.75 -4.8 9.5 -4.2 9.25 -4.15 9.25 Q-3.05 8.85 -2.15 8.2 L-1.8 7.95 Q-1.3 7.55 -0.95 7.05 -0.65 6.65 -0.1 5.8 0.5 4.85 0.8 3.3 L0.9 2.8 Q1.0 2.15 1.1 1.6 L1.05 1.9 1.0 2.1" fill="#111111" fill-rule="evenodd" stroke="none"/>
      <path d="M1.0 2.1 L1.05 1.9 1.1 1.6 Q1.0 2.15 0.9 2.8 L0.8 3.3 Q0.5 4.85 -0.1 5.8 -0.65 6.65 -0.95 7.05 -1.3 7.55 -1.8 7.95 L-2.15 8.2 Q-3.05 8.85 -4.15 9.25 L-4.2 9.25 -4.8 9.5 -6.05 9.75 -6.45 9.8 -6.6 9.8 -7.25 9.85 -7.45 9.85 -7.35 9.8 -7.2 9.75 -7.15 9.75 -7.05 9.7 -6.8 9.65 Q-4.75 8.95 -3.1 7.95 L-3.0 7.9 -2.85 7.8 -2.75 7.7 Q-2.4 7.6 -1.7 6.95 L-1.45 6.75 -1.3 6.55 -1.2 6.5 -0.85 6.15 -0.55 5.75 Q0.15 4.75 0.6 3.4 L0.95 2.15 1.0 2.1" fill="#ff3333" fill-rule="evenodd" stroke="none"/>
    </g>
    <g id="sprite2" transform="matrix(1.0, 0.0, 0.0, 1.0, 0.0, 0.0)">
      <use ffdec:characterId="227" height="3.7" transform="matrix(7.0, 0.0, 0.0, 7.0, 0.0, 0.0)" width="7.55" xlink:href="#shape2"/>
    </g>
    <g id="shape2" transform="matrix(1.0, 0.0, 0.0, 1.0, 0.0, 0.0)">
      <path d="M7.35 1.1 L7.3 1.2 Q7.25 1.45 7.15 1.55 L6.8 1.85 6.7 2.0 6.55 2.05 6.3 2.15 6.1 2.25 5.85 2.35 5.7 2.4 5.3 2.45 5.15 2.5 4.35 2.6 4.25 2.65 4.1 2.65 3.9 2.6 3.6 2.6 3.85 2.7 3.9 2.7 4.65 2.8 5.35 2.8 5.15 2.9 4.8 2.95 4.45 2.95 3.55 2.8 3.5 2.8 3.3 2.75 3.15 2.75 2.7 2.7 2.6 2.65 2.1 2.65 2.2 2.7 Q2.35 2.7 2.5 2.75 L2.55 2.75 2.7 2.8 3.2 2.9 3.25 2.95 3.35 3.0 3.3 3.0 3.3 3.05 3.1 3.1 2.95 3.1 2.55 3.05 2.4 2.95 2.35 2.95 2.25 2.9 2.25 2.95 2.15 3.05 2.15 3.1 2.1 3.1 2.05 3.15 1.95 3.2 1.75 3.15 1.8 3.05 Q1.8 3.0 1.85 2.9 L1.9 2.8 2.0 2.7 1.8 2.75 1.75 2.8 1.65 2.85 1.65 2.9 1.45 3.1 Q1.1 3.4 0.7 3.4 0.4 3.4 0.25 2.95 0.15 2.7 0.15 2.45 0.15 2.35 0.2 2.15 L0.3 1.85 Q0.3 1.75 0.45 1.6 L0.6 1.55 Q0.45 1.65 0.4 1.7 0.3 1.8 0.3 2.0 L0.3 2.15 Q0.35 2.3 0.5 2.3 L1.8 2.1 Q2.2 2.1 2.65 2.3 L2.85 2.35 1.55 2.35 Q1.45 2.35 1.4 2.4 1.45 2.5 1.65 2.5 L1.95 2.6 1.3 2.8 0.6 2.95 0.7 2.95 0.85 3.0 1.5 2.8 2.1 2.6 2.05 2.55 1.95 2.5 2.0 2.45 2.9 2.45 3.05 2.4 3.5 2.45 3.7 2.45 Q4.65 2.45 5.35 2.2 L5.5 2.15 5.9 2.05 6.2 1.9 6.35 1.85 6.8 1.65 6.95 1.55 7.15 1.35 Q7.25 1.15 7.35 1.1" fill="#ffd98a" fill-rule="evenodd" stroke="none"/>
      <path d="M7.55 1.05 Q7.55 1.5 7.0 2.05 6.5 2.5 5.8 2.65 L5.95 2.65 5.95 2.7 Q5.95 2.8 5.7 2.95 5.5 3.05 5.3 3.1 L4.95 3.15 4.5 3.15 3.8 3.05 3.6 3.0 3.6 3.15 Q3.55 3.25 3.25 3.3 L2.85 3.3 2.35 3.2 Q2.05 3.45 1.7 3.45 1.6 3.45 1.55 3.35 L1.55 3.3 1.5 3.3 Q1.0 3.7 0.4 3.7 L0.3 3.7 0.2 3.65 Q0.25 3.55 0.45 3.5 0.2 3.4 0.1 3.0 0.0 2.75 0.0 2.45 0.0 1.55 0.7 1.25 L0.55 1.45 0.85 1.35 0.85 1.3 1.0 1.3 Q1.4 1.3 1.8 1.45 L1.8 1.4 1.85 1.4 2.3 1.65 Q2.95 1.85 3.75 1.85 4.4 1.85 5.0 1.55 L5.65 1.05 Q5.85 0.9 6.15 0.55 6.35 0.35 6.35 0.8 L6.35 0.9 6.7 0.5 6.95 0.1 Q7.2 -0.15 7.2 0.2 7.2 0.8 6.8 1.3 L7.15 1.0 Q7.4 0.6 7.5 0.75 7.55 0.8 7.55 1.05 M7.35 1.1 Q7.25 1.15 7.15 1.35 L6.95 1.55 6.8 1.65 6.35 1.85 6.2 1.9 5.9 2.05 5.5 2.15 5.35 2.2 Q4.65 2.45 3.7 2.45 L3.5 2.45 3.05 2.4 2.9 2.45 2.0 2.45 1.95 2.5 2.05 2.55 2.1 2.6 1.5 2.8 0.85 3.0 0.7 2.95 0.6 2.95 1.3 2.8 1.95 2.6 1.65 2.5 Q1.45 2.5 1.4 2.4 1.45 2.35 1.55 2.35 L2.85 2.35 2.65 2.3 Q2.2 2.1 1.8 2.1 L0.5 2.3 Q0.35 2.3 0.3 2.15 L0.3 2.0 Q0.3 1.8 0.4 1.7 0.45 1.65 0.6 1.55 L0.45 1.6 Q0.3 1.75 0.3 1.85 L0.2 2.15 Q0.15 2.35 0.15 2.45 0.15 2.7 0.25 2.95 0.4 3.4 0.7 3.4 1.1 3.4 1.45 3.1 L1.65 2.9 1.65 2.85 1.75 2.8 1.8 2.75 2.0 2.7 1.9 2.8 1.85 2.9 Q1.8 3.0 1.8 3.05 L1.75 3.15 1.95 3.2 2.05 3.15 2.1 3.1 2.15 3.1 2.15 3.05 2.25 2.95 2.25 2.9 2.35 2.95 2.4 2.95 2.55 3.05 2.95 3.1 3.1 3.1 3.3 3.05 3.3 3.0 3.35 3.0 3.25 2.95 3.2 2.9 2.7 2.8 2.55 2.75 2.5 2.75 Q2.35 2.7 2.2 2.7 L2.1 2.65 2.6 2.65 2.7 2.7 3.15 2.75 3.3 2.75 3.5 2.8 3.55 2.8 4.45 2.95 4.8 2.95 5.15 2.9 5.35 2.8 4.65 2.8 3.9 2.7 3.85 2.7 3.6 2.6 3.9 2.6 4.1 2.65 4.25 2.65 4.35 2.6 5.15 2.5 5.3 2.45 5.7 2.4 5.85 2.35 6.1 2.25 6.3 2.15 6.55 2.05 6.7 2.0 6.8 1.85 7.15 1.55 Q7.25 1.45 7.3 1.2 L7.35 1.1 M6.8 0.65 Q6.7 0.9 6.45 1.1 L6.1 1.4 5.95 1.5 5.85 1.6 5.6 1.7 Q4.65 2.1 3.5 2.1 L3.4 2.1 Q2.95 2.1 2.35 1.9 L1.75 1.65 1.2 1.5 Q0.8 1.5 0.6 1.7 0.45 1.85 0.45 2.0 L0.45 2.1 0.65 2.15 1.4 2.1 1.85 2.05 2.2 2.05 Q2.35 2.05 2.75 2.2 3.15 2.35 3.45 2.35 L3.5 2.35 Q4.6 2.35 5.45 2.0 L5.85 1.8 Q6.15 1.7 6.35 1.5 L6.4 1.45 6.6 1.2 Q6.9 0.9 6.9 0.6 L6.9 0.5 6.8 0.65 M6.05 0.9 L5.85 1.15 5.65 1.35 5.1 1.7 4.9 1.8 5.05 1.75 5.65 1.5 5.95 1.2 6.1 0.85 6.05 0.9" fill="#111111" fill-rule="evenodd" stroke="none"/>
      <path d="M6.8 0.65 L6.9 0.5 6.9 0.6 Q6.9 0.9 6.6 1.2 L6.4 1.45 6.35 1.5 Q6.15 1.7 5.85 1.8 L5.45 2.0 Q4.6 2.35 3.5 2.35 L3.45 2.35 Q3.15 2.35 2.75 2.2 2.35 2.05 2.2 2.05 L1.85 2.05 1.4 2.1 0.65 2.15 0.45 2.1 0.45 2.0 Q0.45 1.85 0.6 1.7 0.8 1.5 1.2 1.5 L1.75 1.65 2.35 1.9 Q2.95 2.1 3.4 2.1 L3.5 2.1 Q4.65 2.1 5.6 1.7 L5.85 1.6 5.95 1.5 6.1 1.4 6.45 1.1 Q6.7 0.9 6.8 0.65 M6.1 0.85 L5.95 1.2 5.65 1.5 5.05 1.75 4.9 1.8 5.1 1.7 5.65 1.35 5.85 1.15 6.05 0.9 6.1 0.85" fill="#ff3333" fill-rule="evenodd" stroke="none"/>
    </g>
    <g id="sprite3" transform="matrix(1.0, 0.0, 0.0, 1.0, 16.1, 20.65)">
      <use ffdec:characterId="245" height="5.9" transform="matrix(7.0, 0.0, 0.0, 7.0, -16.1, -20.65)" width="4.6" xlink:href="#shape3"/>
    </g>
    <g id="shape3" transform="matrix(1.0, 0.0, 0.0, 1.0, 2.3, 2.95)">
      <path d="M-1.65 2.1 L-1.45 1.95 -1.45 1.9 Q-1.35 1.55 -1.35 1.45 L-1.35 1.35 -1.4 1.3 Q-1.4 1.1 -1.3 1.0 L-1.35 1.2 -1.3 1.4 Q-1.25 1.55 -1.25 1.7 L-1.1 1.45 -1.05 1.2 -0.95 1.05 Q-0.95 1.0 -0.85 0.95 -0.75 0.9 -0.65 1.0 L-0.65 0.95 -0.6 0.8 Q-0.6 0.75 -0.45 0.75 -0.3 0.75 -0.2 0.95 -0.15 0.9 -0.05 1.0 0.15 1.2 0.15 1.5 L0.1 1.7 0.3 1.55 0.45 1.45 0.7 1.25 0.85 0.95 0.9 0.95 0.9 0.9 Q1.0 0.7 1.0 0.6 L1.05 0.3 1.1 0.5 1.0 0.95 1.0 1.05 1.05 1.0 1.2 0.65 1.25 0.45 1.3 -0.2 1.35 -0.05 1.35 0.2 1.5 -0.25 1.55 -0.3 1.55 -0.35 1.65 -0.55 1.75 -0.7 1.8 -0.75 1.8 -0.8 1.85 -0.8 1.9 -1.0 2.0 -1.2 2.0 -1.5 1.95 -1.55 1.95 -1.75 1.85 -2.0 1.55 -2.35 Q1.4 -2.6 1.25 -2.65 L1.2 -2.7 1.1 -2.75 0.95 -2.75 0.95 -2.8 0.8 -2.8 0.45 -2.7 0.4 -2.7 0.0 -2.55 -0.2 -2.5 -0.4 -2.4 Q-0.3 -2.4 -0.2 -2.45 L-0.15 -2.45 0.0 -2.5 0.05 -2.5 Q0.15 -2.5 0.15 -2.4 L0.0 -2.35 -0.05 -2.3 -0.35 -2.2 -0.5 -2.1 -0.6 -2.0 -1.0 -1.2 -1.0 -1.1 -1.15 -0.8 -1.45 0.0 -1.9 1.0 -1.9 1.1 -1.95 1.2 Q-2.05 1.55 -2.1 1.8 L-2.1 1.85 -2.15 1.9 -2.1 2.0 -2.05 2.15 -2.0 2.2 -1.9 2.4 -1.95 2.5 -1.95 2.6 -1.15 1.95 -1.05 1.85 -1.05 1.95 -1.1 2.15 -1.0 2.0 -0.95 1.9 -0.95 1.8 -0.85 1.6 -0.85 1.55 -0.9 1.4 -1.0 1.65 -1.2 1.9 -1.3 1.95 -1.3 2.0 -1.35 2.0 -1.8 2.35 -1.65 2.1 M1.05 -2.95 L1.15 -2.9 Q1.3 -2.85 1.45 -2.75 L1.85 -2.3 Q2.15 -1.95 2.15 -1.45 L2.15 -1.25 Q2.15 -1.15 2.1 -0.95 L2.05 -0.85 2.05 -0.8 1.95 -0.65 1.85 -0.45 1.8 -0.4 1.75 -0.25 1.6 0.25 1.5 0.45 1.4 0.9 1.2 1.25 Q1.0 1.5 0.9 1.5 L0.8 1.45 0.5 1.75 0.05 2.0 0.0 2.05 0.1 2.0 0.7 1.8 Q0.8 1.75 0.85 1.65 L0.9 1.55 0.9 1.5 1.0 1.5 Q1.1 1.45 1.2 1.45 L1.25 1.45 Q1.7 1.3 1.9 1.55 L1.95 1.55 Q2.15 1.65 2.2 1.75 2.3 1.85 2.3 2.1 L2.25 2.4 Q2.2 2.85 2.0 2.85 L1.9 2.8 1.9 2.75 1.95 2.55 Q1.85 2.55 1.8 2.35 L1.75 2.15 1.7 2.05 Q1.7 2.65 1.55 2.65 1.45 2.65 1.4 2.45 L1.35 2.25 1.35 2.2 1.3 2.1 1.2 2.0 1.15 2.05 Q0.9 2.1 0.85 2.15 L0.65 2.3 0.85 2.35 1.05 2.35 Q1.3 2.35 1.25 2.4 1.25 2.5 1.1 2.6 L0.95 2.65 Q0.75 2.75 0.65 2.75 0.4 2.75 0.3 2.65 0.2 2.55 0.2 2.45 L0.15 2.45 Q-0.6 2.95 -0.75 2.95 -0.9 2.95 -0.95 2.9 L-0.95 2.8 -0.9 2.6 -1.1 2.65 Q-1.25 2.65 -1.3 2.55 L-1.3 2.4 Q-1.75 2.85 -2.0 2.85 -2.1 2.85 -2.1 2.65 L-2.15 2.5 -2.15 2.4 -2.2 2.25 -2.25 2.2 -2.3 2.0 -2.3 1.8 Q-2.3 1.45 -2.1 0.9 L-1.75 0.0 -1.35 -0.9 -1.2 -1.35 -1.1 -1.5 -1.05 -1.7 Q-0.95 -1.9 -0.8 -2.15 L-0.7 -2.25 Q-0.7 -2.55 -0.1 -2.7 L0.1 -2.8 0.15 -2.75 0.35 -2.85 0.75 -2.9 0.9 -2.9 1.05 -2.95 M-0.75 1.55 L-0.7 1.55 -0.7 1.85 -0.6 2.05 -0.55 1.95 -0.55 1.9 -0.5 1.8 -0.55 1.7 -0.55 1.6 Q-0.55 1.35 -0.7 1.2 -0.85 0.95 -0.85 1.2 L-0.75 1.45 -0.75 1.55 M-0.15 1.15 L-0.15 1.25 -0.1 1.35 -0.15 1.65 -0.1 1.75 -0.1 1.95 -0.05 1.9 -0.05 1.85 0.05 1.5 0.0 1.3 Q-0.05 1.15 -0.1 1.1 L-0.15 1.15 M-0.5 1.15 L-0.45 1.3 Q-0.4 1.5 -0.4 1.75 L-0.35 1.9 -0.35 1.95 -0.3 1.9 -0.25 1.75 -0.2 1.5 Q-0.2 1.05 -0.45 0.9 L-0.5 1.05 -0.5 1.15 M-0.45 2.0 Q-0.55 2.2 -0.65 2.25 L-0.65 2.3 -0.7 2.3 -0.65 2.35 -0.65 2.45 -0.5 2.2 -0.4 2.1 -0.45 2.0 M-0.6 2.55 L-0.65 2.5 -0.7 2.65 -0.7 2.7 0.1 2.3 0.2 2.3 0.25 2.25 0.35 2.3 0.35 2.45 Q0.35 2.5 0.45 2.55 L0.65 2.6 0.95 2.55 1.0 2.5 0.9 2.55 0.7 2.55 0.5 2.5 0.45 2.5 0.45 2.45 Q0.45 2.3 0.55 2.15 0.7 2.05 0.9 1.95 L1.0 1.9 1.05 1.85 1.15 1.85 1.05 1.75 0.95 1.85 0.85 1.9 Q0.5 2.05 0.4 2.1 L0.35 2.15 0.2 2.2 -0.1 2.35 -0.3 2.4 -0.3 2.45 -0.55 2.55 -0.6 2.55 M-0.8 1.8 L-0.85 1.9 -0.8 1.9 -0.75 1.85 -0.8 1.85 -0.8 1.8 M-0.75 2.05 L-0.8 2.05 -1.05 2.15 Q-1.1 2.2 -1.1 2.25 L-1.1 2.4 Q-0.95 2.35 -0.85 2.2 L-0.8 2.15 -0.75 2.05 M1.7 1.6 L1.7 1.55 1.4 1.55 Q1.6 1.6 1.8 1.85 L1.8 1.9 1.9 2.0 1.95 2.15 1.95 1.85 1.9 1.85 1.85 1.65 1.7 1.6 M1.1 1.65 Q1.1 1.6 1.2 1.7 L1.3 1.85 1.35 1.9 1.4 2.0 1.4 2.05 1.45 2.15 1.5 2.4 1.5 2.45 1.55 2.3 1.6 2.25 Q1.6 2.05 1.45 1.9 L1.4 1.85 Q1.3 1.7 1.2 1.6 L1.05 1.6 1.1 1.65 M2.05 1.9 L2.1 2.1 2.1 2.5 2.15 2.2 2.1 1.95 2.1 1.9 2.05 1.85 2.05 1.9" fill="#111111" fill-rule="evenodd" stroke="none"/>
      <path d="M-1.9 2.4 L-2.0 2.2 -2.05 2.15 -2.1 2.0 -2.15 1.9 -2.1 1.85 -2.1 1.8 Q-2.05 1.55 -1.95 1.2 L-1.9 1.1 -1.9 1.0 -1.45 0.0 -1.15 -0.8 -1.0 -1.1 -1.0 -1.2 -0.6 -2.0 -0.5 -2.1 -0.35 -2.2 -0.05 -2.3 0.0 -2.35 0.15 -2.4 Q0.15 -2.5 0.05 -2.5 L0.0 -2.5 -0.15 -2.45 -0.2 -2.45 Q-0.3 -2.4 -0.4 -2.4 L-0.2 -2.5 0.0 -2.55 0.4 -2.7 0.45 -2.7 0.8 -2.8 0.95 -2.8 0.95 -2.75 1.1 -2.75 1.2 -2.7 1.25 -2.65 Q1.4 -2.6 1.55 -2.35 L1.85 -2.0 1.95 -1.75 1.95 -1.55 2.0 -1.5 2.0 -1.2 1.9 -1.0 1.85 -0.8 1.8 -0.8 1.8 -0.75 1.75 -0.7 1.65 -0.55 1.55 -0.35 1.55 -0.3 1.5 -0.25 1.35 0.2 1.35 -0.05 1.3 -0.2 1.25 0.45 1.2 0.65 1.05 1.0 1.0 1.05 1.0 0.95 1.1 0.5 1.05 0.3 1.0 0.6 Q1.0 0.7 0.9 0.9 L0.9 0.95 0.85 0.95 0.7 1.25 0.45 1.45 0.3 1.55 0.1 1.7 0.15 1.5 Q0.15 1.2 -0.05 1.0 -0.15 0.9 -0.2 0.95 -0.3 0.75 -0.45 0.75 -0.6 0.75 -0.6 0.8 L-0.65 0.95 -0.65 1.0 Q-0.75 0.9 -0.85 0.95 -0.95 1.0 -0.95 1.05 L-1.05 1.2 -1.1 1.45 -1.25 1.7 Q-1.25 1.55 -1.3 1.4 L-1.35 1.2 -1.3 1.0 Q-1.4 1.1 -1.4 1.3 L-1.35 1.35 -1.35 1.45 Q-1.35 1.55 -1.45 1.9 L-1.45 1.95 -1.65 2.1 -1.65 2.15 -1.85 2.3 -1.85 2.35 -1.9 2.4 M-0.45 2.0 L-0.4 2.1 -0.5 2.2 -0.65 2.45 -0.65 2.35 -0.7 2.3 -0.65 2.3 -0.65 2.25 Q-0.55 2.2 -0.45 2.0 M-0.8 1.8 L-0.8 1.85 -0.75 1.85 -0.8 1.9 -0.85 1.9 -0.8 1.8" fill="#ff3333" fill-rule="evenodd" stroke="none"/>
      <path d="M-1.65 2.1 L-1.8 2.35 -1.35 2.0 -1.3 2.0 -1.3 1.95 -1.2 1.9 -1.0 1.65 -0.9 1.4 -0.85 1.55 -0.85 1.6 -0.95 1.8 -0.95 1.9 -1.0 2.0 -1.1 2.15 -1.05 1.95 -1.05 1.85 -1.15 1.95 -1.95 2.6 -1.95 2.5 -1.9 2.4 -1.85 2.35 -1.85 2.3 -1.65 2.15 -1.65 2.1 M-0.5 1.15 L-0.5 1.05 -0.45 0.9 Q-0.2 1.05 -0.2 1.5 L-0.25 1.75 -0.3 1.9 -0.35 1.95 -0.35 1.9 -0.4 1.75 Q-0.4 1.5 -0.45 1.3 L-0.5 1.15 M-0.15 1.15 L-0.1 1.1 Q-0.05 1.15 0.0 1.3 L0.05 1.5 -0.05 1.85 -0.05 1.9 -0.1 1.95 -0.1 1.75 -0.15 1.65 -0.1 1.35 -0.15 1.25 -0.15 1.15 M-0.75 1.55 L-0.75 1.45 -0.85 1.2 Q-0.85 0.95 -0.7 1.2 -0.55 1.35 -0.55 1.6 L-0.55 1.7 -0.5 1.8 -0.55 1.9 -0.55 1.95 -0.6 2.05 -0.7 1.85 -0.7 1.55 -0.75 1.55 M-0.6 2.55 L-0.55 2.55 -0.3 2.45 -0.3 2.4 -0.1 2.35 0.2 2.2 0.35 2.15 0.4 2.1 Q0.5 2.05 0.85 1.9 L0.95 1.85 1.05 1.75 1.15 1.85 1.05 1.85 1.0 1.9 0.9 1.95 Q0.7 2.05 0.55 2.15 0.45 2.3 0.45 2.45 L0.45 2.5 0.5 2.5 0.7 2.55 0.9 2.55 1.0 2.5 0.95 2.55 0.65 2.6 0.45 2.55 Q0.35 2.5 0.35 2.45 L0.35 2.3 0.25 2.25 0.2 2.3 0.1 2.3 -0.7 2.7 -0.7 2.65 -0.65 2.5 -0.6 2.55 M2.05 1.9 L2.05 1.85 2.1 1.9 2.1 1.95 2.15 2.2 2.1 2.5 2.1 2.1 2.05 1.9 M1.1 1.65 L1.05 1.6 1.2 1.6 Q1.3 1.7 1.4 1.85 L1.45 1.9 Q1.6 2.05 1.6 2.25 L1.55 2.3 1.5 2.45 1.5 2.4 1.45 2.15 1.4 2.05 1.4 2.0 1.35 1.9 1.3 1.85 1.2 1.7 Q1.1 1.6 1.1 1.65 M1.7 1.6 L1.85 1.65 1.9 1.85 1.95 1.85 1.95 2.15 1.9 2.0 1.8 1.9 1.8 1.85 Q1.6 1.6 1.4 1.55 L1.7 1.55 1.7 1.6 M-0.75 2.05 L-0.8 2.15 -0.85 2.2 Q-0.95 2.35 -1.1 2.4 L-1.1 2.25 Q-1.1 2.2 -1.05 2.15 L-0.8 2.05 -0.75 2.05" fill="#ffda46" fill-rule="evenodd" stroke="none"/>
    </g>
    <g id="sprite4" transform="matrix(1.0, 0.0, 0.0, 1.0, 21.7, 9.8)">
      <use ffdec:characterId="243" height="2.85" transform="matrix(7.0, 0.0, 0.0, 7.0, -21.7, -9.8)" width="6.2" xlink:href="#shape4"/>
    </g>
    <g id="shape4" transform="matrix(1.0, 0.0, 0.0, 1.0, 3.1, 1.4)">
      <path d="M0.45 -0.5 L0.4 -0.5 Q0.1 -0.55 -0.2 -0.65 L-0.4 -0.65 -0.45 -0.6 -0.55 -0.4 Q-0.55 -0.35 -0.6 -0.3 L-0.65 -0.3 -0.7 -0.25 -0.8 -0.2 Q-0.95 -0.15 -1.0 -0.1 -1.3 0.2 -1.8 0.2 L-1.7 0.25 Q-1.5 0.35 -1.1 0.35 L-0.55 0.3 -0.35 0.2 Q0.05 0.1 0.4 0.05 L1.0 0.05 1.7 0.1 Q2.1 0.2 2.4 0.4 L2.65 0.7 2.85 0.95 2.9 0.95 2.85 0.9 2.7 0.5 2.7 0.4 Q2.65 0.25 2.5 0.15 L2.15 -0.15 Q1.8 -0.35 0.45 -0.5 M-2.25 -0.8 L-2.35 -0.8 -2.35 -0.75 -2.6 -0.75 -2.7 -0.8 -2.8 -0.8 -2.85 -0.85 -2.9 -0.85 -3.05 -0.8 -3.1 -0.8 -3.0 -0.95 -2.8 -1.05 -2.65 -1.05 -2.55 -1.15 Q-2.35 -1.25 -2.1 -1.25 L-1.65 -1.25 -1.9 -1.4 Q-1.7 -1.45 -1.45 -1.3 L-1.15 -1.2 -1.0 -1.2 -1.0 -1.15 Q-0.85 -1.15 -0.65 -1.05 L-0.55 -1.0 -0.45 -1.0 0.3 -0.8 0.45 -0.8 1.95 -0.5 Q2.55 -0.4 2.85 0.15 3.05 0.45 3.1 0.8 L3.1 1.25 3.0 1.4 2.8 1.2 Q2.5 0.85 2.25 0.7 1.75 0.35 0.95 0.3 0.8 0.5 0.45 0.7 L0.3 0.8 Q-0.05 1.0 -0.45 1.1 L-0.55 1.1 -0.65 1.15 -0.9 1.3 -1.0 1.3 -1.15 1.35 -1.2 1.35 -1.85 1.45 Q-1.6 1.4 -1.2 1.2 L-1.15 1.2 -1.1 1.15 -0.8 1.0 -0.65 0.95 -1.1 0.95 Q-1.3 0.9 -1.4 0.8 L-1.85 0.35 Q-1.95 0.2 -2.2 0.15 L-2.5 0.15 -2.6 0.2 -2.6 0.15 Q-2.6 0.1 -2.4 0.05 L-2.05 0.05 -1.9 0.1 -1.7 0.1 Q-1.3 0.1 -1.05 -0.15 L-1.1 -0.1 Q-1.3 -0.05 -1.4 -0.05 -1.65 -0.05 -1.85 -0.3 -2.05 -0.45 -2.05 -0.6 L-2.05 -0.7 -2.0 -0.8 Q-1.9 -0.85 -1.7 -0.9 -1.4 -0.95 -1.15 -0.75 -1.0 -0.6 -1.0 -0.5 L-1.0 -0.35 -1.05 -0.2 -1.0 -0.25 -0.95 -0.25 Q-0.85 -0.4 -0.85 -0.5 L-0.9 -0.65 -0.95 -0.85 -0.9 -0.9 -1.1 -1.0 -1.2 -1.0 -1.35 -1.05 -1.25 -0.95 -1.35 -0.95 -1.4 -1.0 -1.9 -1.05 -2.0 -1.0 -2.2 -1.0 Q-2.05 -0.95 -1.95 -0.9 L-2.1 -0.85 -2.25 -0.85 -2.25 -0.8 M0.6 0.2 L0.7 0.15 0.45 0.15 Q0.1 0.2 -0.25 0.3 L-0.35 0.35 -0.45 0.35 -1.0 0.45 Q-1.4 0.45 -1.75 0.3 L-1.6 0.45 Q-1.2 0.9 -0.75 0.9 L-0.65 0.9 -0.45 0.85 Q-0.3 0.8 -0.1 0.7 L-0.05 0.7 0.3 0.5 0.45 0.4 0.6 0.25 0.6 0.2 M-2.0 -0.6 L-2.0 -0.5 Q-2.0 -0.4 -1.75 -0.25 -1.5 -0.15 -1.3 -0.15 -1.1 -0.15 -1.1 -0.2 -1.05 -0.2 -1.05 -0.3 -1.05 -0.7 -1.55 -0.8 -2.0 -0.9 -2.0 -0.6 M-0.85 -0.85 L-0.8 -0.7 Q-0.75 -0.6 -0.75 -0.55 -0.75 -0.4 -0.85 -0.25 L-0.7 -0.3 -0.6 -0.4 -0.6 -0.45 -0.5 -0.65 -0.45 -0.7 -0.4 -0.7 -0.75 -0.8 -0.85 -0.85" fill="#111111" fill-rule="evenodd" stroke="none"/>
      <path d="M0.55 -0.5 L0.45 -0.45 0.25 -0.5 0.05 -0.5 -0.25 -0.55 -0.25 -0.5 -0.1 -0.45 Q0.05 -0.35 0.1 -0.35 L0.25 -0.4 0.45 -0.35 0.45 -0.3 1.0 -0.3 Q0.9 -0.3 0.8 -0.4 0.65 -0.5 0.55 -0.5 M0.45 -0.5 Q1.8 -0.35 2.15 -0.15 L2.5 0.15 Q2.65 0.25 2.7 0.4 L2.7 0.5 2.85 0.9 2.9 0.95 2.85 0.95 2.65 0.7 2.4 0.4 Q2.1 0.2 1.7 0.1 L1.0 0.05 0.4 0.05 Q0.05 0.1 -0.35 0.2 L-0.55 0.3 -1.1 0.35 Q-1.5 0.35 -1.7 0.25 L-1.8 0.2 Q-1.3 0.2 -1.0 -0.1 -0.95 -0.15 -0.8 -0.2 L-0.7 -0.25 -0.65 -0.3 -0.6 -0.3 Q-0.55 -0.35 -0.55 -0.4 L-0.45 -0.6 -0.4 -0.65 -0.2 -0.65 Q0.1 -0.55 0.4 -0.5 L0.45 -0.5 M1.35 -0.25 L1.35 -0.3 1.65 -0.2 2.0 -0.05 1.6 -0.3 1.35 -0.25 M0.6 0.2 L0.6 0.25 0.45 0.4 0.3 0.5 -0.05 0.7 -0.1 0.7 Q-0.3 0.8 -0.45 0.85 L-0.65 0.9 -0.75 0.9 Q-1.2 0.9 -1.6 0.45 L-1.75 0.3 Q-1.4 0.45 -1.0 0.45 L-0.45 0.35 -0.35 0.35 -0.25 0.3 Q0.1 0.2 0.45 0.15 L0.7 0.15 0.6 0.2 M-0.4 -0.1 Q-0.45 -0.05 -0.5 -0.05 L-0.65 0.0 -0.95 0.0 -1.05 0.15 -0.95 0.15 -0.85 0.2 Q-0.8 0.2 -0.7 0.1 L-0.6 0.1 Q-0.55 0.1 -0.5 0.05 L-0.35 -0.2 -0.4 -0.1" fill="#ffda46" fill-rule="evenodd" stroke="none"/>
      <path d="M0.55 -0.5 Q0.65 -0.5 0.8 -0.4 0.9 -0.3 1.0 -0.3 L0.45 -0.3 0.45 -0.35 0.25 -0.4 0.1 -0.35 Q0.05 -0.35 -0.1 -0.45 L-0.25 -0.5 -0.25 -0.55 0.05 -0.5 0.25 -0.5 0.45 -0.45 0.55 -0.5 M1.35 -0.25 L1.6 -0.3 2.0 -0.05 1.65 -0.2 1.35 -0.3 1.35 -0.25 M-0.4 -0.1 L-0.35 -0.2 -0.5 0.05 Q-0.55 0.1 -0.6 0.1 L-0.7 0.1 Q-0.8 0.2 -0.85 0.2 L-0.95 0.15 -1.05 0.15 -0.95 0.0 -0.65 0.0 -0.5 -0.05 Q-0.45 -0.05 -0.4 -0.1" fill="#fff9aa" fill-rule="evenodd" stroke="none"/>
      <path d="M-1.85 1.45 L-2.15 1.25 -2.35 1.15 -2.4 1.1 -2.4 1.05 -2.45 1.0 -2.6 0.7 -2.7 0.35 Q-2.7 0.2 -2.65 0.05 L-2.6 0.0 -2.5 -0.05 -2.45 -0.1 -2.4 -0.2 -2.3 -0.35 -2.25 -0.4 -2.25 -0.45 -2.2 -0.6 -2.2 -0.7 -2.25 -0.8 -2.25 -0.85 -2.1 -0.85 -1.95 -0.9 Q-2.05 -0.95 -2.2 -1.0 L-2.0 -1.0 -1.9 -1.05 -1.4 -1.0 -1.35 -0.95 -1.25 -0.95 -1.35 -1.05 -1.2 -1.0 -1.1 -1.0 -0.9 -0.9 -0.95 -0.85 -0.9 -0.65 -0.85 -0.5 Q-0.85 -0.4 -0.95 -0.25 L-1.0 -0.25 -1.05 -0.2 -1.0 -0.35 -1.0 -0.5 Q-1.0 -0.6 -1.15 -0.75 -1.4 -0.95 -1.7 -0.9 -1.9 -0.85 -2.0 -0.8 L-2.05 -0.7 -2.05 -0.6 Q-2.05 -0.45 -1.85 -0.3 -1.65 -0.05 -1.4 -0.05 -1.3 -0.05 -1.1 -0.1 L-1.05 -0.15 Q-1.3 0.1 -1.7 0.1 L-1.9 0.1 -2.05 0.05 -2.4 0.05 Q-2.6 0.1 -2.6 0.15 L-2.6 0.2 -2.5 0.15 -2.2 0.15 Q-1.95 0.2 -1.85 0.35 L-1.4 0.8 Q-1.3 0.9 -1.1 0.95 L-0.65 0.95 -0.8 1.0 -1.1 1.15 -1.15 1.2 -1.2 1.2 Q-1.6 1.4 -1.85 1.45" fill="#ff3333" fill-rule="evenodd" stroke="none"/>
      <path d="M-2.0 -0.6 Q-2.0 -0.9 -1.55 -0.8 -1.05 -0.7 -1.05 -0.3 -1.05 -0.2 -1.1 -0.2 -1.1 -0.15 -1.3 -0.15 -1.5 -0.15 -1.75 -0.25 -2.0 -0.4 -2.0 -0.5 L-2.0 -0.6" fill="#ffffff" fill-rule="evenodd" stroke="none"/>
      <path d="M-0.85 -0.85 L-0.75 -0.8 -0.4 -0.7 -0.45 -0.7 -0.5 -0.65 -0.6 -0.45 -0.6 -0.4 -0.7 -0.3 -0.85 -0.25 Q-0.75 -0.4 -0.75 -0.55 -0.75 -0.6 -0.8 -0.7 L-0.85 -0.85" fill="#46ffd6" fill-rule="evenodd" stroke="none"/>
    </g>
    <g id="sprite5" transform="matrix(1.0, 0.0, 0.0, 1.0, 0.0, 0.0)">
      <use ffdec:characterId="225" height="3.85" transform="matrix(7.0, 0.0, 0.0, 7.0, 0.0, 0.0)" width="7.7" xlink:href="#shape5"/>
    </g>
    <g id="shape5" transform="matrix(1.0, 0.0, 0.0, 1.0, 0.0, 0.0)">
      <path d="M7.45 2.2 Q7.5 2.25 7.5 2.3 L7.5 2.35 7.55 2.4 Q7.55 2.85 6.7 3.3 5.75 3.85 4.55 3.85 L3.65 3.75 Q3.5 3.7 3.4 3.65 L3.45 3.5 3.4 3.5 Q2.9 3.5 2.45 3.3 2.0 3.1 2.0 3.0 L2.1 2.95 Q2.15 2.9 2.3 2.85 L2.1 2.8 Q1.55 2.8 0.85 2.45 0.25 2.1 0.1 1.9 0.0 1.75 0.0 1.65 0.0 1.55 0.15 1.55 L0.6 1.6 Q0.3 1.25 0.3 1.1 0.3 1.05 0.35 1.05 L1.05 1.05 0.8 0.85 Q0.5 0.5 0.5 0.05 0.5 -0.1 0.95 0.15 L1.45 0.5 1.9 0.7 1.65 0.45 Q1.55 0.3 1.55 0.15 L1.55 0.1 1.65 0.1 Q1.8 0.1 2.25 0.3 L2.4 0.4 3.0 0.75 Q3.35 1.0 3.8 1.15 4.25 1.35 4.6 1.35 L6.0 1.35 6.4 1.25 6.75 1.15 6.9 1.1 7.0 1.1 7.0 1.05 Q7.15 1.0 7.3 0.95 L7.35 0.95 7.6 0.85 7.7 0.85 7.6 0.9 7.45 1.0 7.2 1.2 7.15 1.2 Q6.9 1.35 6.6 1.4 L6.6 1.45 6.45 1.45 5.9 1.55 5.55 1.6 5.4 1.6 4.7 1.65 Q4.1 1.65 3.55 1.4 L2.95 1.1 2.75 0.95 2.7 0.9 2.4 0.75 2.05 0.5 1.95 0.4 2.05 0.55 2.05 0.6 2.3 0.8 2.35 0.85 2.35 0.9 2.5 1.0 2.55 1.05 2.65 1.1 2.9 1.3 3.35 1.5 3.2 1.5 Q3.0 1.5 2.05 1.1 1.1 0.7 0.9 0.4 L0.85 0.4 0.9 0.5 1.7 1.25 2.4 1.6 3.25 1.8 3.35 1.8 4.55 1.95 5.15 1.95 5.5 2.0 5.55 2.0 5.15 2.05 4.5 2.05 3.35 1.95 3.2 1.9 2.45 1.75 2.05 1.6 1.7 1.5 1.25 1.4 1.15 1.35 1.1 1.35 0.85 1.3 0.75 1.35 0.8 1.35 Q1.1 1.75 1.4 1.9 L1.4 1.95 1.55 1.95 3.35 2.2 4.7 2.2 5.45 2.15 5.85 2.15 5.5 2.25 4.65 2.3 3.35 2.3 1.7 2.1 1.5 2.05 1.45 2.05 0.95 1.95 0.85 1.9 0.6 1.85 0.45 1.85 Q1.0 2.2 1.55 2.35 L3.05 2.65 4.25 2.6 4.5 2.55 6.7 2.3 Q6.35 2.45 4.75 2.65 L4.65 2.7 3.35 2.9 2.85 2.95 2.55 3.05 2.95 3.15 3.05 3.15 3.15 3.2 4.45 3.2 5.0 3.1 5.4 3.0 5.95 2.85 Q6.4 2.75 7.15 2.4 7.15 2.35 7.15 2.4 7.15 2.65 5.9 3.0 L5.15 3.2 5.1 3.2 4.6 3.35 4.4 3.45 4.0 3.55 4.1 3.6 4.45 3.6 Q5.0 3.6 5.95 3.3 L6.4 3.15 6.45 3.1 6.7 2.95 Q7.1 2.7 7.25 2.55 L7.35 2.45 7.35 2.35 7.3 2.3 6.7 2.1 5.95 1.9 5.8 1.8 5.55 1.7 5.6 1.7 6.55 1.9 6.6 1.9 Q7.05 2.0 7.25 2.1 L7.45 2.2" fill="#111111" fill-rule="evenodd" stroke="none"/>
      <path d="M7.45 2.2 L7.25 2.1 Q7.05 2.0 6.6 1.9 L6.55 1.9 5.6 1.7 5.55 1.7 5.8 1.8 5.95 1.9 6.7 2.1 7.3 2.3 7.35 2.35 7.35 2.45 7.25 2.55 Q7.1 2.7 6.7 2.95 L6.45 3.1 6.4 3.15 5.95 3.3 Q5.0 3.6 4.45 3.6 L4.1 3.6 4.0 3.55 4.4 3.45 4.6 3.35 5.1 3.2 5.15 3.2 5.9 3.0 Q7.15 2.65 7.15 2.4 7.15 2.35 7.15 2.4 6.4 2.75 5.95 2.85 L5.4 3.0 5.0 3.1 4.45 3.2 3.15 3.2 3.05 3.15 2.95 3.15 2.55 3.05 2.85 2.95 3.35 2.9 4.65 2.7 4.75 2.65 Q6.35 2.45 6.7 2.3 L4.5 2.55 4.25 2.6 3.05 2.65 1.55 2.35 Q1.0 2.2 0.45 1.85 L0.6 1.85 0.85 1.9 0.95 1.95 1.45 2.05 1.5 2.05 1.7 2.1 3.35 2.3 4.65 2.3 5.5 2.25 5.85 2.15 5.45 2.15 4.7 2.2 3.35 2.2 1.55 1.95 1.4 1.95 1.4 1.9 Q1.1 1.75 0.8 1.35 L0.75 1.35 0.85 1.3 1.1 1.35 1.15 1.35 1.25 1.4 1.7 1.5 2.05 1.6 2.45 1.75 3.2 1.9 3.35 1.95 4.5 2.05 5.15 2.05 5.55 2.0 5.5 2.0 5.15 1.95 4.55 1.95 3.35 1.8 3.25 1.8 2.4 1.6 1.7 1.25 0.9 0.5 0.85 0.4 0.9 0.4 Q1.1 0.7 2.05 1.1 3.0 1.5 3.2 1.5 L3.35 1.5 2.9 1.3 2.65 1.1 2.55 1.05 2.5 1.0 2.35 0.9 2.35 0.85 2.3 0.8 2.05 0.6 2.05 0.55 1.95 0.4 2.05 0.5 2.4 0.75 2.7 0.9 2.75 0.95 2.95 1.1 3.55 1.4 Q4.1 1.65 4.7 1.65 L5.4 1.6 5.55 1.6 5.9 1.55 6.45 1.45 6.6 1.45 6.6 1.4 Q6.9 1.35 7.15 1.2 L7.2 1.2 7.45 1.0 Q7.55 1.0 7.6 1.0 L7.65 1.1 7.6 1.15 7.6 1.55 Q7.55 1.95 7.45 2.2" fill="#ff3333" fill-rule="evenodd" stroke="none"/>
    </g>
  </defs>
</svg>
