<?xml version="1.0" encoding="UTF-8" standalone="no"?>
<svg xmlns:ffdec="https://www.free-decompiler.com/flash" xmlns:xlink="http://www.w3.org/1999/xlink" ffdec:objectType="frame" height="187.6px" width="272.3px" xmlns="http://www.w3.org/2000/svg">
  <g transform="matrix(1.0, 0.0, 0.0, 1.0, 139.65, 163.8)">
    <use ffdec:characterId="2131" height="7.15" transform="matrix(7.0, 0.0, 0.0, 7.0, -123.2, -107.45)" width="31.85" xlink:href="#shape0"/>
    <use ffdec:characterId="2134" height="5.55" transform="matrix(7.0, 0.0, 0.0, 7.0, 42.35, -47.25)" width="11.15" xlink:href="#shape1"/>
    <use ffdec:characterId="2133" height="5.85" transform="matrix(7.0, 0.0, 0.0, 7.0, -122.5, -99.4)" width="31.55" xlink:href="#shape2"/>
  </g>
  <defs>
    <g id="shape0" transform="matrix(1.0, 0.0, 0.0, 1.0, 17.6, 15.35)">
      <path d="M12.85 -15.15 Q13.05 -15.15 13.3 -15.25 13.45 -15.3 13.55 -15.35 14.1 -15.25 14.1 -14.7 L14.1 -14.6 14.05 -14.6 13.95 -14.7 13.9 -14.7 13.75 -14.5 13.7 -14.25 Q13.7 -14.2 13.75 -14.05 13.85 -13.9 13.95 -13.85 14.15 -13.65 14.15 -12.95 L14.15 -12.8 14.1 -12.8 14.15 -12.7 Q14.25 -12.7 14.25 -12.6 14.25 -12.4 14.1 -12.25 14.05 -12.1 13.65 -11.8 L13.35 -11.6 Q13.25 -11.55 13.1 -11.55 L12.95 -11.5 12.7 -11.35 Q12.4 -11.15 12.3 -11.05 12.15 -10.9 11.85 -10.75 11.5 -10.55 11.25 -10.5 10.85 -10.5 10.55 -10.35 10.25 -10.15 9.95 -10.15 L9.55 -10.1 9.35 -10.05 9.2 -10.0 Q9.05 -9.95 8.9 -9.8 L8.6 -9.65 Q8.45 -9.55 8.15 -9.45 L8.1 -9.45 Q7.75 -9.45 7.5 -9.25 7.3 -9.1 7.0 -9.05 L6.8 -9.05 6.75 -9.1 6.6 -9.1 6.45 -9.2 5.85 -9.2 5.35 -9.1 5.15 -9.05 Q4.9 -8.95 4.65 -8.95 L4.55 -8.95 Q3.8 -8.9 3.5 -8.8 L3.35 -8.7 3.3 -8.7 2.95 -8.6 Q2.5 -8.45 2.15 -8.45 L2.0 -8.5 1.25 -8.5 1.1 -8.45 0.7 -8.3 -0.55 -8.2 -1.25 -8.2 -1.95 -8.35 -2.6 -8.5 -2.85 -8.5 -3.05 -8.45 Q-3.3 -8.4 -3.6 -8.35 L-4.3 -8.35 -4.5 -8.4 -5.3 -8.35 Q-5.35 -8.35 -5.4 -8.35 L-5.45 -8.35 -5.4 -8.3 -5.6 -8.25 -5.9 -8.2 -6.5 -8.3 -6.65 -8.3 -7.1 -8.35 -7.4 -8.35 -7.5 -8.4 -7.7 -8.3 -7.9 -8.3 -8.1 -8.25 -8.2 -8.25 -8.5 -8.2 -9.1 -8.2 -9.5 -8.3 -9.7 -8.4 -9.75 -8.4 -9.85 -8.5 Q-9.9 -8.5 -9.95 -8.55 L-10.1 -8.55 -10.2 -8.5 -10.4 -8.45 -10.85 -8.45 -11.05 -8.5 -11.4 -8.6 -11.7 -8.6 -12.05 -8.55 -12.1 -8.55 -12.55 -8.45 -12.85 -8.5 Q-13.1 -8.55 -13.35 -8.65 L-13.55 -8.75 -13.8 -8.85 -13.95 -8.85 -14.0 -8.8 -14.05 -8.8 -14.1 -8.7 -14.8 -8.7 Q-15.05 -8.7 -15.4 -8.9 -15.7 -9.05 -15.9 -9.0 L-15.95 -9.0 -15.95 -8.9 -16.4 -8.9 -16.75 -9.0 -16.9 -9.0 -17.0 -8.95 Q-17.2 -9.0 -17.25 -9.1 L-17.3 -9.3 -17.25 -9.45 -17.15 -9.6 Q-17.05 -9.8 -17.05 -10.0 L-17.1 -10.15 Q-17.15 -10.3 -17.2 -10.3 L-17.3 -10.25 -17.3 -10.35 -17.45 -10.35 -17.4 -10.4 -17.45 -10.4 Q-17.6 -10.55 -17.6 -10.8 L-17.55 -11.0 Q-17.5 -11.1 -17.45 -11.1 L-17.35 -11.2 -17.35 -11.25 -17.3 -11.3 -17.25 -11.3 -17.2 -11.25 -17.2 -11.15 Q-17.2 -11.1 -17.15 -11.05 -16.9 -11.05 -16.75 -11.25 -16.7 -11.35 -16.7 -11.5 -16.7 -11.65 -16.75 -11.65 L-16.85 -11.65 -16.8 -11.65 -16.8 -11.7 -16.7 -11.75 -16.7 -11.8 -16.65 -11.75 -16.65 -11.7 -16.6 -11.7 -16.5 -11.8 -16.4 -11.8 -16.2 -11.7 -16.2 -11.6 -16.15 -11.5 -16.1 -11.45 Q-15.95 -11.4 -15.8 -11.4 L-15.6 -11.4 Q-15.15 -11.55 -15.15 -11.8 L-15.1 -11.8 -15.1 -11.65 -15.05 -11.6 -15.05 -11.65 -15.0 -11.6 -14.9 -11.6 -14.9 -11.65 -14.8 -11.5 -14.85 -11.5 -14.85 -11.45 Q-14.85 -11.4 -14.8 -11.4 L-14.7 -11.4 -14.65 -11.45 -14.55 -11.6 -14.4 -11.65 -14.35 -11.6 -14.25 -11.55 -14.25 -11.3 -14.35 -11.2 -14.3 -11.1 Q-14.4 -11.1 -14.5 -10.85 L-14.55 -10.6 Q-14.55 -10.45 -14.45 -10.4 L-14.45 -10.35 -14.5 -10.4 -14.45 -10.3 Q-14.4 -10.25 -14.35 -10.2 L-14.1 -10.15 Q-13.9 -10.15 -13.9 -10.3 L-13.7 -10.3 -13.85 -10.15 Q-13.85 -10.0 -13.6 -10.0 L-13.4 -10.05 -13.3 -10.05 -13.25 -10.1 -13.15 -10.1 -13.0 -10.0 -12.75 -9.95 -12.5 -9.95 Q-12.15 -10.05 -12.15 -10.2 L-12.2 -10.25 Q-11.4 -10.5 -11.4 -10.95 L-11.2 -11.1 Q-11.45 -10.85 -11.45 -10.55 L-11.4 -10.5 -11.4 -10.45 Q-11.25 -10.35 -10.9 -10.3 L-10.4 -10.3 -10.25 -10.35 -10.05 -10.35 -10.2 -10.25 -10.05 -10.15 -9.95 -10.1 Q-9.8 -10.1 -9.65 -10.2 L-9.5 -10.35 Q-9.25 -10.2 -9.25 -9.95 -9.25 -9.9 -9.25 -9.85 L-9.4 -9.85 -9.3 -9.75 Q-9.25 -9.7 -9.05 -9.65 L-8.75 -9.7 Q-8.7 -9.75 -8.75 -9.8 -8.6 -9.8 -8.55 -9.7 L-8.55 -9.65 -8.6 -9.6 -8.55 -9.55 -8.35 -9.5 -8.0 -9.5 -7.95 -9.6 -7.95 -9.85 -7.8 -9.7 Q-7.7 -9.65 -7.5 -9.6 L-7.3 -9.6 -7.3 -9.65 -7.25 -9.65 Q-7.15 -9.6 -7.05 -9.45 -6.95 -9.35 -6.95 -9.3 L-6.95 -9.25 -7.05 -9.2 Q-7.05 -9.15 -6.95 -9.1 L-6.85 -9.1 -6.8 -9.15 -6.8 -9.2 -6.7 -9.3 -6.5 -9.4 -6.35 -9.35 Q-6.1 -9.35 -6.05 -9.45 L-5.95 -9.45 -5.85 -9.4 Q-5.85 -9.35 -5.85 -9.3 L-5.9 -9.25 -5.95 -9.15 -5.85 -9.1 Q-5.8 -9.05 -5.7 -9.0 L-5.5 -9.05 -5.45 -9.0 -5.4 -9.05 Q-5.3 -9.1 -5.25 -9.15 L-5.3 -9.2 Q-5.3 -9.25 -5.2 -9.35 -5.1 -9.45 -4.95 -9.45 L-4.55 -9.45 -4.3 -9.4 -3.75 -9.4 Q-3.35 -9.45 -3.25 -9.55 -3.15 -9.6 -3.1 -9.75 L-3.05 -9.7 -3.05 -9.55 -3.1 -9.5 -3.15 -9.4 -3.15 -9.3 Q-3.05 -9.2 -2.8 -9.2 L-2.75 -9.2 -2.75 -9.15 Q-2.45 -9.2 -2.25 -9.35 -2.0 -9.45 -2.0 -9.55 L-2.0 -9.6 -2.05 -9.55 -2.05 -9.6 Q-2.05 -9.65 -1.85 -9.75 -1.6 -9.85 -1.45 -9.95 -1.35 -10.05 -1.25 -10.2 -1.2 -10.3 -1.25 -10.4 L-1.2 -10.35 Q-1.15 -10.3 -1.0 -10.3 -0.8 -10.3 -0.7 -10.5 -0.6 -10.6 -0.6 -10.65 L-0.6 -10.7 -0.55 -10.65 -0.5 -10.55 -0.55 -10.5 Q-0.55 -10.1 0.1 -10.0 L0.4 -10.05 0.65 -10.15 0.7 -10.15 0.8 -10.25 1.0 -10.4 Q1.05 -10.5 1.05 -10.6 L1.0 -10.6 Q1.2 -10.8 1.4 -10.9 1.4 -10.85 1.4 -10.75 1.4 -10.65 1.45 -10.6 L1.65 -10.4 1.7 -10.2 Q1.7 -10.1 1.75 -10.1 L1.8 -10.05 1.85 -10.05 Q2.1 -10.05 2.25 -10.15 L2.45 -10.3 2.8 -10.55 2.8 -10.5 Q2.65 -10.4 2.65 -10.25 2.65 -10.05 2.95 -10.05 3.3 -10.05 3.6 -10.2 L3.75 -10.35 Q3.9 -10.5 3.9 -10.6 3.85 -10.6 3.85 -10.7 3.85 -10.8 4.1 -10.95 4.35 -11.15 4.35 -11.25 4.4 -11.2 4.45 -11.15 4.5 -11.1 4.55 -11.1 4.75 -11.1 4.9 -11.2 L5.05 -11.3 5.35 -11.6 5.6 -11.7 Q5.75 -11.8 5.75 -11.85 L5.7 -11.9 5.7 -11.95 5.75 -11.85 5.7 -11.6 Q5.7 -11.45 5.85 -11.4 L6.05 -11.4 6.1 -11.45 6.3 -11.4 6.6 -11.4 Q6.9 -11.4 7.05 -11.5 7.2 -11.6 7.2 -11.65 L7.15 -11.65 7.15 -11.7 7.2 -11.7 7.55 -11.75 7.5 -11.8 Q7.5 -11.85 7.55 -11.85 7.65 -11.8 7.7 -11.75 8.1 -11.8 8.25 -11.9 L8.3 -11.95 8.4 -12.15 8.35 -12.15 8.4 -12.3 8.5 -12.3 Q8.75 -12.3 8.85 -12.4 8.9 -12.5 8.9 -12.6 L8.85 -12.65 Q8.9 -12.8 9.05 -13.0 9.25 -13.15 9.45 -13.2 L10.05 -13.25 10.3 -13.2 10.4 -13.15 10.55 -13.0 Q10.9 -13.1 11.05 -13.25 11.15 -13.35 11.15 -13.5 11.15 -13.65 11.05 -13.75 10.95 -13.85 10.75 -13.85 10.75 -13.95 10.9 -14.1 11.05 -14.3 11.2 -14.3 L11.4 -14.3 11.55 -14.15 11.65 -13.9 Q12.05 -13.95 12.15 -14.15 12.2 -14.2 12.15 -14.4 L12.45 -14.4 Q12.7 -14.45 12.8 -14.6 12.85 -14.65 12.95 -14.85 L12.95 -14.95 12.85 -15.0 12.65 -14.95 Q12.6 -14.95 12.6 -15.0 12.6 -15.05 12.75 -15.1 L12.85 -15.15 M9.8 -11.75 Q9.65 -11.65 9.4 -11.65 L9.2 -11.65 9.2 -11.6 9.15 -11.55 Q9.15 -11.5 9.15 -11.45 L9.2 -11.45 9.35 -11.4 Q10.1 -11.4 10.1 -11.9 L10.25 -12.05 10.55 -12.05 10.55 -12.2 10.25 -12.1 9.95 -11.95 9.8 -11.75 M11.4 -12.25 Q11.55 -12.3 11.7 -12.4 11.85 -12.5 11.85 -12.6 L11.8 -12.6 11.15 -12.4 11.2 -12.25 11.4 -12.25 M4.2 -12.2 L4.2 -12.1 4.1 -12.0 4.05 -12.0 4.15 -12.1 4.15 -12.2 4.1 -12.25 4.1 -12.3 4.15 -12.35 4.2 -12.2 M3.95 -11.85 L3.95 -11.85 M4.15 -11.6 Q4.35 -11.7 4.45 -11.55 L4.35 -11.45 4.3 -11.35 4.3 -11.45 Q4.3 -11.5 4.25 -11.55 L4.15 -11.6 M5.45 -11.95 L5.4 -11.95 Q5.3 -11.95 5.25 -11.95 L5.15 -12.05 5.2 -12.05 5.45 -12.0 5.65 -11.95 5.45 -11.95 M-17.1 -12.3 L-17.1 -12.25 -17.15 -12.15 Q-17.15 -12.1 -17.05 -12.05 L-17.15 -12.05 -17.15 -12.3 -17.1 -12.3 M-15.85 -10.1 L-15.9 -10.1 Q-15.95 -10.15 -16.0 -10.05 L-16.1 -9.95 Q-16.2 -9.8 -16.2 -9.7 L-16.2 -9.6 -16.1 -9.55 Q-15.95 -9.55 -15.85 -9.6 L-15.75 -9.7 -15.65 -9.7 Q-15.65 -9.75 -15.6 -9.75 -15.55 -9.8 -15.55 -9.85 L-15.6 -10.0 -15.7 -10.1 -15.85 -10.1" fill="#ffd327" fill-rule="evenodd" stroke="none"/>
    </g>
    <g id="shape1" transform="matrix(1.0, 0.0, 0.0, 1.0, -6.05, 6.75)">
      <path d="M9.65 -4.45 Q9.75 -4.4 9.75 -4.3 9.75 -4.15 9.7 -4.05 L9.65 -3.95 9.65 -3.9 9.5 -3.9 Q9.35 -3.9 9.25 -3.95 L9.1 -4.1 9.1 -4.2 Q9.1 -4.6 9.45 -4.55 9.55 -4.55 9.65 -4.45 M16.8 -1.8 Q17.05 -1.75 17.2 -1.55 17.1 -1.35 16.95 -1.3 L16.75 -1.25 16.55 -1.3 16.4 -1.3 16.4 -1.6 Q16.4 -1.85 16.4 -1.8 L16.8 -1.8" fill="#ffd327" fill-opacity="0.5019608" fill-rule="evenodd" stroke="none"/>
      <path d="M9.7 -4.1 L9.7 -4.0 9.6 -3.9 9.3 -3.9 9.3 -3.85 Q9.25 -3.9 9.25 -4.0 9.25 -4.15 9.3 -4.2 L9.5 -4.25 Q9.65 -4.2 9.7 -4.1 M6.1 -6.5 Q6.05 -6.6 6.05 -6.7 L6.15 -6.75 6.3 -6.75 6.35 -6.6 6.25 -6.5 6.1 -6.5 M13.9 -5.35 Q13.9 -5.2 13.85 -5.15 L13.65 -5.15 13.6 -5.2 Q13.6 -5.25 13.6 -5.3 L13.6 -5.4 13.85 -5.4 13.9 -5.35 M11.75 -6.05 L11.95 -6.05 11.9 -5.95 11.8 -5.85 11.75 -5.85 Q11.65 -5.9 11.65 -5.95 L11.75 -6.05 M13.95 -2.15 L13.75 -2.05 13.55 -2.0 13.45 -2.05 13.65 -2.25 Q13.75 -2.35 13.85 -2.35 L13.95 -2.15 M17.1 -1.45 L17.05 -1.3 17.0 -1.25 16.8 -1.25 16.75 -1.2 Q16.7 -1.2 16.7 -1.35 16.7 -1.5 16.75 -1.55 L16.75 -1.7 17.0 -1.7 17.05 -1.65 17.1 -1.45" fill="#ffd327" fill-rule="evenodd" stroke="none"/>
    </g>
    <g id="shape2" transform="matrix(1.0, 0.0, 0.0, 1.0, 17.5, 14.2)">
      <path d="M13.5 -14.2 Q13.55 -14.05 13.55 -13.95 13.6 -13.8 13.75 -13.7 L13.95 -13.6 14.0 -13.45 14.05 -13.2 14.0 -13.05 Q13.95 -12.9 13.95 -12.85 L14.05 -12.75 14.05 -12.6 Q14.05 -12.35 13.8 -12.1 13.55 -11.8 13.05 -11.6 L13.0 -11.65 12.95 -11.65 Q12.75 -11.65 12.5 -11.45 L12.2 -11.2 Q12.0 -11.0 11.6 -10.85 11.25 -10.7 11.2 -10.7 L11.1 -10.7 Q10.8 -10.65 10.55 -10.5 10.3 -10.3 9.75 -10.25 L9.65 -10.25 Q9.2 -10.2 9.05 -10.15 L8.85 -10.0 8.5 -9.75 Q8.35 -9.7 8.25 -9.7 L8.2 -9.7 7.45 -9.55 Q7.05 -9.3 6.95 -9.3 L6.85 -9.3 6.7 -9.35 Q6.6 -9.4 6.6 -9.45 L6.2 -9.45 5.35 -9.25 4.65 -9.1 4.45 -9.15 4.25 -9.15 3.5 -8.95 3.15 -8.85 3.0 -8.75 Q2.75 -8.65 2.3 -8.65 L1.7 -8.65 1.0 -8.5 0.25 -8.4 0.2 -8.35 -1.55 -8.35 Q-1.75 -8.4 -1.95 -8.5 L-2.3 -8.6 -2.9 -8.6 -3.2 -8.55 -3.25 -8.5 -3.5 -8.45 -4.3 -8.45 -4.4 -8.5 -5.05 -8.5 -5.4 -8.45 -5.35 -8.45 Q-5.4 -8.4 -5.75 -8.35 L-6.15 -8.35 -6.5 -8.4 -7.2 -8.45 -7.2 -8.5 -7.25 -8.55 -7.3 -8.55 -7.9 -8.45 -8.35 -8.35 -9.0 -8.35 -9.35 -8.4 Q-9.5 -8.45 -9.6 -8.5 -9.7 -8.6 -9.7 -8.65 L-10.0 -8.7 -10.15 -8.7 -10.25 -8.65 -10.85 -8.65 -10.95 -8.7 -11.0 -8.7 -11.05 -8.75 -11.4 -8.8 -11.6 -8.8 -11.55 -8.75 -11.65 -8.75 -11.8 -8.7 -12.4 -8.6 -12.85 -8.6 -12.85 -8.65 -13.2 -8.7 -13.4 -8.85 -13.45 -8.85 -13.4 -8.9 -13.75 -9.0 -14.1 -8.95 -14.15 -8.95 -14.2 -8.9 Q-14.35 -8.85 -14.6 -8.85 L-14.8 -8.85 Q-15.1 -8.9 -15.3 -8.95 -15.25 -9.1 -15.8 -9.2 L-16.0 -9.2 -16.05 -9.15 -16.0 -9.15 -16.05 -9.1 -16.25 -9.05 -16.4 -9.05 Q-16.6 -9.05 -16.65 -9.15 L-16.95 -9.15 -17.0 -9.1 -17.05 -9.1 Q-17.15 -9.1 -17.15 -9.25 -17.15 -9.45 -17.05 -9.6 L-16.95 -9.8 -16.95 -10.0 -17.05 -10.25 Q-17.1 -10.35 -17.4 -10.45 L-17.45 -10.5 -17.5 -10.6 -17.45 -10.75 -17.45 -10.8 Q-17.45 -10.7 -17.4 -10.65 -17.3 -10.5 -17.1 -10.5 L-16.85 -10.5 Q-16.7 -10.65 -16.45 -10.65 -16.4 -10.65 -16.4 -10.6 L-16.45 -10.55 -16.45 -10.5 Q-16.45 -10.3 -16.15 -10.3 -15.95 -10.3 -15.9 -10.4 L-15.85 -10.35 -15.8 -10.35 -15.9 -10.25 -16.0 -10.2 Q-16.15 -10.15 -16.25 -10.05 -16.35 -9.9 -16.35 -9.7 -16.35 -9.6 -16.3 -9.55 -16.25 -9.5 -16.05 -9.45 -15.8 -9.5 -15.7 -9.55 -15.65 -9.6 -15.6 -9.6 L-15.5 -9.65 -15.5 -9.7 -15.4 -9.75 Q-15.35 -9.8 -15.35 -9.9 -15.35 -10.05 -15.5 -10.15 L-15.65 -10.25 -15.6 -10.3 Q-15.4 -10.35 -15.35 -10.4 L-15.25 -10.5 Q-14.9 -10.5 -14.8 -10.4 L-14.7 -10.15 -14.75 -10.15 -14.75 -10.1 -14.8 -10.0 Q-14.8 -9.9 -14.75 -9.85 L-14.7 -9.85 -14.7 -9.8 -14.55 -9.75 -14.45 -9.75 -14.45 -9.7 -14.2 -9.7 Q-14.0 -9.7 -13.9 -9.75 L-13.75 -9.85 -13.7 -9.85 -13.7 -9.8 Q-13.7 -9.75 -13.6 -9.7 -13.5 -9.6 -13.2 -9.6 L-13.0 -9.6 -13.05 -9.65 -13.0 -9.7 -12.7 -9.7 -12.75 -9.65 Q-12.75 -9.6 -12.65 -9.6 L-12.4 -9.6 -12.4 -9.65 Q-12.3 -9.7 -12.25 -9.75 L-12.2 -9.85 -12.05 -10.0 -11.85 -10.0 -12.05 -9.8 -11.8 -9.55 -11.75 -9.55 -11.65 -9.5 -11.45 -9.45 Q-11.25 -9.45 -11.2 -9.55 L-11.05 -9.55 -10.85 -9.5 -10.25 -9.55 Q-10.15 -9.6 -10.15 -9.65 L-9.95 -9.55 Q-9.85 -9.5 -9.8 -9.45 L-9.75 -9.3 -9.7 -9.3 -9.7 -9.25 -9.65 -9.25 -9.45 -9.15 -9.15 -9.15 -9.15 -9.2 -9.1 -9.2 -8.7 -9.05 -8.4 -9.05 -8.25 -9.1 -8.15 -9.1 Q-8.05 -9.05 -7.95 -9.05 L-7.9 -9.1 Q-7.6 -9.1 -7.6 -9.25 L-7.2 -9.3 -7.2 -9.4 -7.05 -9.25 -7.15 -9.2 -7.2 -9.15 Q-7.2 -9.0 -6.95 -9.0 -6.8 -9.0 -6.75 -9.1 L-6.6 -9.25 -6.5 -9.2 -6.45 -9.15 Q-6.2 -9.15 -6.05 -9.2 L-6.0 -9.15 -6.05 -9.15 -5.95 -9.05 Q-5.85 -9.0 -5.75 -9.0 L-5.25 -9.0 -5.05 -9.1 -4.65 -9.2 -4.3 -9.2 -4.4 -9.15 -4.4 -9.1 Q-4.45 -9.0 -4.5 -9.0 L-4.6 -8.95 -4.65 -8.85 -4.7 -8.85 -4.5 -8.9 -4.3 -9.0 -4.3 -9.05 Q-4.3 -9.1 -4.05 -9.2 L-3.7 -9.3 -3.3 -9.3 -3.35 -9.2 -3.25 -9.1 -3.2 -9.1 -3.0 -9.05 -2.45 -9.1 -2.2 -9.15 -2.2 -9.2 -2.3 -9.15 -2.35 -9.15 -2.35 -9.2 -2.05 -9.25 -1.75 -9.5 -1.75 -9.55 -1.8 -9.6 Q-1.7 -9.8 -0.85 -10.05 L-0.75 -9.85 -0.6 -9.9 -0.45 -9.9 -0.3 -9.8 -0.55 -9.75 -0.7 -9.6 -0.7 -9.55 Q-0.55 -9.45 -0.4 -9.45 L-0.4 -9.4 -0.3 -9.25 -0.1 -9.25 Q0.3 -9.4 0.45 -9.5 L0.55 -9.65 0.75 -9.75 1.0 -9.95 1.15 -10.1 Q1.2 -10.1 1.15 -10.05 1.25 -10.05 1.25 -10.1 L1.3 -10.2 1.55 -9.95 1.55 -9.9 1.75 -9.85 1.9 -9.85 1.9 -9.8 1.85 -9.75 1.85 -9.65 Q1.85 -9.5 2.15 -9.5 L2.3 -9.5 2.75 -9.6 2.95 -9.65 3.35 -9.65 3.65 -9.8 Q3.8 -9.8 3.85 -9.9 4.1 -10.05 4.2 -10.15 L4.2 -10.2 4.3 -10.3 4.7 -10.5 5.15 -10.5 5.45 -10.8 5.45 -10.7 5.5 -10.7 5.45 -10.5 5.45 -10.45 5.5 -10.45 5.5 -10.4 5.55 -10.35 5.8 -10.3 Q6.35 -10.3 6.85 -10.5 6.9 -10.5 7.0 -10.6 7.1 -10.7 7.2 -10.7 L7.35 -10.7 7.3 -10.65 7.45 -10.6 Q7.8 -10.6 8.3 -10.8 8.8 -10.95 8.75 -11.15 L9.15 -11.2 9.15 -11.1 9.25 -11.1 Q9.65 -11.1 9.85 -11.15 L10.0 -11.25 10.1 -11.3 Q10.2 -11.35 10.25 -11.4 L10.3 -11.5 10.4 -11.65 10.3 -11.85 Q10.3 -11.9 10.4 -11.95 10.45 -12.0 10.65 -11.95 10.75 -11.95 10.85 -12.0 L10.95 -12.1 10.9 -12.15 10.9 -12.2 10.95 -12.2 11.1 -12.1 11.2 -12.05 11.4 -12.1 11.65 -12.1 Q11.75 -12.1 11.9 -12.25 L12.15 -12.5 12.3 -12.75 12.35 -12.9 12.55 -13.0 12.75 -13.0 12.7 -12.95 Q12.95 -13.05 13.05 -13.2 L13.2 -13.4 Q13.4 -13.6 13.4 -13.85 L13.35 -14.0 13.3 -14.0 Q13.3 -14.05 13.5 -14.2" fill="#ffff66" fill-rule="evenodd" stroke="none"/>
      <path d="M9.9 -11.1 L10.05 -11.2 10.15 -11.25 10.3 -11.35 10.35 -11.45 Q10.5 -11.6 10.45 -11.65 L10.4 -11.8 10.4 -11.85 10.45 -11.9 10.65 -11.85 Q10.75 -11.85 10.9 -11.95 L11.05 -12.05 Q11.15 -11.95 11.2 -11.95 L11.4 -12.0 11.5 -12.0 11.7 -12.05 Q11.8 -12.05 11.95 -12.15 L12.25 -12.45 12.4 -12.7 12.4 -12.85 12.6 -12.9 12.75 -12.9 Q13.0 -13.0 13.1 -13.15 L13.3 -13.35 Q13.45 -13.55 13.45 -13.85 L13.45 -14.05 13.5 -13.9 Q13.55 -13.75 13.75 -13.6 L13.85 -13.55 13.9 -13.55 13.95 -13.4 14.0 -13.2 13.95 -13.05 13.9 -12.85 Q13.9 -12.8 13.95 -12.75 L13.95 -12.6 Q13.95 -12.4 13.75 -12.15 13.5 -11.85 13.05 -11.7 L12.95 -11.75 Q12.7 -11.7 12.45 -11.5 L12.15 -11.25 Q11.95 -11.1 11.6 -10.9 L11.2 -10.75 11.1 -10.8 Q10.8 -10.75 10.5 -10.55 10.25 -10.35 9.75 -10.35 L9.65 -10.35 Q9.2 -10.3 9.05 -10.2 L9.0 -10.2 8.8 -10.05 8.45 -9.8 Q8.35 -9.75 8.25 -9.75 L8.25 -9.8 8.2 -9.8 7.45 -9.6 7.4 -9.6 Q7.05 -9.4 6.95 -9.4 L6.85 -9.4 Q6.8 -9.4 6.75 -9.45 L6.7 -9.45 6.65 -9.5 6.2 -9.5 5.3 -9.35 Q4.8 -9.15 4.65 -9.15 L4.45 -9.2 4.25 -9.2 3.5 -9.05 3.15 -8.9 3.1 -8.9 3.0 -8.8 2.95 -8.8 Q2.75 -8.7 2.3 -8.7 L2.2 -8.7 2.05 -8.75 2.0 -8.75 1.7 -8.7 1.65 -8.7 Q1.4 -8.7 1.0 -8.55 L0.25 -8.45 0.2 -8.45 -0.1 -8.4 -0.25 -8.4 -1.3 -8.45 -1.5 -8.4 -1.55 -8.45 -1.9 -8.55 Q-2.05 -8.65 -2.3 -8.7 L-2.85 -8.7 -2.85 -8.65 -2.9 -8.65 -3.2 -8.6 -3.25 -8.6 -3.3 -8.55 -3.5 -8.55 -4.05 -8.5 -4.3 -8.55 -4.4 -8.55 -4.55 -8.6 -5.05 -8.6 -5.45 -8.5 -5.5 -8.5 -5.5 -8.45 -5.75 -8.4 -6.15 -8.4 -6.5 -8.5 -7.1 -8.55 -7.15 -8.55 -7.15 -8.6 -7.3 -8.6 -7.9 -8.55 -8.35 -8.45 -9.3 -8.45 -9.35 -8.5 Q-9.45 -8.5 -9.55 -8.55 L-9.65 -8.65 -9.65 -8.7 -9.7 -8.75 -10.0 -8.8 -10.15 -8.8 -10.25 -8.7 -10.25 -8.75 -10.55 -8.7 -10.8 -8.7 -10.85 -8.75 -10.95 -8.75 -11.0 -8.8 -11.05 -8.8 -11.35 -8.85 -11.6 -8.85 -11.65 -8.8 -11.8 -8.8 -11.85 -8.75 -12.4 -8.7 -12.85 -8.7 -13.3 -8.85 -13.3 -8.9 -13.35 -8.95 -13.7 -9.05 -14.1 -9.05 -14.15 -9.0 -14.25 -9.0 Q-14.4 -8.9 -14.6 -8.9 L-14.8 -8.9 -15.2 -9.0 Q-15.25 -9.2 -15.8 -9.3 L-16.0 -9.25 -16.05 -9.25 Q-16.1 -9.3 -16.1 -9.2 L-16.15 -9.15 -16.25 -9.1 -16.4 -9.1 Q-16.55 -9.15 -16.6 -9.2 L-16.65 -9.25 -17.0 -9.2 -17.05 -9.15 -17.1 -9.25 Q-17.1 -9.45 -17.0 -9.55 -16.95 -9.6 -16.9 -9.75 L-16.9 -9.8 -16.85 -9.95 -16.85 -10.0 Q-16.85 -10.05 -16.95 -10.25 L-17.1 -10.4 -17.15 -10.4 -17.3 -10.45 -17.25 -10.5 -17.1 -10.4 -16.8 -10.4 -16.75 -10.45 Q-16.7 -10.55 -16.55 -10.55 L-16.55 -10.5 Q-16.55 -10.2 -16.15 -10.2 L-16.3 -10.1 Q-16.45 -9.9 -16.45 -9.7 -16.45 -9.55 -16.35 -9.5 -16.3 -9.4 -16.05 -9.35 L-16.0 -9.35 Q-15.75 -9.4 -15.65 -9.5 L-15.6 -9.55 -15.5 -9.55 -15.4 -9.65 -15.35 -9.65 -15.35 -9.7 Q-15.3 -9.75 -15.3 -9.9 -15.3 -10.05 -15.45 -10.2 L-15.5 -10.25 -15.3 -10.3 -15.2 -10.4 Q-14.95 -10.4 -14.85 -10.35 L-14.8 -10.2 -14.85 -10.15 -14.85 -10.0 Q-14.85 -9.9 -14.8 -9.8 L-14.75 -9.8 -14.75 -9.75 -14.7 -9.75 -14.55 -9.7 -14.5 -9.65 -14.45 -9.65 -14.35 -9.6 -14.15 -9.6 -13.85 -9.7 -13.75 -9.75 -13.65 -9.6 Q-13.55 -9.5 -13.2 -9.5 L-13.0 -9.55 -12.95 -9.55 -12.9 -9.6 -12.8 -9.6 Q-12.8 -9.55 -12.65 -9.5 L-12.35 -9.55 -12.35 -9.6 Q-12.25 -9.6 -12.2 -9.7 L-12.15 -9.8 -12.1 -9.8 -12.1 -9.75 -11.9 -9.55 -11.8 -9.5 -11.7 -9.4 Q-11.6 -9.35 -11.45 -9.35 -11.25 -9.35 -11.15 -9.45 L-11.05 -9.45 -10.85 -9.4 -10.25 -9.5 -10.1 -9.55 -9.95 -9.5 -9.9 -9.45 -9.8 -9.3 -9.8 -9.25 -9.75 -9.25 -9.75 -9.2 -9.7 -9.2 -9.6 -9.1 Q-9.5 -9.05 -9.45 -9.05 L-9.15 -9.05 -9.1 -9.1 -9.15 -9.1 -9.1 -9.15 -9.1 -9.1 -8.7 -9.0 -8.25 -9.0 -8.15 -9.05 -7.95 -9.0 -7.9 -9.0 Q-7.55 -9.05 -7.5 -9.15 L-7.25 -9.2 -7.25 -9.15 Q-7.25 -8.95 -6.95 -8.95 -6.75 -8.95 -6.65 -9.05 -6.65 -9.1 -6.6 -9.15 L-6.55 -9.15 -6.5 -9.1 -6.5 -9.05 -6.45 -9.05 -6.1 -9.1 -6.0 -9.0 Q-5.85 -8.9 -5.75 -8.9 L-5.25 -8.9 -5.25 -8.95 -5.05 -9.0 -5.0 -9.0 -4.65 -9.1 -4.5 -9.15 -4.5 -9.1 -4.55 -9.05 -4.65 -9.0 -4.75 -8.9 -4.75 -8.8 -4.7 -8.75 -4.65 -8.75 Q-4.6 -8.8 -4.5 -8.85 -4.4 -8.9 -4.3 -8.95 L-4.25 -8.95 -4.2 -9.05 -4.05 -9.1 -3.7 -9.2 -3.45 -9.2 -3.4 -9.15 -3.4 -9.1 -3.3 -9.1 -3.3 -9.05 -3.25 -9.0 -3.0 -8.95 -2.45 -9.05 -2.35 -9.05 Q-2.2 -9.0 -2.05 -9.15 L-2.05 -9.2 -2.0 -9.2 -1.7 -9.45 -1.65 -9.45 -1.65 -9.55 -1.7 -9.6 Q-1.55 -9.75 -0.9 -9.95 L-0.8 -9.8 -0.65 -9.8 -0.8 -9.65 -0.8 -9.5 -0.75 -9.45 Q-0.65 -9.4 -0.5 -9.35 L-0.35 -9.2 Q-0.35 -9.15 -0.3 -9.15 L-0.1 -9.15 Q0.35 -9.3 0.5 -9.45 L0.65 -9.6 0.8 -9.7 1.05 -9.9 1.15 -10.0 Q1.3 -10.0 1.35 -10.05 L1.4 -10.0 1.5 -9.95 1.45 -9.9 1.45 -9.85 1.5 -9.8 1.75 -9.75 1.8 -9.75 1.75 -9.65 Q1.75 -9.4 2.15 -9.4 L2.3 -9.45 2.75 -9.5 2.95 -9.6 3.15 -9.6 3.15 -9.55 3.2 -9.55 3.35 -9.6 3.4 -9.6 3.45 -9.65 3.7 -9.7 3.9 -9.8 4.25 -10.05 Q4.3 -10.1 4.3 -10.2 L4.7 -10.4 5.15 -10.45 Q5.3 -10.5 5.4 -10.6 L5.4 -10.65 5.35 -10.5 Q5.35 -10.45 5.4 -10.4 L5.5 -10.3 5.55 -10.3 5.8 -10.2 Q6.4 -10.2 6.85 -10.4 L7.05 -10.55 7.25 -10.65 7.25 -10.6 7.3 -10.6 7.45 -10.5 Q7.8 -10.5 8.3 -10.7 8.8 -10.9 8.85 -11.1 L9.05 -11.1 Q9.1 -11.05 9.15 -11.05 9.2 -11.0 9.25 -11.0 9.65 -11.0 9.9 -11.1 M13.05 -11.7 L13.05 -11.7 M-7.1 -9.35 L-7.15 -9.25 -7.1 -9.3 -7.2 -9.3 -7.1 -9.35 M-15.6 -10.25 L-15.65 -10.25 -15.65 -10.3 -15.6 -10.3 -15.6 -10.25" fill="#ffffff" fill-rule="evenodd" stroke="none"/>
    </g>
  </defs>
</svg>
