<?xml version="1.0" encoding="UTF-8" standalone="no"?>
<svg xmlns:ffdec="https://www.free-decompiler.com/flash" xmlns:xlink="http://www.w3.org/1999/xlink" ffdec:objectType="frame" height="249.45px" width="216.95px" xmlns="http://www.w3.org/2000/svg">
  <g transform="matrix(1.0, 0.0, 0.0, 1.0, 119.75, 238.1)">
    <use ffdec:characterId="2156" height="5.3" transform="matrix(-7.0069, 0.0, 0.0, 7.0, 29.6475, -30.6)" width="12.8" xlink:href="#shape0"/>
    <use ffdec:characterId="2183" height="20.5" transform="matrix(7.0, 0.0, 0.0, 5.3242, -110.4, -112.0835)" width="10.05" xlink:href="#shape1"/>
    <use ffdec:characterId="2192" height="18.75" transform="matrix(-9.2033, 0.0, 1.5686, 7.0, 42.4049, -125.15)" width="8.1" xlink:href="#shape2"/>
    <use ffdec:characterId="2187" height="30.3" transform="matrix(-4.9948, 0.0, 0.0, 4.9948, 46.7315, -148.7456)" width="23.9" xlink:href="#shape3"/>
    <use ffdec:characterId="2193" height="29.55" transform="matrix(7.0, 0.0, 0.0, 7.0, -81.25, -202.05)" width="22.7" xlink:href="#shape4"/>
  </g>
  <defs>
    <g id="shape0" transform="matrix(1.0, 0.0, 0.0, 1.0, 6.85, 5.3)">
      <path d="M1.6 -4.9 Q2.1 -4.0 2.45 -2.9 L3.5 -4.0 Q3.4 -2.9 2.7 -1.95 L2.75 -1.75 2.8 -1.6 2.9 -1.2 Q3.2 -1.85 3.75 -2.5 L3.6 -3.15 Q3.5 -4.05 3.9 -4.7 4.2 -3.95 4.4 -3.15 5.15 -3.85 5.95 -4.3 5.9 -3.3 4.6 -2.1 4.65 -1.6 4.55 -1.1 4.25 -1.35 4.1 -1.65 3.4 -1.1 2.7 -0.75 L2.85 -1.05 Q2.6 -1.25 2.4 -1.55 L2.25 -1.45 Q1.45 -0.6 0.65 -0.1 L0.75 -0.35 0.6 0.0 Q0.5 -0.2 0.5 -0.45 L0.45 -0.45 0.3 -0.2 Q0.2 -0.35 0.15 -0.55 -0.6 -0.85 -1.2 -1.7 -1.85 -1.05 -2.6 -0.65 L-2.55 -0.8 Q-3.05 -1.45 -3.1 -2.5 -3.1 -3.3 -2.8 -3.75 -2.65 -2.9 -2.55 -2.0 -2.5 -1.45 -2.5 -0.95 -2.2 -1.75 -1.75 -2.55 -2.3 -3.55 -2.4 -4.4 -1.85 -3.8 -1.3 -3.2 L-1.05 -3.55 Q-0.35 -4.45 0.45 -5.05 0.25 -3.7 -0.65 -2.4 L-0.45 -2.15 0.05 -1.4 0.05 -1.6 Q0.1 -2.15 0.3 -2.5 0.45 -1.9 0.5 -1.25 0.6 -1.65 0.75 -2.05 1.1 -2.8 1.6 -3.3 1.7 -2.35 1.2 -1.35 L0.95 -0.85 Q1.35 -1.65 1.95 -2.35 1.85 -2.7 1.75 -3.05 1.5 -3.8 1.6 -4.4 L1.6 -4.9 M-6.15 -2.15 L-5.85 -1.55 Q-5.45 -2.45 -5.15 -3.45 L-5.1 -3.5 Q-5.35 -4.5 -5.4 -5.3 -5.0 -4.8 -4.65 -4.25 -4.45 -4.45 -4.15 -4.6 -3.9 -3.9 -4.15 -3.1 L-4.05 -2.8 -3.7 -1.8 -3.65 -2.2 Q-3.55 -2.75 -3.25 -3.1 -3.05 -2.55 -3.15 -1.8 -3.25 -1.35 -3.4 -0.95 L-3.35 -0.85 Q-4.2 -1.05 -4.65 -2.05 -5.15 -1.3 -5.75 -1.35 L-5.7 -1.2 Q-6.5 -1.4 -6.75 -2.5 -6.85 -3.1 -6.85 -3.5 -6.55 -2.85 -6.15 -2.15" fill="#5b664d" fill-rule="evenodd" stroke="none"/>
    </g>
    <g id="shape1" transform="matrix(1.0, 0.0, 0.0, 1.0, 8.7, 20.0)">
      <path d="M-5.4 -17.8 L-5.4 -17.7 -5.35 -17.65 -5.35 -17.7 -5.4 -17.75 -5.4 -17.8 M-5.35 -18.15 L-5.35 -18.15 M-6.4 -19.65 L-6.4 -19.65 M0.1 -4.25 L0.3 -4.05 0.4 -3.9 0.5 -3.85 0.55 -3.8 0.6 -3.7 0.6 -3.65 0.65 -3.55 0.65 -3.3 0.6 -3.2 0.55 -3.15 0.55 -3.0 0.75 -2.8 0.9 -2.7 1.05 -2.5 1.05 -2.4 1.1 -2.35 1.1 -2.25 1.2 -1.9 1.2 -1.8 1.25 -1.65 1.1 -1.5 1.1 -1.45 1.05 -1.4 1.0 -1.3 1.0 -1.25 1.1 -1.15 1.15 -1.05 1.15 -1.0 1.2 -0.95 1.2 -0.9 1.25 -0.75 1.25 -0.7 1.3 -0.5 1.3 -0.45 1.35 -0.3 1.3 -0.25 1.3 -0.1 1.25 -0.05 1.2 0.05 1.1 0.1 0.85 0.2 0.8 0.15 0.75 0.15 0.65 0.05 Q-0.1 -0.1 -0.85 0.25 -1.35 0.3 -1.9 0.5 L-2.35 0.5 -2.45 0.45 -2.65 0.4 -2.7 0.25 -2.75 0.15 -2.75 -0.1 -2.65 -0.2 -2.65 -0.3 -2.7 -0.4 -2.7 -0.55 -2.65 -0.55 -2.65 -0.95 -2.75 -1.15 -2.75 -1.3 -2.7 -1.45 -2.65 -1.5 -2.65 -1.65 -2.7 -1.7 -2.7 -1.75 -2.85 -1.8 -2.9 -1.8 -3.0 -2.0 -3.05 -2.15 -3.05 -2.2 -3.1 -2.45 -3.15 -2.8 -3.3 -2.85 -3.4 -3.0 -3.55 -3.2 Q-3.7 -3.55 -3.9 -3.8 L-3.95 -3.85 -3.95 -3.9 -4.0 -3.95 -4.0 -4.0 -4.3 -4.1 -4.35 -4.1 -4.35 -4.15 -4.95 -4.45 -5.25 -4.75 -5.25 -4.85 -5.3 -4.95 -5.3 -5.0 -5.35 -5.05 -5.35 -5.15 -5.45 -5.25 -5.55 -5.3 Q-5.9 -5.45 -6.3 -5.65 L-6.35 -5.75 -6.5 -5.85 -6.5 -5.9 -6.55 -5.95 -6.65 -6.1 -6.9 -6.4 Q-7.0 -6.4 -7.1 -6.45 -7.35 -6.65 -7.55 -6.9 L-7.6 -6.95 -7.6 -7.0 -7.85 -7.25 -8.0 -7.55 -8.05 -7.75 -8.15 -7.85 -8.15 -7.95 -8.2 -8.1 -8.2 -8.2 Q-8.15 -8.3 -8.05 -8.35 -7.9 -8.4 -7.9 -8.5 L-8.0 -8.7 -8.2 -9.0 -8.25 -9.05 -8.25 -9.15 -8.35 -9.25 -8.4 -9.35 -8.4 -9.4 -8.45 -9.55 -8.45 -9.75 -8.4 -9.85 -8.4 -10.0 -8.45 -10.1 -8.5 -10.1 -8.5 -10.3 -8.6 -10.4 -8.6 -10.55 -8.7 -10.75 -8.7 -11.0 -8.65 -11.05 -8.6 -11.05 -8.5 -11.2 -8.5 -11.35 -8.6 -11.45 -8.6 -11.7 -8.55 -11.8 -8.55 -12.0 -8.5 -12.05 -8.5 -12.1 -8.35 -12.25 Q-8.2 -12.35 -8.2 -12.45 L-8.2 -12.5 -8.25 -12.55 -8.25 -12.75 -8.3 -12.8 -8.25 -12.85 -8.25 -13.0 Q-8.2 -13.05 -8.25 -13.15 L-8.2 -13.35 -8.05 -13.5 -7.95 -13.7 -7.95 -14.1 -7.75 -14.2 -7.8 -14.3 -7.8 -14.5 -7.9 -14.6 -7.9 -14.65 -7.95 -14.85 -7.95 -15.05 -7.9 -15.1 -7.9 -15.2 -7.85 -15.25 -7.85 -15.3 -7.8 -15.35 -7.8 -15.45 -7.7 -15.65 -7.6 -15.8 -7.4 -15.8 -7.2 -15.7 -7.0 -15.9 -6.85 -15.95 -6.65 -16.0 -6.65 -16.1 -6.6 -16.15 -6.6 -16.3 -6.65 -16.35 -6.65 -16.75 -6.6 -16.8 -6.6 -16.9 -6.35 -17.15 -6.3 -17.15 Q-6.1 -17.2 -5.95 -17.4 L-5.95 -17.8 -5.9 -17.9 -5.85 -17.95 -5.85 -18.15 -5.8 -18.2 -5.8 -18.25 -5.85 -18.4 -5.9 -18.6 -6.0 -18.7 -6.1 -18.85 -6.2 -18.95 -6.2 -19.0 -6.4 -19.1 -6.65 -19.35 Q-6.9 -19.35 -7.1 -19.45 L-7.15 -19.5 -7.15 -19.55 -7.2 -19.65 -7.15 -19.65 -7.1 -19.75 -7.05 -19.8 -6.9 -19.8 -6.85 -19.9 -6.6 -19.95 -6.55 -19.95 -6.55 -20.0 -6.45 -20.0 Q-6.35 -20.0 -6.35 -19.85 L-6.15 -19.65 -6.0 -19.6 -5.95 -19.6 Q-5.85 -19.55 -5.8 -19.45 L-5.75 -19.4 -5.75 -19.35 -5.7 -19.3 -5.7 -19.2 -5.65 -19.15 -5.65 -19.1 -5.6 -19.0 -5.6 -18.95 -5.45 -18.75 -5.35 -18.6 -5.2 -18.45 -5.2 -18.35 -5.1 -18.25 -5.1 -17.7 -5.15 -17.65 -5.1 -17.6 -5.1 -17.55 -5.05 -17.5 -5.0 -17.35 -4.9 -17.25 -4.9 -17.2 -4.85 -17.15 -4.85 -16.95 -4.9 -16.9 -4.9 -16.8 -5.0 -16.7 -5.0 -16.65 -5.05 -16.5 -5.25 -16.4 -5.3 -16.3 -5.3 -16.2 -5.35 -16.1 -5.35 -15.95 -5.25 -15.85 -5.2 -15.75 -5.2 -15.6 -5.35 -15.45 -5.35 -14.95 -5.45 -14.85 -5.5 -14.75 -5.55 -14.7 -5.6 -14.6 -5.6 -14.5 -5.65 -14.45 -5.65 -14.35 -5.7 -14.25 -5.75 -14.2 -5.7 -14.15 -5.65 -14.05 -5.65 -13.9 -5.6 -13.8 -5.6 -13.55 -5.65 -13.5 -5.6 -13.45 -5.6 -13.15 -5.7 -12.95 -5.7 -12.9 -5.65 -12.85 -5.65 -12.7 -5.7 -12.6 -5.75 -12.55 -5.75 -12.5 -5.8 -12.25 -5.85 -12.2 -5.85 -12.05 -5.8 -11.95 -5.8 -11.9 -5.75 -11.85 -5.75 -11.75 -5.8 -11.65 -5.8 -11.55 -5.7 -11.35 -5.7 -11.3 -5.6 -11.15 -5.6 -11.05 -5.5 -10.8 -5.45 -10.8 Q-5.4 -10.7 -5.35 -10.6 L-5.3 -10.35 -5.15 -9.45 -5.05 -9.35 -5.05 -9.25 -4.95 -9.15 -4.8 -9.1 -4.65 -9.0 -4.5 -8.85 -4.45 -8.85 -4.45 -8.75 -4.25 -8.55 -4.25 -8.5 -4.2 -8.25 -4.2 -8.2 -4.15 -8.0 -3.95 -7.8 -3.95 -7.75 -3.4 -7.2 -3.4 -7.15 -3.35 -7.05 -3.3 -7.0 Q-2.95 -7.05 -2.7 -6.85 -2.5 -6.7 -2.4 -6.5 L-2.1 -6.35 Q-1.7 -6.15 -1.25 -6.0 L-1.15 -5.9 -1.1 -5.8 -0.95 -5.65 -0.95 -5.6 -0.85 -5.5 -0.85 -5.35 -0.8 -5.3 -0.8 -5.05 -0.85 -4.95 -0.85 -4.9 -0.75 -4.85 -0.65 -4.9 -0.3 -4.85 -0.2 -4.75 -0.15 -4.65 -0.15 -4.6 0.0 -4.5 0.05 -4.45 0.1 -4.25 M-7.35 -15.4 L-7.4 -15.4 -7.4 -15.35 -7.5 -15.3 -7.5 -15.2 -7.55 -15.15 -7.55 -15.05 -7.6 -15.0 -7.6 -14.95 -7.65 -14.9 -7.65 -14.75 -7.6 -14.7 -7.6 -14.6 -7.55 -14.5 -7.5 -14.25 Q-7.45 -14.1 -7.5 -13.95 L-7.55 -13.9 -7.65 -13.75 -7.65 -13.55 -7.75 -13.35 -7.9 -13.2 -7.9 -13.15 -7.95 -13.1 -7.95 -12.85 -8.0 -12.8 -8.0 -12.7 -7.8 -12.3 -7.8 -12.15 Q-8.0 -12.0 -8.15 -12.0 L-8.25 -11.9 -8.25 -11.75 -8.3 -11.7 -8.25 -11.65 -8.25 -11.6 -8.3 -11.5 -8.3 -11.45 -8.25 -11.4 -8.25 -11.35 -8.2 -11.3 -8.2 -10.95 -8.3 -10.85 Q-8.4 -10.8 -8.4 -10.75 L-8.35 -10.7 -8.35 -10.55 -8.3 -10.5 -8.3 -10.4 -8.25 -10.35 -8.25 -10.25 -8.15 -10.05 Q-8.1 -9.95 -8.05 -9.8 L-8.1 -9.75 -8.15 -9.6 -8.2 -9.55 -8.2 -9.5 -8.15 -9.45 -8.15 -9.4 -8.05 -9.3 -8.05 -9.25 -8.0 -9.2 -8.0 -9.15 -7.8 -8.9 -7.7 -8.7 -7.65 -8.65 -7.65 -8.6 -7.55 -8.5 -7.55 -8.35 -7.6 -8.2 -7.8 -8.1 -7.85 -8.1 -7.9 -8.0 -7.9 -7.95 -7.85 -7.9 -7.85 -7.8 -7.75 -7.7 -7.75 -7.75 -7.6 -7.85 -7.4 -7.95 -7.4 -8.0 -7.45 -8.05 -7.45 -8.1 -7.4 -8.15 -7.65 -8.7 Q-7.75 -8.95 -7.8 -9.2 L-7.75 -9.3 -7.75 -9.5 -7.65 -9.6 -7.65 -9.65 -7.6 -9.7 -7.5 -9.7 -7.3 -9.6 -6.85 -9.15 -6.85 -9.1 -6.75 -9.0 -6.75 -8.85 -6.65 -8.5 -6.6 -8.3 -6.45 -8.15 -6.2 -8.0 Q-6.1 -7.95 -6.05 -7.8 L-6.0 -7.7 -6.0 -7.5 -5.95 -7.35 -5.9 -7.3 -5.9 -7.2 -5.85 -7.15 -5.85 -7.1 -5.75 -7.0 -5.55 -6.95 -5.4 -6.85 -5.3 -6.7 -5.2 -6.6 -5.2 -6.55 -5.15 -6.2 -5.15 -6.0 -5.25 -5.8 -5.35 -5.65 -5.4 -5.6 Q-5.3 -5.5 -5.15 -5.35 L-5.15 -5.3 -5.05 -5.05 -4.95 -4.85 -4.85 -4.75 -4.55 -4.6 -4.55 -4.65 -4.5 -4.7 -4.5 -4.75 -4.4 -4.85 -4.2 -4.85 -4.15 -4.9 -3.95 -4.9 -3.9 -4.85 -3.9 -5.0 -3.95 -5.2 -3.95 -5.3 -4.0 -5.35 -4.0 -5.5 -4.05 -5.65 -4.05 -5.8 -3.95 -6.0 -3.9 -6.05 -3.9 -6.1 -3.85 -6.1 -3.75 -6.2 -3.75 -6.25 -3.6 -6.25 -3.6 -6.2 -3.55 -6.15 -3.45 -6.15 -3.35 -6.25 -3.35 -6.4 -3.3 -6.45 -3.3 -6.5 -3.25 -6.55 -3.45 -6.65 -3.55 -6.75 -3.6 -6.95 -4.4 -7.75 -4.4 -7.85 -4.5 -8.1 -4.5 -8.3 -4.55 -8.4 -4.7 -8.55 -4.7 -8.65 -4.75 -8.7 -4.95 -8.7 -4.9 -8.65 -4.95 -8.6 -4.95 -8.35 -5.0 -8.25 Q-5.05 -8.2 -5.1 -8.2 L-5.3 -8.15 -5.4 -8.05 -5.65 -8.05 -5.75 -8.1 -5.75 -8.15 -5.85 -8.3 -5.95 -8.4 -5.95 -8.45 -6.05 -8.55 -6.1 -8.65 -6.2 -8.75 -6.25 -8.85 -6.25 -9.05 -6.3 -9.1 -6.3 -9.15 -6.45 -9.35 -6.6 -9.5 -6.6 -10.05 -6.65 -10.1 -6.65 -10.5 -6.7 -10.55 -6.7 -10.65 -6.8 -10.7 -6.8 -10.75 -6.9 -10.8 -7.0 -10.9 -7.0 -11.05 -7.05 -11.1 -7.05 -11.2 -7.1 -11.25 -7.1 -11.35 -7.15 -11.6 -7.15 -11.75 -7.2 -11.8 -7.2 -11.9 -7.15 -11.95 -7.15 -12.0 -7.05 -12.1 -7.0 -12.05 -7.0 -12.4 Q-7.0 -12.5 -6.9 -12.55 L-6.8 -12.55 -6.7 -12.65 -6.7 -12.7 -6.5 -12.7 -6.4 -12.65 -6.2 -12.5 -6.2 -12.45 -6.15 -12.55 Q-6.1 -12.6 -6.1 -12.7 L-6.05 -12.9 -6.05 -13.0 -6.1 -13.05 -6.1 -13.15 -6.05 -13.2 -6.0 -13.3 -6.0 -13.75 -5.95 -13.85 -6.0 -13.9 -6.1 -14.25 -6.1 -14.45 -6.2 -14.4 Q-6.2 -14.3 -6.25 -14.25 L-6.3 -14.15 -6.4 -14.1 Q-6.6 -14.0 -6.75 -13.9 L-6.8 -13.9 -6.8 -13.8 Q-6.8 -13.7 -6.85 -13.6 L-7.0 -13.4 -7.0 -13.2 -7.1 -13.05 -7.15 -12.95 -7.35 -12.95 -7.45 -13.05 -7.45 -13.15 -7.5 -13.2 -7.55 -13.35 -7.55 -13.6 -7.45 -13.7 -7.45 -13.75 -7.4 -13.9 -7.4 -14.0 -7.45 -14.05 -7.45 -14.2 -7.25 -14.4 Q-7.1 -14.4 -7.0 -14.55 L-7.0 -14.6 -6.95 -14.75 -6.95 -14.9 -7.05 -14.9 -7.05 -14.75 -7.15 -14.7 -7.25 -14.75 -7.3 -14.75 -7.35 -14.95 -7.4 -15.05 -7.4 -15.1 -7.45 -15.15 -7.45 -15.25 -7.4 -15.3 -7.4 -15.35 -7.35 -15.4 M-5.7 -17.05 L-5.75 -17.0 -5.85 -16.95 Q-6.05 -16.8 -6.25 -16.7 L-6.2 -16.7 -6.05 -16.55 -6.05 -16.5 -5.95 -16.45 -5.9 -16.4 -5.9 -16.35 -5.85 -16.2 -5.85 -15.8 Q-5.85 -15.7 -5.9 -15.65 L-5.95 -15.55 -6.05 -15.5 -6.05 -15.45 -6.1 -15.35 -6.05 -15.15 -6.0 -15.0 -6.1 -14.9 -6.05 -14.85 -6.05 -14.75 -6.0 -14.65 -5.95 -14.65 -5.95 -14.7 -5.9 -14.8 -5.9 -14.9 -5.85 -14.95 -5.85 -15.05 -5.75 -15.15 -5.7 -15.15 -5.7 -15.4 -5.75 -15.45 -5.75 -15.5 -5.8 -15.6 -5.8 -15.75 -5.7 -15.85 -5.65 -15.95 -5.65 -16.2 -5.6 -16.25 -5.6 -16.45 -5.5 -16.55 -5.5 -16.6 -5.7 -16.9 -5.7 -17.05" fill="#3f5923" fill-rule="evenodd" stroke="none"/>
      <path d="M-5.7 -17.05 L-5.7 -16.9 -5.5 -16.6 -5.5 -16.55 -5.6 -16.45 -5.6 -16.25 -5.65 -16.2 -5.65 -15.95 -5.7 -15.85 -5.8 -15.75 -5.8 -15.6 -5.75 -15.5 -5.75 -15.45 -5.7 -15.4 -5.7 -15.15 -5.75 -15.15 -5.85 -15.05 -5.85 -14.95 -5.9 -14.9 -5.9 -14.8 -5.95 -14.7 -5.95 -14.65 -6.0 -14.65 -6.05 -14.75 -6.05 -14.85 -6.1 -14.9 -6.0 -15.0 -6.05 -15.15 -6.1 -15.35 -6.05 -15.45 -6.05 -15.5 -5.95 -15.55 -5.9 -15.65 Q-5.85 -15.7 -5.85 -15.8 L-5.85 -16.2 -5.9 -16.35 -5.9 -16.4 -5.95 -16.45 -6.05 -16.5 -6.05 -16.55 -6.2 -16.7 -6.25 -16.7 Q-6.05 -16.8 -5.85 -16.95 L-5.75 -17.0 -5.7 -17.05 M-7.35 -15.4 L-7.4 -15.35 -7.4 -15.3 -7.45 -15.25 -7.45 -15.15 -7.4 -15.1 -7.4 -15.05 -7.35 -14.95 -7.3 -14.75 -7.25 -14.75 -7.15 -14.7 -7.05 -14.75 -7.05 -14.9 -6.95 -14.9 -6.95 -14.75 -7.0 -14.6 -7.0 -14.55 Q-7.1 -14.4 -7.25 -14.4 L-7.45 -14.2 -7.45 -14.05 -7.4 -14.0 -7.4 -13.9 -7.45 -13.75 -7.45 -13.7 -7.55 -13.6 -7.55 -13.35 -7.5 -13.2 -7.45 -13.15 -7.45 -13.05 -7.35 -12.95 -7.15 -12.95 -7.1 -13.05 -7.0 -13.2 -7.0 -13.4 -6.85 -13.6 Q-6.8 -13.7 -6.8 -13.8 L-6.8 -13.9 -6.75 -13.9 Q-6.6 -14.0 -6.4 -14.1 L-6.3 -14.15 -6.25 -14.25 Q-6.2 -14.3 -6.2 -14.4 L-6.1 -14.45 -6.1 -14.25 -6.0 -13.9 -5.95 -13.85 -6.0 -13.75 -6.0 -13.3 -6.05 -13.2 -6.1 -13.15 -6.1 -13.05 -6.05 -13.0 -6.05 -12.9 -6.1 -12.7 Q-6.1 -12.6 -6.15 -12.55 L-6.2 -12.45 -6.2 -12.5 -6.4 -12.65 -6.5 -12.7 -6.7 -12.7 -6.7 -12.65 -6.8 -12.55 -6.9 -12.55 Q-7.0 -12.5 -7.0 -12.4 L-7.0 -12.05 -7.05 -12.1 -7.15 -12.0 -7.15 -11.95 -7.2 -11.9 -7.2 -11.8 -7.15 -11.75 -7.15 -11.6 -7.1 -11.35 -7.1 -11.25 -7.05 -11.2 -7.05 -11.1 -7.0 -11.05 -7.0 -10.9 -6.9 -10.8 -6.8 -10.75 -6.8 -10.7 -6.7 -10.65 -6.7 -10.55 -6.65 -10.5 -6.65 -10.1 -6.6 -10.05 -6.6 -9.5 -6.45 -9.35 -6.3 -9.15 -6.3 -9.1 -6.25 -9.05 -6.25 -8.85 -6.2 -8.75 -6.1 -8.65 -6.05 -8.55 -5.95 -8.45 -5.95 -8.4 -5.85 -8.3 -5.75 -8.15 -5.75 -8.1 -5.65 -8.05 -5.4 -8.05 -5.3 -8.15 -5.1 -8.2 Q-5.05 -8.2 -5.0 -8.25 L-4.95 -8.35 -4.95 -8.6 -4.9 -8.65 -4.95 -8.7 -4.75 -8.7 -4.7 -8.65 -4.7 -8.55 -4.55 -8.4 -4.5 -8.3 -4.5 -8.1 -4.4 -7.85 -4.4 -7.75 -3.6 -6.95 -3.55 -6.75 -3.45 -6.65 -3.25 -6.55 -3.3 -6.5 -3.3 -6.45 -3.35 -6.4 -3.35 -6.25 -3.45 -6.15 -3.55 -6.15 -3.6 -6.2 -3.6 -6.25 -3.75 -6.25 -3.75 -6.2 -3.85 -6.1 -3.9 -6.1 -3.9 -6.05 -3.95 -6.0 -4.05 -5.8 -4.05 -5.65 -4.0 -5.5 -4.0 -5.35 -3.95 -5.3 -3.95 -5.2 -3.9 -5.0 -3.9 -4.85 -3.95 -4.9 -4.15 -4.9 -4.2 -4.85 -4.4 -4.85 -4.5 -4.75 -4.5 -4.7 -4.55 -4.65 -4.55 -4.6 -4.85 -4.75 -4.95 -4.85 -5.05 -5.05 -5.15 -5.3 -5.15 -5.35 Q-5.3 -5.5 -5.4 -5.6 L-5.35 -5.65 -5.25 -5.8 -5.15 -6.0 -5.15 -6.2 -5.2 -6.55 -5.2 -6.6 -5.3 -6.7 -5.4 -6.85 -5.55 -6.95 -5.75 -7.0 -5.85 -7.1 -5.85 -7.15 -5.9 -7.2 -5.9 -7.3 -5.95 -7.35 -6.0 -7.5 -6.0 -7.7 -6.05 -7.8 Q-6.1 -7.95 -6.2 -8.0 L-6.45 -8.15 -6.6 -8.3 -6.65 -8.5 -6.75 -8.85 -6.75 -9.0 -6.85 -9.1 -6.85 -9.15 -7.3 -9.6 -7.5 -9.7 -7.6 -9.7 -7.65 -9.65 -7.65 -9.6 -7.75 -9.5 -7.75 -9.3 -7.8 -9.2 Q-7.75 -8.95 -7.65 -8.7 L-7.4 -8.15 -7.45 -8.1 -7.45 -8.05 -7.4 -8.0 -7.4 -7.95 -7.6 -7.85 -7.75 -7.75 -7.75 -7.7 -7.85 -7.8 -7.85 -7.9 -7.9 -7.95 -7.9 -8.0 -7.85 -8.1 -7.8 -8.1 -7.6 -8.2 -7.55 -8.35 -7.55 -8.5 -7.65 -8.6 -7.65 -8.65 -7.7 -8.7 -7.8 -8.9 -8.0 -9.15 -8.0 -9.2 -8.05 -9.25 -8.05 -9.3 -8.15 -9.4 -8.15 -9.45 -8.2 -9.5 -8.2 -9.55 -8.15 -9.6 -8.1 -9.75 -8.05 -9.8 Q-8.1 -9.95 -8.15 -10.05 L-8.25 -10.25 -8.25 -10.35 -8.3 -10.4 -8.3 -10.5 -8.35 -10.55 -8.35 -10.7 -8.4 -10.75 Q-8.4 -10.8 -8.3 -10.85 L-8.2 -10.95 -8.2 -11.3 -8.25 -11.35 -8.25 -11.4 -8.3 -11.45 -8.3 -11.5 -8.25 -11.6 -8.25 -11.65 -8.3 -11.7 -8.25 -11.75 -8.25 -11.9 -8.15 -12.0 Q-8.0 -12.0 -7.8 -12.15 L-7.8 -12.3 -8.0 -12.7 -8.0 -12.8 -7.95 -12.85 -7.95 -13.1 -7.9 -13.15 -7.9 -13.2 -7.75 -13.35 -7.65 -13.55 -7.65 -13.75 -7.55 -13.9 -7.5 -13.95 Q-7.45 -14.1 -7.5 -14.25 L-7.55 -14.5 -7.6 -14.6 -7.6 -14.7 -7.65 -14.75 -7.65 -14.9 -7.6 -14.95 -7.6 -15.0 -7.55 -15.05 -7.55 -15.15 -7.5 -15.2 -7.5 -15.3 -7.4 -15.35 -7.4 -15.4 -7.35 -15.4" fill="#52732e" fill-rule="evenodd" stroke="none"/>
    </g>
    <g id="shape2" transform="matrix(1.0, 0.0, 0.0, 1.0, 7.5, 18.15)">
      <path d="M-6.9 -15.2 L-6.95 -15.2 -7.0 -15.25 -6.85 -15.55 -6.8 -15.6 -6.7 -15.6 -6.6 -15.5 -6.6 -15.4 -6.7 -15.35 -6.7 -15.3 -6.75 -15.25 -6.75 -15.2 -6.8 -15.15 -6.9 -15.2 M-5.65 -16.3 L-5.6 -16.3 -5.6 -16.25 -5.55 -16.25 -5.55 -16.2 -5.6 -16.05 -5.6 -15.95 -5.7 -15.85 -5.7 -15.8 -5.75 -15.75 -5.75 -15.7 -5.8 -15.65 -5.8 -15.6 -5.85 -15.55 -5.85 -15.5 -5.9 -15.35 -5.95 -15.25 -6.05 -15.2 -6.1 -15.2 -6.15 -15.25 -6.15 -15.3 Q-6.2 -15.4 -6.15 -15.5 L-6.05 -15.7 -5.95 -15.75 Q-5.85 -15.75 -5.8 -15.8 L-5.85 -15.85 -5.8 -15.9 -5.8 -16.1 -5.75 -16.15 -5.65 -16.3 M-5.55 -17.95 L-5.55 -17.75 -5.7 -17.75 -5.8 -17.8 -5.8 -17.9 -5.85 -18.0 -5.85 -18.05 -5.75 -18.15 -5.65 -18.1 -5.55 -18.0 -5.55 -17.95 M0.0 -1.8 L0.0 -1.75 0.1 -1.15 0.1 -1.05 0.2 -0.85 0.35 -0.75 0.5 -0.55 0.5 -0.5 0.6 -0.1 Q0.65 0.05 0.6 0.2 L0.5 0.3 0.4 0.25 Q-0.2 0.25 -0.8 0.45 L-0.8 0.5 -0.95 0.6 Q-1.4 0.65 -1.7 0.35 L-1.75 0.3 -1.75 -0.6 -1.7 -0.75 -1.65 -0.85 -1.6 -0.9 Q-1.5 -0.9 -1.4 -1.0 L-1.4 -1.2 Q-1.55 -1.35 -1.75 -1.4 L-1.8 -1.45 -1.8 -1.5 -1.9 -1.7 Q-2.0 -1.75 -2.1 -1.9 L-2.1 -2.1 -2.05 -2.15 -2.05 -2.35 -2.15 -2.45 -2.2 -2.45 -2.35 -2.6 -2.6 -3.05 -2.6 -3.1 -2.65 -3.15 -2.65 -3.2 -2.75 -3.5 -3.0 -4.0 -3.05 -4.15 -3.05 -4.2 -3.15 -4.25 -3.4 -4.3 -3.5 -4.4 -3.85 -4.5 -3.95 -4.55 Q-4.15 -4.8 -4.35 -5.05 L-4.35 -5.15 -4.5 -5.3 -4.55 -5.4 -4.6 -5.4 Q-4.7 -5.4 -4.75 -5.5 L-4.75 -5.6 -4.8 -5.65 -4.85 -5.75 -4.85 -5.85 -5.0 -6.0 -5.7 -6.25 -5.75 -6.3 Q-5.9 -6.4 -6.0 -6.6 L-6.0 -6.8 -6.1 -6.9 -6.1 -7.0 -6.15 -7.15 -6.25 -7.25 -6.35 -7.4 -6.35 -7.5 -6.4 -7.55 -6.45 -7.65 -6.6 -7.9 -6.95 -8.1 -7.0 -8.2 -7.15 -8.4 -7.2 -8.5 -7.2 -8.85 -7.15 -8.95 -7.15 -9.0 -7.2 -9.1 -7.2 -9.15 -7.25 -9.2 -7.3 -9.35 -7.3 -9.7 -7.2 -9.9 -7.2 -10.35 -7.15 -10.4 -7.15 -10.55 -7.3 -10.75 -7.4 -10.95 -7.4 -11.0 -7.45 -11.25 -7.5 -11.55 -7.4 -11.75 -7.4 -11.8 -7.35 -11.85 -7.35 -11.9 -7.3 -11.95 -7.3 -12.05 -7.25 -12.15 -7.15 -12.25 -7.15 -12.35 -7.2 -12.55 -7.2 -12.65 -7.15 -12.75 -7.15 -12.85 -6.95 -13.05 -6.95 -13.3 -6.9 -13.35 -6.85 -13.5 -6.75 -13.7 -6.75 -13.85 -6.65 -13.95 -6.55 -14.1 -6.5 -14.1 Q-6.45 -13.95 -6.5 -13.95 L-6.55 -13.85 -6.6 -13.8 -6.6 -13.65 -6.55 -13.55 -6.55 -13.45 -6.6 -13.4 -6.6 -13.3 -6.7 -13.2 -6.7 -12.9 -6.75 -12.75 -6.75 -12.65 -6.85 -12.6 -6.85 -12.25 -6.9 -12.2 -6.9 -12.1 -6.85 -12.0 -6.8 -11.95 -6.8 -11.8 Q-6.75 -11.7 -6.8 -11.65 L-6.8 -11.2 -6.85 -11.1 -6.85 -11.0 -6.9 -10.95 -6.85 -10.8 -6.85 -10.75 -6.8 -10.65 -6.8 -10.4 -6.75 -10.2 -6.6 -10.0 -6.6 -9.9 -6.55 -9.8 -6.5 -9.75 -6.5 -9.6 -6.45 -9.5 -6.45 -9.45 -6.4 -9.4 -6.4 -9.35 -6.35 -9.3 -6.35 -9.25 -6.25 -9.15 -6.25 -9.05 -6.2 -9.0 -6.2 -8.95 -6.15 -8.9 -6.05 -8.5 -6.05 -8.45 -6.0 -8.4 -6.0 -8.3 -5.95 -8.25 -5.95 -8.2 -5.9 -8.15 -5.9 -8.1 -5.85 -8.0 -5.85 -7.9 -5.65 -7.7 -5.65 -7.65 -5.6 -7.6 -5.6 -7.5 -5.55 -7.45 -5.5 -7.45 -5.3 -7.35 -5.25 -7.3 -5.25 -7.25 -5.15 -7.15 -5.15 -7.0 -5.05 -6.85 -4.9 -6.7 -4.9 -6.65 -4.85 -6.6 -4.85 -6.55 -4.7 -6.4 -4.6 -6.35 -4.45 -6.2 -4.1 -5.9 -4.05 -5.85 -3.95 -5.8 -3.75 -5.8 -3.75 -5.85 -3.65 -5.9 -3.45 -5.85 Q-3.3 -5.8 -3.15 -5.65 L-3.15 -5.4 -3.1 -5.3 -3.0 -5.2 -2.6 -4.75 -2.5 -4.75 -2.25 -4.7 Q-2.0 -4.7 -1.85 -4.45 L-1.85 -4.15 -1.75 -3.95 -1.6 -3.8 -1.5 -3.8 Q-1.05 -3.85 -0.8 -3.4 L-0.8 -3.15 -0.75 -3.1 -0.75 -3.05 -0.7 -3.0 -0.7 -2.85 -0.6 -2.7 -0.5 -2.5 -0.5 -2.35 -0.45 -2.25 -0.25 -2.05 Q-0.1 -2.0 0.0 -1.8" fill="#384e1e" fill-rule="evenodd" stroke="none"/>
    </g>
    <g id="shape3" transform="matrix(1.0, 0.0, 0.0, 1.0, 13.25, 29.85)">
      <path d="M1.25 -29.25 L1.5 -29.25 1.55 -29.2 1.65 -29.2 Q1.7 -29.15 1.75 -29.15 L1.85 -29.15 1.95 -29.2 2.1 -29.3 2.15 -29.35 2.2 -29.35 2.3 -29.4 2.35 -29.45 2.45 -29.6 2.55 -29.7 2.65 -29.7 2.8 -29.65 2.9 -29.6 3.7 -29.65 4.1 -29.85 4.3 -29.85 4.4 -29.8 4.55 -29.75 4.6 -29.7 4.8 -29.7 4.9 -29.65 5.0 -29.65 5.1 -29.7 5.15 -29.75 5.2 -29.75 5.45 -29.8 5.55 -29.75 5.7 -29.6 5.7 -29.55 5.9 -29.45 6.1 -29.3 6.65 -29.3 6.95 -29.2 7.2 -29.2 7.3 -29.25 7.6 -29.15 7.95 -29.05 8.05 -28.95 8.05 -28.75 8.1 -28.75 Q8.15 -28.7 8.25 -28.65 L8.7 -28.65 8.9 -28.55 8.9 -28.45 9.15 -28.2 9.2 -28.05 9.25 -27.95 9.25 -27.85 9.4 -27.7 9.4 -27.3 9.55 -27.2 9.75 -27.1 9.9 -26.95 10.0 -26.8 10.0 -26.75 10.1 -26.55 10.1 -26.2 10.15 -26.1 10.15 -26.05 10.2 -26.0 10.2 -25.7 10.15 -25.6 10.2 -25.6 Q10.1 -25.5 10.15 -25.4 L10.25 -25.15 10.25 -24.95 10.2 -24.9 10.2 -24.75 10.3 -24.7 10.4 -24.6 10.4 -24.5 10.45 -24.4 10.45 -24.35 10.55 -24.3 10.55 -24.15 10.6 -24.0 10.65 -23.9 10.65 -23.8 10.6 -23.7 10.6 -23.55 10.65 -23.4 10.65 -23.25 10.6 -23.2 10.55 -23.05 10.45 -22.95 10.45 -22.7 10.5 -22.65 10.5 -22.35 10.45 -22.3 10.45 -22.25 10.5 -22.2 10.5 -21.8 10.55 -21.7 10.6 -21.65 10.65 -21.55 10.65 -20.8 Q10.6 -20.7 10.5 -20.6 L10.3 -20.45 10.3 -20.15 10.35 -20.1 10.35 -19.85 10.3 -19.75 10.3 -19.35 10.2 -19.1 Q10.1 -18.85 9.95 -18.7 L9.9 -18.7 9.8 -18.65 9.8 -17.85 9.75 -17.7 9.55 -17.5 9.5 -17.4 9.5 -17.3 9.1 -16.9 8.85 -16.8 8.7 -16.7 8.7 -16.25 8.65 -16.15 Q8.6 -16.1 8.55 -16.1 8.35 -16.05 8.45 -15.9 L8.45 -15.75 8.35 -15.6 8.15 -15.45 8.15 -15.2 8.0 -15.05 7.9 -15.0 7.9 -14.75 7.8 -14.65 7.7 -14.6 7.7 -14.55 7.3 -14.15 7.15 -14.1 7.1 -14.05 7.1 -14.0 7.0 -13.95 6.5 -13.95 6.4 -14.0 6.3 -13.95 6.05 -13.8 5.95 -13.75 5.8 -13.6 5.5 -13.45 5.3 -13.4 4.65 -13.35 4.5 -13.2 4.45 -13.05 4.35 -13.05 4.35 -13.0 4.3 -13.0 Q3.95 -12.85 3.65 -13.05 L3.6 -13.05 3.5 -12.95 3.4 -12.9 3.15 -12.85 3.1 -12.8 3.0 -12.75 3.0 -12.45 2.9 -12.35 Q2.45 -12.35 2.05 -12.2 L1.95 -12.1 1.65 -12.0 1.4 -11.9 1.4 -11.85 1.3 -11.75 1.3 -11.7 1.25 -11.6 1.05 -11.4 1.05 -11.35 0.8 -11.1 Q0.45 -11.1 0.25 -10.95 L0.15 -10.9 0.1 -10.8 0.1 -10.75 0.0 -10.7 -0.15 -10.55 -0.9 -10.4 -0.95 -10.3 -1.05 -10.2 -1.05 -10.05 -1.15 -10.0 -1.2 -9.95 -1.45 -9.85 -1.6 -9.8 -1.65 -9.7 -1.75 -9.55 -1.75 -9.5 -1.8 -9.45 -1.9 -9.3 -1.95 -9.25 -1.95 -8.9 -2.0 -8.85 -2.0 -8.8 -2.1 -8.75 -2.1 -8.35 -2.25 -8.15 -2.3 -8.1 -2.45 -8.0 -2.5 -7.95 -2.7 -7.9 -2.75 -7.8 -2.8 -7.65 -2.85 -7.55 -2.85 -7.5 -2.75 -7.3 -2.6 -7.15 Q-2.55 -7.05 -2.55 -6.95 L-2.6 -6.9 -2.55 -6.85 -2.55 -6.6 -2.45 -6.5 -2.45 -6.35 -2.55 -6.1 Q-2.55 -5.95 -2.65 -5.85 L-2.75 -5.7 -3.0 -5.45 -3.1 -5.4 -3.1 -5.35 -3.0 -5.2 -2.9 -5.1 -2.9 -5.05 -2.85 -5.0 -2.85 -4.85 -2.65 -4.65 -2.65 -3.15 Q-2.55 -3.05 -2.45 -3.0 L-2.25 -2.9 -2.2 -2.8 -2.2 -2.75 -2.15 -2.7 -2.15 -2.6 -2.2 -2.55 -2.2 -2.4 -2.0 -2.2 -2.0 -2.1 Q-1.85 -2.0 -1.7 -1.9 L-1.55 -1.8 -1.5 -1.85 -1.4 -1.9 -1.35 -1.9 -1.3 -1.85 -1.15 -1.8 Q-0.8 -1.95 -0.4 -1.85 L-0.2 -1.75 -0.2 -1.7 -0.1 -1.5 -0.1 -1.0 Q-0.05 -0.85 0.15 -0.85 L0.35 -0.8 0.4 -0.75 0.5 -0.75 0.6 -0.85 1.05 -0.85 1.1 -0.9 1.1 -1.0 1.15 -1.05 1.25 -1.2 1.35 -1.3 1.55 -1.35 1.85 -1.4 2.0 -1.4 2.1 -1.45 Q2.3 -1.45 2.5 -1.35 L2.55 -1.35 2.6 -1.25 2.6 -1.0 2.75 -0.85 2.75 -0.8 3.2 -0.8 3.3 -0.75 3.4 -0.65 3.4 -0.6 3.45 -0.5 3.5 -0.45 3.65 -0.45 3.75 -0.4 3.8 -0.3 3.85 -0.25 3.85 -0.15 3.9 -0.05 3.75 0.1 3.35 0.1 3.25 0.05 2.85 0.0 2.8 0.0 2.45 0.05 2.35 0.15 2.25 0.15 2.05 0.2 1.95 0.25 1.85 0.35 1.8 0.35 Q1.7 0.35 1.65 0.4 L1.65 0.45 0.55 0.45 -0.25 0.35 -0.4 0.25 -0.45 0.2 Q-0.55 0.15 -0.7 0.1 L-0.95 0.05 -1.1 0.0 -1.15 -0.05 -2.15 -0.1 -2.2 -0.1 -2.8 -0.15 Q-3.3 -0.45 -3.75 -0.35 -4.3 -0.2 -4.85 -0.25 L-4.85 -0.2 -6.7 0.05 -6.85 0.1 -7.1 0.15 -7.3 0.15 -8.85 0.05 -8.95 -0.05 -9.1 -0.25 -9.1 -1.05 -9.05 -1.1 -8.95 -1.15 -8.9 -1.2 -8.9 -1.25 -8.85 -1.3 -8.85 -1.5 -8.65 -1.7 -8.4 -1.7 -8.3 -1.75 -8.15 -1.9 -7.7 -1.95 -7.55 -1.95 -7.45 -1.9 -7.15 -1.85 Q-7.0 -1.85 -6.95 -1.95 L-6.95 -2.0 -7.0 -2.1 -7.0 -2.3 -7.05 -2.4 -7.05 -2.8 -7.0 -2.85 -7.0 -2.9 -7.1 -3.0 -7.1 -3.55 -7.05 -3.6 -7.05 -3.65 -7.25 -3.65 -7.45 -3.75 -7.5 -3.8 -7.5 -3.85 -7.55 -3.85 -7.75 -3.9 -7.8 -4.0 -7.85 -4.05 -7.85 -4.45 -8.05 -4.55 -8.1 -4.6 -8.1 -5.0 Q-8.05 -5.05 -8.05 -5.1 L-8.05 -5.25 -8.1 -5.3 -8.05 -5.35 -8.05 -5.4 -8.0 -5.45 -8.0 -5.6 -7.9 -5.7 -7.9 -6.0 -7.85 -6.1 -7.85 -6.15 -7.9 -6.25 -7.9 -6.3 -7.85 -6.4 -7.8 -6.6 -7.75 -6.65 -7.95 -6.75 -8.0 -6.8 -8.1 -6.85 -8.1 -6.95 -8.15 -7.0 -8.15 -7.1 -8.2 -7.15 -8.2 -7.35 -8.1 -7.65 -7.95 -8.0 -7.9 -8.05 -7.8 -8.1 -7.8 -8.15 -7.75 -8.2 -7.75 -8.9 -7.7 -8.95 -7.65 -9.05 -7.6 -9.1 -7.6 -9.15 -7.5 -9.25 -7.3 -9.35 -7.3 -9.5 -7.25 -9.55 -7.25 -9.65 -7.2 -9.7 -7.2 -9.85 -7.1 -10.05 -7.1 -10.1 -7.05 -10.2 -7.0 -10.25 -6.85 -10.55 -6.7 -10.9 -6.65 -11.0 -6.6 -11.05 Q-6.25 -11.25 -5.85 -11.3 L-5.8 -11.35 -5.8 -11.45 -5.7 -11.55 -5.6 -11.6 -5.5 -11.7 -5.45 -11.7 -5.3 -11.8 -5.05 -11.85 -5.05 -12.15 -5.0 -12.2 -4.9 -12.25 -4.75 -12.35 Q-4.7 -12.35 -4.7 -12.4 L-4.55 -12.55 -4.45 -12.6 -4.3 -12.55 -4.15 -12.55 -3.95 -12.65 -3.75 -12.65 -3.65 -12.6 -3.55 -12.6 -3.5 -12.7 -3.45 -12.75 -3.45 -12.8 -3.3 -12.95 -3.3 -13.0 -3.25 -13.1 -3.15 -13.15 -3.15 -13.5 -3.1 -13.55 -3.0 -13.6 -2.95 -13.65 -2.35 -13.7 -2.15 -13.6 -2.0 -13.6 -1.95 -13.65 -1.45 -13.85 -1.3 -13.9 -1.05 -14.15 -0.9 -14.35 -0.6 -14.45 -0.55 -14.5 -0.05 -14.5 0.05 -14.6 0.1 -14.7 0.25 -14.8 Q0.3 -14.85 0.35 -14.9 L0.55 -15.1 0.95 -15.15 1.05 -15.2 1.15 -15.3 Q1.3 -15.35 1.4 -15.4 L1.5 -15.45 1.65 -15.45 1.7 -15.55 1.75 -15.55 1.8 -15.6 1.95 -15.6 2.05 -15.7 2.05 -15.95 2.2 -16.1 2.35 -16.15 2.55 -16.15 2.65 -16.1 2.8 -16.05 2.95 -15.95 3.1 -16.0 3.35 -16.05 3.5 -16.2 3.6 -16.35 3.65 -16.4 3.65 -16.55 3.75 -16.65 3.85 -16.7 3.85 -16.75 4.05 -16.85 4.1 -16.85 4.2 -16.8 4.35 -16.8 4.45 -16.85 4.55 -16.85 4.55 -17.1 4.6 -17.15 4.75 -17.35 4.95 -17.5 5.05 -17.55 5.35 -17.55 5.6 -17.65 5.65 -17.7 5.65 -17.75 5.9 -18.0 5.95 -18.1 6.0 -18.25 6.15 -18.4 6.25 -18.65 6.4 -18.8 6.45 -18.9 6.5 -18.95 6.65 -19.25 6.7 -19.25 6.95 -19.35 7.0 -19.4 7.1 -19.45 7.15 -19.55 7.2 -19.7 7.2 -19.85 7.15 -19.9 7.15 -20.45 7.1 -20.6 7.15 -20.65 7.2 -20.75 7.25 -20.8 7.25 -20.85 7.3 -20.9 7.3 -20.95 7.35 -21.0 7.45 -21.05 7.55 -21.0 7.65 -21.05 7.75 -21.15 7.75 -21.25 7.85 -21.35 7.85 -21.65 7.8 -21.75 7.8 -21.9 7.85 -21.95 7.85 -22.05 7.9 -22.1 7.95 -22.2 7.95 -22.25 8.0 -22.3 8.0 -22.35 7.95 -22.45 7.95 -22.5 7.9 -22.5 7.9 -22.55 7.65 -22.65 7.55 -22.7 7.55 -23.2 7.65 -23.3 7.7 -23.3 7.75 -23.4 7.75 -23.5 7.85 -23.6 7.85 -23.95 7.9 -24.0 7.9 -24.35 7.85 -24.45 7.8 -24.5 7.8 -24.55 7.65 -24.7 7.65 -24.75 7.6 -24.85 7.5 -24.95 7.5 -25.25 7.45 -25.3 7.45 -25.35 7.4 -25.4 7.4 -25.55 7.45 -25.6 7.45 -25.65 7.35 -25.75 7.25 -25.9 7.15 -26.0 7.15 -26.05 7.1 -26.1 7.05 -26.2 7.0 -26.25 7.0 -27.0 6.9 -27.1 6.9 -27.15 6.85 -27.2 6.75 -27.25 6.65 -27.35 6.65 -27.4 6.6 -27.45 6.5 -27.5 6.4 -27.6 Q6.3 -27.6 6.2 -27.65 6.0 -27.8 5.75 -27.85 L5.6 -27.9 5.55 -27.95 5.45 -28.0 5.4 -28.05 5.15 -28.0 5.1 -27.95 4.75 -27.9 4.7 -27.9 4.6 -27.95 4.45 -28.0 4.45 -28.05 4.4 -28.1 4.2 -28.15 3.85 -28.15 3.8 -28.1 3.7 -28.05 3.65 -28.0 3.6 -28.0 3.05 -27.95 2.95 -28.0 2.8 -28.0 2.7 -27.9 2.65 -27.9 2.5 -27.8 2.15 -27.85 1.85 -27.9 1.8 -27.9 1.65 -27.8 1.5 -27.75 1.55 -27.65 1.4 -27.5 1.3 -27.5 1.2 -27.35 1.1 -27.25 1.1 -27.05 1.0 -26.95 1.0 -26.9 0.95 -26.8 0.85 -26.7 0.55 -26.65 0.5 -26.6 0.4 -26.35 0.25 -26.15 0.2 -26.0 0.2 -25.95 0.25 -25.85 0.25 -25.75 0.2 -25.7 0.1 -25.45 0.05 -25.25 0.0 -25.1 0.0 -24.9 -0.05 -24.8 -0.05 -24.7 -0.1 -24.6 -0.1 -24.55 -0.2 -24.45 -0.2 -24.0 Q-0.15 -23.9 -0.25 -23.8 L-0.25 -23.7 -0.2 -23.6 -0.2 -23.55 -0.15 -23.55 -0.05 -23.5 0.1 -23.35 0.1 -23.3 0.25 -23.05 0.35 -22.9 0.4 -22.8 0.9 -22.6 2.0 -22.6 2.05 -22.65 2.2 -22.75 2.25 -22.85 2.3 -22.9 2.3 -23.0 2.35 -23.05 2.45 -23.2 2.55 -23.3 2.55 -23.4 2.5 -23.45 2.45 -23.55 2.45 -23.75 2.2 -24.0 2.2 -24.05 2.15 -24.05 2.05 -24.1 2.0 -24.15 1.85 -24.15 1.85 -24.2 1.8 -24.15 1.6 -24.05 1.5 -23.95 1.45 -23.95 1.45 -23.9 1.4 -23.85 1.3 -23.8 1.2 -23.8 1.2 -24.25 1.3 -24.3 1.3 -24.35 1.45 -24.5 1.5 -24.6 1.5 -24.65 1.65 -24.7 1.95 -24.7 2.0 -24.75 2.5 -24.75 2.55 -24.7 2.65 -24.55 3.05 -24.35 3.05 -24.3 3.1 -24.25 3.2 -24.2 3.25 -24.15 3.3 -24.0 3.35 -23.9 3.35 -23.55 3.4 -23.5 3.4 -23.45 3.45 -23.35 3.45 -23.3 3.4 -23.2 3.4 -23.15 3.35 -23.1 3.35 -22.9 3.3 -22.85 3.3 -22.65 3.2 -22.45 3.1 -22.35 3.05 -22.25 2.95 -22.1 2.85 -21.9 2.75 -21.8 Q2.55 -21.65 2.35 -21.65 L1.9 -21.55 1.8 -21.45 1.5 -21.35 1.3 -21.35 1.2 -21.4 1.1 -21.5 0.95 -21.55 0.9 -21.65 Q0.7 -21.7 0.55 -21.75 L0.35 -21.85 0.3 -21.9 0.3 -22.0 0.25 -22.05 -0.2 -22.1 -0.35 -22.25 -0.35 -22.3 -0.4 -22.35 -0.4 -22.4 -0.45 -22.45 -0.45 -22.5 -0.8 -22.55 -1.15 -22.9 -1.25 -22.95 -1.25 -23.25 -1.15 -23.35 -1.0 -23.45 -1.35 -23.45 -1.4 -23.55 -1.6 -23.75 -1.6 -24.05 -1.65 -24.1 -1.7 -24.25 -1.75 -24.35 -1.75 -25.05 -1.65 -25.1 -1.65 -25.2 -1.6 -25.3 -1.55 -25.35 -1.55 -25.55 -1.5 -25.65 -1.4 -25.7 -1.35 -25.75 -1.2 -26.05 -1.1 -26.35 -1.0 -26.55 -0.75 -26.8 -0.75 -27.25 -0.7 -27.35 -0.7 -27.4 -0.45 -27.65 Q-0.3 -27.75 -0.15 -27.75 L0.15 -27.75 0.15 -28.1 0.3 -28.25 0.3 -28.3 0.35 -28.35 0.35 -28.5 0.5 -28.65 0.7 -28.75 0.85 -28.9 0.95 -29.05 1.05 -29.15 1.1 -29.15 1.2 -29.2 1.25 -29.25 M5.35 -29.15 L5.35 -29.05 5.25 -28.95 5.25 -28.65 5.15 -28.55 5.1 -28.45 5.0 -28.35 4.6 -28.35 4.8 -28.25 5.0 -28.35 5.05 -28.4 5.45 -28.4 5.45 -28.75 5.55 -28.8 5.6 -28.9 5.65 -28.95 5.75 -28.95 5.7 -29.0 5.7 -29.05 5.6 -29.15 5.5 -29.15 5.45 -29.25 5.4 -29.3 5.35 -29.3 5.35 -29.15 M6.5 -28.75 L6.6 -28.8 6.75 -28.75 6.9 -28.75 6.55 -28.85 6.4 -28.9 6.3 -28.9 6.2 -28.8 6.15 -28.8 6.15 -28.7 6.25 -28.7 6.4 -28.75 6.5 -28.75 M5.95 -28.4 L5.85 -28.3 5.8 -28.3 5.75 -28.25 5.8 -28.2 5.95 -28.15 6.0 -28.1 6.25 -28.1 6.35 -28.0 6.35 -28.05 6.2 -28.1 6.15 -28.2 6.05 -28.25 6.0 -28.3 6.0 -28.4 6.05 -28.45 5.95 -28.4 M7.3 -28.75 L7.4 -28.7 Q7.55 -28.65 7.65 -28.6 L7.65 -28.65 7.6 -28.7 7.5 -28.75 7.3 -28.75 M8.7 -28.0 L8.6 -28.1 8.15 -28.15 8.25 -28.0 8.25 -27.75 8.45 -27.65 8.55 -27.55 8.55 -27.25 8.5 -27.15 8.4 -27.05 8.3 -27.05 8.35 -27.0 8.45 -26.95 8.55 -26.85 8.55 -26.7 8.5 -26.55 8.6 -26.45 8.7 -26.25 8.7 -26.2 8.75 -26.15 8.85 -26.15 Q8.8 -26.25 8.8 -26.35 L8.8 -26.5 8.85 -26.6 8.95 -26.7 9.05 -26.7 Q9.1 -26.7 9.15 -26.65 L9.25 -26.55 9.25 -26.5 9.6 -26.45 9.55 -26.5 9.55 -26.55 9.45 -26.65 9.45 -26.7 9.3 -26.75 8.95 -26.9 8.9 -26.95 8.9 -27.2 8.95 -27.3 8.95 -27.4 8.9 -27.45 8.8 -27.6 8.75 -27.65 8.75 -27.95 8.7 -28.0 M9.65 -25.75 L9.65 -25.75 M7.6 -27.05 L7.6 -27.2 7.35 -27.25 7.25 -27.3 7.25 -27.25 7.35 -27.15 7.35 -26.5 7.55 -26.3 7.55 -26.25 7.6 -26.2 7.65 -26.1 7.75 -25.95 7.8 -25.9 7.8 -25.95 7.75 -26.15 7.75 -26.3 7.7 -26.35 7.7 -26.95 7.6 -27.05 M7.95 -25.75 L8.0 -25.65 8.0 -25.5 7.95 -25.35 7.9 -25.25 7.9 -25.2 7.95 -25.15 8.05 -25.1 8.05 -24.9 8.2 -24.75 8.2 -24.7 8.25 -24.6 8.35 -24.5 8.35 -24.25 8.3 -24.2 8.3 -24.15 8.25 -24.05 8.25 -23.55 8.2 -23.5 8.2 -23.4 8.1 -23.3 8.1 -23.15 8.0 -23.05 8.0 -22.95 8.1 -22.95 8.2 -22.9 8.25 -22.85 8.25 -22.65 8.3 -22.55 8.35 -22.5 8.35 -22.3 8.3 -22.25 8.3 -22.15 8.25 -22.1 8.25 -22.0 8.15 -21.9 8.15 -21.6 8.2 -21.4 8.2 -21.15 8.15 -21.1 8.05 -20.9 8.05 -20.7 7.95 -20.6 7.85 -20.55 7.6 -20.55 7.55 -20.5 7.55 -20.45 7.5 -20.4 7.5 -20.15 7.55 -20.1 7.55 -19.95 7.6 -19.8 7.6 -19.75 7.65 -19.8 7.65 -20.05 7.8 -20.2 7.95 -20.2 Q8.2 -20.2 8.35 -20.3 L8.35 -20.95 8.4 -21.0 8.4 -21.2 8.35 -21.25 8.35 -21.3 8.3 -21.45 8.3 -21.65 Q8.3 -21.75 8.35 -21.85 L8.45 -21.95 8.55 -22.0 8.6 -22.05 8.85 -22.05 9.0 -22.0 9.15 -21.85 9.15 -21.65 9.25 -21.5 Q9.4 -21.35 9.45 -21.2 L9.4 -21.3 9.45 -21.3 9.5 -21.25 9.55 -21.15 9.55 -20.9 9.5 -20.85 9.5 -20.7 Q9.5 -20.6 9.55 -20.5 9.7 -20.3 9.65 -20.1 L9.4 -20.05 9.3 -20.05 9.2 -19.95 8.75 -19.75 8.7 -19.7 8.7 -19.65 8.85 -19.6 8.9 -19.55 8.95 -19.4 9.05 -19.25 9.1 -19.15 9.1 -19.0 9.05 -18.95 9.05 -18.9 9.15 -18.9 9.2 -19.0 9.2 -19.1 9.35 -19.25 9.5 -19.25 9.6 -19.2 9.7 -19.25 9.7 -19.6 9.75 -19.65 9.75 -19.7 9.8 -19.75 9.8 -20.7 9.9 -20.8 Q10.0 -20.95 10.15 -20.95 L10.1 -21.1 10.1 -21.25 10.15 -21.35 10.1 -21.5 Q9.85 -21.35 9.55 -21.55 L9.4 -21.65 9.35 -21.7 9.35 -21.95 9.45 -22.05 9.5 -22.15 9.55 -22.15 9.65 -22.2 9.9 -22.45 9.95 -22.45 9.95 -22.5 10.0 -22.55 Q9.95 -22.65 9.95 -22.75 L9.95 -23.2 10.1 -23.35 10.1 -23.75 10.15 -23.9 10.1 -23.95 9.95 -24.05 9.9 -24.1 9.9 -24.35 9.75 -24.5 9.75 -24.6 9.7 -24.55 9.7 -24.5 9.75 -24.45 9.75 -24.2 9.6 -23.9 9.55 -23.85 Q9.4 -23.75 9.2 -23.7 L8.95 -23.65 8.6 -23.65 8.55 -23.75 8.45 -23.85 8.45 -24.15 8.6 -24.3 8.6 -24.5 8.55 -24.5 8.5 -24.55 8.35 -24.6 8.25 -24.7 8.25 -24.8 8.2 -24.95 8.2 -25.15 8.25 -25.2 8.3 -25.3 8.35 -25.35 8.35 -25.45 8.45 -25.55 8.45 -25.6 8.35 -25.7 7.95 -25.75 M8.55 -22.95 L8.6 -23.05 8.7 -23.15 8.8 -23.2 8.85 -23.25 8.95 -23.25 8.95 -23.3 9.05 -23.25 9.15 -23.25 9.4 -23.0 9.4 -22.95 9.5 -22.9 9.65 -22.75 9.5 -22.3 9.35 -22.3 9.1 -22.25 8.95 -22.3 8.8 -22.5 8.6 -22.7 8.55 -22.85 8.55 -22.95 M1.0 -27.6 L1.0 -27.65 Q0.85 -27.55 0.65 -27.65 L0.65 -27.6 0.6 -27.55 0.5 -27.5 0.5 -27.35 0.4 -27.25 0.4 -27.15 0.45 -27.15 0.6 -27.1 0.7 -27.05 0.7 -27.15 0.8 -27.25 0.8 -27.45 0.9 -27.55 0.95 -27.55 1.0 -27.6 M2.6 -15.65 L2.45 -15.7 2.45 -15.65 2.4 -15.55 2.35 -15.4 2.35 -15.3 2.4 -15.25 Q2.35 -15.15 2.4 -15.15 L2.65 -15.2 3.1 -15.3 3.25 -15.3 3.35 -15.25 3.45 -15.25 3.7 -15.35 3.8 -15.45 3.8 -15.5 3.7 -15.55 3.6 -15.65 3.6 -15.75 3.55 -15.65 3.5 -15.65 3.25 -15.55 3.15 -15.5 3.1 -15.45 2.9 -15.45 2.75 -15.5 2.6 -15.65 M5.6 -16.95 L6.0 -16.9 6.1 -16.85 6.15 -16.8 6.15 -16.4 6.1 -16.35 6.1 -16.1 6.05 -16.05 6.05 -16.0 5.95 -15.95 5.8 -15.8 5.7 -15.75 5.6 -15.65 5.45 -15.6 5.35 -15.55 5.35 -15.25 5.2 -14.95 Q5.0 -14.8 4.8 -14.7 4.7 -14.6 4.6 -14.5 L4.5 -14.4 4.1 -14.05 4.05 -14.05 3.85 -14.15 3.75 -14.25 3.55 -14.35 3.55 -14.3 3.5 -14.25 3.45 -14.15 3.4 -14.1 3.4 -14.05 3.3 -13.95 3.15 -13.9 3.15 -13.8 3.05 -13.75 3.0 -13.7 2.75 -13.55 Q2.4 -13.4 2.0 -13.3 L1.75 -13.3 1.65 -13.25 1.6 -13.2 1.5 -13.15 0.8 -13.15 0.65 -13.2 0.55 -13.3 0.55 -13.45 0.5 -13.5 Q0.35 -13.65 0.1 -13.55 L-0.05 -13.6 -0.1 -13.65 -0.15 -13.85 -0.15 -14.05 -0.2 -14.1 -0.45 -14.1 -0.45 -14.05 -0.6 -14.0 -0.65 -13.95 -1.25 -13.45 Q-1.5 -13.4 -1.65 -13.3 -1.7 -13.25 -1.8 -13.25 L-1.95 -13.1 -2.2 -13.1 -2.3 -13.15 -2.45 -13.2 -2.7 -13.2 -2.7 -13.0 -2.9 -12.8 -2.95 -12.7 -3.0 -12.65 -3.05 -12.55 -3.15 -12.45 -3.15 -12.4 -3.25 -12.3 -3.45 -12.2 -3.8 -12.2 Q-3.95 -12.15 -4.05 -12.1 L-4.25 -12.05 -4.35 -11.95 -4.6 -11.85 -4.6 -11.8 -4.65 -11.65 -4.7 -11.55 -4.8 -11.45 Q-5.0 -11.3 -5.25 -11.25 L-5.3 -11.25 -5.4 -11.2 -5.4 -11.1 -5.45 -11.0 Q-5.45 -10.9 -5.45 -10.85 L-5.5 -10.7 -5.6 -10.55 -5.45 -10.3 -5.25 -10.05 -4.7 -10.15 -4.65 -10.2 Q-4.6 -10.3 -4.65 -10.4 L-4.65 -10.8 -4.45 -11.0 -4.05 -11.0 -3.95 -10.95 -3.9 -10.9 -3.8 -10.85 -3.8 -10.8 -3.75 -10.75 -3.7 -10.75 -3.4 -11.05 -3.4 -11.25 -3.35 -11.4 Q-3.1 -11.55 -2.75 -11.6 -2.65 -11.75 -2.5 -11.8 -2.4 -11.8 -2.3 -11.85 L-2.3 -11.9 -2.0 -12.05 -1.95 -12.1 -1.8 -12.1 -1.8 -12.15 -1.7 -12.1 -1.6 -12.1 -1.55 -12.05 -1.5 -11.95 -1.5 -11.9 -1.4 -11.8 -1.4 -11.6 -1.25 -11.45 -1.25 -11.15 -1.3 -11.05 -1.35 -10.9 Q-1.45 -10.75 -1.6 -10.55 L-1.6 -10.5 Q-1.7 -10.45 -1.85 -10.4 L-2.05 -10.2 -2.1 -10.2 -2.3 -10.25 -2.45 -10.2 -2.55 -10.1 -2.7 -10.0 -2.8 -9.95 -2.1 -9.95 -2.05 -10.0 -1.95 -10.15 -1.85 -10.2 -1.6 -10.3 -1.4 -10.4 -1.4 -10.55 -1.35 -10.6 -1.35 -10.65 -1.3 -10.7 -1.25 -10.7 -1.15 -10.75 -1.05 -10.85 -0.55 -10.95 -0.35 -11.0 -0.3 -11.05 -0.3 -11.1 -0.25 -11.15 -0.2 -11.25 -0.15 -11.3 0.25 -11.45 Q0.4 -11.55 0.55 -11.55 L0.65 -11.65 0.65 -11.7 0.7 -11.8 0.85 -11.9 0.95 -12.0 0.95 -12.15 1.1 -12.3 Q1.25 -12.4 1.4 -12.45 1.6 -12.5 1.8 -12.6 L1.85 -12.65 Q2.2 -12.8 2.6 -12.8 L2.6 -13.0 2.65 -13.1 2.75 -13.2 3.0 -13.25 3.1 -13.3 3.25 -13.35 3.45 -13.55 3.6 -13.6 3.65 -13.55 3.75 -13.5 3.8 -13.45 3.9 -13.4 4.05 -13.4 4.05 -13.5 4.3 -13.75 Q4.5 -13.85 4.75 -13.9 L4.9 -13.95 5.3 -13.95 5.55 -14.05 5.8 -14.3 5.9 -14.35 5.95 -14.4 5.85 -14.4 5.75 -14.5 5.75 -14.65 5.7 -14.8 5.75 -15.05 5.75 -15.1 5.8 -15.15 5.9 -15.2 5.9 -15.3 6.05 -15.45 6.15 -15.5 6.45 -15.5 6.45 -15.55 6.75 -15.45 6.85 -15.4 6.9 -15.35 6.9 -15.3 6.95 -15.25 6.95 -14.9 6.9 -14.85 6.9 -14.75 6.75 -14.65 6.65 -14.5 6.75 -14.45 6.85 -14.5 6.95 -14.6 7.1 -14.65 7.15 -14.7 7.25 -14.85 7.35 -14.95 7.35 -15.0 7.45 -15.05 7.5 -15.1 7.5 -15.15 7.6 -15.3 7.65 -15.35 7.25 -15.45 7.2 -15.5 7.05 -15.6 6.95 -15.75 6.95 -15.95 7.0 -16.1 7.2 -16.3 7.55 -16.3 7.75 -16.2 7.9 -16.05 7.9 -15.85 7.95 -15.9 7.95 -16.25 7.75 -16.25 7.7 -16.35 7.65 -16.4 7.5 -16.5 7.45 -16.6 7.4 -16.75 7.35 -16.85 7.35 -16.95 7.4 -17.1 7.35 -17.15 7.35 -17.35 7.4 -17.4 7.4 -17.55 7.45 -17.65 7.5 -17.7 7.5 -17.75 7.45 -17.85 7.1 -18.2 7.1 -18.25 7.0 -18.4 7.0 -18.5 7.05 -18.65 7.05 -18.75 7.15 -18.85 6.9 -18.75 6.9 -18.7 6.75 -18.5 6.5 -18.35 6.5 -18.2 6.45 -18.1 6.25 -17.9 6.25 -17.65 6.15 -17.6 6.15 -17.55 6.05 -17.5 5.85 -17.3 5.85 -17.25 Q5.45 -17.1 5.1 -17.05 L5.0 -16.95 4.95 -16.85 4.95 -16.7 5.35 -17.0 5.45 -17.0 5.55 -16.95 5.6 -16.95 M4.05 -16.3 L4.05 -16.3 M8.8 -20.8 L8.8 -20.75 8.85 -20.65 8.85 -20.85 8.8 -20.8 M8.9 -20.4 L8.9 -20.4 M7.15 -18.85 L7.2 -18.9 7.15 -18.9 7.15 -18.85 M7.2 -18.9 L7.3 -18.95 7.4 -18.95 7.55 -18.85 7.65 -18.75 7.7 -18.75 7.8 -18.8 7.7 -18.95 Q7.65 -19.1 7.6 -19.25 L7.55 -19.35 7.55 -19.4 7.5 -19.35 7.45 -19.2 7.4 -19.1 7.2 -18.9 M8.5 -18.8 L8.4 -18.8 8.4 -18.75 8.5 -18.8 M7.9 -18.0 L7.9 -17.95 7.95 -17.85 7.95 -18.0 7.9 -18.0 M7.25 -17.15 L7.25 -17.1 7.1 -16.95 6.9 -16.85 6.85 -16.8 6.65 -16.8 6.6 -16.85 6.5 -17.05 6.45 -17.1 6.45 -17.35 6.5 -17.4 Q6.5 -17.45 6.5 -17.5 L6.6 -17.6 6.7 -17.6 6.7 -17.65 6.8 -17.6 6.85 -17.55 7.0 -17.55 7.2 -17.45 7.25 -17.4 7.25 -17.15 M0.15 -13.35 L0.25 -13.2 0.25 -12.9 0.05 -12.7 -0.1 -12.65 -0.25 -12.65 -0.45 -12.75 -0.7 -12.75 -0.75 -12.85 -0.9 -12.95 -0.9 -13.0 -0.95 -13.1 -0.95 -13.5 -0.9 -13.6 -0.85 -13.6 -0.8 -13.65 -0.7 -13.65 -0.55 -13.6 -0.5 -13.55 -0.45 -13.55 -0.1 -13.45 0.05 -13.4 0.15 -13.35 M0.0 -12.0 L0.0 -11.95 -0.05 -11.85 -0.15 -11.8 -0.45 -11.75 -0.5 -11.7 -0.6 -11.65 -0.75 -11.7 -0.85 -11.8 -0.9 -12.0 -0.9 -12.25 -1.0 -12.35 -1.05 -12.45 -1.0 -12.5 -1.0 -12.55 -0.95 -12.6 -0.85 -12.65 -0.3 -12.65 -0.2 -12.55 -0.2 -12.5 0.0 -12.3 0.0 -12.2 0.05 -12.1 0.05 -12.05 0.0 -12.0 M-0.2 -26.1 L-0.35 -26.2 -0.45 -26.35 -0.55 -26.3 -0.6 -26.25 -0.6 -26.2 -0.7 -26.1 -0.7 -26.0 -0.6 -26.0 -0.45 -25.95 -0.25 -25.85 -0.25 -25.8 -0.2 -25.75 -0.2 -25.65 -0.1 -25.8 -0.1 -25.85 -0.15 -25.9 -0.15 -26.1 -0.2 -26.1 M-1.25 -24.6 L-1.3 -24.55 -1.25 -24.5 -1.25 -24.45 -1.2 -24.35 -1.2 -24.45 -1.25 -24.5 -1.25 -24.6 M-1.2 -24.0 L-1.15 -23.95 -1.15 -24.0 -1.2 -24.1 -1.2 -24.0 M-13.25 -0.2 L-13.25 -0.4 -13.1 -0.55 -13.05 -0.65 -13.05 -0.7 -12.95 -0.8 -12.85 -0.8 -12.55 -0.9 -12.4 -0.8 -12.2 -0.75 -12.1 -0.9 -12.1 -1.0 -12.0 -1.1 -11.7 -1.2 -11.5 -1.15 -11.4 -1.05 -11.2 -1.0 -11.1 -0.9 -11.05 -0.8 -10.95 -0.65 -10.75 -0.45 -10.7 -0.35 -10.7 -0.25 -10.75 -0.2 -11.0 -0.2 -11.05 -0.15 -11.05 -0.1 -11.1 0.0 -11.15 0.0 -11.25 0.05 -11.3 0.1 -11.45 0.05 -11.55 0.05 Q-11.7 0.15 -11.95 0.15 -12.0 0.15 -12.05 0.2 L-12.6 0.25 Q-12.85 0.25 -13.1 0.1 L-13.25 0.0 -13.25 -0.2 M-2.2 -12.85 L-2.1 -12.8 -2.1 -12.75 -2.0 -12.75 -1.8 -12.65 -1.75 -12.55 -1.75 -12.3 -1.8 -12.25 -1.85 -12.15 -1.95 -12.15 -1.95 -12.1 -2.1 -12.1 -2.25 -12.15 -2.55 -12.2 -2.6 -12.3 -2.75 -12.4 -2.85 -12.5 -2.85 -12.65 -2.8 -12.75 -2.7 -12.85 -2.65 -12.85 -2.55 -12.9 -2.35 -12.85 -2.2 -12.85" fill="#374d1e" fill-rule="evenodd" stroke="none"/>
      <path d="M-1.2 -24.0 L-1.2 -24.1 -1.15 -24.0 -1.15 -23.95 -1.2 -24.0 M-1.25 -24.6 L-1.25 -24.5 -1.2 -24.45 -1.2 -24.35 -1.25 -24.45 -1.25 -24.5 -1.3 -24.55 -1.25 -24.6 M-0.2 -26.1 L-0.15 -26.1 -0.15 -25.9 -0.1 -25.85 -0.1 -25.8 -0.2 -25.65 -0.2 -25.75 -0.25 -25.8 -0.25 -25.85 -0.45 -25.95 -0.6 -26.0 -0.7 -26.0 -0.7 -26.1 -0.6 -26.2 -0.6 -26.25 -0.55 -26.3 -0.45 -26.35 -0.35 -26.2 -0.2 -26.1 M0.0 -12.0 L0.05 -12.05 0.05 -12.1 0.0 -12.2 0.0 -12.3 -0.2 -12.5 -0.2 -12.55 -0.3 -12.65 -0.85 -12.65 -0.95 -12.6 -1.0 -12.55 -1.0 -12.5 -1.05 -12.45 -1.0 -12.35 -0.9 -12.25 -0.9 -12.0 -0.85 -11.8 -0.75 -11.7 -0.6 -11.65 -0.5 -11.7 -0.45 -11.75 -0.15 -11.8 -0.05 -11.85 0.0 -11.95 0.0 -12.0 M0.15 -13.35 L0.05 -13.4 -0.1 -13.45 -0.45 -13.55 -0.5 -13.55 -0.55 -13.6 -0.7 -13.65 -0.8 -13.65 -0.85 -13.6 -0.9 -13.6 -0.95 -13.5 -0.95 -13.1 -0.9 -13.0 -0.9 -12.95 -0.75 -12.85 -0.7 -12.75 -0.45 -12.75 -0.25 -12.65 -0.1 -12.65 0.05 -12.7 0.25 -12.9 0.25 -13.2 0.15 -13.35 M7.25 -17.15 L7.25 -17.4 7.2 -17.45 7.0 -17.55 6.85 -17.55 6.8 -17.6 6.7 -17.65 6.7 -17.6 6.6 -17.6 6.5 -17.5 Q6.5 -17.45 6.5 -17.4 L6.45 -17.35 6.45 -17.1 6.5 -17.05 6.6 -16.85 6.65 -16.8 6.85 -16.8 6.9 -16.85 7.1 -16.95 7.25 -17.1 7.25 -17.15 M7.9 -18.0 L7.95 -18.0 7.95 -17.85 7.9 -17.95 7.9 -18.0 M8.5 -18.8 L8.4 -18.75 8.4 -18.8 8.5 -18.8 M7.2 -18.9 L7.4 -19.1 7.45 -19.2 7.5 -19.35 7.55 -19.4 7.55 -19.35 7.6 -19.25 Q7.65 -19.1 7.7 -18.95 L7.8 -18.8 7.7 -18.75 7.65 -18.75 7.55 -18.85 7.4 -18.95 7.3 -18.95 7.2 -18.9 7.15 -18.85 7.15 -18.9 7.2 -18.9 M8.9 -20.4 L8.9 -20.4 M8.8 -20.8 L8.85 -20.85 8.85 -20.65 8.8 -20.75 8.8 -20.8 M4.05 -16.3 L4.05 -16.3 M5.6 -16.95 L5.55 -16.95 5.45 -17.0 5.35 -17.0 4.95 -16.7 4.95 -16.85 5.0 -16.95 5.1 -17.05 Q5.45 -17.1 5.85 -17.25 L5.85 -17.3 6.05 -17.5 6.15 -17.55 6.15 -17.6 6.25 -17.65 6.25 -17.9 6.45 -18.1 6.5 -18.2 6.5 -18.35 6.75 -18.5 6.9 -18.7 6.9 -18.75 7.15 -18.85 7.05 -18.75 7.05 -18.65 7.0 -18.5 7.0 -18.4 7.1 -18.25 7.1 -18.2 7.45 -17.85 7.5 -17.75 7.5 -17.7 7.45 -17.65 7.4 -17.55 7.4 -17.4 7.35 -17.35 7.35 -17.15 7.4 -17.1 7.35 -16.95 7.35 -16.85 7.4 -16.75 7.45 -16.6 7.5 -16.5 7.65 -16.4 7.7 -16.35 7.75 -16.25 7.95 -16.25 7.95 -15.9 7.9 -15.85 7.9 -16.05 7.75 -16.2 7.55 -16.3 7.2 -16.3 7.0 -16.1 6.95 -15.95 6.95 -15.75 7.05 -15.6 7.2 -15.5 7.25 -15.45 7.65 -15.35 7.6 -15.3 7.5 -15.15 7.5 -15.1 7.45 -15.05 7.35 -15.0 7.35 -14.95 7.25 -14.85 7.15 -14.7 7.1 -14.65 6.95 -14.6 6.85 -14.5 6.75 -14.45 6.65 -14.5 6.75 -14.65 6.9 -14.75 6.9 -14.85 6.95 -14.9 6.95 -15.25 6.9 -15.3 6.9 -15.35 6.85 -15.4 6.75 -15.45 6.45 -15.55 6.45 -15.5 6.15 -15.5 6.05 -15.45 5.9 -15.3 5.9 -15.2 5.8 -15.15 5.75 -15.1 5.75 -15.05 5.7 -14.8 5.75 -14.65 5.75 -14.5 5.85 -14.4 5.95 -14.4 5.9 -14.35 5.8 -14.3 5.55 -14.05 5.3 -13.95 4.9 -13.95 4.75 -13.9 Q4.5 -13.85 4.3 -13.75 L4.05 -13.5 4.05 -13.4 3.9 -13.4 3.8 -13.45 3.75 -13.5 3.65 -13.55 3.6 -13.6 3.45 -13.55 3.25 -13.35 3.1 -13.3 3.0 -13.25 2.75 -13.2 2.65 -13.1 2.6 -13.0 2.6 -12.8 Q2.2 -12.8 1.85 -12.65 L1.8 -12.6 Q1.6 -12.5 1.4 -12.45 1.25 -12.4 1.1 -12.3 L0.95 -12.15 0.95 -12.0 0.85 -11.9 0.7 -11.8 0.65 -11.7 0.65 -11.65 0.55 -11.55 Q0.4 -11.55 0.25 -11.45 L-0.15 -11.3 -0.2 -11.25 -0.25 -11.15 -0.3 -11.1 -0.3 -11.05 -0.35 -11.0 -0.55 -10.95 -1.05 -10.85 -1.15 -10.75 -1.25 -10.7 -1.3 -10.7 -1.35 -10.65 -1.35 -10.6 -1.4 -10.55 -1.4 -10.4 -1.6 -10.3 -1.85 -10.2 -1.95 -10.15 -2.05 -10.0 -2.1 -9.95 -2.8 -9.95 -2.7 -10.0 -2.55 -10.1 -2.45 -10.2 -2.3 -10.25 -2.1 -10.2 -2.05 -10.2 -1.85 -10.4 Q-1.7 -10.45 -1.6 -10.5 L-1.6 -10.55 Q-1.45 -10.75 -1.35 -10.9 L-1.3 -11.05 -1.25 -11.15 -1.25 -11.45 -1.4 -11.6 -1.4 -11.8 -1.5 -11.9 -1.5 -11.95 -1.55 -12.05 -1.6 -12.1 -1.7 -12.1 -1.8 -12.15 -1.8 -12.1 -1.95 -12.1 -2.0 -12.05 -2.3 -11.9 -2.3 -11.85 Q-2.4 -11.8 -2.5 -11.8 -2.65 -11.75 -2.75 -11.6 -3.1 -11.55 -3.35 -11.4 L-3.4 -11.25 -3.4 -11.05 -3.7 -10.75 -3.75 -10.75 -3.8 -10.8 -3.8 -10.85 -3.9 -10.9 -3.95 -10.95 -4.05 -11.0 -4.45 -11.0 -4.65 -10.8 -4.65 -10.4 Q-4.6 -10.3 -4.65 -10.2 L-4.7 -10.15 -5.25 -10.05 -5.45 -10.3 -5.6 -10.55 -5.5 -10.7 -5.45 -10.85 Q-5.45 -10.9 -5.45 -11.0 L-5.4 -11.1 -5.4 -11.2 -5.3 -11.25 -5.25 -11.25 Q-5.0 -11.3 -4.8 -11.45 L-4.7 -11.55 -4.65 -11.65 -4.6 -11.8 -4.6 -11.85 -4.35 -11.95 -4.25 -12.05 -4.05 -12.1 Q-3.95 -12.15 -3.8 -12.2 L-3.45 -12.2 -3.25 -12.3 -3.15 -12.4 -3.15 -12.45 -3.05 -12.55 -3.0 -12.65 -2.95 -12.7 -2.9 -12.8 -2.7 -13.0 -2.7 -13.2 -2.45 -13.2 -2.3 -13.15 -2.2 -13.1 -1.95 -13.1 -1.8 -13.25 Q-1.7 -13.25 -1.65 -13.3 -1.5 -13.4 -1.25 -13.45 L-0.65 -13.95 -0.6 -14.0 -0.45 -14.05 -0.45 -14.1 -0.2 -14.1 -0.15 -14.05 -0.15 -13.85 -0.1 -13.65 -0.05 -13.6 0.1 -13.55 Q0.35 -13.65 0.5 -13.5 L0.55 -13.45 0.55 -13.3 0.65 -13.2 0.8 -13.15 1.5 -13.15 1.6 -13.2 1.65 -13.25 1.75 -13.3 2.0 -13.3 Q2.4 -13.4 2.75 -13.55 L3.0 -13.7 3.05 -13.75 3.15 -13.8 3.15 -13.9 3.3 -13.95 3.4 -14.05 3.4 -14.1 3.45 -14.15 3.5 -14.25 3.55 -14.3 3.55 -14.35 3.75 -14.25 3.85 -14.15 4.05 -14.05 4.1 -14.05 4.5 -14.4 4.6 -14.5 Q4.7 -14.6 4.8 -14.7 5.0 -14.8 5.2 -14.95 L5.35 -15.25 5.35 -15.55 5.45 -15.6 5.6 -15.65 5.7 -15.75 5.8 -15.8 5.95 -15.95 6.05 -16.0 6.05 -16.05 6.1 -16.1 6.1 -16.35 6.15 -16.4 6.15 -16.8 6.1 -16.85 6.0 -16.9 5.6 -16.95 M2.6 -15.65 L2.75 -15.5 2.9 -15.45 3.1 -15.45 3.15 -15.5 3.25 -15.55 3.5 -15.65 3.55 -15.65 3.6 -15.75 3.6 -15.65 3.7 -15.55 3.8 -15.5 3.8 -15.45 3.7 -15.35 3.45 -15.25 3.35 -15.25 3.25 -15.3 3.1 -15.3 2.65 -15.2 2.4 -15.15 Q2.35 -15.15 2.4 -15.25 L2.35 -15.3 2.35 -15.4 2.4 -15.55 2.45 -15.65 2.45 -15.7 2.6 -15.65 M1.0 -27.6 L0.95 -27.55 0.9 -27.55 0.8 -27.45 0.8 -27.25 0.7 -27.15 0.7 -27.05 0.6 -27.1 0.45 -27.15 0.4 -27.15 0.4 -27.25 0.5 -27.35 0.5 -27.5 0.6 -27.55 0.65 -27.6 0.65 -27.65 Q0.85 -27.55 1.0 -27.65 L1.0 -27.6 M8.55 -22.95 L8.55 -22.85 8.6 -22.7 8.8 -22.5 8.95 -22.3 9.1 -22.25 9.35 -22.3 9.5 -22.3 9.65 -22.75 9.5 -22.9 9.4 -22.95 9.4 -23.0 9.15 -23.25 9.05 -23.25 8.95 -23.3 8.95 -23.25 8.85 -23.25 8.8 -23.2 8.7 -23.15 8.6 -23.05 8.55 -22.95 M7.95 -25.75 L8.35 -25.7 8.45 -25.6 8.45 -25.55 8.35 -25.45 8.35 -25.35 8.3 -25.3 8.25 -25.2 8.2 -25.15 8.2 -24.95 8.25 -24.8 8.25 -24.7 8.35 -24.6 8.5 -24.55 8.55 -24.5 8.6 -24.5 8.6 -24.3 8.45 -24.15 8.45 -23.85 8.55 -23.75 8.6 -23.65 8.95 -23.65 9.2 -23.7 Q9.4 -23.75 9.55 -23.85 L9.6 -23.9 9.75 -24.2 9.75 -24.45 9.7 -24.5 9.7 -24.55 9.75 -24.6 9.75 -24.5 9.9 -24.35 9.9 -24.1 9.95 -24.05 10.1 -23.95 10.15 -23.9 10.1 -23.75 10.1 -23.35 9.95 -23.2 9.95 -22.75 Q9.95 -22.65 10.0 -22.55 L9.95 -22.5 9.95 -22.45 9.9 -22.45 9.65 -22.2 9.55 -22.15 9.5 -22.15 9.45 -22.05 9.35 -21.95 9.35 -21.7 9.4 -21.65 9.55 -21.55 Q9.85 -21.35 10.1 -21.5 L10.15 -21.35 10.1 -21.25 10.1 -21.1 10.15 -20.95 Q10.0 -20.95 9.9 -20.8 L9.8 -20.7 9.8 -19.75 9.75 -19.7 9.75 -19.65 9.7 -19.6 9.7 -19.25 9.6 -19.2 9.5 -19.25 9.35 -19.25 9.2 -19.1 9.2 -19.0 9.15 -18.9 9.05 -18.9 9.05 -18.95 9.1 -19.0 9.1 -19.15 9.05 -19.25 8.95 -19.4 8.9 -19.55 8.85 -19.6 8.7 -19.65 8.7 -19.7 8.75 -19.75 9.2 -19.95 9.3 -20.05 9.4 -20.05 9.65 -20.1 Q9.7 -20.3 9.55 -20.5 9.5 -20.6 9.5 -20.7 L9.5 -20.85 9.55 -20.9 9.55 -21.15 9.5 -21.25 9.45 -21.3 9.4 -21.3 9.45 -21.2 Q9.4 -21.35 9.25 -21.5 L9.15 -21.65 9.15 -21.85 9.0 -22.0 8.85 -22.05 8.6 -22.05 8.55 -22.0 8.45 -21.95 8.35 -21.85 Q8.3 -21.75 8.3 -21.65 L8.3 -21.45 8.35 -21.3 8.35 -21.25 8.4 -21.2 8.4 -21.0 8.35 -20.95 8.35 -20.3 Q8.2 -20.2 7.95 -20.2 L7.8 -20.2 7.65 -20.05 7.65 -19.8 7.6 -19.75 7.6 -19.8 7.55 -19.95 7.55 -20.1 7.5 -20.15 7.5 -20.4 7.55 -20.45 7.55 -20.5 7.6 -20.55 7.85 -20.55 7.95 -20.6 8.05 -20.7 8.05 -20.9 8.15 -21.1 8.2 -21.15 8.2 -21.4 8.15 -21.6 8.15 -21.9 8.25 -22.0 8.25 -22.1 8.3 -22.15 8.3 -22.25 8.35 -22.3 8.35 -22.5 8.3 -22.55 8.25 -22.65 8.25 -22.85 8.2 -22.9 8.1 -22.95 8.0 -22.95 8.0 -23.05 8.1 -23.15 8.1 -23.3 8.2 -23.4 8.2 -23.5 8.25 -23.55 8.25 -24.05 8.3 -24.15 8.3 -24.2 8.35 -24.25 8.35 -24.5 8.25 -24.6 8.2 -24.7 8.2 -24.75 8.05 -24.9 8.05 -25.1 7.95 -25.15 7.9 -25.2 7.9 -25.25 7.95 -25.35 8.0 -25.5 8.0 -25.65 7.95 -25.75 M7.6 -27.05 L7.7 -26.95 7.7 -26.35 7.75 -26.3 7.75 -26.15 7.8 -25.95 7.8 -25.9 7.75 -25.95 7.65 -26.1 7.6 -26.2 7.55 -26.25 7.55 -26.3 7.35 -26.5 7.35 -27.15 7.25 -27.25 7.25 -27.3 7.35 -27.25 7.6 -27.2 7.6 -27.05 M9.65 -25.75 L9.65 -25.75 M8.7 -28.0 L8.75 -27.95 8.75 -27.65 8.8 -27.6 8.9 -27.45 8.95 -27.4 8.95 -27.3 8.9 -27.2 8.9 -26.95 8.95 -26.9 9.3 -26.75 9.45 -26.7 9.45 -26.65 9.55 -26.55 9.55 -26.5 9.6 -26.45 9.25 -26.5 9.25 -26.55 9.15 -26.65 Q9.1 -26.7 9.05 -26.7 L8.95 -26.7 8.85 -26.6 8.8 -26.5 8.8 -26.35 Q8.8 -26.25 8.85 -26.15 L8.75 -26.15 8.7 -26.2 8.7 -26.25 8.6 -26.45 8.5 -26.55 8.55 -26.7 8.55 -26.85 8.45 -26.95 8.35 -27.0 8.3 -27.05 8.4 -27.05 8.5 -27.15 8.55 -27.25 8.55 -27.55 8.45 -27.65 8.25 -27.75 8.25 -28.0 8.15 -28.15 8.6 -28.1 8.7 -28.0 M7.3 -28.75 L7.5 -28.75 7.6 -28.7 7.65 -28.65 7.65 -28.6 Q7.55 -28.65 7.4 -28.7 L7.3 -28.75 M5.95 -28.4 L6.05 -28.45 6.0 -28.4 6.0 -28.3 6.05 -28.25 6.15 -28.2 6.2 -28.1 6.35 -28.05 6.35 -28.0 6.25 -28.1 6.0 -28.1 5.95 -28.15 5.8 -28.2 5.75 -28.25 5.8 -28.3 5.85 -28.3 5.95 -28.4 M6.5 -28.75 L6.4 -28.75 6.25 -28.7 6.15 -28.7 6.15 -28.8 6.2 -28.8 6.3 -28.9 6.4 -28.9 6.55 -28.85 6.9 -28.75 6.75 -28.75 6.6 -28.8 6.5 -28.75 M5.35 -29.15 L5.35 -29.3 5.4 -29.3 5.45 -29.25 5.5 -29.15 5.6 -29.15 5.7 -29.05 5.7 -29.0 5.75 -28.95 5.65 -28.95 5.6 -28.9 5.55 -28.8 5.45 -28.75 5.45 -28.4 5.05 -28.4 5.0 -28.35 4.8 -28.25 4.6 -28.35 5.0 -28.35 5.1 -28.45 5.15 -28.55 5.25 -28.65 5.25 -28.95 5.35 -29.05 5.35 -29.15 M-2.2 -12.85 L-2.35 -12.85 -2.55 -12.9 -2.65 -12.85 -2.7 -12.85 -2.8 -12.75 -2.85 -12.65 -2.85 -12.5 -2.75 -12.4 -2.6 -12.3 -2.55 -12.2 -2.25 -12.15 -2.1 -12.1 -1.95 -12.1 -1.95 -12.15 -1.85 -12.15 -1.8 -12.25 -1.75 -12.3 -1.75 -12.55 -1.8 -12.65 -2.0 -12.75 -2.1 -12.75 -2.1 -12.8 -2.2 -12.85" fill="#3f5822" fill-rule="evenodd" stroke="none"/>
    </g>
    <g id="shape4" transform="matrix(1.0, 0.0, 0.0, 1.0, 12.15, 29.35)">
      <path d="M2.0 -28.8 L2.15 -28.95 2.3 -29.05 3.35 -29.15 3.4 -29.15 3.5 -29.1 3.6 -29.15 3.65 -29.15 3.8 -29.3 3.85 -29.3 3.95 -29.35 4.15 -29.35 4.2 -29.25 4.2 -29.2 4.3 -29.15 4.35 -29.1 4.35 -29.05 4.75 -29.1 5.0 -29.1 5.1 -29.05 5.2 -29.05 5.3 -29.1 5.4 -29.05 5.45 -29.0 5.5 -28.9 5.5 -28.85 5.7 -28.75 5.85 -28.6 6.1 -28.5 6.2 -28.45 6.2 -28.4 6.25 -28.35 6.2 -28.3 6.2 -28.2 6.15 -28.2 6.15 -28.15 5.65 -28.15 5.55 -28.25 5.45 -28.4 5.4 -28.4 5.4 -28.45 5.3 -28.45 5.15 -28.5 5.1 -28.55 5.1 -28.6 4.5 -28.7 4.25 -28.75 Q4.2 -28.75 4.15 -28.8 L4.1 -28.85 4.0 -28.85 3.9 -28.75 3.4 -28.65 3.3 -28.55 3.2 -28.5 2.7 -28.5 2.5 -28.35 2.35 -28.25 2.0 -28.2 1.95 -28.2 1.85 -28.0 1.7 -27.8 1.2 -27.6 1.2 -27.55 1.15 -27.5 1.05 -27.45 1.0 -27.4 0.85 -27.45 0.8 -27.5 0.8 -27.55 Q0.8 -27.65 0.9 -27.75 L1.05 -27.9 1.15 -27.95 1.4 -28.0 1.45 -28.1 1.45 -28.25 1.55 -28.35 1.6 -28.45 1.6 -28.5 1.7 -28.6 1.8 -28.65 1.85 -28.7 1.95 -28.75 2.0 -28.8 M6.45 -28.9 L6.55 -28.85 6.6 -28.8 6.6 -28.75 6.75 -28.65 6.85 -28.55 6.85 -28.5 6.9 -28.45 6.9 -28.3 6.85 -28.25 6.6 -28.2 6.35 -28.3 6.25 -28.4 6.25 -28.55 6.2 -28.55 6.15 -28.6 6.05 -28.65 6.05 -28.75 6.15 -28.85 6.2 -28.85 6.25 -28.9 6.45 -28.9 M7.65 -28.4 L7.7 -28.45 7.95 -28.45 8.05 -28.4 8.15 -28.4 Q8.5 -28.3 8.7 -28.1 L9.15 -27.6 9.15 -27.4 9.2 -27.25 9.2 -27.2 9.35 -27.15 9.4 -27.15 9.5 -27.2 9.7 -27.1 9.9 -27.05 9.9 -26.85 10.0 -26.75 10.0 -26.6 9.85 -26.3 9.75 -26.25 9.6 -26.3 9.55 -26.35 9.35 -26.35 8.85 -26.4 8.85 -26.85 8.75 -27.0 8.75 -27.1 8.6 -27.25 8.4 -27.3 8.25 -27.4 8.15 -27.5 Q7.85 -27.55 7.65 -27.65 L7.6 -27.8 7.55 -27.9 7.6 -28.05 7.55 -28.1 7.55 -28.3 7.65 -28.4 M9.75 -26.1 L9.9 -26.0 10.0 -25.85 10.05 -25.8 10.0 -25.75 9.95 -25.6 9.95 -25.55 10.05 -25.5 10.05 -25.3 10.1 -25.2 10.1 -25.1 10.05 -25.05 10.0 -24.95 9.9 -24.9 9.9 -24.85 Q9.9 -24.8 9.95 -24.8 L10.05 -24.7 10.05 -24.6 10.1 -24.55 10.1 -24.25 10.05 -24.2 10.05 -24.05 10.1 -24.0 Q10.25 -23.95 10.35 -23.85 L10.45 -23.8 10.45 -23.75 10.5 -23.7 10.5 -23.4 10.55 -23.35 10.55 -23.05 10.4 -22.85 10.2 -22.7 9.9 -22.65 9.75 -22.7 9.75 -22.65 9.35 -22.6 9.2 -22.6 9.0 -22.65 8.9 -22.65 8.9 -22.8 8.85 -22.9 8.85 -23.15 8.95 -23.2 9.05 -23.3 9.2 -23.35 9.55 -23.3 9.6 -23.3 9.65 -23.4 9.65 -23.5 Q9.3 -23.35 8.9 -23.6 L8.8 -23.75 8.8 -23.85 8.85 -23.95 8.95 -24.05 8.95 -24.25 9.0 -24.3 9.1 -24.3 9.15 -24.35 9.2 -24.3 9.2 -24.4 9.25 -24.45 9.25 -24.5 9.2 -24.6 9.2 -25.25 9.1 -25.35 9.05 -25.2 8.95 -25.05 8.9 -25.0 8.65 -25.0 8.5 -25.05 8.4 -25.15 8.4 -25.45 8.45 -25.5 8.45 -25.55 8.65 -25.65 8.75 -25.65 8.85 -25.6 9.0 -25.55 8.95 -25.65 8.95 -25.75 9.15 -25.95 Q9.35 -26.1 9.65 -26.1 L9.75 -26.1 M8.9 -26.25 L8.95 -26.2 9.05 -26.05 9.1 -26.0 9.1 -25.95 8.95 -25.8 8.7 -25.8 Q8.65 -25.85 8.6 -25.85 L8.6 -26.2 8.8 -26.3 8.9 -26.25 M7.25 -28.1 L7.35 -28.05 7.5 -27.9 Q7.55 -27.75 7.55 -27.6 L7.5 -27.55 7.5 -27.5 7.4 -27.4 7.25 -27.4 7.1 -27.45 7.05 -27.55 7.0 -27.6 7.0 -28.0 7.1 -28.05 7.25 -28.1 M8.35 -27.15 L8.4 -27.1 8.5 -27.05 8.55 -26.8 8.6 -26.5 8.6 -26.45 8.55 -26.4 8.45 -26.35 8.2 -26.35 8.15 -26.4 8.05 -26.45 8.0 -26.5 8.0 -26.9 8.05 -26.95 8.1 -27.05 8.15 -27.05 8.15 -27.1 8.3 -27.1 8.35 -27.15 M8.6 -22.0 L8.7 -22.05 8.8 -22.05 9.0 -21.95 9.0 -21.9 9.05 -21.85 Q9.05 -21.8 9.05 -21.75 L9.25 -21.55 9.25 -21.45 9.2 -21.35 9.2 -21.2 9.15 -21.15 9.05 -21.0 8.8 -20.8 8.45 -20.85 8.4 -20.9 8.4 -20.95 8.35 -21.0 8.3 -21.1 8.25 -21.15 8.25 -21.5 Q8.3 -21.55 8.35 -21.55 8.5 -21.65 8.45 -21.75 L8.45 -21.85 8.6 -22.0 M9.5 -22.4 L9.85 -22.3 10.05 -22.15 10.1 -22.1 10.1 -21.8 10.2 -21.75 10.35 -21.65 10.4 -21.6 10.4 -21.35 10.35 -21.3 10.35 -21.25 10.3 -21.15 10.15 -21.0 10.1 -21.0 10.05 -20.95 10.0 -20.95 9.95 -20.9 9.85 -20.65 9.75 -20.55 9.65 -20.6 9.6 -20.65 9.55 -20.75 9.5 -20.8 9.5 -21.15 9.6 -21.25 9.6 -21.35 9.55 -21.4 9.55 -21.45 9.45 -21.55 9.45 -21.65 9.3 -21.7 9.2 -21.8 9.2 -22.05 9.3 -22.15 9.3 -22.3 9.5 -22.4 M0.45 -27.05 L0.45 -26.95 0.4 -26.85 0.4 -26.75 0.3 -26.7 0.15 -26.65 -0.05 -26.75 -0.15 -26.85 -0.15 -27.0 -0.1 -27.05 -0.05 -27.15 0.0 -27.2 0.05 -27.2 0.15 -27.25 0.3 -27.2 0.45 -27.1 0.45 -27.05 M0.1 -26.3 L0.15 -26.25 0.25 -26.2 0.35 -26.2 0.35 -26.05 0.3 -25.95 0.3 -25.65 0.25 -25.55 0.25 -25.5 0.15 -25.4 Q0.2 -25.35 0.25 -25.3 L0.3 -25.25 Q0.35 -25.15 0.35 -25.05 L0.35 -24.7 0.2 -24.55 0.0 -24.3 -0.05 -24.25 -0.05 -24.2 0.0 -24.15 0.15 -24.1 0.25 -24.05 0.3 -24.0 0.3 -23.8 0.4 -23.7 0.45 -23.6 0.45 -23.5 0.75 -23.3 0.9 -23.1 0.9 -22.8 0.85 -22.75 0.85 -22.7 Q0.9 -22.65 0.95 -22.6 1.1 -22.55 1.05 -22.4 L1.05 -22.35 0.95 -22.25 0.6 -22.25 0.35 -22.5 0.35 -22.9 0.4 -22.95 0.4 -23.0 0.3 -23.05 0.2 -23.15 0.1 -23.2 0.05 -23.3 0.05 -23.35 0.0 -23.4 -0.1 -23.45 -0.15 -23.5 -0.15 -23.55 -0.2 -23.7 -0.2 -23.75 -0.35 -23.8 -0.5 -23.95 -0.5 -24.05 -0.55 -24.25 -0.55 -24.4 -0.6 -24.3 -0.85 -24.3 -0.95 -24.35 -1.0 -24.4 -1.0 -24.7 -0.8 -24.9 -0.7 -24.9 -0.5 -24.8 -0.45 -24.75 -0.45 -24.7 -0.4 -24.7 -0.2 -24.85 Q-0.15 -24.9 -0.1 -24.95 L-0.2 -25.0 -0.35 -25.15 -0.35 -25.4 -0.3 -25.45 -0.3 -25.7 -0.15 -25.85 -0.15 -26.0 -0.1 -26.15 -0.1 -26.2 -0.05 -26.25 0.0 -26.25 0.05 -26.3 0.1 -26.3 M1.95 -24.8 L2.1 -24.7 2.2 -24.65 2.2 -24.6 2.05 -24.45 1.95 -24.4 1.95 -24.35 1.85 -24.25 1.8 -24.15 1.75 -24.1 1.75 -24.05 1.65 -23.95 1.65 -23.9 1.4 -23.95 Q1.35 -23.95 1.3 -24.0 L1.3 -24.05 1.35 -24.1 1.35 -24.15 1.4 -24.2 1.4 -24.45 1.45 -24.5 1.5 -24.5 1.55 -24.55 1.55 -24.7 1.7 -24.85 1.85 -24.85 1.95 -24.8 M2.85 -23.95 L2.85 -24.05 2.9 -24.15 2.95 -24.2 3.05 -24.2 3.05 -24.25 3.1 -24.2 3.2 -24.2 3.35 -24.05 3.45 -24.0 3.6 -23.7 3.6 -23.45 3.55 -23.4 3.5 -23.3 3.5 -23.2 3.45 -23.15 3.45 -23.0 3.35 -22.9 3.25 -22.85 3.2 -22.75 3.2 -22.7 3.15 -22.65 3.15 -22.4 3.0 -22.25 2.7 -22.1 2.5 -21.9 2.4 -21.85 2.2 -21.8 2.15 -21.75 2.15 -21.7 2.1 -21.7 Q1.95 -21.65 1.85 -21.75 L1.75 -21.8 Q1.75 -21.9 1.8 -21.95 L1.85 -22.15 1.95 -22.2 2.0 -22.25 2.3 -22.25 2.45 -22.4 2.5 -22.5 2.55 -22.55 2.55 -22.6 2.6 -22.65 2.75 -22.7 2.75 -22.9 2.85 -23.0 2.85 -23.1 2.9 -23.2 3.2 -23.3 3.2 -23.45 3.25 -23.55 3.1 -23.6 3.05 -23.65 3.0 -23.75 2.9 -23.9 2.85 -23.95 M1.4 -22.25 L1.5 -22.25 1.5 -22.3 1.55 -22.3 1.65 -22.25 1.7 -22.2 1.7 -22.05 1.65 -21.95 1.5 -21.85 Q1.45 -21.8 1.4 -21.8 L1.2 -21.9 1.15 -21.95 1.15 -22.05 1.2 -22.1 1.3 -22.25 1.4 -22.25 M0.5 -14.7 L0.65 -14.85 0.75 -14.9 1.0 -14.9 1.1 -14.85 1.15 -14.8 1.25 -14.65 1.3 -14.6 1.3 -14.25 1.2 -14.1 Q1.1 -14.0 1.1 -13.9 L0.9 -13.7 0.85 -13.6 0.85 -13.55 0.55 -13.4 0.25 -13.2 0.05 -13.25 0.0 -13.25 -0.05 -13.35 -0.05 -13.45 0.0 -13.55 0.0 -13.6 0.1 -13.7 Q0.0 -13.65 -0.15 -13.6 L-0.35 -13.7 -0.45 -13.8 -0.45 -13.95 -0.35 -14.05 -0.3 -14.15 -0.15 -14.2 -0.05 -14.3 0.05 -14.3 0.1 -14.35 0.15 -14.3 0.25 -14.3 0.35 -14.2 0.35 -14.15 0.4 -14.1 0.4 -14.0 0.35 -13.95 0.35 -13.9 0.4 -13.9 0.45 -13.95 0.5 -14.05 0.5 -14.7 M2.75 -15.2 L2.9 -15.2 3.05 -15.05 3.05 -14.9 2.9 -14.65 2.75 -14.5 2.55 -14.45 2.3 -14.7 2.35 -14.8 2.4 -14.95 2.45 -15.05 Q2.55 -15.15 2.75 -15.2 M1.55 -14.3 L1.7 -14.4 1.75 -14.45 1.95 -14.55 2.2 -14.55 2.3 -14.5 2.4 -14.4 2.4 -14.15 2.3 -13.95 2.2 -13.9 2.15 -13.8 2.25 -13.85 Q2.35 -14.0 2.5 -14.0 L2.85 -14.0 2.9 -13.95 3.0 -14.0 3.05 -14.1 3.05 -14.25 3.1 -14.3 3.1 -14.65 Q3.25 -14.8 3.5 -14.85 L3.5 -14.95 3.45 -15.05 3.35 -15.15 3.35 -15.3 Q3.45 -15.45 3.6 -15.55 L3.6 -15.6 3.75 -15.75 3.8 -15.75 4.0 -15.7 4.15 -15.6 4.15 -15.5 4.2 -15.4 4.15 -15.25 4.05 -15.15 4.2 -14.95 4.3 -14.95 4.4 -14.85 4.4 -14.8 4.45 -14.75 4.45 -14.5 4.6 -14.35 Q4.85 -14.45 5.1 -14.45 L5.1 -14.55 5.05 -14.55 4.8 -14.6 4.6 -14.8 4.6 -14.85 4.55 -14.9 4.55 -15.3 4.65 -15.45 4.6 -15.55 4.45 -15.6 4.4 -15.65 Q4.35 -15.7 4.35 -15.75 4.35 -15.85 4.35 -15.95 L4.4 -16.05 4.5 -16.1 4.8 -16.2 4.9 -16.2 4.9 -16.35 Q4.95 -16.45 5.1 -16.5 L5.45 -16.5 5.55 -16.45 5.8 -16.45 5.85 -16.5 5.95 -16.55 5.95 -16.75 6.1 -16.9 6.2 -16.9 6.25 -16.95 6.4 -16.95 6.5 -16.9 6.5 -16.85 6.55 -16.9 6.75 -16.8 6.9 -16.65 6.9 -16.5 6.85 -16.45 6.8 -16.35 6.75 -16.3 6.6 -16.25 6.55 -16.3 6.45 -16.3 6.4 -16.25 6.1 -16.1 6.0 -16.0 5.7 -15.9 5.6 -15.9 5.6 -15.65 Q5.65 -15.7 5.75 -15.7 L6.05 -15.7 6.2 -15.85 6.2 -15.9 6.3 -16.0 6.45 -16.1 6.65 -16.05 6.8 -16.0 6.85 -15.9 6.95 -15.85 6.95 -15.8 7.0 -15.75 7.0 -15.5 Q7.0 -15.45 7.15 -15.5 L7.4 -15.55 7.45 -15.5 7.4 -15.6 7.3 -15.7 7.35 -15.8 7.45 -15.95 7.5 -16.15 7.6 -16.25 7.7 -16.3 7.7 -16.35 7.85 -16.5 7.85 -16.55 7.9 -16.6 7.9 -16.7 7.95 -16.75 7.95 -17.1 8.05 -17.2 8.35 -17.35 8.35 -17.5 8.3 -17.55 8.3 -17.75 8.35 -17.85 8.4 -17.9 8.4 -17.95 8.25 -18.1 8.25 -18.25 8.4 -18.4 8.4 -18.55 8.5 -18.6 8.6 -18.7 8.7 -18.75 8.75 -18.8 8.75 -19.1 8.7 -19.05 8.5 -18.95 8.5 -18.9 8.2 -18.9 8.15 -19.05 Q8.15 -19.1 8.15 -19.2 L8.15 -19.35 8.4 -19.6 8.4 -19.75 8.5 -19.8 8.55 -19.9 8.65 -20.0 8.7 -20.0 8.7 -20.05 8.9 -19.95 8.9 -19.75 8.95 -19.7 8.95 -19.65 9.15 -19.85 9.15 -19.95 9.05 -20.05 9.05 -20.35 Q9.0 -20.5 9.05 -20.6 L9.15 -20.7 9.4 -20.7 9.55 -20.65 9.7 -20.55 9.85 -20.35 9.85 -20.3 9.9 -20.25 10.0 -20.2 10.05 -20.15 10.05 -19.95 10.1 -19.85 10.1 -19.75 10.05 -19.7 10.05 -19.65 Q10.0 -19.5 9.9 -19.5 9.6 -19.45 9.75 -19.25 L9.75 -19.15 9.7 -19.05 9.7 -18.55 9.6 -18.4 9.4 -18.15 9.3 -18.05 9.25 -18.05 9.15 -18.0 9.2 -17.95 9.2 -17.55 9.25 -17.5 9.25 -17.4 9.3 -17.35 9.3 -17.2 9.25 -17.15 9.25 -17.05 9.2 -17.0 9.2 -16.95 9.05 -16.8 9.05 -16.65 9.0 -16.6 8.85 -16.55 8.5 -16.5 8.5 -15.9 8.4 -15.8 8.4 -15.75 Q8.3 -15.65 8.2 -15.65 L7.7 -15.5 7.45 -15.5 7.55 -15.45 7.6 -15.35 7.6 -15.3 7.55 -15.2 7.55 -15.15 7.3 -15.05 7.2 -15.0 7.2 -14.9 7.1 -14.85 6.75 -14.85 6.7 -14.9 6.6 -14.95 6.6 -14.9 6.45 -14.75 6.35 -14.7 6.3 -14.65 6.2 -14.6 5.95 -14.6 5.85 -14.7 5.9 -14.6 5.9 -14.5 5.85 -14.4 5.75 -14.35 5.7 -14.3 5.65 -14.15 5.65 -13.95 5.6 -13.9 5.55 -13.8 5.2 -13.8 5.05 -13.75 5.0 -13.7 4.9 -13.65 Q4.65 -13.55 4.3 -13.55 L4.25 -13.6 4.2 -13.7 4.1 -13.75 4.05 -13.7 4.05 -13.65 4.0 -13.55 3.95 -13.5 3.9 -13.5 3.55 -13.55 3.5 -13.6 3.5 -13.65 3.4 -13.6 3.3 -13.6 3.3 -13.55 3.35 -13.5 3.35 -13.45 3.3 -13.35 3.25 -13.2 3.0 -13.0 2.8 -12.9 2.2 -12.9 2.1 -12.85 2.0 -12.85 1.75 -12.8 1.4 -12.65 1.4 -12.35 1.25 -12.2 0.95 -12.15 0.95 -12.1 0.85 -12.05 0.55 -12.0 0.55 -11.95 0.5 -11.85 0.45 -11.65 0.45 -11.6 0.35 -11.55 0.15 -11.35 0.05 -11.3 Q-0.1 -11.25 -0.25 -11.2 L-0.35 -11.2 -0.35 -11.15 -0.4 -11.1 -0.85 -11.1 -0.9 -11.15 -0.95 -11.1 -1.05 -10.9 -1.1 -10.85 -1.1 -10.6 -1.15 -10.55 -1.15 -10.5 -1.3 -10.35 -1.5 -10.4 -1.55 -10.4 -1.55 -10.2 -1.6 -10.15 -1.7 -10.0 -1.9 -9.85 -1.95 -9.8 -2.0 -9.8 -2.2 -9.7 -2.25 -9.65 -2.45 -9.6 -2.5 -9.55 -2.6 -9.5 -2.7 -9.4 -2.85 -9.3 -2.8 -9.25 -2.8 -8.9 -2.9 -8.8 -3.25 -8.5 -3.25 -8.45 -3.95 -8.45 -4.0 -8.55 -4.15 -8.7 -4.15 -9.25 -4.0 -9.3 Q-3.8 -9.45 -3.6 -9.55 L-3.6 -9.8 -3.45 -9.95 -3.45 -10.55 -3.25 -10.75 -2.85 -10.75 -2.7 -10.6 -2.45 -10.6 -2.35 -10.65 -2.3 -10.7 -2.2 -10.75 -2.15 -10.8 -2.1 -10.8 -2.05 -10.85 -1.85 -10.85 -1.85 -10.95 -1.8 -11.0 -1.8 -11.15 -2.0 -11.25 -2.05 -11.25 -2.1 -11.35 -2.15 -11.4 -2.2 -11.5 -2.2 -11.85 -2.1 -11.95 -2.1 -12.05 -2.0 -12.15 -1.9 -12.2 -1.7 -12.25 -1.55 -12.25 -1.5 -12.3 -1.4 -12.3 -1.3 -12.25 -1.15 -12.2 -1.1 -12.15 -1.1 -12.3 -1.05 -12.4 -0.9 -12.55 -0.7 -12.65 -0.45 -12.65 -0.35 -12.6 -0.3 -12.55 -0.2 -12.5 -0.2 -12.4 -0.15 -12.35 -0.15 -12.1 -0.2 -12.1 -0.25 -12.0 -0.35 -11.95 -0.4 -11.9 -0.55 -11.85 -0.55 -11.8 Q-0.55 -11.75 -0.6 -11.7 L-0.3 -11.75 -0.25 -11.75 -0.15 -11.8 -0.05 -11.9 Q0.0 -12.05 0.0 -12.15 L0.0 -12.5 0.1 -12.6 0.3 -12.7 0.4 -12.7 0.5 -12.65 0.65 -12.65 0.7 -12.7 0.8 -12.7 0.85 -12.75 0.85 -12.85 0.9 -12.9 0.95 -13.0 1.05 -13.0 1.05 -13.05 1.15 -13.05 1.15 -13.25 1.1 -13.3 1.1 -13.4 1.3 -13.8 1.5 -14.25 1.55 -14.3 M5.55 -15.3 L5.4 -15.15 5.5 -15.05 5.5 -15.0 5.55 -14.95 5.75 -14.85 5.8 -14.8 5.8 -15.05 5.7 -15.2 5.55 -15.3 M6.95 -18.2 L7.05 -18.3 7.05 -18.35 7.1 -18.4 7.25 -18.4 7.25 -18.45 7.4 -18.45 7.5 -18.4 7.6 -18.3 7.6 -18.2 7.8 -18.15 7.9 -18.1 7.9 -18.05 7.95 -18.0 7.95 -17.95 8.0 -17.95 8.0 -18.0 8.1 -17.95 8.25 -17.85 8.25 -17.7 8.2 -17.5 8.15 -17.4 8.1 -17.35 8.0 -17.3 7.9 -17.35 7.85 -17.4 7.8 -17.55 7.8 -17.65 7.65 -17.55 7.05 -17.55 6.95 -17.65 6.95 -18.2 M8.15 -18.6 L8.0 -18.5 7.85 -18.5 7.75 -18.55 7.75 -18.6 7.7 -18.7 7.7 -18.85 7.75 -18.9 7.95 -19.0 8.15 -18.9 8.15 -18.85 8.2 -18.8 8.2 -18.65 8.15 -18.6 M7.75 -17.25 L7.75 -17.2 7.8 -17.15 7.9 -16.95 7.95 -16.9 7.9 -16.85 7.85 -16.7 7.8 -16.65 7.8 -16.6 7.75 -16.55 7.75 -16.5 7.7 -16.45 7.65 -16.35 7.2 -16.35 7.1 -16.55 7.05 -16.6 7.0 -16.7 7.0 -17.0 7.1 -17.05 7.25 -17.15 7.4 -17.3 7.45 -17.3 7.55 -17.35 7.75 -17.25 M7.0 -17.45 L7.0 -17.2 6.95 -17.15 6.9 -17.05 6.85 -17.0 6.8 -16.9 6.75 -16.9 6.55 -16.95 6.5 -17.0 6.45 -17.15 6.45 -17.25 6.5 -17.35 Q6.55 -17.45 6.6 -17.55 L6.7 -17.55 6.75 -17.6 6.9 -17.55 7.0 -17.45 M0.05 -0.15 L-0.25 -0.1 -0.4 -0.15 -0.5 -0.2 -0.55 -0.3 Q-0.7 -0.25 -0.75 -0.15 L-0.95 0.05 -1.15 0.05 -1.2 0.0 -1.45 -0.1 -1.55 -0.2 -1.55 -0.25 -1.7 -0.25 -1.9 -0.3 -2.05 -0.3 -2.1 -0.25 -2.25 -0.25 -2.55 -0.3 -3.1 -0.4 -3.35 -0.4 -4.0 -0.3 -4.05 -0.3 -4.1 -0.2 -4.15 -0.15 -4.3 -0.05 -4.35 0.0 -4.95 0.0 -5.05 -0.1 -7.65 0.15 -7.75 0.1 -7.85 0.0 -7.85 -0.2 -7.95 -0.4 -7.95 -0.45 -7.9 -0.55 -7.9 -0.6 -7.85 -0.65 -7.75 -0.7 -7.65 -0.8 Q-7.45 -1.0 -7.15 -0.9 L-7.05 -0.95 -6.95 -1.05 -6.85 -1.1 -6.85 -1.4 -6.8 -1.45 -6.8 -1.5 -6.7 -1.6 Q-6.45 -1.8 -6.15 -1.7 L-6.05 -1.65 -6.0 -1.6 -5.8 -1.65 -5.8 -1.7 -5.7 -1.8 -5.8 -1.95 Q-5.8 -2.05 -5.9 -2.1 L-5.9 -2.45 -5.6 -2.75 -5.6 -2.85 -5.55 -2.9 -5.55 -3.05 -5.45 -3.1 -5.45 -3.15 -5.4 -3.2 -5.4 -3.35 -5.3 -3.45 -5.35 -3.55 -5.35 -3.9 -5.4 -3.95 -5.5 -4.15 -5.55 -4.35 Q-5.8 -4.4 -6.05 -4.45 L-6.1 -4.5 -6.1 -4.8 -6.15 -4.85 -6.2 -4.95 -6.2 -5.05 -6.35 -5.2 -6.35 -5.35 -6.45 -5.45 -6.45 -5.85 -6.4 -5.9 -6.35 -6.0 -6.3 -6.05 -6.05 -6.05 -6.0 -5.95 -5.9 -5.85 -5.9 -5.8 -5.85 -5.75 -5.65 -5.75 -5.65 -5.9 -5.6 -5.95 -5.6 -6.0 -5.7 -6.05 -5.7 -6.15 -5.95 -6.4 -5.95 -6.85 -5.9 -7.0 -5.8 -7.15 -5.8 -7.45 -5.7 -7.55 -5.6 -7.6 -5.45 -7.6 -5.4 -7.7 Q-5.4 -7.8 -5.3 -7.85 L-5.2 -7.9 -5.15 -7.85 -5.1 -7.85 -5.05 -7.9 -5.25 -8.0 Q-5.3 -8.1 -5.3 -8.2 L-5.3 -8.45 -5.25 -8.55 Q-4.95 -8.75 -4.6 -8.65 L-4.5 -8.65 -4.3 -8.55 -4.3 -8.5 -4.2 -8.4 -4.2 -8.35 -3.9 -8.25 -3.8 -8.2 -3.3 -8.3 -3.25 -8.35 -3.25 -8.4 -3.15 -8.5 -3.05 -8.55 -2.9 -8.5 -2.75 -8.35 Q-2.7 -8.25 -2.75 -8.15 L-2.9 -7.9 -2.9 -7.85 Q-2.95 -7.8 -3.05 -7.8 -3.2 -7.75 -3.2 -7.6 -3.25 -7.5 -3.3 -7.4 L-3.55 -7.2 -3.55 -7.1 -3.5 -7.05 -3.25 -7.05 -3.15 -7.0 -3.1 -6.95 -3.05 -6.85 -3.0 -6.7 -2.95 -6.6 -2.95 -6.45 -2.9 -6.4 -2.9 -6.0 -2.85 -5.9 -2.85 -5.75 -2.95 -5.55 -3.05 -5.5 -3.5 -5.35 -3.45 -5.35 -3.35 -5.25 -3.1 -5.2 -2.95 -5.1 -2.9 -5.05 -2.9 -4.85 -3.0 -4.75 -3.0 -4.7 -3.1 -4.65 -3.1 -4.6 -3.05 -4.5 -3.0 -4.45 -3.0 -4.35 -2.9 -4.25 -2.75 -4.0 Q-2.65 -3.85 -2.65 -3.7 L-2.65 -3.65 -2.7 -3.55 -2.8 -3.4 -2.8 -3.35 -2.7 -3.25 -2.55 -3.05 -2.55 -2.65 -2.65 -2.55 -2.65 -2.45 -2.45 -2.25 -2.45 -2.2 -2.4 -2.2 -2.25 -2.15 -2.2 -2.1 -2.15 -2.1 -2.05 -2.2 -1.95 -2.25 -1.8 -2.25 -1.6 -2.15 -1.6 -1.95 -1.5 -1.9 -1.45 -1.85 -1.4 -1.75 -1.4 -1.6 -1.35 -1.5 -1.3 -1.5 -1.15 -1.55 -0.95 -1.55 -0.75 -1.45 -0.75 -1.4 -0.7 -1.25 -0.7 -0.95 -0.65 -0.9 -0.65 -0.85 -0.45 -0.75 -0.4 -0.8 -0.3 -0.8 -0.2 -0.75 -0.15 -0.7 -0.15 -0.65 -0.1 -0.6 Q0.1 -0.5 0.15 -0.3 L0.15 -0.2 0.05 -0.15 M1.25 -0.15 L1.2 -0.2 1.2 -0.4 1.25 -0.45 1.35 -0.5 1.5 -0.55 1.55 -0.65 1.6 -0.7 2.2 -0.7 2.25 -0.65 2.25 -0.55 2.3 -0.55 2.35 -0.5 2.5 -0.65 2.55 -0.65 2.8 -0.5 2.9 -0.45 2.95 -0.4 2.95 -0.35 3.0 -0.25 3.0 -0.2 3.1 0.0 3.1 0.1 3.05 0.2 2.55 0.2 2.45 0.1 2.35 0.05 2.3 0.0 1.85 0.0 Q1.6 0.0 1.35 -0.1 L1.25 -0.15 M-12.15 -0.1 L-12.15 -0.15 -12.05 -0.25 -12.0 -0.25 -11.9 -0.3 -11.8 -0.4 -11.75 -0.4 -11.7 -0.45 Q-11.55 -0.45 -11.45 -0.5 L-11.15 -0.5 -11.05 -0.45 -10.95 -0.35 -10.85 -0.3 -10.8 -0.25 -10.8 -0.05 -10.9 0.05 -11.2 0.1 -11.45 0.1 -11.55 0.05 -11.65 0.05 -11.75 0.1 -12.0 0.1 -12.1 0.05 -12.15 0.0 -12.15 -0.1 M-0.95 -13.35 L-0.9 -13.25 -0.9 -13.0 Q-1.2 -12.8 -1.55 -12.65 L-1.85 -12.55 -2.4 -12.55 -2.45 -12.65 -2.5 -12.7 -2.5 -12.9 Q-2.4 -13.1 -2.2 -13.1 L-2.0 -13.1 -1.85 -13.15 -1.85 -13.45 -1.75 -13.5 -1.7 -13.55 -1.55 -13.6 -1.15 -13.5 Q-1.05 -13.45 -0.95 -13.35 M-2.65 -12.75 L-2.55 -12.7 -2.55 -12.6 -2.5 -12.55 -2.5 -12.4 -2.75 -12.15 -2.9 -12.1 -3.0 -12.0 -3.2 -11.9 -3.35 -11.9 -3.55 -12.0 -3.55 -12.05 -3.6 -12.15 -3.55 -12.2 -3.5 -12.3 Q-3.45 -12.4 -3.5 -12.5 L-3.45 -12.55 -3.45 -12.6 -3.3 -12.7 -3.15 -12.75 -3.05 -12.8 -2.75 -12.8 -2.65 -12.75 M-4.35 -10.8 L-4.35 -11.0 -4.3 -11.05 -4.2 -11.1 -4.15 -11.1 -4.0 -11.05 -3.8 -10.95 -3.75 -10.9 -3.75 -10.75 -3.7 -10.65 -3.7 -10.5 -3.8 -10.4 -3.9 -10.35 -4.0 -10.4 -4.05 -10.45 -4.25 -10.55 -4.25 -10.6 -4.3 -10.65 -4.3 -10.7 -4.35 -10.75 -4.35 -10.8 M-4.85 -10.85 Q-4.65 -10.85 -4.5 -10.7 L-4.35 -10.55 -4.35 -10.4 -4.3 -10.3 -4.3 -10.2 -4.4 -10.0 -4.5 -9.85 -4.55 -9.75 -4.75 -9.65 -5.05 -9.6 Q-5.1 -9.5 -5.2 -9.45 L-5.45 -9.35 -5.55 -9.35 -5.65 -9.4 -5.75 -9.5 -5.75 -9.75 -5.65 -9.85 -5.55 -9.9 -5.5 -9.95 -5.5 -10.0 -5.45 -10.1 -5.35 -10.15 -5.35 -10.35 -5.3 -10.45 -5.25 -10.5 -5.25 -10.55 -5.05 -10.75 -4.9 -10.85 -4.85 -10.85 M-5.75 -7.95 L-5.75 -7.8 -5.8 -7.65 -5.8 -7.6 -5.85 -7.6 -5.9 -7.55 -6.3 -7.55 -6.35 -7.65 -6.4 -7.7 -6.4 -7.8 -6.45 -7.85 -6.45 -7.9 -6.55 -8.1 -6.55 -8.15 -6.5 -8.2 -6.5 -8.25 -6.3 -8.35 -6.05 -8.35 -5.95 -8.3 -5.8 -8.15 -5.8 -8.1 -5.75 -7.95 M-6.25 -10.25 L-6.1 -10.2 -6.1 -9.85 -6.05 -9.75 Q-6.05 -9.65 -6.1 -9.6 L-6.25 -9.3 -6.3 -9.25 -6.4 -9.2 -6.55 -9.05 -6.6 -8.95 -6.85 -9.0 -6.95 -9.05 Q-7.0 -9.2 -6.9 -9.25 L-6.75 -9.55 -6.75 -9.6 -6.8 -9.65 -6.8 -9.85 -6.65 -10.15 Q-6.55 -10.35 -6.4 -10.35 L-6.25 -10.25" fill="#3f5923" fill-rule="evenodd" stroke="none"/>
    </g>
  </defs>
</svg>
