<?xml version="1.0" encoding="UTF-8" standalone="no"?>
<svg xmlns:ffdec="https://www.free-decompiler.com/flash" xmlns:xlink="http://www.w3.org/1999/xlink" ffdec:objectType="frame" height="332.15px" width="133.2px" xmlns="http://www.w3.org/2000/svg">
  <g transform="matrix(1.0, 0.0, 0.0, 1.0, 0.0, -5.85)">
    <use ffdec:characterId="1364" height="332.15" transform="matrix(1.0, 0.0, 0.0, 1.0, 0.0, 5.85)" width="133.2" xlink:href="#shape0"/>
  </g>
  <defs>
    <g id="shape0" transform="matrix(1.0, 0.0, 0.0, 1.0, 0.0, -5.85)">
      <path d="M53.9 38.65 L53.35 37.9 Q53.05 37.3 53.05 35.9 53.05 31.95 56.4 29.2 L57.75 28.2 57.95 28.2 57.95 28.1 Q60.9 26.25 65.6 25.25 L66.45 25.5 68.65 25.05 77.4 23.6 85.95 21.75 89.35 20.85 89.4 20.85 88.2 20.3 85.95 19.15 Q80.7 16.35 78.15 13.05 L81.2 11.55 Q83.3 10.3 84.55 8.8 L85.95 9.1 103.45 9.95 115.95 10.45 120.95 10.8 124.2 11.05 124.2 13.7 116.5 13.7 115.85 13.1 114.6 13.2 100.75 14.25 85.95 14.0 85.5 13.95 85.95 14.2 Q90.6 16.25 93.55 17.85 93.25 18.35 93.25 18.7 L93.5 19.8 Q94.6 20.55 95.15 22.15 L95.25 22.3 95.3 22.8 95.4 23.05 95.65 25.8 95.65 28.35 95.65 28.5 95.8 28.85 95.65 29.6 95.4 34.05 94.4 36.4 94.3 37.2 94.3 37.4 93.8 38.75 Q90.9 46.6 90.25 51.2 L90.25 72.05 90.25 101.6 Q89.2 105.6 89.2 113.4 89.2 119.4 90.95 135.75 L91.35 139.9 Q91.8 137.2 93.0 134.35 L95.95 126.6 Q98.2 119.9 100.5 109.5 L100.7 107.95 101.25 99.2 Q101.6 91.35 101.9 88.2 102.3 83.75 103.2 79.9 104.9 72.3 108.4 67.2 L116.05 56.7 116.75 55.8 123.95 46.1 124.2 45.75 124.2 49.95 123.2 51.55 117.15 60.85 Q115.8 64.2 114.6 67.7 113.4 70.95 112.35 74.35 L111.75 76.4 111.05 78.9 108.15 88.7 105.9 96.0 103.15 104.0 102.8 104.0 102.75 105.5 102.1 115.95 Q101.5 120.7 99.95 127.7 L97.7 137.1 92.65 157.25 92.7 159.35 92.65 163.35 92.75 164.25 93.25 167.35 99.85 182.4 Q105.75 195.8 109.5 205.25 116.05 221.9 118.9 233.95 L121.1 251.35 121.05 251.8 120.65 251.8 Q120.4 246.15 119.2 239.85 118.35 235.35 116.95 230.5 114.3 221.35 109.15 208.9 L99.8 187.2 Q96.9 180.55 94.8 174.95 95.9 182.55 95.9 194.3 95.9 197.65 93.75 204.1 L93.75 248.85 Q89.65 253.8 91.35 262.75 L91.5 263.55 97.3 272.95 Q106.0 287.15 113.15 297.15 L113.65 297.85 114.75 299.4 115.15 299.95 114.95 300.25 114.85 300.45 113.15 298.7 111.2 296.65 108.1 293.1 108.0 293.0 107.95 292.9 107.9 292.85 105.3 289.7 Q99.6 282.6 94.15 274.05 L93.7 273.3 94.05 276.95 94.05 277.4 95.9 282.85 Q94.5 280.9 92.85 278.15 L92.65 277.75 Q85.75 266.2 74.3 240.65 68.6 227.95 64.6 217.9 60.55 207.75 60.55 206.15 L57.5 192.1 Q56.15 185.55 55.35 180.8 L55.05 178.65 Q54.4 174.15 54.4 171.6 L54.45 169.45 54.5 168.25 54.1 166.2 Q52.7 159.2 52.25 150.3 51.95 144.9 51.95 126.2 L51.95 125.5 52.0 120.0 52.05 110.75 Q52.1 103.7 52.3 100.55 L52.75 94.7 Q53.6 86.55 55.35 81.35 L53.05 81.55 53.05 82.35 Q53.05 86.5 47.9 95.0 L45.0 99.45 38.65 108.65 Q35.3 113.65 34.1 116.5 L31.05 123.4 26.7 132.35 Q23.2 140.35 22.35 148.25 L22.45 149.4 24.1 163.1 Q26.05 178.75 27.25 182.2 L27.25 192.0 27.5 192.35 Q27.45 192.6 26.45 192.7 L26.4 192.7 25.75 192.7 Q22.05 192.7 20.7 188.15 20.05 185.95 19.85 182.5 L19.85 177.35 20.75 164.7 Q21.25 157.5 20.8 154.55 19.2 145.05 18.25 135.9 L17.85 131.4 Q17.15 123.25 17.15 116.65 L17.25 109.6 Q17.55 107.1 18.25 105.7 L14.45 102.25 11.55 98.9 9.7 96.7 Q4.75 90.75 0.0 87.9 L0.0 82.1 1.6 81.65 5.25 80.65 Q7.1 80.05 8.05 79.15 L22.75 79.7 30.45 80.2 41.0 79.35 55.2 78.05 Q56.55 76.7 60.2 73.85 L62.9 71.7 59.65 71.1 Q53.75 70.0 52.55 68.75 L50.7 66.4 50.05 65.55 49.25 65.4 Q36.5 63.6 31.5 64.4 L29.15 64.75 24.0 64.45 Q20.9 64.1 20.55 63.7 11.25 63.15 11.0 62.6 L4.8 61.95 4.55 60.75 6.25 59.2 6.9 59.2 6.9 58.7 Q8.85 57.4 11.25 56.7 15.05 55.6 19.2 56.2 23.3 56.75 26.65 58.75 L28.4 59.9 28.7 60.2 28.6 60.05 28.85 59.75 Q29.5 59.1 31.2 58.25 L35.5 56.15 Q41.35 52.95 42.15 48.8 42.15 45.35 44.5 43.0 47.65 39.7 54.65 39.75 L55.5 39.75 53.9 38.65 M100.65 22.5 L100.7 21.6 101.0 22.15 101.25 22.4 100.65 22.5 M87.45 88.05 L87.45 50.4 Q88.65 46.6 91.15 40.2 90.8 39.9 90.8 38.45 90.8 37.1 91.9 33.15 L91.9 33.1 Q92.0 31.45 92.75 29.65 L92.95 28.1 92.95 27.8 Q93.45 26.9 93.35 25.65 L92.95 24.25 85.95 25.85 72.05 29.2 70.55 29.55 69.65 34.95 67.95 45.35 68.4 45.15 69.2 45.15 Q69.4 45.2 69.4 46.0 L69.15 47.55 68.9 49.0 68.8 49.25 68.4 49.65 68.2 49.6 Q65.3 50.95 64.35 53.05 63.7 54.5 63.8 57.15 L63.85 61.45 Q63.7 62.8 63.1 63.95 L63.0 64.5 63.0 64.8 62.95 65.5 68.75 66.1 69.05 65.9 69.25 66.5 69.85 66.1 Q65.3 82.4 63.45 90.35 L62.65 94.05 Q61.35 100.15 60.55 105.65 59.8 110.5 59.5 114.9 L59.5 121.75 59.5 155.6 Q59.1 158.4 58.35 167.8 57.7 175.4 56.8 180.05 L56.65 180.1 56.55 180.15 56.8 181.55 Q57.55 185.8 58.7 190.3 L59.0 191.5 61.05 198.45 Q64.35 208.75 69.75 221.4 73.55 230.35 81.2 246.9 L89.4 260.15 89.35 257.6 Q89.35 254.35 89.5 252.35 89.75 248.8 90.55 246.7 L90.55 221.65 88.4 214.2 Q85.9 205.25 82.65 200.05 76.4 190.0 75.2 185.25 74.6 182.9 74.55 179.75 L74.55 172.5 74.65 153.55 75.05 153.55 75.3 162.2 75.3 176.2 Q75.7 174.7 76.9 171.75 L79.55 164.8 79.55 144.95 79.1 134.8 79.0 131.5 78.65 124.7 79.05 124.55 79.4 130.55 80.3 154.75 Q80.3 163.9 80.0 165.95 79.25 171.55 75.65 178.2 L75.3 178.3 75.3 182.45 Q76.7 186.95 79.75 193.35 L85.2 204.55 Q88.65 211.65 90.55 217.2 L90.55 201.95 Q91.2 200.95 92.1 193.4 92.95 186.35 92.95 183.7 92.95 179.25 91.7 173.3 L91.35 174.8 Q88.95 169.65 88.9 159.8 L88.9 151.8 Q88.8 147.15 88.25 143.9 87.2 138.0 86.7 126.7 85.0 122.95 83.6 119.05 80.8 111.0 79.45 102.15 79.0 98.9 78.65 94.7 L78.45 91.95 Q77.9 83.55 77.9 71.9 L78.0 58.8 78.05 57.2 Q78.3 50.4 79.15 45.0 L79.55 45.0 79.1 50.95 78.8 55.3 Q78.8 56.55 78.9 55.9 L78.9 74.25 Q80.2 79.55 83.45 88.3 L83.85 89.3 84.55 91.15 86.75 97.5 87.45 99.7 87.45 88.05 M108.7 73.65 Q107.45 75.5 106.5 77.9 103.9 84.3 103.2 94.25 L103.2 94.65 106.05 89.5 106.2 89.2 Q109.05 84.15 110.05 79.55 110.5 77.45 110.55 75.45 L110.55 74.7 112.25 68.3 108.7 73.65 M86.55 99.15 L83.6 91.7 83.0 90.05 81.7 86.4 78.9 77.4 78.9 88.2 78.7 91.9 78.75 94.65 Q79.2 101.6 81.95 110.4 83.15 114.25 85.55 120.3 L86.55 122.7 86.45 119.25 86.35 113.0 86.4 111.0 Q86.45 104.4 87.25 100.85 L86.55 99.15 M44.85 46.25 Q45.5 47.45 45.65 48.7 L45.8 51.85 Q45.8 53.6 45.1 57.0 L44.0 61.7 44.05 62.4 44.05 63.1 48.9 63.75 50.2 63.95 55.2 64.6 55.2 63.95 55.65 53.4 56.15 41.8 Q44.2 44.7 43.55 46.25 L44.85 46.25 M58.65 41.2 L58.7 43.55 Q58.7 48.95 58.15 54.95 57.7 60.6 56.9 64.8 L61.2 65.3 60.7 65.05 Q60.55 64.8 60.55 62.9 60.55 59.9 61.1 56.8 62.2 50.75 65.0 48.55 L65.05 48.35 65.3 47.85 65.3 47.7 Q65.3 43.85 65.9 39.3 66.45 35.05 67.45 32.45 L67.65 30.25 64.45 31.05 62.05 31.05 61.8 31.45 Q61.55 31.5 61.5 30.2 L61.2 30.35 Q56.45 33.1 55.45 35.05 56.55 36.85 58.55 39.45 L58.5 40.15 58.6 40.7 58.95 41.1 58.65 41.2 M63.55 24.85 L63.95 24.7 64.4 24.85 63.55 24.85 M66.45 48.8 L67.55 49.1 67.5 48.25 67.45 48.8 66.6 48.8 66.55 48.7 66.45 48.8 M7.5 60.35 Q20.6 61.8 21.6 62.6 L28.3 62.35 Q25.65 60.85 17.8 60.05 10.45 59.35 7.6 60.05 L7.5 60.05 7.25 60.35 7.5 60.35 M30.9 62.35 L31.1 62.65 31.45 62.35 31.7 62.15 32.5 61.55 41.8 62.8 41.8 58.75 41.9 58.8 Q41.95 57.35 42.35 54.1 L29.2 60.6 30.9 62.35 M28.6 83.15 L28.55 82.65 26.9 82.35 19.2 81.3 Q8.2 81.3 3.95 84.0 L1.4 85.65 Q5.3 87.6 9.4 92.1 L13.8 97.4 14.15 97.85 Q16.9 101.25 18.4 102.65 22.35 100.9 25.15 96.1 L25.2 96.0 26.65 93.0 Q29.05 87.25 28.6 83.15 M30.15 82.9 L29.95 82.85 29.95 82.95 30.1 83.6 30.2 86.4 Q30.2 90.55 27.0 95.6 L26.75 96.0 23.75 100.55 Q21.55 103.9 20.0 106.85 L19.75 106.7 Q19.45 110.55 19.45 116.65 19.45 120.05 20.4 129.85 L21.45 140.25 Q21.95 138.65 22.8 136.55 L24.85 130.9 Q24.85 129.1 25.65 126.7 26.55 123.85 28.55 120.2 30.75 116.2 36.95 106.7 L42.1 98.65 43.9 95.7 44.2 95.2 45.8 92.35 Q49.1 86.3 50.3 81.8 L43.25 82.55 34.65 83.45 30.15 82.9 M61.9 67.9 L61.9 67.75 61.65 67.75 61.65 67.4 51.15 65.7 51.35 65.95 53.55 68.75 Q55.2 70.45 60.2 70.7 L63.65 71.05 65.8 69.05 66.6 68.25 62.7 67.6 62.65 67.75 62.55 67.75 62.55 67.9 61.9 67.9 M57.35 147.45 L57.35 142.0 57.35 140.95 57.35 114.35 58.55 106.85 59.35 100.35 60.1 94.25 61.2 85.95 Q62.3 78.85 64.1 74.2 L56.25 81.3 55.25 94.55 Q54.7 102.15 54.45 109.3 54.1 117.35 54.1 124.7 L54.1 138.6 54.1 146.6 55.75 156.6 56.65 162.25 57.35 155.05 57.35 147.45 M22.95 180.35 L23.05 183.25 Q23.3 185.2 24.0 186.8 L24.55 186.8 Q24.55 185.15 23.95 182.95 L22.95 180.35 M55.8 173.35 L55.55 172.6 55.7 174.1 55.8 173.35" fill="#716143" fill-rule="evenodd" stroke="none"/>
      <path d="M124.2 13.7 L124.2 45.75 123.95 46.1 116.75 55.8 116.05 56.7 108.4 67.2 Q104.9 72.3 103.2 79.9 102.3 83.75 101.9 88.2 101.6 91.35 101.25 99.2 L100.7 107.95 Q98.15 96.15 94.65 85.05 L91.2 74.9 91.1 74.65 90.95 73.7 90.25 72.05 90.25 51.2 Q90.9 46.6 93.8 38.75 L94.3 37.4 94.3 37.2 94.4 36.4 95.4 34.05 95.65 29.6 95.8 28.85 95.65 28.5 95.65 28.35 95.65 25.8 95.4 23.05 95.3 22.8 95.25 22.3 95.15 22.15 Q94.6 20.55 93.5 19.8 L93.25 18.7 Q93.25 18.35 93.55 17.85 90.6 16.25 85.95 14.2 L85.5 13.95 85.95 14.0 100.75 14.25 114.6 13.2 115.85 13.1 116.5 13.7 124.2 13.7 M124.2 49.95 L124.2 82.1 Q123.15 84.15 121.7 85.6 121.2 86.1 120.2 86.1 L118.2 86.1 Q112.5 111.9 111.65 136.75 L111.35 136.3 Q110.75 135.35 110.95 134.2 L107.45 133.7 102.45 134.7 102.0 134.15 Q100.15 131.15 99.95 127.7 101.5 120.7 102.1 115.95 L102.75 105.5 102.8 104.0 103.15 104.0 105.9 96.0 108.15 88.7 111.05 78.9 111.75 76.4 112.35 74.35 Q113.4 70.95 114.6 67.7 115.8 64.2 117.15 60.85 L123.2 51.55 124.2 49.95 M115.0 303.5 L114.6 304.35 113.45 306.25 109.95 310.75 Q97.05 311.85 85.5 318.9 64.25 331.75 38.45 332.95 19.0 333.35 0.35 337.9 L0.0 338.0 0.0 225.5 Q7.0 220.0 12.0 212.1 13.7 199.15 11.0 186.2 L10.95 185.75 Q14.35 192.8 16.6 201.8 17.6 190.85 19.85 182.5 20.05 185.95 20.7 188.15 22.05 192.7 25.75 192.7 L26.4 192.7 26.45 192.75 26.45 192.7 Q27.45 192.6 27.5 192.35 L27.25 192.0 27.25 182.2 Q26.05 178.75 24.1 163.1 26.95 171.4 32.45 178.7 L39.45 179.2 40.9 180.65 Q41.05 175.6 42.35 169.2 L42.45 168.2 41.45 166.7 41.95 148.7 41.95 149.7 42.95 151.2 44.3 172.75 44.8 179.1 46.95 178.2 Q48.2 181.9 51.45 182.25 53.65 182.55 54.95 181.3 L55.35 180.8 Q56.15 185.55 57.5 192.1 L60.55 206.15 Q60.55 207.75 64.6 217.9 68.6 227.95 74.3 240.65 85.75 266.2 92.65 277.75 L92.85 278.15 Q94.5 280.9 95.9 282.85 L94.05 277.4 94.05 276.95 93.7 273.3 94.15 274.05 Q99.6 282.6 105.3 289.7 L107.45 294.75 109.65 295.85 110.4 296.25 111.2 296.65 113.15 298.7 114.85 300.45 114.95 300.25 115.45 302.25 115.0 303.5 M28.4 59.9 L28.85 59.75 28.6 60.05 28.7 60.2 28.4 59.9 M54.65 39.75 L53.9 38.65 55.5 39.75 54.65 39.75 M100.65 22.5 L101.25 22.4 101.0 22.15 100.7 21.6 100.65 22.5 M59.5 121.75 L59.5 114.9 Q59.8 110.5 60.55 105.65 61.35 100.15 62.65 94.05 L63.45 90.35 Q65.3 82.4 69.85 66.1 L69.25 66.5 69.05 65.9 68.75 66.1 62.95 65.5 63.0 64.8 63.0 64.5 63.1 63.95 Q63.7 62.8 63.85 61.45 L63.8 57.15 Q63.7 54.5 64.35 53.05 65.3 50.95 68.2 49.6 L68.4 49.65 68.8 49.25 68.9 49.0 69.15 47.55 69.4 46.0 Q69.4 45.2 69.2 45.15 L68.4 45.15 67.95 45.35 69.65 34.95 70.55 29.55 72.05 29.2 85.95 25.85 92.95 24.25 93.35 25.65 Q93.45 26.9 92.95 27.8 L92.95 28.1 92.75 29.65 Q92.0 31.45 91.9 33.1 L91.9 33.15 Q90.8 37.1 90.8 38.45 90.8 39.9 91.15 40.2 88.65 46.6 87.45 50.4 L87.45 88.05 87.35 89.45 87.1 95.0 86.75 97.5 84.55 91.15 83.85 89.3 83.45 88.3 Q80.2 79.55 78.9 74.25 L78.9 55.9 Q78.8 56.55 78.8 55.3 L79.1 50.95 79.55 45.0 79.15 45.0 Q78.3 50.4 78.05 57.2 L78.0 58.8 77.9 71.9 Q77.9 83.55 78.45 91.95 L78.65 94.7 Q79.0 98.9 79.45 102.15 80.8 111.0 83.6 119.05 L81.45 118.7 Q80.9 126.6 79.4 130.55 L79.05 124.55 78.65 124.7 79.0 131.5 77.95 133.2 73.15 132.4 Q72.85 138.75 68.5 143.75 L66.8 142.2 68.95 137.7 69.2 131.75 68.95 131.7 67.45 130.2 65.45 130.2 62.95 128.2 62.45 123.7 59.5 121.75 M108.7 73.65 L112.25 68.3 110.55 74.7 110.55 75.45 Q110.5 77.45 110.05 79.55 109.05 84.15 106.2 89.2 L106.05 89.5 103.2 94.65 103.2 94.25 Q103.9 84.3 106.5 77.9 107.45 75.5 108.7 73.65 M85.55 120.3 Q83.15 114.25 81.95 110.4 79.2 101.6 78.75 94.65 L78.7 91.9 78.9 88.2 78.9 77.4 81.7 86.4 83.0 90.05 83.6 91.7 86.55 99.15 Q85.9 104.9 86.4 111.0 L86.35 113.0 86.45 119.25 85.95 120.7 85.55 120.3 M49.5 47.65 L49.4 47.7 49.4 47.8 49.5 47.65 M58.65 41.2 L58.95 41.1 58.6 40.7 58.5 40.15 58.55 39.45 Q56.55 36.85 55.45 35.05 56.45 33.1 61.2 30.35 L61.5 30.2 Q61.55 31.5 61.8 31.45 L62.05 31.05 64.45 31.05 67.65 30.25 67.45 32.45 Q66.45 35.05 65.9 39.3 65.3 43.85 65.3 47.7 L65.3 47.85 65.05 48.35 65.0 48.55 Q62.2 50.75 61.1 56.8 60.55 59.9 60.55 62.9 60.55 64.8 60.7 65.05 L61.2 65.3 56.9 64.8 Q57.7 60.6 58.15 54.95 58.7 48.95 58.7 43.55 L58.65 41.2 M44.85 46.25 L43.55 46.25 Q44.2 44.7 56.15 41.8 L55.65 53.4 55.2 63.95 55.2 64.6 50.2 63.95 48.9 63.75 44.05 63.1 44.05 62.4 44.0 61.7 45.1 57.0 Q45.8 53.6 45.8 51.85 L45.65 48.7 Q45.5 47.45 44.85 46.25 M66.45 48.8 L66.55 48.7 66.6 48.8 67.45 48.8 67.5 48.25 67.55 49.1 66.45 48.8 M7.6 60.05 Q10.45 59.35 17.8 60.05 25.65 60.85 28.3 62.35 L21.6 62.6 Q20.6 61.8 7.5 60.35 L7.6 60.05 M31.7 62.15 L30.9 62.35 29.2 60.6 42.35 54.1 Q41.95 57.35 41.9 58.8 L41.8 58.75 41.8 62.8 32.5 61.55 31.7 62.15 M25.2 96.0 Q27.1 91.35 28.15 86.1 L28.45 83.2 28.6 83.15 Q29.05 87.25 26.65 93.0 L25.2 96.0 M29.95 82.95 L30.15 82.9 34.65 83.45 43.25 82.55 50.3 81.8 Q49.1 86.3 45.8 92.35 L44.2 95.2 43.9 95.7 42.65 97.35 42.1 98.65 36.95 106.7 Q30.75 116.2 28.55 120.2 26.55 123.85 25.65 126.7 24.85 129.1 24.85 130.9 L22.8 136.55 Q21.95 138.65 21.45 140.25 L20.4 129.85 Q19.45 120.05 19.45 116.65 19.45 110.55 19.75 106.7 L20.0 106.85 Q21.55 103.9 23.75 100.55 L26.75 96.0 27.0 95.6 Q30.2 90.55 30.2 86.4 L30.1 83.6 29.95 82.95 M52.0 120.0 L51.95 125.5 51.95 126.2 41.95 146.7 41.95 148.7 Q41.0 148.1 40.95 147.2 L40.95 145.7 40.95 144.2 Q48.0 135.2 50.65 124.8 L52.0 120.0 M54.1 166.2 L54.5 168.25 54.45 169.45 54.1 166.2 M114.75 299.4 L113.65 297.85 114.45 298.25 114.75 299.4 M54.1 138.6 Q55.45 143.15 57.35 147.45 L57.35 155.05 56.65 162.25 55.75 156.6 54.1 146.6 54.1 138.6 M56.65 180.1 L56.8 181.55 56.55 180.15 56.65 180.1 M55.8 173.35 L55.7 174.1 55.55 172.6 55.8 173.35" fill="#8b7854" fill-rule="evenodd" stroke="none"/>
      <path d="M82.95 7.2 L80.9 7.65 81.95 6.2 84.15 5.85 82.95 7.2" fill="#96815a" fill-rule="evenodd" stroke="none"/>
      <path d="M111.65 136.75 Q111.1 150.7 112.15 164.4 114.8 199.8 118.9 233.95 116.05 221.9 109.5 205.25 105.75 195.8 99.85 182.4 L93.25 167.35 92.75 164.25 92.65 163.35 92.7 159.35 92.65 157.25 97.7 137.1 99.95 127.7 Q100.15 131.15 102.0 134.15 L102.45 134.7 107.45 133.7 110.95 134.2 Q110.75 135.35 111.35 136.3 L111.65 136.75 M121.1 251.35 Q123.45 269.05 126.2 286.4 L130.2 292.4 133.2 301.45 Q130.55 305.1 126.45 308.25 L122.45 308.25 115.95 304.75 115.1 303.65 115.0 303.5 115.45 302.25 114.95 300.25 115.15 299.95 114.75 299.4 114.45 298.25 113.65 297.85 113.15 297.15 Q106.0 287.15 97.3 272.95 L91.5 263.55 91.35 262.75 Q89.65 253.8 93.75 248.85 L93.75 204.1 Q95.9 197.65 95.9 194.3 95.9 182.55 94.8 174.95 96.9 180.55 99.8 187.2 L109.15 208.9 Q114.3 221.35 116.95 230.5 118.35 235.35 119.2 239.85 120.4 246.15 120.65 251.8 L121.05 251.8 121.1 251.35 M90.25 72.05 L90.95 73.7 91.1 74.65 91.2 74.9 94.65 85.05 Q98.15 96.15 100.7 107.95 L100.5 109.5 Q98.2 119.9 95.95 126.6 L93.0 134.35 Q91.8 137.2 91.35 139.9 L90.95 135.75 Q89.2 119.4 89.2 113.4 89.2 105.6 90.25 101.6 L90.25 72.05 M59.5 121.75 L62.45 123.7 62.95 128.2 65.45 130.2 67.45 130.2 68.95 131.7 69.2 131.75 68.95 137.7 66.8 142.2 68.5 143.75 Q72.85 138.75 73.15 132.4 L77.95 133.2 79.0 131.5 79.1 134.8 79.55 144.95 79.55 164.8 76.9 171.75 Q75.7 174.7 75.3 176.2 L75.3 162.2 75.05 153.55 74.65 153.55 74.55 172.5 74.55 179.75 Q74.6 182.9 75.2 185.25 76.4 190.0 82.65 200.05 85.9 205.25 88.4 214.2 L90.55 221.65 90.55 246.7 Q89.75 248.8 89.5 252.35 89.35 254.35 89.35 257.6 L89.4 260.15 81.2 246.9 Q73.55 230.35 69.75 221.4 64.35 208.75 61.05 198.45 L59.0 191.5 58.7 190.3 Q57.55 185.8 56.8 181.55 L56.65 180.1 56.8 180.05 Q57.7 175.4 58.35 167.8 59.1 158.4 59.5 155.6 L59.5 121.75 M79.4 130.55 Q80.9 126.6 81.45 118.7 L83.6 119.05 Q85.0 122.95 86.7 126.7 87.2 138.0 88.25 143.9 88.8 147.15 88.9 151.8 L88.9 159.8 Q88.95 169.65 91.35 174.8 L91.7 173.3 Q92.95 179.25 92.95 183.7 92.95 186.35 92.1 193.4 91.2 200.95 90.55 201.95 L90.55 217.2 Q88.65 211.65 85.2 204.55 L79.75 193.35 Q76.7 186.95 75.3 182.45 L75.3 178.3 75.65 178.2 Q79.25 171.55 80.0 165.95 80.3 163.9 80.3 154.75 L79.4 130.55 M86.75 97.5 L87.1 95.0 87.35 89.45 87.45 88.05 87.45 99.7 86.75 97.5 M85.55 120.3 L85.95 120.7 86.45 119.25 86.55 122.7 85.55 120.3 M86.4 111.0 Q85.9 104.9 86.55 99.15 L87.25 100.85 Q86.45 104.4 86.4 111.0 M108.1 293.1 L111.2 296.65 110.4 296.25 109.55 295.05 108.1 293.1" fill="#7e6e4d" fill-rule="evenodd" stroke="none"/>
      <path d="M49.5 47.65 L49.4 47.8 49.4 47.7 49.5 47.65 M7.6 60.05 L7.5 60.35 7.25 60.35 7.5 60.05 7.6 60.05 M31.7 62.15 L31.45 62.35 31.1 62.65 30.9 62.35 31.7 62.15 M61.9 67.9 L62.55 67.9 62.55 67.75 62.65 67.75 62.7 67.6 66.6 68.25 65.8 69.05 63.65 71.05 60.2 70.7 Q55.2 70.45 53.55 68.75 L51.35 65.95 51.15 65.7 61.65 67.4 61.65 67.75 61.9 67.75 61.9 67.9 M55.05 178.65 L55.35 180.8 54.95 181.3 54.9 181.25 55.05 178.65 M108.1 293.1 L109.55 295.05 110.4 296.25 109.65 295.85 108.1 293.1" fill="#ac996d" fill-rule="evenodd" stroke="none"/>
      <path d="M0.0 225.5 L0.0 87.9 Q4.75 90.75 9.7 96.7 L11.55 98.9 14.45 102.25 18.25 105.7 Q17.55 107.1 17.25 109.6 L17.15 116.65 Q17.15 123.25 17.85 131.4 L18.25 135.9 Q19.2 145.05 20.8 154.55 21.25 157.5 20.75 164.7 L19.85 177.35 19.85 182.5 Q17.6 190.85 16.6 201.8 14.35 192.8 10.95 185.75 L11.0 186.2 Q13.7 199.15 12.0 212.1 7.0 220.0 0.0 225.5 M25.2 96.0 L25.15 96.1 Q22.35 100.9 18.4 102.65 16.9 101.25 14.15 97.85 L13.8 97.4 9.4 92.1 Q5.3 87.6 1.4 85.65 L3.95 84.0 Q8.2 81.3 19.2 81.3 L26.9 82.35 28.55 82.65 28.6 83.15 28.45 83.2 28.15 86.1 Q27.1 91.35 25.2 96.0 M30.15 82.9 L29.95 82.95 29.95 82.85 30.15 82.9 M42.1 98.65 L42.65 97.35 43.9 95.7 42.1 98.65 M24.1 163.1 L22.45 149.4 22.35 148.25 Q23.2 140.35 26.7 132.35 L31.05 123.4 34.1 116.5 Q35.3 113.65 38.65 108.65 L45.0 99.45 47.9 95.0 Q53.05 86.5 53.05 82.35 L53.05 81.55 55.35 81.35 Q53.6 86.55 52.75 94.7 L52.3 100.55 Q52.1 103.7 52.05 110.75 L52.0 120.0 50.65 124.8 Q48.0 135.2 40.95 144.2 L40.95 145.7 40.95 147.2 Q41.0 148.1 41.95 148.7 L41.95 146.7 51.95 126.2 Q51.95 144.9 52.25 150.3 52.7 159.2 54.1 166.2 L54.45 169.45 54.4 171.6 Q54.4 174.15 55.05 178.65 L54.9 181.25 54.95 181.3 Q53.65 182.55 51.45 182.25 48.2 181.9 46.95 178.2 L44.8 179.1 44.3 172.75 42.95 151.2 41.95 149.7 41.95 148.7 41.45 166.7 42.45 168.2 42.35 169.2 Q41.05 175.6 40.9 180.65 L39.45 179.2 32.45 178.7 Q26.95 171.4 24.1 163.1 M105.3 289.7 L107.9 292.85 107.95 292.9 108.0 293.0 108.1 293.1 109.65 295.85 107.45 294.75 105.3 289.7 M54.1 138.6 L54.1 124.7 Q54.1 117.35 54.45 109.3 54.7 102.15 55.25 94.55 L56.25 81.3 64.1 74.2 Q62.3 78.85 61.2 85.95 L60.1 94.25 59.35 100.35 58.55 106.85 57.35 114.35 57.35 140.95 57.35 142.0 57.35 147.45 Q55.45 143.15 54.1 138.6 M26.45 192.7 L26.45 192.75 26.4 192.7 26.45 192.7 M22.95 180.35 L23.95 182.95 Q24.55 185.15 24.55 186.8 L24.0 186.8 Q23.3 185.2 23.05 183.25 L22.95 180.35" fill="#9e885f" fill-rule="evenodd" stroke="none"/>
    </g>
  </defs>
</svg>
