<?xml version="1.0" encoding="UTF-8" standalone="no"?>
<svg xmlns:ffdec="https://www.free-decompiler.com/flash" xmlns:xlink="http://www.w3.org/1999/xlink" ffdec:objectType="frame" height="75.2px" width="1030.95px" xmlns="http://www.w3.org/2000/svg">
  <g transform="matrix(1.0, 0.0, 0.0, 1.0, 0.0, 0.0)">
    <use ffdec:characterId="286" height="75.2" transform="matrix(1.0, 0.0, 0.0, 1.0, 0.0, 0.0)" width="1030.95" xlink:href="#shape0"/>
  </g>
  <defs>
    <g id="shape0" transform="matrix(1.0, 0.0, 0.0, 1.0, 0.0, 0.0)">
      <path d="M892.95 29.55 L896.7 32.15 896.85 32.3 938.55 61.35 936.75 61.35 895.5 32.5 895.05 32.2 894.95 32.15 892.65 30.6 890.95 29.4 869.2 14.25 868.8 13.95 860.55 14.0 864.15 16.55 881.05 28.6 926.7 61.35 924.7 61.35 879.0 28.65 863.05 17.15 862.15 16.5 859.05 14.25 858.9 14.15 858.7 14.0 857.35 14.0 853.5 14.0 855.55 15.45 855.95 15.75 859.0 17.95 860.15 18.8 873.85 28.75 918.3 61.35 916.15 61.35 871.45 28.65 859.0 19.45 855.1 16.6 851.55 14.0 846.4 14.0 853.1 18.9 856.15 21.2 857.65 22.3 866.8 29.15 909.75 61.35 907.8 61.35 864.65 29.15 854.95 21.9 Q854.8 21.75 854.65 21.7 L852.5 20.05 851.85 19.55 851.8 19.55 844.35 14.0 837.35 14.0 842.35 17.75 847.25 21.5 850.9 24.25 859.45 30.75 899.2 61.35 897.1 61.35 857.0 30.65 849.65 24.95 845.85 22.0 840.2 17.65 835.5 14.0 830.1 14.0 857.0 34.9 890.75 61.35 888.45 61.35 854.75 34.95 844.05 26.55 843.9 26.4 841.45 24.5 840.7 23.9 832.1 17.15 828.15 14.0 822.35 14.0 823.25 14.7 834.9 24.0 836.65 25.4 838.65 27.0 843.05 30.5 881.35 61.35 879.25 61.35 862.2 47.75 858.75 45.0 840.75 30.55 836.6 27.2 835.1 26.0 821.25 14.75 820.3 14.0 811.3 14.05 828.9 28.5 868.5 61.35 866.2 61.35 826.7 28.5 813.45 17.4 809.45 14.05 804.45 14.05 806.55 15.75 825.75 31.9 860.35 61.35 858.55 61.35 823.95 32.05 809.1 19.35 802.95 14.05 796.8 14.05 805.65 21.85 851.05 61.35 848.9 61.35 803.4 21.55 Q800.25 18.9 794.65 14.05 L789.9 14.05 799.6 22.65 808.65 30.7 809.25 31.25 843.0 61.35 841.15 61.35 808.05 31.9 806.85 30.8 797.9 22.85 788.15 14.05 785.0 14.1 803.8 31.1 804.05 31.3 805.8 32.9 837.25 61.35 835.05 61.35 804.4 33.5 802.95 32.15 802.05 31.35 783.1 14.1 776.8 14.1 777.45 14.65 792.6 28.65 796.45 32.25 799.55 35.15 827.6 61.35 825.7 61.35 797.95 35.5 794.9 32.7 790.75 28.8 779.5 18.15 775.2 14.1 768.45 14.1 817.5 61.35 815.15 61.35 774.45 22.05 766.35 14.1 762.85 14.1 769.35 20.45 781.9 32.9 810.7 61.35 808.65 61.35 779.75 32.8 767.15 20.55 760.7 14.1 756.1 14.1 761.5 19.25 780.25 38.1 803.3 61.35 801.25 61.35 778.2 38.1 764.1 23.75 754.7 14.1 747.8 14.1 793.15 61.35 790.85 61.35 759.55 28.7 747.45 15.9 745.75 14.1 742.55 14.1 755.05 27.35 786.75 61.35 784.85 61.35 753.05 27.4 742.5 15.95 740.75 14.1 736.95 14.1 737.65 14.85 744.35 22.1 780.3 61.35 778.1 61.35 758.25 39.6 742.15 22.2 735.55 14.85 734.9 14.1 730.85 14.1 731.95 15.45 757.6 44.1 757.9 44.5 773.0 61.35 770.7 61.35 729.4 14.1 722.85 14.15 738.95 32.75 739.2 33.15 763.55 61.35 761.65 61.35 737.35 33.05 736.85 32.6 720.95 14.15 712.05 14.15 724.55 29.25 750.8 61.35 748.65 61.35 722.3 29.3 710.0 14.15 704.45 14.15 716.65 29.4 741.8 61.35 739.35 61.35 714.1 29.3 702.25 14.15 696.75 14.15 703.3 22.7 708.7 29.85 732.5 61.35 730.3 61.35 706.35 29.85 694.55 14.15 686.95 14.15 689.8 17.95 699.7 31.5 721.05 61.35 718.75 61.35 709.55 48.6 708.7 47.4 697.1 31.4 687.5 17.85 684.9 14.15 678.95 14.2 Q687.2 26.65 696.65 39.3 L701.65 46.5 704.7 50.85 711.9 61.35 709.35 61.35 701.05 49.35 699.7 47.35 691.8 35.95 679.05 17.3 676.95 14.2 670.75 14.2 671.15 14.8 677.6 24.45 682.05 31.3 701.75 61.35 699.45 61.35 679.6 31.3 668.9 14.85 668.45 14.2 658.75 14.2 668.1 29.15 687.85 61.35 685.3 61.35 665.65 29.15 658.75 17.6 656.75 14.2 651.25 14.2 652.3 15.9 662.4 32.75 679.0 61.35 677.05 61.35 660.35 32.9 652.7 19.6 649.65 14.2 643.0 14.2 647.3 22.2 669.0 61.35 666.6 61.35 645.05 21.9 640.65 14.2 635.5 14.2 640.2 23.05 660.25 61.35 658.25 61.35 638.25 23.25 633.6 14.2 630.15 14.2 638.15 29.95 638.1 29.95 642.25 38.1 654.0 61.35 651.6 61.35 628.1 14.2 621.3 14.25 621.55 14.75 628.55 29.35 629.9 32.25 631.4 35.45 631.9 36.55 631.95 36.55 643.55 61.35 641.55 61.35 629.5 35.85 627.95 32.55 626.5 29.5 621.45 18.35 619.6 14.25 612.2 14.25 632.6 61.35 630.1 61.35 613.35 22.4 609.95 14.25 606.1 14.25 608.85 20.8 614.1 33.8 625.3 61.35 623.0 61.35 611.8 33.7 606.45 20.9 603.85 14.25 598.85 14.25 601.15 19.55 608.8 39.25 617.25 61.35 615.0 61.35 606.55 39.25 601.0 24.2 597.35 14.25 589.8 14.25 606.25 61.35 603.75 61.35 599.8 50.15 596.25 35.6 Q593.1 25.1 588.5 17.05 L588.2 16.05 587.6 14.25 583.95 14.25 587.55 24.45 588.7 28.0 599.55 61.35 597.3 61.35 586.55 28.0 582.8 16.05 582.25 14.25 578.1 14.25 578.3 14.95 580.65 22.5 592.3 61.35 589.95 61.35 583.85 40.8 578.2 22.6 576.05 14.95 575.85 14.25 567.35 14.25 567.6 15.6 575.45 45.55 575.5 46.05 579.5 61.35 577.1 61.35 Q569.8 31.65 565.8 14.25 L558.65 14.25 563.1 33.65 563.1 34.05 565.15 43.05 565.6 44.95 569.3 61.35 567.2 61.35 563.8 45.9 563.15 42.9 561.15 33.95 560.85 33.5 556.6 14.25 546.9 14.3 549.55 28.4 549.85 30.0 550.4 32.9 555.45 61.35 553.05 61.35 549.05 39.25 548.2 32.5 548.25 32.5 548.1 31.7 548.0 30.9 547.7 28.7 Q546.25 18.6 545.05 14.3 L538.6 14.3 538.95 16.3 Q539.2 22.85 540.35 34.5 542.4 54.85 545.65 61.3 L545.65 61.35 543.0 61.35 538.45 30.05 536.25 14.3 529.25 14.3 Q531.6 48.25 535.4 59.65 L535.55 61.35 533.15 61.35 529.6 30.65 527.85 14.3 527.7 14.3 527.45 14.6 519.65 14.75 519.95 18.2 521.15 32.4 523.15 61.35 520.6 61.35 519.1 41.0 519.1 24.6 Q518.45 21.65 518.45 16.15 L518.5 14.75 513.2 14.45 512.4 14.4 512.5 16.15 Q512.5 21.65 511.85 24.6 L511.85 41.0 510.35 61.35 507.8 61.35 509.8 32.4 511.0 18.2 511.35 14.3 503.1 14.3 501.35 30.65 500.7 36.65 500.3 39.9 497.8 61.35 495.4 61.35 495.55 59.65 Q497.75 53.15 499.45 39.3 L499.8 36.3 501.7 14.3 494.7 14.3 492.5 30.05 492.1 33.0 491.7 35.75 487.95 61.35 485.3 61.35 485.3 61.3 Q488.35 55.25 490.35 37.0 L490.6 34.5 490.8 32.45 Q491.8 22.25 492.0 16.3 L492.35 14.3 485.9 14.3 Q484.55 19.05 482.95 30.9 L482.7 33.0 482.6 33.75 481.9 39.25 477.9 61.35 475.5 61.35 480.7 32.2 480.75 32.05 481.1 30.0 484.05 14.3 474.35 14.25 471.65 26.55 470.6 31.35 470.1 33.5 469.8 33.95 463.75 61.35 461.65 61.35 467.85 34.05 467.85 33.65 468.6 30.35 469.65 25.9 472.3 14.25 465.15 14.25 453.85 61.35 451.45 61.35 455.45 46.05 455.5 45.55 463.35 15.6 463.6 14.25 455.1 14.25 454.9 14.95 452.75 22.6 447.1 40.8 441.0 61.35 438.65 61.35 450.3 22.5 452.65 14.95 452.85 14.25 448.7 14.25 448.15 16.05 444.4 28.0 433.65 61.35 431.4 61.35 442.25 28.0 443.4 24.45 447.0 14.25 443.35 14.25 442.75 16.05 442.45 17.05 Q437.85 25.1 434.7 35.6 433.8 38.55 431.15 50.15 L427.2 61.35 424.7 61.35 441.15 14.25 433.6 14.25 429.95 24.2 424.4 39.25 415.95 61.35 413.7 61.35 Q417.65 50.85 422.15 39.25 L429.8 19.55 432.1 14.25 427.1 14.25 424.5 20.9 419.15 33.7 407.95 61.35 405.65 61.35 416.85 33.8 422.1 20.8 424.85 14.25 421.0 14.25 417.6 22.4 400.85 61.35 398.35 61.35 418.75 14.25 411.35 14.25 409.5 18.35 404.45 29.5 389.4 61.35 387.4 61.35 402.4 29.35 409.4 14.75 409.65 14.25 402.85 14.2 379.35 61.35 376.95 61.35 400.8 14.2 397.35 14.2 392.7 23.25 372.7 61.35 370.7 61.35 390.75 23.05 395.45 14.2 390.3 14.2 385.9 21.9 364.35 61.35 361.95 61.35 383.65 22.2 387.95 14.2 381.3 14.2 378.25 19.6 370.6 32.9 353.9 61.35 351.95 61.35 368.55 32.75 378.65 15.9 379.7 14.2 374.2 14.2 372.2 17.6 365.3 29.15 345.65 61.35 343.1 61.35 362.85 29.15 372.2 14.2 362.5 14.2 362.05 14.85 351.35 31.3 347.55 37.1 343.2 43.65 331.5 61.35 329.2 61.35 340.5 44.1 345.05 37.15 348.9 31.3 353.35 24.45 359.8 14.8 360.2 14.2 354.0 14.2 351.9 17.3 339.15 35.95 321.6 61.35 319.05 61.35 334.3 39.3 Q343.75 26.65 352.0 14.2 L346.05 14.15 343.45 17.85 333.85 31.4 312.2 61.35 309.9 61.35 331.25 31.5 341.15 17.95 344.0 14.15 336.4 14.15 324.6 29.85 300.65 61.35 298.45 61.35 322.25 29.85 327.65 22.7 334.2 14.15 328.7 14.15 316.85 29.3 291.6 61.35 289.15 61.35 Q298.65 49.1 314.3 29.4 L326.5 14.15 320.95 14.15 308.65 29.3 282.3 61.35 280.15 61.35 306.4 29.25 318.9 14.15 310.0 14.15 294.1 32.6 293.6 33.05 269.3 61.35 267.4 61.35 291.75 33.15 292.0 32.75 308.1 14.15 301.55 14.1 260.25 61.35 257.95 61.35 273.05 44.5 273.35 44.1 299.0 15.45 300.1 14.1 296.05 14.1 295.4 14.85 288.8 22.2 272.7 39.6 252.85 61.35 250.65 61.35 286.6 22.1 293.3 14.85 294.0 14.1 290.2 14.1 288.45 15.95 277.9 27.4 246.1 61.35 244.2 61.35 275.9 27.35 288.4 14.1 285.2 14.1 283.5 15.9 271.4 28.7 240.1 61.35 237.8 61.35 283.15 14.1 276.25 14.1 266.85 23.75 252.75 38.1 229.7 61.35 227.65 61.35 250.7 38.1 269.45 19.25 274.85 14.1 270.25 14.1 263.8 20.55 251.2 32.8 222.3 61.35 220.25 61.35 249.05 32.9 261.6 20.45 268.1 14.1 264.6 14.1 256.5 22.05 215.8 61.35 213.45 61.35 262.5 14.1 255.75 14.1 251.45 18.15 240.2 28.8 205.25 61.35 203.35 61.35 220.1 45.7 223.2 42.8 238.35 28.65 Q250.25 17.55 253.5 14.65 L254.15 14.1 247.85 14.1 195.9 61.35 193.7 61.35 245.95 14.1 242.8 14.05 233.05 22.85 189.8 61.35 187.95 61.35 231.35 22.65 241.05 14.05 236.3 14.05 227.55 21.55 182.05 61.35 179.9 61.35 225.3 21.85 234.15 14.05 228.0 14.05 221.85 19.35 207.0 32.05 172.4 61.35 170.6 61.35 205.2 31.9 Q218.55 20.6 224.4 15.75 L226.5 14.05 221.5 14.05 217.5 17.4 204.25 28.5 164.75 61.35 162.45 61.35 184.5 43.05 187.1 40.95 190.95 37.75 196.7 32.95 202.05 28.5 Q215.95 16.95 219.65 14.05 L210.65 14.0 209.7 14.75 190.2 30.55 151.7 61.35 149.6 61.35 187.9 30.5 196.05 24.0 Q203.55 17.9 207.7 14.7 L208.6 14.0 202.8 14.0 198.85 17.15 176.2 34.95 142.5 61.35 140.2 61.35 173.95 34.9 200.85 14.0 195.45 14.0 190.75 17.65 173.95 30.65 133.85 61.35 131.75 61.35 171.5 30.75 188.6 17.75 193.6 14.0 186.6 14.0 166.3 29.15 123.15 61.35 121.2 61.35 164.15 29.15 173.3 22.3 184.55 14.0 179.4 14.0 159.5 28.65 114.8 61.35 112.65 61.35 157.1 28.75 177.45 14.0 172.25 14.0 151.95 28.65 106.25 61.35 104.25 61.35 149.9 28.6 170.4 14.0 162.15 13.95 136.6 31.8 135.9 32.2 94.2 61.35 92.4 61.35 128.55 36.2 132.25 33.6 160.4 13.95 156.4 13.95 157.5 14.75 154.8 14.35 153.95 14.2 126.8 33.05 121.35 36.8 85.75 61.35 83.65 61.35 119.55 36.85 125.25 32.95 151.05 15.35 152.85 14.05 145.8 13.45 Q131.45 22.1 104.3 40.2 72.6 61.3 72.6 63.2 72.6 63.75 73.2 63.9 74.85 64.3 77.35 65.7 L373.15 65.55 Q478.35 65.65 501.05 66.0 L501.05 65.95 514.95 65.7 516.0 65.7 529.9 65.95 529.9 66.0 Q552.6 65.65 657.8 65.55 L953.6 65.7 Q956.1 64.3 957.75 63.9 958.35 63.75 958.35 63.2 958.35 61.3 926.65 40.2 899.5 22.1 885.15 13.45 L878.1 14.05 879.9 15.35 947.3 61.35 945.2 61.35 877.0 14.2 876.15 14.35 873.45 14.75 Q873.85 14.4 874.55 13.95 L870.55 13.95 892.95 29.55 M904.1 23.7 L925.2 37.75 Q935.3 43.55 943.45 48.9 959.3 59.3 959.3 63.45 959.3 64.0 959.1 64.0 L958.4 63.95 Q956.7 63.95 954.05 66.6 L840.2 67.0 523.9 67.15 523.8 66.9 516.0 67.0 515.75 67.0 515.5 67.0 515.2 67.0 514.95 67.0 514.2 67.0 507.15 66.9 507.05 67.15 190.75 67.0 76.9 66.6 Q74.25 63.95 72.55 63.95 L71.85 64.0 Q71.65 64.0 71.65 63.45 71.65 59.3 87.5 48.9 95.65 43.55 105.75 37.75 L126.85 23.7 Q139.1 15.85 145.75 13.3 L146.0 13.1 146.25 12.8 154.35 13.0 154.55 12.85 155.9 12.85 155.7 13.0 161.8 13.0 162.0 12.85 163.7 12.85 163.5 13.0 171.75 13.0 171.95 12.85 173.8 12.85 173.6 13.0 178.8 13.0 179.0 12.85 180.95 12.85 180.75 13.0 185.9 13.0 186.05 12.85 188.05 12.85 187.9 13.0 194.95 13.0 195.1 12.85 196.9 12.85 196.75 13.0 202.2 12.95 202.3 12.85 204.2 12.85 204.1 12.95 209.9 12.95 210.0 12.85 212.05 12.85 211.95 12.95 220.95 12.95 221.05 12.85 222.85 12.85 222.75 12.95 227.85 12.95 227.95 12.85 229.35 12.85 229.25 12.95 235.45 12.95 235.5 12.85 237.65 12.85 237.6 12.95 242.35 12.95 242.4 12.85 244.1 12.85 244.05 12.95 247.25 12.95 247.3 12.85 249.15 12.85 249.1 12.95 255.45 12.95 255.5 12.85 257.0 12.85 256.95 12.95 263.75 12.9 263.8 12.85 265.85 12.85 265.8 12.9 269.35 12.9 269.4 12.85 271.45 12.85 271.4 12.9 276.1 12.9 276.15 12.85 277.45 12.85 277.4 12.9 284.3 12.9 284.35 12.85 286.35 12.85 286.3 12.9 289.55 12.9 289.6 12.85 291.3 12.85 291.25 12.9 295.15 12.9 295.2 12.85 297.15 12.85 297.1 12.9 301.1 12.9 301.15 12.85 302.6 12.85 302.55 12.9 309.15 12.9 309.2 12.85 311.05 12.85 311.0 12.9 319.9 12.9 319.95 12.85 322.0 12.85 321.95 12.9 327.55 12.9 327.6 12.85 329.7 12.85 329.65 12.9 335.15 12.9 335.2 12.85 337.35 12.85 337.35 12.9 344.95 12.9 344.95 12.85 346.95 12.85 346.95 12.9 352.85 12.9 352.9 12.85 354.85 12.85 354.85 12.9 361.1 12.9 361.1 12.85 363.3 12.85 363.3 12.9 373.05 12.9 373.05 12.85 375.0 12.85 375.0 12.9 380.5 12.9 380.5 12.85 382.05 12.85 382.05 12.9 388.7 12.9 388.7 12.85 391.0 12.85 391.0 12.9 396.15 12.9 396.15 12.85 398.0 12.85 398.0 12.9 513.3 12.8 Q513.65 13.15 513.55 13.75 L517.4 13.6 Q517.35 13.1 517.65 12.8 L632.95 12.9 632.95 12.85 634.8 12.85 634.8 12.9 639.95 12.9 639.95 12.85 642.25 12.85 642.25 12.9 648.9 12.9 648.9 12.85 650.45 12.85 650.45 12.9 655.95 12.9 655.95 12.85 657.9 12.85 657.9 12.9 667.65 12.9 667.65 12.85 669.85 12.85 669.85 12.9 676.1 12.9 676.1 12.85 678.05 12.85 678.1 12.9 684.0 12.9 684.0 12.85 686.0 12.85 686.0 12.9 693.6 12.9 693.6 12.85 695.75 12.85 695.8 12.9 701.3 12.9 701.25 12.85 703.35 12.85 703.4 12.9 709.0 12.9 708.95 12.85 711.0 12.85 711.05 12.9 719.95 12.9 719.9 12.85 721.75 12.85 721.8 12.9 728.4 12.9 728.35 12.85 729.8 12.85 729.85 12.9 733.85 12.9 733.8 12.85 735.75 12.85 735.8 12.9 739.7 12.9 739.65 12.85 741.35 12.85 741.4 12.9 744.65 12.9 744.6 12.85 746.6 12.85 746.65 12.9 753.55 12.9 753.5 12.85 754.8 12.85 754.85 12.9 759.55 12.9 759.5 12.85 761.55 12.85 761.6 12.9 765.15 12.9 765.1 12.85 767.15 12.85 767.2 12.9 774.0 12.95 773.95 12.85 775.45 12.85 775.5 12.95 781.85 12.95 781.8 12.85 783.65 12.85 783.7 12.95 786.9 12.95 786.85 12.85 788.55 12.85 788.6 12.95 793.35 12.95 793.3 12.85 795.45 12.85 795.5 12.95 801.7 12.95 801.6 12.85 803.0 12.85 803.1 12.95 808.2 12.95 808.1 12.85 809.9 12.85 810.0 12.95 819.0 12.95 818.9 12.85 820.95 12.85 821.05 12.95 826.85 12.95 826.75 12.85 828.65 12.85 828.75 12.95 834.2 13.0 834.05 12.85 835.85 12.85 836.0 13.0 843.05 13.0 842.9 12.85 844.9 12.85 845.05 13.0 850.2 13.0 850.0 12.85 851.95 12.85 852.15 13.0 857.35 13.0 857.15 12.85 859.0 12.85 859.2 13.0 867.45 13.0 867.25 12.85 868.95 12.85 869.15 13.0 875.25 13.0 875.05 12.85 876.4 12.85 876.6 13.0 884.7 12.8 884.95 13.1 885.2 13.3 Q891.85 15.85 904.1 23.7" fill="#a09f46" fill-rule="evenodd" stroke="none"/>
      <path d="M896.7 32.15 L892.95 29.55 Q895.9 30.0 898.65 32.1 L897.45 32.05 896.7 32.15 M125.25 32.95 L119.55 36.85 119.15 36.85 117.4 36.7 115.05 36.2 Q117.1 35.8 117.8 34.9 L118.7 33.5 Q119.75 32.65 125.25 32.95 M121.35 36.8 L126.8 33.05 132.25 33.6 128.55 36.2 126.5 36.4 121.35 36.8 M196.7 32.95 L190.95 37.75 Q186.85 38.0 187.05 40.4 L187.1 40.95 184.5 43.05 183.3 43.1 181.35 42.95 181.05 42.8 Q180.7 42.65 180.7 41.65 180.7 39.9 189.05 35.85 193.85 33.5 196.7 32.95 M223.2 42.8 L220.1 45.7 219.2 45.25 217.5 44.5 218.95 43.4 Q220.45 42.85 223.2 42.8 M345.05 37.15 L340.5 44.1 340.25 44.1 Q339.35 44.1 338.1 43.6 L336.05 42.95 Q341.15 37.85 342.55 37.35 L345.05 37.15 M343.2 43.65 L347.55 37.1 350.25 37.1 Q351.2 37.1 352.45 36.5 L353.9 35.8 Q352.85 37.45 349.55 40.1 346.25 42.75 343.2 43.65 M469.65 25.9 L468.6 30.35 468.0 29.9 464.3 25.8 Q466.8 25.2 469.65 25.9 M470.6 31.35 L471.65 26.55 Q473.65 27.35 475.85 28.8 L480.6 31.95 480.75 32.05 480.7 32.2 480.6 32.65 Q477.15 31.0 474.95 31.5 L470.6 31.35 M482.6 33.75 L482.7 33.0 484.95 33.45 485.95 32.5 Q486.75 31.5 488.45 31.5 L490.8 32.45 490.6 34.5 490.35 37.0 Q489.2 37.9 488.45 37.9 486.2 36.0 483.45 34.25 L482.6 33.75 M491.7 35.75 L492.1 33.0 499.8 36.3 499.45 39.3 498.15 38.35 Q494.4 35.55 491.85 35.55 L491.7 35.75 M500.3 39.9 L500.7 36.65 Q505.55 38.75 509.25 40.4 L509.2 40.6 Q507.05 39.7 505.25 39.7 504.45 39.7 503.95 40.45 503.5 41.15 502.65 41.15 502.1 41.15 500.3 39.9 M547.7 28.7 L548.0 30.9 548.1 31.7 548.25 32.5 548.2 32.5 541.65 30.7 541.35 30.2 547.7 28.7 M550.4 32.9 L549.85 30.0 549.55 28.4 553.0 28.1 Q556.3 28.3 555.8 31.5 L554.25 32.5 Q553.3 33.15 552.3 33.15 L550.4 32.9 M563.15 42.9 L563.8 45.9 563.2 45.95 Q561.65 45.95 560.6 44.65 561.4 43.6 561.95 43.3 L563.15 42.9 M565.6 44.95 L565.15 43.05 565.3 43.1 Q565.3 43.6 565.95 44.5 L565.6 44.95 M627.95 32.55 L629.5 35.85 628.6 34.95 Q627.25 33.3 623.5 33.15 L627.95 32.55 M631.95 36.55 L631.9 36.55 631.4 35.45 629.9 32.25 630.9 32.05 Q632.8 31.9 633.65 32.55 634.05 31.75 634.75 31.15 635.4 30.65 636.15 30.35 L640.6 39.25 638.3 39.65 Q635.15 39.65 633.85 37.2 L633.45 35.75 633.15 35.95 631.95 36.55 M642.25 38.1 L638.1 29.95 638.15 29.95 638.35 29.95 Q640.45 29.95 641.9 31.15 643.5 32.5 643.5 34.75 643.5 36.35 642.55 37.7 L642.25 38.1 M699.7 47.35 L701.05 49.35 701.85 50.55 701.0 50.15 697.65 48.4 Q698.7 47.8 699.7 47.35 M704.7 50.85 L701.65 46.5 703.9 45.9 Q706.35 45.65 708.7 47.4 L709.55 48.6 Q706.45 50.55 704.7 50.85 M794.9 32.7 L797.95 35.5 795.25 35.75 793.55 35.65 793.0 35.55 792.7 35.5 Q792.4 35.4 792.4 34.45 792.4 33.45 794.9 32.7 M799.55 35.15 L796.45 32.25 800.7 31.5 802.05 31.35 802.95 32.15 804.4 33.5 799.55 35.15 M805.8 32.9 L804.05 31.3 803.8 31.1 806.85 30.8 808.05 31.9 805.8 32.9 M809.25 31.25 L808.65 30.7 810.2 30.75 809.25 31.25 M835.1 26.0 L836.6 27.2 830.35 27.85 Q831.25 27.45 835.1 26.0 M858.75 45.0 L862.2 47.75 861.55 48.15 860.1 48.65 Q859.3 48.65 857.85 47.8 L856.35 46.55 Q857.25 45.2 858.75 45.0 M838.65 27.0 L836.65 25.4 840.7 23.9 841.45 24.5 843.9 26.4 844.05 26.55 839.25 26.95 838.65 27.0 M845.85 22.0 L849.65 24.95 Q846.85 26.4 846.2 26.4 L846.1 26.4 842.15 23.35 845.85 22.0 M850.9 24.25 L847.25 21.5 851.8 19.55 851.85 19.55 852.5 20.05 854.65 21.7 Q854.8 21.75 854.95 21.9 L850.9 24.25 M856.15 21.2 L853.1 18.9 Q855.05 17.75 855.05 16.9 L855.1 16.6 859.0 19.45 857.15 20.55 856.15 21.2 M860.15 18.8 L859.0 17.95 855.95 15.75 855.55 15.45 Q856.1 14.65 857.35 14.0 L858.7 14.0 858.9 14.15 859.05 14.25 862.15 16.5 863.05 17.15 860.15 18.8 M864.15 16.55 L860.55 14.0 868.8 13.95 869.2 14.25 Q867.55 14.7 864.15 16.55 M890.95 29.4 L892.65 30.6 894.95 32.15 895.5 32.5 894.85 32.7 892.25 33.35 Q890.3 33.35 889.75 32.6 889.45 31.7 889.0 31.5 888.9 29.6 890.95 29.4 M746.75 49.2 Q746.6 49.6 745.6 49.6 L743.25 49.3 741.0 48.95 Q740.5 47.65 740.5 47.2 742.2 46.55 743.8 46.7 745.95 46.85 746.9 48.4 L746.75 49.2 M655.4 32.8 Q653.7 32.8 653.0 31.9 653.7 31.05 655.15 30.2 656.4 29.55 656.7 29.55 L658.55 29.8 659.45 31.4 657.25 32.25 655.4 32.8 M684.1 44.75 Q681.9 44.75 681.0 43.95 680.85 44.6 680.85 42.95 680.85 41.25 682.65 41.9 684.4 42.5 686.05 44.6 L684.1 44.75 M533.65 38.75 Q534.35 37.4 535.15 37.05 535.9 36.8 537.6 37.05 L537.85 37.4 538.1 38.65 Q538.1 40.5 535.9 40.5 L534.3 40.35 533.85 40.2 533.65 38.75 M517.6 44.5 Q516.2 44.5 512.25 42.1 L511.8 41.85 511.85 41.5 517.6 44.1 517.6 44.5 M450.25 39.7 Q450.25 38.4 452.0 37.9 453.9 37.35 455.7 38.9 455.8 40.45 454.8 41.3 453.95 42.0 452.7 42.0 L451.15 41.85 450.75 41.65 450.5 41.1 Q450.25 40.65 450.25 39.7 M361.65 25.2 Q361.85 25.5 361.85 26.45 361.85 27.45 360.75 27.95 L358.95 28.25 357.2 28.1 356.65 27.95 356.5 27.65 Q356.35 27.45 356.35 26.45 356.35 25.0 357.5 24.7 358.25 24.55 361.4 24.75 L361.65 25.2 M296.4 32.4 Q297.35 31.4 299.0 32.15 L299.15 32.45 299.3 33.6 299.2 34.8 299.0 35.4 297.35 35.75 Q296.05 35.4 295.55 34.9 L295.4 33.95 296.4 32.4 M226.85 42.95 Q227.55 43.15 228.3 44.25 L227.8 45.7 226.85 45.8 221.95 45.8 225.15 42.85 226.85 42.95 M200.15 33.25 L201.15 33.3 Q198.6 37.9 197.55 38.15 L193.2 37.75 199.1 32.85 200.0 33.15 200.15 33.25 M133.05 34.25 L133.7 34.9 130.7 35.85 133.05 34.25" fill="#b9c040" fill-rule="evenodd" stroke="none"/>
      <path d="M892.95 29.55 L870.55 13.95 874.55 13.95 Q873.85 14.4 873.45 14.75 L876.15 14.35 877.0 14.2 945.2 61.35 947.3 61.35 879.9 15.35 878.1 14.05 885.15 13.45 Q899.5 22.1 926.65 40.2 958.35 61.3 958.35 63.2 958.35 63.75 957.75 63.9 956.1 64.3 953.6 65.7 L657.8 65.55 Q552.6 65.65 529.9 66.0 L529.9 65.95 516.0 65.7 514.95 65.7 501.05 65.95 501.05 66.0 Q478.35 65.65 373.15 65.55 L77.35 65.7 Q74.85 64.3 73.2 63.9 72.6 63.75 72.6 63.2 72.6 61.3 104.3 40.2 131.45 22.1 145.8 13.45 L152.85 14.05 151.05 15.35 125.25 32.95 Q119.75 32.65 118.7 33.5 L117.8 34.9 Q117.1 35.8 115.05 36.2 L117.4 36.7 119.15 36.85 119.55 36.85 83.65 61.35 85.75 61.35 121.35 36.8 126.5 36.4 128.55 36.2 92.4 61.35 94.2 61.35 135.9 32.2 136.6 31.8 162.15 13.95 170.4 14.0 149.9 28.6 104.25 61.35 106.25 61.35 151.95 28.65 172.25 14.0 177.45 14.0 157.1 28.75 112.65 61.35 114.8 61.35 159.5 28.65 179.4 14.0 184.55 14.0 173.3 22.3 164.15 29.15 121.2 61.35 123.15 61.35 166.3 29.15 186.6 14.0 193.6 14.0 188.6 17.75 171.5 30.75 131.75 61.35 133.85 61.35 173.95 30.65 190.75 17.65 195.45 14.0 200.85 14.0 173.95 34.9 140.2 61.35 142.5 61.35 176.2 34.95 198.85 17.15 202.8 14.0 208.6 14.0 207.7 14.7 Q203.55 17.9 196.05 24.0 L187.9 30.5 149.6 61.35 151.7 61.35 190.2 30.55 209.7 14.75 210.65 14.0 219.65 14.05 Q215.95 16.95 202.05 28.5 L196.7 32.95 Q193.85 33.5 189.05 35.85 180.7 39.9 180.7 41.65 180.7 42.65 181.05 42.8 L181.35 42.95 183.3 43.1 184.5 43.05 162.45 61.35 164.75 61.35 204.25 28.5 217.5 17.4 221.5 14.05 226.5 14.05 224.4 15.75 Q218.55 20.6 205.2 31.9 L170.6 61.35 172.4 61.35 207.0 32.05 221.85 19.35 228.0 14.05 234.15 14.05 225.3 21.85 179.9 61.35 182.05 61.35 227.55 21.55 236.3 14.05 241.05 14.05 231.35 22.65 187.95 61.35 189.8 61.35 233.05 22.85 242.8 14.05 245.95 14.1 193.7 61.35 195.9 61.35 247.85 14.1 254.15 14.1 253.5 14.65 Q250.25 17.55 238.35 28.65 L223.2 42.8 Q220.45 42.85 218.95 43.4 L217.5 44.5 219.2 45.25 220.1 45.7 203.35 61.35 205.25 61.35 240.2 28.8 251.45 18.15 255.75 14.1 262.5 14.1 213.45 61.35 215.8 61.35 256.5 22.05 264.6 14.1 268.1 14.1 261.6 20.45 249.05 32.9 220.25 61.35 222.3 61.35 251.2 32.8 263.8 20.55 270.25 14.1 274.85 14.1 269.45 19.25 250.7 38.1 227.65 61.35 229.7 61.35 252.75 38.1 266.85 23.75 276.25 14.1 283.15 14.1 237.8 61.35 240.1 61.35 271.4 28.7 283.5 15.9 285.2 14.1 288.4 14.1 275.9 27.35 244.2 61.35 246.1 61.35 277.9 27.4 288.45 15.95 290.2 14.1 294.0 14.1 293.3 14.85 286.6 22.1 250.65 61.35 252.85 61.35 272.7 39.6 288.8 22.2 295.4 14.85 296.05 14.1 300.1 14.1 299.0 15.45 273.35 44.1 273.05 44.5 257.95 61.35 260.25 61.35 301.55 14.1 308.1 14.15 292.0 32.75 291.75 33.15 267.4 61.35 269.3 61.35 293.6 33.05 294.1 32.6 310.0 14.15 318.9 14.15 306.4 29.25 280.15 61.35 282.3 61.35 308.65 29.3 320.95 14.15 326.5 14.15 314.3 29.4 Q298.65 49.1 289.15 61.35 L291.6 61.35 316.85 29.3 328.7 14.15 334.2 14.15 327.65 22.7 322.25 29.85 298.45 61.35 300.65 61.35 324.6 29.85 336.4 14.15 344.0 14.15 341.15 17.95 331.25 31.5 309.9 61.35 312.2 61.35 333.85 31.4 343.45 17.85 346.05 14.15 352.0 14.2 Q343.75 26.65 334.3 39.3 L319.05 61.35 321.6 61.35 339.15 35.95 351.9 17.3 354.0 14.2 360.2 14.2 359.8 14.8 353.35 24.45 348.9 31.3 345.05 37.15 342.55 37.35 Q341.15 37.85 336.05 42.95 L338.1 43.6 Q339.35 44.1 340.25 44.1 L340.5 44.1 329.2 61.35 331.5 61.35 343.2 43.65 Q346.25 42.75 349.55 40.1 352.85 37.45 353.9 35.8 L352.45 36.5 Q351.2 37.1 350.25 37.1 L347.55 37.1 351.35 31.3 362.05 14.85 362.5 14.2 372.2 14.2 362.85 29.15 343.1 61.35 345.65 61.35 365.3 29.15 372.2 17.6 374.2 14.2 379.7 14.2 378.65 15.9 368.55 32.75 351.95 61.35 353.9 61.35 370.6 32.9 378.25 19.6 381.3 14.2 387.95 14.2 383.65 22.2 361.95 61.35 364.35 61.35 385.9 21.9 390.3 14.2 395.45 14.2 390.75 23.05 370.7 61.35 372.7 61.35 392.7 23.25 397.35 14.2 400.8 14.2 376.95 61.35 379.35 61.35 402.85 14.2 409.65 14.25 409.4 14.75 402.4 29.35 387.4 61.35 389.4 61.35 404.45 29.5 409.5 18.35 411.35 14.25 418.75 14.25 398.35 61.35 400.85 61.35 417.6 22.4 421.0 14.25 424.85 14.25 422.1 20.8 416.85 33.8 405.65 61.35 407.95 61.35 419.15 33.7 424.5 20.9 427.1 14.25 432.1 14.25 429.8 19.55 422.15 39.25 Q417.65 50.85 413.7 61.35 L415.95 61.35 424.4 39.25 429.95 24.2 433.6 14.25 441.15 14.25 424.7 61.35 427.2 61.35 431.15 50.15 Q433.8 38.55 434.7 35.6 437.85 25.1 442.45 17.05 L442.75 16.05 443.35 14.25 447.0 14.25 443.4 24.45 442.25 28.0 431.4 61.35 433.65 61.35 444.4 28.0 448.15 16.05 448.7 14.25 452.85 14.25 452.65 14.95 450.3 22.5 438.65 61.35 441.0 61.35 447.1 40.8 452.75 22.6 454.9 14.95 455.1 14.25 463.6 14.25 463.35 15.6 455.5 45.55 455.45 46.05 451.45 61.35 453.85 61.35 465.15 14.25 472.3 14.25 469.65 25.9 Q466.8 25.2 464.3 25.8 L468.0 29.9 468.6 30.35 467.85 33.65 467.85 34.05 461.65 61.35 463.75 61.35 469.8 33.95 470.1 33.5 470.6 31.35 474.95 31.5 Q477.15 31.0 480.6 32.65 L480.7 32.2 475.5 61.35 477.9 61.35 481.9 39.25 482.6 33.75 483.45 34.25 Q486.2 36.0 488.45 37.9 489.2 37.9 490.35 37.0 488.35 55.25 485.3 61.3 L485.3 61.35 487.95 61.35 491.7 35.75 491.85 35.55 Q494.4 35.55 498.15 38.35 L499.45 39.3 Q497.75 53.15 495.55 59.65 L495.4 61.35 497.8 61.35 500.3 39.9 Q502.1 41.15 502.65 41.15 503.5 41.15 503.95 40.45 504.45 39.7 505.25 39.7 507.05 39.7 509.2 40.6 L509.25 40.4 Q505.55 38.75 500.7 36.65 L501.35 30.65 503.1 14.3 511.35 14.3 511.0 18.2 509.8 32.4 507.8 61.35 510.35 61.35 511.85 41.0 511.85 24.6 Q512.5 21.65 512.5 16.15 L512.4 14.4 513.2 14.45 518.5 14.75 518.45 16.15 Q518.45 21.65 519.1 24.6 L519.1 41.0 520.6 61.35 523.15 61.35 521.15 32.4 519.95 18.2 519.65 14.75 527.45 14.6 527.7 14.3 527.85 14.3 529.6 30.65 533.15 61.35 535.55 61.35 535.4 59.65 Q531.6 48.25 529.25 14.3 L536.25 14.3 538.45 30.05 543.0 61.35 545.65 61.35 545.65 61.3 Q542.4 54.85 540.35 34.5 539.2 22.85 538.95 16.3 L538.6 14.3 545.05 14.3 Q546.25 18.6 547.7 28.7 L541.35 30.2 541.65 30.7 548.2 32.5 549.05 39.25 553.05 61.35 555.45 61.35 550.4 32.9 552.3 33.15 Q553.3 33.15 554.25 32.5 L555.8 31.5 Q556.3 28.3 553.0 28.1 L549.55 28.4 546.9 14.3 556.6 14.25 560.85 33.5 561.15 33.95 563.15 42.9 561.95 43.3 Q561.4 43.6 560.6 44.65 561.65 45.95 563.2 45.95 L563.8 45.9 567.2 61.35 569.3 61.35 565.6 44.95 565.95 44.5 Q565.3 43.6 565.3 43.1 L565.15 43.05 563.1 34.05 563.1 33.65 558.65 14.25 565.8 14.25 Q569.8 31.65 577.1 61.35 L579.5 61.35 575.5 46.05 575.45 45.55 567.6 15.6 567.35 14.25 575.85 14.25 576.05 14.95 578.2 22.6 583.85 40.8 589.95 61.35 592.3 61.35 580.65 22.5 578.3 14.95 578.1 14.25 582.25 14.25 582.8 16.05 586.55 28.0 597.3 61.35 599.55 61.35 588.7 28.0 587.55 24.45 583.95 14.25 587.6 14.25 588.2 16.05 588.5 17.05 Q593.1 25.1 596.25 35.6 L599.8 50.15 603.75 61.35 606.25 61.35 589.8 14.25 597.35 14.25 601.0 24.2 606.55 39.25 615.0 61.35 617.25 61.35 608.8 39.25 601.15 19.55 598.85 14.25 603.85 14.25 606.45 20.9 611.8 33.7 623.0 61.35 625.3 61.35 614.1 33.8 608.85 20.8 606.1 14.25 609.95 14.25 613.35 22.4 630.1 61.35 632.6 61.35 612.2 14.25 619.6 14.25 621.45 18.35 626.5 29.5 627.95 32.55 623.5 33.15 Q627.25 33.3 628.6 34.95 L629.5 35.85 641.55 61.35 643.55 61.35 631.95 36.55 633.15 35.95 633.45 35.75 633.85 37.2 Q635.15 39.65 638.3 39.65 L640.6 39.25 636.15 30.35 Q635.4 30.65 634.75 31.15 634.05 31.75 633.65 32.55 632.8 31.9 630.9 32.05 L629.9 32.25 628.55 29.35 621.55 14.75 621.3 14.25 628.1 14.2 651.6 61.35 654.0 61.35 642.25 38.1 642.55 37.7 Q643.5 36.35 643.5 34.75 643.5 32.5 641.9 31.15 640.45 29.95 638.35 29.95 L638.15 29.95 630.15 14.2 633.6 14.2 638.25 23.25 658.25 61.35 660.25 61.35 640.2 23.05 635.5 14.2 640.65 14.2 645.05 21.9 666.6 61.35 669.0 61.35 647.3 22.2 643.0 14.2 649.65 14.2 652.7 19.6 660.35 32.9 677.05 61.35 679.0 61.35 662.4 32.75 652.3 15.9 651.25 14.2 656.75 14.2 658.75 17.6 665.65 29.15 685.3 61.35 687.85 61.35 668.1 29.15 658.75 14.2 668.45 14.2 668.9 14.85 679.6 31.3 699.45 61.35 701.75 61.35 682.05 31.3 677.6 24.45 671.15 14.8 670.75 14.2 676.95 14.2 679.05 17.3 691.8 35.95 699.7 47.35 Q698.7 47.8 697.65 48.4 L701.0 50.15 701.85 50.55 701.05 49.35 709.35 61.35 711.9 61.35 704.7 50.85 Q706.45 50.55 709.55 48.6 L718.75 61.35 721.05 61.35 699.7 31.5 689.8 17.95 686.95 14.15 694.55 14.15 706.35 29.85 730.3 61.35 732.5 61.35 708.7 29.85 703.3 22.7 696.75 14.15 702.25 14.15 714.1 29.3 739.35 61.35 741.8 61.35 716.65 29.4 704.45 14.15 710.0 14.15 722.3 29.3 748.65 61.35 750.8 61.35 724.55 29.25 712.05 14.15 720.95 14.15 736.85 32.6 737.35 33.05 761.65 61.35 763.55 61.35 739.2 33.15 738.95 32.75 722.85 14.15 729.4 14.1 770.7 61.35 773.0 61.35 757.9 44.5 757.6 44.1 731.95 15.45 730.85 14.1 734.9 14.1 735.55 14.85 742.15 22.2 758.25 39.6 778.1 61.35 780.3 61.35 744.35 22.1 737.65 14.85 736.95 14.1 740.75 14.1 742.5 15.95 753.05 27.4 784.85 61.35 786.75 61.35 755.05 27.35 742.55 14.1 745.75 14.1 747.45 15.9 759.55 28.7 790.85 61.35 793.15 61.35 747.8 14.1 754.7 14.1 764.1 23.75 778.2 38.1 801.25 61.35 803.3 61.35 780.25 38.1 761.5 19.25 756.1 14.1 760.7 14.1 767.15 20.55 779.75 32.8 808.65 61.35 810.7 61.35 781.9 32.9 769.35 20.45 762.85 14.1 766.35 14.1 774.45 22.05 815.15 61.35 817.5 61.35 768.45 14.1 775.2 14.1 779.5 18.15 790.75 28.8 794.9 32.7 Q792.4 33.45 792.4 34.45 792.4 35.4 792.7 35.5 L793.0 35.55 793.55 35.65 795.25 35.75 797.95 35.5 825.7 61.35 827.6 61.35 799.55 35.15 804.4 33.5 835.05 61.35 837.25 61.35 805.8 32.9 808.05 31.9 841.15 61.35 843.0 61.35 809.25 31.25 810.2 30.75 808.65 30.7 799.6 22.65 789.9 14.05 794.65 14.05 Q800.25 18.9 803.4 21.55 L848.9 61.35 851.05 61.35 805.65 21.85 796.8 14.05 802.95 14.05 809.1 19.35 823.95 32.05 858.55 61.35 860.35 61.35 825.75 31.9 806.55 15.75 804.45 14.05 809.45 14.05 813.45 17.4 826.7 28.5 866.2 61.35 868.5 61.35 828.9 28.5 811.3 14.05 820.3 14.0 821.25 14.75 835.1 26.0 Q831.25 27.45 830.35 27.85 L836.6 27.2 840.75 30.55 858.75 45.0 Q857.25 45.2 856.35 46.55 L857.85 47.8 Q859.3 48.65 860.1 48.65 L861.55 48.15 862.2 47.75 879.25 61.35 881.35 61.35 843.05 30.5 838.65 27.0 839.25 26.95 844.05 26.55 854.75 34.95 888.45 61.35 890.75 61.35 857.0 34.9 830.1 14.0 835.5 14.0 840.2 17.65 845.85 22.0 842.15 23.35 846.1 26.4 846.2 26.4 Q846.85 26.4 849.65 24.95 L857.0 30.65 897.1 61.35 899.2 61.35 859.45 30.75 850.9 24.25 854.95 21.9 864.65 29.15 907.8 61.35 909.75 61.35 866.8 29.15 857.65 22.3 856.15 21.2 857.15 20.55 859.0 19.45 871.45 28.65 916.15 61.35 918.3 61.35 873.85 28.75 860.15 18.8 863.05 17.15 879.0 28.65 924.7 61.35 926.7 61.35 881.05 28.6 864.15 16.55 Q867.55 14.7 869.2 14.25 L890.95 29.4 Q888.9 29.6 889.0 31.5 889.45 31.7 889.75 32.6 890.3 33.35 892.25 33.35 L894.85 32.7 895.5 32.5 894.95 32.15 895.05 32.2 895.5 32.5 936.75 61.35 938.55 61.35 896.85 32.3 896.7 32.15 897.45 32.05 898.65 32.1 Q895.9 30.0 892.95 29.55 M126.8 33.05 L153.95 14.2 154.8 14.35 157.5 14.75 156.4 13.95 160.4 13.95 132.25 33.6 126.8 33.05 M190.95 37.75 L187.1 40.95 187.05 40.4 Q186.85 38.0 190.95 37.75 M471.65 26.55 L474.35 14.25 484.05 14.3 481.1 30.0 480.75 32.05 480.6 31.95 475.85 28.8 Q473.65 27.35 471.65 26.55 M482.7 33.0 L482.95 30.9 Q484.55 19.05 485.9 14.3 L492.35 14.3 492.0 16.3 Q491.8 22.25 490.8 32.45 L488.45 31.5 Q486.75 31.5 485.95 32.5 L484.95 33.45 482.7 33.0 M492.1 33.0 L492.5 30.05 494.7 14.3 501.7 14.3 499.8 36.3 492.1 33.0 M701.65 46.5 L696.65 39.3 Q687.2 26.65 678.95 14.2 L684.9 14.15 687.5 17.85 697.1 31.4 708.7 47.4 Q706.35 45.65 703.9 45.9 L701.65 46.5 M796.45 32.25 L792.6 28.65 777.45 14.65 776.8 14.1 783.1 14.1 802.05 31.35 800.7 31.5 796.45 32.25 M803.8 31.1 L785.0 14.1 788.15 14.05 797.9 22.85 806.85 30.8 803.8 31.1 M836.65 25.4 L834.9 24.0 823.25 14.7 822.35 14.0 828.15 14.0 832.1 17.15 840.7 23.9 836.65 25.4 M847.25 21.5 L842.35 17.75 837.35 14.0 844.35 14.0 851.8 19.55 847.25 21.5 M853.1 18.9 L846.4 14.0 851.55 14.0 855.1 16.6 855.05 16.9 Q855.05 17.75 853.1 18.9 M855.55 15.45 L853.5 14.0 857.35 14.0 Q856.1 14.65 855.55 15.45 M450.25 39.7 Q450.25 40.65 450.5 41.1 L450.75 41.65 451.15 41.85 452.7 42.0 Q453.95 42.0 454.8 41.3 455.8 40.45 455.7 38.9 453.9 37.35 452.0 37.9 450.25 38.4 450.25 39.7 M517.6 44.5 L517.6 44.1 511.85 41.5 511.8 41.85 512.25 42.1 Q516.2 44.5 517.6 44.5 M533.65 38.75 L533.85 40.2 534.3 40.35 535.9 40.5 Q538.1 40.5 538.1 38.65 L537.85 37.4 537.6 37.05 Q535.9 36.8 535.15 37.05 534.35 37.4 533.65 38.75 M684.1 44.75 L686.05 44.6 Q684.4 42.5 682.65 41.9 680.85 41.25 680.85 42.95 680.85 44.6 681.0 43.95 681.9 44.75 684.1 44.75 M655.4 32.8 L657.25 32.25 659.45 31.4 658.55 29.8 656.7 29.55 Q656.4 29.55 655.15 30.2 653.7 31.05 653.0 31.9 653.7 32.8 655.4 32.8 M746.75 49.2 L746.9 48.4 Q745.95 46.85 743.8 46.7 742.2 46.55 740.5 47.2 740.5 47.65 741.0 48.95 L743.25 49.3 745.6 49.6 Q746.6 49.6 746.75 49.2 M133.05 34.25 L130.7 35.85 133.7 34.9 133.05 34.25 M200.15 33.25 L200.0 33.15 199.1 32.85 193.2 37.75 197.55 38.15 Q198.6 37.9 201.15 33.3 L200.15 33.25 M226.85 42.95 L225.15 42.85 221.95 45.8 226.85 45.8 227.8 45.7 228.3 44.25 Q227.55 43.15 226.85 42.95 M296.4 32.4 L295.4 33.95 295.55 34.9 Q296.05 35.4 297.35 35.75 L299.0 35.4 299.2 34.8 299.3 33.6 299.15 32.45 299.0 32.15 Q297.35 31.4 296.4 32.4 M361.65 25.2 L361.4 24.75 Q358.25 24.55 357.5 24.7 356.35 25.0 356.35 26.45 356.35 27.45 356.5 27.65 L356.65 27.95 357.2 28.1 358.95 28.25 360.75 27.95 Q361.85 27.45 361.85 26.45 361.85 25.5 361.65 25.2" fill="#d7d564" fill-rule="evenodd" stroke="none"/>
      <path d="M1007.9 71.95 L1006.7 72.0 Q1007.0 70.95 1006.65 69.85 L1007.65 70.65 1007.9 71.95 M987.3 67.05 L974.5 67.25 Q964.85 68.2 962.05 68.9 L897.15 68.9 885.65 69.5 865.55 70.2 857.6 70.8 853.25 71.3 847.75 71.2 842.4 70.85 818.65 70.5 817.2 70.2 709.6 70.2 708.15 70.5 673.6 70.5 643.55 68.65 638.4 67.2 Q628.05 64.6 620.0 63.45 L619.85 63.6 619.65 63.9 Q621.65 65.05 629.35 68.25 L589.7 68.25 588.25 68.55 563.2 68.9 561.8 69.2 537.55 69.55 533.0 69.8 528.45 69.55 506.0 69.2 Q496.55 69.0 489.15 69.3 L481.85 69.85 466.35 70.0 459.55 69.35 435.7 69.35 427.05 69.95 418.9 70.5 398.9 70.65 390.35 71.25 382.2 71.8 237.3 71.8 235.3 71.3 185.45 71.2 Q194.8 68.65 197.9 67.4 L164.55 71.2 156.0 71.15 135.25 69.55 113.4 69.55 Q92.1 70.95 72.15 69.55 L38.65 69.55 35.9 69.4 35.1 68.7 Q39.2 64.6 48.75 64.05 L56.5 63.8 63.45 62.95 Q66.05 62.3 67.95 61.15 69.85 60.0 71.45 59.6 77.3 58.05 103.1 57.85 L126.3 57.9 132.1 57.7 137.85 57.9 153.85 58.25 155.35 58.55 178.3 58.9 179.8 59.2 204.15 59.55 214.3 60.2 224.55 60.65 239.65 59.7 257.15 58.7 303.55 58.9 311.35 59.45 319.6 60.0 337.0 60.2 338.95 60.65 356.5 60.65 353.4 65.0 Q353.4 66.0 354.25 65.75 L355.05 65.3 Q357.6 64.65 360.3 62.85 L362.85 60.65 402.8 60.65 404.95 60.2 489.75 60.0 491.7 59.55 514.3 59.35 525.8 60.25 Q538.15 60.6 546.2 57.6 L563.1 57.6 576.2 58.7 596.85 58.7 606.5 59.35 626.9 59.7 628.35 60.0 663.7 60.35 665.15 60.65 685.1 60.65 704.75 59.2 718.55 57.75 755.2 57.75 767.6 58.85 765.3 59.95 Q761.2 61.95 760.0 61.95 L755.95 62.15 755.95 63.6 756.65 64.15 758.2 64.4 Q762.6 64.4 772.45 61.65 777.15 60.35 779.75 59.2 L802.4 59.2 808.55 58.75 814.75 58.25 844.35 57.9 845.65 57.6 867.35 57.1 870.35 56.95 883.9 57.2 897.8 57.9 924.3 57.9 941.85 59.5 941.1 59.4 944.75 59.7 967.65 61.2 Q986.75 62.4 986.75 66.1 L986.65 67.05 987.3 67.05 M1007.15 63.9 L1004.05 63.9 965.15 53.35 Q943.85 47.7 933.85 42.15 L907.6 27.55 Q890.15 16.8 890.15 11.35 890.15 2.55 915.65 16.15 L926.9 22.4 919.95 29.05 920.95 29.25 Q921.55 28.95 923.75 27.05 926.0 25.25 927.45 25.25 L931.5 25.05 947.7 34.75 Q957.9 39.7 977.8 48.0 995.5 55.8 1007.15 63.9 M956.55 46.2 L954.5 45.95 954.35 46.2 Q954.2 46.35 954.2 46.45 954.9 46.65 955.35 47.25 955.75 47.75 956.6 47.75 958.25 47.75 958.1 47.1 L957.85 46.6 Q957.6 46.35 956.55 46.2 M957.65 67.6 Q958.7 67.6 959.2 67.15 L959.6 66.35 959.45 65.85 959.05 65.25 957.65 65.05 952.95 64.9 947.35 64.0 947.2 64.25 947.05 64.55 951.5 66.15 Q955.55 67.6 957.65 67.6 M893.45 64.55 L892.6 64.4 Q892.2 64.5 891.65 65.0 L890.95 65.85 892.8 65.6 894.55 65.05 Q894.35 64.75 893.45 64.55 M879.0 6.05 L880.6 6.55 Q873.0 10.25 855.05 11.9 L822.9 14.45 745.05 14.45 743.75 14.1 722.45 13.8 711.85 13.3 705.05 12.65 687.7 12.65 686.2 13.0 670.2 13.3 668.85 13.65 629.65 13.65 625.15 13.15 620.65 12.65 601.3 12.5 591.5 13.0 561.35 13.3 551.95 13.85 551.85 13.85 549.7 13.65 520.7 13.65 515.3 14.3 509.15 14.95 466.6 14.75 457.85 13.8 452.45 13.15 376.35 13.15 Q372.15 13.45 360.65 13.55 348.35 13.65 336.6 13.4 335.5 12.8 333.95 12.15 328.65 9.9 326.7 9.9 323.6 9.9 322.4 8.75 L321.8 8.9 Q323.0 10.3 327.2 13.3 L242.9 13.45 217.8 14.25 Q195.6 13.5 188.15 11.7 L167.5 11.7 Q157.55 12.8 149.25 8.55 L147.7 7.7 148.2 8.0 148.3 7.55 148.65 4.95 157.95 4.95 164.25 5.4 184.25 5.75 Q189.3 7.0 188.4 7.6 L205.85 7.55 215.55 6.75 225.2 5.9 240.4 6.9 262.6 7.85 285.5 6.25 318.8 6.25 328.6 7.2 335.05 7.85 416.3 8.0 435.5 8.35 446.6 9.3 498.85 9.3 Q510.05 6.85 525.35 8.0 533.0 8.6 538.5 9.65 539.6 9.65 540.4 9.25 L541.5 8.5 563.2 7.85 568.4 8.2 599.35 8.2 602.6 7.7 602.8 7.7 611.55 8.1 627.15 7.9 Q641.7 7.75 642.5 8.0 L697.9 8.0 699.2 7.6 777.85 7.6 779.15 8.0 797.2 8.0 804.75 7.4 812.05 6.8 836.55 6.55 848.6 6.0 Q849.1 4.75 865.45 4.75 875.25 4.75 879.0 6.05 M225.85 11.05 L227.45 10.75 Q228.2 10.4 228.85 10.4 L228.8 9.9 Q227.45 8.35 225.75 8.2 224.05 8.05 224.05 9.5 224.05 10.45 224.2 10.5 L224.55 10.7 224.6 10.9 225.85 11.05 M289.0 66.1 L290.95 65.65 290.95 64.65 Q289.6 63.6 288.25 64.1 287.65 64.3 286.4 65.3 286.85 65.85 289.0 66.1 M265.85 63.9 Q266.3 64.4 267.8 64.4 L268.85 62.95 267.2 63.05 Q266.15 63.35 265.85 63.9 M391.45 67.25 Q392.45 67.25 393.05 66.7 L393.9 65.85 393.4 65.05 393.05 64.4 Q391.85 63.7 390.65 64.2 389.55 64.65 389.55 65.45 L389.65 66.65 390.2 66.95 390.2 67.1 391.45 67.25 M422.05 67.1 Q424.0 66.55 424.5 65.85 L424.2 64.8 Q422.65 63.9 421.45 64.45 L419.9 65.65 Q420.45 66.95 422.05 67.1 M556.05 63.9 L555.75 62.95 554.1 62.75 553.3 62.8 553.25 62.7 553.15 63.85 Q553.15 64.8 553.3 64.85 L553.45 64.9 555.55 64.75 556.05 63.9 M569.4 63.75 Q568.55 62.8 568.55 62.45 L564.6 62.6 Q564.55 62.45 564.5 62.55 564.4 62.65 564.4 63.7 564.4 64.65 564.55 64.7 L564.9 64.9 565.1 65.05 566.45 65.2 Q568.1 65.2 569.4 63.75 M743.65 65.85 Q745.45 65.85 746.6 64.4 L745.75 63.1 742.35 63.3 Q741.75 63.65 741.45 65.2 741.6 65.2 742.2 65.55 L743.65 65.85 M865.85 64.55 L868.05 65.05 Q869.8 64.85 870.55 63.9 L870.15 62.95 Q867.45 62.15 866.7 62.65 866.45 62.8 865.85 64.55 M81.3 45.05 L81.3 43.6 Q79.75 42.9 77.9 43.2 L77.85 43.15 77.75 44.25 77.85 45.35 78.2 45.55 78.25 45.7 79.5 45.8 Q80.5 45.8 80.9 45.45 L81.3 45.05 M143.4 14.75 L124.95 26.05 117.05 30.9 111.85 31.65 105.6 31.55 96.9 32.0 96.4 32.65 96.25 32.95 112.1 33.9 98.8 41.65 93.05 45.3 87.75 48.9 Q80.95 53.0 69.6 54.75 L44.5 58.75 26.85 61.15 Q36.75 55.3 57.0 46.65 78.3 37.5 86.75 32.8 91.05 30.5 104.0 22.55 116.15 15.05 122.55 11.85 143.4 1.35 143.4 14.75 M143.3 64.4 Q143.3 65.45 143.55 65.4 L143.8 65.2 Q146.7 64.95 147.35 63.9 L147.05 62.95 Q143.3 61.1 143.3 64.4 M82.7 65.45 Q83.65 65.45 84.7 64.85 L86.6 63.9 Q85.3 62.6 83.75 62.2 81.4 61.65 79.5 63.75 L80.0 64.4 80.35 65.2 80.9 65.35 82.7 65.45" fill="#64aa61" fill-rule="evenodd" stroke="none"/>
      <path d="M1006.7 72.0 L1007.9 71.95 1025.15 71.65 Q1015.8 68.35 982.4 62.3 956.35 57.55 947.5 55.15 L944.9 55.2 943.8 55.25 943.65 55.25 943.6 55.85 943.5 56.05 928.8 55.9 915.85 55.25 908.1 54.75 872.9 54.85 872.45 55.4 839.85 55.75 Q839.15 55.4 821.6 55.25 L818.3 55.7 815.2 56.15 794.8 56.3 781.9 55.4 761.25 54.6 741.65 55.25 728.45 55.9 718.6 56.3 708.8 56.55 684.7 56.85 660.95 56.95 Q660.5 56.8 630.35 56.55 L630.15 56.55 600.25 56.3 Q599.85 56.15 583.55 55.95 L567.4 55.75 558.2 55.35 549.7 55.25 536.05 55.6 522.85 55.75 522.4 55.75 518.65 55.6 517.7 55.6 515.5 55.5 513.25 55.4 513.25 55.6 512.3 55.6 508.55 55.75 508.1 55.75 494.9 55.6 481.25 55.25 472.75 55.35 463.55 55.75 447.4 55.95 Q431.1 56.15 430.7 56.3 L400.6 56.55 Q370.45 56.8 370.0 56.95 L346.25 56.85 322.15 56.55 312.35 56.3 302.5 55.9 289.3 55.25 269.7 54.6 249.05 55.4 236.15 56.3 215.75 56.15 212.65 55.7 209.35 55.25 Q191.8 55.4 191.1 55.75 L158.5 55.4 158.05 54.85 122.85 54.75 115.1 55.25 102.15 55.9 87.45 56.05 87.35 55.85 Q87.25 55.8 87.3 55.25 L87.15 55.25 86.05 55.2 83.45 55.15 Q74.6 57.55 48.55 62.3 L25.65 66.7 Q11.4 69.65 5.8 71.65 L28.6 72.05 43.85 72.2 58.0 71.7 88.6 71.85 92.55 72.35 96.45 72.85 137.6 72.75 147.2 72.4 Q154.7 72.4 160.95 72.75 L165.55 72.9 170.55 73.3 388.7 73.2 391.0 73.0 Q395.25 72.8 404.95 72.75 L482.35 72.6 489.65 72.05 541.3 72.05 548.6 72.6 626.0 72.75 Q635.7 72.8 639.95 73.0 L642.25 73.2 860.4 73.3 865.4 72.9 870.0 72.75 Q876.25 72.4 883.75 72.4 L893.35 72.75 934.5 72.85 938.4 72.35 942.35 71.85 972.95 71.7 987.1 72.2 1002.35 72.05 1006.7 72.0 M974.1 73.75 L943.4 73.65 939.5 74.0 935.6 74.35 893.9 74.5 884.5 74.15 871.35 74.25 861.95 74.8 Q861.65 75.1 847.1 75.2 L642.95 75.2 634.55 74.9 626.65 74.8 549.35 74.95 542.5 74.65 515.5 74.4 488.45 74.65 481.6 74.95 404.3 74.8 396.4 74.9 388.0 75.2 183.85 75.2 Q169.3 75.1 169.0 74.8 L159.6 74.25 146.45 74.15 137.05 74.5 95.35 74.35 91.45 74.0 87.55 73.65 56.85 73.75 43.15 73.95 27.65 73.45 0.35 73.2 Q-0.25 74.0 0.25 72.5 L0.95 71.4 Q3.0 67.0 30.55 53.95 63.25 39.25 72.35 34.9 80.4 31.0 97.0 21.55 113.75 12.1 121.6 8.25 L122.65 7.8 Q130.85 2.65 131.85 0.55 L142.4 0.6 143.45 0.6 Q150.15 -0.55 155.2 0.55 L156.15 0.55 156.1 0.8 156.6 0.95 170.25 1.15 180.35 2.45 200.15 3.5 208.85 3.35 218.4 2.95 234.4 3.0 Q250.35 3.15 250.55 3.35 L287.45 3.2 288.65 2.75 310.15 2.9 Q331.65 3.0 332.05 3.2 L352.25 3.8 Q394.4 3.65 395.3 3.35 L430.45 3.5 430.9 3.9 440.95 4.4 Q495.65 4.25 496.4 3.9 L514.0 3.75 514.05 3.7 515.5 3.7 515.85 3.7 516.9 3.7 516.95 3.75 534.55 3.9 Q535.3 4.25 590.0 4.4 L600.05 3.9 600.5 3.5 635.65 3.35 Q636.55 3.65 678.7 3.8 L698.9 3.2 Q699.3 3.0 720.8 2.9 L742.3 2.75 743.5 3.2 780.4 3.35 Q780.6 3.15 796.55 3.0 L812.55 2.95 822.1 3.35 830.8 3.5 850.6 2.45 860.7 1.15 874.35 0.95 874.85 0.8 874.8 0.55 875.75 0.55 Q880.8 -0.55 887.5 0.6 L888.55 0.6 899.1 0.55 Q900.1 2.65 908.3 7.8 L909.35 8.25 Q917.2 12.1 933.95 21.55 950.55 31.0 958.6 34.9 L1000.4 53.95 Q1027.95 67.0 1030.0 71.4 1030.55 72.0 1030.7 72.5 1031.2 74.0 1030.6 73.2 L1003.3 73.45 987.8 73.95 974.1 73.75 M1013.45 66.3 Q1018.8 67.3 1022.2 68.35 1011.95 62.1 993.7 53.25 L960.05 36.8 Q949.45 30.7 942.3 26.85 928.9 19.6 921.3 16.9 916.05 15.05 911.65 11.65 L904.65 6.5 Q901.15 4.55 895.2 3.6 891.65 5.75 888.2 8.5 884.35 11.5 881.95 14.1 884.7 14.9 888.45 17.95 L888.45 18.0 921.1 39.1 943.35 53.45 944.1 53.5 944.15 53.5 945.75 53.65 945.75 53.7 950.45 54.55 982.95 61.35 1013.45 66.3 M914.6 35.6 Q912.0 33.9 899.45 26.3 893.2 22.5 888.3 19.0 L888.15 19.0 888.05 18.8 886.1 17.35 885.15 16.85 Q882.2 15.5 881.65 14.8 L846.25 14.8 834.1 15.75 826.4 16.5 759.45 16.9 Q758.85 17.15 719.95 17.4 719.65 17.2 683.5 17.0 L647.45 16.9 Q640.4 17.2 632.8 17.1 L615.5 17.05 598.65 17.15 Q598.25 17.4 578.65 17.65 L559.05 17.8 542.3 18.45 529.35 18.9 518.75 19.0 516.5 19.0 516.4 19.0 515.5 18.9 514.55 19.0 514.45 19.0 512.2 19.0 501.6 18.9 488.65 18.45 471.9 17.8 452.3 17.65 Q432.7 17.4 432.3 17.15 L415.45 17.05 398.15 17.1 Q390.55 17.2 383.5 16.9 L347.45 17.0 Q311.3 17.2 311.0 17.4 272.1 17.15 271.5 16.9 L204.55 16.5 196.85 15.75 184.7 14.8 149.3 14.8 Q148.75 15.5 145.8 16.85 L144.85 17.35 142.9 18.8 142.8 19.0 142.65 19.0 131.5 26.3 Q118.95 33.9 116.35 35.6 L99.85 47.3 90.7 53.95 92.0 54.85 102.4 54.85 109.15 54.45 115.9 53.95 158.8 53.8 159.15 54.1 171.25 54.1 181.4 53.9 192.0 53.45 209.65 53.65 213.2 54.15 216.55 54.6 236.35 54.45 242.5 53.8 254.5 53.15 254.55 52.8 262.5 52.95 270.75 53.3 289.6 53.65 296.6 54.15 303.35 54.6 323.4 55.25 Q370.2 55.1 370.9 54.75 430.9 54.45 431.55 54.1 464.25 53.8 465.1 53.45 L565.85 53.45 Q566.7 53.8 599.4 54.1 600.05 54.45 660.05 54.75 660.75 55.1 707.55 55.25 L727.6 54.6 734.35 54.15 741.35 53.65 760.2 53.3 768.45 52.95 776.4 52.8 776.45 53.15 788.45 53.8 794.6 54.45 814.4 54.6 817.75 54.15 821.3 53.65 838.95 53.45 849.55 53.9 859.7 54.1 871.8 54.1 872.15 53.8 915.05 53.95 921.8 54.45 928.55 54.85 938.95 54.85 940.25 53.95 931.1 47.3 914.6 35.6 M945.65 54.7 L946.0 54.7 945.75 54.6 945.65 54.7 M880.35 2.75 L869.7 3.2 870.3 2.8 861.4 2.95 853.0 3.9 840.95 4.4 827.8 4.75 Q814.9 4.9 814.15 4.7 L781.65 4.5 Q781.5 4.85 744.35 5.1 743.75 4.9 721.95 4.8 L700.35 4.7 690.05 5.1 680.2 5.3 658.9 5.6 637.7 5.7 636.75 5.4 601.35 5.4 591.2 6.15 536.0 6.3 523.1 5.85 522.75 5.85 518.5 5.8 518.4 5.8 518.05 5.8 517.75 5.8 515.3 5.8 514.8 5.75 513.6 5.75 512.45 5.75 512.45 5.8 508.2 5.85 507.85 5.85 494.95 6.3 439.75 6.15 429.6 5.4 394.2 5.4 393.25 5.7 372.05 5.6 350.75 5.3 340.9 5.1 330.6 4.7 309.0 4.8 Q287.2 4.9 286.6 5.1 249.45 4.85 249.3 4.5 L216.8 4.7 Q216.05 4.9 203.15 4.75 L190.0 4.4 177.95 3.9 169.55 2.95 160.65 2.8 161.25 3.2 Q150.6 2.45 142.75 2.9 L137.1 3.4 Q140.65 5.2 143.85 7.5 148.35 10.7 150.85 13.8 L184.8 14.15 204.65 15.6 238.2 15.8 Q271.85 16.05 272.2 16.25 L291.85 16.15 Q311.5 15.95 311.8 15.75 L383.6 15.95 392.8 15.95 415.6 15.45 Q432.65 15.6 433.45 15.95 L472.55 16.25 477.6 16.65 489.65 17.15 508.2 17.0 510.8 16.95 510.8 16.8 512.85 16.8 515.3 16.75 515.65 16.75 518.75 16.95 520.15 16.95 522.75 17.0 541.3 17.15 553.35 16.65 558.4 16.25 597.5 15.95 599.05 15.8 Q602.8 15.55 615.35 15.45 L638.15 15.95 647.35 15.95 719.15 15.75 Q719.45 15.95 739.1 16.15 L758.75 16.25 Q759.1 16.05 792.75 15.8 L826.3 15.6 846.15 14.15 880.1 13.8 Q882.6 10.7 887.1 7.5 890.3 5.2 893.85 3.4 L880.4 2.75 880.35 2.75 M149.0 14.1 Q146.6 11.5 142.75 8.5 139.3 5.75 135.75 3.6 129.8 4.55 126.3 6.5 L119.3 11.65 Q114.9 15.05 109.65 16.9 102.05 19.6 88.65 26.85 L70.9 36.8 37.25 53.25 Q19.0 62.1 8.75 68.35 12.15 67.3 17.5 66.3 L48.0 61.35 80.5 54.55 85.2 53.7 85.2 53.65 86.8 53.5 86.85 53.5 87.6 53.45 Q89.3 52.3 109.85 39.1 L142.5 18.0 142.5 17.95 Q146.25 14.9 149.0 14.1 M84.95 54.7 L85.3 54.7 85.2 54.6 84.95 54.7" fill="#537842" fill-rule="evenodd" stroke="none"/>
      <path d="M1007.9 71.95 L1007.65 70.65 1006.65 69.85 Q1007.0 70.95 1006.7 72.0 L1002.35 72.05 987.1 72.2 972.95 71.7 942.35 71.85 938.4 72.35 934.5 72.85 893.35 72.75 883.75 72.4 Q876.25 72.4 870.0 72.75 L865.4 72.9 860.4 73.3 642.25 73.2 639.95 73.0 Q635.7 72.8 626.0 72.75 L548.6 72.6 541.3 72.05 489.65 72.05 482.35 72.6 404.95 72.75 Q395.25 72.8 391.0 73.0 L388.7 73.2 170.55 73.3 165.55 72.9 160.95 72.75 Q154.7 72.4 147.2 72.4 L137.6 72.75 96.45 72.85 92.55 72.35 88.6 71.85 58.0 71.7 43.85 72.2 28.6 72.05 5.8 71.65 Q11.4 69.65 25.65 66.7 L48.55 62.3 Q74.6 57.55 83.45 55.15 L86.05 55.2 87.15 55.25 87.3 55.25 Q87.25 55.8 87.35 55.85 L87.45 56.05 102.15 55.9 115.1 55.25 122.85 54.75 158.05 54.85 158.5 55.4 191.1 55.75 Q191.8 55.4 209.35 55.25 L212.65 55.7 215.75 56.15 236.15 56.3 249.05 55.4 269.7 54.6 289.3 55.25 302.5 55.9 312.35 56.3 322.15 56.55 346.25 56.85 370.0 56.95 Q370.45 56.8 400.6 56.55 L430.7 56.3 Q431.1 56.15 447.4 55.95 L463.55 55.75 472.75 55.35 481.25 55.25 494.9 55.6 508.1 55.75 508.55 55.75 512.3 55.6 513.25 55.6 513.25 55.4 515.5 55.5 517.7 55.6 518.65 55.6 522.4 55.75 522.85 55.75 536.05 55.6 549.7 55.25 558.2 55.35 567.4 55.75 583.55 55.95 Q599.85 56.15 600.25 56.3 L630.15 56.55 630.35 56.55 Q660.5 56.8 660.95 56.95 L684.7 56.85 708.8 56.55 718.6 56.3 728.45 55.9 741.65 55.25 761.25 54.6 781.9 55.4 794.8 56.3 815.2 56.15 818.3 55.7 821.6 55.25 Q839.15 55.4 839.85 55.75 L872.45 55.4 872.9 54.85 908.1 54.75 915.85 55.25 928.8 55.9 943.5 56.05 943.6 55.85 943.65 55.25 943.8 55.25 944.9 55.2 947.5 55.15 Q956.35 57.55 982.4 62.3 1015.8 68.35 1025.15 71.65 L1007.9 71.95 M1007.15 63.9 Q995.5 55.8 977.8 48.0 957.9 39.7 947.7 34.75 L931.5 25.05 927.45 25.25 Q926.0 25.25 923.75 27.05 921.55 28.95 920.95 29.25 L919.95 29.05 926.9 22.4 915.65 16.15 Q890.15 2.55 890.15 11.35 890.15 16.8 907.6 27.55 L933.85 42.15 Q943.85 47.7 965.15 53.35 L1004.05 63.9 1007.15 63.9 M987.3 67.05 L986.65 67.05 986.75 66.1 Q986.75 62.4 967.65 61.2 L944.75 59.7 941.1 59.4 941.85 59.5 924.3 57.9 897.8 57.9 883.9 57.2 870.35 56.95 867.35 57.1 845.65 57.6 844.35 57.9 814.75 58.25 808.55 58.75 802.4 59.2 779.75 59.2 Q777.15 60.35 772.45 61.65 762.6 64.4 758.2 64.4 L756.65 64.15 755.95 63.6 755.95 62.15 760.0 61.95 Q761.2 61.95 765.3 59.95 L767.6 58.85 755.2 57.75 718.55 57.75 704.75 59.2 685.1 60.65 665.15 60.65 663.7 60.35 628.35 60.0 626.9 59.7 606.5 59.35 596.85 58.7 576.2 58.7 563.1 57.6 546.2 57.6 Q538.15 60.6 525.8 60.25 L514.3 59.35 491.7 59.55 489.75 60.0 404.95 60.2 402.8 60.65 362.85 60.65 360.3 62.85 Q357.6 64.65 355.05 65.3 L354.25 65.75 Q353.4 66.0 353.4 65.0 L356.5 60.65 338.95 60.65 337.0 60.2 319.6 60.0 311.35 59.45 303.55 58.9 257.15 58.7 239.65 59.7 224.55 60.65 214.3 60.2 204.15 59.55 179.8 59.2 178.3 58.9 155.35 58.55 153.85 58.25 137.85 57.9 132.1 57.7 126.3 57.9 103.1 57.85 Q77.3 58.05 71.45 59.6 69.85 60.0 67.95 61.15 66.05 62.3 63.45 62.95 L56.5 63.8 48.75 64.05 Q39.2 64.6 35.1 68.7 L35.9 69.4 38.65 69.55 72.15 69.55 Q92.1 70.95 113.4 69.55 L135.25 69.55 156.0 71.15 164.55 71.2 197.9 67.4 Q194.8 68.65 185.45 71.2 L235.3 71.3 237.3 71.8 382.2 71.8 390.35 71.25 398.9 70.65 418.9 70.5 427.05 69.95 435.7 69.35 459.55 69.35 466.35 70.0 481.85 69.85 489.15 69.3 Q496.55 69.0 506.0 69.2 L528.45 69.55 533.0 69.8 537.55 69.55 561.8 69.2 563.2 68.9 588.25 68.55 589.7 68.25 629.35 68.25 Q621.65 65.05 619.65 63.9 L619.85 63.6 620.0 63.45 Q628.05 64.6 638.4 67.2 L643.55 68.65 673.6 70.5 708.15 70.5 709.6 70.2 817.2 70.2 818.65 70.5 842.4 70.85 847.75 71.2 853.25 71.3 857.6 70.8 865.55 70.2 885.65 69.5 897.15 68.9 962.05 68.9 Q964.85 68.2 974.5 67.25 L987.3 67.05 M1013.45 66.3 L982.95 61.35 950.45 54.55 945.75 53.7 945.75 53.65 944.15 53.5 944.1 53.5 943.35 53.45 921.1 39.1 888.45 18.0 888.45 17.95 Q884.7 14.9 881.95 14.1 884.35 11.5 888.2 8.5 891.65 5.75 895.2 3.6 901.15 4.55 904.65 6.5 L911.65 11.65 Q916.05 15.05 921.3 16.9 928.9 19.6 942.3 26.85 949.45 30.7 960.05 36.8 L993.7 53.25 Q1011.95 62.1 1022.2 68.35 1018.8 67.3 1013.45 66.3 M956.55 46.2 Q957.6 46.35 957.85 46.6 L958.1 47.1 Q958.25 47.75 956.6 47.75 955.75 47.75 955.35 47.25 954.9 46.65 954.2 46.45 954.2 46.35 954.35 46.2 L954.5 45.95 956.55 46.2 M893.45 64.55 Q894.35 64.75 894.55 65.05 L892.8 65.6 890.95 65.85 891.65 65.0 Q892.2 64.5 892.6 64.4 L893.45 64.55 M957.65 67.6 Q955.55 67.6 951.5 66.15 L947.05 64.55 947.2 64.25 947.35 64.0 952.95 64.9 957.65 65.05 959.05 65.25 959.45 65.85 959.6 66.35 959.2 67.15 Q958.7 67.6 957.65 67.6 M879.0 6.05 Q875.25 4.75 865.45 4.75 849.1 4.75 848.6 6.0 L836.55 6.55 812.05 6.8 804.75 7.4 797.2 8.0 779.15 8.0 777.85 7.6 699.2 7.6 697.9 8.0 642.5 8.0 Q641.7 7.75 627.15 7.9 L611.55 8.1 602.8 7.7 602.6 7.7 599.35 8.2 568.4 8.2 563.2 7.85 541.5 8.5 540.4 9.25 Q539.6 9.65 538.5 9.65 533.0 8.6 525.35 8.0 510.05 6.85 498.85 9.3 L446.6 9.3 435.5 8.35 416.3 8.0 335.05 7.85 328.6 7.2 318.8 6.25 285.5 6.25 262.6 7.85 240.4 6.9 225.2 5.9 215.55 6.75 205.85 7.55 188.4 7.6 Q189.3 7.0 184.25 5.75 L164.25 5.4 157.95 4.95 148.65 4.95 148.3 7.55 148.2 8.0 147.7 7.7 149.25 8.55 Q157.55 12.8 167.5 11.7 L188.15 11.7 Q195.6 13.5 217.8 14.25 L242.9 13.45 327.2 13.3 Q323.0 10.3 321.8 8.9 L322.4 8.75 Q323.6 9.9 326.7 9.9 328.65 9.9 333.95 12.15 335.5 12.8 336.6 13.4 348.35 13.65 360.65 13.55 372.15 13.45 376.35 13.15 L452.45 13.15 457.85 13.8 466.6 14.75 509.15 14.95 515.3 14.3 520.7 13.65 549.7 13.65 551.85 13.85 551.95 13.85 561.35 13.3 591.5 13.0 601.3 12.5 620.65 12.65 625.15 13.15 629.65 13.65 668.85 13.65 670.2 13.3 686.2 13.0 687.7 12.65 705.05 12.65 711.85 13.3 722.45 13.8 743.75 14.1 745.05 14.45 822.9 14.45 855.05 11.9 Q873.0 10.25 880.6 6.55 L879.0 6.05 M880.35 2.75 L880.4 2.75 893.85 3.4 Q890.3 5.2 887.1 7.5 882.6 10.7 880.1 13.8 L846.15 14.15 826.3 15.6 792.75 15.8 Q759.1 16.05 758.75 16.25 L739.1 16.15 Q719.45 15.95 719.15 15.75 L647.35 15.95 638.15 15.95 615.35 15.45 Q602.8 15.55 599.05 15.8 L597.5 15.95 558.4 16.25 553.35 16.65 541.3 17.15 522.75 17.0 520.15 16.95 518.75 16.95 515.65 16.75 515.3 16.75 512.85 16.8 510.8 16.8 510.8 16.95 508.2 17.0 489.65 17.15 477.6 16.65 472.55 16.25 433.45 15.95 Q432.65 15.6 415.6 15.45 L392.8 15.95 383.6 15.95 311.8 15.75 Q311.5 15.95 291.85 16.15 L272.2 16.25 Q271.85 16.05 238.2 15.8 L204.65 15.6 184.8 14.15 150.85 13.8 Q148.35 10.7 143.85 7.5 140.65 5.2 137.1 3.4 L142.75 2.9 Q150.6 2.45 161.25 3.2 L160.65 2.8 169.55 2.95 177.95 3.9 190.0 4.4 203.15 4.75 Q216.05 4.9 216.8 4.7 L249.3 4.5 Q249.45 4.85 286.6 5.1 287.2 4.9 309.0 4.8 L330.6 4.7 340.9 5.1 350.75 5.3 372.05 5.6 393.25 5.7 394.2 5.4 429.6 5.4 439.75 6.15 494.95 6.3 507.85 5.85 508.2 5.85 512.45 5.8 512.45 5.75 513.6 5.75 514.8 5.75 515.3 5.8 517.75 5.8 518.05 5.8 518.4 5.8 518.5 5.8 522.75 5.85 523.1 5.85 536.0 6.3 591.2 6.15 601.35 5.4 636.75 5.4 637.7 5.7 658.9 5.6 680.2 5.3 690.05 5.1 700.35 4.7 721.95 4.8 Q743.75 4.9 744.35 5.1 781.5 4.85 781.65 4.5 L814.15 4.7 Q814.9 4.9 827.8 4.75 L840.95 4.4 853.0 3.9 861.4 2.95 870.3 2.8 869.7 3.2 880.35 2.75 M865.85 64.55 Q866.45 62.8 866.7 62.65 867.45 62.15 870.15 62.95 L870.55 63.9 Q869.8 64.85 868.05 65.05 L865.85 64.55 M743.65 65.85 L742.2 65.55 Q741.6 65.2 741.45 65.2 741.75 63.65 742.35 63.3 L745.75 63.1 746.6 64.4 Q745.45 65.85 743.65 65.85 M569.4 63.75 Q568.1 65.2 566.45 65.2 L565.1 65.05 564.9 64.9 564.55 64.7 Q564.4 64.65 564.4 63.7 564.4 62.65 564.5 62.55 564.55 62.45 564.6 62.6 L568.55 62.45 Q568.55 62.8 569.4 63.75 M556.05 63.9 L555.55 64.75 553.45 64.9 553.3 64.85 Q553.15 64.8 553.15 63.85 L553.25 62.7 553.3 62.8 554.1 62.75 555.75 62.95 556.05 63.9 M422.05 67.1 Q420.45 66.95 419.9 65.65 L421.45 64.45 Q422.65 63.9 424.2 64.8 L424.5 65.85 Q424.0 66.55 422.05 67.1 M391.45 67.25 L390.2 67.1 390.2 66.95 389.65 66.65 389.55 65.45 Q389.55 64.65 390.65 64.2 391.85 63.7 393.05 64.4 L393.4 65.05 393.9 65.85 393.05 66.7 Q392.45 67.25 391.45 67.25 M265.85 63.9 Q266.15 63.35 267.2 63.05 L268.85 62.95 267.8 64.4 Q266.3 64.4 265.85 63.9 M289.0 66.1 Q286.85 65.85 286.4 65.3 287.65 64.3 288.25 64.1 289.6 63.6 290.95 64.65 L290.95 65.65 289.0 66.1 M225.85 11.05 L224.6 10.9 224.55 10.7 224.2 10.5 Q224.05 10.45 224.05 9.5 224.05 8.05 225.75 8.2 227.45 8.35 228.8 9.9 L228.85 10.4 Q228.2 10.4 227.45 10.75 L225.85 11.05 M149.0 14.1 Q146.25 14.9 142.5 17.95 L142.5 18.0 109.85 39.1 Q89.3 52.3 87.6 53.45 L86.85 53.5 86.8 53.5 85.2 53.65 85.2 53.7 80.5 54.55 48.0 61.35 17.5 66.3 Q12.15 67.3 8.75 68.35 19.0 62.1 37.25 53.25 L70.9 36.8 88.65 26.85 Q102.05 19.6 109.65 16.9 114.9 15.05 119.3 11.65 L126.3 6.5 Q129.8 4.55 135.75 3.6 139.3 5.75 142.75 8.5 146.6 11.5 149.0 14.1 M143.4 14.75 Q143.4 1.35 122.55 11.85 116.15 15.05 104.0 22.55 91.05 30.5 86.75 32.8 78.3 37.5 57.0 46.65 36.75 55.3 26.85 61.15 L44.5 58.75 69.6 54.75 Q80.95 53.0 87.75 48.9 L93.05 45.3 98.8 41.65 112.1 33.9 96.25 32.95 96.4 32.65 96.9 32.0 105.6 31.55 111.85 31.65 117.05 30.9 124.95 26.05 143.4 14.75 M81.3 45.05 L80.9 45.45 Q80.5 45.8 79.5 45.8 L78.25 45.7 78.2 45.55 77.85 45.35 77.75 44.25 77.85 43.15 77.9 43.2 Q79.75 42.9 81.3 43.6 L81.3 45.05 M82.7 65.45 L80.9 65.35 80.35 65.2 80.0 64.4 79.5 63.75 Q81.4 61.65 83.75 62.2 85.3 62.6 86.6 63.9 L84.7 64.85 Q83.65 65.45 82.7 65.45 M143.3 64.4 Q143.3 61.1 147.05 62.95 L147.35 63.9 Q146.7 64.95 143.8 65.2 L143.55 65.4 Q143.3 65.45 143.3 64.4" fill="#68ba6b" fill-rule="evenodd" stroke="none"/>
    </g>
  </defs>
</svg>
