<?xml version="1.0" encoding="UTF-8" standalone="no"?>
<svg xmlns:ffdec="https://www.free-decompiler.com/flash" xmlns:xlink="http://www.w3.org/1999/xlink" ffdec:objectType="frame" height="148.4px" width="106.05px" xmlns="http://www.w3.org/2000/svg">
  <g transform="matrix(1.0, 0.0, 0.0, 1.0, 30.45, 64.4)">
    <use ffdec:characterId="1349" height="21.2" transform="matrix(7.0, 0.0, 0.0, 7.0, -30.45, -64.4)" width="15.15" xlink:href="#shape0"/>
  </g>
  <defs>
    <g id="shape0" transform="matrix(1.0, 0.0, 0.0, 1.0, 4.35, 9.2)">
      <path d="M9.0 -9.1 Q9.5 -8.65 9.5 -5.45 9.6 -5.2 9.6 -4.95 9.6 -4.7 9.25 -3.75 9.25 -3.15 9.15 -2.85 9.05 -2.3 8.85 -1.8 9.65 -2.35 10.4 -2.5 L10.4 -2.6 10.7 -2.55 10.75 -2.55 10.7 -2.35 10.7 -2.3 Q10.75 -2.15 10.75 -1.95 L10.8 -1.85 Q10.75 -1.3 10.45 -0.15 L10.35 0.1 Q10.1 0.95 9.5 2.1 9.0 3.05 8.5 3.65 L8.6 3.9 8.75 5.3 Q8.9 6.5 8.9 7.0 8.9 7.5 8.75 7.95 8.55 8.4 8.55 8.6 8.55 8.7 8.75 9.05 8.9 9.35 8.9 9.55 8.9 9.9 8.85 10.05 8.8 10.25 8.7 10.35 8.55 10.9 7.95 11.25 6.7 12.0 3.45 12.0 0.3 12.0 -2.25 10.8 -2.9 10.5 -3.4 10.15 L-3.6 9.05 -3.65 8.95 -3.75 8.35 -3.9 7.3 Q-3.95 6.8 -4.05 6.45 L-4.2 5.05 Q-4.2 4.4 -3.65 4.4 L-3.6 4.4 -3.8 3.6 -4.0 2.05 -4.0 1.85 -4.1 1.8 Q-4.35 1.55 -4.35 1.25 -4.35 0.55 -4.2 -0.45 -4.05 -1.35 -3.85 -2.05 -3.8 -2.3 -3.8 -3.0 -3.8 -3.45 -3.55 -3.55 L-3.3 -3.6 Q-3.3 -4.3 -3.05 -5.15 -2.85 -5.85 -2.5 -6.25 L-2.55 -6.35 Q-2.65 -6.65 -2.65 -6.8 -2.65 -7.5 -2.55 -7.7 -2.45 -7.9 -1.85 -8.0 0.6 -8.3 3.85 -9.05 4.7 -9.25 5.3 -7.85 5.75 -6.95 5.8 -6.45 6.0 -6.3 6.1 -5.95 6.2 -5.7 6.35 -4.9 6.4 -4.6 6.7 -3.7 L6.75 -3.95 Q7.25 -6.25 7.9 -7.8 8.55 -9.5 9.0 -9.1 M4.25 -7.8 L4.25 -7.95 Q4.2 -7.95 4.2 -8.0 L1.7 -7.45 Q-0.25 -7.05 -1.75 -6.9 L-1.8 -6.65 -1.65 -6.7 -1.05 -6.6 -0.1 -6.4 0.0 -6.4 3.3 -6.4 4.55 -6.6 4.5 -6.8 Q4.3 -7.35 4.25 -7.8 M5.1 -5.5 L5.05 -5.65 4.3 -5.5 3.4 -5.35 -0.1 -5.35 Q-1.65 -5.6 -1.75 -5.7 -1.95 -5.45 -2.15 -4.4 -2.3 -3.9 -2.5 -3.55 L-1.25 -3.4 1.75 -2.95 1.9 -2.95 4.0 -3.05 5.55 -3.05 5.65 -3.05 5.6 -3.15 5.55 -3.4 5.3 -4.5 5.1 -5.45 5.1 -5.5 M4.1 -1.7 Q1.3 -1.7 -0.3 -1.9 -1.8 -2.1 -2.5 -2.55 -2.85 -2.2 -3.1 -1.0 -3.35 0.15 -3.35 0.85 L-3.35 1.0 Q-3.3 1.15 -3.15 1.25 -3.05 1.3 -2.95 1.5 -2.4 1.65 -1.25 2.05 1.85 3.1 4.5 3.4 L4.65 3.15 4.6 3.15 3.2 2.5 3.0 2.4 Q2.35 2.1 1.65 1.7 -1.15 0.1 -2.3 -1.05 L-2.3 -1.1 Q-1.55 -0.6 -0.7 -0.15 L-0.65 -0.15 -0.5 -0.05 -0.45 -0.05 -0.4 0.0 1.3 0.85 Q3.5 1.95 5.05 2.4 5.3 2.0 5.6 1.6 5.6 1.45 5.7 1.05 5.85 0.55 6.15 -0.3 L5.8 -1.75 4.7 -1.7 4.1 -1.7 M8.4 -3.2 L8.4 -3.3 8.45 -3.3 8.6 -4.25 8.6 -4.45 8.7 -4.9 8.7 -5.05 Q8.7 -5.4 8.6 -5.9 L8.4 -6.9 8.0 -4.95 8.0 -4.9 7.6 -3.0 7.55 -2.8 7.4 -2.0 7.25 -1.5 6.95 -0.6 6.65 0.1 7.55 -0.7 7.7 -1.15 7.7 -1.2 7.8 -1.5 7.85 -1.6 8.2 -2.45 8.4 -3.2 M8.35 1.75 L8.75 1.15 8.8 1.05 9.5 0.0 9.95 -1.35 Q9.55 -0.95 8.9 -0.45 L8.55 -0.15 8.45 -0.05 7.75 0.55 Q7.0 1.2 6.75 1.5 L6.65 1.6 6.5 1.9 6.4 2.0 Q6.1 2.5 5.65 3.35 L5.6 3.45 5.4 3.7 4.75 4.9 4.65 5.05 4.75 5.0 5.2 4.95 6.05 4.8 6.1 4.75 6.15 4.75 6.4 4.7 6.6 4.35 Q6.8 4.05 7.15 3.5 L7.4 3.1 8.35 1.75 M1.2 9.95 L1.25 9.9 3.55 9.45 Q5.3 9.1 5.9 8.8 6.8 8.2 7.45 7.8 L7.7 7.65 Q7.85 7.1 7.85 6.9 L7.85 6.7 7.65 5.3 7.65 5.35 7.05 5.6 6.95 5.6 Q6.2 5.85 5.05 6.05 3.4 6.3 1.6 6.3 L-1.15 6.15 Q-2.75 6.0 -3.05 5.85 L-3.05 5.8 Q-3.1 5.75 -3.1 5.9 L-2.75 7.55 Q-2.45 9.25 -2.45 9.55 L-2.3 9.6 Q0.05 10.5 2.25 10.7 L3.4 10.75 Q5.75 10.75 7.15 10.3 7.6 10.15 7.95 9.95 7.8 9.6 7.55 9.05 7.2 9.2 6.7 9.35 L6.65 9.4 Q4.7 10.05 2.6 10.0 L1.1 9.95 1.2 9.95 M2.85 4.0 L1.3 3.65 Q-1.0 3.1 -3.2 2.35 L-2.85 3.65 Q-2.7 4.4 -2.7 4.8 L-2.4 4.9 Q-1.65 5.1 -0.15 5.15 L0.3 5.15 0.95 5.2 1.7 5.2 4.0 5.1 4.0 5.0 Q4.0 4.65 4.15 4.2 L2.85 4.0" fill="#111111" fill-rule="evenodd" stroke="none"/>
      <path d="M-1.25 -3.4 L-2.5 -3.55 Q-2.3 -3.9 -2.15 -4.4 -1.95 -5.45 -1.75 -5.7 -1.65 -5.6 -0.1 -5.35 L3.4 -5.35 4.3 -5.5 5.05 -5.65 5.1 -5.5 Q2.75 -4.8 0.35 -3.95 L-1.25 -3.4 M5.6 -3.15 L5.65 -3.05 5.55 -3.05 5.6 -3.15 M4.0 -3.05 L1.9 -2.95 Q2.7 -3.2 3.5 -3.55 4.0 -3.8 4.5 -4.05 L4.0 -3.05 M4.1 -1.7 L4.05 -1.55 3.9 -1.4 Q3.45 -1.05 3.45 -0.9 3.45 -0.8 2.95 0.0 L2.85 0.2 Q2.15 0.15 1.85 0.15 L0.85 0.0 Q-0.35 -0.3 -1.0 -0.35 L-0.7 -0.15 Q-1.55 -0.6 -2.3 -1.1 L-2.3 -1.05 Q-1.15 0.1 1.65 1.7 2.35 2.1 3.0 2.4 1.85 2.15 1.05 1.85 L-1.6 1.2 Q-2.7 1.0 -3.35 1.0 L-3.35 0.85 Q-3.35 0.15 -3.1 -1.0 -2.85 -2.2 -2.5 -2.55 -1.8 -2.1 -0.3 -1.9 1.3 -1.7 4.1 -1.7" fill="#fff8de" fill-rule="evenodd" stroke="none"/>
      <path d="M2.25 9.05 L2.35 9.0 Q2.65 8.9 2.9 8.9 L2.25 9.05" fill="#06bec2" fill-rule="evenodd" stroke="none"/>
      <path d="M-1.25 -3.4 L0.35 -3.95 Q2.75 -4.8 5.1 -5.5 L5.1 -5.45 5.3 -4.5 5.55 -3.4 5.6 -3.15 5.55 -3.05 4.0 -3.05 4.5 -4.05 Q4.0 -3.8 3.5 -3.55 2.7 -3.2 1.9 -2.95 L1.75 -2.95 -1.25 -3.4 M-0.7 -0.15 L-1.0 -0.35 Q-0.35 -0.3 0.85 0.0 L1.85 0.15 Q2.15 0.15 2.85 0.2 L2.95 0.0 Q3.45 -0.8 3.45 -0.9 3.45 -1.05 3.9 -1.4 L4.05 -1.55 4.1 -1.7 4.7 -1.7 5.8 -1.75 6.15 -0.3 Q5.85 0.55 5.7 1.05 5.6 1.45 5.6 1.6 5.3 2.0 5.05 2.4 3.5 1.95 1.3 0.85 L-0.4 0.0 -0.45 -0.05 -0.5 -0.05 -0.65 -0.15 -0.7 -0.15 M-3.35 1.0 Q-2.7 1.0 -1.6 1.2 L1.05 1.85 Q1.85 2.15 3.0 2.4 L3.2 2.5 4.6 3.15 4.65 3.15 4.5 3.4 Q1.85 3.1 -1.25 2.05 -2.4 1.65 -2.95 1.5 -3.05 1.3 -3.15 1.25 -3.3 1.15 -3.35 1.0" fill="#c1b174" fill-rule="evenodd" stroke="none"/>
      <path d="M8.4 -3.2 L8.2 -2.45 7.85 -1.6 7.55 -2.8 7.6 -3.0 8.0 -4.9 8.05 -4.5 Q8.2 -3.85 8.4 -3.2 M8.45 -0.05 Q8.35 0.4 8.35 0.9 L8.35 1.75 7.4 3.1 7.4 2.75 Q7.4 2.25 7.65 1.05 L7.75 0.55 8.45 -0.05 M6.6 4.35 L6.4 4.7 6.15 4.75 5.65 3.35 Q6.1 2.5 6.4 2.0 L6.4 2.4 6.6 4.35 M4.75 5.0 L4.65 5.05 4.75 4.9 4.75 5.0" fill="#d0ccc0" fill-rule="evenodd" stroke="none"/>
      <path d="M8.0 -4.9 L8.0 -4.95 8.4 -6.9 8.6 -5.9 Q8.7 -5.4 8.7 -5.05 L8.7 -4.9 8.6 -4.45 8.6 -4.25 8.45 -3.3 8.4 -3.3 8.4 -3.2 Q8.2 -3.85 8.05 -4.5 L8.0 -4.9 M7.85 -1.6 L7.8 -1.5 7.7 -1.2 7.7 -1.15 7.55 -0.7 6.65 0.1 6.95 -0.6 7.25 -1.5 7.4 -2.0 7.55 -2.8 7.85 -1.6 M8.45 -0.05 L8.55 -0.15 8.9 -0.45 Q9.55 -0.95 9.95 -1.35 L9.5 0.0 8.8 1.05 8.75 1.15 8.35 1.75 8.35 0.9 Q8.35 0.4 8.45 -0.05 M7.4 3.1 L7.15 3.5 Q6.8 4.05 6.6 4.35 L6.4 2.4 6.4 2.0 6.5 1.9 6.65 1.6 6.75 1.5 Q7.0 1.2 7.75 0.55 L7.65 1.05 Q7.4 2.25 7.4 2.75 L7.4 3.1 M6.15 4.75 L6.1 4.75 6.05 4.8 5.2 4.95 4.75 5.0 4.75 4.9 5.4 3.7 5.6 3.45 5.65 3.35 6.15 4.75" fill="#866e57" fill-rule="evenodd" stroke="none"/>
      <path d="M0.0 -6.4 L0.75 -6.65 Q3.4 -7.45 4.25 -7.8 4.3 -7.35 4.5 -6.8 L4.55 -6.6 3.3 -6.4 0.0 -6.4" fill="#600000" fill-rule="evenodd" stroke="none"/>
      <path d="M0.0 -6.4 L-0.1 -6.4 -1.05 -6.6 -1.65 -6.7 -1.8 -6.65 -1.75 -6.9 Q-0.25 -7.05 1.7 -7.45 L4.2 -8.0 Q4.2 -7.95 4.25 -7.95 L4.25 -7.8 Q3.4 -7.45 0.75 -6.65 L0.0 -6.4" fill="#b00000" fill-rule="evenodd" stroke="none"/>
      <path d="M1.2 9.95 L0.7 9.95 0.35 9.9 Q0.25 9.85 0.2 9.75 0.85 9.35 2.35 8.9 2.65 8.6 3.35 8.05 4.75 7.0 6.3 6.0 L6.95 5.6 7.05 5.6 7.65 5.35 7.65 5.3 7.85 6.7 7.85 6.9 Q7.85 7.1 7.7 7.65 L7.45 7.8 Q6.8 8.2 5.9 8.8 5.3 9.1 3.55 9.45 L1.25 9.9 1.2 9.95 M2.25 10.7 L2.3 10.7 Q5.3 10.3 6.2 9.65 L6.65 9.4 6.7 9.35 Q7.2 9.2 7.55 9.05 7.8 9.6 7.95 9.95 7.6 10.15 7.15 10.3 5.75 10.75 3.4 10.75 L2.25 10.7 M-2.4 4.9 L2.0 4.2 2.85 4.0 4.15 4.2 Q4.0 4.65 4.0 5.0 L4.0 5.1 1.7 5.2 0.95 5.2 0.3 5.15 -0.15 5.15 Q-1.65 5.1 -2.4 4.9 M2.25 9.05 L2.9 8.9 Q2.65 8.9 2.35 9.0 L2.25 9.05" fill="#0070e0" fill-rule="evenodd" stroke="none"/>
      <path d="M6.95 5.6 L6.3 6.0 Q4.75 7.0 3.35 8.05 2.65 8.6 2.35 8.9 0.85 9.35 0.2 9.75 0.25 9.85 0.35 9.9 L0.7 9.95 1.2 9.95 1.1 9.95 2.6 10.0 Q4.7 10.05 6.65 9.4 L6.2 9.65 Q5.3 10.3 2.3 10.7 L2.25 10.7 Q0.05 10.5 -2.3 9.6 L-2.45 9.55 Q-2.45 9.25 -2.75 7.55 L-3.1 5.9 Q-3.1 5.75 -3.05 5.8 L-3.05 5.85 Q-2.75 6.0 -1.15 6.15 L1.6 6.3 Q3.4 6.3 5.05 6.05 6.2 5.85 6.95 5.6 M-2.4 4.9 L-2.7 4.8 Q-2.7 4.4 -2.85 3.65 L-3.2 2.35 Q-1.0 3.1 1.3 3.65 L2.85 4.0 2.0 4.2 -2.4 4.9" fill="#80c0f0" fill-rule="evenodd" stroke="none"/>
    </g>
  </defs>
</svg>
