<?xml version="1.0" encoding="UTF-8" standalone="no"?>
<svg xmlns:ffdec="https://www.free-decompiler.com/flash" xmlns:xlink="http://www.w3.org/1999/xlink" ffdec:objectType="frame" height="152.95px" width="97.3px" xmlns="http://www.w3.org/2000/svg">
  <g transform="matrix(1.0, 0.0, 0.0, 1.0, 24.85, 63.35)">
    <use ffdec:characterId="1060" height="21.85" transform="matrix(7.0, 0.0, 0.0, 7.0, -24.85, -63.35)" width="13.9" xlink:href="#shape0"/>
  </g>
  <defs>
    <g id="shape0" transform="matrix(1.0, 0.0, 0.0, 1.0, 3.55, 9.05)">
      <path d="M3.3 -6.3 Q3.95 -6.6 3.95 -6.9 3.95 -7.65 3.25 -7.75 L1.3 -7.35 -0.75 -6.95 -1.0 -6.9 -1.4 -6.7 -1.6 -6.65 Q-2.0 -6.5 -2.05 -6.15 L-2.1 -6.15 -2.1 -6.0 -2.05 -6.0 Q-2.05 -5.8 -1.95 -5.7 -1.8 -5.55 -1.55 -5.5 L-1.5 -5.5 Q-0.65 -5.5 0.9 -5.9 L1.8 -5.8 Q2.2 -5.8 3.05 -6.15 L3.3 -6.3 M3.15 -9.05 L3.55 -9.05 Q4.3 -9.05 4.85 -8.25 5.2 -7.65 5.2 -7.25 5.2 -7.1 5.3 -6.75 L5.3 -6.6 5.55 -6.4 6.15 -6.15 Q8.35 -4.85 9.3 -2.6 9.7 -1.9 10.0 -0.75 10.35 0.55 10.35 1.35 10.35 2.5 9.75 4.3 9.3 5.8 8.8 6.7 8.4 7.4 8.15 8.45 8.05 9.0 7.85 10.1 L7.75 10.55 7.7 10.65 7.15 11.4 Q6.95 11.65 5.95 12.3 5.2 12.5 4.3 12.65 L3.15 12.8 0.05 12.4 -0.9 12.3 -1.1 12.25 Q-1.45 12.05 -1.75 11.85 -3.15 10.85 -3.45 9.5 -3.45 9.2 -3.55 8.7 -3.25 8.15 -3.25 8.0 -3.25 7.8 -3.35 7.6 L-3.4 6.6 -3.4 6.1 -3.3 4.65 -3.25 4.0 Q-3.35 2.5 -3.35 1.8 -3.3 1.2 -3.4 -0.1 L-3.45 -2.0 Q-3.45 -3.0 -3.3 -4.0 L-3.35 -4.8 Q-3.35 -5.35 -3.25 -5.75 L-3.25 -6.05 -3.3 -6.4 Q-3.3 -7.2 -2.25 -7.8 -0.85 -8.05 1.05 -8.5 2.3 -8.8 3.15 -9.05 M4.95 -5.35 Q4.7 -5.4 4.55 -5.5 4.5 -5.55 4.45 -5.6 4.35 -5.45 4.35 -5.3 L4.3 -5.15 Q4.1 -4.75 3.95 -4.1 L3.8 -3.35 3.65 -1.4 3.55 -0.05 3.55 0.65 3.6 1.0 3.6 1.25 3.65 1.45 3.65 1.6 3.85 2.1 Q3.95 3.05 4.1 3.85 4.35 5.05 4.7 5.75 4.85 6.05 5.05 6.3 L5.3 6.55 5.6 6.9 Q6.0 7.3 6.6 7.75 L6.85 7.6 6.85 7.55 Q7.1 7.55 7.35 7.35 L7.4 7.25 7.4 7.15 7.4 7.05 7.0 6.5 6.9 6.5 6.7 6.05 6.65 5.95 Q6.45 5.6 6.45 5.45 6.05 4.7 6.05 4.5 6.05 4.3 5.8 3.4 5.5 2.5 5.5 2.05 L5.4 1.3 Q5.3 0.75 5.3 0.6 L5.2 -0.55 5.1 -1.75 Q5.1 -2.7 5.15 -3.6 L5.3 -4.6 5.3 -4.65 5.35 -4.8 Q5.15 -5.0 4.95 -5.3 L4.95 -5.35 M3.95 9.0 L4.3 9.0 Q4.45 9.0 4.7 8.85 4.9 8.75 5.05 8.75 L5.2 8.75 5.45 8.55 5.8 8.3 5.95 8.2 Q5.45 7.7 4.85 6.4 L4.35 5.35 4.0 3.7 Q3.25 0.6 3.25 -0.25 L3.4 -1.6 3.5 -2.95 3.5 -3.2 3.55 -3.65 3.55 -3.85 Q3.6 -4.8 3.8 -5.65 L3.95 -6.15 3.3 -5.95 2.85 -5.8 2.8 -5.8 1.65 -5.45 -1.9 -4.95 -2.2 -5.0 -2.2 -4.65 -2.25 -4.4 -2.25 -4.1 -2.15 -3.65 Q-2.05 -3.25 -2.05 -2.95 L-2.15 -0.8 -2.1 -0.5 Q-2.1 0.4 -2.2 1.6 L-2.25 2.65 -2.3 3.9 -2.25 4.4 -2.1 7.05 -2.1 7.5 -1.85 7.6 Q-1.55 8.5 -0.85 8.55 L-0.65 8.7 Q-0.3 8.95 0.2 8.95 L0.8 9.0 Q1.15 9.05 1.4 9.15 L1.85 9.3 3.45 9.1 3.95 9.0 M5.65 -4.4 Q5.55 -4.1 5.55 -3.9 L5.45 -2.85 5.45 -2.8 Q5.35 -1.9 5.35 -1.75 5.35 -0.05 5.8 2.55 6.0 3.8 6.25 4.65 L6.45 5.3 6.5 5.35 7.0 5.95 7.2 6.2 7.35 6.35 7.4 6.55 7.5 6.6 7.75 6.65 7.8 6.65 7.85 6.75 7.9 6.6 Q8.1 6.4 8.4 5.65 8.65 5.15 9.0 4.2 L9.1 3.85 9.2 3.15 9.3 2.4 Q9.3 2.15 9.45 1.15 L9.45 0.9 9.4 0.55 9.4 0.35 9.3 -0.1 9.1 -0.7 Q9.1 -0.8 9.0 -1.0 8.8 -1.65 8.45 -2.3 8.1 -3.05 7.75 -3.6 7.05 -4.25 6.1 -4.9 L5.9 -4.9 5.8 -4.75 5.65 -4.4 M-0.4 -3.4 L-0.1 -3.8 0.05 -3.9 0.1 -3.9 0.15 -3.95 0.55 -4.0 Q1.6 -4.0 2.0 -3.1 2.2 -2.6 2.2 -2.0 2.2 -1.55 1.85 -1.15 1.7 -1.0 1.55 -0.9 1.1 -0.65 0.5 -0.65 L0.45 -0.65 Q-0.25 -0.65 -0.65 -1.2 -0.9 -1.6 -0.9 -1.95 -0.9 -2.5 -0.65 -3.1 L-0.4 -3.4 M0.4 0.5 Q0.6 0.4 0.85 0.4 1.85 0.4 2.25 1.2 L2.05 1.0 Q1.6 0.55 1.0 0.55 0.65 0.55 0.4 0.75 0.2 0.9 0.05 1.15 L-0.1 1.55 Q-0.15 1.8 -0.15 2.0 L-0.15 2.2 Q-0.1 2.45 0.0 2.6 L0.1 2.75 Q0.2 2.95 0.3 3.1 L0.45 3.2 Q0.6 3.3 0.85 3.3 1.8 3.3 2.2 2.8 2.4 2.55 2.4 2.0 L2.45 1.7 2.45 1.65 Q2.55 2.0 2.55 2.4 2.55 2.85 2.15 3.25 2.0 3.45 1.75 3.55 1.45 3.75 1.0 3.75 L0.95 3.8 0.8 3.8 0.35 3.7 Q-0.05 3.6 -0.3 3.25 -0.6 2.85 -0.6 2.5 -0.6 1.9 -0.35 1.35 -0.1 0.7 0.4 0.5 M0.3 4.95 Q0.65 4.65 1.1 4.65 2.15 4.65 2.55 5.6 2.8 6.05 2.8 6.65 2.8 7.1 2.4 7.5 L2.4 7.55 Q1.95 8.05 1.05 8.05 L0.6 7.95 Q0.2 7.85 -0.05 7.5 -0.35 7.1 -0.35 6.75 -0.35 6.15 -0.1 5.6 L0.3 4.95 M1.4 -3.45 L1.2 -3.5 0.45 -3.65 Q0.05 -3.65 -0.25 -3.0 L-0.3 -2.7 Q-0.4 -2.45 -0.4 -2.2 -0.4 -1.8 -0.2 -1.55 -0.05 -1.35 0.2 -1.25 L0.4 -1.2 1.0 -1.1 Q1.65 -1.1 1.9 -1.6 2.1 -1.9 2.1 -2.35 2.1 -2.8 1.8 -3.15 1.65 -3.35 1.4 -3.45 M0.65 7.3 Q0.95 7.45 1.3 7.45 2.6 7.45 2.6 6.0 2.6 5.7 2.45 5.4 2.15 4.85 1.4 4.85 0.65 4.85 0.35 5.45 L0.2 5.8 Q0.15 6.05 0.15 6.35 0.15 6.7 0.35 6.95 0.45 7.15 0.65 7.3 M6.1 10.7 L6.25 10.5 Q6.4 10.35 6.55 10.25 L6.55 10.2 6.65 10.05 Q7.05 9.35 7.05 8.85 7.05 8.7 7.0 8.55 6.65 8.75 5.85 9.0 4.6 9.35 4.45 9.45 L4.4 9.45 Q3.85 9.65 3.4 9.65 1.6 9.25 1.25 9.25 L0.65 9.2 0.3 9.1 -0.2 8.95 -0.9 8.8 -1.55 8.8 Q-1.65 8.7 -1.7 8.7 L-1.75 8.75 -1.8 8.8 -2.1 8.75 -2.15 8.85 -2.0 9.1 -2.0 9.25 -1.95 9.4 -1.95 9.45 Q-1.95 10.05 -0.85 10.85 L-0.3 11.2 0.4 11.35 Q1.8 11.7 3.0 11.7 L3.45 11.7 4.5 11.45 5.7 11.1 6.1 10.7" fill="#111111" fill-rule="evenodd" stroke="none"/>
      <path d="M3.95 -4.1 Q4.1 -4.75 4.3 -5.15 L4.35 -5.3 Q4.35 -5.45 4.45 -5.6 4.5 -5.55 4.55 -5.5 4.7 -5.4 4.95 -5.35 L5.3 -4.7 5.3 -4.65 5.3 -4.6 5.15 -3.6 Q5.1 -2.7 5.1 -1.75 L5.2 -0.55 5.3 0.6 Q5.3 0.75 5.4 1.3 L5.5 2.05 Q5.5 2.5 5.8 3.4 6.05 4.3 6.05 4.5 6.05 4.7 6.45 5.45 6.45 5.6 6.65 5.95 L6.4 5.55 Q4.9 3.2 4.7 0.8 L4.6 -0.85 4.4 -2.45 Q4.3 -3.15 3.95 -4.1 M2.85 -5.8 L3.3 -5.95 3.95 -6.15 3.8 -5.65 Q3.6 -4.8 3.55 -3.85 L3.55 -3.65 3.5 -3.2 3.5 -2.95 3.4 -1.6 3.25 -0.25 Q3.25 0.6 4.0 3.7 L4.35 5.35 4.85 6.4 Q5.45 7.7 5.95 8.2 L5.8 8.3 5.45 8.55 5.2 8.75 5.05 8.75 Q4.9 8.75 4.7 8.85 4.45 9.0 4.3 9.0 L3.95 9.0 3.9 8.75 3.75 8.8 Q3.5 8.8 3.4 8.65 3.3 8.5 3.3 8.35 3.3 8.1 3.7 8.0 L3.85 8.0 3.8 8.1 Q3.8 8.25 3.9 8.4 4.0 8.55 4.3 8.55 4.6 8.55 4.6 8.15 4.6 7.8 4.2 7.75 3.95 7.7 3.85 7.95 L3.85 7.8 3.8 6.65 Q3.9 6.75 4.1 6.75 4.25 6.75 4.35 6.6 L4.4 6.4 Q4.4 6.25 4.25 6.15 4.15 6.05 3.95 6.05 L3.8 6.05 3.75 5.2 Q3.6 4.65 3.45 4.15 L3.4 3.7 3.4 3.85 Q3.35 4.0 3.1 4.0 2.8 4.0 2.7 3.8 L2.65 3.5 Q2.65 3.15 3.05 3.1 L3.3 3.15 2.95 0.55 2.85 -0.15 Q2.75 -0.85 2.75 -1.05 2.85 -2.55 3.0 -3.95 L3.05 -4.45 3.05 -4.5 3.0 -4.6 3.25 -4.6 3.5 -4.7 3.55 -4.75 3.55 -5.0 Q3.55 -5.15 3.4 -5.3 3.3 -5.4 3.1 -5.4 L2.9 -5.35 2.95 -5.25 2.85 -5.8 M3.0 -4.45 Q3.0 -4.3 2.9 -4.1 2.75 -3.9 2.55 -3.9 2.2 -3.9 2.1 -4.15 2.0 -4.3 2.0 -4.5 2.0 -4.9 2.5 -4.95 3.0 -5.05 3.0 -4.45 M1.4 -3.45 L1.6 -3.3 Q1.85 -3.05 1.85 -2.7 L1.8 -2.3 Q1.65 -1.9 1.45 -1.9 1.1 -1.9 0.8 -2.25 0.5 -2.55 0.5 -2.85 0.5 -3.0 0.6 -3.2 0.75 -3.55 1.1 -3.55 L1.2 -3.5 1.4 -3.45 M2.7 -3.05 L2.7 -3.0 2.45 -2.95 2.2 -3.0 2.1 -3.0 2.05 -3.25 Q2.15 -3.65 2.45 -3.6 2.75 -3.5 2.75 -3.25 L2.7 -3.05 M1.55 0.75 Q2.15 1.0 2.15 1.65 2.15 1.85 2.1 2.0 2.0 2.2 1.8 2.2 1.4 2.2 1.15 1.95 0.9 1.7 0.9 1.3 0.9 0.95 1.1 0.8 1.25 0.7 1.55 0.75 M1.25 6.2 Q1.05 6.0 1.05 5.8 1.05 5.0 1.75 5.2 2.0 5.3 2.2 5.5 2.4 5.65 2.4 5.8 L2.35 6.15 Q2.2 6.5 1.95 6.5 1.5 6.5 1.25 6.2 M3.05 5.65 Q3.05 5.45 3.15 5.35 3.4 5.55 3.4 5.75 L3.15 5.75 3.05 5.65" fill="#d0f0f0" fill-rule="evenodd" stroke="none"/>
      <path d="M4.95 -5.35 L4.95 -5.3 Q5.15 -5.0 5.35 -4.8 L5.3 -4.65 5.3 -4.7 4.95 -5.35 M6.65 5.95 L6.7 6.05 6.9 6.5 7.0 6.5 7.4 7.05 7.4 7.15 6.95 6.7 Q5.65 5.4 4.8 3.7 3.85 1.7 3.55 0.55 L3.55 0.65 3.55 -0.05 3.65 -1.4 3.8 -3.35 3.95 -4.1 Q4.3 -3.15 4.4 -2.45 L4.6 -0.85 4.7 0.8 Q4.9 3.2 6.4 5.55 L6.65 5.95 M2.85 -5.8 L2.95 -5.25 2.9 -5.35 3.1 -5.4 Q3.3 -5.4 3.4 -5.3 3.55 -5.15 3.55 -5.0 L3.55 -4.75 3.5 -4.7 3.25 -4.6 3.0 -4.6 3.05 -4.5 3.05 -4.45 3.0 -3.95 Q2.85 -2.55 2.75 -1.05 2.75 -0.85 2.85 -0.15 L2.95 0.55 3.3 3.15 3.05 3.1 Q2.65 3.15 2.65 3.5 L2.7 3.8 Q2.8 4.0 3.1 4.0 3.35 4.0 3.4 3.85 L3.4 3.7 3.45 4.15 Q3.6 4.65 3.75 5.2 L3.8 6.05 3.95 6.05 Q4.15 6.05 4.25 6.15 4.4 6.25 4.4 6.4 L4.35 6.6 Q4.25 6.75 4.1 6.75 3.9 6.75 3.8 6.65 L3.85 7.8 3.85 7.95 Q3.95 7.7 4.2 7.75 4.6 7.8 4.6 8.15 4.6 8.55 4.3 8.55 4.0 8.55 3.9 8.4 3.8 8.25 3.8 8.1 L3.85 8.0 3.7 8.0 Q3.3 8.1 3.3 8.35 3.3 8.5 3.4 8.65 3.5 8.8 3.75 8.8 L3.9 8.75 3.95 9.0 3.45 9.1 1.85 9.3 1.9 9.3 Q2.0 9.2 2.0 9.1 2.0 8.7 1.65 8.75 1.35 8.8 1.3 9.1 L1.4 9.15 Q1.15 9.05 0.8 9.0 L0.7 8.5 1.1 8.5 Q1.6 8.5 2.0 8.2 2.4 7.9 2.4 7.65 L2.4 7.55 2.4 7.5 Q2.8 7.1 2.8 6.65 2.8 6.05 2.55 5.6 2.15 4.65 1.1 4.65 0.65 4.65 0.3 4.95 L0.4 4.9 0.35 4.5 0.5 4.5 Q1.0 4.5 1.45 4.1 1.75 3.75 1.75 3.55 2.0 3.45 2.15 3.25 2.55 2.85 2.55 2.4 2.55 2.0 2.45 1.65 L2.45 1.7 2.4 2.0 Q2.4 2.55 2.2 2.8 1.8 3.3 0.85 3.3 0.6 3.3 0.45 3.2 L1.05 3.25 1.25 3.2 Q1.35 3.15 1.35 3.0 0.9 2.35 0.5 1.9 0.1 1.5 -0.1 1.55 L0.05 1.15 Q0.2 0.9 0.4 0.75 0.65 0.55 1.0 0.55 1.6 0.55 2.05 1.0 L2.25 1.2 Q1.85 0.4 0.85 0.4 0.6 0.4 0.4 0.5 L0.45 -0.05 0.55 -0.05 Q1.0 -0.05 1.3 -0.4 1.5 -0.6 1.55 -0.85 L1.55 -0.9 Q1.7 -1.0 1.85 -1.15 2.2 -1.55 2.2 -2.0 2.2 -2.6 2.0 -3.1 1.6 -4.0 0.55 -4.0 L0.15 -3.95 0.1 -3.9 0.05 -3.9 -0.1 -3.8 -0.4 -3.4 Q-0.55 -3.5 -0.6 -3.6 -0.65 -3.7 -0.65 -3.9 -0.65 -4.4 -0.15 -4.35 0.05 -4.35 0.15 -4.2 L0.15 -4.8 0.0 -4.8 -1.95 -4.65 -2.2 -4.65 -2.2 -5.0 -1.9 -4.95 1.65 -5.45 2.8 -5.8 2.85 -5.8 M3.0 -4.45 Q3.0 -5.05 2.5 -4.95 2.0 -4.9 2.0 -4.5 2.0 -4.3 2.1 -4.15 2.2 -3.9 2.55 -3.9 2.75 -3.9 2.9 -4.1 3.0 -4.3 3.0 -4.45 M2.7 -3.05 L2.75 -3.25 Q2.75 -3.5 2.45 -3.6 2.15 -3.65 2.05 -3.25 L2.1 -3.0 2.2 -3.0 2.45 -2.95 2.7 -3.0 2.7 -3.05 M1.2 -3.5 L1.1 -3.55 Q0.75 -3.55 0.6 -3.2 0.5 -3.0 0.5 -2.85 0.5 -2.55 0.8 -2.25 1.1 -1.9 1.45 -1.9 1.65 -1.9 1.8 -2.3 L1.85 -2.7 Q1.85 -3.05 1.6 -3.3 L1.4 -3.45 Q1.65 -3.35 1.8 -3.15 2.1 -2.8 2.1 -2.35 2.1 -1.9 1.9 -1.6 1.65 -1.1 1.0 -1.1 L0.4 -1.2 0.6 -1.15 Q0.85 -1.15 0.8 -1.2 L0.85 -1.25 0.85 -1.45 Q0.85 -1.6 0.1 -2.35 -0.15 -2.6 -0.3 -2.7 L-0.25 -3.0 Q0.05 -3.65 0.45 -3.65 L1.2 -3.5 M1.55 0.75 Q1.25 0.7 1.1 0.8 0.9 0.95 0.9 1.3 0.9 1.7 1.15 1.95 1.4 2.2 1.8 2.2 2.0 2.2 2.1 2.0 2.15 1.85 2.15 1.65 2.15 1.0 1.55 0.75 M1.85 0.4 L1.9 0.35 1.9 0.1 Q1.9 -0.25 1.55 -0.25 1.15 -0.25 1.15 0.05 1.15 0.25 1.3 0.35 1.4 0.45 1.6 0.5 L1.85 0.4 M1.25 6.2 Q1.5 6.5 1.95 6.5 2.2 6.5 2.35 6.15 L2.4 5.8 Q2.4 5.65 2.2 5.5 2.0 5.3 1.75 5.2 1.05 5.0 1.05 5.8 1.05 6.0 1.25 6.2 M0.2 5.8 L0.35 5.45 Q0.65 4.85 1.4 4.85 2.15 4.85 2.45 5.4 2.6 5.7 2.6 6.0 2.6 7.45 1.3 7.45 0.95 7.45 0.65 7.3 L1.05 7.3 Q1.35 7.3 1.7 7.15 L1.75 7.05 Q1.5 6.6 0.75 6.05 0.4 5.85 0.2 5.8 M3.05 5.65 L3.15 5.75 3.4 5.75 Q3.4 5.55 3.15 5.35 3.05 5.45 3.05 5.65 M-0.6 8.45 Q-0.7 8.45 -0.8 8.35 -0.9 8.2 -0.9 8.1 -0.9 7.7 -0.55 7.6 -0.15 7.5 -0.15 8.0 L-0.2 8.25 Q-0.3 8.45 -0.6 8.45 M-0.75 5.0 L-0.85 4.95 Q-0.9 4.95 -0.9 4.7 L-0.9 4.5 -0.85 4.4 -0.4 4.45 Q-0.25 4.55 -0.25 4.7 -0.25 4.8 -0.3 4.9 -0.4 5.0 -0.5 5.0 L-0.75 5.0 M-0.9 -0.2 L-0.5 -0.15 Q-0.3 -0.05 -0.3 0.1 -0.3 0.2 -0.35 0.25 -0.45 0.4 -0.7 0.4 L-0.9 0.35 -0.95 0.35 -1.0 0.05 -0.9 -0.2 M-1.45 -3.75 L-1.55 -3.8 -1.6 -3.9 -1.6 -4.3 -1.55 -4.35 Q-1.3 -4.45 -1.1 -4.3 -0.95 -4.2 -0.95 -4.05 -0.95 -3.95 -1.0 -3.85 -1.1 -3.7 -1.2 -3.7 L-1.45 -3.75" fill="#80c0f0" fill-rule="evenodd" stroke="none"/>
      <path d="M7.4 7.15 L7.4 7.25 7.35 7.35 Q7.1 7.55 6.85 7.55 L6.85 7.6 6.6 7.75 Q6.0 7.3 5.6 6.9 L5.3 6.55 5.05 6.3 Q4.85 6.05 4.7 5.75 4.35 5.05 4.1 3.85 3.95 3.05 3.85 2.1 L3.65 1.6 3.65 1.45 3.6 1.25 3.6 1.0 3.55 0.65 3.55 0.55 Q3.85 1.7 4.8 3.7 5.65 5.4 6.95 6.7 L7.4 7.15 M1.85 9.3 L1.4 9.15 1.3 9.1 Q1.35 8.8 1.65 8.75 2.0 8.7 2.0 9.1 2.0 9.2 1.9 9.3 L1.85 9.3 M0.8 9.0 L0.2 8.95 Q-0.3 8.95 -0.65 8.7 L-0.85 8.55 Q-1.55 8.5 -1.85 7.6 L-2.1 7.5 -2.1 7.05 -2.25 4.4 -2.3 3.9 -2.25 2.65 -2.2 1.6 Q-2.1 0.4 -2.1 -0.5 L-2.15 -0.8 -2.05 -2.95 Q-2.05 -3.25 -2.15 -3.65 L-2.25 -4.1 -2.25 -4.4 -2.2 -4.65 -1.95 -4.65 0.0 -4.8 0.15 -4.8 0.15 -4.2 Q0.05 -4.35 -0.15 -4.35 -0.65 -4.4 -0.65 -3.9 -0.65 -3.7 -0.6 -3.6 -0.55 -3.5 -0.4 -3.4 L-0.65 -3.1 Q-0.9 -2.5 -0.9 -1.95 -0.9 -1.6 -0.65 -1.2 -0.25 -0.65 0.45 -0.65 L0.5 -0.65 Q1.1 -0.65 1.55 -0.9 L1.55 -0.85 Q1.5 -0.6 1.3 -0.4 1.0 -0.05 0.55 -0.05 L0.45 -0.05 0.4 0.5 Q-0.1 0.7 -0.35 1.35 -0.6 1.9 -0.6 2.5 -0.6 2.85 -0.3 3.25 -0.05 3.6 0.35 3.7 L0.8 3.8 0.95 3.8 1.0 3.75 Q1.45 3.75 1.75 3.55 1.75 3.75 1.45 4.1 1.0 4.5 0.5 4.5 L0.35 4.5 0.4 4.9 0.3 4.95 -0.1 5.6 Q-0.35 6.15 -0.35 6.75 -0.35 7.1 -0.05 7.5 0.2 7.85 0.6 7.95 L1.05 8.05 Q1.95 8.05 2.4 7.55 L2.4 7.65 Q2.4 7.9 2.0 8.2 1.6 8.5 1.1 8.5 L0.7 8.5 0.8 9.0 M-0.1 1.55 Q0.1 1.5 0.5 1.9 0.9 2.35 1.35 3.0 1.35 3.15 1.25 3.2 L1.05 3.25 0.45 3.2 0.3 3.1 Q0.2 2.95 0.1 2.75 L0.0 2.6 Q-0.1 2.45 -0.15 2.2 L-0.15 2.0 Q-0.15 1.8 -0.1 1.55 M-0.3 -2.7 Q-0.15 -2.6 0.1 -2.35 0.85 -1.6 0.85 -1.45 L0.85 -1.25 0.8 -1.2 Q0.85 -1.15 0.6 -1.15 L0.4 -1.2 0.2 -1.25 Q-0.05 -1.35 -0.2 -1.55 -0.4 -1.8 -0.4 -2.2 -0.4 -2.45 -0.3 -2.7 M1.85 0.4 L1.6 0.5 Q1.4 0.45 1.3 0.35 1.15 0.25 1.15 0.05 1.15 -0.25 1.55 -0.25 1.9 -0.25 1.9 0.1 L1.9 0.35 1.85 0.4 M0.2 5.8 Q0.4 5.85 0.75 6.05 1.5 6.6 1.75 7.05 L1.7 7.15 Q1.35 7.3 1.05 7.3 L0.65 7.3 Q0.45 7.15 0.35 6.95 0.15 6.7 0.15 6.35 0.15 6.05 0.2 5.8 M-1.45 -3.75 L-1.2 -3.7 Q-1.1 -3.7 -1.0 -3.85 -0.95 -3.95 -0.95 -4.05 -0.95 -4.2 -1.1 -4.3 -1.3 -4.45 -1.55 -4.35 L-1.6 -4.3 -1.6 -3.9 -1.55 -3.8 -1.45 -3.75 M-0.9 -0.2 L-1.0 0.05 -0.95 0.35 -0.9 0.35 -0.7 0.4 Q-0.45 0.4 -0.35 0.25 -0.3 0.2 -0.3 0.1 -0.3 -0.05 -0.5 -0.15 L-0.9 -0.2 M-0.75 5.0 L-0.5 5.0 Q-0.4 5.0 -0.3 4.9 -0.25 4.8 -0.25 4.7 -0.25 4.55 -0.4 4.45 L-0.85 4.4 -0.9 4.5 -0.9 4.7 Q-0.9 4.95 -0.85 4.95 L-0.75 5.0 M-0.6 8.45 Q-0.3 8.45 -0.2 8.25 L-0.15 8.0 Q-0.15 7.5 -0.55 7.6 -0.9 7.7 -0.9 8.1 -0.9 8.2 -0.8 8.35 -0.7 8.45 -0.6 8.45" fill="#0070e0" fill-rule="evenodd" stroke="none"/>
      <path d="M-0.75 -6.95 L1.3 -7.35 3.25 -7.75 Q3.95 -7.65 3.95 -6.9 3.95 -6.6 3.3 -6.3 L2.7 -6.55 2.65 -6.6 2.6 -6.6 Q1.5 -7.0 -0.05 -6.95 L-0.75 -6.95 M5.65 -4.4 L5.8 -4.75 5.9 -4.9 6.1 -4.9 Q7.05 -4.25 7.75 -3.6 8.1 -3.05 8.45 -2.3 8.8 -1.65 9.0 -1.0 9.1 -0.8 9.1 -0.7 L9.3 -0.1 9.4 0.45 9.4 0.55 9.45 0.9 9.45 1.15 Q9.3 2.15 9.3 2.4 L9.2 3.15 9.1 3.85 9.0 4.2 Q8.65 5.15 8.4 5.65 8.1 6.4 7.9 6.6 L7.85 6.75 7.8 6.65 7.75 6.65 7.5 6.6 7.4 6.55 7.35 6.35 7.2 6.2 7.35 6.0 7.3 5.85 7.45 5.55 7.9 3.95 Q8.4 2.3 8.4 1.75 L8.4 1.0 Q8.15 1.3 7.85 1.3 L7.4 1.25 Q6.6 1.05 6.25 0.2 6.0 -0.35 6.0 -0.9 6.0 -1.2 6.25 -1.65 6.35 -1.85 6.45 -1.95 6.7 -2.25 7.05 -2.25 L7.45 -2.2 7.35 -2.3 Q6.75 -3.4 5.65 -4.4 M5.15 10.1 L5.1 10.1 4.3 10.05 4.0 10.05 2.8 10.0 Q0.1 9.6 -0.6 9.4 L-0.65 9.35 -1.2 9.15 Q-1.55 8.95 -1.75 8.75 L-1.7 8.7 Q-1.65 8.7 -1.55 8.8 L-0.9 8.8 -0.2 8.95 0.3 9.1 0.65 9.2 1.25 9.25 Q1.6 9.25 3.4 9.65 3.85 9.65 4.4 9.45 L4.45 9.45 Q4.6 9.35 5.85 9.0 6.65 8.75 7.0 8.55 7.05 8.7 7.05 8.85 7.05 9.35 6.65 10.05 L6.55 10.2 6.55 10.25 Q6.4 10.35 6.25 10.5 L6.1 10.7 Q5.95 10.2 5.45 10.15 L5.15 10.1" fill="#ff9999" fill-rule="evenodd" stroke="none"/>
      <path d="M-1.55 -5.5 Q-1.8 -5.55 -1.95 -5.7 -2.05 -5.8 -2.05 -6.0 L-2.1 -6.0 -2.1 -6.15 -2.05 -6.15 Q-2.0 -6.5 -1.6 -6.65 L-1.4 -6.7 -1.0 -6.9 -0.75 -6.95 -0.05 -6.95 Q1.5 -7.0 2.6 -6.6 L2.5 -6.65 1.0 -6.55 Q-1.05 -6.55 -1.65 -5.55 L-1.55 -5.5 M5.45 -2.8 L5.45 -2.85 5.55 -3.9 Q5.55 -4.1 5.65 -4.4 6.75 -3.4 7.35 -2.3 L7.45 -2.2 7.05 -2.25 Q6.7 -2.25 6.45 -1.95 6.0 -2.6 5.45 -2.8 M9.3 -0.1 L9.4 0.35 9.4 0.55 9.4 0.45 9.3 -0.1 M7.2 6.2 L7.0 5.95 6.5 5.35 6.45 5.3 6.25 4.65 Q6.55 4.2 6.8 3.55 7.1 2.75 7.25 1.85 L7.4 1.25 7.85 1.3 Q8.15 1.3 8.4 1.0 L8.4 1.75 Q8.4 2.3 7.9 3.95 L7.45 5.55 7.3 5.85 7.35 6.0 7.2 6.2 M5.15 10.1 L5.45 10.15 Q5.95 10.2 6.1 10.7 L5.7 11.1 4.5 11.45 3.45 11.7 3.0 11.7 Q1.8 11.7 0.4 11.35 L-0.3 11.2 -0.85 10.85 Q-1.95 10.05 -1.95 9.45 L-1.95 9.4 -2.0 9.25 -2.0 9.1 -2.15 8.85 -2.1 8.75 -1.8 8.8 -1.75 8.75 Q-1.55 8.95 -1.2 9.15 -1.2 9.75 -0.35 10.3 0.55 10.9 1.7 10.9 4.0 10.9 4.8 10.4 5.0 10.3 5.15 10.1" fill="#b00000" fill-rule="evenodd" stroke="none"/>
      <path d="M3.3 -6.3 L3.05 -6.15 Q2.2 -5.8 1.8 -5.8 L0.9 -5.9 Q-0.65 -5.5 -1.5 -5.5 L-1.55 -5.5 -1.65 -5.55 Q-1.05 -6.55 1.0 -6.55 L2.5 -6.65 2.6 -6.6 2.65 -6.6 2.7 -6.55 3.3 -6.3 M6.25 4.65 Q6.0 3.8 5.8 2.55 5.35 -0.05 5.35 -1.75 5.35 -1.9 5.45 -2.8 6.0 -2.6 6.45 -1.95 6.35 -1.85 6.25 -1.65 6.0 -1.2 6.0 -0.9 6.0 -0.35 6.25 0.2 6.6 1.05 7.4 1.25 L7.25 1.85 Q7.1 2.75 6.8 3.55 6.55 4.2 6.25 4.65 M-1.2 9.15 L-0.65 9.35 -0.6 9.4 Q0.1 9.6 2.8 10.0 L4.0 10.05 4.3 10.05 5.1 10.1 5.15 10.1 Q5.0 10.3 4.8 10.4 4.0 10.9 1.7 10.9 0.55 10.9 -0.35 10.3 -1.2 9.75 -1.2 9.15" fill="#600000" fill-rule="evenodd" stroke="none"/>
    </g>
  </defs>
</svg>
