<?xml version="1.0" encoding="UTF-8" standalone="no"?>
<svg xmlns:ffdec="https://www.free-decompiler.com/flash" xmlns:xlink="http://www.w3.org/1999/xlink" ffdec:objectType="frame" height="176.05px" width="89.6px" xmlns="http://www.w3.org/2000/svg">
  <g transform="matrix(1.0, 0.0, 0.0, 1.0, 26.95, 89.25)">
    <use ffdec:characterId="1355" height="25.15" transform="matrix(7.0, 0.0, 0.0, 7.0, -26.95, -89.25)" width="12.8" xlink:href="#shape0"/>
  </g>
  <defs>
    <g id="shape0" transform="matrix(1.0, 0.0, 0.0, 1.0, 3.85, 12.75)">
      <path d="M6.4 -7.65 Q6.5 -7.4 6.5 -7.1 6.55 -6.75 6.5 -6.4 L6.45 -5.75 6.45 -5.5 Q7.4 -3.05 7.85 -0.75 L8.25 2.5 8.6 4.15 Q8.95 6.25 8.95 8.55 8.95 9.25 8.85 9.8 8.7 10.8 8.3 10.9 7.95 11.25 7.25 11.55 6.65 11.85 5.95 12.05 5.05 12.35 3.9 12.4 -0.65 12.5 -2.65 10.7 -3.85 9.6 -3.85 8.25 -3.85 6.45 -3.4 2.15 L-3.25 0.7 -3.2 0.6 Q-3.0 -1.65 -2.85 -2.0 L-2.75 -2.4 -2.65 -2.95 -2.55 -3.55 -2.45 -4.7 Q-2.55 -5.05 -2.6 -5.45 -2.45 -6.75 -2.45 -7.45 -2.45 -8.0 -1.85 -8.25 -1.15 -8.6 0.45 -8.75 L1.3 -9.05 Q1.35 -10.75 1.5 -11.6 1.75 -13.3 2.7 -12.5 L4.9 -9.9 Q6.5 -8.1 6.5 -7.95 6.5 -7.85 6.4 -7.65 M4.85 -8.55 Q4.7 -8.9 4.4 -9.45 L4.2 -9.75 Q3.35 -11.1 2.6 -11.25 L2.4 -9.1 Q2.35 -8.95 2.45 -8.75 L2.3 -8.45 Q2.25 -8.3 2.2 -8.05 L2.2 -7.8 1.9 -7.7 Q1.3 -7.55 0.2 -7.4 L-1.15 -7.3 Q-1.45 -7.1 -1.45 -6.9 L-1.45 -6.75 -1.45 -6.3 -0.75 -6.45 -0.15 -6.5 -0.1 -6.55 1.3 -6.7 1.4 -6.7 Q1.65 -6.6 2.1 -5.9 L2.15 -5.8 2.9 -4.55 3.9 -2.7 4.35 -1.85 4.4 -1.75 4.65 -1.2 4.7 -1.2 4.7 -2.5 4.55 -4.8 4.5 -5.85 4.45 -7.2 4.7 -7.65 Q4.95 -8.05 4.95 -8.15 4.95 -8.3 4.85 -8.55 M6.0 -3.2 Q5.8 -4.0 5.6 -4.65 L5.65 -3.95 5.65 -3.55 5.65 -3.0 5.65 -1.7 5.6 -1.35 5.6 -1.15 Q5.5 0.25 5.25 0.7 5.15 0.9 5.05 0.95 L5.0 0.95 Q4.6 0.95 3.5 -1.15 L3.35 -1.5 3.25 -1.65 3.2 -1.7 2.4 -3.25 2.15 -3.75 1.25 -5.25 1.1 -5.4 -0.7 -5.3 -0.75 -5.3 -1.05 -4.8 -1.1 -4.75 -1.2 -4.5 Q-1.25 -4.35 -1.3 -4.2 -1.35 -3.4 -1.5 -2.1 L-1.6 -0.75 -1.85 1.2 -1.95 2.25 -2.05 3.1 -2.2 4.45 -2.45 6.65 Q-2.45 6.8 -2.1 7.0 -1.85 7.15 -1.45 7.35 -1.35 7.4 -1.25 7.45 L-0.5 7.8 -0.4 7.8 Q1.5 8.6 1.9 8.6 2.2 8.6 2.45 8.3 L2.75 7.95 2.9 7.7 Q3.05 7.35 3.3 6.7 L3.6 5.65 3.85 4.85 4.15 3.8 4.35 3.3 Q4.65 2.4 5.0 1.9 L5.25 1.55 5.3 1.5 5.5 1.9 5.7 2.3 6.1 3.25 6.3 3.8 6.45 4.15 6.6 4.6 6.85 5.15 7.25 5.9 7.6 6.5 7.5 5.8 7.45 5.25 7.4 4.75 7.35 3.95 7.35 3.55 7.15 0.95 7.05 0.45 6.85 -0.3 6.75 -0.8 6.6 -1.2 6.45 -1.75 6.15 -2.75 6.05 -3.05 6.05 -3.1 6.0 -3.2 M5.3 1.5 L5.3 1.5 M6.0 -6.95 L6.0 -6.9 Q5.95 -6.85 5.95 -6.8 L6.05 -6.55 6.0 -6.95 M7.7 8.7 Q7.7 8.5 7.45 8.0 L7.15 7.35 6.8 6.65 6.7 6.4 6.25 5.5 5.85 4.8 5.15 3.65 5.05 3.5 Q4.5 5.75 4.2 6.8 4.15 7.05 4.15 8.95 4.15 9.4 3.8 9.55 L3.3 9.7 2.95 9.7 1.95 9.75 Q1.3 9.8 -0.3 9.15 L-1.0 8.85 -1.9 8.45 -2.75 8.05 Q-2.75 8.35 -2.7 8.65 -2.4 9.75 -0.95 10.4 0.9 11.3 3.95 11.2 L4.2 11.2 Q4.8 11.2 5.35 11.05 L6.4 10.6 6.5 10.55 7.05 10.1 Q7.7 9.4 7.7 8.75 L7.7 8.7" fill="#111111" fill-rule="evenodd" stroke="none"/>
      <path d="M5.65 -3.55 L5.95 -3.3 6.0 -3.2 6.05 -3.1 6.05 -3.05 6.15 -2.75 Q5.95 -2.85 5.7 -2.95 L5.65 -3.0 5.65 -3.55" fill="#e32424" fill-rule="evenodd" stroke="none"/>
      <path d="M-1.45 -6.75 L-1.45 -6.9 Q-1.45 -7.1 -1.15 -7.3 L0.2 -7.4 Q1.3 -7.55 1.9 -7.7 L2.2 -7.8 2.2 -8.05 Q2.25 -8.3 2.3 -8.45 L2.45 -8.75 Q2.35 -8.95 2.4 -9.1 L2.6 -11.25 Q3.35 -11.1 4.2 -9.75 L4.4 -9.45 Q4.7 -8.9 4.85 -8.55 4.1 -8.25 3.75 -7.8 3.55 -7.45 3.5 -6.9 L3.55 -6.05 Q3.65 -4.65 3.85 -3.25 L3.9 -2.7 2.9 -4.55 2.15 -5.8 2.1 -5.9 Q2.2 -6.15 2.2 -6.35 2.2 -7.55 -0.1 -7.1 -0.8 -7.0 -1.45 -6.75 M6.45 -1.75 L6.6 -1.2 6.6 -0.95 6.75 -0.8 6.85 -0.3 7.05 0.45 7.1 0.6 6.65 0.1 6.6 0.05 Q6.05 -0.55 5.6 -1.15 L5.6 -1.35 5.65 -1.7 Q5.9 -1.6 6.15 -1.4 L6.2 -1.55 Q6.3 -1.7 6.45 -1.75 M2.15 -3.75 L2.4 -3.25 2.35 -3.2 1.65 -2.05 1.5 -1.8 Q1.85 -1.45 2.1 -0.95 L2.5 -0.2 2.8 -0.7 3.25 -1.65 3.35 -1.5 3.5 -1.15 3.4 -0.7 3.0 0.35 2.75 0.9 Q2.15 2.1 1.55 2.65 L1.25 2.8 1.3 2.85 1.2 3.05 Q1.15 2.5 1.0 2.2 L0.9 2.3 1.05 2.15 1.1 2.25 1.1 2.2 1.2 2.1 1.65 1.3 1.8 1.0 2.3 0.2 1.75 -0.45 1.55 -0.75 1.3 -1.15 1.2 -1.35 1.1 -1.15 0.65 -0.5 0.5 -0.3 0.4 -0.15 0.35 -0.25 0.35 -0.15 0.25 0.05 0.05 -0.3 Q0.15 -0.45 0.25 -0.55 L0.2 -0.65 0.45 -1.05 0.8 -1.6 Q0.85 -1.8 1.0 -1.95 L1.5 -2.75 1.7 -3.05 2.1 -3.7 2.15 -3.75 M-0.3 9.15 Q1.3 9.8 1.95 9.75 L2.95 9.7 3.3 9.7 3.8 9.55 Q4.15 9.4 4.15 8.95 4.15 7.05 4.2 6.8 4.5 5.75 5.05 3.5 L5.15 3.65 5.85 4.8 6.25 5.5 6.7 6.4 6.8 6.65 7.15 7.35 7.45 8.0 Q7.7 8.5 7.7 8.7 L7.25 9.15 Q6.0 10.25 3.9 10.25 2.0 10.25 0.45 9.55 0.1 9.4 -0.3 9.15 M-0.9 1.25 L-1.05 1.1 -1.1 0.95 Q-1.2 0.75 -1.2 0.6 L-1.15 0.3 -0.95 1.2 -0.9 1.25" fill="#b00000" fill-rule="evenodd" stroke="none"/>
      <path d="M5.5 1.9 L5.3 1.5 5.25 1.55 5.0 1.9 Q4.65 2.4 4.35 3.3 L4.15 3.8 3.85 4.85 3.6 5.65 3.3 6.7 Q3.05 7.35 2.9 7.7 L2.75 7.95 2.45 8.3 Q2.2 8.6 1.9 8.6 1.5 8.6 -0.4 7.8 L-0.5 7.8 -1.25 7.45 Q-1.35 7.4 -1.45 7.35 -1.85 7.15 -2.1 7.0 -2.45 6.8 -2.45 6.65 L-2.2 4.45 -2.05 3.1 -1.95 2.25 -1.85 1.2 -1.6 -0.75 -1.5 -2.1 Q-1.35 -3.4 -1.3 -4.2 -1.25 -4.35 -1.2 -4.5 L-1.1 -4.75 -1.05 -4.8 -0.75 -5.3 -0.7 -5.3 1.1 -5.4 1.25 -5.25 2.15 -3.75 2.1 -3.7 1.8 -3.95 Q0.85 -4.85 0.6 -4.85 L-0.2 -4.75 -1.05 -4.65 -1.05 -4.6 -0.45 -2.7 0.2 -0.65 0.25 -0.55 Q0.15 -0.45 0.05 -0.3 L0.0 -0.25 Q-0.15 -0.4 -0.35 -0.4 L-0.4 -0.4 Q-0.65 -0.4 -0.85 -0.2 L-0.95 -0.15 Q-1.05 0.0 -1.1 0.15 L-1.15 0.3 -1.2 0.6 Q-1.2 0.75 -1.1 0.95 L-1.05 1.1 -0.9 1.25 -0.8 1.35 Q-0.6 1.5 -0.25 1.5 L-0.2 1.5 Q0.05 1.45 0.2 1.25 0.35 1.0 0.35 0.6 0.35 0.2 0.2 -0.05 L0.25 0.05 0.35 -0.15 0.35 -0.25 0.4 -0.15 0.55 0.45 0.9 1.5 1.0 1.9 1.1 2.2 1.1 2.25 1.05 2.15 0.9 2.3 0.85 2.4 0.8 2.4 Q0.55 2.7 0.3 3.0 0.05 3.35 -0.1 3.65 -0.2 3.6 -0.3 3.6 L-0.35 3.55 -0.45 3.55 Q-0.7 3.55 -0.9 3.7 -1.15 3.95 -1.15 4.55 -1.15 4.8 -1.05 5.1 L-1.0 5.2 -0.9 5.35 Q-0.7 5.6 -0.3 5.65 L0.25 5.65 0.3 5.6 0.5 5.55 0.55 5.2 0.55 4.7 Q0.55 4.4 0.45 4.2 L0.55 4.05 0.9 3.5 1.05 3.3 1.1 3.25 1.15 3.05 1.2 3.05 1.3 2.85 2.05 5.55 2.3 6.4 2.6 7.45 2.6 7.25 2.7 6.6 Q2.7 6.0 3.75 3.9 4.8 1.8 5.2 1.45 L5.3 1.5 5.45 1.55 Q5.55 1.6 5.55 1.8 L5.5 1.9" fill="#0070e0" fill-rule="evenodd" stroke="none"/>
      <path d="M5.65 -3.55 L5.65 -3.95 5.6 -4.65 Q5.8 -4.0 6.0 -3.2 L5.95 -3.3 5.65 -3.55 M6.15 -2.75 L6.45 -1.75 Q6.3 -1.7 6.2 -1.55 L6.15 -1.4 Q5.9 -1.6 5.65 -1.7 L5.65 -3.0 5.7 -2.95 Q5.95 -2.85 6.15 -2.75 M6.6 -1.2 L6.75 -0.8 6.6 -0.95 6.6 -1.2 M7.05 0.45 L7.15 0.95 7.35 3.55 7.35 3.95 7.4 4.75 7.45 5.25 7.5 5.8 7.6 6.5 7.25 5.9 6.85 5.15 6.6 4.6 6.45 4.15 6.3 3.8 6.1 3.25 5.7 2.3 5.5 1.9 5.55 1.8 Q5.55 1.6 5.45 1.55 L5.3 1.5 5.3 1.5 5.2 1.45 Q4.8 1.8 3.75 3.9 2.7 6.0 2.7 6.6 L2.6 7.25 2.6 7.45 2.3 6.4 2.05 5.55 1.3 2.85 1.25 2.8 1.55 2.65 Q2.15 2.1 2.75 0.9 L3.0 0.35 3.4 -0.7 3.5 -1.15 Q4.6 0.95 5.0 0.95 L5.05 0.95 Q5.15 0.9 5.25 0.7 5.5 0.25 5.6 -1.15 6.05 -0.55 6.6 0.05 L6.65 0.1 7.1 0.6 7.05 0.45 M2.4 -3.25 L3.2 -1.7 3.25 -1.65 2.8 -0.7 2.5 -0.2 2.1 -0.95 Q1.85 -1.45 1.5 -1.8 L1.65 -2.05 2.35 -3.2 2.4 -3.25 M0.2 -0.65 L-0.45 -2.7 -1.05 -4.6 -1.05 -4.65 -0.2 -4.75 0.6 -4.85 Q0.85 -4.85 1.8 -3.95 L2.1 -3.7 1.7 -3.05 1.5 -2.75 1.0 -1.95 Q0.85 -1.8 0.8 -1.6 L0.45 -1.05 0.2 -0.65 M0.4 -0.15 L0.5 -0.3 0.65 -0.5 1.1 -1.15 1.2 -1.35 1.3 -1.15 1.55 -0.75 1.75 -0.45 2.3 0.2 1.8 1.0 1.65 1.3 1.2 2.1 1.1 2.2 1.0 1.9 0.9 1.5 0.55 0.45 0.4 -0.15" fill="#80c0f0" fill-rule="evenodd" stroke="none"/>
      <path d="M-1.45 -6.75 Q-0.8 -7.0 -0.1 -7.1 2.2 -7.55 2.2 -6.35 2.2 -6.15 2.1 -5.9 1.65 -6.6 1.4 -6.7 L1.3 -6.7 -0.1 -6.55 -0.15 -6.5 -0.75 -6.45 -1.45 -6.3 -1.45 -6.75 M3.9 -2.7 L3.85 -3.25 Q3.65 -4.65 3.55 -6.05 L3.5 -6.9 Q3.55 -7.45 3.75 -7.8 4.1 -8.25 4.85 -8.55 4.95 -8.3 4.95 -8.15 4.95 -8.05 4.7 -7.65 L4.45 -7.2 4.5 -5.85 4.55 -4.8 4.7 -2.5 4.7 -1.2 4.65 -1.2 4.4 -1.75 4.35 -1.85 3.9 -2.7 M0.05 -0.3 L0.25 0.05 0.2 -0.05 Q0.35 0.2 0.35 0.6 0.35 1.0 0.2 1.25 0.05 1.45 -0.2 1.5 L-0.25 1.5 Q-0.6 1.5 -0.8 1.35 L-0.9 1.25 -0.95 1.2 -1.15 0.3 -1.1 0.15 Q-1.05 0.0 -0.95 -0.15 L-0.85 -0.2 Q-0.65 -0.4 -0.4 -0.4 L-0.35 -0.4 Q-0.15 -0.4 0.0 -0.25 L0.05 -0.3 M0.9 2.3 L1.0 2.2 Q1.15 2.5 1.2 3.05 L1.15 3.05 1.1 3.25 1.05 3.3 0.9 3.5 0.55 4.05 0.45 4.2 Q0.55 4.4 0.55 4.7 L0.55 5.2 0.5 5.55 0.3 5.6 0.25 5.65 -0.3 5.65 Q-0.7 5.6 -0.9 5.35 L-1.0 5.2 -1.05 5.1 Q-1.15 4.8 -1.15 4.55 -1.15 3.95 -0.9 3.7 -0.7 3.55 -0.45 3.55 L-0.35 3.55 -0.3 3.6 Q-0.2 3.6 -0.1 3.65 0.05 3.35 0.3 3.0 0.55 2.7 0.8 2.4 L0.85 2.4 0.9 2.3 M-0.3 9.15 Q0.1 9.4 0.45 9.55 2.0 10.25 3.9 10.25 6.0 10.25 7.25 9.15 L7.7 8.7 7.7 8.75 Q7.7 9.4 7.05 10.1 L6.5 10.55 6.4 10.6 5.35 11.05 Q4.8 11.2 4.2 11.2 L3.95 11.2 Q0.9 11.3 -0.95 10.4 -2.4 9.75 -2.7 8.65 -2.75 8.35 -2.75 8.05 L-1.9 8.45 -1.0 8.85 -0.3 9.15" fill="#600000" fill-rule="evenodd" stroke="none"/>
    </g>
  </defs>
</svg>
