<?xml version="1.0" encoding="UTF-8" standalone="no"?>
<svg xmlns:ffdec="https://www.free-decompiler.com/flash" xmlns:xlink="http://www.w3.org/1999/xlink" ffdec:objectType="frame" height="176.75px" width="95.9px" xmlns="http://www.w3.org/2000/svg">
  <g transform="matrix(1.0, 0.0, 0.0, 1.0, 32.2, 86.45)">
    <use ffdec:characterId="1058" height="25.25" transform="matrix(7.0, 0.0, 0.0, 7.0, -32.2, -86.45)" width="13.7" xlink:href="#shape0"/>
  </g>
  <defs>
    <g id="shape0" transform="matrix(1.0, 0.0, 0.0, 1.0, 4.6, 12.35)">
      <path d="M9.05 -11.05 L9.1 -10.75 9.0 -10.6 Q9.0 -10.4 8.65 -9.95 L8.15 -9.05 8.05 -8.55 Q8.1 -8.15 8.15 -7.65 8.1 -7.15 7.95 -6.65 7.85 -6.25 7.75 -6.0 L7.95 -5.75 Q8.1 -5.5 8.1 -5.25 8.25 -4.85 8.25 -4.55 L8.3 -4.25 8.3 -4.15 8.35 -3.65 Q8.4 -3.15 8.05 -2.05 L7.75 -1.15 7.95 -0.7 8.0 -0.5 Q8.15 -0.2 8.2 0.15 L8.2 0.4 Q8.35 0.65 8.35 0.75 L8.3 0.95 8.4 1.5 Q8.4 2.0 8.25 2.95 8.1 3.7 7.9 4.05 L7.9 4.7 Q8.05 5.15 8.05 5.4 L8.0 5.6 Q8.25 5.75 8.55 6.25 9.05 7.0 9.05 7.3 9.1 8.35 7.9 9.35 L7.55 9.7 7.55 9.9 Q7.55 10.25 7.35 10.8 7.35 11.55 6.0 12.15 4.6 12.8 3.0 12.9 2.05 12.9 1.2 12.75 -0.55 12.75 -2.0 11.65 -2.5 11.25 -2.9 10.75 L-3.0 10.65 -3.0 9.95 -2.9 9.6 Q-2.45 7.55 -2.45 6.85 L-2.5 6.75 -2.45 6.5 Q-2.45 5.4 -3.2 3.1 L-3.35 2.75 Q-3.65 2.15 -3.95 1.2 L-4.1 0.65 Q-4.45 -0.2 -4.6 -1.05 L-4.6 -1.7 Q-4.55 -2.75 -4.2 -3.95 L-4.1 -4.35 -3.95 -4.7 -3.9 -4.9 -3.85 -5.05 -3.75 -5.1 Q-3.65 -5.15 -3.65 -5.3 L-3.65 -5.45 -3.55 -5.7 Q-3.5 -6.35 -3.1 -7.1 -2.5 -8.2 -1.3 -8.25 L-1.1 -8.25 0.0 -8.3 Q1.2 -8.35 3.15 -9.15 L3.25 -9.2 3.3 -9.25 Q3.8 -9.9 4.45 -10.55 6.1 -12.3 7.1 -12.35 8.3 -12.4 8.85 -11.6 9.0 -11.35 9.05 -11.05 M4.8 -5.75 Q5.2 -6.5 5.7 -6.95 L6.5 -8.1 6.9 -8.65 7.0 -9.0 Q7.55 -9.85 7.7 -10.25 L7.9 -10.5 7.9 -10.6 7.85 -10.85 Q7.8 -11.05 7.65 -11.15 L7.45 -11.2 7.4 -11.2 6.9 -11.15 6.8 -11.05 Q6.35 -10.8 5.85 -10.35 5.55 -10.1 5.3 -9.75 L4.9 -9.25 4.85 -9.15 4.05 -7.95 3.55 -6.95 Q3.2 -6.2 2.95 -5.4 L2.7 -4.55 Q2.35 -3.65 2.15 -2.1 1.9 -0.1 2.0 2.3 L2.1 3.35 2.25 4.4 Q2.25 4.95 2.7 6.7 3.15 8.4 3.55 8.75 L3.7 9.15 4.25 9.35 Q4.95 9.6 5.2 9.6 5.95 9.6 7.0 8.7 L7.1 8.65 7.35 8.35 7.45 8.3 Q8.05 7.7 8.0 7.25 8.0 7.2 7.9 6.85 L7.75 6.45 Q7.65 6.5 7.25 6.85 L6.9 7.2 6.85 7.15 6.8 7.2 Q6.3 7.65 5.55 7.7 L5.5 7.7 Q5.3 7.7 5.2 7.6 L5.15 7.55 Q4.85 7.45 4.45 6.45 L4.2 5.75 4.15 5.7 Q3.9 4.9 3.9 4.55 L3.75 3.3 Q3.65 2.7 3.6 2.2 L3.65 1.95 3.6 1.45 Q3.6 1.2 3.65 0.65 L3.65 0.5 Q3.6 -0.5 3.85 -1.9 L3.9 -2.05 Q3.95 -3.25 4.3 -4.45 4.5 -5.2 4.8 -5.75 M6.25 -4.45 L6.5 -4.8 6.7 -5.05 Q6.9 -5.2 7.0 -5.85 L7.1 -6.55 Q7.2 -6.95 7.15 -7.2 7.15 -7.75 6.95 -7.65 L6.8 -7.65 6.65 -7.6 6.7 -7.75 6.6 -7.65 6.55 -7.55 Q6.1 -7.0 5.8 -6.45 L5.75 -6.45 5.7 -6.35 5.7 -6.3 Q5.55 -6.2 5.45 -5.95 4.95 -5.15 4.75 -4.05 5.2 -4.05 5.6 -3.75 L5.7 -3.9 Q5.85 -3.9 6.2 -4.45 L6.25 -4.45 M2.1 -6.35 L2.25 -6.75 2.3 -6.75 2.35 -6.85 3.0 -8.0 Q2.55 -7.7 2.1 -7.7 1.15 -7.7 0.8 -7.55 L0.5 -7.4 -0.3 -7.2 -1.25 -7.0 Q-1.7 -6.9 -2.1 -6.55 -2.2 -6.2 -2.3 -5.95 L-2.3 -5.9 -1.1 -5.8 0.15 -5.7 0.85 -5.8 1.25 -5.85 1.35 -5.85 1.6 -5.9 1.95 -6.0 2.1 -6.35 M6.35 0.35 L6.4 0.2 6.5 0.1 6.55 0.0 6.85 -0.4 6.8 -0.7 6.8 -1.2 Q6.8 -1.45 6.7 -1.7 6.7 -2.05 6.6 -2.15 L6.3 -2.7 Q5.7 -3.7 4.95 -3.7 L4.75 -3.65 4.75 -3.6 Q4.7 -3.55 4.7 -3.45 L4.65 -3.45 4.6 -3.35 4.6 -3.2 4.55 -3.1 4.3 -2.0 4.3 -1.75 Q4.1 -0.6 4.15 0.15 L4.05 1.3 4.05 1.9 4.85 1.95 4.9 1.9 5.4 1.5 5.4 1.45 5.45 1.45 Q5.9 1.0 6.35 0.35 M-0.35 2.65 L0.6 2.75 Q1.0 2.7 1.2 2.6 L1.4 2.45 1.5 2.35 1.45 2.1 Q1.35 1.25 1.3 -0.3 1.25 -0.9 1.4 -1.65 L1.4 -1.75 1.3 -1.75 1.3 -1.8 1.4 -2.2 1.4 -2.95 1.5 -3.8 Q1.6 -4.75 1.8 -5.45 L1.6 -5.5 1.4 -5.5 0.7 -5.55 0.5 -5.55 0.15 -5.5 -0.45 -5.35 -0.5 -5.3 -0.6 -5.3 -1.3 -5.1 -1.5 -5.05 -1.6 -5.05 -2.6 -4.8 -2.95 -4.1 -3.1 -3.65 Q-3.5 -2.3 -3.5 -1.8 L-3.5 -1.1 -3.4 -0.55 Q-3.2 0.15 -3.2 0.2 -3.05 0.7 -2.8 1.25 L-2.5 1.75 -2.45 1.85 -2.35 2.2 -1.85 2.3 Q-1.6 2.5 -1.3 2.5 L-1.1 2.5 -0.35 2.65 M7.05 -2.55 Q7.15 -2.75 7.25 -3.1 L7.4 -3.85 Q7.4 -4.55 7.25 -4.85 L7.05 -5.1 6.75 -4.65 6.45 -4.3 5.95 -3.8 5.95 -3.75 5.8 -3.6 5.95 -3.45 6.05 -3.2 Q6.2 -3.05 6.3 -2.95 L6.5 -2.6 Q6.55 -2.5 6.65 -2.35 L6.65 -2.3 6.7 -2.3 6.75 -2.2 6.75 -2.3 6.85 -2.3 Q6.9 -2.35 7.0 -2.5 L7.05 -2.55 M7.3 2.95 L7.35 2.95 7.45 2.4 Q7.5 1.8 7.45 0.85 7.45 0.7 7.35 0.35 L7.35 0.25 7.3 0.0 Q7.0 0.0 6.7 0.15 L6.4 0.75 6.25 0.85 Q5.95 1.3 5.6 1.65 5.5 1.9 5.5 2.0 5.5 2.15 5.55 2.25 L5.6 2.35 5.65 2.3 5.7 2.35 5.85 2.45 5.8 2.5 5.95 2.55 6.2 2.85 6.85 3.4 7.0 3.55 7.0 3.35 7.05 3.25 Q7.15 3.25 7.25 3.1 L7.3 3.0 7.3 2.95 M7.05 5.7 Q7.15 5.25 7.15 4.9 7.15 4.55 7.0 4.25 L7.0 4.2 6.95 4.15 6.85 4.0 Q6.65 3.6 6.3 3.2 L6.25 3.15 5.85 2.9 Q5.1 2.4 4.6 2.3 L4.05 2.3 4.05 2.35 Q4.0 2.4 4.0 2.55 L4.05 2.75 4.05 3.25 4.1 3.45 Q4.15 3.9 4.35 4.85 4.65 6.4 4.9 6.8 L4.85 6.75 Q5.15 7.3 5.6 7.35 L5.75 7.25 5.9 7.3 6.1 7.25 Q6.55 7.25 6.85 6.8 L6.85 6.2 7.0 5.85 7.0 5.75 7.05 5.7 M5.05 2.2 L5.05 2.2 M0.4 8.0 L1.75 8.15 2.0 8.1 2.05 8.1 2.25 8.0 2.2 7.6 Q2.05 6.9 2.0 5.95 L1.95 4.9 1.55 2.7 1.15 2.75 1.0 2.8 0.65 2.85 Q0.2 2.85 -0.25 3.05 L-0.4 3.15 -0.45 3.2 Q-1.0 3.5 -1.65 3.5 L-2.05 3.5 -1.95 3.85 -1.85 4.3 Q-1.15 6.2 -1.1 7.35 L-1.15 7.5 -0.55 7.7 0.25 7.95 0.35 8.0 0.4 8.0 M0.2 8.7 L-1.15 8.6 -1.4 8.55 -1.45 8.9 Q-1.45 9.1 -1.65 9.8 L-1.75 10.05 -1.55 10.25 -0.7 10.75 Q1.0 11.7 2.25 11.65 4.05 11.6 5.15 11.05 5.85 10.65 6.1 10.55 L6.25 10.35 Q5.6 10.55 4.85 10.55 4.15 10.6 3.5 10.35 2.65 10.05 2.65 9.45 L2.7 9.1 2.45 8.65 2.4 8.7 1.85 8.7 1.75 8.65 1.4 8.65 0.75 8.7 0.2 8.7" fill="#111111" fill-rule="evenodd" stroke="none"/>
      <path d="M5.8 -6.45 Q6.1 -7.0 6.55 -7.55 L6.6 -7.65 6.7 -7.75 6.65 -7.6 6.8 -7.65 6.95 -7.65 Q7.15 -7.75 7.15 -7.2 7.2 -6.95 7.1 -6.55 L7.0 -5.85 Q6.9 -5.2 6.7 -5.05 L6.5 -4.8 6.25 -4.45 6.3 -4.5 Q6.05 -4.6 5.95 -4.75 L6.55 -6.65 6.4 -6.7 Q6.1 -6.35 5.75 -5.9 L5.8 -6.5 5.8 -6.45 M4.6 -3.2 L4.6 -3.35 4.65 -3.45 4.7 -3.45 Q4.7 -3.55 4.75 -3.6 L4.75 -3.65 4.95 -3.7 Q5.7 -3.7 6.3 -2.7 L6.6 -2.15 Q6.7 -2.05 6.7 -1.7 6.8 -1.45 6.8 -1.2 L6.8 -0.7 6.85 -0.4 6.55 0.0 6.5 0.1 6.4 0.2 6.35 0.35 6.0 0.25 Q6.05 -0.85 5.8 -1.45 L5.65 -1.0 Q5.5 -0.6 5.5 -0.45 L5.45 -0.2 5.4 -0.3 Q5.25 0.1 5.0 0.25 5.15 0.0 5.2 -0.4 L5.2 -0.8 5.05 -1.3 5.0 -1.4 5.1 -2.05 5.15 -2.55 Q5.2 -2.95 5.15 -3.05 L4.8 -2.4 4.8 -2.35 4.75 -2.6 4.6 -3.2 M6.45 -4.3 L6.75 -4.65 7.05 -5.1 7.25 -4.85 Q7.4 -4.55 7.4 -3.85 L7.25 -3.1 Q7.15 -2.75 7.05 -2.55 L7.05 -2.6 6.75 -3.25 6.7 -3.45 6.75 -3.4 6.8 -3.7 6.9 -4.4 6.8 -4.4 6.6 -3.75 Q6.45 -4.05 6.45 -4.3 M6.4 0.75 L6.7 0.15 Q7.0 0.0 7.3 0.0 L7.35 0.25 7.35 0.35 Q7.45 0.7 7.45 0.85 7.5 1.8 7.45 2.4 L7.35 2.95 7.3 2.95 6.8 2.4 Q6.85 2.1 6.85 1.7 6.8 1.55 6.85 1.35 L6.95 1.1 6.9 1.05 6.55 1.75 Q6.4 2.15 6.2 2.3 L6.3 1.55 6.3 1.35 6.4 0.75 M4.05 3.25 L4.05 2.75 4.0 2.55 Q4.0 2.4 4.05 2.35 L4.05 2.3 4.6 2.3 Q5.1 2.4 5.85 2.9 L6.25 3.15 6.3 3.2 Q6.65 3.6 6.85 4.0 L6.95 4.15 7.0 4.2 7.0 4.25 Q7.15 4.55 7.15 4.9 7.15 5.25 7.05 5.7 L6.8 5.75 6.7 5.75 Q6.0 4.55 5.8 4.35 L5.75 4.4 5.75 4.6 5.85 5.0 6.1 6.1 6.05 6.25 5.55 5.4 Q5.4 5.25 5.2 5.1 5.0 4.3 4.95 3.7 4.95 3.5 4.9 3.35 L4.65 2.95 Q4.45 3.4 4.4 4.0 L4.05 3.25 M5.05 2.2 L5.05 2.2" fill="#cccccc" fill-rule="evenodd" stroke="none"/>
      <path d="M5.8 -6.45 L5.8 -6.5 5.75 -5.9 Q6.1 -6.35 6.4 -6.7 L6.55 -6.65 5.95 -4.75 Q6.05 -4.6 6.3 -4.5 L6.25 -4.45 6.2 -4.45 Q5.85 -3.9 5.7 -3.9 L5.6 -3.75 Q5.2 -4.05 4.75 -4.05 4.95 -5.15 5.45 -5.95 5.55 -6.2 5.7 -6.3 L5.7 -6.35 5.75 -6.45 5.8 -6.45 M4.6 -3.2 L4.75 -2.6 4.8 -2.35 4.8 -2.4 5.15 -3.05 Q5.2 -2.95 5.15 -2.55 L5.1 -2.05 5.0 -1.4 5.05 -1.3 5.2 -0.8 5.2 -0.4 Q5.15 0.0 5.0 0.25 5.25 0.1 5.4 -0.3 L5.45 -0.2 5.5 -0.45 Q5.5 -0.6 5.65 -1.0 L5.8 -1.45 Q6.05 -0.85 6.0 0.25 L6.35 0.35 Q5.9 1.0 5.45 1.45 L5.4 1.45 5.4 1.5 4.9 1.9 4.85 1.95 4.05 1.9 4.05 1.3 4.15 0.15 Q4.1 -0.6 4.3 -1.75 L4.3 -2.0 4.55 -3.1 4.6 -3.2 M7.05 -2.55 L7.0 -2.5 Q6.9 -2.35 6.85 -2.3 L6.75 -2.3 6.75 -2.2 6.7 -2.3 6.65 -2.3 6.65 -2.35 Q6.55 -2.5 6.5 -2.6 L6.3 -2.95 Q6.2 -3.05 6.05 -3.2 L5.95 -3.45 5.8 -3.6 5.95 -3.75 5.95 -3.8 6.45 -4.3 Q6.45 -4.05 6.6 -3.75 L6.8 -4.4 6.9 -4.4 6.8 -3.7 6.75 -3.4 6.7 -3.45 6.75 -3.25 7.05 -2.6 7.05 -2.55 M6.4 0.75 L6.3 1.35 6.3 1.55 6.2 2.3 Q6.4 2.15 6.55 1.75 L6.9 1.05 6.95 1.1 6.85 1.35 Q6.8 1.55 6.85 1.7 6.85 2.1 6.8 2.4 L7.3 2.95 7.3 3.0 7.25 3.1 Q7.15 3.25 7.05 3.25 L7.0 3.35 7.0 3.55 6.85 3.4 6.2 2.85 5.95 2.55 5.8 2.5 5.85 2.45 5.7 2.35 5.65 2.3 5.6 2.35 5.55 2.25 Q5.5 2.15 5.5 2.0 5.5 1.9 5.6 1.65 5.95 1.3 6.25 0.85 L6.4 0.75 M4.05 3.25 L4.4 4.0 Q4.45 3.4 4.65 2.95 L4.9 3.35 Q4.95 3.5 4.95 3.7 5.0 4.3 5.2 5.1 5.4 5.25 5.55 5.4 L6.05 6.25 6.1 6.1 5.85 5.0 5.75 4.6 5.75 4.4 5.8 4.35 Q6.0 4.55 6.7 5.75 L6.8 5.75 7.05 5.7 7.0 5.75 7.0 5.85 6.85 6.2 6.85 6.8 Q6.55 7.25 6.1 7.25 L5.9 7.3 5.75 7.25 5.6 7.35 Q5.15 7.3 4.85 6.75 L4.9 6.8 Q4.65 6.4 4.35 4.85 4.15 3.9 4.1 3.45 L4.05 3.25" fill="#939393" fill-rule="evenodd" stroke="none"/>
      <path d="M0.15 -5.5 L0.5 -5.55 0.7 -5.55 1.4 -5.5 1.1 -4.9 Q-0.3 -2.1 -0.25 -1.05 L-0.2 -0.7 Q-0.15 -0.55 -0.2 -0.45 L-0.3 -0.5 -0.35 -0.75 -0.35 -1.0 Q-0.35 -1.45 -0.25 -1.7 -0.1 -2.0 -0.15 -2.55 -0.2 -4.4 0.15 -5.5" fill="#d0f0f0" fill-rule="evenodd" stroke="none"/>
      <path d="M1.4 -5.5 L1.6 -5.5 1.8 -5.45 Q1.6 -4.75 1.5 -3.8 L1.4 -2.95 1.4 -2.2 1.3 -1.8 1.3 -1.75 1.4 -1.75 1.4 -1.65 Q1.25 -0.9 1.3 -0.3 1.35 1.25 1.45 2.1 L1.5 2.35 1.4 2.45 1.2 2.6 Q1.0 2.7 0.6 2.75 L-0.35 2.65 -0.55 1.55 -0.75 0.7 -1.0 0.05 -1.15 -0.5 -1.15 -0.55 -1.5 -1.75 -1.5 -1.8 Q-1.6 -2.35 -1.6 -2.7 -1.6 -3.7 -1.35 -4.9 L-1.3 -5.1 -0.6 -5.3 -0.5 -5.3 -0.45 -5.35 0.15 -5.5 Q-0.2 -4.4 -0.15 -2.55 -0.1 -2.0 -0.25 -1.7 -0.35 -1.45 -0.35 -1.0 L-0.35 -0.75 -0.3 -0.5 -0.2 -0.45 Q-0.15 -0.55 -0.2 -0.7 L-0.25 -1.05 Q-0.3 -2.1 1.1 -4.9 L1.4 -5.5 M-1.95 3.85 L-2.05 3.5 -1.65 3.5 Q-1.0 3.5 -0.45 3.2 L-0.4 3.15 -0.25 3.05 Q0.2 2.85 0.65 2.85 L1.0 2.8 1.15 2.75 1.55 2.7 1.95 4.9 2.0 5.95 Q2.05 6.9 2.2 7.6 L2.25 8.0 2.05 8.1 2.0 8.1 1.75 8.15 0.4 8.0 0.45 7.7 0.5 6.5 Q0.45 5.35 0.35 4.75 0.25 4.05 0.0 3.5 -0.6 3.8 -1.35 3.85 L-1.95 3.85" fill="#80c0f0" fill-rule="evenodd" stroke="none"/>
      <path d="M-0.35 2.65 L-1.1 2.5 -1.3 2.5 Q-1.6 2.5 -1.85 2.3 L-2.35 2.2 -2.45 1.85 -2.5 1.75 -2.8 1.25 Q-3.05 0.7 -3.2 0.2 -3.2 0.15 -3.4 -0.55 L-3.5 -1.1 -3.5 -1.8 Q-3.5 -2.3 -3.1 -3.65 L-2.95 -4.1 -2.6 -4.8 -1.6 -5.05 -1.5 -5.05 -1.3 -5.1 -1.35 -4.9 Q-1.6 -3.7 -1.6 -2.7 -1.6 -2.35 -1.5 -1.8 L-1.5 -1.75 -1.15 -0.55 -1.15 -0.5 -1.0 0.05 -0.75 0.7 -0.55 1.55 -0.35 2.65 M0.4 8.0 L0.35 8.0 0.25 7.95 -0.55 7.7 -1.15 7.5 -1.1 7.35 Q-1.15 6.2 -1.85 4.3 L-1.95 3.85 -1.35 3.85 Q-0.6 3.8 0.0 3.5 0.25 4.05 0.35 4.75 0.45 5.35 0.5 6.5 L0.45 7.7 0.4 8.0" fill="#0070e0" fill-rule="evenodd" stroke="none"/>
      <path d="M7.85 -10.85 L7.75 -10.8 Q7.05 -10.15 6.5 -9.4 5.55 -8.65 5.4 -8.35 L5.15 -7.9 4.9 -7.3 4.4 -6.0 3.9 -4.0 Q3.4 -1.7 3.45 -0.75 3.45 -0.35 3.3 0.5 3.15 1.35 3.15 1.85 L3.5 4.35 Q3.55 5.55 3.6 5.7 3.7 6.05 4.7 7.6 L4.6 7.55 Q3.3 6.5 3.2 3.5 L3.1 2.75 3.05 1.95 Q3.05 1.8 2.9 1.4 2.8 1.0 2.8 0.85 2.75 -0.9 3.3 -3.15 3.6 -4.3 4.0 -5.4 L4.7 -7.8 Q4.8 -8.35 5.1 -9.2 L5.3 -9.75 Q5.55 -10.1 5.85 -10.35 6.35 -10.8 6.8 -11.05 L6.9 -11.15 7.4 -11.2 7.45 -11.2 7.65 -11.15 Q7.8 -11.05 7.85 -10.85 M0.5 -7.4 L0.8 -7.55 Q1.15 -7.7 2.1 -7.7 2.55 -7.7 3.0 -8.0 L2.35 -6.85 2.3 -6.75 2.25 -6.75 2.1 -6.35 1.1 -7.05 Q0.9 -7.2 0.5 -7.4 M6.05 8.75 Q7.0 8.15 6.95 7.65 6.95 7.5 6.9 7.5 L6.85 7.5 Q6.4 7.75 6.1 7.75 L5.55 7.7 Q6.3 7.65 6.8 7.2 L6.85 7.15 6.9 7.2 7.25 6.85 Q7.65 6.5 7.75 6.45 L7.9 6.85 Q8.0 7.2 8.0 7.25 8.05 7.7 7.45 8.3 L7.4 8.3 7.3 8.35 7.25 8.4 6.1 8.75 6.05 8.75" fill="#ff9999" fill-rule="evenodd" stroke="none"/>
      <path d="M6.5 -9.4 Q5.85 -8.5 5.45 -7.45 5.1 -6.95 4.8 -5.75 4.5 -5.2 4.3 -4.45 3.95 -3.25 3.9 -2.05 L3.85 -1.9 Q3.6 -0.5 3.65 0.5 L3.65 0.65 Q3.6 1.2 3.6 1.45 L3.65 1.95 3.6 2.2 Q3.65 2.7 3.75 3.3 L3.9 4.55 Q3.9 4.9 4.15 5.7 L4.2 5.75 4.45 6.45 Q4.85 7.45 5.15 7.55 L5.2 7.6 Q5.3 7.7 5.5 7.7 L5.55 7.7 6.1 7.75 Q6.4 7.75 6.85 7.5 L6.9 7.5 Q6.95 7.5 6.95 7.65 7.0 8.15 6.05 8.75 L5.1 8.75 Q4.65 8.55 4.25 8.1 3.35 7.25 3.35 6.5 3.3 6.3 3.2 6.1 L3.0 5.65 Q2.95 5.5 3.0 5.3 L3.05 4.95 2.95 4.45 Q2.85 4.1 2.85 3.95 L2.5 -0.8 2.6 -2.2 Q2.6 -2.4 2.75 -3.25 2.9 -4.05 2.9 -4.25 2.9 -4.35 2.95 -4.65 3.05 -4.95 3.05 -5.05 3.05 -5.35 3.55 -6.95 L4.05 -7.95 4.85 -9.15 4.9 -9.25 5.3 -9.75 5.1 -9.2 Q4.8 -8.35 4.7 -7.8 L4.0 -5.4 Q3.6 -4.3 3.3 -3.15 2.75 -0.9 2.8 0.85 2.8 1.0 2.9 1.4 3.05 1.8 3.05 1.95 L3.1 2.75 3.2 3.5 Q3.3 6.5 4.6 7.55 L4.7 7.6 Q3.7 6.05 3.6 5.7 3.55 5.55 3.5 4.35 L3.15 1.85 Q3.15 1.35 3.3 0.5 3.45 -0.35 3.45 -0.75 3.4 -1.7 3.9 -4.0 L4.4 -6.0 4.9 -7.3 5.15 -7.9 5.4 -8.35 Q5.55 -8.65 6.5 -9.4 M0.5 -7.4 Q0.9 -7.2 1.1 -7.05 L2.1 -6.35 1.95 -6.0 1.6 -5.9 1.35 -5.85 1.25 -5.85 -0.5 -6.15 -0.35 -7.0 -0.3 -7.2 0.5 -7.4 M0.2 8.7 L0.75 8.7 1.4 8.65 1.75 8.65 1.85 9.0 1.95 9.65 Q1.95 9.7 2.35 10.25 L2.85 10.85 2.9 10.9 Q1.1 10.75 0.5 9.75 0.25 9.35 0.2 8.7" fill="#b00000" fill-rule="evenodd" stroke="none"/>
      <path d="M6.5 -9.4 Q7.05 -10.15 7.75 -10.8 L7.85 -10.85 7.9 -10.6 7.9 -10.5 7.7 -10.25 Q7.55 -9.85 7.0 -9.0 L6.9 -8.65 6.5 -8.1 5.7 -6.95 Q5.2 -6.5 4.8 -5.75 5.1 -6.95 5.45 -7.45 5.85 -8.5 6.5 -9.4 M1.25 -5.85 L0.85 -5.8 0.15 -5.7 -1.1 -5.8 -2.3 -5.9 -2.3 -5.95 Q-2.2 -6.2 -2.1 -6.55 -1.7 -6.9 -1.25 -7.0 L-0.3 -7.2 -0.35 -7.0 -0.5 -6.15 1.25 -5.85 M7.45 8.3 L7.35 8.35 7.1 8.65 7.0 8.7 Q5.95 9.6 5.2 9.6 4.95 9.6 4.25 9.35 L3.7 9.15 3.55 8.75 Q3.15 8.4 2.7 6.7 2.25 4.95 2.25 4.4 L2.1 3.35 2.0 2.3 Q1.9 -0.1 2.15 -2.1 2.35 -3.65 2.7 -4.55 L2.95 -5.4 Q3.2 -6.2 3.55 -6.95 3.05 -5.35 3.05 -5.05 3.05 -4.95 2.95 -4.65 2.9 -4.35 2.9 -4.25 2.9 -4.05 2.75 -3.25 2.6 -2.4 2.6 -2.2 L2.5 -0.8 2.85 3.95 Q2.85 4.1 2.95 4.45 L3.05 4.95 3.0 5.3 Q2.95 5.5 3.0 5.65 L3.2 6.1 Q3.3 6.3 3.35 6.5 3.35 7.25 4.25 8.1 4.65 8.55 5.1 8.75 L6.05 8.75 6.1 8.75 7.25 8.4 7.3 8.35 7.4 8.3 7.45 8.3 M1.75 8.65 L1.85 8.7 2.4 8.7 2.45 8.65 2.7 9.1 2.65 9.45 Q2.65 10.05 3.5 10.35 4.15 10.6 4.85 10.55 5.6 10.55 6.25 10.35 L6.1 10.55 Q5.85 10.65 5.15 11.05 4.05 11.6 2.25 11.65 1.0 11.7 -0.7 10.75 L-1.55 10.25 -1.75 10.05 -1.65 9.8 Q-1.45 9.1 -1.45 8.9 L-1.4 8.55 -1.15 8.6 0.2 8.7 Q0.25 9.35 0.5 9.75 1.1 10.75 2.9 10.9 L2.85 10.85 2.35 10.25 Q1.95 9.7 1.95 9.65 L1.85 9.0 1.75 8.65" fill="#600000" fill-rule="evenodd" stroke="none"/>
    </g>
  </defs>
</svg>
