<?xml version="1.0" encoding="UTF-8" standalone="no"?>
<svg xmlns:ffdec="https://www.free-decompiler.com/flash" xmlns:xlink="http://www.w3.org/1999/xlink" ffdec:objectType="frame" height="124.4px" width="154.65px" xmlns="http://www.w3.org/2000/svg">
  <g transform="matrix(1.0, 0.0, 0.0, 1.0, 76.5, 114.4)">
    <use ffdec:characterId="374" height="1.0" transform="matrix(4.906, 0.0, 0.0, 4.906, -21.1066, -13.8718)" width="11.05" xlink:href="#shape0"/>
    <use ffdec:characterId="375" height="3.55" transform="matrix(4.906, 0.0, 0.0, 4.906, -3.1996, -30.307)" width="5.05" xlink:href="#shape1"/>
    <use ffdec:characterId="376" height="3.55" transform="matrix(4.906, 0.0, 0.0, 4.906, -3.1996, -30.307)" width="5.05" xlink:href="#shape2"/>
    <use ffdec:characterId="390" height="1.0" transform="matrix(-4.0086, 0.0, -0.2372, 4.0086, -4.8337, -26.8026)" width="11.05" xlink:href="#shape3"/>
    <use ffdec:characterId="381" height="7.6" transform="matrix(-4.0086, 0.0, -0.2372, 4.0086, -17.1563, -55.6645)" width="6.15" xlink:href="#shape4"/>
    <use ffdec:characterId="391" height="4.75" transform="matrix(-4.0086, 0.0, -0.2372, 4.0086, -18.6932, -43.2379)" width="5.95" xlink:href="#shape5"/>
    <use ffdec:characterId="374" height="1.0" transform="matrix(-4.0086, 0.0, -0.2372, 4.0086, 61.1663, -26.8026)" width="11.05" xlink:href="#shape0"/>
    <use ffdec:characterId="375" height="3.55" transform="matrix(-4.0086, 0.0, -0.2372, 4.0086, 47.3294, -40.2314)" width="5.05" xlink:href="#shape1"/>
    <use ffdec:characterId="383" height="5.95" transform="matrix(-4.0086, 0.0, -0.2372, 4.0086, 48.3813, -47.8478)" width="6.05" xlink:href="#shape6"/>
    <use ffdec:characterId="390" height="1.0" transform="matrix(-4.9084, 0.0, 0.0, 4.9084, 78.1692, -10.8725)" width="11.05" xlink:href="#shape3"/>
    <use ffdec:characterId="381" height="7.6" transform="matrix(-4.9084, 0.0, 0.0, 4.9084, 60.9897, -46.2131)" width="6.15" xlink:href="#shape4"/>
    <use ffdec:characterId="391" height="4.75" transform="matrix(-4.9084, 0.0, 0.0, 4.9084, 60.008, -30.997)" width="5.95" xlink:href="#shape5"/>
    <use ffdec:characterId="379" height="15.5" transform="matrix(5.1539, 0.0, 0.0, 5.1539, -60.5309, -90.6275)" width="6.9" xlink:href="#shape7"/>
  </g>
  <defs>
    <g id="shape0" transform="matrix(1.0, 0.0, 0.0, 1.0, 5.25, 0.3)">
      <path d="M5.8 -0.05 Q5.8 0.15 5.15 0.3 L4.2 0.45 3.75 0.55 0.3 0.7 -3.65 0.45 -4.6 0.3 Q-5.25 0.15 -5.25 -0.05 L-5.2 -0.1 -3.65 -0.25 0.3 -0.3 3.9 -0.25 4.2 -0.25 5.75 -0.1 5.8 -0.05" fill="#ffffff" fill-opacity="0.5019608" fill-rule="evenodd" stroke="none"/>
      <path d="M5.8 -0.05 Q5.8 0.15 5.15 0.3 L4.2 0.45 3.75 0.55 0.3 0.7 -3.65 0.45 -4.6 0.3 Q-5.25 0.15 -5.25 -0.05 L-5.2 -0.1 -3.65 -0.25 0.3 -0.3 3.9 -0.25 4.2 -0.25 5.75 -0.1 5.8 -0.05" fill="#ffffff" fill-opacity="0.5019608" fill-rule="evenodd" stroke="none"/>
    </g>
    <g id="shape1" transform="matrix(1.0, 0.0, 0.0, 1.0, 1.6, 3.65)">
      <path d="M2.8 -2.7 L2.85 -2.35 2.95 -2.3 2.9 -2.3 Q2.9 -2.25 2.95 -2.25 L3.1 -2.3 3.35 -2.3 Q3.45 -2.2 3.45 -2.05 L3.25 -1.55 3.15 -1.25 3.2 -1.15 3.25 -1.0 3.25 -0.9 3.2 -0.65 3.1 -0.5 3.05 -0.25 Q3.0 -0.25 3.0 -0.3 L2.95 -0.25 2.95 -0.3 3.0 -0.45 3.05 -0.7 3.05 -0.9 Q3.05 -1.05 2.85 -1.05 L2.85 -1.1 2.8 -1.05 2.7 -1.05 Q2.45 -1.0 2.35 -0.9 2.3 -0.7 2.3 -0.5 L2.3 -0.2 2.25 -0.2 2.25 -0.3 Q2.15 -0.15 1.5 -0.15 L0.85 -0.2 0.4 -0.1 0.1 -0.1 0.1 -0.15 -0.45 -0.15 -0.35 -0.25 Q-0.25 -0.45 -0.25 -0.6 -0.25 -0.8 -0.3 -0.9 L-0.6 -0.95 -0.75 -0.9 Q-0.95 -0.7 -0.95 -0.35 L-0.9 -0.2 -0.9 -0.15 -1.2 -0.15 -1.45 -0.2 -1.45 -0.15 -1.5 -0.15 -1.6 -0.25 Q-1.6 -0.35 -1.55 -0.35 L-1.45 -0.65 -1.35 -0.9 -1.3 -1.0 Q-1.3 -1.1 -1.4 -1.25 L-1.45 -1.4 Q-1.45 -1.9 -1.15 -2.05 L-0.95 -2.1 Q-0.4 -2.3 -0.15 -2.55 L0.25 -3.0 0.7 -3.45 Q1.2 -3.8 2.15 -3.6 2.4 -3.55 2.55 -3.4 L2.65 -3.15 2.8 -2.7 M3.1 -2.0 Q2.9 -2.0 2.9 -1.85 L2.9 -1.75 Q2.95 -1.7 3.05 -1.7 3.25 -1.7 3.25 -1.85 3.25 -2.0 3.1 -2.0 M0.0 -2.1 Q0.2 -2.1 0.2 -2.3 0.2 -2.5 0.0 -2.45 -0.2 -2.4 -0.2 -2.25 -0.15 -2.1 0.0 -2.1" fill="#ffffff" fill-opacity="0.5019608" fill-rule="evenodd" stroke="none"/>
    </g>
    <g id="shape2" transform="matrix(1.0, 0.0, 0.0, 1.0, 1.6, 3.65)">
      <path d="M2.8 -2.7 L2.85 -2.35 2.95 -2.3 2.9 -2.3 Q2.9 -2.25 2.95 -2.25 L3.1 -2.3 3.35 -2.3 Q3.45 -2.2 3.45 -2.05 L3.25 -1.55 3.15 -1.25 3.2 -1.15 3.25 -1.0 3.25 -0.9 3.2 -0.65 3.1 -0.5 3.05 -0.25 Q3.0 -0.25 3.0 -0.3 L2.95 -0.25 2.95 -0.3 3.0 -0.45 3.05 -0.7 3.05 -0.9 Q3.05 -1.05 2.85 -1.05 L2.85 -1.1 2.8 -1.05 2.7 -1.05 Q2.45 -1.0 2.35 -0.9 2.3 -0.7 2.3 -0.5 L2.3 -0.2 2.25 -0.2 2.25 -0.3 Q2.15 -0.15 1.5 -0.15 L0.85 -0.2 0.4 -0.1 0.1 -0.1 0.1 -0.15 -0.45 -0.15 -0.35 -0.25 Q-0.25 -0.45 -0.25 -0.6 -0.25 -0.8 -0.3 -0.9 L-0.6 -0.95 -0.75 -0.9 Q-0.95 -0.7 -0.95 -0.35 L-0.9 -0.2 -0.9 -0.15 -1.2 -0.15 -1.45 -0.2 -1.45 -0.15 -1.5 -0.15 -1.6 -0.25 Q-1.6 -0.35 -1.55 -0.35 L-1.45 -0.65 -1.35 -0.9 -1.3 -1.0 Q-1.3 -1.1 -1.4 -1.25 L-1.45 -1.4 Q-1.45 -1.9 -1.15 -2.05 L-0.95 -2.1 Q-0.4 -2.3 -0.15 -2.55 L0.25 -3.0 0.7 -3.45 Q1.2 -3.8 2.15 -3.6 2.4 -3.55 2.55 -3.4 L2.65 -3.15 2.8 -2.7 M3.1 -2.0 Q2.9 -2.0 2.9 -1.85 L2.9 -1.75 Q2.95 -1.7 3.05 -1.7 3.25 -1.7 3.25 -1.85 3.25 -2.0 3.1 -2.0 M0.0 -2.1 Q0.2 -2.1 0.2 -2.3 0.2 -2.5 0.0 -2.45 -0.2 -2.4 -0.2 -2.25 -0.15 -2.1 0.0 -2.1" fill="#ffffff" fill-opacity="0.5019608" fill-rule="evenodd" stroke="none"/>
    </g>
    <g id="shape3" transform="matrix(1.0, 0.0, 0.0, 1.0, 5.25, 0.3)">
      <path d="M5.8 -0.05 Q5.8 0.15 5.15 0.3 L4.2 0.45 3.75 0.55 0.3 0.7 -3.65 0.45 -4.6 0.3 Q-5.25 0.15 -5.25 -0.05 L-5.2 -0.1 -3.65 -0.25 0.3 -0.3 3.9 -0.25 4.2 -0.25 5.75 -0.1 5.8 -0.05" fill="#ffffff" fill-opacity="0.5019608" fill-rule="evenodd" stroke="none"/>
      <path d="M4.65 -0.05 Q4.65 0.15 4.15 0.3 L3.75 0.4 3.35 0.45 0.3 0.7 -2.8 0.45 -3.55 0.3 Q-4.1 0.15 -4.1 -0.05 L-4.05 -0.1 -2.8 -0.25 0.3 -0.3 3.35 -0.25 3.75 -0.2 4.6 -0.1 4.65 -0.05" fill="#ffffff" fill-opacity="0.5019608" fill-rule="evenodd" stroke="none"/>
    </g>
    <g id="shape4" transform="matrix(1.0, 0.0, 0.0, 1.0, 1.75, 7.5)">
      <path d="M4.2 -5.1 L4.2 -4.6 4.05 -4.15 4.0 -4.15 3.95 -4.1 3.95 -4.15 3.9 -4.05 4.05 -3.95 4.15 -3.95 Q4.4 -3.95 4.4 -3.8 L4.35 -3.7 4.15 -3.65 3.85 -3.65 Q3.7 -3.7 3.6 -3.8 L3.5 -3.95 3.45 -3.95 Q3.3 -3.95 3.3 -4.0 L3.25 -4.05 3.3 -4.2 Q3.3 -4.4 3.5 -4.4 L3.65 -4.4 3.65 -4.35 3.7 -4.2 3.85 -4.1 3.85 -4.25 3.9 -4.45 3.8 -4.7 3.65 -4.75 Q3.4 -4.7 3.2 -4.55 3.05 -4.35 2.9 -3.95 2.7 -3.25 2.4 -3.25 L2.35 -3.25 Q2.15 -2.65 2.15 -2.0 2.15 -1.75 2.25 -1.4 L2.25 -1.3 2.35 -0.95 Q2.4 -0.55 2.5 -0.5 L2.75 -0.85 2.8 -0.9 2.8 -0.95 2.85 -1.05 2.95 -1.3 3.0 -1.45 Q3.1 -1.8 3.1 -2.05 L3.1 -2.1 3.15 -2.25 3.2 -2.25 3.25 -1.7 3.3 -1.4 3.25 -1.45 3.35 -1.3 3.4 -1.15 3.55 -0.95 3.7 -0.65 Q3.9 -0.35 4.25 -0.15 L4.3 -0.15 4.3 -0.05 4.25 0.0 4.2 0.0 Q4.05 0.0 3.9 -0.15 L3.8 -0.25 3.85 -0.15 3.8 -0.05 3.75 -0.05 3.6 -0.1 3.3 -0.15 Q3.1 -0.15 2.75 0.1 L2.35 0.1 2.3 0.0 2.25 0.05 Q1.7 0.05 1.55 -0.1 1.45 -0.25 1.2 -0.25 L0.35 -0.05 Q0.25 -0.05 0.2 -0.25 0.15 -0.1 0.1 -0.1 0.0 0.0 -0.1 0.0 L-0.25 0.1 -0.65 0.1 -0.7 -0.05 -0.8 -0.05 -0.95 0.0 -0.9 0.1 -1.45 0.1 -1.45 0.0 -1.5 -0.1 -1.6 0.05 -1.7 0.05 -1.5 -0.7 -1.45 -0.95 -1.4 -1.3 -1.3 -1.5 -1.25 -1.55 -1.2 -1.95 -1.15 -1.95 -1.2 -1.9 -1.2 -1.65 -1.15 -1.5 -1.15 -1.55 -1.1 -1.5 -1.1 -0.95 Q-1.0 -0.3 -0.8 -0.3 L-0.75 -0.3 -0.7 -0.95 Q-0.6 -1.15 -0.45 -1.2 -0.15 -1.25 -0.1 -0.95 L-0.1 -0.65 0.0 -0.45 Q0.15 -0.45 0.2 -0.95 L0.3 -1.3 0.3 -1.4 0.4 -2.0 0.35 -2.15 0.25 -2.2 0.15 -2.2 0.0 -2.1 -0.05 -2.0 Q-0.25 -1.75 -0.3 -1.75 -0.55 -1.75 -0.65 -1.9 L-0.7 -2.05 -0.7 -2.45 -0.75 -2.65 -0.85 -2.85 -0.85 -2.9 Q-1.05 -2.5 -1.05 -2.2 L-1.05 -2.15 -1.1 -2.2 -1.1 -2.25 -1.15 -2.1 -1.15 -2.05 -1.2 -2.0 Q-1.3 -2.5 -1.4 -2.85 L-1.45 -3.0 -1.75 -3.75 Q-1.75 -4.2 -1.55 -4.35 L-1.05 -4.5 Q-0.2 -4.65 0.15 -5.6 L0.6 -6.55 Q0.7 -6.75 0.85 -6.95 L0.9 -6.95 0.9 -7.0 1.05 -7.2 1.45 -7.4 1.7 -7.5 2.05 -7.5 Q2.7 -7.2 2.85 -6.6 3.05 -6.05 3.3 -5.85 3.6 -5.95 3.85 -5.8 L4.0 -5.7 Q4.15 -5.55 4.2 -5.4 L4.2 -5.1 M1.35 -7.3 L1.35 -7.3 M0.7 -6.65 L0.7 -6.65 M2.6 -5.9 L2.75 -6.2 2.35 -6.2 Q2.2 -6.2 2.2 -5.95 L2.2 -5.9 Q2.25 -5.8 2.4 -5.8 2.55 -5.8 2.6 -5.9 M4.05 -4.25 L4.05 -4.25 M3.9 -3.85 L3.8 -3.85 3.9 -3.8 3.9 -3.85 M0.05 -2.55 L0.1 -2.75 Q0.1 -3.0 -0.15 -3.0 -0.4 -3.0 -0.4 -2.8 L-0.35 -2.65 Q-0.25 -2.45 -0.1 -2.45 0.0 -2.45 0.05 -2.55 M0.5 -2.0 L0.45 -2.15 0.45 -2.2 0.5 -2.0 M3.2 -2.1 L3.2 -2.1 M3.1 -1.8 L3.1 -1.8 M3.2 -1.3 L3.2 -1.3 M2.4 -0.45 L2.4 -0.45 M-0.35 -3.15 Q-0.35 -3.3 -0.5 -3.3 -0.6 -3.3 -0.6 -3.15 L-0.6 -3.05 Q-0.6 -3.0 -0.5 -3.0 -0.45 -3.0 -0.4 -3.05 L-0.35 -3.15 M-1.25 -1.0 L-1.25 -1.0" fill="#ffffff" fill-opacity="0.5019608" fill-rule="evenodd" stroke="none"/>
    </g>
    <g id="shape5" transform="matrix(1.0, 0.0, 0.0, 1.0, 1.55, 4.4)">
      <path d="M3.25 -4.05 L3.3 -4.2 Q3.3 -4.4 3.5 -4.4 L3.65 -4.4 3.65 -4.35 3.7 -4.2 4.05 -3.95 4.15 -3.95 Q4.4 -3.95 4.4 -3.8 L4.35 -3.7 4.15 -3.65 3.85 -3.65 Q3.7 -3.7 3.6 -3.8 L3.5 -3.95 3.45 -3.95 Q3.3 -3.95 3.3 -4.0 L3.25 -4.05 M3.9 -3.85 L3.8 -3.85 3.9 -3.8 3.9 -3.85 M0.05 -3.9 Q-0.05 -3.8 -0.15 -3.8 L-0.5 -3.8 -0.95 -3.7 -1.0 -3.7 Q-1.05 -3.65 -1.15 -3.65 L-1.35 -3.65 -1.35 -3.8 Q-1.35 -3.9 -1.2 -3.9 L-1.05 -3.9 Q-0.9 -4.1 -0.65 -4.2 L-0.25 -4.25 Q0.2 -4.3 0.2 -4.05 0.2 -3.95 0.05 -3.9 M1.15 -0.1 L1.15 -0.1 M-1.35 -0.55 L-1.15 -0.85 -0.9 -0.25 -0.95 -0.1 Q-1.05 -0.1 -1.1 -0.2 L-1.2 -0.3 -1.4 -0.1 -1.5 0.3 -1.5 0.35 -1.55 0.3 -1.55 -0.1 -1.35 -0.55" fill="#ffffff" fill-opacity="0.5019608" fill-rule="evenodd" stroke="none"/>
    </g>
    <g id="shape6" transform="matrix(1.0, 0.0, 0.0, 1.0, 1.75, 5.55)">
      <path d="M0.9 -5.15 L1.05 -5.3 Q1.2 -5.4 1.45 -5.45 L1.7 -5.5 2.05 -5.5 Q2.7 -5.35 2.85 -4.9 3.05 -4.45 3.3 -4.3 L3.85 -4.25 4.0 -4.2 Q4.15 -4.1 4.2 -3.95 L4.2 -3.35 4.05 -3.05 4.0 -3.0 3.95 -3.0 3.9 -2.95 3.85 -2.95 3.85 -3.1 3.9 -3.25 3.8 -3.45 3.65 -3.5 3.2 -3.35 Q3.05 -3.15 2.9 -2.85 2.7 -2.3 2.4 -2.3 L2.35 -2.3 Q2.15 -1.9 2.15 -1.4 2.15 -1.2 2.25 -0.95 L2.25 -0.9 Q2.35 -0.45 2.5 -0.4 2.65 -0.45 2.75 -0.55 L2.8 -0.6 3.0 -1.0 Q3.1 -1.25 3.1 -1.45 L3.1 -1.5 3.15 -1.6 3.2 -1.6 3.25 -1.15 3.3 -0.95 3.35 -0.9 3.4 -0.75 Q3.5 -0.6 3.7 -0.5 3.9 -0.35 4.25 -0.25 L4.3 -0.25 4.3 -0.2 4.25 -0.2 4.2 -0.15 3.9 -0.25 Q3.85 -0.25 3.8 -0.3 L3.85 -0.25 3.8 -0.2 3.6 -0.2 3.3 -0.25 2.75 -0.15 2.7 -0.1 2.45 0.2 Q2.35 0.2 2.35 0.0 L2.35 -0.1 2.3 -0.15 2.25 -0.15 1.55 -0.2 1.2 -0.3 0.35 -0.2 Q0.25 -0.2 0.2 -0.3 0.15 -0.2 0.1 -0.2 L-0.1 -0.2 -0.25 -0.15 -0.25 -0.1 Q-0.35 0.2 -0.45 0.2 -0.6 0.2 -0.65 -0.1 L-0.7 -0.2 -0.95 -0.2 -0.95 -0.15 -1.0 -0.2 Q-1.1 -0.2 -1.2 -0.35 L-1.25 -0.2 -1.25 0.3 Q-1.3 0.5 -1.3 0.3 L-1.3 -0.1 -1.25 -0.2 -1.4 -0.15 -1.5 -0.2 -1.6 -0.15 -1.7 -0.15 -1.5 -0.5 -1.4 -0.9 -1.3 -1.0 -1.3 -1.05 -1.25 -1.05 -1.2 -1.4 -1.15 -1.4 -1.15 -1.35 -1.2 -1.3 -1.2 -1.15 -1.15 -1.0 -1.15 -1.05 -1.1 -1.05 -1.1 -0.75 Q-1.05 -0.3 -0.8 -0.3 L-0.75 -0.35 Q-0.75 -0.75 -0.45 -0.8 -0.1 -0.85 -0.1 -0.5 L-0.1 -0.45 0.0 -0.4 Q0.2 -0.4 0.3 -0.9 L0.3 -0.95 0.4 -1.4 0.35 -1.5 Q0.3 -1.5 0.25 -1.55 L0.15 -1.55 0.0 -1.45 -0.05 -1.4 Q-0.25 -1.25 -0.3 -1.25 -0.55 -1.25 -0.65 -1.3 L-0.7 -1.45 -0.7 -1.75 -0.75 -1.9 -0.85 -2.05 Q-1.05 -1.8 -1.05 -1.55 L-1.1 -1.55 -1.1 -1.6 -1.15 -1.45 -1.2 -1.4 Q-1.3 -1.8 -1.4 -2.05 L-1.75 -2.75 Q-1.75 -3.05 -1.55 -3.15 L-1.05 -3.3 Q-0.2 -3.4 0.15 -4.1 L0.6 -4.85 Q0.7 -5.0 0.85 -5.1 L0.9 -5.15 M1.3 -5.35 L1.3 -5.35 M2.35 -4.55 Q2.2 -4.55 2.2 -4.4 L2.2 -4.3 Q2.25 -4.25 2.4 -4.25 2.55 -4.25 2.6 -4.35 2.7 -4.5 2.75 -4.55 L2.35 -4.55 M4.05 -3.1 L4.05 -3.1 M0.7 -4.85 L0.7 -4.85 M0.5 -1.4 L0.5 -1.4 M0.05 -1.85 L0.1 -1.95 Q0.1 -2.15 -0.15 -2.15 -0.4 -2.15 -0.4 -2.0 L-0.35 -1.9 Q-0.25 -1.75 -0.1 -1.75 0.0 -1.75 0.05 -1.85 M3.2 -1.45 L3.2 -1.45 M3.2 -0.9 L3.2 -0.9 M3.1 -1.2 L3.1 -1.2 M-0.35 -2.3 Q-0.35 -2.35 -0.5 -2.35 -0.6 -2.35 -0.6 -2.25 L-0.6 -2.2 -0.5 -2.15 -0.4 -2.2 -0.35 -2.3 M-1.25 -0.65 L-1.25 -0.65" fill="#ffffff" fill-opacity="0.5019608" fill-rule="evenodd" stroke="none"/>
    </g>
    <g id="shape7" transform="matrix(1.0, 0.0, 0.0, 1.0, 2.15, 14.8)">
      <path d="M2.7 -0.05 Q2.7 0.15 2.4 0.3 2.25 0.4 2.0 0.45 1.25 0.7 0.3 0.7 -0.7 0.7 -1.45 0.45 L-1.85 0.3 Q-2.15 0.15 -2.15 -0.05 L-2.15 -0.1 Q-2.05 -0.2 -1.45 -0.25 L0.3 -0.3 2.0 -0.25 Q2.6 -0.2 2.7 -0.1 L2.7 -0.05" fill="#ffffff" fill-opacity="0.5019608" fill-rule="evenodd" stroke="none"/>
      <path d="M2.35 -0.05 Q2.35 0.15 2.1 0.3 1.95 0.4 1.75 0.45 1.15 0.7 0.3 0.7 -0.6 0.7 -1.2 0.45 -1.4 0.4 -1.55 0.3 -1.8 0.15 -1.8 -0.05 L-1.8 -0.1 Q-1.75 -0.2 -1.2 -0.25 L0.3 -0.3 1.75 -0.25 Q2.3 -0.2 2.35 -0.1 L2.35 -0.05" fill="#ffffff" fill-opacity="0.5019608" fill-rule="evenodd" stroke="none"/>
      <path d="M3.9 -14.05 L3.95 -13.45 Q4.05 -13.1 4.1 -13.0 L4.4 -13.1 Q4.5 -13.1 4.6 -12.9 4.65 -12.95 4.7 -12.8 L4.75 -12.55 4.75 -12.5 4.7 -12.4 4.7 -12.35 Q4.75 -12.3 4.65 -12.3 4.55 -12.3 4.5 -12.4 L4.5 -12.45 4.45 -12.55 4.35 -12.45 Q4.2 -12.35 3.95 -12.35 3.85 -12.35 3.8 -12.55 L3.75 -12.85 Q3.7 -13.6 3.45 -14.05 3.75 -14.7 3.9 -14.05 M2.65 -13.3 L2.45 -13.3 2.4 -13.45 2.35 -13.45 Q2.0 -13.8 1.95 -13.8 1.75 -13.8 1.45 -13.2 L1.4 -13.15 0.95 -12.75 Q0.8 -12.55 0.65 -12.55 0.5 -12.55 0.3 -12.85 0.2 -13.05 0.1 -13.3 -0.1 -13.25 -0.15 -13.05 L-0.2 -13.0 -0.25 -13.15 -0.15 -13.45 -0.05 -13.6 Q0.2 -13.6 0.35 -13.35 L0.5 -13.15 Q0.65 -13.15 0.8 -13.7 L0.95 -14.2 1.1 -14.5 1.45 -14.75 Q1.6 -14.85 1.75 -14.8 2.0 -14.65 2.0 -14.25 L2.25 -13.95 2.5 -13.75 Q2.7 -14.0 2.95 -14.0 3.3 -14.05 3.3 -13.35 L3.25 -13.3 Q3.25 -13.35 3.2 -13.55 3.15 -13.65 3.0 -13.65 2.9 -13.65 2.75 -13.5 L2.65 -13.3 M1.2 -11.75 L0.95 -11.7 Q0.85 -11.7 0.8 -11.8 0.8 -11.85 0.8 -11.95 0.8 -12.2 0.95 -12.2 L1.05 -12.25 Q1.4 -12.25 1.4 -12.0 1.4 -11.85 1.2 -11.75 M1.6 -12.0 Q1.6 -12.45 2.0 -12.45 2.35 -12.45 2.35 -12.0 2.35 -11.8 2.2 -11.6 2.05 -11.5 1.95 -11.5 1.6 -11.5 1.6 -12.0 M0.15 -10.9 L0.0 -10.9 -0.4 -10.3 -0.4 -10.4 Q-0.4 -10.85 -0.35 -11.05 -0.2 -11.4 0.15 -11.5 L0.4 -11.15 0.55 -10.9 Q0.75 -10.9 0.9 -11.0 L0.95 -10.95 1.0 -10.95 0.95 -10.85 0.75 -10.65 Q0.5 -10.65 0.35 -10.75 L0.15 -10.9 M1.55 -10.55 Q1.55 -10.8 1.65 -10.8 1.8 -10.8 1.8 -10.55 1.8 -10.25 1.65 -10.25 1.55 -10.25 1.55 -10.4 L1.55 -10.55 M3.5 -11.8 Q3.65 -11.7 3.75 -11.0 L3.75 -10.95 Q3.65 -10.95 3.6 -11.1 3.55 -11.3 3.45 -11.3 3.3 -11.3 3.05 -10.85 2.8 -10.45 2.7 -10.45 L2.45 -10.45 2.35 -10.6 Q2.25 -10.65 2.2 -10.75 L2.2 -10.8 2.25 -10.75 Q2.25 -10.7 2.3 -10.7 2.5 -10.7 2.75 -11.05 L3.2 -11.6 Q3.4 -11.9 3.5 -11.8 M3.15 -12.25 Q3.15 -12.5 3.3 -12.5 3.45 -12.5 3.45 -12.25 3.45 -12.0 3.3 -12.0 3.2 -12.0 3.15 -12.1 L3.15 -12.25 M2.65 -11.9 L2.6 -12.05 2.7 -12.1 2.8 -12.1 2.85 -12.05 Q2.75 -11.9 2.65 -11.9 M0.05 -7.8 L-0.15 -7.85 -0.25 -7.8 -0.3 -7.9 -0.3 -7.95 -0.05 -7.95 0.0 -7.9 Q-0.05 -7.9 -0.1 -7.85 L0.05 -7.85 0.05 -7.8 M1.5 -6.65 L1.25 -6.55 1.25 -6.7 1.6 -6.7 Q1.55 -6.65 1.5 -6.65 M0.7 -6.6 L0.35 -6.6 0.0 -6.55 -0.35 -6.4 -0.4 -6.45 -0.4 -6.5 Q-0.4 -6.6 -0.2 -6.7 L0.1 -6.8 0.65 -6.7 Q0.7 -6.75 0.7 -6.65 L0.7 -6.6 M3.7 -7.3 L3.7 -7.15 3.5 -7.15 3.3 -7.2 3.15 -7.25 2.9 -7.15 2.65 -7.0 2.45 -7.0 3.05 -7.3 Q3.35 -7.5 3.7 -7.4 L3.7 -7.3 M-0.75 -14.2 L-0.65 -13.8 Q-0.6 -13.55 -0.5 -13.45 L-0.5 -12.85 Q-0.5 -12.8 -0.55 -12.8 -0.6 -12.8 -0.7 -12.9 -0.8 -13.1 -0.9 -13.1 -1.0 -13.1 -1.35 -12.7 L-1.5 -12.55 -1.7 -12.4 -1.7 -12.35 -1.85 -12.2 -1.9 -12.25 -1.9 -12.55 -1.75 -13.05 Q-1.6 -13.55 -1.3 -13.3 -1.2 -13.5 -1.1 -13.85 -1.05 -14.1 -1.0 -14.2 L-0.75 -14.2 M-1.0 -11.95 Q-1.0 -12.25 -0.8 -12.3 -0.55 -12.35 -0.55 -11.95 -0.55 -11.85 -0.6 -11.7 -0.7 -11.55 -0.8 -11.55 -0.95 -11.55 -1.0 -11.75 L-1.0 -11.95 M-1.3 -4.95 L-1.3 -5.05 -1.25 -5.0 Q-1.2 -5.0 -1.15 -4.95 L-1.2 -4.95 -1.3 -4.9 -1.3 -4.95" fill="#ffffff" fill-opacity="0.5019608" fill-rule="evenodd" stroke="none"/>
      <path d="M3.9 -14.05 L3.95 -13.45 Q4.05 -13.1 4.1 -13.0 L4.4 -13.1 Q4.5 -13.1 4.6 -12.9 4.65 -12.95 4.7 -12.8 L4.75 -12.55 4.75 -12.5 4.7 -12.4 4.7 -12.35 Q4.75 -12.3 4.65 -12.3 4.55 -12.3 4.5 -12.4 L4.5 -12.45 4.45 -12.55 4.35 -12.45 Q4.2 -12.35 3.95 -12.35 3.85 -12.35 3.8 -12.55 L3.75 -12.85 Q3.7 -13.6 3.45 -14.05 3.75 -14.7 3.9 -14.05 M2.65 -13.3 L2.45 -13.3 2.4 -13.45 2.35 -13.45 Q2.0 -13.8 1.95 -13.8 1.75 -13.8 1.45 -13.2 L1.4 -13.15 0.95 -12.75 Q0.8 -12.55 0.65 -12.55 0.5 -12.55 0.3 -12.85 0.2 -13.05 0.1 -13.3 -0.1 -13.25 -0.15 -13.05 L-0.2 -13.0 -0.25 -13.15 -0.15 -13.45 -0.05 -13.6 Q0.2 -13.6 0.35 -13.35 L0.5 -13.15 Q0.65 -13.15 0.8 -13.7 L0.95 -14.2 1.1 -14.5 1.45 -14.75 Q1.6 -14.85 1.75 -14.8 2.0 -14.65 2.0 -14.25 L2.25 -13.95 2.5 -13.75 Q2.7 -14.0 2.95 -14.0 3.3 -14.05 3.3 -13.35 L3.25 -13.3 Q3.25 -13.35 3.2 -13.55 3.15 -13.65 3.0 -13.65 2.9 -13.65 2.75 -13.5 L2.65 -13.3 M1.2 -11.75 L0.95 -11.7 Q0.85 -11.7 0.8 -11.8 0.8 -11.85 0.8 -11.95 0.8 -12.2 0.95 -12.2 L1.05 -12.25 Q1.4 -12.25 1.4 -12.0 1.4 -11.85 1.2 -11.75 M1.6 -12.0 Q1.6 -12.45 2.0 -12.45 2.35 -12.45 2.35 -12.0 2.35 -11.8 2.2 -11.6 2.05 -11.5 1.95 -11.5 1.6 -11.5 1.6 -12.0 M0.15 -10.9 L0.0 -10.9 -0.4 -10.3 -0.4 -10.4 Q-0.4 -10.85 -0.35 -11.05 -0.2 -11.4 0.15 -11.5 L0.4 -11.15 0.55 -10.9 Q0.75 -10.9 0.9 -11.0 L0.95 -10.95 1.0 -10.95 0.95 -10.85 0.75 -10.65 Q0.5 -10.65 0.35 -10.75 L0.15 -10.9 M1.55 -10.55 Q1.55 -10.8 1.65 -10.8 1.8 -10.8 1.8 -10.55 1.8 -10.25 1.65 -10.25 1.55 -10.25 1.55 -10.4 L1.55 -10.55 M3.5 -11.8 Q3.65 -11.7 3.75 -11.0 L3.75 -10.95 Q3.65 -10.95 3.6 -11.1 3.55 -11.3 3.45 -11.3 3.3 -11.3 3.05 -10.85 2.8 -10.45 2.7 -10.45 L2.45 -10.45 2.35 -10.6 Q2.25 -10.65 2.2 -10.75 L2.2 -10.8 2.25 -10.75 Q2.25 -10.7 2.3 -10.7 2.5 -10.7 2.75 -11.05 L3.2 -11.6 Q3.4 -11.9 3.5 -11.8 M3.15 -12.25 Q3.15 -12.5 3.3 -12.5 3.45 -12.5 3.45 -12.25 3.45 -12.0 3.3 -12.0 3.2 -12.0 3.15 -12.1 L3.15 -12.25 M2.65 -11.9 L2.6 -12.05 2.7 -12.1 2.8 -12.1 2.85 -12.05 Q2.75 -11.9 2.65 -11.9 M0.05 -7.8 L-0.15 -7.85 -0.25 -7.8 -0.3 -7.9 -0.3 -7.95 -0.05 -7.95 0.0 -7.9 Q-0.05 -7.9 -0.1 -7.85 L0.05 -7.85 0.05 -7.8 M1.5 -6.65 L1.25 -6.55 1.25 -6.7 1.6 -6.7 Q1.55 -6.65 1.5 -6.65 M0.7 -6.6 L0.35 -6.6 0.0 -6.55 -0.35 -6.4 -0.4 -6.45 -0.4 -6.5 Q-0.4 -6.6 -0.2 -6.7 L0.1 -6.8 0.65 -6.7 Q0.7 -6.75 0.7 -6.65 L0.7 -6.6 M3.7 -7.3 L3.7 -7.15 3.5 -7.15 3.3 -7.2 3.15 -7.25 2.9 -7.15 2.65 -7.0 2.45 -7.0 3.05 -7.3 Q3.35 -7.5 3.7 -7.4 L3.7 -7.3 M-0.75 -14.2 L-0.65 -13.8 Q-0.6 -13.55 -0.5 -13.45 L-0.5 -12.85 Q-0.5 -12.8 -0.55 -12.8 -0.6 -12.8 -0.7 -12.9 -0.8 -13.1 -0.9 -13.1 -1.0 -13.1 -1.35 -12.7 L-1.5 -12.55 -1.7 -12.4 -1.7 -12.35 -1.85 -12.2 -1.9 -12.25 -1.9 -12.55 -1.75 -13.05 Q-1.6 -13.55 -1.3 -13.3 -1.2 -13.5 -1.1 -13.85 -1.05 -14.1 -1.0 -14.2 L-0.75 -14.2 M-1.0 -11.95 Q-1.0 -12.25 -0.8 -12.3 -0.55 -12.35 -0.55 -11.95 -0.55 -11.85 -0.6 -11.7 -0.7 -11.55 -0.8 -11.55 -0.95 -11.55 -1.0 -11.75 L-1.0 -11.95 M-1.3 -4.95 L-1.3 -5.05 -1.25 -5.0 Q-1.2 -5.0 -1.15 -4.95 L-1.2 -4.95 -1.3 -4.9 -1.3 -4.95" fill="#ffffff" fill-opacity="0.5019608" fill-rule="evenodd" stroke="none"/>
    </g>
  </defs>
</svg>
