<?xml version="1.0" encoding="UTF-8" standalone="no"?>
<svg xmlns:ffdec="https://www.free-decompiler.com/flash" xmlns:xlink="http://www.w3.org/1999/xlink" ffdec:objectType="frame" height="124.4px" width="154.65px" xmlns="http://www.w3.org/2000/svg">
  <g transform="matrix(1.0, 0.0, 0.0, 1.0, 76.5, 114.4)">
    <use ffdec:characterId="393" height="1.0" transform="matrix(-3.3364, 0.0, -0.2372, 4.0086, 29.1305, 5.1974)" width="6.65" xlink:href="#shape0"/>
    <use ffdec:characterId="393" height="1.0" transform="matrix(-4.0086, 0.0, -0.2372, 4.0086, 31.347, 5.1974)" width="6.65" xlink:href="#shape0"/>
    <use ffdec:characterId="395" height="1.25" transform="matrix(-4.0086, 0.0, -0.2372, 4.0086, 24.5339, 1.7901)" width="3.95" xlink:href="#shape1"/>
    <use ffdec:characterId="394" height="1.25" transform="matrix(-4.0086, 0.0, -0.2372, 4.0086, 24.5339, 1.7901)" width="3.95" xlink:href="#shape2"/>
    <use ffdec:characterId="374" height="1.0" transform="matrix(4.906, 0.0, 0.0, 4.906, -21.1066, -13.8718)" width="11.05" xlink:href="#shape3"/>
    <use ffdec:characterId="387" height="5.95" transform="matrix(4.906, 0.0, 0.0, 4.906, -3.9355, -39.6284)" width="6.05" xlink:href="#shape4"/>
    <use ffdec:characterId="383" height="5.95" transform="matrix(4.906, 0.0, 0.0, 4.906, -3.9355, -39.6284)" width="6.05" xlink:href="#shape5"/>
    <use ffdec:characterId="380" height="1.0" transform="matrix(-4.0086, 0.0, -0.2372, 4.0086, -9.4436, -26.8026)" width="8.75" xlink:href="#shape6"/>
    <use ffdec:characterId="386" height="11.9" transform="matrix(-4.0086, 0.0, -0.2372, 4.0086, -16.9383, -72.9016)" width="6.2" xlink:href="#shape7"/>
    <use ffdec:characterId="382" height="11.9" transform="matrix(-4.0086, 0.0, -0.2372, 4.0086, -16.9383, -72.9016)" width="6.2" xlink:href="#shape8"/>
    <use ffdec:characterId="390" height="1.0" transform="matrix(-4.0086, 0.0, -0.2372, 4.0086, 61.1663, -26.8026)" width="11.05" xlink:href="#shape9"/>
    <use ffdec:characterId="387" height="5.95" transform="matrix(-4.0086, 0.0, -0.2372, 4.0086, 48.3813, -47.8478)" width="6.05" xlink:href="#shape4"/>
    <use ffdec:characterId="391" height="4.75" transform="matrix(-4.0086, 0.0, -0.2372, 4.0086, 47.3068, -43.2379)" width="5.95" xlink:href="#shape10"/>
    <use ffdec:characterId="380" height="1.0" transform="matrix(-4.9084, 0.0, 0.0, 4.9084, 72.5245, -10.8725)" width="8.75" xlink:href="#shape6"/>
    <use ffdec:characterId="386" height="11.9" transform="matrix(-4.9084, 0.0, 0.0, 4.9084, 60.008, -67.3193)" width="6.2" xlink:href="#shape7"/>
    <use ffdec:characterId="382" height="11.9" transform="matrix(-4.9084, 0.0, 0.0, 4.9084, 60.008, -67.3193)" width="6.2" xlink:href="#shape8"/>
  </g>
  <defs>
    <g id="shape0" transform="matrix(1.0, 0.0, 0.0, 1.0, 3.0, 0.3)">
      <path d="M3.65 -0.05 Q3.65 0.15 3.3 0.3 L2.7 0.45 Q1.7 0.7 0.35 0.7 -1.05 0.7 -2.05 0.45 -2.4 0.4 -2.6 0.3 -3.0 0.15 -3.0 -0.05 L-3.0 -0.1 -2.05 -0.25 0.35 -0.3 2.7 -0.25 3.65 -0.1 3.65 -0.05" fill="#ffffff" fill-opacity="0.5019608" fill-rule="evenodd" stroke="none"/>
    </g>
    <g id="shape1" transform="matrix(1.0, 0.0, 0.0, 1.0, 1.3, 1.15)">
      <path d="M0.55 -0.15 L0.45 -0.15 0.2 -0.2 0.25 -0.15 Q0.15 -0.15 0.0 -0.25 L-0.05 -0.2 -0.15 -0.2 -0.55 -0.15 -0.8 -0.2 -0.9 -0.2 -0.9 -0.15 -1.05 -0.15 -1.1 -0.1 -1.15 0.1 -1.15 -0.15 -1.3 -0.15 -1.1 -0.25 -1.0 -0.35 Q-0.85 -0.45 -0.75 -0.55 -0.7 -0.6 -0.55 -0.6 L-0.25 -0.65 Q-0.2 -0.7 -0.15 -0.75 L-0.05 -0.9 0.2 -1.05 Q0.6 -1.25 1.15 -1.1 L1.2 -1.1 1.45 -1.0 1.65 -0.9 1.8 -0.75 2.15 -0.45 Q2.45 -0.25 2.65 -0.2 L2.5 -0.15 2.3 -0.15 2.1 -0.2 1.95 -0.15 1.9 -0.15 1.8 -0.2 1.3 -0.15 0.65 -0.2 0.55 -0.15" fill="#ffffff" fill-opacity="0.5019608" fill-rule="evenodd" stroke="none"/>
    </g>
    <g id="shape2" transform="matrix(1.0, 0.0, 0.0, 1.0, 1.3, 1.15)">
      <path d="M0.55 -0.15 L0.45 -0.15 0.2 -0.2 0.25 -0.15 Q0.15 -0.15 0.0 -0.25 L-0.05 -0.2 -0.15 -0.2 -0.55 -0.15 -0.8 -0.2 -0.9 -0.2 -0.9 -0.15 -1.05 -0.15 -1.1 -0.1 -1.15 0.1 -1.15 -0.15 -1.3 -0.15 -1.1 -0.25 -1.0 -0.35 Q-0.85 -0.45 -0.75 -0.55 -0.7 -0.6 -0.55 -0.6 L-0.25 -0.65 Q-0.2 -0.7 -0.15 -0.75 L-0.05 -0.9 0.2 -1.05 Q0.6 -1.25 1.15 -1.1 L1.2 -1.1 1.45 -1.0 1.65 -0.9 1.8 -0.75 2.15 -0.45 Q2.45 -0.25 2.65 -0.2 L2.5 -0.15 2.3 -0.15 2.1 -0.2 1.95 -0.15 1.9 -0.15 1.8 -0.2 1.3 -0.15 0.65 -0.2 0.55 -0.15" fill="#ffffff" fill-opacity="0.5019608" fill-rule="evenodd" stroke="none"/>
    </g>
    <g id="shape3" transform="matrix(1.0, 0.0, 0.0, 1.0, 5.25, 0.3)">
      <path d="M5.8 -0.05 Q5.8 0.15 5.15 0.3 L4.2 0.45 3.75 0.55 0.3 0.7 -3.65 0.45 -4.6 0.3 Q-5.25 0.15 -5.25 -0.05 L-5.2 -0.1 -3.65 -0.25 0.3 -0.3 3.9 -0.25 4.2 -0.25 5.75 -0.1 5.8 -0.05" fill="#ffffff" fill-opacity="0.5019608" fill-rule="evenodd" stroke="none"/>
      <path d="M5.8 -0.05 Q5.8 0.15 5.15 0.3 L4.2 0.45 3.75 0.55 0.3 0.7 -3.65 0.45 -4.6 0.3 Q-5.25 0.15 -5.25 -0.05 L-5.2 -0.1 -3.65 -0.25 0.3 -0.3 3.9 -0.25 4.2 -0.25 5.75 -0.1 5.8 -0.05" fill="#ffffff" fill-opacity="0.5019608" fill-rule="evenodd" stroke="none"/>
    </g>
    <g id="shape4" transform="matrix(1.0, 0.0, 0.0, 1.0, 1.75, 5.55)">
      <path d="M0.85 -5.1 L1.05 -5.3 Q1.2 -5.4 1.45 -5.45 L1.7 -5.5 2.05 -5.5 Q2.7 -5.35 2.85 -4.9 3.05 -4.45 3.3 -4.3 L3.85 -4.25 4.0 -4.2 Q4.15 -4.1 4.2 -3.95 L4.2 -3.35 4.05 -3.05 4.0 -3.0 3.95 -3.0 3.9 -2.95 3.85 -2.95 3.85 -3.1 3.9 -3.25 3.8 -3.45 3.65 -3.5 3.2 -3.35 Q3.05 -3.15 2.9 -2.85 2.7 -2.3 2.4 -2.3 L2.35 -2.3 Q2.15 -1.9 2.15 -1.4 2.15 -1.2 2.25 -0.95 L2.25 -0.9 Q2.35 -0.45 2.5 -0.4 2.65 -0.45 2.75 -0.55 L2.8 -0.6 3.0 -1.0 Q3.1 -1.25 3.1 -1.45 L3.1 -1.5 3.15 -1.6 3.2 -1.6 3.25 -1.15 3.3 -0.95 3.35 -0.9 3.4 -0.75 Q3.5 -0.6 3.7 -0.5 3.9 -0.35 4.25 -0.25 L4.3 -0.25 4.3 -0.2 4.25 -0.2 4.2 -0.15 3.9 -0.25 Q3.85 -0.25 3.8 -0.3 L3.85 -0.25 3.8 -0.2 3.6 -0.2 3.3 -0.25 2.75 -0.15 2.7 -0.1 2.45 0.2 Q2.35 0.2 2.35 0.0 L2.35 -0.1 2.3 -0.15 2.25 -0.15 1.55 -0.2 1.2 -0.3 0.35 -0.2 Q0.25 -0.2 0.2 -0.3 0.15 -0.2 0.1 -0.2 L-0.1 -0.2 -0.25 -0.15 -0.25 -0.1 Q-0.35 0.2 -0.45 0.2 -0.6 0.2 -0.65 -0.1 L-0.7 -0.2 -0.95 -0.2 -0.95 -0.15 -1.0 -0.2 Q-1.1 -0.2 -1.2 -0.35 L-1.25 -0.2 -1.25 0.3 Q-1.3 0.5 -1.3 0.3 L-1.3 -0.1 -1.25 -0.2 -1.4 -0.15 -1.5 -0.2 -1.6 -0.15 -1.7 -0.15 -1.5 -0.5 -1.4 -0.9 -1.3 -1.0 -1.3 -1.05 -1.25 -1.05 -1.2 -1.4 -1.15 -1.4 -1.15 -1.35 -1.2 -1.3 -1.2 -1.15 -1.15 -1.0 -1.15 -1.05 -1.1 -1.05 -1.1 -0.75 Q-1.05 -0.3 -0.8 -0.3 L-0.75 -0.35 Q-0.75 -0.75 -0.45 -0.8 -0.1 -0.85 -0.1 -0.5 L-0.1 -0.45 0.0 -0.4 Q0.2 -0.4 0.3 -0.9 L0.3 -0.95 0.4 -1.4 0.35 -1.5 Q0.3 -1.5 0.25 -1.55 L0.15 -1.55 0.0 -1.45 -0.05 -1.4 Q-0.25 -1.25 -0.3 -1.25 -0.55 -1.25 -0.65 -1.3 L-0.7 -1.45 -0.7 -1.75 -0.75 -1.9 -0.85 -2.05 Q-1.05 -1.8 -1.05 -1.55 L-1.1 -1.55 -1.1 -1.6 -1.15 -1.45 -1.2 -1.4 Q-1.3 -1.8 -1.4 -2.05 L-1.75 -2.75 Q-1.75 -3.05 -1.55 -3.15 L-1.05 -3.3 Q-0.2 -3.4 0.15 -4.1 L0.6 -4.85 Q0.7 -5.0 0.85 -5.1 M1.3 -5.35 L1.3 -5.35 M2.35 -4.55 Q2.2 -4.55 2.2 -4.4 L2.2 -4.3 Q2.25 -4.25 2.4 -4.25 2.55 -4.25 2.6 -4.35 2.7 -4.5 2.75 -4.55 L2.35 -4.55 M4.05 -3.1 L4.05 -3.1 M0.7 -4.85 L0.7 -4.85 M0.5 -1.4 L0.5 -1.4 M0.05 -1.85 L0.1 -1.95 Q0.1 -2.15 -0.15 -2.15 -0.4 -2.15 -0.4 -2.0 L-0.35 -1.9 Q-0.25 -1.75 -0.1 -1.75 0.0 -1.75 0.05 -1.85 M3.2 -1.45 L3.2 -1.45 M3.2 -0.9 L3.2 -0.9 M3.1 -1.2 L3.1 -1.2 M-0.35 -2.3 Q-0.35 -2.35 -0.5 -2.35 -0.6 -2.35 -0.6 -2.25 L-0.6 -2.2 -0.5 -2.15 -0.4 -2.2 -0.35 -2.3 M-1.25 -0.65 L-1.25 -0.65" fill="#ffffff" fill-opacity="0.5019608" fill-rule="evenodd" stroke="none"/>
    </g>
    <g id="shape5" transform="matrix(1.0, 0.0, 0.0, 1.0, 1.75, 5.55)">
      <path d="M0.9 -5.15 L1.05 -5.3 Q1.2 -5.4 1.45 -5.45 L1.7 -5.5 2.05 -5.5 Q2.7 -5.35 2.85 -4.9 3.05 -4.45 3.3 -4.3 L3.85 -4.25 4.0 -4.2 Q4.15 -4.1 4.2 -3.95 L4.2 -3.35 4.05 -3.05 4.0 -3.0 3.95 -3.0 3.9 -2.95 3.85 -2.95 3.85 -3.1 3.9 -3.25 3.8 -3.45 3.65 -3.5 3.2 -3.35 Q3.05 -3.15 2.9 -2.85 2.7 -2.3 2.4 -2.3 L2.35 -2.3 Q2.15 -1.9 2.15 -1.4 2.15 -1.2 2.25 -0.95 L2.25 -0.9 Q2.35 -0.45 2.5 -0.4 2.65 -0.45 2.75 -0.55 L2.8 -0.6 3.0 -1.0 Q3.1 -1.25 3.1 -1.45 L3.1 -1.5 3.15 -1.6 3.2 -1.6 3.25 -1.15 3.3 -0.95 3.35 -0.9 3.4 -0.75 Q3.5 -0.6 3.7 -0.5 3.9 -0.35 4.25 -0.25 L4.3 -0.25 4.3 -0.2 4.25 -0.2 4.2 -0.15 3.9 -0.25 Q3.85 -0.25 3.8 -0.3 L3.85 -0.25 3.8 -0.2 3.6 -0.2 3.3 -0.25 2.75 -0.15 2.7 -0.1 2.45 0.2 Q2.35 0.2 2.35 0.0 L2.35 -0.1 2.3 -0.15 2.25 -0.15 1.55 -0.2 1.2 -0.3 0.35 -0.2 Q0.25 -0.2 0.2 -0.3 0.15 -0.2 0.1 -0.2 L-0.1 -0.2 -0.25 -0.15 -0.25 -0.1 Q-0.35 0.2 -0.45 0.2 -0.6 0.2 -0.65 -0.1 L-0.7 -0.2 -0.95 -0.2 -0.95 -0.15 -1.0 -0.2 Q-1.1 -0.2 -1.2 -0.35 L-1.25 -0.2 -1.25 0.3 Q-1.3 0.5 -1.3 0.3 L-1.3 -0.1 -1.25 -0.2 -1.4 -0.15 -1.5 -0.2 -1.6 -0.15 -1.7 -0.15 -1.5 -0.5 -1.4 -0.9 -1.3 -1.0 -1.3 -1.05 -1.25 -1.05 -1.2 -1.4 -1.15 -1.4 -1.15 -1.35 -1.2 -1.3 -1.2 -1.15 -1.15 -1.0 -1.15 -1.05 -1.1 -1.05 -1.1 -0.75 Q-1.05 -0.3 -0.8 -0.3 L-0.75 -0.35 Q-0.75 -0.75 -0.45 -0.8 -0.1 -0.85 -0.1 -0.5 L-0.1 -0.45 0.0 -0.4 Q0.2 -0.4 0.3 -0.9 L0.3 -0.95 0.4 -1.4 0.35 -1.5 Q0.3 -1.5 0.25 -1.55 L0.15 -1.55 0.0 -1.45 -0.05 -1.4 Q-0.25 -1.25 -0.3 -1.25 -0.55 -1.25 -0.65 -1.3 L-0.7 -1.45 -0.7 -1.75 -0.75 -1.9 -0.85 -2.05 Q-1.05 -1.8 -1.05 -1.55 L-1.1 -1.55 -1.1 -1.6 -1.15 -1.45 -1.2 -1.4 Q-1.3 -1.8 -1.4 -2.05 L-1.75 -2.75 Q-1.75 -3.05 -1.55 -3.15 L-1.05 -3.3 Q-0.2 -3.4 0.15 -4.1 L0.6 -4.85 Q0.7 -5.0 0.85 -5.1 L0.9 -5.15 M1.3 -5.35 L1.3 -5.35 M2.35 -4.55 Q2.2 -4.55 2.2 -4.4 L2.2 -4.3 Q2.25 -4.25 2.4 -4.25 2.55 -4.25 2.6 -4.35 2.7 -4.5 2.75 -4.55 L2.35 -4.55 M4.05 -3.1 L4.05 -3.1 M0.7 -4.85 L0.7 -4.85 M0.5 -1.4 L0.5 -1.4 M0.05 -1.85 L0.1 -1.95 Q0.1 -2.15 -0.15 -2.15 -0.4 -2.15 -0.4 -2.0 L-0.35 -1.9 Q-0.25 -1.75 -0.1 -1.75 0.0 -1.75 0.05 -1.85 M3.2 -1.45 L3.2 -1.45 M3.2 -0.9 L3.2 -0.9 M3.1 -1.2 L3.1 -1.2 M-0.35 -2.3 Q-0.35 -2.35 -0.5 -2.35 -0.6 -2.35 -0.6 -2.25 L-0.6 -2.2 -0.5 -2.15 -0.4 -2.2 -0.35 -2.3 M-1.25 -0.65 L-1.25 -0.65" fill="#ffffff" fill-opacity="0.5019608" fill-rule="evenodd" stroke="none"/>
    </g>
    <g id="shape6" transform="matrix(1.0, 0.0, 0.0, 1.0, 4.1, 0.3)">
      <path d="M4.65 -0.05 Q4.65 0.15 4.15 0.3 L3.75 0.4 3.35 0.45 0.3 0.7 -2.8 0.45 -3.55 0.3 Q-4.1 0.15 -4.1 -0.05 L-4.05 -0.1 -2.8 -0.25 0.3 -0.3 3.35 -0.25 3.75 -0.2 4.6 -0.1 4.65 -0.05" fill="#ffffff" fill-opacity="0.5019608" fill-rule="evenodd" stroke="none"/>
      <path d="M3.6 -0.05 Q3.6 0.15 3.25 0.3 3.0 0.4 2.65 0.45 1.65 0.7 0.3 0.7 -1.1 0.7 -2.1 0.45 L-2.7 0.3 Q-3.05 0.15 -3.05 -0.05 L-3.05 -0.1 -2.1 -0.25 0.3 -0.3 2.65 -0.25 3.6 -0.1 3.6 -0.05" fill="#ffffff" fill-opacity="0.5019608" fill-rule="evenodd" stroke="none"/>
    </g>
    <g id="shape7" transform="matrix(1.0, 0.0, 0.0, 1.0, 1.55, 11.8)">
      <path d="M1.7 -11.8 Q2.1 -11.8 2.4 -11.5 2.6 -11.25 2.7 -11.0 L2.65 -11.05 2.7 -11.05 2.8 -10.75 2.8 -10.7 2.9 -10.15 3.0 -9.7 Q3.1 -9.5 3.35 -9.5 L3.6 -9.6 Q3.75 -9.7 4.0 -9.7 4.3 -9.7 4.45 -9.4 L4.55 -9.3 4.65 -9.1 4.65 -8.95 4.6 -8.8 4.6 -8.7 Q4.6 -8.6 4.45 -8.5 4.25 -8.4 4.25 -8.3 4.25 -8.15 4.45 -8.05 4.65 -8.0 4.65 -7.85 L4.55 -7.3 Q4.55 -7.2 4.45 -7.15 4.35 -7.2 4.3 -7.3 L4.25 -7.45 4.05 -7.6 3.85 -7.8 3.7 -8.1 Q3.55 -8.4 3.2 -8.4 2.75 -8.4 2.4 -7.95 L2.15 -7.45 2.05 -7.2 Q2.0 -7.0 2.0 -6.9 2.0 -6.75 2.1 -6.7 L2.6 -6.65 Q2.85 -6.65 2.85 -6.3 2.85 -6.0 2.5 -5.9 2.1 -5.75 1.9 -5.35 1.85 -5.2 1.8 -5.0 L1.85 -5.0 1.9 -4.95 1.75 -4.35 Q1.6 -3.8 1.6 -3.65 L1.45 -3.65 Q1.35 -3.8 1.35 -4.1 1.35 -4.4 1.3 -4.55 L1.0 -5.0 Q0.8 -5.25 0.8 -5.4 0.8 -5.65 1.0 -5.85 L1.2 -6.05 1.2 -6.1 1.15 -6.25 1.05 -6.35 0.95 -6.5 0.6 -6.9 0.6 -6.85 0.25 -6.85 Q-0.05 -6.85 -0.15 -7.05 -0.2 -7.1 -0.2 -7.3 -0.2 -7.5 0.0 -7.65 0.1 -7.7 0.1 -7.9 L-0.15 -8.2 -0.4 -8.35 Q-0.7 -8.35 -0.9 -8.05 L-0.95 -7.9 -1.0 -7.8 -1.0 -7.7 -0.9 -7.5 -0.85 -7.25 -0.85 -7.2 -0.9 -7.2 Q-0.95 -7.35 -1.3 -7.65 L-1.55 -7.95 -1.55 -8.05 Q-1.55 -8.15 -1.4 -8.3 L-1.25 -8.5 -1.15 -8.7 -1.05 -8.75 -1.05 -8.8 Q-0.95 -8.9 -0.7 -8.9 -0.45 -8.9 -0.3 -8.8 L-0.1 -8.7 Q0.2 -8.7 0.35 -9.1 L0.45 -9.5 Q0.35 -9.9 0.35 -10.0 0.35 -10.45 0.6 -10.9 L0.8 -11.2 1.0 -11.55 Q1.3 -11.8 1.7 -11.8 M4.0 -9.45 L4.0 -9.45 M0.35 -8.75 Q0.5 -8.9 0.55 -9.15 L0.4 -8.9 0.35 -8.75 M3.5 -4.2 L3.3 -4.2 Q3.25 -4.25 3.25 -4.3 L3.35 -4.35 3.7 -4.35 3.9 -4.3 4.15 -4.3 Q4.4 -4.3 4.6 -4.15 L4.6 -4.0 4.5 -4.0 4.05 -4.15 3.95 -4.1 3.6 -4.1 3.5 -4.2 M2.15 -3.35 L2.15 -3.45 Q2.15 -3.6 2.5 -3.55 2.85 -3.5 2.85 -3.35 2.85 -3.25 2.65 -3.25 L2.45 -3.3 2.15 -3.35 M0.25 -4.25 L0.2 -4.3 -0.05 -4.3 -0.2 -4.25 -0.7 -4.25 -0.8 -4.3 -0.95 -4.35 -1.0 -4.35 -1.1 -4.3 -1.25 -4.2 -1.3 -4.15 -1.45 -4.15 -1.5 -4.25 Q-1.5 -4.6 -1.15 -4.55 L-0.65 -4.4 -0.4 -4.45 -0.25 -4.5 Q0.05 -4.5 0.2 -4.4 L0.3 -4.35 0.3 -4.25 0.25 -4.25 M1.45 -3.0 Q1.7 -3.05 1.7 -2.9 L1.65 -2.75 Q1.6 -2.65 1.4 -2.65 1.25 -2.65 1.25 -2.75 L1.2 -2.8 Q1.2 -2.95 1.45 -3.0 M1.45 -2.05 L1.45 -1.9 1.6 -1.55 Q1.6 -1.45 1.5 -1.4 1.4 -1.3 1.2 -1.3 1.1 -1.3 1.05 -1.35 L1.05 -1.45 Q1.05 -1.6 1.2 -1.75 L1.4 -2.05 1.45 -2.05 M1.75 -0.25 Q1.7 -0.3 1.7 -0.45 1.7 -0.75 1.85 -0.85 2.05 -0.65 2.2 -0.2 2.2 -0.15 2.1 -0.15 2.05 -0.15 1.95 -0.2 L1.75 -0.25 M-1.15 -7.9 L-1.2 -7.9 -1.15 -7.85 -1.15 -7.9 M-0.4 -8.5 L-0.45 -8.55 -0.5 -8.5 -0.4 -8.5 M-0.9 -8.25 L-0.85 -8.3 -0.9 -8.3 -0.9 -8.25 M-1.0 -0.15 L-1.0 -0.1 Q-1.05 0.0 -1.1 0.05 L-1.4 0.05 Q-1.4 0.15 -1.4 -0.1 L-1.4 -0.15 Q-1.3 -0.5 -1.1 -0.55 L-1.1 -0.4 -1.0 -0.15" fill="#ffffff" fill-opacity="0.5019608" fill-rule="evenodd" stroke="none"/>
    </g>
    <g id="shape8" transform="matrix(1.0, 0.0, 0.0, 1.0, 1.55, 11.8)">
      <path d="M1.7 -11.8 Q2.1 -11.8 2.4 -11.5 2.6 -11.25 2.7 -11.0 L2.65 -11.05 2.7 -11.05 2.8 -10.75 2.8 -10.7 2.9 -10.15 3.0 -9.7 Q3.1 -9.5 3.35 -9.5 L3.6 -9.6 Q3.75 -9.7 4.0 -9.7 4.3 -9.7 4.45 -9.4 L4.55 -9.3 4.65 -9.1 4.65 -8.95 4.6 -8.8 4.6 -8.7 Q4.6 -8.6 4.45 -8.5 4.25 -8.4 4.25 -8.3 4.25 -8.15 4.45 -8.05 4.65 -8.0 4.65 -7.85 L4.55 -7.3 Q4.55 -7.2 4.45 -7.15 4.35 -7.2 4.3 -7.3 L4.25 -7.45 4.05 -7.6 3.85 -7.8 3.7 -8.1 Q3.55 -8.4 3.2 -8.4 2.75 -8.4 2.4 -7.95 L2.15 -7.45 2.05 -7.2 Q2.0 -7.0 2.0 -6.9 2.0 -6.75 2.1 -6.7 L2.6 -6.65 Q2.85 -6.65 2.85 -6.3 2.85 -6.0 2.5 -5.9 2.1 -5.75 1.9 -5.35 1.85 -5.2 1.8 -5.0 L1.85 -5.0 1.9 -4.95 1.75 -4.35 Q1.6 -3.8 1.6 -3.65 L1.45 -3.65 Q1.35 -3.8 1.35 -4.1 1.35 -4.4 1.3 -4.55 L1.0 -5.0 Q0.8 -5.25 0.8 -5.4 0.8 -5.65 1.0 -5.85 L1.2 -6.05 1.2 -6.1 1.15 -6.25 1.05 -6.35 0.95 -6.5 0.6 -6.9 0.6 -6.85 0.25 -6.85 Q-0.05 -6.85 -0.15 -7.05 -0.2 -7.1 -0.2 -7.3 -0.2 -7.5 0.0 -7.65 0.1 -7.7 0.1 -7.9 L-0.15 -8.2 -0.4 -8.35 Q-0.7 -8.35 -0.9 -8.05 L-0.95 -7.9 -1.0 -7.8 -1.0 -7.7 -0.9 -7.5 -0.85 -7.25 -0.85 -7.2 -0.9 -7.2 Q-0.95 -7.35 -1.3 -7.65 L-1.55 -7.95 -1.55 -8.05 Q-1.55 -8.15 -1.4 -8.3 L-1.25 -8.5 -1.15 -8.7 -1.05 -8.75 -1.05 -8.8 Q-0.95 -8.9 -0.7 -8.9 -0.45 -8.9 -0.3 -8.8 L-0.1 -8.7 Q0.2 -8.7 0.35 -9.1 L0.45 -9.5 Q0.35 -9.9 0.35 -10.0 0.35 -10.45 0.6 -10.9 L0.8 -11.2 1.0 -11.55 Q1.3 -11.8 1.7 -11.8 M3.9 -9.45 L3.9 -9.45 M0.35 -8.75 Q0.5 -8.9 0.55 -9.15 L0.4 -8.9 0.35 -8.75 M3.5 -4.2 L3.3 -4.2 Q3.25 -4.25 3.25 -4.3 L3.35 -4.35 3.7 -4.35 3.9 -4.3 4.15 -4.3 Q4.4 -4.3 4.6 -4.15 L4.6 -4.0 4.5 -4.0 4.05 -4.15 3.95 -4.1 3.6 -4.1 3.5 -4.2 M2.15 -3.35 L2.15 -3.45 Q2.15 -3.6 2.5 -3.55 2.85 -3.5 2.85 -3.35 2.85 -3.25 2.65 -3.25 L2.45 -3.3 2.15 -3.35 M0.25 -4.25 L0.2 -4.3 -0.05 -4.3 -0.2 -4.25 -0.7 -4.25 -0.8 -4.3 -0.95 -4.35 -1.0 -4.35 -1.1 -4.3 -1.25 -4.2 -1.3 -4.15 -1.45 -4.15 -1.5 -4.25 Q-1.5 -4.6 -1.15 -4.55 L-0.65 -4.4 -0.4 -4.45 -0.25 -4.5 Q0.05 -4.5 0.2 -4.4 L0.3 -4.35 0.3 -4.25 0.25 -4.25 M1.45 -3.0 Q1.7 -3.05 1.7 -2.9 L1.65 -2.75 Q1.6 -2.65 1.4 -2.65 1.25 -2.65 1.25 -2.75 L1.2 -2.8 Q1.2 -2.95 1.45 -3.0 M1.45 -2.05 L1.45 -1.9 1.6 -1.55 Q1.6 -1.45 1.5 -1.4 1.4 -1.3 1.2 -1.3 1.1 -1.3 1.05 -1.35 L1.05 -1.45 Q1.05 -1.6 1.2 -1.75 L1.4 -2.05 1.45 -2.05 M1.75 -0.25 Q1.7 -0.3 1.7 -0.45 1.7 -0.75 1.85 -0.85 2.05 -0.65 2.2 -0.2 2.2 -0.15 2.1 -0.15 2.05 -0.15 1.95 -0.2 L1.75 -0.25 M-1.15 -7.85 L-1.15 -7.9 -1.2 -7.9 -1.15 -7.85 M-0.4 -8.5 L-0.45 -8.55 -0.5 -8.5 -0.4 -8.5 M-0.9 -8.25 L-0.85 -8.3 -0.9 -8.3 -0.9 -8.25 M-1.0 -0.15 L-1.0 -0.1 Q-1.05 0.0 -1.1 0.05 L-1.4 0.05 Q-1.4 0.15 -1.4 -0.1 L-1.4 -0.15 Q-1.3 -0.5 -1.1 -0.55 L-1.1 -0.4 -1.0 -0.15" fill="#ffffff" fill-opacity="0.5019608" fill-rule="evenodd" stroke="none"/>
    </g>
    <g id="shape9" transform="matrix(1.0, 0.0, 0.0, 1.0, 5.25, 0.3)">
      <path d="M5.8 -0.05 Q5.8 0.15 5.15 0.3 L4.2 0.45 3.75 0.55 0.3 0.7 -3.65 0.45 -4.6 0.3 Q-5.25 0.15 -5.25 -0.05 L-5.2 -0.1 -3.65 -0.25 0.3 -0.3 3.9 -0.25 4.2 -0.25 5.75 -0.1 5.8 -0.05" fill="#ffffff" fill-opacity="0.5019608" fill-rule="evenodd" stroke="none"/>
      <path d="M4.65 -0.05 Q4.65 0.15 4.15 0.3 L3.75 0.4 3.35 0.45 0.3 0.7 -2.8 0.45 -3.55 0.3 Q-4.1 0.15 -4.1 -0.05 L-4.05 -0.1 -2.8 -0.25 0.3 -0.3 3.35 -0.25 3.75 -0.2 4.6 -0.1 4.65 -0.05" fill="#ffffff" fill-opacity="0.5019608" fill-rule="evenodd" stroke="none"/>
    </g>
    <g id="shape10" transform="matrix(1.0, 0.0, 0.0, 1.0, 1.55, 4.4)">
      <path d="M3.25 -4.05 L3.3 -4.2 Q3.3 -4.4 3.5 -4.4 L3.65 -4.4 3.65 -4.35 3.7 -4.2 4.05 -3.95 4.15 -3.95 Q4.4 -3.95 4.4 -3.8 L4.35 -3.7 4.15 -3.65 3.85 -3.65 Q3.7 -3.7 3.6 -3.8 L3.5 -3.95 3.45 -3.95 Q3.3 -3.95 3.3 -4.0 L3.25 -4.05 M3.9 -3.85 L3.8 -3.85 3.9 -3.8 3.9 -3.85 M0.05 -3.9 Q-0.05 -3.8 -0.15 -3.8 L-0.5 -3.8 -0.95 -3.7 -1.0 -3.7 Q-1.05 -3.65 -1.15 -3.65 L-1.35 -3.65 -1.35 -3.8 Q-1.35 -3.9 -1.2 -3.9 L-1.05 -3.9 Q-0.9 -4.1 -0.65 -4.2 L-0.25 -4.25 Q0.2 -4.3 0.2 -4.05 0.2 -3.95 0.05 -3.9 M1.15 -0.1 L1.15 -0.1 M-1.35 -0.55 L-1.15 -0.85 -0.9 -0.25 -0.95 -0.1 Q-1.05 -0.1 -1.1 -0.2 L-1.2 -0.3 -1.4 -0.1 -1.5 0.3 -1.5 0.35 -1.55 0.3 -1.55 -0.1 -1.35 -0.55" fill="#ffffff" fill-opacity="0.5019608" fill-rule="evenodd" stroke="none"/>
    </g>
  </defs>
</svg>
