<?xml version="1.0" encoding="UTF-8" standalone="no"?>
<svg xmlns:ffdec="https://www.free-decompiler.com/flash" xmlns:xlink="http://www.w3.org/1999/xlink" ffdec:objectType="frame" height="128.45px" width="160.65px" xmlns="http://www.w3.org/2000/svg">
  <g transform="matrix(1.0, 0.0, 0.0, 1.0, 85.75, 105.0)">
    <use ffdec:characterId="168" height="18.35" transform="matrix(7.0, 0.0, 0.0, 7.0, -85.75, -105.0)" width="22.95" xlink:href="#shape0"/>
  </g>
  <defs>
    <g id="shape0" transform="matrix(1.0, 0.0, 0.0, 1.0, 12.25, 15.0)">
      <path d="M9.2 -7.75 Q9.0 -8.35 8.8 -8.7 8.25 -9.75 7.7 -10.35 L7.4 -10.65 6.75 -11.4 Q6.2 -11.85 5.55 -12.25 3.6 -13.4 0.9 -13.8 -0.65 -13.9 -2.6 -13.3 -3.45 -13.0 -3.95 -12.7 -5.85 -12.15 -6.95 -10.8 -7.6 -10.05 -7.95 -9.15 -8.35 -8.3 -8.35 -7.3 L-8.3 -7.2 -8.35 -6.95 -8.2 -6.4 -8.2 -6.1 -8.1 -5.7 -8.1 -5.6 -8.05 -5.35 -7.9 -4.65 -7.75 -4.55 -7.2 -4.05 -6.75 -3.65 -6.6 -3.5 -6.4 -3.3 -6.05 -2.8 Q-5.75 -2.3 -5.45 -1.7 L-5.15 -1.15 -5.2 -1.15 -5.85 -1.95 Q-6.5 -2.7 -7.1 -3.2 -9.05 -4.95 -11.15 -4.95 L-11.25 -4.95 -10.8 -4.65 Q-9.25 -3.8 -8.45 -3.25 -7.1 -2.3 -6.45 -1.7 L-6.2 -1.45 Q-5.55 -0.7 -5.55 -0.1 -5.55 0.05 -5.6 0.2 L-5.7 0.4 -5.75 0.35 -6.05 -0.15 -6.6 -0.8 -6.6 -0.85 Q-7.3 -0.9 -7.75 -1.55 -8.0 -1.9 -8.1 -2.3 L-8.1 -2.4 -8.15 -2.5 -8.2 -2.55 -9.3 -3.45 -9.4 -3.5 -9.7 -3.7 -9.7 -3.65 Q-9.7 -3.55 -9.8 -3.15 L-9.9 -2.75 -9.75 -2.35 -9.6 -2.05 -8.5 -1.5 -6.75 -0.65 -7.7 -0.7 Q-8.8 -0.9 -9.55 -1.6 -9.8 -1.9 -10.0 -2.15 -10.3 -2.7 -10.3 -3.25 -10.3 -3.35 -10.55 -3.75 L-10.65 -3.95 Q-11.1 -4.0 -11.4 -4.15 -11.35 -3.65 -11.05 -2.95 L-10.8 -2.45 Q-10.45 -1.8 -9.9 -1.25 -8.4 0.5 -6.35 0.85 L-5.8 0.95 -5.75 0.95 -5.45 0.95 Q-5.5 1.15 -5.55 1.25 L-5.6 1.35 Q-5.6 1.45 -5.75 1.55 L-5.75 1.65 -5.85 1.75 -6.55 1.8 -7.55 1.55 -7.8 1.45 Q-8.7 1.0 -9.65 0.0 -10.2 -0.6 -10.65 -1.3 -11.0 -1.85 -11.0 -1.95 -12.25 -5.45 -12.25 -5.3 -12.25 -6.4 -9.95 -5.55 L-9.4 -5.35 -9.45 -5.6 Q-9.6 -6.4 -9.65 -7.25 -9.65 -12.65 -1.65 -14.7 0.6 -15.3 3.0 -14.65 4.2 -14.35 5.1 -13.85 5.95 -13.4 6.55 -12.8 7.25 -12.5 8.75 -10.75 10.2 -8.95 10.2 -8.35 10.65 -7.6 10.65 -7.0 L10.65 -6.95 10.7 -6.65 10.65 -6.35 10.6 -6.2 Q10.55 -5.8 10.4 -5.65 L10.3 -5.6 10.2 -5.6 9.7 -6.1 Q9.65 -6.5 9.5 -6.9 L9.5 -7.0 Q9.5 -7.35 9.2 -7.75 M-5.85 1.75 L-5.85 1.65 -5.9 1.65 -5.85 1.75" fill="#111111" fill-rule="evenodd" stroke="none"/>
      <path d="M-8.1 -5.6 L-8.1 -5.7 -8.2 -6.1 -8.2 -6.4 -8.35 -6.95 -8.3 -7.2 -8.35 -7.3 Q-8.35 -8.3 -7.95 -9.15 -7.6 -10.05 -6.95 -10.8 -5.85 -12.15 -3.95 -12.7 -3.45 -13.0 -2.6 -13.3 -0.65 -13.9 0.9 -13.8 3.6 -13.4 5.55 -12.25 6.2 -11.85 6.75 -11.4 L7.4 -10.65 7.7 -10.35 Q8.25 -9.75 8.8 -8.7 9.0 -8.35 9.2 -7.75 9.0 -8.0 8.65 -8.25 8.25 -8.5 7.8 -8.7 6.45 -9.5 4.2 -9.3 3.4 -9.2 2.6 -9.0 L2.55 -9.0 Q1.5 -8.45 0.8 -8.15 L-0.8 -7.3 Q-2.8 -6.2 -4.05 -5.3 L-4.1 -5.25 Q-5.05 -4.35 -5.05 -3.4 L-4.85 -2.1 -4.85 -2.0 -4.7 -1.6 Q-4.55 -1.15 -4.55 -0.7 -4.55 -0.5 -4.55 -0.55 L-4.65 -0.55 Q-4.75 -1.0 -5.05 -1.6 L-5.35 -2.15 Q-6.1 -3.45 -7.1 -4.6 -7.65 -5.2 -8.1 -5.6 M-5.85 1.75 L-5.9 1.65 -5.85 1.65 -5.85 1.75 M-5.75 0.95 L-5.8 0.95 -6.35 0.85 Q-8.4 0.5 -9.9 -1.25 -10.45 -1.8 -10.8 -2.45 -10.35 -2.3 -10.0 -2.15 -9.8 -1.9 -9.55 -1.6 -8.8 -0.9 -7.7 -0.7 -6.6 -0.05 -6.1 -0.05 L-6.0 -0.05 -6.05 -0.15 -5.75 0.35 -5.7 0.4 -5.6 0.2 Q-5.55 0.05 -5.55 -0.1 -5.55 -0.7 -6.2 -1.45 L-6.45 -1.7 Q-7.1 -2.3 -8.45 -3.25 -9.25 -3.8 -10.8 -4.65 L-11.25 -4.95 -11.15 -4.95 Q-9.05 -4.95 -7.1 -3.2 -6.5 -2.7 -5.85 -1.95 L-5.2 -1.15 -5.15 -1.15 -5.45 -1.7 -5.3 -1.5 -5.2 -1.3 -5.15 -1.3 -5.1 -1.0 -5.05 -0.95 -4.95 -0.6 -4.95 -0.2 -5.1 0.3 -5.25 0.75 -5.45 0.9 -5.35 0.9 -5.75 0.95 M-9.7 -3.7 L-9.4 -3.5 -9.7 -3.7 M-6.6 -3.5 L-6.75 -3.65 -6.75 -3.8 -6.6 -3.5 M-5.7 2.05 L-5.75 1.95 -5.7 1.95 -5.75 1.85 -5.75 1.8 -5.7 1.75 -5.65 1.8 -5.7 1.95 -5.7 2.05" fill="#c7a36d" fill-rule="evenodd" stroke="none"/>
      <path d="M-8.1 -5.6 Q-7.65 -5.2 -7.1 -4.6 -6.1 -3.45 -5.35 -2.15 L-5.05 -1.6 Q-4.75 -1.0 -4.65 -0.55 L-4.8 -0.5 -5.05 -0.95 -5.1 -1.0 -5.15 -1.3 -5.2 -1.3 -5.3 -1.5 -5.45 -1.7 Q-5.75 -2.3 -6.05 -2.8 L-6.4 -3.3 -6.6 -3.5 -6.75 -3.8 -6.75 -3.65 -7.2 -4.05 -7.75 -4.55 -7.9 -4.65 -8.05 -5.35 -8.1 -5.6 M-10.8 -2.45 L-11.05 -2.95 Q-11.35 -3.65 -11.4 -4.15 -11.1 -4.0 -10.65 -3.95 L-10.55 -3.75 Q-10.3 -3.35 -10.3 -3.25 -10.3 -2.7 -10.0 -2.15 -10.35 -2.3 -10.8 -2.45 M-7.7 -0.7 L-6.75 -0.65 -8.5 -1.5 -9.6 -2.05 -9.75 -2.35 -9.9 -2.75 -9.8 -3.15 Q-9.7 -3.55 -9.7 -3.65 L-9.7 -3.7 -9.4 -3.5 -9.3 -3.45 -8.2 -2.55 -8.15 -2.5 -8.1 -2.4 -8.1 -2.3 Q-8.0 -1.9 -7.75 -1.55 -7.3 -0.9 -6.6 -0.85 L-6.6 -0.8 -6.05 -0.15 -6.0 -0.05 -6.1 -0.05 Q-6.6 -0.05 -7.7 -0.7 M-6.4 3.35 L-6.4 3.35" fill="#a9854f" fill-rule="evenodd" stroke="none"/>
    </g>
  </defs>
</svg>
