<?xml version="1.0" encoding="UTF-8" standalone="no"?>
<svg xmlns:ffdec="https://www.free-decompiler.com/flash" xmlns:xlink="http://www.w3.org/1999/xlink" ffdec:objectType="frame" height="104.3px" width="105.7px" xmlns="http://www.w3.org/2000/svg">
  <g transform="matrix(1.0, 0.0, 0.0, 1.0, 46.9, 48.3)">
    <use ffdec:characterId="1001" height="14.9" transform="matrix(7.0, 0.0, 0.0, 7.0, -46.9, -48.3)" width="15.1" xlink:href="#shape0"/>
  </g>
  <defs>
    <g id="shape0" transform="matrix(1.0, 0.0, 0.0, 1.0, 6.7, 6.9)">
      <path d="M3.35 -6.7 Q3.85 -6.55 4.3 -5.95 5.2 -5.5 6.0 -4.55 7.3 -3.1 7.3 -1.75 7.3 -1.15 7.05 -0.35 6.9 0.15 6.65 0.5 L6.65 0.55 7.3 0.55 Q8.4 0.95 8.4 3.85 L8.4 4.8 Q8.35 5.65 8.15 6.3 L7.9 6.9 7.9 7.05 Q7.9 7.45 7.25 7.75 L7.15 7.8 7.1 7.8 Q6.55 8.0 6.3 8.0 4.45 8.0 1.95 7.35 1.25 7.15 0.6 7.05 L-1.65 7.2 -1.75 7.2 Q-2.5 7.55 -3.35 7.55 -5.25 7.55 -6.0 7.0 -6.3 6.8 -6.4 6.55 L-6.6 6.25 Q-6.7 5.95 -6.7 5.55 L-6.65 5.1 Q-6.65 4.5 -6.45 3.8 -6.2 2.6 -5.4 1.1 L-5.3 0.7 Q-4.9 -1.15 -4.25 -2.35 -2.6 -5.4 1.45 -6.55 1.85 -6.7 2.2 -6.75 L2.9 -6.9 2.95 -6.8 3.35 -6.7 M5.65 -2.15 L5.55 -2.5 Q5.05 -4.1 3.8 -5.4 L3.45 -5.5 Q2.95 -6.0 2.65 -5.95 L2.6 -6.05 1.85 -5.7 Q-0.55 -4.55 -2.4 -2.5 L-2.45 -2.45 -2.2 -2.6 Q-1.7 -2.85 -1.5 -2.85 L-1.45 -2.85 Q-0.3 -3.5 0.85 -3.2 1.5 -3.0 1.95 -2.55 2.1 -2.7 2.25 -2.8 L2.3 -2.75 2.3 -2.8 Q2.65 -3.0 2.95 -3.0 3.7 -3.0 4.6 -2.1 L4.55 -2.2 5.2 -1.45 Q5.6 -0.85 5.85 -0.6 L5.8 -1.4 5.65 -2.15 M3.7 1.65 Q4.35 1.4 5.0 1.25 5.1 1.2 5.25 1.1 L5.05 0.9 Q4.8 0.5 4.2 -0.6 L2.9 -1.85 2.8 -1.15 2.85 -1.05 Q2.85 -0.35 3.1 1.05 L3.2 1.75 3.7 1.65 M-0.25 3.0 L-0.2 2.95 1.35 2.35 Q1.8 2.15 2.25 2.0 2.0 1.35 1.95 0.85 L2.0 0.35 Q1.75 0.0 1.35 -0.85 0.7 -2.15 0.25 -2.15 -0.8 -2.15 -1.5 -1.95 L-1.55 -1.95 -2.75 -0.8 Q-3.35 -0.15 -3.85 0.7 L-4.1 1.1 -4.2 1.25 -5.15 3.5 Q-5.45 4.3 -5.5 4.8 -5.0 5.5 -3.2 5.5 L-2.25 5.4 Q-0.95 5.15 0.7 4.15 L0.8 4.1 0.85 4.05 2.25 3.15 2.15 3.2 2.05 3.2 1.5 3.4 -1.3 4.1 -2.5 4.1 -2.15 3.9 -2.05 3.8 Q-1.25 3.4 -0.25 3.0 M6.2 2.2 Q5.4 2.6 3.15 3.95 L-0.1 5.9 -0.1 6.0 Q0.35 5.85 0.7 5.75 1.5 5.6 2.2 5.9 3.9 5.75 6.5 5.8 L6.65 5.35 Q6.75 4.95 6.85 4.45 L6.85 4.0 Q6.85 3.8 6.55 3.1 L6.2 2.2" fill="#111111" fill-rule="evenodd" stroke="none"/>
      <path d="M5.8 -1.4 L5.85 -0.6 Q5.6 -0.85 5.2 -1.45 L4.55 -2.2 4.6 -2.1 Q3.7 -3.0 2.95 -3.0 2.65 -3.0 2.3 -2.8 L2.3 -2.75 2.25 -2.8 Q2.1 -2.7 1.95 -2.55 1.5 -3.0 0.85 -3.2 -0.3 -3.5 -1.45 -2.85 L-1.5 -2.85 Q-1.7 -2.85 -2.2 -2.6 L-2.05 -2.7 Q-1.4 -3.3 -0.4 -3.75 2.05 -4.9 3.1 -4.25 3.6 -3.85 5.3 -1.95 L5.8 -1.4" fill="#600000" fill-rule="evenodd" stroke="none"/>
      <path d="M1.85 -5.7 L2.85 -4.8 Q4.85 -3.1 5.65 -2.1 L5.65 -2.15 5.8 -1.4 5.3 -1.95 Q3.6 -3.85 3.1 -4.25 2.05 -4.9 -0.4 -3.75 -1.4 -3.3 -2.05 -2.7 L-2.2 -2.6 -2.45 -2.45 -2.4 -2.5 Q-0.55 -4.55 1.85 -5.7" fill="#b00000" fill-rule="evenodd" stroke="none"/>
      <path d="M1.85 -5.7 L2.6 -6.05 2.65 -5.95 Q2.95 -6.0 3.45 -5.5 L3.8 -5.4 Q5.05 -4.1 5.55 -2.5 L5.65 -2.15 5.65 -2.1 Q4.85 -3.1 2.85 -4.8 L1.85 -5.7" fill="#ff9999" fill-rule="evenodd" stroke="none"/>
      <path d="M6.2 2.2 L6.55 3.1 Q6.85 3.8 6.85 4.0 L6.85 4.45 Q6.75 4.95 6.65 5.35 L6.5 5.8 Q3.9 5.75 2.2 5.9 1.5 5.6 0.7 5.75 0.35 5.85 -0.1 6.0 L-0.1 5.9 3.15 3.95 Q5.4 2.6 6.2 2.2" fill="#0070e0" fill-rule="evenodd" stroke="none"/>
      <path d="M-2.25 5.4 L-3.2 5.5 Q-5.0 5.5 -5.5 4.8 -5.45 4.3 -5.15 3.5 L-4.2 1.25 -4.1 1.1 Q-4.45 2.7 -4.45 3.1 -4.45 4.2 -2.95 5.0 L-2.25 5.4" fill="#80c0f0" fill-rule="evenodd" stroke="none"/>
      <path d="M2.85 -1.05 L2.8 -1.15 2.9 -1.85 4.2 -0.6 Q4.8 0.5 5.05 0.9 L5.25 1.1 Q5.1 1.2 5.0 1.25 4.35 1.4 3.7 1.65 3.55 1.05 3.45 0.3 3.2 -0.35 2.85 -1.05 M-2.75 -0.8 L-1.55 -1.95 -1.5 -1.95 Q-0.8 -2.15 0.25 -2.15 0.7 -2.15 1.35 -0.85 1.75 0.0 2.0 0.35 L1.95 0.85 Q2.0 1.35 2.25 2.0 1.8 2.15 1.35 2.35 L-0.2 2.95 -0.25 3.0 -0.35 2.8 Q-0.8 2.05 -1.15 0.95 -1.5 0.4 -2.8 -0.75 L-2.75 -0.8 M-2.05 3.8 L-2.15 3.9 -2.5 4.1 -1.3 4.1 1.5 3.4 2.05 3.2 2.15 3.2 2.25 3.15 0.85 4.05 0.8 4.1 0.7 4.15 0.5 4.2 Q-1.55 4.55 -2.55 4.55 L-2.85 4.5 -3.1 4.45 -3.15 4.45 -3.15 4.25 Q-3.15 4.15 -2.05 3.8" fill="#ffffff" fill-rule="evenodd" stroke="none"/>
      <path d="M2.85 -1.05 Q3.2 -0.35 3.45 0.3 3.55 1.05 3.7 1.65 L3.2 1.75 3.1 1.05 Q2.85 -0.35 2.85 -1.05 M-2.75 -0.8 L-2.8 -0.75 Q-1.5 0.4 -1.15 0.95 -0.8 2.05 -0.35 2.8 L-0.25 3.0 Q-1.25 3.4 -2.05 3.8 -3.15 4.15 -3.15 4.25 L-3.15 4.45 -3.1 4.45 -2.85 4.5 -2.55 4.55 Q-1.55 4.55 0.5 4.2 L0.7 4.15 Q-0.95 5.15 -2.25 5.4 L-2.95 5.0 Q-4.45 4.2 -4.45 3.1 -4.45 2.7 -4.1 1.1 L-3.85 0.7 Q-3.35 -0.15 -2.75 -0.8" fill="#d0f0f0" fill-rule="evenodd" stroke="none"/>
    </g>
  </defs>
</svg>
