<?xml version="1.0" encoding="UTF-8" standalone="no"?>
<svg xmlns:ffdec="https://www.free-decompiler.com/flash" xmlns:xlink="http://www.w3.org/1999/xlink" ffdec:objectType="frame" height="61.0px" width="42.75px" xmlns="http://www.w3.org/2000/svg">
  <g transform="matrix(1.0, 0.0, 0.0, 1.0, 6.6, 10.15)">
    <use ffdec:characterId="262" height="61.0" transform="matrix(1.0, 0.0, 0.0, 1.0, -6.6, -10.15)" width="42.75" xlink:href="#shape0"/>
  </g>
  <defs>
    <g id="shape0" transform="matrix(1.0, 0.0, 0.0, 1.0, 6.6, 10.15)">
      <path d="M15.9 -2.0 L15.85 -1.4 Q15.25 -2.0 14.45 -1.9 L14.2 -1.9 14.15 -4.95 14.1 -5.3 14.1 -5.65 Q14.25 -6.7 14.05 -7.6 L14.0 -8.25 14.1 -8.4 14.15 -8.4 14.3 -8.35 15.15 -8.05 15.15 -6.6 15.0 -6.4 15.1 -5.85 15.05 -5.3 Q15.0 -3.1 15.55 -2.3 15.75 -2.05 15.9 -2.0 M22.75 3.35 L22.85 3.35 22.85 3.55 22.85 3.6 22.8 3.5 22.75 3.35 M21.65 5.65 L20.65 5.5 20.15 5.6 Q19.1 5.65 18.15 6.0 16.95 6.5 16.15 7.45 16.0 7.35 15.85 7.65 L15.6 7.8 15.55 7.75 15.3 7.7 15.35 7.65 15.35 7.55 15.3 7.4 15.25 7.0 15.1 6.9 15.2 6.85 15.25 4.05 Q15.45 3.45 16.0 3.15 L16.25 2.85 19.2 3.05 21.7 4.05 21.95 4.4 22.2 4.65 22.2 5.1 21.85 5.7 21.8 5.7 21.65 5.65" fill="#866b39" fill-rule="evenodd" stroke="none"/>
      <path d="M15.85 -1.4 L16.25 -0.95 16.35 -0.8 16.35 -0.65 16.3 -0.4 16.3 -0.35 16.25 -0.15 14.65 -0.05 13.7 -0.1 Q13.4 -2.15 13.45 -4.35 L13.4 -7.1 13.45 -7.75 Q13.45 -8.35 13.1 -8.6 L13.1 -8.8 13.1 -8.95 13.3 -8.8 13.45 -8.65 13.4 -8.4 13.6 -8.5 13.6 -8.95 13.7 -8.95 13.7 -8.8 13.75 -8.85 13.85 -8.95 14.1 -8.4 14.0 -8.25 14.05 -7.6 Q14.25 -6.7 14.1 -5.65 L14.1 -5.3 14.15 -4.95 14.2 -1.9 14.45 -1.9 Q15.25 -2.0 15.85 -1.4 M13.05 0.25 L12.9 0.3 12.65 0.1 12.5 -0.25 12.4 -0.35 12.1 -0.4 12.55 -1.0 Q12.5 -0.25 12.85 0.0 L12.9 0.25 13.05 0.25 M12.4 -2.45 L12.45 -4.0 12.55 -2.7 12.4 -2.45 M12.45 -4.05 L12.45 -4.25 12.5 -4.45 12.45 -4.05 M12.7 -8.3 L12.7 -8.5 12.9 -8.8 12.95 -8.6 12.75 -8.35 12.7 -8.3 M14.75 13.85 L14.8 13.8 14.75 13.9 14.5 13.75 14.5 14.0 14.5 14.3 13.9 13.1 13.7 11.45 13.5 11.1 10.75 8.35 Q8.9 6.7 6.85 7.7 L6.8 7.9 6.9 7.95 6.75 8.15 6.5 7.85 6.35 8.05 6.3 8.4 Q5.5 7.9 5.5 5.85 5.5 4.2 5.9 2.85 L6.0 2.6 6.1 3.2 Q6.25 2.85 6.45 2.85 L6.5 3.05 6.55 3.05 6.6 2.9 6.7 3.2 6.95 3.15 7.3 2.85 Q7.95 2.0 9.25 1.85 L9.25 1.9 Q10.1 1.45 11.25 1.2 L12.9 1.3 13.0 1.4 13.75 1.45 13.75 0.85 13.95 0.8 14.0 1.1 14.15 0.95 14.25 1.05 14.5 0.3 14.6 0.9 14.35 1.45 14.65 2.65 14.5 4.6 14.45 4.85 14.5 7.25 Q14.35 10.05 14.55 13.0 L14.6 13.35 14.75 13.5 Q14.55 13.9 14.75 13.85 M13.45 3.05 L10.05 2.95 Q8.75 3.3 7.35 4.1 L7.0 4.45 7.05 5.1 7.05 5.55 7.05 5.6 7.15 6.3 8.05 5.95 11.0 6.15 Q12.3 6.8 12.85 8.3 L13.05 8.5 13.5 8.55 13.7 5.75 13.45 3.05" fill="#65512c" fill-rule="evenodd" stroke="none"/>
      <path d="M15.15 -8.05 L15.15 -8.15 15.1 -8.95 15.0 -9.05 Q15.5 -9.0 15.6 -8.45 L15.75 -8.7 15.85 -8.75 15.85 -5.4 Q15.85 -3.75 16.0 -2.25 L15.9 -1.9 15.9 -2.0 Q15.75 -2.05 15.55 -2.3 15.0 -3.1 15.05 -5.3 L15.1 -5.85 15.0 -6.4 15.15 -6.6 15.15 -8.05 M14.6 0.9 L14.65 0.3 14.85 1.4 14.9 1.3 14.85 0.95 15.0 0.85 15.1 1.2 15.15 1.35 15.3 1.45 Q15.9 1.0 16.9 1.2 19.1 1.55 21.3 2.5 L22.15 3.05 22.1 2.05 22.15 1.9 22.75 3.35 22.8 3.5 22.85 3.6 Q23.1 3.6 23.15 3.75 L23.2 4.2 23.0 4.8 23.05 7.45 23.0 7.95 22.7 7.9 22.6 7.8 22.25 7.65 22.2 7.55 Q20.25 6.4 18.2 7.85 16.95 8.65 16.0 10.1 L15.7 11.0 15.6 11.35 15.35 11.5 15.15 12.1 15.2 12.65 15.1 13.3 15.0 13.45 15.1 13.9 14.8 13.7 14.75 13.85 Q14.55 13.9 14.75 13.5 L14.6 13.35 14.55 13.0 Q14.35 10.05 14.5 7.25 L14.45 4.85 14.5 4.6 14.65 2.65 14.35 1.45 14.6 0.9 M21.65 5.65 L21.8 5.7 21.85 5.7 22.2 5.1 22.2 4.65 21.95 4.4 21.7 4.05 19.2 3.05 16.25 2.85 16.0 3.15 Q15.45 3.45 15.25 4.05 L15.2 6.85 15.1 6.9 15.25 7.0 15.3 7.4 15.35 7.55 15.35 7.65 15.3 7.7 15.55 7.75 15.6 7.8 15.85 7.65 Q16.0 7.35 16.15 7.45 16.95 6.5 18.15 6.0 19.1 5.65 20.15 5.6 L20.65 5.5 21.65 5.65" fill="#a98747" fill-rule="evenodd" stroke="none"/>
      <path d="M13.7 -0.1 L13.7 0.25 13.65 0.45 13.3 0.45 Q13.15 0.1 13.05 0.25 L12.9 0.25 12.85 0.0 Q12.5 -0.25 12.55 -1.0 L12.4 -2.45 12.55 -2.7 12.45 -4.0 12.45 -4.05 12.5 -4.45 Q12.4 -4.55 12.45 -4.6 L12.4 -5.9 12.4 -8.05 12.3 -8.1 12.45 -8.25 12.7 -8.25 12.7 -8.3 12.75 -8.35 12.95 -8.6 12.9 -8.8 13.1 -8.8 13.1 -8.6 Q13.45 -8.35 13.45 -7.75 L13.4 -7.1 13.45 -4.35 Q13.4 -2.15 13.7 -0.1 M13.45 3.05 L13.7 5.75 13.5 8.55 13.05 8.5 12.85 8.3 Q12.3 6.8 11.0 6.15 L8.05 5.95 7.15 6.3 7.05 5.6 7.05 5.55 7.05 5.1 7.0 4.45 7.35 4.1 Q8.75 3.3 10.05 2.95 L13.45 3.05" fill="#524223" fill-rule="evenodd" stroke="none"/>
      <path d="M14.8 15.3 Q14.85 14.8 15.05 14.5 16.4 9.95 18.9 8.45 L19.35 35.15 19.4 35.55 15.45 41.8 15.45 41.55 15.3 41.7 15.2 42.05 14.95 42.15 14.75 42.1 14.55 41.7 10.35 35.75 10.4 35.2 10.05 8.6 Q12.35 9.95 13.7 14.15 14.05 14.35 14.2 15.0 L14.2 15.15 14.4 15.45 14.8 15.3" fill="url(#gradient0)" fill-rule="evenodd" stroke="none"/>
      <path d="M14.7 17.7 L14.75 17.7 15.15 40.25 15.05 40.4 15.05 40.45 14.9 40.4 14.85 40.2 11.3 35.3 11.05 12.55 14.5 17.7 14.7 17.7" fill="url(#gradient1)" fill-rule="evenodd" stroke="none"/>
      <path d="M14.85 40.25 L14.9 40.4 14.85 40.45 14.85 40.25" fill="#cccccc" fill-rule="evenodd" stroke="none"/>
      <path d="M18.3 34.45 L19.15 35.9 15.45 41.8 15.45 41.55 15.3 41.7 15.2 42.05 14.95 42.15 14.75 42.1 14.55 41.7 10.35 35.75 10.4 35.2 10.1 11.6 Q11.65 19.65 14.3 27.35 16.05 31.8 18.3 34.45" fill="url(#gradient2)" fill-rule="evenodd" stroke="none"/>
      <path d="M14.2 15.0 Q14.05 14.35 13.7 14.15 12.35 9.95 10.05 8.6 L10.4 35.2 10.35 35.75 14.55 41.7 14.75 42.1 14.95 42.15 15.2 42.05 15.3 41.7 15.45 41.55 15.45 41.8 19.4 35.55 19.35 35.15 18.9 8.45 Q16.4 9.95 15.05 14.5 14.85 14.8 14.8 15.3 L14.4 15.45 14.2 15.15 14.2 15.0 M22.85 3.55 L22.85 3.35 Q18.8 1.6 14.85 1.45 L14.4 1.45 13.75 1.45 Q9.85 1.7 5.85 3.6 L5.8 3.8 5.95 7.9 9.05 6.7 9.15 6.75 9.35 6.65 9.8 6.95 9.8 7.05 Q12.8 8.35 14.6 13.35 16.05 8.4 18.85 6.85 L18.95 6.9 Q19.1 6.5 19.35 6.5 L19.7 6.55 20.0 6.55 Q21.45 6.95 22.9 7.7 L22.85 3.55 M14.15 -8.4 Q13.4 -8.4 12.55 -7.65 L12.8 -0.3 13.75 -0.35 14.3 -0.35 14.75 -0.45 15.85 -0.35 15.85 -7.65 Q14.95 -8.4 14.3 -8.35 L14.15 -8.4 M16.95 -8.55 L16.95 -8.15 17.15 -0.25 Q20.3 0.3 23.55 1.85 23.9 1.9 24.0 2.25 L24.05 2.75 24.0 3.0 24.0 3.4 24.1 8.85 24.05 9.4 23.7 9.8 23.4 9.8 20.05 8.55 20.55 35.15 20.5 35.5 20.6 36.15 20.45 36.7 15.55 44.35 15.1 44.6 14.85 44.65 Q14.55 44.65 14.5 44.3 L9.4 36.8 9.25 36.35 Q9.15 35.85 9.3 35.7 L9.2 35.35 8.75 8.75 5.5 10.1 5.2 10.15 4.9 9.75 4.6 9.2 4.6 3.65 4.7 3.5 4.5 3.2 4.7 2.6 4.95 2.15 Q8.2 0.5 11.5 -0.15 L11.3 -7.95 11.4 -8.4 11.55 -8.8 Q12.85 -10.3 14.2 -10.15 15.35 -10.3 16.75 -8.9 L16.95 -8.55" fill="#696969" fill-rule="evenodd" stroke="none"/>
      <path d="M22.85 3.55 L22.85 3.35 Q18.8 1.6 14.85 1.45 L14.4 1.45 13.75 1.45 Q9.85 1.7 5.85 3.6 L5.8 3.8 5.95 7.9 9.05 6.7 9.15 6.75 9.35 6.65 9.8 6.95 9.8 7.05 Q12.8 8.35 14.6 13.35 16.05 8.4 18.85 6.85 L18.95 6.9 Q19.1 6.5 19.35 6.5 L19.7 6.55 20.0 6.55 Q21.45 6.95 22.9 7.7 L22.85 3.55 M14.15 -8.4 Q13.4 -8.4 12.55 -7.65 L12.8 -0.3 13.75 -0.35 14.3 -0.35 14.75 -0.45 15.85 -0.35 15.85 -7.65 Q14.95 -8.4 14.3 -8.35 L14.15 -8.4 M16.95 -8.55 L16.95 -8.15 17.15 -0.25 Q20.3 0.3 23.55 1.85 23.9 1.9 24.0 2.25 L24.05 2.75 24.0 3.0 24.0 3.4 24.1 8.85 24.05 9.4 23.7 9.8 23.4 9.8 20.05 8.55 19.85 8.45 19.1 8.45 18.9 8.45 Q16.4 10.0 15.05 14.5 14.85 14.8 14.8 15.3 L14.4 15.45 14.2 15.15 14.2 15.0 Q14.05 14.35 13.7 14.15 12.35 9.95 10.05 8.6 L10.0 8.75 9.85 8.65 9.35 8.55 Q9.2 8.6 9.0 8.75 8.85 8.65 8.75 8.85 L8.75 8.75 5.5 10.1 5.2 10.15 4.9 9.75 4.6 9.2 4.6 3.65 4.7 3.5 4.5 3.2 4.7 2.6 4.95 2.15 Q8.2 0.5 11.5 -0.15 L11.3 -7.95 11.4 -8.4 11.55 -8.8 Q12.85 -10.3 14.2 -10.15 15.35 -10.3 16.75 -8.9 L16.95 -8.55" fill="#47391f" fill-rule="evenodd" stroke="none"/>
      <path d="M8.65 12.85 Q8.2 12.75 8.05 12.5 8.15 12.45 8.3 12.7 L8.65 12.85 M7.65 12.2 L7.45 12.25 7.4 12.3 7.3 12.25 7.3 12.05 7.5 12.15 7.65 12.2 M0.15 13.5 L0.45 13.3 0.7 13.15 0.3 13.6 0.15 13.5 M-3.9 35.3 L-3.45 35.3 -3.75 35.4 Q-3.85 35.3 -3.9 35.3 M17.85 28.75 Q18.2 28.95 18.15 29.2 L18.1 29.35 17.85 28.75 M3.75 45.25 L3.75 45.05 3.95 45.35 3.75 45.25" fill="#0099ff" fill-opacity="0.9019608" fill-rule="evenodd" stroke="none"/>
      <path d="M21.4 11.55 L21.5 11.25 21.7 11.1 22.0 11.25 21.95 10.95 22.4 10.85 Q22.25 10.7 22.45 10.3 L22.55 10.1 22.85 9.8 22.7 10.1 23.0 10.45 23.1 10.4 Q23.85 10.45 24.7 11.3 L25.0 12.45 25.3 13.6 Q25.8 14.15 25.75 14.65 L25.9 15.1 26.4 15.75 26.45 15.7 26.65 15.95 26.95 16.15 27.45 16.8 27.75 17.75 28.45 18.45 28.7 19.5 Q29.2 20.8 29.6 21.35 L29.7 21.8 30.2 22.2 31.15 22.6 31.8 22.8 31.35 23.4 31.4 23.75 31.1 24.25 30.75 24.5 Q31.0 25.05 30.85 25.45 L30.95 25.9 Q30.95 26.2 31.8 26.25 32.15 26.25 32.25 26.5 L32.4 27.05 32.85 27.4 33.2 27.5 34.35 27.65 34.35 27.9 33.7 27.95 Q31.05 28.45 30.15 29.2 29.75 29.55 29.8 30.6 L30.0 30.95 30.55 31.45 29.1 32.75 Q29.05 33.15 28.85 33.15 L27.85 35.3 27.55 36.55 27.25 37.6 27.4 38.6 Q27.7 39.1 27.6 39.3 L27.85 39.4 28.35 39.45 28.7 39.4 28.75 39.35 29.2 39.4 29.5 39.55 28.75 39.5 27.6 39.95 27.45 40.1 Q25.8 40.35 24.2 41.05 23.4 41.5 22.7 42.15 L20.25 43.65 19.6 44.75 19.6 45.4 19.05 45.4 Q18.7 45.45 18.2 45.75 L17.5 46.4 17.4 46.5 17.15 46.6 Q16.8 46.75 16.8 47.0 L16.55 46.95 16.45 47.0 Q16.75 46.4 17.1 46.1 L17.15 45.85 17.55 45.5 17.95 44.45 20.95 42.35 24.45 39.75 24.3 39.75 24.35 39.45 25.75 38.55 Q25.8 38.2 26.15 37.95 L25.85 37.95 25.65 37.2 Q25.6 36.9 26.2 34.95 L26.45 34.3 26.7 33.35 28.0 29.55 27.9 29.2 Q28.25 27.95 28.75 27.15 L28.85 26.0 28.85 25.0 28.5 24.4 28.7 24.35 27.65 23.45 27.65 24.45 27.4 24.45 26.7 23.15 Q26.55 22.25 25.95 22.0 25.15 21.35 25.1 20.6 L25.1 19.5 Q24.75 19.1 24.5 18.15 23.95 17.4 24.0 16.9 L24.0 15.0 23.35 14.65 22.85 13.8 Q22.6 14.6 22.7 14.7 L22.85 15.65 23.2 16.85 23.3 17.7 23.2 18.05 23.05 18.25 22.45 18.85 21.95 19.9 21.15 20.75 20.15 21.65 20.15 20.95 Q20.25 20.45 19.9 20.45 L19.3 19.7 19.0 19.3 Q18.8 19.25 18.65 19.45 L16.95 20.5 16.8 20.9 16.8 21.25 16.35 21.25 16.15 21.45 16.25 21.05 15.85 20.85 15.4 20.4 13.75 19.6 13.6 19.05 13.4 19.05 12.5 17.9 11.25 16.4 9.35 15.2 8.95 14.85 8.9 15.5 9.4 18.1 10.0 20.75 9.1 20.55 8.15 19.25 7.95 18.7 Q7.45 18.55 7.05 18.0 L6.8 16.95 6.7 16.65 6.65 16.05 6.9 14.35 7.05 12.35 7.2 12.25 7.4 12.3 7.45 12.25 7.65 12.2 7.85 12.2 8.05 12.5 Q8.2 12.75 8.65 12.85 L8.75 12.8 9.4 13.0 Q9.75 13.05 9.8 13.2 L9.9 13.3 10.85 13.7 12.15 14.25 12.75 14.2 12.9 14.4 13.35 14.95 13.6 15.95 14.15 17.65 15.1 19.3 15.7 19.65 16.3 19.3 16.45 18.85 16.8 18.55 16.3 19.05 Q15.95 19.05 15.95 18.75 L16.3 18.3 16.35 17.7 16.25 17.2 Q16.1 17.0 16.1 16.8 L15.2 15.95 Q14.25 15.1 14.15 14.2 L14.45 14.2 15.1 14.85 15.65 16.0 16.75 17.1 17.4 17.5 18.2 17.4 18.2 17.25 18.6 17.0 19.1 16.55 19.3 16.5 18.25 17.7 17.95 17.9 17.4 18.15 Q17.3 18.25 17.35 18.4 L17.55 18.25 18.35 17.85 19.3 16.85 20.25 15.9 Q20.1 15.75 20.1 15.35 L20.45 14.95 20.45 14.35 20.1 12.7 20.0 12.5 19.9 12.4 20.05 12.15 20.15 11.25 20.25 11.0 20.3 11.25 20.35 12.1 21.0 13.4 21.1 13.3 21.15 12.7 21.35 11.55 21.4 11.55 M22.1 11.65 L21.95 11.65 22.0 11.95 22.0 12.4 22.05 13.2 22.15 13.3 Q22.05 13.65 22.1 13.95 L22.1 14.2 22.4 14.75 Q22.4 14.2 22.7 13.8 L22.6 13.3 Q22.45 13.2 22.65 12.7 L22.25 11.65 22.0 11.25 22.1 11.65 M27.15 13.25 L27.45 13.45 27.7 13.85 28.05 14.05 Q28.15 14.55 28.6 14.65 29.4 15.65 29.6 16.6 L31.45 20.25 Q31.8 21.4 34.15 21.85 L35.2 21.9 35.2 22.1 34.6 22.2 34.15 22.55 32.95 22.75 32.25 21.95 31.3 21.4 30.45 20.9 29.7 20.4 29.7 19.15 Q29.6 18.25 28.95 16.7 L27.75 14.15 Q27.45 14.0 26.9 13.25 L27.15 13.25 M3.15 44.65 Q2.7 44.2 2.2 44.05 L2.05 43.8 2.6 40.35 Q2.45 39.75 1.0 38.45 L0.1 37.05 1.4 37.8 1.6 37.8 Q1.45 37.35 0.45 36.95 -0.5 36.3 -1.45 36.45 L-1.55 36.4 -2.2 36.25 -2.4 36.05 -3.75 35.4 -3.45 35.3 -3.9 35.3 -4.05 35.3 -4.15 35.25 -4.75 34.5 -4.1 34.1 Q-3.3 33.3 -2.85 32.4 L-4.55 33.7 -4.15 30.8 -4.15 29.85 -4.35 28.9 -4.45 27.7 -2.1 27.0 -1.15 26.35 -0.35 25.9 -0.5 25.45 -0.75 25.45 Q-1.55 25.5 -1.8 26.0 L-1.75 25.45 -2.1 25.05 -2.4 24.45 -2.85 23.3 -2.8 23.0 -2.15 22.65 -2.25 22.5 Q-1.55 22.45 -0.5 21.6 1.1 20.65 0.9 19.95 L1.05 19.9 0.6 19.85 0.2 19.95 -0.15 20.05 -0.55 20.05 -0.45 19.5 Q-0.05 18.05 -0.1 16.65 -0.05 16.15 -0.55 15.25 L-0.75 14.4 -0.55 14.4 -0.7 14.35 0.15 13.5 0.3 13.6 0.15 13.85 4.1 11.0 4.35 10.85 3.1 12.7 Q1.5 14.8 1.5 15.5 L1.9 16.1 2.25 19.45 Q2.4 19.25 2.45 19.35 L2.8 19.45 3.0 19.5 2.65 21.0 2.25 22.35 Q1.8 22.4 1.6 22.7 L1.05 23.8 Q0.75 24.1 0.7 24.45 L0.9 24.5 1.35 25.0 1.1 26.0 1.2 26.65 1.05 26.95 -0.3 28.0 Q-1.15 28.85 -1.0 28.95 L-1.1 29.5 -1.5 31.5 -1.6 32.7 -1.95 33.7 -1.85 34.05 -1.6 34.3 Q-1.45 34.5 -0.9 34.5 L-0.55 34.5 Q-0.25 34.55 0.75 35.1 L0.85 35.05 0.95 34.95 0.95 34.7 Q0.1 34.7 -0.15 34.35 L-0.75 34.0 -0.95 33.9 Q-0.75 32.55 0.2 31.0 L1.8 29.15 2.0 31.75 1.75 32.75 1.85 32.9 2.65 33.7 4.1 35.65 5.6 37.6 6.8 39.0 6.4 37.8 6.4 37.5 7.85 38.05 Q8.55 38.55 9.0 38.7 L10.95 41.45 Q11.55 42.25 12.7 43.05 L14.0 44.05 14.5 44.4 14.6 45.35 Q14.9 45.5 14.65 45.8 L14.85 46.15 14.8 46.4 14.45 46.35 14.05 46.05 13.55 45.5 12.4 45.2 12.25 44.85 11.25 43.55 10.2 42.15 7.9 41.05 7.2 40.45 Q6.8 40.7 6.55 41.3 5.7 42.3 5.75 42.55 L5.6 45.0 4.05 45.6 4.5 44.85 Q5.0 44.65 4.95 44.3 L4.7 41.95 3.25 44.25 2.85 44.0 3.0 44.4 3.15 44.65 M24.95 18.25 L25.4 19.8 25.75 20.45 25.8 21.2 26.4 22.05 26.85 22.7 27.05 23.15 27.0 22.85 26.95 22.65 27.0 22.4 27.0 22.1 26.7 21.35 25.35 17.75 24.35 16.15 24.5 17.2 24.8 17.65 24.95 18.25 M22.7 23.15 L23.05 22.9 23.3 22.95 24.05 23.15 24.95 23.2 24.95 23.35 23.05 23.6 22.2 24.1 21.15 24.9 Q20.5 25.3 20.3 26.65 20.3 27.0 20.45 27.05 L20.1 27.4 Q19.8 27.45 19.65 27.15 L19.4 26.65 Q19.3 26.75 18.85 26.15 L18.55 25.65 16.9 25.9 16.65 25.5 16.55 25.7 Q17.55 26.65 17.75 27.4 L19.2 29.2 20.15 30.6 20.3 31.8 Q20.35 32.3 20.0 32.5 L19.9 33.35 19.9 34.65 20.3 34.65 Q20.45 33.35 21.4 31.55 L21.55 30.6 22.85 28.85 23.45 27.15 24.1 25.9 24.7 24.75 24.8 24.45 24.95 24.35 Q24.9 24.0 25.1 23.85 L25.25 23.65 25.35 23.6 25.75 23.55 25.65 23.95 Q25.8 24.1 24.95 27.25 24.35 30.4 24.3 31.1 L24.0 32.4 23.25 33.7 23.25 34.1 23.05 34.5 21.8 36.05 19.75 38.65 19.7 38.6 20.1 37.75 19.65 37.05 19.85 35.7 19.65 34.45 19.45 33.25 Q19.2 32.75 19.3 31.45 L18.55 30.6 18.15 29.5 18.1 29.35 18.15 29.2 Q18.2 28.95 17.85 28.75 L17.7 28.6 16.95 27.45 17.1 27.3 17.15 27.1 16.55 25.7 16.5 25.55 Q15.8 24.55 15.1 24.55 L14.75 24.55 14.8 24.35 13.7 22.6 13.6 22.5 13.75 22.2 13.95 22.15 Q13.6 22.15 13.6 22.35 L13.6 22.5 13.2 22.75 13.35 22.75 13.25 22.85 12.75 23.75 12.85 24.0 12.9 24.35 12.85 24.5 12.9 24.55 13.1 25.05 13.7 26.65 Q14.5 28.95 14.55 30.55 L14.45 33.45 14.15 34.5 Q13.6 33.6 13.7 33.35 L13.35 32.8 13.15 32.35 12.9 32.65 12.3 30.95 12.6 29.05 12.7 27.4 12.5 25.1 12.4 24.55 12.35 24.0 12.6 24.1 12.7 24.0 12.7 23.6 13.0 22.8 12.7 23.05 12.35 23.2 12.25 23.35 11.85 23.05 11.2 24.1 11.2 24.25 10.85 24.95 10.9 25.1 10.65 25.7 10.25 26.15 10.15 27.1 10.1 28.05 10.15 28.8 Q10.2 29.15 9.5 29.55 8.9 30.05 8.3 30.05 L8.2 29.5 7.95 31.2 7.4 31.15 6.35 30.6 Q5.95 30.55 6.05 30.2 5.85 30.15 5.75 29.55 L5.8 29.05 5.8 28.9 6.0 27.4 6.05 26.95 6.05 26.75 6.45 26.05 8.25 25.4 10.0 24.35 10.5 24.0 11.7 23.05 13.7 22.1 13.95 22.15 14.25 22.15 15.5 24.2 Q16.5 25.45 17.5 25.45 18.25 25.45 18.35 25.1 L18.35 24.9 18.85 24.8 18.6 25.2 19.3 24.9 19.3 25.2 19.3 25.45 Q19.85 25.65 20.1 25.15 L20.3 24.75 20.3 24.5 20.05 24.45 20.35 24.1 Q20.7 23.85 21.7 23.75 L23.05 23.15 22.7 23.15 M5.55 11.55 L5.55 11.85 5.15 12.5 5.1 12.9 5.0 13.45 Q4.55 14.35 4.55 14.95 L5.0 16.6 5.2 18.15 Q5.3 18.75 6.4 19.85 L8.2 21.25 7.9 21.4 Q7.4 21.6 7.0 21.0 L6.2 20.25 5.55 19.9 4.75 18.85 4.3 18.75 3.95 18.3 3.9 17.7 3.75 16.3 3.75 14.55 Q3.5 14.0 3.9 13.45 L4.9 12.6 5.15 12.25 Q5.1 11.95 5.55 11.55 M7.65 13.4 L7.45 13.15 7.3 14.95 7.1 16.7 7.05 17.2 7.4 17.65 7.65 17.85 7.95 17.95 7.95 17.75 7.95 17.2 8.0 17.15 Q8.35 17.4 8.45 16.65 L8.2 16.15 7.95 15.7 7.9 14.2 7.9 13.8 7.65 13.4 M15.35 46.85 L15.3 47.0 15.1 46.5 Q15.1 45.05 14.45 43.35 L13.8 41.75 14.4 40.35 14.3 39.35 Q14.25 38.1 13.8 36.5 13.35 35.9 13.15 35.0 L13.0 34.45 13.25 34.0 Q13.0 33.7 13.1 33.45 13.25 34.0 13.75 34.5 L14.55 36.85 Q15.05 38.65 15.35 38.65 15.3 38.9 15.4 39.0 L15.4 39.9 15.35 41.3 14.85 42.05 15.1 42.45 15.4 43.35 15.6 44.75 15.3 46.05 15.35 46.85 M0.7 31.3 L0.45 31.2 -0.35 32.9 -0.3 33.5 0.1 34.0 0.5 33.7 0.85 33.15 0.35 32.5 Q0.35 32.05 0.7 31.3 M8.35 27.05 L7.95 27.3 6.9 27.8 6.45 28.4 6.35 29.15 Q6.4 30.2 6.85 30.15 7.4 30.2 7.45 29.6 L7.6 28.75 Q7.5 28.5 7.95 28.25 L8.35 28.2 8.8 27.25 8.65 27.1 8.35 27.05 M6.4 33.15 L6.25 32.7 Q7.95 34.1 8.0 35.15 L8.35 36.15 Q8.75 37.5 9.4 37.8 9.1 38.2 5.85 35.4 L6.4 35.0 6.6 35.25 Q7.0 34.95 7.05 34.25 7.05 34.1 6.7 34.05 L6.4 34.15 6.4 33.35 6.4 33.15 M7.45 40.0 L7.6 40.35 8.5 40.45 Q8.55 40.25 8.65 40.35 L7.9 39.75 Q7.65 39.75 7.7 39.5 L7.75 38.9 7.2 38.25 7.1 38.7 7.25 39.7 7.45 40.0 7.3 39.75 7.4 40.1 7.45 40.0 M18.05 41.1 L18.35 40.45 19.35 40.35 19.25 40.55 17.1 42.65 18.05 41.1 M22.25 34.8 L22.45 34.85 22.4 34.6 22.25 34.8 M-3.7 27.1 L-4.45 27.7 -4.7 27.65 -3.7 27.1" fill="#00cdff" fill-opacity="0.8" fill-rule="evenodd" stroke="none"/>
      <path d="M20.1 12.7 L20.45 14.35 20.45 14.95 20.1 15.35 Q20.1 15.75 20.25 15.9 L19.3 16.85 18.35 17.85 17.55 18.25 17.35 18.4 Q17.3 18.25 17.4 18.15 L17.95 17.9 18.25 17.7 19.3 16.5 Q20.05 15.2 20.0 13.65 L19.9 13.4 20.1 12.7 M14.45 14.2 L14.15 14.2 Q14.25 15.1 15.2 15.95 L16.1 16.8 Q16.1 17.0 16.25 17.2 L16.35 17.7 16.3 18.3 15.95 18.75 Q15.95 19.05 16.3 19.05 L16.8 18.55 16.45 18.85 16.3 19.3 15.7 19.65 15.1 19.3 14.15 17.65 13.6 15.95 13.35 14.95 12.9 14.4 12.75 14.2 12.15 14.25 10.85 13.7 9.9 13.3 11.7 13.65 14.0 14.15 14.45 14.2 M7.4 12.3 L7.2 12.25 7.05 12.35 7.0 12.1 7.25 12.15 7.3 12.25 7.4 12.3 M6.8 16.95 L7.05 18.0 6.9 17.95 7.3 18.45 7.6 18.85 8.3 21.1 8.15 21.35 Q8.05 21.45 8.1 21.6 L7.9 21.4 8.2 21.25 6.4 19.85 Q5.3 18.75 5.2 18.15 L5.0 16.6 4.55 14.95 Q4.55 14.35 5.0 13.45 L5.1 12.9 5.15 12.5 5.55 11.85 5.55 11.55 5.95 11.0 6.4 9.1 6.0 11.45 5.7 13.95 Q5.6 14.95 6.8 16.95 M27.9 29.2 L28.0 29.55 26.7 33.35 26.45 34.3 26.2 34.95 Q25.6 36.9 25.65 37.2 L25.85 37.95 26.15 37.95 Q25.8 38.2 25.75 38.55 L24.35 39.45 21.55 41.2 21.15 41.45 Q19.7 42.7 18.6 43.0 17.5 43.6 16.5 44.7 15.95 45.5 15.35 46.85 L15.3 46.05 15.6 44.75 15.4 43.35 15.1 42.45 14.85 42.05 15.35 41.3 15.4 39.9 15.4 39.0 Q15.3 38.9 15.35 38.65 15.05 38.65 14.55 36.85 L13.75 34.5 Q13.25 34.0 13.1 33.45 L13.0 32.7 12.9 32.65 13.15 32.35 13.35 32.8 13.7 33.35 Q13.6 33.6 14.15 34.5 L14.45 33.45 14.55 30.55 Q14.5 28.95 13.7 26.65 L13.1 25.05 12.9 24.55 12.85 24.5 12.9 24.35 12.85 24.0 12.75 23.75 13.25 22.85 13.35 22.75 13.2 22.75 13.6 22.5 13.6 22.35 Q13.6 22.15 13.95 22.15 L13.75 22.2 13.6 22.5 13.7 22.6 14.8 24.35 14.75 24.55 15.1 24.55 Q15.8 24.55 16.5 25.55 L16.55 25.7 17.15 27.1 17.1 27.3 16.95 27.45 17.7 28.6 17.85 28.75 18.1 29.35 18.15 29.5 18.55 30.6 19.3 31.45 Q19.2 32.75 19.45 33.25 L19.65 34.45 19.85 35.7 19.65 37.05 20.1 37.75 19.7 38.6 19.75 38.65 21.8 36.05 23.05 34.5 23.25 34.1 23.25 33.7 24.0 32.4 24.3 31.1 Q24.35 30.4 24.95 27.25 25.8 24.1 25.65 23.95 L25.75 23.55 25.35 23.6 25.8 23.0 27.0 25.55 27.05 25.45 Q27.0 25.7 27.3 25.85 L27.3 25.7 27.8 27.8 27.85 28.2 27.9 28.45 28.0 28.75 27.9 29.2 M16.55 46.95 L16.8 47.0 Q16.8 46.75 17.15 46.6 L17.4 46.5 17.5 46.4 18.2 45.75 Q18.7 45.45 19.05 45.4 L19.6 45.4 19.6 44.75 20.25 43.65 22.7 42.15 Q23.4 41.5 24.2 41.05 25.8 40.35 27.45 40.1 L27.6 39.95 28.75 39.5 29.5 39.55 29.2 39.4 28.75 39.35 28.7 39.4 28.35 39.45 27.85 39.4 27.6 39.3 Q27.7 39.1 27.4 38.6 L27.25 37.6 27.55 36.55 27.85 35.3 28.85 33.15 Q29.05 33.15 29.1 32.75 L30.55 31.45 30.0 30.95 29.8 30.6 Q29.75 29.55 30.15 29.2 31.05 28.45 33.7 27.95 L34.35 27.9 34.35 27.65 33.2 27.5 32.85 27.4 32.4 27.05 32.25 26.5 Q32.15 26.25 31.8 26.25 30.95 26.2 30.95 25.9 L30.85 25.45 Q31.0 25.05 30.75 24.5 L31.1 24.25 31.4 23.75 31.35 23.4 31.8 22.8 31.15 22.6 30.2 22.2 29.7 21.8 29.6 21.35 Q29.2 20.8 28.7 19.5 L28.45 18.45 27.75 17.75 27.45 16.8 26.95 16.15 26.65 15.95 26.45 15.7 26.4 15.75 25.9 15.1 25.75 14.65 Q25.8 14.15 25.3 13.6 L25.0 12.45 24.7 11.3 Q23.85 10.45 23.1 10.4 L23.0 10.45 22.7 10.1 22.85 9.8 22.85 9.7 22.7 9.15 22.85 9.1 25.85 11.65 26.6 12.45 27.15 13.25 26.9 13.25 Q27.45 14.0 27.75 14.15 L28.95 16.7 Q29.6 18.25 29.7 19.15 L29.7 20.4 30.45 20.9 31.3 21.4 32.25 21.95 32.95 22.75 34.15 22.55 34.6 22.2 35.2 22.1 Q34.85 23.3 35.05 23.85 L35.35 26.85 Q35.5 27.5 36.15 27.9 L36.15 28.05 Q35.9 28.25 36.0 28.8 35.5 29.2 35.3 29.8 L34.45 31.75 32.65 35.25 Q31.6 37.2 31.6 38.45 31.6 39.4 31.7 39.35 L32.0 39.95 31.9 40.2 31.7 40.15 Q31.2 40.15 31.15 40.4 L29.6 40.95 Q28.75 41.45 28.05 41.9 L22.15 45.4 Q20.7 46.1 19.8 46.95 L18.0 48.65 16.05 50.3 15.45 50.85 15.35 50.8 15.3 50.65 15.25 50.3 15.05 49.9 15.1 49.65 Q15.2 49.15 16.2 47.55 L16.55 46.95 M14.5 50.0 L14.45 50.05 14.25 49.9 13.4 49.4 Q11.3 48.1 8.8 47.2 L5.55 46.1 5.45 46.2 5.15 45.95 5.55 45.85 6.35 45.85 Q6.7 45.6 7.7 45.6 L9.0 45.8 10.5 46.25 11.45 46.25 Q12.7 46.95 13.85 48.15 L14.2 49.1 14.5 50.0 M4.4 45.95 L3.5 45.6 3.1 44.8 3.15 44.65 3.0 44.4 2.85 44.0 3.25 44.25 4.7 41.95 4.95 44.3 Q5.0 44.65 4.5 44.85 L4.05 45.6 3.95 45.6 4.4 45.95 M2.05 43.8 L1.8 43.85 1.8 43.45 Q1.75 42.65 1.35 41.95 L0.95 40.8 -0.95 38.2 -1.6 37.8 -1.85 37.5 -2.7 37.0 Q-3.1 36.5 -4.35 35.9 -5.3 35.15 -6.6 34.3 L-5.95 33.65 -5.3 32.05 -4.9 30.35 -4.8 29.8 Q-4.9 29.4 -5.3 28.75 L-5.5 27.7 -5.55 27.65 -5.75 27.6 -5.55 27.25 -5.4 27.1 -5.2 27.1 -4.95 27.1 -5.0 27.0 Q-3.15 26.2 -3.05 24.25 L-3.15 24.35 -3.3 23.15 -3.3 21.95 Q-3.1 21.9 -3.1 22.15 L-2.85 22.2 -1.6 21.05 Q-0.75 19.7 -0.85 18.15 -0.55 16.95 -0.85 15.5 L-0.95 15.15 -1.15 14.65 -0.75 14.4 -0.55 15.25 Q-0.05 16.15 -0.1 16.65 -0.05 18.05 -0.45 19.5 L-0.55 20.05 -0.15 20.05 0.2 19.95 0.6 19.85 1.05 19.9 0.9 19.95 Q1.1 20.65 -0.5 21.6 -1.55 22.45 -2.25 22.5 L-2.15 22.65 -2.8 23.0 -2.85 23.3 -2.4 24.45 -2.1 25.05 -1.75 25.45 -1.8 26.0 -1.95 26.1 -2.55 26.6 -3.4 27.1 -3.7 27.1 -4.7 27.65 -4.45 27.7 -4.35 28.9 -4.15 29.85 -4.15 30.8 -4.55 33.7 -2.85 32.4 Q-3.3 33.3 -4.1 34.1 L-4.75 34.5 -4.15 35.25 -4.05 35.3 -3.9 35.3 Q-3.85 35.3 -3.75 35.4 L-2.4 36.05 -2.2 36.25 -1.55 36.4 -1.45 36.45 Q-0.5 36.3 0.45 36.95 1.45 37.35 1.6 37.8 L1.4 37.8 0.1 37.05 1.0 38.45 Q2.45 39.75 2.6 40.35 L2.05 43.8 M20.25 23.8 L20.3 23.8 21.4 23.45 22.7 23.15 23.05 23.15 21.7 23.75 Q20.7 23.85 20.35 24.1 L20.05 24.45 20.3 24.5 20.3 24.75 20.1 25.15 Q19.85 25.65 19.3 25.45 L19.3 25.2 19.3 24.9 18.6 25.2 18.85 24.8 18.35 24.9 18.45 24.75 18.8 24.7 18.95 24.45 20.25 23.8 M7.65 13.4 L7.9 13.8 7.9 14.2 7.95 15.7 8.2 16.15 8.45 16.65 Q8.35 17.4 8.0 17.15 L7.95 17.2 7.95 17.75 7.95 17.95 7.65 17.85 7.4 17.65 7.05 17.2 7.1 16.7 7.3 14.95 7.45 13.15 7.65 13.4 M11.2 24.25 L11.2 24.1 11.85 23.05 12.25 23.35 12.35 23.2 12.4 23.6 11.9 24.15 11.3 24.0 11.2 24.25 M8.35 27.05 L8.65 27.1 8.8 27.25 8.35 28.2 7.95 28.25 Q7.5 28.5 7.6 28.75 L7.45 29.6 Q7.4 30.2 6.85 30.15 6.4 30.2 6.35 29.15 L6.45 28.4 6.9 27.8 7.95 27.3 8.35 27.05 M0.7 31.3 Q0.35 32.05 0.35 32.5 L0.85 33.15 0.5 33.7 0.1 34.0 -0.3 33.5 -0.35 32.9 0.45 31.2 0.7 31.3 M7.45 40.0 L7.25 39.7 7.1 38.7 7.2 38.25 7.75 38.9 7.7 39.5 Q7.65 39.75 7.9 39.75 L8.65 40.35 Q8.55 40.25 8.5 40.45 L7.6 40.35 7.45 40.0 M3.75 45.25 L3.95 45.35 3.75 45.05 3.75 45.25 M18.05 41.1 L17.1 42.65 19.25 40.55 19.35 40.35 18.35 40.45 18.05 41.1 M22.25 34.8 L22.4 34.6 22.45 34.85 22.25 34.8" fill="#99ffff" fill-opacity="0.9019608" fill-rule="evenodd" stroke="none"/>
      <path d="M21.0 10.5 L21.15 11.1 Q21.5 11.35 21.4 11.55 L21.35 11.55 21.15 12.7 21.1 13.3 21.0 13.4 20.35 12.1 20.3 11.25 20.25 11.0 20.55 10.45 20.7 10.4 21.0 10.5 M7.05 18.0 Q7.45 18.55 7.95 18.7 L8.15 19.25 9.1 20.55 10.0 20.75 9.4 18.1 8.9 15.5 8.95 14.85 9.35 15.2 11.25 16.4 12.5 17.9 13.4 19.05 13.6 19.05 13.75 19.6 15.4 20.4 15.85 20.85 16.25 21.05 16.15 21.45 16.35 21.25 16.8 21.25 16.8 20.9 16.95 20.5 18.65 19.45 Q18.8 19.25 19.0 19.3 L19.3 19.7 19.9 20.45 Q20.25 20.45 20.15 20.95 L20.15 21.65 21.15 20.75 21.95 19.9 22.45 18.85 23.05 18.25 23.2 18.05 23.3 17.7 23.2 16.85 22.85 15.65 22.7 14.7 Q22.6 14.6 22.85 13.8 L23.35 14.65 24.0 15.0 24.0 16.9 Q23.95 17.4 24.5 18.15 24.75 19.1 25.1 19.5 L25.1 20.6 Q25.15 21.35 25.95 22.0 26.55 22.25 26.7 23.15 L27.4 24.45 27.65 24.45 27.65 23.45 28.7 24.35 28.5 24.4 28.85 25.0 28.85 26.0 28.75 27.15 Q28.25 27.95 27.9 29.2 L28.0 28.75 27.9 28.45 27.85 28.2 27.8 27.8 27.3 25.7 27.3 25.85 Q27.0 25.7 27.05 25.45 L27.0 25.55 25.8 23.0 25.35 23.6 25.25 23.65 25.1 23.85 Q24.9 24.0 24.95 24.35 L24.8 24.45 24.7 24.75 24.1 25.9 23.45 27.15 22.85 28.85 21.55 30.6 21.4 31.55 Q20.45 33.35 20.3 34.65 L19.9 34.65 19.9 33.35 20.0 32.5 Q20.35 32.3 20.3 31.8 L20.15 30.6 19.2 29.2 17.75 27.4 Q17.55 26.65 16.55 25.7 L16.65 25.5 16.9 25.9 18.55 25.65 18.85 26.15 Q19.3 26.75 19.4 26.65 L19.65 27.15 Q19.8 27.45 20.1 27.4 L20.45 27.05 Q20.3 27.0 20.3 26.65 20.5 25.3 21.15 24.9 L22.2 24.1 23.05 23.6 24.95 23.35 24.95 23.2 24.05 23.15 23.3 22.95 23.05 22.9 22.7 23.15 21.4 23.45 20.3 23.8 20.25 23.75 20.25 23.8 18.95 24.45 18.8 24.7 18.45 24.75 18.35 24.9 18.35 25.1 Q18.25 25.45 17.5 25.45 16.5 25.45 15.5 24.2 L14.25 22.15 13.95 22.15 13.7 22.1 11.7 23.05 10.5 24.0 10.0 24.35 8.25 25.4 6.45 26.05 6.05 26.75 6.05 26.95 6.0 27.4 5.8 28.9 5.8 29.05 5.75 29.55 Q5.85 30.15 6.05 30.2 5.95 30.55 6.35 30.6 L7.4 31.15 7.95 31.2 8.2 29.5 8.3 30.05 Q8.9 30.05 9.5 29.55 10.2 29.15 10.15 28.8 L10.1 28.05 10.15 27.1 10.25 26.15 10.65 25.7 10.9 25.1 10.85 24.95 11.2 24.25 11.3 24.0 11.9 24.15 12.4 23.6 12.35 23.2 12.7 23.05 13.0 22.8 12.7 23.6 12.7 24.0 12.6 24.1 12.35 24.0 12.4 24.55 12.5 25.1 12.7 27.4 12.6 29.05 12.3 30.95 12.9 32.65 13.0 32.7 13.1 33.45 Q13.0 33.7 13.25 34.0 L13.0 34.45 13.15 35.0 Q13.35 35.9 13.8 36.5 14.25 38.1 14.3 39.35 L14.4 40.35 13.8 41.75 14.45 43.35 Q15.1 45.05 15.1 46.5 L15.3 47.0 15.35 46.85 Q15.95 45.5 16.5 44.7 17.5 43.6 18.6 43.0 19.7 42.7 21.15 41.45 L21.55 41.2 24.35 39.45 24.3 39.75 24.45 39.75 20.95 42.35 17.95 44.45 17.55 45.5 17.15 45.85 17.1 46.1 Q16.75 46.4 16.45 47.0 L16.55 46.95 16.2 47.55 Q15.2 49.15 15.1 49.65 L15.05 49.9 15.25 50.3 15.3 50.65 15.35 50.8 14.5 50.0 14.2 49.1 13.85 48.15 Q12.7 46.95 11.45 46.25 L10.5 46.25 9.0 45.8 7.7 45.6 Q6.7 45.6 6.35 45.85 L5.55 45.85 5.15 45.95 5.45 46.2 4.4 45.95 3.95 45.6 4.05 45.6 5.6 45.0 5.75 42.55 Q5.7 42.3 6.55 41.3 6.8 40.7 7.2 40.45 L7.9 41.05 10.2 42.15 11.25 43.55 12.25 44.85 12.4 45.2 13.55 45.5 14.05 46.05 14.45 46.35 14.8 46.4 14.85 46.15 14.65 45.8 Q14.9 45.5 14.6 45.35 L14.5 44.4 14.0 44.05 12.7 43.05 Q11.55 42.25 10.95 41.45 L9.0 38.7 Q8.55 38.55 7.85 38.05 L6.4 37.5 6.4 37.8 6.8 39.0 5.6 37.6 4.1 35.65 2.65 33.7 1.85 32.9 1.75 32.75 2.0 31.75 1.8 29.15 0.2 31.0 Q-0.75 32.55 -0.95 33.9 L-0.75 34.0 -0.15 34.35 Q0.1 34.7 0.95 34.7 L0.95 34.95 0.85 35.05 0.75 35.1 Q-0.25 34.55 -0.55 34.5 L-0.9 34.5 Q-1.45 34.5 -1.6 34.3 L-1.85 34.05 -1.95 33.7 -1.6 32.7 -1.5 31.5 -1.1 29.5 -1.0 28.95 Q-1.15 28.85 -0.3 28.0 L1.05 26.95 1.2 26.65 1.1 26.0 1.35 25.0 0.9 24.5 0.7 24.45 Q0.75 24.1 1.05 23.8 L1.6 22.7 Q1.8 22.4 2.25 22.35 L2.65 21.0 3.0 19.5 2.8 19.45 2.45 19.35 Q2.4 19.25 2.25 19.45 L1.9 16.1 1.5 15.5 Q1.5 14.8 3.1 12.7 L4.35 10.85 4.25 10.7 6.6 8.75 6.4 9.1 5.95 11.0 5.55 11.55 Q5.1 11.95 5.15 12.25 L4.9 12.6 3.9 13.45 Q3.5 14.0 3.75 14.55 L3.75 16.3 3.9 17.7 3.95 18.3 4.3 18.75 4.75 18.85 5.55 19.9 6.2 20.25 7.0 21.0 Q7.4 21.6 7.9 21.4 L8.1 21.6 Q8.05 21.45 8.15 21.35 L8.3 21.1 7.6 18.85 7.3 18.45 6.9 17.95 7.05 18.0 M22.25 11.65 L22.65 12.7 Q22.45 13.2 22.6 13.3 L22.7 13.8 Q22.4 14.2 22.4 14.75 L22.1 14.2 22.1 13.95 Q22.05 13.65 22.15 13.3 L22.05 13.2 22.0 12.4 22.0 11.95 21.95 11.65 22.1 11.65 22.25 11.65 M24.95 18.25 L24.8 17.65 24.5 17.2 24.35 16.15 25.35 17.75 26.7 21.35 27.0 22.1 27.0 22.4 26.95 22.65 27.0 22.85 27.05 23.15 26.85 22.7 26.4 22.05 25.8 21.2 25.75 20.45 25.4 19.8 24.95 18.25 M-1.8 26.0 Q-1.55 25.5 -0.75 25.45 L-0.5 25.45 -0.35 25.9 -1.15 26.35 -2.1 27.0 -4.45 27.7 -3.7 27.1 -3.4 27.1 -2.55 26.6 -1.95 26.1 -1.8 26.0 M6.4 33.15 L6.4 33.35 6.4 34.15 6.7 34.05 Q7.05 34.1 7.05 34.25 7.0 34.95 6.6 35.25 L6.4 35.0 5.85 35.4 Q9.1 38.2 9.4 37.8 8.75 37.5 8.35 36.15 L8.0 35.15 Q7.95 34.1 6.25 32.7 L6.4 33.15" fill="#0099ff" fill-opacity="0.5019608" fill-rule="evenodd" stroke="none"/>
      <path d="M22.55 10.1 L22.45 10.3 Q22.25 10.7 22.4 10.85 L21.95 10.95 22.0 11.25 21.7 11.1 21.5 11.25 21.4 11.55 Q21.5 11.35 21.15 11.1 L21.0 10.5 Q22.25 10.55 22.55 10.1 M22.25 11.65 L22.1 11.65 22.0 11.25 22.25 11.65 M20.25 23.8 L20.25 23.75 20.3 23.8 20.25 23.8 M7.25 12.15 L7.3 12.05 7.3 12.25 7.25 12.15 M7.45 40.0 L7.4 40.1 7.3 39.75 7.45 40.0" fill="#00cdff" fill-rule="evenodd" stroke="none"/>
    </g>
    <linearGradient gradientTransform="matrix(-0.0057, 1.0E-4, -3.0E-4, -0.0175, 14.65, 22.1)" gradientUnits="userSpaceOnUse" id="gradient0" spreadMethod="pad" x1="-819.2" x2="819.2">
      <stop offset="0.0" stop-color="#ffffff"/>
      <stop offset="0.9764705882352941" stop-color="#b9b9b9"/>
    </linearGradient>
    <linearGradient gradientTransform="matrix(0.0051, 0.0026, -0.0019, 0.0092, 12.1, 32.0)" gradientUnits="userSpaceOnUse" id="gradient1" spreadMethod="pad" x1="-819.2" x2="819.2">
      <stop offset="0.0" stop-color="#ffffff"/>
      <stop offset="0.9764705882352941" stop-color="#959595"/>
    </linearGradient>
    <linearGradient gradientTransform="matrix(-0.0039, 0.0033, -0.004, -0.0107, 3.85, 4.95)" gradientUnits="userSpaceOnUse" id="gradient2" spreadMethod="pad" x1="-819.2" x2="819.2">
      <stop offset="0.0" stop-color="#ffffff"/>
      <stop offset="1.0" stop-color="#d6d6d6" stop-opacity="0.0"/>
    </linearGradient>
  </defs>
</svg>
