<?xml version="1.0" encoding="UTF-8" standalone="no"?>
<svg xmlns:ffdec="https://www.free-decompiler.com/flash" xmlns:xlink="http://www.w3.org/1999/xlink" ffdec:objectType="frame" height="76.9px" width="53.55px" xmlns="http://www.w3.org/2000/svg">
  <g transform="matrix(1.0, 0.0, 0.0, 1.0, 25.9, 8.15)">
    <use ffdec:characterId="843" height="59.25" transform="matrix(5.6828, 0.0, 0.0, -0.6235, -21.9055, 51.8742)" width="4.55" xlink:href="#shape0"/>
    <use ffdec:characterId="876" height="77.5" transform="matrix(5.6828, 0.0, 0.0, -0.6235, -3.9534, 62.7505)" width="2.65" xlink:href="#shape1"/>
    <use ffdec:characterId="877" height="76.2" transform="matrix(5.6828, 0.0, 0.0, -0.6235, -10.2862, 61.4011)" width="3.65" xlink:href="#shape2"/>
    <use ffdec:characterId="894" height="2.9" transform="matrix(7.0, 0.0, 0.0, 7.0, -11.55, 0.7)" width="3.25" xlink:href="#shape3"/>
    <use ffdec:characterId="907" height="6.3" transform="matrix(7.0, 0.0, 0.0, 7.0, -22.05, 1.75)" width="6.8" xlink:href="#shape4"/>
    <use ffdec:characterId="841" height="3.5" transform="matrix(7.0, 0.0, 0.0, 7.0, -10.75, -1.15)" width="3.1" xlink:href="#shape5"/>
    <use ffdec:characterId="908" height="3.8" transform="matrix(7.0, 0.0, 0.0, 7.0, -14.7, 11.9)" width="4.35" xlink:href="#shape6"/>
  </g>
  <defs>
    <g id="shape0" transform="matrix(1.0, 0.0, 0.0, 1.0, 3.45, 57.3)">
      <path d="M0.4 -36.25 Q0.55 -35.15 0.6 -34.1 0.75 -31.6 0.75 -30.75 0.8 -29.4 0.8 -27.65 0.8 -27.15 0.8 -26.65 0.75 -25.75 0.7 -25.5 L0.7 -25.95 Q0.7 -26.0 0.7 -26.2 L0.6 -26.7 Q0.5 -27.4 0.2 -27.4 L0.2 -27.35 Q0.15 -27.35 0.15 -27.3 -0.15 -26.9 -0.25 -25.45 -0.35 -24.6 -0.35 -23.2 -0.35 -22.45 -0.3 -21.8 L-0.2 -20.65 Q-0.05 -19.05 -0.05 -16.8 L-0.05 -16.6 Q0.0 -16.4 0.05 -16.2 0.15 -16.0 0.4 -15.55 0.65 -15.15 0.75 -14.85 0.9 -14.35 0.95 -13.65 1.05 -11.4 1.1 -10.9 1.1 -10.45 1.1 -8.7 1.1 -7.4 1.05 -5.8 1.0 -3.9 0.95 -3.15 0.85 -2.1 0.55 -0.3 0.3 1.3 0.25 1.5 0.15 1.95 0.05 1.95 -0.45 1.95 -0.7 -0.9 -0.75 -1.8 -0.8 -2.95 -0.85 -3.6 -0.85 -4.0 -0.85 -5.15 -0.8 -6.65 -0.75 -7.5 -0.7 -9.5 -0.6 -11.4 -0.55 -12.45 -0.55 -14.15 -0.55 -15.5 L-0.55 -15.95 Q-0.6 -16.8 -0.7 -17.55 -0.8 -18.15 -0.95 -18.7 L-1.1 -19.35 Q-1.3 -20.0 -1.4 -22.5 -1.5 -24.55 -1.5 -26.0 -1.5 -28.75 -1.5 -29.2 -1.5 -31.1 -1.4 -32.55 -1.25 -36.3 -0.65 -38.6 -0.5 -39.2 -0.3 -39.05 -0.1 -38.85 0.1 -38.1 0.3 -37.35 0.4 -36.25 M-2.3 -57.2 L-2.25 -57.15 Q-2.05 -56.8 -1.8 -55.2 L-1.75 -54.75 -1.75 -54.7 Q-1.75 -54.6 -1.75 -54.4 -2.45 -53.0 -2.8 -49.65 -3.05 -47.0 -3.05 -43.8 L-3.05 -41.85 Q-3.05 -41.25 -3.0 -40.2 -3.05 -40.6 -3.1 -41.3 -3.15 -41.6 -3.2 -42.15 -3.3 -42.75 -3.35 -44.1 -3.45 -45.55 -3.45 -46.75 L-3.45 -48.7 Q-3.4 -50.05 -3.4 -51.05 L-3.4 -51.15 Q-3.35 -53.4 -3.15 -54.3 -3.1 -55.0 -3.0 -55.2 -2.9 -55.85 -2.8 -56.3 -2.6 -57.55 -2.3 -57.2 M-1.65 -37.0 L-1.65 -36.6 Q-1.7 -36.6 -1.7 -36.85 -1.75 -37.1 -1.8 -37.1 -1.9 -37.1 -2.0 -36.6 L-2.05 -36.3 -2.05 -36.05 Q-2.05 -35.85 -2.05 -35.9 L-2.1 -35.95 -2.1 -36.05 Q-2.1 -36.2 -2.1 -36.4 L-2.1 -36.8 Q-2.1 -37.25 -2.05 -37.8 -2.0 -38.35 -1.95 -38.6 -1.85 -38.9 -1.8 -38.6 -1.7 -38.4 -1.7 -37.7 -1.65 -37.55 -1.65 -37.0 M-3.3 -50.95 Q-3.35 -50.2 -3.35 -49.4 L-3.35 -49.65 Q-3.35 -50.3 -3.3 -50.95" fill="#ffffff" fill-opacity="0.69803923" fill-rule="evenodd" stroke="none"/>
    </g>
    <g id="shape1" transform="matrix(1.0, 0.0, 0.0, 1.0, 1.25, 76.75)">
      <path d="M0.5 -76.65 Q0.75 -76.3 0.9 -74.75 1.05 -73.0 1.05 -70.5 L1.05 -68.2 1.15 -67.15 Q1.25 -66.3 1.3 -65.55 1.4 -64.45 1.4 -63.95 1.4 -63.3 1.4 -62.55 1.4 -61.95 1.35 -61.35 1.35 -60.65 1.35 -59.75 L1.35 -59.6 1.3 -59.75 1.3 -59.65 Q1.2 -60.15 1.15 -60.85 1.15 -61.35 1.1 -62.25 L1.1 -63.8 Q1.05 -64.75 1.0 -65.5 L0.95 -66.4 Q0.85 -67.4 0.75 -68.2 0.5 -70.7 0.2 -70.7 0.1 -70.4 0.05 -70.1 L0.05 -69.85 Q0.05 -69.65 0.05 -69.55 L0.05 -69.85 Q0.0 -69.6 0.0 -69.4 L0.0 -69.5 Q0.0 -69.6 0.0 -69.85 0.0 -70.15 0.0 -70.35 0.0 -70.65 0.0 -70.9 -0.05 -71.2 -0.05 -72.2 -0.05 -74.7 0.15 -75.9 0.3 -77.0 0.5 -76.65 M0.25 -25.9 Q0.25 -25.2 0.25 -24.7 L0.25 -24.3 0.3 -23.9 Q0.5 -23.95 0.6 -22.3 0.65 -21.05 0.65 -19.45 L0.65 -18.6 Q0.65 -18.05 0.6 -17.8 L0.55 -17.6 Q0.7 -17.45 0.8 -14.55 0.85 -12.2 0.85 -10.3 0.85 -7.15 0.75 -4.35 0.55 0.75 0.0 0.75 -0.15 0.75 -0.3 0.4 -0.65 0.25 -0.9 -3.45 -0.95 -4.25 -1.0 -5.05 L-1.05 -6.15 Q-1.05 -7.25 -1.05 -7.65 L-1.05 -8.25 Q-1.05 -9.3 -1.05 -10.1 -1.05 -10.65 -1.0 -10.95 -1.15 -11.6 -1.2 -13.5 -1.25 -14.4 -1.25 -15.5 L-1.25 -16.45 Q-1.25 -20.2 -1.1 -23.6 -0.95 -26.9 -0.7 -28.5 -0.4 -30.15 -0.15 -29.2 -0.1 -28.95 -0.05 -28.65 0.05 -28.4 0.15 -27.35 0.2 -26.7 0.25 -25.9" fill="#ffffff" fill-opacity="0.69803923" fill-rule="evenodd" stroke="none"/>
    </g>
    <g id="shape2" transform="matrix(1.0, 0.0, 0.0, 1.0, 2.25, 76.35)">
      <path d="M0.35 -42.75 Q0.5 -42.75 0.7 -42.05 0.9 -41.3 1.05 -39.95 1.2 -38.4 1.2 -36.45 1.2 -34.2 1.1 -32.25 1.05 -30.9 0.9 -29.2 0.75 -27.2 0.7 -26.6 0.65 -25.95 0.65 -25.3 0.65 -22.85 1.05 -18.75 L1.05 -18.7 1.0 -18.65 Q1.1 -18.05 1.15 -17.4 L1.15 -17.3 1.25 -16.85 1.3 -16.05 Q1.3 -15.5 1.35 -14.85 L1.35 -13.9 1.4 -13.6 1.4 -12.0 Q1.4 -11.55 1.4 -11.1 L1.4 -9.4 1.35 -8.5 1.35 -7.4 1.3 -6.6 1.3 -6.4 1.25 -6.25 1.25 -5.9 1.2 -5.05 1.2 -4.7 Q1.15 -4.35 1.15 -4.0 L1.1 -3.5 1.05 -2.75 Q1.0 -2.45 1.0 -2.25 L1.0 -2.15 0.95 -2.05 Q0.95 -1.9 0.9 -1.75 L0.9 -1.6 Q0.85 -1.25 0.8 -1.05 0.8 -0.95 0.75 -0.9 0.65 -0.2 0.55 -0.15 L0.3 -0.3 0.3 -0.4 Q0.2 -0.5 0.1 -0.8 L0.1 -0.85 Q0.0 -1.0 -0.1 -1.25 L-0.25 -1.5 Q-0.65 -1.1 -1.1 -1.75 L-1.15 -1.9 Q-1.25 -1.95 -1.4 -2.65 -1.4 -2.9 -1.45 -3.05 L-1.45 -3.15 -1.5 -3.65 -1.55 -4.05 -1.55 -4.15 Q-1.6 -4.25 -1.65 -4.55 L-1.65 -4.85 -1.7 -4.95 -1.7 -5.75 -1.75 -6.35 -1.75 -7.1 -1.8 -7.4 -1.8 -7.5 -1.75 -7.4 -1.75 -7.85 Q-1.8 -8.35 -1.8 -8.8 L-1.8 -9.3 Q-1.8 -10.65 -1.8 -11.1 -1.8 -12.0 -1.75 -12.6 L-1.7 -12.95 -1.7 -13.0 Q-1.65 -14.05 -1.6 -14.45 -1.5 -15.6 -1.35 -15.75 -1.25 -16.0 -1.15 -16.0 -0.7 -16.0 -0.3 -20.85 -0.15 -22.65 -0.05 -24.65 0.05 -26.45 0.05 -27.4 0.05 -28.25 0.0 -29.2 -0.05 -30.8 -0.2 -30.8 -0.35 -30.8 -0.45 -29.5 -0.5 -29.0 -0.55 -28.45 L-0.55 -28.1 Q-0.5 -27.8 -0.45 -27.55 L-0.45 -27.45 -0.55 -27.35 Q-0.65 -27.35 -0.7 -28.7 -0.75 -29.15 -0.75 -29.7 L-0.75 -30.15 Q-0.75 -31.6 -0.65 -32.95 -0.6 -34.45 -0.45 -34.45 L-0.45 -34.5 Q-0.45 -35.15 -0.45 -35.65 -0.45 -36.5 -0.4 -37.6 -0.35 -38.75 -0.25 -39.8 0.0 -42.3 0.25 -42.55 0.3 -42.7 0.35 -42.75 M1.15 -6.9 L1.15 -6.9 M-1.05 -72.85 L-1.05 -72.7 -1.1 -70.65 -1.1 -70.3 Q-1.15 -70.45 -1.15 -70.7 -1.2 -70.85 -1.25 -71.7 -1.25 -72.4 -1.25 -72.6 -1.25 -72.85 -1.25 -73.05 -1.25 -73.2 -1.25 -73.25 -1.25 -74.0 -1.15 -74.8 -1.1 -75.75 -0.95 -76.15 -0.85 -76.55 -0.7 -76.05 -0.6 -75.45 -0.45 -73.65 -0.45 -73.4 -0.45 -73.1 -0.45 -73.0 -0.45 -72.8 -0.45 -72.85 -0.55 -73.6 -0.6 -74.2 -0.7 -74.2 -0.9 -74.2 -1.05 -72.85 M-2.1 -58.95 L-2.1 -58.75 Q-2.1 -58.7 -2.15 -58.7 L-2.15 -58.6 Q-2.25 -58.6 -2.25 -59.6 -2.25 -60.1 -2.25 -60.65 -2.25 -62.25 -2.2 -63.15 -2.1 -64.05 -1.95 -63.6 -1.9 -63.4 -1.8 -62.95 L-1.8 -62.85 Q-1.8 -62.7 -1.75 -62.6 -1.75 -62.5 -1.75 -62.3 L-1.75 -62.15 Q-1.8 -62.15 -1.8 -62.35 L-1.85 -62.35 Q-2.05 -62.35 -2.1 -61.05 -2.1 -60.75 -2.1 -59.85 -2.1 -59.3 -2.1 -58.95 M-1.35 -62.15 L-1.35 -62.4 Q-1.35 -62.7 -1.35 -63.1 -1.3 -63.5 -1.25 -63.65 L-1.25 -63.6 Q-1.25 -63.55 -1.25 -63.35 -1.25 -63.05 -1.3 -62.1 L-1.35 -62.15 M-1.55 -5.2 L-1.55 -5.2 M-1.65 -6.95 L-1.65 -6.95" fill="#ffffff" fill-opacity="0.69803923" fill-rule="evenodd" stroke="none"/>
    </g>
    <g id="shape3" transform="matrix(1.0, 0.0, 0.0, 1.0, 1.65, -0.1)">
      <path d="M1.55 1.05 Q1.6 1.1 1.6 1.5 1.6 2.15 0.95 2.75 0.75 2.95 0.5 3.0 L-0.35 3.0 -0.4 2.95 -0.75 2.9 -0.8 2.9 -1.0 2.8 Q-1.2 2.7 -1.35 2.5 -1.45 2.35 -1.5 2.1 L-1.55 2.0 Q-1.65 1.7 -1.65 1.45 L-1.65 1.2 Q-1.5 0.55 -0.9 0.25 -0.5 0.1 0.0 0.1 L0.4 0.1 Q0.55 0.15 0.85 0.3 L1.2 0.6 Q1.4 0.8 1.5 0.95 L1.55 1.05 M-0.45 0.2 L-0.1 0.15 -0.5 0.25 -0.45 0.2 M-1.35 2.25 L-1.4 2.2 -1.35 2.3 -1.35 2.25" fill="url(#gradient0)" fill-rule="evenodd" stroke="none"/>
    </g>
    <radialGradient cx="0" cy="0" gradientTransform="matrix(0.0016, -1.0E-4, 1.0E-4, 0.0016, -0.05, 1.55)" gradientUnits="userSpaceOnUse" id="gradient0" r="819.2" spreadMethod="pad">
      <stop offset="0.0" stop-color="#ffffff"/>
      <stop offset="0.6392156862745098" stop-color="#f0b0ff"/>
      <stop offset="1.0" stop-color="#f0b0ff" stop-opacity="0.0"/>
    </radialGradient>
    <g id="shape4" transform="matrix(1.0, 0.0, 0.0, 1.0, 3.15, -0.25)">
      <path d="M3.55 3.45 Q3.65 3.55 3.65 3.75 3.65 3.95 3.55 4.0 L2.9 4.0 Q2.7 4.0 2.7 4.05 L2.65 4.25 Q2.65 4.4 2.5 4.35 L2.1 4.3 2.1 4.25 2.4 4.3 2.55 4.25 Q2.65 3.95 2.95 3.95 3.35 4.0 3.45 3.75 L3.5 3.75 Q3.5 3.8 3.5 3.95 L3.55 3.95 Q3.6 3.9 3.6 3.75 L3.55 3.6 3.55 3.55 3.35 3.25 Q3.45 3.2 3.5 3.3 L3.55 3.45 M2.4 1.35 Q2.6 1.5 2.6 1.6 L2.65 1.65 2.75 1.7 2.75 1.75 Q2.4 1.6 2.0 1.25 L2.1 1.25 Q2.2 1.25 2.4 1.35 M1.1 0.7 L0.95 0.55 Q0.8 0.45 0.7 0.4 L0.45 0.35 0.45 0.4 0.05 0.3 Q-0.55 0.3 -0.95 0.65 -1.35 0.95 -1.35 1.45 L-1.35 1.65 Q-1.2 2.4 -0.95 2.6 L-0.9 2.65 -0.8 2.65 -0.8 2.7 -0.45 2.8 -0.45 2.85 Q-0.65 2.9 -1.0 2.65 -1.4 2.35 -1.4 1.8 L-1.45 1.7 -1.45 1.35 -1.4 1.2 -1.35 1.15 Q-1.2 0.75 -0.95 0.55 L-0.8 0.45 Q-0.5 0.3 0.05 0.3 L0.1 0.3 Q0.75 0.3 1.1 0.55 1.5 0.85 1.5 1.35 1.5 1.75 1.3 2.15 L1.2 2.3 1.15 2.35 0.95 2.6 1.0 2.5 0.95 2.55 Q0.85 2.65 0.75 2.65 L0.75 2.6 Q0.8 2.6 0.9 2.5 L1.0 2.45 1.1 2.25 1.15 2.2 1.35 1.6 1.35 1.65 1.4 1.6 1.4 1.4 Q1.4 1.15 1.3 1.05 L1.2 0.85 1.25 0.9 1.1 0.7 M0.65 2.7 L0.65 2.7 M1.9 4.75 L1.9 4.9 Q1.85 4.8 1.85 4.7 L1.9 4.7 1.9 4.75 M1.7 5.3 L1.8 5.3 1.95 5.35 2.0 5.3 2.05 5.3 2.05 5.1 2.0 5.0 2.0 4.95 2.15 5.05 2.15 5.3 2.05 5.4 2.0 5.4 1.95 5.45 1.7 5.35 1.55 5.35 1.55 5.3 1.45 5.3 1.65 5.25 1.7 5.3 M1.9 5.4 L1.9 5.4 M-1.2 2.35 L-1.35 2.0 Q-1.35 2.25 -1.1 2.45 L-1.2 2.35 M-3.0 3.75 Q-2.95 3.6 -2.85 3.6 L-2.95 3.7 -3.05 3.95 -2.8 4.0 -2.9 4.0 -3.15 3.95 -3.0 3.75 M-0.95 5.7 Q-0.95 5.75 -1.0 5.8 L-1.0 5.8 -1.05 5.9 -1.05 5.95 -0.95 5.95 Q-0.8 5.9 -0.65 6.15 L-0.6 6.2 -0.45 6.4 Q-0.4 6.45 -0.35 6.45 L-0.2 6.3 -0.15 6.3 -0.2 6.45 -0.25 6.55 -0.35 6.55 Q-0.45 6.55 -0.55 6.5 -0.6 6.45 -0.6 6.35 -0.6 6.25 -1.05 6.05 -1.2 5.95 -1.1 5.8 L-1.0 5.65 -1.0 5.3 -0.95 5.3 Q-0.9 5.35 -0.9 5.4 -0.9 5.55 -0.95 5.6 L-0.95 5.7 M-0.8 6.1 Q-0.9 6.0 -1.0 5.95 L-0.85 6.05 -0.85 6.1 -0.8 6.1" fill="#fdccff" fill-opacity="0.5019608" fill-rule="evenodd" stroke="none"/>
      <path d="M0.1 0.35 L-0.1 0.35 -0.5 0.45 -0.8 0.55 Q-1.1 0.8 -1.3 1.3 -1.4 1.5 -1.6 1.8 -1.75 2.1 -1.95 2.6 L-2.05 2.75 -1.9 2.55 -1.85 2.55 -1.85 2.65 Q-1.85 2.8 -2.05 3.05 L-2.3 3.35 -2.35 3.7 Q-2.25 3.85 -1.95 4.0 L-2.0 4.0 Q-2.5 4.0 -2.4 3.55 L-2.4 3.6 Q-2.45 3.3 -2.25 3.0 L-2.15 2.85 Q-1.9 2.4 -1.9 2.25 L-1.45 1.3 Q-1.0 0.4 -0.75 0.4 L-0.7 0.4 Q-0.6 0.4 -0.5 0.35 L-0.15 0.3 0.05 0.25 0.25 0.3 0.65 0.35 Q1.1 0.5 1.3 0.8 1.45 1.05 2.0 1.35 2.35 1.55 2.35 2.05 L2.5 2.4 Q2.6 2.75 2.6 2.95 L2.6 3.1 2.0 3.5 1.6 3.45 Q1.5 3.45 1.3 3.65 1.05 3.85 1.05 4.05 L1.15 4.25 Q1.2 4.4 1.2 4.6 L1.2 4.75 Q1.1 4.85 0.85 4.9 0.6 4.95 0.55 5.15 0.5 5.25 0.2 5.35 L-0.1 5.45 Q-0.35 5.45 -0.65 4.75 -0.95 4.05 -1.3 4.05 L-1.6 4.1 Q-1.35 3.95 -1.3 3.95 -0.95 3.95 -0.6 4.65 -0.25 5.35 -0.1 5.35 0.25 5.35 0.5 5.0 0.55 4.9 0.85 4.8 1.1 4.75 1.1 4.7 1.1 4.4 1.05 4.25 0.95 4.2 0.95 4.15 0.95 3.65 1.35 3.5 L1.85 3.45 Q2.55 3.15 2.55 3.1 L2.45 2.55 Q2.3 2.15 2.3 1.9 2.3 1.85 1.9 1.45 1.35 1.05 1.15 0.8 1.05 0.6 0.55 0.45 L0.1 0.35" fill="#ffffff" fill-rule="evenodd" stroke="none"/>
    </g>
    <g id="shape5" transform="matrix(1.0, 0.0, 0.0, 1.0, 1.6, 4.45)">
      <path d="M0.8 -2.65 L-0.05 -2.6 -0.95 -2.65 Q-1.3 -2.65 -1.3 -2.7 L-0.95 -2.8 0.8 -2.8 Q1.15 -2.75 1.15 -2.7 1.15 -2.65 0.8 -2.65" fill="#ffffff" fill-rule="evenodd" stroke="none"/>
      <path d="M1.5 -1.15 Q1.45 -1.1 0.95 -1.55 0.45 -1.95 -0.2 -2.6 L-1.25 -3.7 Q-1.65 -4.2 -1.6 -4.25 -1.55 -4.3 -1.05 -3.9 -0.55 -3.45 0.05 -2.85 L1.15 -1.7 Q1.55 -1.2 1.5 -1.15" fill="#ffffff" fill-rule="evenodd" stroke="none"/>
      <path d="M1.35 -4.15 Q1.4 -4.05 1.0 -3.65 L0.05 -2.6 Q-0.5 -2.05 -0.95 -1.65 -1.4 -1.3 -1.45 -1.35 -1.5 -1.4 -1.1 -1.8 L-0.15 -2.85 0.85 -3.8 Q1.3 -4.15 1.35 -4.15" fill="#ffffff" fill-rule="evenodd" stroke="none"/>
      <path d="M0.0 -1.45 Q0.0 -0.95 -0.05 -0.95 -0.1 -0.95 -0.15 -1.45 L-0.15 -3.95 Q-0.1 -4.45 -0.05 -4.45 0.0 -4.45 0.0 -3.95 L0.05 -2.7 0.0 -1.45" fill="#ffffff" fill-rule="evenodd" stroke="none"/>
    </g>
    <g id="shape6" transform="matrix(1.0, 0.0, 0.0, 1.0, 2.1, -1.7)">
      <path d="M1.4 1.75 L1.45 1.7 Q1.5 1.7 1.5 1.75 L1.55 1.85 1.5 1.95 1.55 2.05 1.65 2.2 1.75 2.25 1.85 2.4 Q1.95 2.45 1.95 2.6 L1.9 2.65 1.9 2.7 Q1.9 2.8 2.0 2.85 2.1 2.9 2.1 2.95 L2.05 3.15 1.9 3.3 1.4 3.4 1.15 3.5 1.0 3.5 Q0.9 3.55 0.85 3.6 L0.75 3.75 0.65 4.05 Q0.6 4.1 0.55 4.2 L0.45 4.35 0.3 4.4 Q0.25 4.45 0.25 4.6 L0.15 4.7 0.05 4.75 -0.1 4.8 -0.2 4.75 -0.5 4.75 Q-0.55 4.7 -0.6 4.65 -0.6 4.3 -0.75 4.15 -0.8 4.05 -1.0 3.95 L-1.2 3.75 Q-1.25 3.7 -1.25 3.55 L-1.25 3.45 Q-1.4 3.0 -1.55 3.0 -1.8 2.95 -1.85 2.85 -1.9 2.8 -1.8 2.6 L-1.75 2.35 -1.75 2.3 -1.8 2.25 -1.7 2.15 -1.7 2.2 -1.6 2.1 Q-1.6 2.15 -1.6 2.2 L-1.65 2.45 -1.65 2.75 -1.45 2.85 Q-1.35 2.9 -1.3 2.9 L-1.1 3.0 Q-1.0 3.1 -1.0 3.35 L-0.65 3.55 Q-0.55 3.6 -0.45 3.65 -0.4 3.75 -0.3 3.75 L-0.25 3.7 -0.25 3.45 -0.2 3.35 Q-0.3 3.3 -0.2 3.3 -0.1 3.3 -0.1 3.35 L-0.1 3.4 0.05 3.6 0.15 3.7 0.25 3.6 Q0.4 3.45 0.5 3.45 L0.9 3.3 1.35 3.2 Q1.65 3.05 1.65 2.95 1.65 2.85 1.6 2.7 L1.5 2.6 Q1.5 2.55 1.55 2.55 L1.55 2.4 1.5 2.25 1.4 2.2 1.4 2.1 1.45 1.9 1.4 1.75 M1.05 2.4 L1.15 2.45 1.2 2.45 1.25 2.5 1.25 2.55 1.2 2.7 1.1 2.75 1.0 2.75 0.9 2.85 0.7 2.75 0.6 2.65 0.65 2.6 0.7 2.6 0.85 2.5 1.05 2.4 M0.25 2.95 L0.4 3.0 Q0.55 3.05 0.55 3.1 0.55 3.2 0.5 3.2 L0.4 3.2 Q0.05 3.15 0.0 3.05 L0.15 2.95 0.25 2.95 M-1.7 2.3 L-1.65 2.45 -1.65 2.2 -1.7 2.25 -1.7 2.3 M-1.0 2.7 L-0.65 2.7 -0.5 2.8 -0.45 2.85 Q-0.35 2.85 -0.3 2.95 L-0.3 3.0 -0.4 3.05 -0.55 3.0 -0.7 3.0 Q-1.25 2.75 -1.0 2.7" fill="#fdccff" fill-opacity="0.5019608" fill-rule="evenodd" stroke="none"/>
      <path d="M0.2 3.2 L0.25 3.2 0.35 3.25 0.45 3.35 0.2 3.4 0.0 3.4 0.0 3.35 0.1 3.4 0.15 3.4 Q0.05 3.4 0.0 3.3 0.05 3.3 0.1 3.25 L0.2 3.2 M0.35 3.35 L0.4 3.35 0.35 3.3 0.35 3.35 M1.25 2.8 Q1.25 3.0 0.85 3.05 0.7 3.05 0.7 3.0 0.65 2.95 0.8 2.85 L1.25 2.75 1.25 2.8 M1.95 2.65 L2.0 2.75 2.05 2.75 2.25 2.9 2.25 3.25 2.2 3.3 2.25 3.6 Q2.25 3.85 1.95 3.85 L1.45 3.85 1.25 3.9 Q1.15 3.9 1.1 3.95 L1.05 4.0 1.05 4.05 0.95 4.15 1.0 4.6 0.95 4.8 0.75 4.95 Q0.65 5.05 0.55 5.05 0.5 5.05 0.5 5.1 L0.45 5.15 0.45 5.2 0.45 5.15 Q0.4 5.05 0.45 4.95 L0.5 4.9 0.6 4.85 0.7 4.75 Q0.8 4.7 0.8 4.5 L0.75 4.5 0.75 4.25 0.8 4.1 0.8 4.0 0.85 3.9 Q0.9 3.85 1.05 3.8 1.2 3.7 1.3 3.7 L1.6 3.75 1.55 3.65 Q1.45 3.65 1.45 3.6 L1.5 3.55 1.55 3.45 1.75 3.5 1.95 3.4 Q2.0 3.4 2.0 3.45 L1.95 3.65 Q1.95 3.7 1.8 3.75 L1.7 3.75 1.9 3.7 2.1 3.6 2.1 3.5 2.05 3.45 Q2.05 3.4 2.1 3.35 2.1 3.3 2.1 3.25 L2.15 3.1 2.1 3.0 1.95 2.85 1.85 2.8 Q1.85 2.7 1.9 2.65 L1.9 2.6 1.95 2.65 M2.2 3.0 L2.2 3.15 2.25 3.0 2.2 3.0 M1.6 3.8 L1.6 3.8 M0.9 4.05 L0.9 4.05 M0.85 4.3 L0.85 4.3 M0.9 4.25 L0.9 4.25 M0.0 5.35 L-0.05 5.4 -0.05 5.45 Q-0.1 5.5 -0.2 5.5 L-0.3 5.45 -0.45 5.3 -0.6 5.25 -0.7 5.3 -0.8 5.3 Q-0.9 5.3 -0.95 5.25 -1.0 5.15 -1.0 5.05 -1.0 4.9 -0.95 4.75 L-0.85 4.55 Q-0.85 4.45 -0.9 4.4 L-1.05 4.3 -1.15 4.25 -1.2 4.25 -1.4 4.2 Q-1.55 4.15 -1.6 3.9 L-1.55 3.85 -1.5 3.75 -1.55 3.6 -1.65 3.55 -1.7 3.5 -1.8 3.45 -1.8 3.4 -1.9 3.35 -1.95 3.3 -1.95 3.2 -1.9 3.05 -1.8 3.05 -1.8 3.25 -1.85 3.3 -1.6 3.5 Q-1.45 3.6 -1.35 3.75 L-1.35 3.85 -1.4 3.9 -1.4 4.0 -1.2 4.1 -1.15 4.15 -1.05 4.2 Q-0.7 4.35 -0.65 4.55 L-0.65 4.6 -0.6 4.65 Q-0.6 4.8 -0.65 4.9 L-0.7 4.95 -0.7 5.05 -0.65 5.1 -0.5 5.15 -0.35 5.15 Q-0.3 5.15 -0.2 5.25 L0.0 5.35 M-2.0 3.0 L-2.05 3.1 -2.05 3.25 -2.1 3.15 -2.05 3.05 -2.0 3.0 M-0.95 2.95 L-0.7 3.1 -0.55 3.2 -0.4 3.2 -0.3 3.1 -0.3 3.2 -0.25 3.2 -0.25 3.25 Q-0.25 3.3 -0.3 3.3 -0.35 3.4 -0.4 3.4 L-0.5 3.4 -0.8 3.3 -0.9 3.25 -0.95 3.2 -1.0 3.1 Q-1.0 3.05 -1.05 3.05 L-1.05 3.0 -1.1 2.95 -1.1 2.85 -1.05 2.9 Q-1.0 2.9 -0.95 2.95 M-1.3 3.95 L-1.0 4.0 -0.85 4.0 Q-0.75 4.05 -0.75 4.15 -1.15 4.2 -1.35 4.0 L-1.35 3.95 -1.3 3.95 M-0.85 4.4 L-0.85 4.4 M-0.2 5.45 L-0.2 5.45" fill="#ffffff" fill-opacity="0.7019608" fill-rule="evenodd" stroke="none"/>
    </g>
  </defs>
</svg>
