<?xml version="1.0" encoding="UTF-8" standalone="no"?>
<svg xmlns:ffdec="https://www.free-decompiler.com/flash" xmlns:xlink="http://www.w3.org/1999/xlink" ffdec:objectType="frame" height="412.4px" width="631.4px" xmlns="http://www.w3.org/2000/svg">
  <g transform="matrix(1.0, 0.0, 0.0, 1.0, 322.9, 329.55)">
    <use ffdec:characterId="442" height="16.45" transform="matrix(7.0, 0.0, 0.0, 5.1302, -204.6, -51.3092)" width="55.4" xlink:href="#shape0"/>
    <use ffdec:characterId="443" height="42.35" transform="matrix(7.0, 0.0, 0.0, 7.0, -136.9, -276.0)" width="39.7" xlink:href="#shape1"/>
  </g>
  <defs>
    <g id="shape0" transform="matrix(1.0, 0.0, 0.0, 1.0, 28.2, 13.9)">
      <path d="M7.95 -5.75 L8.05 -5.75 7.9 -5.8 7.95 -5.8 8.2 -5.75 8.35 -5.8 11.6 -5.7 Q13.55 -5.55 15.55 -5.2 L16.2 -4.55 16.35 -4.25 16.4 -4.1 Q16.0 -4.0 15.55 -4.25 14.95 -4.6 14.3 -4.85 L14.15 -4.9 14.2 -4.95 Q11.0 -5.55 7.75 -5.65 L7.8 -5.7 7.95 -5.75 M8.5 -0.05 L7.1 0.6 6.55 0.65 3.3 1.5 Q-0.85 1.8 -5.2 1.55 L-8.25 0.9 -9.45 1.0 -9.5 0.6 -9.5 0.5 -9.45 -0.75 -9.55 -0.85 -9.6 -0.85 -9.6 -0.9 Q-10.9 -0.95 -10.7 -1.6 L-4.5 -1.25 -3.15 -1.15 -2.1 -1.15 Q0.45 -1.2 2.75 -1.1 L8.3 -1.15 8.35 -1.15 9.4 -1.25 10.05 -1.05 10.1 -1.0 10.15 -0.85 10.25 -0.75 10.35 -0.6 10.35 -0.45 Q10.3 -0.35 10.25 -0.35 9.8 -0.2 9.35 -0.2 8.95 -0.2 8.6 -0.05 L8.5 -0.05 M-17.75 -4.0 L-17.7 -3.9 Q-17.7 -3.75 -17.7 -3.6 L-17.8 -3.4 -17.8 -3.35 -17.9 -3.3 -17.85 -2.85 -17.9 -2.65 -18.5 -2.15 Q-18.65 -2.35 -18.85 -2.4 L-19.3 -2.5 -20.95 -3.75 Q-20.65 -4.5 -19.7 -4.65 -14.4 -5.55 -9.1 -6.05 L-7.9 -6.0 Q-7.8 -6.0 -7.75 -5.95 L-11.65 -5.45 Q-13.3 -5.25 -14.9 -4.75 L-16.65 -4.35 -16.75 -4.35 -17.0 -4.25 -17.75 -4.0 M-1.0 0.8 L-1.0 0.9 -0.7 1.05 -1.05 0.7 -1.0 0.8" fill="#cbe3ed" fill-rule="evenodd" stroke="none"/>
      <path d="M7.95 -6.05 Q10.55 -6.0 13.1 -5.65 L18.7 -4.85 Q19.05 -4.8 19.25 -4.55 L17.4 -4.0 Q16.9 -4.0 16.3 -4.3 L15.5 -4.75 Q14.65 -5.0 13.75 -5.1 10.55 -5.45 7.8 -6.05 L7.95 -6.05 M9.3 -0.65 L9.6 -0.65 Q10.7 -0.7 11.65 -0.9 L11.0 -0.55 7.25 2.2 Q7.1 2.4 6.85 2.45 L6.85 2.4 6.4 2.25 4.15 2.3 Q2.5 2.4 0.8 2.4 L0.7 2.4 0.65 2.45 0.3 2.4 Q0.15 2.4 0.05 2.5 L-0.05 2.55 Q-0.7 2.5 -1.4 2.5 L-2.35 2.5 -2.4 2.55 Q-3.7 2.55 -4.9 2.5 L-6.1 2.35 -8.9 2.05 -10.9 0.95 -14.8 -0.35 -14.85 -1.45 -14.1 -1.4 Q-12.9 -1.4 -11.75 -1.05 L-11.35 -0.8 -9.55 -0.7 -9.5 -0.7 -9.95 -0.75 -9.0 -0.8 Q-0.05 0.1 9.3 -0.65 M-17.85 -3.55 L-17.85 -3.35 Q-17.85 -3.1 -17.7 -2.9 -17.4 -2.5 -17.0 -2.55 L-18.65 -2.0 -19.1 -2.2 -21.6 -3.95 Q-20.4 -4.5 -19.05 -4.65 L-16.0 -5.0 -14.5 -5.3 -12.8 -5.55 -12.25 -5.5 -9.45 -5.95 -9.1 -5.9 -8.85 -5.85 -8.8 -5.85 Q-11.1 -5.4 -13.45 -5.1 -15.0 -4.9 -16.55 -4.55 L-16.6 -4.35 Q-16.6 -4.25 -16.95 -4.15 -17.4 -3.95 -17.8 -3.65 L-17.85 -3.6 -17.85 -3.55" fill="#ebf3f7" fill-rule="evenodd" stroke="none"/>
      <path d="M9.15 -7.3 Q9.35 -7.95 10.0 -8.45 9.5 -7.9 9.15 -7.3 M13.45 -5.85 L13.2 -5.35 Q12.3 -3.8 11.0 -4.35 10.5 -4.3 10.05 -4.65 L10.1 -4.7 Q9.5 -6.4 11.35 -7.1 13.65 -7.9 13.15 -5.75 L13.4 -5.7 13.45 -5.85 M6.05 -0.75 Q5.85 -1.35 6.05 -2.0 6.35 -2.85 7.25 -2.6 L7.3 -2.45 Q7.35 -2.35 7.45 -2.3 L7.65 -2.3 Q7.8 -2.55 7.75 -2.8 8.1 -2.15 7.1 -1.15 6.45 -0.55 6.05 -0.75 M6.05 -0.1 L6.25 -0.1 6.4 -0.05 6.5 0.05 6.5 0.1 Q6.55 0.4 6.25 0.65 6.0 0.85 5.75 0.6 5.6 0.45 5.7 0.25 5.8 0.55 6.05 0.3 6.35 0.05 6.05 -0.1 M8.1 -1.15 L8.15 -1.15 8.2 -0.8 Q8.25 -0.55 8.0 -0.4 7.55 -0.35 7.5 -0.65 7.6 -0.6 7.7 -0.55 7.95 -0.65 8.05 -0.9 L8.1 -1.15 M9.1 -1.05 L9.2 -1.0 Q9.25 -1.35 9.5 -1.55 9.95 -1.9 10.5 -2.1 L10.5 -2.25 Q10.5 -2.0 10.4 -1.8 10.2 -1.2 9.9 -0.75 9.35 -0.8 9.1 -1.05 M14.7 -2.6 Q14.95 -2.9 15.4 -2.95 L15.3 -2.95 14.7 -2.6 M16.55 -2.85 Q16.65 -3.15 16.9 -3.5 17.4 -4.25 18.2 -4.45 16.95 -4.0 16.55 -2.85 M18.85 -4.9 Q18.85 -5.35 19.1 -5.8 L19.15 -5.85 Q19.05 -5.65 19.0 -5.45 18.85 -5.15 18.85 -4.9 M19.45 -7.55 L19.2 -7.9 19.25 -7.95 19.35 -7.95 19.4 -7.8 19.45 -7.6 19.45 -7.55 M26.45 -4.85 Q27.05 -4.4 27.05 -3.6 26.9 -4.35 26.45 -4.85 M27.1 -3.5 L27.15 -3.4 27.2 -2.9 27.1 -3.5 M25.9 -0.25 Q25.15 0.35 23.85 0.65 16.15 2.35 8.25 2.4 L7.5 2.45 Q6.85 2.45 6.4 2.3 6.7 2.1 6.95 1.7 L7.35 1.8 7.7 1.8 Q7.75 1.8 7.8 1.7 L7.8 1.65 7.85 1.55 7.85 1.5 Q8.0 1.25 8.15 1.1 L8.35 0.95 Q8.35 1.35 8.85 1.35 8.85 0.85 9.15 0.45 9.45 0.1 9.8 -0.05 L9.75 0.05 Q9.7 0.35 9.85 0.6 L9.9 0.6 Q10.4 0.4 10.8 0.0 11.25 -0.4 11.75 -0.6 11.85 -0.5 12.05 -0.45 L12.1 -0.5 12.1 -0.75 12.3 -0.75 12.15 -0.95 Q12.35 -1.55 12.9 -1.9 13.65 -2.35 14.3 -2.15 14.3 -2.1 14.3 -2.0 14.65 -1.75 15.05 -2.05 15.35 -2.3 15.65 -2.2 16.05 -2.1 16.45 -2.0 16.5 -1.7 16.85 -1.55 16.85 -1.75 16.9 -2.0 L17.55 -2.05 17.1 -2.5 Q17.3 -2.85 17.65 -3.15 18.25 -3.7 18.9 -4.0 19.1 -3.65 19.45 -3.4 19.45 -3.8 19.45 -4.2 L19.85 -4.25 Q19.85 -4.55 19.55 -4.6 19.6 -4.9 19.7 -5.2 20.1 -6.25 20.9 -6.9 L20.85 -6.95 20.7 -7.0 20.6 -7.05 20.7 -7.25 Q19.55 -8.2 20.0 -9.75 20.75 -12.45 23.9 -11.85 L23.9 -11.75 Q23.9 -11.6 24.0 -11.4 25.9 -10.85 25.85 -8.85 25.8 -7.15 24.9 -5.9 24.55 -6.0 24.15 -6.05 L23.45 -5.85 Q23.05 -5.75 23.1 -5.35 23.15 -5.0 23.45 -5.0 L23.5 -5.1 Q23.75 -5.05 23.8 -4.9 L23.9 -4.75 Q24.6 -4.95 25.1 -4.4 25.3 -4.15 25.55 -4.15 25.6 -4.1 25.6 -4.05 26.4 -2.9 26.0 -1.6 25.75 -0.9 25.9 -0.25 M5.45 2.05 L5.35 1.9 5.55 1.8 Q5.5 1.95 5.45 2.05 M7.85 0.55 Q8.1 0.35 8.45 0.45 L8.5 0.5 8.2 0.45 Q8.0 0.5 7.85 0.55 M22.55 -10.3 Q22.65 -10.0 22.95 -9.85 23.3 -9.65 23.5 -9.65 23.7 -9.95 23.5 -10.2 23.2 -10.6 22.75 -10.5 22.5 -10.5 22.55 -10.3 M16.4 -7.75 Q16.6 -7.95 16.9 -8.15 L16.95 -8.15 Q16.65 -8.0 16.4 -7.75 M18.3 -6.4 Q18.1 -6.0 17.5 -5.55 16.8 -5.05 16.35 -5.65 16.5 -6.05 16.8 -6.4 17.55 -7.35 18.25 -6.4 L18.3 -6.4 M25.8 -4.55 Q25.65 -4.6 25.55 -4.7 L25.3 -5.0 Q25.45 -4.95 25.55 -4.8 L25.8 -4.55 M26.3 -8.7 L26.3 -8.3 26.25 -8.3 26.25 -8.7 26.3 -8.7 M22.1 -2.15 Q21.45 -2.05 21.1 -1.55 20.75 -1.2 20.55 -0.8 20.05 -0.05 19.4 0.8 19.65 1.05 19.95 0.7 20.35 0.15 21.05 0.0 21.1 -0.65 21.5 -1.15 22.05 -1.8 22.8 -1.65 22.85 -1.85 22.6 -1.95 22.35 -2.1 22.1 -2.15 M-28.05 -7.35 Q-27.85 -7.85 -27.85 -8.45 -27.75 -11.05 -25.4 -12.0 -23.05 -12.95 -21.6 -11.25 -20.15 -9.55 -21.75 -8.2 -22.0 -8.45 -22.35 -8.6 L-22.45 -8.55 Q-22.3 -7.9 -22.25 -7.2 -22.15 -6.3 -22.8 -5.75 L-22.95 -5.75 Q-23.8 -5.75 -24.45 -5.3 -25.2 -4.85 -25.75 -4.2 -25.75 -4.1 -25.75 -4.05 -25.7 -3.95 -25.7 -3.9 L-25.65 -3.8 -25.65 -3.7 -25.4 -3.75 -24.65 -4.2 Q-22.7 -5.4 -21.5 -3.95 L-21.55 -3.9 -21.5 -3.85 -21.5 -3.75 -21.45 -3.6 -21.25 -3.6 Q-19.9 -3.5 -19.6 -2.2 L-19.55 -1.75 -19.6 -1.7 Q-19.7 -1.6 -19.65 -1.5 L-19.6 -1.45 -19.45 -1.5 -19.4 -1.3 Q-19.1 -1.45 -18.95 -1.65 -17.85 -2.0 -16.6 -2.0 -16.1 -2.0 -15.8 -1.7 -15.25 -1.05 -14.85 -0.5 L-14.9 -0.35 Q-15.05 0.25 -14.5 0.15 L-14.5 0.1 -14.45 0.05 -14.45 0.1 Q-14.4 -0.1 -14.35 -0.25 -13.7 -0.6 -13.0 -0.3 -12.6 -0.1 -12.25 -0.1 -12.25 0.05 -12.15 0.15 -12.1 0.3 -11.95 0.25 -11.85 0.2 -11.85 0.15 L-11.75 -0.2 Q-11.7 -0.35 -11.65 -0.45 L-11.6 -0.5 -11.2 -0.4 Q-10.5 -0.15 -10.75 0.4 -10.85 0.65 -10.7 0.9 L-10.6 0.9 Q-10.55 1.05 -10.45 1.05 -10.1 1.1 -9.8 1.05 L-9.65 1.05 -9.55 1.2 -9.35 1.6 Q-9.25 1.65 -9.25 1.75 L-9.25 1.85 Q-9.35 2.05 -9.6 2.15 -13.5 2.45 -17.5 1.85 -20.8 1.4 -24.1 1.2 -25.1 1.45 -25.85 1.15 L-25.95 1.15 -26.45 0.85 -26.5 0.8 -26.8 0.8 Q-28.3 0.8 -28.1 -0.4 -28.0 -0.9 -27.7 -1.25 -28.0 -1.65 -28.15 -2.4 -28.2 -2.65 -28.15 -2.9 -27.7 -3.6 -26.85 -4.05 -25.55 -4.75 -25.9 -5.45 L-26.0 -5.4 Q-26.35 -5.8 -27.05 -6.2 -27.45 -6.45 -27.55 -6.65 -27.85 -6.95 -28.05 -7.35 M-9.35 0.7 L-9.9 0.5 -9.9 0.4 Q-9.6 0.45 -9.35 0.7 M-11.7 -1.3 L-11.8 -1.3 Q-12.0 -1.2 -12.15 -1.05 L-12.2 -1.0 -12.15 -0.85 -12.25 -0.9 -12.2 -1.0 Q-12.1 -1.25 -11.8 -1.3 L-11.7 -1.3 M-19.0 -2.55 L-19.0 -2.7 -19.0 -2.55 M-19.7 -3.6 Q-20.15 -3.95 -20.75 -4.05 L-20.7 -4.1 Q-20.1 -4.05 -19.7 -3.6 M-27.95 -3.75 Q-27.7 -4.2 -27.2 -4.5 L-26.75 -4.75 -27.95 -3.75 M-14.8 -8.15 Q-14.65 -7.85 -14.8 -7.4 -14.75 -7.6 -14.75 -7.75 -14.75 -8.0 -14.8 -8.15 M-15.7 -6.2 Q-16.05 -5.85 -16.6 -6.05 -17.65 -6.4 -17.75 -7.2 L-17.65 -7.15 Q-17.55 -7.4 -17.4 -7.45 -17.25 -7.55 -17.1 -7.7 -16.95 -7.8 -17.1 -7.95 -17.2 -8.1 -16.9 -8.15 -16.1 -8.35 -15.9 -7.65 L-15.65 -7.0 Q-15.7 -6.9 -15.75 -6.85 L-15.9 -6.7 Q-16.0 -6.65 -16.05 -6.55 L-16.0 -6.3 Q-15.85 -6.2 -15.7 -6.2 M-18.1 -5.0 L-18.05 -5.0 -17.8 -4.85 -17.7 -4.8 -17.6 -4.4 -17.55 -4.25 -17.5 -4.25 -18.0 -4.25 -18.2 -4.35 Q-18.3 -4.55 -18.2 -4.75 L-18.1 -5.0 M-15.75 -3.0 Q-15.95 -3.0 -16.1 -3.2 -17.7 -5.05 -15.5 -5.95 L-15.35 -5.85 Q-15.85 -5.85 -16.25 -5.5 -16.85 -5.05 -16.65 -4.5 -16.4 -4.45 -16.25 -4.65 -16.0 -4.95 -15.7 -5.05 -15.1 -4.75 -15.3 -4.2 -15.5 -3.55 -15.75 -3.0 M-7.35 -1.15 L-7.35 -1.1 Q-7.4 -1.05 -7.3 -0.95 -7.15 -0.7 -6.95 -0.85 -6.9 -0.65 -7.1 -0.45 -7.5 -0.35 -7.55 -0.8 -7.6 -1.1 -7.35 -1.15 M-3.9 -1.3 L-3.8 -1.15 Q-3.4 -1.2 -3.05 -1.55 -2.45 -2.05 -1.85 -1.55 L-1.8 -1.3 Q-1.7 -0.75 -2.25 -0.65 -2.8 -0.6 -3.1 -0.35 -3.2 -0.55 -3.4 -0.65 -3.65 -0.6 -3.7 -0.25 -3.8 0.35 -3.55 0.9 -3.45 1.2 -3.25 1.2 L-1.15 1.15 Q-0.95 1.4 -0.9 1.75 L-0.8 2.35 -0.6 2.3 Q-1.85 2.5 -3.25 2.2 -3.0 1.9 -3.4 1.55 L-3.65 1.75 Q-3.9 1.05 -4.0 0.3 -4.05 -0.25 -3.95 -0.75 -4.0 -1.0 -3.9 -1.3 M-1.85 -0.15 L-1.65 -0.45 Q-1.4 -0.75 -1.35 -1.05 -1.3 -0.55 -1.65 -0.15 L-1.85 -0.15 M-1.75 1.85 L-1.75 1.85 M-3.1 1.75 L-3.1 1.75" fill="#b7bfbf" fill-rule="evenodd" stroke="none"/>
      <path d="M10.0 -8.45 Q10.3 -8.65 10.75 -8.85 11.15 -9.0 11.45 -9.1 12.6 -8.9 13.1 -8.3 L13.4 -8.1 Q13.55 -7.9 13.65 -7.65 L13.7 -7.6 13.7 -7.5 13.75 -7.45 13.45 -5.85 13.4 -5.7 13.15 -5.75 Q13.65 -7.9 11.35 -7.1 9.5 -6.4 10.1 -4.7 L10.05 -4.65 Q9.65 -5.0 9.35 -5.75 9.0 -6.6 9.15 -7.3 9.5 -7.9 10.0 -8.45 M7.75 -2.8 Q7.8 -2.55 7.65 -2.3 L7.45 -2.3 Q7.35 -2.35 7.3 -2.45 L7.25 -2.6 Q6.35 -2.85 6.05 -2.0 5.85 -1.35 6.05 -0.75 5.75 -0.9 5.6 -1.5 5.15 -3.05 6.95 -3.4 7.55 -3.15 7.75 -2.8 M5.7 0.25 L5.75 0.1 Q5.85 -0.05 6.05 -0.1 6.35 0.05 6.05 0.3 5.8 0.55 5.7 0.25 M7.5 -0.65 Q7.5 -0.8 7.55 -0.95 7.6 -1.25 7.85 -1.25 L8.0 -1.2 8.1 -1.15 8.05 -0.9 Q7.95 -0.65 7.7 -0.55 7.6 -0.6 7.5 -0.65 M10.5 -2.25 L10.5 -2.1 Q9.95 -1.9 9.5 -1.55 9.25 -1.35 9.2 -1.0 L9.1 -1.05 8.85 -1.85 8.9 -1.9 9.0 -2.25 Q9.2 -2.85 9.9 -3.05 10.1 -3.05 10.25 -2.95 10.4 -2.9 10.5 -2.75 L10.5 -2.25 M8.5 0.5 L8.6 0.5 Q8.6 0.3 8.7 0.15 8.9 -0.3 9.5 -0.4 L9.5 -0.45 Q9.9 -0.45 10.25 -0.25 L10.25 -0.35 Q10.4 -1.5 11.75 -0.95 L11.85 -0.95 11.85 -1.1 Q11.8 -1.3 11.85 -1.5 11.9 -2.15 12.3 -2.6 12.55 -2.9 12.85 -2.95 13.75 -3.1 14.35 -2.55 L14.55 -2.25 14.65 -2.45 14.65 -2.5 14.7 -2.6 15.3 -2.95 15.4 -2.95 15.45 -2.95 Q16.0 -3.0 16.5 -2.65 L16.5 -2.7 16.55 -2.85 Q16.95 -4.0 18.2 -4.45 L18.85 -4.55 18.85 -4.9 Q18.85 -5.15 19.0 -5.45 19.05 -5.65 19.15 -5.85 19.55 -6.5 20.15 -6.8 L20.1 -6.85 20.0 -6.9 19.45 -7.5 19.45 -7.55 19.45 -7.6 19.4 -7.8 19.35 -7.95 19.25 -7.95 19.2 -7.9 Q18.7 -8.75 18.6 -9.9 18.45 -11.55 19.9 -12.55 21.2 -13.4 22.8 -13.7 26.6 -13.8 27.05 -10.4 27.25 -9.0 26.75 -7.7 26.2 -6.2 24.95 -5.6 L24.8 -5.55 Q25.9 -5.35 26.45 -4.85 26.9 -4.35 27.05 -3.6 L27.05 -3.5 27.1 -3.5 27.2 -2.9 27.2 -2.85 26.2 -0.5 26.0 -0.3 25.9 -0.25 Q25.75 -0.9 26.0 -1.6 26.4 -2.9 25.6 -4.05 25.6 -4.1 25.55 -4.15 25.3 -4.15 25.1 -4.4 24.6 -4.95 23.9 -4.75 L23.8 -4.9 Q23.75 -5.05 23.5 -5.1 L23.45 -5.0 Q23.15 -5.0 23.1 -5.35 23.05 -5.75 23.45 -5.85 L24.15 -6.05 Q24.55 -6.0 24.9 -5.9 25.8 -7.15 25.85 -8.85 25.9 -10.85 24.0 -11.4 23.9 -11.6 23.9 -11.75 L23.9 -11.85 Q20.75 -12.45 20.0 -9.75 19.55 -8.2 20.7 -7.25 L20.6 -7.05 20.7 -7.0 20.85 -6.95 20.9 -6.9 Q20.1 -6.25 19.7 -5.2 19.6 -4.9 19.55 -4.6 19.85 -4.55 19.85 -4.25 L19.45 -4.2 Q19.45 -3.8 19.45 -3.4 19.1 -3.65 18.9 -4.0 18.25 -3.7 17.65 -3.15 17.3 -2.85 17.1 -2.5 L17.55 -2.05 16.9 -2.0 Q16.85 -1.75 16.85 -1.55 16.5 -1.7 16.45 -2.0 16.05 -2.1 15.65 -2.2 15.35 -2.3 15.05 -2.05 14.65 -1.75 14.3 -2.0 14.3 -2.1 14.3 -2.15 13.65 -2.35 12.9 -1.9 12.35 -1.55 12.15 -0.95 L12.3 -0.75 12.1 -0.75 12.1 -0.5 12.05 -0.45 Q11.85 -0.5 11.75 -0.6 11.25 -0.4 10.8 0.0 10.4 0.4 9.9 0.6 L9.85 0.6 Q9.7 0.35 9.75 0.05 L9.8 -0.05 Q9.45 0.1 9.15 0.45 8.85 0.85 8.85 1.35 8.35 1.35 8.35 0.95 L8.15 1.1 Q8.0 1.25 7.85 1.5 L7.85 1.55 7.8 1.65 7.8 1.7 Q7.75 1.8 7.7 1.8 L7.35 1.8 6.95 1.7 Q6.7 2.1 6.4 2.3 L6.3 2.3 Q5.75 2.35 5.45 2.05 5.5 1.95 5.55 1.8 L6.05 1.85 Q6.05 1.55 6.25 1.4 6.75 0.95 7.45 1.35 L7.55 1.2 7.65 0.9 Q7.75 0.7 7.85 0.6 L7.85 0.55 Q8.0 0.5 8.2 0.45 L8.5 0.5 M22.55 -10.3 Q22.5 -10.5 22.75 -10.5 23.2 -10.6 23.5 -10.2 23.7 -9.95 23.5 -9.65 23.3 -9.65 22.95 -9.85 22.65 -10.0 22.55 -10.3 M16.95 -8.15 Q18.9 -7.5 18.3 -6.4 L18.25 -6.4 Q17.55 -7.35 16.8 -6.4 16.5 -6.05 16.35 -5.65 L16.3 -5.75 Q15.55 -7.0 16.4 -7.75 16.65 -8.0 16.95 -8.15 M22.1 -2.15 Q22.35 -2.1 22.6 -1.95 22.85 -1.85 22.8 -1.65 22.05 -1.8 21.5 -1.15 21.1 -0.65 21.05 0.0 20.35 0.15 19.95 0.7 19.65 1.05 19.4 0.8 20.05 -0.05 20.55 -0.8 20.75 -1.2 21.1 -1.55 21.45 -2.05 22.1 -2.15 M26.3 -8.7 L26.25 -8.7 26.25 -8.3 26.3 -8.3 26.3 -8.7 M25.8 -4.55 L25.55 -4.8 Q25.45 -4.95 25.3 -5.0 L25.55 -4.7 Q25.65 -4.6 25.8 -4.55 M-9.6 2.15 Q-9.35 2.05 -9.25 1.85 L-9.25 1.75 Q-9.25 1.65 -9.35 1.6 L-9.55 1.2 -9.65 1.05 -9.8 1.05 Q-10.1 1.1 -10.45 1.05 -10.55 1.05 -10.6 0.9 L-10.7 0.9 Q-10.85 0.65 -10.75 0.4 -10.5 -0.15 -11.2 -0.4 L-11.6 -0.5 -11.65 -0.45 Q-11.7 -0.35 -11.75 -0.2 L-11.85 0.15 Q-11.85 0.2 -11.95 0.25 -12.1 0.3 -12.15 0.15 -12.25 0.05 -12.25 -0.1 -12.6 -0.1 -13.0 -0.3 -13.7 -0.6 -14.35 -0.25 -14.4 -0.1 -14.45 0.1 L-14.45 0.05 -14.5 0.1 -14.5 0.15 Q-15.05 0.25 -14.9 -0.35 L-14.85 -0.5 Q-15.25 -1.05 -15.8 -1.7 -16.1 -2.0 -16.6 -2.0 -17.85 -2.0 -18.95 -1.65 -19.1 -1.45 -19.4 -1.3 L-19.45 -1.5 -19.6 -1.45 -19.65 -1.5 Q-19.7 -1.6 -19.6 -1.7 L-19.55 -1.75 -19.6 -2.2 Q-19.9 -3.5 -21.25 -3.6 L-21.45 -3.6 -21.5 -3.75 -21.5 -3.85 -21.55 -3.9 -21.5 -3.95 Q-22.7 -5.4 -24.65 -4.2 L-25.4 -3.75 -25.65 -3.7 -25.65 -3.8 -25.7 -3.9 Q-25.7 -3.95 -25.75 -4.05 -25.75 -4.1 -25.75 -4.2 -25.2 -4.85 -24.45 -5.3 -23.8 -5.75 -22.95 -5.75 L-22.8 -5.75 Q-22.15 -6.3 -22.25 -7.2 -22.3 -7.9 -22.45 -8.55 L-22.35 -8.6 Q-22.0 -8.45 -21.75 -8.2 -20.15 -9.55 -21.6 -11.25 -23.05 -12.95 -25.4 -12.0 -27.75 -11.05 -27.85 -8.45 -27.85 -7.85 -28.05 -7.35 -28.3 -8.0 -28.15 -8.95 -27.7 -12.95 -23.5 -13.9 -20.35 -14.25 -19.9 -11.45 -19.6 -9.85 -20.35 -9.05 -20.4 -8.75 -20.85 -8.45 -21.25 -8.2 -21.65 -7.95 L-21.6 -7.85 Q-21.4 -7.15 -21.6 -6.4 -21.85 -5.75 -22.2 -5.6 L-22.05 -5.5 Q-21.35 -5.0 -21.15 -4.0 L-21.15 -3.9 -21.0 -4.0 -20.75 -4.05 Q-20.15 -3.95 -19.7 -3.6 L-19.55 -3.4 -19.0 -2.7 -19.0 -2.55 -19.05 -2.2 -18.9 -2.3 -18.8 -2.4 -18.2 -2.65 -18.15 -2.65 -17.6 -2.85 Q-15.95 -3.15 -15.0 -1.9 -14.6 -1.4 -14.6 -0.85 L-14.4 -0.95 Q-14.15 -1.05 -13.9 -1.1 L-13.8 -1.15 Q-13.15 -1.1 -12.6 -0.75 L-12.35 -0.55 Q-12.35 -0.75 -12.25 -0.9 L-12.15 -0.85 -12.2 -1.0 -12.15 -1.05 Q-12.0 -1.2 -11.8 -1.3 L-11.7 -1.3 Q-10.9 -1.35 -10.45 -0.65 -10.15 -0.2 -10.2 0.4 -10.05 0.35 -9.9 0.4 L-9.9 0.5 -9.35 0.7 -9.3 0.75 Q-9.15 0.9 -9.1 1.1 L-9.0 1.05 Q-8.65 1.0 -8.4 1.25 -8.2 1.45 -8.2 1.7 L-6.65 1.7 -6.65 1.8 Q-8.1 2.05 -9.6 2.15 M-26.0 -5.4 L-25.9 -5.45 Q-25.55 -4.75 -26.85 -4.05 -27.7 -3.6 -28.15 -2.9 -28.15 -3.35 -27.95 -3.75 L-26.75 -4.75 Q-26.65 -4.8 -26.6 -4.85 L-25.9 -5.2 -25.85 -5.2 -26.0 -5.4 M-14.8 -7.4 Q-15.0 -6.85 -15.7 -6.2 -15.85 -6.2 -16.0 -6.3 L-16.05 -6.55 Q-16.0 -6.65 -15.9 -6.7 L-15.75 -6.85 Q-15.7 -6.9 -15.65 -7.0 L-15.9 -7.65 Q-16.1 -8.35 -16.9 -8.15 -17.2 -8.1 -17.1 -7.95 -16.95 -7.8 -17.1 -7.7 -17.25 -7.55 -17.4 -7.45 -17.55 -7.4 -17.65 -7.15 L-17.75 -7.2 Q-17.85 -7.7 -17.5 -8.45 L-17.5 -8.5 Q-17.2 -9.15 -16.5 -9.25 -15.05 -8.85 -14.8 -8.15 -14.75 -8.0 -14.75 -7.75 -14.75 -7.6 -14.8 -7.4 M-17.5 -4.25 L-17.55 -4.25 -17.6 -4.4 -17.7 -4.8 -17.8 -4.85 -18.05 -5.0 -18.1 -5.0 Q-17.95 -5.2 -17.75 -5.25 L-17.6 -5.25 -17.4 -5.15 Q-17.3 -5.0 -17.3 -4.8 L-17.3 -4.75 Q-17.3 -4.45 -17.5 -4.25 M-15.35 -5.85 Q-13.6 -4.75 -15.45 -3.15 -15.6 -3.0 -15.75 -3.0 -15.5 -3.55 -15.3 -4.2 -15.1 -4.75 -15.7 -5.05 -16.0 -4.95 -16.25 -4.65 -16.4 -4.45 -16.65 -4.5 -16.85 -5.05 -16.25 -5.5 -15.85 -5.85 -15.35 -5.85 M-6.95 -0.85 Q-7.15 -0.7 -7.3 -0.95 -7.4 -1.05 -7.35 -1.1 L-7.35 -1.15 Q-7.05 -1.15 -6.95 -0.85 M-3.9 -1.3 L-3.85 -1.4 -3.65 -1.65 Q-3.4 -2.05 -2.9 -2.2 -1.7 -2.45 -1.4 -1.45 -1.35 -1.25 -1.35 -1.05 -1.4 -0.75 -1.65 -0.45 L-1.85 -0.15 -1.9 -0.15 -1.95 -0.2 -2.05 -0.2 -3.15 -0.05 -3.25 -0.05 -3.25 0.0 Q-3.15 0.25 -3.15 0.6 -3.15 0.9 -2.95 1.2 -2.2 0.75 -1.4 0.75 -0.5 0.75 -0.55 1.7 -0.55 1.85 -0.65 1.95 -0.3 1.95 -0.05 2.1 0.0 2.1 0.05 2.15 L-0.05 2.2 -0.6 2.3 -0.8 2.35 -0.9 1.75 Q-0.95 1.4 -1.15 1.15 L-3.25 1.2 Q-3.45 1.2 -3.55 0.9 -3.8 0.35 -3.7 -0.25 -3.65 -0.6 -3.4 -0.65 -3.2 -0.55 -3.1 -0.35 -2.8 -0.6 -2.25 -0.65 -1.7 -0.75 -1.8 -1.3 L-1.85 -1.55 Q-2.45 -2.05 -3.05 -1.55 -3.4 -1.2 -3.8 -1.15 L-3.9 -1.3 M-3.65 1.75 L-3.4 1.55 Q-3.0 1.9 -3.25 2.2 L-3.3 2.2 -3.45 2.15 -3.65 1.75" fill="#d0d9d9" fill-rule="evenodd" stroke="none"/>
      <path d="M4.65 -0.75 Q4.5 -0.65 4.45 -0.8 4.4 -0.9 4.45 -0.95 4.55 -1.05 4.6 -1.05 4.8 -0.95 4.65 -0.75 M8.6 -3.15 Q8.3 -3.1 8.55 -3.25 8.75 -3.2 8.6 -3.15 M10.15 -3.2 Q9.95 -3.2 10.1 -3.35 L10.15 -3.4 Q10.45 -3.25 10.15 -3.2 M11.1 -4.75 Q10.85 -4.75 11.1 -4.85 11.3 -4.8 11.1 -4.75 M15.4 -7.25 Q15.2 -7.25 15.4 -7.35 15.7 -7.2 15.4 -7.25 M16.65 -5.95 Q16.5 -6.0 16.65 -6.0 16.9 -5.9 16.65 -5.95 M16.8 -6.1 Q17.0 -6.0 16.8 -6.0 L16.65 -6.05 Q16.5 -6.05 16.7 -6.2 16.9 -6.15 16.8 -6.1 M15.4 -3.8 Q15.25 -3.7 15.2 -3.85 15.2 -3.9 15.2 -3.95 15.3 -4.0 15.35 -4.0 L15.35 -4.05 Q15.6 -3.95 15.4 -3.8 M12.5 -4.5 Q12.65 -4.35 12.45 -4.45 12.3 -4.4 12.25 -4.5 12.25 -4.6 12.3 -4.65 12.35 -4.7 12.45 -4.7 12.6 -4.6 12.5 -4.5 M12.0 -1.65 Q12.1 -1.55 12.0 -1.5 11.8 -1.45 11.8 -1.65 11.8 -1.75 11.9 -1.75 L12.0 -1.65 M13.65 -0.8 Q13.45 -0.8 13.65 -0.95 L13.7 -1.0 Q13.95 -0.85 13.65 -0.8 M17.15 -0.65 Q17.0 -0.5 16.9 -0.7 L16.9 -0.8 Q16.95 -0.9 17.05 -0.9 17.35 -0.85 17.15 -0.65 M15.85 -1.25 Q15.9 -1.2 15.85 -1.1 15.7 -0.95 15.6 -1.15 15.55 -1.35 15.7 -1.35 15.8 -1.35 15.85 -1.25 M20.35 -3.8 Q20.25 -3.7 20.15 -3.85 20.1 -3.95 20.15 -4.0 20.25 -4.1 20.35 -4.1 20.6 -4.0 20.35 -3.8 M22.15 -6.0 Q22.35 -5.95 22.3 -5.85 22.35 -5.85 22.3 -5.85 L22.25 -5.75 Q22.1 -5.65 22.0 -5.8 22.0 -5.85 22.0 -5.9 22.05 -6.0 22.15 -6.0 M22.0 -1.95 Q22.3 -1.9 22.1 -1.7 L21.85 -1.7 21.85 -1.8 Q21.9 -1.95 22.0 -1.95 M24.6 -7.8 Q24.65 -7.75 24.6 -7.65 24.4 -7.6 24.4 -7.8 24.4 -7.9 24.45 -7.9 L24.6 -7.8 M23.4 -2.9 Q23.1 -2.95 23.4 -3.05 23.7 -2.85 23.4 -2.9 M24.5 -1.45 Q24.35 -1.4 24.4 -1.45 24.6 -1.5 24.5 -1.45 M23.7 -0.35 L23.85 -0.3 23.9 -0.3 Q23.9 -0.1 23.7 0.0 23.5 0.05 23.45 -0.15 L23.45 -0.2 23.5 -0.3 Q23.55 -0.35 23.6 -0.35 L23.7 -0.35 M18.45 0.85 Q18.55 0.85 18.55 0.95 18.55 1.1 18.35 1.15 18.2 1.2 18.1 1.0 L18.15 0.9 Q18.15 0.8 18.25 0.8 L18.3 0.8 18.45 0.85 M15.8 1.2 Q15.75 1.3 15.65 1.4 15.55 1.4 15.45 1.3 L15.45 1.1 Q15.5 1.0 15.6 1.0 15.8 1.0 15.8 1.2 M14.1 0.5 Q14.05 0.4 14.15 0.35 14.25 0.35 14.3 0.4 14.4 0.5 14.35 0.55 14.15 0.7 14.1 0.5 M12.5 0.2 Q12.5 0.35 12.4 0.4 12.2 0.45 12.15 0.3 L12.15 0.2 12.2 0.15 Q12.2 0.05 12.3 0.05 12.45 0.05 12.5 0.2 M12.05 1.65 L12.15 1.65 Q12.45 1.7 12.25 1.9 12.05 2.05 12.0 1.85 L12.0 1.75 Q12.0 1.7 12.05 1.65 M11.0 0.15 Q11.05 0.2 11.05 0.25 10.95 0.5 10.8 0.3 10.65 0.2 10.85 0.1 L11.0 0.15 M6.8 0.65 Q6.9 0.6 7.0 0.55 7.25 0.7 7.0 0.85 6.8 0.95 6.75 0.8 6.75 0.7 6.8 0.65 M-24.5 -7.75 Q-24.6 -7.65 -24.65 -7.8 L-24.65 -7.9 Q-24.65 -8.0 -24.5 -8.0 -24.35 -7.9 -24.5 -7.75 M-25.4 -5.75 Q-25.15 -5.55 -25.4 -5.65 -25.55 -5.65 -25.4 -5.75 M-26.2 -0.1 Q-26.3 0.0 -26.4 0.0 -26.55 0.05 -26.65 -0.1 L-26.65 -0.2 Q-26.65 -0.25 -26.6 -0.25 L-26.5 -0.3 Q-26.35 -0.3 -26.3 -0.2 -26.25 -0.15 -26.2 -0.1 M-25.35 -3.45 Q-25.3 -3.5 -25.2 -3.5 -25.0 -3.4 -25.2 -3.3 -25.35 -3.2 -25.4 -3.35 L-25.35 -3.45 M-24.7 -1.15 Q-24.65 -1.15 -24.55 -1.05 -24.55 -1.0 -24.55 -0.95 -24.75 -0.7 -24.8 -1.0 -24.85 -1.15 -24.7 -1.15 M-19.45 -7.35 Q-19.65 -7.3 -19.45 -7.4 -19.25 -7.35 -19.45 -7.35 M-21.15 -8.15 Q-21.4 -8.2 -21.15 -8.3 -20.85 -8.05 -21.15 -8.15 M-21.9 -3.35 Q-22.05 -3.45 -21.8 -3.45 -21.65 -3.2 -21.9 -3.35 M-18.85 -2.35 Q-18.75 -2.35 -18.75 -2.25 -18.95 -2.0 -19.05 -2.3 -19.05 -2.4 -18.95 -2.45 L-18.85 -2.35 M-20.95 -0.8 Q-21.25 -0.7 -21.0 -0.85 -20.8 -0.85 -20.95 -0.8 M-11.8 -3.65 Q-12.0 -3.7 -11.8 -3.75 -11.5 -3.6 -11.8 -3.65 M-16.05 -6.3 Q-16.3 -6.25 -16.1 -6.4 -15.85 -6.35 -16.05 -6.3 M-16.25 -0.35 L-16.15 -0.4 Q-15.95 -0.3 -16.1 -0.15 -16.25 0.0 -16.3 -0.2 -16.3 -0.25 -16.25 -0.35 M-12.7 -0.7 L-12.9 -0.75 -12.9 -0.85 Q-12.9 -1.0 -12.75 -1.0 -12.6 -0.95 -12.65 -0.85 -12.55 -0.75 -12.65 -0.75 L-12.7 -0.7 M-9.3 -3.05 Q-9.45 -3.15 -9.3 -3.2 -9.1 -3.0 -9.3 -3.05 M-8.1 -3.95 Q-8.3 -4.0 -8.05 -4.05 -7.85 -3.85 -8.1 -3.95 M-6.45 -3.4 Q-6.6 -3.45 -6.45 -3.5 -6.25 -3.3 -6.45 -3.4 M-1.65 -0.55 Q-1.6 -0.5 -1.65 -0.4 -1.85 -0.2 -1.9 -0.45 -1.9 -0.65 -1.8 -0.65 -1.7 -0.65 -1.65 -0.55 M-0.85 -0.15 L-0.75 -0.2 Q-0.5 -0.15 -0.65 0.05 -0.75 0.2 -0.9 0.05 L-0.9 -0.05 Q-0.9 -0.15 -0.85 -0.15 M-1.3 0.35 Q-1.4 0.5 -1.5 0.35 -1.6 0.3 -1.5 0.25 L-1.5 0.2 Q-1.45 0.1 -1.35 0.05 -1.15 0.15 -1.3 0.35 M-2.15 2.0 Q-2.25 2.0 -2.15 1.9 L-2.05 1.8 Q-1.75 2.0 -2.15 2.0 M-3.45 1.3 Q-3.7 1.25 -3.4 1.15 -3.15 1.35 -3.45 1.3 M-10.05 0.45 Q-10.05 0.6 -10.2 0.6 L-10.35 0.55 Q-10.4 0.55 -10.4 0.45 -10.4 0.4 -10.4 0.3 -10.3 0.2 -10.2 0.2 -10.05 0.25 -10.05 0.45 M-12.25 0.4 Q-12.45 0.5 -12.45 0.35 -12.5 0.3 -12.45 0.25 -12.35 0.15 -12.3 0.15 -12.05 0.3 -12.25 0.4 M-12.5 1.65 Q-12.4 1.7 -12.45 1.8 -12.6 1.95 -12.7 1.75 -12.8 1.6 -12.6 1.6 -12.55 1.6 -12.5 1.65 M-16.1 1.45 Q-16.35 1.4 -16.05 1.3 -15.75 1.55 -16.1 1.45 M-17.85 0.25 Q-17.75 0.25 -17.65 0.35 -17.6 0.4 -17.65 0.5 -17.65 0.6 -17.75 0.6 -17.95 0.65 -18.05 0.45 L-18.0 0.4 -17.95 0.3 -17.85 0.25 M-22.6 0.6 Q-22.8 0.7 -22.85 0.55 -22.85 0.5 -22.8 0.45 -22.75 0.35 -22.65 0.35 -22.4 0.45 -22.6 0.6" fill="#ffffff" fill-rule="evenodd" stroke="none"/>
    </g>
    <g id="shape1" transform="matrix(1.0, 0.0, 0.0, 1.0, 19.5, 35.35)">
      <path d="M20.1 -29.1 Q20.2 -29.05 20.2 -28.8 20.2 -27.9 18.25 -23.95 16.3 -20.05 16.3 -19.9 16.3 -19.6 16.35 -19.6 L16.4 -19.6 16.65 -19.8 Q16.85 -19.95 16.9 -19.95 17.55 -19.9 17.65 -19.8 17.15 -18.2 16.7 -17.3 16.15 -16.15 15.45 -15.35 L15.75 -15.5 15.95 -15.65 Q17.05 -16.4 17.9 -16.75 18.65 -17.25 19.0 -17.4 L19.3 -17.4 19.8 -17.35 19.85 -17.15 Q19.25 -15.5 17.8 -13.55 16.85 -12.2 14.9 -10.0 L14.85 -9.9 Q15.05 -9.9 15.4 -10.05 15.7 -10.1 15.85 -10.2 L16.3 -10.15 Q16.35 -10.15 16.45 -10.1 16.5 -10.1 16.5 -9.85 16.5 -8.7 13.3 -5.95 11.2 -4.15 9.35 -2.85 9.8 -3.05 10.6 -2.9 L10.85 -2.95 Q12.15 -2.6 11.0 -1.5 10.15 -0.75 9.55 0.2 L9.4 0.35 Q9.55 0.55 10.65 0.45 11.0 0.45 11.05 0.75 11.1 1.25 10.65 1.45 9.9 1.75 9.5 2.45 L9.45 2.6 Q10.25 2.4 11.9 2.75 11.95 2.75 11.95 2.8 10.7 4.0 9.2 4.85 L9.2 4.9 9.25 5.15 Q9.15 5.7 8.55 5.85 8.1 6.0 7.8 5.7 L7.75 5.6 Q4.8 6.9 1.15 6.95 -4.3 7.05 -9.5 6.0 L-9.45 6.05 Q-9.45 6.15 -9.45 6.3 -10.2 6.65 -10.6 5.8 L-10.7 5.75 Q-10.8 5.75 -10.85 5.6 L-10.65 5.6 Q-11.0 4.85 -11.75 4.35 -12.35 4.0 -12.5 3.4 L-12.45 3.3 Q-12.35 3.15 -12.15 3.05 L-11.85 2.95 -11.55 2.8 -12.55 1.85 -13.6 0.75 Q-13.95 0.35 -14.3 0.0 -14.35 -0.05 -14.35 -0.2 -14.4 -0.35 -14.2 -0.45 -13.7 -0.65 -13.2 -0.55 L-12.55 -0.45 -13.45 -1.15 Q-14.1 -1.7 -14.8 -2.1 -15.45 -2.5 -15.95 -3.1 -16.05 -3.2 -16.05 -3.3 -15.6 -4.0 -14.55 -3.6 L-12.55 -2.8 -12.2 -2.65 -12.6 -3.1 -13.1 -3.45 Q-13.4 -3.7 -13.25 -4.05 L-13.15 -4.15 -14.35 -5.35 Q-15.2 -6.25 -15.85 -6.8 -16.4 -7.3 -17.85 -9.25 -19.5 -11.5 -19.5 -12.15 -19.5 -12.45 -19.45 -12.5 L-19.35 -12.5 -18.55 -12.4 Q-18.15 -12.35 -17.9 -12.35 -17.85 -12.8 -17.6 -13.3 -17.5 -13.95 -17.2 -15.15 -16.75 -17.15 -16.75 -18.05 -16.75 -18.25 -16.9 -18.75 -17.05 -19.35 -17.1 -19.7 L-15.7 -19.8 -15.55 -19.95 Q-15.5 -20.05 -15.5 -20.35 -15.5 -20.45 -16.3 -22.2 -17.15 -24.05 -17.3 -25.15 L-17.6 -27.6 Q-17.8 -29.1 -17.8 -29.95 -16.2 -36.3 -13.7 -35.2 -11.65 -33.1 -10.0 -29.95 -8.5 -27.05 -8.4 -25.55 L-8.6 -25.45 -8.95 -25.25 -9.15 -25.4 -9.65 -25.8 Q-10.45 -26.4 -12.4 -26.65 L-13.15 -26.7 Q-13.75 -26.25 -13.95 -26.0 -14.15 -25.75 -14.15 -25.4 -14.15 -24.5 -13.45 -23.6 -12.8 -22.7 -12.8 -21.75 -12.8 -21.5 -13.0 -20.2 L-13.15 -19.0 -13.0 -18.7 -13.0 -19.4 -12.85 -19.4 Q-12.85 -18.7 -12.55 -17.95 L-11.9 -17.35 -11.0 -16.55 -9.95 -15.7 Q-9.45 -15.75 -8.95 -15.85 L-8.05 -16.1 -7.8 -16.4 Q-7.7 -16.6 -7.7 -16.9 -7.7 -17.7 -8.25 -18.95 -8.8 -20.25 -8.8 -21.2 -8.8 -21.9 -8.7 -22.05 -8.45 -22.5 -7.3 -22.3 L-6.8 -21.6 -6.4 -21.25 -6.05 -21.35 -6.0 -21.4 -5.6 -21.4 Q-4.45 -21.4 -3.75 -20.65 -3.4 -20.35 -3.3 -20.0 -3.1 -19.9 -2.75 -19.8 L-2.65 -19.6 -2.5 -19.9 Q-2.05 -20.75 -1.65 -21.2 -1.5 -21.55 -1.2 -21.75 0.1 -21.65 1.05 -20.75 1.8 -20.05 2.05 -19.2 2.3 -18.75 2.4 -18.15 L2.6 -17.2 Q2.85 -16.25 3.7 -16.25 L4.0 -16.3 Q4.45 -17.6 5.1 -19.8 5.95 -22.25 7.15 -23.85 7.4 -24.25 8.45 -24.35 9.45 -24.5 9.6 -24.6 L10.1 -25.0 10.75 -25.55 11.55 -26.5 12.45 -27.5 14.5 -29.55 Q15.85 -30.9 16.55 -31.2 L17.15 -31.1 Q17.3 -30.4 17.25 -29.35 L17.25 -27.55 Q17.7 -27.7 18.5 -28.25 L19.7 -29.1 20.1 -29.1 M9.0 -2.6 L9.0 -2.6 M15.2 -15.15 L15.2 -15.15 M-3.15 -19.7 L-2.8 -19.25 -2.75 -19.4 Q-2.9 -19.6 -3.15 -19.75 L-3.15 -19.7" fill="#c7e7fe" fill-rule="evenodd" stroke="none"/>
      <path d="M14.85 -24.65 Q15.25 -23.95 15.25 -23.45 15.25 -21.8 14.05 -19.05 12.5 -16.05 11.95 -14.85 12.35 -14.85 12.7 -15.05 L13.35 -15.45 Q13.5 -15.4 13.6 -15.45 13.65 -15.4 13.65 -15.1 13.65 -14.65 12.4 -13.2 L12.0 -12.7 12.15 -12.7 Q13.25 -12.95 14.8 -13.45 15.75 -13.65 15.75 -12.8 15.75 -12.0 15.0 -11.15 L11.5 -7.65 11.0 -7.1 12.65 -7.7 13.1 -7.65 13.2 -7.7 Q13.25 -7.65 13.25 -7.4 13.25 -6.7 10.7 -4.85 8.0 -3.0 7.75 -2.8 L7.5 -2.85 Q7.55 -3.05 7.7 -3.25 L7.55 -3.2 Q7.4 -2.9 7.4 -2.35 L7.4 -1.05 7.85 -1.35 Q8.8 -2.05 9.35 -1.3 8.75 -0.35 7.7 0.4 6.75 1.0 6.0 1.7 5.8 2.25 6.95 2.0 L7.15 2.05 7.85 1.35 Q8.75 1.55 8.05 2.25 7.5 2.75 7.1 3.25 7.1 3.3 7.1 3.4 7.85 3.45 7.45 4.05 7.2 4.45 7.3 4.8 L8.0 5.3 Q8.55 5.6 8.9 6.15 7.65 6.8 6.65 5.85 5.85 5.45 5.0 5.25 L4.95 5.15 4.9 5.2 Q4.65 5.85 4.2 6.4 L4.0 6.6 Q3.95 6.3 4.0 6.05 1.2 6.6 -1.3 6.35 -4.6 6.65 -7.4 6.2 L-7.6 6.15 Q-7.9 6.6 -8.4 6.15 L-9.9 4.85 Q-10.65 4.25 -10.1 3.85 L-9.15 3.9 Q-9.3 3.55 -9.35 3.2 L-10.0 2.65 Q-11.1 1.65 -11.8 0.55 -10.75 -0.05 -9.3 0.4 L-9.35 0.35 -10.4 -0.65 Q-10.95 -1.2 -11.0 -1.9 L-11.0 -2.05 Q-10.5 -2.45 -9.9 -2.1 -9.05 -1.65 -9.0 -1.9 -9.3 -2.25 -9.5 -2.75 L-9.65 -3.15 Q-10.5 -3.3 -11.8 -4.3 -13.25 -5.4 -13.8 -6.3 L-15.05 -8.35 Q-15.75 -9.65 -15.75 -10.35 L-15.75 -10.75 -15.7 -10.9 Q-15.3 -10.75 -14.9 -10.45 L-14.2 -10.05 -13.7 -9.95 Q-13.4 -10.05 -13.35 -10.3 -13.3 -10.35 -13.3 -10.6 -13.3 -11.1 -13.6 -12.3 -13.85 -13.45 -13.85 -14.05 -13.85 -14.65 -14.05 -15.95 L-14.2 -17.35 Q-14.2 -18.4 -14.1 -18.95 -13.5 -18.9 -13.3 -19.45 -13.2 -19.7 -13.2 -20.2 -13.1 -20.75 -13.15 -21.85 L-13.2 -22.15 Q-13.4 -22.75 -13.7 -23.9 L-13.6 -24.3 Q-13.45 -24.8 -13.2 -25.15 -12.4 -26.25 -11.15 -25.8 -9.1 -23.95 -8.6 -23.3 -7.5 -22.05 -7.5 -20.9 -7.5 -20.1 -8.25 -19.95 -8.5 -19.95 -8.65 -20.1 -8.75 -20.2 -9.0 -20.2 L-9.35 -20.2 -9.55 -20.05 -9.55 -17.7 Q-9.3 -17.3 -9.1 -16.25 -8.4 -15.05 -7.0 -14.5 L-6.15 -14.55 Q-5.95 -14.75 -5.9 -14.95 -5.85 -15.1 -5.85 -15.5 -5.85 -15.9 -6.1 -16.85 -6.4 -17.75 -6.4 -18.3 L-6.4 -19.0 Q-6.3 -19.5 -5.8 -19.5 -5.4 -19.5 -5.05 -19.15 -4.75 -18.85 -4.75 -18.7 -4.75 -18.5 -4.35 -18.2 -3.75 -17.65 -3.35 -17.1 L-2.85 -16.4 Q-2.5 -15.95 -2.05 -15.75 -1.9 -16.0 -1.85 -16.35 L-1.8 -16.9 Q-1.65 -17.6 -0.9 -18.05 L-0.3 -18.05 Q0.4 -17.5 0.8 -16.8 1.05 -16.35 1.3 -15.5 1.55 -14.65 1.7 -14.25 2.05 -13.55 2.7 -13.0 L3.3 -12.75 Q4.05 -13.45 4.5 -14.9 4.75 -15.7 5.1 -17.1 5.3 -17.7 5.7 -19.35 6.15 -20.8 7.1 -21.2 L7.5 -21.15 Q7.9 -20.7 7.95 -19.9 7.9 -18.95 7.95 -18.5 L8.65 -18.5 Q9.7 -19.35 11.3 -21.75 12.75 -23.9 14.05 -24.7 L14.85 -24.65 M10.75 -5.75 L10.75 -5.75 M-8.7 -22.55 Q-8.25 -21.8 -8.05 -21.2 -8.2 -22.1 -8.9 -22.95 L-8.95 -22.95 -8.7 -22.55 M-2.8 6.15 L-3.85 5.9 -4.0 6.0 -2.8 6.15" fill="#e5eeff" fill-opacity="0.7529412" fill-rule="evenodd" stroke="none"/>
    </g>
  </defs>
</svg>
