<?xml version="1.0" encoding="UTF-8" standalone="no"?>
<svg xmlns:ffdec="https://www.free-decompiler.com/flash" xmlns:xlink="http://www.w3.org/1999/xlink" ffdec:objectType="frame" height="293.95px" width="504.9px" xmlns="http://www.w3.org/2000/svg">
  <g transform="matrix(1.0, 0.0, 0.0, 1.0, 268.6, 242.25)">
    <use ffdec:characterId="282" height="13.2" transform="matrix(7.0, 0.0, 0.0, 7.0, -128.1, -60.7)" width="50.0" xlink:href="#shape0"/>
    <use ffdec:characterId="283" height="1.5" transform="matrix(-22.1319, 0.0, 0.0, 7.0, 130.7259, 1.0)" width="6.1" xlink:href="#shape1"/>
    <use ffdec:characterId="281" height="1.9" transform="matrix(-22.1319, 0.0, 0.0, 7.0, 87.5687, -8.1)" width="2.75" xlink:href="#shape2"/>
    <use ffdec:characterId="284" height="2.6" transform="matrix(-22.1319, 0.0, 0.0, 7.0, 93.1017, -13.7)" width="3.25" xlink:href="#shape3"/>
    <use ffdec:characterId="305" height="12.2" transform="matrix(5.9266, 0.0, 0.0, 5.4432, -32.0762, -66.3045)" width="28.15" xlink:href="#shape4"/>
    <use ffdec:characterId="306" height="1.5" transform="matrix(-18.7383, 0.0, 0.0, 5.4431, 124.2041, -0.0994)" width="6.1" xlink:href="#shape5"/>
    <use ffdec:characterId="304" height="11.4" transform="matrix(-18.7383, 0.0, 0.0, 5.4431, 93.2859, -58.8854)" width="4.3" xlink:href="#shape6"/>
    <use ffdec:characterId="307" height="17.8" transform="matrix(-18.7383, 0.0, 0.0, 5.4431, 91.4121, -93.7215)" width="4.35" xlink:href="#shape7"/>
  </g>
  <defs>
    <g id="shape0" transform="matrix(1.0, 0.0, 0.0, 1.0, 26.6, 6.25)">
      <path d="M17.5 -1.4 Q17.65 -1.25 17.65 -1.1 L17.65 -0.85 Q17.65 -0.6 17.4 -0.4 17.05 -0.15 16.95 0.1 L16.9 0.55 Q16.75 0.95 16.2 0.95 L15.6 0.9 Q15.4 0.8 15.25 0.65 L15.1 0.6 Q14.75 0.4 14.4 0.4 L14.1 0.45 13.85 0.5 13.7 0.5 Q13.65 0.55 13.65 0.45 13.65 0.35 13.9 0.0 L14.15 -0.1 14.5 -0.2 Q14.55 -0.2 14.75 -0.05 L14.95 0.1 15.3 0.2 Q15.75 0.2 16.05 -0.25 16.3 -0.6 16.3 -0.85 16.3 -1.25 16.75 -1.6 17.25 -1.65 17.5 -1.4 M17.55 1.6 Q17.45 1.7 16.95 1.95 16.75 2.1 16.5 2.1 L15.55 2.15 15.4 2.15 15.55 2.1 15.45 1.95 Q16.6 1.95 16.95 1.6 L17.45 0.95 Q17.9 0.7 18.3 1.1 18.6 1.4 18.6 1.7 18.6 1.85 18.4 2.1 18.25 2.3 18.25 2.35 L18.35 2.6 18.4 2.9 Q18.4 3.3 18.0 3.45 17.5 3.55 17.4 3.65 L17.1 4.15 Q17.0 4.35 16.4 4.35 15.95 4.35 15.55 4.05 L15.2 3.7 15.3 3.55 15.95 3.65 16.5 3.5 16.8 3.3 17.7 2.95 17.75 2.9 17.75 2.85 Q17.75 2.75 17.6 2.6 17.5 2.45 17.5 2.35 17.5 2.2 17.7 2.0 L17.9 1.7 17.8 1.6 17.55 1.6 M11.5 3.7 L11.55 3.75 11.5 3.75 11.5 3.8 11.4 4.15 11.2 4.4 Q11.3 4.55 12.05 4.85 12.6 5.1 12.6 5.4 12.6 5.75 12.3 5.95 L10.8 5.95 10.4 6.3 Q9.9 6.65 8.95 6.65 L8.45 6.6 7.75 6.4 7.65 6.35 Q7.85 6.1 8.45 6.15 L9.25 6.05 Q9.3 6.0 9.55 5.9 L9.8 5.7 Q10.0 5.5 9.95 5.25 9.9 5.1 9.95 5.05 10.0 4.9 10.4 4.9 10.75 4.9 10.85 5.0 L11.0 5.1 Q10.95 5.2 11.1 5.35 L11.35 5.55 11.85 5.5 11.95 5.3 11.85 5.15 11.65 5.0 Q11.2 4.95 11.0 4.7 L10.7 4.4 10.65 4.2 10.8 3.75 10.85 3.55 Q10.95 3.45 11.1 3.4 L11.25 3.4 11.5 3.6 11.5 3.7 M3.05 6.6 L3.5 6.6 3.4 6.75 3.1 6.7 2.6 6.65 1.8 6.6 1.8 6.5 Q1.8 6.4 2.05 6.3 L2.65 6.4 Q2.75 6.35 3.05 6.6 M-15.6 -0.7 Q-15.3 -0.5 -15.3 -0.35 L-15.3 0.15 -14.95 0.5 -13.7 0.65 -12.75 0.8 -12.7 0.9 -12.75 0.95 -12.7 1.0 Q-12.8 1.2 -13.45 1.35 L-13.65 1.4 -13.6 1.35 -14.0 1.4 -15.15 1.45 Q-16.05 1.45 -16.35 1.2 -16.5 1.1 -16.5 0.8 L-16.45 0.6 -16.25 0.15 -16.25 0.1 -16.35 0.1 -16.4 -0.15 -16.45 -0.2 -16.55 -0.45 -16.45 -0.65 -16.35 -0.75 -16.25 -0.8 -16.15 -0.95 Q-15.95 -1.0 -15.6 -0.7 M-8.85 6.3 L-9.55 6.35 -10.1 6.4 -10.9 6.4 -10.9 6.25 -10.95 6.25 Q-11.05 6.1 -11.05 6.0 -11.05 5.9 -10.9 5.75 L-10.7 5.5 -10.65 5.45 -11.0 5.5 -11.35 5.6 -11.75 5.6 -12.0 5.55 -12.1 5.55 -12.8 5.5 -13.05 5.45 -13.25 5.35 -13.6 5.25 -13.6 5.15 -13.55 5.1 -13.2 5.0 -12.9 5.05 -12.25 5.25 -11.7 5.4 -11.25 5.3 -11.15 5.35 -11.05 5.25 -10.8 5.05 Q-10.6 4.8 -10.0 4.75 L-9.9 4.95 Q-9.9 5.1 -10.0 5.2 L-10.05 5.35 Q-10.15 5.45 -10.2 5.45 L-10.3 5.5 -10.4 5.8 -10.6 5.95 -10.65 6.0 -10.65 6.1 -10.5 6.1 -10.15 6.15 -10.15 6.2 -10.2 6.25 -9.5 6.2 -8.9 6.1 -8.4 6.05 -8.1 6.15 Q-7.65 5.55 -7.2 5.35 L-7.3 5.3 -7.3 5.25 Q-7.2 4.95 -6.35 4.95 L-5.1 5.05 -5.0 5.1 -5.05 5.15 -5.5 5.15 -6.05 5.2 Q-6.15 5.35 -7.05 5.45 L-7.35 5.65 -7.65 5.9 -7.9 6.15 -8.1 6.4 -8.2 6.4 -8.35 6.25 -8.55 6.25 -8.85 6.3 M-6.95 5.1 L-7.2 5.25 -7.0 5.2 -6.95 5.1 M-13.05 5.2 L-13.15 5.2 -13.05 5.25 -13.05 5.2 M-11.25 5.4 L-11.25 5.4 M-10.6 5.3 L-10.55 5.25 -10.35 5.0 -10.5 5.1 -10.75 5.35 -10.6 5.3 M-16.15 0.2 L-16.25 0.35 -16.25 0.45 -16.15 0.25 -16.15 0.2 M-16.0 3.2 L-15.4 3.0 -14.9 2.85 -14.8 2.9 -14.8 2.95 -14.95 3.1 -15.4 3.35 -15.8 3.55 -16.3 3.6 -16.6 3.45 -17.05 3.3 -17.1 3.2 -17.45 3.2 -17.8 3.35 -18.1 3.6 -18.5 3.6 -18.8 3.4 -18.85 3.2 Q-18.85 3.0 -18.7 2.85 L-18.3 2.55 -18.0 2.15 Q-17.8 1.85 -17.35 1.95 -17.25 2.0 -17.25 2.2 L-17.3 2.55 -17.25 2.85 Q-17.15 2.85 -16.8 3.05 L-16.4 3.15 -16.0 3.2" fill="#ffffff" fill-opacity="0.5019608" fill-rule="evenodd" stroke="none"/>
      <path d="M6.4 -3.3 L6.35 -3.3 6.3 -3.45 Q6.3 -4.0 7.05 -3.9 L7.1 -3.85 7.15 -3.7 Q7.15 -3.55 6.95 -3.4 6.75 -3.2 6.6 -3.2 L6.4 -3.25 6.4 -3.3 M19.1 -5.95 Q19.45 -6.3 19.65 -6.25 20.0 -6.15 20.1 -5.75 20.2 -5.35 20.4 -5.3 21.05 -5.25 21.15 -5.45 21.35 -5.6 21.75 -5.6 L21.85 -5.55 22.4 -5.75 Q23.1 -5.4 23.3 -4.85 23.4 -4.55 23.4 -3.85 23.4 -3.35 23.35 -3.25 L23.2 -3.1 23.1 -2.75 23.1 -2.65 Q23.1 -2.5 22.95 -2.25 L22.75 -2.1 22.55 -1.8 22.35 -1.8 Q22.3 -1.9 22.35 -2.15 L22.4 -2.55 Q22.4 -3.1 21.8 -3.7 21.35 -4.15 20.7 -4.6 L19.95 -4.7 Q19.75 -4.7 19.5 -4.4 19.2 -4.1 19.05 -4.05 L17.9 -4.15 17.6 -4.15 17.45 -4.1 17.4 -4.05 Q17.35 -3.8 17.2 -3.7 L17.1 -3.8 Q17.05 -3.85 17.05 -4.0 17.05 -4.3 17.15 -4.4 L18.05 -4.55 18.45 -4.4 18.5 -4.4 Q18.9 -4.8 18.9 -5.0 L18.8 -5.25 Q18.7 -5.35 18.7 -5.5 18.7 -5.65 19.1 -5.95 M23.0 -2.95 L23.0 -2.95 M22.85 2.85 L22.8 3.05 22.8 3.2 Q22.8 3.65 22.25 3.85 L21.1 3.9 20.4 4.05 20.4 4.25 Q20.4 4.4 20.2 4.6 L19.85 4.95 19.35 4.95 19.05 4.75 18.7 4.55 18.3 4.6 18.9 4.9 Q18.75 5.35 18.55 5.55 18.05 5.9 16.75 5.9 L14.8 5.8 13.75 5.7 13.5 5.65 13.25 5.35 Q13.25 5.2 13.3 5.2 L13.3 5.25 14.85 5.05 16.1 4.8 16.1 4.85 16.65 4.65 16.95 4.3 Q17.05 4.1 17.3 4.1 L18.4 4.0 20.1 3.9 20.2 3.85 20.25 3.7 21.0 3.65 21.2 3.55 21.45 3.2 Q21.4 3.1 21.2 3.05 L20.9 2.85 Q20.75 2.75 20.7 2.7 20.65 2.6 20.65 2.4 20.65 2.05 20.85 1.85 21.05 1.5 21.45 2.1 L22.25 2.3 22.65 2.35 22.75 2.6 Q22.85 2.7 22.85 2.85 M10.5 5.0 Q10.15 5.0 9.95 4.65 L9.85 4.35 Q9.85 3.9 10.75 3.95 11.7 4.05 12.35 4.65 L11.95 4.9 10.5 5.0 M2.1 3.35 Q1.55 3.8 1.15 3.8 0.65 3.8 0.35 3.45 L0.15 3.1 Q0.15 2.5 1.05 2.75 1.45 2.9 2.05 3.2 L2.1 3.35 M-24.2 -3.55 L-23.85 -3.15 -23.25 -3.2 Q-23.0 -3.25 -22.85 -3.45 -22.8 -3.6 -22.8 -3.7 -22.8 -3.85 -23.0 -3.95 L-23.55 -4.2 -23.7 -4.3 Q-23.75 -4.4 -23.75 -4.55 -23.75 -4.8 -23.35 -5.25 L-22.9 -5.3 -22.3 -6.0 -21.8 -5.95 Q-21.55 -5.7 -21.45 -5.45 L-21.15 -4.85 -20.7 -4.35 Q-20.3 -4.0 -19.9 -3.8 L-19.9 -3.55 Q-19.95 -3.45 -20.1 -3.45 -20.45 -3.45 -21.25 -4.35 L-21.85 -4.3 -22.6 -3.15 -22.95 -2.5 Q-23.3 -2.2 -24.65 -2.05 -25.25 -1.6 -25.55 -1.1 -25.8 -0.55 -25.65 -0.05 L-25.75 0.1 -26.0 0.05 -26.35 -0.55 Q-26.5 -1.0 -26.5 -1.2 -26.5 -1.85 -26.2 -2.55 -25.75 -3.55 -24.9 -3.55 L-24.2 -3.55 M-11.15 -1.3 Q-11.15 -1.5 -11.05 -1.6 -10.95 -1.7 -10.5 -1.35 -10.0 -1.0 -10.0 -0.8 L-10.0 -0.65 -10.05 -0.55 -10.1 -0.55 -10.3 -0.5 Q-10.7 -0.5 -10.95 -0.85 -11.15 -1.1 -11.15 -1.3 M-1.1 -3.3 L-0.8 -3.05 Q-0.85 -2.95 -1.0 -2.8 L-1.7 -2.75 -1.9 -2.8 -2.05 -2.85 -2.2 -2.95 -1.65 -3.3 -1.1 -3.3 M-18.5 6.1 L-20.4 6.7 -22.3 6.95 -22.65 6.9 -23.2 6.95 -23.8 6.85 -23.85 6.7 -24.7 6.6 Q-24.85 6.5 -24.95 6.25 -25.0 6.05 -25.3 5.95 L-26.25 5.75 Q-26.35 5.65 -26.45 5.2 L-26.55 5.1 -26.6 4.7 -26.55 4.55 -26.6 4.25 -26.3 3.9 -26.1 3.65 -26.05 3.4 -26.05 3.3 Q-26.05 2.95 -25.95 2.85 L-25.9 2.45 Q-25.9 2.2 -25.8 2.0 -25.6 1.7 -25.35 1.9 -25.1 2.1 -25.1 2.3 L-25.2 3.2 Q-25.2 3.35 -25.35 3.5 L-25.35 3.55 Q-25.45 3.75 -25.6 3.75 L-25.7 4.0 Q-25.7 4.2 -25.35 4.8 L-23.9 4.85 Q-23.9 4.95 -23.6 5.05 L-23.55 5.05 -23.55 5.2 Q-23.55 5.35 -23.85 5.65 L-23.65 5.8 -22.3 6.05 -19.6 6.0 -19.1 5.95 Q-18.55 5.95 -18.5 6.1 M-25.6 2.8 L-25.6 2.8 M-26.4 4.25 L-26.4 4.2 -26.15 3.75 -26.1 3.7 -26.4 4.2 -26.4 4.25" fill="#ffffff" fill-opacity="0.5019608" fill-rule="evenodd" stroke="none"/>
    </g>
    <g id="shape1" transform="matrix(1.0, 0.0, 0.0, 1.0, 2.85, 0.45)">
      <path d="M2.55 -0.1 Q2.55 0.2 2.25 0.45 2.1 0.6 1.85 0.7 1.15 1.05 0.2 1.05 -0.8 1.05 -1.45 0.7 L-1.9 0.45 Q-2.15 0.2 -2.15 -0.1 L-2.15 -0.15 -1.45 -0.35 0.2 -0.45 1.85 -0.35 2.55 -0.15 2.55 -0.1" fill="#ffffff" fill-opacity="0.5019608" fill-rule="evenodd" stroke="none"/>
      <path d="M3.25 -0.1 Q3.25 0.2 2.9 0.45 L2.65 0.6 2.35 0.7 0.2 1.05 -1.95 0.7 -2.5 0.45 Q-2.85 0.2 -2.85 -0.1 L-2.85 -0.15 -1.95 -0.35 0.2 -0.45 2.35 -0.35 2.65 -0.3 3.25 -0.15 3.25 -0.1" fill="#ffffff" fill-opacity="0.5019608" fill-rule="evenodd" stroke="none"/>
    </g>
    <g id="shape2" transform="matrix(1.0, 0.0, 0.0, 1.0, 0.9, 1.75)">
      <path d="M0.4 -0.25 L0.35 -0.2 Q0.3 -0.2 0.3 -0.25 L0.15 -0.3 0.15 -0.2 Q0.1 -0.25 0.0 -0.35 L-0.05 -0.3 -0.1 -0.3 -0.4 -0.25 -0.55 -0.3 -0.6 -0.25 -0.75 -0.25 -0.75 -0.15 -0.8 0.15 -0.8 -0.2 -0.85 -0.2 -0.9 -0.25 -0.75 -0.35 -0.7 -0.5 Q-0.6 -0.7 -0.55 -0.8 -0.5 -0.9 -0.35 -0.9 L-0.2 -1.0 Q-0.15 -1.0 -0.1 -1.1 L-0.05 -1.3 0.15 -1.55 Q0.4 -1.85 0.8 -1.7 L1.0 -1.5 1.15 -1.3 1.25 -1.1 1.5 -0.65 Q1.7 -0.35 1.85 -0.25 L1.75 -0.2 1.45 -0.3 1.4 -0.2 1.3 -0.25 1.25 -0.25 0.9 -0.2 0.45 -0.3 0.4 -0.25" fill="#ffffff" fill-opacity="0.5019608" fill-rule="evenodd" stroke="none"/>
    </g>
    <g id="shape3" transform="matrix(1.0, 0.0, 0.0, 1.0, 1.15, 2.55)">
      <path d="M0.6 -2.55 Q0.85 -2.6 1.05 -2.2 L1.3 -1.65 1.45 -1.35 1.45 -1.3 1.65 -0.9 Q1.7 -0.75 1.9 -0.6 L2.1 -0.25 1.9 -0.2 Q1.8 -0.2 1.7 -0.35 L1.65 -0.3 1.55 -0.35 1.55 -0.3 1.45 -0.3 1.4 -0.25 Q1.4 -0.2 1.35 -0.2 1.3 -0.2 1.3 -0.25 L1.3 -0.3 1.05 -0.3 0.85 -0.25 0.75 -0.25 Q0.7 -0.25 0.65 -0.3 L0.65 -0.4 0.1 -0.25 -0.05 -0.15 -0.2 0.05 Q-0.25 0.05 -0.25 -0.15 L-0.25 -0.2 -0.35 -0.25 -0.4 -0.3 -0.85 -0.15 -0.85 -0.1 -0.9 -0.15 Q-0.95 -0.2 -0.95 -0.3 L-0.95 -0.4 Q-1.0 -0.25 -1.05 -0.25 L-1.1 -0.25 -1.15 -0.3 -1.05 -0.45 -1.0 -0.45 -1.0 -0.5 -0.9 -0.8 -0.75 -1.15 -0.7 -1.3 -0.65 -1.35 -0.55 -1.4 -0.2 -1.45 -0.15 -1.5 -0.1 -1.6 Q0.0 -1.95 0.2 -2.25 0.4 -2.5 0.6 -2.55" fill="#ffffff" fill-opacity="0.5019608" fill-rule="evenodd" stroke="none"/>
    </g>
    <g id="shape4" transform="matrix(1.0, 0.0, 0.0, 1.0, 16.0, 9.6)">
      <path d="M5.6 -7.05 Q5.6 -6.5 5.35 -6.3 4.95 -5.75 4.3 -5.85 L3.4 -5.75 Q2.5 -5.1 2.5 -4.5 L2.7 -3.5 Q2.7 -2.95 1.95 -2.35 L1.65 -2.15 2.0 -2.15 Q2.35 -2.15 2.6 -2.0 L3.95 -1.9 Q4.45 -1.9 5.1 -2.3 5.7 -2.75 5.7 -2.95 5.7 -3.15 5.4 -3.7 5.05 -4.25 5.05 -4.45 5.05 -4.85 5.3 -5.15 5.65 -5.55 6.3 -5.55 6.55 -5.55 7.0 -5.05 L7.5 -4.4 Q7.85 -3.9 8.55 -3.8 9.45 -3.75 9.7 -3.6 10.35 -3.25 10.65 -2.4 L11.15 -1.1 11.45 -1.0 11.8 -0.9 Q11.9 -0.9 12.0 -0.65 L12.15 -0.35 Q12.15 -0.1 11.85 0.2 11.4 0.65 10.4 0.6 10.55 0.65 10.3 0.65 9.5 0.65 9.05 0.45 L8.6 0.2 Q7.85 0.2 7.2 0.85 L7.4 1.05 7.45 1.2 Q7.45 1.8 6.4 1.8 L5.85 1.75 5.45 1.7 5.0 1.6 4.4 1.5 4.05 1.5 3.65 1.4 Q1.9 1.2 1.2 0.85 0.7 0.6 0.7 0.1 0.7 -0.1 0.75 -0.25 L0.9 -0.55 0.85 -0.7 0.6 -0.75 0.4 -1.0 0.3 -1.1 Q0.3 -1.5 0.75 -1.8 L0.45 -1.8 Q-0.05 -1.8 -0.4 -2.1 L-0.9 -2.8 Q-1.5 -3.85 -2.7 -3.85 -3.45 -3.85 -4.2 -3.35 -4.95 -2.9 -6.3 -2.9 -6.55 -2.9 -7.2 -3.2 -7.7 -3.5 -7.95 -3.65 L-8.4 -4.15 -8.8 -4.75 Q-9.1 -5.3 -9.2 -5.9 L-9.25 -6.9 Q-9.25 -8.25 -8.05 -9.2 -7.6 -9.6 -7.25 -9.6 L-6.85 -9.5 -6.95 -9.45 Q-6.85 -9.35 -6.85 -9.1 -6.85 -9.0 -7.15 -8.65 L-7.45 -8.15 -7.55 -7.3 Q-7.55 -6.95 -7.15 -6.35 -6.6 -5.5 -5.75 -5.5 L-4.5 -5.65 Q-2.7 -7.25 -2.35 -7.3 -1.8 -7.05 -0.75 -7.05 L0.6 -7.3 Q0.7 -7.45 0.8 -7.8 0.9 -8.05 1.3 -8.05 L2.25 -8.25 Q2.75 -8.4 3.1 -8.1 3.5 -8.3 3.5 -8.45 L3.4 -8.65 Q3.25 -8.85 3.25 -9.1 L3.65 -9.15 Q4.55 -9.05 5.15 -8.25 5.6 -7.6 5.6 -7.05 M-11.95 -7.65 L-11.6 -7.65 -11.55 -7.75 -11.95 -7.65 M-12.2 -7.55 Q-11.9 -7.95 -11.2 -8.0 -10.05 -8.05 -10.05 -7.35 -10.05 -6.8 -10.65 -6.35 -11.25 -5.9 -11.25 -5.2 -11.25 -3.55 -10.15 -3.45 L-9.0 -3.45 Q-8.25 -3.45 -7.7 -3.2 -7.4 -3.1 -6.8 -1.95 -6.3 -1.0 -5.35 -1.0 L-4.55 -1.25 Q-3.85 -1.5 -2.6 -1.5 -1.25 -1.5 -0.5 -0.85 0.0 -0.35 0.0 0.05 0.0 0.6 -0.3 0.8 -0.55 1.0 -1.2 1.0 -1.4 1.0 -3.4 1.8 -5.35 2.6 -7.6 2.6 L-8.85 2.4 -9.7 2.2 -11.4 2.1 -13.15 2.0 Q-13.45 2.0 -13.9 2.25 -14.35 2.55 -14.6 2.55 L-15.45 2.5 Q-15.85 2.35 -15.95 2.15 L-16.0 1.85 Q-16.0 1.65 -15.25 0.85 -14.45 0.0 -14.45 -1.05 L-14.4 -2.5 Q-14.3 -3.4 -13.65 -3.95 -13.0 -4.5 -12.65 -5.3 L-12.65 -5.45 -12.7 -6.2 Q-12.7 -6.9 -12.6 -7.2 -12.45 -7.45 -12.2 -7.55" fill="#ffffff" fill-opacity="0.5019608" fill-rule="evenodd" stroke="none"/>
    </g>
    <g id="shape5" transform="matrix(1.0, 0.0, 0.0, 1.0, 2.85, 0.45)">
      <path d="M3.25 -0.1 Q3.25 0.2 2.9 0.45 L2.65 0.6 2.35 0.7 0.2 1.05 -1.95 0.7 -2.5 0.45 Q-2.85 0.2 -2.85 -0.1 L-2.85 -0.15 -1.95 -0.35 0.2 -0.45 2.35 -0.35 2.65 -0.3 3.25 -0.15 3.25 -0.1" fill="#ffffff" fill-opacity="0.5019608" fill-rule="evenodd" stroke="none"/>
      <path d="M2.55 -0.1 Q2.55 0.2 2.25 0.45 2.1 0.6 1.85 0.7 1.15 1.05 0.2 1.05 -0.8 1.05 -1.45 0.7 L-1.9 0.45 Q-2.15 0.2 -2.15 -0.1 L-2.15 -0.15 -1.45 -0.35 0.2 -0.45 1.85 -0.35 2.55 -0.15 2.55 -0.1" fill="#ffffff" fill-opacity="0.5019608" fill-rule="evenodd" stroke="none"/>
    </g>
    <g id="shape6" transform="matrix(1.0, 0.0, 0.0, 1.0, 1.2, 11.25)">
      <path d="M2.95 -7.6 L2.95 -6.85 2.85 -6.25 2.8 -6.15 2.8 -6.2 2.75 -6.1 2.85 -5.95 2.9 -5.95 Q3.1 -5.9 3.1 -5.7 L3.05 -5.5 2.9 -5.45 2.7 -5.45 Q2.6 -5.55 2.55 -5.7 L2.45 -5.9 Q2.3 -5.9 2.3 -6.0 L2.3 -6.3 Q2.35 -6.6 2.45 -6.6 L2.55 -6.55 2.55 -6.5 2.6 -6.25 2.7 -6.1 2.7 -6.35 2.75 -6.65 2.65 -7.05 2.55 -7.15 Q2.4 -7.05 2.25 -6.85 2.1 -6.5 2.05 -5.9 1.9 -4.85 1.65 -4.85 1.5 -3.95 1.5 -2.95 1.5 -2.6 1.55 -2.1 L1.6 -1.95 1.65 -1.4 Q1.7 -0.85 1.75 -0.8 L1.95 -1.25 1.95 -1.4 2.0 -1.6 2.05 -1.95 2.1 -2.15 Q2.15 -2.7 2.15 -3.05 L2.2 -3.1 2.2 -3.4 2.25 -3.4 2.25 -2.55 2.3 -2.1 2.3 -2.15 2.35 -1.95 2.4 -1.7 2.45 -1.4 2.6 -1.0 Q2.75 -0.55 3.0 -0.25 L3.0 -0.05 Q3.0 0.05 2.95 0.05 2.85 0.05 2.7 -0.25 L2.7 -0.1 2.65 -0.1 2.5 -0.15 2.3 -0.25 Q2.15 -0.25 1.9 0.15 L1.65 0.15 1.6 0.05 1.55 0.05 Q1.2 0.05 1.1 -0.15 1.0 -0.35 0.85 -0.35 L0.25 -0.1 Q0.15 -0.1 0.15 -0.35 0.1 -0.15 0.05 -0.15 0.0 -0.05 -0.1 -0.05 L-0.15 0.15 -0.45 0.15 -0.5 -0.1 -0.55 -0.1 -0.65 -0.05 -0.65 0.15 -1.0 0.15 -1.0 0.05 -1.05 -0.15 -1.15 0.1 -1.2 0.05 -1.05 -1.05 -1.0 -1.4 -0.95 -1.95 -0.9 -2.2 -0.9 -2.3 -0.85 -2.35 -0.85 -2.95 -0.8 -2.95 -0.8 -2.9 -0.85 -2.8 -0.85 -2.5 -0.8 -2.2 -0.8 -2.3 -0.75 -2.25 -0.8 -1.95 -0.8 -1.75 -0.75 -1.4 Q-0.7 -0.45 -0.55 -0.45 L-0.5 -1.4 Q-0.45 -1.7 -0.3 -1.8 -0.1 -1.85 -0.1 -1.4 L-0.1 -0.95 0.0 -0.65 Q0.1 -0.65 0.15 -1.4 L0.2 -1.95 0.2 -2.1 0.25 -2.95 0.25 -3.2 0.15 -3.25 0.15 -3.3 0.1 -3.25 0.0 -3.1 -0.05 -3.0 -0.2 -2.65 Q-0.4 -2.65 -0.45 -2.8 L-0.5 -3.1 -0.5 -3.95 -0.6 -4.3 Q-0.75 -3.75 -0.75 -3.3 L-0.75 -3.4 -0.8 -3.1 -0.85 -2.95 Q-0.9 -3.75 -0.95 -4.3 L-0.95 -4.25 -1.0 -4.5 -1.2 -5.65 Q-1.2 -6.3 -1.1 -6.5 L-0.75 -6.7 Q-0.15 -6.95 0.1 -8.35 L0.4 -9.85 Q0.5 -10.1 0.6 -10.35 L0.6 -10.4 0.65 -10.45 0.75 -10.75 1.0 -11.1 1.2 -11.2 1.45 -11.2 Q1.9 -10.8 2.0 -9.9 2.1 -9.0 2.3 -8.7 2.5 -8.9 2.7 -8.65 L2.8 -8.55 Q2.9 -8.35 2.95 -8.05 L2.95 -7.6 M0.95 -10.9 L0.95 -10.95 0.9 -10.85 0.95 -10.9 M0.5 -9.9 L0.5 -9.9 M1.85 -8.85 L1.9 -9.25 1.65 -9.25 Q1.55 -9.25 1.55 -8.9 L1.55 -8.8 Q1.6 -8.7 1.65 -8.7 1.8 -8.7 1.85 -8.85 M2.85 -6.35 L2.85 -6.35 M2.75 -5.75 L2.65 -5.8 2.75 -5.7 2.75 -5.75 M0.05 -3.85 L0.05 -4.1 Q0.05 -4.5 -0.1 -4.5 -0.3 -4.5 -0.3 -4.2 L-0.25 -3.95 Q-0.2 -3.65 -0.05 -3.65 0.0 -3.65 0.05 -3.85 M0.3 -3.25 L0.3 -3.25 M2.25 -3.1 L2.25 -3.1 M2.15 -2.7 L2.15 -2.6 2.2 -2.6 2.15 -2.7 M2.25 -1.95 L2.25 -1.95 M1.7 -0.7 L1.7 -0.7 M-0.25 -4.75 Q-0.25 -4.9 -0.35 -4.9 -0.45 -4.9 -0.45 -4.7 L-0.45 -4.6 Q-0.4 -4.5 -0.35 -4.5 -0.3 -4.5 -0.25 -4.55 L-0.25 -4.75 M-0.8 -1.95 L-0.8 -1.95 M-0.9 -1.5 L-0.9 -1.4 -0.85 -1.4 -0.85 -1.5 -0.9 -1.5" fill="#ffffff" fill-opacity="0.5019608" fill-rule="evenodd" stroke="none"/>
    </g>
    <g id="shape7" transform="matrix(1.0, 0.0, 0.0, 1.0, 1.1, 17.65)">
      <path d="M1.2 -17.65 Q1.5 -17.6 1.7 -17.15 1.8 -16.85 1.9 -16.45 L1.85 -16.55 1.9 -16.55 1.95 -16.05 2.0 -15.2 2.1 -14.5 Q2.2 -14.2 2.35 -14.15 L2.55 -14.3 Q2.65 -14.5 2.8 -14.5 3.0 -14.5 3.15 -14.05 L3.2 -13.9 3.25 -13.6 3.25 -13.15 3.2 -13.05 3.2 -13.0 Q3.2 -12.85 3.1 -12.7 3.0 -12.55 3.0 -12.35 3.0 -12.15 3.1 -12.05 3.25 -12.0 3.25 -11.75 L3.2 -10.95 Q3.2 -10.8 3.15 -10.65 3.05 -10.75 3.05 -10.9 L3.0 -11.15 2.7 -11.65 2.6 -12.1 Q2.45 -12.55 2.25 -12.55 1.9 -12.55 1.65 -11.85 L1.5 -11.15 1.45 -10.8 Q1.4 -10.45 1.4 -10.35 1.4 -10.1 1.45 -10.05 L1.85 -9.95 Q2.0 -9.95 2.0 -9.4 2.0 -9.0 1.75 -8.8 1.45 -8.6 1.35 -7.95 1.3 -7.8 1.3 -7.5 L1.3 -7.4 1.25 -6.8 1.2 -6.5 Q1.1 -5.7 1.1 -5.5 L1.0 -5.4 Q0.95 -5.65 0.95 -6.1 0.95 -6.55 0.9 -6.8 L0.7 -7.45 Q0.55 -7.85 0.55 -8.1 0.55 -8.4 0.7 -8.7 L0.85 -9.0 0.85 -9.15 0.8 -9.3 0.75 -9.5 0.65 -9.7 0.45 -10.3 0.45 -10.25 0.2 -10.25 Q-0.05 -10.25 -0.1 -10.55 -0.15 -10.65 -0.15 -10.9 -0.15 -11.2 0.0 -11.4 0.05 -11.55 0.05 -11.8 L-0.1 -12.25 -0.25 -12.5 Q-0.5 -12.45 -0.6 -12.05 L-0.7 -11.85 -0.7 -11.5 -0.65 -11.2 -0.6 -10.8 -0.6 -10.75 Q-0.7 -10.95 -0.9 -11.4 L-1.1 -11.9 -1.05 -11.95 -1.1 -12.05 Q-1.1 -12.2 -1.0 -12.4 L-0.85 -12.7 -0.8 -13.0 -0.7 -13.2 Q-0.65 -13.35 -0.5 -13.35 -0.3 -13.35 -0.2 -13.15 L-0.1 -13.0 Q0.15 -13.05 0.25 -13.6 L0.3 -13.9 0.3 -14.25 Q0.25 -14.8 0.25 -14.95 0.25 -15.65 0.4 -16.25 L0.7 -17.25 Q0.9 -17.7 1.2 -17.65 M2.75 -14.1 L2.8 -14.15 2.7 -14.15 2.7 -14.1 2.75 -14.1 M0.25 -13.1 Q0.35 -13.3 0.4 -13.7 L0.3 -13.25 0.25 -13.1 M2.45 -6.25 L2.3 -6.3 2.3 -6.45 2.35 -6.55 2.4 -6.55 2.6 -6.5 2.7 -6.4 2.9 -6.45 Q3.1 -6.45 3.25 -6.25 L3.25 -6.05 3.15 -5.95 2.85 -6.2 2.75 -6.15 2.7 -6.1 2.5 -6.15 2.45 -6.25 M1.5 -5.0 L1.5 -5.15 Q1.5 -5.4 1.75 -5.3 2.0 -5.25 2.0 -5.05 2.0 -4.85 1.85 -4.85 L1.75 -4.9 1.5 -5.0 M0.2 -6.35 L0.15 -6.4 0.05 -6.45 -0.15 -6.35 -0.5 -6.4 -0.55 -6.45 -0.65 -6.5 -0.7 -6.5 -0.75 -6.45 -0.85 -6.3 -0.9 -6.2 -1.0 -6.2 -1.05 -6.35 Q-1.05 -6.85 -0.8 -6.8 L-0.45 -6.6 -0.3 -6.65 -0.2 -6.75 Q0.05 -6.75 0.15 -6.6 L0.2 -6.5 0.2 -6.35 M1.0 -4.5 Q1.2 -4.6 1.2 -4.35 L1.15 -4.15 Q1.1 -4.0 0.95 -4.0 0.9 -4.0 0.85 -4.1 L0.85 -4.2 Q0.85 -4.45 1.0 -4.5 M1.0 -3.05 L1.0 -2.85 1.1 -2.35 Q1.1 -2.2 1.05 -2.05 1.0 -1.9 0.85 -1.9 0.8 -1.9 0.75 -2.05 L0.75 -2.15 Q0.75 -2.35 0.85 -2.65 L1.0 -3.05 M1.25 -0.35 Q1.2 -0.45 1.2 -0.7 1.2 -1.15 1.3 -1.3 1.45 -0.95 1.55 -0.3 1.55 -0.25 1.45 -0.25 1.4 -0.25 1.35 -0.35 L1.25 -0.35 M-0.8 -11.75 L-0.8 -11.8 -0.85 -11.8 -0.8 -11.75 M-0.3 -12.75 L-0.3 -12.75 M-0.65 -12.3 L-0.6 -12.35 -0.65 -12.35 -0.65 -12.3 M-0.7 -0.25 L-0.7 -0.15 Q-0.75 0.05 -0.75 0.1 L-0.95 0.1 Q-1.0 0.25 -1.0 -0.15 L-1.0 -0.2 Q-0.9 -0.75 -0.8 -0.85 L-0.75 -0.6 -0.7 -0.25" fill="#ffffff" fill-opacity="0.5019608" fill-rule="evenodd" stroke="none"/>
    </g>
  </defs>
</svg>
