<?xml version="1.0" encoding="UTF-8" standalone="no"?>
<svg xmlns:ffdec="https://www.free-decompiler.com/flash" xmlns:xlink="http://www.w3.org/1999/xlink" ffdec:objectType="frame" height="390.65px" width="498.9px" xmlns="http://www.w3.org/2000/svg">
  <g transform="matrix(1.0, 0.0, 0.0, 1.0, 235.8, 177.85)">
    <use ffdec:characterId="467" height="16.15" transform="matrix(-5.8499, 5.4335, 4.2181, 6.7274, -37.4755, -40.7922)" width="13.0" xlink:href="#shape0"/>
    <use ffdec:characterId="470" height="21.7" transform="matrix(7.0, 4.9933, -4.9933, 7.0, 48.7614, -111.456)" width="17.95" xlink:href="#shape1"/>
  </g>
  <defs>
    <g id="shape0" transform="matrix(1.0, 0.0, 0.0, 1.0, 6.5, 16.05)">
      <path d="M5.0 -13.0 Q6.25 -12.15 6.25 -10.8 6.25 -9.65 6.15 -9.05 6.0 -8.15 5.5 -7.35 L5.25 -6.8 Q5.2 -6.6 5.2 -6.45 5.2 -6.4 5.35 -6.0 5.85 -5.55 6.15 -4.9 6.5 -4.05 6.5 -3.0 6.5 -2.8 6.3 -2.35 6.05 -1.8 5.7 -1.35 4.75 -0.05 3.65 -0.05 L3.4 -0.1 3.35 -0.1 3.2 0.0 Q2.85 0.0 2.75 -0.1 L2.8 -0.15 2.8 -0.3 Q2.8 -0.45 2.95 -1.1 3.05 -1.8 3.05 -1.95 3.05 -3.0 2.6 -4.55 2.0 -6.45 1.05 -8.0 0.5 -8.8 -0.05 -9.5 -2.1 -11.45 -5.3 -12.3 L-5.95 -12.35 -5.95 -12.2 -6.15 -12.35 -6.2 -12.35 -6.35 -12.4 -6.2 -12.4 Q-6.65 -12.85 -6.45 -13.85 -5.95 -16.15 -3.4 -16.05 -2.45 -16.0 -1.8 -15.35 -1.55 -15.15 -1.4 -14.9 -0.65 -14.55 0.45 -14.15 3.55 -14.1 5.0 -13.0 M-5.95 -12.4 L-5.75 -12.4 -5.95 -12.45 -5.95 -12.4" fill="#540000" fill-opacity="0.5019608" fill-rule="evenodd" stroke="none"/>
      <path d="M1.75 -13.5 Q1.85 -13.35 2.05 -13.25 L2.2 -13.3 2.85 -13.15 2.85 -13.4 Q3.15 -13.5 3.65 -13.1 L4.3 -12.5 4.8 -11.9 Q5.15 -11.5 5.15 -11.25 L5.15 -10.95 4.9 -11.15 4.7 -11.35 4.65 -11.35 4.55 -11.2 Q4.55 -11.15 4.55 -11.05 4.55 -11.0 4.7 -10.4 4.9 -9.8 4.9 -9.6 4.9 -9.45 4.7 -8.9 4.55 -8.4 4.55 -8.3 L4.65 -8.2 Q4.7 -8.25 4.85 -8.4 4.95 -8.55 5.05 -8.55 L5.15 -8.4 5.15 -8.3 Q5.15 -8.0 5.05 -7.6 L5.0 -7.5 Q4.95 -7.3 4.85 -6.9 L4.7 -6.45 Q4.7 -6.4 5.15 -4.95 L5.25 -5.1 5.35 -5.15 Q5.45 -5.15 5.6 -4.8 5.75 -4.45 5.75 -4.25 5.75 -3.95 5.65 -3.55 L5.65 -3.4 5.55 -3.15 Q5.45 -2.6 5.25 -2.25 L5.25 -2.15 Q5.2 -1.95 5.2 -1.8 5.25 -1.5 5.2 -1.45 5.1 -1.25 4.65 -1.2 L4.6 -1.15 Q4.55 -1.05 4.55 -0.6 4.55 -0.25 4.15 -0.15 L4.1 -0.15 Q3.95 0.0 3.7 0.0 L3.7 0.05 Q3.75 0.1 3.55 0.1 2.95 0.1 2.8 -0.1 2.75 -0.15 2.75 -0.35 2.75 -0.55 2.95 -1.15 3.1 -1.7 3.1 -2.0 3.1 -3.8 2.05 -6.0 L1.35 -7.35 Q1.15 -7.8 1.05 -7.95 L1.0 -8.05 0.45 -8.8 Q0.15 -9.2 -0.9 -10.2 -1.15 -10.45 -1.75 -10.8 L-2.85 -11.35 Q-3.7 -11.8 -3.9 -11.85 -4.75 -12.15 -6.2 -12.15 -6.25 -12.15 -6.35 -12.35 L-6.45 -12.55 -6.45 -12.7 -6.5 -13.0 Q-6.5 -13.85 -5.95 -14.65 -5.4 -15.45 -4.55 -15.5 L-4.45 -15.6 -4.05 -15.55 -4.0 -15.55 -3.85 -15.35 -3.85 -15.3 -3.9 -15.25 -4.05 -15.2 -4.35 -15.15 -4.5 -15.05 -4.35 -15.05 -3.8 -14.95 -3.8 -15.0 -3.55 -15.2 Q-3.3 -15.2 -3.05 -15.1 L-2.8 -14.95 -2.8 -14.75 -2.95 -14.7 -3.2 -14.8 -3.2 -14.75 Q-2.75 -14.6 -2.5 -14.4 L-2.15 -14.25 -2.0 -14.25 Q-2.2 -14.4 -2.4 -14.8 L-2.35 -14.95 Q-1.95 -15.0 -1.45 -14.5 -0.85 -14.0 -0.4 -13.9 L-0.3 -13.95 -0.2 -14.05 Q0.25 -14.0 1.3 -14.0 1.5 -13.9 1.75 -13.5 M5.45 -9.05 Q5.35 -9.15 5.35 -9.35 L5.3 -9.7 5.35 -10.45 Q5.6 -10.45 5.7 -10.15 5.75 -9.95 5.75 -9.75 5.75 -9.65 5.65 -9.45 5.55 -9.15 5.45 -9.05 M5.2 -4.85 L5.25 -4.85 5.25 -4.9 5.2 -4.9 5.2 -4.85 M5.9 -2.45 L5.9 -2.15 Q5.85 -2.0 5.65 -1.75 L5.5 -1.75 5.45 -1.8 5.45 -1.9 Q5.45 -2.1 5.6 -2.5 5.75 -2.9 5.85 -2.9 5.9 -2.75 5.9 -2.45" fill="#270909" fill-opacity="0.2509804" fill-rule="evenodd" stroke="none"/>
    </g>
    <g id="shape1" transform="matrix(1.0, 0.0, 0.0, 1.0, 6.6, 20.65)">
      <path d="M4.95 -19.4 Q6.6 -20.05 7.35 -18.25 7.6 -17.75 7.8 -16.85 7.95 -16.0 8.05 -15.9 8.35 -15.4 8.75 -14.85 L9.35 -14.05 Q9.95 -13.2 9.95 -12.3 9.95 -12.0 9.9 -11.9 9.8 -11.65 9.4 -11.3 L8.0 -11.25 Q7.35 -10.85 7.05 -10.3 L6.95 -10.15 6.8 -9.6 6.8 -9.3 Q6.8 -9.2 6.75 -9.15 L6.7 -9.25 6.65 -9.05 Q6.65 -8.75 6.95 -8.15 7.2 -7.5 7.5 -7.3 L8.0 -7.35 8.8 -7.45 Q8.9 -7.6 9.2 -7.75 9.5 -7.95 9.65 -7.95 10.9 -7.95 11.25 -6.8 11.35 -6.45 11.35 -6.0 L11.35 -5.55 11.3 -4.75 Q11.25 -4.1 11.1 -3.8 10.75 -2.85 9.75 -2.7 L8.9 -2.65 Q8.4 -2.55 8.05 -2.35 7.6 -2.05 7.5 -1.6 7.45 -1.35 7.45 -0.7 7.45 -0.15 7.3 0.2 7.1 0.7 6.45 1.05 L5.7 1.05 Q5.4 0.75 4.75 0.5 4.3 0.3 4.2 -0.05 L4.25 -0.15 4.1 -0.3 3.45 -0.25 3.1 -0.3 3.05 -0.35 3.05 -0.55 Q3.05 -0.8 3.45 -2.15 3.85 -3.5 3.85 -4.2 3.85 -5.3 3.35 -6.55 2.95 -7.7 2.3 -8.6 L1.5 -9.65 Q0.95 -10.35 0.75 -10.75 0.05 -12.55 -1.45 -12.65 L-2.85 -12.55 -4.45 -12.45 -5.75 -12.7 -6.05 -12.7 -6.05 -12.75 -6.1 -12.75 -6.4 -12.8 Q-6.5 -12.95 -6.55 -13.0 -6.55 -13.1 -6.55 -13.3 -6.55 -13.8 -6.4 -14.05 L-6.0 -14.45 Q-5.45 -15.0 -5.5 -16.1 L-5.6 -17.45 Q-5.55 -18.25 -5.0 -18.85 L-4.45 -19.5 Q-4.05 -20.0 -3.6 -20.3 -2.35 -21.1 -0.85 -20.15 -0.4 -19.7 -0.2 -19.15 -0.1 -18.95 0.05 -18.3 0.1 -17.85 0.3 -17.7 0.5 -17.45 1.0 -17.45 1.25 -17.45 2.0 -17.8 L2.8 -18.2 2.85 -18.25 2.85 -18.05 2.9 -18.1 Q3.1 -18.2 4.05 -18.85 4.65 -19.25 4.95 -19.4" fill="#540000" fill-opacity="0.5019608" fill-rule="evenodd" stroke="none"/>
      <path d="M5.0 -18.5 Q5.75 -18.45 6.05 -18.15 6.2 -18.0 6.5 -17.6 6.75 -17.2 6.75 -17.05 6.75 -16.9 6.55 -16.65 6.4 -16.5 6.2 -16.45 L6.65 -16.1 Q7.05 -15.8 7.1 -15.3 7.2 -15.1 7.2 -14.95 L7.2 -14.9 7.25 -15.05 7.15 -15.25 Q7.15 -15.35 7.2 -15.35 L7.35 -15.35 Q7.25 -15.5 7.15 -15.85 L7.25 -15.85 7.25 -15.9 7.35 -15.9 Q7.45 -15.9 7.55 -15.8 L7.55 -15.75 7.65 -15.65 Q7.85 -15.35 7.9 -15.25 L8.05 -15.05 Q8.15 -14.85 8.3 -14.6 8.45 -14.15 8.5 -13.6 8.65 -13.6 8.75 -13.45 L8.8 -13.35 8.85 -13.3 Q9.05 -13.15 9.05 -12.75 9.05 -12.5 8.9 -12.05 L8.75 -12.0 8.65 -11.95 Q8.55 -11.85 8.45 -11.85 8.15 -11.85 8.1 -12.2 L8.1 -12.25 Q7.8 -12.45 7.6 -12.7 7.5 -12.55 7.45 -12.4 L7.45 -11.8 Q7.45 -11.4 7.15 -11.2 L7.1 -11.2 6.9 -10.95 Q6.85 -10.85 6.7 -10.85 6.0 -10.85 5.8 -11.05 5.5 -11.3 5.7 -12.15 5.75 -12.45 5.55 -12.8 5.3 -13.25 4.8 -13.45 4.3 -13.3 4.2 -13.1 4.2 -13.05 4.2 -12.75 4.2 -12.4 4.3 -12.1 4.45 -11.9 4.7 -11.55 5.35 -11.5 5.6 -10.85 5.8 -10.45 5.8 -9.9 5.8 -9.4 5.75 -9.3 L5.0 -8.45 4.95 -8.4 Q5.0 -8.3 5.05 -8.3 5.35 -8.45 5.7 -8.6 L6.0 -8.75 Q6.05 -8.8 6.05 -8.65 L6.1 -8.6 Q6.0 -8.5 5.75 -8.1 5.55 -7.65 5.55 -7.55 5.55 -7.05 5.8 -6.5 6.05 -5.8 6.4 -5.8 6.55 -5.8 6.65 -6.05 L6.7 -6.3 6.45 -6.6 Q6.2 -6.95 6.2 -7.15 L6.25 -7.2 6.25 -7.25 6.75 -7.25 Q7.65 -6.95 7.65 -6.3 L7.55 -5.9 7.45 -5.55 Q7.45 -5.25 7.7 -5.1 8.0 -4.95 8.15 -4.7 L8.35 -3.7 8.3 -3.4 8.2 -3.05 8.2 -2.75 Q8.2 -2.65 8.0 -2.45 7.75 -2.2 7.6 -2.2 7.2 -2.2 7.2 -2.45 7.15 -2.95 7.0 -3.2 6.7 -3.2 6.5 -3.05 6.35 -2.95 6.35 -2.8 6.35 -2.4 6.75 -2.2 7.1 -2.0 7.1 -1.7 7.1 -1.65 7.2 -1.45 L7.25 -1.15 Q7.25 -0.75 6.85 -0.2 6.35 0.4 5.85 0.4 5.7 0.4 5.45 0.2 L5.1 -0.1 4.95 -0.15 4.8 0.05 4.65 0.2 4.55 0.15 4.45 0.15 Q4.4 0.2 4.4 0.05 4.25 -0.1 4.25 -0.2 L4.25 -0.3 3.05 -0.25 2.95 -0.3 2.95 -0.4 Q2.95 -0.8 3.1 -1.4 L3.45 -2.3 Q3.8 -3.3 3.8 -3.45 3.85 -3.6 3.8 -4.2 3.8 -4.4 3.85 -4.75 L3.35 -6.3 Q3.0 -7.4 2.6 -8.2 2.4 -8.5 1.85 -9.1 1.2 -9.8 1.05 -10.0 0.95 -10.1 0.6 -10.9 L0.3 -11.6 0.0 -11.95 Q-0.5 -12.5 -1.05 -12.65 L-2.05 -12.6 -2.5 -12.55 -3.1 -12.5 -3.55 -12.45 -3.95 -12.45 -4.25 -12.5 -4.5 -12.55 -5.45 -12.6 Q-6.05 -12.7 -6.2 -12.8 L-6.25 -12.85 Q-6.45 -12.85 -6.55 -13.05 L-6.6 -13.3 Q-6.6 -13.85 -6.35 -14.2 L-5.65 -14.95 Q-5.45 -15.25 -5.5 -15.75 L-5.6 -16.55 Q-5.6 -16.75 -5.55 -16.95 L-5.45 -17.1 -5.35 -17.45 -5.05 -18.35 Q-4.85 -18.7 -4.45 -18.8 -4.05 -18.85 -3.65 -18.7 -3.5 -18.6 -3.35 -18.25 -3.2 -18.0 -3.2 -17.85 -3.2 -17.8 -3.45 -17.75 L-4.0 -17.65 Q-4.2 -17.6 -4.4 -17.35 -4.6 -17.1 -4.6 -16.95 -4.6 -16.7 -4.5 -16.6 -4.4 -16.45 -4.2 -16.4 L-4.2 -16.5 -4.25 -16.55 Q-4.15 -16.65 -3.9 -16.95 -3.65 -17.2 -3.45 -17.2 -2.6 -17.2 -2.25 -16.55 -2.1 -16.35 -2.05 -16.05 L-1.95 -15.75 Q-1.85 -15.9 -1.8 -16.2 -1.75 -16.45 -1.75 -16.65 -1.75 -16.95 -1.75 -17.0 L-2.05 -17.4 -2.5 -17.45 -2.65 -17.55 Q-2.7 -17.6 -2.7 -17.65 L-2.65 -17.95 Q-2.6 -18.2 -2.5 -18.35 -2.35 -18.7 -2.2 -18.8 -2.0 -18.9 -1.5 -18.9 -1.05 -18.6 -0.95 -18.1 -0.9 -17.5 -0.8 -17.25 -0.5 -16.45 0.65 -16.3 L1.35 -16.15 Q1.65 -16.0 1.65 -15.7 L1.65 -15.3 1.6 -15.15 1.5 -14.75 Q1.55 -14.6 1.65 -14.4 1.95 -14.0 2.5 -14.0 2.95 -14.0 3.3 -14.65 3.6 -15.2 3.6 -15.45 3.25 -15.85 3.0 -15.8 L2.95 -15.8 2.85 -15.85 Q2.85 -15.9 2.9 -15.9 L2.85 -15.9 Q2.75 -16.1 2.7 -16.15 L2.9 -16.25 Q3.0 -16.25 3.05 -16.15 L3.3 -16.1 3.4 -16.1 3.6 -16.15 3.6 -16.2 3.55 -16.25 3.75 -16.8 3.8 -16.8 4.5 -16.85 4.2 -17.0 Q3.65 -17.2 3.45 -17.35 3.35 -17.45 3.35 -17.65 3.35 -17.95 3.4 -18.0 3.5 -18.1 4.1 -18.2 4.25 -18.6 5.0 -18.5 M1.8 -17.0 Q2.2 -17.1 2.5 -16.85 2.7 -16.7 2.7 -16.55 2.7 -16.4 2.5 -16.25 L2.0 -16.25 1.7 -16.45 Q1.55 -16.55 1.55 -16.65 1.55 -16.75 1.6 -16.85 1.65 -16.95 1.8 -17.0 M2.15 -12.9 Q3.45 -12.05 4.0 -10.95 L4.05 -10.95 4.1 -11.05 Q4.1 -11.5 3.4 -12.3 2.7 -13.2 2.2 -13.0 L2.15 -12.9 M7.15 -11.9 L7.15 -11.75 Q7.2 -11.85 7.2 -11.95 L7.15 -11.9 M6.1 -10.25 L6.1 -10.75 Q6.4 -10.75 6.5 -10.6 6.55 -10.55 6.55 -10.4 6.55 -10.05 6.4 -9.9 6.15 -10.0 6.1 -10.25 M6.65 -8.95 Q6.65 -8.4 6.4 -8.3 6.2 -8.4 6.2 -8.8 6.2 -9.15 6.0 -9.2 5.95 -9.15 5.95 -9.25 5.95 -9.5 6.25 -9.6 6.45 -9.6 6.55 -9.3 6.65 -9.1 6.65 -8.95 M6.4 -8.6 L6.45 -8.55 6.5 -8.55 Q6.5 -8.75 6.45 -8.95 L6.45 -8.9 6.4 -8.6 M8.25 -6.75 Q8.35 -6.9 8.6 -7.0 9.7 -7.05 10.25 -6.2 10.65 -5.6 10.65 -4.95 10.65 -4.4 10.45 -4.0 10.2 -3.35 9.55 -3.25 L9.25 -3.25 9.25 -3.2 8.9 -3.2 8.85 -3.25 8.85 -3.35 Q8.85 -3.45 8.95 -3.7 9.05 -3.95 9.1 -4.05 L9.15 -4.05 Q9.2 -4.2 9.2 -4.3 9.2 -4.55 9.15 -4.8 L9.05 -5.05 Q8.9 -5.3 8.8 -5.2 L8.6 -5.6 Q8.4 -5.75 8.35 -5.8 8.2 -6.05 8.2 -6.45 8.2 -6.65 8.25 -6.75 M8.2 -5.15 Q8.25 -5.4 8.55 -5.3 8.9 -5.1 8.9 -4.6 L8.85 -4.3 8.85 -4.25 8.7 -4.25 Q8.45 -4.25 8.3 -4.6 L8.25 -4.7 Q8.15 -4.9 8.15 -5.0 8.15 -5.2 8.15 -5.15 L8.2 -5.15 M9.4 -3.5 L9.4 -3.45 9.45 -3.45 9.4 -3.55 9.4 -3.5" fill="#270909" fill-opacity="0.2509804" fill-rule="evenodd" stroke="none"/>
    </g>
  </defs>
</svg>
