<?xml version="1.0" encoding="UTF-8" standalone="no"?>
<svg xmlns:ffdec="https://www.free-decompiler.com/flash" xmlns:xlink="http://www.w3.org/1999/xlink" ffdec:objectType="frame" height="94.85px" width="327.95px" xmlns="http://www.w3.org/2000/svg">
  <g transform="matrix(1.0, 0.0, 0.0, 1.0, 156.1, 92.4)">
    <use ffdec:characterId="712" height="12.0" transform="matrix(7.0, 0.0, 0.0, 7.0, -71.05, -81.55)" width="34.7" xlink:href="#shape0"/>
  </g>
  <defs>
    <g id="shape0" transform="matrix(1.0, 0.0, 0.0, 1.0, 10.15, 11.65)">
      <path d="M-3.9 -3.25 Q-1.95 -2.5 0.25 -2.4 L1.0 -2.4 Q2.25 -2.35 3.55 -2.35 L3.45 -2.4 4.8 -2.4 Q10.7 -2.65 16.4 -4.1 18.8 -4.7 21.0 -5.5 L20.95 -5.5 Q18.75 -4.65 16.3 -4.15 13.4 -3.6 10.7 -4.05 L10.45 -4.1 Q12.45 -4.4 14.4 -4.75 18.0 -5.45 21.5 -6.55 L23.95 -7.25 24.05 -7.25 24.25 -7.35 24.3 -7.25 Q24.45 -7.25 24.5 -7.1 L24.3 -7.0 24.3 -6.9 Q24.2 -6.65 23.8 -6.45 21.3 -3.0 17.1 -1.75 L13.75 -0.8 Q11.0 -0.05 8.35 0.05 6.95 0.35 5.35 0.35 2.3 0.3 -0.55 -0.4 -5.85 -0.85 -9.1 -5.4 -9.7 -6.2 -10.15 -7.05 -9.15 -6.45 -8.1 -5.95 L-7.4 -5.3 Q-5.8 -3.95 -3.9 -3.25 M14.35 -5.45 Q11.75 -5.15 9.5 -5.45 L16.8 -6.55 19.8 -6.85 Q17.25 -5.75 14.35 -5.45 M-9.35 -11.45 L-9.6 -11.6 -9.7 -11.65 -9.4 -11.55 -9.35 -11.45 M-2.3 -2.25 L-1.75 -2.15 -2.5 -2.35 -2.3 -2.25" fill="#ffffff" fill-opacity="0.8" fill-rule="evenodd" stroke="none"/>
      <path d="M24.3 -6.9 L24.3 -7.0 24.5 -7.1 Q24.45 -7.25 24.3 -7.25 L24.25 -7.35 24.05 -7.25 23.95 -7.25 21.5 -6.55 Q18.0 -5.45 14.4 -4.75 L16.15 -5.2 Q19.95 -6.15 23.7 -7.35 24.25 -7.5 24.55 -7.1 L24.3 -6.9" fill="#cccccc" fill-opacity="0.6" fill-rule="evenodd" stroke="none"/>
      <path d="M-3.9 -3.25 Q-5.8 -3.95 -7.4 -5.3 L-8.1 -5.95 Q-6.85 -5.3 -5.55 -4.7 -3.4 -3.8 -1.4 -3.7 0.1 -3.45 1.7 -3.4 6.25 -3.35 10.7 -4.05 13.4 -3.6 16.3 -4.15 18.75 -4.65 20.95 -5.5 L21.0 -5.5 Q18.8 -4.7 16.4 -4.1 10.7 -2.65 4.8 -2.4 L3.45 -2.4 3.55 -2.35 Q2.25 -2.35 1.0 -2.4 -1.4 -2.65 -3.8 -3.2 L-3.9 -3.25" fill="#cccccc" fill-opacity="0.8" fill-rule="evenodd" stroke="none"/>
    </g>
  </defs>
</svg>
