<?xml version="1.0" encoding="UTF-8" standalone="no"?>
<svg xmlns:ffdec="https://www.free-decompiler.com/flash" xmlns:xlink="http://www.w3.org/1999/xlink" ffdec:objectType="frame" height="127.3px" width="362.1px" xmlns="http://www.w3.org/2000/svg">
  <g transform="matrix(1.0, 0.0, 0.0, 1.0, -1.7, 0.0)">
    <use ffdec:characterId="354" height="127.3" transform="matrix(1.0, 0.0, 0.0, 1.0, 1.7, 0.0)" width="362.1" xlink:href="#shape0"/>
  </g>
  <defs>
    <g id="shape0" transform="matrix(1.0, 0.0, 0.0, 1.0, -1.7, 0.0)">
      <path d="M342.9 0.0 Q346.9 3.4 351.45 6.7 358.3 11.7 363.8 14.65 L363.8 109.3 Q361.3 110.65 358.35 112.75 352.1 117.1 345.6 123.3 L341.6 127.3 26.0 127.3 23.95 125.7 Q15.25 118.85 7.4 114.1 L2.25 111.2 2.25 79.3 2.1 79.05 1.7 79.05 1.7 14.1 Q6.6 12.3 15.0 7.5 24.05 2.3 26.7 0.0 L342.9 0.0" fill="#111111" fill-opacity="0.8" fill-rule="evenodd" stroke="none"/>
    </g>
  </defs>
</svg>
