<?xml version="1.0" encoding="UTF-8" standalone="no"?>
<svg xmlns:ffdec="https://www.free-decompiler.com/flash" xmlns:xlink="http://www.w3.org/1999/xlink" ffdec:objectType="frame" height="50.05px" width="28.0px" xmlns="http://www.w3.org/2000/svg">
  <g transform="matrix(1.0, 0.0, 0.0, 1.0, 20.3, 3.15)">
    <use ffdec:characterId="305" height="7.15" transform="matrix(7.0, 0.0, 0.0, 7.0, -20.3, -3.15)" width="4.0" xlink:href="#shape0"/>
  </g>
  <defs>
    <g id="shape0" transform="matrix(1.0, 0.0, 0.0, 1.0, 2.9, 0.45)">
      <path d="M0.2 -0.2 Q0.3 -0.45 0.6 -0.45 0.9 -0.15 1.0 0.2 1.1 0.4 1.1 0.8 1.1 1.4 0.95 1.7 0.75 2.2 0.1 2.65 -0.8 3.3 -1.1 3.65 -1.5 4.05 -1.55 4.4 L-1.65 4.65 -1.65 4.8 Q-1.65 5.1 -1.5 5.25 -1.4 5.35 -1.05 5.5 L-0.8 5.55 Q-0.55 5.65 -0.5 5.65 L-0.35 5.85 -0.3 6.05 -0.3 6.15 Q-0.3 6.25 -0.4 6.3 L-0.45 6.4 Q-0.65 6.65 -1.05 6.7 L-1.2 6.7 -1.2 6.65 Q-2.0 6.65 -2.35 6.4 -2.9 6.0 -2.9 4.95 -2.9 4.6 -2.75 4.25 -2.55 3.85 -2.25 3.6 L-1.35 2.9 Q-0.8 2.45 -0.65 2.25 0.0 1.35 0.05 0.85 L0.15 0.2 0.2 -0.2 M0.8 0.45 Q0.7 0.25 0.45 -0.15 0.5 1.55 -0.4 2.5 -1.1 3.2 -1.95 3.85 -2.45 4.3 -2.45 5.0 -2.45 5.45 -2.15 5.85 -1.9 6.3 -1.55 6.3 -0.9 6.3 -0.7 6.2 L-0.55 6.0 Q-0.6 5.95 -0.7 5.95 L-0.75 5.95 -0.85 5.9 -0.9 5.9 Q-1.35 5.85 -1.65 5.65 -1.8 5.55 -1.85 5.4 -1.95 5.25 -1.95 5.1 L-1.95 4.75 Q-1.95 4.25 -1.5 3.75 -1.25 3.4 -0.55 2.85 0.15 2.3 0.45 2.0 L0.6 1.75 0.7 1.5 Q0.85 1.1 0.85 0.75 L0.8 0.45" fill="#111111" fill-rule="evenodd" stroke="none"/>
      <path d="M0.8 0.45 L0.85 0.75 Q0.85 1.1 0.7 1.5 L0.6 1.75 0.45 2.0 Q0.15 2.3 -0.55 2.85 -1.25 3.4 -1.5 3.75 -1.95 4.25 -1.95 4.75 L-1.95 5.1 Q-1.95 5.25 -1.85 5.4 -1.8 5.55 -1.65 5.65 -1.35 5.85 -0.9 5.9 L-0.85 5.9 -0.75 5.95 -0.7 5.95 Q-0.6 5.95 -0.55 6.0 L-0.7 6.2 Q-0.9 6.3 -1.55 6.3 -1.9 6.3 -2.15 5.85 -2.45 5.45 -2.45 5.0 -2.45 4.3 -1.95 3.85 -1.1 3.2 -0.4 2.5 0.5 1.55 0.45 -0.15 0.7 0.25 0.8 0.45" fill="#3cb5b5" fill-rule="evenodd" stroke="none"/>
    </g>
  </defs>
</svg>
