<?xml version="1.0" encoding="UTF-8" standalone="no"?>
<svg xmlns:ffdec="https://www.free-decompiler.com/flash" xmlns:xlink="http://www.w3.org/1999/xlink" ffdec:objectType="frame" height="64.85px" width="63.25px" xmlns="http://www.w3.org/2000/svg">
  <g transform="matrix(1.0, 0.0, 0.0, 1.0, 14.05, 13.0)">
    <clipPath id="clipPath0" transform="matrix(1.0, 0.0, 0.0, 1.0, 0.0, 0.0)">
      <path d="M32.0 7.5 L32.0 40.5 Q32.0 48.0 26.75 48.0 L5.25 48.0 Q0.0 48.0 0.0 40.5 L0.0 7.5 Q0.0 0.0 5.25 0.0 L26.75 0.0 Q32.0 0.0 32.0 7.5" fill="#ff0000" fill-rule="evenodd" stroke="none"/>
    </clipPath>
    <g clip-path="url(#clipPath0)">
      <use ffdec:characterId="528" height="53.6" transform="matrix(1.0, 0.0, 0.0, 1.0, -9.2, -2.45)" width="49.15" xlink:href="#shape1"/>
      <filter id="filter0">
        <feColorMatrix in="SourceGraphic" result="filterResult0" type="matrix" values="-0.574 1.4299998 0.14400007 0.0 -0.2862745 0.426 0.42999995 0.14399996 0.0 -0.2862745 0.42599994 1.4300001 -0.85599995 0.0 -0.28627455 0.0 0.0 0.0 1.0 0.0"/>
      </filter>
      <use ffdec:characterId="530" filter="url(#filter0)" height="48.0" transform="matrix(0.7382, -0.5061, 0.5793, 0.845, -14.05, 11.3)" width="48.0" xlink:href="#sprite0"/>
      <use ffdec:characterId="553" height="48.25" transform="matrix(1.0, 0.0, 0.0, 1.0, -0.25, 0.05)" width="32.45" xlink:href="#shape3"/>
    </g>
  </g>
  <defs>
    <g id="shape1" transform="matrix(1.0, 0.0, 0.0, 1.0, 9.2, 2.45)">
      <path d="M37.85 28.95 Q42.05 35.1 37.75 38.05 L20.05 50.2 Q15.7 53.15 11.5 47.0 L-7.1 19.8 Q-11.35 13.6 -7.0 10.65 L10.7 -1.5 Q15.0 -4.45 19.25 1.75 L37.85 28.95" fill="#ff0000" fill-rule="evenodd" stroke="none"/>
    </g>
    <g id="sprite0" transform="matrix(1.0, 0.0, 0.0, 1.0, 0.0, 0.0)">
      <use ffdec:characterId="529" height="48.0" transform="matrix(1.0, 0.0, 0.0, 1.0, 0.0, 0.0)" width="48.0" xlink:href="#shape2"/>
    </g>
    <g id="shape2" transform="matrix(1.0, 0.0, 0.0, 1.0, 0.0, 0.0)">
      <path d="M37.9 22.6 L38.1 22.25 37.9 22.6" fill="#5c5c5c" fill-rule="evenodd" stroke="none"/>
      <path d="M0.0 28.5 L0.0 28.15 0.15 27.85 0.0 28.5 M47.15 22.65 L47.15 22.6 47.25 22.4 47.15 22.65 M47.2 28.95 L47.2 28.9 47.45 28.55 47.4 28.65 47.2 28.95 M46.95 32.05 L46.95 31.9 47.35 31.5 47.5 31.5 46.95 32.05 M29.7 45.8 L29.55 45.9 29.7 45.8" fill="#272727" fill-rule="evenodd" stroke="none"/>
      <path d="M45.7 16.4 L45.9 15.3 45.95 15.45 45.7 16.4 M47.15 22.6 L47.15 22.65 47.05 22.85 47.0 22.95 47.15 22.6 M47.2 28.9 L47.2 28.95 46.7 29.6 46.4 29.8 46.4 29.7 47.2 28.9 M44.55 34.1 L44.6 33.9 46.95 31.9 46.95 32.05 45.45 33.35 44.55 34.1 M29.7 45.8 L30.3 45.15 30.85 44.9 29.7 45.8" fill="#3b3b3b" fill-rule="evenodd" stroke="none"/>
      <path d="M44.6 33.9 L44.55 34.1 40.05 37.35 40.1 37.3 44.6 33.9" fill="#4d4d4d" fill-rule="evenodd" stroke="none"/>
      <path d="M0.2 5.35 Q0.4 4.2 0.95 3.3 L0.55 4.35 0.2 5.35 M3.95 0.65 Q4.1 0.55 4.35 0.5 L4.75 0.4 Q4.35 0.75 4.15 0.75 L3.95 0.65" fill="#161616" fill-rule="evenodd" stroke="none"/>
      <path d="M40.1 37.3 L40.05 37.35 39.25 37.9 40.1 37.3 M40.9 31.85 L39.75 33.0 39.6 33.1 40.9 31.85 M28.1 41.35 L27.9 41.45 27.7 41.55 28.1 41.35" fill="#555555" fill-rule="evenodd" stroke="none"/>
      <path d="M27.25 35.25 L27.1 35.3 26.65 35.25 27.0 35.25 27.25 35.25 M26.5 35.25 L26.35 35.3 26.4 35.25 26.5 35.25 M18.6 23.15 L19.0 23.7 18.6 23.35 18.6 23.25 18.6 23.15 M17.15 26.25 L17.2 26.2 17.3 26.35 17.15 26.25 M37.05 26.1 L37.25 25.85 37.65 25.4 37.1 26.05 37.05 26.1 M37.9 22.6 L37.85 22.65 37.8 22.8 37.75 22.8 37.9 22.6" fill="#646464" fill-rule="evenodd" stroke="none"/>
      <path d="M22.75 35.5 L22.6 35.5 22.75 35.4 22.75 35.5 M22.65 33.75 L22.8 33.75 22.65 33.75 M22.1 40.15 L22.5 39.8 22.65 39.8 22.6 39.9 Q22.2 40.05 22.1 40.15" fill="#1ad310" fill-rule="evenodd" stroke="none"/>
      <path d="M23.2 35.5 L22.75 35.5 22.75 35.4 22.8 35.4 23.0 35.45 23.2 35.5 M22.65 39.8 L22.8 39.8 22.6 39.9 22.65 39.8" fill="#15ac0d" fill-rule="evenodd" stroke="none"/>
      <path d="M48.0 38.4 L48.0 40.5 Q48.0 42.05 47.65 43.35 L47.3 44.35 46.75 45.35 46.1 46.1 Q44.1 48.0 40.1 48.0 L33.7 48.0 37.55 44.95 43.15 40.9 Q46.15 38.9 48.0 38.4 M0.0 28.15 L0.0 7.5 0.2 5.35 0.55 4.35 0.95 3.3 Q1.9 1.45 3.95 0.65 L4.15 0.75 Q4.35 0.75 4.75 0.4 L5.55 0.2 6.75 0.05 6.75 0.8 Q6.75 1.45 5.15 4.3 3.55 7.15 3.5 7.9 L2.85 14.85 2.0 21.85 Q1.35 25.25 0.15 27.85 L0.0 28.15 M35.15 19.35 L35.65 18.45 35.2 19.3 35.15 19.35 M22.55 33.7 L22.65 33.75 22.55 33.7" fill="#000000" fill-rule="evenodd" stroke="none"/>
      <path d="M35.15 19.35 L35.05 19.4 Q33.95 20.3 33.8 20.9 L32.95 21.6 29.35 25.0 27.0 25.35 Q23.45 25.35 21.05 22.4 19.25 20.15 19.25 18.5 19.25 13.4 22.2 9.05 24.85 5.2 28.75 3.4 32.6 1.65 35.3 3.0 38.25 4.45 38.25 9.2 38.25 12.4 36.0 17.6 L35.65 18.45 35.15 19.35" fill="#c9fdac" fill-rule="evenodd" stroke="none"/>
      <path d="M18.6 23.15 L18.15 21.0 Q17.65 19.5 17.65 18.55 17.65 13.85 21.4 8.1 26.0 1.05 32.35 1.05 37.8 1.05 39.5 4.85 40.15 6.35 40.15 9.5 40.15 11.85 39.3 14.95 38.45 18.15 37.15 20.1 L34.95 22.6 32.3 25.5 Q30.75 27.35 27.45 28.2 23.75 27.75 22.35 27.05 L20.3 25.1 19.0 23.7 18.6 23.15 M35.65 18.45 L36.0 17.6 Q38.25 12.4 38.25 9.2 38.25 4.45 35.3 3.0 32.6 1.65 28.75 3.4 24.85 5.2 22.2 9.05 19.25 13.4 19.25 18.5 19.25 20.15 21.05 22.4 23.45 25.35 27.0 25.35 L29.35 25.0 32.95 21.6 33.8 20.9 Q33.95 20.3 35.05 19.4 L35.15 19.35 35.2 19.3 35.65 18.45" fill="#b9fd95" fill-rule="evenodd" stroke="none"/>
      <path d="M31.5 0.0 L33.8 0.0 Q39.0 0.45 40.75 5.05 41.55 7.15 41.55 11.3 41.55 16.6 38.1 22.25 L37.9 22.6 37.75 22.8 Q37.15 22.8 36.1 23.55 L33.75 25.65 Q33.5 27.05 32.55 27.95 30.8 29.65 25.9 29.65 L23.35 29.35 19.8 26.0 Q17.95 24.2 16.95 23.8 L16.9 23.55 Q16.9 23.05 17.05 22.85 16.5 19.1 16.5 17.75 16.5 13.15 20.75 7.15 25.45 0.55 31.5 0.0 M19.0 23.7 L20.3 25.1 22.35 27.05 Q23.75 27.75 27.45 28.2 30.75 27.35 32.3 25.5 L34.95 22.6 37.15 20.1 Q38.45 18.15 39.3 14.95 40.15 11.85 40.15 9.5 40.15 6.35 39.5 4.85 37.8 1.05 32.35 1.05 26.0 1.05 21.4 8.1 17.65 13.85 17.65 18.55 17.65 19.5 18.15 21.0 L18.6 23.15 18.6 23.25 18.6 23.35 19.0 23.7" fill="#9ffc6d" fill-rule="evenodd" stroke="none"/>
      <path d="M25.8 0.0 L31.5 0.0 Q25.45 0.55 20.75 7.15 16.5 13.15 16.5 17.75 16.5 19.1 17.05 22.85 16.9 23.05 16.9 23.55 L16.95 23.8 Q17.95 24.2 19.8 26.0 L23.35 29.35 25.9 29.65 Q30.8 29.65 32.55 27.95 33.5 27.05 33.75 25.65 L36.1 23.55 Q37.15 22.8 37.75 22.8 L37.8 22.8 37.85 22.65 37.9 22.6 38.1 22.25 Q41.55 16.6 41.55 11.3 41.55 7.15 40.75 5.05 39.0 0.45 33.8 0.0 L38.2 0.0 40.4 2.9 Q43.15 7.05 43.15 10.5 43.15 15.7 40.0 21.75 L37.65 25.4 37.25 25.85 37.05 26.1 Q36.4 26.25 35.3 27.15 32.7 29.2 32.55 29.75 29.1 31.65 24.6 31.85 23.65 31.15 21.5 29.95 19.35 28.8 19.0 28.0 18.5 27.15 17.3 26.35 L17.2 26.2 17.15 26.25 16.85 26.05 16.2 25.75 15.6 22.3 Q14.9 19.15 14.9 17.7 14.9 14.6 15.2 13.05 15.6 11.1 17.0 8.1 18.95 4.0 24.15 0.95 L25.8 0.0" fill="#8bfb4f" fill-rule="evenodd" stroke="none"/>
      <path d="M23.25 0.0 L25.8 0.0 24.15 0.95 Q18.95 4.0 17.0 8.1 15.6 11.1 15.2 13.05 14.9 14.6 14.9 17.7 14.9 19.15 15.6 22.3 L16.2 25.75 16.85 26.05 17.15 26.25 17.3 26.35 Q18.5 27.15 19.0 28.0 19.35 28.8 21.5 29.95 23.65 31.15 24.6 31.85 29.1 31.65 32.55 29.75 32.7 29.2 35.3 27.15 36.4 26.25 37.05 26.1 L37.1 26.05 37.65 25.4 40.0 21.75 Q43.15 15.7 43.15 10.5 43.15 7.05 40.4 2.9 L38.2 0.0 39.55 0.0 39.5 0.25 42.05 4.35 Q44.55 9.1 44.55 11.75 42.4 21.35 40.8 23.85 L38.8 27.0 Q37.4 28.85 35.85 29.85 32.85 31.75 30.85 32.25 L25.4 33.55 23.65 33.5 23.9 33.75 23.6 33.8 22.8 33.75 22.65 33.75 22.55 33.7 Q19.85 32.45 17.95 30.55 16.25 28.8 15.0 26.15 L15.15 25.85 14.8 24.3 Q13.75 19.8 13.75 15.8 13.75 13.1 13.9 12.15 14.2 10.6 15.4 8.0 16.05 6.65 19.8 3.4 23.25 0.4 23.25 0.0" fill="#66fa16" fill-rule="evenodd" stroke="none"/>
      <path d="M20.65 0.0 L23.25 0.0 Q23.25 0.4 19.8 3.4 16.05 6.65 15.4 8.0 14.2 10.6 13.9 12.15 13.75 13.1 13.75 15.8 13.75 19.8 14.8 24.3 L15.15 25.85 15.0 26.15 Q16.25 28.8 17.95 30.55 19.85 32.45 22.55 33.7 L22.65 33.75 22.8 33.75 23.6 33.8 23.9 33.75 23.65 33.5 25.4 33.55 30.85 32.25 Q32.85 31.75 35.85 29.85 37.4 28.85 38.8 27.0 L40.8 23.85 Q42.4 21.35 44.55 11.75 44.55 9.1 42.05 4.35 L39.5 0.25 39.55 0.0 40.1 0.0 40.55 0.0 Q44.45 3.45 45.5 8.25 L45.8 13.7 45.9 15.3 45.7 16.4 Q44.5 20.8 41.25 25.55 L38.8 29.0 Q37.3 30.85 35.0 32.65 34.1 33.4 32.25 33.9 L28.25 35.0 27.25 35.25 27.0 35.25 26.65 35.25 26.5 35.25 26.4 35.25 26.35 35.3 25.1 35.55 23.2 35.5 23.0 35.45 22.8 35.4 22.75 35.4 22.6 35.5 21.5 35.6 20.55 35.25 19.4 34.85 16.2 31.95 15.9 31.65 15.05 30.45 14.0 29.5 13.5 26.85 Q12.95 24.5 12.8 22.55 L12.35 15.05 Q12.35 10.1 16.5 5.1 L20.65 0.1 20.65 0.0" fill="#4dd204" fill-rule="evenodd" stroke="none"/>
      <path d="M45.35 1.35 L45.8 1.7 46.85 2.9 47.3 3.7 45.35 1.35 M48.0 9.15 L48.0 13.6 47.5 17.55 46.85 18.7 Q46.25 19.95 46.25 20.4 L46.25 20.45 45.55 21.6 Q44.1 24.05 43.95 24.85 L38.6 31.75 Q36.65 34.15 30.3 36.7 L22.8 39.8 22.65 39.8 22.5 39.8 22.1 40.15 22.05 40.15 Q20.8 41.0 17.45 45.75 L15.9 48.0 7.9 48.0 Q5.1 48.0 3.3 47.05 5.35 44.55 7.8 39.7 11.35 32.65 11.35 29.2 L10.65 17.85 Q10.65 11.75 13.9 5.75 L17.1 0.0 18.3 0.0 18.6 0.0 20.65 0.0 20.65 0.1 16.5 5.1 Q12.35 10.1 12.35 15.05 L12.8 22.55 Q12.95 24.5 13.5 26.85 L14.0 29.5 15.05 30.45 15.9 31.65 16.2 31.95 19.4 34.85 20.55 35.25 21.5 35.6 22.6 35.5 22.75 35.5 23.2 35.5 25.1 35.55 26.35 35.3 26.5 35.25 26.65 35.25 27.1 35.3 27.25 35.25 28.25 35.0 32.25 33.9 Q34.1 33.4 35.0 32.65 37.3 30.85 38.8 29.0 L41.25 25.55 Q44.5 20.8 45.7 16.4 L45.95 15.45 45.9 15.3 45.8 13.7 45.5 8.25 Q44.45 3.45 40.55 0.0 L41.85 0.1 Q44.05 1.95 45.7 4.25 47.6 6.9 48.0 9.15" fill="#40af03" fill-rule="evenodd" stroke="none"/>
      <path d="M47.3 3.7 Q48.0 5.25 48.0 7.5 L48.0 9.15 Q47.6 6.9 45.7 4.25 44.05 1.95 41.85 0.1 L42.25 0.2 43.7 0.55 45.35 1.35 47.3 3.7 M48.0 13.6 L48.0 20.8 47.6 21.6 47.5 21.9 47.25 22.35 47.25 22.4 47.15 22.6 47.0 22.95 44.8 26.55 Q42.9 29.7 40.9 31.85 L39.6 33.1 29.85 38.0 Q20.9 42.5 20.85 43.95 L20.35 44.4 Q18.25 46.4 17.15 48.0 L15.9 48.0 17.45 45.75 Q20.8 41.0 22.05 40.15 L22.1 40.15 Q22.2 40.05 22.6 39.9 L22.8 39.8 30.3 36.7 Q36.65 34.15 38.6 31.75 L43.95 24.85 Q44.1 24.05 45.55 21.6 L46.25 20.45 46.25 20.4 Q46.25 19.95 46.85 18.7 L47.5 17.55 48.0 13.6 M3.3 47.05 L2.45 46.55 Q4.5 44.8 6.95 38.4 10.0 30.35 10.0 26.3 L9.5 17.5 Q9.5 11.65 12.75 5.75 L16.0 0.0 17.1 0.0 13.9 5.75 Q10.65 11.75 10.65 17.85 L11.35 29.2 Q11.35 32.65 7.8 39.7 5.35 44.55 3.3 47.05" fill="#379902" fill-rule="evenodd" stroke="none"/>
      <path d="M48.0 20.8 L48.0 24.25 47.65 24.75 44.25 30.1 Q41.2 33.85 35.5 37.0 L31.3 39.5 Q29.9 40.2 28.1 41.35 L27.7 41.55 Q26.45 41.7 24.55 43.3 L24.2 43.65 Q22.55 44.75 22.05 45.6 L19.2 48.0 17.15 48.0 Q18.25 46.4 20.35 44.4 L20.85 43.95 Q20.9 42.5 29.85 38.0 L39.6 33.1 39.75 33.0 40.9 31.85 Q42.9 29.7 44.8 26.55 L47.0 22.95 47.05 22.85 47.15 22.65 47.25 22.4 47.25 22.35 47.5 21.9 47.6 21.6 48.0 20.8 M2.45 46.55 L1.7 45.85 Q4.95 41.75 6.7 37.3 8.7 32.2 8.6 27.15 L8.6 15.25 Q9.2 10.8 12.4 4.8 13.85 2.05 15.25 0.0 L16.0 0.0 12.75 5.75 Q9.5 11.65 9.5 17.5 L10.0 26.3 Q10.0 30.35 6.95 38.4 4.5 44.8 2.45 46.55" fill="#2f8202" fill-rule="evenodd" stroke="none"/>
      <path d="M48.0 24.25 L48.0 27.75 47.95 27.8 47.45 28.55 47.2 28.9 46.4 29.7 46.4 29.8 Q45.9 31.65 39.05 36.25 33.8 39.75 31.15 40.85 L30.6 41.15 Q29.35 41.5 27.1 42.9 23.65 45.05 22.5 46.5 L20.6 48.0 19.2 48.0 22.05 45.6 Q22.55 44.75 24.2 43.65 L24.55 43.3 Q26.45 41.7 27.7 41.55 L27.9 41.45 28.1 41.35 Q29.9 40.2 31.3 39.5 L35.5 37.0 Q41.2 33.85 44.25 30.1 L47.65 24.75 48.0 24.25 M1.7 45.85 L1.4 45.5 Q2.7 43.9 4.3 40.25 7.0 34.1 7.5 29.75 L7.5 17.4 7.75 16.2 7.75 15.65 Q7.75 13.65 9.4 9.65 L9.8 8.25 11.3 5.45 14.15 0.0 15.25 0.0 Q13.85 2.05 12.4 4.8 9.2 10.8 8.6 15.25 L8.6 27.15 Q8.7 32.2 6.7 37.3 4.95 41.75 1.7 45.85" fill="#236101" fill-rule="evenodd" stroke="none"/>
      <path d="M48.0 27.75 L48.0 31.0 47.5 31.5 47.35 31.5 46.95 31.9 44.6 33.9 40.1 37.3 39.25 37.9 37.15 39.25 Q31.85 42.5 28.25 45.1 25.95 46.7 24.45 48.0 L20.6 48.0 22.5 46.5 Q23.65 45.05 27.1 42.9 29.35 41.5 30.6 41.15 L31.15 40.85 Q33.8 39.75 39.05 36.25 45.9 31.65 46.4 29.8 L46.7 29.6 47.2 28.95 47.4 28.65 47.45 28.55 47.95 27.8 48.0 27.75 M1.4 45.5 L0.65 44.15 1.9 41.6 4.65 34.9 Q5.75 32.3 6.0 28.9 L6.3 23.0 6.8 17.1 Q7.2 13.75 8.15 11.0 L11.15 4.25 13.0 0.0 14.15 0.0 11.3 5.45 9.8 8.25 9.4 9.65 Q7.75 13.65 7.75 15.65 L7.75 16.2 7.5 17.4 7.5 29.75 Q7.0 34.1 4.3 40.25 2.7 43.9 1.4 45.5" fill="#1c4e01" fill-rule="evenodd" stroke="none"/>
      <path d="M48.0 31.0 L48.0 32.85 46.65 33.85 45.9 34.7 Q44.55 35.45 43.05 36.5 L36.0 41.55 34.8 42.4 Q33.95 42.35 30.85 44.9 L30.3 45.15 29.7 45.8 29.55 45.9 28.55 46.75 27.15 48.0 24.45 48.0 Q25.95 46.7 28.25 45.1 31.85 42.5 37.15 39.25 L39.25 37.9 40.05 37.35 44.55 34.1 45.45 33.35 46.95 32.05 47.5 31.5 48.0 31.0 M0.65 44.15 Q0.0 42.65 0.0 40.6 1.75 37.5 2.85 33.65 3.95 29.85 4.9 22.4 5.75 14.5 6.3 11.15 6.8 8.1 9.25 3.8 L11.6 0.0 13.0 0.0 11.15 4.25 8.15 11.0 Q7.2 13.75 6.8 17.1 L6.3 23.0 6.0 28.9 Q5.75 32.3 4.65 34.9 L1.9 41.6 0.65 44.15" fill="#163f01" fill-rule="evenodd" stroke="none"/>
      <path d="M48.0 32.85 L48.0 35.8 Q47.05 36.15 45.85 37.0 44.15 38.2 43.8 38.75 41.9 39.85 39.4 41.5 33.25 45.6 30.7 48.0 L27.15 48.0 28.55 46.75 29.55 45.9 29.7 45.8 30.85 44.9 Q33.95 42.35 34.8 42.4 L36.0 41.55 43.05 36.5 Q44.55 35.45 45.9 34.7 L46.65 33.85 48.0 32.85 M0.0 40.6 L0.0 40.5 0.0 36.25 Q1.15 33.95 2.1 30.95 3.5 26.3 3.5 22.55 3.5 14.8 5.95 6.8 L8.1 0.0 11.6 0.0 9.25 3.8 Q6.8 8.1 6.3 11.15 5.75 14.5 4.9 22.4 3.95 29.85 2.85 33.65 1.75 37.5 0.0 40.6" fill="#123201" fill-rule="evenodd" stroke="none"/>
      <path d="M48.0 35.8 L48.0 38.4 Q46.15 38.9 43.15 40.9 L37.55 44.95 33.7 48.0 30.7 48.0 Q33.25 45.6 39.4 41.5 41.9 39.85 43.8 38.75 44.15 38.2 45.85 37.0 47.05 36.15 48.0 35.8 M0.0 36.25 L0.0 28.5 0.15 27.85 Q1.35 25.25 2.0 21.85 L2.85 14.85 3.5 7.9 Q3.55 7.15 5.15 4.3 6.75 1.45 6.75 0.8 L6.75 0.05 7.8 0.0 7.9 0.0 8.1 0.0 5.95 6.8 Q3.5 14.8 3.5 22.55 3.5 26.3 2.1 30.95 1.15 33.95 0.0 36.25" fill="#0c1f01" fill-rule="evenodd" stroke="none"/>
    </g>
    <g id="shape3" transform="matrix(1.0, 0.0, 0.0, 1.0, 0.25, -0.05)">
      <path d="M-0.25 17.35 Q0.85 16.7 2.75 16.7 3.9 16.7 5.0 17.8 5.85 18.7 5.85 19.1 L5.75 19.7 5.9 20.35 5.8 20.5 5.0 21.7 4.65 22.3 4.25 23.05 Q4.25 23.55 5.3 23.75 L5.85 23.85 6.45 23.9 6.55 23.9 7.45 23.95 7.6 23.95 8.25 23.95 8.25 24.1 8.75 24.2 Q10.4 24.45 12.95 25.9 L10.25 21.95 12.55 24.1 14.0 25.95 14.15 26.1 Q15.0 26.8 15.05 27.2 L17.45 28.8 19.1 30.0 19.85 30.6 20.45 31.05 21.35 29.9 21.65 29.55 22.35 28.65 23.3 27.35 22.8 25.45 Q23.75 26.45 24.95 29.25 L25.3 30.2 25.35 30.4 25.7 29.0 25.8 28.35 25.8 28.3 25.8 28.2 25.8 27.95 25.8 22.95 25.9 22.95 26.5 25.25 26.65 26.65 26.65 27.35 26.65 27.55 26.65 27.7 26.7 27.65 27.15 25.95 27.15 25.85 27.15 25.4 27.05 24.45 26.95 22.55 27.3 17.2 27.3 16.25 27.15 14.95 27.05 14.25 26.75 12.75 25.8 12.6 25.9 14.7 25.55 15.95 25.65 16.95 25.4 18.95 24.9 21.05 24.5 21.2 22.8 19.45 21.95 20.05 19.95 20.6 Q17.55 20.6 15.0 18.25 L14.3 17.6 14.05 17.4 Q11.8 15.55 11.7 15.05 10.5 13.95 9.25 13.95 L8.0 14.25 7.95 14.35 7.0 15.1 8.5 12.95 9.75 12.95 12.7 13.55 14.25 13.3 Q12.05 13.2 10.25 11.7 L8.5 9.85 8.8 9.65 Q8.85 9.25 9.2 8.95 L7.05 8.9 6.4 8.95 6.05 8.95 5.5 8.95 5.9 8.85 6.6 8.7 12.25 7.85 18.15 7.05 Q17.5 5.2 15.65 4.05 15.65 3.95 15.8 3.95 19.1 5.2 19.4 7.05 L19.55 7.0 19.5 6.9 19.05 5.2 19.15 5.2 Q19.85 5.95 19.95 6.7 L20.6 7.45 22.7 7.55 23.8 7.85 23.55 7.6 Q21.55 5.8 17.05 4.05 L16.4 3.95 14.15 3.7 14.05 3.7 14.0 3.7 13.65 3.7 7.25 3.95 6.85 3.95 4.3 3.45 Q3.25 3.1 2.45 2.45 L2.35 2.4 2.0 2.05 1.8 1.95 1.4 1.45 1.25 1.3 0.55 0.45 1.25 1.65 1.9 2.35 1.95 2.4 2.25 2.65 4.8 4.0 5.0 4.1 4.1 4.2 3.35 4.1 3.0 4.05 2.65 3.95 1.9 3.85 1.8 3.85 1.2 3.75 -0.25 3.2 -0.25 0.05 2.0 0.05 2.4 0.45 Q4.15 2.0 8.65 2.35 L9.9 2.25 14.55 2.2 Q21.4 2.65 25.4 7.15 28.6 10.7 28.6 14.6 L28.55 15.4 28.75 18.2 28.65 22.3 28.65 25.65 Q27.8 28.95 26.55 30.2 L26.55 30.3 26.05 31.85 26.8 33.45 Q28.85 36.65 32.05 38.5 L32.2 38.6 32.2 41.0 31.6 40.65 Q28.8 39.1 26.95 36.5 L25.9 34.8 25.8 34.6 25.8 35.25 25.5 36.85 25.55 37.25 25.4 38.25 25.45 38.45 25.7 40.85 25.5 42.95 25.3 43.95 25.25 44.15 Q24.85 45.55 24.3 46.2 L24.25 47.1 24.95 48.3 22.45 48.3 22.5 47.8 22.6 47.25 22.65 47.0 22.7 46.9 23.1 45.35 23.55 44.15 22.9 44.95 22.6 45.2 22.35 45.4 21.45 46.0 20.65 46.5 19.65 47.0 17.15 47.5 13.3 47.5 11.0 47.05 10.75 47.0 10.25 46.85 9.2 46.45 7.8 47.0 6.75 47.35 6.6 47.4 6.8 48.3 5.4 48.3 4.7 47.05 4.3 48.3 2.25 48.3 1.95 47.0 1.5 45.25 1.5 44.95 1.7 44.95 2.5 46.15 2.9 47.0 3.0 47.3 3.05 47.4 3.05 47.25 3.15 47.0 3.2 46.85 3.25 46.65 3.3 46.6 3.5 46.15 3.8 45.25 3.85 45.2 4.1 44.3 4.15 44.0 4.55 42.25 4.8 41.25 4.8 41.2 5.05 40.7 4.2 41.25 3.55 41.65 Q2.45 42.3 1.9 42.35 L1.75 42.35 1.5 42.25 1.6 42.15 Q1.9 41.75 2.6 41.25 L2.65 41.25 3.95 40.3 6.55 38.5 7.15 38.1 7.7 37.65 8.4 36.85 9.0 35.9 9.1 35.65 10.15 33.6 10.2 33.75 10.25 34.1 10.05 34.85 9.9 35.3 9.9 35.4 9.75 35.7 9.65 36.0 9.65 36.05 9.6 36.15 9.35 36.75 9.1 37.15 9.05 37.25 8.75 37.7 8.5 37.95 8.25 38.2 6.6 39.55 6.1 41.25 5.85 42.3 5.9 42.3 6.15 42.15 7.1 41.75 7.5 41.6 8.4 41.25 8.8 41.1 9.0 41.0 12.4 38.5 14.8 36.35 14.95 36.25 15.95 35.35 17.15 34.25 16.05 33.45 15.95 33.35 15.25 32.85 12.5 31.1 Q10.6 30.0 9.0 29.45 L5.75 28.75 5.75 28.85 5.05 29.9 5.15 29.8 4.7 30.4 4.6 30.6 4.5 30.65 4.2 31.1 4.0 31.35 2.75 32.85 2.65 32.95 2.25 33.45 0.95 34.95 0.75 35.1 -0.1 36.1 -0.25 36.25 -0.25 33.85 1.45 32.05 2.95 30.7 3.75 28.45 5.45 25.4 3.5 24.7 Q2.8 24.45 2.8 23.2 2.8 22.2 3.7 21.45 4.5 20.7 4.5 20.2 4.5 19.7 3.95 19.1 3.25 18.35 2.3 18.35 1.5 18.35 0.75 18.8 L0.25 19.05 Q-0.2 19.5 -0.25 20.55 L-0.25 17.35 M-0.25 3.95 L1.0 4.6 2.25 4.95 1.95 5.2 1.5 5.2 0.85 5.2 -0.25 5.1 -0.25 3.95 M-0.25 10.45 L0.0 10.45 -0.25 10.55 -0.25 10.45 M24.2 8.7 L24.7 9.2 24.5 9.9 24.5 9.95 24.55 10.7 Q24.45 12.05 23.8 12.35 L24.3 13.05 25.3 12.15 26.55 12.2 Q26.05 10.65 25.15 9.45 L25.1 9.45 24.9 9.05 24.3 8.5 24.05 8.45 24.2 8.7 M21.3 8.7 L21.55 9.2 22.35 10.45 22.4 10.4 22.55 10.7 22.95 11.35 23.15 11.65 23.4 11.45 Q23.8 11.2 23.8 10.75 L23.8 9.65 Q23.8 9.25 22.9 8.2 L22.0 8.3 21.5 8.6 21.3 8.7 M22.2 11.35 L22.2 11.25 Q19.95 7.7 19.35 7.5 L18.85 7.85 18.6 8.15 18.3 8.6 18.55 9.9 18.8 11.95 Q18.8 13.0 16.3 13.2 L14.55 13.7 13.25 14.2 11.6 13.95 12.5 14.6 14.3 16.35 Q19.65 16.4 21.7 17.8 L24.3 19.95 24.8 16.9 Q24.8 15.45 22.3 11.4 L22.2 11.35 M25.05 14.45 L25.15 14.65 25.3 13.8 25.3 13.2 25.2 13.2 24.75 13.7 25.05 14.45 M22.1 18.95 Q19.9 17.35 17.7 17.35 L14.55 16.95 15.25 17.7 Q17.75 19.8 19.2 19.8 L21.55 19.35 22.1 18.95 M10.55 9.2 L9.5 9.85 Q9.45 10.6 10.9 11.5 12.65 12.6 14.8 12.6 L15.95 12.45 16.05 12.2 16.3 11.55 15.55 10.0 14.55 8.9 12.55 8.95 12.3 8.95 12.05 8.95 11.5 8.95 11.45 8.95 10.55 9.2 M17.9 8.25 L17.55 8.35 15.85 8.7 16.3 9.35 16.8 10.85 16.7 12.0 16.8 11.95 17.0 11.95 17.05 12.05 17.0 12.3 17.8 12.15 Q18.4 11.95 18.4 11.2 L18.1 10.1 17.8 9.0 17.9 8.25 M18.75 30.5 L18.3 30.15 17.45 29.55 Q15.55 28.0 12.05 26.6 L8.4 25.05 7.75 24.75 7.1 25.7 7.0 25.85 6.9 25.95 Q6.15 26.9 5.8 27.9 L5.85 28.0 5.95 28.0 7.35 28.35 9.0 28.85 Q11.45 29.7 13.8 31.1 L15.95 32.55 16.35 32.85 17.75 33.95 17.9 34.05 17.95 34.0 18.05 34.2 18.35 34.5 18.6 34.7 Q22.8 38.4 23.8 41.45 L23.85 41.75 23.95 42.05 24.3 43.0 24.4 43.55 24.6 43.0 24.9 40.9 24.75 39.25 24.7 38.95 24.55 38.25 24.3 37.15 24.2 36.9 24.1 36.5 23.65 35.75 23.05 34.9 21.25 32.85 19.45 31.15 18.75 30.5 M16.85 35.55 L16.55 35.75 15.95 36.45 13.05 39.1 Q9.4 42.2 7.0 42.75 L6.65 42.8 6.0 43.05 5.75 43.1 5.65 43.1 5.6 43.2 5.55 43.45 5.55 43.75 5.2 44.75 5.4 45.2 Q5.75 46.25 5.95 46.25 L6.0 46.25 6.05 46.3 6.4 46.5 Q9.25 45.65 12.8 43.15 L15.8 41.05 15.95 40.9 18.25 38.85 18.35 38.8 19.0 38.25 19.55 37.8 19.55 37.75 20.2 37.05 18.4 35.3 17.8 34.75 17.7 34.85 16.85 35.55 M0.85 48.3 L-0.1 48.3 -0.25 48.3 -0.25 47.55 0.3 47.85 0.85 48.3 M18.75 39.85 L15.95 42.05 14.8 42.9 13.65 43.55 12.75 44.25 10.2 45.9 12.95 46.65 13.45 46.75 17.05 46.75 19.8 46.1 21.65 44.95 21.9 44.75 22.45 44.25 22.8 43.9 22.95 43.75 23.3 43.1 23.35 43.0 23.5 42.75 Q22.75 40.2 20.8 37.8 L19.45 39.3 18.75 39.85 M23.55 28.05 L23.15 28.8 23.05 28.95 22.65 29.65 21.1 31.65 22.5 32.85 23.3 33.7 23.45 32.85 23.6 32.1 24.05 30.6 24.05 30.5 24.2 30.15 24.15 30.1 23.95 29.45 23.8 29.0 23.55 28.05 M24.3 32.85 L23.75 34.25 24.3 35.0 24.65 35.5 24.8 34.25 24.5 33.0 24.5 32.95 24.45 32.85 24.35 32.7 24.3 32.7 24.3 32.85 M29.05 46.75 L28.95 46.85 28.8 47.0 28.75 47.1 28.75 47.05 28.5 47.5 28.05 48.2 27.95 48.25 27.95 48.3 27.0 48.3 27.95 47.0 Q28.65 46.2 29.7 45.5 30.9 44.6 32.2 44.35 L32.2 44.95 31.05 45.25 30.5 45.5 30.55 45.5 Q29.75 45.95 29.05 46.75 M-0.25 20.7 L-0.1 21.3 0.05 21.7 Q0.05 22.0 -0.25 22.0 L-0.25 20.7" fill="#111111" fill-rule="evenodd" stroke="none"/>
      <path d="M-0.25 3.2 L1.2 3.75 1.8 3.85 1.9 3.85 2.65 3.95 3.0 4.05 3.35 4.1 4.1 4.2 5.0 4.1 4.8 4.0 2.25 2.65 1.95 2.4 1.9 2.35 1.25 1.65 0.55 0.45 1.25 1.3 1.4 1.45 1.8 1.95 2.0 2.05 2.35 2.4 2.45 2.45 Q3.25 3.1 4.3 3.45 L6.85 3.95 7.25 3.95 13.65 3.7 14.0 3.7 14.05 3.7 14.15 3.7 16.4 3.95 17.05 4.05 Q21.55 5.8 23.55 7.6 L23.8 7.85 22.7 7.55 20.6 7.45 19.95 6.7 Q19.85 5.95 19.15 5.2 L19.05 5.2 19.5 6.9 19.55 7.0 19.4 7.05 Q19.1 5.2 15.8 3.95 15.65 3.95 15.65 4.05 17.5 5.2 18.15 7.05 L12.25 7.85 6.6 8.7 5.9 8.85 5.5 8.95 6.05 8.95 6.4 8.95 7.05 8.9 9.2 8.95 Q8.85 9.25 8.8 9.65 L8.5 9.85 10.25 11.7 Q12.05 13.2 14.25 13.3 L12.7 13.55 9.75 12.95 8.5 12.95 7.0 15.1 7.95 14.35 8.0 14.25 9.25 13.95 Q10.5 13.95 11.7 15.05 11.8 15.55 14.05 17.4 L14.3 17.6 15.0 18.25 Q17.55 20.6 19.95 20.6 L21.95 20.05 22.8 19.45 24.5 21.2 24.9 21.05 25.4 18.95 25.65 16.95 25.55 15.95 25.9 14.7 25.8 12.6 26.75 12.75 27.05 14.25 27.15 14.95 27.3 16.25 27.3 17.2 26.95 22.55 27.05 24.45 27.15 25.4 27.15 25.85 27.15 25.95 26.7 27.65 26.65 27.7 26.65 27.55 26.65 27.35 26.65 26.65 26.5 25.25 25.9 22.95 25.8 22.95 25.8 27.95 25.8 28.2 25.8 28.3 25.8 28.35 25.7 29.0 25.35 30.4 25.3 30.2 24.95 29.25 Q23.75 26.45 22.8 25.45 L23.3 27.35 22.35 28.65 21.65 29.55 21.35 29.9 20.45 31.05 19.85 30.6 19.1 30.0 17.45 28.8 15.05 27.2 Q15.0 26.8 14.15 26.1 L14.0 25.95 12.55 24.1 10.25 21.95 12.95 25.9 Q10.4 24.45 8.75 24.2 L8.25 24.1 8.25 23.95 7.6 23.95 7.45 23.95 6.55 23.9 6.45 23.9 5.85 23.85 5.3 23.75 Q4.25 23.55 4.25 23.05 L4.65 22.3 5.0 21.7 5.8 20.5 5.9 20.35 5.75 19.7 5.85 19.1 Q5.85 18.7 5.0 17.8 3.9 16.7 2.75 16.7 0.85 16.7 -0.25 17.35 L-0.25 10.55 0.0 10.45 -0.25 10.45 -0.25 5.1 0.85 5.2 1.5 5.2 1.95 5.2 2.25 4.95 1.0 4.6 -0.25 3.95 -0.25 3.2 M-0.25 36.25 L-0.1 36.1 0.75 35.1 0.95 34.95 2.25 33.45 2.65 32.95 2.75 32.85 4.0 31.35 4.2 31.1 4.5 30.65 4.6 30.6 4.7 30.4 5.15 29.8 5.05 29.9 5.75 28.85 5.75 28.75 9.0 29.45 Q10.6 30.0 12.5 31.1 L15.25 32.85 15.95 33.35 16.05 33.45 17.15 34.25 15.95 35.35 14.95 36.25 14.8 36.35 12.4 38.5 9.0 41.0 8.8 41.1 8.4 41.25 7.5 41.6 7.1 41.75 6.15 42.15 5.9 42.3 5.85 42.3 6.1 41.25 6.6 39.55 8.25 38.2 8.5 37.95 8.65 38.0 8.6 38.05 9.0 38.15 9.25 38.2 10.75 38.35 11.15 38.25 11.15 38.1 9.55 37.3 9.25 37.25 9.1 37.15 9.35 36.75 9.6 36.15 9.65 36.05 9.65 36.0 9.75 35.7 9.9 35.4 9.9 35.3 10.05 34.85 10.25 34.1 10.2 33.75 10.15 33.6 9.1 35.65 9.0 35.9 8.4 36.85 7.7 37.65 7.15 38.1 6.55 38.5 3.95 40.3 2.65 41.25 2.6 41.25 Q1.9 41.75 1.6 42.15 L1.5 42.25 1.75 42.35 1.9 42.35 Q2.45 42.3 3.55 41.65 L4.2 41.25 5.05 40.7 4.8 41.2 4.8 41.25 4.55 42.25 4.15 44.0 4.1 44.3 3.85 45.2 3.8 45.25 3.5 46.15 3.3 46.6 3.25 46.65 3.2 46.85 3.15 47.0 3.05 47.25 3.05 47.4 3.0 47.3 2.9 47.0 2.5 46.15 1.7 44.95 1.5 44.95 1.5 45.25 1.95 47.0 2.25 48.3 0.85 48.3 0.3 47.85 -0.25 47.55 -0.25 36.25 M24.95 48.3 L24.25 47.1 24.3 46.2 Q24.85 45.55 25.25 44.15 L25.3 43.95 27.15 43.65 28.75 44.35 Q28.05 42.75 27.15 42.8 L25.5 42.95 25.7 40.85 25.45 38.45 25.4 38.25 25.55 37.25 25.5 36.85 25.8 35.25 25.8 34.6 25.9 34.8 26.95 36.5 Q28.8 39.1 31.6 40.65 L32.2 41.0 32.2 44.35 Q30.9 44.6 29.7 45.5 28.65 46.2 27.95 47.0 L27.0 48.3 24.95 48.3 M24.2 8.7 L24.05 8.45 24.3 8.5 24.9 9.05 25.1 9.45 25.15 9.45 Q26.05 10.65 26.55 12.2 L25.3 12.15 24.3 13.05 23.8 12.35 Q24.45 12.05 24.55 10.7 L24.5 9.95 24.5 9.9 24.7 9.2 24.2 8.7 M25.05 14.45 L24.75 13.7 25.2 13.2 25.3 13.2 25.3 13.8 25.15 14.65 25.05 14.45 M17.9 8.25 L17.8 9.0 18.1 10.1 18.4 11.2 Q18.4 11.95 17.8 12.15 L17.0 12.3 17.05 12.05 17.0 11.95 16.8 11.95 16.7 12.0 16.8 10.85 16.3 9.35 15.85 8.7 17.55 8.35 17.9 8.25 M18.75 39.85 L19.45 39.3 20.8 37.8 Q22.75 40.2 23.5 42.75 L23.35 43.0 23.3 43.1 22.95 43.75 22.8 43.9 22.45 44.25 21.9 44.75 21.65 44.95 19.8 46.1 17.05 46.75 13.45 46.75 12.95 46.65 10.2 45.9 12.75 44.25 13.65 43.55 14.8 42.9 15.95 42.05 18.75 39.85 M24.3 32.85 L24.3 32.7 24.35 32.7 24.45 32.85 24.5 32.95 24.5 33.0 24.8 34.25 24.65 35.5 24.3 35.0 23.75 34.25 24.3 32.85" fill="#00cc99" fill-rule="evenodd" stroke="none"/>
      <path d="M8.5 37.95 L8.75 37.7 9.05 37.25 9.1 37.15 9.25 37.25 9.55 37.3 11.15 38.1 11.15 38.25 10.75 38.35 9.25 38.2 9.0 38.15 8.6 38.05 8.65 38.0 8.5 37.95 M25.3 43.95 L25.5 42.95 27.15 42.8 Q28.05 42.75 28.75 44.35 L27.15 43.65 25.3 43.95" fill="#000000" fill-rule="evenodd" stroke="none"/>
      <path d="M22.2 11.35 L22.3 11.4 Q24.8 15.45 24.8 16.9 L24.3 19.95 21.7 17.8 Q19.65 16.4 14.3 16.35 L12.5 14.6 11.6 13.95 13.25 14.2 14.55 13.7 16.3 13.2 Q18.8 13.0 18.8 11.95 L18.55 9.9 18.3 8.6 18.6 8.15 18.85 7.85 19.35 7.5 Q19.95 7.7 22.2 11.25 L22.2 11.35 M22.1 18.95 L21.55 19.35 19.2 19.8 Q17.75 19.8 15.25 17.7 L14.55 16.95 17.7 17.35 Q19.9 17.35 22.1 18.95 M29.8 48.3 L29.2 47.0 29.05 46.75 Q29.75 45.95 30.55 45.5 L31.1 45.5 32.2 45.6 32.2 48.3 29.8 48.3" fill="#ffcc00" fill-rule="evenodd" stroke="none"/>
      <path d="M27.95 48.3 L27.95 48.25 28.05 48.2 28.5 47.5 28.75 47.05 28.75 47.1 28.8 47.0 28.95 46.85 29.05 46.75 29.2 47.0 29.8 48.3 27.95 48.3" fill="#ff9900" fill-rule="evenodd" stroke="none"/>
      <path d="M30.55 45.5 L30.5 45.5 31.05 45.25 32.2 44.95 32.2 45.6 31.1 45.5 30.55 45.5" fill="#fff9ae" fill-rule="evenodd" stroke="none"/>
      <path d="M21.3 8.7 L21.5 8.6 22.0 8.3 22.9 8.2 Q23.8 9.25 23.8 9.65 L23.8 10.75 Q23.8 11.2 23.4 11.45 L23.15 11.65 22.95 11.35 22.55 10.7 22.4 10.4 22.35 10.45 21.55 9.2 21.3 8.7 M10.55 9.2 L11.45 8.95 11.5 8.95 12.05 8.95 12.3 8.95 12.55 8.95 14.55 8.9 15.55 10.0 16.3 11.55 16.05 12.2 15.95 12.45 14.8 12.6 Q12.65 12.6 10.9 11.5 9.45 10.6 9.5 9.85 L10.55 9.2" fill="#ffffff" fill-rule="evenodd" stroke="none"/>
      <path d="M6.8 48.3 L6.6 47.4 6.75 47.35 7.8 47.0 9.2 46.45 10.25 46.85 10.75 47.0 11.0 47.05 13.3 47.5 17.15 47.5 19.65 47.0 20.65 46.5 21.45 46.0 22.35 45.4 22.6 45.2 22.9 44.95 23.55 44.15 23.1 45.35 22.7 46.9 22.65 47.0 22.6 47.25 22.5 47.8 22.45 48.3 6.8 48.3 M18.75 30.5 L19.45 31.15 21.25 32.85 23.05 34.9 23.65 35.75 24.1 36.5 24.2 36.9 24.3 37.15 24.55 38.25 24.7 38.95 24.75 39.25 24.9 40.9 24.6 43.0 24.4 43.55 24.3 43.0 23.95 42.05 23.85 41.75 23.8 41.45 Q22.8 38.4 18.6 34.7 L18.35 34.5 18.05 34.2 17.95 34.0 17.9 34.05 17.75 33.95 16.35 32.85 15.95 32.55 13.8 31.1 Q11.45 29.7 9.0 28.85 L7.35 28.35 5.95 28.0 5.85 28.0 5.8 27.9 Q6.15 26.9 6.9 25.95 L7.0 25.85 7.1 25.7 7.75 24.75 8.4 25.05 12.05 26.6 Q15.55 28.0 17.45 29.55 L18.3 30.15 18.75 30.5 M16.85 35.55 L17.7 34.85 17.8 34.75 18.4 35.3 20.2 37.05 19.55 37.75 19.55 37.8 19.0 38.25 18.35 38.8 18.25 38.85 15.95 40.9 15.8 41.05 12.8 43.15 Q9.25 45.65 6.4 46.5 L6.05 46.3 6.0 46.25 5.95 46.25 Q5.75 46.25 5.4 45.2 L5.2 44.75 5.55 43.75 5.55 43.45 5.6 43.2 5.65 43.1 5.75 43.1 6.0 43.05 6.65 42.8 7.0 42.75 Q9.4 42.2 13.05 39.1 L15.95 36.45 16.55 35.75 16.85 35.55 M23.55 28.05 L23.8 29.0 23.95 29.45 24.15 30.1 24.2 30.15 24.05 30.5 24.05 30.6 23.6 32.1 23.45 32.85 23.3 33.7 22.5 32.85 21.1 31.65 22.65 29.65 23.05 28.95 23.15 28.8 23.55 28.05" fill="#f3f59c" fill-rule="evenodd" stroke="none"/>
    </g>
  </defs>
</svg>
