<?xml version="1.0" encoding="UTF-8" standalone="no"?>
<svg xmlns:ffdec="https://www.free-decompiler.com/flash" xmlns:xlink="http://www.w3.org/1999/xlink" ffdec:objectType="frame" height="914.55px" width="206.85px" xmlns="http://www.w3.org/2000/svg">
  <g transform="matrix(1.0, 0.0, 0.0, 1.0, 113.75, 521.5)">
    <use ffdec:characterId="752" height="130.65" transform="matrix(7.0, 0.0, 0.0, 7.0, -113.75, -521.5)" width="29.55" xlink:href="#shape0"/>
  </g>
  <defs>
    <g id="shape0" transform="matrix(1.0, 0.0, 0.0, 1.0, 16.25, 74.5)">
      <path d="M11.35 -64.45 L8.9 -64.2 Q7.55 -63.9 5.9 -63.3 L3.7 -62.35 3.1 -62.15 3.15 -62.05 3.15 -62.0 3.2 -62.0 3.1 -61.9 3.4 -61.35 Q3.9 -59.8 4.0 -59.6 L4.0 -59.05 11.7 -64.45 11.35 -64.45 M2.65 -63.0 L2.7 -62.95 3.05 -63.05 3.2 -63.1 4.05 -63.35 Q5.1 -63.65 7.1 -64.4 8.6 -64.9 11.45 -65.1 L11.95 -65.15 12.8 -65.15 12.7 -64.6 12.2 -63.55 Q10.9 -61.0 9.9 -59.75 L7.35 -56.6 7.3 -56.45 7.2 -56.25 7.2 -55.55 7.25 -55.55 7.25 -55.5 7.35 -55.4 7.45 -55.35 8.0 -54.85 Q8.7 -54.25 10.15 -53.2 11.15 -52.3 12.65 -50.4 L12.9 -50.1 13.0 -49.9 13.3 -49.45 12.9 -49.25 11.9 -49.15 8.1 -49.0 4.6 -49.4 Q3.5 -48.4 2.05 -47.85 L1.95 -47.45 1.9 -47.1 1.85 -47.1 Q1.8 -47.0 1.75 -46.9 L1.65 -46.7 Q1.4 -46.35 1.25 -45.95 1.1 -45.5 1.0 -45.0 L1.0 -44.7 Q0.95 -44.7 1.0 -44.65 L1.0 -39.7 0.85 -39.7 1.2 -39.5 1.25 -39.45 1.3 -39.45 1.35 -39.4 1.4 -39.4 1.4 -39.35 1.5 -39.25 2.25 -38.6 2.35 -38.5 2.35 -38.45 2.5 -38.3 2.5 -38.25 2.6 -38.15 2.65 -38.05 2.75 -38.05 Q3.55 -37.9 4.6 -37.5 5.6 -37.3 7.45 -36.3 L7.8 -36.1 Q8.2 -35.85 8.45 -35.65 L8.3 -35.55 7.95 -35.25 7.45 -35.0 Q5.6 -34.0 4.6 -33.8 3.6 -33.4 2.8 -33.25 L2.6 -32.95 Q1.9 -31.8 0.7 -31.25 L0.75 -31.1 0.75 -28.75 Q0.9 -28.65 0.95 -28.3 L0.95 -28.25 0.9 -27.65 0.95 -27.55 Q0.9 -27.2 1.0 -26.65 1.0 -26.05 0.95 -25.7 0.9 -25.45 0.8 -25.3 L0.7 -25.15 0.7 -25.05 Q0.85 -24.95 0.85 -24.75 L0.8 -24.45 0.9 -24.45 Q0.75 -23.65 0.8 -22.4 0.8 -21.9 0.85 -21.5 0.75 -21.2 0.65 -21.0 L0.7 -20.95 0.75 -20.55 0.65 -20.5 0.65 -18.8 0.6 -17.4 0.45 -17.35 0.4 -17.2 Q0.5 -16.5 0.6 -15.0 L0.6 -12.8 Q0.75 -12.65 0.75 -12.3 L0.75 -11.75 Q0.95 -11.4 0.95 -11.25 L0.95 -10.6 0.8 -9.8 0.8 -9.65 0.75 -9.6 1.05 -9.6 1.05 -8.6 0.95 -8.4 Q1.0 -8.4 1.0 -8.35 1.2 -8.2 1.2 -8.0 1.2 -7.8 1.15 -7.65 1.15 -7.4 1.0 -7.0 L0.95 -6.7 0.75 -6.0 Q0.7 -6.0 0.7 -5.95 L0.8 -5.65 0.8 -5.55 0.7 -5.55 Q0.75 -4.25 0.7 -2.55 L0.55 -2.5 0.5 -2.35 0.75 -0.1 0.75 2.25 Q0.9 2.35 0.95 2.7 L0.9 3.35 0.95 3.45 Q0.9 3.8 1.0 4.35 L0.95 4.95 Q0.95 5.45 0.8 5.7 L0.7 5.8 0.7 5.9 Q0.85 6.05 0.85 6.25 L0.8 6.55 0.9 6.55 Q0.75 7.35 0.8 8.6 0.8 9.1 0.85 9.5 0.75 9.8 0.65 10.0 L0.7 10.05 0.75 10.45 0.65 10.5 0.65 11.05 0.75 12.35 0.75 12.7 Q0.95 12.85 1.05 13.05 L1.1 13.15 1.1 13.2 Q1.2 13.4 1.2 13.65 L1.15 17.95 1.1 20.85 1.15 21.4 1.2 28.85 Q1.25 33.25 1.3 36.3 1.05 36.65 1.05 36.8 L1.3 37.2 1.35 37.95 1.35 41.15 1.4 41.6 Q1.4 42.1 1.35 42.5 L1.4 42.5 1.4 42.55 1.45 42.6 1.5 42.6 Q1.9 42.9 2.25 43.3 L2.35 43.4 2.35 43.45 2.5 43.6 2.5 43.65 2.55 43.65 2.55 43.7 2.6 43.75 Q2.95 44.25 3.1 44.85 3.35 45.55 3.35 46.4 3.35 47.7 2.6 48.95 1.95 50.05 0.85 50.55 0.7 51.35 0.35 52.3 0.1 53.3 -0.85 55.15 L-1.1 55.65 -1.4 56.0 -1.55 56.15 -2.0 55.5 -2.2 55.15 Q-3.2 53.3 -3.4 52.3 -3.75 51.35 -3.9 50.6 -4.7 50.2 -5.25 49.6 L-5.4 49.45 -5.7 48.95 Q-6.45 47.7 -6.45 46.4 -6.45 45.55 -6.2 44.85 L-6.0 44.35 -5.85 44.05 -5.85 44.0 -5.7 43.75 Q-5.35 43.25 -4.9 42.8 -4.55 42.5 -4.1 42.3 L-4.1 39.35 -4.15 37.65 -4.1 37.6 -4.0 37.4 -4.0 37.05 -4.05 36.8 -4.15 36.2 -4.15 30.85 -4.1 22.45 -4.15 22.1 -4.15 15.2 -4.2 13.6 Q-4.2 13.35 -4.05 13.05 L-3.8 12.8 -3.8 12.4 -3.75 11.65 -3.7 11.25 Q-3.75 11.25 -3.7 11.2 -3.9 10.25 -3.9 9.85 -3.9 9.65 -3.7 9.4 L-3.8 9.35 Q-3.85 9.1 -3.85 8.75 L-3.8 8.15 -3.95 7.55 -3.95 6.5 -3.8 6.35 Q-3.8 5.85 -3.65 5.75 L-3.65 5.3 -3.8 4.95 -3.9 4.7 Q-3.8 4.1 -3.85 3.75 L-3.7 3.6 -3.7 3.4 Q-3.65 3.0 -3.8 2.25 L-3.85 1.5 -3.85 1.25 Q-3.85 0.9 -3.7 0.7 L-3.6 0.6 Q-3.55 0.55 -3.45 0.6 L-3.55 0.2 Q-3.75 0.15 -3.7 0.1 L-3.75 -1.5 -3.7 -2.7 -3.7 -2.75 Q-3.85 -2.85 -3.9 -3.3 -3.85 -3.35 -3.8 -4.4 -3.7 -4.65 -3.75 -4.8 L-3.75 -4.85 -3.85 -5.65 -3.9 -6.15 -3.75 -6.45 -3.8 -6.65 -3.9 -7.0 Q-4.0 -7.35 -4.0 -7.55 -4.0 -7.95 -3.9 -8.65 L-3.9 -9.5 -3.85 -9.6 Q-3.9 -9.9 -3.85 -10.9 L-3.8 -11.1 -3.7 -11.3 Q-3.6 -11.45 -3.55 -11.5 -3.5 -11.6 -3.5 -11.7 -3.55 -12.05 -3.65 -12.75 L-3.75 -13.7 Q-3.7 -14.15 -3.5 -14.35 L-3.35 -14.3 -3.45 -14.7 Q-3.65 -14.7 -3.6 -14.75 L-3.65 -16.3 -3.65 -17.6 Q-3.85 -17.7 -3.8 -18.15 L-3.8 -18.8 -3.75 -19.35 -3.7 -19.75 Q-3.75 -19.75 -3.7 -19.8 L-3.75 -19.9 -3.75 -20.0 -3.9 -21.0 -3.9 -21.1 Q-3.9 -21.35 -3.7 -21.55 L-3.8 -21.6 Q-3.85 -21.85 -3.85 -22.25 L-3.8 -22.85 -3.95 -23.45 -3.95 -24.5 -3.8 -24.6 Q-3.8 -25.15 -3.65 -25.25 L-3.65 -25.65 -3.7 -25.7 -3.9 -26.3 Q-3.8 -26.9 -3.85 -27.2 L-3.7 -27.35 -3.7 -27.6 Q-3.7 -27.85 -3.7 -28.25 L-3.7 -28.3 -3.8 -28.75 -3.85 -29.45 -3.85 -29.75 Q-3.85 -30.15 -3.65 -30.35 L-3.8 -30.65 Q-3.95 -31.05 -4.0 -31.35 -4.75 -31.7 -5.25 -32.3 L-5.4 -32.45 -5.7 -32.95 -5.9 -33.25 Q-6.7 -33.4 -7.7 -33.8 -8.7 -34.0 -10.55 -35.0 L-11.05 -35.25 -11.4 -35.55 -11.55 -35.65 -10.9 -36.1 -10.55 -36.3 Q-8.7 -37.3 -7.7 -37.5 -6.65 -37.9 -5.85 -38.05 L-5.75 -38.05 -5.7 -38.15 Q-5.35 -38.65 -4.9 -39.05 -4.6 -39.3 -4.25 -39.55 L-4.2 -44.65 -4.25 -44.65 -4.35 -45.0 Q-4.45 -45.5 -4.6 -45.95 L-4.7 -46.3 -4.95 -46.7 -5.1 -46.9 -5.15 -47.0 -5.2 -47.2 -5.3 -47.95 Q-6.6 -48.45 -7.6 -49.4 L-11.05 -49.0 -14.8 -49.15 -15.8 -49.25 -16.25 -49.45 -15.95 -49.9 -15.85 -50.1 -15.6 -50.4 Q-14.1 -52.3 -13.1 -53.2 -11.65 -54.25 -10.95 -54.85 L-10.35 -55.35 -10.3 -55.4 -10.2 -55.45 -10.2 -56.15 Q-10.25 -56.3 -10.35 -56.6 L-10.4 -56.6 -12.95 -59.75 Q-13.95 -61.0 -15.25 -63.55 L-15.8 -64.6 -15.9 -65.15 -15.0 -65.15 -14.5 -65.1 Q-11.65 -64.9 -10.15 -64.4 -8.15 -63.65 -7.1 -63.35 L-6.25 -63.1 Q-6.2 -63.1 -6.15 -63.05 L-5.75 -62.95 -5.55 -63.05 -5.55 -62.95 -5.5 -63.05 -5.4 -63.5 -5.35 -63.65 Q-5.2 -64.15 -5.05 -64.65 -4.75 -65.9 -4.2 -68.35 -3.7 -70.15 -2.25 -73.1 L-2.0 -73.6 -1.85 -73.85 -1.5 -74.5 -1.1 -74.05 -0.55 -72.75 Q0.8 -69.75 1.25 -67.9 1.95 -64.75 2.4 -63.1 L2.45 -62.95 2.6 -63.0 2.65 -63.0 M-1.95 -47.95 L-0.9 -47.95 Q0.0 -48.05 0.8 -48.2 3.1 -48.75 4.5 -50.35 L4.55 -50.4 4.6 -50.75 4.9 -51.55 Q4.9 -51.75 4.8 -52.35 L4.8 -52.7 4.85 -52.9 4.9 -53.0 5.2 -53.25 Q5.7 -53.65 5.8 -53.8 5.85 -53.9 6.05 -54.4 6.25 -54.6 6.4 -54.9 L6.5 -55.15 6.5 -55.45 6.45 -55.5 6.45 -55.55 6.5 -55.55 Q6.5 -56.1 6.4 -56.6 L6.35 -56.6 6.3 -56.85 6.35 -56.85 6.2 -57.05 5.95 -57.35 Q5.4 -58.05 5.3 -58.15 5.15 -58.3 4.45 -58.6 L4.1 -58.8 3.95 -59.0 3.85 -59.1 3.8 -59.55 Q3.75 -60.3 3.65 -60.5 L3.25 -61.15 Q3.15 -61.5 2.95 -61.8 L2.6 -62.2 2.4 -62.25 Q2.15 -62.35 1.85 -62.4 L1.8 -62.45 1.3 -62.45 0.95 -62.4 0.3 -62.35 -0.1 -62.35 Q-0.3 -62.3 -0.95 -61.9 L-1.1 -61.85 -0.65 -61.85 -0.1 -61.8 Q0.45 -61.7 0.95 -61.55 L1.05 -61.5 Q1.15 -61.45 1.3 -61.4 L1.35 -61.35 2.35 -60.75 Q2.75 -60.45 3.1 -60.1 4.3 -58.75 4.5 -57.5 4.75 -56.65 4.75 -55.7 4.75 -54.0 3.95 -52.5 2.6 -50.2 -0.1 -49.7 L-0.2 -49.7 -1.4 -49.6 -1.65 -49.6 -2.9 -49.7 Q-5.2 -50.1 -6.5 -51.7 L-7.0 -52.5 Q-7.8 -54.0 -7.8 -55.7 L-7.8 -56.0 Q-7.75 -57.7 -6.75 -59.0 L-6.65 -59.2 -6.5 -59.4 Q-6.3 -59.7 -6.0 -60.0 -5.45 -60.6 -4.8 -60.95 -3.95 -61.45 -2.9 -61.65 L-2.9 -61.7 -2.85 -61.7 -1.9 -61.8 -2.1 -61.9 Q-2.75 -62.3 -2.95 -62.35 L-3.75 -62.4 Q-4.05 -62.5 -4.4 -62.5 L-5.05 -62.45 -5.25 -62.4 -5.3 -62.4 -5.3 -62.3 -5.45 -62.25 -5.55 -62.25 -5.65 -62.2 -6.0 -61.8 Q-6.25 -61.5 -6.3 -61.15 L-6.7 -60.5 Q-6.8 -60.3 -6.85 -59.55 L-6.9 -59.2 -6.9 -58.9 -6.95 -58.9 -7.05 -58.85 -7.1 -58.85 -7.15 -58.8 -7.25 -58.75 -7.5 -58.6 -8.35 -58.15 -8.75 -57.7 -9.0 -57.35 -9.25 -57.05 -9.4 -56.85 -9.35 -56.85 -9.4 -56.6 -9.45 -56.6 Q-9.5 -56.1 -9.5 -55.55 L-9.5 -55.4 -9.45 -55.35 -9.35 -54.9 Q-9.2 -54.6 -9.0 -54.4 L-8.75 -53.8 Q-8.65 -53.65 -8.15 -53.25 L-7.85 -53.0 -7.7 -52.7 -7.75 -52.35 -7.85 -51.55 Q-7.8 -51.45 -7.55 -50.75 L-7.45 -50.4 -7.35 -50.15 Q-5.95 -48.7 -3.85 -48.2 -3.05 -48.05 -2.15 -47.95 L-1.95 -47.95 M1.55 -62.9 L1.45 -63.5 0.9 -66.4 Q0.45 -68.5 -0.1 -70.0 -0.55 -71.15 -1.45 -72.95 L-1.5 -72.95 -1.5 -61.8 -1.45 -61.8 -1.45 -61.85 -1.05 -62.1 0.2 -62.45 0.4 -62.55 0.75 -62.65 1.4 -62.75 1.4 -62.85 1.6 -62.85 1.55 -62.9 M3.1 -59.8 L2.95 -59.95 Q2.65 -60.3 2.25 -60.6 L1.25 -61.2 Q0.95 -61.35 0.7 -61.4 0.25 -61.55 -0.15 -61.6 L-0.65 -61.65 Q-1.15 -61.65 -1.65 -61.65 L-2.8 -61.5 -2.85 -61.5 -2.85 -61.45 Q-4.7 -61.1 -5.85 -59.9 -6.35 -59.4 -6.6 -58.9 -7.65 -57.55 -7.65 -55.7 -7.6 -54.05 -6.85 -52.6 -5.55 -50.35 -2.85 -49.9 L-1.65 -49.8 -1.4 -49.8 -0.4 -49.85 Q-0.3 -49.85 -0.25 -49.9 1.55 -50.15 2.75 -51.25 L2.95 -51.5 3.5 -52.2 3.6 -52.35 3.75 -52.6 Q4.55 -54.05 4.55 -55.7 4.55 -56.6 4.3 -57.45 4.1 -58.6 3.1 -59.8 M-1.8 -59.8 L-1.6 -59.8 -0.9 -59.85 -0.55 -59.8 Q-0.05 -59.75 0.4 -59.55 L1.1 -59.1 Q1.35 -58.9 1.6 -58.65 L1.75 -58.45 Q2.4 -57.65 2.55 -56.9 2.75 -56.35 2.75 -55.7 2.7 -54.55 2.15 -53.55 1.95 -53.15 1.65 -52.85 0.8 -51.9 -0.6 -51.65 L-1.45 -51.6 -2.0 -51.6 -2.4 -51.65 Q-4.3 -51.95 -5.2 -53.55 -5.75 -54.55 -5.75 -55.7 -5.75 -57.0 -5.05 -57.95 -4.85 -58.25 -4.5 -58.6 -3.7 -59.45 -2.4 -59.7 L-1.8 -59.8 M0.6 -58.5 L0.05 -58.85 Q-0.35 -59.0 -0.75 -59.05 L-1.0 -59.1 -1.6 -59.1 -1.75 -59.05 -2.25 -59.0 Q-3.3 -58.8 -3.95 -58.1 -4.25 -57.8 -4.4 -57.55 -5.0 -56.75 -5.0 -55.7 -4.95 -54.75 -4.55 -53.95 -3.8 -52.65 -2.25 -52.4 L-1.9 -52.35 -1.45 -52.35 -0.8 -52.4 Q0.4 -52.6 1.1 -53.35 L1.5 -53.95 Q1.95 -54.75 1.95 -55.7 1.95 -56.25 1.8 -56.7 1.7 -57.3 1.15 -57.95 L1.05 -58.1 0.6 -58.5 M12.3 -49.85 Q8.6 -51.3 4.9 -52.8 L5.0 -52.35 4.85 -50.8 4.7 -50.3 4.8 -50.25 4.75 -50.2 4.75 -50.15 4.7 -50.1 4.75 -50.1 5.15 -50.0 7.25 -49.7 Q8.75 -49.5 9.9 -49.5 10.85 -49.6 12.3 -49.85 M4.05 -59.0 L4.55 -58.8 6.05 -57.65 6.3 -57.35 6.45 -57.15 6.55 -57.2 6.55 -57.15 6.6 -57.15 6.65 -57.05 7.0 -57.45 8.7 -59.3 Q9.85 -60.65 10.55 -61.85 11.1 -62.8 11.75 -64.4 L11.8 -64.4 4.05 -59.0 M6.65 -54.85 L6.65 -54.8 6.55 -54.85 6.45 -54.6 6.3 -54.4 Q5.4 -53.3 5.3 -53.1 L4.95 -52.9 12.3 -49.9 Q11.45 -51.1 10.85 -51.75 10.0 -52.6 8.8 -53.5 L7.15 -54.65 6.7 -54.95 6.65 -54.85 M-1.0 -39.7 L0.2 -39.7 0.15 -44.65 0.15 -45.95 0.25 -46.4 0.2 -46.5 -0.35 -46.45 -0.4 -46.4 -0.45 -46.45 Q-0.55 -46.5 -0.65 -46.55 L-0.95 -46.55 -1.35 -46.5 -1.4 -46.55 -1.5 -46.55 -1.95 -46.5 -2.0 -46.5 -2.2 -46.5 -2.8 -46.45 -3.25 -46.4 -3.5 -46.35 -3.45 -46.15 -3.5 -45.9 Q-3.5 -45.65 -3.5 -45.0 L-3.45 -44.65 -3.45 -39.65 -3.2 -39.65 -1.95 -39.7 Q-2.75 -39.55 -3.4 -39.25 -4.5 -38.8 -5.15 -37.8 L-5.25 -37.6 -5.3 -37.55 -5.35 -37.45 -5.35 -37.05 -5.3 -36.65 -5.3 -36.45 -4.95 -35.75 -4.95 -35.55 -5.05 -35.3 -5.3 -34.8 -5.3 -34.35 Q-5.4 -34.2 -5.4 -34.0 L-5.35 -33.65 -5.15 -33.3 -4.85 -32.85 -4.75 -32.75 Q-4.45 -32.35 -4.0 -32.1 -3.65 -31.9 -3.25 -31.75 -2.6 -31.5 -1.85 -31.45 L-1.75 -31.45 -1.2 -31.45 Q-0.6 -31.5 -0.05 -31.65 0.45 -31.8 0.85 -32.05 1.6 -32.5 2.1 -33.3 L2.25 -33.6 2.3 -34.0 Q2.3 -34.2 2.2 -34.35 L2.2 -34.8 1.95 -35.3 1.85 -35.55 1.85 -35.75 1.95 -35.95 Q2.15 -36.35 2.2 -36.45 L2.25 -37.05 2.25 -37.45 2.05 -37.8 2.05 -37.85 1.95 -37.95 1.95 -38.0 1.9 -38.05 1.85 -38.05 1.85 -38.1 1.75 -38.2 Q1.45 -38.55 1.15 -38.8 L1.1 -38.85 1.05 -38.85 1.0 -38.9 0.95 -38.9 0.95 -38.95 0.9 -38.95 0.85 -39.0 Q0.1 -39.45 -0.9 -39.65 L-1.15 -39.7 -1.0 -39.7 M-0.05 -46.9 L0.6 -46.9 0.95 -47.25 0.95 -47.3 1.15 -47.45 1.3 -47.85 -0.55 -47.85 -2.05 -47.85 -3.8 -47.85 -4.55 -47.85 -4.55 -47.8 Q-4.55 -47.55 -4.35 -47.25 L-4.1 -46.9 -3.7 -46.9 -3.3 -46.85 -1.95 -46.75 -1.8 -46.75 -1.75 -46.75 -1.6 -46.8 -1.4 -46.9 -1.35 -46.9 -1.25 -46.95 -1.05 -47.0 -1.0 -47.0 -0.9 -47.0 -0.35 -46.9 Q-0.3 -46.9 -0.2 -46.9 L-0.05 -46.9 M7.25 -35.65 Q6.4 -36.2 5.85 -36.45 5.3 -36.7 4.6 -36.9 L4.15 -37.0 3.05 -37.3 2.5 -37.4 2.45 -37.4 2.45 -37.3 2.4 -37.3 2.4 -37.2 2.35 -36.95 2.05 -35.9 1.9 -35.65 7.25 -35.65 M0.95 -37.8 L0.85 -37.85 Q0.7 -38.05 0.45 -38.2 L-0.05 -38.55 -0.35 -38.65 -0.8 -38.75 -1.1 -38.8 -1.6 -38.8 -2.2 -38.7 -2.25 -38.7 Q-3.25 -38.5 -3.85 -37.85 -4.1 -37.6 -4.25 -37.3 -4.8 -36.6 -4.8 -35.6 -4.8 -34.7 -4.4 -33.95 L-4.2 -33.65 Q-3.8 -33.1 -3.2 -32.8 -2.8 -32.6 -2.25 -32.5 L-1.6 -32.45 -0.95 -32.45 -0.85 -32.5 Q-0.4 -32.55 0.0 -32.75 0.4 -32.95 0.75 -33.25 L0.85 -33.35 1.15 -33.75 1.2 -33.8 1.3 -33.95 Q1.7 -34.7 1.7 -35.6 1.7 -36.1 1.55 -36.55 1.5 -37.15 0.95 -37.8 M-1.7 -37.8 L-1.0 -37.8 Q-0.75 -37.75 -0.5 -37.65 L-0.15 -37.4 0.15 -37.2 0.2 -37.05 Q0.55 -36.65 0.65 -36.25 0.75 -35.95 0.75 -35.6 0.7 -35.0 0.45 -34.45 L0.15 -34.05 Q-0.3 -33.55 -1.05 -33.45 L-1.5 -33.4 -1.8 -33.4 -2.0 -33.45 Q-3.05 -33.6 -3.5 -34.45 -3.8 -35.0 -3.8 -35.6 -3.8 -36.3 -3.4 -36.8 L-3.15 -37.15 Q-2.7 -37.6 -2.0 -37.75 L-1.7 -37.8 M-0.2 -38.7 L-0.15 -38.7 -0.05 -38.65 0.0 -38.65 0.5 -38.3 0.95 -37.95 Q1.55 -37.25 1.65 -36.55 1.8 -36.1 1.8 -35.6 1.8 -34.7 1.4 -33.9 1.2 -33.6 1.0 -33.35 0.55 -32.9 0.0 -32.65 -0.35 -32.45 -0.8 -32.4 L-0.85 -32.4 -1.2 -32.35 -1.6 -32.35 -2.25 -32.4 Q-2.8 -32.5 -3.2 -32.7 -3.8 -32.95 -4.2 -33.5 L-4.45 -33.9 Q-4.9 -34.7 -4.9 -35.6 L-4.9 -35.75 Q-4.85 -36.7 -4.35 -37.4 L-4.3 -37.45 -4.2 -37.55 -3.95 -37.9 Q-3.65 -38.2 -3.3 -38.4 -2.85 -38.7 -2.25 -38.8 L-1.6 -38.9 -1.05 -38.9 -0.8 -38.85 -0.2 -38.7 M0.1 -36.1 Q0.05 -36.45 -0.3 -36.8 L-0.5 -36.95 -0.75 -37.15 Q-0.95 -37.25 -1.15 -37.25 L-1.6 -37.25 -1.9 -37.2 Q-2.45 -37.1 -2.75 -36.75 L-2.95 -36.5 Q-3.25 -36.1 -3.25 -35.6 -3.25 -35.15 -3.05 -34.75 -2.7 -34.1 -1.9 -34.0 L-1.6 -33.95 -1.5 -33.95 -1.2 -34.0 Q-0.4 -34.1 -0.05 -34.75 0.15 -35.15 0.15 -35.6 0.15 -35.85 0.1 -36.1 M3.15 -34.0 L4.15 -34.25 4.6 -34.35 Q5.3 -34.6 5.85 -34.8 6.4 -35.1 7.25 -35.6 L1.9 -35.6 2.05 -35.35 2.35 -34.35 2.4 -34.0 2.45 -33.95 2.45 -33.85 2.5 -33.85 3.15 -34.0 M-1.45 -29.45 Q-0.75 -29.3 0.05 -29.25 L0.3 -29.3 0.3 -29.5 Q0.3 -30.25 0.3 -30.8 L0.0 -30.95 -0.05 -31.0 Q-0.55 -30.9 -1.15 -30.85 L-1.95 -30.85 -2.5 -30.9 -3.0 -30.85 -3.0 -30.75 -2.95 -30.55 -2.95 -30.5 -3.05 -30.45 -2.95 -30.2 -3.0 -30.15 -2.8 -30.05 -2.8 -30.0 -2.05 -29.65 -1.7 -29.5 -1.65 -29.5 -1.45 -29.45 M-1.8 -27.3 L-0.95 -27.25 -0.55 -27.3 0.05 -27.4 0.2 -27.5 0.2 -27.75 0.3 -27.8 0.3 -28.05 0.25 -28.25 0.2 -28.3 Q-0.2 -29.05 -1.35 -29.35 L-1.6 -29.4 -2.05 -29.45 -2.2 -29.5 -3.0 -29.45 Q-3.3 -29.4 -3.3 -29.15 L-3.25 -29.0 -3.35 -28.55 -3.3 -28.3 -3.25 -28.25 -3.25 -28.0 Q-3.2 -27.7 -3.2 -27.55 L-3.15 -27.5 -3.1 -27.55 -3.0 -27.45 -2.6 -27.4 -2.35 -27.35 -2.25 -27.35 -1.95 -27.3 -1.8 -27.3 M-1.3 -25.0 L-0.05 -25.1 Q0.05 -25.15 0.15 -25.25 L0.25 -25.3 0.3 -25.3 0.3 -25.7 Q0.35 -26.35 0.4 -26.85 L-0.2 -26.85 -0.2 -26.95 -1.15 -26.9 -3.0 -26.9 Q-3.05 -26.65 -3.25 -26.3 L-3.2 -25.85 -3.2 -25.7 Q-3.15 -25.5 -3.2 -25.45 L-3.2 -25.35 -3.15 -25.35 Q-3.0 -25.15 -2.75 -25.1 L-2.6 -25.05 -2.15 -25.0 -1.3 -25.0 M-1.4 -24.15 L-0.3 -23.95 0.15 -23.85 Q0.25 -24.15 0.3 -24.7 L-0.35 -24.7 -0.4 -24.75 -0.95 -24.85 -2.15 -24.9 -2.25 -24.9 -2.25 -24.95 -3.2 -24.95 -3.25 -24.55 -3.3 -24.55 Q-3.25 -24.5 -3.25 -24.4 -3.25 -24.25 -3.35 -23.85 -3.35 -23.8 -3.4 -23.75 -3.25 -22.8 -3.25 -22.1 L-3.15 -22.0 -3.0 -21.9 Q-3.0 -21.85 -2.95 -21.85 L-2.7 -21.7 -2.6 -21.65 -2.55 -21.65 -2.3 -21.55 Q-2.0 -21.45 -1.7 -21.4 L-1.5 -21.4 0.05 -21.3 Q0.15 -21.7 0.2 -22.45 L0.25 -23.2 -0.1 -23.4 -0.55 -23.6 -1.25 -23.85 -2.25 -24.2 -2.35 -24.2 -2.45 -24.25 -2.8 -24.35 -3.1 -24.45 -2.85 -24.4 -2.8 -24.4 -2.15 -24.3 -1.4 -24.15 M0.3 -21.4 L0.25 -21.3 0.3 -21.3 0.3 -21.4 M0.4 -24.1 L0.4 -24.15 0.3 -23.8 0.35 -23.8 Q0.35 -23.9 0.4 -24.1 M-1.25 -17.8 L-0.85 -17.8 Q-0.75 -17.8 0.1 -18.05 L0.15 -18.8 0.2 -19.05 Q0.35 -19.7 0.3 -19.8 L0.3 -20.0 Q0.25 -20.2 0.1 -20.35 0.1 -20.45 0.2 -20.5 L-0.05 -20.55 -0.1 -20.55 -0.4 -20.6 -0.8 -20.6 -0.6 -20.65 -1.25 -20.8 -2.15 -21.0 -2.3 -21.0 -3.2 -21.2 -3.3 -21.0 -3.35 -20.75 Q-3.3 -20.5 -3.2 -20.4 -3.1 -20.4 -3.1 -20.35 L-3.1 -20.3 Q-3.05 -20.3 -2.95 -20.3 L-2.3 -20.3 Q-2.55 -20.25 -2.75 -20.15 L-2.9 -20.0 Q-3.05 -19.9 -3.05 -19.75 L-3.3 -19.0 -3.25 -18.8 Q-3.1 -18.55 -2.6 -18.2 L-2.55 -18.2 -2.55 -18.15 -2.45 -18.15 -2.4 -18.1 Q-1.95 -17.9 -1.4 -17.8 L-1.25 -17.8 M-1.5 -13.4 Q-0.85 -13.2 0.0 -13.25 0.15 -13.25 0.2 -13.3 L0.15 -13.35 0.2 -14.7 -0.1 -14.85 Q-0.3 -15.0 -0.45 -15.0 L-1.2 -14.9 -1.2 -14.95 -1.55 -14.9 -2.9 -14.75 -3.0 -14.75 -3.1 -14.2 -2.95 -14.1 -2.75 -13.95 -1.9 -13.55 -1.7 -13.45 -1.65 -13.45 -1.5 -13.4 M-1.5 -11.4 L-1.0 -11.35 -0.65 -11.4 -0.05 -11.5 0.05 -11.65 0.05 -11.85 Q0.15 -11.85 0.15 -11.9 L0.15 -12.15 Q-0.1 -13.0 -1.3 -13.3 L-1.9 -13.4 -2.85 -13.45 Q-3.15 -13.4 -3.15 -13.15 -3.15 -13.1 -3.1 -13.0 -3.15 -12.8 -3.2 -12.6 -3.2 -12.4 -3.1 -12.05 L-3.05 -11.65 -3.0 -11.6 -2.95 -11.65 -2.85 -11.55 -2.35 -11.5 -1.8 -11.45 -1.5 -11.4 M-1.35 -9.6 L0.1 -9.6 Q0.2 -9.75 0.25 -9.95 0.45 -10.3 0.4 -10.9 L0.4 -11.05 -0.3 -11.05 -0.3 -11.1 -1.15 -11.05 -2.9 -11.05 -3.1 -10.55 -3.15 -10.4 -3.15 -10.35 -3.05 -9.95 -3.05 -9.7 Q-2.95 -9.65 -2.9 -9.6 L-1.35 -9.6 M-1.05 -8.85 L-0.5 -8.75 -0.3 -8.7 Q0.05 -8.65 0.25 -8.55 L0.3 -8.55 0.4 -8.8 0.4 -8.9 0.35 -9.1 0.4 -9.2 -0.95 -9.35 -1.1 -9.35 -1.95 -9.3 -2.05 -9.3 -2.05 -9.25 Q-1.9 -9.15 -1.9 -9.05 L-1.9 -8.95 -1.55 -8.9 -1.05 -8.85 M-1.3 -6.35 L-1.25 -6.35 -0.55 -6.3 0.35 -6.3 Q0.25 -6.55 0.3 -7.0 L0.35 -7.3 0.55 -7.9 0.1 -8.1 -0.05 -8.2 -0.5 -8.35 -0.9 -8.55 -1.1 -8.6 -1.15 -8.65 -1.2 -8.65 -1.45 -8.75 -1.7 -8.8 -2.05 -8.9 -2.05 -8.85 -2.1 -8.9 -2.15 -8.9 Q-2.2 -8.9 -2.35 -8.85 L-2.65 -8.85 -2.95 -8.8 -3.25 -8.8 -3.25 -8.65 -3.4 -8.35 Q-3.35 -8.25 -3.4 -8.2 -3.4 -7.9 -3.45 -7.65 L-3.45 -7.5 -3.4 -7.45 Q-3.35 -7.2 -3.2 -7.0 -2.95 -6.75 -2.5 -6.6 L-2.4 -6.6 -2.35 -6.55 -1.85 -6.4 -1.3 -6.35 M-1.45 -2.95 L-0.8 -2.9 0.2 -3.15 Q0.2 -3.5 0.25 -4.15 0.35 -4.75 0.35 -4.85 0.35 -5.15 0.2 -5.4 0.2 -5.5 0.25 -5.55 L0.0 -5.6 -0.1 -5.55 -0.25 -5.65 Q-0.55 -5.8 -1.1 -5.8 L-1.2 -5.85 -3.2 -6.2 Q-3.35 -5.9 -3.35 -5.75 L-3.25 -5.55 -3.3 -4.8 -3.25 -4.4 -3.25 -4.1 Q-3.25 -3.75 -2.65 -3.35 L-2.55 -3.3 -2.4 -3.25 -2.3 -3.2 -2.0 -3.1 -1.95 -3.05 -1.85 -3.05 -1.45 -2.95 M-1.45 1.55 Q-0.75 1.7 0.05 1.75 L0.3 1.7 0.3 0.2 0.0 0.0 Q-0.2 -0.1 -0.35 -0.1 L-1.1 -0.05 -2.0 0.05 -2.25 0.05 -3.0 0.15 -3.1 0.15 -3.2 0.7 -3.2 0.75 -3.05 0.8 -2.8 0.95 -2.8 1.0 -2.05 1.35 -1.7 1.5 -1.65 1.5 -1.45 1.55 M-1.8 3.7 L-0.95 3.75 -0.55 3.65 0.05 3.6 0.2 3.45 0.2 3.25 0.3 3.2 0.3 2.9 Q0.0 2.0 -1.35 1.65 L-1.6 1.6 -2.05 1.5 -3.0 1.5 Q-3.3 1.6 -3.3 1.85 L-3.25 2.0 -3.35 2.45 -3.25 3.0 Q-3.2 3.3 -3.2 3.45 L-3.15 3.5 -3.1 3.45 -3.0 3.55 -2.6 3.6 -2.35 3.65 -2.25 3.65 -1.95 3.7 -1.95 3.65 -1.8 3.7 M-1.3 6.0 L-0.05 5.9 Q0.05 5.8 0.15 5.75 L0.25 5.7 0.3 5.65 Q0.3 5.3 0.35 4.95 L0.4 4.15 -0.2 4.1 -0.2 4.05 -1.15 4.1 -3.0 4.1 Q-3.05 4.3 -3.25 4.65 L-3.2 4.95 -3.2 5.3 Q-3.15 5.5 -3.2 5.55 L-3.2 5.65 -3.15 5.65 Q-3.0 5.8 -2.75 5.9 L-2.6 5.95 -2.15 6.0 -1.3 6.0 M0.4 6.9 L0.4 6.85 0.3 7.2 0.35 7.2 Q0.35 7.05 0.4 6.9 M-1.5 9.6 L0.05 9.7 Q0.15 9.3 0.2 8.5 L0.25 7.8 Q0.15 7.7 -0.1 7.6 L-0.55 7.4 -1.25 7.1 -2.4 6.75 -2.45 6.75 -2.8 6.65 -3.1 6.55 -2.85 6.6 -2.8 6.6 -2.15 6.7 -1.4 6.85 -0.3 7.05 0.15 7.15 0.3 6.3 -0.35 6.3 -0.4 6.25 Q-0.45 6.2 -0.95 6.15 L-2.15 6.1 -2.25 6.1 -2.25 6.0 -2.5 6.0 -2.65 6.05 -3.2 6.05 -3.25 6.4 -3.1 6.45 -3.3 6.45 Q-3.25 6.5 -3.25 6.6 -3.25 6.75 -3.35 7.1 -3.35 7.15 -3.4 7.25 -3.25 8.2 -3.25 8.9 L-3.15 9.0 -3.0 9.1 -2.95 9.15 -2.7 9.3 -2.6 9.35 -2.55 9.35 -2.3 9.45 Q-2.0 9.55 -1.7 9.6 L-1.5 9.6 M0.3 9.7 L0.3 9.6 0.25 9.7 0.3 9.7 M-1.55 11.45 L-1.5 11.5 -1.4 11.5 -0.95 11.45 -0.6 11.4 Q-0.2 11.3 0.05 11.25 L0.1 11.0 0.2 10.75 0.2 10.5 0.15 10.5 Q0.05 10.3 -0.25 10.25 L-0.75 10.2 -1.15 10.2 -1.5 10.15 -2.15 10.0 -2.25 10.0 -2.3 9.95 -3.2 9.8 Q-3.35 10.1 -3.35 10.25 L-3.3 10.45 -3.3 10.7 -3.2 10.8 -2.8 11.05 -2.35 11.3 -1.75 11.45 -1.55 11.45 M-0.45 13.15 L-0.25 13.05 -0.2 13.05 0.0 13.0 0.1 12.95 0.1 12.9 0.15 12.2 0.05 11.9 -0.05 11.85 Q-0.2 11.7 -0.5 11.65 L-0.55 11.65 -1.25 11.55 -2.7 11.4 -2.85 11.5 -3.0 11.45 -3.05 11.4 -3.05 11.55 Q-3.15 11.75 -3.35 11.75 L-3.25 11.95 -3.3 12.0 Q-3.25 12.35 -2.75 12.7 L-2.6 12.8 -2.55 12.8 -2.4 12.9 -2.2 13.0 -1.85 13.05 -1.75 13.05 -1.45 13.1 -1.2 13.15 -1.05 13.15 -0.45 13.15 M0.15 13.5 L0.1 13.45 -0.1 13.35 -2.5 13.4 -2.55 13.4 -2.6 13.4 Q-2.75 13.35 -3.05 13.45 L-3.3 13.45 -3.3 13.5 -3.35 13.6 -3.5 14.15 -3.5 22.25 -3.55 23.75 -3.55 35.55 -3.6 35.8 -3.55 35.85 -3.55 35.95 -3.35 36.4 -3.25 36.45 -3.2 36.55 Q-3.15 36.6 -3.1 36.75 -2.95 36.9 -2.8 36.9 L-2.0 36.9 Q0.3 36.85 0.3 36.25 L0.3 36.2 0.4 36.05 0.65 35.7 0.65 35.5 0.6 33.05 0.6 24.85 Q0.55 23.65 0.55 21.4 L0.55 18.7 0.45 15.45 0.35 13.45 0.15 13.5 M0.6 38.75 L0.6 37.65 0.55 37.55 0.35 37.2 -0.5 37.15 -1.15 37.15 -1.7 37.1 -2.3 37.1 -3.0 37.15 -3.2 37.2 -3.25 37.25 -3.25 37.3 -3.3 37.35 -3.3 37.4 -3.35 37.5 -3.4 37.55 -3.55 37.85 Q-3.55 39.65 -3.4 42.15 L-3.15 42.2 -2.1 42.2 -1.85 42.2 -2.1 42.25 Q-2.65 42.35 -3.15 42.5 L-3.25 42.55 -3.4 42.6 Q-3.75 42.75 -4.0 42.95 -4.7 43.4 -5.15 44.05 L-5.25 44.3 -5.3 44.3 -5.4 44.6 -5.6 45.0 Q-5.8 45.65 -5.8 46.35 -5.8 47.55 -5.15 48.6 L-4.85 49.0 -4.75 49.15 Q-4.4 49.55 -3.95 49.8 L-3.75 49.85 -3.45 49.95 -2.95 49.95 -2.35 49.9 Q-2.25 49.85 -1.85 49.65 L-1.65 49.55 -2.25 49.5 Q-3.5 49.3 -4.2 48.4 L-4.45 48.0 Q-4.9 47.2 -4.9 46.3 L-4.9 46.15 Q-4.85 45.2 -4.35 44.5 L-4.3 44.4 -4.2 44.3 -3.95 43.95 Q-3.65 43.65 -3.3 43.45 -2.85 43.2 -2.25 43.1 L-2.1 43.05 -1.6 43.0 -0.8 43.0 -0.2 43.15 -0.15 43.2 -0.05 43.25 0.0 43.25 Q0.2 43.35 0.5 43.6 0.75 43.75 0.95 43.95 1.55 44.65 1.65 45.3 1.8 45.75 1.8 46.3 1.8 47.2 1.4 48.0 0.7 49.25 -0.8 49.5 L-0.85 49.5 -1.4 49.55 -1.0 49.75 -0.7 49.9 -0.25 49.9 0.1 50.0 0.6 49.95 0.7 49.9 0.75 49.9 Q1.55 49.45 2.1 48.6 2.75 47.55 2.75 46.35 2.75 45.1 2.05 44.05 L2.0 44.0 2.0 43.95 1.95 43.95 1.95 43.9 1.85 43.8 1.85 43.75 1.8 43.7 1.75 43.7 Q1.45 43.35 1.15 43.1 L1.05 43.0 1.0 43.0 0.9 42.9 0.85 42.9 Q0.45 42.65 -0.05 42.45 -0.45 42.35 -0.9 42.25 L-1.15 42.2 -1.15 42.2 0.55 42.2 0.55 41.9 0.5 41.5 0.55 39.05 0.6 38.75 M0.95 44.1 L0.85 44.0 Q0.7 43.8 0.45 43.65 L-0.05 43.35 -0.35 43.2 Q-0.6 43.15 -0.8 43.1 L-1.6 43.1 -2.2 43.2 -2.25 43.2 Q-3.25 43.4 -3.85 44.05 -4.1 44.3 -4.25 44.55 -4.8 45.3 -4.8 46.3 -4.8 47.15 -4.4 47.95 -3.7 49.15 -2.25 49.4 L-1.6 49.45 -1.5 49.45 -0.95 49.4 -0.85 49.4 Q0.1 49.25 0.75 48.65 L0.85 48.55 1.15 48.15 1.2 48.1 1.3 47.95 Q1.7 47.15 1.7 46.3 1.7 45.8 1.55 45.35 1.5 44.75 0.95 44.1 M-1.7 44.1 L-1.6 44.1 -1.2 44.05 -1.0 44.1 Q-0.75 44.1 -0.5 44.25 -0.35 44.3 -0.15 44.45 L0.15 44.7 0.2 44.8 Q0.55 45.25 0.65 45.65 0.75 45.95 0.75 46.3 0.7 46.9 0.45 47.45 L0.15 47.8 Q-0.3 48.3 -1.05 48.45 L-1.5 48.5 -1.6 48.5 -1.8 48.45 -2.0 48.45 Q-3.05 48.3 -3.5 47.45 -3.8 46.9 -3.8 46.3 -3.8 45.6 -3.4 45.1 L-3.15 44.75 Q-2.7 44.25 -2.0 44.15 L-1.7 44.1 M0.1 45.8 Q0.05 45.45 -0.3 45.1 L-0.5 44.9 -0.75 44.75 Q-0.95 44.65 -1.15 44.65 L-1.3 44.6 -1.6 44.6 -1.9 44.65 Q-2.45 44.75 -2.75 45.1 L-2.95 45.4 Q-3.25 45.75 -3.25 46.3 -3.25 46.75 -3.05 47.15 -2.7 47.8 -1.9 47.9 L-1.6 47.95 -1.5 47.95 -1.2 47.9 Q-0.4 47.8 -0.05 47.15 0.15 46.75 0.15 46.3 0.15 46.0 0.1 45.8 M0.2 50.15 L0.15 50.15 0.15 50.1 -0.2 50.05 -1.05 49.8 -1.25 49.75 -1.5 49.6 -1.5 54.95 Q-1.0 54.1 -0.7 53.55 -0.4 52.85 -0.15 51.85 L0.1 50.85 0.25 50.2 0.25 50.15 0.2 50.15 M-14.85 -64.4 Q-14.15 -62.8 -13.6 -61.85 -12.9 -60.65 -11.75 -59.3 L-10.0 -57.4 -9.7 -57.05 -9.65 -57.15 -9.6 -57.2 -9.5 -57.15 -9.1 -57.65 -8.9 -57.8 -7.65 -58.8 -7.25 -58.95 -7.15 -59.0 -14.85 -64.4 M-12.0 -64.2 Q-13.05 -64.35 -14.8 -64.45 L-7.1 -59.1 -7.1 -59.2 -7.05 -59.6 -6.45 -61.35 -6.15 -61.9 -6.25 -62.0 -6.2 -62.0 -6.2 -62.05 -6.15 -62.15 -6.75 -62.35 -8.95 -63.3 Q-10.65 -63.9 -12.0 -64.2 M-2.7 -70.6 L-2.95 -70.0 Q-3.5 -68.5 -3.95 -66.4 L-4.4 -63.95 -4.5 -63.5 -4.6 -62.9 -4.6 -62.85 -4.45 -62.85 -4.45 -62.75 -3.8 -62.65 -3.45 -62.55 -2.0 -62.1 -1.6 -61.8 -1.55 -61.8 -1.55 -72.95 Q-2.25 -71.6 -2.7 -70.6 M-9.6 -54.85 L-9.65 -54.95 -10.15 -54.6 -11.75 -53.5 Q-12.95 -52.6 -13.75 -51.75 -14.4 -51.1 -15.25 -49.9 L-7.9 -52.9 -8.25 -53.1 -9.25 -54.4 -9.5 -54.85 -9.55 -54.8 -9.6 -54.85 M-7.85 -52.8 L-15.25 -49.85 -15.2 -49.85 Q-13.75 -49.6 -12.85 -49.5 -11.7 -49.5 -10.2 -49.7 L-8.2 -50.0 -7.7 -50.1 -7.65 -50.1 -7.7 -50.15 -7.7 -50.25 -7.65 -50.3 -7.75 -50.55 -7.8 -50.8 Q-7.9 -52.2 -7.95 -52.35 L-7.85 -52.8 M-5.5 -37.15 L-5.5 -37.3 -5.55 -37.3 -5.55 -37.4 -5.6 -37.4 -6.1 -37.3 -7.25 -37.0 Q-8.25 -36.75 -8.95 -36.45 -9.5 -36.2 -10.35 -35.65 L-5.0 -35.65 -5.15 -35.9 -5.4 -36.7 -5.45 -36.95 -5.5 -37.15 M-6.2 -34.0 L-5.6 -33.85 -5.55 -33.85 -5.55 -33.95 -5.5 -34.0 -5.45 -34.35 -5.15 -35.35 -5.0 -35.6 -10.35 -35.6 Q-9.5 -35.1 -8.95 -34.8 -8.25 -34.5 -7.25 -34.25 L-6.2 -34.0 M-1.55 -17.75 L-2.0 -17.8 -2.35 -17.85 -2.45 -17.8 -2.45 -17.85 -2.55 -17.85 -2.6 -17.8 -2.65 -17.8 -3.05 -17.75 -3.05 -17.6 -3.2 -16.25 Q-3.35 -15.9 -3.15 -15.6 -3.05 -15.4 -2.8 -15.3 -2.6 -15.2 -2.35 -15.15 L-1.75 -15.05 -1.5 -15.05 -1.2 -15.05 Q0.0 -15.05 -0.05 -16.15 L-0.15 -17.0 -0.1 -17.4 -0.7 -17.55 Q-1.1 -17.7 -1.55 -17.75 M-1.55 -2.9 L-2.0 -2.95 -2.45 -2.95 Q-2.75 -2.95 -3.1 -2.85 L-3.25 -1.4 Q-3.4 -1.05 -3.25 -0.75 -3.1 -0.55 -2.9 -0.4 -2.55 -0.25 -2.0 -0.2 L-1.7 -0.15 -1.15 -0.15 Q0.1 -0.15 0.05 -1.25 L-0.05 -2.15 Q-0.05 -2.4 0.0 -2.55 L-0.65 -2.75 -1.55 -2.9 M-3.2 50.7 L-3.15 50.85 -2.9 51.85 Q-2.65 52.85 -2.35 53.55 L-2.2 53.85 -1.55 54.95 -1.55 49.6 -1.8 49.75 -2.85 50.05 -3.2 50.1 -3.2 50.15 -3.3 50.15 -3.3 50.2 -3.2 50.7" fill="#111111" fill-rule="evenodd" stroke="none"/>
      <path d="M-1.15 -30.85 Q-0.55 -30.9 -0.05 -31.0 L0.0 -30.95 0.3 -30.8 Q0.3 -30.25 0.3 -29.5 L0.3 -29.3 0.05 -29.25 Q-0.75 -29.3 -1.45 -29.45 -1.35 -29.7 -1.25 -30.15 L-1.15 -30.85 M-1.35 -29.35 Q-0.2 -29.05 0.2 -28.3 L0.25 -28.25 0.3 -28.05 0.3 -27.8 0.2 -27.75 0.2 -27.5 0.05 -27.4 -0.55 -27.3 -0.95 -27.25 -1.8 -27.3 Q-1.55 -27.6 -1.4 -28.05 L-1.35 -28.25 -1.3 -28.3 Q-1.2 -28.85 -1.3 -29.2 L-1.35 -29.35 M-1.15 -26.9 L-0.2 -26.95 -0.2 -26.85 0.4 -26.85 Q0.35 -26.35 0.3 -25.7 L0.3 -25.3 0.25 -25.3 0.15 -25.25 Q0.05 -25.15 -0.05 -25.1 L-1.3 -25.0 Q-1.2 -25.25 -1.1 -25.7 -1.0 -26.1 -1.0 -26.7 L-1.15 -26.9 M-0.95 -24.85 L-0.4 -24.75 -0.35 -24.7 0.3 -24.7 Q0.25 -24.15 0.15 -23.85 L-0.3 -23.95 -1.4 -24.15 -1.05 -24.1 Q-0.95 -24.2 -0.95 -24.4 -0.9 -24.65 -0.95 -24.85 M-1.25 -23.85 L-0.55 -23.6 -0.1 -23.4 0.25 -23.2 0.2 -22.45 Q0.15 -21.7 0.05 -21.3 L-1.5 -21.4 -1.3 -21.35 -1.2 -21.85 Q-1.0 -23.3 -1.3 -23.85 L-1.25 -23.85 M-1.25 -20.8 L-0.6 -20.65 -0.8 -20.6 -0.4 -20.6 -0.1 -20.55 -0.05 -20.55 0.2 -20.5 Q0.1 -20.45 0.1 -20.35 0.25 -20.2 0.3 -20.0 L0.3 -19.8 Q0.35 -19.7 0.2 -19.05 L0.15 -18.8 0.1 -18.05 Q-0.75 -17.8 -0.85 -17.8 L-1.25 -17.8 Q-1.25 -18.55 -1.1 -18.9 -0.95 -19.3 -0.95 -19.9 L-1.1 -20.2 Q-1.25 -20.45 -1.25 -20.55 L-1.25 -20.8 M-1.2 -14.9 L-0.45 -15.0 Q-0.3 -15.0 -0.1 -14.85 L0.2 -14.7 0.15 -13.35 0.2 -13.3 Q0.15 -13.25 0.0 -13.25 -0.85 -13.2 -1.5 -13.4 -1.2 -13.65 -1.1 -14.0 -1.0 -14.4 -1.15 -14.8 L-1.2 -14.9 M-1.3 -13.3 Q-0.1 -13.0 0.15 -12.15 L0.15 -11.9 Q0.15 -11.85 0.05 -11.85 L0.05 -11.65 -0.05 -11.5 -0.65 -11.4 -1.0 -11.35 -1.5 -11.4 Q-1.35 -11.65 -1.25 -11.95 -1.05 -12.65 -1.25 -13.15 L-1.3 -13.3 M-1.15 -11.05 L-0.3 -11.1 -0.3 -11.05 0.4 -11.05 0.4 -10.9 Q0.45 -10.3 0.25 -9.95 0.2 -9.75 0.1 -9.6 L-1.35 -9.6 -1.25 -9.9 Q-1.2 -10.0 -1.15 -10.15 -1.05 -10.7 -1.15 -11.0 L-1.15 -11.05 M-1.1 -9.35 L-0.95 -9.35 0.4 -9.2 0.35 -9.1 0.4 -8.9 0.4 -8.8 0.3 -8.55 0.25 -8.55 Q0.05 -8.65 -0.3 -8.7 L-0.5 -8.75 -1.05 -8.85 -0.95 -8.9 Q-0.9 -8.95 -1.0 -9.15 L-1.1 -9.35 M-0.9 -8.55 L-0.5 -8.35 -0.05 -8.2 0.1 -8.1 0.55 -7.9 0.35 -7.3 0.3 -7.0 Q0.25 -6.55 0.35 -6.3 L-0.55 -6.3 -1.25 -6.35 -1.3 -6.35 -1.25 -6.35 -1.25 -6.4 Q-1.0 -6.65 -0.9 -7.0 -0.85 -7.15 -0.8 -7.35 L-0.8 -7.65 Q-0.8 -8.1 -0.9 -8.55 M-1.2 -5.85 L-1.1 -5.8 Q-0.55 -5.8 -0.25 -5.65 L-0.1 -5.55 0.0 -5.6 0.25 -5.55 Q0.2 -5.5 0.2 -5.4 0.35 -5.15 0.35 -4.85 0.35 -4.75 0.25 -4.15 0.2 -3.5 0.2 -3.15 L-0.8 -2.9 -1.45 -2.95 -1.25 -5.65 -1.2 -5.85 M-1.1 -0.05 L-0.35 -0.1 Q-0.2 -0.1 0.0 0.0 L0.3 0.2 0.3 1.7 0.05 1.75 Q-0.75 1.7 -1.45 1.55 -1.35 1.25 -1.25 0.85 L-1.25 0.7 Q-1.15 0.25 -1.1 -0.05 M-1.35 1.65 Q0.0 2.0 0.3 2.9 L0.3 3.2 0.2 3.25 0.2 3.45 0.05 3.6 -0.55 3.65 -0.95 3.75 -1.8 3.7 Q-1.55 3.4 -1.4 2.95 -1.15 2.2 -1.3 1.8 L-1.35 1.65 M-1.15 4.1 L-0.2 4.05 -0.2 4.1 0.4 4.15 0.35 4.95 Q0.3 5.3 0.3 5.65 L0.25 5.7 0.15 5.75 Q0.05 5.8 -0.05 5.9 L-1.3 6.0 Q-1.15 5.65 -1.05 4.95 -1.0 4.65 -1.0 4.3 -1.05 4.2 -1.15 4.1 M-1.25 7.1 L-0.55 7.4 -0.1 7.6 Q0.15 7.7 0.25 7.8 L0.2 8.5 Q0.15 9.3 0.05 9.7 L-1.5 9.6 -1.3 9.65 -1.2 9.1 Q-1.0 7.7 -1.3 7.15 L-1.25 7.1 M-0.95 6.15 Q-0.45 6.2 -0.4 6.25 L-0.35 6.3 0.3 6.3 0.15 7.15 -0.3 7.05 -1.4 6.85 -1.05 6.9 Q-0.95 6.8 -0.95 6.6 -0.9 6.35 -0.95 6.15 M-1.5 10.15 L-1.15 10.2 -0.75 10.2 -0.25 10.25 Q0.05 10.3 0.15 10.5 L0.2 10.5 0.2 10.75 0.1 11.0 0.05 11.25 Q-0.2 11.3 -0.6 11.4 L-0.95 11.45 -1.4 11.5 -1.5 11.5 -1.55 11.45 Q-1.65 11.35 -1.65 11.25 -1.65 11.15 -1.5 10.95 -1.4 10.75 -1.4 10.7 -1.4 10.55 -1.5 10.15 M-1.25 11.55 L-0.55 11.65 -0.5 11.65 Q-0.2 11.7 -0.05 11.85 L0.05 11.9 0.15 12.2 0.1 12.9 0.1 12.95 0.0 13.0 -0.2 13.05 -0.25 13.05 -0.45 13.15 -1.05 13.15 -1.2 13.15 -1.45 13.1 -1.45 13.0 Q-1.2 12.05 -1.2 11.75 -1.2 11.7 -1.25 11.55 M-1.5 -15.05 Q-1.25 -15.35 -1.15 -15.85 -0.95 -16.65 -1.1 -17.15 -1.25 -17.55 -1.55 -17.75 -1.1 -17.7 -0.7 -17.55 L-0.1 -17.4 -0.15 -17.0 -0.05 -16.15 Q0.0 -15.05 -1.2 -15.05 L-1.5 -15.05 M-1.55 -2.9 L-0.65 -2.75 0.0 -2.55 Q-0.05 -2.4 -0.05 -2.15 L0.05 -1.25 Q0.1 -0.15 -1.15 -0.15 L-1.7 -0.15 Q-1.35 -0.5 -1.25 -1.15 -1.1 -1.9 -1.3 -2.45 -1.35 -2.7 -1.55 -2.9" fill="#0070e0" fill-rule="evenodd" stroke="none"/>
      <path d="M3.4 -61.35 L3.55 -61.2 Q4.05 -60.6 4.15 -60.6 L4.6 -60.65 Q4.9 -60.7 5.35 -60.85 6.9 -61.4 9.7 -63.3 L11.35 -64.45 11.7 -64.45 4.0 -59.05 4.0 -59.6 Q3.9 -59.8 3.4 -61.35 M2.65 -63.0 L2.6 -63.0 2.45 -62.95 2.4 -63.1 2.65 -63.0 M-5.5 -63.05 L-5.55 -62.95 -5.55 -63.05 -5.5 -63.05 M-7.55 -50.75 Q-7.8 -51.45 -7.85 -51.55 L-7.75 -52.35 -7.7 -52.7 -7.85 -53.0 -8.15 -53.25 Q-8.65 -53.65 -8.75 -53.8 L-9.0 -54.4 Q-9.2 -54.6 -9.35 -54.9 L-9.45 -55.35 -9.5 -55.4 -9.5 -55.55 Q-9.5 -56.1 -9.45 -56.6 L-9.4 -56.6 -9.35 -56.85 -9.4 -56.85 -9.25 -57.05 -9.0 -57.35 -8.75 -57.7 -8.45 -57.7 Q-7.35 -57.7 -7.25 -58.75 L-7.15 -58.8 -7.1 -58.85 -7.05 -58.85 -6.95 -58.9 -6.9 -58.9 -6.9 -59.2 -6.85 -59.55 Q-6.8 -60.3 -6.7 -60.5 L-6.3 -61.15 Q-6.25 -61.5 -6.0 -61.8 L-5.65 -62.2 -5.55 -62.25 -5.45 -62.25 -5.3 -62.3 -5.3 -62.4 -5.25 -62.4 -5.05 -62.45 Q-5.3 -62.05 -5.3 -61.8 -5.3 -61.6 -4.8 -60.95 -5.45 -60.6 -6.0 -60.0 -6.3 -59.7 -6.5 -59.4 L-6.55 -59.4 -6.55 -59.35 -6.65 -59.2 -6.75 -59.0 Q-7.75 -57.7 -7.8 -56.0 L-7.8 -55.7 Q-7.8 -54.0 -7.0 -52.5 L-6.5 -51.7 Q-7.2 -51.6 -7.45 -51.2 -7.55 -51.1 -7.55 -50.75 M1.75 -58.45 L2.85 -58.55 3.0 -59.25 3.1 -59.8 Q4.1 -58.6 4.3 -57.45 4.55 -56.6 4.55 -55.7 4.55 -54.05 3.75 -52.6 L3.6 -52.35 3.5 -52.2 2.95 -51.5 2.75 -51.25 Q2.75 -51.9 2.9 -52.85 2.85 -52.85 2.7 -52.95 2.55 -53.05 2.25 -53.05 2.0 -53.05 1.65 -52.85 1.95 -53.15 2.15 -53.55 2.7 -54.55 2.75 -55.7 2.75 -56.35 2.55 -56.9 2.4 -57.65 1.75 -58.45 M-4.75 -32.75 L-4.85 -32.85 -5.15 -33.3 -5.35 -33.65 -5.4 -34.0 Q-5.4 -34.2 -5.3 -34.35 L-5.3 -34.8 -5.05 -35.3 -4.95 -35.55 -4.95 -35.75 -5.3 -36.45 -5.3 -36.65 -5.25 -36.65 Q-4.6 -36.65 -4.6 -37.35 -4.6 -37.8 -5.1 -37.65 L-5.3 -37.55 -5.25 -37.6 -5.15 -37.8 Q-4.5 -38.8 -3.4 -39.25 -3.55 -39.0 -3.55 -38.85 -3.55 -38.75 -3.3 -38.4 -3.65 -38.2 -3.95 -37.9 L-4.2 -37.55 -4.2 -37.55 -4.3 -37.45 -4.35 -37.4 Q-4.85 -36.7 -4.9 -35.75 L-4.9 -35.6 Q-4.9 -34.7 -4.45 -33.9 L-4.2 -33.5 -4.2 -33.45 Q-4.6 -33.4 -4.7 -33.2 -4.75 -33.1 -4.75 -32.85 L-4.75 -32.75 M-1.95 -39.7 L-3.2 -39.65 -3.2 -40.0 -3.05 -40.85 -2.75 -42.9 -2.8 -43.4 -2.9 -45.15 Q-2.9 -45.55 -3.0 -45.85 -3.1 -46.2 -3.25 -46.4 L-2.8 -46.45 -2.2 -46.5 -2.0 -46.5 -2.05 -46.3 -2.2 -45.75 -2.1 -43.4 -1.95 -40.3 -1.95 -39.7 M-1.95 -46.75 L-3.3 -46.85 -3.45 -47.1 -3.8 -47.85 -2.05 -47.85 -2.2 -47.45 Q-2.2 -47.35 -2.05 -47.15 -1.95 -47.0 -1.95 -46.9 L-1.95 -46.75 M0.2 -37.05 L0.8 -37.15 0.9 -37.5 0.95 -37.8 Q1.5 -37.15 1.55 -36.55 1.7 -36.1 1.7 -35.6 1.7 -34.7 1.3 -33.95 L1.2 -33.8 1.15 -33.75 0.85 -33.35 0.75 -33.25 0.8 -33.95 0.8 -34.05 0.7 -34.15 0.5 -34.2 0.45 -34.2 Q0.3 -34.2 0.15 -34.05 L0.45 -34.45 Q0.7 -35.0 0.75 -35.6 0.75 -35.95 0.65 -36.25 0.55 -36.65 0.2 -37.05 M-3.3 43.45 Q-3.65 43.65 -3.95 43.95 L-4.2 44.3 -4.25 44.3 -4.2 44.35 -4.3 44.4 -4.35 44.5 Q-4.85 45.2 -4.9 46.15 L-4.9 46.3 Q-4.9 47.2 -4.45 48.0 L-4.2 48.4 Q-4.6 48.45 -4.7 48.7 -4.75 48.75 -4.75 49.05 L-4.75 49.15 -4.85 49.0 -5.15 48.6 Q-5.8 47.55 -5.8 46.35 -5.8 45.65 -5.6 45.0 L-5.6 45.05 Q-5.5 45.2 -5.25 45.2 -4.6 45.2 -4.6 44.5 -4.6 44.1 -5.1 44.25 L-5.3 44.3 -5.25 44.3 -5.15 44.05 Q-4.7 43.4 -4.0 42.95 -3.75 42.75 -3.4 42.6 -3.55 42.85 -3.55 43.0 L-3.55 43.05 -3.3 43.45 M-2.1 42.2 L-3.15 42.2 -3.05 40.5 -3.05 39.3 Q-3.1 38.2 -3.15 37.55 L-3.35 37.5 -3.3 37.4 -3.3 37.35 -3.25 37.3 -3.25 37.25 -3.2 37.2 -3.0 37.15 -2.3 37.1 -1.7 37.1 -1.9 38.45 Q-2.2 40.2 -2.2 41.4 L-2.1 42.2 M0.95 44.1 Q1.5 44.75 1.55 45.35 1.7 45.8 1.7 46.3 1.7 47.15 1.3 47.95 L1.2 48.1 1.15 48.15 0.85 48.55 0.75 48.65 Q0.75 48.3 0.8 47.8 L0.7 47.75 Q0.65 47.7 0.5 47.7 0.35 47.7 0.15 47.8 L0.45 47.45 Q0.7 46.9 0.75 46.3 0.75 45.95 0.65 45.65 0.55 45.25 0.2 44.8 L0.8 44.75 0.9 44.4 0.95 44.1 M-14.85 -64.4 L-7.15 -59.0 -7.25 -58.95 -7.65 -58.8 -8.9 -57.8 -9.1 -57.65 -9.5 -57.15 -9.6 -57.2 -9.65 -57.15 -9.7 -57.05 -10.0 -57.4 -11.75 -59.3 Q-12.9 -60.65 -13.6 -61.85 -14.15 -62.8 -14.85 -64.4 M-4.4 -63.95 Q-4.3 -63.7 -4.15 -63.6 L-4.05 -63.5 -3.4 -63.55 Q-3.25 -63.65 -3.1 -63.85 -2.75 -64.35 -2.3 -65.45 -1.75 -66.9 -1.75 -67.35 L-1.7 -67.95 Q-1.7 -68.55 -1.75 -69.05 -1.95 -70.6 -2.7 -70.6 -2.25 -71.6 -1.55 -72.95 L-1.55 -61.8 -1.6 -61.8 -2.0 -62.1 -3.45 -62.55 -3.8 -62.65 -4.45 -62.75 -4.45 -62.85 -4.6 -62.85 -4.6 -62.9 -4.5 -63.5 -4.4 -63.95 M-7.85 -52.8 L-7.95 -52.35 Q-7.9 -52.2 -7.8 -50.8 L-7.75 -50.55 -7.65 -50.3 -7.7 -50.25 -7.7 -50.15 -7.65 -50.1 -7.7 -50.1 -8.2 -50.0 -10.2 -49.7 Q-11.7 -49.5 -12.85 -49.5 -13.75 -49.6 -15.2 -49.85 L-15.25 -49.85 -7.85 -52.8 M-5.5 -37.15 L-5.45 -36.95 -5.4 -36.7 -5.15 -35.9 -5.0 -35.65 -10.35 -35.65 Q-9.5 -36.2 -8.95 -36.45 -8.25 -36.75 -7.25 -37.0 L-6.1 -37.3 -5.6 -37.4 -5.55 -37.4 -5.55 -37.3 -5.5 -37.3 -5.5 -37.15 M-2.2 53.85 Q-1.9 53.6 -1.9 53.3 -1.85 52.6 -1.95 51.9 -2.0 51.35 -2.15 51.05 -2.35 50.5 -2.7 50.5 L-3.05 50.55 -3.1 50.65 -3.2 50.7 -3.3 50.2 -3.3 50.15 -3.2 50.15 -3.2 50.1 -2.85 50.05 -1.8 49.75 -1.55 49.6 -1.55 54.95 -2.2 53.85" fill="#ff9999" fill-rule="evenodd" stroke="none"/>
      <path d="M3.4 -61.35 L3.1 -61.9 3.2 -62.0 3.15 -62.0 3.15 -62.05 3.1 -62.15 3.7 -62.35 5.9 -63.3 Q7.55 -63.9 8.9 -64.2 L11.35 -64.45 9.7 -63.3 Q6.9 -61.4 5.35 -60.85 4.9 -60.7 4.6 -60.65 L4.15 -60.6 Q4.05 -60.6 3.55 -61.2 L3.4 -61.35 M-1.95 -47.95 L-2.15 -47.95 Q-3.05 -48.05 -3.85 -48.2 -5.95 -48.7 -7.35 -50.15 L-7.45 -50.4 -7.55 -50.75 Q-7.55 -51.1 -7.45 -51.2 -7.2 -51.6 -6.5 -51.7 -5.2 -50.1 -2.9 -49.7 L-1.65 -49.6 -1.4 -49.6 -0.2 -49.7 -0.1 -49.7 Q-0.7 -48.85 -1.55 -48.2 L-1.7 -48.1 -1.95 -47.95 M-8.75 -57.7 L-8.35 -58.15 -7.5 -58.6 -7.25 -58.75 Q-7.35 -57.7 -8.45 -57.7 L-8.75 -57.7 M-5.05 -62.45 L-4.4 -62.5 Q-4.05 -62.5 -3.75 -62.4 L-2.95 -62.35 Q-2.75 -62.3 -2.1 -61.9 L-1.9 -61.8 -2.85 -61.7 -2.9 -61.7 -2.9 -61.65 Q-3.95 -61.45 -4.8 -60.95 -5.3 -61.6 -5.3 -61.8 -5.3 -62.05 -5.05 -62.45 M-6.5 -59.4 L-6.65 -59.2 -6.55 -59.35 -6.55 -59.4 -6.5 -59.4 M0.95 -61.55 Q0.45 -61.7 -0.1 -61.8 L-0.65 -61.85 -1.1 -61.85 -0.95 -61.9 Q-0.3 -62.3 -0.1 -62.35 L0.3 -62.35 0.75 -61.6 0.95 -61.55 M0.7 -61.4 Q0.95 -61.35 1.25 -61.2 L2.25 -60.6 Q2.65 -60.3 2.95 -59.95 L3.1 -59.8 3.0 -59.25 2.85 -58.55 1.75 -58.45 1.6 -58.65 Q1.35 -58.9 1.1 -59.1 L0.4 -59.55 Q-0.05 -59.75 -0.55 -59.8 L-0.9 -59.85 -1.6 -59.8 -1.8 -59.8 -2.05 -59.8 -1.75 -60.1 Q-0.7 -61.15 0.7 -61.4 M2.75 -51.25 Q1.55 -50.15 -0.25 -49.9 -0.3 -49.85 -0.4 -49.85 -1.35 -50.45 -2.0 -51.6 L-1.45 -51.6 -0.6 -51.65 Q0.8 -51.9 1.65 -52.85 2.0 -53.05 2.25 -53.05 2.55 -53.05 2.7 -52.95 2.85 -52.85 2.9 -52.85 2.75 -51.9 2.75 -51.25 M-1.0 -39.7 L-1.15 -39.7 -0.9 -39.65 Q-0.55 -39.2 -0.3 -38.75 L-0.2 -38.7 -0.8 -38.85 -1.05 -38.9 -1.6 -38.9 -2.25 -38.8 Q-2.85 -38.7 -3.3 -38.4 -3.55 -38.75 -3.55 -38.85 -3.55 -39.0 -3.4 -39.25 -2.75 -39.55 -1.95 -39.7 L-1.95 -40.3 -2.1 -43.4 -2.2 -45.75 -2.05 -46.3 -2.0 -46.5 -1.95 -46.5 -1.5 -46.55 -1.4 -46.55 -1.35 -46.5 -0.95 -46.55 -0.95 -46.3 -1.0 -39.7 M-1.75 -31.45 L-1.85 -31.45 Q-2.6 -31.5 -3.25 -31.75 -3.65 -31.9 -4.0 -32.1 -4.45 -32.35 -4.75 -32.75 L-4.75 -32.85 Q-4.75 -33.1 -4.7 -33.2 -4.6 -33.4 -4.2 -33.45 L-4.2 -33.5 Q-3.8 -32.95 -3.2 -32.7 -2.8 -32.5 -2.25 -32.4 L-1.6 -32.35 -1.2 -32.35 -0.85 -32.4 -0.8 -32.4 Q-1.0 -32.05 -1.3 -31.8 L-1.65 -31.55 -1.75 -31.45 M-5.3 -36.65 L-5.35 -37.05 -5.35 -37.45 -5.3 -37.55 -5.1 -37.65 Q-4.6 -37.8 -4.6 -37.35 -4.6 -36.65 -5.25 -36.65 L-5.3 -36.65 M-3.2 -39.65 L-3.45 -39.65 -3.45 -44.65 -3.5 -45.0 Q-3.5 -45.65 -3.5 -45.9 L-3.45 -46.15 -3.5 -46.35 -3.25 -46.4 Q-3.1 -46.2 -3.0 -45.85 -2.9 -45.55 -2.9 -45.15 L-2.8 -43.4 -2.75 -42.9 -3.05 -40.85 -3.2 -40.0 -3.2 -39.65 M-1.0 -47.0 L-1.05 -47.0 -1.25 -46.95 -1.35 -46.9 -1.4 -46.9 -1.6 -46.8 -1.8 -46.75 -1.95 -46.75 -1.95 -46.9 Q-1.95 -47.0 -2.05 -47.15 -2.2 -47.35 -2.2 -47.45 L-2.05 -47.85 -0.55 -47.85 Q-0.7 -47.3 -0.9 -47.05 L-1.0 -47.0 M-3.3 -46.85 L-3.7 -46.9 -4.1 -46.9 -4.35 -47.25 Q-4.55 -47.55 -4.55 -47.8 L-4.55 -47.85 -3.8 -47.85 -3.45 -47.1 -3.3 -46.85 M0.95 -37.8 L0.9 -37.5 0.8 -37.15 0.2 -37.05 0.15 -37.2 -0.15 -37.4 -0.5 -37.65 Q-0.75 -37.75 -1.0 -37.8 L-1.7 -37.8 -1.8 -37.8 -1.65 -37.95 Q-1.1 -38.5 -0.35 -38.65 L-0.05 -38.55 0.45 -38.2 Q0.7 -38.05 0.85 -37.85 L0.95 -37.8 M0.15 -34.05 Q0.3 -34.2 0.45 -34.2 L0.5 -34.2 0.7 -34.15 0.8 -34.05 0.8 -33.95 0.75 -33.25 Q0.4 -32.95 0.0 -32.75 -0.4 -32.55 -0.85 -32.5 L-0.95 -32.45 -1.15 -32.65 Q-1.45 -32.85 -1.65 -33.2 L-1.8 -33.4 -1.5 -33.4 -1.05 -33.45 Q-0.3 -33.55 0.15 -34.05 M-2.05 -9.25 L-2.05 -9.3 -2.05 -9.25 M-1.15 42.2 L-1.15 42.2 -0.9 42.25 -0.7 42.55 -0.35 43.05 -0.3 43.1 -0.2 43.15 -0.8 43.0 -1.6 43.0 -2.1 43.05 -2.25 43.1 Q-2.85 43.2 -3.3 43.45 L-3.55 43.05 -3.55 43.0 Q-3.55 42.85 -3.4 42.6 L-3.25 42.55 -3.15 42.5 Q-2.65 42.35 -2.1 42.25 L-1.85 42.2 -2.1 42.2 -2.2 41.4 Q-2.2 40.2 -1.9 38.45 L-1.7 37.1 -1.15 37.15 -1.15 38.8 -1.1 41.15 -1.15 42.2 M-1.0 49.75 L-1.4 49.55 -0.85 49.5 -0.8 49.5 -1.0 49.75 M-4.2 44.3 L-4.3 44.4 -4.2 44.35 -4.25 44.3 -4.2 44.3 M-4.2 48.4 Q-3.5 49.3 -2.25 49.5 L-1.65 49.55 -1.85 49.65 Q-2.25 49.85 -2.35 49.9 L-2.95 49.95 -3.45 49.95 -3.75 49.85 -3.95 49.8 Q-4.4 49.55 -4.75 49.15 L-4.75 49.05 Q-4.75 48.75 -4.7 48.7 -4.6 48.45 -4.2 48.4 M-5.6 45.0 L-5.4 44.6 -5.3 44.3 -5.1 44.25 Q-4.6 44.1 -4.6 44.5 -4.6 45.2 -5.25 45.2 -5.5 45.2 -5.6 45.05 L-5.6 45.0 M-3.15 42.2 L-3.4 42.15 Q-3.55 39.65 -3.55 37.85 L-3.4 37.55 -3.35 37.5 -3.15 37.55 Q-3.1 38.2 -3.05 39.3 L-3.05 40.5 -3.15 42.2 M-0.35 43.2 L-0.05 43.35 0.45 43.65 Q0.7 43.8 0.85 44.0 L0.95 44.1 0.9 44.4 0.8 44.75 0.2 44.8 0.15 44.7 -0.15 44.45 Q-0.35 44.3 -0.5 44.25 -0.75 44.1 -1.0 44.1 L-1.2 44.05 -1.6 44.1 -1.7 44.1 -1.8 44.1 -1.65 43.95 Q-1.1 43.35 -0.35 43.2 M0.75 48.65 Q0.1 49.25 -0.85 49.4 L-0.95 49.4 Q-1.45 49.1 -1.8 48.45 L-1.6 48.5 -1.5 48.5 -1.05 48.45 Q-0.3 48.3 0.15 47.8 0.35 47.7 0.5 47.7 0.65 47.7 0.7 47.75 L0.8 47.8 Q0.75 48.3 0.75 48.65 M-12.0 -64.2 Q-10.65 -63.9 -8.95 -63.3 L-6.75 -62.35 -6.15 -62.15 -6.2 -62.05 -6.2 -62.0 -6.25 -62.0 -6.15 -61.9 -6.45 -61.35 -7.05 -59.6 -7.1 -59.2 -7.1 -59.1 -14.8 -64.45 Q-13.05 -64.35 -12.0 -64.2 M-2.7 -70.6 Q-1.95 -70.6 -1.75 -69.05 -1.7 -68.55 -1.7 -67.95 L-1.75 -67.35 Q-1.75 -66.9 -2.3 -65.45 -2.75 -64.35 -3.1 -63.85 -3.25 -63.65 -3.4 -63.55 L-4.05 -63.5 -4.15 -63.6 Q-4.3 -63.7 -4.4 -63.95 L-3.95 -66.4 Q-3.5 -68.5 -2.95 -70.0 L-2.7 -70.6 M-9.6 -54.85 L-9.55 -54.8 -9.5 -54.85 -9.25 -54.4 -8.25 -53.1 -7.9 -52.9 -15.25 -49.9 Q-14.4 -51.1 -13.75 -51.75 -12.95 -52.6 -11.75 -53.5 L-10.15 -54.6 -9.65 -54.95 -9.6 -54.85 M-1.4 -39.7 L-1.4 -39.7 M-4.2 -37.55 L-4.3 -37.45 -4.2 -37.55 -4.2 -37.55 M-6.2 -34.0 L-7.25 -34.25 Q-8.25 -34.5 -8.95 -34.8 -9.5 -35.1 -10.35 -35.6 L-5.0 -35.6 -5.15 -35.35 -5.45 -34.35 -5.5 -34.0 -5.55 -33.95 -5.55 -33.85 -5.6 -33.85 -6.2 -34.0 M-2.65 -17.8 L-2.8 -17.8 -3.05 -17.6 -3.05 -17.75 -2.65 -17.8 M-3.2 50.7 L-3.1 50.65 -3.05 50.55 -2.7 50.5 Q-2.35 50.5 -2.15 51.05 -2.0 51.35 -1.95 51.9 -1.85 52.6 -1.9 53.3 -1.9 53.6 -2.2 53.85 L-2.35 53.55 Q-2.65 52.85 -2.9 51.85 L-3.15 50.85 -3.2 50.7" fill="#b00000" fill-rule="evenodd" stroke="none"/>
      <path d="M-1.45 -29.45 L-1.65 -29.5 -1.7 -29.5 -2.05 -29.65 -2.8 -30.0 -2.8 -30.05 -3.0 -30.15 -2.95 -30.2 -3.05 -30.45 -2.95 -30.5 -2.95 -30.55 -3.0 -30.75 -3.0 -30.85 -2.5 -30.9 -1.95 -30.85 -1.15 -30.85 -1.25 -30.15 Q-1.35 -29.7 -1.45 -29.45 M-1.8 -27.3 L-1.95 -27.3 -2.25 -27.35 -2.35 -27.35 -2.6 -27.4 -3.0 -27.45 -3.1 -27.55 -3.15 -27.5 -3.2 -27.55 Q-3.2 -27.7 -3.25 -28.0 L-3.25 -28.25 -3.3 -28.3 -3.35 -28.55 -3.25 -29.0 -3.3 -29.15 Q-3.3 -29.4 -3.0 -29.45 L-2.2 -29.5 -2.05 -29.45 -1.6 -29.4 -1.35 -29.35 -1.3 -29.2 Q-1.2 -28.85 -1.3 -28.3 L-1.35 -28.25 -1.4 -28.05 Q-1.55 -27.6 -1.8 -27.3 M-1.3 -25.0 L-2.15 -25.0 -2.6 -25.05 -2.75 -25.1 Q-3.0 -25.15 -3.15 -25.35 L-3.2 -25.35 -3.2 -25.45 Q-3.15 -25.5 -3.2 -25.7 L-3.2 -25.85 -3.25 -26.3 Q-3.05 -26.65 -3.0 -26.9 L-1.15 -26.9 -1.0 -26.7 Q-1.0 -26.1 -1.1 -25.7 -1.2 -25.25 -1.3 -25.0 M-0.95 -24.85 Q-0.9 -24.65 -0.95 -24.4 -0.95 -24.2 -1.05 -24.1 L-1.4 -24.15 -2.15 -24.3 -2.8 -24.4 -2.85 -24.4 -3.1 -24.45 -2.8 -24.35 -2.45 -24.25 -2.35 -24.2 -2.25 -24.2 -1.25 -23.85 -1.3 -23.85 Q-1.0 -23.3 -1.2 -21.85 L-1.3 -21.35 -1.5 -21.4 -1.7 -21.4 Q-2.0 -21.45 -2.3 -21.55 L-2.55 -21.65 -2.6 -21.65 -2.7 -21.7 -2.95 -21.85 Q-3.0 -21.85 -3.0 -21.9 L-3.15 -22.0 -3.25 -22.1 Q-3.25 -22.8 -3.4 -23.75 -3.35 -23.8 -3.35 -23.85 -3.25 -24.25 -3.25 -24.4 -3.25 -24.5 -3.3 -24.55 L-3.25 -24.55 -3.2 -24.95 -2.25 -24.95 -2.25 -24.9 -2.15 -24.9 -0.95 -24.85 M-1.25 -20.8 L-1.25 -20.55 Q-1.25 -20.45 -1.1 -20.2 L-0.95 -19.9 Q-0.95 -19.3 -1.1 -18.9 -1.25 -18.55 -1.25 -17.8 L-1.4 -17.8 Q-1.95 -17.9 -2.4 -18.1 L-2.45 -18.15 -2.55 -18.15 -2.55 -18.2 -2.6 -18.2 Q-3.1 -18.55 -3.25 -18.8 L-3.3 -19.0 -3.05 -19.75 Q-3.05 -19.9 -2.9 -20.0 L-2.75 -20.15 Q-2.55 -20.25 -2.3 -20.3 L-2.95 -20.3 Q-3.05 -20.3 -3.1 -20.3 L-3.1 -20.35 Q-3.1 -20.4 -3.2 -20.4 -3.3 -20.5 -3.35 -20.75 L-3.3 -21.0 -3.2 -21.2 -2.3 -21.0 -2.15 -21.0 -1.25 -20.8 M-1.2 -14.9 L-1.15 -14.8 Q-1.0 -14.4 -1.1 -14.0 -1.2 -13.65 -1.5 -13.4 L-1.65 -13.45 -1.7 -13.45 -1.9 -13.55 -2.75 -13.95 -2.95 -14.1 -3.1 -14.2 -3.0 -14.75 -2.9 -14.75 -1.55 -14.9 -1.2 -14.95 -1.2 -14.9 M-1.5 -11.4 L-1.8 -11.45 -2.35 -11.5 -2.85 -11.55 -2.95 -11.65 -3.0 -11.6 -3.05 -11.65 -3.1 -12.05 Q-3.2 -12.4 -3.2 -12.6 -3.15 -12.8 -3.1 -13.0 -3.15 -13.1 -3.15 -13.15 -3.15 -13.4 -2.85 -13.45 L-1.9 -13.4 -1.3 -13.3 -1.25 -13.15 Q-1.05 -12.65 -1.25 -11.95 -1.35 -11.65 -1.5 -11.4 M-1.35 -9.6 L-2.9 -9.6 Q-2.95 -9.65 -3.05 -9.7 L-3.05 -9.95 -3.15 -10.35 -3.15 -10.4 -3.1 -10.55 -2.9 -11.05 -1.15 -11.05 -1.15 -11.0 Q-1.05 -10.7 -1.15 -10.15 -1.2 -10.0 -1.25 -9.9 L-1.35 -9.6 M-1.05 -8.85 L-1.55 -8.9 -1.9 -8.95 -1.9 -9.05 Q-1.9 -9.15 -2.05 -9.25 L-2.05 -9.3 -1.95 -9.3 -1.1 -9.35 -1.0 -9.15 Q-0.9 -8.95 -0.95 -8.9 L-1.05 -8.85 M-1.3 -6.35 L-1.85 -6.4 -2.35 -6.55 -2.4 -6.6 -2.5 -6.6 Q-2.95 -6.75 -3.2 -7.0 -3.35 -7.2 -3.4 -7.45 L-3.45 -7.5 -3.45 -7.65 Q-3.4 -7.9 -3.4 -8.2 -3.35 -8.25 -3.4 -8.35 L-3.25 -8.65 -3.25 -8.8 -2.95 -8.8 -2.65 -8.85 -2.35 -8.85 Q-2.2 -8.9 -2.15 -8.9 L-2.1 -8.9 -2.05 -8.85 -2.05 -8.9 -1.7 -8.8 -1.45 -8.75 -1.2 -8.65 -1.15 -8.65 -1.1 -8.6 -0.9 -8.55 Q-0.8 -8.1 -0.8 -7.65 L-0.8 -7.35 Q-0.85 -7.15 -0.9 -7.0 -1.0 -6.65 -1.25 -6.4 L-1.25 -6.35 -1.3 -6.35 M-1.45 -2.95 L-1.85 -3.05 -1.95 -3.05 -2.0 -3.1 -2.3 -3.2 -2.4 -3.25 -2.55 -3.3 -2.65 -3.35 Q-3.25 -3.75 -3.25 -4.1 L-3.25 -4.4 -3.3 -4.8 -3.25 -5.55 -3.35 -5.75 Q-3.35 -5.9 -3.2 -6.2 L-1.2 -5.85 -1.25 -5.65 -1.45 -2.95 M-1.45 1.55 L-1.65 1.5 -1.7 1.5 -2.05 1.35 -2.8 1.0 -2.8 0.95 -3.05 0.8 -3.2 0.75 -3.2 0.7 -3.1 0.15 -3.0 0.15 -2.25 0.05 -2.0 0.05 -1.1 -0.05 Q-1.15 0.25 -1.25 0.7 L-1.25 0.85 Q-1.35 1.25 -1.45 1.55 M-1.8 3.7 L-1.95 3.65 -1.95 3.7 -2.25 3.65 -2.35 3.65 -2.6 3.6 -3.0 3.55 -3.1 3.45 -3.15 3.5 -3.2 3.45 Q-3.2 3.3 -3.25 3.0 L-3.35 2.45 -3.25 2.0 -3.3 1.85 Q-3.3 1.6 -3.0 1.5 L-2.05 1.5 -1.6 1.6 -1.35 1.65 -1.3 1.8 Q-1.15 2.2 -1.4 2.95 -1.55 3.4 -1.8 3.7 M-1.15 4.1 Q-1.05 4.2 -1.0 4.3 -1.0 4.65 -1.05 4.95 -1.15 5.65 -1.3 6.0 L-2.15 6.0 -2.6 5.95 -2.75 5.9 Q-3.0 5.8 -3.15 5.65 L-3.2 5.65 -3.2 5.55 Q-3.15 5.5 -3.2 5.3 L-3.2 4.95 -3.25 4.65 Q-3.05 4.3 -3.0 4.1 L-1.15 4.1 M-1.5 9.6 L-1.7 9.6 Q-2.0 9.55 -2.3 9.45 L-2.55 9.35 -2.6 9.35 -2.7 9.3 -2.95 9.15 -3.0 9.1 -3.15 9.0 -3.25 8.9 Q-3.25 8.2 -3.4 7.25 -3.35 7.15 -3.35 7.1 -3.25 6.75 -3.25 6.6 -3.25 6.5 -3.3 6.45 L-3.1 6.45 -3.25 6.4 -3.2 6.05 -2.65 6.05 -2.5 6.0 -2.25 6.0 -2.25 6.1 -2.15 6.1 -0.95 6.15 Q-0.9 6.35 -0.95 6.6 -0.95 6.8 -1.05 6.9 L-1.4 6.85 -2.15 6.7 -2.8 6.6 -2.85 6.6 -3.1 6.55 -2.8 6.65 -2.45 6.75 -2.4 6.75 -1.25 7.1 -1.3 7.15 Q-1.0 7.7 -1.2 9.1 L-1.3 9.65 -1.5 9.6 M-1.5 10.15 Q-1.4 10.55 -1.4 10.7 -1.4 10.75 -1.5 10.95 -1.65 11.15 -1.65 11.25 -1.65 11.35 -1.55 11.45 L-1.75 11.45 -2.35 11.3 -2.8 11.05 -3.2 10.8 -3.3 10.7 -3.3 10.45 -3.35 10.25 Q-3.35 10.1 -3.2 9.8 L-2.3 9.95 -2.25 10.0 -2.15 10.0 -1.5 10.15 M-1.45 13.1 L-1.75 13.05 -1.85 13.05 -2.2 13.0 -2.4 12.9 -2.55 12.8 -2.6 12.8 -2.75 12.7 Q-3.25 12.35 -3.3 12.0 L-3.25 11.95 -3.35 11.75 Q-3.15 11.75 -3.05 11.55 L-3.05 11.4 -3.0 11.45 -2.85 11.5 -2.7 11.4 -1.25 11.55 Q-1.2 11.7 -1.2 11.75 -1.2 12.05 -1.45 13.0 L-1.45 13.1 M-3.55 35.95 L-3.55 35.85 -3.55 35.95 M0.6 38.75 L0.55 39.05 0.55 38.9 Q0.55 38.85 0.6 38.75 M-2.65 -17.8 L-2.6 -17.8 -2.55 -17.85 -2.45 -17.85 -2.45 -17.8 -2.35 -17.85 -2.0 -17.8 -1.55 -17.75 Q-1.25 -17.55 -1.1 -17.15 -0.95 -16.65 -1.15 -15.85 -1.25 -15.35 -1.5 -15.05 L-1.75 -15.05 -2.35 -15.15 Q-2.6 -15.2 -2.8 -15.3 -3.05 -15.4 -3.15 -15.6 -3.35 -15.9 -3.2 -16.25 L-3.05 -17.6 -2.8 -17.8 -2.65 -17.8 M-1.7 -0.15 L-2.0 -0.2 Q-2.55 -0.25 -2.9 -0.4 -3.1 -0.55 -3.25 -0.75 -3.4 -1.05 -3.25 -1.4 L-3.1 -2.85 Q-2.75 -2.95 -2.45 -2.95 L-2.0 -2.95 -1.55 -2.9 Q-1.35 -2.7 -1.3 -2.45 -1.1 -1.9 -1.25 -1.15 -1.35 -0.5 -1.7 -0.15" fill="#80c0f0" fill-rule="evenodd" stroke="none"/>
      <path d="M-2.5 13.4 L-0.1 13.35 0.1 13.45 0.15 13.5 0.2 13.65 0.1 13.85 -0.1 13.95 -1.55 14.0 -1.6 14.2 -1.5 14.5 Q-1.35 14.9 -0.85 14.9 L-0.8 14.9 -0.85 17.55 -0.8 18.85 Q-1.2 19.25 -1.7 20.0 L-1.65 20.45 -1.0 20.6 -0.75 20.55 -0.75 20.35 -0.7 21.4 -0.6 23.0 Q-1.15 23.2 -1.2 24.6 L-0.7 24.55 -0.35 24.6 -0.1 24.65 -0.05 24.7 Q-0.05 24.75 -0.05 24.95 -0.05 25.25 -0.55 25.6 -0.9 25.8 -1.1 25.9 -1.1 27.3 -0.9 28.8 L-0.9 28.85 -1.35 30.8 Q-1.35 31.2 -0.85 33.05 -0.6 33.9 -0.45 34.65 L-0.65 34.85 Q-0.9 35.2 -0.9 35.25 L-0.4 35.65 -0.35 35.65 -0.35 35.9 0.2 35.95 Q0.2 36.0 0.25 36.0 0.3 36.0 0.3 36.2 L0.3 36.25 Q0.3 36.85 -2.0 36.9 -1.85 36.7 -1.8 36.35 -1.7 36.05 -1.7 35.8 L-1.7 35.45 Q-1.7 35.25 -1.75 35.1 -1.75 34.95 -2.0 34.7 -2.25 34.55 -2.3 34.35 L-2.35 33.6 Q-2.4 33.15 -2.5 32.85 L-2.55 32.85 Q-2.55 33.4 -2.95 35.15 L-3.25 36.45 -3.35 36.4 -3.55 35.95 -3.55 35.85 -3.6 35.8 -3.55 35.55 -3.55 23.75 -3.5 22.25 -3.5 14.15 -3.35 13.6 -3.3 13.5 -3.3 13.45 -3.05 13.45 Q-2.75 13.35 -2.6 13.4 L-2.55 13.4 -2.65 13.4 Q-2.65 13.55 -2.8 13.85 -2.95 14.15 -2.95 14.25 -2.95 14.65 -2.75 15.45 -2.55 16.25 -2.55 16.45 L-3.1 18.9 Q-3.1 19.05 -2.9 19.3 -2.7 19.55 -2.7 19.85 L-2.6 21.45 -2.55 22.35 Q-2.55 22.5 -2.85 22.9 -3.15 23.25 -3.15 23.5 L-2.85 24.7 Q-2.5 25.95 -2.45 26.25 L-2.4 26.25 -2.05 24.75 Q-1.9 24.1 -1.9 23.5 -1.9 23.35 -2.2 22.95 -2.45 22.55 -2.45 22.4 -2.45 21.45 -2.2 20.15 -1.95 19.0 -1.95 18.85 -1.95 18.7 -2.1 18.35 -2.3 18.0 -2.25 17.55 -2.25 17.15 -2.4 16.8 -2.55 16.45 -2.55 16.2 L-2.1 14.25 Q-2.1 14.0 -2.5 13.4 M0.3 31.15 Q0.3 31.45 -0.25 31.9 -0.65 31.7 -0.65 31.3 -0.65 31.15 -0.4 30.85 L-0.1 30.5 Q0.1 30.7 0.2 30.9 0.3 31.1 0.3 31.15 M-2.4 30.0 L-2.45 30.0 -2.55 30.15 Q-2.6 30.3 -2.6 30.45 -2.6 30.65 -2.75 31.85 L-2.75 32.1 Q-2.7 32.3 -2.45 32.3 -2.1 32.3 -2.1 31.65 -2.1 31.4 -2.2 30.8 L-2.4 30.0 M-2.3 27.75 Q-2.3 27.4 -2.65 27.25 -2.95 27.15 -2.95 27.45 L-2.9 27.9 Q-2.8 28.4 -2.5 28.4 -2.4 28.4 -2.35 28.35 L-2.35 28.05 -2.3 27.75" fill="#dde8e2" fill-rule="evenodd" stroke="none"/>
      <path d="M-2.0 36.9 L-2.8 36.9 Q-2.95 36.9 -3.1 36.75 -3.15 36.6 -3.2 36.55 L-3.25 36.45 -2.95 35.15 Q-2.55 33.4 -2.55 32.85 L-2.5 32.85 Q-2.4 33.15 -2.35 33.6 L-2.3 34.35 Q-2.25 34.55 -2.0 34.7 -1.75 34.95 -1.75 35.1 -1.7 35.25 -1.7 35.45 L-1.7 35.8 Q-1.7 36.05 -1.8 36.35 -1.85 36.7 -2.0 36.9 M-2.55 13.4 L-2.5 13.4 Q-2.1 14.0 -2.1 14.25 L-2.55 16.2 Q-2.55 16.45 -2.4 16.8 -2.25 17.15 -2.25 17.55 -2.3 18.0 -2.1 18.35 -1.95 18.7 -1.95 18.85 -1.95 19.0 -2.2 20.15 -2.45 21.45 -2.45 22.4 -2.45 22.55 -2.2 22.95 -1.9 23.35 -1.9 23.5 -1.9 24.1 -2.05 24.75 L-2.4 26.25 -2.45 26.25 Q-2.5 25.95 -2.85 24.7 L-3.15 23.5 Q-3.15 23.25 -2.85 22.9 -2.55 22.5 -2.55 22.35 L-2.6 21.45 -2.7 19.85 Q-2.7 19.55 -2.9 19.3 -3.1 19.05 -3.1 18.9 L-2.55 16.45 Q-2.55 16.25 -2.75 15.45 -2.95 14.65 -2.95 14.25 -2.95 14.15 -2.8 13.85 -2.65 13.55 -2.65 13.4 L-2.55 13.4 M-2.3 27.75 L-2.35 28.05 -2.35 28.35 Q-2.4 28.4 -2.5 28.4 -2.8 28.4 -2.9 27.9 L-2.95 27.45 Q-2.95 27.15 -2.65 27.25 -2.3 27.4 -2.3 27.75 M-2.4 30.0 L-2.2 30.8 Q-2.1 31.4 -2.1 31.65 -2.1 32.3 -2.45 32.3 -2.7 32.3 -2.75 32.1 L-2.75 31.85 Q-2.6 30.65 -2.6 30.45 -2.6 30.3 -2.55 30.15 L-2.45 30.0 -2.4 30.0" fill="#f9fbfa" fill-rule="evenodd" stroke="none"/>
      <path d="M0.15 13.5 L0.35 13.45 0.45 15.45 0.55 18.7 0.55 21.4 Q0.55 23.65 0.6 24.85 L0.6 33.05 0.65 35.5 0.65 35.7 0.4 36.05 0.3 36.2 Q0.3 36.0 0.25 36.0 0.2 36.0 0.2 35.95 L-0.35 35.9 -0.35 35.65 -0.4 35.65 -0.9 35.25 Q-0.9 35.2 -0.65 34.85 L-0.45 34.65 Q-0.6 33.9 -0.85 33.05 -1.35 31.2 -1.35 30.8 L-0.9 28.85 -0.9 28.8 Q-1.1 27.3 -1.1 25.9 -0.9 25.8 -0.55 25.6 -0.05 25.25 -0.05 24.95 -0.05 24.75 -0.05 24.7 L-0.1 24.65 -0.35 24.6 -0.7 24.55 -1.2 24.6 Q-1.15 23.2 -0.6 23.0 L-0.7 21.4 -0.75 20.35 -0.75 20.55 -1.0 20.6 -1.65 20.45 -1.7 20.0 Q-1.2 19.25 -0.8 18.85 L-0.85 17.55 -0.8 14.9 -0.85 14.9 Q-1.35 14.9 -1.5 14.5 L-1.6 14.2 -1.55 14.0 -0.1 13.95 0.1 13.85 0.2 13.65 0.15 13.5 M0.3 31.15 Q0.3 31.1 0.2 30.9 0.1 30.7 -0.1 30.5 L-0.4 30.85 Q-0.65 31.15 -0.65 31.3 -0.65 31.7 -0.25 31.9 0.3 31.45 0.3 31.15" fill="#aec8b9" fill-rule="evenodd" stroke="none"/>
      <path d="M0.3 -62.35 L0.95 -62.4 1.3 -62.45 1.8 -62.45 1.85 -62.4 Q2.15 -62.35 2.4 -62.25 L2.6 -62.2 2.95 -61.8 Q3.15 -61.5 3.25 -61.15 L3.65 -60.5 Q3.75 -60.3 3.8 -59.55 L3.85 -59.1 3.95 -59.0 4.1 -58.8 4.45 -58.6 Q5.15 -58.3 5.3 -58.15 5.4 -58.05 5.95 -57.35 L6.2 -57.05 6.35 -56.85 6.3 -56.85 6.35 -56.6 6.4 -56.6 Q6.5 -56.1 6.5 -55.55 L6.45 -55.55 6.45 -55.5 6.5 -55.45 6.5 -55.15 6.4 -54.9 Q6.25 -54.6 6.05 -54.4 5.85 -53.9 5.8 -53.8 5.7 -53.65 5.2 -53.25 L4.9 -53.0 4.85 -52.9 4.8 -52.7 4.8 -52.35 Q4.9 -51.75 4.9 -51.55 L4.6 -50.75 4.55 -50.4 4.5 -50.35 Q3.1 -48.75 0.8 -48.2 0.0 -48.05 -0.9 -47.95 L-1.95 -47.95 -1.7 -48.1 -1.55 -48.2 Q-0.7 -48.85 -0.1 -49.7 2.6 -50.2 3.95 -52.5 4.75 -54.0 4.75 -55.7 4.75 -56.65 4.5 -57.5 4.3 -58.75 3.1 -60.1 2.75 -60.45 2.35 -60.75 L1.35 -61.35 1.3 -61.4 Q1.15 -61.45 1.05 -61.5 L0.95 -61.55 0.75 -61.6 0.3 -62.35 M1.55 -62.9 L1.6 -62.85 1.4 -62.85 1.4 -62.75 0.75 -62.65 0.4 -62.55 0.2 -62.45 -1.05 -62.1 -1.45 -61.85 -1.45 -61.8 -1.5 -61.8 -1.5 -72.95 -1.45 -72.95 Q-0.55 -71.15 -0.1 -70.0 0.45 -68.5 0.9 -66.4 L1.45 -63.5 1.55 -62.9 M0.7 -61.4 Q-0.7 -61.15 -1.75 -60.1 L-2.05 -59.8 -1.8 -59.8 -2.4 -59.7 Q-3.7 -59.45 -4.5 -58.6 -4.85 -58.25 -5.05 -57.95 -5.75 -57.0 -5.75 -55.7 -5.75 -54.55 -5.2 -53.55 -4.3 -51.95 -2.4 -51.65 L-2.0 -51.6 Q-1.35 -50.45 -0.4 -49.85 L-1.4 -49.8 -1.65 -49.8 -2.85 -49.9 Q-5.55 -50.35 -6.85 -52.6 -7.6 -54.05 -7.65 -55.7 -7.65 -57.55 -6.6 -58.9 -6.35 -59.4 -5.85 -59.9 -4.7 -61.1 -2.85 -61.45 L-2.85 -61.5 -2.8 -61.5 -1.65 -61.65 Q-1.15 -61.65 -0.65 -61.65 L-0.15 -61.6 Q0.25 -61.55 0.7 -61.4 M4.05 -59.0 L11.8 -64.4 11.75 -64.4 Q11.1 -62.8 10.55 -61.85 9.85 -60.65 8.7 -59.3 L7.0 -57.45 6.65 -57.05 6.6 -57.15 6.55 -57.15 6.55 -57.2 6.45 -57.15 6.3 -57.35 6.05 -57.65 4.55 -58.8 4.05 -59.0 M12.3 -49.85 Q10.85 -49.6 9.9 -49.5 8.75 -49.5 7.25 -49.7 L5.15 -50.0 4.75 -50.1 4.7 -50.1 4.75 -50.15 4.75 -50.2 4.8 -50.25 4.7 -50.3 4.85 -50.8 5.0 -52.35 4.9 -52.8 Q8.6 -51.3 12.3 -49.85 M6.65 -54.85 L6.7 -54.95 7.15 -54.65 8.8 -53.5 Q10.0 -52.6 10.85 -51.75 11.45 -51.1 12.3 -49.9 L4.95 -52.9 5.3 -53.1 Q5.4 -53.3 6.3 -54.4 L6.45 -54.6 6.55 -54.85 6.65 -54.8 6.65 -54.85 M-0.95 -46.55 L-0.65 -46.55 Q-0.55 -46.5 -0.45 -46.45 L-0.4 -46.4 -0.35 -46.45 0.2 -46.5 0.25 -46.4 0.15 -45.95 0.15 -44.65 0.2 -39.7 -1.0 -39.7 -0.95 -46.3 -0.95 -46.55 M-0.9 -39.65 Q0.1 -39.45 0.85 -39.0 L0.9 -38.95 0.95 -38.95 0.95 -38.9 1.0 -38.9 1.05 -38.85 1.1 -38.85 1.15 -38.8 Q1.45 -38.55 1.75 -38.2 L1.85 -38.1 1.85 -38.05 1.9 -38.05 1.95 -38.0 1.95 -37.95 2.05 -37.85 2.05 -37.8 2.25 -37.45 2.25 -37.05 2.2 -36.45 Q2.15 -36.35 1.95 -35.95 L1.85 -35.75 1.85 -35.55 1.95 -35.3 2.2 -34.8 2.2 -34.35 Q2.3 -34.2 2.3 -34.0 L2.25 -33.6 2.1 -33.3 Q1.6 -32.5 0.85 -32.05 0.45 -31.8 -0.05 -31.65 -0.6 -31.5 -1.2 -31.45 L-1.75 -31.45 -1.65 -31.55 -1.3 -31.8 Q-1.0 -32.05 -0.8 -32.4 -0.35 -32.45 0.0 -32.65 0.55 -32.9 1.0 -33.35 1.2 -33.6 1.4 -33.9 1.8 -34.7 1.8 -35.6 1.8 -36.1 1.65 -36.55 1.55 -37.25 0.95 -37.95 L0.5 -38.3 0.0 -38.65 -0.05 -38.65 -0.15 -38.7 -0.2 -38.7 -0.3 -38.75 Q-0.55 -39.2 -0.9 -39.65 M-0.55 -47.85 L1.3 -47.85 1.15 -47.45 0.95 -47.3 0.95 -47.25 0.6 -46.9 -0.05 -46.9 Q-0.1 -46.9 -0.15 -46.9 L-0.8 -47.0 -0.9 -47.0 -0.9 -47.05 Q-0.7 -47.3 -0.55 -47.85 M7.25 -35.65 L1.9 -35.65 2.05 -35.9 2.35 -36.95 2.4 -37.2 2.4 -37.3 2.45 -37.3 2.45 -37.4 2.5 -37.4 3.05 -37.3 4.15 -37.0 4.6 -36.9 Q5.3 -36.7 5.85 -36.45 6.4 -36.2 7.25 -35.65 M-0.35 -38.65 Q-1.1 -38.5 -1.65 -37.95 L-1.8 -37.8 -1.7 -37.8 -2.0 -37.75 Q-2.7 -37.6 -3.15 -37.15 L-3.4 -36.8 Q-3.8 -36.3 -3.8 -35.6 -3.8 -35.0 -3.5 -34.45 -3.05 -33.6 -2.0 -33.45 L-1.8 -33.4 -1.65 -33.2 Q-1.45 -32.85 -1.15 -32.65 L-0.95 -32.45 -1.6 -32.45 -2.25 -32.5 Q-2.8 -32.6 -3.2 -32.8 -3.8 -33.1 -4.2 -33.65 L-4.4 -33.95 Q-4.8 -34.7 -4.8 -35.6 -4.8 -36.6 -4.25 -37.3 -4.1 -37.6 -3.85 -37.85 -3.25 -38.5 -2.25 -38.7 L-2.2 -38.7 -1.6 -38.8 -1.1 -38.8 -0.8 -38.75 -0.35 -38.65 M3.15 -34.0 L2.5 -33.85 2.45 -33.85 2.45 -33.95 2.4 -34.0 2.35 -34.35 2.05 -35.35 1.9 -35.6 7.25 -35.6 Q6.4 -35.1 5.85 -34.8 5.3 -34.6 4.6 -34.35 L4.15 -34.25 3.15 -34.0 M-1.15 37.15 L-0.5 37.15 0.35 37.2 0.55 37.55 0.6 37.65 0.6 38.75 Q0.55 38.85 0.55 38.9 L0.55 39.05 0.5 41.5 0.55 41.9 0.55 42.2 -1.15 42.2 -1.1 41.15 -1.15 38.8 -1.15 37.15 M-0.9 42.25 Q-0.45 42.35 -0.05 42.45 0.45 42.65 0.85 42.9 L0.9 42.9 1.0 43.0 1.05 43.0 1.15 43.1 Q1.45 43.35 1.75 43.7 L1.8 43.7 1.85 43.75 1.85 43.8 1.95 43.9 1.95 43.95 2.0 43.95 2.0 44.0 2.05 44.05 Q2.75 45.1 2.75 46.35 2.75 47.55 2.1 48.6 1.55 49.45 0.75 49.9 L0.7 49.9 0.6 49.95 0.1 50.0 -0.25 49.9 -0.7 49.9 -1.0 49.75 -0.8 49.5 Q0.7 49.25 1.4 48.0 1.8 47.2 1.8 46.3 1.8 45.75 1.65 45.3 1.55 44.65 0.95 43.95 0.75 43.75 0.5 43.6 0.2 43.35 0.0 43.25 L-0.05 43.25 -0.15 43.2 -0.2 43.15 -0.3 43.1 -0.35 43.05 -0.7 42.55 -0.9 42.25 M-0.95 49.4 L-1.5 49.45 -1.6 49.45 -2.25 49.4 Q-3.7 49.15 -4.4 47.95 -4.8 47.15 -4.8 46.3 -4.8 45.3 -4.25 44.55 -4.1 44.3 -3.85 44.05 -3.25 43.4 -2.25 43.2 L-2.2 43.2 -1.6 43.1 -0.8 43.1 Q-0.6 43.15 -0.35 43.2 -1.1 43.35 -1.65 43.95 L-1.8 44.1 -1.7 44.1 -2.0 44.15 Q-2.7 44.25 -3.15 44.75 L-3.4 45.1 Q-3.8 45.6 -3.8 46.3 -3.8 46.9 -3.5 47.45 -3.05 48.3 -2.0 48.45 L-1.8 48.45 Q-1.45 49.1 -0.95 49.4 M0.2 50.15 L0.25 50.15 0.25 50.2 0.1 50.85 -0.15 51.85 Q-0.4 52.85 -0.7 53.55 -1.0 54.1 -1.5 54.95 L-1.5 49.6 -1.25 49.75 -1.05 49.8 -0.2 50.05 0.15 50.1 0.15 50.15 0.2 50.15 M-1.4 -39.7 L-1.4 -39.7" fill="#600000" fill-rule="evenodd" stroke="none"/>
    </g>
  </defs>
</svg>
