<?xml version="1.0" encoding="UTF-8" standalone="no"?>
<svg xmlns:ffdec="https://www.free-decompiler.com/flash" xmlns:xlink="http://www.w3.org/1999/xlink" ffdec:objectType="frame" height="858.9px" width="108.85px" xmlns="http://www.w3.org/2000/svg">
  <g transform="matrix(1.0, 0.0, 0.0, 1.0, 61.25, 415.1)">
    <use ffdec:characterId="255" height="122.7" transform="matrix(7.0, 0.0, 0.0, 7.0, -61.25, -415.1)" width="15.55" xlink:href="#shape0"/>
  </g>
  <defs>
    <g id="shape0" transform="matrix(1.0, 0.0, 0.0, 1.0, 8.75, 59.3)">
      <path d="M0.45 -40.35 L0.45 -40.3 0.45 -40.35 M-0.15 -32.95 Q-0.5 -32.75 -0.9 -32.75 -2.9 -32.75 -4.15 -34.7 -4.6 -35.35 -4.85 -36.1 L-4.55 -35.85 Q-4.25 -35.55 -3.7 -34.65 -3.25 -33.8 -2.8 -33.4 -2.2 -32.95 -1.3 -32.9 L-1.3 -32.85 -0.7 -32.85 -0.7 -32.9 -0.3 -32.95 -0.15 -32.95 M-2.35 8.75 Q-2.0 9.2 -1.55 9.95 -1.15 10.55 -0.8 11.25 L-0.6 10.85 -0.6 10.0 -0.55 7.5 Q-0.55 5.35 -0.35 -0.35 L-0.15 -5.75 0.0 -8.1 Q0.1 -9.6 0.0 -10.5 L0.0 -15.75 Q-0.3 -16.95 -0.65 -18.85 L-0.65 -22.1 -0.7 -24.25 -0.7 -27.2 Q-0.7 -28.45 -0.65 -29.1 -0.6 -29.6 -0.55 -30.7 -0.35 -31.65 0.5 -32.3 2.15 -33.55 2.7 -35.45 L2.85 -36.1 3.1 -36.2 3.1 -36.05 3.0 -35.5 3.0 -35.35 2.85 -34.85 Q2.45 -33.5 1.4 -32.7 0.9 -32.25 0.65 -31.6 0.45 -31.2 0.35 -30.55 L0.3 -30.35 Q0.2 -29.65 0.15 -28.65 0.1 -27.95 0.1 -24.9 L0.1 -24.25 0.15 -22.5 0.25 -20.35 0.25 -19.8 0.4 -18.2 0.4 -18.1 Q0.55 -17.55 0.95 -16.95 L1.0 -16.6 1.05 -16.85 1.15 -16.65 Q1.6 -16.15 1.95 -16.0 L1.95 -15.0 Q1.25 -9.1 0.85 -2.1 0.7 0.4 0.55 3.05 L0.45 6.5 0.35 8.7 0.35 8.8 0.3 10.9 0.3 11.7 0.25 12.35 0.15 16.7 0.15 16.75 -0.05 17.45 -0.85 19.2 Q-1.2 18.45 -1.55 17.7 L-2.15 16.65 -2.2 14.75 -2.25 10.9 -2.35 8.75" fill="#cccccc" fill-rule="evenodd" stroke="none"/>
      <path d="M0.95 -16.95 L1.05 -16.85 1.0 -16.6 0.95 -16.95" fill="#9cb0a8" fill-rule="evenodd" stroke="none"/>
      <path d="M-0.05 31.4 L-0.05 31.85 -0.15 31.65 -0.05 31.4" fill="#567d76" fill-rule="evenodd" stroke="none"/>
      <path d="M5.15 -59.15 L5.25 -59.3 5.3 -59.25 5.35 -59.15 Q5.75 -58.3 6.05 -56.95 L6.35 -55.2 Q6.8 -52.55 6.8 -50.55 6.8 -47.4 6.05 -42.45 5.8 -40.6 5.5 -39.25 L5.2 -38.3 Q5.0 -38.25 4.7 -38.05 L4.7 -38.1 3.75 -37.55 Q3.3 -37.25 2.95 -36.9 L3.3 -36.95 3.65 -36.95 3.65 -36.3 3.6 -35.8 3.55 -35.35 3.5 -35.2 Q3.4 -34.5 2.8 -33.6 1.85 -32.4 1.4 -31.7 1.1 -31.3 0.9 -29.9 L0.9 -29.75 0.85 -28.5 0.85 -21.55 Q0.9 -20.7 0.95 -19.9 L1.05 -19.55 Q1.05 -19.05 1.05 -18.9 1.2 -17.95 1.95 -17.05 L2.4 -16.55 2.55 -16.35 2.6 -16.35 2.6 -16.05 Q2.55 -14.1 2.35 -11.05 L2.25 -9.95 Q2.15 -7.05 1.95 -5.5 L1.85 -3.55 1.8 -2.1 1.55 3.05 1.5 3.3 Q1.45 5.4 1.4 7.05 1.35 8.1 1.3 10.1 L1.25 10.9 1.1 14.05 Q1.0 16.55 1.0 17.95 1.0 18.15 1.0 18.4 0.85 21.5 0.85 23.7 L0.85 24.25 Q0.8 24.65 0.85 25.0 0.75 26.1 0.75 26.45 0.75 26.95 0.8 27.65 L0.8 28.15 Q0.8 28.55 0.8 28.95 L0.8 32.55 Q0.9 33.35 0.9 35.15 L0.9 38.25 1.0 38.7 1.0 39.6 1.05 39.9 1.0 41.45 Q0.95 43.45 0.95 44.3 L0.85 46.55 0.85 47.2 Q0.7 49.1 0.65 49.85 L0.45 52.75 Q0.2 55.55 0.2 56.25 L0.25 56.65 Q0.2 57.1 0.2 57.6 0.2 58.25 0.4 61.5 L0.35 62.35 Q0.15 62.85 0.0 63.0 -0.3 63.3 -1.0 63.4 -1.65 63.3 -1.95 63.0 -2.15 62.85 -2.35 62.35 L-2.35 61.5 Q-2.15 58.25 -2.15 57.6 -2.15 57.1 -2.25 56.65 L-2.2 56.25 Q-2.2 55.55 -2.4 52.75 L-2.65 49.85 Q-2.65 49.1 -2.8 47.2 L-2.8 46.55 -2.9 44.3 Q-2.9 43.45 -2.95 41.45 L-3.0 39.9 -3.0 39.6 -2.95 38.7 -2.9 38.25 -2.9 35.15 Q-2.85 33.35 -2.75 32.55 L-2.75 28.95 Q-2.75 28.55 -2.8 28.15 L-2.75 27.95 -2.8 27.65 Q-2.75 26.95 -2.75 26.45 -2.75 26.1 -2.8 25.0 -2.8 24.65 -2.8 24.25 L-2.85 23.7 Q-2.85 21.5 -2.95 18.4 -2.95 18.15 -2.95 17.95 -2.95 16.55 -3.1 14.05 L-3.25 10.9 -3.25 10.1 Q-3.3 8.1 -3.35 7.05 -3.4 5.4 -3.5 3.3 L-3.5 3.05 -3.75 -2.1 -3.85 -3.55 -3.95 -5.5 Q-4.15 -7.05 -4.25 -9.95 L-4.3 -11.05 Q-4.5 -14.1 -4.55 -16.0 L-4.55 -16.05 -4.6 -16.25 -4.55 -16.3 -4.55 -16.35 -4.4 -16.55 -3.9 -17.05 Q-3.2 -17.95 -3.05 -18.9 L-2.95 -19.8 Q-2.9 -20.5 -2.9 -21.3 L-2.9 -21.4 -2.85 -21.6 -2.85 -29.9 -2.9 -29.9 Q-3.1 -31.3 -3.4 -31.7 -3.85 -32.4 -4.8 -33.6 -5.4 -34.5 -5.5 -35.2 L-5.5 -35.35 -5.6 -35.8 -5.65 -36.3 -5.65 -36.95 -5.3 -36.95 -4.85 -36.85 Q-5.25 -37.2 -5.7 -37.55 -6.15 -37.85 -6.65 -38.1 L-6.65 -38.05 Q-6.9 -38.25 -7.15 -38.3 L-7.45 -39.25 Q-7.7 -40.6 -8.0 -42.45 -8.75 -47.4 -8.75 -50.55 -8.75 -52.55 -8.3 -55.2 L-8.0 -56.95 Q-7.7 -58.3 -7.3 -59.15 L-7.25 -59.25 -7.2 -59.3 -7.1 -59.15 Q-6.95 -58.95 -6.6 -58.05 -6.1 -56.65 -5.55 -54.65 L-4.85 -52.05 -4.15 -49.4 Q-3.6 -47.65 -2.65 -44.15 L-1.55 -40.35 -0.4 -40.35 0.7 -44.15 Q1.65 -47.65 2.2 -49.4 L2.9 -52.05 3.65 -54.65 Q4.15 -56.65 4.7 -58.05 5.0 -58.95 5.15 -59.15 M5.35 -57.6 L5.35 -57.65 5.25 -58.15 Q4.85 -56.3 3.15 -50.4 1.25 -43.7 -0.05 -40.3 L0.0 -40.3 0.4 -40.2 0.45 -40.3 0.45 -40.35 0.5 -40.4 1.05 -41.75 1.1 -41.85 1.85 -43.7 Q4.4 -49.95 6.0 -53.55 L5.85 -54.85 5.7 -56.35 5.5 -57.1 5.35 -57.6 M6.15 -51.55 L6.05 -52.8 6.05 -53.0 Q5.5 -51.5 3.1 -45.75 L0.75 -40.1 0.7 -40.05 0.75 -40.0 Q1.15 -39.8 1.45 -39.45 L2.05 -40.55 2.9 -42.1 6.05 -47.85 Q6.2 -49.45 6.2 -50.55 L6.15 -51.55 M5.9 -46.1 L6.0 -47.1 Q4.9 -44.9 3.25 -42.0 L2.45 -40.55 2.25 -40.25 1.75 -39.35 1.65 -39.25 1.75 -39.15 Q2.05 -38.8 2.2 -38.45 L2.75 -39.15 2.8 -39.2 Q4.25 -40.85 5.3 -41.8 L5.45 -42.65 Q5.7 -44.55 5.9 -46.1 M5.2 -40.95 L5.3 -41.5 5.3 -41.55 Q4.0 -39.85 3.05 -38.75 L2.95 -38.6 2.9 -38.6 2.4 -38.0 Q2.5 -37.65 2.5 -37.35 L2.5 -37.2 2.6 -37.3 3.2 -37.85 Q3.45 -38.0 3.7 -38.2 4.3 -38.6 4.85 -38.8 L5.2 -40.95 M0.95 -36.4 L1.0 -36.25 1.15 -35.25 Q1.05 -34.7 0.8 -34.25 1.3 -34.7 1.45 -35.25 1.5 -35.55 1.75 -35.9 L1.8 -36.0 Q1.9 -36.35 1.9 -37.0 1.9 -37.2 1.75 -37.6 L1.7 -37.9 1.6 -38.15 Q0.85 -39.5 -1.0 -39.6 -1.5 -39.55 -1.9 -39.45 -3.0 -39.1 -3.5 -38.15 L-3.65 -37.9 -3.7 -37.6 Q-3.8 -37.2 -3.8 -37.0 -3.8 -36.25 -3.75 -35.9 L-3.7 -35.9 Q-3.5 -35.55 -3.45 -35.25 -3.3 -34.65 -2.7 -34.15 -3.2 -34.8 -3.2 -35.45 -3.2 -36.55 -2.5 -37.2 -1.9 -37.8 -1.0 -37.75 -0.15 -37.7 0.5 -37.1 0.75 -36.8 0.95 -36.4 M2.85 -36.1 L2.55 -35.85 Q2.25 -35.55 1.7 -34.65 1.25 -33.8 0.8 -33.4 0.4 -33.1 -0.15 -32.95 L-0.3 -32.95 -0.7 -32.9 -0.7 -32.85 -1.3 -32.85 -1.3 -32.9 Q-2.2 -32.95 -2.8 -33.4 -3.25 -33.8 -3.7 -34.65 -4.25 -35.55 -4.55 -35.85 L-4.85 -36.1 -5.05 -36.2 -5.1 -36.05 -5.0 -35.5 -5.0 -35.35 -4.85 -34.85 Q-4.45 -33.5 -3.4 -32.7 -2.9 -32.25 -2.6 -31.6 -2.45 -31.2 -2.35 -30.55 L-2.3 -30.35 Q-2.15 -29.65 -2.1 -28.65 -2.1 -27.95 -2.1 -24.9 L-2.1 -24.25 -2.15 -22.5 -2.2 -20.35 Q-2.25 -19.05 -2.4 -18.1 -2.55 -17.4 -3.15 -16.65 -3.55 -16.15 -3.9 -16.0 L-3.9 -15.2 -3.85 -14.75 Q-3.2 -8.95 -2.8 -2.1 -2.65 0.4 -2.55 3.05 L-2.4 6.5 -2.35 8.75 -2.25 10.9 -2.2 14.75 -2.15 16.65 -2.1 17.8 -2.1 20.4 -2.05 20.5 -2.05 20.55 -2.0 24.95 -2.0 25.4 -1.9 30.2 -1.9 31.15 -2.05 37.45 -2.1 38.4 Q-2.2 41.1 -1.9 47.45 L-1.9 47.65 -1.8 49.5 -1.7 51.45 -1.55 55.45 Q-1.5 57.3 -1.55 58.25 L-1.55 60.8 Q-1.6 61.25 -1.7 61.65 L-1.7 61.85 Q-1.7 62.1 -1.6 62.3 -1.45 62.7 -1.0 62.7 L-0.95 62.7 Q-0.5 62.7 -0.35 62.3 -0.3 62.1 -0.3 61.85 L-0.3 61.65 Q-0.4 61.25 -0.4 60.8 -0.4 59.05 -0.45 58.25 L-0.4 55.45 -0.3 52.85 -0.1 47.6 -0.05 47.45 0.1 43.4 Q0.25 39.2 0.1 37.45 L-0.05 31.85 -0.05 31.4 -0.1 31.15 -0.05 30.65 0.0 25.2 0.1 21.75 0.1 21.3 0.15 18.8 0.15 16.75 0.15 16.7 0.25 12.35 0.3 11.7 0.3 10.9 0.35 8.8 0.35 8.7 0.45 6.5 0.55 3.05 Q0.7 0.4 0.85 -2.1 1.25 -9.1 1.95 -15.0 L1.95 -16.0 Q1.6 -16.15 1.15 -16.65 L1.05 -16.85 0.95 -16.95 Q0.55 -17.55 0.4 -18.1 L0.4 -18.2 0.25 -19.8 0.25 -20.35 0.15 -22.5 0.1 -24.25 0.1 -24.9 Q0.1 -27.95 0.15 -28.65 0.2 -29.65 0.3 -30.35 L0.35 -30.55 Q0.45 -31.2 0.65 -31.6 0.9 -32.25 1.4 -32.7 2.45 -33.5 2.85 -34.85 L3.0 -35.35 3.0 -35.5 3.1 -36.05 3.1 -36.2 2.85 -36.1 M-0.4 -35.95 Q-0.2 -35.85 -0.1 -35.75 0.35 -35.35 0.35 -34.7 0.35 -34.3 0.3 -34.0 L0.45 -34.25 Q0.85 -34.8 0.85 -35.25 0.85 -36.15 0.25 -36.75 -0.25 -37.3 -1.0 -37.35 -1.7 -37.4 -2.2 -37.0 L-2.25 -36.95 Q-2.8 -36.45 -2.8 -35.45 -2.8 -35.15 -2.7 -34.85 -2.65 -34.55 -2.45 -34.25 L-2.35 -34.1 -2.4 -34.5 Q-2.4 -35.25 -2.0 -35.65 -1.6 -36.05 -1.05 -36.05 -0.65 -36.1 -0.4 -35.95 M-2.15 -40.25 L-1.9 -40.3 Q-3.2 -43.7 -5.1 -50.4 -6.8 -56.3 -7.2 -58.15 L-7.35 -57.45 -7.45 -57.1 -7.6 -56.35 -7.8 -54.85 -7.95 -53.55 Q-6.35 -49.95 -3.75 -43.7 L-2.35 -40.2 -2.15 -40.25 M-8.1 -51.75 L-8.15 -50.55 Q-8.15 -49.45 -8.0 -47.85 -7.15 -46.25 -4.85 -42.1 -4.05 -40.7 -3.4 -39.45 -3.15 -39.75 -2.8 -39.95 L-2.65 -40.05 Q-3.65 -42.3 -5.05 -45.75 -7.45 -51.5 -8.0 -53.0 L-8.1 -51.75 M-3.75 -39.1 L-3.6 -39.25 -5.2 -42.0 Q-6.85 -44.9 -7.95 -47.1 L-7.9 -47.05 -7.9 -46.6 -7.85 -46.45 Q-7.7 -44.75 -7.4 -42.65 L-7.25 -41.8 Q-6.15 -40.85 -4.7 -39.15 L-4.15 -38.45 Q-4.0 -38.75 -3.75 -39.1 M-7.15 -41.15 L-6.75 -38.8 Q-6.25 -38.6 -5.65 -38.2 -5.0 -37.8 -4.55 -37.3 L-4.45 -37.2 -4.45 -37.35 Q-4.45 -37.65 -4.35 -38.0 L-5.0 -38.75 -5.85 -39.8 -5.85 -39.75 -5.9 -39.8 -7.1 -41.35 -7.25 -41.55 -7.15 -41.15 M-1.05 -35.8 Q-1.45 -35.8 -1.7 -35.5 -2.0 -35.2 -2.0 -34.55 -2.0 -34.15 -1.9 -33.9 -1.75 -33.7 -1.55 -33.6 L-1.0 -33.55 -0.65 -33.6 -0.55 -33.6 -0.7 -33.55 Q-0.3 -33.65 -0.15 -34.1 -0.05 -34.4 -0.05 -34.7 -0.05 -35.15 -0.4 -35.5 -0.65 -35.75 -1.05 -35.8" fill="#111111" fill-rule="evenodd" stroke="none"/>
      <path d="M2.05 -40.55 L1.45 -39.45 Q1.15 -39.8 0.75 -40.0 L0.7 -40.05 0.75 -40.1 3.1 -45.75 Q5.5 -51.5 6.05 -53.0 L6.05 -52.8 6.15 -51.55 Q6.0 -51.2 5.2 -49.6 4.85 -48.95 4.35 -47.75 L3.5 -45.8 Q2.45 -43.25 1.85 -42.0 L1.35 -41.1 1.45 -41.05 Q1.8 -40.8 2.05 -40.55 M2.45 -40.55 L3.25 -42.0 Q4.9 -44.9 6.0 -47.1 L5.9 -46.1 4.3 -43.5 2.45 -40.55 M2.8 -39.2 L2.75 -39.15 2.2 -38.45 Q2.05 -38.8 1.75 -39.15 L1.65 -39.25 1.75 -39.35 2.25 -40.25 Q2.65 -39.7 2.8 -39.2 M3.2 -37.85 L2.6 -37.3 2.5 -37.2 2.5 -37.35 Q2.5 -37.65 2.4 -38.0 L2.9 -38.6 2.95 -38.6 3.05 -38.75 Q4.0 -39.85 5.3 -41.55 L5.3 -41.5 5.2 -40.95 4.75 -40.45 Q3.85 -39.45 3.1 -38.7 3.2 -38.35 3.25 -37.85 L3.2 -37.85 M-2.2 -37.0 L-1.7 -36.9 Q-1.1 -36.75 -0.65 -36.3 L-0.4 -35.95 Q-0.65 -36.1 -1.05 -36.05 -1.6 -36.05 -2.0 -35.65 -2.4 -35.25 -2.4 -34.5 L-2.35 -34.1 -2.45 -34.25 Q-2.65 -34.55 -2.7 -34.85 -2.8 -35.15 -2.8 -35.45 -2.8 -36.45 -2.25 -36.95 L-2.2 -37.0 M-2.8 -39.95 Q-3.1 -40.55 -3.55 -41.5 L-5.3 -45.65 -7.15 -49.7 -8.1 -51.75 -8.0 -53.0 Q-7.45 -51.5 -5.05 -45.75 -3.65 -42.3 -2.65 -40.05 L-2.8 -39.95 M-3.75 -39.1 Q-4.5 -40.25 -5.9 -42.8 L-7.85 -46.45 -7.9 -46.6 -7.9 -47.05 -7.95 -47.1 Q-6.85 -44.9 -5.2 -42.0 L-3.6 -39.25 -3.75 -39.1 M-5.85 -39.8 Q-6.7 -40.65 -7.15 -41.15 L-7.25 -41.55 -7.1 -41.35 -5.9 -39.8 -5.85 -39.75 -5.85 -39.8" fill="#0070e0" fill-rule="evenodd" stroke="none"/>
      <path d="M6.15 -51.55 L6.2 -50.55 Q6.2 -49.45 6.05 -47.85 L2.9 -42.1 2.05 -40.55 Q1.8 -40.8 1.45 -41.05 L1.35 -41.1 1.85 -42.0 Q2.45 -43.25 3.5 -45.8 L4.35 -47.75 Q4.85 -48.95 5.2 -49.6 6.0 -51.2 6.15 -51.55 M5.9 -46.1 Q5.7 -44.55 5.45 -42.65 L5.3 -41.8 Q4.25 -40.85 2.8 -39.2 2.65 -39.7 2.25 -40.25 L2.45 -40.55 4.3 -43.5 5.9 -46.1 M3.2 -37.85 L3.25 -37.85 Q3.2 -38.35 3.1 -38.7 3.85 -39.45 4.75 -40.45 L5.2 -40.95 4.85 -38.8 Q4.3 -38.6 3.7 -38.2 3.45 -38.0 3.2 -37.85 M-2.2 -37.0 Q-1.7 -37.4 -1.0 -37.35 -0.25 -37.3 0.25 -36.75 0.85 -36.15 0.85 -35.25 0.85 -34.8 0.45 -34.25 L0.3 -34.0 Q0.35 -34.3 0.35 -34.7 0.35 -35.35 -0.1 -35.75 -0.2 -35.85 -0.4 -35.95 L-0.65 -36.3 Q-1.1 -36.75 -1.7 -36.9 L-2.2 -37.0 M-8.1 -51.75 L-7.15 -49.7 -5.3 -45.65 -3.55 -41.5 Q-3.1 -40.55 -2.8 -39.95 -3.15 -39.75 -3.4 -39.45 -4.05 -40.7 -4.85 -42.1 -7.15 -46.25 -8.0 -47.85 -8.15 -49.45 -8.15 -50.55 L-8.1 -51.75 M-7.85 -46.45 L-5.9 -42.8 Q-4.5 -40.25 -3.75 -39.1 -4.0 -38.75 -4.15 -38.45 L-4.7 -39.15 Q-6.15 -40.85 -7.25 -41.8 L-7.4 -42.65 Q-7.7 -44.75 -7.85 -46.45 M-5.85 -39.8 L-5.0 -38.75 -4.35 -38.0 Q-4.45 -37.65 -4.45 -37.35 L-4.45 -37.2 -4.55 -37.3 Q-5.0 -37.8 -5.65 -38.2 -6.25 -38.6 -6.75 -38.8 L-7.15 -41.15 Q-6.7 -40.65 -5.85 -39.8" fill="#80c0f0" fill-rule="evenodd" stroke="none"/>
      <path d="M0.45 -40.3 L0.4 -40.2 0.0 -40.3 -0.05 -40.3 Q1.25 -43.7 3.15 -50.4 4.85 -56.3 5.25 -58.15 L5.35 -57.65 5.35 -57.6 4.9 -55.7 Q3.9 -51.75 3.35 -49.95 L2.7 -47.4 Q2.3 -45.85 1.9 -44.9 1.7 -44.5 1.1 -42.35 L1.0 -42.0 Q1.05 -42.0 1.1 -41.85 L1.05 -41.75 0.5 -40.4 0.45 -40.35 0.45 -40.3 M-1.9 -39.45 Q-1.5 -39.55 -1.0 -39.6 0.85 -39.5 1.6 -38.15 L1.7 -37.9 1.75 -37.6 Q1.9 -37.2 1.9 -37.0 1.9 -36.35 1.8 -36.0 L1.75 -35.9 Q1.5 -35.55 1.45 -35.25 1.3 -34.7 0.8 -34.25 1.05 -34.7 1.15 -35.25 L1.0 -36.25 0.95 -36.4 0.95 -36.8 Q0.95 -37.45 0.45 -38.25 -0.3 -39.45 -1.75 -39.45 L-1.9 -39.45 M-7.35 -57.45 L-7.2 -58.15 Q-6.8 -56.3 -5.1 -50.4 -3.2 -43.7 -1.9 -40.3 L-2.15 -40.25 Q-2.5 -41.1 -2.95 -42.3 -3.35 -43.4 -5.05 -48.35 -5.4 -49.4 -6.4 -53.3 -7.15 -56.25 -7.35 -57.45" fill="#600000" fill-rule="evenodd" stroke="none"/>
      <path d="M5.35 -57.6 L5.5 -57.1 5.7 -56.35 5.85 -54.85 6.0 -53.55 Q4.4 -49.95 1.85 -43.7 L1.1 -41.85 Q1.05 -42.0 1.0 -42.0 L1.1 -42.35 Q1.7 -44.5 1.9 -44.9 2.3 -45.85 2.7 -47.4 L3.35 -49.95 Q3.9 -51.75 4.9 -55.7 L5.35 -57.6 M0.95 -36.4 Q0.75 -36.8 0.5 -37.1 -0.15 -37.7 -1.0 -37.75 -1.9 -37.8 -2.5 -37.2 -3.2 -36.55 -3.2 -35.45 -3.2 -34.8 -2.7 -34.15 -3.3 -34.65 -3.45 -35.25 -3.5 -35.55 -3.7 -35.9 L-3.75 -35.9 Q-3.8 -36.25 -3.8 -37.0 -3.8 -37.2 -3.7 -37.6 L-3.65 -37.9 -3.5 -38.15 Q-3.0 -39.1 -1.9 -39.45 L-1.75 -39.45 Q-0.3 -39.45 0.45 -38.25 0.95 -37.45 0.95 -36.8 L0.95 -36.4 M-2.15 -40.25 L-2.35 -40.2 -3.75 -43.7 Q-6.35 -49.95 -7.95 -53.55 L-7.8 -54.85 -7.6 -56.35 -7.45 -57.1 -7.35 -57.45 Q-7.15 -56.25 -6.4 -53.3 -5.4 -49.4 -5.05 -48.35 -3.35 -43.4 -2.95 -42.3 -2.5 -41.1 -2.15 -40.25" fill="#b00000" fill-rule="evenodd" stroke="none"/>
      <path d="M-0.15 -32.95 Q0.4 -33.1 0.8 -33.4 1.25 -33.8 1.7 -34.65 2.25 -35.55 2.55 -35.85 L2.85 -36.1 2.7 -35.45 Q2.15 -33.55 0.5 -32.3 -0.35 -31.65 -0.55 -30.7 -0.6 -29.6 -0.65 -29.1 -0.7 -28.45 -0.7 -27.2 L-0.7 -24.25 -0.65 -22.1 -0.65 -18.85 Q-0.3 -16.95 0.0 -15.75 L0.0 -10.5 Q0.1 -9.6 0.0 -8.1 L-0.15 -5.75 -0.35 -0.35 Q-0.55 5.35 -0.55 7.5 L-0.6 10.0 -0.6 10.85 -0.8 11.25 Q-1.15 10.55 -1.55 9.95 -2.0 9.2 -2.35 8.75 L-2.4 6.5 -2.55 3.05 Q-2.65 0.4 -2.8 -2.1 -3.2 -8.95 -3.85 -14.75 L-3.9 -15.2 -3.9 -16.0 Q-3.55 -16.15 -3.15 -16.65 -2.55 -17.4 -2.4 -18.1 -2.25 -19.05 -2.2 -20.35 L-2.15 -22.5 -2.1 -24.25 -2.1 -24.9 Q-2.1 -27.95 -2.1 -28.65 -2.15 -29.65 -2.3 -30.35 L-2.35 -30.55 Q-2.45 -31.2 -2.6 -31.6 -2.9 -32.25 -3.4 -32.7 -4.45 -33.5 -4.85 -34.85 L-5.0 -35.35 -5.0 -35.5 -5.1 -36.05 -5.05 -36.2 -4.85 -36.1 Q-4.6 -35.35 -4.15 -34.7 -2.9 -32.75 -0.9 -32.75 -0.5 -32.75 -0.15 -32.95" fill="#f0f0f0" fill-rule="evenodd" stroke="none"/>
      <path d="M0.15 16.75 L0.15 18.8 0.1 21.3 0.1 21.75 0.0 25.2 -0.1 25.55 -0.35 26.2 Q-0.5 26.65 -0.95 27.6 L-1.05 27.75 -1.4 26.7 -2.0 25.25 -2.0 25.4 -2.0 24.95 -2.05 20.55 -2.05 20.5 -2.1 20.4 -2.1 17.8 -2.15 16.65 -1.55 17.7 Q-1.2 18.45 -0.85 19.2 L-0.05 17.45 0.15 16.75" fill="#a5a5a5" fill-rule="evenodd" stroke="none"/>
      <path d="M0.0 25.2 L-0.05 30.65 -0.1 31.15 -0.05 31.4 -0.15 31.65 -0.05 31.85 0.1 37.45 Q0.25 39.2 0.1 43.4 L-0.05 47.45 -0.1 47.6 -0.3 52.85 -0.4 55.45 -0.45 58.25 Q-0.4 59.05 -0.4 60.8 -0.4 61.25 -0.3 61.65 L-0.3 61.85 Q-0.3 62.1 -0.35 62.3 -0.5 62.7 -0.95 62.7 L-1.0 62.7 Q-1.45 62.7 -1.6 62.3 -1.7 62.1 -1.7 61.85 L-1.7 61.65 Q-1.6 61.25 -1.55 60.8 L-1.55 58.25 Q-1.5 57.3 -1.55 55.45 L-1.7 51.45 -1.8 49.5 -1.9 47.65 -1.9 47.45 Q-2.2 41.1 -2.1 38.4 L-2.05 37.45 -1.9 31.15 -1.9 30.2 -2.0 25.4 -2.0 25.25 -1.4 26.7 -1.05 27.75 -0.95 27.6 Q-0.5 26.65 -0.35 26.2 L-0.1 25.55 0.0 25.2" fill="#727272" fill-rule="evenodd" stroke="none"/>
    </g>
  </defs>
</svg>
