<?xml version="1.0" encoding="UTF-8" standalone="no"?>
<svg xmlns:ffdec="https://www.free-decompiler.com/flash" xmlns:xlink="http://www.w3.org/1999/xlink" ffdec:objectType="frame" height="977.55px" width="170.45px" xmlns="http://www.w3.org/2000/svg">
  <g transform="matrix(1.0, 0.0, 0.0, 1.0, 95.2, 544.95)">
    <use ffdec:characterId="734" height="139.65" transform="matrix(7.0, 0.0, 0.0, 7.0, -95.2, -544.95)" width="24.35" xlink:href="#shape0"/>
  </g>
  <defs>
    <g id="shape0" transform="matrix(1.0, 0.0, 0.0, 1.0, 13.6, 77.85)">
      <path d="M4.75 -71.7 Q4.9 -71.65 4.95 -71.5 5.45 -71.1 6.25 -69.85 L6.95 -68.65 Q8.0 -66.8 8.8 -64.9 L9.1 -64.15 Q10.0 -61.75 10.25 -59.7 10.4 -58.75 10.45 -57.45 10.7 -55.95 10.7 -54.85 L10.75 -54.35 10.7 -53.15 Q10.7 -52.05 10.45 -50.55 L10.4 -49.2 10.25 -48.3 Q10.1 -46.95 9.65 -45.45 L9.1 -43.85 8.8 -43.1 Q8.25 -41.75 7.55 -40.4 L7.4 -40.15 Q6.85 -39.15 6.25 -38.15 5.45 -36.9 4.95 -36.5 4.9 -36.35 4.75 -36.3 L4.65 -36.3 Q4.25 -36.15 4.2 -36.95 L4.2 -37.05 Q4.05 -37.4 3.95 -37.85 L3.85 -38.65 3.2 -41.85 2.55 -44.8 2.45 -45.2 2.4 -45.45 Q1.9 -47.9 1.9 -48.3 L1.9 -48.5 1.75 -48.55 Q2.6 -49.25 2.85 -49.55 3.15 -49.95 3.15 -50.5 3.2 -50.85 3.05 -51.2 2.7 -51.85 1.7 -51.85 1.3 -51.85 0.95 -51.6 0.85 -51.0 0.8 -50.2 L0.8 -45.45 0.75 -44.8 0.9 -44.1 1.15 -42.45 Q1.15 -41.7 1.15 -41.65 1.1 -41.45 1.05 -41.3 L1.05 -41.2 1.1 -40.65 1.05 -40.4 1.05 -40.15 1.45 -40.15 1.45 -40.0 Q1.45 -39.55 1.2 -39.0 1.2 -38.8 1.15 -38.65 L1.15 -38.45 Q1.15 -37.7 1.05 -37.3 0.95 -36.95 0.8 -36.65 L0.8 -36.55 0.7 -36.55 Q0.75 -35.25 0.7 -33.5 L0.55 -33.45 0.5 -33.35 0.75 -31.1 0.75 -28.75 Q0.9 -28.65 0.95 -28.3 L0.95 -28.25 0.9 -27.65 0.95 -27.55 Q0.9 -27.2 1.0 -26.65 1.0 -26.05 0.95 -25.7 0.9 -25.45 0.8 -25.3 L0.7 -25.15 0.7 -25.05 Q0.85 -24.95 0.85 -24.75 L0.8 -24.45 0.9 -24.45 Q0.75 -23.65 0.8 -22.4 0.8 -21.9 0.85 -21.5 0.75 -21.2 0.65 -21.0 L0.7 -20.95 0.75 -20.55 0.65 -20.5 0.65 -18.8 0.6 -17.4 0.45 -17.35 0.4 -17.2 Q0.5 -16.5 0.6 -15.0 L0.6 -12.8 Q0.75 -12.65 0.75 -12.3 L0.75 -11.75 Q0.95 -11.4 0.95 -11.25 L0.95 -10.6 0.8 -9.8 0.8 -9.65 0.75 -9.6 1.05 -9.6 1.05 -8.6 0.95 -8.4 Q1.0 -8.4 1.0 -8.35 1.2 -8.2 1.2 -8.0 1.2 -7.8 1.15 -7.65 1.15 -7.4 1.0 -7.0 L0.95 -6.7 0.75 -6.0 Q0.7 -6.0 0.7 -5.95 0.75 -5.65 0.8 -5.55 L0.7 -5.55 Q0.75 -4.25 0.7 -2.55 L0.55 -2.5 0.5 -2.35 0.75 -0.1 0.75 2.25 Q0.9 2.35 0.95 2.7 L0.9 3.35 0.95 3.45 Q0.9 3.8 1.0 4.35 L0.95 4.95 Q0.95 5.45 0.8 5.7 L0.7 5.8 0.7 5.9 Q0.85 6.05 0.85 6.25 L0.8 6.55 0.9 6.55 Q0.75 7.35 0.8 8.6 0.8 9.1 0.85 9.5 0.75 9.8 0.65 10.0 L0.7 10.05 0.75 10.45 0.65 10.5 0.6 13.6 0.55 13.75 Q0.5 13.85 0.4 13.9 0.5 14.65 0.6 16.0 L0.6 18.2 Q0.75 18.35 0.75 18.7 L0.75 19.25 Q0.95 19.6 0.95 19.75 L0.95 20.35 0.8 21.2 0.8 21.25 1.05 21.25 1.05 22.25 0.95 22.45 1.0 22.45 Q1.2 22.65 1.2 22.85 1.2 23.05 1.15 23.2 1.15 23.5 0.95 24.15 L0.75 24.85 Q0.7 24.85 0.7 24.9 0.75 25.2 0.8 25.25 L0.7 25.3 Q0.75 26.6 0.7 28.3 L0.55 28.35 0.5 28.5 0.75 30.75 0.75 33.1 Q0.9 33.2 0.95 33.55 L0.9 34.2 0.95 34.3 Q0.9 34.65 1.0 35.2 1.0 35.8 0.9 36.2 0.85 36.4 0.8 36.55 L0.7 36.65 0.7 36.75 Q0.85 36.85 0.85 37.1 L0.8 37.4 0.9 37.4 Q0.75 38.2 0.8 39.45 0.8 39.95 0.85 40.35 0.75 40.65 0.65 40.85 L0.7 40.9 0.75 41.3 0.65 41.3 0.6 44.45 0.45 44.5 0.4 44.6 Q0.5 45.35 0.6 46.85 L0.6 49.05 Q0.75 49.2 0.75 49.5 L0.75 50.1 Q0.95 50.45 0.95 50.6 L0.95 51.2 0.8 52.05 0.8 52.15 0.75 52.25 0.7 52.5 0.7 52.75 0.65 52.85 0.65 52.9 0.5 52.9 0.35 53.05 0.3 53.15 0.3 54.2 0.2 55.2 0.15 55.8 Q0.0 56.8 -0.15 57.9 -0.3 58.9 -0.95 60.95 L-1.4 61.8 -1.45 61.75 Q-2.35 60.35 -2.85 58.05 -3.05 56.75 -3.05 56.1 L-3.1 55.2 -3.25 54.2 -3.25 53.2 -3.3 52.9 -3.3 52.85 Q-3.4 52.8 -3.55 52.75 -3.75 52.65 -3.7 52.55 L-3.75 52.5 -3.75 52.45 Q-3.75 52.4 -3.8 52.3 -3.85 52.2 -3.85 51.85 L-3.9 51.6 -3.9 50.95 Q-3.9 50.85 -3.7 50.5 L-3.55 50.35 -3.55 49.6 -3.65 49.1 -3.65 48.75 -3.75 48.15 Q-3.7 47.7 -3.5 47.5 L-3.35 47.5 -3.45 47.15 Q-3.65 47.15 -3.6 47.05 L-3.65 45.5 -3.65 44.2 Q-3.85 44.15 -3.8 43.65 L-3.75 42.5 -3.7 42.1 Q-3.75 42.05 -3.7 42.05 -3.9 41.1 -3.9 40.7 -3.9 40.5 -3.7 40.25 L-3.8 40.2 Q-3.85 39.95 -3.85 39.6 L-3.8 39.0 -3.95 38.4 -3.95 37.35 -3.8 37.2 Q-3.8 36.7 -3.65 36.6 L-3.65 36.15 -3.9 35.5 Q-3.8 34.95 -3.85 34.6 L-3.7 34.45 -3.7 34.25 Q-3.65 33.8 -3.8 33.1 L-3.85 32.35 -3.85 32.1 Q-3.8 31.6 -3.6 31.45 -3.55 31.4 -3.45 31.45 L-3.55 31.05 Q-3.75 31.0 -3.7 30.95 L-3.75 29.35 -3.7 28.15 -3.7 28.1 Q-3.85 28.0 -3.9 27.55 -3.85 27.5 -3.8 26.45 -3.7 26.2 -3.75 26.05 L-3.75 26.0 Q-3.9 25.05 -3.9 24.7 L-3.75 24.4 -3.8 24.2 Q-4.0 23.55 -4.0 23.3 -4.0 22.9 -3.9 22.2 L-3.9 21.35 -3.85 21.25 -3.85 20.1 Q-3.9 20.0 -3.7 19.7 L-3.55 19.5 -3.5 19.3 Q-3.55 18.95 -3.65 18.25 L-3.75 17.3 Q-3.7 16.85 -3.5 16.65 L-3.35 16.65 -3.45 16.3 Q-3.65 16.3 -3.6 16.2 L-3.65 14.7 -3.65 13.5 -3.75 13.3 Q-3.85 13.2 -3.8 12.85 L-3.75 11.65 -3.7 11.25 Q-3.75 11.25 -3.7 11.2 -3.9 10.25 -3.9 9.85 -3.9 9.65 -3.7 9.4 L-3.8 9.35 Q-3.85 9.1 -3.85 8.75 L-3.8 8.15 -3.95 7.55 -3.95 6.5 -3.8 6.35 Q-3.8 5.85 -3.65 5.75 L-3.65 5.3 -3.8 4.95 -3.9 4.7 Q-3.8 4.1 -3.85 3.75 L-3.7 3.6 -3.7 3.4 Q-3.65 3.0 -3.8 2.25 L-3.85 1.5 -3.85 1.25 Q-3.85 0.9 -3.7 0.7 L-3.6 0.6 Q-3.55 0.55 -3.45 0.6 L-3.55 0.2 Q-3.75 0.15 -3.7 0.1 L-3.75 -1.5 -3.7 -2.7 -3.7 -2.75 Q-3.85 -2.85 -3.9 -3.3 -3.85 -3.35 -3.8 -4.4 -3.7 -4.65 -3.75 -4.8 L-3.75 -4.85 Q-3.9 -5.8 -3.9 -6.15 L-3.75 -6.45 -3.8 -6.65 -3.9 -7.0 Q-4.0 -7.35 -4.0 -7.55 -4.0 -7.95 -3.9 -8.65 L-3.9 -9.5 -3.85 -9.6 Q-3.9 -9.9 -3.85 -10.9 L-3.8 -11.1 -3.7 -11.3 Q-3.6 -11.45 -3.55 -11.5 -3.5 -11.6 -3.5 -11.7 -3.55 -12.05 -3.65 -12.75 L-3.75 -13.7 Q-3.7 -14.15 -3.5 -14.35 L-3.35 -14.3 -3.45 -14.7 Q-3.65 -14.7 -3.6 -14.75 L-3.65 -16.3 -3.65 -17.6 Q-3.85 -17.7 -3.8 -18.15 L-3.8 -18.8 -3.75 -19.35 -3.7 -19.75 Q-3.75 -19.75 -3.7 -19.8 L-3.75 -19.9 -3.75 -20.0 -3.9 -21.0 -3.9 -21.1 Q-3.9 -21.35 -3.7 -21.55 L-3.8 -21.6 Q-3.85 -21.85 -3.85 -22.25 L-3.8 -22.85 -3.95 -23.45 -3.95 -24.5 -3.8 -24.6 Q-3.8 -25.15 -3.65 -25.25 L-3.65 -25.65 -3.7 -25.7 -3.9 -26.3 Q-3.8 -26.9 -3.85 -27.2 L-3.7 -27.35 -3.7 -27.6 Q-3.7 -27.85 -3.7 -28.25 L-3.8 -28.75 -3.85 -29.45 -3.85 -29.75 Q-3.8 -30.25 -3.6 -30.4 -3.55 -30.45 -3.45 -30.35 L-3.55 -30.75 Q-3.75 -30.85 -3.7 -30.9 L-3.75 -32.5 -3.7 -33.7 -3.7 -33.75 Q-3.85 -33.85 -3.9 -34.3 -3.85 -34.3 -3.8 -35.4 -3.7 -35.65 -3.75 -35.75 L-3.75 -35.85 Q-3.9 -36.8 -3.9 -37.15 -3.85 -37.3 -3.75 -37.45 L-3.8 -37.65 Q-4.0 -38.25 -4.0 -38.55 L-4.0 -38.65 -4.1 -38.9 -4.1 -39.5 -4.05 -40.15 -3.7 -40.15 -3.7 -40.2 Q-3.9 -40.5 -4.0 -41.25 -4.1 -41.9 -4.15 -42.55 -4.15 -43.1 -4.0 -43.65 -3.85 -44.1 -3.65 -44.35 L-3.65 -44.9 -3.7 -45.45 -3.7 -50.2 Q-3.7 -51.0 -3.8 -51.6 -4.15 -51.85 -4.6 -51.85 L-5.2 -51.8 Q-5.7 -51.65 -5.9 -51.2 -6.05 -50.85 -6.0 -50.5 -6.0 -49.95 -5.75 -49.55 -5.6 -49.35 -5.2 -49.0 L-4.65 -48.55 -4.75 -48.5 -4.75 -48.3 Q-4.75 -47.95 -5.2 -46.0 L-5.3 -45.45 -5.35 -45.2 -6.1 -41.85 -6.85 -37.85 Q-6.95 -37.4 -7.05 -37.05 L-7.1 -36.95 Q-7.15 -36.15 -7.55 -36.3 L-7.65 -36.3 Q-7.75 -36.35 -7.85 -36.5 -8.3 -36.9 -9.1 -38.15 -9.75 -39.15 -10.3 -40.15 -11.25 -41.95 -12.0 -43.85 L-12.5 -45.45 Q-12.9 -46.8 -13.1 -48.0 L-13.15 -48.3 Q-13.3 -49.25 -13.35 -50.55 -13.55 -52.05 -13.6 -53.15 L-13.6 -54.85 Q-13.55 -55.95 -13.35 -57.45 -13.3 -58.75 -13.15 -59.7 L-13.1 -60.0 Q-12.8 -61.95 -12.0 -64.15 -11.3 -66.0 -10.35 -67.75 -9.75 -68.8 -9.1 -69.85 -8.3 -71.1 -7.85 -71.5 -7.75 -71.65 -7.65 -71.7 L-7.55 -71.7 Q-7.15 -71.85 -7.1 -71.05 L-7.05 -70.95 Q-6.95 -70.6 -6.85 -70.15 L-6.1 -66.15 -5.35 -62.8 -5.2 -62.0 Q-4.75 -60.05 -4.75 -59.7 L-4.75 -59.5 -4.65 -59.45 -5.2 -59.0 Q-5.6 -58.65 -5.75 -58.45 -6.0 -58.05 -6.0 -57.5 -6.05 -57.15 -5.9 -56.8 -5.7 -56.35 -5.2 -56.2 L-4.6 -56.15 Q-4.3 -56.15 -4.05 -56.25 -3.85 -57.35 -3.7 -58.35 -3.75 -58.5 -3.75 -58.6 -3.75 -59.95 -3.95 -61.85 -4.1 -63.75 -4.1 -65.5 -4.1 -67.85 -3.75 -70.35 -3.5 -72.5 -3.05 -73.7 L-2.7 -74.9 Q-2.3 -76.05 -1.95 -76.85 L-1.95 -77.05 -1.5 -77.85 -0.95 -77.0 -0.95 -76.85 Q-0.55 -76.05 -0.2 -74.9 L0.15 -73.7 Q0.6 -72.5 0.9 -70.35 1.2 -67.85 1.2 -65.5 1.2 -63.75 1.05 -61.85 L1.0 -61.45 1.05 -61.35 1.0 -61.3 Q0.9 -59.75 0.9 -58.6 0.9 -58.5 0.85 -58.35 1.0 -57.35 1.2 -56.25 1.4 -56.15 1.7 -56.15 2.7 -56.15 3.05 -56.8 3.2 -57.15 3.15 -57.5 3.15 -58.05 2.85 -58.45 2.6 -58.75 1.75 -59.45 L1.9 -59.5 1.9 -59.7 Q1.9 -60.15 2.45 -62.8 L3.2 -66.15 3.85 -69.35 3.95 -70.15 Q4.05 -70.6 4.2 -70.95 L4.2 -71.05 Q4.25 -71.85 4.65 -71.7 L4.75 -71.7 M4.35 -40.35 L4.4 -40.15 4.65 -39.05 4.85 -37.95 Q5.65 -39.0 6.35 -40.15 L6.95 -41.25 Q7.6 -42.55 8.15 -44.05 L8.65 -45.45 8.8 -46.15 8.9 -46.35 8.95 -46.85 9.45 -49.2 9.6 -49.95 9.8 -52.9 9.8 -55.1 9.6 -58.05 8.95 -61.15 8.9 -61.65 8.8 -61.85 Q8.45 -63.1 8.15 -63.95 7.6 -65.45 6.95 -66.75 6.05 -68.55 4.85 -70.05 L4.55 -68.45 4.45 -67.95 4.35 -67.55 4.05 -66.25 Q4.2 -65.7 4.45 -65.05 5.05 -64.2 5.5 -63.1 L5.6 -62.85 Q5.85 -62.15 6.05 -61.45 L6.25 -60.45 6.2 -60.45 Q6.4 -59.4 6.6 -58.0 6.8 -56.1 6.8 -54.7 6.8 -52.8 6.7 -51.35 6.6 -50.25 6.4 -49.2 6.3 -48.55 6.15 -47.9 5.8 -46.5 5.35 -45.45 5.1 -44.9 4.85 -44.45 4.45 -43.8 4.2 -42.85 L4.0 -42.0 4.05 -41.75 4.35 -40.35 M-0.1 -71.7 L-0.6 -73.3 Q-0.8 -73.9 -0.85 -74.3 L-0.95 -74.6 -1.45 -75.75 -1.9 -74.6 -2.05 -74.3 Q-2.1 -73.9 -2.25 -73.3 L-2.8 -71.55 Q-3.6 -68.9 -3.6 -66.35 L-3.5 -64.75 -3.4 -63.4 Q-3.3 -63.1 -3.2 -62.6 -3.05 -61.65 -2.75 -61.25 L-1.4 -61.15 -1.2 -61.15 0.25 -61.35 Q0.25 -61.7 0.5 -62.65 L0.5 -63.15 0.7 -66.35 Q0.7 -68.9 -0.05 -71.55 L-0.1 -71.7 M6.15 -59.9 Q6.05 -60.7 5.9 -61.5 5.3 -63.65 4.1 -65.2 L4.0 -65.2 3.85 -65.15 Q3.05 -61.45 2.6 -59.75 L2.95 -59.5 Q3.3 -59.35 3.5 -58.95 3.7 -58.55 3.8 -57.95 L3.8 -57.4 Q3.8 -56.45 3.55 -56.1 3.1 -55.35 1.6 -55.3 L1.55 -55.3 Q0.9 -55.3 0.55 -55.6 L0.45 -55.7 Q0.2 -55.95 0.2 -56.4 L0.2 -57.1 0.25 -58.1 0.15 -58.3 -0.1 -58.7 Q-0.25 -58.7 -0.45 -58.8 -0.65 -58.9 -0.95 -58.95 L-1.65 -58.95 -2.1 -58.95 -2.55 -58.85 Q-2.8 -58.85 -2.95 -58.75 L-3.05 -58.5 -3.15 -58.3 -3.05 -57.1 -3.05 -56.45 -3.1 -56.2 Q-3.1 -55.95 -3.25 -55.8 L-3.35 -55.7 Q-3.6 -55.45 -3.95 -55.35 L-4.4 -55.3 -5.2 -55.35 Q-6.1 -55.55 -6.45 -56.1 -6.7 -56.45 -6.7 -57.4 -6.7 -58.25 -6.45 -58.8 L-6.4 -58.95 Q-6.2 -59.35 -5.85 -59.5 L-5.75 -59.55 -5.5 -59.75 -5.5 -59.8 -5.55 -60.0 -6.35 -63.55 -6.4 -63.65 -6.7 -65.15 -6.9 -65.2 -6.95 -65.2 Q-8.2 -63.65 -8.8 -61.5 -9.05 -60.3 -9.15 -59.0 L-9.2 -58.55 -9.3 -57.75 -9.5 -55.35 -9.55 -52.7 Q-9.55 -51.7 -9.35 -50.3 -9.15 -49.0 -8.9 -47.95 -8.55 -46.45 -8.05 -45.45 -7.6 -44.5 -7.0 -43.95 -6.8 -43.75 -6.55 -43.6 L-6.15 -45.45 -5.5 -48.25 -5.85 -48.5 Q-6.2 -48.65 -6.4 -49.05 -6.7 -49.6 -6.7 -50.6 -6.7 -51.55 -6.45 -51.9 -6.1 -52.45 -5.2 -52.6 L-4.4 -52.7 Q-3.9 -52.7 -3.6 -52.5 L-3.45 -52.95 Q-3.25 -53.5 -3.15 -54.95 L-3.05 -54.95 -3.05 -54.9 -3.0 -51.25 -3.0 -44.8 -2.95 -44.0 Q-2.95 -43.65 -2.8 -43.45 -2.8 -43.3 -2.65 -43.2 L-2.55 -43.2 -1.7 -43.1 -1.6 -43.1 -1.05 -43.15 -0.95 -43.15 Q-0.55 -43.15 -0.35 -43.25 -0.15 -43.3 -0.1 -43.45 0.0 -43.45 0.0 -43.5 L0.1 -43.55 0.1 -44.65 Q0.1 -44.9 0.0 -45.1 L0.05 -45.3 0.05 -45.45 Q0.05 -46.35 0.05 -47.25 L0.05 -47.8 0.1 -47.8 0.05 -48.75 Q0.1 -50.6 0.1 -52.6 L0.2 -54.45 0.2 -54.95 0.25 -54.95 0.3 -54.6 0.3 -54.55 Q0.4 -53.45 0.55 -52.95 L0.6 -52.95 0.7 -52.5 Q1.05 -52.7 1.55 -52.7 L1.8 -52.65 Q3.15 -52.6 3.55 -51.9 3.8 -51.55 3.8 -50.6 3.8 -49.75 3.6 -49.2 L3.5 -49.05 Q3.3 -48.65 2.95 -48.5 L2.6 -48.25 3.25 -45.45 3.65 -43.6 Q3.9 -43.75 4.15 -43.95 4.7 -44.5 5.15 -45.45 5.65 -46.45 6.05 -47.95 L6.1 -48.2 6.1 -48.25 6.15 -48.35 6.2 -48.75 6.3 -49.2 6.35 -49.35 6.45 -50.3 Q6.65 -51.7 6.65 -52.7 L6.65 -54.35 6.65 -55.4 6.55 -56.5 6.35 -58.4 6.25 -59.0 6.15 -59.9 M-1.8 -59.15 L-1.1 -59.15 Q-0.6 -59.15 -0.25 -59.3 L0.15 -59.45 0.3 -59.4 0.35 -59.85 0.4 -60.45 Q0.25 -60.5 0.2 -60.55 L0.15 -60.75 -0.35 -60.8 -0.5 -60.85 -1.2 -60.95 -2.1 -60.9 -2.3 -60.85 Q-3.05 -60.75 -3.2 -60.5 L-3.25 -60.35 -3.25 -60.15 -3.15 -59.9 Q-2.95 -59.35 -2.7 -59.25 L-2.55 -59.2 -1.8 -59.15 M-1.05 -42.45 Q-0.65 -42.4 -0.25 -42.4 L-0.1 -42.45 0.0 -42.45 Q0.2 -42.45 0.3 -42.5 0.45 -42.55 0.45 -42.75 L0.4 -43.0 0.35 -43.05 Q-0.1 -43.1 -0.2 -43.05 L-0.6 -43.05 -1.2 -42.9 -1.8 -42.8 -2.15 -42.7 Q-2.2 -42.7 -2.25 -42.7 L-2.3 -42.7 -2.35 -42.65 -2.15 -42.6 -2.1 -42.6 -1.75 -42.55 -1.7 -42.5 -1.7 -42.55 -1.05 -42.45 M-1.6 -40.4 Q-1.1 -40.45 -0.7 -40.65 L-0.5 -40.75 Q-0.3 -40.9 -0.15 -41.0 0.0 -41.0 0.1 -41.1 0.2 -41.15 0.35 -41.3 0.5 -41.5 0.5 -41.7 0.5 -42.3 0.05 -42.15 -0.15 -42.1 -0.25 -42.0 L-1.15 -42.1 -1.55 -42.15 -1.7 -42.2 -2.2 -42.3 -2.3 -42.35 -2.4 -42.35 Q-2.65 -42.45 -2.9 -42.55 L-2.95 -42.6 Q-3.3 -42.55 -3.4 -42.3 L-3.4 -41.1 Q-3.35 -40.65 -3.1 -40.4 L-2.85 -40.65 -2.85 -40.5 -2.35 -40.4 -2.8 -40.35 -2.85 -40.25 -2.55 -40.15 -2.7 -40.15 -2.15 -40.0 Q-2.0 -40.0 -1.95 -40.05 L-1.9 -40.05 -1.9 -39.95 -1.05 -39.8 -0.3 -39.7 0.3 -39.55 0.35 -39.65 0.55 -39.8 Q0.7 -39.95 0.7 -40.15 L0.45 -40.15 0.45 -40.25 Q0.45 -40.75 0.1 -40.75 -0.1 -40.7 -0.2 -40.5 -0.3 -40.55 -0.35 -40.45 L-0.65 -40.45 -1.55 -40.35 -1.85 -40.3 -2.0 -40.35 -1.6 -40.4 M-1.3 -37.35 L0.25 -37.3 0.3 -37.55 Q0.25 -37.85 0.35 -38.3 L0.55 -38.9 -0.05 -39.2 -0.5 -39.35 -0.65 -39.45 -0.9 -39.55 -1.15 -39.6 -1.2 -39.6 -1.45 -39.7 -2.05 -39.85 -2.1 -39.9 -2.15 -39.9 -2.65 -39.8 -3.25 -39.8 -3.25 -39.65 -3.4 -39.35 Q-3.35 -39.25 -3.4 -39.2 -3.4 -38.85 -3.45 -38.65 L-3.45 -38.5 -3.4 -38.45 Q-3.35 -38.2 -3.2 -38.0 -2.95 -37.75 -2.45 -37.55 L-2.35 -37.55 Q-1.9 -37.4 -1.3 -37.35 M-1.05 -35.1 L-1.0 -35.05 -0.95 -35.05 0.15 -34.95 0.25 -34.95 0.25 -35.15 Q0.35 -35.75 0.35 -35.85 0.35 -36.0 0.3 -36.15 L0.2 -36.2 Q0.15 -36.25 0.15 -36.45 L0.15 -36.6 Q0.05 -36.75 -0.25 -36.85 L-0.3 -36.85 -1.15 -36.95 -1.3 -36.95 -1.6 -36.9 -2.0 -37.0 -2.45 -37.05 -3.2 -37.2 Q-3.35 -36.9 -3.35 -36.75 L-3.15 -36.4 -3.15 -35.8 -2.75 -35.65 -2.45 -35.5 -2.35 -35.45 -1.9 -35.3 -1.85 -35.3 -1.05 -35.1 M-1.45 -29.45 Q-0.75 -29.3 0.05 -29.25 L0.3 -29.3 0.3 -29.5 Q0.3 -30.25 0.3 -30.8 L0.0 -30.95 Q-0.2 -31.1 -0.35 -31.1 L-1.1 -31.05 -2.0 -30.95 -2.25 -30.95 -3.0 -30.85 -3.1 -30.85 -3.2 -30.25 -3.05 -30.2 -2.8 -30.05 -2.8 -30.0 -2.05 -29.65 -1.7 -29.5 -1.65 -29.5 -1.45 -29.45 M-1.8 -27.3 L-0.95 -27.25 -0.55 -27.3 0.05 -27.4 0.2 -27.5 0.2 -27.75 0.3 -27.8 0.3 -28.05 0.25 -28.25 Q-0.15 -29.05 -1.35 -29.35 L-1.6 -29.4 -2.05 -29.45 -2.2 -29.5 -3.0 -29.45 Q-3.3 -29.4 -3.3 -29.15 L-3.25 -29.0 -3.35 -28.55 -3.25 -28.25 -3.25 -28.0 Q-3.2 -27.7 -3.2 -27.55 L-3.15 -27.5 -3.1 -27.55 -3.0 -27.45 -2.6 -27.4 -2.35 -27.35 -2.25 -27.35 -1.95 -27.3 -1.8 -27.3 M-1.3 -25.0 L-0.05 -25.1 Q0.05 -25.15 0.15 -25.25 L0.25 -25.3 0.3 -25.3 0.3 -25.7 Q0.35 -26.35 0.4 -26.85 L-0.2 -26.85 -0.2 -26.95 -1.15 -26.9 -2.0 -26.9 -2.45 -26.9 -3.0 -26.9 Q-3.05 -26.65 -3.25 -26.3 L-3.2 -25.85 -3.2 -25.7 Q-3.15 -25.5 -3.2 -25.45 L-3.2 -25.35 -3.15 -25.35 Q-3.0 -25.15 -2.75 -25.1 L-2.6 -25.05 -2.15 -25.0 -1.3 -25.0 M0.3 -23.8 L0.35 -23.8 Q0.35 -23.9 0.4 -24.1 L0.4 -24.15 0.3 -23.8 M-1.4 -24.15 L-0.3 -23.95 0.15 -23.85 Q0.25 -24.15 0.3 -24.7 L-0.35 -24.7 -0.4 -24.75 -0.95 -24.85 -2.15 -24.9 -2.25 -24.9 -2.25 -24.95 -2.75 -24.95 -3.2 -24.95 -3.25 -24.55 -3.3 -24.55 Q-3.25 -24.5 -3.25 -24.4 -3.25 -24.25 -3.35 -23.85 -3.35 -23.8 -3.4 -23.75 -3.25 -22.8 -3.25 -22.1 L-3.15 -22.0 -3.0 -21.9 Q-3.0 -21.85 -2.95 -21.85 L-2.7 -21.7 -2.6 -21.65 -2.55 -21.65 -2.3 -21.55 Q-2.0 -21.45 -1.7 -21.4 L-1.5 -21.4 0.05 -21.3 Q0.15 -21.7 0.2 -22.45 L0.25 -23.2 -0.1 -23.4 -0.55 -23.6 -1.25 -23.85 -2.25 -24.2 -2.35 -24.2 -2.45 -24.25 -2.8 -24.35 -3.1 -24.45 -2.85 -24.4 -2.8 -24.4 -2.15 -24.3 -1.4 -24.15 M0.3 -21.3 L0.3 -21.4 0.25 -21.3 0.3 -21.3 M-1.25 -17.8 L-0.85 -17.8 Q-0.75 -17.8 0.1 -18.05 L0.15 -18.8 0.2 -19.05 Q0.35 -19.7 0.3 -19.8 L0.3 -20.0 Q0.25 -20.2 0.1 -20.35 0.1 -20.45 0.2 -20.5 L-0.05 -20.55 -0.1 -20.55 -0.4 -20.6 -0.8 -20.6 -0.6 -20.65 -1.25 -20.8 -2.15 -21.0 -2.3 -21.0 -2.8 -21.1 -3.2 -21.2 -3.3 -21.0 -3.35 -20.75 Q-3.3 -20.5 -3.2 -20.4 -3.1 -20.4 -3.1 -20.35 L-3.1 -20.3 Q-3.05 -20.3 -2.95 -20.3 L-2.75 -20.3 -2.3 -20.3 Q-2.55 -20.25 -2.75 -20.15 L-2.9 -20.0 Q-3.05 -19.9 -3.05 -19.75 L-3.3 -19.0 -3.25 -18.8 Q-3.1 -18.55 -2.6 -18.2 L-2.55 -18.2 -2.55 -18.15 -2.45 -18.15 -2.4 -18.1 Q-1.95 -17.9 -1.4 -17.8 L-1.25 -17.8 M-1.5 -13.4 Q-0.85 -13.2 0.0 -13.25 0.15 -13.25 0.2 -13.3 L0.15 -13.35 0.2 -14.7 -0.1 -14.85 Q-0.3 -15.0 -0.45 -15.0 L-1.2 -14.9 -1.2 -14.95 -1.55 -14.9 -1.75 -14.9 -2.85 -14.75 -3.0 -14.75 -3.1 -14.2 -2.95 -14.1 -2.75 -13.95 -1.9 -13.55 -1.7 -13.45 -1.65 -13.45 -1.5 -13.4 M-1.5 -11.4 L-1.0 -11.35 -0.65 -11.4 -0.05 -11.5 0.05 -11.65 0.05 -11.85 Q0.15 -11.85 0.15 -11.9 L0.15 -12.15 Q-0.1 -13.0 -1.3 -13.3 L-1.9 -13.4 -2.85 -13.45 Q-3.15 -13.4 -3.15 -13.15 -3.15 -13.1 -3.1 -13.0 -3.15 -12.8 -3.2 -12.6 -3.2 -12.4 -3.1 -12.05 L-3.05 -11.65 -3.0 -11.6 -2.95 -11.65 -2.85 -11.55 -2.35 -11.5 -1.8 -11.45 -1.5 -11.4 M-1.35 -9.6 L0.1 -9.6 Q0.2 -9.75 0.25 -9.95 0.45 -10.3 0.4 -10.9 L0.4 -11.05 -0.3 -11.05 -0.3 -11.1 -1.15 -11.05 -1.9 -11.05 -2.35 -11.05 -2.9 -11.05 -3.1 -10.55 -3.15 -10.4 -3.15 -10.35 -3.05 -9.95 -3.05 -9.7 Q-2.95 -9.65 -2.9 -9.6 L-1.35 -9.6 M-1.05 -8.85 L-0.5 -8.75 -0.3 -8.7 Q0.05 -8.65 0.25 -8.55 L0.3 -8.55 0.4 -8.8 0.4 -8.9 0.35 -9.1 0.4 -9.2 -0.95 -9.35 -1.1 -9.35 -1.95 -9.3 -2.05 -9.3 -2.05 -9.25 Q-1.9 -9.15 -1.9 -9.05 L-1.9 -8.95 -1.55 -8.9 -1.05 -8.85 M-1.3 -6.35 L-1.25 -6.35 -0.55 -6.3 0.35 -6.3 Q0.25 -6.55 0.3 -7.0 L0.35 -7.3 0.55 -7.9 0.1 -8.1 -0.05 -8.2 -0.5 -8.35 -0.9 -8.55 -1.1 -8.6 -1.15 -8.65 -1.2 -8.65 -1.45 -8.75 -1.7 -8.8 -2.05 -8.9 -2.05 -8.85 -2.1 -8.9 -2.15 -8.9 Q-2.2 -8.9 -2.35 -8.85 L-2.65 -8.85 -2.95 -8.8 -3.25 -8.8 -3.25 -8.65 -3.4 -8.35 Q-3.35 -8.25 -3.4 -8.2 -3.4 -7.9 -3.45 -7.65 L-3.45 -7.5 -3.4 -7.45 Q-3.35 -7.2 -3.2 -7.0 -2.95 -6.75 -2.5 -6.6 L-2.45 -6.6 -2.4 -6.6 -2.35 -6.55 -1.85 -6.4 -1.3 -6.35 M-1.45 -2.95 L-0.8 -2.9 0.2 -3.15 Q0.2 -3.5 0.25 -4.15 0.35 -4.75 0.35 -4.85 0.35 -5.15 0.2 -5.4 0.2 -5.5 0.25 -5.55 L0.0 -5.6 -0.1 -5.55 -0.25 -5.65 Q-0.55 -5.8 -1.1 -5.8 L-1.2 -5.85 -2.3 -6.05 -2.65 -6.1 -3.2 -6.2 Q-3.35 -5.9 -3.35 -5.75 L-3.25 -5.55 -3.3 -4.8 -3.25 -4.4 -3.25 -4.1 Q-3.25 -3.75 -2.65 -3.35 L-2.55 -3.3 -2.4 -3.25 -2.3 -3.2 -2.0 -3.1 -1.95 -3.05 -1.85 -3.05 -1.45 -2.95 M-1.45 1.55 Q-0.75 1.7 0.05 1.75 L0.3 1.7 0.3 0.2 0.0 0.0 Q-0.2 -0.1 -0.35 -0.1 L-1.1 -0.05 -2.0 0.05 -2.25 0.05 -3.0 0.15 -3.1 0.15 -3.2 0.7 -3.2 0.75 -3.05 0.8 -2.8 0.95 -2.8 1.0 -2.05 1.35 -1.7 1.5 -1.65 1.5 -1.45 1.55 M-1.8 3.7 L-0.95 3.75 -0.55 3.65 0.05 3.6 0.2 3.45 0.2 3.25 0.3 3.2 0.3 2.9 Q0.0 2.0 -1.35 1.65 L-1.6 1.6 -2.05 1.5 -3.0 1.5 Q-3.3 1.6 -3.3 1.85 L-3.25 2.0 -3.35 2.45 -3.25 3.0 Q-3.2 3.3 -3.2 3.45 L-3.15 3.5 -3.1 3.45 -3.0 3.55 -2.6 3.6 -2.35 3.65 -2.25 3.65 -1.95 3.7 -1.95 3.65 -1.8 3.7 M-1.3 6.0 L-0.05 5.9 Q0.05 5.8 0.15 5.75 L0.25 5.7 0.3 5.65 Q0.3 5.3 0.35 4.95 L0.4 4.15 -0.2 4.1 -0.2 4.05 -1.15 4.1 -2.0 4.1 -2.45 4.1 -3.0 4.1 Q-3.05 4.3 -3.25 4.65 L-3.2 4.95 -3.2 5.3 Q-3.15 5.5 -3.2 5.55 L-3.2 5.65 -3.15 5.65 Q-3.0 5.8 -2.75 5.9 L-2.6 5.95 -2.15 6.0 -1.3 6.0 M0.4 6.9 L0.4 6.85 0.3 7.2 0.35 7.2 Q0.35 7.05 0.4 6.9 M-1.5 9.6 L0.05 9.7 Q0.15 9.3 0.2 8.5 L0.25 7.8 Q0.15 7.7 -0.1 7.6 L-0.55 7.4 -1.25 7.1 -2.4 6.75 -2.45 6.75 -2.8 6.65 -3.1 6.55 -2.85 6.6 -2.8 6.6 -2.15 6.7 -1.4 6.85 -0.3 7.05 0.15 7.15 0.3 6.3 -0.35 6.3 -0.4 6.25 Q-0.45 6.2 -0.95 6.15 L-2.15 6.1 -2.25 6.1 -2.25 6.0 -2.5 6.0 -2.65 6.05 -2.75 6.05 -3.2 6.05 -3.25 6.4 -3.1 6.45 -3.3 6.45 Q-3.25 6.5 -3.25 6.6 -3.25 6.75 -3.35 7.1 -3.35 7.15 -3.4 7.25 -3.25 8.2 -3.25 8.9 L-3.15 9.0 -3.0 9.1 -2.95 9.15 -2.7 9.3 -2.6 9.35 -2.55 9.35 -2.3 9.45 Q-2.0 9.55 -1.7 9.6 L-1.5 9.6 M0.3 9.6 L0.25 9.7 0.3 9.7 0.3 9.6 M-1.55 11.45 L-1.5 11.5 -1.4 11.5 -0.95 11.45 -0.6 11.4 Q-0.2 11.3 0.05 11.25 L0.1 11.0 0.2 10.75 0.2 10.5 0.15 10.5 Q0.05 10.3 -0.25 10.25 L-0.75 10.2 -1.15 10.2 -1.5 10.15 -2.15 10.0 -2.2 10.0 -2.25 10.0 -2.3 9.95 -2.5 9.95 -3.2 9.8 Q-3.35 10.1 -3.35 10.25 L-3.3 10.45 -3.3 10.7 -3.2 10.8 -2.8 11.05 -2.35 11.3 -1.75 11.45 -1.6 11.45 -1.55 11.45 M-1.4 13.2 L-0.85 13.2 0.1 12.95 Q0.1 12.7 0.15 12.2 L0.05 11.9 -0.05 11.85 Q-0.2 11.7 -0.5 11.65 L-0.55 11.65 -1.25 11.55 -2.7 11.4 -2.85 11.5 -3.0 11.45 -3.05 11.4 -3.05 11.55 Q-3.15 11.75 -3.35 11.75 L-3.25 11.95 -3.3 12.0 Q-3.25 12.35 -2.75 12.7 L-2.6 12.8 -2.55 12.8 -2.4 12.9 -2.2 13.0 Q-1.85 13.15 -1.4 13.2 M-1.5 17.55 Q-0.85 17.75 0.0 17.75 0.15 17.75 0.2 17.7 L0.15 17.65 0.2 16.3 -0.1 16.1 Q-0.3 16.0 -0.45 16.0 L-1.2 16.05 -1.55 16.1 -1.75 16.1 -2.85 16.25 -3.0 16.25 -3.1 16.8 -2.95 16.9 -2.75 17.0 -1.9 17.4 -1.7 17.5 -1.65 17.5 -1.5 17.55 M-1.5 19.6 L-1.0 19.6 -0.65 19.55 -0.05 19.5 0.05 19.35 0.05 19.15 0.15 19.1 0.15 18.85 Q-0.1 18.0 -1.3 17.7 L-1.6 17.6 -1.9 17.55 -2.85 17.5 Q-3.15 17.6 -3.15 17.85 -3.15 17.9 -3.1 18.0 L-3.2 18.4 Q-3.2 18.6 -3.1 18.95 L-3.05 19.35 -3.0 19.4 -2.95 19.3 -2.85 19.45 -2.35 19.5 -1.8 19.55 -1.5 19.6 M-1.3 21.25 L0.2 21.25 0.25 21.05 Q0.45 20.7 0.4 20.1 L0.4 19.95 -0.3 19.95 -0.3 19.9 -1.15 19.9 -1.7 19.95 -1.9 19.95 -2.35 19.95 -2.9 19.95 -3.1 20.45 -3.15 20.6 -3.05 21.0 -3.05 21.25 -2.8 21.25 -1.3 21.25 M-1.05 22.0 L-0.3 22.15 Q0.1 22.2 0.3 22.3 L0.4 21.95 0.35 21.75 0.4 21.65 0.4 21.6 Q-0.15 21.5 -0.95 21.5 L-1.1 21.5 -1.95 21.55 -2.05 21.55 -2.05 21.6 -1.95 21.65 Q-1.9 21.75 -1.9 21.8 L-1.9 21.85 -1.05 22.0 M-1.3 24.5 L0.25 24.55 0.35 24.55 Q0.2 24.2 0.35 23.55 L0.55 22.95 -0.05 22.65 -0.5 22.5 Q-0.7 22.35 -0.9 22.3 L-1.15 22.2 -1.2 22.2 -1.45 22.1 -2.05 21.95 -2.15 21.95 -2.4 22.0 -2.65 22.0 -3.25 22.0 -3.25 22.2 -3.4 22.5 Q-3.35 22.6 -3.4 22.65 -3.4 22.95 -3.45 23.2 L-3.45 23.35 -3.4 23.4 Q-3.35 23.65 -3.2 23.85 -2.95 24.1 -2.45 24.25 L-2.4 24.25 -2.35 24.3 Q-1.9 24.45 -1.3 24.5 M-1.85 27.8 Q-1.35 27.95 -0.8 27.95 L0.2 27.7 Q0.2 27.35 0.25 26.7 L0.35 26.0 Q0.35 25.7 0.2 25.45 0.2 25.35 0.25 25.3 L0.0 25.25 Q-0.6 25.55 -1.4 25.75 L-1.9 25.85 -2.3 25.9 -2.35 25.9 -3.05 26.05 -3.15 26.3 Q-3.25 26.6 -3.25 26.75 -3.25 27.1 -2.65 27.5 L-2.55 27.5 -2.3 27.65 -2.15 27.7 -2.0 27.75 -1.95 27.8 -1.85 27.8 M-1.45 32.4 Q-0.75 32.55 0.05 32.6 L0.3 32.55 0.3 32.3 Q0.3 31.6 0.3 31.05 L0.0 30.85 Q-0.2 30.75 -0.35 30.75 L-1.1 30.8 -2.0 30.85 -2.25 30.9 -3.0 30.95 -3.1 31.0 -3.2 31.55 -3.05 31.65 -2.8 31.8 -2.8 31.85 -2.05 32.2 -1.7 32.3 -1.65 32.35 -1.45 32.4 M-1.3 36.85 L-0.05 36.75 0.15 36.55 0.25 36.55 0.3 36.5 0.3 36.2 Q0.35 35.5 0.4 35.0 L-0.2 34.95 -0.2 34.9 -1.15 34.95 -2.0 34.95 -2.45 34.95 -3.0 34.95 Q-3.05 35.15 -3.25 35.5 L-3.2 36.0 -3.2 36.2 Q-3.2 36.35 -3.2 36.4 L-3.2 36.5 -3.15 36.5 Q-3.0 36.65 -2.75 36.75 L-2.6 36.8 -2.15 36.85 -1.3 36.85 M-1.8 34.55 L-0.95 34.6 -0.55 34.5 0.05 34.4 Q0.15 34.35 0.2 34.3 L0.2 34.1 0.3 34.05 0.3 33.75 Q0.0 32.85 -1.35 32.5 L-1.6 32.45 -2.05 32.35 -3.0 32.35 Q-3.3 32.4 -3.3 32.7 L-3.25 32.85 -3.35 33.3 -3.25 33.85 Q-3.2 34.1 -3.2 34.3 L-3.15 34.35 -3.1 34.3 -3.0 34.4 -2.6 34.45 -2.35 34.45 -2.25 34.5 -1.95 34.55 -1.95 34.5 -1.8 34.55 M0.35 38.05 Q0.35 37.9 0.4 37.7 L0.3 38.05 0.35 38.05 M-1.4 37.7 L-0.3 37.9 0.15 38.0 0.3 37.15 -0.35 37.15 -0.4 37.1 Q-0.45 37.05 -0.95 37.0 L-2.15 36.95 -2.25 36.95 -2.25 36.85 -2.75 36.85 -2.75 36.9 -3.2 36.9 -3.25 37.25 -3.1 37.3 -3.3 37.3 Q-3.25 37.35 -3.25 37.45 -3.25 37.6 -3.35 37.95 -3.35 38.0 -3.4 38.1 -3.25 39.05 -3.25 39.7 L-3.25 39.75 -3.15 39.85 -3.0 39.95 -2.95 40.0 -2.7 40.15 -2.6 40.2 -2.55 40.2 -2.3 40.3 Q-2.0 40.4 -1.7 40.45 L-1.5 40.45 -1.3 40.5 0.05 40.55 Q0.15 40.15 0.2 39.35 L0.25 38.6 Q0.15 38.55 -0.1 38.45 L-0.55 38.25 Q-1.0 38.0 -1.25 37.95 L-2.25 37.65 -2.3 37.65 -2.35 37.6 -2.45 37.55 -2.8 37.5 -3.1 37.4 -2.85 37.45 -2.8 37.45 -2.15 37.55 -1.4 37.7 M0.3 40.45 L0.25 40.55 0.3 40.5 0.3 40.45 M-1.4 44.05 L-0.85 44.05 0.1 43.8 Q0.1 43.45 0.2 42.8 0.35 42.15 0.3 42.05 0.3 41.75 0.1 41.45 0.1 41.4 0.2 41.35 L0.0 41.3 Q-0.05 41.05 -0.5 40.8 -0.85 40.6 -1.25 40.55 L-2.2 40.55 -2.3 40.6 Q-2.55 40.65 -2.75 40.7 L-3.2 40.65 Q-3.35 40.95 -3.35 41.1 L-3.3 41.25 -3.35 41.75 Q-3.35 42.2 -3.25 42.55 L-3.2 42.6 -3.3 42.85 Q-3.25 43.2 -2.6 43.6 L-2.55 43.65 -2.4 43.75 -2.2 43.85 -1.4 44.05 M-1.5 48.4 Q-0.85 48.6 0.0 48.6 0.15 48.6 0.2 48.55 L0.15 48.5 0.2 47.15 -0.1 46.95 Q-0.3 46.85 -0.45 46.85 L-1.2 46.9 -1.55 46.95 -1.75 46.95 -2.85 47.05 -2.9 47.1 -3.0 47.1 Q-3.1 47.35 -3.1 47.65 L-2.95 47.75 -2.75 47.85 Q-2.2 48.1 -1.9 48.25 L-1.7 48.35 -1.65 48.35 -1.5 48.4 M-1.5 50.45 L-0.95 50.45 -0.35 50.35 -0.05 50.35 0.05 50.2 0.05 50.0 0.15 49.95 0.15 49.7 0.1 49.6 Q-0.1 49.1 -0.65 48.75 -0.95 48.65 -1.3 48.55 L-1.6 48.45 -1.9 48.4 -2.85 48.35 Q-3.15 48.45 -3.15 48.7 L-3.15 48.75 -3.1 48.85 Q-3.15 49.05 -3.2 49.25 L-3.15 49.6 -3.1 49.75 -3.05 50.0 -3.1 50.0 -3.05 50.15 -3.0 50.25 -3.0 50.2 -2.95 50.15 -2.95 50.2 -2.9 50.3 -2.75 50.3 -2.4 50.35 -2.2 50.35 -1.85 50.4 -1.5 50.45 M-1.45 52.3 L-1.4 52.3 -1.35 52.35 -1.1 52.35 -0.2 52.25 -0.1 52.25 0.05 52.2 Q0.2 52.1 0.25 51.9 L0.35 51.6 Q0.4 51.3 0.4 50.95 L0.4 50.8 -0.3 50.8 -0.3 50.75 -1.2 50.75 -1.75 50.8 -1.9 50.8 -2.4 50.8 -2.9 50.8 -3.1 51.3 -3.15 51.45 -3.1 51.6 -3.1 51.7 -3.05 51.85 -3.05 52.15 -2.9 52.2 -2.15 52.25 -2.0 52.25 -1.9 52.3 -1.45 52.3 M-7.15 -67.15 L-7.15 -67.2 -7.45 -68.6 -7.6 -69.35 -7.7 -69.9 -7.75 -70.05 -7.95 -69.8 -8.0 -69.7 Q-8.7 -68.75 -9.3 -67.75 -10.3 -66.0 -11.05 -63.95 -11.35 -63.05 -11.75 -61.65 L-11.85 -61.15 -12.45 -58.05 -12.7 -55.1 -12.7 -52.9 -12.45 -49.95 -11.85 -46.85 -11.75 -46.35 -11.5 -45.45 -11.05 -44.05 Q-10.3 -41.95 -9.25 -40.15 -8.55 -39.0 -7.75 -37.95 L-7.6 -38.7 -7.3 -40.15 -7.2 -40.55 -6.95 -41.75 -6.9 -42.0 -7.1 -42.85 Q-7.3 -43.8 -7.7 -44.45 -8.0 -44.9 -8.2 -45.45 -8.65 -46.5 -9.0 -47.9 -9.4 -49.45 -9.55 -51.35 -9.7 -52.8 -9.7 -54.7 -9.7 -56.1 -9.45 -58.0 -9.3 -59.4 -9.1 -60.45 L-9.15 -60.45 -8.9 -61.45 Q-8.75 -62.15 -8.5 -62.85 L-8.35 -63.1 Q-7.9 -64.2 -7.3 -65.05 -7.05 -65.7 -6.95 -66.25 L-7.15 -67.15 M-1.25 -33.95 L-0.85 -33.9 -0.8 -33.9 -0.15 -34.05 -0.15 -34.1 -0.05 -34.35 Q0.05 -34.5 0.05 -34.6 0.05 -34.75 -0.3 -34.85 -0.8 -35.0 -0.95 -35.05 L-1.15 -35.1 -2.0 -35.2 -2.3 -35.2 -2.4 -35.25 -2.95 -35.3 -3.15 -35.15 -3.25 -35.05 Q-3.2 -34.7 -2.65 -34.35 L-2.55 -34.3 -2.3 -34.2 -2.25 -34.15 -2.15 -34.1 -2.0 -34.05 -1.85 -34.05 -1.25 -33.95 M-2.0 -33.95 L-2.1 -33.95 -2.45 -33.95 Q-2.75 -33.95 -3.1 -33.85 L-3.25 -32.4 Q-3.4 -32.0 -3.25 -31.75 -3.1 -31.55 -2.9 -31.4 -2.55 -31.25 -2.0 -31.2 L-1.7 -31.15 -1.15 -31.15 Q0.1 -31.15 0.05 -32.25 L-0.05 -33.15 0.0 -33.55 -0.65 -33.75 -1.55 -33.9 -2.0 -33.95 M-2.55 -17.85 L-2.6 -17.8 -2.65 -17.8 -3.05 -17.75 -3.05 -17.6 -3.2 -16.25 Q-3.35 -15.9 -3.15 -15.6 -3.05 -15.4 -2.8 -15.3 -2.6 -15.2 -2.35 -15.15 L-1.75 -15.05 -1.5 -15.05 -1.2 -15.05 Q0.0 -15.05 -0.05 -16.15 L-0.15 -17.0 -0.1 -17.4 -0.7 -17.55 Q-1.1 -17.7 -1.55 -17.75 L-2.0 -17.8 -2.35 -17.85 -2.45 -17.8 -2.45 -17.85 -2.55 -17.85 M-2.1 -2.95 L-2.45 -2.95 Q-2.75 -2.95 -3.1 -2.85 L-3.25 -1.4 Q-3.4 -1.05 -3.25 -0.75 -3.1 -0.55 -2.9 -0.4 -2.55 -0.25 -2.0 -0.2 L-1.7 -0.15 -1.15 -0.15 Q0.1 -0.15 0.05 -1.25 L-0.05 -2.15 Q-0.05 -2.4 0.0 -2.55 L-0.65 -2.75 -1.55 -2.9 -2.0 -2.95 -2.1 -2.95 M-2.65 13.15 L-3.05 13.25 -3.05 13.4 -3.2 14.75 Q-3.35 15.1 -3.15 15.4 -3.05 15.6 -2.8 15.7 L-2.35 15.85 -1.75 15.95 -1.5 15.95 -1.2 15.95 Q0.0 15.95 -0.05 14.85 L-0.15 14.0 -0.1 13.6 -0.7 13.45 Q-1.1 13.3 -1.55 13.25 L-2.0 13.2 -2.35 13.15 -2.55 13.15 -2.65 13.15 M-2.4 24.75 L-3.2 24.65 Q-3.35 24.95 -3.35 25.1 L-3.15 25.4 Q-3.1 25.45 -3.05 25.45 L-3.05 25.5 -2.9 25.55 -2.75 25.5 -2.35 25.5 -2.0 25.45 -1.9 25.4 Q-1.25 25.35 -0.6 25.15 L-1.9 24.85 -2.35 24.8 -2.4 24.75 M-1.55 27.9 L-2.0 27.9 -2.1 27.9 -2.45 27.9 Q-2.75 27.9 -3.1 28.0 L-3.25 29.45 Q-3.4 29.8 -3.25 30.1 -3.1 30.3 -2.9 30.45 -2.55 30.6 -2.0 30.65 L-1.7 30.7 -1.15 30.7 Q0.1 30.7 0.05 29.6 L-0.05 28.7 Q-0.05 28.45 0.0 28.3 L-0.65 28.1 Q-1.1 28.0 -1.55 27.9 M-1.0 41.65 L-1.0 41.65 M-3.05 44.2 L-3.2 45.6 Q-3.35 45.95 -3.15 46.2 -3.05 46.45 -2.8 46.55 L-2.35 46.7 -1.75 46.8 -1.5 46.8 -1.2 46.8 Q0.0 46.8 -0.05 45.7 L-0.15 44.8 -0.1 44.45 -0.7 44.25 Q-1.1 44.15 -1.55 44.05 L-2.0 44.05 -2.35 44.0 -2.55 44.0 -2.65 44.0 -3.05 44.1 -3.05 44.2 M-1.2 52.85 L-2.5 52.85 -2.5 52.9 -2.45 53.65 -2.4 55.65 -2.35 56.05 Q-2.3 57.5 -1.65 59.95 L-1.5 60.65 -1.4 60.45 -1.3 59.95 Q-0.65 57.5 -0.55 56.05 L-0.55 55.5 -0.4 52.9 -0.4 52.85 -1.2 52.85" fill="#111111" fill-rule="evenodd" stroke="none"/>
      <path d="M4.35 -67.55 L4.7 -67.65 4.95 -67.6 5.1 -67.5 Q4.9 -67.0 5.25 -66.4 5.65 -65.8 6.25 -65.65 5.75 -63.65 6.6 -63.1 6.7 -63.05 6.95 -62.95 L7.25 -62.85 Q7.55 -62.75 7.55 -62.55 7.55 -62.45 7.4 -62.1 7.2 -61.75 7.2 -61.45 7.2 -60.7 7.75 -60.35 L8.1 -60.1 Q8.25 -59.9 8.25 -59.55 L7.95 -59.0 Q7.6 -58.45 7.6 -58.15 7.6 -57.75 8.0 -57.2 8.35 -56.7 8.35 -56.5 L8.2 -55.75 Q8.05 -55.1 8.05 -54.95 8.05 -54.3 8.35 -54.1 8.65 -53.85 8.65 -53.2 8.65 -52.85 8.15 -52.2 7.65 -51.6 7.65 -51.25 7.65 -51.05 7.95 -50.5 L8.25 -49.9 Q8.25 -49.65 8.0 -49.2 L7.85 -48.95 Q7.4 -48.35 7.4 -47.85 7.4 -47.7 7.5 -47.2 L7.6 -46.55 Q7.6 -46.25 6.95 -45.75 L6.95 -45.7 Q6.35 -45.2 6.35 -44.6 6.35 -43.95 6.15 -43.7 6.05 -43.55 5.8 -43.45 5.55 -43.4 5.45 -43.25 5.25 -43.05 5.25 -42.4 5.25 -41.35 4.7 -40.75 L4.35 -40.35 4.05 -41.75 4.0 -42.0 4.2 -42.85 Q4.45 -43.8 4.85 -44.45 5.1 -44.9 5.35 -45.45 5.8 -46.5 6.15 -47.9 6.3 -48.55 6.4 -49.2 6.6 -50.25 6.7 -51.35 6.8 -52.8 6.8 -54.7 6.8 -56.1 6.6 -58.0 6.4 -59.4 6.2 -60.45 L6.25 -60.45 6.05 -61.45 Q5.85 -62.15 5.6 -62.85 L5.5 -63.1 Q5.05 -64.2 4.45 -65.05 4.2 -65.7 4.05 -66.25 L4.35 -67.55 M-7.15 -67.15 L-6.95 -66.25 Q-7.05 -65.7 -7.3 -65.05 -7.9 -64.2 -8.35 -63.1 L-8.5 -62.85 Q-8.75 -62.15 -8.9 -61.45 L-9.15 -60.45 -9.1 -60.45 Q-9.3 -59.4 -9.45 -58.0 -9.7 -56.1 -9.7 -54.7 -9.7 -52.8 -9.55 -51.35 -9.4 -49.45 -9.0 -47.9 -8.65 -46.5 -8.2 -45.45 -8.0 -44.9 -7.7 -44.45 -7.3 -43.8 -7.1 -42.85 L-6.9 -42.0 -6.95 -41.75 -7.2 -40.55 Q-7.6 -41.1 -8.35 -41.15 L-8.35 -41.95 Q-8.4 -42.45 -8.5 -42.75 -8.6 -43.05 -8.85 -43.15 L-9.3 -43.3 Q-9.85 -43.45 -9.85 -44.15 -9.85 -45.6 -10.5 -46.35 L-11.0 -46.85 Q-11.2 -47.05 -11.2 -47.25 L-11.0 -48.0 Q-10.75 -48.6 -10.75 -48.9 -10.75 -49.65 -11.3 -50.4 -11.85 -51.2 -11.85 -51.35 -11.85 -51.7 -11.7 -51.95 L-11.45 -52.25 Q-11.1 -52.65 -11.1 -53.55 -11.1 -54.25 -11.35 -54.7 -11.65 -55.1 -11.65 -55.6 -11.65 -56.0 -11.2 -56.6 -10.8 -57.2 -10.8 -57.85 -10.8 -58.15 -11.0 -58.7 -11.2 -59.25 -11.2 -59.35 -11.2 -59.75 -11.05 -60.0 L-10.6 -60.3 Q-10.05 -60.65 -10.05 -61.5 -10.05 -61.75 -10.15 -62.35 -10.2 -62.95 -9.95 -63.25 -9.3 -63.9 -9.15 -64.15 -8.85 -64.6 -8.85 -65.05 -8.85 -65.85 -8.5 -66.25 -8.3 -66.55 -7.7 -66.85 L-7.15 -67.15" fill="#d8e1c6" fill-rule="evenodd" stroke="none"/>
      <path d="M4.35 -67.55 L4.45 -67.95 4.55 -68.45 4.85 -70.05 Q6.05 -68.55 6.95 -66.75 7.6 -65.45 8.15 -63.95 8.45 -63.1 8.8 -61.85 L8.9 -61.65 8.95 -61.15 9.6 -58.05 9.8 -55.1 9.8 -52.9 9.6 -49.95 9.45 -49.2 8.95 -46.85 8.9 -46.35 8.8 -46.15 8.65 -45.45 8.15 -44.05 Q7.6 -42.55 6.95 -41.25 L6.35 -40.15 Q5.65 -39.0 4.85 -37.95 L4.65 -39.05 4.4 -40.15 4.35 -40.35 4.7 -40.75 Q5.25 -41.35 5.25 -42.4 5.25 -43.05 5.45 -43.25 5.55 -43.4 5.8 -43.45 6.05 -43.55 6.15 -43.7 6.35 -43.95 6.35 -44.6 6.35 -45.2 6.95 -45.7 L6.95 -45.75 Q7.6 -46.25 7.6 -46.55 L7.5 -47.2 Q7.4 -47.7 7.4 -47.85 7.4 -48.35 7.85 -48.95 L8.0 -49.2 Q8.25 -49.65 8.25 -49.9 L7.95 -50.5 Q7.65 -51.05 7.65 -51.25 7.65 -51.6 8.15 -52.2 8.65 -52.85 8.65 -53.2 8.65 -53.85 8.35 -54.1 8.05 -54.3 8.05 -54.95 8.05 -55.1 8.2 -55.75 L8.35 -56.5 Q8.35 -56.7 8.0 -57.2 7.6 -57.75 7.6 -58.15 7.6 -58.45 7.95 -59.0 L8.25 -59.55 Q8.25 -59.9 8.1 -60.1 L7.75 -60.35 Q7.2 -60.7 7.2 -61.45 7.2 -61.75 7.4 -62.1 7.55 -62.45 7.55 -62.55 7.55 -62.75 7.25 -62.85 L6.95 -62.95 Q6.7 -63.05 6.6 -63.1 5.75 -63.65 6.25 -65.65 5.65 -65.8 5.25 -66.4 4.9 -67.0 5.1 -67.5 L4.95 -67.6 4.7 -67.65 4.35 -67.55 M-7.2 -40.55 L-7.3 -40.15 -7.6 -38.7 -7.75 -37.95 Q-8.55 -39.0 -9.25 -40.15 -10.3 -41.95 -11.05 -44.05 L-11.5 -45.45 -11.75 -46.35 -11.85 -46.85 -12.45 -49.95 -12.7 -52.9 -12.7 -55.1 -12.45 -58.05 -11.85 -61.15 -11.75 -61.65 Q-11.35 -63.05 -11.05 -63.95 -10.3 -66.0 -9.3 -67.75 -8.7 -68.75 -8.0 -69.7 L-7.95 -69.8 -7.75 -70.05 -7.7 -69.9 -7.6 -69.35 -7.45 -68.6 -7.15 -67.2 -7.15 -67.15 -7.7 -66.85 Q-8.3 -66.55 -8.5 -66.25 -8.85 -65.85 -8.85 -65.05 -8.85 -64.6 -9.15 -64.15 -9.3 -63.9 -9.95 -63.25 -10.2 -62.95 -10.15 -62.35 -10.05 -61.75 -10.05 -61.5 -10.05 -60.65 -10.6 -60.3 L-11.05 -60.0 Q-11.2 -59.75 -11.2 -59.35 -11.2 -59.25 -11.0 -58.7 -10.8 -58.15 -10.8 -57.85 -10.8 -57.2 -11.2 -56.6 -11.65 -56.0 -11.65 -55.6 -11.65 -55.1 -11.35 -54.7 -11.1 -54.25 -11.1 -53.55 -11.1 -52.65 -11.45 -52.25 L-11.7 -51.95 Q-11.85 -51.7 -11.85 -51.35 -11.85 -51.2 -11.3 -50.4 -10.75 -49.65 -10.75 -48.9 -10.75 -48.6 -11.0 -48.0 L-11.2 -47.25 Q-11.2 -47.05 -11.0 -46.85 L-10.5 -46.35 Q-9.85 -45.6 -9.85 -44.15 -9.85 -43.45 -9.3 -43.3 L-8.85 -43.15 Q-8.6 -43.05 -8.5 -42.75 -8.4 -42.45 -8.35 -41.95 L-8.35 -41.15 Q-7.6 -41.1 -7.2 -40.55" fill="#f1f4ec" fill-rule="evenodd" stroke="none"/>
      <path d="M-1.65 -58.95 L-0.95 -58.95 Q-0.65 -58.9 -0.45 -58.8 -0.25 -58.7 -0.1 -58.7 L0.15 -58.3 0.25 -58.1 0.2 -57.1 0.2 -56.4 Q0.2 -55.95 0.45 -55.7 L0.55 -55.6 Q0.9 -55.3 1.55 -55.3 L1.6 -55.3 Q3.1 -55.35 3.55 -56.1 3.8 -56.45 3.8 -57.4 L3.8 -57.95 Q3.7 -58.55 3.5 -58.95 3.3 -59.35 2.95 -59.5 L2.6 -59.75 Q3.05 -61.45 3.85 -65.15 L4.0 -65.2 4.1 -65.2 Q5.3 -63.65 5.9 -61.5 6.05 -60.7 6.15 -59.9 5.9 -59.35 5.45 -58.55 L5.45 -58.5 3.6 -61.8 3.5 -61.8 Q4.1 -60.55 5.15 -58.0 4.7 -57.1 4.55 -56.55 L4.65 -56.55 5.4 -57.4 6.65 -54.35 6.65 -52.7 Q6.65 -51.7 6.45 -50.3 L6.35 -49.35 5.6 -49.4 4.55 -49.35 4.75 -49.2 5.95 -48.35 6.1 -48.2 6.05 -47.95 Q5.65 -46.45 5.15 -45.45 4.7 -44.5 4.15 -43.95 3.9 -43.75 3.65 -43.6 L3.25 -45.45 2.6 -48.25 2.95 -48.5 Q3.3 -48.65 3.5 -49.05 L3.6 -49.2 Q3.8 -49.75 3.8 -50.6 3.8 -51.55 3.55 -51.9 3.15 -52.6 1.8 -52.65 L1.55 -52.7 Q1.05 -52.7 0.7 -52.5 L0.6 -52.95 0.55 -52.95 Q0.4 -53.45 0.3 -54.55 L0.3 -54.6 0.25 -54.95 0.2 -54.95 0.2 -54.45 0.1 -52.6 Q0.1 -50.6 0.05 -48.75 L0.1 -47.8 0.05 -47.8 0.05 -47.25 Q0.05 -46.35 0.05 -45.45 L0.05 -45.3 0.0 -45.1 Q0.1 -44.9 0.1 -44.65 L0.1 -43.55 0.0 -43.5 Q0.0 -43.45 -0.1 -43.45 -0.15 -43.3 -0.35 -43.25 -0.55 -43.15 -0.95 -43.15 L-1.05 -43.15 Q-1.05 -43.35 -1.15 -43.75 -1.3 -44.25 -1.3 -44.6 -1.3 -46.75 -1.55 -50.5 L-1.6 -50.75 -1.5 -51.15 -1.55 -51.05 Q-1.05 -50.15 -0.85 -49.45 L-0.75 -49.5 Q-1.05 -50.5 -1.05 -51.1 -1.05 -51.8 -1.35 -52.8 L-1.5 -53.25 -1.4 -53.4 Q-1.2 -53.75 -1.2 -53.95 -1.2 -54.95 -1.8 -54.45 L-1.85 -54.4 -1.95 -54.85 -1.85 -55.4 Q-1.8 -55.8 -1.8 -55.95 -1.8 -56.2 -1.7 -56.65 -1.55 -57.1 -1.55 -57.2 -1.55 -57.35 -1.75 -57.6 L-1.8 -57.7 -1.7 -57.7 Q-1.65 -57.7 -1.5 -57.8 -1.3 -57.9 -1.15 -58.1 -1.4 -58.45 -1.65 -58.55 -1.55 -58.7 -1.55 -58.8 L-1.55 -58.95 -1.65 -58.95 M6.35 -58.4 L6.55 -56.5 5.8 -57.85 6.35 -58.4 M-2.55 -43.2 L-2.65 -43.2 Q-2.8 -43.3 -2.8 -43.45 -2.95 -43.65 -2.95 -44.0 L-3.0 -44.8 -3.0 -51.25 -3.05 -54.9 -3.05 -54.95 -3.15 -54.95 Q-3.25 -53.5 -3.45 -52.95 L-3.6 -52.5 Q-3.9 -52.7 -4.4 -52.7 L-5.2 -52.6 Q-6.1 -52.45 -6.45 -51.9 -6.7 -51.55 -6.7 -50.6 -6.7 -49.6 -6.4 -49.05 -6.2 -48.65 -5.85 -48.5 L-5.5 -48.25 -6.15 -45.45 -6.55 -43.6 Q-6.8 -43.75 -7.0 -43.95 -7.6 -44.5 -8.05 -45.45 -8.55 -46.45 -8.9 -47.95 -9.15 -49.0 -9.35 -50.3 -9.55 -51.7 -9.55 -52.7 L-9.5 -55.35 -9.3 -57.75 -8.7 -57.2 Q-8.05 -56.55 -7.75 -55.95 -7.7 -55.95 -7.65 -56.0 L-7.65 -56.05 -9.2 -58.55 -9.15 -59.0 Q-9.05 -60.3 -8.8 -61.5 -8.2 -63.65 -6.95 -65.2 L-6.9 -65.2 -6.7 -65.15 -6.4 -63.65 -6.35 -63.55 -5.55 -60.0 -5.5 -59.8 -5.5 -59.75 -5.75 -59.55 -5.8 -59.65 Q-6.65 -60.7 -7.25 -60.95 -7.1 -60.05 -6.5 -58.95 L-6.45 -58.8 Q-6.7 -58.25 -6.7 -57.4 -6.7 -56.45 -6.45 -56.1 -6.1 -55.55 -5.2 -55.35 L-4.4 -55.3 -3.95 -55.35 Q-3.6 -55.45 -3.35 -55.7 L-3.25 -55.8 Q-3.1 -55.95 -3.1 -56.2 L-3.05 -56.45 -3.05 -57.1 -3.15 -58.3 -3.05 -58.5 -2.95 -58.75 Q-2.8 -58.85 -2.55 -58.85 L-2.7 -58.0 -2.8 -57.2 Q-2.8 -56.1 -2.65 -54.8 L-2.5 -53.45 Q-2.5 -53.25 -2.6 -52.8 -2.75 -52.35 -2.75 -52.1 L-2.65 -51.65 Q-2.55 -51.35 -2.55 -51.25 -2.55 -51.05 -2.7 -50.6 -2.8 -50.15 -2.8 -50.0 -2.8 -49.6 -2.55 -49.35 -2.25 -49.1 -2.25 -48.8 L-2.2 -47.8 -2.4 -47.8 -2.4 -45.85 -2.25 -45.45 -2.25 -45.2 Q-2.25 -45.1 -2.4 -44.85 L-2.4 -44.1 -2.15 -43.65 Q-2.3 -43.65 -2.45 -43.5 L-2.45 -43.45 -2.55 -43.2 M-2.1 -60.9 L-1.2 -60.95 -0.5 -60.85 -0.35 -60.8 0.15 -60.75 0.2 -60.55 Q0.25 -60.5 0.4 -60.45 L0.35 -59.85 0.3 -59.4 0.15 -59.45 -0.25 -59.3 Q-0.6 -59.15 -1.1 -59.15 L-1.8 -59.15 Q-1.75 -59.3 -1.75 -59.45 -1.75 -59.65 -1.9 -60.25 L-2.1 -60.9 M-2.55 -59.2 L-2.7 -59.25 Q-2.95 -59.35 -3.15 -59.9 L-3.25 -60.15 -3.25 -60.35 -3.2 -60.5 Q-3.05 -60.75 -2.3 -60.85 -2.8 -60.4 -2.8 -59.95 -2.75 -59.65 -2.65 -59.4 L-2.55 -59.2 M4.4 -47.95 L4.35 -48.05 Q3.9 -48.25 3.6 -48.0 3.4 -47.85 3.4 -47.6 3.4 -47.45 3.45 -47.4 3.55 -47.2 3.85 -47.2 3.95 -47.2 4.15 -47.35 4.45 -47.5 4.45 -47.75 L4.4 -47.95 M1.35 -54.7 Q1.25 -54.3 1.1 -54.05 L1.3 -54.05 Q1.65 -54.05 1.85 -54.15 2.0 -54.25 2.0 -54.45 2.0 -54.6 1.95 -54.65 L1.95 -54.75 Q1.5 -54.9 1.35 -54.7 M4.95 -54.0 Q4.9 -54.1 4.9 -54.2 4.6 -54.25 4.4 -54.2 4.4 -54.25 4.4 -54.0 4.4 -53.8 4.4 -53.75 L4.45 -53.7 4.9 -53.75 4.95 -54.0 M3.6 -53.7 Q3.8 -53.7 4.05 -54.15 3.8 -54.55 3.5 -54.45 3.25 -54.4 3.25 -54.15 3.25 -53.95 3.25 -53.85 L3.3 -53.75 3.35 -53.75 3.6 -53.7 M-8.15 -49.95 Q-8.3 -49.95 -8.5 -49.6 L-8.45 -49.35 -8.35 -49.25 Q-8.3 -49.2 -8.15 -49.2 -8.0 -49.2 -7.9 -49.3 L-7.8 -49.35 -7.75 -49.6 Q-8.0 -50.0 -8.15 -49.95 M-6.4 -54.35 L-6.15 -54.55 -6.2 -54.7 -6.7 -54.7 Q-6.9 -54.55 -6.9 -54.3 -6.9 -54.15 -6.85 -54.15 L-6.75 -54.2 Q-6.55 -54.2 -6.4 -54.35 M-7.45 -53.65 Q-7.45 -54.2 -8.0 -54.0 -8.5 -53.75 -8.5 -53.4 -8.5 -53.25 -8.45 -53.15 -8.35 -52.95 -8.15 -52.95 -7.95 -52.95 -7.7 -53.2 -7.45 -53.4 -7.45 -53.65 M-1.0 -56.25 L-1.0 -56.35 Q-1.25 -56.4 -1.4 -56.35 -1.5 -56.25 -1.5 -56.05 L-1.45 -55.95 -1.25 -55.7 -1.1 -55.75 -1.0 -55.8 -1.0 -55.85 -0.95 -56.05 Q-0.95 -56.25 -1.0 -56.25 M-1.2 52.85 L-0.4 52.85 -0.4 52.9 -0.55 55.5 -0.55 56.05 Q-0.65 57.5 -1.3 59.95 L-1.4 60.45 Q-1.7 59.4 -1.6 57.6 L-1.6 57.25 -1.25 57.25 -1.2 57.2 Q-1.15 57.2 -1.15 57.05 -1.15 56.85 -1.35 56.7 -1.5 56.65 -1.55 56.6 L-1.55 56.3 -1.4 54.8 -1.2 53.2 -1.2 52.85" fill="#80c0f0" fill-rule="evenodd" stroke="none"/>
      <path d="M-1.4 -61.15 Q-0.35 -61.7 0.05 -62.85 0.2 -63.35 0.25 -64.3 L0.25 -65.4 Q0.25 -66.0 -0.1 -71.5 L-0.1 -71.7 -0.05 -71.55 Q0.7 -68.9 0.7 -66.35 L0.5 -63.15 0.5 -62.65 Q0.25 -61.7 0.25 -61.35 L-1.2 -61.15 -1.4 -61.15 M-1.7 -42.55 L-1.7 -42.5 -1.75 -42.55 -2.1 -42.6 -2.15 -42.6 -2.35 -42.65 -2.3 -42.7 -2.25 -42.7 Q-2.2 -42.7 -2.15 -42.7 L-1.8 -42.8 -1.75 -42.75 Q-1.7 -42.65 -1.7 -42.55 M-2.0 -40.35 L-1.85 -40.3 -1.75 -40.2 -1.8 -40.15 -1.85 -40.15 -1.9 -40.05 -1.95 -40.05 Q-2.0 -40.0 -2.15 -40.0 L-2.7 -40.15 -2.55 -40.15 -2.85 -40.25 -2.8 -40.35 -2.35 -40.4 -2.25 -40.4 -2.35 -40.65 -2.6 -41.4 Q-2.65 -41.5 -2.7 -41.55 -2.8 -41.55 -2.85 -41.65 -2.9 -41.8 -2.8 -41.95 L-2.35 -42.3 -2.4 -42.35 -2.3 -42.35 -2.2 -42.3 -1.7 -42.2 Q-1.75 -41.85 -1.95 -41.5 L-2.2 -41.0 Q-2.3 -40.8 -2.3 -40.65 L-2.25 -40.65 -2.15 -40.5 -2.0 -40.35 M-2.35 -37.55 L-2.45 -37.55 Q-2.55 -38.95 -2.65 -39.45 L-2.7 -39.65 -2.65 -39.8 -2.15 -39.9 -2.1 -39.9 -2.05 -39.85 -1.45 -39.7 -1.55 -39.6 -1.8 -39.45 Q-2.25 -39.0 -2.35 -37.55 M-1.85 -35.3 L-1.9 -35.3 -2.35 -35.45 -2.45 -35.5 -2.35 -35.85 Q-2.25 -36.1 -2.25 -36.45 L-2.35 -36.8 -2.45 -37.05 -2.0 -37.0 -1.95 -36.95 Q-2.05 -36.9 -2.1 -36.8 -2.2 -36.65 -2.2 -36.4 -2.2 -36.2 -2.0 -35.9 -1.85 -35.65 -1.85 -35.4 L-1.85 -35.3 M-2.05 -29.65 L-2.8 -30.0 -2.8 -30.05 -3.05 -30.2 -3.0 -30.85 -2.25 -30.95 -2.0 -30.95 -2.05 -29.65 M-1.95 -27.3 L-2.25 -27.35 -2.35 -27.35 -2.6 -27.4 -2.85 -28.25 Q-2.95 -28.9 -3.0 -29.45 L-2.2 -29.5 -2.05 -29.45 -2.1 -28.5 -2.0 -28.25 Q-1.9 -27.8 -1.95 -27.3 M-2.15 -25.0 L-2.6 -25.05 -2.75 -25.1 -2.7 -25.5 -2.65 -25.7 -2.45 -26.8 -2.45 -26.9 -2.0 -26.9 -2.05 -26.7 Q-2.25 -25.95 -2.2 -25.7 L-2.2 -25.65 Q-2.15 -25.55 -2.15 -25.0 M-2.15 -24.3 L-2.8 -24.4 -2.75 -24.95 -2.25 -24.95 -2.25 -24.9 -2.15 -24.9 -2.15 -24.3 M-2.8 -24.35 L-2.45 -24.25 -2.35 -24.2 -2.25 -24.2 -2.2 -24.15 Q-2.2 -23.25 -2.3 -21.85 L-2.3 -21.55 -2.55 -21.65 -2.6 -21.65 -2.7 -21.7 -2.7 -22.6 Q-2.85 -23.45 -2.8 -24.35 M-2.45 -18.15 L-2.55 -18.15 -2.55 -18.2 -2.6 -18.2 -2.6 -18.4 Q-2.6 -18.6 -2.4 -19.1 -2.65 -19.2 -2.7 -19.35 L-2.7 -19.65 -2.75 -20.0 -2.75 -20.15 Q-2.55 -20.25 -2.3 -20.3 L-2.75 -20.3 -2.8 -21.1 -2.3 -21.0 -2.15 -21.0 -2.15 -20.5 -1.45 -20.55 -1.45 -20.4 -1.7 -20.0 Q-2.35 -18.95 -2.45 -18.15 M-1.9 -13.55 L-2.75 -13.95 -2.95 -14.1 Q-2.9 -14.4 -2.85 -14.75 L-1.75 -14.9 -1.75 -14.8 -1.8 -14.6 -1.9 -13.55 M-1.8 -11.45 L-2.35 -11.5 -2.4 -11.55 Q-2.4 -11.85 -2.85 -13.45 L-1.9 -13.4 Q-1.95 -12.75 -1.9 -12.6 -1.7 -12.0 -1.8 -11.45 M-1.35 -9.6 L-2.9 -9.6 Q-2.4 -10.2 -2.35 -11.05 L-1.9 -11.05 -1.95 -10.75 Q-1.9 -10.6 -1.6 -10.3 -1.35 -10.05 -1.25 -9.9 L-1.35 -9.6 M-2.35 -6.55 L-2.4 -6.6 -2.45 -6.6 -2.5 -7.0 Q-2.6 -8.35 -2.7 -8.65 L-2.65 -8.85 -2.35 -8.85 Q-2.2 -8.9 -2.15 -8.9 L-2.1 -8.9 -2.05 -8.85 -2.05 -8.9 -1.7 -8.8 -1.45 -8.75 -1.45 -8.7 -1.55 -8.6 -1.75 -8.45 Q-1.9 -8.35 -2.0 -8.15 -2.15 -7.9 -2.2 -7.55 L-2.3 -7.0 -2.35 -6.55 M-2.0 -3.1 L-2.3 -3.2 -2.4 -3.25 -2.45 -3.8 -2.65 -6.1 -2.3 -6.05 -2.3 -5.85 Q-2.3 -5.2 -2.1 -4.35 L-1.9 -3.5 Q-1.9 -3.35 -2.0 -3.1 M-2.05 1.35 L-2.8 1.0 -2.8 0.95 -3.05 0.8 -3.05 0.7 -3.0 0.15 -2.25 0.05 -2.0 0.05 -2.0 0.7 -2.05 1.35 M-1.95 3.65 L-1.95 3.7 -2.25 3.65 -2.35 3.65 -2.6 3.6 Q-2.95 2.5 -3.0 1.5 L-2.05 1.5 -2.1 2.5 Q-1.9 3.1 -1.95 3.65 M-2.15 6.0 L-2.6 5.95 -2.75 5.9 -2.7 5.5 -2.6 4.95 -2.45 4.2 -2.45 4.1 -2.0 4.1 -2.05 4.25 -2.2 4.95 -2.2 5.35 Q-2.15 5.45 -2.15 6.0 M-2.3 9.45 L-2.55 9.35 -2.6 9.35 -2.7 9.3 -2.7 8.4 Q-2.85 7.55 -2.8 6.65 L-2.45 6.75 -2.4 6.75 -2.2 6.85 Q-2.2 7.75 -2.3 9.15 L-2.3 9.45 M-2.75 6.05 L-2.65 6.05 -2.5 6.0 -2.25 6.0 -2.25 6.1 -2.15 6.1 -2.15 6.7 -2.8 6.6 -2.75 6.05 M-1.6 11.45 L-1.75 11.45 -2.35 11.3 -2.8 11.05 -2.55 10.05 -2.5 9.95 -2.3 9.95 -2.25 10.0 -2.2 10.0 -2.25 10.7 -1.7 11.25 Q-1.6 11.35 -1.6 11.45 M-2.2 13.0 L-2.4 12.9 -2.55 12.8 -2.6 12.8 -2.75 12.7 -2.85 12.45 Q-3.0 12.05 -3.0 11.95 -3.0 11.45 -2.4 11.6 -2.1 11.7 -1.8 11.9 -1.8 12.1 -1.85 12.0 L-2.15 11.9 -2.15 11.95 Q-2.1 12.25 -2.2 12.85 L-2.2 13.0 M-1.9 17.4 L-2.75 17.0 -2.95 16.9 Q-2.9 16.55 -2.85 16.25 L-1.75 16.1 -1.8 16.35 -1.9 17.4 M-1.8 19.55 L-2.35 19.5 -2.4 19.45 Q-2.4 19.15 -2.85 17.5 L-1.9 17.55 Q-1.95 18.25 -1.9 18.4 -1.7 19.0 -1.8 19.55 M-1.25 21.1 L-1.3 21.25 -2.8 21.25 Q-2.4 20.7 -2.35 19.95 L-1.9 19.95 -1.95 20.25 Q-1.9 20.4 -1.6 20.7 -1.35 20.95 -1.25 21.1 M-2.35 24.3 L-2.4 24.25 -2.45 24.25 Q-2.55 22.55 -2.7 22.2 L-2.65 22.0 -2.4 22.0 -2.15 21.95 -2.05 21.95 -1.45 22.1 -1.45 22.15 -1.55 22.25 Q-2.25 22.55 -2.35 24.3 M-2.0 27.75 L-2.15 27.7 Q-2.1 27.25 -2.25 26.75 L-2.35 25.9 -2.3 25.9 -2.15 26.45 Q-2.05 26.8 -2.0 27.75 M-2.05 32.2 L-2.8 31.85 -2.8 31.8 -3.05 31.65 -3.0 30.95 -2.25 30.9 -2.0 30.85 -2.05 32.2 M-2.15 36.85 L-2.6 36.8 -2.75 36.75 -2.7 36.35 -2.65 36.2 -2.45 35.05 -2.45 34.95 -2.0 34.95 -2.05 35.1 Q-2.25 36.0 -2.2 36.2 -2.15 36.35 -2.15 36.85 M-1.95 34.5 L-1.95 34.55 -2.25 34.5 -2.35 34.45 -2.6 34.45 Q-2.95 33.35 -3.0 32.35 L-2.05 32.35 -2.1 33.35 Q-1.9 33.95 -1.95 34.5 M-2.15 37.55 L-2.8 37.45 -2.75 36.9 -2.75 36.85 -2.25 36.85 -2.25 36.95 -2.15 36.95 -2.15 37.55 M-2.8 37.5 L-2.45 37.55 -2.35 37.6 -2.3 37.65 -2.25 37.65 -2.2 37.65 Q-2.2 38.55 -2.3 40.0 L-2.3 40.3 -2.55 40.2 -2.6 40.2 -2.7 40.15 -2.7 39.2 Q-2.85 38.4 -2.8 37.5 M-2.2 43.85 L-2.4 43.75 -2.55 43.65 -2.6 43.6 -2.6 43.55 -2.5 42.95 Q-2.5 42.7 -2.7 42.5 -2.9 42.25 -2.9 42.05 -2.9 41.9 -2.7 41.7 -2.45 41.5 -2.45 41.15 -2.3 41.35 -2.15 41.7 -2.0 42.05 -2.0 42.15 -2.0 42.5 -2.1 43.35 L-2.2 43.85 M-2.75 40.7 Q-2.55 40.65 -2.3 40.6 L-2.35 40.8 -2.5 41.25 Q-2.6 41.15 -2.7 40.95 L-2.75 40.7 M-1.9 48.25 Q-2.2 48.1 -2.75 47.85 L-2.95 47.75 -2.85 47.05 -1.75 46.95 -1.8 47.2 -1.9 48.25 M-1.85 50.4 L-2.2 50.35 -2.4 50.35 -2.4 50.25 -2.45 50.0 -2.55 49.6 -2.75 48.75 -2.85 48.35 -1.9 48.4 -1.9 48.75 Q-1.9 49.15 -1.9 49.25 L-1.8 49.6 Q-1.75 49.8 -1.75 50.0 L-1.8 50.0 -1.85 50.4 M-1.45 52.3 L-1.9 52.3 -2.0 52.25 -2.15 52.25 -2.9 52.2 Q-2.65 51.95 -2.55 51.6 -2.4 51.25 -2.4 50.8 L-1.9 50.8 -2.0 51.1 Q-1.95 51.25 -1.6 51.55 L-1.55 51.6 Q-1.35 51.8 -1.25 51.95 L-1.35 52.25 -1.45 52.3 M-2.15 -62.3 L-2.2 -62.0 -2.35 -61.95 -2.75 -63.7 Q-3.1 -64.95 -3.1 -65.55 -3.1 -67.05 -2.4 -70.7 -1.75 -74.3 -1.4 -74.65 -1.2 -74.15 -1.1 -73.35 L-1.0 -72.6 -1.0 -72.45 Q-1.0 -72.1 -1.25 -71.15 L-1.45 -70.2 Q-1.45 -70.0 -1.3 -69.55 -1.15 -69.15 -1.15 -68.7 L-1.55 -65.95 -1.7 -65.95 Q-1.75 -66.6 -1.85 -67.4 L-2.05 -68.6 -2.1 -68.6 -2.1 -67.6 Q-1.95 -67.0 -1.95 -66.6 -2.1 -65.95 -2.05 -65.3 -2.05 -64.5 -1.7 -64.2 -1.75 -63.85 -1.85 -63.55 L-1.95 -63.05 -2.15 -62.3 M-1.85 -34.05 L-2.0 -34.05 -2.15 -34.1 -2.25 -34.15 -2.3 -34.2 -2.3 -34.25 Q-2.2 -34.5 -2.2 -34.6 -2.2 -34.75 -2.3 -34.95 -2.4 -35.15 -2.4 -35.25 L-2.3 -35.2 -2.0 -35.2 -2.0 -35.05 -1.95 -34.5 -1.85 -34.1 -1.85 -34.05 M-2.1 -33.95 L-2.0 -33.95 Q-1.95 -33.0 -2.0 -31.55 L-2.0 -31.2 Q-2.55 -31.25 -2.9 -31.4 L-2.7 -32.05 Q-2.3 -33.05 -2.2 -33.5 -2.15 -33.75 -2.1 -33.95 M-2.8 -15.3 L-2.7 -15.95 Q-2.55 -17.15 -2.55 -17.85 L-2.45 -17.85 -2.45 -17.8 -2.35 -17.85 -2.3 -17.6 -2.2 -16.85 -1.6 -16.4 -1.75 -15.05 -2.35 -15.15 Q-2.6 -15.2 -2.8 -15.3 M-2.1 -2.95 L-2.0 -2.95 Q-1.95 -2.0 -2.0 -0.55 L-2.0 -0.2 Q-2.55 -0.25 -2.9 -0.4 L-2.7 -1.05 Q-2.3 -2.05 -2.2 -2.5 -2.15 -2.75 -2.1 -2.95 M-2.55 13.15 L-2.35 13.15 Q-2.3 13.3 -2.3 13.4 L-2.2 14.15 -1.6 14.6 -1.75 15.95 -2.35 15.85 -2.8 15.7 -2.7 15.0 Q-2.55 13.85 -2.55 13.15 M-2.4 24.75 L-2.35 24.8 -2.35 25.5 -2.4 24.75 M-2.0 30.65 Q-2.55 30.6 -2.9 30.45 L-2.7 29.8 Q-2.3 28.8 -2.2 28.35 -2.15 28.1 -2.1 27.9 L-2.0 27.9 Q-1.95 28.85 -2.0 30.3 L-2.0 30.65 M-2.8 46.55 L-2.7 45.85 Q-2.55 44.7 -2.55 44.0 L-2.35 44.0 Q-2.3 44.1 -2.3 44.25 L-2.2 45.0 -1.6 45.45 -1.75 46.8 -2.35 46.7 -2.8 46.55" fill="#ff9999" fill-rule="evenodd" stroke="none"/>
      <path d="M-0.1 -71.7 L-0.1 -71.5 Q0.25 -66.0 0.25 -65.4 L0.25 -64.3 Q0.2 -63.35 0.05 -62.85 -0.35 -61.7 -1.4 -61.15 L-2.75 -61.25 Q-3.05 -61.65 -3.2 -62.6 -3.3 -63.1 -3.4 -63.4 L-3.5 -64.75 -3.6 -66.35 Q-3.6 -68.9 -2.8 -71.55 L-2.25 -73.3 Q-2.1 -73.9 -2.05 -74.3 L-1.9 -74.6 -1.45 -75.75 -0.95 -74.6 -0.85 -74.3 Q-0.8 -73.9 -0.6 -73.3 L-0.1 -71.7 M-1.05 -42.45 L-1.7 -42.55 Q-1.7 -42.65 -1.75 -42.75 L-1.8 -42.8 -1.2 -42.9 Q-1.1 -42.8 -1.05 -42.7 -1.0 -42.6 -1.05 -42.45 M-1.6 -40.4 L-2.0 -40.35 -2.15 -40.5 -2.25 -40.65 -2.3 -40.65 Q-2.3 -40.8 -2.2 -41.0 L-1.95 -41.5 Q-1.75 -41.85 -1.7 -42.2 L-1.55 -42.15 Q-1.5 -41.8 -1.55 -41.05 L-1.55 -40.65 Q-1.55 -40.5 -1.6 -40.4 M-1.85 -40.3 L-1.55 -40.35 -1.35 -40.25 -1.1 -40.25 -1.05 -40.15 -1.0 -40.15 -0.95 -40.0 -0.95 -39.9 -1.05 -39.8 -1.9 -39.95 -1.9 -40.05 -1.85 -40.15 -1.8 -40.15 -1.75 -40.2 -1.85 -40.3 M-2.35 -40.4 L-2.85 -40.5 -2.85 -40.65 -3.1 -40.4 Q-3.35 -40.65 -3.4 -41.1 L-3.4 -42.3 Q-3.3 -42.55 -2.95 -42.6 L-2.9 -42.55 Q-2.65 -42.45 -2.4 -42.35 L-2.35 -42.3 -2.8 -41.95 Q-2.9 -41.8 -2.85 -41.65 -2.8 -41.55 -2.7 -41.55 -2.65 -41.5 -2.6 -41.4 L-2.35 -40.65 -2.25 -40.4 -2.35 -40.4 M-1.3 -37.35 Q-1.9 -37.4 -2.35 -37.55 -2.25 -39.0 -1.8 -39.45 L-1.55 -39.6 -1.45 -39.7 -1.2 -39.6 -1.15 -39.6 -0.9 -39.55 -0.9 -39.45 Q-0.75 -38.9 -0.8 -38.35 -0.9 -37.7 -1.3 -37.35 M-2.45 -37.55 Q-2.95 -37.75 -3.2 -38.0 -3.35 -38.2 -3.4 -38.45 L-3.45 -38.5 -3.45 -38.65 Q-3.4 -38.85 -3.4 -39.2 -3.35 -39.25 -3.4 -39.35 L-3.25 -39.65 -3.25 -39.8 -2.65 -39.8 -2.7 -39.65 -2.65 -39.45 Q-2.55 -38.95 -2.45 -37.55 M-1.15 -36.95 L-1.05 -36.8 Q-0.95 -36.55 -0.95 -36.4 -0.95 -36.3 -1.0 -35.8 L-1.1 -35.25 -1.05 -35.1 -1.85 -35.3 -1.85 -35.4 Q-1.85 -35.65 -2.0 -35.9 -2.2 -36.2 -2.2 -36.4 -2.2 -36.65 -2.1 -36.8 -2.05 -36.9 -1.95 -36.95 L-2.0 -37.0 -1.6 -36.9 -1.3 -36.95 -1.15 -36.95 M-2.45 -35.5 L-2.75 -35.65 -3.15 -35.8 -3.15 -36.4 -3.35 -36.75 Q-3.35 -36.9 -3.2 -37.2 L-2.45 -37.05 -2.35 -36.8 -2.25 -36.45 Q-2.25 -36.1 -2.35 -35.85 L-2.45 -35.5 M-1.45 -29.45 L-1.65 -29.5 -1.7 -29.5 -2.05 -29.65 -2.0 -30.95 -1.1 -31.05 Q-1.15 -30.7 -1.25 -30.15 -1.35 -29.7 -1.45 -29.45 M-3.05 -30.2 L-3.2 -30.25 -3.1 -30.85 -3.0 -30.85 -3.05 -30.2 M-1.8 -27.3 L-1.95 -27.3 Q-1.9 -27.8 -2.0 -28.25 L-2.1 -28.5 -2.05 -29.45 -1.6 -29.4 -1.35 -29.35 -1.3 -29.2 Q-1.2 -28.85 -1.35 -28.25 L-1.4 -28.05 Q-1.55 -27.6 -1.8 -27.3 M-2.6 -27.4 L-3.0 -27.45 -3.1 -27.55 -3.15 -27.5 -3.2 -27.55 Q-3.2 -27.7 -3.25 -28.0 L-3.25 -28.25 -3.35 -28.55 -3.25 -29.0 -3.3 -29.15 Q-3.3 -29.4 -3.0 -29.45 -2.95 -28.9 -2.85 -28.25 L-2.6 -27.4 M-1.3 -25.0 L-2.15 -25.0 Q-2.15 -25.55 -2.2 -25.65 L-2.2 -25.7 Q-2.25 -25.95 -2.05 -26.7 L-2.0 -26.9 -1.15 -26.9 -1.0 -26.7 Q-1.0 -26.1 -1.1 -25.7 -1.2 -25.25 -1.3 -25.0 M-2.75 -25.1 Q-3.0 -25.15 -3.15 -25.35 L-3.2 -25.35 -3.2 -25.45 Q-3.15 -25.5 -3.2 -25.7 L-3.2 -25.85 -3.25 -26.3 Q-3.05 -26.65 -3.0 -26.9 L-2.45 -26.9 -2.45 -26.8 -2.65 -25.7 -2.7 -25.5 -2.75 -25.1 M-0.95 -24.85 Q-0.9 -24.65 -0.95 -24.4 -0.95 -24.2 -1.05 -24.1 L-1.4 -24.15 -2.15 -24.3 -2.15 -24.9 -0.95 -24.85 M-2.8 -24.4 L-2.85 -24.4 -3.1 -24.45 -2.8 -24.35 Q-2.85 -23.45 -2.7 -22.6 L-2.7 -21.7 -2.95 -21.85 Q-3.0 -21.85 -3.0 -21.9 L-3.15 -22.0 -3.25 -22.1 Q-3.25 -22.8 -3.4 -23.75 -3.35 -23.8 -3.35 -23.85 -3.25 -24.25 -3.25 -24.4 -3.25 -24.5 -3.3 -24.55 L-3.25 -24.55 -3.2 -24.95 -2.75 -24.95 -2.8 -24.4 M-2.25 -24.2 L-1.25 -23.85 -1.3 -23.85 Q-1.0 -23.3 -1.2 -21.85 L-1.3 -21.35 -1.5 -21.4 -1.7 -21.4 Q-2.0 -21.45 -2.3 -21.55 L-2.3 -21.85 Q-2.2 -23.25 -2.2 -24.15 L-2.25 -24.2 M-1.25 -20.8 L-1.25 -20.55 Q-1.25 -20.45 -1.1 -20.2 L-0.95 -19.9 Q-0.95 -19.3 -1.1 -18.9 -1.25 -18.55 -1.25 -17.8 L-1.4 -17.8 Q-1.95 -17.9 -2.4 -18.1 L-2.45 -18.15 Q-2.35 -18.95 -1.7 -20.0 L-1.45 -20.4 -1.45 -20.55 -2.15 -20.5 -2.15 -21.0 -1.25 -20.8 M-2.6 -18.2 Q-3.1 -18.55 -3.25 -18.8 L-3.3 -19.0 -3.05 -19.75 Q-3.05 -19.9 -2.9 -20.0 L-2.75 -20.15 -2.75 -20.0 -2.7 -19.65 -2.7 -19.35 Q-2.65 -19.2 -2.4 -19.1 -2.6 -18.6 -2.6 -18.4 L-2.6 -18.2 M-2.75 -20.3 L-2.95 -20.3 Q-3.05 -20.3 -3.1 -20.3 L-3.1 -20.35 Q-3.1 -20.4 -3.2 -20.4 -3.3 -20.5 -3.35 -20.75 L-3.3 -21.0 -3.2 -21.2 -2.8 -21.1 -2.75 -20.3 M-1.2 -14.9 L-1.15 -14.8 Q-1.0 -14.4 -1.1 -14.0 -1.2 -13.65 -1.5 -13.4 L-1.65 -13.45 -1.7 -13.45 -1.9 -13.55 -1.8 -14.6 -1.75 -14.8 -1.75 -14.9 -1.55 -14.9 -1.2 -14.95 -1.2 -14.9 M-2.95 -14.1 L-3.1 -14.2 -3.0 -14.75 -2.85 -14.75 Q-2.9 -14.4 -2.95 -14.1 M-1.5 -11.4 L-1.8 -11.45 Q-1.7 -12.0 -1.9 -12.6 -1.95 -12.75 -1.9 -13.4 L-1.3 -13.3 -1.25 -13.15 Q-1.05 -12.65 -1.25 -11.95 -1.35 -11.65 -1.5 -11.4 M-2.35 -11.5 L-2.85 -11.55 -2.95 -11.65 -3.0 -11.6 -3.05 -11.65 -3.1 -12.05 Q-3.2 -12.4 -3.2 -12.6 -3.15 -12.8 -3.1 -13.0 -3.15 -13.1 -3.15 -13.15 -3.15 -13.4 -2.85 -13.45 -2.4 -11.85 -2.4 -11.55 L-2.35 -11.5 M-2.9 -9.6 Q-2.95 -9.65 -3.05 -9.7 L-3.05 -9.95 -3.15 -10.35 -3.15 -10.4 -3.1 -10.55 -2.9 -11.05 -2.35 -11.05 Q-2.4 -10.2 -2.9 -9.6 M-1.9 -11.05 L-1.15 -11.05 -1.15 -11.0 Q-1.05 -10.7 -1.15 -10.15 -1.2 -10.0 -1.25 -9.9 -1.35 -10.05 -1.6 -10.3 -1.9 -10.6 -1.95 -10.75 L-1.9 -11.05 M-1.05 -8.85 L-1.55 -8.9 -1.9 -8.95 -1.9 -9.05 Q-1.9 -9.15 -2.05 -9.25 L-2.05 -9.3 -1.95 -9.3 -1.1 -9.35 -1.0 -9.15 Q-0.9 -8.95 -0.95 -8.9 L-1.05 -8.85 M-1.3 -6.35 L-1.85 -6.4 -2.35 -6.55 -2.3 -7.0 -2.2 -7.55 Q-2.15 -7.9 -2.0 -8.15 -1.9 -8.35 -1.75 -8.45 L-1.55 -8.6 -1.45 -8.7 -1.45 -8.75 -1.2 -8.65 -1.15 -8.65 -1.1 -8.6 -0.9 -8.55 Q-0.8 -8.1 -0.8 -7.65 L-0.8 -7.35 Q-0.85 -7.15 -0.9 -7.0 -1.0 -6.65 -1.25 -6.4 L-1.25 -6.35 -1.3 -6.35 M-2.45 -6.6 L-2.5 -6.6 Q-2.95 -6.75 -3.2 -7.0 -3.35 -7.2 -3.4 -7.45 L-3.45 -7.5 -3.45 -7.65 Q-3.4 -7.9 -3.4 -8.2 -3.35 -8.25 -3.4 -8.35 L-3.25 -8.65 -3.25 -8.8 -2.95 -8.8 -2.65 -8.85 -2.7 -8.65 Q-2.6 -8.35 -2.5 -7.0 L-2.45 -6.6 M-1.45 -2.95 L-1.85 -3.05 -1.95 -3.05 -2.0 -3.1 Q-1.9 -3.35 -1.9 -3.5 L-2.1 -4.35 Q-2.3 -5.2 -2.3 -5.85 L-2.3 -6.05 -1.2 -5.85 Q-1.35 -4.75 -1.45 -2.95 M-2.4 -3.25 L-2.55 -3.3 -2.65 -3.35 Q-3.25 -3.75 -3.25 -4.1 L-3.25 -4.4 -3.3 -4.8 -3.25 -5.55 -3.35 -5.75 Q-3.35 -5.9 -3.2 -6.2 L-2.65 -6.1 -2.45 -3.8 -2.4 -3.25 M-1.45 1.55 L-1.65 1.5 -1.7 1.5 -2.05 1.35 -2.0 0.7 -2.0 0.05 -1.1 -0.05 Q-1.15 0.25 -1.25 0.7 L-1.25 0.85 Q-1.35 1.25 -1.45 1.55 M-3.05 0.8 L-3.2 0.75 -3.2 0.7 -3.1 0.15 -3.0 0.15 -3.05 0.7 -3.05 0.8 M-1.8 3.7 L-1.95 3.65 Q-1.9 3.1 -2.1 2.5 L-2.05 1.5 -1.6 1.6 -1.35 1.65 -1.3 1.8 Q-1.15 2.2 -1.4 2.95 -1.55 3.4 -1.8 3.7 M-2.6 3.6 L-3.0 3.55 -3.1 3.45 -3.15 3.5 -3.2 3.45 Q-3.2 3.3 -3.25 3.0 L-3.35 2.45 -3.25 2.0 -3.3 1.85 Q-3.3 1.6 -3.0 1.5 -2.95 2.5 -2.6 3.6 M-1.15 4.1 Q-1.05 4.2 -1.0 4.3 -1.0 4.65 -1.05 4.95 -1.15 5.65 -1.3 6.0 L-2.15 6.0 Q-2.15 5.45 -2.2 5.35 L-2.2 4.95 -2.05 4.25 -2.0 4.1 -1.15 4.1 M-2.75 5.9 Q-3.0 5.8 -3.15 5.65 L-3.2 5.65 -3.2 5.55 Q-3.15 5.5 -3.2 5.3 L-3.2 4.95 -3.25 4.65 Q-3.05 4.3 -3.0 4.1 L-2.45 4.1 -2.45 4.2 -2.6 4.95 -2.7 5.5 -2.75 5.9 M-1.5 9.6 L-1.7 9.6 Q-2.0 9.55 -2.3 9.45 L-2.3 9.15 Q-2.2 7.75 -2.2 6.85 L-2.4 6.75 -1.25 7.1 -1.3 7.15 Q-1.0 7.7 -1.2 9.1 L-1.3 9.65 -1.5 9.6 M-2.7 9.3 L-2.95 9.15 -3.0 9.1 -3.15 9.0 -3.25 8.9 Q-3.25 8.2 -3.4 7.25 -3.35 7.15 -3.35 7.1 -3.25 6.75 -3.25 6.6 -3.25 6.5 -3.3 6.45 L-3.1 6.45 -3.25 6.4 -3.2 6.05 -2.75 6.05 -2.8 6.6 -2.85 6.6 -3.1 6.55 -2.8 6.65 Q-2.85 7.55 -2.7 8.4 L-2.7 9.3 M-2.15 6.1 L-0.95 6.15 Q-0.9 6.35 -0.95 6.6 -0.95 6.8 -1.05 6.9 L-1.4 6.85 -2.15 6.7 -2.15 6.1 M-1.5 10.15 Q-1.4 10.55 -1.4 10.7 -1.4 10.75 -1.5 10.95 -1.65 11.15 -1.65 11.25 -1.65 11.35 -1.55 11.45 L-1.6 11.45 Q-1.6 11.35 -1.7 11.25 L-2.25 10.7 -2.2 10.0 -2.15 10.0 -1.5 10.15 M-2.8 11.05 L-3.2 10.8 -3.3 10.7 -3.3 10.45 -3.35 10.25 Q-3.35 10.1 -3.2 9.8 L-2.5 9.95 -2.55 10.05 -2.8 11.05 M-1.4 13.2 Q-1.85 13.15 -2.2 13.0 L-2.2 12.85 Q-2.1 12.25 -2.15 11.95 L-2.15 11.9 -1.85 12.0 Q-1.8 12.1 -1.8 11.9 -2.1 11.7 -2.4 11.6 -3.0 11.45 -3.0 11.95 -3.0 12.05 -2.85 12.45 L-2.75 12.7 Q-3.25 12.35 -3.3 12.0 L-3.25 11.95 -3.35 11.75 Q-3.15 11.75 -3.05 11.55 L-3.05 11.4 -3.0 11.45 -2.85 11.5 -2.7 11.4 -1.25 11.55 Q-1.2 11.7 -1.2 11.75 -1.2 12.05 -1.45 13.0 L-1.4 13.2 M-1.2 16.05 L-1.15 16.2 Q-1.0 16.6 -1.1 17.0 -1.2 17.35 -1.5 17.55 L-1.65 17.5 -1.7 17.5 -1.9 17.4 -1.8 16.35 -1.75 16.1 -1.55 16.1 -1.2 16.05 M-2.95 16.9 L-3.1 16.8 -3.0 16.25 -2.85 16.25 Q-2.9 16.55 -2.95 16.9 M-1.5 19.6 L-1.8 19.55 Q-1.7 19.0 -1.9 18.4 -1.95 18.25 -1.9 17.55 L-1.6 17.6 -1.3 17.7 -1.25 17.85 Q-1.05 18.35 -1.25 19.0 -1.35 19.35 -1.5 19.6 M-2.35 19.5 L-2.85 19.45 -2.95 19.3 -3.0 19.4 -3.05 19.35 -3.1 18.95 Q-3.2 18.6 -3.2 18.4 L-3.1 18.0 Q-3.15 17.9 -3.15 17.85 -3.15 17.6 -2.85 17.5 -2.4 19.15 -2.4 19.45 L-2.35 19.5 M-1.15 19.9 L-1.15 19.95 Q-1.05 20.3 -1.15 20.85 L-1.25 21.1 Q-1.35 20.95 -1.6 20.7 -1.9 20.4 -1.95 20.25 L-1.9 19.95 -1.7 19.95 -1.15 19.9 M-2.8 21.25 L-3.05 21.25 -3.05 21.0 -3.15 20.6 -3.1 20.45 -2.9 19.95 -2.35 19.95 Q-2.4 20.7 -2.8 21.25 M-1.05 22.0 L-1.9 21.85 -1.9 21.8 Q-1.9 21.75 -1.95 21.65 L-2.05 21.6 -2.05 21.55 -1.95 21.55 -1.1 21.5 -1.0 21.65 Q-0.9 21.9 -0.95 21.95 L-1.05 22.0 M-1.3 24.5 Q-1.9 24.45 -2.35 24.3 -2.25 22.55 -1.55 22.25 L-1.45 22.15 -1.45 22.1 -1.2 22.2 -1.15 22.2 -0.9 22.3 Q-0.75 22.9 -0.8 23.45 -0.9 24.1 -1.3 24.5 M-2.45 24.25 Q-2.95 24.1 -3.2 23.85 -3.35 23.65 -3.4 23.4 L-3.45 23.35 -3.45 23.2 Q-3.4 22.95 -3.4 22.65 -3.35 22.6 -3.4 22.5 L-3.25 22.2 -3.25 22.0 -2.65 22.0 -2.7 22.2 Q-2.55 22.55 -2.45 24.25 M-1.85 27.8 L-1.95 27.8 -2.0 27.75 Q-2.05 26.8 -2.15 26.45 L-2.3 25.9 -1.9 25.85 -1.4 25.75 -1.35 25.8 Q-1.45 27.25 -1.85 27.8 M-2.15 27.7 L-2.3 27.65 -2.55 27.5 -2.65 27.5 Q-3.25 27.1 -3.25 26.75 -3.25 26.6 -3.15 26.3 L-3.05 26.05 -2.35 25.9 -2.25 26.75 Q-2.1 27.25 -2.15 27.7 M-1.45 32.4 L-1.65 32.35 -1.7 32.3 -2.05 32.2 -2.0 30.85 -1.1 30.8 Q-1.15 31.1 -1.25 31.7 -1.35 32.1 -1.45 32.4 M-3.05 31.65 L-3.2 31.55 -3.1 31.0 -3.0 30.95 -3.05 31.65 M-1.3 36.85 L-2.15 36.85 Q-2.15 36.35 -2.2 36.2 -2.25 36.0 -2.05 35.1 L-2.0 34.95 -1.15 34.95 Q-1.05 35.0 -1.0 35.15 -1.05 35.75 -1.1 36.2 -1.2 36.6 -1.3 36.85 M-2.75 36.75 Q-3.0 36.65 -3.15 36.5 L-3.2 36.5 -3.2 36.4 Q-3.2 36.35 -3.2 36.2 L-3.2 36.0 -3.25 35.5 Q-3.05 35.15 -3.0 34.95 L-2.45 34.95 -2.45 35.05 -2.65 36.2 -2.7 36.35 -2.75 36.75 M-1.8 34.55 L-1.95 34.5 Q-1.9 33.95 -2.1 33.35 L-2.05 32.35 -1.6 32.45 -1.35 32.5 -1.3 32.65 Q-1.15 33.05 -1.4 33.8 -1.55 34.25 -1.8 34.55 M-2.6 34.45 L-3.0 34.4 -3.1 34.3 -3.15 34.35 -3.2 34.3 Q-3.2 34.1 -3.25 33.85 L-3.35 33.3 -3.25 32.85 -3.3 32.7 Q-3.3 32.4 -3.0 32.35 -2.95 33.35 -2.6 34.45 M-0.95 37.0 Q-0.9 37.2 -0.95 37.45 -0.95 37.65 -1.05 37.75 L-1.4 37.7 -2.15 37.55 -2.15 36.95 -0.95 37.0 M-2.8 37.45 L-2.85 37.45 -3.1 37.4 -2.8 37.5 Q-2.85 38.4 -2.7 39.2 L-2.7 40.15 -2.95 40.0 -3.0 39.95 -3.15 39.85 -3.25 39.75 -3.25 39.7 Q-3.25 39.05 -3.4 38.1 -3.35 38.0 -3.35 37.95 -3.25 37.6 -3.25 37.45 -3.25 37.35 -3.3 37.3 L-3.1 37.3 -3.25 37.25 -3.2 36.9 -2.75 36.9 -2.8 37.45 M-2.25 37.65 L-1.25 37.95 -1.3 38.0 Q-1.0 38.5 -1.2 39.95 L-1.3 40.5 -1.5 40.45 -1.7 40.45 Q-2.0 40.4 -2.3 40.3 L-2.3 40.0 Q-2.2 38.55 -2.2 37.65 L-2.25 37.65 M-1.25 40.55 Q-1.25 40.8 -1.2 41.2 -1.2 41.7 -1.4 44.05 L-2.2 43.85 -2.1 43.35 Q-2.0 42.5 -2.0 42.15 -2.0 42.05 -2.15 41.7 -2.3 41.35 -2.45 41.15 -2.45 41.5 -2.7 41.7 -2.9 41.9 -2.9 42.05 -2.9 42.25 -2.7 42.5 -2.5 42.7 -2.5 42.95 L-2.6 43.55 -2.6 43.6 Q-3.25 43.2 -3.3 42.85 L-3.2 42.6 -3.25 42.55 Q-3.35 42.2 -3.35 41.75 L-3.3 41.25 -3.35 41.1 Q-3.35 40.95 -3.2 40.65 L-2.75 40.7 -2.7 40.95 Q-2.6 41.15 -2.5 41.25 L-2.35 40.8 -2.3 40.6 -2.2 40.55 -1.25 40.55 M-1.2 46.9 L-1.15 47.05 Q-1.0 47.45 -1.1 47.85 -1.2 48.2 -1.5 48.4 L-1.65 48.35 -1.7 48.35 -1.9 48.25 -1.8 47.2 -1.75 46.95 -1.55 46.95 -1.2 46.9 M-2.95 47.75 L-3.1 47.65 Q-3.1 47.35 -3.0 47.1 L-2.9 47.1 -2.85 47.05 -2.95 47.75 M-1.5 50.45 L-1.85 50.4 -1.8 50.0 -1.75 50.0 Q-1.75 49.8 -1.8 49.6 L-1.9 49.25 Q-1.9 49.15 -1.9 48.75 L-1.9 48.4 -1.6 48.45 -1.3 48.55 -1.2 48.75 Q-1.1 49.15 -1.2 49.6 L-1.25 49.85 -1.3 50.0 Q-1.4 50.25 -1.5 50.45 M-2.4 50.35 L-2.75 50.3 -2.9 50.3 -2.95 50.2 -2.95 50.15 -3.0 50.2 -3.0 50.25 -3.05 50.15 -3.1 50.0 -3.05 50.0 -3.1 49.75 -3.15 49.6 -3.2 49.25 Q-3.15 49.05 -3.1 48.85 L-3.15 48.75 -3.15 48.7 Q-3.15 48.45 -2.85 48.35 L-2.75 48.75 -2.55 49.6 -2.45 50.0 -2.4 50.25 -2.4 50.35 M-2.9 52.2 L-3.05 52.15 -3.05 51.85 -3.1 51.7 -3.1 51.6 -3.15 51.45 -3.1 51.3 -2.9 50.8 -2.4 50.8 Q-2.4 51.25 -2.55 51.6 -2.65 51.95 -2.9 52.2 M-1.9 50.8 L-1.75 50.8 -1.2 50.75 -1.15 50.8 Q-1.05 51.1 -1.15 51.6 L-1.15 51.7 -1.2 51.75 -1.2 51.9 -1.25 51.95 Q-1.35 51.8 -1.55 51.6 L-1.6 51.55 Q-1.95 51.25 -2.0 51.1 L-1.9 50.8 M-1.0 -72.6 L-1.1 -73.35 Q-1.2 -74.15 -1.4 -74.65 -1.75 -74.3 -2.4 -70.7 -3.1 -67.05 -3.1 -65.55 -3.1 -64.95 -2.75 -63.7 L-2.35 -61.95 -2.2 -62.0 -2.15 -62.3 -2.1 -62.2 Q-1.85 -61.85 -1.55 -61.85 -1.1 -61.85 -0.85 -62.3 -0.4 -62.8 -0.3 -64.15 -0.2 -65.25 -0.3 -66.6 -0.3 -67.6 -0.35 -68.65 L-0.5 -70.95 Q-0.6 -72.25 -0.9 -72.5 -0.95 -72.6 -1.0 -72.6 M-1.15 -35.1 L-1.15 -35.05 Q-1.05 -34.7 -1.05 -34.55 -1.05 -34.35 -1.35 -34.0 L-1.4 -33.95 -1.25 -33.95 -1.85 -34.05 -1.85 -34.1 -1.95 -34.5 -2.0 -35.05 -2.0 -35.2 -1.15 -35.1 M-2.3 -34.2 L-2.55 -34.3 -2.65 -34.35 Q-3.2 -34.7 -3.25 -35.05 L-3.15 -35.15 -2.95 -35.3 -2.4 -35.25 Q-2.4 -35.15 -2.3 -34.95 -2.2 -34.75 -2.2 -34.6 -2.2 -34.5 -2.3 -34.25 L-2.3 -34.2 M-2.0 -33.95 L-1.55 -33.9 Q-1.35 -33.7 -1.3 -33.45 -1.1 -32.9 -1.25 -32.15 -1.35 -31.5 -1.7 -31.15 L-2.0 -31.2 -2.0 -31.55 Q-1.95 -33.0 -2.0 -33.95 M-2.9 -31.4 Q-3.1 -31.55 -3.25 -31.75 -3.4 -32.0 -3.25 -32.4 L-3.1 -33.85 Q-2.75 -33.95 -2.45 -33.95 L-2.1 -33.95 Q-2.15 -33.75 -2.2 -33.5 -2.3 -33.05 -2.7 -32.05 L-2.9 -31.4 M-2.65 -17.8 L-2.6 -17.8 -2.55 -17.85 Q-2.55 -17.15 -2.7 -15.95 L-2.8 -15.3 Q-3.05 -15.4 -3.15 -15.6 -3.35 -15.9 -3.2 -16.25 L-3.05 -17.6 -2.8 -17.8 -2.65 -17.8 M-2.35 -17.85 L-2.0 -17.8 -1.55 -17.75 Q-1.25 -17.55 -1.1 -17.15 -0.95 -16.65 -1.15 -15.85 -1.25 -15.35 -1.5 -15.05 L-1.75 -15.05 -1.6 -16.4 -2.2 -16.85 -2.3 -17.6 -2.35 -17.85 M-2.9 -0.4 Q-3.1 -0.55 -3.25 -0.75 -3.4 -1.05 -3.25 -1.4 L-3.1 -2.85 Q-2.75 -2.95 -2.45 -2.95 L-2.1 -2.95 Q-2.15 -2.75 -2.2 -2.5 -2.3 -2.05 -2.7 -1.05 L-2.9 -0.4 M-2.0 -2.95 L-1.55 -2.9 Q-1.35 -2.7 -1.3 -2.45 -1.1 -1.9 -1.25 -1.15 -1.35 -0.5 -1.7 -0.15 L-2.0 -0.2 -2.0 -0.55 Q-1.95 -2.0 -2.0 -2.95 M-3.05 13.4 L-2.8 13.2 -2.65 13.15 -2.55 13.15 Q-2.55 13.85 -2.7 15.0 L-2.8 15.7 Q-3.05 15.6 -3.15 15.4 -3.35 15.1 -3.2 14.75 L-3.05 13.4 M-2.35 13.15 L-2.0 13.2 -1.55 13.25 Q-1.25 13.45 -1.1 13.85 -0.95 14.3 -1.15 15.15 -1.25 15.65 -1.5 15.95 L-1.75 15.95 -1.6 14.6 -2.2 14.15 -2.3 13.4 Q-2.3 13.3 -2.35 13.15 M-2.35 25.5 L-2.75 25.5 -2.9 25.55 -3.05 25.5 -3.05 25.45 Q-3.1 25.45 -3.15 25.4 L-3.35 25.1 Q-3.35 24.95 -3.2 24.65 L-2.4 24.75 -2.35 25.5 -2.35 24.8 -1.9 24.85 -1.9 25.25 Q-1.9 25.35 -1.9 25.4 L-2.0 25.45 -2.35 25.5 M-2.0 27.9 L-1.55 27.9 Q-1.35 28.15 -1.3 28.4 -1.1 28.95 -1.25 29.7 -1.35 30.35 -1.7 30.7 L-2.0 30.65 -2.0 30.3 Q-1.95 28.85 -2.0 27.9 M-2.9 30.45 Q-3.1 30.3 -3.25 30.1 -3.4 29.8 -3.25 29.45 L-3.1 28.0 Q-2.75 27.9 -2.45 27.9 L-2.1 27.9 Q-2.15 28.1 -2.2 28.35 -2.3 28.8 -2.7 29.8 L-2.9 30.45 M-3.05 44.2 L-2.8 44.05 -2.65 44.0 -2.55 44.0 Q-2.55 44.7 -2.7 45.85 L-2.8 46.55 Q-3.05 46.45 -3.15 46.2 -3.35 45.95 -3.2 45.6 L-3.05 44.2 M-2.35 44.0 L-2.0 44.05 -1.55 44.05 Q-1.25 44.3 -1.1 44.65 -0.95 45.15 -1.15 46.0 -1.25 46.5 -1.5 46.8 L-1.75 46.8 -1.6 45.45 -2.2 45.0 -2.3 44.25 Q-2.3 44.1 -2.35 44.0" fill="#b00000" fill-rule="evenodd" stroke="none"/>
      <path d="M-1.2 -42.9 L-0.6 -43.05 -0.2 -43.05 Q-0.1 -43.1 0.35 -43.05 L0.4 -43.0 0.45 -42.75 Q0.45 -42.55 0.3 -42.5 0.2 -42.45 0.0 -42.45 L-0.1 -42.45 -0.25 -42.4 Q-0.65 -42.4 -1.05 -42.45 -1.0 -42.6 -1.05 -42.7 -1.1 -42.8 -1.2 -42.9 M-1.55 -42.15 L-1.15 -42.1 -0.25 -42.0 Q-0.15 -42.1 0.05 -42.15 0.5 -42.3 0.5 -41.7 0.5 -41.5 0.35 -41.3 0.2 -41.15 0.1 -41.1 0.0 -41.0 -0.15 -41.0 -0.3 -40.9 -0.5 -40.75 L-0.7 -40.65 Q-1.1 -40.45 -1.6 -40.4 -1.55 -40.5 -1.55 -40.65 L-1.55 -41.05 Q-1.5 -41.8 -1.55 -42.15 M-1.55 -40.35 L-0.65 -40.45 -0.35 -40.45 Q-0.3 -40.55 -0.2 -40.5 -0.1 -40.7 0.1 -40.75 0.45 -40.75 0.45 -40.25 L0.45 -40.15 0.7 -40.15 Q0.7 -39.95 0.55 -39.8 L0.35 -39.65 0.3 -39.55 -0.3 -39.7 -1.05 -39.8 -0.95 -39.9 -0.95 -40.0 -1.0 -40.15 -1.05 -40.15 -1.1 -40.25 -1.35 -40.25 -1.55 -40.35 M-0.9 -39.55 L-0.65 -39.45 -0.5 -39.35 -0.05 -39.2 0.55 -38.9 0.35 -38.3 Q0.25 -37.85 0.3 -37.55 L0.25 -37.3 -1.3 -37.35 Q-0.9 -37.7 -0.8 -38.35 -0.75 -38.9 -0.9 -39.45 L-0.9 -39.55 M-1.15 -36.95 L-0.3 -36.85 -0.25 -36.85 Q0.05 -36.75 0.15 -36.6 L0.15 -36.45 Q0.15 -36.25 0.2 -36.2 L0.3 -36.15 Q0.35 -36.0 0.35 -35.85 0.35 -35.75 0.25 -35.15 L0.25 -34.95 0.15 -34.95 -0.95 -35.05 -1.0 -35.05 -1.05 -35.1 -1.1 -35.25 -1.0 -35.8 Q-0.95 -36.3 -0.95 -36.4 -0.95 -36.55 -1.05 -36.8 L-1.15 -36.95 M-1.1 -31.05 L-0.35 -31.1 Q-0.2 -31.1 0.0 -30.95 L0.3 -30.8 Q0.3 -30.25 0.3 -29.5 L0.3 -29.3 0.05 -29.25 Q-0.75 -29.3 -1.45 -29.45 -1.35 -29.7 -1.25 -30.15 -1.15 -30.7 -1.1 -31.05 M-1.35 -29.35 Q-0.15 -29.05 0.25 -28.25 L0.3 -28.05 0.3 -27.8 0.2 -27.75 0.2 -27.5 0.05 -27.4 -0.55 -27.3 -0.95 -27.25 -1.8 -27.3 Q-1.55 -27.6 -1.4 -28.05 L-1.35 -28.25 Q-1.2 -28.85 -1.3 -29.2 L-1.35 -29.35 M-1.15 -26.9 L-0.2 -26.95 -0.2 -26.85 0.4 -26.85 Q0.35 -26.35 0.3 -25.7 L0.3 -25.3 0.25 -25.3 0.15 -25.25 Q0.05 -25.15 -0.05 -25.1 L-1.3 -25.0 Q-1.2 -25.25 -1.1 -25.7 -1.0 -26.1 -1.0 -26.7 L-1.15 -26.9 M-0.95 -24.85 L-0.4 -24.75 -0.35 -24.7 0.3 -24.7 Q0.25 -24.15 0.15 -23.85 L-0.3 -23.95 -1.4 -24.15 -1.05 -24.1 Q-0.95 -24.2 -0.95 -24.4 -0.9 -24.65 -0.95 -24.85 M-1.25 -23.85 L-0.55 -23.6 -0.1 -23.4 0.25 -23.2 0.2 -22.45 Q0.15 -21.7 0.05 -21.3 L-1.5 -21.4 -1.3 -21.35 -1.2 -21.85 Q-1.0 -23.3 -1.3 -23.85 L-1.25 -23.85 M-1.25 -20.8 L-0.6 -20.65 -0.8 -20.6 -0.4 -20.6 -0.1 -20.55 -0.05 -20.55 0.2 -20.5 Q0.1 -20.45 0.1 -20.35 0.25 -20.2 0.3 -20.0 L0.3 -19.8 Q0.35 -19.7 0.2 -19.05 L0.15 -18.8 0.1 -18.05 Q-0.75 -17.8 -0.85 -17.8 L-1.25 -17.8 Q-1.25 -18.55 -1.1 -18.9 -0.95 -19.3 -0.95 -19.9 L-1.1 -20.2 Q-1.25 -20.45 -1.25 -20.55 L-1.25 -20.8 M-1.2 -14.9 L-0.45 -15.0 Q-0.3 -15.0 -0.1 -14.85 L0.2 -14.7 0.15 -13.35 0.2 -13.3 Q0.15 -13.25 0.0 -13.25 -0.85 -13.2 -1.5 -13.4 -1.2 -13.65 -1.1 -14.0 -1.0 -14.4 -1.15 -14.8 L-1.2 -14.9 M-1.3 -13.3 Q-0.1 -13.0 0.15 -12.15 L0.15 -11.9 Q0.15 -11.85 0.05 -11.85 L0.05 -11.65 -0.05 -11.5 -0.65 -11.4 -1.0 -11.35 -1.5 -11.4 Q-1.35 -11.65 -1.25 -11.95 -1.05 -12.65 -1.25 -13.15 L-1.3 -13.3 M-1.15 -11.05 L-0.3 -11.1 -0.3 -11.05 0.4 -11.05 0.4 -10.9 Q0.45 -10.3 0.25 -9.95 0.2 -9.75 0.1 -9.6 L-1.35 -9.6 -1.25 -9.9 Q-1.2 -10.0 -1.15 -10.15 -1.05 -10.7 -1.15 -11.0 L-1.15 -11.05 M-1.1 -9.35 L-0.95 -9.35 0.4 -9.2 0.35 -9.1 0.4 -8.9 0.4 -8.8 0.3 -8.55 0.25 -8.55 Q0.05 -8.65 -0.3 -8.7 L-0.5 -8.75 -1.05 -8.85 -0.95 -8.9 Q-0.9 -8.95 -1.0 -9.15 L-1.1 -9.35 M-2.05 -9.25 L-2.05 -9.3 -2.05 -9.25 M-0.9 -8.55 L-0.5 -8.35 -0.05 -8.2 0.1 -8.1 0.55 -7.9 0.35 -7.3 0.3 -7.0 Q0.25 -6.55 0.35 -6.3 L-0.55 -6.3 -1.25 -6.35 -1.3 -6.35 -1.25 -6.35 -1.25 -6.4 Q-1.0 -6.65 -0.9 -7.0 -0.85 -7.15 -0.8 -7.35 L-0.8 -7.65 Q-0.8 -8.1 -0.9 -8.55 M-1.2 -5.85 L-1.1 -5.8 Q-0.55 -5.8 -0.25 -5.65 L-0.1 -5.55 0.0 -5.6 0.25 -5.55 Q0.2 -5.5 0.2 -5.4 0.35 -5.15 0.35 -4.85 0.35 -4.75 0.25 -4.15 0.2 -3.5 0.2 -3.15 L-0.8 -2.9 -1.45 -2.95 Q-1.35 -4.75 -1.2 -5.85 M-1.1 -0.05 L-0.35 -0.1 Q-0.2 -0.1 0.0 0.0 L0.3 0.2 0.3 1.7 0.05 1.75 Q-0.75 1.7 -1.45 1.55 -1.35 1.25 -1.25 0.85 L-1.25 0.7 Q-1.15 0.25 -1.1 -0.05 M-1.35 1.65 Q0.0 2.0 0.3 2.9 L0.3 3.2 0.2 3.25 0.2 3.45 0.05 3.6 -0.55 3.65 -0.95 3.75 -1.8 3.7 Q-1.55 3.4 -1.4 2.95 -1.15 2.2 -1.3 1.8 L-1.35 1.65 M-1.15 4.1 L-0.2 4.05 -0.2 4.1 0.4 4.15 0.35 4.95 Q0.3 5.3 0.3 5.65 L0.25 5.7 0.15 5.75 Q0.05 5.8 -0.05 5.9 L-1.3 6.0 Q-1.15 5.65 -1.05 4.95 -1.0 4.65 -1.0 4.3 -1.05 4.2 -1.15 4.1 M-1.25 7.1 L-0.55 7.4 -0.1 7.6 Q0.15 7.7 0.25 7.8 L0.2 8.5 Q0.15 9.3 0.05 9.7 L-1.5 9.6 -1.3 9.65 -1.2 9.1 Q-1.0 7.7 -1.3 7.15 L-1.25 7.1 M-0.95 6.15 Q-0.45 6.2 -0.4 6.25 L-0.35 6.3 0.3 6.3 0.15 7.15 -0.3 7.05 -1.4 6.85 -1.05 6.9 Q-0.95 6.8 -0.95 6.6 -0.9 6.35 -0.95 6.15 M-1.5 10.15 L-1.15 10.2 -0.75 10.2 -0.25 10.25 Q0.05 10.3 0.15 10.5 L0.2 10.5 0.2 10.75 0.1 11.0 0.05 11.25 Q-0.2 11.3 -0.6 11.4 L-0.95 11.45 -1.4 11.5 -1.5 11.5 -1.55 11.45 Q-1.65 11.35 -1.65 11.25 -1.65 11.15 -1.5 10.95 -1.4 10.75 -1.4 10.7 -1.4 10.55 -1.5 10.15 M-1.25 11.55 L-0.55 11.65 -0.5 11.65 Q-0.2 11.7 -0.05 11.85 L0.05 11.9 0.15 12.2 Q0.1 12.7 0.1 12.95 L-0.85 13.2 -1.4 13.2 -1.45 13.0 Q-1.2 12.05 -1.2 11.75 -1.2 11.7 -1.25 11.55 M-1.2 16.05 L-0.45 16.0 Q-0.3 16.0 -0.1 16.1 L0.2 16.3 0.15 17.65 0.2 17.7 Q0.15 17.75 0.0 17.75 -0.85 17.75 -1.5 17.55 -1.2 17.35 -1.1 17.0 -1.0 16.6 -1.15 16.2 L-1.2 16.05 M-1.3 17.7 Q-0.1 18.0 0.15 18.85 L0.15 19.1 0.05 19.15 0.05 19.35 -0.05 19.5 -0.65 19.55 -1.0 19.6 -1.5 19.6 Q-1.35 19.35 -1.25 19.0 -1.05 18.35 -1.25 17.85 L-1.3 17.7 M-1.15 19.9 L-0.3 19.9 -0.3 19.95 0.4 19.95 0.4 20.1 Q0.45 20.7 0.25 21.05 L0.2 21.25 -1.3 21.25 -1.25 21.1 -1.15 20.85 Q-1.05 20.3 -1.15 19.95 L-1.15 19.9 M-1.1 21.5 L-0.95 21.5 Q-0.15 21.5 0.4 21.6 L0.4 21.65 0.35 21.75 0.4 21.95 0.3 22.3 Q0.1 22.2 -0.3 22.15 L-1.05 22.0 -0.95 21.95 Q-0.9 21.9 -1.0 21.65 L-1.1 21.5 M-2.05 21.6 L-2.05 21.55 -2.05 21.6 M-0.9 22.3 Q-0.7 22.35 -0.5 22.5 L-0.05 22.65 0.55 22.95 0.35 23.55 Q0.2 24.2 0.35 24.55 L0.25 24.55 -1.3 24.5 Q-0.9 24.1 -0.8 23.45 -0.75 22.9 -0.9 22.3 M-1.4 25.75 Q-0.6 25.55 0.0 25.25 L0.25 25.3 Q0.2 25.35 0.2 25.45 0.35 25.7 0.35 26.0 L0.25 26.7 Q0.2 27.35 0.2 27.7 L-0.8 27.95 Q-1.35 27.95 -1.85 27.8 -1.45 27.25 -1.35 25.8 L-1.4 25.75 M-1.1 30.8 L-0.35 30.75 Q-0.2 30.75 0.0 30.85 L0.3 31.05 Q0.3 31.6 0.3 32.3 L0.3 32.55 0.05 32.6 Q-0.75 32.55 -1.45 32.4 -1.35 32.1 -1.25 31.7 -1.15 31.1 -1.1 30.8 M-1.15 34.95 L-0.2 34.9 -0.2 34.95 0.4 35.0 Q0.35 35.5 0.3 36.2 L0.3 36.5 0.25 36.55 0.15 36.55 -0.05 36.75 -1.3 36.85 Q-1.2 36.6 -1.1 36.2 -1.05 35.75 -1.0 35.15 -1.05 35.0 -1.15 34.95 M-1.35 32.5 Q0.0 32.85 0.3 33.75 L0.3 34.05 0.2 34.1 0.2 34.3 Q0.15 34.35 0.05 34.4 L-0.55 34.5 -0.95 34.6 -1.8 34.55 Q-1.55 34.25 -1.4 33.8 -1.15 33.05 -1.3 32.65 L-1.35 32.5 M-0.95 37.0 Q-0.45 37.05 -0.4 37.1 L-0.35 37.15 0.3 37.15 0.15 38.0 -0.3 37.9 -1.4 37.7 -1.05 37.75 Q-0.95 37.65 -0.95 37.45 -0.9 37.2 -0.95 37.0 M-1.25 37.95 Q-1.0 38.0 -0.55 38.25 L-0.1 38.45 Q0.15 38.55 0.25 38.6 L0.2 39.35 Q0.15 40.15 0.05 40.55 L-1.3 40.5 -1.2 39.95 Q-1.0 38.5 -1.3 38.0 L-1.25 37.95 M-1.25 40.55 Q-0.85 40.6 -0.5 40.8 -0.05 41.05 0.0 41.3 L0.2 41.35 Q0.1 41.4 0.1 41.45 0.3 41.75 0.3 42.05 0.35 42.15 0.2 42.8 0.1 43.45 0.1 43.8 L-0.85 44.05 -1.4 44.05 Q-1.2 41.7 -1.2 41.2 -1.25 40.8 -1.25 40.55 M-1.2 46.9 L-0.45 46.85 Q-0.3 46.85 -0.1 46.95 L0.2 47.15 0.15 48.5 0.2 48.55 Q0.15 48.6 0.0 48.6 -0.85 48.6 -1.5 48.4 -1.2 48.2 -1.1 47.85 -1.0 47.45 -1.15 47.05 L-1.2 46.9 M-1.3 48.55 Q-0.95 48.65 -0.65 48.75 -0.1 49.1 0.1 49.6 L0.15 49.7 0.15 49.95 0.05 50.0 0.05 50.2 -0.05 50.35 -0.35 50.35 -0.95 50.45 -1.5 50.45 Q-1.4 50.25 -1.3 50.0 L-1.25 49.85 -1.2 49.6 Q-1.1 49.15 -1.2 48.75 L-1.3 48.55 M-1.2 50.75 L-0.3 50.75 -0.3 50.8 0.4 50.8 0.4 50.95 Q0.4 51.3 0.35 51.6 L0.25 51.9 Q0.2 52.1 0.05 52.2 L-0.1 52.25 -0.2 52.25 -1.1 52.35 -1.35 52.35 -1.4 52.3 -1.45 52.3 -1.35 52.25 -1.25 51.95 -1.2 51.9 -1.2 51.75 -1.15 51.7 -1.15 51.6 Q-1.05 51.1 -1.15 50.8 L-1.2 50.75 M-1.0 -72.6 Q-0.95 -72.6 -0.9 -72.5 -0.6 -72.25 -0.5 -70.95 L-0.35 -68.65 Q-0.3 -67.6 -0.3 -66.6 -0.2 -65.25 -0.3 -64.15 -0.4 -62.8 -0.85 -62.3 -1.1 -61.85 -1.55 -61.85 -1.85 -61.85 -2.1 -62.2 L-2.15 -62.3 -1.95 -63.05 -1.85 -63.55 Q-1.75 -63.85 -1.7 -64.2 -2.05 -64.5 -2.05 -65.3 -2.1 -65.95 -1.95 -66.6 -1.95 -67.0 -2.1 -67.6 L-2.1 -68.6 -2.05 -68.6 -1.85 -67.4 Q-1.75 -66.6 -1.7 -65.95 L-1.55 -65.95 -1.15 -68.7 Q-1.15 -69.15 -1.3 -69.55 -1.45 -70.0 -1.45 -70.2 L-1.25 -71.15 Q-1.0 -72.1 -1.0 -72.45 L-1.0 -72.6 M-1.15 -35.1 L-0.95 -35.05 Q-0.8 -35.0 -0.3 -34.85 0.05 -34.75 0.05 -34.6 0.05 -34.5 -0.05 -34.35 L-0.15 -34.1 -0.15 -34.05 -0.8 -33.9 -0.85 -33.9 -1.25 -33.95 -1.4 -33.95 -1.35 -34.0 Q-1.05 -34.35 -1.05 -34.55 -1.05 -34.7 -1.15 -35.05 L-1.15 -35.1 M-1.55 -33.9 L-0.65 -33.75 0.0 -33.55 -0.05 -33.15 0.05 -32.25 Q0.1 -31.15 -1.15 -31.15 L-1.7 -31.15 Q-1.35 -31.5 -1.25 -32.15 -1.1 -32.9 -1.3 -33.45 -1.35 -33.7 -1.55 -33.9 M-2.65 -17.8 L-2.8 -17.8 -3.05 -17.6 -3.05 -17.75 -2.65 -17.8 M-1.55 -17.75 Q-1.1 -17.7 -0.7 -17.55 L-0.1 -17.4 -0.15 -17.0 -0.05 -16.15 Q0.0 -15.05 -1.2 -15.05 L-1.5 -15.05 Q-1.25 -15.35 -1.15 -15.85 -0.95 -16.65 -1.1 -17.15 -1.25 -17.55 -1.55 -17.75 M-1.55 -2.9 L-0.65 -2.75 0.0 -2.55 Q-0.05 -2.4 -0.05 -2.15 L0.05 -1.25 Q0.1 -0.15 -1.15 -0.15 L-1.7 -0.15 Q-1.35 -0.5 -1.25 -1.15 -1.1 -1.9 -1.3 -2.45 -1.35 -2.7 -1.55 -2.9 M-3.05 13.4 L-3.05 13.25 -2.65 13.15 -2.8 13.2 -3.05 13.4 M-1.55 13.25 Q-1.1 13.3 -0.7 13.45 L-0.1 13.6 -0.15 14.0 -0.05 14.85 Q0.0 15.95 -1.2 15.95 L-1.5 15.95 Q-1.25 15.65 -1.15 15.15 -0.95 14.3 -1.1 13.85 -1.25 13.45 -1.55 13.25 M-1.9 24.85 L-0.6 25.15 Q-1.25 25.35 -1.9 25.4 -1.9 25.35 -1.9 25.25 L-1.9 24.85 M-1.55 27.9 Q-1.1 28.0 -0.65 28.1 L0.0 28.3 Q-0.05 28.45 -0.05 28.7 L0.05 29.6 Q0.1 30.7 -1.15 30.7 L-1.7 30.7 Q-1.35 30.35 -1.25 29.7 -1.1 28.95 -1.3 28.4 -1.35 28.15 -1.55 27.9 M-1.0 41.65 L-1.0 41.65 M-2.65 44.0 L-2.8 44.05 -3.05 44.2 -3.05 44.1 -2.65 44.0 M-1.5 46.8 Q-1.25 46.5 -1.15 46.0 -0.95 45.15 -1.1 44.65 -1.25 44.3 -1.55 44.05 -1.1 44.15 -0.7 44.25 L-0.1 44.45 -0.15 44.8 -0.05 45.7 Q0.0 46.8 -1.2 46.8 L-1.5 46.8" fill="#600000" fill-rule="evenodd" stroke="none"/>
      <path d="M6.15 -59.9 L6.25 -59.0 6.35 -58.4 5.8 -57.85 6.55 -56.5 6.65 -55.4 6.65 -54.35 5.4 -57.4 4.65 -56.55 4.55 -56.55 Q4.7 -57.1 5.15 -58.0 4.1 -60.55 3.5 -61.8 L3.6 -61.8 5.45 -58.5 5.45 -58.55 Q5.9 -59.35 6.15 -59.9 M6.35 -49.35 L6.3 -49.2 6.2 -48.75 6.15 -48.35 6.1 -48.25 6.1 -48.2 5.95 -48.35 4.75 -49.2 4.55 -49.35 5.6 -49.4 6.35 -49.35 M-1.05 -43.15 L-1.6 -43.1 -1.7 -43.1 -2.55 -43.2 -2.45 -43.45 -2.45 -43.5 Q-2.3 -43.65 -2.15 -43.65 L-2.4 -44.1 -2.4 -44.85 Q-2.25 -45.1 -2.25 -45.2 L-2.25 -45.45 -2.4 -45.85 -2.4 -47.8 -2.2 -47.8 -2.25 -48.8 Q-2.25 -49.1 -2.55 -49.35 -2.8 -49.6 -2.8 -50.0 -2.8 -50.15 -2.7 -50.6 -2.55 -51.05 -2.55 -51.25 -2.55 -51.35 -2.65 -51.65 L-2.75 -52.1 Q-2.75 -52.35 -2.6 -52.8 -2.5 -53.25 -2.5 -53.45 L-2.65 -54.8 Q-2.8 -56.1 -2.8 -57.2 L-2.7 -58.0 -2.55 -58.85 -2.1 -58.95 -1.65 -58.95 -1.55 -58.95 -1.55 -58.8 Q-1.55 -58.7 -1.65 -58.55 -1.4 -58.45 -1.15 -58.1 -1.3 -57.9 -1.5 -57.8 -1.65 -57.7 -1.7 -57.7 L-1.8 -57.7 -1.75 -57.6 Q-1.55 -57.35 -1.55 -57.2 -1.55 -57.1 -1.7 -56.65 -1.8 -56.2 -1.8 -55.95 -1.8 -55.8 -1.85 -55.4 L-1.95 -54.85 -1.85 -54.4 -1.8 -54.45 Q-1.2 -54.95 -1.2 -53.95 -1.2 -53.75 -1.4 -53.4 L-1.5 -53.25 -1.35 -52.8 Q-1.05 -51.8 -1.05 -51.1 -1.05 -50.5 -0.75 -49.5 L-0.85 -49.45 Q-1.05 -50.15 -1.55 -51.05 L-1.5 -51.15 -1.6 -50.75 -1.55 -50.5 Q-1.3 -46.75 -1.3 -44.6 -1.3 -44.25 -1.15 -43.75 -1.05 -43.35 -1.05 -43.15 M-9.3 -57.75 L-9.2 -58.55 -7.65 -56.05 -7.65 -56.0 Q-7.7 -55.95 -7.75 -55.95 -8.05 -56.55 -8.7 -57.2 L-9.3 -57.75 M-5.75 -59.55 L-5.85 -59.5 Q-6.2 -59.35 -6.4 -58.95 L-6.45 -58.8 -6.5 -58.95 Q-7.1 -60.05 -7.25 -60.95 -6.65 -60.7 -5.8 -59.65 L-5.75 -59.55 M-2.1 -60.9 L-1.9 -60.25 Q-1.75 -59.65 -1.75 -59.45 -1.75 -59.3 -1.8 -59.15 L-2.55 -59.2 -2.65 -59.4 Q-2.75 -59.65 -2.8 -59.95 -2.8 -60.4 -2.3 -60.85 L-2.1 -60.9 M3.6 -53.7 L3.35 -53.75 3.3 -53.75 3.25 -53.85 Q3.25 -53.95 3.25 -54.15 3.25 -54.4 3.5 -54.45 3.8 -54.55 4.05 -54.15 3.8 -53.7 3.6 -53.7 M4.95 -54.0 L4.9 -53.75 4.45 -53.7 4.4 -53.75 Q4.4 -53.8 4.4 -54.0 4.4 -54.25 4.4 -54.2 4.6 -54.25 4.9 -54.2 4.9 -54.1 4.95 -54.0 M1.35 -54.7 Q1.5 -54.9 1.95 -54.75 L1.95 -54.65 Q2.0 -54.6 2.0 -54.45 2.0 -54.25 1.85 -54.15 1.65 -54.05 1.3 -54.05 L1.1 -54.05 Q1.25 -54.3 1.35 -54.7 M4.4 -47.95 L4.45 -47.75 Q4.45 -47.5 4.15 -47.35 3.95 -47.2 3.85 -47.2 3.55 -47.2 3.45 -47.4 3.4 -47.45 3.4 -47.6 3.4 -47.85 3.6 -48.0 3.9 -48.25 4.35 -48.05 L4.4 -47.95 M-1.0 -56.25 Q-0.95 -56.25 -0.95 -56.05 L-1.0 -55.85 -1.0 -55.8 -1.1 -55.75 -1.25 -55.7 -1.45 -55.95 -1.5 -56.05 Q-1.5 -56.25 -1.4 -56.35 -1.25 -56.4 -1.0 -56.35 L-1.0 -56.25 M-7.45 -53.65 Q-7.45 -53.4 -7.7 -53.2 -7.95 -52.95 -8.15 -52.95 -8.35 -52.95 -8.45 -53.15 -8.5 -53.25 -8.5 -53.4 -8.5 -53.75 -8.0 -54.0 -7.45 -54.2 -7.45 -53.65 M-6.4 -54.35 Q-6.55 -54.2 -6.75 -54.2 L-6.85 -54.15 Q-6.9 -54.15 -6.9 -54.3 -6.9 -54.55 -6.7 -54.7 L-6.2 -54.7 -6.15 -54.55 -6.4 -54.35 M-8.15 -49.95 Q-8.0 -50.0 -7.75 -49.6 L-7.8 -49.35 -7.9 -49.3 Q-8.0 -49.2 -8.15 -49.2 -8.3 -49.2 -8.35 -49.25 L-8.45 -49.35 -8.5 -49.6 Q-8.3 -49.95 -8.15 -49.95 M-1.4 60.45 L-1.5 60.65 -1.65 59.95 Q-2.3 57.5 -2.35 56.05 L-2.4 55.65 -2.45 53.65 -2.5 52.9 -2.5 52.85 -1.2 52.85 -1.2 53.2 -1.4 54.8 -1.55 56.3 -1.55 56.6 Q-1.5 56.65 -1.35 56.7 -1.15 56.85 -1.15 57.05 -1.15 57.2 -1.2 57.2 L-1.25 57.25 -1.6 57.25 -1.6 57.6 Q-1.7 59.4 -1.4 60.45" fill="#d0f0f0" fill-rule="evenodd" stroke="none"/>
    </g>
  </defs>
</svg>
