<?xml version="1.0" encoding="UTF-8" standalone="no"?>
<svg xmlns:ffdec="https://www.free-decompiler.com/flash" xmlns:xlink="http://www.w3.org/1999/xlink" ffdec:objectType="frame" height="569.1px" width="275.8px" xmlns="http://www.w3.org/2000/svg">
  <g transform="matrix(1.0, 0.0, 0.0, 1.0, 123.9, 502.25)">
    <use ffdec:characterId="1374" height="79.1" transform="matrix(7.0, 0.0, 0.0, 7.0, -107.1, -494.55)" width="35.75" xlink:href="#shape0"/>
  </g>
  <defs>
    <g id="shape0" transform="matrix(1.0, 0.0, 0.0, 1.0, 15.3, 70.65)">
      <path d="M2.55 -70.65 Q5.2 -69.2 6.1 -65.95 L4.6 -65.85 Q3.65 -65.5 2.95 -64.85 L2.45 -62.8 Q2.15 -61.95 1.35 -62.2 1.9 -65.75 1.8 -69.75 1.8 -70.55 2.55 -70.65 M9.25 -57.7 Q11.9 -55.8 10.3 -53.0 10.75 -53.25 11.35 -53.35 14.45 -50.5 10.35 -49.25 10.3 -49.25 10.25 -49.3 10.15 -49.65 10.25 -49.95 9.1 -50.5 8.4 -52.5 L8.3 -51.15 Q5.75 -50.7 7.0 -53.25 L7.1 -53.4 7.15 -53.5 Q7.2 -55.45 9.05 -57.55 9.15 -57.65 9.25 -57.7 M13.45 -45.6 Q16.0 -43.45 15.2 -40.1 L15.15 -40.0 Q14.75 -40.35 14.45 -40.8 L12.75 -41.45 Q12.35 -41.15 11.65 -41.2 12.35 -43.3 13.25 -45.4 13.3 -45.55 13.45 -45.6 M16.4 -30.3 Q15.5 -31.5 14.6 -32.55 14.55 -32.6 14.5 -32.7 14.8 -33.5 15.35 -34.1 15.65 -34.4 16.0 -34.45 16.8 -34.35 17.55 -34.15 L17.75 -34.0 Q18.05 -32.15 17.05 -30.65 16.85 -30.3 16.4 -30.3 M5.2 -21.25 Q6.45 -14.2 5.6 -6.85 5.3 -4.25 7.7 -3.1 8.65 -2.65 9.25 -2.0 9.1 -3.7 10.95 -6.05 L10.95 -6.1 11.8 -0.25 Q11.95 -0.8 12.15 -1.35 12.45 -2.25 13.25 -2.5 16.0 0.85 20.4 1.75 20.45 1.75 20.45 1.85 19.5 2.4 18.55 2.6 L19.35 2.4 Q19.05 4.75 15.25 4.25 15.15 4.25 15.05 4.3 L15.0 5.1 15.0 5.4 Q9.95 8.45 5.1 5.1 6.05 3.65 7.65 3.2 5.3 2.6 3.9 -0.45 3.65 0.25 3.2 0.95 2.55 3.8 -1.45 4.3 -1.15 4.6 -1.0 4.9 L-0.4 4.75 Q0.45 4.9 1.0 5.5 L1.05 5.65 Q0.1 7.5 -1.05 7.45 -1.4 7.75 -2.0 7.9 -6.5 9.2 -8.65 7.55 -9.95 8.4 -11.35 6.9 -11.35 6.05 -10.65 5.4 -10.4 5.15 -10.15 5.1 L-10.15 5.05 Q-10.95 4.85 -11.85 4.6 -13.05 4.8 -14.55 4.8 L-14.6 4.75 Q-10.45 3.05 -8.85 -0.4 -8.95 -1.85 -8.05 -3.3 L-8.0 -3.6 -7.95 -3.45 -7.55 -3.95 -7.45 -4.0 Q-6.55 -1.7 -6.9 0.8 -2.5 -3.6 -0.75 -9.5 L-0.7 -9.35 Q-0.55 -9.85 -0.2 -10.4 L-0.2 -10.45 Q0.7 -9.35 1.25 -7.95 2.5 -10.85 3.3 -13.95 4.3 -20.0 4.2 -25.65 L4.55 -24.4 4.5 -25.35 4.65 -25.4 Q5.05 -23.25 5.2 -21.25 M7.55 -2.3 Q6.9 -2.05 7.0 -1.25 8.0 4.9 11.1 0.6 L11.05 0.5 Q8.65 -0.1 7.55 -2.3 M2.7 -9.2 L2.65 -8.9 Q1.4 -3.15 -1.15 1.95 -1.05 1.95 -1.05 1.9 0.0 0.45 0.75 -1.05 0.25 0.25 -0.3 1.55 1.15 0.8 1.4 -0.95 2.15 -0.75 2.9 -0.75 2.95 -0.8 3.0 -0.85 3.4 -4.85 3.0 -9.5 2.8 -9.55 2.8 -9.45 2.7 -9.35 2.7 -9.2 M-4.05 -50.0 Q-5.35 -48.6 -5.6 -46.75 -5.0 -47.4 -4.2 -47.75 -3.05 -46.95 -3.0 -45.7 L-3.2 -43.3 Q-3.25 -43.2 -3.35 -43.15 -4.05 -43.85 -3.95 -45.0 L-4.75 -45.45 Q-5.9 -44.85 -7.0 -44.1 -7.25 -48.0 -7.35 -52.15 -7.35 -53.6 -6.3 -54.15 -3.75 -53.15 -3.05 -50.55 -2.55 -49.95 -2.65 -48.9 L-2.7 -48.75 Q-3.3 -48.55 -3.75 -49.5 L-4.05 -50.0 M-6.0 -52.75 L-6.0 -52.75 M-14.5 -38.85 L-14.5 -38.9 Q-12.35 -37.05 -13.2 -34.6 L-13.25 -34.5 Q-15.25 -35.5 -15.3 -38.25 -15.05 -38.85 -14.5 -38.85 M-12.4 -33.0 Q-11.15 -32.2 -11.15 -30.55 L-11.2 -30.4 Q-13.55 -30.15 -12.6 -32.85 -12.6 -32.95 -12.4 -33.0 M-2.5 4.25 L-2.55 4.1 Q-2.85 2.45 -2.85 0.95 L-2.9 1.0 Q-4.45 2.95 -6.2 4.75 -4.1 5.85 -2.5 4.25 M-8.1 6.0 L-7.6 6.1 -8.2 5.45 -8.45 5.55 Q-8.25 5.7 -8.1 6.0" fill="#ffff66" fill-rule="evenodd" stroke="none"/>
      <path d="M2.7 -9.2 Q2.7 -9.35 2.8 -9.45 2.8 -9.55 3.0 -9.5 3.4 -4.85 3.0 -0.85 2.95 -0.8 2.9 -0.75 2.15 -0.75 1.4 -0.95 1.15 0.8 -0.3 1.55 0.25 0.25 0.75 -1.05 0.0 0.45 -1.05 1.9 -1.05 1.95 -1.15 1.95 1.4 -3.15 2.65 -8.9 L2.7 -9.2 M7.55 -2.3 Q8.65 -0.1 11.05 0.5 L11.1 0.6 Q8.0 4.9 7.0 -1.25 6.9 -2.05 7.55 -2.3 M-2.5 4.25 Q-4.1 5.85 -6.2 4.75 -4.45 2.95 -2.9 1.0 L-2.85 0.95 Q-2.85 2.45 -2.55 4.1 L-2.5 4.25" fill="#ffffcc" fill-rule="evenodd" stroke="none"/>
      <path d="M3.55 -65.2 Q3.1 -63.95 2.55 -62.7 2.4 -62.25 1.95 -62.3 1.95 -65.2 3.2 -68.0 3.35 -68.4 3.8 -68.45 7.05 -66.5 7.05 -62.6 7.05 -62.55 7.0 -62.5 6.05 -63.35 5.3 -64.7 4.45 -64.9 3.55 -65.2 M11.8 -50.55 L11.9 -50.4 11.75 -50.35 11.65 -49.9 Q11.4 -49.95 11.1 -50.05 9.7 -49.7 8.1 -50.75 L8.1 -50.55 Q6.05 -51.5 7.25 -53.6 7.5 -54.2 8.0 -54.7 8.2 -54.9 8.4 -55.0 L8.95 -54.1 Q11.05 -52.65 11.4 -51.25 L11.4 -51.3 Q11.75 -51.8 11.8 -50.85 L11.8 -50.55 M13.05 -43.5 L13.05 -43.55 Q15.95 -42.9 15.15 -40.2 15.15 -40.1 15.05 -40.0 14.1 -39.65 13.7 -40.65 13.6 -40.85 13.45 -41.0 13.15 -41.25 12.75 -40.95 12.6 -40.8 12.3 -40.85 11.9 -41.35 11.65 -41.95 11.55 -42.25 11.55 -42.6 12.0 -43.45 13.05 -43.5 M15.45 -30.15 Q15.5 -31.4 14.85 -32.4 14.6 -32.8 14.7 -33.35 L14.8 -33.5 Q14.9 -33.7 15.1 -33.8 L15.35 -33.85 Q19.25 -31.95 15.6 -30.1 15.55 -30.1 15.45 -30.15 M-3.0 -49.5 L-3.0 -49.35 Q-3.7 -49.15 -4.3 -49.8 -4.7 -48.15 -6.05 -46.25 -6.1 -46.15 -6.3 -46.15 L-6.4 -46.35 Q-6.4 -46.3 -6.5 -46.25 L-6.55 -46.4 -6.55 -46.25 Q-6.6 -46.05 -6.65 -45.9 -6.1 -46.3 -5.25 -46.35 L-5.05 -46.35 -5.0 -46.4 -4.6 -46.45 Q-1.7 -45.95 -2.4 -42.9 -2.4 -42.85 -2.45 -42.8 -3.55 -42.85 -3.7 -44.2 -3.75 -44.7 -4.15 -45.1 -5.55 -44.5 -6.9 -44.4 L-6.85 -44.7 -7.4 -44.7 Q-7.3 -45.1 -7.1 -45.4 L-7.15 -45.35 Q-8.55 -48.0 -6.4 -50.8 -5.9 -51.45 -5.25 -51.75 -4.2 -51.6 -3.6 -51.0 -2.8 -50.7 -2.65 -49.6 L-2.65 -49.5 -3.0 -49.6 -3.0 -49.5 M-14.1 -37.4 Q-12.7 -36.6 -12.95 -34.75 L-13.05 -34.6 Q-15.3 -35.3 -14.25 -37.3 L-14.1 -37.4 M-12.4 -32.25 L-12.4 -32.3 Q-11.15 -31.6 -11.3 -30.35 L-11.35 -30.15 Q-13.15 -29.4 -13.15 -31.7 -13.0 -32.25 -12.4 -32.25" fill="#ffcc33" fill-rule="evenodd" stroke="none"/>
    </g>
  </defs>
</svg>
