<?xml version="1.0" encoding="UTF-8" standalone="no"?>
<svg xmlns:ffdec="https://www.free-decompiler.com/flash" xmlns:xlink="http://www.w3.org/1999/xlink" ffdec:objectType="frame" height="569.1px" width="275.8px" xmlns="http://www.w3.org/2000/svg">
  <g transform="matrix(1.0, 0.0, 0.0, 1.0, 123.9, 502.25)">
    <use ffdec:characterId="1372" height="77.9" transform="matrix(7.0, 0.0, 0.0, 7.0, -123.9, -479.85)" width="39.4" xlink:href="#shape0"/>
  </g>
  <defs>
    <g id="shape0" transform="matrix(1.0, 0.0, 0.0, 1.0, 17.7, 68.55)">
      <path d="M4.9 -66.55 L4.7 -67.1 Q4.65 -67.3 4.45 -67.45 L4.3 -67.25 Q4.6 -66.9 4.9 -66.55 M3.6 -66.8 Q3.45 -66.75 3.35 -66.65 0.8 -63.3 2.9 -59.9 3.1 -60.1 3.25 -60.4 4.0 -61.65 3.9 -63.15 4.05 -63.0 4.1 -62.8 4.7 -60.85 5.9 -59.85 L5.95 -59.95 Q7.25 -64.65 3.6 -66.8 M2.1 -59.45 Q-0.2 -64.3 4.2 -68.55 8.6 -63.2 5.65 -56.0 5.65 -55.95 5.5 -55.95 L5.65 -56.9 Q5.1 -58.2 4.95 -59.55 L4.9 -59.6 Q3.75 -55.25 3.7 -50.5 3.7 -49.75 3.05 -49.5 L3.0 -50.0 2.9 -49.65 Q2.85 -49.4 2.85 -49.1 2.35 -53.65 2.4 -58.6 2.4 -59.15 2.1 -59.45 M3.2 -58.25 L2.95 -58.55 3.1 -57.9 3.2 -58.25 M-7.05 -40.1 Q-9.3 -40.0 -9.1 -43.25 L-9.3 -43.45 Q-9.5 -43.7 -9.4 -44.1 -9.2 -44.35 -8.95 -44.5 -8.75 -45.35 -8.25 -46.0 -8.0 -46.4 -7.65 -46.9 -7.6 -46.95 -7.45 -46.95 -7.75 -45.45 -7.5 -44.05 -6.9 -43.8 -6.25 -43.7 -5.9 -44.75 -5.65 -45.7 -6.1 -48.15 -6.65 -50.6 -7.2 -51.55 -7.25 -52.5 L-7.85 -52.85 -7.35 -52.85 -7.25 -52.8 -7.25 -53.0 -7.95 -53.5 -7.65 -53.45 -7.3 -53.35 -7.45 -53.9 -7.35 -53.95 -7.15 -53.7 Q-6.85 -55.2 -5.55 -56.7 -5.5 -57.35 -5.25 -58.1 L-3.3 -54.25 Q-2.0 -53.7 -1.6 -52.05 L-1.55 -51.9 Q-2.05 -52.35 -2.45 -52.6 L-2.35 -52.35 -2.4 -52.25 Q-3.15 -52.6 -3.7 -53.0 -4.5 -53.05 -5.15 -52.3 L-4.8 -52.1 -4.6 -52.2 -3.9 -51.4 Q0.2 -48.25 0.35 -42.25 L0.45 -42.0 Q0.8 -42.25 1.1 -42.55 1.5 -43.45 1.7 -44.45 -0.25 -45.65 1.65 -47.1 L1.7 -47.15 Q3.2 -46.45 2.65 -45.3 L2.7 -45.2 Q2.85 -45.4 3.1 -45.55 3.1 -49.15 5.25 -52.8 L5.25 -52.85 Q6.3 -50.9 6.45 -49.25 L6.5 -49.3 6.55 -46.95 Q6.85 -46.4 7.15 -45.75 7.75 -47.0 8.1 -48.35 8.2 -48.7 7.95 -49.0 5.75 -52.2 8.4 -55.4 8.8 -56.8 9.3 -58.15 L9.15 -58.9 9.25 -58.95 9.55 -58.5 9.6 -58.4 Q11.15 -56.0 11.65 -53.3 12.55 -50.5 12.1 -46.85 11.65 -43.15 11.75 -39.35 11.8 -38.75 11.7 -38.15 11.9 -36.2 12.1 -33.95 L12.45 -36.9 12.45 -36.55 Q13.3 -36.2 13.9 -36.15 L13.85 -35.7 Q13.75 -34.7 14.0 -33.8 L14.05 -33.7 Q17.2 -36.9 13.9 -40.55 13.75 -40.5 13.7 -40.4 12.95 -39.6 12.65 -38.6 13.05 -41.45 13.55 -44.35 13.55 -44.5 13.7 -44.45 L13.9 -43.55 Q17.7 -36.15 14.55 -27.8 14.35 -24.1 14.55 -20.35 15.65 -24.65 16.9 -29.05 16.95 -29.1 17.05 -29.15 L17.05 -29.0 Q17.15 -29.1 17.35 -29.05 17.45 -27.7 17.45 -26.3 17.8 -26.25 18.05 -25.9 L18.15 -25.75 17.4 -23.6 Q17.05 -17.2 14.55 -11.0 L14.65 -11.15 Q15.0 -10.2 15.6 -13.45 16.1 -16.2 18.45 -17.15 L18.75 -17.8 Q17.7 -12.85 17.75 -7.8 17.85 -7.85 17.95 -7.85 17.9 -3.15 20.0 0.7 20.95 1.6 21.7 3.0 19.2 4.2 15.85 4.0 12.05 7.45 7.5 6.55 5.4 6.65 3.25 5.8 2.9 7.15 0.15 8.15 -3.0 9.3 -5.9 8.95 -7.2 9.3 -8.6 9.35 -9.35 9.4 -9.75 9.0 -10.2 9.4 -10.65 8.7 -8.85 4.5 -14.8 5.7 L-15.8 5.8 -16.0 6.2 -16.15 6.2 -16.05 5.8 Q-16.65 5.75 -17.05 5.45 L-16.9 5.15 -17.05 5.15 -16.85 4.9 Q-16.55 4.6 -16.15 4.45 L-15.85 4.35 Q-15.0 -2.85 -17.65 -9.65 -17.8 -10.0 -17.35 -9.95 L-16.75 -9.1 Q-16.8 -9.75 -16.8 -10.5 -16.8 -12.4 -15.5 -13.35 -15.75 -7.9 -12.9 -3.55 L-12.6 -3.3 Q-12.95 -7.15 -13.2 -11.3 -15.05 -14.2 -14.7 -18.0 -14.8 -19.9 -13.8 -22.2 -13.6 -18.65 -12.4 -15.4 -13.3 -19.25 -11.95 -23.15 -11.6 -24.3 -11.8 -25.65 -12.35 -29.2 -12.6 -31.95 L-13.45 -33.9 Q-13.5 -34.05 -13.25 -34.05 -11.7 -32.5 -10.85 -30.65 -11.45 -26.9 -9.1 -25.4 -9.0 -25.45 -9.05 -25.55 -9.7 -28.55 -8.7 -29.15 -8.6 -29.2 -8.6 -29.25 -8.3 -31.65 -9.45 -33.45 -10.3 -33.0 -10.6 -31.7 L-10.75 -31.05 Q-10.95 -35.1 -9.7 -39.3 L-9.55 -39.3 -9.5 -36.75 Q-8.15 -34.5 -8.05 -30.7 -8.0 -29.6 -7.35 -28.9 -7.05 -28.9 -6.8 -28.75 L-6.65 -29.8 Q-6.6 -33.0 -6.75 -36.25 L-4.75 -34.75 -4.7 -34.85 Q-4.6 -35.8 -5.0 -36.7 L-4.95 -36.95 Q-4.2 -39.4 -4.0 -42.0 -3.65 -44.05 -3.5 -46.1 -2.6 -43.3 -1.3 -41.0 -1.25 -41.1 -1.25 -41.15 -0.75 -45.6 -3.1 -48.75 -4.2 -51.1 -5.9 -53.25 -6.5 -52.85 -6.3 -52.05 -5.7 -49.5 -5.5 -46.9 -5.55 -45.4 -5.45 -43.9 L-5.85 -43.75 Q-6.55 -43.4 -6.9 -42.8 L-7.25 -42.9 Q-7.6 -42.5 -7.45 -41.95 -7.15 -41.05 -7.05 -40.1 M1.25 -39.95 Q1.15 -39.9 1.1 -39.8 -0.35 -36.95 -0.95 -34.5 -1.65 -33.25 -1.25 -31.95 L-1.25 -32.15 -0.95 -32.95 -0.6 -33.65 Q-0.2 -34.45 0.45 -35.15 0.7 -34.05 1.9 -33.45 L2.0 -33.2 Q2.3 -32.1 2.65 -31.15 L2.65 -31.2 2.85 -30.15 2.9 -30.3 Q3.05 -31.15 3.05 -31.9 3.3 -32.25 3.6 -32.65 4.1 -32.45 5.5 -32.55 5.7 -32.45 5.75 -32.35 5.85 -31.75 6.2 -31.3 6.35 -31.25 6.4 -31.3 L6.55 -31.4 Q6.5 -30.5 6.2 -29.55 7.4 -30.3 7.35 -31.9 7.15 -37.75 3.4 -34.55 3.25 -37.2 2.45 -39.7 L2.35 -39.8 1.25 -39.95 M6.85 -45.4 Q6.7 -45.6 6.6 -45.65 2.25 -46.15 3.45 -40.75 6.5 -45.45 9.6 -41.0 8.6 -38.35 9.9 -36.9 9.95 -37.0 10.0 -37.1 11.05 -40.9 10.6 -44.4 11.5 -45.35 11.75 -46.8 12.5 -51.9 9.7 -54.5 7.95 -50.65 8.1 -46.0 7.5 -45.65 6.85 -45.4 M0.8 -40.7 L1.0 -41.1 Q0.85 -41.05 0.7 -41.0 L0.8 -40.7 M1.55 -38.65 Q1.9 -38.35 1.9 -37.85 1.9 -37.1 2.0 -36.45 1.7 -37.2 1.2 -37.8 L1.55 -38.65 M13.0 -32.9 L13.0 -33.0 12.9 -32.65 12.95 -32.5 13.0 -32.9 M3.2 -11.35 L3.3 -11.1 3.05 -10.7 3.1 -11.3 3.2 -11.35 M7.85 -11.1 L7.7 -11.25 Q7.7 -11.65 7.65 -12.05 L7.85 -11.1 M6.0 -15.1 L5.95 -15.15 6.0 -15.25 6.0 -15.1 M1.35 -26.2 Q0.6 -25.9 0.6 -24.8 0.55 -22.8 0.4 -20.8 -0.9 -13.05 -3.1 -5.35 L-3.15 -5.55 Q-3.4 -7.8 -4.2 -9.95 L-5.05 -8.65 Q-4.7 -10.0 -4.6 -11.45 -5.35 -8.75 -6.35 -6.25 -7.85 -4.15 -8.25 -1.7 -8.5 -3.35 -9.65 -4.45 L-9.7 -4.4 -10.1 -3.7 -10.15 -3.6 Q-10.75 -2.35 -10.8 -0.9 -11.1 0.7 -11.35 2.35 -12.1 3.6 -13.55 4.2 -11.15 4.2 -8.5 4.7 L-7.9 4.85 -7.75 4.9 Q-7.85 5.05 -7.95 5.15 -9.05 6.05 -9.15 7.25 -4.5 9.05 -0.75 5.95 -2.1 5.65 -4.0 6.1 L-3.85 6.0 -3.65 5.85 -2.55 5.8 Q-2.85 5.5 -3.2 5.25 -3.05 4.95 -3.1 4.6 L-3.6 4.9 -4.4 4.3 Q-3.85 0.3 -2.1 0.75 -1.5 2.0 -0.35 2.2 L-0.3 2.0 0.2 2.6 0.3 2.4 Q1.45 -1.7 1.95 -5.9 3.0 -7.9 4.75 -9.45 4.9 -8.7 5.05 -8.0 5.85 -2.05 4.3 3.3 4.05 3.75 3.85 4.25 3.9 4.35 3.95 4.35 L3.8 4.8 Q5.4 4.95 6.5 4.4 7.65 4.45 8.3 2.95 L8.3 2.55 Q8.8 1.5 9.0 -0.1 L9.15 0.1 Q9.15 2.15 9.15 4.15 13.65 4.0 17.6 1.85 L18.55 1.9 Q18.15 0.95 17.55 0.1 17.35 -1.15 16.6 -1.9 16.35 -3.4 16.2 -4.85 L16.2 -4.8 Q15.5 -3.6 15.45 -2.5 L15.4 -2.5 Q15.2 -1.9 14.95 -1.35 L13.25 0.75 Q13.05 -0.35 13.4 -1.1 13.75 -2.0 13.3 -2.5 13.75 -6.15 11.8 -9.35 10.75 -8.85 10.65 -7.55 L10.6 -6.5 Q9.9 -8.4 8.9 -9.85 7.9 -13.05 8.0 -16.75 8.4 -18.9 9.25 -20.95 L9.0 -21.1 8.2 -21.25 Q6.95 -19.95 5.85 -18.55 3.95 -18.25 3.45 -15.0 L3.3 -14.75 3.0 -16.65 2.75 -17.95 1.35 -26.2 M4.75 -1.6 Q4.05 0.7 1.95 2.5 1.45 2.95 0.8 2.4 1.0 5.05 -1.9 5.15 -0.5 5.25 0.8 5.7 1.85 5.25 2.95 4.75 L2.9 4.7 Q2.4 4.4 2.8 3.7 4.15 1.45 4.8 -0.9 L4.75 -1.6 M-5.35 -49.85 L-5.4 -49.55 Q-5.8 -49.9 -5.9 -50.5 -5.85 -50.65 -5.8 -50.5 L-5.35 -49.85 M-7.7 4.9 L-7.65 4.9 Q-7.5 5.1 -7.55 5.35 L-7.7 6.2 -7.9 6.2 Q-7.8 6.05 -7.75 5.9 -7.65 5.35 -7.7 4.9 M-5.15 5.6 L-5.1 5.45 -5.0 5.55 -5.15 5.6 M-1.1 -0.5 L-1.0 -0.65 -1.05 -0.5 -1.1 -0.5 M-4.0 -7.25 L-3.8 -7.8 -3.8 -7.45 -3.85 -7.0 -4.0 -7.25 M-3.55 -13.1 Q-3.4 -11.15 -3.5 -13.1 L-3.55 -13.1" fill="#ffff66" fill-rule="evenodd" stroke="none"/>
      <path d="M3.6 -66.8 Q7.25 -64.65 5.95 -59.95 L5.9 -59.85 Q4.7 -60.85 4.1 -62.8 4.05 -63.0 3.9 -63.15 4.0 -61.65 3.25 -60.4 3.1 -60.1 2.9 -59.9 0.8 -63.3 3.35 -66.65 3.45 -66.75 3.6 -66.8 M12.45 -36.9 Q12.4 -37.8 12.65 -38.6 12.95 -39.6 13.7 -40.4 13.75 -40.5 13.9 -40.55 17.2 -36.9 14.05 -33.7 L14.0 -33.8 Q13.75 -34.7 13.85 -35.7 L13.9 -36.15 Q13.3 -36.2 12.45 -36.55 L12.45 -36.9 M-10.85 -30.65 L-10.75 -31.05 -10.6 -31.7 Q-10.3 -33.0 -9.45 -33.45 -8.3 -31.65 -8.6 -29.25 -8.6 -29.2 -8.7 -29.15 -9.7 -28.55 -9.05 -25.55 -9.0 -25.45 -9.1 -25.4 -11.45 -26.9 -10.85 -30.65 M-6.75 -36.25 L-7.25 -36.6 Q-6.9 -38.4 -7.05 -40.1 -7.15 -41.05 -7.45 -41.95 -7.6 -42.5 -7.25 -42.9 L-6.9 -42.8 Q-6.55 -43.4 -5.85 -43.75 L-5.45 -43.9 Q-5.55 -45.4 -5.5 -46.9 -5.7 -49.5 -6.3 -52.05 -6.5 -52.85 -5.9 -53.25 -4.2 -51.1 -3.1 -48.75 -0.75 -45.6 -1.25 -41.15 -1.25 -41.1 -1.3 -41.0 -2.6 -43.3 -3.5 -46.1 -3.65 -44.05 -4.0 -42.0 -4.2 -39.4 -4.95 -36.95 L-5.0 -36.7 Q-4.6 -35.8 -4.7 -34.85 L-4.75 -34.75 -6.75 -36.25 M6.85 -45.4 Q7.5 -45.65 8.1 -46.0 7.95 -50.65 9.7 -54.5 12.5 -51.9 11.75 -46.8 11.5 -45.35 10.6 -44.4 11.05 -40.9 10.0 -37.1 9.95 -37.0 9.9 -36.9 8.6 -38.35 9.6 -41.0 6.5 -45.45 3.45 -40.75 2.25 -46.15 6.6 -45.65 6.7 -45.6 6.85 -45.4 M1.25 -39.95 L2.35 -39.8 2.45 -39.7 Q3.25 -37.2 3.4 -34.55 7.15 -37.75 7.35 -31.9 7.4 -30.3 6.2 -29.55 6.5 -30.5 6.55 -31.4 L6.4 -31.3 Q6.35 -31.25 6.2 -31.3 5.85 -31.75 5.75 -32.35 5.7 -32.45 5.5 -32.55 4.1 -32.45 3.6 -32.65 3.3 -32.25 3.05 -31.9 3.05 -31.15 2.9 -30.3 L2.85 -30.15 2.65 -31.2 2.65 -31.15 Q2.3 -32.1 2.0 -33.2 L1.9 -33.45 Q0.7 -34.05 0.45 -35.15 -0.2 -34.45 -0.6 -33.65 L-0.95 -32.95 -1.25 -32.15 -1.25 -31.95 Q-1.65 -33.25 -0.95 -34.5 -0.35 -36.95 1.1 -39.8 1.15 -39.9 1.25 -39.95 M1.55 -38.65 L1.2 -37.8 Q1.7 -37.2 2.0 -36.45 1.9 -37.1 1.9 -37.85 1.9 -38.35 1.55 -38.65 M1.35 -26.2 L2.75 -17.95 3.0 -16.65 3.3 -14.75 3.45 -15.0 Q3.95 -18.25 5.85 -18.55 6.95 -19.95 8.2 -21.25 L9.0 -21.1 9.25 -20.95 Q8.4 -18.9 8.0 -16.75 7.9 -13.05 8.9 -9.85 9.9 -8.4 10.6 -6.5 L10.65 -7.55 Q10.75 -8.85 11.8 -9.35 13.75 -6.15 13.3 -2.5 13.75 -2.0 13.4 -1.1 13.05 -0.35 13.25 0.75 L14.95 -1.35 Q15.2 -1.9 15.4 -2.5 L15.45 -2.5 Q15.5 -3.6 16.2 -4.8 L16.2 -4.85 Q16.35 -3.4 16.6 -1.9 17.35 -1.15 17.55 0.1 18.15 0.95 18.55 1.9 L17.6 1.85 Q13.65 4.0 9.15 4.15 9.15 2.15 9.15 0.1 L9.0 -0.1 Q8.8 1.5 8.3 2.55 L8.3 2.95 Q7.65 4.45 6.5 4.4 5.4 4.95 3.8 4.8 L3.95 4.35 Q3.9 4.35 3.85 4.25 4.05 3.75 4.3 3.3 5.85 -2.05 5.05 -8.0 4.9 -8.7 4.75 -9.45 3.0 -7.9 1.95 -5.9 1.45 -1.7 0.3 2.4 L0.2 2.6 -0.3 2.0 -0.35 2.2 Q-1.5 2.0 -2.1 0.75 -3.85 0.3 -4.4 4.3 L-3.6 4.9 -3.1 4.6 Q-3.05 4.95 -3.2 5.25 -2.85 5.5 -2.55 5.8 L-3.65 5.85 -3.85 6.0 -4.0 6.1 Q-2.1 5.65 -0.75 5.95 -4.5 9.05 -9.15 7.25 -9.05 6.05 -7.95 5.15 -7.85 5.05 -7.75 4.9 L-7.9 4.85 -8.5 4.7 Q-11.15 4.2 -13.55 4.2 -12.1 3.6 -11.35 2.35 -11.1 0.7 -10.8 -0.9 -10.75 -2.35 -10.15 -3.6 L-10.1 -3.7 -9.7 -4.4 -9.65 -4.45 Q-8.5 -3.35 -8.25 -1.7 -7.85 -4.15 -6.35 -6.25 -5.35 -8.75 -4.6 -11.45 -4.7 -10.0 -5.05 -8.65 L-4.2 -9.95 Q-3.4 -7.8 -3.15 -5.55 L-3.1 -5.35 Q-0.9 -13.05 0.4 -20.8 0.55 -22.8 0.6 -24.8 0.6 -25.9 1.35 -26.2 M6.0 -15.1 L6.0 -15.25 5.95 -15.15 6.0 -15.1 M7.85 -11.1 L7.65 -12.05 Q7.7 -11.65 7.7 -11.25 L7.85 -11.1 M3.2 -11.35 L3.1 -11.3 3.05 -10.7 3.3 -11.1 3.2 -11.35 M-5.35 -49.85 L-5.8 -50.5 Q-5.85 -50.65 -5.9 -50.5 -5.8 -49.9 -5.4 -49.55 L-5.35 -49.85 M-3.55 -13.1 L-3.5 -13.1 Q-3.4 -11.15 -3.55 -13.1 M-4.0 -7.25 L-3.85 -7.0 -3.8 -7.45 -3.8 -7.8 -4.0 -7.25 M-1.1 -0.5 L-1.05 -0.5 -1.0 -0.65 -1.1 -0.5 M-5.15 5.6 L-5.0 5.55 -5.1 5.45 -5.15 5.6 M-7.7 4.9 Q-7.65 5.35 -7.75 5.9 -7.8 6.05 -7.9 6.2 L-7.7 6.2 -7.55 5.35 Q-7.5 5.1 -7.65 4.9 L-7.7 4.9" fill="#ffffcc" fill-rule="evenodd" stroke="none"/>
      <path d="M4.8 -36.65 Q4.9 -37.15 5.0 -37.65 4.35 -39.75 6.95 -41.15 9.75 -38.15 9.25 -33.55 L9.25 -33.4 Q7.9 -36.25 5.7 -36.4 5.4 -36.75 5.25 -37.1 L4.8 -36.65 M10.3 -28.6 L10.25 -29.15 Q11.7 -27.0 11.1 -23.3 10.8 -21.5 9.55 -21.05 L9.85 -22.6 Q8.5 -28.15 5.55 -23.55 4.95 -22.6 5.1 -21.4 4.25 -22.85 4.5 -24.15 4.5 -24.5 4.5 -24.85 4.0 -26.35 5.45 -27.85 6.55 -29.45 8.85 -30.55 9.4 -30.15 9.85 -29.65 L9.4 -29.55 Q9.95 -29.1 10.3 -28.6 M-3.9 -25.55 L-3.95 -25.4 -3.55 -24.65 -3.85 -25.5 -3.9 -25.55 M-3.55 -26.2 Q-3.1 -25.8 -2.8 -25.25 -0.2 -21.3 -1.35 -15.35 -1.65 -13.65 -2.25 -12.1 -2.3 -11.15 -2.55 -10.05 -2.55 -9.95 -2.65 -9.9 -1.85 -16.2 -7.2 -17.05 -7.75 -17.1 -7.95 -16.4 L-8.0 -16.15 Q-5.35 -11.3 -9.15 -7.0 -9.75 -6.35 -10.05 -5.6 L-10.05 -5.45 Q-9.85 -4.7 -9.55 -4.1 L-10.25 -4.9 Q-10.45 -3.95 -10.2 -2.85 -11.2 -4.65 -11.15 -6.3 -12.35 -8.85 -9.45 -10.4 L-9.1 -10.55 -8.9 -10.7 Q-8.75 -11.75 -8.1 -12.55 L-8.2 -13.1 Q-8.8 -13.9 -9.1 -14.9 L-9.05 -14.7 Q-9.0 -14.25 -8.9 -13.75 L-9.3 -14.5 -10.0 -12.95 -9.4 -14.7 Q-11.75 -19.25 -7.45 -22.4 -6.3 -23.15 -5.9 -24.6 -5.45 -26.05 -4.4 -26.85 L-4.05 -26.6 -4.0 -26.7 -3.55 -26.2 M-2.9 -23.35 L-2.9 -23.4 -2.95 -23.4 -2.9 -23.35 M-8.4 -19.1 L-8.4 -17.65 -8.2 -18.1 -8.15 -18.15 Q-8.35 -18.65 -8.4 -19.1 M-8.5 -19.75 L-8.55 -19.6 -8.4 -19.75 -8.4 -19.85 -8.5 -19.75 M-7.9 -17.65 L-8.1 -17.15 -7.85 -17.55 -7.9 -17.65 M-10.35 -8.9 L-10.2 -9.2 -10.25 -9.2 -10.35 -9.1 -10.35 -8.9" fill="#ffcc33" fill-rule="evenodd" stroke="none"/>
    </g>
  </defs>
</svg>
