<?xml version="1.0" encoding="UTF-8" standalone="no"?>
<svg xmlns:ffdec="https://www.free-decompiler.com/flash" xmlns:xlink="http://www.w3.org/1999/xlink" ffdec:objectType="frame" height="101.5px" width="69.65px" xmlns="http://www.w3.org/2000/svg">
  <g transform="matrix(1.0, 0.0, 0.0, 1.0, 64.05, 23.1)">
    <use ffdec:characterId="870" height="14.5" transform="matrix(7.0, 0.0, 0.0, 7.0, -64.05, -23.1)" width="9.95" xlink:href="#shape0"/>
  </g>
  <defs>
    <g id="shape0" transform="matrix(1.0, 0.0, 0.0, 1.0, 9.15, 3.3)">
      <path d="M-6.3 -2.75 Q-5.6 -3.15 -4.8 -3.25 L-3.95 -3.3 Q-3.45 -3.25 -2.8 -3.05 L-2.55 -2.95 Q-0.6 -2.35 0.25 -0.55 0.6 0.25 0.75 1.15 0.8 1.7 0.8 1.95 0.75 2.45 0.4 3.3 -0.05 4.4 -0.7 5.25 -1.4 6.2 -2.2 6.75 -3.1 7.1 -3.8 7.25 L-3.85 7.3 Q-4.7 7.95 -5.45 8.65 L-6.6 9.7 -6.95 10.05 -7.15 10.3 Q-7.65 10.6 -8.1 10.95 L-8.15 10.95 -8.2 11.0 -8.5 11.2 -8.55 11.15 -8.55 11.2 -8.75 10.75 -8.8 10.25 -8.9 9.85 -8.9 9.75 -8.95 9.4 Q-9.05 8.45 -9.05 8.15 -9.05 7.95 -9.05 6.55 -8.95 5.5 -8.6 4.95 L-8.8 4.4 Q-8.95 4.15 -9.0 3.75 L-9.05 3.45 -9.1 3.3 Q-9.15 2.75 -9.15 1.9 -9.15 -0.35 -7.7 -1.7 L-7.35 -2.05 Q-6.8 -2.55 -6.3 -2.75 M-7.1 4.9 L-6.55 4.85 -6.6 4.8 -6.65 4.7 Q-7.4 4.3 -7.75 3.55 -8.05 2.9 -8.05 2.05 L-8.1 2.35 -8.1 1.9 Q-8.1 0.6 -7.4 -0.4 -7.0 -0.95 -6.45 -1.35 -5.75 -1.85 -4.75 -2.15 L-3.9 -2.15 Q-2.45 -2.05 -1.7 -0.75 L-1.65 -0.7 Q-1.15 0.25 -1.2 1.0 -1.3 2.4 -2.05 3.55 L-2.1 3.65 Q-2.1 3.9 -2.5 4.25 L-2.85 4.5 Q-3.05 4.85 -3.75 5.05 -4.55 5.25 -5.45 5.15 L-5.85 5.1 -5.75 5.2 -5.05 5.85 -4.55 6.35 Q-2.7 6.35 -1.4 4.8 -0.9 4.15 -0.6 3.35 L-0.55 3.25 Q-0.3 2.7 -0.3 2.3 L-0.2 1.6 Q-0.2 0.8 -0.45 0.1 L-0.6 -0.2 Q-1.2 -1.55 -2.65 -2.05 -2.85 -2.1 -3.1 -2.2 L-4.15 -2.35 -4.65 -2.35 -5.15 -2.2 Q-6.6 -2.0 -7.55 -0.85 -8.4 0.2 -8.4 1.4 L-8.4 1.95 Q-8.4 2.55 -8.35 2.8 -8.3 3.15 -8.15 3.4 -8.1 4.25 -7.5 4.95 L-7.3 4.95 -7.1 4.9 M-1.7 -0.3 L-1.75 -0.4 Q-1.95 -0.75 -2.25 -1.0 L-2.25 -1.05 -2.3 -1.05 -2.55 -1.25 -2.65 -1.35 -2.9 -1.45 -3.15 -1.6 Q-3.75 -1.95 -4.7 -1.9 -6.1 -1.8 -7.0 -0.8 -7.65 0.0 -7.7 0.65 L-7.7 0.75 Q-7.75 1.05 -7.75 1.35 -7.75 1.55 -7.7 1.85 L-7.65 1.85 Q-7.7 2.3 -7.4 3.0 L-7.35 3.15 -7.25 3.3 Q-6.75 4.6 -4.85 4.75 -4.3 4.8 -3.8 4.65 L-3.25 4.35 -2.9 4.1 -2.75 4.0 -2.5 3.7 -2.4 3.55 -2.35 3.45 -2.25 3.35 -2.0 2.9 Q-1.65 2.25 -1.5 1.7 -1.4 1.3 -1.4 0.95 -1.4 0.65 -1.55 0.35 -1.6 0.0 -1.7 -0.3 M-4.65 6.75 L-5.35 6.15 Q-5.8 5.7 -6.05 5.3 -6.4 5.35 -6.8 6.3 -7.0 6.75 -7.45 8.05 -7.55 8.35 -7.75 9.45 L-7.4 9.2 Q-6.3 8.45 -6.05 8.15 L-5.2 7.2 Q-4.9 6.95 -4.65 6.75 M-7.1 5.15 L-7.25 5.2 -7.9 5.3 -7.9 5.35 -8.2 6.75 -8.2 6.9 -8.25 7.15 -8.2 8.5 -8.2 8.8 Q-7.9 8.2 -7.55 7.5 L-6.7 5.95 Q-6.6 5.85 -6.5 5.05 L-7.1 5.15" fill="#111111" fill-rule="evenodd" stroke="none"/>
      <path d="M-5.7 -0.1 Q-5.7 -0.25 -5.5 -0.4 -5.3 -0.6 -5.15 -0.3 -5.2 -0.15 -5.3 -0.05 -5.45 0.1 -5.6 0.1 L-5.65 0.05 -5.7 -0.1 M-3.6 0.05 L-3.6 0.0 -3.8 -0.6 -4.0 -0.85 -3.45 -0.9 Q-2.45 -0.9 -1.85 -0.45 L-1.7 -0.3 Q-1.6 0.0 -1.55 0.35 -1.4 0.65 -1.4 0.95 -1.4 1.3 -1.5 1.7 -1.6 0.7 -2.15 0.25 -2.7 -0.2 -3.55 0.05 L-3.6 0.05 M-7.4 3.0 L-7.4 2.6 Q-7.4 1.65 -6.85 0.85 -6.85 1.1 -6.75 1.4 -6.65 1.7 -6.45 1.85 L-6.4 1.75 -6.0 1.1 -6.1 1.75 -6.15 2.05 -5.7 2.15 -5.65 2.15 Q-5.55 1.7 -5.25 1.25 -4.9 0.75 -4.35 0.4 -3.95 0.15 -3.6 0.15 -3.65 0.7 -3.95 1.2 -4.45 2.1 -5.6 2.15 L-5.65 2.55 Q-5.65 3.05 -5.45 3.5 -5.0 4.25 -4.0 4.25 -3.3 4.25 -2.75 4.0 L-2.9 4.1 -3.25 4.35 -3.8 4.65 Q-4.3 4.8 -4.85 4.75 -6.75 4.6 -7.25 3.3 L-7.35 3.15 -7.4 3.0 M-5.55 3.95 Q-5.55 3.65 -5.8 3.65 L-5.8 3.6 -5.9 3.6 Q-6.0 3.6 -6.0 3.7 L-5.95 4.05 -5.95 4.1 -5.6 4.1 -5.55 4.05 -5.55 3.95 M-6.25 1.95 L-6.55 1.95 -6.6 2.0 -6.6 2.1 -6.55 2.6 -6.45 3.2 -6.4 3.2 -6.4 2.7 Q-6.4 2.4 -6.2 2.1 L-6.25 1.95" fill="#80c0f0" fill-rule="evenodd" stroke="none"/>
      <path d="M-3.6 0.15 L-3.6 0.05 -3.55 0.05 Q-2.7 -0.2 -2.15 0.25 -1.6 0.7 -1.5 1.7 -1.65 2.25 -2.0 2.9 L-2.25 3.35 -2.35 3.45 -2.4 3.55 -2.5 3.7 -2.75 4.0 Q-3.3 4.25 -4.0 4.25 -5.0 4.25 -5.45 3.5 -5.65 3.05 -5.65 2.55 L-5.6 2.15 Q-4.45 2.1 -3.95 1.2 -3.65 0.7 -3.6 0.15 M-5.55 3.95 L-5.55 4.05 -5.6 4.1 -5.95 4.1 -5.95 4.05 -6.0 3.7 Q-6.0 3.6 -5.9 3.6 L-5.8 3.6 -5.8 3.65 Q-5.55 3.65 -5.55 3.95 M-6.25 1.95 L-6.2 2.1 Q-6.4 2.4 -6.4 2.7 L-6.4 3.2 -6.45 3.2 -6.55 2.6 -6.6 2.1 -6.6 2.0 -6.55 1.95 -6.25 1.95" fill="#0070e0" fill-rule="evenodd" stroke="none"/>
      <path d="M-5.75 5.2 L-5.85 5.1 -5.45 5.15 Q-4.55 5.25 -3.75 5.05 -3.05 4.85 -2.85 4.5 L-2.5 4.25 Q-2.1 3.9 -2.1 3.65 L-2.05 3.55 Q-1.3 2.4 -1.2 1.0 -1.15 0.25 -1.65 -0.7 L-1.7 -0.75 Q-2.45 -2.05 -3.9 -2.15 L-4.75 -2.15 Q-5.75 -1.85 -6.45 -1.35 -7.0 -0.95 -7.4 -0.4 -8.1 0.6 -8.1 1.9 L-8.1 2.35 -8.05 2.05 Q-8.05 2.9 -7.75 3.55 -7.4 4.3 -6.65 4.7 L-6.6 4.8 -6.55 4.85 -7.1 4.9 Q-7.5 4.55 -7.85 3.6 L-7.95 3.65 Q-8.05 3.6 -8.15 3.4 -8.3 3.15 -8.35 2.8 -8.4 2.55 -8.4 1.95 L-8.4 1.4 Q-8.4 0.2 -7.55 -0.85 -6.6 -2.0 -5.15 -2.2 L-4.65 -2.35 -4.15 -2.35 -3.1 -2.2 Q-2.85 -2.1 -2.65 -2.05 -1.2 -1.55 -0.6 -0.2 L-0.55 -0.15 Q-0.85 -0.25 -1.3 -0.55 -0.8 0.4 -0.8 1.1 -0.8 2.25 -1.6 3.55 L-1.7 3.75 Q-2.8 5.45 -4.75 5.45 -5.2 5.45 -5.75 5.2 M-7.1 5.15 L-6.5 5.05 Q-6.6 5.85 -6.7 5.95 L-7.55 7.5 Q-7.9 8.2 -8.2 8.8 L-8.2 8.5 -8.25 7.15 Q-8.15 7.25 -8.0 7.25 -7.75 7.25 -7.35 6.45 -6.95 5.7 -6.95 5.45 -6.95 5.3 -7.1 5.15" fill="#ff9999" fill-rule="evenodd" stroke="none"/>
      <path d="M-0.6 -0.2 L-0.45 0.1 Q-0.2 0.8 -0.2 1.6 L-0.3 2.3 Q-0.3 2.7 -0.55 3.25 L-0.75 3.45 -1.7 3.75 -1.6 3.55 Q-0.8 2.25 -0.8 1.1 -0.8 0.4 -1.3 -0.55 -0.85 -0.25 -0.55 -0.15 L-0.6 -0.2 M-8.25 7.15 L-8.2 6.9 -8.2 6.75 -7.9 5.35 -7.9 5.3 -7.25 5.2 -7.1 5.15 Q-6.95 5.3 -6.95 5.45 -6.95 5.7 -7.35 6.45 -7.75 7.25 -8.0 7.25 -8.15 7.25 -8.25 7.15" fill="#b00000" fill-rule="evenodd" stroke="none"/>
      <path d="M-7.1 4.9 L-7.3 4.95 -7.5 4.95 Q-8.1 4.25 -8.15 3.4 -8.05 3.6 -7.95 3.65 L-7.85 3.6 Q-7.5 4.55 -7.1 4.9 M-0.55 3.25 L-0.6 3.35 Q-0.9 4.15 -1.4 4.8 -2.7 6.35 -4.55 6.35 L-5.05 5.85 -5.75 5.2 Q-5.2 5.45 -4.75 5.45 -2.8 5.45 -1.7 3.75 L-0.75 3.45 -0.55 3.25 M-4.65 6.75 Q-4.9 6.95 -5.2 7.2 L-6.05 8.15 Q-6.3 8.45 -7.4 9.2 L-7.75 9.45 Q-7.55 8.35 -7.45 8.05 -7.0 6.75 -6.8 6.3 -6.4 5.35 -6.05 5.3 -5.8 5.7 -5.35 6.15 L-4.65 6.75" fill="#600000" fill-rule="evenodd" stroke="none"/>
      <path d="M-5.7 -0.1 L-5.65 0.05 -5.6 0.1 Q-5.45 0.1 -5.3 -0.05 -5.2 -0.15 -5.15 -0.3 -5.3 -0.6 -5.5 -0.4 -5.7 -0.25 -5.7 -0.1 M-1.7 -0.3 L-1.85 -0.45 Q-2.45 -0.9 -3.45 -0.9 L-4.0 -0.85 -3.8 -0.6 -3.6 0.0 -3.6 0.05 -3.6 0.15 Q-3.95 0.15 -4.35 0.4 -4.9 0.75 -5.25 1.25 -5.55 1.7 -5.65 2.15 L-5.7 2.15 -6.15 2.05 -6.1 1.75 -6.0 1.1 -6.4 1.75 -6.45 1.85 Q-6.65 1.7 -6.75 1.4 -6.85 1.1 -6.85 0.85 -7.4 1.65 -7.4 2.6 L-7.4 3.0 Q-7.7 2.3 -7.65 1.85 L-7.7 1.85 Q-7.75 1.55 -7.75 1.35 -7.75 1.05 -7.7 0.75 L-7.7 0.65 Q-7.65 0.0 -7.0 -0.8 -6.1 -1.8 -4.7 -1.9 -3.75 -1.95 -3.15 -1.6 L-2.9 -1.45 -2.65 -1.35 -2.55 -1.25 -2.3 -1.05 -2.25 -1.05 -2.25 -1.0 Q-1.95 -0.75 -1.75 -0.4 L-1.7 -0.3" fill="#d0f0f0" fill-rule="evenodd" stroke="none"/>
    </g>
  </defs>
</svg>
