<?xml version="1.0" encoding="UTF-8" standalone="no"?>
<svg xmlns:ffdec="https://www.free-decompiler.com/flash" xmlns:xlink="http://www.w3.org/1999/xlink" ffdec:objectType="frame" height="87.5px" width="72.8px" xmlns="http://www.w3.org/2000/svg">
  <g transform="matrix(1.0, 0.0, 0.0, 1.0, 25.9, 67.55)">
    <use ffdec:characterId="293" height="12.5" transform="matrix(7.0, 0.0, 0.0, 7.0, -25.9, -67.55)" width="10.4" xlink:href="#shape0"/>
  </g>
  <defs>
    <g id="shape0" transform="matrix(1.0, 0.0, 0.0, 1.0, 3.7, 9.65)">
      <path d="M-1.0 1.35 L-0.95 1.5 -1.0 1.55 -1.25 1.6 -1.45 1.55 -1.85 1.65 -2.15 1.65 -2.15 1.45 Q-2.15 1.1 -2.05 0.8 -1.95 0.35 -1.7 0.25 L-1.6 0.25 Q-1.4 0.25 -1.2 0.65 -1.15 0.95 -1.0 1.35 M-0.1 -0.6 L-0.1 -0.6 M5.5 -1.5 L5.55 -1.45 5.05 -1.1 5.0 -1.1 5.05 -1.35 Q5.1 -1.55 5.35 -1.55 L5.5 -1.5 M3.45 -0.9 Q3.65 -0.8 3.9 -0.45 L3.2 -0.1 3.2 -0.35 Q3.2 -0.5 3.3 -0.7 L3.45 -0.9 M0.1 -0.45 Q0.25 -0.85 0.6 -0.85 0.8 -0.85 0.95 -0.65 L1.05 -0.5 1.05 -0.45 Q1.2 -0.2 1.25 -0.05 L1.25 0.0 Q1.25 0.2 1.4 0.7 L0.4 1.1 0.35 1.1 0.35 1.05 0.5 0.75 0.45 0.65 0.3 0.45 0.05 0.25 0.05 0.15 0.0 0.05 Q0.0 -0.2 0.1 -0.45 M0.4 0.85 L0.4 0.8 0.45 0.8 0.4 0.85" fill="#326632" fill-rule="evenodd" stroke="none"/>
      <path d="M-2.05 -8.4 Q-2.05 -8.35 -2.05 -8.2 L-2.2 -6.65 -2.3 -5.25 -2.35 -4.65 -2.45 -3.4 -2.65 -1.9 Q-2.65 -1.85 -2.7 -1.65 L-2.95 -0.65 -3.0 -0.2 -3.05 0.15 -3.1 0.55 -3.2 0.9 -3.25 1.25 -3.25 1.3 -3.35 1.5 -3.35 1.55 -3.25 1.95 Q-3.0 2.35 -2.45 2.55 -2.45 2.5 -2.45 2.4 L-2.45 2.2 -2.4 1.25 -2.45 0.95 Q-2.45 0.8 -2.4 0.7 L-2.3 0.4 -2.25 0.35 Q-2.1 0.05 -1.9 0.0 L-1.75 0.0 -1.55 -0.05 Q-1.05 -0.05 -0.9 0.45 -0.85 0.7 -0.85 1.05 L-0.8 1.15 -0.7 1.45 -0.65 1.65 -0.45 2.0 -0.25 2.45 -0.2 2.3 -0.2 2.05 -0.15 1.95 -0.1 1.8 0.05 1.3 0.1 1.2 0.15 0.85 0.1 0.8 Q-0.05 0.7 -0.15 0.5 L-0.25 0.35 Q-0.35 0.0 -0.35 -0.25 -0.35 -0.95 0.25 -1.1 0.7 -1.2 0.95 -0.95 1.1 -0.9 1.2 -0.65 L1.35 -0.25 1.45 0.0 1.65 0.6 1.65 0.7 1.75 0.9 1.9 1.05 Q2.05 0.9 2.2 0.6 2.35 0.3 2.95 0.25 L3.0 0.2 2.95 -0.4 Q2.95 -0.55 3.05 -0.75 3.15 -1.0 3.25 -1.05 L3.55 -1.05 Q3.95 -1.05 4.25 -0.65 L4.35 -0.65 4.25 -0.6 4.3 -0.55 4.8 0.2 4.9 -0.1 Q5.0 -0.35 5.0 -0.55 L5.0 -0.7 4.85 -0.9 4.8 -0.95 4.8 -1.0 Q4.7 -1.15 4.7 -1.3 L4.75 -1.35 Q4.75 -1.45 4.85 -1.6 5.05 -1.8 5.35 -1.8 L5.45 -1.8 5.6 -1.75 5.65 -1.7 5.8 -1.5 6.05 -1.1 Q6.1 -1.15 6.25 -1.45 L6.35 -1.7 6.3 -1.75 6.1 -1.9 6.05 -1.95 Q5.75 -2.1 5.3 -2.65 4.85 -3.1 4.45 -3.7 L3.8 -4.65 3.05 -5.65 Q2.4 -6.55 2.0 -7.6 L1.9 -7.8 Q1.6 -8.7 1.55 -9.65 1.9 -9.7 1.95 -9.4 2.0 -9.05 2.1 -8.9 L2.3 -8.35 2.5 -7.85 3.05 -6.9 3.65 -5.9 4.25 -4.95 Q4.65 -4.4 5.05 -4.0 L5.85 -3.15 Q6.4 -2.55 6.5 -2.25 L6.55 -2.3 6.65 -2.3 6.6 -2.2 6.55 -2.15 6.55 -2.05 Q6.7 -1.9 6.7 -1.8 L6.5 -1.25 Q6.3 -0.7 6.1 -0.7 6.05 -0.7 5.85 -1.0 L5.85 -0.95 5.8 -1.05 5.25 -0.7 5.15 -0.1 Q5.0 0.45 4.85 0.45 4.5 0.45 4.15 -0.05 L3.5 0.3 Q3.35 0.35 3.25 0.4 2.95 0.55 2.5 0.8 L2.4 0.85 2.4 0.9 Q2.4 0.95 2.0 1.45 1.85 1.45 1.65 1.2 L1.5 1.25 Q0.95 1.5 0.6 1.7 L0.1 1.9 0.1 2.0 Q0.0 2.35 -0.1 2.55 L-0.1 2.65 Q-0.15 2.7 -0.2 2.7 -0.4 2.7 -0.7 2.05 L-1.6 2.25 -1.7 2.3 -2.15 2.3 -2.2 2.75 -2.2 2.85 -2.25 2.85 Q-2.9 2.75 -3.3 2.25 -3.45 2.05 -3.55 1.8 -3.7 1.6 -3.7 1.4 L-3.5 0.35 -3.45 0.2 -3.4 -0.95 Q-3.35 -1.4 -3.25 -2.25 L-3.25 -2.55 -3.2 -2.85 -3.05 -4.2 -3.0 -4.6 -2.9 -5.2 -2.75 -6.15 Q-2.6 -7.05 -2.6 -7.45 -2.6 -7.95 -2.3 -8.3 -2.15 -8.55 -2.05 -8.4 M0.1 -0.45 Q0.0 -0.2 0.0 0.05 L0.05 0.15 0.05 0.25 0.3 0.45 0.45 0.65 0.5 0.75 0.35 1.05 0.35 1.1 0.4 1.1 1.4 0.7 Q1.25 0.2 1.25 0.0 L1.25 -0.05 Q1.2 -0.2 1.05 -0.45 L1.05 -0.5 0.95 -0.65 Q0.8 -0.85 0.6 -0.85 0.25 -0.85 0.1 -0.45 M3.45 -0.9 L3.3 -0.7 Q3.2 -0.5 3.2 -0.35 L3.2 -0.1 3.9 -0.45 Q3.65 -0.8 3.45 -0.9 M5.5 -1.5 L5.35 -1.55 Q5.1 -1.55 5.05 -1.35 L5.0 -1.1 5.05 -1.1 5.55 -1.45 5.5 -1.5 M-0.1 -0.6 L-0.1 -0.6 M-1.0 1.35 Q-1.15 0.95 -1.2 0.65 -1.4 0.25 -1.6 0.25 L-1.7 0.25 Q-1.95 0.35 -2.05 0.8 -2.15 1.1 -2.15 1.45 L-2.15 1.65 -1.85 1.65 -1.45 1.55 -1.25 1.6 -1.0 1.55 -0.95 1.5 -1.0 1.35 M1.95 1.2 L2.0 1.2 2.05 1.15 1.95 1.2 M0.4 0.85 L0.45 0.8 0.4 0.8 0.4 0.85" fill="#111111" fill-rule="evenodd" stroke="none"/>
      <path d="M-2.05 -8.4 Q-1.7 -8.85 -0.45 -9.25 0.45 -9.5 1.35 -9.65 L1.55 -9.65 Q1.6 -8.7 1.9 -7.8 L2.0 -7.6 Q2.4 -6.55 3.05 -5.65 L3.8 -4.65 4.45 -3.7 Q4.85 -3.1 5.3 -2.65 5.75 -2.1 6.05 -1.95 L6.1 -1.9 6.3 -1.75 6.35 -1.7 6.25 -1.45 Q6.1 -1.15 6.05 -1.1 L5.8 -1.5 5.65 -1.7 5.6 -1.75 5.45 -1.8 5.35 -1.8 Q5.05 -1.8 4.85 -1.6 4.75 -1.45 4.75 -1.35 L4.7 -1.3 Q4.7 -1.15 4.8 -1.0 L4.8 -0.95 4.85 -0.9 5.0 -0.7 5.0 -0.55 Q5.0 -0.35 4.9 -0.1 L4.8 0.2 4.3 -0.55 4.25 -0.6 4.35 -0.65 4.25 -0.65 Q3.95 -1.05 3.55 -1.05 L3.25 -1.05 Q3.15 -1.0 3.05 -0.75 2.95 -0.55 2.95 -0.4 L3.0 0.2 2.95 0.25 Q2.35 0.3 2.2 0.6 2.05 0.9 1.9 1.05 L1.75 0.9 1.65 0.7 1.65 0.6 1.45 0.0 1.35 -0.25 1.2 -0.65 Q1.1 -0.9 0.95 -0.95 0.7 -1.2 0.25 -1.1 -0.35 -0.95 -0.35 -0.25 -0.35 0.0 -0.25 0.35 L-0.15 0.5 Q-0.05 0.7 0.1 0.8 L0.15 0.85 0.1 1.2 0.05 1.3 -0.1 1.8 -0.15 1.95 -0.2 2.05 -0.2 2.3 -0.25 2.45 -0.45 2.0 -0.65 1.65 -0.7 1.45 -0.8 1.15 -0.85 1.05 Q-0.85 0.7 -0.9 0.45 -1.05 -0.05 -1.55 -0.05 L-1.75 0.0 -1.9 0.0 Q-2.1 0.05 -2.25 0.35 L-2.3 0.4 -2.4 0.7 Q-2.45 0.8 -2.45 0.95 L-2.4 1.25 -2.45 2.2 -2.45 2.4 Q-2.45 2.5 -2.45 2.55 -3.0 2.35 -3.25 1.95 L-3.35 1.55 -3.35 1.5 -3.25 1.3 -3.25 1.25 -3.2 0.9 -3.1 0.55 -3.05 0.15 -3.0 -0.2 -2.95 -0.65 -2.7 -1.65 Q-2.65 -1.85 -2.65 -1.9 L-2.45 -3.4 -2.35 -4.65 -2.3 -5.25 -2.2 -6.65 -2.05 -8.2 Q-2.05 -8.35 -2.05 -8.4" fill="#1f401f" fill-rule="evenodd" stroke="none"/>
    </g>
  </defs>
</svg>
