<?xml version="1.0" encoding="UTF-8" standalone="no"?>
<svg xmlns:ffdec="https://www.free-decompiler.com/flash" xmlns:xlink="http://www.w3.org/1999/xlink" ffdec:objectType="frame" height="492.45px" width="424.55px" xmlns="http://www.w3.org/2000/svg">
  <g transform="matrix(1.0, 0.0, 0.0, 1.0, 204.55, 463.3)">
    <use ffdec:characterId="1967" height="33.35" transform="matrix(7.0, 0.0, 0.0, 7.0, -139.45, -257.85)" width="45.0" xlink:href="#shape0"/>
  </g>
  <defs>
    <g id="shape0" transform="matrix(1.0, 0.0, 0.0, 1.0, 20.75, 19.95)">
      <path d="M18.7 0.85 Q17.65 1.0 15.95 1.45 L15.75 1.55 Q15.6 1.55 15.6 1.4 15.6 1.35 17.05 0.9 18.35 0.45 18.6 0.4 L18.7 0.4 18.7 -0.25 18.8 -0.25 Q18.9 -1.25 19.1 -2.15 L18.6 -2.15 Q17.15 -1.95 16.4 -1.6 15.5 -1.1 14.85 -0.85 15.65 -1.4 17.0 -2.0 17.95 -2.4 18.7 -2.55 L18.9 -2.7 19.3 -2.8 Q19.6 -3.8 20.05 -4.75 L20.45 -5.45 Q18.3 -5.05 16.3 -4.1 15.55 -3.75 14.6 -3.15 L13.05 -2.25 Q14.7 -3.5 16.4 -4.35 L16.95 -4.6 16.85 -4.55 Q17.55 -4.8 18.6 -5.3 19.5 -5.65 20.6 -5.85 L20.75 -5.85 20.75 -5.9 Q22.0 -7.75 24.0 -9.1 L23.95 -9.25 23.0 -9.3 21.7 -9.2 Q20.55 -8.95 19.55 -8.7 17.8 -8.15 15.75 -7.15 12.45 -5.5 10.1 -3.55 7.15 -1.15 6.15 -0.1 5.35 0.75 4.8 1.55 3.6 3.3 3.9 4.3 L3.85 4.35 3.7 4.4 Q3.9 4.75 4.3 5.0 5.95 4.95 7.15 5.7 L7.2 5.8 7.6 6.2 7.65 6.35 7.95 6.85 7.65 6.6 7.55 6.6 Q5.95 6.6 5.0 6.25 3.95 5.9 3.2 5.75 L2.8 5.65 2.75 5.6 2.6 5.6 2.45 5.55 2.35 5.55 Q1.6 5.55 0.75 6.55 L0.15 7.25 Q-0.2 7.55 -0.55 7.55 -2.05 7.55 -2.65 7.0 -2.85 6.85 -2.95 6.6 L-3.0 6.4 -2.95 6.35 -2.8 6.3 -3.2 5.45 -3.25 5.3 -3.35 5.1 Q-3.9 4.2 -5.5 3.85 L-6.2 3.8 -6.95 3.75 Q-8.85 3.3 -9.3 2.6 L-9.45 2.35 Q-9.55 2.6 -9.55 2.75 L-9.65 2.75 -9.65 2.6 -9.7 2.4 Q-9.7 2.15 -9.25 1.55 -8.9 1.1 -8.6 0.8 L-8.6 0.85 Q-7.9 0.15 -6.45 -0.9 L-4.4 -2.35 -4.1 -2.55 Q-3.5 -5.7 -3.5 -6.1 -3.5 -7.95 -3.9 -9.6 -4.35 -11.2 -5.3 -13.2 -5.5 -13.6 -7.8 -16.95 L-9.7 -19.7 -9.7 -19.75 -9.8 -19.65 Q-10.05 -19.45 -10.05 -19.35 -11.05 -18.3 -12.5 -16.5 L-12.55 -16.4 Q-11.05 -15.55 -9.75 -14.25 -8.9 -13.45 -8.2 -12.5 L-8.15 -12.45 Q-7.8 -12.0 -7.45 -11.35 L-7.25 -11.0 -6.5 -9.5 Q-6.85 -9.75 -7.45 -10.8 -8.75 -12.5 -9.8 -13.6 -11.3 -15.1 -12.9 -16.0 L-13.1 -16.1 -12.95 -15.95 Q-14.3 -14.2 -15.5 -12.4 -13.6 -11.85 -11.95 -10.85 -11.0 -10.25 -9.05 -8.7 L-9.05 -8.6 -9.15 -8.55 -9.65 -8.95 Q-10.2 -9.15 -10.9 -9.6 L-12.25 -10.35 Q-13.95 -11.35 -15.9 -11.85 -16.8 -10.45 -17.6 -9.05 -18.05 -8.25 -18.45 -7.4 -18.0 -7.15 -17.25 -6.85 -16.0 -6.4 -15.35 -6.0 L-15.35 -5.95 -14.6 -5.7 Q-14.95 -5.75 -15.35 -5.85 L-15.5 -5.9 -15.6 -5.9 -15.7 -5.95 -16.65 -6.1 Q-17.45 -6.25 -18.0 -6.5 L-18.7 -6.85 Q-19.25 -5.5 -19.7 -4.05 -20.15 -2.45 -20.4 -1.05 L-20.55 -0.95 -20.55 -0.9 -20.45 -0.85 -19.3 -0.7 Q-19.5 -0.55 -19.85 -0.4 -20.25 -0.25 -20.5 -0.2 L-20.5 -0.15 -20.55 1.1 Q-20.55 3.35 -19.55 5.2 -19.25 5.75 -18.35 7.05 L-18.25 7.0 -18.05 6.8 -17.8 6.8 -17.8 6.95 -18.0 7.5 -17.2 8.55 -16.85 8.95 Q-16.3 9.5 -15.9 9.8 -14.6 10.85 -12.5 11.35 L-9.85 11.45 -9.25 11.5 -8.6 11.55 -7.5 11.55 -6.05 11.35 -5.75 11.45 -5.75 11.5 Q-5.35 11.45 -5.2 11.55 L-2.9 11.6 Q-1.75 11.85 -0.2 12.35 0.95 12.7 1.95 12.95 L3.1 12.95 Q3.2 12.95 3.3 13.05 L3.5 13.1 5.4 13.2 5.9 13.2 6.2 13.15 8.85 13.1 Q12.0 12.8 13.75 12.1 L14.15 11.85 14.4 11.6 14.3 11.3 Q14.2 10.95 14.2 10.7 14.2 10.5 14.25 10.4 L14.35 10.4 14.7 10.95 14.85 11.3 Q16.95 9.85 17.9 7.1 18.3 6.05 18.5 4.6 L18.35 4.55 Q18.0 4.35 17.25 4.15 L17.25 4.1 17.25 4.05 17.2 4.05 17.2 4.1 17.2 4.15 17.1 4.1 17.15 4.05 18.15 4.1 18.55 4.15 18.55 4.1 Q18.7 2.7 18.7 1.0 L18.7 0.85 M10.0 -3.75 Q12.3 -5.65 15.65 -7.35 17.7 -8.4 19.5 -8.9 20.5 -9.2 21.65 -9.4 L21.7 -9.4 23.0 -9.5 23.95 -9.45 24.05 -9.45 24.1 -9.35 24.2 -9.2 Q24.25 -9.15 24.25 -9.05 24.2 -8.95 24.15 -8.9 22.2 -7.6 20.95 -5.8 L20.9 -5.7 Q20.8 -5.65 20.75 -5.65 L20.6 -5.65 20.7 -5.5 Q20.7 -5.4 20.65 -5.35 L20.25 -4.65 Q19.8 -3.75 19.5 -2.75 L19.45 -2.65 Q19.4 -2.6 19.35 -2.6 L19.0 -2.5 18.85 -2.4 18.8 -2.4 19.1 -2.35 19.25 -2.35 19.3 -2.25 19.3 -2.1 Q19.1 -1.2 19.0 -0.25 L18.95 -0.1 18.9 0.4 18.85 0.55 Q18.8 0.6 18.7 0.6 18.75 0.65 18.8 0.65 18.85 0.7 18.9 0.8 L18.9 1.0 Q18.9 2.65 18.75 4.0 L18.8 4.05 18.75 4.15 18.75 4.2 18.65 4.35 18.45 4.35 18.55 4.4 18.65 4.5 18.7 4.65 Q18.5 6.1 18.1 7.2 17.1 10.0 15.0 11.45 L14.9 11.5 14.85 11.5 14.75 11.45 14.7 11.35 14.5 11.05 14.45 11.0 14.5 11.25 14.6 11.55 14.6 11.65 14.55 11.75 14.3 12.0 14.25 12.0 13.85 12.3 13.8 12.3 Q12.1 13.0 8.9 13.3 L6.25 13.35 5.9 13.4 5.35 13.4 3.5 13.3 Q3.4 13.3 3.2 13.2 L3.1 13.15 1.85 13.15 Q0.9 12.9 -0.25 12.55 L-0.3 12.55 Q-1.8 12.05 -2.9 11.8 L-5.2 11.75 -5.3 11.75 -5.75 11.7 -5.85 11.65 -5.9 11.65 -6.05 11.6 -7.45 11.75 -8.6 11.75 -8.75 11.7 -9.25 11.7 -9.85 11.65 -9.95 11.6 -12.5 11.55 -12.55 11.55 Q-14.7 11.0 -16.0 10.0 -16.45 9.65 -17.0 9.1 L-17.35 8.7 -17.4 8.7 -18.15 7.6 -18.15 7.65 -18.2 7.55 -18.2 7.4 -18.05 7.1 -18.1 7.15 -18.15 7.15 -18.2 7.2 -18.35 7.25 -18.5 7.15 Q-19.4 5.9 -19.75 5.3 -20.75 3.4 -20.75 1.1 -20.75 0.5 -20.7 -0.15 L-20.7 -0.25 -20.65 -0.35 -20.55 -0.45 Q-20.35 -0.45 -20.0 -0.6 L-20.6 -0.7 -20.7 -0.75 Q-20.75 -0.8 -20.75 -0.9 L-20.75 -1.05 -20.6 -1.2 Q-20.35 -2.55 -19.9 -4.1 -19.45 -5.6 -18.9 -6.95 L-18.8 -7.0 -18.8 -7.05 -18.6 -7.05 -17.9 -6.7 Q-17.4 -6.45 -16.6 -6.3 L-16.4 -6.3 -17.3 -6.65 Q-18.15 -6.95 -18.55 -7.25 -18.6 -7.3 -18.65 -7.35 -18.65 -7.45 -18.6 -7.5 -18.25 -8.4 -17.75 -9.15 -16.95 -10.6 -16.05 -11.95 L-15.95 -12.05 -15.8 -12.05 Q-13.85 -11.55 -12.1 -10.55 L-10.85 -9.8 -10.8 -9.8 -10.55 -9.65 Q-11.5 -10.3 -12.05 -10.65 -13.7 -11.65 -15.55 -12.2 L-15.65 -12.3 -15.7 -12.4 -15.65 -12.55 -15.7 -12.55 Q-14.5 -14.25 -13.2 -15.95 L-13.25 -15.95 Q-13.3 -16.0 -13.35 -16.1 -13.35 -16.2 -13.3 -16.25 L-13.15 -16.35 -13.0 -16.3 Q-11.3 -15.4 -9.65 -13.75 L-9.65 -13.7 Q-8.85 -12.95 -7.9 -11.75 L-8.3 -12.25 -8.35 -12.35 Q-9.05 -13.3 -9.9 -14.1 -11.15 -15.35 -12.65 -16.25 L-12.75 -16.3 -12.75 -16.45 -12.65 -16.65 Q-11.25 -18.4 -10.25 -19.45 -10.25 -19.6 -9.95 -19.8 L-9.95 -19.85 -9.75 -19.95 -9.65 -19.95 -9.55 -19.85 -7.6 -17.05 Q-5.3 -13.7 -5.1 -13.3 -4.15 -11.3 -3.7 -9.65 -3.3 -8.0 -3.3 -6.1 -3.3 -5.7 -3.9 -2.5 -3.9 -2.4 -4.0 -2.35 L-4.3 -2.15 -6.35 -0.7 Q-7.75 0.3 -8.45 1.0 L-8.55 1.05 -9.05 1.7 -9.35 2.15 -9.3 2.15 -9.3 2.2 Q-9.25 2.2 -9.25 2.3 -8.95 3.05 -6.9 3.55 -6.85 3.55 -6.8 3.6 L-6.2 3.6 -5.5 3.65 -5.45 3.65 Q-3.75 4.05 -3.15 5.0 L-3.05 5.2 -3.0 5.35 -2.6 6.2 Q-2.6 6.25 -2.6 6.35 L-2.65 6.45 -2.75 6.5 -2.75 6.55 Q-2.65 6.7 -2.5 6.85 -1.95 7.35 -0.55 7.35 -0.25 7.35 0.0 7.1 L0.6 6.4 Q1.5 5.3 2.35 5.3 L2.4 5.35 2.5 5.35 2.65 5.4 2.85 5.4 3.25 5.5 Q4.0 5.7 5.05 6.05 5.95 6.35 7.45 6.35 L7.45 6.3 7.05 5.95 7.05 5.9 7.0 5.85 Q5.85 5.15 4.3 5.2 L4.2 5.2 Q3.75 4.9 3.55 4.5 3.5 4.4 3.5 4.35 3.55 4.25 3.6 4.2 L3.65 4.2 Q3.45 3.15 4.65 1.4 5.2 0.6 6.0 -0.25 7.0 -1.3 9.95 -3.7 L10.0 -3.75 M18.6 0.6 L18.55 0.65 18.65 0.6 18.6 0.6 M17.2 4.1 L17.2 4.1" fill="#ffffff" fill-rule="evenodd" stroke="none"/>
      <path d="M-9.3 2.6 Q-8.85 3.3 -6.95 3.75 L-6.2 3.8 -5.5 3.85 Q-3.9 4.2 -3.35 5.1 L-3.25 5.3 -3.2 5.45 -2.8 6.3 -2.95 6.35 -3.0 6.4 -2.95 6.6 Q-2.85 6.85 -2.65 7.0 -2.05 7.55 -0.55 7.55 -0.2 7.55 0.15 7.25 L0.75 6.55 Q1.6 5.55 2.35 5.55 L2.45 5.55 2.6 5.6 2.75 5.6 2.8 5.65 3.2 5.75 Q3.95 5.9 5.0 6.25 5.95 6.6 7.55 6.6 L7.65 6.6 7.95 6.85 7.65 6.35 7.6 6.2 7.2 5.8 7.15 5.7 Q5.95 4.95 4.3 5.0 3.9 4.75 3.7 4.4 L3.85 4.35 3.9 4.3 Q3.6 3.3 4.8 1.55 5.35 0.75 6.15 -0.1 7.15 -1.15 10.1 -3.55 12.45 -5.5 15.75 -7.15 17.8 -8.15 19.55 -8.7 20.55 -8.95 21.7 -9.2 L23.0 -9.3 23.95 -9.25 24.0 -9.1 Q22.0 -7.75 20.75 -5.9 L20.75 -5.85 20.6 -5.85 Q19.5 -5.65 18.6 -5.3 17.55 -4.8 16.85 -4.55 L16.95 -4.6 16.4 -4.35 Q14.7 -3.5 13.05 -2.25 L14.6 -3.15 Q15.55 -3.75 16.3 -4.1 18.3 -5.05 20.45 -5.45 L20.05 -4.75 Q19.6 -3.8 19.3 -2.8 L18.9 -2.7 18.7 -2.55 Q17.95 -2.4 17.0 -2.0 15.65 -1.4 14.85 -0.85 15.5 -1.1 16.4 -1.6 17.15 -1.95 18.6 -2.15 L19.1 -2.15 Q18.9 -1.25 18.8 -0.25 L18.7 -0.25 18.7 0.4 18.6 0.4 Q18.35 0.45 17.05 0.9 15.6 1.35 15.6 1.4 15.6 1.55 15.75 1.55 L15.95 1.45 Q17.65 1.0 18.7 0.85 L18.7 1.0 Q18.7 2.7 18.55 4.1 L18.55 4.15 18.15 4.1 17.15 4.05 17.1 4.1 17.2 4.15 17.25 4.15 Q18.0 4.35 18.35 4.55 L18.5 4.6 Q18.3 6.05 17.9 7.1 16.95 9.85 14.85 11.3 L14.7 10.95 14.35 10.4 14.25 10.4 Q14.2 10.5 14.2 10.7 14.2 10.95 14.3 11.3 L14.4 11.6 14.15 11.85 13.75 12.1 Q12.0 12.8 8.85 13.1 L6.2 13.15 5.9 13.2 5.4 13.2 3.5 13.1 3.3 13.05 Q3.2 12.95 3.1 12.95 L1.95 12.95 Q0.95 12.7 -0.2 12.35 -1.75 11.85 -2.9 11.6 L-5.2 11.55 Q-5.35 11.45 -5.75 11.5 L-5.75 11.45 -6.05 11.35 -7.5 11.55 -8.6 11.55 -9.25 11.5 -9.85 11.45 -12.5 11.35 Q-14.6 10.85 -15.9 9.8 -16.3 9.5 -16.85 8.95 L-17.2 8.55 -18.0 7.5 -17.8 6.95 -17.8 6.8 -18.05 6.8 -18.25 7.0 -18.35 7.05 Q-19.25 5.75 -19.55 5.2 -20.55 3.35 -20.55 1.1 L-20.5 -0.15 -20.5 -0.2 Q-20.25 -0.25 -19.85 -0.4 -19.5 -0.55 -19.3 -0.7 L-20.45 -0.85 -20.4 -1.05 Q-20.15 -2.45 -19.7 -4.05 -19.25 -5.5 -18.7 -6.85 L-18.0 -6.5 Q-17.45 -6.25 -16.65 -6.1 L-15.7 -5.95 -15.6 -5.9 -15.5 -5.9 -15.35 -5.85 Q-14.95 -5.75 -14.6 -5.7 L-15.35 -5.95 -15.35 -6.0 Q-16.0 -6.4 -17.25 -6.85 -18.0 -7.15 -18.45 -7.4 -18.05 -8.25 -17.6 -9.05 -16.8 -10.45 -15.9 -11.85 -13.95 -11.35 -12.25 -10.35 L-10.9 -9.6 Q-10.2 -9.15 -9.65 -8.95 L-9.15 -8.55 -9.05 -8.6 -9.05 -8.7 Q-11.0 -10.25 -11.95 -10.85 -13.6 -11.85 -15.5 -12.4 -14.3 -14.2 -12.95 -15.95 L-12.9 -16.0 Q-11.3 -15.1 -9.8 -13.6 -8.75 -12.5 -7.45 -10.8 -6.85 -9.75 -6.5 -9.5 L-7.25 -11.0 -7.45 -11.35 Q-7.8 -12.0 -8.15 -12.45 L-8.2 -12.5 Q-8.9 -13.45 -9.75 -14.25 -11.05 -15.55 -12.55 -16.4 L-12.5 -16.5 Q-11.05 -18.3 -10.05 -19.35 -10.05 -19.45 -9.8 -19.65 L-9.7 -19.7 -7.8 -16.95 Q-5.5 -13.6 -5.3 -13.2 -4.35 -11.2 -3.9 -9.6 -3.5 -7.95 -3.5 -6.1 -3.5 -5.7 -4.1 -2.55 L-4.4 -2.35 -6.45 -0.9 Q-7.9 0.15 -8.6 0.85 L-8.6 0.8 Q-8.9 1.1 -9.25 1.55 -9.7 2.15 -9.7 2.4 L-9.65 2.6 -9.65 2.75 -9.55 2.75 -9.3 2.6" fill="#70ffff" fill-opacity="0.49803922" fill-rule="evenodd" stroke="none"/>
      <path d="M-9.3 2.6 L-9.55 2.75 Q-9.55 2.6 -9.45 2.35 L-9.3 2.6 M-9.7 -19.7 L-9.8 -19.65 -9.7 -19.75 -9.7 -19.7 M-12.5 -16.5 L-12.55 -16.4 -12.5 -16.5 M-12.9 -16.0 L-12.95 -15.95 -13.1 -16.1 -12.9 -16.0 M-20.4 -1.05 L-20.45 -0.85 -20.55 -0.9 -20.55 -0.95 -20.4 -1.05 M18.7 1.0 L18.7 0.85 18.7 1.0" fill="#000000" fill-rule="evenodd" stroke="none"/>
    </g>
  </defs>
</svg>
