<?xml version="1.0" encoding="UTF-8" standalone="no"?>
<svg xmlns:ffdec="https://www.free-decompiler.com/flash" xmlns:xlink="http://www.w3.org/1999/xlink" ffdec:objectType="frame" height="118.9px" width="119.35px" xmlns="http://www.w3.org/2000/svg">
  <g transform="matrix(1.0, 0.0, 0.0, 1.0, 12.5, 92.25)">
    <use ffdec:characterId="3391" height="28.9" id="am_Wrapper" transform="matrix(1.0, 0.0, 0.0, 1.0, -12.5, -79.55)" width="119.35" xlink:href="#sprite0"/>
  </g>
  <defs>
    <g id="sprite0" transform="matrix(1.0, 0.0, 0.0, 1.0, -13.5, 2.25)">
      <use ffdec:characterId="3389" height="23.0" transform="matrix(1.0, 0.0, 0.0, 1.0, 13.5, 1.6)" width="119.35" xlink:href="#shape0"/>
      <use ffdec:characterId="3390" height="36.95" id="am_Amount" transform="matrix(0.7819, 0.0, 0.0, 0.7819, 13.4863, -2.2637)" width="151.6" xlink:href="#text0"/>
    </g>
    <g id="shape0" transform="matrix(1.0, 0.0, 0.0, 1.0, -13.5, -1.6)">
      <path d="M129.35 5.05 Q132.4 8.05 132.8 12.1 L132.85 12.1 132.85 14.95 132.85 15.1 132.6 15.1 Q132.0 18.45 129.35 21.15 125.85 24.6 120.95 24.6 L25.4 24.6 Q20.5 24.6 17.0 21.15 14.35 18.45 13.75 15.1 L13.5 15.1 13.5 14.95 13.5 12.1 13.55 12.1 Q13.95 8.05 17.0 5.05 20.5 1.6 25.4 1.6 L120.95 1.6 Q125.85 1.6 129.35 5.05" fill="#000000" fill-opacity="0.2" fill-rule="evenodd" stroke="none"/>
    </g>
    <g id="text0" transform="matrix(1.0, 0.0, 0.0, 1.0, 2.0, 2.0)">
      <g transform="matrix(1.0, 0.0, 0.0, 1.0, -2.0, -2.0)">
        <use fill="#f9f3e3" height="36.95" transform="matrix(0.0273, 0.0, 0.0, 0.0273, 10.7, 26.95)" width="151.6" xlink:href="#font_HelveticaRounded_LT_Std_Bd__0"/>
        <use fill="#f9f3e3" height="36.95" transform="matrix(0.0273, 0.0, 0.0, 0.0273, 27.5, 26.95)" width="151.6" xlink:href="#font_HelveticaRounded_LT_Std_Bd_40"/>
        <use fill="#f9f3e3" height="36.95" transform="matrix(0.0273, 0.0, 0.0, 0.0273, 44.6, 26.95)" width="151.6" xlink:href="#font_HelveticaRounded_LT_Std_Bd_00"/>
        <use fill="#f9f3e3" height="36.95" transform="matrix(0.0273, 0.0, 0.0, 0.0273, 61.75, 26.95)" width="151.6" xlink:href="#font_HelveticaRounded_LT_Std_Bd_00"/>
        <use fill="#f9f3e3" height="36.95" transform="matrix(0.0273, 0.0, 0.0, 0.0273, 78.9, 26.95)" width="151.6" xlink:href="#font_HelveticaRounded_LT_Std_Bd_00"/>
      </g>
      <g transform="matrix(1.0, 0.0, 0.0, 1.0, -2.0, -2.0)">
        <use fill="#f9f3e3" height="36.95" transform="matrix(0.0273, 0.0, 0.0, 0.0273, 104.6, 26.95)" width="151.6" xlink:href="#font_HelveticaRounded_LT_Std_Bd_X0"/>
        <use fill="#f9f3e3" height="36.95" transform="matrix(0.0273, 0.0, 0.0, 0.0273, 121.15, 26.95)" width="151.6" xlink:href="#font_HelveticaRounded_LT_Std_Bd_P0"/>
      </g>
    </g>
    <g id="font_HelveticaRounded_LT_Std_Bd__0">
      <path d="M245.5 -351.5 L245.5 -508.0 Q246.0 -540.0 262.0 -559.5 278.5 -579.0 307.0 -580.0 335.5 -579.0 352.0 -559.5 368.0 -540.0 368.5 -508.0 L368.5 -351.5 525.0 -351.5 Q558.0 -351.0 577.0 -334.5 596.5 -318.0 597.0 -290.0 596.5 -262.0 577.0 -245.5 558.0 -229.0 525.0 -228.5 L368.5 -228.5 368.5 -72.0 Q368.0 -39.5 352.0 -20.0 335.5 -0.5 307.0 0.0 278.5 -0.5 262.0 -20.0 246.0 -39.5 245.5 -72.0 L245.5 -228.5 89.0 -228.5 Q56.0 -229.5 37.0 -248.0 17.5 -266.0 17.0 -290.0 17.5 -318.0 37.0 -334.5 56.0 -351.0 89.0 -351.5 L245.5 -351.5" fill-rule="evenodd" stroke="none"/>
    </g>
    <g id="font_HelveticaRounded_LT_Std_Bd_40">
      <path d="M348.0 -58.5 L348.0 -164.0 91.0 -164.0 Q64.5 -164.5 47.0 -175.0 30.0 -185.5 21.5 -201.5 13.0 -218.0 13.0 -234.5 13.0 -254.0 18.0 -268.0 22.5 -282.0 32.5 -295.0 L348.0 -700.0 Q359.5 -715.0 376.5 -722.0 393.0 -728.5 414.5 -728.5 455.5 -728.0 474.0 -708.0 492.0 -688.0 491.5 -654.5 L491.5 -280.5 542.5 -280.5 Q569.0 -280.0 584.5 -264.0 599.5 -248.0 600.0 -222.5 599.5 -196.5 584.5 -180.5 569.0 -164.5 542.5 -164.0 L491.5 -164.0 491.5 -58.5 Q492.0 -25.5 475.5 -6.5 459.0 13.0 420.0 13.5 380.5 13.0 364.0 -6.5 347.5 -25.5 348.0 -58.5 M348.0 -280.5 L348.0 -546.0 346.0 -546.0 148.5 -280.5 348.0 -280.5" fill-rule="evenodd" stroke="none"/>
    </g>
    <g id="font_HelveticaRounded_LT_Std_Bd_00">
      <path d="M40.0 -366.5 Q40.5 -487.5 74.0 -568.0 107.5 -648.5 169.0 -688.5 230.0 -728.5 313.5 -728.5 397.0 -728.5 458.0 -688.5 519.5 -648.5 553.0 -568.0 586.5 -487.5 587.0 -366.5 587.5 -298.0 574.5 -231.0 562.0 -163.5 531.5 -108.5 500.5 -53.5 447.5 -20.5 394.0 12.5 313.5 13.5 233.0 12.5 179.5 -20.5 126.5 -53.5 95.5 -108.5 65.0 -163.5 52.5 -231.0 39.5 -298.0 40.0 -366.5 M189.5 -357.5 Q189.5 -266.5 204.0 -211.5 218.5 -157.0 246.5 -133.0 274.0 -109.0 313.5 -109.5 353.0 -109.0 380.5 -133.0 408.5 -157.0 423.0 -211.5 437.5 -266.5 437.5 -357.5 438.0 -474.0 409.5 -539.0 380.5 -604.5 313.5 -605.5 246.5 -604.5 217.5 -539.0 189.0 -474.0 189.5 -357.5" fill-rule="evenodd" stroke="none"/>
    </g>
    <g id="font_HelveticaRounded_LT_Std_Bd_X0">
      <path d="M34.0 -123.0 L210.0 -380.0 49.5 -621.0 Q41.5 -632.5 37.0 -645.0 32.0 -657.5 32.0 -672.0 32.5 -706.0 56.0 -728.0 79.0 -750.0 116.0 -751.0 145.5 -750.0 162.0 -737.0 178.0 -724.0 185.5 -710.0 L307.5 -500.0 437.5 -710.0 Q449.5 -730.5 464.5 -741.0 479.0 -751.0 506.0 -751.0 538.0 -751.0 561.5 -733.0 585.5 -715.0 587.0 -675.0 586.5 -664.0 582.0 -651.5 578.0 -639.0 571.5 -630.0 L400.5 -380.0 567.5 -129.0 Q580.5 -109.5 587.5 -96.5 595.0 -83.5 595.0 -69.5 594.0 -28.5 569.5 -7.5 545.5 13.5 509.0 13.5 488.5 14.0 470.5 6.5 453.0 -1.5 438.5 -25.5 L303.5 -252.0 158.0 -19.5 Q147.0 -2.0 129.5 6.0 112.0 13.5 92.5 13.5 55.0 13.0 33.5 -7.0 12.0 -27.0 11.5 -58.5 11.0 -71.0 15.5 -86.5 20.0 -101.5 34.0 -123.0" fill-rule="evenodd" stroke="none"/>
    </g>
    <g id="font_HelveticaRounded_LT_Std_Bd_P0">
      <path d="M246.0 -608.5 L246.0 -399.5 402.5 -399.5 Q454.0 -400.0 486.5 -428.0 519.0 -456.0 520.0 -504.0 519.5 -559.0 483.5 -584.0 448.0 -609.0 385.0 -608.5 L246.0 -608.5 M78.0 -70.5 L78.0 -639.0 Q78.5 -694.5 105.0 -716.5 131.0 -738.5 176.5 -737.5 L433.0 -737.5 Q504.5 -737.5 562.0 -713.5 619.5 -689.0 653.5 -637.5 687.0 -585.5 688.0 -504.0 688.0 -436.5 658.0 -384.0 628.0 -331.5 570.5 -301.0 513.5 -271.0 432.0 -270.5 L246.0 -270.5 246.0 -70.5 Q245.5 -32.5 223.0 -9.5 201.0 13.0 162.0 13.5 123.0 13.0 101.0 -9.5 78.5 -32.5 78.0 -70.5" fill-rule="evenodd" stroke="none"/>
    </g>
  </defs>
</svg>
