<?xml version="1.0" encoding="UTF-8" standalone="no"?>
<svg xmlns:ffdec="https://www.free-decompiler.com/flash" xmlns:xlink="http://www.w3.org/1999/xlink" ffdec:objectType="frame" height="38.0px" width="149.3px" xmlns="http://www.w3.org/2000/svg">
  <g transform="matrix(1.0, 0.0, 0.0, 1.0, -4.05, 1.5)">
    <clipPath id="clipPath0" transform="matrix(1.0, 0.0, 0.0, 1.0, 0.0, 0.0)">
      <path d="M134.15 -0.45 Q136.65 0.4 138.45 1.95 L138.45 1.9 Q142.5 5.3 142.5 12.2 L142.5 22.85 Q142.5 29.75 138.45 33.15 134.6 36.5 126.9 36.5 L31.8 36.5 Q18.15 36.5 16.5 26.15 16.2 24.6 16.2 22.85 L16.2 12.2 Q16.1 -1.5 31.8 -1.5 L126.9 -1.5 Q130.9 -1.5 133.85 -0.55 L134.1 -0.5 134.15 -0.45" fill="#ff0000" fill-rule="evenodd" stroke="none"/>
    </clipPath>
    <g clip-path="url(#clipPath0)">
      <use ffdec:characterId="283" height="26.0" transform="matrix(1.0, 0.0, 0.0, 1.0, 22.6, 4.5)" width="113.5" xlink:href="#shape1"/>
      <filter id="filter9">
        <feColorMatrix in="SourceGraphic" result="filterResult0" type="matrix" values="0 0 0 0 0.10980392,0 0 0 0 0.08627451,0 0 0 0 0.023529412,0 0 0 1 0"/>
        <feConvolveMatrix divisor="16.0" in="filterResult0" kernelMatrix="1 1 1 1 1 1 1 1 1 1 1 1 1 1 1 1" order="4 4" result="filterResult1"/>
        <feComposite in="SourceGraphic" in2="filterResult1" operator="over" result="filterResult2"/>
        <feColorMatrix in="filterResult2" result="filterResult3" type="matrix" values="1.0 0.0 0.0 0.0 0.0 0.0 1.0 0.0 0.0 0.0 0.0 0.0 1.0 0.0 0.0 0.0 0.0 0.0 1.0 0.0"/>
      </filter>
      <use ffdec:characterId="506" filter="url(#filter9)" height="25.2" transform="matrix(1.0, 0.0, 0.0, 1.0, 4.05, 5.0)" width="148.05" xlink:href="#text0"/>
    </g>
  </g>
  <defs>
    <g id="shape1" transform="matrix(1.0, 0.0, 0.0, 1.0, -22.6, -4.5)">
      <path d="M126.9 4.5 Q131.4 4.5 133.8 6.3 135.55 7.75 136.0 10.4 L136.1 12.2 136.1 22.85 136.0 24.7 Q134.9 30.5 126.9 30.5 L31.8 30.5 Q23.85 30.5 22.75 24.7 22.6 23.8 22.6 22.85 L22.6 12.2 Q22.7 4.5 31.8 4.5 L126.9 4.5" fill="url(#gradient0)" fill-rule="evenodd" stroke="none"/>
    </g>
    <linearGradient gradientTransform="matrix(0.0, 0.0167, -0.0159, 0.0, 181.85, 18.1)" gradientUnits="userSpaceOnUse" id="gradient0" spreadMethod="pad" x1="-819.2" x2="819.2">
      <stop offset="0.0" stop-color="#202020"/>
      <stop offset="1.0" stop-color="#757575"/>
    </linearGradient>
    <g id="text0" transform="matrix(1.0, 0.0, 0.0, 1.0, 2.0, 2.0)">
      <g transform="matrix(1.0, 0.0, 0.0, 1.0, -2.0, -2.0)">
        <use fill="#eee2bc" height="25.2" transform="matrix(0.0176, 0.0, 0.0, 0.0176, 21.8, 17.35)" width="148.05" xlink:href="#font_HelveticaRounded_LT_Std_Bd_S0"/>
        <use fill="#eee2bc" height="25.2" transform="matrix(0.0176, 0.0, 0.0, 0.0176, 34.1, 17.35)" width="148.05" xlink:href="#font_HelveticaRounded_LT_Std_Bd_w0"/>
        <use fill="#eee2bc" height="25.2" transform="matrix(0.0176, 0.0, 0.0, 0.0176, 48.1, 17.35)" width="148.05" xlink:href="#font_HelveticaRounded_LT_Std_Bd_a0"/>
        <use fill="#eee2bc" height="25.2" transform="matrix(0.0176, 0.0, 0.0, 0.0176, 59.1, 17.35)" width="148.05" xlink:href="#font_HelveticaRounded_LT_Std_Bd_p0"/>
      </g>
      <g transform="matrix(1.0, 0.0, 0.0, 1.0, -2.0, -2.0)">
        <use fill="#eee2bc" height="25.2" transform="matrix(0.0176, 0.0, 0.0, 0.0176, 75.6, 17.35)" width="148.05" xlink:href="#font_HelveticaRounded_LT_Std_Bd_P0"/>
        <use fill="#eee2bc" height="25.2" transform="matrix(0.0176, 0.0, 0.0, 0.0176, 88.25, 17.35)" width="148.05" xlink:href="#font_HelveticaRounded_LT_Std_Bd_a0"/>
        <use fill="#eee2bc" height="25.2" transform="matrix(0.0176, 0.0, 0.0, 0.0176, 99.25, 17.35)" width="148.05" xlink:href="#font_HelveticaRounded_LT_Std_Bd_n0"/>
        <use fill="#eee2bc" height="25.2" transform="matrix(0.0176, 0.0, 0.0, 0.0176, 110.25, 17.35)" width="148.05" xlink:href="#font_HelveticaRounded_LT_Std_Bd_e0"/>
        <use fill="#eee2bc" height="25.2" transform="matrix(0.0176, 0.0, 0.0, 0.0176, 121.25, 17.35)" width="148.05" xlink:href="#font_HelveticaRounded_LT_Std_Bd_l0"/>
      </g>
    </g>
    <g id="font_HelveticaRounded_LT_Std_Bd_S0">
      <path d="M323.5 -459.0 L464.0 -427.0 Q540.0 -409.0 582.0 -376.0 624.0 -342.5 640.5 -300.5 657.0 -258.5 656.5 -215.0 656.5 -148.0 623.0 -95.5 589.5 -43.5 522.0 -13.0 454.5 17.0 353.5 17.5 247.0 16.0 178.5 -13.0 110.5 -42.5 77.5 -85.0 45.0 -128.0 45.0 -169.0 45.5 -200.0 65.0 -219.0 84.5 -238.0 115.5 -238.5 148.5 -237.5 167.5 -218.0 186.0 -198.0 205.0 -172.0 224.0 -146.0 257.5 -126.5 291.0 -106.5 353.5 -105.5 397.0 -106.0 427.0 -119.5 457.0 -133.5 473.0 -155.5 488.5 -178.0 488.5 -203.0 489.5 -226.0 474.0 -247.0 459.0 -268.0 417.0 -279.5 L227.5 -328.0 Q152.0 -348.0 113.0 -380.0 73.5 -412.0 60.0 -451.0 46.0 -490.0 47.0 -529.5 47.5 -591.0 73.0 -634.0 98.5 -677.0 140.5 -704.0 183.0 -730.5 235.0 -743.0 287.0 -755.0 341.0 -755.0 391.0 -755.0 441.0 -742.0 491.0 -729.0 533.0 -706.0 575.0 -682.5 600.5 -651.5 626.0 -620.0 627.0 -583.0 626.0 -551.5 603.5 -534.0 581.5 -516.5 550.0 -516.5 522.0 -517.0 505.0 -533.5 487.5 -550.0 469.5 -571.0 451.0 -592.5 419.5 -609.0 387.5 -625.0 330.0 -626.0 271.0 -625.5 240.0 -601.5 209.0 -578.0 209.0 -539.0 209.5 -513.5 227.0 -498.0 244.0 -482.5 270.0 -474.0 296.5 -465.0 323.5 -459.0" fill-rule="evenodd" stroke="none"/>
    </g>
    <g id="font_HelveticaRounded_LT_Std_Bd_w0">
      <path d="M133.5 -67.5 L24.0 -424.0 Q20.0 -436.0 16.5 -449.5 13.5 -462.5 13.5 -479.5 14.5 -509.0 35.5 -528.5 57.0 -548.5 86.0 -549.0 113.5 -549.0 127.5 -539.5 142.0 -530.5 148.5 -514.0 155.5 -498.0 160.0 -476.0 L239.0 -148.5 241.0 -148.5 304.5 -446.5 Q310.0 -476.0 318.5 -499.5 327.5 -523.0 346.0 -536.5 364.0 -549.5 398.5 -549.0 433.5 -549.5 452.5 -536.5 471.5 -523.5 481.0 -500.0 490.5 -476.5 497.0 -446.5 L561.5 -148.5 563.5 -148.5 637.0 -476.0 Q641.0 -498.0 648.0 -514.0 654.5 -530.5 669.0 -539.5 683.5 -549.0 711.0 -549.0 740.0 -548.5 761.5 -528.5 782.5 -509.0 783.5 -479.5 783.5 -462.5 780.5 -449.5 777.0 -436.0 773.0 -424.0 L663.5 -67.5 Q653.5 -32.5 642.0 -15.0 631.0 2.5 613.0 8.0 595.5 14.0 566.5 13.5 535.5 13.5 518.0 6.5 500.0 -0.5 490.5 -18.0 480.5 -35.0 473.0 -64.5 L399.5 -358.5 397.5 -358.5 324.0 -64.5 Q316.5 -35.0 306.5 -18.0 297.0 -0.5 279.0 6.5 261.5 13.5 230.5 13.5 201.5 14.0 184.0 8.0 166.0 2.5 155.0 -15.0 143.5 -32.5 133.5 -67.5" fill-rule="evenodd" stroke="none"/>
    </g>
    <g id="font_HelveticaRounded_LT_Std_Bd_a0">
      <path d="M406.5 -193.5 L406.5 -252.0 Q393.5 -241.0 374.5 -236.0 356.0 -230.5 342.0 -228.5 L287.5 -220.5 Q240.5 -214.0 216.0 -197.0 191.5 -180.0 191.5 -146.5 192.0 -120.5 213.5 -103.0 235.5 -85.5 274.5 -85.0 315.5 -85.5 345.0 -101.0 374.5 -116.0 390.5 -141.0 406.5 -165.5 406.5 -193.5 M556.0 -395.5 L556.0 -144.5 Q556.5 -113.5 560.0 -96.0 563.5 -78.0 567.5 -66.5 571.0 -55.0 571.5 -44.0 570.5 -18.0 551.0 -2.5 531.5 13.0 504.0 13.5 456.0 12.5 436.5 -13.0 416.5 -38.0 415.5 -73.5 372.0 -26.0 321.0 -6.0 270.0 14.0 211.0 13.5 167.5 13.0 129.5 -5.0 91.0 -23.5 67.0 -58.0 43.0 -92.0 42.0 -139.5 42.5 -200.5 70.5 -236.0 98.5 -271.5 146.0 -288.5 193.0 -305.5 251.0 -311.5 L342.0 -321.5 Q369.5 -323.5 387.5 -334.5 406.0 -345.5 406.5 -377.0 405.5 -409.0 378.0 -424.0 351.0 -438.5 312.5 -438.5 271.5 -438.0 247.0 -425.5 222.5 -413.5 206.5 -397.5 190.5 -381.5 176.0 -369.5 161.0 -357.0 139.5 -356.5 110.5 -357.0 93.5 -373.5 76.0 -390.0 76.0 -414.0 76.0 -444.5 103.5 -475.5 130.5 -506.0 183.5 -527.0 236.5 -548.0 313.5 -549.0 385.5 -549.0 440.0 -533.0 494.5 -517.0 525.0 -483.0 555.5 -449.0 556.0 -395.5" fill-rule="evenodd" stroke="none"/>
    </g>
    <g id="font_HelveticaRounded_LT_Std_Bd_p0">
      <path d="M439.5 -269.5 Q439.5 -314.0 426.5 -350.5 413.5 -387.0 387.0 -409.0 360.5 -431.0 320.5 -432.5 277.5 -432.0 251.0 -409.0 224.5 -386.5 212.5 -349.5 200.5 -312.5 201.0 -269.5 200.5 -230.0 211.5 -191.5 222.5 -153.5 249.0 -128.5 275.5 -103.5 320.5 -103.0 368.0 -104.0 394.0 -130.5 420.0 -157.0 430.0 -195.0 440.0 -233.0 439.5 -269.5 M59.5 137.5 L59.5 -478.5 Q59.5 -513.0 76.0 -531.0 92.5 -549.0 127.0 -549.0 160.0 -549.0 177.5 -531.0 194.5 -513.0 194.5 -478.5 L194.5 -455.0 196.5 -455.0 Q216.0 -502.5 257.5 -525.5 299.0 -549.0 354.5 -549.0 418.0 -549.0 471.0 -518.0 524.0 -487.5 556.0 -424.0 588.0 -361.0 589.0 -264.0 589.0 -191.0 564.5 -128.5 539.5 -65.5 488.5 -26.5 437.5 12.5 358.5 13.5 307.0 13.0 269.5 -6.5 232.0 -26.0 211.0 -62.0 L209.0 -62.0 209.0 137.5 Q208.5 174.0 188.5 193.0 168.5 212.0 134.5 212.0 100.0 212.0 80.0 193.0 60.0 174.0 59.5 137.5" fill-rule="evenodd" stroke="none"/>
    </g>
    <g id="font_HelveticaRounded_LT_Std_Bd_P0">
      <path d="M246.0 -608.5 L246.0 -399.5 402.5 -399.5 Q454.0 -400.0 486.5 -428.0 519.0 -456.0 520.0 -504.0 519.5 -559.0 483.5 -584.0 448.0 -609.0 385.0 -608.5 L246.0 -608.5 M78.0 -70.5 L78.0 -639.0 Q78.5 -694.5 105.0 -716.5 131.0 -738.5 176.5 -737.5 L433.0 -737.5 Q504.5 -737.5 562.0 -713.5 619.5 -689.0 653.5 -637.5 687.0 -585.5 688.0 -504.0 688.0 -436.5 658.0 -384.0 628.0 -331.5 570.5 -301.0 513.5 -271.0 432.0 -270.5 L246.0 -270.5 246.0 -70.5 Q245.5 -32.5 223.0 -9.5 201.0 13.0 162.0 13.5 123.0 13.0 101.0 -9.5 78.5 -32.5 78.0 -70.5" fill-rule="evenodd" stroke="none"/>
    </g>
    <g id="font_HelveticaRounded_LT_Std_Bd_n0">
      <path d="M59.5 -61.5 L59.5 -474.0 Q59.5 -508.5 75.5 -528.5 92.0 -548.5 127.0 -549.0 162.0 -548.5 178.5 -528.5 195.0 -508.5 194.5 -474.0 L194.5 -454.5 196.5 -454.5 Q227.5 -497.0 271.0 -522.5 315.0 -548.0 378.0 -549.0 424.0 -549.5 467.0 -531.5 510.0 -514.0 537.5 -470.5 565.5 -427.5 566.5 -352.5 L566.5 -61.5 Q567.5 -30.5 551.0 -9.0 534.5 12.5 492.0 13.5 449.0 12.5 432.5 -9.0 416.0 -30.5 417.0 -61.5 L417.0 -322.5 Q417.0 -368.5 394.0 -397.0 371.0 -425.5 322.5 -426.0 296.0 -426.0 270.0 -412.0 244.0 -398.5 227.0 -372.0 209.5 -345.5 209.0 -308.0 L209.0 -61.5 Q210.0 -30.5 193.5 -9.0 177.0 12.5 134.5 13.5 91.5 12.5 75.0 -9.0 58.5 -30.5 59.5 -61.5" fill-rule="evenodd" stroke="none"/>
    </g>
    <g id="font_HelveticaRounded_LT_Std_Bd_e0">
      <path d="M186.5 -325.5 L448.5 -325.5 Q441.5 -378.0 407.5 -411.0 373.5 -443.5 322.5 -444.5 266.5 -444.0 232.5 -412.5 198.5 -380.5 186.5 -325.5 M524.5 -239.5 L186.5 -239.5 Q187.0 -179.0 223.0 -141.5 259.0 -104.0 324.5 -103.0 366.0 -103.5 390.5 -114.5 415.0 -125.5 431.0 -140.0 446.5 -154.5 461.0 -165.5 476.0 -176.5 497.5 -177.0 525.0 -176.0 542.0 -158.0 558.5 -140.0 559.0 -118.5 558.5 -84.5 535.0 -60.0 512.0 -35.0 475.5 -18.5 439.5 -2.5 399.5 5.5 359.5 13.5 324.5 13.5 246.5 13.0 191.5 -10.5 136.5 -34.0 102.5 -73.5 68.5 -112.5 52.5 -160.5 37.0 -208.5 37.0 -258.0 37.5 -345.5 71.0 -411.0 104.5 -476.0 167.5 -512.0 230.5 -548.5 319.5 -549.0 406.0 -548.0 466.0 -513.0 526.5 -478.0 558.0 -422.0 589.5 -366.5 590.0 -304.0 590.5 -266.5 576.0 -252.5 561.5 -239.0 524.5 -239.5" fill-rule="evenodd" stroke="none"/>
    </g>
    <g id="font_HelveticaRounded_LT_Std_Bd_l0">
      <path d="M67.5 -61.5 L67.5 -676.0 Q68.0 -713.0 88.0 -732.0 108.0 -751.0 142.5 -751.0 176.5 -751.0 196.5 -732.0 216.5 -713.0 217.0 -676.0 L217.0 -61.5 Q216.5 -24.5 196.5 -5.5 176.5 13.5 142.5 13.5 108.0 13.5 88.0 -5.5 68.0 -24.5 67.5 -61.5" fill-rule="evenodd" stroke="none"/>
    </g>
  </defs>
</svg>
