<?xml version="1.0" encoding="UTF-8" standalone="no"?>
<svg xmlns:ffdec="https://www.free-decompiler.com/flash" xmlns:xlink="http://www.w3.org/1999/xlink" ffdec:objectType="frame" height="171.0px" width="228.4px" xmlns="http://www.w3.org/2000/svg">
  <g transform="matrix(1.0, 0.0, 0.0, 1.0, 0.0, -1.25)">
    <use ffdec:characterId="1321" height="171.0" transform="matrix(1.0, 0.0, 0.0, 1.0, 0.0, 1.25)" width="228.4" xlink:href="#shape0"/>
  </g>
  <defs>
    <g id="shape0" transform="matrix(1.0, 0.0, 0.0, 1.0, 0.0, -1.25)">
      <path d="M228.4 19.45 L228.4 23.95 209.6 24.25 208.35 24.75 190.45 24.75 187.4 27.55 183.35 31.1 182.35 31.75 182.05 31.65 182.35 30.65 182.85 29.3 183.35 28.1 Q185.85 22.3 189.35 21.0 L221.35 20.5 Q222.3 20.05 228.4 19.45 M180.95 31.1 L180.55 30.85 Q179.85 30.15 179.85 28.5 179.85 26.6 181.1 24.55 180.95 26.1 181.1 28.2 L180.95 31.1 M200.1 7.4 Q211.15 1.75 228.35 1.25 L228.4 1.25 228.4 2.0 209.8 5.45 200.1 7.4 M228.4 4.65 L228.4 13.2 191.85 15.6 Q196.25 11.65 197.35 11.0 201.1 8.65 212.2 6.75 L228.4 4.65 M116.0 51.75 L118.45 51.45 118.7 51.75 118.85 51.95 119.4 51.9 Q121.7 51.05 124.8 50.7 133.85 49.8 140.95 53.85 L142.25 53.65 142.9 53.0 Q144.0 52.05 158.35 52.7 166.6 53.05 171.95 54.2 172.25 52.5 173.25 52.3 174.5 52.05 176.35 53.95 L178.35 56.35 179.55 57.1 179.9 57.4 181.25 65.2 177.85 63.05 154.35 61.75 154.35 62.25 Q148.35 62.2 142.25 62.4 L132.6 62.55 Q132.2 62.25 129.8 61.85 L127.45 61.6 Q107.55 61.0 101.0 61.95 L100.95 61.65 Q100.95 58.05 108.2 55.8 L112.2 54.75 112.25 54.7 112.3 54.75 112.4 54.65 112.85 54.3 113.25 53.65 Q114.3 52.3 116.0 51.75 M112.85 68.1 L105.7 67.85 105.25 68.1 102.95 68.2 100.4 67.8 99.2 66.85 99.15 66.6 100.15 65.85 100.45 65.9 Q119.8 66.7 133.8 65.7 149.15 64.65 176.1 65.45 L178.95 68.05 180.1 68.85 180.1 69.1 179.75 69.25 178.95 69.5 178.85 69.35 177.5 69.55 177.35 69.55 Q174.85 69.4 174.85 68.9 L174.05 68.4 173.95 68.2 145.35 69.1 123.8 68.45 116.45 68.05 112.85 68.1 M88.05 21.55 L72.45 20.9 63.3 19.45 60.25 19.2 59.45 19.3 53.4 19.35 46.45 19.75 44.4 17.45 Q44.0 16.95 43.95 16.65 L43.95 16.55 Q43.95 14.6 45.75 14.25 47.5 14.0 55.25 14.2 56.4 13.6 58.05 13.5 L74.4 14.55 Q74.6 14.3 74.85 14.25 L76.45 14.1 86.75 14.8 Q94.2 15.35 94.45 14.05 L100.2 15.1 100.95 16.35 100.95 16.55 Q100.95 18.3 96.3 21.95 92.1 25.25 90.45 25.7 87.85 24.4 88.1 22.45 L88.4 21.75 88.45 21.6 88.05 21.55 M91.3 41.6 L93.7 48.5 Q95.95 55.5 95.95 57.35 L95.7 62.9 94.85 63.3 94.7 63.4 94.7 63.05 Q94.7 59.2 93.75 52.65 92.8 45.95 91.7 43.0 L91.3 41.6 M92.2 61.7 L91.95 61.3 Q89.3 56.4 86.1 47.6 81.9 35.95 78.95 31.4 L44.85 29.45 40.35 29.0 27.1 28.15 Q19.05 28.15 11.45 31.2 9.25 32.05 7.9 33.25 7.05 34.05 5.95 33.95 L3.3 33.5 Q4.1 31.65 6.45 30.2 19.25 22.55 80.2 25.2 85.1 25.45 88.95 42.5 91.1 51.8 92.2 61.7" fill="#767685" fill-rule="evenodd" stroke="none"/>
      <path d="M228.4 19.45 Q222.3 20.05 221.35 20.5 L189.35 21.0 Q185.85 22.3 183.35 28.1 L182.85 29.3 182.35 30.65 182.05 31.65 Q180.6 36.1 180.6 40.3 180.6 42.75 182.1 52.1 L182.35 53.65 183.35 60.1 183.6 62.15 183.55 65.3 183.45 66.3 183.6 67.5 187.8 67.95 192.6 68.75 212.0 68.5 218.6 69.0 Q218.2 70.2 217.35 70.5 L215.1 70.95 214.8 71.0 210.35 71.5 200.0 71.3 191.1 70.75 184.4 70.45 183.85 71.25 182.6 71.25 182.35 70.7 182.25 70.35 180.6 70.15 Q180.35 69.8 180.15 69.9 L180.1 69.1 180.1 68.85 178.95 68.05 176.1 65.45 Q149.15 64.65 133.8 65.7 119.8 66.7 100.45 65.9 L100.15 65.85 99.15 66.6 Q98.8 66.85 98.5 66.9 97.85 67.4 96.75 69.4 L96.7 69.85 Q96.7 71.55 97.35 73.1 L98.7 75.55 98.7 79.95 Q100.4 81.05 100.7 81.9 L100.7 82.3 98.85 82.6 98.25 82.5 97.95 82.7 97.7 82.85 97.7 84.0 97.65 84.25 97.45 85.25 96.75 85.3 97.4 91.9 Q98.0 98.3 99.95 102.85 L100.7 104.4 100.45 104.85 100.1 105.2 99.45 105.6 96.65 100.7 96.45 103.95 95.45 104.4 Q94.65 101.3 94.45 96.35 L94.45 94.55 94.2 88.1 Q94.1 86.4 92.8 82.0 L92.1 81.9 91.65 82.45 Q88.8 85.35 83.45 85.1 L71.7 84.4 70.65 83.1 Q70.2 82.3 70.2 81.3 L70.7 81.55 72.7 81.9 Q76.9 82.1 80.25 81.85 87.0 81.35 90.05 79.1 L90.55 78.65 91.45 77.65 Q90.2 73.4 90.2 71.85 L90.25 69.85 90.45 69.2 91.2 69.25 91.25 67.45 91.45 63.25 92.2 63.25 92.35 63.25 92.2 61.7 Q91.1 51.8 88.95 42.5 85.1 25.45 80.2 25.2 19.25 22.55 6.45 30.2 4.1 31.65 3.3 33.5 2.65 35.0 3.0 36.8 3.4 38.9 4.7 42.05 4.7 43.3 3.7 49.3 2.7 55.35 2.7 56.6 L2.9 63.35 2.95 63.35 Q2.85 65.0 3.1 66.55 3.55 69.8 5.25 72.8 7.95 77.65 13.5 81.0 L16.7 82.7 Q16.6 83.1 16.9 83.75 16.95 84.2 15.45 84.1 11.7 83.95 8.9 82.2 L9.5 82.5 9.5 81.6 Q9.5 80.0 4.8 77.05 L4.05 76.6 0.85 74.95 0.35 63.25 0.2 56.7 Q0.2 55.6 0.7 51.15 L1.2 44.75 Q1.8 42.45 1.6 38.65 L1.4 36.6 1.2 33.5 Q1.2 30.6 2.7 29.0 L3.25 28.5 Q4.85 27.1 8.15 26.05 L11.15 25.2 Q17.05 23.9 27.55 23.25 L37.7 22.75 Q52.05 22.3 72.45 22.65 L72.45 22.15 Q84.5 18.85 88.35 28.15 89.5 30.9 90.35 36.25 L91.3 41.6 91.7 43.0 Q92.8 45.95 93.75 52.65 94.7 59.2 94.7 63.05 L94.7 63.4 94.7 63.9 94.7 64.15 95.5 64.2 Q95.7 64.0 95.95 63.95 L96.95 63.45 97.05 63.7 97.15 64.25 97.4 63.7 97.4 63.65 Q97.55 62.8 98.65 62.4 L101.0 61.95 Q107.55 61.0 127.45 61.6 L129.8 61.85 Q132.2 62.25 132.6 62.55 L142.25 62.4 Q148.35 62.2 154.35 62.25 L154.35 61.75 177.85 63.05 181.25 65.2 179.9 57.4 179.3 53.6 178.95 51.1 177.85 52.05 128.7 49.85 128.2 49.35 119.85 49.95 116.95 50.45 115.45 50.55 Q112.55 50.45 108.25 36.25 103.75 21.35 100.95 16.35 L100.2 15.1 94.45 14.05 92.15 13.25 87.2 11.55 Q43.75 9.65 23.05 16.1 15.85 18.35 11.25 21.65 L6.75 25.7 5.95 26.45 3.9 26.3 Q2.5 26.05 2.2 25.5 2.8 23.55 5.05 21.6 6.4 20.4 8.3 19.35 L9.45 18.6 Q16.4 14.75 27.75 12.4 34.8 11.0 42.8 10.2 57.65 8.9 75.65 10.05 87.6 10.8 100.95 12.65 103.35 16.5 105.45 20.7 L109.0 29.1 110.05 32.05 Q112.4 39.05 113.7 46.2 L115.8 46.55 116.5 46.45 120.45 46.25 126.25 46.75 Q130.2 47.05 130.7 47.5 L178.7 49.1 178.55 47.55 Q178.1 43.45 178.1 40.05 178.1 37.9 179.6 35.3 180.6 33.6 180.95 31.1 L181.1 28.2 Q180.95 26.1 181.1 24.55 181.25 23.2 181.55 22.2 L182.35 20.6 183.35 19.6 Q183.95 19.1 184.7 18.8 186.4 16.65 189.85 13.5 L195.6 8.25 200.1 7.4 209.8 5.45 228.4 2.0 228.4 4.65 212.2 6.75 Q201.1 8.65 197.35 11.0 196.25 11.65 191.85 15.6 190.6 16.65 189.15 18.0 L221.35 17.5 228.4 16.2 228.4 19.45 M3.2 75.65 L3.35 75.65 3.2 75.4 3.2 75.65" fill="#504f3d" fill-rule="evenodd" stroke="none"/>
      <path d="M5.05 21.6 Q5.55 19.0 8.3 19.35 6.4 20.4 5.05 21.6 M83.6 9.6 L93.15 10.4 Q104.0 11.6 104.95 13.35 L105.35 16.05 105.95 19.35 105.45 20.65 105.45 20.7 Q103.35 16.5 100.95 12.65 87.6 10.8 75.65 10.05 L82.45 9.85 83.6 9.6 M110.05 32.05 L112.65 38.45 114.7 43.6 115.8 46.55 113.7 46.2 Q112.4 39.05 110.05 32.05 M228.4 13.2 L228.4 16.2 221.35 17.5 189.15 18.0 Q190.6 16.65 191.85 15.6 L228.4 13.2 M116.95 50.45 L116.95 50.65 116.0 51.75 Q114.3 52.3 113.25 53.65 L112.85 54.3 112.4 54.65 112.3 54.75 112.25 54.7 112.2 54.75 108.2 55.8 Q100.95 58.05 100.95 61.65 L101.0 61.95 98.65 62.4 Q97.55 62.8 97.4 63.65 L97.05 63.7 96.95 63.45 95.95 63.95 95.45 63.9 94.7 63.9 94.7 63.4 94.85 63.3 95.7 62.9 95.95 57.35 Q95.95 55.5 93.7 48.5 L91.3 41.6 90.35 36.25 Q89.5 30.9 88.35 28.15 84.5 18.85 72.45 22.15 L72.45 22.65 Q52.05 22.3 37.7 22.75 L29.7 22.5 27.55 23.25 Q17.05 23.9 11.15 25.2 L8.15 26.05 7.45 26.05 6.75 25.7 11.25 21.65 Q15.85 18.35 23.05 16.1 43.75 9.65 87.2 11.55 L92.15 13.25 94.45 14.05 Q94.2 15.35 86.75 14.8 L76.45 14.1 74.85 14.25 Q74.6 14.3 74.4 14.55 L58.05 13.5 Q56.4 13.6 55.25 14.2 47.5 14.0 45.75 14.25 43.95 14.6 43.95 16.55 L43.95 16.65 39.4 17.15 38.5 17.25 44.4 17.45 46.45 19.75 53.4 19.35 59.45 19.3 60.25 19.2 63.3 19.45 72.45 20.9 88.05 21.55 88.4 21.75 88.1 22.45 Q87.85 24.4 90.45 25.7 92.1 25.25 96.3 21.95 100.95 18.3 100.95 16.55 L100.95 16.35 Q103.75 21.35 108.25 36.25 112.55 50.45 115.45 50.55 L116.95 50.45 M99.35 53.05 L99.5 53.75 99.95 53.35 99.35 53.05 M91.95 61.3 L92.2 61.7 92.35 63.25 92.2 63.25 Q92.0 63.15 91.95 61.3" fill="#696750" fill-rule="evenodd" stroke="none"/>
      <path d="M228.4 26.45 L228.4 29.25 224.1 29.25 Q216.35 30.3 215.35 31.0 L205.6 30.25 201.8 30.05 194.85 29.6 192.6 30.15 Q190.9 30.7 189.85 31.4 L189.85 31.9 Q189.85 32.9 187.85 37.45 185.85 42.05 185.85 43.9 185.85 47.2 186.75 51.6 187.65 56.05 188.85 58.5 L188.85 63.95 188.85 65.25 188.3 65.65 Q187.65 66.1 186.6 66.25 L186.1 64.05 184.0 54.3 183.35 51.1 182.35 45.6 Q181.85 42.5 181.85 41.15 181.85 39.8 182.35 38.05 L183.35 35.25 183.95 33.9 Q186.1 29.35 187.85 28.5 L189.05 29.55 Q191.3 26.4 205.35 28.0 L214.85 27.75 220.35 27.75 228.4 26.45 M228.4 72.4 L228.4 74.4 214.35 75.0 199.35 76.0 193.35 76.0 Q190.15 74.95 189.35 73.75 L188.85 73.0 Q189.65 73.0 190.55 73.75 191.5 74.5 192.85 74.5 L204.75 73.7 215.35 72.5 228.4 72.4 M228.4 106.35 L228.4 109.7 222.35 115.0 221.0 114.6 Q220.6 114.25 220.6 112.65 L221.45 111.45 Q224.65 109.85 228.4 106.35 M178.95 69.5 L179.6 70.85 Q179.2 72.05 178.35 72.3 L171.85 73.0 Q169.25 73.45 168.35 73.9 L142.35 73.2 136.35 72.8 Q131.15 72.05 130.2 71.4 L127.45 72.25 122.85 72.9 102.0 71.75 Q100.65 71.5 99.9 70.65 L97.45 68.25 Q97.95 67.85 99.5 68.55 101.5 69.4 102.7 69.45 L106.4 68.75 112.85 68.1 116.45 68.05 123.8 68.45 131.25 69.4 Q134.0 70.0 134.6 70.6 L142.35 70.2 168.35 70.9 174.65 69.85 177.5 69.55 178.85 69.35 178.95 69.5 M185.4 98.95 L185.6 89.75 186.6 89.75 Q187.6 94.7 188.45 101.1 189.35 108.05 189.35 111.5 189.35 113.05 189.05 113.65 L188.6 114.5 187.85 114.5 Q187.3 112.65 186.85 110.4 L186.15 106.65 Q185.35 102.15 185.35 100.25 L185.4 98.95 M57.45 32.0 L58.6 32.35 Q59.8 32.8 59.95 33.1 L59.45 33.2 57.45 33.5 Q28.95 32.7 28.45 33.2 L23.45 33.75 16.95 34.2 13.3 36.25 Q10.7 37.4 9.45 37.35 L9.1 37.35 8.3 47.35 Q7.35 59.15 7.2 64.8 L6.45 65.2 Q5.45 61.7 5.45 53.45 5.45 45.15 5.75 42.15 6.05 38.95 6.7 36.95 L5.95 36.7 6.9 36.45 Q7.6 34.6 8.7 34.1 L8.8 33.95 8.85 33.65 Q9.1 32.75 10.2 32.05 13.6 29.95 24.45 29.75 L24.45 29.25 39.1 30.0 54.7 31.1 54.95 31.85 57.45 32.0 M13.8 33.9 Q10.15 34.75 9.45 35.1 L9.2 34.95 9.2 35.25 9.2 35.65 11.2 34.95 13.8 33.9 M8.7 86.1 Q9.4 90.15 8.95 96.6 L8.9 97.05 8.45 97.85 8.0 96.9 7.7 95.8 7.7 86.05 8.7 86.1" fill="#97a6b3" fill-rule="evenodd" stroke="none"/>
      <path d="M182.05 31.65 L182.35 31.75 183.35 31.1 187.4 27.55 190.45 24.75 208.35 24.75 209.6 24.25 228.4 23.95 228.4 26.45 220.35 27.75 214.85 27.75 205.35 28.0 Q191.3 26.4 189.05 29.55 L187.85 28.5 Q186.1 29.35 183.95 33.9 L183.35 35.25 182.35 38.05 Q181.85 39.8 181.85 41.15 181.85 42.5 182.35 45.6 L183.35 51.1 184.0 54.3 186.1 64.05 183.85 64.2 Q183.6 64.25 183.65 64.75 L183.55 65.3 183.6 62.15 183.35 60.1 182.35 53.65 182.1 52.1 Q180.6 42.75 180.6 40.3 180.6 36.1 182.05 31.65 M228.4 29.25 L228.4 65.35 220.15 65.05 218.25 65.05 196.35 63.75 188.85 63.95 188.85 58.5 Q187.65 56.05 186.75 51.6 185.85 47.2 185.85 43.9 185.85 42.05 187.85 37.45 189.85 32.9 189.85 31.9 L189.85 31.4 Q190.9 30.7 192.6 30.15 L194.85 29.6 201.8 30.05 205.6 30.25 215.35 31.0 Q216.35 30.3 224.1 29.25 L228.4 29.25 M228.4 71.45 L228.4 72.4 215.35 72.5 204.75 73.7 192.85 74.5 Q191.5 74.5 190.55 73.75 189.65 73.0 188.85 73.0 L189.35 73.75 Q190.15 74.95 193.35 76.0 L199.35 76.0 214.35 75.0 228.4 74.4 228.4 96.55 Q226.2 98.55 222.95 103.25 219.1 108.85 219.1 110.4 L219.15 112.0 Q219.35 111.9 219.6 112.25 L221.45 111.45 220.6 112.65 Q220.6 114.25 221.0 114.6 L222.35 115.0 228.4 109.7 228.4 133.35 197.35 133.75 Q195.35 134.15 194.45 135.1 L194.1 135.0 192.8 134.25 192.55 132.75 Q192.05 131.75 190.35 131.75 L189.45 131.85 Q187.5 130.35 186.3 129.75 L186.85 129.5 186.85 110.4 Q187.3 112.65 187.85 114.5 L188.6 114.5 189.05 113.65 Q189.35 113.05 189.35 111.5 189.35 108.05 188.45 101.1 187.6 94.7 186.6 89.75 L185.6 89.75 185.4 98.95 Q184.85 96.3 184.85 94.65 L184.7 89.8 Q184.45 87.45 183.35 84.75 L182.35 85.6 Q181.0 86.95 180.35 89.85 179.85 91.85 179.85 94.1 L179.95 112.9 Q180.45 120.8 182.35 126.35 L182.85 127.65 182.35 127.25 Q180.9 126.15 179.35 126.1 L178.9 126.65 178.85 128.1 Q178.85 130.3 180.45 133.55 L149.85 131.8 Q148.1 130.55 141.25 129.45 134.3 128.2 126.2 127.85 108.15 126.9 100.95 130.15 L100.95 122.15 Q99.95 118.3 100.1 107.4 L100.1 105.2 100.45 104.85 100.7 104.4 99.95 102.85 Q99.6 98.4 98.4 95.05 98.45 89.2 97.95 86.0 L97.7 84.0 97.7 82.85 97.95 82.7 98.25 82.5 98.85 82.6 100.7 82.3 100.7 81.9 Q100.4 81.05 98.7 79.95 L98.7 75.55 97.35 73.1 Q96.7 71.55 96.7 69.85 L96.75 69.4 Q97.85 67.4 98.5 66.9 98.8 66.85 99.15 66.6 L99.2 66.85 100.4 67.8 102.95 68.2 105.25 68.1 105.7 67.85 112.85 68.1 106.4 68.75 102.7 69.45 Q101.5 69.4 99.5 68.55 97.95 67.85 97.45 68.25 L99.9 70.65 Q100.65 71.5 102.0 71.75 L122.85 72.9 127.45 72.25 130.2 71.4 Q131.15 72.05 136.35 72.8 L142.35 73.2 168.35 73.9 Q169.25 73.45 171.85 73.0 L178.35 72.3 Q179.2 72.05 179.6 70.85 L178.95 69.5 179.75 69.25 180.1 69.1 180.15 69.9 Q180.35 69.8 180.6 70.15 L182.25 70.35 182.35 70.7 182.6 71.25 183.85 71.25 184.4 70.45 191.1 70.75 200.0 71.3 210.35 71.5 214.8 71.0 215.1 70.95 228.4 71.45 M228.4 155.9 L228.4 172.25 196.35 172.25 192.35 171.5 162.85 170.65 Q149.4 171.75 112.45 171.2 L30.45 167.55 Q19.0 166.05 11.9 155.2 L15.15 155.35 24.0 155.75 52.25 154.5 61.5 153.0 121.1 152.75 134.65 152.05 147.25 151.75 147.85 151.7 173.85 154.6 175.7 156.8 177.35 158.3 193.35 158.5 198.85 159.0 204.55 160.4 Q211.65 161.7 217.35 156.0 L228.4 155.9 M5.25 139.6 Q4.45 136.15 4.45 132.9 4.45 130.55 5.8 128.3 L6.45 130.7 7.45 130.95 Q7.7 131.0 7.7 129.55 L7.35 126.95 Q11.35 130.8 26.45 131.55 L42.7 131.05 51.15 131.45 62.9 132.8 76.95 134.6 92.95 136.05 93.05 136.45 88.45 135.85 16.45 132.7 14.95 132.85 Q14.2 133.1 14.2 134.7 14.2 135.55 15.85 137.55 L17.0 138.85 5.25 139.6 M5.0 124.1 Q4.5 122.2 4.15 119.9 2.7 102.35 1.45 96.25 -0.1 88.5 0.0 73.6 L0.35 63.25 0.85 74.95 0.9 75.65 0.2 75.7 1.0 77.55 1.05 78.45 1.85 91.75 Q3.3 113.85 5.0 124.1 M0.7 51.15 L0.95 45.7 1.4 36.6 1.6 38.65 Q1.8 42.45 1.2 44.75 L0.7 51.15 M3.25 28.5 L3.45 27.45 Q3.5 26.9 3.9 26.3 L5.95 26.45 6.75 25.7 7.45 26.05 8.15 26.05 Q4.85 27.1 3.25 28.5 M42.8 10.2 Q62.0 7.15 83.6 9.6 L82.45 9.85 75.65 10.05 Q57.65 8.9 42.8 10.2 M114.7 43.6 L114.95 44.0 124.9 44.65 136.35 45.7 178.55 47.55 178.7 49.1 130.7 47.5 Q130.2 47.05 126.25 46.75 L120.45 46.25 116.5 46.45 115.8 46.55 114.7 43.6 M179.9 57.4 L179.55 57.1 178.35 56.35 176.35 53.95 Q174.5 52.05 173.25 52.3 172.25 52.5 171.95 54.2 166.6 53.05 158.35 52.7 144.0 52.05 142.9 53.0 L142.25 53.65 140.95 53.85 Q133.85 49.8 124.8 50.7 121.7 51.05 119.4 51.9 L118.85 51.95 118.7 51.75 118.45 51.45 116.0 51.75 116.95 50.65 116.95 50.45 119.85 49.95 128.2 49.35 128.7 49.85 177.85 52.05 178.95 51.1 179.3 53.6 179.9 57.4 M123.8 68.45 L145.35 69.1 173.95 68.2 174.05 68.4 174.85 68.9 Q174.85 69.4 177.35 69.55 L177.5 69.55 174.65 69.85 168.35 70.9 142.35 70.2 134.6 70.6 Q134.0 70.0 131.25 69.4 L123.8 68.45 M88.4 21.75 L88.05 21.55 88.45 21.6 88.4 21.75 M44.4 17.45 L38.5 17.25 39.4 17.15 43.95 16.65 Q44.0 16.95 44.4 17.45 M27.55 23.25 L29.7 22.5 37.7 22.75 27.55 23.25 M94.7 63.9 L95.45 63.9 95.95 63.95 Q95.7 64.0 95.5 64.2 L94.7 64.15 94.7 63.9 M97.05 63.7 L97.4 63.65 97.4 63.7 97.15 64.25 97.05 63.7 M99.35 53.05 L99.95 53.35 99.5 53.75 99.35 53.05 M91.95 61.3 Q92.0 63.15 92.2 63.25 L91.45 63.25 91.25 67.45 Q90.6 66.4 89.45 65.65 87.6 66.55 87.0 69.0 86.25 71.9 84.9 73.15 79.4 78.35 50.95 79.45 L25.7 78.35 18.4 75.8 Q12.2 73.7 11.45 73.2 L9.4 69.3 Q7.7 66.05 5.45 65.95 L3.55 66.25 3.1 66.55 Q2.85 65.0 2.95 63.35 L2.9 63.35 2.7 56.6 Q2.7 55.35 3.7 49.3 4.7 43.3 4.7 42.05 3.4 38.9 3.0 36.8 2.65 35.0 3.3 33.5 L5.95 33.95 Q7.05 34.05 7.9 33.25 9.25 32.05 11.45 31.2 19.05 28.15 27.1 28.15 L40.35 29.0 44.85 29.45 78.95 31.4 Q81.9 35.95 86.1 47.6 89.3 56.4 91.95 61.3 M13.5 81.0 Q16.15 82.25 19.45 83.55 L51.45 84.95 70.65 83.1 71.7 84.4 83.45 85.1 Q88.8 85.35 91.65 82.45 L93.7 89.3 Q94.35 92.2 93.55 97.05 92.75 102.4 92.95 104.3 93.6 109.45 93.25 120.1 L93.35 121.25 89.95 123.2 Q78.2 123.9 76.4 124.65 75.15 125.1 74.1 126.95 L64.9 126.55 60.75 125.75 Q49.4 123.85 43.2 125.6 L42.45 125.55 8.85 123.3 8.4 123.25 8.75 123.55 Q9.25 124.2 7.1 125.25 L5.7 115.95 Q3.7 102.85 3.7 96.0 L3.4 82.6 4.45 85.4 8.0 81.55 8.9 82.2 Q11.7 83.95 15.45 84.1 16.95 84.2 16.9 83.75 16.6 83.1 16.7 82.7 L13.5 81.0 M80.25 81.85 Q85.55 81.05 87.75 80.2 L90.05 79.1 Q87.0 81.35 80.25 81.85 M57.45 32.0 L54.95 31.85 54.7 31.1 39.1 30.0 24.45 29.25 24.45 29.75 Q13.6 29.95 10.2 32.05 9.1 32.75 8.85 33.65 L8.8 33.95 8.7 34.1 Q7.6 34.6 6.9 36.45 L5.95 36.7 6.7 36.95 Q6.05 38.95 5.75 42.15 5.45 45.15 5.45 53.45 5.45 61.7 6.45 65.2 L7.2 64.8 Q7.35 59.15 8.3 47.35 L9.1 37.35 9.45 37.35 Q10.7 37.4 13.3 36.25 L16.95 34.2 23.45 33.75 28.45 33.2 Q28.95 32.7 57.45 33.5 L59.45 33.2 59.95 33.1 Q59.8 32.8 58.6 32.35 L57.45 32.0 M13.8 33.9 L11.2 34.95 9.2 35.65 9.2 35.25 9.2 34.95 9.45 35.1 Q10.15 34.75 13.8 33.9 M3.2 75.65 L3.2 75.4 3.35 75.65 3.2 75.65 M8.7 86.1 L7.7 86.05 7.7 95.8 8.0 96.9 8.45 97.85 8.9 97.05 8.95 96.6 Q9.4 90.15 8.7 86.1 M98.95 135.9 L100.0 135.3 100.45 135.1 102.4 137.15 98.8 136.95 98.95 136.1 98.95 135.9 M138.9 138.05 L127.45 138.6 108.15 137.55 102.65 137.15 Q110.85 135.55 126.1 136.5 L140.65 138.0 138.9 138.05" fill="#828a8c" fill-rule="evenodd" stroke="none"/>
      <path d="M228.4 65.35 L228.4 71.45 215.1 70.95 217.35 70.5 Q218.2 70.2 218.6 69.0 L212.0 68.5 192.6 68.75 187.8 67.95 183.6 67.5 183.45 66.3 183.55 65.3 183.65 64.75 Q183.6 64.25 183.85 64.2 L186.1 64.05 186.6 66.25 Q187.65 66.1 188.3 65.65 L188.85 65.25 188.85 63.95 196.35 63.75 218.25 65.05 220.15 65.05 228.4 65.35 M228.4 96.55 L228.4 106.35 Q224.65 109.85 221.45 111.45 L219.6 112.25 Q219.35 111.9 219.15 112.0 L219.1 110.4 Q219.1 108.85 222.95 103.25 226.2 98.55 228.4 96.55 M228.4 133.35 L228.4 155.9 217.35 156.0 Q211.65 161.7 204.55 160.4 L198.85 159.0 193.35 158.5 177.35 158.3 175.7 156.8 173.85 154.6 147.85 151.7 147.25 151.75 134.65 152.05 121.1 152.75 61.5 153.0 52.25 154.5 24.0 155.75 15.15 155.35 11.9 155.2 9.85 151.75 8.8 149.6 7.7 147.25 7.45 146.6 5.3 139.85 5.25 139.6 17.0 138.85 15.85 137.55 Q14.2 135.55 14.2 134.7 14.2 133.1 14.95 132.85 L16.45 132.7 88.45 135.85 93.05 136.45 92.95 136.05 76.95 134.6 62.9 132.8 51.15 131.45 42.7 131.05 26.45 131.55 Q11.35 130.8 7.35 126.95 L7.7 129.55 Q7.7 131.0 7.45 130.95 L6.45 130.7 5.8 128.3 5.0 124.1 Q3.3 113.85 1.85 91.75 L1.05 78.45 1.0 77.55 0.2 75.7 0.9 75.65 0.85 74.95 4.05 76.6 4.8 77.05 Q9.5 80.0 9.5 81.6 L9.5 82.5 8.9 82.2 8.0 81.55 4.45 85.4 3.4 82.6 3.7 96.0 Q3.7 102.85 5.7 115.95 L7.1 125.25 Q9.25 124.2 8.75 123.55 L8.4 123.25 8.85 123.3 42.45 125.55 43.2 125.6 Q49.4 123.85 60.75 125.75 L64.9 126.55 74.1 126.95 Q75.15 125.1 76.4 124.65 78.2 123.9 89.95 123.2 L93.35 121.25 93.25 120.1 Q93.6 109.45 92.95 104.3 92.75 102.4 93.55 97.05 94.35 92.2 93.7 89.3 L91.65 82.45 92.1 81.9 92.8 82.0 Q94.1 86.4 94.2 88.1 L94.45 94.55 94.45 96.35 Q94.65 101.3 95.45 104.4 L96.45 103.95 96.65 100.7 99.45 105.6 100.1 105.2 100.1 107.4 Q99.95 118.3 100.95 122.15 L100.95 130.15 Q108.15 126.9 126.2 127.85 134.3 128.2 141.25 129.45 148.1 130.55 149.85 131.8 L180.45 133.55 Q178.85 130.3 178.85 128.1 L178.9 126.65 179.35 126.1 Q180.9 126.15 182.35 127.25 L182.85 127.65 182.35 126.35 Q180.45 120.8 179.95 112.9 L179.85 94.1 Q179.85 91.85 180.35 89.85 181.0 86.95 182.35 85.6 L183.35 84.75 Q184.45 87.45 184.7 89.8 L184.85 94.65 Q184.85 96.3 185.4 98.95 L185.35 100.25 Q185.35 102.15 186.15 106.65 L186.85 110.4 186.85 129.5 186.3 129.75 Q187.5 130.35 189.45 131.85 L190.35 131.75 Q192.05 131.75 192.55 132.75 L192.8 134.25 194.1 135.0 194.45 135.1 Q195.35 134.15 197.35 133.75 L228.4 133.35 M97.7 84.0 L97.95 86.0 Q98.45 89.2 98.4 95.05 99.6 98.4 99.95 102.85 98.0 98.3 97.4 91.9 L96.75 85.3 97.45 85.25 97.65 84.25 97.7 84.0 M3.1 66.55 L3.55 66.25 5.45 65.95 Q7.7 66.05 9.4 69.3 L11.45 73.2 Q12.2 73.7 18.4 75.8 L25.7 78.35 50.95 79.45 Q79.4 78.35 84.9 73.15 86.25 71.9 87.0 69.0 87.6 66.55 89.45 65.65 90.6 66.4 91.25 67.45 L91.2 69.25 90.45 69.2 90.25 69.85 90.2 71.85 Q90.2 73.4 91.45 77.65 L90.55 78.65 90.05 79.1 87.75 80.2 Q85.55 81.05 80.25 81.85 76.9 82.1 72.7 81.9 L70.7 81.55 70.2 81.3 Q70.2 82.3 70.65 83.1 L51.45 84.95 19.45 83.55 Q16.15 82.25 13.5 81.0 7.95 77.65 5.25 72.8 3.55 69.8 3.1 66.55 M138.9 138.05 L140.65 138.0 126.1 136.5 Q110.85 135.55 102.65 137.15 L108.15 137.55 127.45 138.6 138.9 138.05 M98.95 135.9 L98.95 136.1 98.8 136.95 102.4 137.15 100.45 135.1 100.0 135.3 98.95 135.9" fill="#747c7e" fill-rule="evenodd" stroke="none"/>
    </g>
  </defs>
</svg>
