<?xml version="1.0" encoding="UTF-8" standalone="no"?>
<svg xmlns:ffdec="https://www.free-decompiler.com/flash" xmlns:xlink="http://www.w3.org/1999/xlink" ffdec:objectType="frame" height="150.5px" width="113.05px" xmlns="http://www.w3.org/2000/svg">
  <g transform="matrix(1.0, 0.0, 0.0, 1.0, 85.4, 55.65)">
    <use ffdec:characterId="289" height="21.5" transform="matrix(7.0, 0.0, 0.0, 7.0, -85.4, -55.65)" width="16.15" xlink:href="#shape0"/>
  </g>
  <defs>
    <g id="shape0" transform="matrix(1.0, 0.0, 0.0, 1.0, 12.2, 7.95)">
      <path d="M-5.95 -5.9 L-5.85 -5.8 -5.75 -5.6 -5.75 -5.55 Q-5.7 -5.45 -5.65 -5.15 L-5.65 -4.5 Q-5.7 -3.4 -6.15 -2.35 -6.25 -1.85 -6.6 -1.35 L-6.8 -1.1 -7.15 -0.6 Q-7.35 -0.5 -7.55 -0.4 L-7.7 -0.25 Q-8.5 0.45 -8.8 0.8 -9.3 1.4 -9.3 1.95 -9.3 2.35 -8.85 2.7 -8.45 3.1 -8.45 3.55 L-8.6 3.95 -8.6 4.05 -9.2 5.65 Q-9.45 6.45 -9.6 7.1 L-9.15 12.1 -9.0 12.95 -10.1 7.6 Q-9.95 6.5 -9.95 6.35 -9.95 6.1 -10.15 5.1 L-10.2 4.65 -10.55 4.4 Q-10.8 4.25 -11.7 4.1 -12.2 4.0 -12.2 3.65 L-11.95 3.1 Q-11.75 2.55 -11.7 2.35 L-11.35 1.75 -10.75 1.0 -9.55 0.45 Q-9.45 0.3 -9.2 0.2 L-8.75 -0.05 Q-8.2 -0.35 -7.8 -0.75 -7.45 -1.25 -7.05 -2.05 -6.7 -2.8 -6.45 -3.6 -6.2 -4.5 -6.2 -5.2 -6.2 -5.7 -6.5 -6.45 -6.15 -6.15 -5.95 -5.9 M-2.3 11.65 L-2.0 6.4 -1.15 5.6 Q-0.55 4.8 0.15 3.3 0.45 2.8 0.65 1.8 0.9 0.65 1.0 0.3 1.3 -0.55 1.9 -1.15 2.35 -1.7 3.1 -2.1 3.3 -2.2 3.55 -2.3 L3.6 -2.3 3.6 -2.25 3.65 -2.25 3.65 -2.1 3.35 -1.85 3.15 -1.65 2.95 -1.5 2.75 -1.2 Q1.6 0.05 1.2 2.5 1.1 2.9 1.1 3.3 L1.0 4.05 Q0.75 4.5 -0.15 5.45 -1.15 6.5 -1.35 7.0 L-1.65 11.75 -1.8 11.95 Q-2.0 11.75 -2.3 11.65 M-5.85 -1.1 L-5.85 -1.15 Q-5.55 -2.1 -5.4 -2.3 L-5.3 -2.25 -5.25 -2.25 Q-5.2 -2.25 -5.2 -2.1 -5.2 -0.6 -6.5 0.75 L-7.4 1.7 Q-7.85 2.25 -7.85 2.8 -7.85 3.25 -7.45 3.9 L-7.25 4.3 -7.2 4.3 Q-6.85 4.5 -6.85 5.0 L-7.0 5.7 Q-7.15 6.3 -7.15 6.5 L-7.25 6.55 Q-7.25 6.3 -7.4 5.4 L-7.55 4.6 -7.85 3.95 Q-8.15 3.15 -8.15 2.8 L-8.05 2.2 Q-8.0 1.7 -8.0 1.45 -8.0 0.95 -7.55 0.7 L-7.5 0.65 -7.45 0.65 -7.0 0.45 Q-6.7 0.35 -6.6 0.2 -6.15 -0.2 -5.85 -1.05 L-5.85 -1.1 M-9.65 1.55 L-9.7 1.1 -10.1 1.5 Q-11.25 2.4 -11.65 2.9 L-11.65 3.35 Q-10.45 3.5 -9.7 3.95 L-9.5 4.1 -9.45 3.6 -9.45 3.5 -9.55 3.0 -9.6 2.25 -9.65 1.55 M-8.15 10.7 L-7.95 11.25 -8.15 10.7" fill="#111111" fill-rule="evenodd" stroke="none"/>
      <path d="M-5.95 -5.9 Q-5.9 -6.5 -4.95 -7.1 -3.7 -7.9 -1.7 -7.95 1.45 -7.7 2.95 -6.35 3.95 -5.4 3.95 -4.1 3.95 -3.1 3.65 -2.4 L3.6 -2.25 3.6 -2.3 3.55 -2.3 Q3.3 -2.2 3.1 -2.1 2.35 -1.7 1.9 -1.15 1.3 -0.55 1.0 0.3 0.9 0.65 0.65 1.8 0.45 2.8 0.15 3.3 -0.55 4.8 -1.15 5.6 L-2.0 6.4 -2.3 11.65 -7.25 11.85 -6.5 7.8 -6.2 5.4 -6.2 5.35 Q-6.05 5.5 -5.95 5.7 L-4.7 5.55 Q-4.7 5.4 -5.0 4.95 -5.1 4.45 -5.4 4.1 L-5.75 3.55 Q-5.9 3.2 -5.9 2.6 -5.9 1.75 -5.65 1.25 L-5.0 0.4 Q-4.1 -0.75 -4.1 -3.0 -4.1 -3.45 -4.3 -4.3 -4.55 -5.2 -4.8 -5.75 L-4.85 -5.85 Q-4.9 -6.2 -5.05 -6.6 L-5.1 -6.6 Q-5.3 -6.0 -5.65 -5.15 -5.7 -5.45 -5.75 -5.55 L-5.75 -5.6 -5.85 -5.8 -5.95 -5.9 M3.35 -1.85 L2.95 -1.5 3.15 -1.65 3.35 -1.85 M-9.0 12.95 L-9.15 12.1 -8.15 10.7 -7.95 11.25 -7.7 12.05 -9.0 12.95" fill="#cccccc" fill-rule="evenodd" stroke="none"/>
      <path d="M-5.65 -5.15 Q-5.3 -6.0 -5.1 -6.6 L-5.05 -6.6 Q-4.9 -6.2 -4.85 -5.85 L-4.8 -5.75 Q-4.55 -5.2 -4.3 -4.3 -4.1 -3.45 -4.1 -3.0 -4.1 -0.75 -5.0 0.4 L-5.65 1.25 Q-5.9 1.75 -5.9 2.6 -5.9 3.2 -5.75 3.55 L-5.4 4.1 Q-5.1 4.45 -5.0 4.95 -4.7 5.4 -4.7 5.55 L-5.95 5.7 Q-6.05 5.5 -6.2 5.35 L-6.2 5.4 -6.5 7.8 -7.25 11.85 -7.7 12.05 -7.95 11.25 -8.15 10.7 -9.15 12.1 -9.6 7.1 Q-9.45 6.45 -9.2 5.65 L-8.6 4.05 -8.6 3.95 -8.45 3.55 Q-8.45 3.1 -8.85 2.7 -9.3 2.35 -9.3 1.95 -9.3 1.4 -8.8 0.8 -8.5 0.45 -7.7 -0.25 L-7.55 -0.4 Q-7.35 -0.5 -7.15 -0.6 L-6.8 -1.1 -6.6 -1.35 Q-6.25 -1.85 -6.15 -2.35 -5.7 -3.4 -5.65 -4.5 L-5.65 -5.15 M-5.85 -1.1 L-5.85 -1.05 Q-6.15 -0.2 -6.6 0.2 -6.7 0.35 -7.0 0.45 L-7.45 0.65 -7.5 0.65 -7.55 0.7 Q-8.0 0.95 -8.0 1.45 -8.0 1.7 -8.05 2.2 L-8.15 2.8 Q-8.15 3.15 -7.85 3.95 L-7.55 4.6 -7.4 5.4 Q-7.25 6.3 -7.25 6.55 L-7.15 6.5 Q-7.15 6.3 -7.0 5.7 L-6.85 5.0 Q-6.85 4.5 -7.2 4.3 L-7.25 4.3 -7.45 3.9 Q-7.85 3.25 -7.85 2.8 -7.85 2.25 -7.4 1.7 L-6.5 0.75 Q-5.2 -0.6 -5.2 -2.1 -5.2 -2.25 -5.25 -2.25 L-5.3 -2.25 -5.4 -2.3 Q-5.55 -2.1 -5.85 -1.15 L-5.85 -1.1" fill="#8c8c8c" fill-rule="evenodd" stroke="none"/>
      <path d="M-9.6 2.25 Q-9.85 2.35 -10.15 2.5 -10.5 2.65 -10.95 2.9 L-11.05 2.9 Q-11.15 2.9 -11.15 2.75 -10.45 1.95 -9.75 1.4 L-9.65 1.35 -9.65 1.55 -9.6 2.25" fill="#d9ba8d" fill-rule="evenodd" stroke="none"/>
      <path d="M-9.65 1.55 L-9.65 1.35 -9.75 1.4 Q-10.45 1.95 -11.15 2.75 -11.15 2.9 -11.05 2.9 L-10.95 2.9 Q-10.5 2.65 -10.15 2.5 -9.85 2.35 -9.6 2.25 L-9.55 3.0 -9.45 3.5 -9.45 3.6 -9.5 4.1 -9.7 3.95 Q-10.45 3.5 -11.65 3.35 L-11.65 2.9 Q-11.25 2.4 -10.1 1.5 L-9.7 1.1 -9.65 1.55" fill="#806d53" fill-rule="evenodd" stroke="none"/>
      <path d="M-1.8 6.15 Q-1.1 6.4 -0.8 6.45 -0.45 6.9 -0.35 7.55 L-0.35 7.75 Q-0.55 7.95 -0.75 8.05 L-0.7 8.15 -0.65 8.5 Q-0.6 9.05 -0.65 9.65 -0.7 10.2 -0.8 10.5 -0.65 10.55 -0.5 10.7 -0.15 11.0 -0.1 11.6 L-0.1 11.9 Q-0.15 12.2 -0.4 12.25 L-0.5 12.2 Q-0.6 12.25 -0.75 12.25 -1.05 12.25 -1.15 12.2 L-1.4 12.0 Q-1.7 11.75 -2.8 11.8 -3.5 11.8 -4.7 12.1 L-6.6 12.5 Q-7.15 12.6 -8.1 13.2 L-8.15 13.25 -8.2 13.35 -8.45 13.4 -8.5 13.4 Q-8.75 13.55 -9.2 13.55 -9.5 13.55 -9.7 13.35 -10.3 13.2 -10.75 11.75 -11.15 10.6 -11.1 10.1 -11.05 8.65 -10.6 7.95 -10.35 7.55 -9.95 7.2 -9.65 6.8 -9.3 6.6 -7.2 5.5 -5.15 5.5 -4.4 5.5 -3.65 5.65 -2.9 5.75 -1.8 6.15 M-0.75 7.4 Q-0.7 7.2 -0.7 7.1 -0.75 6.7 -1.55 6.3 -2.6 5.8 -4.3 5.8 -7.15 5.85 -8.7 6.55 L-8.9 6.65 -8.95 6.7 Q-9.65 7.2 -10.05 7.9 -10.25 8.25 -10.4 8.65 -10.6 9.25 -10.65 9.95 -10.65 10.55 -10.4 11.2 L-10.2 11.6 -10.0 11.9 -9.9 12.1 -9.35 12.8 -9.35 12.85 Q-8.95 12.95 -8.4 13.0 L-7.75 12.7 Q-6.1 12.0 -5.8 11.9 -4.35 11.5 -2.35 11.45 -1.15 11.45 -0.65 11.6 L-0.65 11.55 Q-0.75 11.35 -0.85 11.15 -1.0 10.9 -1.35 10.75 L-1.4 10.75 Q-2.25 10.35 -4.05 10.4 -4.8 10.4 -6.35 10.85 L-7.9 11.3 -8.6 11.3 -8.75 11.2 Q-8.8 11.15 -8.75 11.05 -9.05 10.85 -9.2 10.3 L-9.35 9.35 -9.35 8.8 Q-9.3 8.6 -9.0 8.35 L-8.75 8.15 -8.75 8.1 -8.3 7.85 -8.2 7.85 -8.1 7.8 -7.8 7.7 -8.05 7.85 -8.5 8.1 Q-9.15 8.6 -9.15 9.35 -9.2 10.0 -8.9 10.45 -8.55 10.9 -8.0 11.0 L-6.15 10.6 Q-4.0 10.1 -2.7 10.15 -1.9 10.15 -1.35 10.3 L-1.25 10.15 -1.15 10.0 -1.05 9.8 Q-0.85 9.5 -0.85 9.35 L-0.85 9.05 Q-0.85 8.6 -1.35 8.25 L-1.35 8.2 -1.4 8.2 Q-1.55 7.95 -1.95 7.85 -2.25 7.75 -2.55 7.7 L-2.65 7.65 Q-3.35 7.4 -4.2 7.4 L-4.55 7.4 -4.55 7.3 Q-5.25 7.3 -5.85 7.35 L-5.8 7.3 -5.7 7.25 -4.9 7.25 -3.1 7.45 -2.8 7.5 -2.35 7.55 -2.3 7.55 -1.15 7.7 -0.85 7.65 -0.8 7.45 -0.75 7.4" fill="#111111" fill-rule="evenodd" stroke="none"/>
      <path d="M-8.7 6.55 Q-7.15 5.85 -4.3 5.8 -2.6 5.8 -1.55 6.3 -0.75 6.7 -0.7 7.1 -0.7 7.2 -0.75 7.4 -1.55 7.05 -2.15 7.05 L-4.95 7.0 -6.5 6.9 -8.2 6.75 Q-8.55 6.7 -8.7 6.55 M-9.35 8.8 L-9.35 9.35 -9.2 10.3 Q-9.05 10.85 -8.75 11.05 -8.8 11.15 -8.75 11.2 L-8.6 11.3 -7.9 11.3 -6.35 10.85 Q-4.8 10.4 -4.05 10.4 -2.25 10.35 -1.4 10.75 L-1.35 10.75 Q-1.0 10.9 -0.85 11.15 -0.75 11.35 -0.65 11.55 -2.85 11.1 -3.95 11.1 -5.35 11.1 -6.7 11.55 -8.05 11.95 -8.15 11.95 -9.35 11.95 -9.95 10.45 L-10.05 10.25 -10.15 9.9 Q-10.15 9.75 -9.95 9.25 -9.75 8.85 -9.5 8.7 L-9.35 8.85 -9.35 8.8" fill="#a2b2bf" fill-rule="evenodd" stroke="none"/>
      <path d="M-8.7 6.55 Q-8.55 6.7 -8.2 6.75 L-6.5 6.9 -4.95 7.0 -2.15 7.05 Q-1.55 7.05 -0.75 7.4 L-0.8 7.45 -0.85 7.65 -1.15 7.7 -2.3 7.55 -2.35 7.55 -2.8 7.5 -3.1 7.45 -3.1 7.4 -3.85 7.35 -4.7 7.25 -4.9 7.25 -5.7 7.25 -5.8 7.3 Q-7.4 7.4 -8.1 7.75 L-8.2 7.8 -8.2 7.85 -8.3 7.85 -8.75 8.1 -8.75 8.15 -9.0 8.35 Q-9.3 8.6 -9.35 8.8 L-9.35 8.85 -9.5 8.7 Q-9.75 8.85 -9.95 9.25 -10.15 9.75 -10.15 9.9 L-10.05 10.25 -9.95 10.45 Q-9.35 11.95 -8.15 11.95 -8.05 11.95 -6.7 11.55 -5.35 11.1 -3.95 11.1 -2.85 11.1 -0.65 11.55 L-0.65 11.6 Q-1.15 11.45 -2.35 11.45 -4.35 11.5 -5.8 11.9 -6.1 12.0 -7.75 12.7 L-8.4 13.0 Q-8.95 12.95 -9.35 12.85 L-9.35 12.8 -9.9 12.1 -10.0 11.9 -10.2 11.6 -10.4 11.2 Q-10.65 10.55 -10.65 9.95 -10.6 9.25 -10.4 8.65 -10.25 8.25 -10.05 7.9 -9.65 7.2 -8.95 6.7 L-8.9 6.65 -8.7 6.55" fill="#6c7680" fill-rule="evenodd" stroke="none"/>
      <path d="M-3.1 7.45 L-4.9 7.25 -4.7 7.25 -3.85 7.35 -3.1 7.4 -3.1 7.45 M-5.8 7.3 L-5.85 7.35 Q-5.25 7.3 -4.55 7.3 L-4.55 7.4 -4.2 7.4 Q-3.35 7.4 -2.65 7.65 L-2.55 7.7 Q-2.25 7.75 -1.95 7.85 -1.55 7.95 -1.4 8.2 L-1.35 8.2 -1.35 8.25 Q-0.85 8.6 -0.85 9.05 L-0.85 9.35 Q-0.85 9.5 -1.05 9.8 L-1.15 10.0 -1.25 10.15 -1.2 10.1 -3.75 10.05 Q-5.8 10.0 -6.95 9.3 -7.75 8.8 -8.0 8.0 L-8.05 7.85 -7.8 7.7 -8.1 7.8 -8.1 7.75 Q-7.4 7.4 -5.8 7.3" fill="#636c75" fill-rule="evenodd" stroke="none"/>
      <path d="M-1.25 10.15 L-1.35 10.3 Q-1.9 10.15 -2.7 10.15 -4.0 10.1 -6.15 10.6 L-8.0 11.0 Q-8.55 10.9 -8.9 10.45 -9.2 10.0 -9.15 9.35 -9.15 8.6 -8.5 8.1 L-8.05 7.85 -8.0 8.0 Q-7.75 8.8 -6.95 9.3 -5.8 10.0 -3.75 10.05 L-1.2 10.1 -1.25 10.15 M-8.1 7.8 L-8.2 7.85 -8.2 7.8 -8.1 7.75 -8.1 7.8" fill="#4b5259" fill-rule="evenodd" stroke="none"/>
    </g>
  </defs>
</svg>
