<?xml version="1.0" encoding="UTF-8" standalone="no"?>
<svg xmlns:ffdec="https://www.free-decompiler.com/flash" xmlns:xlink="http://www.w3.org/1999/xlink" ffdec:objectType="frame" height="27.05px" width="209.45px" xmlns="http://www.w3.org/2000/svg">
  <g transform="matrix(1.0, 0.0, 0.0, 1.0, -40.75, -13.55)">
    <use ffdec:characterId="609" height="27.05" transform="matrix(1.0, 0.0, 0.0, 1.0, 40.75, 13.55)" width="209.45" xlink:href="#shape0"/>
  </g>
  <defs>
    <g id="shape0" transform="matrix(1.0, 0.0, 0.0, 1.0, -40.75, -13.55)">
      <path d="M242.05 17.75 L247.3 17.45 248.3 16.9 Q248.7 16.45 248.7 15.45 248.65 14.4 248.45 14.5 L248.2 14.85 240.7 15.05 240.15 14.9 Q240.4 14.45 241.05 14.2 L247.8 13.55 250.2 15.4 Q250.2 16.05 249.8 16.7 249.2 17.5 247.95 17.65 L242.1 17.8 242.05 17.75 M211.05 21.9 L210.2 21.4 206.15 21.55 Q206.2 22.55 206.65 23.0 L206.8 23.15 208.2 23.25 209.9 22.75 211.05 21.9 M220.5 21.4 Q220.1 21.55 219.85 21.95 219.85 22.4 220.2 22.9 220.5 23.5 221.05 23.7 L222.05 23.15 222.65 22.85 222.4 21.9 Q228.3 23.45 228.65 25.05 227.3 25.85 223.9 26.55 L220.25 27.15 217.6 27.0 218.85 26.35 Q214.75 24.9 201.05 22.25 191.15 20.3 191.1 18.7 L191.3 17.65 Q202.35 18.25 212.35 19.85 L220.5 21.4 M94.75 20.6 L94.5 20.7 Q96.35 21.95 100.45 23.95 108.25 27.7 108.85 28.65 L103.85 28.95 Q97.35 29.15 93.6 27.2 89.35 25.05 88.85 25.0 88.35 25.15 87.95 26.5 L97.7 29.3 Q106.05 31.5 110.7 31.35 111.5 31.3 111.9 30.8 L112.75 29.15 Q120.7 33.25 138.25 33.25 L173.95 32.05 174.2 32.05 174.6 32.0 188.75 31.95 191.35 31.75 207.45 32.35 Q217.25 32.05 221.6 30.15 223.95 29.15 228.5 26.25 227.6 28.75 221.85 30.75 213.5 33.75 196.85 34.65 L160.8 35.75 103.35 31.6 Q83.3 29.3 83.2 25.55 83.1 22.6 94.75 20.6 M151.05 17.65 Q157.8 18.05 165.6 19.95 176.85 22.65 176.9 25.3 176.9 25.75 175.3 27.7 L173.35 29.75 170.3 30.0 165.75 30.4 165.75 30.55 165.7 30.4 162.7 30.65 164.6 30.05 Q162.15 29.65 154.55 29.8 141.2 30.05 139.95 29.9 L139.25 29.2 140.9 29.4 Q144.65 29.3 146.35 28.6 148.1 27.85 148.05 26.3 148.05 25.15 147.2 24.6 145.35 23.35 139.8 23.95 139.8 24.85 138.8 25.4 137.75 25.95 137.75 26.5 137.8 27.75 137.95 28.1 L138.05 28.25 137.95 28.2 114.3 25.7 Q112.35 25.3 111.05 24.1 L107.6 20.6 Q107.85 20.3 108.9 19.7 L109.65 18.85 131.05 17.8 Q149.9 17.35 151.05 17.65 M123.15 21.85 Q123.35 22.6 125.6 22.9 L127.8 22.0 Q126.1 21.1 125.1 21.15 124.35 21.15 123.15 21.85 M162.35 25.35 Q162.3 24.35 162.1 24.3 L161.9 24.4 157.6 24.2 Q155.6 24.95 155.6 26.05 L155.8 27.2 156.3 27.5 156.7 27.65 158.25 27.75 Q159.05 27.75 160.7 26.85 162.35 25.9 162.35 25.35 M181.75 29.2 L182.0 29.0 Q184.25 27.5 185.05 26.45 L184.55 27.5 182.65 29.1 181.75 29.2 M55.45 31.4 Q56.45 31.9 57.45 32.95 59.35 34.95 60.15 35.25 L57.95 36.15 Q55.8 36.85 50.2 37.35 L44.35 36.9 43.55 36.0 Q43.0 34.75 43.05 36.35 43.1 37.35 43.35 37.35 L43.7 37.55 49.55 37.7 49.6 38.2 Q55.25 37.9 58.3 38.35 L62.1 38.8 64.6 38.6 Q61.0 40.3 50.65 40.6 45.6 40.75 42.95 39.55 40.8 38.55 40.75 37.05 40.7 35.3 43.3 33.7 45.85 32.1 49.8 31.55 L55.45 31.4" fill="#40a68e" fill-rule="evenodd" stroke="none"/>
      <path d="M240.15 14.9 L240.7 15.05 248.2 14.85 248.45 14.5 Q248.65 14.4 248.7 15.45 248.7 16.45 248.3 16.9 L247.3 17.45 242.05 17.75 241.4 17.3 240.05 15.85 240.05 15.8 240.0 15.75 239.95 15.65 240.15 14.9 M211.05 21.9 L209.9 22.75 208.2 23.25 206.8 23.15 206.65 23.0 Q206.2 22.55 206.15 21.55 L210.2 21.4 211.05 21.9 M222.4 21.9 L222.65 22.85 222.05 23.15 221.05 23.7 Q220.5 23.5 220.2 22.9 219.85 22.4 219.85 21.95 220.1 21.55 220.5 21.4 L222.4 21.9 M191.3 17.65 L191.1 18.7 Q191.15 20.3 201.05 22.25 214.75 24.9 218.85 26.35 L217.6 27.0 220.25 27.15 223.9 26.55 Q227.3 25.85 228.65 25.05 L228.65 25.2 228.5 26.25 Q223.95 29.15 221.6 30.15 217.25 32.05 207.45 32.35 L191.35 31.75 188.75 31.95 174.6 32.0 174.2 32.05 173.95 32.05 138.25 33.25 Q120.7 33.25 112.75 29.15 L111.9 30.8 Q111.5 31.3 110.7 31.35 106.05 31.5 97.7 29.3 L87.95 26.5 Q88.35 25.15 88.85 25.0 89.35 25.05 93.6 27.2 97.35 29.15 103.85 28.95 L108.85 28.65 Q108.25 27.7 100.45 23.95 96.35 21.95 94.5 20.7 L94.75 20.6 95.0 20.55 95.3 20.5 95.7 20.45 109.65 18.85 108.9 19.7 Q107.85 20.3 107.6 20.6 L111.05 24.1 Q112.35 25.3 114.3 25.7 L137.95 28.2 138.05 28.25 137.95 28.1 Q137.8 27.75 137.75 26.5 137.75 25.95 138.8 25.4 139.8 24.85 139.8 23.95 145.35 23.35 147.2 24.6 148.05 25.15 148.05 26.3 148.1 27.85 146.35 28.6 144.65 29.3 140.9 29.4 L139.25 29.2 139.95 29.9 Q141.2 30.05 154.55 29.8 162.15 29.65 164.6 30.05 L162.7 30.65 165.7 30.4 165.75 30.55 165.75 30.4 170.3 30.0 173.35 29.75 175.3 27.7 Q176.9 25.75 176.9 25.3 176.85 22.65 165.6 19.95 157.8 18.05 151.05 17.65 L172.5 17.3 Q181.65 17.2 190.15 17.6 L191.05 17.65 191.3 17.65 M181.75 29.2 L182.65 29.1 184.55 27.5 185.05 26.45 Q184.25 27.5 182.0 29.0 L181.75 29.2 M162.35 25.35 Q162.35 25.9 160.7 26.85 159.05 27.75 158.25 27.75 L156.7 27.65 156.3 27.5 155.8 27.2 155.6 26.05 Q155.6 24.95 157.6 24.2 L161.9 24.4 162.1 24.3 Q162.3 24.35 162.35 25.35 M123.15 21.85 Q124.35 21.15 125.1 21.15 126.1 21.1 127.8 22.0 L125.6 22.9 Q123.35 22.6 123.15 21.85 M64.6 38.6 L62.1 38.8 58.3 38.35 Q55.25 37.9 49.6 38.2 L49.55 37.7 43.7 37.55 43.35 37.35 Q43.1 37.35 43.05 36.35 43.0 34.75 43.55 36.0 L44.35 36.9 50.2 37.35 Q55.8 36.85 57.95 36.15 L60.15 35.25 Q59.35 34.95 57.45 32.95 56.45 31.9 55.45 31.4 L55.45 31.35 57.05 31.55 67.2 36.0 67.35 36.1 67.45 36.2 Q66.75 37.6 64.85 38.5 L64.75 38.55 64.6 38.6" fill="#6cc6b1" fill-rule="evenodd" stroke="none"/>
    </g>
  </defs>
</svg>
