<?xml version="1.0" encoding="UTF-8" standalone="no"?>
<svg xmlns:ffdec="https://www.free-decompiler.com/flash" xmlns:xlink="http://www.w3.org/1999/xlink" ffdec:objectType="frame" height="426.3px" width="733.25px" xmlns="http://www.w3.org/2000/svg">
  <g transform="matrix(1.0, 0.0, 0.0, 1.0, 382.55, 359.45)">
    <use ffdec:characterId="2298" height="21.2" transform="matrix(7.0, 0.0, 0.0, 7.0, -100.4, -180.3)" width="23.3" xlink:href="#shape0"/>
    <use ffdec:characterId="2401" height="19.5" transform="matrix(7.0, 0.0, 0.0, 7.0, -85.75, -180.6)" width="19.4" xlink:href="#shape1"/>
    <use ffdec:characterId="2300" height="8.9" transform="matrix(6.8714, -1.3129, 1.3128, 6.8713, -273.6222, -89.4708)" width="72.6" xlink:href="#shape2"/>
  </g>
  <defs>
    <g id="shape0" transform="matrix(1.0, 0.0, 0.0, 1.0, 11.65, 10.6)">
      <path d="M7.5 -6.85 Q4.4 -9.65 0.0 -9.65 -4.4 -9.65 -7.5 -6.85 -10.6 -4.0 -10.6 0.0 -10.6 4.0 -7.5 6.85 -4.4 9.65 0.0 9.65 4.4 9.65 7.5 6.85 10.6 4.0 10.6 0.0 10.6 -4.0 7.5 -6.85 M8.25 -7.5 Q11.65 -4.4 11.65 0.0 11.65 4.4 8.25 7.5 4.8 10.6 0.0 10.6 -4.8 10.6 -8.25 7.5 -11.65 4.4 -11.65 0.0 -11.65 -4.4 -8.25 -7.5 -4.8 -10.6 0.0 -10.6 4.8 -10.6 8.25 -7.5" fill="#ffffff" fill-opacity="0.23529412" fill-rule="evenodd" stroke="none"/>
      <path d="M4.9 -4.45 Q6.95 -2.65 6.95 0.0 6.95 2.65 4.9 4.45 2.9 6.3 0.0 6.3 -2.9 6.3 -4.9 4.45 -6.95 2.65 -6.95 0.0 -6.95 -2.65 -4.9 -4.45 -2.9 -6.3 0.0 -6.3 2.9 -6.3 4.9 -4.45 M3.15 -2.85 Q1.85 -4.05 0.0 -4.05 -1.85 -4.05 -3.15 -2.85 -4.45 -1.65 -4.45 0.0 -4.45 1.65 -3.15 2.85 -1.85 4.05 0.0 4.05 1.85 4.05 3.15 2.85 4.45 1.65 4.45 0.0 4.45 -1.65 3.15 -2.85" fill="#ffffff" fill-opacity="0.1882353" fill-rule="evenodd" stroke="none"/>
      <path d="M4.9 -4.45 Q2.9 -6.3 0.0 -6.3 -2.9 -6.3 -4.9 -4.45 -6.95 -2.65 -6.95 0.0 -6.95 2.65 -4.9 4.45 -2.9 6.3 0.0 6.3 2.9 6.3 4.9 4.45 6.95 2.65 6.95 0.0 6.95 -2.65 4.9 -4.45 M5.85 -5.35 Q8.3 -3.15 8.3 0.0 8.3 3.15 5.85 5.35 3.45 7.55 0.0 7.55 -3.45 7.55 -5.85 5.35 -8.3 3.15 -8.3 0.0 -8.3 -3.15 -5.85 -5.35 -3.45 -7.55 0.0 -7.55 3.45 -7.55 5.85 -5.35" fill="#ffffff" fill-opacity="0.2" fill-rule="evenodd" stroke="none"/>
      <path d="M5.85 -5.35 Q3.45 -7.55 0.0 -7.55 -3.45 -7.55 -5.85 -5.35 -8.3 -3.15 -8.3 0.0 -8.3 3.15 -5.85 5.35 -3.45 7.55 0.0 7.55 3.45 7.55 5.85 5.35 8.3 3.15 8.3 0.0 8.3 -3.15 5.85 -5.35 M6.6 -6.05 Q9.35 -3.55 9.35 0.0 9.35 3.55 6.6 6.05 3.9 8.5 0.0 8.5 -3.9 8.5 -6.6 6.05 -9.35 3.55 -9.35 0.0 -9.35 -3.55 -6.6 -6.05 -3.9 -8.5 0.0 -8.5 3.9 -8.5 6.6 -6.05" fill="#ffffff" fill-opacity="0.21176471" fill-rule="evenodd" stroke="none"/>
      <path d="M6.6 -6.05 Q3.9 -8.5 0.0 -8.5 -3.9 -8.5 -6.6 -6.05 -9.35 -3.55 -9.35 0.0 -9.35 3.55 -6.6 6.05 -3.9 8.5 0.0 8.5 3.9 8.5 6.6 6.05 9.35 3.55 9.35 0.0 9.35 -3.55 6.6 -6.05 M7.5 -6.85 Q10.6 -4.0 10.6 0.0 10.6 4.0 7.5 6.85 4.4 9.65 0.0 9.65 -4.4 9.65 -7.5 6.85 -10.6 4.0 -10.6 0.0 -10.6 -4.0 -7.5 -6.85 -4.4 -9.65 0.0 -9.65 4.4 -9.65 7.5 -6.85" fill="#ffffff" fill-opacity="0.22352941" fill-rule="evenodd" stroke="none"/>
    </g>
    <g id="shape1" transform="matrix(1.0, 0.0, 0.0, 1.0, 12.25, 25.8)">
      <path d="M1.15 -23.3 Q1.15 -23.05 1.35 -22.85 L1.5 -22.7 1.6 -22.65 1.6 -22.7 1.65 -22.7 1.65 -22.75 1.75 -22.75 Q1.9 -22.75 1.95 -22.7 L2.05 -22.65 Q2.35 -22.6 2.75 -22.65 L3.0 -22.65 3.0 -22.6 Q3.25 -22.35 4.0 -22.05 L5.15 -21.6 5.2 -21.6 Q5.45 -21.45 5.55 -21.2 L5.6 -20.75 5.6 -20.8 5.75 -20.45 Q5.8 -20.25 5.9 -20.15 L5.95 -20.1 5.95 -19.5 5.9 -19.45 5.9 -19.4 6.2 -18.95 Q7.1 -17.6 7.05 -17.4 L6.95 -16.75 6.9 -16.55 7.0 -16.1 7.15 -15.35 Q7.2 -15.25 6.9 -14.45 L6.6 -13.5 Q6.55 -13.2 6.3 -12.95 L5.85 -12.55 5.9 -12.55 Q5.7 -12.4 5.45 -12.05 5.3 -11.85 5.0 -11.85 4.65 -11.85 4.3 -11.5 L4.0 -11.2 4.0 -11.15 3.9 -11.0 3.8 -10.65 Q3.7 -10.25 3.25 -9.95 3.05 -9.75 2.75 -9.35 L2.3 -8.7 Q2.15 -8.5 1.95 -8.4 1.6 -8.2 1.55 -8.15 L1.2 -7.85 0.95 -7.55 0.9 -7.55 0.7 -7.45 0.4 -7.35 0.05 -7.25 Q-0.7 -6.95 -1.4 -6.95 L-1.8 -6.8 Q-2.3 -6.65 -2.4 -6.65 -2.5 -6.65 -2.7 -6.75 L-3.25 -6.55 -3.8 -6.3 -3.9 -6.3 -5.55 -6.65 Q-6.3 -6.45 -7.0 -6.9 L-7.5 -7.25 -7.65 -7.3 Q-8.5 -7.45 -8.95 -7.8 -9.1 -7.95 -9.45 -8.4 L-9.45 -8.45 -9.85 -9.05 Q-10.2 -9.55 -10.2 -9.65 -10.2 -9.75 -10.0 -10.3 L-9.95 -10.4 -10.0 -10.9 Q-10.0 -11.25 -10.1 -11.5 -10.15 -11.65 -10.35 -12.1 L-10.75 -12.5 Q-11.15 -13.0 -11.35 -13.35 -11.4 -13.45 -11.55 -13.65 L-11.9 -13.95 Q-12.15 -14.1 -12.25 -14.35 L-12.25 -14.75 -12.2 -15.25 -12.1 -15.95 Q-12.05 -16.15 -12.05 -16.45 L-12.05 -16.5 -12.1 -17.0 -12.1 -17.05 Q-12.1 -17.1 -11.75 -17.55 L-11.4 -17.9 -11.4 -17.95 -11.15 -18.4 -11.15 -18.45 Q-11.05 -18.6 -10.9 -18.7 L-10.55 -19.15 -10.4 -19.3 -10.35 -19.5 Q-10.25 -19.75 -10.25 -20.05 L-10.25 -20.1 -10.15 -20.55 Q-10.05 -20.85 -9.9 -21.1 -9.65 -21.45 -9.25 -22.05 L-8.6 -23.05 -8.55 -23.1 -8.5 -23.1 -8.3 -23.05 -8.25 -23.0 -7.85 -23.1 -7.55 -23.25 -7.4 -23.25 -7.3 -23.3 -7.05 -23.45 -6.6 -23.75 -6.55 -23.75 -6.45 -23.8 -6.25 -23.95 -6.15 -24.0 -6.1 -24.05 -5.15 -24.85 Q-4.15 -25.55 -3.15 -25.8 L-3.05 -25.75 -3.0 -25.7 -2.85 -25.6 -2.65 -25.45 -2.25 -25.4 -0.95 -25.4 -0.75 -25.3 -0.7 -25.3 Q-0.5 -25.05 -0.25 -24.6 L-0.25 -24.55 0.05 -24.35 Q0.2 -24.4 0.65 -23.95 1.15 -23.5 1.15 -23.3 M1.1 -22.55 Q0.75 -22.7 0.4 -23.05 0.05 -23.45 -0.2 -23.8 L-0.4 -24.25 Q-1.15 -24.6 -2.2 -24.8 L-3.15 -24.85 Q-3.45 -24.85 -4.2 -24.6 -4.9 -24.35 -5.05 -24.3 L-5.3 -24.2 -5.25 -24.0 -5.2 -23.9 Q-4.9 -24.0 -4.6 -23.8 L-3.9 -23.85 -3.7 -23.8 -3.5 -23.8 -3.3 -23.85 Q-3.05 -24.0 -3.0 -23.95 L-2.95 -23.9 Q-2.9 -23.85 -2.75 -23.75 -2.65 -23.7 -2.6 -23.6 L-2.4 -23.45 -2.4 -23.4 -2.1 -23.15 -1.85 -22.95 Q-1.7 -22.85 -1.6 -22.7 L-1.45 -22.45 Q-1.25 -22.2 -0.4 -22.15 L-0.35 -22.1 0.55 -21.15 1.05 -20.85 Q1.55 -20.45 1.55 -20.4 1.55 -20.2 1.35 -19.9 1.2 -19.65 1.15 -19.45 L1.1 -19.05 1.05 -18.6 1.0 -18.5 0.95 -18.45 0.85 -18.5 0.6 -18.6 0.5 -18.65 Q0.6 -18.5 0.65 -18.25 0.6 -17.9 0.6 -17.6 L0.65 -17.55 Q0.65 -17.2 1.2 -16.2 1.8 -15.15 1.8 -14.65 1.8 -14.5 1.5 -14.2 L1.2 -13.85 Q1.1 -13.75 1.0 -13.55 L0.85 -13.2 0.25 -12.4 -0.25 -11.85 -0.25 -11.8 -0.5 -11.55 -0.45 -11.45 -0.25 -11.25 0.6 -12.1 Q1.15 -12.65 1.5 -12.85 2.0 -13.15 2.6 -13.5 L2.85 -13.75 3.15 -14.2 3.45 -14.75 Q3.65 -15.2 3.65 -15.5 L3.65 -15.8 Q3.6 -16.0 3.65 -16.15 L3.6 -16.3 Q3.6 -16.45 4.0 -16.7 4.2 -16.85 4.35 -16.9 L4.55 -17.0 Q4.8 -17.15 4.85 -17.3 L4.95 -17.75 4.95 -18.15 Q4.95 -18.3 4.85 -18.4 L4.85 -18.45 Q4.65 -18.65 4.65 -18.8 L4.75 -19.15 4.85 -19.45 4.75 -19.85 4.7 -19.9 4.5 -20.15 Q4.1 -20.6 3.7 -20.85 L3.6 -20.85 3.0 -21.0 Q2.4 -21.15 2.3 -21.35 L1.9 -21.65 Q1.65 -21.85 1.55 -22.05 L1.55 -22.1 Q1.5 -22.1 1.45 -22.15 1.45 -22.25 1.2 -22.45 L1.1 -22.55 M2.7 -22.25 L2.4 -22.3 2.1 -22.3 1.95 -22.35 2.0 -22.05 2.05 -22.05 2.1 -21.95 2.35 -21.75 2.65 -21.45 Q2.7 -21.4 3.15 -21.3 L3.25 -21.3 3.75 -21.1 3.9 -21.05 4.25 -20.9 Q4.6 -20.75 5.05 -20.65 L5.1 -20.65 5.1 -20.6 Q5.15 -20.5 5.6 -19.85 L5.6 -19.95 5.45 -20.25 Q5.3 -20.6 5.3 -20.65 5.25 -20.8 5.2 -21.05 5.15 -21.2 5.0 -21.3 L4.5 -21.5 Q3.95 -21.7 3.7 -21.8 3.6 -21.8 3.3 -22.0 3.0 -22.2 2.9 -22.3 L2.8 -22.3 2.7 -22.25 M1.55 -22.6 L1.6 -22.6 1.6 -22.65 1.55 -22.6 M1.5 -22.4 L1.5 -22.4 M5.2 -19.0 L5.15 -19.2 5.1 -19.05 5.0 -18.85 5.1 -18.7 Q5.3 -18.45 5.3 -18.4 5.3 -17.65 5.15 -17.3 L5.3 -17.4 Q5.6 -17.6 5.6 -17.8 L5.5 -18.25 5.35 -18.4 Q5.25 -18.5 5.2 -19.05 L5.2 -19.0 M0.55 -20.4 Q0.3 -20.65 -0.8 -21.4 L-1.5 -22.0 -1.9 -22.3 -2.2 -22.65 -2.65 -23.1 -2.65 -23.15 -3.05 -23.35 -3.35 -23.4 -3.45 -23.4 Q-3.5 -23.4 -3.55 -23.45 L-3.6 -23.45 -4.1 -23.35 Q-4.35 -23.2 -4.4 -23.2 -4.45 -23.2 -4.7 -23.45 L-5.2 -23.35 -6.6 -23.0 Q-6.85 -22.95 -7.4 -22.7 L-7.6 -22.6 -7.7 -22.45 -7.75 -22.3 Q-7.75 -22.1 -7.8 -22.05 -7.8 -22.0 -8.0 -21.8 L-8.1 -21.7 Q-8.25 -21.5 -8.3 -21.25 -8.35 -21.0 -8.35 -20.45 -8.35 -20.0 -8.2 -19.6 -8.05 -19.15 -8.05 -19.0 -8.05 -18.95 -8.35 -18.5 L-8.7 -18.0 Q-9.05 -17.6 -9.05 -17.5 L-9.1 -17.15 -9.0 -16.55 -8.95 -15.95 Q-8.95 -15.8 -9.2 -15.5 L-9.35 -15.3 -9.3 -15.25 -9.35 -15.2 -9.35 -15.0 -9.45 -14.8 -9.45 -14.6 Q-8.85 -14.5 -8.65 -14.35 -8.45 -14.2 -8.45 -13.9 L-8.4 -13.5 -8.2 -13.55 -8.15 -13.55 Q-8.0 -14.1 -7.7 -14.6 L-7.65 -14.65 -7.6 -14.65 Q-7.35 -14.7 -7.15 -14.85 L-6.85 -15.15 -6.6 -15.15 -6.5 -15.05 -6.4 -14.9 -6.45 -15.25 Q-6.45 -16.1 -5.6 -17.15 L-5.3 -17.4 -4.55 -18.3 Q-3.45 -19.6 -3.05 -19.6 L-2.65 -19.5 -2.1 -19.4 -1.85 -19.55 -1.75 -19.6 -1.45 -19.6 Q-1.2 -19.6 -0.95 -19.6 L-0.2 -19.45 0.05 -19.45 0.1 -19.4 0.2 -19.2 0.25 -19.2 0.3 -19.15 0.35 -19.15 0.4 -19.1 0.4 -19.05 0.45 -19.0 0.45 -19.1 Q0.5 -19.15 0.55 -19.1 L0.75 -19.1 Q0.8 -19.35 0.8 -19.5 0.8 -20.15 0.55 -20.4 M0.85 -18.65 L0.9 -18.85 0.75 -18.8 0.85 -18.65 M0.25 -18.2 Q0.2 -18.55 -0.05 -18.8 L-1.1 -19.1 -1.75 -19.1 Q-1.9 -19.1 -2.25 -18.75 L-2.65 -18.35 Q-2.65 -18.3 -2.7 -18.25 L-2.9 -18.25 -3.3 -18.4 Q-3.75 -18.4 -4.55 -17.7 L-5.0 -17.25 Q-5.45 -16.6 -5.6 -16.15 L-5.65 -15.75 Q-5.7 -15.5 -5.75 -15.3 L-5.9 -14.9 -6.0 -14.5 -5.95 -14.45 -5.95 -14.4 -5.85 -14.15 -5.6 -14.15 Q-5.35 -14.0 -5.15 -13.5 -4.95 -13.05 -4.6 -12.95 -4.45 -12.9 -4.25 -12.75 L-3.9 -12.5 -3.75 -12.4 Q-3.65 -12.35 -3.45 -12.3 -3.1 -12.2 -2.55 -12.3 L-2.4 -12.3 -2.35 -12.25 -2.45 -12.15 -2.4 -12.15 -2.35 -12.2 -2.25 -12.2 -2.3 -12.25 -2.25 -12.25 -2.25 -12.2 -2.2 -12.2 -2.15 -12.1 -1.95 -11.9 -1.8 -11.65 -1.65 -11.65 Q-1.1 -11.75 -0.75 -12.0 L-0.5 -12.2 0.35 -13.7 Q0.9 -14.65 0.9 -15.0 L0.65 -16.0 0.35 -17.1 Q0.25 -17.45 0.25 -18.2 M3.95 -15.95 L3.95 -15.8 4.05 -15.45 4.05 -15.4 4.1 -15.2 4.1 -15.05 4.05 -15.0 4.05 -14.95 Q4.0 -14.8 3.9 -14.5 L3.7 -14.0 3.65 -13.8 Q3.6 -13.6 3.55 -13.5 L3.3 -13.35 3.25 -13.3 3.4 -12.95 Q3.55 -12.5 3.6 -12.0 L3.85 -12.3 4.25 -12.7 4.6 -13.1 Q5.05 -13.6 5.2 -13.95 5.1 -14.15 5.25 -14.45 L5.6 -14.9 5.6 -14.85 6.0 -15.4 Q6.05 -15.5 6.05 -15.7 6.05 -15.8 6.15 -16.2 L6.3 -16.65 Q6.3 -16.95 5.9 -17.8 5.9 -17.4 5.3 -17.0 5.05 -16.8 4.1 -16.25 L4.0 -16.15 4.0 -15.95 3.95 -15.95 M3.7 -15.2 L3.7 -15.2 M6.7 -15.45 L6.65 -14.8 Q6.65 -14.65 6.4 -14.15 6.2 -13.8 6.2 -13.55 L6.15 -13.3 6.55 -14.2 Q6.9 -15.15 6.9 -15.3 6.9 -15.45 6.75 -15.95 6.75 -15.75 6.7 -15.45 M5.0 -12.45 Q4.75 -12.35 4.5 -12.2 L4.3 -11.9 5.15 -12.15 Q5.25 -12.3 5.55 -12.65 L5.0 -12.45 M2.95 -13.15 L2.5 -12.75 Q2.1 -12.45 1.75 -12.3 L1.05 -11.9 0.6 -11.6 Q0.05 -11.1 -0.3 -10.85 L-0.35 -10.8 -0.45 -10.85 -0.5 -10.9 -0.6 -11.2 -0.65 -11.2 Q-0.75 -11.4 -0.9 -11.45 L-1.05 -11.4 -1.2 -11.4 -1.65 -11.3 -1.9 -11.3 -1.9 -11.35 -2.25 -11.7 -2.4 -11.95 -2.65 -11.95 -2.7 -11.9 -2.95 -11.95 -3.25 -11.95 Q-3.9 -12.1 -4.35 -12.3 L-5.05 -12.8 Q-5.3 -12.95 -5.5 -13.5 -5.6 -13.8 -5.85 -13.8 L-6.35 -13.8 -6.4 -13.85 -6.4 -13.9 -6.45 -14.1 -6.6 -14.3 Q-7.65 -13.2 -7.7 -12.9 L-7.45 -12.45 -7.2 -12.25 Q-6.8 -11.9 -6.55 -11.6 L-6.25 -11.2 Q-6.0 -10.95 -6.0 -10.75 L-5.9 -10.0 -5.9 -9.6 Q-5.85 -9.15 -5.7 -8.95 -5.45 -8.45 -4.7 -8.3 L-3.65 -8.25 -3.4 -8.25 Q-3.25 -8.3 -3.1 -8.15 L-2.7 -8.0 Q-2.55 -7.95 -2.5 -7.85 L-2.45 -7.8 -2.2 -7.65 Q-1.95 -7.5 -1.65 -7.4 L-1.45 -7.4 -0.8 -7.5 -0.75 -7.5 -0.1 -7.85 0.35 -8.15 0.65 -8.55 0.9 -8.95 Q0.8 -8.95 0.8 -9.0 L0.8 -9.1 0.85 -9.15 2.3 -10.25 2.5 -10.55 2.95 -11.1 3.3 -11.6 3.3 -11.85 Q3.3 -12.35 3.1 -12.9 L2.95 -13.15 M3.85 -12.15 L3.9 -11.95 3.95 -12.0 3.85 -12.15 M3.55 -11.3 Q3.1 -10.8 2.75 -10.05 L2.55 -9.65 3.1 -10.3 Q3.3 -10.55 3.7 -11.5 L3.55 -11.3 M-8.85 -22.15 L-9.05 -21.85 -9.65 -20.85 Q-9.85 -20.55 -9.95 -19.95 L-10.05 -19.6 -9.95 -19.65 Q-9.05 -20.9 -8.75 -21.55 -8.7 -21.65 -8.6 -22.0 -8.5 -22.35 -8.4 -22.5 L-8.25 -22.7 -8.4 -22.7 -8.75 -22.35 -8.85 -22.15 M-8.6 -18.65 L-8.35 -19.05 -8.5 -19.5 Q-8.7 -19.95 -8.7 -20.1 -8.65 -20.35 -8.7 -20.8 L-8.8 -20.55 -9.05 -20.1 -9.2 -19.95 -9.25 -19.85 Q-9.35 -19.75 -9.45 -19.7 L-9.5 -19.6 Q-9.6 -19.4 -9.6 -19.2 -9.65 -18.8 -10.5 -17.5 L-10.7 -17.1 -10.8 -16.6 -10.6 -16.2 Q-10.45 -15.7 -10.45 -15.55 -10.4 -15.4 -10.2 -15.05 L-10.05 -14.8 -9.8 -15.2 -9.25 -15.95 -9.3 -16.5 -9.35 -17.1 Q-9.35 -17.5 -9.35 -17.6 L-8.95 -18.15 -8.6 -18.65 M-11.1 -17.4 L-11.15 -17.65 -11.35 -17.45 Q-11.7 -17.1 -11.7 -16.9 -11.65 -16.65 -11.65 -16.45 -11.95 -15.05 -11.95 -14.8 -11.95 -14.45 -11.75 -14.3 -11.3 -13.9 -11.05 -13.5 -10.8 -13.05 -10.65 -12.85 L-10.65 -12.95 Q-11.0 -13.5 -11.2 -14.2 -11.35 -14.7 -11.7 -15.7 L-11.7 -15.75 Q-11.7 -16.05 -11.25 -16.95 L-11.1 -17.2 -11.1 -17.4 M-9.75 -14.7 L-10.0 -14.4 -10.15 -13.7 -10.3 -13.1 -10.25 -12.95 -10.2 -12.85 -9.9 -12.3 -9.65 -11.9 -9.1 -11.75 Q-8.8 -11.6 -8.8 -11.4 -8.8 -11.2 -8.7 -10.85 -8.55 -10.45 -8.45 -10.35 L-7.85 -9.75 Q-7.6 -9.5 -7.6 -9.15 L-7.65 -8.85 Q-7.65 -8.7 -7.7 -8.65 -7.45 -8.25 -7.35 -8.15 -6.8 -7.65 -5.9 -7.55 L-5.85 -7.55 -5.8 -7.5 -5.8 -7.45 -5.6 -7.45 Q-4.65 -7.45 -4.2 -7.6 L-4.15 -7.6 -3.75 -7.75 -3.8 -7.75 -3.5 -7.8 Q-3.55 -7.8 -3.6 -7.85 L-4.05 -7.85 -4.35 -7.9 -4.5 -7.95 -4.75 -7.95 -5.05 -8.0 Q-6.0 -8.4 -6.2 -9.25 L-6.3 -9.9 Q-6.35 -10.25 -6.5 -10.45 L-7.45 -11.65 Q-7.6 -11.85 -7.85 -12.35 L-8.2 -12.6 -8.3 -12.6 -8.35 -12.65 -8.4 -12.75 -8.3 -13.1 Q-8.55 -13.1 -8.65 -13.5 L-8.75 -13.85 Q-8.75 -14.1 -9.35 -14.3 L-9.5 -14.3 -9.6 -14.2 -9.75 -14.25 -9.75 -14.4 -9.7 -14.75 -9.75 -14.7 M-6.0 -15.85 Q-6.1 -15.55 -6.1 -15.25 -6.0 -15.6 -6.0 -15.85 M-0.75 -11.7 L-0.85 -11.65 -0.75 -11.55 -0.75 -11.7 M-9.55 -11.55 Q-9.45 -11.2 -9.45 -10.85 -9.45 -10.75 -9.5 -10.55 L-9.4 -10.2 Q-9.3 -9.95 -9.2 -9.8 -9.05 -9.55 -8.65 -9.45 -8.2 -9.3 -8.0 -9.1 L-8.0 -9.2 Q-8.0 -9.45 -8.25 -9.65 -8.65 -10.05 -8.8 -10.3 -8.9 -10.45 -9.0 -10.9 -9.1 -11.25 -9.15 -11.4 L-9.45 -11.5 -9.55 -11.55 M-6.75 -7.1 Q-6.5 -7.0 -6.2 -7.0 L-5.3 -6.9 -4.2 -6.6 -3.9 -6.65 Q-3.55 -6.85 -3.25 -6.95 L-3.75 -7.05 -4.45 -6.95 -4.5 -6.95 -4.8 -7.0 -5.05 -7.0 -5.75 -7.05 -6.2 -7.15 -6.6 -7.25 -6.9 -7.25 -6.75 -7.1" fill="#00ffff" fill-opacity="0.5019608" fill-rule="evenodd" stroke="none"/>
      <path d="M0.25 -18.2 Q0.25 -17.45 0.35 -17.1 L0.65 -16.0 0.9 -15.0 Q0.9 -14.65 0.35 -13.7 L-0.5 -12.2 -0.75 -12.0 Q-1.1 -11.75 -1.65 -11.65 L-1.8 -11.65 -1.95 -11.9 -2.15 -12.1 -2.2 -12.2 -2.25 -12.2 -2.25 -12.25 -2.3 -12.25 -2.25 -12.2 -2.35 -12.2 -2.4 -12.15 -2.45 -12.15 -2.35 -12.25 -2.4 -12.3 -2.55 -12.3 Q-3.1 -12.2 -3.45 -12.3 -3.65 -12.35 -3.75 -12.4 L-3.9 -12.5 -4.25 -12.75 Q-4.45 -12.9 -4.6 -12.95 -4.95 -13.05 -5.15 -13.5 -5.35 -14.0 -5.6 -14.15 L-5.85 -14.15 -5.95 -14.4 -5.95 -14.45 -6.0 -14.5 -5.9 -14.9 -5.75 -15.3 Q-5.7 -15.5 -5.65 -15.75 L-5.6 -16.15 Q-5.45 -16.6 -5.0 -17.25 L-4.55 -17.7 Q-3.75 -18.4 -3.3 -18.4 L-2.9 -18.25 -2.7 -18.25 Q-2.65 -18.3 -2.65 -18.35 L-2.25 -18.75 Q-1.9 -19.1 -1.75 -19.1 L-1.1 -19.1 -0.05 -18.8 Q0.2 -18.55 0.25 -18.2" fill="#95ffff" fill-opacity="0.5019608" fill-rule="evenodd" stroke="none"/>
      <path d="M1.0 -23.3 Q1.0 -23.05 1.25 -22.75 L1.4 -22.6 1.65 -22.5 1.65 -22.55 1.7 -22.55 1.7 -22.6 1.75 -22.65 1.85 -22.6 2.0 -22.55 Q2.3 -22.45 2.75 -22.55 L2.95 -22.55 Q3.2 -22.25 4.0 -21.95 L5.15 -21.5 Q5.35 -21.35 5.4 -21.15 L5.5 -20.75 5.6 -20.4 Q5.7 -20.15 5.8 -20.05 L5.8 -19.5 Q5.8 -19.45 5.7 -19.45 L6.1 -18.9 Q6.95 -17.55 6.95 -17.4 L6.8 -16.75 6.8 -16.55 6.9 -16.1 7.05 -15.35 Q7.05 -15.25 6.8 -14.5 L6.5 -13.5 Q6.45 -13.25 6.2 -13.05 L5.8 -12.65 5.35 -12.1 Q5.25 -11.95 5.0 -11.95 4.6 -11.95 4.2 -11.6 L3.9 -11.25 3.9 -11.2 3.8 -11.05 3.7 -10.65 Q3.6 -10.35 3.2 -10.0 3.0 -9.85 2.65 -9.45 L2.2 -8.75 Q2.05 -8.6 1.9 -8.5 L1.45 -8.2 1.1 -7.95 0.85 -7.65 0.65 -7.55 0.4 -7.45 0.05 -7.35 Q-0.7 -7.1 -1.4 -7.05 -1.6 -7.0 -1.85 -6.9 -2.3 -6.75 -2.4 -6.75 L-2.7 -6.85 -3.3 -6.7 -3.85 -6.4 -5.55 -6.75 Q-6.25 -6.55 -6.95 -7.0 L-7.45 -7.4 -7.6 -7.4 Q-8.45 -7.55 -8.85 -7.9 -9.0 -8.05 -9.35 -8.5 L-9.75 -9.1 -10.05 -9.65 -9.9 -10.25 -9.85 -10.35 -9.85 -10.9 Q-9.9 -11.25 -9.95 -11.5 L-10.25 -12.2 -10.65 -12.6 Q-11.1 -13.05 -11.25 -13.4 L-11.45 -13.7 -11.85 -14.05 Q-12.05 -14.2 -12.1 -14.4 -12.15 -14.5 -12.15 -14.75 L-12.1 -15.25 -12.0 -15.9 Q-11.95 -16.15 -11.95 -16.5 L-12.0 -17.05 -11.65 -17.45 -11.3 -17.9 Q-11.2 -18.05 -11.05 -18.35 L-10.8 -18.6 -10.45 -19.1 -10.3 -19.25 -10.25 -19.45 Q-10.1 -19.7 -10.1 -20.05 L-10.05 -20.5 Q-9.95 -20.8 -9.8 -21.05 -9.55 -21.35 -9.15 -22.0 L-8.5 -23.0 -8.35 -22.95 -8.3 -22.9 Q-8.05 -22.95 -7.85 -23.0 L-7.6 -23.05 -7.5 -23.1 -7.35 -23.15 -7.25 -23.2 -7.0 -23.35 -6.55 -23.65 -6.45 -23.65 -6.4 -23.75 -6.15 -23.85 -6.05 -23.95 -5.05 -24.75 Q-4.1 -25.45 -3.1 -25.65 L-3.1 -25.65 -2.9 -25.5 -2.7 -25.3 -1.65 -25.3 Q-1.15 -25.25 -1.0 -25.25 L-0.8 -25.2 Q-0.6 -25.0 -0.4 -24.55 L-0.35 -24.45 0.05 -24.25 Q0.15 -24.25 0.6 -23.85 1.0 -23.45 1.0 -23.3 M1.2 -22.65 Q0.85 -22.8 0.45 -23.15 0.1 -23.5 -0.1 -23.9 L-0.35 -24.35 Q-1.05 -24.7 -2.2 -24.9 L-3.15 -24.95 Q-3.4 -24.95 -4.25 -24.7 -5.0 -24.5 -5.15 -24.4 L-5.4 -24.25 -5.4 -24.2 -5.35 -23.95 -5.25 -23.75 Q-4.95 -23.9 -4.7 -23.7 L-4.65 -23.65 -3.9 -23.75 -3.7 -23.7 -3.45 -23.7 Q-3.35 -23.7 -3.25 -23.75 -3.1 -23.85 -3.05 -23.85 -3.0 -23.8 -2.85 -23.65 -2.75 -23.6 -2.7 -23.55 L-2.5 -23.35 -2.45 -23.35 -2.15 -23.1 -1.95 -22.85 Q-1.8 -22.8 -1.7 -22.65 L-1.55 -22.4 Q-1.3 -22.1 -0.45 -22.0 L0.5 -21.05 0.95 -20.75 Q1.4 -20.45 1.4 -20.4 1.4 -20.2 1.25 -20.0 1.1 -19.7 1.05 -19.5 L1.0 -19.1 0.95 -18.65 0.9 -18.6 0.65 -18.7 Q0.45 -18.85 0.3 -18.8 L0.2 -18.85 Q0.45 -18.6 0.5 -18.25 0.5 -17.85 0.5 -17.55 0.55 -17.2 1.1 -16.15 1.65 -15.15 1.65 -14.65 1.65 -14.55 1.45 -14.3 L1.1 -13.95 Q1.0 -13.8 0.9 -13.55 L0.8 -13.25 0.15 -12.45 Q-0.25 -12.0 -0.3 -11.95 L-0.35 -11.9 -0.65 -11.65 -0.65 -11.55 -0.7 -11.55 -0.5 -11.4 -0.3 -11.1 0.7 -12.0 Q1.25 -12.55 1.55 -12.75 L2.65 -13.4 2.95 -13.7 3.25 -14.1 3.55 -14.7 Q3.75 -15.15 3.75 -15.5 L3.75 -15.8 Q3.7 -16.0 3.75 -16.15 3.7 -16.25 3.7 -16.3 3.7 -16.4 4.05 -16.6 L4.4 -16.8 4.6 -16.9 Q4.9 -17.05 4.95 -17.3 L5.05 -17.75 5.1 -18.15 Q5.1 -18.35 4.95 -18.5 4.8 -18.65 4.8 -18.8 L4.85 -19.1 Q4.95 -19.35 4.95 -19.45 4.95 -19.55 4.85 -19.9 L4.8 -19.95 4.55 -20.25 Q4.15 -20.7 3.75 -20.95 3.7 -20.95 3.65 -21.0 L3.05 -21.15 Q2.5 -21.25 2.35 -21.4 L2.0 -21.7 Q1.75 -21.95 1.7 -22.05 L1.65 -22.2 1.6 -22.2 Q1.55 -22.3 1.3 -22.55 L1.2 -22.65 M2.45 -22.4 L2.15 -22.45 1.8 -22.45 1.8 -22.5 Q1.8 -22.25 1.95 -21.95 2.0 -21.95 1.9 -21.95 L1.95 -21.9 2.25 -21.65 2.55 -21.35 Q2.65 -21.3 3.2 -21.15 L3.5 -21.05 3.2 -21.2 Q3.45 -21.1 3.75 -21.0 L3.85 -20.95 Q3.95 -20.85 4.2 -20.8 4.6 -20.65 5.0 -20.55 L5.65 -19.5 5.7 -19.7 5.7 -19.95 5.55 -20.3 5.4 -20.7 5.3 -21.05 Q5.3 -21.25 5.1 -21.4 L4.55 -21.6 Q3.95 -21.8 3.7 -21.9 3.65 -21.9 3.35 -22.1 L2.95 -22.45 2.7 -22.4 2.45 -22.4 M1.6 -22.45 L1.55 -22.45 1.6 -22.4 1.6 -22.45 M4.85 -18.85 Q4.85 -18.8 5.05 -18.6 L5.2 -18.4 Q5.2 -17.65 5.0 -17.25 4.85 -16.95 4.45 -16.7 L4.7 -16.85 5.35 -17.3 Q5.7 -17.55 5.7 -17.8 L5.6 -18.3 5.45 -18.5 Q5.4 -18.55 5.3 -19.05 5.25 -19.35 5.05 -19.65 L5.05 -19.45 Q5.05 -19.35 4.95 -19.1 4.85 -18.9 4.85 -18.85 M0.6 -20.5 Q0.4 -20.75 -0.75 -21.5 -1.1 -21.75 -1.45 -22.1 L-1.5 -22.1 Q-1.55 -22.1 -1.8 -22.4 L-2.1 -22.75 -2.5 -23.15 -2.6 -23.2 -3.05 -23.5 -3.35 -23.55 -3.45 -23.55 -3.5 -23.55 -3.6 -23.6 Q-3.9 -23.55 -4.15 -23.45 L-4.4 -23.35 -4.65 -23.55 -5.2 -23.45 -6.6 -23.15 Q-6.9 -23.05 -7.45 -22.8 L-7.65 -22.7 -7.8 -22.5 -7.9 -22.1 -8.2 -21.8 Q-8.35 -21.55 -8.45 -21.25 -8.5 -21.0 -8.5 -20.45 -8.5 -19.95 -8.35 -19.55 -8.15 -19.1 -8.15 -19.0 -8.15 -18.95 -8.45 -18.55 L-8.8 -18.05 -9.2 -17.5 -9.2 -17.15 -9.1 -15.95 Q-9.1 -15.8 -9.3 -15.55 L-9.5 -15.25 -9.45 -15.25 -9.5 -15.05 -9.55 -14.8 -9.55 -14.5 Q-8.95 -14.4 -8.75 -14.25 -8.55 -14.15 -8.55 -13.9 -8.55 -13.4 -8.5 -13.4 L-8.1 -13.4 Q-7.9 -14.0 -7.6 -14.55 -7.25 -14.6 -7.05 -14.8 L-6.8 -15.05 -6.6 -15.0 Q-6.4 -14.55 -6.2 -14.3 -6.35 -14.65 -6.35 -15.25 -6.35 -16.05 -5.5 -17.05 L-5.2 -17.35 -4.5 -18.25 Q-3.4 -19.45 -3.05 -19.45 L-2.65 -19.4 -2.05 -19.3 -1.8 -19.45 -0.95 -19.45 -0.2 -19.35 0.0 -19.35 0.15 -19.1 0.2 -19.1 0.3 -19.05 0.3 -18.95 0.55 -19.0 0.8 -19.0 Q0.9 -19.3 0.9 -19.5 0.9 -20.25 0.6 -20.5 M0.0 -18.95 L-1.1 -19.2 -1.6 -19.2 -1.65 -19.25 -1.75 -19.25 Q-1.9 -19.25 -2.35 -18.8 L-2.8 -18.4 Q-2.7 -18.35 -2.85 -18.35 L-3.3 -18.55 Q-3.8 -18.55 -4.6 -17.8 L-5.1 -17.35 Q-5.55 -16.65 -5.7 -16.2 L-5.8 -15.8 Q-5.8 -15.5 -5.85 -15.35 L-6.0 -14.95 Q-6.1 -14.7 -6.1 -14.5 L-6.1 -14.35 -6.05 -14.35 -5.95 -14.05 -5.7 -14.05 Q-5.45 -13.95 -5.25 -13.45 -5.05 -13.0 -4.65 -12.85 L-4.3 -12.65 -3.95 -12.4 -3.8 -12.3 Q-3.7 -12.25 -3.45 -12.2 -3.1 -12.1 -2.55 -12.2 L-2.45 -12.15 -2.4 -12.15 Q-2.4 -12.25 -2.35 -12.15 L-2.35 -12.15 -2.3 -12.15 -2.25 -12.05 -1.85 -11.55 -1.7 -11.55 Q-1.05 -11.6 -0.7 -11.9 L-0.4 -12.15 0.45 -13.65 Q1.05 -14.65 1.05 -15.0 L0.75 -16.05 0.45 -17.15 Q0.35 -17.45 0.4 -18.2 0.35 -18.65 0.0 -18.95 M3.9 -16.2 L3.9 -16.05 3.85 -16.05 3.85 -15.8 3.95 -15.4 3.95 -15.35 4.0 -15.2 4.0 -15.1 3.95 -15.1 3.95 -15.05 3.9 -15.0 Q3.9 -14.85 3.8 -14.55 L3.55 -14.05 3.55 -13.8 Q3.5 -13.65 3.45 -13.6 L3.25 -13.45 3.1 -13.35 3.25 -12.9 Q3.5 -12.4 3.5 -11.85 L3.45 -11.65 Q3.6 -11.9 3.95 -12.25 L4.7 -13.0 Q5.2 -13.55 5.3 -13.95 5.2 -14.15 5.35 -14.4 L5.7 -14.8 6.1 -15.3 Q6.15 -15.45 6.15 -15.7 L6.3 -16.15 6.4 -16.65 Q6.4 -16.95 6.0 -17.9 L5.75 -18.15 5.8 -17.8 Q5.8 -17.5 5.25 -17.05 5.0 -16.9 4.05 -16.35 L4.0 -16.35 3.9 -16.2 M3.8 -15.2 L3.8 -15.2 M6.75 -16.4 L6.65 -16.05 Q6.6 -15.85 6.6 -15.45 L6.55 -14.8 6.3 -14.2 Q6.05 -13.8 6.1 -13.55 6.1 -13.05 5.65 -12.8 L4.95 -12.55 4.45 -12.25 4.2 -11.95 Q4.05 -11.75 3.95 -11.5 L4.3 -11.8 Q4.45 -11.85 5.2 -12.05 5.3 -12.2 5.65 -12.6 L6.2 -13.1 Q6.3 -13.2 6.65 -14.15 7.0 -15.1 7.0 -15.3 7.0 -15.5 6.85 -16.0 L6.75 -16.4 M3.0 -13.3 L2.9 -13.25 2.4 -12.85 Q2.05 -12.55 1.7 -12.4 L1.0 -12.0 0.55 -11.7 Q0.0 -11.2 -0.4 -10.95 L-0.55 -11.25 Q-0.7 -11.5 -0.9 -11.6 L-1.1 -11.55 -1.2 -11.5 -1.65 -11.4 -1.8 -11.4 -2.15 -11.75 -2.35 -12.05 -3.25 -12.05 Q-3.9 -12.2 -4.3 -12.45 L-5.0 -12.9 Q-5.2 -13.05 -5.4 -13.55 -5.5 -13.9 -5.85 -13.9 L-6.3 -13.9 -6.3 -13.95 -6.35 -14.1 -6.3 -14.15 -6.55 -14.5 Q-7.8 -13.2 -7.8 -12.9 L-7.55 -12.4 -7.3 -12.15 Q-6.85 -11.8 -6.65 -11.5 L-6.35 -11.15 Q-6.15 -10.9 -6.1 -10.75 L-6.0 -10.0 -6.05 -9.9 -6.0 -9.6 Q-5.95 -9.1 -5.8 -8.9 -5.5 -8.3 -4.7 -8.2 L-3.7 -8.15 -3.35 -8.15 Q-3.3 -8.15 -3.15 -8.05 L-2.75 -7.9 Q-2.65 -7.85 -2.6 -7.8 L-2.5 -7.7 -2.25 -7.55 Q-2.0 -7.4 -1.65 -7.3 L-1.5 -7.25 -0.7 -7.4 -0.05 -7.75 Q0.2 -7.9 0.4 -8.05 L0.75 -8.5 1.05 -8.95 Q1.05 -9.05 1.0 -9.05 L0.9 -9.05 2.4 -10.15 2.6 -10.5 3.05 -11.05 3.4 -11.55 3.4 -11.65 3.45 -11.85 Q3.45 -12.35 3.2 -12.9 3.1 -13.15 3.0 -13.3 M3.9 -12.1 L3.9 -12.1 M3.45 -11.4 Q3.0 -10.85 2.65 -10.1 L2.35 -9.5 Q2.15 -9.2 1.85 -8.85 L1.6 -8.55 1.6 -8.5 2.15 -8.95 Q2.7 -9.65 3.15 -10.2 3.4 -10.45 3.8 -11.45 L4.1 -12.05 Q3.75 -11.75 3.45 -11.4 M-9.1 -21.9 L-9.45 -21.45 -9.75 -20.9 Q-9.95 -20.6 -10.1 -19.95 L-10.2 -19.35 -10.1 -19.45 -9.85 -19.6 Q-8.95 -20.85 -8.65 -21.5 L-8.5 -22.0 Q-8.4 -22.3 -8.3 -22.45 -8.05 -22.75 -7.7 -22.95 L-7.8 -22.95 -7.8 -22.9 -8.0 -22.8 -8.45 -22.8 Q-8.55 -22.75 -8.8 -22.45 L-8.95 -22.2 -9.1 -21.9 M-8.6 -21.1 L-8.6 -21.25 -8.75 -20.9 -8.9 -20.6 -9.15 -20.15 -9.3 -20.05 -9.35 -19.95 Q-9.45 -19.8 -9.5 -19.8 L-9.55 -19.8 -9.6 -19.65 Q-9.7 -19.45 -9.75 -19.2 -9.75 -18.85 -10.6 -17.55 L-10.85 -17.15 -10.85 -16.9 -10.9 -16.6 -10.75 -16.15 Q-10.55 -15.65 -10.55 -15.55 -10.55 -15.4 -10.3 -15.0 -10.15 -14.7 -10.1 -14.55 L-9.7 -15.15 -9.15 -15.9 -9.25 -17.1 Q-9.25 -17.5 -9.25 -17.55 L-8.85 -18.1 -8.5 -18.6 Q-8.25 -19.0 -8.25 -19.05 L-8.4 -19.55 Q-8.6 -19.95 -8.55 -20.1 -8.55 -20.45 -8.6 -21.1 M-11.05 -18.05 Q-11.25 -17.7 -11.45 -17.5 -11.8 -17.15 -11.85 -16.9 -11.75 -16.65 -11.75 -16.45 -12.05 -15.05 -12.05 -14.8 -12.05 -14.4 -11.8 -14.2 -11.4 -13.85 -11.15 -13.45 -10.9 -12.95 -10.7 -12.7 -10.6 -12.6 -10.35 -12.45 L-10.45 -12.6 Q-10.55 -12.75 -10.55 -12.95 L-10.55 -13.0 Q-10.9 -13.55 -11.1 -14.25 -11.25 -14.75 -11.6 -15.75 -11.6 -16.05 -11.15 -16.9 L-10.95 -17.2 -11.0 -17.4 -11.05 -17.75 -11.05 -18.05 M-9.55 -15.1 L-9.8 -14.8 -10.1 -14.45 -10.25 -13.75 -10.45 -13.05 -10.4 -13.05 -10.35 -12.9 -10.3 -12.8 -10.0 -12.25 -9.75 -11.8 -9.15 -11.65 Q-8.95 -11.55 -8.95 -11.4 -8.95 -11.2 -8.8 -10.8 -8.65 -10.4 -8.55 -10.25 L-7.9 -9.65 Q-7.75 -9.45 -7.75 -9.15 L-7.75 -8.85 Q-7.8 -8.7 -7.85 -8.65 -7.55 -8.2 -7.4 -8.05 -6.85 -7.5 -5.9 -7.45 L-5.9 -7.35 -5.6 -7.3 Q-4.6 -7.3 -4.15 -7.5 L-4.1 -7.5 -3.75 -7.65 -3.2 -7.7 -3.3 -7.8 -3.35 -7.8 -3.55 -7.95 -3.7 -7.95 -4.0 -8.0 -4.35 -8.0 -4.45 -8.05 -4.5 -8.05 -4.75 -8.1 -5.05 -8.1 Q-5.9 -8.45 -6.1 -9.3 L-6.2 -9.95 Q-6.25 -10.3 -6.45 -10.5 L-7.35 -11.7 Q-7.5 -11.9 -7.75 -12.4 -7.95 -12.55 -8.15 -12.7 L-8.25 -12.75 -8.15 -13.25 -8.3 -13.2 Q-8.5 -13.2 -8.55 -13.5 -8.6 -13.7 -8.6 -13.85 -8.6 -14.2 -9.3 -14.45 L-9.55 -14.4 -9.65 -14.35 -9.65 -14.4 -9.6 -14.7 -9.55 -15.05 -9.55 -15.1 M-5.85 -15.85 Q-5.85 -16.15 -5.4 -17.0 L-5.4 -17.0 -5.55 -16.8 -5.65 -16.7 Q-5.85 -16.45 -6.0 -16.15 -6.25 -15.65 -6.25 -15.25 -6.25 -14.9 -6.2 -14.55 -6.15 -14.9 -6.05 -15.2 -5.85 -15.6 -5.85 -15.85 M-0.8 -11.65 L-0.8 -11.65 M-5.05 -7.15 L-5.7 -7.15 -6.2 -7.25 -6.6 -7.35 -7.25 -7.35 -6.8 -7.0 Q-6.55 -6.9 -6.2 -6.9 L-5.35 -6.75 -4.2 -6.5 -3.85 -6.5 Q-3.3 -6.9 -2.9 -6.95 L-3.25 -7.1 -3.45 -7.1 -3.7 -7.15 -4.5 -7.1 -4.75 -7.1 -4.8 -7.15 -5.05 -7.15 M-3.15 -7.9 L-3.2 -7.95 -3.05 -7.85 -3.15 -7.9 M-9.75 -11.7 Q-9.55 -11.3 -9.55 -10.85 -9.55 -10.75 -9.6 -10.55 L-9.5 -10.2 Q-9.4 -9.9 -9.3 -9.7 -9.1 -9.45 -8.7 -9.35 -8.25 -9.2 -8.05 -8.95 L-7.95 -8.75 -7.9 -8.9 -7.9 -9.2 Q-7.9 -9.5 -8.15 -9.75 -8.55 -10.15 -8.7 -10.35 -8.8 -10.5 -8.9 -10.95 -9.0 -11.35 -9.1 -11.5 L-9.4 -11.6 -9.75 -11.7" fill="#ffffff" fill-rule="evenodd" stroke="none"/>
    </g>
    <g id="shape2" transform="matrix(1.0, 0.0, 0.0, 1.0, 36.3, 4.45)">
      <path d="M10.95 -1.55 Q6.4 -2.15 0.0 -2.15 -6.4 -2.15 -10.95 -1.55 -15.5 -0.9 -15.5 0.0 -15.5 0.9 -10.95 1.55 -6.4 2.15 0.0 2.15 6.4 2.15 10.95 1.55 15.5 0.9 15.5 0.0 15.5 -0.9 10.95 -1.55 M25.3 -2.8 Q35.75 -1.65 35.75 0.0 35.75 1.65 25.3 2.75 14.8 3.95 0.0 3.95 -14.8 3.95 -25.3 2.75 -35.75 1.65 -35.75 0.0 -35.75 -1.65 -25.3 -2.8 -14.8 -3.95 0.0 -3.95 14.8 -3.95 25.3 -2.8" fill="#ffffff" fill-opacity="0.19607843" fill-rule="evenodd" stroke="none"/>
      <path d="M25.3 -2.8 Q35.75 -1.65 35.75 0.0 35.75 1.65 25.3 2.75 14.8 3.95 0.0 3.95 -14.8 3.95 -25.3 2.75 -35.75 1.65 -35.75 0.0 -35.75 -1.65 -25.3 -2.8 -14.8 -3.95 0.0 -3.95 14.8 -3.95 25.3 -2.8 Z" fill="none" stroke="#ffffff" stroke-linecap="round" stroke-linejoin="round" stroke-opacity="0.09803922" stroke-width="0.35000000000000003"/>
    </g>
  </defs>
</svg>
