<?xml version="1.0" encoding="UTF-8" standalone="no"?>
<svg xmlns:ffdec="https://www.free-decompiler.com/flash" xmlns:xlink="http://www.w3.org/1999/xlink" ffdec:objectType="frame" height="426.3px" width="733.25px" xmlns="http://www.w3.org/2000/svg">
  <g transform="matrix(1.0, 0.0, 0.0, 1.0, 382.55, 359.45)">
    <use ffdec:characterId="2334" height="5.75" transform="matrix(-7.0, 0.0, 2.5169, 7.0, 58.9154, -49.7)" width="16.75" xlink:href="#shape0"/>
    <use ffdec:characterId="2363" height="7.8" transform="matrix(7.0, 1.3652, -1.3652, 7.0, -49.9702, -107.8677)" width="13.5" xlink:href="#shape1"/>
    <use ffdec:characterId="2364" height="24.6" transform="matrix(7.0, 2.6459, -2.6458, 7.0, -146.8995, -236.6015)" width="27.6" xlink:href="#shape2"/>
    <use ffdec:characterId="2317" height="49.1" transform="matrix(7.0, 0.0, 0.0, 6.9999, -207.95, -278.197)" width="53.9" xlink:href="#shape3"/>
    <use ffdec:characterId="2405" height="51.7" transform="matrix(7.0, 0.0, 0.0, 7.0, -344.05, -300.65)" width="93.0" xlink:href="#shape4"/>
    <use ffdec:characterId="2319" height="11.8" transform="matrix(6.8714, -1.3129, 1.3128, 6.8713, -346.3119, -76.6509)" width="93.75" xlink:href="#shape5"/>
  </g>
  <defs>
    <g id="shape0" transform="matrix(1.0, 0.0, 0.0, 1.0, 9.15, 5.0)">
      <path d="M3.4 -3.85 L3.45 -3.9 3.6 -3.85 3.7 -3.9 3.75 -3.9 3.75 -3.85 4.2 -3.85 Q5.05 -4.25 5.5 -4.0 5.95 -3.95 6.2 -3.8 6.3 -3.75 6.45 -3.65 L6.9 -3.5 Q7.2 -3.45 7.3 -3.3 7.4 -3.1 7.4 -2.7 L7.4 -2.3 7.5 -1.85 Q7.6 -1.2 7.6 -0.9 7.6 -0.7 7.6 -0.6 L7.55 -0.55 6.8 -0.35 6.75 -0.25 Q6.55 0.1 6.4 0.2 L6.35 0.25 6.2 0.2 6.05 0.2 Q5.15 0.25 4.7 0.45 4.35 0.6 4.15 0.7 4.1 0.75 4.05 0.75 4.0 0.75 4.0 0.65 L3.95 0.55 Q3.95 0.5 3.95 0.45 3.9 0.45 3.9 0.3 3.9 0.1 4.1 0.0 4.25 -0.15 4.3 -0.35 L4.3 -0.45 4.25 -0.45 4.3 -0.5 Q4.3 -0.6 4.7 -0.65 4.75 -0.65 5.05 -0.75 L5.35 -0.85 Q5.5 -0.85 5.8 -0.75 6.0 -0.65 6.1 -0.65 L6.35 -0.65 6.55 -0.9 Q6.65 -0.95 6.7 -1.0 7.0 -1.65 7.0 -1.95 7.0 -2.25 6.45 -2.75 5.9 -3.3 5.5 -3.45 5.05 -3.45 4.6 -3.55 L4.25 -3.65 3.95 -3.45 Q3.25 -3.05 3.05 -2.65 L3.0 -2.6 2.9 -2.35 Q2.85 -2.2 2.65 -2.1 2.5 -1.7 2.3 -1.5 L2.3 -1.45 0.95 -1.1 Q-0.2 -0.75 -0.3 -0.7 L-0.35 -0.7 Q-0.9 -0.75 -1.3 -1.05 L-1.6 -1.3 Q-1.75 -1.4 -1.85 -1.45 -2.05 -1.5 -2.5 -1.85 -3.05 -2.25 -3.05 -2.4 L-3.3 -2.6 -3.7 -3.1 -4.35 -3.55 -4.6 -3.7 -4.8 -3.8 -5.8 -3.8 Q-6.5 -3.75 -7.15 -3.6 L-7.55 -3.5 -7.6 -3.4 Q-7.7 -3.0 -7.75 -2.85 L-7.75 -2.8 Q-7.75 -2.65 -7.55 -2.4 L-7.3 -2.3 Q-6.9 -2.2 -6.35 -1.85 -5.5 -1.3 -5.35 -1.2 -5.3 -1.2 -5.3 -1.15 L-5.05 -1.05 Q-4.55 -0.9 -4.15 -0.8 L-4.0 -0.8 -3.95 -0.75 -3.95 -0.7 Q-3.95 -0.4 -3.65 -0.05 -3.4 0.25 -3.05 0.5 L-2.95 0.5 -2.85 0.6 -2.8 0.6 -2.8 0.75 -2.95 0.75 -3.05 0.7 Q-3.2 0.65 -3.35 0.6 L-4.4 0.6 -4.55 0.45 -4.6 0.5 -4.65 0.5 Q-4.75 0.4 -4.95 0.2 L-5.05 0.05 Q-5.25 -0.15 -5.5 -0.25 L-5.8 -0.4 -5.85 -0.4 -6.3 -0.6 -7.0 -0.85 -7.25 -0.8 Q-7.35 -0.75 -7.4 -0.75 -7.7 -0.75 -7.95 -1.3 -8.05 -1.55 -8.15 -1.9 L-8.65 -2.3 Q-9.2 -2.75 -9.15 -2.85 -9.2 -2.95 -8.95 -3.2 L-8.75 -3.4 -8.55 -3.7 Q-8.55 -4.0 -7.75 -4.35 -7.25 -4.6 -6.95 -4.65 L-6.85 -4.7 Q-6.55 -4.85 -6.2 -4.95 -5.8 -5.1 -5.55 -4.8 L-5.35 -4.6 Q-5.25 -4.5 -5.15 -4.4 -5.0 -4.35 -4.7 -4.05 L-4.6 -3.95 -4.5 -3.9 Q-4.3 -3.85 -4.15 -3.8 -3.9 -3.65 -3.7 -3.55 -3.5 -3.5 -3.25 -3.45 L-3.1 -3.5 -2.45 -3.55 -2.4 -3.6 -2.35 -3.6 Q-2.2 -3.6 -2.0 -3.5 -1.75 -3.4 -1.7 -3.3 L-1.65 -3.3 -1.35 -3.15 Q-1.0 -3.0 -0.55 -2.7 -0.1 -2.4 0.25 -2.25 L0.7 -2.25 0.75 -2.3 1.3 -2.3 1.35 -2.35 Q2.25 -2.3 2.45 -2.4 L2.5 -2.45 2.55 -2.8 Q2.6 -3.15 2.65 -3.3 2.7 -3.55 3.3 -3.75 L3.4 -3.85 M3.6 -3.65 Q3.5 -3.6 3.4 -3.55 3.3 -3.4 3.2 -3.15 3.5 -3.45 3.85 -3.65 L3.6 -3.65 M4.6 -3.8 L4.7 -3.75 Q5.25 -3.7 5.55 -3.6 L5.6 -3.65 5.6 -3.7 5.7 -3.7 5.9 -3.5 6.2 -3.3 Q6.35 -3.25 6.4 -3.15 L6.45 -3.15 7.15 -2.75 7.15 -3.0 Q7.15 -3.15 7.05 -3.2 L6.3 -3.55 Q5.95 -3.75 5.4 -3.85 5.05 -3.9 4.6 -3.8 M0.15 -2.05 L-0.05 -2.1 -0.1 -2.1 Q-0.7 -2.6 -0.95 -2.75 -1.35 -3.0 -2.15 -3.25 L-2.2 -3.25 -2.2 -3.35 -2.15 -3.35 -2.2 -3.4 -3.2 -3.3 -3.4 -3.3 -3.65 -3.35 Q-3.4 -3.15 -3.25 -2.85 L-3.0 -2.6 -2.9 -2.6 -2.85 -2.55 Q-2.8 -2.4 -2.6 -2.25 -2.35 -2.1 -2.1 -1.95 L-1.8 -1.75 Q-1.45 -1.6 -1.35 -1.5 L-0.35 -1.5 Q0.35 -1.55 0.75 -1.85 L1.0 -2.0 1.15 -2.1 0.75 -2.05 0.7 -2.05 Q0.25 -2.05 0.15 -2.1 L0.15 -2.05 M4.35 -0.05 L4.2 0.25 4.25 0.25 4.65 0.05 Q5.05 -0.2 5.3 -0.3 L5.7 -0.35 6.15 -0.4 6.1 -0.4 5.45 -0.65 Q5.35 -0.65 5.1 -0.55 4.8 -0.45 4.55 -0.4 L4.35 -0.05 M6.4 -0.45 Q6.4 -0.4 6.35 -0.4 L6.4 -0.4 6.4 -0.45 M6.45 -0.5 L6.45 -0.5 M-7.35 -4.0 L-7.35 -3.95 -7.4 -3.85 -7.1 -3.9 -6.7 -3.9 Q-6.45 -3.95 -6.3 -4.0 L-5.1 -4.0 -5.95 -4.4 -6.0 -4.45 -6.45 -4.55 -6.9 -4.4 -6.9 -4.35 -6.95 -4.35 Q-7.15 -4.2 -7.3 -4.0 L-7.35 -4.0 M-8.9 -2.85 Q-8.9 -2.75 -8.5 -2.45 -8.0 -2.0 -7.95 -1.95 -7.9 -1.9 -7.75 -1.45 -7.65 -1.15 -7.45 -1.0 L-7.4 -1.05 -7.35 -1.05 -7.0 -1.0 -6.95 -1.0 Q-6.15 -0.8 -5.8 -0.55 L-5.8 -0.5 -5.75 -0.5 -5.5 -0.45 -6.0 -1.0 Q-6.4 -1.05 -6.65 -1.35 L-7.35 -2.05 Q-7.6 -2.15 -7.9 -2.25 -8.2 -2.35 -8.25 -2.55 -8.3 -2.65 -8.3 -2.9 -8.3 -3.1 -8.35 -3.25 L-8.45 -3.4 -8.45 -3.45 -8.65 -3.2 -8.9 -2.85 M-5.2 -0.85 L-5.0 -0.45 -4.9 -0.2 Q-4.45 0.25 -4.3 0.4 L-3.45 0.45 Q-3.7 0.25 -3.8 0.2 L-3.85 0.15 Q-3.95 0.0 -4.05 -0.25 -4.15 -0.5 -4.15 -0.6 -4.35 -0.7 -4.9 -0.8 L-5.2 -0.85" fill="#00ffff" fill-opacity="0.5019608" fill-rule="evenodd" stroke="none"/>
      <path d="M3.45 -3.8 L3.6 -3.8 3.7 -3.85 3.65 -3.8 4.2 -3.75 4.2 -3.8 Q5.05 -4.2 5.45 -3.95 5.95 -3.85 6.15 -3.75 6.3 -3.7 6.45 -3.6 6.55 -3.55 6.9 -3.45 7.15 -3.35 7.2 -3.25 7.3 -3.1 7.3 -2.7 L7.3 -2.3 7.4 -1.85 Q7.55 -1.2 7.55 -0.9 7.55 -0.7 7.5 -0.6 L6.75 -0.45 6.65 -0.3 Q6.5 0.05 6.35 0.15 L6.2 0.15 6.05 0.1 Q5.15 0.2 4.65 0.35 4.3 0.55 4.1 0.65 L4.05 0.65 4.05 0.55 4.1 0.5 4.05 0.5 Q4.0 0.5 4.0 0.4 L4.0 0.35 3.95 0.4 3.95 0.3 Q3.95 0.15 4.1 0.05 4.3 -0.1 4.35 -0.3 4.35 -0.4 4.35 -0.45 4.4 -0.5 4.7 -0.6 4.8 -0.6 5.05 -0.7 L5.35 -0.8 Q5.5 -0.8 5.75 -0.65 6.0 -0.55 6.1 -0.55 L6.35 -0.6 6.6 -0.85 Q6.7 -0.9 6.75 -0.95 7.05 -1.65 7.05 -1.95 7.05 -2.25 6.5 -2.8 5.95 -3.35 5.5 -3.5 5.1 -3.55 4.6 -3.65 L4.25 -3.7 3.9 -3.5 Q3.2 -3.1 3.0 -2.65 L2.95 -2.65 2.85 -2.4 Q2.8 -2.25 2.55 -2.15 L2.55 -2.1 Q2.45 -1.75 2.25 -1.5 L0.95 -1.15 Q-0.2 -0.85 -0.3 -0.75 -0.85 -0.85 -1.25 -1.1 L-1.55 -1.35 Q-1.7 -1.45 -1.85 -1.5 -2.0 -1.6 -2.45 -1.9 -3.0 -2.25 -3.0 -2.4 L-3.2 -2.65 -3.65 -3.15 Q-3.75 -3.2 -4.3 -3.6 L-4.55 -3.8 -4.8 -3.85 -5.8 -3.85 Q-6.5 -3.85 -7.15 -3.7 L-7.6 -3.55 -7.65 -3.4 Q-7.8 -3.0 -7.8 -2.9 L-7.85 -2.8 Q-7.8 -2.6 -7.6 -2.35 L-7.55 -2.35 -7.35 -2.25 Q-6.9 -2.1 -6.4 -1.8 L-5.4 -1.15 -5.35 -1.05 -5.1 -1.0 Q-4.6 -0.8 -4.15 -0.75 L-4.0 -0.7 Q-4.0 -0.35 -3.7 0.0 -3.45 0.3 -3.1 0.55 L-3.0 0.55 -2.85 0.7 -2.9 0.7 -2.95 0.65 -3.05 0.65 Q-3.2 0.6 -3.35 0.55 L-4.4 0.5 -4.6 0.35 Q-4.65 0.3 -4.7 0.3 L-4.6 0.4 -4.9 0.15 -5.0 0.0 Q-5.2 -0.25 -5.5 -0.35 L-5.75 -0.45 Q-5.45 -0.4 -5.2 -0.3 L-6.0 -1.05 Q-6.35 -1.1 -6.6 -1.4 L-7.1 -1.9 -7.35 -2.1 -7.85 -2.3 Q-8.1 -2.4 -8.2 -2.6 -8.2 -2.65 -8.25 -2.9 -8.25 -3.15 -8.25 -3.3 L-8.45 -3.6 -8.7 -3.25 Q-9.0 -2.9 -9.0 -2.85 -9.0 -2.75 -8.55 -2.4 -8.05 -1.95 -8.0 -1.9 L-7.8 -1.45 Q-7.7 -1.1 -7.45 -0.9 L-7.35 -1.0 -7.0 -0.95 Q-7.2 -0.95 -7.25 -0.9 -7.35 -0.85 -7.4 -0.85 -7.7 -0.85 -7.9 -1.3 -8.0 -1.55 -8.1 -1.9 -8.1 -1.95 -8.6 -2.4 -9.1 -2.8 -9.1 -2.85 -9.1 -2.95 -8.9 -3.15 L-8.7 -3.4 -8.5 -3.7 Q-8.5 -3.95 -7.7 -4.3 -7.2 -4.5 -6.9 -4.6 L-6.85 -4.65 Q-6.55 -4.8 -6.2 -4.9 -5.85 -5.0 -5.6 -4.8 L-5.4 -4.55 Q-5.3 -4.4 -5.2 -4.35 -5.05 -4.25 -4.75 -4.0 L-4.65 -3.9 -4.5 -3.85 -4.15 -3.7 Q-3.9 -3.6 -3.75 -3.5 -3.55 -3.4 -3.2 -3.35 -3.2 -3.4 -3.1 -3.45 L-2.4 -3.5 Q-2.25 -3.5 -2.0 -3.4 -1.8 -3.35 -1.7 -3.25 L-2.2 -3.45 -3.2 -3.35 -3.4 -3.4 -3.8 -3.4 -4.0 -3.55 -4.25 -3.65 -4.15 -3.6 Q-3.65 -3.35 -3.3 -2.8 L-3.0 -2.45 -3.0 -2.5 -2.95 -2.55 Q-2.85 -2.4 -2.65 -2.15 -2.4 -2.05 -2.15 -1.9 L-1.85 -1.7 Q-1.45 -1.5 -1.35 -1.45 L-0.3 -1.45 Q0.35 -1.5 0.8 -1.75 L1.05 -1.95 Q1.2 -2.05 1.35 -2.05 2.2 -2.15 2.5 -2.2 L2.5 -2.25 Q2.2 -2.2 1.25 -2.15 L0.7 -2.1 0.15 -2.15 -0.05 -2.15 Q-0.65 -2.65 -0.95 -2.8 -1.35 -3.05 -2.15 -3.3 L-1.85 -3.3 Q-1.8 -3.25 -1.6 -3.2 L-1.4 -3.1 Q-1.05 -2.9 -0.6 -2.65 -0.15 -2.35 0.2 -2.15 L0.5 -2.2 0.75 -2.2 1.05 -2.25 1.35 -2.25 Q2.3 -2.2 2.5 -2.35 L2.55 -2.45 2.6 -2.8 Q2.65 -3.15 2.7 -3.25 2.8 -3.5 3.35 -3.7 L3.45 -3.8 M4.1 -3.75 L3.6 -3.75 Q3.5 -3.65 3.35 -3.6 3.2 -3.4 3.1 -3.05 L3.0 -2.8 Q3.45 -3.4 4.15 -3.75 L4.1 -3.75 M4.3 -3.75 L4.7 -3.7 Q5.4 -3.6 5.7 -3.5 L5.65 -3.6 5.7 -3.65 5.85 -3.45 6.2 -3.25 6.4 -3.1 6.4 -3.05 7.15 -2.65 7.25 -2.55 7.25 -3.05 Q7.2 -3.2 7.1 -3.3 L6.35 -3.65 Q5.95 -3.8 5.4 -3.9 4.9 -4.0 4.3 -3.75 M5.1 -0.6 Q4.8 -0.5 4.5 -0.45 L4.3 -0.1 4.05 0.35 4.25 0.35 4.7 0.1 Q5.1 -0.15 5.3 -0.2 L5.7 -0.25 Q6.1 -0.3 6.25 -0.35 L6.55 -0.45 6.65 -0.75 6.6 -0.7 6.35 -0.5 6.1 -0.5 5.45 -0.7 Q5.3 -0.7 5.1 -0.6 M-7.4 -4.05 L-7.5 -3.85 -7.55 -3.7 -7.4 -4.0 -7.5 -3.75 Q-7.35 -3.8 -7.1 -3.8 L-6.7 -3.85 Q-6.45 -3.85 -6.25 -3.9 L-5.0 -3.9 -4.7 -3.85 -4.75 -3.9 -5.95 -4.5 -6.0 -4.5 -6.45 -4.6 Q-6.7 -4.55 -7.0 -4.45 L-7.0 -4.4 Q-7.2 -4.25 -7.4 -4.05 M-7.65 -3.55 L-7.7 -3.35 -7.6 -3.55 -7.65 -3.55 M-5.85 -0.5 L-6.3 -0.65 -6.95 -0.9 Q-6.2 -0.75 -5.85 -0.5 M-5.3 -0.95 L-5.05 -0.4 -4.95 -0.15 Q-4.5 0.35 -4.35 0.45 L-3.4 0.5 -3.2 0.55 -3.3 0.45 Q-3.65 0.2 -3.8 0.1 -3.9 -0.05 -4.0 -0.25 -4.1 -0.55 -4.05 -0.65 -4.25 -0.75 -4.9 -0.85 L-5.3 -0.95" fill="#ffffff" fill-rule="evenodd" stroke="none"/>
    </g>
    <g id="shape1" transform="matrix(1.0, 0.0, 0.0, 1.0, 8.4, 16.1)">
      <path d="M1.8 -14.1 L1.9 -13.75 2.0 -13.5 2.55 -13.4 3.3 -13.15 3.4 -13.15 Q3.55 -13.15 3.55 -12.85 3.55 -12.45 3.15 -12.1 2.7 -11.8 2.6 -11.55 L3.2 -12.1 4.75 -13.5 Q4.7 -13.75 4.35 -14.5 3.95 -15.4 3.8 -15.75 L3.55 -15.7 3.45 -15.55 Q3.3 -15.35 1.65 -15.2 1.45 -14.9 0.95 -14.4 L0.5 -13.85 Q1.05 -14.1 1.7 -14.15 L1.75 -14.15 1.8 -14.1 M1.15 -15.1 L1.4 -15.5 Q1.45 -15.6 1.8 -15.6 L2.85 -15.65 Q2.9 -15.65 3.2 -15.85 L3.6 -16.1 3.65 -16.1 Q4.2 -16.0 4.35 -15.5 4.45 -14.95 4.5 -14.75 L4.8 -14.1 Q5.1 -13.55 5.1 -13.4 5.1 -13.15 4.3 -12.5 L3.4 -11.85 2.55 -11.1 2.45 -10.95 2.4 -10.8 2.35 -10.0 2.35 -9.95 2.3 -9.95 Q2.25 -9.9 2.15 -9.85 L2.1 -9.85 2.1 -9.9 Q1.95 -9.95 1.7 -10.05 1.65 -10.05 1.6 -10.1 L1.45 -10.2 Q0.9 -10.2 0.8 -10.1 L0.7 -10.0 Q0.65 -9.85 0.45 -9.8 L0.15 -9.8 Q0.05 -9.8 0.05 -10.1 0.05 -10.3 0.2 -10.55 L0.2 -10.5 Q0.35 -10.75 0.55 -10.75 L1.45 -10.65 1.7 -10.6 2.05 -11.0 Q2.1 -11.3 2.15 -11.55 2.4 -12.3 3.1 -12.8 L3.05 -12.85 2.45 -13.0 1.75 -13.2 1.7 -13.2 1.7 -13.25 Q1.55 -13.65 1.5 -13.8 0.45 -13.55 -0.3 -13.2 -0.7 -12.95 -1.4 -12.45 -2.65 -11.5 -4.5 -11.05 L-4.5 -11.0 -4.55 -11.0 -4.6 -10.95 -4.8 -10.95 Q-4.95 -10.3 -5.2 -10.05 -5.65 -9.55 -7.0 -9.75 L-7.3 -9.55 -7.15 -9.35 -7.05 -9.25 -6.65 -8.95 -6.6 -8.95 -6.6 -8.9 -6.45 -8.9 -5.7 -8.8 -5.65 -8.75 -5.5 -8.65 Q-5.35 -8.6 -5.35 -8.5 L-5.35 -8.35 -5.4 -8.3 -5.45 -8.3 Q-5.7 -8.45 -6.2 -8.65 L-6.6 -8.55 Q-6.75 -8.5 -6.8 -8.45 L-6.85 -8.4 -6.9 -8.45 -7.1 -8.7 -7.35 -8.95 -7.7 -9.35 -8.2 -9.45 -8.25 -9.45 -8.35 -9.55 -8.35 -9.6 Q-8.4 -9.65 -8.4 -9.9 -8.4 -10.25 -7.95 -11.0 L-7.3 -11.95 -7.25 -12.0 -7.0 -11.8 Q-6.85 -11.65 -6.4 -11.6 L-6.35 -11.6 Q-6.25 -11.5 -5.45 -11.35 L-5.05 -11.3 -5.05 -11.35 -5.0 -11.35 Q-3.25 -11.7 -1.45 -12.85 L-0.65 -13.35 -0.25 -13.7 -0.15 -13.85 0.25 -14.2 1.15 -15.1 M-5.2 -10.95 Q-5.8 -10.95 -6.5 -11.3 -6.85 -11.45 -7.1 -11.6 -7.25 -11.3 -7.6 -10.75 L-8.1 -9.85 -8.05 -9.75 -8.0 -9.7 -7.6 -9.65 Q-7.6 -9.85 -7.3 -9.9 L-6.05 -10.0 Q-5.55 -10.05 -5.35 -10.5 L-5.2 -10.95" fill="#00ffff" fill-opacity="0.5019608" fill-rule="evenodd" stroke="none"/>
      <path d="M0.9 -14.45 Q0.5 -13.95 0.2 -13.7 0.9 -14.0 1.7 -14.1 L1.8 -13.75 1.95 -13.45 2.5 -13.3 3.25 -13.1 3.4 -13.05 Q3.45 -13.05 3.45 -12.85 3.45 -12.5 3.1 -12.2 2.6 -11.8 2.5 -11.5 L2.45 -11.25 3.2 -12.05 4.8 -13.45 Q4.8 -13.7 4.4 -14.55 3.95 -15.55 3.85 -15.85 3.55 -15.8 3.5 -15.75 L3.4 -15.6 Q3.25 -15.4 1.6 -15.3 1.4 -15.0 0.9 -14.45 M1.8 -15.5 L2.85 -15.55 Q2.95 -15.55 3.25 -15.8 L3.65 -16.05 Q4.15 -15.95 4.3 -15.5 4.35 -14.95 4.4 -14.75 4.45 -14.65 4.75 -14.1 5.0 -13.55 5.0 -13.4 5.0 -13.15 4.25 -12.6 L3.35 -11.9 2.45 -11.15 2.35 -11.0 2.35 -10.8 2.3 -10.05 2.2 -10.05 2.25 -10.0 Q2.2 -9.95 2.15 -9.95 2.0 -10.0 1.7 -10.15 L1.65 -10.15 1.45 -10.25 Q0.85 -10.3 0.75 -10.15 L0.65 -10.0 Q0.6 -9.95 0.4 -9.9 L0.15 -9.9 Q0.1 -9.9 0.1 -10.1 0.1 -10.3 0.25 -10.5 0.4 -10.7 0.55 -10.7 L1.4 -10.55 1.7 -10.5 2.1 -10.95 Q2.15 -11.25 2.2 -11.5 2.45 -12.25 3.2 -12.8 L3.1 -12.9 2.45 -13.05 1.75 -13.25 Q1.6 -13.8 1.6 -13.9 0.45 -13.65 -0.3 -13.25 -0.75 -13.05 -1.45 -12.5 -2.7 -11.55 -4.6 -11.1 L-4.6 -11.05 -4.85 -11.0 Q-5.05 -10.35 -5.25 -10.1 -5.7 -9.65 -7.05 -9.8 L-7.2 -9.7 -7.35 -9.55 -7.2 -9.3 -7.1 -9.2 Q-6.75 -8.95 -6.65 -8.9 L-6.65 -8.8 -6.45 -8.8 -5.7 -8.75 -5.55 -8.6 -5.4 -8.5 -5.45 -8.4 Q-5.65 -8.5 -6.15 -8.75 L-6.65 -8.6 -6.85 -8.5 -7.05 -8.75 -7.3 -9.0 -7.65 -9.45 -8.2 -9.5 -8.3 -9.6 Q-8.35 -9.7 -8.35 -9.9 -8.35 -10.25 -7.9 -10.95 L-7.25 -11.9 -7.0 -11.75 Q-6.9 -11.6 -6.4 -11.55 -6.25 -11.45 -5.45 -11.3 L-5.0 -11.2 -5.0 -11.3 Q-3.2 -11.6 -1.4 -12.8 L-0.6 -13.3 0.3 -14.2 Q1.0 -14.8 1.2 -15.05 L1.45 -15.45 Q1.5 -15.55 1.8 -15.5 M-5.1 -11.0 L-5.2 -11.0 Q-5.8 -11.0 -6.5 -11.35 L-7.15 -11.7 Q-7.3 -11.4 -7.65 -10.75 L-8.2 -9.85 -8.1 -9.7 -8.05 -9.65 -7.55 -9.55 -7.5 -9.55 -7.55 -9.65 Q-7.55 -9.8 -7.3 -9.85 L-6.05 -9.9 Q-5.5 -10.0 -5.3 -10.5 L-5.1 -11.0" fill="#ffffff" fill-rule="evenodd" stroke="none"/>
    </g>
    <g id="shape2" transform="matrix(1.0, 0.0, 0.0, 1.0, 18.35, 11.15)">
      <path d="M7.2 -10.6 L7.45 -11.05 7.5 -11.1 8.75 -11.1 8.95 -11.0 9.05 -11.05 9.1 -11.05 9.2 -10.95 9.25 -10.85 9.25 -10.7 9.15 -10.65 Q8.85 -10.5 8.6 -10.35 8.25 -10.15 7.55 -9.3 L6.55 -8.1 6.2 -7.15 Q6.4 -6.55 6.55 -6.25 6.8 -5.65 7.2 -5.35 L7.35 -5.3 7.4 -5.3 8.5 -5.25 8.6 -5.2 9.0 -4.7 Q9.25 -4.45 9.25 -4.15 9.25 -3.65 8.8 -2.5 L8.8 -2.4 8.75 -2.35 8.25 -1.2 Q8.15 -0.85 7.8 -0.55 7.6 -0.4 7.05 -0.1 L6.65 0.1 Q6.6 0.25 6.55 0.45 6.4 1.05 6.15 1.1 L6.1 1.1 5.8 1.0 Q5.75 1.0 5.7 0.95 L5.65 0.85 Q5.65 0.75 5.8 0.7 L6.05 0.6 6.15 0.3 Q5.55 0.5 4.85 0.55 L2.6 0.65 Q1.2 0.45 0.95 0.35 L0.15 0.3 0.1 0.3 -0.5 1.45 Q-0.85 2.25 -1.0 2.75 -1.25 3.6 -1.5 4.35 L-1.55 4.35 Q-1.9 5.35 -2.1 5.5 -4.1 7.5 -4.85 8.0 L-6.35 9.0 -4.5 8.95 Q-3.2 8.0 -2.05 7.1 0.25 5.35 0.25 5.1 L0.2 4.6 Q0.1 4.15 0.1 4.0 0.1 3.85 0.3 3.4 0.45 3.1 0.6 2.95 L0.6 2.9 0.65 2.9 Q0.75 2.7 0.95 2.65 L1.05 2.4 1.1 2.1 Q1.1 2.05 1.1 2.0 1.15 1.95 1.2 1.95 L1.3 1.95 1.4 2.05 Q1.4 2.15 1.4 2.45 1.4 2.85 1.35 2.9 1.25 3.0 0.75 3.15 L0.6 3.55 0.45 4.05 Q0.45 4.15 0.55 4.55 L0.6 5.1 Q0.65 5.7 -1.55 7.25 L-1.55 7.3 Q-2.4 7.8 -3.15 8.45 -3.6 8.8 -4.3 9.4 L-4.4 9.45 -6.2 9.45 -7.0 9.4 Q-7.8 9.9 -7.8 9.85 -8.05 9.85 -8.15 9.75 L-8.3 9.6 Q-8.6 9.4 -9.45 9.45 L-9.55 9.4 -9.8 9.25 -9.9 9.15 -10.85 9.2 Q-10.9 9.25 -10.95 9.25 -12.1 9.35 -12.45 9.65 L-12.65 9.85 Q-12.75 10.0 -12.9 10.0 L-12.95 10.05 -13.0 10.0 -13.15 10.15 -13.55 10.5 -13.65 10.5 -14.1 10.35 -14.35 10.3 -15.7 11.2 -16.5 11.7 -16.5 12.05 Q-16.45 12.4 -17.15 12.85 L-18.0 13.45 -18.1 13.45 Q-18.3 13.4 -18.35 13.3 L-18.35 13.1 Q-18.25 12.95 -17.8 12.7 L-17.25 12.3 Q-16.8 11.9 -16.9 11.5 L-16.9 11.4 -16.85 11.35 -15.8 10.65 Q-15.2 10.3 -14.55 9.9 L-14.5 9.9 -13.9 10.05 -13.75 10.05 -13.35 9.7 -13.3 9.7 -13.3 9.65 Q-12.15 8.6 -11.7 8.3 L-11.65 8.25 -11.65 8.15 Q-11.3 7.5 -11.05 6.75 L-11.05 6.7 Q-10.95 6.35 -10.45 6.0 L-10.45 5.95 -9.55 5.3 -7.85 3.9 Q-7.0 3.2 -5.85 3.05 L-5.75 3.05 Q-5.5 3.2 -5.1 3.65 -4.65 4.15 -4.65 4.4 L-4.7 4.45 -5.3 6.85 -5.25 6.9 Q-5.05 6.75 -4.8 6.85 L-4.55 6.75 -3.7 6.3 -3.15 5.8 Q-2.8 5.5 -2.6 5.45 L-2.45 5.2 Q-2.1 4.6 -1.3 2.5 -0.75 0.9 -0.15 0.05 L-0.1 0.05 -0.05 0.0 -0.1 0.0 Q-0.5 -0.35 -0.8 -0.85 L-1.15 -1.15 Q-1.65 -1.75 -1.85 -2.45 -2.45 -3.05 -2.45 -3.4 L-2.45 -3.5 -2.65 -3.75 Q-2.85 -4.05 -2.9 -4.3 L-3.45 -5.55 Q-3.8 -6.3 -4.15 -6.85 L-4.5 -7.15 -5.2 -7.1 Q-5.3 -7.05 -5.4 -6.65 L-5.5 -6.55 -5.6 -6.55 Q-5.9 -6.7 -5.95 -7.2 L-5.95 -7.9 -6.05 -8.25 -6.1 -8.3 -6.95 -9.55 -7.65 -10.5 Q-7.7 -10.5 -7.75 -10.65 L-7.8 -10.7 -7.8 -10.95 -7.75 -10.95 -7.7 -11.0 -7.65 -11.0 -7.65 -11.1 Q-7.6 -11.15 -7.55 -11.15 L-5.7 -11.15 -5.5 -11.1 -5.45 -11.05 Q-5.15 -10.75 -4.9 -10.3 L-4.5 -9.85 Q-4.1 -9.3 -3.75 -9.05 -3.4 -8.85 -2.8 -8.25 -2.6 -8.1 -2.5 -7.8 L-2.4 -7.4 Q-2.25 -7.05 -2.0 -6.35 L-1.35 -5.7 Q-0.85 -5.2 -0.4 -5.05 L0.4 -5.0 Q1.55 -4.75 2.1 -4.25 2.3 -4.05 2.45 -3.9 2.65 -3.75 3.0 -3.6 L3.1 -3.55 3.55 -2.9 4.1 -3.0 4.85 -3.05 Q5.1 -3.35 5.65 -4.95 L5.6 -5.1 Q5.45 -5.25 5.45 -5.45 L5.45 -5.55 Q5.25 -5.85 5.25 -6.0 5.25 -6.1 5.35 -6.4 L5.35 -6.6 Q5.3 -6.85 5.3 -7.35 5.3 -8.0 5.35 -8.35 5.5 -9.05 6.0 -9.4 6.2 -9.6 6.9 -10.3 L7.2 -10.6 M6.2 -8.95 Q5.65 -8.4 5.65 -7.35 L5.65 -7.25 5.7 -7.35 6.1 -8.3 6.55 -9.35 6.2 -8.95 M1.4 -4.3 Q1.15 -4.45 0.35 -4.6 L-0.05 -4.65 -0.1 -4.65 -0.55 -4.75 -0.5 -4.7 Q-1.15 -4.85 -1.55 -5.25 L-1.7 -5.45 Q-1.3 -4.25 -1.35 -4.05 -1.3 -4.0 -1.55 -3.6 L-1.75 -3.35 -1.7 -3.25 -1.5 -2.95 -1.5 -2.9 -1.55 -2.8 -1.35 -2.6 -1.35 -2.55 -1.15 -2.3 Q-1.05 -2.25 -0.95 -2.1 L-0.75 -1.7 -0.5 -1.35 0.0 -0.5 0.25 -0.15 0.3 -0.15 2.05 0.2 2.6 0.15 2.7 0.1 4.95 -0.1 Q6.55 -0.35 7.05 -0.65 L7.6 -1.05 Q7.95 -1.4 8.0 -1.6 L8.4 -2.65 8.25 -3.1 Q8.1 -3.55 7.85 -3.8 L7.55 -3.85 Q7.55 -3.7 7.45 -3.65 L7.15 -3.65 Q7.1 -3.65 7.05 -3.7 6.65 -4.05 6.3 -4.7 L6.1 -5.0 6.0 -5.1 6.05 -4.9 Q6.05 -4.85 5.85 -4.25 L5.7 -3.55 Q5.6 -2.75 4.95 -2.6 L4.9 -2.6 Q4.3 -2.6 4.1 -2.5 L4.05 -2.45 3.35 -2.5 3.3 -2.5 3.25 -2.55 3.05 -2.95 2.85 -3.2 2.6 -3.25 Q2.55 -3.25 2.55 -3.3 L2.15 -3.6 2.2 -3.6 Q1.9 -3.85 1.8 -4.0 L1.4 -4.3 M7.9 -4.75 L7.45 -4.7 7.4 -4.7 6.9 -4.6 6.85 -4.6 Q7.1 -4.25 7.35 -4.3 L7.95 -4.3 8.0 -4.25 Q8.3 -4.05 8.6 -3.4 L8.65 -3.3 8.9 -4.1 8.85 -4.25 Q8.75 -4.25 8.5 -4.55 L8.25 -4.65 7.95 -4.75 7.9 -4.75 M6.4 -4.8 L6.6 -4.65 Q6.7 -4.6 6.8 -4.6 L6.85 -4.6 6.65 -4.8 6.55 -5.0 6.55 -4.95 6.55 -5.05 6.35 -4.8 6.4 -4.8 M4.75 1.5 L4.65 1.55 Q3.6 1.5 3.25 1.55 L3.25 1.6 3.15 1.6 2.65 1.5 2.25 1.4 2.15 1.45 1.9 1.65 1.8 1.7 Q1.8 1.65 1.75 1.65 L1.7 1.55 1.75 1.45 Q1.85 1.2 1.9 1.15 2.05 0.85 2.25 0.9 L2.3 0.9 Q2.45 1.0 2.55 1.05 L2.95 1.05 3.5 1.1 Q3.95 1.1 4.7 1.1 L4.75 1.1 4.8 1.2 4.8 1.4 4.75 1.5 M-4.9 -8.3 Q-5.1 -8.9 -5.3 -9.05 -6.25 -10.0 -6.9 -10.35 L-6.5 -9.8 -6.25 -9.4 Q-6.2 -9.45 -6.15 -9.4 L-6.05 -9.35 -6.0 -9.3 Q-5.65 -8.95 -5.55 -8.2 L-5.5 -7.45 -5.3 -7.6 -5.2 -7.65 -4.6 -7.55 Q-4.8 -7.85 -4.9 -8.3 M-4.25 -8.95 Q-4.15 -8.6 -3.8 -8.0 L-3.15 -7.1 -3.2 -7.1 -2.8 -6.6 Q-2.5 -6.15 -2.45 -6.0 -2.45 -5.75 -2.45 -5.45 L-2.55 -4.95 -2.55 -4.75 Q-2.5 -4.55 -2.4 -4.25 L-2.3 -4.1 -2.05 -3.7 -1.9 -3.9 -1.7 -4.15 Q-1.8 -4.4 -2.2 -5.7 -2.7 -7.05 -2.85 -7.35 -3.05 -7.8 -4.15 -8.9 L-4.25 -9.0 -4.25 -8.95 M-7.55 -10.85 L-7.5 -10.65 -7.45 -10.8 -7.55 -10.85 M-3.85 -4.25 L-3.75 -4.35 -3.65 -4.3 -3.6 -4.25 -3.6 -4.05 Q-3.6 -3.65 -3.8 -3.4 L-3.8 -3.35 Q-4.05 -3.1 -4.2 -3.2 L-4.3 -3.25 Q-4.5 -2.75 -4.6 -2.25 -4.6 -2.1 -4.9 -1.1 -5.1 -0.4 -5.1 -0.1 -5.1 0.1 -4.85 0.3 -4.4 0.65 -4.35 0.75 -4.25 0.9 -4.15 1.25 L-4.0 1.75 Q-3.95 1.75 -3.95 1.8 L-4.0 1.9 -4.05 1.95 -4.1 1.95 Q-4.25 1.95 -4.45 1.45 -4.6 1.0 -4.65 0.95 L-4.9 0.8 Q-5.1 0.7 -5.2 0.5 L-5.35 0.25 Q-5.45 0.1 -5.45 -0.15 -5.45 -0.45 -4.9 -2.45 -4.85 -2.6 -4.8 -2.95 L-4.8 -3.0 Q-4.75 -3.4 -4.55 -3.65 L-4.45 -3.7 Q-4.05 -3.75 -3.95 -3.9 -3.9 -4.05 -3.85 -4.25 M-0.95 -1.35 L-1.05 -1.25 -1.0 -1.2 -0.95 -1.35 M-4.05 2.2 Q-3.8 2.6 -3.8 3.05 -3.8 3.2 -3.95 3.5 L-4.05 3.7 Q-4.05 3.85 -3.9 4.25 -3.8 4.7 -3.8 4.75 L-3.8 5.1 -3.85 5.1 -4.0 5.25 -4.05 5.25 -4.3 5.2 -4.35 5.2 Q-4.45 5.1 -4.4 5.0 L-4.35 4.9 -4.2 4.85 -4.15 4.8 Q-4.15 4.65 -4.25 4.3 L-4.4 3.75 Q-4.4 3.55 -4.25 3.3 -4.15 3.1 -4.15 3.0 -4.15 2.85 -4.15 2.75 L-4.3 2.4 -4.3 2.3 -4.25 2.25 -4.25 2.2 Q-4.2 2.15 -4.15 2.15 L-4.1 2.15 -4.05 2.2 M-9.55 5.8 Q-10.35 6.25 -10.65 6.95 L-10.95 7.6 -11.1 7.9 -10.65 7.65 -10.6 7.65 -10.5 7.7 Q-10.5 7.75 -10.5 7.8 L-10.4 7.8 Q-10.35 7.8 -10.35 7.85 L-10.3 7.9 -10.2 7.95 Q-9.7 8.15 -9.4 8.15 -8.05 8.15 -6.9 7.7 L-5.7 7.2 -5.75 7.15 Q-5.75 6.95 -5.6 6.45 -5.45 6.0 -5.45 5.75 L-5.45 5.7 Q-5.0 4.6 -5.0 4.45 -5.05 4.3 -5.35 3.9 -5.7 3.55 -5.85 3.45 -6.8 3.75 -7.85 4.5 -9.3 5.65 -9.55 5.8" fill="#ffffff" fill-opacity="0.5019608" fill-rule="evenodd" stroke="none"/>
      <path d="M7.3 -10.5 L7.55 -10.95 8.7 -10.95 8.95 -10.85 9.05 -10.9 9.15 -10.75 8.55 -10.5 Q8.2 -10.3 7.45 -9.4 L6.45 -8.2 6.45 -8.15 6.05 -7.2 Q6.25 -6.5 6.45 -6.2 6.75 -5.55 7.1 -5.15 L7.4 -5.15 8.5 -5.1 8.9 -4.6 Q9.1 -4.4 9.1 -4.15 9.1 -3.65 8.7 -2.55 L8.7 -2.45 8.65 -2.4 8.15 -1.25 Q8.0 -0.95 7.7 -0.7 7.5 -0.55 7.0 -0.25 6.8 -0.1 6.6 0.0 6.5 0.15 6.4 0.4 6.3 0.9 6.1 0.95 L5.8 0.85 5.85 0.8 6.1 0.75 Q6.2 0.6 6.3 0.1 5.65 0.3 4.85 0.4 L2.6 0.5 Q1.1 0.3 1.0 0.2 L0.15 0.15 0.05 0.15 0.3 0.0 2.05 0.35 2.7 0.25 4.95 0.05 Q6.6 -0.2 7.1 -0.5 7.35 -0.65 7.65 -0.95 8.05 -1.3 8.15 -1.55 L8.55 -2.65 8.4 -3.15 Q8.2 -3.65 7.9 -3.95 7.4 -4.0 7.4 -3.95 L7.4 -3.9 Q7.45 -3.8 7.4 -3.8 L7.15 -3.8 Q6.75 -4.15 6.4 -4.8 L6.2 -5.1 6.0 -5.25 5.75 -5.5 Q5.75 -5.35 5.8 -5.2 5.9 -5.05 5.9 -4.9 L5.75 -4.3 Q5.6 -3.75 5.55 -3.6 5.5 -2.9 4.9 -2.75 4.25 -2.75 4.05 -2.65 L3.35 -2.65 3.15 -3.05 2.9 -3.35 2.65 -3.4 2.25 -3.75 Q1.95 -4.0 1.95 -4.1 L1.5 -4.4 Q1.25 -4.6 0.35 -4.75 L-0.05 -4.8 -0.5 -4.85 Q-1.05 -5.0 -1.45 -5.4 L-2.05 -6.0 -1.9 -5.6 Q-1.45 -4.25 -1.45 -4.05 L-1.85 -3.35 -1.8 -3.15 -1.65 -2.9 -1.8 -2.85 -1.4 -2.45 -1.25 -2.2 -1.05 -2.0 -0.85 -1.6 -0.6 -1.25 -0.1 -0.4 0.2 0.0 0.0 -0.2 -0.05 -0.15 Q-0.4 -0.45 -0.75 -0.95 L-1.05 -1.25 Q-1.55 -1.85 -1.75 -2.55 -2.3 -3.1 -2.35 -3.4 L-2.3 -3.5 -2.15 -3.25 -2.55 -3.85 Q-2.7 -4.15 -2.8 -4.4 L-3.35 -5.6 Q-3.7 -6.4 -4.05 -6.95 L-4.5 -7.3 -5.25 -7.3 Q-5.4 -7.2 -5.55 -6.7 -5.75 -6.8 -5.8 -7.2 L-5.8 -7.9 Q-5.8 -8.05 -5.95 -8.45 L-6.0 -8.4 -6.85 -9.65 -7.6 -10.7 -7.65 -10.75 -7.7 -10.75 -7.7 -10.85 -7.65 -10.85 Q-7.65 -11.0 -7.6 -11.0 L-5.75 -11.0 -5.5 -10.95 Q-5.25 -10.6 -4.95 -10.2 L-4.6 -9.75 Q-4.2 -9.2 -3.8 -8.95 -3.45 -8.7 -2.85 -8.15 -2.7 -8.0 -2.6 -7.75 L-2.5 -7.35 -2.1 -6.25 -1.4 -5.55 Q-0.9 -5.05 -0.4 -4.9 L0.35 -4.85 Q1.5 -4.6 2.0 -4.15 L2.35 -3.8 Q2.6 -3.6 3.0 -3.45 L3.45 -2.75 4.1 -2.85 4.9 -2.9 Q5.15 -3.15 5.8 -4.95 5.8 -5.05 5.7 -5.2 5.6 -5.3 5.6 -5.45 L5.6 -5.65 Q5.4 -5.85 5.4 -6.0 5.4 -6.1 5.5 -6.4 L5.45 -6.65 Q5.4 -6.9 5.4 -7.35 5.4 -8.0 5.5 -8.3 5.6 -8.95 6.05 -9.25 6.3 -9.45 7.0 -10.2 L7.3 -10.5 M6.8 -9.8 L6.1 -9.1 Q5.5 -8.45 5.5 -7.35 L5.5 -6.65 5.55 -6.55 5.6 -6.75 5.6 -6.8 Q5.6 -6.9 5.8 -7.25 L6.2 -8.25 Q6.65 -9.25 7.0 -9.95 L6.8 -9.8 M7.9 -4.9 L7.4 -4.85 6.85 -4.75 Q6.7 -4.75 6.4 -4.95 L6.55 -4.7 Q7.0 -4.0 7.4 -4.15 L7.95 -4.15 Q8.25 -3.95 8.5 -3.35 L8.65 -2.9 8.65 -2.95 9.05 -4.1 Q9.05 -4.3 8.95 -4.35 L8.95 -4.4 8.85 -4.4 Q8.8 -4.4 8.55 -4.65 L8.3 -4.8 8.0 -4.9 7.9 -4.9 M6.6 -5.1 L6.55 -5.1 6.6 -5.05 6.6 -5.1 M4.65 1.4 Q3.35 1.35 3.1 1.4 3.05 1.4 3.1 1.45 L3.15 1.45 2.65 1.35 2.25 1.25 Q2.15 1.25 2.05 1.35 L1.85 1.55 2.0 1.2 Q2.1 1.05 2.25 1.05 2.4 1.2 2.55 1.2 L2.95 1.2 3.45 1.25 Q3.95 1.25 4.7 1.25 L4.65 1.4 M0.7 3.0 Q0.85 2.85 1.0 2.8 1.1 2.6 1.15 2.45 1.2 2.3 1.2 2.1 L1.3 2.1 1.3 2.45 1.25 2.75 Q1.2 2.9 0.7 3.0 M0.5 3.5 L0.3 4.05 Q0.3 4.2 0.4 4.6 L0.5 5.1 Q0.5 5.65 -1.6 7.15 -2.45 7.7 -3.25 8.3 -3.7 8.65 -4.4 9.3 L-6.2 9.3 -7.05 9.25 -7.8 9.7 Q-8.0 9.7 -8.1 9.65 L-8.25 9.45 Q-8.5 9.25 -9.45 9.3 L-9.75 9.1 -9.8 9.0 -10.95 9.1 Q-12.15 9.2 -12.5 9.5 -12.6 9.6 -12.75 9.75 L-12.95 9.9 -13.0 9.85 -13.25 10.0 -13.65 10.35 -14.05 10.25 -14.35 10.15 -15.8 11.1 -16.6 11.55 Q-16.6 11.6 -16.6 12.05 -16.6 12.35 -17.2 12.75 L-18.05 13.3 Q-18.2 13.3 -18.25 13.2 -18.15 13.05 -17.75 12.85 L-17.15 12.45 Q-16.65 11.95 -16.75 11.45 L-15.75 10.75 Q-15.15 10.4 -14.5 10.05 L-13.95 10.2 -13.7 10.2 Q-13.6 10.05 -13.3 9.85 L-13.2 9.8 -13.2 9.75 Q-12.1 8.75 -11.65 8.4 -11.15 8.05 -10.6 7.8 L-10.55 7.9 -10.45 7.95 -10.5 8.0 -10.25 8.1 Q-9.75 8.3 -9.4 8.3 -8.05 8.3 -6.85 7.85 L-5.45 7.25 -5.45 7.2 Q-5.5 7.15 -5.6 7.1 -5.6 6.95 -5.5 6.5 -5.35 6.0 -5.35 5.75 -4.9 4.6 -4.9 4.45 -4.9 4.25 -5.3 3.8 -5.65 3.35 -5.85 3.3 -6.85 3.55 -7.9 4.4 -9.35 5.5 -9.6 5.65 -10.45 6.15 -10.8 6.85 L-11.05 7.55 Q-11.25 7.95 -11.5 8.3 L-11.55 8.25 Q-11.2 7.6 -10.95 6.8 -10.8 6.45 -10.4 6.1 L-9.45 5.45 Q-8.3 4.4 -7.8 4.0 -6.95 3.35 -5.8 3.2 -5.55 3.35 -5.2 3.75 -4.8 4.2 -4.8 4.4 L-5.1 5.6 Q-5.45 6.8 -5.45 6.9 L-5.3 7.1 Q-5.05 6.9 -4.8 7.0 L-4.8 7.05 -4.5 6.85 Q-3.9 6.6 -3.65 6.4 L-3.1 5.95 Q-2.75 5.65 -2.55 5.55 L-2.35 5.3 Q-2.0 4.7 -1.2 2.55 -0.65 1.0 -0.05 0.15 L0.05 0.15 -0.6 1.4 Q-0.95 2.2 -1.1 2.7 -1.35 3.55 -1.65 4.3 -2.0 5.2 -2.2 5.4 -4.2 7.4 -4.9 7.85 L-6.9 9.15 -4.45 9.1 Q-3.15 8.15 -1.95 7.25 0.4 5.4 0.4 5.1 L0.3 4.55 Q0.2 4.15 0.2 4.0 0.2 3.85 0.4 3.45 0.55 3.2 0.65 3.05 L0.5 3.5 M-3.9 -7.95 L-3.3 -7.0 -2.9 -6.5 Q-2.6 -6.1 -2.6 -5.95 -2.55 -5.75 -2.6 -5.45 L-2.65 -5.0 -2.65 -4.75 Q-2.65 -4.5 -2.5 -4.2 L-2.4 -4.0 -2.05 -3.45 Q-2.0 -3.6 -1.8 -3.8 L-1.6 -4.1 Q-1.6 -4.25 -2.1 -5.75 -2.6 -7.15 -2.75 -7.4 -2.95 -7.85 -4.05 -9.0 L-4.65 -9.65 Q-4.45 -9.25 -4.35 -8.95 -4.3 -8.55 -3.9 -7.95 M-7.5 -10.75 L-7.55 -10.75 -7.55 -10.7 -7.5 -10.75 M-6.6 -9.7 L-6.15 -9.05 -6.2 -9.1 Q-6.2 -9.35 -6.15 -9.2 L-6.1 -9.2 Q-5.8 -8.85 -5.7 -8.15 L-5.6 -7.2 -5.2 -7.5 Q-4.7 -7.45 -4.3 -7.3 L-4.4 -7.45 Q-4.6 -7.7 -4.8 -8.4 -5.0 -9.0 -5.2 -9.2 -6.5 -10.4 -7.15 -10.65 -7.0 -10.25 -6.6 -9.7 M-3.7 -4.05 Q-3.7 -3.7 -3.9 -3.45 -4.05 -3.3 -4.15 -3.35 L-4.35 -3.4 Q-4.6 -2.85 -4.7 -2.3 L-5.05 -1.2 Q-5.25 -0.4 -5.25 -0.1 -5.25 0.15 -4.9 0.4 -4.5 0.75 -4.45 0.85 -4.35 1.0 -4.25 1.3 L-4.1 1.8 Q-4.15 1.8 -4.3 1.35 -4.5 0.9 -4.6 0.8 L-4.8 0.7 Q-5.0 0.55 -5.1 0.4 L-5.25 0.15 Q-5.35 0.05 -5.35 -0.15 -5.35 -0.45 -4.75 -2.4 L-4.7 -2.95 Q-4.65 -3.3 -4.45 -3.55 -3.95 -3.6 -3.85 -3.85 -3.8 -3.95 -3.75 -4.2 L-3.7 -4.05 M-1.0 -1.35 L-1.0 -1.35 M-4.2 3.7 Q-4.2 3.85 -4.05 4.3 -3.9 4.7 -3.9 4.75 L-3.9 4.95 -4.05 5.1 -4.25 5.05 Q-4.3 5.05 -4.15 5.0 -4.0 4.9 -4.0 4.8 -4.0 4.65 -4.15 4.25 L-4.25 3.75 Q-4.25 3.6 -4.15 3.35 -4.0 3.1 -4.0 3.0 -4.0 2.85 -4.05 2.65 L-4.2 2.35 Q-4.15 2.35 -4.15 2.3 -3.9 2.65 -3.9 3.05 -3.9 3.2 -4.05 3.4 -4.2 3.65 -4.2 3.7" fill="#ffffff" fill-rule="evenodd" stroke="none"/>
    </g>
    <g id="shape3" transform="matrix(1.0, 0.0, 0.0, 1.0, 26.95, 24.55)">
      <path d="M16.8 -15.3 Q23.75 -9.0 23.75 0.0 23.75 9.0 16.8 15.3 9.85 21.65 0.0 21.65 -9.85 21.65 -16.8 15.3 -23.75 9.0 -23.75 0.0 -23.75 -9.0 -16.8 -15.3 -9.85 -21.65 0.0 -21.65 9.85 -21.65 16.8 -15.3 M18.75 -17.1 Q10.95 -24.15 0.0 -24.15 -10.95 -24.15 -18.75 -17.1 -26.5 -10.0 -26.5 0.0 -26.5 10.0 -18.75 17.1 -10.95 24.15 0.0 24.15 10.95 24.15 18.75 17.1 26.5 10.0 26.5 0.0 26.5 -10.0 18.75 -17.1 M15.55 -14.2 Q9.1 -20.05 0.0 -20.05 -9.1 -20.05 -15.55 -14.2 -22.0 -8.3 -22.0 0.0 -22.0 8.3 -15.55 14.2 -9.1 20.05 0.0 20.05 9.1 20.05 15.55 14.2 22.0 8.3 22.0 0.0 22.0 -8.3 15.55 -14.2 M19.05 -17.4 Q26.95 -10.15 26.95 0.0 26.95 10.15 19.05 17.4 11.15 24.55 0.0 24.55 -11.15 24.55 -19.05 17.4 -26.95 10.15 -26.95 0.0 -26.95 -10.15 -19.05 -17.4 -11.15 -24.55 0.0 -24.55 11.15 -24.55 19.05 -17.4" fill="#ffffff" fill-opacity="0.0" fill-rule="evenodd" stroke="none"/>
      <path d="M16.8 -15.3 Q9.85 -21.65 0.0 -21.65 -9.85 -21.65 -16.8 -15.3 -23.75 -9.0 -23.75 0.0 -23.75 9.0 -16.8 15.3 -9.85 21.65 0.0 21.65 9.85 21.65 16.8 15.3 23.75 9.0 23.75 0.0 23.75 -9.0 16.8 -15.3 M17.35 -15.8 Q24.5 -9.25 24.5 0.0 24.5 9.25 17.35 15.8 10.15 22.35 0.0 22.35 -10.15 22.35 -17.35 15.8 -24.5 9.25 -24.5 0.0 -24.5 -9.25 -17.35 -15.8 -10.15 -22.35 0.0 -22.35 10.15 -22.35 17.35 -15.8 M17.9 -16.3 Q10.5 -23.05 0.0 -23.05 -10.5 -23.05 -17.9 -16.3 -25.25 -9.55 -25.25 0.0 -25.25 9.55 -17.9 16.3 -10.5 23.05 0.0 23.05 10.5 23.05 17.9 16.3 25.25 9.55 25.25 0.0 25.25 -9.55 17.9 -16.3 M18.45 -16.8 Q26.0 -9.8 26.0 0.0 26.0 9.8 18.45 16.8 10.75 23.7 0.0 23.7 -10.75 23.7 -18.45 16.8 -26.0 9.8 -26.0 0.0 -26.0 -9.8 -18.45 -16.8 -10.75 -23.7 0.0 -23.7 10.75 -23.7 18.45 -16.8" fill="#ffffff" fill-opacity="0.0" fill-rule="evenodd" stroke="none"/>
      <path d="M17.35 -15.8 Q10.15 -22.35 0.0 -22.35 -10.15 -22.35 -17.35 -15.8 -24.5 -9.25 -24.5 0.0 -24.5 9.25 -17.35 15.8 -10.15 22.35 0.0 22.35 10.15 22.35 17.35 15.8 24.5 9.25 24.5 0.0 24.5 -9.25 17.35 -15.8 M17.9 -16.3 Q25.25 -9.55 25.25 0.0 25.25 9.55 17.9 16.3 10.5 23.05 0.0 23.05 -10.5 23.05 -17.9 16.3 -25.25 9.55 -25.25 0.0 -25.25 -9.55 -17.9 -16.3 -10.5 -23.05 0.0 -23.05 10.5 -23.05 17.9 -16.3" fill="#ffffff" fill-opacity="0.0" fill-rule="evenodd" stroke="none"/>
      <path d="M18.45 -16.8 Q10.75 -23.7 0.0 -23.7 -10.75 -23.7 -18.45 -16.8 -26.0 -9.8 -26.0 0.0 -26.0 9.8 -18.45 16.8 -10.75 23.7 0.0 23.7 10.75 23.7 18.45 16.8 26.0 9.8 26.0 0.0 26.0 -9.8 18.45 -16.8 M18.75 -17.1 Q26.5 -10.0 26.5 0.0 26.5 10.0 18.75 17.1 10.95 24.15 0.0 24.15 -10.95 24.15 -18.75 17.1 -26.5 10.0 -26.5 0.0 -26.5 -10.0 -18.75 -17.1 -10.95 -24.15 0.0 -24.15 10.95 -24.15 18.75 -17.1" fill="#ffffff" fill-opacity="0.0" fill-rule="evenodd" stroke="none"/>
    </g>
    <g id="shape4" transform="matrix(1.0, 0.0, 0.0, 1.0, 49.15, 42.95)">
      <path d="M6.35 -35.75 Q7.0 -35.35 7.45 -35.15 8.55 -34.65 10.1 -34.65 L10.75 -34.6 12.1 -34.5 12.2 -34.45 Q12.9 -33.95 13.45 -33.1 13.4 -33.3 13.35 -33.5 13.25 -34.15 13.25 -35.1 13.25 -35.65 12.9 -36.1 L12.15 -36.35 Q12.05 -36.3 12.0 -36.35 L11.9 -36.4 10.95 -36.35 10.5 -35.9 10.05 -35.5 9.95 -35.45 8.85 -35.5 Q8.45 -35.55 8.4 -35.95 7.75 -35.95 7.25 -35.95 6.75 -35.8 6.35 -35.75 M8.65 -36.35 L8.75 -36.25 8.75 -36.1 9.0 -36.0 Q9.2 -35.95 9.25 -35.85 L9.95 -35.9 10.5 -36.4 10.7 -36.6 9.75 -36.65 Q9.35 -36.65 8.5 -36.35 L8.65 -36.35 M8.15 -37.95 Q8.6 -37.95 8.75 -37.85 L9.85 -37.75 9.9 -37.75 Q12.55 -37.3 14.2 -36.1 L14.25 -36.05 14.85 -35.55 Q15.75 -34.7 16.15 -33.75 L16.15 -33.65 Q16.45 -32.75 16.95 -32.05 17.7 -31.05 18.75 -30.8 L18.8 -30.8 Q19.4 -30.15 19.5 -29.3 19.55 -29.05 19.55 -27.95 19.55 -27.75 19.35 -26.8 L19.15 -25.8 Q19.15 -24.95 19.8 -24.45 L19.85 -24.4 19.85 -24.35 Q21.05 -24.35 22.2 -23.3 22.7 -22.8 23.3 -22.0 23.5 -21.65 24.1 -20.4 24.7 -19.15 24.7 -19.1 24.7 -18.95 24.8 -18.85 24.95 -18.7 24.95 -18.45 L24.75 -17.65 24.5 -16.8 24.4 -15.95 Q24.35 -15.45 24.25 -15.1 L24.25 -13.9 Q24.25 -13.7 24.0 -12.4 23.75 -11.0 23.65 -10.8 23.2 -10.15 22.65 -9.5 22.3 -8.45 21.65 -6.95 21.6 -6.65 21.5 -6.5 21.35 -6.3 20.55 -6.15 19.65 -6.0 19.2 -5.9 18.95 -5.8 18.75 -5.65 L17.55 -5.0 Q16.8 -4.55 16.65 -4.15 L16.6 -4.1 Q16.65 -3.9 16.9 -3.55 17.25 -3.0 17.25 -2.35 17.25 -1.7 17.1 -1.3 17.05 -1.05 16.8 -0.7 16.4 -0.1 16.1 0.6 16.0 1.5 15.45 2.35 14.65 3.7 13.15 4.45 12.6 4.75 11.55 5.4 L11.2 5.6 10.15 6.15 Q9.3 6.6 6.65 7.1 4.3 7.6 3.25 7.6 L2.85 7.95 2.4 8.35 1.9 8.75 1.85 8.75 1.0 8.7 Q0.7 8.65 0.6 8.55 L-1.65 8.3 -3.25 8.1 -3.3 8.05 Q-3.6 7.75 -3.8 7.2 L-4.0 6.9 -4.4 6.85 -4.45 6.8 Q-4.75 6.45 -4.95 6.35 L-5.15 6.2 -5.5 6.2 -5.55 6.25 -5.6 6.25 Q-5.7 6.3 -5.75 6.25 L-5.8 6.2 -6.3 6.15 -7.6 6.1 -8.1 6.25 -9.1 6.45 -9.5 6.4 -10.2 6.3 -10.55 6.2 -10.95 6.1 -12.6 5.95 Q-13.35 5.9 -13.8 5.9 L-14.6 5.95 -14.8 6.0 -15.0 5.95 -15.1 5.85 -15.1 5.75 -15.3 5.75 -15.35 5.7 Q-15.6 5.35 -16.1 4.95 L-16.45 4.6 Q-16.8 4.5 -17.1 4.35 -17.55 4.1 -18.55 3.15 L-19.45 2.25 -19.7 1.95 -20.15 1.85 -20.25 1.8 -20.8 1.25 Q-21.25 1.2 -21.6 1.05 -22.0 0.95 -23.05 0.85 L-23.15 0.8 -23.4 0.5 Q-23.7 0.4 -23.8 0.4 -24.0 0.4 -24.35 0.55 -24.8 0.7 -24.95 0.7 -25.35 0.7 -25.7 0.35 -25.9 0.2 -26.3 -0.3 -27.05 -1.3 -27.75 -1.55 L-27.85 -1.65 -28.05 -2.05 -28.05 -2.1 Q-28.15 -2.35 -28.15 -2.6 L-28.0 -4.2 Q-27.85 -5.75 -27.85 -6.5 -27.85 -7.25 -26.9 -8.55 -26.45 -9.2 -26.3 -9.45 -26.05 -9.85 -26.05 -10.2 -26.05 -10.65 -26.3 -11.6 L-26.65 -12.7 -26.8 -13.05 Q-27.0 -13.25 -27.1 -13.5 L-27.4 -13.95 Q-28.0 -14.85 -28.5 -15.15 L-28.6 -15.15 -28.7 -15.25 Q-28.85 -15.3 -28.95 -15.3 L-29.0 -15.3 -29.05 -15.35 -29.9 -16.25 Q-30.5 -16.7 -31.75 -16.95 L-31.8 -17.0 -31.85 -17.0 Q-32.15 -17.6 -32.35 -18.5 -32.55 -19.3 -32.55 -20.05 L-32.4 -21.2 Q-32.25 -22.2 -32.25 -22.7 -32.25 -23.3 -31.95 -24.05 -31.7 -24.75 -31.25 -25.25 L-30.85 -25.8 Q-30.6 -26.15 -30.25 -26.4 -29.4 -27.05 -27.55 -27.3 -26.4 -27.45 -25.3 -28.35 L-25.2 -28.5 Q-24.5 -29.2 -24.05 -29.3 -23.85 -29.4 -23.6 -29.5 L-23.2 -29.75 Q-22.85 -29.9 -22.45 -30.0 L-21.85 -30.7 Q-21.1 -31.6 -21.05 -31.9 -21.05 -32.1 -21.25 -32.7 -21.5 -33.35 -21.5 -33.55 -21.5 -34.05 -21.2 -34.35 -21.0 -34.55 -20.5 -34.75 -19.85 -35.0 -19.45 -35.2 -18.7 -35.55 -18.0 -36.0 L-18.0 -36.05 -17.75 -36.3 Q-17.55 -36.6 -17.45 -36.65 L-16.95 -36.65 -16.9 -36.6 Q-15.95 -35.9 -15.75 -35.85 -15.5 -35.9 -15.15 -36.5 L-14.5 -37.7 -14.45 -37.75 -14.35 -37.75 Q-13.95 -38.25 -13.0 -38.75 -12.35 -39.1 -10.5 -39.85 L-10.45 -39.85 -8.95 -40.65 -7.85 -41.2 -7.5 -41.5 Q-7.0 -41.85 -6.55 -42.1 L-6.5 -42.1 -6.25 -42.05 -5.45 -42.45 Q-4.4 -42.9 -4.35 -42.95 -4.3 -42.95 -4.25 -42.95 L-3.35 -42.95 Q-2.75 -42.9 -2.35 -42.8 L-2.35 -42.75 Q-2.05 -42.5 -1.65 -42.35 L-0.7 -41.95 -0.65 -41.9 Q-0.45 -41.6 -0.15 -40.9 L0.0 -40.5 Q0.25 -40.2 0.45 -39.85 L0.7 -39.25 Q1.05 -39.0 1.1 -38.45 L1.1 -38.35 1.3 -37.85 Q1.5 -37.45 1.75 -37.1 L1.85 -37.05 1.95 -36.95 2.05 -36.95 2.15 -36.9 2.15 -36.8 2.2 -36.65 Q2.85 -36.2 3.75 -36.2 5.4 -36.2 6.35 -36.9 6.7 -37.15 7.05 -37.7 L7.1 -37.75 7.5 -37.85 8.15 -37.95 M0.55 -38.2 L0.5 -38.45 Q0.15 -38.6 -0.3 -38.8 L-1.5 -39.3 Q-1.65 -39.4 -2.05 -40.0 -2.35 -40.45 -2.7 -40.45 L-2.75 -40.45 -2.8 -40.5 Q-3.0 -40.8 -3.45 -40.9 L-3.9 -40.95 Q-4.7 -40.95 -5.65 -40.65 -6.35 -40.45 -6.8 -40.4 L-7.05 -40.05 -7.2 -39.85 Q-8.05 -38.7 -8.55 -38.7 -8.75 -38.7 -9.2 -38.55 -9.55 -38.25 -9.95 -38.25 L-10.6 -37.9 Q-11.65 -37.4 -12.55 -36.85 L-12.95 -36.5 -13.8 -35.8 -14.0 -35.55 -12.85 -35.8 -11.95 -35.95 -11.6 -36.25 -11.55 -36.3 -11.35 -36.3 Q-10.65 -36.3 -9.7 -36.7 L-9.65 -36.75 -9.5 -36.8 Q-8.7 -37.25 -7.7 -38.0 L-7.3 -38.35 -7.25 -38.35 -6.85 -38.6 -6.7 -38.6 -6.6 -38.5 -5.45 -38.45 -4.85 -38.65 -4.3 -38.85 -4.25 -38.85 -3.45 -38.75 Q-2.85 -38.75 -2.05 -38.5 L-1.75 -38.45 -1.6 -38.45 -1.5 -38.35 -1.25 -38.3 Q-1.1 -38.35 0.55 -37.1 L1.15 -37.0 1.05 -37.15 Q0.7 -37.6 0.55 -38.2 M0.1 -36.95 Q-0.25 -37.2 -0.8 -37.7 -0.95 -37.8 -1.35 -37.8 L-1.45 -37.75 Q-1.45 -37.7 -1.5 -37.7 -1.55 -37.7 -1.6 -37.75 L-1.7 -37.9 Q-1.8 -37.95 -1.85 -38.0 L-2.0 -38.05 -3.45 -38.0 -3.65 -37.85 -4.35 -37.85 Q-6.2 -37.85 -7.35 -37.1 -7.95 -36.7 -8.15 -36.25 L-8.2 -36.2 -8.25 -36.2 -8.35 -36.15 -8.4 -36.15 -9.45 -36.2 Q-10.25 -36.2 -10.85 -35.95 L-10.9 -35.95 -11.0 -35.9 -11.4 -35.65 -11.7 -35.4 Q-12.55 -35.0 -13.05 -34.45 L-13.75 -33.55 Q-14.2 -32.95 -14.7 -32.6 -14.7 -32.55 -14.75 -32.55 L-14.9 -32.55 -15.0 -32.5 -15.8 -31.8 Q-16.8 -30.9 -17.55 -30.35 -18.3 -29.4 -19.15 -28.15 -21.0 -25.4 -21.35 -25.0 L-21.4 -24.95 -21.45 -24.95 Q-21.9 -24.95 -22.15 -25.1 -22.3 -25.2 -22.4 -25.2 L-24.0 -24.9 -24.55 -24.8 -25.35 -24.1 -26.4 -23.2 -26.4 -23.15 -26.8 -22.3 -26.85 -22.25 Q-26.9 -21.8 -26.9 -21.1 -26.9 -20.95 -26.8 -20.65 -26.65 -20.3 -26.65 -20.1 -26.65 -19.65 -27.1 -18.9 -27.55 -18.2 -27.55 -17.9 -27.55 -17.2 -27.15 -16.1 -26.75 -14.95 -26.75 -14.35 L-26.5 -13.7 -26.35 -13.45 -26.35 -13.4 -26.3 -13.25 -26.1 -12.85 -26.0 -12.75 Q-25.8 -12.45 -25.65 -12.3 -25.05 -11.8 -23.45 -11.6 L-23.4 -11.55 Q-22.7 -10.85 -21.8 -8.95 -20.95 -7.2 -20.2 -6.45 L-20.2 -6.4 Q-20.15 -6.25 -19.75 -5.8 -19.4 -5.35 -19.4 -5.1 -19.4 -4.95 -19.7 -3.35 -19.95 -1.75 -19.95 -1.2 -19.95 -0.9 -19.4 0.5 -18.9 1.8 -18.8 1.95 L-18.75 2.0 -18.75 2.05 -18.8 2.15 Q-18.45 2.45 -18.05 2.65 -17.65 2.85 -17.2 3.25 L-16.5 3.8 -16.4 3.75 -16.35 3.8 -14.85 4.05 Q-12.35 3.6 -11.45 3.8 -11.1 3.85 -10.8 4.0 L-10.35 4.25 -7.9 4.6 -5.35 4.9 Q-4.75 4.9 -3.95 4.9 L-2.2 4.8 Q-0.1 4.9 0.6 4.45 L1.05 4.15 Q1.35 4.0 1.8 4.0 2.1 4.0 3.2 4.3 L4.3 4.6 5.7 4.6 Q5.95 4.45 6.2 4.3 L6.2 4.25 6.3 4.1 6.25 4.1 Q6.1 3.75 6.1 3.55 6.1 3.5 6.35 3.1 6.65 2.65 6.95 2.3 7.9 1.1 8.6 1.05 10.9 1.0 12.05 0.55 12.9 0.2 13.6 -0.65 13.95 -1.05 14.1 -1.85 14.35 -3.1 14.45 -3.3 14.85 -4.5 14.95 -4.75 15.15 -5.15 15.4 -5.35 15.7 -5.95 16.4 -6.55 L16.65 -6.75 16.95 -7.05 18.45 -8.65 18.4 -8.65 Q19.3 -9.65 19.7 -10.15 L20.1 -10.95 Q20.4 -11.5 20.7 -11.65 L22.0 -12.3 22.3 -12.7 22.65 -13.0 Q22.8 -13.5 22.8 -13.75 22.8 -14.2 22.75 -14.45 22.65 -14.8 22.4 -15.35 L22.0 -16.15 Q21.75 -16.5 21.35 -16.75 20.9 -17.0 20.85 -18.1 L20.8 -18.95 Q20.55 -19.25 20.4 -19.7 L20.1 -20.6 19.8 -21.45 Q18.95 -21.9 18.1 -22.9 L17.25 -23.8 Q16.9 -24.05 16.8 -24.15 L16.6 -24.3 Q16.4 -24.2 16.2 -24.2 15.65 -24.2 15.1 -24.4 L15.1 -24.45 Q14.95 -24.55 14.4 -25.35 14.35 -25.4 14.3 -25.5 L14.3 -25.55 Q13.9 -26.2 13.3 -26.5 L13.25 -26.55 13.25 -26.65 Q12.95 -27.0 12.7 -27.45 12.4 -28.15 12.4 -28.7 12.35 -29.15 13.0 -29.8 13.6 -30.4 13.65 -30.6 13.7 -30.9 13.7 -31.4 L13.7 -31.5 13.5 -31.9 13.35 -32.1 Q13.25 -32.25 12.5 -32.7 L11.75 -33.15 Q10.85 -33.0 9.8 -33.3 L9.4 -33.45 8.65 -33.45 Q8.5 -33.3 8.3 -33.5 L7.6 -33.55 7.25 -33.55 7.15 -33.65 5.35 -33.65 Q5.3 -33.65 5.25 -33.7 L4.2 -34.7 Q3.5 -35.4 3.25 -35.7 L2.8 -35.8 2.4 -35.9 Q2.35 -35.9 2.35 -35.95 L2.15 -36.2 2.05 -36.15 2.0 -36.15 1.95 -36.2 Q1.7 -36.45 1.1 -36.6 0.35 -36.8 0.1 -36.95 M3.75 -35.75 L4.5 -35.05 5.55 -34.1 7.45 -34.05 Q7.2 -34.25 7.0 -34.5 L6.65 -34.95 Q6.2 -35.5 5.3 -35.65 L5.2 -35.75 4.7 -35.7 3.75 -35.75 M13.45 -35.9 Q13.6 -35.7 13.65 -35.15 L13.65 -34.35 Q13.65 -33.7 13.75 -33.4 13.8 -33.15 13.95 -32.95 L14.0 -32.8 Q14.3 -33.75 14.3 -34.55 14.3 -34.8 14.25 -35.15 14.15 -35.5 14.05 -35.7 L13.45 -35.9 M13.85 -32.4 L13.85 -32.4 M12.8 -28.75 Q12.8 -28.25 13.2 -27.65 L13.3 -27.45 13.5 -29.1 Q13.5 -29.2 13.75 -29.85 L13.4 -29.5 Q12.85 -29.05 12.8 -28.75 M16.75 -31.4 Q16.6 -31.6 16.4 -32.0 L16.35 -31.35 Q16.3 -30.7 16.3 -30.35 L16.25 -29.85 16.2 -29.75 Q16.2 -29.65 16.15 -29.65 16.05 -29.65 16.0 -29.7 L15.9 -29.5 15.95 -29.2 Q16.05 -28.9 16.05 -28.7 16.05 -28.4 15.85 -27.9 L15.7 -27.4 15.7 -26.65 Q15.8 -25.95 16.1 -25.6 16.25 -25.4 16.55 -25.15 17.05 -24.85 17.7 -24.65 18.5 -24.4 19.3 -24.35 19.1 -24.55 18.95 -24.95 18.8 -25.4 18.8 -25.8 18.8 -26.35 19.0 -26.85 19.2 -27.3 19.2 -28.0 L19.15 -28.9 Q19.05 -29.55 18.95 -29.95 18.75 -30.25 18.1 -30.65 17.35 -31.05 17.15 -31.3 L16.8 -31.35 16.75 -31.35 16.75 -31.4 M14.5 -29.6 Q14.5 -29.1 14.75 -27.95 14.85 -27.65 14.8 -27.1 L14.75 -26.45 Q14.75 -26.15 15.1 -25.45 15.2 -25.45 15.2 -25.35 15.2 -25.25 15.05 -25.25 L15.3 -24.9 Q15.55 -24.75 16.0 -24.85 15.45 -25.35 15.35 -25.65 L15.25 -26.0 Q15.0 -26.45 14.95 -27.45 14.95 -28.65 14.9 -28.9 14.75 -29.35 14.55 -29.9 L14.5 -29.6 M20.1 -23.1 Q20.45 -22.9 21.05 -22.25 L22.0 -21.35 Q22.55 -20.85 22.65 -20.6 23.85 -18.05 24.1 -16.95 L24.1 -16.85 Q24.15 -17.1 24.6 -18.4 24.55 -18.65 24.05 -19.45 23.5 -20.35 23.5 -20.4 23.45 -20.85 23.2 -21.45 22.95 -22.1 22.7 -22.25 22.5 -22.4 21.8 -23.15 21.3 -23.65 20.85 -23.8 20.4 -24.0 19.8 -23.95 18.95 -23.9 18.75 -23.95 L18.2 -24.05 18.35 -23.9 19.2 -23.55 20.1 -23.1 M21.25 -18.5 L21.25 -18.3 Q21.3 -17.4 21.95 -16.95 L22.0 -16.9 Q22.6 -15.95 22.85 -15.25 23.15 -14.4 23.15 -13.7 L23.4 -14.05 Q23.55 -14.45 23.5 -15.25 L23.35 -16.35 23.0 -17.05 Q22.6 -17.95 21.6 -18.3 21.4 -18.4 21.25 -18.5 M20.8 -11.2 Q19.85 -9.6 19.3 -8.85 20.6 -10.15 21.25 -11.35 L21.3 -11.45 Q21.0 -11.3 20.8 -11.2 M21.25 -7.15 Q21.5 -7.6 22.0 -8.8 21.25 -8.15 20.55 -7.9 L19.35 -7.45 Q18.3 -7.05 17.9 -6.85 L17.9 -6.8 17.85 -6.75 Q17.55 -6.6 17.3 -6.1 17.1 -5.7 17.1 -5.6 L17.1 -5.45 Q17.4 -5.65 18.0 -5.95 L19.65 -6.5 Q21.15 -7.05 21.25 -7.15 M16.35 -5.75 L16.25 -5.6 Q16.1 -5.2 15.85 -4.05 15.55 -2.9 15.55 -2.65 L15.85 -1.45 16.1 -0.4 16.15 -0.5 Q16.8 -1.6 16.8 -2.35 16.8 -2.65 16.5 -3.25 16.1 -3.9 16.1 -4.2 16.1 -4.45 16.45 -5.4 L16.65 -5.85 16.55 -5.75 16.35 -5.75 M14.9 -2.55 L15.0 -3.25 Q14.65 -2.4 14.7 -1.7 14.7 -1.3 14.4 -0.75 14.1 -0.2 13.6 0.25 L13.45 0.4 Q13.2 0.85 12.65 1.2 12.3 1.45 11.4 1.9 10.65 2.4 10.3 2.5 L7.8 2.9 Q7.4 3.3 7.15 3.9 L7.05 4.05 7.1 4.25 Q7.1 4.4 6.9 4.7 L6.9 4.75 7.2 5.0 Q8.0 4.95 8.8 4.35 9.2 4.05 9.35 3.7 9.5 3.45 9.4 3.3 L9.35 3.25 9.35 3.2 9.4 3.0 9.4 2.95 Q9.4 2.9 9.45 2.9 9.7 2.8 10.8 2.45 L12.0 2.1 12.5 1.75 Q12.55 1.7 12.65 1.65 12.9 1.4 13.35 1.1 14.25 0.45 14.45 0.0 14.55 -0.45 14.95 -1.25 15.1 -1.5 15.15 -1.75 L15.05 -2.0 Q14.9 -2.35 14.9 -2.55 M12.05 2.55 Q11.15 3.0 10.05 3.25 L10.05 3.45 Q10.05 4.1 8.9 4.9 8.35 5.25 7.95 5.35 L8.5 5.45 9.25 5.3 Q9.8 5.2 10.2 5.2 L10.25 5.2 10.8 4.85 10.85 4.8 Q11.5 4.3 11.85 3.6 12.05 3.2 12.2 2.5 12.1 2.55 12.05 2.55 M10.65 1.4 L8.4 1.55 Q8.25 1.55 8.15 1.75 8.1 2.05 8.0 2.1 L7.3 2.85 Q6.65 3.45 6.65 3.6 L6.65 3.7 7.3 2.85 Q7.7 2.35 8.0 2.35 L9.25 2.3 Q10.1 2.2 10.65 1.8 10.95 1.55 11.3 1.35 L10.65 1.4 M0.0 6.45 Q-0.25 6.3 -0.35 6.25 -0.5 6.2 -4.35 6.2 L-3.75 6.55 -3.7 6.6 -3.7 6.7 Q-3.4 6.85 -3.25 7.1 -3.05 7.35 -3.1 7.7 L-1.75 7.95 -0.75 8.15 Q0.55 8.2 0.8 8.3 L0.8 8.25 1.05 8.3 Q1.3 8.35 1.4 8.4 L1.7 8.4 2.05 8.1 2.5 7.7 2.65 7.5 Q2.45 7.4 2.3 7.3 L1.85 6.85 Q0.5 6.6 0.0 6.45 M2.1 4.45 Q1.5 4.45 1.15 4.55 1.05 4.6 0.6 4.8 -0.3 5.25 -2.35 5.4 L-4.0 5.4 -0.85 5.6 Q-0.8 5.55 -0.75 5.55 L-0.35 5.65 -0.25 5.7 0.25 5.75 Q1.65 5.75 3.35 5.35 L4.4 5.1 4.45 5.1 3.45 4.95 Q3.05 4.95 3.0 4.7 L2.5 4.55 Q2.25 4.45 2.1 4.45 M-17.15 -36.2 L-17.4 -36.2 Q-17.75 -35.75 -19.55 -34.8 -21.1 -33.95 -21.1 -33.55 L-20.9 -32.8 Q-20.7 -32.05 -20.7 -31.95 -20.7 -31.3 -21.35 -30.6 L-21.85 -30.1 -21.65 -30.1 -21.5 -30.2 -21.4 -30.2 -20.5 -30.1 -19.65 -30.1 -19.6 -30.05 -19.6 -30.0 -19.55 -30.0 Q-18.85 -30.15 -18.2 -30.4 -17.95 -30.55 -17.7 -30.65 -17.25 -31.15 -16.75 -31.5 L-16.65 -31.6 Q-16.25 -32.15 -15.95 -32.3 -15.3 -32.65 -14.95 -33.3 -14.75 -33.6 -14.65 -33.95 L-14.7 -34.0 Q-14.75 -34.15 -14.75 -34.55 -14.75 -34.8 -14.65 -35.05 L-14.75 -35.95 -14.75 -36.3 Q-15.15 -35.75 -15.4 -35.5 L-15.45 -35.45 -15.5 -35.45 Q-16.1 -35.55 -16.6 -35.75 -17.0 -36.0 -17.15 -36.2 M-12.65 -35.5 Q-13.55 -35.4 -13.9 -35.2 -14.1 -35.05 -14.15 -34.85 -14.15 -34.55 -14.2 -34.4 L-14.2 -34.2 -14.15 -34.15 -14.15 -34.1 -14.2 -34.0 -14.3 -33.95 -14.3 -33.8 -13.55 -34.6 Q-13.1 -35.25 -12.8 -35.45 L-12.65 -35.5 M-22.8 -29.05 Q-23.55 -28.65 -23.6 -28.25 -23.7 -27.55 -23.85 -27.3 -24.25 -26.6 -25.35 -26.25 -26.55 -25.9 -27.7 -24.9 -29.0 -23.8 -29.0 -22.9 -29.0 -22.85 -28.8 -22.45 L-28.8 -22.4 Q-28.7 -22.6 -28.55 -22.8 L-28.5 -22.9 -28.4 -22.95 Q-28.15 -23.2 -27.8 -23.5 -27.35 -23.95 -27.15 -24.05 -26.95 -24.15 -26.45 -24.45 L-25.5 -25.0 -25.5 -25.05 Q-24.95 -25.3 -24.0 -25.35 L-23.0 -25.45 -22.45 -25.5 Q-22.2 -25.45 -22.05 -25.35 L-21.55 -25.4 Q-20.85 -26.3 -19.5 -28.45 L-18.6 -29.65 Q-18.85 -29.55 -19.05 -29.55 L-20.0 -29.6 -20.45 -29.7 -20.5 -29.75 -21.45 -29.75 -21.9 -29.6 Q-22.2 -29.35 -22.8 -29.05 M-0.9 -41.35 Q-1.4 -41.75 -2.0 -42.0 -2.45 -42.25 -3.05 -42.45 L-3.6 -42.3 Q-1.9 -42.25 -0.85 -41.05 L-0.65 -40.95 Q-0.8 -41.25 -0.9 -41.35 M-9.0 -39.9 L-9.0 -39.95 -10.65 -38.85 -10.65 -38.9 Q-11.3 -38.4 -11.75 -37.95 L-11.4 -38.1 Q-10.75 -38.45 -10.25 -38.7 -9.65 -39.3 -8.75 -39.95 L-8.25 -40.3 -8.95 -39.95 -9.0 -39.9 M-27.5 -26.7 L-28.55 -26.6 Q-28.6 -26.55 -28.65 -26.55 -29.75 -26.55 -30.7 -25.2 -31.25 -24.5 -31.75 -23.4 -31.9 -23.15 -31.9 -22.65 L-31.9 -21.7 Q-31.9 -21.4 -32.05 -20.75 L-32.2 -20.0 Q-32.2 -19.5 -32.0 -18.65 -31.8 -17.85 -31.6 -17.35 -30.85 -17.05 -30.15 -16.65 -30.3 -16.9 -30.4 -17.2 L-30.45 -17.85 Q-30.45 -18.2 -30.45 -18.4 -30.6 -18.9 -30.7 -19.65 L-30.75 -20.65 Q-30.75 -22.25 -30.4 -22.95 -30.1 -23.65 -28.5 -25.4 -28.25 -25.65 -27.85 -25.9 L-27.3 -26.25 Q-27.1 -26.4 -26.8 -26.75 L-26.7 -26.85 Q-27.1 -26.75 -27.5 -26.7 M-27.45 -23.2 L-28.05 -22.5 -28.25 -22.2 -28.45 -21.7 -28.45 -21.45 -28.65 -21.35 Q-28.8 -20.75 -29.2 -19.8 -29.8 -18.5 -29.85 -17.8 L-29.55 -17.35 Q-29.15 -16.8 -29.1 -16.6 -29.0 -16.3 -28.8 -15.95 L-28.75 -15.85 Q-28.5 -15.65 -28.2 -15.45 -28.35 -15.75 -28.35 -15.95 L-28.25 -17.0 -28.15 -18.2 Q-28.2 -18.35 -28.2 -18.5 -28.2 -19.7 -27.7 -21.3 -27.45 -22.1 -27.2 -22.55 -27.1 -23.05 -26.85 -23.35 -26.45 -23.8 -26.05 -24.2 L-27.45 -23.15 -27.45 -23.2 M-25.8 -24.4 L-25.75 -24.45 -25.75 -24.5 -25.8 -24.45 -25.8 -24.4 M-29.3 -15.95 L-29.25 -15.9 -29.15 -16.1 -29.3 -15.95 M-27.25 -20.35 L-27.3 -21.0 -27.3 -21.2 -27.5 -20.6 Q-27.55 -20.3 -27.55 -18.95 L-27.3 -19.55 Q-27.25 -19.85 -27.25 -20.35 M-27.7 -16.5 L-27.7 -15.9 Q-27.65 -15.45 -27.2 -14.75 -27.2 -15.05 -27.3 -15.25 -27.45 -15.7 -27.7 -16.5 M-27.95 -15.05 L-28.0 -15.05 -27.8 -14.75 -27.65 -14.9 -27.95 -15.15 -27.95 -15.05 M-25.2 -10.85 Q-24.9 -10.55 -24.8 -10.3 L-24.75 -10.3 -24.6 -9.65 Q-24.45 -9.2 -24.4 -8.95 L-24.4 -8.9 -24.45 -8.55 -24.3 -7.55 -24.15 -6.75 -24.1 -6.75 -24.05 -6.65 -24.05 -6.6 -24.1 -6.4 -24.1 -6.2 Q-24.05 -6.2 -24.0 -6.1 -23.95 -6.05 -23.95 -5.9 L-24.1 -5.55 -24.1 -5.45 -24.0 -5.0 Q-23.65 -4.05 -23.1 -4.05 -22.5 -4.05 -22.15 -3.85 -21.75 -3.6 -21.65 -3.6 -21.6 -3.6 -21.6 -3.55 L-21.55 -3.5 -21.4 -3.1 Q-21.35 -2.85 -21.3 -2.6 L-21.15 -2.45 Q-20.95 -2.15 -20.8 -1.8 -20.75 -1.7 -20.75 -1.4 L-20.8 -0.95 Q-20.8 -0.15 -20.4 0.3 L-20.4 0.35 -20.1 0.6 -20.15 0.35 Q-20.35 -0.6 -20.4 -1.55 -20.4 -2.0 -20.2 -2.95 -20.0 -3.85 -20.0 -4.35 -20.0 -5.2 -20.0 -5.3 L-20.0 -5.35 -20.3 -5.9 -20.45 -5.9 -20.5 -5.95 Q-20.7 -6.2 -22.0 -8.65 -22.95 -10.5 -23.65 -11.2 -25.15 -11.5 -25.8 -11.95 -25.55 -11.2 -25.2 -10.85 M-25.95 -9.2 Q-26.05 -8.95 -26.5 -8.45 -27.35 -7.5 -27.5 -6.35 -27.55 -5.5 -27.65 -4.1 L-27.75 -2.55 -27.7 -2.2 -27.6 -2.0 Q-26.9 -1.65 -26.35 -1.15 L-25.55 -0.25 -25.45 -0.05 -25.4 0.0 -24.35 -0.05 -24.2 -0.05 -24.25 -0.1 -24.45 -1.1 Q-24.55 -1.75 -24.7 -2.05 -24.9 -2.35 -25.1 -3.0 -25.25 -3.65 -25.3 -4.0 L-25.35 -4.3 Q-25.4 -4.75 -25.4 -5.0 -25.45 -5.6 -24.75 -6.35 L-24.7 -6.55 Q-24.55 -6.9 -24.55 -7.1 -24.55 -7.45 -24.7 -8.2 L-24.95 -9.35 Q-25.05 -9.8 -25.5 -10.45 L-25.75 -10.8 Q-25.7 -10.45 -25.7 -10.2 -25.7 -9.65 -25.95 -9.2 M-24.7 -3.7 L-24.65 -3.45 -24.25 -2.3 Q-24.05 -1.8 -23.9 -1.25 -23.8 -0.75 -23.8 -0.5 -23.4 -0.45 -23.1 -0.15 -22.9 0.15 -22.75 0.25 -22.6 0.35 -21.95 0.45 L-20.8 0.6 Q-21.0 0.2 -21.15 -0.35 -21.2 -0.55 -21.15 -1.0 -21.15 -1.4 -21.15 -1.6 -21.2 -1.7 -21.45 -2.1 -21.75 -2.6 -21.7 -2.7 -21.75 -2.9 -22.1 -3.15 -22.45 -3.4 -22.6 -3.55 -23.1 -3.35 -23.55 -3.55 -23.95 -3.8 -24.2 -4.5 L-24.2 -4.45 -24.35 -4.85 -24.5 -4.7 Q-24.65 -4.25 -24.65 -3.85 L-24.65 -3.75 -24.7 -3.7 M-11.0 4.4 Q-11.45 4.15 -11.95 4.15 L-12.35 4.2 -13.1 4.3 -13.35 4.35 Q-11.5 4.75 -10.0 5.35 L-6.4 5.35 -6.65 5.3 Q-7.5 5.25 -8.9 4.95 L-10.25 4.7 Q-10.45 4.7 -11.0 4.4 M-10.9 5.85 L-11.9 5.55 -13.75 5.05 Q-14.3 4.85 -15.45 4.75 L-15.8 4.7 -15.75 4.75 Q-15.25 5.15 -15.05 5.35 L-11.55 5.75 -10.9 5.85" fill="#00ffff" fill-opacity="0.5019608" fill-rule="evenodd" stroke="none"/>
      <path d="M8.15 -37.85 Q8.6 -37.85 8.7 -37.7 L9.85 -37.65 Q12.5 -37.2 14.15 -36.0 L14.15 -35.95 14.8 -35.45 Q15.7 -34.6 16.05 -33.6 L16.05 -33.65 Q16.35 -32.7 16.9 -31.95 17.65 -30.95 18.7 -30.7 19.3 -30.1 19.4 -29.3 19.45 -29.05 19.45 -27.95 19.45 -27.75 19.25 -26.8 L19.05 -25.8 Q19.05 -24.9 19.7 -24.35 L19.7 -24.25 Q19.3 -24.4 19.05 -25.0 18.9 -25.4 18.9 -25.8 18.9 -26.3 19.1 -26.8 19.3 -27.3 19.3 -28.0 L19.25 -28.9 Q19.2 -29.6 19.05 -29.95 18.85 -30.35 18.15 -30.75 17.35 -31.15 17.25 -31.4 L16.8 -31.45 Q16.6 -31.75 16.3 -32.55 L16.3 -32.15 16.25 -31.35 Q16.15 -30.7 16.15 -30.35 16.15 -29.7 16.1 -29.8 15.95 -29.95 15.8 -29.5 15.8 -29.45 15.85 -29.15 15.9 -28.9 15.9 -28.7 15.9 -28.45 15.75 -27.9 L15.55 -27.4 15.55 -26.6 Q15.65 -25.9 16.0 -25.5 16.15 -25.3 16.5 -25.05 17.0 -24.75 17.7 -24.55 18.7 -24.25 19.8 -24.25 21.0 -24.25 22.1 -23.2 22.6 -22.75 23.2 -21.9 23.4 -21.6 24.0 -20.35 L24.55 -19.1 Q24.55 -18.9 24.7 -18.75 24.85 -18.65 24.85 -18.45 L24.65 -17.7 24.4 -16.8 24.3 -15.95 Q24.2 -15.45 24.1 -15.15 L24.1 -13.9 Q24.1 -13.7 23.9 -12.4 23.65 -11.05 23.55 -10.9 23.1 -10.2 22.55 -9.6 22.2 -8.5 21.55 -7.0 21.5 -6.7 21.4 -6.6 21.3 -6.4 20.5 -6.3 19.65 -6.15 19.2 -6.0 18.9 -5.9 18.7 -5.75 L17.45 -5.1 Q16.65 -4.6 16.55 -4.2 L16.45 -4.2 Q16.5 -3.95 16.8 -3.5 17.15 -3.0 17.15 -2.35 17.15 -1.7 17.0 -1.35 16.95 -1.1 16.7 -0.75 16.3 -0.15 16.0 0.55 15.85 1.45 15.35 2.3 14.6 3.6 13.1 4.35 12.55 4.65 11.5 5.3 L11.15 5.5 10.1 6.05 Q9.25 6.5 6.65 7.0 4.2 7.45 3.25 7.5 2.9 7.75 2.8 7.85 L2.35 8.25 1.85 8.65 1.05 8.6 Q0.65 8.5 0.65 8.45 L-1.6 8.2 -3.25 7.95 Q-3.5 7.7 -3.7 7.15 L-3.75 7.15 Q-3.9 7.0 -3.95 6.85 L-4.35 6.7 -4.9 6.25 Q-5.0 6.15 -5.1 6.1 L-5.55 6.1 -5.65 6.15 Q-5.7 6.2 -5.7 6.1 L-5.8 6.1 -6.25 6.05 -7.6 6.0 -8.15 6.15 -9.1 6.35 -9.45 6.3 -10.15 6.15 -10.55 6.1 -10.9 5.95 -12.6 5.8 Q-13.35 5.75 -13.85 5.8 L-14.6 5.85 -14.8 5.9 Q-15.0 5.9 -14.95 5.8 L-14.85 5.7 -15.3 5.6 Q-15.5 5.3 -16.0 4.85 L-16.35 4.5 Q-16.75 4.4 -17.05 4.25 -17.5 4.0 -18.5 3.1 L-19.25 2.35 -19.35 2.2 -19.65 1.85 -20.15 1.75 -20.75 1.1 Q-21.2 1.1 -21.55 0.95 -21.95 0.8 -23.05 0.75 L-23.3 0.4 Q-23.65 0.3 -23.8 0.3 -24.0 0.3 -24.4 0.45 -24.8 0.55 -24.95 0.55 -25.3 0.55 -25.6 0.3 L-26.2 -0.35 Q-27.0 -1.45 -27.75 -1.7 L-27.95 -2.15 Q-28.05 -2.4 -28.05 -2.6 L-27.9 -4.2 Q-27.75 -5.75 -27.75 -6.5 -27.7 -7.2 -26.8 -8.5 L-26.2 -9.4 Q-25.95 -9.85 -25.95 -10.2 -25.95 -10.65 -26.2 -11.65 L-26.55 -12.75 -26.75 -13.1 Q-26.9 -13.3 -27.0 -13.55 L-27.3 -14.05 Q-27.95 -14.95 -28.45 -15.25 L-28.55 -15.25 -28.6 -15.35 Q-28.8 -15.4 -28.95 -15.4 L-29.85 -16.3 Q-30.45 -16.8 -31.75 -17.05 -32.05 -17.65 -32.25 -18.5 -32.45 -19.35 -32.45 -20.05 L-32.3 -21.15 Q-32.15 -22.2 -32.15 -22.7 -32.15 -23.3 -31.85 -24.0 -31.6 -24.7 -31.2 -25.15 -31.05 -25.35 -30.75 -25.75 -30.5 -26.1 -30.2 -26.3 -29.35 -26.95 -27.5 -27.15 -26.35 -27.3 -25.25 -28.25 L-25.1 -28.45 Q-24.45 -29.1 -24.05 -29.2 L-24.0 -29.15 Q-23.8 -29.3 -23.55 -29.4 L-23.15 -29.65 Q-22.8 -29.8 -22.4 -29.9 L-21.8 -30.6 Q-20.95 -31.55 -20.95 -31.9 -20.95 -32.1 -21.15 -32.75 -21.35 -33.4 -21.35 -33.55 -21.35 -34.0 -21.15 -34.25 -20.95 -34.45 -20.45 -34.65 -19.8 -34.9 -19.4 -35.1 -18.6 -35.45 -17.95 -35.9 -17.9 -35.95 -17.7 -36.25 L-17.4 -36.55 -16.95 -36.5 Q-15.95 -35.75 -15.75 -35.75 -15.45 -35.75 -15.05 -36.45 L-14.4 -37.65 -14.3 -37.65 Q-13.9 -38.15 -12.95 -38.65 -12.3 -39.0 -10.45 -39.75 L-8.85 -40.55 -7.8 -41.1 -7.45 -41.4 Q-6.95 -41.75 -6.5 -42.0 L-6.2 -41.95 -5.4 -42.35 Q-4.35 -42.8 -4.3 -42.85 L-3.35 -42.8 Q-2.8 -42.8 -2.4 -42.65 -2.1 -42.4 -1.7 -42.25 L-0.75 -41.85 Q-0.55 -41.55 -0.25 -40.85 L-0.1 -40.45 Q0.15 -40.15 0.35 -39.8 L0.6 -39.2 Q0.95 -38.95 1.0 -38.4 L0.95 -38.35 1.2 -37.8 Q1.4 -37.35 1.65 -37.05 L1.75 -36.95 1.85 -36.95 1.9 -36.85 2.05 -36.8 2.1 -36.6 Q2.8 -36.05 3.75 -36.05 5.45 -36.05 6.45 -36.8 6.75 -37.05 7.15 -37.65 L7.55 -37.75 8.15 -37.85 M6.0 -35.85 Q6.85 -35.3 7.4 -35.05 8.5 -34.55 10.1 -34.55 L10.75 -34.5 12.1 -34.35 Q12.95 -33.7 13.6 -32.65 L13.8 -32.2 13.9 -32.2 13.9 -32.1 14.0 -32.4 13.75 -32.7 Q13.6 -32.8 13.45 -33.5 13.35 -34.15 13.4 -35.1 13.35 -35.7 12.95 -36.2 L12.3 -36.4 12.1 -36.45 Q12.0 -36.4 12.0 -36.5 L10.9 -36.5 10.45 -36.0 Q10.2 -35.75 9.95 -35.6 L8.85 -35.6 Q8.5 -35.65 8.5 -36.1 L7.25 -36.05 Q6.5 -35.85 6.1 -35.85 L6.0 -35.85 M8.6 -36.05 Q8.7 -36.0 8.95 -35.9 L9.2 -35.75 10.0 -35.8 10.6 -36.3 Q10.9 -36.55 10.95 -36.7 L9.75 -36.75 Q9.2 -36.75 7.95 -36.3 L7.75 -36.25 8.6 -36.25 Q8.65 -36.15 8.6 -36.05 M0.65 -38.2 L0.6 -38.5 Q0.25 -38.7 -0.25 -38.9 -1.2 -39.3 -1.45 -39.4 -1.6 -39.5 -1.95 -40.05 -2.25 -40.55 -2.7 -40.55 -2.9 -40.9 -3.4 -41.0 L-3.9 -41.05 Q-4.75 -41.05 -5.7 -40.75 -6.45 -40.55 -6.85 -40.5 L-7.15 -40.1 -7.3 -39.95 Q-8.1 -38.85 -8.55 -38.85 -8.8 -38.85 -9.25 -38.65 -9.6 -38.35 -10.0 -38.35 L-10.65 -38.05 Q-11.75 -37.5 -12.65 -36.9 -12.8 -36.75 -13.05 -36.6 L-13.9 -35.9 Q-14.15 -35.65 -14.3 -35.3 L-14.3 -35.25 -14.15 -35.4 -12.85 -35.7 -11.9 -35.85 -11.55 -36.15 -11.35 -36.15 Q-10.6 -36.15 -9.65 -36.6 L-9.45 -36.7 Q-8.6 -37.15 -7.65 -37.9 -7.4 -38.1 -7.2 -38.25 L-6.8 -38.5 Q-6.7 -38.45 -6.65 -38.4 L-5.45 -38.35 -4.8 -38.55 -4.25 -38.7 -3.45 -38.65 Q-2.9 -38.6 -2.1 -38.4 L-1.8 -38.3 -1.6 -38.3 -1.6 -38.25 -1.25 -38.2 Q-1.1 -38.2 0.5 -37.0 L1.2 -36.9 1.4 -36.85 1.15 -37.2 Q0.8 -37.65 0.65 -38.2 M0.15 -37.05 Q-0.2 -37.3 -0.75 -37.75 -0.9 -37.95 -1.35 -37.95 L-1.45 -37.95 -1.45 -37.9 -1.5 -37.85 -1.65 -38.0 -1.8 -38.05 Q-1.85 -38.15 -2.0 -38.15 L-3.5 -38.15 -3.7 -37.95 -4.35 -37.95 Q-6.25 -37.95 -7.4 -37.2 -8.05 -36.8 -8.25 -36.3 L-8.4 -36.25 -9.45 -36.35 Q-10.25 -36.35 -10.9 -36.05 L-10.95 -36.05 -11.15 -36.0 -11.1 -36.0 Q-11.3 -35.9 -11.45 -35.75 L-11.75 -35.5 Q-12.6 -35.1 -13.1 -34.55 L-13.8 -33.6 Q-14.25 -33.05 -14.75 -32.65 L-14.85 -32.65 -14.9 -32.75 Q-14.95 -32.65 -15.1 -32.55 L-15.9 -31.9 Q-16.85 -31.0 -17.6 -30.4 -18.4 -29.5 -19.25 -28.25 -21.1 -25.5 -21.45 -25.05 -21.85 -25.1 -22.05 -25.2 -22.3 -25.3 -22.4 -25.3 L-24.0 -25.0 -24.6 -24.9 -25.45 -24.2 -26.5 -23.25 -26.95 -22.35 -26.95 -22.25 Q-27.05 -21.8 -27.05 -21.1 -27.05 -20.9 -26.9 -20.6 -26.75 -20.25 -26.75 -20.1 -26.75 -19.7 -27.2 -18.95 -27.65 -18.25 -27.65 -17.9 -27.65 -17.2 -27.25 -16.05 -26.85 -14.9 -26.85 -14.35 -26.85 -14.25 -26.6 -13.65 L-26.5 -13.4 -26.2 -12.8 -26.1 -12.65 Q-25.9 -12.35 -25.7 -12.2 -25.1 -11.7 -23.5 -11.45 -22.8 -10.75 -21.9 -8.9 -21.05 -7.1 -20.3 -6.35 -20.25 -6.2 -19.85 -5.75 -19.55 -5.35 -19.55 -5.1 -19.55 -4.95 -19.8 -3.35 -20.1 -1.75 -20.1 -1.2 -20.1 -0.9 -19.5 0.55 -19.0 1.85 -18.9 2.0 L-18.9 2.1 -18.95 2.15 Q-18.6 2.5 -18.1 2.75 -17.7 2.95 -17.25 3.3 -16.75 3.75 -16.55 3.9 L-16.4 3.9 -14.85 4.15 Q-12.35 3.75 -11.45 3.9 -11.15 3.95 -10.85 4.1 -10.55 4.3 -10.4 4.35 L-5.4 5.05 Q-4.75 5.0 -3.95 5.0 L-2.2 4.9 Q-0.05 5.0 0.7 4.55 L1.1 4.25 Q1.4 4.1 1.8 4.1 2.05 4.1 3.15 4.4 L4.3 4.7 5.15 4.75 5.7 4.7 Q6.0 4.55 6.25 4.35 L6.3 4.35 6.4 4.05 6.35 4.0 Q6.25 3.75 6.25 3.55 6.25 3.5 6.45 3.15 6.7 2.75 7.05 2.35 7.95 1.2 8.6 1.2 10.95 1.1 12.05 0.65 12.95 0.3 13.65 -0.6 14.05 -1.0 14.2 -1.85 14.45 -3.05 14.55 -3.25 14.95 -4.45 15.1 -4.7 15.25 -5.05 15.5 -5.3 15.8 -5.85 16.45 -6.45 L16.75 -6.65 17.05 -7.0 18.5 -8.6 Q19.4 -9.6 19.8 -10.1 L20.2 -10.9 Q20.5 -11.4 20.75 -11.55 L21.75 -12.05 22.1 -12.25 22.4 -12.6 22.75 -12.95 Q22.9 -13.45 22.9 -13.75 22.9 -14.2 22.85 -14.5 22.75 -14.85 22.5 -15.4 L22.1 -16.2 Q21.85 -16.6 21.4 -16.85 21.0 -17.1 21.0 -18.1 L20.9 -18.95 Q20.65 -19.3 20.5 -19.75 L20.2 -20.65 Q20.05 -21.2 19.85 -21.55 19.0 -21.95 18.15 -22.95 L17.35 -23.9 Q16.95 -24.15 16.85 -24.25 L16.6 -24.45 16.55 -24.45 Q16.4 -24.35 16.2 -24.35 15.7 -24.35 15.15 -24.5 15.0 -24.65 14.5 -25.45 14.45 -25.5 14.4 -25.55 L14.4 -25.6 Q13.95 -26.25 13.35 -26.6 L13.35 -26.7 Q13.05 -27.05 12.8 -27.5 12.5 -28.15 12.5 -28.7 12.5 -29.1 13.1 -29.7 13.7 -30.35 13.75 -30.55 13.8 -30.85 13.8 -31.4 L13.8 -31.55 13.6 -31.95 13.45 -32.2 Q13.35 -32.35 12.6 -32.8 11.85 -33.25 11.8 -33.3 10.9 -33.1 9.85 -33.4 L9.4 -33.55 9.2 -33.55 8.65 -33.6 8.6 -33.55 Q8.5 -33.45 8.35 -33.6 L7.6 -33.65 7.25 -33.7 7.3 -33.7 7.3 -33.75 5.35 -33.8 4.25 -34.8 Q3.55 -35.5 3.35 -35.8 L2.85 -35.9 2.45 -36.05 2.15 -36.35 Q2.1 -36.3 2.0 -36.25 1.75 -36.5 1.15 -36.7 0.4 -36.9 0.15 -37.05 M5.25 -35.9 L4.7 -35.8 3.4 -35.95 4.4 -34.95 Q5.25 -34.2 5.5 -34.0 L8.05 -33.95 7.9 -34.0 7.65 -34.1 Q7.3 -34.25 7.1 -34.55 6.95 -34.7 6.7 -35.05 6.3 -35.6 5.35 -35.75 L5.35 -35.8 5.4 -35.85 5.45 -35.85 5.25 -35.9 M13.35 -35.85 Q13.5 -35.65 13.55 -35.15 L13.55 -34.35 Q13.55 -33.65 13.6 -33.35 13.65 -33.1 13.85 -32.85 L14.05 -32.55 14.1 -32.8 Q14.45 -33.7 14.45 -34.55 14.45 -34.8 14.35 -35.15 14.25 -35.55 14.1 -35.8 L13.2 -36.1 13.35 -35.85 M13.95 -31.3 L13.95 -30.45 Q13.95 -30.15 13.35 -29.6 12.7 -29.1 12.7 -28.75 12.7 -28.25 13.1 -27.6 13.25 -27.35 13.4 -27.15 13.55 -28.05 13.65 -29.1 L13.95 -30.1 Q14.15 -30.55 14.2 -30.85 L13.95 -31.3 M14.5 -30.25 Q14.4 -29.75 14.4 -29.6 14.4 -29.1 14.65 -27.95 14.7 -27.6 14.7 -27.1 L14.65 -26.45 Q14.65 -26.15 15.0 -25.35 L14.85 -25.35 14.95 -25.2 Q15.05 -25.05 15.25 -24.8 L16.25 -24.75 16.1 -24.9 Q15.55 -25.4 15.45 -25.7 L15.35 -26.05 Q15.1 -26.5 15.1 -27.45 15.05 -28.7 15.0 -28.95 14.85 -29.55 14.5 -30.25 M20.05 -23.0 Q20.4 -22.8 20.95 -22.2 L21.95 -21.25 Q22.45 -20.75 22.55 -20.55 23.75 -18.0 23.95 -16.9 24.05 -16.6 24.05 -16.0 L24.1 -15.95 24.1 -15.7 24.15 -15.95 24.2 -16.8 Q24.25 -17.0 24.7 -18.4 24.7 -18.65 24.15 -19.5 23.6 -20.4 23.6 -20.45 23.55 -20.9 23.3 -21.5 23.05 -22.15 22.75 -22.35 22.6 -22.5 21.9 -23.2 21.35 -23.75 20.9 -23.9 20.4 -24.1 19.8 -24.1 18.95 -24.05 18.75 -24.05 18.05 -24.15 17.5 -24.3 L18.3 -23.8 Q18.4 -23.75 19.15 -23.45 L20.05 -23.0 M21.15 -18.25 Q21.2 -17.3 21.9 -16.85 22.5 -15.9 22.75 -15.2 23.05 -14.4 23.05 -13.7 L23.0 -13.3 Q23.35 -13.75 23.5 -14.0 23.7 -14.4 23.6 -15.25 L23.5 -16.35 23.1 -17.1 Q22.7 -18.05 21.65 -18.4 21.35 -18.55 21.15 -18.75 L21.15 -18.25 M20.75 -11.25 Q19.75 -9.7 19.2 -8.95 18.85 -8.4 18.45 -8.0 18.95 -8.35 19.2 -8.6 20.65 -10.05 21.35 -11.3 L21.7 -11.8 Q21.0 -11.45 20.75 -11.25 M20.5 -8.0 L19.3 -7.55 Q18.25 -7.2 17.85 -6.95 L17.75 -6.85 17.8 -6.85 Q17.5 -6.7 17.2 -6.15 17.0 -5.75 17.0 -5.6 17.0 -5.5 16.8 -5.1 L17.0 -5.25 Q17.35 -5.5 18.05 -5.85 L19.7 -6.4 Q21.25 -6.95 21.35 -7.1 21.65 -7.6 22.15 -9.0 L22.25 -9.25 22.2 -9.2 Q21.35 -8.35 20.5 -8.0 M16.4 -5.85 L16.4 -5.95 Q16.25 -5.8 16.15 -5.65 16.0 -5.25 15.7 -4.05 15.45 -2.9 15.45 -2.6 L15.75 -1.45 Q16.0 -0.45 16.0 -0.05 L16.25 -0.45 Q16.9 -1.55 16.9 -2.35 16.9 -2.7 16.6 -3.3 16.25 -3.95 16.25 -4.2 16.25 -4.45 16.6 -5.4 16.8 -6.0 17.05 -6.45 16.7 -6.1 16.5 -5.85 L16.4 -5.85 M15.05 -3.7 Q14.55 -2.55 14.55 -1.7 14.6 -1.3 14.3 -0.8 14.0 -0.3 13.5 0.15 L13.35 0.3 Q13.1 0.75 12.55 1.15 12.2 1.35 11.35 1.8 10.6 2.3 10.3 2.4 L7.7 2.8 Q7.3 3.25 7.0 3.85 L6.95 4.05 6.95 4.25 Q6.95 4.4 6.8 4.65 L6.75 4.8 7.2 5.1 Q8.05 5.1 8.85 4.45 9.25 4.1 9.45 3.75 9.65 3.4 9.45 3.25 L9.5 3.0 Q9.75 2.9 10.85 2.55 L12.05 2.2 12.55 1.85 12.7 1.75 Q12.95 1.5 13.4 1.2 14.35 0.55 14.55 0.05 14.65 -0.4 15.1 -1.2 15.2 -1.5 15.25 -1.75 L15.15 -2.05 Q15.0 -2.35 15.0 -2.55 15.0 -2.7 15.15 -3.55 L15.25 -4.1 15.05 -3.7 M12.0 2.45 Q10.95 3.0 9.65 3.25 L9.9 3.25 Q9.95 3.25 9.95 3.45 9.95 4.05 8.8 4.8 8.1 5.3 7.55 5.35 8.05 5.6 8.5 5.55 L9.3 5.4 10.2 5.3 10.25 5.3 Q10.5 5.15 10.85 4.95 L10.95 4.9 Q11.6 4.4 11.95 3.65 12.15 3.2 12.3 2.4 L12.4 2.25 12.0 2.45 M12.5 0.9 Q11.65 1.3 10.65 1.3 L8.4 1.45 Q8.15 1.45 8.05 1.7 8.0 2.0 7.95 2.0 L7.2 2.75 Q6.5 3.45 6.5 3.6 L6.55 3.7 6.65 3.95 6.75 3.8 Q6.9 3.55 7.4 2.9 7.75 2.5 8.0 2.45 L9.3 2.4 Q10.15 2.3 10.75 1.85 11.4 1.3 12.2 1.1 L12.5 0.9 M0.55 4.7 Q-0.35 5.15 -2.35 5.25 L-6.2 5.25 Q-6.55 5.25 -6.65 5.15 -7.5 5.15 -8.9 4.85 L-10.25 4.6 Q-10.45 4.55 -10.95 4.3 -11.4 4.0 -11.95 4.0 L-12.35 4.05 -13.15 4.2 -14.1 4.3 -14.15 4.3 Q-11.8 4.75 -10.0 5.45 L-6.2 5.5 Q-3.8 5.4 -0.75 5.75 L-0.75 5.7 -0.4 5.75 -0.3 5.8 0.2 5.85 Q1.65 5.85 3.4 5.5 L4.5 5.2 Q4.5 5.1 4.65 5.0 L4.5 5.0 3.45 4.85 Q3.1 4.85 3.1 4.6 L2.55 4.45 Q2.3 4.35 2.1 4.35 1.5 4.35 1.1 4.45 1.0 4.5 0.55 4.7 M0.05 6.3 Q-0.2 6.2 -0.35 6.15 -0.5 6.1 -4.8 6.1 -4.4 6.3 -3.85 6.65 L-3.8 6.75 Q-3.5 6.9 -3.35 7.15 -3.15 7.45 -3.2 7.8 L-1.75 8.05 -0.75 8.25 0.75 8.4 1.05 8.45 Q1.35 8.5 1.4 8.5 L1.75 8.5 Q1.75 8.45 2.15 8.2 2.45 7.95 2.55 7.75 L2.85 7.45 Q2.55 7.35 2.35 7.2 L1.9 6.7 Q0.5 6.5 0.05 6.3 M-14.65 -36.65 Q-15.2 -35.9 -15.5 -35.6 -16.1 -35.65 -16.55 -35.85 -17.0 -36.1 -17.1 -36.35 L-17.45 -36.35 Q-17.75 -35.9 -19.6 -34.9 -21.25 -34.0 -21.25 -33.55 L-21.0 -32.75 Q-20.8 -32.0 -20.8 -31.95 -20.8 -31.3 -21.45 -30.7 L-22.15 -29.9 -21.95 -29.9 -21.7 -30.0 -21.7 -29.95 -21.45 -30.1 -20.55 -30.0 -19.7 -30.0 -19.6 -29.9 -19.55 -29.9 Q-18.85 -30.0 -18.15 -30.3 -17.9 -30.45 -17.65 -30.55 L-16.7 -31.4 -17.3 -30.8 -17.1 -30.9 Q-17.0 -31.0 -16.55 -31.55 -16.2 -32.05 -15.9 -32.2 -15.2 -32.55 -14.85 -33.25 -14.6 -33.65 -14.55 -34.05 L-14.6 -34.05 -14.6 -34.55 Q-14.6 -34.8 -14.55 -35.0 L-14.65 -36.0 Q-14.65 -36.35 -14.65 -36.65 M-22.2 -29.8 L-22.25 -29.8 -22.3 -29.75 -22.25 -29.75 -22.2 -29.8 M-22.5 -29.75 L-22.95 -29.6 -22.55 -29.7 -22.5 -29.75 M-22.85 -29.15 Q-23.65 -28.7 -23.7 -28.25 -23.8 -27.6 -23.95 -27.35 -24.35 -26.7 -25.4 -26.4 -26.6 -26.0 -27.8 -25.0 -29.1 -23.85 -29.1 -22.9 -29.1 -22.85 -28.9 -22.4 L-28.75 -22.0 -28.75 -22.1 Q-28.75 -22.4 -28.4 -22.75 L-28.4 -22.8 -28.35 -22.8 -27.7 -23.4 Q-27.3 -23.85 -27.1 -23.95 L-26.4 -24.35 -25.45 -24.9 Q-24.9 -25.2 -24.0 -25.25 L-22.95 -25.35 -22.5 -25.35 Q-22.2 -25.35 -22.05 -25.25 L-21.5 -25.25 Q-20.8 -26.2 -19.4 -28.4 -18.75 -29.35 -18.1 -30.1 -18.7 -29.7 -19.05 -29.65 L-20.0 -29.7 -20.45 -29.8 -19.9 -29.85 -20.25 -29.85 Q-21.3 -29.85 -21.45 -29.85 L-21.95 -29.7 Q-22.25 -29.45 -22.85 -29.15 M-14.25 -34.9 L-14.3 -34.4 -14.35 -34.2 -14.3 -34.1 -14.4 -34.0 -14.5 -33.4 -14.25 -33.7 -13.5 -34.55 Q-13.0 -35.15 -12.7 -35.35 -12.4 -35.55 -11.7 -35.75 -13.45 -35.6 -13.95 -35.3 -14.2 -35.15 -14.25 -34.9 M-0.8 -41.4 Q-1.35 -41.85 -1.95 -42.1 -2.4 -42.35 -3.05 -42.55 L-5.1 -42.1 -5.9 -41.9 -5.85 -41.9 -5.8 -41.85 Q-2.55 -42.8 -0.9 -40.95 -0.65 -40.85 -0.4 -40.7 -0.65 -41.3 -0.8 -41.4 M-8.25 -40.4 Q-8.45 -40.35 -9.0 -40.05 L-10.75 -38.95 Q-11.7 -38.3 -12.15 -37.65 L-11.35 -38.0 Q-10.65 -38.35 -10.2 -38.6 -9.6 -39.2 -8.7 -39.85 L-7.7 -40.5 -8.25 -40.4 M-8.4 -40.5 L-8.3 -40.55 -8.35 -40.5 -8.4 -40.5 M-8.85 -38.95 L-8.85 -38.95 M-10.3 -38.35 L-10.1 -38.45 -10.15 -38.45 Q-10.25 -38.4 -10.3 -38.35 M-26.75 -26.65 L-26.35 -27.1 Q-26.9 -26.85 -27.5 -26.85 -28.55 -26.75 -28.65 -26.7 -29.8 -26.7 -30.8 -25.3 -31.35 -24.55 -31.85 -23.45 -32.0 -23.2 -32.05 -22.65 L-32.0 -21.7 Q-32.0 -21.45 -32.15 -20.8 L-32.3 -20.0 Q-32.3 -19.5 -32.1 -18.6 -31.9 -17.8 -31.7 -17.25 -30.65 -16.85 -29.8 -16.35 L-29.9 -16.55 Q-30.2 -16.85 -30.25 -17.25 L-30.3 -17.85 Q-30.3 -18.25 -30.35 -18.4 -30.45 -18.9 -30.55 -19.65 -30.65 -20.35 -30.65 -20.65 -30.65 -22.2 -30.3 -22.9 -30.0 -23.6 -28.4 -25.3 -28.2 -25.55 -27.8 -25.8 L-27.25 -26.15 Q-27.0 -26.35 -26.75 -26.65 M-28.7 -21.45 L-28.75 -21.4 Q-28.9 -20.8 -29.3 -19.85 -29.95 -18.5 -29.95 -17.8 -29.95 -17.7 -29.65 -17.25 -29.3 -16.75 -29.2 -16.55 -29.1 -16.25 -28.9 -15.9 L-28.85 -15.8 Q-28.5 -15.45 -28.05 -15.25 L-28.05 -15.15 -28.1 -15.15 -27.7 -14.8 Q-28.2 -15.6 -28.2 -15.95 L-28.1 -17.0 -28.0 -18.2 Q-28.1 -18.35 -28.1 -18.5 -28.1 -19.7 -27.6 -21.25 -27.35 -22.05 -27.1 -22.5 -27.0 -23.0 -26.75 -23.25 -25.95 -24.25 -25.05 -24.8 L-25.8 -24.6 -26.0 -24.45 -25.95 -24.5 -25.95 -24.4 -27.55 -23.25 -28.15 -22.55 -28.35 -22.25 Q-28.4 -22.05 -28.55 -21.75 L-28.55 -21.5 -28.7 -21.45 M-29.2 -16.0 L-29.2 -16.0 M-27.15 -20.35 L-27.2 -21.05 -27.15 -21.85 Q-27.5 -21.05 -27.6 -20.6 -27.65 -20.25 -27.65 -18.45 L-27.55 -18.7 -27.2 -19.55 Q-27.1 -19.85 -27.15 -20.35 M-27.85 -18.0 L-27.85 -18.0 M-27.1 -14.4 L-27.05 -14.6 Q-27.1 -15.0 -27.2 -15.25 -27.35 -15.7 -27.6 -16.5 -27.8 -17.35 -27.85 -17.75 L-27.8 -15.9 Q-27.8 -15.4 -27.25 -14.65 L-27.1 -14.4 M-25.9 -12.0 Q-25.65 -11.15 -25.25 -10.8 -25.0 -10.5 -24.9 -10.25 L-24.7 -9.65 Q-24.55 -9.2 -24.55 -8.95 L-24.55 -8.55 -24.4 -7.5 -24.25 -6.6 -24.15 -6.65 -24.25 -6.45 -24.2 -6.1 Q-24.05 -6.1 -24.05 -5.9 L-24.2 -5.55 -24.2 -5.45 -24.1 -5.0 Q-23.7 -3.95 -23.1 -3.95 -22.55 -3.95 -22.2 -3.75 -21.75 -3.5 -21.7 -3.5 L-21.55 -3.05 Q-21.45 -2.8 -21.45 -2.6 L-21.25 -2.35 Q-21.05 -2.1 -20.9 -1.8 -20.9 -1.65 -20.9 -1.4 L-20.9 -0.95 Q-20.9 -0.1 -20.45 0.4 L-19.95 0.95 -19.9 1.0 -20.05 0.3 Q-20.2 -0.6 -20.3 -1.55 -20.3 -2.0 -20.1 -2.9 -19.9 -3.85 -19.9 -4.35 -19.9 -5.25 -19.9 -5.35 L-20.25 -6.1 -20.3 -6.1 -20.4 -6.0 -21.9 -8.7 Q-22.9 -10.6 -23.6 -11.35 -25.3 -11.65 -25.85 -12.15 L-26.0 -12.3 -25.9 -12.0 M-24.8 -9.35 Q-24.95 -9.85 -25.4 -10.5 -25.9 -11.25 -26.0 -11.5 L-26.1 -11.75 Q-25.8 -10.7 -25.8 -10.2 -25.8 -9.65 -26.05 -9.25 -26.15 -9.05 -26.6 -8.55 -27.45 -7.55 -27.6 -6.35 -27.7 -5.5 -27.8 -4.1 L-27.85 -2.55 Q-27.85 -2.35 -27.8 -2.2 -27.75 -2.0 -27.75 -1.9 -26.95 -1.55 -26.45 -1.1 -26.25 -0.85 -25.65 -0.15 L-25.55 0.0 -25.45 0.1 -23.5 0.1 Q-23.7 -0.05 -24.15 -0.15 L-24.3 -1.1 Q-24.45 -1.8 -24.6 -2.1 -24.8 -2.4 -25.0 -3.05 -25.15 -3.7 -25.15 -4.0 L-25.25 -4.3 -25.3 -5.0 Q-25.3 -5.55 -24.65 -6.3 L-24.6 -6.5 Q-24.45 -6.9 -24.45 -7.1 -24.45 -7.45 -24.6 -8.25 L-24.8 -9.35 M-24.8 -3.75 L-24.75 -3.4 -24.35 -2.25 Q-24.15 -1.75 -24.05 -1.25 -23.9 -0.6 -23.9 -0.4 -23.5 -0.4 -23.2 -0.1 -22.95 0.25 -22.8 0.35 -22.65 0.5 -21.95 0.6 L-20.6 0.75 Q-20.85 0.3 -21.0 -0.35 -21.05 -0.6 -21.05 -1.0 -21.05 -1.45 -21.05 -1.6 -21.05 -1.75 -21.35 -2.15 -21.6 -2.6 -21.6 -2.7 -21.6 -2.95 -22.0 -3.25 -22.5 -3.6 -22.55 -3.7 -23.6 -3.25 -24.1 -4.5 -24.25 -4.85 -24.3 -5.15 -24.4 -5.0 -24.6 -4.75 -24.75 -4.25 -24.75 -3.85 L-24.8 -3.75 M-8.75 6.15 L-8.35 6.0 -10.1 5.95 Q-10.4 5.85 -11.85 5.45 L-13.7 4.9 Q-14.3 4.7 -15.45 4.6 L-16.15 4.55 -15.85 4.8 Q-15.25 5.3 -15.15 5.5 L-11.55 5.9 -8.75 6.15" fill="#ffffff" fill-rule="evenodd" stroke="none"/>
      <path d="M41.35 -26.7 L41.6 -26.45 Q41.7 -26.35 41.6 -26.15 L41.65 -25.85 Q41.9 -25.7 42.0 -25.7 L42.1 -25.7 42.2 -25.65 42.25 -25.65 42.3 -25.6 42.45 -25.35 42.5 -25.25 42.45 -25.15 42.4 -25.1 42.3 -25.1 Q41.8 -25.3 41.55 -25.45 41.0 -25.85 41.2 -26.3 L41.1 -26.35 39.6 -26.4 38.2 -26.55 38.15 -26.55 38.1 -26.65 37.95 -26.75 37.3 -26.75 37.05 -26.8 Q36.7 -26.75 36.5 -26.6 36.25 -26.45 36.15 -26.45 L34.0 -26.35 32.4 -26.5 Q32.35 -26.5 32.3 -26.55 L32.15 -26.7 Q31.7 -26.9 31.65 -26.95 L31.6 -26.95 30.55 -26.85 28.4 -26.55 28.05 -26.55 27.95 -26.6 Q27.9 -26.65 27.9 -26.7 27.85 -26.95 27.95 -27.0 L28.05 -27.05 28.3 -27.0 28.4 -26.95 Q31.65 -27.45 32.05 -27.3 32.2 -27.25 32.25 -27.0 32.3 -26.95 32.5 -26.9 L33.6 -26.85 34.45 -26.75 34.75 -26.7 Q35.1 -26.65 35.4 -26.7 35.8 -26.75 36.0 -26.9 36.3 -27.05 36.35 -27.05 L37.1 -27.15 38.1 -27.15 38.15 -27.1 Q38.4 -26.85 39.35 -26.75 39.95 -26.75 41.25 -26.75 L41.35 -26.7 M41.8 -21.9 L41.3 -21.85 Q38.65 -19.95 37.55 -18.9 37.5 -18.95 37.25 -19.0 L37.05 -19.2 Q36.9 -19.1 36.6 -19.0 36.35 -18.9 36.25 -18.8 L36.1 -18.55 35.65 -18.4 35.6 -18.35 36.15 -18.45 36.95 -19.0 37.3 -18.9 37.75 -18.8 Q38.95 -19.9 39.55 -20.35 41.3 -21.7 42.0 -21.85 L42.35 -21.9 42.75 -21.95 Q43.75 -23.45 43.75 -23.6 L43.65 -23.8 43.65 -23.75 43.3 -23.0 Q43.0 -22.3 42.65 -22.05 L42.1 -21.9 41.8 -21.9 M41.45 -26.2 Q41.55 -26.3 41.45 -26.4 L41.25 -26.6 Q39.95 -26.6 39.35 -26.65 38.3 -26.7 38.05 -27.0 L37.1 -27.0 36.35 -26.95 36.1 -26.75 Q35.85 -26.6 35.4 -26.55 35.1 -26.5 34.75 -26.55 L34.45 -26.6 33.6 -26.7 32.5 -26.75 Q32.2 -26.8 32.15 -26.95 32.05 -27.1 32.0 -27.15 31.6 -27.3 28.4 -26.8 L28.25 -26.85 28.05 -26.9 Q28.0 -26.85 28.05 -26.7 L28.35 -26.7 30.55 -27.0 31.7 -27.05 Q31.75 -27.0 32.25 -26.8 L32.4 -26.65 34.0 -26.5 Q35.5 -26.45 36.15 -26.55 36.2 -26.6 36.4 -26.75 36.65 -26.9 37.05 -26.95 L37.35 -26.9 Q37.65 -26.85 38.0 -26.9 38.2 -26.8 38.25 -26.7 L39.6 -26.55 41.2 -26.45 41.3 -26.4 41.4 -26.4 Q41.1 -25.95 41.6 -25.6 41.9 -25.4 42.35 -25.25 L42.1 -25.55 Q42.15 -25.45 41.55 -25.75 L41.45 -26.2 M41.3 -22.0 L41.75 -22.05 42.05 -22.05 42.6 -22.2 Q42.9 -22.45 43.2 -23.1 L43.5 -23.8 43.65 -23.95 43.75 -23.9 Q43.8 -23.9 43.85 -23.65 43.9 -23.45 42.9 -21.85 L42.85 -21.8 42.8 -21.8 42.35 -21.75 42.05 -21.7 Q41.35 -21.6 39.65 -20.25 L37.8 -18.7 Q37.8 -18.65 37.7 -18.65 L37.25 -18.8 37.0 -18.85 36.25 -18.35 Q36.25 -18.3 36.2 -18.3 L35.65 -18.2 35.55 -18.2 Q35.5 -18.2 35.5 -18.25 L35.45 -18.35 35.45 -18.4 Q35.5 -18.5 35.55 -18.55 L35.6 -18.55 36.0 -18.7 36.1 -18.9 36.15 -18.95 Q36.25 -19.05 36.55 -19.15 L37.0 -19.3 37.1 -19.35 37.15 -19.3 37.35 -19.15 37.55 -19.1 Q38.65 -20.1 41.2 -21.95 L41.3 -22.0 M-47.4 -8.85 L-47.4 -8.8 Q-47.45 -8.7 -47.7 -8.65 -48.0 -8.6 -48.05 -8.8 L-48.05 -8.9 -48.1 -8.9 -48.3 -8.6 -48.25 -8.5 Q-48.05 -8.4 -48.05 -8.2 L-48.05 -8.0 Q-48.1 -7.8 -48.45 -7.6 L-48.6 -7.05 Q-48.8 -6.5 -48.75 -6.3 -48.7 -6.25 -48.55 -6.05 L-48.15 -5.6 -48.15 -5.45 -48.05 -5.25 -48.05 -5.2 Q-48.05 -5.05 -48.2 -4.95 -48.35 -4.85 -48.45 -4.8 L-48.55 -4.85 -48.6 -4.9 -48.6 -5.0 Q-48.55 -5.2 -48.6 -5.45 L-48.6 -5.55 Q-48.9 -5.75 -49.15 -6.15 L-49.15 -6.2 Q-49.2 -6.4 -49.05 -7.1 L-48.85 -7.85 -48.75 -7.95 -48.4 -8.1 -48.45 -8.15 -48.55 -8.2 Q-48.65 -8.35 -48.7 -8.55 -48.75 -8.9 -48.55 -9.15 -48.25 -9.45 -47.8 -9.3 L-47.7 -9.25 -47.7 -9.15 -47.65 -9.15 Q-47.4 -9.15 -47.35 -9.05 L-47.35 -8.9 -47.4 -8.85 M-40.85 -12.4 Q-40.9 -12.4 -41.15 -12.4 L-41.45 -12.35 Q-41.75 -12.0 -41.9 -11.95 L-43.0 -11.85 -43.6 -11.35 Q-44.05 -11.05 -44.8 -10.75 L-44.85 -10.9 -45.15 -10.85 -45.3 -10.6 -45.45 -10.3 -45.3 -10.3 Q-45.2 -10.4 -45.1 -10.55 L-44.9 -10.8 -44.9 -10.7 Q-44.5 -10.5 -43.9 -10.9 -43.15 -11.5 -42.75 -11.75 -41.65 -11.8 -41.5 -12.0 -41.3 -12.3 -40.85 -12.4 M-47.65 -9.05 L-47.7 -9.0 -47.8 -8.95 -47.85 -9.15 Q-48.2 -9.3 -48.45 -9.05 -48.6 -8.85 -48.55 -8.55 -48.55 -8.4 -48.45 -8.3 L-48.3 -8.15 -48.35 -8.0 -48.7 -7.85 -48.9 -7.1 Q-49.05 -6.4 -49.05 -6.25 -48.75 -5.8 -48.5 -5.65 L-48.45 -5.5 Q-48.4 -5.2 -48.45 -4.95 -48.4 -4.95 -48.3 -5.05 -48.2 -5.15 -48.2 -5.2 L-48.25 -5.4 Q-48.35 -5.55 -48.45 -5.6 -48.35 -5.55 -48.25 -5.5 L-48.65 -5.95 Q-48.85 -6.15 -48.9 -6.25 -48.95 -6.5 -48.75 -7.1 -48.6 -7.65 -48.6 -7.7 -48.25 -7.9 -48.2 -8.05 L-48.2 -8.2 Q-48.2 -8.3 -48.3 -8.4 -48.45 -8.45 -48.45 -8.6 -48.5 -8.7 -48.2 -9.05 L-47.9 -9.05 -47.9 -8.85 Q-47.85 -8.8 -47.7 -8.8 -47.55 -8.85 -47.5 -8.9 L-47.5 -8.95 Q-47.5 -9.0 -47.65 -9.05 M-41.2 -12.55 Q-40.8 -12.6 -40.75 -12.5 L-40.75 -12.4 Q-40.75 -12.35 -40.75 -12.3 -40.8 -12.25 -40.85 -12.25 -41.2 -12.15 -41.4 -11.9 -41.55 -11.65 -42.7 -11.6 -43.1 -11.4 -43.8 -10.8 -44.5 -10.35 -44.95 -10.55 L-45.0 -10.45 Q-45.1 -10.3 -45.2 -10.2 L-45.3 -10.2 -45.45 -10.15 -45.55 -10.2 -45.6 -10.25 -45.6 -10.35 -45.4 -10.65 -45.25 -10.9 -45.25 -10.95 -45.15 -11.0 -44.9 -11.05 -44.8 -11.05 -44.7 -10.95 Q-44.05 -11.2 -43.65 -11.45 L-43.05 -11.95 -43.0 -11.95 -41.9 -12.1 Q-41.8 -12.15 -41.55 -12.45 L-41.45 -12.5 -41.2 -12.55 M-36.95 -4.0 L-37.0 -3.8 -36.85 -3.8 -36.6 -3.95 Q-36.3 -4.1 -35.85 -4.2 -35.7 -4.0 -34.8 -3.8 -33.75 -3.55 -33.0 -3.7 L-32.85 -3.85 Q-32.65 -4.05 -32.4 -4.1 L-31.9 -4.1 -31.5 -4.0 -31.2 -4.15 Q-30.9 -4.3 -30.4 -4.45 -30.4 -4.55 -30.3 -4.65 L-30.15 -4.75 -29.9 -4.75 -29.8 -4.7 Q-29.9 -4.3 -29.3 -4.05 -28.8 -3.8 -27.9 -3.75 L-27.65 -4.0 Q-27.35 -4.25 -26.95 -4.3 L-26.45 -4.35 -25.75 -4.35 -25.7 -4.4 -25.95 -4.45 -26.15 -4.4 -26.75 -4.4 -27.4 -4.35 -28.05 -4.2 -28.0 -3.95 Q-27.9 -3.9 -27.95 -3.9 L-28.15 -3.85 Q-28.6 -3.75 -29.2 -4.15 -29.7 -4.55 -29.75 -4.85 L-30.1 -4.9 -30.35 -4.8 Q-30.4 -4.55 -31.0 -4.3 -31.35 -4.15 -31.65 -4.1 L-32.15 -4.3 -32.75 -4.15 -32.85 -4.0 Q-32.9 -3.9 -33.05 -3.85 -33.45 -3.8 -34.4 -3.9 -35.45 -4.0 -35.8 -4.3 L-36.5 -4.15 -36.95 -4.0 M-37.0 -4.1 L-36.55 -4.25 -35.8 -4.45 -35.75 -4.45 -35.7 -4.4 Q-35.35 -4.15 -34.35 -4.05 L-33.1 -4.0 Q-33.0 -4.0 -32.95 -4.05 L-32.9 -4.2 -32.85 -4.3 -32.8 -4.3 -32.2 -4.45 -32.15 -4.45 -31.85 -4.3 -31.7 -4.2 -31.1 -4.4 Q-30.55 -4.65 -30.5 -4.85 L-30.4 -4.95 -30.1 -5.0 -30.05 -5.0 -29.95 -4.95 -29.75 -5.0 -29.7 -4.95 Q-29.65 -4.95 -29.65 -4.9 -29.55 -4.6 -29.1 -4.3 -28.6 -3.9 -28.15 -3.95 L-28.2 -4.15 -28.15 -4.25 -28.1 -4.3 -27.45 -4.5 -26.75 -4.55 -25.95 -4.55 Q-25.65 -4.55 -25.6 -4.5 L-25.55 -4.45 Q-25.55 -4.4 -25.55 -4.35 -25.6 -4.3 -25.65 -4.3 L-25.7 -4.25 -25.75 -4.25 -26.45 -4.2 -26.95 -4.15 Q-27.3 -4.1 -27.55 -3.9 L-27.8 -3.65 -27.85 -3.65 -27.9 -3.6 Q-28.85 -3.65 -29.4 -3.9 -30.0 -4.2 -30.0 -4.65 L-30.2 -4.55 -30.25 -4.4 -30.3 -4.35 Q-30.3 -4.3 -30.35 -4.3 -30.85 -4.15 -31.15 -4.0 L-31.4 -3.9 -31.45 -3.85 -31.5 -3.85 Q-31.7 -3.85 -31.95 -3.95 L-32.4 -3.95 Q-32.6 -3.9 -32.75 -3.75 L-32.9 -3.6 -33.0 -3.55 Q-33.7 -3.4 -34.8 -3.65 -35.65 -3.85 -35.9 -4.05 -36.25 -3.95 -36.5 -3.8 L-36.75 -3.7 -36.8 -3.65 -37.1 -3.65 -37.15 -3.75 -37.15 -3.85 -37.1 -4.0 -37.0 -4.1" fill="#ffffff" fill-opacity="0.5019608" fill-rule="evenodd" stroke="none"/>
      <path d="M41.45 -26.2 L41.55 -25.75 Q42.15 -25.45 42.1 -25.55 L42.35 -25.25 Q41.9 -25.4 41.6 -25.6 41.1 -25.95 41.4 -26.4 L41.3 -26.4 41.2 -26.45 39.6 -26.55 38.25 -26.7 Q38.2 -26.8 38.0 -26.9 37.65 -26.85 37.35 -26.9 L37.05 -26.95 Q36.65 -26.9 36.4 -26.75 36.2 -26.6 36.15 -26.55 35.5 -26.45 34.0 -26.5 L32.4 -26.65 32.25 -26.8 Q31.75 -27.0 31.7 -27.05 L30.55 -27.0 28.35 -26.7 28.05 -26.7 Q28.0 -26.85 28.05 -26.9 L28.25 -26.85 28.4 -26.8 Q31.6 -27.3 32.0 -27.15 32.05 -27.1 32.15 -26.95 32.2 -26.8 32.5 -26.75 L33.6 -26.7 34.45 -26.6 34.75 -26.55 Q35.1 -26.5 35.4 -26.55 35.85 -26.6 36.1 -26.75 L36.35 -26.95 37.1 -27.0 38.05 -27.0 Q38.3 -26.7 39.35 -26.65 39.95 -26.6 41.25 -26.6 L41.45 -26.4 Q41.55 -26.3 41.45 -26.2 M41.8 -21.9 L42.1 -21.9 42.65 -22.05 Q43.0 -22.3 43.3 -23.0 L43.65 -23.75 43.65 -23.8 43.75 -23.6 Q43.75 -23.45 42.75 -21.95 L42.35 -21.9 42.0 -21.85 Q41.3 -21.7 39.55 -20.35 38.95 -19.9 37.75 -18.8 L37.3 -18.9 36.95 -19.0 36.15 -18.45 35.6 -18.35 35.65 -18.4 36.1 -18.55 36.25 -18.8 Q36.35 -18.9 36.6 -19.0 36.9 -19.1 37.05 -19.2 L37.25 -19.0 Q37.5 -18.95 37.55 -18.9 38.65 -19.95 41.3 -21.85 L41.8 -21.9 M-47.65 -9.05 Q-47.5 -9.0 -47.5 -8.95 L-47.5 -8.9 Q-47.55 -8.85 -47.7 -8.8 -47.85 -8.8 -47.9 -8.85 L-47.9 -9.05 -48.2 -9.05 Q-48.5 -8.7 -48.45 -8.6 -48.45 -8.45 -48.3 -8.4 -48.2 -8.3 -48.2 -8.2 L-48.2 -8.05 Q-48.25 -7.9 -48.6 -7.7 -48.6 -7.65 -48.75 -7.1 -48.95 -6.5 -48.9 -6.25 -48.85 -6.15 -48.65 -5.95 L-48.25 -5.5 Q-48.35 -5.55 -48.45 -5.6 -48.35 -5.55 -48.25 -5.4 L-48.2 -5.2 Q-48.2 -5.15 -48.3 -5.05 -48.4 -4.95 -48.45 -4.95 -48.4 -5.2 -48.45 -5.5 L-48.5 -5.65 Q-48.75 -5.8 -49.05 -6.25 -49.05 -6.4 -48.9 -7.1 L-48.7 -7.85 -48.35 -8.0 -48.3 -8.15 -48.45 -8.3 Q-48.55 -8.4 -48.55 -8.55 -48.6 -8.85 -48.45 -9.05 -48.2 -9.3 -47.85 -9.15 L-47.8 -8.95 -47.7 -9.0 -47.65 -9.05 M-40.85 -12.4 Q-41.3 -12.3 -41.5 -12.0 -41.65 -11.8 -42.75 -11.75 -43.15 -11.5 -43.9 -10.9 -44.5 -10.5 -44.9 -10.7 L-44.9 -10.8 -45.1 -10.55 Q-45.2 -10.4 -45.3 -10.3 L-45.45 -10.3 -45.3 -10.6 -45.15 -10.85 -44.85 -10.9 -44.8 -10.75 Q-44.05 -11.05 -43.6 -11.35 L-43.0 -11.85 -41.9 -11.95 Q-41.75 -12.0 -41.45 -12.35 L-41.15 -12.4 Q-40.9 -12.4 -40.85 -12.4 M-36.95 -4.0 L-36.5 -4.15 -35.8 -4.3 Q-35.45 -4.0 -34.4 -3.9 -33.45 -3.8 -33.05 -3.85 -32.9 -3.9 -32.85 -4.0 L-32.75 -4.15 -32.15 -4.3 -31.65 -4.1 Q-31.35 -4.15 -31.0 -4.3 -30.4 -4.55 -30.35 -4.8 L-30.1 -4.9 -29.75 -4.85 Q-29.7 -4.55 -29.2 -4.15 -28.6 -3.75 -28.15 -3.85 L-27.95 -3.9 Q-27.9 -3.9 -28.0 -3.95 L-28.05 -4.2 -27.4 -4.35 -26.75 -4.4 -26.15 -4.4 -25.95 -4.45 -25.7 -4.4 -25.75 -4.35 -26.45 -4.35 -26.95 -4.3 Q-27.35 -4.25 -27.65 -4.0 L-27.9 -3.75 Q-28.8 -3.8 -29.3 -4.05 -29.9 -4.3 -29.8 -4.7 L-29.9 -4.75 -30.15 -4.75 -30.3 -4.65 Q-30.4 -4.55 -30.4 -4.45 -30.9 -4.3 -31.2 -4.15 L-31.5 -4.0 -31.9 -4.1 -32.4 -4.1 Q-32.65 -4.05 -32.85 -3.85 L-33.0 -3.7 Q-33.75 -3.55 -34.8 -3.8 -35.7 -4.0 -35.85 -4.2 -36.3 -4.1 -36.6 -3.95 L-36.85 -3.8 -37.0 -3.8 -36.95 -4.0" fill="#ffffff" fill-rule="evenodd" stroke="none"/>
    </g>
    <g id="shape5" transform="matrix(1.0, 0.0, 0.0, 1.0, 46.85, 4.6)">
      <path d="M39.35 -4.05 Q41.15 -3.6 42.1 -3.45 42.1 -3.4 42.3 -3.35 L42.45 -3.2 42.4 -3.2 Q41.95 -3.35 39.8 -3.75 L36.15 -4.45 36.2 -4.55 36.25 -4.6 Q37.8 -4.4 39.35 -4.05 M44.6 2.4 Q43.0 3.15 38.7 3.9 42.35 3.05 44.4 2.05 46.25 1.1 46.85 -0.05 L46.9 0.2 Q45.8 1.75 44.6 2.4 M21.1 6.25 L21.95 6.25 22.2 6.2 21.9 6.3 21.1 6.5 20.1 6.55 17.2 6.75 16.7 6.7 16.5 6.7 18.45 6.55 20.95 6.3 21.1 6.25 M-46.35 -0.8 Q-46.65 -0.25 -46.55 0.2 L-46.7 0.2 -46.8 0.15 Q-46.85 0.15 -46.85 -0.1 -46.85 -0.7 -46.5 -1.15 -46.2 -1.55 -45.55 -1.9 L-46.35 -0.8 M-42.25 -3.2 Q-41.25 -3.7 -40.55 -3.9 L-39.55 -4.1 Q-40.05 -3.95 -40.55 -3.65 -41.45 -3.45 -41.85 -3.2 L-42.25 -3.2 M-36.95 -4.5 L-37.3 -4.5 -36.75 -4.55 -36.95 -4.5 M-3.0 7.2 L-5.7 7.05 -3.25 7.05 -1.3 7.2 Q-1.4 7.25 -3.0 7.2 M-26.35 5.95 L-29.05 5.6 -30.25 5.45 -30.2 5.45 -30.5 5.4 -34.1 4.85 -34.0 4.75 -26.4 5.8 -26.35 5.95" fill="#ffffff" fill-opacity="0.0" fill-rule="evenodd" stroke="none"/>
    </g>
  </defs>
</svg>
