<?xml version="1.0" encoding="UTF-8" standalone="no"?>
<svg xmlns:ffdec="https://www.free-decompiler.com/flash" xmlns:xlink="http://www.w3.org/1999/xlink" ffdec:objectType="frame" height="102.2px" width="129.5px" xmlns="http://www.w3.org/2000/svg">
  <g transform="matrix(1.0, 0.0, 0.0, 1.0, 67.2, 103.95)">
    <use ffdec:characterId="572" height="14.6" transform="matrix(7.0, 0.0, 0.0, 7.0, -67.2, -103.95)" width="18.5" xlink:href="#shape0"/>
  </g>
  <defs>
    <g id="shape0" transform="matrix(1.0, 0.0, 0.0, 1.0, 9.6, 14.85)">
      <path d="M0.35 -9.1 L0.15 -9.05 Q-0.45 -8.95 -0.45 -8.6 L-0.4 -8.35 Q-0.3 -8.2 0.0 -8.2 0.3 -8.2 0.75 -8.4 L0.9 -8.15 -0.25 -7.4 -0.15 -7.45 Q-1.85 -7.45 -1.85 -6.95 -1.85 -6.9 -1.4 -6.65 -2.15 -6.15 -2.5 -6.0 L-2.5 -6.05 Q-2.5 -6.4 -3.0 -6.65 -3.4 -6.85 -4.0 -6.85 -4.6 -6.85 -5.0 -6.65 -5.4 -6.45 -5.45 -6.1 L-5.3 -6.15 Q-6.2 -6.1 -7.0 -5.85 -7.95 -5.55 -7.95 -5.3 L-7.6 -4.9 -7.55 -4.45 Q-7.5 -4.3 -7.15 -4.1 L-6.7 -3.9 Q-5.55 -2.7 -5.0 -2.7 -4.85 -2.7 -4.45 -2.85 L-3.9 -3.0 -2.7 -3.1 Q-2.2 -3.1 0.0 -2.35 L2.15 -1.55 Q2.8 -1.55 4.75 -2.2 6.75 -2.9 6.75 -3.25 L6.75 -3.45 6.4 -3.45 Q6.1 -3.45 5.95 -3.65 5.9 -3.75 5.9 -3.9 5.9 -4.15 6.15 -4.35 6.45 -4.55 6.8 -4.65 L6.85 -4.65 Q6.75 -5.25 6.4 -6.35 6.35 -5.9 6.0 -5.75 5.95 -5.8 5.8 -6.2 L5.7 -6.6 Q5.7 -7.0 6.05 -6.9 L6.25 -6.8 6.1 -7.25 Q5.25 -9.7 5.25 -9.25 5.25 -9.85 5.0 -9.95 L4.9 -9.95 Q4.55 -10.45 3.95 -10.95 2.75 -12.0 0.95 -12.75 -0.85 -13.45 -2.1 -13.45 -3.45 -13.45 -3.45 -12.5 -3.45 -12.1 -3.0 -11.85 L-1.9 -11.6 Q-1.1 -11.45 -0.7 -11.15 -0.25 -10.9 -0.05 -10.5 L-0.45 -10.2 Q-0.8 -9.9 -0.8 -9.85 -0.8 -9.65 -0.65 -9.5 -0.45 -9.3 -0.05 -9.3 0.1 -9.3 0.35 -9.4 L0.4 -9.2 0.5 -9.2 Q0.35 -9.15 0.3 -9.05 L0.35 -9.1 M3.3 -11.65 Q4.35 -10.9 5.35 -10.0 L6.2 -9.2 Q6.45 -8.85 7.25 -6.8 8.05 -4.55 8.05 -3.85 8.05 -3.4 7.9 -2.75 L7.7 -2.15 7.7 -2.1 6.6 -1.7 Q4.8 -1.05 3.9 -1.05 0.75 -1.05 0.0 -1.6 -0.5 -1.95 -0.6 -2.0 L-1.15 -2.1 Q-1.65 -2.3 -1.95 -2.3 L-2.65 -2.3 Q-3.4 -2.3 -4.6 -2.1 L-5.0 -2.05 Q-5.65 -2.1 -6.0 -2.3 L-6.25 -2.45 Q-6.35 -2.55 -6.65 -2.9 -6.9 -3.25 -7.25 -3.5 L-7.55 -3.9 -8.25 -4.6 Q-8.25 -5.55 -8.15 -6.35 L-7.65 -7.25 -6.3 -9.65 Q-5.55 -11.15 -4.3 -12.85 L-3.6 -13.8 Q-2.9 -13.95 -1.9 -13.95 0.15 -13.95 3.3 -11.65 M5.4 -4.65 Q5.4 -4.55 5.35 -4.45 5.25 -4.3 5.05 -4.3 L4.9 -4.3 4.8 -4.4 4.8 -4.45 Q4.8 -4.5 4.8 -4.6 4.8 -4.9 5.1 -4.95 5.4 -5.0 5.4 -4.65 M2.9 -2.65 Q2.9 -2.75 2.9 -2.85 2.9 -3.2 3.35 -3.3 3.85 -3.4 3.85 -3.0 3.85 -2.8 3.65 -2.65 3.45 -2.45 3.2 -2.45 3.0 -2.45 2.9 -2.65 M-1.3 -10.2 Q-1.2 -10.3 -1.2 -10.4 -1.2 -10.7 -1.55 -10.65 -1.85 -10.55 -1.85 -10.35 L-1.85 -10.2 Q-1.8 -10.1 -1.55 -10.1 -1.4 -10.1 -1.3 -10.2 M-3.4 -7.4 L-3.35 -7.15 Q-3.2 -6.9 -2.95 -6.9 -2.45 -6.9 -1.7 -7.4 -0.95 -7.85 -0.95 -8.1 -0.95 -8.3 -1.15 -8.4 -1.2 -8.85 -1.85 -8.6 -2.1 -8.5 -2.3 -8.35 -2.7 -8.2 -3.0 -8.0 -3.4 -7.7 -3.4 -7.4 M-4.7 -7.45 L-4.55 -7.4 Q-4.35 -7.4 -4.05 -7.65 -3.75 -7.95 -3.75 -8.05 -3.75 -8.45 -4.3 -8.25 -4.85 -8.05 -4.85 -7.7 L-4.8 -7.55 -4.8 -7.5 -4.7 -7.45" fill="#cc8a28" fill-rule="evenodd" stroke="none"/>
      <path d="M0.35 -9.1 L0.3 -9.05 Q0.35 -9.15 0.5 -9.2 L0.4 -9.2 0.35 -9.4 Q0.1 -9.3 -0.05 -9.3 -0.45 -9.3 -0.65 -9.5 -0.8 -9.65 -0.8 -9.85 -0.8 -9.9 -0.45 -10.2 L-0.05 -10.5 Q-0.25 -10.9 -0.7 -11.15 -1.1 -11.45 -1.9 -11.6 L-3.0 -11.85 Q-3.45 -12.1 -3.45 -12.5 -3.45 -13.45 -2.1 -13.45 -0.85 -13.45 0.95 -12.75 2.75 -12.0 3.95 -10.95 4.55 -10.45 4.9 -9.95 L5.0 -9.95 Q5.25 -9.85 5.25 -9.25 5.25 -9.7 6.1 -7.25 L6.25 -6.8 6.05 -6.9 Q5.7 -7.0 5.7 -6.6 L5.8 -6.2 Q5.95 -5.8 6.0 -5.75 6.35 -5.9 6.4 -6.35 6.75 -5.25 6.85 -4.65 L6.8 -4.65 Q6.45 -4.55 6.15 -4.35 5.9 -4.15 5.9 -3.9 5.9 -3.75 5.95 -3.65 6.1 -3.45 6.4 -3.45 L6.75 -3.45 6.75 -3.25 Q6.75 -2.9 4.75 -2.2 2.8 -1.55 2.15 -1.55 L0.0 -2.35 Q-2.2 -3.1 -2.7 -3.1 L-3.9 -3.0 -4.45 -2.85 Q-4.85 -2.7 -5.0 -2.7 -5.55 -2.7 -6.7 -3.9 L-7.15 -4.1 Q-7.5 -4.3 -7.55 -4.45 L-7.6 -4.9 -7.95 -5.3 Q-7.95 -5.55 -7.0 -5.85 -6.2 -6.1 -5.3 -6.15 L-5.45 -6.1 Q-5.4 -6.45 -5.0 -6.65 -4.6 -6.85 -4.0 -6.85 -3.4 -6.85 -3.0 -6.65 -2.5 -6.4 -2.5 -6.05 L-2.5 -6.0 Q-2.15 -6.15 -1.4 -6.65 -1.85 -6.9 -1.85 -6.95 -1.85 -7.45 -0.15 -7.45 L-0.25 -7.4 0.9 -8.15 0.75 -8.4 Q0.3 -8.2 0.0 -8.2 -0.3 -8.2 -0.4 -8.35 L-0.45 -8.6 Q-0.45 -8.95 0.15 -9.05 L0.35 -9.1 M2.9 -2.65 Q3.0 -2.45 3.2 -2.45 3.45 -2.45 3.65 -2.65 3.85 -2.8 3.85 -3.0 3.85 -3.4 3.35 -3.3 2.9 -3.2 2.9 -2.85 2.9 -2.75 2.9 -2.65 M5.4 -4.65 Q5.4 -5.0 5.1 -4.95 4.8 -4.9 4.8 -4.6 4.8 -4.5 4.8 -4.45 L4.8 -4.4 4.9 -4.3 5.05 -4.3 Q5.25 -4.3 5.35 -4.45 5.4 -4.55 5.4 -4.65 M-4.7 -7.45 L-4.8 -7.5 -4.8 -7.55 -4.85 -7.7 Q-4.85 -8.05 -4.3 -8.25 -3.75 -8.45 -3.75 -8.05 -3.75 -7.95 -4.05 -7.65 -4.35 -7.4 -4.55 -7.4 L-4.7 -7.45 M-3.4 -7.4 Q-3.4 -7.7 -3.0 -8.0 -2.7 -8.2 -2.3 -8.35 -2.1 -8.5 -1.85 -8.6 -1.2 -8.85 -1.15 -8.4 -0.95 -8.3 -0.95 -8.1 -0.95 -7.85 -1.7 -7.4 -2.45 -6.9 -2.95 -6.9 -3.2 -6.9 -3.35 -7.15 L-3.4 -7.4 M-1.3 -10.2 Q-1.4 -10.1 -1.55 -10.1 -1.8 -10.1 -1.85 -10.2 L-1.85 -10.35 Q-1.85 -10.55 -1.55 -10.65 -1.2 -10.7 -1.2 -10.4 -1.2 -10.3 -1.3 -10.2" fill="#805619" fill-rule="evenodd" stroke="none"/>
      <path d="M7.35 -8.15 Q7.35 -7.95 7.6 -7.35 L8.15 -6.1 Q8.9 -4.25 8.9 -2.8 8.9 -2.55 8.65 -2.1 8.55 -1.85 8.4 -1.7 8.05 -1.35 7.1 -0.9 5.7 -0.25 4.75 -0.25 2.35 -0.25 0.55 -0.6 L-0.2 -1.3 Q-0.35 -1.55 -1.0 -1.75 L-1.45 -1.75 -2.1 -1.8 Q-2.8 -1.8 -5.45 -1.4 L-5.5 -1.4 -5.8 -1.3 -6.05 -1.2 -6.15 -1.4 -6.5 -1.9 -6.7 -2.1 -7.45 -2.9 -8.55 -3.65 Q-9.3 -4.2 -9.45 -4.45 L-9.55 -4.45 Q-9.6 -4.6 -9.6 -5.1 -9.6 -5.45 -8.75 -7.15 L-8.05 -8.9 Q-7.55 -9.45 -7.05 -10.15 -6.25 -11.3 -5.9 -12.2 L-5.6 -12.6 -5.0 -13.35 Q-4.75 -13.8 -4.7 -14.15 -4.65 -14.4 -4.5 -14.55 L-4.25 -14.65 -3.6 -14.85 Q-3.45 -14.85 -3.35 -14.75 L-0.5 -14.35 Q0.2 -14.25 0.95 -14.0 1.55 -13.75 2.0 -13.4 2.35 -13.25 2.7 -13.1 L3.3 -12.6 Q5.4 -10.85 6.3 -10.0 6.95 -8.8 7.35 -8.2 L7.35 -8.15 M3.3 -11.65 Q0.15 -13.95 -1.9 -13.95 -2.9 -13.95 -3.6 -13.8 L-4.3 -12.85 Q-5.55 -11.15 -6.3 -9.65 L-7.65 -7.25 -8.15 -6.35 Q-8.25 -5.55 -8.25 -4.6 L-7.55 -3.9 -7.25 -3.5 Q-6.9 -3.25 -6.65 -2.9 -6.35 -2.55 -6.25 -2.45 L-6.0 -2.3 Q-5.65 -2.1 -5.0 -2.05 L-4.6 -2.1 Q-3.4 -2.3 -2.65 -2.3 L-1.95 -2.3 Q-1.65 -2.3 -1.15 -2.1 L-0.6 -2.0 Q-0.5 -1.95 0.0 -1.6 0.75 -1.05 3.9 -1.05 4.8 -1.05 6.6 -1.7 L7.7 -2.1 7.7 -2.15 7.9 -2.75 Q8.05 -3.4 8.05 -3.85 8.05 -4.55 7.25 -6.8 6.45 -8.85 6.2 -9.2 L5.35 -10.0 Q4.35 -10.9 3.3 -11.65" fill="#111111" fill-rule="evenodd" stroke="none"/>
    </g>
  </defs>
</svg>
