<?xml version="1.0" encoding="UTF-8" standalone="no"?>
<svg xmlns:ffdec="https://www.free-decompiler.com/flash" xmlns:xlink="http://www.w3.org/1999/xlink" ffdec:objectType="frame" height="166.25px" width="95.9px" xmlns="http://www.w3.org/2000/svg">
  <g transform="matrix(1.0, 0.0, 0.0, 1.0, 3.15, -4.2)">
    <use ffdec:characterId="121" height="23.75" transform="matrix(7.0, 0.0, 0.0, 7.0, -3.15, 4.2)" width="13.7" xlink:href="#shape0"/>
  </g>
  <defs>
    <g id="shape0" transform="matrix(1.0, 0.0, 0.0, 1.0, 0.45, -0.6)">
      <path d="M11.6 8.1 L11.6 8.15 Q12.05 9.05 12.3 9.95 12.35 10.35 12.35 10.7 L12.35 10.75 12.2 10.95 12.2 10.25 Q12.2 10.05 12.15 10.0 L11.95 9.9 11.65 10.2 11.65 10.35 11.55 9.8 Q11.45 9.8 11.4 9.85 L11.45 10.45 Q10.65 11.25 9.85 12.4 9.4 12.75 8.85 13.45 7.85 14.7 7.85 15.05 L8.15 15.7 8.25 15.9 8.4 16.4 8.4 16.5 8.35 16.5 7.7 17.55 7.7 17.6 7.45 17.9 7.1 18.25 6.95 18.3 6.95 18.4 6.9 18.5 7.45 18.35 Q7.95 18.4 8.5 17.8 9.0 17.45 9.4 16.95 9.95 16.05 10.45 15.45 10.4 15.75 10.4 16.0 L10.4 16.35 Q10.4 16.4 10.65 16.4 10.35 17.35 9.9 18.25 9.35 19.3 7.95 20.75 7.2 21.5 5.6 23.0 L5.7 22.85 5.7 22.6 Q5.7 22.5 6.15 20.55 6.15 20.1 6.4 19.8 L6.3 19.55 Q5.55 20.25 4.5 21.75 3.5 23.1 3.25 24.0 L3.05 23.85 Q2.9 23.65 2.85 23.45 L2.8 23.3 Q3.0 22.9 3.25 22.05 3.2 21.75 3.2 21.6 3.2 20.05 3.85 18.45 3.9 17.85 4.05 17.3 L4.0 17.15 4.0 16.85 3.9 16.4 Q3.9 14.7 4.95 12.45 L5.3 11.7 5.65 11.15 5.7 10.95 5.75 10.85 Q6.2 9.3 6.25 8.9 5.95 9.15 5.45 10.35 L5.0 9.85 5.05 9.75 Q5.4 9.0 5.65 8.7 6.55 7.5 9.15 7.5 9.85 7.5 11.6 8.1 M7.35 24.15 Q7.7 24.1 8.15 23.8 7.85 24.1 7.2 24.25 L7.35 24.15 M3.6 10.9 L3.3 10.5 3.3 10.45 3.6 10.9" fill="#4c9999" fill-rule="evenodd" stroke="none"/>
      <path d="M12.35 10.75 Q12.35 10.9 12.45 11.25 L12.5 11.3 Q12.6 11.65 12.6 11.85 L12.6 11.9 Q12.6 12.35 12.4 13.05 12.35 14.0 12.15 15.25 L12.35 14.95 11.95 16.85 11.85 17.2 11.6 18.1 Q11.1 19.65 10.15 20.75 L9.2 21.7 Q8.75 22.05 8.3 22.35 L8.1 22.45 Q8.15 22.6 8.25 22.65 L6.95 24.0 7.0 24.1 7.3 24.15 7.35 24.15 7.2 24.25 7.05 24.3 4.6 24.35 4.1 24.35 3.95 24.3 3.9 24.3 Q3.5 24.2 3.25 24.0 3.5 23.1 4.5 21.75 5.55 20.25 6.3 19.55 L6.4 19.8 Q6.15 20.1 6.15 20.55 5.7 22.5 5.7 22.6 L5.7 22.85 5.6 23.0 Q7.2 21.5 7.95 20.75 9.35 19.3 9.9 18.25 10.35 17.35 10.65 16.4 10.4 16.4 10.4 16.35 L10.4 16.0 Q10.4 15.75 10.45 15.45 9.95 16.05 9.4 16.95 9.0 17.45 8.5 17.8 7.95 18.4 7.45 18.35 L6.9 18.5 6.95 18.4 7.0 18.45 7.05 18.45 7.15 18.4 Q8.4 17.8 9.2 16.85 9.7 16.3 9.9 15.75 L10.0 15.65 10.35 15.35 Q11.0 14.95 11.45 14.0 11.9 12.95 11.9 12.0 L11.9 11.85 Q11.85 11.4 11.65 10.35 L11.65 10.2 11.95 9.9 12.15 10.0 Q12.2 10.05 12.2 10.25 L12.2 10.95 12.35 10.75 M5.45 10.35 L5.3 10.7 5.0 11.5 4.8 11.75 4.75 11.75 4.65 11.55 Q4.3 10.95 3.9 11.15 L3.65 10.9 3.6 10.9 3.3 10.45 3.3 10.5 Q2.65 9.8 2.2 8.8 L2.0 8.4 2.0 8.35 1.95 8.3 1.75 7.75 Q1.55 7.15 1.25 6.85 0.85 6.1 0.45 5.65 0.35 5.65 0.35 5.7 0.1 5.2 0.1 4.65 0.1 3.5 0.5 2.6 1.25 1.05 3.05 1.05 4.15 1.05 4.9 1.6 L4.9 1.75 5.25 1.9 5.55 2.15 Q5.8 2.35 6.05 2.35 L6.2 2.35 7.2 3.35 7.55 3.65 8.7 4.75 9.85 5.9 10.55 6.7 10.75 6.9 Q11.15 7.45 11.5 7.95 L11.6 8.1 Q9.85 7.5 9.15 7.5 6.55 7.5 5.65 8.7 5.4 9.0 5.05 9.75 L5.0 9.85 5.45 10.35 M7.1 18.25 L7.45 17.9 7.7 17.6 7.7 17.55 8.35 16.5 8.4 16.5 8.4 16.4 8.25 15.9 8.15 15.7 7.85 15.05 Q7.85 14.7 8.85 13.45 9.4 12.75 9.85 12.4 10.65 11.25 11.45 10.45 11.5 12.05 11.35 12.7 11.1 14.15 9.95 15.2 9.8 15.2 9.65 15.35 9.45 15.9 9.1 16.55 8.35 18.0 7.1 18.25" fill="#397373" fill-rule="evenodd" stroke="none"/>
      <path d="M12.35 10.75 L12.35 10.7 Q12.35 10.35 12.3 9.95 12.05 9.05 11.6 8.15 L11.6 8.1 11.5 7.95 Q11.15 7.45 10.75 6.9 L10.55 6.7 9.85 5.9 8.7 4.75 7.55 3.65 7.2 3.35 6.2 2.35 6.05 2.35 Q5.8 2.35 5.55 2.15 L5.25 1.9 4.9 1.75 4.9 1.6 Q4.15 1.05 3.05 1.05 1.25 1.05 0.5 2.6 0.1 3.5 0.1 4.65 0.1 5.2 0.35 5.7 0.35 5.65 0.45 5.65 0.85 6.1 1.25 6.85 1.55 7.15 1.75 7.75 L1.95 8.3 2.0 8.35 2.0 8.4 2.2 8.8 Q2.65 9.8 3.3 10.5 L3.6 10.9 3.65 10.9 3.9 11.15 Q4.3 10.95 4.65 11.55 L4.75 11.75 4.8 11.75 5.0 11.5 5.3 10.7 5.45 10.35 Q5.95 9.15 6.25 8.9 6.2 9.3 5.75 10.85 L5.7 10.95 5.65 11.15 5.3 11.7 4.95 12.45 Q3.9 14.7 3.9 16.4 L4.0 16.85 4.0 17.15 4.05 17.3 Q3.9 17.85 3.85 18.45 3.2 20.05 3.2 21.6 3.2 21.75 3.25 22.05 3.0 22.9 2.8 23.3 L2.6 23.6 Q2.45 23.45 2.4 23.35 L2.35 22.95 Q2.35 22.75 2.65 21.4 2.7 19.9 2.9 18.9 3.05 18.2 3.35 17.65 3.15 16.5 3.15 16.15 3.15 14.95 4.0 13.15 L4.15 12.9 Q4.05 12.65 4.05 12.5 L4.05 12.45 Q3.2 11.95 2.25 10.4 1.75 9.6 1.4 8.7 1.15 8.15 1.1 7.85 0.7 7.5 0.2 6.45 -0.45 5.05 -0.45 4.65 -0.45 0.85 3.05 0.6 4.6 0.75 5.15 1.15 L5.25 1.05 5.4 1.0 Q6.2 1.65 6.9 2.3 9.35 3.7 10.95 5.7 12.65 7.85 12.95 10.05 13.25 11.05 13.25 11.95 13.25 12.5 13.15 13.0 13.15 13.65 13.0 14.7 L12.8 15.75 12.65 16.55 Q12.35 18.05 11.85 19.35 10.7 22.35 9.0 23.0 8.5 23.5 8.15 23.8 7.7 24.1 7.35 24.15 L7.3 24.15 7.0 24.1 6.95 24.0 8.25 22.65 Q8.15 22.6 8.1 22.45 L8.3 22.35 Q8.75 22.05 9.2 21.7 L10.15 20.75 Q11.1 19.65 11.6 18.1 L11.85 17.2 11.95 16.85 12.35 14.95 12.15 15.25 Q12.35 14.0 12.4 13.05 12.6 12.35 12.6 11.9 L12.6 11.85 Q12.6 11.65 12.5 11.3 L12.45 11.25 Q12.35 10.9 12.35 10.75 M11.65 10.35 Q11.85 11.4 11.9 11.85 L11.9 12.0 Q11.9 12.95 11.45 14.0 11.0 14.95 10.35 15.35 L10.0 15.65 9.9 15.75 Q9.7 16.3 9.2 16.85 8.4 17.8 7.15 18.4 L7.05 18.45 7.0 18.45 6.95 18.4 6.95 18.3 7.1 18.25 Q8.35 18.0 9.1 16.55 9.45 15.9 9.65 15.35 9.8 15.2 9.95 15.2 11.1 14.15 11.35 12.7 11.5 12.05 11.45 10.45 L11.4 9.85 Q11.45 9.8 11.55 9.8 L11.65 10.35" fill="#111111" fill-rule="evenodd" stroke="none"/>
    </g>
  </defs>
</svg>
