<?xml version="1.0" encoding="UTF-8" standalone="no"?>
<svg xmlns:ffdec="https://www.free-decompiler.com/flash" xmlns:xlink="http://www.w3.org/1999/xlink" ffdec:objectType="frame" height="45.95px" width="48.0px" xmlns="http://www.w3.org/2000/svg">
  <g transform="matrix(1.0, 0.0, 0.0, 1.0, 0.0, -2.05)">
    <use ffdec:characterId="2321" height="45.95" transform="matrix(1.0, 0.0, 0.0, 1.0, 0.0, 2.05)" width="48.0" xlink:href="#shape0"/>
  </g>
  <defs>
    <g id="shape0" transform="matrix(1.0, 0.0, 0.0, 1.0, 0.0, -2.05)">
      <path d="M42.15 5.0 Q31.85 11.9 22.35 19.85 17.05 24.25 11.85 27.35 L10.5 29.0 Q9.6 29.7 8.55 30.05 L8.5 29.85 8.0 30.8 8.2 29.8 Q7.55 28.5 8.45 27.0 L9.0 26.15 Q10.0 22.45 11.5 18.6 13.9 12.65 15.9 6.55 L15.9 5.75 7.55 18.05 Q4.2 22.9 0.0 26.2 L0.0 25.85 0.15 25.55 0.0 25.65 0.0 23.6 Q0.55 21.6 2.4 19.5 L9.25 11.35 Q12.35 7.35 15.7 4.05 L17.0 2.25 17.5 2.3 17.8 2.4 17.95 2.55 Q18.05 5.35 17.2 7.9 L16.2 10.7 Q15.45 13.65 14.15 16.7 L11.55 23.1 13.0 22.0 Q14.0 22.8 12.9 23.85 12.1 24.6 11.05 24.7 L10.95 24.7 10.15 26.95 10.05 27.15 10.8 26.85 11.15 26.8 Q19.3 19.3 28.65 12.35 36.1 6.8 43.75 2.05 L44.25 2.15 Q44.55 2.2 44.8 2.4 L44.9 2.55 Q41.8 8.6 37.95 14.45 34.0 20.5 29.15 25.9 28.65 26.45 28.75 26.7 L28.75 26.95 29.3 26.55 29.5 26.45 29.65 26.55 30.6 25.35 Q30.8 25.1 31.15 25.2 31.3 26.5 30.1 27.6 30.05 28.5 29.0 29.65 L26.6 31.9 24.45 34.5 22.0 36.9 Q24.65 36.55 28.3 35.15 33.3 33.2 38.55 31.8 L48.0 29.35 48.0 31.85 41.65 37.45 Q37.2 41.2 32.1 43.95 L31.5 44.3 31.25 44.5 31.25 44.65 31.3 44.7 31.9 44.55 32.0 44.5 32.05 44.55 32.4 44.5 Q32.85 45.3 32.05 45.6 31.45 46.4 30.1 46.95 L27.2 47.7 26.65 48.0 24.05 48.0 23.95 47.7 23.95 47.5 34.65 40.1 45.15 32.15 Q45.65 31.75 46.2 31.55 34.95 34.25 23.85 38.3 20.55 39.55 17.5 40.15 L17.45 40.15 17.5 40.15 16.45 40.3 Q16.95 39.5 17.8 38.8 L18.55 38.25 Q23.4 30.1 30.05 22.4 36.65 14.7 41.45 5.8 L42.15 5.0 M1.75 17.25 Q1.05 17.25 1.65 16.75 L1.9 16.7 Q2.45 17.25 1.75 17.25 M1.45 16.8 Q0.75 17.05 1.35 16.2 L1.5 16.15 Q2.55 16.45 1.45 16.8 M17.0 17.3 Q17.9 18.05 16.9 19.15 L15.4 20.45 15.15 20.55 Q14.85 19.85 15.4 19.15 L16.8 17.5 17.0 17.3 M15.65 15.7 Q16.2 16.25 15.5 16.2 14.6 16.15 15.3 15.75 L15.65 15.7 M31.1 30.85 Q30.4 31.6 29.5 31.65 L29.15 31.55 Q29.0 30.8 29.65 30.2 L31.0 29.35 31.0 29.3 Q31.85 29.95 31.1 30.85 M24.25 31.8 L24.15 31.8 Q23.5 32.4 23.85 32.2 L24.25 31.8 M27.2 34.75 Q26.6 35.35 25.75 35.3 L25.3 35.15 Q25.35 34.45 25.85 34.05 26.4 33.6 27.0 33.45 27.95 33.9 27.2 34.75 M34.15 44.5 Q33.75 44.8 33.35 44.5 L33.15 44.2 33.6 43.8 34.15 43.7 Q34.6 44.1 34.15 44.5 M32.25 46.2 Q33.5 46.6 32.45 47.45 31.65 48.1 30.7 47.8 L30.5 47.7 Q30.5 47.2 30.95 46.9 31.45 46.55 32.0 46.3 L32.25 46.2" fill="#ffffff" fill-rule="evenodd" stroke="none"/>
      <path d="M10.2 28.45 L16.95 22.75 Q26.5 14.85 30.3 12.95 33.2 10.55 35.55 9.05 L36.5 8.45 36.95 7.95 38.05 7.3 Q41.85 5.05 44.1 3.45 L41.7 7.25 40.75 8.85 39.75 10.25 37.95 12.8 35.0 16.95 Q33.95 19.5 27.05 27.3 L25.35 29.15 25.15 29.45 24.0 30.85 23.35 31.75 28.1 28.05 28.25 28.2 20.6 36.6 20.6 36.7 20.15 37.1 19.5 37.75 Q19.35 37.75 19.3 37.85 L14.1 43.2 Q12.45 44.85 11.4 46.55 L10.95 46.95 Q10.4 47.4 10.15 48.0 L7.95 48.0 9.55 46.25 10.4 45.2 9.35 45.75 10.4 44.6 11.6 43.35 12.9 41.9 13.6 41.1 15.0 39.5 18.65 34.85 19.55 33.6 20.0 32.95 22.45 29.8 26.5 24.85 32.3 18.4 32.55 18.1 Q33.95 16.5 34.05 15.7 L34.1 15.65 34.7 14.95 Q37.65 11.35 37.6 10.3 L37.85 10.05 Q38.35 9.6 38.7 9.55 L38.4 9.2 37.65 9.9 37.25 10.4 37.05 10.55 37.4 10.05 33.15 12.8 Q31.25 13.95 29.1 15.95 L25.6 19.75 24.65 20.5 20.45 23.85 26.25 17.55 26.25 17.25 21.6 21.15 17.7 24.8 17.0 25.85 16.5 27.05 13.8 29.2 10.6 31.7 9.55 32.5 6.2 35.1 5.4 35.7 6.45 34.6 10.15 31.2 10.75 30.7 11.45 30.05 14.85 26.55 7.8 31.8 4.65 34.45 4.45 34.65 1.1 37.55 0.0 38.55 0.0 36.45 0.2 36.3 Q0.6 36.35 0.95 36.0 L1.55 35.3 1.75 35.05 2.6 34.35 2.65 34.3 2.7 34.25 6.7 31.8 Q8.95 30.2 10.2 28.45 M19.25 39.45 L22.2 38.3 23.15 37.9 23.4 37.8 Q29.4 35.45 32.95 34.45 L34.4 33.35 33.75 34.25 36.1 33.7 41.1 32.05 41.9 31.85 42.4 31.65 43.4 31.4 48.0 30.3 48.0 30.75 46.2 32.3 45.05 33.25 44.0 34.05 41.95 35.55 38.6 38.0 Q37.15 39.65 29.9 43.85 L28.15 44.8 27.95 44.95 26.65 45.75 25.95 46.3 30.6 44.7 30.65 44.85 Q27.35 46.65 24.95 48.0 L20.9 48.0 21.65 47.45 Q23.35 46.1 25.75 44.55 L30.15 41.8 Q31.95 40.65 36.2 38.4 L36.45 38.25 38.25 36.8 38.25 36.7 38.95 36.35 Q42.1 34.35 42.3 33.55 L42.55 33.45 43.3 33.25 43.2 32.95 42.5 33.3 42.05 33.55 41.85 33.6 42.2 33.3 38.3 34.35 Q36.55 34.7 34.4 35.7 L30.75 37.65 29.85 38.0 29.4 38.2 26.2 41.25 25.3 42.45 24.9 43.0 Q23.3 44.9 20.05 46.6 L17.3 48.0 16.05 48.0 22.6 42.65 23.45 42.0 24.05 41.45 27.0 39.1 25.8 39.5 27.75 38.5 Q28.9 37.55 30.0 36.7 28.4 37.3 27.35 37.75 L23.45 39.55 22.65 40.2 21.95 40.95 19.3 41.95 18.85 42.1 18.1 42.55 17.85 42.45 16.5 42.95 17.45 41.85 19.15 41.05 19.85 40.45 18.15 41.0 19.25 39.45 M45.05 32.0 Q44.6 32.15 44.0 32.55 L44.05 32.7 44.85 32.35 45.2 32.05 45.05 32.0 M39.35 8.5 L40.1 7.8 40.35 7.4 40.25 7.4 39.15 8.45 39.35 8.5 M15.0 8.05 L15.1 7.7 15.0 7.7 Q14.75 8.05 14.45 8.75 L14.6 8.75 15.0 8.05 M0.0 28.05 L0.0 26.15 1.3 24.2 Q6.5 16.25 8.9 14.0 L11.9 9.95 12.45 9.35 12.7 8.85 13.35 8.15 16.95 3.95 16.0 7.3 15.65 8.65 15.25 9.95 14.5 12.2 13.3 15.9 14.75 14.4 14.8 14.55 13.15 16.55 Q12.65 18.6 10.45 23.65 L10.35 23.7 8.9 26.1 Q8.3 27.2 8.25 28.25 L8.0 28.6 4.95 30.5 4.8 30.6 4.8 30.25 Q4.8 30.0 5.85 28.95 6.4 28.45 6.8 28.25 L6.8 28.15 8.75 23.6 10.7 19.4 10.3 19.85 8.4 22.05 5.75 25.1 4.15 27.1 1.4 30.6 0.55 31.7 0.0 32.3 0.0 28.6 0.5 27.4 0.0 28.05 M10.7 25.05 L10.9 24.95 10.7 25.65 10.8 25.65 10.0 27.3 9.35 27.7 10.1 26.55 10.7 25.05 M8.95 20.8 L10.05 19.5 11.45 17.9 11.6 17.6 11.7 17.35 12.3 15.2 12.3 15.15 12.6 14.5 Q14.0 11.15 13.7 10.45 L13.85 10.2 14.35 9.7 14.05 9.5 13.65 10.15 13.45 10.6 13.35 10.7 13.5 10.3 10.95 13.3 Q9.8 14.5 8.65 16.45 L6.9 20.05 6.4 20.8 4.1 24.15 6.95 18.25 6.9 18.1 4.3 21.95 2.25 25.5 1.95 26.45 1.85 27.45 1.15 28.45 5.25 24.75 6.1 23.95 8.95 20.8 M0.0 21.0 L0.15 20.8 0.3 20.8 0.0 21.7 0.0 21.0 M16.9 18.1 L17.0 18.2 16.3 19.2 15.45 20.0 15.3 19.6 Q16.25 18.5 16.9 18.1 M12.0 22.95 Q12.2 22.4 12.55 22.2 L12.25 23.05 13.05 22.4 13.25 22.5 12.6 23.5 Q12.0 24.3 11.65 24.3 L11.35 24.2 11.35 24.05 11.85 23.45 12.0 22.95 M11.3 33.95 Q11.55 33.7 12.05 33.4 L11.4 34.0 11.3 33.95 M0.0 34.3 L1.5 32.75 1.35 33.25 0.0 34.65 0.0 34.3 M0.0 36.15 L0.1 36.25 0.0 36.45 0.0 36.15 M15.5 44.05 L16.3 43.7 15.75 44.4 14.25 45.65 14.1 45.8 13.3 46.4 15.5 44.05 M16.25 44.9 L17.0 44.65 16.3 44.95 16.25 44.9 M31.15 29.65 L30.6 30.45 30.0 30.95 29.55 30.9 Q29.65 30.3 30.15 29.9 30.7 29.4 31.15 29.65 M31.9 36.0 L31.4 36.45 31.85 36.2 31.9 36.0 M24.55 34.25 L24.6 34.35 23.85 34.9 22.95 35.3 22.9 34.95 Q23.95 34.35 24.55 34.25 M30.05 26.4 L29.95 26.35 30.8 25.3 Q31.3 24.7 31.8 24.5 L30.05 26.4 M24.2 36.25 L24.7 35.8 Q25.3 35.3 25.9 35.2 L25.35 36.3 Q24.85 37.05 24.4 37.0 L24.35 37.0 24.5 36.9 Q25.45 36.3 24.2 36.25 M26.1 34.9 Q26.65 33.65 27.4 33.8 27.45 34.15 26.9 34.7 L26.35 35.15 26.1 35.0 26.1 34.9 M32.45 46.65 L31.8 47.1 31.2 47.35 30.9 47.2 31.65 46.65 Q32.2 46.4 32.45 46.65 M33.3 43.25 Q33.8 42.9 34.25 42.95 L32.45 43.9 32.45 43.85 33.3 43.25" fill="#58cbfc" fill-rule="evenodd" stroke="none"/>
      <path d="M0.0 38.55 L1.1 37.55 4.45 34.65 4.65 34.45 7.8 31.8 14.85 26.55 11.45 30.05 10.75 30.7 10.15 31.2 6.45 34.6 5.4 35.7 6.2 35.1 9.55 32.5 10.6 31.7 13.8 29.2 16.5 27.05 17.0 25.85 17.7 24.8 21.6 21.15 26.25 17.25 26.25 17.55 20.45 23.85 24.65 20.5 25.6 19.75 29.1 15.95 Q31.25 13.95 33.15 12.8 L37.4 10.05 37.05 10.55 37.25 10.4 37.65 9.9 38.4 9.2 38.7 9.55 Q38.35 9.6 37.85 10.05 L37.6 10.3 Q37.65 11.35 34.7 14.95 L34.1 15.65 34.05 15.7 Q33.95 16.5 32.55 18.1 L32.3 18.4 26.5 24.85 22.45 29.8 20.0 32.95 19.55 33.6 18.65 34.85 15.0 39.5 13.6 41.1 12.9 41.9 11.6 43.35 10.4 44.6 9.35 45.75 10.4 45.2 9.55 46.25 7.95 48.0 7.9 48.0 5.45 47.8 5.45 47.7 5.15 47.75 4.2 47.45 4.65 46.95 5.35 46.1 5.85 45.8 6.15 45.5 6.1 45.8 6.1 46.45 6.6 46.55 6.8 46.6 Q7.25 46.7 7.35 46.25 L7.35 45.95 7.0 45.25 6.7 45.1 6.65 45.15 8.0 44.0 8.95 43.2 Q11.3 41.05 11.35 39.95 11.35 39.8 13.65 37.35 L14.15 36.85 14.85 35.95 Q16.25 34.15 16.7 32.9 L15.8 33.65 17.7 31.05 17.75 31.15 18.7 30.4 19.2 29.5 Q18.45 29.8 18.45 30.2 L18.05 30.7 17.8 30.95 18.15 30.45 18.0 30.3 17.55 30.55 18.1 30.05 18.8 29.4 20.7 27.6 20.0 28.45 20.0 28.65 20.2 28.75 22.5 26.55 23.85 25.75 28.2 21.05 Q31.5 17.1 32.2 15.5 L28.85 19.0 24.4 22.35 Q23.9 22.8 23.0 24.55 L22.8 24.8 17.7 29.0 14.3 32.35 13.95 32.6 12.6 33.45 8.2 36.55 10.15 34.85 Q12.85 32.7 13.75 31.15 L9.2 34.5 7.85 35.45 5.05 37.4 4.8 37.55 Q3.45 38.45 2.35 39.35 L0.65 40.8 2.95 38.1 3.4 37.55 3.1 37.75 Q2.05 38.4 0.55 39.75 L0.0 40.25 0.0 38.55 M20.9 48.0 L17.3 48.0 20.05 46.6 Q23.3 44.9 24.9 43.0 L26.7 42.1 27.85 41.8 32.4 39.35 Q35.9 37.15 36.85 36.15 L33.45 37.95 29.15 39.35 Q28.65 39.6 27.5 40.7 L27.35 40.85 26.2 41.25 29.4 38.2 29.85 38.0 30.75 37.65 34.4 35.7 Q36.55 34.7 38.3 34.35 L42.2 33.3 41.85 33.6 42.05 33.55 42.5 33.3 43.2 32.95 43.3 33.25 42.55 33.45 42.3 33.55 Q42.1 34.35 38.95 36.35 L38.25 36.7 38.25 36.8 36.45 38.25 36.2 38.4 Q31.95 40.65 30.15 41.8 L25.75 44.55 Q23.35 46.1 21.65 47.45 L20.9 48.0 M13.3 48.0 L12.6 48.0 12.45 47.9 12.8 47.75 13.15 47.6 13.25 47.85 13.9 47.55 13.3 48.0 M45.05 32.0 L45.2 32.05 44.85 32.35 44.05 32.7 44.0 32.55 Q44.6 32.15 45.05 32.0 M39.35 8.5 L39.15 8.45 40.25 7.4 40.35 7.4 40.1 7.8 39.35 8.5 M28.3 18.5 L28.8 18.15 30.05 16.8 31.15 15.35 Q30.7 15.25 30.2 15.7 L29.0 17.1 Q28.1 18.2 27.75 18.8 27.95 18.6 28.3 18.5 M32.45 14.85 L32.65 14.9 34.6 13.55 35.4 12.65 35.8 11.9 Q35.05 12.0 34.45 12.6 L32.45 14.85 M15.0 8.05 L14.6 8.75 14.45 8.75 Q14.75 8.05 15.0 7.7 L15.1 7.7 15.0 8.05 M0.0 28.05 L0.5 27.4 0.0 28.6 0.0 28.05 M0.55 31.7 L1.4 30.6 4.15 27.1 3.15 28.6 Q1.85 30.85 1.45 31.8 L0.0 33.45 0.0 32.85 0.55 31.7 M8.4 22.05 L10.3 19.85 10.7 19.4 8.75 23.6 6.8 28.15 6.8 28.25 Q6.4 28.45 5.85 28.95 4.8 30.0 4.8 30.25 L4.8 30.6 3.05 31.85 3.65 30.15 3.7 30.2 4.25 29.4 4.4 28.65 Q3.95 29.05 3.95 29.35 L3.85 29.8 3.7 30.0 3.8 29.6 3.65 29.5 3.4 29.75 3.65 29.25 4.05 28.65 5.05 26.9 4.75 27.7 4.75 27.85 4.95 27.9 6.2 25.75 6.95 24.9 8.4 22.05 M6.1 23.95 L5.25 24.75 1.15 28.45 1.85 27.45 1.95 26.45 2.25 25.5 4.3 21.95 6.9 18.1 6.95 18.25 4.1 24.15 6.4 20.8 6.9 20.05 8.65 16.45 Q9.8 14.5 10.95 13.3 L13.5 10.3 13.35 10.7 13.45 10.6 13.65 10.15 14.05 9.5 14.35 9.7 13.85 10.2 13.7 10.45 Q14.0 11.15 12.6 14.5 L12.3 15.15 12.3 15.2 11.7 17.35 11.6 17.6 11.45 17.9 10.05 19.5 8.95 20.8 9.1 20.4 Q10.7 16.75 10.85 15.5 L9.2 18.75 6.6 22.2 6.1 23.95 M8.65 18.5 L8.95 18.2 9.55 16.9 10.05 15.6 9.45 16.1 8.85 17.3 8.3 18.85 8.65 18.5 M11.85 12.85 L10.85 14.9 11.05 14.9 12.2 13.55 12.55 12.7 12.7 12.0 Q12.2 12.25 11.85 12.85 M16.95 29.05 Q18.85 27.8 19.3 26.8 17.95 27.35 16.45 28.7 L16.05 29.15 14.75 30.4 14.05 31.0 13.95 31.2 Q13.95 31.15 14.4 30.85 L15.5 30.05 16.95 29.05 M11.3 33.95 L11.4 34.0 12.05 33.4 Q11.55 33.7 11.3 33.95 M9.3 38.3 L9.6 38.05 Q8.65 39.2 8.65 39.65 8.6 40.35 9.35 40.35 L9.45 40.4 9.6 40.35 9.45 40.6 9.35 40.55 9.2 40.45 8.7 40.65 8.15 40.8 8.45 40.05 Q8.65 39.3 8.15 39.1 L8.0 39.05 8.4 38.65 8.75 38.35 9.0 38.55 9.3 38.3 M5.15 41.65 L5.0 41.7 5.1 41.6 5.15 41.65 M6.05 43.2 L6.8 43.8 5.75 45.15 5.7 44.85 5.8 44.1 5.8 44.0 6.05 43.3 6.05 43.2 M3.65 42.75 L3.9 42.55 3.9 42.6 3.75 43.1 3.5 42.85 3.65 42.75 M2.5 44.5 L2.6 44.65 2.4 44.8 2.4 44.65 2.0 43.65 2.3 43.5 2.3 43.7 Q2.25 44.05 2.5 44.5 M17.45 41.85 L18.15 41.0 19.85 40.45 19.15 41.05 17.45 41.85 M16.5 42.95 L17.85 42.45 18.1 42.55 18.85 42.1 19.3 41.95 21.95 40.95 22.65 40.2 23.45 39.55 27.35 37.75 Q28.4 37.3 30.0 36.7 28.9 37.55 27.75 38.5 L25.8 39.5 27.0 39.1 24.05 41.45 21.5 42.2 19.05 43.35 19.0 43.45 21.8 42.6 23.45 42.0 22.6 42.65 22.35 42.75 Q19.9 43.85 18.95 44.4 L14.1 45.8 14.25 45.65 15.1 45.3 Q17.75 44.3 18.85 43.4 L15.75 44.4 16.3 43.7 15.5 44.05 15.8 43.7 16.5 42.95 M16.25 44.9 L16.3 44.95 17.0 44.65 16.25 44.9 M35.3 35.85 L34.05 36.55 32.65 37.5 33.15 37.4 33.6 37.35 34.85 36.6 36.05 35.8 35.3 35.85 M31.9 36.0 L31.85 36.2 31.4 36.45 31.9 36.0 M37.25 35.7 L37.4 35.8 39.2 35.35 40.0 34.85 40.55 34.3 39.3 34.5 Q38.1 35.05 37.25 35.7" fill="#c5edfe" fill-rule="evenodd" stroke="none"/>
      <path d="M10.2 28.45 Q8.95 30.2 6.7 31.8 L2.7 34.25 2.65 34.3 2.6 34.35 1.75 35.05 1.55 35.3 0.95 36.0 Q0.6 36.35 0.2 36.3 L0.0 36.45 0.1 36.25 0.0 36.15 0.0 34.65 1.35 33.25 1.5 32.75 0.0 34.3 0.0 33.45 1.45 31.8 Q1.85 30.85 3.15 28.6 L4.15 27.1 5.75 25.1 8.4 22.05 6.95 24.9 6.2 25.75 4.95 27.9 4.75 27.85 4.75 27.7 5.05 26.9 4.05 28.65 3.65 29.25 3.4 29.75 3.65 29.5 3.8 29.6 3.7 30.0 3.85 29.8 3.95 29.35 Q3.95 29.05 4.4 28.65 L4.25 29.4 3.7 30.2 3.65 30.15 3.05 31.85 4.8 30.6 4.95 30.5 8.0 28.6 8.25 28.25 Q8.3 27.2 8.9 26.1 L10.35 23.7 10.45 23.65 10.55 23.65 10.7 25.05 10.1 26.55 9.35 27.7 10.0 27.3 11.95 26.0 12.25 25.8 Q11.65 26.95 10.45 28.05 L10.2 28.45 M10.15 48.0 Q10.4 47.4 10.95 46.95 L11.4 46.55 Q12.45 44.85 14.1 43.2 L19.3 37.85 Q19.35 37.75 19.5 37.75 L19.65 37.75 19.3 38.6 19.75 38.15 20.15 38.05 19.8 38.6 19.3 39.4 19.25 39.45 18.15 41.0 17.45 41.85 16.5 42.95 15.8 43.7 15.5 44.05 13.3 46.4 14.1 45.8 18.95 44.4 Q19.9 43.85 22.35 42.75 L22.6 42.65 16.05 48.0 13.3 48.0 13.9 47.55 13.25 47.85 13.15 47.6 12.8 47.75 12.45 47.9 12.6 48.0 10.15 48.0 M26.2 41.25 L27.35 40.85 27.5 40.7 Q28.65 39.6 29.15 39.35 L33.45 37.95 36.85 36.15 Q35.9 37.15 32.4 39.35 L27.85 41.8 26.7 42.1 24.9 43.0 25.3 42.45 26.2 41.25 M28.3 18.5 Q27.95 18.6 27.75 18.8 28.1 18.2 29.0 17.1 L30.2 15.7 Q30.7 15.25 31.15 15.35 L30.05 16.8 28.8 18.15 28.3 18.5 M0.0 40.25 L0.55 39.75 Q2.05 38.4 3.1 37.75 L3.4 37.55 2.95 38.1 0.65 40.8 2.35 39.35 Q3.45 38.45 4.8 37.55 L5.05 37.4 7.85 35.45 9.2 34.5 13.75 31.15 Q12.85 32.7 10.15 34.85 L8.2 36.55 12.6 33.45 13.95 32.6 14.3 32.35 17.7 29.0 22.8 24.8 23.0 24.55 Q23.9 22.8 24.4 22.35 L28.85 19.0 32.2 15.5 Q31.5 17.1 28.2 21.05 L23.85 25.75 22.5 26.55 20.2 28.75 20.0 28.65 20.0 28.45 20.7 27.6 18.8 29.4 18.1 30.05 17.55 30.55 18.0 30.3 18.15 30.45 17.8 30.95 18.05 30.7 18.45 30.2 Q18.45 29.8 19.2 29.5 L18.7 30.4 17.75 31.15 17.7 31.05 15.8 33.65 16.7 32.9 Q16.25 34.15 14.85 35.95 L14.15 36.85 13.65 37.35 Q11.35 39.8 11.35 39.95 11.3 41.05 8.95 43.2 L8.0 44.0 6.65 45.15 6.7 45.1 7.0 45.25 7.35 45.95 7.35 46.25 Q7.25 46.7 6.8 46.6 L6.6 46.55 6.1 46.45 6.1 45.8 6.15 45.5 5.85 45.8 5.35 46.1 4.65 46.95 4.2 47.45 3.3 47.05 2.45 46.55 1.7 45.85 1.4 45.5 0.65 44.15 Q0.0 42.65 0.0 40.6 L0.0 40.5 0.0 40.25 M5.15 47.75 L5.45 47.7 5.45 47.8 5.15 47.75 M32.45 14.85 L34.45 12.6 Q35.05 12.0 35.8 11.9 L35.4 12.65 34.6 13.55 32.65 14.9 32.45 14.85 M0.0 32.3 L0.55 31.7 0.0 32.85 0.0 32.3 M6.1 23.95 L6.6 22.2 9.2 18.75 10.85 15.5 Q10.7 16.75 9.1 20.4 L8.95 20.8 6.1 23.95 M8.65 18.5 L8.3 18.85 8.85 17.3 9.45 16.1 10.05 15.6 9.55 16.9 8.95 18.2 8.65 18.5 M11.85 12.85 Q12.2 12.25 12.7 12.0 L12.55 12.7 12.2 13.55 11.05 14.9 10.85 14.9 11.85 12.85 M16.95 29.05 L15.5 30.05 14.4 30.85 Q13.95 31.15 13.95 31.2 L14.05 31.0 14.75 30.4 16.05 29.15 16.45 28.7 Q17.95 27.35 19.3 26.8 18.85 27.8 16.95 29.05 M6.05 43.2 L6.05 43.3 5.8 44.0 5.8 44.1 5.7 44.85 5.75 45.15 6.8 43.8 6.05 43.2 M5.15 41.65 L5.1 41.6 5.0 41.7 5.15 41.65 M9.3 38.3 L9.0 38.55 8.75 38.35 8.4 38.65 8.0 39.05 8.15 39.1 Q8.65 39.3 8.45 40.05 L8.15 40.8 8.7 40.65 9.2 40.45 9.35 40.55 9.45 40.6 9.6 40.35 9.45 40.4 9.35 40.35 Q8.6 40.35 8.65 39.65 8.65 39.2 9.6 38.05 L9.3 38.3 M3.65 42.75 L3.5 42.85 3.75 43.1 3.9 42.6 3.9 42.55 3.65 42.75 M2.5 44.5 Q2.25 44.05 2.3 43.7 L2.3 43.5 2.0 43.65 2.4 44.65 2.4 44.8 2.6 44.65 2.5 44.5 M15.75 44.4 L18.85 43.4 Q17.75 44.3 15.1 45.3 L14.25 45.65 15.75 44.4 M23.45 42.0 L21.8 42.6 19.0 43.45 19.05 43.35 21.5 42.2 24.05 41.45 23.45 42.0 M35.3 35.85 L36.05 35.8 34.85 36.6 33.6 37.35 33.15 37.4 32.65 37.5 34.05 36.55 35.3 35.85 M37.25 35.7 Q38.1 35.05 39.3 34.5 L40.55 34.3 40.0 34.85 39.2 35.35 37.4 35.8 37.25 35.7 M24.35 37.0 Q23.75 37.35 23.95 36.35 L24.15 36.25 24.2 36.25 Q25.45 36.3 24.5 36.9 L24.35 37.0" fill="#ffffff" fill-rule="evenodd" stroke="none"/>
    </g>
  </defs>
</svg>
