<?xml version="1.0" encoding="UTF-8" standalone="no"?>
<svg xmlns:ffdec="https://www.free-decompiler.com/flash" xmlns:xlink="http://www.w3.org/1999/xlink" ffdec:objectType="frame" height="965.0px" width="2504.95px" xmlns="http://www.w3.org/2000/svg">
  <g transform="matrix(1.0, 0.0, 0.0, 1.0, -157.5, 1522.5)">
    <use ffdec:characterId="1148" height="965.0" transform="matrix(1.0, 0.0, 0.0, 1.0, 157.5, -1522.5)" width="2504.95" xlink:href="#shape0"/>
  </g>
  <defs>
    <g id="shape0" transform="matrix(1.0, 0.0, 0.0, 1.0, -157.5, 1522.5)">
      <path d="M2480.0 -1040.05 L2579.95 -1040.05 2640.0 -1080.0 2639.95 -1280.1 2580.0 -1280.0 2580.0 -1480.0 M2380.0 -1480.0 L2380.0 -1280.0 2320.0 -1280.0 2320.0 -1180.0 2280.0 -1140.0 2300.0 -1080.0 2379.9 -1040.05 2480.0 -1040.05 M160.0 -800.0 L240.0 -800.0 240.0 -1060.0 280.0 -1080.0 280.0 -1300.0 220.0 -1300.0 220.0 -1520.0 M2480.0 -800.0 L240.0 -800.0 M2480.0 -800.05 L2659.95 -800.05" fill="none" stroke="#00ffff" stroke-linecap="round" stroke-linejoin="round" stroke-width="5.0"/>
      <path d="M2480.0 -1040.05 L2480.0 -1400.0 M2480.0 -800.0 L2480.0 -800.05 2480.0 -1040.05 M160.0 -560.0 L160.0 -640.0 160.0 -800.0 160.0 -1520.0 M2480.0 -560.0 L2480.0 -640.0 2480.0 -800.0" fill="none" stroke="#ffff00" stroke-linecap="round" stroke-linejoin="round" stroke-width="5.0"/>
      <path d="M2480.0 -640.0 L160.0 -640.0" fill="none" stroke="#666666" stroke-linecap="round" stroke-linejoin="round" stroke-width="5.0"/>
    </g>
  </defs>
</svg>
