<?xml version="1.0" encoding="UTF-8" standalone="no"?>
<svg xmlns:ffdec="https://www.free-decompiler.com/flash" xmlns:xlink="http://www.w3.org/1999/xlink" ffdec:objectType="frame" height="313.6px" width="562.1px" xmlns="http://www.w3.org/2000/svg">
  <g transform="matrix(1.0, 0.0, 0.0, 1.0, 291.55, 266.35)">
    <use ffdec:characterId="2620" height="35.15" transform="matrix(7.0, 0.0, 0.0, 7.0, -234.5, -225.05)" width="65.1" xlink:href="#shape0"/>
  </g>
  <defs>
    <g id="shape0" transform="matrix(1.0, 0.0, 0.0, 1.0, 33.5, 32.15)">
      <path d="M-32.1 -1.1 L-32.05 -1.1 Q-32.25 -1.3 -32.2 -1.45 L-31.9 -1.2 -31.1 -0.5 Q-30.8 -0.2 -30.35 -0.4 L-30.25 -0.55 Q-30.15 -0.7 -30.15 -0.9 L-30.15 -1.15 -30.1 -1.35 -29.85 -1.35 Q-29.0 -1.2 -28.35 -0.75 -27.7 -0.3 -27.1 -0.95 -27.3 -1.75 -27.6 -2.5 -27.95 -3.25 -28.05 -4.05 -28.15 -4.85 -28.2 -5.6 -27.65 -5.5 -27.25 -4.95 -26.8 -4.4 -26.25 -4.75 -26.6 -6.9 -26.8 -9.15 -27.15 -12.95 -26.1 -16.6 -25.35 -19.25 -24.1 -21.6 L-24.15 -21.55 Q-24.2 -19.6 -24.05 -17.7 -23.8 -15.1 -22.9 -12.7 -22.3 -11.05 -21.1 -10.75 L-21.05 -10.85 Q-20.9 -11.65 -21.0 -12.45 -21.15 -13.3 -21.1 -14.15 -21.1 -14.85 -21.05 -15.55 -20.0 -13.8 -18.85 -12.15 -17.15 -9.65 -15.05 -7.35 -13.65 -5.85 -12.0 -5.7 L-12.0 -5.75 -11.95 -5.95 Q-11.9 -6.05 -11.95 -6.1 L-12.0 -6.3 -12.05 -6.4 -12.25 -6.95 Q-12.05 -8.5 -12.2 -10.25 -12.45 -12.45 -12.5 -14.65 -12.55 -16.65 -12.65 -18.65 -12.45 -17.8 -12.15 -16.95 -11.55 -15.25 -11.05 -13.55 -10.75 -12.45 -10.2 -11.85 L-10.1 -11.6 -9.65 -10.65 Q-9.25 -9.75 -8.35 -10.0 -7.6 -12.3 -7.15 -14.8 -6.25 -19.6 -4.4 -24.05 -3.4 -26.35 -1.75 -28.25 -0.75 -29.45 0.2 -30.6 L0.3 -30.45 Q0.8 -29.8 1.05 -29.05 1.25 -28.45 1.25 -27.75 L1.45 -27.75 1.55 -27.8 1.65 -27.7 Q2.1 -26.65 2.3 -25.55 2.6 -24.0 2.7 -22.4 2.75 -21.15 3.2 -20.25 L3.05 -20.0 Q3.0 -19.8 3.0 -19.65 3.05 -19.5 3.15 -19.35 L3.25 -19.25 Q3.9 -19.2 4.3 -19.8 5.45 -21.55 6.5 -23.4 7.45 -24.95 8.7 -26.0 L8.75 -25.9 Q10.0 -22.85 10.3 -19.5 10.55 -16.4 10.35 -13.25 10.2 -11.55 11.15 -10.8 11.2 -10.6 11.3 -10.4 11.85 -10.65 11.95 -11.3 12.05 -12.3 12.45 -13.3 12.8 -14.25 12.7 -15.05 L13.2 -16.6 Q13.65 -17.95 14.1 -19.25 14.55 -20.45 14.85 -21.75 14.95 -20.15 14.85 -18.6 14.65 -15.95 14.15 -13.35 13.7 -10.75 13.45 -8.25 L13.6 -8.2 14.1 -8.2 14.3 -8.35 14.4 -8.6 14.45 -8.8 Q14.95 -8.8 15.5 -9.45 17.75 -12.25 19.55 -15.45 20.85 -17.85 22.35 -20.2 22.1 -19.15 21.95 -18.05 21.75 -16.75 21.45 -15.45 21.15 -14.2 22.25 -14.1 22.6 -14.4 22.95 -14.5 23.25 -14.6 23.45 -14.8 L23.6 -15.1 23.65 -15.25 Q23.7 -13.8 23.7 -12.3 23.7 -10.55 23.4 -8.8 23.2 -7.6 23.7 -6.9 L23.6 -6.65 Q23.65 -6.5 23.8 -6.5 L24.1 -6.55 24.0 -6.6 24.15 -6.5 24.2 -6.55 Q25.05 -6.8 25.75 -7.65 26.2 -8.2 26.75 -8.75 26.65 -7.8 26.25 -6.95 25.55 -5.5 24.85 -4.05 24.2 -2.65 24.15 -1.35 25.4 -1.15 26.65 -1.7 28.75 -2.55 30.5 -3.65 30.25 -3.2 29.9 -2.8 L29.65 -2.55 29.8 -2.65 27.4 -0.75 Q26.0 0.4 24.85 1.5 L23.3 0.25 Q22.55 -0.25 21.65 -0.4 20.7 -0.55 20.35 -1.25 18.75 -1.5 16.9 -1.55 L12.05 -1.8 Q8.45 -1.4 4.5 -1.75 -2.5 -2.35 -9.55 -1.85 L-18.9 -1.2 Q-24.1 -0.9 -28.8 -0.1 L-30.5 0.3 -30.45 0.4 -30.4 0.45 -30.55 0.45 -30.95 0.5 -31.05 0.55 -31.5 0.25 Q-31.35 0.05 -31.4 -0.2 -31.45 -0.65 -31.8 -0.9 L-32.0 -1.05 -31.95 -1.1 -32.1 -1.1 M31.55 -5.15 Q31.25 -5.15 30.95 -5.05 L31.5 -5.3 31.55 -5.15 M15.05 -10.6 L14.75 -10.3 14.75 -10.35 15.05 -10.6 M16.25 -28.2 Q15.85 -27.5 15.5 -26.75 L15.45 -26.65 Q15.75 -27.5 16.25 -28.2 M-0.55 -31.95 Q-1.45 -31.35 -2.2 -30.6 L-1.75 -31.15 Q-1.2 -31.65 -0.55 -31.95 M-30.8 -1.85 L-31.0 -1.6 -31.0 -1.7 -30.8 -1.85 M-33.25 -2.1 Q-33.4 -1.75 -33.2 -1.45 L-32.8 -0.8 Q-33.2 -1.25 -33.45 -1.75 -33.5 -1.9 -33.4 -2.1 L-33.25 -2.1 M24.85 -0.25 L25.0 -0.4 Q25.1 -0.6 24.75 -0.5 L24.45 -0.5 24.8 -0.15 24.85 -0.25" fill="#ffffff" fill-rule="evenodd" stroke="none"/>
      <path d="M29.8 -2.65 L29.65 -2.55 29.9 -2.8 Q30.25 -3.2 30.5 -3.65 28.75 -2.55 26.65 -1.7 25.4 -1.15 24.15 -1.35 24.2 -2.65 24.85 -4.05 25.55 -5.5 26.25 -6.95 26.65 -7.8 26.75 -8.75 26.2 -8.2 25.75 -7.65 25.05 -6.8 24.2 -6.55 L24.15 -6.5 24.0 -6.6 24.1 -6.55 23.8 -6.5 Q23.65 -6.5 23.6 -6.65 L23.7 -6.9 Q23.2 -7.6 23.4 -8.8 23.7 -10.55 23.7 -12.3 23.7 -13.8 23.65 -15.25 L23.6 -15.1 23.45 -14.8 Q23.25 -14.6 22.95 -14.5 22.6 -14.4 22.25 -14.1 21.15 -14.2 21.45 -15.45 21.75 -16.75 21.95 -18.05 22.1 -19.15 22.35 -20.2 20.85 -17.85 19.55 -15.45 17.75 -12.25 15.5 -9.45 14.95 -8.8 14.45 -8.8 L14.4 -8.6 14.3 -8.35 14.1 -8.2 13.6 -8.2 13.45 -8.25 Q13.7 -10.75 14.15 -13.35 14.65 -15.95 14.85 -18.6 14.95 -20.15 14.85 -21.75 14.55 -20.45 14.1 -19.25 13.65 -17.95 13.2 -16.6 L12.7 -15.05 Q12.8 -14.25 12.45 -13.3 12.05 -12.3 11.95 -11.3 11.85 -10.65 11.3 -10.4 11.2 -10.6 11.15 -10.8 10.2 -11.55 10.35 -13.25 10.55 -16.4 10.3 -19.5 10.0 -22.85 8.75 -25.9 L8.7 -26.0 Q7.45 -24.95 6.5 -23.4 5.45 -21.55 4.3 -19.8 3.9 -19.2 3.25 -19.25 L3.15 -19.35 Q3.05 -19.5 3.0 -19.65 3.0 -19.8 3.05 -20.0 L3.2 -20.25 Q2.75 -21.15 2.7 -22.4 2.6 -24.0 2.3 -25.55 2.1 -26.65 1.65 -27.7 L1.55 -27.8 1.45 -27.75 1.25 -27.75 Q1.25 -28.45 1.05 -29.05 0.8 -29.8 0.3 -30.45 L0.2 -30.6 Q-0.75 -29.45 -1.75 -28.25 -3.4 -26.35 -4.4 -24.05 -6.25 -19.6 -7.15 -14.8 -7.6 -12.3 -8.35 -10.0 -9.25 -9.75 -9.65 -10.65 L-10.1 -11.6 -10.2 -11.85 Q-10.75 -12.45 -11.05 -13.55 -11.55 -15.25 -12.15 -16.95 -12.45 -17.8 -12.65 -18.65 -12.55 -16.65 -12.5 -14.65 -12.45 -12.45 -12.2 -10.25 -12.05 -8.5 -12.25 -6.95 L-12.05 -6.4 -12.0 -6.3 -11.95 -6.1 Q-11.9 -6.05 -11.95 -5.95 L-12.0 -5.75 -12.0 -5.7 Q-13.65 -5.85 -15.05 -7.35 -17.15 -9.65 -18.85 -12.15 -20.0 -13.8 -21.05 -15.55 -21.1 -14.85 -21.1 -14.15 -21.15 -13.3 -21.0 -12.45 -20.9 -11.65 -21.05 -10.85 L-21.1 -10.75 Q-22.3 -11.05 -22.9 -12.7 -23.8 -15.1 -24.05 -17.7 -24.2 -19.6 -24.15 -21.55 L-24.1 -21.6 Q-25.35 -19.25 -26.1 -16.6 -27.15 -12.95 -26.8 -9.15 -26.6 -6.9 -26.25 -4.75 -26.8 -4.4 -27.25 -4.95 -27.65 -5.5 -28.2 -5.6 -28.15 -4.85 -28.05 -4.05 -27.95 -3.25 -27.6 -2.5 -27.3 -1.75 -27.1 -0.95 -27.7 -0.3 -28.35 -0.75 -29.0 -1.2 -29.85 -1.35 L-30.1 -1.35 -30.15 -1.15 -30.15 -0.9 Q-30.15 -0.7 -30.25 -0.55 L-30.35 -0.4 Q-30.8 -0.2 -31.1 -0.5 L-31.9 -1.2 -32.2 -1.45 Q-32.25 -1.3 -32.05 -1.1 L-32.1 -1.1 -32.05 -1.05 -32.0 -1.05 -31.8 -0.9 Q-31.45 -0.65 -31.4 -0.2 -31.35 0.05 -31.5 0.25 -31.95 -0.05 -32.4 -0.4 L-32.8 -0.8 -33.2 -1.45 Q-33.4 -1.75 -33.25 -2.1 L-32.4 -2.1 -32.4 -2.05 -32.3 -2.05 -32.25 -2.0 -32.15 -2.0 -32.15 -1.95 -32.05 -1.95 Q-31.45 -1.6 -30.9 -1.15 L-30.9 -1.2 -30.95 -1.3 -31.0 -1.45 -31.0 -1.6 -30.8 -1.85 Q-30.15 -2.2 -29.3 -1.85 -28.45 -1.5 -27.85 -1.35 -28.35 -2.5 -28.7 -3.75 -29.05 -5.05 -29.45 -6.3 -29.75 -7.2 -29.6 -8.2 -29.0 -8.5 -28.35 -8.0 -27.85 -7.55 -27.35 -7.05 -27.35 -7.0 -27.25 -7.0 -28.05 -9.95 -27.75 -13.05 -27.45 -16.0 -26.65 -18.8 -25.8 -21.5 -23.8 -23.3 L-23.5 -22.8 -20.25 -16.9 Q-18.4 -13.55 -16.0 -10.55 -14.65 -8.85 -13.15 -7.35 L-13.15 -8.5 Q-13.15 -10.4 -13.2 -12.4 -13.25 -14.85 -13.5 -17.2 -13.7 -19.4 -13.85 -21.65 -13.85 -21.85 -13.7 -21.95 -12.2 -20.5 -11.75 -17.95 -11.35 -15.85 -10.5 -13.85 -9.9 -12.45 -9.2 -11.15 L-9.05 -10.9 -9.05 -11.1 -9.0 -11.4 -8.9 -11.6 Q-8.6 -14.6 -7.85 -17.75 -6.9 -21.9 -5.0 -25.8 -4.2 -27.45 -3.15 -28.95 -2.8 -29.8 -2.2 -30.6 -1.45 -31.35 -0.55 -31.95 L-0.15 -32.15 -0.1 -32.15 Q0.45 -31.85 0.9 -31.5 2.6 -30.15 2.9 -27.75 3.3 -25.0 3.5 -22.2 3.55 -21.55 3.55 -20.9 L3.6 -21.1 3.65 -21.2 3.7 -21.2 4.05 -21.8 4.1 -21.9 4.4 -22.35 Q5.65 -23.95 6.75 -25.6 7.35 -26.4 8.2 -26.7 10.05 -26.25 10.6 -24.1 11.4 -20.9 11.45 -17.55 11.5 -14.9 11.25 -12.4 L11.3 -12.25 11.35 -12.05 11.4 -12.15 11.45 -12.2 11.6 -13.05 Q12.2 -15.65 13.1 -18.3 14.35 -21.85 15.15 -25.5 L15.2 -25.7 15.45 -26.65 15.5 -26.75 Q15.85 -27.5 16.25 -28.2 L16.55 -28.65 Q16.9 -25.45 16.3 -21.75 15.95 -19.55 15.5 -17.4 L15.3 -15.75 Q15.1 -13.95 14.65 -12.1 L14.1 -9.65 14.75 -10.35 14.75 -10.3 15.05 -10.6 Q16.6 -12.4 17.9 -14.45 19.8 -17.35 21.45 -20.3 21.85 -21.0 22.5 -21.3 24.6 -19.75 24.6 -16.7 24.6 -14.05 24.4 -11.3 24.3 -9.75 24.25 -8.25 L24.5 -8.25 24.7 -8.35 Q25.1 -8.5 25.45 -8.95 25.95 -9.7 26.65 -10.35 27.05 -10.7 27.45 -10.4 27.75 -8.7 27.1 -7.05 26.3 -5.15 25.6 -3.15 25.3 -2.35 24.9 -1.65 26.3 -2.25 27.9 -3.15 29.15 -3.8 30.35 -4.65 L30.4 -4.7 30.85 -5.0 30.95 -5.05 Q31.25 -5.15 31.55 -5.15 31.75 -4.2 30.5 -3.2 L29.8 -2.65 M16.4 -27.45 Q16.45 -27.6 16.4 -27.6 L16.4 -27.45 M30.65 -4.2 L30.65 -4.2" fill="#ccddff" fill-rule="evenodd" stroke="none"/>
      <path d="M12.65 1.4 L12.4 1.4 13.0 1.45 12.65 1.4 M4.5 1.3 Q6.95 1.2 9.4 1.3 16.35 1.6 22.6 -0.05 22.35 -0.75 21.6 -0.95 L20.15 -1.35 20.7 -1.25 Q21.75 -1.1 22.7 -0.8 L22.95 -0.8 Q24.85 -0.45 26.45 0.45 25.5 2.35 22.85 2.4 12.9 2.6 2.95 2.95 1.8 3.0 0.55 2.95 -12.55 2.5 -25.5 2.5 -26.3 2.5 -27.1 2.35 L-27.1 2.3 Q-28.85 2.3 -30.55 1.85 L-30.75 1.8 -31.25 1.65 Q-31.45 1.6 -31.65 1.45 L-31.8 1.3 Q-31.9 1.15 -31.85 1.0 L-31.85 0.65 Q-31.6 0.5 -31.25 0.4 -29.75 -0.15 -28.1 -0.4 L-27.05 -0.6 -25.85 -0.9 -24.25 -1.1 Q-25.9 -0.4 -27.4 0.55 L-27.45 0.6 -27.5 0.7 -27.5 1.05 -27.45 1.1 Q-27.15 1.3 -26.85 1.35 -14.85 1.9 -2.65 1.55 L4.5 1.3 M17.9 1.5 L18.6 1.5 18.5 1.4 17.9 1.5 M-28.95 0.0 L-28.65 0.05 -28.65 0.0 -28.95 0.0 M-29.55 0.15 L-30.4 0.3 -31.25 0.55 Q-31.7 0.7 -31.65 1.1 L-31.6 1.15 -31.5 1.15 -31.5 0.9 -31.45 0.85 Q-31.2 0.65 -30.9 0.55 L-30.25 0.35 Q-29.7 0.15 -29.15 0.15 L-29.1 0.1 -29.5 0.1 -29.55 0.15 M-26.3 -0.55 L-26.4 -0.5 -26.65 -0.45 -26.75 -0.4 -26.6 -0.4 Q-26.35 -0.45 -26.15 -0.55 L-26.3 -0.55 M-27.7 -0.15 L-28.0 -0.2 -28.0 -0.15 -27.7 -0.15 M-28.15 -0.1 L-28.5 -0.1 -28.2 -0.05 -28.15 -0.1 M-24.15 1.85 L-24.15 1.85 M-25.55 -0.65 L-25.55 -0.65" fill="#ffffff" fill-rule="evenodd" stroke="none"/>
    </g>
  </defs>
</svg>
