<?xml version="1.0" encoding="UTF-8" standalone="no"?>
<svg xmlns:ffdec="https://www.free-decompiler.com/flash" xmlns:xlink="http://www.w3.org/1999/xlink" ffdec:objectType="frame" height="43.1px" width="43.7px" xmlns="http://www.w3.org/2000/svg">
  <g transform="matrix(1.0, 0.0, 0.0, 1.0, -2.05, -2.95)">
    <use ffdec:characterId="2468" height="43.1" transform="matrix(1.0, 0.0, 0.0, 1.0, 2.05, 2.95)" width="43.7" xlink:href="#shape0"/>
  </g>
  <defs>
    <g id="shape0" transform="matrix(1.0, 0.0, 0.0, 1.0, -2.05, -2.95)">
      <path d="M43.3 8.1 L43.4 8.3 44.45 9.55 44.65 9.75 44.9 10.0 45.05 10.15 45.1 10.25 45.35 10.9 45.4 15.45 45.4 19.45 45.4 19.55 45.6 28.2 45.75 36.65 45.75 36.7 45.75 36.9 45.7 37.15 45.7 37.45 45.6 37.75 45.35 38.35 41.8 41.8 41.65 42.0 41.55 42.2 38.05 45.35 37.45 45.8 36.7 45.8 36.3 45.8 35.55 45.8 35.45 45.8 34.95 45.9 34.6 46.0 34.35 46.0 31.3 46.0 31.05 46.0 30.8 45.95 25.0 45.95 24.8 46.0 24.5 46.0 19.35 46.0 15.45 46.05 12.95 46.0 10.1 45.9 9.45 45.6 9.3 45.55 8.95 45.3 8.9 45.25 4.2 40.7 4.15 40.7 3.0 39.65 2.75 39.45 2.5 39.2 2.45 39.2 2.05 38.35 2.05 38.15 2.25 10.25 Q2.25 9.8 2.55 9.55 L2.6 9.4 2.7 9.3 3.0 9.15 3.2 8.95 4.6 7.45 4.75 7.45 6.8 5.6 6.85 5.6 7.05 5.4 7.15 5.15 7.55 4.9 7.75 4.7 8.0 4.55 8.3 4.25 8.35 4.2 8.4 4.25 8.45 4.15 8.6 4.05 8.85 3.9 9.15 3.65 9.3 3.55 9.35 3.45 9.45 3.35 9.7 3.15 Q9.85 3.05 9.95 3.05 L10.2 3.0 10.55 3.0 10.9 3.0 13.5 3.1 13.95 3.05 30.85 3.1 33.1 3.05 33.35 3.05 35.9 3.1 36.05 3.1 37.15 3.1 Q37.65 2.9 37.95 3.1 L38.25 3.2 38.35 3.35 38.25 3.35 38.35 3.4 38.25 3.4 38.25 3.45 38.45 3.45 38.5 3.45 38.5 3.55 39.45 4.35 39.75 4.7 39.95 4.9 40.0 4.95 42.95 7.9 43.25 8.1 43.3 8.1 M43.5 10.4 L42.35 9.0 38.85 5.6 37.9 4.6 37.75 4.55 37.7 4.45 37.4 4.45 37.35 4.35 37.2 4.35 35.9 4.35 33.1 4.25 30.9 4.35 14.0 4.25 13.65 4.35 10.45 4.2 10.1 4.45 9.3 5.1 8.7 5.6 5.55 8.35 Q3.95 9.8 3.7 10.2 L3.65 10.25 3.5 10.25 3.3 38.15 3.45 38.15 3.3 38.35 Q3.3 38.0 9.95 44.5 L10.2 44.5 10.2 44.7 13.0 44.75 15.45 44.85 19.25 44.75 24.5 44.75 24.6 44.7 31.15 44.7 31.3 44.75 34.35 44.75 35.4 44.6 36.95 44.7 36.95 44.55 40.8 40.95 44.4 37.4 44.4 37.3 44.4 37.2 44.4 37.1 44.45 37.1 44.55 36.65 44.4 28.2 44.15 19.55 44.15 15.35 44.15 10.95 44.0 11.0 44.0 10.95 43.5 10.4" fill="#74030c" fill-rule="evenodd" stroke="none"/>
      <path d="M40.85 12.65 L40.8 12.7 40.8 12.6 40.85 12.65" fill="#000000" fill-rule="evenodd" stroke="none"/>
      <path d="M37.4 15.35 L37.55 15.2 37.65 15.2 37.4 15.4 37.4 15.35" fill="#9af4f4" fill-rule="evenodd" stroke="none"/>
      <path d="M40.8 12.7 L40.75 12.8 39.3 13.85 39.1 14.05 37.65 15.2 37.55 15.2 37.4 15.35 37.3 15.35 37.2 15.25 33.25 11.7 32.7 11.15 32.7 11.1 33.4 10.2 33.55 9.9 35.4 7.95 35.45 7.9 38.85 10.75 40.8 12.55 40.8 12.6 40.8 12.7 M30.15 14.75 L30.15 14.85 31.85 16.5 33.45 17.9 33.45 18.0 33.6 18.55 33.6 18.9 33.55 19.2 33.45 19.9 33.45 20.05 33.55 22.7 33.55 22.95 33.45 23.45 33.4 24.95 33.45 26.75 33.45 27.15 33.4 28.3 33.45 29.45 33.45 29.85 33.55 30.25 33.4 30.6 33.4 31.0 33.25 31.05 33.25 31.1 33.2 31.3 33.15 31.25 32.25 32.25 31.95 32.6 31.45 33.1 31.15 33.3 31.15 33.35 31.1 33.45 30.85 33.85 30.4 34.05 26.5 34.1 25.75 34.05 21.6 34.05 21.6 34.1 21.2 34.15 20.35 34.05 17.35 34.15 17.15 34.15 16.1 33.3 15.2 32.25 Q14.1 31.35 14.1 31.1 L14.2 30.1 14.2 29.85 14.2 29.5 14.0 26.4 Q13.7 23.6 13.7 21.55 L13.65 19.6 13.85 18.6 13.8 18.4 13.7 18.35 13.7 17.55 13.7 17.3 Q13.7 17.2 13.85 17.2 15.95 15.25 16.7 15.0 L16.9 14.95 17.55 14.75 21.15 14.75 22.9 14.7 25.5 14.75 26.5 14.85 27.1 14.7 28.2 14.75 29.1 14.8 30.15 14.75 M27.95 15.55 L27.85 15.45 27.8 15.45 27.95 15.55" fill="#f8fcfc" fill-rule="evenodd" stroke="none"/>
      <path d="M27.95 15.55 L27.8 15.45 27.85 15.45 27.95 15.55" fill="#f2f6fd" fill-rule="evenodd" stroke="none"/>
      <path d="M10.3 15.15 L10.2 15.05 10.25 15.05 10.4 15.05 10.4 15.15 10.3 15.15" fill="#88dfe6" fill-rule="evenodd" stroke="none"/>
      <path d="M37.6 33.6 L37.65 33.6 40.25 35.4 40.45 35.4 40.55 35.45 40.6 35.45 40.35 35.6 39.65 36.45 39.1 36.9 38.85 37.25 36.75 39.2 35.45 40.45 Q35.25 40.5 35.15 40.65 L35.0 40.7 34.75 41.05 34.75 40.9 33.9 39.65 33.45 38.7 33.15 38.15 33.1 38.15 32.9 37.75 32.9 37.6 32.9 37.55 37.2 33.85 37.3 33.85 37.45 33.65 37.55 33.6 37.6 33.6 M12.75 7.9 L13.25 8.65 13.7 9.8 14.55 10.95 14.7 11.15 14.7 11.2 13.0 12.65 12.45 13.2 Q10.55 15.0 10.25 15.0 L10.25 15.05 10.2 15.05 10.3 15.15 10.1 15.15 8.35 14.25 6.85 13.25 6.6 12.85 6.75 12.85 6.55 12.8 6.75 12.6 6.85 12.55 9.55 10.2 11.4 8.5 12.05 8.2 Q12.15 8.0 12.4 7.95 L12.65 7.65 12.7 7.75 12.75 7.9" fill="#a80411" fill-rule="evenodd" stroke="none"/>
      <path d="M37.45 33.65 L37.3 33.85 37.2 33.85 32.9 37.55 32.9 37.6 32.6 37.3 32.6 37.25 31.65 35.7 30.4 34.05 30.85 33.85 31.1 33.45 31.15 33.35 31.15 33.3 31.45 33.1 31.95 32.6 32.25 32.25 33.15 31.25 33.2 31.3 33.25 31.1 33.4 31.05 Q33.9 31.1 35.0 31.8 L35.4 32.05 35.7 32.25 36.5 32.9 37.45 33.55 37.45 33.65 M14.1 31.1 Q14.1 31.35 15.2 32.25 L16.1 33.3 17.15 34.15 17.0 34.55 16.7 34.95 16.65 34.85 16.55 35.05 15.55 36.6 14.55 37.85 14.4 37.9 14.3 37.9 14.1 37.35 12.75 36.0 11.15 34.55 11.15 34.4 10.55 34.05 10.45 34.05 10.4 33.9 10.2 33.6 10.1 33.55 10.2 33.55 10.2 33.3 10.75 33.2 11.4 32.65 12.65 32.05 13.4 31.35 13.95 31.1 14.1 31.1" fill="#ca0413" fill-rule="evenodd" stroke="none"/>
      <path d="M44.0 11.0 L44.15 10.95 44.15 15.35 44.15 19.55 44.4 28.2 44.55 36.65 44.45 37.1 44.4 37.1 44.4 36.95 44.2 36.9 44.0 36.9 Q43.35 36.45 41.65 35.95 L41.15 35.65 40.8 35.45 40.75 35.45 40.6 35.4 Q40.6 34.4 40.75 33.65 L40.75 33.05 41.0 27.95 41.0 24.95 Q40.8 22.2 40.75 16.8 L40.8 15.35 40.75 15.35 40.75 12.8 40.8 12.7 40.85 12.65 Q41.75 11.95 42.2 11.85 42.8 11.3 43.55 11.1 L43.95 11.1 44.0 11.0 M36.95 44.55 L36.95 44.7 35.4 44.6 34.35 44.75 31.3 44.75 31.15 44.7 24.6 44.7 24.5 44.75 19.25 44.75 15.45 44.85 13.0 44.75 10.2 44.7 10.2 44.5 10.25 44.35 11.2 42.55 11.25 42.55 11.45 42.2 11.55 42.2 11.7 41.9 12.0 41.35 Q12.0 41.05 11.95 41.3 L11.8 41.25 12.1 41.05 13.2 41.15 19.7 41.25 19.9 41.3 24.7 41.3 32.95 41.3 34.0 41.15 34.5 41.15 34.7 41.15 34.75 41.15 34.7 41.3 34.95 41.5 35.75 42.8 36.95 44.35 36.95 44.5 36.95 44.55 M10.65 4.2 L13.65 4.35 14.0 4.25 30.9 4.35 33.1 4.25 35.9 4.35 37.2 4.35 37.35 4.35 37.4 4.45 37.3 4.45 37.3 4.55 37.2 4.45 37.3 4.65 Q37.0 4.85 36.8 5.2 35.45 7.05 35.25 7.7 L33.2 7.9 21.4 7.65 20.85 7.65 Q20.6 7.5 17.55 7.65 L17.25 7.65 13.6 7.9 12.75 7.9 12.7 7.75 12.65 7.65 12.7 7.5 11.2 4.9 10.65 4.2" fill="#e80415" fill-rule="evenodd" stroke="none"/>
      <path d="M32.7 11.15 L33.25 11.7 37.2 15.25 37.15 15.4 37.2 15.6 Q37.0 15.65 35.45 16.6 L34.25 17.25 34.1 17.5 34.0 17.65 33.6 18.1 33.45 17.9 31.85 16.5 30.15 14.85 30.15 14.75 Q30.35 14.5 30.65 14.3 L31.05 13.8 Q31.2 13.3 32.0 12.55 L32.05 12.45 32.4 11.95 32.6 11.3 32.7 11.2 32.7 11.15" fill="#fb0b1d" fill-rule="evenodd" stroke="none"/>
      <path d="M37.4 4.45 L37.7 4.45 37.75 4.55 37.9 4.6 38.85 5.6 42.35 9.0 43.5 10.4 44.0 10.95 44.0 11.0 43.95 11.1 43.55 11.1 Q42.8 11.3 42.2 11.85 41.75 11.95 40.85 12.65 L40.8 12.6 40.8 12.55 38.85 10.75 35.45 7.9 35.4 7.95 35.2 7.95 35.25 7.7 Q35.45 7.05 36.8 5.2 37.0 4.85 37.3 4.65 L37.2 4.45 37.3 4.55 37.3 4.45 37.4 4.45 M40.75 12.8 L40.75 15.35 40.8 15.35 40.75 16.8 Q40.8 22.2 41.0 24.95 L41.0 27.95 40.75 33.05 40.75 33.65 Q40.6 34.4 40.6 35.4 L40.75 35.45 40.6 35.45 40.55 35.45 40.45 35.4 40.25 35.4 37.65 33.6 37.6 33.6 37.4 33.45 37.4 33.3 37.6 33.25 Q37.2 31.55 37.2 21.9 L37.25 20.95 37.15 20.7 37.05 19.9 37.2 16.6 37.2 16.1 Q37.25 15.55 37.4 15.35 L37.4 15.4 37.65 15.2 39.1 14.05 39.3 13.85 40.75 12.8 M32.9 37.6 L32.9 37.75 32.7 37.65 32.55 37.5 32.7 37.7 32.7 37.85 32.5 37.85 31.55 37.85 30.95 37.9 26.7 37.9 23.7 37.85 21.75 37.9 16.75 37.9 15.0 37.7 14.7 37.9 14.55 37.85 15.55 36.6 16.55 35.05 16.65 34.85 16.7 34.95 17.0 34.55 17.15 34.15 17.35 34.15 20.35 34.05 21.2 34.15 21.6 34.1 21.6 34.05 25.75 34.05 26.5 34.1 30.4 34.05 31.65 35.7 32.6 37.25 32.6 37.3 32.9 37.6 M13.85 17.2 Q13.7 17.2 13.7 17.3 L13.7 17.55 13.7 18.35 13.8 18.4 13.85 18.6 13.65 19.6 13.7 21.55 Q13.7 23.6 14.0 26.4 L14.2 29.5 14.2 29.85 14.2 30.1 14.1 31.1 13.95 31.1 13.4 31.35 12.65 32.05 11.4 32.65 10.75 33.2 10.2 33.3 10.2 33.55 10.1 33.55 10.2 33.6 10.4 33.9 10.45 34.05 10.55 34.05 11.15 34.4 11.15 34.55 12.75 36.0 14.1 37.35 14.3 37.9 14.4 37.9 14.35 38.2 14.2 38.25 13.45 39.4 13.05 39.9 12.1 40.9 12.1 41.0 12.05 40.9 11.95 40.95 11.75 40.95 11.7 40.8 10.75 40.05 9.45 38.9 Q7.1 36.85 6.45 36.45 L6.45 36.15 6.6 36.25 6.6 36.15 8.4 34.95 9.55 34.1 9.95 33.65 9.9 33.55 9.95 33.3 9.95 33.1 9.95 33.05 10.0 32.25 9.95 32.0 9.95 31.95 Q10.2 30.5 9.85 27.4 L9.85 20.45 10.0 19.4 9.95 18.4 9.9 17.2 10.1 16.0 10.0 15.75 10.0 15.6 10.1 15.2 10.1 15.15 10.4 15.25 Q10.5 15.75 11.45 16.35 L13.5 17.3 13.65 17.3 13.8 17.1 13.85 17.2" fill="#fc3645" fill-rule="evenodd" stroke="none"/>
      <path d="M3.65 10.25 L3.7 10.2 Q3.95 9.8 5.55 8.35 L8.7 5.6 9.3 5.1 10.1 4.45 10.45 4.2 10.65 4.2 11.2 4.9 12.7 7.5 12.65 7.65 12.4 7.95 Q12.15 8.0 12.05 8.2 L11.4 8.5 9.55 10.2 6.85 12.55 6.75 12.6 6.55 12.8 6.45 12.6 Q5.9 12.45 4.85 11.5 L3.7 10.3 3.65 10.25" fill="#fc2333" fill-rule="evenodd" stroke="none"/>
      <path d="M35.4 7.95 L33.55 9.9 33.4 10.2 32.7 11.1 32.6 11.05 32.55 11.0 32.05 11.1 21.6 11.1 21.4 11.2 16.0 11.25 15.5 11.3 15.0 11.25 14.95 11.25 14.7 11.15 14.55 10.95 13.7 9.8 13.25 8.65 12.75 7.9 13.6 7.9 17.25 7.65 17.55 7.65 Q20.6 7.5 20.85 7.65 L21.4 7.65 33.2 7.9 35.25 7.7 35.2 7.95 35.4 7.95" fill="#fd606b" fill-rule="evenodd" stroke="none"/>
      <path d="M44.4 37.1 L44.4 37.2 44.4 37.3 44.4 37.4 40.8 40.95 36.95 44.55 36.95 44.5 36.95 44.35 35.75 42.8 34.95 41.5 34.7 41.3 34.75 41.15 34.7 41.15 34.5 41.15 34.0 41.15 32.95 41.3 24.7 41.3 19.9 41.3 19.7 41.25 13.2 41.15 12.1 41.05 11.8 41.25 11.95 41.3 Q12.0 41.05 12.0 41.35 L11.7 41.9 11.55 42.2 11.45 42.2 11.25 42.55 11.2 42.55 10.25 44.35 10.2 44.5 9.95 44.5 Q3.3 38.0 3.3 38.35 L3.45 38.15 4.45 37.5 5.05 37.15 5.5 36.9 5.75 36.9 6.15 36.65 6.45 36.45 Q7.1 36.85 9.45 38.9 L10.75 40.05 11.7 40.8 11.75 40.95 11.95 40.95 12.05 40.9 12.1 41.0 12.1 40.9 13.05 39.9 13.45 39.4 14.2 38.25 14.35 38.2 14.4 37.9 14.55 37.85 14.7 37.9 15.0 37.7 16.75 37.9 21.75 37.9 23.7 37.85 26.7 37.9 30.95 37.9 31.55 37.85 32.5 37.85 32.7 37.85 32.7 37.7 32.55 37.5 32.7 37.65 32.9 37.75 33.1 38.15 33.15 38.15 33.45 38.7 33.9 39.65 34.75 40.9 34.75 41.05 35.0 40.7 35.15 40.65 Q35.25 40.5 35.45 40.45 L36.75 39.2 38.85 37.25 39.1 36.9 39.65 36.45 40.35 35.6 40.6 35.45 40.75 35.45 40.8 35.45 41.15 35.65 41.65 35.95 Q43.35 36.45 44.0 36.9 L44.2 36.9 44.4 36.95 44.4 37.1 M32.7 11.1 L32.7 11.15 32.7 11.2 32.6 11.3 32.4 11.95 32.05 12.45 32.0 12.55 Q31.2 13.3 31.05 13.8 L30.65 14.3 Q30.35 14.5 30.15 14.75 L29.1 14.8 28.2 14.75 27.1 14.7 26.5 14.85 25.5 14.75 22.9 14.7 21.15 14.75 17.55 14.75 16.9 14.95 16.7 15.0 Q15.95 15.25 13.85 17.2 L13.8 17.1 13.65 17.3 13.5 17.3 11.45 16.35 Q10.5 15.75 10.4 15.25 L10.1 15.15 10.1 15.2 10.0 15.6 10.0 15.75 10.1 16.0 9.9 17.2 9.95 18.4 10.0 19.4 9.85 20.45 9.85 27.4 Q10.2 30.5 9.95 31.95 L9.95 32.0 10.0 32.25 9.95 33.05 9.95 33.1 9.95 33.3 9.9 33.55 9.95 33.65 9.55 34.1 8.4 34.95 6.6 36.15 6.35 34.45 6.25 34.1 6.35 32.15 6.45 32.15 6.65 32.75 6.45 29.85 6.6 28.6 6.55 27.95 6.45 27.8 6.35 25.05 6.15 24.2 Q6.15 24.0 6.45 23.85 L6.45 19.15 6.75 16.0 6.65 14.65 Q7.1 14.25 6.85 13.25 L8.35 14.25 10.1 15.15 10.3 15.15 10.4 15.15 10.4 15.05 10.25 15.05 10.25 15.0 Q10.55 15.0 12.45 13.2 L13.0 12.65 14.7 11.2 14.7 11.15 14.95 11.25 15.0 11.25 15.5 11.3 16.0 11.25 21.4 11.2 21.6 11.1 32.05 11.1 32.55 11.0 32.6 11.05 32.6 11.15 32.65 11.1 32.7 11.1 M37.2 15.25 L37.3 15.35 37.4 15.35 Q37.25 15.55 37.2 16.1 L37.2 16.6 37.05 19.9 37.15 20.7 37.25 20.95 37.2 21.9 Q37.2 31.55 37.6 33.25 L37.4 33.3 37.4 33.45 37.6 33.6 37.55 33.6 37.45 33.65 37.45 33.55 36.5 32.9 35.7 32.25 35.4 32.05 35.0 31.8 Q33.9 31.1 33.4 31.05 L33.4 31.0 33.4 30.6 33.55 30.25 33.45 29.85 33.45 29.45 33.4 28.3 33.45 27.15 33.45 26.75 33.4 24.95 33.45 23.45 33.55 22.95 33.55 22.7 33.45 20.05 33.45 19.9 33.55 19.2 33.6 18.9 33.6 18.55 33.45 18.0 33.45 17.9 33.6 18.1 34.0 17.65 34.1 17.5 34.25 17.25 35.45 16.6 Q37.0 15.65 37.2 15.6 L37.15 15.4 37.2 15.25" fill="#fe989f" fill-rule="evenodd" stroke="none"/>
      <path d="M3.45 38.15 L3.3 38.15 3.5 10.25 3.65 10.25 3.7 10.3 4.85 11.5 Q5.9 12.45 6.45 12.6 L6.55 12.8 6.75 12.85 6.6 12.85 6.85 13.25 Q7.1 14.25 6.65 14.65 L6.75 16.0 6.45 19.15 6.45 23.85 Q6.15 24.0 6.15 24.2 L6.35 25.05 6.45 27.8 6.55 27.95 6.6 28.6 6.45 29.85 6.65 32.75 6.45 32.15 6.35 32.15 6.25 34.1 6.35 34.45 6.6 36.15 6.6 36.25 6.45 36.15 6.45 36.45 6.15 36.65 5.75 36.9 5.5 36.9 5.05 37.15 4.45 37.5 3.45 38.15" fill="#fecdd0" fill-rule="evenodd" stroke="none"/>
    </g>
  </defs>
</svg>
