<?xml version="1.0" encoding="UTF-8" standalone="no"?>
<svg xmlns:ffdec="https://www.free-decompiler.com/flash" xmlns:xlink="http://www.w3.org/1999/xlink" ffdec:objectType="frame" height="185.15px" width="123.2px" xmlns="http://www.w3.org/2000/svg">
  <g transform="matrix(1.0, 0.0, 0.0, 1.0, 63.35, 93.1)">
    <use ffdec:characterId="363" height="26.3" transform="matrix(7.0, 0.0, 0.0, 7.0, -63.35, -92.05)" width="17.45" xlink:href="#morphshape0"/>
  </g>
  <defs>
    <g id="morphshape0" transform="matrix(1.0, 0.0, 0.0, 1.0, 9.05, 13.15)">
      <path d="M-7.7 -0.5 L-7.7 -0.5 -7.7 -0.45 Q-7.7 -0.1 -7.15 1.1 L-7.1 1.15 -7.05 1.3 -7.05 1.3 -7.0 1.35 Q-6.15 2.6 -6.15 3.0 L-6.15 3.05 -6.15 3.15 Q-6.2 3.45 -6.35 3.7 L-6.35 3.75 Q-6.55 4.0 -6.85 4.15 L-7.1 4.2 -7.2 4.4 -7.2 4.45 -7.25 4.45 -7.25 4.5 -6.75 5.65 -6.65 5.7 -6.65 5.7 -6.25 5.85 -6.2 5.85 -6.15 5.85 Q-4.95 6.4 -4.9 7.35 L-4.9 7.35 -4.9 7.4 -4.9 7.45 -4.9 7.65 -4.9 7.65 Q-4.9 8.15 -5.05 8.75 L-5.1 8.95 -5.1 8.95 Q-5.1 9.15 -5.1 9.4 L-5.1 9.45 Q-5.0 9.55 -4.95 9.75 L-4.95 9.75 -4.95 9.8 -4.85 10.15 -4.8 10.25 -4.8 10.25 -4.75 10.25 -4.6 10.4 -4.5 10.45 Q-4.15 10.7 -3.75 10.8 L-3.6 10.8 -3.5 10.8 Q-3.1 10.85 -2.8 10.95 L-2.75 10.95 -2.65 11.0 -2.6 11.0 Q-2.1 11.25 -1.95 11.5 -1.9 11.6 -1.9 11.7 L-1.9 11.85 -1.85 11.95 -1.8 12.15 -1.25 12.25 -1.2 12.25 -1.15 12.25 -1.15 12.25 -0.8 12.3 -0.75 12.3 -0.75 12.3 -0.7 12.3 -0.35 12.3 0.7 12.2 0.75 12.2 1.0 12.15 1.1 12.15 Q1.1 12.15 1.1 12.1 L1.35 12.05 1.35 12.05 1.5 11.9 1.65 11.8 Q1.75 11.75 1.9 11.7 L2.3 11.65 2.55 11.7 2.65 11.7 2.7 11.7 2.85 11.7 3.05 11.7 3.1 11.75 3.15 11.75 Q3.5 11.55 3.7 11.25 L3.75 11.15 Q3.85 10.95 3.9 10.7 L4.0 10.15 4.0 10.0 Q4.05 9.75 4.15 9.5 4.3 9.0 4.85 8.5 L5.25 8.2 5.3 8.2 5.3 8.15 Q5.45 8.05 5.65 7.95 L5.7 7.9 5.7 7.9 6.0 7.75 6.15 7.7 6.2 7.7 6.4 7.5 6.5 7.2 6.6 6.8 6.6 6.75 6.6 6.65 6.6 6.6 6.6 6.55 6.6 6.25 6.6 6.2 6.6 6.15 6.6 6.1 6.6 6.05 6.6 5.9 Q6.55 5.7 6.5 5.55 L6.45 5.35 6.45 5.3 Q6.35 5.15 6.25 5.05 L6.2 4.8 Q6.1 4.65 6.0 4.5 L5.95 4.45 Q5.85 4.15 5.9 3.9 5.95 3.7 6.1 3.45 6.2 3.3 6.35 3.15 L6.4 3.1 6.45 3.05 6.5 3.0 6.75 2.75 6.75 2.7 Q6.9 2.5 6.95 2.35 L7.0 2.15 Q7.05 1.95 7.05 1.8 L7.05 1.75 6.95 1.25 6.9 1.2 6.85 1.15 6.65 0.75 6.55 0.5 6.5 0.4 Q6.55 0.05 6.5 -0.15 L6.45 -0.35 6.45 -0.4 6.45 -0.45 Q6.55 -0.65 6.7 -0.9 L6.9 -1.25 7.0 -1.6 7.05 -2.0 7.05 -2.15 Q6.85 -2.35 6.6 -2.65 L6.6 -2.65 6.55 -2.75 6.25 -3.15 Q6.0 -3.55 6.0 -3.8 6.0 -4.05 6.05 -4.35 L6.05 -4.55 6.05 -4.6 6.1 -4.65 Q6.25 -4.8 6.4 -5.05 L6.45 -5.2 6.5 -5.35 6.6 -5.6 6.6 -5.9 Q6.55 -6.4 5.9 -6.8 L5.6 -6.9 Q5.35 -7.05 5.15 -7.2 4.4 -7.85 4.0 -8.65 L3.95 -8.8 3.95 -8.8 3.9 -9.1 Q3.75 -9.9 3.3 -10.4 3.1 -10.65 2.85 -10.85 2.45 -10.95 2.05 -11.0 L1.9 -11.0 Q1.55 -11.05 1.2 -11.3 L1.2 -11.3 Q1.15 -11.45 1.1 -11.5 L1.05 -11.55 0.95 -11.6 0.6 -11.9 Q-0.35 -12.05 -0.85 -11.85 -1.2 -11.7 -1.3 -11.45 L-1.3 -11.45 -1.35 -11.3 -1.45 -11.05 -1.55 -11.0 -1.6 -10.85 Q-1.7 -10.7 -1.8 -10.55 -1.95 -10.3 -2.15 -10.15 L-2.2 -10.15 -2.55 -9.95 Q-3.05 -9.85 -3.55 -9.75 L-3.75 -9.75 -3.8 -9.7 -3.9 -9.7 -4.0 -9.65 Q-4.3 -9.6 -4.5 -9.4 L-4.6 -9.25 Q-4.75 -9.05 -4.85 -8.9 L-4.9 -8.65 -4.9 -8.45 -4.85 -8.25 -4.85 -8.15 -4.75 -8.05 -4.65 -7.85 -4.65 -7.75 -4.6 -7.65 -4.6 -7.55 -4.55 -7.25 -4.55 -7.1 -4.5 -6.95 Q-4.4 -6.65 -4.4 -6.5 L-4.4 -6.3 Q-4.4 -6.1 -4.45 -6.05 L-4.55 -5.95 Q-4.6 -5.9 -4.65 -5.85 -4.75 -5.7 -4.9 -5.55 L-5.0 -5.5 -5.1 -5.4 -5.15 -5.25 -5.3 -5.0 -5.25 -4.9 Q-5.15 -4.6 -5.2 -4.4 -5.25 -4.15 -5.55 -3.85 L-6.05 -3.45 Q-6.4 -3.2 -6.7 -3.0 L-7.1 -2.8 -7.55 -1.45 Q-7.6 -1.15 -7.6 -0.8 M-8.6 -1.45 L-8.6 -1.4 -8.6 -1.4 Q-8.6 -0.6 -8.05 0.35 L-8.05 0.4 -8.05 0.4 -8.0 0.45 -7.9 0.75 -7.9 0.85 -7.85 0.95 -7.45 2.3 -7.45 2.35 Q-7.5 2.55 -7.55 2.85 L-7.6 2.9 -7.8 3.1 -7.85 3.1 -7.85 3.15 -8.05 3.45 Q-8.2 3.8 -8.2 4.15 L-8.2 4.25 -8.15 4.45 Q-8.1 4.65 -8.05 4.85 L-7.85 5.05 Q-7.75 5.25 -7.6 5.4 L-7.25 5.7 -7.0 5.85 Q-5.9 6.5 -5.55 7.1 L-5.5 7.15 Q-5.55 7.5 -5.6 7.9 L-5.65 8.0 -5.7 8.2 -5.85 8.8 -5.9 9.05 -5.95 9.05 Q-5.9 9.3 -5.85 9.55 L-5.85 9.7 -5.85 9.75 -5.85 9.8 -5.85 9.85 Q-5.8 10.15 -5.7 10.45 L-5.6 10.55 -5.55 10.6 -5.5 10.7 -5.5 10.7 -5.35 10.7 -5.1 10.95 -5.0 10.95 -4.9 11.0 -4.9 11.0 -4.75 11.0 -4.4 11.05 -4.35 11.05 -3.7 11.0 -3.35 11.0 -3.05 11.0 -3.0 11.05 -2.95 11.1 -2.95 11.15 -2.95 11.1 -2.95 11.15 Q-2.9 11.25 -2.9 11.3 L-2.75 11.5 -2.75 11.55 -2.7 11.7 -2.7 11.7 -2.7 11.7 -2.6 11.85 -2.5 12.05 -2.5 12.05 -2.4 12.15 -2.35 12.15 -2.15 12.35 -2.0 12.45 -1.9 12.5 -1.85 12.5 -1.6 12.6 -1.55 12.6 -1.1 12.7 -0.5 12.7 -0.4 12.7 0.5 12.65 1.1 12.55 1.5 12.5 2.0 12.45 2.15 12.45 2.5 12.45 2.8 12.55 3.05 12.55 3.2 12.6 3.25 12.6 3.6 12.5 Q4.3 12.3 4.55 11.65 4.7 11.35 4.75 10.95 L4.75 10.9 4.8 10.8 4.85 10.5 4.85 10.4 4.85 10.2 Q4.9 10.0 4.95 9.8 5.1 9.3 5.75 8.75 L6.05 8.5 6.6 8.1 6.95 7.95 7.2 7.75 Q7.45 7.65 7.6 7.5 L7.8 7.35 7.95 7.0 8.0 6.85 8.0 6.7 Q8.0 6.4 8.0 6.05 L7.95 5.8 7.9 5.7 Q7.85 5.6 7.8 5.55 L7.7 5.35 Q7.6 5.1 7.5 4.9 L7.35 4.55 7.35 4.4 7.35 4.4 Q7.25 4.0 7.2 3.75 L7.25 3.6 Q7.3 3.45 7.45 3.35 L7.5 3.3 7.6 3.15 7.65 3.05 Q7.85 2.75 8.05 2.45 8.15 2.3 8.2 2.2 8.3 2.05 8.25 1.75 8.25 1.45 8.2 1.2 L8.2 1.15 Q8.15 1.05 8.1 0.9 8.0 0.75 7.9 0.55 L7.9 0.5 7.9 0.5 Q7.75 0.2 7.7 -0.1 L7.7 -0.15 7.7 -0.35 Q7.7 -0.6 7.75 -0.85 L7.75 -0.9 7.8 -1.05 Q7.9 -1.2 8.0 -1.3 L8.1 -1.55 8.15 -1.8 8.15 -1.8 8.2 -1.95 Q8.2 -2.25 8.1 -2.45 L8.0 -2.65 7.9 -2.75 7.85 -2.8 Q7.75 -2.95 7.65 -3.05 L7.6 -3.1 7.55 -3.1 7.5 -3.2 Q7.35 -3.3 7.3 -3.4 7.15 -3.6 7.15 -3.8 7.1 -4.05 7.15 -4.3 L7.25 -4.65 Q7.35 -4.75 7.4 -4.9 L7.35 -5.0 7.35 -5.0 7.35 -5.05 7.45 -5.3 7.45 -5.45 Q7.55 -5.85 7.55 -6.25 L7.5 -6.55 7.5 -6.55 7.5 -6.6 7.45 -6.8 7.35 -7.0 Q7.1 -7.35 6.55 -7.6 L6.25 -7.7 6.0 -7.75 5.85 -7.85 5.85 -7.9 5.7 -8.05 5.35 -8.4 5.1 -8.75 5.0 -8.95 Q4.85 -9.15 4.8 -9.3 L4.75 -9.5 4.75 -9.5 4.65 -9.65 4.6 -9.7 4.5 -9.9 4.5 -10.05 4.5 -10.2 Q4.5 -10.4 4.45 -10.7 L4.45 -10.75 4.45 -10.9 4.4 -11.1 Q4.3 -11.15 4.25 -11.2 L4.1 -11.35 4.0 -11.4 3.85 -11.45 3.8 -11.5 3.75 -11.5 3.5 -11.55 3.35 -11.55 Q3.0 -11.65 2.6 -11.7 2.2 -11.8 1.95 -12.0 L1.8 -12.15 1.5 -12.45 1.35 -12.6 1.3 -12.65 0.75 -13.0 0.5 -13.05 Q-0.35 -13.2 -1.15 -12.75 L-1.4 -12.6 -1.65 -12.35 -1.95 -12.15 -2.05 -12.1 Q-2.15 -11.95 -2.2 -11.8 -2.35 -11.55 -2.65 -11.3 L-2.8 -11.2 -2.95 -11.15 Q-3.15 -11.0 -3.35 -10.9 L-3.65 -10.85 Q-4.0 -10.75 -4.3 -10.6 L-4.45 -10.55 -4.6 -10.55 -4.75 -10.5 -4.9 -10.4 -5.1 -10.4 -5.15 -10.35 -5.2 -10.3 -5.35 -10.15 -5.45 -10.0 -5.5 -9.9 -5.6 -9.8 -5.65 -9.7 -5.75 -9.55 -5.75 -9.5 -5.75 -9.45 -5.75 -9.25 -5.75 -9.25 -5.7 -9.15 -5.7 -9.15 -5.7 -9.05 -5.7 -8.9 -5.7 -8.85 -5.7 -8.6 -5.7 -8.5 -5.5 -7.85 -5.35 -7.45 -5.35 -7.05 -5.4 -6.95 -5.35 -6.9 -5.35 -6.85 Q-5.3 -6.8 -5.3 -6.7 L-5.3 -6.6 Q-5.7 -6.45 -6.05 -6.05 L-6.1 -5.95 Q-6.15 -5.7 -6.2 -5.35 L-6.2 -5.3 -6.25 -4.95 -6.2 -4.9 Q-6.15 -4.65 -6.2 -4.4 -6.35 -4.1 -6.65 -3.85 -6.85 -3.7 -7.15 -3.45 -7.35 -3.3 -7.55 -3.15 L-7.6 -3.15 -7.8 -3.05 -7.85 -3.0 -8.1 -2.65 -8.4 -2.1 Q-8.7 -1.45 -8.7 -1.1" fill="#bfdfea" fill-rule="evenodd" stroke="none"/>
      <path d="M-8.7 -1.1 Q-8.7 -1.45 -8.4 -2.1 L-8.1 -2.65 -7.85 -3.0 -7.8 -3.05 -7.6 -3.15 -7.55 -3.15 Q-7.35 -3.3 -7.15 -3.45 -6.85 -3.7 -6.65 -3.85 -6.35 -4.1 -6.2 -4.4 -6.15 -4.65 -6.2 -4.9 L-6.25 -4.95 -6.2 -5.3 -6.2 -5.35 Q-6.15 -5.7 -6.1 -5.95 L-6.05 -6.05 Q-5.7 -6.45 -5.3 -6.6 L-5.3 -6.7 Q-5.3 -6.8 -5.35 -6.85 L-5.35 -6.9 -5.4 -6.95 -5.35 -7.05 -5.35 -7.45 -5.5 -7.85 -5.7 -8.5 -5.7 -8.6 -5.7 -8.85 -5.7 -8.9 -5.7 -9.05 -5.7 -9.15 -5.7 -9.15 -5.75 -9.25 -5.75 -9.25 -5.75 -9.45 -5.75 -9.5 -5.75 -9.55 -5.65 -9.7 -5.6 -9.8 -5.5 -9.9 -5.45 -10.0 -5.35 -10.15 -5.2 -10.3 -5.15 -10.35 -5.1 -10.4 -4.9 -10.4 -4.75 -10.5 -4.6 -10.55 -4.45 -10.55 -4.3 -10.6 Q-4.0 -10.75 -3.65 -10.85 L-3.35 -10.9 Q-3.15 -11.0 -2.95 -11.15 L-2.8 -11.2 -2.65 -11.3 Q-2.35 -11.55 -2.2 -11.8 -2.15 -11.95 -2.05 -12.1 L-1.95 -12.15 -1.65 -12.35 -1.4 -12.6 -1.15 -12.75 Q-0.35 -13.2 0.5 -13.05 L0.75 -13.0 1.3 -12.65 1.35 -12.6 1.5 -12.45 1.8 -12.15 1.95 -12.0 Q2.2 -11.8 2.6 -11.7 3.0 -11.65 3.35 -11.55 L3.5 -11.55 3.75 -11.5 3.8 -11.5 3.85 -11.45 4.0 -11.4 4.1 -11.35 4.25 -11.2 Q4.3 -11.15 4.4 -11.1 L4.45 -10.9 4.45 -10.75 4.45 -10.7 Q4.5 -10.4 4.5 -10.2 L4.5 -10.05 4.5 -9.9 4.6 -9.7 4.65 -9.65 4.75 -9.5 4.75 -9.5 4.8 -9.3 Q4.85 -9.15 5.0 -8.95 L5.1 -8.75 5.35 -8.4 5.7 -8.05 5.85 -7.9 5.85 -7.85 6.0 -7.75 6.25 -7.7 6.55 -7.6 Q7.1 -7.35 7.35 -7.0 L7.45 -6.8 7.5 -6.6 7.5 -6.55 7.5 -6.55 7.55 -6.25 Q7.55 -5.85 7.45 -5.45 L7.45 -5.3 7.35 -5.05 7.35 -5.0 7.35 -5.0 7.4 -4.9 Q7.35 -4.75 7.25 -4.65 L7.15 -4.3 Q7.1 -4.05 7.15 -3.8 7.15 -3.6 7.3 -3.4 7.35 -3.3 7.5 -3.2 L7.55 -3.1 7.6 -3.1 7.65 -3.05 Q7.75 -2.95 7.85 -2.8 L7.9 -2.75 8.0 -2.65 8.1 -2.45 Q8.2 -2.25 8.2 -1.95 L8.15 -1.8 8.15 -1.8 8.1 -1.55 8.0 -1.3 Q7.9 -1.2 7.8 -1.05 L7.75 -0.9 7.75 -0.85 Q7.7 -0.6 7.7 -0.35 L7.7 -0.15 7.7 -0.1 Q7.75 0.2 7.9 0.5 L7.9 0.5 7.9 0.55 Q8.0 0.75 8.1 0.9 8.15 1.05 8.2 1.15 L8.2 1.2 Q8.25 1.45 8.25 1.75 8.3 2.05 8.2 2.2 8.15 2.3 8.05 2.45 7.85 2.75 7.65 3.05 L7.6 3.15 7.5 3.3 7.45 3.35 Q7.3 3.45 7.25 3.6 L7.2 3.75 Q7.25 4.0 7.35 4.4 L7.35 4.4 7.35 4.55 7.5 4.9 Q7.6 5.1 7.7 5.35 L7.8 5.55 Q7.85 5.6 7.9 5.7 L7.95 5.8 8.0 6.05 Q8.0 6.4 8.0 6.7 L8.0 6.85 7.95 7.0 7.8 7.35 7.6 7.5 Q7.45 7.65 7.2 7.75 L6.95 7.95 6.6 8.1 6.05 8.5 5.75 8.75 Q5.1 9.3 4.95 9.8 4.9 10.0 4.85 10.2 L4.85 10.4 4.85 10.5 4.8 10.8 4.75 10.9 4.75 10.95 Q4.7 11.35 4.55 11.65 4.3 12.3 3.6 12.5 L3.25 12.6 3.2 12.6 3.05 12.55 2.8 12.55 2.5 12.45 2.15 12.45 2.0 12.45 1.5 12.5 1.1 12.55 0.5 12.65 -0.4 12.7 -0.5 12.7 -1.1 12.7 -1.55 12.6 -1.6 12.6 -1.85 12.5 -1.9 12.5 -2.0 12.45 -2.15 12.35 -2.35 12.15 -2.4 12.15 -2.5 12.05 -2.5 12.05 -2.6 11.85 -2.7 11.7 -2.7 11.7 -2.7 11.7 -2.75 11.55 -2.75 11.5 -2.9 11.3 Q-2.9 11.25 -2.95 11.15 L-2.95 11.1 -2.95 11.15 -2.95 11.1 -3.0 11.05 -3.05 11.0 -3.35 11.0 -3.7 11.0 -4.35 11.05 -4.4 11.05 -4.75 11.0 -4.9 11.0 -4.9 11.0 -5.0 10.95 -5.1 10.95 -5.35 10.7 -5.5 10.7 -5.5 10.7 -5.55 10.6 -5.6 10.55 -5.7 10.45 Q-5.8 10.15 -5.85 9.85 L-5.85 9.8 -5.85 9.75 -5.85 9.7 -5.85 9.55 Q-5.9 9.3 -5.95 9.05 L-5.9 9.05 -5.85 8.8 -5.7 8.2 -5.65 8.0 -5.6 7.9 Q-5.55 7.5 -5.5 7.15 L-5.55 7.1 Q-5.9 6.5 -7.0 5.85 L-7.25 5.7 -7.6 5.4 Q-7.75 5.25 -7.85 5.05 L-8.05 4.85 Q-8.1 4.65 -8.15 4.45 L-8.2 4.25 -8.2 4.15 Q-8.2 3.8 -8.05 3.45 L-7.85 3.15 -7.85 3.1 -7.8 3.1 -7.6 2.9 -7.55 2.85 Q-7.5 2.55 -7.45 2.35 L-7.45 2.3 -7.85 0.95 -7.9 0.85 -7.9 0.75 -8.0 0.45 -8.05 0.4 -8.05 0.4 -8.05 0.35 Q-8.6 -0.6 -8.6 -1.4 L-8.6 -1.4 -8.6 -1.45 M-7.6 -0.8 Q-7.6 -1.15 -7.55 -1.45 L-7.1 -2.8 -6.7 -3.0 Q-6.4 -3.2 -6.05 -3.45 L-5.55 -3.85 Q-5.25 -4.15 -5.2 -4.4 -5.15 -4.6 -5.25 -4.9 L-5.3 -5.0 -5.15 -5.25 -5.1 -5.4 -5.0 -5.5 -4.9 -5.55 Q-4.75 -5.7 -4.65 -5.85 -4.6 -5.9 -4.55 -5.95 L-4.45 -6.05 Q-4.4 -6.1 -4.4 -6.3 L-4.4 -6.5 Q-4.4 -6.65 -4.5 -6.95 L-4.55 -7.1 -4.55 -7.25 -4.6 -7.55 -4.6 -7.65 -4.65 -7.75 -4.65 -7.85 -4.75 -8.05 -4.85 -8.15 -4.85 -8.25 -4.9 -8.45 -4.9 -8.65 -4.85 -8.9 Q-4.75 -9.05 -4.6 -9.25 L-4.5 -9.4 Q-4.3 -9.6 -4.0 -9.65 L-3.9 -9.7 -3.8 -9.7 -3.75 -9.75 -3.55 -9.75 Q-3.05 -9.85 -2.55 -9.95 L-2.2 -10.15 -2.15 -10.15 Q-1.95 -10.3 -1.8 -10.55 -1.7 -10.7 -1.6 -10.85 L-1.55 -11.0 -1.45 -11.05 -1.35 -11.3 -1.3 -11.45 -1.3 -11.45 Q-1.2 -11.7 -0.85 -11.85 -0.35 -12.05 0.6 -11.9 L0.95 -11.6 1.05 -11.55 1.1 -11.5 Q1.15 -11.45 1.2 -11.3 L1.2 -11.3 Q1.55 -11.05 1.9 -11.0 L2.05 -11.0 Q2.45 -10.95 2.85 -10.85 3.1 -10.65 3.3 -10.4 3.75 -9.9 3.9 -9.1 L3.95 -8.8 3.95 -8.8 4.0 -8.65 Q4.4 -7.85 5.15 -7.2 5.35 -7.05 5.6 -6.9 L5.9 -6.8 Q6.55 -6.4 6.6 -5.9 L6.6 -5.6 6.5 -5.35 6.45 -5.2 6.4 -5.05 Q6.25 -4.8 6.1 -4.65 L6.05 -4.6 6.05 -4.55 6.05 -4.35 Q6.0 -4.05 6.0 -3.8 6.0 -3.55 6.25 -3.15 L6.55 -2.75 6.6 -2.65 6.6 -2.65 Q6.85 -2.35 7.05 -2.15 L7.05 -2.0 7.0 -1.6 6.9 -1.25 6.7 -0.9 Q6.55 -0.65 6.45 -0.45 L6.45 -0.4 6.45 -0.35 6.5 -0.15 Q6.55 0.05 6.5 0.4 L6.55 0.5 6.65 0.75 6.85 1.15 6.9 1.2 6.95 1.25 7.05 1.75 7.05 1.8 Q7.05 1.95 7.0 2.15 L6.95 2.35 Q6.9 2.5 6.75 2.7 L6.75 2.75 6.5 3.0 6.45 3.05 6.4 3.1 6.35 3.15 Q6.2 3.3 6.1 3.45 5.95 3.7 5.9 3.9 5.85 4.15 5.95 4.45 L6.0 4.5 Q6.1 4.65 6.2 4.8 L6.25 5.05 Q6.35 5.15 6.45 5.3 L6.45 5.35 6.5 5.55 Q6.55 5.7 6.6 5.9 L6.6 6.05 6.6 6.1 6.6 6.15 6.6 6.2 6.6 6.25 6.6 6.55 6.6 6.6 6.6 6.65 6.6 6.75 6.6 6.8 6.5 7.2 6.4 7.5 6.2 7.7 6.15 7.7 6.0 7.75 5.7 7.9 5.7 7.9 5.65 7.95 Q5.45 8.05 5.3 8.15 L5.3 8.2 5.25 8.2 4.85 8.5 Q4.3 9.0 4.15 9.5 4.05 9.75 4.0 10.0 L4.0 10.15 3.9 10.7 Q3.85 10.95 3.75 11.15 L3.7 11.25 Q3.5 11.55 3.15 11.75 L3.1 11.75 3.05 11.7 2.85 11.7 2.7 11.7 2.65 11.7 2.55 11.7 2.3 11.65 1.9 11.7 Q1.75 11.75 1.65 11.8 L1.5 11.9 1.35 12.05 1.35 12.05 1.1 12.1 Q1.1 12.15 1.1 12.15 L1.0 12.15 0.75 12.2 0.7 12.2 -0.35 12.3 -0.7 12.3 -0.75 12.3 -0.75 12.3 -0.8 12.3 -1.15 12.25 -1.15 12.25 -1.2 12.25 -1.25 12.25 -1.8 12.15 -1.85 11.95 -1.9 11.85 -1.9 11.7 Q-1.9 11.6 -1.95 11.5 -2.1 11.25 -2.6 11.0 L-2.65 11.0 -2.75 10.95 -2.8 10.95 Q-3.1 10.85 -3.5 10.8 L-3.6 10.8 -3.75 10.8 Q-4.15 10.7 -4.5 10.45 L-4.6 10.4 -4.75 10.25 -4.8 10.25 -4.8 10.25 -4.85 10.15 -4.95 9.8 -4.95 9.75 -4.95 9.75 Q-5.0 9.55 -5.1 9.45 L-5.1 9.4 Q-5.1 9.15 -5.1 8.95 L-5.1 8.95 -5.05 8.75 Q-4.9 8.15 -4.9 7.65 L-4.9 7.65 -4.9 7.45 -4.9 7.4 -4.9 7.35 -4.9 7.35 Q-4.95 6.4 -6.15 5.85 L-6.2 5.85 -6.25 5.85 -6.65 5.7 -6.65 5.7 -6.75 5.65 -7.25 4.5 -7.25 4.45 -7.2 4.45 -7.2 4.4 -7.1 4.2 -6.85 4.15 Q-6.55 4.0 -6.35 3.75 L-6.35 3.7 Q-6.2 3.45 -6.15 3.15 L-6.15 3.05 -6.15 3.0 Q-6.15 2.6 -7.0 1.35 L-7.05 1.3 -7.05 1.3 -7.1 1.15 -7.15 1.1 Q-7.7 -0.1 -7.7 -0.45 L-7.7 -0.5 -7.7 -0.5 M-0.25 -2.3 L-0.25 -2.6 0.0 -3.2 0.4 -3.6 0.6 -3.8 Q0.7 -3.9 0.75 -4.0 0.8 -4.1 0.8 -4.25 L0.8 -4.25 0.9 -4.35 0.9 -4.4 0.95 -4.45 Q1.05 -4.55 1.1 -4.65 L1.1 -4.7 Q1.1 -4.75 1.1 -4.85 1.1 -4.95 1.05 -5.1 L1.05 -5.25 1.05 -5.35 1.05 -5.4 1.0 -5.6 1.0 -5.65 Q1.0 -5.7 1.0 -5.75 1.0 -5.85 1.1 -5.9 L1.25 -6.0 Q1.35 -6.1 1.55 -6.15 L1.6 -6.15 1.8 -6.2 Q2.0 -6.25 2.2 -6.3 L2.3 -6.5 Q2.3 -6.55 2.35 -6.75 2.45 -6.95 2.55 -7.05 3.0 -7.4 3.9 -7.05 L3.9 -7.05 Q3.9 -7.05 3.9 -6.95 L3.9 -6.95 Q4.1 -6.95 4.3 -6.85 5.05 -6.55 5.25 -6.0 5.25 -5.9 5.4 -5.75 5.6 -5.55 5.95 -5.2 6.55 -4.65 6.6 -4.3 L6.6 -4.2 6.6 -4.1 Q6.6 -4.05 6.45 -3.85 L6.45 -3.8 6.45 -3.7 Q6.45 -3.4 6.6 -3.15 6.65 -3.0 6.65 -2.9 L6.65 -2.9 Q6.9 -2.7 6.9 -2.4 6.9 -2.3 6.8 -2.05 L6.7 -1.85 6.7 -1.8 6.7 -1.7 Q6.7 -1.6 6.6 -1.45 L6.6 -1.4 Q6.6 -1.25 6.65 -1.1 L6.7 -1.05 6.8 -0.8 6.8 -0.65 6.8 -0.6 Q6.8 -0.45 6.65 -0.2 L6.65 -0.2 6.65 -0.2 6.55 -0.05 Q6.35 0.15 6.35 0.35 L6.35 0.35 Q6.35 0.55 6.5 0.75 L6.5 0.85 Q6.55 0.9 6.6 1.0 L6.6 1.15 6.6 1.3 6.6 1.3 6.6 1.3 6.6 1.35 6.6 1.35 Q6.6 1.6 6.5 1.75 L6.45 1.85 6.35 1.95 6.35 1.95 Q6.25 1.95 6.15 2.0 L6.15 2.0 5.95 2.1 Q5.55 2.4 5.5 2.7 L5.5 2.75 Q5.45 2.95 5.3 3.2 L5.3 3.2 4.95 3.55 4.9 3.6 4.9 3.6 4.9 3.6 4.6 3.65 Q4.5 3.65 4.4 3.65 L4.3 3.7 Q4.25 3.7 4.15 3.75 L4.05 3.75 4.05 3.75 3.4 3.8 3.4 3.8 3.25 3.8 3.25 3.8 3.25 3.8 3.25 3.8 Q3.05 3.8 2.85 3.7 L2.8 3.65 Q2.8 3.6 2.8 3.55 2.7 3.45 2.45 3.3 L2.45 3.3 Q2.3 3.25 2.1 3.2 L2.05 3.2 Q1.85 3.1 1.65 2.95 L1.55 2.9 1.55 2.9 1.55 2.85 1.5 2.65 1.5 2.65 1.45 2.5 1.4 2.3 1.4 2.3 1.4 2.25 Q1.45 2.0 1.45 1.75 L1.45 1.65 1.45 1.6 Q1.4 1.1 0.9 0.8 L0.9 0.8 0.7 0.7 0.7 0.7 0.5 0.2 0.5 0.2 0.5 0.2 0.55 0.1 0.65 0.05 Q0.75 -0.05 0.8 -0.15 0.85 -0.3 0.85 -0.45 L0.85 -0.5 Q0.85 -0.7 0.5 -1.3 L0.5 -1.3 0.45 -1.4 Q0.2 -1.95 0.2 -2.15 L0.2 -2.15 0.15 -2.25" fill="none" stroke="#000000" stroke-linecap="round" stroke-linejoin="round" stroke-opacity="0.0" stroke-width="0.0"/>
    </g>
  </defs>
</svg>
