<?xml version="1.0" encoding="UTF-8" standalone="no"?>
<svg xmlns:ffdec="https://www.free-decompiler.com/flash" xmlns:xlink="http://www.w3.org/1999/xlink" ffdec:objectType="frame" height="185.15px" width="123.2px" xmlns="http://www.w3.org/2000/svg">
  <g transform="matrix(1.0, 0.0, 0.0, 1.0, 63.35, 93.1)">
    <use ffdec:characterId="363" height="26.3" transform="matrix(7.0, 0.0, 0.0, 7.0, -63.35, -92.05)" width="17.45" xlink:href="#morphshape0"/>
  </g>
  <defs>
    <g id="morphshape0" transform="matrix(1.0, 0.0, 0.0, 1.0, 9.05, 13.15)">
      <path d="M-7.9 -0.85 L-7.9 -0.85 -7.9 -0.8 Q-7.9 -0.45 -7.35 0.8 L-7.3 0.85 -7.25 1.0 -7.25 1.0 -7.2 1.05 Q-6.25 2.3 -6.25 2.7 L-6.25 2.75 -6.25 2.85 Q-6.3 3.15 -6.5 3.4 L-6.5 3.45 Q-6.7 3.7 -7.05 3.8 L-7.35 3.8 -7.45 4.0 -7.45 4.05 -7.5 4.05 -7.5 4.1 -7.0 5.25 -6.9 5.3 -6.9 5.3 -6.5 5.45 -6.45 5.45 -6.4 5.45 Q-5.05 6.0 -5.05 6.95 L-5.05 6.95 -5.05 7.0 -5.05 7.05 -5.05 7.25 -5.05 7.25 Q-5.05 7.75 -5.25 8.35 L-5.3 8.55 -5.3 8.55 Q-5.35 8.75 -5.4 9.0 L-5.4 9.05 Q-5.3 9.15 -5.25 9.35 L-5.25 9.35 -5.25 9.4 -5.15 9.75 -5.1 9.85 -5.1 9.85 -5.05 9.85 -4.9 10.0 -4.8 10.05 Q-4.4 10.3 -4.0 10.4 L-3.85 10.4 -3.75 10.4 Q-3.3 10.4 -3.0 10.5 L-2.95 10.5 -2.85 10.55 -2.8 10.55 Q-2.3 10.8 -2.15 11.05 -2.1 11.15 -2.1 11.25 L-2.15 11.4 -2.2 11.55 -2.25 11.85 -1.7 12.0 -1.65 12.0 -1.6 12.0 -1.6 12.0 -1.25 12.05 -1.2 12.05 -1.2 12.05 -1.15 12.05 -0.8 12.05 0.3 11.95 0.35 11.95 0.6 11.9 0.7 11.9 Q0.7 11.9 0.7 11.85 L0.95 11.85 0.95 11.85 1.1 11.65 1.25 11.55 Q1.35 11.5 1.55 11.45 L1.95 11.4 2.2 11.45 2.3 11.45 2.35 11.5 2.5 11.55 2.7 11.65 2.75 11.7 2.8 11.7 Q3.2 11.55 3.4 11.2 L3.45 11.1 Q3.55 10.9 3.6 10.65 L3.65 10.1 3.65 9.95 Q3.7 9.7 3.75 9.45 3.85 8.9 4.4 8.4 L4.8 8.1 4.85 8.1 4.85 8.05 Q5.0 7.95 5.2 7.85 L5.25 7.8 5.25 7.8 5.65 7.7 5.85 7.75 5.9 7.75 6.2 7.6 6.35 7.3 6.45 6.9 6.45 6.85 6.45 6.75 6.45 6.7 6.45 6.65 6.45 6.35 6.45 6.3 6.45 6.25 6.45 6.2 6.45 6.15 6.45 6.0 Q6.45 5.8 6.45 5.6 L6.4 5.4 6.4 5.35 Q6.3 5.2 6.2 5.1 L6.15 4.85 Q6.0 4.7 5.85 4.55 L5.8 4.5 Q5.6 4.2 5.6 3.95 5.6 3.75 5.75 3.5 5.85 3.35 6.05 3.2 L6.1 3.15 6.15 3.1 6.2 3.05 6.5 2.85 6.5 2.8 Q6.65 2.6 6.75 2.45 L6.85 2.25 Q6.95 2.05 6.95 1.9 L6.95 1.85 6.9 1.35 6.85 1.3 6.8 1.25 6.55 0.85 6.4 0.6 6.3 0.5 Q6.2 0.15 6.1 -0.05 L6.05 -0.25 6.05 -0.3 6.05 -0.35 Q6.1 -0.55 6.25 -0.8 L6.5 -1.15 6.6 -1.5 6.7 -1.9 6.75 -2.05 Q6.5 -2.2 6.25 -2.5 L6.25 -2.5 6.15 -2.6 5.8 -3.0 Q5.5 -3.45 5.5 -3.7 5.5 -3.95 5.6 -4.25 L5.65 -4.45 5.65 -4.5 5.7 -4.55 Q5.85 -4.7 6.05 -4.95 L6.1 -5.1 6.2 -5.25 6.3 -5.55 6.35 -5.85 Q6.35 -6.4 5.55 -6.7 L5.2 -6.75 Q4.95 -6.85 4.7 -7.0 4.0 -7.5 3.6 -8.5 L3.55 -8.7 3.55 -8.7 3.55 -9.0 Q3.5 -9.9 3.15 -10.4 3.0 -10.65 2.75 -10.9 2.3 -10.9 1.9 -10.9 L1.75 -10.9 Q1.4 -10.95 1.05 -11.3 L1.05 -11.3 Q0.95 -11.4 0.9 -11.45 L0.85 -11.55 0.75 -11.6 0.45 -12.0 Q-0.6 -12.05 -1.05 -11.8 -1.45 -11.6 -1.45 -11.3 L-1.45 -11.3 -1.5 -11.1 -1.55 -10.8 -1.65 -10.75 -1.7 -10.6 Q-1.8 -10.45 -1.9 -10.3 -2.05 -10.15 -2.35 -10.0 L-2.4 -10.0 -2.85 -9.9 Q-3.4 -9.85 -3.9 -9.8 L-4.1 -9.8 -4.15 -9.7 -4.25 -9.7 -4.35 -9.65 Q-4.65 -9.6 -4.85 -9.4 L-4.95 -9.25 Q-5.1 -9.05 -5.15 -8.85 L-5.15 -8.6 -5.15 -8.4 -5.05 -8.2 -5.05 -8.1 -4.95 -8.0 -4.8 -7.85 -4.85 -7.75 -4.8 -7.65 -4.8 -7.55 -4.75 -7.2 -4.75 -7.05 -4.7 -6.9 Q-4.6 -6.6 -4.6 -6.45 L-4.6 -6.25 Q-4.6 -6.0 -4.65 -5.95 L-4.75 -5.85 Q-4.8 -5.8 -4.85 -5.75 -4.95 -5.6 -5.15 -5.45 L-5.25 -5.4 -5.35 -5.3 -5.4 -5.15 -5.55 -4.9 -5.45 -4.75 Q-5.3 -4.45 -5.3 -4.25 -5.35 -4.0 -5.65 -3.7 L-6.2 -3.3 Q-6.55 -3.05 -6.85 -2.9 L-7.3 -2.75 -7.75 -1.4 Q-7.8 -1.1 -7.8 -0.75 M-8.95 -1.25 L-8.95 -1.2 -8.95 -1.2 Q-8.95 -0.3 -8.35 0.6 L-8.35 0.65 -8.35 0.65 -8.3 0.75 -8.2 1.05 -8.2 1.15 -8.15 1.25 -7.75 2.6 -7.75 2.65 Q-7.8 2.9 -7.85 3.15 L-7.9 3.2 -8.1 3.4 -8.15 3.4 -8.15 3.45 -8.4 3.75 Q-8.55 4.1 -8.55 4.45 L-8.55 4.55 -8.5 4.75 Q-8.45 4.95 -8.4 5.1 L-8.25 5.35 Q-8.2 5.65 -8.05 5.85 L-7.7 6.2 -7.45 6.35 Q-6.45 6.95 -5.85 7.5 L-5.8 7.55 Q-5.9 7.95 -5.95 8.35 L-6.0 8.45 -6.05 8.7 -6.15 9.35 -6.2 9.6 -6.25 9.6 Q-6.2 9.85 -6.2 10.1 L-6.2 10.25 -6.2 10.3 -6.2 10.35 -6.2 10.4 Q-6.1 10.7 -5.9 11.0 L-5.8 11.1 -5.75 11.15 -5.7 11.25 -5.7 11.25 -5.5 11.2 -5.25 11.4 -5.15 11.4 -5.0 11.4 -5.0 11.4 -4.85 11.4 -4.45 11.35 -4.4 11.35 -3.75 11.3 -3.4 11.3 -3.05 11.3 -3.0 11.35 -3.0 11.4 -3.0 11.45 -3.0 11.4 -3.0 11.45 Q-3.0 11.6 -3.1 11.7 L-3.0 11.95 -3.0 12.0 -2.95 12.15 -2.95 12.15 -2.95 12.15 -2.85 12.3 -2.75 12.5 -2.75 12.5 -2.65 12.6 -2.6 12.6 -2.4 12.8 -2.25 12.9 -2.15 12.95 -2.1 12.95 -1.85 13.0 -1.8 13.0 -1.3 13.05 -0.7 13.0 -0.6 13.0 0.35 12.85 0.95 12.65 1.35 12.55 1.85 12.55 2.0 12.55 2.35 12.55 2.65 12.75 2.9 12.8 3.05 12.85 3.1 12.85 3.5 12.8 Q4.25 12.65 4.45 11.9 4.5 11.6 4.45 11.15 L4.45 11.1 4.55 11.0 4.55 10.7 4.55 10.6 4.55 10.4 Q4.65 10.2 4.7 10.0 4.8 9.6 5.55 9.0 L5.9 8.75 6.45 8.35 6.8 8.2 7.05 7.95 Q7.3 7.8 7.45 7.6 L7.55 7.35 7.65 6.95 7.65 6.8 7.65 6.65 Q7.6 6.3 7.6 5.95 L7.55 5.7 7.5 5.6 Q7.4 5.5 7.3 5.45 L7.2 5.25 Q7.1 5.0 7.0 4.8 L6.8 4.45 6.8 4.3 6.8 4.3 Q6.8 3.75 6.85 3.6 L7.0 3.5 Q7.1 3.35 7.35 3.3 L7.4 3.3 7.6 3.15 7.7 3.05 Q8.05 2.75 8.2 2.5 8.3 2.3 8.3 2.2 8.3 2.05 8.1 1.65 7.95 1.35 7.8 1.1 L7.75 1.05 Q7.65 0.95 7.5 0.8 7.4 0.65 7.3 0.45 L7.3 0.4 7.3 0.4 Q7.15 0.0 7.15 -0.3 L7.15 -0.35 7.2 -0.55 Q7.25 -0.8 7.4 -1.05 L7.4 -1.1 7.5 -1.25 Q7.6 -1.4 7.75 -1.45 L7.85 -1.7 7.9 -1.95 7.9 -1.95 7.9 -2.1 Q7.85 -2.4 7.65 -2.6 L7.45 -2.75 7.3 -2.85 7.2 -2.85 Q7.05 -3.0 6.95 -3.1 L6.9 -3.15 6.85 -3.15 6.8 -3.25 Q6.65 -3.35 6.6 -3.45 6.45 -3.65 6.45 -3.85 6.45 -4.1 6.6 -4.35 L6.8 -4.7 Q6.95 -4.8 7.05 -4.9 L7.0 -5.0 7.0 -5.0 7.0 -5.05 7.1 -5.3 7.15 -5.45 Q7.3 -5.85 7.3 -6.25 L7.25 -6.55 7.25 -6.55 7.25 -6.6 7.15 -6.8 7.0 -7.0 Q6.65 -7.3 6.05 -7.45 L5.75 -7.55 5.45 -7.55 5.3 -7.7 5.3 -7.75 5.15 -7.9 4.8 -8.25 4.55 -8.65 4.45 -8.85 Q4.3 -9.1 4.3 -9.25 L4.3 -9.45 4.3 -9.45 4.15 -9.6 4.1 -9.65 4.05 -9.85 4.05 -10.05 4.1 -10.2 Q4.15 -10.5 4.15 -10.75 L4.15 -10.8 4.15 -10.95 4.1 -11.15 Q4.0 -11.2 3.95 -11.25 L3.8 -11.4 3.7 -11.45 3.5 -11.5 3.45 -11.5 3.4 -11.5 3.15 -11.5 3.0 -11.5 Q2.6 -11.6 2.2 -11.65 1.8 -11.75 1.55 -12.0 L1.45 -12.15 1.15 -12.5 1.0 -12.65 0.95 -12.7 0.4 -13.05 0.15 -13.1 Q-0.7 -13.2 -1.5 -12.65 L-1.75 -12.45 -2.0 -12.15 -2.3 -11.95 -2.4 -11.9 Q-2.45 -11.75 -2.5 -11.55 -2.65 -11.3 -3.0 -11.05 L-3.15 -10.95 -3.3 -10.9 Q-3.5 -10.75 -3.7 -10.7 L-4.05 -10.7 Q-4.4 -10.65 -4.7 -10.5 L-4.85 -10.45 -5.0 -10.45 -5.15 -10.4 -5.3 -10.3 -5.5 -10.3 -5.55 -10.25 -5.6 -10.2 -5.7 -10.0 -5.8 -9.85 -5.85 -9.75 -5.95 -9.65 -6.0 -9.55 -6.1 -9.4 -6.1 -9.35 -6.1 -9.3 -6.0 -9.1 -6.0 -9.1 -5.95 -9.0 -5.95 -9.0 -5.95 -8.9 -5.95 -8.75 -5.95 -8.7 -5.9 -8.45 -5.9 -8.35 -5.7 -7.7 -5.55 -7.3 -5.6 -6.9 -5.7 -6.8 -5.6 -6.75 -5.6 -6.7 Q-5.55 -6.65 -5.55 -6.55 L-5.55 -6.5 Q-6.2 -6.45 -6.55 -6.2 L-6.6 -6.1 Q-6.55 -5.85 -6.55 -5.45 L-6.55 -5.4 -6.5 -5.05 -6.45 -5.0 Q-6.25 -4.75 -6.25 -4.45 -6.3 -4.25 -6.7 -3.9 -6.95 -3.75 -7.3 -3.5 -7.5 -3.4 -7.75 -3.25 L-7.8 -3.25 -8.0 -3.15 -8.05 -3.1 -8.35 -2.75 -8.65 -2.2 Q-9.0 -1.55 -9.0 -1.15" fill="#bfdfea" fill-rule="evenodd" stroke="none"/>
      <path d="M-9.0 -1.15 Q-9.0 -1.55 -8.65 -2.2 L-8.35 -2.75 -8.05 -3.1 -8.0 -3.15 -7.8 -3.25 -7.75 -3.25 Q-7.5 -3.4 -7.3 -3.5 -6.95 -3.75 -6.7 -3.9 -6.3 -4.25 -6.25 -4.45 -6.25 -4.75 -6.45 -5.0 L-6.5 -5.05 -6.55 -5.4 -6.55 -5.45 Q-6.55 -5.85 -6.6 -6.1 L-6.55 -6.2 Q-6.2 -6.45 -5.55 -6.5 L-5.55 -6.55 Q-5.55 -6.65 -5.6 -6.7 L-5.6 -6.75 -5.7 -6.8 -5.6 -6.9 -5.55 -7.3 -5.7 -7.7 -5.9 -8.35 -5.9 -8.45 -5.95 -8.7 -5.95 -8.75 -5.95 -8.9 -5.95 -9.0 -5.95 -9.0 -6.0 -9.1 -6.0 -9.1 -6.1 -9.3 -6.1 -9.35 -6.1 -9.4 -6.0 -9.55 -5.95 -9.65 -5.85 -9.75 -5.8 -9.85 -5.7 -10.0 -5.6 -10.2 -5.55 -10.25 -5.5 -10.3 -5.3 -10.3 -5.15 -10.4 -5.0 -10.45 -4.85 -10.45 -4.7 -10.5 Q-4.4 -10.65 -4.05 -10.7 L-3.7 -10.7 Q-3.5 -10.75 -3.3 -10.9 L-3.15 -10.95 -3.0 -11.05 Q-2.65 -11.3 -2.5 -11.55 -2.45 -11.75 -2.4 -11.9 L-2.3 -11.95 -2.0 -12.15 -1.75 -12.45 -1.5 -12.65 Q-0.7 -13.2 0.15 -13.1 L0.4 -13.05 0.95 -12.7 1.0 -12.65 1.15 -12.5 1.45 -12.15 1.55 -12.0 Q1.8 -11.75 2.2 -11.65 2.6 -11.6 3.0 -11.5 L3.15 -11.5 3.4 -11.5 3.45 -11.5 3.5 -11.5 3.7 -11.45 3.8 -11.4 3.95 -11.25 Q4.0 -11.2 4.1 -11.15 L4.15 -10.95 4.15 -10.8 4.15 -10.75 Q4.15 -10.5 4.1 -10.2 L4.05 -10.05 4.05 -9.85 4.1 -9.65 4.15 -9.6 4.3 -9.45 4.3 -9.45 4.3 -9.25 Q4.3 -9.1 4.45 -8.85 L4.55 -8.65 4.8 -8.25 5.15 -7.9 5.3 -7.75 5.3 -7.7 5.45 -7.55 5.75 -7.55 6.05 -7.45 Q6.65 -7.3 7.0 -7.0 L7.15 -6.8 7.25 -6.6 7.25 -6.55 7.25 -6.55 7.3 -6.25 Q7.3 -5.85 7.15 -5.45 L7.1 -5.3 7.0 -5.05 7.0 -5.0 7.0 -5.0 7.05 -4.9 Q6.95 -4.8 6.8 -4.7 L6.6 -4.35 Q6.45 -4.1 6.45 -3.85 6.45 -3.65 6.6 -3.45 6.65 -3.35 6.8 -3.25 L6.85 -3.15 6.9 -3.15 6.95 -3.1 Q7.05 -3.0 7.2 -2.85 L7.3 -2.85 7.45 -2.75 7.65 -2.6 Q7.85 -2.4 7.9 -2.1 L7.9 -1.95 7.9 -1.95 7.85 -1.7 7.75 -1.45 Q7.6 -1.4 7.5 -1.25 L7.4 -1.1 7.4 -1.05 Q7.25 -0.8 7.2 -0.55 L7.15 -0.35 7.15 -0.3 Q7.15 0.0 7.3 0.4 L7.3 0.4 7.3 0.45 Q7.4 0.65 7.5 0.8 7.65 0.95 7.75 1.05 L7.8 1.1 Q7.95 1.35 8.1 1.65 8.3 2.05 8.3 2.2 8.3 2.3 8.2 2.5 8.05 2.75 7.7 3.05 L7.6 3.15 7.4 3.3 7.35 3.3 Q7.1 3.35 7.0 3.5 L6.85 3.6 Q6.8 3.75 6.8 4.3 L6.8 4.3 6.8 4.45 7.0 4.8 Q7.1 5.0 7.2 5.25 L7.3 5.45 Q7.4 5.5 7.5 5.6 L7.55 5.7 7.6 5.95 Q7.6 6.3 7.65 6.65 L7.65 6.8 7.65 6.95 7.55 7.35 7.45 7.6 Q7.3 7.8 7.05 7.95 L6.8 8.2 6.45 8.35 5.9 8.75 5.55 9.0 Q4.8 9.6 4.7 10.0 4.65 10.2 4.55 10.4 L4.55 10.6 4.55 10.7 4.55 11.0 4.45 11.1 4.45 11.15 Q4.5 11.6 4.45 11.9 4.25 12.65 3.5 12.8 L3.1 12.85 3.05 12.85 2.9 12.8 2.65 12.75 2.35 12.55 2.0 12.55 1.85 12.55 1.35 12.55 0.95 12.65 0.35 12.85 -0.6 13.0 -0.7 13.0 -1.3 13.05 -1.8 13.0 -1.85 13.0 -2.1 12.95 -2.15 12.95 -2.25 12.9 -2.4 12.8 -2.6 12.6 -2.65 12.6 -2.75 12.5 -2.75 12.5 -2.85 12.3 -2.95 12.15 -2.95 12.15 -2.95 12.15 -3.0 12.0 -3.0 11.95 -3.1 11.7 Q-3.0 11.6 -3.0 11.45 L-3.0 11.4 -3.0 11.45 -3.0 11.4 -3.0 11.35 -3.05 11.3 -3.4 11.3 -3.75 11.3 -4.4 11.35 -4.45 11.35 -4.85 11.4 -5.0 11.4 -5.0 11.4 -5.15 11.4 -5.25 11.4 -5.5 11.2 -5.7 11.25 -5.7 11.25 -5.75 11.15 -5.8 11.1 -5.9 11.0 Q-6.1 10.7 -6.2 10.4 L-6.2 10.35 -6.2 10.3 -6.2 10.25 -6.2 10.1 Q-6.2 9.85 -6.25 9.6 L-6.2 9.6 -6.15 9.35 -6.05 8.7 -6.0 8.45 -5.95 8.35 Q-5.9 7.95 -5.8 7.55 L-5.85 7.5 Q-6.45 6.95 -7.45 6.35 L-7.7 6.2 -8.05 5.85 Q-8.2 5.65 -8.25 5.35 L-8.4 5.1 Q-8.45 4.95 -8.5 4.75 L-8.55 4.55 -8.55 4.45 Q-8.55 4.1 -8.4 3.75 L-8.15 3.45 -8.15 3.4 -8.1 3.4 -7.9 3.2 -7.85 3.15 Q-7.8 2.9 -7.75 2.65 L-7.75 2.6 -8.15 1.25 -8.2 1.15 -8.2 1.05 -8.3 0.75 -8.35 0.65 -8.35 0.65 -8.35 0.6 Q-8.95 -0.3 -8.95 -1.2 L-8.95 -1.2 -8.95 -1.25 M-7.8 -0.75 Q-7.8 -1.1 -7.75 -1.4 L-7.3 -2.75 -6.85 -2.9 Q-6.55 -3.05 -6.2 -3.3 L-5.65 -3.7 Q-5.35 -4.0 -5.3 -4.25 -5.3 -4.45 -5.45 -4.75 L-5.55 -4.9 -5.4 -5.15 -5.35 -5.3 -5.25 -5.4 -5.15 -5.45 Q-4.95 -5.6 -4.85 -5.75 -4.8 -5.8 -4.75 -5.85 L-4.65 -5.95 Q-4.6 -6.0 -4.6 -6.25 L-4.6 -6.45 Q-4.6 -6.6 -4.7 -6.9 L-4.75 -7.05 -4.75 -7.2 -4.8 -7.55 -4.8 -7.65 -4.85 -7.75 -4.8 -7.85 -4.95 -8.0 -5.05 -8.1 -5.05 -8.2 -5.15 -8.4 -5.15 -8.6 -5.15 -8.85 Q-5.1 -9.05 -4.95 -9.25 L-4.85 -9.4 Q-4.65 -9.6 -4.35 -9.65 L-4.25 -9.7 -4.15 -9.7 -4.1 -9.8 -3.9 -9.8 Q-3.4 -9.85 -2.85 -9.9 L-2.4 -10.0 -2.35 -10.0 Q-2.05 -10.15 -1.9 -10.3 -1.8 -10.45 -1.7 -10.6 L-1.65 -10.75 -1.55 -10.8 -1.5 -11.1 -1.45 -11.3 -1.45 -11.3 Q-1.45 -11.6 -1.05 -11.8 -0.6 -12.05 0.45 -12.0 L0.75 -11.6 0.85 -11.55 0.9 -11.45 Q0.95 -11.4 1.05 -11.3 L1.05 -11.3 Q1.4 -10.95 1.75 -10.9 L1.9 -10.9 Q2.3 -10.9 2.75 -10.9 3.0 -10.65 3.15 -10.4 3.5 -9.9 3.55 -9.0 L3.55 -8.7 3.55 -8.7 3.6 -8.5 Q4.0 -7.5 4.7 -7.0 4.95 -6.85 5.2 -6.75 L5.55 -6.7 Q6.35 -6.4 6.35 -5.85 L6.3 -5.55 6.2 -5.25 6.1 -5.1 6.05 -4.95 Q5.85 -4.7 5.7 -4.55 L5.65 -4.5 5.65 -4.45 5.6 -4.25 Q5.5 -3.95 5.5 -3.7 5.5 -3.45 5.8 -3.0 L6.15 -2.6 6.25 -2.5 6.25 -2.5 Q6.5 -2.2 6.75 -2.05 L6.7 -1.9 6.6 -1.5 6.5 -1.15 6.25 -0.8 Q6.1 -0.55 6.05 -0.35 L6.05 -0.3 6.05 -0.25 6.1 -0.05 Q6.2 0.15 6.3 0.5 L6.4 0.6 6.55 0.85 6.8 1.25 6.85 1.3 6.9 1.35 6.95 1.85 6.95 1.9 Q6.95 2.05 6.85 2.25 L6.75 2.45 Q6.65 2.6 6.5 2.8 L6.5 2.85 6.2 3.05 6.15 3.1 6.1 3.15 6.05 3.2 Q5.85 3.35 5.75 3.5 5.6 3.75 5.6 3.95 5.6 4.2 5.8 4.5 L5.85 4.55 Q6.0 4.7 6.15 4.85 L6.2 5.1 Q6.3 5.2 6.4 5.35 L6.4 5.4 6.45 5.6 Q6.45 5.8 6.45 6.0 L6.45 6.15 6.45 6.2 6.45 6.25 6.45 6.3 6.45 6.35 6.45 6.65 6.45 6.7 6.45 6.75 6.45 6.85 6.45 6.9 6.35 7.3 6.2 7.6 5.9 7.75 5.85 7.75 5.65 7.7 5.25 7.8 5.25 7.8 5.2 7.85 Q5.0 7.95 4.85 8.05 L4.85 8.1 4.8 8.1 4.4 8.4 Q3.85 8.9 3.75 9.45 3.7 9.7 3.65 9.95 L3.65 10.1 3.6 10.65 Q3.55 10.9 3.45 11.1 L3.4 11.2 Q3.2 11.55 2.8 11.7 L2.75 11.7 2.7 11.65 2.5 11.55 2.35 11.5 2.3 11.45 2.2 11.45 1.95 11.4 1.55 11.45 Q1.35 11.5 1.25 11.55 L1.1 11.65 0.95 11.85 0.95 11.85 0.7 11.85 Q0.7 11.9 0.7 11.9 L0.6 11.9 0.35 11.95 0.3 11.95 -0.8 12.05 -1.15 12.05 -1.2 12.05 -1.2 12.05 -1.25 12.05 -1.6 12.0 -1.6 12.0 -1.65 12.0 -1.7 12.0 -2.25 11.85 -2.2 11.55 -2.15 11.4 -2.1 11.25 Q-2.1 11.15 -2.15 11.05 -2.3 10.8 -2.8 10.55 L-2.85 10.55 -2.95 10.5 -3.0 10.5 Q-3.3 10.4 -3.75 10.4 L-3.85 10.4 -4.0 10.4 Q-4.4 10.3 -4.8 10.05 L-4.9 10.0 -5.05 9.85 -5.1 9.85 -5.1 9.85 -5.15 9.75 -5.25 9.4 -5.25 9.35 -5.25 9.35 Q-5.3 9.15 -5.4 9.05 L-5.4 9.0 Q-5.35 8.75 -5.3 8.55 L-5.3 8.55 -5.25 8.35 Q-5.05 7.75 -5.05 7.25 L-5.05 7.25 -5.05 7.05 -5.05 7.0 -5.05 6.95 -5.05 6.95 Q-5.05 6.0 -6.4 5.45 L-6.45 5.45 -6.5 5.45 -6.9 5.3 -6.9 5.3 -7.0 5.25 -7.5 4.1 -7.5 4.05 -7.45 4.05 -7.45 4.0 -7.35 3.8 -7.05 3.8 Q-6.7 3.7 -6.5 3.45 L-6.5 3.4 Q-6.3 3.15 -6.25 2.85 L-6.25 2.75 -6.25 2.7 Q-6.25 2.3 -7.2 1.05 L-7.25 1.0 -7.25 1.0 -7.3 0.85 -7.35 0.8 Q-7.9 -0.45 -7.9 -0.8 L-7.9 -0.85 -7.9 -0.85 M4.9 -3.4 L4.9 -3.45 5.0 -3.55 5.1 -3.6 5.15 -3.65 Q5.15 -3.65 5.15 -3.65 5.15 -3.65 5.15 -3.7 L5.15 -3.7 5.15 -3.7 5.15 -3.7 5.15 -3.7 Q5.15 -3.7 5.15 -3.7 L5.15 -3.7 Q5.15 -3.7 5.15 -3.7 5.15 -3.7 5.15 -3.75 L5.15 -3.8 5.15 -3.8 5.15 -3.8 5.15 -3.85 5.15 -3.85 Q5.15 -3.85 5.15 -3.85 5.15 -3.85 5.2 -3.8 L5.25 -3.8 Q5.25 -3.8 5.3 -3.8 L5.3 -3.8 5.4 -3.8 Q5.45 -3.8 5.5 -3.75 L5.5 -3.8 Q5.5 -3.8 5.5 -3.85 5.5 -3.9 5.5 -3.9 5.6 -3.95 5.8 -3.9 L5.8 -3.9 Q5.8 -3.9 5.8 -3.9 L5.8 -3.9 Q5.85 -3.9 5.9 -3.9 6.05 -3.85 6.1 -3.75 6.1 -3.75 6.15 -3.7 6.2 -3.65 6.25 -3.6 6.35 -3.5 6.4 -3.4 L6.4 -3.4 6.4 -3.4 Q6.4 -3.4 6.35 -3.35 L6.35 -3.35 6.35 -3.35 Q6.35 -3.3 6.4 -3.2 6.4 -3.15 6.4 -3.15 L6.4 -3.15 Q6.45 -3.1 6.45 -3.05 6.45 -3.05 6.45 -3.0 L6.45 -2.95 6.45 -2.95 6.45 -2.95 Q6.45 -2.95 6.45 -2.9 L6.45 -2.9 Q6.45 -2.85 6.45 -2.8 L6.45 -2.8 6.45 -2.75 6.45 -2.7 6.45 -2.7 Q6.45 -2.65 6.4 -2.6 L6.4 -2.6 6.4 -2.6 6.4 -2.55 Q6.35 -2.5 6.35 -2.45 L6.35 -2.45 Q6.35 -2.4 6.4 -2.35 L6.4 -2.35 Q6.4 -2.35 6.4 -2.35 L6.4 -2.3 6.4 -2.25 6.4 -2.25 6.4 -2.25 6.4 -2.25 6.4 -2.25 Q6.4 -2.2 6.35 -2.2 L6.35 -2.2 6.35 -2.2 6.35 -2.2 Q6.35 -2.2 6.35 -2.2 L6.35 -2.2 6.3 -2.2 Q6.2 -2.15 6.2 -2.1 L6.2 -2.1 Q6.2 -2.05 6.15 -2.0 L6.15 -2.0 6.1 -1.95 6.1 -1.95 6.1 -1.95 6.1 -1.95 6.05 -1.95 Q6.05 -1.95 6.05 -1.95 L6.05 -1.95 Q6.05 -1.95 6.05 -1.95 L6.05 -1.95 6.05 -1.95 5.9 -1.95 5.9 -1.95 5.85 -1.95 5.85 -1.95 5.85 -1.95 5.85 -1.95 Q5.8 -1.95 5.75 -1.95 L5.75 -1.95 Q5.75 -1.95 5.75 -1.95 5.75 -1.95 5.7 -2.0 L5.7 -2.0 Q5.65 -2.0 5.6 -2.0 L5.6 -2.0 Q5.55 -2.0 5.5 -2.05 L5.5 -2.05 5.5 -2.05 5.5 -2.05 5.5 -2.1 5.5 -2.1 5.5 -2.15 5.5 -2.2 5.5 -2.2 5.5 -2.2 Q5.5 -2.25 5.5 -2.3 L5.5 -2.3 5.5 -2.3 Q5.5 -2.4 5.35 -2.5 L5.35 -2.5 5.3 -2.5 5.3 -2.5 5.25 -2.6 5.25 -2.6 5.25 -2.6 5.25 -2.6 5.25 -2.6 Q5.25 -2.6 5.25 -2.6 5.25 -2.65 5.25 -2.7 L5.25 -2.7 Q5.25 -2.75 5.2 -2.85 L5.2 -2.85 5.2 -2.85 Q5.15 -2.95 5.15 -3.05 L5.15 -3.05 5.05 -3.2" fill="none" stroke="#000000" stroke-linecap="round" stroke-linejoin="round" stroke-opacity="0.0" stroke-width="0.0"/>
    </g>
  </defs>
</svg>
