<?xml version="1.0" encoding="UTF-8" standalone="no"?>
<svg xmlns:ffdec="https://www.free-decompiler.com/flash" xmlns:xlink="http://www.w3.org/1999/xlink" ffdec:objectType="frame" height="185.15px" width="123.2px" xmlns="http://www.w3.org/2000/svg">
  <g transform="matrix(1.0, 0.0, 0.0, 1.0, 63.35, 93.1)">
    <use ffdec:characterId="390" height="26.45" transform="matrix(7.0, 0.0, 0.0, 7.0, -63.35, -93.1)" width="17.6" xlink:href="#morphshape0"/>
  </g>
  <defs>
    <g id="morphshape0" transform="matrix(1.0, 0.0, 0.0, 1.0, 9.05, 13.3)">
      <path d="M-7.85 -0.75 L-7.85 -0.7 -7.85 -0.7 Q-7.8 -0.3 -7.3 0.9 L-7.25 0.95 -7.2 1.1 -7.15 1.15 -7.15 1.15 Q-6.2 2.4 -6.2 2.8 L-6.2 2.9 -6.25 3.0 Q-6.25 3.3 -6.45 3.5 L-6.45 3.55 Q-6.65 3.8 -7.05 3.9 L-7.3 3.9 -7.4 4.1 -7.4 4.15 -7.45 4.15 -7.45 4.2 -7.45 4.2 -6.95 5.3 -6.95 5.3 -6.9 5.35 -6.9 5.35 -6.85 5.4 -6.5 5.55 -6.45 5.55 -6.45 5.55 Q-5.0 6.05 -4.95 6.95 L-4.95 7.0 -4.95 7.05 -4.95 7.1 -4.95 7.35 Q-4.95 7.85 -5.15 8.5 L-5.2 8.6 Q-5.25 8.85 -5.3 9.15 -5.2 9.3 -5.15 9.5 L-5.1 9.7 -5.0 9.95 -4.8 10.1 -4.7 10.15 Q-4.15 10.5 -3.65 10.5 -3.15 10.5 -2.85 10.6 L-2.75 10.65 -2.7 10.65 Q-1.95 11.0 -2.0 11.35 L-2.0 11.4 -2.05 11.45 -2.1 11.65 -2.2 11.95 Q-1.7 12.15 -1.2 12.15 L-1.15 12.15 -1.15 12.15 -0.75 12.15 0.75 12.0 Q0.75 12.0 0.75 11.95 L0.9 11.95 1.0 11.95 1.3 11.65 Q1.55 11.5 2.0 11.5 2.4 11.5 2.7 11.75 L2.75 11.75 2.8 11.8 2.85 11.8 Q3.2 11.65 3.4 11.4 L3.45 11.25 Q3.6 11.05 3.65 10.75 L3.7 10.15 3.7 10.05 3.8 9.55 Q3.85 9.25 4.0 9.0 L4.05 8.95 Q4.35 8.55 4.9 8.15 L5.3 7.9 5.4 7.85 5.9 7.85 5.9 7.85 Q6.1 7.75 6.25 7.7 L6.35 7.55 6.35 7.5 6.4 7.4 6.45 7.1 6.5 6.8 6.5 6.45 6.5 6.35 6.5 6.3 6.5 6.25 6.5 5.85 6.45 5.8 6.45 5.75 6.45 5.65 6.45 5.6 6.45 5.5 6.35 5.3 6.25 5.2 6.2 5.05 6.2 4.95 6.0 4.75 5.85 4.55 Q5.65 4.3 5.65 4.05 5.65 3.85 5.8 3.6 L5.85 3.55 Q6.0 3.35 6.25 3.15 L6.55 2.95 6.55 2.9 6.6 2.9 6.8 2.55 6.8 2.5 6.85 2.45 Q7.0 2.15 7.0 1.95 6.95 1.7 6.95 1.5 L6.9 1.4 6.9 1.4 6.65 1.05 6.6 0.95 6.35 0.6 6.3 0.45 Q6.05 0.05 6.05 -0.2 L6.1 -0.4 6.15 -0.55 Q6.3 -0.75 6.4 -0.9 L6.5 -1.05 6.55 -1.3 Q6.65 -1.55 6.7 -1.8 L6.75 -1.8 6.75 -1.95 Q6.45 -2.15 6.15 -2.45 L6.15 -2.5 Q5.5 -3.25 5.5 -3.6 5.5 -4.0 5.65 -4.4 L5.9 -4.65 6.05 -4.85 6.1 -5.0 Q6.2 -5.2 6.3 -5.4 L6.35 -5.75 Q6.35 -6.0 6.15 -6.2 L6.1 -6.25 Q5.9 -6.45 5.5 -6.55 L5.15 -6.6 5.15 -6.6 Q5.0 -6.65 4.85 -6.75 4.25 -7.0 3.9 -7.65 3.7 -7.95 3.55 -8.35 L3.5 -8.55 3.5 -8.55 3.5 -8.65 3.5 -8.85 3.5 -8.85 3.5 -8.9 Q3.45 -9.2 3.4 -9.5 3.3 -10.0 3.1 -10.3 L3.0 -10.45 2.85 -10.6 2.7 -10.8 2.5 -10.8 Q2.1 -10.8 1.7 -10.8 L1.65 -10.8 Q1.15 -10.95 0.7 -11.5 L0.7 -11.55 0.4 -11.95 0.35 -11.95 Q-0.65 -12.0 -1.1 -11.75 L-1.15 -11.7 Q-1.45 -11.55 -1.5 -11.25 L-1.5 -11.25 -1.5 -11.25 Q-1.55 -11.0 -1.6 -10.8 L-1.6 -10.75 -1.65 -10.7 -1.7 -10.7 -1.7 -10.65 -1.75 -10.55 Q-1.85 -10.3 -2.1 -10.1 L-2.2 -10.05 -2.3 -10.0 -2.45 -9.95 Q-3.0 -9.9 -3.55 -9.85 L-4.0 -9.8 -4.1 -9.8 -4.15 -9.8 -4.2 -9.7 Q-4.5 -9.65 -4.75 -9.5 L-4.9 -9.4 -5.05 -9.2 Q-5.2 -9.0 -5.2 -8.75 L-5.2 -8.6 -5.2 -8.45 -5.15 -8.35 -5.1 -8.2 Q-5.05 -8.0 -4.95 -7.9 L-4.85 -7.85 -4.9 -7.75 -4.85 -7.55 -4.8 -7.2 -4.8 -7.05 -4.75 -6.9 Q-4.7 -6.75 -4.65 -6.6 L-4.65 -6.45 -4.65 -6.2 Q-4.65 -6.0 -4.7 -5.95 L-4.8 -5.85 -4.95 -5.65 -5.2 -5.45 -5.3 -5.35 Q-5.45 -5.1 -5.6 -4.9 -5.35 -4.5 -5.35 -4.3 -5.35 -4.1 -5.6 -3.85 L-5.75 -3.7 Q-5.9 -3.55 -6.25 -3.3 -6.6 -3.05 -6.9 -2.9 L-7.35 -2.7 -7.8 -1.4 Q-7.85 -1.1 -7.85 -0.75 M-9.05 -1.15 Q-9.05 -0.2 -8.45 0.7 L-8.45 0.75 -8.35 1.1 -8.3 1.25 Q-8.05 2.0 -7.85 2.7 -7.9 2.9 -7.9 3.1 L-7.95 3.25 Q-8.1 3.4 -8.25 3.5 L-8.25 3.55 Q-8.65 3.95 -8.65 4.55 L-8.65 4.6 -8.6 4.95 Q-8.5 5.25 -8.35 5.45 L-8.3 5.7 -8.2 5.85 -8.15 5.95 Q-8.0 6.15 -7.65 6.4 L-7.65 6.4 -7.55 6.45 -7.45 6.5 -7.2 6.65 Q-6.9 6.85 -6.6 7.05 L-6.4 7.25 -5.85 7.65 -6.0 8.45 -6.05 8.55 -6.05 8.7 Q-6.15 9.1 -6.2 9.45 L-6.25 9.55 -6.25 9.65 -6.25 9.7 -6.3 9.7 -6.3 9.75 Q-6.25 10.1 -6.25 10.4 L-6.2 10.5 -6.2 10.6 -6.15 10.7 -6.1 10.75 Q-6.0 11.05 -5.8 11.25 L-5.75 11.3 -5.75 11.35 -5.75 11.35 -5.65 11.3 -5.55 11.3 -5.3 11.5 -4.85 11.45 -4.75 11.45 -4.75 11.45 -4.65 11.45 -4.2 11.45 -4.2 11.45 -3.8 11.4 Q-3.4 11.4 -3.15 11.4 L-3.05 11.45 -3.05 11.55 -3.05 11.5 -3.05 11.55 -3.05 11.55 -3.1 11.7 -3.15 11.8 -3.05 12.05 -2.95 12.4 -2.9 12.45 -2.9 12.5 -2.8 12.6 -2.75 12.65 -2.7 12.7 -2.65 12.7 -2.55 12.85 -2.45 12.9 Q-2.3 13.0 -2.05 13.05 L-2.0 13.1 -1.9 13.1 -1.65 13.15 -1.6 13.15 -1.35 13.15 -0.5 13.1 -0.4 13.05 0.3 12.95 1.15 12.7 1.3 12.65 2.05 12.65 2.2 12.65 2.3 12.65 2.6 12.85 3.0 12.95 3.05 12.95 3.35 12.9 3.65 12.85 3.75 12.8 Q4.0 12.65 4.15 12.45 4.3 12.25 4.4 11.95 4.45 11.75 4.45 11.55 L4.45 11.5 4.4 11.2 4.4 11.15 4.5 11.05 4.5 11.0 Q4.5 10.8 4.5 10.65 L4.5 10.45 Q4.6 10.25 4.65 10.05 4.75 9.75 5.25 9.3 5.6 9.05 5.9 8.8 6.2 8.6 6.45 8.4 L6.8 8.25 7.05 8.0 7.35 7.8 7.4 7.75 7.45 7.65 7.5 7.55 7.55 7.45 7.6 7.3 7.6 7.15 7.65 6.7 7.65 6.6 7.65 6.45 Q7.65 5.9 7.55 5.75 L7.5 5.65 Q7.4 5.55 7.3 5.5 L7.25 5.4 7.0 4.9 Q6.9 4.7 6.85 4.5 L6.8 4.35 6.8 4.1 Q6.8 3.75 6.85 3.6 6.95 3.5 7.1 3.4 7.2 3.35 7.35 3.3 L7.4 3.3 7.5 3.2 7.6 3.15 7.7 3.1 Q7.9 2.9 8.1 2.7 L8.15 2.65 8.25 2.5 Q8.35 2.3 8.35 2.2 L8.3 2.05 8.2 1.85 8.15 1.7 8.1 1.6 7.95 1.45 Q7.8 1.25 7.7 1.1 L7.65 1.05 7.45 0.9 Q7.35 0.75 7.25 0.5 L7.25 0.45 7.2 0.4 Q7.05 0.0 7.05 -0.3 L7.05 -0.3 7.1 -0.45 Q7.1 -0.75 7.25 -1.0 L7.3 -1.1 7.4 -1.2 Q7.5 -1.35 7.65 -1.45 L7.75 -1.65 7.8 -1.85 7.8 -1.95 7.8 -2.0 Q7.75 -2.3 7.6 -2.55 L7.4 -2.75 7.2 -2.85 7.2 -2.85 7.1 -2.85 Q6.95 -3.0 6.85 -3.1 L6.85 -3.1 6.75 -3.15 6.7 -3.2 Q6.6 -3.3 6.5 -3.45 6.35 -3.65 6.35 -3.85 6.35 -4.1 6.45 -4.35 6.6 -4.55 6.7 -4.7 6.85 -4.8 6.95 -4.9 L6.95 -4.9 6.95 -4.95 6.9 -5.05 6.95 -5.2 7.0 -5.35 Q7.2 -5.85 7.2 -6.25 L7.2 -6.45 7.2 -6.45 7.2 -6.5 7.1 -6.7 7.0 -6.9 Q6.75 -7.15 6.35 -7.3 L5.95 -7.45 5.35 -7.55 5.2 -7.7 5.1 -7.85 Q4.75 -8.2 4.45 -8.65 4.2 -9.05 4.2 -9.25 L4.2 -9.45 4.0 -9.65 Q3.95 -9.85 3.95 -10.05 4.0 -10.2 4.0 -10.35 L4.05 -10.75 4.05 -10.8 4.05 -10.85 4.0 -11.1 4.0 -11.15 3.75 -11.35 3.7 -11.4 3.6 -11.45 3.3 -11.5 3.3 -11.5 3.25 -11.5 2.95 -11.5 2.8 -11.5 Q2.35 -11.55 2.0 -11.65 1.65 -11.8 1.45 -12.0 L1.3 -12.2 Q1.15 -12.35 1.05 -12.5 L0.85 -12.7 0.8 -12.75 Q0.55 -12.95 0.3 -13.05 L0.0 -13.1 Q-0.85 -13.2 -1.6 -12.6 L-1.85 -12.4 -2.1 -12.1 -2.15 -12.05 -2.35 -11.95 -2.5 -11.85 Q-2.55 -11.65 -2.65 -11.45 -2.8 -11.25 -3.05 -11.05 L-3.1 -11.0 Q-3.4 -10.8 -3.8 -10.65 -4.4 -10.65 -4.8 -10.45 L-5.15 -10.35 -5.25 -10.35 -5.4 -10.25 -5.5 -10.25 -5.65 -10.2 -5.65 -10.2 -5.9 -9.8 -5.9 -9.8 -5.95 -9.7 -6.1 -9.5 -6.2 -9.35 -6.2 -9.3 -6.2 -9.25 -6.2 -9.25 -6.15 -9.15 -6.1 -9.05 -6.05 -8.95 -6.05 -8.7 -6.05 -8.6 -6.05 -8.55 -6.05 -8.45 -6.0 -8.35 -5.95 -8.15 -5.9 -7.9 Q-5.75 -7.55 -5.65 -7.25 L-5.65 -7.25 -5.7 -7.0 -5.7 -6.85 -5.8 -6.75 -5.7 -6.7 -5.7 -6.65 Q-5.65 -6.6 -5.65 -6.5 L-5.65 -6.45 -5.9 -6.4 -5.95 -6.4 -6.1 -6.4 -6.15 -6.4 -6.25 -6.35 -6.5 -6.3 -6.7 -6.2 -6.75 -6.1 Q-6.7 -5.9 -6.7 -5.6 L-6.7 -5.55 -6.7 -5.45 -6.7 -5.4 -6.65 -5.05 -6.6 -5.0 -6.45 -4.8 Q-6.35 -4.65 -6.35 -4.45 L-6.35 -4.45 -6.35 -4.45 Q-6.35 -4.25 -6.65 -4.0 -7.0 -3.7 -7.75 -3.3 L-7.85 -3.25 -8.1 -3.1 -8.25 -2.95 -8.4 -2.75 -8.4 -2.75 -8.65 -2.35 -8.95 -1.75 Q-9.05 -1.45 -9.05 -1.15 L-9.05 -1.15" fill="#bfdfea" fill-rule="evenodd" stroke="none"/>
      <path d="M-9.05 -1.15 L-9.05 -1.15 Q-9.05 -1.45 -8.95 -1.75 L-8.65 -2.35 -8.4 -2.75 -8.4 -2.75 -8.25 -2.95 -8.1 -3.1 -7.85 -3.25 -7.75 -3.3 Q-7.0 -3.7 -6.65 -4.0 -6.35 -4.25 -6.35 -4.45 L-6.35 -4.45 -6.35 -4.45 Q-6.35 -4.65 -6.45 -4.8 L-6.6 -5.0 -6.65 -5.05 -6.7 -5.4 -6.7 -5.45 -6.7 -5.55 -6.7 -5.6 Q-6.7 -5.9 -6.75 -6.1 L-6.7 -6.2 -6.5 -6.3 -6.25 -6.35 -6.15 -6.4 -6.1 -6.4 -5.95 -6.4 -5.9 -6.4 -5.65 -6.45 -5.65 -6.5 Q-5.65 -6.6 -5.7 -6.65 L-5.7 -6.7 -5.8 -6.75 -5.7 -6.85 -5.7 -7.0 -5.65 -7.25 -5.65 -7.25 Q-5.75 -7.55 -5.9 -7.9 L-5.95 -8.15 -6.0 -8.35 -6.05 -8.45 -6.05 -8.55 -6.05 -8.6 -6.05 -8.7 -6.05 -8.95 -6.1 -9.05 -6.15 -9.15 -6.2 -9.25 -6.2 -9.25 -6.2 -9.3 -6.2 -9.35 -6.1 -9.5 -5.95 -9.7 -5.9 -9.8 -5.9 -9.8 -5.65 -10.2 -5.65 -10.2 -5.5 -10.25 -5.4 -10.25 -5.25 -10.35 -5.15 -10.35 -4.8 -10.45 Q-4.4 -10.65 -3.8 -10.65 -3.4 -10.8 -3.1 -11.0 L-3.05 -11.05 Q-2.8 -11.25 -2.65 -11.45 -2.55 -11.65 -2.5 -11.85 L-2.35 -11.95 -2.15 -12.05 -2.1 -12.1 -1.85 -12.4 -1.6 -12.6 Q-0.85 -13.2 0.0 -13.1 L0.3 -13.05 Q0.55 -12.95 0.8 -12.75 L0.85 -12.7 1.05 -12.5 Q1.15 -12.35 1.3 -12.2 L1.45 -12.0 Q1.65 -11.8 2.0 -11.65 2.35 -11.55 2.8 -11.5 L2.95 -11.5 3.25 -11.5 3.3 -11.5 3.3 -11.5 3.6 -11.45 3.7 -11.4 3.75 -11.35 4.0 -11.15 4.0 -11.1 4.05 -10.85 4.05 -10.8 4.05 -10.75 4.0 -10.35 Q4.0 -10.2 3.95 -10.05 3.95 -9.85 4.0 -9.65 L4.2 -9.45 4.2 -9.25 Q4.2 -9.05 4.45 -8.65 4.75 -8.2 5.1 -7.85 L5.2 -7.7 5.35 -7.55 5.95 -7.45 6.35 -7.3 Q6.75 -7.15 7.0 -6.9 L7.1 -6.7 7.2 -6.5 7.2 -6.45 7.2 -6.45 7.2 -6.25 Q7.2 -5.85 7.0 -5.35 L6.95 -5.2 6.9 -5.05 6.95 -4.95 6.95 -4.9 6.95 -4.9 Q6.85 -4.8 6.7 -4.7 6.6 -4.55 6.45 -4.35 6.35 -4.1 6.35 -3.85 6.35 -3.65 6.5 -3.45 6.6 -3.3 6.7 -3.2 L6.75 -3.15 6.85 -3.1 6.85 -3.1 Q6.95 -3.0 7.1 -2.85 L7.2 -2.85 7.2 -2.85 7.4 -2.75 7.6 -2.55 Q7.75 -2.3 7.8 -2.0 L7.8 -1.95 7.8 -1.85 7.75 -1.65 7.65 -1.45 Q7.5 -1.35 7.4 -1.2 L7.3 -1.1 7.25 -1.0 Q7.1 -0.75 7.1 -0.45 L7.05 -0.3 7.05 -0.3 Q7.05 0.0 7.2 0.4 L7.25 0.45 7.25 0.5 Q7.35 0.75 7.45 0.9 L7.65 1.05 7.7 1.1 Q7.8 1.25 7.95 1.45 L8.1 1.6 8.15 1.7 8.2 1.85 8.3 2.05 8.35 2.2 Q8.35 2.3 8.25 2.5 L8.15 2.65 8.1 2.7 Q7.9 2.9 7.7 3.1 L7.6 3.15 7.5 3.2 7.4 3.3 7.35 3.3 Q7.2 3.35 7.1 3.4 6.95 3.5 6.85 3.6 6.8 3.75 6.8 4.1 L6.8 4.35 6.85 4.5 Q6.9 4.7 7.0 4.9 L7.25 5.4 7.3 5.5 Q7.4 5.55 7.5 5.65 L7.55 5.75 Q7.65 5.9 7.65 6.45 L7.65 6.6 7.65 6.7 7.6 7.15 7.6 7.3 7.55 7.45 7.5 7.55 7.45 7.65 7.4 7.75 7.35 7.8 7.05 8.0 6.8 8.25 6.45 8.4 Q6.2 8.6 5.9 8.8 5.6 9.05 5.25 9.3 4.75 9.75 4.65 10.05 4.6 10.25 4.5 10.45 L4.5 10.65 Q4.5 10.8 4.5 11.0 L4.5 11.05 4.4 11.15 4.4 11.2 4.45 11.5 4.45 11.55 Q4.45 11.75 4.4 11.95 4.3 12.25 4.15 12.45 4.0 12.65 3.75 12.8 L3.65 12.85 3.35 12.9 3.05 12.95 3.0 12.95 2.6 12.85 2.3 12.65 2.2 12.65 2.05 12.65 1.3 12.65 1.15 12.7 0.3 12.95 -0.4 13.05 -0.5 13.1 -1.35 13.15 -1.6 13.15 -1.65 13.15 -1.9 13.1 -2.0 13.1 -2.05 13.05 Q-2.3 13.0 -2.45 12.9 L-2.55 12.85 -2.65 12.7 -2.7 12.7 -2.75 12.65 -2.8 12.6 -2.9 12.5 -2.9 12.45 -2.95 12.4 -3.05 12.05 -3.15 11.8 -3.1 11.7 -3.05 11.55 -3.05 11.55 -3.05 11.5 -3.05 11.55 -3.05 11.45 -3.15 11.4 Q-3.4 11.4 -3.8 11.4 L-4.2 11.45 -4.2 11.45 -4.65 11.45 -4.75 11.45 -4.75 11.45 -4.85 11.45 -5.3 11.5 -5.55 11.3 -5.65 11.3 -5.75 11.35 -5.75 11.35 -5.75 11.3 -5.8 11.25 Q-6.0 11.05 -6.1 10.75 L-6.15 10.7 -6.2 10.6 -6.2 10.5 -6.25 10.4 Q-6.25 10.1 -6.3 9.75 L-6.3 9.7 -6.25 9.7 -6.25 9.65 -6.25 9.55 -6.2 9.45 Q-6.15 9.1 -6.05 8.7 L-6.05 8.55 -6.0 8.45 -5.85 7.65 -6.4 7.25 -6.6 7.05 Q-6.9 6.85 -7.2 6.65 L-7.45 6.5 -7.55 6.45 -7.65 6.4 -7.65 6.4 Q-8.0 6.15 -8.15 5.95 L-8.2 5.85 -8.3 5.7 -8.35 5.45 Q-8.5 5.25 -8.6 4.95 L-8.65 4.6 -8.65 4.55 Q-8.65 3.95 -8.25 3.55 L-8.25 3.5 Q-8.1 3.4 -7.95 3.25 L-7.9 3.1 Q-7.9 2.9 -7.85 2.7 -8.05 2.0 -8.3 1.25 L-8.35 1.1 -8.45 0.75 -8.45 0.7 Q-9.05 -0.2 -9.05 -1.15 M-7.85 -0.75 Q-7.85 -1.1 -7.8 -1.4 L-7.35 -2.7 -6.9 -2.9 Q-6.6 -3.05 -6.25 -3.3 -5.9 -3.55 -5.75 -3.7 L-5.6 -3.85 Q-5.35 -4.1 -5.35 -4.3 -5.35 -4.5 -5.6 -4.9 -5.45 -5.1 -5.3 -5.35 L-5.2 -5.45 -4.95 -5.65 -4.8 -5.85 -4.7 -5.95 Q-4.65 -6.0 -4.65 -6.2 L-4.65 -6.45 -4.65 -6.6 Q-4.7 -6.75 -4.75 -6.9 L-4.8 -7.05 -4.8 -7.2 -4.85 -7.55 -4.9 -7.75 -4.85 -7.85 -4.95 -7.9 Q-5.05 -8.0 -5.1 -8.2 L-5.15 -8.35 -5.2 -8.45 -5.2 -8.6 -5.2 -8.75 Q-5.2 -9.0 -5.05 -9.2 L-4.9 -9.4 -4.75 -9.5 Q-4.5 -9.65 -4.2 -9.7 L-4.15 -9.8 -4.1 -9.8 -4.0 -9.8 -3.55 -9.85 Q-3.0 -9.9 -2.45 -9.95 L-2.3 -10.0 -2.2 -10.05 -2.1 -10.1 Q-1.85 -10.3 -1.75 -10.55 L-1.7 -10.65 -1.7 -10.7 -1.65 -10.7 -1.6 -10.75 -1.6 -10.8 Q-1.55 -11.0 -1.5 -11.25 L-1.5 -11.25 -1.5 -11.25 Q-1.45 -11.55 -1.15 -11.7 L-1.1 -11.75 Q-0.65 -12.0 0.35 -11.95 L0.4 -11.95 0.7 -11.55 0.7 -11.5 Q1.15 -10.95 1.65 -10.8 L1.7 -10.8 Q2.1 -10.8 2.5 -10.8 L2.7 -10.8 2.85 -10.6 3.0 -10.45 3.1 -10.3 Q3.3 -10.0 3.4 -9.5 3.45 -9.2 3.5 -8.9 L3.5 -8.85 3.5 -8.85 3.5 -8.65 3.5 -8.55 3.5 -8.55 3.55 -8.35 Q3.7 -7.95 3.9 -7.65 4.25 -7.0 4.85 -6.75 5.0 -6.65 5.15 -6.6 L5.15 -6.6 5.5 -6.55 Q5.9 -6.45 6.1 -6.25 L6.15 -6.2 Q6.35 -6.0 6.35 -5.75 L6.3 -5.4 Q6.2 -5.2 6.1 -5.0 L6.05 -4.85 5.9 -4.65 5.65 -4.4 Q5.5 -4.0 5.5 -3.6 5.5 -3.25 6.15 -2.5 L6.15 -2.45 Q6.45 -2.15 6.75 -1.95 L6.75 -1.8 6.7 -1.8 Q6.65 -1.55 6.55 -1.3 L6.5 -1.05 6.4 -0.9 Q6.3 -0.75 6.15 -0.55 L6.1 -0.4 6.05 -0.2 Q6.05 0.05 6.3 0.45 L6.35 0.6 6.6 0.95 6.65 1.05 6.9 1.4 6.9 1.4 6.95 1.5 Q6.95 1.7 7.0 1.95 7.0 2.15 6.85 2.45 L6.8 2.5 6.8 2.55 6.6 2.9 6.55 2.9 6.55 2.95 6.25 3.15 Q6.0 3.35 5.85 3.55 L5.8 3.6 Q5.65 3.85 5.65 4.05 5.65 4.3 5.85 4.55 L6.0 4.75 6.2 4.95 6.2 5.05 6.25 5.2 6.35 5.3 6.45 5.5 6.45 5.6 6.45 5.65 6.45 5.75 6.45 5.8 6.5 5.85 6.5 6.25 6.5 6.3 6.5 6.35 6.5 6.45 6.5 6.8 6.45 7.1 6.4 7.4 6.35 7.5 6.35 7.55 6.25 7.7 Q6.1 7.75 5.9 7.85 L5.9 7.85 5.4 7.85 5.3 7.9 4.9 8.15 Q4.35 8.55 4.05 8.95 L4.0 9.0 Q3.85 9.25 3.8 9.55 L3.7 10.05 3.7 10.15 3.65 10.75 Q3.6 11.05 3.45 11.25 L3.4 11.4 Q3.2 11.65 2.85 11.8 L2.8 11.8 2.75 11.75 2.7 11.75 Q2.4 11.5 2.0 11.5 1.55 11.5 1.3 11.65 L1.0 11.95 0.9 11.95 0.75 11.95 Q0.75 12.0 0.75 12.0 L-0.75 12.15 -1.15 12.15 -1.15 12.15 -1.2 12.15 Q-1.7 12.15 -2.2 11.95 L-2.1 11.65 -2.05 11.45 -2.0 11.4 -2.0 11.35 Q-1.95 11.0 -2.7 10.65 L-2.75 10.65 -2.85 10.6 Q-3.15 10.5 -3.65 10.5 -4.15 10.5 -4.7 10.15 L-4.8 10.1 -5.0 9.95 -5.1 9.7 -5.15 9.5 Q-5.2 9.3 -5.3 9.15 -5.25 8.85 -5.2 8.6 L-5.15 8.5 Q-4.95 7.85 -4.95 7.35 L-4.95 7.1 -4.95 7.05 -4.95 7.0 -4.95 6.95 Q-5.0 6.05 -6.45 5.55 L-6.45 5.55 -6.5 5.55 -6.85 5.4 -6.9 5.35 -6.9 5.35 -6.95 5.3 -6.95 5.3 -7.45 4.2 -7.45 4.2 -7.45 4.15 -7.4 4.15 -7.4 4.1 -7.3 3.9 -7.05 3.9 Q-6.65 3.8 -6.45 3.55 L-6.45 3.5 Q-6.25 3.3 -6.25 3.0 L-6.2 2.9 -6.2 2.8 Q-6.2 2.4 -7.15 1.15 L-7.15 1.15 -7.2 1.1 -7.25 0.95 -7.3 0.9 Q-7.8 -0.3 -7.85 -0.7 L-7.85 -0.7 -7.85 -0.75 M6.2 -3.65 L6.35 -3.4 Q6.25 -3.45 6.2 -3.65 L6.35 -3.4 Q6.25 -3.45 6.2 -3.65 Z" fill="none" stroke="#000000" stroke-linecap="round" stroke-linejoin="round" stroke-opacity="0.0" stroke-width="0.0"/>
    </g>
  </defs>
</svg>
