<?xml version="1.0" encoding="UTF-8" standalone="no"?>
<svg xmlns:ffdec="https://www.free-decompiler.com/flash" xmlns:xlink="http://www.w3.org/1999/xlink" ffdec:objectType="frame" height="232.45px" width="320.85px" xmlns="http://www.w3.org/2000/svg">
  <g transform="matrix(1.0, 0.0, 0.0, 1.0, 363.35, 227.4)">
    <use ffdec:characterId="1857" height="12.6" transform="matrix(1.3172, -1.2433, 1.2433, 1.3172, -102.2549, -136.6615)" width="11.9" xlink:href="#sprite0"/>
    <use ffdec:characterId="1857" height="12.6" transform="matrix(1.1756, -1.4057, 1.4057, 1.1756, -99.9931, -66.6536)" width="11.9" xlink:href="#sprite0"/>
    <use ffdec:characterId="1857" height="12.6" transform="matrix(1.2406, -1.3364, 1.3364, 1.2406, -124.6687, -82.048)" width="11.9" xlink:href="#sprite0"/>
    <use ffdec:characterId="1857" height="12.6" transform="matrix(-1.2657, -1.3173, 1.3173, -1.2657, -95.1792, -88.8956)" width="11.9" xlink:href="#sprite0"/>
    <use ffdec:characterId="1857" height="12.6" transform="matrix(-1.2446, -1.3423, 1.3423, -1.2446, -84.9207, -82.1371)" width="11.9" xlink:href="#sprite0"/>
    <use ffdec:characterId="1857" height="12.6" transform="matrix(1.2261, -1.368, 1.368, 1.2261, -102.2424, -101.2645)" width="11.9" xlink:href="#sprite0"/>
    <use ffdec:characterId="1857" height="12.6" transform="matrix(-0.6319, -1.8036, 1.8036, -0.6319, -82.534, -65.0166)" width="11.9" xlink:href="#sprite0"/>
    <use ffdec:characterId="1857" height="12.6" transform="matrix(1.2565, -1.2608, 1.2608, 1.2565, -111.8108, -102.3541)" width="11.9" xlink:href="#sprite0"/>
  </g>
  <defs>
    <g id="sprite0" transform="matrix(1.0, 0.0, 0.0, 1.0, 5.95, 6.65)">
      <use ffdec:characterId="1856" height="1.8" transform="matrix(7.0, 0.0, 0.0, 7.0, -5.95, -6.65)" width="1.7" xlink:href="#shape0"/>
    </g>
    <g id="shape0" transform="matrix(1.0, 0.0, 0.0, 1.0, 0.85, 0.95)">
      <path d="M0.5 -0.8 L0.55 -0.65 0.55 -0.6 0.65 -0.75 Q0.7 -0.8 0.75 -0.8 L0.7 -0.7 0.7 -0.65 0.65 -0.55 0.75 -0.55 0.65 -0.5 0.55 -0.5 0.55 -0.55 Q0.5 -0.6 0.5 -0.7 L0.5 -0.8 M0.4 -0.7 L0.45 -0.6 0.45 -0.5 0.4 -0.45 0.4 -0.7 M0.0 -0.8 L0.0 -0.6 Q0.25 -0.6 0.45 -0.45 L0.55 -0.45 0.65 -0.4 0.5 -0.4 Q0.6 -0.25 0.6 -0.05 L0.65 -0.05 0.7 0.0 0.8 -0.05 0.85 -0.1 0.8 0.0 0.85 0.05 0.85 0.1 0.8 0.05 0.65 0.05 0.6 0.0 Q0.6 0.2 0.5 0.35 L0.55 0.35 0.7 0.4 0.55 0.4 0.5 0.45 0.4 0.45 Q0.45 0.5 0.4 0.55 0.4 0.65 0.35 0.65 L0.35 0.6 0.4 0.5 Q0.25 0.6 0.05 0.65 L0.05 0.75 0.1 0.85 0.05 0.85 0.0 0.8 -0.1 0.85 0.0 0.75 0.0 0.65 Q-0.25 0.65 -0.4 0.5 L-0.4 0.65 -0.45 0.6 -0.45 0.45 -0.6 0.45 -0.6 0.4 -0.5 0.4 Q-0.6 0.25 -0.65 0.05 L-0.85 0.1 Q-0.85 0.0 -0.75 0.0 L-0.85 -0.05 -0.8 -0.1 -0.65 0.0 Q-0.6 -0.25 -0.5 -0.4 L-0.6 -0.35 Q-0.65 -0.35 -0.65 -0.4 L-0.5 -0.45 -0.45 -0.45 -0.45 -0.7 Q-0.35 -0.6 -0.4 -0.5 -0.25 -0.6 -0.05 -0.6 L-0.05 -0.8 -0.15 -0.9 -0.1 -0.95 -0.05 -0.85 0.05 -0.95 0.05 -0.85 Q0.05 -0.8 0.0 -0.8 M0.05 -0.35 Q0.25 -0.3 0.3 -0.2 L0.35 -0.05 0.5 -0.05 0.5 -0.15 0.35 -0.3 0.25 -0.45 0.0 -0.5 0.05 -0.4 0.05 -0.35 M0.1 0.0 Q0.1 -0.1 0.0 -0.1 -0.05 -0.1 -0.05 -0.05 L-0.1 0.0 0.0 0.1 Q0.1 0.1 0.1 0.0 M0.1 -0.15 Q0.15 -0.1 0.15 0.05 0.1 0.15 0.0 0.15 L-0.1 0.1 -0.15 0.0 Q-0.15 -0.15 0.0 -0.15 L0.1 -0.15 M0.2 -0.2 Q0.15 -0.25 0.0 -0.25 -0.25 -0.25 -0.25 0.0 -0.25 0.1 -0.15 0.2 L-0.05 0.25 0.0 0.25 Q0.2 0.25 0.25 0.0 L0.25 -0.1 0.2 -0.2 M0.5 0.05 L0.35 0.1 0.3 0.1 Q0.25 0.3 0.1 0.3 0.1 0.4 0.05 0.5 0.15 0.5 0.25 0.4 L0.4 0.3 0.4 0.25 0.45 0.25 0.45 0.2 0.5 0.05 M0.65 0.55 L0.55 0.5 Q0.55 0.45 0.65 0.45 L0.7 0.5 0.65 0.55 M0.55 0.55 L0.65 0.6 0.7 0.7 0.65 0.7 0.55 0.6 0.5 0.7 0.45 0.7 0.5 0.55 0.55 0.55 M-0.6 -0.6 L-0.75 -0.7 -0.7 -0.75 Q-0.6 -0.65 -0.55 -0.6 L-0.6 -0.6 M-0.55 -0.55 L-0.7 -0.5 -0.75 -0.55 -0.55 -0.55 M-0.5 -0.55 Q-0.55 -0.6 -0.55 -0.65 L-0.55 -0.75 Q-0.45 -0.65 -0.5 -0.55 M-0.4 -0.25 L-0.45 -0.25 Q-0.5 -0.15 -0.5 0.0 L-0.35 -0.05 Q-0.3 -0.3 -0.05 -0.3 L-0.05 -0.5 Q-0.3 -0.45 -0.4 -0.25 M-0.35 0.1 L-0.45 0.05 -0.5 0.05 -0.45 0.2 Q-0.45 0.3 -0.3 0.35 L-0.15 0.45 -0.1 0.5 0.0 0.5 -0.05 0.35 -0.2 0.25 Q-0.3 0.2 -0.35 0.1 M-0.5 0.55 L-0.5 0.75 -0.55 0.65 -0.5 0.55 -0.6 0.7 -0.65 0.7 -0.7 0.65 -0.6 0.55 -0.75 0.55 Q-0.6 0.45 -0.55 0.5 L-0.5 0.55" fill="#ffffff" fill-opacity="0.87058824" fill-rule="evenodd" stroke="none"/>
      <path d="M0.0 0.1 Q0.05 0.1 0.1 0.0 L0.65 0.55 0.55 0.65 0.0 0.1 -0.55 0.65 -0.65 0.55 -0.1 0.0 0.0 0.1 M0.1 0.0 Q0.1 -0.05 0.0 -0.1 L0.55 -0.65 0.65 -0.55 0.1 0.0 M-0.05 -0.05 L-0.1 0.0 -0.65 -0.55 -0.55 -0.65 0.0 -0.1 -0.05 -0.05" fill="#ffffff" fill-opacity="0.87058824" fill-rule="evenodd" stroke="none"/>
    </g>
  </defs>
</svg>
