<?xml version="1.0" encoding="UTF-8" standalone="no"?>
<svg xmlns:ffdec="https://www.free-decompiler.com/flash" xmlns:xlink="http://www.w3.org/1999/xlink" ffdec:objectType="frame" height="155.05px" width="136.15px" xmlns="http://www.w3.org/2000/svg">
  <g transform="matrix(1.0, 0.0, 0.0, 1.0, 67.2, 165.55)">
    <use ffdec:characterId="2189" height="8.7" transform="matrix(7.0, 0.0, 0.0, 7.0, -38.15, -165.55)" width="3.7" xlink:href="#shape0"/>
  </g>
  <defs>
    <g id="shape0" transform="matrix(1.0, 0.0, 0.0, 1.0, 5.45, 23.65)">
      <path d="M-3.4 -23.65 Q-2.85 -23.65 -2.65 -23.0 -2.6 -22.7 -2.45 -22.6 L-2.3 -22.45 Q-2.25 -22.4 -2.25 -22.3 -2.3 -22.1 -2.35 -22.0 L-2.4 -21.9 Q-2.5 -21.85 -2.6 -21.8 -2.7 -21.8 -2.8 -21.85 -2.85 -21.9 -2.9 -22.0 -2.95 -22.2 -3.05 -22.25 -3.25 -22.35 -3.55 -22.25 -3.9 -22.15 -4.15 -21.85 -4.4 -21.65 -4.4 -21.45 L-4.35 -21.2 -4.3 -21.1 -4.25 -20.95 -4.2 -20.55 Q-4.15 -20.25 -4.05 -20.1 L-4.0 -20.05 Q-3.9 -19.85 -3.75 -19.8 L-3.65 -19.75 Q-3.55 -19.75 -3.5 -19.7 -3.4 -19.6 -3.4 -19.5 L-3.4 -18.75 Q-3.35 -18.85 -3.35 -18.95 -3.35 -19.05 -3.3 -19.1 L-3.15 -19.2 Q-3.25 -19.3 -3.3 -19.6 -3.35 -19.7 -3.5 -19.75 -3.6 -19.75 -3.65 -19.8 L-3.75 -19.95 -3.75 -20.15 Q-3.7 -20.25 -3.75 -20.35 -3.75 -20.45 -3.7 -20.55 -3.65 -20.65 -3.55 -20.65 L-3.5 -20.7 -3.3 -20.65 -2.8 -20.4 -2.75 -20.4 Q-2.45 -20.15 -2.45 -19.85 -2.45 -19.65 -2.65 -19.25 L-2.7 -19.2 -2.85 -19.1 -2.6 -18.95 Q-2.6 -19.2 -2.6 -19.25 L-2.6 -19.3 Q-2.5 -19.5 -2.25 -19.6 -2.15 -19.6 -2.05 -19.6 -1.95 -19.55 -1.9 -19.45 -1.85 -19.35 -1.85 -19.25 L-1.9 -18.95 Q-1.9 -18.8 -1.8 -18.65 L-1.75 -18.5 Q-1.75 -18.4 -1.8 -18.3 -1.9 -18.25 -2.0 -18.2 L-2.15 -18.25 Q-2.15 -17.95 -2.25 -17.85 L-2.35 -17.7 -2.35 -17.65 -2.45 -17.4 -2.45 -17.35 -2.4 -17.35 Q-2.3 -17.25 -2.3 -17.15 L-2.25 -17.1 -2.25 -17.0 -2.3 -16.7 -2.35 -16.7 Q-2.4 -16.45 -2.7 -16.4 L-2.85 -16.4 Q-2.8 -16.3 -2.8 -16.25 -2.75 -16.15 -2.8 -16.05 L-3.15 -15.55 -3.25 -15.4 Q-3.2 -15.3 -3.25 -15.2 L-3.25 -15.15 Q-3.3 -15.05 -3.35 -15.0 -3.45 -14.95 -3.55 -14.95 -3.6 -14.95 -3.7 -15.0 L-3.8 -15.1 Q-3.95 -15.2 -3.95 -15.45 -3.95 -15.7 -3.65 -16.05 -3.4 -16.35 -3.2 -16.45 L-3.05 -16.45 -3.1 -16.6 -3.1 -16.75 -3.0 -17.0 -3.0 -17.05 -2.9 -17.2 -2.95 -17.25 Q-3.05 -17.35 -3.0 -17.45 L-3.0 -17.65 Q-3.0 -17.8 -3.15 -18.1 L-3.2 -18.3 Q-3.3 -18.3 -3.35 -18.35 L-3.4 -18.5 -3.4 -18.05 -3.25 -17.95 Q-3.1 -17.75 -3.1 -17.55 -3.05 -17.35 -3.4 -17.0 -3.8 -16.55 -4.05 -16.7 -4.15 -16.75 -4.2 -16.8 -4.25 -16.9 -4.25 -17.0 -4.25 -17.1 -4.2 -17.15 L-4.0 -17.45 Q-3.95 -17.55 -3.95 -17.65 L-3.95 -17.75 Q-4.0 -17.85 -4.05 -17.95 -4.05 -18.1 -4.2 -18.4 L-4.2 -18.55 Q-4.2 -18.85 -4.35 -19.1 L-4.4 -19.2 Q-4.5 -19.2 -4.55 -19.25 L-4.65 -19.4 -4.7 -19.6 Q-4.75 -19.75 -4.6 -19.85 -4.7 -20.1 -5.05 -20.5 L-5.2 -20.45 Q-5.3 -20.5 -5.35 -20.55 L-5.45 -20.7 -5.45 -21.0 Q-5.5 -21.9 -4.7 -22.65 -4.3 -23.05 -3.55 -23.55 -3.5 -23.65 -3.4 -23.65" fill="#ffd327" fill-opacity="0.5019608" fill-rule="evenodd" stroke="none"/>
      <path d="M-2.9 -22.5 L-3.65 -22.55 Q-4.05 -22.4 -4.35 -22.1 -4.7 -21.75 -4.7 -21.45 L-4.65 -21.15 -4.55 -20.95 -4.5 -20.5 Q-4.4 -20.1 -4.25 -19.95 -4.05 -19.6 -3.8 -19.55 L-3.7 -19.45 -3.7 -18.0 -3.75 -18.0 Q-3.75 -18.2 -3.95 -18.55 -3.95 -18.9 -4.05 -19.25 -4.2 -19.5 -4.4 -19.5 L-4.45 -19.6 -4.35 -19.75 -4.3 -19.8 Q-4.35 -20.15 -4.95 -20.8 L-5.15 -20.75 -5.2 -21.0 Q-5.2 -21.8 -4.5 -22.45 -4.1 -22.8 -3.4 -23.35 -3.05 -23.35 -2.95 -22.9 -2.85 -22.45 -2.55 -22.35 L-2.6 -22.15 -2.6 -22.1 Q-2.7 -22.4 -2.9 -22.5 M-2.3 -19.15 Q-2.3 -19.25 -2.15 -19.3 L-2.15 -18.95 Q-2.15 -18.75 -2.05 -18.5 L-2.25 -18.65 Q-2.35 -18.7 -2.35 -18.95 L-2.3 -19.15 M-2.5 -18.45 L-2.45 -18.3 Q-2.45 -18.1 -2.5 -18.0 L-2.6 -17.85 Q-2.7 -17.65 -2.75 -17.45 L-2.7 -17.65 Q-2.7 -17.8 -2.85 -18.2 L-3.05 -18.65 -3.05 -18.6 -3.1 -18.55 -3.15 -18.65 -3.05 -18.95 -2.6 -18.5 -2.5 -18.45 M-3.4 -20.4 L-2.95 -20.15 Q-2.75 -20.05 -2.75 -19.85 -2.75 -19.7 -2.9 -19.4 -3.0 -19.45 -3.05 -19.7 -3.15 -19.95 -3.45 -20.05 L-3.45 -20.1 Q-3.45 -20.25 -3.45 -20.4 L-3.4 -20.4 M-3.65 -17.85 Q-3.55 -17.8 -3.45 -17.75 -3.4 -17.65 -3.4 -17.55 -3.4 -17.45 -3.6 -17.2 -3.85 -16.95 -4.0 -17.0 L-3.75 -17.35 Q-3.6 -17.55 -3.65 -17.7 L-3.65 -17.85 M-3.5 -15.3 L-3.55 -15.25 -3.6 -15.3 -3.65 -15.45 Q-3.65 -15.6 -3.45 -15.85 -3.25 -16.1 -3.05 -16.2 L-3.4 -15.75 Q-3.6 -15.45 -3.5 -15.3 M-2.55 -17.05 L-2.6 -16.8 Q-2.65 -16.7 -2.8 -16.65 L-2.85 -16.65 -2.75 -16.95 Q-2.7 -17.1 -2.55 -17.1 L-2.55 -17.05" fill="#ffd327" fill-rule="evenodd" stroke="none"/>
    </g>
  </defs>
</svg>
