<?xml version="1.0" encoding="UTF-8" standalone="no"?>
<svg xmlns:ffdec="https://www.free-decompiler.com/flash" xmlns:xlink="http://www.w3.org/1999/xlink" ffdec:objectType="frame" height="301.0px" width="320.6px" xmlns="http://www.w3.org/2000/svg">
  <g transform="matrix(1.0, 0.0, 0.0, 1.0, 136.85, 164.85)">
    <use ffdec:characterId="56" height="9.85" transform="matrix(7.0, 0.0, 0.0, 7.0, -38.15, -29.75)" width="10.65" xlink:href="#shape0"/>
  </g>
  <defs>
    <g id="shape0" transform="matrix(1.0, 0.0, 0.0, 1.0, 5.45, 4.25)">
      <path d="M0.8 -4.2 L1.7 -4.0 Q1.9 -3.95 2.1 -3.7 L2.2 -3.6 2.25 -3.5 2.3 -3.45 Q2.35 -3.35 2.3 -3.25 L2.25 -3.1 2.15 -3.05 2.45 -2.85 Q2.8 -2.6 3.05 -2.5 3.45 -2.35 3.7 -2.05 L3.9 -1.8 Q4.2 -1.5 4.45 -0.95 L4.7 -0.35 4.85 -0.4 Q4.95 -0.4 5.05 -0.35 L5.15 -0.15 Q5.2 0.0 5.2 0.35 5.2 0.9 4.9 1.6 4.65 2.2 4.3 2.6 L4.25 2.65 4.1 2.75 4.1 2.8 3.6 3.25 Q3.4 3.45 3.3 3.6 L3.2 3.7 3.2 3.8 3.1 3.9 2.95 3.95 2.85 3.95 Q2.05 4.35 1.4 4.6 L1.35 4.65 Q1.05 4.75 0.85 4.9 1.55 4.75 1.8 4.75 1.85 4.75 1.95 4.8 L2.05 4.9 2.1 5.1 2.05 5.25 1.9 5.35 1.3 5.55 1.2 5.55 0.85 5.5 Q0.75 5.5 0.7 5.4 0.6 5.35 0.6 5.25 L0.6 5.2 0.55 5.3 0.45 5.4 0.3 5.5 0.1 5.55 -0.15 5.6 -0.2 5.6 -2.0 5.55 -1.95 5.55 Q-3.35 5.15 -3.6 4.85 -3.75 4.65 -3.75 4.35 L-3.7 4.35 -3.7 4.05 Q-3.7 3.95 -3.9 3.65 L-4.0 3.45 -4.15 3.25 -4.45 2.7 -4.8 2.25 -4.9 2.2 Q-4.95 2.2 -5.0 2.15 L-5.1 2.0 Q-5.25 1.25 -5.25 0.9 -5.25 0.65 -5.2 0.3 L-5.05 -0.15 -5.0 -0.2 -4.9 -0.45 -4.8 -0.6 Q-4.65 -0.7 -4.4 -0.6 L-4.3 -0.65 -4.2 -0.75 Q-3.85 -1.25 -3.35 -1.7 L-2.25 -2.65 Q-1.85 -3.05 -1.6 -3.4 L-1.7 -3.4 -1.9 -3.5 Q-1.95 -3.6 -1.95 -3.7 L-1.95 -3.75 Q-1.95 -3.9 -1.9 -3.95 -1.8 -4.05 -1.7 -4.05 L-1.6 -4.05 Q-1.25 -4.15 -0.55 -4.2 L-0.55 -4.15 0.1 -4.25 0.85 -4.2 0.8 -4.2 M2.7 4.45 L2.9 4.3 Q3.05 4.25 3.15 4.25 3.25 4.25 3.3 4.3 L3.45 4.45 Q3.45 4.55 3.45 4.65 3.45 4.75 3.4 4.8 3.2 4.95 2.95 5.0 L2.75 5.0 Q2.65 4.9 2.65 4.85 L2.6 4.75 Q2.55 4.65 2.6 4.6 2.6 4.5 2.7 4.45 M0.7 5.0 L0.6 5.05 0.6 5.2 0.7 5.0 M-3.85 -3.05 Q-3.2 -3.65 -2.5 -3.6 -2.4 -3.55 -2.35 -3.5 -2.25 -3.4 -2.25 -3.25 -2.25 -3.15 -2.35 -3.1 -2.6 -2.9 -3.35 -2.4 -3.9 -2.1 -4.1 -1.75 -4.15 -1.7 -4.25 -1.65 L-4.45 -1.65 -4.65 -1.75 -4.75 -1.9 -4.75 -2.1 -4.7 -2.25 Q-4.2 -2.8 -3.85 -3.05 M-4.7 -1.3 Q-4.8 -0.95 -4.9 -0.75 L-5.0 -0.65 Q-5.2 -0.5 -5.4 -0.7 -5.45 -0.7 -5.45 -0.85 L-5.45 -0.95 Q-5.45 -1.4 -5.15 -1.6 L-4.9 -1.65 Q-4.8 -1.6 -4.75 -1.5 -4.65 -1.4 -4.7 -1.3" fill="#ffffff" fill-rule="evenodd" stroke="none"/>
      <path d="M0.75 -3.95 L1.6 -3.75 Q1.75 -3.7 1.9 -3.5 L1.95 -3.45 1.9 -3.35 2.05 -3.3 1.85 -3.3 Q1.8 -3.2 1.8 -3.05 1.8 -2.9 2.3 -2.6 2.65 -2.35 2.95 -2.25 3.25 -2.1 3.5 -1.85 L3.7 -1.6 Q3.95 -1.35 4.2 -0.85 4.45 -0.3 4.5 0.1 L4.7 0.05 4.85 -0.1 4.9 0.35 Q4.9 0.85 4.65 1.5 4.4 2.05 4.05 2.45 L3.95 2.55 3.9 2.55 3.4 3.0 Q3.15 3.3 3.0 3.55 L2.95 3.65 2.9 3.65 2.85 3.6 Q1.95 4.05 1.3 4.35 L1.25 4.35 Q0.45 4.75 0.1 5.1 L0.2 5.1 0.3 5.15 0.15 5.25 0.1 5.25 -0.2 5.35 -1.85 5.3 Q-3.15 4.9 -3.35 4.65 -3.45 4.55 -3.45 4.4 L-3.4 4.05 Q-3.4 3.9 -3.65 3.5 L-3.75 3.3 -3.9 3.1 -4.2 2.5 -4.7 1.95 -4.8 1.95 Q-5.0 1.25 -5.0 0.9 -5.0 0.65 -4.9 0.4 L-4.75 -0.1 -4.65 -0.35 -4.55 -0.35 Q-4.45 -0.3 -4.35 -0.3 L-4.15 -0.45 -4.0 -0.55 Q-3.65 -1.05 -3.15 -1.5 -2.4 -2.1 -2.05 -2.45 -1.45 -3.0 -1.2 -3.55 L-1.25 -3.65 -1.7 -3.7 -1.7 -3.75 -1.55 -3.75 -0.5 -3.95 0.75 -3.95 M1.8 5.1 L1.2 5.25 0.9 5.25 0.9 5.2 0.95 5.2 Q1.55 5.05 1.8 5.05 L1.8 5.1 M3.2 4.6 Q3.05 4.7 2.9 4.75 L2.85 4.65 3.0 4.55 3.15 4.55 3.2 4.6 M-4.5 -2.05 Q-4.0 -2.6 -3.7 -2.85 -3.15 -3.35 -2.55 -3.3 -2.75 -3.1 -3.5 -2.65 -4.1 -2.3 -4.35 -1.95 L-4.45 -1.95 -4.5 -2.05 M-5.0 -1.35 Q-5.05 -1.05 -5.15 -0.9 L-5.15 -0.85 Q-5.2 -0.85 -5.2 -0.95 -5.2 -1.25 -5.0 -1.35" fill="#ffff00" fill-rule="evenodd" stroke="none"/>
      <path d="M2.1 -2.25 L1.9 -2.2 1.4 -1.55 Q1.1 -1.2 1.1 -0.95 L1.05 -0.95 Q1.0 -1.05 1.0 -1.15 1.0 -1.4 1.25 -1.8 1.5 -2.15 1.8 -2.3 L2.1 -2.25 M1.25 -1.55 Q1.35 -1.6 1.45 -1.75 1.5 -1.85 1.5 -1.95 L1.25 -1.6 1.25 -1.55 M2.3 -1.35 L2.3 -1.3 2.45 -0.6 2.5 0.0 Q2.5 1.2 2.15 1.7 1.75 2.3 0.75 2.3 -0.45 2.3 -1.2 1.65 -1.75 1.2 -1.75 0.8 L-1.75 0.65 -1.65 0.55 Q0.0 0.25 0.95 -0.35 1.5 -0.7 2.0 -1.35 2.0 -1.45 2.05 -1.45 L2.1 -1.45 2.1 -1.4 2.15 -1.4 2.25 -1.45 2.25 -1.4 2.3 -1.35 M-2.2 0.0 Q-1.6 -0.25 -1.15 -0.4 L-1.55 -0.3 Q-2.05 -0.15 -2.15 -0.05 L-2.2 0.0 M-0.35 -0.6 L-0.15 -0.45 Q-0.85 -0.4 -1.65 -0.1 -2.4 0.2 -2.7 0.5 -2.75 0.6 -2.75 0.45 -2.75 0.15 -2.05 -0.25 -1.3 -0.65 -0.6 -0.6 L-0.35 -0.6" fill="#ffffff" fill-rule="evenodd" stroke="none"/>
    </g>
  </defs>
</svg>
