<?xml version="1.0" encoding="UTF-8" standalone="no"?>
<svg xmlns:ffdec="https://www.free-decompiler.com/flash" xmlns:xlink="http://www.w3.org/1999/xlink" ffdec:objectType="frame" height="112.35px" width="66.85px" xmlns="http://www.w3.org/2000/svg">
  <g transform="matrix(1.0, 0.0, 0.0, 1.0, 17.15, 95.55)">
    <use ffdec:characterId="1057" height="16.05" transform="matrix(7.0, 0.0, 0.0, 7.0, -17.15, -95.55)" width="9.55" xlink:href="#shape0"/>
  </g>
  <defs>
    <g id="shape0" transform="matrix(1.0, 0.0, 0.0, 1.0, 2.45, 13.65)">
      <path d="M-2.0 -7.8 L-0.7 -9.7 0.8 -10.8 Q2.1 -11.65 3.4 -12.4 L3.65 -12.55 Q4.05 -12.6 4.7 -12.9 L5.1 -13.05 5.65 -13.05 5.95 -13.0 5.85 -12.9 5.4 -12.4 4.55 -11.9 3.6 -11.35 Q3.1 -11.15 2.05 -10.35 L1.35 -9.95 0.9 -9.5 -0.75 -7.65 -0.9 -6.25 Q-0.9 -4.75 -0.4 -2.95 L0.95 -1.85 Q2.1 -0.9 2.9 -0.55 3.55 -0.2 5.05 0.5 5.75 0.8 6.3 1.1 L6.65 1.4 6.95 1.75 6.9 1.85 6.85 1.85 Q6.3 2.0 6.1 2.2 L5.85 2.25 5.35 2.2 Q4.35 1.7 2.15 0.3 L-1.5 -2.5 5.1 1.35 6.1 1.9 6.4 1.8 6.75 1.75 Q5.45 1.35 2.85 -0.25 L2.35 -0.55 -0.55 -2.7 -1.1 -4.6 -1.3 -7.1 -1.35 -7.1 -1.3 -7.15 -0.9 -7.75 Q-0.8 -8.0 -0.7 -8.05 L-0.7 -8.0 Q0.15 -9.2 0.7 -9.75 L2.6 -11.2 1.35 -10.75 Q-0.75 -9.25 -2.0 -7.8 M-2.1 -3.95 Q-2.3 -4.55 -2.4 -5.15 L-2.45 -5.55 -2.25 -7.1 -2.1 -3.95" fill="#111111" fill-rule="evenodd" stroke="none"/>
      <path d="M-2.0 -7.8 Q-0.75 -9.25 1.35 -10.75 L2.6 -11.2 0.7 -9.75 Q0.15 -9.2 -0.7 -8.0 L-0.7 -8.05 Q-0.8 -8.0 -0.9 -7.75 L-1.3 -7.15 -1.35 -7.1 -1.3 -7.1 -1.1 -4.6 -0.55 -2.7 2.35 -0.55 2.85 -0.25 Q5.45 1.35 6.75 1.75 L6.4 1.8 6.1 1.9 5.1 1.35 -1.5 -2.5 -2.1 -3.95 -2.25 -7.1 -2.0 -7.8" fill="#59422c" fill-rule="evenodd" stroke="none"/>
      <path d="M5.9 -13.05 L5.55 -12.7 5.6 -12.7 5.4 -12.6 5.25 -12.5 3.9 -11.75 2.7 -11.05 2.4 -11.2 2.35 -11.2 Q2.65 -11.45 2.65 -11.6 2.65 -11.7 2.6 -11.65 L3.7 -12.1 Q4.25 -12.3 4.6 -12.5 L4.6 -12.4 4.65 -12.35 4.75 -12.3 Q5.05 -12.3 5.75 -13.1 L5.9 -13.05 M2.45 -10.9 Q1.5 -10.3 0.85 -9.8 0.2 -9.3 -0.65 -8.2 L-0.75 -8.05 -0.75 -8.0 -0.9 -7.25 -0.95 -6.85 -1.0 -6.6 -1.05 -5.95 Q-1.0 -5.2 -0.85 -4.45 L-0.85 -4.25 Q-0.6 -2.4 -0.15 -2.4 0.15 -2.1 0.9 -1.4 1.95 -0.5 2.45 -0.35 L2.3 -0.25 2.0 -0.1 Q1.7 -0.4 1.55 -0.45 L1.55 -0.3 1.75 -0.05 1.45 0.0 1.2 -0.3 Q1.2 -0.25 1.1 -0.25 1.05 -0.2 1.05 -0.15 L1.15 0.0 1.0 0.0 0.65 -0.35 Q0.25 -0.45 -0.2 -1.05 -0.45 -1.25 -0.65 -1.5 L-0.75 -1.6 -1.1 -2.05 -1.2 -2.25 -1.35 -2.5 -1.45 -2.65 -1.6 -3.0 -1.65 -3.3 -1.7 -3.35 -2.05 -4.15 Q-2.15 -4.4 -2.15 -5.0 L-2.2 -5.1 -2.2 -5.5 -2.1 -7.0 -1.95 -7.35 Q-1.35 -8.65 -0.55 -9.6 L-0.1 -10.0 -0.1 -10.05 0.6 -10.6 Q0.95 -10.85 1.35 -11.05 L1.5 -11.05 1.85 -11.0 1.85 -10.95 1.95 -10.9 2.05 -11.0 2.45 -10.9 M2.7 -0.25 L3.05 -0.1 3.5 0.15 4.0 0.4 3.95 0.45 Q3.95 0.5 3.9 0.5 L3.85 0.5 4.15 0.65 4.55 0.9 5.25 1.05 5.2 1.15 5.15 1.2 5.65 1.45 Q5.6 1.5 5.6 1.65 5.6 1.7 6.05 2.0 5.05 1.95 3.95 1.5 3.5 1.3 3.25 1.15 L2.55 0.9 2.25 0.75 2.3 0.6 Q2.0 0.5 1.65 0.2 L1.9 0.1 2.05 0.25 Q2.6 0.8 2.85 0.8 L2.95 0.8 2.95 0.75 3.0 0.65 Q2.6 0.55 2.15 0.1 L2.15 0.05 2.3 -0.05 Q2.6 -0.15 2.7 -0.25 M6.65 1.85 L6.7 1.85 6.8 1.9 6.75 1.9 6.65 1.85 M4.9 -12.85 L4.95 -12.9 4.95 -12.85 4.9 -12.85 M2.05 -11.35 L2.0 -11.3 1.7 -11.3 2.2 -11.5 2.05 -11.35 M0.4 -9.9 L0.6 -10.0 1.85 -10.9 Q1.1 -10.45 0.65 -10.1 L0.4 -9.9 M-1.15 -8.3 L-1.05 -8.6 Q-1.45 -8.15 -1.7 -7.4 -1.75 -7.3 -1.85 -6.6 L-1.7 -6.65 Q-1.55 -6.75 -1.55 -6.45 L-1.55 -6.35 -1.3 -7.3 -1.55 -6.85 -1.65 -6.9 -1.65 -6.95 Q-1.65 -7.4 -1.1 -8.25 -1.15 -8.25 -1.15 -8.3 M-1.65 -5.6 L-1.55 -6.2 -1.6 -6.1 -1.65 -5.8 -1.65 -5.6 M-1.45 -4.65 L-1.35 -4.1 -1.35 -4.05 -1.4 -4.05 -1.35 -3.8 Q-1.3 -3.5 -1.05 -3.05 L-1.1 -3.1 Q-1.2 -3.5 -1.25 -3.9 L-1.3 -4.05 -1.3 -4.2 -1.4 -5.85 Q-1.45 -5.45 -1.45 -5.05 L-1.45 -4.65 M-0.45 -2.5 L-0.3 -2.15 -0.3 -2.2 -0.25 -2.2 -0.45 -2.5" fill="#59422c" fill-rule="evenodd" stroke="none"/>
      <path d="M5.9 -13.05 L6.0 -13.05 5.65 -12.7 5.6 -12.7 5.55 -12.7 5.9 -13.05 M2.7 -11.05 L2.85 -10.95 2.65 -10.8 2.5 -10.85 2.45 -10.9 2.05 -11.0 1.95 -10.9 1.85 -10.95 1.85 -11.0 1.5 -11.05 1.35 -11.05 Q0.95 -10.85 0.6 -10.6 L-0.1 -10.0 -0.55 -9.6 Q-1.35 -8.65 -1.95 -7.35 L-2.1 -7.0 -2.2 -5.5 -2.2 -5.1 -2.15 -5.0 Q-2.15 -4.4 -2.05 -4.15 L-1.7 -3.35 -1.65 -3.3 -1.6 -3.0 -1.45 -2.65 -1.35 -2.5 -1.2 -2.25 -1.1 -2.05 -0.75 -1.6 -0.65 -1.5 Q-0.45 -1.25 -0.2 -1.05 0.25 -0.45 0.65 -0.35 L1.0 0.0 1.15 0.0 1.05 -0.15 Q1.05 -0.2 1.1 -0.25 1.2 -0.25 1.2 -0.3 L1.45 0.0 1.75 -0.05 1.55 -0.3 1.55 -0.45 Q1.7 -0.4 2.0 -0.1 L2.3 -0.25 2.45 -0.35 Q1.95 -0.5 0.9 -1.4 0.15 -2.1 -0.15 -2.4 -0.6 -2.4 -0.85 -4.25 L-0.85 -4.45 Q-0.9 -5.05 -0.95 -6.1 L-1.0 -6.6 -0.95 -6.85 -0.9 -6.95 Q-0.9 -7.25 -0.85 -7.5 -0.75 -7.9 -0.55 -8.15 L-0.5 -8.1 -0.45 -8.0 -0.55 -7.45 Q-0.65 -6.85 -0.65 -6.55 L-0.65 -6.5 -0.7 -6.5 -0.7 -6.15 Q-0.7 -3.8 -0.2 -2.8 -0.1 -2.8 0.2 -2.55 L0.95 -1.7 Q1.05 -1.5 1.85 -1.0 L2.75 -0.5 2.85 -0.5 2.85 -0.45 Q2.85 -0.35 2.7 -0.25 2.6 -0.15 2.3 -0.05 L2.15 0.05 2.15 0.1 Q2.6 0.55 3.0 0.65 L2.95 0.75 2.95 0.8 2.85 0.8 Q2.6 0.8 2.05 0.25 L1.9 0.1 1.65 0.2 Q2.0 0.5 2.3 0.6 L2.25 0.75 2.55 0.9 3.25 1.15 Q3.5 1.3 3.95 1.5 5.05 1.95 6.05 2.0 L6.1 2.0 6.2 2.1 Q6.15 2.15 6.1 2.2 L5.85 2.25 5.15 2.15 5.1 2.15 4.95 2.1 4.65 2.05 Q4.05 1.8 3.9 1.8 L3.85 1.8 3.45 1.65 2.7 1.4 2.65 1.35 Q1.85 0.75 1.25 0.35 0.95 0.15 0.7 0.05 L0.65 0.0 -0.4 -0.85 -0.55 -0.95 -1.0 -1.35 -1.3 -1.8 -1.8 -2.85 Q-2.1 -3.5 -2.25 -4.35 L-2.45 -5.85 -2.45 -6.15 -2.35 -7.0 Q-2.15 -7.55 -1.8 -8.35 L-1.5 -8.9 -1.15 -9.35 -0.95 -9.65 -0.9 -9.65 -0.6 -9.95 Q0.45 -11.05 1.7 -11.65 L3.4 -12.4 3.95 -12.6 4.4 -12.75 4.9 -12.85 4.95 -12.85 4.6 -12.5 Q4.25 -12.3 3.7 -12.1 L2.6 -11.65 Q2.65 -11.7 2.65 -11.6 2.65 -11.45 2.35 -11.2 L2.4 -11.2 2.7 -11.05 M6.8 1.9 L6.85 1.8 Q6.9 1.8 6.95 1.75 L6.9 1.85 6.85 1.85 6.8 1.9 M5.05 -12.95 L4.95 -13.0 5.3 -13.15 5.05 -12.95 M2.05 -11.35 L2.2 -11.5 1.7 -11.3 2.0 -11.3 2.05 -11.35" fill="#111111" fill-rule="evenodd" stroke="none"/>
      <path d="M5.65 1.45 Q5.8 1.25 6.35 1.6 L6.65 1.85 6.75 1.9 7.1 2.2 Q7.1 2.4 6.9 2.4 6.65 2.4 6.2 2.1 L6.1 2.0 6.05 2.0 Q5.6 1.7 5.6 1.65 5.6 1.5 5.65 1.45 M4.95 -12.85 L5.05 -12.95 5.3 -13.15 5.35 -13.25 Q6.15 -13.9 6.15 -13.55 L5.75 -13.1 Q5.05 -12.3 4.75 -12.3 L4.65 -12.35 4.6 -12.4 4.6 -12.5 4.95 -12.85" fill="#805f3f" fill-rule="evenodd" stroke="none"/>
    </g>
  </defs>
</svg>
