<?xml version="1.0" encoding="UTF-8" standalone="no"?>
<svg xmlns:ffdec="https://www.free-decompiler.com/flash" xmlns:xlink="http://www.w3.org/1999/xlink" ffdec:objectType="frame" height="187.25px" width="358.4px" xmlns="http://www.w3.org/2000/svg">
  <g transform="matrix(1.0, 0.0, 0.0, 1.0, 196.0, 86.1)">
    <use ffdec:characterId="569" height="26.75" transform="matrix(7.0, 0.0, 0.0, 7.0, -196.0, -86.1)" width="51.2" xlink:href="#shape0"/>
  </g>
  <defs>
    <g id="shape0" transform="matrix(1.0, 0.0, 0.0, 1.0, 28.0, 12.3)">
      <path d="M13.1 -12.0 L12.1 -11.85 11.6 -11.75 11.45 -11.7 10.45 -11.5 9.9 -11.3 Q9.05 -11.2 8.0 -10.8 L7.3 -10.5 5.85 -9.7 4.55 -9.0 Q4.5 -8.95 4.35 -8.9 L4.1 -8.8 4.05 -8.8 4.05 -8.75 Q4.1 -7.4 3.3 -6.6 2.95 -6.2 2.3 -5.85 L2.0 -5.75 1.75 -5.65 Q1.35 -5.5 0.9 -5.45 L0.7 -5.4 0.65 -5.4 -0.15 -5.45 Q-1.2 -5.6 -1.7 -6.1 L-1.9 -6.3 -2.0 -6.45 -2.05 -6.55 -2.3 -6.95 Q-2.3 -6.4 -2.25 -6.2 L-2.25 -6.15 -2.0 -5.65 Q-1.7 -4.95 -1.35 -4.65 -0.95 -4.45 -0.85 -4.25 -1.1 -4.3 -1.35 -4.5 L-1.5 -4.65 Q-2.05 -5.15 -2.45 -6.1 -2.45 -6.2 -2.45 -6.7 L-2.5 -7.05 -2.5 -6.9 -2.55 -6.75 -2.6 -6.25 Q-2.6 -5.5 -2.5 -5.2 -2.05 -4.05 -1.2 -3.3 -0.75 -2.9 -0.35 -2.75 L0.9 -2.3 1.0 -2.3 0.95 -2.45 1.15 -2.55 1.2 -2.55 1.2 -2.6 1.4 -2.7 1.6 -2.85 Q1.95 -3.15 2.2 -3.5 L2.25 -3.6 Q1.1 -3.3 -0.6 -4.1 L-0.55 -4.1 Q0.0 -3.85 0.55 -3.75 L0.95 -3.7 Q1.7 -3.65 2.4 -3.85 L2.4 -3.9 2.45 -3.9 2.6 -4.3 Q2.8 -4.6 2.9 -5.0 L3.05 -5.25 3.55 -5.85 3.85 -6.1 4.6 -6.7 Q5.4 -7.3 5.55 -7.35 L5.7 -7.4 7.3 -7.6 8.3 -7.7 8.7 -7.55 9.1 -7.45 9.35 -7.4 9.65 -7.45 10.25 -7.75 10.45 -7.8 11.2 -8.0 11.5 -8.1 11.7 -8.1 12.5 -8.25 13.2 -8.35 14.85 -8.25 14.9 -8.25 Q16.4 -8.05 17.0 -7.8 L17.2 -7.7 17.35 -7.65 17.6 -7.55 18.25 -7.25 18.3 -7.25 18.6 -7.15 19.05 -7.35 Q19.15 -7.4 19.25 -7.3 19.9 -7.55 20.3 -7.6 20.75 -7.75 21.05 -7.85 L21.6 -7.95 21.6 -7.9 21.65 -7.95 22.25 -8.0 22.2 -8.0 21.05 -9.3 20.3 -10.0 Q19.95 -10.3 19.6 -10.55 L19.1 -10.85 18.8 -10.95 18.55 -11.05 Q18.0 -11.3 16.9 -11.6 L16.8 -11.6 16.75 -11.65 16.7 -11.65 Q15.7 -11.95 14.05 -12.0 L13.1 -12.0 M9.85 -6.85 L9.4 -7.1 Q9.0 -7.3 8.8 -7.35 L8.6 -7.4 7.35 -7.45 7.15 -7.45 6.45 -7.35 Q6.05 -7.25 5.65 -7.1 4.9 -6.8 4.25 -6.15 L4.2 -6.1 Q3.45 -5.5 3.2 -5.0 L3.2 -4.9 Q3.05 -4.7 3.0 -4.5 L2.95 -4.35 2.75 -3.85 2.7 -3.8 2.7 -3.7 2.65 -3.7 2.15 -3.05 1.9 -2.75 1.8 -2.7 1.65 -2.6 1.65 -2.55 Q1.5 -2.35 1.35 -2.3 1.5 -1.95 1.65 -1.9 L1.7 -1.9 1.9 -1.95 2.05 -2.05 2.3 -2.1 2.4 -2.15 3.15 -2.45 3.45 -2.55 4.05 -2.8 4.1 -2.8 4.5 -2.95 4.75 -3.75 4.8 -4.05 4.9 -4.3 4.9 -4.35 5.1 -4.6 5.6 -5.15 5.8 -5.25 6.55 -5.7 6.7 -5.75 6.75 -5.75 6.85 -5.8 7.0 -5.8 7.65 -5.85 8.0 -5.8 8.45 -5.75 8.75 -5.7 Q9.1 -5.6 9.65 -5.3 L9.75 -5.25 9.8 -5.2 Q11.1 -4.5 11.45 -4.4 12.0 -4.25 12.85 -4.4 L13.55 -4.5 16.2 -5.5 16.65 -5.7 17.1 -5.8 17.85 -6.1 17.95 -6.1 18.0 -6.15 18.4 -6.25 Q18.8 -6.4 18.9 -6.5 L19.15 -6.55 19.3 -6.65 19.1 -7.0 18.65 -6.9 16.8 -6.35 Q15.3 -5.9 14.35 -5.75 L14.0 -5.75 13.9 -5.7 13.0 -5.75 12.7 -5.75 Q11.7 -5.9 10.7 -6.35 10.25 -6.55 9.85 -6.85 M9.45 -7.3 L9.45 -7.3 M15.9 -6.2 Q16.6 -6.3 17.1 -6.5 L18.15 -6.95 18.0 -7.05 17.8 -7.3 17.75 -7.3 17.1 -7.65 Q16.45 -7.9 15.8 -8.05 L14.4 -8.2 13.2 -8.15 Q12.1 -8.1 11.85 -8.0 L10.45 -7.45 10.3 -7.4 10.1 -7.3 9.65 -7.15 10.25 -6.9 Q10.6 -6.7 10.95 -6.6 11.5 -6.35 11.9 -6.25 L12.0 -6.2 12.05 -6.2 12.4 -6.1 13.4 -6.0 13.85 -6.0 14.5 -6.0 15.4 -6.1 15.85 -6.2 15.9 -6.2 M5.45 -9.95 L5.6 -10.05 Q7.35 -10.95 7.8 -11.1 11.6 -12.6 15.35 -12.2 20.45 -11.7 23.2 -7.55 L22.1 -7.55 21.5 -7.45 21.15 -7.45 20.75 -7.3 20.4 -7.15 20.2 -7.1 20.1 -7.05 19.95 -6.95 19.9 -6.95 19.7 -6.9 19.55 -6.85 Q19.65 -6.65 19.7 -6.6 L19.7 -6.5 Q19.7 -6.45 19.6 -6.4 L19.45 -6.4 18.9 -6.15 13.85 -4.2 13.75 -4.2 13.55 -4.1 13.5 -4.05 12.8 -3.95 11.95 -4.0 Q11.25 -4.05 10.7 -4.35 L10.1 -4.55 9.9 -4.65 Q9.45 -4.9 9.15 -5.05 L9.0 -5.1 8.85 -5.2 Q8.65 -5.3 8.4 -5.35 7.55 -5.6 6.65 -5.25 6.4 -5.15 6.05 -4.9 L5.6 -4.5 Q5.45 -4.3 5.3 -4.0 L5.1 -3.3 5.2 -3.2 5.3 -3.25 5.45 -3.2 5.6 -3.05 6.4 -3.0 7.05 -2.95 7.3 -2.95 7.9 -2.9 7.7 -2.7 7.5 -2.45 6.85 -1.8 6.35 -1.25 Q6.35 -1.1 6.3 -1.0 L6.25 -0.9 5.85 -0.8 5.85 -0.6 Q5.8 -0.5 5.85 -0.4 L5.9 -0.25 Q6.5 1.05 7.95 1.05 8.8 1.1 9.65 0.75 L9.8 0.65 9.95 0.6 10.4 0.5 10.35 0.55 Q10.45 0.55 10.4 0.65 10.35 0.8 10.05 1.15 9.25 2.05 8.45 2.35 6.85 3.0 5.6 2.85 3.6 2.65 2.5 0.55 L2.45 0.55 2.4 0.6 2.25 0.6 Q2.1 0.6 2.0 0.5 L0.8 0.95 -0.05 1.25 -0.65 1.5 Q-0.85 1.8 -0.95 2.1 -1.05 2.4 -1.05 2.65 L-0.95 3.0 Q-0.8 3.45 -0.8 3.6 L-0.75 3.65 Q-0.8 3.8 -1.15 3.95 L-1.35 3.95 -1.5 4.05 -1.6 4.05 -1.65 3.95 -1.7 4.0 -1.75 4.0 Q-2.15 3.0 -2.6 2.6 L-2.8 2.5 -2.85 2.45 -2.95 2.5 Q-3.65 2.7 -4.05 2.85 L-4.1 2.85 -4.2 2.9 -4.55 3.0 -5.7 3.35 -5.9 3.45 Q-6.0 3.55 -6.1 3.6 L-6.45 3.65 -6.7 3.65 -7.1 3.75 Q-7.8 4.05 -8.3 4.25 L-9.05 4.6 Q-9.45 4.9 -10.25 5.25 L-10.4 5.25 -10.5 5.3 -10.55 5.3 Q-10.85 5.45 -11.05 5.55 -11.25 5.6 -11.65 5.75 L-12.15 5.9 -12.75 6.2 -13.45 6.6 -13.7 6.65 -13.85 6.8 -13.85 6.85 -13.9 7.0 Q-14.0 7.6 -13.6 8.6 L-13.65 8.6 -13.7 8.65 -13.65 8.7 Q-13.65 8.75 -13.75 8.8 L-13.9 8.85 -14.05 8.95 Q-14.4 9.1 -14.55 9.05 L-14.55 8.95 Q-14.7 8.85 -14.85 8.45 L-15.05 8.1 Q-15.2 7.9 -15.45 7.75 -15.75 7.6 -16.1 7.5 L-16.7 7.7 -17.55 8.05 -18.75 8.55 Q-18.7 8.7 -18.8 8.8 L-19.0 8.9 -19.1 9.0 Q-18.55 11.2 -19.85 12.65 -20.7 13.6 -22.3 14.25 -23.1 14.55 -24.3 14.45 -24.75 14.4 -24.9 14.3 -25.0 14.25 -24.95 14.2 L-25.0 14.15 -24.6 14.0 -24.45 13.9 -24.3 13.9 Q-23.4 13.55 -22.8 12.95 -21.75 11.95 -22.2 10.65 L-22.25 10.5 Q-22.3 10.35 -22.4 10.3 L-22.45 10.25 -22.8 10.4 -22.9 10.35 Q-23.0 10.35 -23.1 10.2 L-23.85 10.15 -24.1 10.15 -24.45 10.1 -24.75 10.1 -25.1 10.05 -25.4 10.05 -24.3 8.95 -23.8 8.35 Q-23.8 8.25 -23.8 8.15 L-23.7 8.05 -23.7 7.95 -23.95 7.95 -24.45 7.9 -24.45 7.85 Q-24.95 7.7 -25.75 7.2 -26.6 6.65 -27.05 6.1 L-27.25 5.85 -27.35 5.75 -27.6 5.25 Q-28.0 4.25 -28.0 3.4 L-28.0 3.25 -27.95 3.0 Q-27.7 2.2 -27.4 1.85 L-27.4 1.9 -27.35 1.9 Q-27.1 2.45 -26.7 2.9 L-26.5 3.1 Q-26.1 3.4 -25.65 3.65 -24.9 4.0 -24.3 3.9 L-23.7 3.9 -23.35 3.75 -23.2 3.7 -23.15 3.7 -22.95 3.6 -22.6 3.45 Q-22.35 3.3 -22.1 3.05 -21.65 2.7 -21.3 1.95 -21.1 1.45 -21.05 1.0 L-21.0 0.75 -21.05 0.7 Q-21.05 0.15 -21.2 -0.45 L-21.2 -0.5 -21.25 -0.55 Q-20.75 -0.5 -20.05 -0.05 L-19.85 0.05 -19.75 0.2 Q-19.2 0.8 -18.8 1.8 -18.7 2.1 -18.65 2.35 L-18.6 2.5 Q-18.6 2.65 -18.6 2.8 -18.6 3.5 -18.85 4.5 -19.1 5.45 -19.35 5.85 L-19.3 5.9 -19.65 6.3 -19.8 6.4 -19.8 6.55 -19.7 6.5 Q-19.55 6.5 -19.5 6.65 -19.25 6.55 -18.25 6.2 L-17.25 5.8 -16.75 5.55 Q-16.6 5.3 -16.5 5.05 -16.45 4.75 -16.4 4.5 L-16.55 4.1 Q-16.65 3.75 -16.65 3.6 -16.7 3.6 -16.7 3.5 L-16.7 3.45 -16.65 3.45 Q-16.65 3.35 -16.5 3.25 L-15.9 3.05 -15.85 3.05 -15.8 3.1 -15.85 3.2 -15.8 3.15 -15.65 3.35 Q-15.3 4.15 -14.9 4.5 -14.8 4.65 -14.65 4.7 L-14.6 4.8 Q-14.5 4.75 -14.45 4.7 L-14.2 4.65 Q-13.25 4.1 -13.0 4.0 L-12.0 3.8 -10.1 2.95 -5.05 1.2 Q-4.0 0.65 -3.8 0.55 L-3.75 0.55 -3.7 0.5 -3.7 0.45 -3.65 0.35 -3.6 0.15 Q-3.5 -0.45 -3.85 -1.45 L-3.85 -1.5 -3.8 -1.5 Q-3.9 -1.5 -3.9 -1.55 L-3.85 -1.6 -3.45 -1.8 -3.1 -1.9 -2.95 -1.9 -2.95 -1.8 -2.85 -1.7 -2.75 -1.4 Q-2.65 -1.2 -2.5 -1.1 L-2.45 -0.95 Q-2.25 -0.75 -2.0 -0.6 -1.8 -0.5 -1.45 -0.4 L-0.95 -0.5 -0.6 -0.65 -0.3 -0.8 Q-0.15 -0.85 0.15 -1.0 L0.15 -0.95 1.25 -1.45 Q1.25 -1.55 1.3 -1.65 L1.35 -1.65 1.45 -1.7 1.0 -1.75 0.5 -1.8 0.5 -1.85 Q0.0 -2.0 -0.8 -2.5 -1.65 -3.05 -2.1 -3.6 L-2.3 -3.85 -2.4 -3.95 -2.65 -4.45 Q-3.05 -5.45 -3.05 -6.3 L-3.05 -6.45 -3.0 -6.7 Q-2.8 -7.5 -2.45 -7.85 L-2.45 -7.8 -2.4 -7.8 Q-2.15 -7.25 -1.75 -6.8 L-1.55 -6.6 Q-1.15 -6.3 -0.7 -6.05 0.05 -5.7 0.65 -5.8 L1.25 -5.8 1.6 -5.95 1.85 -6.05 Q3.1 -6.6 3.55 -7.8 L3.65 -8.2 3.65 -8.6 3.6 -9.0 Q3.9 -9.2 4.85 -9.7 L5.45 -9.95 M1.45 -1.8 L1.45 -1.75 1.5 -1.75 1.55 -1.8 1.45 -1.8 M1.7 -0.45 L1.55 -0.85 1.45 -1.1 1.35 -1.1 1.05 -1.0 -0.05 -0.5 -0.9 -0.15 -1.3 -0.1 -1.5 0.0 -1.5 0.15 Q-1.5 0.35 -1.4 0.65 L-1.3 0.8 -1.15 1.1 -1.05 1.2 -0.95 1.35 -0.9 1.35 Q-0.65 1.2 -0.3 1.05 0.05 0.85 0.8 0.6 L1.05 0.5 1.45 0.35 Q1.55 0.25 1.65 0.25 L1.9 0.2 1.9 0.15 1.85 0.0 1.8 -0.15 1.7 -0.45 M5.6 -2.55 L5.45 -2.65 5.4 -2.75 5.2 -2.8 5.05 -2.9 4.95 -2.85 4.95 -2.8 4.7 -2.75 4.05 -2.5 2.5 -1.85 1.85 -1.65 1.65 -1.35 Q1.7 -1.15 1.85 -0.7 L1.9 -0.65 2.1 -0.1 2.15 0.0 2.2 0.2 2.4 0.2 2.55 0.25 3.25 -0.05 4.8 -0.6 5.45 -0.85 5.5 -0.85 5.8 -0.95 5.9 -1.15 5.95 -1.3 5.95 -1.6 5.8 -1.95 5.6 -2.55 M5.35 -0.5 L5.05 -0.4 4.2 -0.1 4.35 0.25 Q4.55 0.7 4.6 0.75 L5.0 1.15 5.05 1.15 5.4 1.45 Q6.1 1.8 7.05 1.8 8.0 1.8 8.8 1.5 L9.25 1.25 Q8.45 1.5 7.75 1.45 6.25 1.3 5.55 -0.1 5.45 -0.3 5.35 -0.5 M7.15 -2.6 L7.1 -2.6 5.75 -2.75 5.95 -2.3 6.0 -2.15 6.2 -1.65 6.2 -1.6 6.25 -1.55 6.3 -1.6 Q6.5 -1.9 6.6 -1.95 L6.85 -2.15 6.95 -2.25 7.25 -2.6 7.15 -2.6 M18.2 -7.0 L18.2 -7.0 M8.85 1.65 Q7.95 2.0 7.1 1.95 6.15 1.95 5.15 1.45 4.9 1.4 4.75 1.2 L4.6 0.95 4.6 0.9 Q4.3 0.65 3.9 0.05 3.5 0.2 3.35 0.25 L2.9 0.45 3.0 0.65 3.05 0.7 3.25 0.95 3.6 1.4 4.2 2.05 Q4.4 2.25 4.85 2.4 5.3 2.55 5.55 2.55 L5.75 2.5 5.95 2.55 6.3 2.5 Q7.0 2.55 7.55 2.3 L7.85 2.2 7.95 2.15 Q8.4 2.0 8.9 1.6 L8.85 1.65 M-1.85 0.0 L-1.95 -0.05 -2.35 -0.35 Q-3.05 -1.0 -3.2 -1.5 L-3.3 -1.5 -3.5 -1.4 Q-3.35 -1.2 -3.25 -0.6 -3.05 0.25 -3.25 0.65 L-3.3 0.7 -3.3 0.75 Q-3.15 1.35 -2.75 2.05 L-2.7 1.95 -2.7 2.0 Q-2.3 2.15 -1.85 2.9 -1.55 3.45 -1.5 3.7 L-1.45 3.7 -1.3 3.6 -1.2 3.55 Q-1.5 3.1 -1.35 2.15 L-1.25 1.65 -1.3 1.65 -1.25 1.6 -1.25 1.55 -1.35 1.3 -1.5 0.9 -1.75 0.25 -1.85 0.0 M-1.65 1.05 Q-1.65 1.15 -1.7 1.25 -1.8 1.5 -2.05 1.6 L-2.1 1.6 -2.5 1.65 Q-2.65 1.6 -2.75 1.5 -2.85 1.4 -2.9 1.25 -3.05 0.85 -2.85 0.6 -2.75 0.45 -2.6 0.4 -2.0 0.2 -1.75 0.65 L-1.65 0.8 -1.65 0.85 -1.65 1.05 M-1.9 0.85 Q-2.1 0.5 -2.5 0.65 -2.6 0.7 -2.7 0.8 -2.85 1.0 -2.7 1.35 -2.65 1.55 -2.4 1.6 L-2.15 1.6 -2.1 1.6 Q-1.6 1.4 -1.85 0.95 L-1.9 0.85 M-3.6 0.8 L-3.75 0.8 Q-4.05 0.85 -4.25 0.9 L-4.8 1.3 -4.95 1.4 -4.95 1.7 Q-4.85 1.9 -4.4 2.2 L-4.1 2.5 -3.95 2.55 Q-3.65 2.6 -3.55 2.55 L-3.15 2.35 -3.05 2.25 -2.95 2.2 -2.9 2.15 Q-2.95 1.9 -3.05 1.7 L-3.3 1.1 Q-3.35 0.95 -3.45 0.85 L-3.55 0.85 -3.6 0.8 M-5.6 1.6 L-6.0 1.65 Q-6.25 1.75 -6.7 2.0 L-6.8 2.1 -6.75 2.1 -5.95 2.8 Q-5.75 3.0 -5.7 3.1 L-5.6 3.1 -5.2 3.0 -4.8 2.75 Q-4.45 2.55 -4.4 2.5 L-4.35 2.5 -4.4 2.45 Q-4.45 2.3 -5.25 1.6 L-5.6 1.6 M-7.35 2.4 L-7.6 2.45 Q-7.7 2.55 -7.7 2.7 L-7.45 3.65 -6.85 3.45 -6.75 3.4 -6.8 3.1 -6.7 3.05 -6.55 3.3 -6.55 3.35 -6.15 3.25 Q-6.1 3.25 -6.0 3.25 L-5.9 3.2 -5.9 3.15 -6.35 2.5 Q-6.5 2.3 -6.7 2.35 L-6.75 2.4 -6.8 2.3 -6.8 2.35 Q-6.85 2.55 -6.8 2.8 L-6.9 2.65 -7.05 2.45 -7.05 2.25 -7.35 2.4 M-7.75 2.5 L-8.1 2.55 Q-8.75 2.7 -9.2 2.9 -9.45 2.95 -9.6 3.1 L-9.65 3.15 -9.75 3.2 Q-9.85 3.3 -9.7 3.6 L-9.7 3.7 -9.8 3.75 Q-9.9 3.75 -9.95 3.65 L-10.0 3.4 -10.05 3.45 -10.55 3.5 Q-11.05 3.55 -11.4 3.7 -11.55 3.75 -11.75 3.95 L-11.8 4.0 -11.7 4.05 -11.7 4.25 Q-11.5 4.65 -10.95 4.8 L-10.85 4.85 -10.75 4.8 -9.75 4.65 -9.25 4.35 -9.2 4.3 Q-9.5 4.1 -9.55 4.1 L-9.55 3.95 -9.3 4.05 Q-9.1 4.15 -9.0 4.15 L-8.9 4.05 -8.75 4.05 -8.75 4.15 Q-8.55 4.0 -8.5 3.95 L-7.7 3.75 Q-7.9 3.15 -7.8 2.7 L-7.75 2.5 M-11.2 4.8 Q-11.85 4.2 -12.05 4.2 L-12.1 4.2 -12.5 4.3 -12.9 4.35 -13.2 4.55 -13.25 4.65 Q-13.1 5.1 -12.45 5.35 L-12.1 5.45 -11.8 5.45 -11.3 5.35 -10.8 5.15 -10.85 5.1 -11.2 4.8 M-14.6 5.25 L-14.65 5.15 -14.75 5.15 -14.75 5.1 Q-15.15 4.95 -15.6 4.2 -15.9 3.7 -15.95 3.45 L-16.2 3.5 -16.25 3.6 Q-16.0 4.05 -16.1 5.0 -16.15 5.3 -16.2 5.5 L-16.2 5.6 -16.1 5.8 -15.9 6.45 -15.7 6.9 -15.65 7.15 -15.5 7.15 -15.5 7.2 -15.15 7.5 Q-14.4 8.1 -14.3 8.65 L-14.25 8.65 -14.2 8.65 -14.0 8.55 Q-14.1 8.3 -14.25 7.75 -14.4 6.85 -14.25 6.5 L-14.25 6.45 -14.15 6.5 Q-14.35 5.8 -14.6 5.25 M-14.6 6.35 Q-14.7 6.5 -14.95 6.6 L-15.0 6.6 Q-15.25 6.7 -15.5 6.6 -15.7 6.55 -15.8 6.3 L-15.85 6.1 Q-16.0 5.6 -15.4 5.4 L-15.05 5.35 Q-14.75 5.4 -14.6 5.75 L-14.6 5.8 Q-14.55 5.95 -14.55 6.1 -14.5 6.2 -14.55 6.25 L-14.6 6.35 M-16.2 6.2 Q-16.3 6.05 -16.4 5.95 L-16.5 5.8 -16.7 5.9 -17.05 6.1 -17.9 6.4 -18.95 6.8 -19.1 6.85 -19.15 6.9 -19.35 7.0 -19.4 7.0 -19.3 7.25 -19.2 7.45 -19.0 7.95 -18.95 8.05 -18.9 8.2 -18.9 8.25 Q-18.85 8.25 -18.8 8.2 L-18.6 8.2 Q-18.5 8.1 -18.4 8.05 L-17.75 7.8 Q-17.05 7.5 -16.65 7.4 -16.3 7.25 -16.0 7.2 L-16.0 6.95 -16.05 6.75 -16.15 6.35 -16.2 6.2 M-15.1 6.6 L-14.95 6.6 Q-14.85 6.55 -14.75 6.35 -14.6 6.2 -14.7 6.0 L-14.75 5.9 -14.75 5.85 Q-14.85 5.65 -15.05 5.6 L-15.3 5.65 Q-15.7 5.8 -15.6 6.3 -15.45 6.7 -15.1 6.6 M-14.4 5.25 L-14.45 5.25 -14.4 5.35 -14.45 5.35 -14.4 5.45 -14.2 6.05 -14.1 6.25 -14.05 6.2 -13.9 6.1 Q-13.8 6.1 -13.45 6.1 L-13.0 6.1 Q-12.9 6.05 -12.6 5.8 L-12.35 5.55 -12.6 5.45 Q-13.05 5.2 -13.5 4.75 L-13.5 4.7 -13.75 4.85 -13.9 4.9 Q-14.25 5.05 -14.4 5.25 M-20.05 3.5 Q-20.8 5.2 -21.8 5.8 L-21.7 5.8 Q-21.0 5.95 -20.35 5.8 L-20.3 5.8 -20.2 5.75 -20.1 5.75 -20.05 5.8 -19.9 5.75 -19.3 4.65 Q-19.1 4.25 -19.05 3.65 -18.95 2.5 -19.4 1.35 -19.5 1.05 -20.0 0.55 L-20.4 0.2 -20.55 0.1 -20.65 0.0 -20.45 0.25 Q-20.1 0.65 -20.05 0.75 -19.7 1.75 -19.75 2.45 -19.8 2.85 -19.9 3.1 L-19.95 3.1 -20.0 3.2 Q-20.0 3.0 -19.9 2.7 L-19.85 2.55 Q-19.8 1.95 -20.25 0.8 -20.35 0.65 -20.7 0.2 L-20.65 0.7 Q-20.5 1.2 -20.65 1.7 -20.85 2.25 -21.3 2.75 L-21.85 3.3 -21.85 3.35 -21.9 3.35 -22.1 3.5 Q-22.45 3.75 -22.8 3.9 L-23.0 4.0 -23.2 4.05 Q-23.6 4.2 -24.0 4.25 L-24.25 4.3 -24.3 4.3 -25.1 4.25 -25.5 4.15 Q-26.55 3.95 -27.0 3.15 L-27.25 2.75 Q-27.25 3.3 -27.2 3.5 -26.8 4.55 -26.4 4.95 L-26.35 5.0 -26.35 5.05 -26.3 5.05 Q-25.9 5.25 -25.8 5.45 L-25.9 5.4 Q-26.15 5.3 -26.45 5.05 -27.0 4.55 -27.35 3.6 -27.4 3.5 -27.4 3.0 L-27.4 2.65 -27.5 2.95 -27.55 3.45 Q-27.55 4.2 -27.45 4.5 -27.0 5.65 -26.15 6.4 L-25.75 6.75 Q-25.5 6.9 -25.3 6.95 L-25.3 7.0 -25.2 7.0 Q-24.4 7.25 -24.05 7.4 L-23.95 7.4 -23.95 7.25 -24.0 7.25 -23.9 7.2 -23.75 7.15 -23.75 7.1 Q-23.15 6.8 -22.75 6.25 L-22.65 6.1 Q-23.85 6.4 -25.55 5.6 L-25.5 5.6 -25.45 5.6 Q-25.4 5.6 -25.35 5.65 L-24.7 5.85 Q-24.2 6.0 -23.75 6.0 -23.1 6.05 -22.55 5.85 L-22.55 5.8 -22.25 5.75 -22.1 5.65 Q-21.85 5.55 -21.65 5.4 L-21.55 5.35 -21.2 5.1 -21.05 4.95 -20.7 4.5 -20.45 4.15 -20.2 3.75 -20.2 3.65 -20.15 3.55 -20.1 3.5 -20.05 3.5 M-22.1 6.0 L-22.2 5.95 -22.25 5.95 -22.3 6.0 -22.8 6.65 -23.05 6.95 -23.1 7.0 -23.3 7.1 -23.3 7.15 -23.35 7.2 -23.3 7.25 -23.5 7.55 Q-23.4 7.8 -23.3 7.8 L-23.2 7.8 -23.35 7.9 -23.35 7.95 -23.3 7.9 Q-23.05 7.75 -22.5 7.5 L-20.8 6.85 -20.7 6.85 -20.25 6.65 -20.2 6.65 -20.2 6.6 Q-20.15 6.5 -20.25 6.2 L-20.3 6.15 Q-20.4 6.15 -20.65 6.15 L-20.7 6.1 -20.75 6.15 -21.0 6.15 -21.35 6.1 -22.1 6.0 M-19.3 8.75 L-19.25 8.7 -19.2 8.6 -19.1 8.45 -19.15 8.3 -19.45 7.6 -19.7 6.95 -19.85 6.9 -19.9 6.9 -20.05 6.85 -20.7 7.15 -22.25 7.75 -22.9 8.0 -22.95 8.0 -23.25 8.1 -23.35 8.3 -23.45 8.45 -23.4 8.6 -23.4 8.85 -23.2 9.3 -23.05 9.65 -23.05 9.7 -22.95 9.8 -22.9 9.9 -22.85 9.9 -22.7 9.95 -22.5 10.05 -22.2 9.9 -21.55 9.6 Q-20.65 9.25 -20.0 9.0 L-19.4 8.8 -19.3 8.75 M-19.5 9.15 L-19.9 9.3 -20.5 9.55 -20.45 10.15 -20.35 10.45 Q-20.3 10.6 -20.3 10.7 -20.3 10.85 -20.45 11.3 L-20.5 11.45 Q-20.65 11.9 -20.7 11.95 L-20.75 11.95 Q-21.1 12.55 -21.55 13.05 -22.2 13.6 -23.1 13.95 L-23.15 14.0 Q-22.5 13.95 -22.1 13.75 L-21.65 13.6 Q-21.1 13.4 -20.6 12.9 L-20.35 12.7 -20.25 12.55 -20.05 12.4 Q-19.85 12.25 -19.65 11.85 -19.4 11.45 -19.4 11.15 -19.35 10.8 -19.35 10.3 L-19.45 9.7 -19.45 9.3 -19.5 9.15 M-21.95 10.1 L-21.8 10.45 Q-21.4 11.95 -22.4 13.1 -22.9 13.6 -23.65 14.0 L-23.15 13.85 Q-22.35 13.55 -21.65 12.9 -20.8 12.15 -20.6 11.25 L-20.6 11.0 -20.55 10.45 Q-20.55 10.35 -20.7 9.95 L-20.85 9.65 -21.55 9.95 -21.95 10.1 M-20.5 10.95 L-20.55 11.2 -20.5 11.0 -20.5 10.95 M-23.45 9.3 L-23.5 9.2 -23.5 9.15 -23.65 8.8 Q-23.7 8.95 -23.95 9.15 L-23.95 9.2 -24.0 9.25 -24.25 9.45 -24.65 9.8 -24.25 9.85 -23.85 9.85 -23.25 9.8 -23.45 9.3" fill="#111111" fill-rule="evenodd" stroke="none"/>
      <path d="M-1.3 0.8 L-1.1 0.65 Q-0.65 0.45 -0.3 0.3 L0.7 -0.05 1.7 -0.45 1.8 -0.15 -0.1 0.8 Q-0.35 0.9 -0.8 1.0 L-1.15 1.1 -1.3 0.8 M1.85 0.0 L1.9 0.15 1.9 0.2 1.65 0.25 Q1.55 0.25 1.45 0.35 L1.05 0.5 1.85 0.0 M1.85 -0.7 Q1.7 -1.15 1.65 -1.35 L1.85 -1.65 2.5 -1.85 4.05 -2.5 4.7 -2.75 4.95 -2.8 4.95 -2.85 5.05 -2.9 5.2 -2.8 5.4 -2.75 5.45 -2.65 5.6 -2.55 5.65 -2.2 4.95 -1.75 4.1 -1.25 Q3.85 -1.15 3.05 -1.0 L2.1 -0.8 Q2.0 -0.8 1.85 -0.7 M2.85 -0.25 L2.75 -0.2 Q2.95 -0.7 3.5 -0.9 L5.5 -1.55 5.65 -1.6 Q5.55 -1.35 5.35 -1.1 5.15 -0.85 4.75 -0.7 L4.35 -0.55 Q4.0 -0.45 2.85 -0.25 M-1.45 3.7 L-1.5 3.7 Q-1.55 3.45 -1.85 2.9 -2.3 2.15 -2.7 2.0 L-2.7 1.95 -2.75 2.05 Q-3.15 1.35 -3.3 0.75 L-3.3 0.7 -3.25 0.65 Q-3.05 0.25 -3.25 -0.6 -3.35 -1.2 -3.5 -1.4 L-3.3 -1.5 -3.2 -1.5 Q-3.05 -1.0 -2.35 -0.35 L-1.95 -0.05 -1.85 0.0 -1.9 -0.05 -1.9 0.0 -1.8 0.2 Q-1.7 0.5 -1.65 0.85 L-1.65 0.8 -1.75 0.65 Q-2.0 0.2 -2.6 0.4 -2.75 0.45 -2.85 0.6 -3.05 0.85 -2.9 1.25 -2.85 1.4 -2.75 1.5 -2.65 1.6 -2.5 1.65 L-2.1 1.6 -2.05 1.6 Q-1.8 1.5 -1.7 1.25 -1.65 1.15 -1.65 1.05 -1.6 1.25 -1.65 1.5 L-1.75 2.2 Q-1.85 2.75 -1.5 3.55 L-1.45 3.7 M-1.9 0.85 L-2.05 0.85 Q-2.15 0.9 -2.25 1.0 -2.45 1.15 -2.35 1.35 -2.3 1.55 -2.15 1.6 L-2.4 1.6 Q-2.65 1.55 -2.7 1.35 -2.85 1.0 -2.7 0.8 -2.6 0.7 -2.5 0.65 -2.1 0.5 -1.9 0.85 M-14.25 8.65 L-14.3 8.65 Q-14.4 8.1 -15.15 7.5 L-15.5 7.2 -15.5 7.15 -15.65 7.15 -15.7 6.9 -15.9 6.45 -16.1 5.8 -16.2 5.6 -16.2 5.5 Q-16.15 5.3 -16.1 5.0 -16.0 4.05 -16.25 3.6 L-16.2 3.5 -15.95 3.45 Q-15.9 3.7 -15.6 4.2 -15.15 4.95 -14.75 5.1 L-14.75 5.15 -14.65 5.15 -14.6 5.25 -14.6 5.75 Q-14.75 5.4 -15.05 5.35 L-15.4 5.4 Q-16.0 5.6 -15.85 6.1 L-15.8 6.3 Q-15.7 6.55 -15.5 6.6 -15.25 6.7 -15.0 6.6 L-14.95 6.6 Q-14.7 6.5 -14.6 6.35 -14.6 7.7 -14.25 8.65 M-16.2 6.2 L-16.15 6.35 -16.05 6.75 -16.2 6.8 -16.85 6.95 Q-17.2 7.1 -18.0 7.5 -18.5 7.75 -19.0 7.95 L-19.2 7.45 -17.5 6.95 -16.2 6.2 M-16.0 6.95 L-16.0 7.2 Q-16.3 7.25 -16.65 7.4 -17.05 7.5 -17.75 7.8 L-18.4 8.05 Q-18.5 8.1 -18.6 8.2 L-18.8 8.2 Q-18.85 8.25 -18.9 8.25 L-18.9 8.2 -18.95 8.05 -18.8 8.05 -16.0 6.95 M-14.75 5.85 L-15.0 5.9 -15.15 6.0 Q-15.35 6.2 -15.25 6.45 -15.2 6.6 -15.1 6.6 -15.45 6.7 -15.6 6.3 -15.7 5.8 -15.3 5.65 L-15.05 5.6 Q-14.85 5.65 -14.75 5.85 M-19.3 8.75 L-19.4 8.8 -19.3 8.75 M-22.85 9.9 L-22.9 9.9 -22.95 9.8 -23.05 9.7 -23.05 9.65 -22.6 9.4 -22.05 9.05 -21.4 8.75 -20.85 8.5 -20.5 8.4 -20.05 8.25 Q-19.6 8.1 -19.3 8.2 -19.45 8.5 -19.8 8.7 L-22.85 9.9 M-23.4 8.85 L-23.4 8.6 -23.45 8.45 -23.35 8.3 -23.25 8.1 -22.95 8.0 -22.9 8.0 -22.25 7.75 -20.7 7.15 -20.05 6.85 -19.9 6.9 -19.95 7.1 -19.95 7.4 -19.9 7.4 -20.3 7.75 -20.95 8.25 Q-21.5 8.45 -22.65 8.7 L-23.4 8.85" fill="#717d4b" fill-rule="evenodd" stroke="none"/>
      <path d="M1.85 -0.7 Q2.0 -0.8 2.1 -0.8 L3.05 -1.0 Q3.85 -1.15 4.1 -1.25 L4.95 -1.75 5.65 -2.2 5.6 -2.55 5.8 -1.95 5.95 -1.6 5.95 -1.3 5.9 -1.15 5.8 -0.95 5.5 -0.85 5.45 -0.85 4.8 -0.6 3.25 -0.05 2.55 0.25 2.4 0.2 2.2 0.2 2.15 0.0 2.1 -0.1 1.9 -0.65 1.85 -0.7 M2.85 -0.25 Q4.0 -0.45 4.35 -0.55 L4.75 -0.7 Q5.15 -0.85 5.35 -1.1 5.55 -1.35 5.65 -1.6 L5.5 -1.55 3.5 -0.9 Q2.95 -0.7 2.75 -0.2 L2.85 -0.25 M-1.45 3.7 L-1.5 3.55 Q-1.85 2.75 -1.75 2.2 L-1.65 1.5 Q-1.6 1.25 -1.65 1.05 L-1.65 0.85 Q-1.7 0.5 -1.8 0.2 L-1.9 0.0 -1.9 -0.05 -1.85 0.0 -1.75 0.25 -1.5 0.9 -1.35 1.3 -1.25 1.55 -1.25 1.6 -1.3 1.65 -1.25 1.65 -1.35 2.15 Q-1.5 3.1 -1.2 3.55 L-1.3 3.6 -1.45 3.7 M-2.15 1.6 Q-2.3 1.55 -2.35 1.35 -2.45 1.15 -2.25 1.0 -2.15 0.9 -2.05 0.85 L-1.9 0.85 -1.85 0.95 Q-1.6 1.4 -2.1 1.6 L-2.15 1.6 M-14.6 5.25 Q-14.35 5.8 -14.15 6.5 L-14.25 6.45 -14.25 6.5 Q-14.4 6.85 -14.25 7.75 -14.1 8.3 -14.0 8.55 L-14.2 8.65 -14.25 8.65 Q-14.6 7.7 -14.6 6.35 L-14.55 6.25 Q-14.5 6.2 -14.55 6.1 -14.55 5.95 -14.6 5.8 L-14.6 5.75 -14.6 5.25 M-15.1 6.6 Q-15.2 6.6 -15.25 6.45 -15.35 6.2 -15.15 6.0 L-15.0 5.9 -14.75 5.85 -14.75 5.9 -14.7 6.0 Q-14.6 6.2 -14.75 6.35 -14.85 6.55 -14.95 6.6 L-15.1 6.6 M-19.9 6.9 L-19.85 6.9 -19.7 6.95 -19.45 7.6 -19.15 8.3 -19.1 8.45 -19.2 8.6 -19.25 8.7 -19.3 8.75 -19.4 8.8 -20.0 9.0 Q-20.65 9.25 -21.55 9.6 L-22.2 9.9 -22.5 10.05 -22.7 9.95 -22.85 9.9 -19.8 8.7 Q-19.45 8.5 -19.3 8.2 -19.6 8.1 -20.05 8.25 L-20.5 8.4 -20.85 8.5 -21.4 8.75 -22.05 9.05 -22.6 9.4 -23.05 9.65 -23.2 9.3 -23.4 8.85 -22.65 8.7 Q-21.5 8.45 -20.95 8.25 L-20.3 7.75 -19.9 7.4 -19.95 7.4 -19.95 7.1 -19.9 6.9" fill="#a4b385" fill-rule="evenodd" stroke="none"/>
      <path d="M4.1 -8.8 L4.35 -8.9 Q4.5 -8.95 4.55 -9.0 L5.85 -9.7 7.3 -10.5 8.0 -10.8 Q9.05 -11.2 9.9 -11.3 L10.45 -11.5 11.45 -11.7 11.6 -11.75 12.1 -11.85 13.1 -12.0 Q12.6 -11.75 11.7 -11.2 10.8 -10.6 10.45 -10.3 9.5 -9.4 9.2 -9.0 8.8 -8.45 8.7 -7.55 L8.3 -7.7 7.3 -7.6 5.7 -7.4 6.4 -8.05 Q8.05 -9.65 8.35 -10.6 L8.25 -10.7 7.7 -10.55 Q7.4 -10.4 6.1 -9.45 4.95 -8.55 4.8 -8.4 4.35 -7.8 4.15 -7.5 3.75 -6.85 3.75 -6.4 3.75 -6.35 3.85 -6.1 L3.55 -5.85 3.05 -5.25 2.9 -5.0 Q2.8 -4.6 2.6 -4.3 L2.45 -3.9 2.4 -3.9 2.4 -3.85 Q1.7 -3.65 0.95 -3.7 L0.55 -3.75 0.45 -3.8 -0.25 -4.0 Q0.4 -4.1 0.7 -4.2 1.55 -4.55 1.9 -4.95 2.1 -5.2 2.3 -5.85 2.95 -6.2 3.3 -6.6 4.1 -7.4 4.05 -8.75 L4.1 -8.8 M16.7 -11.65 L16.75 -11.65 16.8 -11.6 16.9 -11.6 Q18.0 -11.3 18.55 -11.05 L18.8 -10.95 19.1 -10.85 19.6 -10.55 19.55 -10.55 Q18.05 -10.65 16.95 -10.25 16.3 -10.0 15.65 -9.45 14.85 -8.8 14.9 -8.25 L14.85 -8.25 13.2 -8.35 12.5 -8.25 11.7 -8.1 11.95 -8.25 13.95 -9.3 Q16.9 -10.9 16.65 -11.6 L16.55 -11.7 16.7 -11.65 M21.05 -9.3 L22.2 -8.0 22.25 -8.0 21.65 -7.95 21.6 -7.9 21.6 -7.95 21.05 -7.85 Q20.75 -7.75 20.3 -7.6 19.9 -7.55 19.25 -7.3 19.15 -7.4 19.05 -7.35 L18.6 -7.15 18.3 -7.25 18.25 -7.25 17.6 -7.55 17.35 -7.65 17.2 -7.7 Q19.0 -7.85 20.3 -8.35 20.75 -8.5 21.05 -9.3 M-1.7 -6.1 Q-1.95 -5.9 -2.0 -5.65 L-2.25 -6.15 -2.25 -6.2 Q-2.3 -6.4 -2.3 -6.95 L-2.05 -6.55 -2.0 -6.45 -1.9 -6.3 -1.7 -6.1 M-20.05 3.5 L-20.1 3.5 -20.15 3.55 -20.2 3.65 -20.2 3.75 -20.45 4.15 -20.7 4.5 Q-19.85 3.2 -20.2 2.3 -20.4 1.8 -20.65 1.7 -20.5 1.2 -20.65 0.7 L-20.7 0.2 Q-20.35 0.65 -20.25 0.8 -19.8 1.95 -19.85 2.55 L-19.9 2.7 Q-20.0 3.0 -20.0 3.2 L-19.95 3.1 -20.0 3.35 -20.05 3.5 M-21.55 5.35 L-21.65 5.4 Q-21.85 5.55 -22.1 5.65 L-22.25 5.75 -22.55 5.8 -22.55 5.85 Q-23.1 6.05 -23.75 6.0 -24.2 6.0 -24.7 5.85 L-24.95 5.75 -24.65 5.7 Q-24.45 5.6 -24.05 5.25 -23.5 4.8 -23.6 4.5 -23.7 4.25 -24.15 4.3 -24.4 4.35 -24.6 4.45 -25.1 4.6 -25.4 5.25 L-25.5 5.6 -25.9 5.4 -25.8 5.45 Q-25.9 5.25 -26.3 5.05 L-26.35 5.05 -26.35 5.0 -26.4 4.95 -26.1 4.95 Q-25.6 4.75 -25.5 4.15 L-25.1 4.25 -24.3 4.3 -24.25 4.3 -24.0 4.25 Q-23.6 4.2 -23.2 4.05 L-23.0 4.0 -22.8 3.9 Q-22.45 3.75 -22.1 3.5 L-21.9 3.35 -21.85 3.35 -21.85 3.3 Q-22.45 4.5 -22.35 4.8 -22.2 5.25 -21.55 5.35" fill="#e0e4e3" fill-rule="evenodd" stroke="none"/>
      <path d="M6.45 -7.35 L7.15 -7.45 7.35 -7.45 8.6 -7.4 8.8 -7.35 Q9.0 -7.3 9.4 -7.1 L9.85 -6.85 9.45 -6.85 Q8.85 -6.85 8.35 -6.7 L8.2 -6.6 Q7.6 -6.15 7.65 -5.85 L7.0 -5.8 6.85 -5.8 6.85 -5.85 6.7 -5.75 6.55 -5.7 5.8 -5.25 5.6 -5.15 5.1 -4.6 4.9 -4.35 4.9 -4.3 4.8 -4.05 Q4.7 -4.0 4.55 -3.85 4.35 -3.75 4.25 -3.7 4.05 -3.65 3.75 -3.3 3.35 -2.85 3.45 -2.55 L3.15 -2.45 2.4 -2.15 2.3 -2.1 2.05 -2.05 1.9 -1.95 1.7 -1.9 1.65 -1.9 Q1.5 -1.95 1.35 -2.3 1.5 -2.35 1.65 -2.55 L1.65 -2.6 1.8 -2.7 1.9 -2.75 2.15 -3.05 2.65 -3.7 2.7 -3.7 2.7 -3.8 2.75 -3.85 2.95 -4.35 Q3.15 -4.15 3.5 -4.25 L3.85 -4.55 4.7 -5.2 Q5.2 -5.55 5.5 -5.9 L5.85 -6.25 Q6.15 -6.55 6.25 -6.65 6.45 -7.0 6.45 -7.35 M10.7 -6.35 Q11.7 -5.9 12.7 -5.75 L12.55 -5.75 11.75 -5.65 Q11.35 -5.5 11.0 -4.8 L11.0 -4.75 11.2 -4.7 Q11.4 -4.6 11.6 -4.55 L12.05 -4.6 12.5 -4.75 Q12.55 -4.75 12.9 -5.1 L13.15 -5.3 13.15 -5.35 13.2 -5.5 13.05 -5.7 13.0 -5.75 13.9 -5.7 14.0 -5.75 13.6 -5.45 Q13.5 -5.4 13.3 -5.25 L13.1 -5.05 12.6 -4.65 Q12.6 -4.6 12.65 -4.45 13.0 -4.5 13.45 -4.6 L14.5 -5.0 Q15.2 -5.25 15.6 -5.35 L16.2 -5.5 13.55 -4.5 12.85 -4.4 Q12.0 -4.25 11.45 -4.4 11.1 -4.5 9.8 -5.2 L9.75 -5.25 9.65 -5.3 9.8 -5.25 10.0 -5.3 Q10.25 -5.4 10.5 -5.85 10.7 -6.1 10.7 -6.35 M18.65 -6.9 L19.1 -7.0 19.3 -6.65 19.15 -6.55 18.9 -6.5 Q18.8 -6.4 18.4 -6.25 L18.0 -6.15 17.95 -6.1 18.45 -6.7 18.65 -6.9 M6.0 -2.15 L6.7 -2.45 7.15 -2.6 7.25 -2.6 6.95 -2.25 6.85 -2.15 6.6 -1.95 Q6.5 -1.9 6.3 -1.6 L6.25 -1.55 6.2 -1.6 6.2 -1.65 6.0 -2.15 M8.85 1.65 L8.9 1.6 Q8.4 2.0 7.95 2.15 L7.85 2.2 7.55 2.3 Q7.0 2.55 6.3 2.5 L5.95 2.55 5.75 2.5 5.55 2.55 Q5.3 2.55 4.85 2.4 4.4 2.25 4.2 2.05 L3.6 1.4 3.25 0.95 3.05 0.7 3.0 0.65 2.9 0.45 3.35 0.25 Q3.5 0.2 3.9 0.05 4.3 0.65 4.6 0.9 L4.6 0.95 4.75 1.2 Q4.9 1.4 5.15 1.45 6.15 1.95 7.1 1.95 7.95 2.0 8.85 1.65 M-20.7 6.85 Q-21.75 6.7 -22.15 6.1 L-22.1 6.0 -21.35 6.1 -21.0 6.15 -20.75 6.15 -20.25 6.2 Q-20.15 6.5 -20.2 6.6 L-20.2 6.65 -20.25 6.65 -20.7 6.85 M-19.5 9.15 L-19.45 9.3 -19.45 9.7 -19.35 10.3 Q-19.35 10.8 -19.4 11.15 -19.4 11.45 -19.65 11.85 -19.85 12.25 -20.05 12.4 L-20.25 12.55 -20.35 12.7 -20.6 12.9 Q-21.1 13.4 -21.65 13.6 L-22.1 13.75 Q-22.5 13.95 -23.15 14.0 L-23.1 13.95 Q-22.2 13.6 -21.55 13.05 -21.1 12.55 -20.75 11.95 L-20.7 11.95 Q-20.65 11.9 -20.5 11.45 L-20.45 11.3 Q-20.3 10.85 -20.3 10.7 -20.3 10.6 -20.35 10.45 L-20.45 10.15 -20.5 9.55 -19.9 9.3 -19.5 9.15 M-20.5 10.95 L-20.5 11.0 -20.55 11.2 -20.5 10.95 M-24.65 9.8 L-24.5 9.85 -23.9 9.55 -23.45 9.3 -23.25 9.8 -23.85 9.85 -24.25 9.85 -24.65 9.8" fill="#646464" fill-rule="evenodd" stroke="none"/>
      <path d="M4.1 -8.8 L4.05 -8.75 4.05 -8.8 4.1 -8.8 M2.3 -5.85 Q2.1 -5.2 1.9 -4.95 1.55 -4.55 0.7 -4.2 0.4 -4.1 -0.25 -4.0 -0.4 -4.05 -0.5 -4.15 -1.3 -4.4 -1.35 -4.45 L-1.35 -4.5 Q-1.1 -4.3 -0.85 -4.25 -0.95 -4.45 -1.35 -4.65 -1.7 -4.95 -2.0 -5.65 -1.95 -5.9 -1.7 -6.1 -1.2 -5.6 -0.15 -5.45 L0.65 -5.4 0.7 -5.4 0.9 -5.45 Q1.35 -5.5 1.75 -5.65 L2.0 -5.75 2.3 -5.85 M3.85 -6.1 Q3.75 -6.35 3.75 -6.4 3.75 -6.85 4.15 -7.5 4.35 -7.8 4.8 -8.4 4.95 -8.55 6.1 -9.45 7.4 -10.4 7.7 -10.55 L8.25 -10.7 8.35 -10.6 Q8.05 -9.65 6.4 -8.05 L5.7 -7.4 5.55 -7.35 Q5.4 -7.3 4.6 -6.7 L3.85 -6.1 M8.7 -7.55 Q8.8 -8.45 9.2 -9.0 9.5 -9.4 10.45 -10.3 10.8 -10.6 11.7 -11.2 12.6 -11.75 13.1 -12.0 L14.05 -12.0 Q15.7 -11.95 16.7 -11.65 L16.55 -11.7 16.65 -11.6 Q16.9 -10.9 13.95 -9.3 L11.95 -8.25 11.7 -8.1 11.5 -8.1 11.2 -8.0 10.45 -7.8 10.25 -7.75 9.65 -7.45 9.35 -7.4 9.1 -7.45 8.7 -7.55 M19.6 -10.55 Q19.95 -10.3 20.3 -10.0 L21.05 -9.3 Q20.75 -8.5 20.3 -8.35 19.0 -7.85 17.2 -7.7 L17.0 -7.8 Q16.4 -8.05 14.9 -8.25 14.85 -8.8 15.65 -9.45 16.3 -10.0 16.95 -10.25 18.05 -10.65 19.55 -10.55 L19.6 -10.55 M12.0 -6.2 Q12.0 -6.4 12.0 -6.45 12.25 -6.45 12.4 -6.1 L12.05 -6.2 12.0 -6.2 M13.4 -6.0 L14.45 -6.65 13.05 -7.6 Q13.75 -7.35 14.7 -6.8 L15.6 -7.35 15.6 -7.3 14.9 -6.7 15.9 -6.2 15.85 -6.2 15.4 -6.1 Q15.05 -6.3 14.65 -6.55 L14.0 -6.0 13.85 -6.0 13.4 -6.0 M11.15 -7.45 Q11.2 -7.5 11.3 -7.55 L11.5 -7.55 11.7 -7.2 11.7 -7.15 11.6 -7.1 Q11.55 -7.1 11.4 -7.15 11.25 -7.25 11.15 -7.3 L11.15 -7.45 M1.6 -2.85 L1.4 -2.7 1.2 -2.6 1.2 -2.55 1.15 -2.55 Q0.85 -2.85 0.7 -3.15 L0.65 -3.15 0.75 -3.2 1.6 -2.85 M-0.75 -3.55 Q-0.65 -3.5 -0.85 -3.45 -0.95 -3.4 -1.05 -3.5 L-1.15 -3.6 Q-1.2 -3.75 -1.15 -3.75 L-1.15 -3.8 -1.05 -3.85 Q-0.95 -3.85 -0.9 -3.8 -0.8 -3.7 -0.75 -3.55 M-20.7 4.5 L-21.05 4.95 -21.2 5.1 -21.55 5.35 Q-22.2 5.25 -22.35 4.8 -22.45 4.5 -21.85 3.3 L-21.3 2.75 Q-20.85 2.25 -20.65 1.7 -20.4 1.8 -20.2 2.3 -19.85 3.2 -20.7 4.5 M-25.35 5.65 Q-25.4 5.6 -25.45 5.6 L-25.5 5.6 -25.4 5.25 Q-25.1 4.6 -24.6 4.45 -24.4 4.35 -24.15 4.3 -23.7 4.25 -23.6 4.5 -23.5 4.8 -24.05 5.25 -24.45 5.6 -24.65 5.7 L-24.95 5.75 -25.0 5.75 -25.35 5.65 M-25.2 7.0 L-25.3 7.0 -25.3 6.95 Q-25.5 6.9 -25.75 6.75 -25.6 6.4 -25.45 6.3 -25.3 6.4 -25.2 7.0 M-26.4 4.95 Q-26.8 4.55 -27.2 3.5 -27.25 3.3 -27.25 2.75 L-27.0 3.15 Q-26.55 3.95 -25.5 4.15 -25.6 4.75 -26.1 4.95 L-26.4 4.95 M-20.5 4.4 L-20.4 4.25 Q-20.05 4.35 -19.95 4.45 L-20.5 4.4 M-24.05 6.6 L-24.15 6.75 -24.25 6.75 -24.35 6.65 -24.35 6.5 Q-24.35 6.45 -24.35 6.35 L-24.25 6.25 -24.15 6.25 -24.05 6.6" fill="#c1c8c6" fill-rule="evenodd" stroke="none"/>
      <path d="M-0.25 -4.0 L0.45 -3.8 0.55 -3.75 Q0.0 -3.85 -0.55 -4.1 L-0.6 -4.1 Q1.1 -3.3 2.25 -3.6 L2.2 -3.5 Q1.95 -3.15 1.6 -2.85 L0.75 -3.2 0.65 -3.15 0.7 -3.15 Q0.85 -2.85 1.15 -2.55 L0.95 -2.45 1.0 -2.3 0.9 -2.3 -0.35 -2.75 Q-0.75 -2.9 -1.2 -3.3 -2.05 -4.05 -2.5 -5.2 -2.6 -5.5 -2.6 -6.25 L-2.55 -6.75 -2.5 -6.9 -2.5 -7.05 -2.45 -6.7 Q-2.45 -6.2 -2.45 -6.1 -2.05 -5.15 -1.5 -4.65 L-1.35 -4.5 -1.35 -4.45 Q-1.3 -4.4 -0.5 -4.15 -0.4 -4.05 -0.25 -4.0 M12.0 -6.2 L11.9 -6.25 Q11.5 -6.35 10.95 -6.6 10.6 -6.7 10.25 -6.9 L9.65 -7.15 10.1 -7.3 10.3 -7.4 10.45 -7.45 11.85 -8.0 Q12.1 -8.1 13.2 -8.15 L14.4 -8.2 15.8 -8.05 Q16.45 -7.9 17.1 -7.65 L17.75 -7.3 17.8 -7.3 18.0 -7.05 18.15 -6.95 17.1 -6.5 Q16.6 -6.3 15.9 -6.2 L14.9 -6.7 15.6 -7.3 15.6 -7.35 14.7 -6.8 Q13.75 -7.35 13.05 -7.6 L14.45 -6.65 13.4 -6.0 12.4 -6.1 Q12.25 -6.45 12.0 -6.45 12.0 -6.4 12.0 -6.2 M15.4 -6.1 L14.5 -6.0 13.85 -6.0 14.0 -6.0 14.65 -6.55 Q15.05 -6.3 15.4 -6.1 M11.15 -7.45 L11.15 -7.3 Q11.25 -7.25 11.4 -7.15 11.55 -7.1 11.6 -7.1 L11.7 -7.15 11.7 -7.2 11.5 -7.55 11.3 -7.55 Q11.2 -7.5 11.15 -7.45 M-0.75 -3.55 Q-0.8 -3.7 -0.9 -3.8 -0.95 -3.85 -1.05 -3.85 L-1.15 -3.8 -1.15 -3.75 Q-1.2 -3.75 -1.15 -3.6 L-1.05 -3.5 Q-0.95 -3.4 -0.85 -3.45 -0.65 -3.5 -0.75 -3.55 M-19.95 3.1 L-19.9 3.1 Q-19.8 2.85 -19.75 2.45 -19.7 1.75 -20.05 0.75 -20.1 0.65 -20.45 0.25 L-20.65 0.0 -20.55 0.1 -20.4 0.2 -20.0 0.55 Q-19.5 1.05 -19.4 1.35 -18.95 2.5 -19.05 3.65 -19.1 4.25 -19.3 4.65 L-19.9 5.75 -20.05 5.8 -20.1 5.75 -20.2 5.75 -20.3 5.8 -20.35 5.8 Q-21.0 5.95 -21.7 5.8 L-21.8 5.8 Q-20.8 5.2 -20.05 3.5 L-20.0 3.35 -19.95 3.1 M-24.7 5.85 L-25.35 5.65 -25.0 5.75 -24.95 5.75 -24.7 5.85 M-25.5 5.6 L-25.55 5.6 Q-23.85 6.4 -22.65 6.1 L-22.75 6.25 Q-23.15 6.8 -23.75 7.1 L-23.75 7.15 -23.9 7.2 -24.0 7.25 -23.95 7.25 -23.95 7.4 -24.05 7.4 Q-24.4 7.25 -25.2 7.0 -25.3 6.4 -25.45 6.3 -25.6 6.4 -25.75 6.75 L-26.15 6.4 Q-27.0 5.65 -27.45 4.5 -27.55 4.2 -27.55 3.45 L-27.5 2.95 -27.4 2.65 -27.4 3.0 Q-27.4 3.5 -27.35 3.6 -27.0 4.55 -26.45 5.05 -26.15 5.3 -25.9 5.4 L-25.5 5.6 M-20.5 4.4 L-19.95 4.45 Q-20.05 4.35 -20.4 4.25 L-20.5 4.4 M-24.05 6.6 L-24.15 6.25 -24.25 6.25 -24.35 6.35 Q-24.35 6.45 -24.35 6.5 L-24.35 6.65 -24.25 6.75 -24.15 6.75 -24.05 6.6" fill="#87928e" fill-rule="evenodd" stroke="none"/>
      <path d="M6.45 -7.35 Q6.45 -7.0 6.25 -6.65 6.15 -6.55 5.85 -6.25 L5.5 -5.9 Q5.2 -5.55 4.7 -5.2 L3.85 -4.55 3.5 -4.25 Q3.15 -4.15 2.95 -4.35 L3.0 -4.5 Q3.05 -4.7 3.2 -4.9 L3.2 -5.0 Q3.45 -5.5 4.2 -6.1 L4.25 -6.15 Q4.9 -6.8 5.65 -7.1 6.05 -7.25 6.45 -7.35 M3.45 -2.55 Q3.35 -2.85 3.75 -3.3 4.05 -3.65 4.25 -3.7 4.35 -3.75 4.55 -3.85 4.7 -4.0 4.8 -4.05 L4.75 -3.75 4.5 -2.95 4.1 -2.8 4.05 -2.8 3.45 -2.55 M6.7 -5.75 L6.85 -5.85 6.85 -5.8 6.75 -5.75 6.7 -5.75 M7.65 -5.85 Q7.6 -6.15 8.2 -6.6 L8.35 -6.7 Q8.85 -6.85 9.45 -6.85 L9.85 -6.85 Q10.25 -6.55 10.7 -6.35 10.7 -6.1 10.5 -5.85 10.25 -5.4 10.0 -5.3 L9.8 -5.25 9.65 -5.3 Q9.1 -5.6 8.75 -5.7 L8.45 -5.75 8.0 -5.8 7.65 -5.85 M12.7 -5.75 L13.0 -5.75 13.05 -5.7 13.2 -5.5 13.15 -5.35 13.15 -5.3 12.9 -5.1 Q12.55 -4.75 12.5 -4.75 L12.05 -4.6 11.6 -4.55 Q11.4 -4.6 11.2 -4.7 L11.0 -4.75 11.0 -4.8 Q11.35 -5.5 11.75 -5.65 L12.55 -5.75 12.7 -5.75 M14.0 -5.75 L14.35 -5.75 Q15.3 -5.9 16.8 -6.35 L18.65 -6.9 18.45 -6.7 17.95 -6.1 17.85 -6.1 17.1 -5.8 16.65 -5.7 16.2 -5.5 15.6 -5.35 Q15.2 -5.25 14.5 -5.0 L13.45 -4.6 Q13.0 -4.5 12.65 -4.45 12.6 -4.6 12.6 -4.65 L13.1 -5.05 13.3 -5.25 Q13.5 -5.4 13.6 -5.45 L14.0 -5.75 M5.35 -0.5 Q5.45 -0.3 5.55 -0.1 6.25 1.3 7.75 1.45 8.45 1.5 9.25 1.25 L8.8 1.5 Q8.0 1.8 7.05 1.8 6.1 1.8 5.4 1.45 L5.05 1.15 5.0 1.15 4.6 0.75 Q4.55 0.7 4.35 0.25 L4.2 -0.1 5.05 -0.4 5.35 -0.5 M6.0 -2.15 L5.95 -2.3 5.75 -2.75 7.1 -2.6 7.15 -2.6 6.7 -2.45 6.0 -2.15 M-5.6 1.6 L-5.25 1.6 Q-4.45 2.3 -4.4 2.45 L-4.35 2.5 -4.4 2.5 Q-4.45 2.55 -4.8 2.75 L-5.2 3.0 -5.6 3.1 -5.7 3.1 Q-5.75 3.0 -5.95 2.8 L-6.75 2.1 -6.8 2.1 -6.7 2.0 Q-6.25 1.75 -6.0 1.65 L-5.6 1.6 M-3.6 0.8 L-3.55 0.85 -3.45 0.85 Q-3.35 0.95 -3.3 1.1 L-3.05 1.7 Q-2.95 1.9 -2.9 2.15 L-2.95 2.2 -3.05 2.25 -3.15 2.35 -3.55 2.55 Q-3.65 2.6 -3.95 2.55 L-4.1 2.5 -4.4 2.2 Q-4.85 1.9 -4.95 1.7 L-4.95 1.4 -4.8 1.3 -4.25 0.9 Q-4.05 0.85 -3.75 0.8 L-3.6 0.8 M-7.35 2.4 L-7.05 2.25 -7.05 2.45 -6.9 2.65 -6.8 2.8 Q-6.85 2.55 -6.8 2.35 L-6.8 2.3 -6.75 2.4 -6.7 2.35 Q-6.5 2.3 -6.35 2.5 L-5.9 3.15 -5.9 3.2 -6.0 3.25 Q-6.1 3.25 -6.15 3.25 L-6.55 3.35 -6.55 3.3 -6.7 3.05 -6.8 3.1 -6.75 3.4 -6.85 3.45 -7.45 3.65 -7.7 2.7 Q-7.7 2.55 -7.6 2.45 L-7.35 2.4 M-11.2 4.8 L-10.85 5.1 -10.8 5.15 -11.3 5.35 -11.8 5.45 -12.1 5.45 -12.45 5.35 Q-13.1 5.1 -13.25 4.65 L-13.2 4.55 -12.9 4.35 -12.5 4.3 -12.1 4.2 -12.05 4.2 Q-11.85 4.2 -11.2 4.8 M-7.75 2.5 L-7.8 2.7 Q-7.9 3.15 -7.7 3.75 L-8.5 3.95 Q-8.55 4.0 -8.75 4.15 L-8.75 4.05 -8.9 4.05 -9.0 4.15 Q-9.1 4.15 -9.3 4.05 L-9.55 3.95 -9.55 4.1 Q-9.5 4.1 -9.2 4.3 L-9.25 4.35 -9.75 4.65 -10.75 4.8 -10.85 4.85 -10.95 4.8 Q-11.5 4.65 -11.7 4.25 L-11.7 4.05 -11.8 4.0 -11.75 3.95 Q-11.55 3.75 -11.4 3.7 -11.05 3.55 -10.55 3.5 L-10.05 3.45 -10.0 3.4 -9.95 3.65 Q-9.9 3.75 -9.8 3.75 L-9.7 3.7 -9.7 3.6 Q-9.85 3.3 -9.75 3.2 L-9.65 3.15 -9.6 3.1 Q-9.45 2.95 -9.2 2.9 -8.75 2.7 -8.1 2.55 L-7.75 2.5 M-14.4 5.25 Q-14.25 5.05 -13.9 4.9 L-13.75 4.85 -13.5 4.7 -13.5 4.75 Q-13.05 5.2 -12.6 5.45 L-12.35 5.55 -12.6 5.8 Q-12.9 6.05 -13.0 6.1 L-13.45 6.1 Q-13.8 6.1 -13.9 6.1 L-14.05 6.2 -14.1 6.25 -14.2 6.05 -14.4 5.45 -14.45 5.35 -14.4 5.35 -14.45 5.25 -14.4 5.25 M-22.1 6.0 L-22.15 6.1 Q-21.75 6.7 -20.7 6.85 L-20.8 6.85 -22.5 7.5 Q-23.05 7.75 -23.3 7.9 L-23.35 7.95 -23.35 7.9 -23.2 7.8 -23.3 7.8 Q-23.4 7.8 -23.5 7.55 L-23.3 7.25 -23.35 7.2 -23.3 7.15 -23.3 7.1 -23.1 7.0 -23.05 6.95 -22.8 6.65 -22.3 6.0 -22.25 5.95 -22.2 5.95 -22.1 6.0 M-20.25 6.2 L-20.75 6.15 -20.7 6.1 -20.65 6.15 Q-20.4 6.15 -20.3 6.15 L-20.25 6.2 M-21.95 10.1 L-21.55 9.95 -20.85 9.65 -20.7 9.95 Q-20.55 10.35 -20.55 10.45 L-20.6 11.0 -20.6 11.25 Q-20.8 12.15 -21.65 12.9 -22.35 13.55 -23.15 13.85 L-23.65 14.0 Q-22.9 13.6 -22.4 13.1 -21.4 11.95 -21.8 10.45 L-21.95 10.1 M-24.65 9.8 L-24.25 9.45 -24.0 9.25 -23.95 9.2 -23.95 9.15 Q-23.7 8.95 -23.65 8.8 L-23.5 9.15 -23.5 9.2 -23.45 9.3 -23.9 9.55 -24.5 9.85 -24.65 9.8" fill="#333333" fill-rule="evenodd" stroke="none"/>
      <path d="M-1.3 0.8 L-1.4 0.65 Q-1.5 0.35 -1.5 0.15 L-1.5 0.0 -1.3 -0.1 -0.9 -0.15 -0.05 -0.5 1.05 -1.0 1.35 -1.1 1.45 -1.1 1.55 -0.85 1.7 -0.45 0.7 -0.05 -0.3 0.3 Q-0.65 0.45 -1.1 0.65 L-1.3 0.8 M1.8 -0.15 L1.85 0.0 1.05 0.5 0.8 0.6 Q0.05 0.85 -0.3 1.05 -0.65 1.2 -0.9 1.35 L-0.95 1.35 -1.05 1.2 -1.15 1.1 -0.8 1.0 Q-0.35 0.9 -0.1 0.8 L1.8 -0.15 M-19.2 7.45 L-19.3 7.25 -19.4 7.0 -19.35 7.0 -19.15 6.9 -19.1 6.85 -18.95 6.8 -17.9 6.4 -17.05 6.1 -16.7 5.9 -16.5 5.8 -16.4 5.95 Q-16.3 6.05 -16.2 6.2 L-17.5 6.95 -19.2 7.45 M-16.05 6.75 L-16.0 6.95 -18.8 8.05 -18.95 8.05 -19.0 7.95 Q-18.5 7.75 -18.0 7.5 -17.2 7.1 -16.85 6.95 L-16.2 6.8 -16.05 6.75" fill="#474f35" fill-rule="evenodd" stroke="none"/>
    </g>
  </defs>
</svg>
