<?xml version="1.0" encoding="UTF-8" standalone="no"?>
<svg xmlns:ffdec="https://www.free-decompiler.com/flash" xmlns:xlink="http://www.w3.org/1999/xlink" ffdec:objectType="frame" height="526.05px" width="572.4px" xmlns="http://www.w3.org/2000/svg">
  <g transform="matrix(1.0, 0.0, 0.0, 1.0, 259.95, 395.85)">
    <use ffdec:characterId="1476" height="17.95" transform="matrix(7.0, 0.0, 0.0, 7.0, -21.15, -210.35)" width="17.3" xlink:href="#shape0"/>
    <use ffdec:characterId="1476" height="17.95" transform="matrix(7.0, 0.0, 0.0, 7.0, -21.15, -210.35)" width="17.3" xlink:href="#shape0"/>
  </g>
  <defs>
    <g id="shape0" transform="matrix(1.0, 0.0, 0.0, 1.0, 13.3, -5.35)">
      <path d="M0.6 12.15 Q0.9 12.2 1.05 12.7 1.1 13.0 1.1 13.3 L1.05 13.85 Q1.0 14.15 0.75 14.45 L0.25 15.05 Q0.0 15.4 0.0 15.6 0.0 15.8 -0.1 16.15 L-0.3 16.75 Q-0.35 17.0 -0.7 17.3 -1.05 17.65 -1.65 17.75 L-1.8 17.8 Q-1.9 18.05 -2.3 18.35 -2.85 18.75 -3.4 18.75 -3.85 18.75 -4.2 18.6 -4.45 18.5 -4.55 18.35 L-5.2 18.15 -5.75 18.0 -5.4 17.65 Q-4.9 17.65 -4.35 17.95 -3.85 18.25 -3.35 18.25 -2.7 18.25 -2.35 17.8 -1.95 17.25 -1.35 17.15 L0.45 13.65 0.15 13.95 -0.1 13.85 Q-0.1 13.65 0.0 13.45 L-1.7 10.8 Q-2.05 10.1 -2.05 9.95 L-3.8 7.9 -5.55 7.95 -6.4 8.35 -6.55 9.45 -6.75 9.6 -8.7 10.3 -8.7 11.95 -8.75 12.75 -9.05 13.5 Q-9.3 13.95 -9.6 13.95 L-9.8 15.0 -9.0 16.45 -8.95 15.8 Q-8.95 15.6 -8.8 15.2 L-8.7 14.75 -7.8 13.05 -7.2 12.65 -6.75 12.85 -5.6 12.0 -5.0 11.8 -3.7 12.85 -3.8 13.85 -4.05 15.15 -4.3 15.9 Q-4.7 16.55 -5.3 16.55 L-5.85 16.5 -6.3 16.65 Q-6.3 16.4 -6.15 16.2 -6.05 16.1 -5.85 16.05 L-5.8 16.0 -5.45 16.0 -5.3 16.05 -5.0 16.0 -4.6 15.65 Q-4.45 15.5 -4.45 15.35 -4.45 15.05 -4.7 14.9 -4.9 14.75 -4.9 14.45 -4.9 14.3 -4.9 14.25 -4.8 14.15 -4.45 13.95 L-4.3 13.6 Q-4.2 13.3 -4.2 13.2 -4.2 13.05 -4.55 12.7 L-5.0 12.25 -5.2 12.3 Q-5.2 12.55 -5.55 13.0 -5.95 13.45 -6.4 13.45 L-6.55 13.45 -6.8 13.5 Q-7.05 13.45 -7.1 13.3 -7.15 13.1 -7.2 13.05 L-7.5 13.35 -7.75 13.65 Q-7.7 13.7 -7.5 14.1 -7.3 14.5 -7.3 14.55 -7.3 14.75 -7.45 14.85 -7.65 14.95 -8.5 15.0 L-8.55 15.2 -8.6 15.25 -8.55 15.35 -8.5 15.65 -8.1 15.75 Q-7.95 15.8 -7.95 15.95 -7.95 16.05 -8.05 16.15 L-8.1 16.35 -8.0 16.65 Q-8.0 16.75 -8.1 16.9 L-8.15 17.0 -8.15 17.45 -8.1 17.9 Q-8.1 18.1 -7.9 18.35 -7.75 18.6 -7.75 18.65 L-7.8 18.75 Q-7.9 18.9 -8.0 18.95 -8.55 18.8 -8.9 18.6 -9.05 18.85 -9.3 18.95 -9.25 19.05 -9.3 19.1 -9.05 19.05 -8.75 19.15 -8.5 19.25 -8.5 19.4 -8.5 19.65 -8.85 20.05 -9.2 20.45 -9.3 20.45 -9.6 20.45 -9.85 20.3 -10.1 20.15 -10.1 20.05 L-10.0 19.8 -9.8 19.95 -9.35 20.05 Q-9.2 20.05 -9.05 19.85 L-8.85 19.55 -8.8 19.55 -9.05 19.5 -10.0 19.05 -10.25 18.45 -10.45 17.55 -11.2 18.2 -11.35 18.2 -11.4 18.15 -11.0 17.6 -10.65 17.15 Q-9.9 17.3 -9.7 17.55 -9.65 17.65 -9.65 17.9 L-9.4 17.6 -9.2 17.6 Q-9.25 17.6 -9.3 17.1 L-9.45 16.4 -9.7 16.7 -9.9 16.8 Q-10.2 16.8 -10.4 16.35 L-10.55 16.0 -10.6 15.95 -10.6 15.65 Q-10.6 15.5 -10.45 15.2 L-10.3 14.9 Q-10.3 14.75 -10.4 14.6 -10.5 14.5 -10.5 14.35 L-10.45 14.05 -10.45 13.65 Q-10.4 13.2 -10.3 13.25 -9.95 13.4 -9.6 13.4 -9.5 13.4 -9.4 13.15 L-9.2 12.85 -9.35 12.8 -9.7 12.75 -9.9 12.6 Q-9.9 12.4 -9.4 12.1 -8.9 11.8 -9.0 11.4 L-9.0 11.35 -9.25 11.5 Q-9.4 11.55 -9.5 11.55 -9.75 11.55 -9.8 11.4 L-9.85 11.15 Q-9.85 11.0 -9.75 10.85 -9.55 10.65 -9.35 10.7 -9.4 10.5 -9.3 10.25 -9.15 9.95 -8.9 9.75 -8.15 9.1 -8.05 9.1 L-6.9 9.1 -6.85 9.0 Q-6.8 8.9 -6.8 8.8 -6.8 8.75 -6.95 8.5 -7.1 8.3 -7.1 8.1 L-7.1 7.95 Q-7.05 7.9 -6.9 7.85 L-5.9 7.85 -5.8 7.7 Q-5.7 7.4 -5.7 7.25 -5.7 7.1 -5.9 6.95 -6.15 6.85 -6.5 6.85 -6.65 6.85 -6.9 6.95 L-7.9 7.0 -8.0 7.1 -8.2 7.1 Q-8.5 7.1 -8.55 6.9 L-8.55 6.65 Q-8.55 6.3 -8.25 5.95 -7.85 5.45 -7.1 5.4 -6.1 5.3 -5.85 5.85 -5.7 6.1 -5.6 6.15 -5.4 6.3 -4.9 6.25 -4.7 6.35 -4.6 6.45 L-4.45 6.7 -4.25 6.85 -4.15 6.95 Q-4.1 6.85 -4.0 6.85 -3.75 6.8 -3.55 7.05 -3.45 7.2 -3.4 7.35 L-3.35 7.65 Q-3.2 8.15 -2.7 8.4 L-1.85 8.8 Q-1.5 9.05 -1.35 9.4 L-1.05 10.05 -0.8 10.25 Q-0.65 10.3 -0.6 10.55 -0.45 11.0 -0.45 11.15 -0.45 11.3 -0.55 11.55 L-0.7 11.8 Q-0.65 11.95 -0.55 12.05 L-0.3 12.25 Q-0.15 12.35 -0.05 12.45 L0.1 12.5 0.2 12.4 0.25 12.25 Q0.25 12.15 0.0 11.95 -0.2 11.75 -0.35 11.65 L-0.25 11.6 0.35 11.95 Q0.55 12.0 0.6 12.15 M0.25 12.65 L0.3 12.75 0.3 12.65 0.25 12.65 M3.85 13.15 L3.9 13.15 4.0 13.25 Q4.0 13.3 3.9 13.35 L3.85 13.3 Q3.8 13.3 3.75 13.25 3.75 13.15 3.85 13.15 M-7.75 6.2 L-8.0 6.45 -6.85 6.4 -6.15 6.35 -6.25 6.15 Q-6.3 6.0 -6.4 5.95 L-6.95 5.85 -7.55 5.9 -7.75 6.2 M-7.75 7.8 Q-7.75 7.55 -7.45 7.55 -7.15 7.5 -7.15 7.85 -7.15 8.1 -7.4 8.1 -7.65 8.1 -7.7 7.95 L-7.75 7.8 M-7.9 7.65 L-8.0 7.65 -8.0 7.5 Q-7.9 7.5 -7.85 7.55 L-7.9 7.65 M-10.75 9.85 L-11.2 9.75 -11.7 9.6 Q-11.95 9.6 -12.1 9.8 L-11.9 10.0 -10.75 9.85 M-10.25 10.45 Q-10.3 10.5 -10.4 10.5 L-11.95 10.5 Q-12.45 10.25 -12.55 10.15 L-12.55 9.8 Q-12.55 9.45 -12.2 9.15 -11.75 8.85 -11.15 9.45 -10.7 9.45 -10.4 9.75 -10.15 10.05 -10.15 10.25 -10.15 10.35 -10.25 10.45 M-8.95 9.2 Q-8.95 9.25 -8.95 9.35 -8.95 9.4 -9.05 9.5 -9.1 9.6 -9.2 9.6 -9.4 9.6 -9.4 9.35 -9.4 9.25 -9.35 9.2 L-9.0 9.15 -8.95 9.2 M-9.65 10.55 Q-9.65 10.6 -9.7 10.7 -9.75 10.8 -9.9 10.8 -10.1 10.8 -10.15 10.65 L-10.2 10.5 Q-10.2 10.3 -9.9 10.3 -9.65 10.3 -9.65 10.55 M-10.6 10.85 L-10.6 11.0 -10.75 11.05 -10.9 10.95 -10.95 10.85 -10.9 10.7 Q-10.8 10.6 -10.6 10.65 L-10.6 10.85 M-10.9 12.0 L-10.4 12.05 Q-10.1 12.2 -10.1 12.25 L-10.2 12.4 -10.15 12.55 Q-10.1 12.65 -10.1 12.7 -10.1 12.9 -10.2 13.0 L-10.6 13.25 -10.65 13.4 -10.7 13.45 -10.8 13.45 Q-11.2 13.45 -11.45 13.3 -11.7 13.2 -11.7 13.0 L-11.65 12.6 Q-11.6 12.4 -11.4 12.15 -11.3 12.0 -10.9 12.0 M-10.55 13.65 L-10.6 13.75 -10.7 13.8 -10.8 13.75 -10.85 13.65 Q-10.85 13.55 -10.8 13.5 L-10.7 13.5 -10.55 13.65 M-12.9 17.35 L-12.95 17.35 -13.0 17.25 -13.0 17.15 -12.8 17.15 -12.8 17.3 -12.9 17.35 M-13.1 19.7 L-13.15 19.8 -13.2 19.85 Q-13.3 19.8 -13.3 19.7 L-13.3 19.6 -13.2 19.6 Q-13.15 19.65 -13.1 19.7 M-6.7 18.9 Q-6.5 18.75 -6.3 18.85 L-6.3 18.9 Q-6.3 19.05 -6.3 19.0 L-6.3 19.05 -6.6 19.05 -6.65 18.95 -6.7 18.9 M-6.7 19.35 Q-6.8 19.45 -7.0 19.6 -7.35 19.65 -7.5 19.45 -7.6 19.35 -7.6 19.2 L-7.55 18.85 -7.2 18.85 Q-6.9 18.85 -6.8 18.9 -6.7 18.95 -6.7 19.15 -6.7 19.3 -6.7 19.35 M-7.4 21.85 L-7.5 21.75 -7.45 21.6 -7.4 21.55 -7.3 21.55 -7.25 21.7 -7.25 21.75 Q-7.3 21.8 -7.4 21.85 M-9.9 21.95 L-10.0 22.05 -10.15 21.95 Q-10.05 21.85 -9.95 21.8 L-9.9 21.95 M-1.35 22.7 L-1.5 22.75 -1.55 22.7 -1.45 22.55 Q-1.4 22.5 -1.35 22.6 L-1.3 22.7 -1.35 22.7 M-3.0 22.95 Q-3.0 23.0 -3.0 23.1 L-3.0 23.25 -3.05 23.3 -3.15 23.3 -3.3 23.25 -3.35 23.1 -3.3 22.95 -3.0 22.95" fill="#ffdc45" fill-opacity="0.49803922" fill-rule="evenodd" stroke="none"/>
      <path d="M0.25 13.15 L0.25 13.0 Q0.5 13.1 0.6 13.45 0.65 13.6 0.65 13.95 0.65 14.1 0.05 14.85 -0.5 15.65 -0.5 16.3 -0.5 16.4 -0.7 16.8 -0.85 17.2 -0.9 17.25 L-1.3 17.3 -1.8 17.4 -1.95 17.5 Q-2.0 17.6 -2.15 17.7 L-2.35 17.8 -2.55 18.1 -2.95 18.35 Q-3.25 18.55 -3.45 18.55 -3.95 18.55 -4.15 18.4 L-4.2 18.25 Q-4.7 18.35 -4.9 18.1 -5.05 17.85 -5.15 17.85 L-5.55 17.9 -5.7 17.95 -5.65 18.0 -5.8 18.0 -5.95 18.05 -6.05 17.95 -6.2 17.85 Q-6.4 17.75 -6.45 17.65 L-6.55 17.45 Q-6.65 17.3 -6.65 17.15 -6.65 17.05 -6.5 16.8 L-6.3 16.4 -5.2 16.3 Q-4.8 16.2 -4.55 16.15 -4.3 15.95 -4.25 15.7 -4.25 15.65 -4.25 15.4 -4.25 15.2 -4.35 14.95 -4.45 14.75 -4.45 14.55 -4.45 14.45 -4.25 14.25 -4.05 14.05 -4.0 13.85 L-3.9 13.25 Q-3.9 12.85 -4.15 12.55 -4.4 12.25 -5.15 11.95 L-5.35 12.0 Q-5.6 12.25 -5.8 12.7 -6.0 13.05 -6.55 13.05 -6.65 13.05 -6.8 12.95 L-7.05 12.75 -7.25 12.8 -7.65 13.1 Q-8.0 13.4 -8.0 13.5 L-7.9 13.9 Q-7.8 14.2 -7.8 14.3 L-7.85 14.4 -7.85 14.45 -8.1 14.5 Q-8.35 14.65 -8.7 15.05 L-8.9 15.35 Q-8.85 15.7 -8.8 15.85 L-8.5 15.9 -8.4 16.05 Q-8.35 16.1 -8.35 16.25 -8.35 16.4 -8.5 16.7 L-8.6 17.1 Q-8.6 17.25 -8.4 17.8 L-8.35 18.05 -8.15 18.25 -8.2 18.45 -8.05 18.6 -7.95 18.6 Q-7.9 18.65 -7.85 18.7 L-7.9 18.75 -8.05 18.8 Q-8.25 18.8 -8.45 18.5 L-8.6 18.5 Q-8.95 18.4 -9.1 18.15 -9.15 18.0 -9.15 17.75 L-9.15 17.4 Q-9.25 17.2 -9.25 16.85 -9.25 16.3 -9.25 16.2 L-9.25 16.15 -9.4 16.1 Q-9.6 16.1 -9.65 16.2 L-9.75 16.35 -9.95 16.4 -10.05 16.4 -10.1 16.5 -10.25 16.3 -10.3 16.25 -10.3 16.2 -10.4 16.0 -10.2 15.7 -10.0 15.35 Q-9.95 15.3 -10.05 15.1 L-10.1 14.8 Q-10.1 14.7 -10.0 14.3 -9.85 13.8 -9.75 13.75 L-9.35 13.2 Q-9.15 12.95 -8.95 12.9 L-8.85 12.75 -9.35 12.7 -9.5 12.65 -9.5 12.5 Q-9.5 12.35 -9.1 11.95 -8.75 11.55 -8.75 11.1 L-8.95 11.3 Q-9.05 11.4 -9.25 11.4 -9.45 11.4 -9.5 11.35 L-9.55 11.3 -9.55 11.15 Q-9.55 11.0 -9.45 10.85 -9.35 10.5 -9.0 10.6 L-9.0 10.5 Q-9.0 10.35 -8.75 10.1 L-8.35 9.75 Q-8.05 9.5 -7.75 9.5 L-7.1 9.55 Q-6.55 9.55 -6.55 9.1 L-6.65 8.4 -6.6 8.25 -6.5 8.15 Q-5.95 8.25 -5.65 7.8 -5.45 7.45 -5.45 7.2 -5.45 7.1 -5.65 6.9 L-6.0 6.6 Q-6.1 6.6 -6.3 6.65 -6.45 6.7 -6.5 6.75 L-6.85 6.75 Q-7.0 6.75 -7.1 6.7 L-7.5 6.65 Q-7.6 6.65 -7.7 6.7 -7.85 6.8 -7.95 6.8 L-8.2 6.8 -8.2 6.25 Q-8.0 6.05 -7.8 5.95 -7.6 5.85 -7.45 5.8 -6.8 5.6 -6.05 6.05 L-6.0 6.1 Q-5.85 6.15 -5.85 6.2 L-5.85 6.25 -5.8 6.35 -5.75 6.4 Q-5.65 6.4 -5.6 6.5 L-5.45 6.65 -4.95 6.7 -4.55 7.1 Q-3.8 7.1 -3.65 7.5 L-3.6 7.95 Q-3.5 8.2 -3.3 8.4 -3.2 8.5 -3.15 8.6 L-3.0 8.75 -2.8 8.8 Q-2.65 8.85 -2.5 8.95 L-2.1 9.3 Q-1.8 9.55 -1.8 9.6 L-1.8 9.85 -1.6 10.3 Q-1.35 10.85 -1.25 11.35 -1.05 11.8 -0.55 12.5 0.0 13.2 0.1 13.2 0.2 13.2 0.25 13.15 M-8.1 6.5 L-8.05 6.3 -8.1 6.35 -8.1 6.5 -8.1 6.65 -8.05 6.65 Q-8.1 6.6 -8.1 6.5 M-7.25 6.6 L-7.2 6.6 -7.3 6.55 -7.25 6.6 M-11.15 10.1 L-11.6 10.15 -12.2 10.2 -12.35 10.0 Q-12.45 9.85 -12.45 9.75 -12.45 9.2 -11.4 9.45 -10.3 9.75 -10.3 10.25 -10.3 10.45 -10.4 10.3 L-10.45 10.2 Q-10.5 10.1 -10.55 10.05 L-10.6 10.05 -10.55 10.25 -10.55 10.3 -10.65 10.35 Q-10.8 10.3 -10.95 10.2 -11.05 10.1 -11.15 10.1 M-10.3 12.35 Q-10.3 12.4 -10.25 12.5 -10.4 12.65 -10.75 13.05 -11.0 13.3 -11.25 13.3 -11.55 13.3 -11.65 12.95 -11.65 12.65 -11.5 12.4 -11.25 12.3 -11.0 12.15 L-10.55 12.15 Q-10.35 12.25 -10.3 12.35 M-10.6 17.35 Q-9.95 17.8 -9.95 18.0 L-10.05 18.2 Q-10.1 18.4 -10.1 18.6 L-10.0 18.8 -9.8 19.1 -9.45 19.15 -9.15 19.2 -8.9 19.5 Q-8.8 19.6 -8.8 19.65 -8.8 19.9 -9.05 20.05 -9.25 20.2 -9.6 20.2 -10.15 20.2 -10.3 19.95 -10.6 19.35 -10.65 19.3 L-11.25 18.85 Q-11.45 18.7 -11.45 18.4 -11.45 18.2 -11.35 18.15 -11.2 18.15 -11.1 18.0 L-10.85 17.65 Q-10.7 17.4 -10.6 17.35 M-9.2 18.05 Q-9.1 18.15 -9.1 18.3 -9.1 18.45 -9.2 18.6 -9.35 18.8 -9.5 18.8 -9.65 18.8 -9.75 18.6 L-9.75 18.35 Q-9.75 18.25 -9.7 18.15 -9.6 18.0 -9.35 17.95 L-9.2 18.05 M-7.0 19.4 L-7.0 19.45 -7.1 19.5 -7.25 19.55 Q-7.5 19.55 -7.55 19.4 L-7.55 19.25 Q-7.55 18.95 -7.25 18.95 -6.95 18.95 -6.95 19.25 -6.95 19.35 -7.0 19.4" fill="#ffff66" fill-opacity="0.49803922" fill-rule="evenodd" stroke="none"/>
      <path d="M-6.4 5.9 Q-6.3 6.0 -6.3 6.05 -6.3 6.15 -6.55 6.3 -6.9 6.45 -7.1 6.45 -7.35 6.45 -7.45 6.3 L-7.5 6.1 Q-7.5 6.0 -7.3 5.85 -7.05 5.7 -6.65 5.7 -6.55 5.8 -6.4 5.9 M-5.85 8.45 L-5.65 8.45 Q-5.45 8.45 -5.35 8.6 -5.3 8.7 -5.3 8.8 -5.3 9.0 -5.4 9.1 -5.5 9.3 -5.8 9.35 L-6.05 9.25 Q-6.25 9.0 -6.25 8.85 -6.25 8.7 -6.2 8.65 -6.1 8.55 -5.85 8.45 M-7.65 10.15 Q-7.45 9.85 -7.2 9.8 L-6.85 9.8 -6.7 9.95 -6.5 10.05 -5.75 10.05 Q-4.35 9.8 -4.35 8.95 -4.35 8.85 -4.6 8.45 L-4.9 8.0 Q-4.75 7.9 -4.45 7.95 -4.2 8.05 -4.0 8.2 -3.85 8.45 -3.75 8.85 L-3.65 9.2 -3.5 9.5 Q-3.4 9.8 -3.2 9.75 -2.95 9.65 -2.85 9.65 -2.2 9.65 -1.85 10.45 -1.65 10.9 -1.55 11.45 L-1.4 11.95 Q-1.3 12.2 -1.25 12.4 L-1.15 12.85 Q-1.05 13.15 -0.7 13.1 -0.7 13.05 -0.7 13.2 L-0.7 13.3 -0.25 13.4 Q-0.1 13.45 -0.05 13.7 L-0.05 14.0 Q-0.05 14.45 -0.05 14.55 L-0.55 15.2 -0.75 15.15 Q-0.8 15.25 -0.8 15.05 L-0.7 14.45 -0.7 14.4 Q-1.05 14.55 -1.25 14.95 L-1.5 15.55 -1.7 16.15 -1.85 16.4 -2.15 16.7 -1.85 16.75 -1.4 16.7 -1.35 16.75 -1.35 16.9 Q-1.35 17.1 -1.65 17.3 -2.1 17.5 -3.0 17.5 -3.05 17.55 -3.3 17.85 -3.65 18.2 -3.95 18.2 -4.0 18.2 -5.05 17.7 L-5.8 17.4 Q-6.0 17.3 -6.0 17.2 -6.0 17.05 -5.8 16.85 -5.6 16.6 -5.35 16.6 -5.25 16.6 -5.05 16.8 -4.4 16.7 -4.1 16.5 -3.7 16.3 -3.5 15.8 -3.7 15.65 -3.75 15.55 L-3.8 15.35 -3.75 15.1 Q-3.7 14.85 -3.5 14.85 L-3.2 14.85 Q-3.0 15.0 -3.0 15.3 -2.75 15.05 -2.75 14.95 -2.75 13.9 -3.05 12.95 -3.45 11.7 -4.25 11.35 L-4.5 11.35 -5.35 11.4 Q-6.3 11.4 -6.6 11.55 L-6.65 11.55 -6.35 11.65 Q-6.25 11.75 -6.15 12.0 -6.15 12.05 -6.2 12.15 -6.3 12.25 -6.45 12.35 -6.8 12.35 -6.9 12.25 -6.9 12.15 -6.95 12.15 L-7.45 12.15 Q-7.55 12.2 -7.7 12.5 L-7.75 12.55 Q-7.8 12.8 -7.85 12.85 L-8.0 12.75 Q-8.1 12.6 -8.05 12.5 -7.95 12.25 -7.95 12.1 -7.95 11.95 -8.05 11.7 -8.2 11.4 -8.2 11.2 -8.2 10.95 -8.1 10.9 L-7.7 10.85 -7.75 10.75 Q-7.8 10.7 -7.8 10.6 -7.8 10.4 -7.65 10.15 M-11.5 9.65 L-11.5 9.7 -11.55 9.85 -11.6 9.9 -11.75 9.9 -12.0 9.85 -12.05 9.7 -12.05 9.6 -12.0 9.55 -11.55 9.55 -11.5 9.65 M-10.95 12.9 Q-11.0 13.1 -11.2 13.1 -11.5 13.1 -11.5 12.75 -11.5 12.5 -11.2 12.4 -10.9 12.3 -10.9 12.6 -10.9 12.8 -10.95 12.9 M-8.8 13.5 Q-8.6 13.55 -8.6 13.75 -8.6 13.95 -8.85 14.3 -9.1 14.8 -9.4 14.8 -9.6 14.8 -9.65 14.55 L-9.65 14.3 Q-9.65 13.8 -9.15 13.55 -8.95 13.45 -8.8 13.5 M-11.1 18.8 L-11.1 18.5 Q-11.1 18.25 -11.05 18.15 -10.9 17.95 -10.5 18.05 -10.5 18.1 -10.35 18.4 -10.25 18.7 -10.25 18.75 L-10.25 18.9 Q-10.35 19.05 -10.5 19.05 -10.95 19.05 -11.1 18.8 M-9.25 20.05 Q-9.25 20.2 -9.3 20.25 -9.4 20.35 -9.5 20.35 -9.8 20.35 -10.0 19.75 L-10.0 19.6 -9.95 19.55 -9.7 19.55 -9.45 19.6 Q-9.4 19.65 -9.3 19.8 -9.25 19.95 -9.25 20.05" fill="#ffffff" fill-opacity="0.49803922" fill-rule="evenodd" stroke="none"/>
    </g>
  </defs>
</svg>
