<?xml version="1.0" encoding="UTF-8" standalone="no"?>
<svg xmlns:ffdec="https://www.free-decompiler.com/flash" xmlns:xlink="http://www.w3.org/1999/xlink" ffdec:objectType="frame" height="646.65px" width="1157.65px" xmlns="http://www.w3.org/2000/svg">
  <g transform="matrix(1.0, 0.0, 0.0, 1.0, -155.05, 0.25)">
    <use ffdec:characterId="1662" height="646.65" transform="matrix(1.0, 0.0, 0.0, 1.0, 155.05, -0.25)" width="1157.65" xlink:href="#shape0"/>
  </g>
  <defs>
    <g id="shape0" transform="matrix(1.0, 0.0, 0.0, 1.0, -155.05, 0.25)">
      <path d="M169.85 1.15 L171.4 -0.1 171.8 -0.1 172.9 -0.25 173.65 -0.25 173.55 0.3 Q173.55 3.65 177.45 4.65 L181.15 5.35 181.9 5.55 534.95 5.55 542.2 5.55 563.4 5.55 655.1 5.55 664.5 5.55 733.45 5.55 998.85 5.6 1003.75 5.6 1036.0 5.6 1101.95 5.6 1130.95 5.6 1156.8 5.6 1158.85 5.6 1164.6 5.6 1175.35 5.6 1216.1 5.6 1224.45 5.6 1224.45 5.55 1285.85 5.55 1286.6 5.35 1290.3 4.65 Q1294.2 3.65 1294.2 0.3 L1294.1 -0.25 1294.85 -0.25 1295.95 -0.1 1296.35 -0.1 1297.9 1.15 Q1296.2 1.3 1295.35 2.95 1294.85 4.05 1294.85 5.1 L1294.7 5.65 1294.85 6.4 1295.05 8.55 1295.6 9.65 1295.65 9.7 Q1296.25 10.8 1298.1 12.4 L1299.5 13.65 1299.8 13.9 1301.6 15.6 1301.8 15.75 Q1302.65 17.2 1304.45 18.45 1305.4 19.1 1306.0 19.2 L1306.3 19.35 1306.65 19.45 Q1309.1 19.45 1311.1 15.5 L1311.6 14.45 1312.25 15.1 1312.3 15.3 1312.45 15.85 Q1312.45 16.6 1312.6 16.85 L1312.6 17.85 1310.0 19.45 Q1307.3 21.2 1306.75 22.45 L1306.4 23.1 1306.4 611.25 1306.4 611.65 1306.4 623.0 1306.75 623.7 Q1307.3 624.95 1310.0 626.65 L1312.6 628.25 1312.6 629.25 Q1312.45 629.55 1312.45 630.3 L1312.3 630.8 1312.25 631.0 1311.6 631.65 1311.1 630.6 Q1309.1 626.65 1306.65 626.65 L1306.3 626.75 Q1304.0 625.65 1303.25 624.45 L1303.3 624.35 1303.3 618.4 1303.3 615.85 1303.3 21.75 1303.25 21.7 1302.65 20.65 1300.7 18.5 1299.8 17.65 1298.35 16.2 1298.1 15.85 1296.55 14.25 1296.2 13.9 1296.15 13.8 Q1293.0 10.75 1290.0 9.25 L1288.15 8.4 1282.3 8.2 1224.45 8.25 1224.45 8.3 423.75 8.3 423.75 8.25 400.2 8.25 363.15 8.25 324.65 8.25 321.7 8.25 185.45 8.2 179.6 8.4 177.75 9.25 Q174.75 10.75 171.6 13.8 L171.55 13.9 171.2 14.25 169.65 15.85 169.4 16.2 167.95 17.65 167.05 18.5 165.1 20.65 164.5 21.7 164.45 21.75 164.45 615.85 164.45 618.4 164.45 624.35 164.5 624.45 Q163.75 625.65 161.45 626.75 L161.1 626.65 Q158.65 626.65 156.65 630.6 L156.15 631.65 155.5 631.0 155.45 630.8 155.3 630.3 155.15 629.25 155.15 628.25 157.75 626.65 Q160.45 624.95 161.0 623.7 L161.35 623.0 161.35 611.65 161.35 611.25 161.35 23.1 161.0 22.45 Q160.45 21.2 157.75 19.45 L155.15 17.85 155.15 16.85 155.3 15.85 155.45 15.3 155.5 15.1 156.15 14.45 156.65 15.5 Q158.65 19.45 161.1 19.45 L161.45 19.35 161.75 19.2 163.3 18.45 Q165.1 17.2 165.95 15.75 L166.15 15.6 167.95 13.9 168.25 13.65 169.65 12.4 Q171.5 10.8 172.1 9.7 L172.15 9.65 172.7 8.55 172.9 6.4 Q172.9 6.0 173.05 5.65 L172.9 5.1 Q172.9 4.05 172.4 2.95 171.55 1.3 169.85 1.15" fill="#a8b69e" fill-rule="evenodd" stroke="none"/>
      <path d="M169.85 1.15 Q171.55 1.3 172.4 2.95 172.9 4.05 172.9 5.1 L173.05 5.65 Q172.9 6.0 172.9 6.4 L172.7 8.55 172.15 9.65 172.1 9.7 Q171.5 10.8 169.65 12.4 L168.25 13.65 167.95 13.9 166.15 15.6 165.95 15.75 Q165.1 17.2 163.3 18.45 L161.75 19.2 161.45 19.35 161.1 19.45 Q158.65 19.45 156.65 15.5 L156.15 14.45 162.75 7.75 164.05 6.6 169.65 1.3 169.85 1.15 M1311.6 14.45 L1311.1 15.5 Q1309.1 19.45 1306.65 19.45 L1306.3 19.35 1306.0 19.2 Q1305.4 19.1 1304.45 18.45 1302.65 17.2 1301.8 15.75 L1301.6 15.6 1299.8 13.9 1299.5 13.65 1298.1 12.4 Q1296.25 10.8 1295.65 9.7 L1295.6 9.65 1295.05 8.55 1294.85 6.4 1294.7 5.65 1294.85 5.1 Q1294.85 4.05 1295.35 2.95 1296.2 1.3 1297.9 1.15 L1298.1 1.3 1303.7 6.6 1305.0 7.75 1311.6 14.45 M1294.1 -0.25 L1294.2 0.3 Q1294.2 3.65 1290.3 4.65 L1286.6 5.35 1285.85 5.55 1224.45 5.55 1224.45 5.6 1216.1 5.6 1175.35 5.6 1164.6 5.6 1158.85 5.6 1156.8 5.6 1130.95 5.6 1101.95 5.6 1036.0 5.6 1003.75 5.6 998.85 5.6 733.45 5.55 664.5 5.55 655.1 5.55 563.4 5.55 542.2 5.55 534.95 5.55 181.9 5.55 181.15 5.35 177.45 4.65 Q173.55 3.65 173.55 0.3 L173.65 -0.25 542.2 -0.25 1294.1 -0.25 M1296.9 6.1 L1298.1 6.05 1298.6 6.0 1298.75 5.5 1298.5 5.0 1298.1 4.95 1296.9 4.95 1296.8 5.55 1296.85 6.15 1296.9 6.1 M1301.55 9.65 Q1301.4 9.75 1301.4 10.3 1301.4 10.7 1302.6 11.0 L1304.7 11.05 1304.9 10.55 1303.8 9.85 1302.6 9.45 1301.65 9.5 1301.55 9.65 M1307.3 13.25 Q1306.45 13.4 1306.15 13.65 1306.05 13.2 1306.05 14.1 L1306.15 14.8 1306.25 15.05 1308.15 15.05 1308.3 14.8 1308.35 14.25 1308.15 14.0 1307.3 13.25 M169.15 6.0 L169.65 6.05 170.85 6.1 170.9 6.15 170.95 5.55 170.85 4.95 169.65 4.95 169.25 5.0 169.0 5.5 169.15 6.0 M162.85 10.55 L163.05 11.05 165.15 11.0 Q166.35 10.7 166.35 10.3 L166.2 9.65 166.1 9.5 165.15 9.45 163.95 9.85 Q163.0 10.3 162.85 10.55 M161.5 15.05 L161.6 14.8 161.7 14.1 Q161.7 13.2 161.6 13.65 161.3 13.4 160.45 13.25 L159.6 14.0 159.4 14.25 159.45 14.8 159.6 15.05 161.5 15.05" fill="#5b6a53" fill-rule="evenodd" stroke="none"/>
      <path d="M155.15 17.85 L157.75 19.45 Q160.45 21.2 161.0 22.45 L161.35 23.1 161.35 611.25 161.35 611.65 161.35 623.0 161.0 623.7 Q160.45 624.95 157.75 626.65 L155.15 628.25 155.15 618.95 155.05 618.95 155.05 291.5 155.1 291.5 155.1 230.65 155.15 230.65 155.15 17.85 M164.5 624.45 L164.45 624.35 164.45 618.4 164.45 615.85 164.45 21.75 164.5 21.7 165.1 20.65 167.05 18.5 167.95 17.65 169.4 16.2 169.65 15.85 171.2 14.25 171.55 13.9 171.6 13.8 Q174.75 10.75 177.75 9.25 L179.6 8.4 185.45 8.2 321.7 8.25 324.65 8.25 363.15 8.25 400.2 8.25 423.75 8.25 423.75 8.3 1224.45 8.3 1224.45 8.25 1282.3 8.2 1288.15 8.4 1290.0 9.25 Q1293.0 10.75 1296.15 13.8 L1296.2 13.9 1296.55 14.25 1298.1 15.85 1298.35 16.2 1299.8 17.65 1300.7 18.5 1302.65 20.65 1303.25 21.7 1303.3 21.75 1303.3 615.85 1303.3 618.4 1303.3 624.35 1303.25 624.45 1302.65 625.5 1300.7 627.6 1299.8 628.45 1298.35 629.9 1296.55 631.85 1296.2 632.2 1296.15 632.3 Q1293.0 635.35 1290.0 636.85 L1288.15 637.7 1282.3 637.95 1224.45 637.95 1224.45 637.85 423.75 637.9 423.75 637.95 185.45 637.95 179.6 637.7 177.75 636.85 Q174.75 635.35 171.6 632.3 L171.55 632.2 171.2 631.85 169.4 629.9 167.95 628.45 167.05 627.6 165.1 625.5 164.5 624.45 M1312.6 628.25 L1310.0 626.65 Q1307.3 624.95 1306.75 623.7 L1306.4 623.0 1306.4 611.65 1306.4 611.25 1306.4 23.1 1306.75 22.45 Q1307.3 21.2 1310.0 19.45 L1312.6 17.85 1312.6 230.65 1312.65 230.65 1312.65 291.5 1312.7 291.5 1312.7 618.95 1312.6 618.95 1312.6 628.25 M1296.9 6.1 L1296.85 6.15 1296.8 5.55 1296.9 4.95 1298.1 4.95 1298.5 5.0 1298.75 5.5 1298.6 6.0 1298.1 6.05 1296.9 6.1 M1301.55 9.65 L1301.65 9.5 1302.6 9.45 1303.8 9.85 1304.9 10.55 1304.7 11.05 1302.6 11.0 Q1301.4 10.7 1301.4 10.3 1301.4 9.75 1301.55 9.65 M1307.3 13.25 L1308.15 14.0 1308.35 14.25 1308.3 14.8 1308.15 15.05 1306.25 15.05 1306.15 14.8 1306.05 14.1 Q1306.05 13.2 1306.15 13.65 1306.45 13.4 1307.3 13.25 M1310.25 611.65 L1310.5 612.1 1310.95 612.5 1311.35 612.1 1311.45 611.65 1310.25 611.65 M1289.15 17.75 Q1288.8 17.75 1287.9 18.35 L1286.95 19.1 Q1287.6 20.1 1288.5 19.95 1289.5 19.85 1289.9 18.45 L1289.8 18.0 Q1289.65 17.75 1289.15 17.75 M1292.2 28.2 L1289.95 28.4 1289.05 28.55 1291.3 28.55 1292.2 28.2 M1287.9 627.75 Q1288.8 628.35 1289.15 628.35 L1289.8 628.1 1289.9 627.65 Q1289.5 626.3 1288.5 626.15 1287.6 626.05 1286.95 627.05 1287.05 627.2 1287.9 627.75 M1287.95 617.2 L1289.95 617.7 1292.2 617.9 1290.2 617.2 1287.95 616.75 1287.95 617.2 M169.15 6.0 L169.0 5.5 169.25 5.0 169.65 4.95 170.85 4.95 170.95 5.55 170.9 6.15 170.85 6.1 169.65 6.05 169.15 6.0 M162.85 10.55 Q163.0 10.3 163.95 9.85 L165.15 9.45 166.1 9.5 166.2 9.65 166.35 10.3 Q166.35 10.7 165.15 11.0 L163.05 11.05 162.85 10.55 M177.85 18.45 Q178.25 19.85 179.25 19.95 180.15 20.1 180.8 19.1 L179.85 18.35 178.6 17.75 Q178.1 17.75 177.95 18.0 L177.85 18.45 M176.45 28.55 L178.7 28.55 177.8 28.4 175.55 28.2 176.45 28.55 M161.5 15.05 L159.6 15.05 159.45 14.8 159.4 14.25 159.6 14.0 160.45 13.25 Q161.3 13.4 161.6 13.65 161.7 13.2 161.7 14.1 L161.6 14.8 161.5 15.05 M156.8 612.5 L157.25 612.1 157.5 611.65 156.3 611.65 156.4 612.1 156.8 612.5 M179.8 617.2 L179.8 616.75 177.55 617.2 175.55 617.9 177.8 617.7 179.8 617.2 M178.6 628.35 L179.85 627.75 180.8 627.05 Q180.15 626.05 179.25 626.15 178.25 626.3 177.85 627.65 L177.95 628.1 Q178.1 628.35 178.6 628.35" fill="#849878" fill-rule="evenodd" stroke="none"/>
      <path d="M156.15 631.65 L156.65 630.6 Q158.65 626.65 161.1 626.65 L161.45 626.75 161.75 626.95 Q162.35 627.0 163.3 627.65 165.1 628.9 165.95 630.35 L166.15 630.5 167.95 632.25 168.25 632.45 Q171.3 635.0 172.1 636.4 L172.15 636.5 172.7 637.55 172.9 639.7 173.05 640.45 172.9 641.05 172.4 643.15 Q171.55 644.85 169.85 644.95 L164.05 639.5 162.75 638.35 156.15 631.65 M1306.3 626.75 L1306.65 626.65 Q1309.1 626.65 1311.1 630.6 L1311.6 631.65 1305.0 638.35 1303.7 639.5 1297.9 644.95 Q1296.2 644.85 1295.35 643.15 1294.85 642.05 1294.85 641.05 L1294.7 640.45 1294.85 639.7 1295.05 637.55 1295.6 636.5 1295.65 636.4 Q1296.45 635.0 1299.5 632.45 L1299.8 632.25 1301.6 630.5 1301.8 630.35 Q1302.65 628.9 1304.45 627.65 1305.4 627.0 1306.0 626.95 L1306.3 626.75 M1310.25 611.65 L1311.45 611.65 1311.35 612.1 1310.95 612.5 1310.5 612.1 1310.25 611.65 M1306.25 631.1 L1306.15 631.35 1306.05 632.0 Q1306.05 632.9 1306.15 632.45 L1307.3 632.9 1308.15 632.1 1308.35 631.85 1308.3 631.35 1308.15 631.1 Q1307.3 630.9 1306.25 631.1 M1296.9 641.15 L1296.95 641.2 1298.5 641.1 1298.75 640.65 1298.6 640.1 1296.9 640.05 1296.85 639.95 1296.8 640.55 1296.9 641.15 M1304.7 635.05 L1302.6 635.1 Q1301.4 635.4 1301.4 635.85 1301.4 636.4 1301.55 636.5 L1301.65 636.6 1302.6 636.65 1303.8 636.25 1304.9 635.6 1304.7 635.05 M1294.1 646.35 L1224.45 646.35 1224.45 646.4 313.5 646.4 313.5 646.35 173.65 646.35 173.55 645.8 Q173.55 642.45 177.45 641.45 L181.15 640.75 181.9 640.55 534.95 640.55 542.2 640.55 563.4 640.55 655.1 640.55 664.5 640.55 733.45 640.55 998.85 640.55 1003.75 640.55 1036.0 640.55 1101.95 640.55 1130.95 640.55 1156.8 640.55 1158.85 640.55 1164.6 640.55 1175.35 640.55 1216.1 640.55 1285.85 640.55 1286.6 640.75 1290.3 641.45 Q1294.2 642.45 1294.2 645.8 L1294.1 646.35 M1289.15 17.75 Q1289.65 17.75 1289.8 18.0 L1289.9 18.45 Q1289.5 19.85 1288.5 19.95 1287.6 20.1 1286.95 19.1 L1287.9 18.35 Q1288.8 17.75 1289.15 17.75 M1292.2 28.2 L1291.3 28.55 1289.05 28.55 1289.95 28.4 1292.2 28.2 M1287.95 617.2 L1287.95 616.75 1290.2 617.2 1292.2 617.9 1289.95 617.7 1287.95 617.2 M1287.9 627.75 Q1287.05 627.2 1286.95 627.05 1287.6 626.05 1288.5 626.15 1289.5 626.3 1289.9 627.65 L1289.8 628.1 1289.15 628.35 Q1288.8 628.35 1287.9 627.75 M177.85 18.45 L177.95 18.0 Q178.1 17.75 178.6 17.75 L179.85 18.35 180.8 19.1 Q180.15 20.1 179.25 19.95 178.25 19.85 177.85 18.45 M176.45 28.55 L175.55 28.2 177.8 28.4 178.7 28.55 176.45 28.55 M156.8 612.5 L156.4 612.1 156.3 611.65 157.5 611.65 157.25 612.1 156.8 612.5 M161.5 631.1 Q160.45 630.9 159.6 631.1 L159.45 631.35 159.4 631.85 159.6 632.1 160.45 632.9 161.6 632.45 161.7 632.0 161.6 631.35 161.5 631.1 M178.6 628.35 Q178.1 628.35 177.95 628.1 L177.85 627.65 Q178.25 626.3 179.25 626.15 180.15 626.05 180.8 627.05 L179.85 627.75 178.6 628.35 M179.8 617.2 L177.8 617.7 175.55 617.9 177.55 617.2 179.8 616.75 179.8 617.2 M165.15 635.1 L163.05 635.05 162.85 635.6 163.95 636.25 165.15 636.65 166.1 636.6 166.2 636.5 166.35 635.85 Q166.35 635.4 165.15 635.1 M170.85 641.15 L170.95 640.55 170.9 639.95 170.85 640.05 169.15 640.1 169.0 640.65 169.25 641.1 170.8 641.2 170.85 641.15" fill="#a4b39c" fill-rule="evenodd" stroke="none"/>
      <path d="M161.45 626.75 Q163.75 625.65 164.5 624.45 L165.1 625.5 167.05 627.6 167.95 628.45 169.4 629.9 171.2 631.85 171.55 632.2 171.6 632.3 Q174.75 635.35 177.75 636.85 L179.6 637.7 185.45 637.95 423.75 637.95 423.75 637.9 1224.45 637.85 1224.45 637.95 1282.3 637.95 1288.15 637.7 1290.0 636.85 Q1293.0 635.35 1296.15 632.3 L1296.2 632.2 1296.55 631.85 1298.35 629.9 1299.8 628.45 1300.7 627.6 1302.65 625.5 1303.25 624.45 Q1304.0 625.65 1306.3 626.75 L1306.0 626.95 Q1305.4 627.0 1304.45 627.65 1302.65 628.9 1301.8 630.35 L1301.6 630.5 1299.8 632.25 1299.5 632.45 Q1296.45 635.0 1295.65 636.4 L1295.6 636.5 1295.05 637.55 1294.85 639.7 1294.7 640.45 1294.85 641.05 Q1294.85 642.05 1295.35 643.15 1296.2 644.85 1297.9 644.95 L1296.35 646.25 1295.95 646.2 1294.85 646.35 1294.1 646.35 1294.2 645.8 Q1294.2 642.45 1290.3 641.45 L1286.6 640.75 1285.85 640.55 1216.1 640.55 1175.35 640.55 1164.6 640.55 1158.85 640.55 1156.8 640.55 1130.95 640.55 1101.95 640.55 1036.0 640.55 1003.75 640.55 998.85 640.55 733.45 640.55 664.5 640.55 655.1 640.55 563.4 640.55 542.2 640.55 534.95 640.55 181.9 640.55 181.15 640.75 177.45 641.45 Q173.55 642.45 173.55 645.8 L173.65 646.35 172.9 646.35 171.8 646.2 171.4 646.25 169.85 644.95 Q171.55 644.85 172.4 643.15 L172.9 641.05 173.05 640.45 172.9 639.7 172.7 637.55 172.15 636.5 172.1 636.4 Q171.3 635.0 168.25 632.45 L167.95 632.25 166.15 630.5 165.95 630.35 Q165.1 628.9 163.3 627.65 162.35 627.0 161.75 626.95 L161.45 626.75 M1306.25 631.1 Q1307.3 630.9 1308.15 631.1 L1308.3 631.35 1308.35 631.85 1308.15 632.1 1307.3 632.9 1306.15 632.45 Q1306.05 632.9 1306.05 632.0 L1306.15 631.35 1306.25 631.1 M1304.7 635.05 L1304.9 635.6 1303.8 636.25 1302.6 636.65 1301.65 636.6 1301.55 636.5 Q1301.4 636.4 1301.4 635.85 1301.4 635.4 1302.6 635.1 L1304.7 635.05 M1296.9 641.15 L1296.8 640.55 1296.85 639.95 1296.9 640.05 1298.6 640.1 1298.75 640.65 1298.5 641.1 1296.95 641.2 1296.9 641.15 M161.5 631.1 L161.6 631.35 161.7 632.0 161.6 632.45 160.45 632.9 159.6 632.1 159.4 631.85 159.45 631.35 159.6 631.1 Q160.45 630.9 161.5 631.1 M170.85 641.15 L170.8 641.2 169.25 641.1 169.0 640.65 169.15 640.1 170.85 640.05 170.9 639.95 170.95 640.55 170.85 641.15 M165.15 635.1 Q166.35 635.4 166.35 635.85 L166.2 636.5 166.1 636.6 165.15 636.65 163.95 636.25 162.85 635.6 163.05 635.05 165.15 635.1" fill="#c2ccbd" fill-rule="evenodd" stroke="none"/>
    </g>
  </defs>
</svg>
