<?xml version="1.0" encoding="UTF-8" standalone="no"?>
<svg xmlns:ffdec="https://www.free-decompiler.com/flash" xmlns:xlink="http://www.w3.org/1999/xlink" ffdec:objectType="frame" height="67.6px" width="67.6px" xmlns="http://www.w3.org/2000/svg">
  <g transform="matrix(1.0, 0.0, 0.0, 1.0, 0.15, 0.15)">
    <use ffdec:characterId="3313" height="67.45" transform="matrix(1.0, 0.0, 0.0, 1.0, -0.05, -0.05)" width="67.45" xlink:href="#shape0"/>
  </g>
  <defs>
    <g id="shape0" transform="matrix(1.0, 0.0, 0.0, 1.0, 0.05, 0.05)">
      <path d="M67.4 33.65 L33.7 33.65 66.55 41.25 Q63.5 54.2 52.3 61.65 41.1 69.15 27.95 66.85 14.85 64.6 6.75 53.8 -1.3 43.05 0.2 29.8 1.75 16.6 12.0 7.9 22.3 -0.75 35.6 0.0 48.9 0.75 58.15 10.55 67.4 20.35 67.4 33.65" fill="#000000" fill-rule="evenodd" stroke="none"/>
    </g>
  </defs>
</svg>
