<?xml version="1.0" encoding="UTF-8" standalone="no"?>
<svg xmlns:ffdec="https://www.free-decompiler.com/flash" xmlns:xlink="http://www.w3.org/1999/xlink" ffdec:objectType="frame" height="287.35px" width="115.85px" xmlns="http://www.w3.org/2000/svg">
  <g transform="matrix(1.0, 0.0, 0.0, 1.0, 57.4, 37.8)">
    <use ffdec:characterId="3952" height="35.05" transform="matrix(7.0, 0.0, 0.0, 7.0, -40.25, -31.5)" width="13.4" xlink:href="#shape0"/>
  </g>
  <defs>
    <g id="shape0" transform="matrix(1.0, 0.0, 0.0, 1.0, 5.75, 4.5)">
      <path d="M-5.2 2.45 L-5.15 3.1 Q-5.05 3.75 -5.0 3.9 L-4.95 3.95 -5.05 4.15 Q-5.25 4.4 -5.3 4.55 L-5.6 5.45 -5.55 5.95 Q-5.35 6.95 -5.0 7.75 -4.8 8.15 -4.5 8.65 L-4.0 9.3 -3.35 10.2 Q-2.75 11.05 -2.5 11.9 -2.2 12.7 -2.25 13.35 L-2.25 13.75 -2.3 14.15 -2.3 14.25 Q-2.35 14.75 -2.4 14.95 L-2.55 15.25 -2.6 15.3 -2.6 15.35 Q-2.8 15.75 -3.15 15.95 L-2.75 15.5 Q-2.55 15.1 -2.4 14.35 L-2.35 14.25 -2.4 13.85 Q-2.65 12.5 -3.1 11.75 -3.65 10.95 -3.95 10.35 L-4.4 9.65 Q-4.7 9.15 -4.85 8.8 L-5.2 8.0 Q-5.4 7.6 -5.5 7.2 L-5.6 6.75 -5.65 6.7 -5.65 6.6 -5.7 6.25 -5.7 6.05 -5.75 5.75 -5.75 5.3 -5.7 4.9 -5.6 4.7 -5.4 3.8 -5.3 3.4 -5.2 2.45 M-3.3 16.2 L-3.35 16.25 -3.55 16.65 Q-3.7 17.0 -3.85 17.15 L-3.75 16.95 -4.2 17.65 Q-4.6 18.2 -4.8 19.1 L-4.85 19.3 -4.85 20.2 Q-4.7 20.65 -4.55 20.85 -4.5 20.95 -4.2 21.1 L-4.2 21.15 Q-4.8 20.85 -4.95 20.75 -5.25 20.45 -5.5 19.7 L-5.45 19.55 -5.45 19.4 -5.4 19.25 -5.4 19.1 -5.35 18.9 Q-5.05 18.0 -4.4 17.35 L-3.9 16.85 -3.5 16.4 Q-3.4 16.2 -3.35 16.15 L-3.35 16.15 -3.3 16.2" fill="#262626" fill-opacity="0.8" fill-rule="evenodd" stroke="none"/>
      <path d="M2.45 3.5 Q2.55 3.7 2.6 4.0 L2.65 4.25 Q2.75 4.55 2.75 4.95 L2.8 4.95 2.75 6.0 Q2.5 7.0 2.15 7.55 1.95 7.8 1.3 8.45 1.0 8.75 0.45 9.5 L-0.1 10.25 -0.3 10.6 -0.4 10.65 -0.1 10.1 Q0.15 9.55 0.25 9.0 L0.35 8.0 0.35 7.25 0.3 6.55 0.25 6.35 -0.05 5.65 -0.05 5.6 Q-0.35 5.25 -0.85 5.2 L-0.9 5.2 Q-1.2 5.2 -0.8 4.85 L-0.35 4.5 Q-0.25 4.45 0.05 4.1 L0.25 3.85 0.55 3.45 0.65 3.3 0.7 3.4 Q0.85 3.65 0.95 3.65 1.05 3.65 1.3 3.4 L1.6 3.1 Q1.95 2.8 2.15 2.7 L2.65 2.65 Q2.55 2.85 2.5 3.05 2.45 3.25 2.45 3.5 M0.6 18.35 Q-0.35 17.7 -0.8 17.05 -1.0 16.85 -1.1 16.6 -1.25 16.15 -1.45 15.0 -1.45 14.45 -1.5 14.45 L-1.5 14.3 -1.45 14.1 -1.45 13.9 -1.4 13.65 -1.4 13.45 Q-1.4 13.3 -1.35 13.3 L-1.35 13.05 Q-0.95 11.65 -0.55 10.95 L-0.5 11.0 -0.5 11.1 -0.6 11.15 -0.75 11.55 -0.85 11.85 -0.85 11.95 -0.9 12.05 -1.0 12.8 -1.0 14.4 Q-0.85 15.1 -0.65 15.6 L-0.45 16.15 Q-0.1 16.75 0.55 17.3 L2.1 18.4 Q3.0 19.0 3.45 19.4 3.75 19.75 4.05 20.15 4.4 20.45 4.5 20.75 L4.4 20.6 4.45 20.75 4.45 20.8 4.2 20.35 Q3.9 20.0 3.35 19.7 L3.3 19.65 Q2.85 19.45 2.15 19.1 1.1 18.7 0.6 18.35 M5.0 21.85 Q5.1 22.05 5.15 22.5 L5.2 22.5 5.15 23.0 5.1 23.1 5.1 22.5 5.05 22.45 4.95 21.85 4.9 21.75 4.85 21.7 4.85 21.6 5.0 21.85 M3.85 24.5 L4.45 24.35 Q4.8 24.2 5.05 23.9 4.9 24.45 4.2 24.75 3.65 24.95 3.05 24.95 L2.1 24.9 Q1.55 24.85 1.15 24.65 0.5 24.4 0.2 24.25 -0.35 24.0 -0.65 23.7 -0.05 24.05 0.95 24.3 1.95 24.6 2.65 24.6 L3.25 24.6 3.85 24.5 M-1.35 23.15 L-1.35 23.1 Q-1.0 23.35 -1.05 23.4 -1.25 23.3 -1.35 23.15" fill="#262626" fill-opacity="0.8" fill-rule="evenodd" stroke="none"/>
      <path d="M6.4 1.05 L6.55 1.6 6.7 2.3 6.65 2.8 6.65 3.9 6.6 4.25 6.6 4.45 6.55 4.6 6.55 4.8 Q6.5 5.05 6.45 5.1 L6.45 5.2 6.4 5.45 6.45 5.45 6.4 5.6 Q6.35 5.8 6.25 6.3 6.1 6.6 5.9 6.75 L5.8 6.85 5.7 6.85 5.4 7.05 5.35 7.05 Q5.35 7.0 5.3 7.0 5.15 7.0 4.8 7.15 4.5 7.3 4.35 7.45 L4.0 7.85 4.05 7.8 4.05 7.85 Q3.85 8.0 3.8 8.1 3.35 8.65 3.25 9.45 L3.2 9.5 Q3.25 9.15 3.35 8.8 3.55 7.8 4.0 7.0 4.4 6.2 4.85 5.75 L5.75 4.95 6.2 4.35 Q5.9 3.55 5.2 2.55 L4.5 1.75 4.6 1.65 Q4.95 0.95 5.25 0.65 L5.9 0.1 Q6.0 0.0 6.05 0.0 L6.05 0.05 6.4 1.05 M3.1 11.85 L3.1 11.2 3.05 10.85 3.1 11.1 Q3.3 12.45 3.65 13.15 3.8 13.55 4.2 14.2 4.45 14.65 4.8 14.9 5.2 15.15 5.65 15.15 6.55 15.15 6.55 14.4 L6.6 14.35 6.65 14.5 6.5 15.05 Q6.4 15.45 6.2 15.65 6.05 15.8 5.85 15.9 L5.45 15.95 Q4.8 15.95 4.15 14.8 3.5 13.7 3.15 11.9 L3.1 11.85 M7.15 15.8 L7.3 16.65 7.35 16.8 7.45 17.05 Q7.55 17.55 7.6 18.35 L7.6 18.4 7.65 18.45 7.65 19.05 7.55 19.25 7.5 19.4 7.4 19.45 Q7.25 19.7 7.05 19.85 6.7 20.15 6.1 20.15 5.9 20.15 5.65 20.05 5.4 19.95 5.3 19.75 L5.35 19.75 Q5.45 19.85 5.6 19.9 L5.9 19.9 Q6.35 19.9 6.85 19.6 7.2 19.35 7.3 19.25 L7.4 19.15 7.45 19.0 7.55 18.65 7.55 18.35 7.25 17.55 Q7.15 17.3 7.15 17.1 L7.05 16.85 7.05 16.15 7.15 15.8" fill="#262626" fill-opacity="0.8" fill-rule="evenodd" stroke="none"/>
      <path d="M2.5 -0.2 L2.4 -0.15 Q2.45 -0.05 2.65 0.05 L2.9 0.15 Q2.9 0.25 2.5 0.5 2.1 0.75 2.0 0.75 L1.95 0.75 1.9 0.95 1.9 1.0 Q2.55 1.6 3.05 1.6 3.2 1.6 3.6 1.35 L3.85 1.1 3.95 0.95 3.95 0.8 Q3.7 0.5 3.75 0.2 4.0 -0.2 4.15 -0.2 L4.15 -0.25 4.2 -0.2 4.5 -0.1 4.55 -0.05 Q4.5 -0.45 4.35 -0.75 L3.8 -0.35 Q3.7 -0.3 3.5 -0.05 3.35 0.15 3.2 0.15 L2.85 0.0 Q2.6 -0.1 2.5 -0.2 M3.2 -4.0 L3.05 -3.95 2.95 -3.9 Q3.15 -3.85 3.3 -3.75 3.6 -3.5 3.6 -2.95 3.6 -2.7 3.5 -2.65 L3.2 -2.5 Q3.45 -2.4 3.45 -2.35 3.5 -2.25 3.55 -2.0 L3.8 -2.25 3.75 -2.45 Q3.7 -2.5 3.75 -2.55 L3.85 -2.65 4.0 -2.75 Q4.1 -2.8 4.15 -2.8 L4.35 -2.7 4.4 -2.7 4.3 -2.8 4.15 -3.1 Q3.85 -3.35 3.85 -3.45 L3.85 -3.5 3.9 -3.5 4.7 -3.3 Q5.15 -3.1 5.25 -2.95 L5.25 -3.0 5.2 -3.05 5.2 -3.1 5.25 -3.1 Q5.45 -3.1 5.7 -2.95 L6.0 -2.7 6.15 -2.7 6.45 -2.85 6.75 -2.45 Q6.9 -2.2 7.0 -1.55 6.95 -0.75 6.8 -0.45 L6.6 -0.25 6.6 0.4 Q6.65 1.15 6.7 1.35 6.8 1.65 6.85 2.25 6.85 2.9 6.9 2.9 L6.85 3.4 6.7 3.6 6.6 3.7 Q6.5 3.7 6.45 3.65 L6.4 3.55 6.3 2.2 6.2 2.05 6.1 2.2 Q6.0 2.25 5.9 2.25 5.8 2.25 5.75 2.2 5.7 2.1 5.6 2.1 5.45 2.1 5.25 2.25 5.1 2.45 5.15 2.9 5.25 3.35 5.0 3.6 5.0 4.5 5.2 4.9 5.45 5.35 5.45 6.0 L5.4 6.4 5.35 6.65 Q5.35 7.25 5.3 7.25 L5.2 7.85 Q5.1 7.95 5.0 7.95 L4.9 7.9 4.75 8.05 4.6 8.95 4.35 9.9 4.35 9.95 4.2 10.0 4.1 9.95 3.95 9.75 3.65 9.75 Q3.5 9.7 3.3 9.55 3.15 9.4 3.05 9.4 2.9 9.4 2.8 9.45 L2.6 9.6 Q2.55 9.8 2.45 10.2 L2.35 10.25 2.2 10.65 Q2.15 11.85 2.15 11.9 2.2 12.85 2.25 13.45 L2.25 13.5 2.2 13.6 2.05 13.7 Q2.25 15.3 2.4 15.95 2.55 16.45 2.85 16.7 3.05 17.5 3.0 17.9 L2.85 18.15 Q2.75 18.3 2.6 18.35 L2.5 18.9 Q2.35 19.4 2.3 19.65 L2.25 20.1 Q2.3 20.7 2.0 21.0 1.8 21.2 1.65 21.2 L1.5 21.2 1.4 21.1 Q1.25 20.5 1.2 20.15 L1.15 19.7 Q1.0 19.15 0.9 18.3 0.9 18.15 0.7 17.75 0.55 17.4 0.55 17.0 L0.6 16.25 Q0.6 16.15 0.65 16.15 L0.8 16.15 0.9 16.2 0.95 16.15 Q1.0 16.05 1.1 15.95 1.1 14.85 0.95 14.6 L0.9 14.4 Q0.6 14.1 0.55 13.8 L0.55 13.0 Q0.5 12.75 0.4 12.5 L0.2 12.1 Q0.1 11.85 -0.25 11.5 -0.6 11.1 -0.8 11.1 -1.05 11.1 -1.25 11.35 L-1.5 11.85 -1.45 12.9 -1.45 12.8 -1.35 12.75 Q-1.2 12.75 -1.1 13.2 -0.95 13.7 -1.0 14.65 L-1.2 14.9 -1.3 14.95 Q-1.5 14.95 -1.65 14.6 L-1.95 13.65 -2.0 13.15 -2.0 12.95 -1.95 12.75 -1.85 12.65 Q-1.75 12.0 -1.7 11.95 L-1.7 10.8 -1.65 10.75 -1.65 10.45 -1.4 10.4 -1.4 10.0 -1.45 9.6 Q-1.55 9.15 -1.7 8.85 -1.85 8.6 -2.0 7.85 -2.05 7.5 -2.2 7.1 -2.4 6.6 -2.55 6.6 -2.7 6.6 -2.75 6.8 L-2.9 7.25 Q-3.0 7.3 -3.1 7.3 -3.3 7.3 -3.4 7.25 -3.55 7.15 -3.65 6.8 L-3.6 6.4 -3.75 6.05 Q-3.85 5.8 -3.95 5.7 L-4.25 5.35 Q-4.4 5.2 -4.45 5.2 -4.6 5.2 -4.65 5.25 L-4.7 5.45 -4.8 5.95 -4.85 6.25 -4.9 6.3 -4.85 7.0 -4.8 7.4 Q-4.8 7.5 -4.85 7.6 L-4.9 7.65 Q-4.9 7.6 -4.9 7.5 L-5.1 7.5 -5.1 7.45 -5.15 7.0 -5.1 6.75 -5.15 6.4 Q-5.15 6.1 -5.2 6.1 L-5.25 5.3 -5.2 5.3 -5.25 5.0 -5.25 4.1 -5.2 3.5 -5.3 3.05 -5.3 1.7 Q-5.15 0.45 -5.05 0.05 -4.85 -0.2 -4.75 -0.5 -4.65 -0.7 -4.45 -1.0 L-4.1 -1.4 Q-3.8 -1.9 -3.3 -2.3 -3.0 -2.5 -2.5 -2.8 -2.7 -2.95 -2.75 -3.05 L-2.75 -3.3 -2.25 -3.85 Q-2.1 -3.95 -1.8 -3.95 L-1.45 -3.85 -1.05 -3.55 Q-0.85 -3.4 -0.65 -3.35 L-0.35 -3.35 -0.1 -3.65 Q0.15 -3.85 0.3 -3.85 L0.55 -3.8 0.65 -3.75 Q0.75 -4.05 1.0 -4.25 1.3 -4.5 1.55 -4.5 L1.8 -4.45 2.0 -4.4 2.65 -4.5 2.95 -4.4 Q3.25 -4.25 3.2 -4.05 L3.2 -4.0 M2.0 3.2 Q1.95 3.2 1.9 3.25 L1.85 3.3 Q1.8 3.8 1.55 4.0 L1.2 4.05 1.05 4.2 1.05 4.7 Q1.15 4.9 1.2 4.95 L1.45 5.15 1.85 4.75 1.85 3.85 2.05 3.7 Q2.15 3.6 2.25 3.65 L2.25 3.5 2.2 3.25 2.15 3.2 Q2.1 3.2 2.0 3.2 M1.4 6.75 Q1.4 7.75 1.6 8.45 1.65 8.65 1.9 9.05 L2.2 9.0 Q2.4 8.95 2.45 8.85 L2.5 8.15 2.75 7.8 2.8 7.55 2.8 7.25 Q2.8 5.3 2.35 5.3 2.25 5.3 2.2 5.35 L2.15 5.45 Q2.0 6.15 1.85 6.3 1.8 6.45 1.5 6.55 L1.45 6.6 Q1.4 6.7 1.4 6.75 M5.6 7.65 L5.7 7.75 5.7 8.3 5.65 8.35 5.5 8.35 Q5.4 8.35 5.35 8.3 L5.3 8.25 5.35 7.8 Q5.45 7.65 5.6 7.65 M4.8 14.05 Q4.85 14.15 4.9 14.6 5.0 14.75 5.1 14.7 L5.15 14.8 Q5.25 14.85 5.3 14.85 5.4 14.85 5.4 14.8 L5.45 14.7 Q5.5 14.85 5.55 15.3 L5.35 15.45 5.3 15.4 Q5.25 15.4 5.25 15.5 5.25 15.55 5.15 15.55 4.95 15.55 4.8 15.35 4.6 15.1 4.6 14.75 L4.6 14.0 4.65 14.0 4.8 14.05 M4.1 21.05 Q4.05 21.2 4.0 21.25 L4.0 21.0 4.1 21.05 M3.7 21.45 L3.7 21.4 3.8 21.35 Q3.9 21.35 3.95 21.45 L4.0 21.6 4.0 21.8 3.95 22.05 3.9 22.1 3.75 22.15 3.7 22.15 3.65 22.1 3.6 21.9 3.65 21.7 3.7 21.45 M0.35 24.45 L0.3 25.1 Q0.2 25.2 0.1 25.4 0.0 25.5 -0.1 25.5 -0.2 25.5 -0.45 25.2 -0.8 24.85 -0.8 24.6 L-0.75 23.95 -0.7 23.9 -0.8 23.8 -0.75 23.5 -0.55 23.55 Q-0.45 23.6 -0.6 24.0 L-0.45 24.25 Q-0.3 24.5 -0.1 24.5 -0.05 24.5 0.0 24.45 L0.1 24.4 Q0.3 24.4 0.35 24.45 M1.75 26.8 L1.8 26.85 1.8 26.95 1.75 27.15 Q1.75 27.3 1.9 27.5 2.05 27.65 2.0 28.0 L1.8 28.15 1.75 28.35 1.6 28.2 Q1.55 28.0 1.55 27.65 L1.55 27.25 1.6 26.8 1.75 26.8 M1.6 28.5 L1.7 28.5 1.75 28.55 Q1.95 29.4 2.25 29.35 2.3 29.85 2.25 30.1 2.2 30.35 2.0 30.55 1.9 30.45 1.8 30.25 L1.75 30.05 Q1.6 29.95 1.5 29.85 1.3 29.65 1.3 29.45 L1.3 28.75 1.45 28.7 Q1.6 28.6 1.6 28.5 M-4.8 7.95 L-4.8 8.05 -4.85 8.15 -5.05 8.05 -5.05 7.85 -4.95 7.85 Q-4.85 7.85 -4.8 7.9 L-4.8 7.95 M-4.85 8.35 L-4.8 8.3 -4.7 8.35 Q-4.6 8.8 -4.6 9.25 -4.65 9.35 -4.7 9.35 L-4.8 9.9 -4.85 10.0 -4.9 10.05 -5.0 10.0 Q-5.05 9.4 -5.1 9.35 L-5.1 9.0 -4.9 9.0 -4.9 8.85 Q-4.85 8.65 -4.85 8.35 M-4.55 11.65 Q-4.5 11.65 -4.55 12.4 L-4.65 12.45 -4.65 12.85 -4.85 12.85 -4.9 12.5 -4.95 12.1 Q-4.95 11.55 -4.85 11.45 L-4.7 11.3 Q-4.65 11.35 -4.6 11.4 L-4.55 11.65 M-2.0 17.2 L-1.95 17.15 -1.6 17.7 Q-1.45 17.95 -1.45 18.1 L-1.4 18.15 Q-1.35 18.05 -1.25 17.85 L-1.15 17.6 -1.1 17.6 -1.05 17.65 -1.05 18.4 Q-1.1 18.6 -1.3 18.55 -1.4 18.55 -1.5 18.45 -1.6 18.45 -1.65 18.55 L-1.7 18.6 Q-1.9 18.4 -1.95 18.2 -2.0 17.95 -2.0 17.3 L-2.0 17.2 M-4.8 14.75 L-4.65 14.7 -4.65 14.85 -4.7 14.9 Q-4.8 14.85 -4.8 14.75 M-4.6 15.4 L-4.5 15.45 -4.55 15.75 -4.5 15.85 -4.55 15.9 -4.55 15.95 -4.65 15.95 Q-4.7 15.95 -4.85 15.75 L-4.85 15.3 -4.7 15.25 -4.65 15.3 -4.6 15.4 M-4.65 15.85 L-4.7 15.85 -4.65 15.9 -4.65 15.85" fill="#262626" fill-opacity="0.8" fill-rule="evenodd" stroke="none"/>
      <path d="M2.5 -0.2 L2.4 -0.15 Q2.45 -0.05 2.65 0.05 L2.9 0.15 Q2.9 0.25 2.5 0.5 2.1 0.75 2.0 0.75 L1.95 0.75 1.9 0.95 1.9 1.0 Q2.55 1.6 3.05 1.6 3.2 1.6 3.6 1.35 L3.85 1.1 3.95 0.95 3.95 0.8 Q3.7 0.5 3.75 0.2 4.0 -0.2 4.15 -0.2 L4.15 -0.25 4.2 -0.2 4.5 -0.1 4.55 -0.05 Q4.5 -0.45 4.35 -0.75 L3.8 -0.35 Q3.7 -0.3 3.5 -0.05 3.35 0.15 3.2 0.15 L2.85 0.0 Q2.6 -0.1 2.5 -0.2 M3.2 -4.0 L3.05 -3.95 2.95 -3.9 Q3.15 -3.85 3.3 -3.75 3.6 -3.5 3.6 -2.95 3.6 -2.7 3.5 -2.65 L3.2 -2.5 Q3.45 -2.4 3.45 -2.35 3.5 -2.25 3.55 -2.0 L3.8 -2.25 3.75 -2.45 Q3.7 -2.5 3.75 -2.55 L3.85 -2.65 4.0 -2.75 Q4.1 -2.8 4.15 -2.8 L4.35 -2.7 4.4 -2.7 4.3 -2.8 4.15 -3.1 Q3.85 -3.35 3.85 -3.45 L3.85 -3.5 3.9 -3.5 4.7 -3.3 Q5.15 -3.1 5.25 -2.95 L5.25 -3.0 5.2 -3.05 5.2 -3.1 5.25 -3.1 Q5.45 -3.1 5.7 -2.95 L6.0 -2.7 6.15 -2.7 6.45 -2.85 6.75 -2.45 Q6.9 -2.2 7.0 -1.55 6.95 -0.75 6.8 -0.45 L6.7 -0.35 6.15 0.05 Q5.65 0.4 5.45 0.65 5.3 0.8 5.15 1.0 L4.85 1.4 4.5 2.15 4.5 2.3 Q4.45 2.45 4.4 2.45 L4.25 2.6 3.95 2.7 Q3.65 2.9 3.4 2.9 L3.15 2.85 2.75 2.75 Q2.25 2.75 1.85 3.0 L1.7 3.2 Q1.3 3.75 1.0 3.75 L0.85 3.7 0.6 3.5 Q0.5 3.75 0.0 4.25 -0.55 4.85 -0.9 5.1 -1.25 5.35 -1.75 5.55 -2.35 5.75 -2.7 5.75 -3.5 5.75 -4.0 5.5 -4.5 5.2 -4.8 4.55 -4.95 4.35 -5.1 4.0 -5.25 3.5 -5.3 3.05 L-5.3 1.7 Q-5.15 0.45 -5.05 0.05 -4.85 -0.2 -4.75 -0.5 -4.65 -0.7 -4.45 -1.0 L-4.1 -1.4 Q-3.8 -1.9 -3.3 -2.3 -3.0 -2.5 -2.5 -2.8 -2.7 -2.95 -2.75 -3.05 L-2.75 -3.3 -2.25 -3.85 Q-2.1 -3.95 -1.8 -3.95 L-1.45 -3.85 -1.05 -3.55 Q-0.85 -3.4 -0.65 -3.35 L-0.35 -3.35 -0.1 -3.65 Q0.15 -3.85 0.3 -3.85 L0.55 -3.8 0.65 -3.75 Q0.75 -4.05 1.0 -4.25 1.3 -4.5 1.55 -4.5 L1.8 -4.45 2.0 -4.4 2.65 -4.5 2.95 -4.4 Q3.25 -4.25 3.2 -4.05 L3.2 -4.0" fill="#262626" fill-opacity="0.8" fill-rule="evenodd" stroke="none"/>
      <path d="M0.6 -2.25 L0.65 -2.25 0.95 -2.1 0.9 -2.05 0.85 -2.05 0.95 -2.0 Q1.0 -1.95 1.0 -1.9 L0.95 -1.85 1.05 -1.65 Q1.0 -1.6 0.95 -1.6 L1.0 -1.35 Q1.05 -1.3 0.95 -1.3 L0.9 -1.3 0.9 -1.35 0.75 -1.75 0.7 -1.9 0.55 -1.9 Q0.5 -1.9 0.4 -2.0 0.3 -2.05 0.1 -2.1 L0.1 -2.15 Q0.05 -2.15 0.0 -2.2 -0.15 -2.3 0.0 -2.4 L0.1 -2.3 0.1 -2.35 0.05 -2.55 Q0.4 -2.4 0.6 -2.25 M1.85 -4.1 L2.15 -4.1 Q2.3 -4.05 2.4 -3.9 L2.4 -3.6 2.05 -3.2 Q2.2 -2.9 2.45 -2.8 L2.9 -2.65 2.9 -2.45 2.45 -2.1 Q2.45 -2.05 2.45 -1.55 2.45 -1.3 2.25 -1.15 2.1 -1.05 2.0 -1.05 L1.9 -1.05 1.85 -1.0 1.85 -0.85 Q1.85 -0.65 1.95 -0.5 L2.1 -0.4 2.1 -0.3 Q2.1 -0.2 1.95 -0.05 L1.75 0.1 1.7 0.2 1.85 0.25 1.8 0.2 Q1.8 0.1 2.05 0.1 2.1 0.1 2.1 0.15 L2.1 -0.1 2.2 -0.1 2.25 -0.15 2.3 -0.25 2.15 -0.35 2.05 -0.5 2.4 -0.5 Q2.5 -0.55 2.5 -0.8 2.5 -0.9 2.35 -0.95 L2.1 -1.0 2.25 -1.1 2.55 -1.1 Q2.6 -1.05 2.7 -1.15 2.6 -1.15 2.5 -1.25 L2.55 -1.25 Q2.7 -1.2 2.85 -1.35 3.05 -1.5 3.05 -1.9 L3.0 -2.05 2.85 -2.15 2.7 -2.2 Q2.8 -2.4 2.95 -2.45 L3.2 -2.45 3.1 -2.5 Q3.05 -2.5 3.05 -2.55 L3.05 -2.6 Q3.0 -2.65 2.7 -2.75 2.6 -2.85 2.35 -2.95 L2.35 -3.05 2.65 -3.1 Q2.9 -3.15 2.9 -3.55 2.9 -3.6 2.8 -3.7 L2.7 -3.8 2.75 -3.85 Q2.6 -3.9 2.35 -4.15 L2.4 -4.2 Q2.5 -4.2 2.55 -4.25 L2.5 -4.3 2.5 -4.35 Q2.45 -4.35 2.45 -4.4 L2.4 -4.4 2.15 -4.35 2.0 -4.25 1.85 -4.1 M1.0 -3.6 L0.95 -3.6 0.7 -3.35 Q0.4 -3.15 0.2 -3.15 L0.05 -3.15 0.5 -2.85 Q0.65 -2.75 0.8 -2.75 L1.0 -2.75 Q1.05 -2.8 1.2 -2.95 L1.2 -3.2 1.1 -3.25 0.95 -3.2 0.7 -3.15 Q0.6 -3.15 0.65 -3.15 L0.8 -3.35 Q0.95 -3.45 1.0 -3.55 L1.0 -3.6 M0.75 -3.55 L0.95 -3.7 1.05 -3.65 1.1 -3.6 1.1 -3.5 1.05 -3.4 0.95 -3.3 1.15 -3.35 Q1.25 -3.35 1.3 -3.2 L1.35 -3.1 1.35 -2.9 1.2 -2.75 Q1.05 -2.65 1.0 -2.65 L0.7 -2.7 0.45 -2.75 Q0.1 -2.85 0.0 -3.0 -0.05 -2.9 -0.15 -2.9 L-0.35 -2.9 -0.55 -2.95 -0.95 -2.95 -0.95 -3.0 -1.3 -2.95 Q-1.3 -3.05 -1.25 -3.05 L-1.1 -3.1 Q-1.2 -3.1 -1.2 -3.15 L-1.2 -3.2 Q-1.6 -3.25 -1.65 -3.35 L-1.6 -3.3 Q-1.55 -3.3 -1.55 -3.35 -1.55 -3.45 -1.6 -3.45 -1.65 -3.45 -1.8 -3.5 L-1.95 -3.55 -2.35 -3.55 Q-2.6 -3.4 -2.6 -3.3 L-2.6 -3.1 -2.45 -3.0 Q-2.4 -2.9 -2.35 -2.8 L-2.45 -2.8 -3.15 -2.15 Q-3.65 -1.75 -3.95 -1.35 -4.35 -0.8 -4.7 -0.05 -5.2 0.95 -5.15 1.7 L-5.15 2.8 Q-5.0 3.3 -5.0 3.5 L-5.0 3.55 -4.9 3.95 -4.6 4.6 -4.6 4.65 -4.55 4.65 -4.3 5.0 -4.2 5.05 Q-4.15 5.05 -4.1 5.1 L-4.05 5.1 -3.7 5.2 Q-3.4 5.2 -2.95 5.0 -2.4 4.75 -2.4 4.4 L-1.8 3.9 Q-1.45 3.6 -1.2 3.6 L-1.25 3.7 Q-1.25 3.75 -1.1 3.8 L-0.9 3.85 Q-0.55 3.85 -0.25 3.4 0.0 3.0 0.3 3.0 L0.4 3.0 0.4 3.1 0.55 3.1 0.6 3.2 0.9 3.5 Q0.9 3.45 0.95 3.45 L1.1 3.35 Q1.3 3.2 1.35 3.0 L1.3 3.0 Q1.2 3.05 1.15 3.0 L1.3 2.7 Q1.35 2.5 1.4 1.75 1.05 0.85 1.05 0.75 L0.95 0.6 1.05 0.6 1.15 0.8 1.2 0.7 1.35 0.35 Q1.45 0.15 1.55 0.15 1.6 0.0 1.75 -0.1 1.95 -0.2 1.95 -0.35 L1.85 -0.55 Q1.75 -0.8 1.75 -1.05 1.8 -1.15 1.9 -1.15 L1.95 -1.15 2.0 -1.2 2.1 -1.25 Q2.3 -1.35 2.35 -1.65 2.3 -1.95 2.3 -2.05 2.4 -2.25 2.55 -2.35 L2.75 -2.55 Q2.2 -2.75 1.95 -3.1 L1.95 -3.35 2.25 -3.65 2.25 -3.8 Q2.2 -4.0 2.05 -4.0 L1.75 -4.05 1.7 -4.1 1.95 -4.25 1.55 -4.35 Q1.35 -4.35 1.05 -4.15 0.8 -3.95 0.7 -3.7 L0.75 -3.6 0.75 -3.55 M0.3 -3.6 L0.2 -3.7 -0.05 -3.5 -0.25 -3.3 -0.4 -3.2 -0.6 -3.2 -0.35 -3.0 -0.3 -3.0 Q-0.2 -3.05 -0.1 -3.1 L-0.05 -3.1 -0.05 -3.2 Q0.15 -3.2 0.4 -3.35 0.35 -3.35 0.4 -3.4 0.4 -3.5 0.3 -3.6 M2.95 -4.4 Q3.25 -4.25 3.2 -4.05 L3.2 -4.0 3.05 -3.95 3.0 -3.9 Q3.15 -3.85 3.3 -3.75 3.6 -3.5 3.6 -2.95 3.6 -2.7 3.5 -2.65 L3.2 -2.5 Q3.45 -2.4 3.45 -2.35 3.5 -2.25 3.55 -2.0 L3.8 -2.25 3.75 -2.45 Q3.7 -2.5 3.75 -2.55 L3.85 -2.65 4.0 -2.75 Q4.1 -2.8 4.15 -2.8 L4.35 -2.7 4.4 -2.7 4.3 -2.8 4.15 -3.1 Q3.85 -3.35 3.85 -3.45 L3.85 -3.5 3.9 -3.5 4.7 -3.3 Q5.15 -3.1 5.25 -2.95 L5.25 -3.0 5.2 -3.05 5.2 -3.1 5.25 -3.1 Q5.45 -3.1 5.7 -2.95 L6.0 -2.7 6.15 -2.7 6.45 -2.85 6.75 -2.45 Q6.9 -2.2 7.0 -1.55 6.95 -0.75 6.8 -0.45 L6.7 -0.35 6.15 0.05 Q5.65 0.4 5.45 0.65 5.3 0.8 5.15 1.0 L4.85 1.4 4.5 2.15 4.5 2.3 Q4.45 2.45 4.4 2.45 L4.25 2.6 3.95 2.7 Q3.65 2.9 3.4 2.9 L3.15 2.85 2.75 2.75 Q2.25 2.75 1.85 3.0 L1.7 3.2 Q1.3 3.75 1.0 3.75 L0.85 3.7 0.6 3.5 Q0.5 3.75 0.0 4.25 -0.55 4.85 -0.9 5.1 -1.25 5.35 -1.75 5.55 -2.35 5.75 -2.7 5.75 -3.5 5.75 -4.0 5.5 L-4.2 5.35 -4.3 5.25 Q-4.6 4.95 -4.8 4.55 -4.95 4.35 -5.1 4.0 -5.25 3.5 -5.3 3.05 L-5.3 1.7 Q-5.15 0.45 -5.05 0.05 -4.85 -0.2 -4.75 -0.5 -4.65 -0.7 -4.45 -1.0 L-4.1 -1.4 Q-3.8 -1.9 -3.3 -2.3 -3.0 -2.5 -2.5 -2.8 -2.7 -2.95 -2.75 -3.05 L-2.75 -3.3 -2.25 -3.85 Q-2.1 -3.95 -1.8 -3.95 L-1.45 -3.85 -1.05 -3.55 Q-0.85 -3.4 -0.65 -3.35 L-0.35 -3.35 -0.1 -3.65 Q0.15 -3.85 0.3 -3.85 L0.55 -3.8 0.65 -3.75 Q0.75 -4.05 1.0 -4.25 1.3 -4.5 1.55 -4.5 L1.8 -4.45 2.0 -4.4 2.65 -4.5 2.95 -4.4 M0.35 -1.6 Q0.25 -1.7 0.1 -1.7 L0.0 -1.7 -0.2 -1.65 -0.3 -1.6 -0.3 -1.7 -0.4 -1.7 Q-0.45 -1.7 -0.6 -1.55 L-0.55 -1.5 -0.55 -1.35 -0.5 -1.35 Q-0.4 -1.35 -0.35 -1.4 L-0.3 -1.5 -0.15 -1.5 -0.1 -1.55 0.1 -1.45 0.35 -1.4 0.25 -1.35 0.2 -1.3 0.35 -1.15 Q0.45 -1.1 0.45 -1.0 0.45 -0.85 0.45 -0.75 L0.55 -1.15 Q0.55 -1.45 0.4 -1.6 L0.35 -1.6 M2.7 -0.3 L2.65 -0.25 2.7 -0.2 2.85 -0.15 3.05 -0.1 3.25 0.0 3.75 -0.45 Q4.15 -0.85 4.25 -0.85 L4.2 -0.95 Q4.05 -1.15 3.9 -1.2 L3.75 -1.25 3.85 -1.3 4.0 -1.25 4.15 -1.25 Q4.45 -1.25 4.9 -1.1 L5.0 -1.05 4.85 -1.15 Q4.85 -1.45 4.95 -1.65 5.0 -1.75 5.15 -1.8 L5.2 -2.1 5.15 -2.05 4.9 -2.05 Q4.8 -2.1 4.8 -2.25 L4.9 -2.15 5.05 -2.2 5.2 -2.3 5.1 -2.4 5.1 -2.7 5.05 -2.65 4.5 -3.15 4.5 -3.2 4.9 -3.0 Q5.15 -2.9 5.15 -2.8 L5.2 -2.8 Q4.9 -3.05 4.5 -3.2 L3.95 -3.4 Q4.55 -2.9 4.55 -2.6 L4.55 -2.5 4.45 -2.45 4.35 -2.6 4.15 -2.65 4.0 -2.6 3.9 -2.5 3.95 -2.2 3.9 -2.15 Q3.7 -1.85 3.55 -1.85 L3.55 -1.7 Q3.55 -1.3 3.25 -1.15 3.15 -1.05 2.95 -1.05 2.95 -1.0 3.05 -0.95 L3.05 -0.75 Q3.05 -0.55 2.9 -0.4 2.85 -0.35 2.7 -0.3 M2.5 -0.2 L2.4 -0.15 Q2.45 -0.05 2.65 0.05 L2.9 0.15 Q2.9 0.25 2.5 0.5 2.1 0.75 2.0 0.75 L1.95 0.75 1.9 0.95 1.9 1.0 Q2.55 1.6 3.05 1.6 3.2 1.6 3.6 1.35 L3.85 1.1 3.95 0.95 3.95 0.8 Q3.7 0.5 3.75 0.2 4.0 -0.2 4.15 -0.2 L4.15 -0.25 4.2 -0.2 4.5 -0.1 4.55 -0.05 Q4.5 -0.45 4.35 -0.75 L3.8 -0.35 Q3.7 -0.3 3.5 -0.05 3.35 0.15 3.2 0.15 L2.85 0.0 Q2.6 -0.1 2.5 -0.2 M0.45 -1.75 Q0.7 -1.55 0.7 -1.1 0.7 -0.25 0.05 0.5 L-0.2 0.75 -0.25 0.75 -0.45 0.95 Q-0.55 1.05 -0.75 1.15 -0.65 1.25 -0.55 1.25 L-0.4 1.25 -0.55 1.55 -0.6 1.6 -0.6 1.7 -0.65 2.05 Q-0.6 2.05 -0.55 2.25 L-0.55 2.25 Q-0.6 2.4 -0.7 2.65 -0.9 2.9 -1.05 2.9 L-1.3 2.8 Q-1.5 2.7 -1.4 2.6 -1.3 2.65 -1.25 2.7 -1.1 2.65 -1.05 2.6 L-1.0 2.35 Q-0.95 2.15 -0.95 1.7 L-1.25 1.05 -1.25 1.0 -1.35 0.75 Q-1.45 0.35 -1.4 0.1 L-1.4 0.0 -1.5 0.1 -1.5 0.0 -1.35 -0.95 Q-1.15 -1.6 -1.15 -1.9 -1.15 -2.1 -1.25 -2.2 -1.3 -2.3 -1.4 -2.3 L-1.05 -2.3 -1.05 -2.35 -1.0 -2.35 Q-0.8 -2.35 -0.7 -2.15 -0.55 -2.0 -0.55 -1.7 L-0.5 -1.7 -0.35 -1.8 -0.25 -1.75 -0.3 -1.75 -0.25 -1.65 Q-0.2 -1.8 0.1 -1.8 L0.0 -1.85 0.25 -1.9 Q0.35 -1.9 0.45 -1.75 M5.3 -2.7 L5.2 -2.7 5.2 -2.45 5.3 -2.35 5.3 -1.9 Q5.3 -1.7 5.05 -1.6 5.05 -1.35 4.95 -1.25 L5.15 -1.1 Q5.3 -1.0 5.3 -0.9 5.5 -0.75 5.55 -0.55 L5.65 -0.6 5.85 -0.75 Q5.85 -1.1 5.95 -1.2 L6.05 -1.2 6.05 -1.45 Q6.0 -1.4 5.9 -1.35 L5.7 -1.25 5.7 -1.05 5.6 -0.95 5.45 -1.1 5.35 -1.1 5.35 -1.15 5.3 -1.3 Q5.4 -1.5 5.6 -1.6 L5.6 -1.85 5.55 -2.15 5.6 -2.2 5.65 -2.2 Q5.75 -2.1 5.95 -1.7 L5.85 -2.1 5.85 -2.15 5.9 -2.15 5.95 -2.05 5.95 -1.95 6.0 -1.95 Q6.15 -1.6 6.15 -1.45 6.15 -1.25 6.0 -1.15 L5.95 -1.05 5.9 -0.9 Q5.85 -0.85 5.9 -0.85 L5.95 -0.85 6.0 -0.8 6.0 -0.65 5.85 -0.5 5.6 -0.45 5.5 -0.45 5.5 -0.4 5.4 -0.2 5.4 -0.15 Q5.4 -0.05 5.3 0.0 5.2 0.1 5.15 0.1 L5.1 0.1 4.95 0.0 Q4.95 -0.3 4.8 -0.55 L4.65 -0.85 Q4.5 -0.95 4.5 -1.05 L4.95 -0.85 Q5.35 -0.65 5.4 -0.25 L5.4 -0.3 Q5.45 -0.65 4.9 -0.95 4.45 -1.15 4.05 -1.2 L4.3 -1.0 Q4.5 -0.7 4.7 -0.25 L4.7 0.0 4.95 0.15 Q4.85 0.2 4.85 0.25 4.75 0.2 4.7 0.1 L4.65 0.15 4.6 0.15 Q4.45 0.1 4.3 0.0 L4.15 -0.1 4.05 0.05 3.85 0.25 Q3.85 0.4 4.0 0.55 L4.15 0.75 4.15 0.95 4.1 1.0 Q4.05 1.25 3.65 1.45 3.25 1.7 3.05 1.7 L2.7 1.65 Q2.45 1.6 2.4 1.5 L2.05 1.3 1.9 1.1 1.85 1.4 1.85 1.45 Q2.0 1.85 2.1 2.0 L2.1 2.25 Q2.1 2.45 2.0 2.7 L2.2 2.65 2.7 2.6 2.85 2.6 3.25 2.55 3.3 2.45 3.5 2.15 Q3.7 1.95 3.9 1.85 L3.95 1.85 3.85 1.95 3.95 1.9 4.1 1.7 4.15 1.65 4.35 1.2 4.35 0.8 4.4 0.8 Q4.45 0.8 4.45 0.85 4.5 0.85 4.65 0.7 4.7 0.65 4.8 0.35 L5.05 0.4 Q5.2 0.35 5.25 0.3 L5.35 0.2 Q5.55 0.0 5.6 -0.2 5.65 -0.15 5.7 -0.15 L6.1 -0.55 6.1 -0.85 6.25 -1.0 Q6.35 -1.1 6.35 -1.2 L6.35 -1.4 Q6.35 -1.7 6.2 -1.9 L6.15 -1.95 6.25 -2.1 Q6.3 -2.25 6.3 -2.4 6.3 -2.55 6.2 -2.6 L6.15 -2.55 6.05 -2.55 6.0 -2.5 5.7 -2.8 Q5.5 -3.0 5.3 -3.0 L5.35 -2.8 5.3 -2.7 M-2.0 -1.6 L-2.05 -1.65 -2.0 -1.7 -1.85 -1.6 -1.85 -1.5 Q-1.9 -1.25 -2.0 -1.15 -2.05 -0.95 -2.1 0.3 L-2.15 -0.2 -2.15 -0.55 Q-2.15 -0.95 -2.05 -1.25 L-1.95 -1.55 -2.0 -1.6 M4.6 0.2 L4.6 0.35 4.55 0.5 4.45 0.6 Q4.4 0.6 4.35 0.55 4.3 0.45 4.3 0.35 L4.25 0.25 4.15 0.1 4.2 0.1 Q4.45 0.25 4.6 0.2 M4.2 -2.35 Q4.1 -2.35 4.1 -2.45 4.1 -2.55 4.15 -2.6 L4.35 -2.45 4.3 -2.4 Q4.25 -2.35 4.2 -2.35 M5.75 -2.35 Q5.65 -2.45 5.6 -2.55 5.55 -2.65 5.6 -2.85 L5.8 -2.65 Q6.0 -2.5 6.0 -2.35 L5.95 -2.25 6.05 -2.3 Q6.0 -2.35 6.0 -2.45 L6.0 -2.5 6.05 -2.5 6.1 -2.3 6.0 -2.2 6.0 -2.15 5.9 -2.2 5.75 -2.35" fill="#c1ff3f" fill-rule="evenodd" stroke="none"/>
      <path d="M-1.05 2.9 L-1.3 2.8 Q-1.5 2.7 -1.4 2.6 L-1.25 2.7 -1.05 2.75 Q-1.0 2.75 -0.85 2.6 -0.7 2.35 -0.55 2.25 -0.6 2.4 -0.7 2.65 -0.9 2.9 -1.05 2.9 M-2.0 -1.6 L-2.05 -1.65 -2.0 -1.7 -1.85 -1.6 -1.85 -1.5 Q-1.9 -1.25 -2.0 -1.15 -2.05 -0.95 -2.1 0.3 L-2.15 -0.2 -2.15 -0.55 Q-2.15 -0.95 -2.05 -1.25 L-1.95 -1.55 -2.0 -1.6 M-1.1 -3.1 Q-1.2 -3.1 -1.2 -3.15 L-1.2 -3.2 -1.0 -3.15 Q-0.85 -3.1 -0.8 -3.05 L-0.85 -3.0 -1.3 -2.95 Q-1.3 -3.05 -1.25 -3.05 L-1.1 -3.1 M1.6 0.55 L1.6 0.55 M6.05 -2.3 Q6.0 -2.35 6.0 -2.45 L6.0 -2.5 6.1 -2.45 6.15 -2.3 6.1 -2.15 6.0 -2.15 5.9 -2.2 5.85 -2.25 5.85 -2.3 Q5.9 -2.25 6.05 -2.3 M4.05 -1.2 L4.3 -1.0 Q4.5 -0.7 4.7 -0.25 L4.7 0.0 Q4.9 0.15 4.95 0.15 5.15 0.15 5.25 -0.05 L5.4 -0.3 Q5.45 -0.65 4.9 -0.95 4.45 -1.15 4.05 -1.2 M5.3 -2.7 L5.2 -2.7 5.2 -2.45 5.3 -2.35 5.3 -1.9 Q5.3 -1.7 5.05 -1.6 5.05 -1.35 4.95 -1.25 L5.15 -1.1 Q5.3 -1.0 5.3 -0.9 5.5 -0.75 5.55 -0.55 L5.65 -0.6 5.85 -0.75 Q5.85 -1.1 5.95 -1.2 L6.05 -1.2 6.05 -1.4 5.85 -2.1 5.85 -2.15 5.9 -2.15 Q5.95 -2.15 6.05 -1.9 6.15 -1.65 6.15 -1.45 L6.2 -1.15 6.0 -1.05 6.0 -0.65 5.85 -0.5 5.6 -0.45 5.55 -0.45 5.55 -0.3 Q5.35 0.25 5.0 0.25 4.75 0.25 4.7 0.1 L4.65 0.15 4.6 0.15 Q4.45 0.1 4.3 0.0 L4.15 -0.1 4.05 0.05 3.85 0.25 Q3.85 0.4 4.0 0.55 L4.15 0.75 4.15 0.95 4.1 1.0 Q4.05 1.25 3.65 1.45 3.25 1.7 3.05 1.7 L2.7 1.65 Q2.45 1.6 2.4 1.5 L2.05 1.3 1.9 1.1 1.85 1.4 1.85 1.45 Q2.0 1.85 2.1 2.0 L2.1 2.25 Q2.1 2.45 2.0 2.7 L2.2 2.65 2.7 2.6 Q2.95 2.6 3.25 2.7 L3.5 2.8 Q3.7 2.8 3.95 2.6 L4.3 2.4 4.35 2.2 4.35 2.15 Q4.65 1.3 5.35 0.55 5.95 -0.05 6.6 -0.4 L6.75 -0.75 Q6.85 -1.1 6.85 -1.6 6.85 -1.95 6.7 -2.3 6.55 -2.65 6.45 -2.65 L6.25 -2.6 6.1 -2.55 6.05 -2.55 6.0 -2.5 5.7 -2.8 Q5.5 -3.0 5.3 -3.0 L5.35 -2.8 5.3 -2.7 M2.7 -0.3 L2.65 -0.25 2.7 -0.2 2.85 -0.15 3.05 -0.1 3.25 0.0 3.75 -0.45 Q4.15 -0.85 4.25 -0.85 L4.2 -0.95 Q4.05 -1.15 3.9 -1.2 L3.75 -1.25 3.85 -1.3 4.0 -1.25 4.15 -1.25 Q4.45 -1.25 4.9 -1.1 L5.0 -1.05 4.85 -1.15 Q4.85 -1.45 4.95 -1.65 5.0 -1.75 5.15 -1.8 L5.2 -2.1 5.15 -2.05 4.9 -2.05 Q4.8 -2.1 4.8 -2.25 L4.9 -2.15 5.05 -2.2 5.2 -2.3 5.1 -2.4 5.1 -2.75 5.2 -2.8 Q4.9 -3.05 4.5 -3.2 L3.95 -3.4 Q4.55 -2.9 4.55 -2.6 L4.55 -2.5 4.45 -2.45 4.35 -2.6 4.15 -2.65 4.0 -2.6 3.9 -2.5 3.95 -2.2 3.9 -2.15 Q3.7 -1.85 3.55 -1.85 L3.55 -1.7 Q3.55 -1.3 3.25 -1.15 3.15 -1.05 2.95 -1.05 2.95 -1.0 3.05 -0.95 L3.05 -0.75 Q3.05 -0.55 2.9 -0.4 2.85 -0.35 2.7 -0.3 M2.5 -0.2 L2.4 -0.15 Q2.45 -0.05 2.65 0.05 L2.9 0.15 Q2.9 0.25 2.5 0.5 2.1 0.75 2.0 0.75 L1.95 0.75 1.9 0.95 1.9 1.0 Q2.55 1.6 3.05 1.6 3.2 1.6 3.6 1.35 L3.85 1.1 3.95 0.95 3.95 0.8 Q3.7 0.5 3.75 0.2 4.0 -0.2 4.15 -0.2 L4.15 -0.25 4.2 -0.2 4.5 -0.1 4.55 -0.05 Q4.5 -0.45 4.35 -0.75 L3.8 -0.35 Q3.7 -0.3 3.5 -0.05 3.35 0.15 3.2 0.15 L2.85 0.0 Q2.6 -0.1 2.5 -0.2 M0.45 -1.75 Q0.7 -1.55 0.7 -1.1 0.7 -0.25 0.05 0.5 -0.25 0.85 -0.6 1.05 L-0.65 1.05 -0.85 0.75 Q-1.0 0.35 -1.0 -0.15 -1.0 -0.9 -0.85 -1.3 -0.7 -1.65 -0.7 -1.75 -0.7 -2.05 -0.85 -2.2 L-1.05 -2.3 -1.05 -2.35 -1.0 -2.35 Q-0.8 -2.35 -0.7 -2.15 -0.55 -2.0 -0.55 -1.7 L-0.5 -1.7 -0.35 -1.8 -0.25 -1.75 -0.3 -1.75 -0.25 -1.65 Q-0.2 -1.8 0.1 -1.8 L0.0 -1.85 0.25 -1.9 Q0.35 -1.9 0.45 -1.75 M0.45 -1.15 Q0.45 -1.55 0.25 -1.7 L-0.25 -1.6 Q-0.3 -1.6 -0.3 -1.65 L-0.4 -1.65 -0.55 -1.6 -0.55 -1.55 Q-0.55 -1.45 -0.6 -1.35 L-0.65 -1.15 -0.75 -0.85 Q-0.8 -0.45 -0.8 0.0 -0.8 0.25 -0.7 0.55 L-0.55 0.85 Q-0.3 0.7 0.0 0.3 0.45 -0.3 0.45 -1.15 M1.05 -3.65 L1.1 -3.6 1.1 -3.5 1.05 -3.4 0.95 -3.3 1.15 -3.35 Q1.25 -3.35 1.3 -3.2 L1.35 -3.1 1.35 -2.9 1.2 -2.75 Q1.05 -2.65 1.0 -2.65 L0.7 -2.7 0.45 -2.75 Q0.1 -2.85 0.0 -3.0 -0.05 -2.9 -0.15 -2.9 L-0.35 -2.9 Q-0.4 -2.9 -0.55 -2.95 L-0.55 -3.0 -0.3 -3.0 Q-0.2 -3.05 -0.1 -3.1 L-0.05 -3.1 -0.05 -3.2 Q0.25 -3.2 0.6 -3.45 L0.95 -3.7 1.05 -3.65 M1.0 -3.6 L0.95 -3.6 0.7 -3.35 Q0.4 -3.15 0.2 -3.15 L0.05 -3.15 0.5 -2.85 Q0.65 -2.75 0.8 -2.75 L1.0 -2.75 Q1.05 -2.8 1.2 -2.95 L1.2 -3.2 1.1 -3.25 0.95 -3.2 0.7 -3.15 Q0.6 -3.15 0.65 -3.15 L0.8 -3.35 Q0.95 -3.45 1.0 -3.55 L1.0 -3.6 M0.5 -3.65 Q0.35 -3.75 0.3 -3.75 0.2 -3.75 -0.05 -3.5 L-0.25 -3.3 -0.4 -3.2 -0.5 -3.2 Q-0.8 -3.2 -1.2 -3.45 -1.6 -3.75 -1.8 -3.75 -1.95 -3.75 -2.25 -3.6 -2.6 -3.45 -2.6 -3.3 L-2.6 -3.1 -2.45 -3.0 Q-2.4 -2.9 -2.35 -2.8 L-2.45 -2.8 -3.15 -2.15 Q-3.65 -1.75 -3.95 -1.35 -4.35 -0.8 -4.7 -0.05 -5.2 0.95 -5.15 1.7 L-5.15 2.8 Q-5.0 3.3 -5.0 3.5 L-5.0 3.55 -4.9 3.95 -4.6 4.6 -4.6 4.65 -4.55 4.65 Q-4.35 5.0 -4.1 5.15 -3.85 5.3 -3.55 5.4 -3.25 5.55 -3.0 5.55 -2.55 5.55 -2.1 5.4 -1.6 5.25 -1.2 5.05 -0.65 4.7 -0.3 4.3 L0.1 3.85 0.45 3.3 Q0.4 3.15 0.55 3.1 0.95 3.55 1.0 3.55 1.2 3.55 1.6 3.0 2.0 2.4 1.95 2.05 L1.75 1.65 1.65 1.3 Q1.5 0.95 1.55 0.8 L1.6 0.8 1.7 1.25 1.75 1.05 Q1.75 0.8 1.8 0.7 1.6 0.6 1.55 0.2 1.55 0.0 1.75 -0.1 1.95 -0.2 1.95 -0.35 L1.85 -0.55 Q1.75 -0.8 1.75 -1.05 1.8 -1.15 1.9 -1.15 L1.95 -1.15 2.0 -1.2 2.1 -1.25 Q2.3 -1.35 2.35 -1.65 2.3 -1.95 2.3 -2.05 2.4 -2.25 2.55 -2.35 L2.75 -2.55 Q2.2 -2.75 1.95 -3.1 L1.95 -3.35 2.25 -3.65 2.25 -3.8 Q2.2 -4.0 2.05 -4.0 L1.75 -4.05 1.7 -4.1 1.95 -4.25 1.55 -4.35 Q1.35 -4.35 1.05 -4.15 0.8 -3.95 0.7 -3.7 L0.75 -3.6 Q0.75 -3.55 0.7 -3.55 0.65 -3.55 0.5 -3.65 M3.2 -4.0 L3.05 -3.95 2.95 -3.9 Q3.15 -3.85 3.3 -3.75 3.6 -3.5 3.6 -2.95 3.6 -2.7 3.5 -2.65 L3.2 -2.5 Q3.45 -2.4 3.45 -2.35 3.5 -2.25 3.55 -2.0 L3.8 -2.25 3.75 -2.45 Q3.7 -2.5 3.75 -2.55 L3.85 -2.65 4.0 -2.75 Q4.1 -2.8 4.15 -2.8 L4.35 -2.7 4.4 -2.7 4.3 -2.8 4.15 -3.1 Q3.85 -3.35 3.85 -3.45 L3.85 -3.5 3.9 -3.5 4.7 -3.3 Q5.15 -3.1 5.25 -2.95 L5.25 -3.0 5.2 -3.05 5.2 -3.1 5.25 -3.1 Q5.45 -3.1 5.7 -2.95 L6.0 -2.7 6.15 -2.7 6.45 -2.85 6.75 -2.45 Q6.9 -2.2 7.0 -1.55 6.95 -0.75 6.8 -0.45 L6.7 -0.35 6.15 0.05 Q5.65 0.4 5.45 0.65 5.3 0.8 5.15 1.0 L4.85 1.4 4.5 2.15 4.5 2.3 Q4.45 2.45 4.4 2.45 L4.25 2.6 3.95 2.7 Q3.65 2.9 3.4 2.9 L3.15 2.85 2.75 2.75 Q2.25 2.75 1.85 3.0 L1.7 3.2 Q1.3 3.75 1.0 3.75 L0.85 3.7 0.6 3.5 Q0.5 3.75 0.0 4.25 -0.55 4.85 -0.9 5.1 -1.25 5.35 -1.75 5.55 -2.35 5.75 -2.7 5.75 -3.5 5.75 -4.0 5.5 -4.5 5.2 -4.8 4.55 -4.95 4.35 -5.1 4.0 -5.25 3.5 -5.3 3.05 L-5.3 1.7 Q-5.15 0.45 -5.05 0.05 -4.85 -0.2 -4.75 -0.5 -4.65 -0.7 -4.45 -1.0 L-4.1 -1.4 Q-3.8 -1.9 -3.3 -2.3 -3.0 -2.5 -2.5 -2.8 -2.7 -2.95 -2.75 -3.05 L-2.75 -3.3 -2.25 -3.85 Q-2.1 -3.95 -1.8 -3.95 L-1.45 -3.85 -1.05 -3.55 Q-0.85 -3.4 -0.65 -3.35 L-0.35 -3.35 -0.1 -3.65 Q0.15 -3.85 0.3 -3.85 L0.55 -3.8 0.65 -3.75 Q0.75 -4.05 1.0 -4.25 1.3 -4.5 1.55 -4.5 L1.8 -4.45 2.0 -4.4 2.65 -4.5 2.95 -4.4 Q3.25 -4.25 3.2 -4.05 L3.2 -4.0 M2.95 -4.0 L3.0 -4.05 3.1 -4.1 Q2.95 -4.3 2.75 -4.35 L2.4 -4.4 2.15 -4.35 2.0 -4.25 1.85 -4.1 2.15 -4.1 Q2.3 -4.05 2.4 -3.9 L2.4 -3.6 2.05 -3.2 Q2.2 -2.9 2.45 -2.8 L2.9 -2.65 2.9 -2.45 2.45 -2.1 Q2.45 -2.05 2.45 -1.55 2.45 -1.3 2.25 -1.15 2.1 -1.05 2.0 -1.05 L1.9 -1.05 1.85 -1.0 1.85 -0.85 Q1.85 -0.65 1.95 -0.5 L2.1 -0.4 2.1 -0.3 Q2.1 -0.2 1.95 -0.05 L1.75 0.1 1.7 0.25 Q1.7 0.5 1.85 0.55 L2.05 0.6 2.25 0.45 2.7 0.2 Q2.6 0.2 2.45 0.1 2.25 0.0 2.25 -0.15 2.25 -0.3 2.5 -0.35 2.8 -0.45 2.9 -0.6 L2.95 -0.9 Q2.8 -0.85 2.7 -1.05 2.8 -1.15 3.1 -1.25 3.2 -1.25 3.3 -1.4 3.45 -1.65 3.45 -2.0 3.45 -2.3 3.25 -2.4 L3.1 -2.5 Q3.05 -2.5 3.05 -2.55 L3.05 -2.6 Q3.1 -2.7 3.25 -2.7 3.4 -2.75 3.45 -2.85 L3.45 -3.05 Q3.4 -3.55 3.2 -3.7 L2.85 -3.9 2.95 -4.0" fill="#31a800" fill-rule="evenodd" stroke="none"/>
    </g>
  </defs>
</svg>
