<?xml version="1.0" encoding="UTF-8" standalone="no"?>
<svg xmlns:ffdec="https://www.free-decompiler.com/flash" xmlns:xlink="http://www.w3.org/1999/xlink" ffdec:objectType="frame" height="287.35px" width="115.85px" xmlns="http://www.w3.org/2000/svg">
  <g transform="matrix(1.0, 0.0, 0.0, 1.0, 57.4, 37.8)">
    <use ffdec:characterId="3953" height="36.85" transform="matrix(7.0, 0.0, 0.0, 7.0, -39.9, -30.45)" width="13.7" xlink:href="#shape0"/>
    <use ffdec:characterId="3954" height="9.6" transform="matrix(7.0, 0.0, 0.0, 7.0, -36.4, -30.45)" width="11.9" xlink:href="#shape1"/>
  </g>
  <defs>
    <g id="shape0" transform="matrix(1.0, 0.0, 0.0, 1.0, 5.7, 4.35)">
      <path d="M-4.8 3.65 L-4.75 3.75 Q-4.55 4.3 -4.3 4.5 L-4.45 4.8 -4.75 5.6 -4.75 5.65 -4.8 5.75 Q-4.95 6.1 -5.05 6.9 L-5.05 7.15 -5.2 8.3 -5.2 8.7 -5.15 8.9 -5.15 9.3 -5.2 9.4 -5.2 10.0 -5.05 10.6 -5.0 10.7 -5.0 10.8 -4.6 11.5 Q-4.5 11.75 -4.2 12.15 L-3.85 12.75 -3.1 13.9 Q-2.7 14.65 -2.4 15.75 L-2.4 16.45 Q-2.55 17.2 -2.75 17.5 L-2.75 17.55 -2.8 17.55 -2.85 17.65 -2.95 17.7 Q-2.85 17.65 -2.8 17.5 L-2.75 17.4 -2.7 17.0 -2.7 16.85 -2.75 16.65 Q-2.8 16.2 -2.9 15.95 L-2.9 16.0 -3.0 15.75 -3.15 15.4 -3.5 14.75 -3.7 14.45 -3.75 14.3 -4.25 13.3 Q-4.45 12.9 -4.75 12.3 -5.0 11.65 -5.2 11.05 L-5.25 10.8 Q-5.2 10.7 -5.25 10.5 L-5.3 10.25 -5.3 10.15 -5.35 10.15 Q-5.4 9.85 -5.4 9.45 L-5.4 8.3 -5.35 8.1 -5.35 8.0 -5.3 7.9 -5.3 7.55 -5.25 7.3 -5.2 7.0 -5.15 6.9 -5.15 6.75 -5.1 6.65 Q-5.1 6.3 -5.05 6.25 L-4.95 5.95 -4.9 5.65 -4.75 5.1 -4.65 4.6 -4.7 4.55 -4.8 3.65 M-5.05 6.75 L-5.05 6.75 M-3.45 18.5 L-3.65 18.75 -3.8 18.9 -3.9 19.05 -4.4 19.55 Q-4.65 19.9 -5.15 20.35 -5.2 20.5 -5.2 20.65 -5.2 21.1 -4.9 21.3 -4.5 21.45 -4.1 21.45 L-3.85 21.45 -3.75 21.4 -3.7 21.4 -3.75 21.45 -3.9 21.5 -4.0 21.55 -4.25 21.55 Q-4.65 21.55 -5.0 21.3 L-5.4 21.05 Q-5.7 20.8 -5.7 20.65 L-5.7 20.35 Q-5.55 19.95 -5.25 19.75 -5.1 19.6 -4.65 19.4 -4.3 19.25 -4.1 19.1 -3.9 18.95 -3.6 18.65 L-3.5 18.5 -3.45 18.5" fill="#262626" fill-opacity="0.8" fill-rule="evenodd" stroke="none"/>
      <path d="M1.9 3.15 L1.95 3.1 Q1.95 3.5 2.1 4.1 L2.2 4.3 2.6 5.25 Q2.75 5.75 2.7 6.15 L2.75 6.15 2.7 7.3 Q2.55 8.65 2.35 9.15 2.2 9.45 1.9 9.9 1.75 10.15 1.4 10.5 L1.4 10.55 Q1.2 10.65 1.0 10.85 L0.75 11.15 0.15 11.75 -0.5 12.45 Q-0.7 12.7 -0.8 13.0 L-1.0 13.3 Q-1.2 13.6 -1.25 13.95 L-1.3 14.0 Q-1.35 14.1 -1.35 14.4 L-1.25 15.15 Q-1.15 15.6 -0.85 16.15 L-0.75 16.3 -0.4 16.8 0.4 17.7 1.95 19.0 1.55 18.75 Q2.1 19.15 2.45 19.35 3.35 19.8 3.9 20.3 4.6 20.95 4.9 21.75 5.1 22.0 5.0 22.15 L5.0 22.05 4.9 21.8 Q4.65 21.3 3.85 20.75 3.0 20.25 2.2 20.0 2.0 19.9 1.5 19.65 L0.5 19.05 Q-0.6 18.55 -1.25 17.35 -1.7 16.5 -1.85 15.6 L-1.85 15.15 -1.8 15.0 -1.8 14.8 -1.75 14.4 Q-1.65 14.1 -1.5 13.9 L-1.35 13.6 -1.15 13.3 Q-1.1 13.1 -0.9 12.85 L-0.7 12.6 -0.6 12.25 Q-0.25 11.35 -0.25 10.6 L-0.25 10.0 Q-0.4 8.8 -0.65 7.85 L-0.95 6.7 Q-1.05 6.45 -1.35 6.15 L-1.6 5.8 -1.8 5.7 -1.85 5.65 -2.25 5.45 Q-2.55 5.3 -2.75 5.2 L-2.65 5.15 -2.65 5.1 -2.25 5.1 -1.9 5.05 Q-1.75 5.1 -1.55 4.95 L-1.2 4.75 Q-0.8 4.6 -0.45 4.25 L-0.1 3.85 Q0.25 3.5 0.3 3.5 L0.45 3.6 0.55 3.8 Q0.6 3.9 0.7 3.95 0.8 4.05 0.9 4.05 1.1 4.05 1.45 3.7 1.75 3.4 1.9 3.15 M0.25 24.45 Q1.1 24.8 1.9 25.0 L3.5 25.1 4.0 25.1 Q4.2 25.05 4.35 25.0 4.1 25.15 3.65 25.25 L2.9 25.3 Q2.35 25.3 1.45 25.0 0.5 24.75 0.2 24.45 L0.25 24.45" fill="#262626" fill-opacity="0.8" fill-rule="evenodd" stroke="none"/>
      <path d="M6.45 6.75 L6.2 7.2 Q6.05 7.45 5.9 7.55 L5.8 7.6 Q5.7 7.85 5.6 8.0 5.45 8.15 5.3 8.15 5.2 8.15 5.1 8.05 L4.95 8.05 Q4.75 8.15 4.55 8.3 L4.4 8.5 4.2 8.8 4.1 9.0 Q4.0 9.25 3.9 9.55 L3.75 10.15 3.65 10.95 3.65 11.9 Q3.6 11.95 3.6 12.3 L3.6 12.8 3.55 12.6 3.4 11.8 3.4 9.75 Q3.6 8.6 3.95 8.25 4.2 8.0 4.75 8.0 L4.9 8.0 5.7 7.6 5.75 7.6 5.75 6.5 Q5.55 5.45 5.25 4.6 5.0 3.8 4.7 3.35 L4.65 3.25 4.05 2.4 4.45 2.15 Q4.75 2.05 4.85 1.4 L5.2 0.5 Q5.3 1.05 5.7 1.85 L6.1 2.6 6.25 2.9 Q6.4 3.15 6.6 3.9 6.85 4.85 6.7 5.8 6.65 6.5 6.45 6.75 M3.55 13.05 Q3.6 13.6 3.95 14.55 L4.25 15.4 Q4.5 15.7 4.8 15.95 5.35 16.35 5.95 16.35 L6.3 16.3 Q6.5 16.2 6.55 16.0 L6.6 16.0 Q6.6 16.4 6.25 16.6 6.05 16.7 5.75 16.7 5.5 16.7 5.25 16.55 4.95 16.45 4.75 16.3 4.5 16.05 4.3 15.75 4.05 15.4 4.0 15.1 3.85 14.85 3.75 14.5 3.55 13.7 3.55 13.3 L3.55 13.05 M7.05 17.2 L7.1 17.2 Q7.2 17.55 7.5 17.95 7.85 18.3 8.0 18.75 L8.0 19.05 7.95 19.05 Q7.9 18.7 7.75 18.5 L7.5 18.15 7.35 18.0 7.25 17.8 7.05 17.25 7.05 17.2 M6.3 20.5 Q6.05 20.5 5.65 20.3 5.3 20.1 5.2 19.95 L5.2 19.9 Q5.4 20.15 5.8 20.3 6.15 20.4 6.5 20.4 L6.9 20.4 Q7.1 20.35 7.35 20.15 L7.2 20.3 Q7.15 20.4 6.9 20.45 L6.7 20.5 6.3 20.5" fill="#262626" fill-opacity="0.8" fill-rule="evenodd" stroke="none"/>
      <path d="M4.3 -0.6 L4.25 -0.5 4.4 -0.4 4.25 -0.75 4.2 -0.75 4.3 -0.6 M3.35 0.0 L3.25 0.0 Q3.3 0.25 3.4 0.35 3.45 0.4 3.6 0.45 3.45 0.6 3.25 0.65 L2.9 0.75 Q2.6 0.85 2.4 1.05 L2.75 1.3 Q3.05 1.45 3.2 1.45 L3.65 1.3 Q4.05 1.05 4.05 0.75 4.05 0.65 3.9 0.45 L3.65 0.25 3.65 0.15 3.7 0.05 3.5 0.05 3.35 0.0 M3.0 -4.1 L3.4 -4.15 3.65 -4.1 3.75 -4.05 3.95 -4.05 3.8 -4.15 Q3.7 -4.25 3.65 -4.35 L3.7 -4.35 Q4.05 -4.35 4.55 -4.15 5.2 -3.85 5.25 -3.35 L5.35 -3.35 5.7 -3.1 6.0 -3.25 Q6.25 -3.35 6.3 -3.35 6.4 -3.35 6.5 -3.2 6.7 -3.0 6.7 -2.35 L6.65 -1.95 6.6 -1.25 6.65 -0.8 6.65 -0.55 6.7 -0.55 6.7 0.25 Q6.8 0.8 6.7 1.3 L6.7 1.9 6.8 2.65 6.85 2.65 6.8 3.45 Q6.75 4.35 6.6 4.65 6.55 4.85 6.35 5.0 L6.3 5.0 6.15 4.95 6.1 4.9 Q6.1 4.3 6.2 4.05 6.35 3.95 6.35 3.85 L6.35 3.65 6.4 3.4 Q6.4 2.9 6.25 2.5 L6.2 2.4 Q6.15 2.4 6.05 2.4 6.0 2.4 5.9 2.45 L5.8 2.5 Q5.6 2.35 5.5 2.35 5.35 2.35 5.1 2.75 4.9 3.25 4.9 3.9 L4.9 4.75 5.0 5.55 5.0 5.75 5.05 5.95 5.0 6.0 Q5.0 6.1 5.1 6.1 L5.2 6.1 5.3 6.4 5.3 7.2 Q5.25 8.15 5.15 8.55 5.1 8.75 4.95 8.9 L4.75 8.7 4.65 8.8 4.55 8.85 4.55 9.25 4.5 9.25 4.45 10.15 4.35 10.8 4.2 10.9 Q4.1 10.95 4.0 10.95 3.85 10.95 3.75 10.6 L3.65 10.7 3.5 10.75 Q3.35 10.75 3.2 10.2 3.1 9.65 2.85 9.45 L2.75 9.5 2.65 9.6 2.6 10.05 2.5 10.0 2.35 10.0 Q2.25 10.0 2.05 10.45 1.9 10.95 1.9 11.5 L1.9 11.9 Q2.0 12.9 2.05 13.25 L2.15 13.75 2.25 13.8 Q2.3 13.9 2.3 14.0 L2.2 15.1 2.15 15.15 2.05 15.2 2.0 15.25 1.95 15.35 1.9 15.85 1.9 16.35 Q1.95 16.7 2.0 16.7 2.0 17.2 2.05 17.2 2.2 18.2 2.45 18.6 2.5 18.7 2.9 19.0 L2.95 19.05 2.95 20.1 2.65 20.2 Q2.5 20.4 2.4 21.0 2.3 21.55 2.15 21.8 2.05 22.0 1.85 22.15 L1.8 22.1 1.75 21.95 1.4 21.7 Q1.15 21.5 1.1 21.1 L0.85 19.3 0.65 18.85 Q0.65 18.0 0.65 17.8 L0.7 17.25 0.8 17.1 0.85 17.0 Q0.85 17.05 1.0 17.05 1.1 17.05 1.2 16.8 L1.35 16.25 1.35 15.9 1.3 15.5 1.25 15.25 1.25 14.95 1.1 14.55 1.0 14.2 0.9 14.0 0.8 13.85 0.7 13.55 0.55 13.3 0.65 13.15 0.65 13.2 Q0.5 12.15 -0.05 11.55 -0.5 11.0 -0.95 11.0 -1.05 11.0 -1.2 11.15 L-1.45 11.3 -1.5 11.3 -1.7 11.45 -1.85 11.35 Q-1.95 11.25 -1.95 11.05 -1.95 10.35 -1.8 10.05 -1.65 9.75 -1.65 9.45 -1.6 8.0 -1.9 7.45 -2.05 7.2 -2.35 7.2 -2.6 7.2 -2.75 7.35 -2.8 7.45 -2.9 7.7 L-2.85 7.65 -2.85 7.7 -2.95 7.85 -2.95 7.9 -3.1 8.1 Q-3.25 8.15 -3.45 8.15 -3.65 8.15 -3.8 7.95 -4.0 7.7 -4.0 7.25 L-4.0 6.8 -3.9 6.9 -3.8 6.75 Q-3.95 5.75 -4.15 5.4 -4.25 5.2 -4.65 5.0 L-4.8 5.15 -4.9 5.75 Q-4.9 6.0 -4.95 6.05 L-5.0 6.1 -5.1 6.05 -5.15 5.35 -5.2 5.1 -5.2 5.15 -5.25 4.8 -5.3 4.35 Q-5.3 3.5 -5.25 3.45 L-5.2 2.95 -5.2 1.2 Q-5.2 0.5 -4.65 -0.65 -4.0 -1.9 -3.1 -2.5 L-2.45 -2.95 Q-2.05 -3.25 -1.8 -3.3 L-1.15 -3.6 Q-0.9 -3.7 -0.7 -3.75 -1.05 -3.95 -0.75 -4.15 -0.45 -4.35 -0.15 -4.35 L0.25 -4.35 Q0.65 -4.3 0.65 -4.15 0.65 -4.05 0.6 -4.05 L0.65 -3.9 0.7 -3.9 Q0.8 -3.75 1.0 -3.6 1.25 -3.45 1.4 -3.45 L1.5 -3.45 1.65 -3.55 Q1.8 -3.8 1.95 -3.9 L2.25 -3.9 2.5 -3.85 2.65 -3.95 Q2.75 -4.05 3.0 -4.1 M5.9 0.25 L5.75 0.35 5.75 0.4 5.35 0.5 5.35 0.6 Q5.4 0.6 5.45 0.7 L5.55 0.75 Q5.65 0.75 5.75 0.7 L6.0 0.5 6.0 0.4 5.9 0.25 M2.15 3.9 L2.2 3.95 2.25 3.55 Q2.25 3.4 2.2 3.35 L2.05 3.6 2.1 3.75 Q2.1 3.9 2.15 3.9 M2.15 5.3 L2.1 5.5 2.05 5.95 1.8 6.1 1.7 6.1 1.6 6.5 1.45 6.5 1.4 7.0 Q1.4 7.45 1.45 7.5 1.6 8.7 1.75 9.15 1.9 9.5 2.15 9.65 L2.25 9.5 2.35 9.2 Q2.4 9.1 2.45 9.1 L2.45 9.05 2.7 9.0 Q2.9 8.95 2.8 8.8 L2.8 8.65 Q2.9 8.65 2.95 8.7 L3.0 8.5 3.05 8.35 3.05 6.7 Q3.05 6.25 2.75 5.7 2.45 5.15 2.3 5.15 2.2 5.15 2.15 5.3 M1.3 5.1 Q1.55 5.0 1.55 4.8 L1.15 4.7 1.1 4.7 Q1.05 4.75 1.05 4.85 1.05 5.1 1.3 5.1 M5.3 9.65 L5.35 9.75 5.35 9.9 5.3 10.05 Q5.3 10.1 5.2 10.1 L4.95 10.05 Q4.95 9.95 4.9 9.9 L4.9 9.75 4.95 9.55 5.1 9.55 Q5.2 9.55 5.3 9.65 M4.75 15.7 L4.85 15.85 4.85 16.45 4.95 16.55 5.0 16.55 5.05 16.4 5.15 16.35 5.25 16.4 5.4 16.6 5.4 16.9 5.3 16.95 5.2 17.1 Q5.0 17.1 4.85 16.9 L4.6 16.65 4.55 16.1 4.55 15.8 Q4.6 15.7 4.75 15.7 M5.55 15.9 L5.55 16.05 5.45 16.3 5.25 16.3 5.25 15.9 5.55 15.9 M3.8 22.8 L3.9 23.0 3.85 23.25 3.7 23.45 3.6 23.45 Q3.4 23.45 3.35 23.25 3.35 22.9 3.45 22.8 3.5 22.7 3.65 22.7 L3.75 22.75 3.8 22.8 M3.8 22.45 L3.75 22.45 Q3.7 22.45 3.7 22.35 3.7 22.25 3.75 22.25 L3.8 22.2 3.85 22.3 Q3.9 22.35 3.8 22.45 M0.05 26.35 Q-0.1 26.65 -0.3 26.65 -0.5 26.65 -0.6 26.5 -0.7 26.4 -0.9 26.05 L-0.9 25.55 -0.8 25.5 Q-0.75 25.55 -0.6 25.65 -0.5 25.8 -0.4 25.8 L-0.2 25.7 -0.05 25.55 0.05 25.55 0.1 25.6 Q0.2 26.0 0.05 26.35 M1.9 29.6 Q2.0 29.65 1.85 29.65 L1.7 29.6 1.65 29.5 1.65 28.9 Q1.7 28.8 1.75 28.8 L1.95 29.05 1.9 29.6 M1.05 30.55 L1.2 30.45 1.35 30.4 Q1.35 30.45 1.35 30.55 1.35 30.95 1.55 31.3 1.75 31.55 1.85 31.55 1.9 31.55 1.95 31.5 L1.95 31.45 Q2.15 31.65 2.15 31.8 2.2 31.95 2.05 32.4 L2.05 32.5 1.9 32.5 Q1.25 32.5 1.05 31.45 L1.05 30.55 M1.6 30.25 L1.7 30.2 Q1.85 30.3 1.8 30.55 L1.7 30.55 1.6 30.45 1.6 30.25 M-5.15 7.25 L-5.1 7.2 -4.95 7.15 Q-4.7 7.15 -4.8 7.45 -4.85 7.75 -5.0 7.75 L-5.1 7.75 -5.15 7.65 -5.15 7.25 M-4.65 9.75 Q-4.55 10.05 -4.65 10.3 L-4.8 10.8 -4.8 10.85 -4.85 10.85 Q-4.95 10.85 -5.1 10.7 L-5.1 10.35 -4.95 10.25 -4.85 10.1 -4.85 9.7 Q-4.75 9.7 -4.65 9.75 M-4.9 12.5 L-4.8 12.45 Q-4.7 12.55 -4.65 12.65 L-4.6 12.95 -4.6 14.05 -4.7 14.05 -4.8 14.0 -5.0 13.25 -4.9 12.5 M-1.2 11.9 Q-1.2 12.0 -1.35 12.2 -1.55 12.1 -1.55 12.05 L-1.55 11.85 -1.5 11.8 -1.35 11.8 Q-1.2 11.8 -1.2 11.9 M-1.6 12.55 Q-1.5 12.55 -1.35 12.7 -1.4 13.75 -1.3 14.1 -1.1 14.6 -1.05 15.05 L-1.05 15.75 Q-1.3 16.05 -1.5 16.05 -1.7 16.05 -1.85 15.65 -2.05 15.25 -2.1 14.45 -2.1 14.0 -2.0 13.65 L-1.9 13.35 -1.8 13.35 Q-1.65 12.9 -1.6 12.55 M-4.6 17.4 L-4.7 17.4 -4.7 17.35 -4.75 17.3 -4.75 17.15 Q-4.8 17.15 -4.65 17.15 L-4.55 17.15 -4.5 17.2 Q-4.5 17.3 -4.6 17.4 M-4.55 18.8 L-4.75 18.6 -4.75 18.35 -4.6 18.3 -4.5 18.3 -4.45 18.35 Q-4.45 18.6 -4.55 18.8 M-1.35 19.2 L-1.45 19.2 -1.5 19.15 -1.5 18.8 -1.4 18.8 Q-1.15 18.8 -1.2 18.95 -1.25 19.1 -1.35 19.2 M-2.2 18.65 L-2.15 18.6 -2.05 18.75 Q-2.05 18.8 -2.05 18.9 -2.05 19.25 -1.75 19.25 -1.5 19.3 -1.45 19.45 L-1.45 19.9 -1.6 20.05 -1.65 20.05 -1.8 20.0 -1.9 20.0 -2.05 19.8 -2.3 19.5 -2.3 18.75 -2.2 18.65 M-2.2 18.8 L-2.2 18.8 M-0.8 24.9 L-0.75 24.9 Q-0.55 25.0 -0.55 25.3 L-0.8 25.3 -0.85 25.2 -0.8 24.9" fill="#262626" fill-opacity="0.8" fill-rule="evenodd" stroke="none"/>
      <path d="M3.35 0.0 L3.25 0.0 Q3.3 0.25 3.4 0.35 3.45 0.4 3.6 0.45 3.45 0.6 3.25 0.65 L2.9 0.75 Q2.6 0.85 2.4 1.05 L2.75 1.3 Q3.05 1.45 3.2 1.45 L3.65 1.3 Q4.05 1.05 4.05 0.75 4.05 0.65 3.9 0.45 L3.65 0.25 3.65 0.15 3.7 0.05 3.5 0.05 3.35 0.0 M4.2 -0.75 L4.3 -0.6 4.25 -0.5 4.4 -0.4 4.25 -0.75 4.2 -0.75 M3.0 -4.1 L3.4 -4.15 3.65 -4.1 3.75 -4.05 3.95 -4.05 3.8 -4.15 Q3.7 -4.25 3.65 -4.35 L3.7 -4.35 Q4.05 -4.35 4.55 -4.15 5.2 -3.85 5.25 -3.35 L5.35 -3.35 5.7 -3.1 6.0 -3.25 Q6.25 -3.35 6.3 -3.35 6.4 -3.35 6.5 -3.2 6.7 -3.0 6.7 -2.35 6.7 -1.9 6.5 -1.5 6.35 -1.15 6.2 -1.1 L5.8 -0.6 Q5.45 -0.1 5.4 0.1 5.3 0.3 5.15 0.7 L5.0 1.3 4.85 1.85 Q4.75 2.1 4.6 2.2 L4.25 2.45 Q4.0 2.55 3.8 2.55 L3.45 2.45 Q3.1 2.45 2.75 2.6 2.5 2.7 2.05 3.0 L1.8 3.4 Q1.3 4.1 0.8 4.1 0.75 4.1 0.7 4.05 L0.65 4.05 Q0.55 3.95 0.45 3.7 L0.4 3.55 0.0 4.05 Q-0.55 4.55 -0.95 4.75 L-1.8 5.15 -2.15 5.2 -2.2 5.2 -2.6 5.25 -2.9 5.25 Q-3.55 5.25 -4.1 4.85 L-4.4 4.6 -4.65 4.35 -4.9 3.85 -4.95 3.55 -5.0 3.45 Q-5.1 3.15 -5.2 2.35 L-5.2 1.2 Q-5.2 0.5 -4.65 -0.65 -4.0 -1.9 -3.1 -2.5 L-2.45 -2.95 Q-2.05 -3.25 -1.8 -3.3 L-1.15 -3.6 Q-0.9 -3.7 -0.7 -3.75 -1.05 -3.95 -0.75 -4.15 -0.45 -4.35 -0.15 -4.35 L0.25 -4.35 Q0.65 -4.3 0.65 -4.15 0.65 -4.05 0.6 -4.05 L0.65 -3.9 0.7 -3.9 Q0.8 -3.75 1.0 -3.6 1.25 -3.45 1.4 -3.45 L1.5 -3.45 1.65 -3.55 Q1.8 -3.8 1.95 -3.9 L2.25 -3.9 2.5 -3.85 2.65 -3.95 Q2.75 -4.05 3.0 -4.1" fill="#262626" fill-opacity="0.8" fill-rule="evenodd" stroke="none"/>
    </g>
    <g id="shape1" transform="matrix(1.0, 0.0, 0.0, 1.0, 5.2, 4.35)">
      <path d="M3.55 -3.95 L3.4 -4.0 Q2.55 -4.0 2.1 -3.05 2.05 -3.2 2.1 -3.35 L2.05 -3.25 1.95 -3.2 1.9 -3.25 2.0 -3.35 1.95 -3.45 1.95 -3.4 1.85 -3.45 1.85 -3.5 2.05 -3.5 2.15 -3.4 2.2 -3.55 Q2.05 -3.65 1.95 -3.7 L1.85 -3.6 Q1.7 -3.35 1.4 -3.35 1.25 -3.35 1.0 -3.5 0.8 -3.6 0.75 -3.7 L0.85 -3.45 1.0 -3.3 1.15 -3.1 1.1 -3.05 1.05 -3.1 1.05 -3.05 0.85 -3.05 0.55 -3.15 Q0.35 -3.15 0.35 -3.25 L0.35 -3.3 0.45 -3.3 0.35 -3.45 0.15 -3.45 Q0.0 -3.5 -0.05 -3.55 L0.15 -3.6 0.2 -3.55 0.15 -3.65 0.2 -3.65 Q0.25 -3.65 0.3 -3.65 0.15 -3.95 -0.1 -4.05 -0.3 -4.15 -0.55 -4.1 L-0.75 -3.95 -0.55 -3.8 -0.5 -3.75 -0.5 -3.7 Q-0.7 -3.65 -1.1 -3.45 -1.6 -3.2 -1.75 -3.15 -1.95 -3.1 -2.35 -2.8 -2.8 -2.4 -2.95 -2.3 -3.55 -2.0 -4.2 -0.95 -4.95 0.25 -4.95 1.25 L-4.95 2.3 -4.9 2.8 -4.9 2.9 Q-4.75 3.45 -4.6 3.8 -4.35 4.25 -4.0 4.5 -3.85 4.65 -3.65 4.65 L-3.1 4.7 Q-2.7 4.7 -2.15 4.25 -1.65 3.75 -1.5 3.75 L-1.45 3.75 -1.5 3.95 -1.25 3.95 Q-0.8 3.85 -0.4 3.4 0.0 3.05 0.35 3.05 L0.4 3.05 0.4 3.25 0.5 3.35 0.5 3.4 0.65 3.7 0.75 3.85 0.8 3.85 1.0 3.8 Q1.1 3.7 1.3 3.3 L1.15 3.35 Q1.35 3.05 1.4 2.9 1.5 2.7 1.6 1.8 1.6 1.75 1.6 0.7 L1.65 0.5 1.7 0.5 1.75 0.7 Q2.0 -0.25 2.5 -0.25 L2.6 -0.25 2.6 -0.2 3.0 -0.3 3.0 -0.4 Q2.9 -1.05 3.2 -1.05 L3.7 -1.05 3.7 -1.2 3.5 -1.3 3.5 -1.4 3.8 -1.4 3.75 -1.45 4.05 -2.0 Q4.1 -2.15 4.05 -2.25 4.15 -2.1 4.2 -2.0 4.2 -1.85 4.1 -1.65 3.95 -1.4 3.85 -1.4 L4.3 -1.25 4.3 -1.35 4.2 -1.45 4.1 -1.45 4.1 -1.55 Q4.15 -1.65 4.25 -1.7 L4.4 -1.75 4.35 -1.9 4.55 -1.9 4.45 -2.0 4.45 -2.05 Q4.45 -2.2 4.1 -2.45 L4.05 -2.55 4.2 -2.6 Q4.35 -2.6 4.4 -2.7 L4.4 -2.95 4.55 -2.95 4.55 -3.05 4.45 -3.25 4.5 -3.25 4.5 -3.3 4.2 -3.55 3.9 -3.7 3.9 -3.75 4.15 -3.75 Q4.2 -3.8 4.25 -3.85 L3.85 -3.95 3.55 -3.8 3.9 -3.65 Q4.05 -3.55 4.2 -3.4 L4.2 -3.25 4.0 -3.05 Q3.9 -2.95 3.85 -2.6 L3.9 -2.55 4.0 -2.25 3.95 -2.35 3.75 -2.5 3.75 -2.8 Q3.75 -2.9 3.9 -3.1 4.1 -3.25 4.1 -3.3 4.1 -3.4 3.85 -3.55 L3.55 -3.7 Q3.35 -3.8 3.5 -3.9 L3.55 -3.95 M3.0 -4.1 L3.4 -4.15 3.65 -4.1 3.75 -4.05 3.95 -4.05 3.8 -4.15 Q3.7 -4.25 3.65 -4.35 L3.7 -4.35 Q4.05 -4.35 4.55 -4.15 5.2 -3.85 5.25 -3.35 L5.35 -3.35 5.7 -3.1 6.0 -3.25 Q6.25 -3.35 6.3 -3.35 6.4 -3.35 6.5 -3.2 6.7 -3.0 6.7 -2.35 6.7 -1.9 6.5 -1.5 6.35 -1.15 6.2 -1.1 L5.8 -0.6 Q5.45 -0.1 5.4 0.1 5.3 0.3 5.15 0.7 L5.0 1.3 4.85 1.85 Q4.75 2.1 4.6 2.2 L4.25 2.45 Q4.0 2.55 3.8 2.55 L3.45 2.45 Q3.1 2.45 2.75 2.6 2.5 2.7 2.05 3.0 L1.8 3.4 Q1.3 4.1 0.8 4.1 0.75 4.1 0.7 4.05 L0.65 4.05 Q0.55 3.95 0.45 3.7 L0.4 3.55 0.0 4.05 Q-0.55 4.55 -0.95 4.75 L-1.8 5.15 -2.15 5.2 -2.2 5.2 -2.6 5.25 -2.9 5.25 Q-3.55 5.25 -4.1 4.85 L-4.4 4.6 -4.65 4.35 -4.9 3.85 -4.95 3.55 -5.0 3.45 Q-5.1 3.15 -5.2 2.35 L-5.2 1.2 Q-5.2 0.5 -4.65 -0.65 -4.0 -1.9 -3.1 -2.5 L-2.45 -2.95 Q-2.05 -3.25 -1.8 -3.3 L-1.15 -3.6 Q-0.9 -3.7 -0.7 -3.75 -1.05 -3.95 -0.75 -4.15 -0.45 -4.35 -0.15 -4.35 L0.25 -4.35 Q0.65 -4.3 0.65 -4.15 0.65 -4.05 0.6 -4.05 L0.65 -3.9 0.7 -3.9 Q0.8 -3.75 1.0 -3.6 1.25 -3.45 1.4 -3.45 L1.5 -3.45 1.65 -3.55 Q1.8 -3.8 1.95 -3.9 L2.25 -3.9 2.5 -3.85 2.65 -3.95 Q2.75 -4.05 3.0 -4.1 M3.25 -3.8 L3.35 -3.9 3.4 -3.7 3.4 -3.6 3.35 -3.6 3.25 -3.7 3.25 -3.8 M4.1 -4.0 L4.35 -3.95 4.3 -4.0 Q4.15 -4.1 4.15 -4.2 L4.2 -4.2 3.95 -4.25 4.1 -4.1 4.1 -4.0 M5.25 -3.25 L5.25 -3.15 5.2 -3.1 5.2 -3.05 Q5.2 -3.0 5.65 -2.4 L5.65 -2.1 Q5.4 -1.65 5.25 -1.5 L5.2 -1.2 5.2 -0.9 Q5.3 -0.7 5.3 -0.5 L5.3 -0.4 Q5.3 -0.35 5.2 -0.25 L5.1 -0.25 5.0 -0.1 Q4.85 -0.05 4.7 -0.05 4.6 -0.05 4.5 -0.25 L4.45 -0.2 4.2 -0.4 3.9 -0.1 3.9 -0.05 3.85 0.05 3.8 0.2 Q3.9 0.2 4.05 0.4 L4.2 0.7 Q4.2 1.05 4.05 1.2 L3.75 1.4 Q3.7 1.45 3.5 1.55 L3.2 1.6 Q3.0 1.6 2.7 1.45 2.4 1.3 2.3 1.15 L2.15 1.2 2.1 1.2 2.1 1.7 Q2.1 1.95 2.15 2.15 L2.25 2.5 Q2.25 2.6 2.2 2.75 2.5 2.55 2.7 2.45 2.9 2.25 3.0 2.2 3.2 2.1 3.45 2.1 3.6 2.05 3.75 1.9 L4.05 1.55 4.1 1.65 4.15 1.65 Q4.35 0.8 4.45 0.8 L4.6 0.75 4.8 0.4 4.8 0.15 Q4.75 0.1 4.75 0.05 5.1 -0.1 5.15 -0.15 5.35 -0.35 5.35 -0.7 L5.35 -0.8 5.3 -0.85 5.3 -1.0 Q5.3 -1.2 5.5 -1.35 5.8 -1.65 5.8 -1.85 L5.75 -2.0 5.7 -2.2 5.8 -2.35 Q5.9 -2.4 5.9 -2.7 5.9 -2.85 5.8 -2.9 L5.65 -3.0 5.7 -3.0 Q5.6 -3.05 5.5 -3.1 L5.25 -3.25 M5.1 -3.15 L4.95 -3.25 4.8 -3.4 4.8 -3.35 4.75 -3.25 Q4.75 -3.15 4.9 -3.1 5.0 -2.9 5.0 -2.35 L5.0 -2.25 5.1 -2.4 Q5.05 -2.6 5.1 -2.65 5.2 -2.65 5.3 -2.55 5.4 -2.45 5.4 -2.25 5.35 -2.0 5.05 -1.9 5.0 -1.9 5.05 -2.0 5.1 -2.05 4.95 -2.15 L4.95 -2.05 Q4.85 -1.95 4.75 -1.9 L4.8 -1.85 4.85 -1.75 Q4.85 -1.65 4.8 -1.45 L4.65 -1.2 4.8 -1.1 4.75 -1.15 Q4.75 -1.2 4.75 -1.3 L4.85 -1.5 Q4.9 -1.6 5.0 -1.6 L5.05 -1.6 5.05 -1.55 Q5.0 -1.45 4.95 -1.25 4.95 -1.1 4.9 -1.05 L5.05 -1.0 Q5.0 -1.35 5.2 -1.65 L5.5 -2.2 5.5 -2.35 Q5.4 -2.65 5.1 -3.0 L5.1 -3.15 M2.85 -0.95 L2.85 -1.05 2.95 -1.1 2.95 -1.15 3.15 -1.15 3.2 -1.1 3.2 -1.05 3.15 -1.05 3.05 -1.1 2.9 -0.85 2.9 -0.45 2.85 -0.45 Q2.75 -0.75 2.8 -0.9 L2.85 -0.95 M1.15 -1.65 Q1.2 -1.6 1.2 -1.5 L1.2 -1.45 1.05 -1.45 1.2 -1.35 Q1.35 -1.1 1.35 -0.6 L1.35 -0.75 1.4 -0.8 1.45 -0.7 1.45 -0.4 Q1.55 -0.65 1.55 -0.85 L1.55 -0.9 Q1.5 -0.85 1.4 -0.85 1.3 -0.85 1.35 -0.9 L1.35 -1.65 1.25 -1.7 1.1 -1.7 1.05 -1.65 1.15 -1.65 M0.55 -2.0 L0.6 -2.2 0.35 -2.45 0.7 -2.5 0.75 -2.5 0.75 -2.55 Q0.9 -2.55 1.0 -2.35 L1.2 -1.8 1.25 -1.85 Q1.55 -1.85 1.5 -1.1 L1.55 -1.1 1.65 -1.0 1.7 -0.9 Q1.7 -0.5 1.35 0.1 L1.0 0.65 Q0.9 0.8 0.6 0.9 L0.45 0.95 0.45 1.0 0.1 1.35 0.15 1.35 0.25 1.3 0.4 1.3 0.15 1.6 Q-0.05 1.85 -0.05 2.0 -0.05 2.05 0.0 2.05 L-0.05 2.25 -0.1 2.35 Q-0.15 2.45 -0.4 2.6 -0.65 2.75 -0.8 2.75 -0.9 2.75 -1.05 2.5 -1.2 2.25 -1.2 2.15 -1.1 2.2 -0.95 2.4 L-0.95 2.45 Q-0.45 2.3 -0.3 1.4 L-0.25 0.55 Q-0.2 0.05 -0.1 -0.3 L-0.15 -0.3 -0.25 -0.15 -0.3 -0.35 Q0.2 -1.55 0.55 -2.0 M0.1 -2.15 L0.15 -2.05 0.15 -1.95 Q0.1 -1.9 -0.1 -1.85 L-0.25 -1.65 -0.35 -1.4 -0.55 -0.85 -0.8 -0.3 Q-0.7 -0.8 -0.55 -1.2 -0.3 -1.85 0.1 -2.15 M1.7 -2.0 Q1.8 -1.95 1.85 -1.8 L1.95 -1.45 1.95 -1.05 1.85 -1.05 Q1.85 -1.45 1.6 -1.45 1.6 -1.8 1.5 -1.85 L1.4 -1.95 1.3 -2.0 1.3 -2.35 Q1.5 -2.1 1.7 -2.0 M2.25 -3.0 L2.4 -3.0 2.55 -2.9 Q2.5 -2.75 2.4 -2.75 L2.2 -2.7 Q2.3 -2.55 2.5 -2.5 2.75 -2.4 2.8 -2.35 L2.8 -2.25 Q2.75 -2.1 2.65 -2.05 L2.5 -2.0 Q2.25 -2.0 1.7 -2.35 1.15 -2.75 1.1 -3.0 L2.25 -3.0 M2.25 -2.8 Q2.35 -2.85 2.35 -2.9 1.75 -2.85 1.3 -2.9 L1.25 -2.9 Q2.2 -2.1 2.5 -2.1 2.7 -2.1 2.7 -2.3 L2.4 -2.45 Q2.2 -2.55 2.1 -2.7 2.1 -2.8 2.25 -2.8 M2.3 -3.8 L2.4 -3.75 2.4 -3.8 2.3 -3.8 M4.55 -3.25 L4.55 -3.25 M3.85 -1.9 Q3.95 -1.9 3.9 -1.85 L3.7 -1.5 3.65 -1.65 3.75 -1.8 Q3.8 -1.9 3.85 -1.9 M3.85 -3.25 Q3.9 -3.35 3.85 -3.4 L3.75 -3.5 Q3.8 -3.5 3.9 -3.45 4.0 -3.4 4.0 -3.35 4.0 -3.25 3.9 -3.2 L3.85 -3.25 M5.05 -3.05 L4.9 -3.1 Q4.85 -3.15 4.9 -3.25 5.05 -3.25 5.05 -3.1 L5.05 -3.05 M3.75 -1.15 L3.8 -1.15 3.8 -0.95 Q3.95 -0.95 3.95 -0.8 L4.0 -0.8 4.1 -0.85 4.2 -0.8 3.85 -1.1 3.75 -1.15 M4.25 -1.05 L4.0 -1.25 3.7 -1.35 Q3.95 -1.25 4.25 -0.95 4.6 -0.55 4.7 -0.15 L4.8 -0.2 4.8 -0.25 4.85 -0.3 4.8 -0.5 4.65 -0.75 4.55 -0.9 4.25 -1.05 M3.4 -0.95 Q3.15 -1.0 3.1 -0.75 3.1 -0.65 3.15 -0.5 L3.2 -0.25 3.2 -0.2 Q3.2 -0.45 3.2 -0.5 L3.4 -0.45 3.5 -0.5 3.55 -0.5 Q3.6 -0.5 3.65 -0.55 L3.7 -0.65 3.65 -0.8 3.7 -0.8 3.5 -0.9 3.55 -0.95 3.4 -0.95 M4.55 -1.3 L4.45 -1.2 4.5 -1.2 4.55 -1.3 M4.15 -0.25 L4.2 -0.25 Q4.3 -0.25 4.5 -0.15 4.65 0.0 4.65 0.15 4.65 0.25 4.6 0.35 4.5 0.4 4.4 0.4 L4.35 0.4 Q4.3 0.1 4.15 -0.25 M4.25 -0.75 L4.2 -0.75 4.3 -0.6 4.25 -0.5 4.4 -0.4 4.25 -0.75 M3.35 0.0 L3.25 0.0 Q3.3 0.25 3.4 0.35 3.45 0.4 3.6 0.45 3.45 0.6 3.25 0.65 L2.9 0.75 Q2.6 0.85 2.4 1.05 L2.75 1.3 Q3.05 1.45 3.2 1.45 L3.65 1.3 Q4.05 1.05 4.05 0.75 4.05 0.65 3.9 0.45 L3.65 0.25 3.65 0.15 3.7 0.05 3.5 0.05 3.35 0.0 M5.1 -0.75 L4.85 -0.95 4.95 -0.8 Q5.0 -0.8 5.1 -0.75 L5.1 -0.75 M2.65 -0.1 Q2.5 -0.05 2.35 0.2 L2.25 0.35 2.2 0.6 2.25 0.5 Q2.5 0.3 2.6 0.3 2.75 0.3 2.85 0.25 L2.85 0.15 Q2.8 0.15 2.8 0.1 L2.85 0.1 Q2.9 0.1 2.95 0.1 L2.95 -0.1 2.65 -0.1 M1.15 0.6 Q1.15 0.7 1.0 0.85 0.85 1.05 0.75 1.05 L0.65 1.0 1.15 0.6 M4.6 0.65 Q4.5 0.75 4.4 0.75 L4.35 0.7 Q4.6 0.6 4.6 0.5 4.6 0.4 4.7 0.3 L4.75 0.45 Q4.7 0.6 4.6 0.65" fill="#c1ff3f" fill-rule="evenodd" stroke="none"/>
      <path d="M-0.4 2.6 Q-0.65 2.75 -0.8 2.75 -0.9 2.75 -1.05 2.5 -1.2 2.25 -1.2 2.15 -1.1 2.2 -0.95 2.4 -0.9 2.6 -0.8 2.6 -0.25 2.35 -0.1 2.3 -0.15 2.45 -0.4 2.6 M4.6 0.65 Q4.5 0.75 4.4 0.75 L4.35 0.7 Q4.6 0.6 4.6 0.5 4.6 0.4 4.7 0.3 L4.75 0.45 Q4.7 0.6 4.6 0.65 M4.2 -0.75 L4.3 -0.6 4.25 -0.5 4.4 -0.4 4.25 -0.75 4.2 -0.75 M3.35 0.0 L3.25 0.0 Q3.3 0.25 3.4 0.35 3.45 0.4 3.6 0.45 3.45 0.6 3.25 0.65 L2.9 0.75 Q2.6 0.85 2.4 1.05 L2.75 1.3 Q3.05 1.45 3.2 1.45 L3.65 1.3 Q4.05 1.05 4.05 0.75 4.05 0.65 3.9 0.45 L3.65 0.25 3.65 0.15 3.7 0.05 3.5 0.05 3.35 0.0 M3.1 -0.05 L3.1 -0.15 2.95 -0.1 2.65 -0.1 Q2.5 -0.05 2.35 0.2 L2.25 0.35 Q2.15 0.65 2.1 1.05 L2.15 1.1 2.4 0.85 2.7 0.7 Q2.85 0.65 3.05 0.6 L3.35 0.5 3.2 0.3 Q3.15 0.15 3.15 -0.05 L3.1 -0.05 M3.7 -1.35 Q3.95 -1.25 4.25 -0.95 4.6 -0.55 4.7 -0.15 4.75 -0.15 4.9 -0.25 L5.1 -0.4 5.1 -0.45 5.15 -0.55 5.15 -0.65 5.1 -0.75 Q4.9 -0.95 4.4 -1.15 4.0 -1.3 3.7 -1.35 M3.8 -1.15 L3.8 -0.95 3.4 -0.95 Q3.15 -1.0 3.1 -0.75 3.1 -0.65 3.15 -0.5 L3.2 -0.25 3.25 -0.15 3.65 -0.1 Q3.8 -0.15 4.15 -0.6 L4.05 -0.7 3.95 -0.75 4.0 -0.8 4.1 -0.85 4.2 -0.8 3.85 -1.1 3.75 -1.15 3.8 -1.15 M5.25 -3.15 L5.2 -3.1 5.2 -3.05 Q5.2 -3.0 5.65 -2.4 L5.65 -2.1 Q5.4 -1.65 5.25 -1.5 L5.2 -1.2 5.2 -0.9 Q5.3 -0.7 5.3 -0.5 L5.3 -0.4 Q5.3 -0.35 5.2 -0.25 L5.1 -0.25 5.0 -0.1 Q4.85 -0.05 4.7 -0.05 4.6 -0.05 4.5 -0.25 L4.45 -0.2 4.2 -0.4 3.9 -0.1 3.9 -0.05 3.85 0.05 3.8 0.2 Q3.9 0.2 4.05 0.4 L4.2 0.7 Q4.2 1.05 4.05 1.2 L3.75 1.4 Q3.7 1.45 3.5 1.55 L3.2 1.6 Q3.0 1.6 2.7 1.45 2.4 1.3 2.3 1.15 L2.15 1.2 2.1 1.2 2.1 1.7 Q2.1 1.95 2.15 2.15 L2.25 2.5 Q2.25 2.6 2.2 2.75 2.5 2.55 2.7 2.45 3.0 2.3 3.45 2.3 L3.7 2.35 3.9 2.4 Q3.95 2.4 4.25 2.2 L4.6 2.0 Q4.75 1.55 4.9 1.0 L5.3 -0.1 Q5.35 -0.25 5.7 -0.7 6.0 -1.1 6.15 -1.2 L6.35 -1.6 Q6.5 -2.0 6.5 -2.4 6.5 -2.6 6.45 -2.9 6.35 -3.2 6.25 -3.2 L6.0 -3.1 Q5.8 -3.0 5.7 -3.0 5.65 -3.0 5.5 -3.1 L5.25 -3.25 5.25 -3.15 M5.1 -3.15 L4.95 -3.25 4.8 -3.4 4.8 -3.35 4.75 -3.25 Q4.75 -3.15 4.9 -3.1 5.0 -2.9 5.0 -2.35 5.0 -2.15 4.95 -2.05 4.85 -1.95 4.75 -1.9 L4.8 -1.85 4.85 -1.75 Q4.85 -1.65 4.8 -1.45 L4.65 -1.2 5.05 -1.0 Q5.0 -1.35 5.2 -1.65 L5.5 -2.2 5.5 -2.35 Q5.4 -2.65 5.1 -3.0 L5.1 -3.15 M1.4 -0.85 Q1.3 -0.85 1.35 -0.9 L1.35 -1.65 1.25 -1.7 1.1 -1.7 0.65 -0.95 Q0.2 -0.15 0.2 0.65 L0.2 0.9 0.6 0.8 Q0.8 0.75 0.95 0.55 L1.25 0.1 Q1.55 -0.4 1.55 -0.85 L1.55 -0.9 Q1.5 -0.85 1.4 -0.85 M1.05 -1.95 L0.9 -2.25 0.75 -2.5 0.75 -2.55 Q0.9 -2.55 1.0 -2.35 L1.2 -1.8 1.25 -1.85 Q1.55 -1.85 1.5 -1.1 L1.55 -1.1 1.65 -1.0 1.7 -0.9 Q1.7 -0.5 1.35 0.1 L1.0 0.65 Q0.9 0.8 0.6 0.9 0.3 1.0 0.15 1.15 L0.1 1.1 Q0.05 0.45 0.2 -0.1 0.25 -0.4 0.45 -0.8 L0.75 -1.3 Q0.95 -1.65 1.05 -1.95 M0.1 -2.15 L0.15 -2.05 0.15 -1.95 Q0.1 -1.9 -0.1 -1.85 L-0.25 -1.65 -0.35 -1.4 -0.55 -0.85 -0.8 -0.3 Q-0.7 -0.8 -0.55 -1.2 -0.3 -1.85 0.1 -2.15 M0.35 -3.5 L0.3 -3.45 0.15 -3.45 Q0.0 -3.5 -0.05 -3.55 L0.15 -3.6 Q0.25 -3.6 0.35 -3.5 M2.25 -3.0 L2.4 -3.0 2.55 -2.9 Q2.5 -2.75 2.4 -2.75 L2.2 -2.7 Q2.3 -2.55 2.5 -2.5 2.75 -2.4 2.8 -2.35 L2.8 -2.25 Q2.75 -2.1 2.65 -2.05 L2.5 -2.0 Q2.25 -2.0 1.7 -2.35 1.15 -2.75 1.1 -3.0 L2.25 -3.0 M2.25 -2.8 Q2.35 -2.85 2.35 -2.9 1.75 -2.85 1.3 -2.9 L1.25 -2.9 Q2.2 -2.1 2.5 -2.1 2.7 -2.1 2.7 -2.3 L2.4 -2.45 Q2.2 -2.55 2.1 -2.7 2.1 -2.8 2.25 -2.8 M3.85 -3.95 L3.55 -3.8 3.9 -3.65 Q4.05 -3.55 4.2 -3.4 L4.2 -3.25 4.0 -3.05 Q3.9 -2.95 3.85 -2.6 L4.1 -2.45 Q4.2 -2.3 4.2 -2.05 4.2 -1.9 4.1 -1.65 3.95 -1.4 3.85 -1.4 L4.15 -1.3 4.5 -1.2 Q4.7 -1.6 4.7 -1.75 L4.6 -1.9 4.45 -2.0 Q4.5 -2.05 4.55 -2.05 L4.7 -2.05 Q4.75 -2.05 4.8 -2.1 4.9 -2.2 4.9 -2.6 4.9 -2.9 4.7 -3.1 L4.5 -3.25 Q4.55 -3.35 4.6 -3.35 L4.65 -3.35 4.7 -3.45 Q4.7 -3.7 4.25 -3.85 L3.85 -3.95 M4.1 -4.1 L4.1 -4.0 4.35 -3.95 Q4.45 -3.95 4.6 -3.85 4.75 -3.7 4.85 -3.55 L4.8 -3.45 4.85 -3.5 Q5.0 -3.5 5.1 -3.4 4.9 -3.75 4.6 -4.0 4.3 -4.2 3.95 -4.25 L4.1 -4.1 M3.0 -4.1 L3.4 -4.15 3.65 -4.1 3.75 -4.05 3.95 -4.05 3.8 -4.15 Q3.7 -4.25 3.65 -4.35 L3.7 -4.35 Q4.05 -4.35 4.55 -4.15 5.2 -3.85 5.25 -3.35 L5.35 -3.35 5.7 -3.1 6.0 -3.25 Q6.25 -3.35 6.3 -3.35 6.4 -3.35 6.5 -3.2 6.7 -3.0 6.7 -2.35 6.7 -1.9 6.5 -1.5 6.35 -1.15 6.2 -1.1 L5.8 -0.6 Q5.45 -0.1 5.4 0.1 5.3 0.3 5.15 0.7 L5.0 1.3 4.85 1.85 Q4.75 2.1 4.6 2.2 L4.25 2.45 Q4.0 2.55 3.8 2.55 L3.45 2.45 Q3.1 2.45 2.75 2.6 2.5 2.7 2.05 3.0 L1.8 3.4 Q1.3 4.1 0.8 4.1 0.75 4.1 0.7 4.05 L0.65 4.05 Q0.55 3.95 0.45 3.7 L0.4 3.55 0.0 4.05 Q-0.55 4.55 -0.95 4.75 L-1.8 5.15 -2.15 5.2 -2.2 5.2 -2.6 5.25 -2.9 5.25 Q-3.55 5.25 -4.1 4.85 L-4.4 4.6 -4.65 4.35 -4.9 3.85 -4.95 3.55 -5.0 3.45 Q-5.1 3.15 -5.2 2.35 L-5.2 1.2 Q-5.2 0.5 -4.65 -0.65 -4.0 -1.9 -3.1 -2.5 L-2.45 -2.95 Q-2.05 -3.25 -1.8 -3.3 L-1.15 -3.6 Q-0.9 -3.7 -0.7 -3.75 -1.05 -3.95 -0.75 -4.15 -0.45 -4.35 -0.15 -4.35 L0.25 -4.35 Q0.65 -4.3 0.65 -4.15 0.65 -4.05 0.6 -4.05 L0.65 -3.9 0.7 -3.9 Q0.8 -3.75 1.0 -3.6 1.25 -3.45 1.4 -3.45 L1.5 -3.45 1.65 -3.55 Q1.8 -3.8 1.95 -3.9 L2.25 -3.9 2.5 -3.85 2.65 -3.95 Q2.75 -4.05 3.0 -4.1 M3.55 -3.95 L3.4 -4.0 Q2.55 -4.0 2.1 -3.05 2.05 -3.2 2.1 -3.35 L2.05 -3.25 1.95 -3.2 1.9 -3.25 2.0 -3.35 1.95 -3.45 1.95 -3.4 1.85 -3.45 1.85 -3.5 2.05 -3.5 2.15 -3.4 Q2.15 -3.5 2.25 -3.65 L2.4 -3.8 Q2.0 -3.85 1.85 -3.6 1.7 -3.35 1.4 -3.35 1.25 -3.35 1.0 -3.5 0.8 -3.6 0.75 -3.7 L0.85 -3.45 1.0 -3.3 1.15 -3.1 1.1 -3.05 Q0.9 -3.1 0.7 -3.5 0.5 -3.85 0.55 -4.05 L0.3 -4.2 0.0 -4.25 -0.35 -4.2 Q-0.55 -4.15 -0.75 -3.95 L-0.55 -3.8 -0.5 -3.75 -0.5 -3.7 Q-0.7 -3.65 -1.1 -3.45 -1.6 -3.2 -1.75 -3.15 -1.95 -3.1 -2.35 -2.8 -2.8 -2.4 -2.95 -2.3 -3.55 -2.0 -4.2 -0.95 -4.95 0.25 -4.95 1.25 L-4.95 2.3 -4.9 2.8 -4.9 2.9 Q-4.75 3.45 -4.6 3.8 -4.35 4.25 -4.0 4.55 -3.85 4.65 -3.3 4.85 L-2.75 5.0 -2.25 5.0 -2.0 4.95 -1.95 4.95 -1.2 4.6 Q-0.7 4.4 -0.1 3.8 L0.4 3.25 Q0.45 3.25 0.45 3.3 L0.5 3.35 0.5 3.4 0.65 3.7 0.75 3.85 0.8 3.85 0.9 3.9 Q1.15 3.9 1.55 3.45 2.05 2.9 2.05 2.4 L2.0 2.2 Q1.95 1.95 1.95 1.7 1.95 1.05 2.1 0.5 L2.35 0.1 2.55 -0.15 2.55 -0.2 3.0 -0.3 3.0 -0.4 Q2.9 -1.05 3.2 -1.05 L3.7 -1.05 3.7 -1.2 3.5 -1.3 3.5 -1.4 3.8 -1.4 3.75 -1.45 4.05 -2.0 Q4.1 -2.25 3.95 -2.35 L3.75 -2.5 3.75 -2.8 Q3.75 -2.9 3.9 -3.1 4.1 -3.25 4.1 -3.3 4.1 -3.4 3.85 -3.55 L3.55 -3.7 Q3.35 -3.8 3.5 -3.9 L3.55 -3.95" fill="#31a800" fill-rule="evenodd" stroke="none"/>
    </g>
  </defs>
</svg>
